<svg xmlns="http://www.w3.org/2000/svg" width="126.92" height="114.28" viewBox="0 0 126.92 114.28">
  <defs>
    <style>
      .cls-1 {
        fill: #ffe771;
      }

      .cls-2 {
        fill: #fff0b0;
      }

      .cls-3 {
        fill: #fff6d2;
      }

      .cls-4 {
        fill: #ffed94;
      }

      .cls-5 {
        fill: #fff3c0;
      }
    </style>
  </defs>
  <title>05_star_vibrates</title>
  <g id="star02">
    <path class="cls-1" d="M75.68,13.63l.53,28.55A1.77,1.77,0,0,0,77,43.62l23.82,15.74a1.77,1.77,0,0,1-.4,3.15l-27,9.33A1.77,1.77,0,0,0,72.32,73L64.7,100.57a1.77,1.77,0,0,1-3.12.6L44.37,78.38a1.77,1.77,0,0,0-1.49-.7L14.35,78.94a1.77,1.77,0,0,1-1.53-2.78L29.17,52.75a1.77,1.77,0,0,0,.21-1.64l-10-26.74a1.77,1.77,0,0,1,2.17-2.32l27.32,8.31a1.77,1.77,0,0,0,1.62-.31L72.8,12.27A1.77,1.77,0,0,1,75.68,13.63Z"/>
    <path class="cls-2" d="M72.37,5.87C68.28,9,64.13,12,60,15c-2.06,1.53-4.14,3-6.21,4.52L47.56,24a.81.81,0,0,1-.7.12h0Q37.38,21.41,28,18.58c-6.29-1.86-12.54-3.81-18.82-5.71l1.47-1.51L13.91,21l3.27,9.69q3.24,9.7,6.4,19.43v0a.82.82,0,0,1-.09.69l-4.14,6.38c-1.39,2.12-2.77,4.25-4.18,6.36-2.82,4.22-5.59,8.47-8.46,12.65,2.48-4.43,5.06-8.8,7.6-13.19,1.27-2.2,2.56-4.38,3.86-6.56L22.05,50l-.08.72q-3.49-9.61-6.88-19.27l-3.37-9.66L8.38,12.12A1.18,1.18,0,0,1,9.85,10.6c6.25,2,12.52,3.88,18.76,5.88s12.49,4,18.72,6l-.73.11L53,18.39c2.14-1.41,4.27-2.82,6.43-4.21C63.74,11.41,68,8.59,72.37,5.87Z"/>
    <path class="cls-3" d="M65.66,0,54.43,7.64,43.15,15.22a.37.37,0,0,1-.29.05h0L32.4,12.8,22,10.27,1.12,5.18l.71-.74L7.89,25.72l3,10.64,3,10.66h0a.38.38,0,0,1,0,.29L7,58.88,0,70.41,6.55,58.65l6.62-11.72,0,.3L10,36.63,6.87,26,.69,4.77A.59.59,0,0,1,1.09,4,.6.6,0,0,1,1.4,4L22.22,9.24l10.41,2.62L43,14.53l-.3.05L54.17,7.26Z"/>
    <path class="cls-4" d="M81.15,10.34c.57,5.1,1,10.2,1.53,15.3.26,2.55.47,5.1.7,7.65L84,40.94l-.37-.64Q91.87,45.71,100,51.21c5.45,3.64,10.85,7.36,16.27,11a1.18,1.18,0,0,1-.27,2.09l-9.65,3.39L96.71,71.1Q87,74.44,77.34,77.69l.52-.51-2.71,7.11c-.91,2.37-1.81,4.74-2.74,7.1-1.86,4.72-3.68,9.46-5.61,14.15,1.49-4.85,3.1-9.67,4.65-14.5.77-2.42,1.58-4.82,2.39-7.23l2.42-7.21a.81.81,0,0,1,.48-.5h0Q86.36,72.5,96,69l9.62-3.46,9.63-3.44L115,64.21c-5.39-3.73-10.81-7.42-16.17-11.19S88,45.5,82.7,41.7l0,0a.82.82,0,0,1-.34-.63L82,33.38c-.11-2.56-.24-5.12-.32-7.68C81.48,20.58,81.26,15.46,81.15,10.34Z"/>
    <path class="cls-5" d="M89.91,11.94l1.46,13.51L92.75,39l-.15-.27,8.55,6.49,8.52,6.53,17,13.08a.59.59,0,0,1,.11.83.6.6,0,0,1-.24.19l-20.48,8.36L95.82,78.33,85.56,82.45l.21-.21L80.7,94.7l-5.14,12.44,4.71-12.61L85.05,82a.37.37,0,0,1,.2-.21h0l10.19-4.3,10.21-4.25,20.44-8.47-.14,1L109,52.55,100.56,46l-8.43-6.64h0A.38.38,0,0,1,92,39L90.9,25.49Z"/>
    <path class="cls-4" d="M16.41,85.36c2-.45,4.08-.83,6.13-1.2s4.09-.7,6.15-1,4.1-.62,6.16-.88S39,81.71,41,81.48a1.15,1.15,0,0,1,1,.42l0,0c1.66,2.08,3.28,4.19,4.89,6.32s3.19,4.27,4.77,6.41L54,97.9l2.29,3.28,2.24,3.32c.73,1.12,1.46,2.24,2.16,3.38-.93-1-1.84-1.95-2.74-2.93l-2.66-3-2.61-3-2.57-3.06c-1.68-2.07-3.39-4.11-5-6.22s-3.3-4.18-4.9-6.31l1,.44c-2.06.22-4.13.41-6.19.58s-4.13.33-6.2.48-4.14.26-6.22.35S18.5,85.35,16.41,85.36Z"/>
    <path class="cls-5" d="M13.8,91.75c2-.34,4.1-.63,6.15-.94s4.11-.56,6.16-.84c4.11-.58,8.23-1,12.35-1.51a.55.55,0,0,1,.5.2h0c1.66,2.08,3.28,4.19,4.89,6.32l4.85,6.35,4.75,6.43L55.8,111q1.17,1.62,2.31,3.26-1.31-1.51-2.59-3L53,108.15l-5-6.2L43,95.68c-1.66-2.09-3.3-4.18-4.9-6.31l.51.22c-4.13.41-8.25.88-12.38,1.21-2.07.17-4.13.38-6.2.52S15.87,91.64,13.8,91.75Z"/>
  </g>
</svg>
