<svg id="Layer_1" data-name="Layer 1" xmlns="http://www.w3.org/2000/svg" xmlns:xlink="http://www.w3.org/1999/xlink" viewBox="0 0 260 168"><defs><style>.cls-1{fill:none;}.cls-2{fill:#a8a3a0;}.cls-3{fill:#a05415;}.cls-4{clip-path:url(#clip-path);}.cls-5{fill:#a7ce1b;}.cls-6{fill:#ce7832;}.cls-7{fill:#b7b4b2;}.cls-8{clip-path:url(#clip-path-2);}.cls-9{fill:#c4c2c2;}.cls-10{fill:#cecccc;}.cls-11{fill:#d8d6d6;}.cls-12{clip-path:url(#clip-path-3);}.cls-13{fill:#729111;}.cls-14{fill:#667c08;}.cls-15{fill:#844012;}.cls-16{clip-path:url(#clip-path-4);}.cls-17{fill:#a35b21;}.cls-18{fill:#b26022;}.cls-19{fill:#bfe22d;}</style><clipPath id="clip-path"><rect class="cls-1" width="260" height="168"/></clipPath><clipPath id="clip-path-2"><polygon class="cls-2" points="171.19 143.16 167.62 144.35 165.83 145.99 170.15 146.29 175.96 145.99 180.27 145.39 177.07 144.13 171.19 143.16"/></clipPath><clipPath id="clip-path-3"><rect class="cls-1" x="-60.75" y="-96.21" width="174.49" height="220.93"/></clipPath><clipPath id="clip-path-4"><path class="cls-3" d="M6.27-1.67S11.4,14.16,11.4,18.21c0,0-.79,1.27-.26,3.95A30.35,30.35,0,0,0,13,27.68s1.94-.09,1.94,5.8c0,0-1.22,42-3.06,62.61,0,0-5.74,18-10.53,23.18,0,0-5.26,6.36,2.49,4.7s15.22-3,21-1.38a25.05,25.05,0,0,0,16-.34c4.8-1.85,14,2.07,9.75-1.79,0,0-14.24-5.64-18.2-31.41-5.62-36.62.19-58.89.19-58.89S47.84,9.16,60,.6c0,0,6.69-4.31,10.25-3.82l-.86-3.93S56.14-8.8,41.2,5c0,0,3.61-24.2,4-36.73l-8.49.37S35.58-4.45,30,7s-11.81,3.32-15.13-8.1S5.06-26.22,5.06-26.22L-.84-22.6l5,14.49Z"/></clipPath></defs><g class="cls-4"><path class="cls-5" d="M370.44,147.56l-555.1-.65V120.49q132.06-2.14,272.51-2c76,.13,210.29,1.69,282.59,2.86Z"/><path class="cls-6" d="M370.44,151.82h-555.1V129.07q148.08-1.84,305.59-1.71,127.84.15,249.51,1.71Z"/><path class="cls-5" d="M-14.31,127.65a15.82,15.82,0,0,1,4.31-.58,25.52,25.52,0,0,1,4.82,1.19,16.21,16.21,0,0,0,8.41-.07,8.45,8.45,0,0,1,2.51-.52,9.54,9.54,0,0,1,2.79.79,12.25,12.25,0,0,0,8.17-.08,9,9,0,0,1,2.28-.71,7.61,7.61,0,0,1,2.8.54c3.2,1,7.5.68,8.85-2.38q-15.45-.94-30.91-1.47c-5-.17-10-.3-15,0-3.28.21-11.9.11-14,2.92C-26.19,130.28-18,128.47-14.31,127.65Z"/><path class="cls-5" d="M32.57,128.47A15.9,15.9,0,0,1,36.9,128a25.41,25.41,0,0,1,4.79,1.25,16.1,16.1,0,0,0,8.41,0,8.85,8.85,0,0,1,2.53-.48,9.57,9.57,0,0,1,2.77.82,12.25,12.25,0,0,0,8.17,0,8.94,8.94,0,0,1,2.3-.68,7.51,7.51,0,0,1,2.78.57c3.19,1,7.49.78,8.88-2.27q-15.44-1.14-30.89-1.85c-5-.23-10-.42-15-.16-3.28.16-11.9,0-14,2.75C20.66,131,28.84,129.25,32.57,128.47Z"/><path class="cls-5" d="M88.13,128.47a15.82,15.82,0,0,1,4.32-.52,25.51,25.51,0,0,1,4.8,1.25,16.1,16.1,0,0,0,8.41,0,8.78,8.78,0,0,1,2.52-.48,9.54,9.54,0,0,1,2.78.82,12.22,12.22,0,0,0,8.16,0,9.05,9.05,0,0,1,2.3-.68,7.56,7.56,0,0,1,2.79.57c3.19,1,7.49.78,8.88-2.27q-15.44-1.14-30.9-1.85c-5-.23-10-.42-15-.16-3.28.16-11.91,0-14,2.75C76.22,131,84.4,129.25,88.13,128.47Z"/><path class="cls-5" d="M140.22,128.47a15.82,15.82,0,0,1,4.32-.52,25.21,25.21,0,0,1,4.79,1.25,16.14,16.14,0,0,0,8.42,0,8.78,8.78,0,0,1,2.52-.48,9.63,9.63,0,0,1,2.78.82,12.22,12.22,0,0,0,8.16,0,9.05,9.05,0,0,1,2.3-.68,7.51,7.51,0,0,1,2.78.57c3.2,1,7.5.78,8.89-2.27q-15.44-1.14-30.9-1.85c-5-.23-10-.42-15-.16-3.29.16-11.91,0-14,2.75C128.3,131,136.48,129.25,140.22,128.47Z"/><path class="cls-5" d="M196.93,128.47a15.82,15.82,0,0,1,4.32-.52,25.51,25.51,0,0,1,4.8,1.25,16.1,16.1,0,0,0,8.41,0,8.78,8.78,0,0,1,2.52-.48,9.54,9.54,0,0,1,2.78.82,12.22,12.22,0,0,0,8.16,0,9.05,9.05,0,0,1,2.3-.68,7.51,7.51,0,0,1,2.78.57c3.2,1,7.5.78,8.89-2.27q-15.44-1.14-30.9-1.85c-5-.23-10-.42-15-.16-3.28.16-11.91,0-14,2.75C185,131,193.2,129.25,196.93,128.47Z"/><path class="cls-5" d="M254,128.47a15.82,15.82,0,0,1,4.32-.52,25.51,25.51,0,0,1,4.8,1.25,16.1,16.1,0,0,0,8.41,0,8.78,8.78,0,0,1,2.52-.48,9.54,9.54,0,0,1,2.78.82,12.22,12.22,0,0,0,8.16,0,9.05,9.05,0,0,1,2.3-.68,7.51,7.51,0,0,1,2.78.57c3.2,1,7.5.78,8.89-2.27q-15.44-1.14-30.9-1.85c-5-.23-10-.42-15-.16-3.28.16-11.91,0-14,2.75C242,131,250.22,129.25,254,128.47Z"/><path class="cls-7" d="M370.51,186.73H-184.71V132.55q70.56-2.15,145.61-2c40.61.13,370.83,4.76,409.46,5.93C370.36,145.3,370.51,177.93,370.51,186.73Z"/><ellipse class="cls-7" cx="1.74" cy="131.35" rx="2.93" ry="1.14" transform="translate(-0.45 0.01) rotate(-0.2)"/><ellipse class="cls-7" cx="33.44" cy="131.68" rx="2.93" ry="1.14" transform="translate(-0.45 0.12) rotate(-0.2)"/><ellipse class="cls-7" cx="5.76" cy="131.39" rx="2.93" ry="1.14" transform="translate(-0.45 0.02) rotate(-0.2)"/><ellipse class="cls-7" cx="37.54" cy="131.83" rx="1.14" ry="2.93" transform="matrix(0.21, -0.98, 0.98, 0.21, -99.23, 140.93)"/><ellipse class="cls-7" cx="55.48" cy="132.28" rx="2.93" ry="1.14" transform="translate(-2.83 1.22) rotate(-1.23)"/><ellipse class="cls-2" cx="20.68" cy="136.19" rx="1.08" ry="3.83" transform="translate(-115.92 153.94) rotate(-88.77)"/><ellipse class="cls-2" cx="40.63" cy="146.02" rx="1.08" ry="3.83" transform="translate(-106.23 183.49) rotate(-88.77)"/><ellipse class="cls-2" cx="135.22" cy="138.71" rx="1.08" ry="3.83" transform="translate(-6.37 270.91) rotate(-88.77)"/><ellipse class="cls-2" cx="228.59" cy="159.34" rx="1.08" ry="3.83" transform="translate(64.36 384.45) rotate(-88.77)"/><ellipse class="cls-2" cx="4" cy="153.29" rx="1.39" ry="5.65" transform="translate(-149.34 153.99) rotate(-88.77)"/><ellipse class="cls-2" cx="67.42" cy="153.89" rx="1.39" ry="5.65" transform="translate(-87.89 217.98) rotate(-88.77)"/><polygon class="cls-2" points="171.19 143.16 167.62 144.35 165.83 145.99 170.15 146.29 175.96 145.99 180.27 145.39 177.07 144.13 171.19 143.16"/><g class="cls-8"><polygon class="cls-9" points="166.37 144.2 170.28 144.98 169.44 147.38 164.25 146.55 166.37 144.2"/><polygon class="cls-10" points="170.28 144.98 174.41 145.12 175.17 146.24 169.81 146.66 169.08 146.57 170.28 144.98"/><polygon class="cls-11" points="181.22 143.25 177.07 144.13 174.41 145.12 175 146.55 181.64 145.93 181.22 143.25"/></g><ellipse class="cls-11" cx="22.78" cy="143.75" rx="3.39" ry="0.34"/><ellipse class="cls-11" cx="60.93" cy="137.73" rx="3.39" ry="0.34"/><ellipse class="cls-11" cx="110.24" cy="152.52" rx="3.39" ry="0.34"/><ellipse class="cls-11" cx="258.8" cy="142.66" rx="3.39" ry="0.34"/><g class="cls-12"><path class="cls-13" d="M-48.62-8.4A13.79,13.79,0,0,1-39.47-20a10,10,0,0,1,0-3.62,10.92,10.92,0,0,1,11.05-8.58,12.36,12.36,0,0,1-.3-12.67,12.3,12.3,0,0,1,6.87-5.43,2,2,0,0,1,0-.24A8.82,8.82,0,0,1-18-56.67a11,11,0,0,1,2.08-4.08c2.22-2.74,5.45-4.44,8.68-5.83,4.39-1.87,9.54-3.26,13.79-1.09a11.79,11.79,0,0,0,2.42,1.13,18.7,18.7,0,0,1,8.51-4.63,34.2,34.2,0,0,1,10.35-.7,34.13,34.13,0,0,1,10.34.7,18.7,18.7,0,0,1,8.51,4.63,11.79,11.79,0,0,0,2.42-1.13l.39-.17a8.22,8.22,0,0,1,1.75-1.25,4.21,4.21,0,0,1,3.62,0,2.23,2.23,0,0,0,.7.28,2.19,2.19,0,0,0,.71-.11,7.26,7.26,0,0,1,7.55,2.73h0a6.13,6.13,0,0,1,5.26.6A6.13,6.13,0,0,1,71.83-61l-.26.28a11,11,0,0,1,2.06,4,8.86,8.86,0,0,1,3.81,6.11c0,.08,0,.16,0,.24a12.3,12.3,0,0,1,6.87,5.43A12.38,12.38,0,0,1,84-32.22a10.91,10.91,0,0,1,11,8.58,10,10,0,0,1,0,3.62A13.78,13.78,0,0,1,104.21-8.4c.29,3.71-1.91,8.17-5.63,8.18,1.55,3.27,3.15,6.75,2.75,10.35s-3.64,7.14-7.19,6.43c1.72,3.89-.09,8.72-3.46,11.33s-7.89,3.28-12.11,2.84c-1.16,4.6-5.4,8.06-10,9a16.68,16.68,0,0,1-6.64,0,11.7,11.7,0,0,1-3.75,1.06A24.14,24.14,0,0,1,48.92,40c-.23,0-.45,0-.68-.06l-.38-.08a11.34,11.34,0,0,1-9,3.21,11.18,11.18,0,0,1-5.25-1.94A23.19,23.19,0,0,1,27.8,39.7,23.4,23.4,0,0,1,22,41.11,11.14,11.14,0,0,1,7.73,39.84l-.38.08c-.22,0-.45,0-.68.06a24.12,24.12,0,0,1-9.22.78A11.72,11.72,0,0,1-6.29,39.7a16.73,16.73,0,0,1-6.65,0c-4.64-1-8.87-4.41-10-9-4.23.44-8.76-.24-12.12-2.84s-5.18-7.44-3.46-11.33c-3.55.71-6.8-2.83-7.19-6.43S-44.54,3.05-43-.22C-46.71-.23-48.91-4.69-48.62-8.4Z"/><path class="cls-14" d="M76.55-1.37a7.56,7.56,0,0,1,3.93,5.54c.21,2.34-1.46,4.88-3.8,5.1a5.13,5.13,0,0,1-1.45,5.1A11.45,11.45,0,0,1,70.34,17a30.79,30.79,0,0,1-11,1.23c0,1.54-1.57,2.57-3,3.11a20.55,20.55,0,0,1-14.23,0c-3.7,3.15-9,3.32-13.87,3.34-3.67,0-8-.28-10-3.31a21.31,21.31,0,0,1-9.58,1.44A11.9,11.9,0,0,1,.26,18.22C-2.84,18.61-6,19-9,18.09s-5.73-3.46-5.79-6.59A13,13,0,0,1-24,9.4C-26.54,7.49-28.07,4-27.16,1c-2.28-.75-2.72-4.1-1.32-6.05s3.89-2.77,6.25-3.25a6.74,6.74,0,0,1,3.92-5,15.65,15.65,0,0,1,6.51-1.26A9.2,9.2,0,0,0-8.66-15c1.07-.43,1.93-1.29,3-1.68a7.75,7.75,0,0,1,3-.25l10.28.52a11,11,0,0,1,12-4.19,4,4,0,0,0,1.52.29,3.84,3.84,0,0,0,1.78-1,10.43,10.43,0,0,1,7.64-1.91,13.3,13.3,0,0,0,2.57.33c.74,0,1.46-.28,2.19-.39a6.5,6.5,0,0,1,6.44,3.09,7.8,7.8,0,0,1,7.08.72,7.76,7.76,0,0,1,3.4,6.24c1.76-.32,3.29,1.35,3.82,3.05s.46,3.56,1.09,5.23A6.75,6.75,0,0,0,62.71-.69c2.87.28,4.26-1.84,6.75-2.48C71.66-3.73,74.69-2.46,76.55-1.37Z"/><path class="cls-15" d="M29,51.75a13.92,13.92,0,0,1,9.08-1.87c5.07.8,12.42-.27,15.62-1.87l1.87,2.8s-4.54,2.94-17,2.81c0,0-7.47.53-8.41,10.54C30.18,64.16,27.91,56.69,29,51.75Z"/><path class="cls-13" d="M51.77,44.93a4.39,4.39,0,0,0-4.68.47,3.86,3.86,0,0,0-1,4.51,3.42,3.42,0,0,0,4.22,1.63c-1.2,1.05-.27,3.23,1.23,3.76s3.14,0,4.63-.58a5.42,5.42,0,0,0,8.8-.07,4.57,4.57,0,0,0,4.11,1,3.7,3.7,0,0,0,2.7-3.13,3.11,3.11,0,0,0-2.38-3.25c1.6-.24,2.39-2.35,1.73-3.82A4.87,4.87,0,0,0,67.21,43a4.17,4.17,0,0,0-3.29.72,5.8,5.8,0,0,0-8.4.47,2.22,2.22,0,0,0-3.83.43"/><path class="cls-3" d="M6.27-1.67S11.4,14.16,11.4,18.21c0,0-.79,1.27-.26,3.95A30.35,30.35,0,0,0,13,27.68s1.94-.09,1.94,5.8c0,0-1.22,42-3.06,62.61,0,0-5.74,18-10.53,23.18,0,0-5.26,6.36,2.49,4.7s15.22-3,21-1.38a25.05,25.05,0,0,0,16-.34c4.8-1.85,14,2.07,9.75-1.79,0,0-14.24-5.64-18.2-31.41-5.62-36.62.19-58.89.19-58.89S47.84,9.16,60,.6c0,0,6.69-4.31,10.25-3.82l-.86-3.93S56.14-8.8,41.2,5c0,0,3.61-24.2,4-36.73l-8.49.37S35.58-4.45,30,7s-11.81,3.32-15.13-8.1S5.06-26.22,5.06-26.22L-.84-22.6l5,14.49Z"/><g class="cls-16"><path class="cls-15" d="M36.26-34.78s-.37,47.28-12.9,50c0,0-11.85-2-6.51-50.6Z"/><path class="cls-15" d="M3.28,125.38A14.35,14.35,0,0,0,14,118c3.68-6.82,11.6,6.63,11.6,6.63s3.26,37.82,1.23,37.63-23.58.55-23.58.55L3.8,124"/><path class="cls-15" d="M49.15,124.09s-6.07-2.21-8.1-6.63a25.81,25.81,0,0,0-5.53-7.56s6.63,10.32,2.77,15.11l7.36.92,4.61-2.21"/><path class="cls-15" d="M-3.6,24.66,8,29.27l2.16-1.57s4.19.46,5-.74a6.42,6.42,0,0,0-.05,3.78A26.55,26.55,0,0,1,16.21,39c-.19,2.86,2.55,39.79-1.69,52.13a26.73,26.73,0,0,1-15.84,16L-5.26,61.69Z"/><path class="cls-15" d="M74.33-9,57-8.62,42.52,2.19,41.2,5S37,10,33.52,14s8.94-30.31,34.82-30.4Z"/><path class="cls-17" d="M32.61,30.16s-3.23,6.57-2.86,11.36S33.06,55.42,32.51,61a35,35,0,0,0,.92,11.06s8-1,7.83-1.75S49,46.86,48.91,46.21s-16.3-16-16.3-16"/></g><path class="cls-18" d="M30,33.11s1.88,15.77,1.31,19.82S29.69,68.42,30,72.47s.73,14,.15,17.94-2.75-13-2.32-17.51,1.45-12.44.87-19.39S28.54,24.71,30,33.11Z"/></g><ellipse class="cls-19" cx="181.96" cy="121.08" rx="64.26" ry="1.54"/><ellipse class="cls-19" cx="263.33" cy="121.62" rx="10.63" ry="0.85"/><rect class="cls-1" x="-76.85" y="8.52" width="182.53" height="117.94"/></g></svg>