<svg xmlns="http://www.w3.org/2000/svg" viewBox="0 0 210.58 242.06"><defs><style>.cls-1{fill:#fff5cc;}.cls-2{fill:#fff0b0;}</style></defs><title>06_twinkles_line</title><g id="star02"><path class="cls-1" d="M78.58,95c-3-4.63-5.69-9.39-8.3-14.2-1.34-2.39-2.57-4.82-3.86-7.24l-3.7-7.32-3.56-7.39c-1.13-2.49-2.32-5-3.4-7.46-2.23-5-4.35-10-6.21-15.23,3,4.63,5.69,9.38,8.31,14.19,1.33,2.39,2.56,4.83,3.85,7.24l3.7,7.32L69,72.28c1.14,2.48,2.32,5,3.41,7.46C74.59,84.74,76.72,89.79,78.58,95Z"/><path class="cls-2" d="M103.35,71.35a91.12,91.12,0,0,1-1-10.24c-.17-3.42-.2-6.83-.14-10.24s.22-6.81.53-10.21a86.81,86.81,0,0,1,1.36-10.21,89,89,0,0,1,1,10.25c.17,3.41.19,6.82.13,10.23s-.22,6.82-.53,10.22A86.37,86.37,0,0,1,103.35,71.35Z"/><path class="cls-2" d="M86.71,67.1c-2-5.53-3.82-11.1-5.66-16.66s-3.59-11.16-5.4-16.74-3.49-11.19-5.18-16.81L68,8.46c-.8-2.82-1.64-5.63-2.41-8.46,1,2.76,1.92,5.54,2.88,8.31l2.78,8.35C73,22.23,74.8,27.82,76.61,33.4s3.49,11.19,5.17,16.81S85.14,61.44,86.71,67.1Z"/><path class="cls-2" d="M128.52,79.87q3.67-8,7.7-15.82c2.66-5.23,5.41-10.4,8.19-15.56s5.65-10.27,8.58-15.35,5.94-10.11,9.07-15.08q-3.67,8-7.7,15.83c-2.65,5.22-5.41,10.4-8.19,15.55s-5.65,10.28-8.58,15.35S131.65,74.9,128.52,79.87Z"/><path class="cls-2" d="M154.45,116.26c4.59-1.41,9.22-2.62,13.87-3.76s9.31-2.2,14-3.22,9.36-1.94,14.07-2.79,9.44-1.64,14.2-2.23c-4.59,1.4-9.22,2.62-13.87,3.76s-9.31,2.2-14,3.22-9.36,1.93-14.07,2.78S159.22,115.66,154.45,116.26Z"/><path class="cls-2" d="M137,170.84c3.32,3.57,6.48,7.27,9.58,11s6.14,7.54,9.15,11.35,5.93,7.69,8.79,11.62,5.69,7.88,8.35,12c-3.31-3.57-6.48-7.26-9.58-11s-6.14-7.53-9.14-11.35-5.93-7.69-8.79-11.62S139.7,174.92,137,170.84Z"/><path class="cls-2" d="M75.48,170.45c-1.82,2.39-3.79,4.64-5.8,6.84s-4.1,4.34-6.2,6.45-4.28,4.15-6.51,6.14-4.49,3.93-6.91,5.73c1.83-2.39,3.8-4.64,5.81-6.84s4.1-4.34,6.2-6.45,4.28-4.15,6.51-6.13S73.07,172.25,75.48,170.45Z"/><path class="cls-2" d="M102.19,167q.25,9.41.14,18.8c-.06,6.26-.23,12.52-.43,18.78s-.49,12.51-.86,18.77-.82,12.5-1.43,18.74q-.26-9.41-.13-18.8c0-6.26.23-12.52.42-18.78s.5-12.51.87-18.77S101.59,173.21,102.19,167Z"/><path class="cls-2" d="M45.68,115.48a67,67,0,0,1-7.32.55c-2.43.09-4.86.06-7.29,0s-4.86-.21-7.29-.44a69.22,69.22,0,0,1-7.26-1,66.77,66.77,0,0,1,7.31-.55c2.44-.09,4.87,0,7.3,0s4.86.22,7.28.45A66.82,66.82,0,0,1,45.68,115.48Z"/><path class="cls-1" d="M61.55,139.87c-4.8,3.75-9.76,7.25-14.77,10.67-2.49,1.73-5,3.36-7.56,5.05l-7.65,4.9-7.73,4.78c-2.61,1.54-5.19,3.13-7.83,4.62-5.25,3-10.55,6-16,8.69,4.8-3.75,9.75-7.26,14.76-10.67,2.49-1.73,5-3.36,7.56-5L30,158l7.73-4.77c2.61-1.55,5.19-3.13,7.83-4.63C50.79,145.52,56.09,142.57,61.55,139.87Z"/><path class="cls-2" d="M57.29,98.06C54.09,95.79,51,93.38,48,90.91s-6-5-8.92-7.58-5.81-5.21-8.63-7.91S24.84,70,22.19,67.1c3.2,2.27,6.27,4.68,9.29,7.15s6,5,8.92,7.58S46.21,87,49,89.74,54.64,95.17,57.29,98.06Z"/><path class="cls-1" d="M140.9,98.45a87.83,87.83,0,0,1,6.56-7.78c2.29-2.49,4.68-4.86,7.12-7.18s5-4.56,7.58-6.7a87.71,87.71,0,0,1,8.16-6.08,86.19,86.19,0,0,1-6.55,7.79c-2.29,2.48-4.68,4.86-7.13,7.17s-5,4.56-7.58,6.69A86.06,86.06,0,0,1,140.9,98.45Z"/><path class="cls-2" d="M144,142.58a102.09,102.09,0,0,1,10.34,4c3.37,1.46,6.68,3,9.95,4.7s6.5,3.42,9.66,5.3a102.26,102.26,0,0,1,9.28,6,101.19,101.19,0,0,1-10.34-4c-3.38-1.45-6.69-3-10-4.7s-6.49-3.42-9.65-5.3A102.26,102.26,0,0,1,144,142.58Z"/></g></svg>