<svg id="Layer_1" data-name="Layer 1" xmlns="http://www.w3.org/2000/svg" width="1024" height="600" viewBox="0 0 1024 600">
  <defs>
    <style>
      .cls-1 {
        fill: #729e00;
      }

      .cls-2 {
        fill: #5f8400;
      }

      .cls-3 {
        fill: #5f8300;
      }

      .cls-4 {
        fill: #fefefe;
      }

      .cls-5 {
        fill: #262626;
      }

      .cls-6 {
        fill: #fdfdfd;
      }

      .cls-7 {
        fill: #628602;
      }

      .cls-8 {
        fill: #506f00;
      }

      .cls-9 {
        fill: #739f00;
      }

      .cls-10 {
        fill: #db9a00;
      }

      .cls-11 {
        fill: #00a6b2;
      }

      .cls-12 {
        fill: #da9b03;
      }

      .cls-13 {
        fill: #2a2825;
      }

      .cls-14 {
        fill: #d79d0b;
      }

      .cls-15 {
        fill: #bda93c;
      }

      .cls-16 {
        fill: #ae9f2b;
      }

      .cls-17 {
        fill: #17595e;
      }
    </style>
  </defs>
  <title>16_the_sad_fish_swimming</title>
  <g>
    <g>
      <g>
        <path class="cls-1" d="M547.44,504.61c2.07-.62,4.13-1.27,6.2-1.86,1.6-.46,3.15-1.07,4.7-1.68,1.21-.48,2.43-.94,3.63-1.45a73.24,73.24,0,0,0,12.84-6.92,71.89,71.89,0,0,0,9-6.77,82.87,82.87,0,0,0,6-6,74,74,0,0,0,4.93-5.88,47.11,47.11,0,0,1,3.55-4.25c1.48-1.65,3.07-3.19,4.64-4.75,2.92-2.89,5.89-5.72,9-8.42a87.4,87.4,0,0,1,8.89-7.13,18.33,18.33,0,0,1,5-2.85,4.59,4.59,0,0,1,1.71-.28c.8.08.67.81.88,1.26A100.74,100.74,0,0,0,637,462.44a77.3,77.3,0,0,0,10,11.88c1.43,1.33,2.87,2.62,4.41,3.83a55.64,55.64,0,0,0,4.74,3.35c1.41.88,2.91,1.58,4.35,2.38,2.64,1.47,5.57,2.07,8.4,2.94,3.92,1.21,7.91,2.17,11.84,3.37,2.77.84,5.54,1.72,8.3,2.58s5.59,2,8.45,2.85a3.72,3.72,0,0,1,2.43,2.5,76.67,76.67,0,0,0,6.67,13.41,7.16,7.16,0,0,1,1,1.89c.28.69,1,1.13,1.05,1.93.23.34.2.9.79.94-.15.48.31.67.47,1s.27.41.47.57q2.44,3.27,4.87,6.55c1.06,1.41,2.36,2.63,3.33,4.11.09.38.39.54.69.7,1.76,1.82,3.48,3.69,5.29,5.46a26.74,26.74,0,0,0,6,4.74,23,23,0,0,0,.1-3.27c.13-2.32-.3-4.62-.18-6.94a11.87,11.87,0,0,0-.52-2.65,40.27,40.27,0,0,0-1.12-5.76c-.72-2.06-1.46-4.13-2.36-6.14a69.3,69.3,0,0,0-4.49-8.13,58.64,58.64,0,0,0-4.71-6.68c-1.82-2.18-3.7-4.32-5.66-6.38s-3.86-4.64-6.47-6.14a52.08,52.08,0,0,1-7.8-5.57,50.81,50.81,0,0,1-13.66-17.33,48.29,48.29,0,0,1-3.22-8c-.46-1.59-.88-3.2-1.31-4.8-.19-.72-.21-1.12.86-1.05,1.6.11,3.06-.68,4.55-1.21a.79.79,0,0,0,.82-.35,35.28,35.28,0,0,0,7.62-5.82,47.08,47.08,0,0,0,6.25-8.09,52.15,52.15,0,0,0,3.31-6c1.41-2.87,2.77-5.76,4-8.73a77.8,77.8,0,0,0,4.09-13.2,62,62,0,0,0,1.2-9.72c.21-4-.53-7.89-.82-11.82a14,14,0,0,1,1.14-5.86,27.86,27.86,0,0,1,3.16-6.06,44.65,44.65,0,0,1,4.45-5.55,46.15,46.15,0,0,1,4.08-4.15,3.54,3.54,0,0,0,.57-1c-2.21.15-4,1.23-5.74,2.18a41.91,41.91,0,0,0-4.51,2.86,43.6,43.6,0,0,0-6.64,6,36.09,36.09,0,0,0-4.13,5.43,26.81,26.81,0,0,0-2.65,5.31,2.05,2.05,0,0,1-1.93,1.6,47,47,0,0,0-6.7,1.57c-3,.83-5.89,2.13-8.81,3.24s-5.81,2.81-8.71,4.21a120,120,0,0,0-10.44,6.2c-2.84,1.75-5.62,3.61-8.43,5.41-4.29,2.75-8.33,5.85-12.42,8.87-3.44,2.55-6.62,5.42-9.87,8.19a19.67,19.67,0,0,0-1.49,1.42.74.74,0,0,1-1.28-.09,56.1,56.1,0,0,0-6.85-7.65c-1.27-1.25-2.69-2.35-4-3.6s-2.79-2.14-4.05-3.37a12.61,12.61,0,0,0-2.67-1.78c-1.49-.84-2.88-1.84-4.36-2.7s-2.85-1.55-4.28-2.3a69.74,69.74,0,0,0-6.9-3.18c-2.9-1.13-5.77-2.32-8.75-3.26s-6-1.89-9-2.65a44.67,44.67,0,0,0-6.67-1.35c-.86-.08-1-.66-1.08-1.36a22.1,22.1,0,0,1,1-7.5,39.49,39.49,0,0,1,2.93-7.37,51.38,51.38,0,0,1,4.34-6.82,42.09,42.09,0,0,1,4.7-5.51,47.67,47.67,0,0,1,5.83-5.27c.31-.22.7-.5.6-.8s-.6-.39-1-.41c-4.32-.25-8.5.67-12.67,1.58-2.69.59-5.41,1.13-8,1.93-2,.61-4,1.25-6,1.95-1.81.63-3.58,1.36-5.42,1.9a54.85,54.85,0,0,0-6.23,2.33c-4.24,1.82-8.48,3.65-12.6,5.76a93.86,93.86,0,0,0-11.83,6.87,40.44,40.44,0,0,0-9.23,8.69,22.07,22.07,0,0,0-3.4,6.32,2.51,2.51,0,0,1-1.83,1.86c-2.8.72-5.59,1.46-8.35,2.34s-5.53,1.82-8.2,2.94a95.29,95.29,0,0,0-27,17.2,110.58,110.58,0,0,0-10.53,11c-1.46,1.77-3,3.5-4.31,5.37s-2.59,3.55-3.8,5.39c-1.63,2.46-3.11,5-4.6,7.53-.74,1.25-1.3,2.6-2,3.89a11.42,11.42,0,0,1-2.5,2.86,28.82,28.82,0,0,0-4.37,4.78c-2,3-2.43,6.19-.59,9.51.6,1.09,1.49,2,2,3.09a5.25,5.25,0,0,1,2-.25,32.28,32.28,0,0,0,12.05-3,20.69,20.69,0,0,1-7.23,2.51,29.83,29.83,0,0,1-6.15.83.54.54,0,0,0-.54.32c-.62,1-1.29,1.9-1.83,2.91-.81,1.51-.1,3.85,1.15,5.18,1.92,2,4.45,2.41,7,2.89,3,.57,6,1.09,9,1.68a12.81,12.81,0,0,1,3.25,1.55c2.75,1.4,5.47,2.85,8.23,4.23,3,1.49,6,2.78,9.08,4.1a94.94,94.94,0,0,0,9.51,3.55c3.25,1,6.49,2.08,9.81,2.86l5.24,1.26c.56.5,1.29.36,1.94.51a1.51,1.51,0,0,1,.94,0,101.09,101.09,0,0,0,13.4,1.76c5,.32,9.95.81,15,.44a106.34,106.34,0,0,0,12.57-1.62C544.8,505.08,546.12,504.85,547.44,504.61Z"/>
        <path class="cls-2" d="M439.24,474a31,31,0,0,0,7-.89,18.81,18.81,0,0,0,7.48-2.82.58.58,0,0,0,.32-.51c-2.23.77-4.37,1.67-6.62,2.27a22,22,0,0,1-7.5.93c-.54,0-.62.24-.74.59S439.27,473.88,439.24,474Z"/>
        <path class="cls-3" d="M479.74,434.73c-8.25,2.78-11.57,12-9.07,18.91a15,15,0,1,0,9.07-18.91Z"/>
        <path class="cls-3" d="M508.24,467.56a22.19,22.19,0,0,0,3.78-4.14c.73-1,1.5-2.06,2.17-3.14.82-1.31,1.6-2.65,2.33-4a49.66,49.66,0,0,0,3.48-8.41,37.43,37.43,0,0,0,1.56-9.35,31.78,31.78,0,0,0-.33-6.92,17.45,17.45,0,0,0-2.52-6,30.58,30.58,0,0,0-9.7-9.89,27.14,27.14,0,0,0-8.2-3.71c-.84-.21-1.15.16-1.14.94,0,.07,0,.15,0,.22-.14,1.32.47,1.82,1.76,2.17a23.07,23.07,0,0,1,11,6.43,20.17,20.17,0,0,1,5.44,12.11,35.08,35.08,0,0,1-.89,11.69,82.53,82.53,0,0,1-3.11,10.59A76.73,76.73,0,0,1,510,464.4C509.41,465.46,508.82,466.51,508.24,467.56Z"/>
        <path class="cls-4" d="M473.41,453.38c2.84,6.43,9.63,9.16,15.8,6.55a12.08,12.08,0,1,0-9.46-22.22A12,12,0,0,0,473.41,453.38Z"/>
        <path class="cls-5" d="M488.35,458.21a10.19,10.19,0,0,0,5.91-12.64,10.08,10.08,0,0,0-13.55-6.22A10,10,0,0,0,475,452.13,10.06,10.06,0,0,0,488.35,458.21Z"/>
        <path class="cls-6" d="M483.16,446.47a2.65,2.65,0,0,0-3.6-1.43,2.8,2.8,0,0,0-1.39,3.54,2.7,2.7,0,0,0,3.41,1.48A2.57,2.57,0,0,0,483.16,446.47Z"/>
      </g>
      <path class="cls-2" d="M439.61,475.12c9.82-3.35,19.28-6.22,28.78-.21,1,.6,1.83-.91.88-1.51-9.89-6.26-19.77-3.5-30.13,0-1.06.36-.6,2,.46,1.69Z"/>
      <path class="cls-2" d="M468.8,472.23a13.71,13.71,0,0,1-.93,3.93c-.41,1,1.28,1.5,1.69.46a15.26,15.26,0,0,0,1-4.4c.09-1.12-1.66-1.12-1.75,0Z"/>
    </g>
    <g>
      <path class="cls-7" d="M573.6,434.51a19.87,19.87,0,0,0-7.94-3c-2.19-.27-4.14.65-6,1.58a81.55,81.55,0,0,0-17.22,11.24,38.47,38.47,0,0,0-8,9.4,11.58,11.58,0,0,0-1.26,6.57c.09,3.19,1.22,4.78,4.2,6a25.57,25.57,0,0,0,13.81,1.2c4.68-.72,8.71-3,12.47-5.78a58.24,58.24,0,0,0,8.86-8.62c2-2.31,3.73-4.81,5.49-7.29.66-.93,1.36-1.82,2-2.78a1.53,1.53,0,0,0,.06-1.91c-.33-.49-.65-1-1-1.48-.54,0-.72.49-1,.84a58.85,58.85,0,0,1-11,12.22,42.6,42.6,0,0,1-15.64,8.7,32.49,32.49,0,0,1-7,1.27,42.25,42.25,0,0,0,11.63-4.18,55.29,55.29,0,0,0,16.47-12.88,56.2,56.2,0,0,0,4.9-6.46,1.54,1.54,0,0,0,.4-.9c-.67-.63-1.36-1.23-2-1.9a2.24,2.24,0,0,0-.9-.59,10,10,0,0,0-1.81,3,27.11,27.11,0,0,1-4.65,6.21,31.4,31.4,0,0,1-8.51,6.38,32.5,32.5,0,0,1-6.87,2.54,26.29,26.29,0,0,1-3.73.82,28,28,0,0,0,4.71-1.88,57.3,57.3,0,0,0,11.15-6.68c3.52-2.82,6.51-6.06,8-10.46A4.31,4.31,0,0,0,573.6,434.51Z"/>
      <path class="cls-8" d="M577.93,438.26a12.79,12.79,0,0,0-1.71,2.31,53.59,53.59,0,0,1-10.6,11.4A51.86,51.86,0,0,1,554,459.19a56,56,0,0,1-9.51,3.27,4.76,4.76,0,0,0-1,.35,17.89,17.89,0,0,0,6.18-.63,40.1,40.1,0,0,0,6.25-2.06,49.22,49.22,0,0,0,6.83-3.71A57.12,57.12,0,0,0,573.45,447a60.34,60.34,0,0,0,5.61-7.35A2.91,2.91,0,0,0,577.93,438.26Z"/>
      <path class="cls-8" d="M573.6,434.51c-.54.17-.47.75-.59,1.1a19.37,19.37,0,0,1-4.93,7.66,42.43,42.43,0,0,1-9.2,6.74,77.63,77.63,0,0,1-10.24,4.79c8.92-.06,21.7-7.3,26.4-19C574.84,435,574.22,434.77,573.6,434.51Z"/>
    </g>
    <path class="cls-9" d="M471.45,440.83s16.7.76,27.31,12.48c0,0,6.25-12.49-6.45-19.27S471.45,440.83,471.45,440.83Z"/>
  </g>
  <g>
    <g>
      <path class="cls-10" d="M446,155.35a16.46,16.46,0,0,1-1.35,2.79c-.54.6-.57,1.48-1.16,2.05-.17.38.16,1-.52,1.15a4.12,4.12,0,0,1-.9,2c0,1.35-.86,2.41-1.3,3.61a104.57,104.57,0,0,0-4.34,14.16c.75,2.32,1,4.78,1.79,7.08.43,1.2.39,1.29-.93,1.22-5.37-.28-10.74-.34-16.11-.39-10.5-.09-21,0-31.5.47-9.17.41-18.32,1-27.43,2.11q-7.27.86-14.5,2.24a140.63,140.63,0,0,0-13.79,3.39,11.49,11.49,0,0,0-5,2.53,72.34,72.34,0,0,0,5.86,7.62,79.07,79.07,0,0,0,10.08,9.7c.34.19.53.57.9.72l7.53,5.45c2.6-1.17,5-2.74,7.65-3.8,4.32-1.72,8.59-3.54,12.94-5.19,3.73-1.42,7.52-2.65,11.26-4,5-1.87,10.19-3.4,15.31-5,2.95-.93,5.84-2.06,8.83-2.8,4.57-1.12,9-2.77,13.52-4,3.86-1,7.68-2.14,11.55-3.09,2-.48,4-1,6-1.34a1.47,1.47,0,0,1,1.67.73c1.67,2.53,1.74,2.55,0,5-2.59,3.58-5.19,7.16-7.84,10.69-2.54,3.38-4.94,6.86-7.51,10.22q-4.29,5.6-8.58,11.21T409.16,243c-3.29,4-6.62,8-10.27,11.66a24.74,24.74,0,0,1-5.22,4.4,1.77,1.77,0,0,0-.84.75c1.21,4.4,2.72,8.7,4.14,13,.51,1.56,1.28,3,1.65,4.63.07.48.22.94.33,1.41A16.64,16.64,0,0,1,400.5,283a2,2,0,0,1,.44,1.13l1.5,3.59a13.36,13.36,0,0,1,.36,1.33c1.81,3.73,3.17,7.65,4.81,11.46a83.74,83.74,0,0,0,8.49,14.94c.62.88,1.4,1.65,2.11,2.47.92-.56,1-1.59,1.26-2.46,2.13-7,4.45-13.85,6.57-20.81,1.88-6.19,3.54-12.44,5.36-18.64,1.42-4.84,2.66-9.73,3.83-14.62,1.47-6.1,2.9-12.22,4.14-18.38,1.48-7.32,2.79-14.67,3.82-22.07.41-2.91.7-5.85,1.06-8.77.49-4,1.39-7.93,1.9-12.19,1.13,1.39,2.42,2.21,3.37,3.41.38.48.78,1,1.54.67a2.43,2.43,0,0,1,2.71-2.27,60.31,60.31,0,0,1,13.77,2.15c2.77.74,5.58,1.33,8.33,2.11,2.25.64,4.44,1.47,6.66,2.21,3.33,1.12,6.71,2.11,10,3.4,3.76,1.49,7.65,2.67,11.14,4.84a62.06,62.06,0,0,0,5.79,2.84,7.63,7.63,0,0,0,2.07.89c2.55,1,5,2.3,7.58,3.07,3.79,1.11,7.54,2.41,11.42,3.18,3.56.71,7.14,1.44,10.74,1.79s7.46.46,11.21.48a119.21,119.21,0,0,0,15-1c2.7-.33,5.36-.81,8-1.39a5,5,0,0,1,1-.13l5.32-1.39c.47,0,.89-.28,1.37-.22,3.09-1,6.22-1.91,9.27-3a119.8,119.8,0,0,0,13.65-6.27,136.1,136.1,0,0,0,15.43-9c3.6-2.49,7.29-4.87,10.66-7.7,1.35-1.13,2.76-2.18,4.15-3.27a3.48,3.48,0,0,1,.63-.64,174.52,174.52,0,0,0,19.4-18.7c.09-.49.55-.69.81-1l1.16-1.21c.08-.49.57-.68.8-1.06a94.83,94.83,0,0,0,6.15-7.48c2-2.63,4-5.3,6-7.94a4,4,0,0,1,1-1.06c2.38-1.61,4.89-3.07,7.1-4.88s5.16-3.13,7-5.56c2.86-3.77,3.37-8.28-1.59-10.84a4.7,4.7,0,0,1-1.84-1.48.68.68,0,0,0-.55,0c-2.47,1.3-5.19,1.78-7.84,2.5a29.55,29.55,0,0,1-9.27,1,53.5,53.5,0,0,0,13.31-2.32,19.83,19.83,0,0,0,4.08-2c1.94-4.54.71-11-3.55-13.8-.7-.46-1.45-.86-2.12-1.39s-1.46-.51-2-1.1l-1.22-.53c-.54,0-.92-.43-1.45-.43-2.2-.87-4.62-1.23-6.58-2.65-1.61-1.17-3.1-2.51-4.72-3.67A136.83,136.83,0,0,0,647,100c-.47-.39-1.13-.43-1.55-.9l-.94-.49c-.32-.43-.95-.39-1.26-.82-4.46-2-8.84-4.26-13.4-6a110,110,0,0,0-11-3.83,8.52,8.52,0,0,1-1.22-.54c-.42,0-.77-.22-1.18-.25-3.4-.71-6.7-1.8-10.12-2.39s-6.6-1.14-9.95-1.43c-2.44-.22-4.88-.57-7.33-.67-2.83-.12-5.67,0-8.51,0a123.07,123.07,0,0,0-14.64,1.26c-2.83.35-5.64.86-8.45,1.39a4.52,4.52,0,0,1-2.88-.2,3.24,3.24,0,0,0-2.1-.71,81,81,0,0,0-15.24.46,151.82,151.82,0,0,0-17.88,2.78,184.41,184.41,0,0,0-18.66,5.12,131.88,131.88,0,0,0-15.82,6.45c-1.2.57-2.31,1.32-3.49,2-.33.18-.69.36-.69.83a37.35,37.35,0,0,1,5.52,8.58,1.36,1.36,0,0,1-.53,2,106.29,106.29,0,0,0-10.41,8.07A144.11,144.11,0,0,0,463,132.89c-1.69,1.94-3.49,3.81-5.14,5.79-2.31,2.77-4.73,5.49-6.75,8.47-1.52,2.24-2.94,4.58-4.28,6.95C446.35,154.41,446.41,155,446,155.35Z"/>
      <path class="cls-5" d="M392.84,259.78c2.72-1,4.5-3.22,6.51-5.11s3.53-3.87,5.25-5.84c2.3-2.64,4.59-5.27,6.74-8,1.8-2.32,3.74-4.54,5.53-6.89,2.74-3.6,5.55-7.15,8.29-10.76s5.51-7.36,8.24-11.07c3.48-4.74,6.94-9.5,10.41-14.24a.9.9,0,0,0-.06-1.36,6.35,6.35,0,0,1-1.41-1.94c-.42-1.13-1-1.19-2.07-1-4.42,1-8.81,2.08-13.18,3.3-5.09,1.41-10.16,2.92-15.23,4.41s-10.21,3.13-15.3,4.75q-8.91,2.83-17.7,6c-5.52,2-11,4-16.4,6.34-2.6,1.11-5.14,2.33-7.63,3.65-.57.3-1.27.48-1.55,1.18,4,2.73,8.3,4.82,12.4,7.3.51.66,1.47.57,2,1.22,3.66,1.62,7,3.93,10.64,5.51a4.36,4.36,0,0,0,1.8.83,35.52,35.52,0,0,0,4.1,1.76,4.51,4.51,0,0,1,3.24,3.46c.5,1.74,1.17,3.43,1.76,5.14.09.47.25.92.31,1.39,1.11,1.77,1.07,3.9,1.78,5.79,0,.49.31.92.28,1.42C392.17,257.86,391.47,259.28,392.84,259.78Z"/>
      <path class="cls-11" d="M451,204.06a2.28,2.28,0,0,1-1.16-.71c-1.11-1.21-2.25-2.39-3.4-3.57-.14-.15-.21-.45-.53-.37s-.2.38-.22.59c-.37,3.52-1,7-1.61,10.47s-.9,7.07-1.37,10.61c-.83,6.23-2,12.42-3.14,18.59-1.3,6.76-2.85,13.46-4.44,20.16s-3.33,13.26-5.17,19.85-3.81,13.35-5.91,20c-1.93,6.09-3.92,12.17-5.88,18.25,3.75,6.43,8.71,11.56,15.72,14.45.53-.14.88.42,1.39.35,1,.1,2.24.53,2.49-1.13.54-.69.61-1.64,1.25-2.27a97.08,97.08,0,0,0,4.67-12.6c2.06-6.89,3.81-13.88,5.34-20.91,1.26-5.79,2.39-11.61,3.55-17.41,1-4.84,1.73-9.72,2.88-14.54a70,70,0,0,0,1.58-12.59,129.45,129.45,0,0,0-.25-18.07c-.19-2.21-.42-4.43-.81-6.63-.31-1.75-.44-3.55-.81-5.3,0-.32-.16-.63-.06-1-.49-2.38-1-4.76-1.49-7.14-.5-2.63-1.37-5.16-1.93-7.77A6.15,6.15,0,0,0,451,204.06Z"/>
      <path class="cls-11" d="M328.91,199.7c5.07-2.54,10.54-3.79,16-5q5.79-1.25,11.65-2.08c4.17-.59,8.35-1.13,12.55-1.41,3.22-.21,6.43-.62,9.65-.84q6.55-.44,13.12-.72c3.62-.15,7.24-.24,10.86-.28q7.9-.09,15.81-.06c4.79,0,9.58.11,14.37.19,2,0,4,.13,6.12.2a38.72,38.72,0,0,1-1.89-7.4c-.09-.58-.57-.83-.8-1.27-1.24.14-2.25-.62-3.35-1a243,243,0,0,0-26.38-6.48,218.24,218.24,0,0,0-25.51-3.38c-.51,0-1-.48-1.5-.18a10.5,10.5,0,0,1-1.33-.16,98.66,98.66,0,0,0-14-.47c-4.64.06-9.25.44-13.87.88-1.08.1-2.13.43-3.23.43a134.46,134.46,0,0,0-13.63,2.84c-3.69,1-7.19,2.41-10.74,3.74a2.22,2.22,0,0,0-1.45,1.46,8.59,8.59,0,0,0-.18,1.7,25.15,25.15,0,0,0,1.34,6.89c.08.47.23.93.32,1.4,1.33,2.71,2.49,5.49,4,8.11A20.05,20.05,0,0,0,328.91,199.7Z"/>
      <path class="cls-11" d="M460.89,88l3.84,1.7a79.33,79.33,0,0,1,12-3.66c5.14-1.29,10.31-2.51,15.54-3.39s10.68-1.72,16.06-2.26a145.11,145.11,0,0,1,21-.72A84.85,84.85,0,0,1,545,81.76a62.86,62.86,0,0,1,7.8,2.71c.49.19,1,.47,1.48.13a20.54,20.54,0,0,0-5.53-4.6c-5.22-3.38-11.13-4.94-17.14-6.22-.77-.16-1.62.09-2.31-.45-.41.16-.74-.24-1.14-.16-1.95.09-3.84-.44-5.78-.54-3.29-.16-6.57-.38-9.87-.46-4-.1-8-.14-12,0-3.75.17-7.51.33-11.26.61-3.58.27-7.15.63-10.72,1-2.6.3-5.2.71-7.78,1.17-3.18.57-6.34,1.24-9.52,1.87a4.51,4.51,0,0,1-1,.13l-2.15.63c-.48,0-.92.25-1.4.28a73.26,73.26,0,0,0-8.25,3,11.87,11.87,0,0,0-1.33.7,1.16,1.16,0,0,0-.66,1.12c.07.55.62.45,1.08.55A51.27,51.27,0,0,1,458.7,87,5,5,0,0,1,460.89,88Z"/>
      <path class="cls-5" d="M554.25,84.59c-1.23.06-2.14-.76-3.18-1.19a61.07,61.07,0,0,0-18.83-3.94,130,130,0,0,0-17.38,0c-5.93.35-11.82,1.08-17.69,2-4.19.64-8.35,1.46-12.5,2.38-6,1.33-12,2.87-17.88,4.69a3.49,3.49,0,0,0-2.07,1.16c5.79,3.22,11.18,6.95,15.51,12,.11.13.33.16.5.24a92.76,92.76,0,0,1,19.1-8.58c3.05-1,6.1-2,9.2-2.88,4.82-1.32,9.69-2.4,14.6-3.32,2.86-.54,5.74-1,8.62-1.39a119.69,119.69,0,0,1,14.4-1.19,34.77,34.77,0,0,1,7.95.48C554.7,84.81,554.26,84.84,554.25,84.59Z"/>
      <path class="cls-12" d="M321.66,178.82a3.19,3.19,0,0,1,1.71-1.32,80.88,80.88,0,0,1,12.31-4.18,62.69,62.69,0,0,1,9.39-1.87,18.31,18.31,0,0,0,2.21-.52c.19,0,.39,0,.44-.24s-.06-.24-.23-.22c-3.63.32-7.19,1.12-10.78,1.7-.49,0-.94.24-1.42.26l-1.76.48c-.47,0-.89.28-1.37.22-2.43.76-4.87,1.46-7.28,2.29a22,22,0,0,0-3,1.52,1.46,1.46,0,0,0-.66,2.33C321.45,179.24,321.46,178.94,321.66,178.82Z"/>
      <path class="cls-13" d="M682.71,132.61c-.47-.16-.81.13-1.19.32-3.87,2-8.06,2.74-12.33,3.26-1.62.19-3.25.33-4.91.42,1.53,1.86,13.78-.26,18.71-3.18Z"/>
      <path class="cls-14" d="M347.49,170.48c.19.28-.12.32-.22.46,1.94-.19,3.88-.39,5.82-.57a131.74,131.74,0,0,1,15.1-.65c3.4.08,6.8.19,10.21.28l0-.16a33.68,33.68,0,0,0-7.9-.71,132.94,132.94,0,0,0-14.9.4A56.89,56.89,0,0,0,347.49,170.48Z"/>
      <path class="cls-15" d="M321.66,178.82l-.47.47c-.41.41-.22.8,0,1.19C321.66,180,321.39,179.34,321.66,178.82Z"/>
      <path class="cls-4" d="M439,329.31c-.8.55-.82,1.52-1.25,2.27C438.52,331,438.61,330.07,439,329.31Z"/>
      <path class="cls-4" d="M511.49,220.23l-2.07-.89A2.59,2.59,0,0,0,511.49,220.23Z"/>
      <path class="cls-4" d="M380.14,238l-1.8-.83A1.91,1.91,0,0,0,380.14,238Z"/>
      <path class="cls-4" d="M391.6,257c.26-.54-.08-1-.28-1.42A1.3,1.3,0,0,0,391.6,257Z"/>
      <path class="cls-4" d="M400.94,284.13c.06-.46.14-.92-.44-1.13A1.73,1.73,0,0,0,400.94,284.13Z"/>
      <path class="cls-4" d="M402.79,289a1.46,1.46,0,0,0-.36-1.33A1.33,1.33,0,0,0,402.79,289Z"/>
      <path class="cls-4" d="M389.54,249.79a2.14,2.14,0,0,0-.31-1.39A1.37,1.37,0,0,0,389.54,249.79Z"/>
      <path class="cls-4" d="M399,278.84c.2-.54-.11-1-.33-1.41A1.29,1.29,0,0,0,399,278.84Z"/>
      <path class="cls-4" d="M435.3,332.71c-.47-.08-.82-.63-1.39-.35C434.37,332.49,434.75,332.93,435.3,332.71Z"/>
      <path class="cls-4" d="M455.12,220.32a.75.75,0,0,0,.06,1C455.74,220.91,455.13,220.63,455.12,220.32Z"/>
      <path class="cls-16" d="M378.46,169.85l0,.16a1.08,1.08,0,0,0,1.24.07A1.31,1.31,0,0,0,378.46,169.85Z"/>
      <path class="cls-11" d="M522.36,217.93c.39,1.14,1.51,1.63,2.21,2.5.29.37.69.17,1.05,0,2.25-.71,4.53-1.34,6.75-2.13,7.72-2.75,15.27-5.89,22-10.73a38.2,38.2,0,0,0,10.89-11.48A35,35,0,0,0,570,179a16.19,16.19,0,0,0-1.15-5.87,5.25,5.25,0,0,0-4-3.25c-1.87-.51-3.74-1-5.67-1.38a8.68,8.68,0,0,0-3.58.4,49.46,49.46,0,0,0-17.31,8.19,96.31,96.31,0,0,0-9.64,7.73c-3.62,3.38-7.36,6.66-10.12,10.87-1.69,2.59-1.53,5.43-1.39,8.27a18.38,18.38,0,0,0,.85,5.38,7.81,7.81,0,0,0,4.09,0,32.3,32.3,0,0,0,13.54-6,85.91,85.91,0,0,0,9.56-8.54c2-2.07,3.81-4.36,5.69-6.57a2.64,2.64,0,0,0,.42-.79,42.8,42.8,0,0,1-4.86,8.13,41.23,41.23,0,0,1-18.3,13.61,29.4,29.4,0,0,1-7.42,1.88,2.4,2.4,0,0,0-1.7.61c.22,1.71,1.35,3,2.14,4.4a28.26,28.26,0,0,0,6.09-1.82,76.11,76.11,0,0,0,12.23-6,65.75,65.75,0,0,0,18-16,43.47,43.47,0,0,0,5.44-8.12c.18-.39.27-.81.46-1.19s.24-.47.26-.6a3.14,3.14,0,0,0-.19.49,50,50,0,0,1-6.37,11.87c-5.51,7.39-12.64,12.77-20.72,17a67.92,67.92,0,0,1-13,5.43A1.37,1.37,0,0,0,522.36,217.93Z"/>
      <path class="cls-5" d="M624.59,111.55a18.92,18.92,0,0,0-25.07,9.88c-4.15,10,.17,20.78,10.1,24.93,9.77,4.09,20.57,0,24.92-10.33A18.88,18.88,0,0,0,624.59,111.55Z"/>
      <path class="cls-5" d="M603.2,191.74c-2.43-1.8-4.69-3.44-6.92-5.12a106.64,106.64,0,0,1-12.91-11.15A82.55,82.55,0,0,1,573.16,162a74.1,74.1,0,0,1-5.24-9.86,48.73,48.73,0,0,1-4.3-23.2,40.09,40.09,0,0,1,5.45-17.37,41.42,41.42,0,0,1,11-12.53c1.55-1.16,1.67-2.53.37-4A1.08,1.08,0,0,0,578.7,95a48.09,48.09,0,0,0-12.57,15.6,46.74,46.74,0,0,0-4.67,20,49.88,49.88,0,0,0,3,18.44,79.53,79.53,0,0,0,6.74,13.26,83.65,83.65,0,0,0,6.48,9.42,74.4,74.4,0,0,0,12.11,12.13,48.81,48.81,0,0,0,9.82,6.38C600.71,190.74,601.71,191.57,603.2,191.74Z"/>
      <path class="cls-5" d="M563.31,182.89a55.54,55.54,0,0,1-7.57,11.06,68.32,68.32,0,0,1-23,17.65,77.43,77.43,0,0,1-10.1,3.92c-.49.16-1,.41-1.43.61a2.57,2.57,0,0,0,1.18,1.81,67.84,67.84,0,0,0,15.13-6.22,63.69,63.69,0,0,0,12-8.28,52.18,52.18,0,0,0,6.33-6.41,43.78,43.78,0,0,0,5-7.5,36.32,36.32,0,0,0,2.75-6.57Q563.51,182.7,563.31,182.89Z"/>
      <path class="cls-5" d="M519,211.71c15.75-1.72,28.53-13.18,32.74-25.07-1.18,1.43-2.42,2.82-3.59,4.25a69.48,69.48,0,0,1-6.42,6.86,49.79,49.79,0,0,1-10.48,8c-4,2.11-8.12,3.67-12.73,3.48a2.12,2.12,0,0,0-.55.13C518.28,210.17,518.17,211.16,519,211.71Z"/>
      <path class="cls-17" d="M563.31,182.89l.32.06c0-.48.69-.77.4-1.42A3.2,3.2,0,0,0,563.31,182.89Z"/>
      <path class="cls-4" d="M610.93,142.78a15.32,15.32,0,1,0-7.72-20.19A15.28,15.28,0,0,0,610.93,142.78Z"/>
      <path class="cls-5" d="M623.56,117.62a12.89,12.89,0,1,0-11.79,22.89,12.89,12.89,0,0,0,11.79-22.89Z"/>
      <path class="cls-6" d="M619.38,128.3c1.63.87,4,.26,4.7-1.35.89-2.07.43-3.65-1.66-4.85-1.3-.75-3.77.1-4.47,1.43A3.58,3.58,0,0,0,619.38,128.3Z"/>
    </g>
    <path d="M685.09,134.83s-.53.17-1.4.4-2.13.55-3.65.88a68.4,68.4,0,0,1-11.22,1.5c-1,0-2.06.05-3.07,0s-2-.08-3-.2a24.71,24.71,0,0,1-5.15-1.08,15.44,15.44,0,0,1-1.94-.78,13.64,13.64,0,0,1-1.41-.76c-.38-.22-.65-.45-.85-.58l-.3-.21.32.17c.21.1.5.29.91.46a13.41,13.41,0,0,0,1.47.57,15,15,0,0,0,2,.52,23.79,23.79,0,0,0,5,.42c.93,0,1.88-.07,2.85-.16s1.95-.23,2.93-.39a65.73,65.73,0,0,0,10.51-2.76c1.4-.49,2.55-.93,3.34-1.26s1.22-.52,1.22-.52Z"/>
  </g>
</svg>
