<svg id="Layer_1" data-name="Layer 1" xmlns="http://www.w3.org/2000/svg" xmlns:xlink="http://www.w3.org/1999/xlink" viewBox="0 0 260 168"><defs><style>.cls-1{fill:#4e2921;}.cls-2{fill:#e0bc6c;}.cls-3{clip-path:url(#clip-path);}.cls-4{fill:#d8c38f;}.cls-5{fill:#cc9f46;}.cls-6{fill:#a56737;}.cls-7{clip-path:url(#clip-path-2);}.cls-8{fill:#e8c880;opacity:0.42;}.cls-9{fill:#dbb365;}.cls-10{fill:#f4d99d;}.cls-11{fill:#a46636;}.cls-12{clip-path:url(#clip-path-3);}.cls-13{fill:#6d340d;}.cls-14{fill:#fde4ba;}</style><clipPath id="clip-path"><path class="cls-1" d="M380.73,109.35a312.24,312.24,0,0,1-51.17-.16c-2-.17-4.07-.26-6.1-.39-.33-4.44-.89-8.88-.95-13.32-.12-8.16-.33-16.32.18-24.48.37-6,.92-11.94,1.69-17.88a304,304,0,0,1,6.19-32.35A3.61,3.61,0,0,1,333.18,18a42.31,42.31,0,0,1,12.94-2.26,82.46,82.46,0,0,1,12.85.57A163,163,0,0,1,379.21,20c.69.16,1.3.36,1.24,1.25-.23,1.84.11,3.68,0,5.55-.3,7.81-.14,15.64-.31,23.46-.21,9.36-.43,18.74.19,28.1.29,4.23.21,8.48.25,12.71C380.67,97.15,381.63,103.25,380.73,109.35Z"/></clipPath><clipPath id="clip-path-2"><path class="cls-2" d="M214.7-4.68H495V0c.17,4.85-.15,9.7-.42,14.53q-.71,12.59-2.17,25.12c-.82,7-1.74,14.06-2.8,21.06-1.31,8.63-2.79,17.24-4.56,25.79-.94,4.56-1.65,9.18-3,13.66-6.51,1-13,2-19.54,2.93s-12.95,1.69-19.44,2.47c-4.08.49-8.19.86-12.28,1.28l-45.38,1.58.91-89.11c-.33-1.56-.76-3.11-.94-4.68a2.48,2.48,0,0,0-2-2.27c-8.14-2.81-16.58-3.89-25.12-4.28a80.15,80.15,0,0,0-9.92.24,75.44,75.44,0,0,0-14.5,2.08c-3.45.95-6.71,2.41-8.94,5.34a38.62,38.62,0,0,0-6.81,15.09c-2.63,11.43-3.31,23.07-3.61,34.74-.23,9.15,0,18.3.53,27.44.29,5.5.65,11,.92,16.48-10.21-.71-20.37-1.85-30.54-3-11.54-1.29-23-2.82-34.53-4.44-7.89-1.11-15.76-2.39-23.64-3.6-.47-2.08-1-4.15-1.42-6.24q-3.33-15.81-5.76-31.8c-1.21-8-2.28-16.1-3.1-24.2-.91-8.93-1.76-17.86-1.94-26.83a5.52,5.52,0,0,0-.36-1.94Zm85.38,18.74"/></clipPath><clipPath id="clip-path-3"><circle class="cls-1" cx="265.1" cy="44.03" r="23.88"/></clipPath></defs><path class="cls-1" d="M380.73,109.35a312.24,312.24,0,0,1-51.17-.16c-2-.17-4.07-.26-6.1-.39-.33-4.44-.89-8.88-.95-13.32-.12-8.16-.33-16.32.18-24.48.37-6,.92-11.94,1.69-17.88a304,304,0,0,1,6.19-32.35A3.61,3.61,0,0,1,333.18,18a42.31,42.31,0,0,1,12.94-2.26,82.46,82.46,0,0,1,12.85.57A163,163,0,0,1,379.21,20c.69.16,1.3.36,1.24,1.25-.23,1.84.11,3.68,0,5.55-.3,7.81-.14,15.64-.31,23.46-.21,9.36-.43,18.74.19,28.1.29,4.23.21,8.48.25,12.71C380.67,97.15,381.63,103.25,380.73,109.35Z"/><g class="cls-3"><rect class="cls-4" x="189.59" y="8.27" width="337.12" height="76.03"/><rect class="cls-5" x="189.59" y="79.77" width="337.12" height="45.52"/></g><path class="cls-6" d="M214.74,7.46V-4.68h-7.3V4.74a4.28,4.28,0,0,1,.05.49c.06,16.93.52,33.85,1.64,50.75A364.26,364.26,0,0,0,214,98.14a4.12,4.12,0,0,0,3.69,3.72,16.93,16.93,0,0,0,7.36-.35c2.51-.57,2.51-.57,2.25-3-.48-2.08-1-4.15-1.43-6.24q-3.31-15.81-5.75-31.8c-1.22-8-2.28-16.1-3.11-24.2-.91-8.93-1.76-17.86-1.94-26.83a4.18,4.18,0,0,0-.32-1.72Z"/><path class="cls-2" d="M214.7-4.68H495V0c.17,4.85-.15,9.7-.42,14.53q-.71,12.59-2.17,25.12c-.82,7-1.74,14.06-2.8,21.06-1.31,8.63-2.79,17.24-4.56,25.79-.94,4.56-1.65,9.18-3,13.66-6.51,1-13,2-19.54,2.93s-12.95,1.69-19.44,2.47c-4.08.49-8.19.86-12.28,1.28l-45.38,1.58.91-89.11c-.33-1.56-.76-3.11-.94-4.68a2.48,2.48,0,0,0-2-2.27c-8.14-2.81-16.58-3.89-25.12-4.28a80.15,80.15,0,0,0-9.92.24,75.44,75.44,0,0,0-14.5,2.08c-3.45.95-6.71,2.41-8.94,5.34a38.62,38.62,0,0,0-6.81,15.09c-2.63,11.43-3.31,23.07-3.61,34.74-.23,9.15,0,18.3.53,27.44.29,5.5.65,11,.92,16.48-10.21-.71-20.37-1.85-30.54-3-11.54-1.29-23-2.82-34.53-4.44-7.89-1.11-15.76-2.39-23.64-3.6-.47-2.08-1-4.15-1.42-6.24q-3.33-15.81-5.76-31.8c-1.21-8-2.28-16.1-3.1-24.2-.91-8.93-1.76-17.86-1.94-26.83a5.52,5.52,0,0,0-.36-1.94Zm85.38,18.74"/><g class="cls-7"><path class="cls-8" d="M213.64-12.81c-2.49,3.89-5,7.88-6,12.4s0,9.74,3.54,12.7,9.86,2.42,11.92-1.72a15.83,15.83,0,0,0,17.72.78,17,17,0,0,0,20.44-2.06c4.53,5,13.43,5,18,0a17.82,17.82,0,0,0,21.29-.37c.69,3.56,4.78,5.69,8.37,5.22s6.63-2.91,9-5.65c.29,4,7.33,4.82,8.52,1,3.69,5.23,12.9,4.86,16.17-.64,4.36,6,14.78,6,19.09-.09,3.14,4.9,11.51,5,14.72.11.55,2.55,3.83,3.7,6.33,2.92s4.32-2.88,6-4.92c2.83,5.82,12.14,6.89,16.21,1.85a8.13,8.13,0,0,0,15.68-1A10.37,10.37,0,0,0,435,9.34c5.21,6.23,16.16,6.26,21.4.05,4,6,14.66,5.37,17.86-1.1,1.73,1.74,3.59,3.56,6,4.12s5.39-.75,5.7-3.19c7.22,7.37,20.28,5.34,28-1.52s11.4-17,14.8-26.78c.91-2.61,1.82-5.45.94-8.07-1.27-3.81-5.66-5.44-9.54-6.47-36.69-9.76-75.14-9.78-113-12-58.39-3.37-116.92-12-175.11-6.16-5.05.51-10.21,1.16-14.78,3.39-11.11,5.42-16,20.75-10.13,31.62"/><path class="cls-9" d="M205.23,79.91A24.69,24.69,0,0,1,221,75.69c6.88.53,13.15,3.91,19.47,6.68,8.37,3.66,17.13,6.34,25.86,9l18.11,5.53c5.2,1.59,11.68,2.86,15.35-1.13,1.08-1.17,1.76-2.69,3-3.71,3.13-2.64,7.82-.88,11.65.56a48.15,48.15,0,0,0,18.65,3.18c9.57-.35,18.69-3.87,28-6.25s19.47-3.57,28.13.52c7,3.3,12.8,9.91,20.52,10.12,11,.3,19.75-12.67,30.5-10.45,3.52.72,6.47,3,9.71,4.57s7.39,2.29,10.2.06c1.29-1,2.14-2.58,3.56-3.42s3.38-.84,5.1-1.17c8.53-1.63,11.85-11.76,17.47-18.38a25.95,25.95,0,0,1,42,3.38c8.45,14,2.09,32.15-6.13,46.3a23.41,23.41,0,0,1-5.19,6.75c-3.78,3-8.92,3.61-13.76,4.06l-89.56,8.23c-37.14,3.41-74.39,6.83-111.67,5.79-38.66-1.09-77-7-115.24-12.82a64.45,64.45,0,0,1,15.88-45.8"/></g><circle class="cls-10" cx="265.1" cy="47" r="27.99"/><path class="cls-11" d="M265.1,14.63A29.4,29.4,0,1,0,294.5,44,29.39,29.39,0,0,0,265.1,14.63Z"/><circle class="cls-1" cx="265.1" cy="44.03" r="23.88"/><g class="cls-12"><path class="cls-13" d="M265.12,74.5h-2.05c-1.52,0-2.77-1.58-2.77-3.51a160.66,160.66,0,0,1-.76-37.49,153.39,153.39,0,0,1,2.63-17.07c-.53-2.55-.37-4.6.41-5.23a.78.78,0,0,1,.49-.16h2.05c1.52,0,2.77,1.58,2.77,3.51a302.86,302.86,0,0,1,1.16,38c-.21,6.5-.62,12.67-1.16,18.47C267.89,71.23,267.87,72.47,265.12,74.5Z"/><path class="cls-13" d="M233.5,47.22l-.12-2c-.09-1.52,1.41-2.86,3.33-3a160.9,160.9,0,0,1,37.38-3,158.31,158.31,0,0,1,17.2,1.62c2.52-.68,4.57-.64,5.24.11a.74.74,0,0,1,.19.47l.12,2c.09,1.52-1.41,2.86-3.34,3a303.11,303.11,0,0,1-37.83,3.4c-6.5.17-12.68.12-18.51-.08C236.92,49.78,235.69,49.84,233.5,47.22Z"/></g><path class="cls-11" d="M289.73,59.08q-1.51,2.52-3.25,4.88a17.33,17.33,0,0,1-4,4.15,20.39,20.39,0,0,1-4.82,2.19c-5,1.78-10.35,3.58-15.65,2.85a21.91,21.91,0,0,1-4.84-1.3c-1.36-.52-2.68-1.13-4.05-1.63a20.11,20.11,0,0,1-5.08-2.17c-1.49-1.09-2.57-3-2-4.78a55.82,55.82,0,0,0,26.51,4.14c5.77-.51,11.89-2.2,15.5-6.73"/><path class="cls-11" d="M237.61,29.13c-4.09,7.18-4.72,16.45-.81,23.72A5.43,5.43,0,0,0,238.59,55c2.29-4.76,2-10.28,2.33-15.56a29.58,29.58,0,0,1,1.42-8.2c1-2.84,2.83-4.19,4.44-6.5,1.79-2.58-.23-3.22-2.43-2.19A15.11,15.11,0,0,0,237.61,29.13Z"/><path class="cls-11" d="M265.09,13.57A21.52,21.52,0,0,1,280,19.74c-.7.58-1.75.3-2.62,0a36.53,36.53,0,0,0-19.94-.53c-1.44.37-4.55,1.64-6,.83-1.87-1,1.29-2.61,2.4-3.3A21.52,21.52,0,0,1,265.09,13.57Z"/><path class="cls-14" d="M493.94-33.86s9.32-2.21-7.47-17.47S464-71.44,464-71.44,455.08-82,446.44-77.66c0,0-10-4.47-25.12,1.66,0,0-18.68-5.61-38.77.76,0,0-9-4.82-30-.75,0,0-9.2-3.79-22.51.13,0,0-8.76-4.72-22.16.46,0,0-10.63-6.84-28.59-.71,0,0-8.29-5.31-17.66-1.47,0,0-4.17-2.28-20,7.22,0,0-42.2,30.54-29.59,35.59,0,0-30.87,22.78-26.27,32.14,0,0,3.57,5.13,12.09-1.06,0,0-1.47,5.91,3.22,5.4a3.89,3.89,0,0,0,1.6,3.17c2.54,1.54,7.22-1.48,10.87-6.83-.8,4.22-.17,7.62,1.88,8.52,2.75,1.22,7.1-2.5,10-8.42-.45,4.65.58,8.29,2.85,9,2.52.76,5.8-2.39,8.05-7.39-.09,3.87.94,6.78,2.95,7.39,2.92.88,6.85-3.47,9-9.85.36,3.87,1.74,6.65,3.8,7s4.42-1.88,6.08-5.55c.32,4,1.72,6.92,3.83,7.29,3.17.56,6.75-4.78,8-11.92a2.07,2.07,0,0,0,0-.22h.27c-1.32,5.84-.48,10.83,2.19,11.7,3,1,7.29-3.72,9.54-10.53-.77,5.91.52,10.77,3.25,11.39,2.53.57,5.52-2.66,7.42-7.64-.13,3.37.72,5.9,2.51,6.58,2.64,1,6.43-2.41,9.05-7.83-.58,5,.46,8.9,2.84,9.6S312.69,5,314.89.31c.46,1.93,1.36,3.27,2.65,3.65,2.89.85,6.73-3.42,8.89-9.7h.21c-.58,6.23,1,11.31,3.85,11.79,3.13.52,6.62-4.7,7.86-11.71h.15c-.56,6.19,1,11.23,3.86,11.71,2.53.42,5.3-2.91,6.92-7.91.54,4.56,2.29,7.85,4.62,8.05,2.51.21,5-3.2,6.19-8.16.83,4.79,2.89,8.18,5.32,8.2,2.62,0,4.86-3.85,5.64-9.21,1,5.47,3.55,9.36,6.21,9.19,2.24-.14,4-3.13,4.7-7.38,1.21,2.39,2.79,3.83,4.43,3.73,2.1-.14,3.77-2.76,4.55-6.58,1.54,6.19,4.8,10.56,7.68,10,2.3-.42,3.73-3.83,3.84-8.4,1.48,6.46,4.84,11.11,7.81,10.57,2.57-.47,4.05-4.7,3.82-10.1,1.68,3.5,3.93,5.64,6,5.26,2.31-.42,3.73-3.85,3.84-8.44h0c1.41,6.75,4.88,11.67,7.93,11.12,2.72-.5,4.22-5.2,3.76-11h.47c0,.2.07.41.11.61,1.29,7.13,4.91,12.45,8.07,11.88C447.1,7,448.61,1.91,448-4.26c1.66,5.38,4.62,9,7.26,8.54,2.34-.43,3.78-4,3.84-8.65,1.72,4.37,4.3,7.17,6.64,6.74C467,2.14,468,1,468.63-.71c1.71,4.37,4.3,7.16,6.63,6.74,2.68-.49,4.18-5,3.79-10.75l.27.13C481,1,484,4.77,486.68,4.28a3.78,3.78,0,0,0,2.51-2.18c1.67,3.33,3.85,5.33,5.86,5a4,4,0,0,0,2.69-2.55L501,6.13a9.53,9.53,0,0,0,1.56-.44l.11,0A6.06,6.06,0,0,0,506.49,8a3.56,3.56,0,0,0,1.18.26,1.76,1.76,0,0,0,.77-.94c1.11-1,1.78-2.85,2-5.27,2,1.94,5,4.19,7.71,4C518.11,6.09,519.91-10.29,493.94-33.86Z"/><path class="cls-14" d="M232.08,6.83c-.7.56-1.34,1.18-2.08,1.66a4.07,4.07,0,0,1-5.94-1.21,11.59,11.59,0,0,1-1.47-3c-.56-1.65-.53-1.62-1.77-.51a27.67,27.67,0,0,1-6.34,4.61c-4.34,2.07-6.61,0-7.17-3.93-.16-1.13-.34-1.17-1.18-.58a26.08,26.08,0,0,1-7.21,3.71c-2.95.9-4.66-.54-4.19-3.59.06-.43.4-.82.07-1.38a43,43,0,0,1-5.22,2.6,6.83,6.83,0,0,1-4.56.31c-2.79-1-3.64-2.86-2.68-5.81a24.25,24.25,0,0,1,4.26-7.35A128.5,128.5,0,0,1,203-24.37c1.74-1.52,3.44-3.07,5.29-4.72-1.08-.4-2-.91-2.28-2-.38-1.65.38-3.08,1.12-4.43a46.2,46.2,0,0,1,5.9-7.87,131.34,131.34,0,0,1,11.15-11.11c4.23-3.86,8.49-7.68,13-11.23.6-.47,1-.88.13-1.5a1.77,1.77,0,0,1-.48-2.17,13.62,13.62,0,0,1,3.15-4.9,60.77,60.77,0,0,1,6.46-6.17c5.35-4.55,11-8.74,16.7-12.78l4.24-3c-2.24-1.87-2.39-3.74-.73-6.7a45.76,45.76,0,0,1,6.71-8.76A184.1,184.1,0,0,1,287-124.87c4.95-4.3,9.95-8.57,15.15-12.58a.73.73,0,0,0,.13-.23c-2.42-1.56-2.6-2.92-.75-5.47a45.09,45.09,0,0,1,7.4-7.66c6.09-5.17,12.5-9.94,19.05-14.52q10.22-7.15,20.73-13.84a2.12,2.12,0,0,1,2.1-.37c3.07,1.16,6.27,2,9.24,3.42,3.18,1.47,6.16,3.36,9.21,5.1q7.65,4.36,15,9.22c6.14,4.09,12.21,8.31,17.18,13.85a11.91,11.91,0,0,1,2.73,4.38c.79,2.54-.14,4.32-2.66,5.22-.67.24-1.36.39-2.25.65,2.43,1.47,4.72,2.84,7,4.23a179.34,179.34,0,0,1,21.09,14.68,39.56,39.56,0,0,1,7.33,7.52,15.45,15.45,0,0,1,1.78,3.27,3.48,3.48,0,0,1-.33,3.65c-.45.6-.11.89.27,1.2,3.29,2.72,6.58,5.41,9.86,8.14q2.19,1.83,4.31,3.77c4.28,3.88,8.57,7.76,12,12.45a11.49,11.49,0,0,1,1.8,3.25c.55,1.69.19,2.37-1.54,2.82-.55.13-1.12.15-1.93.25,1.69,1.37,3.22,2.63,4.76,3.86q5.65,4.53,11.12,9.32c3.81,3.34,7.63,6.68,11.1,10.37,2.56,2.71,5.15,5.42,6.81,8.83a10.86,10.86,0,0,1,.47,1.11c.63,1.88.09,2.86-1.83,3.33L492-35.3c1.36,1.29,2.57,2.62,4,3.73a57,57,0,0,1,6.54,6.65A79.31,79.31,0,0,1,510.82-14,47.78,47.78,0,0,1,517.75,2c.17.85.32,1.78-.4,2.37s-1.68.26-2.49-.17A29.45,29.45,0,0,1,508.32-1c-.4-.39-.7-.92-1.42-1.13.21,1.42.32,2.78.62,4.09a16,16,0,0,1,.19,2.92c0,.8-.06,1.65-.82,2s-1.4-.33-1.95-.83A31,31,0,0,1,500.41.48c-.84-1.19-1.6-2.43-2.58-3.93C498-2,498-1,498.21,0a5.7,5.7,0,0,1-.09,2.63c-.41,1.57-1.23,2-2.6,1.1a20.2,20.2,0,0,1-4.34-4.12c-.86-1-1.63-2.07-2.69-3.43.16,1.32.21,2.26.41,3.17a5.1,5.1,0,0,1-.32,2.87c-.38,1.08-1.61,1.41-2.95.87a19.44,19.44,0,0,1-5.12-3.33l-2.73-2.33-.12-.11.11.12a18.07,18.07,0,0,0,.72,3.34,2,2,0,0,1-.4,2c-.58.58-1.27.23-1.85,0A25.23,25.23,0,0,1,470.87-1l-.8-.69A8.74,8.74,0,0,0,468-3.57c.11,1.41.32,2.73.32,4,0,3.42-1,4-4.05,2.58a.61.61,0,0,0-.13,0c-1.06-1-2.13-2-3.16-3a21.39,21.39,0,0,0-2.68-2.87l-.16-.33s-.1.07-.09.08.11.22.17.33c.21,1.7,1,3.29.89,5.08-.08,1.09-.53,1.42-1.51,1.3a6.09,6.09,0,0,1-2.7-1.37c-2.4-1.68-4.36-3.86-6.6-5.77a1.57,1.57,0,0,0-.14,1.44A14.26,14.26,0,0,1,448.35,2c-.07,1.82-1.3,2.54-2.9,1.72a17.74,17.74,0,0,1-5.1-4.43l-2.72-3.13c.09,2.36.57,4.29.07,6.24-.41,1.62-1.29,2.17-2.82,1.5A9.47,9.47,0,0,1,432.2,2a58.28,58.28,0,0,1-5.55-6.5c.2,1.19.34,2,.49,2.84a15.77,15.77,0,0,1,.33,4.89c-.22,1.73-1.37,2.26-2.85,1.38a13.43,13.43,0,0,1-2.23-1.68c-1.74-1.59-3.1-3.52-4.74-5.2l-.14-.12.1.15a13.85,13.85,0,0,0,.2,1.44A15.46,15.46,0,0,1,418.18,3c-.06,1.93-1,2.57-2.78,1.85a15.82,15.82,0,0,1-3.26-2.05c-1.44-1.07-2.59-2.46-4-3.67-.19,1-.29,1.77-.5,2.53a14.78,14.78,0,0,1-.83,2.25c-1,2-2.44,2.41-4.34,1.2A12.89,12.89,0,0,1,399.2,2c-1-1.24-1.86-2.54-3-4.11.09.82.13,1.29.2,1.75a19.77,19.77,0,0,1,.06,4.92c-.15,1.55-1.23,1.93-2.42.93a14.43,14.43,0,0,1-1.76-1.82c-1.55-1.84-2.65-4-4-5.92l-.1-.07.12.06c0,.44,0,.89,0,1.33-.07,2,.29,4.1-.26,6.11-.38,1.42-1.25,1.73-2.49,1a10.43,10.43,0,0,1-2.81-3c-1.07-1.52-2.08-3.09-3.24-4.82,0,1,0,1.78,0,2.54a20,20,0,0,1-.18,4.38c-.47,1.82-1.46,2.11-2.85.86a17.65,17.65,0,0,1-3.24-4L371-1.61c-.42,2.54-.28,5-1.37,7.2-.7,1.42-1.42,1.52-2.58.46a13.94,13.94,0,0,1-2.83-4.32c-.5-1-1-2-1.52-3.13-.31,2.07-.21,4-.74,5.76-.63,2.12-1.89,2.51-3.54,1a17.67,17.67,0,0,1-3-3.75,14.32,14.32,0,0,0-2.06-3.11A27.22,27.22,0,0,1,352.21,4c-.4,1.07-.64,2.38-2.06,2.51s-1.9-1.11-2.61-2c-.05-.07-.08-.16-.13-.23a34,34,0,0,1-2.63-5.39c-.33.2-.33.47-.41.72-.68,2.06-1.08,4.23-2.36,6.06-.81,1.15-1.54,1.2-2.47.16a6.55,6.55,0,0,1-1.34-2.59c-.47-1.59-.91-3.18-1.42-5L335.85.13a18.85,18.85,0,0,1-3,4.71c-1.67,1.76-3,1.52-4-.69a4.51,4.51,0,0,1-.28-.88c-.32-1.41-.61-2.81-.94-4.33-.66.78-1.22,1.53-1.87,2.19C324,2.93,322.48,5,320.2,6.22c-1.95,1.07-3,.42-3.08-1.82-.07-1.56.28-3.06.33-4.74A7.69,7.69,0,0,0,316.24.87a36.6,36.6,0,0,1-6.69,5.47c-1.07.65-2.22,1.57-3.42.73s-.76-2.31-.59-3.6c.2-1.53.81-3,1.06-4.51-.83.81-1.56,1.68-2.32,2.53a22.46,22.46,0,0,1-5,4.58c-1.6,1-2.46.62-2.88-1.2a6.29,6.29,0,0,1,0-2.52c.15-.93.27-1.87.42-2.84-.51.06-.61.39-.8.62-1.82,2.18-3.46,4.53-5.86,6.15-2,1.38-2.82,1-3.31-1.4a4.29,4.29,0,0,1,0-1.43c.17-1.11.08-2.25.28-3.38-2.21,2.63-3.92,5.65-6.87,7.54a3,3,0,0,1-1.28.18,3.3,3.3,0,0,1-1.13-2.73A40.53,40.53,0,0,1,278-.21c-.87.89-1.58,1.83-2.34,2.74a20.41,20.41,0,0,1-4.08,4.17c-1.7,1.13-2.82.7-3.07-1.32a13.08,13.08,0,0,1,.06-3.85c.16-1,.28-2,.42-3-1.15,1.06-2,2.24-3,3.3-1.81,2-3.45,4.11-5.91,5.32-1.54.75-2.41.29-2.87-1.34a9,9,0,0,1,.07-4.09c-.33.38-.42.51-.54.63-2,2-3.78,4.16-6.2,5.64-.78.48-1.63,1-2.61.48s-.84-1.47-.88-2.36a18,18,0,0,1,.25-3.53c-1.19,1.07-2.45,2.26-3.77,3.37-1.66,1.39-3.22,3-5.59,3.11-1.34-.06-1.91-1-2.3-2.08a14.47,14.47,0,0,1-.4-4.09ZM379.91-74.41l.22.15-.12-.25-.19-.33c-.11-.24-.21-.49-.34-.72-3.14-5.14-5.81-10.53-8.46-15.94a2.27,2.27,0,0,1-.46-1.35l0,0c2.41,2.67,4.77,5.39,7.24,8,4.06,4.31,8.18,8.56,12.51,12.6l.23.13-.09-.27c-.17-.31-.32-.64-.51-.93-2.27-3.46-4.58-6.89-6.82-10.37a54.79,54.79,0,0,1-4-7.06c-.17-.39-.54-.92-.13-1.21s.82.22,1.12.51c1.2,1.13,2.39,2.27,3.53,3.45,3.81,3.94,7.22,8.24,11.18,12a15.67,15.67,0,0,0,3.66,2.88c1,.5,1.59.1,1.46-1a12.2,12.2,0,0,0-.65-2.58c-2.08-5.94-5.09-11.44-8.08-17-.12-.22-.13-.6-.63-.59.66,3.72,1.32,7.4,2,11.2a2.47,2.47,0,0,1-1.1-1,120.16,120.16,0,0,0-10.92-11.53,16.05,16.05,0,0,0-2.82-2.24c-1.31-.75-2-.4-2.18,1.1a6.32,6.32,0,0,0,0,1.06A37.9,37.9,0,0,0,377-89c-.46,0-.62-.26-.85-.45a52.6,52.6,0,0,1-7.56-8.42c-.48-.63-.88-1.87-1.71-1.52-.62.27,0,1.44.15,2.19.76,3.2,2.1,6.23,3.06,9.37l-.21.18c-2.13-3-4.18-6-6.51-8.77-.38-.46-.79-1.22-1.47-.93s-.46,1.19-.38,1.8A48.26,48.26,0,0,0,363-89a2.46,2.46,0,0,1,.2,1.79c-1.7-3.51-3.3-6.82-4.91-10.12a16,16,0,0,0-.93-1.61.58.58,0,0,0-.42-.28c-.28,0-.31.29-.3.5a28.38,28.38,0,0,0,.17,3.06c.39,2.67.85,5.34,1.29,8l-.17.14c-.17-.36-.35-.71-.5-1.08a54.54,54.54,0,0,0-3.83-8.06c-.23-.36-.41-.9-.95-.78s-.49.68-.56,1.11A27.23,27.23,0,0,0,352-90c.07,1.12.13,2.24.19,3.35a3.16,3.16,0,0,1-.8-1.26,45.15,45.15,0,0,0-4.07-8.1c-.4-.6-.76-1.71-1.48-1.5s-.63,1.37-.61,2.14c.09,2.45.25,4.89.37,7.33,0,.62.28,1.28-.31,2-.79-1.44-1.5-2.77-2.24-4.07a26.6,26.6,0,0,0-3.3-5.16c-.26-.28-.55-.69-1-.44s-.32.71-.25,1.08a10.81,10.81,0,0,0,1.34,3.19A179.79,179.79,0,0,0,350-76c.1.14.19.41.52.25a58.23,58.23,0,0,1-1.83-14.21c1.47,4.94,3.86,9.44,6.22,14a17.9,17.9,0,0,0,2.56,4.18l.11,0-.12,0a2.53,2.53,0,0,0-.4-1.65,40.74,40.74,0,0,1-3-13.59,6.09,6.09,0,0,1,.56-3.42,38.2,38.2,0,0,0,2.59,6.26c1,2,2,3.89,3,5.79a36.9,36.9,0,0,0,3.27,5.43,156.81,156.81,0,0,1-3.88-15.76c3.6,6.21,8.11,11.73,12.68,17.22A187.17,187.17,0,0,1,365.24-90a3.39,3.39,0,0,1,.81.89,101.09,101.09,0,0,0,13.57,14.48ZM204.31-2.82l-.16.21c.15.06.19,0,.21-.15l.35-.19.46-.33c4-2.81,7.78-5.92,11.63-8.93q6.87-5.38,13.33-11.28l.15.13c-.23.42-.44.86-.7,1.27-3.68,5.84-7.5,11.58-11.74,17l-.16.38c-.2,0-.27.09-.25.28,0,0-.07,0-.1,0s0,0,0,.07l.12-.1.28-.26.32-.21c1.05-.74,2.12-1.46,3.14-2.23,4.82-3.65,9.69-7.24,13.94-11.57.68-.69,1.31-1.42,2-2.14a11.61,11.61,0,0,1-1,3.06c-2.49,5.36-5.33,10.53-8.31,15.63l-.19.34-.12.24.21-.15.3-.24a1.45,1.45,0,0,0,.34-.2c5.56-5.41,11.27-10.69,15.82-17l.21.18c-.1.47-.18,1-.31,1.42a147.18,147.18,0,0,1-5,14.43l-.09.29.21-.17a34.7,34.7,0,0,0,3.3-4.34c2.86-4.12,6-8.1,8-12.74.1-.22.18-.57.52-.5s.36.38.39.62a12.29,12.29,0,0,1,.11,1.6A30.19,30.19,0,0,1,248-4.68a3.89,3.89,0,0,0-.78,2.21A59.8,59.8,0,0,0,253.43-11a51.94,51.94,0,0,0,5.07-9.44,16.94,16.94,0,0,1-.05,2.26,52.69,52.69,0,0,1-2.34,12.13c-.13.08-.22.17-.06.3l.15-.2a84.19,84.19,0,0,0,6.16-6.65A85.09,85.09,0,0,0,271-23.5a5.78,5.78,0,0,0,.78-1.69.86.86,0,0,0-.27-1c-.34-.29-.66-.13-1,.06a7.59,7.59,0,0,0-1.68,1.52c-1.49,1.72-2.76,3.6-4.09,5.44a15.44,15.44,0,0,1-2,2.61.68.68,0,0,1-.35-.72c.1-1.51.18-3,.34-4.52a36.16,36.16,0,0,0,.12-5.2c0-.46-.12-.94-.59-1.12s-.74.22-1,.5c-.64.68-1.29,1.36-1.86,2.1a61.71,61.71,0,0,0-5.56,9.07,9.61,9.61,0,0,1,.06-1.21c.22-3,.7-6,.16-9-.08-.49-.13-1.05-.66-1.22s-1,.34-1.28.75a41.42,41.42,0,0,0-4.22,6.64c-.56,1.07-1.13,2.14-1.7,3.21a1.94,1.94,0,0,1,0-1.12,72.22,72.22,0,0,0,1.92-9c.08-.72.53-1.84-.34-2.15s-1.14.82-1.53,1.43c-2.27,3.56-4.51,7.14-6.77,10.72l-.21-.19c.51-1.51,1-3,1.51-4.53a15,15,0,0,0,1-4.8c0-1.09-.5-1.37-1.42-.76a12.76,12.76,0,0,0-1.83,1.54c-2.79,2.66-5.33,5.58-8,8.4l-.15-.15c1.33-3.2,3-6.23,4.11-9.53.27-.83,1.09-2.05.27-2.52s-1.49.82-2.12,1.47a91.26,91.26,0,0,1-8.42,8.15l-.22-.2a38.91,38.91,0,0,0,1.83-6.79c.1-.95.16-1.95-.65-2.59s-1.78-.17-2.62.23a10.54,10.54,0,0,0-1.49.87c-1.85,1.3-3.71,2.59-5.54,3.93-4.22,3.11-8.11,6.63-12.17,9.94l-.22-.27,9.21-12.24a.67.67,0,0,0-.73.15c-6,6.18-12,12.31-17.5,18.9a26.63,26.63,0,0,0-3.42,4.75c-.15.29-.45.65-.11,1a.86.86,0,0,0,1,0c.68-.33,1.37-.65,2-1,5.35-3.29,10.22-7.25,15.23-11a83.91,83.91,0,0,1,9.77-6.74c.45-.25,1.05-.69,1.46-.27s-.11,1-.38,1.38a46.86,46.86,0,0,1-4.91,6.14c-3.26,3.58-6.57,7.13-9.85,10.7l-.4.4ZM288.5-5.77l-.15.21.22-.13.35-.19c.26-.16.54-.3.79-.49,6.25-4.77,12.74-9.26,18-15.19a1.29,1.29,0,0,0,.17.16,26.09,26.09,0,0,1-2.15,5c-2.24,4.64-4.78,9.11-7.36,13.57l-.24.29-.18.27.1,0,.07-.32c.18.07.28,0,.36-.18a64.11,64.11,0,0,0,6.28-5.94c3.69-3.75,7.46-7.42,10.46-11.81a108.17,108.17,0,0,1-5.45,16.29.74.74,0,0,0,.74-.43c3.79-5.27,7.85-10.37,10.64-16.3.13-.26.2-.67.6-.59s.39.44.42.74.06.71.07,1.07a29.65,29.65,0,0,1-3.32,13.88l-1.28,2.57L318-3c4.38-5.77,8.52-11.69,11.45-18.78A58.13,58.13,0,0,1,327-6.68L336.3-17a7.53,7.53,0,0,1-1.82,4.5c-.4-.31-.06-.91-.44-1.28-.09,1.18-.18,2.29-.25,3.4A20.2,20.2,0,0,0,334-5.77c.08.45.18,1,.77,1.15s.9-.3,1.2-.68a10.76,10.76,0,0,0,1.48-2.83c1.25-3.24,1.93-6.66,2.91-10,.29-1,.64-1.94,1-2.89.22-.58.48-1.25,1.21-1.27s.92.64,1.17,1.15a20,20,0,0,1,.86,2.09c1.26,3.62,2.48,7.24,3.74,10.85a23.64,23.64,0,0,0,1.71,4.05c.15.26.29.61.69.5s.3-.42.3-.68c0-.93.17-1.85.11-2.79-.2-3.11-.34-6.22-.47-9.34,0-.78,0-1.54,1.18-.93,2.49,1.33,4.59,3,5.6,5.81.57,1.59,1.16,3.17,1.61,4.8.23.83.5,1.65.75,2.47l.32,0c0-1-.05-2,0-3a17.07,17.07,0,0,1,1-6,2.38,2.38,0,0,1,3.57-1.36,10.61,10.61,0,0,1,2.79,2c2.38,2.25,4.2,5,6.26,7.47a5.13,5.13,0,0,0,2.05,1.91,3.81,3.81,0,0,0-.72-2.17A137.7,137.7,0,0,0,366-20.65a45.07,45.07,0,0,0-5.49-7c-.37-.36-.77-.91-1.34-.65s-.33.87-.35,1.34c-.12,2.9-.22,5.79-.35,9.1-.33-1-.52-1.54-.73-2.11a35.3,35.3,0,0,0-3.3-7.56c-.35-.55-.72-1.24-1.51-1.14s-.84.85-1.05,1.41c-1.34,3.49-2.42,7.06-3.49,10.64-.35,1.17-.71,2.34-1.16,3.8-.29-1.49-.47-2.63-.75-3.75-.82-3.32-1.43-6.72-3.5-9.58-.9-1.25-1.44-1.31-2.59-.28a4.57,4.57,0,0,0-.62.7l-5.3,7.2c-.28.38-.44.88-1,1-.42-.53-.22-1.11-.18-1.67a76.2,76.2,0,0,0,.42-8.13c0-.61.09-1.37-.62-1.62s-1,.42-1.41.83a43.1,43.1,0,0,0-6.28,9.57l-.6,1.16a2.57,2.57,0,0,1-.07-1.15c.25-3,.68-5.93.19-8.92-.1-.57-.12-1.27-.8-1.39s-.91.46-1.24.88a49.62,49.62,0,0,0-5.24,8.67c-.2.4-.41.79-.7,1.35a1.94,1.94,0,0,1,.07-1.28A81.78,81.78,0,0,0,318.91-28c.12-.84.55-2.15-.2-2.47s-1.25,1-1.78,1.61a9.1,9.1,0,0,0-.65,1q-3,4.8-6,9.59l-.17-.15c.16-.51.3-1,.48-1.52a38.11,38.11,0,0,0,2-6.77c.11-.73.5-1.77-.38-2.18s-1.38.45-1.91,1c-2.56,2.47-5.07,5-7.42,7.68-.31.35-.54.9-1.16.91-.15-.57.18-.93.35-1.32.72-1.58,1.49-3.13,2.16-4.73.56-1.31,1-2.66,1.5-4,.2-.54.52-1.31.06-1.62s-1,.37-1.4.73-.76.75-1.13,1.13a56.17,56.17,0,0,1-5.15,4.85c-1.75,1.41-3.37,3-5.53,3.82h0a4.24,4.24,0,0,1,.48-1.51,19.29,19.29,0,0,0,1.37-5c.09-.86.34-1.89-.57-2.45s-1.71-.09-2.52.31a33.93,33.93,0,0,0-4.15,2.65A160.33,160.33,0,0,0,272.49-14.3l0,0c0-2,.78-3.9,1.17-5.85s.84-3.68,1.27-5.52a1.34,1.34,0,0,0-.82.54A157.6,157.6,0,0,0,265-11a23.78,23.78,0,0,0-2,4.49c-.2.64-.45,1.39.11,1.89s1.26.18,1.88-.08a20,20,0,0,0,3.66-2.2c4.22-3,8-6.5,12-9.83a70.24,70.24,0,0,1,8.45-6.53c.31-.18.69-.59,1.06-.2s0,.68-.18,1a12.3,12.3,0,0,1-.75,1.26,76.25,76.25,0,0,1-5,6.57q-4.51,5.36-9.06,10.69l-.24.29-.24.3c-.07,0-.31,0-.09.19l.07-.21c.17.08.29,0,.38-.14l.3-.22c.37-.25.76-.47,1.11-.74,8.31-6.36,16.6-12.75,24.35-19.81l.22.19c-.29.5-.55,1-.85,1.5-3.57,5.66-7.31,11.2-11.39,16.5ZM415.24-6.83l.08.16s0-.06,0-.07a.31.31,0,0,0-.09-.07L415-7.08c-1-1.4-2.05-2.79-3-4.22-3.14-4.58-6.19-9.23-8.87-14.1a1,1,0,0,0,.18-.17q6,5.73,12.45,11c4,3.27,7.86,6.64,12,9.68l.27.11L427.85-5c-.15-.23-.27-.47-.43-.67-2.84-3.49-5.72-6.94-8.52-10.46a52,52,0,0,1-5.31-7.52c-.18-.33-.51-.76-.11-1.08s.67.07,1,.25a32.79,32.79,0,0,1,3.73,2.81c5,4.11,9.51,8.74,14.6,12.73a21.92,21.92,0,0,0,4.56,3c.52.23,1.1.55,1.64.16s.38-1.16.26-1.74a17.51,17.51,0,0,0-1.58-4A147.51,147.51,0,0,0,428.22-27c-.08-.12-.16-.33-.44-.16l2.56,11.62c-2.75-2.51-5.18-4.8-7.69-7a64.38,64.38,0,0,0-10.42-7.88c-2.09-1.18-3-.56-2.92,1.79a14.29,14.29,0,0,0,.22,1.58c.29,1.77,1.08,3.38,1.54,5.1l-.17.16a48.67,48.67,0,0,1-10.1-8.84c-.43-.46-.84-.92-1.29-1.35-.25-.23-.57-.6-.92-.41s-.19.71-.16,1.09a3.68,3.68,0,0,0,.21.77,75,75,0,0,0,3.58,8.89c.21.48.61.91.36,1.58-1-1.17-1.93-2.34-2.93-3.44a65.36,65.36,0,0,0-6.09-6.36c-.32-.27-.71-.64-1.19-.4s-.41.75-.4,1.19a16.85,16.85,0,0,0,.95,4.55c.48,1.56,1,3.1,1.52,4.73-.63-.12-.67-.58-.86-.9-2-3.35-4-6.72-6.05-10.07-.3-.5-.64-1.37-1.28-1.14s-.43,1.18-.34,1.79c.24,1.71.55,3.42.9,5.12s.8,3.58,1.21,5.37c-1.34-2.14-2.48-4.34-3.68-6.51a19.45,19.45,0,0,0-2.47-3.64c-.56-.63-1.1-.83-1.43.2a4.2,4.2,0,0,0-.22,1,43.73,43.73,0,0,0,.16,7.59c.06.61.07,1.22.11,1.83a7.67,7.67,0,0,1-1.12-1.77,41.51,41.51,0,0,0-5.52-8.63c-.37-.42-.72-1.08-1.38-.83s-.53,1-.56,1.53a83.86,83.86,0,0,0,.41,8.39,1.91,1.91,0,0,1-.24,1.49,3.67,3.67,0,0,1-1.15-1.35A62.25,62.25,0,0,0,366-27c-.61-.66-1.27-2-2.29-1.27s.08,1.81.52,2.6A55,55,0,0,0,369.81-18c2.77,3.36,5.48,6.77,8.54,9.88,0,.08,0,.3.18.08l-.2-.05c-.56-2.68-1.42-5.3-1.73-8-.12-1.1-.29-2.2-.39-3.3s-.12-2.1-.18-3.15a55.31,55.31,0,0,0,4.75,9.1,55.34,55.34,0,0,0,6.06,8.89l.23.13L387-4.78c-.34-.77-.66-1.55-1-2.31a30.55,30.55,0,0,1-3.14-13.79c0-.66-.31-1.69.5-1.86.58-.13.57.94.87,1.46.48.85.89,1.74,1.38,2.59,2.12,3.66,4.46,7.18,6.89,10.64a12.75,12.75,0,0,0,2.16,2.85l.11.32.12-.12-.21-.22a4.91,4.91,0,0,0-.17-.76,109.43,109.43,0,0,1-3.72-10.81,25.31,25.31,0,0,1-1.24-4.92,1.85,1.85,0,0,1,.32.24c4.35,6.5,9.88,12,15.45,17.37l.24.13-.09-.28a140.66,140.66,0,0,1-8.94-18.5,26.26,26.26,0,0,1,2.23,2.25c4.73,4.86,10.11,8.94,15.42,13.12.22.18.44.47.81.29C414.93-6.86,415.05-6.81,415.24-6.83Zm-148.6-86c.05-.1.12-.19.16-.29s-.08-.06-.12-.1l-.09.35-.25.28c-1.5,2.27-2.72,4.69-4,7.08a66.09,66.09,0,0,0-4.94,10.79c-.3.94-1,2.19-.12,2.87s2-.35,2.79-1a40.37,40.37,0,0,0,4.77-4.28c4-4,7.63-8.36,11.86-12.13.69-.6,1.47-1.88,2.29-1.31.55.39-.42,1.64-.87,2.43-3,5.27-6.57,10.17-10,15.14-.28.4-.78.73-.59,1.36.56,0,.81-.46,1.12-.76,1.5-1.39,3-2.8,4.47-4.22,4.95-4.81,9.88-9.65,14.47-14.81l.2.17c-2.79,6-6.1,11.68-9.29,17.49C283.82-78.36,289-83,293.24-88.69l.16.14a6.56,6.56,0,0,1-.59,2c-1.77,4.75-3.79,9.41-5.92,14-.16.34-.54.8-.15,1.07s.69-.24.92-.53c1.64-2,3.29-4,4.89-6a76,76,0,0,0,6.56-9.34,2.33,2.33,0,0,1-.05,1.56c-.9,3.94-2,7.84-3.2,11.7-.11.35-.41.84.08,1s.54-.35.71-.64c2.38-4.07,4.76-8.14,6.75-12.43.42-.9.75-1.85,1.12-2.78l.35.06a23.13,23.13,0,0,1-.34,8.45c-.48,2.87-1.49,5.6-2.23,8.45a85.69,85.69,0,0,0,8.4-16,27,27,0,0,1-.11,3.93,56.84,56.84,0,0,1-1.23,7.77c-.07.31-.35.78,0,1s.66-.33.89-.62c.52-.66,1-1.36,1.5-2l4.59-6.35a18.56,18.56,0,0,1-.41,2.46c-.16,1.09-1.28,1.77-1.39,2.66a19.51,19.51,0,0,0,.14,6.51c.07.32.16.65.47.75s.65-.23.85-.5a11.07,11.07,0,0,0,1.63-3.92c.88-3.63,1.7-7.27,2.59-10.89.22-.87.27-2.22,1.31-2.23s1.13,1.35,1.38,2.21c1.13,3.88,2.17,7.79,3.28,11.68.39,1.37.89,2.7,1.37,4,.08.24.2.55.53.5s.31-.41.34-.64a22.79,22.79,0,0,0,0-4.13c-.15-2.67-.27-5.34-.38-8,0-.39-.09-.88.35-1.07s.64.2.94.38a10,10,0,0,1,4.33,5.87c.61,2,1.14,4.11,1.6,6.2a1,1,0,0,0,.5.85,34.47,34.47,0,0,1,.6-8.46c.63-2.54,2.05-3,4-1.32a10.54,10.54,0,0,1,.95.94c2.18,2.39,3.68,5.24,5.46,7.9a5.26,5.26,0,0,0,1.73,2,4.67,4.67,0,0,0-.54-2,147.89,147.89,0,0,0-7.67-15.7,44,44,0,0,0-4.19-6.65c-.3-.36-.6-.94-1.15-.73s-.29.79-.29,1.2c0,2.88,0,5.77,0,8.65h-.43c-.08-.24-.17-.49-.24-.74a45.8,45.8,0,0,0-2.85-8.31C331-95.3,330.69-96,330-96s-.7.82-.87,1.35c-1,3.27-1.81,6.6-2.66,9.92a24.16,24.16,0,0,1-1.18,4.28c-.15-1-.24-1.79-.4-2.57-.71-3.61-1.16-7.3-3-10.58-.63-1.08-1.11-1.16-2-.24a6.79,6.79,0,0,0-.84,1.2c-1.39,2.33-2.76,4.67-4.15,7-.18.3-.25.76-.77.8a6.49,6.49,0,0,1,0-2.15,69.05,69.05,0,0,0,.33-8c0-.45,0-1.1-.5-1.3s-.84.4-1.1.77a42.56,42.56,0,0,0-5.55,10.89H307c.24-3.4.73-6.8.28-10.22-.07-.48-.07-1.06-.66-1.18s-.75.38-1,.75A47.48,47.48,0,0,0,303-90.35a41.88,41.88,0,0,1-2.14,4.67l0,0c0-1.89.65-3.66.92-5.5a36.18,36.18,0,0,0,.7-6c0-.29.1-.7-.31-.78s-.46.24-.61.46a11.71,11.71,0,0,0-.62,1c-1.55,3.05-3.09,6.1-4.66,9.15-.18.35-.2.87-.74,1a2.09,2.09,0,0,1,.2-1.31,46.16,46.16,0,0,0,1.51-6.35c.1-.73.48-1.72-.26-2.1s-1.36.56-1.87,1.14c-2.42,2.79-4.53,5.82-6.79,8.73l-.13-.12c.16-.51.31-1,.5-1.52a80.7,80.7,0,0,0,2.93-8.56c.16-.59.52-1.49,0-1.74-.71-.37-1.07.58-1.44,1.06a59.51,59.51,0,0,1-7.46,8.16c-.5.45-1,.85-1.81,1.48.5-1.89.93-3.37,1.29-4.88a9.11,9.11,0,0,0,.38-3.16c-.16-1.4-.86-1.81-2.1-1.15a13,13,0,0,0-2.18,1.51,107.39,107.39,0,0,0-12.05,11.89,4.37,4.37,0,0,1-1.57,1.46c.08-.54.14-.93.21-1.32l1.74-9.57A.21.21,0,0,0,266.64-92.86Zm171.85-3.78.2.34.27.52c.29.55.56,1.11.87,1.65q3,5.13,6,10.25l-.24.22c-.25-.25-.5-.5-.74-.76a129.06,129.06,0,0,0-12.95-13.09c-.79-.66-1.67-1.71-2.77-1s-.75,2-.65,3.08a60.26,60.26,0,0,0,1.3,6.25l-.22.2c-2.94-3-5.07-6.63-8-10a4.3,4.3,0,0,0,.05,2.39c.79,3.32,2.18,6.46,3.15,9.73a1.29,1.29,0,0,0-.17.16c-.67-.94-1.33-1.89-2-2.81-1.55-2.07-3.09-4.14-4.68-6.18-.33-.42-.78-1.09-1.39-.78s-.43,1-.35,1.61c.16,1.09.35,2.19.6,3.27.39,1.68.83,3.34,1.27,5.08-.61-.15-.64-.62-.8-1-1.27-2.6-2.51-5.21-3.77-7.81-.38-.8-.8-1.59-1.23-2.37-.14-.26-.32-.62-.68-.53s-.27.51-.28.8a20.06,20.06,0,0,0,.43,4.37c.38,2.29.8,4.57,1.21,6.86a1.86,1.86,0,0,1-.61-.9,55.77,55.77,0,0,0-3.81-8.23c-.29-.47-.49-1.24-1.15-1.13s-.56.9-.64,1.46a24.35,24.35,0,0,0-.05,5.33c.09,1.24,0,2.49,0,3.95-1-2.11-1.78-4.06-2.71-6a23.2,23.2,0,0,0-2.76-4.55c-.2-.24-.4-.54-.76-.44s-.36.47-.41.77a15.4,15.4,0,0,0-.1,3.46c.11,2.37.45,4.74.33,7.49a27.39,27.39,0,0,1-2.34-3.92,35,35,0,0,0-3.4-5.42c-.28-.34-.62-.75-1.12-.49s-.35.8-.24,1.2a15.93,15.93,0,0,0,1.72,3.75c2.87,5,6.21,9.67,9.5,14.37.17.24.29.57.75.62-.33-1.58-.7-3.11-1-4.67a44.86,44.86,0,0,1-.6-4.76,22.66,22.66,0,0,1-.2-4.86,83.06,83.06,0,0,0,6.91,15.36A8,8,0,0,0,412-71c0,.08,0,.29.18.09L412-71a2.39,2.39,0,0,0-.38-1.52,36.8,36.8,0,0,1-2.89-15.08c0-.51-.17-1.13.5-1.65a53.17,53.17,0,0,0,3.86,8.57,78.77,78.77,0,0,0,5.05,8.89l.09.36.14-.12-.22-.25a6.65,6.65,0,0,0-.13-.91c-.8-2.83-1.65-5.64-2.4-8.47-.59-2.21-1.05-4.45-1.58-6.68a133.85,133.85,0,0,0,12.84,17.3,178.65,178.65,0,0,1-7-18.48,58.12,58.12,0,0,0,4.77,5.78,133,133,0,0,0,9.75,9.69l.25.12-.11-.26c-.23-.42-.44-.86-.69-1.27a176.34,176.34,0,0,1-8.58-16.48l.2-.18c5.9,6.83,12.19,13.3,18.82,19.78a1.82,1.82,0,0,0-.59-1.48c-1.68-2.35-3.43-4.66-5.08-7A66.37,66.37,0,0,1,433-89.13c-.18-.37-.58-.87-.19-1.21s.82.12,1.16.36a35.66,35.66,0,0,1,3.79,3.16c4.57,4.18,8.72,8.79,13.39,12.86.9.79,1.84,1.54,2.81,2.25.43.32,1,.91,1.49.47s0-1-.23-1.47a14.41,14.41,0,0,0-.85-1.66,236.93,236.93,0,0,0-15.23-21.58l-.39-.44c0-.16-.1-.3-.31-.22l0-.36-.16.06Zm48.79,67.76c.09.06.24.19.26.17.19-.15,0-.25-.08-.35s-.28-.27-.49-.12ZM333.7-137l.43-.38a2.42,2.42,0,0,0,.31-.25c4.28-5.11,8.62-10.19,12.09-15.92.12-.19.15-.54.65-.38-1.13,5.16-2.54,10.25-4.06,15.33,3.47-5.58,6.94-11.15,9.36-17.37A2.65,2.65,0,0,1,353-154a36.29,36.29,0,0,1-3,14.78c-.24.56-.66,1.08-.48,1.76-.18-.06-.23,0-.14.17l.13-.19a3.23,3.23,0,0,0,1.1-1.46c1.35-2.36,2.69-4.72,4-7.12a59,59,0,0,0,4.17-9.54,63,63,0,0,1-1.94,14.52,189.86,189.86,0,0,0,11.36-16c-.73,3.14-1.16,6.36-2.47,9.34-.58-.21-.24-.77-.64-1a67.66,67.66,0,0,0,0,7.54c0,.51,0,1.32.73,1.41s.83-.59,1.09-1.05a22.62,22.62,0,0,0,1.84-5.55c.8-3.24,1.26-6.55,2.31-9.73.18-.54.33-1.27,1-1.27s.84.72,1,1.25c.55,1.64,1,3.31,1.57,5a47.61,47.61,0,0,0,4.89,11.36c.34.53.75,1.31,1.51,1.07s.68-1.07.79-1.72c0-.14,0-.27,0-.41a47.05,47.05,0,0,0-.7-9.7c-.34-2.06-.79-4.1-1.16-6.15-.07-.34-.18-.81.11-1s.76.08,1.08.29a7.5,7.5,0,0,1,2.55,3.51A122.61,122.61,0,0,1,388-141.73a4.18,4.18,0,0,0,.95,2,2.59,2.59,0,0,0,.21-1.86l-1-6.32c-.08-.49-.26-1.06.24-1.34s.92.17,1.31.45a26.84,26.84,0,0,1,3.16,2.87c1.11,1.08,2.24,2.13,3.4,3.22a2.58,2.58,0,0,0-.46-1.63c-1.39-2.93-2.94-5.79-4.56-8.61A7.6,7.6,0,0,0,390-154.8a64.07,64.07,0,0,0-7.23-6.12,11.5,11.5,0,0,0-3.8-1.9,1.66,1.66,0,0,0-2.24,1.29,28.82,28.82,0,0,0-.8,4.32c-.29,2.37-.23,4.75-.34,7.14-.29-1.12-.48-2.25-.72-3.37a26,26,0,0,0-2.33-7.62c-.8-1.42-1.46-1.46-2.55-.3-.12.12-.15.69-.51.26-.75-.89-1.22-.12-1.58.33a31.51,31.51,0,0,0-2.21,3.17c-1.18,1.92-2.3,3.89-3.47,5.89-.52-.61-.33-1.18-.3-1.74.1-2.8.5-5.59.35-8.4,0-.52,0-1.2-.58-1.36s-.82.47-1.11.85a36.24,36.24,0,0,0-3.88,6.83c-.49,1.06-1,2.13-1.45,3.19a4.28,4.28,0,0,1-.17-1.51c.09-2.71.5-5.42,0-8.13-.07-.44-.09-1-.57-1.11s-.74.39-1,.74a50.57,50.57,0,0,0-4.11,8.23c-.19.46-.23,1-.78,1.33-.24-.33,0-.6.08-.86a68.5,68.5,0,0,0,1.54-9.33c0-.59.34-1.53-.22-1.71-.74-.24-1,.74-1.24,1.28-1.62,3.12-3.18,6.27-4.78,9.4-.19.36-.23.95-1,.93a39,39,0,0,0,1.76-6.22,10.06,10.06,0,0,0,.37-3c-.09-.91-.56-1.1-1.22-.51a13,13,0,0,0-1.64,1.76c-2,2.52-3.91,5.07-5.87,7.61l-.23-.2c.21-.63.4-1.27.64-1.89a67.6,67.6,0,0,0,2.59-7.7c.15-.63.78-1.55,0-1.93-.59-.29-1,.68-1.41,1.18a55.6,55.6,0,0,1-8,8.61c-.34.28-.62.7-1.29.73a36.81,36.81,0,0,0,1.56-6c.14-1,.46-2.23-.49-2.87s-1.91.25-2.76.8c-.14.09-.28.21-.42.32a107.3,107.3,0,0,0-21.81,24.75,3.66,3.66,0,0,0-.75,1.8,5.82,5.82,0,0,0,1.83-1.27c3-2.84,5.87-5.84,8.72-8.85a143,143,0,0,1,10.57-10.75,3.33,3.33,0,0,1,1.67-1c.26.69-.13,1.18-.38,1.68a59.08,59.08,0,0,1-4.08,6.73c-2.49,3.68-5,7.34-7.53,11a.51.51,0,0,0-.28.51c-.14.05-.25.11-.09.27l.16-.19.42-.38c3.52-3,6.72-6.33,10.05-9.51,3.6-3.44,7-7.08,10.32-10.75l.16.15c-.19.45-.36.9-.58,1.34-2.88,5.65-5.93,11.22-9.27,16.62l-.09.28.25-.13a129.46,129.46,0,0,0,11.68-11.27c1.19-1.28,2.26-2.67,3.44-4.09a2.64,2.64,0,0,1-.34,1.78c-2,5.51-4.44,10.84-6.86,16.16a.54.54,0,0,0-.22.58l-.17.09.1.11ZM286.31-70.45c.08-.13.29-.25.14-.43s-.26,0-.35.14a.59.59,0,0,0-.26.56,2.34,2.34,0,0,0-.2.27s.08.07.12.11l.14-.32C286.13-70.11,286.24-70.26,286.31-70.45ZM309-74.75c-.12.18-.25.37,0,.5,0,0,.23-.3.36-.46l-.11-.32Zm-13.48,2.83c.18-.18.38-.36,0-.55a.63.63,0,0,0-.36.88C295.25-71.41,295.47-71.7,295.51-71.92Zm-28.92,1.21c.52,0,.73-.33.82-.86a1,1,0,0,0-.8.88c-.08,0-.3,0-.09.19Zm129.34-50.46c-.37-.5-.74-1-1.1-1.5-1.87-2.65-3.74-5.31-5.85-7.79-.31-.35-.67-.84-1.22-.59s-.35.78-.33,1.2a37.13,37.13,0,0,0,1.52,7.43,2.6,2.6,0,0,1,.22,1.78c-2.14-4.23-3.83-8.46-6.4-12.27-.45,4,.78,7.81,1.09,11.7a5.64,5.64,0,0,1-.68-1.31,50.27,50.27,0,0,0-3.66-7.7c-.23-.37-.43-.9-.94-.83s-.52.66-.58,1.08a33.23,33.23,0,0,0-.05,7.19c.06.88.1,1.76.15,2.64a2.54,2.54,0,0,1-.67-1.08,45.72,45.72,0,0,0-4.67-9.13c-.27-.38-.55-1-1.06-.88s-.53.87-.54,1.39c-.05,1.55,0,3.11.1,4.67.11,1.77,0,3.55,0,5.62-.51-.9-.88-1.54-1.24-2.2a58.91,58.91,0,0,0-3.57-6.1c-.47-.66-.94-2-1.87-1.42s-.14,1.65.25,2.41a122.3,122.3,0,0,0,11.28,17.45c.06.12,0,.39.25.27s0-.29-.08-.41c-.31-1.53-.65-3-.9-4.58s-.39-3-.58-4.5a20.58,20.58,0,0,1-.18-4.79c1.88,5.84,7.15,16.52,8.85,17.9-.69-2.11-1.59-4-2.1-6a39,39,0,0,1-1.18-6.15c-.19-2-.59-4.06.2-6.09a76.32,76.32,0,0,0,4.07,8.68,70.34,70.34,0,0,0,4.74,8.18c-1.32-5.07-2.78-10.07-3.64-15.23A126.23,126.23,0,0,0,398-105.41c-2.42-6-5-11.9-6.84-18.12a16.2,16.2,0,0,1,1.51,1.84c3.8,4.92,8.33,9.14,12.76,13.46a1.09,1.09,0,0,0,.36.17c.06.11.1.28.25.08l-.17-.16a7.84,7.84,0,0,0-.41-.82c-3.07-5.06-5.73-10.33-8.31-15.64-.18-.37-.55-.73-.31-1.2.34,0,.49.2.66.4,5.57,6.59,11.71,12.65,17.8,18.75.36.36.63.88,1.23,1,0,.12,0,.29.2.13l-.18-.15a3.79,3.79,0,0,0-.84-1.49,115.14,115.14,0,0,1-7.2-12.15c-.31-.64-1-1.52-.33-2s1.24.45,1.77.89c2.88,2.4,5.34,5.22,8,7.83a59.51,59.51,0,0,0,6.74,6.06c.52.37,1.17,1,1.77.57s0-1.26-.21-1.83a57.41,57.41,0,0,0-4.82-8.59A115,115,0,0,0,415-126l-.11-.31-.11.13.23.17c-.15.57.19,1,.37,1.52.85,2.42,2,4.74,2.66,7.21l-.13.14c-1.69-1.89-3.35-3.8-5.07-5.66a66.68,66.68,0,0,0-8.79-8.34c-.54-.41-1.19-1-1.93-.51s-.7,1.27-.69,2c0,.22.06.44.08.66a38.25,38.25,0,0,0,1.61,6.7c-.75-.63-1.2-1-1.62-1.35a54.13,54.13,0,0,1-6.86-7.8c-.39-.54-.82-1.05-1.25-1.56a.46.46,0,0,0-.58-.19.49.49,0,0,0-.2.58,22.7,22.7,0,0,0,.57,2.47c.95,2.95,1.95,5.89,2.93,8.84ZM494.85-4.11l.23.14-.14-.22a57,57,0,0,0-4.05-4.59c-3.35-3.81-6.79-7.55-9.76-11.68a11.93,11.93,0,0,1-1.14-2c-.28-.59,0-.86.64-.67a6,6,0,0,1,1.19.59,68.63,68.63,0,0,1,7.26,5.21c5.15,4,10.11,8.32,15.56,12,.7.46,1.45.85,2.2,1.25.39.21.87.45,1.23.07s0-.77-.2-1.09a21.4,21.4,0,0,0-1.5-2.36,271.75,271.75,0,0,0-18-20.77c-.16-.17-.32-.42-.63-.22,0,.52.4.8.65,1.15q3.94,5.53,7.93,11.06l-.2.2c-.44-.38-.88-.74-1.31-1.13a149.56,149.56,0,0,0-16.11-13.18c-1-.69-2.22-1.67-3.41-.89s-.74,2.36-.58,3.6a41.87,41.87,0,0,0,1.57,5.78l-.22.21a77.81,77.81,0,0,1-6.78-6.81c-.81-.89-1.64-1.75-2.49-2.61-.21-.21-.49-.47-.82-.27s-.22.57-.15.86c.18.73.39,1.46.62,2.18,1,3,2.51,5.88,3.67,8.86l-.21.19c-2.62-3-5.24-6.05-8.08-8.88-.54-.53-1.17-1.47-2-1.05s-.43,1.51-.31,2.32c.44,2.83,1.59,5.45,2.34,8.19l-.13.12c-1-1.63-1.95-3.28-2.94-4.91q-2.11-3.47-4.28-6.93c-.18-.29-.42-.69-.8-.59s-.42.62-.44,1a3.66,3.66,0,0,0,0,.66,56.17,56.17,0,0,0,1.13,6.3c.34,1.41.64,2.83,1,4.25l-.26.07-.87-1.77a47.59,47.59,0,0,0-4.74-8c-.29-.38-.58-.89-1.17-.72s-.54.69-.62,1.11a19.63,19.63,0,0,0-.15,4.4c.05,1.82.19,3.65.29,5.47a3.5,3.5,0,0,1-.86-1.22A45.84,45.84,0,0,0,441.65-28c-.47-.57-.95-1.54-1.7-1.32s-.64,1.35-.67,2.13c-.07,2.45.26,4.88.43,7.32a2.91,2.91,0,0,1-.2,2.08,5.66,5.66,0,0,1-1.35-1.69A69.51,69.51,0,0,0,433.49-26c-.6-.69-1.35-2-2.26-1.41-1.13.73,0,1.87.42,2.68a57.3,57.3,0,0,0,6.14,8.39c2.54,3.09,5,6.22,7.88,9.05.05.1.05.31.23.1,0,0-.1-.12-.15-.18a50.86,50.86,0,0,1-2.25-14.23c4,8.45,9.12,16.78,11.17,18.22-.93-2.15-2-4-2.66-6a34.86,34.86,0,0,1-1.53-6.34,15.51,15.51,0,0,1,.12-6.49,5.4,5.4,0,0,1,.56.79,33.79,33.79,0,0,0,3.33,6.22,113.56,113.56,0,0,0,7.44,10.88c.06.13.05.41.25.3s0-.29-.14-.38c-1.39-3.8-2.79-7.59-3.9-11.47a29,29,0,0,1-1.23-4.92c4.62,6.64,10.17,12.12,15.68,17.76.24-.76-.22-1.16-.47-1.6a164.91,164.91,0,0,1-7.84-15.75,2.46,2.46,0,0,1-.39-1.65l0,0c5.34,6.21,11.89,11,18.35,16a1.89,1.89,0,0,0-.43-.86,166,166,0,0,1-11.31-17.44l.2-.2c5.19,5,10.67,9.66,16.26,14.2C489.55-8.26,492.05-6,494.85-4.11Zm-191-102.62c.08,0,.19,0,.24-.09,5.12-4.73,10.4-9.32,14.59-15,.14-.18.21-.5.74-.37-.39,1.09-.76,2.17-1.17,3.23-1.94,5.11-4.22,10.06-6.48,15-.17.08-.29.27-.14.36s.19-.14.26-.26A118,118,0,0,0,324.41-120c.19-.3.19-.78.82-.84-1.11,5.23-2.56,10.3-4,15.41a104.4,104.4,0,0,0,9.33-17.3,4.81,4.81,0,0,1,.48,2.23,37.91,37.91,0,0,1-.91,7.94,63.73,63.73,0,0,1-2.65,8.09.27.27,0,0,0,0,.44l.19-.3a4.71,4.71,0,0,0,1.08-1.5,89.19,89.19,0,0,0,8-16.57,63.8,63.8,0,0,1-1.86,14.46,12.64,12.64,0,0,0,1.44-1.69l6-8.1,0,0a10.92,10.92,0,0,1-.87,3.73c-.25.87-.6.31-1-.13,0,1.81,0,3.45,0,5.09a9.51,9.51,0,0,0,.28,2.91c.27.83.68.88,1.21.25a7.55,7.55,0,0,0,1.24-2.49,100.91,100.91,0,0,0,2.39-9.85,19.93,19.93,0,0,1,1.23-4.21c.16-.32.32-.68.74-.68s.61.34.75.67c.26.66.55,1.31.75,2,1.36,4.65,2.47,9.37,4,14a4.11,4.11,0,0,0,1.19,2.17,12.48,12.48,0,0,0,.28-3.43q-.23-4.86-.4-9.74c0-.33-.13-.76.25-1s.64.18.93.36a9.77,9.77,0,0,1,4.45,6.09c.39,1.41.73,2.84,1.15,4.24a6.92,6.92,0,0,0,.86,2.57c.12-1.61.08-3.2.14-4.79a12.71,12.71,0,0,1,.85-4.56c.6-1.47,1.66-1.77,3-.9a11.09,11.09,0,0,1,2.55,2.52c1.8,2.28,3.17,4.84,4.81,7.22a4,4,0,0,0,1.46,1.64,6.69,6.69,0,0,0-.72-2.52,165,165,0,0,0-8.39-16.84,34.45,34.45,0,0,0-3.44-5.23c-.25-.3-.51-.71-1-.56s-.26.61-.3.94c-.31,3-.14,5.95-.26,9a4.21,4.21,0,0,1-.72-1.87,37.64,37.64,0,0,0-2.77-7.63c-.23-.41-.5-1-1.08-.86s-.59.61-.72,1c-.45,1.53-.93,3.06-1.33,4.61-.85,3.25-1.65,6.52-2.55,10.13-.17-1.09-.26-1.82-.41-2.55-.75-3.69-1.2-7.45-3.09-10.85-.65-1.17-1.16-1-1.89-.28a4.85,4.85,0,0,0-.72,1c-1.17,1.95-2.29,3.92-3.49,5.84a6.56,6.56,0,0,1-1.79,2.42c.16-2.6.28-4.9.44-7.18a14.12,14.12,0,0,0-.1-3.73c-.18-.84-.57-1-1.13-.33a19.83,19.83,0,0,0-1.49,2.05,70.52,70.52,0,0,0-4.55,9,12.06,12.06,0,0,1,.06-1.71,49.53,49.53,0,0,0,.11-8.26c0-.48-.07-1.09-.6-1.25s-.82.42-1.07.81a46.65,46.65,0,0,0-3.15,6,18.89,18.89,0,0,1-1.52,3.28,3,3,0,0,1,.08-1.44,59.56,59.56,0,0,0,1.46-9.47c0-.34.15-.82-.23-1s-.69.33-.86.64c-.9,1.64-1.77,3.3-2.62,5-1.1,2.17-2.18,4.35-3.33,6.64-.32-.69,0-1.11.15-1.55a48.44,48.44,0,0,0,1.6-6.6c.11-.81.6-1.91-.29-2.3s-1.42.69-1.92,1.32c-2.24,2.83-4.43,5.69-6.63,8.53l-.14-.14c.16-.51.3-1,.49-1.52a78.2,78.2,0,0,0,3-8.7c.14-.54.46-1.33-.05-1.59s-.94.51-1.27.93a61.74,61.74,0,0,1-7.54,8.29,3.87,3.87,0,0,1-1.78,1.16c.34-1.25.67-2.38,1-3.53a12,12,0,0,0,.58-4.07c-.11-1.48-.87-1.88-2.17-1.18a12.74,12.74,0,0,0-2,1.37,94.63,94.63,0,0,0-10.1,9.72c-1.13,1.24-2.27,2.47-3.4,3.7l-.22-.1,2-10.88-.36-.1c-1.21,2.17-2.46,4.32-3.61,6.52a71.09,71.09,0,0,0-5.44,11.87c-.28.89-.88,2.08.08,2.71s1.73-.37,2.45-.91a65.12,65.12,0,0,0,8.14-7.7c2.88-3,5.66-6.17,8.79-9,.53-.47,1.11-.9,1.67-1.33a.52.52,0,0,1,.62-.08c.2.16.13.41,0,.62-.24.52-.46,1.06-.73,1.57-1.72,3.12-3.71,6.08-5.73,9s-3.91,5.61-5.86,8.42l.25.23c7.06-6.61,14.06-13.29,20.66-20.42a33.7,33.7,0,0,1-1.78,3.85c-2.5,4.87-5.23,9.6-8.07,14.28-.13,0-.26.11-.08.25C303.66-106.55,303.76-106.67,303.82-106.73Zm-1.9,35.42c-.38.27-.59.51-.45.92C301.83-70.54,302-70.79,301.92-71.31Zm61.94-1-.09-.22s-.09.07-.08.09a.83.83,0,0,0,.08.22Zm-85.74-1.1c.07,0,.18-.06.19-.11s0-.23-.17-.16a2.26,2.26,0,0,0-.2.13ZM292.68-127l0,.07h.05ZM247-2.16,247-2.24s-.07.05-.07.07,0,.06.06.09Zm-8.36-.33,0,.08h.07ZM434.88-72.95l0-.07h-.06Zm-62.22,1.83-.06-.08s-.07,0-.07.08,0,.05.06.08ZM398.35-105l-.09-.11s-.08.06-.08.09.05.07.07.1Zm6.86,30.66,0,.09h.08Z"/></svg>