<svg xmlns="http://www.w3.org/2000/svg" xmlns:xlink="http://www.w3.org/1999/xlink" viewBox="0 0 260 168"><defs><style>.cls-1{fill:#f4a947;}.cls-2{fill:#935018;}.cls-3{fill:#893f03;}.cls-4{fill:#e5b177;}.cls-21,.cls-23,.cls-25,.cls-41,.cls-5,.cls-54{fill:none;}.cls-6{fill:#cc8244;}.cls-7{fill:#ffebdc;}.cls-8{fill:#77b219;}.cls-9{clip-path:url(#clip-path);}.cls-10{fill:#f98e0d;}.cls-11{fill:#ffc988;}.cls-12{fill:#b5e52d;}.cls-13{fill:#772a1e;}.cls-14{fill:#8e3f2f;}.cls-15{fill:#513418;}.cls-16{clip-path:url(#clip-path-2);}.cls-17{fill:#5f81ce;}.cls-18{fill:#7398d8;}.cls-19{fill:#4169af;}.cls-20{clip-path:url(#clip-path-3);}.cls-21,.cls-23,.cls-25{stroke:#77706f;}.cls-21,.cls-23,.cls-25,.cls-54{stroke-miterlimit:10;}.cls-21{stroke-width:0.34px;}.cls-22{clip-path:url(#clip-path-4);}.cls-23{stroke-width:0.31px;}.cls-24{clip-path:url(#clip-path-5);}.cls-25{stroke-width:0.11px;}.cls-26{fill:#6d3105;}.cls-27{fill:#9b352d;}.cls-28{fill:#701a13;}.cls-29{fill:#a55d1b;}.cls-30{fill:#703301;}.cls-31{fill:#3a1b07;}.cls-32{clip-path:url(#clip-path-6);}.cls-33{fill:#60300c;}.cls-34{clip-path:url(#clip-path-7);}.cls-35{fill:#dd9762;}.cls-36{clip-path:url(#clip-path-8);}.cls-37{clip-path:url(#clip-path-9);}.cls-38{clip-path:url(#clip-path-10);}.cls-39{fill:#ddc6b8;}.cls-40{clip-path:url(#clip-path-11);}.cls-41{stroke:#e29b5a;stroke-linecap:round;stroke-linejoin:round;stroke-width:0.72px;}.cls-42{fill:#eaeaea;}.cls-43{fill:#bababa;}.cls-44{clip-path:url(#clip-path-12);}.cls-45{fill:#6d3003;}.cls-46{fill:#421e05;}.cls-47{clip-path:url(#clip-path-13);}.cls-48{fill:#f4c57a;}.cls-49{fill:#774013;}.cls-50{opacity:0.4;}.cls-51{fill:#37b34a;}.cls-52{fill:#441d00;}.cls-53{fill:#afafaf;}.cls-54{stroke:#441d00;}</style><clipPath id="clip-path"><path class="cls-1" d="M103.52,129a30.64,30.64,0,0,1,7.77-.47,17.36,17.36,0,0,0-7.75-2.33,15.41,15.41,0,0,1,4.65-1.34,15.07,15.07,0,0,0-7.17-.8l1.43-2.19a13.41,13.41,0,0,0-3.17,1.05,5.69,5.69,0,0,0-4.22-3.24l.8,1.83A10.3,10.3,0,0,0,86,120l1.92,1.68a8.23,8.23,0,0,0-5.53,2.2l1,.75a7.46,7.46,0,0,0-6.61,3.5,7.86,7.86,0,0,1,3.9-.43,4.11,4.11,0,0,0-2.89,2.48,7.15,7.15,0,0,1,3.73,0,6.85,6.85,0,0,0-1.71,1.15,31.15,31.15,0,0,1,4.73-.2,4.75,4.75,0,0,0-.82,1.12l2-.37a.58.58,0,0,1,.37,0c.11.07.13.26,0,.31l2.37-.1a2.64,2.64,0,0,1-.09,1.28c1-.29,2.13-.52,3.2-.71l-.16.89,1.53-.82,1.9.37c.72.15,1.84-.08,1.65-.79a13.16,13.16,0,0,0,3,.7,1.57,1.57,0,0,0-.55-1,19.53,19.53,0,0,1,5.55.53L103,131.38a38,38,0,0,1,7.07.56Z"/></clipPath><clipPath id="clip-path-2"><path class="cls-1" d="M202,129a30.64,30.64,0,0,1,7.77-.47,17.36,17.36,0,0,0-7.75-2.33,15.33,15.33,0,0,1,4.65-1.34,15.08,15.08,0,0,0-7.17-.8c.48-.73,1-1.46,1.42-2.19a13.72,13.72,0,0,0-3.17,1.05,5.67,5.67,0,0,0-4.21-3.24c.26.61.53,1.22.8,1.83a10.3,10.3,0,0,0-9.88-1.5l1.92,1.68a8.27,8.27,0,0,0-5.54,2.2l1,.75a7.45,7.45,0,0,0-6.61,3.5,7.86,7.86,0,0,1,3.9-.43,4.11,4.11,0,0,0-2.89,2.48,7.15,7.15,0,0,1,3.73,0,6.85,6.85,0,0,0-1.71,1.15,31.15,31.15,0,0,1,4.73-.2,4.75,4.75,0,0,0-.82,1.12l2-.37a.61.61,0,0,1,.38,0c.1.07.13.26,0,.31l2.38-.1a2.64,2.64,0,0,1-.09,1.28c1-.29,2.12-.52,3.2-.71l-.16.89,1.53-.82,1.9.37c.72.15,1.84-.08,1.65-.79a13.2,13.2,0,0,0,3,.7,1.52,1.52,0,0,0-.54-1,19.56,19.56,0,0,1,5.55.53l-1.56-1.16a38.1,38.1,0,0,1,7.07.56Z"/></clipPath><clipPath id="clip-path-3"><rect class="cls-5" x="63.97" y="60.17" width="89.58" height="75.99"/></clipPath><clipPath id="clip-path-4"><rect class="cls-5" x="151.48" y="60.17" width="76.82" height="75.99"/></clipPath><clipPath id="clip-path-5"><rect class="cls-5" x="135.97" y="50.43" width="89.58" height="8.22"/></clipPath><clipPath id="clip-path-6"><rect class="cls-2" x="36.83" y="100.42" width="44.29" height="35.1"/></clipPath><clipPath id="clip-path-7"><rect class="cls-6" x="85.41" y="60.56" width="4.92" height="77.03"/></clipPath><clipPath id="clip-path-8"><rect class="cls-6" x="150.42" y="60.56" width="4.92" height="77.03"/></clipPath><clipPath id="clip-path-9"><rect class="cls-6" x="219.5" y="63.52" width="4.92" height="74.07"/></clipPath><clipPath id="clip-path-10"><rect class="cls-7" x="28.87" y="135.21" width="205.84" height="6.67" rx="2.17"/></clipPath><clipPath id="clip-path-11"><rect class="cls-2" x="36.81" y="69.45" width="44.31" height="28.75" rx="1.26"/></clipPath><clipPath id="clip-path-12"><rect class="cls-3" x="28.52" y="57.52" width="207.15" height="4.76" rx="1.61" transform="translate(-1.12 2.52) rotate(-1.09)"/></clipPath><clipPath id="clip-path-13"><path class="cls-4" d="M190.56,47.21S38.61,48.78,37.34,48.78L16.85,59.55c-1.43.9-1.84,1.1-1.82,1.58s1.2.86,2.64.79A4.4,4.4,0,0,0,20,61.31a3.57,3.57,0,0,0,2.52.56,3.74,3.74,0,0,0,2.43-.75c.17.45,1.27.76,2.6.7a3.86,3.86,0,0,0,2.43-.75c.17.45,1.27.76,2.6.7A3.86,3.86,0,0,0,35,61c.17.45,1.27.75,2.6.69A3.76,3.76,0,0,0,40,61c.17.46,1.27.76,2.6.7A3.82,3.82,0,0,0,45,60.91c.17.45,1.27.76,2.6.7a3.89,3.89,0,0,0,2.43-.75c.17.45,1.27.76,2.6.69a3.83,3.83,0,0,0,2.43-.74c.17.45,1.27.75,2.6.69a3.76,3.76,0,0,0,2.43-.75c.17.45,1.27.76,2.6.7a3.89,3.89,0,0,0,2.43-.75c.17.45,1.27.76,2.6.69a3.83,3.83,0,0,0,2.43-.74c.17.45,1.27.75,2.6.69a3.76,3.76,0,0,0,2.43-.75c.16.45,1.27.76,2.6.7s2.58-.53,2.55-1a.46.46,0,0,0-.2-.33h.26s0,0,0,0c.17.48,1.4.48,2.75,0s2.24-1.2,2.14-1.68A4.87,4.87,0,0,0,87.55,58c1.21-.4,2.11-1,2.19-1.51a4.52,4.52,0,0,0,2.33,0c1.36-.29,2.37-.91,2.34-1.4a4.87,4.87,0,0,0,5-.35,3.53,3.53,0,0,0,2.45.87,4.42,4.42,0,0,0,2.32-.32,3.76,3.76,0,0,0,2.26,1.15,5.49,5.49,0,0,0,2,.12,4.05,4.05,0,0,0,2.18,1.2A6.24,6.24,0,0,0,112,58a3.73,3.73,0,0,0,2.21,1.26,5.59,5.59,0,0,0,1.84.22,7,7,0,0,0,1.5.1,4.43,4.43,0,0,0,2.29-.62,3.56,3.56,0,0,0,2.53.56,3.77,3.77,0,0,0,2.42-.74c.17.45,1.28.75,2.61.69a3.71,3.71,0,0,0,2.42-.75c.17.45,1.28.76,2.61.7a3.83,3.83,0,0,0,2.42-.75c.17.45,1.27.76,2.61.7a3.83,3.83,0,0,0,2.42-.75c.17.45,1.27.75,2.61.69a3.77,3.77,0,0,0,2.42-.74c.17.45,1.27.75,2.61.69A3.77,3.77,0,0,0,150,58.5c.17.45,1.27.76,2.61.7a3.83,3.83,0,0,0,2.42-.75c.17.45,1.27.76,2.61.69A3.77,3.77,0,0,0,160,58.4c.17.45,1.27.75,2.61.69a3.74,3.74,0,0,0,2.43-.76c.21.46,1.71.75,3.55.66s3.52-.57,3.5-1.08l0,0Z"/></clipPath></defs><g id="Layer_1" data-name="Layer 1"><path class="cls-8" d="M30.77,135s-15.87,3.4-10.32-4.67,11.28-.57,11.28-.57-5.61-5.07-.44-8.54,10.22-1,8.51,5.07c0,0,4.19-9.93,11.75-3.5,4.27,3.64-5,6.22-5,6.22s10.69-3.3,11.2,3.71-19.12,2.3-19.12,2.3Z"/><path class="cls-1" d="M103.52,129a30.64,30.64,0,0,1,7.77-.47,17.36,17.36,0,0,0-7.75-2.33,15.41,15.41,0,0,1,4.65-1.34,15.07,15.07,0,0,0-7.17-.8l1.43-2.19a13.41,13.41,0,0,0-3.17,1.05,5.69,5.69,0,0,0-4.22-3.24l.8,1.83A10.3,10.3,0,0,0,86,120l1.92,1.68a8.23,8.23,0,0,0-5.53,2.2l1,.75a7.46,7.46,0,0,0-6.61,3.5,7.86,7.86,0,0,1,3.9-.43,4.11,4.11,0,0,0-2.89,2.48,7.15,7.15,0,0,1,3.73,0,6.85,6.85,0,0,0-1.71,1.15,31.15,31.15,0,0,1,4.73-.2,4.75,4.75,0,0,0-.82,1.12l2-.37a.58.58,0,0,1,.37,0c.11.07.13.26,0,.31l2.37-.1a2.64,2.64,0,0,1-.09,1.28c1-.29,2.13-.52,3.2-.71l-.16.89,1.53-.82,1.9.37c.72.15,1.84-.08,1.65-.79a13.16,13.16,0,0,0,3,.7,1.57,1.57,0,0,0-.55-1,19.53,19.53,0,0,1,5.55.53L103,131.38a38,38,0,0,1,7.07.56Z"/><g class="cls-9"><path class="cls-10" d="M76.1,128.38a33.53,33.53,0,0,1,6.12-1.95,9.42,9.42,0,0,0-2.62,2.68,12.85,12.85,0,0,0,3-.29L82,129.89l2.2-.61-.84,1.12a14.13,14.13,0,0,0,3.64-.82,4,4,0,0,0-1.43,1.61,7.23,7.23,0,0,1,3.91-.73,8.44,8.44,0,0,0-1.68.95,12.1,12.1,0,0,1,2.73-.47,1.76,1.76,0,0,0-.4,1.18,1.68,1.68,0,0,1,1.44-.75l-.13.81a3.22,3.22,0,0,1,1.47-.93,3.48,3.48,0,0,0,3.09.93A1.62,1.62,0,0,0,95,131c1.34.14,2.67.35,4,.62l-2-1.3,4.59.6a8.31,8.31,0,0,0-2.88-1.29c4.59-.53,9.14,1,13.53,2.41l-7.79,4.32a14.52,14.52,0,0,1-5.43,2.1,14.39,14.39,0,0,1-4.51-.52A110.93,110.93,0,0,0,83,135.8c-3.59-.41-7.49-.61-10.26-2.92a1.18,1.18,0,0,1-.39-.47,1.31,1.31,0,0,1,0-.68c.18-1,.59-2.26,1.62-2.4"/><path class="cls-11" d="M85.23,119.72c1.08,0,2.17,0,3.25.15a9,9,0,0,1,2.14.4A10.74,10.74,0,0,1,93.53,122a11.17,11.17,0,0,1,2,1.76,3.9,3.9,0,0,0-.23-1.94l2.29,1.38-.71-1.52a6,6,0,0,1,2.62,2.2,5.71,5.71,0,0,1,2-1.16,12.91,12.91,0,0,0-1.8,2.24,25.24,25.24,0,0,1,10.66.62c-.63-2.22-2.58-3.82-4.59-5a39.14,39.14,0,0,0-5.41-2.42,23.66,23.66,0,0,0-4.87-1.43,24.66,24.66,0,0,0-5.63,0,40.73,40.73,0,0,0-4.12.54,5.24,5.24,0,0,0-2.64,1.14"/></g><path class="cls-12" d="M100.87,131.49s-5.77,1.24-3.75-1.69,4.1-.21,4.1-.21-2-1.84-.16-3.1,3.72-.35,3.1,1.84c0,0,1.52-3.61,4.27-1.27,1.55,1.32-1.83,2.26-1.83,2.26s3.88-1.2,4.06,1.35-6.94.83-6.94.83Z"/><rect class="cls-13" x="35.86" y="60.45" width="193.45" height="6.14"/><rect class="cls-14" x="214.7" y="60.56" width="5.08" height="78.46"/><rect class="cls-14" x="143.54" y="60.56" width="5.08" height="78.46"/><rect class="cls-15" x="33.32" y="130.71" width="197.9" height="7.68"/><rect class="cls-14" x="33.27" y="60.56" width="59.77" height="78.46"/><path class="cls-1" d="M202,129a30.64,30.64,0,0,1,7.77-.47,17.36,17.36,0,0,0-7.75-2.33,15.33,15.33,0,0,1,4.65-1.34,15.08,15.08,0,0,0-7.17-.8c.48-.73,1-1.46,1.42-2.19a13.72,13.72,0,0,0-3.17,1.05,5.67,5.67,0,0,0-4.21-3.24c.26.61.53,1.22.8,1.83a10.3,10.3,0,0,0-9.88-1.5l1.92,1.68a8.27,8.27,0,0,0-5.54,2.2l1,.75a7.45,7.45,0,0,0-6.61,3.5,7.86,7.86,0,0,1,3.9-.43,4.11,4.11,0,0,0-2.89,2.48,7.15,7.15,0,0,1,3.73,0,6.85,6.85,0,0,0-1.71,1.15,31.15,31.15,0,0,1,4.73-.2,4.75,4.75,0,0,0-.82,1.12l2-.37a.61.61,0,0,1,.38,0c.1.07.13.26,0,.31l2.38-.1a2.64,2.64,0,0,1-.09,1.28c1-.29,2.12-.52,3.2-.71l-.16.89,1.53-.82,1.9.37c.72.15,1.84-.08,1.65-.79a13.2,13.2,0,0,0,3,.7,1.52,1.52,0,0,0-.54-1,19.56,19.56,0,0,1,5.55.53l-1.56-1.16a38.1,38.1,0,0,1,7.07.56Z"/><g class="cls-16"><path class="cls-10" d="M174.59,128.38a33.53,33.53,0,0,1,6.12-1.95,9.42,9.42,0,0,0-2.62,2.68,12.9,12.9,0,0,0,3-.29l-.61,1.07,2.19-.61-.83,1.12a14.23,14.23,0,0,0,3.64-.82,4,4,0,0,0-1.44,1.61,7.29,7.29,0,0,1,3.92-.73,8.44,8.44,0,0,0-1.68.95,12,12,0,0,1,2.73-.47,1.71,1.71,0,0,0-.4,1.18,1.65,1.65,0,0,1,1.44-.75l-.13.81a3.22,3.22,0,0,1,1.47-.93,3.48,3.48,0,0,0,3.09.93,1.62,1.62,0,0,0-.94-1.21c1.34.14,2.67.35,4,.62l-2-1.3,4.6.6a8.31,8.31,0,0,0-2.88-1.29c4.59-.53,9.14,1,13.52,2.41L203,136.33a10.81,10.81,0,0,1-9.94,1.58,110.75,110.75,0,0,0-11.56-2.11c-3.59-.41-7.49-.61-10.26-2.92a1.18,1.18,0,0,1-.39-.47,1.31,1.31,0,0,1,0-.68c.18-1,.59-2.26,1.61-2.4"/><path class="cls-11" d="M183.72,119.72c1.08,0,2.17,0,3.25.15a9.18,9.18,0,0,1,2.14.4,16.22,16.22,0,0,1,4.9,3.48,3.9,3.9,0,0,0-.22-1.94l2.28,1.38-.7-1.52a6,6,0,0,1,2.61,2.2,5.8,5.8,0,0,1,2-1.16,12.85,12.85,0,0,0-1.79,2.24,25.26,25.26,0,0,1,10.66.62c-.64-2.22-2.58-3.82-4.59-5a39.68,39.68,0,0,0-5.41-2.42,23.84,23.84,0,0,0-4.87-1.43,24.66,24.66,0,0,0-5.63,0,40.73,40.73,0,0,0-4.12.54,5.24,5.24,0,0,0-2.64,1.14"/></g><rect class="cls-17" x="194.1" y="122.68" width="30.76" height="13.69"/><rect class="cls-18" x="195.72" y="124.33" width="1.67" height="10.24" rx="0.83"/><rect class="cls-19" x="192.55" y="120.91" width="31.15" height="2.44"/><g class="cls-20"><line class="cls-21" x1="152.87" y1="60.17" x2="283.59" y2="136.46"/><line class="cls-21" x1="146.89" y1="60.17" x2="277.61" y2="136.46"/><line class="cls-21" x1="140.91" y1="60.17" x2="271.63" y2="136.46"/><line class="cls-21" x1="134.92" y1="60.17" x2="265.65" y2="136.46"/><line class="cls-21" x1="128.94" y1="60.17" x2="259.66" y2="136.46"/><line class="cls-21" x1="122.96" y1="60.17" x2="253.68" y2="136.46"/><line class="cls-21" x1="116.98" y1="60.17" x2="247.7" y2="136.46"/><line class="cls-21" x1="111" y1="60.17" x2="241.72" y2="136.46"/><line class="cls-21" x1="105.02" y1="60.17" x2="235.74" y2="136.46"/><line class="cls-21" x1="99.03" y1="60.17" x2="229.76" y2="136.46"/><line class="cls-21" x1="93.05" y1="60.17" x2="223.77" y2="136.46"/><line class="cls-21" x1="87.07" y1="60.17" x2="217.79" y2="136.46"/><line class="cls-21" x1="81.09" y1="60.17" x2="211.81" y2="136.46"/><line class="cls-21" x1="75.11" y1="60.17" x2="205.83" y2="136.46"/><line class="cls-21" x1="69.12" y1="60.17" x2="199.85" y2="136.46"/><line class="cls-21" x1="63.14" y1="60.17" x2="193.87" y2="136.46"/><line class="cls-21" x1="57.16" y1="60.17" x2="187.88" y2="136.46"/><line class="cls-21" x1="51.18" y1="60.17" x2="181.9" y2="136.46"/><line class="cls-21" x1="45.2" y1="60.17" x2="175.92" y2="136.46"/><line class="cls-21" x1="39.22" y1="60.17" x2="169.94" y2="136.46"/><line class="cls-21" x1="33.23" y1="60.17" x2="163.96" y2="136.46"/><line class="cls-21" x1="27.25" y1="60.17" x2="157.98" y2="136.46"/><line class="cls-21" x1="21.27" y1="60.17" x2="151.99" y2="136.46"/><line class="cls-21" x1="15.29" y1="60.17" x2="146.01" y2="136.46"/><line class="cls-21" x1="9.31" y1="60.17" x2="140.03" y2="136.46"/><line class="cls-21" x1="3.33" y1="60.17" x2="134.05" y2="136.46"/><line class="cls-21" x1="-2.66" y1="60.17" x2="128.07" y2="136.46"/><line class="cls-21" x1="-8.64" y1="60.17" x2="122.08" y2="136.46"/><line class="cls-21" x1="-14.62" y1="60.17" x2="116.1" y2="136.46"/><line class="cls-21" x1="-20.6" y1="60.17" x2="110.12" y2="136.46"/><line class="cls-21" x1="-26.58" y1="60.17" x2="104.14" y2="136.46"/><line class="cls-21" x1="-32.56" y1="60.17" x2="98.16" y2="136.46"/><line class="cls-21" x1="-38.55" y1="60.17" x2="92.18" y2="136.46"/><line class="cls-21" x1="-44.53" y1="60.17" x2="86.19" y2="136.46"/><line class="cls-21" x1="-50.51" y1="60.17" x2="80.21" y2="136.46"/><line class="cls-21" x1="-56.49" y1="60.17" x2="74.23" y2="136.46"/><line class="cls-21" x1="-62.47" y1="60.17" x2="68.25" y2="136.46"/><line class="cls-21" x1="-68.46" y1="60.17" x2="62.27" y2="136.46"/><line class="cls-21" x1="62.27" y1="60.17" x2="-68.46" y2="136.46"/><line class="cls-21" x1="68.25" y1="60.17" x2="-62.47" y2="136.46"/><line class="cls-21" x1="74.23" y1="60.17" x2="-56.49" y2="136.46"/><line class="cls-21" x1="80.21" y1="60.17" x2="-50.51" y2="136.46"/><line class="cls-21" x1="86.19" y1="60.17" x2="-44.53" y2="136.46"/><line class="cls-21" x1="92.18" y1="60.17" x2="-38.55" y2="136.46"/><line class="cls-21" x1="98.16" y1="60.17" x2="-32.56" y2="136.46"/><line class="cls-21" x1="104.14" y1="60.17" x2="-26.58" y2="136.46"/><line class="cls-21" x1="110.12" y1="60.17" x2="-20.6" y2="136.46"/><line class="cls-21" x1="116.1" y1="60.17" x2="-14.62" y2="136.46"/><line class="cls-21" x1="122.08" y1="60.17" x2="-8.64" y2="136.46"/><line class="cls-21" x1="128.07" y1="60.17" x2="-2.66" y2="136.46"/><line class="cls-21" x1="134.05" y1="60.17" x2="3.33" y2="136.46"/><line class="cls-21" x1="140.03" y1="60.17" x2="9.31" y2="136.46"/><line class="cls-21" x1="146.01" y1="60.17" x2="15.29" y2="136.46"/><line class="cls-21" x1="151.99" y1="60.17" x2="21.27" y2="136.46"/><line class="cls-21" x1="157.98" y1="60.17" x2="27.25" y2="136.46"/><line class="cls-21" x1="163.96" y1="60.17" x2="33.23" y2="136.46"/><line class="cls-21" x1="169.94" y1="60.17" x2="39.22" y2="136.46"/><line class="cls-21" x1="175.92" y1="60.17" x2="45.2" y2="136.46"/><line class="cls-21" x1="181.9" y1="60.17" x2="51.18" y2="136.46"/><line class="cls-21" x1="187.88" y1="60.17" x2="57.16" y2="136.46"/><line class="cls-21" x1="193.87" y1="60.17" x2="63.14" y2="136.46"/><line class="cls-21" x1="199.85" y1="60.17" x2="69.12" y2="136.46"/><line class="cls-21" x1="205.83" y1="60.17" x2="75.11" y2="136.46"/><line class="cls-21" x1="211.81" y1="60.17" x2="81.09" y2="136.46"/><line class="cls-21" x1="217.79" y1="60.17" x2="87.07" y2="136.46"/><line class="cls-21" x1="223.77" y1="60.17" x2="93.05" y2="136.46"/><line class="cls-21" x1="229.76" y1="60.17" x2="99.03" y2="136.46"/><line class="cls-21" x1="235.74" y1="60.17" x2="105.02" y2="136.46"/><line class="cls-21" x1="241.72" y1="60.17" x2="111" y2="136.46"/><line class="cls-21" x1="247.7" y1="60.17" x2="116.98" y2="136.46"/><line class="cls-21" x1="253.68" y1="60.17" x2="122.96" y2="136.46"/><line class="cls-21" x1="259.66" y1="60.17" x2="128.94" y2="136.46"/><line class="cls-21" x1="265.65" y1="60.17" x2="134.92" y2="136.46"/><line class="cls-21" x1="271.63" y1="60.17" x2="140.91" y2="136.46"/><line class="cls-21" x1="277.61" y1="60.17" x2="146.89" y2="136.46"/><line class="cls-21" x1="283.59" y1="60.17" x2="152.87" y2="136.46"/></g><g class="cls-22"><line class="cls-23" x1="227.72" y1="60.17" x2="339.83" y2="136.46"/><line class="cls-23" x1="222.59" y1="60.17" x2="334.7" y2="136.46"/><line class="cls-23" x1="217.46" y1="60.17" x2="329.57" y2="136.46"/><line class="cls-23" x1="212.33" y1="60.17" x2="324.44" y2="136.46"/><line class="cls-23" x1="207.2" y1="60.17" x2="319.31" y2="136.46"/><line class="cls-23" x1="202.07" y1="60.17" x2="314.18" y2="136.46"/><line class="cls-23" x1="196.94" y1="60.17" x2="309.05" y2="136.46"/><line class="cls-23" x1="191.81" y1="60.17" x2="303.92" y2="136.46"/><line class="cls-23" x1="186.68" y1="60.17" x2="298.79" y2="136.46"/><line class="cls-23" x1="181.55" y1="60.17" x2="293.66" y2="136.46"/><line class="cls-23" x1="176.42" y1="60.17" x2="288.53" y2="136.46"/><line class="cls-23" x1="171.29" y1="60.17" x2="283.4" y2="136.46"/><line class="cls-23" x1="166.17" y1="60.17" x2="278.27" y2="136.46"/><line class="cls-23" x1="161.04" y1="60.17" x2="273.14" y2="136.46"/><line class="cls-23" x1="155.91" y1="60.17" x2="268.01" y2="136.46"/><line class="cls-23" x1="150.78" y1="60.17" x2="262.88" y2="136.46"/><line class="cls-23" x1="145.65" y1="60.17" x2="257.75" y2="136.46"/><line class="cls-23" x1="140.52" y1="60.17" x2="252.62" y2="136.46"/><line class="cls-23" x1="135.39" y1="60.17" x2="247.49" y2="136.46"/><line class="cls-23" x1="130.26" y1="60.17" x2="242.36" y2="136.46"/><line class="cls-23" x1="125.13" y1="60.17" x2="237.23" y2="136.46"/><line class="cls-23" x1="120" y1="60.17" x2="232.1" y2="136.46"/><line class="cls-23" x1="114.87" y1="60.17" x2="226.97" y2="136.46"/><line class="cls-23" x1="109.74" y1="60.17" x2="221.84" y2="136.46"/><line class="cls-23" x1="104.61" y1="60.17" x2="216.71" y2="136.46"/><line class="cls-23" x1="99.48" y1="60.17" x2="211.58" y2="136.46"/><line class="cls-23" x1="94.35" y1="60.17" x2="206.45" y2="136.46"/><line class="cls-23" x1="89.22" y1="60.17" x2="201.32" y2="136.46"/><line class="cls-23" x1="84.09" y1="60.17" x2="196.19" y2="136.46"/><line class="cls-23" x1="78.96" y1="60.17" x2="191.06" y2="136.46"/><line class="cls-23" x1="73.83" y1="60.17" x2="185.93" y2="136.46"/><line class="cls-23" x1="68.7" y1="60.17" x2="180.8" y2="136.46"/><line class="cls-23" x1="63.57" y1="60.17" x2="175.67" y2="136.46"/><line class="cls-23" x1="58.44" y1="60.17" x2="170.54" y2="136.46"/><line class="cls-23" x1="53.31" y1="60.17" x2="165.41" y2="136.46"/><line class="cls-23" x1="48.18" y1="60.17" x2="160.28" y2="136.46"/><line class="cls-23" x1="43.05" y1="60.17" x2="155.15" y2="136.46"/><line class="cls-23" x1="37.92" y1="60.17" x2="150.03" y2="136.46"/><line class="cls-23" x1="150.03" y1="60.17" x2="37.92" y2="136.46"/><line class="cls-23" x1="155.15" y1="60.17" x2="43.05" y2="136.46"/><line class="cls-23" x1="160.28" y1="60.17" x2="48.18" y2="136.46"/><line class="cls-23" x1="165.41" y1="60.17" x2="53.31" y2="136.46"/><line class="cls-23" x1="170.54" y1="60.17" x2="58.44" y2="136.46"/><line class="cls-23" x1="175.67" y1="60.17" x2="63.57" y2="136.46"/><line class="cls-23" x1="180.8" y1="60.17" x2="68.7" y2="136.46"/><line class="cls-23" x1="185.93" y1="60.17" x2="73.83" y2="136.46"/><line class="cls-23" x1="191.06" y1="60.17" x2="78.96" y2="136.46"/><line class="cls-23" x1="196.19" y1="60.17" x2="84.09" y2="136.46"/><line class="cls-23" x1="201.32" y1="60.17" x2="89.22" y2="136.46"/><line class="cls-23" x1="206.45" y1="60.17" x2="94.35" y2="136.46"/><line class="cls-23" x1="211.58" y1="60.17" x2="99.48" y2="136.46"/><line class="cls-23" x1="216.71" y1="60.17" x2="104.61" y2="136.46"/><line class="cls-23" x1="221.84" y1="60.17" x2="109.74" y2="136.46"/><line class="cls-23" x1="226.97" y1="60.17" x2="114.87" y2="136.46"/><line class="cls-23" x1="232.1" y1="60.17" x2="120" y2="136.46"/><line class="cls-23" x1="237.23" y1="60.17" x2="125.13" y2="136.46"/><line class="cls-23" x1="242.36" y1="60.17" x2="130.26" y2="136.46"/><line class="cls-23" x1="247.49" y1="60.17" x2="135.39" y2="136.46"/><line class="cls-23" x1="252.62" y1="60.17" x2="140.52" y2="136.46"/><line class="cls-23" x1="257.75" y1="60.17" x2="145.65" y2="136.46"/><line class="cls-23" x1="262.88" y1="60.17" x2="150.78" y2="136.46"/><line class="cls-23" x1="268.01" y1="60.17" x2="155.91" y2="136.46"/><line class="cls-23" x1="273.14" y1="60.17" x2="161.04" y2="136.46"/><line class="cls-23" x1="278.27" y1="60.17" x2="166.17" y2="136.46"/><line class="cls-23" x1="283.4" y1="60.17" x2="171.29" y2="136.46"/><line class="cls-23" x1="288.53" y1="60.17" x2="176.42" y2="136.46"/><line class="cls-23" x1="293.66" y1="60.17" x2="181.55" y2="136.46"/><line class="cls-23" x1="298.79" y1="60.17" x2="186.68" y2="136.46"/><line class="cls-23" x1="303.92" y1="60.17" x2="191.81" y2="136.46"/><line class="cls-23" x1="309.05" y1="60.17" x2="196.94" y2="136.46"/><line class="cls-23" x1="314.18" y1="60.17" x2="202.07" y2="136.46"/><line class="cls-23" x1="319.31" y1="60.17" x2="207.2" y2="136.46"/><line class="cls-23" x1="324.44" y1="60.17" x2="212.33" y2="136.46"/><line class="cls-23" x1="329.57" y1="60.17" x2="217.46" y2="136.46"/><line class="cls-23" x1="334.7" y1="60.17" x2="222.59" y2="136.46"/><line class="cls-23" x1="339.83" y1="60.17" x2="227.72" y2="136.46"/></g><g class="cls-24"><line class="cls-25" x1="224.87" y1="50.43" x2="355.59" y2="58.68"/><line class="cls-25" x1="218.89" y1="50.43" x2="349.61" y2="58.68"/><line class="cls-25" x1="212.91" y1="50.43" x2="343.63" y2="58.68"/><line class="cls-25" x1="206.93" y1="50.43" x2="337.65" y2="58.68"/><line class="cls-25" x1="200.94" y1="50.43" x2="331.67" y2="58.68"/><line class="cls-25" x1="194.96" y1="50.43" x2="325.69" y2="58.68"/><line class="cls-25" x1="188.98" y1="50.43" x2="319.7" y2="58.68"/><line class="cls-25" x1="183" y1="50.43" x2="313.72" y2="58.68"/><line class="cls-25" x1="177.02" y1="50.43" x2="307.74" y2="58.68"/><line class="cls-25" x1="171.04" y1="50.43" x2="301.76" y2="58.68"/><line class="cls-25" x1="165.05" y1="50.43" x2="295.78" y2="58.68"/><line class="cls-25" x1="159.07" y1="50.43" x2="289.8" y2="58.68"/><line class="cls-25" x1="153.09" y1="50.43" x2="283.81" y2="58.68"/><line class="cls-25" x1="147.11" y1="50.43" x2="277.83" y2="58.68"/><line class="cls-25" x1="141.13" y1="50.43" x2="271.85" y2="58.68"/><line class="cls-25" x1="135.15" y1="50.43" x2="265.87" y2="58.68"/><line class="cls-25" x1="129.16" y1="50.43" x2="259.89" y2="58.68"/><line class="cls-25" x1="123.18" y1="50.43" x2="253.91" y2="58.68"/><line class="cls-25" x1="117.2" y1="50.43" x2="247.92" y2="58.68"/><line class="cls-25" x1="111.22" y1="50.43" x2="241.94" y2="58.68"/><line class="cls-25" x1="105.24" y1="50.43" x2="235.96" y2="58.68"/><line class="cls-25" x1="99.26" y1="50.43" x2="229.98" y2="58.68"/><line class="cls-25" x1="93.27" y1="50.43" x2="224" y2="58.68"/><line class="cls-25" x1="87.29" y1="50.43" x2="218.01" y2="58.68"/><line class="cls-25" x1="81.31" y1="50.43" x2="212.03" y2="58.68"/><line class="cls-25" x1="75.33" y1="50.43" x2="206.05" y2="58.68"/><line class="cls-25" x1="69.35" y1="50.43" x2="200.07" y2="58.68"/><line class="cls-25" x1="63.36" y1="50.43" x2="194.09" y2="58.68"/><line class="cls-25" x1="57.38" y1="50.43" x2="188.11" y2="58.68"/><line class="cls-25" x1="51.4" y1="50.43" x2="182.12" y2="58.68"/><line class="cls-25" x1="45.42" y1="50.43" x2="176.14" y2="58.68"/><line class="cls-25" x1="39.44" y1="50.43" x2="170.16" y2="58.68"/><line class="cls-25" x1="33.46" y1="50.43" x2="164.18" y2="58.68"/><line class="cls-25" x1="27.47" y1="50.43" x2="158.2" y2="58.68"/><line class="cls-25" x1="21.49" y1="50.43" x2="152.22" y2="58.68"/><line class="cls-25" x1="15.51" y1="50.43" x2="146.23" y2="58.68"/><line class="cls-25" x1="9.53" y1="50.43" x2="140.25" y2="58.68"/><line class="cls-25" x1="3.55" y1="50.43" x2="134.27" y2="58.68"/><line class="cls-25" x1="134.27" y1="50.43" x2="3.55" y2="58.68"/><line class="cls-25" x1="140.25" y1="50.43" x2="9.53" y2="58.68"/><line class="cls-25" x1="146.23" y1="50.43" x2="15.51" y2="58.68"/><line class="cls-25" x1="152.22" y1="50.43" x2="21.49" y2="58.68"/><line class="cls-25" x1="158.2" y1="50.43" x2="27.47" y2="58.68"/><line class="cls-25" x1="164.18" y1="50.43" x2="33.46" y2="58.68"/><line class="cls-25" x1="170.16" y1="50.43" x2="39.44" y2="58.68"/><line class="cls-25" x1="176.14" y1="50.43" x2="45.42" y2="58.68"/><line class="cls-25" x1="182.12" y1="50.43" x2="51.4" y2="58.68"/><line class="cls-25" x1="188.11" y1="50.43" x2="57.38" y2="58.68"/><line class="cls-25" x1="194.09" y1="50.43" x2="63.36" y2="58.68"/><line class="cls-25" x1="200.07" y1="50.43" x2="69.35" y2="58.68"/><line class="cls-25" x1="206.05" y1="50.43" x2="75.33" y2="58.68"/><line class="cls-25" x1="212.03" y1="50.43" x2="81.31" y2="58.68"/><line class="cls-25" x1="218.01" y1="50.43" x2="87.29" y2="58.68"/><line class="cls-25" x1="224" y1="50.43" x2="93.27" y2="58.68"/><line class="cls-25" x1="229.98" y1="50.43" x2="99.26" y2="58.68"/><line class="cls-25" x1="235.96" y1="50.43" x2="105.24" y2="58.68"/><line class="cls-25" x1="241.94" y1="50.43" x2="111.22" y2="58.68"/><line class="cls-25" x1="247.92" y1="50.43" x2="117.2" y2="58.68"/><line class="cls-25" x1="253.91" y1="50.43" x2="123.18" y2="58.68"/><line class="cls-25" x1="259.89" y1="50.43" x2="129.16" y2="58.68"/><line class="cls-25" x1="265.87" y1="50.43" x2="135.15" y2="58.68"/><line class="cls-25" x1="271.85" y1="50.43" x2="141.13" y2="58.68"/><line class="cls-25" x1="277.83" y1="50.43" x2="147.11" y2="58.68"/><line class="cls-25" x1="283.81" y1="50.43" x2="153.09" y2="58.68"/><line class="cls-25" x1="289.8" y1="50.43" x2="159.07" y2="58.68"/><line class="cls-25" x1="295.78" y1="50.43" x2="165.05" y2="58.68"/><line class="cls-25" x1="301.76" y1="50.43" x2="171.04" y2="58.68"/><line class="cls-25" x1="307.74" y1="50.43" x2="177.02" y2="58.68"/><line class="cls-25" x1="313.72" y1="50.43" x2="183" y2="58.68"/><line class="cls-25" x1="319.7" y1="50.43" x2="188.98" y2="58.68"/><line class="cls-25" x1="325.69" y1="50.43" x2="194.96" y2="58.68"/><line class="cls-25" x1="331.67" y1="50.43" x2="200.94" y2="58.68"/><line class="cls-25" x1="337.65" y1="50.43" x2="206.93" y2="58.68"/><line class="cls-25" x1="343.63" y1="50.43" x2="212.91" y2="58.68"/><line class="cls-25" x1="349.61" y1="50.43" x2="218.89" y2="58.68"/><line class="cls-25" x1="355.59" y1="50.43" x2="224.87" y2="58.68"/></g><polygon class="cls-26" points="234.19 55.55 218.09 56.64 218.08 52.86 234.18 52.79 234.19 55.55"/><polygon class="cls-27" points="190.56 47.21 198.82 49.76 180.07 50.39 190.56 47.21"/><rect class="cls-28" x="36.97" y="48.48" width="191.33" height="5.08" transform="translate(-0.21 0.56) rotate(-0.24)"/><rect class="cls-29" x="32.68" y="63.73" width="52.73" height="72.11"/><rect class="cls-30" x="221.86" y="63.73" width="10.31" height="72.11"/><rect class="cls-31" x="36.82" y="69.39" width="44.45" height="66.64"/><rect class="cls-2" x="36.83" y="100.42" width="44.29" height="35.1"/><g class="cls-32"><rect class="cls-33" x="39.67" y="98.04" width="0.71" height="42.33"/><rect class="cls-33" x="43.8" y="98.04" width="0.71" height="42.33"/><rect class="cls-33" x="47.93" y="98.04" width="0.71" height="42.33"/><rect class="cls-33" x="52.06" y="98.04" width="0.71" height="42.33"/><rect class="cls-33" x="56.19" y="98.04" width="0.71" height="42.33"/><rect class="cls-33" x="60.32" y="98.04" width="0.71" height="42.33"/><rect class="cls-33" x="64.45" y="98.04" width="0.71" height="42.33"/><rect class="cls-33" x="68.58" y="98.04" width="0.71" height="42.33"/><rect class="cls-33" x="72.71" y="98.04" width="0.71" height="42.33"/><rect class="cls-33" x="76.83" y="98.04" width="0.71" height="42.33"/></g><rect class="cls-6" x="85.41" y="60.56" width="4.92" height="77.03"/><g class="cls-34"><path class="cls-35" d="M89,79.26a10.41,10.41,0,0,1,.26,1.07,9.76,9.76,0,0,1-.09,1.32C89.05,84,91.15,86,91,88.38c1.35-1.28,1.43-3.37,1.36-5.22s0-4.76-1-6.44C89.83,74.43,88.7,77.89,89,79.26Z"/><path class="cls-35" d="M86.6,93.75l0,4.1a11.05,11.05,0,0,1-.31,3.3c-.52,1.69-1.85,3.15-1.83,4.92,0-4.56-.87-9-.61-13.62,0-.94-.21-4.89,1.62-4.08C86.87,89,86.59,92.55,86.6,93.75Z"/><path class="cls-35" d="M91.21,101.4a21.16,21.16,0,0,0-2,2.95,7.17,7.17,0,0,0-.89,2.09c-.27,1.35.12,2.76,0,4.13a5.35,5.35,0,0,0-.07,1.54,10.79,10.79,0,0,0,.68,1.57,7.84,7.84,0,0,1,.27,2.61A3.28,3.28,0,0,0,90,118.7a.57.57,0,0,0,.4.18c.31,0,.43-.42.46-.74a140.06,140.06,0,0,0,.5-14.91"/><path class="cls-35" d="M84.14,123.16c2,2.67.62,6.84,2.6,9.53l1.34-.33c-.09.71.68,1.27,1.4,1.3a7.73,7.73,0,0,0,2.1-.45,2,2,0,0,1,2,.42,2.37,2.37,0,0,1,.15,2.1A49.88,49.88,0,0,1,92.06,141a1.81,1.81,0,0,1-.56.88,1.85,1.85,0,0,1-1.5.07c-2.06-.49-4.12-1-6.18-1.56a3.82,3.82,0,0,1-1.63-.72c-.9-.81-.86-2.21-.72-3.42q.65-5.82,1.78-11.59"/></g><rect class="cls-6" x="150.42" y="60.56" width="4.92" height="77.03"/><g class="cls-36"><path class="cls-35" d="M154,79.26a8.27,8.27,0,0,1,.25,1.07,8.37,8.37,0,0,1-.09,1.32c-.13,2.34,2,4.39,1.78,6.73,1.35-1.28,1.42-3.37,1.36-5.22s0-4.76-1-6.44C154.84,74.43,153.71,77.89,154,79.26Z"/><path class="cls-35" d="M151.61,93.75l0,4.1a11,11,0,0,1-.3,3.3c-.52,1.69-1.85,3.15-1.83,4.92,0-4.56-.88-9-.61-13.62,0-.94-.21-4.89,1.62-4.08C151.88,89,151.59,92.55,151.61,93.75Z"/><path class="cls-35" d="M156.21,101.4a23,23,0,0,0-2,2.95,6.88,6.88,0,0,0-.88,2.09c-.28,1.35.11,2.76,0,4.13a5.72,5.72,0,0,0-.06,1.54,9.8,9.8,0,0,0,.68,1.57,7.84,7.84,0,0,1,.27,2.61,3.24,3.24,0,0,0,.85,2.41.57.57,0,0,0,.39.18c.32,0,.43-.42.46-.74a142.76,142.76,0,0,0,.51-14.91"/><path class="cls-35" d="M149.15,123.16c2,2.67.62,6.84,2.59,9.53l1.34-.33c-.09.71.69,1.27,1.41,1.3a7.73,7.73,0,0,0,2.1-.45,2,2,0,0,1,2,.42,2.4,2.4,0,0,1,.14,2.1,45.59,45.59,0,0,1-1.67,5.24,1.72,1.72,0,0,1-.55.88,1.86,1.86,0,0,1-1.5.07c-2.07-.49-4.13-1-6.18-1.56a3.76,3.76,0,0,1-1.63-.72c-.91-.81-.86-2.21-.73-3.42q.66-5.82,1.78-11.59"/></g><rect class="cls-6" x="219.5" y="63.52" width="4.92" height="74.07"/><g class="cls-37"><path class="cls-35" d="M223.11,81.51a7.36,7.36,0,0,1,.25,1,7.62,7.62,0,0,1-.08,1.26c-.14,2.25,2,4.23,1.77,6.47,1.35-1.22,1.43-3.23,1.36-5s0-4.57-1-6.19C223.92,76.86,222.79,80.19,223.11,81.51Z"/><path class="cls-35" d="M220.69,95.44l0,3.94a10.21,10.21,0,0,1-.31,3.17c-.52,1.63-1.85,3-1.83,4.73,0-4.38-.88-8.68-.61-13.09.05-.9-.21-4.71,1.62-3.93C221,90.85,220.68,94.28,220.69,95.44Z"/><path class="cls-35" d="M225.3,102.8a19.47,19.47,0,0,0-2,2.83,6.82,6.82,0,0,0-.89,2c-.28,1.3.12,2.65,0,4a4.94,4.94,0,0,0-.07,1.48,10.14,10.14,0,0,0,.68,1.51,7.24,7.24,0,0,1,.27,2.51,3,3,0,0,0,.85,2.32.6.6,0,0,0,.4.17c.31,0,.43-.41.46-.71a129.58,129.58,0,0,0,.5-14.34"/><path class="cls-35" d="M218.23,123.72c2,2.56.62,6.57,2.6,9.16l1.34-.32c-.1.68.68,1.23,1.4,1.25a8.09,8.09,0,0,0,2.1-.43,2,2,0,0,1,2,.4,2.22,2.22,0,0,1,.15,2,47.79,47.79,0,0,1-1.67,5,1.77,1.77,0,0,1-.56.85,1.94,1.94,0,0,1-1.5.06q-3.09-.7-6.18-1.5a3.89,3.89,0,0,1-1.63-.69c-.9-.78-.86-2.13-.72-3.28q.65-5.61,1.78-11.15"/></g><rect class="cls-7" x="28.87" y="135.21" width="205.84" height="6.67" rx="2.17"/><g class="cls-38"><rect class="cls-39" x="21.24" y="137.43" width="227.76" height="16.52"/></g><rect class="cls-2" x="36.81" y="69.45" width="44.31" height="28.75" rx="1.26"/><g class="cls-40"><polygon class="cls-33" points="30.92 87.74 93.6 91.28 93.28 89.55 28.3 85.27 30.92 87.74"/><polygon class="cls-33" points="90.98 78.82 28.21 80.09 28.59 78.38 93.69 76.44 90.98 78.82"/></g><line class="cls-41" x1="38.93" y1="70.27" x2="79.38" y2="70.27"/><rect class="cls-42" x="35.14" y="80.65" width="3.26" height="5.16"/><circle class="cls-43" cx="36.73" cy="81.47" r="0.45"/><circle class="cls-43" cx="36.73" cy="84.83" r="0.45"/><rect class="cls-33" x="36.82" y="98.15" width="44.47" height="1.59"/><rect class="cls-26" x="218.41" y="59.92" width="15.35" height="4.13" transform="translate(4.44 -14.37) rotate(3.68)"/><rect class="cls-3" x="28.52" y="57.52" width="207.15" height="4.76" rx="1.61" transform="translate(-1.12 2.52) rotate(-1.09)"/><g class="cls-44"><path class="cls-45" d="M46.93,63.21c4.85-.33,9.66-1.13,14.52-1.14,3.56,0,7.11.42,10.67.35,6.15-.12,12.16-1.69,18.26-2.41,9.85-1.17,19.82-.12,29.74.39,14.67.75,29.37.31,44-.13,5-.15,11-.85,13.29-5.17-.57,1.06-16.31-.62-18.2-.68q-9.37-.35-18.75-.64c-12.4-.38-24.81-.68-37.23-.8s-24.8-.06-37.2.26c-12.19.32-25.09,0-37.15,1.84-3.32.5-6.61,4.72-2.46,6.64,2.69,1.24,7,1.21,9.89,1.43A74.58,74.58,0,0,0,46.93,63.21Z"/></g><circle class="cls-46" cx="231.14" cy="58.17" r="0.79"/><circle class="cls-46" cx="30.77" cy="61.98" r="0.79"/><path class="cls-4" d="M190.56,47.21S38.61,48.78,37.34,48.78L16.85,59.55c-1.43.9-1.84,1.1-1.82,1.58s1.2.86,2.64.79A4.4,4.4,0,0,0,20,61.31a3.57,3.57,0,0,0,2.52.56,3.74,3.74,0,0,0,2.43-.75c.17.45,1.27.76,2.6.7a3.86,3.86,0,0,0,2.43-.75c.17.45,1.27.76,2.6.7A3.86,3.86,0,0,0,35,61c.17.45,1.27.75,2.6.69A3.76,3.76,0,0,0,40,61c.17.46,1.27.76,2.6.7A3.82,3.82,0,0,0,45,60.91c.17.45,1.27.76,2.6.7a3.89,3.89,0,0,0,2.43-.75c.17.45,1.27.76,2.6.69a3.83,3.83,0,0,0,2.43-.74c.17.45,1.27.75,2.6.69a3.76,3.76,0,0,0,2.43-.75c.17.45,1.27.76,2.6.7a3.89,3.89,0,0,0,2.43-.75c.17.45,1.27.76,2.6.69a3.83,3.83,0,0,0,2.43-.74c.17.45,1.27.75,2.6.69a3.76,3.76,0,0,0,2.43-.75c.16.45,1.27.76,2.6.7s2.58-.53,2.55-1a.46.46,0,0,0-.2-.33h.26s0,0,0,0c.17.48,1.4.48,2.75,0s2.24-1.2,2.14-1.68A4.87,4.87,0,0,0,87.55,58c1.21-.4,2.11-1,2.19-1.51a4.52,4.52,0,0,0,2.33,0c1.36-.29,2.37-.91,2.34-1.4a4.87,4.87,0,0,0,5-.35,3.53,3.53,0,0,0,2.45.87,4.42,4.42,0,0,0,2.32-.32,3.76,3.76,0,0,0,2.26,1.15,5.49,5.49,0,0,0,2,.12,4.05,4.05,0,0,0,2.18,1.2A6.24,6.24,0,0,0,112,58a3.73,3.73,0,0,0,2.21,1.26,5.59,5.59,0,0,0,1.84.22,7,7,0,0,0,1.5.1,4.43,4.43,0,0,0,2.29-.62,3.56,3.56,0,0,0,2.53.56,3.77,3.77,0,0,0,2.42-.74c.17.45,1.28.75,2.61.69a3.71,3.71,0,0,0,2.42-.75c.17.45,1.28.76,2.61.7a3.83,3.83,0,0,0,2.42-.75c.17.45,1.27.76,2.61.7a3.83,3.83,0,0,0,2.42-.75c.17.45,1.27.75,2.61.69a3.77,3.77,0,0,0,2.42-.74c.17.45,1.27.75,2.61.69A3.77,3.77,0,0,0,150,58.5c.17.45,1.27.76,2.61.7a3.83,3.83,0,0,0,2.42-.75c.17.45,1.27.76,2.61.69A3.77,3.77,0,0,0,160,58.4c.17.45,1.27.75,2.61.69a3.74,3.74,0,0,0,2.43-.76c.21.46,1.71.75,3.55.66s3.52-.57,3.5-1.08l0,0Z"/><g class="cls-47"><polygon class="cls-48" points="146.4 46 119.51 59.28 120.04 60.4 148.15 46.1 146.4 46"/><polygon class="cls-48" points="186.75 45.1 163.45 59.71 165.14 60.4 190.45 44.67 186.75 45.1"/><path class="cls-48" d="M177.64,46.58,154.87,60.13s-3.07.21-2.75,0,24.57-14.5,24.57-14.5Z"/></g><path class="cls-12" d="M58.58,143.64s-5.77,1.24-3.75-1.7,4.1-.21,4.1-.21-2-1.84-.16-3.1,3.71-.34,3.1,1.85c0,0,1.51-3.62,4.26-1.28,1.56,1.32-1.83,2.26-1.83,2.26s3.89-1.19,4.07,1.35-7,.84-7,.84Z"/><path class="cls-12" d="M81.41,145.84s-5.77,1.23-3.75-1.7,4.1-.21,4.1-.21-2-1.84-.16-3.1,3.71-.35,3.09,1.84c0,0,1.52-3.61,4.27-1.27,1.55,1.32-1.83,2.26-1.83,2.26S91,142.46,91.2,145s-7,.83-7,.83Z"/><path class="cls-12" d="M210.48,144.52s-5.77,1.24-3.75-1.7,4.1-.21,4.1-.21-2-1.84-.16-3.1,3.72-.35,3.1,1.84c0,0,1.52-3.61,4.27-1.27,1.55,1.32-1.83,2.26-1.83,2.26s3.88-1.2,4.06,1.35-6.94.84-6.94.84Z"/><path class="cls-49" d="M156.06,141c0,2.59-33.22,4.69-74.2,4.69S7.67,143.6,7.67,141c0-6.95,32.92-6.51,73.9-6.51S156.06,138.42,156.06,141Z"/><ellipse class="cls-49" cx="152.61" cy="143.42" rx="91.9" ry="4.69"/><ellipse class="cls-49" cx="133.08" cy="139" rx="114.88" ry="5.16"/><g class="cls-50"><path class="cls-51" d="M174.52,141.37s-2.06-.5-1.53-.59c0,0,1.47-.1,1.88.46a2.37,2.37,0,0,1,1.29-.59s1.05.09-.65.61c0,0,3.05-.22,2.88,0a22.9,22.9,0,0,0-2.82.19C175,141.61,174.81,141.58,174.52,141.37Z"/><path class="cls-51" d="M178.6,140.51s-2.06-.5-1.53-.6c0,0,1.47-.09,1.88.47a2.43,2.43,0,0,1,1.29-.6s1,.1-.65.62c0,0,3-.23,2.88,0a22.51,22.51,0,0,0-2.82.18A1.05,1.05,0,0,1,178.6,140.51Z"/><path class="cls-51" d="M175,139.5s-2.05-.5-1.52-.6c0,0,1.46-.09,1.87.47a2.48,2.48,0,0,1,1.29-.6s1.06.1-.64.62c0,0,3.05-.22,2.87,0a22.27,22.27,0,0,0-2.81.18A1,1,0,0,1,175,139.5Z"/><path class="cls-51" d="M183.81,139.86s-2.06-.5-1.53-.6c0,0,1.47-.09,1.88.47a2.43,2.43,0,0,1,1.29-.6s1.05.1-.65.62c0,0,3-.22,2.88,0a22.51,22.51,0,0,0-2.82.18C184.33,140.1,184.1,140.07,183.81,139.86Z"/><path class="cls-51" d="M187.21,138.92s-2.06-.5-1.53-.59c0,0,1.47-.09,1.88.46a2.45,2.45,0,0,1,1.29-.59s1.05.09-.65.61c0,0,3.05-.22,2.88,0a22.9,22.9,0,0,0-2.82.19A1,1,0,0,1,187.21,138.92Z"/><path class="cls-51" d="M180.6,139s-2-.51-1.52-.6c0,0,1.46-.09,1.87.47a2.48,2.48,0,0,1,1.29-.6s1.06.09-.64.61c0,0,3.05-.22,2.87,0a22.64,22.64,0,0,0-2.81.19A1.07,1.07,0,0,1,180.6,139Z"/><path class="cls-51" d="M187.47,140s-2.38-.58-1.77-.69c0,0,1.7-.11,2.17.54a2.84,2.84,0,0,1,1.5-.69s1.22.1-.75.71c0,0,3.53-.26,3.33,0a25.2,25.2,0,0,0-3.26.22A1.22,1.22,0,0,1,187.47,140Z"/></g><g class="cls-50"><path class="cls-51" d="M115.37,144.67s-2.05-.51-1.52-.6c0,0,1.46-.09,1.87.47a2.48,2.48,0,0,1,1.29-.6s1.06.09-.64.62c0,0,3-.23,2.87,0a22.76,22.76,0,0,0-2.81.19A1.08,1.08,0,0,1,115.37,144.67Z"/><path class="cls-51" d="M119.45,143.8s-2-.5-1.52-.59c0,0,1.46-.1,1.87.46a2.5,2.5,0,0,1,1.29-.59s1.06.09-.64.61c0,0,3-.22,2.87,0a22.64,22.64,0,0,0-2.81.19A1,1,0,0,1,119.45,143.8Z"/><path class="cls-51" d="M115.83,142.8s-2.06-.51-1.53-.6c0,0,1.47-.09,1.88.47a2.43,2.43,0,0,1,1.29-.6s1,.09-.65.61c0,0,3.05-.22,2.88,0a22.9,22.9,0,0,0-2.82.19A1.05,1.05,0,0,1,115.83,142.8Z"/><path class="cls-51" d="M124.66,143.16s-2-.51-1.52-.6c0,0,1.46-.09,1.87.47a2.48,2.48,0,0,1,1.29-.6s1.06.09-.64.61c0,0,3.05-.22,2.87,0a22.76,22.76,0,0,0-2.81.19A1.08,1.08,0,0,1,124.66,143.16Z"/><path class="cls-51" d="M128.06,142.22s-2-.5-1.52-.6c0,0,1.46-.09,1.87.47a2.48,2.48,0,0,1,1.29-.6s1.06.1-.64.62c0,0,3.05-.22,2.87,0a22.27,22.27,0,0,0-2.81.18A1,1,0,0,1,128.06,142.22Z"/><path class="cls-51" d="M121.46,142.31s-2.06-.5-1.53-.6c0,0,1.47-.09,1.88.47a2.43,2.43,0,0,1,1.29-.6s1.05.1-.65.62c0,0,3-.22,2.87,0a24.48,24.48,0,0,0-2.81.18C122,142.55,121.75,142.52,121.46,142.31Z"/><path class="cls-51" d="M128.32,143.3s-2.38-.58-1.76-.69c0,0,1.69-.1,2.17.54a2.84,2.84,0,0,1,1.49-.69s1.23.11-.74.71c0,0,3.53-.25,3.32,0a26.75,26.75,0,0,0-3.26.21A1.22,1.22,0,0,1,128.32,143.3Z"/></g><path class="cls-12" d="M212.39,138.52s-5.77,1.24-3.76-1.7,4.1-.21,4.1-.21-2-1.84-.15-3.1,3.71-.35,3.09,1.84c0,0,1.52-3.61,4.27-1.27,1.55,1.32-1.83,2.26-1.83,2.26s3.88-1.2,4.07,1.35-7,.84-7,.84Z"/><path class="cls-12" d="M66.19,137.2s-5.77,1.24-3.75-1.7,4.1-.2,4.1-.2-2-1.85-.16-3.11,3.71-.34,3.09,1.85c0,0,1.52-3.61,4.27-1.28,1.56,1.33-1.83,2.26-1.83,2.26s3.89-1.19,4.07,1.35-7,.84-7,.84Z"/><path class="cls-30" d="M158,67.33v66.73h41.56V67.33ZM197.26,134h-37V71h37Z"/><rect class="cls-52" x="151.48" y="96.93" width="7.79" height="9.25" rx="1.12"/><circle class="cls-53" cx="158.4" cy="98.24" r="0.44"/><circle class="cls-53" cx="158.4" cy="104.81" r="0.44"/><rect class="cls-54" x="160.22" y="71.49" width="37.11" height="62.27" rx="0.93"/><rect class="cls-52" x="194.99" y="97.24" width="2.4" height="9.6"/><rect class="cls-54" x="193.42" y="97.24" width="2.4" height="9.6" rx="0.8"/></g></svg>