<svg xmlns="http://www.w3.org/2000/svg" xmlns:xlink="http://www.w3.org/1999/xlink" width="380" height="350" viewBox="0 0 380 350">
  <defs>
    <style>
      .cls-1, .cls-18 {
        fill: none;
      }

      .cls-2 {
        fill: #f7931e;
      }

      .cls-3 {
        clip-path: url(#clip-path);
      }

      .cls-4 {
        fill: #f15a24;
      }

      .cls-5 {
        fill: #d4555e;
      }

      .cls-6 {
        fill: #510706;
      }

      .cls-7 {
        clip-path: url(#clip-path-2);
      }

      .cls-8 {
        clip-path: url(#clip-path-3);
      }

      .cls-9 {
        clip-path: url(#clip-path-4);
      }

      .cls-10 {
        clip-path: url(#clip-path-5);
      }

      .cls-11 {
        clip-path: url(#clip-path-6);
      }

      .cls-12 {
        clip-path: url(#clip-path-7);
      }

      .cls-13 {
        clip-path: url(#clip-path-8);
      }

      .cls-14, .cls-17 {
        fill: #a81307;
      }

      .cls-15 {
        fill: #fff;
      }

      .cls-16 {
        fill: #231f20;
      }

      .cls-17, .cls-18 {
        stroke: #a81307;
        stroke-linecap: round;
        stroke-linejoin: round;
      }

      .cls-17 {
        stroke-width: 0.63px;
      }

      .cls-18 {
        stroke-width: 1.71px;
      }

      .cls-19 {
        clip-path: url(#clip-path-9);
      }

      .cls-20 {
        fill: #fa4316;
      }
    </style>
    <clipPath id="clip-path">
      <path class="cls-1" d="M359.73,209c2.22-2.27,1.31-6.57-2-7.22s-.41-6.2,7.11-4.64,23.33,12.6,6.24,27.44-56.33-2.94-69-11.95c-8.24-5-67.88,6.23-62.77-16.41,0,0,10.68-17.53,28.91-14.19"/>
    </clipPath>
    <clipPath id="clip-path-2">
      <path class="cls-1" d="M332.29,252.63c2.76-1.56,3.09-5.94.12-7.49s1.34-6.07,8.12-2.48,18.88,18.61-1.66,28.09S285.59,252.22,275.92,240c-6.52-7.1-66.92-13-55.7-33.27,0,0,15.15-13.85,31.72-5.56"/>
    </clipPath>
    <clipPath id="clip-path-3">
      <path class="cls-1" d="M294.46,290.81c3.1-.67,4.71-4.76,2.32-7.12s3.07-5.41,8.49,0,12.55,23.35-9.88,26.35S250,276.63,244.32,262.13c-4.14-8.71-60.12-32.13-43.4-48.23,0,0,18.56-8.77,31.95,4.05"/>
    </clipPath>
    <clipPath id="clip-path-4">
      <path class="cls-1" d="M236.72,325.47c3,1,6.48-1.68,5.65-4.92s5.41-3.07,7.27,4.38-1.2,26.49-22,17.55-21.85-52-19.26-67.34c.92-9.6-35.13-58.41-12.52-63.66,0,0,20.43,2,25.35,19.86"/>
    </clipPath>
    <clipPath id="clip-path-5">
      <path class="cls-1" d="M20.33,205.25c-2.17-2.32-1.16-6.6,2.14-7.17s.55-6.19-7-4.81S-8.14,205.33,8.6,220.55,65,218.91,77.88,210.2c8.36-4.81,67.72,7.79,63.13-15,0,0-10.27-17.77-28.57-14.85"/>
    </clipPath>
    <clipPath id="clip-path-6">
      <path class="cls-1" d="M49.47,255.71c-2.81-1.46-3.28-5.84-.37-7.48s-1.54-6-8.2-2.21-18.26,19.22,2.59,28,52.64-20.28,61.9-32.78c6.28-7.31,66.46-15.15,54.58-35.09,0,0-15.59-13.35-31.88-4.51"/>
    </clipPath>
    <clipPath id="clip-path-7">
      <path class="cls-1" d="M86.52,291.73c-3.11-.63-4.77-4.7-2.42-7.08s-3.14-5.36-8.49.15S63.38,308.31,85.85,311s45-34.05,50.42-48.63c4-8.77,59.68-32.94,42.74-48.81,0,0-18.68-8.51-31.89,4.48"/>
    </clipPath>
    <clipPath id="clip-path-8">
      <path class="cls-1" d="M151.23,327.46c-2.93,1.21-6.58-1.24-6-4.53s-5.6-2.7-7,4.86,3,26.35,23.12,16,18.32-53.35,14.7-68.48c-1.56-9.52,31.14-60.63,8.23-64.36,0,0-20.25,3.36-24,21.51"/>
    </clipPath>
    <clipPath id="clip-path-9">
      <path class="cls-1" d="M155.48,168.14s31.95,20.59,69.57,0C225.06,168.14,190.27,228.49,155.48,168.14Z"/>
    </clipPath>
  </defs>
  <title>17_small_octopus_move_flap_legs</title>
  <g id="character">
    <g>
      <g>
        <path class="cls-2" d="M239.31,196.19S250,178.66,268.22,182s18.78.21,33.83,4.72c17.62,5.29,37.2,33.76,57.68,22.25,2.22-2.27,1.31-6.57-2-7.22s-.41-6.2,7.11-4.64,23.33,12.6,6.24,27.44-56.33-2.94-69-11.95C293.84,207.6,234.21,218.83,239.31,196.19Z"/>
        <g class="cls-3">
          <path class="cls-4" d="M384.5,211.38s-7.74,18.71-38.08,11.18-61-40.14-111.27-12c0,0,54.68,10,57.7,9.39S368.2,259.75,384.5,211.38Z"/>
        </g>
        <g>
          <g>
            <circle class="cls-5" cx="366.07" cy="227.72" r="4.31" transform="translate(-64.73 211.1) rotate(-29.67)"/>
            <circle class="cls-6" cx="364.73" cy="228.33" r="2.64" transform="translate(-65.21 210.51) rotate(-29.67)"/>
          </g>
          <g>
            <circle class="cls-5" cx="341.58" cy="228.95" r="4.31" transform="translate(-68.55 199.13) rotate(-29.67)"/>
            <circle class="cls-6" cx="340.23" cy="229.57" r="2.64" transform="translate(-69.03 198.55) rotate(-29.67)"/>
          </g>
          <g>
            <circle class="cls-5" cx="315.22" cy="220.36" r="4.31" transform="translate(-67.75 184.95) rotate(-29.67)"/>
            <circle class="cls-6" cx="313.88" cy="220.97" r="2.64" transform="translate(-68.23 184.37) rotate(-29.67)"/>
          </g>
          <g>
            <circle class="cls-5" cx="293.88" cy="211.54" r="4.31" transform="translate(-66.19 173.23) rotate(-29.67)"/>
            <circle class="cls-6" cx="292.53" cy="212.15" r="2.64" transform="translate(-66.66 172.65) rotate(-29.67)"/>
          </g>
          <g>
            <circle class="cls-5" cx="271.15" cy="211.01" r="4.31" transform="translate(-68.91 161.91) rotate(-29.67)"/>
            <circle class="cls-6" cx="269.8" cy="211.62" r="2.64" transform="translate(-69.38 161.33) rotate(-29.67)"/>
          </g>
        </g>
      </g>
      <g>
        <path class="cls-2" d="M220.22,206.76s15.15-13.85,31.72-5.56,18,5.44,31.17,14c15.45,10,26.3,42.8,49.18,37.46,2.76-1.56,3.09-5.94.12-7.49s1.34-6.07,8.12-2.48,18.88,18.61-1.66,28.09S285.59,252.22,275.92,240C269.4,232.93,209,227.08,220.22,206.76Z"/>
        <g class="cls-7">
          <path class="cls-4" d="M355.4,261.86s-12.65,15.8-39.69.11-47.42-55.58-103.5-42.59c0,0,49.72,24.89,52.78,25.12S326.25,303.76,355.4,261.86Z"/>
        </g>
        <g>
          <g>
            <circle class="cls-5" cx="333.15" cy="272.41" r="4.31" transform="translate(-54.3 85.12) rotate(-13.47)"/>
            <circle class="cls-6" cx="331.69" cy="272.62" r="2.64" transform="translate(-54.39 84.79) rotate(-13.47)"/>
          </g>
          <g>
            <circle class="cls-5" cx="309.28" cy="266.76" r="4.31" transform="translate(-53.64 79.4) rotate(-13.47)"/>
            <circle class="cls-6" cx="307.82" cy="266.97" r="2.64" transform="translate(-53.73 79.07) rotate(-13.47)"/>
          </g>
          <g>
            <circle class="cls-5" cx="286.37" cy="251.15" r="4.31" transform="translate(-50.64 73.64) rotate(-13.47)"/>
            <circle class="cls-6" cx="284.91" cy="251.36" r="2.64" transform="translate(-50.73 73.3) rotate(-13.47)"/>
          </g>
          <g>
            <circle class="cls-5" cx="268.34" cy="236.73" r="4.31" transform="translate(-47.77 69.04) rotate(-13.47)"/>
            <circle class="cls-6" cx="266.88" cy="236.94" r="2.64" transform="translate(-47.86 68.7) rotate(-13.47)"/>
          </g>
          <g>
            <circle class="cls-5" cx="246.65" cy="229.88" r="4.31" transform="translate(-46.77 63.8) rotate(-13.47)"/>
            <circle class="cls-6" cx="245.2" cy="230.09" r="2.64" transform="translate(-46.86 63.46) rotate(-13.47)"/>
          </g>
        </g>
      </g>
      <g>
        <path class="cls-2" d="M200.92,213.9s18.56-8.77,31.95,4.05,15.57,10.5,25.65,22.55c11.81,14.11,12.5,48.65,35.94,50.3,3.1-.67,4.71-4.76,2.32-7.12s3.07-5.41,8.49,0,12.55,23.35-9.88,26.35S250,276.63,244.32,262.13C240.19,253.42,184.2,230,200.92,213.9Z"/>
        <g class="cls-8">
          <path class="cls-4" d="M313.82,306.44s-16.75,11.37-38-11.61S247,227.74,189.55,223.6c0,0,40.16,38.45,43,39.58S273.6,337.88,313.82,306.44Z"/>
        </g>
        <g>
          <g>
            <circle class="cls-5" cx="289.44" cy="309.95" r="4.31" transform="translate(-38.51 578.84) rotate(-86.31)"/>
            <circle class="cls-6" cx="287.99" cy="309.73" r="2.64" transform="translate(-39.64 577.17) rotate(-86.31)"/>
          </g>
          <g>
            <circle class="cls-5" cx="268.31" cy="297.51" r="4.31" transform="translate(-45.86 546.1) rotate(-86.31)"/>
            <circle class="cls-6" cx="266.85" cy="297.28" r="2.64" transform="translate(-47 544.44) rotate(-86.31)"/>
          </g>
          <g>
            <circle class="cls-5" cx="251.02" cy="275.84" r="4.31" transform="translate(-40.41 508.57) rotate(-86.31)"/>
            <circle class="cls-6" cx="249.56" cy="275.61" r="2.64" transform="translate(-41.54 506.91) rotate(-86.31)"/>
          </g>
          <g>
            <circle class="cls-5" cx="238.05" cy="256.73" r="4.31" transform="translate(-33.48 477.75) rotate(-86.31)"/>
            <circle class="cls-6" cx="236.59" cy="256.5" r="2.64" transform="translate(-34.61 476.09) rotate(-86.31)"/>
          </g>
          <g>
            <circle class="cls-5" cx="219.36" cy="243.79" r="4.31" transform="matrix(0.06, -1, 1, 0.06, -38.05, 446.99)"/>
            <circle class="cls-6" cx="217.9" cy="243.56" r="2.64" transform="translate(-39.19 445.32) rotate(-86.31)"/>
          </g>
        </g>
      </g>
      <g>
        <path class="cls-2" d="M195.86,211.48s20.43,2,25.35,19.86,8,17,10.46,32.51c2.9,18.17-14.22,48.18,5.05,61.62,3,1,6.48-1.68,5.65-4.92s5.41-3.07,7.27,4.38-1.2,26.49-22,17.55-21.85-52-19.26-67.34C209.3,265.54,173.25,216.73,195.86,211.48Z"/>
        <g class="cls-9">
          <path class="cls-4" d="M245.32,348.82S225.11,350,218.69,319.4,228.29,247,181.12,214c0,0,14.75,53.6,16.63,56S194.67,355.18,245.32,348.82Z"/>
        </g>
        <g>
          <g>
            <circle class="cls-5" cx="222.59" cy="339.33" r="4.31" transform="translate(-183.13 330.25) rotate(-55.45)"/>
            <circle class="cls-6" cx="221.46" cy="338.39" r="2.64" transform="matrix(0.57, -0.82, 0.82, 0.57, -182.85, 328.91)"/>
          </g>
          <g>
            <circle class="cls-5" cx="210.83" cy="317.81" r="4.31" transform="translate(-170.5 311.25) rotate(-55.45)"/>
            <circle class="cls-6" cx="209.7" cy="316.87" r="2.64" transform="translate(-170.21 309.9) rotate(-55.45)"/>
          </g>
          <g>
            <circle class="cls-5" cx="207.11" cy="290.34" r="4.31" transform="translate(-149.48 296.28) rotate(-55.45)"/>
            <circle class="cls-6" cx="205.97" cy="289.4" r="2.64" transform="translate(-149.2 294.94) rotate(-55.45)"/>
          </g>
          <g>
            <circle class="cls-5" cx="205.77" cy="267.29" r="4.31" transform="translate(-131.07 285.2) rotate(-55.45)"/>
            <circle class="cls-6" cx="204.64" cy="266.34" r="2.64" transform="matrix(0.57, -0.82, 0.82, 0.57, -130.79, 283.86)"/>
          </g>
          <g>
            <circle class="cls-5" cx="196.36" cy="246.59" r="4.31" transform="translate(-118.1 268.49) rotate(-55.45)"/>
            <circle class="cls-6" cx="195.22" cy="245.65" r="2.64" transform="translate(-117.81 267.15) rotate(-55.45)"/>
          </g>
        </g>
      </g>
      <g>
        <path class="cls-2" d="M141,195.23s-10.27-17.77-28.57-14.85-18.78-.23-33.93,3.95c-17.74,4.88-38,32.89-58.18,20.91-2.17-2.32-1.16-6.6,2.14-7.17s.55-6.19-7-4.81S-8.14,205.33,8.6,220.55,65,218.91,77.88,210.2C86.23,205.39,145.59,218,141,195.23Z"/>
        <g class="cls-10">
          <path class="cls-4" d="M-4.49,207.09S2.81,226,33.32,219.14s61.95-38.73,111.52-9.46c0,0-54.9,8.77-57.9,8.06S10.7,255.82-4.49,207.09Z"/>
        </g>
        <g>
          <g>
            <circle class="cls-5" cx="13.56" cy="223.85" r="4.31" transform="translate(-185.31 120.2) rotate(-59.01)"/>
            <circle class="cls-6" cx="14.89" cy="224.49" r="2.64" transform="translate(-185.22 121.65) rotate(-59.01)"/>
          </g>
          <g>
            <circle class="cls-5" cx="38.02" cy="225.64" r="4.31" transform="translate(-174.99 142.04) rotate(-59.01)"/>
            <circle class="cls-6" cx="39.35" cy="226.28" r="2.64" transform="translate(-174.89 143.49) rotate(-59.01)"/>
          </g>
          <g>
            <circle class="cls-5" cx="64.57" cy="217.66" r="4.31" transform="translate(-155.26 160.93) rotate(-59.01)"/>
            <circle class="cls-6" cx="65.89" cy="218.3" r="2.64" transform="translate(-155.17 162.38) rotate(-59.01)"/>
          </g>
          <g>
            <circle class="cls-5" cx="86.11" cy="209.33" r="4.31" transform="translate(-137.67 175.35) rotate(-59.01)"/>
            <circle class="cls-6" cx="87.43" cy="209.97" r="2.64" transform="translate(-137.58 176.8) rotate(-59.01)"/>
          </g>
          <g>
            <circle class="cls-5" cx="108.84" cy="209.32" r="4.31" transform="translate(-126.64 194.84) rotate(-59.01)"/>
            <circle class="cls-6" cx="110.17" cy="209.96" r="2.64" transform="translate(-126.55 196.29) rotate(-59.01)"/>
          </g>
        </g>
      </g>
      <g>
        <path class="cls-2" d="M160,206.17s-15.59-13.35-31.88-4.51-17.79,6-30.69,15c-15.11,10.5-24.88,43.64-47.93,39.05-2.81-1.46-3.28-5.84-.37-7.48s-1.54-6-8.2-2.21-18.26,19.22,2.59,28,52.64-20.28,61.9-32.78C111.67,233.95,171.85,226.11,160,206.17Z"/>
        <g class="cls-11">
          <path class="cls-4" d="M26.67,265.69s13.16,15.38,39.67-1.19,45.56-57.11,102-46c0,0-48.87,26.51-51.93,26.84S57.18,306.61,26.67,265.69Z"/>
        </g>
        <g>
          <g>
            <circle class="cls-5" cx="49.26" cy="275.5" r="4.31" transform="translate(-230.52 268.41) rotate(-78.41)"/>
            <circle class="cls-6" cx="50.72" cy="275.66" r="2.64" transform="translate(-229.51 269.98) rotate(-78.41)"/>
          </g>
          <g>
            <circle class="cls-5" cx="72.93" cy="269.07" r="4.31" transform="translate(-205.31 286.45) rotate(-78.41)"/>
            <circle class="cls-6" cx="74.39" cy="269.23" r="2.64" transform="translate(-204.3 288.02) rotate(-78.41)"/>
          </g>
          <g>
            <circle class="cls-5" cx="95.31" cy="252.72" r="4.31" transform="translate(-171.4 295.32) rotate(-78.41)"/>
            <circle class="cls-6" cx="96.78" cy="252.88" r="2.64" transform="translate(-170.39 296.89) rotate(-78.41)"/>
          </g>
          <g>
            <circle class="cls-5" cx="112.86" cy="237.7" r="4.31" transform="translate(-142.67 300.51) rotate(-78.41)"/>
            <circle class="cls-6" cx="114.33" cy="237.87" r="2.64" transform="translate(-141.66 302.08) rotate(-78.41)"/>
          </g>
          <g>
            <circle class="cls-5" cx="134.31" cy="230.15" r="4.31" transform="translate(-118.13 315.48) rotate(-78.41)"/>
            <circle class="cls-6" cx="135.77" cy="230.31" r="2.64" transform="translate(-117.12 317.05) rotate(-78.41)"/>
          </g>
        </g>
      </g>
      <g>
        <path class="cls-2" d="M179,213.56S160.33,205,147.12,218s-15.43,10.71-25.34,22.9c-11.62,14.27-11.84,48.82-35.25,50.79-3.11-.63-4.77-4.7-2.42-7.08s-3.14-5.36-8.49.15S63.38,308.31,85.85,311s45-34.05,50.42-48.63C140.28,253.61,195.94,229.44,179,213.56Z"/>
        <g class="cls-12">
          <path class="cls-4" d="M67.37,307.63s16.9,11.14,37.79-12.12,28-67.48,85.34-72.4c0,0-39.63,39-42.48,40.16S108,338.51,67.37,307.63Z"/>
        </g>
        <g>
          <g>
            <circle class="cls-5" cx="91.79" cy="310.81" r="4.31" transform="translate(-23.94 8.1) rotate(-4.47)"/>
            <circle class="cls-6" cx="93.25" cy="310.56" r="2.64" transform="translate(-23.91 8.21) rotate(-4.47)"/>
          </g>
          <g>
            <circle class="cls-5" cx="112.76" cy="298.08" r="4.31" transform="translate(-22.88 9.69) rotate(-4.47)"/>
            <circle class="cls-6" cx="114.21" cy="297.83" r="2.64" transform="translate(-22.86 9.8) rotate(-4.47)"/>
          </g>
          <g>
            <circle class="cls-5" cx="129.75" cy="276.17" r="4.31" transform="translate(-21.12 10.95) rotate(-4.47)"/>
            <circle class="cls-6" cx="131.2" cy="275.92" r="2.64" transform="translate(-21.1 11.06) rotate(-4.47)"/>
          </g>
          <g>
            <circle class="cls-5" cx="142.46" cy="256.89" r="4.31" transform="translate(-19.58 11.88) rotate(-4.47)"/>
            <circle class="cls-6" cx="143.92" cy="256.64" r="2.64" transform="translate(-19.56 11.99) rotate(-4.47)"/>
          </g>
          <g>
            <circle class="cls-5" cx="160.98" cy="243.7" r="4.31" transform="matrix(1, -0.08, 0.08, 1, -18.5, 13.28)"/>
            <circle class="cls-6" cx="162.43" cy="243.45" r="2.64" transform="translate(-18.48 13.4) rotate(-4.47)"/>
          </g>
        </g>
      </g>
      <g>
        <path class="cls-2" d="M184.36,211s-20.25,3.36-24,21.51-6.82,17.5-8.26,33.14c-1.68,18.32,17.42,47.12-.92,61.82-2.93,1.21-6.58-1.24-6-4.53s-5.6-2.7-7,4.86,3,26.35,23.12,16,18.32-53.35,14.7-68.48C174.57,265.83,207.27,214.71,184.36,211Z"/>
        <g class="cls-13">
          <path class="cls-4" d="M144.21,351.34s20.24-.19,24.6-31.14-14.43-71.61,30.42-107.7c0,0-11.13,54.47-12.84,57S195.17,354.28,144.21,351.34Z"/>
        </g>
        <g>
          <g>
            <circle class="cls-5" cx="166.25" cy="340.35" r="4.31" transform="translate(-175.41 176.81) rotate(-38.39)"/>
            <circle class="cls-6" cx="167.32" cy="339.33" r="2.64" transform="translate(-174.54 177.25) rotate(-38.39)"/>
          </g>
          <g>
            <circle class="cls-5" cx="176.55" cy="318.08" r="4.31" transform="translate(-159.36 178.39) rotate(-38.39)"/>
            <circle class="cls-6" cx="177.62" cy="317.07" r="2.64" transform="translate(-158.49 178.83) rotate(-38.39)"/>
          </g>
          <g>
            <circle class="cls-5" cx="178.42" cy="290.42" r="4.31" transform="translate(-141.78 173.57) rotate(-38.39)"/>
            <circle class="cls-6" cx="179.49" cy="289.41" r="2.64" transform="translate(-140.91 174.02) rotate(-38.39)"/>
          </g>
          <g>
            <circle class="cls-5" cx="178.21" cy="267.33" r="4.31" transform="translate(-127.48 168.45) rotate(-38.39)"/>
            <circle class="cls-6" cx="179.28" cy="266.32" r="2.64" transform="translate(-126.62 168.9) rotate(-38.39)"/>
          </g>
          <g>
            <circle class="cls-5" cx="186.22" cy="246.05" r="4.31" transform="translate(-112.54 168.82) rotate(-38.39)"/>
            <circle class="cls-6" cx="187.29" cy="245.03" r="2.64" transform="translate(-111.67 169.27) rotate(-38.39)"/>
          </g>
        </g>
      </g>
      <g>
        <path class="cls-2" d="M201.68,3.74a140.64,140.64,0,0,0-25.69,0c-87.77,6.62-93.65,99.11-80.74,125.34a235.6,235.6,0,0,0,15.39,26.59,22.37,22.37,0,0,0,11,36.58c1.75,16.15,35.89,21.16,59.83,22,2.14.09,4.62.14,7.34.14s5.19,0,7.34-.14c23.71-.84,57.41-5.77,59.77-21.54a22.37,22.37,0,0,0,11.46-38.91c4.45-6.88,9.72-14.6,15-24.73C295.95,103.25,289.26,13,201.68,3.74Z"/>
        <g>
          <g>
            <circle class="cls-14" cx="159.36" cy="125.81" r="26.41"/>
            <circle class="cls-15" cx="159.36" cy="127.86" r="23.25"/>
            <circle class="cls-16" cx="159.36" cy="127.86" r="18.34"/>
            <circle class="cls-15" cx="167.17" cy="119.55" r="6.92"/>
          </g>
          <g>
            <circle class="cls-14" cx="222.93" cy="125.81" r="26.41"/>
            <circle class="cls-15" cx="222.93" cy="127.86" r="23.25"/>
            <circle class="cls-16" cx="222.93" cy="127.86" r="18.34"/>
            <circle class="cls-15" cx="230.73" cy="119.55" r="6.92"/>
          </g>
          <g>
            <path class="cls-17" d="M155.48,168.14s31.95,20.59,69.57,0C225.06,168.14,190.27,228.49,155.48,168.14Z"/>
            <path class="cls-18" d="M148.82,168.7a8.68,8.68,0,0,0,11-5.1"/>
            <path class="cls-18" d="M232.5,168.7a8.68,8.68,0,0,1-11-5.1"/>
            <g class="cls-19">
              <path class="cls-20" d="M177.07,195.64s-.56-8.43,5.38-8.43,6.82,3.37,6.82,3.37.88-3.85,7.38-3.85,5.54,12.36,5.54,12.36Z"/>
            </g>
          </g>
          <path class="cls-17" d="M143.45,82.58h28.4S157.65,71.22,143.45,82.58Z"/>
          <path class="cls-17" d="M209.71,82.58h28.4S223.91,71.22,209.71,82.58Z"/>
        </g>
      </g>
    </g>
  </g>
</svg>
