<svg xmlns="http://www.w3.org/2000/svg" viewBox="0 0 225 400"><defs><style>.cls-1{fill:#0c0807;}.cls-2{fill:#a56737;}.cls-3{fill:#a46636;}.cls-4{fill:#488dcb;}.cls-5{fill:#d42027;}.cls-6{fill:#21b14b;}.cls-7{fill:#fde500;}.cls-8{fill:#9a5b2a;}.cls-9{fill:#6c401d;}.cls-10{fill:#faf8f7;}.cls-11{fill:#522f27;}.cls-12{fill:#060504;}.cls-13{fill:#600b0c;}.cls-14{fill:#f2ecec;}.cls-15{fill:#fff;}.cls-16{fill:#734725;}</style></defs><title>22</title><g id="Layer_2" data-name="Layer 2"><path class="cls-1" d="M98.38,372.4c.62-.22.75.27.87.66,1.3,4.39,1.7,8.81,0,13.19s-5.48,6.25-10,6.4a10.15,10.15,0,0,0-5.13,1.51c-5.36,3.21-11.33,4.12-17.49,3.95-3.24-.08-6.49-.3-9.5-1.76-7.23-3.51-6.81-12.11-3.42-16.19,2.22-2.67,5.14-4.46,8.09-6.18a68.32,68.32,0,0,1,7.06-3.65,30.08,30.08,0,0,0,5.64-3.47,36.12,36.12,0,0,1,13.6,11.19c1.28,1.82,1.31,1.86,3.13.68C93.9,377,96.73,375.36,98.38,372.4ZM73,385.19a15.64,15.64,0,0,0,7-1.33c1.31-.48,3.35-.57,3.74-1.61.46-1.23-1.21-2.46-2.06-3.59-2.56-3.4-5.45-6.45-9.6-8a1.89,1.89,0,0,0-2.11.12,21.16,21.16,0,0,0-4.13,4.11c-2.18,3.14-1.73,5.89,1.33,8.17A13.3,13.3,0,0,0,73,385.19Z"/><path class="cls-2" d="M98.38,372.4c-1.65,3-4.48,4.58-7.19,6.33-1.82,1.18-1.85,1.14-3.13-.68a36.12,36.12,0,0,0-13.6-11.19c2.32-2.59,3.06-5.91,4.07-9.09,1.33-4.18,6.78-33.72,8-37.91,3.23.49,6.4,1.37,9.69,1.42,3,.05,6,.13,9,.2-.94,5.93-6.31,37.16-6.82,43.15A42.91,42.91,0,0,0,98.38,372.4Z"/><path class="cls-2" d="M73,385.19a13.3,13.3,0,0,1-5.78-2.11c-3.06-2.28-3.51-5-1.33-8.17A21.16,21.16,0,0,1,70,370.8a1.89,1.89,0,0,1,2.11-.12c4.15,1.53,7,4.58,9.6,8,.85,1.13,2.52,2.36,2.06,3.59-.39,1-2.43,1.13-3.74,1.61A15.64,15.64,0,0,1,73,385.19Z"/><path class="cls-1" d="M161.49,367.55c.11,0,.24,0,.32,0,4.79,3.06,10.58,3.71,15.53,6.4,1.42.77,2.84,1.57,4.26,2.35,5.91,3.25,6.47,11.75,3.89,15.5-2,2.94-4.91,4.31-8.19,5.1A35.93,35.93,0,0,1,155,395.38a3.6,3.6,0,0,0-2.2-.07c-4.24.85-8.32.28-10.68-3.54-2.82-4.56-4.74-9.59-3.47-15.21a24.73,24.73,0,0,0,8.51,5.44c.92.38,1.47.27,1.91-.71a31.65,31.65,0,0,1,8.26-10.45C158.68,369.67,160.31,368.9,161.49,367.55Zm3.14,18.13a11.79,11.79,0,0,0,5.25-2.07c3.1-2.09,4.35-5.43,1.49-8.81a24.65,24.65,0,0,0-4.49-3.68,1.89,1.89,0,0,0-2.23-.09c-5.23,2.67-7.92,7.47-10.49,12.39-.28.53-.08.82.45.93C157.92,385.05,161.17,386.21,164.63,385.68Z"/><path class="cls-2" d="M161.49,367.55c-1.18,1.35-2.81,2.12-4.13,3.29a31.65,31.65,0,0,0-8.26,10.45c-.44,1-1,1.09-1.91.71a24.73,24.73,0,0,1-8.51-5.44c.06-4.87-2-9.23-3.37-13.75-.8-2.63-1.58-5.27-2.36-7.9,6.58-.53,13-1.68,19.09-4.45,2.16,4.48,4,9.13,6.61,13.36C159.49,365.16,160.56,366.3,161.49,367.55Z"/><path class="cls-2" d="M164.63,385.68c-3.46.53-6.71-.63-10-1.33-.53-.11-.73-.4-.45-.93,2.57-4.92,5.26-9.72,10.49-12.39a1.89,1.89,0,0,1,2.23.09,24.65,24.65,0,0,1,4.49,3.68c2.86,3.38,1.61,6.72-1.49,8.81A11.79,11.79,0,0,1,164.63,385.68Z"/><path class="cls-3" d="M205.86,301c-3.63-3.47-7.78-5.76-12.76-9-.27-.18-.19-.66.14-.65,3.2.06,9.61,1.87,13.6.23a1.64,1.64,0,0,0,.94-1.53c0-1.16-1.59-1.74-2.81-2.19l-12.85-2.45c-1-.29-1.56-.22-1.49-.78s1.07-.14,1.49-.25a34,34,0,0,1,5.18-1.14,9.4,9.4,0,0,0,2.16-1.11,1.54,1.54,0,0,0-.67-2.48,17.13,17.13,0,0,0-6.18-.79c-3.2,0-6.49.08-9.69.07-1.69,0-3,.23-4.56-.8-1.93-1.3-4.61-3-6.43-4.48-9.24-7.4-15.73-13.27-23.31-22.68-1.45-1.81-3.06-4.35-5.37-4.15a4.72,4.72,0,0,0-2.34.95,6.5,6.5,0,0,0-2.88,4.31c-.62,3.8,2.1,7.15,4.46,10.48a246.14,246.14,0,0,0,22.63,27.58c1.51,1.58,3.43,2.87,4,5,1.25,4.23,2.42,9,5,12.87a2.16,2.16,0,0,0,2.88.73,3.38,3.38,0,0,0,1.42-2.71,35.35,35.35,0,0,1,.88-5.11c.68-1.11,2.57.57,3.49,1.82a35.79,35.79,0,0,0,7.3,7.19c1.35,1,3,2.42,4.2,1.23.65-.66.28-2.07-.06-2.93a21.12,21.12,0,0,0-1.89-3.16,73.33,73.33,0,0,1-4.25-6.67c.13-.77,4.25,1.4,9.7,3.59.37.15,8.19,3.53,9.12,1.81C207.34,303,206.49,301.59,205.86,301Z"/><path class="cls-4" d="M126.85,242.12a8.28,8.28,0,0,0,1.5,2.43c1.27,1.49-.25.87,1.4,2.29a21.75,21.75,0,0,1,5.12,6.85,3.55,3.55,0,0,0,1,1.42,3.43,3.43,0,0,0,1.75.19,13,13,0,0,0,7.55-3.53c1.35-1.17,2.48-2.44,3.76-3.69a2.67,2.67,0,0,0,1.1-2,8.34,8.34,0,0,0-.67-2.05,34.3,34.3,0,0,1-2.36-7.78c-.72-3.14-1.77-5.44-3.95-7.39a14.4,14.4,0,0,0-5.21-2.77c-2.32-.75-1.16-.41-3.58-.06a8.93,8.93,0,0,0-6.13,3.6,14.87,14.87,0,0,0-1.6,3.78,10,10,0,0,0,.28,8.74Z"/><path class="cls-3" d="M19.3,302.27c3.57-3.52,7.69-5.87,12.63-9.2.26-.18.18-.66-.15-.65-3.2.11-9.58,2-13.6.43a1.64,1.64,0,0,1-1-1.52c0-1.15,1.57-1.75,2.78-2.22l12.81-2.64c.94-.3,1.55-.24,1.48-.8s-1.08-.13-1.49-.23a35.81,35.81,0,0,0-5.2-1.07,9.2,9.2,0,0,1-2.18-1.07,1.55,1.55,0,0,1,.64-2.5,17.28,17.28,0,0,1,6.17-.87c3.2-.06,6.49,0,9.69-.08,1.68,0,3,.19,4.54-.87,1.91-1.32,4.57-3.08,6.36-4.56,9.13-7.54,15.54-13.51,23-23,1.43-1.83,3-4.4,5.31-4.23a4.74,4.74,0,0,1,2.35.91,6.48,6.48,0,0,1,2.94,4.27c.68,3.79-2,7.18-4.3,10.55a247.61,247.61,0,0,1-22.22,27.9c-1.49,1.61-3.4,2.92-4,5-1.19,4.25-2.29,9.06-4.78,12.94a2.16,2.16,0,0,1-2.87.77,3.42,3.42,0,0,1-1.46-2.69,35.72,35.72,0,0,0-.95-5.09c-.7-1.1-2.56.61-3.47,1.87a35.78,35.78,0,0,1-7.19,7.3c-1.33,1-3,2.47-4.18,1.29-.66-.65-.31-2.06,0-2.93a22,22,0,0,1,1.84-3.19A74,74,0,0,0,37,299.37c-.14-.77-4.23,1.46-9.65,3.73-.37.16-8.13,3.65-9.09,1.94C17.85,304.29,18.68,302.87,19.3,302.27Z"/><path class="cls-4" d="M101.06,241.41a8.13,8.13,0,0,1-1.46,2.45c-1.25,1.52-3.36,1.69-5,3.14a21.81,21.81,0,0,0-5,6.92,3.48,3.48,0,0,1-1,1.44,3.28,3.28,0,0,1-1.74.21,13,13,0,0,1-7.61-3.42c-1.36-1.14-2.51-2.4-3.81-3.63a2.65,2.65,0,0,1-1.13-2,8.13,8.13,0,0,1,.64-2.07,33.63,33.63,0,0,0,2.24-7.81c.67-3.14,1.69-5.46,3.85-7.44a14.16,14.16,0,0,1,5.17-2.85,16.06,16.06,0,0,1,7.19-.93,8.91,8.91,0,0,1,6.18,3.5,14.55,14.55,0,0,1,1.66,3.76,13.7,13.7,0,0,1,.92,4.44A13.26,13.26,0,0,1,101.06,241.41Z"/><path class="cls-4" d="M77.73,355.88l.13,0c1,.31,2.11.47,3.17.68l3.63.71a28.87,28.87,0,0,0,5.17.44c3,0,6.1.24,9.15.3a12,12,0,0,1,2.32.17,3.28,3.28,0,0,0,.7.1c1.66,0,3.31-.2,5-.17a28.68,28.68,0,0,1,4.89.52c1.89.35,16.39,4.06,23.53,3.69s16.3.09,21.63-5.31a210.29,210.29,0,0,1-3.87-27.72,246.35,246.35,0,0,0-7.44-43.53c-2.83-9.76-3.27-35.38-3.27-35.38s2.46-18.38-.79-23.62c-3.52-5.68-15.84-6.07-27.36-5.68a100.59,100.59,0,0,0-25.91,4.72c-3,1.07-4.62,29.62-4.88,35.39s.64,29.78,0,37.85c-.31,3.61-.71,7.22-1.13,10.82a19.83,19.83,0,0,0-.31,3.91,12.74,12.74,0,0,1-.45,3.52c-.32,1.69-.76,3.34-1.18,5a40,40,0,0,1-1.55,5.31,36.14,36.14,0,0,1-1.78,4.49,35.46,35.46,0,0,1-2.56,4.79,21.38,21.38,0,0,0-1.37,2.17A21,21,0,0,1,71.75,341c-.52.7-.88,1.48-1.42,2.16-.84,1.07-1.82,2.1-2.69,3.14s-1.59,1.75-2.36,2.65a1.53,1.53,0,0,0-.34,1.93c1,1.57,3.64,1.66,5.2,2.16s3.19,1.16,4.79,1.71a6.74,6.74,0,0,1,1.58.62A4.45,4.45,0,0,0,77.73,355.88Z"/><polygon class="cls-5" points="136.11 225.74 129.97 224.47 93.94 224.24 90.44 224.66 91.96 243.37 133.09 243.4 136.11 225.74"/><path class="cls-6" d="M131.63,224.69l-4.81-1.35L98,223.08a17.75,17.75,0,0,0-2,.65l-2,.38,1.69,14.73,33.84-.25Z"/><polygon class="cls-7" points="127.11 223.33 120.66 221.61 101.49 221.8 97.95 222.95 99.5 234.83 125.92 234.57 127.11 223.33"/><path class="cls-3" d="M103.26,231.43l-1.55-9.1s3-.48,4-3.08,2.3-5.89,9-5.79c6.46.09,4.91,3,5.24,4.19a28.14,28.14,0,0,1,.57,3,2.68,2.68,0,0,0,2.24,2.37c1.64.41-.87,7.46-.87,7.46Z"/><path d="M108,213.85S92.37,224,87,233.58c0,0,2.09-19.17,1.68-24.7,0,0-11.9,16.84-26.21,17.94A28.14,28.14,0,0,0,74.27,201s-23.82-12-33-35.35c0,0,11.79-22.68,15.54-26.48,0,0-5.08-19.25,2.22-28,0,0,20.6-9.74,32.43-6.42,0,0,9.72-14,27.41-18.12,0,0,26.36,7.19,32,21.41,0,0,27.06,8,31,9.8,0,0,7.33,18.49,1.25,30.21,0,0,9.27,16.77,7.74,24.63,0,0-13.64,19.12-28.3,24.11s-.41,37.69-.41,37.69-13.84-14.81-22.59-18.34a119.94,119.94,0,0,1,3.13,19.71S127,211,108,213.85Z"/><path class="cls-8" d="M61.7,159.11l2.36-11.78a3.81,3.81,0,0,0-1-2.4c-.9-.81-4.65-4.44-4.65-4.44s5.18.83,6.9,2.2c.67.13.86.69,1.59-.26S76.4,131,76.4,131s14.89-6.4,16.91-7.64,2.53-1.63,2.18-4.1-1.54-8.43-1.84-9.51c0,0,4.83,10.1,5.3,11.48s2,.64,2.41.51,18.19-4.51,18.19-4.51a4.06,4.06,0,0,1,2.28.13c1.68.41,15.82,4.56,18.24,6.11.88.33,1.29.12,1.59-.26s7-6.07,8.44-8.67c0,0-3.74,8.12-3.92,9.65-.55,1.45.56,1.21.87,1.52s11,7.37,11,7.37l5.95,15s11.13-2,14.87.12a23.09,23.09,0,0,0-12.13,2.38s2.36,6.74,1.73,9.62c1.41,18.54-1.75,29.82-4.93,36.92-6.63,12.18-23.15,22-32.93,25.32-14.87,4.22-22,3.27-36.31-1.92-4.39-4.24-21.12-8.2-30.16-35.2Z"/><path class="cls-8" d="M60.82,185.21a5.54,5.54,0,0,0,3,0,5.73,5.73,0,0,0,1.73-2.35c2-3.66,1.51-8.15.92-12.3l-.54-3.77a21.42,21.42,0,0,0-1.1-5,7.59,7.59,0,0,0-3.23-4,7.1,7.1,0,0,0-4.29-.75,10,10,0,0,0-5,1.4,7.28,7.28,0,0,0-2.56,3.75,22.05,22.05,0,0,0-.91,6.71,18.49,18.49,0,0,0,1.61,6.27,19,19,0,0,0,4.4,6.79A11,11,0,0,0,60.82,185.21Z"/><path class="cls-9" d="M57.18,161.11a5,5,0,0,1,2,.28A13.93,13.93,0,0,1,61.94,163c.08-.76-.48-1.36-1.16-2.31a4.35,4.35,0,0,0-1.24-1.14,4.9,4.9,0,0,0-2.44-.6,6.62,6.62,0,0,0-5.94,4.2c-1.07,2.43-.24,5.31.49,7.86,1.75,6.08,4.64,9.54,7.66,11.31.13.08,2.78,2,4,1.12a2.43,2.43,0,0,0,.4-.45,3.24,3.24,0,0,0,.52-2.38A2,2,0,0,0,62.33,179a1.87,1.87,0,0,1-.54,2.32,1.4,1.4,0,0,1-.79.13,9,9,0,0,1-1.67-.9,6.91,6.91,0,0,1-2.75-2.84,19.38,19.38,0,0,1-1.52-2.84,29.89,29.89,0,0,1-2.35-7.08c-.35-2.51.84-5.55,3.23-6.41A3.25,3.25,0,0,1,57.18,161.11Z"/><path class="cls-8" d="M169.24,186.63c-1,.18-2.46.73-3,.4a5.66,5.66,0,0,1-1.54-2.48c-1.77-3.8-.91-8.24,0-12.33l.81-3.73a22.09,22.09,0,0,1,1.47-4.87c.74-1.53,1.15-2.93,2.7-3.62a13,13,0,0,1,5.79-1.18c1.51.17,3.66.45,4.8,1.46s1.37,3.33,1.74,4.9a20.86,20.86,0,0,1,.07,6.6c-.17,2.09-1.34,4.33-2.24,6.22-1.22,2.54-3.35,3.79-5.48,5.64S171.67,186.21,169.24,186.63Z"/><path class="cls-9" d="M174.46,162.37a5.26,5.26,0,0,0-2.06.12,14.3,14.3,0,0,0-2.83,1.39c0-.77.57-1.32,1.33-2.21a4.35,4.35,0,0,1,1.32-1,4.87,4.87,0,0,1,2.48-.42,6.61,6.61,0,0,1,5.61,4.63c.89,2.5-.23,6.67-1.16,9.15-2.19,5.94-5.49,8.81-8.63,10.35-.14.07-2.93,1.81-4.1.82a2.41,2.41,0,0,1-.36-.48,3.26,3.26,0,0,1-.34-2.42,2,2,0,0,1,2-1.47,1.88,1.88,0,0,0,.37,2.35,1.55,1.55,0,0,0,.78.19,9.2,9.2,0,0,0,1.73-.78,9.56,9.56,0,0,0,3.52-3.11,20.73,20.73,0,0,0,1.73-2.71,30.38,30.38,0,0,0,2.86-6.9c.54-2.47-.75-6.09-3.06-7.13A3.73,3.73,0,0,0,174.46,162.37Z"/><path class="cls-10" d="M100,185.92a24.83,24.83,0,0,1-15.59-1.28,12.56,12.56,0,0,1-7.57-13c.59-5.68,6.06-10.8,11.83-11.3a22.34,22.34,0,0,1,16,4.57,11.31,11.31,0,0,1,4.56,11.3C108.48,181,105.68,184.1,100,185.92Z"/><path class="cls-10" d="M143.39,189A25,25,0,0,1,127,187.06c-4.54-2.19-5.79-6.35-5.75-11a10.23,10.23,0,0,1,6-9.69A21.68,21.68,0,0,1,145.8,166a11.87,11.87,0,0,1,7.12,11.26C152.55,183,149.69,186.88,143.39,189Z"/><path class="cls-11" d="M95.38,183A8.92,8.92,0,1,1,101,171.75,8.88,8.88,0,0,1,95.38,183Zm-8.89-8.63.06.8A6.11,6.11,0,0,0,91.34,181,5.79,5.79,0,0,0,98,177.54a6.28,6.28,0,0,0-2.09-7.36C94.34,169,91.36,168.91,90,170c-1.79-.92-3.07-.8-4,.39S85.22,172.8,86.49,174.4Z"/><path class="cls-12" d="M90,170c1.32-1.06,4.3-1,5.84.21A6.28,6.28,0,0,1,98,177.54,5.79,5.79,0,0,1,91.34,181a6.11,6.11,0,0,1-4.79-5.76l-.06-.8c1.38.55,2.74.74,3.78-.61A2.83,2.83,0,0,0,90,170Z"/><path class="cls-10" d="M90,170a2.83,2.83,0,0,1,.23,3.82c-1,1.35-2.4,1.16-3.78.61-1.27-1.6-1.42-2.86-.48-4S88.25,169.05,90,170Z"/><path class="cls-11" d="M135.72,186.39a8.94,8.94,0,1,1,9.49-8.25A8.95,8.95,0,0,1,135.72,186.39Zm-5.14-14.1c-.91,1.23-.7,2.5.65,4-.7,1.54.16,4.4,1.68,5.59a6.28,6.28,0,0,0,7.65.16,5.81,5.81,0,0,0,1.63-7.28,6.1,6.1,0,0,0-6.79-3.17l-.8.14C132.74,170.9,131.48,171.08,130.58,172.29Z"/><path class="cls-12" d="M131.23,176.29c-.7,1.54.16,4.4,1.68,5.59a6.28,6.28,0,0,0,7.65.16,5.81,5.81,0,0,0,1.63-7.28,6.1,6.1,0,0,0-6.79-3.17l-.8.14c.89,1.2,1.42,2.47.37,3.81A2.82,2.82,0,0,1,131.23,176.29Z"/><path class="cls-10" d="M131.23,176.29a2.82,2.82,0,0,0,3.74-.75c1.05-1.34.52-2.61-.37-3.81-1.86-.83-3.12-.65-4,.56S129.88,174.79,131.23,176.29Z"/><path class="cls-13" d="M101.3,202.85s-.92-1,.48-.34a28.41,28.41,0,0,0,17.8,1.88,13.79,13.79,0,0,0,2.73-.82c.26,0,.35.2-.07.41s-4.16,1.76-5.21,3.1a4.38,4.38,0,0,1-3.19,1.4,16.5,16.5,0,0,1-6.36-.81C105.31,206.42,105.41,204.77,101.3,202.85Z"/><path class="cls-14" d="M101,201.89s.25,1.45,4.78,2.85a27.08,27.08,0,0,0,12,.76,12.54,12.54,0,0,0,4.66-2Z"/><path class="cls-15" d="M106.51,206.88s4.18.78,5,.84,4.6-.06,5.8.58S108.25,210.76,106.51,206.88Z"/><path class="cls-16" d="M113.72,201.84c-1.58-.16-4.64-.44-6.23-.5a23.36,23.36,0,0,0-3.45.12,20.34,20.34,0,0,1-2.48.09,4.56,4.56,0,0,1-1-.13l-2-.48a.15.15,0,0,0-.12.27,12.77,12.77,0,0,1,4.78,6.33,5,5,0,0,0,.68,1.48,3.4,3.4,0,0,0,.75.67,9.05,9.05,0,0,0,4.47,1.49,29.65,29.65,0,0,0,4.32.26,14.42,14.42,0,0,0,5.42-1.49c.5-.25,1-1.19,1.42-1.57a21.46,21.46,0,0,0,1.61-2.26c1.47-1.86,3.53-2.49,4.86-3.4C122.72,203.12,118.69,202.36,113.72,201.84Zm8.52,2.14c-.42.21-4.16,1.76-5.21,3.1a4.38,4.38,0,0,1-3.19,1.4,16.5,16.5,0,0,1-6.36-.81c-2.17-1.25-2.07-2.9-6.18-4.82,0,0-.92-1,.48-.34a28.41,28.41,0,0,0,17.8,1.88,13.79,13.79,0,0,0,2.73-.82C122.57,203.52,122.66,203.77,122.24,204Z"/><path class="cls-11" d="M116.85,194c-4.72,2-9.8-1-12.08-4.37-1-1.43-.44-2.41,1.26-2.51a6.75,6.75,0,0,1,1.62.07,75.64,75.64,0,0,0,12.12,1c.81,0,1.73,0,2.14.82s-.25,1.64-.81,2.29A8.52,8.52,0,0,1,116.85,194Z"/><path class="cls-1" d="M87.62,149.26c4.27-1.14,8.82-1.58,13.32.43a9.58,9.58,0,0,1,1.13.63,1.3,1.3,0,0,1,.76,1.33c-.15.7-.83.56-1.34.53-1.73-.11-3.45-.24-5.17-.37-6.08-.48-11.16,1.89-15.8,5.52a10.81,10.81,0,0,1-1.62,1.07c-.39.21-.89.6-1.32.14s-.17-.94,0-1.39a8.75,8.75,0,0,1,2.71-3.59A22.11,22.11,0,0,1,87.62,149.26Z"/><path class="cls-1" d="M153.61,162.24c.38,1.14.91,2.3,0,2.82s-1.55-.67-2.13-1.3a62.93,62.93,0,0,0-4.38-4.57,21.14,21.14,0,0,0-12.12-5c-1.13-.13-2.26-.28-3.38-.47-.47-.08-1-.2-1.11-.78s.46-.91,1-1.13a9.59,9.59,0,0,1,4.45-.76c7.43.44,13.23,3.69,17.15,10.1A8.73,8.73,0,0,1,153.61,162.24Z"/></g></svg>