<svg xmlns="http://www.w3.org/2000/svg" viewBox="0 0 225 400"><defs><style>.cls-1{fill:#ec008c;}.cls-2{fill:#0c0807;}.cls-3{fill:#a56737;}.cls-4{fill:#488dcb;}.cls-5{fill:#9b5c31;}.cls-6{fill:#a46636;}.cls-7{fill:#d42027;}.cls-8{fill:#21b14b;}.cls-9{fill:#fde500;}.cls-10{fill:#9a5b2a;}.cls-11{fill:#6c401d;}.cls-12{fill:#faf8f7;}.cls-13{fill:#522f27;}.cls-14{fill:#060504;}.cls-15{fill:#600b0c;}.cls-16{fill:#f2ecec;}.cls-17{fill:#fff;}.cls-18{fill:#734725;}</style></defs><title>22</title><g id="Layer_2" data-name="Layer 2"><path class="cls-1" d="M114.32,78.39c-2.66-5.4-6.74-9-11.39-12.23-7.16-4.89-14.81-9.08-21.45-14.7-8.67-7.33-14.17-16.19-12.62-28.09C70,14.86,74.13,8.28,82.33,5.07c8.36-3.26,15.65-.57,22,5.12,4.33,3.87,7.27,8.79,9.72,14.14,2.22-3.47,4.09-6.94,6.47-10,7.78-10.08,18.55-13.24,27.82-8.41,9.43,4.91,14,17.5,10.54,29C156.82,41.75,152.47,47,147,51.55c-5.89,4.9-12.52,8.73-18.89,12.92C122.64,68.1,117.35,72,114.32,78.39Z"/><path class="cls-2" d="M94.47,377.77c.65-.15.71.36.77.76.72,4.53.52,9-1.77,13.07s-6.26,5.47-10.77,5a10,10,0,0,0-5.28.82c-5.74,2.47-11.78,2.58-17.86,1.6-3.2-.52-6.39-1.16-9.18-3-6.7-4.43-5.15-12.9-1.26-16.49,2.56-2.36,5.7-3.75,8.85-5.06a68.72,68.72,0,0,1,7.48-2.69,29.47,29.47,0,0,0,6-2.68A36,36,0,0,1,83.5,382c1,2,1,2,3,1.08C89.42,381.71,92.44,380.47,94.47,377.77Zm-26.82,9.31a15.37,15.37,0,0,0,7.15-.39c1.37-.29,3.41-.12,3.93-1.09.61-1.16-.88-2.6-1.57-3.83-2.09-3.71-4.55-7.12-8.45-9.18a1.93,1.93,0,0,0-2.12-.17A21.3,21.3,0,0,0,62,376c-2.58,2.82-2.5,5.6.23,8.26A13.24,13.24,0,0,0,67.65,387.08Z"/><path class="cls-3" d="M94.47,377.77c-2,2.7-5,3.94-8,5.31-2,.93-2,.89-3-1.08a36,36,0,0,0-12-12.89c2.65-2.27,3.83-5.46,5.25-8.48,1.86-4,11.18-32.52,13-36.51,3.14.91,6.16,2.2,9.42,2.69,3,.45,5.94.93,8.9,1.39-1.71,5.75-11.17,36-12.47,41.87A43.45,43.45,0,0,0,94.47,377.77Z"/><path class="cls-3" d="M67.65,387.08a13.24,13.24,0,0,1-5.46-2.86c-2.73-2.66-2.81-5.44-.23-8.26a21.3,21.3,0,0,1,4.63-3.54,1.93,1.93,0,0,1,2.12.17c3.9,2.06,6.36,5.47,8.45,9.18.69,1.23,2.18,2.67,1.57,3.83-.52,1-2.56.8-3.93,1.09A15.37,15.37,0,0,1,67.65,387.08Z"/><path class="cls-2" d="M161,369.58c.11,0,.24,0,.32,0,4.81,3,10.6,3.66,15.56,6.32l4.28,2.33c5.92,3.22,6.53,11.72,4,15.48-2,2.95-4.9,4.33-8.16,5.14a36,36,0,0,1-22.29-1.42,3.6,3.6,0,0,0-2.2-.06c-4.23.87-8.32.33-10.7-3.49-2.83-4.54-4.79-9.56-3.54-15.19a24.6,24.6,0,0,0,8.54,5.4c.92.37,1.46.26,1.9-.72a31.52,31.52,0,0,1,8.21-10.49C158.25,371.72,159.87,370.94,161,369.58Zm3.24,18.11a11.58,11.58,0,0,0,5.23-2.09c3.1-2.1,4.33-5.45,1.45-8.82a24.61,24.61,0,0,0-4.51-3.65,1.89,1.89,0,0,0-2.23-.08c-5.22,2.7-7.89,7.51-10.43,12.44-.27.54-.07.82.46.93C157.56,387.1,160.82,388.25,164.28,387.69Z"/><path class="cls-3" d="M161,369.58c-1.17,1.36-2.79,2.14-4.11,3.32a31.52,31.52,0,0,0-8.21,10.49c-.44,1-1,1.09-1.9.72a24.6,24.6,0,0,1-8.54-5.4c0-4.87-2.05-9.21-3.45-13.73-.81-2.63-1.6-5.26-2.4-7.89,6.59-.56,13-1.74,19.07-4.54,2.19,4.46,4,9.1,6.69,13.32C159,367.2,160.11,368.34,161,369.58Z"/><path class="cls-3" d="M164.28,387.69c-3.46.56-6.72-.59-10-1.27-.53-.11-.73-.39-.46-.93,2.54-4.93,5.21-9.74,10.43-12.44a1.89,1.89,0,0,1,2.23.08,24.61,24.61,0,0,1,4.51,3.65c2.88,3.37,1.65,6.72-1.45,8.82A11.58,11.58,0,0,1,164.28,387.69Z"/><path class="cls-4" d="M77.22,358.35l.13,0c1,.3,2.11.46,3.17.66l3.63.69a28.13,28.13,0,0,0,5.18.41c3,0,6.1.22,9.15.26a12,12,0,0,1,2.32.15,3.38,3.38,0,0,0,.71.1c1.65,0,3.3-.21,5-.2a29.59,29.59,0,0,1,4.89.5c1.9.34,16.42,4,23.56,3.57s16.29,0,21.6-5.42a209.71,209.71,0,0,1-4-27.7,245.46,245.46,0,0,0-7.66-43.49c-2.88-9.75-3.45-35.36-3.45-35.36s2.37-18.4-.91-23.62c-3.55-5.66-15.88-6-27.39-5.54a100.9,100.9,0,0,0-25.89,4.85c-3,1.09-4.47,29.65-4.7,35.42s.8,29.78.15,37.85c-.29,3.61-.68,7.22-1.07,10.83a18.31,18.31,0,0,0-.29,3.91,12.78,12.78,0,0,1-.44,3.52c-.31,1.69-.74,3.34-1.15,5a40.13,40.13,0,0,1-1.52,5.33,36,36,0,0,1-1.76,4.49,36.13,36.13,0,0,1-2.53,4.81,18.77,18.77,0,0,0-1.36,2.17,18.18,18.18,0,0,1-1.37,1.89c-.51.7-.87,1.48-1.41,2.17-.83,1.07-1.81,2.1-2.66,3.15s-1.58,1.76-2.36,2.66a1.52,1.52,0,0,0-.32,1.93c1,1.57,3.64,1.64,5.21,2.14s3.2,1.14,4.79,1.68a6.79,6.79,0,0,1,1.59.61A4.17,4.17,0,0,0,77.22,358.35Z"/><path class="cls-5" d="M95,261.11c4.17,2.8,8.65,4.35,14.11,6.71.3.13.3.62,0,.66-3.17.49-9.79-.21-13.45,2.09a1.63,1.63,0,0,0-.66,1.67c.22,1.14,1.86,1.44,3.14,1.68l13.08.23c1,.12,1.57-.06,1.6.51s-1,.32-1.42.5a35,35,0,0,1-4.92,2,9.49,9.49,0,0,0-1.94,1.46,1.54,1.54,0,0,0,1.09,2.33,17,17,0,0,0,6.22-.28c3.16-.53,6.39-1.18,9.54-1.71,1.66-.28,2.94-.75,4.63,0,2.12,1,5.06,2.19,7.09,3.32C143.4,288,150.79,265.92,147,254.46c-.73-2.2-1.35-5.15-3.58-5.77a4.83,4.83,0,0,0-2.53.08,6.54,6.54,0,0,0-4.2,3,11,11,0,0,0,.52,11.38c1.2,1.71-.22,1.71-.22,1.71s-3.87-2.24-4.84-4.2c-2-4-3.91-8.49-7.08-11.84a2.17,2.17,0,0,0-3-.23,3.39,3.39,0,0,0-.93,2.91,34.41,34.41,0,0,1,0,5.18c-.48,1.21-2.63-.12-3.75-1.2a35.61,35.61,0,0,0-8.42-5.84c-1.5-.78-3.36-1.88-4.34-.5-.54.76.07,2.09.55,2.88a21.92,21.92,0,0,0,2.4,2.8,71.26,71.26,0,0,1,5.32,5.85c0,.78-4.43-.67-10.16-1.9-.4-.08-8.67-2.08-9.3-.23C93.16,259.39,94.24,260.63,95,261.11Z"/><path class="cls-6" d="M131.59,260.38c-3.62,3.48-7.76,5.78-12.73,9.05-.27.18-.19.66.14.65,3.2-.07,9.6-1.91,13.6-.28a1.64,1.64,0,0,1,.94,1.53c0,1.16-1.58,1.74-2.8,2.2L117.9,276c-1,.28-1.55.22-1.49.78s1.08.14,1.49.24a34.32,34.32,0,0,0,5.19,1.13,9.16,9.16,0,0,1,2.16,1.1,1.53,1.53,0,0,1-.66,2.48,16.9,16.9,0,0,1-6.18.81c-3.2,0-6.49-.05-9.69,0-1.68,0-3-.23-4.55.82-1.93,1.3-4.6,3-6.41,4.49-9.21,7.44-29.54,9-19.84-32.9.52-2.26.82-5.26,3-6.1a4.9,4.9,0,0,1,2.52-.18,6.57,6.57,0,0,1,4.48,2.6c2.24,3.15,1.28,7.35.63,11.38-1.89,11.78-5.85,17.42,2.34,8.74,1.5-1.59,3.43-2.88,4-5,1.23-4.24,2.38-9,4.92-12.89a2.16,2.16,0,0,1,2.88-.74,3.38,3.38,0,0,1,1.42,2.71,35.4,35.4,0,0,0,.9,5.1c.69,1.11,2.57-.58,3.49-1.84a36,36,0,0,1,7.27-7.21c1.35-1,3-2.43,4.2-1.24.65.65.29,2.06,0,2.92a22.14,22.14,0,0,1-1.88,3.18,75.22,75.22,0,0,0-4.22,6.68c.13.77,4.24-1.42,9.68-3.63.37-.15,8.18-3.55,9.11-1.84C133.06,258.37,132.21,259.78,131.59,260.38Z"/><path class="cls-4" d="M97.48,239.11a8.31,8.31,0,0,1-.27,2.85c-.48,1.91-2.32,3-3.17,5a22,22,0,0,0-1.58,8.4A2.17,2.17,0,0,1,90.68,258a13,13,0,0,1-8.34.16c-1.72-.45-3.3-1.1-5-1.65a2.69,2.69,0,0,1-1.89-1.34,8.44,8.44,0,0,1-.3-2.14,33.76,33.76,0,0,0-1.31-8c-.74-3.13-.81-5.66.29-8.37a14.06,14.06,0,0,1,3.46-4.78,16,16,0,0,1,6.1-3.93,8.9,8.9,0,0,1,7.08.53,14.2,14.2,0,0,1,3.11,2.69,13.49,13.49,0,0,1,2.73,3.61A13.05,13.05,0,0,1,97.48,239.11Z"/><path class="cls-4" d="M125.75,244.33a8.34,8.34,0,0,0,1.51,2.42c1.28,1.5-.24.88,1.42,2.29a22.17,22.17,0,0,1,5.16,6.82,3.55,3.55,0,0,0,1,1.42,3.43,3.43,0,0,0,1.75.18,12.92,12.92,0,0,0,7.53-3.57c1.34-1.17,2.47-2.46,3.74-3.71a2.67,2.67,0,0,0,1.1-2,8,8,0,0,0-.69-2.05,33.64,33.64,0,0,1-2.39-7.77c-.74-3.13-1.8-5.43-4-7.37a14.3,14.3,0,0,0-5.22-2.74c-2.33-.73-1.16-.4-3.58,0a8.92,8.92,0,0,0-6.11,3.63,14.54,14.54,0,0,0-1.58,3.79,13.7,13.7,0,0,0-.84,4.45A13.16,13.16,0,0,0,125.75,244.33Z"/><polygon class="cls-7" points="134.93 227.91 128.78 226.67 92.75 226.63 89.25 227.06 90.88 245.76 132 245.59 134.93 227.91"/><path class="cls-8" d="M130.45,226.89l-4.83-1.33-28.86-.11a20.22,20.22,0,0,0-2,.65l-2,.39,1.77,14.72,33.84-.42Z"/><polygon class="cls-9" points="125.92 225.55 119.46 223.85 100.29 224.15 96.75 225.32 98.37 237.19 124.78 236.79 125.92 225.55"/><path class="cls-6" d="M102.11,233.77l-1.6-9.1s3-.49,4-3.1,2.27-5.9,9-5.83c6.46.06,4.92,3,5.26,4.16a29.34,29.34,0,0,1,.58,3,2.69,2.69,0,0,0,2.26,2.37c1.64.4-.84,7.46-.84,7.46Z"/><path d="M106.09,216.32s-15.24,10.74-20.21,20.52c0,0,1.34-19.24.72-24.74,0,0-11.24,17.29-25.5,18.93a28.12,28.12,0,0,0,10.78-26.26s-24.26-11.12-34.34-34.05c0,0,10.91-23.13,14.51-27.06,0,0-5.81-19,1.14-28.09,0,0,20.21-10.52,32.16-7.66,0,0,9.17-14.36,26.69-19.17,0,0,26.61,6.17,32.83,20.16,0,0,27.35,7,31.38,8.6,0,0,8,18.19,2.42,30.14,0,0,9.91,16.4,8.69,24.32,0,0-12.9,19.62-27.36,25.17s1.05,37.68,1.05,37.68-14.41-14.26-23.29-17.45a119.43,119.43,0,0,1,3.89,19.57S124.92,212.72,106.09,216.32Z"/><path class="cls-10" d="M57.71,163.4l1.9-11.86a3.79,3.79,0,0,0-1-2.36c-.93-.78-4.82-4.25-4.82-4.25s5.21.62,7,1.93c.68.09.89.65,1.58-.32s9-11.83,9-11.83,14.63-7,16.61-8.28,2.46-1.72,2-4.18-1.86-8.36-2.2-9.44c0,0,5.22,9.92,5.74,11.28s2.06.55,2.43.41,18-5.2,18-5.2a4,4,0,0,1,2.29,0c1.69.35,16,3.94,18.45,5.4.89.3,1.3.07,1.58-.32s6.72-6.33,8.11-9c0,0-3.43,8.26-3.55,9.79-.5,1.47.6,1.19.93,1.49S153,133.65,153,133.65l6.53,14.8s11-2.47,14.86-.46a23.14,23.14,0,0,0-12,2.85s2.62,6.65,2.1,9.54c2.12,18.48-.6,29.87-3.5,37.09-6.16,12.43-22.29,22.87-31.93,26.57-14.7,4.79-21.82,4.11-36.36-.52-4.55-4.07-21.42-7.38-31.49-34Z"/><path class="cls-10" d="M57.84,189.52a5.54,5.54,0,0,0,3-.09A5.64,5.64,0,0,0,62.47,187c1.9-3.74,1.19-8.2.45-12.32l-.68-3.76a22.45,22.45,0,0,0-1.3-4.92,7.66,7.66,0,0,0-3.38-3.84,7.16,7.16,0,0,0-4.32-.57,9.91,9.91,0,0,0-5,1.59A7.3,7.3,0,0,0,45.86,167a22.17,22.17,0,0,0-.66,6.74A18.85,18.85,0,0,0,47.05,180a19.13,19.13,0,0,0,4.67,6.61A11,11,0,0,0,57.84,189.52Z"/><path class="cls-11" d="M53.26,165.58a5.07,5.07,0,0,1,2.06.19,13.42,13.42,0,0,1,2.77,1.49c.06-.76-.52-1.34-1.24-2.26a4.51,4.51,0,0,0-1.29-1.09,4.83,4.83,0,0,0-2.46-.51,6.6,6.6,0,0,0-5.77,4.43c-1,2.46,0,5.31.79,7.83,2,6,5,9.36,8.09,11,.14.07,2.86,1.92,4.07,1a2.52,2.52,0,0,0,.38-.47,3.19,3.19,0,0,0,.42-2.39,2,2,0,0,0-2-1.55,1.88,1.88,0,0,1-.45,2.33,1.55,1.55,0,0,1-.79.17,10,10,0,0,1-1.71-.84,6.87,6.87,0,0,1-2.85-2.73,20.48,20.48,0,0,1-1.64-2.78,30.2,30.2,0,0,1-2.61-7c-.45-2.49.63-5.57,3-6.53A3.48,3.48,0,0,1,53.26,165.58Z"/><path class="cls-10" d="M166.23,186.76c-1,.21-2.43.83-3,.51a5.76,5.76,0,0,1-1.64-2.42c-1.91-3.72-1.22-8.19-.49-12.31l.67-3.76a22,22,0,0,1,1.29-4.93c.67-1.56,1-3,2.55-3.72a12.89,12.89,0,0,1,5.74-1.4c1.51.11,3.68.31,4.85,1.28s1.5,3.27,1.93,4.82a20.83,20.83,0,0,1,.32,6.6c-.09,2.09-1.16,4.37-2,6.29-1.12,2.59-3.2,3.93-5.26,5.85S168.64,186.25,166.23,186.76Z"/><path class="cls-11" d="M170.51,162.32a5.07,5.07,0,0,0-2.06.2,13.17,13.17,0,0,0-2.76,1.5c-.07-.77.51-1.35,1.23-2.27a4.51,4.51,0,0,1,1.28-1.1,4.87,4.87,0,0,1,2.47-.51,6.61,6.61,0,0,1,5.78,4.41c1,2.46,0,6.67-.8,9.19-2,6-5.16,9-8.23,10.67-.14.07-2.86,1.93-4.06,1a1.91,1.91,0,0,1-.38-.47,3.22,3.22,0,0,1-.44-2.4,2,2,0,0,1,2-1.55,1.87,1.87,0,0,0,.46,2.33,1.41,1.41,0,0,0,.79.16,9.25,9.25,0,0,0,1.7-.84,9.64,9.64,0,0,0,3.39-3.24,20.41,20.41,0,0,0,1.63-2.78,30,30,0,0,0,2.59-7c.44-2.5-1-6.07-3.33-7A3.28,3.28,0,0,0,170.51,162.32Z"/><path class="cls-12" d="M97,188.72A24.91,24.91,0,0,1,81.37,188a12.54,12.54,0,0,1-8.06-12.69c.37-5.71,5.64-11,11.38-11.76a22.37,22.37,0,0,1,16.17,4,11.31,11.31,0,0,1,5,11.11C105.29,183.44,102.61,186.68,97,188.72Z"/><path class="cls-12" d="M140.49,190.11A25,25,0,0,1,124,188.82c-4.63-2-6-6.13-6.17-10.76a10.23,10.23,0,0,1,5.63-9.92A21.68,21.68,0,0,1,142,167.05a11.86,11.86,0,0,1,7.55,11C149.41,183.78,146.7,187.76,140.49,190.11Z"/><path class="cls-13" d="M92.28,186a8.92,8.92,0,1,1,5.14-11.49A8.88,8.88,0,0,1,92.28,186Zm-9.21-8.29.09.8a6.1,6.1,0,0,0,5,5.58,5.79,5.79,0,0,0,6.49-3.68,6.28,6.28,0,0,0-2.38-7.28c-1.58-1.1-4.56-1.09-5.84,0-1.82-.86-3.1-.69-4,.54S81.73,176.18,83.07,177.72Z"/><path class="cls-14" d="M86.44,173.17c1.28-1.12,4.26-1.13,5.84,0a6.28,6.28,0,0,1,2.38,7.28,5.79,5.79,0,0,1-6.49,3.68,6.1,6.1,0,0,1-5-5.58l-.09-.8c1.4.5,2.77.64,3.75-.75A2.82,2.82,0,0,0,86.44,173.17Z"/><path class="cls-12" d="M86.44,173.17a2.82,2.82,0,0,1,.38,3.8c-1,1.39-2.35,1.25-3.75.75-1.34-1.54-1.53-2.79-.63-4S84.62,172.31,86.44,173.17Z"/><path class="cls-13" d="M132.72,187.81a8.94,8.94,0,1,1,9.17-8.61A8.94,8.94,0,0,1,132.72,187.81ZM127,173.92c-.86,1.26-.6,2.52.8,4-.63,1.57.33,4.39,1.9,5.52a6.25,6.25,0,0,0,7.65-.14,5.78,5.78,0,0,0,1.35-7.33,6.1,6.1,0,0,0-6.91-2.91l-.79.18C129.14,172.45,127.9,172.67,127,173.92Z"/><path class="cls-14" d="M127.84,177.89c-.63,1.57.33,4.39,1.9,5.52a6.25,6.25,0,0,0,7.65-.14,5.78,5.78,0,0,0,1.35-7.33,6.1,6.1,0,0,0-6.91-2.91l-.79.18c.94,1.16,1.51,2.41.52,3.79A2.82,2.82,0,0,1,127.84,177.89Z"/><path class="cls-12" d="M127.84,177.89a2.82,2.82,0,0,0,3.72-.89c1-1.38.42-2.63-.52-3.79-1.9-.76-3.14-.54-4,.71S126.44,176.44,127.84,177.89Z"/><path class="cls-15" d="M99,205.59s-1-1,.47-.36a28,28,0,0,0,8.75,2,28.31,28.31,0,0,0,9.11-.84,15.38,15.38,0,0,0,2.7-.92c.25-.07.35.18-.06.41s-4.08,1.92-5.08,3.29a4.44,4.44,0,0,1-3.14,1.53,16.49,16.49,0,0,1-6.39-.57C103.1,209,103.15,207.35,99,205.59Z"/><path class="cls-16" d="M98.66,204.63s.31,1.45,4.89,2.67a27.21,27.21,0,0,0,12.07.3,12.63,12.63,0,0,0,4.57-2.22Z"/><path class="cls-17" d="M104.33,209.41s4.21.62,5.07.65,4.59-.24,5.81.35S106.22,213.23,104.33,209.41Z"/><path class="cls-18" d="M111.33,204.1c-1.58-.1-4.65-.27-6.24-.27a24.78,24.78,0,0,0-3.44.26,19.92,19.92,0,0,1-2.47.19,4.61,4.61,0,0,1-1.05-.09l-2.06-.4a.15.15,0,0,0-.11.27,12.75,12.75,0,0,1,5,6.14,5.42,5.42,0,0,0,.74,1.46,3.42,3.42,0,0,0,.78.63,9,9,0,0,0,4.52,1.32,31.13,31.13,0,0,0,4.32.1A14.28,14.28,0,0,0,116.7,212c.5-.27,1-1.22,1.37-1.62a26.48,26.48,0,0,0,1.52-2.32c1.39-1.92,3.42-2.62,4.72-3.58C120.37,205,116.32,204.43,111.33,204.1Zm8.6,1.81c-.41.23-4.08,1.92-5.08,3.29a4.44,4.44,0,0,1-3.14,1.53,16.49,16.49,0,0,1-6.39-.57c-2.22-1.17-2.17-2.81-6.36-4.57,0,0-1-1,.46-.36a28.5,28.5,0,0,0,17.87,1.19,15.38,15.38,0,0,0,2.7-.92C120.24,205.43,120.34,205.68,119.93,205.91Z"/><path class="cls-13" d="M114.16,196.1c-4.64,2.17-9.83-.57-12.24-3.9-1-1.39-.53-2.39,1.16-2.56a7.31,7.31,0,0,1,1.62,0,74.79,74.79,0,0,0,12.15.52c.81,0,1.73-.1,2.17.74s-.18,1.65-.72,2.32A8.49,8.49,0,0,1,114.16,196.1Z"/><path class="cls-2" d="M83.23,152.56c4.23-1.3,8.76-1.92,13.32-.08a10.46,10.46,0,0,1,1.16.58,1.31,1.31,0,0,1,.81,1.3c-.12.71-.8.59-1.32.58-1.73,0-3.46-.1-5.18-.17-6.1-.24-11.08,2.33-15.58,6.13A10.24,10.24,0,0,1,74.87,162c-.39.22-.86.63-1.32.19s-.2-.93-.07-1.38a8.64,8.64,0,0,1,2.57-3.69A22.24,22.24,0,0,1,83.23,152.56Z"/><path class="cls-2" d="M149.66,163c.43,1.13,1,2.27.16,2.81s-1.57-.61-2.17-1.21c-1.49-1.49-2.92-3.05-4.55-4.4a21.15,21.15,0,0,0-12.31-4.51c-1.13-.09-2.26-.2-3.39-.34-.48-.06-1-.16-1.14-.74s.43-.92.93-1.16a9.49,9.49,0,0,1,4.41-.93c7.45.15,13.36,3.18,17.53,9.43A7.27,7.27,0,0,1,149.66,163Z"/></g></svg>