<svg id="Layer_1" data-name="Layer 1" xmlns="http://www.w3.org/2000/svg" xmlns:xlink="http://www.w3.org/1999/xlink" viewBox="0 0 1024 600"><defs><style>.cls-1{fill:none;}.cls-2{clip-path:url(#clip-path);}.cls-3{fill:#a46636;}.cls-4{fill:#895430;}.cls-5{fill:#0798ff;}.cls-6{fill:#d60000;}.cls-7{fill:#06b800;}.cls-8{fill:#ffe700;}.cls-9{fill:#a56636;}.cls-10{fill:#6c401d;}.cls-11{fill:#faf8f7;}.cls-12{fill:#600b0c;}.cls-13{fill:#f2ecec;}.cls-14{fill:#fff;}.cls-15{fill:#734725;}.cls-16{fill:#522f27;}.cls-17{fill:#0c0807;}.cls-18{fill:#060504;}</style><clipPath id="clip-path"><rect class="cls-1" width="1024" height="600"/></clipPath></defs><title>Akili_wave</title><g class="cls-2"><path class="cls-3" d="M367.89,477.78s112.42,45.47,152.3,46.47a98.38,98.38,0,0,1,40.52,1.43,38.08,38.08,0,0,1,4.54,1.92l39.27-4.92s7.66-1.07,8.15,5.29c0,0,1.62,4.21-14.74,7.44l-25.41,5.7-4.46,1.29-.13,2.71L600.65,548s14.24-1.33,15.71,5.3c0,0,2.94,7.93-17.41,7.44l-34.75-.21q-.44.19-.9.36s2.93,9.71-9.17,11.67c0,0-2.5,8.54-11.85,8.1,0,0-14.92,1.51-33.26-8.4,0,0-123.57-50.07-148.24-74.22,0,0-8.65-5.17-2.3-15.79C358.48,482.25,362.23,476.75,367.89,477.78Z"/><path class="cls-4" d="M539.58,568.38c-1.53-3.1-2.69-6.14-4.18-9a31.09,31.09,0,0,0-2.42-4.1,15.91,15.91,0,0,0-3.39-3.48,8.29,8.29,0,0,1,4.7,2.31,14.68,14.68,0,0,1,3.12,4.25,20.15,20.15,0,0,1,1.73,4.88A17.38,17.38,0,0,1,539.58,568.38Z"/><path class="cls-3" d="M557.68,557.6l39.5,14.3s10.09,2.37,7.31,9.94c0,0-2.37,5-15.35.68l-35.55-10.95.91-8.85Z"/><path class="cls-3" d="M543.72,567.06l37.14,19.61s9.67,3.74,5.87,10.86c0,0-3,4.63-15.29-1.45l-33.7-15.74,2.11-8.65Z"/><path class="cls-3" d="M522.74,524.35s20.07-16.65,34.18-20.88c0,0,16.82-.79-5.94,23.84l-21.06,11.07-7.41-12.64"/><path class="cls-4" d="M550.34,530.35a23.13,23.13,0,0,1-3,5.5,27.12,27.12,0,0,1-4.22,4.68,20.67,20.67,0,0,1-5.35,3.47,12.52,12.52,0,0,1-6.24,1.1,27.28,27.28,0,0,0,5.42-2.65,43.86,43.86,0,0,0,4.68-3.61C544.64,536.22,547.36,533.28,550.34,530.35Z"/><path class="cls-4" d="M547.33,576.11a53.39,53.39,0,0,0,7.4-9.45,49,49,0,0,0,5-10.72,24.37,24.37,0,0,0,.86-2.83,27.88,27.88,0,0,0,.69-2.87l.55-2.92c.15-1,.2-2,.33-3a59.22,59.22,0,0,0,.29-6l0-.76,0-.75-.08-1.51c0-1-.08-2-.1-3q.38,1.47.72,3l.33,1.5.16.76.08.76a38.26,38.26,0,0,1,.36,6.15,38.8,38.8,0,0,1-2.05,12.2c-.37,1-.69,2-1.09,2.91s-.87,1.89-1.32,2.82-1,1.79-1.56,2.69-1.16,1.71-1.74,2.56A33.15,33.15,0,0,1,547.33,576.11Z"/><path class="cls-3" d="M224.62,374.82s-96.79-73.05-118.15-106.74a98.36,98.36,0,0,0-22.06-34,38.78,38.78,0,0,0-4-2.92l-16-36.21s-3-7.12-8.74-4.26c0,0-4.44.77,1.2,16.46l8.18,24.72,1.18,4.49L64,237.86l-19.3-26.58s-6.18-12.9-12.62-10.75c0,0-8.31,1.55,2.57,18.75l18,29.71a8.64,8.64,0,0,0,.15,1s-9.84,2.47-5.29,13.86c0,0-6.05,6.53-.86,14.32,0,0,6.37,13.58,24.3,24.22,0,0,106.47,80.25,139.88,89,0,0,8.87,4.76,14.72-6.15C225.63,385.19,228.42,379.15,224.62,374.82Z"/><path class="cls-4" d="M58.65,274.14a17.32,17.32,0,0,1,4.63-2.27,20.18,20.18,0,0,1,5.08-1,14.42,14.42,0,0,1,5.25.49A8.17,8.17,0,0,1,78,274.18a16.25,16.25,0,0,0-4.73-1.12,30.29,30.29,0,0,0-4.76,0C65.3,273.29,62.09,273.86,58.65,274.14Z"/><path class="cls-3" d="M58.59,253.07,26,226.54s-7.22-7.43-12.29-1.16c0,0-3.07,4.6,7.31,13.52l27.67,24.86,7.13-5.33Z"/><path class="cls-3" d="M57.65,269.91,21.74,248.13s-8.18-6.36-12.33.55c0,0-2.41,5,9.1,12.38l30.83,20.8,6.33-6.25Z"/><path class="cls-3" d="M105.07,266s4-25.78.34-40.06c0,0-8-14.83-17.39,17.36L89.35,267l14.65-.14"/><path class="cls-4" d="M85.74,245.35c-1,4.07-2.11,7.92-2.81,11.84a44.89,44.89,0,0,0-.69,5.88,27,27,0,0,0,.52,6,12.45,12.45,0,0,1-2.27-5.91,20.59,20.59,0,0,1,.23-6.37,26.16,26.16,0,0,1,1.85-6A22.64,22.64,0,0,1,85.74,245.35Z"/><path class="cls-4" d="M48,271.46a33.07,33.07,0,0,1,2.72-11.94c.43-.94.8-1.91,1.3-2.81s1-1.83,1.51-2.72,1.16-1.72,1.74-2.58,1.29-1.62,1.93-2.44a39.08,39.08,0,0,1,9.41-8,41.06,41.06,0,0,1,5.46-2.85l.7-.32.73-.25L75,237c1-.32,2-.62,2.92-.9-.89.5-1.77,1-2.66,1.48l-1.34.7-.67.35-.63.42a56.52,56.52,0,0,0-5,3.32c-.79.61-1.61,1.17-2.37,1.8l-2.22,2a25.89,25.89,0,0,0-2.11,2.08,21.72,21.72,0,0,0-2,2.19,48.52,48.52,0,0,0-6.6,9.82A53.53,53.53,0,0,0,48,271.46Z"/><path class="cls-5" d="M325.05,498a21.9,21.9,0,0,0,6.21,4.14c4.65,2.18,9.82.22,15.28,1.81a57.15,57.15,0,0,1,19.62,10.71,9.51,9.51,0,0,0,4,2.27c1.11.19,3.38-.88,4.35-1.46,7.1-4.28,10.8-9.37,14.11-16.6,1.93-4.23,3.23-8.5,4.92-12.84.82-2.11,1.44-4,.42-6a20.88,20.88,0,0,0-3.84-4.14c-5.87-4.9-9.38-9.86-14-15.93-5.12-6.68-10.13-11-17.43-13.27-4.94-1.53-10.25-1.51-15.39-.91-6.33.74-12.67,2.39-18,5.86s-9.63,8.91-10.66,15.2c-.59,3.54-.14,7.17.31,10.73.49,3.94,1,8,2.78,11.5S322.26,495.27,325.05,498Z"/><path class="cls-5" d="M220.12,418.68a21.8,21.8,0,0,1-6-4.44c-3.63-3.63-2.32.46-5.67-4.13a57.17,57.17,0,0,0-16.74-14.82,9.43,9.43,0,0,1-3.49-3c-.57-1-.33-3.48-.11-4.59,1.61-8.13,5.14-13.34,10.81-18.91,3.33-3.26,6.9-5.93,10.41-9,1.71-1.5,3.27-2.72,5.52-2.45a21.23,21.23,0,0,1,5.21,2.2c6.6,3.86,12.46,5.48,19.74,7.79,8,2.55,13.8,5.79,18.4,11.88,3.13,4.13,4.91,9.13,6.09,14.17,1.45,6.2.83,3.11-.61,9.32S258.56,414.79,253,417.9a37.72,37.72,0,0,1-10.2,3.36c-3.87.87-7.83,1.75-11.77,1.29S223.6,420.38,220.12,418.68Z"/><path class="cls-5" d="M252.94,755.62s-37.55-5.57-59.73-20.24-29.8-16.36-34.64-17.75-43.08-9.58-59.35-18.77S58.29,676.78,52.11,658a291.38,291.38,0,0,0,44-57c20.17-34.24,50.1-73.6,68.08-93.15s48.83-79,48.83-79,15.26-44.4,29-52.87c14.83-9.18,36.88,2.55,71,17.1,27.69,11.8,49.22,35.14,55.12,41.19s-23.66,74.68-29.78,88.47-36.18,68.93-43.94,88.6-18.59,62.12-23.64,83C265.61,715.48,252.94,755.62,252.94,755.62Z"/><polygon class="cls-6" points="256.16 375.74 272.01 379.91 356.57 421.32 364.27 426.38 338.93 468.36 242.67 420.56 256.16 375.74"/><path class="cls-7" d="M267.86,378.5l12.85,2.44,67.82,33c1.46.87,3.63,3.88,3.86,3.81l4.19,3.19-21.1,32.48-78.87-40Z"/><polygon class="cls-8" points="280.02 380.58 297.12 384.05 341.73 406.82 348.7 413.64 331.23 439.62 269.73 408.26 280.02 380.58"/><path class="cls-9" d="M326.81,430,341,410.51s-6.55-4.64-5.84-11.9,1.46-16.44-14.31-24c-15.22-7.3-15,1.27-17.13,3.7a76.44,76.44,0,0,0-4.84,6.39s-2.25,4.24-8,2.95c-4.31-1-6.64,18.46-6.64,18.46Z"/><path d="M347,370.61s22,43.45,21.53,72.1c0,0,20.45-46,28.63-58,0,0,4.77,53.66,35.68,74.91,0,0-19.21-36.26,7.28-73.8,0,0,69.61,4.05,121-36.56,0,0,3.12-66.73-.37-80.21,0,0,36.75-36.83,31.78-66.23,0,0-33.78-49-64.86-57.07,0,0-3.57-44.38-38.12-76.92,0,0-69-18.36-100.48,6.33,0,0-71.64-17.43-83-18.58,0,0-40.84,32.14-42.47,66.6,0,0-43,25.74-49.85,45.49,0,0,5.73,61.09,32.33,91.61S197.49,346,197.49,346s50.71-15.27,75.12-11.75c0,0-19,19.29-33,40.4C239.66,374.63,307.94,339.23,347,370.61Z"/><path class="cls-9" d="M523.46,307.71,533.6,278s2.2-3.53,5.31-4.18,16.33-3.9,16.33-3.9-12.78-4.93-18.48-4.09c-1.67-.61-2.85.42-3.25-2.68s-6.31-38.32-6.31-38.32S502,190.85,499,185.37s-3.56-7,.47-12.1,14.53-17,16.64-19.09c0,0-24.19,16.48-27.06,19s-5.43-1.23-6.11-2-35.18-34.06-35.18-34.06-1-1.41-5.33-2.69-41.71-10.47-49.21-10.13c-2.42-.41-3.09-1.44-3.25-2.68s-7.75-22.84-7.7-30.69c0,0-2.21,23.27-3.81,27-.65,4-2.84,2-4,2.3s-34.6,2.16-34.6,2.16l-33.19,26.16s-22.47-19.2-33.75-19.24c0,0,15.24,6.69,24.29,21.29,0,0-14.2,12.14-16.55,19.46-27.52,40-35.2,69.68-37.32,89.88-1,36.23,23.43,80.09,41.16,100.44,28.05,29.06,45.32,36.22,84.56,43.33,15.47-3.84,58.47,9.17,114.33-39.95Z"/><path class="cls-9" d="M491.18,367.84c-2.52-.73-6-2.47-6.81-3.88-1.25-2-.86-5.18-.81-7.58.19-10.94,7.28-20.39,14.05-29l6.17-7.83a57.33,57.33,0,0,1,9-9.77c3.49-2.76,8.05-4.86,12.5-4.72s6.83,1.54,10.67,4c3.36,2.11,8,6.08,9.53,9.76a19.08,19.08,0,0,1,.85,11.83A57.46,57.46,0,0,1,539.61,347c-2.79,4.7-7.59,8.65-11.86,12.06a50,50,0,0,1-18.87,9.55C501.76,370.49,497.38,369.61,491.18,367.84Z"/><path class="cls-10" d="M531.05,318.17c-1.52-.84-3.24-1.94-5-2.07a35.31,35.31,0,0,0-8.22,0c.8-1.85,2.85-2.46,5.65-3.7a11.31,11.31,0,0,1,4.3-.95,12.86,12.86,0,0,1,6.31,1.84c6,3.46,8.66,10.41,7.9,17.3s-6.43,12.31-11.43,17.1c-12,11.44-23,15.46-32.15,15.51-.4,0-8.95.91-10.57-2.76a5.38,5.38,0,0,1-.29-1.55c0-1.47.12-4.21,1.95-6.06a5.24,5.24,0,0,1,6.45-1.15c-1.82,1.58-2.93,3.81-1.82,5.95a4,4,0,0,0,1.63,1.34c.61.34,4.25.14,5,.15,4.14.08,6.27-.91,9.94-2.81a51.08,51.08,0,0,0,7.17-4.41c4.59-3.42,10.6-7.85,14.6-12.93s5.37-13.63,1.12-18.71A9,9,0,0,0,531.05,318.17Z"/><path class="cls-9" d="M244.37,228.74c2,1.69,4.6,4.88,6.24,4.8,2.4-.1,4.77-2.18,6.74-3.56,9-6.27,12.85-17.42,16.2-27.84l3.06-9.49c1.36-4.23,2.73-8.51,3.07-12.94s1.26-8.12-1.34-11.72-7.38-8.43-11.53-10.27c-3.63-1.6-8.87-3.79-12.76-3-4.13.85-7.47,5.72-10.37,8.78-4,4.22-6.31,9.56-8.81,14.82-2.35,4.94-2.67,11.54-3.1,17-.59,7.34,2.57,13,5,19.93S239.43,224.59,244.37,228.74Z"/><path class="cls-10" d="M264.43,167.08c1.55.8,3.43,1.6,4.5,3a35.69,35.69,0,0,1,4.55,6.84c1.08-1.69.45-3.74-.08-6.74a11.57,11.57,0,0,0-1.61-4.11,12.81,12.81,0,0,0-5.06-4.2c-6.21-3-13.47-1.38-18.75,3.1s-8.22,15.37-9.4,22.19c-2.82,16.3.86,27.11,5.93,34.71.22.34,4.23,7.94,8.18,7.23a5.61,5.61,0,0,0,1.45-.62c1.23-.8,3.42-2.45,3.94-5a5.24,5.24,0,0,0-2.65-6c-.3,2.39-1.53,4.55-3.92,4.83a4,4,0,0,1-2-.61c-.62-.31-2.49-3.45-2.89-4-2.37-3.39-3.38-7.53-3.86-11.64a53.75,53.75,0,0,1-.34-8.41c.28-5.72.6-13.17,2.58-19.33s9.69-12.79,16.28-12.1A8.73,8.73,0,0,1,264.43,167.08Z"/><path class="cls-11" d="M393.65,284c4.41-11.34,13.15-18,25.13-19.53A58.51,58.51,0,0,1,461,275.1c12.36,8.71,18,27.45,11.87,41.07C467.93,327,456,337.65,438.68,335.59A64.89,64.89,0,0,1,401.76,318C391.31,306.44,389.09,295.69,393.65,284Z"/><path class="cls-11" d="M293.55,229c5.3-10.6,18-17.63,30.87-16.1,17.52,2.07,31.54,10.76,41.45,25.23,6.41,9.38,6.52,19.82.86,29.78-6,10.53-14.28,18.31-27.42,17.29A65.33,65.33,0,0,1,299.69,268C288.22,255,286.83,242.45,293.55,229Z"/><path class="cls-12" d="M376.6,354.56s3.45-1.17-.64-1.39A74.55,74.55,0,0,1,333.25,334a38.9,38.9,0,0,1-5.08-5.43c-.52-.47-1,0-.38,1s7.08,9.44,7.7,13.84,4.56,6.69,5.38,7.35,9,5.71,15.43,6.52C362.85,357.35,364.77,353.5,376.6,354.56Z"/><path class="cls-13" d="M378.44,352.72s-2.47,3-14.54.17a71.13,71.13,0,0,1-28.22-14.08,33,33,0,0,1-7.84-10.72Z"/><path class="cls-14" d="M359.52,356.82s-10.47-3.73-12.49-4.72-10.3-6.17-13.85-6.29S350.49,363.31,359.52,356.82Z"/><path class="cls-15" d="M319.44,321c1.82,3.8,5.65,7.92,6.51,14.05.26,1.87.13,5.42.67,7.22.42,1.41.35,4.19,1.16,5.42a37.34,37.34,0,0,0,10.28,10.49c3.11,2.16,6.77,3.41,10.11,5.07a23.53,23.53,0,0,0,12.05,2.49,8.69,8.69,0,0,0,2.57-.51,13.38,13.38,0,0,0,3.49-2.46,33.34,33.34,0,0,1,19.09-8,.38.38,0,0,0,.08-.75c-1.29-.4-2.53-.79-5.23-1.6a12.24,12.24,0,0,1-2.53-1.07,52.86,52.86,0,0,1-5.47-3.46,62.52,62.52,0,0,0-7.64-4.82c-3.66-1.94-10.94-5.32-14.72-7C337.93,330.63,327.85,327.05,319.44,321Zm8.73,7.65a38.9,38.9,0,0,0,5.08,5.43A74.55,74.55,0,0,0,376,353.17c4.09.22.64,1.39.64,1.39-11.83-1.06-13.75,2.79-20.3,2.77-6.45-.81-14.62-5.85-15.43-6.52s-4.77-3-5.38-7.35-7-12.81-7.7-13.84S327.65,328.14,328.17,328.61Z"/><path class="cls-16" d="M353.13,314.05c8,10.7,23.39,10.72,33,6,4-2,4.16-4.87.46-7.33a19.09,19.09,0,0,0-3.74-2,196.22,196.22,0,0,1-28.68-13.67c-1.84-1.06-3.87-2.35-5.93-.94-2.26,1.54-1.59,4-1.17,6.23A22.21,22.21,0,0,0,353.13,314.05Z"/><path class="cls-17" d="M477.84,251.43c-8.17-8.17-17.87-15.15-30.66-16.5a25.55,25.55,0,0,0-3.39-.08c-1.5.05-3,.58-3.46,2-.58,1.79,1.14,2.35,2.35,3,4,2,8.1,4,12.17,6,14.36,6.9,22.71,18.93,28.43,33.22a28.2,28.2,0,0,0,2.25,4.54c.62,1,1.23,2.51,2.82,2.05,1.4-.41,1.6-1.89,1.85-3.11.86-4-.24-7.92-1.4-11.66C486.64,263.88,482.92,257.73,477.84,251.43Z"/><path class="cls-17" d="M311.72,194.14c-2.36,2.09-5.09,4-3.82,6.31,1.42,2.55,4.38.52,6.51-.14,5.27-1.62,10.46-3.48,15.89-4.58,11.87-2.43,23.05-.11,33.92,4.65,2.73,1.19,5.48,2.33,8.25,3.38,1.18.45,2.61.9,3.55-.31,1.06-1.39.13-2.65-.73-3.82a24.92,24.92,0,0,0-9-7.56c-17.37-8.77-34.74-9-52,.31A19.87,19.87,0,0,0,311.72,194.14Z"/><path class="cls-16" d="M417.75,282.48a23.35,23.35,0,1,1-2.21,32.79A23.38,23.38,0,0,1,417.75,282.48Zm35.58,16.46c-.59-3.94-3.32-5.9-8.58-6.16-1.59-4.14-8.45-7.81-13.46-7.2a16.38,16.38,0,0,0-14.39,13.88c-.92,7.37,3.1,13.67,10.47,16.44,6.44,2.41,14.17-.42,18.39-6.73l1.19-1.74C451.93,305.5,453.92,302.85,453.33,298.94Z"/><path class="cls-18" d="M444.75,292.78c-1.59-4.14-8.45-7.81-13.46-7.2a16.38,16.38,0,0,0-14.39,13.88c-.92,7.37,3.1,13.67,10.47,16.44,6.44,2.41,14.17-.42,18.39-6.73.39-.58.8-1.16,1.2-1.74-3.86-.57-7.18-1.93-7.75-6.34C438.66,296.84,440.92,294.23,444.75,292.78Z"/><path class="cls-11" d="M444.75,292.78c-3.83,1.45-6.09,4.06-5.54,8.31.57,4.41,3.89,5.77,7.74,6.34,5-1.93,7-4.58,6.38-8.49S450,293,444.75,292.78Z"/><path class="cls-16" d="M314.17,232.55A23.35,23.35,0,1,1,311,265.27,23.37,23.37,0,0,1,314.17,232.55ZM349.27,250c-.48-4-3.15-6-8.4-6.41-1.47-4.18-8.23-8.05-13.25-7.58a16.38,16.38,0,0,0-14.78,13.46c-1.13,7.34,2.7,13.76,10,16.73,6.37,2.6,14.16,0,18.57-6.2l1.24-1.7C347.68,256.54,349.74,254,349.27,250Z"/><path class="cls-18" d="M340.87,243.62c-1.47-4.18-8.23-8.05-13.25-7.58a16.38,16.38,0,0,0-14.78,13.46c-1.13,7.34,2.7,13.76,10,16.73,6.37,2.6,14.16,0,18.57-6.2l1.24-1.7c-3.83-.68-7.11-2.14-7.56-6.56S337,245,340.87,243.62Z"/><path class="cls-11" d="M340.87,243.62c-3.87,1.34-6.21,3.88-5.78,8.15s3.73,5.88,7.56,6.56c5-1.79,7.09-4.38,6.62-8.3S346.12,244,340.87,243.62Z"/></g></svg>