<svg xmlns="http://www.w3.org/2000/svg" xmlns:xlink="http://www.w3.org/1999/xlink" viewBox="0 0 194.38 233.08">
  <defs>
    <style>
      .cls-1, .cls-11, .cls-12 {
        fill: none;
      }

      .cls-2 {
        fill: #7a4918;
      }

      .cls-3 {
        clip-path: url(#clip-path);
      }

      .cls-4 {
        fill: #3c2415;
      }

      .cls-5 {
        clip-path: url(#clip-path-2);
      }

      .cls-6 {
        fill: #9c5d1f;
      }

      .cls-7 {
        fill: #b57b27;
      }

      .cls-8 {
        fill: #ec008c;
      }

      .cls-9 {
        fill: #f6f5fa;
      }

      .cls-10 {
        clip-path: url(#clip-path-3);
      }

      .cls-11, .cls-12 {
        stroke: #f6f5fa;
        stroke-width: 1.22px;
      }

      .cls-11 {
        stroke-miterlimit: 10;
      }

      .cls-12 {
        stroke-linecap: round;
        stroke-linejoin: round;
      }

      .cls-13 {
        clip-path: url(#clip-path-4);
      }

      .cls-14 {
        clip-path: url(#clip-path-5);
      }

      .cls-15 {
        clip-path: url(#clip-path-6);
      }
    </style>
    <clipPath id="clip-path">
      <path class="cls-1" d="M178.5,185.3c-.51-2.83-18.3-49.81-19.92-55.2s-2.2-6.39-4.13-8.11a7.14,7.14,0,0,0-1.85-4.85l-17.37-1v0h-.17l-17.35,1.32a7.22,7.22,0,0,0-1.78,4.88c-1.9,1.74-2.46,2.76-4,8.17S93.33,183.12,92.88,186c-.71,4.36-.29,18.79,42.47,20.07v0l.49,0h.5v0C179.08,204.09,179.27,189.66,178.5,185.3Z"/>
    </clipPath>
    <clipPath id="clip-path-2">
      <path class="cls-1" d="M190.05,16.06a8.55,8.55,0,0,0-4.52-8.27C179.28,4.51,167,0,133.41,0,101,1.09,90.39,6.45,84.52,10a8.55,8.55,0,0,0-4.07,8.5c2.36,17.38,13.89,93.65,35.17,100.41a65.06,65.06,0,0,0,20.1,3.21V122a65.45,65.45,0,0,0,19.34-4.24C175.94,109.85,188.62,33.54,190.05,16.06Z"/>
    </clipPath>
    <clipPath id="clip-path-3">
      <path class="cls-1" d="M194.37,16.06c.28-3.41-5.81-6.68-8.84-8.27C179.28,4.51,167,0,133.41,0,101,1.09,90.39,6.45,84.52,10c-2.94,1.75-9,5.11-8.49,8.5,1.17,8.66,5.73,32.22,11.53,54.24s17.39,42.78,28.06,46.17c3.72,1.19,11.62,2.25,19.66,2s16.23-1.8,19.78-3.13c10.34-3.91,23-24.62,28.94-46.64C190.06,48.67,193.65,24.88,194.37,16.06Z"/>
    </clipPath>
    <clipPath id="clip-path-4">
      <path class="cls-1" d="M102.5,212.3c-.51-2.83-18.3-49.81-19.92-55.2s-2.2-6.39-4.13-8.11a7.14,7.14,0,0,0-1.85-4.85l-17.37-1v0h-.17l-17.35,1.32a7.22,7.22,0,0,0-1.78,4.88c-1.9,1.74-2.46,2.76-4,8.17s-18.6,52.66-19,55.51c-.71,4.36-.29,18.79,42.47,20.07v0l.49,0h.5v0C103.08,231.09,103.27,216.66,102.5,212.3Z"/>
    </clipPath>
    <clipPath id="clip-path-5">
      <path class="cls-1" d="M114.05,43.06a8.55,8.55,0,0,0-4.52-8.27C103.28,31.51,91,27,57.41,27,25,28.09,14.39,33.45,8.52,37a8.55,8.55,0,0,0-4.07,8.5C6.81,62.83,18.34,139.1,39.62,145.86a65.06,65.06,0,0,0,20.1,3.21V149a65.45,65.45,0,0,0,19.34-4.24C99.94,136.85,112.62,60.54,114.05,43.06Z"/>
    </clipPath>
    <clipPath id="clip-path-6">
      <path class="cls-1" d="M118.37,43.06c.28-3.41-5.81-6.68-8.84-8.27C103.28,31.51,91,27,57.41,27,25,28.09,14.39,33.45,8.52,37c-2.94,1.75-9,5.11-8.49,8.5C1.2,54.11,5.76,77.67,11.56,99.69S29,142.47,39.62,145.86c3.72,1.19,11.62,2.25,19.66,2s16.23-1.8,19.78-3.13c10.34-3.91,23-24.62,28.94-46.64C114.06,75.67,117.65,51.88,118.37,43.06Z"/>
    </clipPath>
  </defs>
  <title>p14</title>
  <g id="character">
    <g>
      <path class="cls-2" d="M178.5,185.3c-.51-2.83-18.3-49.81-19.92-55.2s-2.2-6.39-4.13-8.11a7.14,7.14,0,0,0-1.85-4.85l-17.37-1v0h-.17l-17.35,1.32a7.22,7.22,0,0,0-1.78,4.88c-1.9,1.74-2.46,2.76-4,8.17S93.33,183.12,92.88,186c-.71,4.36-.29,18.79,42.47,20.07v0l.49,0h.5v0C179.08,204.09,179.27,189.66,178.5,185.3Z"/>
      <g class="cls-3">
        <path class="cls-4" d="M91.57,171.77s12.55,14.46,44.13,13.07c13.62-.59,30.79-4.14,52-13.07l6.66,25.7s-70.45,29.93-107.95-3.63Z"/>
        <path class="cls-4" d="M110.69,120.65s24.39,10.25,51.85-2S111.13,109.52,110.69,120.65Z"/>
      </g>
      <path class="cls-2" d="M190.05,16.06a8.55,8.55,0,0,0-4.52-8.27C179.28,4.51,167,0,133.41,0,101,1.09,90.39,6.45,84.52,10a8.55,8.55,0,0,0-4.07,8.5c2.36,17.38,13.89,93.65,35.17,100.41,3.72,1.19,11.62,2.25,19.66,2s16.23-1.8,19.78-3.13C175.94,109.85,188.62,33.54,190.05,16.06Z"/>
      <g class="cls-5">
        <ellipse class="cls-6" cx="125.44" cy="7.74" rx="23.09" ry="67.09" transform="translate(106.38 131.97) rotate(-84.81)"/>
        <ellipse class="cls-7" cx="125.75" cy="0.22" rx="23.09" ry="67.09" transform="translate(114.15 125.43) rotate(-84.81)"/>
        <path class="cls-8" d="M77.32,11.59s.32,4.8,20.15,9.72a177.08,177.08,0,0,0,25.26,4.12c27.69,1.95,56.56.14,70.54-13.84l.26,4s-15.91,14.16-58,13.65a169.36,169.36,0,0,1-40.69-5.5C79.32,19.68,77.11,16.76,77.32,11.59Z"/>
      </g>
      <path class="cls-9" d="M82.11,16a1.73,1.73,0,0,0-1.78-1.39c-.86.06-2.24.89-1.59,3.79S83,20.2,82.11,16Z"/>
      <path class="cls-9" d="M93.41,20a1.73,1.73,0,0,0-1.78-1.39c-.87.06-2.25.89-1.6,3.79S94.31,24.16,93.41,20Z"/>
      <path class="cls-9" d="M105.66,23a1.73,1.73,0,0,0-1.78-1.39c-.86.06-2.24.89-1.59,3.79S106.57,27.2,105.66,23Z"/>
      <path class="cls-9" d="M119.27,24.87a1.74,1.74,0,0,0-1.78-1.4c-.87.07-2.25.9-1.59,3.8S120.18,29.06,119.27,24.87Z"/>
      <path class="cls-9" d="M133.42,26.2a1.74,1.74,0,0,0-1.79-1.39c-.86.06-2.24.89-1.59,3.79S134.32,30.4,133.42,26.2Z"/>
      <path class="cls-9" d="M148.09,26.2a1.73,1.73,0,0,0-1.78-1.39c-.87.06-2.25.89-1.6,3.79S149,30.4,148.09,26.2Z"/>
      <path class="cls-9" d="M163.57,25.4A1.73,1.73,0,0,0,161.79,24c-.87.06-2.25.89-1.6,3.79S164.47,29.6,163.57,25.4Z"/>
      <path class="cls-9" d="M178,22.2a1.73,1.73,0,0,0-1.78-1.39c-.87.06-2.25.89-1.6,3.79S178.88,26.39,178,22.2Z"/>
      <path class="cls-9" d="M191.27,16.11a1.73,1.73,0,0,0-1.78-1.39c-.87.06-2.25.89-1.59,3.79S192.18,20.31,191.27,16.11Z"/>
      <g class="cls-10">
        <g>
          <path class="cls-11" d="M79.77,18.18s12.35,95.33,36.94,101.64"/>
          <path class="cls-11" d="M189.69,18.18S177.44,112.8,152.86,119.1"/>
          <path class="cls-11" d="M177.05,22.87s-5,86.29-29.3,97.44"/>
          <path class="cls-11" d="M91.91,23.19s5,86.28,29.3,97.44"/>
          <path class="cls-11" d="M103.65,24.65s1.71,85.36,24.07,96.7"/>
          <path class="cls-11" d="M162.05,25.83s2.23,84-20.13,95.3"/>
          <path class="cls-11" d="M117.26,26.59s.51,79.33,15.09,94.88"/>
          <path class="cls-11" d="M146.63,28.65s4.7,77-9.88,92.59"/>
          <path class="cls-11" d="M131.31,27.56s2.55,91.51,3.24,94"/>
        </g>
      </g>
      <polyline class="cls-12" points="79.91 16.91 82.88 22.85 88.56 24.58 91.78 21.37 94.5 25.82 100.43 27.3 103.89 24.33 106.86 28.78 113.29 29.77 117 26.06 120.21 30.76 128.13 31.5 132.08 27.55 135.3 32 144.45 31.75 146.92 27.55 150.13 31.5 158.05 31.01 162.5 26.81 165.71 29.77 174.12 27.8 176.34 23.1 179.31 26.06 186.98 22.11 190.19 17.41"/>
      <path class="cls-9" d="M117.39,120.19c-.08-.57-.45-1-.86-1s-1.09.62-.77,2.63S117.83,123.11,117.39,120.19Z"/>
      <path class="cls-9" d="M154.28,119.36c-.06-.63-.4-1.11-.81-1.08s-1.12.61-.92,2.8S154.55,122.52,154.28,119.36Z"/>
      <path class="cls-9" d="M122.09,120.86c-.08-.61-.45-1.07-.86-1s-1.09.65-.78,2.77S122.53,123.93,122.09,120.86Z"/>
      <path class="cls-9" d="M128.22,121.68c-.08-.61-.45-1.07-.86-1s-1.09.65-.77,2.77S128.66,124.75,128.22,121.68Z"/>
      <path class="cls-9" d="M132.92,121.82c-.08-.65-.45-1.14-.86-1.09s-1.09.69-.77,3S133.36,125.1,132.92,121.82Z"/>
      <path class="cls-9" d="M135.31,121.81c-.09-.6-.46-1.06-.87-1s-1.09.65-.77,2.77S135.74,124.88,135.31,121.81Z"/>
      <path class="cls-9" d="M137.83,121.69c-.09-.65-.46-1.15-.87-1.1s-1.09.71-.77,3S138.26,125,137.83,121.69Z"/>
      <path class="cls-9" d="M143.21,121.4c-.09-.6-.46-1.06-.87-1s-1.09.65-.77,2.77S143.65,124.47,143.21,121.4Z"/>
      <path class="cls-9" d="M149.34,120.31c-.09-.62-.46-1.08-.87-1s-1.08.67-.77,2.81S149.78,123.41,149.34,120.31Z"/>
      <polyline class="cls-12" points="116.35 120.54 117.25 119.39 120.05 119.77 121.39 121.37 122.6 119.97 126.43 120.28 127.52 122.2 128.47 120.28 131.47 120.22 132.11 122.07 134.4 119.9 137.28 121.81 138.23 120.22 141.49 119.97 142.38 121.88 143.84 119.71 147.99 119.07 148.69 120.92 150.03 118.82 152.26 118.37 153.54 119.77"/>
    </g>
    <g>
      <path class="cls-2" d="M102.5,212.3c-.51-2.83-18.3-49.81-19.92-55.2s-2.2-6.39-4.13-8.11a7.14,7.14,0,0,0-1.85-4.85l-17.37-1v0h-.17l-17.35,1.32a7.22,7.22,0,0,0-1.78,4.88c-1.9,1.74-2.46,2.76-4,8.17s-18.6,52.66-19,55.51c-.71,4.36-.29,18.79,42.47,20.07v0l.49,0h.5v0C103.08,231.09,103.27,216.66,102.5,212.3Z"/>
      <g class="cls-13">
        <path class="cls-4" d="M15.57,198.77s12.55,14.46,44.13,13.07c13.62-.59,30.79-4.14,52-13.07l6.66,25.7S47.93,254.4,10.43,220.84Z"/>
        <path class="cls-4" d="M34.69,147.65s24.39,10.25,51.85-2S35.13,136.52,34.69,147.65Z"/>
      </g>
      <path class="cls-2" d="M114.05,43.06a8.55,8.55,0,0,0-4.52-8.27C103.28,31.51,91,27,57.41,27,25,28.09,14.39,33.45,8.52,37a8.55,8.55,0,0,0-4.07,8.5C6.81,62.83,18.34,139.1,39.62,145.86c3.72,1.19,11.62,2.25,19.66,2s16.23-1.8,19.78-3.13C99.94,136.85,112.62,60.54,114.05,43.06Z"/>
      <g class="cls-14">
        <ellipse class="cls-6" cx="49.44" cy="34.74" rx="23.09" ry="67.09" transform="translate(10.37 80.84) rotate(-84.81)"/>
        <ellipse class="cls-7" cx="49.75" cy="27.22" rx="23.09" ry="67.09" transform="translate(18.14 74.3) rotate(-84.81)"/>
        <path class="cls-8" d="M1.32,38.59s.32,4.8,20.15,9.72a177.08,177.08,0,0,0,25.26,4.12c27.69,2,56.56.14,70.54-13.84l.26,4s-15.91,14.16-58,13.65a169.36,169.36,0,0,1-40.69-5.5C3.32,46.68,1.11,43.76,1.32,38.59Z"/>
      </g>
      <path class="cls-9" d="M6.11,43a1.73,1.73,0,0,0-1.78-1.39c-.86.06-2.24.89-1.59,3.79S7,47.2,6.11,43Z"/>
      <path class="cls-9" d="M17.41,47a1.73,1.73,0,0,0-1.78-1.39c-.87.06-2.25.89-1.6,3.79S18.31,51.16,17.41,47Z"/>
      <path class="cls-9" d="M29.66,50a1.73,1.73,0,0,0-1.78-1.39c-.86.06-2.24.89-1.59,3.79S30.57,54.2,29.66,50Z"/>
      <path class="cls-9" d="M43.27,51.87a1.74,1.74,0,0,0-1.78-1.4c-.87.07-2.25.9-1.59,3.8S44.18,56.06,43.27,51.87Z"/>
      <path class="cls-9" d="M57.42,53.2a1.74,1.74,0,0,0-1.79-1.39c-.86.06-2.24.89-1.59,3.79S58.32,57.4,57.42,53.2Z"/>
      <path class="cls-9" d="M72.09,53.2a1.73,1.73,0,0,0-1.78-1.39c-.87.06-2.25.89-1.6,3.79S73,57.4,72.09,53.2Z"/>
      <path class="cls-9" d="M87.57,52.4A1.73,1.73,0,0,0,85.79,51c-.87.06-2.25.89-1.6,3.79S88.47,56.6,87.57,52.4Z"/>
      <path class="cls-9" d="M102,49.2a1.73,1.73,0,0,0-1.78-1.39c-.87.06-2.25.89-1.6,3.79S102.88,53.39,102,49.2Z"/>
      <path class="cls-9" d="M115.27,43.11a1.73,1.73,0,0,0-1.78-1.39c-.87.06-2.25.89-1.59,3.79S116.18,47.31,115.27,43.11Z"/>
      <g class="cls-15">
        <g>
          <path class="cls-11" d="M3.77,45.18s12.35,95.33,36.94,101.64"/>
          <path class="cls-11" d="M113.69,45.18S101.44,139.8,76.86,146.1"/>
          <path class="cls-11" d="M101.05,49.87s-5,86.29-29.3,97.44"/>
          <path class="cls-11" d="M15.91,50.19s5,86.28,29.3,97.44"/>
          <path class="cls-11" d="M27.65,51.65s1.71,85.36,24.07,96.7"/>
          <path class="cls-11" d="M86.05,52.83s2.23,84-20.13,95.3"/>
          <path class="cls-11" d="M41.26,53.59s.51,79.33,15.09,94.88"/>
          <path class="cls-11" d="M70.63,55.65s4.7,77-9.88,92.59"/>
          <path class="cls-11" d="M55.31,54.56s2.55,91.51,3.24,94"/>
        </g>
      </g>
      <polyline class="cls-12" points="3.91 43.91 6.88 49.85 12.56 51.58 15.78 48.37 18.5 52.82 24.43 54.3 27.89 51.33 30.86 55.78 37.29 56.77 41 53.06 44.21 57.76 52.13 58.5 56.08 54.55 59.3 59 68.45 58.75 70.92 54.55 74.13 58.5 82.05 58.01 86.5 53.81 89.71 56.77 98.12 54.8 100.34 50.1 103.31 53.06 110.98 49.11 114.19 44.41"/>
      <path class="cls-9" d="M41.39,147.19c-.08-.57-.45-1-.86-1s-1.09.62-.77,2.63S41.83,150.11,41.39,147.19Z"/>
      <path class="cls-9" d="M78.28,146.36c-.06-.63-.4-1.11-.81-1.08s-1.12.61-.92,2.8S78.55,149.52,78.28,146.36Z"/>
      <path class="cls-9" d="M46.09,147.86c-.08-.61-.45-1.07-.86-1s-1.09.65-.78,2.77S46.53,150.93,46.09,147.86Z"/>
      <path class="cls-9" d="M52.22,148.68c-.08-.61-.45-1.07-.86-1s-1.09.65-.77,2.77S52.66,151.75,52.22,148.68Z"/>
      <path class="cls-9" d="M56.92,148.82c-.08-.65-.45-1.14-.86-1.09s-1.09.69-.77,3S57.36,152.1,56.92,148.82Z"/>
      <path class="cls-9" d="M59.31,148.81c-.09-.6-.46-1.06-.87-1s-1.09.65-.77,2.77S59.74,151.88,59.31,148.81Z"/>
      <path class="cls-9" d="M61.83,148.69c-.09-.65-.46-1.15-.87-1.1s-1.09.71-.77,3S62.26,152,61.83,148.69Z"/>
      <path class="cls-9" d="M67.21,148.4c-.09-.6-.46-1.06-.87-1s-1.09.65-.77,2.77S67.65,151.47,67.21,148.4Z"/>
      <path class="cls-9" d="M73.34,147.31c-.09-.62-.46-1.08-.87-1s-1.08.67-.77,2.81S73.78,150.41,73.34,147.31Z"/>
      <polyline class="cls-12" points="40.35 147.54 41.25 146.39 44.05 146.77 45.39 148.37 46.6 146.97 50.43 147.28 51.52 149.2 52.47 147.28 55.47 147.22 56.11 149.07 58.4 146.9 61.27 148.81 62.23 147.22 65.48 146.97 66.38 148.88 67.84 146.71 71.99 146.07 72.69 147.92 74.03 145.82 76.26 145.37 77.54 146.77"/>
    </g>
  </g>
</svg>
