<svg id="Layer_6" data-name="Layer 6" xmlns="http://www.w3.org/2000/svg" xmlns:xlink="http://www.w3.org/1999/xlink" viewBox="0 0 1920 1080">
  <defs>
    <style>
      .cls-1 {
        fill: none;
      }

      .cls-2 {
        clip-path: url(#clip-path);
      }

      .cls-3 {
        fill: #a66838;
      }

      .cls-4 {
        fill: #498ecb;
      }

      .cls-5 {
        fill: #a06232;
      }

      .cls-6 {
        fill: #070504;
      }

      .cls-7 {
        fill: #d12327;
      }

      .cls-8 {
        fill: #29b04b;
      }

      .cls-9 {
        fill: #0b0907;
      }

      .cls-10 {
        fill: #f9f6f4;
      }

      .cls-11 {
        fill: #fbe400;
      }

      .cls-12 {
        fill: #754a28;
      }

      .cls-13 {
        fill: #a56737;
      }

      .cls-14 {
        fill: #522f27;
      }

      .cls-15 {
        fill: #691e1b;
      }

      .cls-16 {
        fill: #dcccc6;
      }
    </style>
    <clipPath id="clip-path">
      <rect class="cls-1" width="1920" height="1080"/>
    </clipPath>
  </defs>
  <title>Akili-flapping-7</title>
  <g class="cls-2">
    <path class="cls-3" d="M1132.65,794.16c12.35,13,17,29.52,20.89,46.37,38.49-26,72.43-57.29,104.64-90.52,14.36-14.81,28.08-30.22,42-45.48a23.84,23.84,0,0,1,9.09-6.3c19.15-7.71,38.3-15.46,56.11-26a87.13,87.13,0,0,0,9.82-6.8c2.77-2.21,5.47-4.85,3.75-9-1.64-3.93-5.31-4.21-8.9-4.28-6.41-.12-12.52,1.65-18.7,3-4.53,1-8.84,3.11-14,3,.81-3.67,4-4.59,6.31-6.2,13.66-9.49,28.15-17.83,40.71-28.89a41.74,41.74,0,0,0,8.34-9.46c1.63-2.68,2.7-5.63.53-8.55s-5.27-2.93-8.33-2.45c-10.62,1.66-20,6.65-29.27,11.63-6.41,3.43-12.67,7.13-19,10.7-.68.42-1.42,1.08-2,.12-.14-.22.5-.94.78-1.43,7.91-13.82,17.3-26.77,24.49-41,3.27-6.49,6.71-12.93,8.36-20.1.64-2.76,1.57-5.73-1-7.9-2.85-2.4-5.84-.88-8.54.54-7.59,4-13.65,10-19.43,16.12-11.1,11.79-21.86,23.89-32.84,35.8-1.18,1.28-2.12,3.27-4.81,2.76-1.06-5.13.83-10,1.6-15,1.67-10.89,4.31-21.65,4.51-32.75a48.16,48.16,0,0,0-.37-7c-.36-2.84-1-5.78-4.22-6.71s-5.94.47-8.26,2.74a43.81,43.81,0,0,0-8.29,12.17c-7.21,14.58-11.34,30.3-16.78,45.54-3,8.49-5.36,9.13-12.47,3.36-5.09-4.13-9.89-8.65-15.07-12.68-4.59-3.58-9.91-4.8-15-1.32-5,3.37-4,8.66-2.9,13.51,3.39,15,10.67,28.54,17.25,42.27,2.62,5.47,2.33,9.72-.59,15-27.24,49.46-63,91.46-108.3,125.25"/>
    <path class="cls-3" d="M855.35,882.7c-1.94,13.2-2.77,26.39.2,39.56-34.75,1-69.5.33-104.25-.37-34-.68-68.1-1.68-102.14-2.67-3.3-.1-5.9,1.28-8.62,2.57-18.26,8.62-36.59,17.06-55.93,23a101.77,101.77,0,0,1-13.74,2.94c-3.1.5-6.38.16-8-3.05s-.3-6.39,2-9c6.06-6.71,13.71-11.35,21.24-16.14,2.33-1.48,4.62-3,8.09-5.29-6.68-.94-11.47,1.11-16.35,2.23-13,3-25.93,6.62-39.22,8.45-5.14.7-10.28,1.24-15.44.3-3.25-.6-6.57-1.24-7.72-5.09s1.21-6.11,3.75-8.38c4.83-4.31,10.61-7,16.55-9.14,11-4,22.12-7.74,33.19-11.58l1.49-.45-1.25-1c-18.39-3.7-37-6.38-54.94-12.24-5.13-1.68-10.31-3.35-14.78-6.47-5-3.49-4.72-7.29.73-10.13,5.78-3,12.22-3.26,18.52-3.73,16.66-1.25,33.34-.16,50,.06,4.06.05,8.33,1,12.5-1.43-3.37-4.89-8.41-7.13-12.87-10-9.31-5.94-18.69-11.78-27-19.07-3.6-3.16-8.54-6.86-6.11-12.29,2.57-5.73,8.64-4.76,13.76-3.88,13.8,2.37,26.24,8.56,38.87,14.21,5.77,2.59,11.51,5.27,17.31,7.78,4.73,2.05,6.69-.09,6.36-4.76a51.09,51.09,0,0,0-1.29-7.63c-.77-3.43-2-6.79-2.54-10.25-1-5.89-3.49-12.49,3.43-16.48,6.68-3.86,11.82.84,16.44,4.58,12.86,10.42,23,23.44,33.24,36.32a40.94,40.94,0,0,0,14,11.46c56.83,28.59,116.71,42.22,180.46,37.06"/>
    <path class="cls-4" d="M1120.44,758.88a110.67,110.67,0,0,1,23.15,4.6c3.47,1.09,6.83,2.73,10.34,3.59,3.11.75,3.76,4.6,5.73,6.86,5.43,6.23,10.44,12.89,15.8,19.25,4.18,5,8.36,9.91,12.34,15a49.2,49.2,0,0,0,5.33,5.75,9.43,9.43,0,0,1,1.94,2c.73,1.3.32,1.64-.54,2.77a127.35,127.35,0,0,0-8,11.28c-2.13,3.56-5.14,6.43-7.87,9.51A104.47,104.47,0,0,1,1160,855.7c-2.79,2-6.07,5-9.49,5.63-3.65.71-6.61,2.33-10,3.77-.4.17-.8.33-1.21.48-1,.36-2.79.39-3.45,1.3-.87,1.19-.13,3.63.29,4.84,1,2.9,1.84,5.77,3.09,8.59a218.72,218.72,0,0,1,9.89,25c.08.26.15.52.23.78,14.78,49.84,57.86,86.6,87,129.23,28.75,42.11,61.86,83.53,75.06,132.73,23.33,87,37.61,45.83,54.48,82.47,1.61,3.49,1.05,6-.77,9.1-42.67,73-163.76,103.85-241.15,112.9-40.12,4.7-68.58,16.82-107.84.15-4-1.7-33-23.89-32.69-28.17,3.64-43.64,14.38-50,2.59-100.35-5.52-23.58-6.42-47.82-8.48-71.87-2.64-30.8-9.89-60.6-19.57-89.8-6.35-19.15-13.7-38-20.93-56.83-5.09-13.27-9.43-26.81-13.53-40.41-1.41-4.68-11.42-6-17.19-10-2.27-1.54-6.79-1.58-9.5-2.61-3.81-1.44-8.55-.45-12.56-.94a65.76,65.76,0,0,1-14.68-4,82.09,82.09,0,0,1-7.73-2.82,44.94,44.94,0,0,1-5.62-3.69c-2.64-1.82-5-4.2-7.81-5.72-1.89-1-3.82-1.94-5.69-3a24.74,24.74,0,0,1-7.6-7.3c-1.36-2.09-3.14-4.16-4.11-6.46-.68-1.58-1.18-3.28-1.78-4.89-.88-2.34-2.22-4.83-2.18-7.38a59.41,59.41,0,0,0-.62-11.23,79,79,0,0,1,2.05-32.7c6.13-23.4,22.48-45.23,56.57-42.58q15.57,35.79,31.09,71.59c1.3,3,3,2.73,5.56,1.87q80.29-27.4,160.66-54.65c2.86-1,4-2,3.56-5.41-3.05-25.69-5.71-51.43-13.49-76.28,6.1-.69,8.35-6.57,12.82-9.45,10.79-6.7,22.77-8.63,35.19-8.79"/>
    <path class="cls-5" d="M1094.18,683.36c-2.29,1.71-2,4.48-2.81,6.81-7.24,11.39-12,24.15-19.94,35.2-5.93,8.32-11.53,16.87-17.28,25.32q-13.86,13.34-26.54,27.8a27.9,27.9,0,0,0-10.91,9c-1.92,1.3-3.92,2.5-5.74,3.92-23,17.91-48.67,29.61-77.74,33.4l-18,2.22c-4.73-.75-9,1.4-13.45,2.23-1-.59-1.92-1.67-2.88-1.67-14.78,0-29.3-2.89-44-3.85-10.81-4.38-22.12-7-33.39-9.83-12-5.87-24.35-10.81-35.88-17.61a232.64,232.64,0,0,1-78.91-76.39c1.12-1.27.75-2.47,0-3.84-11.63-22.19-22.19-44.87-32.77-67.58-13.76-29.52-18.9-60.52-19.79-92.64A66.67,66.67,0,0,1,668.51,512c10.27-13.42,20.12-27.39,32.91-38.36,10.45-9,13.64-18.77,13.51-32.2-.2-20.19,3.24-40.15,13.87-58.06l-.12-.06c2,4.63.23,9.25-.19,13.82-1.36,14.7-4.94,29.13-5.58,43.92-.14,3.18-1,7.57,1.67,9.19s6-1.37,8.66-3.26c11.39-8.21,22.45-16.9,34.17-24.59,10.27-6.75,20.28-14.19,33-16.48,18-3.24,36.32-3.18,54.41-5.72,8.84-1.24,13-4.93,15.61-13.08,3.65-11.27,5.59-23.25,12.34-33.39l.88.37c-.15,8.95-4.06,17.21-4.44,26.21-.62,14.87.06,16.59,14.47,14.8,15.14-1.88,28.74,1.16,42,8.08s27.21,12.82,40.38,20C982.9,427,987.28,426.6,993,421c12.64-12.56,26-24.37,42-32.76,3.13-1.64,6.18-3.61,10.83-3.17-20.24,15.42-31.85,29.3-40.67,46.93-3.06,6.11-2.87,10,3.38,13.9,14.15,8.79,28,18.08,41.83,27.37,3.9,2.63,6.1,2.86,9.71-1.23,9.45-10.71,21.29-16.91,36.19-14.19,5.26,1,11.18,1.58,14.53,6.29a107,107,0,0,1,18.31,41.56c6.46,33.15-3.58,62.09-24.08,88a11,11,0,0,0-2.67,8.85c1.73,17.25,3.76,34.61-.15,51.8-2.23,9.8-5.32,19.41-8,29.1M1063.42,492.9c1.33-1.64,2.7-3.24,4-4.91,11.57-15.23,29-15.37,40.77-.43,6,7.6,7.43,16.63,8,25.73,1.18,18.28,2,36.64-7.06,53.59-5.88,11-12.12,11.43-18.41,1.15-3.61,2.14-4.79,5.6-5.11,9.44-.48,5.76,4.09,8,7.86,10.66,2.42,1.69,5.35,2.49,7.76,0,3.94-4,8.4-7.33,11.62-12.15,7.84-11.74,10.73-24.83,11.87-38.53,1.4-16.92.92-33.82-4.7-49.94-6.32-18.11-22.58-26.19-41-21.51-11.1,2.82-18.72,15.95-15.58,26.84,0,.23-.07.46-.11.68,0-.22.07-.45.11-.67M935.35,546.7c-24.94,9.16-40.07,22.18-47.27,43.27-10.11,29.6,6.71,52.85,30.43,59.48,30.18,8.43,58.48,2.4,81.24-20.06,13.93-13.75,20.86-31.58,14.24-50.84-7-20.4-23-32-44.49-35.26a72.09,72.09,0,0,0-34.15,3.41M781.42,712.33a85,85,0,0,0,18.28-9.68c19-13.71,29.64-39,21.93-57.95C813,623.54,797.75,608,768.46,608.63a101.11,101.11,0,0,0-35.52,7.73c-26.26,10.52-44.77,43.31-29,71.54,9.83,17.58,23.08,28.55,43.38,30.21,10.71.88,21-1.37,34.07-5.78m177.45,21c-39.94,11.61-77.46,23-112.77,40,.94,1.13,3,1.62,5,2.08a35.08,35.08,0,0,1,19.43,11.95c7.21,8.66,16.32,10.19,26.59,8.64,9.57-1.45,18.54-5,27.33-8.79,9.67-4.19,17.42-11.16,19.2-21.77,1.94-11.62,5-22.29,15.2-32.16m-75.14-8.73c13.38-5.43,22.86-14.55,26.3-28.88,1.87-7.8-1.66-10.7-9.13-8-13.69,4.86-27,10.72-41.24,14.15-6.11,1.48-12.46,2.34-18.19,5.27-5.15,2.63-5.86,5.7-1.93,9.85a21.61,21.61,0,0,0,6.07,4.72c12.27,5.9,24.9,8.12,38.12,2.93M913.05,504.1c-4.25,2.14-9.49,4.31-14.22,7.3-4.92,3.12-9.72,6.65-12.71,11.93-.94,1.67-1.59,3.56-.28,5.31,1.47,2,3.42,1,5.12.35,8.57-3.23,17.09-6.6,25.66-9.8,17.28-6.46,34.83-6.81,52.5-1.87,7.91,2.21,15.67,4.92,23.57,7.18,2.08.59,4.85,1.87,6.36-.87,1.31-2.38-.29-4.45-1.77-6.35a31.75,31.75,0,0,0-10.42-8.22c-23.53-12.56-47.94-13.12-73.81-5M751.92,576.71c5.45-2,10.54-3.87,15.56-5.86,1.85-.74,4.54-1,4.38-3.8s-2.59-3.74-4.91-4.36a31,31,0,0,0-12.58-.56c-33.65,5-57,23.46-70.77,54.33-2.38,5.34-4,11.11-2.69,17.13.34,1.57.82,3.39,2.62,3.89s3-1,4-2.34a85.12,85.12,0,0,0,5.38-8.25c13.32-24.46,31.59-43.08,59-50.18"/>
    <path class="cls-6" d="M728.8,383.38c-10.63,17.91-14.07,37.87-13.87,58.06.13,13.43-3.06,23.23-13.51,32.2-12.79,11-22.64,24.94-32.91,38.36a66.67,66.67,0,0,0-14.32,43.82c.89,32.12,6,63.12,19.79,92.64,10.58,22.71,21.14,45.39,32.77,67.58.71,1.36,1.08,2.57,0,3.84Q685,700.52,663.25,681.13c-6.81-6.1-13.23-12.68-20.32-18.42-6.83-5.53-8.56-12.3-7.68-20.57,1.67-15.47,5.73-30.42,9.57-45.4,2.22-8.67,1.82-16.24-1.2-25-11.5-33.41-17.28-68.13-20.72-103.26-.43-4.37.81-7.51,3.71-10.73,28.45-31.69,60.31-59.64,93.69-85.95,2-1.6,4.23-2.87,4.8-5.74,4.94-24.87,20-43.7,37.24-61,28.39-28.47,31.54-29.24,71.69-25.28a352.8,352.8,0,0,1,83.67,18.28,30.14,30.14,0,0,0,22.36-.39c21.75-8.42,44.7-12.44,67.69-16.05,3.13-.5,4.64.56,6.34,2.9,20.53,28.34,40.53,57,54.23,89.45,1.43,3.39,3.92,4.31,6.68,5.5,26.54,11.4,51.12,25.76,71,47.21.16.18.34.33.51.5,12.4,12.56,17.4,26.37,14.21,45-8,46.88-18.71,93-35.08,137.62-3.39,9.24-2,16.55,1.86,24.66,14.14,29.67,34.82,54.38,58.08,77.14,6,5.9,12.31,11.53,18.79,17.58-4.79,2-9.44.64-13.9,0-27.13-3.73-51-15.56-73.78-30.07-7.71-4.92-15-10.47-22.49-15.73,2.7-9.69,5.79-19.3,8-29.1,3.91-17.19,1.88-34.55.15-51.81a11,11,0,0,1,2.67-8.84c20.5-25.87,30.54-54.81,24.08-88a107,107,0,0,0-18.31-41.56c-3.35-4.71-9.27-5.33-14.53-6.29-14.9-2.72-26.74,3.48-36.19,14.19-3.61,4.09-5.81,3.86-9.71,1.23-13.83-9.29-27.68-18.58-41.83-27.37-6.25-3.88-6.44-7.79-3.38-13.9,8.82-17.63,20.43-31.51,40.67-46.93-4.65-.44-7.7,1.53-10.83,3.17-16,8.39-29.37,20.2-42,32.76-5.7,5.65-10.08,6-16.93,2.26-13.17-7.2-27-13.09-40.38-20s-26.89-10-42-8.08c-14.41,1.79-15.09.07-14.47-14.8.38-9,4.29-17.26,4.43-26.21l.15-1.42-1,1.05c-6.75,10.14-8.69,22.12-12.34,33.39-2.64,8.15-6.77,11.84-15.61,13.08-18.09,2.54-36.41,2.48-54.41,5.72-12.68,2.29-22.69,9.73-33,16.48-11.72,7.69-22.78,16.38-34.17,24.59-2.62,1.89-5.82,5-8.66,3.26s-1.81-6-1.67-9.2c.64-14.78,4.22-29.21,5.58-43.91.42-4.57,2.2-9.19.19-13.82l.51-.75c-.13.07-.33.11-.36.2a2.05,2.05,0,0,0,0,.61m171.05-56.95c-2.51,1.15-4.51,2.7-5.12,7.29,3.13-2.56,5-4.24,5.77-7a9,9,0,0,0,.52-1c-.83-.54-1,.12-1.17.71m-15.41,22.92,1.92,1,8-15.54a22.11,22.11,0,0,0-9.94,14.53M904,323c-.17-.09-.43-.32-.51-.26a5.94,5.94,0,0,0-.86.73c.18.1.44.32.52.26A5.3,5.3,0,0,0,904,323"/>
    <path class="cls-7" d="M1072.43,777.12c7.78,24.85,10.44,50.59,13.49,76.28.41,3.44-.7,4.44-3.56,5.41Q1002,886,921.7,913.46c-2.54.86-4.26,1.15-5.56-1.87Q900.69,875.76,885.05,840l14.07-5.42C909,851.38,917.18,869,924.8,886.9c1.43,3.36,2.5,4.83,6.54,3.39q64.63-23.13,129.41-45.84c3.43-1.2,4.42-2.89,3.81-6.14q-5.67-30-11.3-59.95c6.23-2.91,12.73-1.5,19.17-1.24"/>
    <path class="cls-8" d="M1053.26,778.36q5.64,30,11.3,59.95c.61,3.25-.38,4.94-3.81,6.14Q996,867.16,931.34,890.29c-4,1.44-5.11,0-6.54-3.38-7.62-17.9-15.82-35.53-25.68-52.33,1.14-1.65,2.65-3.13,2.63-5.36,4.47-.82,8.72-3,13.45-2.22,6.59,12.87,13.34,25.67,19.68,38.66,1.54,3.14,2.68,4.2,6.22,2.91Q990,850.81,1039,833.42c4.65-1.64,5.35-3.95,4.34-8.39-3.45-15.21-6.55-30.5-9.79-45.77,2.83-.88,5.63-2.37,8.5-2.5,3.73-.18,8.08-2.92,11.2,1.6"/>
    <path class="cls-9" d="M1054.15,750.69c5.75-8.45,11.35-17,17.28-25.32,7.89-11,12.7-23.81,19.94-35.2,3.12,25.68,14.9,47.7,29.07,68.71-12.42.16-24.4,2.09-35.19,8.79l-31.1-17"/>
    <path class="cls-9" d="M821.5,813.88c11.27,2.79,22.58,5.45,33.39,9.83a166.54,166.54,0,0,1-48.83,57.88c13.53-20.84,16.74-43.76,15.44-67.71"/>
    <path class="cls-10" d="M1054.15,750.69l31.1,17c-4.47,2.88-6.72,8.76-12.82,9.45-6.44-.26-12.94-1.67-19.17,1.24-3.12-4.52-7.47-1.78-11.2-1.6-2.87.13-5.67,1.62-8.5,2.51-1.75-2.06-3.92-.91-6-.78q12.65-14.5,26.54-27.8"/>
    <path class="cls-10" d="M935.35,546.7a72.09,72.09,0,0,1,34.15-3.41C991,546.5,1007,558.16,1014,578.55c6.62,19.26-.31,37.09-14.24,50.84-22.76,22.46-51.06,28.49-81.24,20.06C894.79,642.81,878,619.57,888.08,590c7.2-21.09,22.33-34.11,47.27-43.27m55.45,41.58a40.89,40.89,0,0,0-52.38-24.19c-20.84,7.74-31.7,31.76-23.82,52.66a40.84,40.84,0,0,0,52.68,23.54c20.66-7.76,31.24-31.15,23.52-52"/>
    <path class="cls-10" d="M781.42,712.33c-13.09,4.4-23.36,6.66-34.07,5.78-20.3-1.66-33.55-12.64-43.38-30.21-15.8-28.23,2.71-61,29-71.54a100.88,100.88,0,0,1,35.52-7.72c29.29-.65,44.56,14.9,53.17,36.06,7.71,19-2.93,44.24-21.93,57.95a85,85,0,0,1-18.28,9.68M799.31,652a40.7,40.7,0,1,0-23.85,51.8A40.35,40.35,0,0,0,799.31,652"/>
    <path class="cls-11" d="M1027.61,778.49c2-.13,4.2-1.28,6,.77,3.24,15.27,6.33,30.56,9.79,45.77,1,4.44.31,6.75-4.34,8.39q-49,17.33-97.91,35.15c-3.54,1.29-4.68.23-6.22-2.91-6.34-13-13.09-25.79-19.68-38.66l18-2.22c4,6.89,8.09,13.68,11.81,20.69,1.73,3.26,3.36,4.29,7.08,2.84q33-12.9,66.28-25.31c4-1.49,4.56-3.35,3.65-7.32-2.13-9.33-3.6-18.81-5.34-28.22a27.9,27.9,0,0,1,10.91-9"/>
    <path class="cls-12" d="M958.87,733.34c-10.17,9.88-13.26,20.54-15.2,32.16-1.78,10.61-9.53,17.58-19.2,21.76-8.79,3.81-17.75,7.35-27.33,8.8-10.27,1.55-19.37,0-26.59-8.64a35,35,0,0,0-19.43-11.95c-2-.46-4.08-1-5-2.08,35.31-17.07,72.83-28.44,112.77-40m-69.78,48.1c10.15,3.54,28.47-2.58,36.25-12.12q4.29-7.59,8.57-15.18c.85-1.24,2.71-1.81,2.56-5.43-22.21,15.41-46.07,24-72.31,25.63l5.17.55c6.1,3.66,13.32,3.92,19.76,6.55"/>
    <path class="cls-13" d="M1016.7,787.46c1.74,9.41,3.21,18.89,5.34,28.22.91,4,.34,5.83-3.65,7.32q-33.23,12.4-66.28,25.31c-3.72,1.45-5.35.42-7.08-2.84-3.72-7-7.85-13.8-11.81-20.69C962.29,821,988,809.29,1011,791.38c1.82-1.42,3.82-2.62,5.74-3.92"/>
    <path class="cls-12" d="M1063.42,492.89c-3.14-10.89,4.48-24,15.58-26.84,18.42-4.68,34.68,3.4,41,21.51,5.62,16.12,6.1,33,4.7,49.94-1.14,13.7-4,26.79-11.87,38.53-3.22,4.82-7.68,8.17-11.62,12.15-2.41,2.44-5.34,1.64-7.76,0-3.77-2.63-8.34-4.9-7.86-10.66.32-3.84,1.5-7.3,5.11-9.44,6.29,10.28,12.53,9.9,18.41-1.15,9-17,8.24-35.31,7.06-53.59-.58-9.1-2-18.13-8-25.73-11.76-14.94-29.2-14.8-40.77.43-1.27,1.67-2.64,3.27-4,4.91Z"/>
    <path class="cls-14" d="M883.73,724.61c-13.22,5.19-25.85,3-38.12-2.93a21.61,21.61,0,0,1-6.07-4.72c-3.93-4.15-3.22-7.22,1.93-9.85,5.73-2.93,12.08-3.8,18.19-5.27,14.22-3.43,27.55-9.29,41.24-14.15,7.47-2.66,11,.24,9.13,8-3.44,14.33-12.92,23.45-26.3,28.88"/>
    <path class="cls-9" d="M913.05,504.1c25.87-8.16,50.28-7.6,73.81,5a31.75,31.75,0,0,1,10.42,8.22c1.48,1.9,3.08,4,1.77,6.35-1.51,2.73-4.28,1.46-6.36.87-7.9-2.26-15.66-5-23.57-7.18-17.66-4.94-35.22-4.59-52.5,1.87-8.57,3.2-17.09,6.57-25.66,9.8-1.7.64-3.65,1.63-5.12-.35-1.31-1.75-.66-3.64.28-5.31,3-5.28,7.79-8.81,12.71-11.93,4.73-3,10-5.16,14.22-7.3"/>
    <path class="cls-9" d="M751.92,576.71c-27.46,7.1-45.73,25.72-59,50.18a85.12,85.12,0,0,1-5.38,8.25c-.92,1.32-2,2.88-4,2.34s-2.28-2.32-2.62-3.89c-1.28-6,.31-11.79,2.69-17.13,13.72-30.87,37.12-49.34,70.77-54.33a31,31,0,0,1,12.58.56c2.32.62,4.74,1.56,4.91,4.36s-2.53,3.06-4.38,3.8c-5,2-10.11,3.82-15.56,5.86"/>
    <path class="cls-12" d="M1063.42,492.9c0,.22-.07.45-.11.67,0-.22.07-.45.11-.68Z"/>
    <path class="cls-12" d="M884.44,349.35a22.11,22.11,0,0,1,9.94-14.53l-8,15.54-1.92-1"/>
    <path class="cls-12" d="M900.51,326.73c-.77,2.75-2.65,4.43-5.78,7,.61-4.59,2.61-6.14,5.12-7.29a6.62,6.62,0,0,0,.66.3"/>
    <path class="cls-12" d="M904,323a5.3,5.3,0,0,1-.85.73c-.08.06-.34-.16-.52-.26a5.94,5.94,0,0,1,.86-.73c.08-.06.34.17.51.26"/>
    <path class="cls-5" d="M728.8,383.38a2.05,2.05,0,0,1,0-.61c0-.09.23-.13.36-.2l-.51.75Z"/>
    <path class="cls-12" d="M899.85,326.43c.18-.59.34-1.25,1.17-.71a9,9,0,0,1-.52,1c-.22-.09-.44-.19-.65-.3"/>
    <path class="cls-5" d="M882.73,353.73l1-1.05-.15,1.42-.87-.37"/>
    <path class="cls-14" d="M990.8,588.28c7.72,20.86-2.86,44.25-23.52,52a40.84,40.84,0,0,1-52.68-23.54c-7.89-20.9,3-44.92,23.82-52.66a40.89,40.89,0,0,1,52.38,24.19m-31.44-10.79c-5.4-.82-10.92-.62-15.85,1.43-10.84,4.52-18.51,18.31-16.43,28.34,3,14.58,12.63,23.22,26.31,23.65,12.42.39,23.1-7.7,26.34-20.8,1.21-4.88,2.86-10.45-1.94-14.82,4.4-7.65,4.25-13.19-.47-17.85-4.57-4.49-10-4.48-18,0"/>
    <path class="cls-14" d="M799.31,652a40.69,40.69,0,1,1-52.17-24.21A40.42,40.42,0,0,1,799.31,652M739.2,675.76c-1.84,1.18-2.45,2.46-1.13,4.62,5.71,9.3,14.07,15.13,24.8,14.39,9.58-.66,18.49-4.31,23.17-14.41,4.77-10.28,4.48-19.89-2.4-28.85-10.06-13.1-32.66-14.65-40.74-.62-3.92-.48-7.82-1.06-11.34,1.63-4.5,3.45-6.46,8-5.17,13.44,1.56,6.6,6.7,8.93,12.81,9.8"/>
    <path class="cls-15" d="M933.91,754.14q-4.27,7.59-8.57,15.18c-11.76,5-23.72,9.42-36.25,12.12-6.44-2.63-13.66-2.89-19.76-6.55,23.12-1.95,45.11-7.44,64.58-20.75"/>
    <path class="cls-16" d="M933.91,754.14c-19.47,13.31-41.46,18.8-64.58,20.75l-5.17-.55c26.24-1.61,50.1-10.22,72.31-25.63.15,3.62-1.71,4.19-2.56,5.43"/>
    <path class="cls-16" d="M889.09,781.44c12.53-2.7,24.49-7.12,36.25-12.12-7.78,9.54-26.1,15.66-36.25,12.12"/>
    <path class="cls-6" d="M977.79,595.29c4.8,4.37,3.15,9.94,1.94,14.82-3.24,13.1-13.92,21.19-26.34,20.8-13.68-.43-23.29-9.07-26.31-23.65-2.08-10,5.59-23.82,16.43-28.34,4.93-2,10.44-2.25,15.85-1.43-4.52,7.91-4.35,13,.58,17.8,4.76,4.64,9.7,4.64,17.85,0"/>
    <path class="cls-10" d="M977.79,595.29c-8.15,4.64-13.09,4.64-17.85,0-4.93-4.81-5.1-9.89-.58-17.8,7.94-4.53,13.39-4.54,18,0,4.72,4.66,4.87,10.2.47,17.85"/>
    <path class="cls-6" d="M742.9,650.89c8.08-14,30.68-12.48,40.74.62,6.88,9,7.17,18.57,2.4,28.85-4.68,10.1-13.59,13.75-23.17,14.41-10.73.74-19.09-5.09-24.8-14.39-1.32-2.16-.71-3.44,1.13-4.62,6.32-1.32,10.75-4.69,11.72-11.38s-2.86-10.47-8-13.49"/>
    <path class="cls-10" d="M742.9,650.89c5.16,3,9,6.94,8,13.49s-5.4,10.06-11.72,11.38c-6.11-.87-11.25-3.2-12.81-9.8-1.29-5.49.67-10,5.18-13.44,3.51-2.69,7.41-2.1,11.33-1.63"/>
  </g>
</svg>
