<svg id="Layer_4" data-name="Layer 4" xmlns="http://www.w3.org/2000/svg" viewBox="0 0 559.65 639.77"><defs><style>.cls-1{fill:#0c0807;}.cls-2{fill:#a56737;}.cls-3{fill:#a46636;}.cls-4{fill:#488dcb;}.cls-5{fill:#d42027;}.cls-6{fill:#21b14b;}.cls-7{fill:#fde500;}.cls-8{fill:#9a5b2a;}.cls-9{fill:#6c401d;}.cls-10{fill:#faf8f7;}.cls-11{fill:#522f27;}.cls-12{fill:#060504;}.cls-13{fill:#600b0c;}.cls-14{fill:#f2ecec;}.cls-15{fill:#fff;}.cls-16{fill:#734725;}</style></defs><title>Akili-waving-4</title><g id="character"><path class="cls-1" d="M335.86,600c3.2,2.46,3.27,2.39,5.91-.79,7.24-8.71,16.55-14.45,26.89-18.71a55.72,55.72,0,0,0,9.93,7.26,129,129,0,0,1,12.55,7.83c5.21,3.62,10.36,7.37,14.08,12.67,5.67,8.06,5.16,24.07-8.77,29.5-5.79,2.26-11.84,2.17-17.87,1.85-11.44-.61-22.37-3.18-31.84-9.94a18.71,18.71,0,0,0-9.27-3.56c-8.39-1-15-4.75-17.61-13.37-2.55-8.36-1.16-16.5,1.92-24.46.27-.7.58-1.59,1.7-1.08C326.11,592.91,331.11,596.34,335.86,600Zm43.76,11.64c6-3.77,7.26-8.79,3.68-14.94a39.15,39.15,0,0,0-7-8.24c-1.24-1.19-2.49-.93-3.91-.54-7.91,2.22-13.72,7.44-19,13.37-1.74,2-5,4-4.35,6.34.56,2,4.32,2.46,6.7,3.54,3.84,1.75,7.69,3.55,12.85,3.52,3.32-.34,7.41-.79,11-3.06Z"/><path class="cls-1" d="M231.48,584.7c7.17,4.4,13.68,9.49,18.48,16.5,1.12,1.63,2.16,1.67,3.72.68,5.38-3.41,10.22-7.38,13.85-12.7,4.14,9.89,2.22,19.73-1.47,29-3.1,7.76-10.41,10.1-18.43,9.91a6.8,6.8,0,0,0-4,.83,66.91,66.91,0,0,1-40.33,10c-6.24-.4-12-2-16.63-6.71-5.93-6-7.63-21.8,2.16-29.65,2.35-1.89,4.69-3.8,7-5.67,8.2-6.51,18.6-9.57,26.4-16.71.13-.12.39-.09.58-.14C225.44,582.08,228.67,583,231.48,584.7Zm9.36,23.86c.94-.37,1.21-1,.53-1.85-6.28-8.19-12.74-16.11-23.19-19.33a3.5,3.5,0,0,0-4.05.88c-2.5,2.6-5.18,5-7,8.18-4.17,7.11-.81,12.83,5.56,15.66A21.89,21.89,0,0,0,223,614.2C229.42,614.08,235,610.9,240.84,608.56Z"/><path class="cls-2" d="M323.48,587.19c2.63,5.72,7.63,9.15,12.38,12.8,3.2,2.46,3.27,2.39,5.91-.79,7.24-8.71,16.55-14.45,26.89-18.71-3.92-5.16-4.8-11.42-6.2-17.47-1.83-7.94-3.48-15.91-5.2-23.87-6.06.42-12.07,1.58-18.19,1.18-5.57-.35-11.15-.65-16.73-1,.86,11.13,2.1,22.23,2.15,33.41A78.57,78.57,0,0,1,323.48,587.19Z"/><path class="cls-2" d="M222.85,580c2.59,2.1,5.82,3,8.63,4.72,7.17,4.4,13.68,9.49,18.48,16.5,1.12,1.63,2.16,1.67,3.72.68,5.38-3.41,10.22-7.38,13.85-12.7-1.67-8.91.71-17.55,1.77-26.28.62-5.07,1.2-10.15,1.79-15.23-12.24,1.14-24.41,1.11-36.41-2-2.52,8.89-4.34,18-7.83,26.6C225.75,575,224.15,577.39,222.85,580Z"/><path class="cls-2" d="M368.58,614.68c3.33-.33,7.42-.78,11-3,6-3.77,7.26-8.79,3.68-14.94a39.15,39.15,0,0,0-7-8.24c-1.24-1.19-2.49-.93-3.91-.54-7.91,2.22-13.72,7.44-19,13.37-1.74,2-5,4-4.35,6.34.56,2,4.32,2.46,6.7,3.54C359.57,612.91,363.42,614.71,368.58,614.68Z"/><path class="cls-2" d="M222.9,614.2c6.52-.12,12.1-3.3,17.94-5.64.94-.37,1.21-1,.53-1.85-6.28-8.19-12.74-16.11-23.19-19.33a3.5,3.5,0,0,0-4.05.88c-2.5,2.6-5.18,5-7,8.18-4.17,7.11-.81,12.83,5.56,15.66A21.94,21.94,0,0,0,222.9,614.2Z"/><path class="cls-3" d="M118.7,439c6.6-6.6,14.21-11,23.34-17.3.5-.34.32-1.23-.29-1.21-5.92.22-17.79,3.9-25.28,1a3,3,0,0,1-1.79-2.83c0-2.15,2.88-3.29,5.13-4.18l23.79-5.12c1.77-.55,2.88-.46,2.74-1.51s-2-.22-2.79-.4a64.08,64.08,0,0,0-9.69-1.9,17.9,17.9,0,0,1-4.06-2,2.87,2.87,0,0,1,.14-4.05,2.8,2.8,0,0,1,1-.6c3.58-1.49,7.57-1.63,11.45-1.74,6-.18,12.07-.13,18-.29,3.13-.09,5.63.32,8.44-1.68,3.53-2.5,8.45-5.82,11.76-8.6,16.86-14.17,28.68-25.37,42.36-43.18,2.63-3.42,5.5-8.24,9.81-8a9,9,0,0,1,4.4,1.67,12.13,12.13,0,0,1,5.53,7.88c1.32,7.05-3.58,13.4-7.83,19.7A458.22,458.22,0,0,1,194,417c-2.73,3-6.26,5.49-7.32,9.42-2.15,7.93-4.1,16.89-8.64,24.13a4,4,0,0,1-5.33,1.47c-1.76-1-2.49-3-2.76-5a67.19,67.19,0,0,0-1.86-9.43c-1.31-2.05-4.78,1.19-6.42,3.54a66.81,66.81,0,0,1-13.26,13.66c-2.47,2-5.47,4.64-7.75,2.47-1.25-1.19-.62-3.82,0-5.44a40.91,40.91,0,0,1,3.37-6,133.91,133.91,0,0,0,7.61-12.58c-.27-1.42-7.84,2.8-17.89,7.13-.68.29-15,6.92-16.87,3.75C116.05,442.74,117.56,440.09,118.7,439Z"/><path class="cls-4" d="M264.05,324.9a15.62,15.62,0,0,1-2.68,4.58c-2.31,2.84.49,1.61-2.51,4.33a40.42,40.42,0,0,0-9.23,12.95,6.68,6.68,0,0,1-1.87,2.7,6.41,6.41,0,0,1-3.24.42c-5.88-.53-9.83-2.64-14.2-6.23-2.53-2.15-4.72-4.44-7.14-6.7-1.18-1.1-2.15-2.1-2.11-3.7a14.9,14.9,0,0,1,1.17-3.85c2.24-5,2.94-9.22,4-14.56,1.19-5.87,3.06-10.19,7-13.91a26.72,26.72,0,0,1,9.57-5.37c4.28-1.49,2.13-.81,6.65-.26a16.55,16.55,0,0,1,11.58,6.43,27.16,27.16,0,0,1,3.14,7,25.35,25.35,0,0,1,1.79,8.24A24.59,24.59,0,0,1,264.05,324.9Z"/><path class="cls-3" d="M504.14,220.9c-8.37,4.16-15,10-23.84,16.62-.49.36-1.27-.09-1.06-.65,2.15-5.57,9.38-15.62,9-23.65a3,3,0,0,0-2.08-2.61c-2.06-.7-4,1.68-5.6,3.53l-12.44,20.92c-1.09,1.47-1.35,2.59-2.29,2.12s.42-2,.51-2.77a62.1,62.1,0,0,1,1.23-9.79,17.43,17.43,0,0,0-.58-4.48,2.85,2.85,0,0,0-4.76-.39c-2.56,2.92-3.95,6.66-5.29,10.31-2,5.59-4,11.4-6,17-1.08,2.93-1.51,5.44-4.29,7.46-3.49,2.55-8.2,6.16-11.9,8.41C416,274.38,401.58,282,380.33,289.3c-4.08,1.41-9.56,2.6-10.67,6.77a8.93,8.93,0,0,0,.18,4.7,12.16,12.16,0,0,0,5.71,7.76c6.3,3.52,13.84.91,21.16-1.14a460.52,460.52,0,0,0,62.56-22.12c3.73-1.64,7.2-4.19,11.26-3.9,8.2.49,17.32,1.48,25.66-.54a4,4,0,0,0,3.1-4.61c-.4-2-2-3.3-3.85-4.19a67.5,67.5,0,0,1-8.4-4.77c-1.51-1.89,2.62-4.13,5.39-4.95a66.56,66.56,0,0,0,17.2-8.22c2.64-1.7,6.14-3.71,4.81-6.56-.73-1.56-3.44-1.8-5.16-1.76a40.41,40.41,0,0,0-6.73,1.3,135.34,135.34,0,0,1-14.36,3.21c-1.26-.72,5.16-6.54,12.44-14.69.5-.55,11.35-12.08,8.94-14.75C508.57,219.59,505.58,220.19,504.14,220.9Z"/><path class="cls-4" d="M347.47,327.65a15.48,15.48,0,0,0,5.2-1.08c3.43-1.28,5-4.88,8.54-6.86a40.79,40.79,0,0,1,15.22-4.63,6.6,6.6,0,0,0,3.15-.9,6.28,6.28,0,0,0,1.43-2.94c1.38-5.74.63-10.16-1.38-15.44-1.19-3.11-2.7-5.88-4.07-8.91-.67-1.47-1.32-2.73-2.85-3.22a14.64,14.64,0,0,0-4-.12c-5.42.55-9.69-.15-15.11-.81-5.95-.73-10.65-.35-15.44,2.23a26.61,26.61,0,0,0-8.11,7.38,29.72,29.72,0,0,0-6,12.07,16.62,16.62,0,0,0,2.39,13,26.86,26.86,0,0,0,5.61,5.19,24.85,24.85,0,0,0,7.24,4.32A24.4,24.4,0,0,0,347.47,327.65Z"/><path d="M306.68,270.15s30.9,15.75,42.62,32.44c0,0-7.54-35.06-7.85-45.36,0,0,25.22,28.86,51.94,28.12a52.27,52.27,0,0,1-26.76-45.5S408.37,213,420.85,168.1c0,0-26.19-39.68-33.85-46,0,0,5.67-36.6-9.52-51.4,0,0-40-14-61.28-5.62,0,0-20.67-24-54.19-28.26,0,0-47.37,18.39-55.13,45.8,0,0-48.51,20-55.51,24.11,0,0-10,35.62,3.51,56.12,0,0-13.92,32.83-9.57,47.05,0,0,28.91,32.73,57,39.13s8,69.64,8,69.64,22.76-30.05,38.27-38.26c0,0-2.82,19.06-2,37.05C246.65,317.47,271.07,268.47,306.68,270.15Z"/><path class="cls-4" d="M370.32,536.09s-17.55,6.1-36.39,4.25-24.2-.37-27.71.37-30.29,8.31-43.59,8-30.3.92-40.46-8.87a392.37,392.37,0,0,0,5.91-51.72c1.3-28.26,7-63,11.83-81.28s4.43-65.94,4.43-65.94-5.43-34.07.37-44c6.28-10.71,29.18-12,50.61-11.82s42.67,5.73,48.4,7.58,10,54.86,10.71,65.57.19,55.42,1.85,70.38,6.83,46.36,7.39,61.88S370.32,536.09,370.32,536.09Z"/><polygon class="cls-5" points="254.96 294.67 266.32 292.02 333.31 289.93 339.84 290.54 337.87 325.39 261.4 327.36 254.96 294.67"/><path class="cls-6" d="M263.24,292.51l8.9-2.74L325.8,288c1.2.06,3.57,1.23,3.69,1.1l3.7.62-2.46,27.46-62.93,1.11Z"/><polygon class="cls-7" points="271.59 289.77 283.5 286.26 319.15 285.74 325.8 287.71 323.46 309.88 274.32 310.62 271.59 289.77"/><path class="cls-3" d="M316.32,303.72l2.46-17s-5.66-.73-7.63-5.54-4.56-10.83-17-10.34c-12,.47-9,5.78-9.54,8a53.47,53.47,0,0,0-.93,5.64s0,3.42-4.06,4.52c-3,.83,2,13.83,2,13.83Z"/><path class="cls-8" d="M381.79,159.93l-6.63-21.33s-.2-3,1.31-4.64,7.73-9.1,7.73-9.1-9.42,2.54-12.35,5.4c-1.21.34-1.46,1.43-3-.19s-19.64-19.37-19.64-19.37-28.78-9-32.76-10.87-5-2.52-4.81-7.16,1.21-15.89,1.56-18c0,0-7,19.63-7.59,22.27s-3.64,1.57-4.36,1.41-34.53-4.79-34.53-4.79-1.17-.39-4.2.68-28.37,11.44-32.55,14.81c-1.56.77-2.38.48-3-.19s-14-9.9-17.3-14.42c0,0,8.48,14.3,9.11,17.1,1.31,2.57-.79,2.34-1.32,3s-19,15.76-19,15.76l-8.1,28.92s-21-1.62-27.48,3.09c0,0,11.57-2.55,22.9,2,0,0-3.08,12.94-1.36,18.16,1,34.57,9,54.84,16.23,67.35,14.65,21.27,47.07,36.23,65.8,40.49,28.33,5,41.27,1.83,66.82-10.54,7.29-8.7,37.47-19.25,49-70.9Z"/><path class="cls-8" d="M388.45,208.05c-1.75.63-4.45,1-5.54.64-1.58-.66-2.65-2.66-3.65-4-4.48-6.38-4.36-14.79-4.09-22.57l.28-7.12a40.75,40.75,0,0,1,1.12-9.4,14.32,14.32,0,0,1,5.2-8c2.67-1.81,4.57-2,7.8-2.19,2.82-.2,7.15.12,9.58,1.61a13.51,13.51,0,0,1,5.44,6.45,40.74,40.74,0,0,1,3,12.24c.37,3.87-.74,8.16-1.77,11.9A35.47,35.47,0,0,1,399,201C395.66,205.15,392.76,206.48,388.45,208.05Z"/><path class="cls-9" d="M390.55,162.77a9.47,9.47,0,0,0-3.73.9,25.44,25.44,0,0,0-4.71,3.47c-.31-1.39.59-2.61,1.7-4.49a8,8,0,0,1,2.07-2.35,9,9,0,0,1,4.41-1.59c4.89-.53,9.35,2.36,11.82,6.64s1.47,9.78.6,14.63c-2.07,11.59-6.75,18.54-12,22.41-.23.16-4.77,4.28-7.23,2.84a4.15,4.15,0,0,1-.86-.76,6.09,6.09,0,0,1-1.42-4.31,3.72,3.72,0,0,1,3.23-3.36c-.38,1.67-.09,3.41,1.45,4.18a2.94,2.94,0,0,0,1.5.09,17.42,17.42,0,0,0,2.91-2c2.44-1.69,3.22-3.15,4.54-5.78a37.58,37.58,0,0,0,2.29-5.54c1.2-3.9,2.8-9,3-13.56s-2.63-10.1-7.2-11.24A6.48,6.48,0,0,0,390.55,162.77Z"/><path class="cls-8" d="M188.16,231.59c1.87.12,4.69.88,5.59.14,1.34-1.07,1.84-3.25,2.4-4.87,2.53-7.37.08-15.41-2.37-22.81l-2.22-6.74a41.05,41.05,0,0,0-3.66-8.73c-1.66-2.7-2.68-5.2-5.69-6.18s-7.8-1.78-10.94-1.07c-2.76.6-6.69,1.56-8.59,3.64s-1.9,6.41-2.29,9.39c-.53,4.12.39,8.15,1.15,12.22.73,3.83,3.37,7.76,5.35,11.08,2.74,4.46,6.92,6.37,11.2,9.37S183.56,231.27,188.16,231.59Z"/><path class="cls-9" d="M173.83,187.71a9.16,9.16,0,0,1,3.83-.15,25.66,25.66,0,0,1,5.49,2c-.09-1.43-1.3-2.34-2.88-3.84a8.08,8.08,0,0,0-2.69-1.7,9.14,9.14,0,0,0-4.67-.29c-4.86.85-8.29,4.87-9.49,9.65s1.73,12.28,3.91,16.7c5.2,10.55,11.91,15.24,18,17.48.28.06,5.77,2.79,7.73.73a3.62,3.62,0,0,0,.58-1,6,6,0,0,0,.17-4.53,3.71,3.71,0,0,0-4-2.33c.84,1.49,1,3.26-.23,4.42a2.82,2.82,0,0,1-1.4.5,20.2,20.2,0,0,1-10.41-6.18,36.48,36.48,0,0,1-3.72-4.69c-2.24-3.41-5.18-7.84-6.63-12.21s.21-11.41,4.29-13.78A6.2,6.2,0,0,1,173.83,187.71Z"/><path class="cls-10" d="M297.18,200.73c-2.2-8.37,0-15.87,6.26-21.78a41.62,41.62,0,0,1,28.72-11.55c10.77-.17,21.88,8.23,24.06,18.64,1.73,8.29-.7,19.44-11.49,25.49a46.23,46.23,0,0,1-28.6,5.39C305.29,214.64,299.47,209.39,297.18,200.73Z"/><path class="cls-10" d="M216.55,211.11c-1.4-8.32,2.94-17.68,11-22.21A40.31,40.31,0,0,1,262,186c7.59,2.7,12.07,8.66,13,16.77,1,8.57-.53,16.52-8.52,21.45a46.58,46.58,0,0,1-30,6.72C224.38,228.28,218.33,221.67,216.55,211.11Z"/><path class="cls-11" d="M310.94,189.94a16.62,16.62,0,1,1,12.63,19.82l-.15,0A16.64,16.64,0,0,1,310.94,189.94Zm27.37-5.46c-2-2-4.38-2-7.52.05-2.69-1.72-8.14-.94-10.77,1.51a11.7,11.7,0,0,0-2.45,14c2.57,4.62,7.52,6.57,12.92,5.06,4.72-1.31,8-6.18,7.76-11.57,0-.49,0-1,0-1.49C340.26,188.84,340.29,186.48,338.31,184.48Z"/><path class="cls-12" d="M330.79,184.53c-2.69-1.72-8.14-.94-10.77,1.51a11.7,11.7,0,0,0-2.45,14c2.57,4.62,7.52,6.57,12.92,5.06,4.72-1.31,8-6.18,7.76-11.57,0-.49,0-1,0-1.49-2.46,1.29-4.94,1.9-7.09-.4S329.19,187,330.79,184.53Z"/><path class="cls-10" d="M330.79,184.53c-1.59,2.45-1.81,4.89.3,7.11s4.66,1.68,7.09.39c2.05-3.19,2.08-5.56.1-7.56S333.92,182.48,330.79,184.53Z"/><path class="cls-11" d="M230.63,213.4a16.59,16.59,0,1,1,20.52,11.38l-.09,0a16.51,16.51,0,0,1-20.41-11.33Zm16.91-15.69-1.5,0c-5.41.07-10,3.59-11.14,8.36-1.24,5.47,1,10.32,5.76,12.59a11.66,11.66,0,0,0,13.87-3.19c2.31-2.75,2.77-8.28.92-10.83,1.89-3.23,1.78-5.63-.34-7.51s-4.52-1.68-7.6.54Z"/><path class="cls-12" d="M255.4,204.7c1.85,2.55,1.38,8.07-.93,10.83a11.66,11.66,0,0,1-13.87,3.19c-4.75-2.31-7-7.15-5.75-12.59,1.08-4.77,5.74-8.28,11.13-8.36l1.5,0c-1.15,2.52-1.63,5,.78,7.08S253.07,206.4,255.4,204.7Z"/><path class="cls-10" d="M255.4,204.7c-2.35,1.72-4.79,2.05-7.11.08s-1.94-4.54-.78-7.08c3.08-2.22,5.44-2.38,7.53-.51S257.27,201.46,255.4,204.7Z"/><path class="cls-13" d="M317,248.48s1.51-2.11-.91-.51a52.9,52.9,0,0,1-32.59,6.93,27.89,27.89,0,0,1-5.2-1c-.49-.06-.6.42.21.74s8,2.45,10.21,4.71,5.42,1.94,6.17,2,7.57-.5,11.61-2.72C310.26,255.87,309.74,252.84,317,248.48Z"/><path class="cls-14" d="M317.27,246.66s-.18,2.74-8.29,6.2a50.66,50.66,0,0,1-22.13,3.73,23.51,23.51,0,0,1-9-2.87Z"/><path class="cls-15" d="M308.11,257s-7.59,2.25-9.17,2.52-8.51.78-10.6,2.19S305.64,264.47,308.11,257Z"/><path class="cls-16" d="M270,253.14c2.64,1.42,6.57,2.18,9.65,5.35.93,1,2.37,3.07,3.42,3.85.83.63,1.95,2.26,2.93,2.63a26.53,26.53,0,0,0,10.32,1.72c2.69-.06,5.32-.84,7.92-1.27a16.78,16.78,0,0,0,8-3.62,5.71,5.71,0,0,0,1.26-1.38,9,9,0,0,0,1-2.85,23.77,23.77,0,0,1,7.61-12.63.27.27,0,0,0,0-.39.29.29,0,0,0-.29-.08l-3.67,1.29a9,9,0,0,1-1.91.43,35.27,35.27,0,0,1-4.59.31,44.49,44.49,0,0,0-6.42.44c-2.92.41-8.55,1.52-11.41,2.14C284.72,251,277.41,253.11,270,253.14Zm8.24.74a28.59,28.59,0,0,0,5.2,1A53,53,0,0,0,316,247.93c2.42-1.6.91.52.91.52-7.24,4.35-6.73,7.38-10.51,10.11-4.05,2.23-10.89,2.77-11.61,2.72s-4,.3-6.18-2-9.41-4.41-10.21-4.71S277.76,253.83,278.25,253.88Z"/><path class="cls-11" d="M286.5,235c9.1,2.78,17.95-3.66,21.49-10.41,1.49-2.83.35-4.54-2.81-4.41a13.75,13.75,0,0,0-3,.44A139.77,139.77,0,0,1,280,224.82c-1.49.17-3.21.3-3.81,2-.64,1.84.78,3,2,4.07A15.73,15.73,0,0,0,286.5,235Z"/><path class="cls-1" d="M332,146.68c-8.12-1.27-16.62-1.22-24.55,3.37a21.09,21.09,0,0,0-2,1.37,2.41,2.41,0,0,0-1.14,2.6c.41,1.28,1.63.89,2.59.73q4.75-.8,9.49-1.69c11.16-2.05,21,1.37,30.28,7.19a20.32,20.32,0,0,0,3.21,1.66c.77.31,1.75.93,2.48,0s.12-1.76-.24-2.57c-1.21-2.67-3.47-4.45-5.7-6.11A41.27,41.27,0,0,0,332,146.68Z"/><path class="cls-1" d="M212.38,183.44c-.5,2.19-1.24,4.44.45,5.23,1.85.88,2.73-1.53,3.72-2.79a115.85,115.85,0,0,1,7.24-9.3c5.8-6.38,13.21-9.72,21.45-11.52,2.07-.46,4.13-1,6.17-1.52.86-.23,1.88-.59,1.9-1.67s-1-1.58-2-1.89a17.67,17.67,0,0,0-8.36-.55c-13.67,2.24-23.77,9.38-29.79,22A13.17,13.17,0,0,0,212.38,183.44Z"/></g></svg>