<svg id="Layer_4" data-name="Layer 4" xmlns="http://www.w3.org/2000/svg" viewBox="0 0 1920 1080">
  <defs>
    <style>
      .cls-1 {
        fill: #a46737;
      }

      .cls-2 {
        fill: #0a0807;
      }

      .cls-3 {
        fill: #9a5b2a;
      }

      .cls-4 {
        fill: #a36535;
      }

      .cls-5 {
        fill: #a56838;
      }

      .cls-6 {
        fill: #488dcb;
      }

      .cls-7 {
        fill: #6f411e;
      }

      .cls-8 {
        fill: #050303;
      }

      .cls-9 {
        fill: #774b2a;
      }

      .cls-10 {
        fill: #f8f6f4;
      }

      .cls-11 {
        fill: #532f26;
      }

      .cls-12 {
        fill: #060504;
      }

      .cls-13 {
        fill: #f9f7f6;
      }

      .cls-14 {
        fill: #498ecb;
      }

      .cls-15 {
        fill: #d12127;
      }

      .cls-16 {
        fill: #2daf4a;
      }

      .cls-17 {
        fill: #fbe400;
      }

      .cls-18 {
        fill: #fff;
      }
    </style>
  </defs>
  <title>Akili-running_on_the_spot-4</title>
  <g>
    <path class="cls-1" d="M1379.47,963.85c4.92-8.44,9.76-16.07,11.63-18.73-3.77-8.86-13.81-6.23-14.74-15.78-.39-4.08-9.59,6.26-10.88,2.35a36.63,36.63,0,0,0-12,13l-.19.31C1364.18,942,1375.5,952.9,1379.47,963.85Z"/>
    <g>
      <path class="cls-2" d="M1345.62,1014.49S1356,1003,1361.7,998c1.76-1.55,3.11-3.73,5.62-4.34a4,4,0,0,0,.89.13,24.78,24.78,0,0,1,17.52,5.53c1.34,1.06,2,.71,2.92-.48,4.6-6.06,8.74-12.34,10-20,2.74,1.15,4.55,3.43,6.46,5.54a57.33,57.33,0,0,1,9.79,14.46,7.39,7.39,0,0,1-.55,7.73c-3.88,5.89-9.4,9.11-16.2,10.28a4.8,4.8,0,0,0-3.45,2.16c-5.29,7.61-12.88,12.28-21.08,16.1a84.22,84.22,0,0,1-14.07,5.13,19.89,19.89,0,0,1-7.9.63c-8.23-1.18-13.75-10.62-10.81-18.44"/>
      <path class="cls-3" d="M1351.33,963.51c.66,1.48,1.27,3,1.92,4.48.06,0,.14.08.18.14,4,6.89,9.26,13,13.7,19.61,1.26,1.87,1.64,3.88.19,5.89a4.63,4.63,0,0,0,.89.12,24.83,24.83,0,0,1,17.52,5.54c1.34,1.05,2,.71,2.92-.48,4.6-6.06,8.74-12.34,10-20l-2-1.46c-3.41-2.53-9.74-14.17-15.22-25.33C1370.19,948.84,1354,952.15,1351.33,963.51Z"/>
      <path class="cls-3" d="M1358.7,1015.74c-3.93-1.43-5.24-5.66-2.7-9.28a63.49,63.49,0,0,1,4.45-5.14,1.77,1.77,0,0,1,1.35-.64c6.82-.43,12.79,1.84,18.33,5.59a1.2,1.2,0,0,1,.4,1.9c-3.55,5.63-15.61,9.83-21.83,7.57"/>
    </g>
    <path class="cls-4" d="M1353.49,944.74s-6.29,8.61-2.16,18.77l31.13.82,4-17-16.34-5.66S1356.85,938.81,1353.49,944.74Z"/>
  </g>
  <g>
    <path class="cls-2" d="M1429.49,1034.81a20.26,20.26,0,0,1-10,6.34,24.22,24.22,0,0,1-11,.69,3.37,3.37,0,0,0-3,.51c-8.23,6.41-17.93,8.64-28,9.61a64.28,64.28,0,0,1-14.54.13c-4.5-.6-8.68-2-11-6.3-3.39-6.11-3.4-14.22,4.58-20s16.86-10.17,25.88-14.15c1.28-.57,2.42-1.69,4-1.22,6.8,1.87,12.42,5.41,16.21,11.52.67,1.09,1.46.81,2.29.18,1.94-1.45,4-2.77,5.82-4.35,3.93-3.42,8-6.8,9.76-12a4.43,4.43,0,0,1,2.18,2.17,58.47,58.47,0,0,1,6.82,17.71Z"/>
    <path class="cls-1" d="M1393.44,954.36c3,5.35,9-3.19,15.9,21.71.42,3.6,4.57,14.15,5.37,17.7,1,4.47,3.61,8.1,5.71,12-1.8,5.17-5.83,8.55-9.76,12-1.83,1.58-3.88,2.9-5.82,4.35-.83.63-1.62.91-2.29-.18-3.79-6.12-9.41-9.65-16.21-11.52,2-1.37,2.22-3.28,1.76-5.44a89.75,89.75,0,0,0-3.43-10.36c-2.72-7.84-6-22.12-6.5-30.42,5.23-1.35,9.92-9,15.27-9.81"/>
    <path class="cls-1" d="M1387.35,1031.17c-5.38.8-9.8.61-14-1.27-5.37-2.4-5.89-7.81-1.07-11.2,1.73-1.22,3.63-2.19,5.45-3.29a1.44,1.44,0,0,1,1.27-.17,29.85,29.85,0,0,1,15.7,11c.7,1,.76,1.54-.36,2.11-2.51,1.26-5,2.67-7,2.77"/>
  </g>
  <g>
    <path class="cls-5" d="M1328.73,835.67s-3.25,5.31-5.23,5.65l-4.58-19.16,6.28,3.37Z"/>
    <path class="cls-5" d="M1328.73,835.67a230,230,0,0,0,19.73-30.36c.28-.53.5-1.3,0-1.62a1.31,1.31,0,0,0-.62-.13c-5-.1-10-.55-14.16-3.67a1.93,1.93,0,0,0-.89-.45c-.35,0-.53.36-.76.61a30.87,30.87,0,0,0-1.88,2.6c-.59,1-1.18,1.91-1.78,2.85q-1.81,2.81-3.76,5.52a130.06,130.06,0,0,1-8.25,10.33c-1.83,2.06-3.73,4-5.68,6C1317.68,826.5,1325.52,829.77,1328.73,835.67Z"/>
    <path class="cls-5" d="M1251.7,823.3a12.69,12.69,0,0,0,4.29,1.38c5.35.94,10.77.84,16.17,1.13a9.31,9.31,0,0,1,4,.64c-2.24,1.2-4.55,1.47-6.66,2.27a19.71,19.71,0,0,0-4.68,2.17c-.9.64-1.72,1.43-1.39,2.68a2.39,2.39,0,0,0,2.28,1.71,37.14,37.14,0,0,0,4.08.3c7.16,0,14.2-1.21,21.24-2.36a8.2,8.2,0,0,1,3.81.23c9.42,2.9,19,5.61,28.61,7.87,4.43-5.33,3.93-14.39-.31-20.27l-3-1.23q-6.1-2.62-12-5.84c-1.17-.64-2.34-1.31-3.5-2a3.5,3.5,0,0,1-1.75-3c-.28-2.72-.55-5.45-.92-8.16-.43-3.21-.83-6.44-2.34-9.37a3,3,0,0,0-4.14-1.62,5,5,0,0,0-2.56,2.78,53.32,53.32,0,0,0-2,6.16c-1.11,3.22-1.88,3.43-4.5,1.3-3.57-2.91-7.09-5.88-10.71-8.72a17.64,17.64,0,0,0-6.65-3.49,2.77,2.77,0,0,0-2.82.62c-.82.88-.49,1.9-.07,2.84a26.23,26.23,0,0,0,4.28,6.21c2.11,2.46,4.28,4.86,6.4,7.32.31.36.84.79.55,1.3s-.91.27-1.38.14c-1.8-.49-3.6-1-5.4-1.54-5.8-1.69-11.5-3.81-17.57-4.36-1.53-.14-3.54-.54-4.24,1.22s1.09,2.78,2.29,3.72c5.33,4.13,11.42,6.95,17.45,9.86.76.37,1.73.5,2.31,1.59a100.29,100.29,0,0,0-14.41.83,13.31,13.31,0,0,0-4.93,1.49C1249.65,820.35,1249.68,822.11,1251.7,823.3Z"/>
    <path class="cls-6" d="M1339.65,777.17a13.32,13.32,0,0,0-1.75,2.32c-1.6,2.74-2.59,5.76-4,8.57a33.33,33.33,0,0,1-3.69,5.56,5,5,0,0,0-1.15,2,2.26,2.26,0,0,0,.27,1.52c2.28,4.18,5,6.23,9,8,2.17,1,4.35,1.67,6.58,2.54a3.6,3.6,0,0,0,3.09.22,11,11,0,0,0,2.13-2c2.51-3,5.06-4.81,8.18-7.19,3.4-2.6,5.61-5.14,6.79-8.83a18.12,18.12,0,0,0,1.21-7.25,11.63,11.63,0,0,0-2.81-6.5c-6.25-6.69-17.77-5.51-23.77,1"/>
  </g>
  <g>
    <path class="cls-7" d="M1397.29,715.6c-3.37,1.83-5,1.65-7.19-.82a2.83,2.83,0,0,1-.29-3.16,3.9,3.9,0,0,1,2.47-2.46c.91-.29,1,.67,1.36,1.2,1.17,1.87,2.41,2.36,4.3,1.23a17.18,17.18,0,0,0,7-7.37,47.18,47.18,0,0,0,4.6-16.15c1-11-8.16-14-15.44-11.47a19.32,19.32,0,0,0-6,3.76c-.39.32-.86.81-1.38.52s-.2-1-.07-1.43a9,9,0,0,1,4.31-5.58c5.27-2.79,10.9-3.52,16.43-.86a10.59,10.59,0,0,1,6.38,10.32c-.21,8-1.61,15.66-6.08,22.54a26.8,26.8,0,0,1-10.42,9.73"/>
    <path class="cls-3" d="M1350.4,783.58c-1.71-5-5-9.33-8-13.75a3.36,3.36,0,0,0-3.12-1.69,35.28,35.28,0,0,1-9.79-1.37q-9.32-2.65-18.57-5.46a13.92,13.92,0,0,1-5.2-2.6c-.42-1.05.47-1.53,1-2.05a61,61,0,0,1,5.19-4.59c4.6-3.41,6.83-7.8,6-13.58-.12-.89-.24-1.6-1.42-1.54-6.71.34-13-1.44-19.38-3.33-2.81-.84-5.78-1.69-8.81-.67-1.16-1.76-2.39-3.47-3.46-5.28a2.6,2.6,0,0,0-2.46-1.24,19.65,19.65,0,0,1-7.41-1.82,8,8,0,0,1-4.6-10.26,17.38,17.38,0,0,1,4.13-6.65c8.25-9,10.14-19.36,6.33-30.79-4.7-14.11-5.73-28.22-.62-42.46,2.8-7.79,7-14.64,13.39-20a22.13,22.13,0,0,0,1.72-1.77c.57.64,1.37.53,2.1.61,10.54,1.13,21.11,2.05,31.61,3.6a6.44,6.44,0,0,0,3.33-.33c4.54-1.78,9.06-3.61,13.66-5.24a152.82,152.82,0,0,1,43.1-9,45.92,45.92,0,0,1,10.21.26,18.8,18.8,0,0,1-3.9.7c-19.17,1.79-37.93,5.4-55.88,12.59-1.22.49-2.69.82-3.42,2.38.44.12.72.21,1,.26,8.36,1.49,16.73,3,25.1,4.44a6,6,0,0,1,3.83,2.11,63.91,63.91,0,0,1,5.42,7.46,124,124,0,0,0,7.54,10.93,3.68,3.68,0,0,0,3.86,1.59c3.78-.63,7.6-1.08,11.42-1.38,10.58-.85,21.09-.7,31.23,3,3.53,1.28,7,2.72,9.69,5.55l-.1.25a54.53,54.53,0,0,0-24-6.35,85.88,85.88,0,0,0-27.44,3.07c-.85.24-1.9.24-1.31,1.69,2.71,6.63,3.32,13.7,4.14,20.7.25,2.18.87,2.1,2.44,1.18a21.85,21.85,0,0,1,13.39-3.13c5.78.54,10.06,3.85,11.4,8.73A35.56,35.56,0,0,1,1399.48,717c-2.37,1.61-5.21,2.9-5.11,6.49a33.08,33.08,0,0,0,.36,5.16c.91,4.93,3.27,9.33,5,14l-9.79,7.77a106.93,106.93,0,0,1-14.28,9.4c-3.15,1.75-9.44,5.23-9,9.56.18,1.81,1.63,3.62.88,5.28a4.21,4.21,0,0,1-1,1.27,38,38,0,0,1-15.72,8.85c-.11-.39-.23-.78-.37-1.17"/>
    <path class="cls-8" d="M1418.06,768,1407.6,756.3a55.32,55.32,0,0,1-7.88-13.68c-1.72-4.64-4.08-9-5-14a33.08,33.08,0,0,1-.36-5.16c-.1-3.59,2.74-4.88,5.11-6.49a35.56,35.56,0,0,0,14.37-38.66c-1.34-4.88-5.62-8.19-11.4-8.73a21.85,21.85,0,0,0-13.39,3.13c-1.57.92-2.19,1-2.44-1.18-.82-7-1.43-14.07-4.14-20.7-.59-1.45.46-1.45,1.31-1.69a85.88,85.88,0,0,1,27.44-3.07,54.53,54.53,0,0,1,24,6.35c.22.28.44.56.85.53l.44.43a2.17,2.17,0,0,0,.12-.26,3.78,3.78,0,0,0-.51-.3l-.8-.66c-2.67-2.82-6.16-4.26-9.69-5.54-10.14-3.66-20.65-3.81-31.23-3-3.82.3-7.64.75-11.41,1.38a3.68,3.68,0,0,1-3.87-1.59,124,124,0,0,1-7.54-10.93,66,66,0,0,0-5.42-7.46,6,6,0,0,0-3.83-2.11c-8.37-1.45-16.74-3-25.1-4.44-.29,0-.56-.14-1-.26.73-1.56,2.2-1.89,3.42-2.38,17.95-7.19,36.71-10.8,55.88-12.59a18.16,18.16,0,0,0,3.9-.7,45.92,45.92,0,0,0-10.21-.26,152.82,152.82,0,0,0-43.1,9c-4.6,1.63-9.12,3.46-13.66,5.24a6.44,6.44,0,0,1-3.33.33c-10.5-1.55-21.07-2.47-31.61-3.6-.73-.08-1.53,0-2.1-.61,12.22-12,25.49-22.68,40.83-30.55a77.53,77.53,0,0,1,16-6.07,18.46,18.46,0,0,1,8.46-.08,147.9,147.9,0,0,1,49.6,20.4,11.91,11.91,0,0,0,4.34,1.67c11.11,2,20.89,7,29.93,13.59a2.45,2.45,0,0,1,1.07,1.83c1.84,13.39,2.56,26.79.29,40.2a11.75,11.75,0,0,0,1.11,7.39c5.18,10.83,9.12,22,10,34.18a11.55,11.55,0,0,1-3.65,9.81,282.86,282.86,0,0,1-27.54,24.24,4.33,4.33,0,0,0-1.63,2.55,54.38,54.38,0,0,0,2,33.65,102.82,102.82,0,0,0,6.28,14.28,14.51,14.51,0,0,1-2.85-1.88q-5.85-4.95-11.67-9.92m-17.69-165.26a1.19,1.19,0,0,0,.08-.16c-.06,0-.13-.06-.17,0s0,.1-.08.16l.17,0m.85-.08h.18l-.05-.13Zm1.22-.11h-.15l0,.1Z"/>
    <path class="cls-9" d="M1288.38,733c3-1,6-.17,8.81.67,6.34,1.89,12.67,3.67,19.38,3.33,1.18-.06,1.3.65,1.42,1.54.8,5.78-1.43,10.17-6,13.58a61,61,0,0,0-5.19,4.59c-.55.52-1.43,1-1,2.05-.93-.08-.45,2-1.9,1.22s-3.48-1.31-4-3.3c-.36-1.33.72-2,1.65-2.67a55.27,55.27,0,0,1,9.78-5.56c3.64-1.67,5.15-4.1,5-7.75-.09-1.55-.51-2.19-2.27-2.09-7,.39-13.94.94-20.92.25-5.55-.55-5.55-.52-4.66-5.86"/>
    <path class="cls-2" d="M1291,649.2a13.52,13.52,0,0,1,10.3-1.36c9.08,2.24,15.54,7.82,19.51,16.28.37.79.88,1.83-.09,2.42s-1.51-.43-2.1-.94c-2.17-1.85-4.29-3.77-6.43-5.65a21.6,21.6,0,0,0-19.93-5.19,13.75,13.75,0,0,1-1.77.33c-1.08.09-2.43.75-3-.57-.56-1.17.16-2.32.9-3.31a7.49,7.49,0,0,1,2.66-2"/>
    <path class="cls-10" d="M1290.68,688.88a17.26,17.26,0,0,1,.27-9.37c2-5.5,7.17-10.27,13.24-10.2a20.86,20.86,0,0,1,20.62,17.07c1,5.5-1.75,9.71-5.46,13.35a21.17,21.17,0,0,1-8.8,5.09c-6.4,1.94-11.64.1-15.36-5.47a31.58,31.58,0,0,1-4.51-10.47"/>
    <path class="cls-11" d="M1295.5,699.46a11.9,11.9,0,1,1,16,5,11.92,11.92,0,0,1-16-5"/>
    <path class="cls-12" d="M1303.15,687.28c-2.24.29-4.89,3.25-5.19,5.8a8.37,8.37,0,0,0,5.15,8.79,7.71,7.71,0,0,0,9.4-3.21,8.12,8.12,0,0,0-1.12-9.92c-.25-.26-.48-.53-.72-.8-.74,1.84-1.82,3.32-4.07,3.08s-3.19-1.67-3.45-3.74"/>
    <path class="cls-13" d="M1303.15,687.28c.26,2.07,1.28,3.5,3.45,3.74s3.33-1.24,4.07-3.08c-.36-2.7-1.44-4-3.44-4.18s-3.32.94-4.08,3.52"/>
    <path class="cls-3" d="M1436.1,652.85c.17.1.35.19.51.3a2.17,2.17,0,0,1-.12.26l-.44-.43Z"/>
    <path class="cls-3" d="M1436.05,653c-.41,0-.62-.24-.84-.52l.09-.25.8.64,0,.13"/>
    <path class="cls-3" d="M1400.39,602.72l-.18,0c0-.06,0-.14.08-.16s.12,0,.17,0,0,.11-.07.16"/>
    <polygon class="cls-3" points="1401.23 602.64 1401.36 602.52 1401.41 602.64 1401.23 602.64"/>
    <polygon class="cls-3" points="1402.43 602.54 1402.33 602.63 1402.29 602.53 1402.43 602.54"/>
  </g>
  <path class="cls-14" d="M1382.66,762.16c-3.61,8.64-6.8,16.25-12.17,24a7.16,7.16,0,0,1-5.49,3.43c-5,.59-10.12,1-15.18,1.46-2.18.2-3.88.08-4-2.66.17,6.77-.65,13.48-1.17,20.2-.3,3.92-1.76,20.13-2.07,24.33-.4,5.58.23,24.6.24,28.54,0,9.63-.17,19.27-.09,28.9.11,12,.42,24,1.18,35.94.85,13.29,2.48,26.46,4.44,39.61a2.24,2.24,0,0,0,2.17,2.15c3.52.57,7.06,1,10.61,1.3s7.25-.34,10.88-.07c5.28-1.1,10.45-2.77,15.84-3.37a55.41,55.41,0,0,1,12.19-1s28.83-4.16,29.12-42.31c0-3.49-1.06-6.9-1.67-10.33-1.35-7.63-3.94-14.94-5.71-22.46-4-16.76-5.07-33.86-6.11-51-.43-7-.9-14-1.45-21s-2.18-14.29-2-21.18c.13-4.11,3.71-5.83,4.45-9.51.5-2.53-1-5.17-1.88-7.45-.46-1.23-2.76-9.71-3.76-9.94-.74-.17-1.09-.75-1.49-1.31-3-4.28-5.71-6.71-10.26-8.78a5,5,0,0,0-3.09-.32c-4.2.9-9.57,1.79-13.62,2.75"/>
  <path class="cls-15" d="M1383.36,762c-3.62,8.64-7.14,17.32-12.5,25.11a7.17,7.17,0,0,1-5.49,3.43c-5.06.59-10.13,1-15.19,1.46-2.17.2-3.88.08-4-2.66.09-1.19-.36-2.4.14-3.58,6,.35,11.79-.71,17.63-1.64a2.89,2.89,0,0,0,2.12-1.52,167.72,167.72,0,0,0,10.34-19.69l6.91-.91"/>
  <path class="cls-16" d="M1376.45,762.9a167.72,167.72,0,0,1-10.34,19.69,2.89,2.89,0,0,1-2.12,1.52c-5.84.93-11.67,2-17.63,1.64a7.37,7.37,0,0,1,0-4.55c5.31-.26,10.56-1.08,15.82-1.83a1.71,1.71,0,0,0,1.37-1,151.9,151.9,0,0,0,7.36-15.13l5.54-.29"/>
  <path class="cls-17" d="M1370.91,763.19a151.9,151.9,0,0,1-7.36,15.13,1.71,1.71,0,0,1-1.37,1c-5.26.75-10.51,1.58-15.82,1.83a22.54,22.54,0,0,1-.19-3.38c-.11-1.61.62-2.13,2-2.15a81.23,81.23,0,0,0,11.35-.51c.93-.09,1.26-.67,1.6-1.38,1.3-2.74,2.81-5.41,3.87-8.24.83-2.23,2.14-2.87,4.29-2.44a12,12,0,0,0,1.59.09"/>
  <path class="cls-18" d="M1411.66,798.18l.39.5-.39-.5"/>
  <path class="cls-5" d="M1444.88,792.6a14,14,0,0,1,6.68-3.23,231.24,231.24,0,0,0-28-15.37c-.56-.26-1.39-.44-1.69.11a1.35,1.35,0,0,0-.09.66c.22,5.19.08,10.48-2.9,15a1.9,1.9,0,0,0-.42,1c0,.37.41.53.69.76.45.36,2.38,1.55,2.84,1.79,1,.54,2.06,1.1,3.08,1.67q3,1.69,6,3.55,3.54,2.22,6.94,4.67C1438.5,799.15,1442,795.1,1444.88,792.6Z"/>
  <path class="cls-5" d="M1430.23,840.3a8.35,8.35,0,0,1,1.91-3.5c8.22-9,16.25-18.33,23.68-28.06a12.21,12.21,0,0,0-1.9-6.27c-2.07-3.29-6.34-8.08-10.66-8.59q-1.42,1.65-2.89,3.26a135.76,135.76,0,0,1-9.84,9.65q-5.21,4.61-10.83,8.7c-1.14.82-2.28,1.63-3.44,2.42a3.66,3.66,0,0,1-3.61.32c-2.7-1-5.4-1.9-8.12-2.76-3.23-1-6.45-2.08-9.9-2a3.11,3.11,0,0,0-3.37,3.19,5.21,5.21,0,0,0,1.48,3.67c1.44,1.77,3.32,3,4.93,4.62,2.55,2.48,2.41,3.31-.77,4.84-4.33,2.08-8.71,4.08-13,6.24a18.21,18.21,0,0,0-6.25,4.73,2.87,2.87,0,0,0-.67,2.94c.46,1.16,1.57,1.31,2.65,1.33a27,27,0,0,0,7.77-1.28c3.26-.9,6.51-1.88,9.77-2.8.48-.13,1.12-.43,1.48.06s-.16,1-.49,1.37c-1.26,1.49-2.56,3-3.85,4.42-4.19,4.72-8.73,9.17-12,14.67-.81,1.38-2.08,3.1-.74,4.55s3.12.21,4.54-.52c6.29-3.19,11.65-7.69,17.09-12.09.69-.56,1.25-1.42,2.53-1.48a105.55,105.55,0,0,0-5.63,14,14,14,0,0,0-.79,5.32c.27,2.45,2,3.21,4,1.83a13.19,13.19,0,0,0,3.22-3.44c3.26-4.64,5.59-9.81,8.26-14.78a9.68,9.68,0,0,1,2.41-3.54c.13,2.65-.64,4.95-.82,7.3a21.14,21.14,0,0,0,0,5.39c.21,1.13.59,2.27,1.93,2.51a2.49,2.49,0,0,0,2.62-1.39,39.19,39.19,0,0,0,2.11-3.73C1426.18,854.64,1428.18,847.46,1430.23,840.3Z"/>
  <path class="cls-6" d="M1394.61,788.11a14.09,14.09,0,0,0,2.7,1.39c3.1,1.17,6.38,1.65,9.53,2.66a35.23,35.23,0,0,1,6.38,2.81,5.29,5.29,0,0,0,2.23.84,2.31,2.31,0,0,0,1.52-.55c3.9-3.08,5.53-6.23,6.71-10.64.65-2.41,1-4.78,1.45-7.22a3.72,3.72,0,0,0-.31-3.22,11.46,11.46,0,0,0-2.4-1.85c-3.54-2.06-5.84-4.37-8.84-7.16-3.27-3-6.28-4.87-10.29-5.43a18.74,18.74,0,0,0-7.68,0,12.18,12.18,0,0,0-6.2,4c-5.79,7.62-2.54,19.28,5.2,24.31"/>
  <path class="cls-5" d="M1450.69,788.85s14.54,7.58,5.13,19.89-20.25-12.33-20.25-12.33Z"/>
</svg>
