<svg id="Layer_1" data-name="Layer 1" xmlns="http://www.w3.org/2000/svg" viewBox="0 0 600.2 744.19">
  <defs>
    <style>
      .cls-1 {
        fill: #0b0907;
      }

      .cls-2 {
        fill: #a66838;
      }

      .cls-3 {
        fill: #a56737;
      }

      .cls-4 {
        fill: #498ecb;
      }

      .cls-5 {
        fill: #a06232;
      }

      .cls-6 {
        fill: #070504;
      }

      .cls-7 {
        fill: #d12327;
      }

      .cls-8 {
        fill: #29b04b;
      }

      .cls-9 {
        fill: #f9f6f4;
      }

      .cls-10 {
        fill: #fbe400;
      }

      .cls-11 {
        fill: #754a28;
      }

      .cls-12 {
        fill: #522f27;
      }

      .cls-13 {
        fill: #a46636;
      }

      .cls-14 {
        fill: #691e1b;
      }

      .cls-15 {
        fill: #dcccc6;
      }
    </style>
  </defs>
  <title>Akili-spinning-1</title>
  <g>
    <path class="cls-1" d="M999.45,969c1.33.13.93,1.21.81,1.85-2.27,12-6.76,23-16.54,31-8.35,6.75-17.91,7-27.3,2.62-5.65-2.65-11.11-3.3-17.31-3.3-22.48,0-42.1-8.41-58.56-23.41-14.53-13.24-9.12-37.69,9.39-44.43,11.77-4.29,24.12-4.14,36.41-4.32,8.18-.12,16.48,1.77,24.51-1.29.15-.06.45.28.68.43a3.94,3.94,0,0,0,.32.76c9.54,12.89,15.89,27.07,17.47,43.16.27,2.82,1.95,2.85,4,2.73C982.38,974.25,991.21,973,999.45,969Zm-75.78-3.58a35.48,35.48,0,0,0,5,3.57c7.72,4,16.22,4.12,24.53,5.23,2.16.29,2.11-1,2-2.51a94.19,94.19,0,0,0-5.14-23.81,41.41,41.41,0,0,0-7.44-12.83c-1.46-1.7-2.88-3.93-5.75-3.34-5.55,1.14-11.07,2.41-16,5.5-6.63,4.19-8.64,10.37-5.55,17.52A26.21,26.21,0,0,0,923.67,965.44Z" transform="translate(-706.3 -263.22)"/>
    <path class="cls-2" d="M1080.63,566.65c7.26,7.66,10,17.36,12.27,27.27,22.64-15.29,42.59-33.69,61.53-53.23,8.44-8.7,16.51-17.76,24.67-26.73a14,14,0,0,1,5.34-3.71c11.26-4.53,22.52-9.08,33-15.31a49.75,49.75,0,0,0,5.77-4c1.63-1.3,3.22-2.86,2.21-5.27s-3.12-2.47-5.23-2.52c-3.77-.07-7.37,1-11,1.78-2.66.59-5.19,1.83-8.23,1.74.48-2.16,2.36-2.7,3.71-3.64,8-5.59,16.55-10.49,23.94-17a24.23,24.23,0,0,0,4.9-5.56c1-1.58,1.59-3.31.32-5s-3.1-1.72-4.9-1.44c-6.24,1-11.74,3.91-17.21,6.84-3.77,2-7.45,4.19-11.17,6.29-.4.25-.84.63-1.21.07-.08-.13.3-.56.46-.84,4.65-8.13,10.17-15.74,14.4-24.12,1.92-3.82,4-7.6,4.92-11.82.37-1.62.92-3.36-.6-4.64-1.67-1.41-3.42-.52-5,.32-4.47,2.35-8,5.87-11.43,9.48-6.52,6.93-12.85,14-19.3,21-.7.76-1.25,1.93-2.83,1.63-.63-3,.49-5.92.94-8.85,1-6.4,2.53-12.73,2.65-19.25a28.37,28.37,0,0,0-.22-4.12c-.21-1.67-.59-3.4-2.48-3.94s-3.49.27-4.85,1.61a25.7,25.7,0,0,0-4.88,7.15c-4.24,8.58-6.66,17.82-9.87,26.78-1.78,5-3.14,5.37-7.32,2-3-2.43-5.82-5.08-8.86-7.45-2.71-2.11-5.83-2.82-8.84-.78s-2.35,5.1-1.71,7.94c2,8.84,6.28,16.78,10.14,24.86,1.54,3.21,1.37,5.71-.35,8.83A227.27,227.27,0,0,1,1080.63,566.65Z" transform="translate(-706.3 -263.22)"/>
    <path class="cls-3" d="M999.45,969c-8.24,4-17.07,5.23-26.07,5.77-2.1.12-3.78.09-4-2.73-1.58-16.09-7.93-30.27-17.47-43.16a3.94,3.94,0,0,1-.32-.76c8.5-3.64,14.52-10.37,20.69-16.84,9.81-10.27,19.69-20.47,30.15-30.09,9.89,11.9,22,21.5,33.43,31.76-10.08,14.06-21.13,27.43-30,42.35C1003.25,959.65,1000.3,963.86,999.45,969Z" transform="translate(-706.3 -263.22)"/>
    <path class="cls-1" d="M1243.78,839.52c3.25-1.91,6.9-2,10.44-1.82a82.79,82.79,0,0,1,23.55,4.21c11.33,3.84,17.89,13.25,17.13,25.34a24.64,24.64,0,0,0,2.59,12.58,90.48,90.48,0,0,1,6.8,59.28c-3.4,15.57-18.83,23.87-35.55,19.31-6.06-1.66-10.48-5.32-14.28-10-7.54-9.32-12.88-19.93-17.84-30.73-2.64-5.77-5.1-11.59-9.39-16.38,6.65-14.93,16.58-27.14,30.37-36,2.73-1.75,3.2-3.08,1.58-6.07A80.69,80.69,0,0,0,1243.78,839.52Zm-6.86,66.78c-2.25,2.6-.61,5.38,1.88,8.23a50.1,50.1,0,0,0,9.7,8.93c6.73,4.5,13.63,3.39,18.75-2.8,4.33-5.24,6-11.36,6.42-18,.49-8.86-3.71-16.59-6.11-24.74-.51-1.74-1.63-1.36-2.9-.6a83.78,83.78,0,0,0-11.76,8.45C1246.51,891.33,1240.44,897.16,1236.92,906.3Z" transform="translate(-706.3 -263.22)"/>
    <path class="cls-3" d="M1243.78,839.52a80.69,80.69,0,0,1,15.4,19.68c1.62,3,1.15,4.32-1.58,6.07-13.79,8.88-23.72,21.09-30.37,36-4-4.81-9.67-7.18-15.19-9.56-13.55-5.84-27.9-9.38-41.79-14.27,4.68-11.62,8.54-23.48,9.91-36,.42-3.8.48-7.63.7-11.44,15.57,2.71,31.11,5.62,46.56,9A40.26,40.26,0,0,0,1243.78,839.52Z" transform="translate(-706.3 -263.22)"/>
    <path class="cls-2" d="M917.6,618.71c-1.15,7.76-1.64,15.51.11,23.26-20.43.56-40.86.19-61.29-.22-20-.4-40-1-60-1.57a10.73,10.73,0,0,0-5.07,1.51c-10.73,5.06-21.51,10-32.88,13.52a61.09,61.09,0,0,1-8.08,1.73c-1.82.29-3.75.09-4.7-1.8s-.18-3.75,1.2-5.28c3.57-4,8.07-6.68,12.5-9.5,1.36-.86,2.71-1.77,4.75-3.1-3.93-.56-6.75.65-9.61,1.31-7.67,1.75-15.25,3.89-23.06,5a28.24,28.24,0,0,1-9.08.18c-1.91-.35-3.86-.73-4.54-3s.71-3.59,2.21-4.93a29.55,29.55,0,0,1,9.72-5.37c6.47-2.38,13-4.55,19.52-6.81l.88-.26-.74-.6c-10.81-2.18-21.76-3.76-32.3-7.2a32.56,32.56,0,0,1-8.69-3.8c-2.95-2.06-2.77-4.29.43-6,3.4-1.77,7.19-1.92,10.89-2.19,9.79-.74,19.6-.09,29.4,0,2.4,0,4.91.61,7.36-.84-2-2.87-5-4.19-7.57-5.86-5.47-3.5-11-6.93-15.88-11.22-2.12-1.85-5-4-3.59-7.22,1.51-3.37,5.08-2.8,8.09-2.28,8.11,1.39,15.43,5,22.85,8.35,3.39,1.52,6.76,3.1,10.18,4.58,2.78,1.2,3.93-.06,3.74-2.8a31.19,31.19,0,0,0-.76-4.49c-.46-2-1.16-4-1.5-6-.57-3.47-2-7.35,2-9.7s7,.5,9.67,2.7c7.56,6.13,13.53,13.78,19.54,21.35a23.94,23.94,0,0,0,8.23,6.74C844.91,613.73,880.12,621.74,917.6,618.71Z" transform="translate(-706.3 -263.22)"/>
    <path class="cls-4" d="M1073.45,545.91a65.76,65.76,0,0,1,13.61,2.7c2,.65,4,1.61,6.08,2.12,1.83.44,2.2,2.7,3.37,4,3.19,3.66,6.13,7.58,9.29,11.32,2.45,2.91,4.91,5.82,7.25,8.82a28.79,28.79,0,0,0,3.14,3.39,5.5,5.5,0,0,1,1.13,1.18c.43.76.19,1-.31,1.62a73.93,73.93,0,0,0-4.73,6.64,38.54,38.54,0,0,1-4.62,5.59,62,62,0,0,1-10.94,9.51c-1.64,1.15-3.57,2.92-5.58,3.31a29.09,29.09,0,0,0-5.89,2.22l-.71.28c-.58.22-1.65.23-2,.77-.5.7-.07,2.13.18,2.84.6,1.7,1.08,3.4,1.82,5a129.3,129.3,0,0,1,5.81,14.72c0,.15.09.3.13.46,8.69,29.3,34,50.91,51.14,76,16.9,24.75,36.37,49.1,44.13,78,13.72,51.16,22.11,26.94,32,48.48,1,2,.62,3.52-.45,5.35-25.09,42.91-96.28,61.06-141.78,66.38-23.59,2.76-40.32,9.89-63.4.09-2.37-1-19.43-14-19.22-16.56,2.14-25.66,8.45-29.39,1.52-59-3.24-13.87-3.77-28.12-5-42.25-1.56-18.11-5.82-35.63-11.51-52.8-3.73-11.26-8-22.33-12.3-33.41-3-7.8-5.55-15.76-8-23.76-.83-2.75-6.71-3.55-10.1-5.85-1.34-.91-4-.93-5.59-1.54-2.24-.85-5-.27-7.38-.55a38.55,38.55,0,0,1-8.63-2.34c-1.47-.54-3.13-1-4.55-1.65a27.6,27.6,0,0,1-3.3-2.17,51.35,51.35,0,0,0-4.59-3.36c-1.11-.6-2.25-1.15-3.35-1.78a14.52,14.52,0,0,1-4.47-4.29,27.11,27.11,0,0,1-2.42-3.8c-.39-.93-.69-1.93-1-2.88-.52-1.37-1.31-2.84-1.28-4.34a35,35,0,0,0-.37-6.59,46.32,46.32,0,0,1,1.21-19.23c3.6-13.76,13.21-26.59,33.26-25q9.15,21,18.27,42.09c.77,1.78,1.78,1.61,3.27,1.1q47.22-16.11,94.46-32.13c1.68-.57,2.34-1.16,2.09-3.18-1.79-15.1-3.36-30.23-7.93-44.84,3.59-.41,4.91-3.87,7.54-5.56C1059.1,547.14,1066.14,546,1073.45,545.91Z" transform="translate(-706.3 -263.22)"/>
    <path class="cls-5" d="M1058,501.51c-1.35,1-1.18,2.64-1.65,4-4.26,6.7-7.09,14.21-11.73,20.7-3.48,4.89-6.77,9.92-10.15,14.89q-8.16,7.83-15.61,16.34a16.61,16.61,0,0,0-6.42,5.27c-1.12.77-2.3,1.47-3.37,2.31-13.52,10.53-28.61,17.41-45.7,19.64l-10.6,1.3c-2.78-.44-5.28.82-7.9,1.31-.57-.34-1.14-1-1.7-1-8.69,0-17.22-1.7-25.86-2.26-6.35-2.58-13-4.14-19.63-5.79-7-3.44-14.31-6.35-21.09-10.34A136.83,136.83,0,0,1,830.21,523c.65-.74.44-1.45,0-2.26-6.83-13-13-26.38-19.27-39.72-8.08-17.36-11.11-35.59-11.63-54.47a39.14,39.14,0,0,1,8.42-25.76c6-7.9,11.83-16.11,19.34-22.56,6.15-5.27,8-11,7.95-18.93-.12-11.87,1.9-23.6,8.15-34.13l-.07,0c1.18,2.72.14,5.44-.11,8.13-.8,8.64-2.9,17.12-3.28,25.82-.08,1.87-.61,4.45,1,5.4s3.55-.81,5.1-1.92c6.69-4.82,13.2-9.93,20.09-14.45,6-4,11.91-8.35,19.37-9.69,10.58-1.9,21.35-1.87,32-3.36,5.2-.73,7.62-2.9,9.18-7.69,2.14-6.63,3.29-13.67,7.25-19.64l.52.22c-.09,5.26-2.39,10.12-2.61,15.41-.37,8.74,0,9.76,8.51,8.7a41,41,0,0,1,24.71,4.75c7.83,4.08,16,7.54,23.74,11.78,4,2.2,6.6,2,10-1.34,7.43-7.38,15.31-14.32,24.7-19.25,1.84-1,3.63-2.13,6.36-1.87-11.9,9.07-18.72,17.23-23.91,27.59-1.79,3.59-1.68,5.89,2,8.18,8.32,5.16,16.46,10.62,24.59,16.09,2.3,1.54,3.59,1.68,5.71-.72,5.56-6.3,12.52-9.95,21.28-8.35,3.09.57,6.57.93,8.54,3.7A63,63,0,0,1,1078.54,397c3.8,19.49-2.11,36.5-14.16,51.72a6.45,6.45,0,0,0-1.57,5.2c1,10.14,2.21,20.35-.09,30.46C1061.41,490.17,1059.6,495.81,1058,501.51Zm-18.09-112c.78-1,1.59-1.9,2.34-2.88,6.8-9,17-9,24-.25,3.51,4.46,4.36,9.77,4.71,15.12.69,10.75,1.15,21.54-4.15,31.51-3.46,6.5-7.13,6.72-10.83.68-2.12,1.25-2.82,3.29-3,5.55-.28,3.38,2.4,4.72,4.62,6.26,1.42,1,3.14,1.47,4.56,0,2.32-2.34,4.94-4.31,6.83-7.14,4.61-6.9,6.31-14.6,7-22.65.83-9.95.55-19.88-2.76-29.36-3.72-10.65-13.28-15.4-24.11-12.65-6.52,1.66-11,9.37-9.16,15.78l-.06.4Zm-75.29,31.64c-14.67,5.38-23.56,13-27.79,25.44-5.94,17.4,3.94,31.06,17.89,35,17.74,5,34.38,1.42,47.76-11.79,8.19-8.08,12.27-18.56,8.37-29.89-4.12-12-13.52-18.84-26.15-20.73A42.27,42.27,0,0,0,964.63,421.17Zm-90.5,97.38a49.89,49.89,0,0,0,10.75-5.7c11.17-8.06,17.42-22.92,12.89-34.06-5.06-12.45-14-21.59-31.26-21.21a59.29,59.29,0,0,0-20.88,4.54c-15.44,6.19-26.32,25.47-17,42.06,5.79,10.33,13.57,16.78,25.51,17.76C860.4,522.46,866.43,521.13,874.13,518.55ZM978.46,530.9c-23.49,6.82-45.55,13.51-66.3,23.54a5.63,5.63,0,0,0,3,1.23,20.56,20.56,0,0,1,11.42,7c4.24,5.09,9.6,6,15.63,5.08,5.63-.85,10.91-2.93,16.07-5.17,5.69-2.46,10.24-6.56,11.29-12.8C970.66,543,972.48,536.7,978.46,530.9Zm-44.18-5.14c7.87-3.19,13.44-8.55,15.46-17,1.1-4.58-1-6.29-5.37-4.72-8,2.86-15.88,6.3-24.24,8.32-3.59.86-7.33,1.37-10.69,3.09-3,1.55-3.45,3.35-1.14,5.8a12.9,12.9,0,0,0,3.57,2.77C919.08,527.51,926.51,528.81,934.28,525.76Zm17.24-129.64c-2.5,1.26-5.58,2.54-8.36,4.29s-5.71,3.91-7.47,7c-.56,1-.94,2.09-.17,3.12s2,.58,3,.2c5-1.9,10.05-3.88,15.09-5.76a48.74,48.74,0,0,1,30.86-1.1c4.65,1.3,9.22,2.9,13.86,4.22,1.22.35,2.85,1.1,3.74-.51.77-1.39-.17-2.62-1-3.73a18.57,18.57,0,0,0-6.13-4.83C981.08,391.65,966.73,391.32,951.52,396.12Zm-94.74,42.69c3.21-1.2,6.2-2.28,9.15-3.45,1.09-.43,2.68-.59,2.58-2.23s-1.53-2.2-2.89-2.56a18.11,18.11,0,0,0-7.4-.33c-19.78,2.93-33.53,13.79-41.6,31.94-1.4,3.14-2.33,6.53-1.58,10.07.2.92.48,2,1.54,2.29s1.78-.6,2.33-1.38a49.75,49.75,0,0,0,3.16-4.85C829.9,453.93,840.64,443,856.78,438.81Z" transform="translate(-706.3 -263.22)"/>
    <path class="cls-6" d="M843.19,325.15c-6.25,10.53-8.27,22.26-8.15,34.13.07,7.9-1.8,13.66-7.95,18.93-7.51,6.45-13.3,14.66-19.34,22.56a39.14,39.14,0,0,0-8.42,25.76c.52,18.88,3.55,37.11,11.63,54.47,6.23,13.34,12.44,26.68,19.27,39.72.42.81.63,1.52,0,2.26q-12.8-11.39-25.56-22.78c-4-3.59-7.77-7.46-11.94-10.83s-5-7.23-4.51-12.09c1-9.1,3.37-17.89,5.62-26.7a24,24,0,0,0-.71-14.71c-6.76-19.65-10.16-40.06-12.18-60.72a7.57,7.57,0,0,1,2.18-6.3c16.73-18.64,35.46-35.07,55.09-50.53,1.19-.95,2.48-1.69,2.82-3.38,2.9-14.62,11.77-25.69,21.89-35.84,16.69-16.75,18.55-17.2,42.15-14.86A207.47,207.47,0,0,1,954.25,275a17.76,17.76,0,0,0,13.15-.23c12.79-4.95,26.28-7.31,39.8-9.44,1.84-.29,2.72.33,3.72,1.71,12.07,16.66,23.83,33.51,31.89,52.59.84,2,2.3,2.53,3.92,3.23,15.61,6.71,30.06,15.15,41.73,27.76l.3.29c7.29,7.39,10.23,15.51,8.36,26.44-4.74,27.56-11,54.66-20.63,80.9-2,5.44-1.18,9.73,1.1,14.5,8.31,17.45,20.47,32,34.15,45.36,3.54,3.46,7.23,6.77,11,10.33-2.81,1.16-5.55.38-8.17,0-15.95-2.19-30-9.15-43.38-17.68-4.53-2.89-8.82-6.16-13.22-9.25,1.59-5.7,3.4-11.34,4.71-17.1,2.3-10.11,1.11-20.32.09-30.46a6.45,6.45,0,0,1,1.57-5.2c12-15.22,18-32.23,14.16-51.72a63,63,0,0,0-10.77-24.43c-2-2.77-5.45-3.13-8.54-3.7-8.76-1.6-15.72,2.05-21.28,8.35-2.12,2.4-3.41,2.26-5.71.72-8.13-5.47-16.27-10.93-24.59-16.09-3.67-2.29-3.78-4.59-2-8.18,5.19-10.36,12-18.52,23.91-27.59-2.73-.26-4.52.9-6.36,1.87-9.39,4.93-17.27,11.87-24.7,19.25-3.35,3.33-5.92,3.54-10,1.34-7.75-4.24-15.91-7.7-23.74-11.78A41,41,0,0,0,940.11,332c-8.48,1.06-8.88,0-8.51-8.7.22-5.29,2.52-10.15,2.61-15.41,0-.28,0-.55.08-.83l-.6.61c-4,6-5.11,13-7.25,19.64-1.56,4.79-4,7-9.18,7.69-10.64,1.49-21.41,1.46-32,3.36-7.46,1.34-13.34,5.72-19.37,9.69-6.89,4.52-13.4,9.63-20.09,14.45-1.55,1.11-3.43,2.92-5.1,1.92s-1.06-3.53-1-5.4c.38-8.7,2.48-17.18,3.28-25.82.25-2.69,1.29-5.41.11-8.13l.3-.44c-.07,0-.19.06-.21.12A1.43,1.43,0,0,0,843.19,325.15Zm100.57-33.48c-1.48.67-2.66,1.58-3,4.28,1.84-1.5,2.94-2.49,3.39-4.11a5.18,5.18,0,0,0,.31-.59C944,290.93,943.86,291.32,943.76,291.67Zm-9.06,13.47,1.13.6,4.71-9.14A13,13,0,0,0,934.7,305.14Zm11.52-15.51c-.11-.05-.26-.19-.31-.15a3.94,3.94,0,0,0-.5.43c.11,0,.26.18.31.15A3.94,3.94,0,0,0,946.22,289.63Z" transform="translate(-706.3 -263.22)"/>
    <path class="cls-7" d="M1045.22,556.64c4.57,14.61,6.14,29.74,7.93,44.84.25,2-.41,2.61-2.09,3.18q-47.25,16-94.46,32.13c-1.49.51-2.5.68-3.27-1.1q-9.08-21.06-18.27-42.09l8.27-3.18a268.72,268.72,0,0,1,15.1,30.76c.84,2,1.47,2.84,3.84,2q38-13.6,76.09-26.95c2-.7,2.59-1.7,2.23-3.61q-3.33-17.62-6.64-35.25C1037.61,555.65,1041.44,556.48,1045.22,556.64Z" transform="translate(-706.3 -263.22)"/>
    <path class="cls-8" d="M1034,557.36q3.32,17.63,6.64,35.25c.36,1.91-.22,2.91-2.23,3.61q-38.08,13.35-76.09,26.95c-2.37.85-3,0-3.84-2a268.72,268.72,0,0,0-15.1-30.76c.67-1,1.56-1.84,1.55-3.15,2.62-.49,5.12-1.75,7.9-1.31,3.88,7.57,7.84,15.09,11.57,22.73.91,1.85,1.58,2.47,3.66,1.71q28.74-10.44,57.56-20.66c2.73-1,3.15-2.33,2.56-4.94-2-8.94-3.86-17.93-5.76-26.9,1.66-.52,3.31-1.4,5-1.48C1029.56,556.32,1032.11,554.71,1034,557.36Z" transform="translate(-706.3 -263.22)"/>
    <path class="cls-1" d="M1034.48,541.1c3.38-5,6.67-10,10.15-14.89,4.64-6.49,7.47-14,11.73-20.7,1.83,15.1,8.76,28,17.09,40.4-7.31.1-14.35,1.23-20.69,5.17Z" transform="translate(-706.3 -263.22)"/>
    <path class="cls-1" d="M897.69,578.24c6.63,1.65,13.28,3.21,19.63,5.79a97.91,97.91,0,0,1-28.7,34C896.57,605.81,898.46,592.33,897.69,578.24Z" transform="translate(-706.3 -263.22)"/>
    <path class="cls-9" d="M1034.48,541.1l18.28,10c-2.63,1.69-4,5.15-7.54,5.56-3.78-.16-7.61-1-11.27.72-1.84-2.65-4.39-1-6.59-.94-1.68.08-3.33,1-5,1.48-1-1.21-2.3-.53-3.5-.46Q1026.3,548.92,1034.48,541.1Z" transform="translate(-706.3 -263.22)"/>
    <path class="cls-9" d="M964.63,421.17a42.27,42.27,0,0,1,20.08-2c12.63,1.89,22,8.74,26.15,20.73,3.9,11.33-.18,21.81-8.37,29.89-13.38,13.21-30,16.75-47.76,11.79-14-3.9-23.83-17.56-17.89-35C941.07,434.21,950,426.55,964.63,421.17Zm32.6,24.44a23.91,23.91,0,1,0-13.83,30.58A24,24,0,0,0,997.23,445.61Z" transform="translate(-706.3 -263.22)"/>
    <path class="cls-9" d="M874.13,518.55c-7.7,2.58-13.73,3.91-20,3.39-11.94-1-19.72-7.43-25.51-17.76-9.28-16.59,1.6-35.87,17-42.06a59.29,59.29,0,0,1,20.88-4.54c17.22-.38,26.2,8.76,31.26,21.21,4.53,11.14-1.72,26-12.89,34.06A49.89,49.89,0,0,1,874.13,518.55Zm10.52-35.48a23.93,23.93,0,1,0-14,30.46A23.73,23.73,0,0,0,884.65,483.07Z" transform="translate(-706.3 -263.22)"/>
    <path class="cls-10" d="M1018.87,557.44c1.2-.07,2.47-.75,3.5.46,1.9,9,3.72,18,5.76,26.9.59,2.61.17,4-2.56,4.94Q996.74,599.92,968,610.4c-2.08.76-2.75.14-3.66-1.71-3.73-7.64-7.69-15.16-11.57-22.73l10.6-1.3c2.33,4,4.75,8,6.94,12.16,1,1.92,2,2.52,4.16,1.67q19.44-7.57,39-14.88c2.35-.87,2.68-2,2.15-4.31-1.26-5.48-2.12-11-3.15-16.59A16.61,16.61,0,0,1,1018.87,557.44Z" transform="translate(-706.3 -263.22)"/>
    <path class="cls-11" d="M978.46,530.9c-6,5.8-7.8,12.07-8.94,18.9-1,6.24-5.6,10.34-11.29,12.8-5.16,2.24-10.44,4.32-16.07,5.17-6,.91-11.39,0-15.63-5.08a20.56,20.56,0,0,0-11.42-7,5.63,5.63,0,0,1-3-1.23C932.91,544.41,955,537.72,978.46,530.9Zm-41,28.27c6,2.09,16.74-1.51,21.31-7.12l5-8.92c.5-.74,1.6-1.07,1.5-3.2A81.75,81.75,0,0,1,922.77,555l3.05.32C929.4,557.47,933.65,557.63,937.43,559.17Z" transform="translate(-706.3 -263.22)"/>
    <path class="cls-3" d="M1012.45,562.71c1,5.54,1.89,11.11,3.15,16.59.53,2.34.2,3.44-2.15,4.31q-19.55,7.29-39,14.88c-2.19.85-3.14.25-4.16-1.67-2.19-4.12-4.61-8.12-6.94-12.16,17.09-2.23,32.18-9.11,45.7-19.64C1010.15,564.18,1011.33,563.48,1012.45,562.71Z" transform="translate(-706.3 -263.22)"/>
    <path class="cls-11" d="M1039.92,389.53c-1.84-6.41,2.64-14.12,9.16-15.78,10.83-2.75,20.39,2,24.11,12.65,3.31,9.48,3.59,19.41,2.76,29.36-.67,8.05-2.37,15.75-7,22.65-1.89,2.83-4.51,4.8-6.83,7.14-1.42,1.44-3.14,1-4.56,0-2.22-1.54-4.9-2.88-4.62-6.26.18-2.26.88-4.3,3-5.55,3.7,6,7.37,5.82,10.83-.68,5.3-10,4.84-20.76,4.15-31.51-.35-5.35-1.2-10.66-4.71-15.12-6.92-8.79-17.17-8.71-24,.25-.75,1-1.56,1.92-2.34,2.88Z" transform="translate(-706.3 -263.22)"/>
    <path class="cls-12" d="M934.28,525.76c-7.77,3-15.2,1.75-22.41-1.72a12.9,12.9,0,0,1-3.57-2.77c-2.31-2.45-1.89-4.25,1.14-5.8,3.36-1.72,7.1-2.23,10.69-3.09,8.36-2,16.19-5.46,24.24-8.32,4.4-1.57,6.47.14,5.37,4.72C947.72,517.21,942.15,522.57,934.28,525.76Z" transform="translate(-706.3 -263.22)"/>
    <path class="cls-1" d="M951.52,396.12c15.21-4.8,29.56-4.47,43.39,2.92a18.57,18.57,0,0,1,6.13,4.83c.87,1.11,1.81,2.34,1,3.73-.89,1.61-2.52.86-3.74.51-4.64-1.32-9.21-2.92-13.86-4.22a48.74,48.74,0,0,0-30.86,1.1c-5,1.88-10,3.86-15.09,5.76-1,.38-2.14,1-3-.2s-.39-2.14.17-3.12c1.76-3.11,4.57-5.18,7.47-7S949,397.38,951.52,396.12Z" transform="translate(-706.3 -263.22)"/>
    <path class="cls-1" d="M856.78,438.81c-16.14,4.18-26.88,15.12-34.71,29.5a49.75,49.75,0,0,1-3.16,4.85c-.55.78-1.2,1.7-2.33,1.38s-1.34-1.37-1.54-2.29c-.75-3.54.18-6.93,1.58-10.07,8.07-18.15,21.82-29,41.6-31.94a18.11,18.11,0,0,1,7.4.33c1.36.36,2.79.92,2.89,2.56s-1.49,1.8-2.58,2.23C863,436.53,860,437.61,856.78,438.81Z" transform="translate(-706.3 -263.22)"/>
    <path class="cls-11" d="M1039.92,389.53l-.06.4.06-.4Z" transform="translate(-706.3 -263.22)"/>
    <path class="cls-11" d="M934.7,305.14a13,13,0,0,1,5.84-8.54l-4.71,9.14Z" transform="translate(-706.3 -263.22)"/>
    <path class="cls-11" d="M944.14,291.84c-.45,1.62-1.55,2.61-3.39,4.11.35-2.7,1.53-3.61,3-4.28Z" transform="translate(-706.3 -263.22)"/>
    <path class="cls-11" d="M946.22,289.63a3.94,3.94,0,0,1-.5.43c-.05,0-.2-.1-.31-.15a3.94,3.94,0,0,1,.5-.43C946,289.44,946.11,289.58,946.22,289.63Z" transform="translate(-706.3 -263.22)"/>
    <path class="cls-13" d="M923.67,965.44a26.21,26.21,0,0,1-8.29-10.67c-3.09-7.15-1.08-13.33,5.55-17.52,4.88-3.09,10.4-4.36,16-5.5,2.87-.59,4.29,1.64,5.75,3.34a41.41,41.41,0,0,1,7.44,12.83,94.19,94.19,0,0,1,5.14,23.81c.14,1.56.19,2.8-2,2.51-8.31-1.11-16.81-1.25-24.53-5.23A35.48,35.48,0,0,1,923.67,965.44Z" transform="translate(-706.3 -263.22)"/>
    <path class="cls-5" d="M843.19,325.15a1.43,1.43,0,0,1,0-.36c0-.06.14-.08.21-.12l-.3.44Z" transform="translate(-706.3 -263.22)"/>
    <path class="cls-13" d="M1236.92,906.3c3.52-9.14,9.59-15,16-20.5a83.78,83.78,0,0,1,11.76-8.45c1.27-.76,2.39-1.14,2.9.6,2.4,8.15,6.6,15.88,6.11,24.74-.37,6.61-2.09,12.73-6.42,18-5.12,6.19-12,7.3-18.75,2.8a50.1,50.1,0,0,1-9.7-8.93C1236.31,911.68,1234.67,908.9,1236.92,906.3Z" transform="translate(-706.3 -263.22)"/>
    <path class="cls-11" d="M943.76,291.67c.1-.35.2-.74.69-.42a5.18,5.18,0,0,1-.31.59Z" transform="translate(-706.3 -263.22)"/>
    <path class="cls-5" d="M933.69,307.71l.6-.61c0,.28,0,.55-.08.83Z" transform="translate(-706.3 -263.22)"/>
    <path class="cls-12" d="M997.23,445.61a23.91,23.91,0,0,1-44.8,16.74,23.91,23.91,0,1,1,44.8-16.74Zm-18.49-6.34a17.37,17.37,0,0,0-9.31.84c-6.38,2.66-10.89,10.77-9.66,16.66,1.77,8.57,7.42,13.65,15.47,13.9,7.3.23,13.58-4.52,15.48-12.23.71-2.86,1.68-6.14-1.14-8.71,2.59-4.5,2.5-7.75-.28-10.49S983.41,436.6,978.74,439.27Z" transform="translate(-706.3 -263.22)"/>
    <path class="cls-12" d="M884.65,483.07A23.93,23.93,0,1,1,854,468.84,23.78,23.78,0,0,1,884.65,483.07Zm-35.34,14c-1.08.7-1.44,1.45-.66,2.72,3.35,5.47,8.26,8.89,14.57,8.46,5.63-.39,10.87-2.53,13.63-8.47s2.63-11.69-1.42-17c-5.91-7.7-19.19-8.62-23.95-.37-2.3-.28-4.59-.62-6.66,1-2.65,2-3.8,4.67-3,7.9C842.69,495.16,845.72,496.53,849.31,497Z" transform="translate(-706.3 -263.22)"/>
    <path class="cls-14" d="M963.78,543.13l-5,8.92a117.48,117.48,0,0,1-21.31,7.12c-3.78-1.54-8-1.7-11.61-3.85C939.41,554.18,952.34,551,963.78,543.13Z" transform="translate(-706.3 -263.22)"/>
    <path class="cls-15" d="M963.78,543.13c-11.44,7.82-24.37,11-38,12.19l-3.05-.32a81.75,81.75,0,0,0,42.51-15.07C965.38,542.06,964.28,542.39,963.78,543.13Z" transform="translate(-706.3 -263.22)"/>
    <path class="cls-15" d="M937.43,559.17a117.48,117.48,0,0,0,21.31-7.12C954.17,557.66,943.4,561.26,937.43,559.17Z" transform="translate(-706.3 -263.22)"/>
    <path class="cls-6" d="M989.58,449.73c2.82,2.57,1.85,5.85,1.14,8.71-1.9,7.71-8.18,12.46-15.48,12.23-8-.25-13.7-5.33-15.47-13.9-1.23-5.89,3.28-14,9.66-16.66a17.37,17.37,0,0,1,9.31-.84c-2.65,4.65-2.55,7.63.35,10.46S984.79,452.46,989.58,449.73Z" transform="translate(-706.3 -263.22)"/>
    <path class="cls-9" d="M989.58,449.73c-4.79,2.73-7.7,2.73-10.49,0s-3-5.81-.35-10.46c4.67-2.67,7.88-2.67,10.56,0S992.17,445.23,989.58,449.73Z" transform="translate(-706.3 -263.22)"/>
    <path class="cls-6" d="M851.48,482.42c4.76-8.25,18-7.33,23.95.37,4.05,5.27,4.22,10.91,1.42,17s-8,8.08-13.63,8.47c-6.31.43-11.22-3-14.57-8.46-.78-1.27-.42-2,.66-2.72,3.71-.77,6.32-2.75,6.89-6.69S854.52,484.2,851.48,482.42Z" transform="translate(-706.3 -263.22)"/>
    <path class="cls-9" d="M851.48,482.42c3,1.78,5.28,4.08,4.72,7.93s-3.18,5.92-6.89,6.69c-3.59-.51-6.62-1.88-7.53-5.76-.76-3.23.39-5.87,3-7.9C846.89,481.8,849.18,482.14,851.48,482.42Z" transform="translate(-706.3 -263.22)"/>
  </g>
</svg>
