<svg id="Layer_2" data-name="Layer 2" xmlns="http://www.w3.org/2000/svg" xmlns:xlink="http://www.w3.org/1999/xlink" viewBox="0 0 1920 1080">
  <defs>
    <style>
      .cls-1 {
        fill: #f8f6f3;
      }

      .cls-2 {
        fill: #9c5d2c;
      }

      .cls-3 {
        fill: #fff;
      }

      .cls-4 {
        fill: #498ecb;
      }

      .cls-5 {
        fill: #0a0807;
      }

      .cls-6 {
        fill: #a56838;
      }

      .cls-7 {
        fill: #a46737;
      }

      .cls-8 {
        fill: #9a5b2a;
      }

      .cls-9 {
        fill: #d12127;
      }

      .cls-10 {
        fill: #2daf4a;
      }

      .cls-11 {
        fill: #fbe400;
      }

      .cls-12 {
        fill: #a36535;
      }

      .cls-13 {
        fill: #6f421d;
      }

      .cls-14 {
        fill: #724625;
      }

      .cls-15 {
        clip-path: url(#clip-path);
      }

      .cls-16 {
        fill: #532f26;
      }

      .cls-17 {
        fill: #080707;
      }

      .cls-18 {
        fill: #f7f6f5;
      }

      .cls-19 {
        fill: #894d25;
      }
    </style>
    <clipPath id="clip-path">
      <path id="_Clipping_Path_" data-name="&lt;Clipping Path&gt;" class="cls-1" d="M1588.66,679.72a20.79,20.79,0,0,1,11.25-.66c6.79,1.76,13,7.51,13.61,14.78a25.08,25.08,0,0,1-18.26,26.49c-6.48,1.84-11.81-1.07-16.56-5.14a25.37,25.37,0,0,1-7-10c-3-7.47-1.36-13.93,4.92-19A37.94,37.94,0,0,1,1588.66,679.72Z"/>
    </clipPath>
  </defs>
  <title>Akili-sleeping-02</title>
  <g>
    <polygon class="cls-2" points="1500.14 770.9 1520.95 767.25 1530.89 789.43 1509.48 797.08 1486.55 781.78 1500.14 770.9"/>
    <path class="cls-3" d="M1470.83,847.24l-.62.42.62-.42"/>
    <g>
      <path class="cls-2" d="M1466.3,765.07c12.24,62-19.94,46.9-24.06,44-5.47-3.82-2.83-37.37-5.51-62.77a6.75,6.75,0,0,0-.25-.76c-1.75-7.12-6-12.37-11.54-17.07a79.37,79.37,0,0,1-15-16.26,13.41,13.41,0,0,1-1.09-1.87,2.86,2.86,0,0,1,.19-3.3,3,3,0,0,1,3.23-.81,20.93,20.93,0,0,1,6.52,3.23l6.52,4.35.58.31,0-.56c-2.08-4.44-5.6-7.9-8.24-12-1.57-2.42-3.26-4.76-4.78-7.22a24.23,24.23,0,0,1-2.26-4.6c-.64-1.83-1.62-3.95.41-5.48s3.65-.07,5.19,1c4.16,2.8,7.33,6.64,10.59,10.37l3.9,4.46.5.62c.12.18.28.52.36.5.51-.1.28-.44.18-.73s-.07-.36-.1-.54c-1.46-7.54-3.38-15-4-22.68a31.38,31.38,0,0,1-.06-6.5c.17-1.29.33-2.62,1.82-3s2.38.6,3.21,1.55a30.73,30.73,0,0,1,4.92,8.4c2.55,6.09,4.94,12.25,7.44,18.36.53,1.29.84,2.75,2.13,3.71,1.07-1.16,1.1-2.55,1.36-3.84,1-5.23,1.69-10.54,3.32-15.64A19.12,19.12,0,0,1,1453,677c.59-1.1,1.26-2.33,2.76-2.31,1.69,0,2.57,1.24,3.18,2.59a18.35,18.35,0,0,1,1.36,5.78c.74,6.95,0,13.9,0,20.85,0,1.18-.61,2.76.77,3.44s2.45-.33,3.48-1c2.24-1.54,4.36-3.23,6.64-4.69,1.61-1,3.43-1.84,5.32-.58s2,3.29,1.59,5.35a45,45,0,0,1-6.52,15.71c-5.61,8.79-6.49,18.42-6.42,28.38a122.62,122.62,0,0,0,1.17,14.57"/>
      <path class="cls-4" d="M1516.09,816.38l2.79,16.48a35.23,35.23,0,0,1-13.7,14.64c-.69.43-1.41.8-1.67,1.66l-18,5.52c-4.27-1.89-8.58-3.77-11.69-7.38-1.24-1.43-2-.91-3-.07l-.62.43,0,0c-3.09-.12-6.09.68-9.14,1-13.36,1.18-26.75.73-40.12.67-20.46-.08-40.89-.09-61.14,3.31-9.08,1.52-18,4-27.16,5.05q-6.21.69-12.43,1.19a215.72,215.72,0,0,0-36.08,5.85c-2.36.61-3.75-.36-5.18-1.91-2.14-2.31-2.79-5.44-4.47-8a110.85,110.85,0,0,1-2.35-33.88,65.91,65.91,0,0,0-.24-14.59c-.3-6.46-1.88-12.74-2.78-19.11.61-4.3.07-8.65.76-12.95s1.42-8.38,2.38-12.52a2.66,2.66,0,0,1,2.72-2.42c15.8-1.3,31.61-2.23,47.48-2.2,14.31,0,28.58.59,42.85,1.39,11.47.65,22.92,1.63,34.39,2.35,4.68.3,9.37.88,14.08.54,6.61.69,13.28.49,19.89,1.4,5,.69,10,1.24,15,1.85,4.46,1.63,9.19,1.84,13.83,2.51,8,1.14,15.88,2.64,23.94,3-3.27-.12-3.54,1.9-3.46,4.5.16,6.06.24,12.12.55,18.18a8.52,8.52,0,0,0,3.66,6.8c8.84,7,18.89,11.86,28.9,16.83"/>
      <path class="cls-5" d="M1260.07,879.87c.07,3.55-1.53,6.62-2.9,9.73a67.65,67.65,0,0,1-11,17.67,8.79,8.79,0,0,1-8.68,3.16c-8.29-1.37-14.48-5.82-19-12.66a5.72,5.72,0,0,0-4-2.71c-10.86-2.06-19.64-8.07-27.77-15.14a100.4,100.4,0,0,1-12.41-12.84,23.6,23.6,0,0,1-4.52-8.3c-2.72-9.53,4.89-20.13,14.82-20.72l2-.12a24.18,24.18,0,0,1-6.44-13,28.82,28.82,0,0,1,.64-13.15,4,4,0,0,0-.21-3.6c-6.51-10.6-7.87-22.39-7.68-34.48a75.67,75.67,0,0,1,1.77-17.24c1.3-5.26,3.57-10,8.92-12.25,7.68-3.22,17.3-2.15,23.13,8.07s9.82,21.32,13.35,32.54c.5,1.58,1.68,3.09.91,4.92-3.11,7.82-8,14-15.8,17.69-1.37.65-1.14,1.62-.51,2.69,1.46,2.49,2.75,5.1,4.39,7.47,3.53,5.11,7,10.33,12.9,13.15a5.32,5.32,0,0,1-2.87,2.29,69.81,69.81,0,0,1-21.89,5.75c-.49,0-1.26-.29-1.51.72a157,157,0,0,1,25.61,9.4c2.55,1.18,5.58,1.58,7.46,4a5.58,5.58,0,0,0,.29,1,29.56,29.56,0,0,1,2.48,21.77c-.5,2,.21,2.54,1.93,3,8.84,2.06,17.69,3.53,26.71,1.18m-64-91.65c-.15,2.4,1.2,5.48,2.37,8.61.52,1.41,1.21,1.42,2.44.71a35.47,35.47,0,0,0,15.17-17.14,1.68,1.68,0,0,0,0-1.53c-1.06-2.3-2-4.68-3.17-6.89-3.38-6.16-9.86-6.26-13.42-.21-2.78,4.75-3.6,10-3.36,16.45m4.28,66.06c.55,7.87,11,19,18.84,20.1a1.42,1.42,0,0,0,1.87-1.36c1.39-7.84,1-15.45-2.81-22.67a2.13,2.13,0,0,0-1.35-1.16,74.35,74.35,0,0,0-7.76-2.35c-5.17-1-9.14,2.46-8.79,7.44"/>
      <path class="cls-6" d="M1485.48,854.68l-1.67-.74c-3.7-1.67-7.31-3.5-10-6.64-1.24-1.43-2-.91-3-.06l-.62.42,0,0c.07.64-.44,1-.79,1.34a164.59,164.59,0,0,1-55.93,39,4.4,4.4,0,0,1-4.33-.46c-3-1.75-5.92-3.5-8.94-5.15-3.56-2-7.13-4-11.23-4.61-2.44-.39-4,.56-4.71,3a6.21,6.21,0,0,0,.9,4.67c1.28,2.42,3.19,4.38,4.74,6.61,2.43,3.52,2.07,4.46-2,5.52-5.61,1.45-11.23,2.8-16.81,4.34a22.13,22.13,0,0,0-8.48,4.13,3.45,3.45,0,0,0-1.47,3.32c.27,1.47,1.55,1.9,2.81,2.18a32.34,32.34,0,0,0,9.47.29c4.06-.3,8.12-.7,12.18-1,.6,0,1.42-.26,1.73.41s-.41,1.13-.89,1.5c-1.84,1.46-3.7,2.89-5.57,4.32-6,4.6-12.43,8.79-17.51,14.53-1.28,1.44-3.18,3.18-1.93,5.2s3.63,1,5.48.45c8.15-2.31,15.53-6.38,23-10.3.94-.5,1.8-1.38,3.33-1.16-3.6,5.07-7.16,9.87-9.89,15.19a16.77,16.77,0,0,0-2.17,6.1c-.26,3,1.55,4.24,4.26,3.07a15.6,15.6,0,0,0,4.6-3.3c4.93-4.72,8.87-10.28,13.18-15.52,1-1.23,1.84-2.66,3.67-3.62-.47,3.16-1.9,5.69-2.67,8.42a25.78,25.78,0,0,0-1.3,6.36c0,1.38.17,2.81,1.69,3.4a3,3,0,0,0,3.42-1,46.06,46.06,0,0,0,3.35-3.91c5.32-7.26,9.35-15.27,13.43-23.24a10,10,0,0,1,3.08-3.68c20-14.84,39.33-30.5,56.13-49l13.42-19.39"/>
      <path class="cls-7" d="M1260.07,879.87c-9,2.35-17.87.88-26.71-1.18-1.72-.41-2.43-1-1.93-3A29.56,29.56,0,0,0,1229,854a5.58,5.58,0,0,1-.29-1c2.9.61,4.9-.78,6.33-3.06,5-8.06,9.16-16.68,14.71-24.44a1.07,1.07,0,0,0,.06-.27c1.82-2,3.72-3.92,5.45-6a43.69,43.69,0,0,1,16.73-12.91,65.91,65.91,0,0,1,.24,14.59,110.85,110.85,0,0,0,2.35,33.88c-6.31,6.36-11.83,13.2-13.85,22.23-.21,1-.41,1.93-.61,2.9"/>
      <path class="cls-8" d="M1271.94,806.27a43.69,43.69,0,0,0-16.73,12.91c-1.73,2.07-3.63,4-5.45,6a121.33,121.33,0,0,0-12.93.41c-5.43.6-10.07,3.2-15,5.18-5.89-2.82-9.37-8-12.9-13.15-1.64-2.37-2.93-5-4.39-7.47-.63-1.07-.86-2,.51-2.69,7.76-3.68,12.69-9.87,15.8-17.69,1.37,2.5,3.6,3.06,6.22,2.8,4.34-.43,8.5-1.73,12.73-2.69a108.31,108.31,0,0,1,29.33-2.71c.9,6.37,2.48,12.65,2.78,19.11"/>
      <path class="cls-9" d="M1516.09,816.38c-10-5-20.06-9.84-28.9-16.83a8.52,8.52,0,0,1-3.66-6.8c-.31-6.06-.39-12.12-.55-18.18-.08-2.6.19-4.62,3.46-4.5,1.42.19,2.89-.25,4.26.44-.89,7.07-.08,14.08.58,21.1a3.45,3.45,0,0,0,1.64,2.65,200.25,200.25,0,0,0,22.62,13.83q.29,4.14.55,8.29"/>
      <path class="cls-10" d="M1515.54,808.09a200.25,200.25,0,0,1-22.62-13.83,3.42,3.42,0,0,1-1.64-2.65c-.66-7-1.47-14-.58-21.1a8.79,8.79,0,0,1,5.41.35c-.11,6.35.46,12.66.94,19a2.07,2.07,0,0,0,1.14,1.71,184.3,184.3,0,0,0,17.44,9.94l-.09,6.61"/>
      <path class="cls-11" d="M1515.63,801.48a184.3,184.3,0,0,1-17.44-9.94,2.07,2.07,0,0,1-1.14-1.71c-.48-6.31-1-12.62-.94-19a28.5,28.5,0,0,1,4,0c1.93,0,2.49.9,2.41,2.59a97.26,97.26,0,0,0-.28,13.55c0,1.11.7,1.55,1.52,2,3.16,1.76,6.21,3.76,9.5,5.24,2.59,1.17,3.24,2.77,2.57,5.3a13.19,13.19,0,0,0-.23,1.89"/>
      <path class="cls-8" d="M1196.12,788.22c-.24-6.49.58-11.7,3.36-16.45,3.56-6,10-5.95,13.42.21,1.21,2.21,2.11,4.59,3.17,6.89a1.68,1.68,0,0,1,0,1.53,35.47,35.47,0,0,1-15.17,17.14c-1.23.71-1.92.7-2.44-.71-1.17-3.13-2.52-6.21-2.37-8.61"/>
      <path class="cls-12" d="M1200.4,854.28c-.35-5,3.62-8.45,8.79-7.44a74.35,74.35,0,0,1,7.76,2.35,2.13,2.13,0,0,1,1.35,1.16c3.78,7.22,4.2,14.83,2.81,22.67a1.42,1.42,0,0,1-1.87,1.36c-7.86-1.13-18.29-12.23-18.84-20.1"/>
      <path class="cls-3" d="M1388.52,722.81c.22.21.58.41.18.74-.07.05-.37-.19-.55-.29l.37-.45"/>
      <path class="cls-3" d="M1389.26,737.12l.27.49-.65,0c.13-.15.25-.31.38-.47"/>
      <path class="cls-3" d="M1388.18,722.37l.34.44-.37.45-.73-.33.76-.56"/>
    </g>
    <path class="cls-4" d="M1491.33,857.86s25.28-7.19,27.55-25l-40,10.47-3.06,6.12S1483.49,858.24,1491.33,857.86Z"/>
    <line class="cls-6" x1="1484.25" y1="854.04" x2="1489.99" y2="856.24"/>
    <g>
      <g>
        <path class="cls-2" d="M1671.89,661s-31.14-23-71.19.44c0,0-22.47,16.85-39.38,8.93,0,0-15.26-10.17-22.33-3.46,0,0-7,4.61-2.73,17.53l-11.44,12.44s7,18.15,18.9,25c0,0-10.22.2-23.6-16.8,0,0-23.6,18.65-12.51,61.36,0,0,15.47,52.7,65.94,64.55l62,30L1680,838.61l43.15-46.3-5.71-76Z"/>
        <path d="M1672.27,661.48l6.34,43.61s29.69,33.88,40.81,81.54c0,0-13.54-46.36-41-75.26l4.65,35.54-21.3,22.21s21.55,43.87,7.57,71.71c0,0,11.72-26.6-13.48-67.49,0,0-14.43,11.45-25.75,13.91,0,0,14.2,13.45,9,24.84,0,0-7.83,17.74-36.39,12A41.21,41.21,0,0,1,1578,810.76s-40.86,10.71-57.33,63c0,0,31.69-30.13,53.91-25.38,0,0,41.45,29.19,46.23,28.69,0,0,31.16-7.6,47-27.82,0,0,33.88-2.39,53-13.48,0,0,10.1-26.84,5.85-43.08,0,0,16.65-48.65,7.52-72.63C1734.11,720.08,1706.35,675.57,1672.27,661.48Z"/>
        <path class="cls-13" d="M1619.8,788.51s11.37,6.83,12,17c0,0,3.14,9.2-14.23,12.62,0,0-15.1,1.14-23.07-2.58,0,0-12.52-6-3.72-10.23,0,0-3.85-6-7.29-1.28,0,0-6.74,5.35,8.64,14.65,0,0,24.55,12.58,42.46-2,0,0,7-7.7-.31-19.74C1634.23,796.92,1629.51,786.22,1619.8,788.51Z"/>
        <path d="M1621.5,665.74s5.43-2.13,9.74,4.84c0,0,5.83,9.28.58,22.15,0,0-4.61,11.5-12.59,15.12,0,0-3.15,1.87.32-5.08,0,0,8.76-13.73,6.33-23a79.43,79.43,0,0,0-4.66-11.13S1620,666,1621.5,665.74Z"/>
        <path class="cls-14" d="M1529.25,692.06s11.67,26.26,18.86,30.68c0,0-20.61,9.18-32.36-13,0,0-1.45-5.14,4.87-5.13,0,0,9.88,14.13,23.1,17.24,0,0-12.54-2.69-20.06-22.55C1523.66,699.31,1524.73,692.56,1529.25,692.06Z"/>
        <g>
          <path id="_Clipping_Path_2" data-name="&lt;Clipping Path&gt;" class="cls-1" d="M1588.66,679.72a20.79,20.79,0,0,1,11.25-.66c6.79,1.76,13,7.51,13.61,14.78a25.08,25.08,0,0,1-18.26,26.49c-6.48,1.84-11.81-1.07-16.56-5.14a25.37,25.37,0,0,1-7-10c-3-7.47-1.36-13.93,4.92-19A37.94,37.94,0,0,1,1588.66,679.72Z"/>
          <g class="cls-15">
            <g>
              <path class="cls-16" d="M1574.82,687a14.3,14.3,0,1,1-4.33,19.66A14.32,14.32,0,0,1,1574.82,687Zm20,13.22c0-2.44-1.47-3.88-4.63-4.52-.59-2.65-4.41-5.5-7.5-5.59a10,10,0,0,0-10,7.1c-1.23,4.38.62,8.56,4.84,10.91,3.68,2,8.62,1,11.75-2.4l.89-.94C1593.43,704,1594.87,702.61,1594.87,700.19Z"/>
              <path class="cls-17" d="M1590.24,695.67c-.59-2.65-4.41-5.5-7.5-5.59a10,10,0,0,0-10,7.1c-1.23,4.38.62,8.56,4.84,10.91,3.68,2,8.62,1,11.75-2.4l.89-.94c-2.29-.7-4.17-1.82-4.12-4.55S1587.79,696.2,1590.24,695.67Z"/>
              <path class="cls-18" d="M1590.24,695.67c-2.45.53-4.06,1.91-4.12,4.53s1.83,3.85,4.12,4.55c3.19-.72,4.63-2.14,4.63-4.56S1593.4,696.31,1590.24,695.67Z"/>
            </g>
          </g>
        </g>
      </g>
      <path class="cls-19" d="M1571.67,688.33s18-24.72,40.51-3c0,0,17,24.22-22.18,38.31C1590,723.6,1590,710.67,1571.67,688.33Z"/>
    </g>
  </g>
</svg>
