<svg id="Layer_6" data-name="Layer 6" xmlns="http://www.w3.org/2000/svg" xmlns:xlink="http://www.w3.org/1999/xlink" viewBox="0 0 1920 1080">
  <defs>
    <style>
      .cls-1 {
        fill: #f8f6f3;
      }

      .cls-2 {
        fill: #9c5d2c;
      }

      .cls-3 {
        fill: #fff;
      }

      .cls-4 {
        fill: #498ecb;
      }

      .cls-5 {
        fill: #0a0807;
      }

      .cls-6 {
        fill: #a56838;
      }

      .cls-7 {
        fill: #a46737;
      }

      .cls-8 {
        fill: #9a5b2a;
      }

      .cls-9 {
        fill: #d12127;
      }

      .cls-10 {
        fill: #2daf4a;
      }

      .cls-11 {
        fill: #fbe400;
      }

      .cls-12 {
        fill: #a36535;
      }

      .cls-13 {
        fill: #6f421d;
      }

      .cls-14 {
        fill: #724625;
      }

      .cls-15 {
        clip-path: url(#clip-path);
      }

      .cls-16 {
        fill: #532f26;
      }

      .cls-17 {
        fill: #080707;
      }

      .cls-18 {
        fill: #f7f6f5;
      }

      .cls-19 {
        fill: #894d25;
      }
    </style>
    <clipPath id="clip-path">
      <path id="_Clipping_Path_" data-name="&lt;Clipping Path&gt;" class="cls-1" d="M1561.33,665.83a20.66,20.66,0,0,1,10.72-3.45c7,0,14.51,4,16.87,10.91a25.08,25.08,0,0,1-11.07,30.21c-5.81,3.39-11.7,1.91-17.31-.84a25.39,25.39,0,0,1-9.3-7.93c-4.77-6.47-4.78-13.14,0-19.59A37.9,37.9,0,0,1,1561.33,665.83Z"/>
    </clipPath>
  </defs>
  <title>Akili-sleeping-04</title>
  <g>
    <polygon class="cls-2" points="1500.14 770.9 1520.95 767.25 1530.89 789.43 1509.48 797.08 1486.55 781.78 1500.14 770.9"/>
    <path class="cls-3" d="M1470.83,847.24l-.62.42.62-.42"/>
    <g>
      <path class="cls-2" d="M1483.39,774.67c-21.63,59.37-41.35,29.8-43.38,25.2-2.7-6.09,16.93-33.42,27.79-56.54a5,5,0,0,0,.18-.79c2.19-7,1.27-13.68-1-20.57a79.46,79.46,0,0,1-4.41-21.68,13,13,0,0,1,0-2.16,2.85,2.85,0,0,1,1.87-2.73,3,3,0,0,1,3.19,1,20.88,20.88,0,0,1,3.9,6.14l3.33,7.09.33.56.26-.49c.52-4.88-.7-9.65-.85-14.49-.1-2.89-.33-5.77-.35-8.65a23.58,23.58,0,0,1,.44-5.11c.4-1.9.66-4.22,3.19-4.48,2.36-.24,3.16,1.84,3.94,3.51,2.12,4.55,2.84,9.47,3.7,14.36l1,5.83c0,.26.07.53.11.79s0,.59,0,.62c.48.17.47-.24.53-.54l.2-.51c2.65-7.21,4.87-14.58,8.3-21.48a30.29,30.29,0,0,1,3.32-5.59c.81-1,1.63-2.07,3.12-1.66s1.73,1.75,2,3A30.82,30.82,0,0,1,1504,685c-1,6.54-2.11,13-3.14,19.56-.22,1.38-.7,2.79-.1,4.28,1.52-.44,2.27-1.61,3.16-2.58,3.6-3.93,6.9-8.14,10.93-11.66a18.63,18.63,0,0,1,2.8-2.13c1.07-.64,2.27-1.35,3.55-.55,1.44.88,1.56,2.4,1.38,3.86a18.43,18.43,0,0,1-1.83,5.65c-3,6.33-7.2,11.89-10.84,17.81-.62,1-2,2-1.12,3.34s2.26,1,3.52.91c2.71-.16,5.4-.51,8.11-.58,1.92,0,3.88.2,4.85,2.27s0,3.84-1.41,5.39a45,45,0,0,1-13.71,10.07c-9.36,4.61-15.09,12.4-20.19,20.94a123.75,123.75,0,0,0-6.55,13.08"/>
      <path class="cls-4" d="M1516.09,816.38l2.79,16.48a35.23,35.23,0,0,1-13.7,14.64c-.69.43-1.41.8-1.67,1.66l-18,5.52c-4.27-1.89-8.58-3.77-11.69-7.38-1.24-1.43-2-.91-3-.07l-.62.43,0,0c-3.09-.12-6.09.68-9.14,1-13.36,1.18-26.75.73-40.12.67-20.46-.08-40.89-.09-61.14,3.31-9.08,1.52-18,4-27.16,5.05q-6.21.69-12.43,1.19a215.72,215.72,0,0,0-36.08,5.85c-2.36.61-3.75-.36-5.18-1.91-2.14-2.31-2.79-5.44-4.47-8a110.85,110.85,0,0,1-2.35-33.88,65.91,65.91,0,0,0-.24-14.59c-.3-6.46-1.88-12.74-2.78-19.11.61-4.3.07-8.65.76-12.95s1.42-8.38,2.38-12.52a2.66,2.66,0,0,1,2.72-2.42c15.8-1.3,31.61-2.23,47.48-2.2,14.31,0,28.58.59,42.85,1.39,11.47.65,22.92,1.63,34.39,2.35,4.68.3,9.37.88,14.08.54,6.61.69,13.28.49,19.89,1.4,5,.69,10,1.24,15,1.85,4.46,1.63,9.19,1.84,13.83,2.51,8,1.14,15.88,2.64,23.94,3-3.27-.12-3.54,1.9-3.46,4.5.16,6.06.24,12.12.55,18.18a8.52,8.52,0,0,0,3.66,6.8c8.84,7,18.89,11.86,28.9,16.83"/>
      <path class="cls-5" d="M1260.07,879.87c.07,3.55-1.53,6.62-2.9,9.73a67.65,67.65,0,0,1-11,17.67,8.79,8.79,0,0,1-8.68,3.16c-8.29-1.37-14.48-5.82-19-12.66a5.72,5.72,0,0,0-4-2.71c-10.86-2.06-19.64-8.07-27.77-15.14a100.4,100.4,0,0,1-12.41-12.84,23.6,23.6,0,0,1-4.52-8.3c-2.72-9.53,4.89-20.13,14.82-20.72l2-.12a24.18,24.18,0,0,1-6.44-13,28.82,28.82,0,0,1,.64-13.15,4,4,0,0,0-.21-3.6c-6.51-10.6-7.87-22.39-7.68-34.48a75.67,75.67,0,0,1,1.77-17.24c1.3-5.26,3.57-10,8.92-12.25,7.68-3.22,17.3-2.15,23.13,8.07s9.82,21.32,13.35,32.54c.5,1.58,1.68,3.09.91,4.92-3.11,7.82-8,14-15.8,17.69-1.37.65-1.14,1.62-.51,2.69,1.46,2.49,2.75,5.1,4.39,7.47,3.53,5.11,7,10.33,12.9,13.15a5.32,5.32,0,0,1-2.87,2.29,69.81,69.81,0,0,1-21.89,5.75c-.49,0-1.26-.29-1.51.72a157,157,0,0,1,25.61,9.4c2.55,1.18,5.58,1.58,7.46,4a5.58,5.58,0,0,0,.29,1,29.56,29.56,0,0,1,2.48,21.77c-.5,2,.21,2.54,1.93,3,8.84,2.06,17.69,3.53,26.71,1.18m-64-91.65c-.15,2.4,1.2,5.48,2.37,8.61.52,1.41,1.21,1.42,2.44.71a35.47,35.47,0,0,0,15.17-17.14,1.68,1.68,0,0,0,0-1.53c-1.06-2.3-2-4.68-3.17-6.89-3.38-6.16-9.86-6.26-13.42-.21-2.78,4.75-3.6,10-3.36,16.45m4.28,66.06c.55,7.87,11,19,18.84,20.1a1.42,1.42,0,0,0,1.87-1.36c1.39-7.84,1-15.45-2.81-22.67a2.13,2.13,0,0,0-1.35-1.16,74.35,74.35,0,0,0-7.76-2.35c-5.17-1-9.14,2.46-8.79,7.44"/>
      <path class="cls-6" d="M1485.48,854.68l-1.67-.74c-3.7-1.67-7.31-3.5-10-6.64-1.24-1.43-2-.91-3-.06l-.62.42,0,0c.07.64-.44,1-.79,1.34a164.59,164.59,0,0,1-55.93,39,4.4,4.4,0,0,1-4.33-.46c-3-1.75-5.92-3.5-8.94-5.15-3.56-2-7.13-4-11.23-4.61-2.44-.39-4,.56-4.71,3a6.21,6.21,0,0,0,.9,4.67c1.28,2.42,3.19,4.38,4.74,6.61,2.43,3.52,2.07,4.46-2,5.52-5.61,1.45-11.23,2.8-16.81,4.34a22.13,22.13,0,0,0-8.48,4.13,3.45,3.45,0,0,0-1.47,3.32c.27,1.47,1.55,1.9,2.81,2.18a32.34,32.34,0,0,0,9.47.29c4.06-.3,8.12-.7,12.18-1,.6,0,1.42-.26,1.73.41s-.41,1.13-.89,1.5c-1.84,1.46-3.7,2.89-5.57,4.32-6,4.6-12.43,8.79-17.51,14.53-1.28,1.44-3.18,3.18-1.93,5.2s3.63,1,5.48.45c8.15-2.31,15.53-6.38,23-10.3.94-.5,1.8-1.38,3.33-1.16-3.6,5.07-7.16,9.87-9.89,15.19a16.77,16.77,0,0,0-2.17,6.1c-.26,3,1.55,4.24,4.26,3.07a15.6,15.6,0,0,0,4.6-3.3c4.93-4.72,8.87-10.28,13.18-15.52,1-1.23,1.84-2.66,3.67-3.62-.47,3.16-1.9,5.69-2.67,8.42a25.78,25.78,0,0,0-1.3,6.36c0,1.38.17,2.81,1.69,3.4a3,3,0,0,0,3.42-1,46.06,46.06,0,0,0,3.35-3.91c5.32-7.26,9.35-15.27,13.43-23.24a10,10,0,0,1,3.08-3.68c20-14.84,39.33-30.5,56.13-49l13.42-19.39"/>
      <path class="cls-7" d="M1260.07,879.87c-9,2.35-17.87.88-26.71-1.18-1.72-.41-2.43-1-1.93-3A29.56,29.56,0,0,0,1229,854a5.58,5.58,0,0,1-.29-1c2.9.61,4.9-.78,6.33-3.06,5-8.06,9.16-16.68,14.71-24.44a1.07,1.07,0,0,0,.06-.27c1.82-2,3.72-3.92,5.45-6a43.69,43.69,0,0,1,16.73-12.91,65.91,65.91,0,0,1,.24,14.59,110.85,110.85,0,0,0,2.35,33.88c-6.31,6.36-11.83,13.2-13.85,22.23-.21,1-.41,1.93-.61,2.9"/>
      <path class="cls-8" d="M1271.94,806.27a43.69,43.69,0,0,0-16.73,12.91c-1.73,2.07-3.63,4-5.45,6a121.33,121.33,0,0,0-12.93.41c-5.43.6-10.07,3.2-15,5.18-5.89-2.82-9.37-8-12.9-13.15-1.64-2.37-2.93-5-4.39-7.47-.63-1.07-.86-2,.51-2.69,7.76-3.68,12.69-9.87,15.8-17.69,1.37,2.5,3.6,3.06,6.22,2.8,4.34-.43,8.5-1.73,12.73-2.69a108.31,108.31,0,0,1,29.33-2.71c.9,6.37,2.48,12.65,2.78,19.11"/>
      <path class="cls-9" d="M1516.09,816.38c-10-5-20.06-9.84-28.9-16.83a8.52,8.52,0,0,1-3.66-6.8c-.31-6.06-.39-12.12-.55-18.18-.08-2.6.19-4.62,3.46-4.5,1.42.19,2.89-.25,4.26.44-.89,7.07-.08,14.08.58,21.1a3.45,3.45,0,0,0,1.64,2.65,200.25,200.25,0,0,0,22.62,13.83q.29,4.14.55,8.29"/>
      <path class="cls-10" d="M1515.54,808.09a200.25,200.25,0,0,1-22.62-13.83,3.42,3.42,0,0,1-1.64-2.65c-.66-7-1.47-14-.58-21.1a8.79,8.79,0,0,1,5.41.35c-.11,6.35.46,12.66.94,19a2.07,2.07,0,0,0,1.14,1.71,184.3,184.3,0,0,0,17.44,9.94l-.09,6.61"/>
      <path class="cls-11" d="M1515.63,801.48a184.3,184.3,0,0,1-17.44-9.94,2.07,2.07,0,0,1-1.14-1.71c-.48-6.31-1-12.62-.94-19a28.5,28.5,0,0,1,4,0c1.93,0,2.49.9,2.41,2.59a97.26,97.26,0,0,0-.28,13.55c0,1.11.7,1.55,1.52,2,3.16,1.76,6.21,3.76,9.5,5.24,2.59,1.17,3.24,2.77,2.57,5.3a13.19,13.19,0,0,0-.23,1.89"/>
      <path class="cls-8" d="M1196.12,788.22c-.24-6.49.58-11.7,3.36-16.45,3.56-6,10-5.95,13.42.21,1.21,2.21,2.11,4.59,3.17,6.89a1.68,1.68,0,0,1,0,1.53,35.47,35.47,0,0,1-15.17,17.14c-1.23.71-1.92.7-2.44-.71-1.17-3.13-2.52-6.21-2.37-8.61"/>
      <path class="cls-12" d="M1200.4,854.28c-.35-5,3.62-8.45,8.79-7.44a74.35,74.35,0,0,1,7.76,2.35,2.13,2.13,0,0,1,1.35,1.16c3.78,7.22,4.2,14.83,2.81,22.67a1.42,1.42,0,0,1-1.87,1.36c-7.86-1.13-18.29-12.23-18.84-20.1"/>
      <path class="cls-3" d="M1388.52,722.81c.22.21.58.41.18.74-.07.05-.37-.19-.55-.29l.37-.45"/>
      <path class="cls-3" d="M1389.26,737.12l.27.49-.65,0c.13-.15.25-.31.38-.47"/>
      <path class="cls-3" d="M1388.18,722.37l.34.44-.37.45-.73-.33.76-.56"/>
    </g>
    <path class="cls-4" d="M1491.33,857.86s25.28-7.19,27.55-25l-40,10.47-3.06,6.12S1483.49,858.24,1491.33,857.86Z"/>
    <line class="cls-6" x1="1484.25" y1="854.04" x2="1489.99" y2="856.24"/>
    <g>
      <g>
        <path class="cls-2" d="M1637.25,626.91s-35.91-14.51-68.83,18.2c0,0-17.55,21.93-35.91,18.49,0,0-17.3-6-22.48,2.22,0,0-5.64,6.22,1.74,17.66l-5.63,12.19s21.46,8.83,22.19,22.18c0,0-11.51,9.25-28.71-3.87,0,0-16.53,17.45,4.88,56,0,0,28.13,47.17,80,46L1652,829.6l37.43-32.73,30.22-55.6-24.52-72.2Z"/>
        <path d="M1637.74,627.28l17,40.65s37.21,25.39,59.88,68.77c0,0-24.69-41.52-58.5-62.65l13.37,33.26-15.07,26.83s31.82,37.1,25.23,67.54c0,0,4.71-28.68-29.9-62,0,0-11.12,14.69-21.47,19.9,0,0,17.12,9.48,15,21.8,0,0-3.15,19.13-32.25,20.7a41.17,41.17,0,0,1-27.32-6.72s-36.89,20.58-39.78,75.35c0,0,23.16-37.09,45.86-38.05,0,0,47.43,17.92,51.94,16.25,0,0,28.27-15.14,38.53-38.68,0,0,32.21-10.77,48-26.28,0,0,3.08-28.51-5.09-43.18,0,0,4-51.27-10.86-72.21C1712.24,668.58,1674.25,632.41,1637.74,627.28Z"/>
        <path class="cls-13" d="M1618.64,763.39s12.72,3.77,15.81,13.44c0,0,5.34,8.12-10.63,15.77,0,0-14.33,4.88-23,3.27,0,0-13.62-2.68-6.15-9,0,0-5.24-4.89-7.38.58,0,0-5.2,6.86,12,12,0,0,26.92,6,40.61-12.53,0,0,4.82-9.2-5.23-19C1634.71,767.93,1627.48,758.75,1618.64,763.39Z"/>
        <path d="M1589.63,644.09s4.73-3.42,10.65,2.24c0,0,8,7.54,6.09,21.31,0,0-1.59,12.29-8.42,17.79,0,0-2.58,2.6-1-5,0,0,5.06-15.48.4-23.83,0,0-4.24-6.53-7.3-9.61C1590.09,647,1588.29,644.73,1589.63,644.09Z"/>
        <path class="cls-14" d="M1508.64,689.38s22.51,13.78,24.17,28.22c0,0-19.62,19.49-36.54,1,0,0-3.44-5.73,2.69-7.3,0,0,11.11,15.85,29.37,6.59,0,0-1.07-8.57-24.12-21.06C1504.21,696.79,1504.38,691,1508.64,689.38Z"/>
        <g>
          <path id="_Clipping_Path_2" data-name="&lt;Clipping Path&gt;" class="cls-1" d="M1561.33,665.83a20.66,20.66,0,0,1,10.72-3.45c7,0,14.51,4,16.87,10.91a25.08,25.08,0,0,1-11.07,30.21c-5.81,3.39-11.7,1.91-17.31-.84a25.39,25.39,0,0,1-9.3-7.93c-4.77-6.47-4.78-13.14,0-19.59A37.9,37.9,0,0,1,1561.33,665.83Z"/>
          <g class="cls-15">
            <g>
              <path class="cls-16" d="M1549.72,676.52a14.31,14.31,0,1,1,.71,20.13A14.32,14.32,0,0,1,1549.72,676.52Zm22.72,7.8c-.61-2.36-2.4-3.39-5.62-3.21-1.23-2.43-5.64-4.23-8.65-3.55a10.06,10.06,0,0,0-7.9,9.36c-.1,4.56,2.75,8.14,7.42,9.36,4.07,1.07,8.6-1.14,10.78-5.25.2-.38.41-.76.62-1.14C1572,688.4,1573,686.67,1572.44,684.32Z"/>
              <path class="cls-17" d="M1566.82,681.11c-1.23-2.43-5.64-4.23-8.65-3.55a10.06,10.06,0,0,0-7.9,9.36c-.1,4.56,2.75,8.14,7.42,9.36,4.07,1.07,8.6-1.14,10.78-5.25.2-.38.41-.76.62-1.14-2.39-.1-4.5-.72-5.12-3.37S1564.58,682.23,1566.82,681.11Z"/>
              <path class="cls-18" d="M1566.82,681.11c-2.24,1.12-3.45,2.85-2.85,5.41s2.73,3.27,5.12,3.37c2.91-1.49,4-3.22,3.35-5.57S1570,680.93,1566.82,681.11Z"/>
            </g>
          </g>
        </g>
      </g>
      <path class="cls-19" d="M1547.66,678.36s10.65-28.4,37.83-13c0,0,22.51,19.21-11.91,42.64C1573.58,708,1568.11,685.12,1547.66,678.36Z"/>
    </g>
  </g>
</svg>
