<svg id="Layer_8" data-name="Layer 8" xmlns="http://www.w3.org/2000/svg" viewBox="0 0 1920 1080">
  <defs>
    <style>
      .cls-1 {
        fill: #0a0807;
      }

      .cls-2 {
        fill: #9a5b2a;
      }

      .cls-3 {
        fill: #a46737;
      }

      .cls-4 {
        fill: #a36535;
      }

      .cls-5 {
        fill: #a56838;
      }

      .cls-6 {
        fill: #488dcb;
      }

      .cls-7 {
        fill: #6f411e;
      }

      .cls-8 {
        fill: #050303;
      }

      .cls-9 {
        fill: #774b2a;
      }

      .cls-10 {
        fill: #f8f6f4;
      }

      .cls-11 {
        fill: #532f26;
      }

      .cls-12 {
        fill: #060504;
      }

      .cls-13 {
        fill: #f9f7f6;
      }

      .cls-14 {
        fill: #498ecb;
      }

      .cls-15 {
        fill: #d12127;
      }

      .cls-16 {
        fill: #2daf4a;
      }

      .cls-17 {
        fill: #fbe400;
      }

      .cls-18 {
        fill: #fff;
      }
    </style>
  </defs>
  <title>Akili-running_on_the_spot-8</title>
  <g>
    <path class="cls-1" d="M1409.79,1039.08a20.31,20.31,0,0,1-10.82,4.84,24.3,24.3,0,0,1-11-.9,3.32,3.32,0,0,0-3,.08c-9.07,5.16-19,6-29.12,5.48a63.61,63.61,0,0,1-14.4-1.95c-4.37-1.24-8.3-3.27-10-7.81-2.49-6.53-1.33-14.56,7.4-19.17s18.14-7.65,27.64-10.3c1.34-.37,2.63-1.32,4.15-.62,6.47,2.82,11.52,7.12,14.39,13.72.51,1.17,1.33,1,2.24.51,2.13-1.16,4.35-2.17,6.38-3.48,4.39-2.82,8.86-5.59,11.38-10.45a4.53,4.53,0,0,1,1.85,2.46A58.64,58.64,0,0,1,1411,1030Z"/>
    <path class="cls-2" d="M1385.65,954.29c2.17,5.72,9.35-1.87,12.62,23.77-.1,3.61,2.5,14.65,2.78,18.28.36,4.56,2.41,8.53,3.93,12.69-2.52,4.86-7,7.63-11.38,10.45-2,1.31-4.25,2.32-6.38,3.48-.91.49-1.73.66-2.24-.51-2.87-6.6-7.92-10.9-14.39-13.72,2.13-1.08,2.67-2.94,2.52-5.14-.24-3.65-1.22-7.17-1.9-10.74a90.69,90.69,0,0,1-1.48-24.66c5.37-.59,10.5-13.83,15.92-13.9"/>
    <path class="cls-2" d="M1368.62,1029.44c-5.44,0-9.8-.81-13.7-3.27-5-3.15-4.71-8.58.55-11.24,1.88-1,3.9-1.65,5.86-2.47a1.41,1.41,0,0,1,1.28,0,29.79,29.79,0,0,1,14,13.19c.57,1,.54,1.63-.66,2-2.65.89-5.28,1.94-7.28,1.75"/>
  </g>
  <path class="cls-1" d="M1361.12,1019.73s14-6.6,21.19-9c2.23-.75,4.31-2.24,6.87-1.84a3.76,3.76,0,0,0,.76.46,24.78,24.78,0,0,1,14,11.87c.83,1.48,1.59,1.42,2.88.68,6.58-3.82,12.82-8,17-14.65,2.09,2.13,2.88,4.93,3.83,7.61a57.13,57.13,0,0,1,3.46,17.12,7.38,7.38,0,0,1-3.49,6.92c-5.85,3.93-12.18,4.78-18.91,3.24a4.76,4.76,0,0,0-4,.66c-7.81,5-16.62,6.37-25.65,6.73a84.24,84.24,0,0,1-15-.69,20,20,0,0,1-7.53-2.46c-7.14-4.26-8.6-15.11-2.87-21.18"/>
  <path class="cls-3" d="M1423.83,1007.21c-4.15,6.63-10.39,10.83-17,14.65-1.29.75-2,.8-2.88-.68a24.79,24.79,0,0,0-14-11.87,3.57,3.57,0,0,1-.77-.46c2.11-1.29,2.53-3.29,2.09-5.51-1.55-7.82-4-15.45-5.08-23.37,0-.07-.08-.13-.12-.2,0-2.26,0-4.53-.12-6.79a36.71,36.71,0,0,1,2.78-17.51c3.24,2.55,5.19-11.15,7.77-8,6,7.44,13-.29,21,5-.19,7.51,1.07,45.92,5,52.59.42.71.86,1.42,1.29,2.12"/>
  <path class="cls-4" d="M1372.7,1025.93c-3.08-2.83-2.65-7.24,1.08-9.6a62.76,62.76,0,0,1,6.09-3,1.79,1.79,0,0,1,1.49-.07c6.46,2.23,11.1,6.63,14.76,12.22a1.19,1.19,0,0,1-.36,1.91c-5.45,3.83-18.2,3.05-23.06-1.43"/>
  <path class="cls-5" d="M1331.11,877.54a8.16,8.16,0,0,0-.83,3.72c0,7.13.08,14.27-1,21.34a36.67,36.67,0,0,1-.94,4,2.39,2.39,0,0,1-2,2c-1.29.14-1.94-.8-2.43-1.79a19.87,19.87,0,0,1-1.4-5c-.45-2.21-.35-4.53-1.18-6.93a9.2,9.2,0,0,0-1.27,3.9c-1.15,5.28-1.92,10.64-3.68,15.78a12.62,12.62,0,0,1-2.06,4c-1.49,1.81-3.24,1.56-4.13-.62a13.2,13.2,0,0,1-.68-5.11,98.93,98.93,0,0,1,1.47-14.35c-1.17.4-1.45,1.34-1.94,2-3.83,5.49-7.58,11-12.51,15.65-1.12,1.05-2.38,2.68-4,1.68s-.9-2.9-.53-4.38c1.51-5.91,4.51-11.2,7.1-16.66.81-1.69,1.61-3.38,2.38-5.08.2-.44.56-1,.08-1.39s-1,.09-1.37.34c-2.76,1.7-5.49,3.47-8.25,5.16a26.31,26.31,0,0,1-6.81,3.24c-1,.26-2,.42-2.78-.53a2.74,2.74,0,0,1-.17-2.88,17.41,17.41,0,0,1,4.5-6c3.38-3.12,6.87-6.12,10.31-9.19,2.52-2.24,2.43-3-.57-4.65a52.08,52.08,0,0,1-5.76-2.95,5,5,0,0,1-2.34-3,3,3,0,0,1,2.25-3.83c3.14-1,6.39-.91,9.63-.82,2.73.07,5.47.23,8.2.38a3.49,3.49,0,0,0,3.24-1.25c.85-1,1.69-2.08,2.52-3.14q4.08-5.25,7.66-10.87t6.49-11.48a130.35,130.35,0,0,0,5.3-12.12q1.17-3.12,2.19-6.3c.34-1.06.67-2.13,1-3.21.14-.47.89-2.51,1.14-3,.16-.31.24-.71.58-.79a1.87,1.87,0,0,1,1,.21c4.81,1.94,9.8,1.06,14.62-.12a1.09,1.09,0,0,1,.64,0c.57.17.56,1,.43,1.56-5.07,21.74-14.07,42.48-23.92,62.47"/>
  <path class="cls-6" d="M1339.22,790.17a13.84,13.84,0,0,0-1.08,2.7c-.84,3-1,6.23-1.69,9.32a33.64,33.64,0,0,1-2.12,6.33,5.06,5.06,0,0,0-.6,2.19,2.24,2.24,0,0,0,.66,1.41c3.28,3.44,6.43,4.72,10.73,5.45,2.36.4,4.64.48,7,.75a3.62,3.62,0,0,0,3-.59,10.92,10.92,0,0,0,1.55-2.45c1.65-3.56,3.65-5.95,6-9.06,2.61-3.39,4.09-6.42,4.27-10.29a18.15,18.15,0,0,0-.71-7.31,11.66,11.66,0,0,0-4.4-5.56c-7.77-4.84-18.59-.71-22.71,7.11"/>
  <path class="cls-7" d="M1405.6,721.49c-3.6,1.31-5.21.89-7-1.87a2.83,2.83,0,0,1,.17-3.17,3.92,3.92,0,0,1,2.81-2.07c.94-.15.92.81,1.17,1.39.88,2,2,2.68,4.07,1.84a17.24,17.24,0,0,0,8-6.25,47.46,47.46,0,0,0,6.92-15.31c2.56-10.75-6-15-13.59-13.61a19.27,19.27,0,0,0-6.5,2.84c-.43.27-1,.68-1.45.31s0-1,.15-1.42a9,9,0,0,1,5.08-4.89c5.62-2,11.3-1.89,16.38,1.56a10.59,10.59,0,0,1,4.79,11.15c-1.37,7.87-3.89,15.25-9.32,21.4a26.78,26.78,0,0,1-11.73,8.1"/>
  <path class="cls-2" d="M1349.25,781.85c-1-5.22-3.62-10-5.87-14.77a3.38,3.38,0,0,0-2.84-2.13,34.92,34.92,0,0,1-9.48-2.79q-8.82-4-17.58-8.13a13.78,13.78,0,0,1-4.75-3.33c-.26-1.1.68-1.44,1.3-1.87a60.78,60.78,0,0,1,5.81-3.78c5.06-2.71,7.9-6.72,8-12.55,0-.9,0-1.62-1.18-1.73-6.69-.65-12.68-3.34-18.68-6.14-2.66-1.24-5.47-2.52-8.61-2-.9-1.91-1.87-3.78-2.65-5.73a2.61,2.61,0,0,0-2.26-1.58,19.59,19.59,0,0,1-7.06-2.9,8.06,8.06,0,0,1-3-10.82,17.27,17.27,0,0,1,5.07-6c9.48-7.69,12.87-17.66,10.78-29.52-2.58-14.65-1.53-28.77,5.61-42.1,3.91-7.29,9-13.46,16.18-17.81a21.64,21.64,0,0,0,2-1.5c.47.72,1.27.73,2,.92,10.27,2.66,20.59,5.12,30.75,8.19a6.37,6.37,0,0,0,3.33.17c4.76-1.1,9.5-2.25,14.29-3.19a152.92,152.92,0,0,1,44-2.55,44.85,44.85,0,0,1,10.06,1.75,18.79,18.79,0,0,1-4,.12c-19.22-1-38.31-.22-57.12,4.25-1.28.31-2.78.42-3.73,1.86.41.18.67.31,1,.4q12.08,4.05,24.18,8.08a6,6,0,0,1,3.47,2.65,63.44,63.44,0,0,1,4.27,8.17,125.33,125.33,0,0,0,5.86,11.92,3.64,3.64,0,0,0,3.59,2.13c3.83-.06,7.67.06,11.49.31,10.59.72,21,2.41,30.46,7.52,3.3,1.78,6.54,3.71,8.77,6.9l-.13.24a54.55,54.55,0,0,0-22.78-9.8,86.1,86.1,0,0,0-27.6-1c-.87.12-1.92,0-1.54,1.48,1.7,7,1.27,14,1,21.09-.06,2.19.56,2.21,2.24,1.52a21.86,21.86,0,0,1,13.71-1.13c5.64,1.38,9.39,5.29,10,10.31a35.56,35.56,0,0,1-19.89,36.13c-2.58,1.24-5.58,2.11-6,5.68a34,34,0,0,0-.4,5.15c.18,5,1.87,9.71,2.89,14.55l-10.82,6.25a106.38,106.38,0,0,1-15.51,7.2c-3.37,1.28-10.11,3.8-10.32,8.14-.08,1.82,1.09,3.82.1,5.35a4.11,4.11,0,0,1-1.2,1.11,38.2,38.2,0,0,1-16.85,6.44c-.06-.4-.12-.81-.19-1.21"/>
  <path class="cls-8" d="M1418.46,776.35q-4.32-6.55-8.63-13.1a55.47,55.47,0,0,1-5.79-14.68c-1-4.84-2.71-9.54-2.89-14.55a34.19,34.19,0,0,1,.4-5.16c.43-3.57,3.43-4.43,6-5.67a35.56,35.56,0,0,0,19.89-36.13c-.61-5-4.36-8.93-10-10.31a21.86,21.86,0,0,0-13.71,1.13c-1.68.68-2.3.67-2.24-1.52.22-7.05.65-14.13-1-21.09-.38-1.51.67-1.36,1.54-1.48a86.1,86.1,0,0,1,27.6,1,54.68,54.68,0,0,1,22.78,9.8c.17.31.35.62.76.65.12.16.24.33.37.49a2.36,2.36,0,0,0,.16-.24c-.15-.14-.31-.25-.46-.37l-.7-.77c-2.23-3.18-5.47-5.12-8.77-6.9-9.5-5.11-19.87-6.8-30.46-7.52-3.82-.25-7.66-.37-11.49-.31a3.66,3.66,0,0,1-3.59-2.13,125.33,125.33,0,0,1-5.86-11.92,63.44,63.44,0,0,0-4.27-8.17,6,6,0,0,0-3.47-2.65q-12.1-4-24.18-8.08c-.28-.09-.54-.22-1-.4,1-1.44,2.45-1.55,3.73-1.86,18.81-4.47,37.9-5.3,57.12-4.25a18.14,18.14,0,0,0,4-.12,44.85,44.85,0,0,0-10.06-1.75,152.92,152.92,0,0,0-44,2.55c-4.79.95-9.53,2.09-14.29,3.19a6.37,6.37,0,0,1-3.33-.17c-10.16-3.07-20.48-5.53-30.75-8.19-.71-.19-1.51-.2-2-.92,13.85-10.12,28.54-18.69,44.87-24.23a77.63,77.63,0,0,1,16.72-3.65,18.31,18.31,0,0,1,8.38,1.16A148.25,148.25,0,0,1,1436,605.47a11.78,11.78,0,0,0,4,2.29c10.69,3.62,19.64,10,27.61,17.84a2.46,2.46,0,0,1,.79,2c-.15,13.51-1.4,26.87-5.62,39.8a11.79,11.79,0,0,0,0,7.47c3.54,11.48,5.79,23.16,4.92,35.29a11.59,11.59,0,0,1-5,9.17,282.05,282.05,0,0,1-30.8,19.93,4.34,4.34,0,0,0-2,2.29A54.41,54.41,0,0,0,1427,775.1a103.2,103.2,0,0,0,4.12,15,15.15,15.15,0,0,1-2.54-2.28c-3.38-3.83-6.73-7.68-10.09-11.52m6.75-166.07.1-.15s-.12-.08-.16-.06-.07.09-.11.14l.17.07m.85.05.18,0,0-.13Zm1.22.07-.14,0,0,.11Z"/>
  <path class="cls-9" d="M1295.33,722.67c3.14-.56,6,.72,8.61,2,6,2.8,12,5.49,18.68,6.14,1.18.11,1.19.83,1.18,1.73-.06,5.83-2.9,9.84-8,12.55a60.78,60.78,0,0,0-5.81,3.78c-.62.43-1.56.77-1.3,1.87-.92-.21-.74,1.89-2.06.93s-3.25-1.81-3.48-3.86c-.15-1.36,1-1.85,2-2.39a54.74,54.74,0,0,1,10.49-4.06c3.85-1.13,5.69-3.31,6-7,.14-1.54-.18-2.23-1.94-2.39-7-.64-13.92-1.12-20.73-2.83-5.41-1.36-5.41-1.33-3.74-6.48"/>
  <path class="cls-1" d="M1310.21,640.22a13.5,13.5,0,0,1,10.38.16c8.66,3.55,14.23,10,16.91,19,.26.83.61,1.93-.44,2.38s-1.42-.65-1.94-1.24c-1.87-2.15-3.69-4.36-5.53-6.54a21.59,21.59,0,0,0-18.95-8.05,15.48,15.48,0,0,1-1.8.07c-1.08-.07-2.51.38-2.94-1s.51-2.28,1.39-3.15a7.49,7.49,0,0,1,2.92-1.59"/>
  <path class="cls-10" d="M1304.06,679.41a17.16,17.16,0,0,1,1.65-9.22c2.73-5.16,8.6-9.11,14.59-8.15A20.86,20.86,0,0,1,1338.19,682c.24,5.6-3.15,9.34-7.36,12.4a21.28,21.28,0,0,1-9.45,3.75c-6.62,1-11.53-1.61-14.39-7.66a31.55,31.55,0,0,1-2.93-11"/>
  <path class="cls-11" d="M1307.28,690.59a11.9,11.9,0,1,1,15.06,7.31,11.91,11.91,0,0,1-15.06-7.31"/>
  <path class="cls-12" d="M1316.63,679.66c-2.26,0-5.31,2.5-6,5a8.35,8.35,0,0,0,3.81,9.45,7.71,7.71,0,0,0,9.77-1.8,8.12,8.12,0,0,0,.34-10l-.6-.9c-1,1.71-2.28,3-4.48,2.45s-2.91-2.13-2.86-4.21"/>
  <path class="cls-13" d="M1316.63,679.66c-.05,2.08.75,3.65,2.86,4.21s3.48-.74,4.48-2.45c0-2.72-.83-4.17-2.79-4.64s-3.42.45-4.55,2.88"/>
  <path class="cls-2" d="M1453.2,665.11a5.19,5.19,0,0,1,.45.37,1.83,1.83,0,0,1-.15.24c-.13-.16-.25-.33-.37-.49Z"/>
  <path class="cls-2" d="M1453.13,665.23c-.41,0-.58-.33-.76-.64,0-.08.09-.15.13-.24.23.26.46.51.7.76l-.07.12"/>
  <path class="cls-2" d="M1425.22,610.29l-.17-.07c0-.05.06-.13.11-.15s.11,0,.16.07l-.1.15"/>
  <polygon class="cls-2" points="1426.06 610.33 1426.21 610.22 1426.24 610.35 1426.06 610.33"/>
  <polygon class="cls-2" points="1427.28 610.4 1427.15 610.48 1427.13 610.38 1427.28 610.4"/>
  <path class="cls-14" d="M1382.66,762.16c4-1,9.42-1.85,13.62-2.75a5,5,0,0,1,3.09.32c4.55,2.07,7.25,4.5,10.26,8.78.4.56.75,1.14,1.49,1.31,1,.23,3.3,8.71,3.76,9.94.87,2.28,2.38,4.92,1.88,7.45-.74,3.68-4.32,5.4-4.45,9.51-.23,6.89,1.4,14.29,2,21.18s1,14,1.45,21c1,17.12,2.16,34.22,6.11,51,1.77,7.52,4.36,14.83,5.71,22.46.61,3.43,1.16,6.88,1.67,10.33,0,0,8.08,27.28,5.56,34.31-.89,2.5-4.4,2.64-6.45,4.18a93,93,0,0,1-28.23,3.82,55.41,55.41,0,0,0-12.19,1c-5.39.6-10.56,2.27-15.84,3.37-3.63-.27-7.25.42-10.88.07s-7.09-.73-10.61-1.3a2.24,2.24,0,0,1-2.17-2.15c-2-13.15-3.59-26.32-4.44-39.61-.76-12-1.07-24-1.18-35.94-.08-9.63.11-19.27.09-28.9,0-3.94-.64-23-.24-28.54.31-4.2,1.77-20.41,2.07-24.33.52-6.72,1.34-13.43,1.17-20.2.08,2.74,1.78,2.86,4,2.66,5.06-.47,10.13-.87,15.18-1.46a7.16,7.16,0,0,0,5.49-3.43c5.37-7.79,8.56-15.4,12.17-24"/>
  <path class="cls-15" d="M1383.36,762c-3.62,8.64-7.14,17.32-12.5,25.11a7.17,7.17,0,0,1-5.49,3.43c-5.06.59-10.13,1-15.19,1.46-2.17.2-3.88.08-4-2.66.09-1.19-.36-2.4.14-3.58,6,.35,11.79-.71,17.63-1.64a2.89,2.89,0,0,0,2.12-1.52,167.72,167.72,0,0,0,10.34-19.69l6.91-.91"/>
  <path class="cls-16" d="M1376.45,762.9a167.72,167.72,0,0,1-10.34,19.69,2.89,2.89,0,0,1-2.12,1.52c-5.84.93-11.67,2-17.63,1.64a7.37,7.37,0,0,1,0-4.55c5.31-.26,10.56-1.08,15.82-1.83a1.71,1.71,0,0,0,1.37-1,151.9,151.9,0,0,0,7.36-15.13l5.54-.29"/>
  <path class="cls-17" d="M1370.91,763.19a151.9,151.9,0,0,1-7.36,15.13,1.71,1.71,0,0,1-1.37,1c-5.26.75-10.51,1.58-15.82,1.83a22.54,22.54,0,0,1-.19-3.38c-.11-1.61.62-2.13,2-2.15a81.23,81.23,0,0,0,11.35-.51c.93-.09,1.26-.67,1.6-1.38,1.3-2.74,2.81-5.41,3.87-8.24.83-2.23,2.14-2.87,4.29-2.44a12,12,0,0,0,1.59.09"/>
  <path class="cls-18" d="M1411.66,798.18l.39.5-.39-.5"/>
  <path class="cls-5" d="M1449.81,850.72a8.23,8.23,0,0,0,2.26,3.28c5.48,5,11,10.07,15.62,16a37.23,37.23,0,0,1,2.38,3.55,2.49,2.49,0,0,1,.07,3c-.82,1.09-2,.92-3.1.59a20.7,20.7,0,0,1-4.8-2.45c-2-1.22-3.73-2.94-6.16-4a9.67,9.67,0,0,0,2.09,3.75c3.23,4.62,6.8,9,9.48,14a13.33,13.33,0,0,1,1.63,4.42c.32,2.43-1.11,3.59-3.42,2.73a13.8,13.8,0,0,1-4.39-3.1,104.89,104.89,0,0,1-10-11.31c-.52,1.17,0,2.06.19,2.92,1.48,6.84,3.09,13.65,3.12,20.7,0,1.6.36,3.72-1.58,4.29s-2.86-1.36-3.73-2.7c-3.46-5.35-5.4-11.41-7.74-17.27-.72-1.82-1.45-3.63-2.21-5.43-.19-.47-.37-1.14-1-1.05s-.63.81-.72,1.3c-.65,3.32-1.23,6.66-1.9,10a27.6,27.6,0,0,1-2.34,7.52c-.51.95-1.14,1.87-2.38,1.77a2.91,2.91,0,0,1-2.33-1.92,18.27,18.27,0,0,1-1.41-7.71c0-4.81.18-9.62.27-14.43.06-3.53-.61-4-4-2.86-2.13.73-4.13,1.84-6.35,2.32a5.18,5.18,0,0,1-3.94-.32,3.11,3.11,0,0,1-1.34-4.44c1.44-3.14,3.84-5.55,6.2-8,2-2,4.06-4,6.11-6a3.65,3.65,0,0,0,1.34-3.37c-.19-1.39-.39-2.78-.62-4.16-.75-4.57-1.71-9.11-2.9-13.59a137.09,137.09,0,0,0-4.2-13.12,134.2,134.2,0,0,0-5.52-12.66q-1.56-3.12-3.28-6.15c-.57-1-1.16-2-1.76-3-.27-.44-1.3-2.46-1.5-3-.12-.34-.37-.68-.19-1a1.84,1.84,0,0,1,.85-.6c4.9-2.32,7.77-6.77,10.29-11.31a1.23,1.23,0,0,1,.42-.51c.54-.32,1.15.26,1.5.78,13.08,19.31,22.59,40.93,30.93,62.66"/>
  <path class="cls-6" d="M1388.57,782.51a14.11,14.11,0,0,0,1.31,2.74c1.74,2.81,4.06,5.2,5.94,7.91a34.6,34.6,0,0,1,3.35,6.12,5.36,5.36,0,0,0,1.26,2,2.35,2.35,0,0,0,1.54.49c5-.08,8.19-1.58,11.8-4.36,2-1.52,3.66-3.22,5.55-4.85a3.77,3.77,0,0,0,1.71-2.75,11.65,11.65,0,0,0-.78-2.93c-1.56-3.78-2-7-2.66-11-.75-4.41-2-7.7-4.86-10.58-1.8-1.82-3.73-3.7-6.11-4.64a12.16,12.16,0,0,0-7.38-.58c-9.22,2.53-13.75,13.75-10.67,22.46"/>
</svg>
