<svg id="Layer_2" data-name="Layer 2" xmlns="http://www.w3.org/2000/svg" viewBox="0 0 595.28 1387.94"><defs><style>.cls-1{fill:#0c0807;}.cls-2{fill:#a56737;}.cls-3{fill:#a46636;}.cls-4{fill:#488dcb;}.cls-5{fill:#d42027;}.cls-6{fill:#21b14b;}.cls-7{fill:#fde500;}.cls-8{fill:#9a5b2a;}.cls-9{fill:#6c401d;}.cls-10{fill:#faf8f7;}.cls-11{fill:#522f27;}.cls-12{fill:#060504;}.cls-13{fill:#600b0c;}.cls-14{fill:#f2ecec;}.cls-15{fill:#fff;}.cls-16{fill:#734725;}</style></defs><title>Akili-landing_and_jumping-3</title><g id="character"><path class="cls-1" d="M249.9,868.35c1.45,0,1.28,1.19,1.15,2.09a42.54,42.54,0,0,1-11.58,26.25c-7.49,7.45-16.38,7.71-25.53,4a22.23,22.23,0,0,0-11.54-1.49,68.55,68.55,0,0,1-38.3-7.41A48.62,48.62,0,0,1,146.69,880c-11.36-13.32-3-30.09,7.32-35.28a61.94,61.94,0,0,1,21.54-5.23,144.64,144.64,0,0,1,17.28-1.15,65.12,65.12,0,0,0,14.3-2,78.25,78.25,0,0,1,17.32,34c1,4.72,1,4.85,5.66,4.25A41.76,41.76,0,0,0,249.9,868.35ZM188,871.67a33.64,33.64,0,0,0,15.19,3.53c3.07.22,7.19,1.79,8.9,0s-.3-6-1-8.93A46.9,46.9,0,0,0,199,842a4.27,4.27,0,0,0-4.26-1.61A45.54,45.54,0,0,0,183,845a11.49,11.49,0,0,0-5.86,15.15,11.28,11.28,0,0,0,1.35,2.3A28.26,28.26,0,0,0,188,871.67Z"/><path class="cls-2" d="M249.9,868.35A41.83,41.83,0,0,1,230,874.52c-4.64.77-4.68.64-5.66-4.25a78.25,78.25,0,0,0-17.32-34c6.9-3.15,11.28-9.11,16.09-14.6,6.26-7.15,26.94-36.77,33.11-44A161.59,161.59,0,0,0,274.37,789l17.79,8.25c-7.07,11-29,44-35.28,55.58A92.86,92.86,0,0,0,249.9,868.35Z"/><path class="cls-2" d="M188,871.67a28.32,28.32,0,0,1-9.7-9.24,11.48,11.48,0,0,1,2.2-16.08h0a11.28,11.28,0,0,1,2.3-1.35,45.45,45.45,0,0,1,11.91-4.52,4.3,4.3,0,0,1,4.26,1.62,46.77,46.77,0,0,1,12.17,24.3c.68,3,2.94,6.9,1,8.94s-5.83,0-8.9,0A33.54,33.54,0,0,1,188,871.67Z"/><path class="cls-1" d="M457.88,808.09s.43-.3.64-.26c12.34,1.32,24.26-3,36.52-2.59l10.59.46c14.69.6,24,16.64,22.6,26.48a28.19,28.19,0,0,1-11,17.87,78.4,78.4,0,0,1-44.94,18.6,7.79,7.79,0,0,0-4.26,2c-7.45,5.74-16,8.51-24.3,3.45-9.87-6.18-18.56-14.13-21.28-26.31a54.6,54.6,0,0,0,21.88,2.35c2.17,0,3.1-.9,3-3.24a69.6,69.6,0,0,1,6-28.39A84.47,84.47,0,0,0,457.88,808.09Zm23.79,32.38a25.48,25.48,0,0,0,8.22-9.1c4.25-7.07,3.23-14.81-5.62-18.64a53.87,53.87,0,0,0-12.34-2.81,4.26,4.26,0,0,0-4.26,2c-7.62,10.3-8.21,22.26-8.51,34.3,0,1.32.64,1.7,1.79,1.4C467.88,845.71,475.37,844.73,481.67,840.47Z"/><path class="cls-2" d="M457.88,808.09A85,85,0,0,1,453,818.51a69.76,69.76,0,0,0-6,28.39c0,2.34-.85,3.11-3,3.24a54.42,54.42,0,0,1-21.88-2.35c-4.59-9.57-12.76-16-19.91-23.57-4.26-4.26-31.07-28.3-35.16-32.69A122.63,122.63,0,0,0,400,764.34c8.51,6.64,39.45,33.53,48.73,39.24C451.88,805.36,454.86,806.43,457.88,808.09Z"/><path class="cls-2" d="M481.67,840.47c-6.21,4.26-13.7,5.32-20.81,7.15-1.15.3-1.83,0-1.79-1.4,0-12,.81-24,8.52-34.3a4.24,4.24,0,0,1,4.25-2,53.87,53.87,0,0,1,12.34,2.81c8.86,3.83,9.66,11.57,5.62,18.64A25.4,25.4,0,0,1,481.67,840.47Z"/><path class="cls-3" d="M571.56,526.82a185.8,185.8,0,0,0-33.16,7.79c-.68.21-1.32-.64-.85-1.15,4.73-5.15,17-12.77,20-21.88a3.52,3.52,0,0,0-1.1-3.7c-1.92-1.66-5.15,0-7.66,1.4l-22.56,17.41c-1.83,1.15-2.59,2.26-3.4,1.32s1.32-2,1.74-2.77a72.53,72.53,0,0,1,5.62-10.13,20.93,20.93,0,0,0,1.32-5.1,3.36,3.36,0,0,0-3.73-2.94h0a3.24,3.24,0,0,0-1.28.43,37.82,37.82,0,0,0-10.22,8.93c-4.64,5.24-9.23,10.73-13.87,15.92-2.47,2.72-4,5.28-7.92,6.3-4.89,1.23-11.57,3.15-16.55,4a298.46,298.46,0,0,1-70.65,5.28c-5.06-.26-11.53-1.32-14.55,2.76a10.58,10.58,0,0,0-1.83,5.2,14.18,14.18,0,0,0,2.89,10.89c5.32,6.51,14.68,6.89,23.53,7.87a536.76,536.76,0,0,0,77.63,2.9c4.77,0,9.66-1.45,14,.59A100.6,100.6,0,0,0,537,588.61a4.67,4.67,0,0,0,5.36-3.66,7.35,7.35,0,0,0-2.38-6.21,77.7,77.7,0,0,1-7.07-8.81c-.81-2.68,4.64-3.36,8.05-3.06a76.64,76.64,0,0,0,22.25-1.54c3.62-.68,8.3-1.36,8-5.06,0-2-2.94-3.45-4.85-4.26a49.1,49.1,0,0,0-7.88-1.49,168.32,168.32,0,0,1-17-2.68c-1.06-1.36,8.51-4.93,19.87-10.64.77-.38,17.58-8.25,16.13-12.25C576.92,527.29,573.43,526.65,571.56,526.82Z"/><path class="cls-4" d="M361.4,570.65a17.55,17.55,0,0,0,6.13,1.07c4.26,0,1.06,1.66,5.75,1a47.25,47.25,0,0,1,18.59,1.53,7.68,7.68,0,0,0,3.83.38,8.21,8.21,0,0,0,2.81-2.59,28.2,28.2,0,0,0,5.15-17.41c0-3.87-.42-7.57-.59-11.45a5.9,5.9,0,0,0-1.71-4.76,17,17,0,0,0-4.25-1.83A74.09,74.09,0,0,1,381,529.2a28,28,0,0,0-17.73-4.2,30.29,30.29,0,0,0-12,4.51c-4.55,2.68-2.34,1.27-5.28,5.7a19.55,19.55,0,0,0-3,15.19,31.9,31.9,0,0,0,3.88,8.09,28.47,28.47,0,0,0,6,7.83A29.47,29.47,0,0,0,361.4,570.65Z"/><path class="cls-3" d="M23.42,522.37A183.34,183.34,0,0,1,56,532.2c.63,0,1.36-.6.93-1.11-4.25-5.45-16.13-14-18.68-23.07a3.54,3.54,0,0,1,1.36-3.66c2-1.49,5.11.43,7.53,1.92L68.44,525c1.79,1.28,2.47,2.39,3.37,1.54s-1.2-2-1.58-2.9a75.54,75.54,0,0,0-5-10.42,19.62,19.62,0,0,1-1-5.2,3.32,3.32,0,0,1,3.84-2.7,3.27,3.27,0,0,1,1.31.53A37.45,37.45,0,0,1,79,515.39c4.26,5.49,8.51,11.23,12.77,16.72,2.25,2.85,3.66,5.49,7.49,6.73,4.81,1.57,11.36,3.87,16.3,5A297.39,297.39,0,0,0,186,553.41c5.06,0,11.61-.63,14.34,3.62a10.53,10.53,0,0,1,1.53,5.41,14.16,14.16,0,0,1-3.53,10.72c-5.71,6-15.11,5.92-23.84,6.3a539.1,539.1,0,0,1-77.71-1.83c-4.72-.47-9.53-2-14-.3a102.08,102.08,0,0,1-28.77,8.77,4.67,4.67,0,0,1-5.1-4A7.4,7.4,0,0,1,51.72,576a77.55,77.55,0,0,0,7.58-8.52c1-2.68-4.26-3.66-7.83-3.57a78.41,78.41,0,0,1-22.13-2.85c-3.79-.73-8.3-1.71-8-5.37.26-2,3.2-3.23,5.11-3.83a50.13,50.13,0,0,1,8-1,166.9,166.9,0,0,0,17-1.66c1.15-1.28-8.13-5.45-19.19-11.84-.43-.55-16.73-9.32-15.15-13.32C18,522.54,21.37,522.11,23.42,522.37Z"/><path class="cls-4" d="M236.72,584.08a18.09,18.09,0,0,1-6.21.72c-4.26,0-7.37-3.62-12-4.55a48.13,48.13,0,0,0-18.64.42,7.76,7.76,0,0,1-3.83,0,8.13,8.13,0,0,1-2.68-2.76,28,28,0,0,1-4-17.67c0-3.91.85-7.53,1.28-11.4a5.72,5.72,0,0,1,2-4.64,17.4,17.4,0,0,1,4.25-1.58,75,75,0,0,0,16.47-6.42,28.51,28.51,0,0,1,18-3.15,31.67,31.67,0,0,1,11.75,5.23,35.23,35.23,0,0,1,11.28,11.41,19.24,19.24,0,0,1,2,15.32,31.61,31.61,0,0,1-4.25,7.83,29.37,29.37,0,0,1-6.47,7.45A28.89,28.89,0,0,1,236.72,584.08Z"/><path d="M281.65,505.28s-37.45,16-52.48,34.52c0,0,11.58-40.35,12.77-52.39,0,0-31.79,31.75-62.94,28.77a61.28,61.28,0,0,0,34.89-51.07s-46.81-34.73-57.71-88.18c0,0,33.75-44.31,43.2-51.07,0,0-3.74-43.2,15.15-59.33,0,0,47.88-13.24,72-1.75a108.94,108.94,0,0,1,65.54-28.64S406,261.38,412.9,294c0,0,55.32,27.2,63,32.56,0,0,8.86,42.56-8.51,65.28,0,0,13.66,39.46,7.49,55.76,0,0-36.38,36-69.71,41.24s-14.85,80.86-14.85,80.86S366,532.82,348.59,522a261.6,261.6,0,0,1-.59,43.45S323.27,506.13,281.65,505.28Z"/><path class="cls-4" d="M253.6,818.09c4.51,2,9,4.25,13.32,6.51a26.33,26.33,0,0,0,8.94,3.28,9.71,9.71,0,0,0,2.94-.3,9.67,9.67,0,0,1,2.21-.26,26.58,26.58,0,0,0,12.43-1.49,42.67,42.67,0,0,1,11.7-3.49,78,78,0,0,1,16.26-1.87h3.32c5.66.3,11.32,1,17,1.45,4.72.34,9.45.59,14.21.72a9.21,9.21,0,0,0,4.26-.42c3.62-1.41,7.45-1.71,11.15-2.81a110.67,110.67,0,0,0,17.36-8c4.26-2.25,8.52-4.85,13.28-7a71.6,71.6,0,0,0,11.24-8c3.79-2.81,7.62-5.66,11.62-8.13,1.91-1.24,3.74-2.73,5.74-3.88,1.24-.68,2.22-1,1.32-2.59a23.88,23.88,0,0,0-6-4.26,33.42,33.42,0,0,1-3.36-2,19.3,19.3,0,0,1-2.51-3.32c-1.19-1.74-2.26-3.7-3.58-5.36a74.3,74.3,0,0,1-6-8.81c-1.19-2-2.26-4-3.53-5.92a8.93,8.93,0,0,1-.85-2.76,21.43,21.43,0,0,1-1.49-6.26,20.89,20.89,0,0,0-.73-5.62c-1-4.51-2.12-9-3.27-13.49q-3.58-13.62-7.75-27a425.2,425.2,0,0,0-15.75-43.37c-8.89-20.26-17-75.5-17-75.5s0-40.38-8.51-50.77c-9.19-11.23-35.92-8.51-60.69-4.25a218.49,218.49,0,0,0-54.6,17.57c-6.3,3.19-1.53,65.29-.43,77.8s9.71,64,10.51,81.54c.64,13.49.64,27,1,40.56,0,4.6.6,9.28.73,13.79a16.86,16.86,0,0,1-1,4.25A74,74,0,0,1,242,774a73.51,73.51,0,0,0-3.57,6.81,87.82,87.82,0,0,1-4,8.51,102.93,102.93,0,0,1-6.17,8.51c-.77,1.07-3.58,4.26-2.9,5.75s4.26,2.3,5.58,3.15,3.1,1.74,4.68,2.64a44.82,44.82,0,0,0,4.72,2.81C244.79,814.39,249.22,816.17,253.6,818.09Z"/><polygon class="cls-5" points="339.1 526.65 325.48 525.63 247.6 535.46 240.15 537.37 248.79 577.29 337.65 565.63 339.1 526.65"/><path class="cls-6" d="M329.14,525.54,318.33,524l-62.22,7.83a42.16,42.16,0,0,0-4.25,2l-4.26,1.4,7.87,31.28,73-10.17Z"/><polygon class="cls-7" points="318.97 524.01 304.54 522.14 263.22 528.01 255.9 531.5 262.62 556.74 319.61 548.61 318.97 524.01"/><path class="cls-3" d="M269.77,548.31l-5.95-19.24a11.88,11.88,0,0,0,7.83-7.78c1.4-5.92,3.32-13.37,17.79-15.07s11.44,5.06,12.51,7.53a57.4,57.4,0,0,1,2.08,6.39,5.83,5.83,0,0,0,5.54,4.25c3.66.43,0,16.34,0,16.34Z"/><path class="cls-8" d="M202.49,370.59l9.4-24.43a8.23,8.23,0,0,0-1.15-5.54c-1.65-2-8.51-11.23-8.51-11.23a46.61,46.61,0,0,1,14,7.28c1.41.51,1.58,1.83,3.49,0s24.56-21.28,24.56-21.28,34.35-8.17,39.15-10.09,6.05-2.55,6.18-8,0-18.68-.39-21.28c0,0,6.64,23.49,7.11,26.6s4.26,2.13,5,2S342,301.73,342,301.73a8.48,8.48,0,0,1,4.85,1.1c3.45,1.53,32.26,15.66,36.86,19.88,1.78,1.06,2.76.76,3.53,0s17-10.43,21.28-15.49a192.4,192.4,0,0,0-12,19.27c-1.71,2.9.76,2.81,1.31,3.58s21,19.93,21,19.93l7.54,35.11s24.64-.26,31.87,5.79a50.32,50.32,0,0,0-26.89.55s2.55,15.36,0,21.28C427.45,453,416.52,476.1,407,490.14c-18.72,23.71-57.83,38.6-80.09,42.14-33.45,3.53-48.35-1.15-77.24-17.62-7.79-10.73-42.26-25.54-51.63-86.74Z"/><path class="cls-8" d="M190.87,426.25a12.31,12.31,0,0,0,6.43,1.19c1.91-.63,3.32-2.85,4.59-4.25,5.75-7.07,6.26-17,6.56-26.05l.25-8.3a48.17,48.17,0,0,0-.55-11.06,16.51,16.51,0,0,0-5.45-9.71,15.59,15.59,0,0,0-8.94-3.19A21.73,21.73,0,0,0,182.44,366a16.07,16.07,0,0,0-6.85,7.11,46.62,46.62,0,0,0-4.25,14.08,40.31,40.31,0,0,0,1.1,14.05,41.71,41.71,0,0,0,6.94,16.21A24,24,0,0,0,190.87,426.25Z"/><path class="cls-9" d="M192,373.18a11.64,11.64,0,0,1,4.25,1.36,30.23,30.23,0,0,1,5.24,4.26c.47-1.62-.51-3.11-1.66-5.41a9.32,9.32,0,0,0-2.21-2.89,10.87,10.87,0,0,0-5-2.21,14.35,14.35,0,0,0-14.29,6.81c-3.24,4.81-2.52,11.32-1.88,17,1.49,13.7,6.43,22.22,12.22,27.11.25,0,5.23,5.4,8.25,3.92a4.84,4.84,0,0,0,1-.86,6.79,6.79,0,0,0,2-4.89,4.24,4.24,0,0,0-3.53-4.26,4.25,4.25,0,0,1-2,4.81,3.21,3.21,0,0,1-1.79,0,20.36,20.36,0,0,1-3.23-2.55,14.86,14.86,0,0,1-4.85-7.11,45.05,45.05,0,0,1-2.21-6.68,64.64,64.64,0,0,1-2.39-16A13,13,0,0,1,189.21,373,7.71,7.71,0,0,1,192,373.18Z"/><path class="cls-8" d="M423.07,469.58c-2.17,0-5.53.68-6.55-.26a12.15,12.15,0,0,1-2.39-5.91c-2.38-8.77,1.11-18,4.56-26.43l3.1-7.71a49,49,0,0,1,5-9.91c2.17-3,3.53-5.88,7.15-6.77a28,28,0,0,1,12.77-.38,19.87,19.87,0,0,1,9.75,4.89c2.21,2.77,1.74,7.66,2,11.19a44.7,44.7,0,0,1-2.34,14.18A42.07,42.07,0,0,1,449,455c-3.54,5-8.52,6.89-13.84,10.09S428.47,469.58,423.07,469.58Z"/><path class="cls-9" d="M443.37,419.44a11.6,11.6,0,0,0-4.26-.51,29,29,0,0,0-6.55,2c0-1.66,1.7-2.64,3.66-4.26a10,10,0,0,1,2.89-1.74,10.29,10.29,0,0,1,5.45,0,14.37,14.37,0,0,1,10.34,12c1,5.7-3,14.22-5.87,19.24a37.82,37.82,0,0,1-22.39,19c-.34,0-7,2.81-9.1.25a4.3,4.3,0,0,1-.6-1.19,7.09,7.09,0,0,1,0-5.28,4.26,4.26,0,0,1,5.15-2.42,4.25,4.25,0,0,0,0,5.23,3.34,3.34,0,0,0,1.62.68,19.85,19.85,0,0,0,4-1,21,21,0,0,0,8.51-5.36,40.72,40.72,0,0,0,4.72-5.19,66.55,66.55,0,0,0,8.52-13.75,15,15,0,0,0-3.92-16.43A8.29,8.29,0,0,0,443.37,419.44Z"/><path class="cls-10" d="M274.71,442.34a54.18,54.18,0,0,1-33-8.51,27.28,27.28,0,0,1-11.4-30.69,29.5,29.5,0,0,1,29.79-19.87A48.94,48.94,0,0,1,292.76,399a24.71,24.71,0,0,1,5.57,26C294.76,434.85,287.56,440.42,274.71,442.34Z"/><path class="cls-10" d="M366.76,465a54.28,54.28,0,0,1-34.51-10.21c-9-6.38-10.09-15.79-8.26-25.75a22.31,22.31,0,0,1,16.43-18.43,47.16,47.16,0,0,1,40,6.09,25.79,25.79,0,0,1,11.1,26.81C388.6,455.62,381,462.85,366.76,465Z"/><path class="cls-11" d="M256.11,430.59a19.41,19.41,0,1,1,16.12-22.22h0v.08a19.27,19.27,0,0,1-16,22.1h0Zm-15.87-21.83v1.79A13.28,13.28,0,0,0,248,424.68a12.77,12.77,0,0,0,15.53-4.9,13.73,13.73,0,0,0-1.79-16.59,12.06,12.06,0,0,0-12.47-2.6c-3.49-2.64-6.25-2.85-8.76-.64s-2.6,4.94-.47,8.81Z"/><path class="cls-12" d="M249.3,400.59a12.06,12.06,0,0,1,12.47,2.6,13.73,13.73,0,0,1,1.79,16.59,12.77,12.77,0,0,1-15.53,4.9,13.27,13.27,0,0,1-8.13-14V408.9c2.76,1.7,5.62,2.63,8.51,0A6.13,6.13,0,0,0,249.3,400.59Z"/><path class="cls-10" d="M249.3,400.59a6.11,6.11,0,0,1-.89,8.51c-2.72,2.51-5.58,1.58-8.51,0-2.13-3.87-2-6.64.47-8.81S245.81,397.87,249.3,400.59Z"/><path class="cls-11" d="M330,424.12a19.45,19.45,0,1,1,4.37,27.16l-.12-.09A19.49,19.49,0,0,1,330,424.12Zm32,6.81c-1.24-3.27-3.75-4.17-8-3.27a12.08,12.08,0,0,0-12.26-3.37,13.71,13.71,0,0,0-9.15,14,12.77,12.77,0,0,0,11.58,11.45,13.33,13.33,0,0,0,13.7-8.89l.64-1.62C362.08,436.51,363.19,434,362,430.93Z"/><path class="cls-12" d="M354,427.66a12.08,12.08,0,0,0-12.26-3.37,13.71,13.71,0,0,0-9.15,14,12.77,12.77,0,0,0,11.58,11.45,13.33,13.33,0,0,0,13.7-8.89l.64-1.62c-3.24.26-6.17-.26-7.49-3.75A6.14,6.14,0,0,1,354,427.66Z"/><path class="cls-10" d="M354,427.66a6.15,6.15,0,0,0-3,7.78c1.32,3.49,4.25,4,7.49,3.75,3.7-2.51,4.81-5,3.62-8.09S358.25,426.76,354,427.66Z"/><path class="cls-13" d="M271.22,479.15s-1.57-2.59,1.15-.55a62.46,62.46,0,0,0,37.54,10.68,37.1,37.1,0,0,0,6.12-.76c.6,0,.69.55-.29.85a40.62,40.62,0,0,0-12.3,4.72,9.76,9.76,0,0,1-7.41,1.83,36.88,36.88,0,0,1-13.32-4.26C278.5,488.3,279.35,484.81,271.22,479.15Z"/><path class="cls-14" d="M271,477s0,3.24,9.19,7.92A59.9,59.9,0,0,0,305.74,491a27.71,27.71,0,0,0,10.76-2.68Z"/><path class="cls-15" d="M280.92,489.75s8.52,3.23,10.52,3.66a46.3,46.3,0,0,1,12.21,3.4C306,498.64,283.22,498.73,280.92,489.75Z"/><path class="cls-16" d="M298.25,481.62c-3.32-.94-9.79-2.68-13.16-3.4a55.45,55.45,0,0,0-7.49-1,43.31,43.31,0,0,1-5.32-.72,10.09,10.09,0,0,1-2.21-.68L265.82,474a.35.35,0,0,0-.39.56,27.67,27.67,0,0,1,7.92,15.36,11.46,11.46,0,0,0,.89,3.4,6.14,6.14,0,0,0,1.41,1.75,19.5,19.5,0,0,0,9.1,4.94,68.36,68.36,0,0,0,9.15,2.17,31.18,31.18,0,0,0,12.22-1.2c1.15-.38,2.59-2.17,3.62-2.85a44.86,44.86,0,0,0,4.25-4.25,36.11,36.11,0,0,1,11.71-5.49A144.89,144.89,0,0,1,298.25,481.62Zm17.44,7.75a40.88,40.88,0,0,0-12.3,4.72,9.75,9.75,0,0,1-7.4,1.83,36.88,36.88,0,0,1-13.32-4.26c-4.26-3.49-3.36-7-11.49-12.76,0,0-1.58-2.6,1.15-.56A62.48,62.48,0,0,0,309.86,489a37.23,37.23,0,0,0,6.13-.77C316.63,488.47,316.72,489.07,315.69,489.37Z"/><path class="cls-11" d="M307.91,466c-10.86,2.55-20.69-5.66-24.3-13.83-1.54-3.45,0-5.36,3.61-4.94a13.17,13.17,0,0,1,3.45.77,161.94,161.94,0,0,0,25.53,6.59c1.75.3,3.75.6,4.26,2.6s-1.15,3.4-2.6,4.6A18.49,18.49,0,0,1,307.91,466Z"/><path class="cls-1" d="M261.77,359.05a42.36,42.36,0,0,1,28.39,5.88,20.16,20.16,0,0,1,2.17,1.74,2.91,2.91,0,0,1,1.15,3.15c-.6,1.45-2,.89-3.07.64-3.66-.85-7.32-1.79-11-2.73a48.76,48.76,0,0,0-36.09,6,21.19,21.19,0,0,1-3.87,1.71c-.93.3-2.13.93-2.89,0s0-2.05.47-3a19.11,19.11,0,0,1,7.15-6.68A48.26,48.26,0,0,1,261.77,359.05Z"/><path class="cls-1" d="M398.6,411.4c.38,2.6,1.1,5.32-.94,6.09s-3.1-2-4.25-3.58a136.67,136.67,0,0,0-7.66-11.45,46.54,46.54,0,0,0-24.18-15.19c-2.38-.68-4.76-1.45-7.1-2.26-1-.34-2.13-.81-2.09-2.08s1.32-1.79,2.51-2a20.94,20.94,0,0,1,9.83,0,44.43,44.43,0,0,1,33.07,28A21.6,21.6,0,0,1,398.6,411.4Z"/></g></svg>