<svg id="Layer_10" data-name="Layer 10" xmlns="http://www.w3.org/2000/svg" xmlns:xlink="http://www.w3.org/1999/xlink" viewBox="0 0 435.3 769.01">
  <defs>
    <style>
      .cls-1 {
        fill: #600b0c;
      }

      .cls-2 {
        fill: #a56737;
      }

      .cls-3 {
        fill: #0c0807;
      }

      .cls-4 {
        fill: #a46636;
      }

      .cls-5 {
        fill: #488dcb;
      }

      .cls-6 {
        fill: #d42027;
      }

      .cls-7 {
        fill: #21b14b;
      }

      .cls-8 {
        fill: #fde500;
      }

      .cls-9 {
        fill: #7f4d27;
      }

      .cls-10 {
        fill: #9a5b2a;
      }

      .cls-11 {
        fill: #6c401d;
      }

      .cls-12 {
        fill: #522f27;
      }

      .cls-13 {
        fill: #faf8f7;
      }

      .cls-14 {
        fill: #060504;
      }

      .cls-15 {
        clip-path: url(#clip-path);
      }

      .cls-16 {
        fill: #fff;
      }
    </style>
    <clipPath id="clip-path" transform="translate(-994.89 -294.66)">
      <path class="cls-1" d="M1178.29,575.22a37.39,37.39,0,0,1,19.34-7.63c10.75-.8,17.56,8.56,16.41,13.21s-3.75,4.46-8.59,3.53-11.72,1.12-13.58,2-15.24,6.58-17.68-1.12C1172.19,578.94,1178.29,575.22,1178.29,575.22Z"/>
    </clipPath>
  </defs>
  <title>Akili-scared-1</title>
  <g>
    <path class="cls-2" d="M1237.63,949.35s4.47,23.45,5.86,36a86.37,86.37,0,0,1,0,21.21l12.84,20.26,47.72,19.65-5.58-50,2.23-6.56s-7.25-1.54-16.74-45.35l-31.54-14Z" transform="translate(-994.89 -294.66)"/>
    <path class="cls-3" d="M1243.63,1002.66a38.94,38.94,0,0,0,8.1,9.35c4.88,3.9,9.9,8.65,12.42,6.55s16-23.3,36.55-28.6c0,0,5.45,5.44,11.17,7.67s25.39,14,31.25,19.26,12,16.74,7.82,29.58-17,20.37-46,15.91-25.12-8.65-30.14-10.33-9.21-1.39-12.28-1.39-19.53-2.24-21.49-26C1241,1024.7,1239.87,1008.8,1243.63,1002.66Z" transform="translate(-994.89 -294.66)"/>
    <path class="cls-2" d="M1308.52,998.19a52.94,52.94,0,0,0-32.37,26.79s8.93,8.93,26.23,7.82,22.6-11.12,21.21-17.26S1312.42,1000.42,1308.52,998.19Z" transform="translate(-994.89 -294.66)"/>
  </g>
  <g>
    <path class="cls-2" d="M1174.21,938.36s-9.37,21.94-13.42,33.91a86.75,86.75,0,0,0-4.54,20.72l-16.88,17-50.82,9,16.14-47.6-.77-6.88s7.41.05,26.06-40.72l33.79-6.88Z" transform="translate(-994.89 -294.66)"/>
    <path class="cls-3" d="M1157,989.14a38.88,38.88,0,0,1-9.91,7.4c-5.61,2.78-11.53,6.33-13.53,3.75s-10.69-26.19-29.59-35.76c0,0-6.48,4.15-12.55,5.11s-27.79,8.19-34.65,12.12-15.31,13.79-14,27.22,12.27,23.55,41.57,25.39,26.39-3.07,31.65-3.63,9.3.6,12.3,1.26,19.56,2,26.54-20.75C1154.82,1011.25,1159.31,996,1157,989.14Z" transform="translate(-994.89 -294.66)"/>
    <path class="cls-2" d="M1094.52,970.9a52.89,52.89,0,0,1,25.89,33.1s-10.63,6.81-27.3,2-19.7-15.69-17-21.39S1090.23,972.24,1094.52,970.9Z" transform="translate(-994.89 -294.66)"/>
  </g>
  <path class="cls-4" d="M1288.8,689.08s35.9,51,74.69,73.3c0,0,.47,1.86,17.21,1.86s30.89,0,31.63,4.84-7.07,6.69-21.58,7.81c0,0-2.6,1.3,1.12,2.23s38.14,5,38.32,11.9-19.72,4.85-30.88,2.8c0,0-7.26-1.48-2.23,2s25.48,16.09,29,22.41,0,7.26-8.19,5-25.3-10.61-27.9-11.91-6.52-3.72-5.77-.37,10.79,16.37,13.21,20.83,2,9.12-.93,9.12-10.79-3-21-15.07-10.23-12.84-12.27-10.42-1.12,9.49-2.42,13.4-5.77,8-10.42,2.42S1342,805.36,1339,799.59s-21-25.68-27.54-32.75-35.16-41.11-43.72-64.18S1277.08,679.77,1288.8,689.08Z" transform="translate(-994.89 -294.66)"/>
  <path class="cls-5" d="M1251.22,634.75s23.81-1.12,31.25,9.68,6.7,21.58,10,29,4.09,11.53,4.09,11.53.74,2.24-3.35,7.07-9.67,15.63-31.63,12.65-29-24.55-30.14-40.93S1235.83,633.5,1251.22,634.75Z" transform="translate(-994.89 -294.66)"/>
  <path class="cls-4" d="M1108.72,692.55s-23,57.94-55.58,88.68c0,0,0,1.92-16.31,5.81s-30,7.19-29.63,12.07,8.44,4.87,22.81,2.58c0,0,2.84.66-.57,2.43s-35.93,13.73-34.5,20.49,20.31.12,30.69-4.47c0,0,6.71-3.12,2.62,1.39s-21,21.58-23,28.55,1.68,7.06,9.13,3,22.13-16.2,24.36-18.07,5.47-5.14,5.53-1.71-6.69,18.44-8,23.34.13,9.34,3,8.65,9.8-5.41,16.94-19.55,7-14.86,9.51-13,3.3,9,5.47,12.47,7.47,6.43,10.7-.08,2.12-27.1,3.67-33.4,14.47-29.86,19.16-38.25,24.62-48.17,27.58-72.6S1118,680.78,1108.72,692.55Z" transform="translate(-994.89 -294.66)"/>
  <path class="cls-5" d="M1132.62,631s-23.42,4.46-28.14,16.69-1.49,22.54-3,30.56-1.29,12.17-1.29,12.17-.21,2.35,4.9,6.1,13,12.94,33.7,4.94,22.51-30.64,19.79-46.82S1147.3,626.18,1132.62,631Z" transform="translate(-994.89 -294.66)"/>
  <path class="cls-5" d="M1140.89,629.73s-6.23,1.21-7.35,4.28-5,30.32-5.3,39.44-3.91,63.25-2,92.28-2.23,53.95-3,63.25-6,43.17-5.21,57.31-6.33,52.83-6.33,52.83,16.75,6.7,39.81,5.21,25.31-7.07,49.87,1.86,79.25,12.28,97.11-7.81c0,0-5.21-26-6.7-39.44s-7.07-80-13-98.61-14.88-65.86-14.51-95.25-3-65.87-5.58-68.1-7.44-2.23-7.44-2.23l-13.21-6-66.47,5.58Z" transform="translate(-994.89 -294.66)"/>
  <polygon class="cls-6" points="154.18 331.53 146 335.07 150.09 378.79 247.21 378.79 254.21 337.12 243.11 334.14 212.6 340.65 154.18 331.53"/>
  <polygon class="cls-7" points="163.67 328.37 154.18 331.53 158.93 367.44 238.28 367.44 243.11 334.14 231.04 330.52 184.32 331.91 163.67 328.37"/>
  <path class="cls-8" d="M1178.84,620.8s-9.86.18-11.9,0-8.38,2.23-8.38,2.23l3.35,30.14H1225l2.61-27.54-17.49-4.84Z" transform="translate(-994.89 -294.66)"/>
  <path class="cls-4" d="M1175.31,614.84s2.6,6.14-7.44,8.38l3.87,21.21s37.62-1.12,43.75-1.68c0,0,3.35-11.16,3.17-16.93,0,0-7.63-.19-6.51-12.09l-30.7-3Z" transform="translate(-994.89 -294.66)"/>
  <g>
    <path d="M1189.67,294.66s-25.71,6.7-44.13,17.3-30.14,22.88-32.37,30.14c0,0-61.4,15.63-73.68,19.54,0,0-19.25,34.88-7.11,71.16,0,0-20.79,34.88-20.23,56.93,0,0,12.55,17.86,17,22.88s33.49,37.12,46.88,34l15.63,22s-7.25,54.14-19,69.21c0,0,43.54-39.62,53.31-39.07a31.57,31.57,0,0,1-2.24,10.89c-2.23,5.3-4.74,32.09-4.74,32.09s23.72-27.07,32.93-31.53l69.49-.56s22,18.42,27.63,32.09c0,0,.55-38-2.52-44.37l8.93-4.75s19.82,31.82,52.19,36.28c0,0-22.33-9.76-26.23-55l8.65-10.33s59.72-30.14,73.39-75.07c0,0-10.32-22.6-15.34-32.09s-14.24-28.75-19.26-31.54c0,0,14.51-39.9-1.12-66.69,0,0-35.44-22.33-75.62-17.59C1252.15,340.7,1235.19,307.77,1189.67,294.66Z" transform="translate(-994.89 -294.66)"/>
    <path class="cls-9" d="M1196.8,566.1a36.22,36.22,0,0,0-21.48,8.74c-10.24,8.75-4.17,16.84-1.53,18.61s7.94.84,18.54-3.44,16.08-2.37,18-1.71,6.53,1.36,7.18-7.39S1211.49,565.36,1196.8,566.1Z" transform="translate(-994.89 -294.66)"/>
    <path class="cls-10" d="M1066.84,526.56s2.79,48.28,67.26,79,110.23,1.4,136.19-17.3,38.51-57.49,38.51-57.49,24.55,7.81,35.72-28.19-19-39.34-29-34.6c0,0-2.51-20.65-4.46-26.23,0,0,12.84-12,15.35-14,0,0-12.84,1.12-19,5.31l-22.6-30.14s-36.84-18.14-38.51-19.26-7.54-.28-3.91-13.11,5-20.1,5-20.1l-14.23,27.07s-1.4,4.19-6.7,1.68-41.3-12.56-41.3-12.56a13.37,13.37,0,0,0-8.09.56c-4.75,1.67-33.49,7.53-43,13.39,0,0-19-19.25-21.21-24.56,0,0,8.65,21.77,9.49,25.68,0,0-4.19,3.07-6.14,4.46s-20.65,11.44-22.61,13.68-4.18,7.53-6.69,12.83-8.65,21.21-8.65,21.21-22-5.86-35.45,0c0,0,17.59-1.39,27.07,6.7a28.79,28.79,0,0,1-2.23,8.09,16.73,16.73,0,0,0-1.67,6.7v7.54s-9.77-7.26-20.65-4.19-13.68,15.91-12.84,30.7,17.86,29.58,22.88,32.65A42.78,42.78,0,0,0,1066.84,526.56Z" transform="translate(-994.89 -294.66)"/>
    <path class="cls-11" d="M1063.31,470.47A11.8,11.8,0,0,0,1051,462.1c-10,.37-20.24,11.71-11.16,33.3s23.25,29.58,28.83,25.3.38-9.67-2.41-10c0,0,.18,6.7-3.54,5.77S1049,508.78,1043.59,492s2-24.45,7.44-25S1060.52,467.12,1063.31,470.47Z" transform="translate(-994.89 -294.66)"/>
    <path class="cls-11" d="M1315.91,478.53a11.34,11.34,0,0,1,11.8-8.06c9.65.35,19.45,11.28,10.73,32.06s-22.35,28.49-27.71,24.37-.36-9.32,2.32-9.68c0,0-.18,6.45,3.4,5.56s13.23-7.36,18.41-23.57-2-23.55-7.15-24.09S1318.59,475.3,1315.91,478.53Z" transform="translate(-994.89 -294.66)"/>
    <path class="cls-12" d="M1190.94,533s-4.28.19-12.84,0-6.88,5.11-5.21,7,9.12,10.29,21.21,8.8a26.36,26.36,0,0,0,19.53-12.65c1.68-2.79-2-5.26-8.79-4.14A88.49,88.49,0,0,1,1190.94,533Z" transform="translate(-994.89 -294.66)"/>
    <path class="cls-3" d="M1100.61,459.59s14.23,3.63,29.86-5.58,17-14.79,18.42-15.35,5-2.79,2.79,4.74-10.32,15.33-19.25,18.69-18.7,5.87-31.82,3.36c0,0-5.44-1.21-5.37-3.36S1098,459.15,1100.61,459.59Z" transform="translate(-994.89 -294.66)"/>
    <path class="cls-3" d="M1272.86,456.89s-13.87,4.82-30.22-3-18.22-13.29-19.66-13.73-5.24-2.36-2.38,5,11.59,14.4,20.77,17,19.13,4.26,32,.65c0,0,5.32-1.67,5.07-3.8S1275.41,456.23,1272.86,456.89Z" transform="translate(-994.89 -294.66)"/>
    <path class="cls-13" d="M1129.91,474.38s14-1.12,26,3.35,20.93,11.72,19.25,30.42-16.46,26.23-39.35,26.51-34.6-14.64-35.16-30.2S1113.17,475.77,1129.91,474.38Z" transform="translate(-994.89 -294.66)"/>
    <path class="cls-13" d="M1227.6,472.43s24.27-9.21,40.73,3.9,11.72,33.77,7.26,40.75-17.3,16.19-38.79,14.65S1203.87,518.6,1203,506,1205.88,480.91,1227.6,472.43Z" transform="translate(-994.89 -294.66)"/>
    <g>
      <circle class="cls-12" cx="143.98" cy="212.93" r="20.67"/>
      <circle class="cls-14" cx="143.98" cy="212.93" r="14.23"/>
      <circle class="cls-13" cx="132.9" cy="207.22" r="7.23"/>
    </g>
    <g>
      <circle class="cls-12" cx="246.94" cy="209.8" r="20.67"/>
      <circle class="cls-14" cx="246.94" cy="209.8" r="14.23"/>
      <circle class="cls-13" cx="258.02" cy="204.09" r="7.23"/>
    </g>
    <g>
      <path class="cls-1" d="M1178.29,575.22a37.39,37.39,0,0,1,19.34-7.63c10.75-.8,17.56,8.56,16.41,13.21s-3.75,4.46-8.59,3.53-11.72,1.12-13.58,2-15.24,6.58-17.68-1.12C1172.19,578.94,1178.29,575.22,1178.29,575.22Z" transform="translate(-994.89 -294.66)"/>
      <g class="cls-15">
        <path class="cls-16" d="M1178.29,570.19c.27.19,22.88,8.65,34-.46l.37-7.26L1192,560.89l-12.56,2.51Z" transform="translate(-994.89 -294.66)"/>
      </g>
    </g>
  </g>
</svg>
