<svg id="Layer_8" data-name="Layer 8" xmlns="http://www.w3.org/2000/svg" viewBox="0 0 1920 1080">
  <defs>
    <style>
      .cls-1 {
        fill: #a56737;
      }

      .cls-2 {
        fill: #488dcb;
      }

      .cls-3 {
        fill: #a46636;
      }

      .cls-4 {
        fill: #9a5b2a;
      }

      .cls-5 {
        fill: #0c0807;
      }
    </style>
  </defs>
  <title>Akili-jumping-from-behind-2</title>
  <path class="cls-1" d="M1092,945.5c.8,8.45-9,14.28-20.58,17.24-6.06,1.56-13.93,1.36-16.67-5.36-2.88-7.07-1.89-15.61-2-23.08-.11-9.1-.43-18.2-.65-27.31,6.69-1.14,13.52-1.47,20.07-3.52,6-1.86,11.94-3.65,17.91-5.47-1.18,13.76-.06,26.68,1.9,47.5"/>
  <path class="cls-1" d="M995.89,945.5c-.79,8.45,9,14.28,20.59,17.24,6.06,1.56,13.92,1.36,16.67-5.36,2.88-7.07,1.89-15.61,2-23.08.1-9.1.42-18.2.65-27.31-6.69-1.14-13.53-1.47-20.07-3.52-6-1.86-11.94-3.65-17.92-5.47,1.18,13.76.07,26.68-1.9,47.5"/>
  <path class="cls-2" d="M975.07,911.9s18.22,3.78,36.68-.49,24-3.5,27.56-3.22,31.15,4.33,44.31,2.24,30.19-3,39-14a393.55,393.55,0,0,1-12.57-50.58c-4.94-27.89-15.12-61.63-22.25-79.16s-12.94-64.9-12.94-64.9.71-28.15-6.33-37.23c-7.62-9.82-43.43-10.71-51.51-11.55-21.33-2.23-41.62,11.21-47.07,13.78s-2.8,55.76-2.14,66.49,7,55,7.27,70.11-.78,46.92.68,62.39-.7,46.16-.7,46.16"/>
  <path class="cls-3" d="M861.16,527.76c5.65,7.44,9,15.61,14,25.51.27.54,1.17.48,1.23-.12.55-5.94-1.45-18.17,2.43-25.22a3,3,0,0,1,3-1.41c2.14.28,2.88,3.31,3.45,5.66l1.85,24.29c.32,1.81.06,2.92,1.12,2.92s.49-2,.77-2.7c1.64-4.35,2.06-4.86,3.21-9.36a18.09,18.09,0,0,1,2.5-3.76,2.87,2.87,0,0,1,4.46,1.77c1,3.76.57,7.73.15,11.6-.65,5.92-1.51,12-2.16,17.92-.34,3.11-1.07,5.54.53,8.6,2,3.84,4.62,9.17,6.93,12.83,11.76,18.65,21.26,31.89,37.07,47.89,3,3.08,7.42,6.58,6.56,10.82a9.07,9.07,0,0,1-2.25,4.13,12.15,12.15,0,0,1-8.58,4.42c-7.17.34-12.8-5.38-18.47-10.45a461.74,461.74,0,0,1-46.27-47.66c-2.61-3.13-4.59-7-8.34-8.55-7.57-3.2-16.2-6.36-22.77-11.89a4,4,0,0,1-.74-5.49c1.25-1.61,3.27-2.07,5.31-2a66.45,66.45,0,0,0,9.62-.56c2.2-1-.51-4.88-2.63-6.85a66.55,66.55,0,0,1-11.77-15c-1.61-2.7-3.85-6.06-1.39-8,1.35-1.08,3.88-.09,5.41.72a40.57,40.57,0,0,1,5.46,4.16,134.7,134.7,0,0,0,11.45,9.26c1.45-.08-1.71-8.16-4.62-18.7-.2-.72-4.8-15.89-1.43-17.25,1.49-.6,3.91,1.27,4.89,2.55"/>
  <path class="cls-2" d="M953.52,686.34a15.68,15.68,0,0,1-4.18-3.29c-2.51-2.68-1.67.27-4-3.08a40.82,40.82,0,0,0-11.6-10.92,6.56,6.56,0,0,1-2.42-2.22,6.47,6.47,0,0,1,0-3.27c1.33-5.76,4-9.39,8.12-13.23,2.44-2.25,5-4.07,7.61-6.18,1.25-1,2.39-1.86,4-1.62a15,15,0,0,1,3.66,1.68c4.61,2.9,8.76,4.18,13.9,6,5.65,2,9.69,4.42,12.84,8.87a26.63,26.63,0,0,1,4,10.22c.9,4.45.53,2.24-.63,6.63A16.56,16.56,0,0,1,977,686.5a26.55,26.55,0,0,1-7.34,2.17,18.73,18.73,0,0,1-16.1-2.33"/>
  <path class="cls-3" d="M1166,516.68c-4.94,7.93-7.54,16.37-11.57,26.69-.22.56-1.12.59-1.24,0-1.1-5.87-.23-18.24-4.75-24.89a3,3,0,0,0-3.15-1.13c-2.1.47-2.56,3.56-2.91,6l.41,24.35c-.16,1.84.2,2.92-.85,3s-.67-1.91-1-2.63c-2-4.17-2.5-4.64-4-9a17.87,17.87,0,0,0-2.85-3.52,2.86,2.86,0,0,0-4.27,2.18c-.64,3.83.14,7.75.92,11.56,1.19,5.84,2.61,11.8,3.81,17.64.62,3.07,1.58,5.42.27,8.61-1.64,4-3.75,9.56-5.71,13.42-10,19.66-18.22,33.73-32.48,51.12-2.75,3.34-6.78,7.23-5.53,11.37a8.94,8.94,0,0,0,2.62,3.91,12.13,12.13,0,0,0,8.95,3.6c7.17-.31,12.24-6.53,17.42-12.1a459.23,459.23,0,0,0,41.66-51.75c2.32-3.35,3.93-7.35,7.52-9.28,7.24-3.89,15.54-7.83,21.57-13.95a4,4,0,0,0,.23-5.53c-1.39-1.48-3.45-1.76-5.48-1.54a66.55,66.55,0,0,1-9.63.33c-2.29-.81.06-4.9,2-7.06a66.8,66.8,0,0,0,10.32-16c1.36-2.84,3.28-6.39.65-8.12-1.45-.94-3.88.27-5.32,1.22a40.27,40.27,0,0,0-5,4.64A137,137,0,0,1,1168,550c-1.46.05.94-8.29,2.87-19,.13-.74,3.3-16.27-.18-17.31-1.54-.46-3.78,1.63-4.63,3"/>
  <path class="cls-2" d="M1088.69,690a15.48,15.48,0,0,0,3.86-3.67c2.25-2.89,1.71-6.79,3.67-10.33a40.7,40.7,0,0,1,10.54-11.95,6.75,6.75,0,0,0,2.21-2.43,6.55,6.55,0,0,0-.33-3.26c-1.85-5.61-4.8-9-9.31-12.42-2.64-2-5.39-3.59-8.14-5.45-1.35-.91-2.56-1.63-4.13-1.25a15.46,15.46,0,0,0-3.49,2c-4.32,3.31-8.33,5-13.28,7.24-5.45,2.51-9.25,5.31-12,10a26.73,26.73,0,0,0-3.06,10.56,29.8,29.8,0,0,0,1.23,13.44,16.54,16.54,0,0,0,8.88,9.81,26.49,26.49,0,0,0,7.51,1.48,25.09,25.09,0,0,0,8.43-.12,24.81,24.81,0,0,0,7.38-3.69"/>
  <path class="cls-3" d="M1001.61,667.48c-.52-.23-1-.48-1.53-.76-2.42-1.35-8.05-6.54-5.56-9.25.69-.75,2.42-1.13,3.28-1.83a8.62,8.62,0,0,0,3-4.47c1.33-5,3.12-11.35,15.53-12.47,12-1.08,9.68,4.58,10.52,6.74a53.6,53.6,0,0,1,1.64,5.47s.45,3.39,4.62,4c3.19.44-.33,6.3-1.13,7.38a17.3,17.3,0,0,1-7.25,5.48c-4.42,1.83-9.35,2.06-14.13,1.7a27.9,27.9,0,0,1-9-2"/>
  <path class="cls-4" d="M1139,550.54a13.46,13.46,0,0,0-4.41-7.21c-2.15-1.83-6.41-2.82-9.23-3.05-3.22-.28-5.13-.4-8,1-.2.1-.39.22-.59.33l-3-20.19s.24-2.95,2-4.38,9-7.82,9-7.82-9.7,1.07-13,3.47c-1.26.16-1.67,1.19-2.93-.63s-16.56-22.19-16.56-22.19-27.12-13.23-30.77-15.74-4.54-3.25-3.67-7.81,3.62-15.54,4.28-17.53c0,0-9.91,18.36-10.91,20.88s-3.84,1-4.53.73-33.42-10-33.42-10-1.1-.57-4.26,0-29.82,7-34.46,9.72c-1.67.53-2.43.1-2.93-.63s-12.39-11.93-14.93-16.91c0,0,6.22,15.46,6.41,18.32.91,2.74-1.13,2.2-1.75,2.75s-21.19,12.71-21.19,12.71l-12.43,27.43S907.12,509,900,512.67c0,0,11.83-.76,22.34,5.51,0,0-5,12.34-4.09,17.74-.05.38-.09.74-.13,1.11a6.47,6.47,0,0,0-2-1.6c-2.89-1.46-7.43-2.91-10.66-2.72-2.82.18-6.86.51-9,2.29-2.34,1.89-2.86,6.07-3.7,9-1.15,4-.86,8.12-.71,12.27.13,3.89,2.09,8.17,3.6,11.76,2,4.84,5.88,7.36,9.68,11s4.76,5,9.24,6c1.29.29,3,1,4.26,1.12A102.28,102.28,0,0,0,924.05,605c11.22,23.26,41.07,43,59,50.08,27.28,9.2,40.56,8.07,67.72-.29,8.53-7.49,40-13.35,59.27-62.75l.08-.59a3.88,3.88,0,0,0,.6.47c1,.6,3.74.58,5.58.21,4.5-.9,7.56-1.79,11.45-5.32a35.69,35.69,0,0,0,8.81-12.23c1.59-3.55,3.33-7.63,3.55-11.52a40.81,40.81,0,0,0-1.1-12.56"/>
  <path d="M1025.9,641.18s28.18,20.28,37.25,38.58c0,0-2.14-35.84-.88-46.08,0,0,20.61,32.4,47.13,35.72a52.33,52.33,0,0,1-19.57-49.09s45.38-20.25,64.58-62.78c0,0-19.9-43.26-26.52-50.65,0,0,11.18-35.35-1.6-52.33,0,0-37.44-20-59.75-14.86,0,0-16.8-26.92-49.33-36.2,0,0-49.68,11-61.52,36.94,0,0-51.05,12.44-58.59,15.43,0,0-15.32,33.72-5.06,56.06,0,0-18.76,30.37-16.64,45.13,0,0,23.65,36.79,50.48,47.39s-2.66,70.14-2.66,70.14,27.09-26.28,43.69-32.05c0,0-5.7,18.43-7.61,36.36,0,0,31.61-44.78,66.6-37.71"/>
  <ellipse class="cls-5" cx="1015" cy="975.33" rx="27.33" ry="39.67"/>
  <ellipse class="cls-5" cx="1075" cy="975.33" rx="27.33" ry="39.67"/>
</svg>
