<svg id="Layer_1" data-name="Layer 1" xmlns="http://www.w3.org/2000/svg" viewBox="0 0 559.65 639.77"><defs><style>.cls-1{fill:#0c0807;}.cls-2{fill:#a56737;}.cls-3{fill:#a46636;}.cls-4{fill:#488dcb;}.cls-5{fill:#d42027;}.cls-6{fill:#21b14b;}.cls-7{fill:#fde500;}.cls-8{fill:#9a5b2a;}.cls-9{fill:#6c401d;}.cls-10{fill:#faf8f7;}.cls-11{fill:#522f27;}.cls-12{fill:#060504;}.cls-13{fill:#600b0c;}.cls-14{fill:#f2ecec;}.cls-15{fill:#fff;}.cls-16{fill:#734725;}</style></defs><title>Akili-waving-1</title><g id="character"><path class="cls-1" d="M335.86,600c3.2,2.46,3.27,2.39,5.91-.79,7.24-8.71,16.55-14.45,26.89-18.71a55.72,55.72,0,0,0,9.93,7.26,129,129,0,0,1,12.55,7.83c5.21,3.62,10.36,7.37,14.08,12.67,5.67,8.06,5.16,24.07-8.77,29.5-5.79,2.26-11.84,2.17-17.87,1.85-11.44-.61-22.37-3.18-31.84-9.94a18.71,18.71,0,0,0-9.27-3.56c-8.39-1-15-4.75-17.61-13.37-2.55-8.36-1.16-16.5,1.92-24.46.27-.7.58-1.59,1.7-1.08C326.11,592.91,331.11,596.34,335.86,600Zm43.76,11.64c6-3.77,7.26-8.79,3.68-14.94a39.15,39.15,0,0,0-7-8.24c-1.24-1.19-2.49-.93-3.91-.54-7.91,2.22-13.72,7.44-19,13.37-1.74,2-5,4-4.35,6.34.56,2,4.32,2.46,6.7,3.54,3.84,1.75,7.69,3.55,12.85,3.52,3.32-.34,7.41-.79,11-3.06Z"/><path class="cls-1" d="M231.48,584.7c7.17,4.4,13.68,9.49,18.48,16.5,1.12,1.63,2.16,1.67,3.72.68,5.38-3.41,10.22-7.38,13.85-12.7,4.14,9.89,2.22,19.73-1.47,29-3.1,7.76-10.41,10.1-18.43,9.91a6.8,6.8,0,0,0-4,.83,66.91,66.91,0,0,1-40.33,10c-6.24-.4-12-2-16.63-6.71-5.93-6-7.63-21.8,2.16-29.65,2.35-1.89,4.69-3.8,7-5.67,8.2-6.51,18.6-9.57,26.4-16.71.13-.12.39-.09.58-.14C225.44,582.08,228.67,583,231.48,584.7Zm9.36,23.86c.94-.37,1.21-1,.53-1.85-6.28-8.19-12.74-16.11-23.19-19.33a3.5,3.5,0,0,0-4.05.88c-2.5,2.6-5.18,5-7,8.18-4.17,7.11-.81,12.83,5.56,15.66A21.89,21.89,0,0,0,223,614.2C229.42,614.08,235,610.9,240.84,608.56Z"/><path class="cls-2" d="M323.48,587.19c2.63,5.72,7.63,9.15,12.38,12.8,3.2,2.46,3.27,2.39,5.91-.79,7.24-8.71,16.55-14.45,26.89-18.71-3.92-5.16-4.8-11.42-6.2-17.47-1.83-7.94-3.48-15.91-5.2-23.87-6.06.42-12.07,1.58-18.19,1.18-5.57-.35-11.15-.65-16.73-1,.86,11.13,2.1,22.23,2.15,33.41A78.57,78.57,0,0,1,323.48,587.19Z"/><path class="cls-2" d="M222.85,580c2.59,2.1,5.82,3,8.63,4.72,7.17,4.4,13.68,9.49,18.48,16.5,1.12,1.63,2.16,1.67,3.72.68,5.38-3.41,10.22-7.38,13.85-12.7-1.67-8.91.71-17.55,1.77-26.28.62-5.07,1.2-10.15,1.79-15.23-12.24,1.14-24.41,1.11-36.41-2-2.52,8.89-4.34,18-7.83,26.6C225.75,575,224.15,577.39,222.85,580Z"/><path class="cls-2" d="M368.58,614.68c3.33-.33,7.42-.78,11-3,6-3.77,7.26-8.79,3.68-14.94a39.15,39.15,0,0,0-7-8.24c-1.24-1.19-2.49-.93-3.91-.54-7.91,2.22-13.72,7.44-19,13.37-1.74,2-5,4-4.35,6.34.56,2,4.32,2.46,6.7,3.54C359.57,612.91,363.42,614.71,368.58,614.68Z"/><path class="cls-2" d="M222.9,614.2c6.52-.12,12.1-3.3,17.94-5.64.94-.37,1.21-1,.53-1.85-6.28-8.19-12.74-16.11-23.19-19.33a3.5,3.5,0,0,0-4.05.88c-2.5,2.6-5.18,5-7,8.18-4.17,7.11-.81,12.83,5.56,15.66A21.94,21.94,0,0,0,222.9,614.2Z"/><path class="cls-3" d="M59.24,293.32c9.3.77,17.61,3.71,28.28,6.63.58.16,1.15-.55.74-1-4-4.38-14.47-11.06-17.11-18.64a3,3,0,0,1,1-3.2c1.63-1.4,4.38.07,6.51,1.21l19.28,14.85c1.56,1,2.21,1.9,2.92,1.12s-1.13-1.68-1.5-2.39a63.19,63.19,0,0,0-4.81-8.62,17.77,17.77,0,0,1-1.12-4.37,2.86,2.86,0,0,1,3.18-2.5,2.75,2.75,0,0,1,1.11.37c3.45,1.77,6.13,4.73,8.72,7.62,4,4.44,7.9,9.13,11.87,13.57,2.09,2.33,3.4,4.5,6.74,5.35,4.19,1.08,9.9,2.69,14.16,3.42,21.71,3.71,37.89,5.49,60.33,4.42,4.31-.2,9.84-1.12,12.41,2.35a8.94,8.94,0,0,1,1.57,4.43,12.19,12.19,0,0,1-2.44,9.32c-4.53,5.56-12.54,5.92-20.09,6.75a458.85,458.85,0,0,1-66.3,2.56c-4.07-.14-8.24-1.23-11.92.5-7.44,3.48-15.54,7.78-24,9A4,4,0,0,1,84.2,343c-.36-2,.65-3.81,2-5.31a66.82,66.82,0,0,0,6-7.52c.71-2.32-4-2.87-6.85-2.61a66.62,66.62,0,0,1-19-1.29c-3.09-.61-7.07-1.18-6.89-4.32.1-1.72,2.52-2.94,4.14-3.53a40.7,40.7,0,0,1,6.74-1.29,134.17,134.17,0,0,0,14.52-2.32c.91-1.13-7.2-4.18-17-9.05-.66-.33-15-7-13.76-10.45C54.63,293.74,57.63,293.19,59.24,293.32Z"/><path class="cls-4" d="M238.7,330.54a15.32,15.32,0,0,1-5.23.92c-3.66.07-.91,1.41-4.92.88a40.59,40.59,0,0,0-15.85,1.32,6.62,6.62,0,0,1-3.27.32,6.37,6.37,0,0,1-2.41-2.2c-3.4-4.83-4.34-9.2-4.42-14.86,0-3.32.34-6.47.49-9.78.08-1.61.22-3,1.46-4a15.15,15.15,0,0,1,3.7-1.59c5.23-1.5,8.94-3.72,13.72-6.33,5.25-2.88,9.76-4.25,15.16-3.63a26.55,26.55,0,0,1,10.28,3.84c3.91,2.3,2,1.1,4.5,4.9a16.56,16.56,0,0,1,2.57,13,26.69,26.69,0,0,1-3.29,6.9,25.33,25.33,0,0,1-5.13,6.69A24.4,24.4,0,0,1,238.7,330.54Z"/><path class="cls-3" d="M513.21,237.54c-8.67,3.48-15.74,8.74-25.08,14.68-.51.32-1.26-.19-1-.73,2.58-5.38,10.58-14.83,10.86-22.86a3,3,0,0,0-1.87-2.77c-2-.86-4.16,1.36-5.86,3.08l-14.05,19.87c-1.21,1.38-1.55,2.47-2.46,1.93s.58-1.94.73-2.72a62.28,62.28,0,0,1,2-9.66,17.48,17.48,0,0,0-.22-4.51,2.86,2.86,0,0,0-4.72-.77c-2.78,2.71-4.46,6.33-6.08,9.86-2.49,5.41-4.87,11.05-7.35,16.46-1.31,2.84-1.93,5.3-4.87,7.1-3.68,2.26-8.66,5.49-12.52,7.44-19.65,9.94-34.58,16.42-56.34,22-4.18,1.08-9.73,1.83-11.17,5.9a8.93,8.93,0,0,0-.19,4.7,12.14,12.14,0,0,0,5.08,8.19c6,4,13.72,2,21.18.53a461,461,0,0,0,64.11-17.1c3.85-1.34,7.51-3.61,11.54-3,8.13,1.14,17.14,2.85,25.62,1.49A4,4,0,0,0,504,292.3c-.24-2-1.73-3.45-3.5-4.48a66.49,66.49,0,0,1-8-5.42c-1.36-2,2.94-3.91,5.77-4.51a66.38,66.38,0,0,0,17.79-6.83c2.77-1.49,6.41-3.21,5.31-6.16-.6-1.61-3.28-2.07-5-2.16a39.88,39.88,0,0,0-6.81.76A137.69,137.69,0,0,1,495,265.57c-1.2-.82,5.66-6.12,13.56-13.66.54-.51,12.27-11.15,10.08-14C517.73,236.58,514.7,236.94,513.21,237.54Z"/><path class="cls-4" d="M348.59,331.57a15.41,15.41,0,0,0,5.27-.67c3.52-1,5.38-4.47,9.06-6.16a40.82,40.82,0,0,1,15.54-3.41,6.71,6.71,0,0,0,3.21-.65,6.38,6.38,0,0,0,1.66-2.82c1.82-5.61,1.43-10.08-.16-15.5-.94-3.19-2.23-6.08-3.35-9.2-.55-1.52-1.1-2.83-2.59-3.44a14.57,14.57,0,0,0-4-.44c-5.44.12-9.65-.91-15-2-5.87-1.2-10.58-1.19-15.56,1A26.46,26.46,0,0,0,334,295a29.78,29.78,0,0,0-6.95,11.56,16.57,16.57,0,0,0,1.36,13.15,26.84,26.84,0,0,0,5.18,5.62,18.6,18.6,0,0,0,15,6.24Z"/><path d="M300.68,269s33.62,8.5,48.76,22.17c0,0-15.14-32.51-17.73-42.49,0,0,31,22.54,56.89,15.89a52.28,52.28,0,0,1-36.2-38.42s34.73-35.47,36.94-82c0,0-34.35-32.88-43.22-37.31,0,0-2.59-36.94-20.69-48,0,0-42.12-4.8-61,8.13,0,0-25.49-18.84-59.11-15.52,0,0-42.11,28.45-43.59,56.9,0,0-42.85,30.29-48.77,35.83,0,0-1.84,36.95,15.89,53.94,0,0-6.28,35.1,1.11,48,0,0,35.46,25.49,64.28,25.49s23.27,66.13,23.27,66.13,15.52-34.36,28.82-45.81c0,0,1.48,19.21,6.28,36.57C252.65,328.47,265.58,275.27,300.68,269Z"/><path class="cls-4" d="M370.32,536.09s-17.55,6.1-36.39,4.25-24.2-.37-27.71.37-30.29,8.31-43.59,8-30.3.92-40.46-8.87a392.37,392.37,0,0,0,5.91-51.72c1.3-28.26,7-63,11.83-81.28s4.43-65.94,4.43-65.94-5.43-34.07.37-44c6.28-10.71,29.18-12,50.61-11.82s42.67,5.73,48.4,7.58,10,54.86,10.71,65.57.19,55.42,1.85,70.38,6.83,46.36,7.39,61.88S370.32,536.09,370.32,536.09Z"/><polygon class="cls-5" points="254.96 294.67 266.32 292.02 333.31 289.93 339.84 290.54 337.87 325.39 261.4 327.36 254.96 294.67"/><path class="cls-6" d="M263.24,292.51l8.9-2.74L325.8,288c1.2.06,3.57,1.23,3.69,1.1l3.7.62-2.46,27.46-62.93,1.11Z"/><polygon class="cls-7" points="271.59 289.77 283.5 286.26 319.15 285.74 325.8 287.71 323.46 309.88 274.32 310.62 271.59 289.77"/><path class="cls-3" d="M316.32,303.72l2.46-17s-5.66-.73-7.63-5.54-4.56-10.83-17-10.34c-12,.47-9,5.78-9.54,8a53.47,53.47,0,0,0-.93,5.64s0,3.42-4.06,4.52c-3,.83,2,13.83,2,13.83Z"/><path class="cls-8" d="M349.44,144.86l-11.2-19.33s-.86-2.84.24-4.81S344,110.13,344,110.13s-8.62,4.56-10.84,8c-1.11.61-1.11,1.72-3,.49s-23.45-14.52-23.45-14.52-30-2.34-34.36-3.33-5.41-1.35-6.28-5.91S263.73,79.1,263.61,77c0,0-2.46,20.69-2.46,23.4s-3.2,2.34-3.94,2.34-34.73,3-34.73,3-1.23-.12-3.94,1.6S193.42,124.79,190.09,129c-1.35,1.1-2.21,1-3,.49S171.2,123,167,119.27c0,0,11.45,12.06,12.68,14.65,1.85,2.22-.25,2.46-.62,3.2s-15,19.58-15,19.58l-1.48,30s-20.81,3.08-26.1,9.11c0,0,10.71-5.05,22.78-3.08,0,0-.13,13.3,2.71,18,8.62,33.5,20.93,51.48,30.78,62.07,19,17.49,53.94,24.87,73.15,24.87,28.72-1.46,40.64-7.38,62.81-25.12,5.17-10.1,32.26-27.09,32-80Z"/><path class="cls-8" d="M366.62,190.3c-1.57,1-4.11,2-5.26,1.85-1.69-.29-3.18-2-4.45-3.11-5.79-5.22-7.54-13.45-9-21.1l-1.31-7a40.33,40.33,0,0,1-1-9.42,14.32,14.32,0,0,1,3.31-8.91c2.2-2.36,4-3,7.11-3.87,2.71-.82,7-1.47,9.7-.56a13.53,13.53,0,0,1,6.74,5.08,41.06,41.06,0,0,1,5.64,11.27c1.22,3.69,1.09,8.12.92,12a35.59,35.59,0,0,1-3.7,14.59C373,185.87,370.47,187.81,366.62,190.3Z"/><path class="cls-9" d="M358.61,145.68a9.5,9.5,0,0,0-3.44,1.71,25.24,25.24,0,0,0-3.82,4.43c-.61-1.29,0-2.68.66-4.76a7.86,7.86,0,0,1,1.5-2.75,9,9,0,0,1,3.94-2.53c4.66-1.6,9.64.22,13,3.85s3.61,9.21,3.84,14.13c.55,11.76-2.47,19.58-6.71,24.51-.19.21-3.7,5.23-6.42,4.38a4.27,4.27,0,0,1-1-.56,6,6,0,0,1-2.34-3.88,3.72,3.72,0,0,1,2.4-4c0,1.72.67,3.35,2.34,3.76a2.89,2.89,0,0,0,1.48-.25,17.23,17.23,0,0,0,2.4-2.58c2-2.19,2.44-3.79,3.14-6.65a37,37,0,0,0,1-5.91c.31-4.07.74-9.36-.11-13.88s-4.81-9.26-9.52-9.36A6.64,6.64,0,0,0,358.61,145.68Z"/><path class="cls-8" d="M176.55,257.72c1.85-.29,4.77-.18,5.49-1.1,1.07-1.34,1.07-3.58,1.25-5.28.83-7.75-3.34-15.05-7.37-21.72l-3.66-6.08a40.94,40.94,0,0,0-5.51-7.7c-2.22-2.26-3.77-4.47-6.92-4.76s-8,0-10.9,1.39c-2.56,1.2-6.18,3-7.57,5.45-1.48,2.61-.43,6.68-.15,9.67.4,4.13,2.19,7.86,3.84,11.66,1.56,3.57,5,6.82,7.67,9.61,3.66,3.75,8.16,4.68,13,6.65S172,258.43,176.55,257.72Z"/><path class="cls-9" d="M152.84,218.12a9.19,9.19,0,0,1,3.7-1,25.21,25.21,0,0,1,5.8.76c-.4-1.38-1.79-2-3.66-3.11a8,8,0,0,0-3-1.06,9.06,9.06,0,0,0-4.62.75c-4.55,1.91-7,6.59-7.11,11.52s4.41,11.59,7.52,15.42c7.42,9.13,15,12.21,21.4,13,.28,0,6.24,1.44,7.7-1a4.07,4.07,0,0,0,.35-1.07,6,6,0,0,0-.84-4.45,3.72,3.72,0,0,0-4.46-1.38c1.15,1.27,1.73,2.95.76,4.36a2.9,2.9,0,0,1-1.26.8,17.35,17.35,0,0,1-3.52-.33,17.85,17.85,0,0,1-8-3.38,37.41,37.41,0,0,1-4.67-3.75c-2.94-2.83-6.79-6.49-9.17-10.43s-2.33-11.18,1.12-14.39A6.18,6.18,0,0,1,152.84,218.12Z"/><path class="cls-10" d="M276,203.43c-4-7.68-3.51-15.48,1.27-22.63a41.65,41.65,0,0,1,25.44-17.64c10.46-2.56,23.16,3.17,27.59,12.83,3.53,7.7,3.64,19.11-5.54,27.41A46.23,46.23,0,0,1,298.07,215C287,215.19,280.16,211.36,276,203.43Z"/><path class="cls-10" d="M199.69,231.45c-3.22-7.8-1.06-17.89,5.79-24.1A40.3,40.3,0,0,1,238.4,196.9c8,.95,13.69,5.77,16.39,13.47,2.85,8.14,3.15,16.22-3.54,22.8a46.61,46.61,0,0,1-27.76,13.22C211.13,246.45,203.77,241.35,199.69,231.45Z"/><path class="cls-11" d="M295.77,186.1a16.62,16.62,0,1,1,16.72,16.52h-.16A16.64,16.64,0,0,1,295.77,186.1Zm25.47-11.4c-2.39-1.53-4.72-1-7.32,1.72-3-1.08-8.14.89-10.16,3.86a11.67,11.67,0,0,0,.72,14.21c3.53,3.94,8.79,4.74,13.72,2.07,4.31-2.33,6.41-7.8,5-13-.13-.48-.25-1-.37-1.45C324.11,178.52,323.62,176.21,321.24,174.7Z"/><path class="cls-12" d="M313.92,176.42c-3-1.08-8.14.89-10.16,3.86a11.67,11.67,0,0,0,.72,14.21c3.53,3.94,8.79,4.74,13.72,2.07,4.31-2.33,6.41-7.8,5-13-.13-.48-.25-1-.37-1.45-2.11,1.8-4.39,2.95-7,1.19S312.91,179.16,313.92,176.42Z"/><path class="cls-10" d="M313.92,176.42c-1,2.74-.67,5.17,1.87,6.86s4.92.61,7-1.19c1.29-3.57.8-5.88-1.58-7.39S316.52,173.72,313.92,176.42Z"/><path class="cls-11" d="M222.68,226.81a16.59,16.59,0,1,1,22.53,6.53l-.08,0a16.51,16.51,0,0,1-22.42-6.52Zm13-19.06-1.46.37c-5.26,1.27-9,5.73-9,10.62,0,5.61,3.26,9.84,8.41,11a11.66,11.66,0,0,0,12.81-6.19c1.64-3.2.87-8.69-1.5-10.77,1.12-3.57.48-5.88-2-7.24s-4.78-.64-7.29,2.21Z"/><path class="cls-12" d="M244.89,212.82c2.37,2.08,3.14,7.57,1.5,10.77a11.66,11.66,0,0,1-12.81,6.19c-5.15-1.2-8.38-5.43-8.41-11,0-4.89,3.76-9.35,9-10.62l1.46-.37c-.57,2.71-.48,5.26,2.33,6.73S243,215,244.89,212.82Z"/><path class="cls-10" d="M244.89,212.82c-1.91,2.2-4.21,3.07-6.91,1.66s-2.9-4-2.33-6.73c2.51-2.85,4.77-3.53,7.23-2.17S246,209.25,244.89,212.82Z"/><path class="cls-13" d="M305.91,245.59s1-2.4-1-.3a53,53,0,0,1-30.24,14,28.32,28.32,0,0,1-5.29.19c-.49.06-.49.55.37.68s8.37.61,11,2.33,5.72.68,6.46.56,7.27-2.16,10.72-5.23C301,254.28,299.82,251.44,305.91,245.59Z"/><path class="cls-14" d="M305.79,243.75s.43,2.71-6.71,7.88a50.7,50.7,0,0,1-20.75,8.56,23.61,23.61,0,0,1-9.42-.8Z"/><path class="cls-15" d="M299.14,255.82s-6.9,3.87-8.38,4.49-8.12,2.65-9.85,4.49S298.4,263.7,299.14,255.82Z"/><path class="cls-16" d="M261.15,260.56c2.89.8,6.89.67,10.59,3.07,1.12.74,3,2.47,4.19,3,.95.43,2.41,1.77,3.44,1.91a26.68,26.68,0,0,0,10.45-.61c2.61-.66,5-2,7.44-3a16.83,16.83,0,0,0,7-5.31,5.93,5.93,0,0,0,.93-1.62,9.21,9.21,0,0,0,.31-3,23.68,23.68,0,0,1,4.62-14,.28.28,0,0,0-.08-.39.28.28,0,0,0-.29,0l-3.3,2.07a9.22,9.22,0,0,1-1.76.85,37.28,37.28,0,0,1-4.41,1.32,44.08,44.08,0,0,0-6.16,1.85c-2.76,1.05-8,3.38-10.65,4.62C275,255.16,268.35,258.89,261.15,260.56Zm8.19-1.11a28.32,28.32,0,0,0,5.29-.19,53,53,0,0,0,30.24-14c2-2.1,1,.3,1,.3-6.09,5.85-4.92,8.69-8,12.2-3.45,3.07-10,5.11-10.72,5.23s-3.81,1.17-6.46-.56-10.16-2.21-11-2.33S268.85,259.51,269.34,259.45Z"/><path class="cls-11" d="M273.2,239.25c9.5.69,16.69-7.55,18.65-14.92.82-3.09-.67-4.51-3.72-3.68a14.34,14.34,0,0,0-2.81,1.09,138.68,138.68,0,0,1-20.75,9c-1.42.49-3.07,1-3.28,2.74-.22,1.94,1.42,2.73,2.81,3.54A15.8,15.8,0,0,0,273.2,239.25Z"/><path class="cls-1" d="M297.9,143c-8.2.57-16.48,2.51-23.19,8.74a18.19,18.19,0,0,0-1.62,1.78,2.4,2.4,0,0,0-.54,2.79c.68,1.15,1.79.5,2.69.13q4.45-1.83,8.88-3.75c10.42-4.48,20.78-3.33,31.12.28a19.9,19.9,0,0,0,3.49.91c.82.13,1.92.52,2.42-.55s-.27-1.74-.8-2.45c-1.77-2.34-4.37-3.57-6.92-4.7A41.41,41.41,0,0,0,297.9,143Z"/><path class="cls-1" d="M189.48,205.4c0,2.24-.23,4.6,1.6,5,2,.44,2.32-2.1,3-3.55q2.23-5.46,5-10.67c4.24-7.51,10.72-12.42,18.36-16,1.91-.91,3.81-1.85,5.67-2.85.79-.42,1.71-1,1.49-2.05s-1.36-1.31-2.39-1.4a17.64,17.64,0,0,0-8.28,1.32c-12.83,5.22-21.09,14.43-24.16,28.07A13.81,13.81,0,0,0,189.48,205.4Z"/></g></svg>