<svg id="Layer_4" data-name="Layer 4" xmlns="http://www.w3.org/2000/svg" viewBox="0 0 595.28 1387.94"><defs><style>.cls-1{fill:#0c0807;}.cls-2{fill:#a56737;}.cls-3{fill:#a46636;}.cls-4{fill:#488dcb;}.cls-5{fill:#d42027;}.cls-6{fill:#21b14b;}.cls-7{fill:#fde500;}.cls-8{fill:#9a5b2a;}.cls-9{fill:#6c401d;}.cls-10{fill:#faf8f7;}.cls-11{fill:#522f27;}.cls-12{fill:#060504;}.cls-13{fill:#600b0c;}.cls-14{fill:#f2ecec;}.cls-15{fill:#fff;}.cls-16{fill:#734725;}</style></defs><title>Akili-landing_and_jumping-4</title><g id="character"><path class="cls-1" d="M298.2,1054.17c1.1-.94,1.74.08,2.22.85a42.5,42.5,0,0,1,8.13,27.52c-.9,10.52-7.53,16.46-16.88,19.58a22.11,22.11,0,0,0-9.76,6.32,68.54,68.54,0,0,1-34,19.09,48.74,48.74,0,0,1-20.93,2.21c-17.28-2.82-21.75-21-17.21-31.66a61.79,61.79,0,0,1,13.06-17.9,145.73,145.73,0,0,1,12.44-12,64.32,64.32,0,0,0,9.65-10.74,78.38,78.38,0,0,1,35.22,14.8c3.8,3,3.91,3,7.07-.41A41.82,41.82,0,0,0,298.2,1054.17Zm-45.09,42.51a33.56,33.56,0,0,0,13.88-7.12c2.48-1.82,6.64-3.28,6.79-5.75s-4.08-4.35-6.52-6.19a46.84,46.84,0,0,0-25-10.68,4.26,4.26,0,0,0-4.3,1.51,45.07,45.07,0,0,0-6,11.13,11.47,11.47,0,0,0,5.31,15.35,11.34,11.34,0,0,0,2.51.88A28.45,28.45,0,0,0,253.11,1096.68Z"/><path class="cls-2" d="M298.2,1054.17A41.84,41.84,0,0,1,287,1071.72c-3,3.58-3.16,3.51-7.07.41a78.19,78.19,0,0,0-35.21-14.8c3.23-6.86,2.72-14.24,2.85-21.54.15-9.5-3.2-45.47-3.16-55a158.73,158.73,0,0,0,21.15-3.07l18.92-5.19c1.72,13,6.3,52.37,9,65.22A93.49,93.49,0,0,0,298.2,1054.17Z"/><path class="cls-2" d="M253.11,1096.68a28.42,28.42,0,0,1-13.37-.78,11.49,11.49,0,0,1-8.71-13.72,11.17,11.17,0,0,1,.88-2.51,45.06,45.06,0,0,1,6.18-11.15,4.25,4.25,0,0,1,4.29-1.51,46.8,46.8,0,0,1,25,10.68c2.45,1.84,6.7,3.37,6.52,6.19s-4.45,3.77-6.79,5.75A33.66,33.66,0,0,1,253.11,1096.68Z"/><path class="cls-1" d="M426.13,1023.79s.52.05.66.22c8.56,9,20.45,13.38,29.52,21.64l7.78,7.21c10.82,10,7.55,28.21.12,34.8a28.13,28.13,0,0,1-20,6.51,78.42,78.42,0,0,1-46.31-14.89,7.74,7.74,0,0,0-4.54-1.23c-9.39-.43-17.67-3.83-20.76-13.08-3.54-11.1-5-22.78.78-33.83a54.38,54.38,0,0,0,15.17,15.94c1.66,1.4,2.95,1.33,4.4-.51a69.48,69.48,0,0,1,22.94-17.77A86.17,86.17,0,0,0,426.13,1023.79Zm-2.8,40.09a25.5,25.5,0,0,0,12.16-1.64c7.81-2.63,12-9.2,7.77-17.85a54.33,54.33,0,0,0-7.6-10.12,4.27,4.27,0,0,0-4.54-1.23c-12.47,2.93-20.66,11.67-28.68,20.66-.85,1-.61,1.71.46,2.23C409.43,1059,415.77,1063.05,423.33,1063.88Z"/><path class="cls-2" d="M426.13,1023.79a85.66,85.66,0,0,1-10.44,4.81,69.85,69.85,0,0,0-22.94,17.77c-1.51,1.79-2.66,1.82-4.39.51A54.22,54.22,0,0,1,373.19,1031c2.68-10.27.64-20.49.06-30.86-.5-6-5.39-41.68-5.67-47.67a122.8,122.8,0,0,0,42.71.57c2.2,10.57,8.4,51.09,11.78,61.44C423.32,1017.83,424.9,1020.57,426.13,1023.79Z"/><path class="cls-2" d="M423.33,1063.88c-7.49-.78-13.89-4.81-20.5-8-1.07-.52-1.39-1.18-.45-2.23,7.79-9.18,16.14-17.78,28.68-20.65a4.26,4.26,0,0,1,4.54,1.22,53.92,53.92,0,0,1,7.59,10.13c4.28,8.65-.12,15.08-7.77,17.85A25.59,25.59,0,0,1,423.33,1063.88Z"/><path class="cls-3" d="M546.27,639a186.15,186.15,0,0,0-27.84,19.61c-.55.45-1.46-.1-1.22-.75,2.46-6.54,11-18.2,10.38-27.76a3.53,3.53,0,0,0-2.41-3c-2.4-.83-4.78,1.92-6.58,4.16L504.18,655.8c-1.26,1.75-1.56,3.06-2.66,2.49s.49-2.3.58-3.21a72.88,72.88,0,0,1,1.43-11.5,21,21,0,0,0-.69-5.23,3.35,3.35,0,0,0-5.59-.45A37.85,37.85,0,0,0,491.11,650c-2.34,6.59-4.55,13.4-6.92,20-1.27,3.45-1.73,6.39-5,8.8-4.08,3-9.56,7.24-13.86,9.9A299.4,299.4,0,0,1,401.79,720c-4.79,1.65-11.19,3.08-12.47,8a10.59,10.59,0,0,0,.25,5.5,14.25,14.25,0,0,0,6.75,9c7.37,4,16.2.9,24.78-1.5a536.84,536.84,0,0,0,73.08-26.33c4.42-1.78,8.42-4.95,13.21-4.68a100.47,100.47,0,0,0,29.93-.77,4.69,4.69,0,0,0,3.6-5.4,7.37,7.37,0,0,0-4.53-4.87,79.29,79.29,0,0,1-9.85-5.53c-1.75-2.19,3.05-4.86,6.32-5.85a76.57,76.57,0,0,0,20.07-9.74c3.1-2,7.19-4.37,5.57-7.71-.75-1.85-4-2.1-6.09-2.13a47.74,47.74,0,0,0-7.86,1.56,169.42,169.42,0,0,1-16.79,3.88c-1.5-.87,6-7.76,14.45-17.3.57-.64,13.22-14.23,10.38-17.4C551.42,637.41,547.94,638.12,546.27,639Z"/><path class="cls-4" d="M367.73,758.18a17.61,17.61,0,0,0,6.08-1.3c3.95-1.59,1.61,1.14,5.72-1.2a47.2,47.2,0,0,1,17.82-5.53,7.87,7.87,0,0,0,3.69-1.08,8.09,8.09,0,0,0,1.64-3.46A28.22,28.22,0,0,0,401,727.54c-1.45-3.59-3.23-6.86-4.83-10.39a6,6,0,0,0-3.36-3.79,17.1,17.1,0,0,0-4.63-.1,74.33,74.33,0,0,1-17.69-.86,28,28,0,0,0-18.05,2.69,30.19,30.19,0,0,0-9.49,8.68c-3.22,4.19-1.69,2.06-2.76,7.27a19.52,19.52,0,0,0,2.91,15.2,31.71,31.71,0,0,0,6.62,6,28.48,28.48,0,0,0,8.49,5A29.13,29.13,0,0,0,367.73,758.18Z"/><path class="cls-3" d="M46.84,648.58a184.41,184.41,0,0,1,28,19.37c.61.19,1.48-.15,1.23-.77-2.38-6.49-11-18.28-10.69-27.69a3.52,3.52,0,0,1,2.42-3.06c2.4-.79,4.73,2,6.58,4.13l14.5,24.36c1.3,1.76,1.61,3,2.73,2.49s-.51-2.31-.61-3.24a76.3,76.3,0,0,0-1.58-11.46,19.71,19.71,0,0,1,.66-5.24,3.31,3.31,0,0,1,4.48-1.4,3.2,3.2,0,0,1,1.09.91,37.21,37.21,0,0,1,6.26,12c2.37,6.53,4.65,13.31,7,19.84,1.27,3.41,1.8,6.35,5.06,8.7,4.09,3,9.63,7.18,14,9.79a297.93,297.93,0,0,0,64.13,30.76c4.82,1.55,11.25,3,12.54,7.84a10.62,10.62,0,0,1-.2,5.62,14.15,14.15,0,0,1-6.66,9.12c-7.28,4-16.19,1-24.62-1.33a537.23,537.23,0,0,1-73.39-25.61c-4.35-1.89-8.44-4.87-13.19-4.57a102.05,102.05,0,0,1-30.07-.49,4.69,4.69,0,0,1-3.65-5.34,7.41,7.41,0,0,1,4.5-4.94,77.34,77.34,0,0,0,9.83-5.77c1.75-2.25-2.93-4.79-6.36-5.81a78.15,78.15,0,0,1-20.18-9.51c-3.38-1.85-7.38-4.17-6-7.57.86-1.83,4-2.1,6-2.08a50.15,50.15,0,0,1,7.87,1.51,164.17,164.17,0,0,0,16.71,3.65c1.49-.86-6.06-7.68-14.63-17.15-.24-.66-13-14-10.33-17.33C41.64,647.08,45,647.71,46.84,648.58Z"/><path class="cls-4" d="M230.88,772.82a17.9,17.9,0,0,1-6.14-1.22c-4.05-1.31-5.9-5.7-10-8a48.39,48.39,0,0,0-17.87-5.32,7.76,7.76,0,0,1-3.65-1.18,8,8,0,0,1-1.7-3.45,27.94,27.94,0,0,1,1.58-18c1.2-3.73,3.12-6.91,4.71-10.46a5.75,5.75,0,0,1,3.33-3.8,17.26,17.26,0,0,1,4.54-.2,74.49,74.49,0,0,0,17.64-1,28.59,28.59,0,0,1,18.1,2.53,31.6,31.6,0,0,1,9.57,8.59,35,35,0,0,1,7.23,14.32,19.21,19.21,0,0,1-2.76,15.21,31.56,31.56,0,0,1-6.45,6.14,29.16,29.16,0,0,1-8.45,5.1A28.61,28.61,0,0,1,230.88,772.82Z"/><path d="M281.65,691.87s-37.45,16-52.48,34.51c0,0,11.58-40.34,12.77-52.39,0,0-31.79,31.75-62.94,28.77a61.25,61.25,0,0,0,34.89-51.07S167.08,617,156.18,563.51c0,0,33.75-44.3,43.2-51.07,0,0-3.74-43.19,15.15-59.32,0,0,47.88-13.24,72-1.75a108.83,108.83,0,0,1,65.54-28.64S406,448,412.9,480.61c0,0,55.32,27.19,63,32.56,0,0,8.86,42.55-8.51,65.28,0,0,13.66,39.45,7.49,55.75,0,0-36.38,36-69.71,41.24S390.3,756.3,390.3,756.3,366,719.4,348.59,708.59a261.72,261.72,0,0,1-.59,43.46S323.27,692.72,281.65,691.87Z"/><path class="cls-4" d="M253.6,1004.67c4.51,2,9,4.26,13.32,6.52a26.52,26.52,0,0,0,8.94,3.27,10,10,0,0,0,2.94-.29,9.61,9.61,0,0,1,2.21-.26,26.58,26.58,0,0,0,12.43-1.49,42.67,42.67,0,0,1,11.7-3.49,78,78,0,0,1,16.26-1.87h3.32c5.66.3,11.32,1,17,1.44q7.08.53,14.21.73a9.18,9.18,0,0,0,4.26-.43c3.62-1.4,7.45-1.7,11.15-2.81a109.73,109.73,0,0,0,17.36-8c4.26-2.26,8.52-4.85,13.28-7a70.72,70.72,0,0,0,11.24-8c3.79-2.81,7.62-5.66,11.62-8.13,1.91-1.23,3.74-2.72,5.74-3.87,1.24-.68,2.22-1,1.32-2.6a24.1,24.1,0,0,0-6-4.25,35.77,35.77,0,0,1-3.36-2,19.7,19.7,0,0,1-2.51-3.32c-1.19-1.75-2.26-3.71-3.58-5.37a73.8,73.8,0,0,1-6-8.81c-1.19-2-2.26-4-3.53-5.91a9,9,0,0,1-.85-2.77,21.45,21.45,0,0,1-1.49-6.25,20.89,20.89,0,0,0-.73-5.62c-1-4.51-2.12-9-3.27-13.49q-3.58-13.62-7.75-27a425.2,425.2,0,0,0-15.75-43.37c-8.89-20.26-17-75.5-17-75.5s0-40.39-8.51-50.77c-9.19-11.24-35.92-8.51-60.69-4.26a218.1,218.1,0,0,0-54.6,17.58c-6.3,3.19-1.53,65.28-.43,77.79s9.71,64,10.51,81.55c.64,13.49.64,27,1,40.56,0,4.59.6,9.27.73,13.78a16.89,16.89,0,0,1-1,4.26,74,74,0,0,1-5.06,15.41,71.46,71.46,0,0,0-3.57,6.81q-1.77,4.35-4,8.51a102.93,102.93,0,0,1-6.17,8.51c-.77,1.06-3.58,4.26-2.9,5.74s4.26,2.3,5.58,3.15,3.1,1.75,4.68,2.64a43.17,43.17,0,0,0,4.72,2.81C244.79,1001,249.22,1002.76,253.6,1004.67Z"/><polygon class="cls-5" points="339.1 713.23 325.48 712.21 247.6 722.04 240.15 723.96 248.79 763.88 337.65 752.22 339.1 713.23"/><path class="cls-6" d="M329.14,712.13l-10.81-1.58-62.22,7.83a44.14,44.14,0,0,0-4.25,2l-4.26,1.41L255.47,753l73-10.18Z"/><polygon class="cls-7" points="318.97 710.6 304.54 708.72 263.22 714.6 255.9 718.09 262.62 743.32 319.61 735.19 318.97 710.6"/><path class="cls-3" d="M269.77,734.9l-5.95-19.24a11.87,11.87,0,0,0,7.83-7.79c1.4-5.91,3.32-13.36,17.79-15.06s11.44,5.06,12.51,7.53a56.48,56.48,0,0,1,2.08,6.38,5.84,5.84,0,0,0,5.54,4.26c3.66.42,0,16.34,0,16.34Z"/><path class="cls-8" d="M202.49,557.17l9.4-24.43a8.2,8.2,0,0,0-1.15-5.53c-1.65-2-8.51-11.24-8.51-11.24a46.84,46.84,0,0,1,14,7.28c1.41.51,1.58,1.83,3.49,0S244.28,502,244.28,502s34.35-8.17,39.15-10.08,6.05-2.56,6.18-8,0-18.69-.39-21.28c0,0,6.64,23.49,7.11,26.6s4.26,2.12,5,2,40.73-2.9,40.73-2.9a8.48,8.48,0,0,1,4.85,1.11c3.45,1.53,32.26,15.66,36.86,19.87,1.78,1.07,2.76.77,3.53,0s17-10.42,21.28-15.49a193.69,193.69,0,0,0-12,19.28c-1.71,2.89.76,2.81,1.31,3.58s20.94,19.91,20.94,19.91l7.54,35.11s24.64-.25,31.87,5.79a50.22,50.22,0,0,0-26.89.56s2.55,15.36,0,21.27c-3.88,40.31-14.81,63.37-24.31,77.42-18.72,23.7-57.83,38.6-80.09,42.13-33.45,3.53-48.35-1.15-77.24-17.62-7.79-10.72-42.26-25.53-51.63-86.73Z"/><path class="cls-8" d="M190.87,612.84A12.31,12.31,0,0,0,197.3,614c1.91-.64,3.32-2.85,4.59-4.26,5.75-7.06,6.26-17,6.56-26l.25-8.3a48.28,48.28,0,0,0-.55-11.07,16.51,16.51,0,0,0-5.45-9.7,15.49,15.49,0,0,0-8.94-3.19,21.64,21.64,0,0,0-11.32,1.11,16,16,0,0,0-6.85,7.1,46.68,46.68,0,0,0-4.25,14.09,40.25,40.25,0,0,0,1.1,14A41.75,41.75,0,0,0,179.38,604,24,24,0,0,0,190.87,612.84Z"/><path class="cls-9" d="M192,559.77a11.39,11.39,0,0,1,4.25,1.36,30.23,30.23,0,0,1,5.24,4.26c.47-1.62-.51-3.11-1.66-5.41a9.2,9.2,0,0,0-2.21-2.89,10.89,10.89,0,0,0-5-2.22,14.39,14.39,0,0,0-14.29,6.81c-3.24,4.81-2.52,11.32-1.88,17,1.49,13.7,6.43,22.21,12.22,27.11.25,0,5.23,5.4,8.25,3.91a4.4,4.4,0,0,0,1-.85,6.81,6.81,0,0,0,2-4.89,4.24,4.24,0,0,0-3.53-4.26,4.25,4.25,0,0,1-2,4.81,3.2,3.2,0,0,1-1.79,0,20.36,20.36,0,0,1-3.23-2.55,14.91,14.91,0,0,1-4.85-7.11,45.05,45.05,0,0,1-2.21-6.68,64.57,64.57,0,0,1-2.39-16.05,13,13,0,0,1,9.28-12.55A7.6,7.6,0,0,1,192,559.77Z"/><path class="cls-8" d="M423.07,656.16c-2.17,0-5.53.68-6.55-.25a12.23,12.23,0,0,1-2.39-5.92c-2.38-8.77,1.11-18,4.56-26.43l3.1-7.7a49.27,49.27,0,0,1,5-9.92c2.17-3,3.53-5.87,7.15-6.76a28,28,0,0,1,12.77-.39,19.89,19.89,0,0,1,9.75,4.9c2.21,2.76,1.74,7.66,1.95,11.19a44.64,44.64,0,0,1-2.34,14.17,42.15,42.15,0,0,1-7.1,12.51c-3.54,5-8.52,6.9-13.84,10.09S428.47,656.16,423.07,656.16Z"/><path class="cls-9" d="M443.37,606a11.37,11.37,0,0,0-4.26-.51,28.89,28.89,0,0,0-6.55,2c0-1.66,1.7-2.64,3.66-4.26a10.29,10.29,0,0,1,2.89-1.75,10.49,10.49,0,0,1,5.45,0,14.39,14.39,0,0,1,10.34,12c1,5.7-3,14.21-5.87,19.23a37.79,37.79,0,0,1-22.39,19c-.34,0-7,2.81-9.1.26a4.44,4.44,0,0,1-.6-1.19,7.09,7.09,0,0,1,0-5.28,4.26,4.26,0,0,1,5.15-2.43,4.26,4.26,0,0,0,0,5.24,3.43,3.43,0,0,0,1.62.68,19.9,19.9,0,0,0,4-1,21,21,0,0,0,8.51-5.36,41.5,41.5,0,0,0,4.72-5.2,66.21,66.21,0,0,0,8.52-13.74,15,15,0,0,0-3.92-16.43A7.92,7.92,0,0,0,443.37,606Z"/><path class="cls-10" d="M274.71,628.93a54.21,54.21,0,0,1-33-8.52,27.28,27.28,0,0,1-11.4-30.68,29.49,29.49,0,0,1,29.79-19.88,48.94,48.94,0,0,1,32.69,15.75,24.68,24.68,0,0,1,5.57,26C294.76,621.43,287.56,627,274.71,628.93Z"/><path class="cls-10" d="M366.76,651.61a54.23,54.23,0,0,1-34.51-10.22c-9-6.38-10.09-15.78-8.26-25.74a22.3,22.3,0,0,1,16.43-18.43,47.15,47.15,0,0,1,40,6.08,25.8,25.8,0,0,1,11.1,26.82C388.6,642.2,381,649.44,366.76,651.61Z"/><path class="cls-11" d="M256.11,617.18A19.41,19.41,0,1,1,272.23,595v.09a19.27,19.27,0,0,1-16,22.1Zm-15.87-21.83v1.78A13.28,13.28,0,0,0,248,611.26a12.76,12.76,0,0,0,15.53-4.89,13.75,13.75,0,0,0-1.79-16.6,12.07,12.07,0,0,0-12.47-2.59c-3.49-2.64-6.25-2.86-8.76-.64s-2.6,4.93-.47,8.81Z"/><path class="cls-12" d="M249.3,587.18a12.07,12.07,0,0,1,12.47,2.59,13.75,13.75,0,0,1,1.79,16.6A12.75,12.75,0,0,1,248,611.26a13.27,13.27,0,0,1-8.13-14v-1.79c2.76,1.7,5.62,2.64,8.51,0A6.12,6.12,0,0,0,249.3,587.18Z"/><path class="cls-10" d="M249.3,587.18a6.12,6.12,0,0,1-.89,8.51c-2.72,2.51-5.58,1.57-8.51,0-2.13-3.88-2-6.64.47-8.81S245.81,584.45,249.3,587.18Z"/><path class="cls-11" d="M330,610.71a19.45,19.45,0,1,1,4.37,27.16l-.12-.09A19.49,19.49,0,0,1,330,610.71Zm32,6.81c-1.24-3.28-3.75-4.17-8-3.28a12.1,12.1,0,0,0-12.26-3.36,13.71,13.71,0,0,0-9.15,14,12.77,12.77,0,0,0,11.58,11.45,13.32,13.32,0,0,0,13.7-8.9l.64-1.61C362.08,623.09,363.19,620.58,362,617.52Z"/><path class="cls-12" d="M354,614.24a12.1,12.1,0,0,0-12.26-3.36,13.71,13.71,0,0,0-9.15,14,12.77,12.77,0,0,0,11.58,11.45,13.32,13.32,0,0,0,13.7-8.9l.64-1.61c-3.24.25-6.17-.26-7.49-3.75A6.16,6.16,0,0,1,354,614.24Z"/><path class="cls-10" d="M354,614.24a6.16,6.16,0,0,0-3,7.79c1.32,3.49,4.25,4,7.49,3.75,3.7-2.52,4.81-5,3.62-8.09S358.25,613.35,354,614.24Z"/><path class="cls-13" d="M271.22,665.74s-1.57-2.6,1.15-.56a62.45,62.45,0,0,0,37.54,10.69,37,37,0,0,0,6.12-.77c.6,0,.69.55-.29.85a40.8,40.8,0,0,0-12.3,4.73,9.85,9.85,0,0,1-7.41,1.83,37.08,37.08,0,0,1-13.32-4.26C278.5,674.89,279.35,671.4,271.22,665.74Z"/><path class="cls-14" d="M271,663.57s0,3.23,9.19,7.91a59.69,59.69,0,0,0,25.54,6.13,27.37,27.37,0,0,0,10.76-2.68Z"/><path class="cls-15" d="M280.92,676.34s8.52,3.23,10.52,3.66a46,46,0,0,1,12.21,3.4C306,685.23,283.22,685.32,280.92,676.34Z"/><path class="cls-16" d="M298.25,668.21c-3.32-.94-9.79-2.68-13.16-3.41a55.49,55.49,0,0,0-7.49-1,47.86,47.86,0,0,1-5.32-.72,10.66,10.66,0,0,1-2.21-.68l-4.25-1.79a.35.35,0,0,0-.46.16.34.34,0,0,0,.07.39,27.7,27.7,0,0,1,7.92,15.37,11.46,11.46,0,0,0,.89,3.4,6.43,6.43,0,0,0,1.41,1.75,19.49,19.49,0,0,0,9.1,4.93,65.75,65.75,0,0,0,9.15,2.17,31.17,31.17,0,0,0,12.22-1.19c1.15-.38,2.59-2.17,3.62-2.85a43.82,43.82,0,0,0,4.25-4.26A36.52,36.52,0,0,1,325.7,675,144.68,144.68,0,0,1,298.25,668.21ZM315.69,676a41,41,0,0,0-12.3,4.73,9.82,9.82,0,0,1-7.4,1.83,37.08,37.08,0,0,1-13.32-4.26c-4.26-3.49-3.36-7-11.49-12.77,0,0-1.58-2.59,1.15-.55a62.43,62.43,0,0,0,37.53,10.68,37.22,37.22,0,0,0,6.13-.76C316.63,675.06,316.72,675.65,315.69,676Z"/><path class="cls-11" d="M307.91,652.55c-10.86,2.55-20.69-5.67-24.3-13.84-1.54-3.44,0-5.36,3.61-4.93a13.56,13.56,0,0,1,3.45.76,162,162,0,0,0,25.53,6.6c1.75.3,3.75.6,4.26,2.6s-1.15,3.4-2.6,4.59A18.43,18.43,0,0,1,307.91,652.55Z"/><path class="cls-1" d="M261.77,545.64a42.29,42.29,0,0,1,28.39,5.87,22.74,22.74,0,0,1,2.17,1.75,2.9,2.9,0,0,1,1.15,3.15c-.6,1.44-2,.89-3.07.63-3.66-.85-7.32-1.78-11-2.72a48.66,48.66,0,0,0-36.09,6,20.21,20.21,0,0,1-3.87,1.7c-.93.3-2.13.94-2.89,0s0-2,.47-3a19.27,19.27,0,0,1,7.15-6.68A48.18,48.18,0,0,1,261.77,545.64Z"/><path class="cls-1" d="M398.6,598c.38,2.59,1.1,5.31-.94,6.08s-3.1-2-4.25-3.57a135.85,135.85,0,0,0-7.66-11.45,46.55,46.55,0,0,0-24.18-15.2c-2.38-.68-4.76-1.44-7.1-2.25-1-.34-2.13-.81-2.09-2.09s1.32-1.78,2.51-2a20.68,20.68,0,0,1,9.83,0,44.42,44.42,0,0,1,33.07,28A21,21,0,0,1,398.6,598Z"/></g></svg>