<svg id="Layer_1" data-name="Layer 1" xmlns="http://www.w3.org/2000/svg" xmlns:xlink="http://www.w3.org/1999/xlink" viewBox="0 0 1920 1080">
  <defs>
    <style>
      .cls-1 {
        fill: #600b0c;
      }

      .cls-2 {
        fill: #0c0807;
      }

      .cls-3 {
        fill: #a56737;
      }

      .cls-4 {
        fill: #488dcb;
      }

      .cls-5 {
        fill: #a46636;
      }

      .cls-6 {
        fill: #d42027;
      }

      .cls-7 {
        fill: #21b14b;
      }

      .cls-8 {
        fill: #fde500;
      }

      .cls-9 {
        fill: #9a5b2a;
      }

      .cls-10 {
        fill: #6c401d;
      }

      .cls-11 {
        fill: #faf8f7;
      }

      .cls-12 {
        fill: #522f27;
      }

      .cls-13 {
        fill: #060504;
      }

      .cls-14 {
        fill: #734725;
      }

      .cls-15 {
        clip-path: url(#clip-path);
      }

      .cls-16 {
        fill: #fff;
      }
    </style>
    <clipPath id="clip-path">
      <path id="_Clipping_Path_" data-name="&lt;Clipping Path&gt;" class="cls-1" d="M1178.91,574.63c1.73-.87,18.58-11.47,29.18-3.83s2.75,15.22,2.75,15.22-6.15-4.45-21.06,1.31-16.07-2.15-15.52-4.46S1174.92,576.63,1178.91,574.63Z"/>
    </clipPath>
  </defs>
  <title>Akili-scared-1</title>
  <g>
    <path class="cls-2" d="M1299.24,989.87c.25,0,.57,0,.74.15,10.09,8.73,23.3,12.21,33.88,20.13,3,2.29,6.06,4.61,9.09,6.91,12.62,9.55,11,29.47,3.78,37.31-5.68,6.13-12.88,8.33-20.74,9.05a84.34,84.34,0,0,1-51.2-11.13,8.51,8.51,0,0,0-5.09-.91c-10.12.52-19.41-2.17-23.59-11.85-5-11.54-7.75-23.88-2.88-36.49,4.76,6.58,11,11.42,17.92,15.53,2,1.19,3.3,1.11,4.66-1,5.81-9,13.84-15.65,22.72-21.45,3.48-2.27,7.53-3.52,10.71-6.25m1.15,43.15a27.55,27.55,0,0,0,12.87-3c7.92-3.79,12-11.12,6.46-19.94-2.48-4-5.94-6.88-9.19-10.07-1.57-1.55-3.08-1.65-5.14-1-13.06,4.42-20.93,14.65-28.55,25.19-.83,1.15-.47,1.89.72,2.32,7.45,2.74,14.6,6.55,22.83,6.48"/>
    <path class="cls-3" d="M1299.24,989.87c-3.18,2.73-7.23,4-10.71,6.25-8.88,5.8-16.91,12.45-22.72,21.45-1.36,2.11-2.66,2.19-4.67,1-6.9-4.11-13.15-9-17.91-15.53,1.79-11.29-1.52-22.1-3.17-33.07-1-6.38-1.86-12.76-2.79-19.14,15.47,1,30.82.53,45.84-3.83,3.49,11.12,6.11,22.52,10.82,33.25,1.48,3.39,3.58,6.39,5.31,9.62"/>
    <path class="cls-2" d="M1154.26,991.33c1.54-.17,1.56,1,1.6,2,.51,10.76-1.07,21.05-7.46,30-6.58,9.27-16,11.17-26.41,9a23.68,23.68,0,0,0-12.52.55c-14,4.32-28.14,3-42.07-.81-7.34-2-14.61-4.34-20.65-9.35-14.5-12.06-8.72-31.42,1.28-38.8,6.57-4.85,14.23-7.29,21.92-9.54a161.72,161.72,0,0,1,18.14-4.36,71.13,71.13,0,0,0,14.78-4.72c10.67,9.22,19.52,19.8,24.71,33.12,1.89,4.86,1.94,5,6.75,3.3,7.14-2.47,14.5-4.57,19.93-10.37m-64.94,14.88c6.16,2.11,11.48,1.49,16.78.93,3.28-.34,8,.58,9.43-1.56,1.73-2.54-1.38-6.28-2.68-9.33-3.92-9.19-8.79-17.76-17.37-23.57-1.54-1-2.94-1.85-4.89-.92-4.13,2-8.23,4-11.71,7.06-6.73,5.92-7.26,12.42-1.56,19.34,3.42,4.16,8.14,6.34,12,8.05"/>
    <path class="cls-3" d="M1154.25,991.33c-5.42,5.8-12.78,7.9-19.92,10.37-4.81,1.67-4.86,1.56-6.75-3.3-5.19-13.32-14-23.9-24.71-33.12,6.75-4.62,10.31-11.76,14.39-18.44,5.36-8.76,10.52-17.65,15.76-26.49,7.08,2.93,13.81,6.71,21.29,8.68,6.81,1.8,13.6,3.67,20.4,5.52-5.46,13-11.37,25.76-15.91,39.12a101.55,101.55,0,0,0-4.55,17.66"/>
    <path class="cls-3" d="M1089.32,1006.21c-3.86-1.71-8.58-3.89-12-8.05-5.7-6.92-5.17-13.42,1.56-19.34,3.48-3.06,7.58-5.08,11.71-7.06,2-.93,3.35-.12,4.89.92,8.58,5.81,13.45,14.38,17.37,23.57,1.3,3,4.41,6.79,2.68,9.33-1.46,2.14-6.15,1.22-9.43,1.56-5.3.56-10.62,1.18-16.78-.93"/>
    <path class="cls-3" d="M1300.39,1033c-8.23.07-15.38-3.74-22.83-6.48-1.19-.43-1.55-1.17-.72-2.32,7.62-10.54,15.49-20.77,28.55-25.19,2.06-.69,3.57-.59,5.14,1,3.25,3.19,6.71,6.1,9.19,10.07,5.5,8.82,1.46,16.15-6.46,19.94a27.55,27.55,0,0,1-12.87,3"/>
    <path class="cls-4" d="M1111.74,939.73s22.34,7.07,46,4.08,30.5-1.33,35-.52,38.5,9.41,55.26,8.48,38.23.09,50.7-12.61a494.17,494.17,0,0,1-9.29-65c-2.63-35.6-11.07-79.19-17.78-102.08s-7.92-83-7.92-83,4.5-35.21-3.16-47.48c-8.3-13.29-53.08-19-63.1-21.07-26.46-5.52-53.6,8.73-60.76,11.26s-10.64,69.54-11.19,83.07,1.72,69.89.16,88.81-7,58.71-7.13,78.3-6.77,57.76-6.77,57.76"/>
    <path class="cls-5" d="M1003.53,846.48c6.4-9.87,14.64-17.35,24.26-27.46.52-.56.07-1.61-.66-1.42-7.28,1.88-20.93,9.48-30.94,7.88a3.82,3.82,0,0,1-3-3c-.58-2.65,2.7-4.82,5.24-6.51l28-12.55c2-1.16,3.43-1.32,3-2.57s-2.54.25-3.54.23c-5.85-.08-6.64-.37-12.46.2a22.51,22.51,0,0,1-5.53-1.37c-2.31-1.5-1.85-4.63.2-6,4-2.78,8.92-4,13.68-5.13,7.3-1.76,14.87-3.33,22.17-5.09,3.83-.92,7-1.09,10-4.29,3.69-4,8.9-9.39,12.25-13.69,17.09-21.9,28.74-38.82,41-64.38,2.35-4.92,4.63-11.61,10-12.39a11.28,11.28,0,0,1,5.86.9c4.06,1.67,7.21,4.23,8.9,8.29,3.47,8.34-.92,17.46-4.5,26.34a580.4,580.4,0,0,1-36.77,75.2c-2.58,4.43-6.29,8.41-6.57,13.54-.56,10.34-.63,21.91-4.38,32.07a5.07,5.07,0,0,1-6.19,3.22c-2.44-.8-3.85-3-4.69-5.43a83,83,0,0,0-4.77-11.17c-2.15-2.17-5.56,2.69-7,6a84.38,84.38,0,0,1-12.78,20.35c-2.52,3.07-5.54,7.16-8.92,5.07-1.85-1.14-1.77-4.56-1.46-6.71a51.59,51.59,0,0,1,2.6-8.25,171.17,171.17,0,0,0,6.1-17.52c-.71-1.69-8.95,5.5-20.2,13.45-.77.55-16.79,12.47-19.83,9.06-1.35-1.52-.17-5.19.94-6.89"/>
    <path class="cls-4" d="M1152.1,669.32a19.48,19.48,0,0,1-2.12,6.36c-2.09,4.11,1,1.85-2,6a51.2,51.2,0,0,0-8,18.41,8.57,8.57,0,0,1-1.6,3.82c-.68.75-2.88,1.25-3.89,1.37-7.39.88-12.82-.68-19.15-4-3.71-1.93-7-4.24-10.57-6.39-1.75-1-3.23-2-3.62-4a18.77,18.77,0,0,1,.43-5.06c1.46-6.71,1.21-12.17,1.17-19-.06-7.56,1.1-13.38,5-19a33.57,33.57,0,0,1,10.4-9.14c4.89-3,2.43-1.57,8.13-2.07s11.73,1,15.94,4.9a34,34,0,0,1,5.7,7.77c1.82,3.06,3.67,6.2,4.37,9.69s.21,7-.27,10.4"/>
    <path class="cls-5" d="M1425.35,816.85c-8.33-8.32-17.95-13.9-29.48-21.78-.62-.43-.4-1.55.35-1.52,7.52.31,22.46,4.88,31.91,1.22a3.82,3.82,0,0,0,2.28-3.54c0-2.71-3.65-4.15-6.49-5.27l-30-6.41c-2.21-.71-3.64-.57-3.47-1.89s2.54-.28,3.52-.51c5.69-1.31,6.4-1.75,12.21-2.42a22.32,22.32,0,0,0,5.13-2.49c2-2,.83-4.91-1.46-5.86-4.53-1.88-9.55-2-14.45-2.16-7.51-.19-15.24-.14-22.74-.33-4-.1-7.1.4-10.65-2.11-4.45-3.15-10.67-7.32-14.85-10.82-21.3-17.85-36.23-31.94-53.53-54.39-3.33-4.32-7-10.38-12.4-10a11.22,11.22,0,0,0-5.53,2.11c-3.62,2.49-6.17,5.65-7,10-1.65,8.89,4.55,16.88,9.91,24.82a580.14,580.14,0,0,0,51.7,65.83c3.45,3.8,7.91,6.91,9.26,11.87,2.71,10,5.2,21.3,11,30.44a5,5,0,0,0,6.72,1.85c2.22-1.29,3.14-3.73,3.45-6.29a82.58,82.58,0,0,1,2.33-11.91c1.65-2.58,6,1.46,8.1,4.44A84.21,84.21,0,0,0,1388,836.91c3.11,2.47,6.91,5.84,9.78,3.1,1.57-1.51.78-4.83,0-6.87a50.94,50.94,0,0,0-4.27-7.53,170.09,170.09,0,0,1-9.63-15.86c.35-1.8,9.9,3.52,22.57,8.93.86.37,19,8.68,21.29,4.7,1-1.76-.92-5.1-2.36-6.53"/>
    <path class="cls-4" d="M1234.5,672.72a20,20,0,0,0,3.4,5.78c2.91,3.57,7.86,4,11.65,7.43a51.43,51.43,0,0,1,11.68,16.33,8.33,8.33,0,0,0,2.35,3.4c.83.6,3.08.62,4.09.53,7.42-.68,12.4-3.35,17.9-7.9,3.22-2.67,5.94-5.61,9-8.46,1.49-1.39,2.73-2.67,2.7-4.71a19.13,19.13,0,0,0-1.48-4.85c-2.84-6.25-3.74-11.64-5.13-18.37-1.53-7.39-3.88-12.85-8.9-17.53a33.53,33.53,0,0,0-12.09-6.76c-5.4-1.87-11.17-3-16.85-2.31s-11.27,3.44-14.56,8.12a33.55,33.55,0,0,0-4,8.8c-1.14,3.37-2.3,6.83-2.25,10.39s1.25,6.83,2.44,10.11"/>
    <polygon class="cls-6" points="1248.67 631.22 1234.25 628.28 1149.73 626.38 1141.49 629.02 1145.21 672.89 1241.71 672.67 1248.67 631.22"/>
    <path class="cls-7" d="M1238.15,628.79l-11.32-3.14-67.93-2.42c-1.52.13-9.32,3.19-9.32,3.19l4.34,35.82,79.39-.83Z"/>
    <polygon class="cls-8" points="1227.53 625.63 1212.38 621.63 1167.21 620.58 1158.9 623.3 1162.83 652.82 1224.81 652.01 1227.53 625.63"/>
    <path class="cls-5" d="M1171.61,644.8l-3.7-21.34s7.11-1.13,9.43-7.26,5.36-13.83,21.06-13.65c15.16.18,11.54,7,12.32,9.8a68.49,68.49,0,0,1,1.37,7.07s.12,4.31,5.28,5.57c3.85.93-2,17.5-2,17.5Z"/>
    <g>
      <path d="M1202.46,594.41s35.65,25.36,47.21,48.35c0,0-3-45.14-1.43-58.06,0,0,26.19,40.68,59.63,44.69,0,0-30.41-20.82-25-61.73,0,0,57-25.83,80.93-79.55,0,0-25.38-54.36-33.77-63.62,0,0,13.84-44.62-2.38-65.93,0,0-47.32-24.89-75.39-18.3,0,0-21.36-33.8-62.41-45.26,0,0-62.52,14.2-77.26,47,0,0-64.23,16-73.71,19.85,0,0-19.06,42.59-6,70.68,0,0-23.42,38.39-20.64,57,0,0,30,46.19,63.93,59.36s-2.86,88.39-2.86,88.39,34-33.31,54.82-40.7c0,0-7,23.27-9.33,45.88,0,0,39.52-56.64,83.65-48"/>
      <path class="cls-9" d="M1316.53,470.75l-4.33-27.86s.28-3.72,2.48-5.53,11.36-9.92,11.36-9.92-12.22,1.42-16.41,4.46c-1.58.22-2.09,1.52-3.69-.77s-21-27.84-21-27.84-34.26-16.48-38.88-19.61-5.75-4.07-4.68-9.82,4.45-19.6,5.26-22.12c0,0-12.35,23.2-13.59,26.38s-4.83,1.29-5.7.95-42.18-12.39-42.18-12.39-1.39-.71-5.37.08-37.53,9.08-43.35,12.48c-2.1.69-3.06.15-3.7-.77s-15.7-14.93-18.93-21.19c0,0,8,19.42,8.22,23,1.15,3.45-1.42,2.78-2.19,3.48S1093.21,400,1093.21,400l-15.46,34.65s-25.88-5.89-34.87-1.22c0,0,14.91-1,28.2,6.79,0,0-6.23,15.59-5,22.38-5.17,43.33,1.09,70.09,7.84,87.05,14.3,29.23,52,53.9,74.64,62.68,34.43,11.4,51.16,9.88,85.32-.84,10.7-9.5,50.32-17.1,74.23-79.48Z"/>
      <path class="cls-9" d="M1316,532c-2.31.48-5.77.52-7-.24-1.85-1.11-2.84-3.76-3.81-5.69-4.41-8.78-2.72-19.25-.92-28.91.54-2.93,1.09-5.87,1.63-8.8a51.76,51.76,0,0,1,3.1-11.54c1.62-3.65,4.37-7.22,8-9s6.07-1.63,10.13-1.31c3.55.28,8.93,1.49,11.66,3.78a17.08,17.08,0,0,1,5.6,9.05,51.39,51.39,0,0,1,1.48,15.83c-.26,4.9-2.42,10-4.41,14.54a44.84,44.84,0,0,1-11,15.47c-4.87,4.47-8.72,5.61-14.39,6.78"/>
      <path class="cls-10" d="M1326.94,475.9c-1.56,0-3.39-.19-4.83.44a31.73,31.73,0,0,0-6.51,3.46c-.13-1.8,1.24-3.14,2.94-5.29a10.24,10.24,0,0,1,3-2.56,11.44,11.44,0,0,1,5.78-1.16c6.22.24,11.24,4.66,13.5,10.45s0,12.47-1.95,18.37c-4.72,14.08-11.84,21.9-19.09,25.75-.32.17-6.74,4.46-9.55,2.22a5,5,0,0,1-.88-1.11c-.64-1.16-1.66-3.4-1-5.63a4.7,4.7,0,0,1,4.65-3.61c-.78,2-.74,4.25,1,5.48a3.55,3.55,0,0,0,1.86.39c.62,0,3.44-1.66,4-1.94,3.32-1.67,4.6-3.34,6.73-6.39a45.79,45.79,0,0,0,3.86-6.5c2.22-4.63,5.15-10.66,6.21-16.37s-1.42-13.08-6.91-15.35a8.26,8.26,0,0,0-2.89-.65"/>
      <path class="cls-9" d="M1061.66,524.43c2.31.51,5.69,2,7,1.22,1.86-1.09,2.88-3.73,3.88-5.65,4.51-8.72,2.94-19.22,1.26-28.9l-1.53-8.82a51.48,51.48,0,0,0-3-11.57c-1.58-3.67-2.39-7-6-8.76s-9.38-3.62-13.45-3.35c-3.55.24-8.63.69-11.39,2.95-2.93,2.39-3.56,7.66-4.59,11.3-1.43,5-1,10.24-.82,15.47.2,4.9,2.7,10.28,4.62,14.8,2.6,6.08,7.46,9.23,12.28,13.77s6,6.31,11.69,7.54"/>
      <path class="cls-10" d="M1051.88,467c1.57,0,3.4-.15,4.83.49a32.28,32.28,0,0,1,6.47,3.55c.15-1.81-1.21-3.16-2.89-5.33a10.05,10.05,0,0,0-3-2.59,11.42,11.42,0,0,0-5.77-1.24c-6.22.17-11.29,4.53-13.62,10.3s-.12,15.64,1.79,21.56c4.56,14.14,12,21.2,19.2,25.13.32.18,6.68,4.55,9.52,2.33a5,5,0,0,0,.9-1.09c.64-1.16,1.7-3.38,1-5.62a4.68,4.68,0,0,0-4.61-3.66c.76,2,.69,4.25-1.1,5.47a3.5,3.5,0,0,1-1.85.36c-.63,0-3.42-1.7-4-2a22.53,22.53,0,0,1-7.92-7.64,46.44,46.44,0,0,1-3.79-6.55c-2.16-4.66-5-10.73-6-16.44-1-5.86,2.36-14.22,7.89-16.42a8,8,0,0,1,2.89-.62"/>
      <path class="cls-11" d="M1203.41,506c-1.23-10.86,2.94-19.8,11.83-26a52.55,52.55,0,0,1,38-9.11c13.47,1.77,25.78,14.3,26.58,27.7.63,10.66-4.45,24.12-19,29.69a58.33,58.33,0,0,1-36.69,1.45c-13.14-4.86-19.4-12.48-20.66-23.71"/>
      <path class="cls-11" d="M1100.88,504.11c-.22-10.64,6.92-21.52,17.82-25.69,14.79-5.66,29.57-4.61,43.49,2.77,9,4.78,13.46,13,13.11,23.32-.37,10.87-3.71,20.51-14.59,25.19a58.56,58.56,0,0,1-38.67,2.85c-14.57-5.57-20.89-14.93-21.16-28.44"/>
      <path class="cls-12" d="M1222.33,495.25a21,21,0,1,1,11.93,27,21,21,0,0,1-11.93-27m35.16-1.76c-2.11-2.88-5.1-3.3-9.39-1.31-3-2.64-10-2.69-13.71-.12a14.73,14.73,0,0,0-5.65,17.05c2.35,6.24,8.17,9.58,15.19,8.7,6.13-.77,11.09-6.24,11.81-13,.07-.62.15-1.25.23-1.88,3.15-3.61,3.62-6.54,1.52-9.41"/>
      <path class="cls-13" d="M1248.1,492.18c-3-2.63-10-2.69-13.71-.12a14.73,14.73,0,0,0-5.65,17.05c2.35,6.24,8.17,9.58,15.19,8.7,6.13-.77,11.09-6.24,11.81-13,.07-.62.15-1.25.23-1.88-3.3,1.16-6.51,1.46-8.81-1.81s-1.5-6.16.94-8.91"/>
      <path class="cls-11" d="M1248.1,492.18c-2.44,2.75-3.15,5.76-.94,8.91s5.51,3,8.81,1.81c3.15-3.61,3.62-6.54,1.52-9.41s-5.1-3.3-9.39-1.31"/>
      <path class="cls-12" d="M1147.08,526a20.93,20.93,0,1,1,10.7-27.51,20.84,20.84,0,0,1-10.7,27.51m-22.56-18.35c.1.62.21,1.24.31,1.87,1,6.74,6.23,12,12.39,12.48,7,.56,12.71-3,14.78-9.38a14.72,14.72,0,0,0-6.42-16.77c-3.83-2.4-10.81-2-13.68.73-4.38-1.8-7.34-1.24-9.33,1.74s-1.36,5.86,2,9.33"/>
      <path class="cls-13" d="M1131.9,496.55c2.87-2.76,9.85-3.14,13.69-.73a14.72,14.72,0,0,1,6.4,16.77c-2.06,6.35-7.73,9.94-14.77,9.38-6.16-.5-11.36-5.74-12.39-12.48-.1-.63-.21-1.25-.31-1.87,3.35,1,6.57,1.16,8.71-2.21s1.22-6.22-1.33-8.86"/>
      <path class="cls-11" d="M1131.9,496.55c2.55,2.64,3.4,5.62,1.33,8.86s-5.36,3.22-8.71,2.21c-3.31-3.47-3.92-6.38-2-9.33s5-3.54,9.33-1.74"/>
      <path class="cls-12" d="M1183.75,546.88c10.85,5.15,23.07-1.24,28.74-9,2.38-3.26,1.27-5.61-2.69-6a17.24,17.24,0,0,0-3.8,0,176.31,176.31,0,0,1-28.51,1.1c-1.9-.07-4.06-.25-5.1,1.72-1.16,2.17.41,3.86,1.67,5.44a19.86,19.86,0,0,0,9.69,6.78"/>
      <path class="cls-2" d="M1246.58,463.7c-10-2.89-19.65-7.5-26.25-17a22.9,22.9,0,0,1-1.52-2.64c-.62-1.19-.85-2.6.07-3.58,1.16-1.24,2.35-.13,3.35.56,3.34,2.3,6.65,4.64,10,7,11.64,8.32,24.72,9.67,38.44,8a25.57,25.57,0,0,1,4.54-.2c1,.07,2.51-.12,2.84,1.33.29,1.28-.8,2.08-1.64,2.81-2.8,2.42-6.34,3.24-9.78,3.94-6.39,1.31-12.84,1-20-.23"/>
      <path class="cls-2" d="M1101,466.18c-2.64-1-5.54-1.73-5.2-4.06.39-2.59,3.52-1.84,5.51-2,4.94-.32,9.89-.42,14.79-1.22,10.74-1.76,19.4-7.27,27-14.73,1.91-1.87,3.86-3.7,5.86-5.47.85-.75,1.91-1.58,3.08-.86,1.33.82,1,2.17.6,3.43a22.57,22.57,0,0,1-5.21,9.21c-11.81,12.9-26.32,18.65-43.78,16.35a18.35,18.35,0,0,1-2.67-.68"/>
      <path id="_Path_" data-name="&lt;Path&gt;" class="cls-14" d="M1176,574.83c2.06-1.14,22.11-15,34.48-5.39s3,19.43,3,19.43-7.17-5.59-24.86,2-18.91-2.48-18.22-5.45S1171.29,577.46,1176,574.83Z"/>
      <g>
        <path id="_Clipping_Path_2" data-name="&lt;Clipping Path&gt;" class="cls-1" d="M1178.91,574.63c1.73-.87,18.58-11.47,29.18-3.83s2.75,15.22,2.75,15.22-6.15-4.45-21.06,1.31-16.07-2.15-15.52-4.46S1174.92,576.63,1178.91,574.63Z"/>
        <g class="cls-15">
          <path class="cls-16" d="M1175.66,564.46s-.26,6,8.21,7.38,29.21,4.26,28.66-5.58-32.12-10.61-32.12-10.61l-5.15,4Z"/>
        </g>
      </g>
    </g>
  </g>
</svg>
