<svg id="Layer_5" data-name="Layer 5" xmlns="http://www.w3.org/2000/svg" xmlns:xlink="http://www.w3.org/1999/xlink" viewBox="0 0 595.28 1387.94"><defs><style>.cls-1{fill:#faf8f7;}.cls-2{fill:#0c0807;}.cls-3{fill:#a56737;}.cls-4{fill:#a46636;}.cls-5{fill:#488dcb;}.cls-6{fill:#d42027;}.cls-7{fill:#21b14b;}.cls-8{fill:#fde500;}.cls-9{fill:#9a5b2a;}.cls-10{fill:#6c401d;}.cls-11{clip-path:url(#clip-path);}.cls-12{fill:#522f27;}.cls-13{fill:#060504;}.cls-14{clip-path:url(#clip-path-2);}.cls-15{fill:#600b0c;}.cls-16{fill:#f2ecec;}.cls-17{fill:#fff;}.cls-18{fill:#734725;}</style><clipPath id="clip-path"><path id="_Clipping_Path_" data-name="&lt;Clipping Path&gt;" class="cls-1" d="M265.69,906.38a54.2,54.2,0,0,1-34.1-.79,27.3,27.3,0,0,1-18.08-27.29A29.49,29.49,0,0,1,238,852.18a48.86,48.86,0,0,1,35.41,7.91,24.7,24.7,0,0,1,11.33,24C283.51,894.53,277.77,901.59,265.69,906.38Z"/></clipPath><clipPath id="clip-path-2"><path id="_Clipping_Path_2" data-name="&lt;Clipping Path&gt;" class="cls-1" d="M360.49,907.56a54.26,54.26,0,0,1-35.94-2.11c-10.19-4.18-13.4-13.09-13.88-23.2a22.29,22.29,0,0,1,11.81-21.68,47.1,47.1,0,0,1,40.34-3.16A25.81,25.81,0,0,1,379.73,881C379.61,893.44,373.88,902.2,360.49,907.56Z"/></clipPath></defs><title>Akili-landing_and_jumping-1</title><g id="character"><path class="cls-2" d="M262.25,1327.28c1.28-.67,1.68.46,2,1.32a42.54,42.54,0,0,1,1.84,28.63c-3.21,10.07-11,14.4-20.79,15.37a22.21,22.21,0,0,0-10.92,4,68.51,68.51,0,0,1-37.4,11.1,48.67,48.67,0,0,1-20.9-2.47c-16.23-6.57-16.56-25.3-9.78-34.68A62.1,62.1,0,0,1,183,1336a149.56,149.56,0,0,1,14.8-9,64.73,64.73,0,0,0,11.79-8.33,78.36,78.36,0,0,1,31.07,22.22c3.05,3.74,3.14,3.83,7,1.16A41.84,41.84,0,0,0,262.25,1327.28Zm-53.37,31.49a33.64,33.64,0,0,0,15.11-3.88c2.81-1.22,7.2-1.73,7.89-4.1s-3-5.15-5-7.48a46.84,46.84,0,0,0-22-15.94,4.24,4.24,0,0,0-4.52.52,45.06,45.06,0,0,0-8.34,9.52,11.48,11.48,0,0,0,1.79,16.15,11.18,11.18,0,0,0,2.25,1.41A28.43,28.43,0,0,0,208.88,1358.77Z"/><path class="cls-3" d="M262.25,1327.28a41.82,41.82,0,0,1-14.79,14.64c-3.76,2.82-3.86,2.73-7-1.16a78.39,78.39,0,0,0-31.08-22.22c4.67-6,5.81-13.28,7.54-20.37,2.25-9.23,6.94-45.06,9.08-54.32a159.8,159.8,0,0,0,21.3,1.68l19.6-.88c-1.19,13-5.43,52.47-5.66,65.59A92.59,92.59,0,0,0,262.25,1327.28Z"/><path class="cls-3" d="M208.88,1358.77a28.41,28.41,0,0,1-12.87-3.72,11.49,11.49,0,0,1-5.46-15.31,11.18,11.18,0,0,1,1.41-2.25,45.44,45.44,0,0,1,8.49-9.5,4.25,4.25,0,0,1,4.52-.53,46.7,46.7,0,0,1,22,16c2,2.32,5.79,4.76,5,7.47s-5.18,2.69-7.9,4.11A33.68,33.68,0,0,1,208.88,1358.77Z"/><path class="cls-2" d="M412.19,1309.74s.52,0,.67.16c9.37,8.15,21.62,11.42,31.43,18.78l8.41,6.46c11.7,8.89,10.15,27.38,3.37,34.64a28.15,28.15,0,0,1-19.27,8.34,78.31,78.31,0,0,1-47.49-10.49,7.78,7.78,0,0,0-4.64-.8c-9.4.45-18-2.16-21.89-11.09-4.57-10.71-7.12-22.21-2.39-33.75a54.28,54.28,0,0,0,16.6,14.45c1.77,1.24,3.05,1,4.32-.92a69.77,69.77,0,0,1,21.18-19.84A84.49,84.49,0,0,0,412.19,1309.74Zm1,40.18a25.67,25.67,0,0,0,12-2.76c7.53-3.36,11.13-10.29,6.07-18.5a54.08,54.08,0,0,0-8.51-9.37,4.23,4.23,0,0,0-4.63-.8c-12.15,4.08-19.48,13.54-26.63,23.25-.75,1.08-.45,1.76.66,2.17C398.85,1346.31,405.55,1349.8,413.15,1349.92Z"/><path class="cls-3" d="M412.19,1309.74a83.44,83.44,0,0,1-9.94,5.77,69.66,69.66,0,0,0-21.18,19.84c-1.34,1.92-2.48,2.06-4.33.92a54.24,54.24,0,0,1-16.59-14.45c1.71-10.48-1.28-20.46-2.83-30.73-1.05-5.93-9.26-41-10.1-46.93a122.67,122.67,0,0,0,42.58-3.43c3.18,10.32,13.14,50.09,17.48,60.08C408.84,1304.07,410.67,1306.65,412.19,1309.74Z"/><path class="cls-3" d="M413.15,1349.92c-7.53-.07-14.28-3.49-21.16-6.06-1.11-.41-1.5-1-.66-2.17,6.9-9.88,14.41-19.22,26.63-23.25a4.25,4.25,0,0,1,4.63.8,54.08,54.08,0,0,1,8.51,9.37c5.06,8.21,1.29,15-6.07,18.5A25.56,25.56,0,0,1,413.15,1349.92Z"/><path class="cls-4" d="M518.89,1145.15a186.14,186.14,0,0,0-29.15-17.62c-.63-.32-.49-1.38.2-1.41,7-.38,21.1,2.78,29.6-1.65a3.52,3.52,0,0,0,1.79-3.42c-.2-2.53-3.68-3.6-6.45-4.35l-28.3-3.34c-2.11-.46-3.43-.2-3.36-1.44s2.32-.47,3.19-.75a71.19,71.19,0,0,1,11.1-3.31,21.35,21.35,0,0,0,4.51-2.73,3.36,3.36,0,0,0-.62-4.72,3.41,3.41,0,0,0-1.21-.59,37.92,37.92,0,0,0-13.55-.75c-7,.49-14.11,1.2-21.05,1.67-3.67.22-6.55,1-10.07-1-4.36-2.54-10.47-5.84-14.63-8.71a298.32,298.32,0,0,1-54.18-45.64c-3.44-3.73-7.32-9-12.34-8.2a10.59,10.59,0,0,0-4.94,2.43,14.21,14.21,0,0,0-5.55,9.81c-.75,8.37,5.67,15.2,11.31,22.09a538.18,538.18,0,0,0,53.46,56.35c3.41,3.34,7.92,5.73,9.6,10.22a100.38,100.38,0,0,0,12.72,27.1,4.67,4.67,0,0,0,6.39,1.14,7.32,7.32,0,0,0,2.64-6.11,77,77,0,0,1,1.12-11.24c1.29-2.48,5.66.84,7.89,3.44a76.62,76.62,0,0,0,17,14.47c3.06,2,6.88,4.83,9.29,2,1.4-1.43.31-4.51-.49-6.43a48.3,48.3,0,0,0-4.59-6.57A169.14,169.14,0,0,1,479.91,1142c.19-1.71,9.54,2.43,21.65,6.3.81.26,18.33,6.39,20.1,2.52C522.39,1149.24,520.35,1146.34,518.89,1145.15Z"/><path class="cls-5" d="M338,1029.51a17.59,17.59,0,0,0,3.64,5c3,3-.4,1.93,3.39,4.75a47.49,47.49,0,0,1,12.22,14.1,8,8,0,0,0,2.47,3,8.26,8.26,0,0,0,3.83.1,28.24,28.24,0,0,0,15.85-8.84c2.71-2.76,5-5.71,7.58-8.59a5.92,5.92,0,0,0,2.12-4.6,17.08,17.08,0,0,0-1.76-4.29A74.12,74.12,0,0,1,381,1013.6a28,28,0,0,0-9.71-15.45,30.26,30.26,0,0,0-11.77-5.2c-5.13-1.27-2.56-.73-7.76.38a19.54,19.54,0,0,0-12.75,8.78,31.91,31.91,0,0,0-2.89,8.49,28.69,28.69,0,0,0-1.19,9.79A29.47,29.47,0,0,0,338,1029.51Z"/><path class="cls-4" d="M74.79,1148.56a184.6,184.6,0,0,1,28.87-18c.42-.48.45-1.42-.22-1.43-6.9-.39-21.16,2.91-29.66-1.14a3.55,3.55,0,0,1-1.86-3.43c.23-2.52,3.69-3.57,6.41-4.41l28.1-3.68c2.14-.5,3.42-.29,3.37-1.52s-2.32-.45-3.22-.72a75.49,75.49,0,0,0-11.15-3.09,19.65,19.65,0,0,1-4.55-2.68,3.33,3.33,0,0,1,.49-4.67,3.39,3.39,0,0,1,1.27-.64,37.39,37.39,0,0,1,13.53-1c6.94.42,14.07,1,21,1.41,3.63.18,6.54.86,10-1.21,4.35-2.58,10.4-6,14.52-9a297.35,297.35,0,0,0,53.62-46.73c3.34-3.81,7.17-9.16,12.17-8.41a10.57,10.57,0,0,1,5.08,2.41,14.12,14.12,0,0,1,5.74,9.72c.79,8.27-5.5,15.27-11,22.08a536.71,536.71,0,0,1-52.56,57.27c-3.46,3.25-7.82,5.83-9.42,10.31A102,102,0,0,1,143,1167.43a4.68,4.68,0,0,1-6.34,1.24,7.41,7.41,0,0,1-2.76-6.09,78.2,78.2,0,0,0-1.41-11.31c-1.38-2.5-5.56.8-7.85,3.54a78.24,78.24,0,0,1-16.72,14.78c-3,2.37-6.75,5.12-9.34,2.52-1.33-1.51-.33-4.54.49-6.37a48.92,48.92,0,0,1,4.5-6.63,162.13,162.13,0,0,0,10-13.91c-.2-1.7-9.45,2.53-21.54,6.65-.7,0-18,6.45-20,2.63C71.36,1152.74,73.25,1149.93,74.79,1148.56Z"/><path class="cls-5" d="M261.71,1028.71a18.05,18.05,0,0,1-3.54,5.15c-2.81,3.2-7.57,3.16-11.33,6a48.34,48.34,0,0,0-12,14.31,7.94,7.94,0,0,1-2.52,2.88,7.85,7.85,0,0,1-3.85.19,27.86,27.86,0,0,1-15.95-8.59c-2.95-2.57-5.11-5.6-7.75-8.47a5.74,5.74,0,0,1-2.17-4.56,17,17,0,0,1,1.62-4.24,74.89,74.89,0,0,0,6-16.62,28.53,28.53,0,0,1,9.49-15.62,31.83,31.83,0,0,1,11.67-5.4,35.26,35.26,0,0,1,16-1,19.28,19.28,0,0,1,12.88,8.55,31.75,31.75,0,0,1,3.09,8.36,29.47,29.47,0,0,1,1.34,9.78A28.67,28.67,0,0,1,261.71,1028.71Z"/><path d="M286.74,966.1s-32.84,24.09-43.26,45.53c0,0,2.11-41.92.53-53.92,0,0-23.75,38.14-54.76,42.32a61.29,61.29,0,0,0,22.38-57.66s-53.48-23.19-76.23-72.77c0,0,22.8-50.81,30.47-59.55,0,0-13.46-41.22,1.28-61.22,0,0,43.62-23.76,69.73-18.05A108.81,108.81,0,0,1,294.2,688s58.24,12.32,72.37,42.55c0,0,60.06,13.91,68.74,17.4,0,0,18.28,39.43,6.54,65.51,0,0,22.26,35.31,20,52.59,0,0-27.27,43.29-58.52,56s3.9,82.12,3.9,82.12-32-30.43-51.46-37a262.23,262.23,0,0,1,9.3,42.45S327.47,957.47,286.74,966.1Z"/><path class="cls-5" d="M214.49,1262.41c4.18,2.67,8.37,5,12.49,7.38s8.42,5.28,12.47,8a26.41,26.41,0,0,0,8.49,4.31,9.73,9.73,0,0,0,2.95,0,9.78,9.78,0,0,1,2.23,0,26.63,26.63,0,0,0,12.52,0,42.45,42.45,0,0,1,12-2.1,77.8,77.8,0,0,1,16.36,0l3.3.39c5.59,1,11.12,2.34,16.74,3.43,4.65.89,9.31,1.7,14,2.39a9.07,9.07,0,0,0,4.27.07c3.76-1,7.6-.81,11.41-1.48a110.72,110.72,0,0,0,18.18-6c4.49-1.74,9-3.82,14-5.38a71.46,71.46,0,0,0,12.09-6.58c4.09-2.35,8.23-4.73,12.49-6.71,2.05-1,4-2.27,6.16-3.18,1.31-.53,2.31-.71,1.62-2.42a24.41,24.41,0,0,0-5.46-4.93,33.05,33.05,0,0,1-3.1-2.42,19.31,19.31,0,0,1-2.11-3.59c-1-1.88-1.8-3.94-2.92-5.75a74.73,74.73,0,0,1-5-9.46c-.95-2.12-1.78-4.19-2.81-6.28a9,9,0,0,1-.52-2.85,21.51,21.51,0,0,1-.75-6.39,20.63,20.63,0,0,0-.06-5.66c-.49-4.6-1.06-9.21-1.67-13.78q-2-13.95-4.53-27.71A426.69,426.69,0,0,0,368.87,1121c-6.45-21.16-8.05-77-8.05-77s4.73-40.11-2.5-51.42c-7.81-12.23-34.67-12.66-59.77-11.34a218.42,218.42,0,0,0-56.29,11.06c-6.63,2.43-9.17,64.65-9.54,77.21s2.14,64.66.88,82.21c-.95,13.47-2.54,26.91-3.79,40.39-.53,4.57-.49,9.29-.89,13.78a16.4,16.4,0,0,1-1.52,4.11,73.81,73.81,0,0,1-6.83,14.7s-9.24,19.11-10.07,34.11Z"/><polygon class="cls-6" points="346.06 990.39 332.66 987.78 254.16 988.41 246.54 989.44 250.44 1030.1 340.06 1028.93 346.06 990.39"/><path class="cls-7" d="M336.3,988.12l-10.55-2.83-62.71.48a42.8,42.8,0,0,0-4.45,1.45l-4.4.89,4.16,32,73.67-1.54Z"/><polygon class="cls-8" points="326.38 985.41 312.27 981.86 270.54 982.84 262.87 985.45 266.58 1011.3 324.13 1009.91 326.38 985.41"/><path class="cls-4" d="M274.67,1003.77,271,984a11.86,11.86,0,0,0,8.69-6.82c2.09-5.71,4.86-12.88,19.43-12.87s10.78,6.37,11.55,9a57.12,57.12,0,0,1,1.32,6.58,5.81,5.81,0,0,0,5,4.87c3.58.86-1.92,16.23-1.92,16.23Z"/><path class="cls-9" d="M179.05,852.9,182.66,827a8.23,8.23,0,0,0-2.37-5.13c-2.08-1.61-10.84-9-10.84-9a46.84,46.84,0,0,1,15.29,3.91c1.48.18,1.94,1.42,3.39-.79s19.08-26.3,19.08-26.3,31.6-15.76,35.84-18.72,5.31-3.86,4.2-9.19S243,743.55,242,741.11c0,0,11.8,21.37,13,24.29s4.63,1.1,5.31.82,39-12.07,39-12.07a8.45,8.45,0,0,1,5,0c3.7.71,35,7.92,40.41,11,2,.63,2.86.12,3.44-.8s14.21-14,17.2-19.92a194.31,194.31,0,0,0-7.31,21.5c-1,3.21,1.39,2.56,2.1,3.18S385,783.7,385,783.7l15.32,32.49s23.94-5.85,32.35-1.61a50.3,50.3,0,0,0-26.06,6.65s6,14.38,4.83,20.72c5.38,40.13,0,65.08-6.08,80.91-12.85,27.34-47.56,50.73-68.43,59.23-31.78,11-47.34,9.86-79.23.39-10-8.68-47-15.27-70-72.74Z"/><path class="cls-9" d="M180.38,909.76a12.38,12.38,0,0,0,6.53-.3c1.72-1.06,2.59-3.53,3.51-5.19,4-8.19,2.23-18,.47-26.86l-1.64-8.14a48.19,48.19,0,0,0-3.05-10.65,16.54,16.54,0,0,0-7.51-8.21,15.59,15.59,0,0,0-9.43-1.08A21.74,21.74,0,0,0,158.49,853a16,16,0,0,0-5.06,8.48,46.48,46.48,0,0,0-.94,14.69,40.19,40.19,0,0,0,4.26,13.42,41.8,41.8,0,0,0,10.44,14.22A24.07,24.07,0,0,0,180.38,909.76Z"/><path class="cls-10" d="M169.45,857.81a11.54,11.54,0,0,1,4.45.36,30.44,30.44,0,0,1,6.07,3c.08-1.69-1.21-2.91-2.85-4.89a9.26,9.26,0,0,0-2.81-2.32,10.89,10.89,0,0,0-5.39-1,14.38,14.38,0,0,0-12.38,9.88c-2.06,5.42.12,11.59,2,17,4.56,13,11.31,20.18,18,23.63.25-.06,6.33,4.07,8.93,1.94a4.55,4.55,0,0,0,.8-1.06,6.84,6.84,0,0,0,.84-5.22,4.26,4.26,0,0,0-4.41-3.35,4.26,4.26,0,0,1-.85,5.14,3.2,3.2,0,0,1-1.74.41,19.86,19.86,0,0,1-3.73-1.76,14.83,14.83,0,0,1-6.34-5.81,45.12,45.12,0,0,1-3.67-6,63.9,63.9,0,0,1-6-15.08,13,13,0,0,1,6.18-14.34A7.53,7.53,0,0,1,169.45,857.81Z"/><path class="cls-9" d="M416.35,899.2c-2.11.49-5.23,1.92-6.44,1.24a12.18,12.18,0,0,1-3.66-5.22c-4.31-8-3-17.78-1.57-26.77l1.28-8.21a48.92,48.92,0,0,1,2.59-10.79c1.43-3.43,2.11-6.52,5.43-8.21A27.89,27.89,0,0,1,426.33,838a19.76,19.76,0,0,1,10.6,2.55c2.78,2.19,3.44,7.06,4.45,10.45a45.18,45.18,0,0,1,.94,14.34,42.18,42.18,0,0,1-4.08,13.8c-2.3,5.69-6.72,8.65-11.18,13S421.62,898,416.35,899.2Z"/><path class="cls-10" d="M424.74,845.77a11.15,11.15,0,0,0-4.26.47,28.87,28.87,0,0,0-5.94,3.39c-.38-1.62,1.06-3,2.6-5a9.69,9.69,0,0,1,2.42-2.36,10.29,10.29,0,0,1,5.3-1.24,14.39,14.39,0,0,1,12.8,9.34c2.25,5.33.33,14.52-1.35,20.07A37.86,37.86,0,0,1,418.82,894c-.33.07-6.16,4.32-8.81,2.31a4.16,4.16,0,0,1-.85-1,7.11,7.11,0,0,1-1.2-5.14,4.25,4.25,0,0,1,4.46-3.53,4.26,4.26,0,0,0,1.19,5.1,3.54,3.54,0,0,0,1.73.29,19.34,19.34,0,0,0,3.67-1.9,21,21,0,0,0,7.07-7.16,41.72,41.72,0,0,0,3.42-6.13,66.65,66.65,0,0,0,5.17-15.32,15,15,0,0,0-7.55-15.11A7.88,7.88,0,0,0,424.74,845.77Z"/><path id="_Clipping_Path_3" data-name="&lt;Clipping Path&gt;" class="cls-1" d="M265.69,906.38a54.2,54.2,0,0,1-34.1-.79,27.3,27.3,0,0,1-18.08-27.29A29.49,29.49,0,0,1,238,852.18a48.86,48.86,0,0,1,35.41,7.91,24.7,24.7,0,0,1,11.33,24C283.51,894.53,277.77,901.59,265.69,906.38Z"/><g class="cls-11"><path class="cls-12" d="M256.91,898.16a19.41,19.41,0,1,1,10.65-25.29l0,.08a19.27,19.27,0,0,1-10.53,25.15Zm-20.42-17.65.4,1.74a13.29,13.29,0,0,0,10.8,12,12.75,12.75,0,0,0,14-8.3,13.73,13.73,0,0,0-5.51-15.75,12.07,12.07,0,0,0-12.73.3c-4-1.78-6.74-1.36-8.68,1.37s-1.41,5.4,1.54,8.69Z"/><path class="cls-13" d="M243.46,870.49a12.07,12.07,0,0,1,12.73-.3,13.73,13.73,0,0,1,5.51,15.75,12.75,12.75,0,0,1-14,8.3,13.28,13.28,0,0,1-11.11-11.83l-.4-1.74c3.08,1,6.07,1.29,8.28-1.94A6.11,6.11,0,0,0,243.46,870.49Z"/><path class="cls-1" d="M243.46,870.49a6.12,6.12,0,0,1,1.06,8.49c-2.08,3.07-5.07,2.8-8.29,1.94-2.95-3.29-3.45-6-1.54-8.69S239.44,868.63,243.46,870.49Z"/></g><path id="_Clipping_Path_4" data-name="&lt;Clipping Path&gt;" class="cls-1" d="M360.49,907.56a54.26,54.26,0,0,1-35.94-2.11c-10.19-4.18-13.4-13.09-13.88-23.2a22.29,22.29,0,0,1,11.81-21.68,47.1,47.1,0,0,1,40.34-3.16A25.81,25.81,0,0,1,379.73,881C379.61,893.44,373.88,902.2,360.49,907.56Z"/><g class="cls-14"><path class="cls-12" d="M327.43,874.07a19.45,19.45,0,1,1,10.43,25.45l-.14-.06A19.49,19.49,0,0,1,327.43,874.07Zm32.67-.63c-1.94-2.91-4.59-3.21-8.53-1.37a12.07,12.07,0,0,0-12.7-.49,13.68,13.68,0,0,0-5.74,15.67A12.76,12.76,0,0,0,347,895.77,13.31,13.31,0,0,0,358.32,884l.26-1.72C361.45,878.85,362,876.15,360.1,873.44Z"/><path class="cls-13" d="M351.57,872.07a12.07,12.07,0,0,0-12.7-.49,13.68,13.68,0,0,0-5.74,15.67A12.76,12.76,0,0,0,347,895.77,13.31,13.31,0,0,0,358.32,884l.26-1.72c-3.09,1-6.07,1.16-8.15-1.94A6.16,6.16,0,0,1,351.57,872.07Z"/><path class="cls-1" d="M351.57,872.07a6.16,6.16,0,0,0-1.14,8.26c2.08,3.1,5.06,2.93,8.15,1.94,3-3.28,3.54-6,1.68-8.69S355.51,870.23,351.57,872.07Z"/></g><path class="cls-15" d="M270.65,943s-2.12-2.17,1-.8a62.54,62.54,0,0,0,39,1.88,37.61,37.61,0,0,0,5.79-2.14c.58-.14.79.38-.1.9a40.58,40.58,0,0,0-10.9,7.39,9.74,9.74,0,0,1-6.8,3.46,37.06,37.06,0,0,1-13.94-1.11C279.82,950.28,279.85,946.69,270.65,943Z"/><path class="cls-16" d="M270,941s.74,3.14,10.75,5.62a59.82,59.82,0,0,0,26.26.16,27.59,27.59,0,0,0,9.88-5Z"/><path class="cls-17" d="M282.51,951.14s9,1.21,11.07,1.17a46.31,46.31,0,0,1,12.66.54C308.94,954.1,286.79,959.36,282.51,951.14Z"/><path class="cls-18" d="M297.53,939.29c-3.45-.16-10.14-.39-13.58-.33a55.92,55.92,0,0,0-7.53.7,45.51,45.51,0,0,1-5.34.51,10.49,10.49,0,0,1-2.31-.16l-4.55-.78a.35.35,0,0,0-.41.26.35.35,0,0,0,.16.37A27.68,27.68,0,0,1,275.17,953a11.5,11.5,0,0,0,1.64,3.12,6.27,6.27,0,0,0,1.77,1.38,19.39,19.39,0,0,0,10,2.73,65.54,65.54,0,0,0,9.4,0,31.23,31.23,0,0,0,11.63-3.94c1-.63,2-2.7,2.87-3.59a45.57,45.57,0,0,0,3.18-5.12,36.33,36.33,0,0,1,10.15-8A145.14,145.14,0,0,1,297.53,939.29Zm18.75,3.57a40.85,40.85,0,0,0-10.9,7.4,9.76,9.76,0,0,1-6.8,3.46,36.86,36.86,0,0,1-13.94-1.12c-4.94-2.43-4.86-6-14.09-9.82,0,0-2.12-2.17,1-.8a62.54,62.54,0,0,0,39,1.88,37.61,37.61,0,0,0,5.79-2.14C317,941.78,317.21,942.34,316.28,942.86Z"/><path class="cls-12" d="M303.38,921.84c-10,4.95-21.43-.82-26.81-8-2.27-3-1.22-5.22,2.4-5.63a13.53,13.53,0,0,1,3.54,0,162.27,162.27,0,0,0,26.36.63c1.77-.11,3.78-.27,4.74,1.56s-.35,3.57-1.49,5.06A18.39,18.39,0,0,1,303.38,921.84Z"/><path class="cls-2" d="M234.17,828.21a42.28,42.28,0,0,1,29-.73,23.1,23.1,0,0,1,2.51,1.2,2.9,2.9,0,0,1,1.83,2.81c-.25,1.54-1.74,1.32-2.84,1.32-3.76,0-7.53-.08-11.31-.16a48.68,48.68,0,0,0-33.78,14,21,21,0,0,1-3.39,2.54c-.84.5-1.86,1.39-2.82.66s-.46-2-.22-3a19.19,19.19,0,0,1,5.45-8.13A48,48,0,0,1,234.17,828.21Z"/><path class="cls-2" d="M379.31,848.1c1,2.44,2.28,4.93.47,6.14s-3.48-1.24-5-2.51a137.71,137.71,0,0,0-10.06-9.41,46.51,46.51,0,0,0-27-9.31c-2.48-.12-5-.32-7.44-.58-1-.11-2.25-.3-2.5-1.55s.88-2,2-2.56a20.82,20.82,0,0,1,9.58-2.24A44.43,44.43,0,0,1,378,845.88,25.26,25.26,0,0,1,379.31,848.1Z"/></g></svg>