<svg id="Layer_5" data-name="Layer 5" xmlns="http://www.w3.org/2000/svg" xmlns:xlink="http://www.w3.org/1999/xlink" viewBox="0 0 1920 1080">
  <defs>
    <style>
      .cls-1 {
        fill: none;
      }

      .cls-2 {
        clip-path: url(#clip-path);
      }

      .cls-3 {
        fill: #488dcb;
      }

      .cls-4 {
        fill: #a46636;
      }

      .cls-5 {
        fill: #d42027;
      }

      .cls-6 {
        fill: #21b14b;
      }

      .cls-7 {
        fill: #fde500;
      }

      .cls-8 {
        fill: #9a5b2a;
      }

      .cls-9 {
        fill: #6c401d;
      }

      .cls-10 {
        fill: #faf8f7;
      }

      .cls-11 {
        fill: #522f27;
      }

      .cls-12 {
        fill: #060504;
      }

      .cls-13 {
        fill: #600b0c;
      }

      .cls-14 {
        fill: #f2ecec;
      }

      .cls-15 {
        fill: #fff;
      }

      .cls-16 {
        fill: #734725;
      }

      .cls-17 {
        fill: #0c0807;
      }
    </style>
    <clipPath id="clip-path">
      <rect class="cls-1" width="1920" height="1080"/>
    </clipPath>
  </defs>
  <title>Akili-trying-6</title>
  <g class="cls-2">
    <path d="M1309.69,769.13s51.16,39.6,66.87,74.27c0,0-1.66-66.89,1.35-85.88,0,0,36.26,61.68,85.45,69.59,0,0-43.69-32.58-33.27-92.7,0,0,85.83-34.75,124.33-112.7,0,0-34.23-81.84-46.09-96,0,0,23.13-65.1.44-97.55,0,0-68.44-39.62-110.3-31.56,0,0-29.54-51.23-89.51-70.61,0,0-93.23,17.24-117,64.79,0,0-95.88,19.84-110.12,24.91,0,0-30.7,61.8-13,104.08,0,0-36.91,55.34-33.92,83,0,0,41.64,70,90.92,91.52s-9.51,130.44-9.51,130.44,52.15-47.18,83.44-56.85c0,0-11.8,34-16.54,67.23,0,0,61.78-81.33,126.48-65.9"/>
    <path class="cls-3" d="M1197.46,1270s33.66,8.22,68.33,1.46,44.87-5,51.52-4.2,57.73,10.09,82.36,7,56.43-3.63,73.57-23.61a731.44,731.44,0,0,1-20.11-95c-7.4-52.26-24.16-115.74-36.31-148.86s-19.88-121.68-19.88-121.68,3.17-52.39-9.35-69.74c-13.56-18.79-80.19-22.77-95.18-24.86-39.59-5.55-78.23,18.16-88.54,22.61s-8.84,103.64-8.32,123.67,9.44,103,9,131-4.5,87.32-2.79,116.23-4.29,85.91-4.29,85.91"/>
    <path class="cls-4" d="M1192.71,908.15c-.87-6.43-4.42-11.29-9.58-15.22a16.67,16.67,0,0,0-8-3.52c-8-.92-13.8,7.77-19,13.91a428.23,428.23,0,0,1-47,47.62,32.34,32.34,0,0,0,1.37,13.5c4.23,13,15.59,22.32,28.5,26.08q19.41-22.53,37.32-46.42C1184.77,932.76,1194.5,921.4,1192.71,908.15Z"/>
    <path class="cls-3" d="M1232.44,874.67A29,29,0,0,1,1227,883c-4.55,5.08.78,3-5.06,7.82-7.74,6.32-13.7,14.47-18.43,23.27-1,1.82-2,3.73-3.73,4.86-1.25.82-4.58.69-6.07.48-10.9-1.54-18.07-5.84-25.86-13-4.57-4.17-8.37-8.71-12.69-13.14-2.1-2.15-3.84-4.13-3.65-7.14.11-1.66,1.78-5.59,2.54-7.07,4.63-9,6.35-16.92,8.89-26.75,2.78-10.82,6.66-18.71,14.4-25.27,5.25-4.44,11.75-7.17,18.34-9.1,8.12-2.38,4.07-1.33,12.4.12s16.39,5.9,20.93,13c2.55,4,3.89,8.7,5.2,13.29,1.44,5.06,2.89,10.24,2.56,15.5s-2.33,10-4.33,14.76"/>
    <path class="cls-4" d="M1579.68,1116c-9.13-14.83-21-26.17-34.91-41.46-.75-.84,0-2.37,1-2.07,10.7,3,30.61,14.75,45.46,12.73a5.63,5.63,0,0,0,4.5-4.31c1-3.89-3.82-7.22-7.52-9.8l-41-19.55c-2.93-1.78-5-2.07-4.33-3.9s3.75.45,5.23.47c8.65.08,9.82-.32,18.4.72a32.69,32.69,0,0,0,8.23-1.83c3.48-2.14,2.89-6.77-.08-8.93-5.86-4.25-13-6.2-20-8.06-10.74-2.86-21.87-5.45-32.6-8.31-5.64-1.5-10.35-1.86-14.59-6.69-5.32-6.06-12.82-14.2-17.63-20.67-24.5-33-41.13-58.4-58.3-96.63-3.3-7.35-6.43-17.32-14.38-18.67a16.64,16.64,0,0,0-8.69,1.13c-6,2.33-10.82,6-13.45,11.94-5.42,12.22.74,25.85,5.73,39.11a858.65,858.65,0,0,0,51.71,112.46c3.67,6.65,9,12.66,9.24,20.25.47,15.31.17,32.42,5.35,47.57a7.49,7.49,0,0,0,9,5c3.63-1.09,5.8-4.29,7.12-7.85a124.32,124.32,0,0,1,7.45-16.35c3.26-3.13,8.12,4.16,10.12,9.18,4.44,11.12,10.8,21.12,18.18,30.54,3.62,4.63,7.94,10.78,13,7.82,2.78-1.62,2.77-6.68,2.39-9.87s-2.46-9.27-3.55-12.29c-3.83-10.69-5.73-15.81-8.41-26.13,1.12-2.47,13,8.46,29.4,20.61,1.11.83,24.38,19,29,14.08,2.05-2.19.42-7.66-1.15-10.21"/>
    <path class="cls-3" d="M1339.39,869.22a29.26,29.26,0,0,0,6.53,7.46c5.22,4.4,12.52,3.69,19,7.61,8.53,5.2,15.56,12.45,21.45,20.52,1.21,1.67,2.49,3.42,4.36,4.3,1.36.64,4.64,0,6.08-.36,10.59-3,17.09-8.27,23.84-16.39,4-4.76,7.09-9.78,10.75-14.76,1.79-2.43,3.24-4.63,2.63-7.58-.33-1.63-2.53-5.29-3.48-6.65-5.84-8.31-8.62-15.89-12.49-25.28-4.25-10.33-9.17-17.61-17.75-23-5.8-3.68-12.61-5.49-19.41-6.49-8.37-1.25-17.08-1.33-25.13,1.26s-15.43,8.1-18.93,15.8c-2,4.34-2.66,9.14-3.33,13.87-.73,5.21-1.45,10.55-.4,15.71s3.68,9.59,6.31,14"/>
    <polygon class="cls-5" points="1369.07 801.22 1347.5 798.31 1222.6 803.84 1210.7 808.54 1220.52 872.92 1362.89 863.08 1369.07 801.22"/>
    <path class="cls-6" d="M1353.3,798.68l-17-3.52-100.47,3.13c-2.22.34-13.44,5.63-13.44,5.63l9.94,52.41,117.06-9.05Z"/>
    <polygon class="cls-7" points="1337.33 795.06 1314.58 790.65 1247.83 793.56 1235.83 798.39 1244.53 841.56 1335.92 834.25 1337.33 795.06"/>
    <path class="cls-4" d="M1256.71,828.86l-7.57-31.12s10.39-2.38,13.2-11.64,6.55-20.93,29.73-22.22c22.38-1.23,17.72,9.16,19.14,13.24a100.34,100.34,0,0,1,2.71,10.3s.61,6.35,8.35,7.69c5.78,1-1.22,26-1.22,26Z"/>
    <path class="cls-8" d="M1485.64,593.22l-4.74-41.42s.64-5.48,4-8,17.37-14,17.37-14-18.13,1.36-24.5,5.6c-2.35.23-3.18,2.13-5.42-1.36S1443,491.66,1443,491.66s-49.64-26.41-56.28-31.31-8.25-6.36-6.33-14.79,7.75-28.7,9.1-32.37c0,0-19.63,33.54-21.66,38.17s-7.21,1.62-8.48,1.06-61.59-20.84-61.59-20.84-2-1.12-7.93-.2-56,11.17-64.81,15.85c-3.14.89-4.52,0-5.42-1.36s-22.3-23-26.7-32.44c0,0,10.58,29.17,10.76,34.51,1.51,5.17-2.25,4-3.44,5s-40.29,22.28-40.29,22.28L1135,525.52s-37.89-10.25-51.44-3.88c0,0,22.08-.65,41.25,11.72,0,0-10.13,22.65-8.77,32.76-10.24,63.71-2.59,103.64,6.36,129.1,19.39,44,73.69,82.75,106.54,97.08,50.2,18.9,75,17.67,126.13,3.87,16.38-13.41,75.38-22.27,114.44-113Z"/>
    <path class="cls-8" d="M1105.83,657.3c3.37.88,8.29,3.24,10.22,2.21,2.82-1.49,4.49-5.33,6.07-8.11,7.19-12.62,5.5-28.22,3.59-42.63L1124,595.65c-.77-5.85-1.56-11.77-3.67-17.28s-3.11-10.45-8.28-13.3-13.65-5.91-19.67-5.75c-5.27.14-12.81.49-17,3.67-4.47,3.37-5.71,11.11-7.45,16.43-2.41,7.36-2.13,15.07-2.14,22.81,0,7.26,3.37,15.35,6,22.14,3.47,9.15,10.46,14.09,17.31,21.08s8.55,9.68,16.83,11.85"/>
    <path class="cls-9" d="M1094.81,571.9c2.32.07,5,0,7.1,1a47.36,47.36,0,0,1,9.35,5.62c.34-2.65-1.59-4.74-3.94-8a15.08,15.08,0,0,0-4.26-4c-2.26-1.49-5.76-2.13-8.46-2.17-9.2-.12-16.95,6-20.74,14.4s-1.11,23.11,1.35,32c5.89,21.16,16.46,32,26.87,38.28.45.28,9.6,7.12,13.93,4a7.71,7.71,0,0,0,1.39-1.57c1-1.67,2.71-4.89,1.88-8.24a7,7,0,0,0-6.59-5.69c1,3,.76,6.33-2,8a5.24,5.24,0,0,1-2.76.43c-.93,0-5-2.72-5.76-3.18-4.78-2.72-8.34-7.11-11.25-11.77a70.2,70.2,0,0,1-5.2-9.9c-2.92-7-6.77-16.15-7.9-24.66-1.15-8.71,4.35-20.87,12.64-23.78a11.78,11.78,0,0,1,4.31-.74"/>
    <path class="cls-10" d="M1316.38,638.61c-1.16-16.13,5.54-29.08,19-37.75,17.27-11.08,36.5-14.67,56.66-11.19,19.8,3.42,37.24,22.68,37.62,42.52.3,15.79-8,35.38-29.91,42.74a86.22,86.22,0,0,1-54.3-.06c-19.13-8-27.91-19.6-29.11-36.26"/>
    <path class="cls-10" d="M1165,629.62c.32-15.74,11.52-31.38,27.87-36.9,22.19-7.48,44-5,64.1,6.7,13,7.6,19.1,20.06,18,35.23-1.2,16.05-6.71,30.1-23,36.36a86.82,86.82,0,0,1-57.33,1.9c-21.19-9.1-30-23.32-29.56-43.29"/>
    <path class="cls-11" d="M1345,623.79a31,31,0,1,1,16,40.61,31.05,31.05,0,0,1-16-40.61m52.06-.49c-3-4.39-7.34-5.19-13.8-2.51-4.26-4.07-14.58-4.57-20.25-1-8.45,5.35-12.37,15.75-9.36,24.85,3.09,9.37,11.49,14.65,21.92,13.76,9.1-.77,16.76-8.55,18.23-18.53.14-.93.3-1.85.45-2.77,4.87-5.15,5.74-9.45,2.81-13.81"/>
    <path class="cls-12" d="M1383.24,620.79c-4.26-4.07-14.59-4.57-20.25-1-8.45,5.34-12.37,15.74-9.36,24.84,3.09,9.37,11.49,14.65,21.92,13.76,9.1-.77,16.76-8.55,18.23-18.53.14-.93.3-1.85.45-2.77-5,1.51-9.71,1.77-12.91-3.2-3.08-4.79-1.84-9.2,1.92-13.12"/>
    <path class="cls-10" d="M1383.24,620.79c-3.76,3.92-5,8.33-1.92,13.12,3.2,5,8,4.71,12.91,3.2,4.87-5.15,5.74-9.45,2.81-13.81s-7.34-5.19-13.8-2.51"/>
    <path class="cls-11" d="M1232,664.68a30.95,30.95,0,1,1,17.45-40,30.81,30.81,0,0,1-17.45,40m-32.24-28.47c.12.93.24,1.86.35,2.78,1.11,10,8.49,18.09,17.56,19.18,10.38,1.26,19-3.71,22.4-13,3.32-9-.22-19.52-8.47-25.17-5.53-3.78-15.87-3.65-20.27.26-6.36-2.91-10.78-2.27-13.89,2s-2.36,8.58,2.32,13.9"/>
    <path class="cls-12" d="M1211.28,620.3c4.4-3.91,14.74-4,20.27-.26,8.25,5.65,11.79,16.18,8.47,25.17-3.43,9.25-12,14.22-22.4,13-9.07-1.09-16.45-9.15-17.56-19.17-.11-.93-.23-1.86-.35-2.79,4.89,1.7,9.64,2.12,13-2.73,3.25-4.67,2.18-9.13-1.44-13.18"/>
    <path class="cls-10" d="M1211.28,620.3c3.62,4.05,4.69,8.51,1.44,13.18-3.37,4.85-8.12,4.43-13,2.73-4.68-5.32-5.4-9.65-2.32-13.9s7.53-4.92,13.89-2"/>
    <path class="cls-13" d="M1335.15,737.23s3.74-3.07-1.45-1.43-18.31,4-31,3.12a98.48,98.48,0,0,1-31-6.91,52.43,52.43,0,0,1-8.86-4.38c-.87-.34-1.3.47,0,1.43s13.21,8.43,16,13.6,8.81,6.18,10.13,6.63,13.84,2.89,22.23.88c8.16-3,8.74-8.72,23.93-12.94"/>
    <path class="cls-14" d="M1336.58,734.09s-1.69,4.83-18,7-33-1.06-41.65-4.31a43.84,43.84,0,0,1-14.77-9.65Z"/>
    <path class="cls-15" d="M1315,748s-14.75.27-17.73,0-15.69-2.84-20.15-1.33,29.7,13.65,37.88,1.36"/>
    <path class="cls-16" d="M1248.4,722.2c4,3.87,10.72,7.22,14.66,14.43,1.2,2.19,2.69,6.67,4.21,8.66,1.19,1.55,2.4,5,4,6.18a49.5,49.5,0,0,0,17.69,8.24c4.86,1.23,10,1.06,14.93,1.57a31.21,31.21,0,0,0,16.13-2.54,10.89,10.89,0,0,0,3-1.84,17.68,17.68,0,0,0,3.19-4.69,44.26,44.26,0,0,1,20-18.9.52.52,0,0,0-.26-1c-1.79.11-3.51.21-7.25.47a16.43,16.43,0,0,1-3.64-.16,70.49,70.49,0,0,1-8.42-1.73,81.11,81.11,0,0,0-11.75-2.42c-5.46-.71-16.09-1.5-21.58-1.84-17.33-1.08-31.53-.81-44.83-4.45m14.43,5.43a52.43,52.43,0,0,0,8.86,4.38,98.48,98.48,0,0,0,31,6.91c12.72.85,25.85-1.48,31-3.12s1.44,1.43,1.44,1.43c-15.19,4.22-15.77,9.9-23.93,12.94-8.39,2-20.91-.43-22.23-.88s-7.3-1.46-10.13-6.63-14.72-12.63-16-13.6-.87-1.77,0-1.43"/>
    <path class="cls-11" d="M1284.88,697.77c15.73,8.26,34.17-.46,43-11.6,3.71-4.67,2.21-8.21-3.62-9.06a25.1,25.1,0,0,0-5.61-.23,260.79,260.79,0,0,1-42.2-.08c-2.8-.22-6-.62-7.65,2.24-1.83,3.14.38,5.72,2.15,8.14a29.44,29.44,0,0,0,13.91,10.59"/>
    <path class="cls-17" d="M1398.87,551.66c-14.45-5.15-30-8-46.17-2.35a34.21,34.21,0,0,0-4.1,1.84c-1.79.9-3.27,2.39-3,4.37.32,2.48,2.7,2.18,4.51,2.22,6,.13,12,.19,18,.22,21.16.09,38,9.78,53,23.67a36.93,36.93,0,0,0,5.27,4.16c1.32.84,2.9,2.32,4.55.86,1.45-1.28.84-3.17.46-4.78-1.27-5.32-4.8-9.37-8.32-13.19-6.53-7.1-14.5-12.36-24.19-17"/>
    <path class="cls-17" d="M1167,577.46c-1.65,3.85-3.83,7.71-1,9.74,3.15,2.25,5.55-1.87,7.74-3.87,5.4-5,10.57-10.13,16.45-14.54,12.86-9.66,27.6-13.24,43.36-13.72,3.94-.12,7.89-.33,11.82-.64,1.66-.13,3.64-.41,4.07-2.4.49-2.27-1.34-3.25-3-4.17a33.21,33.21,0,0,0-15.15-3.92c-25.83-.64-46.82,8.95-62.24,30a26.18,26.18,0,0,0-2,3.54"/>
    <g>
      <path class="cls-8" d="M1481.14,683.74c-3.45.56-8.56.43-10.38-.77-2.68-1.75-4-5.73-5.3-8.64-6-13.24-2.86-28.61.37-42.78q1.49-6.45,3-12.9c1.31-5.76,2.65-11.57,5.26-16.87s6.9-10.4,12.31-12.76,9.07-2,15.05-1.33c5.24.63,13.1,2.73,17,6.28a25.27,25.27,0,0,1,7.74,13.72,76.05,76.05,0,0,1,1.23,23.47c-.66,7.22-4.18,14.7-7.37,21.22a66.37,66.37,0,0,1-17.2,22.2c-7.46,6.32-13.22,7.77-21.66,9.16"/>
      <path class="cls-9" d="M1500.71,601.46c-2.31-.14-5-.49-7.16.35a47.59,47.59,0,0,0-9.83,4.73c-.09-2.67,2-4.57,4.67-7.64a15,15,0,0,1,4.62-3.6,17,17,0,0,1,8.62-1.37c9.17.73,16.32,7.55,19.32,16.25s-.71,18.43-4,27c-7.83,20.52-18.82,31.64-29.75,36.9-.48.23-10.22,6.19-14.25,2.71a7.91,7.91,0,0,1-1.24-1.69c-.86-1.76-2.24-5.12-1.11-8.38a7,7,0,0,1,7.1-5c-1.28,2.92-1.35,6.23,1.2,8.16a5.18,5.18,0,0,0,2.71.68c.92.07,5.19-2.25,6-2.63,5-2.26,7-4.66,10.33-9a69.26,69.26,0,0,0,6.09-9.37c3.56-6.72,8.25-15.46,10.16-23.82,2-8.57-1.31-19.42-9.3-23.09a11.77,11.77,0,0,0-4.23-1.14"/>
    </g>
    <path class="cls-4" d="M1281.78,891.63c6.43-20.28-8-23.3-8-23.3,6.93-24.15-11.52-22.73-11.52-22.73,5.8-22.42-10.41-22.26-10.41-22.26-9.1-1-35.16,20.21-35.16,20.21-17-8.8-32.63,2.3-39.16,14.19-9,16.39-15.2,47.75-15.2,47.75-15.37,16.76-34.2,31.58-53.6,44.33a75.47,75.47,0,0,0-7.22,16.66c-4.07,14.55.58,30.68,13.49,39.2a39.72,39.72,0,0,0,8,4.06c77.7-30.07,141.9-71.29,152.32-88.62C1290.59,895.88,1281.78,891.63,1281.78,891.63Z"/>
  </g>
</svg>
