<svg id="Layer_1" data-name="Layer 1" xmlns="http://www.w3.org/2000/svg" xmlns:xlink="http://www.w3.org/1999/xlink" width="260" height="420" viewBox="0 0 260 420">
  <defs>
    <style>
      .cls-1 {
        fill: #a46838;
      }

      .cls-2 {
        clip-path: url(#clip-path);
      }

      .cls-3 {
        fill: #875330;
      }

      .cls-4 {
        fill: none;
      }

      .cls-4, .cls-8 {
        stroke: #875330;
        stroke-miterlimit: 10;
        stroke-width: 1.15px;
      }

      .cls-5 {
        clip-path: url(#clip-path-2);
      }

      .cls-6 {
        fill: gray;
      }

      .cls-7 {
        fill: #b3b3b3;
      }

      .cls-8 {
        fill: #a46635;
      }

      .cls-9 {
        fill: #ba8365;
      }

      .cls-10 {
        fill: #478cca;
      }

      .cls-11 {
        fill: #9b5a2b;
      }

      .cls-12 {
        fill: #0a0807;
      }

      .cls-13 {
        fill: #9a5b2a;
      }

      .cls-14 {
        fill: #c67634;
      }

      .cls-15 {
        fill: #a35c28;
      }

      .cls-16 {
        fill: #a46737;
      }

      .cls-17 {
        fill: #a36535;
      }

      .cls-18 {
        fill: #498ecb;
      }

      .cls-19 {
        fill: #d12127;
      }

      .cls-20 {
        fill: #2daf4a;
      }

      .cls-21 {
        fill: #fbe400;
      }

      .cls-22 {
        fill: #a56636;
      }

      .cls-23 {
        fill: #6f421d;
      }

      .cls-24 {
        fill: #f8f6f3;
      }

      .cls-25 {
        fill: #532f26;
      }

      .cls-26 {
        fill: #080707;
      }

      .cls-27 {
        fill: #f7f6f5;
      }

      .cls-28 {
        fill: #774b2a;
      }

      .cls-29 {
        fill: #522717;
      }

      .cls-30 {
        fill: #6b3217;
      }

      .cls-31 {
        fill: #572610;
      }

      .cls-32 {
        fill: #d98f38;
      }

      .cls-33 {
        fill: #acc954;
      }

      .cls-34 {
        fill: #b87127;
      }

      .cls-35 {
        fill: #dba158;
      }

      .cls-36 {
        fill: #c77a2a;
      }
    </style>
    <clipPath id="clip-path">
      <path id="_Clipping_Path_" data-name="&lt;Clipping Path&gt;" class="cls-1" d="M146,210.73c3.36,5.23-5.05,12.09-5.05,12.09-51.35,53.76-98.25,2.91-100.65-8.1s1.32-11.47,1.32-11.47c.16-8.14,5.75-7.47,5.75-7.47.45-9.6,7-6.82,7-6.82.65-8.84,6.51-6.79,6.51-6.79,3.42.76,10.26,11.64,10.26,11.64,7.23-1.1,11.54,4.84,12.45,10,1.25,7-.36,19.17-.36,19.17,13.32,30.21,52.54-14.23,52.54-14.23S141.36,203.58,146,210.73Z"/>
    </clipPath>
    <clipPath id="clip-path-2">
      <path id="_Clipping_Path_2" data-name="&lt;Clipping Path&gt;" class="cls-1" d="M146,210.73c3.36,5.23-5.05,12.09-5.05,12.09-53.15,55.94-98.25,2.91-100.65-8.1s1.32-11.47,1.32-11.47c.16-8.14,5.75-7.47,5.75-7.47.45-9.6,7-6.82,7-6.82.65-8.84,6.51-6.79,6.51-6.79,3.42.76,10.26,11.64,10.26,11.64,7.23-1.1,11.54,4.84,12.45,10,1.25,7-.36,19.17-.36,19.17,19.32,21.22,52.54-14.23,52.54-14.23S141.36,203.58,146,210.73Z"/>
    </clipPath>
  </defs>
  <title>20_Akili_takes_food_and_eat</title>
  <g>
    <g>
      <g>
        <path id="_Clipping_Path_3" data-name="&lt;Clipping Path&gt;" class="cls-1" d="M146,210.73c3.36,5.23-5.05,12.09-5.05,12.09-51.35,53.76-98.25,2.91-100.65-8.1s1.32-11.47,1.32-11.47c.16-8.14,5.75-7.47,5.75-7.47.45-9.6,7-6.82,7-6.82.65-8.84,6.51-6.79,6.51-6.79,3.42.76,10.26,11.64,10.26,11.64,7.23-1.1,11.54,4.84,12.45,10,1.25,7-.36,19.17-.36,19.17,13.32,30.21,52.54-14.23,52.54-14.23S141.36,203.58,146,210.73Z"/>
        <g class="cls-2">
          <path class="cls-3" d="M76.21,193.11c-2,.3-3.9.6-5.84,1a58,58,0,0,0-5.73,1.3,9.74,9.74,0,0,0-1.31.52,9.09,9.09,0,0,0-1.17.79A21.71,21.71,0,0,0,60,198.61a21,21,0,0,0-3.51,4.56,7.55,7.55,0,0,0-1,5.29,5.22,5.22,0,0,0,1.31,2.31,3.06,3.06,0,0,0,2.2,1,5.29,5.29,0,0,0,2.53-.77,14,14,0,0,0,2.3-1.67,27.84,27.84,0,0,0,3.88-4.3l.39-.53.39.51a12.16,12.16,0,0,0,.87,1,3.25,3.25,0,0,0,.93.73l.81.31-.7.47A26.1,26.1,0,0,0,67.23,210a19.5,19.5,0,0,0-2.66,3,9,9,0,0,0-1.65,3.58,5.94,5.94,0,0,0-.1,1,5.67,5.67,0,0,0,.08,1,5.12,5.12,0,0,0,.26,1,6.74,6.74,0,0,0,.42.92,6.79,6.79,0,0,1-.5-.89,5.25,5.25,0,0,1-.35-1,5.53,5.53,0,0,1-.15-1,6.21,6.21,0,0,1,0-1,9.45,9.45,0,0,1,1.49-3.85,19.23,19.23,0,0,1,2.62-3.19,26.81,26.81,0,0,1,3.14-2.69l.11.78a2.51,2.51,0,0,1-.74-.41,6.32,6.32,0,0,1-.57-.49,11.29,11.29,0,0,1-1-1.08l.78,0a28.79,28.79,0,0,1-4,4.53A15,15,0,0,1,62,211.93a6.35,6.35,0,0,1-3.06.94,4.07,4.07,0,0,1-3.05-1.35,6.35,6.35,0,0,1-1.53-2.81,7,7,0,0,1,.05-3.18,11.34,11.34,0,0,1,1.16-2.87,20.22,20.22,0,0,1,3.76-4.73A22.55,22.55,0,0,1,61.67,196a9.9,9.9,0,0,1,1.31-.81,10.32,10.32,0,0,1,1.46-.51,42.78,42.78,0,0,1,5.87-1C72.27,193.42,74.23,193.23,76.21,193.11Z"/>
          <path class="cls-4" d="M53.24,186.75s3.63,8,7.47,10.57"/>
          <path class="cls-4" d="M46.77,194.77s4.62,7.45,8.75,9.54"/>
          <path class="cls-4" d="M55.1,209.23s-4.65,7.41-14.26-7.4"/>
          <path class="cls-4" d="M51.07,211.44s1,9.23-8.1,1.18"/>
        </g>
      </g>
      <g>
        <path id="_Clipping_Path_4" data-name="&lt;Clipping Path&gt;" class="cls-1" d="M146,210.73c3.36,5.23-5.05,12.09-5.05,12.09-53.15,55.94-98.25,2.91-100.65-8.1s1.32-11.47,1.32-11.47c.16-8.14,5.75-7.47,5.75-7.47.45-9.6,7-6.82,7-6.82.65-8.84,6.51-6.79,6.51-6.79,3.42.76,10.26,11.64,10.26,11.64,7.23-1.1,11.54,4.84,12.45,10,1.25,7-.36,19.17-.36,19.17,19.32,21.22,52.54-14.23,52.54-14.23S141.36,203.58,146,210.73Z"/>
        <g class="cls-5">
          <path class="cls-4" d="M53.24,186.75s3.63,8,7.47,10.57"/>
          <path class="cls-4" d="M46.77,194.77s4.62,7.45,8.75,9.54"/>
          <path class="cls-4" d="M55.1,209.23s-4.65,7.41-14.26-7.4"/>
          <path class="cls-4" d="M51.07,211.44s1,9.23-8.1,1.18"/>
        </g>
      </g>
      <g>
        <path class="cls-6" d="M55.22,218.35c-2.66-1.21-1.06-5-.13-6.86a67.18,67.18,0,0,1,14.23-19.17c1.25-1.17,3.07-2.43,3.11-4.32,0-2.11-.94-4.26-1.18-6.36l0-.19a7.22,7.22,0,0,1,1.12-4.64c.46-.71.74-1.5,1.14-2.24A14.49,14.49,0,0,1,74.91,172c.38-.45.85-.83,1.25-1.27a31,31,0,0,1,2.64-2.67,13.61,13.61,0,0,1,2.78-1.74,16.08,16.08,0,0,1,3-1.27c.9-.25,1.85-.39,2.77-.56a5.48,5.48,0,0,1,2.32-.06,3.93,3.93,0,0,0,.57.06A10.49,10.49,0,0,1,93,165a21,21,0,0,1,5.39,2.93,8.32,8.32,0,0,1,2.1,2.07,4.26,4.26,0,0,1,.8,1.62,9.13,9.13,0,0,1,.06,1.24,12.5,12.5,0,0,1-.32,2.89,17.53,17.53,0,0,1-2.21,5,16.13,16.13,0,0,1-2.27,2.83c-.41.42-.88.75-1.28,1.17s-.94.95-1.43,1.4c-.29.26-.56.57-.86.81a7.24,7.24,0,0,1-1.65.92c-.51.22-1,.43-1.52.62s-.72.36-1.11.48a7.76,7.76,0,0,0-1,.34,3.83,3.83,0,0,1-1.09.4l-.87.17c-.69.14-1.39.25-2.08.41-.2,0-.4.12-.61.15-1.11.21-2.28,0-3.27.64-3.14,2.06-5.08,5.26-6.53,8.64-.76,1.78-1.26,3.68-2.47,5.21a6.89,6.89,0,0,0-.86,1.72c-.63,1.5-1.43,2.92-2.15,4.37a16.2,16.2,0,0,1-4.87,6.14,9.1,9.1,0,0,1-3.33,1.27,6.62,6.62,0,0,1-4.25-.12Z"/>
        <g>
          <path class="cls-7" d="M96.95,178.05a3.88,3.88,0,0,0,.48-.89,7,7,0,0,0,.31-2.55,4.93,4.93,0,0,1,0-.79,1.35,1.35,0,0,0,0-.5,7.7,7.7,0,0,0-.55-1.66l-.59-1.16a3.12,3.12,0,0,0-.76-.75,1.19,1.19,0,0,1-.24-.21,6.54,6.54,0,0,0-.79-.58,5.06,5.06,0,0,0-2.18-1c-.66-.07-1.31-.19-2-.28a10.52,10.52,0,0,0-2.06-.24,19.15,19.15,0,0,0-2,.17A14.19,14.19,0,0,0,85,168c-.28.08-.56.2-.83.26-.11,0-.23,0-.34.06a1.72,1.72,0,0,0-.66.37,15.68,15.68,0,0,0-2.56,1.63c-.44.34-.9.64-1.32,1a12.14,12.14,0,0,1-1.12,1,4.66,4.66,0,0,0-.77.55,6.06,6.06,0,0,0-.87,1.25,11.91,11.91,0,0,0-1.09,2.56,12.33,12.33,0,0,0-.57,3.08,9.55,9.55,0,0,0,.07,2,5.3,5.3,0,0,0,.73,1.69,5.83,5.83,0,0,0,1.93,1.94c.32.2.62.41.93.64a1.15,1.15,0,0,0,.37.19,7.65,7.65,0,0,0,1.91.07c.94,0,1.89,0,2.83-.06a14,14,0,0,0,1.68-.16,1.59,1.59,0,0,0,.53-.21,6,6,0,0,1,1.33-.45,11.67,11.67,0,0,0,2.13-.86,21.24,21.24,0,0,0,2.12-1.3c.95-.66,1.78-1.47,2.74-2.13A6.37,6.37,0,0,0,95.52,180c.37-.44.7-.92,1-1.39Z"/>
          <path class="cls-7" d="M96.95,178.05a3.88,3.88,0,0,0,.48-.89,7,7,0,0,0,.31-2.55,4.93,4.93,0,0,1,0-.79,1.35,1.35,0,0,0,0-.5,7.7,7.7,0,0,0-.55-1.66l-.59-1.16a3.12,3.12,0,0,0-.76-.75,1.19,1.19,0,0,1-.24-.21,6.54,6.54,0,0,0-.79-.58,5.06,5.06,0,0,0-2.18-1c-.66-.07-1.31-.19-2-.28a10.52,10.52,0,0,0-2.06-.24,19.15,19.15,0,0,0-2,.17A14.19,14.19,0,0,0,85,168c-.28.08-.56.2-.83.26-.11,0-.23,0-.34.06a1.72,1.72,0,0,0-.66.37,15.68,15.68,0,0,0-2.56,1.63c-.44.34-.9.64-1.32,1a12.14,12.14,0,0,1-1.12,1,4.66,4.66,0,0,0-.77.55,6.06,6.06,0,0,0-.87,1.25,11.91,11.91,0,0,0-1.09,2.56,12.33,12.33,0,0,0-.57,3.08,9.55,9.55,0,0,0,.07,2,5.3,5.3,0,0,0,.73,1.69,5.83,5.83,0,0,0,1.93,1.94c.32.2.62.41.93.64a1.15,1.15,0,0,0,.37.19,7.65,7.65,0,0,0,1.91.07c.94,0,1.89,0,2.83-.06a14,14,0,0,0,1.68-.16,1.59,1.59,0,0,0,.53-.21,6,6,0,0,1,1.33-.45,11.67,11.67,0,0,0,2.13-.86,21.24,21.24,0,0,0,2.12-1.3c.95-.66,1.78-1.47,2.74-2.13A6.37,6.37,0,0,0,95.52,180c.37-.44.7-.92,1-1.39Z"/>
        </g>
      </g>
      <path class="cls-8" d="M77.14,195.06s-11.31-.89-14,.49S51.55,205.1,56,210.73s12.11-5.43,12.11-5.43,1.24,1.61,2.05,1.87c0,0-10.46,7-6.53,13.27"/>
      <path class="cls-9" d="M57.45,202.38l2.16,3a26.06,26.06,0,0,1-3.53,4.47A6,6,0,0,1,57.45,202.38Z"/>
    </g>
    <path class="cls-10" d="M145.17,194.16a13.87,13.87,0,0,0-2.5,1.61c-2.51,2.05-4.53,4.6-6.93,6.77a34.32,34.32,0,0,1-5.52,4,5.14,5.14,0,0,0-1.8,1.48,2.28,2.28,0,0,0-.29,1.56c.7,4.82,2.57,7.75,5.73,10.91,1.73,1.73,3.59,3.15,5.41,4.78a3.67,3.67,0,0,0,2.89,1.31,11,11,0,0,0,2.74-1.13c3.48-2,6.57-2.81,10.4-4,4.18-1.28,7.21-2.93,9.65-6.05a18.48,18.48,0,0,0,3.74-6.52,11.87,11.87,0,0,0-.38-7.24C164.71,193,153.23,190.07,145.17,194.16Z"/>
  </g>
  <g>
    <path class="cls-11" d="M168.26,186.71s4.16,10.37,7.36,21.94c0,0-28,8.49-28.68-15.62-.15-5.67,2.56-18.34,2.56-18.34s5.08,7.17,3.93,2.43l16.64,3.35Z"/>
    <g>
      <path class="cls-12" d="M74.66,380.8a19.19,19.19,0,0,1-11.12-1.47,22.91,22.91,0,0,1-8.42-6.18,3.18,3.18,0,0,0-2.47-1.43c-9.86-.34-18.25-4.59-26.17-10A60.34,60.34,0,0,1,15.86,353c-2.9-3.16-5.06-6.75-4.2-11.26,1.24-6.49,6.15-12.38,15.47-11.77s18.4,2.83,27.36,5.41c1.27.36,2.77.24,3.65,1.55,3.81,5.48,5.75,11.45,4.79,18.19-.17,1.19.57,1.47,1.55,1.52,2.29.12,4.58.41,6.86.36,4.93-.1,9.9-.11,14.34-2.78a4.21,4.21,0,0,1,.27,2.9,55.27,55.27,0,0,1-5.78,17Z"/>
      <path class="cls-13" d="M97.25,300.55c-1.09,5.68,8.45,3.13-1.62,25.4-1.88,2.86-5.26,13-6.83,16.1-2,3.85-2.29,8.06-3.12,12.17-4.44,2.66-9.41,2.68-14.34,2.78-2.28,0-4.57-.24-6.86-.36-1-.05-1.72-.33-1.55-1.52,1-6.74-1-12.71-4.79-18.19,2.25.19,3.6-1,4.57-2.89a83.42,83.42,0,0,0,3.79-9.59,85.75,85.75,0,0,1,11-20.59C82.15,306,92.85,297.92,97.25,300.55Z"/>
      <path class="cls-13" d="M46.28,352.62c-4.39-2.68-7.49-5.5-9.41-9.42-2.45-5,.45-9.24,6-8.78,2,.17,4,.61,5.94.92a1.35,1.35,0,0,1,1,.65,28.17,28.17,0,0,1,4.7,17.54c-.07,1.12-.38,1.58-1.54,1.31C50.43,354.23,47.8,353.77,46.28,352.62Z"/>
    </g>
    <g>
      <path class="cls-14" d="M54.1,355.55s-38.39,24.15-26.31,35.37,38-26.74,38-26.74Z"/>
      <path class="cls-14" d="M118.78,370.29s-11.05,39.4,6.45,38.78,8.8-40.75,8.8-40.75Z"/>
      <path class="cls-14" d="M196.44,354.26s38.39,24.15,26.31,35.37-38-26.74-38-26.74Z"/>
      <path class="cls-15" d="M199.41,351.76c0,13.86-33.86,25.1-75.63,25.1s-75.63-11.24-75.63-25.1-11.38-31.47,75.63-31.47S199.41,337.9,199.41,351.76Z"/>
      <ellipse class="cls-14" cx="123.78" cy="338.92" rx="75.63" ry="25.1"/>
    </g>
    <g>
      <path class="cls-12" d="M45.5,389.07s14-4.17,21.11-5.4c2.19-.38,4.35-1.48,6.68-.73a4,4,0,0,0,.65.54,23.44,23.44,0,0,1,11.41,13.11c.56,1.51,1.28,1.56,2.59,1.05,6.7-2.63,13.14-5.65,18-11.25,1.65,2.29,2,5,2.48,7.66a53.78,53.78,0,0,1,.77,16.5,7,7,0,0,1-4.25,6,21.89,21.89,0,0,1-18.14.31,4.52,4.52,0,0,0-3.84,0c-8,3.54-16.45,3.56-24.95,2.6a79.28,79.28,0,0,1-13.88-2.8,18.78,18.78,0,0,1-6.69-3.39c-6.06-5-5.86-15.35.36-20.2"/>
      <path class="cls-16" d="M105.92,386.39c-4.84,5.6-11.27,8.62-18,11.25-1.31.51-2,.46-2.59-1.05a23.44,23.44,0,0,0-11.41-13.11,4,4,0,0,1-.65-.54c2.16-.91,2.84-2.72,2.75-4.85-.32-7.53-1.52-15-1.39-22.58a.58.58,0,0,0-.08-.2c.29-2.12.67-4.24.86-6.37a34.62,34.62,0,0,1,5.12-16c2.66,2.84,5.92-1.79,7.88,1.55,7.74-1.7,6.37-7.5,13.12-1.4-1.26,7,.71,44.28,3.46,51.09C105.31,384.94,105.62,385.66,105.92,386.39Z"/>
      <path class="cls-17" d="M55.44,396.53c-2.47-3.09-1.44-7.15,2.39-8.82a58.66,58.66,0,0,1,6.13-2,1.68,1.68,0,0,1,1.4.15c5.72,3,9.42,7.79,12,13.54a1.13,1.13,0,0,1-.61,1.73C71.14,404,59.34,401.42,55.44,396.53Z"/>
    </g>
    <path class="cls-18" d="M184.24,185.45c-5.3,7.1-10.52,14.25-17.23,20.16a6.77,6.77,0,0,1-5.82,1.89c-4.77-.61-9.51-1.42-14.26-2.14-2-.31-3.58-.81-3-3.34-1.4,6.25-3.69,12.21-5.71,18.26-1.18,3.52-2,7.18-3.92,10.44-1.18,3.81-2.32,7.63-3.56,11.41-.62,1.9-1.12,3.83-1.59,5.77-1.38,5.78-1.73,12.73-5,17.86-1,1.53-2.07,3-3.13,4.44-1.3,1.78-3.09,2.4-4.89,3.55-3.47,2.2-6.67,5-10.69,6.19-3.79,1.1-7.24,3.16-11.09,4.17-3.51.93-6.78,2.66-10.09,4.14a40.63,40.63,0,0,1-4.63,2c-.84.26-4.69.36-4.9.79-.1.2.39,1.36.43,1.64a19.18,19.18,0,0,1,0,2.63c-.11,8.36.65,16.7.63,25.07q0,10.91,0,21.81a14.4,14.4,0,0,0,.27,4.32c.35,1.12.53,2.27.82,3.41a7.44,7.44,0,0,0,4.1,5.39c4.9,2.12,9.4,4.83,14.55,6.36a12.53,12.53,0,0,0,4.3.67c2.11-.11,3.89-1.91,5.62-3.08.86-.58,2-1,2.74-1.68s.88-1.38,1.59-1.84a15.18,15.18,0,0,1,3.29-1.34,81.09,81.09,0,0,1,13.77-3.2,43.36,43.36,0,0,0,9.65-2.14,8.37,8.37,0,0,1,3.15-.28,9.53,9.53,0,0,0,4-1.33c2.76-1.48,5.85-1.73,8.82-2.62a41.52,41.52,0,0,0,9.24-4.55,46.35,46.35,0,0,0,9.24-6.75,7,7,0,0,0,1.43-1.68c.07-.28.2-.22.36-.35,0,0,.33-.12.28-.09a4.28,4.28,0,0,0,.94-1.13c2.36-3.15,6.06-5.51,8.29-8.84a26.63,26.63,0,0,1,1.74-2.86,7,7,0,0,0,1.64-2.32c.68-1.56,1.47-3,2.27-4.47,1-1.88,1.3-4.11,1.85-6.17a45.75,45.75,0,0,0,1.26-6c1.48-11.88,2.17-23.86,5.41-35.39,19.89-70.6.47-74.22-12.15-78.87"/>
    <path class="cls-19" d="M184.24,185.45c-5.3,7.1-10.52,14.25-17.23,20.16a6.77,6.77,0,0,1-5.82,1.89c-4.77-.61-9.51-1.42-14.26-2.14-2-.31-3.58-.81-3-3.34.35-1.07.22-2.29,1-3.26,5.38,1.69,11,2.05,16.54,2.54a2.72,2.72,0,0,0,2.3-.91,158.57,158.57,0,0,0,14-15.69Z"/>
    <path class="cls-20" d="M177.7,184.69a158.57,158.57,0,0,1-14,15.69,2.72,2.72,0,0,1-2.3.91c-5.57-.49-11.16-.85-16.54-2.54a7,7,0,0,1,1-4.18c4.93,1,9.94,1.44,14.94,2a1.65,1.65,0,0,0,1.5-.65,144.53,144.53,0,0,0,10.22-12.19Z"/>
    <path class="cls-21" d="M172.55,183.69a144.53,144.53,0,0,1-10.22,12.19,1.65,1.65,0,0,1-1.5.65c-5-.53-10-1-14.94-2a22.17,22.17,0,0,1,.6-3.14c.27-1.5,1.06-1.81,2.36-1.51a77.15,77.15,0,0,0,10.53,2.14,1.79,1.79,0,0,0,1.78-.9c1.82-2.22,3.82-4.31,5.44-6.67,1.28-1.85,2.62-2.14,4.5-1.25A10.32,10.32,0,0,0,172.55,183.69Z"/>
    <g>
      <path class="cls-22" d="M93.36,46.69S72.21,67.63,85.3,100.81c0,0,10.15,19.05,2.15,31,0,0-9.52,10.38-5.26,16.55,0,0,2.68,5.87,13,4.14l5.13,6.22s14.39-3.12,23-7c0,0,5.12,9.38-6.36,18.45,0,0,3.34,17.09,37.08,13.7,0,0,41.84-5.54,56.79-42.47l30.08-43.57L229.2,61.47,199.12,23.24l-58.42-4.62Z"/>
      <path d="M93.77,46.46l33.87.32s29.23-18.55,66.74-21.38c0,0-36.81,4.82-62,22.28l27.54.66,14.36,18.79s35.86-11.2,55.35,2.7c0,0-18.82-12-52.84,2.28,0,0,7,12.31,7.53,21.2,0,0,11.89-9.2,19.93-3.93,0,0,12.55,8,4.82,29.05a31.68,31.68,0,0,1-13,17.25s3.32,32.29,41.11,51c0,0-19.15-27.62-12.93-43.93,0,0,27.05-28,27.24-31.73,0,0-2.1-24.56-15.6-38.95,0,0,2.18-26-4-41.85,0,0-19.19-10.83-32-9.52,0,0-35-18.37-54.28-14.27C145.55,6.4,108.48,22.24,93.77,46.46Z"/>
      <path class="cls-23" d="M184.06,101.28s6.52-7.83,14.29-7.08c0,0,7.36-1.3,7.91,12.3,0,0-.91,11.6-4.67,17.21,0,0-6,8.8-8.21,1.62,0,0-5,2.21-1.83,5.39,0,0,3.27,5.75,12.14-4.83,0,0,12.45-17.17,3.49-32.48,0,0-5-6.19-15-2.09C192.14,91.31,183.47,93.63,184.06,101.28Z"/>
      <path d="M91,85.52s-1-4.38,4.82-6.83c0,0,7.74-3.33,16.89,2.17,0,0,8.19,4.86,10,11.35,0,0,1,2.61-3.82-.85,0,0-9.4-8.27-16.71-7.52a60.84,60.84,0,0,0-9,2.23S91.07,86.66,91,85.52Z"/>
      <g>
        <path class="cls-24" d="M97.77,112.1a15.94,15.94,0,0,1,.82-8.62c2.13-5,7.24-9,12.82-8.59a19.28,19.28,0,0,1,18,17c.63,5.14-2.2,8.84-5.85,12a19.53,19.53,0,0,1-8.42,4.16c-6,1.4-10.73-.61-13.82-6A29.15,29.15,0,0,1,97.77,112.1Z"/>
        <g>
          <path class="cls-25" d="M99.14,117.9a11,11,0,1,1,14.42,5.61A11,11,0,0,1,99.14,117.9Zm12.4-13.67c-1.85-.29-3.12.66-4,3-2.08.13-4.7,2.7-5.13,5a7.72,7.72,0,0,0,4.21,8.42,7.13,7.13,0,0,0,8.86-2.39,7.5,7.5,0,0,0-.43-9.21l-.61-.78C114.29,105.78,113.38,104.51,111.54,104.23Z"/>
          <path class="cls-26" d="M107.57,107.22c-2.08.13-4.7,2.7-5.13,5a7.72,7.72,0,0,0,4.21,8.42,7.13,7.13,0,0,0,8.86-2.39,7.5,7.5,0,0,0-.43-9.21l-.61-.78c-.8,1.65-1.88,3-3.94,2.59S107.68,109.14,107.57,107.22Z"/>
          <path class="cls-27" d="M107.57,107.22c.11,1.92,1,3.31,3,3.66s3.14-.94,3.94-2.59c-.17-2.51-1.08-3.77-2.92-4.06S108.42,104.89,107.57,107.22Z"/>
        </g>
      </g>
      <path class="cls-28" d="M96.09,155.94c2.43-1.83,5.37-2,8.17-2,6.31-.2,12.57-.5,18.54-2.84,1.06-.41,1.37.2,1.75,1,2.47,5,1.78,9.63-1.35,14.11a57,57,0,0,0-3.31,5.72c-.34.63-1,1.33-.3,2.16-.87.22.19,1.93-1.35,1.68s-3.54-.14-4.62-1.78c-.72-1.1.06-2,.69-2.91a52.31,52.31,0,0,1,7.18-8c2.78-2.62,3.41-5.27,2.13-8.51-.54-1.38-1.12-1.82-2.68-1.2-6.19,2.46-12.33,5.06-18.86,6.54C96.88,161,96.89,161,96.09,155.94Z"/>
    </g>
  </g>
  <g>
    <g>
      <ellipse class="cls-29" cx="77.69" cy="298.92" rx="69.14" ry="23.87"/>
      <ellipse class="cls-30" cx="77.18" cy="297.42" rx="60.43" ry="20.87"/>
    </g>
    <path class="cls-31" d="M70.24,315.61A62.5,62.5,0,0,1,55,314.4c-4.75-.92-9.52-1.19-14.16-2.71-1.21-.4-2.59-1-2.69-2.16-.06-.66.38-1.31.27-2-.34-2-4-2.77-5.67-3.34-.93-.31-1.71-1.3-1.12-2,.2-.23.54-.39.65-.66.58-1.33-5.08-1.8-3.88-4.6-.51,1.19-2.89,1-3.43-.21s.46-2.57,1.83-3.07a1.82,1.82,0,0,1-2.66-.81,3.12,3.12,0,0,1,.81-2.76c.83-1.11,2.39-2.49,4.11-2.09-1,.18-1.47-1-1.42-1.68.26-3.32,6.72-2.18,9.49-2.54,4.65-.59,82.91-4.64,84.41-1.82,1.58-.3,3.45,0,4.35,1.29a2.68,2.68,0,0,1-1.05,3.83,4,4,0,0,1,4.45,2.48c.59,2.18-2.7,2.93-2.5,5,.17,1.74,1.79,1.94,0,3.66-1.3,1.24-3.47,1.51-5.25,1.89a3,3,0,0,1-1.55,3.26c-1.17.52-2.21,0-3.37.23a13.74,13.74,0,0,0-2.44,1c-1.81.68-3.82.79-5.68,1.31a1.11,1.11,0,0,1,1.55,1c-.09.7-.82,1.22-1.54,1.54a8.93,8.93,0,0,1-7.2,0c1.3,1.52.24,3.91-1.74,4.74-3,1.26-5.83-.83-8.94-.33l-6.35,1A131.1,131.1,0,0,1,70.24,315.61Z"/>
    <path class="cls-32" d="M70.24,312.41A62.5,62.5,0,0,1,55,311.19c-4.75-.92-9.52-1.19-14.16-2.71-1.21-.4-2.59-1-2.69-2.16-.06-.66.38-1.31.27-2-.34-2-4-2.77-5.67-3.34-.93-.31-1.71-1.3-1.12-2,.2-.23.54-.39.65-.66.58-1.33-5.08-1.8-3.88-4.6-.51,1.19-2.89,1-3.43-.21s.46-2.57,1.83-3.07a1.82,1.82,0,0,1-2.66-.81,3.12,3.12,0,0,1,.81-2.76c.83-1.11,2.39-2.49,4.11-2.09-1,.18-1.47-1-1.42-1.68a3.94,3.94,0,0,1,1.71-2.52,7.12,7.12,0,0,1,5.32-1.42c-4.45-.7-1.1-2.76,1.8-2.8-.89,0-2.84-.12-2.14-1.49a8.07,8.07,0,0,1,3.42-2.83c.5-.27,1.06-.44,1.55-.73.12-.07.22-.19.35-.25A3.08,3.08,0,0,1,41,271a2.31,2.31,0,0,1,1,.09,5,5,0,0,1,.68.52,3.28,3.28,0,0,1,1,1.39c.1.23.06.23.31.26a4.11,4.11,0,0,0,.63,0c1.13,0,1.27-1.43,2-2,.38-.27,1-.16,1.4-.16s.4.06.57.35.19.51.48.39a4.17,4.17,0,0,0,0-.87,4.08,4.08,0,0,1,.29-.8,12.29,12.29,0,0,1,1.28-2.91c.3-.49.45-.8,1.06-.8a2.32,2.32,0,0,1,1,.11c.41.19.61.65,1,.91a8.24,8.24,0,0,0,1.55.84,25.73,25.73,0,0,0-.25-2.58,2.2,2.2,0,0,1,.34-1.36,3,3,0,0,1,.79-.87,3,3,0,0,1,2.1-.25,1.81,1.81,0,0,1,.77.38c.15.14.24.35.48.33.1-.27-.08-.49-.16-.74a3.86,3.86,0,0,1-.07-1.12.75.75,0,0,1,.34-.72,3.56,3.56,0,0,1,1-.72,4.46,4.46,0,0,1,1.23-.06,2.13,2.13,0,0,0,.75-.16c.3-.21.27-.75.27-1.07,0-.88,0-1.75,0-2.63,0-.58.31-.82.62-1.27s.73-.84,1.35-.62a2.1,2.1,0,0,1,1.21.72,3.77,3.77,0,0,1,.33,2.83c.92-1.33,2-2.79,3.79-3.09s3.74,1.62,2.52,2.75a12.53,12.53,0,0,1,3.89-2.44,3.44,3.44,0,0,1,2.43-.25c.77.29,1.1,1.35.4,1.74,2.31-1.28,8.15-2.84,6.56,1.54a6.9,6.9,0,0,1,4.09-1.52c1.52.1,2.85,1.73,1.88,2.74a5.35,5.35,0,0,1,4-1.33c1.45.22,2.64,1.68,1.94,2.79.47-.75,0-2.87.89-3.34,2.08-1.06,2.87,4,3.05,4.91-.77-3.74,7-5,5,1.47.28-.89,2.25-2.22,3.46-1.81,1.74.59.92,2.81.31,3.92a3.34,3.34,0,0,1,4.46-.64,2.37,2.37,0,0,1-.25,3.88c1.6-.93,4-1,5.32.17a2.32,2.32,0,0,1-1.06,4,3.48,3.48,0,0,1,4.07,1.5,2.68,2.68,0,0,1-1.69,3.52,3.93,3.93,0,0,1,4.43,1.16,2.68,2.68,0,0,1-1.05,3.83,4,4,0,0,1,4.45,2.48c.59,2.18-2.7,2.93-2.5,5,.17,1.74,1.79,1.94,0,3.66-1.3,1.24-3.47,1.51-5.25,1.89a3,3,0,0,1-1.55,3.26,6.81,6.81,0,0,1-3.77.12,8.43,8.43,0,0,0-2.37-.15,1.71,1.71,0,0,1,1.66.62l-7,2a1.11,1.11,0,0,1,1.55,1c-.09.7-.82,1.22-1.54,1.54a8.93,8.93,0,0,1-7.2,0c1.3,1.52.24,3.91-1.74,4.74-3,1.26-5.83-.83-8.94-.33l-6.35,1A131.1,131.1,0,0,1,70.24,312.41Z"/>
    <g>
      <g>
        <path class="cls-33" d="M45.92,291.44a3.74,3.74,0,0,1,.1,2.13c-1.22,2.78-7.16.16-5.72-2.78a7.13,7.13,0,0,1,.81-1.1c.55-.73.85-2,2-2.1S45.45,289.63,45.92,291.44Z"/>
        <path class="cls-33" d="M69.91,262.76a2.52,2.52,0,0,1-.22.93c-.55,1.24-3.81,3-5,2.23s-1.1-2.09-.87-3.21c.39-1.89-.15-3.5,2.41-3.5A3.81,3.81,0,0,1,69.91,262.76Z"/>
        <path class="cls-33" d="M73.12,296.8a3.55,3.55,0,0,1-3.55,3.55c-2.19,0-2.34-2.53-2.48-4.35-.1-1.34.43-2.48,1.85-2.7S73.12,295.53,73.12,296.8Z"/>
        <path class="cls-33" d="M35.41,290.66c0,1.46-1.54,2.65-3.44,2.65-2.13,0-2.27-1.89-2.41-3.25a1.76,1.76,0,0,1,1.79-2C32.69,287.88,35.41,289.71,35.41,290.66Z"/>
        <path class="cls-33" d="M86,281.92c0,1.3-.77,3.1-2.21,3.41-4.66,1-6.1-6.94-1-6.94A3.16,3.16,0,0,1,86,281.92Z"/>
        <path class="cls-33" d="M86.84,259.46c0,1.3-.77,3.1-2.21,3.41-4.66,1-6.1-6.94-1-6.94A3.16,3.16,0,0,1,86.84,259.46Z"/>
        <path class="cls-33" d="M94.49,312a2.83,2.83,0,0,1-.56,2.12c-2,2.53-5.74.71-5.74-2.24a3.58,3.58,0,0,1,2.21-3.29c1.84-.75,2.3.18,3.25,1.6a5.57,5.57,0,0,1,.75,1.41A2.66,2.66,0,0,1,94.49,312Z"/>
        <path class="cls-33" d="M119.54,293.7a2.6,2.6,0,0,1-1.4,3.22,3.69,3.69,0,0,1-1.61.27,3.32,3.32,0,0,1-2.07-5.68C116.59,289.48,119,291.51,119.54,293.7Z"/>
        <path class="cls-33" d="M53.19,307.27a2.6,2.6,0,0,1-1.4,3.22,3.69,3.69,0,0,1-1.61.27,3.32,3.32,0,0,1-2.07-5.68C50.24,303.05,52.66,305.08,53.19,307.27Z"/>
        <path class="cls-33" d="M109.51,267.74q0,.13,0,.25c.08,1.27-.31,2.8-1.69,3.14a8.1,8.1,0,0,1-3.38-.06,3,3,0,0,1-1.25-1.59,2.2,2.2,0,0,1-.27-1.13,2.32,2.32,0,0,1,.45-1l.88-1.32a3.9,3.9,0,0,1,1.64-1.62,2.46,2.46,0,0,1,2.66.81A4.46,4.46,0,0,1,109.51,267.74Z"/>
        <path class="cls-33" d="M121.57,280.22q0,.09,0,.19c.05.93-.22,2-1.2,2.29a5.56,5.56,0,0,1-2.39,0,2.2,2.2,0,0,1-.89-1.16,1.65,1.65,0,0,1-.19-.83,1.72,1.72,0,0,1,.32-.71l.62-1A2.81,2.81,0,0,1,119,277.8a1.71,1.71,0,0,1,1.88.59A3.32,3.32,0,0,1,121.57,280.22Z"/>
      </g>
      <g>
        <ellipse class="cls-34" cx="45.15" cy="303.4" rx="1.77" ry="3.54" transform="translate(-215.25 141.29) rotate(-49.63)"/>
        <ellipse class="cls-34" cx="35.5" cy="283.73" rx="1.77" ry="3.86" transform="translate(-6.47 0.88) rotate(-1.31)"/>
        <ellipse class="cls-34" cx="72.31" cy="263.08" rx="3.3" ry="1.77" transform="translate(-176.86 151.92) rotate(-50.59)"/>
        <ellipse class="cls-34" cx="98.26" cy="293.52" rx="3.78" ry="1.77" transform="translate(-190.9 183.08) rotate(-50.59)"/>
        <ellipse class="cls-34" cx="92.27" cy="272.15" rx="3.46" ry="1.3" transform="translate(-176.57 170.65) rotate(-50.59)"/>
        <ellipse class="cls-34" cx="69.76" cy="288.59" rx="2.09" ry="1.3" transform="translate(-197.49 159.26) rotate(-50.59)"/>
        <ellipse class="cls-34" cx="79.38" cy="290.83" rx="1.77" ry="4.71" transform="translate(-86.23 38.93) rotate(-18.06)"/>
        <ellipse class="cls-34" cx="70.23" cy="309.17" rx="1.77" ry="3.44" transform="translate(-92.37 36.99) rotate(-18.06)"/>
        <ellipse class="cls-34" cx="106.4" cy="298.42" rx="1.77" ry="2.8" transform="translate(-208.86 329.92) rotate(-76.08)"/>
        <ellipse class="cls-34" cx="114.73" cy="284.07" rx="1.77" ry="3.45" transform="translate(-188.6 327.1) rotate(-76.08)"/>
        <ellipse class="cls-34" cx="107.16" cy="279.69" rx="3.42" ry="1.77" transform="translate(-114.15 77.87) rotate(-26.67)"/>
        <ellipse class="cls-34" cx="97.17" cy="263.94" rx="1.77" ry="3.96" transform="translate(-182.4 294.78) rotate(-76.08)"/>
        <ellipse class="cls-34" cx="114.03" cy="273.78" rx="1.77" ry="2.67" transform="translate(-179.13 318.61) rotate(-76.08)"/>
        <ellipse class="cls-34" cx="87.42" cy="264.3" rx="1.77" ry="3.88" transform="translate(-190.15 285.59) rotate(-76.08)"/>
        <ellipse class="cls-34" cx="42.75" cy="273.95" rx="1.77" ry="3.47" transform="translate(-233.44 249.55) rotate(-76.08)"/>
        <ellipse class="cls-34" cx="54.97" cy="277.03" rx="1.77" ry="3.51" transform="translate(-227.15 263.76) rotate(-76.08)"/>
        <ellipse class="cls-34" cx="67.92" cy="284.01" rx="1.77" ry="3.36" transform="translate(-224.09 281.62) rotate(-76.08)"/>
        <ellipse class="cls-34" cx="52.55" cy="283.21" rx="1.77" ry="3.36" transform="translate(-234.99 266.1) rotate(-76.08)"/>
        <ellipse class="cls-34" cx="76.43" cy="308.92" rx="1.77" ry="3.3" transform="translate(-241.8 308.8) rotate(-76.08)"/>
        <ellipse class="cls-34" cx="91.21" cy="287.59" rx="1.77" ry="3.61" transform="translate(-209.87 306.95) rotate(-76.08)"/>
        <ellipse class="cls-34" cx="80.7" cy="274.5" rx="1.77" ry="3.75" transform="translate(-205.15 286.81) rotate(-76.08)"/>
        <ellipse class="cls-34" cx="72.43" cy="270.86" rx="3.44" ry="1.77" transform="translate(-207.43 287.77) rotate(-78.49)"/>
        <ellipse class="cls-34" cx="67.87" cy="276.51" rx="3.88" ry="1.77" transform="translate(-216.63 287.82) rotate(-78.49)"/>
        <ellipse class="cls-34" cx="52.05" cy="299.62" rx="3.16" ry="1.77" transform="translate(-251.93 290.81) rotate(-78.49)"/>
        <ellipse class="cls-34" cx="72.69" cy="290.4" rx="3.16" ry="1.77" transform="translate(-226.37 303.65) rotate(-78.49)"/>
        <ellipse class="cls-34" cx="64.17" cy="307.5" rx="4.71" ry="1.77" transform="translate(-249.95 309.01) rotate(-78.49)"/>
        <ellipse class="cls-34" cx="95.65" cy="280.06" rx="2.86" ry="1.77" transform="translate(-197.87 317.89) rotate(-78.49)"/>
        <ellipse class="cls-34" cx="88.03" cy="295.87" rx="3.12" ry="1.77" transform="translate(-219.46 323.07) rotate(-78.49)"/>
        <ellipse class="cls-34" cx="54.41" cy="290.31" rx="2.84" ry="1.77" transform="translate(-240.92 285.68) rotate(-78.49)"/>
        <ellipse class="cls-34" cx="80.9" cy="302.38" rx="3.57" ry="1.77" transform="translate(-231.54 321.3) rotate(-78.49)"/>
        <ellipse class="cls-34" cx="94.29" cy="300.85" rx="2.7" ry="1.77" transform="translate(-219.32 333.2) rotate(-78.49)"/>
        <ellipse class="cls-34" cx="75.13" cy="280.08" rx="3.02" ry="1.77" transform="matrix(0.2, -0.98, 0.98, 0.2, -214.31, 297.79)"/>
        <ellipse class="cls-34" cx="45.74" cy="284.37" rx="1.77" ry="3.42" transform="translate(-78.05 24.3) rotate(-16.32)"/>
        <ellipse class="cls-34" cx="63.32" cy="277.15" rx="1.77" ry="3.56" transform="translate(-75.31 28.95) rotate(-16.32)"/>
        <ellipse class="cls-34" cx="56.51" cy="300.05" rx="1.77" ry="3.37" transform="translate(-82.02 27.96) rotate(-16.32)"/>
        <ellipse class="cls-35" cx="56.73" cy="283.21" rx="1.24" ry="3.32" transform="translate(-195.79 143) rotate(-49.63)"/>
        <ellipse class="cls-34" cx="48.56" cy="296.12" rx="2.84" ry="1.77" transform="translate(-251.3 284.6) rotate(-78.49)"/>
        <ellipse class="cls-34" cx="33.73" cy="293.52" rx="2.84" ry="1.77" transform="matrix(0.2, -0.98, 0.98, 0.2, -260.62, 267.99)"/>
        <ellipse class="cls-34" cx="45.08" cy="291.67" rx="1.77" ry="3.42" transform="translate(-80.13 24.41) rotate(-16.32)"/>
        <ellipse class="cls-35" cx="48.56" cy="293.12" rx="1.24" ry="3.32" transform="translate(-20.65 4.18) rotate(-4.06)"/>
        <ellipse class="cls-35" cx="63.1" cy="287.2" rx="1.24" ry="3.32" transform="translate(-196.59 149.25) rotate(-49.63)"/>
        <ellipse class="cls-35" cx="88.11" cy="273.88" rx="1.24" ry="2.41" transform="translate(-177.63 163.62) rotate(-49.63)"/>
        <ellipse class="cls-35" cx="92.27" cy="283.73" rx="2.41" ry="1.24" transform="translate(-147.33 105.94) rotate(-35.41)"/>
        <ellipse class="cls-35" cx="75.99" cy="296.77" rx="1.24" ry="2.67" transform="translate(-199.33 162.45) rotate(-49.63)"/>
        <ellipse class="cls-35" cx="61.15" cy="296.45" rx="1.24" ry="3.32" transform="translate(-204.32 151.03) rotate(-49.63)"/>
        <ellipse class="cls-35" cx="79.68" cy="262.33" rx="1.24" ry="3.32" transform="translate(-37.27 14.36) rotate(-8.35)"/>
        <ellipse class="cls-35" cx="97.33" cy="308.22" rx="1.24" ry="3.32" transform="translate(-43.75 17.41) rotate(-8.35)"/>
        <ellipse class="cls-35" cx="102.62" cy="265.53" rx="1.24" ry="3.32" transform="matrix(0.99, -0.15, 0.15, 0.99, -37.49, 17.73)"/>
        <ellipse class="cls-36" cx="39.96" cy="298.18" rx="4.71" ry="1.77" transform="translate(-260.85 293.73) rotate(-81.52)"/>
        <ellipse class="cls-36" cx="40.88" cy="282.47" rx="3.15" ry="1.77" transform="translate(-231.83 198.28) rotate(-64.61)"/>
        <ellipse class="cls-35" cx="44.91" cy="287.07" rx="1.24" ry="3.32" transform="translate(-202.9 135.35) rotate(-49.63)"/>
        <ellipse class="cls-35" cx="37.27" cy="288.85" rx="3.32" ry="1.24" transform="translate(-184.08 99.57) rotate(-42.11)"/>
        <ellipse class="cls-36" cx="29.06" cy="286.33" rx="3.15" ry="1.77" transform="translate(-242.07 189.8) rotate(-64.61)"/>
        <ellipse class="cls-36" cx="67.92" cy="270.86" rx="3.15" ry="1.77" transform="translate(-205.9 216.07) rotate(-64.61)"/>
        <ellipse class="cls-36" cx="63.1" cy="266.25" rx="3.15" ry="1.77" transform="translate(-204.49 209.08) rotate(-64.61)"/>
        <ellipse class="cls-36" cx="56.25" cy="271.91" rx="1.77" ry="3.67" transform="translate(-185.65 135.6) rotate(-48.91)"/>
        <ellipse class="cls-36" cx="99.6" cy="271.71" rx="1.77" ry="2.38" transform="translate(-170.64 168.2) rotate(-48.91)"/>
        <ellipse class="cls-36" cx="89.86" cy="278.25" rx="1.77" ry="4.17" transform="translate(-178.91 163.1) rotate(-48.91)"/>
        <ellipse class="cls-34" cx="82.18" cy="280.14" rx="1.3" ry="2.46" transform="translate(-166.12 126.58) rotate(-41.92)"/>
        <ellipse class="cls-35" cx="82.6" cy="283.77" rx="2.41" ry="1.24" transform="translate(-165.79 123.62) rotate(-40.96)"/>
        <ellipse class="cls-36" cx="86.19" cy="283.55" rx="2.87" ry="1.77" transform="translate(-162.77 122.77) rotate(-40.24)"/>
        <ellipse class="cls-34" cx="99.92" cy="301.86" rx="2.86" ry="1.77" transform="translate(-215.81 339.52) rotate(-78.49)"/>
        <ellipse class="cls-35" cx="92.38" cy="295.68" rx="1.24" ry="2.41" transform="translate(-192.73 174.55) rotate(-49.63)"/>
        <ellipse class="cls-35" cx="86.87" cy="305.57" rx="2.41" ry="1.24" transform="translate(-179.04 131.75) rotate(-40.96)"/>
        <ellipse class="cls-36" cx="90.46" cy="305.35" rx="2.87" ry="1.77" transform="translate(-175.84 130.69) rotate(-40.24)"/>
        <ellipse class="cls-36" cx="102.7" cy="283.1" rx="1.77" ry="3.82" transform="translate(-178.16 174.44) rotate(-48.91)"/>
        <ellipse class="cls-36" cx="119.65" cy="288.59" rx="2.78" ry="1.77" transform="translate(-191.75 313.65) rotate(-72.08)"/>
        <ellipse class="cls-36" cx="91.69" cy="293.52" rx="1.77" ry="3.57" transform="translate(-118.26 68.84) rotate(-25.71)"/>
        <ellipse class="cls-34" cx="114.41" cy="291.77" rx="3.12" ry="1.77" transform="translate(-194.32 345.64) rotate(-78.49)"/>
        <ellipse class="cls-35" cx="118.65" cy="279.63" rx="2.41" ry="1.24" transform="translate(-140.07 120.47) rotate(-35.41)"/>
        <ellipse class="cls-36" cx="118.07" cy="289.42" rx="1.77" ry="3.57" transform="translate(-113.87 79.88) rotate(-25.71)"/>
        <ellipse class="cls-36" cx="100.23" cy="287.59" rx="1.77" ry="3.57" transform="translate(-114.84 71.96) rotate(-25.71)"/>
        <ellipse class="cls-36" cx="81.84" cy="289.31" rx="1.24" ry="3.3" transform="translate(-189.99 160.85) rotate(-48.91)"/>
        <ellipse class="cls-34" cx="59.99" cy="291.82" rx="3.02" ry="1.77" transform="translate(-237.93 292.35) rotate(-78.49)"/>
        <ellipse class="cls-35" cx="67.46" cy="295.51" rx="2.41" ry="1.24" transform="translate(-177.2 116.56) rotate(-40.96)"/>
        <ellipse class="cls-36" cx="66.7" cy="301.05" rx="1.24" ry="3.3" transform="translate(-204.03 153.46) rotate(-48.91)"/>
        <ellipse class="cls-36" cx="73.2" cy="305.86" rx="1.24" ry="3.3" transform="translate(-205.43 160.01) rotate(-48.91)"/>
        <ellipse class="cls-36" cx="77.13" cy="267.54" rx="1.24" ry="3.3" transform="translate(-175.2 149.84) rotate(-48.91)"/>
        <ellipse class="cls-36" cx="84.81" cy="268.18" rx="1.24" ry="3.3" transform="translate(-173.05 155.84) rotate(-48.91)"/>
        <ellipse class="cls-36" cx="103.79" cy="271.41" rx="1.24" ry="3.3" transform="translate(-168.98 171.26) rotate(-48.91)"/>
        <ellipse class="cls-36" cx="110.27" cy="289.65" rx="3.3" ry="1.24" transform="translate(-189.86 366.97) rotate(-83.61)"/>
      </g>
    </g>
  </g>
  <g>
    <path class="cls-1" d="M158.1,310.76c0-.07-.08.09-.11.15a2.66,2.66,0,0,1-.21.26,5.9,5.9,0,0,0-.35.58l-.54.8c-.28.4-.66.71-.92,1.13a4,4,0,0,1-.64.79,18,18,0,0,1-1.44,1.31,5.69,5.69,0,0,1-1.52.92,17.24,17.24,0,0,1-2.4.84,10.2,10.2,0,0,1-2.23.21h-1.46a5.07,5.07,0,0,0-1.3.06,3.36,3.36,0,0,1-.73.21c-.43,0-.83-.2-1.25-.2a.8.8,0,0,1-.31,0,.69.69,0,0,0-.18-.08h-.13a1.21,1.21,0,0,1-.31-.15c-.07,0-.15,0-.22-.07a1.91,1.91,0,0,0-.34-.14,1.38,1.38,0,0,1-.39-.19c-.08-.05-.09,0-.11-.1a.31.31,0,0,1,0-.19c0-.08.09-.08.16-.13s.09-.11.19-.14.26-.11.41-.17.34-.11.5-.19.27-.11.4-.17.16-.12.26-.17a7.9,7.9,0,0,0,.79-.45c.13-.09.24-.19.37-.27s.22-.09.33-.15a6.57,6.57,0,0,0,.68-.37c.22-.15.47-.26.68-.42a1.86,1.86,0,0,0,.35-.3c.14-.18.18-.36-.1-.36a1,1,0,0,0-.55.13c-.15.09-.27.22-.42.31-.4.26-.82.49-1.22.75-.55.37-1.1.75-1.68,1.08a21.35,21.35,0,0,1-3.41,1.6,13.8,13.8,0,0,1-1.58.46c-.73.16-1.45.46-2.18.66s-1.31.31-1.95.54a3.93,3.93,0,0,1-2.93-.22c-.75-.47-2-1.4-1.74-2.41.16-.73,1-1.25,1.58-1.64s1.3-.42,1.92-.77,1.16-.71,1.76-1a5.28,5.28,0,0,0,1.43-1.11,10.47,10.47,0,0,1,.75-1.06,4.92,4.92,0,0,0,.87-1.62q.86-2,1.69-3.92c.19-.45.54-1,0-1.42s-1,.11-1.4.38c-2.77,1.82-5.51,3.7-8.29,5.51a26.6,26.6,0,0,1-6.87,3.5c-1,.3-2.09.49-2.87-.45a2.82,2.82,0,0,1-.25-2.94,17.9,17.9,0,0,1,4.43-6.27c3.37-3.29,6.86-6.46,10.29-9.69,2.51-2.37,2.4-3.18-.72-4.74a54.82,54.82,0,0,1-6-2.86,5.07,5.07,0,0,1-2.47-3,3,3,0,0,1,2.19-4c3.65-1.31,7.48-1.07,11.26-1.12,2.28,0,4.55.07,6.83.17a3.64,3.64,0,0,0,3.41-1.36q1.27-1.63,2.49-3.29,4-5.48,7.53-11.33a133.67,133.67,0,0,0,6.32-11.93A131.66,131.66,0,0,0,169.38,238q1.12-3.22,2.07-6.5.48-1.65.91-3.31c.13-.49.84-2.6,1.08-3.1.15-.32.22-.73.57-.82a1.9,1.9,0,0,1,1,.18c5,1.85,10.05.81,15-.54a1.24,1.24,0,0,1,.65-.06c.59.16.6,1,.48,1.59-4.57,22.38-13.19,43.85-22.7,64.57a8.23,8.23,0,0,0-.75,3.83c.07,2.22.14,4.43.18,6.65,0,0,1.5,5.38-3.9,11.07a17.9,17.9,0,0,1-10.13,5.62.33.33,0,0,1-.28-.57C155,315.24,158,312.22,158.1,310.76Z"/>
    <path class="cls-10" d="M174.24,200.4a13.87,13.87,0,0,0-1,2.79c-.77,3.15-.86,6.4-1.47,9.58a34.32,34.32,0,0,1-2,6.53,5.14,5.14,0,0,0-.55,2.26,2.28,2.28,0,0,0,.71,1.42c3.46,3.43,6.71,4.65,11.14,5.28,2.42.34,4.76.36,7.2.56a3.67,3.67,0,0,0,3.1-.69,11,11,0,0,0,1.52-2.55c1.59-3.68,3.56-6.19,5.92-9.44,2.57-3.54,4-6.68,4.08-10.64a18.48,18.48,0,0,0-.93-7.46,11.87,11.87,0,0,0-4.65-5.56C189.18,187.76,178.22,192.28,174.24,200.4Z"/>
  </g>
  <g>
    <path class="cls-32" d="M88.11,184.24a10,10,0,0,0,5.81-5.29.83.83,0,0,1,.37-.47.94.94,0,0,1,.61.06,3.31,3.31,0,0,0,3.69-2,6.25,6.25,0,0,0,0-4.47c-.48-1.45-1.23-2.79-1.78-4.21s-1-3.27-2-4.57-3.16-2-4.42-.87c-.66.58-1.05,1.59-1.92,1.74a2.47,2.47,0,0,0-4.93-.27c-1.13-.76-2.5-1.55-3.78-1.08a3.07,3.07,0,0,0-1.75,2.46,13.62,13.62,0,0,0,.08,3.16,2.14,2.14,0,0,1-.14,1.14c-.42.82-1.62.87-2.2,1.58a2.45,2.45,0,0,0-.25,2.22,2.37,2.37,0,0,1,.17.84c0,.32.06.56-.16.8a5.17,5.17,0,0,0-.55.53,6.75,6.75,0,0,0-.68,1.18c-.1.23-.06.48-.18.71s-.31.27-.4.44a2.49,2.49,0,0,0-.2,1.17,2.24,2.24,0,0,0,.59,1.35,7.46,7.46,0,0,0,1.17,1.24,9.82,9.82,0,0,0,1.66,1.24,4.08,4.08,0,0,0,1,.26,4,4,0,0,1,.81.25,7.08,7.08,0,0,0,1.11.64c.43.11.87.07,1.31.2a6.77,6.77,0,0,0,2.19.41c.62,0,1.23-.11,1.85-.08A7.43,7.43,0,0,0,88.11,184.24Z"/>
    <ellipse class="cls-34" cx="90.81" cy="168.58" rx="3.02" ry="1.62" transform="translate(-97.09 131.71) rotate(-50.59)"/>
    <ellipse class="cls-34" cx="88.74" cy="178.51" rx="3.02" ry="1.62" transform="translate(-105.51 133.73) rotate(-50.59)"/>
    <ellipse class="cls-34" cx="80.12" cy="172.63" rx="3.02" ry="1.62" transform="translate(-104.12 124.93) rotate(-50.59)"/>
    <ellipse class="cls-35" cx="85.31" cy="168.45" rx="1.24" ry="3.32" transform="translate(-23.57 14.18) rotate(-8.35)"/>
    <ellipse class="cls-35" cx="94.43" cy="172.58" rx="1.24" ry="3.32" transform="translate(-24.07 15.55) rotate(-8.35)"/>
    <ellipse class="cls-35" cx="81.56" cy="178.7" rx="1.24" ry="3.32" transform="translate(-25.1 13.75) rotate(-8.35)"/>
    <path class="cls-33" d="M88.83,175.4c0,1.3-.77,3.1-2.21,3.41-4.66,1-6.1-6.94-1-6.94A3.16,3.16,0,0,1,88.83,175.4Z"/>
  </g>
</svg>
