<svg id="Layer_1" data-name="Layer 1" xmlns="http://www.w3.org/2000/svg" xmlns:xlink="http://www.w3.org/1999/xlink" width="260" height="420" viewBox="0 0 260 420">
  <defs>
    <style>
      .cls-1 {
        fill: #a46838;
      }

      .cls-2 {
        clip-path: url(#clip-path);
      }

      .cls-3 {
        fill: #875330;
      }

      .cls-4 {
        fill: none;
      }

      .cls-4, .cls-8 {
        stroke: #875330;
        stroke-miterlimit: 10;
        stroke-width: 1.15px;
      }

      .cls-5 {
        clip-path: url(#clip-path-2);
      }

      .cls-6 {
        fill: gray;
      }

      .cls-7 {
        fill: #b3b3b3;
      }

      .cls-8 {
        fill: #a46635;
      }

      .cls-9 {
        fill: #ba8365;
      }

      .cls-10 {
        fill: #478cca;
      }

      .cls-11 {
        fill: #9b5a2b;
      }

      .cls-12 {
        fill: #0a0807;
      }

      .cls-13 {
        fill: #9a5b2a;
      }

      .cls-14 {
        fill: #c67634;
      }

      .cls-15 {
        fill: #a35c28;
      }

      .cls-16 {
        fill: #a46737;
      }

      .cls-17 {
        fill: #a36535;
      }

      .cls-18 {
        fill: #498ecb;
      }

      .cls-19 {
        fill: #d12127;
      }

      .cls-20 {
        fill: #2daf4a;
      }

      .cls-21 {
        fill: #fbe400;
      }

      .cls-22 {
        fill: #a56636;
      }

      .cls-23 {
        fill: #6f421d;
      }

      .cls-24 {
        fill: #724625;
      }

      .cls-25 {
        fill: #f8f6f3;
      }

      .cls-26 {
        fill: #532f26;
      }

      .cls-27 {
        fill: #080707;
      }

      .cls-28 {
        fill: #f7f6f5;
      }

      .cls-29 {
        fill: #522717;
      }

      .cls-30 {
        fill: #6b3217;
      }

      .cls-31 {
        fill: #572610;
      }

      .cls-32 {
        fill: #d98f38;
      }

      .cls-33 {
        fill: #acc954;
      }

      .cls-34 {
        fill: #b87127;
      }

      .cls-35 {
        fill: #dba158;
      }

      .cls-36 {
        fill: #c77a2a;
      }
    </style>
    <clipPath id="clip-path">
      <path id="_Clipping_Path_" data-name="&lt;Clipping Path&gt;" class="cls-1" d="M138.89,210.73c3.36,5.23-5.05,12.09-5.05,12.09-51.35,53.76-98.25,2.91-100.65-8.1s1.32-11.47,1.32-11.47c.16-8.14,5.75-7.47,5.75-7.47.45-9.6,7-6.82,7-6.82.65-8.84,6.51-6.79,6.51-6.79,3.42.76,10.26,11.64,10.26,11.64,7.23-1.1,11.54,4.84,12.45,10,1.25,7-.36,19.17-.36,19.17,13.32,30.21,52.54-14.23,52.54-14.23S134.29,203.58,138.89,210.73Z"/>
    </clipPath>
    <clipPath id="clip-path-2">
      <path id="_Clipping_Path_2" data-name="&lt;Clipping Path&gt;" class="cls-1" d="M138.89,210.73c3.36,5.23-5.05,12.09-5.05,12.09-53.15,55.94-98.25,2.91-100.65-8.1s1.32-11.47,1.32-11.47c.16-8.14,5.75-7.47,5.75-7.47.45-9.6,7-6.82,7-6.82.65-8.84,6.51-6.79,6.51-6.79,3.42.76,10.26,11.64,10.26,11.64,7.23-1.1,11.54,4.84,12.45,10,1.25,7-.36,19.17-.36,19.17,19.32,21.22,52.54-14.23,52.54-14.23S134.29,203.58,138.89,210.73Z"/>
    </clipPath>
  </defs>
  <title>20_Akili_takes_food_and_eat</title>
  <g>
    <g>
      <g>
        <path id="_Clipping_Path_3" data-name="&lt;Clipping Path&gt;" class="cls-1" d="M138.89,210.73c3.36,5.23-5.05,12.09-5.05,12.09-51.35,53.76-98.25,2.91-100.65-8.1s1.32-11.47,1.32-11.47c.16-8.14,5.75-7.47,5.75-7.47.45-9.6,7-6.82,7-6.82.65-8.84,6.51-6.79,6.51-6.79,3.42.76,10.26,11.64,10.26,11.64,7.23-1.1,11.54,4.84,12.45,10,1.25,7-.36,19.17-.36,19.17,13.32,30.21,52.54-14.23,52.54-14.23S134.29,203.58,138.89,210.73Z"/>
        <g class="cls-2">
          <path class="cls-3" d="M69.14,193.11c-2,.3-3.9.6-5.84,1a58,58,0,0,0-5.73,1.3,9.74,9.74,0,0,0-1.31.52,9.09,9.09,0,0,0-1.17.79,21.7,21.7,0,0,0-2.16,1.94,21,21,0,0,0-3.51,4.56,7.55,7.55,0,0,0-1,5.29,5.22,5.22,0,0,0,1.31,2.31,3.06,3.06,0,0,0,2.2,1,5.29,5.29,0,0,0,2.53-.77,14,14,0,0,0,2.3-1.67,27.84,27.84,0,0,0,3.88-4.3l.39-.53.39.51a12.17,12.17,0,0,0,.87,1,3.25,3.25,0,0,0,.93.73l.81.31-.7.47A26.1,26.1,0,0,0,60.16,210a19.5,19.5,0,0,0-2.66,3,9,9,0,0,0-1.65,3.58,5.93,5.93,0,0,0-.1,1,5.67,5.67,0,0,0,.08,1,5.12,5.12,0,0,0,.26,1,6.74,6.74,0,0,0,.42.92,6.79,6.79,0,0,1-.5-.89,5.24,5.24,0,0,1-.35-1,5.53,5.53,0,0,1-.15-1,6.2,6.2,0,0,1,0-1A9.45,9.45,0,0,1,57,212.68a19.23,19.23,0,0,1,2.62-3.19,26.81,26.81,0,0,1,3.14-2.69l.11.78a2.51,2.51,0,0,1-.74-.41,6.33,6.33,0,0,1-.57-.49,11.3,11.3,0,0,1-1-1.08l.78,0a28.79,28.79,0,0,1-4,4.53,15,15,0,0,1-2.46,1.83,6.35,6.35,0,0,1-3.06.94,4.07,4.07,0,0,1-3.05-1.35,6.35,6.35,0,0,1-1.53-2.81,7,7,0,0,1,.05-3.18,11.34,11.34,0,0,1,1.16-2.87,20.22,20.22,0,0,1,3.76-4.73A22.55,22.55,0,0,1,54.6,196a9.89,9.89,0,0,1,1.31-.81,10.32,10.32,0,0,1,1.46-.51,42.78,42.78,0,0,1,5.87-1C65.2,193.42,67.17,193.23,69.14,193.11Z"/>
          <path class="cls-4" d="M46.17,186.75s3.63,8,7.47,10.57"/>
          <path class="cls-4" d="M39.71,194.77s4.62,7.45,8.75,9.54"/>
          <path class="cls-4" d="M48,209.23s-4.65,7.41-14.26-7.4"/>
          <path class="cls-4" d="M44,211.44s1,9.23-8.1,1.18"/>
        </g>
      </g>
      <g>
        <path id="_Clipping_Path_4" data-name="&lt;Clipping Path&gt;" class="cls-1" d="M138.89,210.73c3.36,5.23-5.05,12.09-5.05,12.09-53.15,55.94-98.25,2.91-100.65-8.1s1.32-11.47,1.32-11.47c.16-8.14,5.75-7.47,5.75-7.47.45-9.6,7-6.82,7-6.82.65-8.84,6.51-6.79,6.51-6.79,3.42.76,10.26,11.64,10.26,11.64,7.23-1.1,11.54,4.84,12.45,10,1.25,7-.36,19.17-.36,19.17,19.32,21.22,52.54-14.23,52.54-14.23S134.29,203.58,138.89,210.73Z"/>
        <g class="cls-5">
          <path class="cls-4" d="M46.17,186.75s3.63,8,7.47,10.57"/>
          <path class="cls-4" d="M39.71,194.77s4.62,7.45,8.75,9.54"/>
          <path class="cls-4" d="M48,209.23s-4.65,7.41-14.26-7.4"/>
          <path class="cls-4" d="M44,211.44s1,9.23-8.1,1.18"/>
        </g>
      </g>
      <g>
        <path class="cls-6" d="M48.15,218.35c-2.66-1.21-1.06-5-.13-6.86a67.18,67.18,0,0,1,14.23-19.17c1.25-1.17,3.07-2.43,3.11-4.32,0-2.11-.94-4.26-1.18-6.36l0-.19a7.22,7.22,0,0,1,1.12-4.64c.46-.71.74-1.5,1.14-2.24A14.49,14.49,0,0,1,67.85,172c.38-.45.85-.83,1.25-1.27a31,31,0,0,1,2.64-2.67,13.61,13.61,0,0,1,2.78-1.74,16.08,16.08,0,0,1,3-1.27c.9-.25,1.85-.39,2.77-.56a5.48,5.48,0,0,1,2.32-.06,3.93,3.93,0,0,0,.57.06,10.49,10.49,0,0,1,2.77.5,21,21,0,0,1,5.39,2.93,8.32,8.32,0,0,1,2.1,2.07,4.26,4.26,0,0,1,.8,1.62,9.13,9.13,0,0,1,.06,1.24,12.5,12.5,0,0,1-.32,2.89,17.53,17.53,0,0,1-2.21,5,16.13,16.13,0,0,1-2.27,2.83c-.41.42-.88.75-1.28,1.17s-.94.95-1.43,1.4c-.29.26-.56.57-.86.81a7.24,7.24,0,0,1-1.65.92c-.51.22-1,.43-1.52.62s-.72.36-1.11.48a7.76,7.76,0,0,0-1,.34,3.83,3.83,0,0,1-1.09.4l-.87.17c-.69.14-1.39.25-2.08.41-.2,0-.4.12-.61.15-1.11.21-2.28,0-3.27.64-3.14,2.06-5.08,5.26-6.53,8.64-.76,1.78-1.26,3.68-2.47,5.21a6.89,6.89,0,0,0-.86,1.72c-.63,1.5-1.43,2.92-2.15,4.37a16.2,16.2,0,0,1-4.87,6.14,9.1,9.1,0,0,1-3.33,1.27,6.62,6.62,0,0,1-4.25-.12Z"/>
        <g>
          <path class="cls-7" d="M89.88,178.05a3.88,3.88,0,0,0,.48-.89,7,7,0,0,0,.31-2.55,4.93,4.93,0,0,1,0-.79,1.35,1.35,0,0,0,0-.5,7.7,7.7,0,0,0-.55-1.66l-.59-1.16a3.12,3.12,0,0,0-.76-.75,1.19,1.19,0,0,1-.24-.21,6.54,6.54,0,0,0-.79-.58,5.06,5.06,0,0,0-2.18-1c-.66-.07-1.31-.19-2-.28a10.52,10.52,0,0,0-2.06-.24,19.15,19.15,0,0,0-2,.17,14.19,14.19,0,0,0-1.63.36c-.28.08-.56.2-.83.26-.11,0-.23,0-.34.06a1.72,1.72,0,0,0-.66.37,15.68,15.68,0,0,0-2.56,1.63c-.44.34-.9.64-1.32,1a12.14,12.14,0,0,1-1.12,1,4.66,4.66,0,0,0-.77.55,6.06,6.06,0,0,0-.87,1.25,11.91,11.91,0,0,0-1.09,2.56,12.33,12.33,0,0,0-.57,3.08,9.55,9.55,0,0,0,.07,2,5.3,5.3,0,0,0,.73,1.69,5.83,5.83,0,0,0,1.93,1.94c.32.2.62.41.93.64a1.15,1.15,0,0,0,.37.19,7.65,7.65,0,0,0,1.91.07c.94,0,1.89,0,2.83-.06a14,14,0,0,0,1.68-.16,1.59,1.59,0,0,0,.53-.21,6,6,0,0,1,1.33-.45,11.67,11.67,0,0,0,2.13-.86,21.24,21.24,0,0,0,2.12-1.3c.95-.66,1.78-1.47,2.74-2.13A6.37,6.37,0,0,0,88.45,180c.37-.44.7-.92,1-1.39Z"/>
          <path class="cls-7" d="M89.88,178.05a3.88,3.88,0,0,0,.48-.89,7,7,0,0,0,.31-2.55,4.93,4.93,0,0,1,0-.79,1.35,1.35,0,0,0,0-.5,7.7,7.7,0,0,0-.55-1.66l-.59-1.16a3.12,3.12,0,0,0-.76-.75,1.19,1.19,0,0,1-.24-.21,6.54,6.54,0,0,0-.79-.58,5.06,5.06,0,0,0-2.18-1c-.66-.07-1.31-.19-2-.28a10.52,10.52,0,0,0-2.06-.24,19.15,19.15,0,0,0-2,.17,14.19,14.19,0,0,0-1.63.36c-.28.08-.56.2-.83.26-.11,0-.23,0-.34.06a1.72,1.72,0,0,0-.66.37,15.68,15.68,0,0,0-2.56,1.63c-.44.34-.9.64-1.32,1a12.14,12.14,0,0,1-1.12,1,4.66,4.66,0,0,0-.77.55,6.06,6.06,0,0,0-.87,1.25,11.91,11.91,0,0,0-1.09,2.56,12.33,12.33,0,0,0-.57,3.08,9.55,9.55,0,0,0,.07,2,5.3,5.3,0,0,0,.73,1.69,5.83,5.83,0,0,0,1.93,1.94c.32.2.62.41.93.64a1.15,1.15,0,0,0,.37.19,7.65,7.65,0,0,0,1.91.07c.94,0,1.89,0,2.83-.06a14,14,0,0,0,1.68-.16,1.59,1.59,0,0,0,.53-.21,6,6,0,0,1,1.33-.45,11.67,11.67,0,0,0,2.13-.86,21.24,21.24,0,0,0,2.12-1.3c.95-.66,1.78-1.47,2.74-2.13A6.37,6.37,0,0,0,88.45,180c.37-.44.7-.92,1-1.39Z"/>
        </g>
      </g>
      <path class="cls-8" d="M70.07,195.06s-11.31-.89-14,.49-11.58,9.55-7.18,15.17S61,205.3,61,205.3s1.24,1.61,2.05,1.87c0,0-10.46,7-6.53,13.27"/>
      <path class="cls-9" d="M50.38,202.38l2.16,3A26.06,26.06,0,0,1,49,209.86,6,6,0,0,1,50.38,202.38Z"/>
    </g>
    <path class="cls-10" d="M138.1,194.16a13.87,13.87,0,0,0-2.5,1.61c-2.51,2.05-4.53,4.6-6.93,6.77a34.32,34.32,0,0,1-5.52,4,5.14,5.14,0,0,0-1.8,1.48,2.28,2.28,0,0,0-.29,1.56c.7,4.82,2.57,7.75,5.73,10.91,1.73,1.73,3.59,3.15,5.41,4.78a3.67,3.67,0,0,0,2.89,1.31,11,11,0,0,0,2.74-1.13c3.48-2,6.57-2.81,10.4-4,4.18-1.28,7.21-2.93,9.65-6.05a18.48,18.48,0,0,0,3.74-6.52,11.87,11.87,0,0,0-.38-7.24C157.64,193,146.16,190.07,138.1,194.16Z"/>
  </g>
  <g>
    <path class="cls-11" d="M162,186.71s4.16,10.37,7.36,21.94c0,0-28,8.49-28.68-15.62-.15-5.67,2.56-18.34,2.56-18.34s5.08,7.17,3.93,2.43l16.64,3.35Z"/>
    <g>
      <path class="cls-12" d="M68.37,380.8a19.19,19.19,0,0,1-11.12-1.47,22.91,22.91,0,0,1-8.42-6.18,3.18,3.18,0,0,0-2.47-1.43c-9.86-.34-18.25-4.59-26.17-10A60.34,60.34,0,0,1,9.57,353c-2.9-3.16-5.06-6.75-4.2-11.26,1.24-6.49,6.15-12.38,15.47-11.77s18.4,2.83,27.36,5.41c1.27.36,2.77.24,3.65,1.55,3.81,5.48,5.75,11.45,4.79,18.19-.17,1.19.57,1.47,1.55,1.52,2.29.12,4.58.41,6.86.36,4.93-.1,9.9-.11,14.34-2.78a4.21,4.21,0,0,1,.27,2.9,55.27,55.27,0,0,1-5.78,17Z"/>
      <path class="cls-13" d="M91,300.55c-1.09,5.68,8.45,3.13-1.62,25.4-1.88,2.86-5.26,13-6.83,16.1-2,3.85-2.29,8.06-3.12,12.17C74.95,356.87,70,356.89,65,357c-2.28,0-4.57-.24-6.86-.36-1-.05-1.72-.33-1.55-1.52,1-6.74-1-12.71-4.79-18.19,2.25.19,3.6-1,4.57-2.89a83.42,83.42,0,0,0,3.79-9.59,85.75,85.75,0,0,1,11-20.59C75.86,306,86.56,297.92,91,300.55Z"/>
      <path class="cls-13" d="M40,352.62c-4.39-2.68-7.49-5.5-9.41-9.42-2.45-5,.45-9.24,6-8.78,2,.17,4,.61,5.94.92a1.35,1.35,0,0,1,1,.65,28.17,28.17,0,0,1,4.7,17.54c-.07,1.12-.38,1.58-1.54,1.31C44.14,354.23,41.51,353.77,40,352.62Z"/>
    </g>
    <g>
      <path class="cls-14" d="M47.81,355.55S9.42,379.71,21.5,390.92s38-26.74,38-26.74Z"/>
      <path class="cls-14" d="M112.49,370.29s-11.05,39.4,6.45,38.78,8.8-40.75,8.8-40.75Z"/>
      <path class="cls-14" d="M190.15,354.26s38.39,24.15,26.31,35.37-38-26.74-38-26.74Z"/>
      <path class="cls-15" d="M193.12,351.76c0,13.86-33.86,25.1-75.63,25.1s-75.63-11.24-75.63-25.1-11.38-31.47,75.63-31.47S193.12,337.9,193.12,351.76Z"/>
      <ellipse class="cls-14" cx="117.49" cy="338.92" rx="75.63" ry="25.1"/>
    </g>
    <g>
      <path class="cls-12" d="M39.21,389.07s14-4.17,21.11-5.4c2.19-.38,4.35-1.48,6.68-.73a4,4,0,0,0,.65.54,23.44,23.44,0,0,1,11.41,13.11c.56,1.51,1.28,1.56,2.59,1.05,6.7-2.63,13.14-5.65,18-11.25,1.65,2.29,2,5,2.48,7.66a53.78,53.78,0,0,1,.77,16.5,7,7,0,0,1-4.25,6,21.89,21.89,0,0,1-18.14.31,4.52,4.52,0,0,0-3.84,0c-8,3.54-16.45,3.56-24.95,2.6a79.28,79.28,0,0,1-13.88-2.8,18.78,18.78,0,0,1-6.69-3.39c-6.06-5-5.86-15.35.36-20.2"/>
      <path class="cls-16" d="M99.63,386.39c-4.84,5.6-11.27,8.62-18,11.25-1.31.51-2,.46-2.59-1.05a23.44,23.44,0,0,0-11.41-13.11,4,4,0,0,1-.65-.54c2.16-.91,2.84-2.72,2.75-4.85-.32-7.53-1.52-15-1.39-22.58a.58.58,0,0,0-.08-.2c.29-2.12.67-4.24.86-6.37a34.62,34.62,0,0,1,5.12-16c2.66,2.84,5.92-1.79,7.88,1.55,7.74-1.7,6.37-7.5,13.12-1.4-1.26,7,.71,44.28,3.46,51.09C99,384.94,99.33,385.66,99.63,386.39Z"/>
      <path class="cls-17" d="M49.15,396.53c-2.47-3.09-1.44-7.15,2.39-8.82a58.66,58.66,0,0,1,6.13-2,1.68,1.68,0,0,1,1.4.15c5.72,3,9.42,7.79,12,13.54a1.13,1.13,0,0,1-.61,1.73C64.85,404,53,401.42,49.15,396.53Z"/>
    </g>
    <path class="cls-18" d="M178,185.45c-5.3,7.1-10.52,14.25-17.23,20.16a6.77,6.77,0,0,1-5.82,1.89c-4.77-.61-9.51-1.42-14.26-2.14-2-.31-3.58-.81-3-3.34-1.4,6.25-3.69,12.21-5.71,18.26-1.18,3.52-2,7.18-3.92,10.44-1.18,3.81-2.32,7.63-3.56,11.41-.62,1.9-1.12,3.83-1.59,5.77-1.38,5.78-1.73,12.73-5,17.86-1,1.53-2.07,3-3.13,4.44-1.3,1.78-3.09,2.4-4.89,3.55-3.47,2.2-6.67,5-10.69,6.19-3.79,1.1-7.24,3.16-11.09,4.17-3.51.93-6.78,2.66-10.09,4.14a40.63,40.63,0,0,1-4.63,2c-.84.26-4.69.36-4.9.79-.1.2.39,1.36.43,1.64a19.18,19.18,0,0,1,0,2.63c-.11,8.36.65,16.7.63,25.07q0,10.91,0,21.81a14.4,14.4,0,0,0,.27,4.32c.35,1.12.53,2.27.82,3.41a7.44,7.44,0,0,0,4.1,5.39c4.9,2.12,9.4,4.83,14.55,6.36a12.53,12.53,0,0,0,4.3.67c2.11-.11,3.89-1.91,5.62-3.08.86-.58,2-1,2.74-1.68s.88-1.38,1.59-1.84a15.18,15.18,0,0,1,3.29-1.34,81.09,81.09,0,0,1,13.77-3.2,43.36,43.36,0,0,0,9.65-2.14,8.37,8.37,0,0,1,3.15-.28,9.53,9.53,0,0,0,4-1.33c2.76-1.48,5.85-1.73,8.82-2.62a41.52,41.52,0,0,0,9.24-4.55,46.35,46.35,0,0,0,9.24-6.75,7,7,0,0,0,1.43-1.68c.07-.28.2-.22.36-.35,0,0,.33-.12.28-.09a4.28,4.28,0,0,0,.94-1.13c2.36-3.15,6.06-5.51,8.29-8.84a26.63,26.63,0,0,1,1.74-2.86,7,7,0,0,0,1.64-2.32c.68-1.56,1.47-3,2.27-4.47,1-1.88,1.3-4.11,1.85-6.17a45.75,45.75,0,0,0,1.26-6c1.48-11.88,2.34-23.82,5.41-35.39,19.22-72.26.47-74.22-12.15-78.87"/>
    <path class="cls-19" d="M178,185.45c-5.3,7.1-10.52,14.25-17.23,20.16a6.77,6.77,0,0,1-5.82,1.89c-4.77-.61-9.51-1.42-14.26-2.14-2-.31-3.58-.81-3-3.34.35-1.07.22-2.29,1-3.26,5.38,1.69,11,2.05,16.54,2.54a2.72,2.72,0,0,0,2.3-.91,158.57,158.57,0,0,0,14-15.69Z"/>
    <path class="cls-20" d="M171.41,184.69a158.57,158.57,0,0,1-14,15.69,2.72,2.72,0,0,1-2.3.91c-5.57-.49-11.16-.85-16.54-2.54a7,7,0,0,1,1-4.18c4.93,1,9.94,1.44,14.94,2a1.65,1.65,0,0,0,1.5-.65,144.53,144.53,0,0,0,10.22-12.19Z"/>
    <path class="cls-21" d="M166.26,183.69A144.53,144.53,0,0,1,156,195.88a1.65,1.65,0,0,1-1.5.65c-5-.53-10-1-14.94-2a22.17,22.17,0,0,1,.6-3.14c.27-1.5,1.06-1.81,2.36-1.51a77.15,77.15,0,0,0,10.53,2.14,1.79,1.79,0,0,0,1.78-.9c1.82-2.22,3.82-4.31,5.44-6.67,1.28-1.85,2.62-2.14,4.5-1.25A10.32,10.32,0,0,0,166.26,183.69Z"/>
    <g>
      <path class="cls-22" d="M114.55,36.54S89.75,53,96.17,88.07c0,0,6.27,20.66-3.88,30.79,0,0-11.35,8.34-8.37,15.22,0,0,1.49,6.27,12,6.57l6,11.53s14.94-.27,23-7.1c0,0-5.67,5.49-18.68,12.17,0,0,7.63,22.41,41.39,25.61,0,0,42.13,2.66,63.94-30.68l37.94-36.93L245,77.32,222.85,34,166.43,18.16Z"/>
      <path d="M115,36.39l33.16,6.87s32.27-12.55,69.61-8.07c0,0-37-2.39-65.13,9.86l26.89,6L190,72.24s37.35-4,53.78,13.36c0,0-16.13-15.45-52.28-8,0,0,4.48,13.43,3.29,22.25,0,0,13.44-6.73,20.32,0,0,0,10.76,10.31-.9,29.43a31.68,31.68,0,0,1-16.13,14.4s-3,32.32,30.47,58c0,0-13.44-30.8-4.18-45.6,0,0,32-22.27,32.86-25.86,0,0,2.69-24.5-7.77-41.23,0,0,7.17-25.1,4.18-41.83,0,0-16.73-14.34-29.58-15.54,0,0-30.77-24.8-50.49-24.5C173.55,7.11,134.11,15.47,115,36.39Z"/>
      <path class="cls-23" d="M193,107.64s7.92-6.42,15.39-4.18c0,0,7.47.15,5.38,13.59,0,0-3.14,11.2-7.92,16,0,0-7.62,7.47-8.37,0,0,0-5.38,1.2-2.84,4.93,0,0,2.09,6.27,12.85-2.39,0,0,15.54-14.43,9.71-31.19,0,0-3.73-7-14.34-5C202.83,99.43,193.87,100,193,107.64Z"/>
      <path d="M104.74,74.18s-.11-4.48,6.05-5.77c0,0,8.23-1.77,16.15,5.4,0,0,7.1,6.35,7.62,13.07,0,0,.52,2.76-3.59-1.57,0,0-7.62-9.93-14.94-10.61a60.84,60.84,0,0,0-9.26.45S104.57,75.31,104.74,74.18Z"/>
      <path class="cls-24" d="M99.53,147.72s22-1.53,27.11-5.57c0,0-.48,14.47-19.58,17.14,0,0-4.88-.5-3.21-5.07,0,0,13.61-3.45,21-9.13,0,0-5.24,8.35-21.56,8.57C103.3,153.66,98.71,151.12,99.53,147.72Z"/>
      <g>
        <path class="cls-25" d="M106.22,101.57a15.94,15.94,0,0,1,2.47-8.3c3.05-4.44,8.85-7.46,14.24-5.95a19.28,19.28,0,0,1,14.34,20.14c-.37,5.16-3.87,8.25-8.06,10.61a19.53,19.53,0,0,1-9.06,2.45c-6.18.21-10.41-2.68-12.41-8.54A29.15,29.15,0,0,1,106.22,101.57Z"/>
        <g>
          <path class="cls-26" d="M106.44,107.51a11,11,0,1,1,13.06,8.29A11,11,0,0,1,106.44,107.51Zm14.81-11c-1.76-.64-3.19,0-4.48,2.16-2.07-.28-5.13,1.74-6,3.94a7.72,7.72,0,0,0,2.5,9.07,7.13,7.13,0,0,0,9.15-.63,7.5,7.5,0,0,0,1.36-9.12l-.45-.88C123.65,98.56,123,97.14,121.25,96.5Z"/>
          <path class="cls-27" d="M116.77,98.67c-2.07-.28-5.13,1.74-6,3.94a7.72,7.72,0,0,0,2.5,9.07,7.13,7.13,0,0,0,9.15-.63,7.5,7.5,0,0,0,1.36-9.12l-.45-.88c-1.1,1.47-2.41,2.53-4.37,1.78S116.51,100.57,116.77,98.67Z"/>
          <path class="cls-28" d="M116.77,98.67c-.26,1.91.31,3.43,2.19,4.16s3.26-.31,4.37-1.78c.32-2.49-.33-3.91-2.08-4.55S118.06,96.55,116.77,98.67Z"/>
        </g>
      </g>
    </g>
  </g>
  <g>
    <g>
      <ellipse class="cls-29" cx="71.62" cy="298.92" rx="69.14" ry="23.87"/>
      <ellipse class="cls-30" cx="71.11" cy="297.42" rx="60.43" ry="20.87"/>
    </g>
    <path class="cls-31" d="M64.17,315.61a62.5,62.5,0,0,1-15.26-1.21c-4.75-.92-9.52-1.19-14.16-2.71-1.21-.4-2.59-1-2.69-2.16-.06-.66.38-1.31.27-2-.34-2-4-2.77-5.67-3.34-.93-.31-1.71-1.3-1.12-2,.2-.23.54-.39.65-.66.58-1.33-5.08-1.8-3.88-4.6-.51,1.19-2.89,1-3.43-.21s.46-2.57,1.83-3.07a1.82,1.82,0,0,1-2.66-.81,3.12,3.12,0,0,1,.81-2.76c.83-1.11,2.39-2.49,4.11-2.09-1,.18-1.47-1-1.42-1.68.26-3.32,6.72-2.18,9.49-2.54,4.65-.59,82.91-4.64,84.41-1.82,1.58-.3,3.45,0,4.35,1.29a2.68,2.68,0,0,1-1.05,3.83,4,4,0,0,1,4.45,2.48c.59,2.18-2.7,2.93-2.5,5,.17,1.74,1.79,1.94,0,3.66-1.3,1.24-3.47,1.51-5.25,1.89a3,3,0,0,1-1.55,3.26c-1.17.52-2.21,0-3.37.23a13.74,13.74,0,0,0-2.44,1c-1.81.68-3.82.79-5.68,1.31a1.11,1.11,0,0,1,1.55,1c-.09.7-.82,1.22-1.54,1.54a8.93,8.93,0,0,1-7.2,0c1.3,1.52.24,3.91-1.74,4.74-3,1.26-5.83-.83-8.94-.33l-6.35,1A131.1,131.1,0,0,1,64.17,315.61Z"/>
    <path class="cls-32" d="M64.17,312.41a62.5,62.5,0,0,1-15.26-1.21c-4.75-.92-9.52-1.19-14.16-2.71-1.21-.4-2.59-1-2.69-2.16-.06-.66.38-1.31.27-2-.34-2-4-2.77-5.67-3.34-.93-.31-1.71-1.3-1.12-2,.2-.23.54-.39.65-.66.58-1.33-5.08-1.8-3.88-4.6-.51,1.19-2.89,1-3.43-.21s.46-2.57,1.83-3.07a1.82,1.82,0,0,1-2.66-.81,3.12,3.12,0,0,1,.81-2.76c.83-1.11,2.39-2.49,4.11-2.09-1,.18-1.47-1-1.42-1.68a3.94,3.94,0,0,1,1.71-2.52,7.12,7.12,0,0,1,5.32-1.42c-4.45-.7-1.1-2.76,1.8-2.8-.89,0-2.84-.12-2.14-1.49a8.07,8.07,0,0,1,3.42-2.83c.5-.27,1.06-.44,1.55-.73.12-.07.22-.19.35-.25a3.08,3.08,0,0,1,1.37-.11,2.31,2.31,0,0,1,1,.09,5,5,0,0,1,.68.52,3.28,3.28,0,0,1,1,1.39c.1.23.06.23.31.26a4.11,4.11,0,0,0,.63,0c1.13,0,1.27-1.43,2-2,.38-.27,1-.16,1.4-.16s.4.06.57.35.19.51.48.39a4.17,4.17,0,0,0,0-.87,4.08,4.08,0,0,1,.29-.8,12.29,12.29,0,0,1,1.28-2.91c.3-.49.45-.8,1.06-.8a2.32,2.32,0,0,1,1,.11c.41.19.61.65,1,.91a8.24,8.24,0,0,0,1.55.84,25.73,25.73,0,0,0-.25-2.58,2.2,2.2,0,0,1,.34-1.36,3,3,0,0,1,.79-.87,3,3,0,0,1,2.1-.25,1.81,1.81,0,0,1,.77.38c.15.14.24.35.48.33.1-.27-.08-.49-.16-.74a3.86,3.86,0,0,1-.07-1.12.75.75,0,0,1,.34-.72,3.56,3.56,0,0,1,1-.72,4.46,4.46,0,0,1,1.23-.06,2.13,2.13,0,0,0,.75-.16c.3-.21.27-.75.27-1.07,0-.88,0-1.75,0-2.63,0-.58.31-.82.62-1.27s.73-.84,1.35-.62a2.1,2.1,0,0,1,1.21.72,3.77,3.77,0,0,1,.33,2.83c.92-1.33,2-2.79,3.79-3.09s3.74,1.62,2.52,2.75a12.53,12.53,0,0,1,3.89-2.44,3.44,3.44,0,0,1,2.43-.25c.77.29,1.1,1.35.4,1.74,2.31-1.28,8.15-2.84,6.56,1.54A6.9,6.9,0,0,1,84,257.18c1.52.1,2.85,1.73,1.88,2.74a5.35,5.35,0,0,1,4-1.33c1.45.22,2.64,1.68,1.94,2.79.47-.75,0-2.87.89-3.34,2.08-1.06,2.87,4,3.05,4.91-.77-3.74,7-5,5,1.47.28-.89,2.25-2.22,3.46-1.81,1.74.59.92,2.81.31,3.92a3.34,3.34,0,0,1,4.46-.64,2.37,2.37,0,0,1-.25,3.88c1.6-.93,4-1,5.32.17a2.32,2.32,0,0,1-1.06,4,3.48,3.48,0,0,1,4.07,1.5,2.68,2.68,0,0,1-1.69,3.52,3.93,3.93,0,0,1,4.43,1.16,2.68,2.68,0,0,1-1.05,3.83,4,4,0,0,1,4.45,2.48c.59,2.18-2.7,2.93-2.5,5,.17,1.74,1.79,1.94,0,3.66-1.3,1.24-3.47,1.51-5.25,1.89a3,3,0,0,1-1.55,3.26,6.81,6.81,0,0,1-3.77.12,8.43,8.43,0,0,0-2.37-.15,1.71,1.71,0,0,1,1.66.62l-7,2a1.11,1.11,0,0,1,1.55,1c-.09.7-.82,1.22-1.54,1.54a8.93,8.93,0,0,1-7.2,0c1.3,1.52.24,3.91-1.74,4.74-3,1.26-5.83-.83-8.94-.33l-6.35,1A131.1,131.1,0,0,1,64.17,312.41Z"/>
    <g>
      <g>
        <path class="cls-33" d="M39.85,291.44a3.74,3.74,0,0,1,.1,2.13c-1.22,2.78-7.16.16-5.72-2.78a7.13,7.13,0,0,1,.81-1.1c.55-.73.85-2,2-2.1S39.38,289.63,39.85,291.44Z"/>
        <path class="cls-33" d="M63.84,262.76a2.52,2.52,0,0,1-.22.93c-.55,1.24-3.81,3-5,2.23s-1.1-2.09-.87-3.21c.39-1.89-.15-3.5,2.41-3.5A3.81,3.81,0,0,1,63.84,262.76Z"/>
        <path class="cls-33" d="M67.05,296.8a3.55,3.55,0,0,1-3.55,3.55c-2.19,0-2.34-2.53-2.48-4.35-.1-1.34.43-2.48,1.85-2.7S67.05,295.53,67.05,296.8Z"/>
        <path class="cls-33" d="M29.34,290.66c0,1.46-1.54,2.65-3.44,2.65-2.13,0-2.27-1.89-2.41-3.25a1.76,1.76,0,0,1,1.79-2C26.62,287.88,29.34,289.71,29.34,290.66Z"/>
        <path class="cls-33" d="M79.92,281.92c0,1.3-.77,3.1-2.21,3.41-4.66,1-6.1-6.94-1-6.94A3.16,3.16,0,0,1,79.92,281.92Z"/>
        <path class="cls-33" d="M80.77,259.46c0,1.3-.77,3.1-2.21,3.41-4.66,1-6.1-6.94-1-6.94A3.16,3.16,0,0,1,80.77,259.46Z"/>
        <path class="cls-33" d="M88.42,312a2.83,2.83,0,0,1-.56,2.12c-2,2.53-5.74.71-5.74-2.24a3.58,3.58,0,0,1,2.21-3.29c1.84-.75,2.3.18,3.25,1.6a5.57,5.57,0,0,1,.75,1.41A2.66,2.66,0,0,1,88.42,312Z"/>
        <path class="cls-33" d="M113.47,293.7a2.6,2.6,0,0,1-1.4,3.22,3.69,3.69,0,0,1-1.61.27,3.32,3.32,0,0,1-2.07-5.68C110.52,289.48,112.94,291.51,113.47,293.7Z"/>
        <path class="cls-33" d="M47.12,307.27a2.6,2.6,0,0,1-1.4,3.22,3.69,3.69,0,0,1-1.61.27A3.32,3.32,0,0,1,42,305.08C44.17,303.05,46.59,305.08,47.12,307.27Z"/>
        <path class="cls-33" d="M103.44,267.74q0,.13,0,.25c.08,1.27-.31,2.8-1.69,3.14a8.1,8.1,0,0,1-3.38-.06,3,3,0,0,1-1.25-1.59,2.2,2.2,0,0,1-.27-1.13,2.32,2.32,0,0,1,.45-1l.88-1.32a3.9,3.9,0,0,1,1.64-1.62,2.46,2.46,0,0,1,2.66.81A4.46,4.46,0,0,1,103.44,267.74Z"/>
        <path class="cls-33" d="M115.5,280.22q0,.09,0,.19c.05.93-.22,2-1.2,2.29a5.56,5.56,0,0,1-2.39,0,2.2,2.2,0,0,1-.89-1.16,1.65,1.65,0,0,1-.19-.83,1.72,1.72,0,0,1,.32-.71l.62-1A2.81,2.81,0,0,1,113,277.8a1.71,1.71,0,0,1,1.88.59A3.32,3.32,0,0,1,115.5,280.22Z"/>
      </g>
      <g>
        <ellipse class="cls-34" cx="39.08" cy="303.4" rx="1.77" ry="3.54" transform="translate(-217.39 136.66) rotate(-49.63)"/>
        <ellipse class="cls-34" cx="29.43" cy="283.73" rx="1.77" ry="3.86" transform="translate(-6.47 0.75) rotate(-1.31)"/>
        <ellipse class="cls-34" cx="66.24" cy="263.08" rx="3.3" ry="1.77" transform="translate(-179.08 147.23) rotate(-50.59)"/>
        <ellipse class="cls-34" cx="92.19" cy="293.52" rx="3.78" ry="1.77" transform="translate(-193.12 178.39) rotate(-50.59)"/>
        <ellipse class="cls-34" cx="86.2" cy="272.15" rx="3.46" ry="1.3" transform="translate(-178.79 165.96) rotate(-50.59)"/>
        <ellipse class="cls-34" cx="63.69" cy="288.59" rx="2.09" ry="1.3" transform="translate(-199.71 154.57) rotate(-50.59)"/>
        <ellipse class="cls-34" cx="73.31" cy="290.83" rx="1.77" ry="4.71" transform="translate(-86.53 37.05) rotate(-18.06)"/>
        <ellipse class="cls-34" cx="64.16" cy="309.17" rx="1.77" ry="3.44" transform="translate(-92.67 35.11) rotate(-18.06)"/>
        <ellipse class="cls-34" cx="100.33" cy="298.42" rx="1.77" ry="2.8" transform="translate(-213.47 324.03) rotate(-76.08)"/>
        <ellipse class="cls-34" cx="108.66" cy="284.07" rx="1.77" ry="3.45" transform="translate(-193.21 321.21) rotate(-76.08)"/>
        <ellipse class="cls-34" cx="101.09" cy="279.69" rx="3.42" ry="1.77" transform="translate(-114.8 75.14) rotate(-26.67)"/>
        <ellipse class="cls-34" cx="91.1" cy="263.94" rx="1.77" ry="3.96" transform="translate(-187.01 288.89) rotate(-76.08)"/>
        <ellipse class="cls-34" cx="107.96" cy="273.78" rx="1.77" ry="2.67" transform="translate(-183.74 312.72) rotate(-76.08)"/>
        <ellipse class="cls-34" cx="81.35" cy="264.3" rx="1.77" ry="3.88" transform="translate(-194.76 279.69) rotate(-76.08)"/>
        <ellipse class="cls-34" cx="36.68" cy="273.95" rx="1.77" ry="3.47" transform="translate(-238.05 243.66) rotate(-76.08)"/>
        <ellipse class="cls-34" cx="48.9" cy="277.03" rx="1.77" ry="3.51" transform="translate(-231.76 257.87) rotate(-76.08)"/>
        <ellipse class="cls-34" cx="61.85" cy="284.01" rx="1.77" ry="3.36" transform="translate(-228.7 275.73) rotate(-76.08)"/>
        <ellipse class="cls-34" cx="46.48" cy="283.21" rx="1.77" ry="3.36" transform="translate(-239.6 260.21) rotate(-76.08)"/>
        <ellipse class="cls-34" cx="70.36" cy="308.92" rx="1.77" ry="3.3" transform="translate(-246.41 302.91) rotate(-76.08)"/>
        <ellipse class="cls-34" cx="85.14" cy="287.59" rx="1.77" ry="3.61" transform="translate(-214.48 301.06) rotate(-76.08)"/>
        <ellipse class="cls-34" cx="74.63" cy="274.5" rx="1.77" ry="3.75" transform="translate(-209.76 280.92) rotate(-76.08)"/>
        <ellipse class="cls-34" cx="66.36" cy="270.86" rx="3.44" ry="1.77" transform="translate(-212.29 281.82) rotate(-78.49)"/>
        <ellipse class="cls-34" cx="61.8" cy="276.51" rx="3.88" ry="1.77" transform="matrix(0.2, -0.98, 0.98, 0.2, -221.48, 281.87)"/>
        <ellipse class="cls-34" cx="45.98" cy="299.62" rx="3.16" ry="1.77" transform="translate(-256.79 284.87) rotate(-78.49)"/>
        <ellipse class="cls-34" cx="66.62" cy="290.4" rx="3.16" ry="1.77" transform="translate(-231.23 297.71) rotate(-78.49)"/>
        <ellipse class="cls-34" cx="58.1" cy="307.5" rx="4.71" ry="1.77" transform="translate(-254.81 303.06) rotate(-78.49)"/>
        <ellipse class="cls-34" cx="89.58" cy="280.06" rx="2.86" ry="1.77" transform="translate(-202.73 311.94) rotate(-78.49)"/>
        <ellipse class="cls-34" cx="81.96" cy="295.87" rx="3.12" ry="1.77" transform="translate(-224.32 317.12) rotate(-78.49)"/>
        <ellipse class="cls-34" cx="48.34" cy="290.31" rx="2.84" ry="1.77" transform="translate(-245.78 279.73) rotate(-78.49)"/>
        <ellipse class="cls-34" cx="74.83" cy="302.38" rx="3.57" ry="1.77" transform="translate(-236.4 315.36) rotate(-78.49)"/>
        <ellipse class="cls-34" cx="88.22" cy="300.85" rx="2.7" ry="1.77" transform="translate(-224.18 327.25) rotate(-78.49)"/>
        <ellipse class="cls-34" cx="69.06" cy="280.08" rx="3.02" ry="1.77" transform="translate(-219.17 291.84) rotate(-78.49)"/>
        <ellipse class="cls-34" cx="39.67" cy="284.37" rx="1.77" ry="3.42" transform="translate(-78.29 22.6) rotate(-16.32)"/>
        <ellipse class="cls-34" cx="57.25" cy="277.15" rx="1.77" ry="3.56" transform="translate(-75.56 27.25) rotate(-16.32)"/>
        <ellipse class="cls-34" cx="50.44" cy="300.05" rx="1.77" ry="3.37" transform="matrix(0.96, -0.28, 0.28, 0.96, -82.27, 26.26)"/>
        <ellipse class="cls-35" cx="50.66" cy="283.21" rx="1.24" ry="3.32" transform="translate(-197.93 138.38) rotate(-49.63)"/>
        <ellipse class="cls-34" cx="42.49" cy="296.12" rx="2.84" ry="1.77" transform="translate(-256.16 278.65) rotate(-78.49)"/>
        <ellipse class="cls-34" cx="27.66" cy="293.52" rx="2.84" ry="1.77" transform="translate(-265.48 262.04) rotate(-78.49)"/>
        <ellipse class="cls-34" cx="39.01" cy="291.67" rx="1.77" ry="3.42" transform="matrix(0.96, -0.28, 0.28, 0.96, -80.37, 22.71)"/>
        <ellipse class="cls-35" cx="42.49" cy="293.12" rx="1.24" ry="3.32" transform="translate(-20.66 3.75) rotate(-4.06)"/>
        <ellipse class="cls-35" cx="57.03" cy="287.2" rx="1.24" ry="3.32" transform="translate(-198.72 144.63) rotate(-49.63)"/>
        <ellipse class="cls-35" cx="82.04" cy="273.88" rx="1.24" ry="2.41" transform="translate(-179.76 158.99) rotate(-49.63)"/>
        <ellipse class="cls-35" cx="86.2" cy="283.73" rx="2.41" ry="1.24" transform="translate(-148.45 102.42) rotate(-35.41)"/>
        <ellipse class="cls-35" cx="69.92" cy="296.77" rx="1.24" ry="2.67" transform="translate(-201.47 157.82) rotate(-49.63)"/>
        <ellipse class="cls-35" cx="55.08" cy="296.45" rx="1.24" ry="3.32" transform="translate(-206.46 146.4) rotate(-49.63)"/>
        <ellipse class="cls-35" cx="73.61" cy="262.33" rx="1.24" ry="3.32" transform="translate(-37.34 13.48) rotate(-8.35)"/>
        <ellipse class="cls-35" cx="91.26" cy="308.22" rx="1.24" ry="3.32" transform="translate(-43.82 16.53) rotate(-8.35)"/>
        <ellipse class="cls-35" cx="96.55" cy="265.53" rx="1.24" ry="3.32" transform="translate(-37.56 16.85) rotate(-8.35)"/>
        <ellipse class="cls-36" cx="33.89" cy="298.18" rx="4.71" ry="1.77" transform="translate(-266.03 287.72) rotate(-81.52)"/>
        <ellipse class="cls-36" cx="34.81" cy="282.47" rx="3.15" ry="1.77" transform="translate(-235.3 192.79) rotate(-64.61)"/>
        <ellipse class="cls-35" cx="38.84" cy="287.07" rx="1.24" ry="3.32" transform="translate(-205.04 130.72) rotate(-49.63)"/>
        <ellipse class="cls-35" cx="31.2" cy="288.85" rx="3.32" ry="1.24" transform="translate(-185.65 95.5) rotate(-42.11)"/>
        <ellipse class="cls-36" cx="22.99" cy="286.33" rx="3.15" ry="1.77" transform="translate(-245.54 184.31) rotate(-64.61)"/>
        <ellipse class="cls-36" cx="61.85" cy="270.86" rx="3.15" ry="1.77" transform="translate(-209.36 210.59) rotate(-64.61)"/>
        <ellipse class="cls-36" cx="57.03" cy="266.25" rx="3.15" ry="1.77" transform="translate(-207.96 203.6) rotate(-64.61)"/>
        <ellipse class="cls-36" cx="50.18" cy="271.91" rx="1.77" ry="3.67" transform="translate(-187.73 131.02) rotate(-48.91)"/>
        <ellipse class="cls-36" cx="93.53" cy="271.71" rx="1.77" ry="2.38" transform="translate(-172.72 163.63) rotate(-48.91)"/>
        <ellipse class="cls-36" cx="83.79" cy="278.25" rx="1.77" ry="4.17" transform="translate(-180.99 158.52) rotate(-48.91)"/>
        <ellipse class="cls-34" cx="76.11" cy="280.14" rx="1.3" ry="2.46" transform="translate(-167.67 122.52) rotate(-41.92)"/>
        <ellipse class="cls-35" cx="76.53" cy="283.77" rx="2.41" ry="1.24" transform="translate(-167.28 119.64) rotate(-40.96)"/>
        <ellipse class="cls-36" cx="80.12" cy="283.55" rx="2.87" ry="1.77" transform="translate(-164.2 118.85) rotate(-40.24)"/>
        <ellipse class="cls-34" cx="93.85" cy="301.86" rx="2.86" ry="1.77" transform="translate(-220.67 333.57) rotate(-78.49)"/>
        <ellipse class="cls-35" cx="86.31" cy="295.68" rx="1.24" ry="2.41" transform="translate(-194.87 169.93) rotate(-49.63)"/>
        <ellipse class="cls-35" cx="80.8" cy="305.57" rx="2.41" ry="1.24" transform="translate(-180.52 127.77) rotate(-40.96)"/>
        <ellipse class="cls-36" cx="84.39" cy="305.35" rx="2.87" ry="1.77" transform="translate(-177.27 126.77) rotate(-40.24)"/>
        <ellipse class="cls-36" cx="96.63" cy="283.1" rx="1.77" ry="3.82" transform="translate(-180.24 169.86) rotate(-48.91)"/>
        <ellipse class="cls-36" cx="113.58" cy="288.59" rx="2.78" ry="1.77" transform="translate(-195.95 307.88) rotate(-72.08)"/>
        <ellipse class="cls-36" cx="85.62" cy="293.52" rx="1.77" ry="3.57" transform="translate(-118.87 66.21) rotate(-25.71)"/>
        <ellipse class="cls-34" cx="108.34" cy="291.77" rx="3.12" ry="1.77" transform="matrix(0.2, -0.98, 0.98, 0.2, -199.18, 339.69)"/>
        <ellipse class="cls-35" cx="112.58" cy="279.63" rx="2.41" ry="1.24" transform="matrix(0.82, -0.58, 0.58, 0.82, -141.19, 116.95)"/>
        <ellipse class="cls-36" cx="112" cy="289.42" rx="1.77" ry="3.57" transform="translate(-114.47 77.25) rotate(-25.71)"/>
        <ellipse class="cls-36" cx="94.16" cy="287.59" rx="1.77" ry="3.57" transform="translate(-115.45 69.32) rotate(-25.71)"/>
        <ellipse class="cls-36" cx="75.77" cy="289.31" rx="1.24" ry="3.3" transform="translate(-192.07 156.27) rotate(-48.91)"/>
        <ellipse class="cls-34" cx="53.92" cy="291.82" rx="3.02" ry="1.77" transform="translate(-242.79 286.4) rotate(-78.49)"/>
        <ellipse class="cls-35" cx="61.39" cy="295.51" rx="2.41" ry="1.24" transform="translate(-178.68 112.59) rotate(-40.96)"/>
        <ellipse class="cls-36" cx="60.63" cy="301.05" rx="1.24" ry="3.3" transform="translate(-206.11 148.88) rotate(-48.91)"/>
        <ellipse class="cls-36" cx="67.13" cy="305.86" rx="1.24" ry="3.3" transform="translate(-207.52 155.43) rotate(-48.91)"/>
        <ellipse class="cls-36" cx="71.06" cy="267.54" rx="1.24" ry="3.3" transform="translate(-177.28 145.26) rotate(-48.91)"/>
        <ellipse class="cls-36" cx="78.74" cy="268.18" rx="1.24" ry="3.3" transform="translate(-175.13 151.26) rotate(-48.91)"/>
        <ellipse class="cls-36" cx="97.72" cy="271.41" rx="1.24" ry="3.3" transform="translate(-171.06 166.68) rotate(-48.91)"/>
        <ellipse class="cls-36" cx="104.2" cy="289.65" rx="3.3" ry="1.24" transform="translate(-195.26 360.94) rotate(-83.61)"/>
      </g>
    </g>
  </g>
  <g>
    <path class="cls-1" d="M151.81,310.76c0-.07-.08.09-.11.15a2.66,2.66,0,0,1-.21.26,5.9,5.9,0,0,0-.35.58l-.54.8c-.28.4-.66.71-.92,1.13a4,4,0,0,1-.64.79,18,18,0,0,1-1.44,1.31,5.69,5.69,0,0,1-1.52.92,17.24,17.24,0,0,1-2.4.84,10.2,10.2,0,0,1-2.23.21H140a5.07,5.07,0,0,0-1.3.06,3.36,3.36,0,0,1-.73.21c-.43,0-.83-.2-1.25-.2a.8.8,0,0,1-.31,0,.69.69,0,0,0-.18-.08h-.13a1.21,1.21,0,0,1-.31-.15c-.07,0-.15,0-.22-.07a1.91,1.91,0,0,0-.34-.14,1.38,1.38,0,0,1-.39-.19c-.08-.05-.09,0-.11-.1a.31.31,0,0,1,0-.19c0-.08.09-.08.16-.13s.09-.11.19-.14.26-.11.41-.17.34-.11.5-.19.27-.11.4-.17.16-.12.26-.17a7.9,7.9,0,0,0,.79-.45c.13-.09.24-.19.37-.27s.22-.09.33-.15a6.57,6.57,0,0,0,.68-.37c.22-.15.47-.26.68-.42a1.86,1.86,0,0,0,.35-.3c.14-.18.18-.36-.1-.36a1,1,0,0,0-.55.13c-.15.09-.27.22-.42.31-.4.26-.82.49-1.22.75-.55.37-1.1.75-1.68,1.08a21.35,21.35,0,0,1-3.41,1.6,13.8,13.8,0,0,1-1.58.46c-.73.16-1.45.46-2.18.66s-1.31.31-1.95.54a3.93,3.93,0,0,1-2.93-.22c-.75-.47-2-1.4-1.74-2.41.16-.73,1-1.25,1.58-1.64s1.3-.42,1.92-.77,1.16-.71,1.76-1a5.28,5.28,0,0,0,1.43-1.11,10.47,10.47,0,0,1,.75-1.06,4.92,4.92,0,0,0,.87-1.62q.86-2,1.69-3.92c.19-.45.54-1,0-1.42s-1,.11-1.4.38c-2.77,1.82-5.51,3.7-8.29,5.51a26.6,26.6,0,0,1-6.87,3.5c-1,.3-2.09.49-2.87-.45a2.82,2.82,0,0,1-.25-2.94,17.9,17.9,0,0,1,4.43-6.27c3.37-3.29,6.86-6.46,10.29-9.69,2.51-2.37,2.4-3.18-.72-4.74a54.82,54.82,0,0,1-6-2.86,5.07,5.07,0,0,1-2.47-3,3,3,0,0,1,2.19-4c3.65-1.31,7.48-1.07,11.26-1.12,2.28,0,4.55.07,6.83.17a3.64,3.64,0,0,0,3.41-1.36q1.27-1.63,2.49-3.29,4-5.48,7.53-11.33A133.67,133.67,0,0,0,158,250.53,131.66,131.66,0,0,0,163.09,238q1.12-3.22,2.07-6.5.48-1.65.91-3.31c.13-.49.84-2.6,1.08-3.1.15-.32.22-.73.57-.82a1.9,1.9,0,0,1,1,.18c5,1.85,10.05.81,15-.54a1.24,1.24,0,0,1,.65-.06c.59.16.6,1,.48,1.59-4.57,22.38-13.19,43.85-22.7,64.57a8.23,8.23,0,0,0-.75,3.83c.07,2.22.14,4.43.18,6.65,0,0,1.5,5.38-3.9,11.07a17.9,17.9,0,0,1-10.13,5.62.33.33,0,0,1-.28-.57C148.67,315.24,151.75,312.22,151.81,310.76Z"/>
    <path class="cls-10" d="M167.95,200.4a13.87,13.87,0,0,0-1,2.79c-.77,3.15-.86,6.4-1.47,9.58a34.32,34.32,0,0,1-2,6.53,5.14,5.14,0,0,0-.55,2.26,2.28,2.28,0,0,0,.71,1.42c3.46,3.43,6.71,4.65,11.14,5.28,2.42.34,4.76.36,7.2.56a3.67,3.67,0,0,0,3.1-.69,11,11,0,0,0,1.52-2.55c1.59-3.68,3.56-6.19,5.92-9.44,2.57-3.54,4-6.68,4.08-10.64a18.48,18.48,0,0,0-.93-7.46,11.87,11.87,0,0,0-4.65-5.56C182.89,187.76,171.93,192.28,167.95,200.4Z"/>
  </g>
</svg>
