<svg id="Layer_3" data-name="Layer 3" xmlns="http://www.w3.org/2000/svg" xmlns:xlink="http://www.w3.org/1999/xlink" viewBox="0 0 260 168"><defs><style>.cls-1{fill:#f7f7f7;}.cls-2{fill:red;opacity:0.49;}.cls-3{fill:#eae4e7;}.cls-17,.cls-4,.cls-8{fill:#e5e4df;}.cls-4{opacity:0.25;}.cls-5{fill:#ffde52;}.cls-6{fill:#ffca55;}.cls-7{clip-path:url(#clip-path);}.cls-9{fill:#c92d2d;}.cls-10{fill:#fff;}.cls-11{fill:#e5e3e4;}.cls-12{fill:#efb54d;}.cls-13{fill:#f2d24c;}.cls-14{clip-path:url(#clip-path-2);}.cls-15{fill:#f66;opacity:0.19;}.cls-16{fill:none;stroke:#e5e4df;stroke-linecap:round;stroke-linejoin:round;stroke-width:0.54px;}.cls-17{opacity:0.28;}</style><clipPath id="clip-path"><path class="cls-1" d="M133.91,133.59c10.86-6.26,33.79-7.39,33.79-7.39l4-6h.08l-.05,0,0,0h-.08L165.25,116s-21.61,6.64-34.47,4.52c0,0-4.92,2.36-3.76,7.45h0s0,0,0,0a.06.06,0,0,1,0,0h0C128.31,133.07,133.91,133.59,133.91,133.59Z"/></clipPath><clipPath id="clip-path-2"><path class="cls-2" d="M158.1,100.48l11.31,9.13s.37,1.69-3.2,6.11-7.92,2.77-11.5-.12S149.24,106.43,158.1,100.48Z"/></clipPath></defs><path class="cls-3" d="M160.1,115a8.81,8.81,0,0,1,4.12,1.79,3.52,3.52,0,0,1,1,4.09c-.82,1.49-2.79,1.82-4.49,1.91-8,.45-16.12-.41-24.08.67-1.91.25-7.88.66-6.62-2.93.91-2.6,5.93-3.89,8.2-4.6A42.75,42.75,0,0,1,160.1,115Z"/><path class="cls-1" d="M119.39,131a33.42,33.42,0,0,0,12.45,9.78c7.73,3.31,20.65,4.88,28.69,2.83s10.72-16.39,8.36-20.65l-11.35-3.62s-.47,4.41-1.1,7.72a6.91,6.91,0,0,1-7.57,5.52c-3.94-.32-8.83-1.89-9.93-5S124.59,123.54,119.39,131Z"/><path class="cls-4" d="M161.67,127.87a3.93,3.93,0,0,1,1.18-.07,4.21,4.21,0,0,1,.84.3,7.53,7.53,0,0,0,5,.42,7,7,0,0,1-1.09,3.28,2.72,2.72,0,0,1-1.6,1.31,1.27,1.27,0,0,1-1.57-1,4.3,4.3,0,0,1-2.85,1.72,2.26,2.26,0,0,1-1.2.12c-.94-.26-1.14-1.49-1.06-2.46a4.19,4.19,0,0,1-1.75,1.36.77.77,0,0,1-.42.07.69.69,0,0,1-.35-.28,2.41,2.41,0,0,1-.31-2.16,2.5,2.5,0,0,1-1.22.77c.24-1,.65-2.68,1.75-3.09C158.32,127.67,160.26,128.08,161.67,127.87Z"/><path class="cls-5" d="M104.35,118.67l-8,.75s-5.18-7.55-5-6.85a21.92,21.92,0,0,0,3,5.68s-4.7-5.84-5.33-5.82,3.88,7.08,3.88,7.08-5.08-3.73-5.51-3.68,3.65,4.74,4.25,5.25,2.73,3.14,4,3.65c.77.32,2.62-.35,2-2.88l7.71-.16S105.9,120.32,104.35,118.67Z"/><path class="cls-6" d="M88.05,116.15a5.72,5.72,0,0,0,1.14-2.81,19.16,19.16,0,0,1,3.57,4.71,7.72,7.72,0,0,1,.57,1.18s.16.51-.16.43S92.36,119.51,88.05,116.15Z"/><path class="cls-6" d="M89.71,113h1.73s2.33,2.92,2.62,4.79c0,0,.24.72-1.1-1A33.53,33.53,0,0,0,89.71,113Z"/><ellipse class="cls-3" cx="115.37" cy="121.26" rx="6.54" ry="12.22" transform="translate(-11.99 229.85) rotate(-86.88)"/><path class="cls-5" d="M102.3,124.5l-8,.76s-5.18-7.56-5-6.86a21.92,21.92,0,0,0,3,5.68s-4.69-5.83-5.33-5.82,3.88,7.09,3.88,7.09-5.08-3.74-5.51-3.69,3.65,4.74,4.25,5.26,2.73,3.13,4,3.64c.77.32,2.62-.35,2-2.87l7.71-.17S103.85,126.16,102.3,124.5Z"/><path class="cls-6" d="M86,122a5.76,5.76,0,0,0,1.14-2.81,18.91,18.91,0,0,1,3.57,4.71,7.49,7.49,0,0,1,.57,1.17s.16.52-.16.43S90.31,125.35,86,122Z"/><path class="cls-6" d="M87.66,118.85h1.73s2.33,2.91,2.62,4.78c0,0,.24.72-1.1-1A33,33,0,0,0,87.66,118.85Z"/><path class="cls-1" d="M133.91,133.59c10.86-6.26,33.79-7.39,33.79-7.39l4-6h.08l-.05,0,0,0h-.08L165.25,116s-21.61,6.64-34.47,4.52c0,0-4.92,2.36-3.76,7.45h0s0,0,0,0a.06.06,0,0,1,0,0h0C128.31,133.07,133.91,133.59,133.91,133.59Z"/><g class="cls-7"><ellipse class="cls-8" cx="162.65" cy="118.87" rx="8.47" ry="11.15" transform="translate(7.21 247.02) rotate(-75.66)"/></g><path class="cls-1" d="M173.25,125.27c-5.11,6.11-10.89,3-17-2.16s-10.24-10.23-5.13-16.34,17.53-10.89,23.64-5.78S178.36,119.17,173.25,125.27Z"/><path class="cls-9" d="M164.54,112.9c2.85-6.1,1.38-7.41,1.38-7.41a1.84,1.84,0,0,0-1.19-2.42,2.67,2.67,0,0,0-2.87-2.15,3,3,0,0,0-2.29-1.26,9.78,9.78,0,0,0-5.09,1.38c-1.59,1-2,2.57-2.4,4.3a1.1,1.1,0,0,1-1.25.88,1.3,1.3,0,0,0-1,.18,1.83,1.83,0,0,0,1.54,1.26,2.45,2.45,0,0,0,2,1.75,5,5,0,0,0,.54,4.54c-.09,3.67,2.84,3.62,2.84,3.62C157.75,118.81,161.68,119,164.54,112.9Z"/><ellipse class="cls-10" cx="160.22" cy="109.85" rx="6.29" ry="3.98" transform="translate(-6.3 209.9) rotate(-65.43)"/><path d="M158.48,108.46c.56.35,1.55-.21,2.2-1.24a3.22,3.22,0,0,0,.52-1.66,2.14,2.14,0,0,1,1,.17c1.6.73,2,3.39.8,5.93s-3.4,4-5,3.27-2-3.39-.8-5.93a7.55,7.55,0,0,1,1-1.56A1.08,1.08,0,0,0,158.48,108.46Z"/><ellipse class="cls-11" cx="170.05" cy="101.86" rx="0.97" ry="2.02" transform="translate(-17.19 166.93) rotate(-50.09)"/><ellipse class="cls-11" cx="172.42" cy="105.83" rx="0.55" ry="1.15" transform="translate(-19.39 170.18) rotate(-50.09)"/><ellipse class="cls-11" cx="174.22" cy="103" rx="1.18" ry="2.45" transform="translate(-16.57 170.54) rotate(-50.09)"/><path class="cls-12" d="M139.41,106.77s1.5,11.12,10.67,12.32-3.05-13.5-3.05-13.5Z"/><path class="cls-13" d="M153.4,109.41c-.07-.14-20.69-21.31-16.16-6.83S151.84,119,152.74,119,156.56,116.17,153.4,109.41Z"/><ellipse class="cls-12" cx="151.67" cy="110.67" rx="0.75" ry="2.05" transform="translate(-7.36 10.86) rotate(-4)"/><polygon points="172.21 108.61 175.83 117.39 174.85 118.93 168.96 110.61 172.21 108.61"/><path class="cls-2" d="M158.1,100.48l11.31,9.13s.37,1.69-3.2,6.11-7.92,2.77-11.5-.12S149.24,106.43,158.1,100.48Z"/><g class="cls-14"><path class="cls-15" d="M158,105.06a1.35,1.35,0,0,0-.8.69c-.11.32,0,.67,0,1-.12.67-.93.94-1.61,1.09a56,56,0,0,0-6.33,1.76,2,2,0,0,0-1.19.77,1.4,1.4,0,0,0,.57,1.77,3.55,3.55,0,0,0,2,.42,17.57,17.57,0,0,0,6.82-1.41,2.64,2.64,0,0,0,1.54-1.26c.21-.52.1-1.14.32-1.65A2.74,2.74,0,0,1,161,107l3-1.06a10,10,0,0,0,2.64-1c.7-.58.37-.82-.44-1.17C163.45,102.69,160.43,103.9,158,105.06Z"/><path class="cls-15" d="M164.83,111.51a1.41,1.41,0,0,0-.79.7c-.11.32,0,.67,0,1-.12.67-.93.94-1.61,1.08a58.28,58.28,0,0,0-6.33,1.77,2.08,2.08,0,0,0-1.19.76,1.41,1.41,0,0,0,.57,1.78,3.62,3.62,0,0,0,2,.42,17.58,17.58,0,0,0,6.82-1.42,2.59,2.59,0,0,0,1.54-1.25c.21-.53.09-1.14.32-1.65a2.71,2.71,0,0,1,1.7-1.2l3-1.06a10,10,0,0,0,2.64-1c.69-.57.37-.81-.44-1.16C170.3,109.15,167.28,110.36,164.83,111.51Z"/></g><path d="M170.72,111.93l1.49-3.32h0L161,98.94h0l-2.72-2.35L155,100.22l.91.8-2.16,2.49s-6.52,6.46,1.06,13,13.8-1.55,14.91-5Zm-15.58,2.18a7.39,7.39,0,0,1-.59-8.4,7.23,7.23,0,0,1,4.6-3.33h0l9,7.76h0a7.31,7.31,0,0,1-13,4Z"/><path class="cls-1" d="M145.58,123.81c-.47,8.52-12.92,14.29-23.62,13.7s-15.59-7.32-15.12-15.84,7.55-12.53,18.25-11.94S146.06,115.29,145.58,123.81Z"/><path class="cls-1" d="M134.64,110.67a6.79,6.79,0,0,0-3.91-.83.67.67,0,0,0-.3.1.45.45,0,0,0-.06.6,1.36,1.36,0,0,0,.51.41,3.21,3.21,0,0,0-1.54,0c-.48.13-1,.52-.88,1a1.08,1.08,0,0,0,.3.47,4.88,4.88,0,0,0,1.26.94,3.24,3.24,0,0,0-1,.59,1.13,1.13,0,0,0-.37,1,1.44,1.44,0,0,0,.29.51,4,4,0,0,0,2.8,1.48,1.33,1.33,0,0,0-.95.42.35.35,0,0,0-.1.21c0,.11.12.19.21.24a6.43,6.43,0,0,0,2.11.58,27.52,27.52,0,0,0,4,.41,3.65,3.65,0,0,0,1.7-.31,1.55,1.55,0,0,0,.91-1.38,6.34,6.34,0,0,0-.21-.86,11.57,11.57,0,0,1-.11-1.31,3.22,3.22,0,0,0-1.7-2.27A28.47,28.47,0,0,0,134.64,110.67Z"/><path class="cls-16" d="M130,110.91a1.62,1.62,0,0,0,0,2.4,1.58,1.58,0,0,0,1,2.89,1.58,1.58,0,0,0,1.63,2.57,2,2,0,0,0,1.17,2.51,5.82,5.82,0,0,0,3.05.15"/><ellipse class="cls-1" cx="113.32" cy="127.09" rx="6.54" ry="12.22" transform="translate(-19.75 233.32) rotate(-86.88)"/><path class="cls-1" d="M146.61,146a3.47,3.47,0,0,0,2.5,0c.75-.41,1-1.63.34-2.1a15.56,15.56,0,0,0,9.77,1.34,4.49,4.49,0,0,0,3-1.62l-1.1-.94c1.72-.29,2.59-2.53,1.89-4.12a5.05,5.05,0,0,0-4.19-2.69,18.55,18.55,0,0,0-5.18.48c-2.7.47-5.43.72-8.16,1a10.14,10.14,0,0,1-4-.17,16.73,16.73,0,0,0-2.43-.86,3.21,3.21,0,0,0-3,1.23C132.67,142.05,143.81,145.32,146.61,146Z"/><path class="cls-1" d="M147.56,132.8a4.87,4.87,0,0,1-4.63.65c-1.37-.41-2.77-1.33-3-2.75-.31-1.73,1.59-3.68,3.33-3.22S146.57,131.36,147.56,132.8Z"/><path class="cls-17" d="M136.56,126.11a8.05,8.05,0,0,0-4.64,3c-.26-.25-.68,0-.94.25a14.48,14.48,0,0,0-2.37,3,6.1,6.1,0,0,1,2.66-4.46c.79-1.83,2.9-2.69,4.87-3a8.05,8.05,0,0,1,3.28,0,3.67,3.67,0,0,1,2.5,1.78C140.09,126.19,138.51,125.67,136.56,126.11Z"/></svg>