<svg id="Layer_1" data-name="Layer 1" xmlns="http://www.w3.org/2000/svg" xmlns:xlink="http://www.w3.org/1999/xlink" viewBox="0 0 260 168"><defs><style>.cls-1{fill:#f7f7f7;}.cls-2{fill:#fff;}.cls-3{fill:#724100;}.cls-4{fill:#ffca55;}.cls-5{fill:#ffde52;}.cls-6{clip-path:url(#clip-path);}.cls-7{fill:#e5e4df;}.cls-8{fill:#c92d2d;}.cls-9{clip-path:url(#clip-path-2);}.cls-10{clip-path:url(#clip-path-3);}.cls-11{fill:#e5e3e4;}.cls-12{fill:#efa94d;}.cls-13{clip-path:url(#clip-path-4);}.cls-14{fill:#ff1a36;}.cls-15{fill:#f2d24c;}.cls-16{fill:#efb54d;}.cls-17{clip-path:url(#clip-path-5);}.cls-18{fill:#e8e8e6;}.cls-19{opacity:0.21;}.cls-20{fill:#e5e5e5;}</style><clipPath id="clip-path"><path class="cls-1" d="M121.45,100.59C117.16,91,120,73,120,73l-5.2-4.25v-.07l0,0,0,0v.07L109.49,73s2.81,18-1.47,27.63a7,7,0,0,0,6.67,4.31h.09A7,7,0,0,0,121.45,100.59Z"/></clipPath><clipPath id="clip-path-2"><ellipse class="cls-2" cx="105.63" cy="68.35" rx="5" ry="3.16" transform="matrix(0.16, -0.99, 0.99, 0.16, 21.64, 162.02)"/></clipPath><clipPath id="clip-path-3"><ellipse class="cls-2" cx="120.17" cy="66.73" rx="3.16" ry="5" transform="translate(-16.16 49.21) rotate(-21.72)"/></clipPath><clipPath id="clip-path-4"><path class="cls-3" d="M106.82,75.88a17.46,17.46,0,0,0,14.61-1.63s-.35,5.19-7.17,6S106.82,75.88,106.82,75.88Z"/></clipPath><clipPath id="clip-path-5"><path class="cls-1" d="M132.3,116.37c0,9.42-7.86,12.79-17.57,12.79s-17.56-3.37-17.56-12.79S105,93.54,114.73,93.54,132.3,107,132.3,116.37Z"/></clipPath></defs><path class="cls-1" d="M101.12,114.68c1-.24,10.59-11.74,1.15-22.16S88.84,76.19,88.84,76.19s-2.62-1.31-2.44,4.64c0,0-4.67,2.92-2.28,7.17,0,0-4.16,6.47,2.43,10.67,0,0-3.58,7.56,3.18,9.46C89.73,108.13,90.37,117.35,101.12,114.68Z"/><path class="cls-1" d="M121.72,110.13c-.61-.81-.83-15.8,13.06-17.94S155.5,88,155.5,88s2.85.63-1,5.14c0,0,1.79,5.2-2.74,7,0,0-.85,7.65-8.61,6.76,0,0-2,8.13-8.43,5.35C134.69,112.21,128.38,119,121.72,110.13Z"/><path class="cls-4" d="M101.46,138.17a8,8,0,0,1,5.75,4s3.22-4.85,6.51-3.27l-6.91-4.18Z"/><path class="cls-5" d="M106.39,134.41l.17-7.69,2.27,0-.11,7.53s7.36,5,5.13,5.12-5.28-2.52-5.28-2.52c-1.79,13.41-2.19-.35-2.19-.35s-3.77,2.71-5.39,2.12S106.39,134.41,106.39,134.41Z"/><path class="cls-4" d="M128.55,138.17a8,8,0,0,0-5.75,4s-3.22-4.85-6.51-3.27l6.91-4.18Z"/><path class="cls-5" d="M123.62,134.41l-.17-7.69-2.28,0,.12,7.53s-7.36,5-5.13,5.12,5.28-2.52,5.28-2.52c1.78,13.41,2.19-.35,2.19-.35s3.77,2.71,5.39,2.12S123.62,134.41,123.62,134.41Z"/><path class="cls-1" d="M121.45,100.59C117.16,91,120,73,120,73l-5.2-4.25v-.07l0,0,0,0v.07L109.49,73s2.81,18-1.47,27.63a7,7,0,0,0,6.67,4.31h.09A7,7,0,0,0,121.45,100.59Z"/><g class="cls-6"><ellipse class="cls-7" cx="114.73" cy="76.13" rx="9.41" ry="7.99"/></g><path class="cls-1" d="M124.6,69c.7,6.29-4.29,7.87-10.58,8.58s-11.51.26-12.21-6,3.37-16,9.66-16.76S123.9,62.71,124.6,69Z"/><path class="cls-8" d="M124.29,65.92c-1.94-5-3.5-4.87-3.5-4.87a1.46,1.46,0,0,0-2-.64,2.11,2.11,0,0,0-2.81.47c-.87-.27-1.9.49-2.52,1.06a1.32,1.32,0,0,0-1.48-.77,1.64,1.64,0,0,0-1.36.88,2.71,2.71,0,0,0-2.38-.31,2.11,2.11,0,0,0-2.84.16A1.47,1.47,0,0,0,103.51,63s-1.55.22-2.34,5.52,1.9,6.9,3.09,6.51c0,0,1.92,1.32,3.47-1.16a4,4,0,0,0,2.36-2.76,1.94,1.94,0,0,0,2.22-.39,1.43,1.43,0,0,0,1.74-.1,2,2,0,0,0,2.12-.19,4,4,0,0,0,2.9,2.18c2.06,2.07,3.64.36,3.64.36C124,73.06,126.23,70.92,124.29,65.92Z"/><ellipse class="cls-2" cx="105.63" cy="68.35" rx="5" ry="3.16" transform="matrix(0.16, -0.99, 0.99, 0.16, 21.64, 162.02)"/><g class="cls-9"><path d="M107.28,68.72c-.53,0-.94-.81-.92-1.79a2.49,2.49,0,0,1,.39-1.32,1.67,1.67,0,0,0-.72-.32c-1.39-.22-2.79,1.38-3.14,3.57s.5,4.15,1.89,4.37,2.79-1.38,3.14-3.57a5.94,5.94,0,0,0,0-1.45A.85.85,0,0,1,107.28,68.72Z"/></g><ellipse class="cls-2" cx="120.17" cy="66.73" rx="3.16" ry="5" transform="translate(-16.16 49.21) rotate(-21.72)"/><g class="cls-10"><path d="M118.12,67.2c.51-.12.74-1,.5-1.94a2.39,2.39,0,0,0-.67-1.21,1.66,1.66,0,0,1,.63-.46c1.31-.52,3,.73,3.85,2.79s.43,4.16-.87,4.68-3-.73-3.85-2.8a5.7,5.7,0,0,1-.37-1.4A.82.82,0,0,0,118.12,67.2Z"/></g><ellipse class="cls-11" cx="109.39" cy="57.98" rx="1.61" ry="0.77" transform="translate(-5.76 12.5) rotate(-6.37)"/><ellipse class="cls-11" cx="112.97" cy="58.8" rx="0.91" ry="0.44" transform="translate(-5.83 12.91) rotate(-6.37)"/><ellipse class="cls-11" cx="112.33" cy="56.21" rx="1.95" ry="0.94" transform="translate(-5.55 12.82) rotate(-6.37)"/><path class="cls-12" d="M105.58,76.9a7.78,7.78,0,0,0,9.09,6.47c8-.9,8-8.79,8-8.79Z"/><path class="cls-3" d="M106.82,75.88a17.46,17.46,0,0,0,14.61-1.63s-.35,5.19-7.17,6S106.82,75.88,106.82,75.88Z"/><g class="cls-13"><ellipse class="cls-14" cx="114.95" cy="83.28" rx="7.32" ry="6.05" transform="translate(-8.53 13.28) rotate(-6.37)"/></g><path class="cls-15" d="M124,75.56a.51.51,0,0,0,0-.2c-.68-2.68-5.75-6-10-5.54-.18,0-.37.07-.56.11a5.43,5.43,0,0,0-.57,0c-4.24.47-8.46,4.84-8.52,7.61a.44.44,0,0,0,0,.2,2,2,0,0,0,.17.78,2.82,2.82,0,0,0,3.41.37,3.85,3.85,0,0,0,.93-.5,13.84,13.84,0,0,1,2.78-1.27,19.93,19.93,0,0,1,2.54-.55,18.62,18.62,0,0,1,2.6,0,13.08,13.08,0,0,1,3,.63,3.77,3.77,0,0,0,1,.27A2.8,2.8,0,0,0,124,76.36,2,2,0,0,0,124,75.56Z"/><ellipse class="cls-16" cx="109.38" cy="72.42" rx="1.41" ry="0.49" transform="translate(-20.8 88.58) rotate(-40.58)"/><ellipse class="cls-16" cx="117.85" cy="71.48" rx="0.49" ry="1.41" transform="translate(-0.39 142.31) rotate(-62.16)"/><path class="cls-1" d="M132.3,116.37c0,9.42-7.86,12.79-17.57,12.79s-17.56-3.37-17.56-12.79S105,93.54,114.73,93.54,132.3,107,132.3,116.37Z"/><g class="cls-17"><path class="cls-18" d="M94.65,117.15s6.64,8.74,13.39,9.57c0,0-.11-.83,3.85.1,0,0,9.75-1.66,8.14-.2,0,0,12.43-2.19,13.07-11.45h3.11v18.21H95.61Z"/></g><g class="cls-19"><path class="cls-20" d="M107.16,108.06a1.5,1.5,0,0,0-.46,2.1,2,2,0,0,0,2.46.49l-.36-.1a3.84,3.84,0,0,0,5.8.69h-.37a4.35,4.35,0,0,0,3.34.77c.94-.12,2.08-.47,2.32-1.52l-.39.16a2.05,2.05,0,1,0,1.92-3.62c-.3-.15-.56.31-.26.46a1.53,1.53,0,1,1-1.39,2.71.27.27,0,0,0-.39.15c-.21.9-1.36,1.1-2.14,1.17a3.68,3.68,0,0,1-2.64-.65.28.28,0,0,0-.37,0,3.31,3.31,0,0,1-5-.58.27.27,0,0,0-.36-.1,1.44,1.44,0,0,1-1.69-.23,1,1,0,0,1,.23-1.45.26.26,0,0,0-.27-.45Z"/></g></svg>