<svg xmlns="http://www.w3.org/2000/svg" viewBox="0 0 260 168"><defs><style>.cls-1{fill:#f7f7f7;}.cls-2{fill:#ffde52;}.cls-3{fill:#ffca55;}</style></defs><g id="Layer_9" data-name="Layer 9"><g id="Layer_3" data-name="Layer 3"><path class="cls-1" d="M-19,92.86c7.34-2.64,16.64,5.78,20,15s-.58,15.75-7.93,18.37-13.23-1.88-16.56-11.1S-26.29,95.51-19,92.86Z"/><path class="cls-2" d="M-1.57,126.86l1.21,7.29s-6.55,5.21-5.92,5a20,20,0,0,0,5-3.06s-5,4.65-5,5.23,6.21-4,6.21-4-3.09,4.88-3,5.27S1,139,1.44,138.37s2.68-2.7,3-3.84c.24-.72-.49-2.36-2.76-1.67l-.59-7A2.61,2.61,0,0,0-1.57,126.86Z"/><path class="cls-3" d="M-2.8,141.89A5.2,5.2,0,0,0-5.44,141a17.64,17.64,0,0,1,4.06-3.6,6.1,6.1,0,0,1,1.06-.59s.46-.19.4.11S0,137.75-2.8,141.89Z"/><ellipse class="cls-1" cx="-2.79" cy="118.07" rx="5.97" ry="11.15" transform="translate(-15.4 0.64) rotate(-7.48)"/><path class="cls-1" d="M-16.66,113.2c-.77-.91-1.62-18.11,14.24-21.15S21.2,86.32,21.2,86.32s3.31.61-.95,5.94c0,0,2.27,5.9-2.84,8.15,0,0-.65,8.82-9.61,8.14,0,0-1.92,9.42-9.46,6.49C-1.69,115.06-8.66,123.09-16.66,113.2Z"/></g></g></svg>