<svg id="Layer_1" data-name="Layer 1" xmlns="http://www.w3.org/2000/svg" xmlns:xlink="http://www.w3.org/1999/xlink" viewBox="0 0 260 168"><defs><style>.cls-1{fill:#f7f7f7;}.cls-2{fill:#fff;}.cls-3{fill:#541dff;opacity:0.5;}.cls-4{fill:red;opacity:0.51;}.cls-5{fill:#082bbc;}.cls-6{fill:#0025ff;}.cls-7{fill:#9b9a9a;}.cls-8{fill:#ffca55;}.cls-9{fill:#ffde52;}.cls-10{clip-path:url(#clip-path);}.cls-11{fill:#e5e4df;}.cls-12{fill:#efa94d;}.cls-13{fill:#c92d2d;}.cls-14{fill:#f2d24c;}.cls-15{fill:#efb54d;}.cls-16{clip-path:url(#clip-path-2);}.cls-17{clip-path:url(#clip-path-3);}.cls-18{fill:#e5e3e4;}.cls-19{clip-path:url(#clip-path-4);}.cls-20{fill:#e8e8e6;}.cls-21{opacity:0.21;}.cls-22{fill:#e5e5e5;}.cls-23{clip-path:url(#clip-path-5);}.cls-24{fill:#6e60f4;}.cls-24,.cls-26{opacity:0.19;}.cls-25{clip-path:url(#clip-path-6);}.cls-26{fill:#ed6b6b;}.cls-27{fill:none;stroke:#007aff;stroke-linecap:round;stroke-linejoin:round;stroke-width:0.19px;}.cls-28{fill:#d5d7db;}.cls-29{fill:#152cbc;}.cls-30{clip-path:url(#clip-path-7);}.cls-31{fill:#007aff;}.cls-32{clip-path:url(#clip-path-8);}.cls-33{fill:#ffda00;}.cls-34{fill:#e5e6ea;}</style><clipPath id="clip-path"><path class="cls-1" d="M130.2,103.1c-4.64-10.39-1.59-29.91-1.59-29.91L123,68.6v-.08l0,0,0,0v.08l-5.63,4.59s3,19.52-1.59,29.91a7.54,7.54,0,0,0,7.22,4.66H123A7.54,7.54,0,0,0,130.2,103.1Z"/></clipPath><clipPath id="clip-path-2"><ellipse class="cls-2" cx="115.02" cy="66.7" rx="5.41" ry="3.42" transform="translate(20.25 159.97) rotate(-74.65)"/></clipPath><clipPath id="clip-path-3"><ellipse class="cls-2" cx="130.85" cy="66.7" rx="3.42" ry="5.41" transform="translate(-12.99 37.01) rotate(-15.35)"/></clipPath><clipPath id="clip-path-4"><path class="cls-1" d="M142,120.17c0,10.2-8.52,13.85-19,13.85s-19-3.65-19-13.85,8.52-24.7,19-24.7S142,110,142,120.17Z"/></clipPath><clipPath id="clip-path-5"><path class="cls-3" d="M123.61,89.79l8.45,5.29s.4,1.12-1.67,4.43-5.17,2.54-7.84.86S118.06,94.58,123.61,89.79Z"/></clipPath><clipPath id="clip-path-6"><path class="cls-4" d="M136.68,98l8.46,5.28s.39,1.12-1.68,4.43-5.16,2.54-7.84.87S131.14,102.75,136.68,98Z"/></clipPath><clipPath id="clip-path-7"><path class="cls-5" d="M114.57,103.64s6.59-7.07,7-9.44c.4-2.15-8.23,5.45-9.81,6.85a.7.7,0,0,0-.24.62,2.06,2.06,0,0,0,.23.77.74.74,0,0,1-.13.92l-.84.79a.75.75,0,0,0,0,1.06l.62.62a.74.74,0,0,0,1.06,0Z"/></clipPath><clipPath id="clip-path-8"><path class="cls-6" d="M109.31,101s1.36-9.58,2.93-11.4c1.42-1.67.93,9.83.83,11.93a.7.7,0,0,1-.33.58,1.88,1.88,0,0,1-.74.3.76.76,0,0,0-.64.68l-.09,1.15a.72.72,0,0,1-.81.68l-.87-.08a.75.75,0,0,1-.66-.83Z"/></clipPath></defs><polygon class="cls-7" points="120.3 92.07 124.65 95.6 126.64 93.78 122.18 90.24 120.3 92.07"/><path class="cls-1" d="M111.58,100.78s-10.38,2.85-12.82,12,8.75,13.12,8.75,13.12l19.43-11.7Z"/><path class="cls-8" d="M108.57,143.76a8.6,8.6,0,0,1,6.22,4.33s3.49-5.25,7-3.55L114.36,140Z"/><path class="cls-9" d="M113.9,139.7l.19-8.32,2.46,0-.12,8.15s8,5.44,5.55,5.54-5.71-2.73-5.71-2.73c-1.94,14.52-2.38-.38-2.38-.38s-4.07,2.94-5.83,2.29S113.9,139.7,113.9,139.7Z"/><path class="cls-8" d="M137.89,143.76a8.58,8.58,0,0,0-6.22,4.33s-3.49-5.25-7-3.55l7.47-4.51Z"/><path class="cls-9" d="M132.55,139.7l-.19-8.32-2.46,0,.12,8.15s-8,5.44-5.55,5.54,5.72-2.73,5.72-2.73c1.93,14.52,2.38-.38,2.38-.38s4.07,2.94,5.83,2.29S132.55,139.7,132.55,139.7Z"/><path class="cls-1" d="M130.2,103.1c-4.64-10.39-1.59-29.91-1.59-29.91L123,68.6v-.08l0,0,0,0v.08l-5.63,4.59s3,19.52-1.59,29.91a7.54,7.54,0,0,0,7.22,4.66H123A7.54,7.54,0,0,0,130.2,103.1Z"/><g class="cls-10"><ellipse class="cls-11" cx="122.93" cy="78.87" rx="10.18" ry="8.64"/></g><ellipse class="cls-12" cx="122.93" cy="81.89" rx="8.03" ry="3.21"/><path class="cls-1" d="M135.34,69.69c0,6.85-5.55,8-12.41,8s-12.41-1.11-12.41-8,5.56-16.86,12.41-16.86S135.34,62.84,135.34,69.69Z"/><path class="cls-13" d="M135.38,66.33c-1.48-5.6-3.18-5.66-3.18-5.66a1.58,1.58,0,0,0-2.12-.93,2.27,2.27,0,0,0-3.07.16c-.9-.39-2.1.31-2.84.84a1.43,1.43,0,0,0-1.5-1,1.76,1.76,0,0,0-1.57.78,2.93,2.93,0,0,0-2.52-.62,2.27,2.27,0,0,0-3.07-.16,1.59,1.59,0,0,0-2.13.93s-1.69.06-3.18,5.66,1.22,7.64,2.55,7.37c0,0,1.91,1.65,3.87-.82a4.33,4.33,0,0,0,2.86-2.7,2.09,2.09,0,0,0,2.44-.15,1.56,1.56,0,0,0,1.89.11,2.09,2.09,0,0,0,2.29,0,4.33,4.33,0,0,0,2.87,2.7c2,2.47,3.87.82,3.87.82C134.16,74,136.87,71.94,135.38,66.33Z"/><path class="cls-14" d="M132.35,80.3c-1.27-3.61-2.33-7.11-2.33-7.11A8.12,8.12,0,0,0,123,69.48h0a8.09,8.09,0,0,0-7,3.71s-1.07,3.5-2.34,7.11c-.38,1.08.32,1.7,1.49,2a16,16,0,0,0,7.9,1.83,19.6,19.6,0,0,0,8.75-2.12l0,0A1.3,1.3,0,0,0,132.35,80.3Z"/><ellipse class="cls-15" cx="118.72" cy="72.47" rx="1.3" ry="0.66" transform="translate(-5.36 135.33) rotate(-58.27)"/><ellipse class="cls-15" cx="127.15" cy="72.47" rx="0.66" ry="1.3" transform="translate(-19.11 77.71) rotate(-31.73)"/><ellipse class="cls-2" cx="115.02" cy="66.7" rx="5.41" ry="3.42" transform="translate(20.25 159.97) rotate(-74.65)"/><g class="cls-16"><path d="M116.79,68.38c-.56-.08-.91-1-.76-2A2.74,2.74,0,0,1,116.6,65a2,2,0,0,0-.73-.43c-1.47-.4-3.17,1.15-3.81,3.47s0,4.52,1.5,4.93,3.17-1.15,3.81-3.47a7.18,7.18,0,0,0,.23-1.55A.91.91,0,0,1,116.79,68.38Z"/></g><ellipse class="cls-2" cx="130.85" cy="66.7" rx="3.42" ry="5.41" transform="translate(-12.99 37.01) rotate(-15.35)"/><g class="cls-17"><path d="M129,68.1c.56-.08.91-1,.77-2a2.66,2.66,0,0,0-.57-1.38,1.75,1.75,0,0,1,.73-.43c1.46-.4,3.17,1.15,3.8,3.47s0,4.52-1.5,4.92-3.17-1.15-3.81-3.46a6.66,6.66,0,0,1-.22-1.55A.89.89,0,0,0,129,68.1Z"/></g><ellipse class="cls-18" cx="120.31" cy="56" rx="1.74" ry="0.84"/><ellipse class="cls-18" cx="124.06" cy="57.32" rx="0.99" ry="0.48"/><ellipse class="cls-18" cx="123.69" cy="54.45" rx="2.11" ry="1.01"/><path class="cls-1" d="M142,120.17c0,10.2-8.52,13.85-19,13.85s-19-3.65-19-13.85,8.52-24.7,19-24.7S142,110,142,120.17Z"/><g class="cls-19"><path class="cls-20" d="M101.2,121s7.18,9.46,14.48,10.36c0,0-.11-.9,4.18.11,0,0,10.55-1.8,8.81-.23,0,0,13.44-2.36,14.14-12.38h3.36v19.7H102.24Z"/></g><g class="cls-21"><path class="cls-22" d="M114.74,111.18a1.62,1.62,0,0,0-.49,2.29,2.11,2.11,0,0,0,2.65.51l-.39-.1a4.16,4.16,0,0,0,6.28.74h-.4a4.68,4.68,0,0,0,3.61.83c1-.13,2.26-.51,2.51-1.64l-.41.17a2.22,2.22,0,1,0,2.07-3.91c-.32-.16-.61.33-.28.49a1.65,1.65,0,1,1-1.51,2.93.29.29,0,0,0-.41.17c-.23,1-1.5,1.2-2.35,1.27a4,4,0,0,1-2.83-.71.29.29,0,0,0-.4,0,3.58,3.58,0,0,1-5.39-.63.29.29,0,0,0-.38-.1,1.6,1.6,0,0,1-1.84-.25,1.06,1.06,0,0,1,.25-1.57.28.28,0,0,0-.29-.49Z"/></g><polygon points="117 101.72 113.76 93.13 122.78 90 121.61 92.82 117 101.72"/><path class="cls-3" d="M123.61,89.79l8.45,5.29s.4,1.12-1.67,4.43-5.17,2.54-7.84.86S118.06,94.58,123.61,89.79Z"/><g class="cls-23"><path class="cls-24" d="M123.91,92.92a1,1,0,0,0-.49.54c0,.22.08.45.07.68,0,.47-.56.72-1,.87a42.09,42.09,0,0,0-4.17,1.73,1.38,1.38,0,0,0-.74.62,1,1,0,0,0,.53,1.16,2.42,2.42,0,0,0,1.39.12A12,12,0,0,0,124,97.12a1.83,1.83,0,0,0,.95-1c.1-.37,0-.78.08-1.15a1.88,1.88,0,0,1,1.06-1l1.93-1a6.78,6.78,0,0,0,1.72-.87c.42-.45.18-.58-.4-.75C127.44,90.86,125.48,91.93,123.91,92.92Z"/><path class="cls-24" d="M129.11,96.75c-.21.14-.44.3-.49.54s.08.46.06.68c0,.47-.55.72-1,.88a39.74,39.74,0,0,0-4.17,1.72,1.49,1.49,0,0,0-.75.62,1,1,0,0,0,.54,1.16,2.49,2.49,0,0,0,1.38.13,12.17,12.17,0,0,0,4.53-1.53,1.79,1.79,0,0,0,.95-1c.1-.38,0-.78.08-1.15a1.83,1.83,0,0,1,1.06-1l1.93-1A6.76,6.76,0,0,0,135,96c.42-.45.18-.59-.4-.76C132.63,94.69,130.67,95.76,129.11,96.75Z"/></g><path class="cls-4" d="M136.68,98l8.46,5.28s.39,1.12-1.68,4.43-5.16,2.54-7.84.87S131.14,102.75,136.68,98Z"/><g class="cls-25"><path class="cls-26" d="M137,101.09a1,1,0,0,0-.48.54c-.05.23.07.46.06.68,0,.47-.56.72-1,.88a38,38,0,0,0-4.17,1.72,1.45,1.45,0,0,0-.75.62,1,1,0,0,0,.53,1.16,2.52,2.52,0,0,0,1.39.13,12.17,12.17,0,0,0,4.53-1.53,1.8,1.8,0,0,0,.94-1c.1-.38,0-.78.08-1.15a1.9,1.9,0,0,1,1.06-1l1.93-1a6.6,6.6,0,0,0,1.72-.86c.43-.45.18-.59-.39-.76C140.51,99,138.55,100.1,137,101.09Z"/><path class="cls-26" d="M142.18,104.93a.93.93,0,0,0-.49.54c0,.22.08.45.06.68,0,.47-.55.72-1,.87a39.81,39.81,0,0,0-4.17,1.73,1.4,1.4,0,0,0-.74.61,1,1,0,0,0,.53,1.17,2.51,2.51,0,0,0,1.39.12,11.89,11.89,0,0,0,4.52-1.53,1.79,1.79,0,0,0,.95-1c.1-.37,0-.78.08-1.15a1.85,1.85,0,0,1,1.06-.95l1.93-1a7.13,7.13,0,0,0,1.72-.87c.42-.45.18-.58-.4-.76C145.71,102.87,143.75,103.94,142.18,104.93Z"/></g><path d="M146.32,104.65l.68-2.5h0l-8.9-5.56h0l-4.73-3h0l-9.27-5.79h0l-1.94,1.7.45.57c-2.09,1.47-6.3,7.39-.26,11.16s9.06-2,9.06-2l1.24-2,2.11,1.31-1.24,2s-3.87,5.25,2.17,9,9.51-2.59,9.92-5.11Zm-23.71-4.91a5.25,5.25,0,0,1-1.34-5.83,5.14,5.14,0,0,1,2.86-2.84h0l7.14,4.46h0a5.19,5.19,0,0,1-8.66,4.21Zm13,8.14a5.25,5.25,0,0,1-1.34-5.83,5.14,5.14,0,0,1,2.86-2.84h0l7.14,4.46h0a5.19,5.19,0,0,1-8.66,4.21Z"/><path class="cls-27" d="M112.66,105.05s6.24-6.44,7.8-9.42"/><path class="cls-28" d="M114.15,108.82a18.75,18.75,0,0,0-5.53,1.83c-2.44,1.37-.25,3.36.87,3.66s4-2.18,4-2.18S115.36,110.46,114.15,108.82Z"/><path class="cls-29" d="M101.29,104.68c-2.76,1.88-4,5.12-2.71,7.23s4.53,2.32,7.28.44,4-5.12,2.71-7.23S104.05,102.8,101.29,104.68Zm.73,1.22c1.88-1.27,4.1-1.14,5,.3s0,3.65-1.85,4.93-4.1,1.14-5-.3S100.14,107.18,102,105.9Z"/><path class="cls-5" d="M114.57,103.64s6.59-7.07,7-9.44c.4-2.15-8.23,5.45-9.81,6.85a.7.7,0,0,0-.24.62,2.06,2.06,0,0,0,.23.77.74.74,0,0,1-.13.92l-.84.79a.75.75,0,0,0,0,1.06l.62.62a.74.74,0,0,0,1.06,0Z"/><g class="cls-30"><path class="cls-31" d="M122.68,93.41s-2.91,1.46-8,6.11-5.56,5.76-5.56,5.76l-2.59-2.88L117.83,92l2.81-.56Z"/></g><path class="cls-6" d="M110.48,106.82c-1.73,1.44-1.74,5.06,0,8.08s4.48,4.31,6.2,2.86,1.74-5.06,0-8.08S112.2,105.38,110.48,106.82Zm5.19,9.2c-1.17,1-3.07.11-4.23-2s-1.15-4.52,0-5.5,3.07-.11,4.23,1.94S116.84,115,115.67,116Z"/><path class="cls-6" d="M109.31,101s1.36-9.58,2.93-11.4c1.42-1.67.93,9.83.83,11.93a.7.7,0,0,1-.33.58,1.88,1.88,0,0,1-.74.3.76.76,0,0,0-.64.68l-.09,1.15a.72.72,0,0,1-.81.68l-.87-.08a.75.75,0,0,1-.66-.83Z"/><g class="cls-32"><path class="cls-31" d="M112.18,88.28s.69,3.17.24,10-1,7.94-1,7.94l3.87.2,1.06-15.32L115,88.59Z"/></g><circle class="cls-33" cx="110.17" cy="105.63" r="1.91" transform="translate(-39.64 76.43) rotate(-32.76)"/><path class="cls-34" d="M96.7,112.37a4.7,4.7,0,0,1,.7-1.83c1.11-1.75,3.79-5.37,6.91-5.43,4.12-.07,3,3.21,2.47,4.06s-.43,1.52-2.74,2.52a11,11,0,0,1,3.11-.24,4.9,4.9,0,0,0,3.71-.94c1.11-.91,2.43-1.78,3.29-1.69,1.76.19,3.08,4.78,2.23,5.47a2.66,2.66,0,0,1-1.19,1.92s2.35,1.26.91,2.53a6.31,6.31,0,0,1-5.76,5.86C105,125.24,95.17,123.36,96.7,112.37Z"/><path class="cls-34" d="M149.22,113s.1-7.83-2.54-10.89-6.62,4-7.12,9.06c0,0-4.89-4.17-5.5,3.56s4.86,8.92,8.65,8.85C148.71,123.47,149.43,114.82,149.22,113Z"/></svg>