<svg id="Layer_4" data-name="Layer 4" xmlns="http://www.w3.org/2000/svg" xmlns:xlink="http://www.w3.org/1999/xlink" viewBox="0 0 260 168"><defs><style>.cls-1{fill:#0f093a;}.cls-19,.cls-2{fill:none;}.cls-3{fill:#f7f7f7;}.cls-4{fill:#1e1354;}.cls-5{clip-path:url(#clip-path);}.cls-6{fill:#c0f3ff;}.cls-7{clip-path:url(#clip-path-2);}.cls-8{fill:#a2effc;}.cls-9{fill:#ffde52;}.cls-10{fill:#ffca55;}.cls-11{fill:#eae4e7;}.cls-12{clip-path:url(#clip-path-3);}.cls-13{fill:#e5e4df;}.cls-14{fill:#c92d2d;}.cls-15{fill:#fff;}.cls-16{fill:#e5e3e4;}.cls-17{fill:#efb54d;}.cls-18{fill:#f2d24c;}.cls-19{stroke:#e5e4df;stroke-linecap:round;stroke-linejoin:round;stroke-width:0.45px;}</style><clipPath id="clip-path"><ellipse class="cls-1" cx="102.8" cy="105.65" rx="71.84" ry="9.75" transform="matrix(1, -0.01, 0.01, 1, -0.83, 0.81)"/></clipPath><clipPath id="clip-path-2"><path class="cls-2" d="M0,36.28,48,111a475.09,475.09,0,0,0,57.7,3.81c30.19,0,37.82-7.31,37.82-7.31l3.18-67.71Z"/></clipPath><clipPath id="clip-path-3"><path class="cls-3" d="M78.64,99.39c5.21-9,6.15-28.13,6.15-28.13l5-3.35,0-.07,0,0,0,0v.07l3.47,5.37s-5.52,18-3.76,28.7c0,0-2,4.09-6.2,3.13h-.07C79.07,104.06,78.64,99.39,78.64,99.39Z"/></clipPath></defs><path class="cls-4" d="M31,106.22s4.23,31.22,7.62,38c0,0,10.6,9.75,63.58,9.75,33.24,0,51.13-3.17,59.84-5.53a11.06,11.06,0,0,0,8-9.2l4.6-34.15S70.39,102.55,31,106.22Z"/><ellipse class="cls-1" cx="102.8" cy="105.65" rx="71.84" ry="9.75" transform="matrix(1, -0.01, 0.01, 1, -0.83, 0.81)"/><g class="cls-5"><ellipse class="cls-6" cx="104.71" cy="116.25" rx="78.83" ry="13.14"/></g><g class="cls-7"><ellipse class="cls-8" cx="81.09" cy="112.83" rx="31.15" ry="4.45"/><path class="cls-9" d="M91.06,124l-.63,6.69s6.29,4.31,5.71,4.17a18.1,18.1,0,0,1-4.73-2.46s4.86,3.91,4.85,4.44-5.9-3.23-5.9-3.23,3.11,4.23,3.06,4.58-3.94-3-4.37-3.54-2.61-2.27-3-3.28c-.27-.64.29-2.18,2.39-1.71l.14-6.42A2.35,2.35,0,0,1,91.06,124Z"/><path class="cls-10" d="M93.16,137.57a4.7,4.7,0,0,1,2.33-.95,15.74,15.74,0,0,0-3.92-3,6.58,6.58,0,0,0-1-.48s-.43-.13-.36.14S90.36,134,93.16,137.57Z"/><path class="cls-10" d="M95.77,136.19v-1.44s-2.42-1.94-4-2.18c0,0-.6-.21.86.91A27.42,27.42,0,0,1,95.77,136.19Z"/><ellipse class="cls-11" cx="88.91" cy="114.83" rx="5.45" ry="10.17" transform="translate(-6.12 5.01) rotate(-3.12)"/><path class="cls-9" d="M86.2,125.7l-.62,6.7s6.29,4.31,5.71,4.17a18.1,18.1,0,0,1-4.73-2.46s4.85,3.9,4.84,4.43-5.9-3.23-5.9-3.23,3.11,4.23,3.07,4.59-3.95-3-4.37-3.54-2.62-2.28-3-3.29c-.26-.64.3-2.18,2.39-1.7l.14-6.42A2.35,2.35,0,0,1,86.2,125.7Z"/><path class="cls-10" d="M88.3,139.27a4.8,4.8,0,0,1,2.34-1,16,16,0,0,0-3.92-3,6.08,6.08,0,0,0-1-.47s-.43-.14-.36.13S85.5,135.69,88.3,139.27Z"/><path class="cls-10" d="M90.91,137.89v-1.43s-2.42-2-4-2.19c0,0-.6-.2.86.92A26.81,26.81,0,0,1,90.91,137.89Z"/><path class="cls-3" d="M78.64,99.39c5.21-9,6.15-28.13,6.15-28.13l5-3.35,0-.07,0,0,0,0v.07l3.47,5.37s-5.52,18-3.76,28.7c0,0-2,4.09-6.2,3.13h-.07C79.07,104.06,78.64,99.39,78.64,99.39Z"/><g class="cls-12"><ellipse class="cls-13" cx="90.89" cy="75.46" rx="7.05" ry="9.28" transform="matrix(0.97, -0.25, 0.25, 0.97, -15.85, 24.85)"/></g><path class="cls-3" d="M78.4,73.07C77.72,79.67,83,81.28,89.55,82s12.06.17,12.73-6.43S98.6,58.74,92,58.07,79.07,66.48,78.4,73.07Z"/><path class="cls-14" d="M90.83,71.08c2-5.25,3.62-5.13,3.62-5.13a1.53,1.53,0,0,1,2.13-.69,2.21,2.21,0,0,1,3,.46,2.54,2.54,0,0,1,2.09.63,8.22,8.22,0,0,1,2.13,3.84c.33,1.53-.36,2.7-1.17,3.93a.91.91,0,0,0,.19,1.26,1.08,1.08,0,0,1,.48.69,1.54,1.54,0,0,1-1.65-.18,2.06,2.06,0,0,1-2.22-.19,4.16,4.16,0,0,1-3,2.31c-2.13,2.19-3.81.41-3.81.41C91.25,78.56,88.85,76.33,90.83,71.08Z"/><ellipse class="cls-15" cx="95.16" cy="71.89" rx="5.23" ry="3.31" transform="translate(-6.27 134.62) rotate(-68.8)"/><path d="M97,72.11c-.54-.13-.78-1-.54-2a2.7,2.7,0,0,1,.69-1.27,1.73,1.73,0,0,0-.66-.48c-1.37-.53-3.17.79-4,3s-.41,4.36,1,4.89,3.17-.8,4-3a6.47,6.47,0,0,0,.37-1.47A.87.87,0,0,1,97,72.11Z"/><ellipse class="cls-16" cx="94.22" cy="61.38" rx="0.81" ry="1.68" transform="translate(23.56 148.86) rotate(-84.15)"/><ellipse class="cls-16" cx="90.47" cy="62.28" rx="0.46" ry="0.96" transform="translate(19.3 145.93) rotate(-84.15)"/><ellipse class="cls-16" cx="91.12" cy="59.56" rx="0.98" ry="2.04" transform="translate(22.59 144.13) rotate(-84.15)"/><path class="cls-17" d="M109.08,82.51s-7.5,5.56-13.54.79,9.82-6,9.82-6Z"/><path class="cls-18" d="M99.38,75.7c.13,0,24.73,0,13.46,5.67s-18.28.83-18.82.31S93.51,77.74,99.38,75.7Z"/><ellipse class="cls-17" cx="99.63" cy="77.46" rx="1.71" ry="0.62" transform="translate(-26.46 82.68) rotate(-40.23)"/><path class="cls-3" d="M86.78,89.67c-7.09.39-11.89,10.76-11.4,19.67s6.09,13,13.18,12.58S99,115.64,98.5,106.73,93.87,89.28,86.78,89.67Z"/><path class="cls-3" d="M97.72,98.78a5.65,5.65,0,0,1,.69,3.26.57.57,0,0,1-.08.25.38.38,0,0,1-.5,0,1.1,1.1,0,0,1-.34-.43,2.81,2.81,0,0,1,0,1.29c-.12.39-.44.82-.84.73a.9.9,0,0,1-.39-.25,4.22,4.22,0,0,1-.78-1.05,2.84,2.84,0,0,1-.49.82.92.92,0,0,1-.86.3,1,1,0,0,1-.43-.24,3.29,3.29,0,0,1-1.23-2.33,1.14,1.14,0,0,1-.36.79.27.27,0,0,1-.17.08c-.09,0-.16-.09-.2-.17a5.29,5.29,0,0,1-.48-1.76,22.24,22.24,0,0,1-.34-3.36,3.09,3.09,0,0,1,.25-1.42,1.29,1.29,0,0,1,1.15-.75,4.43,4.43,0,0,1,.72.17c.36.08.73,0,1.09.1A2.66,2.66,0,0,1,96,96.27,25.49,25.49,0,0,1,97.72,98.78Z"/><path class="cls-19" d="M97.52,102.65a1.34,1.34,0,0,1-2,0,1.31,1.31,0,0,1-2.4-.78A1.32,1.32,0,0,1,91,100.49a1.64,1.64,0,0,1-2.08-1A4.75,4.75,0,0,1,88.77,97"/><ellipse class="cls-3" cx="84.05" cy="116.53" rx="5.45" ry="10.17" transform="translate(-6.22 4.75) rotate(-3.12)"/><path class="cls-3" d="M90,94c-.44-1-14.17-8.58-23,3.18s-14.14,17-14.14,17-.83,2.95,5.24,1.6c0,0,3.92,4.22,7.82.93,0,0,7.48,3,10.5-4.6,0,0,8.48,2.19,9.1-5.14C85.47,107,94.83,104.5,90,94Z"/></g></svg>