<svg id="Layer_1" data-name="Layer 1" xmlns="http://www.w3.org/2000/svg" xmlns:xlink="http://www.w3.org/1999/xlink" viewBox="0 0 260 168"><defs><style>.cls-1{fill:#f7f7f7;}.cls-2{fill:#fff;}.cls-3{fill:#724100;}.cls-4{fill:#af1010;}.cls-5{fill:#420202;}.cls-6{clip-path:url(#clip-path);}.cls-7{fill:#e5e4df;}.cls-8{fill:#c92d2d;}.cls-9{clip-path:url(#clip-path-2);}.cls-10{clip-path:url(#clip-path-3);}.cls-11{fill:#e5e3e4;}.cls-12{fill:#efa94d;}.cls-13{clip-path:url(#clip-path-4);}.cls-14{fill:#ff1a36;}.cls-15{fill:#f2d24c;}.cls-16{fill:#efb54d;}.cls-17{clip-path:url(#clip-path-5);}.cls-18{fill:#e8e8e6;}.cls-19{opacity:0.21;}.cls-20{fill:#e5e5e5;}.cls-21{fill:#c90505;}.cls-22{fill:#d81e1e;}.cls-23{fill:#900;}.cls-24{clip-path:url(#clip-path-6);}.cls-25{fill:none;stroke:#930909;stroke-miterlimit:10;stroke-width:0.22px;}.cls-26{clip-path:url(#clip-path-7);}.cls-27{clip-path:url(#clip-path-8);}.cls-28{clip-path:url(#clip-path-9);}.cls-29{fill:#ea2828;}</style><clipPath id="clip-path"><path class="cls-1" d="M126.19,125.22c-3.49-18.33,8.72-48.33,8.72-48.33l-7.26-9.46,0-.11-.08,0-.06-.08,0,.12-10.72,5.21s-2.48,32.3-13.79,47.14a12.39,12.39,0,0,0,9.77,10.16h.07l.07,0h0A12.38,12.38,0,0,0,126.19,125.22Z"/></clipPath><clipPath id="clip-path-2"><ellipse class="cls-2" cx="112" cy="63.09" rx="8.87" ry="5.61" transform="translate(11.21 142.87) rotate(-67.76)"/></clipPath><clipPath id="clip-path-3"><ellipse class="cls-2" cx="137.77" cy="66.2" rx="5.61" ry="8.87" transform="translate(-8.23 20.97) rotate(-8.45)"/></clipPath><clipPath id="clip-path-4"><path class="cls-3" d="M111,76.58a31.08,31.08,0,0,0,25.91,3.14s-2.73,8.81-14.81,7.35S111,76.58,111,76.58Z"/></clipPath><clipPath id="clip-path-5"><path class="cls-1" d="M145.53,150.09c0,16.72-14,22.71-31.17,22.71s-31.17-6-31.17-22.71,14-40.51,31.17-40.51S145.53,133.37,145.53,150.09Z"/></clipPath><clipPath id="clip-path-6"><path class="cls-4" d="M159.57,95.48c2.14,5.56.9,8.81-1.79,9.84s-5.79-.54-7.93-6.1-2.5-13,.18-14S157.43,89.92,159.57,95.48Z"/></clipPath><clipPath id="clip-path-7"><ellipse class="cls-2" cx="146.74" cy="81.86" rx="1.14" ry="2.1" transform="translate(-13.8 32.25) rotate(-11.98)"/></clipPath><clipPath id="clip-path-8"><ellipse class="cls-2" cx="150.19" cy="80.54" rx="1.14" ry="2.1" transform="translate(-20.14 86.2) rotate(-30.11)"/></clipPath><clipPath id="clip-path-9"><path class="cls-5" d="M148.82,84.46a1.74,1.74,0,0,0,1.75-.67S150.84,86.71,148.82,84.46Z"/></clipPath></defs><path class="cls-1" d="M90.2,147.1c1.72-.43,18.78-20.84,2-39.33s-23.83-29-23.83-29S63.76,76.47,64.08,87c0,0-8.29,5.18-4,12.72,0,0-7.39,11.49,4.31,18.94,0,0-6.35,13.43,5.65,16.79C70,135.47,71.13,151.83,90.2,147.1Z"/><path class="cls-1" d="M126.75,139c-1.07-1.42-1.47-28,23.19-31.83s36.75-7.5,36.75-7.5,5.07,1.12-1.82,9.11c0,0,3.17,9.25-4.87,12.43,0,0-1.49,13.58-15.28,12,0,0-3.52,14.42-15,9.48C149.76,142.7,138.58,154.7,126.75,139Z"/><path class="cls-1" d="M126.19,125.22c-3.49-18.33,8.72-48.33,8.72-48.33l-7.26-9.46,0-.11-.08,0-.06-.08,0,.12-10.72,5.21s-2.48,32.3-13.79,47.14a12.39,12.39,0,0,0,9.77,10.16h.07l.07,0h0A12.38,12.38,0,0,0,126.19,125.22Z"/><g class="cls-6"><ellipse class="cls-7" cx="124.56" cy="80.23" rx="14.17" ry="16.7" transform="translate(17.88 183.05) rotate(-76.73)"/></g><path class="cls-1" d="M144.5,72c-1.35,11.16-10.61,11.85-21.77,10.51s-20-4.24-18.63-15.4,12.36-26.36,23.52-25S145.85,60.79,144.5,72Z"/><path class="cls-8" d="M145.23,66.49c-1.32-9.42-4.07-9.84-4.07-9.84-.56-2.61-3.27-1.94-3.27-1.94a3.75,3.75,0,0,0-5-.34c-1.38-.81-3.48.08-4.78.81a2.36,2.36,0,0,0-2.25-1.93,2.9,2.9,0,0,0-2.71,1c-1.1-.93-2.64-1.9-4-1.5a3.75,3.75,0,0,0-5-.88s-2.48-1.29-3.64,1.11c0,0-2.78-.25-6.3,8.59s.49,12.67,2.7,12.49c0,0,2.78,3.06,6.46-.58a7.1,7.1,0,0,0,5.19-3.82,3.44,3.44,0,0,0,4,.23,2.56,2.56,0,0,0,3,.55,3.46,3.46,0,0,0,3.73.52,7.12,7.12,0,0,0,4.13,4.95c2.71,4.41,6.14,2.1,6.14,2.1C141.74,78.69,146.54,75.91,145.23,66.49Z"/><ellipse class="cls-2" cx="112" cy="63.09" rx="8.87" ry="5.61" transform="translate(11.21 142.87) rotate(-67.76)"/><g class="cls-9"><path d="M114.7,64.39c-.91-.23-1.29-1.78-.85-3.45a4.4,4.4,0,0,1,1.2-2.14,3,3,0,0,0-1.11-.84c-2.3-.94-5.38,1.25-6.87,4.9s-.84,7.37,1.47,8.31,5.39-1.24,6.88-4.89a10.82,10.82,0,0,0,.68-2.48A1.49,1.49,0,0,1,114.7,64.39Z"/></g><ellipse class="cls-2" cx="137.77" cy="66.2" rx="5.61" ry="8.87" transform="translate(-8.23 20.97) rotate(-8.45)"/><g class="cls-10"><path d="M134.05,66.2c.93,0,1.67-1.43,1.65-3.16a4.48,4.48,0,0,0-.66-2.36,3.06,3.06,0,0,1,1.27-.55c2.47-.36,4.94,2.5,5.52,6.4s-1,7.35-3.42,7.72-4.93-2.5-5.51-6.4a11.09,11.09,0,0,1-.07-2.56A1.52,1.52,0,0,0,134.05,66.2Z"/></g><ellipse class="cls-11" cx="122.71" cy="46.7" rx="1.37" ry="2.85" transform="translate(61.62 162.92) rotate(-83.11)"/><ellipse class="cls-11" cx="128.58" cy="49.58" rx="0.78" ry="1.62" transform="translate(63.92 171.28) rotate(-83.11)"/><ellipse class="cls-11" cx="128.52" cy="44.84" rx="1.66" ry="3.46" transform="translate(68.57 167.05) rotate(-83.11)"/><path class="cls-12" d="M108.44,77.83S107.27,91,121.5,92.71,138.94,80.8,138.94,80.8Z"/><path class="cls-3" d="M111,76.58a31.08,31.08,0,0,0,25.91,3.14s-2.73,8.81-14.81,7.35S111,76.58,111,76.58Z"/><g class="cls-13"><ellipse class="cls-14" cx="122.03" cy="92.67" rx="10.73" ry="13" transform="translate(15.38 202.69) rotate(-83.11)"/></g><path class="cls-15" d="M140.76,83a.84.84,0,0,0,0-.36c-.07-4.91-7.47-12.73-15-13.64-.33,0-.67,0-1,0s-.67-.15-1-.19c-7.52-.91-16.58,4.91-17.82,9.67a1,1,0,0,0-.06.35,3.58,3.58,0,0,0,0,1.42s1.48,2.88,5.74,2a6.46,6.46,0,0,0,1.81-.47,23.14,23.14,0,0,1,5.31-1.06,31.9,31.9,0,0,1,4.61.08,32.94,32.94,0,0,1,4.5,1,23.93,23.93,0,0,1,4.9,2.29,6.53,6.53,0,0,0,1.64.9c3.93,1.85,6.06-.6,6.06-.6A3.63,3.63,0,0,0,140.76,83Z"/><ellipse class="cls-16" cx="116.83" cy="71.65" rx="2.5" ry="0.88" transform="translate(-19.85 61.6) rotate(-27.32)"/><ellipse class="cls-16" cx="131.83" cy="73.47" rx="0.88" ry="2.5" transform="translate(-10.2 124.5) rotate(-48.89)"/><path class="cls-1" d="M145.53,150.09c0,16.72-14,22.71-31.17,22.71s-31.17-6-31.17-22.71,14-40.51,31.17-40.51S145.53,133.37,145.53,150.09Z"/><g class="cls-17"><path class="cls-18" d="M78.71,151.48s11.79,15.5,23.76,17c0,0-.19-1.48,6.84.18,0,0,17.3-2.95,14.45-.37,0,0,22-3.87,23.19-20.3h5.51v32.3h-72Z"/></g><g class="cls-19"><path class="cls-20" d="M100.92,135.35a2.64,2.64,0,0,0-.84,3.7,3.47,3.47,0,0,0,4.39.89l-.64-.17a6.81,6.81,0,0,0,10.3,1.22h-.66a7.6,7.6,0,0,0,5.87,1.37c1.64-.21,3.79-.82,4.17-2.7l-.69.28a3.64,3.64,0,1,0,3.41-6.42c-.54-.25-1,.55-.47.81a2.71,2.71,0,1,1-2.47,4.81.46.46,0,0,0-.68.27c-.31,1.56-2.33,1.93-3.66,2.06a6.52,6.52,0,0,1-4.82-1.14.49.49,0,0,0-.66,0,5.87,5.87,0,0,1-8.84-1,.48.48,0,0,0-.63-.17,2.52,2.52,0,0,1-3.11-.55,1.71,1.71,0,0,1,.5-2.43c.53-.28.06-1.09-.47-.8Z"/></g><ellipse class="cls-21" cx="151.34" cy="88.64" rx="6.31" ry="2.97" transform="translate(-21.74 60.26) rotate(-21.04)"/><ellipse class="cls-22" cx="149.86" cy="84.81" rx="5.36" ry="3.35" transform="translate(-20.46 59.47) rotate(-21.04)"/><path class="cls-21" d="M160.73,94.56c2.72,7.07,1.13,11.2-2.28,12.51s-7.35-.69-10.07-7.75-3.18-16.53.23-17.84S158,87.5,160.73,94.56Z"/><path class="cls-23" d="M160.18,94.89c2.47,6.4,1,10.13-2.06,11.32s-6.65-.62-9.11-7-2.89-15,.2-16.14S157.72,88.5,160.18,94.89Z"/><ellipse class="cls-23" cx="151.69" cy="101.26" rx="2.96" ry="1.03" transform="translate(2.23 205.79) rotate(-68.69)"/><ellipse class="cls-23" cx="151.29" cy="105.81" rx="1.07" ry="2.83" transform="translate(-11.77 19.23) rotate(-7)"/><ellipse class="cls-23" cx="151.36" cy="110.46" rx="2.87" ry="1.06" transform="translate(21.22 245.28) rotate(-82.13)"/><ellipse class="cls-23" cx="162.59" cy="99.63" rx="1.03" ry="2.97" transform="translate(-18.6 159.06) rotate(-49.66)"/><ellipse class="cls-23" cx="164.8" cy="103.65" rx="1.07" ry="2.83" transform="translate(-16.94 33.85) rotate(-11.16)"/><ellipse class="cls-23" cx="166.18" cy="108.1" rx="1.06" ry="2.87" transform="translate(-30.58 83.87) rotate(-26.02)"/><ellipse class="cls-23" cx="161.93" cy="94.88" rx="1.03" ry="2.96" transform="translate(23.11 221.19) rotate(-72.67)"/><ellipse class="cls-23" cx="165.73" cy="97.41" rx="1.07" ry="2.83" transform="translate(-20.87 143.63) rotate(-44.36)"/><ellipse class="cls-23" cx="169.32" cy="100.37" rx="1.06" ry="2.87" transform="translate(-3.55 194.49) rotate(-59.23)"/><ellipse class="cls-23" cx="160.19" cy="90.38" rx="2.96" ry="1.03" transform="translate(-14.26 32.11) rotate(-10.96)"/><ellipse class="cls-23" cx="164.74" cy="90.8" rx="1.07" ry="2.83" transform="translate(28.94 220.97) rotate(-72.65)"/><ellipse class="cls-23" cx="169.3" cy="91.71" rx="1.06" ry="2.87" transform="translate(70.35 256.88) rotate(-87.52)"/><ellipse class="cls-23" cx="149.58" cy="93.84" rx="2.96" ry="1.03" transform="translate(-26.76 84.62) rotate(-29.11)"/><ellipse class="cls-23" cx="146.38" cy="97.09" rx="2.83" ry="1.07" transform="translate(-14.26 168.15) rotate(-57.42)"/><ellipse class="cls-23" cx="143.47" cy="100.72" rx="2.87" ry="1.06" transform="translate(-30.34 123.54) rotate(-42.55)"/><ellipse class="cls-23" cx="149.44" cy="96.91" rx="2.96" ry="1.03" transform="translate(-15.03 165.29) rotate(-55.54)"/><ellipse class="cls-23" cx="148.01" cy="101.25" rx="2.83" ry="1.07" transform="matrix(0.11, -0.99, 0.99, 0.11, 31.49, 237.56)"/><ellipse class="cls-23" cx="147.03" cy="105.8" rx="2.87" ry="1.06" transform="translate(-4.47 205.09) rotate(-68.98)"/><ellipse class="cls-23" cx="145.62" cy="89.91" rx="1.03" ry="2.96" transform="translate(16.7 202.46) rotate(-72.81)"/><ellipse class="cls-23" cx="141.81" cy="87.39" rx="1.07" ry="2.83" transform="translate(-20.59 124.47) rotate(-44.5)"/><ellipse class="cls-23" cx="138.21" cy="84.44" rx="1.06" ry="2.87" transform="translate(-4.86 160.35) rotate(-59.37)"/><ellipse class="cls-23" cx="156.53" cy="85.71" rx="2.96" ry="1.03" transform="translate(2.87 176.48) rotate(-59.28)"/><ellipse class="cls-23" cx="157.66" cy="81.29" rx="2.83" ry="1.07" transform="translate(69.8 235.39) rotate(-87.59)"/><ellipse class="cls-23" cx="158.35" cy="76.69" rx="2.87" ry="1.06" transform="translate(38.08 205.11) rotate(-72.72)"/><ellipse class="cls-22" cx="145.16" cy="84.08" rx="0.57" ry="3.86" transform="translate(-0.57 167.16) rotate(-59.77)"/><ellipse class="cls-5" cx="140.57" cy="79.57" rx="0.57" ry="3.86" transform="translate(-20.94 81.59) rotate(-30.23)"/><ellipse class="cls-22" cx="152.76" cy="81.15" rx="3.86" ry="0.57" transform="matrix(0.3, -0.95, 0.95, 0.3, 29.05, 202.06)"/><ellipse class="cls-5" cx="153.15" cy="74.73" rx="0.57" ry="3.86" transform="translate(-12.09 33.07) rotate(-11.86)"/><path class="cls-4" d="M159.57,95.48c2.14,5.56.9,8.81-1.79,9.84s-5.79-.54-7.93-6.1-2.5-13,.18-14S157.43,89.92,159.57,95.48Z"/><g class="cls-24"><ellipse class="cls-25" cx="151.78" cy="90.4" rx="8.47" ry="7.45" transform="translate(-22.34 60.54) rotate(-21.05)"/><path class="cls-25" d="M161.15,91.15c1.48,3.84-.86,8.31-5.23,10s-9.11-.07-10.59-3.91"/><path class="cls-25" d="M162.4,94.4c1.48,3.85-.86,8.32-5.23,10s-9.11-.07-10.58-3.91"/></g><path class="cls-21" d="M152.56,80.82c-.78-2-3.6-4.43-5.63-3.64s-2.53,4.44-1.74,6.48a3.95,3.95,0,1,0,7.37-2.84Z"/><ellipse class="cls-2" cx="146.74" cy="81.86" rx="1.14" ry="2.1" transform="translate(-13.8 32.25) rotate(-11.98)"/><g class="cls-26"><path d="M146.67,80.61a.44.44,0,0,0-.25.15.76.76,0,0,1,.21.51c0,.32,0,.6-.18.61s-.23-.16-.29-.4a2.65,2.65,0,0,0,.05.67c.16.76.63,1.3,1,1.21s.62-.77.46-1.53S147.08,80.52,146.67,80.61Z"/></g><ellipse class="cls-2" cx="150.19" cy="80.54" rx="1.14" ry="2.1" transform="translate(-20.14 86.2) rotate(-30.11)"/><g class="cls-27"><path d="M149.37,79.42a.43.43,0,0,1,.28,0,.81.81,0,0,0,.19.52c.18.26.43.41.54.33s.06-.27-.06-.49a2.26,2.26,0,0,1,.41.53c.39.67.41,1.38.05,1.6s-1-.17-1.37-.84S149,79.63,149.37,79.42Z"/></g><path class="cls-5" d="M148.82,84.46a1.74,1.74,0,0,0,1.75-.67S150.84,86.71,148.82,84.46Z"/><g class="cls-28"><ellipse class="cls-29" cx="150.28" cy="85.61" rx="0.9" ry="0.83" transform="translate(-20.72 59.68) rotate(-21.05)"/></g></svg>