<svg id="Layer_7" data-name="Layer 7" xmlns="http://www.w3.org/2000/svg" xmlns:xlink="http://www.w3.org/1999/xlink" viewBox="0 0 260 168"><defs><style>.cls-1{fill:#0f093a;}.cls-19,.cls-2{fill:none;}.cls-3{fill:#f7f7f7;}.cls-4{fill:#1e1354;}.cls-5{clip-path:url(#clip-path);}.cls-6{fill:#c0f3ff;}.cls-7{clip-path:url(#clip-path-2);}.cls-8{fill:#a2effc;}.cls-9{fill:#ffde52;}.cls-10{fill:#ffca55;}.cls-11{fill:#eae4e7;}.cls-12{clip-path:url(#clip-path-3);}.cls-13{fill:#e5e4df;}.cls-14{fill:#c92d2d;}.cls-15{fill:#fff;}.cls-16{fill:#e5e3e4;}.cls-17{fill:#efb54d;}.cls-18{fill:#f2d24c;}.cls-19{stroke:#e5e4df;stroke-linecap:round;stroke-linejoin:round;stroke-width:0.45px;}</style><clipPath id="clip-path"><ellipse class="cls-1" cx="102.8" cy="105.65" rx="71.84" ry="9.75" transform="matrix(1, -0.01, 0.01, 1, -0.83, 0.81)"/></clipPath><clipPath id="clip-path-2"><path class="cls-2" d="M0,36.28,48,111a475.09,475.09,0,0,0,57.7,3.81,412.2,412.2,0,0,0,55.72-3.91L200.94,29.7Z"/></clipPath><clipPath id="clip-path-3"><path class="cls-3" d="M132.49,99.39c-5.21-9-6.15-28.13-6.15-28.13l-5-3.35v-.07l0,0,0,0,0,.07-3.47,5.37s5.52,18,3.76,28.7c0,0,2,4.09,6.2,3.13h.06C132.05,104.06,132.49,99.39,132.49,99.39Z"/></clipPath></defs><path class="cls-4" d="M31,106.22s4.23,31.22,7.62,38c0,0,10.6,9.75,63.58,9.75,33.24,0,51.13-3.17,59.84-5.53a11.06,11.06,0,0,0,8-9.2l4.6-34.15S70.39,102.55,31,106.22Z"/><ellipse class="cls-1" cx="102.8" cy="105.65" rx="71.84" ry="9.75" transform="matrix(1, -0.01, 0.01, 1, -0.83, 0.81)"/><g class="cls-5"><ellipse class="cls-6" cx="104.71" cy="116.25" rx="78.83" ry="13.14"/></g><g class="cls-7"><ellipse class="cls-8" cx="130.04" cy="112.83" rx="31.15" ry="4.45"/><path class="cls-9" d="M120.07,124l.63,6.69s-6.29,4.31-5.71,4.17a17.91,17.91,0,0,0,4.72-2.46s-4.85,3.91-4.84,4.44,5.9-3.23,5.9-3.23-3.11,4.23-3.07,4.58,4-3,4.38-3.54,2.61-2.27,3-3.28c.27-.64-.29-2.18-2.39-1.71l-.14-6.42A2.35,2.35,0,0,0,120.07,124Z"/><path class="cls-10" d="M118,137.57a4.71,4.71,0,0,0-2.34-.95,15.74,15.74,0,0,1,3.92-3,6.84,6.84,0,0,1,1-.48s.43-.13.36.14S120.77,134,118,137.57Z"/><path class="cls-10" d="M115.36,136.19v-1.44s2.42-1.94,4-2.18c0,0,.6-.21-.86.91A27.42,27.42,0,0,0,115.36,136.19Z"/><ellipse class="cls-11" cx="122.22" cy="114.83" rx="10.17" ry="5.45" transform="translate(0.91 230.62) rotate(-86.88)"/><path class="cls-9" d="M124.92,125.7l.63,6.7s-6.29,4.31-5.71,4.17a18.26,18.26,0,0,0,4.73-2.46s-4.86,3.9-4.84,4.43,5.9-3.23,5.9-3.23-3.12,4.23-3.07,4.59,4-3,4.37-3.54,2.61-2.28,3-3.29c.26-.64-.3-2.18-2.4-1.7l-.13-6.42A2.37,2.37,0,0,0,124.92,125.7Z"/><path class="cls-10" d="M122.83,139.27a4.85,4.85,0,0,0-2.34-1,16,16,0,0,1,3.92-3,6.08,6.08,0,0,1,1-.47s.43-.14.36.13S125.63,135.69,122.83,139.27Z"/><path class="cls-10" d="M120.22,137.89v-1.43s2.43-2,4-2.19c0,0,.59-.2-.86.92A26.81,26.81,0,0,0,120.22,137.89Z"/><path class="cls-3" d="M132.49,99.39c-5.21-9-6.15-28.13-6.15-28.13l-5-3.35v-.07l0,0,0,0,0,.07-3.47,5.37s5.52,18,3.76,28.7c0,0,2,4.09,6.2,3.13h.06C132.05,104.06,132.49,99.39,132.49,99.39Z"/><g class="cls-12"><ellipse class="cls-13" cx="120.23" cy="75.46" rx="9.28" ry="7.05" transform="translate(17.35 173.27) rotate(-75.66)"/></g><path class="cls-3" d="M132.73,73.07c.68,6.6-4.56,8.21-11.16,8.88s-12,.17-12.72-6.43,3.68-16.78,10.28-17.45S132.06,66.48,132.73,73.07Z"/><path class="cls-14" d="M120.3,71.08c-2-5.25-3.62-5.13-3.62-5.13a1.54,1.54,0,0,0-2.14-.69,2.2,2.2,0,0,0-2.94.46,2.54,2.54,0,0,0-2.09.63,8.13,8.13,0,0,0-2.13,3.84c-.33,1.53.36,2.7,1.17,3.93a.93.93,0,0,1-.2,1.26,1.1,1.1,0,0,0-.47.69,1.54,1.54,0,0,0,1.65-.18,2.06,2.06,0,0,0,2.22-.19,4.16,4.16,0,0,0,3,2.31c2.13,2.19,3.8.41,3.8.41C119.88,78.56,122.28,76.33,120.3,71.08Z"/><ellipse class="cls-15" cx="115.97" cy="71.89" rx="3.31" ry="5.23" transform="translate(-18.15 46.79) rotate(-21.2)"/><path d="M114.13,72.11c.53-.13.77-1,.53-2a2.61,2.61,0,0,0-.68-1.27,1.73,1.73,0,0,1,.66-.48c1.37-.53,3.17.79,4,3s.41,4.36-1,4.89-3.17-.8-4-3a6.47,6.47,0,0,1-.37-1.47A.87.87,0,0,0,114.13,72.11Z"/><ellipse class="cls-16" cx="116.91" cy="61.38" rx="1.68" ry="0.81" transform="translate(-5.65 12.23) rotate(-5.85)"/><ellipse class="cls-16" cx="120.66" cy="62.28" rx="0.96" ry="0.46" transform="translate(-5.72 12.62) rotate(-5.85)"/><ellipse class="cls-16" cx="120.01" cy="59.56" rx="2.04" ry="0.98" transform="translate(-5.44 12.54) rotate(-5.85)"/><path class="cls-17" d="M102.05,82.51s7.5,5.56,13.54.79-9.82-6-9.82-6Z"/><path class="cls-18" d="M111.75,75.7c-.13,0-24.73,0-13.46,5.67s18.27.83,18.81.31S117.61,77.74,111.75,75.7Z"/><ellipse class="cls-17" cx="111.49" cy="77.46" rx="0.62" ry="1.71" transform="translate(-19.65 112.54) rotate(-49.77)"/><path class="cls-3" d="M124.35,89.67c7.09.39,11.89,10.76,11.4,19.67s-6.09,13-13.18,12.58-10.43-6.28-9.94-15.19S117.26,89.28,124.35,89.67Z"/><path class="cls-3" d="M113.41,98.78a5.57,5.57,0,0,0-.69,3.26.57.57,0,0,0,.08.25.38.38,0,0,0,.5,0,1.1,1.1,0,0,0,.34-.43,2.68,2.68,0,0,0,0,1.29c.11.39.44.82.84.73a1,1,0,0,0,.39-.25,4.48,4.48,0,0,0,.78-1.05,2.84,2.84,0,0,0,.49.82.92.92,0,0,0,.86.3,1.08,1.08,0,0,0,.43-.24,3.29,3.29,0,0,0,1.23-2.33,1.1,1.1,0,0,0,.36.79.25.25,0,0,0,.17.08c.09,0,.15-.09.2-.17a5.54,5.54,0,0,0,.48-1.76,22.24,22.24,0,0,0,.34-3.36,3.1,3.1,0,0,0-.26-1.42,1.28,1.28,0,0,0-1.14-.75,4.81,4.81,0,0,0-.73.17c-.35.08-.72,0-1.09.1a2.66,2.66,0,0,0-1.88,1.41A23.89,23.89,0,0,0,113.41,98.78Z"/><path class="cls-19" d="M113.61,102.65a1.33,1.33,0,0,0,2,0,1.32,1.32,0,0,0,2.41-.78,1.37,1.37,0,0,0,1.59.14,1.36,1.36,0,0,0,.55-1.5,1.65,1.65,0,0,0,2.09-1,4.85,4.85,0,0,0,.12-2.54"/><ellipse class="cls-3" cx="127.08" cy="116.53" rx="10.17" ry="5.45" transform="translate(3.8 237.08) rotate(-86.88)"/><path class="cls-3" d="M121.16,94c.44-1,14.16-8.58,23,3.18s14.14,17,14.14,17,.83,2.95-5.24,1.6c0,0-3.92,4.22-7.82.93,0,0-7.48,3-10.5-4.6,0,0-8.48,2.19-9.1-5.14C125.66,107,116.3,104.5,121.16,94Z"/></g></svg>