<svg id="Layer_6" data-name="Layer 6" xmlns="http://www.w3.org/2000/svg" xmlns:xlink="http://www.w3.org/1999/xlink" viewBox="0 0 260 168"><defs><style>.cls-1{fill:#0f093a;}.cls-19,.cls-2{fill:none;}.cls-3{fill:#f7f7f7;}.cls-4{fill:#1e1354;}.cls-5{clip-path:url(#clip-path);}.cls-6{fill:#c0f3ff;}.cls-7{clip-path:url(#clip-path-2);}.cls-8{fill:#a2effc;}.cls-9{fill:#ffde52;}.cls-10{fill:#ffca55;}.cls-11{fill:#eae4e7;}.cls-12{clip-path:url(#clip-path-3);}.cls-13{fill:#e5e4df;}.cls-14{fill:#c92d2d;}.cls-15{fill:#fff;}.cls-16{fill:#e5e3e4;}.cls-17{fill:#efb54d;}.cls-18{fill:#f2d24c;}.cls-19{stroke:#e5e4df;stroke-linecap:round;stroke-linejoin:round;stroke-width:0.45px;}</style><clipPath id="clip-path"><ellipse class="cls-1" cx="102.8" cy="105.65" rx="71.84" ry="9.75" transform="matrix(1, -0.01, 0.01, 1, -0.83, 0.81)"/></clipPath><clipPath id="clip-path-2"><path class="cls-2" d="M0,36.28,48,111a475.09,475.09,0,0,0,57.7,3.81,412.2,412.2,0,0,0,55.72-3.91L200.94,29.7Z"/></clipPath><clipPath id="clip-path-3"><path class="cls-3" d="M124,99.39c5.2-9,6.15-28.13,6.15-28.13l5-3.35v-.07l0,0,0,0v.07l3.47,5.37s-5.52,18-3.76,28.7c0,0-2,4.09-6.2,3.13h-.07C124.47,104.06,124,99.39,124,99.39Z"/></clipPath></defs><path class="cls-4" d="M31,106.22s4.23,31.22,7.62,38c0,0,10.6,9.75,63.58,9.75,33.24,0,51.13-3.17,59.84-5.53a11.06,11.06,0,0,0,8-9.2l4.6-34.15S70.39,102.55,31,106.22Z"/><ellipse class="cls-1" cx="102.8" cy="105.65" rx="71.84" ry="9.75" transform="matrix(1, -0.01, 0.01, 1, -0.83, 0.81)"/><g class="cls-5"><ellipse class="cls-6" cx="104.71" cy="116.25" rx="78.83" ry="13.14"/></g><g class="cls-7"><ellipse class="cls-8" cx="126.49" cy="112.83" rx="31.15" ry="4.45"/><path class="cls-9" d="M136.46,124l-.63,6.69s6.29,4.31,5.71,4.17a18,18,0,0,1-4.73-2.46s4.86,3.91,4.84,4.44-5.89-3.23-5.89-3.23,3.11,4.23,3.06,4.58-3.94-3-4.37-3.54-2.61-2.27-3-3.28c-.27-.64.29-2.18,2.39-1.71l.13-6.42A2.36,2.36,0,0,1,136.46,124Z"/><path class="cls-10" d="M138.55,137.57a4.75,4.75,0,0,1,2.34-.95,15.74,15.74,0,0,0-3.92-3,6.58,6.58,0,0,0-1-.48s-.44-.13-.37.14S135.76,134,138.55,137.57Z"/><path class="cls-10" d="M141.17,136.19v-1.44s-2.43-1.94-4-2.18c0,0-.6-.21.85.91A27,27,0,0,1,141.17,136.19Z"/><ellipse class="cls-11" cx="134.3" cy="114.83" rx="5.45" ry="10.17" transform="translate(-6.05 7.48) rotate(-3.12)"/><path class="cls-9" d="M131.6,125.7l-.63,6.7s6.29,4.31,5.71,4.17a18.41,18.41,0,0,1-4.73-2.46s4.86,3.9,4.85,4.43-5.9-3.23-5.9-3.23,3.11,4.23,3.07,4.59-3.95-3-4.38-3.54-2.61-2.28-3-3.29c-.27-.64.29-2.18,2.39-1.7l.14-6.42A2.35,2.35,0,0,1,131.6,125.7Z"/><path class="cls-10" d="M133.7,139.27a4.8,4.8,0,0,1,2.33-1,15.78,15.78,0,0,0-3.92-3,5.86,5.86,0,0,0-1-.47s-.43-.14-.36.13S130.9,135.69,133.7,139.27Z"/><path class="cls-10" d="M136.31,137.89v-1.43s-2.42-2-4-2.19c0,0-.6-.2.86.92A27.78,27.78,0,0,1,136.31,137.89Z"/><path class="cls-3" d="M124,99.39c5.2-9,6.15-28.13,6.15-28.13l5-3.35v-.07l0,0,0,0v.07l3.47,5.37s-5.52,18-3.76,28.7c0,0-2,4.09-6.2,3.13h-.07C124.47,104.06,124,99.39,124,99.39Z"/><g class="cls-12"><ellipse class="cls-13" cx="136.29" cy="75.46" rx="7.05" ry="9.28" transform="translate(-14.44 36.09) rotate(-14.34)"/></g><path class="cls-3" d="M123.79,73.07c-.67,6.6,4.57,8.21,11.16,8.88s12.05.17,12.73-6.43S144,58.74,137.4,58.07,124.47,66.48,123.79,73.07Z"/><path class="cls-14" d="M136.23,71.08c2-5.25,3.62-5.13,3.62-5.13a1.53,1.53,0,0,1,2.13-.69,2.21,2.21,0,0,1,3,.46,2.55,2.55,0,0,1,2.09.63,8.22,8.22,0,0,1,2.13,3.84c.32,1.53-.36,2.7-1.17,3.93a.91.91,0,0,0,.19,1.26,1,1,0,0,1,.47.69,1.52,1.52,0,0,1-1.64-.18,2.06,2.06,0,0,1-2.22-.19,4.18,4.18,0,0,1-3,2.31c-2.13,2.19-3.81.41-3.81.41C136.65,78.56,134.25,76.33,136.23,71.08Z"/><ellipse class="cls-15" cx="140.55" cy="71.89" rx="5.23" ry="3.31" transform="translate(22.71 176.94) rotate(-68.8)"/><path d="M142.4,72.11c-.54-.13-.78-1-.54-2a2.62,2.62,0,0,1,.69-1.27,1.76,1.76,0,0,0-.67-.48c-1.37-.53-3.16.79-4,3s-.41,4.36,1,4.89,3.16-.8,4-3a6.51,6.51,0,0,0,.38-1.47A.88.88,0,0,1,142.4,72.11Z"/><ellipse class="cls-16" cx="139.62" cy="61.38" rx="0.81" ry="1.68" transform="translate(64.33 194.02) rotate(-84.15)"/><ellipse class="cls-16" cx="135.87" cy="62.28" rx="0.46" ry="0.96" transform="translate(60.07 191.09) rotate(-84.15)"/><ellipse class="cls-16" cx="136.51" cy="59.56" rx="0.98" ry="2.04" transform="translate(63.36 189.29) rotate(-84.15)"/><path class="cls-17" d="M154.48,82.51s-7.5,5.56-13.54.79,9.82-6,9.82-6Z"/><path class="cls-18" d="M144.78,75.7c.13,0,24.73,0,13.46,5.67s-18.28.83-18.82.31S138.91,77.74,144.78,75.7Z"/><ellipse class="cls-17" cx="145.03" cy="77.46" rx="1.71" ry="0.62" transform="translate(-15.72 112.01) rotate(-40.23)"/><path class="cls-3" d="M132.18,89.67c-7.1.39-11.9,10.76-11.4,19.67s6.09,13,13.18,12.58,10.43-6.28,9.94-15.19S139.27,89.28,132.18,89.67Z"/><path class="cls-3" d="M143.12,98.78a5.65,5.65,0,0,1,.69,3.26.57.57,0,0,1-.08.25.38.38,0,0,1-.5,0,1.13,1.13,0,0,1-.35-.43,2.68,2.68,0,0,1,0,1.29c-.11.39-.43.82-.83.73a.9.9,0,0,1-.39-.25,4.22,4.22,0,0,1-.78-1.05,2.84,2.84,0,0,1-.49.82.94.94,0,0,1-.87.3,1.08,1.08,0,0,1-.43-.24,3.32,3.32,0,0,1-1.22-2.33,1.14,1.14,0,0,1-.36.79.3.3,0,0,1-.17.08c-.1,0-.16-.09-.2-.17a5.29,5.29,0,0,1-.48-1.76,22.26,22.26,0,0,1-.35-3.36,3.1,3.1,0,0,1,.26-1.42,1.29,1.29,0,0,1,1.15-.75,4.43,4.43,0,0,1,.72.17c.36.08.73,0,1.09.1a2.62,2.62,0,0,1,1.88,1.41A24,24,0,0,1,143.12,98.78Z"/><path class="cls-19" d="M142.92,102.65a1.34,1.34,0,0,1-2,0,1.37,1.37,0,0,1-1.5.52,1.35,1.35,0,0,1-.9-1.3,1.32,1.32,0,0,1-2.15-1.36,1.64,1.64,0,0,1-2.08-1,4.75,4.75,0,0,1-.13-2.54"/><ellipse class="cls-3" cx="129.45" cy="116.53" rx="5.45" ry="10.17" transform="translate(-6.15 7.22) rotate(-3.12)"/><path class="cls-3" d="M135.36,94c-.44-1-14.16-8.58-23,3.18s-14.15,17-14.15,17-.83,2.95,5.25,1.6c0,0,3.92,4.22,7.82.93,0,0,7.48,3,10.5-4.6,0,0,8.48,2.19,9.1-5.14C130.87,107,140.22,104.5,135.36,94Z"/></g></svg>