<svg id="Layer_8" data-name="Layer 8" xmlns="http://www.w3.org/2000/svg" xmlns:xlink="http://www.w3.org/1999/xlink" viewBox="0 0 260 168"><defs><style>.cls-1{fill:#0f093a;}.cls-2{fill:none;}.cls-3{fill:#f7f7f7;}.cls-4{fill:#724100;}.cls-5{fill:#1e1354;}.cls-6{clip-path:url(#clip-path);}.cls-7{fill:#c0f3ff;}.cls-8{fill:#a2effc;}.cls-9{clip-path:url(#clip-path-2);}.cls-10{fill:#ffca55;}.cls-11{fill:#ffde52;}.cls-12{clip-path:url(#clip-path-3);}.cls-13{fill:#e5e4df;}.cls-14{fill:#c92d2d;}.cls-15{fill:#fff;}.cls-16{fill:#e5e3e4;}.cls-17{fill:#efa94d;}.cls-18{clip-path:url(#clip-path-4);}.cls-19{fill:#ff1a36;}.cls-20{fill:#f2d24c;}.cls-21{fill:#efb54d;}.cls-22{clip-path:url(#clip-path-5);}.cls-23{fill:#e8e8e6;}.cls-24{opacity:0.21;}.cls-25{fill:#e5e5e5;}</style><clipPath id="clip-path"><ellipse class="cls-1" cx="102.8" cy="105.65" rx="71.84" ry="9.75" transform="matrix(1, -0.01, 0.01, 1, -0.83, 0.81)"/></clipPath><clipPath id="clip-path-2"><path class="cls-2" d="M76.74,43.35,76.42,110s-1,4.76,29.25,4.76,37.82-7.31,37.82-7.31l3.18-67.71Z"/></clipPath><clipPath id="clip-path-3"><path class="cls-3" d="M112.3,100.14c-3.62-8.12-1.24-23.36-1.24-23.36l-4.4-3.59v-.06l0,0,0,0v.06l-4.4,3.59S104.57,92,101,100.14a5.89,5.89,0,0,0,5.64,3.64h.07A5.91,5.91,0,0,0,112.3,100.14Z"/></clipPath><clipPath id="clip-path-4"><path class="cls-4" d="M100.73,78.15a14.77,14.77,0,0,0,12.43,0s-.78,4.33-6.58,4.33S100.73,78.15,100.73,78.15Z"/></clipPath><clipPath id="clip-path-5"><path class="cls-3" d="M121.47,113.48c0,8-6.65,10.81-14.85,10.81s-14.84-2.85-14.84-10.81,6.64-19.3,14.84-19.3S121.47,105.51,121.47,113.48Z"/></clipPath></defs><path class="cls-5" d="M31,106.22s4.23,31.22,7.62,38c0,0,10.6,9.75,63.58,9.75,33.24,0,51.13-3.17,59.84-5.53a11.06,11.06,0,0,0,8-9.2l4.6-34.15S70.39,102.55,31,106.22Z"/><ellipse class="cls-1" cx="102.8" cy="105.65" rx="71.84" ry="9.75" transform="matrix(1, -0.01, 0.01, 1, -0.83, 0.81)"/><g class="cls-6"><ellipse class="cls-7" cx="104.71" cy="116.25" rx="78.83" ry="13.14"/></g><ellipse class="cls-8" cx="106.94" cy="110.95" rx="31.15" ry="4.45"/><g class="cls-9"><path class="cls-3" d="M95.11,112.05c.83-.21,9-9.93,1-18.74a139.76,139.76,0,0,1-11.35-13.8s-2.21-1.1-2.06,3.92c0,0-3.94,2.47-1.92,6.06,0,0-3.52,5.47,2,9,0,0-3,6.4,2.69,8C85.49,106.51,86,114.3,95.11,112.05Z"/><path class="cls-3" d="M118.05,111.77c-.78-.33-7.38-11.15,1.82-18.67a140.36,140.36,0,0,0,13.27-12s2.35-.77,1.46,4.18c0,0,3.53,3,1,6.28,0,0,2.67,5.93-3.36,8.62,0,0,2,6.77-3.85,7.51C128.39,107.72,126.7,115.34,118.05,111.77Z"/><path class="cls-10" d="M95.4,131.9a6.73,6.73,0,0,1,4.86,3.38s2.73-4.11,5.5-2.77L99.93,129Z"/><path class="cls-11" d="M99.57,128.72l.15-6.5,1.92,0-.1,6.37s6.22,4.25,4.34,4.33-4.47-2.14-4.47-2.14c-1.51,11.34-1.85-.3-1.85-.3s-3.18,2.3-4.56,1.8S99.57,128.72,99.57,128.72Z"/><path class="cls-10" d="M118.3,131.9a6.73,6.73,0,0,0-4.86,3.38s-2.72-4.11-5.5-2.77l5.84-3.53Z"/><path class="cls-11" d="M114.14,128.72l-.15-6.5-1.92,0,.09,6.37s-6.21,4.25-4.33,4.33,4.46-2.14,4.46-2.14c1.51,11.34,1.86-.3,1.86-.3s3.18,2.3,4.55,1.8S114.14,128.72,114.14,128.72Z"/><path class="cls-3" d="M112.3,100.14c-3.62-8.12-1.24-23.36-1.24-23.36l-4.4-3.59v-.06l0,0,0,0v.06l-4.4,3.59S104.57,92,101,100.14a5.89,5.89,0,0,0,5.64,3.64h.07A5.91,5.91,0,0,0,112.3,100.14Z"/><g class="cls-12"><ellipse class="cls-13" cx="106.62" cy="79.46" rx="7.95" ry="6.75"/></g><path class="cls-3" d="M116.32,74c0,5.36-4.34,6.22-9.7,6.22S96.93,79.4,96.93,74s4.34-13.17,9.69-13.17S116.32,68.69,116.32,74Z"/><path class="cls-14" d="M116.35,71.42C115.19,67,113.86,67,113.86,67a1.23,1.23,0,0,0-1.65-.73,1.79,1.79,0,0,0-2.41.13c-.7-.31-1.64.24-2.21.66a1.13,1.13,0,0,0-1.18-.79,1.38,1.38,0,0,0-1.22.62,2.27,2.27,0,0,0-2-.49,1.78,1.78,0,0,0-2.4-.13,1.25,1.25,0,0,0-1.66.73s-1.32,0-2.48,4.42.95,6,2,5.76c0,0,1.49,1.28,3-.65a3.39,3.39,0,0,0,2.24-2.1,1.63,1.63,0,0,0,1.9-.12,1.22,1.22,0,0,0,1.47.09,1.66,1.66,0,0,0,1.8,0,3.39,3.39,0,0,0,2.24,2.1c1.53,1.93,3,.65,3,.65C115.39,77.39,117.51,75.8,116.35,71.42Z"/><ellipse class="cls-15" cx="100.44" cy="71.71" rx="4.23" ry="2.67" transform="translate(4.7 149.59) rotate(-74.65)"/><ellipse class="cls-15" cx="112.81" cy="71.71" rx="2.67" ry="4.23" transform="translate(-14.96 32.42) rotate(-15.35)"/><path d="M111.31,71.74c.44-.06.71-.77.59-1.58a2.07,2.07,0,0,0-.44-1.08,1.45,1.45,0,0,1,.57-.34c1.15-.31,2.48.9,3,2.71s0,3.54-1.17,3.85-2.48-.9-3-2.71a4.73,4.73,0,0,1-.18-1.21A.7.7,0,0,0,111.31,71.74Z"/><path d="M101.94,71.74c-.44-.06-.71-.77-.6-1.58a2.07,2.07,0,0,1,.45-1.08,1.52,1.52,0,0,0-.57-.34c-1.15-.31-2.48.9-3,2.71s0,3.54,1.18,3.85,2.47-.9,3-2.71a5.21,5.21,0,0,0,.18-1.21A.71.71,0,0,1,101.94,71.74Z"/><ellipse class="cls-16" cx="104.57" cy="63.35" rx="1.36" ry="0.65"/><ellipse class="cls-16" cx="107.51" cy="64.38" rx="0.77" ry="0.37"/><ellipse class="cls-16" cx="107.21" cy="62.14" rx="1.65" ry="0.79"/><path class="cls-17" d="M99.6,78.89a6.58,6.58,0,0,0,7,6.29c6.83,0,7.56-6.63,7.56-6.63Z"/><path class="cls-4" d="M100.73,78.15a14.77,14.77,0,0,0,12.43,0s-.78,4.33-6.58,4.33S100.73,78.15,100.73,78.15Z"/><g class="cls-18"><ellipse class="cls-19" cx="106.87" cy="85.13" rx="6.19" ry="5.11"/></g><path class="cls-20" d="M115.18,79.49a.34.34,0,0,0,0-.17c-.31-2.32-4.26-5.59-7.87-5.59a4.22,4.22,0,0,0-.49,0,3.88,3.88,0,0,0-.48,0c-3.61,0-7.56,3.27-7.87,5.59a.34.34,0,0,0,0,.17,1.7,1.7,0,0,0,.07.68,2.39,2.39,0,0,0,2.83.62,2.71,2.71,0,0,0,.83-.33,11.76,11.76,0,0,1,2.45-.8,16.09,16.09,0,0,1,2.18-.23,16.2,16.2,0,0,1,2.19.23,11.76,11.76,0,0,1,2.45.8,2.71,2.71,0,0,0,.83.33,2.39,2.39,0,0,0,2.83-.62A1.9,1.9,0,0,0,115.18,79.49Z"/><ellipse class="cls-21" cx="103.21" cy="75.49" rx="1.19" ry="0.42" transform="translate(-24.58 71.09) rotate(-34.21)"/><ellipse class="cls-21" cx="110.41" cy="75.49" rx="0.42" ry="1.19" transform="translate(-14.09 124.35) rotate(-55.79)"/><path class="cls-3" d="M121.47,113.48c0,8-6.65,10.81-14.85,10.81s-14.84-2.85-14.84-10.81,6.64-19.3,14.84-19.3S121.47,105.51,121.47,113.48Z"/><g class="cls-22"><path class="cls-23" d="M89.64,114.13s5.62,7.39,11.32,8.09c0,0-.09-.7,3.26.09,0,0,8.24-1.41,6.88-.17,0,0,10.5-1.85,11.05-9.68h2.62v15.39H90.46Z"/></g><g class="cls-24"><path class="cls-25" d="M100.22,106.45a1.27,1.27,0,0,0-.4,1.76,1.66,1.66,0,0,0,2.09.43l-.3-.08a3.25,3.25,0,0,0,4.9.58h-.31a3.64,3.64,0,0,0,2.79.65c.81-.1,1.77-.39,2-1.28l-.32.13a1.73,1.73,0,1,0,1.62-3.06c-.26-.13-.48.26-.23.39a1.29,1.29,0,1,1-1.17,2.29.22.22,0,0,0-.33.13c-.18.76-1.15.93-1.82,1a3.18,3.18,0,0,1-2.22-.55.22.22,0,0,0-.31,0,2.81,2.81,0,0,1-4.21-.5.23.23,0,0,0-.3-.08,1.2,1.2,0,0,1-1.48-.26.82.82,0,0,1,.24-1.16.22.22,0,0,0-.23-.38Z"/></g></g></svg>