<svg xmlns="http://www.w3.org/2000/svg" xmlns:xlink="http://www.w3.org/1999/xlink" viewBox="0 0 260 168"><defs><style>.cls-1,.cls-13{fill:none;}.cls-2{fill:#ffca55;}.cls-3{fill:#ffde52;}.cls-4{fill:#eae4e7;}.cls-5{fill:#f7f7f7;}.cls-6{clip-path:url(#clip-path);}.cls-7{fill:#e5e4df;}.cls-8{fill:#c92d2d;}.cls-9{fill:#fff;}.cls-10{fill:#e5e3e4;}.cls-11{fill:#efb54d;}.cls-12{fill:#f2d24c;}.cls-13{stroke:#e5e4df;stroke-linecap:round;stroke-linejoin:round;stroke-width:0.49px;}</style><clipPath id="clip-path"><path class="cls-1" d="M41,100.94c-6.46-9.43-9.09-30.29-9.09-30.29l-5.76-3.24,0-.07h0l0,.07-3.43,6.23s7.56,19.24,6.53,31.11c0,0,2.53,4.31,7.05,2.9l.06,0C40.89,106.09,41,100.94,41,100.94Z"/></clipPath></defs><g id="Layer_8" data-name="Layer 8"><g id="Layer_3" data-name="Layer 3"><path class="cls-2" d="M44.62,139.31a5.17,5.17,0,0,0-2.75-.33,17.44,17.44,0,0,1,3.28-4.31,7.85,7.85,0,0,1,.93-.8s.4-.28.42,0S46.53,134.77,44.62,139.31Z"/><path class="cls-3" d="M42.48,124.35l2.79,6.83s-5.24,6.52-4.65,6.18a19.49,19.49,0,0,0,4.18-4.08s-3.85,5.64-3.67,6.2,5.17-5.27,5.17-5.27-1.91,5.43-1.76,5.79,3.19-4.41,3.48-5.09,2-3.22,2.12-4.4c.08-.76-1-2.2-3.06-1l-2.17-6.69A2.58,2.58,0,0,0,42.48,124.35Z"/><path class="cls-2" d="M24.1,136.2l.78-1.38s3.37-.53,5.05.11c0,0,.69.12-1.32.4A29,29,0,0,0,24.1,136.2Z"/><ellipse class="cls-4" cx="38.11" cy="115.51" rx="5.98" ry="11.17" transform="translate(-57.57 40.41) rotate(-33.61)"/><path class="cls-5" d="M41,100.94c-6.46-9.43-9.09-30.29-9.09-30.29l-5.76-3.24,0-.07h0l0,.07-3.43,6.23s7.56,19.24,6.53,31.11c0,0,2.53,4.31,7.05,2.9l.06,0C40.89,106.09,41,100.94,41,100.94Z"/><g class="cls-6"><ellipse class="cls-7" cx="25.6" cy="75.77" rx="10.19" ry="7.74" transform="translate(-53.46 87.88) rotate(-80.04)"/></g><path class="cls-5" d="M40.31,73.56c.57,7.26-5.23,8.89-12.49,9.45S14.7,82.88,14,75.62s4.48-18.33,11.75-18.86S39.7,66.3,40.31,73.56Z"/><path class="cls-8" d="M26.72,71.05c-2.06-5.83-3.84-5.74-3.84-5.74a1.7,1.7,0,0,0-2.18-.86l-.09,0a2.44,2.44,0,0,0-3.25.43,2.81,2.81,0,0,0-2.31.64,8.85,8.85,0,0,0-2.46,4.16c-.4,1.67.33,3,1.18,4.34a1,1,0,0,1-.25,1.38,1.15,1.15,0,0,0-.54.75A1.71,1.71,0,0,0,14.8,76a2.23,2.23,0,0,0,2.44-.15,4.54,4.54,0,0,0,3.23,2.62c2.28,2.46,4.16.55,4.16.55C26.07,79.2,28.75,76.86,26.72,71.05Z"/><ellipse class="cls-9" cx="21.95" cy="71.81" rx="3.63" ry="5.74" transform="translate(-23.04 11.69) rotate(-19.81)"/><path d="M20.71,71.94c.59-.07,1-1,.86-2.1a3,3,0,0,0-.52-1.51,1.78,1.78,0,0,1,.79-.42c1.57-.39,3.33,1.3,3.93,3.82s-.16,4.81-1.77,5.19-3.33-1.37-3.93-3.83a6.59,6.59,0,0,1-.2-1.65A.94.94,0,0,0,20.71,71.94Z"/><ellipse class="cls-10" cx="23.26" cy="60.3" rx="1.84" ry="0.89" transform="translate(-4.62 1.99) rotate(-4.46)"/><ellipse class="cls-10" cx="27.36" cy="61.39" rx="1.05" ry="0.51" transform="translate(-4.69 2.31) rotate(-4.46)"/><ellipse class="cls-10" cx="26.72" cy="58.39" rx="2.24" ry="1.08" transform="matrix(1, -0.08, 0.08, 1, -4.46, 2.25)"/><path class="cls-11" d="M6.35,83.12s8.08,6.3,14.84,1.22-10.62-6.8-10.62-6.8Z"/><path class="cls-12" d="M17.21,75.89c-.14,0-27.14-.67-14.92,5.87s20,1.39,20.64.84S23.59,78.28,17.21,75.89Z"/><ellipse class="cls-11" cx="16.89" cy="77.82" rx="0.68" ry="1.88" transform="translate(-52.5 38.75) rotate(-48.38)"/><path class="cls-5" d="M26.51,92.86c7.34-2.64,16.64,5.78,20,15s-.58,15.75-7.93,18.37S25.35,124.35,22,115.13,19.18,95.51,26.51,92.86Z"/><path class="cls-5" d="M19.36,106.76a6,6,0,0,0,.68,3.55.57.57,0,0,0,.19.22.42.42,0,0,0,.51-.21,1.48,1.48,0,0,0,.16-.58,2.84,2.84,0,0,0,.55,1.3c.28.35.8.64,1.16.38a1.37,1.37,0,0,0,.29-.42,5.62,5.62,0,0,0,.34-1.4,3.05,3.05,0,0,0,.84.62,1,1,0,0,0,1-.06,1.27,1.27,0,0,0,.33-.43,3.62,3.62,0,0,0,.25-2.88,1.16,1.16,0,0,0,.75.76.26.26,0,0,0,.21,0c.09,0,.11-.16.13-.26a6.16,6.16,0,0,0-.27-2,25.46,25.46,0,0,0-1.1-3.54,3.61,3.61,0,0,0-.81-1.39,1.44,1.44,0,0,0-1.48-.27,6.26,6.26,0,0,0-.66.49c-.32.23-.73.31-1.06.57a2.86,2.86,0,0,0-1.3,2.23A23.64,23.64,0,0,0,19.36,106.76Z"/><path class="cls-13" d="M21.26,110.59a1.46,1.46,0,0,0,2-.62l0-.06.07-.18a1.44,1.44,0,0,0,2.1-1.82,1.51,1.51,0,0,0,1.67-.54,1.47,1.47,0,0,0-.09-1.75,1.82,1.82,0,0,0,1.69-1.91,5.4,5.4,0,0,0-1-2.58"/><path class="cls-3" d="M34.75,126.79l-2.84,6.82s-8.32.94-7.67,1.09a19.84,19.84,0,0,0,5.86.06s-6.71,1.29-7,1.78,7.38-.09,7.38-.09-5.21,2.49-5.34,2.87,5.38-.88,6.06-1.18,3.71-.86,4.58-1.66c.59-.48.84-2.26-1.45-2.88l3.22-6.25A2.62,2.62,0,0,0,34.75,126.79Z"/><path class="cls-2" d="M25.73,138.87A5.15,5.15,0,0,0,24,136.7a17.71,17.71,0,0,1,5.35-.9,6.15,6.15,0,0,1,1.21.07s.49.08.28.3S30.29,136.85,25.73,138.87Z"/><path class="cls-2" d="M41.59,138.57l-.46-1.5s1.92-2.88,3.5-3.59c0,0,.55-.39-.61,1.25A32.67,32.67,0,0,0,41.59,138.57Z"/><ellipse class="cls-5" cx="38.39" cy="118.69" rx="11.15" ry="5.97" transform="translate(-85.51 104.2) rotate(-65.41)"/><path class="cls-5" d="M28.72,114c-1-.69-6.24-17.08,8.3-24.11S58.36,78.21,58.36,78.21s3.36-.26.62,6c0,0,3.71,5.11-.64,8.61,0,0,1.64,8.69-7.19,10.34,0,0,.57,9.6-7.47,8.71C43.66,111.88,39,121.44,28.72,114Z"/></g></g></svg>