<svg id="Layer_2" data-name="Layer 2" xmlns="http://www.w3.org/2000/svg" xmlns:xlink="http://www.w3.org/1999/xlink" viewBox="0 0 260 168"><defs><style>.cls-1{fill:#f7f7f7;}.cls-2{fill:#fff;}.cls-3{fill:#541dff;opacity:0.5;}.cls-4{fill:red;opacity:0.51;}.cls-5{fill:#082bbc;}.cls-6{fill:#0025ff;}.cls-7{fill:#9b9a9a;}.cls-8{fill:#ffca55;}.cls-9{fill:#ffde52;}.cls-10{clip-path:url(#clip-path);}.cls-11{fill:#e5e4df;}.cls-12{fill:#efa94d;}.cls-13{fill:#d3862a;}.cls-14{fill:#c92d2d;}.cls-15{fill:#f2d24c;}.cls-16{fill:#efb54d;}.cls-17{clip-path:url(#clip-path-2);}.cls-18{clip-path:url(#clip-path-3);}.cls-19{fill:#e5e3e4;}.cls-20{clip-path:url(#clip-path-4);}.cls-21{fill:#e8e8e6;}.cls-22{opacity:0.21;}.cls-23{fill:#e5e5e5;}.cls-24{clip-path:url(#clip-path-5);}.cls-25{fill:#6e60f4;}.cls-25,.cls-27{opacity:0.19;}.cls-26{clip-path:url(#clip-path-6);}.cls-27{fill:#ed6b6b;}.cls-28{fill:none;stroke:#007aff;stroke-linecap:round;stroke-linejoin:round;stroke-width:0.19px;}.cls-29{fill:#d5d7db;}.cls-30{fill:#152cbc;}.cls-31{clip-path:url(#clip-path-7);}.cls-32{fill:#007aff;}.cls-33{clip-path:url(#clip-path-8);}.cls-34{fill:#ffda00;}.cls-35{fill:#e5e6ea;}</style><clipPath id="clip-path"><path class="cls-1" d="M130.2,103.1c-4.64-10.39-1.59-29.91-1.59-29.91L123,68.6v-.08l0,0,0,0v.08l-5.63,4.59s3,19.52-1.59,29.91a7.54,7.54,0,0,0,7.22,4.66H123A7.54,7.54,0,0,0,130.2,103.1Z"/></clipPath><clipPath id="clip-path-2"><ellipse class="cls-2" cx="115.02" cy="66.7" rx="5.41" ry="3.42" transform="translate(20.25 159.97) rotate(-74.65)"/></clipPath><clipPath id="clip-path-3"><ellipse class="cls-2" cx="130.85" cy="66.7" rx="3.42" ry="5.41" transform="translate(-12.99 37.01) rotate(-15.35)"/></clipPath><clipPath id="clip-path-4"><path class="cls-1" d="M142,120.17c0,10.2-8.52,13.85-19,13.85s-19-3.65-19-13.85,8.52-24.7,19-24.7S142,110,142,120.17Z"/></clipPath><clipPath id="clip-path-5"><path class="cls-3" d="M122.26,91.64l8.89,4.51s.49,1.08-1.28,4.56-4.91,3-7.73,1.56S117.16,96.9,122.26,91.64Z"/></clipPath><clipPath id="clip-path-6"><path class="cls-4" d="M136,98.62l8.89,4.51s.49,1.08-1.28,4.56-4.92,3-7.73,1.56S130.91,103.88,136,98.62Z"/></clipPath><clipPath id="clip-path-7"><path class="cls-5" d="M114.57,103.64s6.59-7.07,7-9.44c.4-2.15-8.23,5.45-9.81,6.85a.7.7,0,0,0-.24.62,2.06,2.06,0,0,0,.23.77.74.74,0,0,1-.13.92l-.84.79a.75.75,0,0,0,0,1.06l.62.62a.74.74,0,0,0,1.06,0Z"/></clipPath><clipPath id="clip-path-8"><path class="cls-6" d="M111.94,101.35s6.65-7,9-7.6c2.13-.54-4.93,8.55-6.23,10.21a.71.71,0,0,1-.6.28,1.93,1.93,0,0,1-.78-.18.76.76,0,0,0-.92.18l-.73.89a.74.74,0,0,1-1.06.08l-.66-.57a.75.75,0,0,1-.06-1.06Z"/></clipPath></defs><polygon class="cls-7" points="120.3 92.07 124.65 95.6 126.64 93.78 122.18 90.24 120.3 92.07"/><path class="cls-1" d="M111.58,100.78s-10.38,2.85-12.82,12,8.75,13.12,8.75,13.12l19.43-11.7Z"/><path class="cls-8" d="M108.57,143.76a8.6,8.6,0,0,1,6.22,4.33s3.49-5.25,7-3.55L114.36,140Z"/><path class="cls-9" d="M113.9,139.7l.19-8.32,2.46,0-.12,8.15s8,5.44,5.55,5.54-5.71-2.73-5.71-2.73c-1.94,14.52-2.38-.38-2.38-.38s-4.07,2.94-5.83,2.29S113.9,139.7,113.9,139.7Z"/><path class="cls-8" d="M137.89,143.76a8.58,8.58,0,0,0-6.22,4.33s-3.49-5.25-7-3.55l7.47-4.51Z"/><path class="cls-9" d="M132.55,139.7l-.19-8.32-2.46,0,.12,8.15s-8,5.44-5.55,5.54,5.72-2.73,5.72-2.73c1.93,14.52,2.38-.38,2.38-.38s4.07,2.94,5.83,2.29S132.55,139.7,132.55,139.7Z"/><path class="cls-1" d="M130.2,103.1c-4.64-10.39-1.59-29.91-1.59-29.91L123,68.6v-.08l0,0,0,0v.08l-5.63,4.59s3,19.52-1.59,29.91a7.54,7.54,0,0,0,7.22,4.66H123A7.54,7.54,0,0,0,130.2,103.1Z"/><g class="cls-10"><ellipse class="cls-11" cx="122.93" cy="78.87" rx="10.18" ry="8.64"/></g><ellipse class="cls-12" cx="122.93" cy="79.67" rx="8.03" ry="5.43"/><ellipse class="cls-13" cx="122.93" cy="79.15" rx="6.44" ry="3.84"/><path class="cls-1" d="M135.34,69.69c0,6.85-5.55,8-12.41,8s-12.41-1.11-12.41-8,5.56-16.86,12.41-16.86S135.34,62.84,135.34,69.69Z"/><path class="cls-14" d="M135.38,66.33c-1.48-5.6-3.18-5.66-3.18-5.66a1.58,1.58,0,0,0-2.12-.93,2.27,2.27,0,0,0-3.07.16c-.9-.39-2.1.31-2.84.84a1.43,1.43,0,0,0-1.5-1,1.76,1.76,0,0,0-1.57.78,2.93,2.93,0,0,0-2.52-.62,2.27,2.27,0,0,0-3.07-.16,1.59,1.59,0,0,0-2.13.93s-1.69.06-3.18,5.66,1.22,7.64,2.55,7.37c0,0,1.91,1.65,3.87-.82a4.33,4.33,0,0,0,2.86-2.7,2.09,2.09,0,0,0,2.44-.15,1.56,1.56,0,0,0,1.89.11,2.09,2.09,0,0,0,2.29,0,4.33,4.33,0,0,0,2.87,2.7c2,2.47,3.87.82,3.87.82C134.16,74,136.87,71.94,135.38,66.33Z"/><path class="cls-15" d="M131.67,78.32c-.95-2.81-1.65-5.13-1.65-5.13A8.12,8.12,0,0,0,123,69.48h0a8.09,8.09,0,0,0-7,3.71s-.8,2.64-1.85,5.69a.59.59,0,0,0,.81.72,19.34,19.34,0,0,1,8.11-1.95,19.07,19.07,0,0,1,7.61,1.71A.84.84,0,0,0,131.67,78.32Z"/><ellipse class="cls-16" cx="118.72" cy="72.47" rx="1.3" ry="0.66" transform="translate(-5.36 135.33) rotate(-58.27)"/><ellipse class="cls-16" cx="127.15" cy="72.47" rx="0.66" ry="1.3" transform="translate(-19.11 77.71) rotate(-31.73)"/><ellipse class="cls-2" cx="115.02" cy="66.7" rx="5.41" ry="3.42" transform="translate(20.25 159.97) rotate(-74.65)"/><g class="cls-17"><path d="M116.79,68.38c-.56-.08-.91-1-.76-2A2.74,2.74,0,0,1,116.6,65a2,2,0,0,0-.73-.43c-1.47-.4-3.17,1.15-3.81,3.47s0,4.52,1.5,4.93,3.17-1.15,3.81-3.47a7.18,7.18,0,0,0,.23-1.55A.91.91,0,0,1,116.79,68.38Z"/></g><ellipse class="cls-2" cx="130.85" cy="66.7" rx="3.42" ry="5.41" transform="translate(-12.99 37.01) rotate(-15.35)"/><g class="cls-18"><path d="M129,68.1c.56-.08.91-1,.77-2a2.66,2.66,0,0,0-.57-1.38,1.75,1.75,0,0,1,.73-.43c1.46-.4,3.17,1.15,3.8,3.47s0,4.52-1.5,4.92-3.17-1.15-3.81-3.46a6.66,6.66,0,0,1-.22-1.55A.89.89,0,0,0,129,68.1Z"/></g><ellipse class="cls-19" cx="120.31" cy="56" rx="1.74" ry="0.84"/><ellipse class="cls-19" cx="124.06" cy="57.32" rx="0.99" ry="0.48"/><ellipse class="cls-19" cx="123.69" cy="54.45" rx="2.11" ry="1.01"/><path class="cls-1" d="M142,120.17c0,10.2-8.52,13.85-19,13.85s-19-3.65-19-13.85,8.52-24.7,19-24.7S142,110,142,120.17Z"/><g class="cls-20"><path class="cls-21" d="M101.2,121s7.18,9.46,14.48,10.36c0,0-.11-.9,4.18.11,0,0,10.55-1.8,8.81-.23,0,0,13.44-2.36,14.14-12.38h3.36v19.7H102.24Z"/></g><g class="cls-22"><path class="cls-23" d="M114.74,111.18a1.62,1.62,0,0,0-.49,2.29,2.11,2.11,0,0,0,2.65.51l-.39-.1a4.16,4.16,0,0,0,6.28.74h-.4a4.68,4.68,0,0,0,3.61.83c1-.13,2.26-.51,2.51-1.64l-.41.17a2.22,2.22,0,1,0,2.07-3.91c-.32-.16-.61.33-.28.49a1.65,1.65,0,1,1-1.51,2.93.29.29,0,0,0-.41.17c-.23,1-1.5,1.2-2.35,1.27a4,4,0,0,1-2.83-.71.29.29,0,0,0-.4,0,3.58,3.58,0,0,1-5.39-.63.29.29,0,0,0-.38-.1,1.6,1.6,0,0,1-1.84-.25,1.06,1.06,0,0,1,.25-1.57.28.28,0,0,0-.29-.49Z"/></g><path d="M119.91,95.06c.47-.36,1-.7,1.45-1l.44-1.13.87-2.92L114,94,116,98C117.24,96.92,118.63,96,119.91,95.06Z"/><path class="cls-3" d="M122.26,91.64l8.89,4.51s.49,1.08-1.28,4.56-4.91,3-7.73,1.56S117.16,96.9,122.26,91.64Z"/><g class="cls-24"><path class="cls-25" d="M122.83,94.73a1,1,0,0,0-.43.58c0,.23.11.44.12.67,0,.47-.49.77-.92,1a40,40,0,0,0-4,2.09,1.47,1.47,0,0,0-.69.68,1,1,0,0,0,.64,1.11,2.44,2.44,0,0,0,1.39,0,12.14,12.14,0,0,0,4.37-1.92,1.82,1.82,0,0,0,.86-1.07c.06-.38-.1-.77,0-1.15a1.8,1.8,0,0,1,1-1L127,94.5a6.86,6.86,0,0,0,1.64-1c.38-.48.12-.59-.47-.72C126.16,92.36,124.31,93.6,122.83,94.73Z"/><path class="cls-25" d="M128.35,98.08a.91.91,0,0,0-.43.58c0,.23.11.45.12.68,0,.47-.49.76-.92,1a38,38,0,0,0-4,2.09,1.38,1.38,0,0,0-.69.68,1,1,0,0,0,.64,1.11,2.44,2.44,0,0,0,1.39,0,12,12,0,0,0,4.37-1.93,1.81,1.81,0,0,0,.85-1.06c.07-.38-.1-.77,0-1.15a1.91,1.91,0,0,1,1-1.05l1.84-1.13a6.91,6.91,0,0,0,1.63-1c.39-.49.13-.6-.46-.72C131.68,95.71,129.82,97,128.35,98.08Z"/></g><path class="cls-4" d="M136,98.62l8.89,4.51s.49,1.08-1.28,4.56-4.92,3-7.73,1.56S130.91,103.88,136,98.62Z"/><g class="cls-26"><path class="cls-27" d="M136.58,101.7a.91.91,0,0,0-.43.58c0,.23.11.45.12.68,0,.47-.49.76-.92,1a38,38,0,0,0-4,2.09,1.47,1.47,0,0,0-.69.68,1,1,0,0,0,.64,1.11,2.44,2.44,0,0,0,1.39,0,12,12,0,0,0,4.37-1.93,1.78,1.78,0,0,0,.85-1.06c.07-.38-.09-.77,0-1.15a1.91,1.91,0,0,1,1-1l1.84-1.13a6.91,6.91,0,0,0,1.63-1c.39-.49.13-.6-.46-.72C139.91,99.34,138.06,100.58,136.58,101.7Z"/><path class="cls-27" d="M142.1,105.06a.89.89,0,0,0-.43.58c0,.23.11.44.12.67,0,.47-.49.77-.92,1a40,40,0,0,0-4,2.09,1.43,1.43,0,0,0-.69.68,1,1,0,0,0,.64,1.11,2.44,2.44,0,0,0,1.39,0,12.14,12.14,0,0,0,4.37-1.92,1.81,1.81,0,0,0,.85-1.06c.07-.38-.1-.78,0-1.16s.56-.78,1-1l1.84-1.14a6.6,6.6,0,0,0,1.63-1c.39-.48.13-.59-.46-.71C145.43,102.69,143.57,103.93,142.1,105.06Z"/></g><path d="M146.2,104.41l.45-2.54h0l-9.36-4.75h0l-5-2.52h0l-9.75-4.94h0l-1.78,1.87.5.53c-2,1.65-5.62,7.91.73,11.14s8.85-2.8,8.85-2.8l1.06-2.09,2.22,1.12-1.06,2.09s-3.39,5.57,3,8.8,9.25-3.44,9.43-6Zm-24-2.77A5.23,5.23,0,0,1,120.3,96a5.16,5.16,0,0,1,2.59-3.09h0l7.51,3.81h0a5.19,5.19,0,0,1-8.25,5Zm13.69,6.94A5.24,5.24,0,0,1,134,102.9a5.13,5.13,0,0,1,2.59-3.09h0l7.51,3.81h0a5.19,5.19,0,0,1-8.25,5Z"/><path class="cls-28" d="M112.66,105.05s6.24-6.44,7.8-9.42"/><path class="cls-29" d="M114.15,108.82a18.75,18.75,0,0,0-5.53,1.83c-2.44,1.37-.25,3.36.87,3.66s4-2.18,4-2.18S115.36,110.46,114.15,108.82Z"/><path class="cls-30" d="M101.29,104.68c-2.76,1.88-4,5.12-2.71,7.23s4.53,2.32,7.28.44,4-5.12,2.71-7.23S104.05,102.8,101.29,104.68Zm.73,1.22c1.88-1.27,4.1-1.14,5,.3s0,3.65-1.85,4.93-4.1,1.14-5-.3S100.14,107.18,102,105.9Z"/><path class="cls-5" d="M114.57,103.64s6.59-7.07,7-9.44c.4-2.15-8.23,5.45-9.81,6.85a.7.7,0,0,0-.24.62,2.06,2.06,0,0,0,.23.77.74.74,0,0,1-.13.92l-.84.79a.75.75,0,0,0,0,1.06l.62.62a.74.74,0,0,0,1.06,0Z"/><g class="cls-31"><path class="cls-32" d="M122.68,93.41s-2.91,1.46-8,6.11-5.56,5.76-5.56,5.76l-2.59-2.88L117.83,92l2.81-.56Z"/></g><path class="cls-6" d="M109.52,106.76c-2.24.18-4.34,3.12-4.7,6.57s1.16,6.11,3.4,5.93,4.34-3.12,4.7-6.57S111.76,106.58,109.52,106.76Zm-1.09,10.51c-1.53.12-2.56-1.69-2.32-4s1.68-4.35,3.2-4.48,2.56,1.69,2.32,4S110,117.14,108.43,117.27Z"/><path class="cls-6" d="M111.94,101.35s6.65-7,9-7.6c2.13-.54-4.93,8.55-6.23,10.21a.71.71,0,0,1-.6.28,1.93,1.93,0,0,1-.78-.18.76.76,0,0,0-.92.18l-.73.89a.74.74,0,0,1-1.06.08l-.66-.57a.75.75,0,0,1-.06-1.06Z"/><g class="cls-33"><path class="cls-32" d="M121.64,92.63s-1.27,3-5.61,8.31-5.4,5.91-5.4,5.91l3,2.4,9.74-11.88.38-2.84Z"/></g><circle class="cls-34" cx="109.96" cy="105.61" r="1.91" transform="translate(-6.83 7.6) rotate(-3.84)"/><path class="cls-35" d="M110.34,124.6c-4.92,2.28-15.17-1.24-13.64-12.23a4.7,4.7,0,0,1,.7-1.83c1.11-1.75,3.79-5.37,6.91-5.43,4.12-.07,3,3.21,2.47,4.06s-.43,1.52-2.74,2.52a11,11,0,0,1,3.11-.24c1.32.16-.39.17.64-.67s1.12-2.36,2-2.26c0,0,3.31.19,2.89,5.62,0,0,2.13-.59,1.9,3.54S113.18,123.28,110.34,124.6Z"/><path class="cls-35" d="M149.22,113s.1-7.83-2.54-10.89-6.62,4-7.12,9.06c0,0-4.89-4.17-5.5,3.56s4.86,8.92,8.65,8.85C148.71,123.47,149.43,114.82,149.22,113Z"/><path d="M119.17,97.46a47,47,0,0,0-2,4.74l3.08,2-1-6.94Z"/></svg>