<svg xmlns="http://www.w3.org/2000/svg" xmlns:xlink="http://www.w3.org/1999/xlink" viewBox="0 0 260 168"><defs><style>.cls-1{fill:none;}.cls-2{fill:#ffca55;}.cls-3{fill:#ffde52;}.cls-4{fill:#eae4e7;}.cls-5{fill:#f7f7f7;}.cls-6{clip-path:url(#clip-path);}.cls-7{fill:#e5e4df;}</style><clipPath id="clip-path"><path class="cls-1" d="M10.59,100.94c-6.46-9.43-9.1-30.29-9.1-30.29l-5.75-3.24,0-.07h0l0,.07L-7.7,73.64s7.57,19.24,6.54,31.11c0,0,2.52,4.31,7.05,2.9l.06,0C10.47,106.09,10.59,100.94,10.59,100.94Z"/></clipPath></defs><g id="Layer_10" data-name="Layer 10"><g id="Layer_3" data-name="Layer 3"><path class="cls-2" d="M14.2,139.31a5.17,5.17,0,0,0-2.75-.33,17.44,17.44,0,0,1,3.28-4.31,7.85,7.85,0,0,1,.93-.8s.4-.28.42,0S16.1,134.77,14.2,139.31Z"/><path class="cls-3" d="M12.05,124.35l2.79,6.83s-5.23,6.52-4.64,6.18a19.49,19.49,0,0,0,4.18-4.08s-3.85,5.64-3.67,6.2,5.17-5.27,5.17-5.27S14,139.64,14.12,140s3.19-4.41,3.48-5.09,2-3.22,2.11-4.4c.08-.76-1-2.2-3.06-1l-2.17-6.69A2.6,2.6,0,0,0,12.05,124.35Z"/><ellipse class="cls-4" cx="7.69" cy="115.51" rx="5.98" ry="11.17" transform="translate(-62.66 23.57) rotate(-33.61)"/><path class="cls-5" d="M10.59,100.94c-6.46-9.43-9.1-30.29-9.1-30.29l-5.75-3.24,0-.07h0l0,.07L-7.7,73.64s7.57,19.24,6.54,31.11c0,0,2.52,4.31,7.05,2.9l.06,0C10.47,106.09,10.59,100.94,10.59,100.94Z"/><g class="cls-6"><ellipse class="cls-7" cx="-4.82" cy="75.77" rx="10.19" ry="7.74" transform="translate(-78.62 57.92) rotate(-80.04)"/></g><path class="cls-5" d="M9.89,73.56C10.46,80.82,4.66,82.45-2.6,83s-13.12-.13-13.79-7.39,4.48-18.33,11.75-18.86S9.28,66.3,9.89,73.56Z"/><path class="cls-5" d="M-3.92,92.86c7.34-2.64,16.64,5.78,20,15s-.58,15.75-7.93,18.37-13.23-1.88-16.56-11.1S-11.25,95.51-3.92,92.86Z"/><path class="cls-3" d="M4.33,126.79l-2.84,6.82s-8.32.94-7.68,1.09a19.91,19.91,0,0,0,5.87.06s-6.71,1.29-7,1.78,7.39-.09,7.39-.09-5.21,2.49-5.34,2.87,5.38-.88,6.06-1.18,3.71-.86,4.58-1.66c.59-.48.84-2.26-1.45-2.88l3.22-6.25A2.62,2.62,0,0,0,4.33,126.79Z"/><path class="cls-2" d="M-4.69,138.87a5.18,5.18,0,0,0-1.76-2.17,17.77,17.77,0,0,1,5.36-.9,6.15,6.15,0,0,1,1.21.07s.49.08.28.3S-.13,136.85-4.69,138.87Z"/><path class="cls-2" d="M11.17,138.57l-.46-1.5s1.91-2.88,3.5-3.59c0,0,.55-.39-.61,1.25A32.67,32.67,0,0,0,11.17,138.57Z"/><ellipse class="cls-5" cx="7.96" cy="118.69" rx="11.15" ry="5.97" transform="translate(-103.27 76.54) rotate(-65.41)"/><path class="cls-5" d="M-1.71,114c-1-.69-6.24-17.08,8.31-24.11S27.94,78.21,27.94,78.21s3.35-.26.62,6c0,0,3.71,5.11-.65,8.61,0,0,1.65,8.69-7.18,10.34,0,0,.57,9.6-7.47,8.71C13.24,111.88,8.57,121.44-1.71,114Z"/></g></g></svg>