<svg id="Layer_5" data-name="Layer 5" xmlns="http://www.w3.org/2000/svg" xmlns:xlink="http://www.w3.org/1999/xlink" viewBox="0 0 260 168"><defs><style>.cls-1{fill:#0f093a;}.cls-19,.cls-2{fill:none;}.cls-3{fill:#f7f7f7;}.cls-4{fill:#1e1354;}.cls-5{clip-path:url(#clip-path);}.cls-6{fill:#c0f3ff;}.cls-7{clip-path:url(#clip-path-2);}.cls-8{fill:#a2effc;}.cls-9{fill:#ffde52;}.cls-10{fill:#ffca55;}.cls-11{fill:#eae4e7;}.cls-12{clip-path:url(#clip-path-3);}.cls-13{fill:#e5e4df;}.cls-14{fill:#c92d2d;}.cls-15{fill:#fff;}.cls-16{fill:#e5e3e4;}.cls-17{fill:#efb54d;}.cls-18{fill:#f2d24c;}.cls-19{stroke:#e5e4df;stroke-linecap:round;stroke-linejoin:round;stroke-width:0.45px;}</style><clipPath id="clip-path"><ellipse class="cls-1" cx="102.8" cy="105.65" rx="71.84" ry="9.75" transform="matrix(1, -0.01, 0.01, 1, -0.83, 0.81)"/></clipPath><clipPath id="clip-path-2"><path class="cls-2" d="M0,36.28,48,111a475.09,475.09,0,0,0,57.7,3.81c30.19,0,37.82-7.31,37.82-7.31l3.18-67.71Z"/></clipPath><clipPath id="clip-path-3"><path class="cls-3" d="M98.53,99.39c5.2-9,6.15-28.13,6.15-28.13l5-3.35v-.07l0,0,0,0v.07l3.47,5.37s-5.52,18-3.76,28.7c0,0-2,4.09-6.2,3.13h-.07C99,104.06,98.53,99.39,98.53,99.39Z"/></clipPath></defs><path class="cls-4" d="M31,106.22s4.23,31.22,7.62,38c0,0,10.6,9.75,63.58,9.75,33.24,0,51.13-3.17,59.84-5.53a11.06,11.06,0,0,0,8-9.2l4.6-34.15S70.39,102.55,31,106.22Z"/><ellipse class="cls-1" cx="102.8" cy="105.65" rx="71.84" ry="9.75" transform="matrix(1, -0.01, 0.01, 1, -0.83, 0.81)"/><g class="cls-5"><ellipse class="cls-6" cx="104.71" cy="116.25" rx="78.83" ry="13.14"/></g><g class="cls-7"><ellipse class="cls-8" cx="100.98" cy="112.83" rx="31.15" ry="4.45"/><path class="cls-9" d="M111,124l-.63,6.69s6.29,4.31,5.71,4.17a18,18,0,0,1-4.73-2.46s4.86,3.91,4.84,4.44-5.89-3.23-5.89-3.23,3.11,4.23,3.06,4.58-3.94-3-4.37-3.54-2.61-2.27-3-3.28c-.26-.64.3-2.18,2.4-1.71l.13-6.42A2.36,2.36,0,0,1,111,124Z"/><path class="cls-10" d="M113,137.57a4.75,4.75,0,0,1,2.34-.95,15.74,15.74,0,0,0-3.92-3,6.58,6.58,0,0,0-1-.48s-.44-.13-.37.14S110.25,134,113,137.57Z"/><path class="cls-10" d="M115.66,136.19v-1.44s-2.43-1.94-4-2.18c0,0-.6-.21.85.91A27.92,27.92,0,0,1,115.66,136.19Z"/><ellipse class="cls-11" cx="108.79" cy="114.83" rx="5.45" ry="10.17" transform="translate(-6.09 6.09) rotate(-3.12)"/><path class="cls-9" d="M106.09,125.7l-.63,6.7s6.29,4.31,5.71,4.17a18.41,18.41,0,0,1-4.73-2.46s4.86,3.9,4.85,4.43-5.9-3.23-5.9-3.23,3.11,4.23,3.06,4.59-3.94-3-4.37-3.54-2.61-2.28-3-3.29c-.27-.64.29-2.18,2.39-1.7l.14-6.42A2.35,2.35,0,0,1,106.09,125.7Z"/><path class="cls-10" d="M108.19,139.27a4.8,4.8,0,0,1,2.33-1,15.78,15.78,0,0,0-3.92-3,5.86,5.86,0,0,0-1-.47s-.43-.14-.36.13S105.39,135.69,108.19,139.27Z"/><path class="cls-10" d="M110.8,137.89v-1.43s-2.42-2-4-2.19c0,0-.6-.2.86.92A27.78,27.78,0,0,1,110.8,137.89Z"/><path class="cls-3" d="M98.53,99.39c5.2-9,6.15-28.13,6.15-28.13l5-3.35v-.07l0,0,0,0v.07l3.47,5.37s-5.52,18-3.76,28.7c0,0-2,4.09-6.2,3.13h-.07C99,104.06,98.53,99.39,98.53,99.39Z"/><g class="cls-12"><ellipse class="cls-13" cx="110.78" cy="75.46" rx="7.05" ry="9.28" transform="matrix(0.97, -0.25, 0.25, 0.97, -15.24, 29.78)"/></g><path class="cls-3" d="M98.28,73.07c-.67,6.6,4.57,8.21,11.16,8.88s12,.17,12.73-6.43-3.69-16.78-10.28-17.45S99,66.48,98.28,73.07Z"/><path class="cls-14" d="M110.72,71.08c2-5.25,3.62-5.13,3.62-5.13a1.53,1.53,0,0,1,2.13-.69,2.2,2.2,0,0,1,2.94.46,2.56,2.56,0,0,1,2.1.63,8.12,8.12,0,0,1,2.12,3.84c.33,1.53-.35,2.7-1.16,3.93a.91.91,0,0,0,.19,1.26,1,1,0,0,1,.47.69,1.54,1.54,0,0,1-1.65-.18,2,2,0,0,1-2.21-.19,4.18,4.18,0,0,1-3,2.31c-2.13,2.19-3.81.41-3.81.41C111.14,78.56,108.73,76.33,110.72,71.08Z"/><ellipse class="cls-15" cx="115.04" cy="71.89" rx="5.23" ry="3.31" transform="translate(6.43 153.16) rotate(-68.8)"/><path d="M116.89,72.11c-.54-.13-.78-1-.54-2a2.54,2.54,0,0,1,.69-1.27,1.76,1.76,0,0,0-.67-.48c-1.37-.53-3.16.79-4,3s-.41,4.36,1,4.89,3.16-.8,4-3a6.51,6.51,0,0,0,.38-1.47A.88.88,0,0,1,116.89,72.11Z"/><ellipse class="cls-16" cx="114.11" cy="61.38" rx="0.81" ry="1.68" transform="translate(41.42 168.64) rotate(-84.15)"/><ellipse class="cls-16" cx="110.36" cy="62.28" rx="0.46" ry="0.96" transform="translate(37.16 165.71) rotate(-84.15)"/><ellipse class="cls-16" cx="111" cy="59.56" rx="0.98" ry="2.04" transform="translate(40.45 163.91) rotate(-84.15)"/><path class="cls-17" d="M129,82.51s-7.49,5.56-13.53.79,9.82-6,9.82-6Z"/><path class="cls-18" d="M119.27,75.7c.13,0,24.73,0,13.46,5.67s-18.28.83-18.82.31S113.4,77.74,119.27,75.7Z"/><ellipse class="cls-17" cx="119.52" cy="77.46" rx="1.71" ry="0.62" transform="translate(-21.75 95.53) rotate(-40.23)"/><path class="cls-3" d="M106.67,89.67c-7.1.39-11.9,10.76-11.4,19.67s6.09,13,13.18,12.58,10.43-6.28,9.94-15.19S113.76,89.28,106.67,89.67Z"/><path class="cls-3" d="M117.61,98.78a5.65,5.65,0,0,1,.69,3.26.57.57,0,0,1-.08.25.38.38,0,0,1-.5,0,1.13,1.13,0,0,1-.35-.43,2.68,2.68,0,0,1,0,1.29c-.11.39-.43.82-.83.73a.9.9,0,0,1-.39-.25,4.22,4.22,0,0,1-.78-1.05,3.08,3.08,0,0,1-.49.82.94.94,0,0,1-.87.3,1.08,1.08,0,0,1-.43-.24,3.37,3.37,0,0,1-1.23-2.33,1.09,1.09,0,0,1-.35.79.3.3,0,0,1-.17.08c-.1,0-.16-.09-.2-.17a5.29,5.29,0,0,1-.48-1.76,22.26,22.26,0,0,1-.35-3.36,3.1,3.1,0,0,1,.26-1.42,1.29,1.29,0,0,1,1.15-.75,4.43,4.43,0,0,1,.72.17c.36.08.73,0,1.09.1a2.62,2.62,0,0,1,1.88,1.41A24,24,0,0,1,117.61,98.78Z"/><path class="cls-19" d="M117.41,102.65a1.34,1.34,0,0,1-2,0,1.37,1.37,0,0,1-1.5.52,1.34,1.34,0,0,1-.9-1.3,1.32,1.32,0,0,1-2.15-1.36,1.64,1.64,0,0,1-2.08-1,4.75,4.75,0,0,1-.13-2.54"/><ellipse class="cls-3" cx="103.94" cy="116.53" rx="5.45" ry="10.17" transform="translate(-6.19 5.83) rotate(-3.12)"/><path class="cls-3" d="M109.85,94c-.44-1-14.16-8.58-23,3.18s-14.15,17-14.15,17-.83,2.95,5.25,1.6c0,0,3.92,4.22,7.82.93,0,0,7.47,3,10.5-4.6,0,0,8.48,2.19,9.1-5.14C105.36,107,114.71,104.5,109.85,94Z"/></g></svg>