<svg id="Layer_3" data-name="Layer 3" xmlns="http://www.w3.org/2000/svg" xmlns:xlink="http://www.w3.org/1999/xlink" viewBox="0 0 260 168"><defs><style>.cls-1{fill:#f7f7f7;}.cls-2{fill:#724100;}.cls-3{fill:#ffca55;}.cls-4{fill:#ffde52;}.cls-5{clip-path:url(#clip-path);}.cls-6{fill:#e5e4df;}.cls-7{fill:#c92d2d;}.cls-8{fill:#fff;}.cls-9{fill:#e5e3e4;}.cls-10{fill:#efa94d;}.cls-11{clip-path:url(#clip-path-2);}.cls-12{fill:#ff1a36;}.cls-13{fill:#f2d24c;}.cls-14{fill:#efb54d;}.cls-15{clip-path:url(#clip-path-3);}.cls-16{fill:#e8e8e6;}.cls-17{opacity:0.21;}.cls-18{fill:#e5e5e5;}</style><clipPath id="clip-path"><path class="cls-1" d="M164.4,110c-1.83-4.11-.62-11.84-.62-11.84l-2.23-1.82v0l0,0,0,0v0l-2.23,1.82s1.21,7.73-.63,11.84a3,3,0,0,0,2.86,1.85h0A3,3,0,0,0,164.4,110Z"/></clipPath><clipPath id="clip-path-2"><path class="cls-2" d="M158.54,98.9a7.52,7.52,0,0,0,6.3,0s-.39,2.19-3.33,2.19S158.54,98.9,158.54,98.9Z"/></clipPath><clipPath id="clip-path-3"><path class="cls-1" d="M169.06,116.8c0,4-3.37,5.48-7.53,5.48S154,120.84,154,116.8s3.37-9.78,7.53-9.78S169.06,112.76,169.06,116.8Z"/></clipPath></defs><path class="cls-1" d="M155.7,116.08c.41-.11,4.53-5,.49-9.5a71.16,71.16,0,0,1-5.76-7s-1.12-.56-1,2c0,0-2,1.25-1,3.07a3.24,3.24,0,0,0,1,4.58s-1.53,3.24,1.37,4C150.82,113.27,151.09,117.22,155.7,116.08Z"/><path class="cls-1" d="M167.32,115.93c-.39-.16-3.74-5.64.92-9.46a73.6,73.6,0,0,0,6.73-6.06s1.19-.39.74,2.11c0,0,1.79,1.54.51,3.19a3.22,3.22,0,0,1-1.71,4.36s1,3.44-1.95,3.81C172.56,113.88,171.71,117.75,167.32,115.93Z"/><path class="cls-3" d="M155.84,126.14a3.36,3.36,0,0,1,2.46,1.71s1.39-2.08,2.79-1.4l-3-1.79Z"/><path class="cls-4" d="M158,124.53l.08-3.3h1l-.05,3.23s3.15,2.15,2.2,2.19a4.49,4.49,0,0,1-2.26-1.08c-.77,5.75-.94-.15-.94-.15s-1.61,1.16-2.31.91S158,124.53,158,124.53Z"/><path class="cls-3" d="M167.45,126.14a3.36,3.36,0,0,0-2.46,1.71s-1.38-2.08-2.79-1.4l3-1.79Z"/><path class="cls-4" d="M165.34,124.53l-.08-3.3h-1l.05,3.23s-3.15,2.15-2.2,2.19a4.49,4.49,0,0,0,2.26-1.08c.77,5.75.94-.15.94-.15s1.61,1.16,2.31.91S165.34,124.53,165.34,124.53Z"/><path class="cls-1" d="M164.4,110c-1.83-4.11-.62-11.84-.62-11.84l-2.23-1.82v0l0,0,0,0v0l-2.23,1.82s1.21,7.73-.63,11.84a3,3,0,0,0,2.86,1.85h0A3,3,0,0,0,164.4,110Z"/><g class="cls-5"><ellipse class="cls-6" cx="161.53" cy="99.56" rx="4.03" ry="3.42"/></g><path class="cls-1" d="M166.44,96.81c0,2.72-2.2,3.15-4.91,3.15s-4.91-.43-4.91-3.15,2.2-6.67,4.91-6.67S166.44,94.1,166.44,96.81Z"/><path class="cls-7" d="M166.46,95.49c-.59-2.22-1.26-2.25-1.26-2.25a.63.63,0,0,0-.84-.37.91.91,0,0,0-1.22.07c-.35-.16-.83.12-1.12.33a.58.58,0,0,0-.6-.4.71.71,0,0,0-.62.32,1.11,1.11,0,0,0-1-.25.91.91,0,0,0-1.22-.07.63.63,0,0,0-.84.37s-.67,0-1.26,2.25.48,3,1,2.91c0,0,.75.65,1.53-.33A1.68,1.68,0,0,0,160.16,97a.84.84,0,0,0,1-.06.61.61,0,0,0,.74,0,.84.84,0,0,0,.91,0,1.71,1.71,0,0,0,1.14,1.06c.77,1,1.53.33,1.53.33C166,98.51,167.05,97.7,166.46,95.49Z"/><ellipse class="cls-8" cx="158.4" cy="95.63" rx="2.14" ry="1.35" transform="translate(24.25 223.07) rotate(-74.65)"/><ellipse class="cls-8" cx="164.66" cy="95.63" rx="1.35" ry="2.14" transform="translate(-19.44 46.99) rotate(-15.35)"/><path d="M163.9,95.65c.23,0,.36-.39.31-.81a1.08,1.08,0,0,0-.23-.54.72.72,0,0,1,.29-.17c.58-.16,1.25.45,1.51,1.37s0,1.79-.6,2-1.25-.45-1.5-1.37a2.76,2.76,0,0,1-.1-.62A.39.39,0,0,0,163.9,95.65Z"/><path d="M159.16,95.65c-.23,0-.36-.39-.31-.81a1,1,0,0,1,.23-.54.72.72,0,0,0-.29-.17c-.58-.16-1.26.45-1.51,1.37s0,1.79.6,2,1.25-.45,1.5-1.37a2.27,2.27,0,0,0,.09-.62A.36.36,0,0,1,159.16,95.65Z"/><ellipse class="cls-9" cx="160.49" cy="91.39" rx="0.69" ry="0.33"/><ellipse class="cls-9" cx="161.98" cy="91.92" rx="0.39" ry="0.19"/><ellipse class="cls-9" cx="161.83" cy="90.78" rx="0.83" ry="0.4"/><path class="cls-10" d="M158,99.27a3.34,3.34,0,0,0,3.56,3.19,3.81,3.81,0,0,0,3.84-3.36Z"/><path class="cls-2" d="M158.54,98.9a7.52,7.52,0,0,0,6.3,0s-.39,2.19-3.33,2.19S158.54,98.9,158.54,98.9Z"/><g class="cls-11"><ellipse class="cls-12" cx="161.66" cy="102.43" rx="3.14" ry="2.59"/></g><path class="cls-13" d="M165.87,99.58a.28.28,0,0,0,0-.09c-.16-1.18-2.16-2.84-4-2.84l-.24,0-.25,0c-1.83,0-3.83,1.66-4,2.84a.14.14,0,0,0,0,.09,1,1,0,0,0,0,.34,1.22,1.22,0,0,0,1.44.31,1.7,1.7,0,0,0,.42-.16,5.13,5.13,0,0,1,1.24-.41,5.61,5.61,0,0,1,2.21,0,5.33,5.33,0,0,1,1.25.41,1.45,1.45,0,0,0,.42.16,1.2,1.2,0,0,0,1.43-.31A1,1,0,0,0,165.87,99.58Z"/><ellipse class="cls-14" cx="159.8" cy="97.55" rx="0.6" ry="0.21" transform="matrix(0.83, -0.56, 0.56, 0.83, -27.19, 106.72)"/><ellipse class="cls-14" cx="163.45" cy="97.55" rx="0.21" ry="0.6" transform="translate(-9.12 177.87) rotate(-55.79)"/><path class="cls-1" d="M169.06,116.8c0,4-3.37,5.48-7.53,5.48S154,120.84,154,116.8s3.37-9.78,7.53-9.78S169.06,112.76,169.06,116.8Z"/><g class="cls-15"><path class="cls-16" d="M152.92,117.13s2.85,3.75,5.74,4.1c0,0,0-.35,1.65,0,0,0,4.18-.71,3.49-.09,0,0,5.32-.94,5.6-4.9h1.33v7.8H153.34Z"/></g><g class="cls-17"><path class="cls-18" d="M158.29,113.24a.64.64,0,0,0-.19.92.85.85,0,0,0,1,.19l-.15,0a1.64,1.64,0,0,0,2.48.29h-.16a1.84,1.84,0,0,0,1.42.33c.41-.05.9-.19,1-.65l-.17.07a.93.93,0,0,0,1.24-.34.92.92,0,0,0-.41-1.21c-.13-.07-.25.13-.12.19a.69.69,0,0,1,.33.91.68.68,0,0,1-.92.25.12.12,0,0,0-.17.07c-.09.39-.58.47-.92.5a1.62,1.62,0,0,1-1.13-.28.12.12,0,0,0-.16,0,1.42,1.42,0,0,1-2.13-.25.12.12,0,0,0-.15,0,.62.62,0,0,1-.69-.07.42.42,0,0,1,.06-.65c.12-.07,0-.27-.11-.19Z"/></g></svg>