<svg xmlns="http://www.w3.org/2000/svg" xmlns:xlink="http://www.w3.org/1999/xlink" viewBox="0 0 260 168"><defs><style>.cls-1,.cls-13{fill:none;}.cls-2{fill:#ffde52;}.cls-3{fill:#ffca55;}.cls-4{fill:#eae4e7;}.cls-5{fill:#f7f7f7;}.cls-6{clip-path:url(#clip-path);}.cls-7{fill:#e5e4df;}.cls-8{fill:#c92d2d;}.cls-9{fill:#fff;}.cls-10{fill:#e5e3e4;}.cls-11{fill:#efb54d;}.cls-12{fill:#f2d24c;}.cls-13{stroke:#e5e4df;stroke-linecap:round;stroke-linejoin:round;stroke-width:0.49px;}</style><clipPath id="clip-path"><path class="cls-1" d="M118.75,100.94c-6.46-9.43-9.09-30.29-9.09-30.29l-5.75-3.24,0-.07h0l0,.07-3.44,6.23S108,92.88,107,104.75c0,0,2.53,4.31,7.06,2.9l0,0C118.64,106.09,118.75,100.94,118.75,100.94Z"/></clipPath></defs><g id="Layer_3" data-name="Layer 3"><g id="Layer_3-2" data-name="Layer 3"><path class="cls-2" d="M109.72,126.8l-1.85,7.14s-8.1,2.1-7.42,2.18a19.21,19.21,0,0,0,5.79-.77s-6.46,2.22-6.65,2.77,7.3-1.13,7.3-1.13-4.79,3.21-4.88,3.59,5.2-1.63,5.84-2,3.54-1.37,4.32-2.26c.52-.56.52-2.36-1.83-2.66L112.6,127A2.59,2.59,0,0,0,109.72,126.8Z"/><path class="cls-3" d="M102.54,140a5.25,5.25,0,0,0-2.06-1.85,17.28,17.28,0,0,1,5.16-1.64,8.27,8.27,0,0,1,1.22-.12s.49,0,.32.28S106.71,137.38,102.54,140Z"/><path class="cls-3" d="M100.31,137.63l.53-1.49s3.23-1.1,5-.76c0,0,.7,0-1.23.62A27.55,27.55,0,0,0,100.31,137.63Z"/><ellipse class="cls-4" cx="111.51" cy="117.11" rx="11.17" ry="5.98" transform="translate(-11.5 222.08) rotate(-86.88)"/><path class="cls-5" d="M118.75,100.94c-6.46-9.43-9.09-30.29-9.09-30.29l-5.75-3.24,0-.07h0l0,.07-3.44,6.23S108,92.88,107,104.75c0,0,2.53,4.31,7.06,2.9l0,0C118.64,106.09,118.75,100.94,118.75,100.94Z"/><g class="cls-6"><ellipse class="cls-7" cx="103.34" cy="75.77" rx="10.19" ry="7.74" transform="translate(10.84 164.46) rotate(-80.04)"/></g><path class="cls-5" d="M118.77,75.27c-1,7.21-7,7.55-14.24,6.53s-12.78-3-11.87-10.2S101,54.67,108.21,55.73,119.74,68.05,118.77,75.27Z"/><path class="cls-8" d="M106,69.88c-.75-6.13-2.51-6.43-2.51-6.43a1.7,1.7,0,0,0-1.94-1.31l-.11,0a2.43,2.43,0,0,0-3.26-.29,2.82,2.82,0,0,0-2.39.13,8.83,8.83,0,0,0-3.3,3.53c-.75,1.54-.33,3,.22,4.49a1,1,0,0,1-.56,1.29,1.22,1.22,0,0,0-.68.62,1.73,1.73,0,0,0,1.81.24,2.26,2.26,0,0,0,2.42.38,4.52,4.52,0,0,0,2.58,3.25c1.7,2.9,4,1.44,4,1.44C103.64,77.7,106.77,76,106,69.88Z"/><ellipse class="cls-9" cx="101.21" cy="69.59" rx="3.63" ry="5.74" transform="translate(-8.06 13.49) rotate(-7.33)"/><path d="M100,69.45c.59.06,1.17-.75,1.29-1.86a2.88,2.88,0,0,0-.18-1.59,1.85,1.85,0,0,1,.86-.24c1.62,0,3,2,3,4.58S103.77,75,102.11,75s-3-2-3-4.59a7.06,7.06,0,0,1,.17-1.65A.92.92,0,0,0,100,69.45Z"/><ellipse class="cls-10" cx="104.98" cy="58.64" rx="0.89" ry="1.84" transform="translate(32.27 154.41) rotate(-81.98)"/><ellipse class="cls-10" cx="108.75" cy="60.58" rx="0.51" ry="1.05" transform="translate(33.59 159.82) rotate(-81.98)"/><ellipse class="cls-10" cx="108.77" cy="57.52" rx="1.08" ry="2.24" transform="translate(36.65 157.2) rotate(-81.98)"/><path class="cls-11" d="M83.54,77.26s6.53,7.9,14.23,4.4-8.91-8.94-8.91-8.94Z"/><path class="cls-12" d="M95.71,72.55c-.14,0-26.36-6.51-15.84,2.51s19.25,5.69,20,5.27S101.42,76.27,95.71,72.55Z"/><ellipse class="cls-11" cx="94.97" cy="74.36" rx="0.68" ry="1.88" transform="translate(-25.56 69.82) rotate(-35.9)"/><path class="cls-5" d="M104.25,92.86c7.34-2.64,16.64,5.78,20,15s-.58,15.75-7.93,18.37-13.23-1.88-16.56-11.1S96.92,95.51,104.25,92.86Z"/><path class="cls-5" d="M97.1,106.76a6.09,6.09,0,0,0,.68,3.55.67.67,0,0,0,.19.22.41.41,0,0,0,.51-.21,1.33,1.33,0,0,0,.16-.58,2.84,2.84,0,0,0,.55,1.3c.28.35.8.64,1.16.38a1.1,1.1,0,0,0,.29-.42,5.21,5.21,0,0,0,.34-1.4,3.21,3.21,0,0,0,.84.62,1,1,0,0,0,1-.06,1.16,1.16,0,0,0,.33-.43,3.62,3.62,0,0,0,.25-2.88,1.16,1.16,0,0,0,.75.76.26.26,0,0,0,.21,0c.09,0,.11-.16.13-.26a6.16,6.16,0,0,0-.27-2,24.18,24.18,0,0,0-1.1-3.54,3.61,3.61,0,0,0-.81-1.39,1.43,1.43,0,0,0-1.48-.27,6.26,6.26,0,0,0-.66.49c-.32.23-.73.31-1.06.57a2.89,2.89,0,0,0-1.3,2.23A25.15,25.15,0,0,0,97.1,106.76Z"/><path class="cls-13" d="M99,110.59a1.46,1.46,0,0,0,2-.62l0-.06a1.34,1.34,0,0,0,.07-.18,1.45,1.45,0,0,0,2-.39,1.46,1.46,0,0,0,.1-1.43,1.5,1.5,0,0,0,1.67-.54,1.47,1.47,0,0,0-.09-1.75,1.82,1.82,0,0,0,1.69-1.91,5.3,5.3,0,0,0-1-2.58"/><path class="cls-2" d="M121.64,126.86l1.21,7.29s-6.55,5.21-5.92,5a20,20,0,0,0,5-3.06s-5,4.65-5,5.23,6.21-4,6.21-4-3.09,4.88-3,5.27,4.09-3.6,4.51-4.22,2.68-2.7,3-3.84c.24-.72-.49-2.36-2.76-1.67l-.59-7A2.61,2.61,0,0,0,121.64,126.86Z"/><path class="cls-3" d="M120.41,141.89a5.2,5.2,0,0,0-2.64-.91,17.64,17.64,0,0,1,4.06-3.6,6.1,6.1,0,0,1,1.06-.59s.46-.19.4.11S123.2,137.75,120.41,141.89Z"/><path class="cls-3" d="M117.43,140.58l-.11-1.57s2.51-2.38,4.21-2.71c0,0,.63-.26-.87,1.08A32.52,32.52,0,0,0,117.43,140.58Z"/><ellipse class="cls-5" cx="120.42" cy="118.07" rx="5.97" ry="11.15" transform="translate(-14.35 16.68) rotate(-7.48)"/><path class="cls-5" d="M106.55,113.2c-.76-.91-1.62-18.11,14.24-21.15s23.62-5.73,23.62-5.73,3.31.61-.95,5.94c0,0,2.27,5.9-2.84,8.15,0,0-.65,8.82-9.61,8.14,0,0-1.92,9.42-9.46,6.49C121.52,115.06,114.55,123.09,106.55,113.2Z"/></g></g></svg>