<svg xmlns="http://www.w3.org/2000/svg" viewBox="0 0 96.45 242.24">
  <defs>
    <style>
      .cls-1 {
        fill: #774f31;
      }

      .cls-2 {
        fill: #83512b;
      }

      .cls-3 {
        fill: #050505;
      }

      .cls-4 {
        fill: #572b2c;
      }

      .cls-5 {
        fill: #1f5680;
      }

      .cls-6 {
        fill: #8a5126;
      }

      .cls-7 {
        fill: #6a3e1e;
      }

      .cls-8 {
        fill: #fff;
      }

      .cls-9 {
        fill: #4e2a21;
      }

      .cls-10 {
        fill: #5f0a0f;
      }
    </style>
  </defs>
  <title>p17</title>
  <g id="character">
    <g>
      <path class="cls-1" d="M45,56.42s.24,9.5-.7,12l-1.54,5.9,6,10.48h5.13l4.7-10s-2.41-4.26-2.84-17.58Z"/>
      <path class="cls-2" d="M54.25.36S44.82,1,39.42,25.2c0,0-2.53,9-2,14.81,0,0,2.18,13.92,8,20,0,0,5.09,5.87,10.87,1.48,0,0,10.57-9,12.41-21.26,0,0,5.93-28.65-6.89-38.77A9.87,9.87,0,0,0,54.25.36Z"/>
      <path class="cls-1" d="M70.64,223.21s1.92,8,4.91,11c0,0,1.19,2.86.37,4.42a13.6,13.6,0,0,1-8.31,3.27s-8.32,1-7.5-6.79c0,0,1.35-8.81,1.19-9.67l6.83-3.76L70.72,223"/>
      <path class="cls-3" d="M67.32,239.84a13.59,13.59,0,0,0,8.31-3.28,2.75,2.75,0,0,0,.28-1.23,5,5,0,0,1,0,3.32,13.65,13.65,0,0,1-8.32,3.27s-7.56.93-7.54-5.78C61.45,240.56,67.32,239.84,67.32,239.84Z"/>
      <path class="cls-3" d="M73.09,229.93s-7-4.34-12.61.57l-.74,4.3.32.16s7.75-3.6,15.33-.86Z"/>
      <path class="cls-4" d="M58.74,177.84s-3.28,33.09-2.3,50.12c0,0,3.66,1.91,9.15-2,0,0,5.57-1.88,8.35-.9,0,0-3.52-29.62-2.32-44,0,0-.87-5.38-2.73-5.31h-4.6Z"/>
      <path class="cls-4" d="M70.63,172.41a10.34,10.34,0,0,1-1.23,8.43s-6.88,3.85-10.81,0a12.35,12.35,0,0,1-.33-8.43s4.5-5.32,12.37,0"/>
      <path class="cls-4" d="M50.63,141.06l7.2,34.58s8.25,4.7,12.87-1.75L69,136.94l-12.14-3.68Z"/>
      <path class="cls-1" d="M35.77,223.48s-1.92,8-4.91,11c0,0-1.19,2.86-.37,4.42a13.59,13.59,0,0,0,8.31,3.28s8.31,1,7.5-6.8c0,0-1.36-8.81-1.19-9.67L38.28,222l-2.59,1.27"/>
      <path class="cls-3" d="M39.09,240.11a13.59,13.59,0,0,1-8.31-3.28,2.72,2.72,0,0,1-.28-1.23,5,5,0,0,0,0,3.32,13.63,13.63,0,0,0,8.32,3.28s7.56.92,7.54-5.78C45,240.83,39.09,240.11,39.09,240.11Z"/>
      <path class="cls-3" d="M33.32,230.2s7-4.34,12.61.57l.73,4.3-.31.16s-7.75-3.6-15.33-.86Z"/>
      <path class="cls-4" d="M46.88,177.84s3.28,33.09,2.3,50.12c0,0-3.66,1.91-9.15-2,0,0-5.57-1.88-8.35-.9,0,0,3.52-29.62,2.32-44,0,0,.87-5.38,2.73-5.31h4.6Z"/>
      <path class="cls-4" d="M35,171.81a10.31,10.31,0,0,0,1.22,8.43s6.88,3.85,10.81,0a12.35,12.35,0,0,0,.33-8.43s-4.5-5.32-12.36,0"/>
      <path class="cls-4" d="M53.54,138.81,48,173.69s-8,5.08-12.93-1.14v-37l12-4.25Z"/>
      <path class="cls-5" d="M44.47,68s-6.87,1.43-9.6,5c0,0-.87,12,0,16,0,0,2.51,42.8-3.16,54.6,0,0,4-2.19,11-.55a19.69,19.69,0,0,0,18.89-.44s6.55-1.64,9.28.33c0,0-6.33-38-6.22-53.83l.49-1.8.35-15S59.66,68.27,56.71,68C56.71,68,52.22,97.53,44.47,68Z"/>
      <path class="cls-6" d="M85.31,134.69a7.86,7.86,0,0,1-.91,3.77s-1.13,2.23.33,3.86a1,1,0,0,0,.92-.29,5.86,5.86,0,0,0,.57,2.37,7.64,7.64,0,0,0,7.65-1.73s2-1.73-2.36-9C91.51,133.67,88.83,132.3,85.31,134.69Z"/>
      <path class="cls-6" d="M85.65,142a11,11,0,0,1-3.2,2.08s-1.37-.07-.58-1.6c0,0,2-2.68,2.54-3.57C84.41,138.94,86.69,139.25,85.65,142Z"/>
      <path class="cls-6" d="M86,143.83s-.37,5,.62,7.1c0,0,1.13,1,1.32-1.72,0,0,.42-4.3,0-5.75C87.86,143.46,86.73,142.17,86,143.83Z"/>
      <path class="cls-6" d="M88.42,145s.46,5,1.79,6.9c0,0,1.27.77,1-1.91,0,0-.3-4.31-1-5.66A1.07,1.07,0,0,0,88.42,145Z"/>
      <path class="cls-6" d="M90.32,143.32s1.36,4.79,3,6.46c0,0,1.4.52.65-2.06,0,0-1.08-4.19-2-5.4C92,142.32,90.48,141.5,90.32,143.32Z"/>
      <path class="cls-6" d="M92.55,141s1.37,4.79,3,6.45c0,0,1.39.53.65-2.05,0,0-1.09-4.19-2-5.4C94.22,140,92.72,139.19,92.55,141Z"/>
      <path class="cls-6" d="M9.89,26.78a7.93,7.93,0,0,1,1.28-3.66s1.35-2.1.06-3.87a1,1,0,0,0-.94.19A5.88,5.88,0,0,0,10,17a7.66,7.66,0,0,0-7.79,1S0,19.5,3.62,27.18C3.62,27.18,6.15,28.81,9.89,26.78Z"/>
      <path class="cls-6" d="M10.29,19.44a11.09,11.09,0,0,1,3.4-1.74s1.35.21.41,1.65c0,0-2.25,2.47-2.89,3.3C11.21,22.65,9,22.11,10.29,19.44Z"/>
      <path class="cls-6" d="M10.17,17.63s.86-4.9.1-7.13c0,0-1-1.08-1.49,1.57,0,0-.85,4.24-.55,5.73A1.06,1.06,0,0,0,10.17,17.63Z"/>
      <path class="cls-6" d="M7.83,16.23s0-5-1.09-7c0,0-1.19-.9-1.2,1.79,0,0-.14,4.32.4,5.74A1.07,1.07,0,0,0,7.83,16.23Z"/>
      <path class="cls-6" d="M5.77,17.69S4.9,12.79,3.41,11c0,0-1.33-.67-.85,2,0,0,.66,4.27,1.45,5.57C4,18.52,5.43,19.49,5.77,17.69Z"/>
      <path class="cls-6" d="M3.32,19.76S2.44,14.86,1,13c0,0-1.34-.67-.85,2,0,0,.65,4.28,1.45,5.57C1.56,20.59,3,21.56,3.32,19.76Z"/>
      <path class="cls-5" d="M83.9,103.06S91.38,128.4,93.15,133c0,0-5.08,4.89-9.71,1.77,0,0-5.74-22.32-8.5-26.33C74.94,108.41,75.66,99.14,83.9,103.06Z"/>
      <path class="cls-5" d="M8.47,58.3s-4.88-26-6.19-30.69c0,0,5.55-4.36,9.84-.79,0,0,3.46,22.78,5.81,27.05C17.93,53.87,16.28,63,8.47,58.3Z"/>
      <path class="cls-5" d="M62.61,71.85s3.51-.57,9.74,12.08c0,0,8.25,14.5,10.14,15.89,0,0,2,9.4-8.06,7.21L63.13,88.49S56.58,79.8,62.61,71.85Z"/>
      <path class="cls-5" d="M41.9,81.35S39,83.35,28,74.49c0,0-13.59-9.69-15.89-10.16,0,0-5.81-7.66,4.28-9.92L34.43,66.47S44,71.6,41.9,81.35Z"/>
      <path class="cls-5" d="M12.54,52.22,17,53.57l2.24,4.75-1.05,4.75-3.6.72a5.59,5.59,0,0,1-1,.21h0a5.35,5.35,0,0,1-1,0A5.08,5.08,0,0,1,12,54Z"/>
      <path class="cls-5" d="M76.85,109.93l-3.49-3.11,0-5.25,3-3.87,3.56.86a5.14,5.14,0,0,1,1,.25h0a4.79,4.79,0,0,1,.89.42,5.08,5.08,0,0,1-3.67,9.33Z"/>
      <path class="cls-3" d="M45.53,8.29a12.06,12.06,0,0,1,4-3.28,2,2,0,0,1,2.43.33,6.83,6.83,0,0,0,5.48,2.87,6.51,6.51,0,0,0,4.32-1.62S63,5.42,65,7.28a28.17,28.17,0,0,1,3.28,4.44S66,1.31,57.8.1C57.8.1,50.77-1.54,45.53,8.29Z"/>
      <path class="cls-2" d="M39.3,24.91s-2.47-4.14-5.86-2.29c0,0-2.86,1.54-2.12,7.43,0,0,.6,6.14,6.19,8C37.51,38,43,33.9,39.3,24.91Z"/>
      <path class="cls-7" d="M33.37,26.8A5.84,5.84,0,0,1,38,29s2.47,1.86,1.65,4.56c0,0-.68,1-1.42,1,0,0-.65.82.74-1.8,0,0,.5-2.42-1.25-2.65,0,0-3.21,1.13-4.66.89,0,0-.33-.32.77-.53,0,0,2.7-.69,3.1-1.18,0,0,.18-.47-.52-.73A24.58,24.58,0,0,0,33,27.34S32.74,26.78,33.37,26.8Z"/>
      <path class="cls-2" d="M70.3,28.6s3.49-3.33,6.26-.64c0,0,2.34,2.25,0,7.72,0,0-2.22,5.76-8.09,6C68.52,41.69,64.3,36.26,70.3,28.6Z"/>
      <path class="cls-7" d="M75.51,32a5.84,5.84,0,0,0-5,.86s-2.88,1.13-2.81,4c0,0,.38,1.13,1.1,1.31,0,0,.41,1-.23-1.93,0,0,.17-2.46,1.91-2.22,0,0,2.79,2,4.26,2.11,0,0,.4-.22-.61-.71,0,0-2.41-1.4-2.66-2,0,0-.06-.5.7-.56a22.74,22.74,0,0,1,3.54-.22S76.12,32.16,75.51,32Z"/>
      <path class="cls-7" d="M47.65,36.86a4.41,4.41,0,0,0-2.38,1.23,1.88,1.88,0,0,0-.43,1.11,3,3,0,0,0,.2,1.21v0a2.38,2.38,0,0,0,.77.69,3.36,3.36,0,0,0,1.09.38,5.86,5.86,0,0,0,1.19.13,10.16,10.16,0,0,0,1.23-.08l.28,0,.25.24a6.4,6.4,0,0,0,1.53,1.09,5.31,5.31,0,0,0,1.8.56A4.92,4.92,0,0,0,55,43.25a7.76,7.76,0,0,0,1.8-.69l.34-.17.29.18a4.93,4.93,0,0,0,2.08.78,2.28,2.28,0,0,0,1.94-.63l.36-.41a1.73,1.73,0,0,0,.2-.48,2.12,2.12,0,0,0,0-1.12,4.36,4.36,0,0,0-1.28-2.05,4.09,4.09,0,0,1,1.72,1.92A2.78,2.78,0,0,1,62.7,42a2.36,2.36,0,0,1-.22.7,6.9,6.9,0,0,1-.39.6,3.14,3.14,0,0,1-2.61,1.13,5.7,5.7,0,0,1-2.66-.81h.62a7.06,7.06,0,0,1-2.11.89,6.09,6.09,0,0,1-2.33.15,6.35,6.35,0,0,1-2.22-.71,7,7,0,0,1-1.86-1.41l.52.2a10.88,10.88,0,0,1-1.4,0,6.37,6.37,0,0,1-1.42-.23,4.37,4.37,0,0,1-1.34-.61,3,3,0,0,1-1.05-1.18v0a3.6,3.6,0,0,1-.08-1.57,2.27,2.27,0,0,1,.78-1.37A4.2,4.2,0,0,1,47.65,36.86Z"/>
      <path class="cls-8" d="M50.25,23.62s-7.74.64-8,7.05c0,0,.65,3.73,5.13,3.26,0,0,5.51-.36,5.28-7.75C52.67,26.18,52.52,23.44,50.25,23.62Z"/>
      <circle class="cls-9" cx="48.17" cy="29.67" r="2.71"/>
      <circle class="cls-3" cx="48.17" cy="29.67" r="1.79"/>
      <circle class="cls-8" cx="46.95" cy="29.14" r="0.76"/>
      <path class="cls-8" d="M61.21,25.12s7.28,2.69,5.81,8.93c0,0-1.62,3.42-5.82,1.77,0,0-5.21-1.83-3-8.88C58.2,26.94,59.07,24.33,61.21,25.12Z"/>
      <circle class="cls-9" cx="61.59" cy="31.5" r="2.71"/>
      <circle class="cls-3" cx="61.59" cy="31.5" r="1.79"/>
      <circle class="cls-8" cx="60.25" cy="30.96" r="0.76"/>
      <path class="cls-3" d="M51.16,18.17s-4.15,1.62-5.47,4c0,0-.87,1.52-1.85,1.08a1.8,1.8,0,0,1-.12-2.71s3.74-3.17,7.28-3.06C51,17.52,51.88,17.85,51.16,18.17Z"/>
      <path class="cls-3" d="M61.31,19.42s3.56,2.68,4.18,5.37c0,0,.43,1.69,1.49,1.53a1.8,1.8,0,0,0,.85-2.58s-2.76-4-6.19-4.89C61.64,18.85,60.69,18.92,61.31,19.42Z"/>
      <path class="cls-7" d="M52.17,47.18A5.85,5.85,0,0,0,49,47.1a6.88,6.88,0,0,0-2.82,1.11,7.49,7.49,0,0,1-2.45,1A9,9,0,0,1,45.85,52s1.39,3.14,2.71,3.48c0,0,5,1.29,6.95.61,0,0,2.49-.43,2.78-2.5s0-.07,0-.07,1.93-2.49,2.56-2.58a38.8,38.8,0,0,1-3.4-2.15s-1.83-1.41-2.89-1.43a4,4,0,0,0-1.25.16l-.35,0Z"/>
      <path class="cls-10" d="M44.56,49.38s3.38-.15,4-.12a7.17,7.17,0,0,0,1.56.22A10.89,10.89,0,0,0,54,50a14.17,14.17,0,0,0,2.08.11,22,22,0,0,1,3.1.84,23.73,23.73,0,0,0-3.36,2.21s-.84.81-3.94.34A13.2,13.2,0,0,1,48,52.44a2.67,2.67,0,0,1-1-1.27A4.22,4.22,0,0,0,44.56,49.38Z"/>
      <path class="cls-8" d="M46.11,49.38a23.65,23.65,0,0,0,12.48,1.37A25.5,25.5,0,0,0,56,50.11,9.12,9.12,0,0,1,54,50a11.67,11.67,0,0,1-3.82-.52,3.84,3.84,0,0,1-1.56-.22Z"/>
      <path class="cls-8" d="M47.09,51.32a23.59,23.59,0,0,0,9.39,1.18h.13a5.16,5.16,0,0,0-.8.62s-.9.85-3.66.43A14.31,14.31,0,0,1,48,52.48S47.05,51.75,47.09,51.32Z"/>
    </g>
  </g>
</svg>
