<svg id="Layer_1" data-name="Layer 1" xmlns="http://www.w3.org/2000/svg" xmlns:xlink="http://www.w3.org/1999/xlink" viewBox="0 0 260 168"><defs><style>.cls-1{fill:#602e15;}.cls-2{fill:#d1b36f;}.cls-3{fill:#ffe2a9;}.cls-4{fill:#6b3618;}.cls-5{clip-path:url(#clip-path);}.cls-6{fill:#843f00;}.cls-7{fill:#66321b;}.cls-8{fill:#5b2a09;}.cls-9{fill:#6b340e;}.cls-10{clip-path:url(#clip-path-2);}.cls-11{fill:#c69a42;}.cls-12{clip-path:url(#clip-path-3);}.cls-13{fill:#d8a750;}.cls-14{fill:#c6a563;opacity:0.59;}.cls-15{fill:#f2c691;}.cls-16{fill:#3a1407;}.cls-17{fill:#8c461f;}.cls-18{clip-path:url(#clip-path-4);}.cls-19{fill:#5b2a11;}.cls-20{clip-path:url(#clip-path-5);}.cls-21,.cls-22{fill:#8c4522;}.cls-22{opacity:0.41;}.cls-23,.cls-25{fill:#7c3c1c;}.cls-23{opacity:0.34;}.cls-24{fill:#aa5930;}.cls-26{fill:#894121;}.cls-27,.cls-28{fill:none;stroke:#000;stroke-linecap:round;stroke-linejoin:round;}.cls-27{stroke-width:0.14px;}.cls-28{stroke-width:0.11px;}.cls-29{fill:#af7014;}</style><clipPath id="clip-path"><path class="cls-1" d="M146.57,146.36l1.62,9.94s1.92,1,3.26-.19l-.55-10.76Z"/></clipPath><clipPath id="clip-path-2"><path class="cls-2" d="M154.86,148.7l2.76-22.31c-9.45-1.2-13.87,1-15.26,1.88l-.05,0a3.58,3.58,0,0,0-.46.34h0a10.81,10.81,0,0,0-3,6.68c-.49,3.86.6,7.29,2.51,8.41v0C146.72,147.64,154.86,148.7,154.86,148.7Z"/></clipPath><clipPath id="clip-path-3"><path class="cls-3" d="M139.3,131.27s1.92-3.19,7-3.7a43.13,43.13,0,0,1,10.06.32l2.84-3.68L141.3,123l-3.56,6.57Z"/></clipPath><clipPath id="clip-path-4"><path class="cls-4" d="M146.94,126.5a1.23,1.23,0,0,0,.21.87c.18.18.65.09,1.07.12a3.83,3.83,0,0,0,2.3-.4c.27-.23.12-.65.18-1A15.73,15.73,0,0,0,146.94,126.5Z"/></clipPath><clipPath id="clip-path-5"><path class="cls-4" d="M154.21,65.57c-.52-.29-.85-.17-.81-.76a61.11,61.11,0,0,0,.17-9c-.37-3.17-1.47-9.09,2.29-9.87s6.28.38,6.17,4-.13,5.85-1.5,6.21A28,28,0,0,0,157.61,66S156.65,66.87,154.21,65.57Z"/></clipPath></defs><path d="M158.61,85.93a.19.19,0,0,1,.1,0s0,.05.06.07a.47.47,0,0,1,0,.1v0s0,0-.06,0l-.39-.07a.38.38,0,0,1-.1,0,.27.27,0,0,1-.08-.07.07.07,0,0,1,0-.05C158.12,85.83,158.54,85.92,158.61,85.93Z"/><path d="M160,81.64a.58.58,0,0,1,.26,0,.33.33,0,0,1,.15.11.07.07,0,0,0,.09,0,.08.08,0,0,0,0-.1.59.59,0,0,0-.53-.21.07.07,0,0,0-.07.07.08.08,0,0,0,.07.07Z"/><path d="M162,76.15a1,1,0,0,1,.68.16.07.07,0,0,0,.1,0s0-.07,0-.09A1.09,1.09,0,0,0,162,76c-.09,0-.09.14,0,.13Z"/><path d="M164.28,70.56a.64.64,0,0,1,.62.25c0,.08.17,0,.12-.06a.63.63,0,0,0-.3-.26,1,1,0,0,0-.44-.07s-.07,0-.07.07a.08.08,0,0,0,.07.07Z"/><path class="cls-1" d="M146.57,146.36l1.62,9.94s1.92,1,3.26-.19l-.55-10.76Z"/><g class="cls-5"><path class="cls-4" d="M148.13,141.64s.11,12.38,2.76,19l5.29-1L151.82,140Z"/></g><path class="cls-6" d="M152.83,85.94l-4.27-.28a.5.5,0,0,0-.37.12,1.29,1.29,0,0,0-.45.79c-.11.62.64.88,4.54,1.44a.52.52,0,0,0,.56-.31l.44-1A.53.53,0,0,0,152.83,85.94Z"/><path class="cls-6" d="M153.44,81.17l-4.27-.28a.58.58,0,0,0-.38.12,1.38,1.38,0,0,0-.45.79c-.1.62.64.89,4.54,1.45a.54.54,0,0,0,.56-.31l.44-1A.53.53,0,0,0,153.44,81.17Z"/><path class="cls-6" d="M152.84,75.79l-4.28-.1a.54.54,0,0,0-.36.14,1.29,1.29,0,0,0-.42.8c-.08.63.68.86,4.6,1.26a.53.53,0,0,0,.54-.34l.4-1A.52.52,0,0,0,152.84,75.79Z"/><path class="cls-6" d="M153.81,70.26l-4.8-.12a.57.57,0,0,0-.41.16,1.42,1.42,0,0,0-.47.9c-.09.71.76,1,5.16,1.41a.58.58,0,0,0,.61-.38l.45-1.17A.59.59,0,0,0,153.81,70.26Z"/><path class="cls-7" d="M152.21,66.27a14.5,14.5,0,0,1,3.92,0c1.28.35,2.29.39,2.21,1l-3.48.37Z"/><path class="cls-1" d="M153.92,66.77l-1.71-.5s-6.54,44.63-5.09,64l2.38.81,4.59-56.31Z"/><path class="cls-4" d="M149.89,134.56s4.79-51.76,8.45-67.26A13.93,13.93,0,0,0,155.5,67l-1.58-.26s-6.21,51.69-5.87,69.06Z"/><ellipse class="cls-8" cx="140.73" cy="135.58" rx="7.9" ry="4.44" transform="translate(-11.47 258.14) rotate(-82.78)"/><ellipse class="cls-9" cx="141.48" cy="135.67" rx="7.9" ry="4.44" transform="translate(-10.91 258.97) rotate(-82.78)"/><ellipse class="cls-9" cx="141.58" cy="135.69" rx="6.91" ry="3.88" transform="translate(-10.83 259.08) rotate(-82.78)"/><path class="cls-2" d="M154.86,148.7l2.76-22.31c-9.45-1.2-13.87,1-15.26,1.88l-.05,0a3.58,3.58,0,0,0-.46.34h0a10.81,10.81,0,0,0-3,6.68c-.49,3.86.6,7.29,2.51,8.41v0C146.72,147.64,154.86,148.7,154.86,148.7Z"/><g class="cls-10"><path class="cls-11" d="M162.45,126.72s-13.52-6.77-15.59,9.54,14,18.63,14,18.63Z"/><path class="cls-3" d="M139.3,131.27s1.92-3.19,7-3.7a43.13,43.13,0,0,1,10.06.32l2.84-3.68L141.3,123l-3.56,6.57Z"/><g class="cls-12"><path class="cls-13" d="M165.82,126.2s-12.34-2.66-15.35,1.37l11.4,1.45,1.85-2.63Z"/></g><path class="cls-14" d="M136.17,138.43s4.41,6.27,17.9,8l-.65,4.61-17.17-2.24Z"/></g><ellipse class="cls-15" cx="156.33" cy="137.56" rx="11.24" ry="6.31" transform="matrix(0.13, -0.99, 0.99, 0.13, 0.2, 275.35)"/><ellipse class="cls-16" cx="148.81" cy="126.82" rx="2.38" ry="0.65" transform="translate(-10.86 13.98) rotate(-5.19)"/><ellipse class="cls-17" cx="146.45" cy="130.28" rx="1.09" ry="0.43" transform="translate(-38.26 195.89) rotate(-61.21)"/><ellipse class="cls-16" cx="146.63" cy="130.38" rx="1.09" ry="0.43" transform="translate(-38.25 196.1) rotate(-61.21)"/><ellipse class="cls-17" cx="145.14" cy="135.42" rx="1.09" ry="0.43" transform="translate(-2.93 267.62) rotate(-84.77)"/><ellipse class="cls-16" cx="145.34" cy="135.43" rx="1.09" ry="0.43" transform="matrix(0.09, -1, 1, 0.09, -2.76, 267.84)"/><ellipse class="cls-17" cx="145.1" cy="140.94" rx="0.43" ry="1.09" transform="translate(-21.98 26.91) rotate(-9.85)"/><ellipse class="cls-16" cx="145.3" cy="140.9" rx="0.43" ry="1.09" transform="translate(-21.97 26.95) rotate(-9.85)"/><path class="cls-4" d="M146.94,126.5a1.23,1.23,0,0,0,.21.87c.18.18.65.09,1.07.12a3.83,3.83,0,0,0,2.3-.4c.27-.23.12-.65.18-1A15.73,15.73,0,0,0,146.94,126.5Z"/><g class="cls-18"><polygon class="cls-1" points="148.35 124.83 148.18 128.87 146.45 128.27 146.83 124.92 148.35 124.83"/></g><ellipse class="cls-19" cx="155.34" cy="66.57" rx="0.44" ry="2.62" transform="translate(69.77 212.31) rotate(-82.78)"/><path class="cls-19" d="M152.84,65.43l-.1.81,5.2.66.1-.81Z"/><ellipse class="cls-4" cx="155.44" cy="65.76" rx="0.44" ry="2.62" transform="translate(70.66 211.7) rotate(-82.78)"/><path class="cls-4" d="M154.21,65.57c-.52-.29-.85-.17-.81-.76a61.11,61.11,0,0,0,.17-9c-.37-3.17-1.47-9.09,2.29-9.87s6.28.38,6.17,4-.13,5.85-1.5,6.21A28,28,0,0,0,157.61,66S156.65,66.87,154.21,65.57Z"/><g class="cls-20"><path class="cls-1" d="M154.85,67.59s1.55-6.83.74-10.55-2.23-4.44-1.48-8.57,4.17-3.77,4.17-3.77l-7.86-.47-2,17.94Z"/><path class="cls-1" d="M162.59,53.88s-.48,2.23-2.06,2.24a6.26,6.26,0,0,1-3.33-.5c-.84-.49-1.61-2.21-1.87-4a9.89,9.89,0,0,1-.07-2.72s-.95,2.1.46,6.17,2.66,4.74,4.2,3A20.35,20.35,0,0,0,162.59,53.88Z"/></g><path class="cls-21" d="M157.38,46.65a3.39,3.39,0,0,0-1.45,2.45,9.89,9.89,0,0,0,.15,2.92,5.33,5.33,0,0,0,.43,1.68,2.93,2.93,0,0,0,3.65,1.35,1.82,1.82,0,0,0,.61-.41,2.65,2.65,0,0,0,.55-1.6,25.5,25.5,0,0,0,.09-3c0-1-.15-2.46-1-3.15A3,3,0,0,0,157.38,46.65Z"/><ellipse class="cls-22" cx="155.72" cy="71.81" rx="2.98" ry="0.95" transform="matrix(0.13, -0.99, 0.99, 0.13, 64.89, 217.26)"/><ellipse class="cls-22" cx="155.31" cy="76.57" rx="1.01" ry="0.42" transform="matrix(0.13, -0.99, 0.99, 0.13, 59.81, 221.02)"/><path class="cls-23" d="M154,130.44s0,1.75.39,1.93,4.79-2.18,4.79-2.18Z"/><polygon class="cls-24" points="154.04 129.18 158.37 127.79 161.34 127.95 157.24 129.61 154.04 129.18"/><path class="cls-25" d="M154,129.18s-.27,1.27,0,1.63,3.24.77,3.24.77l0-2Z"/><path class="cls-26" d="M161.34,128s0,1.35-.11,1.67a12.27,12.27,0,0,1-4,1.95l0-2Z"/><ellipse class="cls-6" cx="156.16" cy="71.69" rx="1.53" ry="1.3" transform="matrix(0.1, -0.99, 0.99, 0.1, 68.94, 219.74)"/><path class="cls-6" d="M156.31,70.17s3.81,0,8.66.45l-.19,3.62-8.78-1Z"/><ellipse class="cls-6" cx="155.99" cy="76.94" rx="1.29" ry="1.23" transform="matrix(0.13, -0.99, 0.99, 0.13, 60.04, 222.02)"/><path class="cls-6" d="M163,77.54c.06-.46-.47-1-.25-1.4-2.58-.21-6.6-.48-6.6-.48l-.32,2.56,6.78,1C162.43,78.64,162.92,78.09,163,77.54Z"/><ellipse class="cls-6" cx="154.88" cy="82.3" rx="1.23" ry="0.8" transform="translate(47.72 221.15) rotate(-80.33)"/><path class="cls-6" d="M155.08,81.1a46.34,46.34,0,0,1,5.41.55l-.43,2.88-5.39-1Z"/><ellipse class="cls-6" cx="154.59" cy="87.07" rx="1.26" ry="1.12" transform="translate(18.58 201) rotate(-69.34)"/><path class="cls-6" d="M158,87.91a8.26,8.26,0,0,0,.17-1.11c0-.23.63-.5.67-.73-2-.2-4-.23-4-.23l-.49,2.45,3.91.72C158.34,88.7,157.91,88.23,158,87.91Z"/><path class="cls-27" d="M165.36,71.54s-5.63,70.14-6.91,75.93"/><path class="cls-27" d="M163.25,76.79s-3.87,65.16-5.14,70.94"/><path class="cls-27" d="M160.81,82.17s-.94,56.33-3.11,65.85"/><path class="cls-27" d="M159,86.27s-.27,56.14-1.54,61.92"/><path class="cls-27" d="M164.47,70.49a1.87,1.87,0,0,0-1.13,2c.06,1.66,1,1.69,1,1.69"/><path class="cls-27" d="M164.27,70.48a1.87,1.87,0,0,0-1.13,2c.06,1.66,1,1.69,1,1.69"/><path class="cls-28" d="M162.18,76.07a1.55,1.55,0,0,0-.91,1.65c0,1.35.8,1.38.8,1.38"/><path class="cls-28" d="M162,76.08a1.51,1.51,0,0,0-.91,1.64c0,1.34.8,1.37.8,1.37"/><ellipse class="cls-29" cx="164.72" cy="72.42" rx="1.82" ry="1.13" transform="translate(75.91 228.91) rotate(-84.16)"/><ellipse class="cls-29" cx="162.52" cy="77.63" rx="1.54" ry="1.17" transform="translate(65.06 229.1) rotate(-82.78)"/><path class="cls-28" d="M160.06,81.55s-.78.2-.95,1.54.83,1.43.83,1.43"/><path class="cls-28" d="M160,81.54s-.79.17-1,1.5.77,1.46.77,1.46"/><ellipse class="cls-29" cx="160.18" cy="83.08" rx="1.46" ry="0.84" transform="translate(51.37 227.03) rotate(-80.33)"/><path class="cls-27" d="M158.42,86a1.72,1.72,0,0,0-1,1.55c-.1,1.21.67,1.45.67,1.45"/><path class="cls-27" d="M158.2,86a1.74,1.74,0,0,0-1,1.55c-.09,1.22.67,1.45.67,1.45"/><ellipse class="cls-29" cx="158.5" cy="87.53" rx="1.5" ry="0.81" transform="translate(38.14 222.8) rotate(-77.25)"/></svg>