<svg xmlns="http://www.w3.org/2000/svg" xmlns:xlink="http://www.w3.org/1999/xlink" viewBox="0 0 374.92 338.8"><defs><style>.cls-1,.cls-18{fill:none;}.cls-2{fill:#f7931e;}.cls-3{clip-path:url(#clip-path);}.cls-4{fill:#f15a24;}.cls-5{fill:#d4555e;}.cls-6{fill:#510706;}.cls-7{clip-path:url(#clip-path-2);}.cls-8{clip-path:url(#clip-path-3);}.cls-9{clip-path:url(#clip-path-4);}.cls-10{clip-path:url(#clip-path-5);}.cls-11{clip-path:url(#clip-path-6);}.cls-12{clip-path:url(#clip-path-7);}.cls-13{clip-path:url(#clip-path-8);}.cls-14,.cls-17{fill:#a81307;}.cls-15{fill:#fff;}.cls-16{fill:#231f20;}.cls-17,.cls-18{stroke:#a81307;stroke-linecap:round;stroke-linejoin:round;}.cls-17{stroke-width:0.63px;}.cls-18{stroke-width:1.71px;}.cls-19{clip-path:url(#clip-path-9);}.cls-20{fill:#fa4316;}</style><clipPath id="clip-path"><path class="cls-1" d="M355.52,167.07c1.39-2.85-.82-6.65-4.14-6.24s-2.34-5.76,5.29-6.64,26.1,4.64,14.54,24.09-54.41,14.9-69.28,10.33c-9.4-2.16-62.49,27.23-64.75,4.13,0,0,4.63-20,23-22.55"/></clipPath><clipPath id="clip-path-2"><path class="cls-1" d="M335.21,231.44c2.49-2,2.14-6.35-1-7.41s.38-6.21,7.64-3.7,21.53,15.47,2.69,28-55.5-10.09-66.93-20.64c-7.54-6-68.12-2.46-60.17-24.27,0,0,12.82-16,30.48-10.39"/></clipPath><clipPath id="clip-path-3"><path class="cls-1" d="M297.83,279.86c3-.91,4.32-5.12,1.76-7.28s2.63-5.63,8.47-.64,14.35,22.29-7.78,27-47.92-29.76-54.69-43.77c-4.81-8.36-62.46-27.29-47.06-44.66,0,0,17.81-10.2,32.17,1.52"/></clipPath><clipPath id="clip-path-4"><path class="cls-1" d="M240.49,319.5c3.06.84,6.38-2,5.36-5.23s5.22-3.37,7.51,4,.3,26.51-21,18.77-24.77-50.68-23.05-66.14c.37-9.63-38.39-56.32-16.12-62.85,0,0,20.51.83,26.43,18.39"/></clipPath><clipPath id="clip-path-5"><path class="cls-1" d="M19.4,167.07c-1.39-2.85.82-6.65,4.14-6.24s2.34-5.76-5.29-6.64-26.1,4.64-14.54,24.09S58.12,193.18,73,188.61c9.4-2.16,62.49,27.23,64.75,4.13,0,0-4.63-20-23-22.55"/></clipPath><clipPath id="clip-path-6"><path class="cls-1" d="M39.7,231.44c-2.49-2-2.14-6.35,1-7.41s-.38-6.21-7.64-3.7-21.53,15.47-2.69,28,55.5-10.09,66.93-20.64c7.54-6,68.12-2.46,60.17-24.27,0,0-12.82-16-30.48-10.39"/></clipPath><clipPath id="clip-path-7"><path class="cls-1" d="M77.09,279.86c-3-.91-4.32-5.12-1.76-7.28s-2.63-5.63-8.47-.64-14.35,22.29,7.78,27,47.92-29.76,54.69-43.77c4.81-8.36,62.46-27.29,47.06-44.66,0,0-17.81-10.2-32.17,1.52"/></clipPath><clipPath id="clip-path-8"><path class="cls-1" d="M134.43,319.5c-3.06.84-6.38-2-5.36-5.23s-5.22-3.37-7.51,4-.3,26.51,21,18.77,24.77-50.68,23.05-66.14c-.37-9.63,38.39-56.32,16.12-62.85,0,0-20.51.83-26.43,18.39"/></clipPath><clipPath id="clip-path-9"><path class="cls-1" d="M152.85,165s31.95,20.59,69.57,0C222.42,165,187.64,225.33,152.85,165Z"/></clipPath></defs><title>17_highlight_the_small_octopus</title><g id="character"><path class="cls-2" d="M237.18,192.75s4.63-20,23-22.55,17.89-5.7,33.6-6.14c18.39-.51,45.92,20.37,61.75,3,1.39-2.85-.82-6.65-4.14-6.24s-2.34-5.76,5.29-6.64,26.1,4.64,14.54,24.09-54.41,14.9-69.28,10.33C292.53,186.46,239.44,215.85,237.18,192.75Z"/><g class="cls-3"><path class="cls-4" d="M379.8,161.58s-1.47,20.19-32.64,22.57-70.56-18.94-109.41,23.53c0,0,55.07-7.65,57.73-9.2S379.51,212.62,379.8,161.58Z"/></g><circle class="cls-5" cx="367.43" cy="182.88" r="4.31" transform="translate(-14.4 333.41) rotate(-47.98)"/><circle class="cls-6" cx="366.35" cy="183.88" r="2.64" transform="translate(-15.5 332.93) rotate(-47.98)"/><circle class="cls-5" cx="344.56" cy="191.74" r="4.31" transform="translate(-28.54 319.35) rotate(-47.98)"/><circle class="cls-6" cx="343.48" cy="192.74" r="2.64" transform="translate(-29.64 318.87) rotate(-47.98)"/><circle class="cls-5" cx="316.84" cy="191.86" r="4.31" transform="translate(-37.79 298.79) rotate(-47.98)"/><circle class="cls-6" cx="315.76" cy="192.86" r="2.64" transform="translate(-38.89 298.32) rotate(-47.98)"/><circle class="cls-5" cx="293.81" cy="190.18" r="4.31" transform="translate(-44.16 281.13) rotate(-47.98)"/><circle class="cls-6" cx="292.72" cy="191.19" r="2.64" transform="translate(-45.26 280.66) rotate(-47.98)"/><circle class="cls-5" cx="272.06" cy="196.82" r="4.31" transform="matrix(0.67, -0.74, 0.74, 0.67, -56.28, 267.17)"/><circle class="cls-6" cx="270.98" cy="197.82" r="2.64" transform="translate(-57.38 266.7) rotate(-47.98)"/><path class="cls-2" d="M217.41,203.42s12.82-16,30.48-10.39,18.6,2.6,32.95,9c16.8,7.49,32.59,38.22,54.38,29.41,2.49-2,2.14-6.35-1-7.41s.38-6.21,7.64-3.7,21.53,15.47,2.69,28-55.5-10.09-66.93-20.64C270,221.68,209.46,225.23,217.41,203.42Z"/><g class="cls-7"><path class="cls-4" d="M359.48,237s-10.05,17.57-39.19,6.24-55.43-47.59-108.83-26.09c0,0,53,16.91,56,16.67S337.15,282.89,359.48,237Z"/></g><circle class="cls-5" cx="339.12" cy="250.84" r="4.31" transform="translate(-69.92 147.85) rotate(-22.36)"/><circle class="cls-6" cx="337.71" cy="251.28" r="2.64" transform="translate(-70.2 147.34) rotate(-22.36)"/><circle class="cls-5" cx="314.66" cy="248.95" r="4.31" transform="translate(-71.04 138.4) rotate(-22.36)"/><circle class="cls-6" cx="313.25" cy="249.38" r="2.64" transform="translate(-71.31 137.9) rotate(-22.36)"/><circle class="cls-5" cx="289.62" cy="237.07" r="4.31" transform="translate(-68.4 127.98) rotate(-22.36)"/><circle class="cls-6" cx="288.21" cy="237.5" r="2.64" transform="translate(-68.68 127.48) rotate(-22.36)"/><circle class="cls-5" cx="269.57" cy="225.6" r="4.31" transform="translate(-65.55 119.5) rotate(-22.36)"/><circle class="cls-6" cx="268.16" cy="226.03" r="2.64" transform="translate(-65.82 118.99) rotate(-22.36)"/><circle class="cls-5" cx="247.09" cy="222.18" r="4.31" transform="translate(-65.94 110.69) rotate(-22.36)"/><circle class="cls-6" cx="245.68" cy="222.61" r="2.64" transform="translate(-66.21 110.19) rotate(-22.36)"/><path class="cls-2" d="M198.53,210.56s17.81-10.2,32.17,1.52S247,221.32,258,232.54c12.88,13.14,16.29,47.52,39.79,47.32,3-.91,4.32-5.12,1.76-7.28s2.63-5.63,8.47-.64,14.35,22.29-7.78,27-47.92-29.76-54.69-43.77C240.78,246.86,183.13,227.93,198.53,210.56Z"/><g class="cls-8"><path class="cls-4" d="M318.36,293.92s-15.8,12.65-38.75-8.58S245.52,220.73,188,221.13c0,0,43.06,35.17,46,36.07S280.75,328.42,318.36,293.92Z"/></g><circle class="cls-5" cx="294.34" cy="299.34" r="4.31" transform="translate(-4.28 4.27) rotate(-0.83)"/><circle class="cls-6" cx="292.87" cy="299.23" r="2.64" transform="translate(-4.28 4.25) rotate(-0.83)"/><circle class="cls-5" cx="272.29" cy="288.6" r="4.31" transform="translate(-4.13 3.95) rotate(-0.83)"/><circle class="cls-6" cx="270.82" cy="288.49" r="2.64" transform="translate(-4.13 3.93) rotate(-0.83)"/><circle class="cls-5" cx="253.35" cy="268.36" r="4.31" transform="translate(-3.84 3.68) rotate(-0.83)"/><circle class="cls-6" cx="251.88" cy="268.24" r="2.64" transform="translate(-3.84 3.65) rotate(-0.83)"/><circle class="cls-5" cx="238.91" cy="250.33" r="4.31" transform="translate(-3.58 3.47) rotate(-0.83)"/><circle class="cls-6" cx="237.44" cy="250.22" r="2.64" transform="translate(-3.58 3.44) rotate(-0.83)"/><circle class="cls-5" cx="219.26" cy="238.9" r="4.31" transform="translate(-3.42 3.18) rotate(-0.83)"/><circle class="cls-6" cx="217.79" cy="238.79" r="2.64" transform="translate(-3.42 3.16) rotate(-0.83)"/><path class="cls-2" d="M193.22,208s20.51.83,26.43,18.39,8.93,16.52,12.29,31.87c3.93,18-11.46,48.91,8.54,61.23,3.06.84,6.38-2,5.36-5.23s5.22-3.37,7.51,4,.3,26.51-21,18.77-24.77-50.68-23.05-66.14C209.71,261.22,170.94,214.53,193.22,208Z"/><g class="cls-9"><path class="cls-4" d="M250.4,342.32s-20.11,2.32-28.26-27.87,5.47-72.85-43.49-103.12c0,0,17.77,52.68,19.79,55S200.19,351.55,250.4,342.32Z"/></g><circle class="cls-5" cx="227.17" cy="334.14" r="4.31" transform="translate(-176.36 354.72) rotate(-58.71)"/><circle class="cls-6" cx="225.98" cy="333.26" r="2.64" transform="translate(-176.18 353.28) rotate(-58.71)"/><circle class="cls-5" cx="214.2" cy="313.32" r="4.31" transform="translate(-164.8 333.63) rotate(-58.71)"/><circle class="cls-6" cx="213.02" cy="312.45" r="2.64" transform="matrix(0.52, -0.85, 0.85, 0.52, -164.62, 332.2)"/><circle class="cls-5" cx="208.93" cy="286.11" r="4.31" transform="translate(-144.08 316.04) rotate(-58.71)"/><circle class="cls-6" cx="207.74" cy="285.23" r="2.64" transform="translate(-143.9 314.61) rotate(-58.71)"/><circle class="cls-5" cx="206.28" cy="263.17" r="4.31" transform="translate(-125.74 302.76) rotate(-58.71)"/><circle class="cls-6" cx="205.1" cy="262.29" r="2.64" transform="translate(-125.56 301.32) rotate(-58.71)"/><circle class="cls-5" cx="195.71" cy="243.04" r="4.31" transform="translate(-113.62 284.05) rotate(-58.71)"/><circle class="cls-6" cx="194.52" cy="242.16" r="2.64" transform="matrix(0.52, -0.85, 0.85, 0.52, -113.44, 282.61)"/><path class="cls-2" d="M137.74,192.75s-4.63-20-23-22.55-17.89-5.7-33.6-6.14c-18.39-.51-45.92,20.37-61.75,3-1.39-2.85.82-6.65,4.14-6.24s2.34-5.76-5.29-6.64-26.1,4.64-14.54,24.09S58.12,193.18,73,188.61C82.39,186.46,135.47,215.85,137.74,192.75Z"/><g class="cls-10"><path class="cls-4" d="M-4.88,161.58s1.47,20.19,32.64,22.57,70.56-18.94,109.41,23.53c0,0-55.07-7.65-57.73-9.2S-4.59,212.62-4.88,161.58Z"/></g><circle class="cls-5" cx="7.49" cy="182.88" r="4.31" transform="translate(-120.5 52.04) rotate(-42.02)"/><circle class="cls-6" cx="8.57" cy="183.88" r="2.64" transform="translate(-120.89 53.02) rotate(-42.02)"/><circle class="cls-5" cx="30.36" cy="191.74" r="4.31" transform="translate(-120.55 69.62) rotate(-42.02)"/><circle class="cls-6" cx="31.44" cy="192.74" r="2.64" transform="translate(-120.94 70.61) rotate(-42.02)"/><circle class="cls-5" cx="58.08" cy="191.86" r="4.31" transform="translate(-113.5 88.21) rotate(-42.02)"/><circle class="cls-6" cx="59.16" cy="192.86" r="2.64" transform="translate(-113.9 89.2) rotate(-42.02)"/><circle class="cls-5" cx="81.11" cy="190.18" r="4.31" transform="translate(-106.46 103.2) rotate(-42.02)"/><circle class="cls-6" cx="82.2" cy="191.19" r="2.64" transform="translate(-106.85 104.18) rotate(-42.02)"/><circle class="cls-5" cx="102.86" cy="196.82" r="4.31" transform="translate(-105.31 119.47) rotate(-42.02)"/><circle class="cls-6" cx="103.94" cy="197.82" r="2.64" transform="translate(-105.7 120.45) rotate(-42.02)"/><path class="cls-2" d="M157.51,203.42S144.69,187.4,127,193s-18.6,2.6-32.95,9c-16.8,7.49-32.59,38.22-54.38,29.41-2.49-2-2.14-6.35,1-7.41s-.38-6.21-7.64-3.7-21.53,15.47-2.69,28,55.5-10.09,66.93-20.64C104.88,221.68,165.46,225.23,157.51,203.42Z"/><g class="cls-11"><path class="cls-4" d="M15.44,237s10.05,17.57,39.19,6.24,55.43-47.59,108.83-26.09c0,0-53,16.91-56,16.67S37.77,282.89,15.44,237Z"/></g><circle class="cls-5" cx="35.8" cy="250.84" r="4.31" transform="translate(-209.81 188.54) rotate(-67.64)"/><circle class="cls-6" cx="37.21" cy="251.28" r="2.64" transform="translate(-209.33 190.11) rotate(-67.64)"/><circle class="cls-5" cx="60.25" cy="248.95" r="4.31" transform="translate(-192.9 209.98) rotate(-67.64)"/><circle class="cls-6" cx="61.66" cy="249.38" r="2.64" transform="translate(-192.43 211.55) rotate(-67.64)"/><circle class="cls-5" cx="85.3" cy="237.07" r="4.31" transform="translate(-166.39 225.78) rotate(-67.64)"/><circle class="cls-6" cx="86.71" cy="237.5" r="2.64" transform="translate(-165.92 227.36) rotate(-67.64)"/><circle class="cls-5" cx="105.35" cy="225.6" r="4.31" transform="translate(-143.36 237.21) rotate(-67.64)"/><circle class="cls-6" cx="106.76" cy="226.03" r="2.64" transform="translate(-142.89 238.79) rotate(-67.64)"/><circle class="cls-5" cx="127.83" cy="222.18" r="4.31" transform="translate(-126.27 255.88) rotate(-67.64)"/><circle class="cls-6" cx="129.23" cy="222.61" r="2.64" transform="translate(-125.8 257.46) rotate(-67.64)"/><path class="cls-2" d="M176.39,210.56s-17.81-10.2-32.17,1.52-16.35,9.24-27.35,20.46c-12.88,13.14-16.29,47.52-39.79,47.32-3-.91-4.32-5.12-1.76-7.28s-2.63-5.63-8.47-.64-14.35,22.29,7.78,27,47.92-29.76,54.69-43.77C134.14,246.86,191.79,227.93,176.39,210.56Z"/><g class="cls-12"><path class="cls-4" d="M56.55,293.92s15.8,12.65,38.75-8.58S129.4,220.73,187,221.13c0,0-43.06,35.17-46,36.07S94.17,328.42,56.55,293.92Z"/></g><circle class="cls-5" cx="80.58" cy="299.34" r="4.31" transform="translate(-219.89 375.6) rotate(-89.17)"/><circle class="cls-6" cx="82.05" cy="299.23" r="2.64" transform="translate(-218.33 376.96) rotate(-89.17)"/><circle class="cls-5" cx="102.63" cy="288.6" r="4.31" transform="translate(-187.42 387.06) rotate(-89.17)"/><circle class="cls-6" cx="104.1" cy="288.49" r="2.64" transform="translate(-185.86 388.42) rotate(-89.17)"/><circle class="cls-5" cx="121.57" cy="268.36" r="4.31" transform="translate(-148.51 386.05) rotate(-89.17)"/><circle class="cls-6" cx="123.04" cy="268.24" r="2.64" transform="translate(-146.95 387.41) rotate(-89.17)"/><circle class="cls-5" cx="136" cy="250.33" r="4.31" transform="translate(-116.26 382.72) rotate(-89.17)"/><circle class="cls-6" cx="137.48" cy="250.22" r="2.64" transform="translate(-114.7 384.08) rotate(-89.17)"/><circle class="cls-5" cx="155.66" cy="238.9" r="4.31" transform="translate(-85.46 391.1) rotate(-89.17)"/><circle class="cls-6" cx="157.13" cy="238.79" r="2.64" transform="translate(-83.9 392.46) rotate(-89.17)"/><path class="cls-2" d="M181.7,208s-20.51.83-26.43,18.39-8.93,16.52-12.29,31.87c-3.93,18,11.46,48.91-8.54,61.23-3.06.84-6.38-2-5.36-5.23s-5.22-3.37-7.51,4-.3,26.51,21,18.77,24.77-50.68,23.05-66.14C165.21,261.22,204,214.53,181.7,208Z"/><g class="cls-13"><path class="cls-4" d="M124.52,342.32s20.11,2.32,28.26-27.87-5.47-72.85,43.49-103.12c0,0-17.77,52.68-19.79,55S174.72,351.55,124.52,342.32Z"/></g><circle class="cls-5" cx="147.75" cy="334.14" r="4.31" transform="translate(-152.06 125.34) rotate(-31.29)"/><circle class="cls-6" cx="148.93" cy="333.26" r="2.64" transform="translate(-151.43 125.83) rotate(-31.29)"/><circle class="cls-5" cx="160.71" cy="313.32" r="4.31" transform="translate(-139.36 129.05) rotate(-31.29)"/><circle class="cls-6" cx="161.9" cy="312.45" r="2.64" transform="translate(-138.73 129.54) rotate(-31.29)"/><circle class="cls-5" cx="165.99" cy="286.11" r="4.31" transform="translate(-124.45 127.83) rotate(-31.29)"/><circle class="cls-6" cx="167.18" cy="285.23" r="2.64" transform="translate(-123.83 128.32) rotate(-31.29)"/><circle class="cls-5" cx="168.64" cy="263.17" r="4.31" transform="translate(-112.15 125.87) rotate(-31.29)"/><circle class="cls-6" cx="169.82" cy="262.29" r="2.64" transform="matrix(0.85, -0.52, 0.52, 0.85, -111.53, 126.36)"/><circle class="cls-5" cx="179.21" cy="243.04" r="4.31" transform="translate(-100.16 128.43) rotate(-31.29)"/><circle class="cls-6" cx="180.39" cy="242.16" r="2.64" transform="translate(-99.53 128.92) rotate(-31.29)"/><path class="cls-2" d="M199,.59a140.64,140.64,0,0,0-25.69,0C85.59,7.22,79.71,99.7,92.61,125.93A235.6,235.6,0,0,0,108,152.52a22.37,22.37,0,0,0,11,36.58c1.75,16.15,35.89,21.16,59.83,22,2.14.09,4.62.14,7.34.14s5.19,0,7.34-.14c23.71-.84,57.41-5.77,59.77-21.54a22.37,22.37,0,0,0,11.46-38.91c4.45-6.88,9.72-14.6,15-24.73C293.31,100.1,286.63,9.84,199,.59Z"/><circle class="cls-14" cx="156.73" cy="122.65" r="26.41"/><circle class="cls-15" cx="156.73" cy="124.71" r="23.25"/><circle class="cls-16" cx="156.73" cy="124.71" r="18.34"/><circle class="cls-15" cx="164.54" cy="116.4" r="6.92"/><circle class="cls-14" cx="220.29" cy="122.65" r="26.41"/><circle class="cls-15" cx="220.29" cy="124.71" r="23.25"/><circle class="cls-16" cx="220.29" cy="124.71" r="18.34"/><circle class="cls-15" cx="228.1" cy="116.4" r="6.92"/><path class="cls-17" d="M152.85,165s31.95,20.59,69.57,0C222.42,165,187.64,225.33,152.85,165Z"/><path class="cls-18" d="M146.19,165.55a8.68,8.68,0,0,0,11-5.1"/><path class="cls-18" d="M229.87,165.55a8.68,8.68,0,0,1-11-5.1"/><g class="cls-19"><path class="cls-20" d="M174.43,192.49s-.56-8.43,5.38-8.43,6.82,3.37,6.82,3.37.88-3.85,7.38-3.85,5.54,12.36,5.54,12.36Z"/></g><path class="cls-17" d="M140.81,79.42h28.4S155,68.06,140.81,79.42Z"/><path class="cls-17" d="M207.08,79.42h28.4S221.28,68.06,207.08,79.42Z"/></g></svg>