<svg xmlns="http://www.w3.org/2000/svg" xmlns:xlink="http://www.w3.org/1999/xlink" viewBox="0 0 349.55 344.85"><defs><style>.cls-1,.cls-18{fill:none;}.cls-2{fill:#f7931e;}.cls-3{clip-path:url(#clip-path);}.cls-4{fill:#f15a24;}.cls-5{fill:#d4555e;}.cls-6{fill:#510706;}.cls-7{clip-path:url(#clip-path-2);}.cls-8{clip-path:url(#clip-path-3);}.cls-9{clip-path:url(#clip-path-4);}.cls-10{clip-path:url(#clip-path-5);}.cls-11{clip-path:url(#clip-path-6);}.cls-12{clip-path:url(#clip-path-7);}.cls-13{clip-path:url(#clip-path-8);}.cls-14,.cls-17{fill:#a81307;}.cls-15{fill:#fff;}.cls-16{fill:#231f20;}.cls-17,.cls-18{stroke:#a81307;stroke-linecap:round;stroke-linejoin:round;}.cls-17{stroke-width:0.63px;}.cls-18{stroke-width:1.71px;}.cls-19{clip-path:url(#clip-path-9);}.cls-20{fill:#fa4316;}</style><clipPath id="clip-path"><path class="cls-1" d="M304,75.59c-.78-3.07-4.93-4.54-7.19-2.07s-5.51-2.88-.27-8.49,22.9-13.36,26.68,9-31.83,46.58-46.12,52.72c-8.56,4.44-30,61.21-46.68,45.06,0,0-9.41-18.24,2.93-32.07"/></clipPath><clipPath id="clip-path-2"><path class="cls-1" d="M330.18,151.09c1.1-3-1.48-6.53-4.75-5.79s-2.91-5.5,4.59-7.14,26.44,2,16.89,22.51S294.28,181,279,177.91c-9.57-1.2-59.43,33.38-64,10.62,0,0,2.6-20.36,20.61-24.75"/></clipPath><clipPath id="clip-path-3"><path class="cls-1" d="M316.18,234.48c2.57-1.86,2.4-6.25-.73-7.45s.64-6.18,7.79-3.38,20.87,16.35,1.53,28.1-55-12.39-66-23.41c-7.28-6.32-68-5.29-59.11-26.75,0,0,13.48-15.48,30.88-9.11"/></clipPath><clipPath id="clip-path-4"><path class="cls-1" d="M275,290.74c3.16-.21,5.36-4,3.34-6.7s3.83-4.9,8.39,1.28,9,24.94-13.65,24.61-40-39.75-43.47-54.92c-2.81-9.22-54.74-40.61-35.84-54.08,0,0,19.65-5.94,31,8.7"/></clipPath><clipPath id="clip-path-5"><path class="cls-1" d="M19.39,174.16c-1.26-2.91,1.12-6.6,4.42-6s2.6-5.65-5-6.88-26.29,3.44-15.63,23.4S56.87,202,71.94,198.14c9.49-1.73,61.17,30.07,64.49,7.1,0,0-3.71-20.19-21.93-23.58"/></clipPath><clipPath id="clip-path-6"><path class="cls-1" d="M47.42,256.81c-2.8-1.49-3.23-5.87-.3-7.48s-1.48-6-8.18-2.28-18.44,19.05,2.33,28,52.82-19.8,62.2-32.21c6.35-7.25,66.6-14.53,54.9-34.58,0,0-15.47-13.49-31.84-4.81"/></clipPath><clipPath id="clip-path-7"><path class="cls-1" d="M107.65,306.89c-3.17.13-5.76-3.42-4-6.3s-4.34-4.46-8.21,2.17-6.25,25.77,16.22,23,35.51-43.83,37.31-59.28c1.8-9.47,50.05-46.27,29.81-57.63,0,0-20.17-3.79-29.89,12"/></clipPath><clipPath id="clip-path-8"><path class="cls-1" d="M174.83,325.52c-2.61,1.8-6.69.16-6.78-3.18s-6-1.47-5.8,6.2,8.41,25.14,26,10.86,6.78-56,.08-70c-3.51-9,17.8-65.8-5.39-64.66,0,0-19.1,7.51-18.94,26"/></clipPath><clipPath id="clip-path-9"><path class="cls-1" d="M143.1,179.68s38,1.91,60.3-34.7C203.4,145,203.35,214.63,143.1,179.68Z"/></clipPath></defs><title>17_highlight_the_small_octopus</title><g id="character"><path class="cls-2" d="M230.43,171.77s-9.41-18.24,2.93-32.07,9.95-15.93,21.64-26.43c13.69-12.3,48.18-14.2,49-37.68-.78-3.07-4.93-4.54-7.19-2.07s-5.51-2.88-.27-8.49,22.9-13.36,26.68,9-31.83,46.58-46.12,52.72C268.55,131.14,247.11,187.91,230.43,171.77Z"/><g class="cls-3"><path class="cls-4" d="M319,55.69S330.91,72,308.69,94s-66,31.24-68.16,88.76c0,0,37-41.48,38-44.38S351.78,94.78,319,55.69Z"/></g><circle class="cls-5" cx="323.32" cy="79.93" r="4.31" transform="translate(233.93 400.77) rotate(-88.32)"/><circle class="cls-6" cx="323.14" cy="81.4" r="2.64" transform="translate(232.3 402.01) rotate(-88.32)"/><circle class="cls-5" cx="311.63" cy="101.49" r="4.31" transform="translate(201.03 410) rotate(-88.32)"/><circle class="cls-6" cx="311.45" cy="102.95" r="2.64" transform="translate(199.39 411.25) rotate(-88.32)"/><circle class="cls-5" cx="290.57" cy="119.53" r="4.31" transform="translate(162.57 406.46) rotate(-88.32)"/><circle class="cls-6" cx="290.4" cy="120.99" r="2.64" transform="translate(160.93 407.71) rotate(-88.32)"/><circle class="cls-5" cx="271.93" cy="133.16" r="4.31" transform="translate(130.85 401.06) rotate(-88.32)"/><circle class="cls-6" cx="271.76" cy="134.62" r="2.64" transform="translate(129.21 402.31) rotate(-88.32)"/><circle class="cls-5" cx="259.65" cy="152.3" r="4.31" transform="translate(99.8 407.37) rotate(-88.32)"/><circle class="cls-6" cx="259.48" cy="153.76" r="2.64" transform="translate(98.16 408.61) rotate(-88.32)"/><path class="cls-2" d="M215,188.54s2.6-20.36,20.61-24.75,17.23-7.47,32.81-9.49c18.25-2.36,47.73,15.65,61.74-3.22,1.1-3-1.48-6.53-4.75-5.79s-2.91-5.5,4.59-7.14,26.44,2,16.89,22.51S294.28,181,279,177.91C269.46,176.71,219.6,211.29,215,188.54Z"/><g class="cls-7"><path class="cls-4" d="M353.78,143.18s.57,20.23-30.21,25.74-72.1-11.75-106.49,34.42c0,0,54-13.15,56.51-15S358.63,194,353.78,143.18Z"/></g><circle class="cls-5" cx="343.62" cy="165.62" r="4.31" transform="translate(6.87 344.8) rotate(-53.75)"/><circle class="cls-6" cx="342.64" cy="166.72" r="2.64" transform="translate(5.58 344.46) rotate(-53.75)"/><circle class="cls-5" cx="321.76" cy="176.73" r="4.31" transform="translate(-11.03 331.71) rotate(-53.75)"/><circle class="cls-6" cx="320.78" cy="177.84" r="2.64" transform="translate(-12.32 331.38) rotate(-53.75)"/><circle class="cls-5" cx="294.19" cy="179.64" r="4.31" transform="translate(-24.64 310.67) rotate(-53.75)"/><circle class="cls-6" cx="293.21" cy="180.75" r="2.64" transform="translate(-25.93 310.33) rotate(-53.75)"/><circle class="cls-5" cx="271.1" cy="180.29" r="4.31" transform="translate(-34.6 292.31) rotate(-53.75)"/><circle class="cls-6" cx="270.13" cy="181.4" r="2.64" transform="translate(-35.89 291.98) rotate(-53.75)"/><circle class="cls-5" cx="250.14" cy="189.08" r="4.31" transform="translate(-50.26 279) rotate(-53.75)"/><circle class="cls-6" cx="249.16" cy="190.19" r="2.64" transform="translate(-51.55 278.66) rotate(-53.75)"/><path class="cls-2" d="M199.64,201.59s13.48-15.48,30.88-9.11,18.48,3.37,32.55,10.36c16.48,8.19,31,39.54,53.11,31.65,2.57-1.86,2.4-6.25-.73-7.45s.64-6.18,7.79-3.38,20.87,16.35,1.53,28.1-55-12.39-66-23.41C251.47,222,190.79,223,199.64,201.59Z"/><g class="cls-8"><path class="cls-4" d="M340.19,241s-10.78,17.13-39.42,4.6-53.4-49.85-107.65-30.6c0,0,52.21,19.1,55.29,19S316,286,340.19,241Z"/></g><circle class="cls-5" cx="319.27" cy="254.03" r="4.31" transform="translate(-67.57 124.33) rotate(-19.97)"/><circle class="cls-6" cx="317.85" cy="254.41" r="2.64" transform="translate(-67.78 123.87) rotate(-19.97)"/><circle class="cls-5" cx="294.92" cy="251.12" r="4.31" transform="translate(-68.04 115.84) rotate(-19.97)"/><circle class="cls-6" cx="293.5" cy="251.5" r="2.64" transform="matrix(0.94, -0.34, 0.34, 0.94, -68.25, 115.38)"/><circle class="cls-5" cx="270.39" cy="238.21" r="4.31" transform="translate(-65.1 106.68) rotate(-19.97)"/><circle class="cls-6" cx="268.96" cy="238.58" r="2.64" transform="translate(-65.32 106.22) rotate(-19.97)"/><circle class="cls-5" cx="250.84" cy="225.92" r="4.31" transform="translate(-62.08 99.27) rotate(-19.97)"/><circle class="cls-6" cx="249.41" cy="226.29" r="2.64" transform="translate(-62.29 98.8) rotate(-19.97)"/><circle class="cls-5" cx="228.52" cy="221.57" r="4.31" transform="translate(-61.94 91.38) rotate(-19.97)"/><circle class="cls-6" cx="227.1" cy="221.94" r="2.64" transform="translate(-62.15 90.92) rotate(-19.97)"/><path class="cls-2" d="M193.79,200.92s19.65-5.94,31,8.7,13.86,12.68,22.06,26.08c9.61,15.69,5.21,50,28.15,55,3.16-.21,5.36-4,3.34-6.7s3.83-4.9,8.39,1.28,9,24.94-13.65,24.61-40-39.75-43.47-54.92C226.82,245.78,174.89,214.39,193.79,200.92Z"/><g class="cls-9"><path class="cls-4" d="M291.86,309.05S273.63,317.84,256,292s-18.73-70.61-74.91-83.15c0,0,34.07,43.94,36.74,45.47S247.46,334.23,291.86,309.05Z"/></g><circle class="cls-5" cx="267.24" cy="308.94" r="4.31" transform="translate(-91.01 505.21) rotate(-77.86)"/><circle class="cls-6" cx="265.83" cy="308.5" r="2.64" transform="translate(-91.69 503.48) rotate(-77.86)"/><circle class="cls-5" cx="248.16" cy="293.53" r="4.31" transform="translate(-91 474.39) rotate(-77.86)"/><circle class="cls-6" cx="246.75" cy="293.09" r="2.64" transform="translate(-91.69 472.66) rotate(-77.86)"/><circle class="cls-5" cx="234.24" cy="269.55" r="4.31" transform="translate(-78.55 441.85) rotate(-77.86)"/><circle class="cls-6" cx="232.84" cy="269.11" r="2.64" transform="translate(-79.23 440.13) rotate(-77.86)"/><circle class="cls-5" cx="224.22" cy="248.74" r="4.31" transform="translate(-66.12 415.62) rotate(-77.86)"/><circle class="cls-6" cx="222.81" cy="248.3" r="2.64" transform="translate(-66.81 413.9) rotate(-77.86)"/><circle class="cls-5" cx="207.63" cy="233.2" r="4.31" transform="translate(-64.02 387.13) rotate(-77.86)"/><circle class="cls-6" cx="206.23" cy="232.76" r="2.64" transform="translate(-64.7 385.4) rotate(-77.86)"/><path class="cls-2" d="M136.43,205.23S132.72,185,114.5,181.66,96.88,175.14,81.21,174c-18.35-1.35-46.8,18.24-61.82.17-1.26-2.91,1.12-6.6,4.42-6s2.6-5.65-5-6.88-26.29,3.44-15.63,23.4S56.87,202,71.94,198.14C81.42,196.41,133.11,228.21,136.43,205.23Z"/><g class="cls-10"><path class="cls-4" d="M-4.61,167.56s.54,20.23,31.57,24,71.35-15.69,108.22,28.52c0,0-54.66-10.17-57.24-11.84S-6.66,218.57-4.61,167.56Z"/></g><circle class="cls-5" cx="6.77" cy="189.41" r="4.31" transform="translate(-118.68 47.33) rotate(-39.4)"/><circle class="cls-6" cx="7.8" cy="190.46" r="2.64" transform="translate(-119.11 48.23) rotate(-39.4)"/><circle class="cls-5" cx="29.21" cy="199.31" r="4.31" transform="translate(-119.86 63.83) rotate(-39.4)"/><circle class="cls-6" cx="30.24" cy="200.36" r="2.64" transform="translate(-120.29 64.72) rotate(-39.4)"/><circle class="cls-5" cx="56.9" cy="200.7" r="4.31" transform="translate(-114.45 81.72) rotate(-39.4)"/><circle class="cls-6" cx="57.93" cy="201.75" r="2.64" transform="translate(-114.88 82.61) rotate(-39.4)"/><circle class="cls-5" cx="79.98" cy="200.08" r="4.31" transform="translate(-108.81 96.23) rotate(-39.4)"/><circle class="cls-6" cx="81.02" cy="201.13" r="2.64" transform="translate(-109.24 97.12) rotate(-39.4)"/><circle class="cls-5" cx="101.4" cy="207.71" r="4.31" transform="translate(-108.79 111.55) rotate(-39.4)"/><circle class="cls-6" cx="102.44" cy="208.76" r="2.64" transform="translate(-109.22 112.45) rotate(-39.4)"/><path class="cls-2" d="M158.37,208.29s-15.47-13.49-31.84-4.81-17.84,5.86-30.83,14.71C80.5,228.56,70.42,261.6,47.42,256.81c-2.8-1.49-3.23-5.87-.3-7.48s-1.48-6-8.18-2.28-18.44,19.05,2.33,28,52.82-19.8,62.2-32.21C109.83,235.62,170.07,228.34,158.37,208.29Z"/><g class="cls-11"><path class="cls-4" d="M24.53,266.58s13,15.5,39.68-.83,46.09-56.68,102.46-45c0,0-49.11,26.06-52.17,26.36S54.67,307.78,24.53,266.58Z"/></g><circle class="cls-5" cx="47.03" cy="276.6" r="4.31" transform="translate(-233.28 264.52) rotate(-77.88)"/><circle class="cls-6" cx="48.49" cy="276.77" r="2.64" transform="translate(-232.29 266.09) rotate(-77.88)"/><circle class="cls-5" cx="70.76" cy="270.38" r="4.31" transform="translate(-208.45 282.8) rotate(-77.88)"/><circle class="cls-6" cx="72.22" cy="270.56" r="2.64" transform="translate(-207.47 284.38) rotate(-77.88)"/><circle class="cls-5" cx="93.29" cy="254.24" r="4.31" transform="translate(-174.86 292.08) rotate(-77.88)"/><circle class="cls-6" cx="94.76" cy="254.42" r="2.64" transform="translate(-173.88 293.66) rotate(-77.88)"/><circle class="cls-5" cx="110.98" cy="239.39" r="4.31" transform="translate(-146.37 297.64) rotate(-77.88)"/><circle class="cls-6" cx="112.44" cy="239.57" r="2.64" transform="translate(-145.39 299.22) rotate(-77.88)"/><circle class="cls-5" cx="132.49" cy="232.03" r="4.31" transform="translate(-122.18 312.86) rotate(-77.88)"/><circle class="cls-6" cx="133.96" cy="232.21" r="2.64" transform="matrix(0.21, -0.98, 0.98, 0.21, -121.2, 314.43)"/><path class="cls-2" d="M178.73,208.85s-20.17-3.79-29.89,12-12.41,14.09-19.12,28.3c-7.86,16.64.2,50.23-22.07,57.75-3.17.13-5.76-3.42-4-6.3s-4.34-4.46-8.21,2.17-6.25,25.77,16.22,23,35.51-43.83,37.31-59.28C150.72,257,199,220.21,178.73,208.85Z"/><g class="cls-12"><path class="cls-4" d="M92.87,326.91s19.08,6.77,33.79-20.82,11-72.22,65.53-90.73c0,0-29.14,47.35-31.63,49.16S139.72,347.16,92.87,326.91Z"/></g><circle class="cls-5" cx="117.34" cy="324.15" r="4.31" transform="translate(-95.95 53.32) rotate(-18.32)"/><circle class="cls-6" cx="118.69" cy="323.56" r="2.64" transform="translate(-95.7 53.72) rotate(-18.32)"/><circle class="cls-5" cx="134.65" cy="306.77" r="4.31" transform="translate(-89.61 57.88) rotate(-18.32)"/><circle class="cls-6" cx="136" cy="306.18" r="2.64" transform="translate(-89.36 58.28) rotate(-18.32)"/><circle class="cls-5" cx="145.9" cy="281.43" r="4.31" transform="translate(-81.08 60.13) rotate(-18.32)"/><circle class="cls-6" cx="147.25" cy="280.84" r="2.64" transform="translate(-80.82 60.53) rotate(-18.32)"/><circle class="cls-5" cx="153.62" cy="259.67" r="4.31" transform="translate(-73.84 61.46) rotate(-18.32)"/><circle class="cls-6" cx="154.98" cy="259.08" r="2.64" transform="translate(-73.59 61.85) rotate(-18.32)"/><circle class="cls-5" cx="168.44" cy="242.43" r="4.31" transform="translate(-67.67 65.24) rotate(-18.32)"/><circle class="cls-6" cx="169.79" cy="241.84" r="2.64" transform="translate(-67.42 65.64) rotate(-18.32)"/><path class="cls-2" d="M182.91,204.7s-19.1,7.51-18.94,26-3,18.54-1.15,34.14c2.19,18.27,26.87,42.44,12,60.65-2.61,1.8-6.69.16-6.78-3.18s-6-1.47-5.8,6.2,8.41,25.14,26,10.86,6.78-56,.08-70C184.78,260.38,206.09,203.56,182.91,204.7Z"/><g class="cls-13"><path class="cls-4" d="M172.95,350.34s19.76-4.41,17.55-35.59-29.06-67,7.27-111.68c0,0,.49,55.59-.65,58.45S223.4,342.59,172.95,350.34Z"/></g><circle class="cls-5" cx="192.21" cy="334.99" r="4.31" transform="translate(-188.47 269.82) rotate(-50.44)"/><circle class="cls-6" cx="193.04" cy="333.78" r="2.64" transform="translate(-187.23 270.02) rotate(-50.44)"/><circle class="cls-5" cx="197.63" cy="311.07" r="4.31" transform="translate(-168.06 265.31) rotate(-50.44)"/><circle class="cls-6" cx="198.46" cy="309.85" r="2.64" transform="translate(-166.82 265.51) rotate(-50.44)"/><circle class="cls-5" cx="193.69" cy="283.63" r="4.31" transform="translate(-148.34 252.31) rotate(-50.44)"/><circle class="cls-6" cx="194.52" cy="282.41" r="2.64" transform="translate(-147.09 252.51) rotate(-50.44)"/><circle class="cls-5" cx="188.66" cy="261.09" r="4.31" transform="translate(-132.78 240.25) rotate(-50.44)"/><circle class="cls-6" cx="189.49" cy="259.87" r="2.64" transform="translate(-131.54 240.45) rotate(-50.44)"/><circle class="cls-5" cx="192.04" cy="238.61" r="4.31" transform="translate(-114.22 234.69) rotate(-50.44)"/><circle class="cls-6" cx="192.88" cy="237.39" r="2.64" transform="translate(-112.98 234.89) rotate(-50.44)"/><path class="cls-2" d="M131.27,3.07A140.64,140.64,0,0,0,107,11.5c-80.74,35-56,124.34-35.16,144.89a235.6,235.6,0,0,0,23.26,20.07,22.37,22.37,0,0,0,22.42,30.93c7,14.68,40.84,8.22,63.74,1.17,2.06-.62,4.41-1.38,7-2.27s4.89-1.75,6.88-2.54c22.12-8.57,52.34-24.28,49.4-40a22.37,22.37,0,0,0-1.94-40.52c1.94-8,4.39-17,6.08-28.29C253,66.15,217-16.92,131.27,3.07Z"/><circle class="cls-14" cx="131.32" cy="132.26" r="26.41" transform="translate(-36.12 50.39) rotate(-19.15)"/><circle class="cls-15" cx="132" cy="134.2" r="23.25" transform="translate(-36.71 50.72) rotate(-19.15)"/><circle class="cls-16" cx="132" cy="134.2" r="18.34" transform="translate(-36.71 50.72) rotate(-19.15)"/><circle class="cls-15" cx="136.65" cy="123.79" r="6.92" transform="translate(-33.04 51.67) rotate(-19.15)"/><circle class="cls-14" cx="191.37" cy="111.41" r="26.41" transform="translate(-25.96 68.93) rotate(-19.15)"/><circle class="cls-15" cx="192.04" cy="113.35" r="23.25" transform="translate(-26.55 69.26) rotate(-19.15)"/><circle class="cls-16" cx="192.04" cy="113.35" r="18.34" transform="translate(-26.55 69.26) rotate(-19.15)"/><circle class="cls-15" cx="196.69" cy="102.94" r="6.92" transform="translate(-22.88 70.21) rotate(-19.15)"/><path class="cls-17" d="M143.1,179.68s38,1.91,60.3-34.7C203.4,145,203.35,214.63,143.1,179.68Z"/><path class="cls-18" d="M137.6,183.49a8.68,8.68,0,0,0,7-9.9"/><path class="cls-18" d="M210.13,141.75a8.68,8.68,0,0,1-12.07,1.06"/><g class="cls-19"><path class="cls-20" d="M175.52,192.75s-4.69-7,.46-10,7.59-.48,7.59-.48-1.16-3.78,4.48-7,11,8,11,8Z"/></g><path class="cls-17" d="M95.61,83.64l26.83-9.32S105.3,68.25,95.61,83.64Z"/><path class="cls-17" d="M164.71,74.91l26.83-9.32S174.4,59.52,164.71,74.91Z"/></g></svg>