<svg id="Layer_1" data-name="Layer 1" xmlns="http://www.w3.org/2000/svg" xmlns:xlink="http://www.w3.org/1999/xlink" viewBox="0 0 260 168"><defs><style>.cls-1{fill:#7c4d23;}.cls-2{fill:#6d3e18;}.cls-3{fill:#56290b;}.cls-4{fill:none;stroke:#512609;stroke-linecap:round;stroke-linejoin:round;stroke-width:0.26px;}.cls-5{fill:#63310f;}.cls-6{clip-path:url(#clip-path);}.cls-7{fill:#5e2e0d;opacity:0.53;}.cls-8{clip-path:url(#clip-path-2);}.cls-9{fill:#603415;}.cls-10{fill:#844b24;}.cls-11{fill:#944728;}.cls-12{fill:#fff;}</style><clipPath id="clip-path"><path class="cls-1" d="M92.6,107.39s-1.42,4.09,1,4.89,8.29-5,9.93-10.1-.69-4.28-1.34-4.2A14.57,14.57,0,0,0,92.6,107.39Z"/></clipPath><clipPath id="clip-path-2"><path class="cls-2" d="M91.88,109.77c-1.16-5.28,5.73-10.39,8.73-11.47s3.24.07,3.24.07a27.3,27.3,0,0,0-8.61,7.49C91.92,110.6,92.19,111.17,91.88,109.77Z"/></clipPath></defs><path class="cls-3" d="M103.13,105.43s1.69-1.57,1.49-2.17-2.22,1.28-2.2,2S102.82,105.66,103.13,105.43Z"/><ellipse class="cls-3" cx="106.5" cy="104.01" rx="0.43" ry="2.4" transform="translate(-26.32 171.23) rotate(-71.17)"/><ellipse class="cls-3" cx="109.05" cy="104.48" rx="0.97" ry="0.32" transform="translate(-22.61 30.48) rotate(-14.44)"/><path class="cls-3" d="M101.21,98.9s.26-2.29-.29-2.61-.84,2.42-.38,2.92S101.14,99.28,101.21,98.9Z"/><ellipse class="cls-3" cx="102.83" cy="95.62" rx="2.4" ry="0.43" transform="translate(-28.4 45.68) rotate(-22.09)"/><ellipse class="cls-3" cx="105.07" cy="94.31" rx="0.97" ry="0.32" transform="translate(-32.25 127.14) rotate(-55.36)"/><path class="cls-4" d="M104.55,97.08a1.57,1.57,0,0,0-1.41-2.39c-2.43-.3-4.11,3.07-5.54,2.23"/><path class="cls-4" d="M105.23,98.62s2.84.33.13,5.75,2.78,5.16,2.78,5.16"/><path class="cls-3" d="M98.33,110.84s1.14,2,1.77,1.94-.74-2.45-1.41-2.59S98.17,110.49,98.33,110.84Z"/><ellipse class="cls-3" cx="98.94" cy="114.45" rx="2.4" ry="0.43" transform="translate(-50.53 137.78) rotate(-58.03)"/><ellipse class="cls-3" cx="97.9" cy="116.82" rx="0.32" ry="0.97" transform="translate(-2.62 2.25) rotate(-1.3)"/><path class="cls-3" d="M100.44,108s2,1.22,2.49.86-1.83-1.8-2.48-1.6S100.13,107.79,100.44,108Z"/><ellipse class="cls-3" cx="102.71" cy="110.9" rx="2.4" ry="0.43" transform="translate(-14.04 206.91) rotate(-86.63)"/><ellipse class="cls-3" cx="102.93" cy="113.48" rx="0.32" ry="0.97" transform="translate(-42.87 66.41) rotate(-29.9)"/><path class="cls-5" d="M96.44,112.64s2.79-.25,5.06-3.75,3.09-7.31,2.41-8.42S96.41,107.45,96.44,112.64Z"/><path class="cls-1" d="M92.6,107.39s-1.42,4.09,1,4.89,8.29-5,9.93-10.1-.69-4.28-1.34-4.2A14.57,14.57,0,0,0,92.6,107.39Z"/><g class="cls-6"><path class="cls-7" d="M91.29,110.7a1.84,1.84,0,0,0,1.52-.82,23.13,23.13,0,0,0,1.66-2.58,28.09,28.09,0,0,1,7.06-7.16,4.26,4.26,0,0,0,1.63-1.82.53.53,0,0,0,0-.22c0-.2-.28-.29-.49-.31a5.55,5.55,0,0,0-1.15.06,33.54,33.54,0,0,0-3.44.63,4.76,4.76,0,0,0-1.69.61,5.27,5.27,0,0,0-1.3,1.55c-.9,1.35-1.91,2.62-2.75,4a10.48,10.48,0,0,0-1.67,4.51,1.19,1.19,0,0,0,.2.93c.12.12.3.21.3.38"/></g><path class="cls-2" d="M91.88,109.77c-1.16-5.28,5.73-10.39,8.73-11.47s3.24.07,3.24.07a27.3,27.3,0,0,0-8.61,7.49C91.92,110.6,92.19,111.17,91.88,109.77Z"/><g class="cls-8"><path class="cls-9" d="M92.49,109.66a67.16,67.16,0,0,1,4.74-6.57,25.2,25.2,0,0,1,6.94-5.41.94.94,0,0,1,.77-.15.74.74,0,0,1,.4.48,3,3,0,0,1-.21,2,37.65,37.65,0,0,1-1.75,4.08,24.37,24.37,0,0,1-4.9,7.2,4.91,4.91,0,0,1-1.09.83,5.33,5.33,0,0,1-2.09.44,4.18,4.18,0,0,1-3.27-.87c-.27-.27-.64-.85-.47-1.26.08-.18.25-.22.41-.31A1.59,1.59,0,0,0,92.49,109.66Z"/></g><path class="cls-2" d="M103.79,98.2s-5.61,3.74-8.09,7.32-2.81,5-3,6.41,2.24,4.52,6.92-2.14C103,105.11,105,100.27,103.79,98.2Z"/><ellipse class="cls-10" cx="94.26" cy="108.94" rx="2.73" ry="0.22" transform="translate(-43.94 149.59) rotate(-65.53)"/><ellipse class="cls-10" cx="93.11" cy="111.89" rx="0.34" ry="0.17" transform="translate(-32.92 184.72) rotate(-80.26)"/><path class="cls-10" d="M94.4,111.87a21.75,21.75,0,0,1,3.77-8.2c2.85-3.56,5.43-4.21,5.43-4.21S100,104,99.47,108c0,0-.77-1.94,1.72-6.31C101.19,101.67,97.42,103.73,94.4,111.87Z"/><path class="cls-10" d="M93.74,107.75s-1.82,2.77-1.66,1.76C92.08,109.51,92.55,109.39,93.74,107.75Z"/><path class="cls-10" d="M103.14,98.2s-7.66,5.93-9.33,6.42c0,0,4.93-3.13,6-4.47a3.44,3.44,0,0,1-1.79.25A25.22,25.22,0,0,0,103.14,98.2Z"/><path class="cls-5" d="M103.77,97.72s-3.69,2.31-4,3.42,1.17,5.51,3.36,3.66S105.44,98.38,103.77,97.72Z"/><path class="cls-5" d="M100,100.69s-1.58-.73-1.24-2,3.83-2.6,4.73-1.77a1.82,1.82,0,0,1,.63,1.58S102.54,101.85,100,100.69Z"/><path class="cls-3" d="M100.16,100.41S102.59,98.08,104,98C104,98,102.24,97.59,100.16,100.41Z"/><ellipse class="cls-11" cx="103.58" cy="98.65" rx="1.8" ry="2.39" transform="translate(-25.73 37.49) rotate(-18.29)"/><ellipse cx="104" cy="99.66" rx="0.9" ry="0.73" transform="translate(-24.8 164.14) rotate(-70.37)"/><ellipse class="cls-12" cx="103.63" cy="99.83" rx="0.29" ry="0.24" transform="translate(-25.2 163.91) rotate(-70.37)"/><path d="M103,96.5c.38,0,.66.25.64.47s-.35.37-.72.33-.66-.22-.63-.44S102.62,96.46,103,96.5Z"/><ellipse class="cls-12" cx="102.5" cy="96.85" rx="0.12" ry="0.14" transform="translate(-23.15 160.87) rotate(-70.37)"/></svg>