<svg xmlns="http://www.w3.org/2000/svg" xmlns:xlink="http://www.w3.org/1999/xlink" viewBox="0 0 260 168"><defs><style>.cls-1{fill:#7c4d23;}.cls-2{fill:#6d3e18;}.cls-3{fill:#62d8f4;}.cls-4{fill:#1e9bc6;}.cls-14,.cls-33,.cls-5{fill:none;}.cls-6{fill:#ffec00;}.cls-7{fill:red;}.cls-8{fill:#56290b;}.cls-9{fill:#fcd212;}.cls-10{fill:url(#linear-gradient);}.cls-11{fill:#f6b019;}.cls-12{fill:#bc6828;}.cls-13{fill:#326d1f;}.cls-14{stroke:#512609;stroke-width:0.28px;}.cls-14,.cls-33{stroke-linecap:round;stroke-linejoin:round;}.cls-15{fill:#63310f;}.cls-16{clip-path:url(#clip-path);}.cls-17{fill:#5e2e0d;opacity:0.53;}.cls-18{clip-path:url(#clip-path-2);}.cls-19{fill:#603415;}.cls-20{fill:#844b24;}.cls-21{fill:#944728;}.cls-22{fill:#fff;}.cls-23{fill:#ea15c2;}.cls-24{clip-path:url(#clip-path-3);}.cls-25{clip-path:url(#clip-path-4);}.cls-26{fill:#0489ad;}.cls-27{fill:#2aafd3;}.cls-28{clip-path:url(#clip-path-5);}.cls-29{clip-path:url(#clip-path-6);}.cls-30{fill:#ffc200;}.cls-31{fill:#fa0;opacity:0.31;}.cls-32{fill:#fff1ae;}.cls-33{stroke:#fff1ae;stroke-width:0.24px;}.cls-34{fill:#ffb600;}.cls-35{clip-path:url(#clip-path-7);}.cls-36{fill:#ff8080;}.cls-37{fill:#ff3636;}.cls-38{fill:#ff4848;}.cls-39{fill:#dd1f1f;}.cls-40{fill:#c11111;}.cls-41{fill:#d12c2c;}.cls-42{fill:#ff8f8f;}.cls-43,.cls-44{fill:#ffc2c2;}.cls-44{opacity:0.35;}.cls-45{fill:#0483a5;}</style><linearGradient id="linear-gradient" x1="105.56" y1="135.08" x2="92.73" y2="153.98" gradientTransform="matrix(0.99, 0.12, -0.12, 0.99, 48.57, -10.21)" gradientUnits="userSpaceOnUse"><stop offset="0.22" stop-color="#ef4136"/><stop offset="1" stop-color="#be1e2d" stop-opacity="0"/></linearGradient><clipPath id="clip-path"><path class="cls-1" d="M113.76,140.74s-2,4.2.51,5.33,9.4-4.36,11.73-9.65-.26-4.64-1-4.63A15.65,15.65,0,0,0,113.76,140.74Z"/></clipPath><clipPath id="clip-path-2"><path class="cls-2" d="M112.73,143.2c-.65-5.76,7.28-10.43,10.61-11.25s3.44.45,3.44.45a29.3,29.3,0,0,0-10,7C112.67,144.09,112.9,144.73,112.73,143.2Z"/></clipPath><clipPath id="clip-path-3"><path class="cls-3" d="M119.34,132a1.17,1.17,0,0,1,.86.12c.92.54,2.85,2.24,2,6.69a7.18,7.18,0,0,1-7.43,6.28c-1.72,0-3.08-3.19-2.76-6.09S115,133,119.34,132Z"/></clipPath><clipPath id="clip-path-4"><path class="cls-4" d="M122,144.56l.67-3-.67-.94c1-1.72,2.34-4.4,2.34-4.4s-3.61-5.79-4.76-5.21c0,0-5.94,2.44-5.35,6.78.46,3.37,2.09,4.17,3.44,4.18.21.11.75-.08,1,0,2.1.62,2.88-.73,2.88-.73l-2.4,4.44Z"/></clipPath><clipPath id="clip-path-5"><path class="cls-5" d="M124.06,138.15l1,.32,1.39,0s3.4-.52,1.93,1.38l-.82,2.08,1.21,8.54s-7.28,1.54-7.31,1.52-1.71-8.28-1.71-8.28l2.81-4.19Z"/></clipPath><clipPath id="clip-path-6"><path class="cls-6" d="M127,142.3a2.93,2.93,0,1,0-3.62,3.17l-.31,1.16,1.25-.13.3,0,1.25-.13-.52-1.06A2.92,2.92,0,0,0,127,142.3Zm-.69.08a2.23,2.23,0,1,1-2.48-2A2.23,2.23,0,0,1,126.35,142.38Z"/></clipPath><clipPath id="clip-path-7"><polygon class="cls-7" points="126.23 149.56 124.9 149.69 124.66 149.72 123.33 149.85 122.42 148.22 123.42 145.47 125.37 145.28 126.79 147.78 126.23 149.56"/></clipPath></defs><g id="Layer_38" data-name="Layer 38"><path class="cls-8" d="M123.46,139.71s2.46-.27,2.67-.92-2.73-.31-3.15.28S123.05,139.72,123.46,139.71Z"/><ellipse class="cls-8" cx="127.28" cy="140.64" rx="0.46" ry="2.57" transform="translate(-57.37 97.21) rotate(-34.62)"/><ellipse class="cls-8" cx="129.16" cy="142.68" rx="0.35" ry="1.04" transform="translate(-51.64 208.64) rotate(-67.89)"/><path class="cls-9" d="M129.48,141.42a4.19,4.19,0,0,1,3.65,3.47c.54,2.63-1.94,6.4-6,7.54a6,6,0,0,1-3.58-.07,3.15,3.15,0,0,1-2.38-2.47v0c-.06-.9,1.1-1,1.59-1.66C124.36,146.16,124.75,140.86,129.48,141.42Z"/><path class="cls-10" d="M129.48,141.42a4.19,4.19,0,0,1,3.65,3.47c.54,2.63-1.94,6.4-6,7.54a6,6,0,0,1-3.58-.07,3.15,3.15,0,0,1-2.38-2.47v0c-.06-.9,1.1-1,1.59-1.66C124.36,146.16,124.75,140.86,129.48,141.42Z"/><path class="cls-11" d="M129.58,142.54s.31.44,1.15.27"/><path class="cls-12" d="M130.27,142.74a5.28,5.28,0,0,0,1-3.38.24.24,0,0,0-.25-.22h0a.23.23,0,0,0-.23.28,4.72,4.72,0,0,1-.66,3.2.11.11,0,0,0,.06.16h0A.12.12,0,0,0,130.27,142.74Z"/><path class="cls-13" d="M130.09,142.72s1.15-1.79-1-3.53C129.1,139.19,128,141.77,130.09,142.72Z"/><path class="cls-8" d="M116.07,143s1,2.27,1.67,2.27-.52-2.7-1.21-2.92S115.94,142.62,116.07,143Z"/><ellipse class="cls-8" cx="116.32" cy="146.94" rx="2.57" ry="0.46" transform="translate(-71.08 148.07) rotate(-51.98)"/><ellipse class="cls-8" cx="114.94" cy="149.34" rx="1.04" ry="0.35" transform="translate(-43.41 251.52) rotate(-85.25)"/><path class="cls-8" d="M120.13,142.12s2.33.83,2.8.33-2.32-1.46-3-1.11S119.75,142,120.13,142.12Z"/><ellipse class="cls-8" cx="123.16" cy="144.61" rx="0.46" ry="2.57" transform="translate(-20.94 20.86) rotate(-8.92)"/><ellipse class="cls-8" cx="123.98" cy="147.27" rx="0.35" ry="1.04" transform="translate(-66.78 121.43) rotate(-42.19)"/><path class="cls-8" d="M124.86,140.08s2.41.56,2.82,0-2.47-1.19-3.06-.77S124.47,140,124.86,140.08Z"/><ellipse class="cls-8" cx="128.16" cy="142.21" rx="0.46" ry="2.57" transform="translate(-33.22 39.23) rotate(-15.43)"/><ellipse class="cls-8" cx="129.27" cy="144.76" rx="0.35" ry="1.04" transform="translate(-64.8 146.34) rotate(-48.7)"/><path class="cls-14" d="M127.67,131.11a1.69,1.69,0,0,0-1.24-2.71c-2.55-.6-4.73,2.8-6.16,1.75"/><path class="cls-14" d="M128.22,132.82s3,.67-.51,6.15,2.38,5.81,2.38,5.81"/><path class="cls-8" d="M119.48,145.07s1,2.26,1.67,2.27-.51-2.7-1.21-2.92S119.35,144.67,119.48,145.07Z"/><ellipse class="cls-8" cx="119.73" cy="148.98" rx="2.57" ry="0.46" transform="translate(-71.38 151.55) rotate(-51.98)"/><ellipse class="cls-8" cx="118.35" cy="151.39" rx="1.04" ry="0.35" transform="translate(-42.32 256.81) rotate(-85.25)"/><path class="cls-8" d="M122.29,142.45s2.42.47,2.81-.09-2.51-1.1-3.08-.66S121.89,142.33,122.29,142.45Z"/><ellipse class="cls-8" cx="125.65" cy="144.47" rx="0.46" ry="2.57" transform="translate(-37.39 44.08) rotate(-17.36)"/><ellipse class="cls-8" cx="126.85" cy="146.97" rx="0.35" ry="1.04" transform="matrix(0.63, -0.77, 0.77, 0.63, -67.23, 151.82)"/><path class="cls-15" d="M117.27,146.78s3,.05,5.82-3.43,4.12-7.45,3.52-8.71S117.81,141.24,117.27,146.78Z"/><path class="cls-1" d="M113.76,140.74s-2,4.2.51,5.33,9.4-4.36,11.73-9.65-.26-4.64-1-4.63A15.65,15.65,0,0,0,113.76,140.74Z"/><g class="cls-16"><path class="cls-17" d="M112,144.12a1.92,1.92,0,0,0,1.7-.7,23.38,23.38,0,0,0,2.07-2.56A30,30,0,0,1,124.1,134a4.63,4.63,0,0,0,2-1.76.6.6,0,0,0,.06-.23c0-.23-.28-.35-.5-.39a5.52,5.52,0,0,0-1.22-.07c-1.26,0-2.5.14-3.75.28a5,5,0,0,0-1.87.47,5.56,5.56,0,0,0-1.56,1.5c-1.1,1.34-2.33,2.57-3.38,3.95a11.18,11.18,0,0,0-2.29,4.61,1.28,1.28,0,0,0,.11,1c.12.14.3.26.28.44"/></g><path class="cls-2" d="M112.73,143.2c-.65-5.76,7.28-10.43,10.61-11.25s3.44.45,3.44.45a29.3,29.3,0,0,0-10,7C112.67,144.09,112.9,144.73,112.73,143.2Z"/><g class="cls-18"><path class="cls-19" d="M113.39,143.15a78.75,78.75,0,0,1,5.79-6.47,27.31,27.31,0,0,1,8-5,1,1,0,0,1,.84-.08.81.81,0,0,1,.36.56,3.2,3.2,0,0,1-.44,2.09,39.3,39.3,0,0,1-2.33,4.15,26,26,0,0,1-6,7.12,5.22,5.22,0,0,1-1.26.76,5.48,5.48,0,0,1-2.28.24,4.54,4.54,0,0,1-3.39-1.29c-.25-.33-.58-1-.36-1.4.11-.19.3-.21.48-.29A1.65,1.65,0,0,0,113.39,143.15Z"/></g><path class="cls-2" d="M126.73,132.2s-6.4,3.36-9.45,6.9-3.56,5.06-3.87,6.5,1.88,5.08,7.62-1.5C125.07,139.48,127.74,134.55,126.73,132.2Z"/><ellipse class="cls-20" cx="115.36" cy="142.58" rx="2.93" ry="0.23" transform="translate(-66.05 169.55) rotate(-59.48)"/><ellipse class="cls-20" cx="113.8" cy="145.59" rx="0.37" ry="0.18" transform="translate(-57.26 215.49) rotate(-74.21)"/><path class="cls-20" d="M115.17,145.73a23.33,23.33,0,0,1,5-8.32c3.44-3.47,6.27-3.88,6.27-3.88s-4.38,4.38-5.37,8.61c0,0-.6-2.14,2.55-6.52C123.57,135.62,119.32,137.38,115.17,145.73Z"/><path class="cls-20" d="M114.94,141.26s-2.25,2.75-2,1.69C113,143,113.48,142.87,114.94,141.26Z"/><path class="cls-20" d="M126,132.13s-8.84,5.46-10.68,5.8c0,0,5.62-2.79,6.94-4.09a3.62,3.62,0,0,1-1.94.07A26.58,26.58,0,0,0,126,132.13Z"/><path class="cls-15" d="M126.76,131.69s-4.18,2.06-4.62,3.2.62,6,3.17,4.28S128.47,132.59,126.76,131.69Z"/><path class="cls-15" d="M122.44,134.44s-1.61-1-1.11-2.28,4.39-2.33,5.25-1.35a2,2,0,0,1,.5,1.75S125,136,122.44,134.44Z"/><path class="cls-8" d="M122.61,134.16s2.86-2.21,4.39-2.11C127,132.05,125.15,131.39,122.61,134.16Z"/><ellipse class="cls-21" cx="126.46" cy="132.67" rx="1.93" ry="2.56" transform="translate(-25.26 29.84) rotate(-12.25)"/><ellipse cx="126.79" cy="133.79" rx="0.96" ry="0.78" transform="translate(-48.72 190.11) rotate(-64.33)"/><ellipse class="cls-22" cx="126.38" cy="133.93" rx="0.31" ry="0.25" transform="translate(-49.08 189.82) rotate(-64.33)"/><path d="M126.07,130.31c.4.08.68.34.63.57s-.41.35-.8.27-.68-.31-.63-.54S125.68,130.22,126.07,130.31Z"/><ellipse class="cls-22" cx="125.51" cy="130.63" rx="0.13" ry="0.16" transform="translate(-46.59 187.16) rotate(-64.33)"/><path class="cls-23" d="M122.06,139.43s3,.77,3.11,1.36-.87,1.7-.87,1.7a29.09,29.09,0,0,0-3-1.32C120.73,141.06,121.38,139.85,122.06,139.43Z"/><path class="cls-23" d="M119,143.36a13.19,13.19,0,0,1,.46,2.87c-.07.8-1.33,1.11-1.46.7s-.76-2.82-.76-2.82Z"/><path class="cls-3" d="M119.34,132a1.17,1.17,0,0,1,.86.12c.92.54,2.85,2.24,2,6.69a7.18,7.18,0,0,1-7.43,6.28c-1.72,0-3.08-3.19-2.76-6.09S115,133,119.34,132Z"/><g class="cls-24"><path class="cls-4" d="M122,144.56l.67-3-.67-.94c1-1.72,2.34-4.4,2.34-4.4s-3.61-5.79-4.76-5.21c0,0-5.94,2.44-5.35,6.78.46,3.37,2.09,4.17,3.44,4.18.21.11.75-.08,1,0,2.1.62,2.88-.73,2.88-.73l-2.4,4.44Z"/><g class="cls-25"><path class="cls-26" d="M118.75,144.08a9.45,9.45,0,0,0-1.16-3.86,4.41,4.41,0,0,0-1.41-1.73,4.75,4.75,0,0,0-3.33-.33,14.38,14.38,0,0,0-1.73.37,4.5,4.5,0,0,0-1.73.8,3.65,3.65,0,0,0-.87,3.67,6.74,6.74,0,0,0,2,3.09,12.05,12.05,0,0,0,3.1,2,5,5,0,0,0,2.25.63C118.1,148.67,118.84,145.91,118.75,144.08Z"/><path class="cls-27" d="M116.11,137.5a2.08,2.08,0,0,1-.63.43,2.48,2.48,0,0,1-.67.12,20.88,20.88,0,0,1-2.74,0,.77.77,0,0,1-.66-.26.61.61,0,0,1-.1-.33c-.2-1.66.74-3.23,1.77-4.55.46-.6,1-1.19,1.48-1.75a2.77,2.77,0,0,1,2.23-1.08c1.59-.16,3.69.44,2.87,2.38A14.14,14.14,0,0,1,116.11,137.5Z"/></g><path class="cls-4" d="M110.08,142.45a18.84,18.84,0,0,1,3.7-6.21,4.92,4.92,0,0,0-.16,2.58,6.8,6.8,0,0,0,1.77,3.18.89.89,0,0,0-.66.33,5.92,5.92,0,0,0-1.79,3.23,8.32,8.32,0,0,1-2.82-2.62"/></g><g class="cls-28"><path class="cls-6" d="M127,142.3a2.93,2.93,0,1,0-3.62,3.17l-.31,1.16,1.25-.13.3,0,1.25-.13-.52-1.06A2.92,2.92,0,0,0,127,142.3Zm-.69.08a2.23,2.23,0,1,1-2.48-2A2.23,2.23,0,0,1,126.35,142.38Z"/><g class="cls-29"><rect class="cls-30" x="122.38" y="146.23" width="4.29" height="0.58" transform="translate(-14.07 13.23) rotate(-5.76)"/><circle class="cls-31" cx="124.13" cy="142.63" r="2.48" transform="translate(-61.82 176.93) rotate(-59.42)"/></g><ellipse class="cls-32" cx="122.68" cy="145" rx="0.1" ry="0.48" transform="translate(-65.32 172.07) rotate(-57.96)"/><ellipse class="cls-32" cx="122.11" cy="144.54" rx="0.09" ry="0.22" transform="translate(-63.13 105.96) rotate(-38.04)"/><path class="cls-33" d="M121.42,143.06a2.92,2.92,0,0,1,1.91-3.12"/><ellipse class="cls-34" cx="124.41" cy="145.37" rx="2.25" ry="0.28" transform="translate(-13.96 13.21) rotate(-5.76)"/><polygon class="cls-7" points="126.23 149.56 124.9 149.69 124.66 149.72 123.33 149.85 122.42 148.22 123.42 145.47 125.37 145.28 126.79 147.78 126.23 149.56"/><g class="cls-35"><path class="cls-36" d="M122,147.36l1.67.54.35,1.63-1,.44-.92-.47Z"/><path class="cls-37" d="M126.9,146.87l-1.52.86,0,1.67,1,.24.81-.64Z"/><path class="cls-38" d="M122,148.35s1.75-.46,1.75-.46L124,145l-1.38.26Z"/><path class="cls-39" d="M127.2,147.82l-1.81-.09-.82-2.83,1.41,0Z"/><polygon class="cls-40" points="123.69 147.9 125.39 147.73 124.72 145.34 123.91 145.42 123.69 147.9"/><polygon class="cls-41" points="124.04 149.53 125.36 149.4 125.39 147.73 123.69 147.9 124.04 149.53"/></g><ellipse class="cls-42" cx="124.7" cy="149.59" rx="0.73" ry="0.06" transform="translate(-14.38 13.26) rotate(-5.76)"/><ellipse class="cls-43" cx="123.1" cy="149.03" rx="0.14" ry="0.69" transform="translate(-52.46 68.14) rotate(-25.7)"/><ellipse class="cls-44" cx="123.19" cy="146.84" rx="1.13" ry="0.19" transform="translate(-54.98 217.49) rotate(-71.63)"/></g><path class="cls-23" d="M121.53,141.24l1.15.48,2.34-1.14s-.13-.29-2.17-.93l-.69.34Z"/><path class="cls-45" d="M119.81,131.93s3.23-4.13,4.83-.93,3.74,8.33.06,9.73-3.62,1.12-3.62,1.12S124.82,134.5,119.81,131.93Z"/></g></svg>