<svg xmlns="http://www.w3.org/2000/svg" viewBox="0 0 260 168"><defs><style>.cls-1{fill:#2dbef7;}.cls-2{fill:none;stroke:#512609;stroke-linecap:round;stroke-linejoin:round;stroke-width:0.18px;}.cls-3{fill:#5e3315;}.cls-4{fill:#56290b;}.cls-5{fill:#753a12;}.cls-6{fill:#63310f;}.cls-7{fill:#944728;}.cls-8{fill:#fff;}.cls-9{fill:#ea15c2;}.cls-10{fill:#b71833;}</style></defs><g id="_3" data-name="3"><ellipse class="cls-1" cx="140.18" cy="81.17" rx="3.92" ry="4.26"/><path class="cls-2" d="M139.28,74a1.11,1.11,0,0,0-1.45-1.31c-1.7.31-2.13,2.93-3.27,2.66"/><path class="cls-2" d="M140.74,74a1.11,1.11,0,0,1,1.45-1.31c1.7.31,2.13,2.93,3.27,2.66"/><path class="cls-3" d="M138.31,74.88s-3.13,3.75-1.38,10c0,0,1.41,4.21,3.34-.75l.19-9.23Z"/><path class="cls-3" d="M142.11,74.88s3.13,3.75,1.38,10c0,0-1.42,4.21-3.34-.75L140,74.88Z"/><path class="cls-4" d="M141.69,83.3s1.18,1.11,1.6.94-1-1.5-1.49-1.45S141.5,83.1,141.69,83.3Z"/><ellipse class="cls-4" cx="142.86" cy="85.6" rx="1.69" ry="0.3" transform="matrix(0.25, -0.97, 0.97, 0.25, 23.86, 202.12)"/><ellipse class="cls-4" cx="142.65" cy="87.42" rx="0.23" ry="0.68" transform="translate(-20.43 50.06) rotate(-18.6)"/><path class="cls-4" d="M138.85,83.3s-1.19,1.11-1.6.94,1-1.5,1.49-1.45S139,83.1,138.85,83.3Z"/><ellipse class="cls-4" cx="137.68" cy="85.6" rx="0.3" ry="1.69" transform="matrix(0.97, -0.25, 0.25, 0.97, -17.19, 37.66)"/><ellipse class="cls-4" cx="137.88" cy="87.42" rx="0.68" ry="0.23" transform="translate(11.05 190.22) rotate(-71.4)"/><ellipse class="cls-5" cx="140.13" cy="79.5" rx="2.76" ry="5.6"/><ellipse class="cls-6" cx="140.18" cy="75.89" rx="2.91" ry="1.89"/><ellipse class="cls-7" cx="140.15" cy="74.88" rx="2.05" ry="1.24"/><ellipse cx="139.14" cy="74.7" rx="0.45" ry="0.7" transform="translate(-12.18 29.52) rotate(-11.61)"/><ellipse class="cls-8" cx="138.84" cy="74.43" rx="0.11" ry="0.15"/><ellipse cx="141.2" cy="74.7" rx="0.7" ry="0.45" transform="translate(39.62 197.98) rotate(-78.39)"/><ellipse class="cls-8" cx="141.49" cy="74.43" rx="0.11" ry="0.15"/><path class="cls-4" d="M142.42,82.17s1.61.26,1.85-.12-1.68-.67-2-.37S142.16,82.1,142.42,82.17Z"/><ellipse class="cls-4" cx="144.68" cy="83.42" rx="0.3" ry="1.69" transform="translate(-19.48 52.71) rotate(-19.37)"/><ellipse class="cls-4" cx="145.53" cy="85.04" rx="0.23" ry="0.68" transform="translate(-10.37 149.11) rotate(-52.64)"/><path class="cls-4" d="M142.8,81s1.57.41,1.85.06-1.6-.83-2-.56S142.54,80.88,142.8,81Z"/><ellipse class="cls-4" cx="144.93" cy="82.43" rx="0.3" ry="1.69" transform="translate(-15.58 37.31) rotate(-13.93)"/><ellipse class="cls-4" cx="145.62" cy="84.12" rx="0.23" ry="0.68" transform="translate(-15.05 133.81) rotate(-47.2)"/><path class="cls-4" d="M138.06,82.17s-1.61.26-1.85-.12,1.68-.67,2-.37S138.33,82.1,138.06,82.17Z"/><ellipse class="cls-4" cx="135.8" cy="83.42" rx="1.69" ry="0.3" transform="translate(12.06 183.86) rotate(-70.63)"/><ellipse class="cls-4" cx="134.95" cy="85.04" rx="0.68" ry="0.23" transform="translate(-23.92 99.33) rotate(-37.36)"/><path class="cls-4" d="M137.32,81s-1.58.41-1.86.06,1.61-.83,2-.56S137.58,80.88,137.32,81Z"/><ellipse class="cls-4" cx="135.19" cy="82.43" rx="1.69" ry="0.3" transform="translate(22.64 193.8) rotate(-76.07)"/><ellipse class="cls-4" cx="134.5" cy="84.12" rx="0.68" ry="0.23" transform="translate(-21.34 113.78) rotate(-42.8)"/><path class="cls-9" d="M136.55,78.78a2.34,2.34,0,0,1,2,1.93c.44,1.82-1.88,3.15-1.88,3.15s-.43-.68-.18-1.07,1.49-.73,1.18-2-1.21-1-1.21-1S136,79.09,136.55,78.78Z"/><path class="cls-9" d="M143.71,78.74a2.34,2.34,0,0,0-1.92,2c-.36,1.84,2,3.06,2,3.06s.4-.69.13-1.07-1.52-.67-1.26-2,1.15-1,1.15-1S144.32,79,143.71,78.74Z"/><ellipse class="cls-7" cx="140.13" cy="79.38" rx="1.65" ry="0.29"/><ellipse class="cls-7" cx="140.13" cy="81.45" rx="0.95" ry="0.17"/><path class="cls-10" d="M140.71,76.62l-.25-.14h0c-.27,0-.54.11-.81.15a1.45,1.45,0,0,1-1.12-.33,6.47,6.47,0,0,0-.79,3.24c0,2.55,1.19,4.62,2.65,4.62S143,82.09,143,79.54a6.92,6.92,0,0,0-.6-2.85A1.93,1.93,0,0,1,140.71,76.62Z"/><path class="cls-4" d="M143,76.87s1.27,1,1.16,1.45-1.63-.79-1.65-1.27S142.78,76.72,143,76.87Z"/><ellipse class="cls-4" cx="143.06" cy="79.41" rx="1.69" ry="0.3" transform="translate(-12.47 130.24) rotate(-47.13)"/><ellipse class="cls-4" cx="141.64" cy="80.56" rx="0.68" ry="0.23" transform="translate(-15.17 36.28) rotate(-13.86)"/><path class="cls-4" d="M137.42,76.87s-1.28,1-1.17,1.45,1.63-.79,1.65-1.27S137.64,76.72,137.42,76.87Z"/><ellipse class="cls-4" cx="137.36" cy="79.41" rx="0.3" ry="1.69" transform="translate(-17.34 114.66) rotate(-42.87)"/><ellipse class="cls-4" cx="138.78" cy="80.56" rx="0.23" ry="0.68" transform="translate(27.32 196) rotate(-76.14)"/></g></svg>