<svg xmlns="http://www.w3.org/2000/svg" xmlns:xlink="http://www.w3.org/1999/xlink" viewBox="0 0 260 168"><defs><style>.cls-1{fill:#7c4d23;}.cls-2{fill:#6d3e18;}.cls-3{fill:#62d8f4;}.cls-27,.cls-4,.cls-8{fill:none;}.cls-5{fill:#ffec00;}.cls-6{fill:red;}.cls-7{fill:#56290b;}.cls-8{stroke:#512609;stroke-width:0.3px;}.cls-27,.cls-8{stroke-linecap:round;stroke-linejoin:round;}.cls-9{fill:#63310f;}.cls-10{clip-path:url(#clip-path);}.cls-11{fill:#5e2e0d;opacity:0.53;}.cls-12{clip-path:url(#clip-path-2);}.cls-13{fill:#603415;}.cls-14{fill:#844b24;}.cls-15{fill:#944728;}.cls-16{fill:#fff;}.cls-17{fill:#ea15c2;}.cls-18{clip-path:url(#clip-path-3);}.cls-19{fill:#1e9bc6;}.cls-20{fill:#2dbef7;}.cls-21{fill:#eddd14;}.cls-22{clip-path:url(#clip-path-4);}.cls-23{clip-path:url(#clip-path-5);}.cls-24{fill:#ffc200;}.cls-25{fill:#fa0;opacity:0.31;}.cls-26{fill:#fff1ae;}.cls-27{stroke:#fff1ae;stroke-width:0.34px;}.cls-28{fill:#ffb600;}.cls-29{clip-path:url(#clip-path-6);}.cls-30{fill:#ff8080;}.cls-31{fill:#ff3636;}.cls-32{fill:#ff4848;}.cls-33{fill:#dd1f1f;}.cls-34{fill:#c11111;}.cls-35{fill:#d12c2c;}.cls-36{fill:#ff8f8f;}.cls-37,.cls-38{fill:#ffc2c2;}.cls-38{opacity:0.35;}</style><clipPath id="clip-path"><path class="cls-1" d="M168.77,146.44s-.22,5.05,2.75,5.14,7.6-8.33,7.72-14.61-2.21-4.55-2.9-4.25A17,17,0,0,0,168.77,146.44Z"/></clipPath><clipPath id="clip-path-2"><path class="cls-2" d="M168.77,149.35c-3.07-5.52,2.93-13.53,5.92-15.75s3.64-1,3.64-1a31.94,31.94,0,0,0-7.11,11.25C169.09,150.26,169.58,150.81,168.77,149.35Z"/></clipPath><clipPath id="clip-path-3"><path class="cls-3" d="M170.68,135.28a1.2,1.2,0,0,1,.91-.24c1.15.15,3.8,1.05,4.85,5.85a7.8,7.8,0,0,1-4.81,9.43c-1.72.74-4.44-1.91-5.33-5S166.79,138.19,170.68,135.28Z"/></clipPath><clipPath id="clip-path-4"><path class="cls-4" d="M176.55,141.64a14.3,14.3,0,0,1,3.3-.13h.91l-.09,2.44-2.74-.28s-1,0-1.25,0L174,158.11l8.75.91,4.84-5.87-.9-11.66-1.4-1.72-5.13-.92-2.36.25Z"/></clipPath><clipPath id="clip-path-5"><path class="cls-5" d="M184.68,142.28a4.07,4.07,0,1,0-3.81,5.51l0,1.66,1.64-.6.39-.14,1.65-.59-1.07-1.26A4.09,4.09,0,0,0,184.68,142.28Zm-.9.34a3.12,3.12,0,1,1-4-1.82A3.11,3.11,0,0,1,183.78,142.62Z"/></clipPath><clipPath id="clip-path-6"><polygon class="cls-6" points="186.04 152.35 184.3 152.98 183.98 153.1 182.24 153.73 180.46 151.83 180.87 147.79 183.44 146.86 186.2 149.76 186.04 152.35"/></clipPath></defs><g id="_9" data-name="9"><path class="cls-7" d="M179.28,141s2.61.63,3.06,0-2.67-1.33-3.32-.87S178.85,140.83,179.28,141Z"/><ellipse class="cls-7" cx="182.84" cy="143.33" rx="0.5" ry="2.8" transform="translate(-30.61 51.61) rotate(-14.84)"/><ellipse class="cls-7" cx="184.02" cy="146.11" rx="0.38" ry="1.13" transform="translate(-47.62 185.54) rotate(-48.11)"/><path class="cls-7" d="M176,137.12s2.68.27,3-.38-2.83-.94-3.41-.4S175.59,137,176,137.12Z"/><ellipse class="cls-7" cx="179.89" cy="138.96" rx="0.5" ry="2.8" transform="translate(-39.88 80.88) rotate(-22.88)"/><ellipse class="cls-7" cx="181.45" cy="141.55" rx="0.38" ry="1.13" transform="translate(-37.17 213.41) rotate(-56.15)"/><path class="cls-8" d="M178.69,130.93a1.84,1.84,0,0,0-2.38-2.2c-2.82.48-3.57,4.8-5.45,4.35"/><path class="cls-8" d="M180,132.42s3.28-.59,2.07,6.39,4.83,4.83,4.83,4.83"/><path class="cls-7" d="M176.33,148.38s1.94,1.86,2.63,1.58-1.65-2.49-2.44-2.42S176,148,176.33,148.38Z"/><ellipse class="cls-7" cx="178.23" cy="152.21" rx="2.8" ry="0.5" transform="translate(-15.65 283.9) rotate(-74.68)"/><ellipse class="cls-7" cx="177.85" cy="155.21" rx="0.38" ry="1.13" transform="translate(-39.18 62.38) rotate(-17.95)"/><path class="cls-7" d="M171.79,147.26s1.66,2.11,2.38,1.93-1.28-2.7-2.07-2.74S171.54,146.88,171.79,147.26Z"/><ellipse class="cls-7" cx="173.13" cy="151.31" rx="2.8" ry="0.5" transform="translate(-34.42 250.26) rotate(-66.64)"/><ellipse class="cls-7" cx="172.34" cy="154.23" rx="0.38" ry="1.13" transform="translate(-23.98 31.97) rotate(-9.91)"/><path class="cls-7" d="M177.75,144.53s2.6.7,3.06.13-2.63-1.4-3.29-1S177.33,144.37,177.75,144.53Z"/><ellipse class="cls-7" cx="181.25" cy="146.98" rx="0.5" ry="2.8" transform="translate(-28.93 45.59) rotate(-13.29)"/><ellipse class="cls-7" cx="182.35" cy="149.79" rx="0.38" ry="1.13" transform="translate(-51.8 179.19) rotate(-46.56)"/><path class="cls-9" d="M174.83,151s3-1.21,4.4-5.89,1-9.2-.13-10.21S173.05,145.24,174.83,151Z"/><path class="cls-1" d="M168.77,146.44s-.22,5.05,2.75,5.14,7.6-8.33,7.72-14.61-2.21-4.55-2.9-4.25A17,17,0,0,0,168.77,146.44Z"/><g class="cls-10"><path class="cls-11" d="M168.42,150.58c.69-.11,1.14-.78,1.42-1.42a27.11,27.11,0,0,0,1-3.44,32.61,32.61,0,0,1,5.49-10.36,5,5,0,0,0,1.21-2.58.42.42,0,0,0,0-.25c-.11-.23-.42-.24-.66-.19a6.28,6.28,0,0,0-1.26.44c-1.25.56-2.45,1.2-3.64,1.86a5.35,5.35,0,0,0-1.68,1.25,6.2,6.2,0,0,0-.94,2.17c-.55,1.8-1.25,3.56-1.74,5.38a12.51,12.51,0,0,0-.36,5.6,1.33,1.33,0,0,0,.55,1c.17.1.4.15.46.33"/></g><path class="cls-2" d="M168.77,149.35c-3.07-5.52,2.93-13.53,5.92-15.75s3.64-1,3.64-1a31.94,31.94,0,0,0-7.11,11.25C169.09,150.26,169.58,150.81,168.77,149.35Z"/><g class="cls-12"><path class="cls-13" d="M169.41,149a80.94,80.94,0,0,1,3.1-8.93,29.7,29.7,0,0,1,6-8.37,1.15,1.15,0,0,1,.81-.43.87.87,0,0,1,.6.41,3.49,3.49,0,0,1,.44,2.28,44.35,44.35,0,0,1-.59,5.15,28.62,28.62,0,0,1-3.07,9.68,5.73,5.73,0,0,1-1,1.29,5.93,5.93,0,0,1-2.19,1.2,4.88,4.88,0,0,1-3.94.12c-.39-.21-1-.74-.95-1.25,0-.23.21-.34.36-.49A1.8,1.8,0,0,0,169.41,149Z"/></g><path class="cls-2" d="M178.21,132.43s-5,6.06-6.59,10.88-1.46,6.58-1.16,8.16,4,4.3,7-4.71C179.59,140.43,180.2,134.36,178.21,132.43Z"/><ellipse class="cls-14" cx="171.14" cy="147.62" rx="3.19" ry="0.25" transform="translate(1.62 297.1) rotate(-82.18)"/><ellipse class="cls-14" cx="170.85" cy="151.3" rx="0.19" ry="0.4" transform="translate(-16.97 21.67) rotate(-6.91)"/><path class="cls-14" d="M172.28,150.85a25.36,25.36,0,0,1,1.48-10.43c2-4.92,4.65-6.52,4.65-6.52s-2.54,6.23-1.76,10.9c0,0-1.51-1.9-.19-7.62C176.46,137.18,172.94,140.74,172.28,150.85Z"/><path class="cls-14" d="M170.17,146.47s-1.1,3.7-1.26,2.52C168.91,149,169.39,148.7,170.17,146.47Z"/><path class="cls-14" d="M177.48,132.65s-6.58,9.18-8.28,10.3c0,0,4.46-5.16,5.24-7a3.9,3.9,0,0,1-1.91.88S176.25,134.28,177.48,132.65Z"/><path class="cls-9" d="M178,131.9s-3.34,3.82-3.3,5.15,3.15,5.77,5,3S180.11,132.08,178,131.9Z"/><path class="cls-9" d="M174.83,136.47s-2-.28-2.06-1.82,3.42-4.18,4.7-3.56a2.1,2.1,0,0,1,1.23,1.55S178,136.93,174.83,136.47Z"/><path class="cls-7" d="M174.89,136.12s1.94-3.42,3.53-4C178.42,132.16,176.27,132.27,174.89,136.12Z"/><ellipse class="cls-15" cx="178.13" cy="133.01" rx="2.1" ry="2.78" transform="translate(-44.07 126.02) rotate(-34.95)"/><ellipse cx="178.93" cy="133.99" rx="1.05" ry="0.85" transform="translate(35.85 305.74) rotate(-87.03)"/><ellipse class="cls-16" cx="178.58" cy="134.3" rx="0.34" ry="0.28" transform="translate(35.21 305.69) rotate(-87.03)"/><path d="M176.75,130.8c.43-.08.82.06.87.31s-.26.53-.7.61-.8,0-.85-.28S176.32,130.88,176.75,130.8Z"/><ellipse class="cls-16" cx="176.32" cy="131.35" rx="0.14" ry="0.17" transform="translate(36.01 300.63) rotate(-87.03)"/><path class="cls-17" d="M176.55,141.64s3.31-.47,3.7.06-.17,2.08-.17,2.08a29.2,29.2,0,0,0-3.56-.07C175.89,143.84,176,142.35,176.55,141.64Z"/><path class="cls-17" d="M175.12,146.88a14.31,14.31,0,0,1,1.67,2.68c.26.84-.88,1.68-1.17,1.32s-2-2.51-2-2.51Z"/><path class="cls-3" d="M170.68,135.28a1.2,1.2,0,0,1,.91-.24c1.15.15,3.8,1.05,4.85,5.85a7.8,7.8,0,0,1-4.81,9.43c-1.72.74-4.44-1.91-5.33-5S166.79,138.19,170.68,135.28Z"/><g class="cls-18"><path class="cls-19" d="M176.24,149.14l.93-4.49A4.41,4.41,0,0,1,174,146a3.13,3.13,0,0,1-3.23-1.43l4-3.08,3.26,2,.58,3.29Z"/><path class="cls-20" d="M170.48,134.25s-4.93,4.94-2.51,9.05,5,3.13,6.21,2.15,2.14-1.46,2.41-.81.86-7.16.86-7.16S171.4,133.18,170.48,134.25Z"/><ellipse class="cls-21" cx="168.95" cy="142.53" rx="0.68" ry="1.13" transform="translate(-46.27 92.12) rotate(-26.97)"/><path class="cls-19" d="M165.8,149.71a20.48,20.48,0,0,1,1.1-7.8,5.32,5.32,0,0,0,.92,2.67,7.48,7.48,0,0,0,3.11,2.44,1,1,0,0,0-.52.61,6.47,6.47,0,0,0-.44,4,9.09,9.09,0,0,1-3.93-1.45"/></g><g class="cls-22"><path class="cls-5" d="M184.68,142.28a4.07,4.07,0,1,0-3.81,5.51l0,1.66,1.64-.6.39-.14,1.65-.59-1.07-1.26A4.09,4.09,0,0,0,184.68,142.28Zm-.9.34a3.12,3.12,0,1,1-4-1.82A3.11,3.11,0,0,1,183.78,142.62Z"/><g class="cls-23"><rect class="cls-24" x="179.73" y="148.42" width="5.97" height="0.8" transform="translate(-39.7 70.94) rotate(-19.87)"/><circle class="cls-25" cx="180.87" cy="143.72" r="3.46"/></g><ellipse class="cls-26" cx="179.72" cy="147.41" rx="0.14" ry="0.66" transform="translate(-15.86 273) rotate(-72.07)"/><ellipse class="cls-26" cx="178.79" cy="146.97" rx="0.13" ry="0.31" transform="translate(-46.97 197.96) rotate(-52.15)"/><path class="cls-27" d="M177.35,145.21a4.08,4.08,0,0,1,1.52-4.86"/><ellipse class="cls-28" cx="182.17" cy="147.32" rx="3.13" ry="0.4" transform="translate(-39.22 70.67) rotate(-19.87)"/><polygon class="cls-6" points="186.04 152.35 184.3 152.98 183.98 153.1 182.24 153.73 180.46 151.83 180.87 147.79 183.44 146.86 186.2 149.76 186.04 152.35"/><g class="cls-29"><path class="cls-30" d="M179.63,150.81l2.42.17,1,2.08-1.15.91-1.4-.32Z"/><path class="cls-31" d="M186,148.49s-1.76,1.68-1.76,1.68l.54,2.26,1.46,0,.87-1.14Z"/><path class="cls-32" d="M179.88,152.16s2.21-1.2,2.21-1.2l-.68-4-1.78.81Z"/><path class="cls-33" d="M186.76,149.68s-2.47.48-2.47.48l-2.06-3.54,1.89-.51Z"/><polygon class="cls-34" points="182.05 150.97 184.29 150.16 182.58 147.17 181.52 147.55 182.05 150.97"/><polygon class="cls-35" points="183.08 153.06 184.82 152.43 184.29 150.16 182.05 150.97 183.08 153.06"/></g><ellipse class="cls-36" cx="183.99" cy="152.9" rx="1.01" ry="0.08" transform="translate(-41.01 71.62) rotate(-19.87)"/><ellipse class="cls-37" cx="181.65" cy="152.7" rx="0.2" ry="0.96" transform="translate(-55.65 151.7) rotate(-39.81)"/><ellipse class="cls-38" cx="181.03" cy="149.71" rx="1.57" ry="0.26" transform="translate(18.29 319.12) rotate(-85.74)"/></g></g></svg>