<svg xmlns="http://www.w3.org/2000/svg" xmlns:xlink="http://www.w3.org/1999/xlink" viewBox="0 0 260 168"><defs><style>.cls-1{fill:#7c4d23;}.cls-2{fill:#6d3e18;}.cls-3{fill:#62d8f4;}.cls-13,.cls-32,.cls-4{fill:none;}.cls-5{fill:#ffec00;}.cls-6{fill:red;}.cls-7{fill:#56290b;}.cls-8{fill:#fcd212;}.cls-9{fill:url(#linear-gradient);}.cls-10{fill:#f6b019;}.cls-11{fill:#bc6828;}.cls-12{fill:#326d1f;}.cls-13{stroke:#512609;stroke-width:0.26px;}.cls-13,.cls-32{stroke-linecap:round;stroke-linejoin:round;}.cls-14{fill:#63310f;}.cls-15{clip-path:url(#clip-path);}.cls-16{fill:#5e2e0d;opacity:0.53;}.cls-17{clip-path:url(#clip-path-2);}.cls-18{fill:#603415;}.cls-19{fill:#844b24;}.cls-20{fill:#944728;}.cls-21{fill:#fff;}.cls-22{fill:#ea15c2;}.cls-23{clip-path:url(#clip-path-3);}.cls-24{fill:#1e9bc6;}.cls-25{fill:#2eb6db;}.cls-26{fill:#eddd14;}.cls-27{clip-path:url(#clip-path-4);}.cls-28{clip-path:url(#clip-path-5);}.cls-29{fill:#ffc200;}.cls-30{fill:#fa0;opacity:0.31;}.cls-31{fill:#fff1ae;}.cls-32{stroke:#fff1ae;stroke-width:0.22px;}.cls-33{fill:#ffb600;}.cls-34{clip-path:url(#clip-path-6);}.cls-35{fill:#ff8080;}.cls-36{fill:#ff3636;}.cls-37{fill:#ff4848;}.cls-38{fill:#dd1f1f;}.cls-39{fill:#c11111;}.cls-40{fill:#d12c2c;}.cls-41{fill:#ff8f8f;}.cls-42,.cls-43{fill:#ffc2c2;}.cls-43{opacity:0.35;}</style><linearGradient id="linear-gradient" x1="251.75" y1="32.91" x2="238.1" y2="53.02" gradientTransform="matrix(0.94, -0.34, 0.34, 0.94, -131.92, 139.85)" gradientUnits="userSpaceOnUse"><stop offset="0.22" stop-color="#ef4136"/><stop offset="1" stop-color="#be1e2d" stop-opacity="0"/></linearGradient><clipPath id="clip-path"><path class="cls-1" d="M95,108.87s-.54,4.24,2,4.52,7-6.49,7.53-11.78-1.55-4-2.15-3.79A14.37,14.37,0,0,0,95,108.87Z"/></clipPath><clipPath id="clip-path-2"><path class="cls-2" d="M94.77,111.32c-2.21-4.86,3.41-11.21,6.09-12.87s3.14-.59,3.14-.59a26.9,26.9,0,0,0-6.78,9C95,112.12,95.35,112.61,94.77,111.32Z"/></clipPath><clipPath id="clip-path-3"><path class="cls-3" d="M97.36,99.58a1.06,1.06,0,0,1,.78-.14c1,.22,3.14,1.15,3.69,5.28a6.62,6.62,0,0,1-4.72,7.62c-1.5.51-3.61-1.92-4.15-4.55S93.87,101.77,97.36,99.58Z"/></clipPath><clipPath id="clip-path-4"><path class="cls-4" d="M103.55,105.35h-1.46l1,1.84.75.1-.37,1.82-6.21,5s-4.63-5-4.63-5.08,5.77-5.25,5.77-5.25L103,104Z"/></clipPath><clipPath id="clip-path-5"><path class="cls-5" d="M102.89,108.87a2.7,2.7,0,1,0-4.21-1.39l-1.06.3.69.93.16.23.69.93.6-.92A2.69,2.69,0,0,0,102.89,108.87Zm-.38-.51a2.06,2.06,0,1,1,.4-2.89A2.06,2.06,0,0,1,102.51,108.36Z"/></clipPath><clipPath id="clip-path-6"><polygon class="cls-6" points="96.75 111.63 96.03 110.64 95.89 110.46 95.17 109.47 96.03 107.98 98.68 107.48 99.75 108.94 98.43 111.24 96.75 111.63"/></clipPath></defs><g id="_4" data-name="4"><path class="cls-7" d="M105,104.73s.26-2.26-.29-2.58-.83,2.39-.38,2.88S105,105.11,105,104.73Z"/><ellipse class="cls-7" cx="106.64" cy="101.49" rx="2.37" ry="0.43" transform="translate(-30.22 47.24) rotate(-21.96)"/><ellipse class="cls-7" cx="108.85" cy="100.21" rx="0.95" ry="0.32" transform="matrix(0.57, -0.82, 0.82, 0.57, -35.54, 132.47)"/><path class="cls-8" d="M111.31,93.64a4.5,4.5,0,0,1,5.13,1.56c1.78,2.24,1.23,7-2,10a6.51,6.51,0,0,1-3.43,1.66,3.38,3.38,0,0,1-3.45-1.22v0c-.49-.82.55-1.49.71-2.34C108.72,100.61,106.55,95.38,111.31,93.64Z"/><path class="cls-9" d="M111.31,93.64a4.5,4.5,0,0,1,5.13,1.56c1.78,2.24,1.23,7-2,10a6.51,6.51,0,0,1-3.43,1.66,3.38,3.38,0,0,1-3.45-1.22v0c-.49-.82.55-1.49.71-2.34C108.72,100.61,106.55,95.38,111.31,93.64Z"/><path class="cls-10" d="M111.94,94.66a1.18,1.18,0,0,0,1.23-.29"/><path class="cls-11" d="M112.69,94.52a5.61,5.61,0,0,0-.69-3.67.26.26,0,0,0-.35-.09h0a.26.26,0,0,0-.09.38,4.89,4.89,0,0,1,.91,3.35.11.11,0,0,0,.14.12h0A.11.11,0,0,0,112.69,94.52Z"/><path class="cls-12" d="M112.51,94.59s.24-2.25-2.63-2.87C109.88,91.72,110.1,94.67,112.51,94.59Z"/><path class="cls-7" d="M97.64,110.21s1.51,1.71,2.11,1.51-1.22-2.21-1.89-2.21S97.41,109.9,97.64,110.21Z"/><ellipse class="cls-7" cx="98.97" cy="113.57" rx="2.37" ry="0.43" transform="translate(-41.62 167.68) rotate(-69.98)"/><ellipse class="cls-7" cx="98.45" cy="116.07" rx="0.32" ry="0.95" transform="translate(-23.98 25.65) rotate(-13.25)"/><path class="cls-7" d="M100.88,108.28s2.21.57,2.59.07-2.24-1.15-2.8-.77S100.52,108.15,100.88,108.28Z"/><ellipse class="cls-7" cx="103.87" cy="110.32" rx="0.43" ry="2.37" transform="translate(-23.64 28.46) rotate(-14.02)"/><ellipse class="cls-7" cx="104.83" cy="112.68" rx="0.32" ry="0.95" transform="translate(-49.07 113.29) rotate(-47.29)"/><path class="cls-7" d="M103.86,105.33s2.2.6,2.6.12-2.23-1.19-2.79-.82S103.5,105.2,103.86,105.33Z"/><ellipse class="cls-7" cx="108" cy="104.16" rx="2.37" ry="0.43" transform="translate(-39.34 75.78) rotate(-33.06)"/><ellipse class="cls-7" cx="110.27" cy="102.7" rx="0.95" ry="0.32" transform="translate(-34.16 59.71) rotate(-26.39)"/><path class="cls-13" d="M104.41,96.47a1.55,1.55,0,0,0-1.85-2c-2.41.21-3.35,3.8-4.9,3.29"/><path class="cls-13" d="M105.38,97.82s2.81-.27,1.31,5.53,3.73,4.41,3.73,4.41"/><path class="cls-7" d="M101.21,111s1.51,1.71,2.11,1.51-1.22-2.21-1.89-2.2S101,110.72,101.21,111Z"/><ellipse class="cls-7" cx="102.55" cy="114.39" rx="2.37" ry="0.43" transform="translate(-40.04 171.58) rotate(-69.98)"/><ellipse class="cls-7" cx="102.02" cy="116.9" rx="0.32" ry="0.95" transform="translate(-24.08 26.5) rotate(-13.25)"/><path class="cls-7" d="M102.68,107.88s2.14.77,2.57.32-2.12-1.36-2.71-1S102.33,107.72,102.68,107.88Z"/><ellipse class="cls-7" cx="105.46" cy="110.19" rx="0.43" ry="2.37" transform="translate(-15.26 16.97) rotate(-8.58)"/><ellipse class="cls-7" cx="106.2" cy="112.64" rx="0.32" ry="0.95" transform="translate(-48.06 99.59) rotate(-41.85)"/><path class="cls-14" d="M99.76,113.16s2.64-.81,4.12-4.66,1.49-7.7.61-8.63S98.66,108.15,99.76,113.16Z"/><path class="cls-1" d="M95,108.87s-.54,4.24,2,4.52,7-6.49,7.53-11.78-1.55-4-2.15-3.79A14.37,14.37,0,0,0,95,108.87Z"/><g class="cls-15"><path class="cls-16" d="M94.39,112.33a1.76,1.76,0,0,0,1.29-1.1,21.85,21.85,0,0,0,1.08-2.82,27.51,27.51,0,0,1,5.36-8.36,4.26,4.26,0,0,0,1.2-2.1.49.49,0,0,0,0-.21c-.08-.2-.34-.23-.55-.2a5.29,5.29,0,0,0-1.09.28c-1.09.38-2.15.84-3.2,1.31a4.76,4.76,0,0,0-1.5.94,5.22,5.22,0,0,0-1,1.77c-.58,1.48-1.3,2.91-1.83,4.42a10.35,10.35,0,0,0-.7,4.69,1.16,1.16,0,0,0,.39.86c.14.09.33.14.37.3"/></g><path class="cls-2" d="M94.77,111.32c-2.21-4.86,3.41-11.21,6.09-12.87s3.14-.59,3.14-.59a26.9,26.9,0,0,0-6.78,9C95,112.12,95.35,112.61,94.77,111.32Z"/><g class="cls-17"><path class="cls-18" d="M95.33,111.09a68.35,68.35,0,0,1,3.23-7.32,25.2,25.2,0,0,1,5.61-6.65,1,1,0,0,1,.71-.3.73.73,0,0,1,.48.38,3,3,0,0,1,.21,2,37.17,37.17,0,0,1-.86,4.3,24.07,24.07,0,0,1-3.26,8,5.1,5.1,0,0,1-.89,1,5,5,0,0,1-1.93.86,4.17,4.17,0,0,1-3.33-.17c-.32-.21-.79-.7-.71-1.13,0-.19.2-.27.33-.38A1.49,1.49,0,0,0,95.33,111.09Z"/></g><path class="cls-2" d="M103.91,97.7s-4.66,4.76-6.32,8.73-1.69,5.45-1.54,6.79,3.08,3.92,6.25-3.48C104.52,104.55,105.45,99.47,103.91,97.7Z"/><ellipse class="cls-19" cx="96.89" cy="110.03" rx="2.7" ry="0.21" transform="translate(-31.53 180.76) rotate(-77.48)"/><ellipse class="cls-19" cx="96.39" cy="113.11" rx="0.16" ry="0.34" transform="translate(-4.29 3.8) rotate(-2.21)"/><path class="cls-19" d="M97.63,112.84a21.28,21.28,0,0,1,2-8.7c2-4,4.38-5.18,4.38-5.18s-2.59,5.08-2.25,9.07c0,0-1.14-1.71.37-6.44C102.1,101.59,98.88,104.35,97.63,112.84Z"/><path class="cls-19" d="M96.15,109S95,112,94.91,111C94.91,111,95.33,110.82,96.15,109Z"/><path class="cls-19" d="M103.27,97.84s-6.18,7.29-7.7,8.11c0,0,4.13-4,4.92-5.55a3.38,3.38,0,0,1-1.68.61A24.26,24.26,0,0,0,103.27,97.84Z"/><path class="cls-14" d="M103.78,97.25s-3.08,3-3.14,4.11,2.26,5.08,4,2.85S105.53,97.54,103.78,97.25Z"/><path class="cls-14" d="M100.78,100.88s-1.68-.38-1.62-1.68,3.18-3.29,4.21-2.68a1.8,1.8,0,0,1,.94,1.4S103.45,101.49,100.78,100.88Z"/><path class="cls-7" d="M100.85,100.59s1.87-2.75,3.25-3.1C104.1,97.49,102.28,97.44,100.85,100.59Z"/><ellipse class="cls-20" cx="103.8" cy="98.19" rx="1.77" ry="2.36" transform="matrix(0.86, -0.5, 0.5, 0.86, -35.33, 65.64)"/><ellipse cx="104.41" cy="99.07" rx="0.89" ry="0.72" transform="translate(-7.72 189.31) rotate(-82.33)"/><ellipse class="cls-21" cx="104.09" cy="99.31" rx="0.29" ry="0.23" transform="matrix(0.13, -0.99, 0.99, 0.13, -8.23, 189.21)"/><path d="M102.79,96.23c.37,0,.69.1.71.32s-.26.43-.63.47-.68-.08-.7-.3S102.42,96.27,102.79,96.23Z"/><ellipse class="cls-21" cx="102.39" cy="96.66" rx="0.12" ry="0.14" transform="translate(-7.09 185.22) rotate(-82.33)"/><path class="cls-22" d="M101.86,105.36s2.83-.17,3.12.3-.28,1.75-.28,1.75a25.89,25.89,0,0,0-3-.31C101.16,107.17,101.39,105.92,101.86,105.36Z"/><path class="cls-22" d="M100.29,109.68a11.93,11.93,0,0,1,1.23,2.38c.16.73-.86,1.35-1.08,1S99,110.83,99,110.83Z"/><path class="cls-3" d="M97.36,99.58a1.06,1.06,0,0,1,.78-.14c1,.22,3.14,1.15,3.69,5.28a6.62,6.62,0,0,1-4.72,7.62c-1.5.51-3.61-1.92-4.15-4.55S93.87,101.77,97.36,99.58Z"/><g class="cls-23"><path class="cls-24" d="M101.08,111.66l1.1-3.72a3.7,3.7,0,0,1-2.76,1,2.66,2.66,0,0,1-2.63-1.43l3.57-2.32,2.62,1.92.26,2.82Z"/><path class="cls-25" d="M97.26,98.7s-4.5,3.83-2.75,7.46,4,3,5.09,2.25,1.91-1.09,2.09-.51,1.23-6,1.23-6S98.11,97.86,97.26,98.7Z"/><ellipse class="cls-26" cx="95.39" cy="105.58" rx="0.57" ry="0.96" transform="translate(-32.89 44.01) rotate(-22.26)"/><path class="cls-24" d="M92.24,111.42a17.12,17.12,0,0,1,1.47-6.5,4.45,4.45,0,0,0,.59,2.31,6.4,6.4,0,0,0,2.45,2.28.87.87,0,0,0-.48.48,5.54,5.54,0,0,0-.65,3.34,7.65,7.65,0,0,1-3.21-1.5"/></g><g class="cls-27"><path class="cls-5" d="M102.89,108.87a2.7,2.7,0,1,0-4.21-1.39l-1.06.3.69.93.16.23.69.93.6-.92A2.69,2.69,0,0,0,102.89,108.87Zm-.38-.51a2.06,2.06,0,1,1,.4-2.89A2.06,2.06,0,0,1,102.51,108.36Z"/><g class="cls-28"><rect class="cls-29" x="96.4" y="108.58" width="3.95" height="0.53" transform="translate(127.76 -34.89) rotate(53.66)"/><circle class="cls-30" cx="101.27" cy="106.72" r="2.29"/></g><ellipse class="cls-31" cx="98.71" cy="106.68" rx="0.44" ry="0.09" transform="translate(-10.46 202.64) rotate(-88.54)"/><ellipse class="cls-31" cx="98.81" cy="106.01" rx="0.2" ry="0.08" transform="translate(-35.92 159.38) rotate(-68.62)"/><path class="cls-32" d="M99.65,104.77a2.7,2.7,0,0,1,3.38,0"/><ellipse class="cls-33" cx="99.22" cy="108.22" rx="0.26" ry="2.07" transform="translate(-44.83 79.84) rotate(-36.34)"/><polygon class="cls-6" points="96.75 111.63 96.03 110.64 95.89 110.46 95.17 109.47 96.03 107.98 98.68 107.48 99.75 108.94 98.43 111.24 96.75 111.63"/><g class="cls-34"><path class="cls-35" d="M96.53,107.26s.35,1.57.35,1.57l-1.13,1-.8-.56-.06-.95Z"/><path class="cls-36" d="M99.2,110.9l-1.39-.81-1.34.77.3.93.89.34Z"/><path class="cls-37" d="M95.72,107.68l1.18,1.17,2.44-1.18-.85-1Z"/><path class="cls-38" d="M98.59,111.58s-.77-1.48-.77-1.48l1.86-2,.68,1.1Z"/><polygon class="cls-39" points="96.88 108.83 97.82 110.1 99.39 108.45 98.95 107.85 96.88 108.83"/><polygon class="cls-40" points="95.75 109.88 96.47 110.86 97.82 110.1 96.88 108.83 95.75 109.88"/></g><ellipse class="cls-41" cx="96.02" cy="110.42" rx="0.05" ry="0.67" transform="translate(-46.76 78.37) rotate(-36.34)"/><ellipse class="cls-42" cx="95.71" cy="108.9" rx="0.63" ry="0.13" transform="translate(-48 128.06) rotate(-56.28)"/><ellipse class="cls-43" cx="97.49" cy="107.94" rx="1.04" ry="0.17" transform="translate(-20.63 23.07) rotate(-12.21)"/></g></g></svg>