<svg xmlns="http://www.w3.org/2000/svg" xmlns:xlink="http://www.w3.org/1999/xlink" viewBox="0 0 260 168"><defs><style>.cls-1{fill:#7c4d23;}.cls-2{fill:#6d3e18;}.cls-3{fill:#62d8f4;}.cls-27,.cls-4,.cls-8{fill:none;}.cls-5{fill:#ffec00;}.cls-6{fill:red;}.cls-7{fill:#56290b;}.cls-8{stroke:#512609;stroke-width:0.3px;}.cls-27,.cls-8{stroke-linecap:round;stroke-linejoin:round;}.cls-9{fill:#63310f;}.cls-10{clip-path:url(#clip-path);}.cls-11{fill:#5e2e0d;opacity:0.53;}.cls-12{clip-path:url(#clip-path-2);}.cls-13{fill:#603415;}.cls-14{fill:#844b24;}.cls-15{fill:#944728;}.cls-16{fill:#fff;}.cls-17{fill:#ea15c2;}.cls-18{clip-path:url(#clip-path-3);}.cls-19{fill:#1e9bc6;}.cls-20{fill:#2dbef7;}.cls-21{fill:#eddd14;}.cls-22{clip-path:url(#clip-path-4);}.cls-23{clip-path:url(#clip-path-5);}.cls-24{fill:#ffc200;}.cls-25{fill:#fa0;opacity:0.31;}.cls-26{fill:#fff1ae;}.cls-27{stroke:#fff1ae;stroke-width:0.34px;}.cls-28{fill:#ffb600;}.cls-29{clip-path:url(#clip-path-6);}.cls-30{fill:#ff8080;}.cls-31{fill:#ff3636;}.cls-32{fill:#ff4848;}.cls-33{fill:#dd1f1f;}.cls-34{fill:#c11111;}.cls-35{fill:#d12c2c;}.cls-36{fill:#ff8f8f;}.cls-37,.cls-38{fill:#ffc2c2;}.cls-38{opacity:0.35;}</style><clipPath id="clip-path"><path class="cls-1" d="M182.84,146.44s.22,5.05-2.75,5.14-7.6-8.33-7.72-14.61,2.21-4.55,2.9-4.25A17,17,0,0,1,182.84,146.44Z"/></clipPath><clipPath id="clip-path-2"><path class="cls-2" d="M182.84,149.35c3.07-5.52-2.93-13.53-5.92-15.75s-3.64-1-3.64-1a31.94,31.94,0,0,1,7.11,11.25C182.53,150.26,182,150.81,182.84,149.35Z"/></clipPath><clipPath id="clip-path-3"><path class="cls-3" d="M180.93,135.28A1.2,1.2,0,0,0,180,135c-1.15.15-3.8,1.05-4.85,5.85a7.8,7.8,0,0,0,4.81,9.43c1.72.74,4.44-1.91,5.33-5S184.82,138.19,180.93,135.28Z"/></clipPath><clipPath id="clip-path-4"><path class="cls-4" d="M175.06,141.64a14.3,14.3,0,0,0-3.3-.13h-.91l.09,2.44,2.74-.28s1,0,1.25,0l2.73,14.42-8.75.91-4.84-5.87.9-11.66,1.4-1.72,5.13-.92,2.36.25Z"/></clipPath><clipPath id="clip-path-5"><path class="cls-5" d="M168.15,146.86l-1.07,1.26,1.65.59.39.14,1.64.6,0-1.66a4.06,4.06,0,1,0-2.59-.93Zm3.69-6.06a3.11,3.11,0,1,1-4,1.82A3.12,3.12,0,0,1,171.84,140.8Z"/></clipPath><clipPath id="clip-path-6"><polygon class="cls-6" points="165.57 152.35 167.31 152.98 167.63 153.1 169.38 153.73 171.15 151.83 170.74 147.79 168.17 146.86 165.41 149.76 165.57 152.35"/></clipPath></defs><g id="_5" data-name="5"><path class="cls-7" d="M172.33,141s-2.61.63-3.06,0,2.67-1.33,3.32-.87S172.76,140.83,172.33,141Z"/><ellipse class="cls-7" cx="167.94" cy="139.16" rx="0.5" ry="2.8" transform="translate(-49.44 156.88) rotate(-44.3)"/><ellipse class="cls-7" cx="165.76" cy="136.94" rx="0.38" ry="1.13" transform="translate(-49.23 139.36) rotate(-40.21)"/><path class="cls-7" d="M175.57,137.12s-2.67.27-3-.38,2.84-.94,3.41-.4S176,137,175.57,137.12Z"/><ellipse class="cls-7" cx="171.72" cy="138.96" rx="2.8" ry="0.5" transform="translate(-23.08 243.13) rotate(-67.12)"/><ellipse class="cls-7" cx="170.16" cy="141.55" rx="1.13" ry="0.38" transform="translate(-50 118.76) rotate(-33.85)"/><path class="cls-8" d="M172.92,130.93a1.84,1.84,0,0,1,2.38-2.2c2.82.48,3.58,4.8,5.45,4.35"/><path class="cls-8" d="M171.65,132.42s-3.28-.59-2.07,6.39-4.83,4.83-4.83,4.83"/><path class="cls-7" d="M175.28,148.38s-1.94,1.86-2.63,1.58,1.65-2.49,2.44-2.42S175.58,148,175.28,148.38Z"/><ellipse class="cls-7" cx="173.39" cy="152.21" rx="0.5" ry="2.8" transform="translate(-34.05 51.2) rotate(-15.32)"/><ellipse class="cls-7" cx="173.76" cy="155.21" rx="1.13" ry="0.38" transform="translate(-27.45 272.66) rotate(-72.05)"/><path class="cls-7" d="M179.82,147.26s-1.66,2.11-2.38,1.93,1.28-2.7,2.07-2.74S180.07,146.88,179.82,147.26Z"/><ellipse class="cls-7" cx="178.48" cy="151.31" rx="0.5" ry="2.8" transform="translate(-45.36 83.16) rotate(-23.36)"/><ellipse class="cls-7" cx="179.27" cy="154.23" rx="1.13" ry="0.38" transform="translate(-3.51 304.27) rotate(-80.09)"/><path class="cls-7" d="M173.86,144.53s-2.6.7-3.06.13,2.63-1.4,3.29-1S174.28,144.37,173.86,144.53Z"/><ellipse class="cls-7" cx="170.36" cy="146.98" rx="2.8" ry="0.5" transform="translate(-11.84 279.01) rotate(-76.71)"/><ellipse class="cls-7" cx="169.26" cy="149.79" rx="1.13" ry="0.38" transform="translate(-56.64 157.42) rotate(-43.44)"/><path class="cls-9" d="M176.79,151s-3-1.21-4.41-5.89-1-9.2.13-10.21S178.56,145.24,176.79,151Z"/><path class="cls-1" d="M182.84,146.44s.22,5.05-2.75,5.14-7.6-8.33-7.72-14.61,2.21-4.55,2.9-4.25A17,17,0,0,1,182.84,146.44Z"/><g class="cls-10"><path class="cls-11" d="M183.19,150.58c-.69-.11-1.14-.78-1.42-1.42a25.52,25.52,0,0,1-1-3.44,32.84,32.84,0,0,0-5.5-10.36,5,5,0,0,1-1.21-2.58.51.51,0,0,1,0-.25c.11-.23.42-.24.66-.19a6.28,6.28,0,0,1,1.26.44c1.25.56,2.45,1.2,3.64,1.86a5.35,5.35,0,0,1,1.68,1.25,6.2,6.2,0,0,1,.94,2.17c.55,1.8,1.25,3.56,1.74,5.38a12.37,12.37,0,0,1,.36,5.6,1.33,1.33,0,0,1-.55,1c-.17.1-.4.15-.46.33"/></g><path class="cls-2" d="M182.84,149.35c3.07-5.52-2.93-13.53-5.92-15.75s-3.64-1-3.64-1a31.94,31.94,0,0,1,7.11,11.25C182.53,150.26,182,150.81,182.84,149.35Z"/><g class="cls-12"><path class="cls-13" d="M182.2,149a80.94,80.94,0,0,0-3.1-8.93,29.7,29.7,0,0,0-5.95-8.37,1.13,1.13,0,0,0-.81-.43.87.87,0,0,0-.6.41,3.49,3.49,0,0,0-.44,2.28,42.3,42.3,0,0,0,.6,5.15,28.61,28.61,0,0,0,3.06,9.68,5.73,5.73,0,0,0,.95,1.29,5.93,5.93,0,0,0,2.19,1.2,4.88,4.88,0,0,0,3.94.12c.39-.21,1-.74,1-1.25,0-.23-.21-.34-.36-.49A1.8,1.8,0,0,1,182.2,149Z"/></g><path class="cls-2" d="M173.4,132.43s5,6.06,6.59,10.88,1.46,6.58,1.16,8.16-4,4.3-7-4.71C172,140.43,171.41,134.36,173.4,132.43Z"/><ellipse class="cls-14" cx="180.47" cy="147.62" rx="0.25" ry="3.19" transform="translate(-18.4 25.91) rotate(-7.82)"/><ellipse class="cls-14" cx="180.76" cy="151.3" rx="0.4" ry="0.19" transform="translate(8.8 312.53) rotate(-83.09)"/><path class="cls-14" d="M179.33,150.85a25.36,25.36,0,0,0-1.48-10.43c-2-4.92-4.65-6.52-4.65-6.52s2.55,6.23,1.76,10.9c0,0,1.51-1.9.19-7.62C175.15,137.18,178.67,140.74,179.33,150.85Z"/><path class="cls-14" d="M181.44,146.47s1.1,3.7,1.26,2.52C182.7,149,182.22,148.7,181.44,146.47Z"/><path class="cls-14" d="M174.13,132.65s6.58,9.18,8.28,10.3c0,0-4.46-5.16-5.24-7a3.9,3.9,0,0,0,1.91.88S175.36,134.28,174.13,132.65Z"/><path class="cls-9" d="M173.59,131.9s3.34,3.82,3.3,5.15-3.15,5.77-5,3S171.5,132.08,173.59,131.9Z"/><path class="cls-9" d="M176.78,136.47s2-.28,2.06-1.82-3.42-4.18-4.7-3.56a2.1,2.1,0,0,0-1.23,1.55S173.58,136.93,176.78,136.47Z"/><path class="cls-7" d="M176.72,136.12s-1.94-3.42-3.52-4C173.2,132.16,175.34,132.27,176.72,136.12Z"/><ellipse class="cls-15" cx="173.48" cy="133.01" rx="2.78" ry="2.1" transform="translate(-34.92 199.02) rotate(-55.05)"/><ellipse cx="172.68" cy="133.99" rx="0.85" ry="1.05" transform="translate(-6.71 9.12) rotate(-2.97)"/><ellipse class="cls-16" cx="172.32" cy="133.64" rx="0.28" ry="0.34" transform="translate(-6.69 9.1) rotate(-2.97)"/><path d="M174.86,130.8c-.43-.08-.82.06-.87.31s.26.53.7.61.8,0,.85-.28S175.29,130.88,174.86,130.8Z"/><ellipse class="cls-16" cx="174.25" cy="131.08" rx="0.17" ry="0.14" transform="translate(-6.56 9.2) rotate(-2.97)"/><path class="cls-17" d="M175.06,141.64s-3.31-.47-3.69.06.16,2.08.16,2.08a29.2,29.2,0,0,1,3.56-.07C175.72,143.84,175.57,142.35,175.06,141.64Z"/><path class="cls-17" d="M176.49,146.88a14.31,14.31,0,0,0-1.67,2.68c-.26.84.88,1.68,1.18,1.32s1.94-2.51,1.94-2.51Z"/><path class="cls-3" d="M180.93,135.28A1.2,1.2,0,0,0,180,135c-1.15.15-3.8,1.05-4.85,5.85a7.8,7.8,0,0,0,4.81,9.43c1.72.74,4.44-1.91,5.33-5S184.82,138.19,180.93,135.28Z"/><g class="cls-18"><path class="cls-19" d="M175.37,149.14l-.93-4.49A4.41,4.41,0,0,0,177.6,146a3.13,3.13,0,0,0,3.23-1.43l-4-3.08-3.26,2-.58,3.29Z"/><path class="cls-20" d="M181.13,134.25s4.93,4.94,2.52,9.05-5,3.13-6.22,2.15-2.14-1.46-2.41-.81-.86-7.16-.86-7.16S180.21,133.18,181.13,134.25Z"/><ellipse class="cls-21" cx="182.66" cy="142.53" rx="1.13" ry="0.68" transform="translate(-27.21 240.69) rotate(-63.03)"/><path class="cls-19" d="M185.81,149.71a20.48,20.48,0,0,0-1.1-7.8,5.32,5.32,0,0,1-.92,2.67,7.48,7.48,0,0,1-3.11,2.44,1.07,1.07,0,0,1,.53.61,6.54,6.54,0,0,1,.43,4,9.09,9.09,0,0,0,3.93-1.45"/></g><g class="cls-22"><path class="cls-5" d="M168.15,146.86l-1.07,1.26,1.65.59.39.14,1.64.6,0-1.66a4.06,4.06,0,1,0-2.59-.93Zm3.69-6.06a3.11,3.11,0,1,1-4,1.82A3.12,3.12,0,0,1,171.84,140.8Z"/><g class="cls-23"><rect class="cls-24" x="165.91" y="148.42" width="5.97" height="0.8" transform="translate(277.17 346.18) rotate(-160.13)"/><circle class="cls-25" cx="170.74" cy="143.72" r="3.46"/></g><ellipse class="cls-26" cx="171.89" cy="147.41" rx="0.66" ry="0.14" transform="translate(-37.04 60.09) rotate(-17.93)"/><ellipse class="cls-26" cx="172.82" cy="146.97" rx="0.31" ry="0.13" transform="translate(-53.82 136.97) rotate(-37.85)"/><path class="cls-27" d="M174.26,145.21a4.08,4.08,0,0,0-1.52-4.86"/><ellipse class="cls-28" cx="169.44" cy="147.32" rx="0.4" ry="3.13" transform="translate(-26.69 256.62) rotate(-70.13)"/><polygon class="cls-6" points="165.57 152.35 167.31 152.98 167.63 153.1 169.38 153.73 171.15 151.83 170.74 147.79 168.17 146.86 165.41 149.76 165.57 152.35"/><g class="cls-29"><path class="cls-30" d="M172,150.81l-2.43.17-1,2.08,1.15.91,1.4-.32Z"/><path class="cls-31" d="M165.58,148.49s1.76,1.68,1.76,1.68l-.55,2.26-1.46,0-.87-1.14Z"/><path class="cls-32" d="M171.73,152.16s-2.21-1.2-2.21-1.2l.68-4,1.78.81Z"/><path class="cls-33" d="M164.85,149.68s2.47.48,2.47.48l2.06-3.54-1.89-.51Z"/><polygon class="cls-34" points="169.56 150.97 167.32 150.16 169.03 147.17 170.09 147.55 169.56 150.97"/><polygon class="cls-35" points="168.53 153.06 166.79 152.43 167.32 150.16 169.56 150.97 168.53 153.06"/></g><ellipse class="cls-36" cx="167.62" cy="152.9" rx="0.08" ry="1.01" transform="translate(-33.14 258.6) rotate(-70.13)"/><ellipse class="cls-37" cx="169.96" cy="152.7" rx="0.96" ry="0.2" transform="translate(-56.16 185.49) rotate(-50.19)"/><ellipse class="cls-38" cx="170.58" cy="149.71" rx="0.26" ry="1.57" transform="translate(-10.65 13.08) rotate(-4.26)"/></g></g></svg>