<svg id="_6" data-name="6" xmlns="http://www.w3.org/2000/svg" xmlns:xlink="http://www.w3.org/1999/xlink" viewBox="0 0 260 168"><defs><style>.cls-1{fill:#7c4d23;}.cls-2{fill:#6d3e18;}.cls-3{fill:#62d8f4;}.cls-28,.cls-4,.cls-8{fill:none;}.cls-5{fill:#ffec00;}.cls-6{fill:red;}.cls-7{fill:#56290b;}.cls-8{stroke:#512609;stroke-width:0.32px;}.cls-28,.cls-8{stroke-linecap:round;stroke-linejoin:round;}.cls-9{fill:#472107;}.cls-10{fill:#63310f;}.cls-11{clip-path:url(#clip-path);}.cls-12{fill:#5e2e0d;opacity:0.53;}.cls-13{clip-path:url(#clip-path-2);}.cls-14{fill:#603415;}.cls-15{fill:#844b24;}.cls-16{fill:#944728;}.cls-17{fill:#fff;}.cls-18{fill:#ea15c2;}.cls-19{clip-path:url(#clip-path-3);}.cls-20{fill:#1e9bc6;}.cls-21{fill:#2dbef7;}.cls-22{fill:#eddd14;}.cls-23{clip-path:url(#clip-path-4);}.cls-24{clip-path:url(#clip-path-5);}.cls-25{fill:#ffc200;}.cls-26{fill:#fa0;opacity:0.31;}.cls-27{fill:#fff1ae;}.cls-28{stroke:#fff1ae;stroke-width:0.36px;}.cls-29{fill:#ffb600;}.cls-30{clip-path:url(#clip-path-6);}.cls-31{fill:#ff8080;}.cls-32{fill:#ff3636;}.cls-33{fill:#ff4848;}.cls-34{fill:#dd1f1f;}.cls-35{fill:#c11111;}.cls-36{fill:#d12c2c;}.cls-37{fill:#ff8f8f;}.cls-38,.cls-39{fill:#ffc2c2;}.cls-39{opacity:0.35;}</style><clipPath id="clip-path"><path class="cls-1" d="M189.75,148.12s1.68,5-1.29,6-10.11-6.22-12.06-12.53.92-5.25,1.7-5.15A17.94,17.94,0,0,1,189.75,148.12Z"/></clipPath><clipPath id="clip-path-2"><path class="cls-2" d="M190.59,151.06c1.5-6.47-6.89-12.84-10.56-14.22s-4,0-4,0a33.58,33.58,0,0,1,10.47,9.32C190.54,152.08,190.2,152.77,190.59,151.06Z"/></clipPath><clipPath id="clip-path-3"><path class="cls-3" d="M184.57,137.37a1.31,1.31,0,0,0-1,0c-1.11.49-3.54,2.16-3.21,7.33a8.22,8.22,0,0,0,7.61,8.14c2,.25,3.93-3.22,4-6.56S189.35,139.19,184.57,137.37Z"/></clipPath><clipPath id="clip-path-4"><path class="cls-4" d="M180.45,145.51a15,15,0,0,0-3.38.83l-.92.26L177,149l2.7-1.07s1-.3,1.26-.35l7,13.8-8.58,3.46-6.6-4.53-2.49-12.06.93-2.15,4.92-2.42,2.46-.43Z"/></clipPath><clipPath id="clip-path-5"><path class="cls-5" d="M175,152.8l-.72,1.58,1.83.13.44,0,1.84.12-.5-1.67a4.29,4.29,0,1,0-2.89-.19Zm2-7.2a3.28,3.28,0,1,1-3.53,3A3.27,3.27,0,0,1,177,145.6Z"/></clipPath><clipPath id="clip-path-6"><polygon class="cls-6" points="173.95 159.1 175.9 159.24 176.26 159.26 178.21 159.39 179.46 156.96 177.87 152.99 175 152.79 173.04 156.53 173.95 159.1"/></clipPath></defs><path class="cls-7" d="M176.84,145.57s-2.06-1.95-1.79-2.69,2.7,1.61,2.67,2.44S177.21,145.86,176.84,145.57Z"/><ellipse class="cls-7" cx="172.72" cy="143.78" rx="2.95" ry="0.53" transform="translate(-36.26 61.12) rotate(-18.19)"/><ellipse class="cls-7" cx="169.59" cy="144.33" rx="0.4" ry="1.19" transform="matrix(0.26, -0.97, 0.97, 0.26, -13.88, 270.53)"/><path class="cls-7" d="M179.28,137.58s-.28-2.82.4-3.21,1,3,.43,3.59S179.37,138,179.28,137.58Z"/><ellipse class="cls-7" cx="177.34" cy="133.52" rx="0.53" ry="2.95" transform="translate(-14.33 245.51) rotate(-67.27)"/><ellipse class="cls-7" cx="174.61" cy="131.89" rx="0.4" ry="1.19" transform="translate(-43.9 120.2) rotate(-34)"/><path class="cls-8" d="M175.21,135.3a1.94,1.94,0,0,1,1.77-2.92c3-.33,5,3.82,6.77,2.82"/><path class="cls-8" d="M174.35,137.18s-3.49.36-.24,7.06-3.48,6.3-3.48,6.3"/><path class="cls-7" d="M182.66,152.28s-1.42,2.44-2.2,2.35.95-3,1.76-3.15S182.87,151.85,182.66,152.28Z"/><ellipse class="cls-7" cx="181.86" cy="156.7" rx="0.53" ry="2.95" transform="translate(-54.96 117.42) rotate(-31.33)"/><ellipse class="cls-7" cx="183.11" cy="159.62" rx="1.19" ry="0.4" transform="translate(17.38 337.23) rotate(-88.06)"/><path class="cls-9" d="M186.62,150.36s-1.05,2.63-1.83,2.65.49-3.1,1.28-3.38S186.76,149.9,186.62,150.36Z"/><ellipse class="cls-9" cx="186.47" cy="154.85" rx="0.53" ry="2.95" transform="translate(-55.91 155) rotate(-39.74)"/><ellipse class="cls-9" cx="188.13" cy="157.56" rx="0.4" ry="1.19" transform="translate(-16.56 22.21) rotate(-6.47)"/><path class="cls-7" d="M180.11,148.79s-2.43,1.47-3.07,1,2.27-2.18,3.06-1.93S180.49,148.51,180.11,148.79Z"/><ellipse class="cls-7" cx="177.28" cy="152.29" rx="0.53" ry="2.95" transform="translate(-7.06 8.62) rotate(-2.73)"/><ellipse class="cls-7" cx="176.98" cy="155.45" rx="1.19" ry="0.4" transform="translate(-46.84 228.89) rotate(-59.46)"/><path class="cls-10" d="M185,154.52s-3.41-.35-6.16-4.68-3.7-9-2.84-10.37S185.07,148.14,185,154.52Z"/><path class="cls-1" d="M189.75,148.12s1.68,5-1.29,6-10.11-6.22-12.06-12.53.92-5.25,1.7-5.15A17.94,17.94,0,0,1,189.75,148.12Z"/><g class="cls-11"><path class="cls-12" d="M191.3,152.2a2.26,2.26,0,0,1-1.85-1,27.42,27.42,0,0,1-2-3.18,34.48,34.48,0,0,0-8.57-8.89,5.25,5.25,0,0,1-2-2.26.63.63,0,0,1,0-.27c0-.25.36-.35.62-.37a6,6,0,0,1,1.4.08c1.42.19,2.83.49,4.23.82a5.79,5.79,0,0,1,2.06.78,6.71,6.71,0,0,1,1.58,1.92c1.07,1.66,2.3,3.24,3.32,4.94a13.16,13.16,0,0,1,2,5.56,1.43,1.43,0,0,1-.27,1.13c-.15.15-.37.26-.37.47"/></g><path class="cls-2" d="M190.59,151.06c1.5-6.47-6.89-12.84-10.56-14.22s-4,0-4,0a33.58,33.58,0,0,1,10.47,9.32C190.54,152.08,190.2,152.77,190.59,151.06Z"/><g class="cls-13"><path class="cls-14" d="M189.85,150.91a85.43,85.43,0,0,0-5.73-8.13,31,31,0,0,0-8.45-6.74,1.16,1.16,0,0,0-.94-.2.93.93,0,0,0-.5.58,3.75,3.75,0,0,0,.22,2.44,48.24,48.24,0,0,0,2.1,5,30.26,30.26,0,0,0,5.91,8.9,6.06,6.06,0,0,0,1.34,1,6.39,6.39,0,0,0,2.56.58c1.43.08,3,0,4-1,.34-.34.8-1,.6-1.55-.09-.22-.31-.28-.5-.39A1.73,1.73,0,0,1,189.85,150.91Z"/></g><path class="cls-2" d="M176.13,136.68s6.83,4.67,9.83,9.1,3.38,6.23,3.54,7.91-2.81,5.53-8.47-2.72C177.05,145.18,174.67,139.21,176.13,136.68Z"/><ellipse class="cls-15" cx="187.69" cy="150" rx="0.27" ry="3.35" transform="translate(-44.6 88.63) rotate(-23.83)"/><ellipse class="cls-15" cx="189.05" cy="153.63" rx="0.2" ry="0.42" transform="translate(-21.92 31.84) rotate(-9.1)"/><path class="cls-15" d="M187.48,153.6A26.57,26.57,0,0,0,183,143.48c-3.44-4.41-6.6-5.25-6.6-5.25s4.39,5.56,5,10.52c0,0,1-2.37-2-7.77C179.27,141,183.87,143.56,187.48,153.6Z"/><path class="cls-15" d="M188.34,148.55s2.19,3.43,2,2.18C190.35,150.73,189.78,150.58,188.34,148.55Z"/><path class="cls-15" d="M176.93,136.69s9.32,7.38,11.37,8c0,0-6-3.91-7.34-5.57a4.2,4.2,0,0,0,2.19.34S178.65,138,176.93,136.69Z"/><path class="cls-10" d="M176.17,136.09s4.48,2.89,4.83,4.26-1.52,6.74-4.18,4.44S174.1,136.88,176.17,136.09Z"/><path class="cls-10" d="M180.72,139.79s1.95-.87,1.56-2.44-4.68-3.24-5.79-2.24a2.21,2.21,0,0,0-.8,1.93S177.61,141.18,180.72,139.79Z"/><path class="cls-7" d="M180.55,139.45s-3-2.89-4.71-3C175.84,136.47,178,136,180.55,139.45Z"/><ellipse class="cls-16" cx="176.38" cy="137.24" rx="2.93" ry="2.21" transform="translate(-10.66 259.56) rotate(-71.07)"/><ellipse cx="175.85" cy="138.47" rx="0.89" ry="1.1" transform="translate(-35.48 64.74) rotate(-18.99)"/><ellipse class="cls-17" cx="176.3" cy="138.68" rx="0.29" ry="0.36" transform="translate(-35.53 64.9) rotate(-18.99)"/><path d="M177.13,134.61c-.46,0-.81.29-.79.57s.42.45.88.41.81-.26.78-.54S177.59,134.56,177.13,134.61Z"/><ellipse class="cls-17" cx="177.73" cy="135.04" rx="0.18" ry="0.14" transform="translate(-34.27 65.17) rotate(-18.99)"/><path class="cls-18" d="M180.48,145.52s-3.49.48-3.72,1.13.77,2,.77,2a30.26,30.26,0,0,1,3.58-1.1C181.78,147.55,181.2,146.08,180.48,145.52Z"/><path class="cls-18" d="M183.45,150.41a15.14,15.14,0,0,0-.91,3.19c0,.93,1.37,1.44,1.57,1s1.24-3.1,1.24-3.1Z"/><path class="cls-3" d="M184.57,137.37a1.31,1.31,0,0,0-1,0c-1.11.49-3.54,2.16-3.21,7.33a8.22,8.22,0,0,0,7.61,8.14c2,.25,3.93-3.22,4-6.56S189.35,139.19,184.57,137.37Z"/><g class="cls-19"><path class="cls-20" d="M183,153l-2.25-4.27s1.13.92,3.6.49a3.29,3.29,0,0,0,2.85-2.39l-4.92-2-2.72,3,.37,3.5Z"/><path class="cls-21" d="M184.48,136.28s6.42,3.56,5.17,8.42-4.14,4.62-5.67,4-2.59-.85-2.67-.11-2.95-7-2.95-7S183.24,135.46,184.48,136.28Z"/><ellipse class="cls-22" cx="188.43" cy="144.21" rx="1.19" ry="0.71" transform="translate(11.05 301.81) rotate(-79.05)"/><path class="cls-20" d="M193.7,150.56a21.35,21.35,0,0,0-3.38-7.57,5.65,5.65,0,0,1-.15,3,7.91,7.91,0,0,1-2.44,3.37,1.11,1.11,0,0,1,.71.46,6.86,6.86,0,0,1,1.6,3.92,9.49,9.49,0,0,0,3.56-2.61"/></g><g class="cls-23"><path class="cls-5" d="M175,152.8l-.72,1.58,1.83.13.44,0,1.84.12-.5-1.67a4.29,4.29,0,1,0-2.89-.19Zm2-7.2a3.28,3.28,0,1,1-3.53,3A3.27,3.27,0,0,1,177,145.6Z"/><g class="cls-24"><rect class="cls-25" x="173.16" y="154.14" width="6.28" height="0.85" transform="translate(341.83 320.62) rotate(-176.15)"/><circle class="cls-26" cx="176.68" cy="148.86" r="3.64"/></g><ellipse class="cls-27" cx="178.92" cy="152.26" rx="0.7" ry="0.15" transform="translate(-54.53 125.88) rotate(-33.95)"/><ellipse class="cls-27" cx="179.74" cy="151.56" rx="0.33" ry="0.13" transform="translate(-48.65 207.35) rotate(-53.87)"/><path class="cls-28" d="M180.68,149.36a4.3,4.3,0,0,0-3-4.48"/><ellipse class="cls-29" cx="176.41" cy="152.89" rx="0.42" ry="3.3" transform="translate(12.03 318.64) rotate(-86.15)"/><polygon class="cls-6" points="173.95 159.1 175.9 159.24 176.26 159.26 178.21 159.39 179.46 156.96 177.87 152.99 175 152.79 173.04 156.53 173.95 159.1"/><g class="cls-30"><path class="cls-31" d="M180,155.68l-2.41.87-.43,2.41,1.42.59,1.33-.73Z"/><path class="cls-32" d="M172.84,155.2l2.27,1.19.11,2.44-1.49.39-1.22-.9Z"/><path class="cls-33" d="M180.14,157.12s-2.59-.58-2.59-.58l-.49-4.28,2,.31Z"/><path class="cls-34" d="M172.45,156.61s2.64-.23,2.64-.23l1.06-4.18-2.06,0Z"/><polygon class="cls-35" points="177.59 156.55 175.09 156.38 175.95 152.86 177.14 152.94 177.59 156.55"/><polygon class="cls-36" points="177.16 158.96 175.22 158.83 175.09 156.38 177.59 156.55 177.16 158.96"/></g><ellipse class="cls-37" cx="176.2" cy="159.07" rx="0.09" ry="1.06" transform="translate(5.66 324.19) rotate(-86.15)"/><ellipse class="cls-38" cx="178.5" cy="158.18" rx="1.01" ry="0.21" transform="translate(-38.25 257.69) rotate(-66.21)"/><ellipse class="cls-39" cx="178.26" cy="154.97" rx="0.27" ry="1.66" transform="translate(-42.66 71.38) rotate(-20.28)"/></g></svg>