<svg xmlns="http://www.w3.org/2000/svg" xmlns:xlink="http://www.w3.org/1999/xlink" viewBox="0 0 260 168"><defs><style>.cls-1{fill:#7c4d23;}.cls-2{fill:#6d3e18;}.cls-3{fill:#62d8f4;}.cls-27,.cls-4,.cls-8{fill:none;}.cls-5{fill:#ffec00;}.cls-6{fill:red;}.cls-7{fill:#56290b;}.cls-8{stroke:#512609;stroke-width:0.3px;}.cls-27,.cls-8{stroke-linecap:round;stroke-linejoin:round;}.cls-9{fill:#63310f;}.cls-10{clip-path:url(#clip-path);}.cls-11{fill:#5e2e0d;opacity:0.53;}.cls-12{clip-path:url(#clip-path-2);}.cls-13{fill:#603415;}.cls-14{fill:#844b24;}.cls-15{fill:#944728;}.cls-16{fill:#fff;}.cls-17{fill:#ea15c2;}.cls-18{clip-path:url(#clip-path-3);}.cls-19{fill:#1e9bc6;}.cls-20{fill:#2dbef7;}.cls-21{fill:#eddd14;}.cls-22{clip-path:url(#clip-path-4);}.cls-23{clip-path:url(#clip-path-5);}.cls-24{fill:#ffc200;}.cls-25{fill:#fa0;opacity:0.31;}.cls-26{fill:#fff1ae;}.cls-27{stroke:#fff1ae;stroke-width:0.34px;}.cls-28{fill:#ffb600;}.cls-29{clip-path:url(#clip-path-6);}.cls-30{fill:#ff8080;}.cls-31{fill:#ff3636;}.cls-32{fill:#ff4848;}.cls-33{fill:#dd1f1f;}.cls-34{fill:#c11111;}.cls-35{fill:#d12c2c;}.cls-36{fill:#ff8f8f;}.cls-37,.cls-38{fill:#ffc2c2;}.cls-38{opacity:0.35;}</style><clipPath id="clip-path"><path class="cls-1" d="M178.29,143.14s-4.9,1.22-4.14,4.1,10.14,4.92,16.19,3.26,3.74-3.41,3.25-4A17,17,0,0,0,178.29,143.14Z"/></clipPath><clipPath id="clip-path-2"><path class="cls-2" d="M175.5,144c4.42-4.51,13.81-1,16.78,1.21s2,3.21,2,3.21a31.84,31.84,0,0,0-12.8-3.63C174.72,144.53,174.33,145.16,175.5,144Z"/></clipPath><clipPath id="clip-path-3"><path class="cls-3" d="M189.54,141.81a1.23,1.23,0,0,1,.49.8c.17,1.15.07,3.95-4.24,6.32a7.81,7.81,0,0,1-10.41-2c-1.19-1.43.58-4.79,3.24-6.51S185.64,138.91,189.54,141.81Z"/></clipPath><clipPath id="clip-path-4"><path class="cls-4" d="M185.1,149.24a14,14,0,0,1,1.06,3.13l.27.87-2.37.6-.52-2.7s-.26-.94-.36-1.2l-14.61,1.48,1.6,8.64,7,3,10.93-4.16,1.24-1.84-.57-5.18-.9-2.19Z"/></clipPath><clipPath id="clip-path-5"><path class="cls-5" d="M186.79,157.21a4.07,4.07,0,1,0-6.36-2.08l-1.6.45,1,1.41.25.33,1,1.41.91-1.39A4.06,4.06,0,0,0,186.79,157.21Zm-.58-.76a3.11,3.11,0,1,1,.61-4.36A3.11,3.11,0,0,1,186.21,156.45Z"/></clipPath><clipPath id="clip-path-6"><polygon class="cls-6" points="177.52 161.38 176.42 159.89 176.22 159.61 175.12 158.12 176.44 155.88 180.43 155.13 182.05 157.33 180.05 160.8 177.52 161.38"/></clipPath></defs><g id="_10" data-name="10"><path class="cls-7" d="M186.92,152.18s2.61.66,3.07.07-2.67-1.34-3.32-.9S186.49,152,186.92,152.18Z"/><ellipse class="cls-7" cx="190.46" cy="154.57" rx="0.5" ry="2.8" transform="translate(-32.27 51.82) rotate(-14.3)"/><ellipse class="cls-7" cx="191.62" cy="157.36" rx="0.38" ry="1.13" transform="translate(-53.82 192.61) rotate(-47.57)"/><path class="cls-7" d="M191.84,149.22s2.48,1.05,3,.54-2.43-1.74-3.14-1.39S191.44,149,191.84,149.22Z"/><ellipse class="cls-7" cx="194.97" cy="152.13" rx="0.5" ry="2.8" transform="translate(-13.71 19.43) rotate(-5.51)"/><ellipse class="cls-7" cx="195.69" cy="155.06" rx="0.38" ry="1.13" transform="translate(-53.98 156.76) rotate(-38.78)"/><path class="cls-8" d="M196,148.25a1.83,1.83,0,0,0,1.43-2.9c-1.25-2.57-5.61-2.07-5.71-4"/><path class="cls-8" d="M194.91,149.9s1.49,3-5.53,3.79-3.27,6-3.27,6"/><path class="cls-7" d="M178.57,150.94s-1.23,2.39-.76,3,1.92-2.29,1.63-3S178.81,150.56,178.57,150.94Z"/><ellipse class="cls-7" cx="175.44" cy="153.84" rx="2.8" ry="0.5" transform="translate(-3.07 3.58) rotate(-1.16)"/><ellipse class="cls-7" cx="172.46" cy="154.34" rx="1.13" ry="0.38" transform="translate(-57.05 124.54) rotate(-34.43)"/><path class="cls-7" d="M182.67,151.21s.06,2.69.75,3,.59-2.93,0-3.44S182.7,150.76,182.67,151.21Z"/><ellipse class="cls-7" cx="181.31" cy="155.26" rx="2.8" ry="0.5" transform="translate(-53.15 110.47) rotate(-29.76)"/><ellipse class="cls-7" cx="178.93" cy="157.12" rx="1.13" ry="0.38" transform="translate(-42.25 245.33) rotate(-63.03)"/><path class="cls-9" d="M175.61,150.25s2,2.56,6.89,2.55,9.12-1.64,9.76-3S180.66,146.9,175.61,150.25Z"/><path class="cls-1" d="M178.29,143.14s-4.9,1.22-4.14,4.1,10.14,4.92,16.19,3.26,3.74-3.41,3.25-4A17,17,0,0,0,178.29,143.14Z"/><g class="cls-10"><path class="cls-11" d="M174.23,144a2.11,2.11,0,0,0,1.76,1,28.52,28.52,0,0,0,3.58,0,32.58,32.58,0,0,1,11.49,2.33,5,5,0,0,0,2.82.43.54.54,0,0,0,.23-.1c.19-.17.11-.47,0-.69a6.3,6.3,0,0,0-.78-1.08c-.88-1-1.84-2-2.81-3a5.38,5.38,0,0,0-1.68-1.25,6.33,6.33,0,0,0-2.34-.29c-1.89,0-3.77-.19-5.66-.14a12.48,12.48,0,0,0-5.46,1.24,1.39,1.39,0,0,0-.78.8c0,.19,0,.42-.18.53"/></g><path class="cls-2" d="M175.5,144c4.42-4.51,13.81-1,16.78,1.21s2,3.21,2,3.21a31.84,31.84,0,0,0-12.8-3.63C174.72,144.53,174.33,145.16,175.5,144Z"/><g class="cls-12"><path class="cls-13" d="M176,144.48a83.65,83.65,0,0,1,9.44.44,30,30,0,0,1,9.72,3.34c.27.15.57.35.63.66a.86.86,0,0,1-.21.69,3.48,3.48,0,0,1-2.07,1.06,44.23,44.23,0,0,1-5.1.89,28.65,28.65,0,0,1-10.16-.19,4.7,4.7,0,0,1-3.27-2.31,4.87,4.87,0,0,1-1.24-3.74c.1-.44.43-1.17.94-1.26.23-.05.38.1.57.2A1.55,1.55,0,0,0,176,144.48Z"/></g><path class="cls-2" d="M194.41,148.22s-7.24-3.09-12.31-3.23-6.73.46-8.15,1.2-3,5.07,6.51,5.39C187.12,151.81,193.12,150.68,194.41,148.22Z"/><ellipse class="cls-14" cx="177.84" cy="145.75" rx="3.19" ry="0.25" transform="translate(-19.91 28.43) rotate(-8.66)"/><ellipse class="cls-14" cx="174.22" cy="146.51" rx="0.4" ry="0.19" transform="translate(-43.84 81.2) rotate(-23.39)"/><path class="cls-14" d="M175.06,147.76a25.35,25.35,0,0,1,10.42-1.54c5.29.51,7.57,2.61,7.57,2.61s-6.7-.67-11,1.4c0,0,1.4-2,7.25-2.34C189.35,147.89,184.94,145.52,175.06,147.76Z"/><path class="cls-14" d="M178.66,144.49s-3.86,0-2.77-.5C175.89,144,176.3,144.38,178.66,144.49Z"/><path class="cls-14" d="M194,147.58s-10.67-3.7-12.23-5c0,0,6.21,2.82,8.22,3a4,4,0,0,1-1.39-1.58S192.08,146.87,194,147.58Z"/><path class="cls-9" d="M194.86,147.89s-4.61-2.12-5.88-1.7-4.63,4.65-1.43,5.61S195.28,149.94,194.86,147.89Z"/><path class="cls-9" d="M189.57,146.13s-.3-2,1.16-2.5,5,2.1,4.75,3.5a2.11,2.11,0,0,1-1.14,1.62S190,149.33,189.57,146.13Z"/><path class="cls-7" d="M189.93,146.09s3.82.88,4.79,2.25C194.72,148.34,194,146.32,189.93,146.09Z"/><ellipse class="cls-15" cx="193.83" cy="148.31" rx="2.78" ry="2.1" transform="translate(-42.98 207.34) rotate(-51.42)"/><ellipse cx="193.11" cy="149.35" rx="1.05" ry="0.85" transform="matrix(0.97, -0.23, 0.23, 0.97, -29.54, 49.23)"/><ellipse class="cls-16" cx="192.71" cy="149.1" rx="0.34" ry="0.28" transform="translate(-29.49 49.13) rotate(-13.5)"/><path d="M195.55,146.36c.21.39.18.8-.05.92s-.58-.1-.78-.49-.2-.79,0-.9S195.35,146,195.55,146.36Z"/><ellipse class="cls-16" cx="194.9" cy="146.1" rx="0.14" ry="0.17" transform="translate(-28.73 49.55) rotate(-13.5)"/><path class="cls-17" d="M185.1,149.24s1.4,3,1,3.56-2,.43-2,.43a28.32,28.32,0,0,0-.95-3.43C182.81,149.23,184.28,149,185.1,149.24Z"/><path class="cls-17" d="M179.67,149.35a14.53,14.53,0,0,1-2.1,2.37c-.73.49-1.85-.37-1.59-.76s1.86-2.57,1.86-2.57Z"/><path class="cls-3" d="M189.54,141.81a1.23,1.23,0,0,1,.49.8c.17,1.15.07,3.95-4.24,6.32a7.81,7.81,0,0,1-10.41-2c-1.19-1.43.58-4.79,3.24-6.51S185.64,138.91,189.54,141.81Z"/><g class="cls-18"><path class="cls-19" d="M177.82,151.07l4.57-.38a4.42,4.42,0,0,1-2.23-2.64,3.14,3.14,0,0,1,.46-3.5l4.08,2.94-1,3.7-3,1.49Z"/><path class="cls-20" d="M190.47,141.33s-6.14-3.33-9.39.15-1.59,5.68-.3,6.57,2,1.64,1.45,2.08,7.12-1.2,7.12-1.2S191.76,141.9,190.47,141.33Z"/><ellipse class="cls-21" cx="182.09" cy="142.2" rx="1.13" ry="0.68" transform="translate(-47.9 164.16) rotate(-43.44)"/><path class="cls-19" d="M174.32,141.22a20.22,20.22,0,0,1,7.78-1.15,5.34,5.34,0,0,0-2.29,1.63,7.42,7.42,0,0,0-1.46,3.68,1,1,0,0,0-.74-.33,6.52,6.52,0,0,0-4,.71,9,9,0,0,1,.28-4.18"/></g><g class="cls-22"><path class="cls-5" d="M186.79,157.21a4.07,4.07,0,1,0-6.36-2.08l-1.6.45,1,1.41.25.33,1,1.41.91-1.39A4.06,4.06,0,0,0,186.79,157.21Zm-.58-.76a3.11,3.11,0,1,1,.61-4.36A3.11,3.11,0,0,1,186.21,156.45Z"/><g class="cls-23"><rect class="cls-24" x="176.98" y="156.79" width="5.97" height="0.8" transform="translate(199.95 -80.92) rotate(53.66)"/><circle class="cls-25" cx="184.33" cy="153.97" r="3.46"/></g><ellipse class="cls-26" cx="180.47" cy="153.91" rx="0.66" ry="0.14" transform="translate(22.01 330.4) rotate(-88.54)"/><ellipse class="cls-26" cx="180.62" cy="152.9" rx="0.31" ry="0.13" transform="translate(-27.59 265.36) rotate(-68.62)"/><path class="cls-27" d="M181.9,151a4.09,4.09,0,0,1,5.1.08"/><ellipse class="cls-28" cx="181.25" cy="156.24" rx="0.4" ry="3.13" transform="translate(-57.33 137.78) rotate(-36.34)"/><polygon class="cls-6" points="177.52 161.38 176.42 159.89 176.22 159.61 175.12 158.12 176.44 155.88 180.43 155.13 182.05 157.33 180.05 160.8 177.52 161.38"/><g class="cls-29"><path class="cls-30" d="M177.18,154.79s.53,2.37.53,2.37L176,158.74l-1.2-.84-.09-1.43Z"/><path class="cls-31" d="M181.22,160.28s-2.11-1.21-2.11-1.21l-2,1.16.44,1.39,1.34.52Z"/><path class="cls-32" d="M176,155.42s1.79,1.77,1.79,1.77l3.68-1.79-1.28-1.48Z"/><path class="cls-33" d="M180.29,161.31s-1.16-2.23-1.16-2.23l2.8-3,1,1.67Z"/><polygon class="cls-34" points="177.71 157.16 179.13 159.08 181.51 156.59 180.84 155.68 177.71 157.16"/><polygon class="cls-35" points="176 158.74 177.1 160.23 179.13 159.08 177.71 157.16 176 158.74"/></g><ellipse class="cls-36" cx="176.41" cy="159.57" rx="0.08" ry="1.01" transform="translate(-60.25 135.56) rotate(-36.34)"/><ellipse class="cls-37" cx="175.94" cy="157.27" rx="0.96" ry="0.2" transform="translate(-52.54 216.32) rotate(-56.28)"/><ellipse class="cls-38" cx="178.64" cy="155.82" rx="1.57" ry="0.26" transform="translate(-28.92 41.32) rotate(-12.21)"/></g></g></svg>