<svg xmlns="http://www.w3.org/2000/svg" xmlns:xlink="http://www.w3.org/1999/xlink" viewBox="0 0 260 168"><defs><style>.cls-1{fill:#7c4d23;}.cls-2{fill:#6d3e18;}.cls-3{fill:#62d8f4;}.cls-4{fill:#1e9bc6;}.cls-28,.cls-5,.cls-9{fill:none;}.cls-6{fill:#ffec00;}.cls-7{fill:red;}.cls-8{fill:#56290b;}.cls-9{stroke:#512609;stroke-width:0.28px;}.cls-28,.cls-9{stroke-linecap:round;stroke-linejoin:round;}.cls-10{fill:#63310f;}.cls-11{clip-path:url(#clip-path);}.cls-12{fill:#5e2e0d;opacity:0.53;}.cls-13{clip-path:url(#clip-path-2);}.cls-14{fill:#603415;}.cls-15{fill:#844b24;}.cls-16{fill:#944728;}.cls-17{fill:#fff;}.cls-18{fill:#ea15c2;}.cls-19{clip-path:url(#clip-path-3);}.cls-20{clip-path:url(#clip-path-4);}.cls-21{fill:#0489ad;}.cls-22{fill:#2aafd3;}.cls-23{clip-path:url(#clip-path-5);}.cls-24{clip-path:url(#clip-path-6);}.cls-25{fill:#ffc200;}.cls-26{fill:#fa0;opacity:0.31;}.cls-27{fill:#fff1ae;}.cls-28{stroke:#fff1ae;stroke-width:0.24px;}.cls-29{fill:#ffb600;}.cls-30{clip-path:url(#clip-path-7);}.cls-31{fill:#ff8080;}.cls-32{fill:#ff3636;}.cls-33{fill:#ff4848;}.cls-34{fill:#dd1f1f;}.cls-35{fill:#c11111;}.cls-36{fill:#d12c2c;}.cls-37{fill:#ff8f8f;}.cls-38,.cls-39{fill:#ffc2c2;}.cls-39{opacity:0.35;}.cls-40{fill:#0483a5;}.cls-41{fill:#fcd212;}.cls-42{fill:url(#linear-gradient);}.cls-43{fill:#f6b019;}.cls-44{fill:#bc6828;}.cls-45{fill:#326d1f;}</style><clipPath id="clip-path"><path class="cls-1" d="M110.38,142.62s-.58,4.61,2.14,4.91,7.58-7.05,8.17-12.79-1.68-4.34-2.34-4.11A15.59,15.59,0,0,0,110.38,142.62Z"/></clipPath><clipPath id="clip-path-2"><path class="cls-2" d="M110.16,145.28c-2.39-5.28,3.7-12.17,6.61-14s3.42-.64,3.42-.64a29.19,29.19,0,0,0-7.37,9.76C110.38,146.15,110.8,146.68,110.16,145.28Z"/></clipPath><clipPath id="clip-path-3"><path class="cls-3" d="M113,132.54a1.13,1.13,0,0,1,.86-.15c1,.23,3.4,1.25,4,5.73a7.18,7.18,0,0,1-5.12,8.27c-1.63.55-3.92-2.09-4.51-4.94S109.19,134.91,113,132.54Z"/></clipPath><clipPath id="clip-path-4"><path class="cls-4" d="M119.36,143.72l-.28-3.06-.93-.68c.39-1.94.86-4.91.86-4.91s-5.22-4.4-6.14-3.49c0,0-4.89,4.16-3,8.1,1.48,3.06,3.27,3.32,4.56,2.91.24,0,.69-.31,1-.31,2.19-.06,2.51-1.59,2.51-1.59l-.9,5Z"/></clipPath><clipPath id="clip-path-5"><path class="cls-5" d="M119.38,137h1.05l1.33-.41s3.07-1.54,2.26.72l-.14,2.23,3.79,7.74s-6.44,3.72-6.48,3.71-4.19-7.35-4.19-7.35l1.38-4.85Z"/></clipPath><clipPath id="clip-path-6"><path class="cls-6" d="M123.49,140a2.92,2.92,0,1,0-2.46,4.14l.07,1.19,1.15-.51.27-.12,1.15-.5-.83-.86A2.9,2.9,0,0,0,123.49,140Zm-.62.29a2.24,2.24,0,1,1-3-1.11A2.23,2.23,0,0,1,122.87,140.29Z"/></clipPath><clipPath id="clip-path-7"><polygon class="cls-7" points="124.97 147.16 123.75 147.7 123.52 147.79 122.3 148.33 120.93 147.06 121.03 144.14 122.83 143.35 124.95 145.29 124.97 147.16"/></clipPath><linearGradient id="linear-gradient" x1="87.11" y1="123.14" x2="74.29" y2="142.04" gradientTransform="matrix(0.93, -0.37, 0.37, 0.93, -8.51, 39.34)" gradientUnits="userSpaceOnUse"><stop offset="0.22" stop-color="#ef4136"/><stop offset="1" stop-color="#be1e2d" stop-opacity="0"/></linearGradient></defs><g id="_6" data-name="6"><path class="cls-8" d="M113.28,144.08s1.64,1.85,2.29,1.64-1.32-2.4-2-2.4S113,143.74,113.28,144.08Z"/><ellipse class="cls-8" cx="114.73" cy="147.72" rx="2.57" ry="0.46" transform="translate(-63.35 204.94) rotate(-69.98)"/><ellipse class="cls-8" cx="114.16" cy="150.44" rx="0.35" ry="1.04" transform="translate(-31.44 30.17) rotate(-13.25)"/><path class="cls-8" d="M116.8,142s2.4.62,2.82.08-2.44-1.25-3-.84S116.41,141.84,116.8,142Z"/><ellipse class="cls-8" cx="120.04" cy="144.19" rx="0.46" ry="2.57" transform="translate(-31.36 33.39) rotate(-14.02)"/><ellipse class="cls-8" cx="121.09" cy="146.76" rx="0.35" ry="1.04" transform="translate(-68.88 136.21) rotate(-47.29)"/><path class="cls-8" d="M121,138.23s1.43-2,1.07-2.61-2,1.84-1.87,2.54S120.73,138.54,121,138.23Z"/><ellipse class="cls-8" cx="124.22" cy="135.99" rx="0.46" ry="2.57" transform="translate(-25.67 243.02) rotate(-83.12)"/><ellipse class="cls-8" cx="126.99" cy="135.92" rx="1.04" ry="0.35" transform="translate(-47.18 70.61) rotate(-26.39)"/><path class="cls-8" d="M117.51,131.62s2.25-1,2.25-1.69-2.69.54-2.9,1.24S117.12,131.76,117.51,131.62Z"/><ellipse class="cls-8" cx="121.42" cy="131.33" rx="0.46" ry="2.57" transform="translate(-56.65 148.08) rotate(-52.62)"/><ellipse class="cls-8" cx="123.85" cy="132.68" rx="0.35" ry="1.04" transform="matrix(0.07, -1, 1, 0.07, -17.37, 246.7)"/><path class="cls-9" d="M120.64,129.16a1.69,1.69,0,0,0-2-2.19c-2.61.22-3.63,4.12-5.32,3.57"/><path class="cls-9" d="M121.69,130.62s3-.29,1.42,6,4,4.79,4,4.79"/><path class="cls-8" d="M117.16,145s1.64,1.85,2.29,1.64-1.32-2.4-2-2.4S116.91,144.63,117.16,145Z"/><ellipse class="cls-8" cx="118.61" cy="148.62" rx="2.57" ry="0.46" transform="translate(-61.63 209.18) rotate(-69.98)"/><ellipse class="cls-8" cx="118.04" cy="151.33" rx="0.35" ry="1.04" transform="translate(-31.54 31.08) rotate(-13.25)"/><path class="cls-8" d="M118.75,141.55s2.33.84,2.8.34-2.31-1.47-3-1.12S118.38,141.37,118.75,141.55Z"/><ellipse class="cls-8" cx="121.77" cy="144.06" rx="0.46" ry="2.57" transform="translate(-20.13 19.78) rotate(-8.58)"/><ellipse class="cls-8" cx="122.57" cy="146.71" rx="0.35" ry="1.04" transform="translate(-66.62 119.21) rotate(-41.85)"/><path class="cls-10" d="M115.58,147.28s2.87-.88,4.48-5.06,1.62-8.36.66-9.37S114.39,141.84,115.58,147.28Z"/><path class="cls-1" d="M110.38,142.62s-.58,4.61,2.14,4.91,7.58-7.05,8.17-12.79-1.68-4.34-2.34-4.11A15.59,15.59,0,0,0,110.38,142.62Z"/><g class="cls-11"><path class="cls-12" d="M109.75,146.38a1.93,1.93,0,0,0,1.41-1.19,25.21,25.21,0,0,0,1.17-3.07,30.06,30.06,0,0,1,5.81-9.08,4.57,4.57,0,0,0,1.31-2.27.65.65,0,0,0,0-.24c-.08-.21-.37-.24-.59-.22a6.13,6.13,0,0,0-1.19.31c-1.18.42-2.34.91-3.48,1.43a5.21,5.21,0,0,0-1.63,1,5.68,5.68,0,0,0-1,1.91c-.64,1.62-1.42,3.17-2,4.8a11.31,11.31,0,0,0-.75,5.1,1.25,1.25,0,0,0,.42.93c.15.1.36.16.4.33"/></g><path class="cls-2" d="M110.16,145.28c-2.39-5.28,3.7-12.17,6.61-14s3.42-.64,3.42-.64a29.19,29.19,0,0,0-7.37,9.76C110.38,146.15,110.8,146.68,110.16,145.28Z"/><g class="cls-13"><path class="cls-14" d="M110.77,145a77.19,77.19,0,0,1,3.51-7.94,27.4,27.4,0,0,1,6.09-7.22,1,1,0,0,1,.77-.33.8.8,0,0,1,.52.41,3.23,3.23,0,0,1,.23,2.13,39.36,39.36,0,0,1-.93,4.67,26.36,26.36,0,0,1-3.54,8.63,5.17,5.17,0,0,1-1,1.12,5.68,5.68,0,0,1-2.1.93,4.49,4.49,0,0,1-3.62-.19c-.34-.23-.86-.75-.77-1.22,0-.21.21-.29.36-.42A1.54,1.54,0,0,0,110.77,145Z"/></g><path class="cls-2" d="M120.08,130.49s-5,5.18-6.85,9.48-1.83,5.92-1.68,7.38,3.36,4.25,6.79-3.78C120.75,137.93,121.76,132.42,120.08,130.49Z"/><ellipse class="cls-15" cx="112.47" cy="143.88" rx="2.93" ry="0.23" transform="translate(-52.37 222.48) rotate(-77.48)"/><ellipse class="cls-15" cx="111.92" cy="147.23" rx="0.18" ry="0.37" transform="translate(-5.59 4.43) rotate(-2.21)"/><path class="cls-15" d="M113.27,146.93a23.22,23.22,0,0,1,2.14-9.45c2.19-4.36,4.75-5.62,4.75-5.62s-2.8,5.52-2.44,9.85c0,0-1.23-1.85.41-7C118.13,134.72,114.63,137.71,113.27,146.93Z"/><path class="cls-15" d="M111.67,142.75s-1.3,3.31-1.35,2.21C110.32,145,110.78,144.74,111.67,142.75Z"/><path class="cls-15" d="M119.4,130.64s-6.72,7.92-8.36,8.81c0,0,4.48-4.38,5.33-6a3.62,3.62,0,0,1-1.82.66A26.73,26.73,0,0,0,119.4,130.64Z"/><path class="cls-10" d="M120,130s-3.35,3.25-3.41,4.47,2.45,5.52,4.34,3.09S121.85,130.32,120,130Z"/><path class="cls-10" d="M116.69,134s-1.82-.41-1.76-1.83,3.45-3.57,4.58-2.91a2,2,0,0,1,1,1.52S119.59,134.61,116.69,134Z"/><path class="cls-8" d="M116.77,133.63s2-3,3.52-3.36C120.29,130.27,118.32,130.21,116.77,133.63Z"/><ellipse class="cls-16" cx="119.97" cy="131.02" rx="1.93" ry="2.56" transform="translate(-49.67 78.26) rotate(-30.24)"/><ellipse cx="120.63" cy="131.98" rx="0.96" ry="0.78" transform="translate(-26.28 233.91) rotate(-82.33)"/><ellipse class="cls-17" cx="120.28" cy="132.24" rx="0.31" ry="0.25" transform="translate(-26.84 233.79) rotate(-82.33)"/><path d="M118.87,128.89c.4,0,.75.12.77.36s-.28.46-.68.5-.74-.09-.76-.32S118.47,128.94,118.87,128.89Z"/><ellipse class="cls-17" cx="118.43" cy="129.37" rx="0.13" ry="0.16" transform="matrix(0.13, -0.99, 0.99, 0.13, -25.59, 229.47)"/><path class="cls-18" d="M117.87,138.81s3.07-.18,3.38.33-.31,1.89-.31,1.89a27.06,27.06,0,0,0-3.25-.33C117.1,140.77,117.35,139.42,117.87,138.81Z"/><path class="cls-18" d="M116.16,143.5a13.11,13.11,0,0,1,1.33,2.58c.18.79-.93,1.47-1.17,1.12s-1.59-2.45-1.59-2.45Z"/><path class="cls-3" d="M113,132.54a1.13,1.13,0,0,1,.86-.15c1,.23,3.4,1.25,4,5.73a7.18,7.18,0,0,1-5.12,8.27c-1.63.55-3.92-2.09-4.51-4.94S109.19,134.91,113,132.54Z"/><g class="cls-19"><path class="cls-4" d="M119.36,143.72l-.28-3.06-.93-.68c.39-1.94.86-4.91.86-4.91s-5.22-4.4-6.14-3.49c0,0-4.89,4.16-3,8.1,1.48,3.06,3.27,3.32,4.56,2.91.24,0,.69-.31,1-.31,2.19-.06,2.51-1.59,2.51-1.59l-.9,5Z"/><g class="cls-20"><path class="cls-21" d="M116.16,144.25a9.43,9.43,0,0,0-2.29-3.31,4.45,4.45,0,0,0-1.88-1.21,4.79,4.79,0,0,0-3.28.72c-.52.27-1,.56-1.53.88a4.52,4.52,0,0,0-1.38,1.3,3.59,3.59,0,0,0,.3,3.76,6.75,6.75,0,0,0,2.82,2.33,12.33,12.33,0,0,0,3.57.95,4.87,4.87,0,0,0,2.34-.1C117,148.82,116.81,146,116.16,144.25Z"/><path class="cls-22" d="M111.61,138.81a1.85,1.85,0,0,1-.46.61,2.66,2.66,0,0,1-.6.32,22,22,0,0,1-2.6.86.83.83,0,0,1-.71,0,.66.66,0,0,1-.2-.29c-.7-1.51-.29-3.3.28-4.87a21.63,21.63,0,0,1,.87-2.13,3.46,3.46,0,0,1,.65-1,3.61,3.61,0,0,1,1.13-.69c1.46-.64,3.64-.72,3.46,1.38A13.85,13.85,0,0,1,111.61,138.81Z"/></g><path class="cls-4" d="M107.42,145.39a18.68,18.68,0,0,1,1.59-7.06,5,5,0,0,0,.64,2.51,6.83,6.83,0,0,0,2.67,2.47,1,1,0,0,0-.53.52,6,6,0,0,0-.7,3.63,8.24,8.24,0,0,1-3.49-1.63"/></g><g class="cls-23"><path class="cls-6" d="M123.49,140a2.92,2.92,0,1,0-2.46,4.14l.07,1.19,1.15-.51.27-.12,1.15-.5-.83-.86A2.9,2.9,0,0,0,123.49,140Zm-.62.29a2.24,2.24,0,1,1-3-1.11A2.23,2.23,0,0,1,122.87,140.29Z"/><g class="cls-24"><rect class="cls-25" x="120.26" y="144.5" width="4.29" height="0.58" transform="translate(-47.96 61.58) rotate(-23.76)"/><circle class="cls-26" cx="120.83" cy="141.22" r="2.48" transform="translate(-43.26 228.49) rotate(-77.46)"/></g><ellipse class="cls-27" cx="120.19" cy="143.92" rx="0.1" ry="0.48" transform="translate(-48.6 225.59) rotate(-75.96)"/><ellipse class="cls-27" cx="119.5" cy="143.66" rx="0.09" ry="0.22" transform="translate(-66.41 162.52) rotate(-56.04)"/><path class="cls-28" d="M118.38,142.46a2.93,2.93,0,0,1,.85-3.56"/><ellipse class="cls-29" cx="121.94" cy="143.74" rx="2.25" ry="0.28" transform="translate(-47.57 61.3) rotate(-23.76)"/><polygon class="cls-7" points="124.97 147.16 123.75 147.7 123.52 147.79 122.3 148.33 120.93 147.06 121.03 144.14 122.83 143.35 124.95 145.29 124.97 147.16"/><g class="cls-30"><path class="cls-31" d="M120.29,146.37H122l.83,1.44-.77.71-1-.16Z"/><path class="cls-32" d="M124.77,144.39l-1.18,1.29.5,1.59,1-.09.57-.86Z"/><path class="cls-33" d="M120.53,147.32l1.53-1-.68-2.86-1.24.67Z"/><path class="cls-34" d="M125.35,145.2l-1.75.47L122,143.24l1.33-.46Z"/><polygon class="cls-35" points="122.03 146.37 123.6 145.67 122.23 143.61 121.48 143.94 122.03 146.37"/><polygon class="cls-36" points="122.87 147.81 124.09 147.28 123.6 145.67 122.03 146.37 122.87 147.81"/></g><ellipse class="cls-37" cx="123.52" cy="147.66" rx="0.73" ry="0.06" transform="translate(-49.02 62.27) rotate(-23.76)"/><ellipse class="cls-38" cx="121.83" cy="147.62" rx="0.14" ry="0.69" transform="translate(-68.24 125.07) rotate(-43.7)"/><ellipse class="cls-39" cx="121.24" cy="145.51" rx="1.13" ry="0.19" transform="translate(-25.04 265.81) rotate(-89.63)"/></g><path class="cls-18" d="M117.92,140.69l1.25.11L121,139s-.21-.23-2.35-.21l-.55.53Z"/><path class="cls-40" d="M113.41,132.38s1.8-4.93,4.32-2.38,6.12,6.76,3,9.24-3.09,2.17-3.09,2.17S119,133.27,113.41,132.38Z"/><path class="cls-41" d="M113.55,129.45a4.17,4.17,0,0,1,4.85,1.3c1.74,2.05,1.37,6.54-1.62,9.47a6,6,0,0,1-3.17,1.66,3.15,3.15,0,0,1-3.27-1h0c-.48-.76.48-1.42.61-2.22C111.32,136.07,109.12,131.22,113.55,129.45Z"/><path class="cls-42" d="M113.55,129.45a4.17,4.17,0,0,1,4.85,1.3c1.74,2.05,1.37,6.54-1.62,9.47a6,6,0,0,1-3.17,1.66,3.15,3.15,0,0,1-3.27-1h0c-.48-.76.48-1.42.61-2.22C111.32,136.07,109.12,131.22,113.55,129.45Z"/><path class="cls-43" d="M114.17,130.38s.48.24,1.14-.31"/><path class="cls-44" d="M114.87,130.23a5.24,5.24,0,0,0-.77-3.43.23.23,0,0,0-.32-.07h0a.24.24,0,0,0-.07.36,4.65,4.65,0,0,1,1,3.12.1.1,0,0,0,.13.11h0A.14.14,0,0,0,114.87,130.23Z"/><path class="cls-45" d="M114.7,130.3s.16-2.12-2.56-2.62C112.14,127.68,112.44,130.44,114.7,130.3Z"/></g></svg>