<svg id="Layer_1" data-name="Layer 1" xmlns="http://www.w3.org/2000/svg" xmlns:xlink="http://www.w3.org/1999/xlink" viewBox="0 0 260 168"><defs><style>.cls-1{fill:#7c4d23;}.cls-2{fill:#6d3e18;}.cls-3{fill:#62d8f4;}.cls-4{fill:#56290b;}.cls-5{fill:none;stroke:#512609;stroke-linecap:round;stroke-linejoin:round;stroke-width:0.35px;}.cls-6{fill:#63310f;}.cls-7{clip-path:url(#clip-path);}.cls-8{fill:#5e2e0d;opacity:0.53;}.cls-9{clip-path:url(#clip-path-2);}.cls-10{fill:#603415;}.cls-11{fill:#844b24;}.cls-12{fill:#944728;}.cls-13{fill:#fff;}.cls-14{fill:#ea15c2;}.cls-15{clip-path:url(#clip-path-3);}.cls-16{fill:#1e9bc6;}.cls-17{fill:#2dbef7;}.cls-18{fill:#eddd14;}</style><clipPath id="clip-path"><path class="cls-1" d="M224.91,139.42s5.69,1.42,4.81,4.76-11.78,5.72-18.81,3.79-4.34-4-3.78-4.63S214.66,136.91,224.91,139.42Z"/></clipPath><clipPath id="clip-path-2"><path class="cls-2" d="M228.15,140.38c-5.14-5.23-16-1.2-19.5,1.41s-2.31,3.73-2.31,3.73a37,37,0,0,1,14.88-4.22C229.06,141,229.5,141.76,228.15,140.38Z"/></clipPath><clipPath id="clip-path-3"><path class="cls-3" d="M211.84,137.87a1.5,1.5,0,0,0-.57.94c-.2,1.33-.08,4.58,4.93,7.33,6.47,3.56,10.69-.59,12.09-2.25s-.67-5.57-3.77-7.57S216.37,134.5,211.84,137.87Z"/></clipPath></defs><path class="cls-4" d="M214.88,149.93s-3,.76-3.56.08,3.09-1.57,3.85-1S215.38,149.75,214.88,149.93Z"/><ellipse class="cls-4" cx="210.77" cy="152.7" rx="3.25" ry="0.59" transform="translate(10.75 319.24) rotate(-75.7)"/><ellipse class="cls-4" cx="209.43" cy="155.94" rx="1.31" ry="0.44" transform="translate(-50.36 182.15) rotate(-42.43)"/><path class="cls-4" d="M208.89,142.92s-2.79-1.41-2.74-2.27,3.36.84,3.59,1.73S209.38,143.11,208.89,142.92Z"/><ellipse class="cls-4" cx="203.97" cy="142.32" rx="3.25" ry="0.59" transform="translate(-44.75 141.79) rotate(-34.78)"/><ellipse class="cls-4" cx="200.83" cy="143.89" rx="1.31" ry="0.44" transform="translate(-3.73 5.35) rotate(-1.51)"/><path class="cls-5" d="M204.36,145.36a2.14,2.14,0,0,1-1.67-3.37c1.46-3,6.53-2.4,6.64-4.64"/><path class="cls-5" d="M205.6,147.27s-1.73,3.46,6.43,4.41,3.8,7,3.8,7"/><path class="cls-4" d="M224.58,148.48s1.43,2.78.89,3.45-2.23-2.65-1.89-3.51S224.3,148,224.58,148.48Z"/><ellipse class="cls-4" cx="228.22" cy="151.86" rx="0.59" ry="3.25" transform="translate(71.78 376.96) rotate(-88.84)"/><ellipse class="cls-4" cx="231.68" cy="152.43" rx="0.44" ry="1.31" transform="translate(-25.03 257.35) rotate(-55.57)"/><path class="cls-4" d="M219.82,148.8s-.07,3.12-.87,3.45-.68-3.4,0-4S219.79,148.27,219.82,148.8Z"/><ellipse class="cls-4" cx="221.4" cy="153.5" rx="0.59" ry="3.25" transform="translate(-21.75 269.51) rotate(-60.24)"/><ellipse class="cls-4" cx="224.17" cy="155.66" rx="0.44" ry="1.31" transform="translate(-46.22 118.6) rotate(-26.97)"/><path class="cls-6" d="M228,147.68s-2.34,3-8,3-10.59-1.9-11.34-3.5S222.16,143.79,228,147.68Z"/><path class="cls-1" d="M224.91,139.42s5.69,1.42,4.81,4.76-11.78,5.72-18.81,3.79-4.34-4-3.78-4.63S214.66,136.91,224.91,139.42Z"/><g class="cls-7"><path class="cls-8" d="M229.63,140.4a2.49,2.49,0,0,1-2,1.11,32.09,32.09,0,0,1-4.16,0c-4.56-.1-9,1.17-13.35,2.7a5.75,5.75,0,0,1-3.27.51.62.62,0,0,1-.27-.13c-.22-.19-.13-.54,0-.79a7,7,0,0,1,.91-1.26c1-1.21,2.13-2.34,3.26-3.44a6.56,6.56,0,0,1,1.95-1.46,7.3,7.3,0,0,1,2.72-.34c2.2,0,4.38-.22,6.57-.16a14.42,14.42,0,0,1,6.35,1.45,1.54,1.54,0,0,1,.9.92c.05.22,0,.49.22.62"/></g><path class="cls-2" d="M228.15,140.38c-5.14-5.23-16-1.2-19.5,1.41s-2.31,3.73-2.31,3.73a37,37,0,0,1,14.88-4.22C229.06,141,229.5,141.76,228.15,140.38Z"/><g class="cls-9"><path class="cls-10" d="M227.57,141a98.84,98.84,0,0,0-11,.51,34.58,34.58,0,0,0-11.28,3.88c-.32.18-.67.4-.75.76a1.07,1.07,0,0,0,.26.81,4.09,4.09,0,0,0,2.4,1.23,51.42,51.42,0,0,0,5.93,1A33.34,33.34,0,0,0,225,149a6.65,6.65,0,0,0,1.75-.63,6.94,6.94,0,0,0,2.06-2c.92-1.27,1.77-2.81,1.43-4.34-.11-.51-.5-1.36-1.08-1.47-.27-.05-.45.12-.67.23A1.91,1.91,0,0,1,227.57,141Z"/></g><path class="cls-2" d="M206.18,145.32s8.41-3.59,14.31-3.76,7.81.55,9.46,1.4,3.47,5.89-7.56,6.27C214.65,149.5,207.68,148.18,206.18,145.32Z"/><ellipse class="cls-11" cx="225.44" cy="142.46" rx="0.29" ry="3.7" transform="translate(50.67 343.88) rotate(-81.34)"/><ellipse class="cls-11" cx="229.63" cy="143.34" rx="0.22" ry="0.46" transform="translate(6.92 297.21) rotate(-66.61)"/><path class="cls-11" d="M228.66,144.79a29.29,29.29,0,0,0-12.1-1.79c-6.14.59-8.8,3-8.8,3s7.78-.79,12.73,1.62c0,0-1.63-2.3-8.43-2.72C212.06,144.94,217.18,142.19,228.66,144.79Z"/><path class="cls-11" d="M224.48,141s4.49,0,3.22-.58C227.7,140.41,227.22,140.86,224.48,141Z"/><path class="cls-11" d="M206.67,144.58s12.4-4.3,14.2-5.83c0,0-7.21,3.28-9.54,3.53a4.56,4.56,0,0,0,1.61-1.84S208.89,143.75,206.67,144.58Z"/><path class="cls-6" d="M205.66,144.94s5.36-2.46,6.83-2,5.38,5.41,1.66,6.52S205.18,147.33,205.66,144.94Z"/><path class="cls-6" d="M211.81,142.89s.34-2.33-1.35-2.9-5.79,2.44-5.52,4.07a2.47,2.47,0,0,0,1.33,1.88S211.26,146.61,211.81,142.89Z"/><path class="cls-4" d="M211.39,142.84s-4.44,1-5.57,2.62C205.82,145.46,206.65,143.11,211.39,142.84Z"/><ellipse class="cls-12" cx="206.86" cy="145.42" rx="2.43" ry="3.23" transform="translate(-45.54 160.74) rotate(-38.58)"/><ellipse cx="207.69" cy="146.64" rx="0.98" ry="1.22" transform="translate(16.6 314.34) rotate(-76.5)"/><ellipse class="cls-13" cx="208.15" cy="146.35" rx="0.32" ry="0.4" transform="translate(17.24 314.57) rotate(-76.5)"/><path d="M204.85,143.16c-.23.45-.2.93.06,1.07s.68-.12.91-.57.23-.91,0-1S205.09,142.7,204.85,143.16Z"/><ellipse class="cls-13" cx="205.61" cy="142.86" rx="0.2" ry="0.16" transform="translate(18.69 309.43) rotate(-76.5)"/><path class="cls-14" d="M217,146.5s-1.61,3.54-1.15,4.14,2.37.51,2.37.51a34.66,34.66,0,0,1,1.1-4C219.66,146.5,218,146.18,217,146.5Z"/><path class="cls-14" d="M223.31,146.64a16.28,16.28,0,0,0,2.43,2.74c.85.57,2.16-.42,1.85-.87s-2.15-3-2.15-3Z"/><path class="cls-3" d="M211.84,137.87a1.5,1.5,0,0,0-.57.94c-.2,1.33-.08,4.58,4.93,7.33,6.47,3.56,10.69-.59,12.09-2.25s-.67-5.57-3.77-7.57S216.37,134.5,211.84,137.87Z"/><g class="cls-15"><path class="cls-16" d="M225.45,148.63l-5.31-.44s1.53-.51,2.59-3.07a3.61,3.61,0,0,0-.53-4.06l-4.74,3.41,1.17,4.31,3.47,1.73Z"/><path class="cls-17" d="M210.76,137.31s7.13-3.86,10.91.18,1.84,6.6.35,7.63-2.34,1.91-1.69,2.42-8.26-1.4-8.26-1.4S209.27,138,210.76,137.31Z"/><ellipse class="cls-18" cx="220.49" cy="138.33" rx="0.79" ry="1.31" transform="translate(-31.56 203.31) rotate(-46.56)"/><path class="cls-16" d="M229.52,137.19a23.58,23.58,0,0,0-9-1.34,6.2,6.2,0,0,1,2.67,1.9,8.64,8.64,0,0,1,1.69,4.27,1.2,1.2,0,0,1,.85-.38,7.57,7.57,0,0,1,4.6.83,10.65,10.65,0,0,0-.32-4.86"/></g></svg>