<svg id="_3" data-name="3" xmlns="http://www.w3.org/2000/svg" xmlns:xlink="http://www.w3.org/1999/xlink" viewBox="0 0 260 168"><defs><style>.cls-1{fill:#7c4d23;}.cls-2{fill:#6d3e18;}.cls-3{fill:#62d8f4;}.cls-28,.cls-4,.cls-8{fill:none;}.cls-5{fill:#ffec00;}.cls-6{fill:red;}.cls-7{fill:#56290b;}.cls-8{stroke:#512609;stroke-width:0.32px;}.cls-28,.cls-8{stroke-linecap:round;stroke-linejoin:round;}.cls-9{fill:#472107;}.cls-10{fill:#63310f;}.cls-11{clip-path:url(#clip-path);}.cls-12{fill:#5e2e0d;opacity:0.53;}.cls-13{clip-path:url(#clip-path-2);}.cls-14{fill:#603415;}.cls-15{fill:#844b24;}.cls-16{fill:#944728;}.cls-17{fill:#fff;}.cls-18{fill:#ea15c2;}.cls-19{clip-path:url(#clip-path-3);}.cls-20{fill:#1e9bc6;}.cls-21{fill:#2dbef7;}.cls-22{fill:#eddd14;}.cls-23{clip-path:url(#clip-path-4);}.cls-24{clip-path:url(#clip-path-5);}.cls-25{fill:#ffc200;}.cls-26{fill:#fa0;opacity:0.31;}.cls-27{fill:#fff1ae;}.cls-28{stroke:#fff1ae;stroke-width:0.36px;}.cls-29{fill:#ffb600;}.cls-30{clip-path:url(#clip-path-6);}.cls-31{fill:#ff8080;}.cls-32{fill:#ff3636;}.cls-33{fill:#ff4848;}.cls-34{fill:#dd1f1f;}.cls-35{fill:#c11111;}.cls-36{fill:#d12c2c;}.cls-37{fill:#ff8f8f;}.cls-38,.cls-39{fill:#ffc2c2;}.cls-39{opacity:0.35;}</style><clipPath id="clip-path"><path class="cls-1" d="M192.21,150s.54,5.3-2.57,5.57-8.5-8.28-9-14.87,2-4.92,2.79-4.65A17.89,17.89,0,0,1,192.21,150Z"/></clipPath><clipPath id="clip-path-2"><path class="cls-2" d="M192.39,153c2.88-6-3.91-14-7.19-16.18s-3.89-.83-3.89-.83a33.56,33.56,0,0,1,8.17,11.38C192.12,154,191.63,154.6,192.39,153Z"/></clipPath><clipPath id="clip-path-3"><path class="cls-3" d="M189.52,138.35a1.36,1.36,0,0,0-1-.2c-1.19.24-3.93,1.34-4.73,6.45a8.23,8.23,0,0,0,5.63,9.62c1.85.67,4.55-2.29,5.3-5.54S193.78,141.17,189.52,138.35Z"/></clipPath><clipPath id="clip-path-4"><path class="cls-4" d="M183.68,145.32a15.11,15.11,0,0,0-3.48.09l-.95.05.26,2.56,2.86-.47s1-.08,1.31-.07l3.82,15L178.38,164l-5.48-5.84.16-12.31,1.37-1.9,5.32-1.31,2.5.11Z"/></clipPath><clipPath id="clip-path-5"><path class="cls-5" d="M176.77,151.26l-1.05,1.4,1.77.51.42.13,1.77.51-.13-1.74a4.29,4.29,0,1,0-2.78-.81Zm3.47-6.6a3.28,3.28,0,1,1-4.09,2.17A3.28,3.28,0,0,1,180.24,144.66Z"/></clipPath><clipPath id="clip-path-6"><polygon class="cls-6" points="174.42 157.21 176.29 157.75 176.63 157.85 178.51 158.4 180.25 156.29 179.55 152.07 176.79 151.26 174.08 154.49 174.42 157.21"/></clipPath></defs><path class="cls-7" d="M180.18,144.65s-1.59-2.35-1.17-3,2.29,2.15,2.08,3S180.48,145,180.18,144.65Z"/><ellipse class="cls-7" cx="177.02" cy="140.4" rx="0.53" ry="2.95" transform="translate(-41.09 199.36) rotate(-53.55)"/><ellipse class="cls-7" cx="174.34" cy="138.68" rx="0.4" ry="1.19" transform="translate(-10.85 262.5) rotate(-72.27)"/><path class="cls-7" d="M184.31,137.39s.34-2.82,1.09-3,.32,3.12-.37,3.59S184.29,137.86,184.31,137.39Z"/><ellipse class="cls-7" cx="185.73" cy="131.74" rx="2.95" ry="0.53" transform="translate(32.72 300.38) rotate(-83.13)"/><ellipse class="cls-7" cx="186.56" cy="128.67" rx="1.19" ry="0.4" transform="translate(-32.07 188.33) rotate(-49.86)"/><path class="cls-8" d="M180.83,134.27a1.94,1.94,0,0,1,2.37-2.46c3,.33,4.05,4.83,6,4.24"/><path class="cls-8" d="M179.59,135.92s-3.48-.42-1.79,6.84-4.77,5.37-4.77,5.37"/><path class="cls-7" d="M184.39,152.47s-1.93,2.07-2.67,1.82,1.58-2.72,2.41-2.69S184.68,152.09,184.39,152.47Z"/><ellipse class="cls-7" cx="182.63" cy="156.61" rx="0.53" ry="2.95" transform="translate(-40.52 66.71) rotate(-18.67)"/><ellipse class="cls-7" cx="183.21" cy="159.73" rx="1.19" ry="0.4" transform="matrix(0.25, -0.97, 0.97, 0.25, -17.55, 296.76)"/><path class="cls-9" d="M188.67,151.46s-1.6,2.34-2.37,2.19,1.16-2.92,2-3S188.9,151.05,188.67,151.46Z"/><ellipse class="cls-9" cx="187.54" cy="155.81" rx="0.53" ry="2.95" transform="translate(-50.37 102.46) rotate(-27.08)"/><ellipse class="cls-9" cx="188.57" cy="158.82" rx="1.19" ry="0.4" transform="translate(10.34 329.17) rotate(-83.81)"/><path class="cls-7" d="M182.66,148.51s-2.69.9-3.22.32,2.69-1.63,3.41-1.21S183.09,148.32,182.66,148.51Z"/><ellipse class="cls-7" cx="177.16" cy="149.2" rx="2.95" ry="0.53" transform="translate(-25.71 37.45) rotate(-11.26)"/><ellipse class="cls-7" cx="173.98" cy="150.23" rx="1.19" ry="0.4" transform="translate(-41.32 69.72) rotate(-20.31)"/><path class="cls-7" d="M189.3,143.68s.9-2.69.32-3.22-1.63,2.69-1.21,3.41S189.11,144.11,189.3,143.68Z"/><ellipse class="cls-7" cx="190" cy="138.18" rx="2.95" ry="0.53" transform="translate(17.39 297.55) rotate(-78.74)"/><ellipse class="cls-7" cx="191.02" cy="134.99" rx="1.19" ry="0.4" transform="translate(-1.88 267.29) rotate(-69.69)"/><path class="cls-10" d="M186.13,155.16s-3.26-1.09-5-5.92-1.63-9.61-.5-10.74S187.64,149,186.13,155.16Z"/><path class="cls-1" d="M192.21,150s.54,5.3-2.57,5.57-8.5-8.28-9-14.87,2-4.92,2.79-4.65A17.89,17.89,0,0,1,192.21,150Z"/><g class="cls-11"><path class="cls-12" d="M192.83,154.29a2.21,2.21,0,0,1-1.57-1.41,27.19,27.19,0,0,1-1.26-3.55,34.35,34.35,0,0,0-6.42-10.54,5.29,5.29,0,0,1-1.43-2.64.61.61,0,0,1,0-.27c.1-.24.43-.27.68-.24a7,7,0,0,1,1.35.39c1.35.5,2.65,1.1,4,1.73A5.82,5.82,0,0,1,190,139a6.64,6.64,0,0,1,1.12,2.22c.68,1.86,1.53,3.66,2.15,5.55a12.88,12.88,0,0,1,.72,5.86,1.4,1.4,0,0,1-.5,1c-.18.11-.42.18-.47.38"/></g><path class="cls-2" d="M192.39,153c2.88-6-3.91-14-7.19-16.18s-3.89-.83-3.89-.83a33.56,33.56,0,0,1,8.17,11.38C192.12,154,191.63,154.6,192.39,153Z"/><g class="cls-13"><path class="cls-14" d="M191.7,152.71a86.76,86.76,0,0,0-3.81-9.19,31.15,31.15,0,0,0-6.77-8.43,1.2,1.2,0,0,0-.88-.4,1,1,0,0,0-.61.47,3.76,3.76,0,0,0-.31,2.42,46.93,46.93,0,0,0,.94,5.38,30,30,0,0,0,3.82,10,6.08,6.08,0,0,0,1.07,1.3,6.37,6.37,0,0,0,2.38,1.12c1.37.4,2.94.65,4.15-.11.4-.26,1-.84.92-1.38,0-.24-.24-.34-.41-.49A1.9,1.9,0,0,1,191.7,152.71Z"/></g><path class="cls-2" d="M181.43,135.82s5.64,6.06,7.6,11,1.93,6.83,1.71,8.5-4,4.77-7.66-4.52C180.47,144.31,179.46,138,181.43,135.82Z"/><ellipse class="cls-15" cx="189.79" cy="151.35" rx="0.27" ry="3.35" transform="translate(-25.73 39.64) rotate(-11.17)"/><ellipse class="cls-15" cx="190.32" cy="155.19" rx="0.42" ry="0.2" transform="translate(23.61 335.52) rotate(-86.44)"/><path class="cls-15" d="M188.79,154.82A26.5,26.5,0,0,0,186.6,144c-2.4-5.06-5.3-6.57-5.3-6.57s3.07,6.39,2.53,11.35c0,0,1.47-2.1-.27-8C183.56,140.71,187.48,144.23,188.79,154.82Z"/><path class="cls-15" d="M190.74,150.08s1.39,3.82,1.48,2.57C192.22,152.65,191.7,152.37,190.74,150.08Z"/><path class="cls-15" d="M182.21,136s7.48,9.25,9.34,10.32c0,0-5-5.14-6-7a4.21,4.21,0,0,0,2.07.81S183.6,137.64,182.21,136Z"/><path class="cls-10" d="M181.59,135.25s3.75,3.81,3.79,5.21-3,6.26-5,3.43S179.41,135.57,181.59,135.25Z"/><path class="cls-10" d="M185.23,139.86s2.09-.42,2.06-2-3.86-4.19-5.17-3.45a2.23,2.23,0,0,0-1.2,1.71S181.89,140.54,185.23,139.86Z"/><path class="cls-7" d="M185.14,139.49s-2.24-3.47-3.94-3.94C181.2,135.55,183.45,135.54,185.14,139.49Z"/><ellipse class="cls-16" cx="181.55" cy="136.43" rx="2.93" ry="2.21" transform="translate(-29.76 219.6) rotate(-58.41)"/><ellipse cx="180.77" cy="137.51" rx="0.89" ry="1.1" transform="translate(-14.05 20.75) rotate(-6.32)"/><ellipse class="cls-17" cx="181.16" cy="137.81" rx="0.29" ry="0.36" transform="translate(-14.08 20.79) rotate(-6.32)"/><path d="M182.86,134c-.46-.06-.86.11-.89.38s.31.54.77.59.84-.07.88-.34S183.32,134.08,182.86,134Z"/><ellipse class="cls-17" cx="183.35" cy="134.57" rx="0.18" ry="0.14" transform="translate(-13.71 21.02) rotate(-6.32)"/><path class="cls-18" d="M183.74,145.4s-3.51-.3-3.88.28.3,2.18.3,2.18a30.26,30.26,0,0,1,3.73-.29C184.56,147.66,184.32,146.11,183.74,145.4Z"/><path class="cls-18" d="M185.57,150.82a15,15,0,0,0-1.59,2.92c-.23.89,1,1.7,1.31,1.3s1.89-2.75,1.89-2.75Z"/><path class="cls-3" d="M189.52,138.35a1.36,1.36,0,0,0-1-.2c-1.19.24-3.93,1.34-4.73,6.45a8.23,8.23,0,0,0,5.63,9.62c1.85.67,4.55-2.29,5.3-5.54S193.78,141.17,189.52,138.35Z"/><g class="cls-19"><path class="cls-20" d="M184.53,153.26l-1.26-4.66s.9,1.14,3.41,1.26a3.31,3.31,0,0,0,3.31-1.7l-4.37-3-3.31,2.31-.41,3.5Z"/><path class="cls-21" d="M189.66,137.26s5.49,4.89,3.2,9.35-5.05,3.6-6.4,2.64-2.34-1.4-2.58-.69-1.34-7.48-1.34-7.48S188.63,136.19,189.66,137.26Z"/><ellipse class="cls-22" cx="191.78" cy="145.87" rx="1.19" ry="0.71" transform="translate(-18.69 263.16) rotate(-66.39)"/><path class="cls-20" d="M195.53,153.21a21.37,21.37,0,0,0-1.64-8.12,5.56,5.56,0,0,1-.8,2.86A7.81,7.81,0,0,1,190,150.7a1.21,1.21,0,0,1,.59.61,7,7,0,0,1,.7,4.18,9.66,9.66,0,0,0,4-1.77"/></g><g class="cls-23"><path class="cls-5" d="M176.77,151.26l-1.05,1.4,1.77.51.42.13,1.77.51-.13-1.74a4.29,4.29,0,1,0-2.78-.81Zm3.47-6.6a3.28,3.28,0,1,1-4.09,2.17A3.28,3.28,0,0,1,180.24,144.66Z"/><g class="cls-24"><rect class="cls-25" x="174.54" y="152.85" width="6.28" height="0.85" transform="translate(305.37 350.15) rotate(-163.75)"/><circle class="cls-26" cx="179.28" cy="147.79" r="3.64"/></g><ellipse class="cls-27" cx="180.73" cy="151.59" rx="0.7" ry="0.15" transform="translate(-43.05 76.98) rotate(-21.55)"/><ellipse class="cls-27" cx="181.68" cy="151.08" rx="0.33" ry="0.13" transform="translate(-54.5 158.17) rotate(-41.47)"/><path class="cls-28" d="M183.07,149.13a4.3,4.3,0,0,0-1.92-5"/><ellipse class="cls-29" cx="178.15" cy="151.66" rx="0.42" ry="3.3" transform="translate(-17.3 280.26) rotate(-73.75)"/><polygon class="cls-6" points="174.42 157.21 176.29 157.75 176.63 157.85 178.51 158.4 180.25 156.29 179.55 152.07 176.79 151.26 174.08 154.49 174.42 157.21"/><g class="cls-30"><path class="cls-31" d="M181.06,155.16l-2.54.34-.94,2.25,1.26.89,1.45-.43Z"/><path class="cls-32" d="M174.17,153.15s2,1.65,2,1.65l-.42,2.41-1.54.06-1-1.14Z"/><path class="cls-33" d="M180.88,156.6s-2.4-1.12-2.4-1.12l.44-4.29,1.92.74Z"/><path class="cls-34" d="M173.48,154.44l2.63.35,1.93-3.85-2-.42Z"/><polygon class="cls-35" points="178.52 155.5 176.11 154.79 177.71 151.53 178.85 151.87 178.52 155.5"/><polygon class="cls-36" points="177.58 157.75 175.71 157.21 176.11 154.79 178.52 155.5 177.58 157.75"/></g><ellipse class="cls-37" cx="176.61" cy="157.65" rx="0.09" ry="1.06" transform="translate(-24.16 283.1) rotate(-73.75)"/><ellipse class="cls-38" cx="179.05" cy="157.28" rx="1.01" ry="0.21" transform="translate(-53.61 208.9) rotate(-53.81)"/><ellipse class="cls-39" cx="179.51" cy="154.1" rx="0.27" ry="1.66" transform="translate(-19.42 26.04) rotate(-7.87)"/></g></svg>