<svg id="Layer_1" data-name="Layer 1" xmlns="http://www.w3.org/2000/svg" viewBox="0 0 30.77 35.87"><defs><style>.cls-1{fill:#28d428;}.cls-2{fill:#ffeff7;}</style></defs><title>04_a_small_singing_bird</title><path class="cls-1" d="M10.21,24.24,0,12.86,16.62,0c.87,1.14,10.63,13,13,16l-2.41,2.15L18.05,7,6.83,15.92l8.34,9.64-2.39,1.71Z"/><path class="cls-1" d="M15.92,26.64c1.59,3,.28,6.4-3.12,8.19S4.58,36.14,3,33.13s.5-6.91,3.9-8.7S14.33,23.63,15.92,26.64Z"/><path class="cls-1" d="M30.09,16.75c1.59,3,.28,6.4-3.12,8.19s-8.23,1.31-9.81-1.71.5-6.91,3.9-8.7S28.51,13.74,30.09,16.75Z"/><rect class="cls-1" x="6.22" y="12.36" width="17.93" height="2.92" transform="translate(-5.29 12.29) rotate(-38.04)"/><path class="cls-2" d="M4.24,32.88c1.15.22,1.41-2.53,0-2.54-1.16,0-1.09,1.41-.59,2.1A1,1,0,0,0,4.24,32.88Z"/><path class="cls-2" d="M9.32,26.2c0-.55-.46-1-1.55-.87a3.85,3.85,0,0,0-2.88,2.06,1.79,1.79,0,0,0-.2,1.24,1,1,0,0,0,.92.75A1.54,1.54,0,0,0,6.39,29l2-1.42A2,2,0,0,0,9.32,26.2Z"/><path class="cls-2" d="M18.42,22.59c1.15.22,1.41-2.53,0-2.54-1.16,0-1.09,1.41-.59,2.1A1,1,0,0,0,18.42,22.59Z"/><path class="cls-2" d="M23.5,15.91c0-.55-.46-1-1.55-.87a3.85,3.85,0,0,0-2.88,2.06,1.79,1.79,0,0,0-.2,1.24,1,1,0,0,0,.92.75,1.54,1.54,0,0,0,.78-.36l2-1.42A2,2,0,0,0,23.5,15.91Z"/></svg>