<svg xmlns="http://www.w3.org/2000/svg" viewBox="0 0 1287.64 1292.35"><defs><style>.cls-1{fill:#fff;opacity:0.26;}</style></defs><title>06_sunligh</title><g id="boat04"><path class="cls-1" d="M1287.64,638.5l-4-79.09L690,630.24l553.51-217.67L1212,339.92l-531,274.67,441.91-398.08-55-57L667,603.1,941.07,75.25l-71.51-34-219.69,556L721.29,6.77,642.38,0,631.8,597.76l-140.34-578L415.19,41.13,615.06,604.58l-334.25-492-63.92,46.76L601.77,616.85,116.13,273.48,72.68,339.7l521,293.3L18.38,481.9.94,559.15,591.7,651,0,711.37l10.78,78.46L596.18,668.49,63.32,932.7l37.62,69.69L606.53,683.31,200.28,1117.72,260,1169.77,621.42,693.56l-228,549.35,74.16,27.79L639,697.94l-20.67,594.41h79.2L656.52,690l205.1,563.54,73.43-29.66-269-554.44,468.43,395.39,48.95-62.26-494-336.78L1249.7,865.55l24-75.48-580.74-142Zm-646.35,9.64-.21-.39-.06-.44.1-.43.24-.37.36-.26.43-.12.44,0,.4.19.31.32.18.41,0,.3-2.11.85Z"/></g></svg>