<svg id="Layer_2" data-name="Layer 2" xmlns="http://www.w3.org/2000/svg" xmlns:xlink="http://www.w3.org/1999/xlink" viewBox="0 0 260 168"><defs><style>.cls-1{fill:#ff2c2c;}.cls-2{fill:#603913;}.cls-3{fill:#935125;}.cls-17,.cls-4{fill:none;stroke-linecap:round;stroke-linejoin:round;}.cls-4{stroke:#753b1a;stroke-width:0.2px;}.cls-5{clip-path:url(#clip-path);}.cls-6{fill:#e02222;}.cls-7{clip-path:url(#clip-path-2);}.cls-8{clip-path:url(#clip-path-3);}.cls-9{fill:#ffb42e;}.cls-10{fill:#a30810;opacity:0.15;}.cls-11,.cls-12{fill:#ffe4b8;}.cls-11{opacity:0.42;}.cls-12{opacity:0.55;}.cls-13{fill:#8c4d22;}.cls-14{fill:#3f1802;}.cls-15{fill:#ffb133;}.cls-16{fill:#ffc533;}.cls-17{stroke:#4133ff;stroke-width:0.65px;}.cls-18{fill:#ffde94;}.cls-19{fill:#935227;}.cls-20{fill:#9b582a;}.cls-21{fill:#fff;}.cls-22{fill:#773c1b;}.cls-23{fill:#4c2706;}.cls-24{clip-path:url(#clip-path-4);}</style><clipPath id="clip-path"><path class="cls-1" d="M103,103.43a1.06,1.06,0,0,0-.65-.39.72.72,0,0,0-.68.61,1.82,1.82,0,0,0,.14,1,.85.85,0,0,0-.69.46.87.87,0,0,0,.06.83.71.71,0,0,0-.57.8.89.89,0,0,0,.53.62,2.13,2.13,0,0,0,.83.13,3,3,0,0,0,2-.54,1.57,1.57,0,0,0,.52-1.82,4,4,0,0,0-.53-.64C103.64,104.1,103.34,103.76,103,103.43Z"/></clipPath><clipPath id="clip-path-2"><path class="cls-1" d="M113.7,109.14a1,1,0,0,1,.68.33.72.72,0,0,1-.12.9,1.85,1.85,0,0,1-.89.43.85.85,0,0,1,0,.82.83.83,0,0,1-.72.41.72.72,0,0,1-.35.93.9.9,0,0,1-.81-.11,2.11,2.11,0,0,1-.58-.61,3.16,3.16,0,0,1-.63-1.93,1.59,1.59,0,0,1,1.23-1.44,4,4,0,0,1,.83.09C112.79,109,113.25,109.06,113.7,109.14Z"/></clipPath><clipPath id="clip-path-3"><ellipse class="cls-1" cx="107.38" cy="107.81" rx="2.81" ry="4.48" transform="translate(-38.34 151.61) rotate(-61.84)"/></clipPath><clipPath id="clip-path-4"><path class="cls-2" d="M71.46,59s4.25.19,10.35-2.58c0,0-.17,5.2-4.15,6.14S71.7,59.9,71.46,59Z"/></clipPath></defs><path class="cls-3" d="M94.38,86.89l-2.52,2.25s8.47,14.64,9.24,16.15,6.34.48,6.16-1.84-9.74-17.38-9.74-17.38Z"/><path class="cls-3" d="M106.78,102a4.91,4.91,0,0,0,3,1.87c1.17.3,2.38.36,3.56.61.59.12,1.27.39,1.4,1a1.1,1.1,0,0,1-.39,1,2.34,2.34,0,0,1-1,.5,7.75,7.75,0,0,1-2.58.32l1.39,1.4a1.18,1.18,0,0,1,.35.54,1,1,0,0,1-.31.82,7.41,7.41,0,0,1-6.27,2.7,2.79,2.79,0,0,1-2.13-1,4.61,4.61,0,0,1-.43-1c-.66-1.63-2.06-3-2.17-4.76a3.94,3.94,0,0,1,.93-2.72,5.58,5.58,0,0,1,2.39-1.64,2.64,2.64,0,0,1,2.06-.08Z"/><ellipse class="cls-3" cx="112.58" cy="111.11" rx="1.26" ry="3.83" transform="translate(-44.85 95.76) rotate(-39.05)"/><ellipse class="cls-3" cx="111.25" cy="113.13" rx="1.26" ry="3.83" transform="translate(-44.97 85.38) rotate(-35.41)"/><ellipse class="cls-3" cx="108.95" cy="113.81" rx="1.26" ry="3.83" transform="translate(-41.98 68.59) rotate(-29.57)"/><ellipse class="cls-3" cx="106.09" cy="113.58" rx="1.26" ry="3.83" transform="translate(-42.23 67.15) rotate(-29.57)"/><path class="cls-4" d="M110.74,108.47S108,112,104.5,110.41"/><path class="cls-4" d="M105.28,105.82s1.63,3.17,4.72,1.92"/><path class="cls-4" d="M104.86,106.15a2.86,2.86,0,0,1,.15,3.31"/><path class="cls-1" d="M103,103.43a1.06,1.06,0,0,0-.65-.39.72.72,0,0,0-.68.61,1.82,1.82,0,0,0,.14,1,.85.85,0,0,0-.69.46.87.87,0,0,0,.06.83.71.71,0,0,0-.57.8.89.89,0,0,0,.53.62,2.13,2.13,0,0,0,.83.13,3,3,0,0,0,2-.54,1.57,1.57,0,0,0,.52-1.82,4,4,0,0,0-.53-.64C103.64,104.1,103.34,103.76,103,103.43Z"/><g class="cls-5"><path class="cls-6" d="M104.59,106.37a1.77,1.77,0,0,0-.37-.91,3.6,3.6,0,0,0-.79-.9.73.73,0,0,0-.34-.14.31.31,0,0,0-.29.18.47.47,0,0,0,.08.34l.25.44c-.29.12-.61,0-.92,0a.25.25,0,0,0-.15,0,.2.2,0,0,0-.07.26.45.45,0,0,0,.21.22,2.27,2.27,0,0,0,.48.27,1.12,1.12,0,0,1,.24.13c.06.07.1.18,0,.25a.28.28,0,0,1-.14.1,1,1,0,0,0-.31.21s-.09.1-.07.15a.18.18,0,0,0,.09.08,3.18,3.18,0,0,0,1.76.21,1.44,1.44,0,0,0,.5-.1.59.59,0,0,0,.34-.35.37.37,0,0,0-.19-.43"/></g><path class="cls-1" d="M113.7,109.14a1,1,0,0,1,.68.33.72.72,0,0,1-.12.9,1.85,1.85,0,0,1-.89.43.85.85,0,0,1,0,.82.83.83,0,0,1-.72.41.72.72,0,0,1-.35.93.9.9,0,0,1-.81-.11,2.11,2.11,0,0,1-.58-.61,3.16,3.16,0,0,1-.63-1.93,1.59,1.59,0,0,1,1.23-1.44,4,4,0,0,1,.83.09C112.79,109,113.25,109.06,113.7,109.14Z"/><g class="cls-7"><path class="cls-6" d="M110.39,109.47a1.73,1.73,0,0,1,1-.19,3.33,3.33,0,0,1,1.18.15.74.74,0,0,1,.31.21.3.3,0,0,1,0,.34.48.48,0,0,1-.33.12l-.5,0c.06.3.36.49.54.75a.29.29,0,0,1,0,.13.21.21,0,0,1-.18.21.53.53,0,0,1-.3,0,2.52,2.52,0,0,1-.49-.25.7.7,0,0,0-.24-.13.2.2,0,0,0-.23.1.28.28,0,0,0,0,.18,2.29,2.29,0,0,1,0,.37c0,.06,0,.13-.1.14s-.07,0-.11,0a3.27,3.27,0,0,1-1.15-1.34,1.39,1.39,0,0,1-.2-.47.58.58,0,0,1,.11-.48.36.36,0,0,1,.46-.08"/></g><ellipse class="cls-1" cx="107.38" cy="107.81" rx="2.81" ry="4.48" transform="translate(-38.34 151.61) rotate(-61.84)"/><g class="cls-8"><path class="cls-9" d="M106.82,108.84a6.79,6.79,0,0,0-2.36,1.28l1.39,1a.21.21,0,0,0,.14.07c.07,0,.13,0,.18-.09a7.29,7.29,0,0,1,5-1.87,2.57,2.57,0,0,0,1.74-.3.81.81,0,0,0,.29-.46,1.19,1.19,0,0,0-1-1.22c-.44,0-.79.41-1.15.61C109.74,108.58,108.16,108.44,106.82,108.84Z"/><path class="cls-9" d="M108,107.29c-.81.26-1.67.35-2.5.54a4.51,4.51,0,0,0-2.26,1.11c0,.06-.12.12-.19.09a.18.18,0,0,1-.09-.06l-.57-.64a6.11,6.11,0,0,1,2.6-1.28,14.64,14.64,0,0,0,2.09-.44,3.46,3.46,0,0,0,1.81-1.56s1.31.53.9,1.16A3.49,3.49,0,0,1,108,107.29Z"/><path class="cls-9" d="M106.29,105.26a7.54,7.54,0,0,1-2.08.51,5,5,0,0,0-1.1.17,2,2,0,0,0-1.16,1,2.42,2.42,0,0,1,.56-1.83,5.88,5.88,0,0,1,1.5-1.26,2.63,2.63,0,0,1,1.15-.5,2.38,2.38,0,0,1,1.78.76C107.48,104.7,106.82,105.05,106.29,105.26Z"/><path class="cls-10" d="M102.91,107.05c1,.36,1.44,1.64,2.42,2.06.26.11.55.15.82.25.75.25,1.34.88,2.09,1.16a.63.63,0,0,0,.38.06c.16,0,.28-.15.44-.17a.66.66,0,0,1,.33.07l1.44.55a1.06,1.06,0,0,1,.67.51.91.91,0,0,1-.1.68,4,4,0,0,1-.81,1.17,1.1,1.1,0,0,1-.61.36,1.22,1.22,0,0,1-.53-.1,12.2,12.2,0,0,1-2-1c-1-.6-2-1.22-3-1.85L101.72,109a5.77,5.77,0,0,1-1-.79.26.26,0,0,1-.1-.2c0-.09.08-.16.15-.21.38-.28.77-.54,1.17-.79"/></g><path class="cls-11" d="M109.19,106c.06,0,.12.09.11.16s-.19.13-.3.09l-2.69-.79c-.18-.06-1.2-.25-.93-.58s1,0,1.28,0A6.18,6.18,0,0,1,109.19,106Z"/><ellipse class="cls-12" cx="109.99" cy="106.71" rx="0.17" ry="0.39" transform="translate(-40.33 136.52) rotate(-55.35)"/><path class="cls-3" d="M62.89,87.17,65.75,89s-5.89,15.86-6.39,17.47S53.2,108,53,105.66s6.68-18.77,6.68-18.77Z"/><path class="cls-3" d="M64.93,72s-5.09,14.16-5.49,15.33,3.08,3.48,6.11,2.07a151.81,151.81,0,0,0,5-15.9s.29-2.59-1.91-3.07S65.33,70.92,64.93,72Z"/><path class="cls-13" d="M56.23,111.8a5.2,5.2,0,0,0-1.94,3.29c-.21,2-.55,2.74-1.74,2.65,0,0-.43-4.35-.4-4.45S54.73,109,54.73,109l1.65.56Z"/><path class="cls-3" d="M59.31,106.55s-.2,2.13-.44,4.16-.38,3.51-.84,4.27-1.92.75-1.94-2.11c0,0-.44-1-1.28.06a12.91,12.91,0,0,0-2.09,4.8c-.14,1.28-1.81,1.07-2-.67A20.06,20.06,0,0,1,53,105.54S58.55,104.33,59.31,106.55Z"/><path class="cls-3" d="M92.28,72s5.09,14.16,5.49,15.33-3.07,3.48-6.1,2.07a150.24,150.24,0,0,1-5-15.9s-.28-2.59,1.92-3.07S91.88,70.92,92.28,72Z"/><path class="cls-3" d="M91.67,89.4a3.86,3.86,0,0,0,1.57,2.5c1.33.82,2.79-1.61,2.79-1.61l-2.18-2.82Z"/><path class="cls-14" d="M62.78,108.37s1.78,9.18,16,9.18,16-9.18,16-9.18l-18.65-6.09Z"/><path class="cls-15" d="M59.46,156.4a6.16,6.16,0,0,0,0,3.55c.6,1.75,3.54,3.25,6.81,3.18s8.23-2.73,10.39-5.8a2.94,2.94,0,0,0-.93-4.62l-7.22.3Z"/><path class="cls-16" d="M62.17,153.62s-3.14,1.37-2.81,4,4.88,3.93,7.25,3.82,8.61-3.51,9.89-6.2-2.63-2.76-2.63-2.76Z"/><path class="cls-3" d="M66.88,136.47l1.66,14.21s4.28,1.67,7.6-.46l-.35-20.28S66,122.94,66.88,136.47Z"/><path class="cls-3" d="M68.23,150.15s-7.65,1.64-7.8,5.94,9,3.08,11.56,1.72,5.63-3.55,4.14-7.61A11.59,11.59,0,0,0,68.23,150.15Z"/><path class="cls-3" d="M61,157.78a12.46,12.46,0,0,0,3.15,1.73c1.48.44,2.38,1.92,8.08-1.84l-5.83-2.5Z"/><path class="cls-17" d="M60.9,154.41s4.16.15,2.84,5"/><path class="cls-17" d="M63.88,159.18s1.82-4.54,4.38.48"/><path class="cls-3" d="M65.65,106.62a2.25,2.25,0,0,0-1,2.19c.61,5.11,2.18,22.74,2.62,23.88s3.88,2.68,7.33,1.18a2.28,2.28,0,0,0,1.37-2.05l.38-22.71a2.27,2.27,0,0,0-.22-1C75.36,106.54,72.6,102.26,65.65,106.62Z"/><path class="cls-15" d="M98.11,156.4a6.16,6.16,0,0,1,0,3.55c-.6,1.75-3.54,3.25-6.81,3.18s-8.23-2.73-10.39-5.8a2.94,2.94,0,0,1,.93-4.62l7.22.3Z"/><path class="cls-16" d="M95.4,153.62s3.14,1.37,2.81,4-4.88,3.93-7.25,3.82-8.61-3.51-9.89-6.2,2.62-2.76,2.62-2.76Z"/><path class="cls-3" d="M90.69,136.47,89,150.68s-4.28,1.67-7.6-.46l.35-20.28S91.58,122.94,90.69,136.47Z"/><path class="cls-3" d="M89.34,150.15s7.65,1.64,7.8,5.94-9,3.08-11.56,1.72-5.63-3.55-4.14-7.61A11.59,11.59,0,0,1,89.34,150.15Z"/><path class="cls-3" d="M96.54,157.78a12.32,12.32,0,0,1-3.14,1.73c-1.48.44-2.38,1.92-8.08-1.84l5.83-2.5Z"/><path class="cls-17" d="M96.67,154.41s-4.16.15-2.84,5"/><path class="cls-17" d="M93.69,159.18s-1.82-4.54-4.38.48"/><path class="cls-3" d="M91.92,106.62a2.27,2.27,0,0,1,1,2.19c-.61,5.11-2.18,22.74-2.62,23.88s-3.88,2.68-7.33,1.18a2.28,2.28,0,0,1-1.37-2.05l-.38-22.71a2.41,2.41,0,0,1,.21-1C82.21,106.54,85,102.26,91.92,106.62Z"/><path class="cls-14" d="M94.85,107.93s-3.14,23.33-3.35,24.55-8.56,2.13-10.69,0c0,0-1.24-18.65-1.13-23.68a6.55,6.55,0,0,1,7.44-6.48C90.07,102.65,93.49,101.36,94.85,107.93Z"/><path class="cls-14" d="M91.5,132.48,90.29,149s-3.14,1.29-9,1.06a1.11,1.11,0,0,1-1.07-1.14l.59-16.46s-.81-7.64,5.28-6.25S91.26,126.79,91.5,132.48Z"/><path class="cls-14" d="M62.72,107.93s3.15,23.33,3.35,24.55,8.56,2.13,10.69,0c0,0,1.24-18.65,1.13-23.68a6.55,6.55,0,0,0-7.44-6.48C67.5,102.65,64.08,101.36,62.72,107.93Z"/><path class="cls-18" d="M91.35,72.4c-.55-1.8.74-2.87-1.06-3.52C87,67.68,79.8,68,78.64,68s-8.17-.5-11.47.89c-2,.86-.68,2.7-1.4,5.05-1.86,6-2.84,29.95-3,34a1.21,1.21,0,0,0,.81,1.21c1.64.57,5.92,1.64,15,1.64S92.28,109.7,94,109.14a1.2,1.2,0,0,0,.83-1.23C94.57,103.6,93.21,78.4,91.35,72.4Z"/><ellipse class="cls-3" cx="78.75" cy="69.87" rx="4.84" ry="1.78"/><path class="cls-3" d="M75.45,64.23s.36,3.44-.72,4.65h8.09s-1-.7-1.39-4.65Z"/><circle class="cls-19" cx="59.39" cy="53.15" r="4.92" transform="translate(-9.16 12.5) rotate(-11.16)"/><circle class="cls-19" cx="89.77" cy="45.62" r="4.92" transform="translate(-7.13 18.23) rotate(-11.16)"/><ellipse class="cls-20" cx="74.15" cy="47.66" rx="16.36" ry="19.27" transform="translate(-9.29 19.24) rotate(-13.92)"/><circle class="cls-21" cx="66.73" cy="51.33" r="4.51" transform="translate(-13.81 26.82) rotate(-20.64)"/><path d="M71,51.78a2.94,2.94,0,0,0-3.56-2.15,3,3,0,0,0-1.4.81,1,1,0,0,1-.1,1.9.92.92,0,0,1-.71-.1,2.77,2.77,0,0,0,.06.95A2.94,2.94,0,0,0,71,51.78Z"/><circle class="cls-21" cx="82.42" cy="47.44" r="4.51" transform="translate(-11.43 32.1) rotate(-20.64)"/><path d="M86.67,47.89a2.92,2.92,0,0,0-5-1.33,1,1,0,0,1,.64.68,1,1,0,0,1-.73,1.21,1,1,0,0,1-.72-.09,3.33,3.33,0,0,0,.06.94,2.94,2.94,0,0,0,5.71-1.41Z"/><ellipse class="cls-22" cx="75.73" cy="54.05" rx="3.7" ry="1.59" transform="translate(-10.78 19.81) rotate(-13.92)"/><path class="cls-23" d="M66.12,42a7.3,7.3,0,0,0-4.28,1.74c-.83.7.36,1.92,1.19,1.21a5.28,5.28,0,0,1,3-1.25c1.08-.07,1.14-1.77.05-1.7Z"/><path class="cls-23" d="M78.62,38.92a7.25,7.25,0,0,1,4.59-.46c1.07.24.58,1.87-.48,1.63a5.28,5.28,0,0,0-3.28.32c-1,.43-1.83-1-.83-1.49Z"/><path class="cls-2" d="M71.46,59s4.25.19,10.35-2.58c0,0-.17,5.2-4.15,6.14S71.7,59.9,71.46,59Z"/><g class="cls-24"><path class="cls-21" d="M71.42,58.29s.81,2,5.5.87,4.83-3.65,4.83-3.65L71.27,58.29"/></g><path class="cls-14" d="M66.07,132.48,67.28,149s3.14,1.29,9,1.06a1.11,1.11,0,0,0,1.07-1.14l-.59-16.46s.81-7.64-5.28-6.25S66.31,126.79,66.07,132.48Z"/></svg>