<svg id="_1" data-name="1" xmlns="http://www.w3.org/2000/svg" xmlns:xlink="http://www.w3.org/1999/xlink" viewBox="0 0 260 168"><defs><style>.cls-1{fill:#ff2c2c;}.cls-2{fill:#603913;}.cls-3{fill:#935125;}.cls-17,.cls-4{fill:none;stroke-linecap:round;stroke-linejoin:round;}.cls-4{stroke:#753b1a;stroke-width:0.2px;}.cls-5{clip-path:url(#clip-path);}.cls-6{fill:#e02222;}.cls-7{clip-path:url(#clip-path-2);}.cls-8{clip-path:url(#clip-path-3);}.cls-9{fill:#ffb42e;}.cls-10{fill:#a30810;opacity:0.15;}.cls-11,.cls-12{fill:#ffe4b8;}.cls-11{opacity:0.42;}.cls-12{opacity:0.55;}.cls-13{fill:#8c4d22;}.cls-14{fill:#3f1802;}.cls-15{fill:#ffb133;}.cls-16{fill:#ffc533;}.cls-17{stroke:#4133ff;stroke-width:0.65px;}.cls-18{fill:#ffde94;}.cls-19{fill:#935227;}.cls-20{fill:#9b582a;}.cls-21{fill:#fff;}.cls-22{fill:#773c1b;}.cls-23{fill:#4c2706;}.cls-24{clip-path:url(#clip-path-4);}</style><clipPath id="clip-path"><path class="cls-1" d="M89.94,104.35a1.07,1.07,0,0,0-.21-.73.71.71,0,0,0-.91,0,1.93,1.93,0,0,0-.57.8.84.84,0,0,0-.81-.13.86.86,0,0,0-.53.64.71.71,0,0,0-1,.19.89.89,0,0,0,0,.81,2.09,2.09,0,0,0,.51.67,3.09,3.09,0,0,0,1.79,1,1.58,1.58,0,0,0,1.63-1,4.64,4.64,0,0,0,.06-.83C89.93,105.26,89.94,104.8,89.94,104.35Z"/></clipPath><clipPath id="clip-path-2"><path class="cls-1" d="M93.79,115.82a1.08,1.08,0,0,1,.28.71.72.72,0,0,1-.71.57,1.87,1.87,0,0,1-.94-.3.83.83,0,0,1-1.38.4.7.7,0,0,1-.88.44.9.9,0,0,1-.52-.63,2.16,2.16,0,0,1,0-.84,3.08,3.08,0,0,1,.86-1.83,1.58,1.58,0,0,1,1.88-.22,4.78,4.78,0,0,1,.55.63C93.23,115.1,93.52,115.45,93.79,115.82Z"/></clipPath><clipPath id="clip-path-3"><ellipse class="cls-1" cx="90.11" cy="110.52" rx="2.81" ry="4.48" transform="translate(-30.49 34.42) rotate(-18.56)"/></clipPath><clipPath id="clip-path-4"><path class="cls-2" d="M71.46,59s4.25.19,10.35-2.58c0,0-.17,5.2-4.15,6.14S71.7,59.9,71.46,59Z"/></clipPath></defs><path class="cls-3" d="M95,86.38l-3.37-.09s-3.87,16.47-4.35,18.09,4.28,4.7,5.75,2.88,4.83-19.32,4.83-19.32Z"/><path class="cls-3" d="M93.68,105.86a4.89,4.89,0,0,0,.89,3.41c.65,1,1.49,1.9,2.18,2.88.34.5.65,1.16.34,1.68a1.12,1.12,0,0,1-1,.47A2.61,2.61,0,0,1,95,114a7.85,7.85,0,0,1-2.09-1.54l0,2a1.14,1.14,0,0,1-.1.63,1.06,1.06,0,0,1-.8.38,7.4,7.4,0,0,1-6.41-2.33,2.81,2.81,0,0,1-.88-2.18,5.79,5.79,0,0,1,.34-1c.65-1.64.57-3.6,1.69-5a3.94,3.94,0,0,1,2.54-1.33,5.56,5.56,0,0,1,2.87.44,2.62,2.62,0,0,1,1.55,1.36Z"/><ellipse class="cls-3" cx="91.63" cy="116.49" rx="3.83" ry="1.26" transform="translate(-31.3 199.27) rotate(-85.77)"/><ellipse class="cls-3" cx="89.27" cy="117.05" rx="3.83" ry="1.26" transform="translate(-38.91 189.43) rotate(-82.12)"/><ellipse class="cls-3" cx="87.13" cy="115.97" rx="3.83" ry="1.26" transform="translate(-46.19 173.12) rotate(-76.28)"/><ellipse class="cls-3" cx="85.21" cy="113.83" rx="3.83" ry="1.26" transform="translate(-45.58 169.62) rotate(-76.28)"/><path class="cls-4" d="M92.09,113.31s-4.38.68-5.86-2.87"/><path class="cls-4" d="M89.94,107.63s-1,3.42,2.12,4.64"/><path class="cls-4" d="M89.41,107.58a2.86,2.86,0,0,1-2.16,2.52"/><path class="cls-1" d="M89.94,104.35a1.07,1.07,0,0,0-.21-.73.71.71,0,0,0-.91,0,1.93,1.93,0,0,0-.57.8.84.84,0,0,0-.81-.13.86.86,0,0,0-.53.64.71.71,0,0,0-1,.19.89.89,0,0,0,0,.81,2.09,2.09,0,0,0,.51.67,3.09,3.09,0,0,0,1.79,1,1.58,1.58,0,0,0,1.63-1,4.64,4.64,0,0,0,.06-.83C89.93,105.26,89.94,104.8,89.94,104.35Z"/><g class="cls-5"><path class="cls-6" d="M89.06,107.56a1.68,1.68,0,0,0,.35-.92,3.24,3.24,0,0,0,0-1.2.77.77,0,0,0-.15-.33.29.29,0,0,0-.34-.06.43.43,0,0,0-.17.3l-.12.48c-.29-.11-.43-.43-.65-.65a.35.35,0,0,0-.13-.08.22.22,0,0,0-.23.15.51.51,0,0,0,0,.3,2.24,2.24,0,0,0,.16.52.86.86,0,0,1,.09.27.21.21,0,0,1-.14.21.38.38,0,0,1-.18,0,1,1,0,0,0-.36-.06c-.06,0-.13,0-.15.07a.11.11,0,0,0,0,.11A3.23,3.23,0,0,0,88.23,108a1.48,1.48,0,0,0,.43.27.56.56,0,0,0,.49,0,.36.36,0,0,0,.16-.44"/></g><path class="cls-1" d="M93.79,115.82a1.08,1.08,0,0,1,.28.71.72.72,0,0,1-.71.57,1.87,1.87,0,0,1-.94-.3.83.83,0,0,1-1.38.4.7.7,0,0,1-.88.44.9.9,0,0,1-.52-.63,2.16,2.16,0,0,1,0-.84,3.08,3.08,0,0,1,.86-1.83,1.58,1.58,0,0,1,1.88-.22,4.78,4.78,0,0,1,.55.63C93.23,115.1,93.52,115.45,93.79,115.82Z"/><g class="cls-7"><path class="cls-6" d="M91.15,113.79a1.73,1.73,0,0,1,.84.52,3.34,3.34,0,0,1,.75.93.55.55,0,0,1,.08.35.29.29,0,0,1-.22.26.45.45,0,0,1-.32-.14l-.39-.31c-.17.26-.08.6-.12.91a.35.35,0,0,1-.06.14.22.22,0,0,1-.27,0,.57.57,0,0,1-.19-.24,2.28,2.28,0,0,1-.18-.52.68.68,0,0,0-.09-.25.2.2,0,0,0-.24-.09.3.3,0,0,0-.12.13,1.24,1.24,0,0,1-.25.26c-.05,0-.12.08-.17,0a.15.15,0,0,1-.06-.09,3.24,3.24,0,0,1,.08-1.77,1.64,1.64,0,0,1,.18-.48.56.56,0,0,1,.41-.27.36.36,0,0,1,.39.25"/></g><ellipse class="cls-1" cx="90.11" cy="110.52" rx="2.81" ry="4.48" transform="translate(-30.49 34.42) rotate(-18.56)"/><g class="cls-8"><path class="cls-9" d="M89,110.89a6.74,6.74,0,0,0-2.6-.69l.29,1.71a.28.28,0,0,0,.06.15.25.25,0,0,0,.19,0,7.36,7.36,0,0,1,4.9,2,2.61,2.61,0,0,0,1.47,1,.82.82,0,0,0,.53-.14,1.19,1.19,0,0,0,.08-1.6c-.31-.32-.86-.25-1.26-.35C91.29,112.7,90.24,111.51,89,110.89Z"/><path class="cls-9" d="M90.88,110.54c-.77-.37-1.45-.89-2.18-1.32a4.58,4.58,0,0,0-2.41-.74c-.08,0-.17,0-.21-.07a.17.17,0,0,1,0-.1l0-.86a6.31,6.31,0,0,1,2.77.85,14.82,14.82,0,0,0,1.82,1.12,3.51,3.51,0,0,0,2.39.1s.59,1.29-.14,1.46A3.43,3.43,0,0,1,90.88,110.54Z"/><path class="cls-9" d="M91.06,107.92a7.85,7.85,0,0,1-1.87-1.06,5.26,5.26,0,0,0-.91-.63,2,2,0,0,0-1.54,0,2.44,2.44,0,0,1,1.66-1,5.82,5.82,0,0,1,1.95.11,2.55,2.55,0,0,1,1.18.43,2.39,2.39,0,0,1,.78,1.77C92.32,108.32,91.59,108.13,91.06,107.92Z"/><path class="cls-10" d="M87.37,106.9c.49,1-.07,2.18.35,3.16.12.26.3.49.43.74.37.71.37,1.56.72,2.28a.74.74,0,0,0,.24.31c.14.08.31.08.44.17a.77.77,0,0,1,.19.28l.67,1.39a1.06,1.06,0,0,1,.14.82.92.92,0,0,1-.54.44,3.94,3.94,0,0,1-1.4.29,1.06,1.06,0,0,1-.68-.15,1.16,1.16,0,0,1-.32-.44,12.57,12.57,0,0,1-.75-2.08c-.31-1.13-.6-2.26-.88-3.39l-.81-3.22a5.13,5.13,0,0,1-.22-1.28A.31.31,0,0,1,85,106a.3.3,0,0,1,.26,0,12.81,12.81,0,0,1,1.38.23"/></g><path class="cls-11" d="M92.66,110.45a.23.23,0,0,1,0,.2c-.09.08-.23,0-.29-.15l-1.41-2.41c-.09-.17-.7-1-.28-1.06.27,0,.76.71.9.9A6.21,6.21,0,0,1,92.66,110.45Z"/><ellipse class="cls-12" cx="92.76" cy="111.51" rx="0.17" ry="0.39" transform="translate(-21.25 21.84) rotate(-12.06)"/><path class="cls-3" d="M62.89,87.17,65.75,89s-5.89,15.86-6.39,17.47S53.2,108,53,105.66s6.68-18.77,6.68-18.77Z"/><path class="cls-3" d="M64.93,72s-5.09,14.16-5.49,15.33,3.08,3.48,6.11,2.07a151.81,151.81,0,0,0,5-15.9s.29-2.59-1.91-3.07S65.33,70.92,64.93,72Z"/><path class="cls-13" d="M56.23,111.8a5.2,5.2,0,0,0-1.94,3.29c-.21,2-.55,2.74-1.74,2.65,0,0-.43-4.35-.4-4.45S54.73,109,54.73,109l1.65.56Z"/><path class="cls-3" d="M59.31,106.55s-.2,2.13-.44,4.16-.38,3.51-.84,4.27-1.92.75-1.94-2.11c0,0-.44-1-1.28.06a12.91,12.91,0,0,0-2.09,4.8c-.14,1.28-1.81,1.07-2-.67A20.06,20.06,0,0,1,53,105.54S58.55,104.33,59.31,106.55Z"/><path class="cls-3" d="M92.28,72s5.09,14.16,5.49,15.33-3.07,3.48-6.1,2.07a150.24,150.24,0,0,1-5-15.9s-.28-2.59,1.92-3.07S91.88,70.92,92.28,72Z"/><path class="cls-3" d="M91.67,89.4a3.86,3.86,0,0,0,1.57,2.5c1.33.82,2.79-1.61,2.79-1.61l-2.18-2.82Z"/><path class="cls-14" d="M62.78,108.37s1.78,9.18,16,9.18,16-9.18,16-9.18l-18.65-6.09Z"/><path class="cls-15" d="M59.46,156.4a6.16,6.16,0,0,0,0,3.55c.6,1.75,3.54,3.25,6.81,3.18s8.23-2.73,10.39-5.8a2.94,2.94,0,0,0-.93-4.62l-7.22.3Z"/><path class="cls-16" d="M62.17,153.62s-3.14,1.37-2.81,4,4.88,3.93,7.25,3.82,8.61-3.51,9.89-6.2-2.63-2.76-2.63-2.76Z"/><path class="cls-3" d="M66.88,136.47l1.66,14.21s4.28,1.67,7.6-.46l-.35-20.28S66,122.94,66.88,136.47Z"/><path class="cls-3" d="M68.23,150.15s-7.65,1.64-7.8,5.94,9,3.08,11.56,1.72,5.63-3.55,4.14-7.61A11.59,11.59,0,0,0,68.23,150.15Z"/><path class="cls-3" d="M61,157.78a12.46,12.46,0,0,0,3.15,1.73c1.48.44,2.38,1.92,8.08-1.84l-5.83-2.5Z"/><path class="cls-17" d="M60.9,154.41s4.16.15,2.84,5"/><path class="cls-17" d="M63.88,159.18s1.82-4.54,4.38.48"/><path class="cls-3" d="M65.65,106.62a2.25,2.25,0,0,0-1,2.19c.61,5.11,2.18,22.74,2.62,23.88s3.88,2.68,7.33,1.18a2.28,2.28,0,0,0,1.37-2.05l.38-22.71a2.27,2.27,0,0,0-.22-1C75.36,106.54,72.6,102.26,65.65,106.62Z"/><path class="cls-15" d="M98.11,156.4a6.16,6.16,0,0,1,0,3.55c-.6,1.75-3.54,3.25-6.81,3.18s-8.23-2.73-10.39-5.8a2.94,2.94,0,0,1,.93-4.62l7.22.3Z"/><path class="cls-16" d="M95.4,153.62s3.14,1.37,2.81,4-4.88,3.93-7.25,3.82-8.61-3.51-9.89-6.2,2.62-2.76,2.62-2.76Z"/><path class="cls-3" d="M90.69,136.47,89,150.68s-4.28,1.67-7.6-.46l.35-20.28S91.58,122.94,90.69,136.47Z"/><path class="cls-3" d="M89.34,150.15s7.65,1.64,7.8,5.94-9,3.08-11.56,1.72-5.63-3.55-4.14-7.61A11.59,11.59,0,0,1,89.34,150.15Z"/><path class="cls-3" d="M96.54,157.78a12.32,12.32,0,0,1-3.14,1.73c-1.48.44-2.38,1.92-8.08-1.84l5.83-2.5Z"/><path class="cls-17" d="M96.67,154.41s-4.16.15-2.84,5"/><path class="cls-17" d="M93.69,159.18s-1.82-4.54-4.38.48"/><path class="cls-3" d="M91.92,106.62a2.27,2.27,0,0,1,1,2.19c-.61,5.11-2.18,22.74-2.62,23.88s-3.88,2.68-7.33,1.18a2.28,2.28,0,0,1-1.37-2.05l-.38-22.71a2.41,2.41,0,0,1,.21-1C82.21,106.54,85,102.26,91.92,106.62Z"/><path class="cls-14" d="M94.85,107.93s-3.14,23.33-3.35,24.55-8.56,2.13-10.69,0c0,0-1.24-18.65-1.13-23.68a6.55,6.55,0,0,1,7.44-6.48C90.07,102.65,93.49,101.36,94.85,107.93Z"/><path class="cls-14" d="M91.5,132.48,90.29,149s-3.14,1.29-9,1.06a1.11,1.11,0,0,1-1.07-1.14l.59-16.46s-.81-7.64,5.28-6.25S91.26,126.79,91.5,132.48Z"/><path class="cls-14" d="M62.72,107.93s3.15,23.33,3.35,24.55,8.56,2.13,10.69,0c0,0,1.24-18.65,1.13-23.68a6.55,6.55,0,0,0-7.44-6.48C67.5,102.65,64.08,101.36,62.72,107.93Z"/><path class="cls-18" d="M91.35,72.4c-.55-1.8.74-2.87-1.06-3.52C87,67.68,79.8,68,78.64,68s-8.17-.5-11.47.89c-2,.86-.68,2.7-1.4,5.05-1.86,6-2.84,29.95-3,34a1.21,1.21,0,0,0,.81,1.21c1.64.57,5.92,1.64,15,1.64S92.28,109.7,94,109.14a1.2,1.2,0,0,0,.83-1.23C94.57,103.6,93.21,78.4,91.35,72.4Z"/><ellipse class="cls-3" cx="78.75" cy="69.87" rx="4.84" ry="1.78"/><path class="cls-3" d="M75.45,64.23s.36,3.44-.72,4.65h8.09s-1-.7-1.39-4.65Z"/><circle class="cls-19" cx="59.39" cy="53.15" r="4.92" transform="translate(-9.16 12.5) rotate(-11.16)"/><circle class="cls-19" cx="89.77" cy="45.62" r="4.92" transform="translate(-7.13 18.23) rotate(-11.16)"/><ellipse class="cls-20" cx="74.15" cy="47.66" rx="16.36" ry="19.27" transform="translate(-9.29 19.24) rotate(-13.92)"/><circle class="cls-21" cx="66.73" cy="51.33" r="4.51" transform="translate(-13.81 26.82) rotate(-20.64)"/><path d="M71,51.78a2.94,2.94,0,0,0-3.56-2.15,3,3,0,0,0-1.4.81,1,1,0,0,1-.1,1.9.92.92,0,0,1-.71-.1,2.77,2.77,0,0,0,.06.95A2.94,2.94,0,0,0,71,51.78Z"/><circle class="cls-21" cx="82.42" cy="47.44" r="4.51" transform="translate(-11.43 32.1) rotate(-20.64)"/><path d="M86.67,47.89a2.92,2.92,0,0,0-5-1.33,1,1,0,0,1,.64.68,1,1,0,0,1-.73,1.21,1,1,0,0,1-.72-.09,3.33,3.33,0,0,0,.06.94,2.94,2.94,0,0,0,5.71-1.41Z"/><ellipse class="cls-22" cx="75.73" cy="54.05" rx="3.7" ry="1.59" transform="translate(-10.78 19.81) rotate(-13.92)"/><path class="cls-23" d="M66.12,42a7.3,7.3,0,0,0-4.28,1.74c-.83.7.36,1.92,1.19,1.21a5.28,5.28,0,0,1,3-1.25c1.08-.07,1.14-1.77.05-1.7Z"/><path class="cls-23" d="M78.62,38.92a7.25,7.25,0,0,1,4.59-.46c1.07.24.58,1.87-.48,1.63a5.28,5.28,0,0,0-3.28.32c-1,.43-1.83-1-.83-1.49Z"/><path class="cls-2" d="M71.46,59s4.25.19,10.35-2.58c0,0-.17,5.2-4.15,6.14S71.7,59.9,71.46,59Z"/><g class="cls-24"><path class="cls-21" d="M71.42,58.29s.81,2,5.5.87,4.83-3.65,4.83-3.65L71.27,58.29"/></g><path class="cls-14" d="M66.07,132.48,67.28,149s3.14,1.29,9,1.06a1.11,1.11,0,0,0,1.07-1.14l-.59-16.46s.81-7.64-5.28-6.25S66.31,126.79,66.07,132.48Z"/></svg>