<svg id="Layer_3" data-name="Layer 3" xmlns="http://www.w3.org/2000/svg" xmlns:xlink="http://www.w3.org/1999/xlink" viewBox="0 0 260 168"><defs><style>.cls-1{fill:#603913;}.cls-2{fill:#ff2c2c;}.cls-3{fill:#935125;}.cls-4{fill:#8c4d22;}.cls-5,.cls-9{fill:none;stroke-linecap:round;stroke-linejoin:round;}.cls-5{stroke:#753b1a;stroke-width:0.2px;}.cls-6{fill:#3f1802;}.cls-7{fill:#ffb133;}.cls-8{fill:#ffc533;}.cls-9{stroke:#4133ff;stroke-width:0.65px;}.cls-10{fill:#ffde94;}.cls-11{fill:#935227;}.cls-12{fill:#9b582a;}.cls-13{fill:#fff;}.cls-14{fill:#773c1b;}.cls-15{fill:#4c2706;}.cls-16{clip-path:url(#clip-path);}.cls-17{clip-path:url(#clip-path-2);}.cls-18{fill:#e02222;}.cls-19{clip-path:url(#clip-path-3);}.cls-20{clip-path:url(#clip-path-4);}.cls-21{fill:#ffb42e;}.cls-22{fill:#a30810;opacity:0.15;}.cls-23,.cls-24{fill:#ffe4b8;}.cls-23{opacity:0.42;}.cls-24{opacity:0.55;}</style><clipPath id="clip-path"><path class="cls-1" d="M71.46,59s4.25.19,10.35-2.58c0,0-.17,5.2-4.15,6.14S71.7,59.9,71.46,59Z"/></clipPath><clipPath id="clip-path-2"><path class="cls-2" d="M109.17,98.82a1.06,1.06,0,0,0-.76,0,.74.74,0,0,0-.32.86,1.83,1.83,0,0,0,.59.79.81.81,0,0,0-.39.73.82.82,0,0,0,.44.7.71.71,0,0,0-.13,1,.9.9,0,0,0,.76.29,2,2,0,0,0,.8-.27,3,3,0,0,0,1.46-1.4,1.58,1.58,0,0,0-.4-1.85,4,4,0,0,0-.77-.31C110,99.12,109.6,99,109.17,98.82Z"/></clipPath><clipPath id="clip-path-3"><path class="cls-2" d="M121.27,98.82a1.06,1.06,0,0,1,.76,0,.72.72,0,0,1,.31.86,1.74,1.74,0,0,1-.58.79.83.83,0,0,1,.39.73.84.84,0,0,1-.44.7.71.71,0,0,1,.13,1,.9.9,0,0,1-.76.29,1.9,1.9,0,0,1-.8-.27,3,3,0,0,1-1.46-1.4,1.57,1.57,0,0,1,.39-1.85,4.27,4.27,0,0,1,.77-.31Q120.63,99,121.27,98.82Z"/></clipPath><clipPath id="clip-path-4"><ellipse class="cls-2" cx="115.07" cy="100.62" rx="4.48" ry="2.81"/></clipPath></defs><path class="cls-3" d="M62.89,87.17,65.75,89s-5.89,15.86-6.39,17.47S53.2,108,53,105.66s6.68-18.77,6.68-18.77Z"/><path class="cls-3" d="M64.93,72s-5.09,14.16-5.49,15.33,3.08,3.48,6.11,2.07a151.81,151.81,0,0,0,5-15.9s.29-2.59-1.91-3.07S65.33,70.92,64.93,72Z"/><path class="cls-4" d="M56.23,111.8a5.2,5.2,0,0,0-1.94,3.29c-.21,2-.55,2.74-1.74,2.65,0,0-.43-4.35-.4-4.45S54.73,109,54.73,109l1.65.56Z"/><path class="cls-3" d="M59.31,106.55s-.2,2.13-.44,4.16-.38,3.51-.84,4.27-1.92.75-1.94-2.11c0,0-.44-1-1.28.06a12.91,12.91,0,0,0-2.09,4.8c-.14,1.28-1.81,1.07-2-.67A20.06,20.06,0,0,1,53,105.54S58.55,104.33,59.31,106.55Z"/><path class="cls-3" d="M93.74,88.32l-1.16,3.17s14.38,8.91,15.77,9.88,5.81-2.57,4.56-4.54S96.12,86.11,96.12,86.11Z"/><path class="cls-3" d="M92.28,72s5.09,14.16,5.49,15.33-3.07,3.48-6.1,2.07a150.24,150.24,0,0,1-5-15.9s-.28-2.59,1.92-3.07S91.88,70.92,92.28,72Z"/><path class="cls-3" d="M91.67,89.4a3.86,3.86,0,0,0,1.57,2.5c1.33.82,2.79-1.61,2.79-1.61l-2.18-2.82Z"/><path class="cls-3" d="M111.79,95.75a4.9,4.9,0,0,0,3.52.25c1.17-.29,2.27-.81,3.42-1.15a1.63,1.63,0,0,1,1.7.21,1.12,1.12,0,0,1,.14,1.08,2.57,2.57,0,0,1-.66.91,7.92,7.92,0,0,1-2.12,1.5l1.88.58a1.18,1.18,0,0,1,.57.31,1.08,1.08,0,0,1,.11.87,7.43,7.43,0,0,1-4.25,5.34,2.81,2.81,0,0,1-2.35.14,5.1,5.1,0,0,1-.83-.64c-1.35-1.13-3.23-1.68-4.16-3.17a4,4,0,0,1-.46-2.84,5.65,5.65,0,0,1,1.33-2.58,2.65,2.65,0,0,1,1.78-1Z"/><ellipse class="cls-3" cx="121.21" cy="101.08" rx="1.26" ry="3.83" transform="translate(-18.93 173.68) rotate(-67.21)"/><ellipse class="cls-3" cx="120.99" cy="103.49" rx="1.26" ry="3.83" transform="translate(-25.55 165.76) rotate(-63.56)"/><ellipse class="cls-3" cx="119.29" cy="105.18" rx="1.26" ry="3.83" transform="translate(-33.34 149.88) rotate(-57.73)"/><ellipse class="cls-3" cx="116.66" cy="106.32" rx="1.26" ry="3.83" transform="translate(-35.53 148.18) rotate(-57.73)"/><path class="cls-5" d="M118.35,99.63s-.76,4.37-4.59,4.64"/><path class="cls-5" d="M112.28,99.86s2.93,2,5.07-.53"/><path class="cls-5" d="M112.06,100.35a2.86,2.86,0,0,1,1.7,2.85"/><path class="cls-6" d="M62.78,108.37s1.78,9.18,16,9.18,16-9.18,16-9.18l-18.65-6.09Z"/><path class="cls-7" d="M59.46,156.4a6.16,6.16,0,0,0,0,3.55c.6,1.75,3.54,3.25,6.81,3.18s8.23-2.73,10.39-5.8a2.94,2.94,0,0,0-.93-4.62l-7.22.3Z"/><path class="cls-8" d="M62.17,153.62s-3.14,1.37-2.81,4,4.88,3.93,7.25,3.82,8.61-3.51,9.89-6.2-2.63-2.76-2.63-2.76Z"/><path class="cls-3" d="M66.88,136.47l1.66,14.21s4.28,1.67,7.6-.46l-.35-20.28S66,122.94,66.88,136.47Z"/><path class="cls-3" d="M68.23,150.15s-7.65,1.64-7.8,5.94,9,3.08,11.56,1.72,5.63-3.55,4.14-7.61A11.59,11.59,0,0,0,68.23,150.15Z"/><path class="cls-3" d="M61,157.78a12.46,12.46,0,0,0,3.15,1.73c1.48.44,2.38,1.92,8.08-1.84l-5.83-2.5Z"/><path class="cls-9" d="M60.9,154.41s4.16.15,2.84,5"/><path class="cls-9" d="M63.88,159.18s1.82-4.54,4.38.48"/><path class="cls-3" d="M65.65,106.62a2.25,2.25,0,0,0-1,2.19c.61,5.11,2.18,22.74,2.62,23.88s3.88,2.68,7.33,1.18a2.28,2.28,0,0,0,1.37-2.05l.38-22.71a2.27,2.27,0,0,0-.22-1C75.36,106.54,72.6,102.26,65.65,106.62Z"/><path class="cls-7" d="M98.11,156.4a6.16,6.16,0,0,1,0,3.55c-.6,1.75-3.54,3.25-6.81,3.18s-8.23-2.73-10.39-5.8a2.94,2.94,0,0,1,.93-4.62l7.22.3Z"/><path class="cls-8" d="M95.4,153.62s3.14,1.37,2.81,4-4.88,3.93-7.25,3.82-8.61-3.51-9.89-6.2,2.62-2.76,2.62-2.76Z"/><path class="cls-3" d="M90.69,136.47,89,150.68s-4.28,1.67-7.6-.46l.35-20.28S91.58,122.94,90.69,136.47Z"/><path class="cls-3" d="M89.34,150.15s7.65,1.64,7.8,5.94-9,3.08-11.56,1.72-5.63-3.55-4.14-7.61A11.59,11.59,0,0,1,89.34,150.15Z"/><path class="cls-3" d="M96.54,157.78a12.32,12.32,0,0,1-3.14,1.73c-1.48.44-2.38,1.92-8.08-1.84l5.83-2.5Z"/><path class="cls-9" d="M96.67,154.41s-4.16.15-2.84,5"/><path class="cls-9" d="M93.69,159.18s-1.82-4.54-4.38.48"/><path class="cls-3" d="M91.92,106.62a2.27,2.27,0,0,1,1,2.19c-.61,5.11-2.18,22.74-2.62,23.88s-3.88,2.68-7.33,1.18a2.28,2.28,0,0,1-1.37-2.05l-.38-22.71a2.41,2.41,0,0,1,.21-1C82.21,106.54,85,102.26,91.92,106.62Z"/><path class="cls-6" d="M94.85,107.93s-3.14,23.33-3.35,24.55-8.56,2.13-10.69,0c0,0-1.24-18.65-1.13-23.68a6.55,6.55,0,0,1,7.44-6.48C90.07,102.65,93.49,101.36,94.85,107.93Z"/><path class="cls-6" d="M91.5,132.48,90.29,149s-3.14,1.29-9,1.06a1.11,1.11,0,0,1-1.07-1.14l.59-16.46s-.81-7.64,5.28-6.25S91.26,126.79,91.5,132.48Z"/><path class="cls-6" d="M62.72,107.93s3.15,23.33,3.35,24.55,8.56,2.13,10.69,0c0,0,1.24-18.65,1.13-23.68a6.55,6.55,0,0,0-7.44-6.48C67.5,102.65,64.08,101.36,62.72,107.93Z"/><path class="cls-10" d="M91.35,72.4c-.55-1.8.74-2.87-1.06-3.52C87,67.68,79.8,68,78.64,68s-8.17-.5-11.47.89c-2,.86-.68,2.7-1.4,5.05-1.86,6-2.84,29.95-3,34a1.21,1.21,0,0,0,.81,1.21c1.64.57,5.92,1.64,15,1.64S92.28,109.7,94,109.14a1.2,1.2,0,0,0,.83-1.23C94.57,103.6,93.21,78.4,91.35,72.4Z"/><ellipse class="cls-3" cx="78.75" cy="69.87" rx="4.84" ry="1.78"/><path class="cls-3" d="M75.45,64.23s.36,3.44-.72,4.65h8.09s-1-.7-1.39-4.65Z"/><circle class="cls-11" cx="59.39" cy="53.15" r="4.92" transform="translate(-9.16 12.5) rotate(-11.16)"/><circle class="cls-11" cx="89.77" cy="45.62" r="4.92" transform="translate(-7.13 18.23) rotate(-11.16)"/><ellipse class="cls-12" cx="74.15" cy="47.66" rx="16.36" ry="19.27" transform="translate(-9.29 19.24) rotate(-13.92)"/><circle class="cls-13" cx="66.73" cy="51.33" r="4.51" transform="translate(-13.81 26.82) rotate(-20.64)"/><path d="M71,51.78a2.94,2.94,0,0,0-3.56-2.15,3,3,0,0,0-1.4.81,1,1,0,0,1-.1,1.9.92.92,0,0,1-.71-.1,2.77,2.77,0,0,0,.06.95A2.94,2.94,0,0,0,71,51.78Z"/><circle class="cls-13" cx="82.42" cy="47.44" r="4.51" transform="translate(-11.43 32.1) rotate(-20.64)"/><path d="M86.67,47.89a2.92,2.92,0,0,0-5-1.33,1,1,0,0,1,.64.68,1,1,0,0,1-.73,1.21,1,1,0,0,1-.72-.09,3.33,3.33,0,0,0,.06.94,2.94,2.94,0,0,0,5.71-1.41Z"/><ellipse class="cls-14" cx="75.73" cy="54.05" rx="3.7" ry="1.59" transform="translate(-10.78 19.81) rotate(-13.92)"/><path class="cls-15" d="M66.12,42a7.3,7.3,0,0,0-4.28,1.74c-.83.7.36,1.92,1.19,1.21a5.28,5.28,0,0,1,3-1.25c1.08-.07,1.14-1.77.05-1.7Z"/><path class="cls-15" d="M78.62,38.92a7.25,7.25,0,0,1,4.59-.46c1.07.24.58,1.87-.48,1.63a5.28,5.28,0,0,0-3.28.32c-1,.43-1.83-1-.83-1.49Z"/><path class="cls-1" d="M71.46,59s4.25.19,10.35-2.58c0,0-.17,5.2-4.15,6.14S71.7,59.9,71.46,59Z"/><g class="cls-16"><path class="cls-13" d="M71.42,58.29s.81,2,5.5.87,4.83-3.65,4.83-3.65L71.27,58.29"/></g><path class="cls-6" d="M66.07,132.48,67.28,149s3.14,1.29,9,1.06a1.11,1.11,0,0,0,1.07-1.14l-.59-16.46s.81-7.64-5.28-6.25S66.31,126.79,66.07,132.48Z"/><path class="cls-2" d="M109.17,98.82a1.06,1.06,0,0,0-.76,0,.74.74,0,0,0-.32.86,1.83,1.83,0,0,0,.59.79.81.81,0,0,0-.39.73.82.82,0,0,0,.44.7.71.71,0,0,0-.13,1,.9.9,0,0,0,.76.29,2,2,0,0,0,.8-.27,3,3,0,0,0,1.46-1.4,1.58,1.58,0,0,0-.4-1.85,4,4,0,0,0-.77-.31C110,99.12,109.6,99,109.17,98.82Z"/><g class="cls-17"><path class="cls-18" d="M111.93,100.67a1.66,1.66,0,0,0-.76-.62,3.24,3.24,0,0,0-1.12-.42.63.63,0,0,0-.36,0,.3.3,0,0,0-.17.3c0,.12.13.19.23.26l.43.27c-.2.24-.56.26-.83.4a.4.4,0,0,0-.12.1.22.22,0,0,0,.07.27.67.67,0,0,0,.28.1,2.62,2.62,0,0,0,.56,0,.82.82,0,0,1,.27,0,.19.19,0,0,1,.16.2.29.29,0,0,1-.09.15,1.29,1.29,0,0,0-.17.33.15.15,0,0,0,0,.17s.07,0,.1,0a3.22,3.22,0,0,0,1.66-.64,1.52,1.52,0,0,0,.39-.32.55.55,0,0,0,.13-.47.35.35,0,0,0-.36-.29"/></g><path class="cls-2" d="M121.27,98.82a1.06,1.06,0,0,1,.76,0,.72.72,0,0,1,.31.86,1.74,1.74,0,0,1-.58.79.83.83,0,0,1,.39.73.84.84,0,0,1-.44.7.71.71,0,0,1,.13,1,.9.9,0,0,1-.76.29,1.9,1.9,0,0,1-.8-.27,3,3,0,0,1-1.46-1.4,1.57,1.57,0,0,1,.39-1.85,4.27,4.27,0,0,1,.77-.31Q120.63,99,121.27,98.82Z"/><g class="cls-19"><path class="cls-18" d="M118.51,100.67a1.64,1.64,0,0,1,.75-.62,3.39,3.39,0,0,1,1.12-.42.66.66,0,0,1,.37,0,.3.3,0,0,1,.17.3.49.49,0,0,1-.23.26l-.43.27c.2.24.55.26.83.4a.36.36,0,0,1,.11.1.22.22,0,0,1-.06.27.72.72,0,0,1-.29.1,2.53,2.53,0,0,1-.55,0,.82.82,0,0,0-.27,0,.19.19,0,0,0-.16.2.36.36,0,0,0,.08.15,1.06,1.06,0,0,1,.18.33.15.15,0,0,1,0,.17.2.2,0,0,1-.11,0,3.18,3.18,0,0,1-1.65-.64,1.52,1.52,0,0,1-.39-.32.59.59,0,0,1-.14-.47.36.36,0,0,1,.37-.29"/></g><ellipse class="cls-2" cx="115.07" cy="100.62" rx="4.48" ry="2.81"/><g class="cls-20"><path class="cls-21" d="M115.07,101.79a6.72,6.72,0,0,0-1.48,2.25l1.71.27a.29.29,0,0,0,.16,0c.07,0,.09-.1.12-.17a7.26,7.26,0,0,1,3.5-4c.53-.27,1.16-.53,1.39-1.08a.81.81,0,0,0,0-.55,1.19,1.19,0,0,0-1.49-.58c-.4.19-.51.73-.73,1.08C117.51,100.2,116.06,100.81,115.07,101.79Z"/><path class="cls-21" d="M115.34,99.9c-.6.61-1.31,1.09-2,1.65a4.57,4.57,0,0,0-1.47,2c0,.08,0,.17-.13.18s-.07,0-.1,0l-.8-.3a6.24,6.24,0,0,1,1.68-2.35,14.34,14.34,0,0,0,1.64-1.37,3.47,3.47,0,0,0,.86-2.23s1.41-.15,1.34.6A3.52,3.52,0,0,1,115.34,99.9Z"/><path class="cls-21" d="M112.91,98.9a8.65,8.65,0,0,1-1.59,1.43,4.84,4.84,0,0,0-.9.66,2,2,0,0,0-.53,1.45,2.43,2.43,0,0,1-.38-1.88,6.2,6.2,0,0,1,.73-1.82,2.59,2.59,0,0,1,.78-1,2.4,2.4,0,0,1,1.93-.17C113.69,97.83,113.28,98.45,112.91,98.9Z"/><path class="cls-22" d="M110.78,102.07c1-.17,2,.76,3.1.67.28,0,.56-.12.83-.17.79-.13,1.6.14,2.4,0a.59.59,0,0,0,.36-.13c.12-.1.18-.27.31-.36a.7.7,0,0,1,.32-.09l1.53-.19a1,1,0,0,1,.83.13.87.87,0,0,1,.24.65,4,4,0,0,1-.17,1.41,1.09,1.09,0,0,1-.36.6,1.18,1.18,0,0,1-.52.17,11.65,11.65,0,0,1-2.21,0c-1.17,0-2.33-.14-3.49-.24l-3.31-.25a6.3,6.3,0,0,1-1.29-.2c-.07,0-.16-.06-.19-.14a.28.28,0,0,1,0-.25,13.32,13.32,0,0,1,.66-1.24"/></g><path class="cls-23" d="M115.82,98.19c.07,0,.15,0,.17.09s-.1.2-.22.22l-2.74.57c-.19,0-1.18.34-1.1-.07s.92-.49,1.15-.57A6.2,6.2,0,0,1,115.82,98.19Z"/><ellipse class="cls-24" cx="116.86" cy="98.43" rx="0.17" ry="0.39" transform="translate(5.84 203.4) rotate(-83.51)"/></svg>