<svg id="Layer_1" data-name="Layer 1" xmlns="http://www.w3.org/2000/svg" xmlns:xlink="http://www.w3.org/1999/xlink" width="315.21" height="217.31" viewBox="0 0 315.21 217.31">
  <defs>
    <style>
      .cls-1 {
        fill: none;
      }

      .cls-2 {
        fill: #9e005d;
      }

      .cls-3 {
        fill: #7f0052;
      }

      .cls-4 {
        fill: #870659;
      }

      .cls-5 {
        clip-path: url(#clip-path);
      }

      .cls-6 {
        fill: #ff960e;
      }

      .cls-7 {
        fill: #fff;
      }

      .cls-8 {
        fill: #8b5e3c;
      }

      .cls-9 {
        fill: #603913;
      }
    </style>
    <clipPath id="clip-path">
      <path id="SVGID" class="cls-1" d="M98.08,107.25C119.14,85.94,163,55.91,202.14,98.32s46.63,65.12,59.53,69.15C253,188.23,207,232.18,136.19,212.24S64.51,141.22,98.08,107.25Z"/>
    </clipPath>
  </defs>
  <title>03_big_bird_flapping</title>
  <path class="cls-2" d="M294.62,96.92c-4.1-1.88-9-.22-12,3.67l0-.09s-30.42,44.32-57.64,46.13-10.42,20.11-10.42,20.11,32,19.26,86.46-20.26l-.05-.13a12.29,12.29,0,0,0,4.51-5.23c2.2-4.8,1.15-10.12-2.22-13a12.28,12.28,0,0,0,4.55-5.25c2.59-5.64.72-12-4.18-14.27a8.61,8.61,0,0,0-3.83-.78C300.48,103.2,298.55,98.72,294.62,96.92Z"/>
  <path class="cls-3" d="M167.75,19a19.61,19.61,0,0,0-1.39,3c-12.75,27.15-38.29,55.38-38.29,55.38,39.25,52.26,89.23-15.51,89.23-15.51h0c4.15-4.32,5.23-10.33,2.24-14.37-2.74-3.71-8.06-4.6-13-2.65,3.83-5.47,4.1-12.24.19-16.3-3.69-3.84-9.94-4-15.36-1,2-6.52.24-13.19-4.8-16.06C180.47,8.11,172.06,11.45,167.75,19Z"/>
  <g>
    <path class="cls-4" d="M98.08,107.25C119.14,85.94,163,55.91,202.14,98.32s46.63,65.12,59.53,69.15C253,188.23,207,232.18,136.19,212.24S64.51,141.22,98.08,107.25Z"/>
    <g class="cls-5">
      <path class="cls-2" d="M180.37,158.9c32.3,15.6,47.77,46.39,34.55,68.78s-50.13,27.9-82.44,12.3S84.71,193.59,97.94,171.2,148.07,143.3,180.37,158.9Z"/>
    </g>
  </g>
  <path class="cls-2" d="M223,44.28a19.61,19.61,0,0,0-2.3,2.41c-20.91,21.51-54.26,39.87-54.26,39.87,20.06,62.2,89.41,14.43,89.41,14.43h0c5.33-2.73,8.31-8.06,6.81-12.86-1.38-4.4-6.12-7-11.47-6.76,5.41-3.92,7.86-10.23,5.5-15.35-2.24-4.84-8.09-7.05-14.2-5.95,4-5.51,4.53-12.39.7-16.75C238.6,38.1,229.57,38.52,223,44.28Z"/>
  <g>
    <path class="cls-6" d="M44,100.1,19.86,124.26a3.58,3.58,0,0,0,3.06,6.06l12.92-1.93-2.1,11.46a3.58,3.58,0,0,0,5,3.9L69.56,129.7Z"/>
    <path class="cls-2" d="M182.88,25.71C174-4.91,82.73,15.08,82.73,15.08A67.51,67.51,0,1,0,162.49,83c5,1.31,8.12.52,9.45-1.41,4.75-6.9-5.45-19.91-5.45-19.91s15.3,9.93,18.52.48c3.59-10.54-22.27-24.6-22.27-24.6S187.55,47.18,182.88,25.71Z"/>
    <circle class="cls-7" cx="78.21" cy="84.25" r="31.16" transform="translate(-14 15.6) rotate(-10.46)"/>
    <g>
      <circle class="cls-8" cx="76.84" cy="86.18" r="20.21" transform="translate(-37.24 103.99) rotate(-57.15)"/>
      <circle class="cls-9" cx="76.15" cy="86.25" r="11.02" transform="translate(-37.61 103.44) rotate(-57.15)"/>
      <circle class="cls-7" cx="77.42" cy="73.46" r="7.07" transform="translate(-26.29 98.66) rotate(-57.15)"/>
    </g>
  </g>
</svg>
