<svg id="Layer_1" data-name="Layer 1" xmlns="http://www.w3.org/2000/svg" xmlns:xlink="http://www.w3.org/1999/xlink" width="315.21" height="217.31" viewBox="0 0 315.21 217.31">
  <defs>
    <style>
      .cls-1 {
        fill: none;
      }

      .cls-2 {
        fill: #9e005d;
      }

      .cls-3 {
        fill: #870659;
      }

      .cls-4 {
        clip-path: url(#clip-path);
      }

      .cls-5 {
        fill: #ff960e;
      }

      .cls-6 {
        fill: #fff;
      }

      .cls-7 {
        fill: #8b5e3c;
      }

      .cls-8 {
        fill: #603913;
      }
    </style>
    <clipPath id="clip-path">
      <path id="SVGID" class="cls-1" d="M93.92,107.25C115,85.94,158.78,55.91,198,98.32s46.63,65.12,59.53,69.15c-8.65,20.76-54.69,64.71-125.49,44.77S60.35,141.22,93.92,107.25Z"/>
    </clipPath>
  </defs>
  <title>03_big_bird_flapping</title>
  <path class="cls-2" d="M311.88,173.07c-1.44-4.27-6-6.7-10.9-6.22l0-.09s-53.13,8.23-73.09-10.35-21.78,6.19-21.78,6.19,7.88,36.47,74,49.07l.06-.13a12.29,12.29,0,0,0,6.9-.3c5-1.69,8.15-6.1,7.93-10.51a12.28,12.28,0,0,0,6.95-.29c5.88-2,9.25-7.72,7.53-12.82a8.61,8.61,0,0,0-2.06-3.32C311.32,181.64,313.26,177.16,311.88,173.07Z"/>
  <path class="cls-2" d="M212.09,68.63A19.61,19.61,0,0,0,209,69.79C180.77,80,142.75,82,142.75,82c-9.11,64.72,74.14,52,74.14,52h0c6-.13,11-3.62,11.74-8.59.68-4.56-2.46-8.94-7.37-11.09,6.58-1.16,11.54-5.77,11.65-11.41.1-5.33-4.19-9.88-10.18-11.55,6-3.2,9.49-9.17,7.94-14.76C228.81,69.88,220.49,66.31,212.09,68.63Z"/>
  <g>
    <path class="cls-3" d="M93.92,107.25C115,85.94,158.78,55.91,198,98.32s46.63,65.12,59.53,69.15c-8.65,20.76-54.69,64.71-125.49,44.77S60.35,141.22,93.92,107.25Z"/>
    <g class="cls-4">
      <path class="cls-2" d="M176.2,158.9c32.3,15.6,47.77,46.39,34.55,68.78s-50.13,27.9-82.44,12.3S80.55,193.59,93.77,171.2,143.9,143.3,176.2,158.9Z"/>
    </g>
  </g>
  <g>
    <path class="cls-5" d="M31.14,114.8,12.76,143.6a3.58,3.58,0,0,0,4.29,5.26l12.2-4.66.41,11.64a3.58,3.58,0,0,0,5.72,2.73l27.09-20.36Z"/>
    <path class="cls-2" d="M150.76,12.28c-15.23-28-100.09,11.17-100.09,11.17a67.51,67.51,0,1,0,92.51,49.19c5.18.2,8-1.23,8.92-3.41,3.15-7.76-9.6-18.27-9.6-18.27s17.08,6.41,18.19-3.52c1.23-11.07-27-19.23-27-19.23S159.94,32.24,150.76,12.28Z"/>
    <circle class="cls-6" cx="61.14" cy="91.97" r="31.16" transform="translate(-30.95 31.02) rotate(-22.89)"/>
    <g>
      <circle class="cls-7" cx="60.21" cy="94.14" r="20.21" transform="translate(-49.02 117.72) rotate(-69.58)"/>
      <circle class="cls-8" cx="59.55" cy="94.36" r="11.02" transform="translate(-49.66 117.25) rotate(-69.58)"/>
      <circle class="cls-6" cx="58.05" cy="81.6" r="7.07" transform="translate(-38.68 107.52) rotate(-69.58)"/>
    </g>
  </g>
  <path class="cls-2" d="M243.86,73.49a19.61,19.61,0,0,0-3.17,1C212.1,83.58,174,84,174,84,162.26,148.26,246,139,246,139h0c6,.12,11.14-3.17,12.08-8.11.87-4.53-2.09-9-6.91-11.38,6.62-.89,11.77-5.29,12.11-10.92.32-5.32-3.79-10-9.69-12,6.16-2.95,9.85-8.77,8.54-14.42C260.51,75.42,252.35,71.52,243.86,73.49Z"/>
</svg>
