<svg xmlns="http://www.w3.org/2000/svg" xmlns:xlink="http://www.w3.org/1999/xlink" viewBox="0 0 260 168"><defs><style>.cls-1,.cls-10,.cls-20,.cls-21,.cls-24,.cls-41,.cls-42,.cls-9{fill:none;}.cls-2{fill:#ffbd29;}.cls-3{fill:#f48c37;}.cls-4{fill:#ffab24;}.cls-5{fill:#fff;}.cls-6{fill:#d3d3d3;opacity:0.24;}.cls-7{clip-path:url(#clip-path);}.cls-8{fill:#d81616;}.cls-21,.cls-9{stroke:#aaa;stroke-width:0.66px;}.cls-10,.cls-20,.cls-41,.cls-46,.cls-9{stroke-miterlimit:10;}.cls-10,.cls-19{stroke:#000;}.cls-10{stroke-width:0.17px;}.cls-11{clip-path:url(#clip-path-2);}.cls-12{fill:#ff2c2c;}.cls-13{fill:#891010;opacity:0.13;}.cls-14{fill:#fc5959;}.cls-15{fill:#a52020;}.cls-16{fill:#b23838;}.cls-17{fill:#0c0a07;opacity:0.25;}.cls-18{fill:#ffdeae;}.cls-19{fill:#ff1526;stroke-width:0.17px;}.cls-20{stroke:#ff1526;stroke-width:0.12px;}.cls-21,.cls-24,.cls-41,.cls-42{stroke-linecap:round;}.cls-21,.cls-24,.cls-42{stroke-linejoin:round;}.cls-22{fill:#d6a749;}.cls-23{fill:#ffd26e;}.cls-24{stroke:#b28a42;stroke-width:0.5px;}.cls-25{clip-path:url(#clip-path-3);}.cls-26{fill:#ff7e27;}.cls-27{fill:#f9d89d;}.cls-28{fill:#ffa92c;}.cls-29{clip-path:url(#clip-path-4);}.cls-30{fill:#ffe7b6;}.cls-31{fill:#3acccc;}.cls-32{clip-path:url(#clip-path-5);}.cls-33{fill:#ef526c;}.cls-34{clip-path:url(#clip-path-6);}.cls-35{fill:#7f4a03;}.cls-36{clip-path:url(#clip-path-7);}.cls-37{fill:#ff8098;}.cls-38{clip-path:url(#clip-path-8);}.cls-39{clip-path:url(#clip-path-9);}.cls-40{fill:#594025;}.cls-41{stroke:#7f4a03;stroke-width:1.83px;}.cls-42{stroke:#ffc866;stroke-width:0.42px;}.cls-43{fill:#aaa;}.cls-44{fill:#706f6e;}.cls-45{clip-path:url(#clip-path-10);}.cls-46{fill:#7e7c7b;stroke:#58595b;stroke-width:0.18px;}.cls-47{clip-path:url(#clip-path-11);}.cls-48{fill:#fff3ce;}.cls-49{fill:#adaba9;}</style><clipPath id="clip-path"><path class="cls-1" d="M144.07,113.38a4.42,4.42,0,0,1,3.59-.59,6.44,6.44,0,0,0,1.47.36,5.09,5.09,0,0,0,1.66-.43,7,7,0,0,1,4-.16,6.69,6.69,0,0,0,1.69.35,7.49,7.49,0,0,0,1.55-.32,5.78,5.78,0,0,1,4.37.73,6.5,6.5,0,0,1,8.36.34,4.83,4.83,0,0,1,4.22-.81,6.21,6.21,0,0,0,1.33.35c.79,0,1.56-.39,2.34-.28,1.37.19,1.92,1.84,2.2,3.19.52,2.62,1,5.24,1.41,7.88a123.93,123.93,0,0,1,.68,19.65,12.23,12.23,0,0,1-.44,3.57c-.88,2.6-3.4,4.27-5.92,5.35-5.5,2.37-11.62,2.84-17.61,2.82s-12.19-.56-17.75-2.9a8.42,8.42,0,0,1-4.16-3.09c-1-1.73-.92-3.89-.76-5.91l1.26-16c.29-3.71.66-7.65,2.87-10.66a10.06,10.06,0,0,1,3.64-3.05l-.66.74"/></clipPath><clipPath id="clip-path-2"><path class="cls-1" d="M141.75,120.68c2.41-2.19,6.23-2.2,9.19-.83a3.48,3.48,0,0,0,1.42.45,3.42,3.42,0,0,0,1.34-.41,12.91,12.91,0,0,1,10-.14,3,3,0,0,0,1.16.32,3.57,3.57,0,0,0,1.57-.6,6.41,6.41,0,0,1,6.39.33,8,8,0,0,1,6.3-1,2.18,2.18,0,0,1,1,.49,2.64,2.64,0,0,1,.62,1.21,61.7,61.7,0,0,1,1.65,28.1c-.45,2.55-1.12,5.2-2.89,7.09s-4.64,2.81-7.29,3.46A136.55,136.55,0,0,1,155,162.19a27.09,27.09,0,0,1-5.47.22,22.64,22.64,0,0,1-4.59-1,21.25,21.25,0,0,1-9.26-5.21,16.84,16.84,0,0,1-4.1-13.24,26.45,26.45,0,0,1,5.53-13c1.58-2.1,3.47-4.23,3.66-6.85a4.35,4.35,0,0,1,.18-1.3,1,1,0,0,1,1-.68l-1.58.87"/></clipPath><clipPath id="clip-path-3"><path class="cls-2" d="M110,116.25c-26.6,34.27-44.43,10.46-44.43,10.46-7.75-8-13.1-1.9-13.1-1.9-5.3,4.84-9.31-2.41-9.31-2.41a8.5,8.5,0,0,1,.11-11c15.29-16.55,30.78,7.28,30.78,7.28,16.58,17.33,33.28-6.23,33.28-6.23a1.84,1.84,0,0,1,2.63.33C111.25,114.26,110,116.25,110,116.25Z"/></clipPath><clipPath id="clip-path-4"><path class="cls-2" d="M117.7,90.52s-1.12,1.27-3.25,3.46c-1.56.92-8.62,5.18-6.5,5.81-1.76,1.25-3.26,2.55-2.73,3.06-7.37,6.89-13.37,15.4-7.67,24.09,5.86,8.95,18.49,12.8,29.58-3.76s13.28-25.38,8.37-33.42C128.9,78.94,126.31,76.36,117.7,90.52Z"/></clipPath><clipPath id="clip-path-5"><path class="cls-3" d="M155.6,76.15s-1.95,1.78-1.45,3.78c0,0-6.6,1-7.42-2.41s4.57-5.46,5-5.31A49.73,49.73,0,0,1,155.6,76.15Z"/></clipPath><clipPath id="clip-path-6"><path class="cls-4" d="M137.48,48.4s2.71-12.89-1.12-14.14c0,0-4.48-1.5-10.91,11.46,0,0,.89,3.76,6.55,4.24C132,50,137.26,50.76,137.48,48.4Z"/></clipPath><clipPath id="clip-path-7"><path class="cls-2" d="M154.8,79.52s0,1-1.57,1.94c-7.26,4.55-22,4.08-22,4.08a35.6,35.6,0,0,1-15.78-1.23c-13.14-3.89-16-12.51-16-12.51,8-.76,7.92-4.26,7.92-4.26-2-26.74,16.08-29.21,16.08-29.21s26-7.55,27.82,23.26c0,0,1.21,3,7.15,3.64a12.65,12.65,0,0,1-.29,10.28s-4.6,3.24-10.45-.32C147.64,75.19,148.41,80.64,154.8,79.52Z"/></clipPath><clipPath id="clip-path-8"><path class="cls-4" d="M128.71,49s2.71-12.89-1.13-14.13c0,0-5.79.56-12.22,13.53,0,0,2.21,1.68,7.86,2.16C123.22,50.57,128.48,51.37,128.71,49Z"/></clipPath><clipPath id="clip-path-9"><circle class="cls-5" cx="140.26" cy="59.21" r="4.85"/></clipPath><clipPath id="clip-path-10"><path class="cls-1" d="M162.41,101.51a27.53,27.53,0,0,1,2.24-5.45c1.15-2.11,2.6-4.15,2.89-6.53a10.74,10.74,0,0,0,0-2.47,8.11,8.11,0,0,0-.72-3,3.23,3.23,0,0,0-2.4-1.83c-1.61-.18-3.14,1.23-4.72.89-1.08-.23-1.89-1.23-3-1.35s-2.15.68-3.24.54a7.42,7.42,0,0,1-2-.82,4.74,4.74,0,0,0-3.11-.16A6.7,6.7,0,0,0,144,86.1a10.42,10.42,0,0,0,.74,6.68,24,24,0,0,0,3.79,5.69,69.13,69.13,0,0,0,5.85,6.13c1.36,1.26,3.28,1.11,5,.79C161.31,105,161.91,103.21,162.41,101.51Z"/></clipPath><clipPath id="clip-path-11"><path class="cls-1" d="M155.18,99.7c.34.72,1.55,3.3,3.16,3.06s.78-1.14,1.39-2.52a34.38,34.38,0,0,1,4.07-8.06c2.19-3.86,2.53-9.89-1.26-14.16-1.71-2.41-5.39-6.83-11-1.06-3.85,4.63-2.34,10.92.1,14.38C153.1,94.25,154.08,97.38,155.18,99.7Z"/></clipPath></defs><g id="Layer_3" data-name="Layer 3"><path class="cls-6" d="M146.55,110.65s16.13-2.42,27,.62l2.27,6.23-31.38.53S146.41,113.06,146.55,110.65Z"/><path class="cls-6" d="M146.46,110.11s3.42-1,14.14-1,13.18,1.69,13.18,1.69v-4.93s-2.7-2-13.47-2-13.95,2-13.95,2Z"/><g class="cls-7"><path class="cls-8" d="M176.7,117.2a.8.8,0,0,0-.22-.49c-1.93-4.5-1.76-6.52-1.76-6.52v-4.6h0c0-1.5-6.55-2.72-14.63-2.72s-14.63,1.22-14.63,2.72v4a.54.54,0,0,0-.06.25.53.53,0,0,0,.06.24v.15s.17,2-1.76,6.52a.73.73,0,0,0-.22.5v32c0,1.71,7.44,3.09,16.61,3.09s16.62-1.38,16.62-3.09h0v-32Z"/></g><ellipse class="cls-9" cx="160.2" cy="105.75" rx="14.63" ry="2.73"/><path class="cls-10" d="M176.81,117.45a.74.74,0,0,0-.21-.49c-1.93-4.5-1.76-6.52-1.76-6.52v-4.6h0c0-1.5-6.55-2.73-14.63-2.73s-14.63,1.23-14.63,2.73v4a.54.54,0,0,0-.06.25.53.53,0,0,0,.06.24v.15s.16,2-1.77,6.52a.77.77,0,0,0-.22.5v32c0,1.71,7.44,3.09,16.62,3.09s16.61-1.38,16.61-3.09h0v-32Z"/><g class="cls-11"><path class="cls-12" d="M176.81,117.45a.74.74,0,0,0-.21-.49c-1.93-4.5-1.76-6.52-1.76-6.52v-4.6h0c0-1.5-6.55-2.73-14.63-2.73s-14.63,1.23-14.63,2.73v4a.54.54,0,0,0-.06.25.53.53,0,0,0,.06.24v.15s.16,2-1.77,6.52a.77.77,0,0,0-.22.5v32c0,1.71,7.44,3.09,16.62,3.09s16.61-1.38,16.61-3.09h0v-32Z"/></g><circle class="cls-5" cx="173.41" cy="113.77" r="0.8"/><circle class="cls-5" cx="174.63" cy="115.57" r="0.6"/><ellipse class="cls-13" cx="160.2" cy="149.23" rx="16.62" ry="3.09"/><ellipse class="cls-14" cx="148.45" cy="137.67" rx="1.42" ry="0.59"/><ellipse class="cls-14" cx="163.85" cy="145.54" rx="1.42" ry="0.59"/><ellipse class="cls-14" cx="173.41" cy="135.98" rx="1.42" ry="0.59"/><ellipse class="cls-14" cx="173.41" cy="148.63" rx="1.42" ry="0.59"/><ellipse class="cls-14" cx="162.75" cy="130.24" rx="1.42" ry="0.59"/><ellipse class="cls-14" cx="173.41" cy="127.23" rx="1.42" ry="0.59" transform="translate(-8.13 242.56) rotate(-68.69)"/><ellipse class="cls-15" cx="167.09" cy="115.57" rx="1.42" ry="0.59" transform="translate(-1.29 229.25) rotate(-68.69)"/><ellipse class="cls-15" cx="153.42" cy="116.91" rx="0.59" ry="1.42" transform="matrix(0.18, -0.98, 0.98, 0.18, 10.84, 246.82)"/><ellipse class="cls-16" cx="153.27" cy="146.13" rx="1.42" ry="0.59" transform="translate(-47.45 78.64) rotate(-25.05)"/><ellipse class="cls-16" cx="153.98" cy="130.83" rx="1.42" ry="0.59" transform="translate(-40.91 77.5) rotate(-25.05)"/><ellipse class="cls-16" cx="148.45" cy="123.02" rx="0.59" ry="1.42" transform="translate(-9.56 233.49) rotate(-74.61)"/><ellipse class="cls-16" cx="163.85" cy="123.02" rx="0.59" ry="1.42" transform="translate(1.75 248.34) rotate(-74.61)"/><rect class="cls-17" x="148.13" y="122.34" width="24.13" height="26.58" rx="2.75"/><rect class="cls-18" x="147.86" y="121.8" width="24.13" height="26.58" rx="2.75"/><path class="cls-9" d="M176.81,117.45a.74.74,0,0,0-.21-.49c-1.93-4.5-1.76-6.52-1.76-6.52v-4.6h0c0-1.5-6.55-2.73-14.63-2.73s-14.63,1.23-14.63,2.73v4a.54.54,0,0,0-.06.25.53.53,0,0,0,.06.24v.15s.16,2-1.77,6.52a.77.77,0,0,0-.22.5v32c0,1.71,7.44,3.09,16.62,3.09s16.61-1.38,16.61-3.09h0v-32Z"/><path class="cls-19" d="M152.78,139.05a3.9,3.9,0,0,1-.18,1.24,2.48,2.48,0,0,1-.52.88,2.32,2.32,0,0,1-.83.53,2.85,2.85,0,0,1-1.08.19h-.53L149,139.8h.26a1.19,1.19,0,0,0,.78-.22.92.92,0,0,0,.26-.74v-5.58l2.47-.21Zm0-6.8-2.48.2v-2.09l2.61-.11Z"/><path class="cls-19" d="M157.41,138.91h0a1.71,1.71,0,0,1-.78.61,3.12,3.12,0,0,1-1,.17,2.28,2.28,0,0,1-1.59-.64,2.39,2.39,0,0,1-.49-.74,2.5,2.5,0,0,1-.18-1,2,2,0,0,1,.18-.86,2.15,2.15,0,0,1,.5-.69,2.29,2.29,0,0,1,.74-.45,2.52,2.52,0,0,1,.93-.17,2.1,2.1,0,0,1,.88.16,2.7,2.7,0,0,1,.61.34v-.34a.68.68,0,0,0-.34-.69,1.93,1.93,0,0,0-.89-.18,3.89,3.89,0,0,0-.93.11c-.29.07-.59.15-.88.24l.44-1.82a7.18,7.18,0,0,1,1.14-.22,12.1,12.1,0,0,1,1.21-.06,4.53,4.53,0,0,1,1.1.13,2.7,2.7,0,0,1,.94.43,2.15,2.15,0,0,1,.64.76,2.39,2.39,0,0,1,.23,1.15l-.13,4.31-2.29.2ZM156,136.8a1.33,1.33,0,0,0-.64.27.49.49,0,0,0,.11.87,1.4,1.4,0,0,0,.73.06,1.19,1.19,0,0,0,.66-.29.51.51,0,0,0,.17-.46.52.52,0,0,0-.29-.37A1.07,1.07,0,0,0,156,136.8Z"/><path class="cls-19" d="M167.76,135.63a.45.45,0,0,0-.16-.36.6.6,0,0,0-.42-.13.53.53,0,0,0-.43.17.49.49,0,0,0-.16.35l.07,3.9-2.48.21,0-4.12a.44.44,0,0,0-.16-.37.64.64,0,0,0-.45-.14.66.66,0,0,0-.4.13.46.46,0,0,0-.18.39l.12,4.12-2.4-.21-.13-6.49,2.32-.2v1.05h0a3,3,0,0,1,.83-.77,2.08,2.08,0,0,1,1.11-.28,2.34,2.34,0,0,1,.9.16,2,2,0,0,1,.65.52,2.36,2.36,0,0,1,.68-.49,1.75,1.75,0,0,1,.83-.19,2.21,2.21,0,0,1,.91.18,1.78,1.78,0,0,1,.66.49,2.58,2.58,0,0,1,.41.75,3.34,3.34,0,0,1,.15.92l.07,4.34-2.48.21Z"/><line class="cls-20" x1="149.83" y1="123.88" x2="170.15" y2="123.88"/><line class="cls-20" x1="149.83" y1="146.13" x2="170.15" y2="146.13"/><path class="cls-21" d="M146.55,112.38a45,45,0,0,0,26.8,0"/><polyline class="cls-22" points="167.24 151.48 167.24 155.44 196.5 155.35 196.5 151.48"/><ellipse class="cls-22" cx="181.87" cy="155.35" rx="14.63" ry="2.73"/><ellipse class="cls-23" cx="181.87" cy="151.48" rx="14.63" ry="2.73"/><path class="cls-24" d="M167.24,155.89s4.69,2.46,15.46,2.19c0,0,9.39.16,13.73-2.46"/><path class="cls-2" d="M110,116.25c-26.6,34.27-44.43,10.46-44.43,10.46-7.75-8-13.1-1.9-13.1-1.9-5.3,4.84-9.31-2.41-9.31-2.41a8.5,8.5,0,0,1,.11-11c15.29-16.55,30.78,7.28,30.78,7.28,16.58,17.33,33.28-6.23,33.28-6.23a1.84,1.84,0,0,1,2.63.33C111.25,114.26,110,116.25,110,116.25Z"/><g class="cls-25"><ellipse class="cls-26" cx="55.56" cy="105.84" rx="9.79" ry="3.27" transform="translate(-59.68 137.58) rotate(-77.7)"/><ellipse class="cls-26" cx="66.28" cy="109.86" rx="9.79" ry="3.27" transform="translate(-61.27 123.84) rotate(-65.15)"/></g><path class="cls-27" d="M153.42,95.53s3-4,4.84-2.72c0,0,3.57,1,2.29,2.73,0,0,1.37,1.63-.35,3.8s-2.65,6.89-8.9,3.4C151.3,102.74,147.71,99.9,153.42,95.53Z"/><path class="cls-28" d="M134.55,89.68s13.56,7.1,18.87,5.85c0,0,3.11,4.15-.41,6.67S138,99,133.24,96,130.54,88.54,134.55,89.68Z"/><path class="cls-27" d="M119.67,141.07s5,.22,5,2.44c0,0,1.16,3.53-1,3.44,0,0-.56,2-3.33,1.86s-7.17,1.74-7.85-5.38C112.53,143.43,112.82,138.85,119.67,141.07Z"/><path class="cls-28" d="M113.76,122.22s1.86,15.19,5.91,18.85c0,0-1.64,4.91-5.72,3.45s-5.9-14.15-6.15-19.77S112.41,118.27,113.76,122.22Z"/><path class="cls-2" d="M117.7,90.52s-1.12,1.27-3.25,3.46c-1.56.92-8.62,5.18-6.5,5.81-1.76,1.25-3.26,2.55-2.73,3.06-7.37,6.89-13.37,15.4-7.67,24.09,5.86,8.95,18.49,12.8,29.58-3.76s13.28-25.38,8.37-33.42C128.9,78.94,126.31,76.36,117.7,90.52Z"/><g class="cls-29"><ellipse class="cls-26" cx="106.92" cy="102.1" rx="8.02" ry="3.63" transform="translate(-10.68 12.51) rotate(-6.38)"/><ellipse class="cls-26" cx="101.9" cy="110.62" rx="8.02" ry="3.63" transform="translate(-5.13 4.96) rotate(-2.72)"/><path class="cls-30" d="M137.15,87.31s-3.86-2.59-4.43,5.53,1.8,10.89-5.61,21-13.22,14.3-12.87,17,1,6.19,9.24,1.89S145.71,103,145.71,103s2.27-9.93,1.86-10.32S137.15,87.31,137.15,87.31Z"/></g><path class="cls-31" d="M119.51,86.16s9.52,6.43,19.25,7l.59-6.28S116.35,77.84,119.51,86.16Z"/><path class="cls-3" d="M155.6,76.15s-1.95,1.78-1.45,3.78c0,0-6.6,1-7.42-2.41s4.57-5.46,5-5.31A49.73,49.73,0,0,1,155.6,76.15Z"/><g class="cls-32"><path class="cls-33" d="M146.92,76.34c.08,0,5.32-.44,5.24,4.36l-6.68-1.33Z"/></g><path class="cls-5" d="M154.39,76.23s.35,2.67,2.25-.12Z"/><path class="cls-4" d="M137.48,48.4s2.71-12.89-1.12-14.14c0,0-4.48-1.5-10.91,11.46,0,0,.89,3.76,6.55,4.24C132,50,137.26,50.76,137.48,48.4Z"/><g class="cls-34"><path class="cls-35" d="M140.53,36.18s-5.6.32-6.17,14.26c0,0,7.16,2.82,7.59.76s1.15-13,1.15-13Z"/></g><path class="cls-2" d="M154.8,79.52s0,1-1.57,1.94c-7.26,4.55-22,4.08-22,4.08a35.6,35.6,0,0,1-15.78-1.23c-13.14-3.89-16-12.51-16-12.51,8-.76,7.92-4.26,7.92-4.26-2-26.74,16.08-29.21,16.08-29.21s26-7.55,27.82,23.26c0,0,1.21,3,7.15,3.64a12.65,12.65,0,0,1-.29,10.28s-4.6,3.24-10.45-.32C147.64,75.19,148.41,80.64,154.8,79.52Z"/><g class="cls-36"><ellipse class="cls-30" cx="153.24" cy="80.26" rx="17.06" ry="18.77" transform="translate(-5.91 12.46) rotate(-4.57)"/></g><ellipse class="cls-37" cx="155.95" cy="65.21" rx="2.94" ry="1.72" transform="translate(-4.7 12.63) rotate(-4.57)"/><ellipse class="cls-26" cx="123.21" cy="56.35" rx="8.4" ry="3.15" transform="translate(-4.1 9.99) rotate(-4.57)"/><ellipse class="cls-26" cx="122.8" cy="45.97" rx="8.83" ry="3.15" transform="translate(-3.27 9.93) rotate(-4.57)"/><path class="cls-4" d="M128.71,49s2.71-12.89-1.13-14.13c0,0-5.79.56-12.22,13.53,0,0,2.21,1.68,7.86,2.16C123.22,50.57,128.48,51.37,128.71,49Z"/><g class="cls-38"><path class="cls-35" d="M131.76,36.79s-5.6.32-6.18,14.26c0,0,7.16,2.82,7.6.76s1.15-13,1.15-13Z"/></g><circle class="cls-5" cx="140.26" cy="59.21" r="4.85"/><g class="cls-39"><circle class="cls-40" cx="142.02" cy="62.47" r="3.62"/><circle class="cls-40" cx="142.02" cy="62.47" r="2.67"/><circle class="cls-5" cx="140.06" cy="60.08" r="1.07"/></g><path class="cls-41" d="M143.88,52.1s-4.36-6.59-8.88.69"/><path class="cls-42" d="M134.54,70.14s9.09-4,15.26-.91"/><path class="cls-42" d="M134.71,73.54s8.57-5,15.06-2.66"/><path class="cls-42" d="M134.59,76.38S142.91,71,149.5,73"/><path class="cls-30" d="M147.67,107.07s4.34-2.48,5.52-.61c0,0,2.87,2.36,1.05,3.41,0,0,.62,2-1.82,3.36s-5.12,5.31-9.51-.34C142.91,112.89,140.71,108.88,147.67,107.07Z"/><path class="cls-2" d="M132.58,94.33s9.72,11.83,15.09,12.74c0,0,1.25,5-3,6s-12.56-8.79-15.79-13.4S129.32,91.72,132.58,94.33Z"/><path class="cls-30" d="M105.87,144s3.29,3.77,1.68,5.29c0,0-1.74,3.28-3.13,1.7,0,0-1.87,1-3.65-1.12s-6.21-4-1.54-9.4C99.23,140.44,102.74,137.5,105.87,144Z"/><path class="cls-2" d="M115.41,126.68s-9.7,11.84-9.54,17.29c0,0-4.69,2.21-6.45-1.74s6.16-14,10-18.12S117.33,123,115.41,126.68Z"/><path class="cls-12" d="M160.89,119.06a11.41,11.41,0,0,1,8.5-.09l-3.79,2-5-.46Z"/><path class="cls-43" d="M167.13,103c.14.09.29.18.42.28a4.12,4.12,0,0,1,.54.48c4.08.49,6.41,1.31,6.41,2,0,1-5.44,2.4-14.3,2.4-2.11,0-4-.08-5.7-.21a2.7,2.7,0,0,1,.36.67c1.84.14,3.7.2,5.34.2,6,0,15-.81,15-3.06C175.16,104.3,171.41,103.45,167.13,103Z"/><path class="cls-43" d="M145.91,105.71c.12-.73,3-1.64,8-2.09A3.74,3.74,0,0,1,154,103c-4.57.4-8.75,1.26-8.75,2.79a.93.93,0,0,0,0,.29A3.69,3.69,0,0,1,145.91,105.71Z"/><path class="cls-44" d="M158.06,100.43l-.22-.08a.4.4,0,0,0-.19,0,.58.58,0,0,0-.17.06.49.49,0,0,0-.13.12.36.36,0,0,0-.08.15v.13a.46.46,0,0,0,.06.23l.07.09a.47.47,0,0,0,.2.12l.23.07a.37.37,0,0,0,.18,0,.34.34,0,0,0,.17,0,.37.37,0,0,0,.13-.12.35.35,0,0,0,.08-.16l0-.12a.39.39,0,0,0-.07-.23l-.07-.1a.43.43,0,0,0-.2-.11Z"/><path class="cls-44" d="M159.78,94.29a.46.46,0,0,0,0-.92.46.46,0,0,0,0,.92Z"/><path class="cls-44" d="M161.48,90.65a.46.46,0,0,0,0-.92.46.46,0,0,0,0,.92Z"/><path class="cls-44" d="M157.91,98.86l0-.26a.35.35,0,0,0-.08-.16.37.37,0,0,0-.13-.12.34.34,0,0,0-.17,0,.28.28,0,0,0-.18,0l-.11,0a.46.46,0,0,0-.17.17l0,.11a.33.33,0,0,0,0,.24l0,.26a.51.51,0,0,0,.09.16.3.3,0,0,0,.13.12.34.34,0,0,0,.17.05.37.37,0,0,0,.18,0l.11,0a.52.52,0,0,0,.16-.17l0-.11a.49.49,0,0,0,0-.24Z"/><g class="cls-45"><path class="cls-46" d="M155.18,99.7c.34.72,1.55,3.3,3.16,3.06s.78-1.14,1.39-2.52a34.38,34.38,0,0,1,4.07-8.06c2.19-3.86,2.53-9.89-1.26-14.16-1.71-2.41-5.39-6.83-11-1.06-3.85,4.63-2.34,10.92.1,14.38C153.1,94.25,154.08,97.38,155.18,99.7Z"/><g class="cls-47"><path class="cls-44" d="M158.66,101.11c.16-1.23.11-2.47.27-3.69a28,28,0,0,1,2.32-6.68c.91-2.19,1.64-4.58,1.16-6.89s-2-4.07-2.84-6.17a2.69,2.69,0,0,1-.09-2.39,1.92,1.92,0,0,1,1.71-.82,4.23,4.23,0,0,1,1.88.62,12.89,12.89,0,0,1,4.77,5,25.41,25.41,0,0,1,2.36,6.57c.87,3.82,1.21,8.07-.82,11.42a11.12,11.12,0,0,1-4,3.8c-.91.52-2,.68-2.87,1.18a9.26,9.26,0,0,1-2.95,1.38C157.15,104.84,158.51,102.22,158.66,101.11Z"/></g><path class="cls-48" d="M150.65,85.14c1,1,1.49,2.08,3.72,2.64s4.49.63,6.73-1.08,3.12-4.44,2.23-6.51S160,74.27,157.4,74.5s-5.25,1.61-7.29,5.48C149.48,81.58,149.75,84.21,150.65,85.14Z"/><path class="cls-44" d="M158.08,91.14c-1.36.16-4.06.22-5.94-1.29-.07,0,0-.16.08-.14A45.61,45.61,0,0,0,158.08,91,.08.08,0,0,1,158.08,91.14Z"/><path class="cls-44" d="M158.54,95.5a6.1,6.1,0,0,1-4.91-1.2c-.06,0,0-.13.06-.11a32.5,32.5,0,0,0,4.85,1.18A.07.07,0,0,1,158.54,95.5Z"/><path class="cls-49" d="M156.54,92.91l-.34-.11a.25.25,0,0,0-.12,0l-.12,0a.36.36,0,0,0-.15.19v.09a.29.29,0,0,0,0,.16l0,.06a.42.42,0,0,0,.14.09l.34.11a.28.28,0,0,0,.13,0,.27.27,0,0,0,.12,0,.2.2,0,0,0,.09-.09.21.21,0,0,0,.06-.1v-.09a.3.3,0,0,0-.05-.16l0-.07a.47.47,0,0,0-.14-.08Z"/><path class="cls-44" d="M156.76,88.51l-.56-.18a.37.37,0,0,0-.18,0,.27.27,0,0,0-.17.06.3.3,0,0,0-.13.12.28.28,0,0,0-.08.15.45.45,0,0,0,0,.36l.07.09a.45.45,0,0,0,.21.12l.55.18a.41.41,0,0,0,.19,0,.37.37,0,0,0,.17,0,.49.49,0,0,0,.13-.12.48.48,0,0,0,.08-.16.43.43,0,0,0-.05-.35l-.07-.1a.67.67,0,0,0-.2-.12Z"/><path class="cls-49" d="M153.38,88.37l-.25-.21a.29.29,0,0,0-.15-.09.27.27,0,0,0-.18,0,.25.25,0,0,0-.17,0,.29.29,0,0,0-.15.09l-.07.09a.42.42,0,0,0-.07.24l0,.12a.41.41,0,0,0,.12.2l.25.21a.31.31,0,0,0,.15.1.34.34,0,0,0,.18,0,.33.33,0,0,0,.17,0,.31.31,0,0,0,.15-.1l.07-.09a.39.39,0,0,0,.07-.23l0-.12a.45.45,0,0,0-.12-.21Z"/></g><path class="cls-8" d="M153.47,82.7c.93.21,1.66,1,2.6,1.11s2.07-.77,3.13-.58c.77.14,1.36.81,2.12,1,1.16.25,2.21-.7,3.35-1a1.12,1.12,0,0,0,.55-.22c.41-.38,0-1,0-1.62s.35-.83.47-1.27a2.1,2.1,0,0,0-1.41-2.32,10.17,10.17,0,0,0-2.92-.44,10.41,10.41,0,0,1-5.13-2,3.31,3.31,0,0,0-1.24-.72c-1-.2-2,.68-3,.57-1.25-.14-2.45-1.1-2.85.74-.23,1.1-.1,2.21-.39,3.35a2.47,2.47,0,0,0,.61,2.7C150.65,83.2,152,82.35,153.47,82.7Z"/></g></svg>