<svg id="Layer_3" data-name="Layer 3" xmlns="http://www.w3.org/2000/svg" xmlns:xlink="http://www.w3.org/1999/xlink" viewBox="0 0 260 168"><defs><style>.cls-1{fill:#ffbd29;}.cls-2{fill:#eaa61f;}.cls-3{fill:#5b091b;}.cls-4{clip-path:url(#clip-path);}.cls-5{fill:#ff7e27;}.cls-6{clip-path:url(#clip-path-2);}.cls-7{fill:#f7cc81;}.cls-8{clip-path:url(#clip-path-3);}.cls-9{clip-path:url(#clip-path-4);}.cls-10{fill:#ffe7b6;}.cls-11{fill:#3acccc;}.cls-12{clip-path:url(#clip-path-5);}.cls-13{clip-path:url(#clip-path-6);}.cls-14{fill:#ffab24;}.cls-15{fill:#7f4a03;}.cls-16{clip-path:url(#clip-path-7);}.cls-17{fill:#fff;}.cls-18{fill:#594025;}.cls-19{clip-path:url(#clip-path-8);}.cls-20{fill:#a82648;}.cls-21{fill:none;stroke:#a57749;stroke-linecap:round;stroke-linejoin:round;stroke-width:0.43px;}.cls-22{fill:#ff8098;}</style><clipPath id="clip-path"><path class="cls-1" d="M128.38,133.62s30,3.71,28.07-19.43c0,0-1.43-25.3,11.85-24.77,0,0,6.81-.8,8.41,4,0,0,2.41,6.55-4.5,7.29,0,0-7.55,1-6.75,11.71,0,0,4.89,26.48-37,23.78"/></clipPath><clipPath id="clip-path-2"><path class="cls-2" d="M119.33,121s-12.12,2.32-5.16,17.16c0,0-6.75,1.81-3.22,7,0,0,4,3.35,11-2.13l3-12.22Z"/></clipPath><clipPath id="clip-path-3"><path class="cls-2" d="M140.81,121s12.12,2.32,5.16,17.16c0,0,6.74,1.81,3.22,7,0,0-4.06,3.35-11-2.13l-2.95-12.22Z"/></clipPath><clipPath id="clip-path-4"><path class="cls-1" d="M138.24,95.83l-8-.34-8,.34s-7.51,38.49-3.08,44.22,8.18,5.73,11.09,5.73,6.65,0,11.08-5.73S138.24,95.83,138.24,95.83Z"/></clipPath><clipPath id="clip-path-5"><path class="cls-1" d="M120.21,106.72s-1.11,34.62-4.11,34.62-2,4.44-.45,4.44a4.69,4.69,0,0,0,4.56.48,4.13,4.13,0,0,0,4.1-.48s1.94-4.16-1.24-6"/></clipPath><clipPath id="clip-path-6"><path class="cls-1" d="M140.18,106.72s1.11,34.62,4.11,34.62,2,4.44.45,4.44a4.69,4.69,0,0,1-4.56.48,4.13,4.13,0,0,1-4.1-.48s-1.94-4.16,1.24-6"/></clipPath><clipPath id="clip-path-7"><path class="cls-1" d="M156.3,83.35c-3.11-1.8-7.07-9-8.73-12.15-.2-.43-.41-.85-.64-1.26-.09-.19-.15-.3-.15-.3h0a18.72,18.72,0,0,0-32.39,0h0l0,.06a18.78,18.78,0,0,0-.91,1.79c-1.74,3.33-5.56,10.12-8.57,11.86a2.17,2.17,0,0,0,2,1.36s-3.24,12.43,22.3,13v0c.45,0,.91,0,1.37,0s.92,0,1.38,0v0c25.53-.61,22.29-13,22.29-13A2.18,2.18,0,0,0,156.3,83.35Z"/></clipPath><clipPath id="clip-path-8"><path class="cls-3" d="M125.83,92.59A5.48,5.48,0,0,0,131,95.68c3.76-.17,4.43-3.05,4.43-3.05s-1.83,2-4.82-.5C130.65,92.13,129,94.13,125.83,92.59Z"/></clipPath></defs><path class="cls-1" d="M128.38,133.62s30,3.71,28.07-19.43c0,0-1.43-25.3,11.85-24.77,0,0,6.81-.8,8.41,4,0,0,2.41,6.55-4.5,7.29,0,0-7.55,1-6.75,11.71,0,0,4.89,26.48-37,23.78"/><g class="cls-4"><ellipse class="cls-5" cx="161.73" cy="94.75" rx="3.41" ry="7.17" transform="translate(-12.22 164.59) rotate(-52.24)"/><ellipse class="cls-5" cx="157.14" cy="103.32" rx="3.41" ry="7.17" transform="translate(19.75 231.74) rotate(-76.39)"/></g><path class="cls-2" d="M119.33,121s-12.12,2.32-5.16,17.16c0,0-6.75,1.81-3.22,7,0,0,4,3.35,11-2.13l3-12.22Z"/><g class="cls-6"><path class="cls-7" d="M112.23,136.78s9.86,7.2,17.83-.93c0,0,1.4,18.94,0,19.31s-28.5-.19-29.89-2.14-1.58-6.49,0-8.44,3.71-5.29,5-6,1.39-1.11,1.39-1.11"/></g><path class="cls-2" d="M140.81,121s12.12,2.32,5.16,17.16c0,0,6.74,1.81,3.22,7,0,0-4.06,3.35-11-2.13l-2.95-12.22Z"/><g class="cls-8"><path class="cls-7" d="M135.07,140.44c.11-.21,7.44.49,13.84-4s-.38-.12-.38-.12,21.81,9.19,14,12.43,6.53,6.6-16.32,4.27-26.5-2.22-25.56-3.89a10.18,10.18,0,0,0,1.13-2.52Z"/></g><path class="cls-1" d="M138.24,95.83l-8-.34-8,.34s-7.51,38.49-3.08,44.22,8.18,5.73,11.09,5.73,6.65,0,11.08-5.73S138.24,95.83,138.24,95.83Z"/><g class="cls-9"><ellipse class="cls-10" cx="130.06" cy="125.06" rx="8.05" ry="19.65"/></g><path class="cls-11" d="M120.66,96.54s8.69,9.79,19.31,0L122.51,93.4"/><path class="cls-1" d="M121.86,97.83a6.1,6.1,0,0,1-2.58,4.92,4,4,0,0,0,1.34,0,13.52,13.52,0,0,1-1.7,2.42,1.51,1.51,0,0,0,.79,0,4.52,4.52,0,0,1-1.56,1.42l2.87.11a1.49,1.49,0,0,0,.73-.09,1.35,1.35,0,0,0,.51-1.41,27.37,27.37,0,0,0-.56-3.72c0-.23.19-.58.23-.81s-.5-.57-.33-.84a1,1,0,0,0,.14-.92"/><path class="cls-1" d="M138.6,97.83a6.1,6.1,0,0,0,2.58,4.92,4,4,0,0,1-1.34,0,13.52,13.52,0,0,0,1.7,2.42,1.51,1.51,0,0,1-.79,0,4.52,4.52,0,0,0,1.56,1.42l-2.87.11a1.49,1.49,0,0,1-.73-.09,1.35,1.35,0,0,1-.51-1.41,27.37,27.37,0,0,1,.56-3.72c.05-.23-.19-.58-.23-.81s.5-.57.33-.84a1,1,0,0,1-.14-.92"/><path class="cls-1" d="M120.21,106.72s-1.11,34.62-4.11,34.62-2,4.44-.45,4.44a4.69,4.69,0,0,0,4.56.48,4.13,4.13,0,0,0,4.1-.48s1.94-4.16-1.24-6"/><g class="cls-12"><path class="cls-10" d="M115.2,139.75s4.45,5.15,9.7-1.6c0,0,5.9,19.14,4.6,19.24s-10.77,2-14.67.55-6-4.27-4.9-5.84-2.24-9.56-2.24-9.56Z"/></g><path class="cls-1" d="M140.18,106.72s1.11,34.62,4.11,34.62,2,4.44.45,4.44a4.69,4.69,0,0,1-4.56.48,4.13,4.13,0,0,1-4.1-.48s-1.94-4.16,1.24-6"/><g class="cls-13"><path class="cls-10" d="M136.53,139.1s2.72,3.13,8.7,1.11l5,9.89a15.5,15.5,0,0,1-7.2,1.25c-3.83-.34-5,.35-7.52-1.25s-4.25-2.25-4-3.49S136.53,139.1,136.53,139.1Z"/></g><path class="cls-14" d="M122,62.94s-14.28-12.43-7.62,6.76c0,0,2.47,1.22,5.34-1.47C119.68,68.23,123.28,66.18,122,62.94Z"/><path class="cls-15" d="M120.23,63.52s-8.84-7.7-4.72,4.19c0,0,1.53.76,3.31-.91C118.82,66.8,121.05,65.53,120.23,63.52Z"/><path class="cls-14" d="M138.4,62.94S152.68,50.51,146,69.7c0,0-2.47,1.22-5.34-1.47C140.68,68.23,137.08,66.18,138.4,62.94Z"/><path class="cls-15" d="M140.61,63.52s8.84-7.7,4.72,4.19c0,0-1.53.76-3.31-.91C142,66.8,139.79,65.53,140.61,63.52Z"/><path class="cls-1" d="M156.3,83.35c-3.11-1.8-7.07-9-8.73-12.15-.2-.43-.41-.85-.64-1.26-.09-.19-.15-.3-.15-.3h0a18.72,18.72,0,0,0-32.39,0h0l0,.06a18.78,18.78,0,0,0-.91,1.79c-1.74,3.33-5.56,10.12-8.57,11.86a2.17,2.17,0,0,0,2,1.36s-3.24,12.43,22.3,13v0c.45,0,.91,0,1.37,0s.92,0,1.38,0v0c25.53-.61,22.29-13,22.29-13A2.18,2.18,0,0,0,156.3,83.35Z"/><g class="cls-16"><circle class="cls-10" cx="130.58" cy="96.55" r="12.86"/><ellipse class="cls-5" cx="110.55" cy="77.36" rx="5.35" ry="1.75"/><ellipse class="cls-5" cx="113.5" cy="71.72" rx="5.35" ry="1.75"/><ellipse class="cls-5" cx="150.23" cy="77.36" rx="5.35" ry="1.75"/><ellipse class="cls-5" cx="147.28" cy="71.72" rx="5.35" ry="1.75"/><ellipse class="cls-5" cx="127.07" cy="63.01" rx="1.69" ry="5.91"/><ellipse class="cls-5" cx="133.72" cy="63.01" rx="1.69" ry="5.91"/></g><circle class="cls-17" cx="120.41" cy="80.13" r="4.51"/><circle class="cls-18" cx="120.41" cy="80.13" r="3.12"/><circle class="cls-18" cx="120.41" cy="80.13" r="2.05"/><circle class="cls-17" cx="119.13" cy="78.08" r="1.03"/><circle class="cls-17" cx="140.43" cy="80.13" r="4.51"/><circle class="cls-18" cx="140.43" cy="80.13" r="3.12"/><circle class="cls-18" cx="140.43" cy="80.13" r="2.05"/><circle class="cls-17" cx="139.15" cy="78.08" r="1.03"/><path class="cls-1" d="M123.53,84.64s-2-1.94-9.37-.75c0,0,2.87,1.44,3.13,1.44s5.8.07,5.9,0A3.33,3.33,0,0,0,123.53,84.64Z"/><path class="cls-1" d="M138.11,84.64s2-1.94,9.37-.75c0,0-2.87,1.44-3.13,1.44s-5.8.07-5.9,0A3.33,3.33,0,0,1,138.11,84.64Z"/><path class="cls-15" d="M118.1,72.83a2.22,2.22,0,0,1,1.13-1.07,3.17,3.17,0,0,1,1.55-.28,3.12,3.12,0,0,1,2.55,1.58,11.73,11.73,0,0,1-1.43-.1c-.42-.06-.82-.07-1.21-.12A22,22,0,0,0,118.1,72.83Z"/><path class="cls-15" d="M142.8,72.83a22,22,0,0,0-2.59,0c-.39,0-.79.06-1.22.12a11.55,11.55,0,0,1-1.42.1,3.12,3.12,0,0,1,2.54-1.58,3.17,3.17,0,0,1,1.55.28A2.24,2.24,0,0,1,142.8,72.83Z"/><path class="cls-3" d="M125.83,92.59A5.48,5.48,0,0,0,131,95.68c3.76-.17,4.43-3.05,4.43-3.05s-1.83,2-4.82-.5C130.65,92.13,129,94.13,125.83,92.59Z"/><g class="cls-19"><ellipse class="cls-20" cx="130.92" cy="96.8" rx="2.43" ry="4.18" transform="translate(30.75 225.16) rotate(-88.51)"/><ellipse class="cls-17" cx="128.28" cy="93.22" rx="0.45" ry="0.74" transform="translate(-7.64 11.54) rotate(-5)"/><ellipse class="cls-17" cx="133.06" cy="93.31" rx="0.74" ry="0.45" transform="translate(30.64 219.49) rotate(-85.97)"/></g><path class="cls-21" d="M130.63,87.3V92s-1.67,3-5.71,0"/><path class="cls-21" d="M130.63,87.3V92s1.65,3,5.71,0"/><ellipse class="cls-22" cx="130.58" cy="86.29" rx="3.15" ry="1.64"/></svg>