<svg id="_10" data-name="10" xmlns="http://www.w3.org/2000/svg" xmlns:xlink="http://www.w3.org/1999/xlink" viewBox="0 0 260 168"><defs><style>.cls-1{fill:#ffbd29;}.cls-2{fill:#ffa92c;}.cls-3{clip-path:url(#clip-path);}.cls-4{fill:#ff7e27;}.cls-5{clip-path:url(#clip-path-2);}.cls-6{fill:#ffe7b6;}</style><clipPath id="clip-path"><path class="cls-1" d="M-1.54,104.85c11,8.88,14.85,0,14.85,0,1.86-3.1,4-1.58,4-1.58,2,1.14,2.77-1.45,2.77-1.45a2.76,2.76,0,0,0-.84-3.46C13.17,94.27,10,103,10,103c-4,6.72-11,.5-11,.5a.6.6,0,0,0-.81.3A1,1,0,0,0-1.54,104.85Z"/></clipPath><clipPath id="clip-path-2"><path class="cls-1" d="M-12.62,104.27s.53-.13,1.49-.41c.5-.3,2.8-1.68,2.66-1,.62-.31,1.22-.54,1.29-.31,3.1-1.07,6.46-1.5,8.09,1.47s.86,7.26-5.59,7.92-9.32-.06-10.88-2.69C-17.66,105.72-18,104.59-12.62,104.27Z"/></clipPath></defs><path class="cls-2" d="M-1.24,106.83s-2.37,4.38-4,5c0,0-.09,1.69,1.32,1.73S-.48,110,.26,108.3-.37,105.79-1.24,106.83Z"/><path class="cls-1" d="M-1.54,104.85c11,8.88,14.85,0,14.85,0,1.86-3.1,4-1.58,4-1.58,2,1.14,2.77-1.45,2.77-1.45a2.76,2.76,0,0,0-.84-3.46C13.17,94.27,10,103,10,103c-4,6.72-11,.5-11,.5a.6.6,0,0,0-.81.3A1,1,0,0,0-1.54,104.85Z"/><g class="cls-3"><ellipse class="cls-4" cx="14.93" cy="97.51" rx="1.06" ry="3.18" transform="translate(-40.49 15.9) rotate(-25.47)"/><ellipse class="cls-4" cx="11.83" cy="99.58" rx="1.06" ry="3.18" transform="translate(-58.83 28.43) rotate(-38.02)"/></g><path class="cls-1" d="M-12.62,104.27s.53-.13,1.49-.41c.5-.3,2.8-1.68,2.66-1,.62-.31,1.22-.54,1.29-.31,3.1-1.07,6.46-1.5,8.09,1.47s.86,7.26-5.59,7.92-9.32-.06-10.88-2.69C-17.66,105.72-18,104.59-12.62,104.27Z"/><g class="cls-5"><path class="cls-6" d="M-16.51,109.37s-.16-1.5,2.26-.43,2.86,2.18,6.88,1.59,6.12-1.62,6.84-1.11,1.63,1.23-.86,2.94-11.92,1.86-11.92,1.86a24.87,24.87,0,0,1-3.25-1C-16.61,113-16.51,109.37-16.51,109.37Z"/></g><path class="cls-6" d="M-.27,114.43s-1.47.7-1.19,1.36c0,0,.1,1.21.72.91a1,1,0,0,0,1.23.14c.81-.4,2.37-.38,1.67-2.6C2.16,114.24,1.5,112.9-.27,114.43Z"/><path class="cls-1" d="M-.88,108s1.36,4.78.61,6.39c0,0,1.11,1.27,2.15.31s0-5-.66-6.7S-1,106.68-.88,108Z"/></svg>