<svg id="Layer_8" data-name="Layer 8" xmlns="http://www.w3.org/2000/svg" xmlns:xlink="http://www.w3.org/1999/xlink" viewBox="0 0 260 168"><defs><style>.cls-1{fill:#ffbd29;}.cls-2{fill:#ffab24;}.cls-3{fill:#fff;}.cls-4{fill:#f9d89d;}.cls-5{fill:#ffa92c;}.cls-6{clip-path:url(#clip-path);}.cls-7{fill:#ffe7b6;}.cls-8{fill:#3acccc;}.cls-9{clip-path:url(#clip-path-2);}.cls-10{fill:#7f4a03;}.cls-11{clip-path:url(#clip-path-3);}.cls-12{fill:#ff8098;}.cls-13{fill:#ff7e27;}.cls-14{clip-path:url(#clip-path-4);}.cls-15{clip-path:url(#clip-path-5);}.cls-16{fill:#594025;}.cls-17,.cls-18{fill:none;stroke-linecap:round;}.cls-17{stroke:#7f4a03;stroke-miterlimit:10;stroke-width:2.67px;}.cls-18{stroke:#ffc866;stroke-linejoin:round;stroke-width:0.62px;}</style><clipPath id="clip-path"><path class="cls-1" d="M-3.63,93.29s-2.4-.56-6.69-1.82c-2.26-1.38-12.6-7.57-12-4.4-2.81-1.41-5.51-2.46-5.82-1.42-13.94-4.79-29-6.71-36.35,6.59-7.54,13.7-3.84,32.64,25.12,35.62s41.87-.26,48.88-12.1C19,99.82,20.55,94.71-3.63,93.29Z"/></clipPath><clipPath id="clip-path-2"><path class="cls-2" d="M37.51,55.65s10.13-16.08,5.72-19.87l-.18-.14c-.81-.5-6.38-3.07-20.27,9.83a1.29,1.29,0,0,0-.41,1c.06,1.54.8,5.72,6.82,8.56C29.19,55,36,58.77,37.51,55.65Z"/></clipPath><clipPath id="clip-path-3"><path class="cls-1" d="M42.26,108.94c-11.7,2.43-30.42-4.88-32.1-5.55a1,1,0,0,0-.25-.07A52.61,52.61,0,0,1-11,93.63c-12.45-9.34-15-19.44-15.48-23.48a1.29,1.29,0,0,1,1.56-1.41c9,2,11-1.53,11.31-2.13a.88.88,0,0,0,.05-.15C-2.58,28.92,23.35,34.69,23.35,34.69S62.6,37.55,49.7,80.47a1.18,1.18,0,0,0,0,.53c.16,1.06,1.19,4.89,7.55,8.15a1.29,1.29,0,0,1,.63.73c.3,1,.34,3.26-3.45,7.2,0,0-4.92,5.73-6.77,7.15,0,0-1.63,1.47-7.1.27,0,0,5.69,1.24,4.66,2.49A8,8,0,0,1,42.26,108.94Z"/></clipPath><clipPath id="clip-path-4"><path class="cls-2" d="M25.18,52S35,36.48,31.11,32.35a1.16,1.16,0,0,0-.75-.34c-1.89-.2-9.53-.11-22.28,11.56A1.28,1.28,0,0,0,8,45.38a28.71,28.71,0,0,0,8.87,6S23.67,55.14,25.18,52Z"/></clipPath><clipPath id="clip-path-5"><circle class="cls-3" cx="35.81" cy="71.87" r="7.09" transform="translate(-39.66 44.45) rotate(-43.55)"/></clipPath></defs><path class="cls-4" d="M22,135s7.07-1.84,8,1.25c0,0,3.15,4.42.17,5.21,0,0,.1,3.09-3.84,4s-9.26,5.52-13.29-4.12C13.08,141.36,11.51,134.85,22,135Z"/><path class="cls-5" d="M5.63,111.22S14.8,131.63,22,135c0,0-.17,7.57-6.5,7.29s-14.34-17.21-17.13-25S2.05,106.29,5.63,111.22Z"/><path class="cls-1" d="M-3.63,93.29s-2.4-.56-6.69-1.82c-2.26-1.38-12.6-7.57-12-4.4-2.81-1.41-5.51-2.46-5.82-1.42-13.94-4.79-29-6.71-36.35,6.59-7.54,13.7-3.84,32.64,25.12,35.62s41.87-.26,48.88-12.1C19,99.82,20.55,94.71-3.63,93.29Z"/><g class="cls-6"><path class="cls-7" d="M13.84,116.2s.7-6.75-10.17-1.93-12.82,9.79-30.9,7.14-27.51-7.28-30.75-5-7.3,5.52,3.89,13.23S-.54,138-.54,138s14.37-3.86,14.59-4.67S13.84,116.2,13.84,116.2Z"/></g><path class="cls-8" d="M-10.06,90.53s11.35,12.39,25,16.43l3-8.73S-11.73,77.64-10.06,90.53Z"/><path class="cls-2" d="M37.51,55.65s10.13-16.08,5.72-19.87l-.18-.14c-.81-.5-6.38-3.07-20.27,9.83a1.29,1.29,0,0,0-.41,1c.06,1.54.8,5.72,6.82,8.56C29.19,55,36,58.77,37.51,55.65Z"/><g class="cls-9"><path class="cls-10" d="M47.89,40.46s-7.83-2.41-15.7,16.39c0,0,8.37,7.5,10,4.9S50.4,44.5,50.4,44.5Z"/></g><path class="cls-1" d="M42.26,108.94c-11.7,2.43-30.42-4.88-32.1-5.55a1,1,0,0,0-.25-.07A52.61,52.61,0,0,1-11,93.63c-12.45-9.34-15-19.44-15.48-23.48a1.29,1.29,0,0,1,1.56-1.41c9,2,11-1.53,11.31-2.13a.88.88,0,0,0,.05-.15C-2.58,28.92,23.35,34.69,23.35,34.69S62.6,37.55,49.7,80.47a1.18,1.18,0,0,0,0,.53c.16,1.06,1.19,4.89,7.55,8.15a1.29,1.29,0,0,1,.63.73c.3,1,.34,3.26-3.45,7.2,0,0-4.92,5.73-6.77,7.15,0,0-1.63,1.47-7.1.27,0,0,5.69,1.24,4.66,2.49A8,8,0,0,1,42.26,108.94Z"/><g class="cls-11"><ellipse class="cls-7" cx="42.89" cy="107.31" rx="27.44" ry="24.94" transform="translate(-72.04 119.36) rotate(-74.2)"/></g><ellipse class="cls-12" cx="54.25" cy="88.08" rx="2.51" ry="4.29" transform="translate(-45.27 116.3) rotate(-74.2)"/><ellipse class="cls-13" cx="13.9" cy="59.28" rx="4.6" ry="12.28" transform="translate(-46.92 56.52) rotate(-74.2)"/><ellipse class="cls-13" cx="18.63" cy="44.85" rx="4.6" ry="12.9" transform="translate(-29.6 50.56) rotate(-74.2)"/><path class="cls-2" d="M25.18,52S35,36.48,31.11,32.35a1.16,1.16,0,0,0-.75-.34c-1.89-.2-9.53-.11-22.28,11.56A1.28,1.28,0,0,0,8,45.38a28.71,28.71,0,0,0,8.87,6S23.67,55.14,25.18,52Z"/><g class="cls-14"><path class="cls-10" d="M35.56,36.84s-7.83-2.42-15.7,16.38c0,0,8.37,7.51,10,4.91s8.2-17.26,8.2-17.26Z"/></g><circle class="cls-3" cx="35.81" cy="71.87" r="7.09" transform="translate(-39.66 44.45) rotate(-43.55)"/><g class="cls-15"><circle class="cls-16" cx="39.91" cy="73.6" r="5.29"/><circle class="cls-16" cx="39.91" cy="73.6" r="3.9"/><circle class="cls-3" cx="38.44" cy="69.33" r="1.57"/></g><path class="cls-17" d="M45.72,62.74s-8.28,4.16-13.84-2.35"/><path class="cls-18" d="M22.42,83.93s14.49-.86,21.36,6.52"/><path class="cls-18" d="M20.92,88.68s14.3-2.53,22,4"/><path class="cls-18" d="M19.31,92.51s14.16-3.21,22.15,2.95"/><path class="cls-1" d="M3.35,115.52S-11.79,132-12,140c0,0-7,2.84-9.27-3.09s10.16-20,16.17-25.58S6.47,110.28,3.35,115.52Z"/></svg>