<svg xmlns="http://www.w3.org/2000/svg" xmlns:xlink="http://www.w3.org/1999/xlink" viewBox="0 0 260 168"><defs><style>.cls-1{fill:#ffab14;}.cls-2{fill:#ffab24;}.cls-3{fill:#fff;}.cls-27,.cls-28,.cls-33,.cls-39,.cls-4,.cls-41,.cls-43{fill:none;}.cls-5{fill:#ffbd29;}.cls-6{fill:#f9bd2a;}.cls-7{fill:#f48c37;}.cls-8{clip-path:url(#clip-path);}.cls-9{fill:#ffda99;}.cls-10{clip-path:url(#clip-path-2);}.cls-11{clip-path:url(#clip-path-3);}.cls-12{fill:#ff7e27;}.cls-13{clip-path:url(#clip-path-4);}.cls-14{fill:#ffe7b6;}.cls-15{fill:#3acccc;}.cls-16{clip-path:url(#clip-path-5);}.cls-17{clip-path:url(#clip-path-6);}.cls-18{clip-path:url(#clip-path-7);}.cls-19{fill:#ef526c;}.cls-20{clip-path:url(#clip-path-8);}.cls-21{fill:#7f4a03;}.cls-22{clip-path:url(#clip-path-9);}.cls-23{fill:#ff8098;}.cls-24{clip-path:url(#clip-path-10);}.cls-25{clip-path:url(#clip-path-11);}.cls-26{fill:#594025;}.cls-27{stroke:#7f4a03;stroke-width:0.99px;}.cls-27,.cls-28,.cls-43{stroke-linecap:round;}.cls-27,.cls-33,.cls-39,.cls-41{stroke-miterlimit:10;}.cls-28{stroke:#ffc866;stroke-width:0.23px;}.cls-28,.cls-43{stroke-linejoin:round;}.cls-29{fill:#ff2c2c;}.cls-30{fill:#a52020;}.cls-31{fill:#fc6363;}.cls-32{fill:#d3d3d3;opacity:0.24;}.cls-33,.cls-40{stroke:#000;}.cls-33{stroke-width:0.11px;}.cls-34{clip-path:url(#clip-path-12);}.cls-35{fill:#fc5959;}.cls-36{fill:#b23838;}.cls-37{fill:#0c0a07;opacity:0.25;}.cls-38{fill:#ffdeae;}.cls-39,.cls-43{stroke:#aaa;stroke-width:0.44px;}.cls-40{fill:#ff1526;stroke-width:0.11px;}.cls-41{stroke:#ff1526;stroke-width:0.08px;}.cls-42{fill:#aaa;}</style><clipPath id="clip-path"><path class="cls-1" d="M86.92,59.14c2.2,3.2,10.45,1.65,10.45,1.65-18.77,5.82-2.84,19.53-2.84,19.53s10.63,11,18.2,1-5.4-14.88-5.4-14.88-7.77-2.93-2.23-4.83c4.43-1.51,1.64-4.76,1.64-4.76s-2.27-1.51-11-1.66-8.88,1.56-8.88,1.56A2.38,2.38,0,0,0,86.92,59.14Z"/></clipPath><clipPath id="clip-path-2"><path class="cls-1" d="M143.49,113s12.87,6.83,15.54,12.36c0,0,2.35-3.1,4.18-2,0,0,4.42,1.52-2.29,8,0,0-3,3.65-4.4-1.55,0,0-14.21-5.3-16.21-12.61C140.31,117.3,138.69,112.39,143.49,113Z"/></clipPath><clipPath id="clip-path-3"><path class="cls-5" d="M91.87,75.11S72.46,62.84,85.53,49c0,0,18.27-13.29,4.5-24.73a6.76,6.76,0,0,0-8.71.37s-5.59,3.48-1.52,7.49c0,0,5,4-1,10.47,0,0-18.16,15.15,10.15,34.84"/></clipPath><clipPath id="clip-path-4"><path class="cls-5" d="M157,65.05s-14.46,7.37-29,3.24S104.24,59.47,93.2,68s-13.86,21.92,6.5,48.17S137.18,130,137.18,130s16-9.56,23.14-25.66a169.43,169.43,0,0,0,9-25.1Z"/></clipPath><clipPath id="clip-path-5"><path class="cls-6" d="M133.35,118.57s11.27,9.24,12.79,15.19c0,0,2.92-2.57,4.48-1.08,0,0,4,2.36-3.84,7.42,0,0-3.63,3-4-2.39,0,0-12.89-8-13.4-15.56C129.38,122.15,128.77,117,133.35,118.57Z"/></clipPath><clipPath id="clip-path-6"><path class="cls-5" d="M61.69,83.69C65.33,85.05,71.18,79,71.18,79c-12,15.57,8.92,17.61,8.92,17.61s15,2.88,15.46-9.66-13-9.07-13-9.07S74.54,80,78,75.25c2.75-3.79-1.4-4.84-1.4-4.84s-2.72.08-10,5-6.36,6.38-6.36,6.38A2.36,2.36,0,0,0,61.69,83.69Z"/></clipPath><clipPath id="clip-path-7"><path class="cls-7" d="M180.05,80s-1.39.29-1.71,1.35c0,0-3.35-1.34-2.78-3.16s3.62-1.28,3.79-1.08A27.11,27.11,0,0,1,180.05,80Z"/></clipPath><clipPath id="clip-path-8"><path class="cls-2" d="M179.28,62.17s4.81-5.23,3.37-6.87c0,0-1.66-1.93-8.21,2.31,0,0-.62,2,1.87,3.78C176.31,61.39,178.53,63.2,179.28,62.17Z"/></clipPath><clipPath id="clip-path-9"><path class="cls-5" d="M178.75,81.38s-.28.44-1.26.47c-4.62.11-11.34-4.17-11.34-4.17a19.13,19.13,0,0,1-7-4.91c-5-5.43-4-10.23-4-10.23,3.93,1.86,4.85.21,4.85.21,6.46-12.94,15.51-9.13,15.51-9.13s14.12,3.65,6.5,18.46c0,0-.27,1.74,2.32,3.66a6.82,6.82,0,0,1-3,4.69,5.23,5.23,0,0,1-4.76-3S175.48,80.14,178.75,81.38Z"/></clipPath><clipPath id="clip-path-10"><path class="cls-2" d="M175,60s4.81-5.24,3.37-6.87c0,0-2.84-1.33-9.4,2.91a8.77,8.77,0,0,0,3.06,3.17S174.29,61.07,175,60Z"/></clipPath><clipPath id="clip-path-11"><circle class="cls-3" cx="177.59" cy="67.95" r="2.62" transform="translate(49.62 208.59) rotate(-68.64)"/></clipPath><clipPath id="clip-path-12"><path class="cls-4" d="M180.86,135.56a5.67,5.67,0,0,1,5.22-3.14,2.48,2.48,0,0,0,1-.14,2.4,2.4,0,0,0,.68-.63,8.53,8.53,0,0,1,5.88-3,2.07,2.07,0,0,0,.78-.14,2.31,2.31,0,0,0,.76-.82,4.25,4.25,0,0,1,3.89-1.64,5.38,5.38,0,0,1,3.44-2.44,1.55,1.55,0,0,1,.77,0,1.85,1.85,0,0,1,.71.54,40.77,40.77,0,0,1,9.08,16.23,9,9,0,0,1,.33,5,9.49,9.49,0,0,1-3.34,4.16,89,89,0,0,1-9.36,6.81,17.15,17.15,0,0,1-3.19,1.7,14.24,14.24,0,0,1-3,.74,14,14,0,0,1-7-.43,11.1,11.1,0,0,1-6.25-6.68,17.52,17.52,0,0,1-.46-9.31c.34-1.71-7.71-2-8.36-3.65-.1-.27,8.32-2,8.29-2.31a.66.66,0,0,1,.41-.69l-.69,1"/></clipPath></defs><g id="Layer_6" data-name="Layer 6"><path class="cls-1" d="M86.92,59.14c2.2,3.2,10.45,1.65,10.45,1.65-18.77,5.82-2.84,19.53-2.84,19.53s10.63,11,18.2,1-5.4-14.88-5.4-14.88-7.77-2.93-2.23-4.83c4.43-1.51,1.64-4.76,1.64-4.76s-2.27-1.51-11-1.66-8.88,1.56-8.88,1.56A2.38,2.38,0,0,0,86.92,59.14Z"/><g class="cls-8"><path class="cls-9" d="M110.68,61.58S95.35,59.27,82.76,63c0,0-3.9-11.79-3.32-12A63.06,63.06,0,0,1,97.9,49.87c8.41.94,9.1.27,11.7,1.68s3.72,2.23,3.36,3.13S110.68,61.58,110.68,61.58Z"/></g><path class="cls-1" d="M143.49,113s12.87,6.83,15.54,12.36c0,0,2.35-3.1,4.18-2,0,0,4.42,1.52-2.29,8,0,0-3,3.65-4.4-1.55,0,0-14.21-5.3-16.21-12.61C140.31,117.3,138.69,112.39,143.49,113Z"/><g class="cls-10"><path class="cls-9" d="M161.32,120.8s-8,12.28-6.62,19.23c0,0-.83,6.74,4.27,3.05S170.21,132,173.47,128s5.42-5.92,1.9-8.31S161.32,120.8,161.32,120.8Z"/></g><path class="cls-5" d="M91.87,75.11S72.46,62.84,85.53,49c0,0,18.27-13.29,4.5-24.73a6.76,6.76,0,0,0-8.71.37s-5.59,3.48-1.52,7.49c0,0,5,4-1,10.47,0,0-18.16,15.15,10.15,34.84"/><g class="cls-11"><ellipse class="cls-12" cx="94.99" cy="33.74" rx="2.6" ry="7.78" transform="translate(46.35 122.03) rotate(-80.7)"/><ellipse class="cls-12" cx="92.24" cy="42.41" rx="2.6" ry="7.78" transform="translate(18.55 112.25) rotate(-68.16)"/></g><path class="cls-5" d="M157,65.05s-14.46,7.37-29,3.24S104.24,59.47,93.2,68s-13.86,21.92,6.5,48.17S137.18,130,137.18,130s16-9.56,23.14-25.66a169.43,169.43,0,0,0,9-25.1Z"/><g class="cls-13"><path class="cls-14" d="M159.77,107.13s-1.82-6.23-8.5,2.68-23.83,34.94-46.07,12.43c0,0-9.49-10.86-15-18.51s-7.37-3.48-7.37-3.48,7.22,53.52,14,54.49,17.71,3.43,23.67.13,11.57-7.49,18.67-13S159.77,107.13,159.77,107.13Z"/><path class="cls-15" d="M171.34,81.92l-1.15,3.32c-15.39-10.92-16.41-21.71-16.41-21.71s2.24-1.37,2.81-1.19a37.15,37.15,0,0,0,9.26,15.74Z"/></g><path class="cls-6" d="M133.35,118.57s11.27,9.24,12.79,15.19c0,0,2.92-2.57,4.48-1.08,0,0,4,2.36-3.84,7.42,0,0-3.63,3-4-2.39,0,0-12.89-8-13.4-15.56C129.38,122.15,128.77,117,133.35,118.57Z"/><g class="cls-16"><path class="cls-9" d="M149.29,129.73S139,140.19,139,147.28c0,0-2.15,6.44,3.59,3.82s13.2-8.59,17.2-11.92,6.48-4.72,3.51-7.76S149.29,129.73,149.29,129.73Z"/></g><ellipse class="cls-12" cx="144.09" cy="88.37" rx="2.96" ry="12.33" transform="translate(-23.93 106.85) rotate(-37.8)"/><ellipse class="cls-12" cx="136.24" cy="92.74" rx="2.96" ry="12.33" transform="translate(-28.25 102.95) rotate(-37.8)"/><path class="cls-5" d="M61.69,83.69C65.33,85.05,71.18,79,71.18,79c-12,15.57,8.92,17.61,8.92,17.61s15,2.88,15.46-9.66-13-9.07-13-9.07S74.54,80,78,75.25c2.75-3.79-1.4-4.84-1.4-4.84s-2.72.08-10,5-6.36,6.38-6.36,6.38A2.36,2.36,0,0,0,61.69,83.69Z"/><g class="cls-17"><path class="cls-9" d="M82.53,72S68.66,79,60.53,89.28c0,0-10-7.4-9.63-7.91A63.39,63.39,0,0,1,65.33,69.8c7.42-4.07,7.6-5,10.54-5.36s4.32-.32,4.55.63S82.53,72,82.53,72Z"/></g><path class="cls-5" d="M153.9,66.36a6.72,6.72,0,0,1-4.23-1.94,2,2,0,0,0,.49,2.46,5.47,5.47,0,0,1-3.53-2.07s-1.5,1.28,1.42,4l3,1.61a38.67,38.67,0,0,0,3.46-2.83A7.24,7.24,0,0,1,153.9,66.36Z"/><path class="cls-7" d="M180.05,80s-1.39.29-1.71,1.35c0,0-3.35-1.34-2.78-3.16s3.62-1.28,3.79-1.08A27.11,27.11,0,0,1,180.05,80Z"/><g class="cls-18"><path class="cls-19" d="M176,77.74s2.59,1.26,1.23,3.46l-2.73-2.45Z"/></g><path class="cls-3" d="M179.47,79.74s-.57,1.34,1.07.57Z"/><path class="cls-2" d="M179.28,62.17s4.81-5.23,3.37-6.87c0,0-1.66-1.93-8.21,2.31,0,0-.62,2,1.87,3.78C176.31,61.39,178.53,63.2,179.28,62.17Z"/><g class="cls-20"><path class="cls-21" d="M184.06,57.34s-2.69-1.39-6.79,4.92c0,0,2.55,3.28,3.32,2.44S184.71,59,184.71,59Z"/></g><path class="cls-5" d="M178.75,81.38s-.28.44-1.26.47c-4.62.11-11.34-4.17-11.34-4.17a19.13,19.13,0,0,1-7-4.91c-5-5.43-4-10.23-4-10.23,3.93,1.86,4.85.21,4.85.21,6.46-12.94,15.51-9.13,15.51-9.13s14.12,3.65,6.5,18.46c0,0-.27,1.74,2.32,3.66a6.82,6.82,0,0,1-3,4.69,5.23,5.23,0,0,1-4.76-3S175.48,80.14,178.75,81.38Z"/><g class="cls-22"><ellipse class="cls-14" cx="177.83" cy="81.3" rx="10.13" ry="9.21" transform="translate(26.56 205.19) rotate(-63.89)"/></g><ellipse class="cls-23" cx="183.22" cy="75.06" rx="0.93" ry="1.59" transform="translate(35.18 206.55) rotate(-63.89)"/><ellipse class="cls-12" cx="170.47" cy="61.93" rx="1.7" ry="4.54" transform="translate(39.83 187.74) rotate(-63.89)"/><ellipse class="cls-12" cx="173.14" cy="57" rx="1.7" ry="4.76" transform="translate(45.75 187.38) rotate(-63.89)"/><path class="cls-2" d="M175,60s4.81-5.24,3.37-6.87c0,0-2.84-1.33-9.4,2.91a8.77,8.77,0,0,0,3.06,3.17S174.29,61.07,175,60Z"/><g class="cls-24"><path class="cls-21" d="M179.82,55.21s-2.69-1.4-6.79,4.91c0,0,2.55,3.28,3.32,2.45s4.12-5.73,4.12-5.73Z"/></g><circle class="cls-3" cx="177.59" cy="67.95" r="2.62" transform="translate(49.62 208.59) rotate(-68.64)"/><g class="cls-25"><circle class="cls-26" cx="177.51" cy="69.95" r="1.95" transform="translate(47.7 209.79) rotate(-68.64)"/><circle class="cls-26" cx="177.51" cy="69.95" r="1.44"/><circle class="cls-3" cx="177.26" cy="68.3" r="0.58"/></g><path class="cls-27" d="M182.11,63.93s-2.13,1.3-5.19-.41"/><path class="cls-28" d="M171.93,71.45s5.32.64,7.33,3.78"/><path class="cls-28" d="M171.07,73.08s5.37,0,7.72,2.91"/><path class="cls-28" d="M170.24,74.36s5.35-.23,7.85,2.54"/><path class="cls-29" d="M161.78,134.25a22,22,0,0,1,2,1.79c1.23,1,2.83,1.56,3.9,2.77.44.49.75,1.06,1.18,1.57a2.21,2.21,0,0,0,1.59.91c.8-.07,1-1.25,1.85-1,.5.14,1,.71,1.45.79a.91.91,0,0,0,.76-.32l2.2-2a.47.47,0,0,0,.15-.19.61.61,0,0,0-.06-.41c-.52-1.42-2.1-2.46-3.45-3.42a21,21,0,0,1-3.3-2.88c-.67-.74-1.25-1.54-1.94-2.26a11.33,11.33,0,0,1-2.55-3c-.18-.42-.24-.85-.41-1.28-.33-.84-2.91-3.27-2.51-1.45a5.82,5.82,0,0,0,1.16,2.28c-.72,0-.94.92-.39,1.6a1.38,1.38,0,0,0-1.16.5c-.28.5-.07,1.41-.68,1.53a2,2,0,0,1-.49,0,1.25,1.25,0,0,0-1.41,1.3c-.8.1-1.57-1.46-2.43-1.51a.51.51,0,0,0-.55.51,1.78,1.78,0,0,0,.29,1,6.37,6.37,0,0,0,3,2.43A9.6,9.6,0,0,1,161.78,134.25Zm9.52,2.16c-.44-.38-.82-.84-1.26-1.22a4.15,4.15,0,0,1-1.11-1.1c-.44-.91.89.14,1.07.28.66.5,1.31,1,1.94,1.55a4.87,4.87,0,0,1,.86.9c0,.08.09.17,0,.22a.15.15,0,0,1-.1,0A2.23,2.23,0,0,1,171.3,136.41Zm-6.78-1.66a3.89,3.89,0,0,1-.5-.41c-.24-.26-.32-.7,0-.7s.62.38.83.55a28.19,28.19,0,0,1,2.56,2.32c.1.11.21.25.18.35s-.06.08-.12.1a1.23,1.23,0,0,1-.86-.29C165.87,136.12,165.28,135.32,164.52,134.75Z"/><ellipse class="cls-29" cx="161.68" cy="123.47" rx="0.5" ry="0.56" transform="translate(-41.21 138.36) rotate(-41.56)"/><ellipse class="cls-30" cx="167.57" cy="130.12" rx="0.46" ry="1.04" transform="translate(-44.58 128.14) rotate(-37.29)"/><path class="cls-29" d="M142.59,139a1.42,1.42,0,0,0-1,.29c-.24.26-.13.81.22.8a4.73,4.73,0,0,1-2.62.42,55.75,55.75,0,0,0-8.27.41.49.49,0,0,0-.38.17.42.42,0,0,0,.06.44A3.19,3.19,0,0,0,133,142.7a142.11,142.11,0,0,0,23.42,1.06,27.17,27.17,0,0,0,7.58-1c.64-.21,1.4-.75,1.14-1.37a1.13,1.13,0,0,0-.42-.45,8.12,8.12,0,0,0-3.83-.88,27.85,27.85,0,0,1-4.53-.86,14.7,14.7,0,0,0-3.69-.25Q147.65,138.91,142.59,139Z"/><ellipse class="cls-29" cx="135.82" cy="141.51" rx="8.99" ry="1.03"/><ellipse class="cls-30" cx="141.19" cy="140.78" rx="2.4" ry="0.28"/><path class="cls-31" d="M152.37,139.33l-8.26.29a10,10,0,0,0,5.23.73l2.92-.14a2.06,2.06,0,0,0-.73-.26l2.52-.46a.49.49,0,0,0-.45-.11"/><path class="cls-32" d="M177.43,137.83s-1.74-10.62.17-17.85l4.09-1.56.64,20.72A24.23,24.23,0,0,0,177.43,137.83Z"/><path class="cls-32" d="M177.08,137.9s-.67-2.25-.77-9.33,1-8.72,1-8.72l-3.25.05s-1.32,1.8-1.22,8.91,1.44,9.2,1.44,9.2Z"/><path class="cls-33" d="M181.65,117.79a.49.49,0,0,0-.32.14c-3,1.32-4.3,1.23-4.3,1.23l-3,0h0c-1,0-1.74,4.35-1.67,9.69s.94,9.65,1.94,9.64l2.61,0a.35.35,0,0,0,.17,0,.53.53,0,0,0,.16,0h.09s1.34-.13,4.33,1.1a.51.51,0,0,0,.33.14l21.11-.29c1.13,0,2-4.95,1.89-11s-1.07-11-2.2-10.94h0l-21.11.29Z"/><g class="cls-34"><path class="cls-29" d="M181.65,117.79a.49.49,0,0,0-.32.14c-3,1.32-4.3,1.23-4.3,1.23l-3,0h0c-1,0-1.74,4.35-1.67,9.69s.94,9.65,1.94,9.64l2.61,0a.35.35,0,0,0,.17,0,.53.53,0,0,0,.16,0h.09s1.34-.13,4.33,1.1a.51.51,0,0,0,.33.14l21.11-.29c1.13,0,2-4.95,1.89-11s-1.07-11-2.2-10.94h0l-21.11.29Z"/></g><circle class="cls-3" cx="179.25" cy="120.07" r="0.53"/><circle class="cls-3" cx="180.42" cy="119.24" r="0.4"/><ellipse class="cls-35" cx="190.22" cy="126.95" rx="0.39" ry="0.94" transform="translate(-1.76 2.68) rotate(-0.8)"/><ellipse class="cls-30" cx="183.3" cy="137.19" rx="0.39" ry="0.94" transform="translate(-9.41 260.83) rotate(-69.5)"/><ellipse class="cls-30" cx="201.92" cy="137.61" rx="0.94" ry="0.39" transform="translate(32.71 313.89) rotate(-80.45)"/><ellipse class="cls-36" cx="185.59" cy="136.47" rx="0.94" ry="0.39" transform="matrix(0.25, -0.97, 0.97, 0.25, 6.77, 281.69)"/><ellipse class="cls-36" cx="185.44" cy="126.3" rx="0.94" ry="0.39" transform="translate(16.5 273.94) rotate(-75.41)"/><rect class="cls-37" x="185.83" y="119.81" width="15.94" height="17.56" rx="1.82" transform="translate(67.94 324.18) rotate(-90.8)"/><rect class="cls-38" x="185.48" y="120" width="15.94" height="17.56" rx="1.82" transform="translate(67.4 324.01) rotate(-90.8)"/><path class="cls-39" d="M181.65,117.79a.49.49,0,0,0-.32.14c-3,1.32-4.3,1.23-4.3,1.23l-3,0h0c-1,0-1.74,4.35-1.67,9.69s.94,9.65,1.94,9.64l2.61,0a.35.35,0,0,0,.17,0,.53.53,0,0,0,.16,0h.09s1.34-.13,4.33,1.1a.51.51,0,0,0,.33.14l21.11-.29c1.13,0,2-4.95,1.89-11s-1.07-11-2.2-10.94h0l-21.11.29Z"/><path class="cls-40" d="M191.57,133.5l.15,1.64-1.37,0-.1-1.73Zm4.49-.07a2.91,2.91,0,0,1,.82.11,1.63,1.63,0,0,1,.59.34,1.55,1.55,0,0,1,.36.54,2,2,0,0,1,.13.71v.36l-1.37.43v-.17a.74.74,0,0,0-.15-.51.6.6,0,0,0-.49-.17l-3.69.05-.16-1.63Z"/><path class="cls-40" d="M195.93,130.38h0a1.07,1.07,0,0,1,.4.52,2,2,0,0,1,.13.67,1.38,1.38,0,0,1-.11.57,1.34,1.34,0,0,1-.3.48,1.41,1.41,0,0,1-.49.33,1.77,1.77,0,0,1-.63.13,1.48,1.48,0,0,1-.57-.11,1.52,1.52,0,0,1-.46-.32,1.64,1.64,0,0,1-.31-.49,2,2,0,0,1-.12-.61,1.49,1.49,0,0,1,.1-.59,1.89,1.89,0,0,1,.22-.4h-.22a.45.45,0,0,0-.46.23,1.44,1.44,0,0,0-.11.59,3,3,0,0,0,.08.62c0,.19.1.38.17.58l-1.2-.28a3.7,3.7,0,0,1-.16-.75,7,7,0,0,1,0-.8,2.89,2.89,0,0,1,.07-.72,1.81,1.81,0,0,1,.28-.63,1.36,1.36,0,0,1,.49-.43,1.61,1.61,0,0,1,.76-.16l2.85,0,.15,1.51Zm-1.38,1a.82.82,0,0,0,.18.41.33.33,0,0,0,.31.14.33.33,0,0,0,.26-.21.83.83,0,0,0,0-.48.82.82,0,0,0-.2-.44.35.35,0,0,0-.31-.11.38.38,0,0,0-.24.2A.69.69,0,0,0,194.55,131.36Z"/><path class="cls-40" d="M193.66,123.57a.3.3,0,0,0-.23.11.43.43,0,0,0-.09.28.45.45,0,0,0,.12.29.36.36,0,0,0,.24.1l2.57-.08.16,1.63h-2.72a.25.25,0,0,0-.24.11.44.44,0,0,0-.09.29.46.46,0,0,0,.09.27.28.28,0,0,0,.26.11l2.72-.11-.12,1.58-4.28.15-.16-1.53h.7v0a2,2,0,0,1-.52-.54,1.61,1.61,0,0,1-.09-1.32,1.24,1.24,0,0,1,.33-.44A1.54,1.54,0,0,1,192,124a1.12,1.12,0,0,1-.13-.55,1.31,1.31,0,0,1,.11-.6,1.16,1.16,0,0,1,.32-.44,1.57,1.57,0,0,1,.49-.28,2.21,2.21,0,0,1,.6-.11l2.87-.08.16,1.63Z"/><line class="cls-41" x1="186.14" y1="135.55" x2="185.95" y2="122.13"/><path class="cls-29" d="M181.11,135.06s1.51.81-4.55.67-7.35,2.9-9.62,3-10.26,1-7,1.61-3.43,1-4,1.74,8.2,2.94,17.47,2,3-2.72.35-3.56,2.84-.46,2.58-.87-2.75-.6-2.75-.6-1-1.4,6.59-1.39C180.17,137.69,182.4,137.56,181.11,135.06Z"/><path class="cls-42" d="M172.21,124.32l.18-.29a3.59,3.59,0,0,1,.32-.36c.28-2.7.8-4.24,1.23-4.25.66,0,1.64,3.57,1.72,9.42,0,1.39,0,2.65-.09,3.77a1.88,1.88,0,0,1,.44-.24c.08-1.22.1-2.45.08-3.53-.05-4-.67-9.88-2.15-9.86C173,119,172.45,121.49,172.21,124.32Z"/><path class="cls-43" d="M178.58,137.82a29.73,29.73,0,0,0-.25-17.7"/><path class="cls-39" d="M173,136.11a38.12,38.12,0,0,1-.7-7.22c-.08-5.34.67-9.67,1.66-9.69s1.86,4.3,1.94,9.64-.67,9.68-1.67,9.69"/><path class="cls-29" d="M153.25,139.15c-.14.28-.13.66-.4.83s-.77-.14-1.17-.22a1.62,1.62,0,0,0-1.41.61,1.12,1.12,0,0,1-.62.39,1,1,0,0,1-.35,0,13.18,13.18,0,0,1-1.38-.47,2.28,2.28,0,0,1-.76.52.85.85,0,0,0-.49.72c.05.41.54.58.94.64a17.76,17.76,0,0,0,4.72.1,5.52,5.52,0,0,0,2.16-.59,1.3,1.3,0,0,0,.53-2.06C154.68,139,153.76,138.09,153.25,139.15Z"/></g></svg>