<svg xmlns="http://www.w3.org/2000/svg" xmlns:xlink="http://www.w3.org/1999/xlink" viewBox="0 0 260 168"><defs><style>.cls-1{fill:#ffbd29;}.cls-2{fill:#eaa61f;}.cls-3{fill:#5b091b;}.cls-21,.cls-4{fill:none;}.cls-5{clip-path:url(#clip-path);}.cls-6{fill:#ff7e27;}.cls-7{clip-path:url(#clip-path-2);}.cls-8{fill:#f7cc81;}.cls-9{clip-path:url(#clip-path-3);}.cls-10{clip-path:url(#clip-path-4);}.cls-11{fill:#ffe7b6;}.cls-12{fill:#3acccc;}.cls-13{clip-path:url(#clip-path-5);}.cls-14{fill:#ffab24;}.cls-15{fill:#7f4a03;}.cls-16{clip-path:url(#clip-path-6);}.cls-17{fill:#fff;}.cls-18{fill:#594025;}.cls-19{clip-path:url(#clip-path-7);}.cls-20{fill:#a82648;}.cls-21{stroke:#a57749;stroke-linecap:round;stroke-linejoin:round;stroke-width:0.68px;}.cls-22{fill:#ff8098;}.cls-23{fill:#7e7c7b;stroke:#58595b;stroke-miterlimit:10;stroke-width:0.24px;}.cls-24{clip-path:url(#clip-path-8);}.cls-25{fill:#706f6e;}.cls-26{fill:#fff3ce;}.cls-27{fill:#adaba9;}.cls-28{clip-path:url(#clip-path-9);}</style><clipPath id="clip-path"><path class="cls-1" d="M132.93,142.46s39.55-.69,33.33-29.17c0,0-4.93-28.9,11.69-30.44,0,0,6.36-2.13,8.49,1.65,0,0,4.08,7.77-4.39,9.82,0,0-9.23,2.49-6.46,15.69,0,0,11.9,34.13-40.68,37.69"/></clipPath><clipPath id="clip-path-2"><path class="cls-2" d="M119.33,124.49s-15.22,2.91-6.48,21.54c0,0-8.47,2.27-4,8.79,0,0,5.09,4.22,13.8-2.66l3.71-15.34Z"/></clipPath><clipPath id="clip-path-3"><path class="cls-2" d="M146.29,124.49s15.22,2.91,6.48,21.54c0,0,8.47,2.27,4,8.79,0,0-5.09,4.22-13.8-2.66l-3.71-15.34Z"/></clipPath><clipPath id="clip-path-4"><path class="cls-1" d="M143.07,92.9l-10-.42-10,.42s-9.59,48.44-3.87,55.51c4.7,5.83,9.34,6.28,13,6.28s9.27.91,14.84-6.28S143.07,92.9,143.07,92.9Z"/></clipPath><clipPath id="clip-path-5"><path class="cls-1" d="M120.47,106.41s-6.73,43.37-10.47,42.91-3.13,5.23-1.23,5.46c0,0,1.83,2.08,5.61,1.3,0,0,2.79,1.66,5.18,0,0,0,3-4.88-.63-7.7,0,0,4.72-29.21,6-39.83"/></clipPath><clipPath id="clip-path-6"><path class="cls-1" d="M162.64,60.68c-5.53-1-15.21-9.32-19.37-13.12-.53-.52-1.06-1-1.62-1.5l-.38-.36,0,0A29.26,29.26,0,0,0,93.71,63.21h0v.1a29.7,29.7,0,0,0-.37,3.13c-.76,5.82-2.69,17.85-6.18,22a3.41,3.41,0,0,0,3.75.89s2,20,39.77,7.09l0-.07c.68-.2,1.36-.41,2-.66s1.35-.53,2-.83l0,.08c37.13-14.7,25.67-31.18,25.67-31.18A3.41,3.41,0,0,0,162.64,60.68Z"/></clipPath><clipPath id="clip-path-7"><path class="cls-3" d="M119.94,90.47c-.11,0,7.3,4.71,12.73,2.42s6.67-10.79,6.67-10.79-4.43,6.05-10.15,4C129.19,86.14,125.72,91.72,119.94,90.47Z"/></clipPath><clipPath id="clip-path-8"><path class="cls-4" d="M152.51,98.83c-.1,1-.47,4.72,1.5,5.54s1.64-.76,3.23-1.89,2.45-2.46,9.95-6.31c5-2.86,9.45-9.4,8.06-16.71-.31-3.83-1.47-11.24-11.63-8.55-7.4,2.62-9.92,10.67-9.5,16.18C153.83,91.33,152.83,95.5,152.51,98.83Z"/></clipPath><clipPath id="clip-path-9"><path class="cls-1" d="M157.13,113.34c1.34-6.56,3.18-11.39,4.45-11.24,3.75.46,3.13-5.22,1.23-5.46,0,0-1.83-2.07-5.61-1.29,0,0-2.79-1.66-5.18,0,0,0-3.05,4.89.64,7.7,0,0-6.15,14.16-3.08,18.79S156.45,116.66,157.13,113.34Z"/></clipPath></defs><g id="Layer_1" data-name="Layer 1"><path class="cls-1" d="M132.93,142.46s39.55-.69,33.33-29.17c0,0-4.93-28.9,11.69-30.44,0,0,6.36-2.13,8.49,1.65,0,0,4.08,7.77-4.39,9.82,0,0-9.23,2.49-6.46,15.69,0,0,11.9,34.13-40.68,37.69"/><g class="cls-5"><ellipse class="cls-6" cx="168.01" cy="88.58" rx="4.28" ry="9" transform="translate(6.95 189.24) rotate(-59.8)"/><ellipse class="cls-6" cx="163.71" cy="100" rx="4.28" ry="9" transform="translate(47.03 252.28) rotate(-83.96)"/></g><path class="cls-2" d="M119.33,124.49s-15.22,2.91-6.48,21.54c0,0-8.47,2.27-4,8.79,0,0,5.09,4.22,13.8-2.66l3.71-15.34Z"/><g class="cls-7"><path class="cls-8" d="M110.42,144.31s12.37,9,22.38-1.17c0,0,1.76,23.78,0,24.24S97,167.15,95.27,164.7s-2-8.16,0-10.6,4.66-6.65,6.3-7.58,1.74-1.4,1.74-1.4"/></g><path class="cls-2" d="M146.29,124.49s15.22,2.91,6.48,21.54c0,0,8.47,2.27,4,8.79,0,0-5.09,4.22-13.8-2.66l-3.71-15.34Z"/><g class="cls-9"><path class="cls-8" d="M139.09,148.91c.14-.28,9.35.61,17.37-5s-.47-.15-.47-.15,27.38,11.53,17.59,15.61,8.2,8.27-20.49,5.36-33.27-2.8-32.09-4.89a13.06,13.06,0,0,0,1.42-3.16Z"/></g><path class="cls-1" d="M143.07,92.9l-10-.42-10,.42s-9.59,48.44-3.87,55.51c4.7,5.83,9.34,6.28,13,6.28s9.27.91,14.84-6.28S143.07,92.9,143.07,92.9Z"/><g class="cls-10"><ellipse class="cls-11" cx="132.65" cy="130.91" rx="10.11" ry="20.83"/></g><path class="cls-12" d="M121,93.79s10.91,12.29,24.24,0l-21.92-3.94"/><path class="cls-1" d="M122.5,95.41a7.65,7.65,0,0,1-3.23,6.17,4.79,4.79,0,0,0,1.69.06,17.64,17.64,0,0,1-2.15,3,1.79,1.79,0,0,0,1,0,5.7,5.7,0,0,1-2,1.79l3.61.14a1.87,1.87,0,0,0,.91-.12,1.7,1.7,0,0,0,.64-1.77,35.08,35.08,0,0,0-.7-4.67c-.07-.29.23-.72.29-1s-.63-.72-.42-1.06a1.15,1.15,0,0,0,.17-1.15"/><path class="cls-1" d="M143.52,95.41a7.69,7.69,0,0,0,3.24,6.17,4.8,4.8,0,0,1-1.69.06,16.62,16.62,0,0,0,2.15,3,1.79,1.79,0,0,1-1,0,5.7,5.7,0,0,0,2,1.79l-3.61.14a1.87,1.87,0,0,1-.91-.12,1.7,1.7,0,0,1-.64-1.77,33.52,33.52,0,0,1,.7-4.67c.07-.29-.23-.72-.29-1s.63-.72.42-1.06a1.15,1.15,0,0,1-.17-1.15"/><path class="cls-1" d="M120.47,106.41s-6.73,43.37-10.47,42.91-3.13,5.23-1.23,5.46c0,0,1.83,2.08,5.61,1.3,0,0,2.79,1.66,5.18,0,0,0,3-4.88-.63-7.7,0,0,4.72-29.21,6-39.83"/><g class="cls-13"><path class="cls-11" d="M109.13,147.2s4.75,7.1,12.32-.52c0,0,4.44,24.76,2.81,24.68s-13.72.79-18.36-1.54-6.84-6.24-5.23-8-1.33-12.25-1.33-12.25Z"/></g><path class="cls-14" d="M101.22,49.28s-27.66-10.53-7.52,14c0,0,4.27.47,7-5C100.73,58.28,104.92,53.33,101.22,49.28Z"/><path class="cls-15" d="M99,51.08s-17.14-6.53-4.66,8.69c0,0,2.65.28,4.36-3.12C98.7,56.65,101.29,53.58,99,51.08Z"/><path class="cls-14" d="M125.35,40.4s14.23-26,14.83,5.8c0,0-3,3.13-8.63.73C131.55,46.93,125.16,45.87,125.35,40.4Z"/><path class="cls-15" d="M128.91,40.06s8.81-16.07,9.18,3.6c0,0-1.83,1.93-5.34.45C132.75,44.11,128.79,43.46,128.91,40.06Z"/><path class="cls-1" d="M162.64,60.68c-5.53-1-15.21-9.32-19.37-13.12-.53-.52-1.06-1-1.62-1.5l-.38-.36,0,0A29.26,29.26,0,0,0,93.71,63.21h0v.1a29.7,29.7,0,0,0-.37,3.13c-.76,5.82-2.69,17.85-6.18,22a3.41,3.41,0,0,0,3.75.89s2,20,39.77,7.09l0-.07c.68-.2,1.36-.41,2-.66s1.35-.53,2-.83l0,.08c37.13-14.7,25.67-31.18,25.67-31.18A3.41,3.41,0,0,0,162.64,60.68Z"/><g class="cls-16"><circle class="cls-11" cx="132.03" cy="93.94" r="20.11" transform="translate(0.83 189.04) rotate(-71.37)"/><ellipse class="cls-6" cx="92.27" cy="76.61" rx="8.36" ry="2.73" transform="translate(-20.79 36.59) rotate(-20.21)"/><ellipse class="cls-6" cx="93.55" cy="66.74" rx="8.36" ry="2.73" transform="translate(-17.3 36.43) rotate(-20.21)"/><ellipse class="cls-6" cx="150.51" cy="55.17" rx="8.36" ry="2.73" transform="matrix(0.94, -0.35, 0.35, 0.94, -9.79, 55.39)"/><ellipse class="cls-6" cx="143.13" cy="48.48" rx="8.36" ry="2.73" transform="translate(-7.94 52.43) rotate(-20.21)"/><ellipse class="cls-6" cx="108.76" cy="46.63" rx="2.64" ry="9.24" transform="translate(-9.41 40.44) rotate(-20.21)"/><ellipse class="cls-6" cx="118.53" cy="43.04" rx="2.64" ry="9.24" transform="translate(-7.57 43.6) rotate(-20.21)"/></g><circle class="cls-17" cx="108.24" cy="75.35" r="7.06"/><circle class="cls-18" cx="110.38" cy="75.54" r="4.88"/><circle class="cls-18" cx="110.38" cy="75.54" r="3.21"/><circle class="cls-17" cx="107.4" cy="73.21" r="1.61"/><circle class="cls-17" cx="137.61" cy="64.53" r="7.06"/><circle class="cls-18" cx="139.76" cy="64.72" r="4.88"/><circle class="cls-18" cx="139.76" cy="64.72" r="3.21"/><circle class="cls-17" cx="136.78" cy="62.39" r="1.61"/><path class="cls-1" d="M115.25,80.29s-4-1.75-14.15,3.95c0,0,5,.56,5.36.42s8.55-3,8.67-3.19A4.94,4.94,0,0,0,115.25,80.29Z"/><path class="cls-1" d="M136.65,72.41s2-4,13.34-6.17c0,0-3.43,3.66-3.81,3.8s-8.48,3.23-8.66,3.19A5,5,0,0,1,136.65,72.41Z"/><path class="cls-15" d="M100.91,65.89A3.5,3.5,0,0,1,102,63.7a4.92,4.92,0,0,1,2.12-1.25,5.14,5.14,0,0,1,3.58.26,4.52,4.52,0,0,1,1,.69,19.85,19.85,0,0,1-2.14.62c-.66.15-1.26.33-1.85.48s-1.17.36-1.78.58S101.68,65.56,100.91,65.89Z"/><path class="cls-15" d="M137.15,52.55c-.81.25-1.45.46-2.06.7s-1.17.46-1.74.71-1.12.52-1.71.83a21.43,21.43,0,0,1-2,.91,5.14,5.14,0,0,1,.32-1.18,6,6,0,0,1,.64-1A5.14,5.14,0,0,1,132.48,52a4.94,4.94,0,0,1,2.43-.43A3.49,3.49,0,0,1,137.15,52.55Z"/><path class="cls-3" d="M119.94,90.47c-.11,0,7.3,4.71,12.73,2.42s6.67-10.79,6.67-10.79-4.43,6.05-10.15,4C129.19,86.14,125.72,91.72,119.94,90.47Z"/><g class="cls-19"><ellipse class="cls-20" cx="132.1" cy="92.85" rx="6.54" ry="3.81" transform="translate(-22.81 47.32) rotate(-18.72)"/><ellipse class="cls-17" cx="126.63" cy="89.11" rx="0.71" ry="1.16" transform="translate(-28.2 87.25) rotate(-34.45)"/><ellipse class="cls-17" cx="133.36" cy="86.57" rx="0.71" ry="1.16" transform="translate(-18.84 40.6) rotate(-16.18)"/></g><path class="cls-21" d="M126.54,79.07l2.5,6.84s-2.69,6.45-10.24,4.24"/><path class="cls-21" d="M126.54,79.07l2.5,6.84s6.43,2.08,10.77-4.48"/><ellipse class="cls-22" cx="126.48" cy="78.89" rx="4.92" ry="2.57" transform="translate(-19.47 48.55) rotate(-20.21)"/><path class="cls-23" d="M154.12,87.09c-.29,4.24-1.29,8.41-1.61,11.74-.1,1-.47,4.72,1.5,5.54s1.64-.76,3.23-1.89,2.45-2.46,9.95-6.31a16.63,16.63,0,0,0,8.29-13.41A16.05,16.05,0,0,1,174,81.18a6.41,6.41,0,0,0-1.34-1.5,5.28,5.28,0,0,0-2.66-.75,4.28,4.28,0,0,1-2.52-.64,5.52,5.52,0,0,1-.74-1.05,2,2,0,0,0-1.33-.83,5.49,5.49,0,0,1-2.4-.75,11.8,11.8,0,0,1-1.39-1.26A19.36,19.36,0,0,0,160,72.86C155.4,76.41,153.78,82.59,154.12,87.09Z"/><g class="cls-24"><path class="cls-25" d="M167.48,103.24a42.09,42.09,0,0,0,4.19-3.71,24.89,24.89,0,0,0,5.69-10.25c.41-1.42,1-3.17,0-4.49S175,82.47,174,81.18a6.41,6.41,0,0,0-1.34-1.5,3.61,3.61,0,0,0-.67-.36,22.94,22.94,0,0,1-.76,6.58c-1,2.92-3.42,5.11-5.9,6.95s-5.14,3.52-7.06,5.93c-1,1.26-1.77,2.69-2.77,3.94s-4.19,3.17-1.22,4.34a12,12,0,0,0,4.23.43,16,16,0,0,1,2.55.42c.57-.35,1.13-.71,1.69-1.09C164.36,105.7,165.93,104.48,167.48,103.24Z"/></g><path class="cls-26" d="M157.16,79.49c.42,1.83.29,3.33,2.42,5.45s4.59,3.7,8.25,3.29,6.47-2.89,6.86-5.8c0-.13,0-.27,0-.41-.26-.27-.52-.55-.76-.84a6.41,6.41,0,0,0-1.34-1.5,5.28,5.28,0,0,0-2.66-.75,4.28,4.28,0,0,1-2.52-.64,5.52,5.52,0,0,1-.74-1.05,2,2,0,0,0-1.33-.83,5.49,5.49,0,0,1-2.4-.75,11.8,11.8,0,0,1-1.39-1.26c-.33-.3-.75-.82-1.22-1.25-.12.07-.24.13-.36.21C158.24,74.72,156.79,77.85,157.16,79.49Z"/><path class="cls-25" d="M161.49,91.18c-1.63-.74-4.7-2.47-5.8-5.41a.11.11,0,0,1,.18-.11A60.42,60.42,0,0,0,161.59,91,.1.1,0,0,1,161.49,91.18Z"/><path class="cls-25" d="M159.09,96.36a7.94,7.94,0,0,1-4.71-4.62.08.08,0,0,1,.14-.08,44.29,44.29,0,0,0,4.65,4.56A.08.08,0,0,1,159.09,96.36Z"/><path class="cls-25" d="M155.56,99.35l-.2-.23a.41.41,0,0,0-.2-.12.44.44,0,0,0-.23-.06.46.46,0,0,0-.23.06.39.39,0,0,0-.19.12l-.09.12a.55.55,0,0,0-.09.3l0,.16a.61.61,0,0,0,.15.27l.2.23a.39.39,0,0,0,.19.12.37.37,0,0,0,.23.05.36.36,0,0,0,.23-.05.41.41,0,0,0,.2-.12l.09-.12a.58.58,0,0,0,.08-.31l0-.15a.65.65,0,0,0-.15-.27Z"/><path class="cls-27" d="M158.57,92.13l-.31-.35a.24.24,0,0,0-.13-.09.34.34,0,0,0-.32,0,.24.24,0,0,0-.13.09l-.07.08a.37.37,0,0,0-.06.21l0,.11a.34.34,0,0,0,.11.18l.3.36a.25.25,0,0,0,.14.08.29.29,0,0,0,.16,0,.32.32,0,0,0,.16,0,.26.26,0,0,0,.13-.08l.07-.09a.46.46,0,0,0,.05-.21v-.11a.42.42,0,0,0-.11-.18Z"/><path class="cls-25" d="M161.75,87.34l-.5-.57a.53.53,0,0,0-.2-.13.43.43,0,0,0-.23,0,.46.46,0,0,0-.23,0,.5.5,0,0,0-.19.13l-.09.12a.53.53,0,0,0-.09.3l0,.16a.54.54,0,0,0,.16.26l.5.58a.5.5,0,0,0,.19.13.59.59,0,0,0,.23.05.56.56,0,0,0,.23-.05.53.53,0,0,0,.2-.13l.09-.12a.61.61,0,0,0,.08-.3l0-.16a.72.72,0,0,0-.15-.27Z"/><path class="cls-25" d="M156.45,97.5l.13-.31a.49.49,0,0,0,0-.24.48.48,0,0,0-.07-.23.41.41,0,0,0-.16-.16.36.36,0,0,0-.2-.11l-.16,0a.52.52,0,0,0-.3.08l-.12.09a.63.63,0,0,0-.16.27l-.13.31a.49.49,0,0,0,0,.24.62.62,0,0,0,.07.23.49.49,0,0,0,.16.16.4.4,0,0,0,.2.11l.16,0a.61.61,0,0,0,.3-.08l.13-.09a.72.72,0,0,0,.15-.27Z"/><path class="cls-27" d="M158.07,84.93l-.15-.41a.41.41,0,0,0-.1-.21.5.5,0,0,0-.17-.15.44.44,0,0,0-.22-.07.39.39,0,0,0-.24,0l-.15.06a.53.53,0,0,0-.21.21l-.06.15a.58.58,0,0,0,0,.32l.14.4a.53.53,0,0,0,.11.21.41.41,0,0,0,.17.15.36.36,0,0,0,.22.07.39.39,0,0,0,.24,0l.14-.06a.63.63,0,0,0,.22-.21l.06-.15a.55.55,0,0,0,0-.31Z"/><path class="cls-1" d="M157.13,113.34c1.34-6.56,3.18-11.39,4.45-11.24,3.75.46,3.13-5.22,1.23-5.46,0,0-1.83-2.07-5.61-1.29,0,0-2.79-1.66-5.18,0,0,0-3.05,4.89.64,7.7,0,0-6.15,14.16-3.08,18.79S156.45,116.66,157.13,113.34Z"/><g class="cls-28"><path class="cls-11" d="M151.57,103.72s3.86-3.49,11-.07l7.7-11.56a19.44,19.44,0,0,0-8.78-2.66c-4.83-.14-6.18-1.19-9.56.43s-5.64,2.15-5.56,3.73S151.57,103.72,151.57,103.72Z"/></g><path class="cls-1" d="M145,106.52l10.54,14s-2.52,3.62-4.83,2.41-10.32-12.73-10.32-12.73S137.9,101.36,145,106.52Z"/></g></svg>