<svg id="_4" data-name="4" xmlns="http://www.w3.org/2000/svg" xmlns:xlink="http://www.w3.org/1999/xlink" viewBox="0 0 260 168"><defs><style>.cls-1{fill:#ffbd29;}.cls-2{fill:#ffab24;}.cls-3{fill:#fff;}.cls-4{fill:#f9d89d;}.cls-5{fill:#ffa92c;}.cls-6{clip-path:url(#clip-path);}.cls-7{fill:#ff7e27;}.cls-8{clip-path:url(#clip-path-2);}.cls-9{fill:#ffe7b6;}.cls-10{fill:#3acccc;}.cls-11{clip-path:url(#clip-path-3);}.cls-12{fill:#7f4a03;}.cls-13{clip-path:url(#clip-path-4);}.cls-14{fill:#ff8098;}.cls-15{clip-path:url(#clip-path-5);}.cls-16{clip-path:url(#clip-path-6);}.cls-17{fill:#594025;}.cls-18,.cls-19{fill:none;stroke-linecap:round;}.cls-18{stroke:#7f4a03;stroke-miterlimit:10;stroke-width:0.6px;}.cls-19{stroke:#ffc866;stroke-linejoin:round;stroke-width:0.14px;}</style><clipPath id="clip-path"><path class="cls-1" d="M30.92,104.86c13.1,5.25,14.19-4.37,14.19-4.37.86-3.5,3.36-2.68,3.36-2.68,2.28.49,2.22-2.21,2.22-2.21a2.75,2.75,0,0,0-1.83-3c-7-2.14-7.44,7.09-7.44,7.09-1.81,7.59-10.37,3.72-10.37,3.72a.6.6,0,0,0-.68.53C30.24,104.5,30.92,104.86,30.92,104.86Z"/></clipPath><clipPath id="clip-path-2"><path class="cls-1" d="M19.72,104.27s.53-.13,1.49-.41c.5-.3,2.8-1.68,2.66-1,.63-.31,1.23-.54,1.29-.31,3.11-1.07,6.46-1.5,8.09,1.47s.86,7.26-5.59,7.92-9.31-.06-10.87-2.69C14.68,105.72,14.34,104.59,19.72,104.27Z"/></clipPath><clipPath id="clip-path-3"><path class="cls-2" d="M12.51,94.34s-1.52-4-.39-4.59l.05,0c.19-.07,1.52-.39,4,3a.27.27,0,0,1,.05.23,2.26,2.26,0,0,1-1.86,1.57S12.7,95.09,12.51,94.34Z"/></clipPath><clipPath id="clip-path-4"><path class="cls-1" d="M9.16,105.77c2.45,1,6.86.25,7.25.17h.06a11.64,11.64,0,0,0,5-1.21,8,8,0,0,0,4.4-4.46.29.29,0,0,0-.28-.37c-2.06,0-2.34-.81-2.38-1v0c-.76-8.67-6.67-8.53-6.67-8.53S7.82,89.3,8.77,99.23a.25.25,0,0,1,0,.12c-.08.22-.47,1-2,1.45a.28.28,0,0,0-.17.13c-.11.2-.22.7.44,1.72a18.72,18.72,0,0,0,1.17,1.86s.29.39,1.54.36c0,0-1.3,0-1.13.34A1.8,1.8,0,0,0,9.16,105.77Z"/></clipPath><clipPath id="clip-path-5"><path class="cls-2" d="M15.36,94.08s-1.47-3.82-.45-4.55a.24.24,0,0,1,.18,0c.42,0,2.09.39,4.37,3.49a.3.3,0,0,1-.06.4,6.59,6.59,0,0,1-2.2.92S15.55,94.83,15.36,94.08Z"/></clipPath><clipPath id="clip-path-6"><circle class="cls-3" cx="12.18" cy="97.95" r="1.58"/></clipPath></defs><path class="cls-4" d="M27.1,112.73s-1.55-.47-1.79.2c0,0-.74,1-.09,1.16A1,1,0,0,0,26,115c.87.24,2,1.31,3-.8C29,114.23,29.44,112.8,27.1,112.73Z"/><path class="cls-5" d="M31,107.6s-2.23,4.45-3.87,5.13c0,0,0,1.69,1.38,1.68s3.35-3.69,4-5.38S31.82,106.54,31,107.6Z"/><path class="cls-1" d="M30.92,104.86c13.1,5.25,14.19-4.37,14.19-4.37.86-3.5,3.36-2.68,3.36-2.68,2.28.49,2.22-2.21,2.22-2.21a2.75,2.75,0,0,0-1.83-3c-7-2.14-7.44,7.09-7.44,7.09-1.81,7.59-10.37,3.72-10.37,3.72a.6.6,0,0,0-.68.53C30.24,104.5,30.92,104.86,30.92,104.86Z"/><g class="cls-6"><ellipse class="cls-7" cx="44.49" cy="92.99" rx="1.06" ry="3.18" transform="translate(-51.23 54.73) rotate(-42.64)"/><ellipse class="cls-7" cx="42.14" cy="95.88" rx="1.06" ry="3.18" transform="translate(-60.64 75.75) rotate(-55.19)"/></g><path class="cls-4" d="M13.17,111.73s-1.47-.69-1.81,0c0,0-.87.84-.25,1.14a1,1,0,0,0,.68,1c.83.36,1.8,1.58,3.08-.37C14.87,113.49,15.47,112.13,13.17,111.73Z"/><path class="cls-5" d="M17.72,107.2s-2.83,4.09-4.55,4.53c0,0-.27,1.67,1.12,1.86s3.84-3.18,4.76-4.76S18.71,106.27,17.72,107.2Z"/><path class="cls-1" d="M19.72,104.27s.53-.13,1.49-.41c.5-.3,2.8-1.68,2.66-1,.63-.31,1.23-.54,1.29-.31,3.11-1.07,6.46-1.5,8.09,1.47s.86,7.26-5.59,7.92-9.31-.06-10.87-2.69C14.68,105.72,14.34,104.59,19.72,104.27Z"/><g class="cls-8"><ellipse class="cls-7" cx="24.69" cy="102.94" rx="2.61" ry="1.18" transform="translate(-74.24 65.26) rotate(-55.66)"/><ellipse class="cls-7" cx="27.9" cy="102.8" rx="2.61" ry="1.18" transform="translate(-74.74 74.34) rotate(-59.32)"/><path class="cls-9" d="M15.83,109.37s-.15-1.5,2.27-.43S21,111.12,25,110.53s6.12-1.62,6.84-1.11,1.63,1.23-.86,2.94S19,114.22,19,114.22a24.27,24.27,0,0,1-3.24-1C15.74,113,15.83,109.37,15.83,109.37Z"/></g><path class="cls-10" d="M21.15,103.66a14.52,14.52,0,0,1-5.56,3.65l-.66-1.94S21.52,100.79,21.15,103.66Z"/><path class="cls-2" d="M12.51,94.34s-1.52-4-.39-4.59l.05,0c.19-.07,1.52-.39,4,3a.27.27,0,0,1,.05.23,2.26,2.26,0,0,1-1.86,1.57S12.7,95.09,12.51,94.34Z"/><g class="cls-11"><path class="cls-12" d="M10.9,90.57s1.81-.18,2.72,4.26c0,0-2.16,1.28-2.4.64s-1-4.12-1-4.12Z"/></g><path class="cls-1" d="M9.16,105.77c2.45,1,6.86.25,7.25.17h.06a11.64,11.64,0,0,0,5-1.21,8,8,0,0,0,4.4-4.46.29.29,0,0,0-.28-.37c-2.06,0-2.34-.81-2.38-1v0c-.76-8.67-6.67-8.53-6.67-8.53S7.82,89.3,8.77,99.23a.25.25,0,0,1,0,.12c-.08.22-.47,1-2,1.45a.28.28,0,0,0-.17.13c-.11.2-.22.7.44,1.72a18.72,18.72,0,0,0,1.17,1.86s.29.39,1.54.36c0,0-1.3,0-1.13.34A1.8,1.8,0,0,0,9.16,105.77Z"/><g class="cls-13"><ellipse class="cls-9" cx="9.1" cy="105.38" rx="5.55" ry="6.11" transform="translate(-8.39 1.06) rotate(-4.58)"/></g><ellipse class="cls-14" cx="7.45" cy="100.69" rx="0.96" ry="0.56" transform="translate(-8.02 0.92) rotate(-4.58)"/><ellipse class="cls-7" cx="17.5" cy="96.15" rx="2.73" ry="1.02" transform="translate(-7.62 1.7) rotate(-4.58)"/><ellipse class="cls-7" cx="17.1" cy="92.8" rx="2.87" ry="1.02" transform="translate(-7.36 1.66) rotate(-4.58)"/><path class="cls-2" d="M15.36,94.08s-1.47-3.82-.45-4.55a.24.24,0,0,1,.18,0c.42,0,2.09.39,4.37,3.49a.3.3,0,0,1-.06.4,6.59,6.59,0,0,1-2.2.92S15.55,94.83,15.36,94.08Z"/><g class="cls-15"><path class="cls-12" d="M13.75,90.32s1.81-.19,2.72,4.25c0,0-2.16,1.28-2.4.64s-1-4.12-1-4.12Z"/></g><circle class="cls-3" cx="12.18" cy="97.95" r="1.58"/><g class="cls-16"><circle class="cls-17" cx="11.58" cy="98.5" r="1.18"/><circle class="cls-17" cx="11.58" cy="98.5" r="0.87"/><circle class="cls-3" cx="12.09" cy="97.64" r="0.35"/></g><path class="cls-18" d="M10.41,95.53s1.83-1.83,3.12.09"/><path class="cls-19" d="M14.58,101.17s-3.13-.82-4.95.5"/><path class="cls-19" d="M14.7,102.27s-3-1.17-5-.08"/><path class="cls-19" d="M14.88,103.17s-3-1.31-5-.31"/><path class="cls-9" d="M19.47,114.41s-1.34.92-1,1.53c0,0,.29,1.18.86.79a1,1,0,0,0,1.24-.06c.73-.52,2.27-.75,1.24-2.83C21.85,113.84,21,112.63,19.47,114.41Z"/><path class="cls-1" d="M17.86,108.19s2.1,4.52,1.61,6.22c0,0,1.3,1.08,2.18,0s-.81-4.92-1.7-6.51S17.56,106.87,17.86,108.19Z"/><path class="cls-9" d="M31.49,115.1s-1.45.73-1.15,1.39c0,0,.12,1.2.73.89a1,1,0,0,0,1.24.11c.8-.42,2.36-.43,1.62-2.64C33.93,114.85,33.23,113.53,31.49,115.1Z"/><path class="cls-1" d="M30.74,108.72s1.47,4.76.75,6.38c0,0,1.14,1.24,2.16.26s-.13-5-.8-6.68S30.62,107.37,30.74,108.72Z"/></svg>