<svg xmlns="http://www.w3.org/2000/svg" xmlns:xlink="http://www.w3.org/1999/xlink" viewBox="0 0 260 168"><defs><style>.cls-1{fill:#ffbd29;}.cls-2{fill:#eaa61f;}.cls-3{fill:#5b091b;}.cls-21,.cls-4{fill:none;}.cls-5{clip-path:url(#clip-path);}.cls-6{fill:#ff7e27;}.cls-7{clip-path:url(#clip-path-2);}.cls-8{fill:#f7cc81;}.cls-9{clip-path:url(#clip-path-3);}.cls-10{clip-path:url(#clip-path-4);}.cls-11{fill:#ffe7b6;}.cls-12{fill:#3acccc;}.cls-13{clip-path:url(#clip-path-5);}.cls-14{fill:#ffab24;}.cls-15{fill:#7f4a03;}.cls-16{clip-path:url(#clip-path-6);}.cls-17{fill:#fff;}.cls-18{fill:#594025;}.cls-19{clip-path:url(#clip-path-7);}.cls-20{fill:#a82648;}.cls-21{stroke:#a57749;stroke-linecap:round;stroke-linejoin:round;stroke-width:0.68px;}.cls-22{fill:#ff8098;}.cls-23{fill:#7e7c7b;stroke:#58595b;stroke-miterlimit:10;stroke-width:0.24px;}.cls-24{clip-path:url(#clip-path-8);}.cls-25{fill:#706f6e;}.cls-26{fill:#fff3ce;}.cls-27{fill:#adaba9;}.cls-28{clip-path:url(#clip-path-9);}</style><clipPath id="clip-path"><path class="cls-1" d="M134.53,142s38,11.14,40.51-17.9c0,0,3.92-29.06,20.24-25.56,0,0,6.71-.15,7.61,4.1,0,0,1.59,8.63-7.12,8.07,0,0-9.55-.39-10.84,13,0,0,1.19,36.13-50.07,23.85"/></clipPath><clipPath id="clip-path-2"><path class="cls-2" d="M119.33,124.49s-15.22,2.91-6.48,21.54c0,0-8.47,2.27-4,8.79,0,0,5.09,4.22,13.8-2.66l3.71-15.34Z"/></clipPath><clipPath id="clip-path-3"><path class="cls-2" d="M146.29,124.49s15.22,2.91,6.48,21.54c0,0,8.47,2.27,4,8.79,0,0-5.09,4.22-13.8-2.66l-3.71-15.34Z"/></clipPath><clipPath id="clip-path-4"><path class="cls-1" d="M143.07,92.9l-10-.42-10,.42s-9.59,48.44-3.87,55.51c4.7,5.83,9.34,6.28,13,6.28s9.27.91,14.84-6.28S143.07,92.9,143.07,92.9Z"/></clipPath><clipPath id="clip-path-5"><path class="cls-1" d="M120.47,106.41s-6.73,43.37-10.47,42.91-3.13,5.23-1.23,5.46c0,0,1.83,2.08,5.61,1.3,0,0,2.79,1.66,5.18,0,0,0,3-4.88-.63-7.7,0,0,4.72-29.21,6-39.83"/></clipPath><clipPath id="clip-path-6"><path class="cls-1" d="M169.42,67.66c-5.19-2.11-12.85-12.36-16.1-17-.4-.62-.82-1.22-1.26-1.81l-.29-.43,0,0a29.26,29.26,0,0,0-50.18,6.87h0l0,.09a30.82,30.82,0,0,0-1,3c-2,5.52-6.45,16.85-10.76,20.19a3.42,3.42,0,0,0,3.47,1.68s-2.37,19.93,37.32,15.46l0-.08c.71,0,1.41-.11,2.12-.21s1.44-.23,2.14-.38v.09c39.43-6.39,31.77-24.94,31.77-24.94A3.41,3.41,0,0,0,169.42,67.66Z"/></clipPath><clipPath id="clip-path-7"><path class="cls-3" d="M121.33,87.59c-.11,0,6.12,6.17,11.9,5.1s8.84-9.11,8.84-9.11-5.63,5-10.78,1.77C131.29,85.35,126.7,90.06,121.33,87.59Z"/></clipPath><clipPath id="clip-path-8"><path class="cls-4" d="M159.35,100.22c-.4,1-1.84,4.37-.2,5.73s1.79-.24,3.65-.86,3.06-1.62,11.36-3.11c5.66-1.25,11.79-6.2,12.61-13.6.83-3.75,1.9-11.18-8.6-11.59-7.85.33-12.62,7.29-13.83,12.68C162.81,93.44,160.63,97.13,159.35,100.22Z"/></clipPath><clipPath id="clip-path-9"><path class="cls-1" d="M159.5,115.44c3.21-5.87,6.39-10,7.56-9.43,3.45,1.54,4.52-4.08,2.78-4.86,0,0-1.14-2.52-5-2.88,0,0-2.18-2.4-4.95-1.54,0,0-4.34,3.77-1.65,7.55,0,0-10,11.72-8.45,17S157.88,118.41,159.5,115.44Z"/></clipPath></defs><g id="Layer_3" data-name="Layer 3"><path class="cls-1" d="M134.53,142s38,11.14,40.51-17.9c0,0,3.92-29.06,20.24-25.56,0,0,6.71-.15,7.61,4.1,0,0,1.59,8.63-7.12,8.07,0,0-9.55-.39-10.84,13,0,0,1.19,36.13-50.07,23.85"/><g class="cls-5"><ellipse class="cls-6" cx="184.09" cy="100.99" rx="4.28" ry="9" transform="translate(-19.91 150.73) rotate(-42.45)"/><ellipse class="cls-6" cx="176.58" cy="110.61" rx="4.28" ry="9" transform="translate(4.96 228.76) rotate(-66.61)"/></g><path class="cls-2" d="M119.33,124.49s-15.22,2.91-6.48,21.54c0,0-8.47,2.27-4,8.79,0,0,5.09,4.22,13.8-2.66l3.71-15.34Z"/><g class="cls-7"><path class="cls-8" d="M110.42,144.31s12.37,9,22.38-1.17c0,0,1.76,23.78,0,24.24S97,167.15,95.27,164.7s-2-8.16,0-10.6,4.66-6.65,6.3-7.58,1.74-1.4,1.74-1.4"/></g><path class="cls-2" d="M146.29,124.49s15.22,2.91,6.48,21.54c0,0,8.47,2.27,4,8.79,0,0-5.09,4.22-13.8-2.66l-3.71-15.34Z"/><g class="cls-9"><path class="cls-8" d="M139.09,148.91c.14-.28,9.35.61,17.37-5s-.47-.15-.47-.15,27.38,11.53,17.59,15.61,8.2,8.27-20.49,5.36-33.27-2.8-32.09-4.89a13.06,13.06,0,0,0,1.42-3.16Z"/></g><path class="cls-1" d="M143.07,92.9l-10-.42-10,.42s-9.59,48.44-3.87,55.51c4.7,5.83,9.34,6.28,13,6.28s9.27.91,14.84-6.28S143.07,92.9,143.07,92.9Z"/><g class="cls-10"><ellipse class="cls-11" cx="132.65" cy="130.91" rx="10.11" ry="20.83"/></g><path class="cls-12" d="M121,93.79s10.91,12.29,24.24,0l-21.92-3.94"/><path class="cls-1" d="M122.5,95.41a7.65,7.65,0,0,1-3.23,6.17,4.79,4.79,0,0,0,1.69.06,17.64,17.64,0,0,1-2.15,3,1.79,1.79,0,0,0,1,0,5.7,5.7,0,0,1-2,1.79l3.61.14a1.87,1.87,0,0,0,.91-.12,1.7,1.7,0,0,0,.64-1.77,35.08,35.08,0,0,0-.7-4.67c-.07-.29.23-.72.29-1s-.63-.72-.42-1.06a1.15,1.15,0,0,0,.17-1.15"/><path class="cls-1" d="M143.52,95.41a7.69,7.69,0,0,0,3.24,6.17,4.8,4.8,0,0,1-1.69.06,16.62,16.62,0,0,0,2.15,3,1.79,1.79,0,0,1-1,0,5.7,5.7,0,0,0,2,1.79l-3.61.14a1.87,1.87,0,0,1-.91-.12,1.7,1.7,0,0,1-.64-1.77,33.52,33.52,0,0,1,.7-4.67c.07-.29-.23-.72-.29-1s.63-.72.42-1.06a1.15,1.15,0,0,1-.17-1.15"/><path class="cls-1" d="M120.47,106.41s-6.73,43.37-10.47,42.91-3.13,5.23-1.23,5.46c0,0,1.83,2.08,5.61,1.3,0,0,2.79,1.66,5.18,0,0,0,3-4.88-.63-7.7,0,0,4.72-29.21,6-39.83"/><g class="cls-13"><path class="cls-11" d="M109.13,147.2s4.75,7.1,12.32-.52c0,0,4.44,24.76,2.81,24.68s-13.72.79-18.36-1.54-6.84-6.24-5.23-8-1.33-12.25-1.33-12.25Z"/></g><path class="cls-14" d="M111.89,43.35S87.13,27.12,101.52,55.43c0,0,4.08,1.37,8-3.4C109.48,52,114.63,48.09,111.89,43.35Z"/><path class="cls-15" d="M109.33,44.62s-15.33-10-6.42,7.49c0,0,2.53.85,4.93-2.11C107.84,50,111,47.56,109.33,44.62Z"/><path class="cls-14" d="M137.36,39.85s19.47-22.3,13.23,8.85c0,0-3.55,2.42-8.57-1.14C142,47.56,136,45.16,137.36,39.85Z"/><path class="cls-15" d="M140.91,40.29S153,26.48,149.1,45.77c0,0-2.2,1.5-5.31-.71C143.79,45.06,140.06,43.57,140.91,40.29Z"/><path class="cls-1" d="M169.42,67.66c-5.19-2.11-12.85-12.36-16.1-17-.4-.62-.82-1.22-1.26-1.81l-.29-.43,0,0a29.26,29.26,0,0,0-50.18,6.87h0l0,.09a30.82,30.82,0,0,0-1,3c-2,5.52-6.45,16.85-10.76,20.19a3.42,3.42,0,0,0,3.47,1.68s-2.37,19.93,37.32,15.46l0-.08c.71,0,1.41-.11,2.12-.21s1.44-.23,2.14-.38v.09c39.43-6.39,31.77-24.94,31.77-24.94A3.41,3.41,0,0,0,169.42,67.66Z"/><g class="cls-16"><circle class="cls-11" cx="132.38" cy="93.58" r="20.11"/><ellipse class="cls-6" cx="97.27" cy="68.12" rx="8.36" ry="2.73" transform="matrix(0.99, -0.14, 0.14, 0.99, -8.36, 13.86)"/><ellipse class="cls-6" cx="100.65" cy="58.75" rx="8.36" ry="2.73" transform="translate(-7.05 14.23) rotate(-7.81)"/><ellipse class="cls-6" cx="158.76" cy="59.68" rx="8.36" ry="2.73" transform="translate(-6.64 22.14) rotate(-7.81)"/><ellipse class="cls-6" cx="152.99" cy="51.56" rx="8.36" ry="2.73" transform="translate(-5.59 21.28) rotate(-7.81)"/><ellipse class="cls-6" cx="119.82" cy="42.38" rx="2.64" ry="9.24" transform="translate(-4.65 16.68) rotate(-7.81)"/><ellipse class="cls-6" cx="130.13" cy="40.96" rx="2.64" ry="9.24" transform="translate(-4.36 18.07) rotate(-7.81)"/></g><circle class="cls-17" cx="113.14" cy="70.31" r="7.06"/><circle class="cls-18" cx="113.14" cy="70.31" r="4.88"/><circle class="cls-18" cx="113.14" cy="70.31" r="3.21"/><circle class="cls-17" cx="110.73" cy="67.4" r="1.61"/><circle class="cls-17" cx="144.16" cy="66.05" r="7.06"/><circle class="cls-18" cx="144.16" cy="66.05" r="4.88"/><circle class="cls-18" cx="144.16" cy="66.05" r="3.21"/><circle class="cls-17" cx="141.74" cy="63.14" r="1.61"/><path class="cls-1" d="M118.94,76.64s-3.59-2.58-14.68.83c0,0,4.75,1.61,5.15,1.56s9-1.13,9.14-1.26A4.76,4.76,0,0,0,118.94,76.64Z"/><path class="cls-1" d="M141.52,73.54s2.76-3.45,14.36-3.16c0,0-4.14,2.84-4.54,2.89s-9,1.34-9.15,1.26A5.23,5.23,0,0,1,141.52,73.54Z"/><path class="cls-15" d="M108,59.5a3.44,3.44,0,0,1,1.52-1.91,5,5,0,0,1,2.34-.77,5.42,5.42,0,0,1,2.4.42,5.16,5.16,0,0,1,1,.61,4.45,4.45,0,0,1,.84.89,21.18,21.18,0,0,1-2.23.15c-.67,0-1.29,0-1.91.07s-1.21.1-1.86.19S108.84,59.34,108,59.5Z"/><path class="cls-15" d="M146.27,54.25c-.83.07-1.51.14-2.16.24s-1.24.2-1.84.32-1.21.27-1.86.44a18.48,18.48,0,0,1-2.19.46,4.82,4.82,0,0,1,.57-1.08,5.76,5.76,0,0,1,.84-.87,5.15,5.15,0,0,1,2.2-1,5,5,0,0,1,2.46.1A3.48,3.48,0,0,1,146.27,54.25Z"/><path class="cls-3" d="M121.33,87.59c-.11,0,6.12,6.17,11.9,5.1s8.84-9.11,8.84-9.11-5.63,5-10.78,1.77C131.29,85.35,126.7,90.06,121.33,87.59Z"/><g class="cls-19"><ellipse class="cls-20" cx="132.69" cy="92.53" rx="6.54" ry="3.81" transform="translate(-9.39 15.18) rotate(-6.33)"/><ellipse class="cls-17" cx="128.15" cy="87.7" rx="0.71" ry="1.16" transform="translate(-23.55 54.53) rotate(-22.05)"/><ellipse class="cls-17" cx="135.27" cy="86.67" rx="0.71" ry="1.16" transform="translate(-5.43 9.12) rotate(-3.79)"/></g><path class="cls-21" d="M130.22,77.87l1,7.23s-4,5.72-10.92,1.94"/><path class="cls-21" d="M130.22,77.87l1,7.23S137,88.5,142.67,83"/><ellipse class="cls-22" cx="130.2" cy="77.68" rx="4.92" ry="2.57" transform="translate(-9.35 18.42) rotate(-7.81)"/><path class="cls-23" d="M164.34,89.47c-1.53,4-3.71,7.66-5,10.75-.4,1-1.84,4.37-.2,5.73s1.79-.24,3.65-.86,3.06-1.62,11.36-3.11A16.66,16.66,0,0,0,186,91.6a14.93,14.93,0,0,1-1-2,6.7,6.7,0,0,0-.84-1.82,5.31,5.31,0,0,0-2.33-1.5c-.74-.29-1.8-.61-2.22-1.35a5.63,5.63,0,0,1-.4-1.22,2,2,0,0,0-1-1.18,5.63,5.63,0,0,1-2.08-1.42,13.81,13.81,0,0,1-1-1.62,21.44,21.44,0,0,0-1-1.93C168.69,79.63,165.33,85.07,164.34,89.47Z"/><g class="cls-24"><path class="cls-25" d="M172.36,108.82a37.62,37.62,0,0,0,5.09-2.31,24.9,24.9,0,0,0,8.46-8.12c.8-1.24,1.85-2.76,1.33-4.3s-1.59-2.9-2.19-4.45a6.7,6.7,0,0,0-.84-1.82,3.45,3.45,0,0,0-.54-.54A23.09,23.09,0,0,1,181,93.35c-1.82,2.49-4.77,3.87-7.68,4.91s-6,1.85-8.49,3.59c-1.33.91-2.48,2.05-3.81,3s-4.93,1.8-2.43,3.78a12,12,0,0,0,3.91,1.66,16,16,0,0,1,2.31,1.15c.65-.17,1.3-.35,1.94-.55C168.66,110.26,170.51,109.56,172.36,108.82Z"/></g><path class="cls-26" d="M169.48,83.1c-.14,1.87-.71,3.27.7,5.91s3.31,4.89,6.93,5.57,7-.86,8.25-3.53c.06-.12.11-.25.17-.37a9.79,9.79,0,0,1-.48-1,6.7,6.7,0,0,0-.84-1.82,5.31,5.31,0,0,0-2.33-1.5c-.74-.29-1.8-.61-2.22-1.35a5.63,5.63,0,0,1-.4-1.22,2,2,0,0,0-1-1.18,5.63,5.63,0,0,1-2.08-1.42,13.81,13.81,0,0,1-1-1.62c-.23-.39-.48-1-.8-1.55-.14,0-.27,0-.4.09C171.9,78.85,169.6,81.42,169.48,83.1Z"/><path class="cls-25" d="M170.17,95.54c-1.34-1.18-3.76-3.74-3.95-6.87a.11.11,0,0,1,.21-.06,59.85,59.85,0,0,0,3.9,6.79A.11.11,0,0,1,170.17,95.54Z"/><path class="cls-25" d="M166.36,99.79a7.94,7.94,0,0,1-3.14-5.8.08.08,0,0,1,.16,0,43.31,43.31,0,0,0,3.1,5.72A.08.08,0,0,1,166.36,99.79Z"/><path class="cls-25" d="M162.1,101.59l-.13-.28a.41.41,0,0,0-.15-.17.53.53,0,0,0-.21-.11.6.6,0,0,0-.23,0,.62.62,0,0,0-.23.07l-.12.1a.61.61,0,0,0-.15.26l0,.16a.52.52,0,0,0,.08.3l.12.28a.5.5,0,0,0,.15.17.43.43,0,0,0,.21.11.49.49,0,0,0,.24,0,.44.44,0,0,0,.22-.07l.12-.09a.63.63,0,0,0,.16-.27l0-.16a.61.61,0,0,0-.08-.3Z"/><path class="cls-27" d="M167.1,95.58l-.19-.43a.25.25,0,0,0-.11-.12.31.31,0,0,0-.14-.07.29.29,0,0,0-.16,0,.3.3,0,0,0-.16,0,.44.44,0,0,0-.19.25v.11a.54.54,0,0,0,.05.21l.19.43a.29.29,0,0,0,.11.11.29.29,0,0,0,.14.08.33.33,0,0,0,.17,0,.44.44,0,0,0,.15,0,.43.43,0,0,0,.19-.25l0-.11a.37.37,0,0,0-.06-.21Z"/><path class="cls-25" d="M171.54,91.93l-.31-.7a.5.5,0,0,0-.15-.17.53.53,0,0,0-.21-.11.65.65,0,0,0-.24,0,.57.57,0,0,0-.22.07.66.66,0,0,0-.28.36l0,.16a.61.61,0,0,0,.08.3l.31.7a.44.44,0,0,0,.16.17.36.36,0,0,0,.2.11.49.49,0,0,0,.24,0,.44.44,0,0,0,.22-.07.63.63,0,0,0,.28-.36l0-.16a.61.61,0,0,0-.08-.3Z"/><path class="cls-25" d="M163.42,100.21l.22-.27a.39.39,0,0,0,.12-.19.55.55,0,0,0,0-.46.41.41,0,0,0-.12-.2l-.12-.09a.68.68,0,0,0-.31-.08l-.16,0a.61.61,0,0,0-.26.15l-.22.27a.47.47,0,0,0-.12.19.46.46,0,0,0,0,.23.43.43,0,0,0,0,.23.51.51,0,0,0,.12.2l.13.09a.52.52,0,0,0,.3.08l.16,0a.61.61,0,0,0,.26-.15Z"/><path class="cls-27" d="M168.74,88.54v-.43a.46.46,0,0,0-.06-.23.35.35,0,0,0-.12-.19.5.5,0,0,0-.19-.13.46.46,0,0,0-.23,0l-.16,0a.63.63,0,0,0-.27.16l-.09.12a.52.52,0,0,0-.08.3v.43a.46.46,0,0,0,.06.23.41.41,0,0,0,.12.2.47.47,0,0,0,.19.12.46.46,0,0,0,.23,0l.16,0a.72.72,0,0,0,.27-.15l.09-.13a.61.61,0,0,0,.08-.3Z"/><path class="cls-1" d="M159.5,115.44c3.21-5.87,6.39-10,7.56-9.43,3.45,1.54,4.52-4.08,2.78-4.86,0,0-1.14-2.52-5-2.88,0,0-2.18-2.4-4.95-1.54,0,0-4.34,3.77-1.65,7.55,0,0-10,11.72-8.45,17S157.88,118.41,159.5,115.44Z"/><g class="cls-28"><path class="cls-11" d="M157,104.62s4.72-2.21,10.55,3.17L178.32,99a19.38,19.38,0,0,0-7.62-5.11c-4.57-1.56-5.56-3-9.26-2.41s-6,.41-6.42,1.94S157,104.62,157,104.62Z"/></g><path class="cls-1" d="M145,106.52l10.54,14s-2.52,3.62-4.83,2.41-10.32-12.73-10.32-12.73S137.9,101.36,145,106.52Z"/></g></svg>