<svg xmlns="http://www.w3.org/2000/svg" xmlns:xlink="http://www.w3.org/1999/xlink" viewBox="0 0 260 168"><defs><style>.cls-1{fill:#ffa42c;}.cls-2{fill:#ffbd29;}.cls-3{fill:#ffab24;}.cls-4{fill:#f9bd2a;}.cls-5{clip-path:url(#clip-path);}.cls-6{fill:#ffe7b6;}.cls-7{clip-path:url(#clip-path-2);}.cls-8{fill:#ff7e27;}.cls-9{fill:#3acccc;}.cls-10{fill:#f48c37;}.cls-11{clip-path:url(#clip-path-3);}.cls-12{fill:#7f4a03;}.cls-13{clip-path:url(#clip-path-4);}.cls-14{fill:#ff8098;}.cls-15{clip-path:url(#clip-path-5);}.cls-16,.cls-17{fill:none;stroke-linecap:round;}.cls-16{stroke:#7f4a03;stroke-miterlimit:10;stroke-width:1.21px;}.cls-17{stroke:#ffc866;stroke-linejoin:round;stroke-width:0.28px;}.cls-18{clip-path:url(#clip-path-6);}.cls-19{clip-path:url(#clip-path-7);}.cls-20{fill:#edcd96;}.cls-21{clip-path:url(#clip-path-8);}.cls-22{fill:#fff;}.cls-23{fill:#594025;}</style><clipPath id="clip-path"><path class="cls-1" d="M177.4,133.51c.34.17,6.85,6.79,5.61,11.89s-13.5,6.13-15.89,4.65-1.65-7.14,1.26-7.41a18.5,18.5,0,0,1,6.66,1.15s2.78-4.56-4.62-6.55"/></clipPath><clipPath id="clip-path-2"><path class="cls-2" d="M165.55,119s-55.24-65.71-85.25-8.2c0,0-17.5,37.09,28.76,39.18s76-3.52,66.82-24.36Z"/></clipPath><clipPath id="clip-path-3"><path class="cls-3" d="M187.26,104.09s6.41-5.91,4.82-8c0,0-1.83-2.54-10.28,2,0,0-1,2.38,1.9,4.81C183.7,102.83,186.23,105.28,187.26,104.09Z"/></clipPath><clipPath id="clip-path-4"><path class="cls-2" d="M183.24,127.44s.31.56-.18.54c-5.66-.33-13.44-6.26-13.44-6.26a23.44,23.44,0,0,1-8-6.72c-5.6-7.15-3.85-12.91-3.85-12.91,4.62,2.67,5.92.75,5.92.75,9.21-15.17,19.89-9.58,19.89-9.58s16.9,5.9,6.07,23.23c0,0-.51,2.1,2.46,4.71a10.56,10.56,0,0,1-4.6,5.81s-2.31,1.91-3.94.32C183.53,127.33,183.09,126.73,183.24,127.44Z"/></clipPath><clipPath id="clip-path-5"><path class="cls-3" d="M182.3,101.05s6.4-5.91,4.82-8c0,0-3.35-1.92-11.8,2.6,0,0,.55,1.76,3.41,4.19C178.73,99.79,181.27,102.24,182.3,101.05Z"/></clipPath><clipPath id="clip-path-6"><path class="cls-2" d="M167.81,135.8c.34.17,6.86,6.79,5.62,11.89s-13.5,6.13-15.9,4.65-1.65-7.14,1.26-7.41a18.45,18.45,0,0,1,6.66,1.15s2.78-4.56-4.62-6.55"/></clipPath><clipPath id="clip-path-7"><path class="cls-4" d="M103,123.48s18.13-2.08,20,11.46c0,0,1,6.05-2.92,10.21,0,0,13.13-3.54,15,4.17s-18.34,7.3-31.88,3.54-10-20.63-9.59-21.25"/></clipPath><clipPath id="clip-path-8"><path class="cls-4" d="M82.66,136.19s-11.09-1.25-10.78,7.19S85.16,156,99.39,155.1s20.31-2,17.66-8.75-19.85-6.09-27.2-2.5-10.62-.94-10.62-2.81,3.75-2.19,4.22-3.28S82.66,136.19,82.66,136.19Z"/></clipPath></defs><g id="Layer_2" data-name="Layer 2"><path class="cls-1" d="M177.4,133.51c.34.17,6.85,6.79,5.61,11.89s-13.5,6.13-15.89,4.65-1.65-7.14,1.26-7.41a18.5,18.5,0,0,1,6.66,1.15s2.78-4.56-4.62-6.55"/><g class="cls-5"><path class="cls-6" d="M171,140.76a7.74,7.74,0,0,1,.87,10.76,4.92,4.92,0,0,1-2.84,1.83,7.14,7.14,0,0,1-3.28-.46,7.64,7.64,0,0,1-3.11-1.54,5.22,5.22,0,0,1-1.46-3.56,15.13,15.13,0,0,1,.46-3.9,6,6,0,0,1,.75-2.2,4.31,4.31,0,0,1,1.53-1.31,7,7,0,0,1,4.27-.78"/></g><path class="cls-2" d="M165.55,119s-55.24-65.71-85.25-8.2c0,0-17.5,37.09,28.76,39.18s76-3.52,66.82-24.36Z"/><g class="cls-7"><ellipse class="cls-8" cx="135.42" cy="85.04" rx="24.59" ry="7.71" transform="translate(22.18 197.93) rotate(-77.04)"/><ellipse class="cls-8" cx="119.79" cy="80.66" rx="24.59" ry="7.71" transform="translate(14.32 179.31) rotate(-77.04)"/><path class="cls-6" d="M142.77,143.66A93.77,93.77,0,0,0,159,142.9c4.23-.57,8.55-1.42,12.72-.54s8.24,4.08,8.51,8.34a9.41,9.41,0,0,1-3.61,7.5,21.4,21.4,0,0,1-7.71,3.76c-9.6,2.91-19.75,3.4-29.77,3.77-7.46.27-15.09.46-22.16-1.91-5.24-1.75-9.65-5.12-14.79-7.08-3.56-1.36-6.5-2.32-9-5.39-5.24-6.4-1.74-9,5.23-10.06,6.82-1.08,13.76-.72,20.59,0C126.94,142.05,134.81,143.35,142.77,143.66Z"/></g><path class="cls-9" d="M162.3,115.66S169,123.14,175,125.8l1.91-4.1S162.27,109.75,162.3,115.66Z"/><path class="cls-10" d="M184.25,125.84s-1.12.26-1,1.89L182,127l-.84-4.18,1.32-.78Z"/><path class="cls-3" d="M187.26,104.09s6.41-5.91,4.82-8c0,0-1.83-2.54-10.28,2,0,0-1,2.38,1.9,4.81C183.7,102.83,186.23,105.28,187.26,104.09Z"/><g class="cls-11"><path class="cls-12" d="M193.6,98.68s-3.15-2-8.81,5.31c0,0,2.78,4.27,3.81,3.33s5.62-6.58,5.62-6.58Z"/></g><path class="cls-2" d="M183.24,127.44s.31.56-.18.54c-5.66-.33-13.44-6.26-13.44-6.26a23.44,23.44,0,0,1-8-6.72c-5.6-7.15-3.85-12.91-3.85-12.91,4.62,2.67,5.92.75,5.92.75,9.21-15.17,19.89-9.58,19.89-9.58s16.9,5.9,6.07,23.23c0,0-.51,2.1,2.46,4.71a10.56,10.56,0,0,1-4.6,5.81s-2.31,1.91-3.94.32C183.53,127.33,183.09,126.73,183.24,127.44Z"/><g class="cls-13"><ellipse class="cls-6" cx="183.53" cy="127.33" rx="12.43" ry="11.3" transform="translate(-19.96 219.48) rotate(-59.12)"/></g><ellipse class="cls-14" cx="190.77" cy="120.26" rx="1.14" ry="1.95" transform="translate(-10.36 222.25) rotate(-59.12)"/><ellipse class="cls-8" cx="176.51" cy="102.9" rx="2.09" ry="5.57" transform="translate(-2.41 201.56) rotate(-59.12)"/><ellipse class="cls-8" cx="180.28" cy="97.14" rx="2.09" ry="5.85" transform="translate(4.37 202) rotate(-59.12)"/><path class="cls-3" d="M182.3,101.05s6.4-5.91,4.82-8c0,0-3.35-1.92-11.8,2.6,0,0,.55,1.76,3.41,4.19C178.73,99.79,181.27,102.24,182.3,101.05Z"/><g class="cls-15"><path class="cls-12" d="M188.63,95.63s-3.14-2-8.8,5.32c0,0,2.78,4.27,3.8,3.33s5.62-6.58,5.62-6.58Z"/></g><path class="cls-16" d="M189.39,108.82s.87-4.77-5.15-3.31"/><path class="cls-17" d="M177.32,114.69s6.45,1.33,8.58,5.37"/><path class="cls-17" d="M176.11,116.59s6.55.58,9.14,4.35"/><path class="cls-17" d="M175,118.08s6.57.26,9.34,3.9"/><path class="cls-2" d="M167.81,135.8c.34.17,6.86,6.79,5.62,11.89s-13.5,6.13-15.9,4.65-1.65-7.14,1.26-7.41a18.45,18.45,0,0,1,6.66,1.15s2.78-4.56-4.62-6.55"/><g class="cls-18"><path class="cls-6" d="M161.45,143.05a7.75,7.75,0,0,1,.88,10.76,5,5,0,0,1-2.85,1.83,7.08,7.08,0,0,1-3.27-.46,7.68,7.68,0,0,1-3.12-1.54,5.27,5.27,0,0,1-1.46-3.56,16.12,16.12,0,0,1,.46-3.9,6.17,6.17,0,0,1,.75-2.2,4.27,4.27,0,0,1,1.53-1.3,7,7,0,0,1,4.27-.79"/></g><path class="cls-4" d="M103,123.48s18.13-2.08,20,11.46c0,0,1,6.05-2.92,10.21,0,0,13.13-3.54,15,4.17s-18.34,7.3-31.88,3.54-10-20.63-9.59-21.25"/><g class="cls-19"><path class="cls-20" d="M124.36,146.78a10.63,10.63,0,0,0-1.37,7,4.48,4.48,0,0,0,1.32,3.11,4.69,4.69,0,0,0,3,.75,26.77,26.77,0,0,0,6.3-.78,7.15,7.15,0,0,0,3.41-1.61c1.73-1.7,1.59-4.69.24-6.7C134.34,144.13,127.8,141.5,124.36,146.78Z"/></g><path class="cls-4" d="M82.66,136.19s-11.09-1.25-10.78,7.19S85.16,156,99.39,155.1s20.31-2,17.66-8.75-19.85-6.09-27.2-2.5-10.62-.94-10.62-2.81,3.75-2.19,4.22-3.28S82.66,136.19,82.66,136.19Z"/><g class="cls-21"><ellipse class="cls-8" cx="97.46" cy="140.48" rx="2.87" ry="8.6" transform="translate(-28.95 25.36) rotate(-12.92)"/><ellipse class="cls-8" cx="107.48" cy="139.67" rx="2.87" ry="8.6" transform="translate(-0.91 0.71) rotate(-0.37)"/></g><ellipse class="cls-22" cx="185.07" cy="110.99" rx="3.57" ry="1.76" transform="translate(-10.38 202.48) rotate(-56.03)"/><ellipse class="cls-23" cx="184.68" cy="110.6" rx="2.24" ry="1.1" transform="translate(-10.23 201.97) rotate(-56.03)"/><ellipse class="cls-23" cx="184.68" cy="110.6" rx="1.58" ry="0.78" transform="translate(-10.23 201.97) rotate(-56.03)"/><ellipse class="cls-22" cx="186.14" cy="109.76" rx="0.72" ry="0.28" transform="translate(-8.89 202.82) rotate(-56.03)"/></g></svg>