<svg id="_10" data-name="10" xmlns="http://www.w3.org/2000/svg" xmlns:xlink="http://www.w3.org/1999/xlink" viewBox="0 0 260 168"><defs><style>.cls-1{fill:#ffbd29;}.cls-2{clip-path:url(#clip-path);}.cls-3{fill:#ff7e27;}.cls-4{fill:#ffab24;}.cls-5{fill:#7f4a03;}.cls-6{clip-path:url(#clip-path-2);}</style><clipPath id="clip-path"><path class="cls-1" d="M45.29,251.34s71-60.8,14.14-104.62c0,0-60.78-49.48-31.88-78.71,0,0,12.35-17.22,26.77-10.78,0,0,20,8.16,7.29,25.48,0,0-13.48,19.32,12.68,39.82,0,0,70.68,44-22.8,134.11"/></clipPath><clipPath id="clip-path-2"><path class="cls-1" d="M143.05,223.15c-9.61-5.54-21.86-27.68-27-37.57-.62-1.33-1.27-2.62-2-3.89l-.45-.93-.06,0a57.88,57.88,0,0,0-100.17,0h0l-.09.18a59,59,0,0,0-2.82,5.55C5.12,196.77-6.69,217.78-16,223.15a6.73,6.73,0,0,0,6.35,4.23s-10,38.42,69,40.33l0-.17c1.39.1,2.8.17,4.22.17s2.86-.07,4.28-.18l0,.18c79-1.91,69-40.33,69-40.33A6.72,6.72,0,0,0,143.05,223.15Z"/></clipPath></defs><path class="cls-1" d="M45.29,251.34s71-60.8,14.14-104.62c0,0-60.78-49.48-31.88-78.71,0,0,12.35-17.22,26.77-10.78,0,0,20,8.16,7.29,25.48,0,0-13.48,19.32,12.68,39.82,0,0,70.68,44-22.8,134.11"/><g class="cls-2"><ellipse class="cls-3" cx="26.04" cy="94.13" rx="22.18" ry="10.55" transform="translate(-15.74 5.85) rotate(-9.86)"/><ellipse class="cls-3" cx="36.03" cy="122.49" rx="22.17" ry="10.55" transform="translate(-62.36 41.11) rotate(-34.02)"/></g><path class="cls-4" d="M36.87,160s-44.15-38.44-23.56,20.9c0,0,7.62,3.78,16.5-4.54C29.81,176.4,41,170.08,36.87,160Z"/><path class="cls-5" d="M31.51,161.85S4.17,138,16.92,174.79c0,0,4.72,2.35,10.22-2.81C27.14,172,34,168.07,31.51,161.85Z"/><path class="cls-4" d="M87.71,160s44.15-38.44,23.55,20.9c0,0-7.61,3.78-16.5-4.54C94.76,176.4,83.62,170.08,87.71,160Z"/><path class="cls-5" d="M94.54,161.85s27.35-23.81,14.59,12.94c0,0-4.72,2.35-10.22-2.81C98.91,172,92,168.07,94.54,161.85Z"/><path class="cls-1" d="M143.05,223.15c-9.61-5.54-21.86-27.68-27-37.57-.62-1.33-1.27-2.62-2-3.89l-.45-.93-.06,0a57.88,57.88,0,0,0-100.17,0h0l-.09.18a59,59,0,0,0-2.82,5.55C5.12,196.77-6.69,217.78-16,223.15a6.73,6.73,0,0,0,6.35,4.23s-10,38.42,69,40.33l0-.17c1.39.1,2.8.17,4.22.17s2.86-.07,4.28-.18l0,.18c79-1.91,69-40.33,69-40.33A6.72,6.72,0,0,0,143.05,223.15Z"/><g class="cls-6"><ellipse class="cls-3" cx="52.66" cy="160.28" rx="5.22" ry="18.28"/><ellipse class="cls-3" cx="73.25" cy="160.28" rx="5.22" ry="18.28"/></g></svg>