<svg id="_9" data-name="9" xmlns="http://www.w3.org/2000/svg" xmlns:xlink="http://www.w3.org/1999/xlink" viewBox="0 0 260 168"><defs><style>.cls-1{fill:#ffbd29;}.cls-2{fill:#f9d89d;}.cls-3{fill:#ffa92c;}.cls-4{clip-path:url(#clip-path);}.cls-5{fill:#ff7e27;}.cls-6{clip-path:url(#clip-path-2);}.cls-7{fill:#ffe7b6;}</style><clipPath id="clip-path"><path class="cls-1" d="M2.61,104.85c11,8.88,14.84,0,14.84,0,1.86-3.1,4-1.58,4-1.58,2,1.14,2.77-1.45,2.77-1.45a2.76,2.76,0,0,0-.85-3.46c-6.07-4.11-9.21,4.58-9.21,4.58-4,6.72-11,.5-11,.5a.6.6,0,0,0-.81.3C2.06,104.31,2.61,104.85,2.61,104.85Z"/></clipPath><clipPath id="clip-path-2"><path class="cls-1" d="M-8.48,104.27s.53-.13,1.49-.41c.5-.3,2.8-1.68,2.66-1,.62-.31,1.23-.54,1.29-.31,3.11-1.07,6.46-1.5,8.09,1.47S5.91,111.3-.54,112s-9.31-.06-10.87-2.69C-13.52,105.72-13.86,104.59-8.48,104.27Z"/></clipPath></defs><path class="cls-2" d="M4.17,113.92s-1.38.84-1,1.47c0,0,.22,1.19.81.84a1,1,0,0,0,1.24,0c.76-.49,2.32-.63,1.4-2.77C6.58,113.47,5.78,112.22,4.17,113.92Z"/><path class="cls-3" d="M2.91,107.62s1.85,4.62,1.26,6.3c0,0,1.24,1.14,2.18.09s-.54-5-1.34-6.6S2.68,106.28,2.91,107.62Z"/><path class="cls-1" d="M2.61,104.85c11,8.88,14.84,0,14.84,0,1.86-3.1,4-1.58,4-1.58,2,1.14,2.77-1.45,2.77-1.45a2.76,2.76,0,0,0-.85-3.46c-6.07-4.11-9.21,4.58-9.21,4.58-4,6.72-11,.5-11,.5a.6.6,0,0,0-.81.3C2.06,104.31,2.61,104.85,2.61,104.85Z"/><g class="cls-4"><ellipse class="cls-5" cx="19.07" cy="97.51" rx="1.06" ry="3.18" transform="translate(-40.09 17.68) rotate(-25.47)"/><ellipse class="cls-5" cx="15.98" cy="99.58" rx="1.06" ry="3.18" transform="translate(-57.95 30.98) rotate(-38.02)"/></g><path class="cls-1" d="M-8.48,104.27s.53-.13,1.49-.41c.5-.3,2.8-1.68,2.66-1,.62-.31,1.23-.54,1.29-.31,3.11-1.07,6.46-1.5,8.09,1.47S5.91,111.3-.54,112s-9.31-.06-10.87-2.69C-13.52,105.72-13.86,104.59-8.48,104.27Z"/><g class="cls-6"><ellipse class="cls-5" cx="-0.3" cy="102.8" rx="2.61" ry="1.18" transform="translate(-88.55 50.09) rotate(-59.32)"/><path class="cls-7" d="M-12.37,109.37s-.15-1.5,2.27-.43,2.85,2.18,6.87,1.59,6.12-1.62,6.84-1.11,1.63,1.23-.86,2.94-11.92,1.86-11.92,1.86a24.87,24.87,0,0,1-3.25-1C-12.46,113-12.37,109.37-12.37,109.37Z"/></g><path class="cls-7" d="M-.25,112.91s-1.59-.33-1.77.37c0,0-.65,1,0,1.16,0,0,0,.69.9.86s2.12,1.12,2.9-1.07C1.81,114.23,2.09,112.76-.25,112.91Z"/><path class="cls-1" d="M3.12,107.44s-1.8,4.64-3.37,5.47c0,0,.12,1.68,1.53,1.55s3-4,3.52-5.74S3.86,106.31,3.12,107.44Z"/></svg>