<svg xmlns="http://www.w3.org/2000/svg" xmlns:xlink="http://www.w3.org/1999/xlink" viewBox="0 0 260 168"><defs><style>.cls-1{fill:#ffbd29;}.cls-2{fill:#ffab14;}.cls-3{fill:#ffab24;}.cls-25,.cls-31,.cls-33,.cls-35,.cls-4{fill:none;}.cls-5{clip-path:url(#clip-path);}.cls-6{fill:#ff7e27;}.cls-7{clip-path:url(#clip-path-2);}.cls-8{fill:#ffe7b6;}.cls-9{fill:#3acccc;}.cls-10{clip-path:url(#clip-path-3);}.cls-11{fill:#ffda99;}.cls-12{clip-path:url(#clip-path-4);}.cls-13{fill:#f48c37;}.cls-14{clip-path:url(#clip-path-5);}.cls-15{fill:#7f4a03;}.cls-16{clip-path:url(#clip-path-6);}.cls-17{fill:#ff8098;}.cls-18{clip-path:url(#clip-path-7);}.cls-19{fill:#fff;}.cls-20{fill:#594025;}.cls-21{fill:#ff2c2c;}.cls-22{fill:#a52020;}.cls-23{fill:#fc6363;}.cls-24{fill:#d3d3d3;opacity:0.24;}.cls-25,.cls-32{stroke:#000;}.cls-25,.cls-31,.cls-33{stroke-miterlimit:10;}.cls-25{stroke-width:0.11px;}.cls-26{clip-path:url(#clip-path-8);}.cls-27{fill:#fc5959;}.cls-28{fill:#b23838;}.cls-29{fill:#0c0a07;opacity:0.25;}.cls-30{fill:#ffdeae;}.cls-31,.cls-35{stroke:#aaa;stroke-width:0.44px;}.cls-32{fill:#ff1526;stroke-width:0.11px;}.cls-33{stroke:#ff1526;stroke-width:0.08px;}.cls-34{fill:#aaa;}.cls-35{stroke-linecap:round;stroke-linejoin:round;}</style><clipPath id="clip-path"><path class="cls-1" d="M73.05,124s-22.4,4.4-22.45-14.56c0,0,4.11-22.09-13.66-20.94a6.7,6.7,0,0,0-6,6.22s-1.66,6.33,4,6.45c0,0,6.36-.56,6.46,8.22,0,0-2.76,23.35,31.14,18.22"/></clipPath><clipPath id="clip-path-2"><path class="cls-1" d="M104.85,61s-4,15.65-16.61,23.84-22.15,11.92-23,25.77,7.29,24.74,40.26,26.75,34.88-19,34.88-19,3.38-18.27-4-34.14a153.29,153.29,0,0,0-12.22-22.06Z"/></clipPath><clipPath id="clip-path-3"><path class="cls-2" d="M127.58,114.93s7.16,12.6,6.45,18.66c0,0,3.62-1.34,4.54.6,0,0,2.9,3.63-6.21,5.52,0,0-4.43,1.48-2.86-3.65,0,0-9.1-12-6.88-19.22C122.62,116.84,123.88,111.85,127.58,114.93Z"/></clipPath><clipPath id="clip-path-4"><path class="cls-2" d="M84.89,141.13c.15-3.86-7.35-7.52-7.35-7.52C96,140.11,91.4,119.72,91.4,119.72s-2-15.08-13.93-11.6-4.53,15.08-4.53,15.08,4.46,7-1.08,5.18c-4.44-1.42-4.14,2.82-4.14,2.82s.92,2.56,7.82,7.88,8,4,8,4A2.35,2.35,0,0,0,84.89,141.13Z"/></clipPath><clipPath id="clip-path-5"><path class="cls-3" d="M121.74,42.91s1.86-6.83-.16-7.62c0,0-2.35-.94-6.2,5.8,0,0,.36,2,3.37,2.48C118.75,43.57,121.55,44.16,121.74,42.91Z"/></clipPath><clipPath id="clip-path-6"><path class="cls-1" d="M126.79,62.7c-4.23,1.69-11.12,1.14-11.12,1.14a19.12,19.12,0,0,1-8.43-1.16c-6.91-2.49-8.2-7.2-8.2-7.2,4.33-.16,4.39-2,4.39-2C103.22,39.05,113,38.29,113,38.29s14.15-3.23,14.18,13.34c0,0,.56,1.66,3.72,2.17,0,0,1.17,4-1.4,7,0,0-1.64,1.68-4.48-.26a2.4,2.4,0,0,0,1.09,1.75Z"/></clipPath><clipPath id="clip-path-7"><path class="cls-3" d="M117.56,44.14s1.85-6.83-.16-7.62c0,0-2.36-.94-6.21,5.8,0,0,.36,2,3.38,2.48C114.57,44.8,117.36,45.39,117.56,44.14Z"/></clipPath><clipPath id="clip-path-8"><path class="cls-4" d="M180.86,135.56a5.67,5.67,0,0,1,5.22-3.14,2.48,2.48,0,0,0,1-.14,2.4,2.4,0,0,0,.68-.63,8.53,8.53,0,0,1,5.88-3,2.07,2.07,0,0,0,.78-.14,2.31,2.31,0,0,0,.76-.82,4.25,4.25,0,0,1,3.89-1.64,5.38,5.38,0,0,1,3.44-2.44,1.55,1.55,0,0,1,.77,0,1.85,1.85,0,0,1,.71.54,40.77,40.77,0,0,1,9.08,16.23,9,9,0,0,1,.33,5,9.49,9.49,0,0,1-3.34,4.16,89,89,0,0,1-9.36,6.81,17.15,17.15,0,0,1-3.19,1.7,14.24,14.24,0,0,1-3,.74,14,14,0,0,1-7-.43,11.1,11.1,0,0,1-6.25-6.68,17.52,17.52,0,0,1-.46-9.31c.34-1.71-7.71-2-8.36-3.65-.1-.27,8.32-2,8.29-2.31a.66.66,0,0,1,.41-.69l-.69,1"/></clipPath></defs><g id="Layer_3" data-name="Layer 3"><path class="cls-1" d="M73.05,124s-22.4,4.4-22.45-14.56c0,0,4.11-22.09-13.66-20.94a6.7,6.7,0,0,0-6,6.22s-1.66,6.33,4,6.45c0,0,6.36-.56,6.46,8.22,0,0-2.76,23.35,31.14,18.22"/><g class="cls-5"><ellipse class="cls-6" cx="47.03" cy="92" rx="7.74" ry="2.59" transform="translate(-43.51 42.22) rotate(-34.12)"/><ellipse class="cls-6" cx="50.97" cy="100.14" rx="7.74" ry="2.59" transform="translate(-33.25 25.76) rotate(-21.58)"/></g><path class="cls-1" d="M104.85,61s-4,15.65-16.61,23.84-22.15,11.92-23,25.77,7.29,24.74,40.26,26.75,34.88-19,34.88-19,3.38-18.27-4-34.14a153.29,153.29,0,0,0-12.22-22.06Z"/><g class="cls-7"><path class="cls-8" d="M138.14,86.5s-5.85-2.73-3.57,8.11,10.48,40.73-20.93,42.58c0,0-14.34,0-23.69-.91s-7.43,3.23-7.43,3.23,44.73,29.71,49.92,25.25,14.18-11,15.63-17.61,2-13.56,2.55-22.45S138.14,86.5,138.14,86.5Z"/><path class="cls-9" d="M101.62,62.38s8.75,6.31,27,2L127.7,60S102.55,55.17,102,55.48,101.62,62.38,101.62,62.38Z"/></g><path class="cls-2" d="M127.58,114.93s7.16,12.6,6.45,18.66c0,0,3.62-1.34,4.54.6,0,0,2.9,3.63-6.21,5.52,0,0-4.43,1.48-2.86-3.65,0,0-9.1-12-6.88-19.22C122.62,116.84,123.88,111.85,127.58,114.93Z"/><g class="cls-10"><path class="cls-11" d="M138.38,131s-13.24,6.05-15.8,12.61c0,0-4.29,5.22,2,4.84s15.32-3.28,20.21-4.94,7.71-2.07,6-6S138.38,131,138.38,131Z"/></g><ellipse class="cls-6" cx="113.84" cy="85.91" rx="2.94" ry="12.26" transform="translate(21.19 194.33) rotate(-86.52)"/><ellipse class="cls-6" cx="111.95" cy="94.64" rx="2.94" ry="12.26" transform="translate(10.7 200.64) rotate(-86.52)"/><path class="cls-2" d="M84.89,141.13c.15-3.86-7.35-7.52-7.35-7.52C96,140.11,91.4,119.72,91.4,119.72s-2-15.08-13.93-11.6-4.53,15.08-4.53,15.08,4.46,7-1.08,5.18c-4.44-1.42-4.14,2.82-4.14,2.82s.92,2.56,7.82,7.88,8,4,8,4A2.35,2.35,0,0,0,84.89,141.13Z"/><g class="cls-12"><path class="cls-11" d="M67.4,125.08S78.25,136,90.53,140.49c0,0-3.89,11.72-4.48,11.55a62.33,62.33,0,0,1-15.42-10c-6.14-5.74-7.1-5.61-8.33-8.28s-1.64-4-.82-4.49S67.4,125.08,67.4,125.08Z"/></g><path class="cls-13" d="M126.49,60.93a1.41,1.41,0,0,0-.21,1.58l-2.48-1.44,1-1.42Z"/><path class="cls-3" d="M121.74,42.91s1.86-6.83-.16-7.62c0,0-2.35-.94-6.2,5.8,0,0,.36,2,3.37,2.48C118.75,43.57,121.55,44.16,121.74,42.91Z"/><g class="cls-14"><path class="cls-15" d="M123.76,36.45s-3,0-3.76,7.45c0,0,3.75,1.74,4,.65s1-6.95,1-6.95Z"/></g><path class="cls-1" d="M126.79,62.7c-4.23,1.69-11.12,1.14-11.12,1.14a19.12,19.12,0,0,1-8.43-1.16c-6.91-2.49-8.2-7.2-8.2-7.2,4.33-.16,4.39-2,4.39-2C103.22,39.05,113,38.29,113,38.29s14.15-3.23,14.18,13.34c0,0,.56,1.66,3.72,2.17,0,0,1.17,4-1.4,7,0,0-1.64,1.68-4.48-.26a2.4,2.4,0,0,0,1.09,1.75Z"/><g class="cls-16"><ellipse class="cls-8" cx="127.63" cy="61.7" rx="9.16" ry="10.08" transform="translate(-1.29 2.74) rotate(-1.23)"/></g><ellipse class="cls-17" cx="128.82" cy="53.73" rx="2.31" ry="0.92" transform="translate(-1.12 2.77) rotate(-1.23)"/><ellipse class="cls-6" cx="115.75" cy="47.87" rx="5.88" ry="1.69" transform="translate(-1 2.49) rotate(-1.23)"/><ellipse class="cls-6" cx="115.65" cy="43.09" rx="5.88" ry="1.69" transform="translate(-0.9 2.48) rotate(-1.23)"/><path class="cls-3" d="M117.56,44.14s1.85-6.83-.16-7.62c0,0-2.36-.94-6.21,5.8,0,0,.36,2,3.38,2.48C114.57,44.8,117.36,45.39,117.56,44.14Z"/><g class="cls-18"><path class="cls-15" d="M119.57,37.68s-3,0-3.75,7.45c0,0,3.75,1.74,4,.65s1-7,1-7Z"/></g><path class="cls-15" d="M122.41,44a1,1,0,0,1,.33-.92,1.2,1.2,0,0,1,1.09-.26A1.57,1.57,0,0,1,125,44.27a4.11,4.11,0,0,1-.81-.25,4.11,4.11,0,0,0-.59-.2,1.08,1.08,0,0,0-.45,0A3.1,3.1,0,0,0,122.41,44Z"/><ellipse class="cls-19" cx="123.84" cy="48.87" rx="1.58" ry="3.21" transform="translate(-1.02 2.66) rotate(-1.23)"/><ellipse class="cls-20" cx="123.84" cy="48.87" rx="0.99" ry="2.01" transform="translate(-1.02 2.66) rotate(-1.23)"/><ellipse class="cls-20" cx="123.84" cy="48.87" rx="0.7" ry="1.42" transform="translate(-1.02 2.66) rotate(-1.23)"/><ellipse class="cls-19" cx="124.48" cy="47.5" rx="0.26" ry="0.65" transform="translate(-0.99 2.68) rotate(-1.23)"/><path class="cls-1" d="M103.82,64.14A6.66,6.66,0,0,1,99.6,66a1.94,1.94,0,0,0,2.15,1.25,5.41,5.41,0,0,1-3.86,1.28s0,2,4,1.58L105,69a39.35,39.35,0,0,0,.16-4.45A7,7,0,0,1,103.82,64.14Z"/><path class="cls-21" d="M142.59,139a1.42,1.42,0,0,0-1,.29c-.24.26-.13.81.22.8a4.73,4.73,0,0,1-2.62.42,55.75,55.75,0,0,0-8.27.41.49.49,0,0,0-.38.17.42.42,0,0,0,.06.44A3.19,3.19,0,0,0,133,142.7a142.11,142.11,0,0,0,23.42,1.06,27.17,27.17,0,0,0,7.58-1c.64-.21,1.4-.75,1.14-1.37a1.13,1.13,0,0,0-.42-.45,8.12,8.12,0,0,0-3.83-.88,27.85,27.85,0,0,1-4.53-.86,14.7,14.7,0,0,0-3.69-.25Q147.65,138.91,142.59,139Z"/><ellipse class="cls-21" cx="135.82" cy="141.51" rx="8.99" ry="1.03"/><ellipse class="cls-22" cx="141.19" cy="140.78" rx="2.4" ry="0.28"/><path class="cls-23" d="M152.37,139.33l-8.26.29a10,10,0,0,0,5.23.73l2.92-.14a2.06,2.06,0,0,0-.73-.26l2.52-.46a.49.49,0,0,0-.45-.11"/><path class="cls-24" d="M177.43,137.83s-1.74-10.62.17-17.85l4.09-1.56.64,20.72A24.23,24.23,0,0,0,177.43,137.83Z"/><path class="cls-24" d="M177.08,137.9s-.67-2.25-.77-9.33,1-8.72,1-8.72l-3.25.05s-1.32,1.8-1.22,8.91,1.44,9.2,1.44,9.2Z"/><path class="cls-25" d="M181.65,117.79a.49.49,0,0,0-.32.14c-3,1.32-4.3,1.23-4.3,1.23l-3,0h0c-1,0-1.74,4.35-1.67,9.69s.94,9.65,1.94,9.64l2.61,0a.35.35,0,0,0,.17,0,.53.53,0,0,0,.16,0h.09s1.34-.13,4.33,1.1a.51.51,0,0,0,.33.14l21.11-.29c1.13,0,2-4.95,1.89-11s-1.07-11-2.2-10.94h0l-21.11.29Z"/><g class="cls-26"><path class="cls-21" d="M181.65,117.79a.49.49,0,0,0-.32.14c-3,1.32-4.3,1.23-4.3,1.23l-3,0h0c-1,0-1.74,4.35-1.67,9.69s.94,9.65,1.94,9.64l2.61,0a.35.35,0,0,0,.17,0,.53.53,0,0,0,.16,0h.09s1.34-.13,4.33,1.1a.51.51,0,0,0,.33.14l21.11-.29c1.13,0,2-4.95,1.89-11s-1.07-11-2.2-10.94h0l-21.11.29Z"/></g><circle class="cls-19" cx="179.25" cy="120.07" r="0.53"/><circle class="cls-19" cx="180.42" cy="119.24" r="0.4"/><ellipse class="cls-27" cx="190.22" cy="126.95" rx="0.39" ry="0.94" transform="translate(-1.76 2.68) rotate(-0.8)"/><ellipse class="cls-22" cx="183.3" cy="137.19" rx="0.39" ry="0.94" transform="translate(-9.41 260.83) rotate(-69.5)"/><ellipse class="cls-22" cx="201.92" cy="137.61" rx="0.94" ry="0.39" transform="translate(32.71 313.89) rotate(-80.45)"/><ellipse class="cls-28" cx="185.59" cy="136.47" rx="0.94" ry="0.39" transform="matrix(0.25, -0.97, 0.97, 0.25, 6.77, 281.69)"/><ellipse class="cls-28" cx="185.44" cy="126.3" rx="0.94" ry="0.39" transform="translate(16.5 273.94) rotate(-75.41)"/><rect class="cls-29" x="185.83" y="119.81" width="15.94" height="17.56" rx="1.82" transform="translate(67.94 324.18) rotate(-90.8)"/><rect class="cls-30" x="185.48" y="120" width="15.94" height="17.56" rx="1.82" transform="translate(67.4 324.01) rotate(-90.8)"/><path class="cls-31" d="M181.65,117.79a.49.49,0,0,0-.32.14c-3,1.32-4.3,1.23-4.3,1.23l-3,0h0c-1,0-1.74,4.35-1.67,9.69s.94,9.65,1.94,9.64l2.61,0a.35.35,0,0,0,.17,0,.53.53,0,0,0,.16,0h.09s1.34-.13,4.33,1.1a.51.51,0,0,0,.33.14l21.11-.29c1.13,0,2-4.95,1.89-11s-1.07-11-2.2-10.94h0l-21.11.29Z"/><path class="cls-32" d="M191.57,133.5l.15,1.64-1.37,0-.1-1.73Zm4.49-.07a2.91,2.91,0,0,1,.82.11,1.63,1.63,0,0,1,.59.34,1.55,1.55,0,0,1,.36.54,2,2,0,0,1,.13.71v.36l-1.37.43v-.17a.74.74,0,0,0-.15-.51.6.6,0,0,0-.49-.17l-3.69.05-.16-1.63Z"/><path class="cls-32" d="M195.93,130.38h0a1.07,1.07,0,0,1,.4.52,2,2,0,0,1,.13.67,1.38,1.38,0,0,1-.11.57,1.34,1.34,0,0,1-.3.48,1.41,1.41,0,0,1-.49.33,1.77,1.77,0,0,1-.63.13,1.48,1.48,0,0,1-.57-.11,1.52,1.52,0,0,1-.46-.32,1.64,1.64,0,0,1-.31-.49,2,2,0,0,1-.12-.61,1.49,1.49,0,0,1,.1-.59,1.89,1.89,0,0,1,.22-.4h-.22a.45.45,0,0,0-.46.23,1.44,1.44,0,0,0-.11.59,3,3,0,0,0,.08.62c0,.19.1.38.17.58l-1.2-.28a3.7,3.7,0,0,1-.16-.75,7,7,0,0,1,0-.8,2.89,2.89,0,0,1,.07-.72,1.81,1.81,0,0,1,.28-.63,1.36,1.36,0,0,1,.49-.43,1.61,1.61,0,0,1,.76-.16l2.85,0,.15,1.51Zm-1.38,1a.82.82,0,0,0,.18.41.33.33,0,0,0,.31.14.33.33,0,0,0,.26-.21.83.83,0,0,0,0-.48.82.82,0,0,0-.2-.44.35.35,0,0,0-.31-.11.38.38,0,0,0-.24.2A.69.69,0,0,0,194.55,131.36Z"/><path class="cls-32" d="M193.66,123.57a.3.3,0,0,0-.23.11.43.43,0,0,0-.09.28.45.45,0,0,0,.12.29.36.36,0,0,0,.24.1l2.57-.08.16,1.63h-2.72a.25.25,0,0,0-.24.11.44.44,0,0,0-.09.29.46.46,0,0,0,.09.27.28.28,0,0,0,.26.11l2.72-.11-.12,1.58-4.28.15-.16-1.53h.7v0a2,2,0,0,1-.52-.54,1.61,1.61,0,0,1-.09-1.32,1.24,1.24,0,0,1,.33-.44A1.54,1.54,0,0,1,192,124a1.12,1.12,0,0,1-.13-.55,1.31,1.31,0,0,1,.11-.6,1.16,1.16,0,0,1,.32-.44,1.57,1.57,0,0,1,.49-.28,2.21,2.21,0,0,1,.6-.11l2.87-.08.16,1.63Z"/><line class="cls-33" x1="186.14" y1="135.55" x2="185.95" y2="122.13"/><path class="cls-21" d="M181.11,135.06s1.51.81-4.55.67-7.35,2.9-9.62,3-10.26,1-7,1.61-3.43,1-4,1.74,8.2,2.94,17.47,2,3-2.72.35-3.56,2.84-.46,2.58-.87-2.75-.6-2.75-.6-1-1.4,6.59-1.39C180.17,137.69,182.4,137.56,181.11,135.06Z"/><path class="cls-34" d="M172.21,124.32l.18-.29a3.59,3.59,0,0,1,.32-.36c.28-2.7.8-4.24,1.23-4.25.66,0,1.64,3.57,1.72,9.42,0,1.39,0,2.65-.09,3.77a1.88,1.88,0,0,1,.44-.24c.08-1.22.1-2.45.08-3.53-.05-4-.67-9.88-2.15-9.86C173,119,172.45,121.49,172.21,124.32Z"/><path class="cls-35" d="M178.58,137.82a29.73,29.73,0,0,0-.25-17.7"/><path class="cls-31" d="M173,136.11a38.12,38.12,0,0,1-.7-7.22c-.08-5.34.67-9.67,1.66-9.69s1.86,4.3,1.94,9.64-.67,9.68-1.67,9.69"/><path class="cls-21" d="M153.25,139.15c-.14.28-.13.66-.4.83s-.77-.14-1.17-.22a1.62,1.62,0,0,0-1.41.61,1.12,1.12,0,0,1-.62.39,1,1,0,0,1-.35,0,13.18,13.18,0,0,1-1.38-.47,2.28,2.28,0,0,1-.76.52.85.85,0,0,0-.49.72c.05.41.54.58.94.64a17.76,17.76,0,0,0,4.72.1,5.52,5.52,0,0,0,2.16-.59,1.3,1.3,0,0,0,.53-2.06C154.68,139,153.76,138.09,153.25,139.15Z"/></g></svg>