<svg id="Layer_13" data-name="Layer 13" xmlns="http://www.w3.org/2000/svg" xmlns:xlink="http://www.w3.org/1999/xlink" viewBox="0 0 260 168"><defs><style>.cls-1{fill:#ffbd29;}.cls-2{fill:#ff872e;}.cls-3{fill:#ce6824;}.cls-26,.cls-27,.cls-30,.cls-4,.cls-44,.cls-45,.cls-53,.cls-55{fill:none;}.cls-48,.cls-5{fill:#ff0695;}.cls-5{opacity:0.53;}.cls-6{fill:#ff618b;}.cls-7{fill:#f48c37;}.cls-8{fill:#ffab24;}.cls-54,.cls-9{fill:#fff;}.cls-10{clip-path:url(#clip-path);}.cls-11{fill:#ff7e27;}.cls-12{fill:#f9d89d;}.cls-13{fill:#ffa92c;}.cls-14{clip-path:url(#clip-path-2);}.cls-15{fill:#ffe7b6;}.cls-16{fill:#3acccc;}.cls-17{clip-path:url(#clip-path-3);}.cls-18{fill:#ef526c;}.cls-19{clip-path:url(#clip-path-4);}.cls-20{fill:#7f4a03;}.cls-21{clip-path:url(#clip-path-5);}.cls-22{fill:#ff8098;}.cls-23{clip-path:url(#clip-path-6);}.cls-24{clip-path:url(#clip-path-7);}.cls-25{fill:#594025;}.cls-26{stroke:#7f4a03;stroke-width:2.67px;}.cls-26,.cls-27,.cls-53,.cls-55{stroke-linecap:round;}.cls-26,.cls-30,.cls-44,.cls-45{stroke-miterlimit:10;}.cls-27{stroke:#ffc866;stroke-width:0.62px;}.cls-27,.cls-53,.cls-55{stroke-linejoin:round;}.cls-28{fill:#ea0c67;opacity:0.8;}.cls-29{clip-path:url(#clip-path-8);}.cls-30{stroke:#c6601c;stroke-width:0.11px;}.cls-31{clip-path:url(#clip-path-9);}.cls-32{fill:#ffb273;}.cls-33{clip-path:url(#clip-path-10);}.cls-34{clip-path:url(#clip-path-11);}.cls-35{fill:#ff8db6;}.cls-36{fill:#8c1cb5;}.cls-37{fill:#cc621b;}.cls-38,.cls-41{fill:#6abfbd;}.cls-38{opacity:0.2;}.cls-39{clip-path:url(#clip-path-12);}.cls-40{clip-path:url(#clip-path-13);}.cls-41{opacity:0.1;}.cls-42{fill:#77f7f7;}.cls-43{clip-path:url(#clip-path-14);}.cls-44,.cls-45{stroke:#b73e70;}.cls-44{stroke-width:0.11px;}.cls-45{stroke-width:0.11px;}.cls-46{fill:#e24475;}.cls-47{fill:#efefef;}.cls-48{opacity:0.5;}.cls-49{fill:#b94ee5;}.cls-50{fill:#a141ce;}.cls-51{fill:#e2e2e2;}.cls-52{fill:#e27124;}.cls-53,.cls-55{stroke:#fff;}.cls-53{stroke-width:0.89px;}.cls-53,.cls-54,.cls-55{opacity:0.3;}.cls-55{stroke-width:0.43px;}</style><clipPath id="clip-path"><path class="cls-1" d="M143.71,57.3c10.89-62.45,50.21-43.91,50.21-43.91,15.45,5,18.21-6.51,18.21-6.51C215.66-3,225.8,3.62,225.8,3.62a12.4,12.4,0,0,1,7.36,14.22c-8.42,31.84-44.72,11.67-44.72,11.67-33.28-11-38.71,30.83-38.71,30.83a2.7,2.7,0,0,1-3.62,1.37C143.46,60.73,143.71,57.3,143.71,57.3Z"/></clipPath><clipPath id="clip-path-2"><path class="cls-1" d="M181.41,94.21s-1.3-2.09-3.45-6c-.63-2.57-3.59-14.25-5.37-11.56-1-3-2.18-5.63-3.12-5.11-6.51-13.23-15.84-25.23-30.42-21C124,55,113.3,71,131.73,93.53s29.86,29.35,43.17,25.9C192.84,114.8,197.55,112.27,181.41,94.21Z"/></clipPath><clipPath id="clip-path-3"><path class="cls-7" d="M224.15,131.55s-7.76-2.24-14,2.31c0,0-9.37-3.94-6.76-8.59s19-1.5,19.92-.21S224.15,131.55,224.15,131.55Z"/></clipPath><clipPath id="clip-path-4"><path class="cls-8" d="M237.49,89.23s17.91-6.38,16.78-12.09a.9.9,0,0,0-.06-.22c-.33-.89-3.12-6.36-22-4.79a1.27,1.27,0,0,0-.92.5c-.91,1.25-2.91,5,.07,11C231.35,83.58,234.38,90.75,237.49,89.23Z"/></clipPath><clipPath id="clip-path-5"><path class="cls-1" d="M211,134.14s-.36,1.11-2.73-.07c-10.7-5.32-20.9-22.64-21.81-24.21a1,1,0,0,0-.15-.2,52.63,52.63,0,0,1-10.43-20.53c-4-15,.24-24.52,2.34-28a1.28,1.28,0,0,1,2.1-.15c5.88,7.13,9.63,5.62,10.21,5.31a.57.57,0,0,0,.13-.08c31.8-22.76,48.62-2.2,48.62-2.2s29.1,26.5-7.57,52.27a1.25,1.25,0,0,0-.36.4c-.53.93-2.09,4.58.89,11.07a1.28,1.28,0,0,1,.06,1c-.36,1-1.75,2.78-7.17,3.53a1.29,1.29,0,0,1-1.41-.87c-.51-1.61-2.6-4.67-11-5.58C198.13,124.18,211,134.14,211,134.14Z"/></clipPath><clipPath id="clip-path-6"><path class="cls-8" d="M230,78.76s17.31-6.17,16.82-11.8a1.21,1.21,0,0,0-.38-.74c-1.36-1.32-7.42-6-24.67-4.67a1.28,1.28,0,0,0-1.18,1.37,28.65,28.65,0,0,0,3.27,10.19S226.92,80.28,230,78.76Z"/></clipPath><clipPath id="clip-path-7"><circle class="cls-9" cx="226.13" cy="100.93" r="7.09"/></clipPath><clipPath id="clip-path-8"><path class="cls-2" d="M131.28,127l1-2.2c.57-1.27-.44-3-2.26-3.77s-3.62-.47-4.26.69h0l-1,2.33c-.56,1.27.45,3,2.27,3.77S130.71,128.21,131.28,127Z"/></clipPath><clipPath id="clip-path-9"><ellipse class="cls-3" cx="127.82" cy="125.72" rx="1.95" ry="3.31" transform="translate(-39.14 191.06) rotate(-65.9)"/></clipPath><clipPath id="clip-path-10"><path class="cls-2" d="M70.65,138.44l-2.41,0c-1.38,0-2.49-1.65-2.46-3.65s1.1-3.48,2.42-3.57h0l2.55,0c1.39,0,2.49,1.65,2.46,3.65S72,138.46,70.65,138.44Z"/></clipPath><clipPath id="clip-path-11"><ellipse class="cls-3" cx="71" cy="134.78" rx="3.31" ry="1.95" transform="translate(-64.75 203.92) rotate(-89.21)"/></clipPath><clipPath id="clip-path-12"><path id="SVGID" class="cls-4" d="M115.18,120.39s-2.34,7.87-19.64,6.3-20.63-7.23-20.63-7.23l-7.66,4.32S60,137.86,60.35,139.3s2.54,14.43,2.54,14.43L83,158.52s23.07.36,33.72-1.18,14.32-2.1,17.65-3.65,16.1-11.52,17.21-13.18,1.9-17-.09-17.42-17.19-6.23-18.3-6.12S115.18,120.39,115.18,120.39Z"/></clipPath><clipPath id="clip-path-13"><path class="cls-5" d="M69.4,138.41c0,8.45,9.63,8.24,9.63,8.24h8c.67,0,.86-1.15.86-1.15,0,1.2.75,1.17.75,1.17h4c.74,0,.87-1.21.87-1.21,0,1.14.61,1.17.61,1.17h3.64c.66,0,.84-1.26.84-1.26-.1,1.39.9,1.24.9,1.24h3.84c.82,0,.82-1.1.82-1.1a1,1,0,0,0,1.16,1.15h7.75c.91,0,1-1,1-1h2.81c1.23,2.12,5.07,1.74,5.07,1.74,5.41,0,15.63-8.66,15.63-8.66h1.56c.8,1.52,1.37,0,1.37,0h4.93s.81,0,.82-1.7v-5.69s0-1.62-.81-1.63H140.5s-.57-1.53-1.37,0h-1.56S127.37,121,122,121c0,0-3.84-.39-5.08,1.73h-2.81s-.06-1-1-1h-7.74a1,1,0,0,0-1.17,1.15s0-1.1-.82-1.1H99.52s-1-.15-.9,1.23c0,0-.17-1.25-.83-1.25H94.14s-.6,0-.6,1.17c0,0-.14-1.21-.87-1.21h-4s-.76,0-.76,1.17c0,0-.18-1.15-.85-1.15h-8s-9.64-.23-9.65,8.22Z"/></clipPath><clipPath id="clip-path-14"><path class="cls-6" d="M140.75,129.48h5.73a1.08,1.08,0,0,1,.72,1.11v7.21s-.23,1.11-1.07,1.11h-5.65s-.72-.52-.71-5.07S140.75,129.48,140.75,129.48Z"/></clipPath></defs><path class="cls-1" d="M143.71,57.3c10.89-62.45,50.21-43.91,50.21-43.91,15.45,5,18.21-6.51,18.21-6.51C215.66-3,225.8,3.62,225.8,3.62a12.4,12.4,0,0,1,7.36,14.22c-8.42,31.84-44.72,11.67-44.72,11.67-33.28-11-38.71,30.83-38.71,30.83a2.7,2.7,0,0,1-3.62,1.37C143.46,60.73,143.71,57.3,143.71,57.3Z"/><g class="cls-10"><ellipse class="cls-11" cx="221.12" cy="33.49" rx="4.78" ry="14.31" transform="translate(-0.85 60.79) rotate(-15.62)"/><ellipse class="cls-11" cx="204.53" cy="35.63" rx="4.78" ry="14.31" transform="translate(-1.62 11.03) rotate(-3.08)"/></g><path class="cls-12" d="M185.92,138.59s7.3-.38,7.6,2.84c0,0,2.2,5-.88,5.13,0,0-.52,3.06-4.58,3.19s-10.17,3.55-12.18-6.71C175.88,143,175.65,136.35,185.92,138.59Z"/><path class="cls-13" d="M174.65,112s4.87,21.83,11.27,26.57c0,0-1.69,7.39-7.83,5.84s-10.58-19.75-11.75-27.89S172.12,106.46,174.65,112Z"/><path class="cls-12" d="M143.67,101.49s6.79,2.69,5.73,5.75c0,0-.06,5.42-2.93,4.3,0,0-1.75,2.56-5.49,1s-10.73-1-8.3-11.17C132.68,101.37,135.25,95.19,143.67,101.49Z"/><path class="cls-13" d="M144.43,72.64s-4.63,21.89-.76,28.85c0,0-4.61,6-9.55,2.07s-1.44-22.36.87-30.25S144.44,66.54,144.43,72.64Z"/><path class="cls-1" d="M181.41,94.21s-1.3-2.09-3.45-6c-.63-2.57-3.59-14.25-5.37-11.56-1-3-2.18-5.63-3.12-5.11-6.51-13.23-15.84-25.23-30.42-21C124,55,113.3,71,131.73,93.53s29.86,29.35,43.17,25.9C192.84,114.8,197.55,112.27,181.41,94.21Z"/><g class="cls-14"><ellipse class="cls-11" cx="169.8" cy="74.23" rx="11.72" ry="5.3" transform="translate(65.81 227.61) rotate(-79.48)"/><ellipse class="cls-11" cx="160.02" cy="63.59" rx="11.72" ry="5.3" transform="translate(59.16 203.15) rotate(-75.82)"/><path class="cls-15" d="M177.64,122.77s5.25-4.29-5.86-8.54-16-2.11-26.92-16.74-14.37-24.57-18.29-25.22S117.51,71,120,84.38s32.06,43.7,32.06,43.7,12.91,7.4,13.64,7S177.64,122.77,177.64,122.77Z"/></g><path class="cls-16" d="M178.8,87.72s-.69,16.78,6.14,29.27l8.27-4.08S186.72,77.4,178.8,87.72Z"/><path class="cls-7" d="M224.15,131.55s-7.76-2.24-14,2.31c0,0-9.37-3.94-6.76-8.59s19-1.5,19.92-.21S224.15,131.55,224.15,131.55Z"/><g class="cls-17"><path class="cls-18" d="M208.83,122.67a8.84,8.84,0,0,1,.89,10.59C206.2,139.35,196.55,118.5,208.83,122.67Z"/></g><path class="cls-9" d="M221,127.43s-2.09,3.69,2.26,3C223.28,130.4,223.33,129.05,221,127.43Z"/><path class="cls-8" d="M237.49,89.23s17.91-6.38,16.78-12.09a.9.9,0,0,0-.06-.22c-.33-.89-3.12-6.36-22-4.79a1.27,1.27,0,0,0-.92.5c-.91,1.25-2.91,5,.07,11C231.35,83.58,234.38,90.75,237.49,89.23Z"/><g class="cls-19"><path class="cls-20" d="M255,83.71s-4.67-6.74-22.48,3.17c0,0,1.95,11.08,4.85,10.05s17.11-8.5,17.11-8.5Z"/></g><path class="cls-1" d="M211,134.14s-.36,1.11-2.73-.07c-10.7-5.32-20.9-22.64-21.81-24.21a1,1,0,0,0-.15-.2,52.63,52.63,0,0,1-10.43-20.53c-4-15,.24-24.52,2.34-28a1.28,1.28,0,0,1,2.1-.15c5.88,7.13,9.63,5.62,10.21,5.31a.57.57,0,0,0,.13-.08c31.8-22.76,48.62-2.2,48.62-2.2s29.1,26.5-7.57,52.27a1.25,1.25,0,0,0-.36.4c-.53.93-2.09,4.58.89,11.07a1.28,1.28,0,0,1,.06,1c-.36,1-1.75,2.78-7.17,3.53a1.29,1.29,0,0,1-1.41-.87c-.51-1.61-2.6-4.67-11-5.58C198.13,124.18,211,134.14,211,134.14Z"/><g class="cls-21"><ellipse class="cls-15" cx="209.8" cy="133.17" rx="27.44" ry="24.94" transform="translate(-38.2 148.89) rotate(-36.03)"/></g><ellipse class="cls-22" cx="230.62" cy="125.07" rx="2.51" ry="4.29" transform="translate(-29.45 159.59) rotate(-36.03)"/><ellipse class="cls-11" cx="216.69" cy="77.5" rx="4.6" ry="12.28" transform="translate(-4.13 142.29) rotate(-36.03)"/><ellipse class="cls-11" cx="229.32" cy="69.07" rx="4.6" ry="12.9" transform="translate(3.24 148.11) rotate(-36.03)"/><path class="cls-8" d="M230,78.76s17.31-6.17,16.82-11.8a1.21,1.21,0,0,0-.38-.74c-1.36-1.32-7.42-6-24.67-4.67a1.28,1.28,0,0,0-1.18,1.37,28.65,28.65,0,0,0,3.27,10.19S226.92,80.28,230,78.76Z"/><g class="cls-23"><path class="cls-20" d="M247.59,73.24s-4.67-6.74-22.48,3.17c0,0,1.95,11.08,4.85,10s17.1-8.5,17.1-8.5Z"/></g><circle class="cls-9" cx="226.13" cy="100.93" r="7.09"/><g class="cls-24"><circle class="cls-25" cx="228.67" cy="104.79" r="5.29"/><circle class="cls-25" cx="228.67" cy="104.79" r="3.9"/><circle class="cls-9" cx="230.16" cy="100.53" r="1.57"/></g><path class="cls-1" d="M219.33,93.16s6.89,8.48,17.3,9.77c0,0-2.36-7.17-6.55-10S219.33,93.16,219.33,93.16Z"/><path class="cls-26" d="M242.9,96.77s-11.39.71-14.65-7.17"/><path class="cls-27" d="M208.15,102.14s11.93,8.27,12.77,18.33"/><path class="cls-27" d="M204,105s12.8,6.84,14.79,16.74"/><path class="cls-27" d="M200.41,107s13.11,6.23,15.58,16"/><path class="cls-15" d="M178.19,140.56s7,2,6.28,5.14c0,0,.49,5.4-2.48,4.57,0,0-1.48,2.72-5.36,1.55s-10.78.09-9.38-10.28C167.25,141.54,169.18,135.14,178.19,140.56Z"/><path class="cls-1" d="M176.05,111.78s-2.4,22.24,2.14,28.78c0,0-4,6.45-9.29,3s-3.68-22.11-2.17-30.19S175.45,105.71,176.05,111.78Z"/><path class="cls-15" d="M136.94,104.46s7.07,1.81,6.4,5c0,0,.62,5.39-2.37,4.63,0,0-1.41,2.76-5.32,1.68s-10.77.35-9.63-10C126,105.71,127.8,99.26,136.94,104.46Z"/><path class="cls-1" d="M134.09,75.74s-1.86,22.29,2.85,28.72c0,0-3.82,6.55-9.22,3.24s-4.22-22-2.91-30.12S133.34,69.68,134.09,75.74Z"/><path class="cls-28" d="M77.61,121.87s-.15-.34,7.55,1.74,14.32,2.65,19,1.51,10.27-3.43,9.77-2.61c0,0-4.71,6-19,4.46S78.1,122.58,77.61,121.87Z"/><path class="cls-2" d="M131.28,127l1-2.2c.57-1.27-.44-3-2.26-3.77s-3.62-.47-4.26.69h0l-1,2.33c-.56,1.27.45,3,2.27,3.77S130.71,128.21,131.28,127Z"/><g class="cls-29"><line class="cls-30" x1="127.75" y1="118.75" x2="123.24" y2="128.82"/><line class="cls-30" x1="127.47" y1="118.62" x2="122.96" y2="128.7"/><line class="cls-30" x1="128.09" y1="118.9" x2="123.58" y2="128.98"/><line class="cls-30" x1="128.43" y1="119.05" x2="123.92" y2="129.13"/><line class="cls-30" x1="128.77" y1="119.21" x2="124.26" y2="129.28"/><line class="cls-30" x1="129.11" y1="119.36" x2="124.6" y2="129.44"/><line class="cls-30" x1="129.45" y1="119.51" x2="124.95" y2="129.59"/><line class="cls-30" x1="129.8" y1="119.66" x2="125.29" y2="129.74"/><line class="cls-30" x1="130.14" y1="119.82" x2="125.63" y2="129.89"/><line class="cls-30" x1="130.48" y1="119.97" x2="125.97" y2="130.05"/><line class="cls-30" x1="130.82" y1="120.12" x2="126.31" y2="130.2"/><line class="cls-30" x1="131.16" y1="120.28" x2="126.65" y2="130.35"/><line class="cls-30" x1="131.5" y1="120.43" x2="127" y2="130.51"/><line class="cls-30" x1="131.85" y1="120.58" x2="127.34" y2="130.66"/><line class="cls-30" x1="132.19" y1="120.73" x2="127.68" y2="130.81"/><line class="cls-30" x1="132.53" y1="120.89" x2="128.02" y2="130.96"/><line class="cls-30" x1="132.87" y1="121.04" x2="128.36" y2="131.12"/><line class="cls-30" x1="133.21" y1="121.19" x2="128.7" y2="131.27"/><line class="cls-30" x1="133.55" y1="121.35" x2="129.05" y2="131.42"/></g><ellipse class="cls-2" cx="127.84" cy="125.67" rx="2.28" ry="3.66" transform="translate(-39.08 191.05) rotate(-65.9)"/><ellipse class="cls-3" cx="127.82" cy="125.72" rx="1.95" ry="3.31" transform="translate(-39.14 191.06) rotate(-65.9)"/><g class="cls-31"><ellipse class="cls-32" cx="129.12" cy="123.03" rx="2.04" ry="3.43" transform="translate(-35.91 190.66) rotate(-65.9)"/></g><path class="cls-2" d="M70.65,138.44l-2.41,0c-1.38,0-2.49-1.65-2.46-3.65s1.1-3.48,2.42-3.57h0l2.55,0c1.39,0,2.49,1.65,2.46,3.65S72,138.46,70.65,138.44Z"/><g class="cls-33"><line class="cls-30" x1="64.7" y1="131.78" x2="75.74" y2="131.93"/><line class="cls-30" x1="64.7" y1="131.48" x2="75.74" y2="131.63"/><line class="cls-30" x1="64.69" y1="132.15" x2="75.73" y2="132.31"/><line class="cls-30" x1="64.69" y1="132.53" x2="75.73" y2="132.68"/><line class="cls-30" x1="64.68" y1="132.9" x2="75.72" y2="133.06"/><line class="cls-30" x1="64.68" y1="133.28" x2="75.72" y2="133.43"/><line class="cls-30" x1="64.67" y1="133.65" x2="75.71" y2="133.8"/><line class="cls-30" x1="64.67" y1="134.03" x2="75.71" y2="134.18"/><line class="cls-30" x1="64.66" y1="134.4" x2="75.7" y2="134.55"/><line class="cls-30" x1="64.66" y1="134.77" x2="75.7" y2="134.93"/><line class="cls-30" x1="64.65" y1="135.15" x2="75.69" y2="135.3"/><line class="cls-30" x1="64.65" y1="135.52" x2="75.69" y2="135.67"/><line class="cls-30" x1="64.64" y1="135.9" x2="75.68" y2="136.05"/><line class="cls-30" x1="64.64" y1="136.27" x2="75.68" y2="136.42"/><line class="cls-30" x1="64.63" y1="136.64" x2="75.67" y2="136.8"/><line class="cls-30" x1="64.63" y1="137.02" x2="75.67" y2="137.17"/><line class="cls-30" x1="64.62" y1="137.39" x2="75.66" y2="137.55"/><line class="cls-30" x1="64.62" y1="137.77" x2="75.65" y2="137.92"/><line class="cls-30" x1="64.61" y1="138.14" x2="75.65" y2="138.29"/></g><ellipse class="cls-2" cx="70.94" cy="134.78" rx="3.66" ry="2.28" transform="translate(-64.81 203.86) rotate(-89.21)"/><ellipse class="cls-3" cx="71" cy="134.78" rx="3.31" ry="1.95" transform="translate(-64.75 203.92) rotate(-89.21)"/><g class="cls-34"><ellipse class="cls-32" cx="68.01" cy="134.83" rx="3.43" ry="2.04" transform="translate(-67.75 200.97) rotate(-89.21)"/></g><path class="cls-35" d="M146.88,129.48h-.63v1.6a23.54,23.54,0,0,0,0,6.2v1.61h.63c.46,0,.83-2.11.84-4.71S147.34,129.48,146.88,129.48Z"/><circle class="cls-36" cx="85.43" cy="136.1" r="5.73" transform="translate(-19.73 14.59) rotate(-8.76)"/><circle class="cls-37" cx="121.02" cy="135.99" r="5.73" transform="translate(-19.29 20.01) rotate(-8.76)"/><path class="cls-38" d="M74.29,124.7s3.77,7.06.55,19.24L126,144l11.27-6.4h1.93v-6.7h-2.78s-12.82-9.78-19.3-6.87H114s-2.79,4.63-17.11,4.61-20.17-5.29-20.17-5.29Z"/><g class="cls-39"><path class="cls-5" d="M69.4,138.41c0,8.45,9.63,8.24,9.63,8.24h8c.67,0,.86-1.15.86-1.15,0,1.2.75,1.17.75,1.17h4c.74,0,.87-1.21.87-1.21,0,1.14.61,1.17.61,1.17h3.64c.66,0,.84-1.26.84-1.26-.1,1.39.9,1.24.9,1.24h3.84c.82,0,.82-1.1.82-1.1a1,1,0,0,0,1.16,1.15h7.75c.91,0,1-1,1-1h2.81c1.23,2.12,5.07,1.74,5.07,1.74,5.41,0,15.63-8.66,15.63-8.66h1.56c.8,1.52,1.37,0,1.37,0h4.93s.81,0,.82-1.7v-5.69s0-1.62-.81-1.63H140.5s-.57-1.53-1.37,0h-1.56S127.37,121,122,121c0,0-3.84-.39-5.08,1.73h-2.81s-.06-1-1-1h-7.74a1,1,0,0,0-1.17,1.15s0-1.1-.82-1.1H99.52s-1-.15-.9,1.23c0,0-.17-1.25-.83-1.25H94.14s-.6,0-.6,1.17c0,0-.14-1.21-.87-1.21h-4s-.76,0-.76,1.17c0,0-.18-1.15-.85-1.15h-8s-9.64-.23-9.65,8.22Z"/><g class="cls-40"><path class="cls-41" d="M70.79,137.43s1.54,10,8.52,12.43l38,0s12.76-6.31,19.2-12.29h3l.1-1.94-5.34-.22S127.8,143.37,118,143,78.1,143,78.1,143,73.44,143.87,70.79,137.43Z"/><path class="cls-42" d="M139.58,127.85a23.22,23.22,0,0,0,.71,14.7l.55-2.55a22.33,22.33,0,0,1,0-11.76Z"/></g></g><path class="cls-6" d="M140.75,129.48h5.73a1.08,1.08,0,0,1,.72,1.11v7.21s-.23,1.11-1.07,1.11h-5.65s-.72-.52-.71-5.07S140.75,129.48,140.75,129.48Z"/><g class="cls-43"><line class="cls-44" x1="141.17" y1="130.03" x2="146.49" y2="130.04"/><line class="cls-44" x1="141.15" y1="130.7" x2="146.47" y2="130.7"/><line class="cls-44" x1="141.13" y1="131.36" x2="146.45" y2="131.37"/><line class="cls-44" x1="141.11" y1="132.03" x2="146.44" y2="132.04"/><line class="cls-44" x1="141.09" y1="132.7" x2="146.42" y2="132.7"/><line class="cls-44" x1="141.07" y1="133.36" x2="146.4" y2="133.37"/><line class="cls-44" x1="141.05" y1="134.03" x2="146.38" y2="134.03"/><line class="cls-44" x1="141.03" y1="134.69" x2="146.36" y2="134.7"/><line class="cls-44" x1="141.01" y1="135.36" x2="146.34" y2="135.36"/><line class="cls-44" x1="140.99" y1="136.02" x2="146.32" y2="136.03"/><line class="cls-44" x1="140.98" y1="136.69" x2="146.3" y2="136.69"/><line class="cls-44" x1="140.96" y1="137.35" x2="146.28" y2="137.36"/><line class="cls-44" x1="140.98" y1="138.02" x2="146.3" y2="138.03"/><line class="cls-45" x1="140.98" y1="138.56" x2="146.54" y2="138.57"/><path class="cls-46" d="M142.09,129s-2.26,2.95,0,11.8l-3.25,0S138,129.07,138,129s.77-1.33,1.14-1.33A22,22,0,0,1,142.09,129Z"/><path class="cls-35" d="M146.53,128.93s-1.15,2,0,11.09c0,0,3.18.19,3.14-.22s-.69-7.76-.73-8.06-.4-.78-.48-1.14S146.53,128.93,146.53,128.93Z"/></g><circle class="cls-47" cx="85.43" cy="135.64" r="0.83"/><path class="cls-47" d="M81.82,143.24c.08-.21,2.77-7.62,2.77-7.62l1.67.18-2.08,7.44Z"/><circle class="cls-47" cx="120.67" cy="135.71" r="0.83"/><path class="cls-47" d="M122.09,143.28c-.07-.21-.58-7.59-.58-7.59l-1.67.18.12,7.34Z"/><ellipse class="cls-48" cx="72.56" cy="133.51" rx="6.32" ry="1.07" transform="translate(-61.02 205.93) rotate(-89.94)"/><circle class="cls-36" cx="82.95" cy="143.1" r="7.44" transform="translate(-20.82 14.3) rotate(-8.76)"/><circle class="cls-49" cx="82.95" cy="143.1" r="6.5" transform="translate(-20.82 14.3) rotate(-8.76)"/><circle class="cls-50" cx="82.95" cy="143.1" r="4.67" transform="translate(-20.82 14.3) rotate(-8.76)"/><circle class="cls-51" cx="83.04" cy="143.27" r="1.16"/><circle class="cls-37" cx="120.89" cy="143.14" r="7.44" transform="translate(-20.38 20.07) rotate(-8.76)"/><circle class="cls-2" cx="120.89" cy="143.14" r="6.5" transform="translate(-20.38 20.07) rotate(-8.76)"/><circle class="cls-52" cx="120.89" cy="143.14" r="4.75" transform="translate(-20.38 20.07) rotate(-8.76)"/><circle class="cls-51" cx="121" cy="143.31" r="1.16"/><path class="cls-53" d="M121.89,122.12s5.16.83,12.86,6.89"/><path class="cls-54" d="M126.25,127.32a17.66,17.66,0,0,1,8.83,3.5,8.49,8.49,0,0,0,.07,3.35s-6.56-2.14-9-1.36C126.17,132.81,125.25,128.82,126.25,127.32Z"/><path class="cls-55" d="M104.36,129.93s-1.64,5-.23,13.62"/><path class="cls-55" d="M98.59,129.93s-1.65,5-.23,13.61"/><path class="cls-55" d="M94,129.92s-1.65,5-.23,13.62"/></svg>