<svg id="Layer_2" data-name="Layer 2" xmlns="http://www.w3.org/2000/svg" xmlns:xlink="http://www.w3.org/1999/xlink" viewBox="0 0 260 168"><defs><style>.cls-1{fill:#ffbd29;}.cls-2{fill:#eaa61f;}.cls-3{fill:#5b091b;}.cls-4{clip-path:url(#clip-path);}.cls-5{fill:#ff7e27;}.cls-6{clip-path:url(#clip-path-2);}.cls-7{fill:#f7cc81;}.cls-8{clip-path:url(#clip-path-3);}.cls-9{clip-path:url(#clip-path-4);}.cls-10{fill:#ffe7b6;}.cls-11{fill:#3acccc;}.cls-12{clip-path:url(#clip-path-5);}.cls-13{clip-path:url(#clip-path-6);}.cls-14{fill:#ffab24;}.cls-15{fill:#7f4a03;}.cls-16{clip-path:url(#clip-path-7);}.cls-17{fill:#fff;}.cls-18{fill:#594025;}.cls-19{clip-path:url(#clip-path-8);}.cls-20{fill:#a82648;}.cls-21{fill:none;stroke:#a57749;stroke-linecap:round;stroke-linejoin:round;stroke-width:0.43px;}.cls-22{fill:#ff8098;}</style><clipPath id="clip-path"><path class="cls-1" d="M128.7,133.59S157.08,144,160.43,121c0,0,4.33-25,17.15-21.45,0,0,6.81.76,7.28,5.84,0,0,.86,6.93-6,6.09,0,0-7.58-.74-9.21,9.88,0,0-1.23,26.9-41.43,14.8"/></clipPath><clipPath id="clip-path-2"><path class="cls-2" d="M119.33,121s-12.12,2.32-5.16,17.16c0,0-6.75,1.81-3.22,7,0,0,4,3.35,11-2.13l3-12.22Z"/></clipPath><clipPath id="clip-path-3"><path class="cls-2" d="M140.81,121s12.12,2.32,5.16,17.16c0,0,6.74,1.81,3.22,7,0,0-4.06,3.35-11-2.13l-2.95-12.22Z"/></clipPath><clipPath id="clip-path-4"><path class="cls-1" d="M138.24,95.83l-8-.34-8,.34s-7.51,38.49-3.08,44.22,8.18,5.73,11.09,5.73,6.65,0,11.08-5.73S138.24,95.83,138.24,95.83Z"/></clipPath><clipPath id="clip-path-5"><path class="cls-1" d="M120.21,106.72s-1.11,34.62-4.11,34.62-2,4.44-.45,4.44a4.69,4.69,0,0,0,4.56.48,4.13,4.13,0,0,0,4.1-.48s1.94-4.16-1.24-6"/></clipPath><clipPath id="clip-path-6"><path class="cls-1" d="M140.18,106.72s1.11,34.62,4.11,34.62,2,4.44.45,4.44a4.69,4.69,0,0,1-4.56.48,4.13,4.13,0,0,1-4.1-.48s-1.94-4.16,1.24-6"/></clipPath><clipPath id="clip-path-7"><path class="cls-1" d="M151.34,76.83c-3.48-.87-9.26-6.67-11.73-9.28-.31-.36-.63-.71-1-1l-.23-.24h0a18.73,18.73,0,0,0-31.15,8.9h0v.07a18,18,0,0,0-.38,2c-.76,3.68-2.56,11.26-5,13.76a2.17,2.17,0,0,0,2.35.75s.3,12.83,25,6.4l0,0c.44-.09.89-.2,1.33-.32s.88-.28,1.31-.44v.06c24.38-7.62,17.85-18.67,17.85-18.67A2.17,2.17,0,0,0,151.34,76.83Z"/></clipPath><clipPath id="clip-path-8"><path class="cls-3" d="M124.6,94.1a5.46,5.46,0,0,0,5.85,1.53c3.57-1.2,3.42-4.15,3.42-4.15s-1.22,2.4-4.77.85C129.1,92.33,128.07,94.7,124.6,94.1Z"/></clipPath></defs><path class="cls-1" d="M128.7,133.59S157.08,144,160.43,121c0,0,4.33-25,17.15-21.45,0,0,6.81.76,7.28,5.84,0,0,.86,6.93-6,6.09,0,0-7.58-.74-9.21,9.88,0,0-1.23,26.9-41.43,14.8"/><g class="cls-4"><ellipse class="cls-5" cx="169.97" cy="103.27" rx="3.41" ry="7.17" transform="translate(-27.03 130.58) rotate(-39.17)"/><ellipse class="cls-5" cx="163.56" cy="110.58" rx="3.41" ry="7.17" transform="translate(-8.67 207.1) rotate(-63.33)"/></g><path class="cls-2" d="M119.33,121s-12.12,2.32-5.16,17.16c0,0-6.75,1.81-3.22,7,0,0,4,3.35,11-2.13l3-12.22Z"/><g class="cls-6"><path class="cls-7" d="M112.23,136.78s9.86,7.2,17.83-.93c0,0,1.4,18.94,0,19.31s-28.5-.19-29.89-2.14-1.58-6.49,0-8.44,3.71-5.29,5-6,1.39-1.11,1.39-1.11"/></g><path class="cls-2" d="M140.81,121s12.12,2.32,5.16,17.16c0,0,6.74,1.81,3.22,7,0,0-4.06,3.35-11-2.13l-2.95-12.22Z"/><g class="cls-8"><path class="cls-7" d="M135.07,140.44c.11-.21,7.44.49,13.84-4s-.38-.12-.38-.12,21.81,9.19,14,12.43,6.53,6.6-16.32,4.27-26.5-2.22-25.56-3.89a10.18,10.18,0,0,0,1.13-2.52Z"/></g><path class="cls-1" d="M138.24,95.83l-8-.34-8,.34s-7.51,38.49-3.08,44.22,8.18,5.73,11.09,5.73,6.65,0,11.08-5.73S138.24,95.83,138.24,95.83Z"/><g class="cls-9"><ellipse class="cls-10" cx="130.06" cy="125.06" rx="8.05" ry="19.65"/></g><path class="cls-11" d="M120.66,96.54s8.26,9.31,18.52.7a2.08,2.08,0,0,0,.71-1.75l-.11-1.39"/><path class="cls-1" d="M121.86,97.83a6.1,6.1,0,0,1-2.58,4.92,4,4,0,0,0,1.34,0,13.52,13.52,0,0,1-1.7,2.42,1.51,1.51,0,0,0,.79,0,4.52,4.52,0,0,1-1.56,1.42l2.87.11a1.49,1.49,0,0,0,.73-.09,1.35,1.35,0,0,0,.51-1.41,27.37,27.37,0,0,0-.56-3.72c0-.23.19-.58.23-.81s-.5-.57-.33-.84a1,1,0,0,0,.14-.92"/><path class="cls-1" d="M138.6,97.83a6.1,6.1,0,0,0,2.58,4.92,4,4,0,0,1-1.34,0,13.52,13.52,0,0,0,1.7,2.42,1.51,1.51,0,0,1-.79,0,4.52,4.52,0,0,0,1.56,1.42l-2.87.11a1.49,1.49,0,0,1-.73-.09,1.35,1.35,0,0,1-.51-1.41,27.37,27.37,0,0,1,.56-3.72c.05-.23-.19-.58-.23-.81s.5-.57.33-.84a1,1,0,0,1-.14-.92"/><path class="cls-1" d="M120.21,106.72s-1.11,34.62-4.11,34.62-2,4.44-.45,4.44a4.69,4.69,0,0,0,4.56.48,4.13,4.13,0,0,0,4.1-.48s1.94-4.16-1.24-6"/><g class="cls-12"><path class="cls-10" d="M115.2,139.75s4.45,5.15,9.7-1.6c0,0,5.9,19.14,4.6,19.24s-10.77,2-14.67.55-6-4.27-4.9-5.84-2.24-9.56-2.24-9.56Z"/></g><path class="cls-1" d="M140.18,106.72s1.11,34.62,4.11,34.62,2,4.44.45,4.44a4.69,4.69,0,0,1-4.56.48,4.13,4.13,0,0,1-4.1-.48s-1.94-4.16,1.24-6"/><g class="cls-13"><path class="cls-10" d="M136.53,139.1s2.72,3.13,8.7,1.11l5,9.89a15.5,15.5,0,0,1-7.2,1.25c-3.83-.34-5,.35-7.52-1.25s-4.25-2.25-4-3.49S136.53,139.1,136.53,139.1Z"/></g><path class="cls-14" d="M112.71,66.65s-17.14-8-5.46,8.6c0,0,2.7.49,4.73-2.88C112,72.37,114.88,69.41,112.71,66.65Z"/><path class="cls-15" d="M111.21,67.69s-10.62-5-3.38,5.32c0,0,1.67.31,2.92-1.78C110.75,71.23,112.55,69.4,111.21,67.69Z"/><path class="cls-14" d="M128.52,62.13s10.3-15.88,9.18,4.4c0,0-2,1.85-5.53.06C132.17,66.59,128.14,65.61,128.52,62.13Z"/><path class="cls-15" d="M130.81,62.08s6.38-9.83,5.68,2.73c0,0-1.26,1.15-3.43,0C133.06,64.85,130.57,64.24,130.81,62.08Z"/><path class="cls-1" d="M151.34,76.83c-3.48-.87-9.26-6.67-11.73-9.28-.31-.36-.63-.71-1-1l-.23-.24h0a18.73,18.73,0,0,0-31.15,8.9h0v.07a18,18,0,0,0-.38,2c-.76,3.68-2.56,11.26-5,13.76a2.17,2.17,0,0,0,2.35.75s.3,12.83,25,6.4l0,0c.44-.09.89-.2,1.33-.32s.88-.28,1.31-.44v.06c24.38-7.62,17.85-18.67,17.85-18.67A2.17,2.17,0,0,0,151.34,76.83Z"/><g class="cls-16"><circle class="cls-10" cx="130.25" cy="96.59" r="12.86"/><ellipse class="cls-5" cx="105.71" cy="83.66" rx="5.35" ry="1.75" transform="translate(-18.94 32.31) rotate(-15.97)"/><ellipse class="cls-5" cx="107" cy="77.42" rx="5.35" ry="1.75" transform="translate(-17.17 32.42) rotate(-15.97)"/><ellipse class="cls-5" cx="143.87" cy="72.74" rx="5.35" ry="1.75" transform="translate(-14.46 42.39) rotate(-15.97)"/><ellipse class="cls-5" cx="139.48" cy="68.13" rx="5.35" ry="1.75" transform="translate(-13.36 41) rotate(-15.97)"/><ellipse class="cls-5" cx="117.64" cy="65.32" rx="1.69" ry="5.91" transform="translate(-13.43 34.89) rotate(-15.97)"/><ellipse class="cls-5" cx="124.05" cy="63.49" rx="1.69" ry="5.91" transform="translate(-12.68 36.58) rotate(-15.97)"/></g><circle class="cls-17" cx="115.95" cy="83.61" r="4.51"/><circle class="cls-18" cx="115.95" cy="83.61" r="3.12"/><circle class="cls-18" cx="115.95" cy="83.61" r="2.05"/><circle class="cls-17" cx="114.16" cy="81.98" r="1.03"/><circle class="cls-17" cx="135.2" cy="78.1" r="4.51"/><circle class="cls-18" cx="135.2" cy="78.1" r="3.12"/><circle class="cls-18" cx="135.2" cy="78.1" r="2.05"/><circle class="cls-17" cx="133.41" cy="76.48" r="1.03"/><path class="cls-1" d="M120.2,87.09s-2.51-1.31-9.22,1.85a33.67,33.67,0,0,0,3.4.52c.25-.07,5.6-1.53,5.68-1.62A3.1,3.1,0,0,0,120.2,87.09Z"/><path class="cls-1" d="M134.21,83.08s1.44-2.43,8.8-3.3c0,0-2.36,2.17-2.61,2.24s-5.56,1.66-5.67,1.62S134.21,83.08,134.21,83.08Z"/><path class="cls-15" d="M111.73,77.23a2.14,2.14,0,0,1,.79-1.34,3.19,3.19,0,0,1,4.29.12,11.58,11.58,0,0,1-1.39.29c-.43.06-.82.16-1.2.22A19.27,19.27,0,0,0,111.73,77.23Z"/><path class="cls-15" d="M135.47,70.43a20.91,20.91,0,0,0-2.49.72c-.36.15-.74.28-1.13.45a11.29,11.29,0,0,1-1.34.49,3.18,3.18,0,0,1,3.58-2.37A2.21,2.21,0,0,1,135.47,70.43Z"/><path class="cls-3" d="M124.6,94.1a5.46,5.46,0,0,0,5.85,1.53c3.57-1.2,3.42-4.15,3.42-4.15s-1.22,2.4-4.77.85C129.1,92.33,128.07,94.7,124.6,94.1Z"/><g class="cls-19"><ellipse class="cls-20" cx="130.64" cy="96.74" rx="4.18" ry="2.43" transform="translate(-20.04 35.74) rotate(-14.48)"/><ellipse class="cls-17" cx="127.12" cy="94.02" rx="0.45" ry="0.74" transform="translate(-25.23 51.73) rotate(-20.97)"/><ellipse class="cls-17" cx="131.75" cy="92.8" rx="0.45" ry="0.74" transform="translate(-16.35 29.27) rotate(-11.94)"/></g><path class="cls-21" d="M127.75,87.69,129,92.17s-.78,3.33-5.49,1.56"/><path class="cls-21" d="M127.75,87.69,129,92.17s2.41,2.42,5.49-1.55"/><ellipse class="cls-22" cx="127.42" cy="86.73" rx="3.15" ry="1.64" transform="translate(-18.94 38.4) rotate(-15.97)"/></svg>