<svg id="Layer_1" data-name="Layer 1" xmlns="http://www.w3.org/2000/svg" xmlns:xlink="http://www.w3.org/1999/xlink" viewBox="0 0 260 168"><defs><style>.cls-1{fill:#f9a806;}.cls-2{fill:#ffab15;}.cls-3{fill:#ffbd29;}.cls-4{clip-path:url(#clip-path);}.cls-5{fill:#ff7e27;}.cls-6{clip-path:url(#clip-path-2);}.cls-7{fill:#ffda99;}.cls-8{clip-path:url(#clip-path-3);}.cls-9{clip-path:url(#clip-path-4);}.cls-10{fill:#3acccc;}.cls-11{fill:#ffe7b6;}.cls-12{fill:#ffab24;}.cls-13{fill:#7f4a03;}.cls-14{clip-path:url(#clip-path-5);}.cls-15{fill:#fff;}.cls-16{fill:#594025;}.cls-17{fill:none;stroke:#a57749;stroke-miterlimit:10;stroke-width:0.23px;}.cls-18{fill:#ff8098;}.cls-19{clip-path:url(#clip-path-6);}.cls-20{clip-path:url(#clip-path-7);}</style><clipPath id="clip-path"><path class="cls-1" d="M138.45,126.63s26.42,6.87,27.86-15.76c0,0-3.31-26.65,17.82-24a8,8,0,0,1,6.75,7.85s1.51,7.69-5.27,7.41c0,0-7.56-1.12-8.31,9.35,0,0,1.6,28.07-38.49,19.48"/></clipPath><clipPath id="clip-path-2"><path class="cls-2" d="M93.76,129.09S77.1,120.5,77.4,142.54c0,0-.79-3.75-3.3-3.51s-.39,5.47-.39,5.47,1.63,7.58,5.08,6.3c0,0,.88-.06,1.52-1.44,0,0,12.52,1.08,14.19-2.51l3.55-11Z"/></clipPath><clipPath id="clip-path-3"><path class="cls-2" d="M140.67,129.39s14.62-11.73,18.7,9.94c0,0,0-3.84,2.54-4.1s1.47,5.28,1.47,5.28-.1,7.75-3.73,7.19c0,0-.88.12-1.78-1.12,0,0-12.05,3.55-14.41.36l-5.65-10Z"/></clipPath><clipPath id="clip-path-4"><path class="cls-3" d="M146.94,87.47C135.58,78,133.68,63.58,133.68,63.58l-16.23.74-16.23-.74S99.32,78,88,87.47s-19.49,16.32-19.49,35.69c0,30.93,48.27,29.4,49,29.47s49,1.46,49-29.47C166.43,103.79,158.31,96.92,146.94,87.47Z"/></clipPath><clipPath id="clip-path-5"><path class="cls-3" d="M138.74,55.35c-2.57-1.49-5.85-7.41-7.22-10.06-.17-.36-.34-.7-.53-1l-.12-.25h0A15.49,15.49,0,0,0,104,44h0l0,0a13.69,13.69,0,0,0-.75,1.48c-1.44,2.75-4.6,8.38-7.1,9.82a1.81,1.81,0,0,0,1.7,1.13s-2.68,10.28,18.46,10.79v0c.38,0,.75,0,1.13,0s.77,0,1.15,0v0C139.72,66.76,137,56.48,137,56.48A1.81,1.81,0,0,0,138.74,55.35Z"/></clipPath><clipPath id="clip-path-6"><path class="cls-2" d="M88.65,127.45c-1.83,10.82,3.7,21.27,3.7,21.27a6.08,6.08,0,0,0-1.85,1.73c-2.49,3.54,1.79,3.24,1.79,3.24a4.58,4.58,0,0,0,4.37,0c5-.68,1.6-4.95,1.6-4.95s1.07-15.76-2.93-22.58a4,4,0,0,0-4.06-2.07A3.85,3.85,0,0,0,88.65,127.45Z"/></clipPath><clipPath id="clip-path-7"><path class="cls-2" d="M148,127.45c1.84,10.82-3.7,21.27-3.7,21.27a6,6,0,0,1,1.85,1.73c2.5,3.54-1.78,3.24-1.78,3.24a4.57,4.57,0,0,1-4.37,0c-5-.68-1.6-4.95-1.6-4.95s-1.07-15.76,2.92-22.58a4,4,0,0,1,4.07-2.07A3.84,3.84,0,0,1,148,127.45Z"/></clipPath></defs><path class="cls-1" d="M138.45,126.63s26.42,6.87,27.86-15.76c0,0-3.31-26.65,17.82-24a8,8,0,0,1,6.75,7.85s1.51,7.69-5.27,7.41c0,0-7.56-1.12-8.31,9.35,0,0,1.6,28.07-38.49,19.48"/><g class="cls-4"><ellipse class="cls-5" cx="171.83" cy="90.31" rx="3.09" ry="9.25" transform="translate(-4.56 171.34) rotate(-52.4)"/><ellipse class="cls-5" cx="166.53" cy="99.74" rx="3.09" ry="9.25" transform="translate(5.66 208.37) rotate(-64.95)"/></g><path class="cls-2" d="M93.76,129.09S77.1,120.5,77.4,142.54c0,0-.79-3.75-3.3-3.51s-.39,5.47-.39,5.47,1.63,7.58,5.08,6.3c0,0,.88-.06,1.52-1.44,0,0,12.52,1.08,14.19-2.51l3.55-11Z"/><g class="cls-6"><path class="cls-7" d="M76.67,139.63s2,10.73,5.65,10.83c0,0-6.58,3.29-8,1.39,0,0-6.16-8.49-6.33-9.75s-1.29-4.79-.62-5.73A5.9,5.9,0,0,1,70,134.5l2.52-.85"/></g><path class="cls-2" d="M140.67,129.39s14.62-11.73,18.7,9.94c0,0,0-3.84,2.54-4.1s1.47,5.28,1.47,5.28-.1,7.75-3.73,7.19c0,0-.88.12-1.78-1.12,0,0-12.05,3.55-14.41.36l-5.65-10Z"/><g class="cls-8"><path class="cls-7" d="M159.51,136.33s.2,10.91-3.39,11.73c0,0,7.1,1.92,8.11-.22,0,0,4.36-9.54,4.27-10.82s.32-5-.53-5.73a5.91,5.91,0,0,0-3-1.31l-2.65-.32"/></g><path class="cls-3" d="M146.94,87.47C135.58,78,133.68,63.58,133.68,63.58l-16.23.74-16.23-.74S99.32,78,88,87.47s-19.49,16.32-19.49,35.69c0,30.93,48.27,29.4,49,29.47s49,1.46,49-29.47C166.43,103.79,158.31,96.92,146.94,87.47Z"/><g class="cls-9"><path class="cls-10" d="M98.17,63.58h39.32s-2.72,5.77-20,5.77C117.46,69.35,101.44,69.54,98.17,63.58Z"/><ellipse class="cls-11" cx="117.46" cy="126.62" rx="22.15" ry="42.08"/><ellipse class="cls-5" cx="87.04" cy="84.37" rx="10.18" ry="3.6"/><ellipse class="cls-5" cx="78.64" cy="93.75" rx="10.18" ry="3.6"/><ellipse class="cls-5" cx="148.92" cy="84.37" rx="10.18" ry="3.6"/><ellipse class="cls-5" cx="157.32" cy="93.75" rx="10.18" ry="3.6"/></g><path class="cls-12" d="M110.32,38.45S98.5,28.16,104,44.05c0,0,2,1,4.42-1.22C108.43,42.83,111.41,41.14,110.32,38.45Z"/><path class="cls-13" d="M108.88,38.94s-7.32-6.38-3.9,3.46a2.47,2.47,0,0,0,2.73-.75S109.56,40.6,108.88,38.94Z"/><path class="cls-12" d="M123.93,38.45s11.81-10.29,6.3,5.6c0,0-2,1-4.42-1.22C125.81,42.83,122.83,41.14,123.93,38.45Z"/><path class="cls-13" d="M125.76,38.94s7.31-6.38,3.9,3.46a2.49,2.49,0,0,1-2.74-.75S125.08,40.6,125.76,38.94Z"/><path class="cls-3" d="M138.74,55.35c-2.57-1.49-5.85-7.41-7.22-10.06-.17-.36-.34-.7-.53-1l-.12-.25h0A15.49,15.49,0,0,0,104,44h0l0,0a13.69,13.69,0,0,0-.75,1.48c-1.44,2.75-4.6,8.38-7.1,9.82a1.81,1.81,0,0,0,1.7,1.13s-2.68,10.28,18.46,10.79v0c.38,0,.75,0,1.13,0s.77,0,1.15,0v0C139.72,66.76,137,56.48,137,56.48A1.81,1.81,0,0,0,138.74,55.35Z"/><g class="cls-14"><circle class="cls-11" cx="117.45" cy="66.27" r="10.65"/><ellipse class="cls-5" cx="100.87" cy="50.39" rx="4.43" ry="1.44"/><ellipse class="cls-5" cx="103.31" cy="45.72" rx="4.43" ry="1.44"/><ellipse class="cls-5" cx="133.72" cy="50.39" rx="4.43" ry="1.44"/><ellipse class="cls-5" cx="131.28" cy="45.72" rx="4.43" ry="1.44"/><ellipse class="cls-5" cx="114.54" cy="38.52" rx="1.4" ry="4.89"/><ellipse class="cls-5" cx="120.06" cy="38.52" rx="1.4" ry="4.89"/></g><circle class="cls-15" cx="109.03" cy="52.68" r="3.74"/><circle class="cls-16" cx="109.03" cy="52.68" r="2.58"/><circle class="cls-16" cx="109.03" cy="52.68" r="1.7"/><circle class="cls-15" cx="107.98" cy="50.98" r="0.85"/><circle class="cls-15" cx="125.61" cy="52.68" r="3.74"/><circle class="cls-16" cx="125.61" cy="52.68" r="2.58"/><circle class="cls-16" cx="125.61" cy="52.68" r="1.7"/><circle class="cls-15" cx="124.55" cy="50.98" r="0.85"/><path class="cls-3" d="M111.62,56.42s-1.7-1.61-7.76-.62c0,0,2.37,1.19,2.59,1.19s4.8,0,4.89,0A2.94,2.94,0,0,0,111.62,56.42Z"/><path class="cls-3" d="M123.68,56.42s1.7-1.61,7.76-.62c0,0-2.37,1.19-2.59,1.19s-4.8,0-4.88,0A2.55,2.55,0,0,1,123.68,56.42Z"/><path class="cls-13" d="M107.12,46.64a1.87,1.87,0,0,1,.94-.88,2.71,2.71,0,0,1,1.28-.24,2.58,2.58,0,0,1,2.11,1.31,10.11,10.11,0,0,1-1.18-.08c-.35,0-.68-.08-1-.1A18.74,18.74,0,0,0,107.12,46.64Z"/><path class="cls-13" d="M127.56,46.64a18.76,18.76,0,0,0-2.14,0c-.32,0-.65.06-1,.1a10.11,10.11,0,0,1-1.18.08,2.57,2.57,0,0,1,2.1-1.31,2.72,2.72,0,0,1,1.29.24A1.81,1.81,0,0,1,127.56,46.64Z"/><path class="cls-17" d="M117.44,58.88v4.59s-.65,1-2.75,1-2.43-1.19-2.43-1.19"/><path class="cls-17" d="M117.44,58.88v4.59s.65,1,2.74,1,2.44-1.19,2.44-1.19"/><ellipse class="cls-18" cx="117.45" cy="57.78" rx="2.6" ry="1.36"/><path class="cls-3" d="M100.73,66.07s-1.13,2.18-2.58,2.13a1.54,1.54,0,0,0,1.94,1.18s-2,1.91-3.88,1.26c0,0,.48,3,3.25,2.75a30.77,30.77,0,0,0,3.7-1.37c0-.18-.93-2.89-.93-2.89Z"/><path class="cls-3" d="M134.24,66.33s1.13,2.18,2.57,2.13a1.54,1.54,0,0,1-1.94,1.18s2,1.91,3.88,1.26c0,0-.47,3-3.25,2.75a29.23,29.23,0,0,1-3.7-1.38c0-.18.93-2.88.93-2.88Z"/><path class="cls-2" d="M88.65,127.45c-1.83,10.82,3.7,21.27,3.7,21.27a6.08,6.08,0,0,0-1.85,1.73c-2.49,3.54,1.79,3.24,1.79,3.24a4.58,4.58,0,0,0,4.37,0c5-.68,1.6-4.95,1.6-4.95s1.07-15.76-2.93-22.58a4,4,0,0,0-4.06-2.07A3.85,3.85,0,0,0,88.65,127.45Z"/><g class="cls-19"><path class="cls-7" d="M85.7,150.56s10.49-4,18-.71c0,0,1.64,10.54-1.42,10.75s-12.18.86-15.6.29-4.49-1.71-4.13-3.07S85.7,150.56,85.7,150.56Z"/></g><path class="cls-2" d="M148,127.45c1.84,10.82-3.7,21.27-3.7,21.27a6,6,0,0,1,1.85,1.73c2.5,3.54-1.78,3.24-1.78,3.24a4.57,4.57,0,0,1-4.37,0c-5-.68-1.6-4.95-1.6-4.95s-1.07-15.76,2.92-22.58a4,4,0,0,1,4.07-2.07A3.84,3.84,0,0,1,148,127.45Z"/><g class="cls-20"><path class="cls-7" d="M151,150.56s-10.49-4-18-.71c0,0-1.64,10.54,1.43,10.75s12.18.86,15.6.29,4.48-1.71,4.13-3.07S151,150.56,151,150.56Z"/></g></svg>