<svg id="_12" data-name="12" xmlns="http://www.w3.org/2000/svg" xmlns:xlink="http://www.w3.org/1999/xlink" viewBox="0 0 260 168"><defs><style>.cls-1{fill:#ffbd29;}.cls-2{clip-path:url(#clip-path);}.cls-3{fill:#ff7e27;}</style><clipPath id="clip-path"><path class="cls-1" d="M44.55,323s73.91-63.3,14.71-108.91c0,0-63.27-51.51-33.18-81.94,0,0,12.85-17.93,27.86-11.22,0,0,20.82,8.5,7.59,26.52,0,0-14,20.11,13.2,41.46,0,0,73.59,45.83-23.73,139.61"/></clipPath></defs><path class="cls-1" d="M44.55,323s73.91-63.3,14.71-108.91c0,0-63.27-51.51-33.18-81.94,0,0,12.85-17.93,27.86-11.22,0,0,20.82,8.5,7.59,26.52,0,0-14,20.11,13.2,41.46,0,0,73.59,45.83-23.73,139.61"/><g class="cls-2"><ellipse class="cls-3" cx="24.5" cy="159.36" rx="23.08" ry="10.98" transform="translate(-26.93 6.55) rotate(-9.86)"/></g></svg>