<svg id="Layer_6" data-name="Layer 6" xmlns="http://www.w3.org/2000/svg" xmlns:xlink="http://www.w3.org/1999/xlink" viewBox="0 0 260 168"><defs><style>.cls-1{fill:#ffbd29;}.cls-2{fill:#ffab24;}.cls-3{fill:#fff;}.cls-4{fill:#f9d89d;}.cls-5{fill:#ffa92c;}.cls-6{clip-path:url(#clip-path);}.cls-7{fill:#ff7e27;}.cls-8{clip-path:url(#clip-path-2);}.cls-9{fill:#ffe7b6;}.cls-10{fill:#3acccc;}.cls-11{clip-path:url(#clip-path-3);}.cls-12{fill:#7f4a03;}.cls-13{clip-path:url(#clip-path-4);}.cls-14{clip-path:url(#clip-path-5);}.cls-15{clip-path:url(#clip-path-6);}.cls-16{fill:#594025;}.cls-17,.cls-18{fill:none;stroke-linecap:round;}.cls-17{stroke:#7f4a03;stroke-miterlimit:10;stroke-width:0.6px;}.cls-18{stroke:#ffc866;stroke-linejoin:round;stroke-width:0.14px;}</style><clipPath id="clip-path"><path class="cls-1" d="M21.18,104.78c14,1.83,12.66-7.75,12.66-7.75,0-3.61,2.59-3.43,2.59-3.43,2.33-.1,1.6-2.69,1.6-2.69A2.76,2.76,0,0,0,35.5,88.4c-7.32-.32-5.45,8.73-5.45,8.73.14,7.8-9.12,6.17-9.12,6.17a.6.6,0,0,0-.53.68C20.43,104.61,21.18,104.78,21.18,104.78Z"/></clipPath><clipPath id="clip-path-2"><path class="cls-1" d="M9.76,104.27s.54-.13,1.49-.41c.51-.3,2.81-1.68,2.66-1,.63-.31,1.23-.54,1.3-.31,3.1-1.07,6.46-1.5,8.09,1.47s.85,7.26-5.59,7.92-9.32-.06-10.88-2.69C4.73,105.72,4.38,104.59,9.76,104.27Z"/></clipPath><clipPath id="clip-path-3"><path class="cls-2" d="M2.55,94.34s-1.51-4-.39-4.59l0,0c.2-.07,1.53-.39,4,3a.27.27,0,0,1,0,.23A2.28,2.28,0,0,1,4.4,94.56S2.75,95.09,2.55,94.34Z"/></clipPath><clipPath id="clip-path-4"><path class="cls-1" d="M-.79,105.77c2.45,1,6.85.25,7.25.17h0a11.7,11.7,0,0,0,5-1.21,7.92,7.92,0,0,0,4.39-4.46.28.28,0,0,0-.27-.37c-2.06,0-2.35-.81-2.38-1s0,0,0,0c-.76-8.67-6.67-8.53-6.67-8.53s-8.69-1.08-7.73,8.85a.25.25,0,0,1,0,.12c-.08.22-.47,1-2,1.45a.31.31,0,0,0-.17.13c-.11.2-.21.7.44,1.72a20.85,20.85,0,0,0,1.17,1.86s.29.39,1.54.36c0,0-1.29,0-1.12.34A1.8,1.8,0,0,0-.79,105.77Z"/></clipPath><clipPath id="clip-path-5"><path class="cls-2" d="M5.4,94.08S3.94,90.26,5,89.53a.22.22,0,0,1,.18,0c.42,0,2.08.39,4.36,3.49a.29.29,0,0,1-.06.4,6.5,6.5,0,0,1-2.19.92S5.6,94.83,5.4,94.08Z"/></clipPath><clipPath id="clip-path-6"><circle class="cls-3" cx="2.22" cy="97.95" r="1.58"/></clipPath></defs><path class="cls-4" d="M17.2,112s-1.54-.52-1.8.15c0,0-.78.93-.13,1.15a1,1,0,0,0,.79,1c.86.28,2,1.38,3-.69C19.07,113.6,19.53,112.18,17.2,112Z"/><path class="cls-5" d="M21.23,107s-2.37,4.37-4,5c0,0-.09,1.69,1.31,1.73s3.48-3.58,4.22-5.25S22.11,106,21.23,107Z"/><path class="cls-1" d="M21.18,104.78c14,1.83,12.66-7.75,12.66-7.75,0-3.61,2.59-3.43,2.59-3.43,2.33-.1,1.6-2.69,1.6-2.69A2.76,2.76,0,0,0,35.5,88.4c-7.32-.32-5.45,8.73-5.45,8.73.14,7.8-9.12,6.17-9.12,6.17a.6.6,0,0,0-.53.68C20.43,104.61,21.18,104.78,21.18,104.78Z"/><g class="cls-6"><ellipse class="cls-7" cx="31.37" cy="89.92" rx="1.06" ry="3.18" transform="translate(-61.14 67.3) rotate(-57.03)"/><ellipse class="cls-7" cx="29.82" cy="93.3" rx="1.06" ry="3.18" transform="translate(-68.02 88.69) rotate(-69.58)"/></g><path class="cls-4" d="M3,111.29s-1.45-.73-1.8-.1c0,0-.89.82-.28,1.13a1,1,0,0,0,.65,1.05c.81.39,1.76,1.64,3.08-.28C4.68,113.09,5.33,111.75,3,111.29Z"/><path class="cls-5" d="M7.7,106.88s-2.94,4-4.67,4.41c0,0-.31,1.66,1.08,1.89S8,110.1,9,108.54,8.71,106,7.7,106.88Z"/><path class="cls-1" d="M9.76,104.27s.54-.13,1.49-.41c.51-.3,2.81-1.68,2.66-1,.63-.31,1.23-.54,1.3-.31,3.1-1.07,6.46-1.5,8.09,1.47s.85,7.26-5.59,7.92-9.32-.06-10.88-2.69C4.73,105.72,4.38,104.59,9.76,104.27Z"/><g class="cls-8"><ellipse class="cls-7" cx="14.73" cy="102.94" rx="2.61" ry="1.18" transform="translate(-78.58 57.04) rotate(-55.66)"/><ellipse class="cls-7" cx="17.95" cy="102.8" rx="2.61" ry="1.18" transform="translate(-79.62 65.78) rotate(-59.32)"/><path class="cls-9" d="M5.88,109.37s-.16-1.5,2.26-.43S11,111.12,15,110.53s6.12-1.62,6.84-1.11,1.62,1.23-.87,2.94-11.91,1.86-11.91,1.86a24.87,24.87,0,0,1-3.25-1C5.78,113,5.88,109.37,5.88,109.37Z"/></g><path class="cls-10" d="M11.2,103.66a14.51,14.51,0,0,1-5.57,3.65L5,105.37S11.57,100.79,11.2,103.66Z"/><path class="cls-2" d="M2.55,94.34s-1.51-4-.39-4.59l0,0c.2-.07,1.53-.39,4,3a.27.27,0,0,1,0,.23A2.28,2.28,0,0,1,4.4,94.56S2.75,95.09,2.55,94.34Z"/><g class="cls-11"><path class="cls-12" d="M.94,90.57s1.82-.18,2.72,4.26c0,0-2.15,1.28-2.4.64s-1-4.12-1-4.12Z"/></g><path class="cls-1" d="M-.79,105.77c2.45,1,6.85.25,7.25.17h0a11.7,11.7,0,0,0,5-1.21,7.92,7.92,0,0,0,4.39-4.46.28.28,0,0,0-.27-.37c-2.06,0-2.35-.81-2.38-1s0,0,0,0c-.76-8.67-6.67-8.53-6.67-8.53s-8.69-1.08-7.73,8.85a.25.25,0,0,1,0,.12c-.08.22-.47,1-2,1.45a.31.31,0,0,0-.17.13c-.11.2-.21.7.44,1.72a20.85,20.85,0,0,0,1.17,1.86s.29.39,1.54.36c0,0-1.29,0-1.12.34A1.8,1.8,0,0,0-.79,105.77Z"/><g class="cls-13"><ellipse class="cls-9" cx="-0.86" cy="105.38" rx="5.55" ry="6.11" transform="translate(-8.42 0.27) rotate(-4.58)"/></g><ellipse class="cls-7" cx="7.55" cy="96.15" rx="2.73" ry="1.02" transform="translate(-7.65 0.91) rotate(-4.58)"/><ellipse class="cls-7" cx="7.14" cy="92.8" rx="2.87" ry="1.02" transform="translate(-7.39 0.87) rotate(-4.58)"/><path class="cls-2" d="M5.4,94.08S3.94,90.26,5,89.53a.22.22,0,0,1,.18,0c.42,0,2.08.39,4.36,3.49a.29.29,0,0,1-.06.4,6.5,6.5,0,0,1-2.19.92S5.6,94.83,5.4,94.08Z"/><g class="cls-14"><path class="cls-12" d="M3.79,90.32s1.82-.19,2.72,4.25c0,0-2.15,1.28-2.4.64s-1-4.12-1-4.12Z"/></g><circle class="cls-3" cx="2.22" cy="97.95" r="1.58"/><g class="cls-15"><circle class="cls-16" cx="1.63" cy="98.5" r="1.18"/><circle class="cls-16" cx="1.63" cy="98.5" r="0.87"/><circle class="cls-3" cx="2.13" cy="97.64" r="0.35"/></g><path class="cls-17" d="M.45,95.53s1.84-1.83,3.13.09"/><path class="cls-18" d="M4.62,101.17s-3.12-.82-4.94.5"/><path class="cls-18" d="M4.74,102.27s-3-1.17-5-.08"/><path class="cls-18" d="M4.93,103.17s-2.95-1.31-5-.31"/><path class="cls-9" d="M8,114.7s-1.38.85-1,1.47c0,0,.22,1.19.8.84A1,1,0,0,0,9,117c.76-.48,2.31-.63,1.39-2.76C10.36,114.25,9.55,113,8,114.7Z"/><path class="cls-1" d="M6.68,108.4S8.53,113,8,114.7c0,0,1.24,1.14,2.17.08s-.54-5-1.35-6.6S6.44,107.06,6.68,108.4Z"/><path class="cls-9" d="M23.13,114.6s-1.35.9-1,1.52c0,0,.27,1.18.84.8a1,1,0,0,0,1.25,0c.74-.51,2.28-.72,1.27-2.82C25.51,114.05,24.66,112.83,23.13,114.6Z"/><path class="cls-1" d="M21.6,108.36s2,4.54,1.53,6.24c0,0,1.28,1.09,2.17,0s-.74-4.93-1.62-6.54S21.31,107,21.6,108.36Z"/></svg>