<svg xmlns="http://www.w3.org/2000/svg" xmlns:xlink="http://www.w3.org/1999/xlink" viewBox="0 0 260 168"><defs><style>.cls-1{fill:#ffbd29;}.cls-2{fill:#ffab14;}.cls-3{fill:#ffab24;}.cls-4{clip-path:url(#clip-path);}.cls-5{fill:#ffe7b6;}.cls-6{fill:#3acccc;}.cls-7{clip-path:url(#clip-path-2);}.cls-8{fill:#ffda99;}.cls-9{fill:#ff7e27;}.cls-10{fill:#f48c37;}.cls-11{clip-path:url(#clip-path-3);}.cls-12{fill:#7f4a03;}.cls-13{clip-path:url(#clip-path-4);}.cls-14{fill:#ff8098;}.cls-15{clip-path:url(#clip-path-5);}.cls-16{fill:#fff;}.cls-17{fill:#594025;}</style><clipPath id="clip-path"><path class="cls-1" d="M-14.89,64.54s-3.36,17.64-16.85,27.58-23.78,14.73-23.78,30.18,9.76,27,46.51,27,37.45-23.43,37.45-23.43S31,105.33,21.69,88.22c-8.27-15.29-15-23.68-15-23.68Z"/></clipPath><clipPath id="clip-path-2"><path class="cls-2" d="M13.46,122.8s6.59,14.72,5.16,21.36c0,0,4.15-1.1,5,1.15,0,0,2.82,4.32-7.47,5.45,0,0-5.06,1.17-2.78-4.35,0,0-8.8-14.29-5.58-22C7.76,124.39,9.69,119,13.46,122.8Z"/></clipPath><clipPath id="clip-path-3"><path class="cls-3" d="M2.65,43.32s1.59-7.7-.7-8.44c0,0-2.67-.9-6.5,6.85,0,0,.54,2.25,3.92,2.53C-.63,44.26,2.52,44.73,2.65,43.32Z"/></clipPath><clipPath id="clip-path-4"><path class="cls-1" d="M9.58,65C5,67.12-2.69,67-2.69,67a21.15,21.15,0,0,1-9.43-.71c-7.85-2.3-9.59-7.45-9.59-7.45,4.79-.46,4.73-2.56,4.73-2.56-1.21-16,9.56-17.46,9.56-17.46S8.07,34.24,9.23,52.64c0,0,.73,1.81,4.27,2.17,0,0,1.58,4.39-1.07,7.9,0,0-1.71,2-5,0a2.67,2.67,0,0,0,1.33,1.86Z"/></clipPath><clipPath id="clip-path-5"><path class="cls-3" d="M-1.92,45s1.6-7.7-.69-8.44c0,0-2.68-.9-6.5,6.85,0,0,.54,2.25,3.91,2.53C-5.2,45.91-2,46.38-1.92,45Z"/></clipPath></defs><g id="Layer_1" data-name="Layer 1"><path class="cls-1" d="M-14.89,64.54s-3.36,17.64-16.85,27.58-23.78,14.73-23.78,30.18,9.76,27,46.51,27,37.45-23.43,37.45-23.43S31,105.33,21.69,88.22c-8.27-15.29-15-23.68-15-23.68Z"/><g class="cls-4"><path class="cls-5" d="M23.8,90.63S17.12,88,20.37,99.87,34.77,144.39,0,148.57c0,0-15.92.93-26.36.59s-8,4.08-8,4.08,51.69,30,57.15,24.67,15-13.15,16.16-20.6,1.29-15.19,1.33-25.11S23.8,90.63,23.8,90.63Z"/><path class="cls-6" d="M-18.38,66.3s10.13,6.42,30.11.38l-1.32-4.83s-28.25-3.61-28.79-3.23S-18.38,66.3-18.38,66.3Z"/></g><path class="cls-2" d="M13.46,122.8s6.59,14.72,5.16,21.36c0,0,4.15-1.1,5,1.15,0,0,2.82,4.32-7.47,5.45,0,0-5.06,1.17-2.78-4.35,0,0-8.8-14.29-5.58-22C7.76,124.39,9.69,119,13.46,122.8Z"/><g class="cls-7"><path class="cls-8" d="M23.72,141.73S8.4,147,4.87,154c0,0-5.3,5.31,1.66,5.55s17.31-2,22.91-3.3,8.75-1.48,7.3-6S23.72,141.73,23.72,141.73Z"/></g><ellipse class="cls-9" cx="-3.23" cy="91.61" rx="13.64" ry="3.27"/><ellipse class="cls-9" cx="-4.74" cy="101.43" rx="13.64" ry="3.27"/><path class="cls-10" d="M9.13,63A1.57,1.57,0,0,0,9,64.78L6.15,63.35l1-1.64Z"/><path class="cls-3" d="M2.65,43.32s1.59-7.7-.7-8.44c0,0-2.67-.9-6.5,6.85,0,0,.54,2.25,3.92,2.53C-.63,44.26,2.52,44.73,2.65,43.32Z"/><g class="cls-11"><path class="cls-12" d="M4.45,36s-3.35.2-3.67,8.52c0,0,4.28,1.68,4.54.45S6,37.21,6,37.21Z"/></g><path class="cls-1" d="M9.58,65C5,67.12-2.69,67-2.69,67a21.15,21.15,0,0,1-9.43-.71c-7.85-2.3-9.59-7.45-9.59-7.45,4.79-.46,4.73-2.56,4.73-2.56-1.21-16,9.56-17.46,9.56-17.46S8.07,34.24,9.23,52.64c0,0,.73,1.81,4.27,2.17,0,0,1.58,4.39-1.07,7.9,0,0-1.71,2-5,0a2.67,2.67,0,0,0,1.33,1.86Z"/><g class="cls-13"><ellipse class="cls-5" cx="10.46" cy="63.79" rx="10.19" ry="11.21" transform="translate(-5.19 1.07) rotate(-4.7)"/></g><ellipse class="cls-14" cx="11.24" cy="54.87" rx="2.57" ry="1.03" transform="translate(-4.46 1.11) rotate(-4.7)"/><ellipse class="cls-9" cx="-3.67" cy="49.24" rx="6.55" ry="1.88" transform="translate(-4.05 -0.14) rotate(-4.7)"/><ellipse class="cls-9" cx="-4.11" cy="43.93" rx="6.55" ry="1.88" transform="translate(-3.62 -0.19) rotate(-4.7)"/><path class="cls-3" d="M-1.92,45s1.6-7.7-.69-8.44c0,0-2.68-.9-6.5,6.85,0,0,.54,2.25,3.91,2.53C-5.2,45.91-2,46.38-1.92,45Z"/><g class="cls-15"><path class="cls-12" d="M-.12,37.67s-3.34.2-3.66,8.52c0,0,4.28,1.67,4.53.44s.67-7.77.67-7.77Z"/></g><path class="cls-12" d="M3.47,44.53a1.1,1.1,0,0,1,.3-1.06A1.33,1.33,0,0,1,5,43.12a1.68,1.68,0,0,1,1,.56,1.82,1.82,0,0,1,.43.93,4.55,4.55,0,0,1-.93-.22,5.69,5.69,0,0,0-.66-.18,1.19,1.19,0,0,0-.5,0A2.86,2.86,0,0,0,3.47,44.53Z"/><ellipse class="cls-16" cx="5.37" cy="49.8" rx="1.76" ry="3.57" transform="translate(-4.07 0.61) rotate(-4.7)"/><ellipse class="cls-17" cx="5.37" cy="49.8" rx="1.1" ry="2.24" transform="translate(-4.07 0.61) rotate(-4.7)"/><ellipse class="cls-17" cx="5.37" cy="49.8" rx="0.78" ry="1.58" transform="translate(-4.07 0.61) rotate(-4.7)"/><ellipse class="cls-16" cx="5.99" cy="48.23" rx="0.28" ry="0.72" transform="translate(-3.94 0.65) rotate(-4.7)"/></g></svg>