<svg id="Layer_1" data-name="Layer 1" xmlns="http://www.w3.org/2000/svg" xmlns:xlink="http://www.w3.org/1999/xlink" viewBox="0 0 260 168"><defs><style>.cls-1{fill:#ffbd29;}.cls-2{fill:#ffab24;}.cls-3{fill:#fff;}.cls-4{fill:#f9d89d;}.cls-5{clip-path:url(#clip-path);}.cls-6{fill:#ffe7b6;}.cls-7{fill:#3acccc;}.cls-8{clip-path:url(#clip-path-2);}.cls-9{fill:#7f4a03;}.cls-10{clip-path:url(#clip-path-3);}.cls-11{fill:#ff8098;}.cls-12{fill:#ff7e27;}.cls-13{clip-path:url(#clip-path-4);}.cls-14{clip-path:url(#clip-path-5);}.cls-15{fill:#594025;}.cls-16,.cls-17{fill:none;stroke-linecap:round;}.cls-16{stroke:#7f4a03;stroke-miterlimit:10;stroke-width:2.67px;}.cls-17{stroke:#ffc866;stroke-linejoin:round;stroke-width:0.62px;}</style><clipPath id="clip-path"><path class="cls-1" d="M-15.64,80.43s-2.4-.57-6.69-1.83c-2.25-1.38-12.59-7.57-12-4.4-2.8-1.41-5.51-2.46-5.81-1.42C-54,68-69.13,66.07-76.45,79.37-84,93.07-80.3,112-51.33,115s41.86-.26,48.87-12.1C7,87,8.54,81.84-15.64,80.43Z"/></clipPath><clipPath id="clip-path-2"><path class="cls-2" d="M16.77,35.8s6.81-17.74,1.75-20.6a1,1,0,0,0-.21-.1c-.89-.34-6.86-1.78-18,13.58a1.33,1.33,0,0,0-.22,1c.36,1.49,1.9,5.45,8.36,7.06C8.48,36.78,15.89,39.15,16.77,35.8Z"/></clipPath><clipPath id="clip-path-3"><path class="cls-1" d="M31.8,87.15C20.8,91.81,1,88.28-.77,88a1,1,0,0,0-.25,0,52.56,52.56,0,0,1-22.37-5.45c-14-6.73-18.46-16.14-19.74-20a1.28,1.28,0,0,1,1.25-1.68c9.24.17,10.53-3.66,10.68-4.3a.77.77,0,0,0,0-.15c3.43-39,30-38.34,30-38.34s39.06-4.84,34.75,39.77a1.2,1.2,0,0,0,.07.53c.36,1,2.12,4.57,9,6.53a1.25,1.25,0,0,1,.76.59c.49.88,1,3.13-2,7.74,0,0-3.7,6.57-5.24,8.32,0,0-1.31,1.76-6.91,1.65,0,0,5.82.11,5.05,1.54A8,8,0,0,1,31.8,87.15Z"/></clipPath><clipPath id="clip-path-4"><path class="cls-2" d="M4,34.64s6.58-17.15,2-20.45A1.26,1.26,0,0,0,5.15,14c-1.89.17-9.36,1.75-19.6,15.68a1.28,1.28,0,0,0,.27,1.79,28.62,28.62,0,0,0,9.86,4.16S3.09,38,4,34.64Z"/></clipPath><clipPath id="clip-path-5"><circle class="cls-3" cx="18.25" cy="52.04" r="7.09" transform="translate(-34.91 37.39) rotate(-55.27)"/></clipPath></defs><path class="cls-4" d="M-5.37,129.78s7,2.26,6.07,5.38c0,0,.27,5.42-2.66,4.48,0,0-1.59,2.66-5.42,1.33s-10.77-.35-9-10.64C-16.34,130.33-14.15,124-5.37,129.78Z"/><path class="cls-1" d="M-15.64,80.43s-2.4-.57-6.69-1.83c-2.25-1.38-12.59-7.57-12-4.4-2.8-1.41-5.51-2.46-5.81-1.42C-54,68-69.13,66.07-76.45,79.37-84,93.07-80.3,112-51.33,115s41.86-.26,48.87-12.1C7,87,8.54,81.84-15.64,80.43Z"/><g class="cls-5"><path class="cls-6" d="M1.83,103.33s.7-6.75-10.17-1.93-12.82,9.79-30.9,7.14-27.51-7.28-30.75-5-7.3,5.51,3.89,13.22,53.55,8.35,53.55,8.35S1.82,121.27,2,120.46,1.83,103.33,1.83,103.33Z"/></g><path class="cls-7" d="M-22.07,77.67s11.35,12.38,25,16.42l3-8.73S-23.73,64.77-22.07,77.67Z"/><path class="cls-2" d="M16.77,35.8s6.81-17.74,1.75-20.6a1,1,0,0,0-.21-.1c-.89-.34-6.86-1.78-18,13.58a1.33,1.33,0,0,0-.22,1c.36,1.49,1.9,5.45,8.36,7.06C8.48,36.78,15.89,39.15,16.77,35.8Z"/><g class="cls-8"><path class="cls-9" d="M24,18.88S15.84,18,11.78,38c0,0,9.68,5.74,10.78,2.87s4.68-18.52,4.68-18.52Z"/></g><path class="cls-1" d="M31.8,87.15C20.8,91.81,1,88.28-.77,88a1,1,0,0,0-.25,0,52.56,52.56,0,0,1-22.37-5.45c-14-6.73-18.46-16.14-19.74-20a1.28,1.28,0,0,1,1.25-1.68c9.24.17,10.53-3.66,10.68-4.3a.77.77,0,0,0,0-.15c3.43-39,30-38.34,30-38.34s39.06-4.84,34.75,39.77a1.2,1.2,0,0,0,.07.53c.36,1,2.12,4.57,9,6.53a1.25,1.25,0,0,1,.76.59c.49.88,1,3.13-2,7.74,0,0-3.7,6.57-5.24,8.32,0,0-1.31,1.76-6.91,1.65,0,0,5.82.11,5.05,1.54A8,8,0,0,1,31.8,87.15Z"/><g class="cls-10"><ellipse class="cls-6" cx="32.1" cy="85.42" rx="27.44" ry="24.94" transform="translate(-55.61 110.6) rotate(-85.42)"/></g><ellipse class="cls-11" cx="39.5" cy="64.35" rx="2.51" ry="4.29" transform="translate(-27.8 98.59) rotate(-85.42)"/><ellipse class="cls-12" cx="-5.68" cy="43.96" rx="4.6" ry="12.28" transform="translate(-49.04 34.79) rotate(-85.42)"/><ellipse class="cls-12" cx="-3.85" cy="28.88" rx="4.6" ry="12.9" transform="matrix(0.08, -1, 1, 0.08, -32.33, 22.73)"/><path class="cls-2" d="M4,34.64s6.58-17.15,2-20.45A1.26,1.26,0,0,0,5.15,14c-1.89.17-9.36,1.75-19.6,15.68a1.28,1.28,0,0,0,.27,1.79,28.62,28.62,0,0,0,9.86,4.16S3.09,38,4,34.64Z"/><g class="cls-13"><path class="cls-9" d="M11.2,17.73S3,16.88-1,36.86c0,0,9.68,5.73,10.78,2.86S14.44,21.2,14.44,21.2Z"/></g><circle class="cls-3" cx="18.25" cy="52.04" r="7.09" transform="translate(-34.91 37.39) rotate(-55.27)"/><g class="cls-14"><circle class="cls-15" cx="20.92" cy="54.52" r="5.29"/><circle class="cls-15" cx="20.92" cy="54.52" r="3.9"/><circle class="cls-3" cx="18.65" cy="50.61" r="1.57"/></g><path class="cls-16" d="M26.2,41.16s-8.23-8.25-14,.39"/><path class="cls-17" d="M7.47,66.48s14-3.67,22.22,2.24"/><path class="cls-17" d="M6.92,71.43s13.53-5.26,22.34-.33"/><path class="cls-17" d="M6.09,75.5s13.26-5.91,22.3-1.41"/><path class="cls-6" d="M15.86,114.22s6.24-3.8,8-1.11c0,0,4.29,3.32,1.66,4.93,0,0,1,2.94-2.51,5s-7.27,8-13.91-.11C9.14,122.91,5.76,117.13,15.86,114.22Z"/><path class="cls-1" d="M-6.69,96.2s14.66,16.89,22.55,18c0,0,2,7.3-4.11,8.86s-18.7-12.35-23.6-19S-11.55,92.51-6.69,96.2Z"/></svg>