<svg id="_10" data-name="10" xmlns="http://www.w3.org/2000/svg" xmlns:xlink="http://www.w3.org/1999/xlink" viewBox="0 0 260 168"><defs><style>.cls-1{fill:#ffbd29;}.cls-2{clip-path:url(#clip-path);}.cls-3{fill:#ff7e27;}</style><clipPath id="clip-path"><path class="cls-1" d="M-8.94,104.76C-1.89,117,4.91,110.1,4.91,110.1c2.85-2.22,4.3,0,4.3,0,1.5,1.8,3.11-.36,3.11-.36a2.76,2.76,0,0,0,.45-3.53c-4.19-6-10.24,1-10.24,1-6.11,4.85-10.44-3.49-10.44-3.49a.6.6,0,0,0-.86,0A1,1,0,0,0-8.94,104.76Z"/></clipPath></defs><path class="cls-1" d="M-8.94,104.76C-1.89,117,4.91,110.1,4.91,110.1c2.85-2.22,4.3,0,4.3,0,1.5,1.8,3.11-.36,3.11-.36a2.76,2.76,0,0,0,.45-3.53c-4.19-6-10.24,1-10.24,1-6.11,4.85-10.44-3.49-10.44-3.49a.6.6,0,0,0-.86,0A1,1,0,0,0-8.94,104.76Z"/><g class="cls-2"><ellipse class="cls-3" cx="9.06" cy="103.82" rx="1.06" ry="3.18" transform="matrix(1, -0.08, 0.08, 1, -8, 1.01)"/><ellipse class="cls-3" cx="5.43" cy="104.64" rx="1.06" ry="3.18" transform="translate(-30.33 6.15) rotate(-16.98)"/></g></svg>