<svg id="Layer_1" data-name="Layer 1" xmlns="http://www.w3.org/2000/svg" xmlns:xlink="http://www.w3.org/1999/xlink" viewBox="0 0 260 168"><defs><style>.cls-1{fill:#ffbd29;}.cls-2{fill:#ffab24;}.cls-3{fill:#fff;}.cls-4{fill:#f9d89d;}.cls-5{fill:#ffa92c;}.cls-6{clip-path:url(#clip-path);}.cls-7{fill:#ff7e27;}.cls-8{clip-path:url(#clip-path-2);}.cls-9{fill:#ffe7b6;}.cls-10{fill:#3acccc;}.cls-11{clip-path:url(#clip-path-3);}.cls-12{fill:#7f4a03;}.cls-13{clip-path:url(#clip-path-4);}.cls-14{fill:#ff8098;}.cls-15{clip-path:url(#clip-path-5);}.cls-16{clip-path:url(#clip-path-6);}.cls-17{fill:#594025;}.cls-18,.cls-19{fill:none;stroke-linecap:round;}.cls-18{stroke:#7f4a03;stroke-miterlimit:10;stroke-width:0.64px;}.cls-19{stroke:#ffc866;stroke-linejoin:round;stroke-width:0.15px;}</style><clipPath id="clip-path"><path class="cls-1" d="M163.39,112.27c11,10.54,16,1.34,16,1.34,2.28-3.17,4.45-1.34,4.45-1.34,2.09,1.41,3.11-1.32,3.11-1.32a3,3,0,0,0-.6-3.8c-6.18-5-10.32,4.12-10.32,4.12-4.87,6.88-11.89-.44-11.89-.44a.65.65,0,0,0-.9.25A1.05,1.05,0,0,0,163.39,112.27Z"/></clipPath><clipPath id="clip-path-2"><path class="cls-1" d="M151.89,111.69s.57-.14,1.61-.44c.54-.33,3-1.82,2.87-1.06.68-.34,1.33-.59,1.4-.34,3.35-1.15,7-1.61,8.74,1.59s.92,7.84-6,8.56-10.07-.06-11.75-2.91C146.45,113.26,146.07,112,151.89,111.69Z"/></clipPath><clipPath id="clip-path-3"><path class="cls-2" d="M144.1,101s-1.64-4.27-.43-5l.06,0c.21-.08,1.64-.42,4.31,3.27a.28.28,0,0,1,.06.25,2.46,2.46,0,0,1-2,1.7S144.31,101.77,144.1,101Z"/></clipPath><clipPath id="clip-path-4"><path class="cls-1" d="M140.48,113.31c2.65,1.12,7.4.27,7.83.19h.06a12.44,12.44,0,0,0,5.38-1.31,8.6,8.6,0,0,0,4.75-4.81.3.3,0,0,0-.3-.4c-2.23,0-2.54-.88-2.57-1s0,0,0,0c-.82-9.37-7.21-9.22-7.21-9.22s-9.39-1.16-8.35,9.56a.3.3,0,0,1,0,.13c-.08.24-.51,1.1-2.16,1.57a.31.31,0,0,0-.18.14c-.12.21-.23.75.48,1.86a20.26,20.26,0,0,0,1.26,2s.31.43,1.66.4c0,0-1.4,0-1.22.37A2,2,0,0,0,140.48,113.31Z"/></clipPath><clipPath id="clip-path-5"><path class="cls-2" d="M147.17,100.68s-1.58-4.12-.48-4.92a.28.28,0,0,1,.2,0c.45,0,2.25.42,4.71,3.77a.31.31,0,0,1-.06.43,7.1,7.1,0,0,1-2.38,1S147.38,101.49,147.17,100.68Z"/></clipPath><clipPath id="clip-path-6"><circle class="cls-3" cx="143.74" cy="104.86" r="1.7"/></clipPath></defs><path class="cls-4" d="M170.12,119.81s-.39,1.71.36,1.91c0,0,1.08.73,1.25,0,0,0,.74,0,1-1s1.26-2.26-1.08-3.17C171.6,117.61,170,117.28,170.12,119.81Z"/><path class="cls-5" d="M164.3,116s5,2.06,5.82,3.78c0,0,1.82-.1,1.71-1.61s-4.23-3.34-6.11-4S163.09,115.2,164.3,116Z"/><path class="cls-1" d="M163.39,112.27c11,10.54,16,1.34,16,1.34,2.28-3.17,4.45-1.34,4.45-1.34,2.09,1.41,3.11-1.32,3.11-1.32a3,3,0,0,0-.6-3.8c-6.18-5-10.32,4.12-10.32,4.12-4.87,6.88-11.89-.44-11.89-.44a.65.65,0,0,0-.9.25A1.05,1.05,0,0,0,163.39,112.27Z"/><g class="cls-6"><ellipse class="cls-7" cx="181.77" cy="105.84" rx="1.15" ry="3.44" transform="translate(-25.72 71.32) rotate(-20.77)"/><ellipse class="cls-7" cx="178.26" cy="107.79" rx="1.15" ry="3.44" transform="translate(-29.91 115.62) rotate(-33.31)"/></g><path class="cls-4" d="M149.42,123.56s-1.67.54-1.46,1.29c0,0-.07,1.3.64,1.08a1,1,0,0,0,1.3.32c.92-.32,2.59-.09,2.16-2.56C152.06,123.69,151.53,122.17,149.42,123.56Z"/><path class="cls-5" d="M149.66,116.62s.79,5.32-.24,6.94c0,0,1,1.51,2.26.63s.67-5.34.23-7.27S149.74,115.16,149.66,116.62Z"/><path class="cls-1" d="M151.89,111.69s.57-.14,1.61-.44c.54-.33,3-1.82,2.87-1.06.68-.34,1.33-.59,1.4-.34,3.35-1.15,7-1.61,8.74,1.59s.92,7.84-6,8.56-10.07-.06-11.75-2.91C146.45,113.26,146.07,112,151.89,111.69Z"/><g class="cls-8"><ellipse class="cls-7" cx="157.26" cy="110.25" rx="2.82" ry="1.27" transform="translate(-22.49 177.91) rotate(-55.66)"/><ellipse class="cls-7" cx="160.73" cy="110.1" rx="2.82" ry="1.27" transform="matrix(0.51, -0.86, 0.86, 0.51, -15.97, 192.15)"/><path class="cls-9" d="M147.69,117.2s-.17-1.63,2.44-.47,3.08,2.36,7.43,1.72,6.62-1.75,7.39-1.2,1.76,1.33-.93,3.18-12.88,2-12.88,2a27.18,27.18,0,0,1-3.5-1.12C147.58,121.12,147.69,117.2,147.69,117.2Z"/></g><path class="cls-10" d="M153.43,111a15.64,15.64,0,0,1-6,3.94l-.71-2.1S153.83,107.92,153.43,111Z"/><path class="cls-2" d="M144.1,101s-1.64-4.27-.43-5l.06,0c.21-.08,1.64-.42,4.31,3.27a.28.28,0,0,1,.06.25,2.46,2.46,0,0,1-2,1.7S144.31,101.77,144.1,101Z"/><g class="cls-11"><path class="cls-12" d="M142.36,96.89s2-.2,2.93,4.6c0,0-2.32,1.38-2.59.69s-1.12-4.45-1.12-4.45Z"/></g><path class="cls-1" d="M140.48,113.31c2.65,1.12,7.4.27,7.83.19h.06a12.44,12.44,0,0,0,5.38-1.31,8.6,8.6,0,0,0,4.75-4.81.3.3,0,0,0-.3-.4c-2.23,0-2.54-.88-2.57-1s0,0,0,0c-.82-9.37-7.21-9.22-7.21-9.22s-9.39-1.16-8.35,9.56a.3.3,0,0,1,0,.13c-.08.24-.51,1.1-2.16,1.57a.31.31,0,0,0-.18.14c-.12.21-.23.75.48,1.86a20.26,20.26,0,0,0,1.26,2s.31.43,1.66.4c0,0-1.4,0-1.22.37A2,2,0,0,0,140.48,113.31Z"/><g class="cls-13"><ellipse class="cls-9" cx="140.41" cy="112.89" rx="6" ry="6.6" transform="translate(-8.57 11.57) rotate(-4.58)"/></g><ellipse class="cls-14" cx="138.63" cy="107.82" rx="1.03" ry="0.6" transform="translate(-8.17 11.41) rotate(-4.58)"/><ellipse class="cls-7" cx="149.49" cy="102.92" rx="2.95" ry="1.11" transform="translate(-7.74 12.27) rotate(-4.58)"/><ellipse class="cls-7" cx="149.05" cy="99.3" rx="3.1" ry="1.11" transform="translate(-7.45 12.22) rotate(-4.58)"/><path class="cls-2" d="M147.17,100.68s-1.58-4.12-.48-4.92a.28.28,0,0,1,.2,0c.45,0,2.25.42,4.71,3.77a.31.31,0,0,1-.06.43,7.1,7.1,0,0,1-2.38,1S147.38,101.49,147.17,100.68Z"/><g class="cls-15"><path class="cls-12" d="M145.43,96.61s2-.2,2.94,4.6c0,0-2.32,1.38-2.59.69s-1.13-4.45-1.13-4.45Z"/></g><circle class="cls-3" cx="143.74" cy="104.86" r="1.7"/><g class="cls-16"><circle class="cls-17" cx="143.1" cy="105.46" r="1.27"/><circle class="cls-17" cx="143.1" cy="105.46" r="0.94"/><circle class="cls-3" cx="143.64" cy="104.52" r="0.38"/></g><path class="cls-18" d="M141.83,102.25s2-2,3.37.09"/><path class="cls-19" d="M146.33,108.33s-3.38-.88-5.34.54"/><path class="cls-19" d="M146.46,109.53s-3.25-1.27-5.37-.08"/><path class="cls-19" d="M146.66,110.5s-3.19-1.42-5.36-.33"/><path class="cls-9" d="M144.31,119.81s-1.5-.91-1.93-.26c0,0-1,.8-.4,1.18a1,1,0,0,0,.6,1.2c.85.49,1.75,1.91,3.35,0C145.93,121.9,146.74,120.51,144.31,119.81Z"/><path class="cls-1" d="M149.73,115.48s-3.52,4.06-5.42,4.33c0,0-.48,1.76,1,2.13s4.5-3,5.68-4.55S150.9,114.6,149.73,115.48Z"/><path class="cls-9" d="M164.26,123.16s-1.54.86-1.19,1.55c0,0,.19,1.29.83.94a1,1,0,0,0,1.34.06c.85-.48,2.53-.57,1.64-2.92C166.88,122.79,166.07,121.4,164.26,123.16Z"/><path class="cls-1" d="M163.18,116.31s1.78,5.07,1.08,6.85c0,0,1.29,1.3,2.34.2s-.35-5.38-1.15-7.19S163,114.86,163.18,116.31Z"/></svg>