<svg id="_6" data-name="6" xmlns="http://www.w3.org/2000/svg" xmlns:xlink="http://www.w3.org/1999/xlink" viewBox="0 0 260 168"><defs><style>.cls-1{fill:#ffbd29;}.cls-2{fill:#5b091b;}.cls-3{clip-path:url(#clip-path);}.cls-4{fill:#ff7e27;}.cls-5{fill:#eaa61f;}.cls-6{clip-path:url(#clip-path-2);}.cls-7{fill:#ffe7b6;}.cls-8{fill:#3acccc;}.cls-9{fill:#ffab24;}.cls-10{fill:#7f4a03;}.cls-11{clip-path:url(#clip-path-3);}.cls-12{fill:#fff;}.cls-13{fill:#594025;}.cls-14{clip-path:url(#clip-path-4);}.cls-15{fill:#a82648;}.cls-16{fill:none;stroke:#a57749;stroke-linecap:round;stroke-linejoin:round;stroke-width:0.77px;}.cls-17{fill:#ff8098;}</style><clipPath id="clip-path"><path class="cls-1" d="M53,140.92s40.83-35,8.13-60.17c0,0-34.95-28.45-18.34-45.26,0,0,7.1-9.91,15.4-6.2,0,0,11.5,4.69,4.19,14.65,0,0-7.75,11.11,7.29,22.9,0,0,40.65,25.32-13.11,77.13"/></clipPath><clipPath id="clip-path-2"><path class="cls-1" d="M77.75,127.08l-14.23-.33-14.23.33s-20.66,31.49-5.49,42.26c7.83,5.55,14.54,5.47,19.72,5.47s11.84,0,19.71-5.47C89.07,165.27,77.75,127.08,77.75,127.08Z"/></clipPath><clipPath id="clip-path-3"><path class="cls-1" d="M109.26,124.7c-5.53-3.18-12.58-15.92-15.52-21.6-.35-.76-.73-1.51-1.14-2.24l-.26-.53h0a33.3,33.3,0,0,0-57.61,0h0l0,.1c-.59,1-1.13,2.1-1.62,3.19-3.09,5.91-9.88,18-15.24,21.08a3.87,3.87,0,0,0,3.65,2.44s-5.76,22.09,39.66,23.19l0-.1c.81.06,1.61.1,2.43.1s1.65,0,2.46-.1v.1c45.42-1.1,39.66-23.19,39.66-23.19A3.87,3.87,0,0,0,109.26,124.7Z"/></clipPath><clipPath id="clip-path-4"><path class="cls-2" d="M55.08,141.15a9.74,9.74,0,0,0,9.26,5.5c6.69-.31,7.88-5.43,7.88-5.43s-3.25,3.5-8.57-.89C63.65,140.33,60.73,143.89,55.08,141.15Z"/></clipPath></defs><path class="cls-1" d="M53,140.92s40.83-35,8.13-60.17c0,0-34.95-28.45-18.34-45.26,0,0,7.1-9.91,15.4-6.2,0,0,11.5,4.69,4.19,14.65,0,0-7.75,11.11,7.29,22.9,0,0,40.65,25.32-13.11,77.13"/><g class="cls-3"><ellipse class="cls-4" cx="41.96" cy="50.51" rx="12.75" ry="6.07" transform="translate(-8.03 7.93) rotate(-9.86)"/><ellipse class="cls-4" cx="47.71" cy="66.81" rx="12.75" ry="6.07" transform="translate(-29.21 38.12) rotate(-34.02)"/></g><path class="cls-5" d="M82.42,145.88s-8.61,37.34-3.33,38.21,2.16,8.35-.51,7.91c0,0-3.32,2.09-8.14-.48,0,0-4.46,1.14-7.06-2,0,0-2.2-7.85,3.94-10.21,0,0,2-24.62,6.23-38.79S83.17,126.62,82.42,145.88Z"/><path class="cls-5" d="M42.34,151.75s9.38,37.14,4.13,38.12-2,8.4.67,7.9c0,0,3.35,2,8.13-.64,0,0,4.48,1,7-2.19,0,0,2-7.9-4.15-10.13,0,0-2.48-24.58-7-38.64S41.19,132.5,42.34,151.75Z"/><path class="cls-1" d="M49.06,126.13a10.76,10.76,0,0,1-4.68,8.74,7.15,7.15,0,0,0,2.44.09,23.8,23.8,0,0,1-3.09,4.32,2.71,2.71,0,0,0,1.44,0,8.07,8.07,0,0,1-2.84,2.54l5.22.19a2.79,2.79,0,0,0,1.32-.16,2.39,2.39,0,0,0,.92-2.5,47.44,47.44,0,0,0-1-6.62c-.1-.42.33-1,.42-1.44.12-.57-.92-1-.6-1.5a1.63,1.63,0,0,0,.24-1.63"/><path class="cls-1" d="M78.21,126.13a10.76,10.76,0,0,0,4.68,8.74,7.15,7.15,0,0,1-2.44.09,24.35,24.35,0,0,0,3.1,4.32,2.75,2.75,0,0,1-1.45,0,8.25,8.25,0,0,0,2.84,2.54l-5.21.19a2.79,2.79,0,0,1-1.32-.16,2.38,2.38,0,0,1-.93-2.5,49,49,0,0,1,1-6.62c.1-.42-.33-1-.41-1.44-.12-.57.91-1,.6-1.5a1.65,1.65,0,0,1-.25-1.63"/><path class="cls-1" d="M77.75,127.08l-14.23-.33-14.23.33s-20.66,31.49-5.49,42.26c7.83,5.55,14.54,5.47,19.72,5.47s11.84,0,19.71-5.47C89.07,165.27,77.75,127.08,77.75,127.08Z"/><g class="cls-6"><ellipse class="cls-7" cx="63.66" cy="176.59" rx="14.32" ry="18.78"/></g><path class="cls-8" d="M46.49,128.62s15.45,17.41,34.34,0l-31-5.59"/><path class="cls-1" d="M38,156s10.3,36.9,5.07,38-1.79,8.44.87,7.88c0,0,3.4,1.94,8.11-.85,0,0,4.5.94,7-2.36,0,0,1.84-7.94-4.4-10,0,0-3.09-24.51-8-38.46S36.33,136.82,38,156Z"/><path class="cls-1" d="M87.29,158.67s-7.11,37.64-1.81,38.3,2.5,8.26-.19,7.93c0,0-3.23,2.22-8.16-.15,0,0-4.4,1.31-7.13-1.76,0,0-2.5-7.76,3.53-10.36,0,0,1-24.68,4.68-39S87.28,139.39,87.29,158.67Z"/><path class="cls-9" d="M48.19,88.41s-25.39-22.11-13.55,12c0,0,4.39,2.18,9.5-2.61C44.14,97.82,50.54,94.18,48.19,88.41Z"/><path class="cls-10" d="M45.11,89.45S29.39,75.76,36.72,96.9c0,0,2.72,1.34,5.88-1.62C42.6,95.28,46.57,93,45.11,89.45Z"/><path class="cls-9" d="M77.43,88.41s25.39-22.11,13.55,12c0,0-4.39,2.18-9.49-2.61C81.49,97.82,75.08,94.18,77.43,88.41Z"/><path class="cls-10" d="M81.36,89.45s15.72-13.69,8.39,7.45c0,0-2.71,1.34-5.88-1.62C83.87,95.28,79.9,93,81.36,89.45Z"/><path class="cls-1" d="M109.26,124.7c-5.53-3.18-12.58-15.92-15.52-21.6-.35-.76-.73-1.51-1.14-2.24l-.26-.53h0a33.3,33.3,0,0,0-57.61,0h0l0,.1c-.59,1-1.13,2.1-1.62,3.19-3.09,5.91-9.88,18-15.24,21.08a3.87,3.87,0,0,0,3.65,2.44s-5.76,22.09,39.66,23.19l0-.1c.81.06,1.61.1,2.43.1s1.65,0,2.46-.1v.1c45.42-1.1,39.66-23.19,39.66-23.19A3.87,3.87,0,0,0,109.26,124.7Z"/><g class="cls-11"><circle class="cls-7" cx="63.52" cy="148.18" r="22.87"/><ellipse class="cls-4" cx="27.9" cy="114.06" rx="9.51" ry="3.1"/><ellipse class="cls-4" cx="33.14" cy="104.03" rx="9.51" ry="3.1"/><ellipse class="cls-4" cx="98.48" cy="114.06" rx="9.51" ry="3.1"/><ellipse class="cls-4" cx="93.23" cy="104.03" rx="9.51" ry="3.1"/><ellipse class="cls-4" cx="57.27" cy="88.55" rx="3" ry="10.51"/><ellipse class="cls-4" cx="69.11" cy="88.55" rx="3" ry="10.51"/></g><circle class="cls-12" cx="45.43" cy="118.99" r="8.03"/><circle class="cls-13" cx="45.43" cy="118.99" r="5.55"/><circle class="cls-13" cx="45.43" cy="118.99" r="3.65"/><circle class="cls-12" cx="43.16" cy="115.33" r="1.83"/><circle class="cls-12" cx="81.04" cy="118.99" r="8.03"/><circle class="cls-13" cx="81.04" cy="118.99" r="5.55"/><circle class="cls-13" cx="81.04" cy="118.99" r="3.65"/><circle class="cls-12" cx="78.77" cy="115.33" r="1.83"/><path class="cls-1" d="M51,127s-3.64-3.46-16.66-1.34c0,0,5.1,2.55,5.56,2.55s10.32.12,10.5,0A5.59,5.59,0,0,0,51,127Z"/><path class="cls-1" d="M76.91,127s3.65-3.46,16.66-1.34c0,0-5.09,2.55-5.56,2.55s-10.31.12-10.49,0A5.25,5.25,0,0,1,76.91,127Z"/><path class="cls-10" d="M41.33,106a4,4,0,0,1,2-1.91,5.68,5.68,0,0,1,2.76-.5,5.91,5.91,0,0,1,2.64.84,5,5,0,0,1,1.88,2,9.36,9.36,0,0,1-1.34-.07c-.42,0-.8-.09-1.19-.11-.76-.1-1.46-.14-2.16-.21S44.54,106,43.8,106,42.28,106,41.33,106Z"/><path class="cls-10" d="M85.25,106c-1-.05-1.73-.07-2.47-.06s-1.44,0-2.13.08-1.41.11-2.16.21c-.39,0-.77.1-1.2.11a9.28,9.28,0,0,1-1.34.07,4.94,4.94,0,0,1,1.89-2,5.91,5.91,0,0,1,2.64-.84,5.7,5.7,0,0,1,2.76.5A4,4,0,0,1,85.25,106Z"/><path class="cls-2" d="M55.08,141.15a9.74,9.74,0,0,0,9.26,5.5c6.69-.31,7.88-5.43,7.88-5.43s-3.25,3.5-8.57-.89C63.65,140.33,60.73,143.89,55.08,141.15Z"/><g class="cls-14"><ellipse class="cls-15" cx="64.12" cy="148.63" rx="4.33" ry="7.43" transform="translate(-86.13 208.87) rotate(-88.51)"/><ellipse class="cls-12" cx="59.44" cy="142.26" rx="0.8" ry="1.32" transform="translate(-12.18 5.73) rotate(-5)"/><ellipse class="cls-12" cx="67.94" cy="142.43" rx="1.32" ry="0.8" transform="translate(-78.91 200.19) rotate(-85.97)"/></g><path class="cls-16" d="M63.61,131.74l0,8.29s-3,5.3-10.16,0"/><path class="cls-16" d="M63.61,131.74l0,8.29s2.94,5.31,10.15,0"/><ellipse class="cls-17" cx="63.52" cy="129.94" rx="5.6" ry="2.92"/></svg>