<svg id="_1" data-name="1" xmlns="http://www.w3.org/2000/svg" xmlns:xlink="http://www.w3.org/1999/xlink" viewBox="0 0 260 168"><defs><style>.cls-1{fill:#ffbd29;}.cls-2{fill:#ffab24;}.cls-3{fill:#fff;}.cls-4{fill:#f9d89d;}.cls-5{fill:#ffa92c;}.cls-6{clip-path:url(#clip-path);}.cls-7{fill:#ff7e27;}.cls-8{clip-path:url(#clip-path-2);}.cls-9{fill:#ffe7b6;}.cls-10{fill:#3acccc;}.cls-11{clip-path:url(#clip-path-3);}.cls-12{fill:#7f4a03;}.cls-13{clip-path:url(#clip-path-4);}.cls-14{fill:#ff8098;}.cls-15{clip-path:url(#clip-path-5);}.cls-16{clip-path:url(#clip-path-6);}.cls-17{fill:#594025;}.cls-18,.cls-19{fill:none;stroke-linecap:round;}.cls-18{stroke:#7f4a03;stroke-miterlimit:10;stroke-width:0.6px;}.cls-19{stroke:#ffc866;stroke-linejoin:round;stroke-width:0.14px;}</style><clipPath id="clip-path"><path class="cls-1" d="M44.35,104.81c10.2,9.75,14.8,1.24,14.8,1.24,2.11-2.93,4.12-1.24,4.12-1.24,1.93,1.3,2.88-1.22,2.88-1.22a2.76,2.76,0,0,0-.56-3.52c-5.71-4.59-9.55,3.82-9.55,3.82-4.51,6.36-11-.42-11-.42a.61.61,0,0,0-.83.23A1,1,0,0,0,44.35,104.81Z"/></clipPath><clipPath id="clip-path-2"><path class="cls-1" d="M33.7,104.27s.54-.13,1.49-.41c.5-.3,2.81-1.68,2.66-1,.63-.31,1.23-.54,1.3-.31,3.1-1.07,6.46-1.5,8.09,1.47s.85,7.26-5.59,7.92-9.32-.06-10.88-2.69C28.67,105.72,28.32,104.59,33.7,104.27Z"/></clipPath><clipPath id="clip-path-3"><path class="cls-2" d="M26.49,94.34s-1.51-4-.39-4.59l0,0c.2-.07,1.53-.39,4,3a.36.36,0,0,1,.05.23,2.28,2.28,0,0,1-1.86,1.57S26.69,95.09,26.49,94.34Z"/></clipPath><clipPath id="clip-path-4"><path class="cls-1" d="M23.15,105.77c2.44,1,6.85.25,7.24.17h.06a11.7,11.7,0,0,0,5-1.21,7.92,7.92,0,0,0,4.39-4.46.29.29,0,0,0-.28-.37c-2,0-2.34-.81-2.37-1a0,0,0,0,1,0,0c-.76-8.67-6.67-8.53-6.67-8.53s-8.69-1.08-7.73,8.85a.25.25,0,0,1,0,.12c-.08.22-.47,1-2,1.45a.31.31,0,0,0-.17.13c-.11.2-.21.7.44,1.72a20.85,20.85,0,0,0,1.17,1.86s.29.39,1.54.36c0,0-1.3,0-1.13.34A1.9,1.9,0,0,0,23.15,105.77Z"/></clipPath><clipPath id="clip-path-5"><path class="cls-2" d="M29.34,94.08s-1.47-3.82-.44-4.55a.22.22,0,0,1,.18,0c.42,0,2.08.39,4.36,3.49a.29.29,0,0,1-.06.4,6.48,6.48,0,0,1-2.2.92S29.54,94.83,29.34,94.08Z"/></clipPath><clipPath id="clip-path-6"><circle class="cls-3" cx="26.16" cy="97.95" r="1.58"/></clipPath></defs><path class="cls-4" d="M50.58,111.78s-.36,1.59.33,1.78c0,0,1,.67,1.16,0,0,0,.69,0,.87-.88s1.18-2.09-1-2.93C51.94,109.75,50.49,109.44,50.58,111.78Z"/><path class="cls-5" d="M45.19,108.28s4.6,1.92,5.39,3.5c0,0,1.69-.08,1.58-1.49s-3.91-3.08-5.65-3.65S44.07,107.52,45.19,108.28Z"/><path class="cls-1" d="M44.35,104.81c10.2,9.75,14.8,1.24,14.8,1.24,2.11-2.93,4.12-1.24,4.12-1.24,1.93,1.3,2.88-1.22,2.88-1.22a2.76,2.76,0,0,0-.56-3.52c-5.71-4.59-9.55,3.82-9.55,3.82-4.51,6.36-11-.42-11-.42a.61.61,0,0,0-.83.23A1,1,0,0,0,44.35,104.81Z"/><g class="cls-6"><ellipse class="cls-7" cx="61.36" cy="98.86" rx="1.06" ry="3.18" transform="translate(-31.06 28.18) rotate(-20.77)"/><ellipse class="cls-7" cx="58.11" cy="100.66" rx="1.06" ry="3.18" transform="translate(-45.74 48.46) rotate(-33.31)"/></g><path class="cls-4" d="M31.42,115.25s-1.55.51-1.35,1.2c0,0-.06,1.21.59,1a1,1,0,0,0,1.21.29c.85-.29,2.39-.07,2-2.36C33.86,115.38,33.37,114,31.42,115.25Z"/><path class="cls-5" d="M31.64,108.83s.73,4.93-.22,6.42c0,0,.94,1.4,2.09.59s.62-5,.22-6.73S31.72,107.48,31.64,108.83Z"/><path class="cls-1" d="M33.7,104.27s.54-.13,1.49-.41c.5-.3,2.81-1.68,2.66-1,.63-.31,1.23-.54,1.3-.31,3.1-1.07,6.46-1.5,8.09,1.47s.85,7.26-5.59,7.92-9.32-.06-10.88-2.69C28.67,105.72,28.32,104.59,33.7,104.27Z"/><g class="cls-8"><ellipse class="cls-7" cx="38.67" cy="102.94" rx="2.61" ry="1.18" transform="translate(-68.14 76.8) rotate(-55.66)"/><ellipse class="cls-7" cx="41.89" cy="102.8" rx="2.61" ry="1.18" transform="translate(-67.9 86.37) rotate(-59.32)"/><path class="cls-9" d="M29.81,109.37s-.15-1.5,2.27-.43,2.85,2.18,6.88,1.59,6.12-1.62,6.84-1.11,1.62,1.23-.87,2.94S33,114.22,33,114.22a24.87,24.87,0,0,1-3.25-1C29.72,113,29.81,109.37,29.81,109.37Z"/></g><path class="cls-10" d="M35.13,103.66a14.43,14.43,0,0,1-5.56,3.65l-.66-1.94S35.5,100.79,35.13,103.66Z"/><path class="cls-2" d="M26.49,94.34s-1.51-4-.39-4.59l0,0c.2-.07,1.53-.39,4,3a.36.36,0,0,1,.05.23,2.28,2.28,0,0,1-1.86,1.57S26.69,95.09,26.49,94.34Z"/><g class="cls-11"><path class="cls-12" d="M24.88,90.57s1.82-.18,2.72,4.26c0,0-2.15,1.28-2.4.64s-1-4.12-1-4.12Z"/></g><path class="cls-1" d="M23.15,105.77c2.44,1,6.85.25,7.24.17h.06a11.7,11.7,0,0,0,5-1.21,7.92,7.92,0,0,0,4.39-4.46.29.29,0,0,0-.28-.37c-2,0-2.34-.81-2.37-1a0,0,0,0,1,0,0c-.76-8.67-6.67-8.53-6.67-8.53s-8.69-1.08-7.73,8.85a.25.25,0,0,1,0,.12c-.08.22-.47,1-2,1.45a.31.31,0,0,0-.17.13c-.11.2-.21.7.44,1.72a20.85,20.85,0,0,0,1.17,1.86s.29.39,1.54.36c0,0-1.3,0-1.13.34A1.9,1.9,0,0,0,23.15,105.77Z"/><g class="cls-13"><ellipse class="cls-9" cx="23.08" cy="105.38" rx="5.55" ry="6.11" transform="translate(-8.34 2.18) rotate(-4.58)"/></g><ellipse class="cls-14" cx="21.43" cy="100.69" rx="0.96" ry="0.56" transform="translate(-7.97 2.03) rotate(-4.58)"/><ellipse class="cls-7" cx="31.49" cy="96.15" rx="2.73" ry="1.02" transform="translate(-7.58 2.82) rotate(-4.58)"/><ellipse class="cls-7" cx="31.08" cy="92.8" rx="2.87" ry="1.02" transform="translate(-7.31 2.78) rotate(-4.58)"/><path class="cls-2" d="M29.34,94.08s-1.47-3.82-.44-4.55a.22.22,0,0,1,.18,0c.42,0,2.08.39,4.36,3.49a.29.29,0,0,1-.06.4,6.48,6.48,0,0,1-2.2.92S29.54,94.83,29.34,94.08Z"/><g class="cls-15"><path class="cls-12" d="M27.73,90.32s1.82-.19,2.72,4.25c0,0-2.15,1.28-2.4.64s-1-4.12-1-4.12Z"/></g><circle class="cls-3" cx="26.16" cy="97.95" r="1.58"/><g class="cls-16"><circle class="cls-17" cx="25.57" cy="98.5" r="1.18"/><circle class="cls-17" cx="25.57" cy="98.5" r="0.87"/><circle class="cls-3" cx="26.07" cy="97.64" r="0.35"/></g><path class="cls-18" d="M24.39,95.53s1.83-1.83,3.13.09"/><path class="cls-19" d="M28.56,101.17s-3.12-.82-4.94.5"/><path class="cls-19" d="M28.68,102.27s-3-1.17-5-.08"/><path class="cls-19" d="M28.87,103.17s-2.95-1.31-5-.31"/><path class="cls-9" d="M26.69,111.79s-1.39-.85-1.79-.25c0,0-.95.74-.37,1.1a1,1,0,0,0,.56,1.11c.78.46,1.62,1.77,3.1,0C28.19,113.72,28.94,112.44,26.69,111.79Z"/><path class="cls-1" d="M31.71,107.78s-3.26,3.76-5,4c0,0-.45,1.63.92,2s4.16-2.75,5.25-4.21S32.79,107,31.71,107.78Z"/><path class="cls-9" d="M45.16,114.89s-1.43.79-1.1,1.43c0,0,.17,1.2.77.87a1,1,0,0,0,1.24.06c.78-.45,2.34-.53,1.51-2.7C47.58,114.55,46.83,113.26,45.16,114.89Z"/><path class="cls-1" d="M44.16,108.55s1.65,4.69,1,6.34c0,0,1.18,1.2,2.16.18s-.32-5-1.06-6.65S44,107.2,44.16,108.55Z"/></svg>