<svg id="Layer_1" data-name="Layer 1" xmlns="http://www.w3.org/2000/svg" xmlns:xlink="http://www.w3.org/1999/xlink" viewBox="0 0 260 168"><defs><style>.cls-1{fill:#ffab14;}.cls-2{fill:#ffab24;}.cls-3{fill:#fff;}.cls-4{fill:#ffbd29;}.cls-5{fill:#f9bd2a;}.cls-6{fill:#f48c37;}.cls-7{clip-path:url(#clip-path);}.cls-8{fill:#ffda99;}.cls-9{clip-path:url(#clip-path-2);}.cls-10{clip-path:url(#clip-path-3);}.cls-11{fill:#ff7e27;}.cls-12{clip-path:url(#clip-path-4);}.cls-13{fill:#ffe7b6;}.cls-14{fill:#3acccc;}.cls-15{clip-path:url(#clip-path-5);}.cls-16{clip-path:url(#clip-path-6);}.cls-17{clip-path:url(#clip-path-7);}.cls-18{fill:#ef526c;}.cls-19{clip-path:url(#clip-path-8);}.cls-20{fill:#7f4a03;}.cls-21{clip-path:url(#clip-path-9);}.cls-22{fill:#ff8098;}.cls-23{clip-path:url(#clip-path-10);}.cls-24{clip-path:url(#clip-path-11);}.cls-25{fill:#594025;}.cls-26,.cls-27{fill:none;stroke-linecap:round;}.cls-26{stroke:#7f4a03;stroke-miterlimit:10;stroke-width:0.99px;}.cls-27{stroke:#ffc866;stroke-linejoin:round;stroke-width:0.23px;}</style><clipPath id="clip-path"><path class="cls-1" d="M86.92,59.14c2.2,3.2,10.45,1.65,10.45,1.65-18.77,5.82-2.84,19.53-2.84,19.53s10.63,11,18.2,1-5.4-14.88-5.4-14.88-7.77-2.93-2.23-4.83c4.43-1.51,1.64-4.76,1.64-4.76s-2.27-1.51-11-1.66-8.88,1.56-8.88,1.56A2.38,2.38,0,0,0,86.92,59.14Z"/></clipPath><clipPath id="clip-path-2"><path class="cls-1" d="M143.49,113s12.87,6.83,15.54,12.36c0,0,2.35-3.1,4.18-2,0,0,4.42,1.52-2.29,8,0,0-3,3.65-4.4-1.55,0,0-14.21-5.3-16.21-12.61C140.31,117.3,138.69,112.39,143.49,113Z"/></clipPath><clipPath id="clip-path-3"><path class="cls-4" d="M91.87,75.11S72.46,62.84,85.53,49c0,0,18.27-13.29,4.5-24.73a6.76,6.76,0,0,0-8.71.37s-5.59,3.48-1.52,7.49c0,0,5,4-1,10.47,0,0-18.16,15.15,10.15,34.84"/></clipPath><clipPath id="clip-path-4"><path class="cls-4" d="M157,65.05s-14.46,7.37-29,3.24S104.24,59.47,93.2,68s-13.86,21.92,6.5,48.17S137.18,130,137.18,130s16-9.56,23.14-25.66a169.43,169.43,0,0,0,9-25.1Z"/></clipPath><clipPath id="clip-path-5"><path class="cls-5" d="M133.35,118.57s11.27,9.24,12.79,15.19c0,0,2.92-2.57,4.48-1.08,0,0,4,2.36-3.84,7.42,0,0-3.63,3-4-2.39,0,0-12.89-8-13.4-15.56C129.38,122.15,128.77,117,133.35,118.57Z"/></clipPath><clipPath id="clip-path-6"><path class="cls-4" d="M61.69,83.69C65.33,85.05,71.18,79,71.18,79c-12,15.57,8.92,17.61,8.92,17.61s15,2.88,15.46-9.66-13-9.07-13-9.07S74.54,80,78,75.25c2.75-3.79-1.4-4.84-1.4-4.84s-2.72.08-10,5-6.36,6.38-6.36,6.38A2.36,2.36,0,0,0,61.69,83.69Z"/></clipPath><clipPath id="clip-path-7"><path class="cls-6" d="M180.05,80s-1.39.29-1.71,1.35c0,0-3.35-1.34-2.78-3.16s3.62-1.28,3.79-1.08A27.11,27.11,0,0,1,180.05,80Z"/></clipPath><clipPath id="clip-path-8"><path class="cls-2" d="M179.28,62.17s4.81-5.23,3.37-6.87c0,0-1.66-1.93-8.21,2.31,0,0-.62,2,1.87,3.78C176.31,61.39,178.53,63.2,179.28,62.17Z"/></clipPath><clipPath id="clip-path-9"><path class="cls-4" d="M178.75,81.38s-.28.44-1.26.47c-4.62.11-11.34-4.17-11.34-4.17a19.13,19.13,0,0,1-7-4.91c-5-5.43-4-10.23-4-10.23,3.93,1.86,4.85.21,4.85.21,6.46-12.94,15.51-9.13,15.51-9.13s14.12,3.65,6.5,18.46c0,0-.27,1.74,2.32,3.66a6.82,6.82,0,0,1-3,4.69,5.23,5.23,0,0,1-4.76-3S175.48,80.14,178.75,81.38Z"/></clipPath><clipPath id="clip-path-10"><path class="cls-2" d="M175,60s4.81-5.24,3.37-6.87c0,0-2.84-1.33-9.4,2.91a8.77,8.77,0,0,0,3.06,3.17S174.29,61.07,175,60Z"/></clipPath><clipPath id="clip-path-11"><circle class="cls-3" cx="177.59" cy="67.95" r="2.62" transform="translate(49.62 208.59) rotate(-68.64)"/></clipPath></defs><path class="cls-1" d="M86.92,59.14c2.2,3.2,10.45,1.65,10.45,1.65-18.77,5.82-2.84,19.53-2.84,19.53s10.63,11,18.2,1-5.4-14.88-5.4-14.88-7.77-2.93-2.23-4.83c4.43-1.51,1.64-4.76,1.64-4.76s-2.27-1.51-11-1.66-8.88,1.56-8.88,1.56A2.38,2.38,0,0,0,86.92,59.14Z"/><g class="cls-7"><path class="cls-8" d="M110.68,61.58S95.35,59.27,82.76,63c0,0-3.9-11.79-3.32-12A63.06,63.06,0,0,1,97.9,49.87c8.41.94,9.1.27,11.7,1.68s3.72,2.23,3.36,3.13S110.68,61.58,110.68,61.58Z"/></g><path class="cls-1" d="M143.49,113s12.87,6.83,15.54,12.36c0,0,2.35-3.1,4.18-2,0,0,4.42,1.52-2.29,8,0,0-3,3.65-4.4-1.55,0,0-14.21-5.3-16.21-12.61C140.31,117.3,138.69,112.39,143.49,113Z"/><g class="cls-9"><path class="cls-8" d="M161.32,120.8s-8,12.28-6.62,19.23c0,0-.83,6.74,4.27,3.05S170.21,132,173.47,128s5.42-5.92,1.9-8.31S161.32,120.8,161.32,120.8Z"/></g><path class="cls-4" d="M91.87,75.11S72.46,62.84,85.53,49c0,0,18.27-13.29,4.5-24.73a6.76,6.76,0,0,0-8.71.37s-5.59,3.48-1.52,7.49c0,0,5,4-1,10.47,0,0-18.16,15.15,10.15,34.84"/><g class="cls-10"><ellipse class="cls-11" cx="94.99" cy="33.74" rx="2.6" ry="7.78" transform="translate(46.35 122.03) rotate(-80.7)"/><ellipse class="cls-11" cx="92.24" cy="42.41" rx="2.6" ry="7.78" transform="translate(18.55 112.25) rotate(-68.16)"/></g><path class="cls-4" d="M157,65.05s-14.46,7.37-29,3.24S104.24,59.47,93.2,68s-13.86,21.92,6.5,48.17S137.18,130,137.18,130s16-9.56,23.14-25.66a169.43,169.43,0,0,0,9-25.1Z"/><g class="cls-12"><path class="cls-13" d="M159.77,107.13s-1.82-6.23-8.5,2.68-23.83,34.94-46.07,12.43c0,0-9.49-10.86-15-18.51s-7.37-3.48-7.37-3.48,7.22,53.52,14,54.49,17.71,3.43,23.67.13,11.57-7.49,18.67-13S159.77,107.13,159.77,107.13Z"/><path class="cls-14" d="M171.34,81.92l-1.15,3.32c-15.39-10.92-16.41-21.71-16.41-21.71s2.24-1.37,2.81-1.19a37.15,37.15,0,0,0,9.26,15.74Z"/></g><path class="cls-5" d="M133.35,118.57s11.27,9.24,12.79,15.19c0,0,2.92-2.57,4.48-1.08,0,0,4,2.36-3.84,7.42,0,0-3.63,3-4-2.39,0,0-12.89-8-13.4-15.56C129.38,122.15,128.77,117,133.35,118.57Z"/><g class="cls-15"><path class="cls-8" d="M149.29,129.73S139,140.19,139,147.28c0,0-2.15,6.44,3.59,3.82s13.2-8.59,17.2-11.92,6.48-4.72,3.51-7.76S149.29,129.73,149.29,129.73Z"/></g><ellipse class="cls-11" cx="144.09" cy="88.37" rx="2.96" ry="12.33" transform="translate(-23.93 106.85) rotate(-37.8)"/><ellipse class="cls-11" cx="136.24" cy="92.74" rx="2.96" ry="12.33" transform="translate(-28.25 102.95) rotate(-37.8)"/><path class="cls-4" d="M61.69,83.69C65.33,85.05,71.18,79,71.18,79c-12,15.57,8.92,17.61,8.92,17.61s15,2.88,15.46-9.66-13-9.07-13-9.07S74.54,80,78,75.25c2.75-3.79-1.4-4.84-1.4-4.84s-2.72.08-10,5-6.36,6.38-6.36,6.38A2.36,2.36,0,0,0,61.69,83.69Z"/><g class="cls-16"><path class="cls-8" d="M82.53,72S68.66,79,60.53,89.28c0,0-10-7.4-9.63-7.91A63.39,63.39,0,0,1,65.33,69.8c7.42-4.07,7.6-5,10.54-5.36s4.32-.32,4.55.63S82.53,72,82.53,72Z"/></g><path class="cls-4" d="M153.9,66.36a6.72,6.72,0,0,1-4.23-1.94,2,2,0,0,0,.49,2.46,5.47,5.47,0,0,1-3.53-2.07s-1.5,1.28,1.42,4l3,1.61a38.67,38.67,0,0,0,3.46-2.83A7.24,7.24,0,0,1,153.9,66.36Z"/><path class="cls-6" d="M180.05,80s-1.39.29-1.71,1.35c0,0-3.35-1.34-2.78-3.16s3.62-1.28,3.79-1.08A27.11,27.11,0,0,1,180.05,80Z"/><g class="cls-17"><path class="cls-18" d="M176,77.74s2.59,1.26,1.23,3.46l-2.73-2.45Z"/></g><path class="cls-3" d="M179.47,79.74s-.57,1.34,1.07.57Z"/><path class="cls-2" d="M179.28,62.17s4.81-5.23,3.37-6.87c0,0-1.66-1.93-8.21,2.31,0,0-.62,2,1.87,3.78C176.31,61.39,178.53,63.2,179.28,62.17Z"/><g class="cls-19"><path class="cls-20" d="M184.06,57.34s-2.69-1.39-6.79,4.92c0,0,2.55,3.28,3.32,2.44S184.71,59,184.71,59Z"/></g><path class="cls-4" d="M178.75,81.38s-.28.44-1.26.47c-4.62.11-11.34-4.17-11.34-4.17a19.13,19.13,0,0,1-7-4.91c-5-5.43-4-10.23-4-10.23,3.93,1.86,4.85.21,4.85.21,6.46-12.94,15.51-9.13,15.51-9.13s14.12,3.65,6.5,18.46c0,0-.27,1.74,2.32,3.66a6.82,6.82,0,0,1-3,4.69,5.23,5.23,0,0,1-4.76-3S175.48,80.14,178.75,81.38Z"/><g class="cls-21"><ellipse class="cls-13" cx="177.83" cy="81.3" rx="10.13" ry="9.21" transform="translate(26.56 205.19) rotate(-63.89)"/></g><ellipse class="cls-22" cx="183.22" cy="75.06" rx="0.93" ry="1.59" transform="translate(35.18 206.55) rotate(-63.89)"/><ellipse class="cls-11" cx="170.47" cy="61.93" rx="1.7" ry="4.54" transform="translate(39.83 187.74) rotate(-63.89)"/><ellipse class="cls-11" cx="173.14" cy="57" rx="1.7" ry="4.76" transform="translate(45.75 187.38) rotate(-63.89)"/><path class="cls-2" d="M175,60s4.81-5.24,3.37-6.87c0,0-2.84-1.33-9.4,2.91a8.77,8.77,0,0,0,3.06,3.17S174.29,61.07,175,60Z"/><g class="cls-23"><path class="cls-20" d="M179.82,55.21s-2.69-1.4-6.79,4.91c0,0,2.55,3.28,3.32,2.45s4.12-5.73,4.12-5.73Z"/></g><circle class="cls-3" cx="177.59" cy="67.95" r="2.62" transform="translate(49.62 208.59) rotate(-68.64)"/><g class="cls-24"><circle class="cls-25" cx="177.51" cy="69.95" r="1.95" transform="translate(47.7 209.79) rotate(-68.64)"/><circle class="cls-25" cx="177.51" cy="69.95" r="1.44"/><circle class="cls-3" cx="177.26" cy="68.3" r="0.58"/></g><path class="cls-26" d="M182.11,63.93s-2.13,1.3-5.19-.41"/><path class="cls-27" d="M171.93,71.45s5.32.64,7.33,3.78"/><path class="cls-27" d="M171.07,73.08s5.37,0,7.72,2.91"/><path class="cls-27" d="M170.24,74.36s5.35-.23,7.85,2.54"/></svg>