<svg id="Layer_7" data-name="Layer 7" xmlns="http://www.w3.org/2000/svg" xmlns:xlink="http://www.w3.org/1999/xlink" viewBox="0 0 260 168"><defs><style>.cls-1{fill:#ffbd29;}.cls-2{fill:#ffab24;}.cls-3{fill:#f9d89d;}.cls-4{fill:#ffa92c;}.cls-5{clip-path:url(#clip-path);}.cls-6{fill:#ff7e27;}.cls-7{clip-path:url(#clip-path-2);}.cls-8{fill:#ffe7b6;}.cls-9{fill:#3acccc;}.cls-10{clip-path:url(#clip-path-3);}.cls-11{fill:#7f4a03;}</style><clipPath id="clip-path"><path class="cls-1" d="M14.43,104.88c11.57,8.07,14.8-1,14.8-1,1.64-3.22,3.89-1.85,3.89-1.85,2.11,1,2.66-1.65,2.66-1.65a2.77,2.77,0,0,0-1.1-3.39c-6.34-3.66-8.85,5.23-8.85,5.23-3.48,7-10.94,1.28-10.94,1.28a.59.59,0,0,0-.78.36C13.85,104.38,14.43,104.88,14.43,104.88Z"/></clipPath><clipPath id="clip-path-2"><path class="cls-1" d="M3.43,104.27s.54-.13,1.49-.41c.5-.3,2.8-1.68,2.66-1,.63-.31,1.23-.54,1.3-.31,3.1-1.07,6.46-1.5,8.09,1.47s.85,7.26-5.59,7.92S2.06,111.9.5,109.27C-1.6,105.72-1.95,104.59,3.43,104.27Z"/></clipPath><clipPath id="clip-path-3"><path class="cls-2" d="M-.93,94.08s-1.47-3.82-.44-4.55a.21.21,0,0,1,.17,0c.43,0,2.09.39,4.37,3.49a.3.3,0,0,1-.06.4,6.48,6.48,0,0,1-2.2.92S-.74,94.83-.93,94.08Z"/></clipPath></defs><path class="cls-3" d="M15.73,114.12s-1.4.83-1.06,1.46c0,0,.2,1.19.79.85a1,1,0,0,0,1.24,0c.77-.47,2.33-.59,1.45-2.74C18.15,113.72,17.37,112.45,15.73,114.12Z"/><path class="cls-4" d="M14.57,107.8s1.77,4.66,1.16,6.32c0,0,1.22,1.17,2.17.13s-.45-5-1.23-6.62S14.36,106.46,14.57,107.8Z"/><path class="cls-1" d="M14.43,104.88c11.57,8.07,14.8-1,14.8-1,1.64-3.22,3.89-1.85,3.89-1.85,2.11,1,2.66-1.65,2.66-1.65a2.77,2.77,0,0,0-1.1-3.39c-6.34-3.66-8.85,5.23-8.85,5.23-3.48,7-10.94,1.28-10.94,1.28a.59.59,0,0,0-.78.36C13.85,104.38,14.43,104.88,14.43,104.88Z"/><g class="cls-5"><ellipse class="cls-6" cx="30.33" cy="96.39" rx="1.06" ry="3.18" transform="translate(-43.62 27.53) rotate(-29.58)"/><ellipse class="cls-6" cx="27.39" cy="98.67" rx="1.06" ry="3.18" transform="translate(-59.11 43.86) rotate(-42.13)"/></g><path class="cls-3" d="M1.51,114.54S0,115.2.3,115.87c0,0,.07,1.21.69.93a1,1,0,0,0,1.23.16c.82-.38,2.38-.33,1.74-2.56C4,114.4,3.32,113.05,1.51,114.54Z"/><path class="cls-4" d="M1.05,108.13s1.25,4.82.46,6.41c0,0,1.09,1.29,2.15.36s.09-5-.5-6.72S1,106.77,1.05,108.13Z"/><path class="cls-1" d="M3.43,104.27s.54-.13,1.49-.41c.5-.3,2.8-1.68,2.66-1,.63-.31,1.23-.54,1.3-.31,3.1-1.07,6.46-1.5,8.09,1.47s.85,7.26-5.59,7.92S2.06,111.9.5,109.27C-1.6,105.72-1.95,104.59,3.43,104.27Z"/><g class="cls-7"><ellipse class="cls-6" cx="8.4" cy="102.94" rx="2.61" ry="1.18" transform="translate(-81.34 51.81) rotate(-55.66)"/><ellipse class="cls-6" cx="11.61" cy="102.8" rx="2.61" ry="1.18" transform="translate(-82.72 60.33) rotate(-59.32)"/><path class="cls-8" d="M-.46,109.37s-.15-1.5,2.27-.43,2.85,2.18,6.87,1.59,6.13-1.62,6.85-1.11,1.62,1.23-.87,2.94-11.92,1.86-11.92,1.86a24.74,24.74,0,0,1-3.24-1C-.55,113-.46,109.37-.46,109.37Z"/></g><path class="cls-9" d="M4.86,103.66A14.43,14.43,0,0,1-.7,107.31l-.66-1.94S5.23,100.79,4.86,103.66Z"/><path class="cls-1" d="M-7.13,105.77c2.45,1,6.86.25,7.25.17H.18a11.7,11.7,0,0,0,5-1.21,7.92,7.92,0,0,0,4.39-4.46.29.29,0,0,0-.28-.37c-2.06,0-2.34-.81-2.37-1a0,0,0,0,1,0,0C6.13,90.24.22,90.38.22,90.38s-8.69-1.08-7.74,8.85a.25.25,0,0,1,0,.12c-.08.22-.47,1-2,1.45a.31.31,0,0,0-.17.13c-.11.2-.22.7.44,1.72a20.85,20.85,0,0,0,1.17,1.86s.29.39,1.54.36c0,0-1.3,0-1.13.34A1.8,1.8,0,0,0-7.13,105.77Z"/><ellipse class="cls-6" cx="1.22" cy="96.15" rx="2.73" ry="1.02" transform="translate(-7.67 0.4) rotate(-4.58)"/><ellipse class="cls-6" cx="0.81" cy="92.8" rx="2.87" ry="1.02" transform="translate(-7.41 0.36) rotate(-4.58)"/><path class="cls-2" d="M-.93,94.08s-1.47-3.82-.44-4.55a.21.21,0,0,1,.17,0c.43,0,2.09.39,4.37,3.49a.3.3,0,0,1-.06.4,6.48,6.48,0,0,1-2.2.92S-.74,94.83-.93,94.08Z"/><g class="cls-10"><path class="cls-11" d="M-2.54,90.32s1.81-.19,2.72,4.25c0,0-2.15,1.28-2.4.64s-1-4.12-1-4.12Z"/></g><path class="cls-1" d="M.34,107.1s-3.19,3.82-4.94,4.1c0,0-.42,1.63.95,2s4.11-2.82,5.17-4.31S1.41,106.26.34,107.1Z"/><path class="cls-8" d="M12,113.08s-1.59-.34-1.77.35c0,0-.66,1,0,1.16a1,1,0,0,0,.89.86c.89.18,2.11,1.15,2.92-1C14.09,114.41,14.38,113,12,113.08Z"/><path class="cls-1" d="M15.46,107.64s-1.84,4.63-3.42,5.44c0,0,.11,1.68,1.51,1.56s3-4,3.58-5.71S16.21,106.51,15.46,107.64Z"/></svg>