<svg id="Layer_11" data-name="Layer 11" xmlns="http://www.w3.org/2000/svg" xmlns:xlink="http://www.w3.org/1999/xlink" viewBox="0 0 260 168"><defs><style>.cls-1{fill:#ff872e;}.cls-2{fill:#ce6824;}.cls-3{fill:#ffab24;}.cls-4{fill:#ffbd29;}.cls-36,.cls-5{fill:#fff;}.cls-12,.cls-26,.cls-27,.cls-35,.cls-37,.cls-54,.cls-55,.cls-6{fill:none;}.cls-30,.cls-7{fill:#ff0695;}.cls-7{opacity:0.53;}.cls-8{fill:#ff618b;}.cls-9{fill:#f48c37;}.cls-10{fill:#ea0c67;opacity:0.8;}.cls-11{clip-path:url(#clip-path);}.cls-12{stroke:#c6601c;stroke-width:0.11px;}.cls-12,.cls-26,.cls-27,.cls-54{stroke-miterlimit:10;}.cls-13{clip-path:url(#clip-path-2);}.cls-14{fill:#ffb273;}.cls-15{clip-path:url(#clip-path-3);}.cls-16{clip-path:url(#clip-path-4);}.cls-17{fill:#ff8db6;}.cls-18{fill:#8c1cb5;}.cls-19{fill:#cc621b;}.cls-20,.cls-23{fill:#6abfbd;}.cls-20{opacity:0.2;}.cls-21{clip-path:url(#clip-path-5);}.cls-22{clip-path:url(#clip-path-6);}.cls-23{opacity:0.1;}.cls-24{fill:#77f7f7;}.cls-25{clip-path:url(#clip-path-7);}.cls-26,.cls-27{stroke:#b73e70;}.cls-26{stroke-width:0.11px;}.cls-27{stroke-width:0.11px;}.cls-28{fill:#e24475;}.cls-29{fill:#efefef;}.cls-30{opacity:0.5;}.cls-31{fill:#b94ee5;}.cls-32{fill:#a141ce;}.cls-33{fill:#e2e2e2;}.cls-34{fill:#e27124;}.cls-35,.cls-37{stroke:#fff;}.cls-35,.cls-37,.cls-54,.cls-55{stroke-linecap:round;}.cls-35,.cls-37,.cls-55{stroke-linejoin:round;}.cls-35{stroke-width:0.89px;}.cls-35,.cls-36,.cls-37{opacity:0.3;}.cls-37{stroke-width:0.43px;}.cls-38{clip-path:url(#clip-path-8);}.cls-39{fill:#ff7e27;}.cls-40{fill:#f9d89d;}.cls-41{fill:#ffa92c;}.cls-42{clip-path:url(#clip-path-9);}.cls-43{fill:#ffe7b6;}.cls-44{fill:#3acccc;}.cls-45{clip-path:url(#clip-path-10);}.cls-46{fill:#ef526c;}.cls-47{clip-path:url(#clip-path-11);}.cls-48{fill:#7f4a03;}.cls-49{clip-path:url(#clip-path-12);}.cls-50{fill:#ff8098;}.cls-51{clip-path:url(#clip-path-13);}.cls-52{clip-path:url(#clip-path-14);}.cls-53{fill:#594025;}.cls-54{stroke:#7f4a03;stroke-width:2.67px;}.cls-55{stroke:#ffc866;stroke-width:0.62px;}</style><clipPath id="clip-path"><path class="cls-1" d="M136.65,129.21l1.47-1.9c.85-1.1.27-3-1.31-4.2s-3.4-1.31-4.29-.34h0l-1.56,2c-.85,1.1-.27,3,1.31,4.2S135.8,130.31,136.65,129.21Z"/></clipPath><clipPath id="clip-path-2"><ellipse class="cls-2" cx="133.58" cy="127.2" rx="1.95" ry="3.31" transform="translate(-48.81 154.71) rotate(-52.18)"/></clipPath><clipPath id="clip-path-3"><path class="cls-1" d="M75,126l-2.33-.6c-1.34-.35-2-2.19-1.53-4.12s1.89-3.12,3.2-2.9h0l2.47.63c1.34.35,2,2.2,1.53,4.13S76.36,126.34,75,126Z"/></clipPath><clipPath id="clip-path-4"><ellipse class="cls-2" cx="76.22" cy="122.52" rx="3.31" ry="1.95" transform="translate(-61.49 165.62) rotate(-75.49)"/></clipPath><clipPath id="clip-path-5"><path id="SVGID" class="cls-6" d="M122.56,119s-4.14,7.1-20.58,1.46-18.32-11.92-18.32-11.92l-8.46,2.38s-10.36,12-10.39,13.45-1,14.61-1,14.61l18.36,9.42s22.34,5.82,33.05,6.85,14.4,1.36,18,.65,18.38-7.38,19.85-8.73,5.88-16,4-16.94S141.94,120.12,140.84,120,122.56,119,122.56,119Z"/></clipPath><clipPath id="clip-path-6"><path class="cls-7" d="M73.81,125.66c-2,8.21,7.4,10.29,7.4,10.29L89,137.87c.65.16,1.11-.91,1.11-.91-.29,1.17.45,1.31.45,1.31l3.84.94c.71.18,1.13-1,1.13-1-.27,1.1.31,1.27.31,1.27l3.54.87c.65.16,1.11-1,1.11-1-.42,1.32.59,1.41.59,1.41l3.72.91c.8.2,1.06-.87,1.06-.87a1,1,0,0,0,.86,1.39l7.52,1.85c.89.22,1.2-.74,1.2-.74l2.73.66c.69,2.36,4.51,2.9,4.51,2.9,5.26,1.29,17.24-4.7,17.24-4.7l1.51.37c.41,1.67,1.33.32,1.33.32l4.79,1.17s.79.2,1.2-1.46l1.35-5.53s.38-1.58-.4-1.77l-4.79-1.17s-.19-1.62-1.33-.34l-1.51-.36s-7.85-10.86-13.11-12.15c0,0-3.63-1.29-5.34.48l-2.73-.67s.18-1-.71-1.21L112.69,118a1,1,0,0,0-1.41.84s.27-1.07-.53-1.27l-3.73-.91s-.93-.38-1.17,1c0,0,.13-1.26-.51-1.42l-3.54-.87s-.59-.12-.87,1c0,0,.16-1.21-.55-1.38L96.54,114s-.72-.22-1,1c0,0,.09-1.16-.56-1.32l-7.82-1.92s-9.31-2.51-11.32,5.7Z"/></clipPath><clipPath id="clip-path-7"><path class="cls-8" d="M145.25,133.91l5.56,1.37a1.07,1.07,0,0,1,.43,1.25l-1.72,7s-.48,1-1.29.83L142.74,143s-.58-.68.51-5.09S145.25,133.91,145.25,133.91Z"/></clipPath><clipPath id="clip-path-8"><path class="cls-4" d="M56.66,72.8c-48.08,41.31-66.67,2-66.67,2-8.77-13.66-18.2-6.54-18.2-6.54-9,5.39-12.63-6.17-12.63-6.17a12.41,12.41,0,0,1,3.36-15.66C-10.76,27.21,4.46,65.85,4.46,65.85c18.69,29.66,49.48.78,49.48.78a2.71,2.71,0,0,1,3.67,1.24C59,70.31,56.66,72.8,56.66,72.8Z"/></clipPath><clipPath id="clip-path-9"><path class="cls-4" d="M104.58,72.93s-2.37-.7-6.58-2.18c-2.18-1.5-12.18-8.23-11.71-5C83.56,64.15,80.91,63,80.55,64c-13.66-5.53-28.62-8.25-36.65,4.64C35.65,81.91,38.32,101,67.09,105.54s41.82,2,49.45-9.48C126.82,80.65,128.65,75.63,104.58,72.93Z"/></clipPath><clipPath id="clip-path-10"><path class="cls-9" d="M161.33,72.26s-7.29,3.51-8.88,11c0,0-9.62,3.31-10.78-1.9S154.82,67.64,156.38,68,161.33,72.26,161.33,72.26Z"/></clipPath><clipPath id="clip-path-11"><path class="cls-3" d="M143.06,31.82s9.09-16.69,4.45-20.19l-.2-.13c-.83-.44-6.56-2.65-19.6,11.11a1.26,1.26,0,0,0-.35,1c.16,1.53,1.16,5.66,7.36,8.11C134.72,31.71,141.75,35,143.06,31.82Z"/></clipPath><clipPath id="clip-path-12"><path class="cls-4" d="M153.27,83s.48,1.06-2.08,1.76c-11.52,3.17-30.67-2.94-32.39-3.5a1.14,1.14,0,0,0-.25-.06A52.43,52.43,0,0,1,97.1,72.81c-13-8.53-16.18-18.44-16.94-22.44a1.28,1.28,0,0,1,1.46-1.51c9.15,1.39,10.93-2.24,11.16-2.85a.83.83,0,0,0,0-.15c8.53-38.16,34.78-34,34.78-34s39.35.36,29.2,44a1.19,1.19,0,0,0,0,.53c.23,1,1.5,4.81,8.05,7.66a1.26,1.26,0,0,1,.68.68c.37,1,.55,3.24-3,7.41a1.29,1.29,0,0,1-1.63.29c-1.46-.86-5.05-1.75-11.89,3.15C137,84.12,153.27,83,153.27,83Z"/></clipPath><clipPath id="clip-path-13"><path class="cls-3" d="M130.52,29s8.79-16.14,4.67-20a1.18,1.18,0,0,0-.77-.29c-1.9-.08-9.52.5-21.5,13a1.27,1.27,0,0,0,0,1.8,28.48,28.48,0,0,0,9.23,5.42S129.21,32.2,130.52,29Z"/></clipPath><clipPath id="clip-path-14"><circle class="cls-5" cx="142.39" cy="48.12" r="7.09" transform="translate(2.3 102.57) rotate(-39.91)"/></clipPath></defs><path class="cls-10" d="M85.71,111.55s-.06-.37,6.92,3.47,13.29,6,18.13,6,10.79-.9,10.11-.22c0,0-6,4.75-19.48-.17S86,112.36,85.71,111.55Z"/><path class="cls-1" d="M136.65,129.21l1.47-1.9c.85-1.1.27-3-1.31-4.2s-3.4-1.31-4.29-.34h0l-1.56,2c-.85,1.1-.27,3,1.31,4.2S135.8,130.31,136.65,129.21Z"/><g class="cls-11"><line class="cls-12" x1="135.16" y1="120.41" x2="128.39" y2="129.13"/><line class="cls-12" x1="134.92" y1="120.22" x2="128.15" y2="128.94"/><line class="cls-12" x1="135.45" y1="120.64" x2="128.69" y2="129.36"/><line class="cls-12" x1="135.75" y1="120.86" x2="128.98" y2="129.58"/><line class="cls-12" x1="136.05" y1="121.09" x2="129.28" y2="129.81"/><line class="cls-12" x1="136.34" y1="121.32" x2="129.57" y2="130.04"/><line class="cls-12" x1="136.64" y1="121.55" x2="129.87" y2="130.27"/><line class="cls-12" x1="136.93" y1="121.78" x2="130.16" y2="130.5"/><line class="cls-12" x1="137.23" y1="122.01" x2="130.46" y2="130.73"/><line class="cls-12" x1="137.52" y1="122.24" x2="130.75" y2="130.96"/><line class="cls-12" x1="137.82" y1="122.47" x2="131.05" y2="131.19"/><line class="cls-12" x1="138.11" y1="122.7" x2="131.35" y2="131.42"/><line class="cls-12" x1="138.41" y1="122.93" x2="131.64" y2="131.65"/><line class="cls-12" x1="138.71" y1="123.16" x2="131.94" y2="131.88"/><line class="cls-12" x1="139" y1="123.39" x2="132.23" y2="132.11"/><line class="cls-12" x1="139.3" y1="123.62" x2="132.53" y2="132.34"/><line class="cls-12" x1="139.59" y1="123.85" x2="132.82" y2="132.57"/><line class="cls-12" x1="139.89" y1="124.08" x2="133.12" y2="132.8"/><line class="cls-12" x1="140.18" y1="124.31" x2="133.41" y2="133.03"/></g><ellipse class="cls-1" cx="133.61" cy="127.16" rx="2.28" ry="3.66" transform="translate(-48.76 154.72) rotate(-52.18)"/><ellipse class="cls-2" cx="133.58" cy="127.2" rx="1.95" ry="3.31" transform="translate(-48.81 154.71) rotate(-52.18)"/><g class="cls-13"><ellipse class="cls-14" cx="135.48" cy="124.89" rx="2.04" ry="3.43" transform="translate(-46.26 155.32) rotate(-52.18)"/></g><path class="cls-1" d="M75,126l-2.33-.6c-1.34-.35-2-2.19-1.53-4.12s1.89-3.12,3.2-2.9h0l2.47.63c1.34.35,2,2.2,1.53,4.13S76.36,126.34,75,126Z"/><g class="cls-15"><line class="cls-12" x1="70.82" y1="118.11" x2="81.51" y2="120.88"/><line class="cls-12" x1="70.9" y1="117.82" x2="81.58" y2="120.58"/><line class="cls-12" x1="70.73" y1="118.47" x2="81.41" y2="121.24"/><line class="cls-12" x1="70.63" y1="118.84" x2="81.32" y2="121.6"/><line class="cls-12" x1="70.54" y1="119.2" x2="81.23" y2="121.97"/><line class="cls-12" x1="70.44" y1="119.56" x2="81.13" y2="122.33"/><line class="cls-12" x1="70.35" y1="119.92" x2="81.04" y2="122.69"/><line class="cls-12" x1="70.26" y1="120.29" x2="80.94" y2="123.05"/><line class="cls-12" x1="70.16" y1="120.65" x2="80.85" y2="123.41"/><line class="cls-12" x1="70.07" y1="121.01" x2="80.76" y2="123.78"/><line class="cls-12" x1="69.98" y1="121.37" x2="80.66" y2="124.14"/><line class="cls-12" x1="69.88" y1="121.73" x2="80.57" y2="124.5"/><line class="cls-12" x1="69.79" y1="122.1" x2="80.48" y2="124.86"/><line class="cls-12" x1="69.69" y1="122.46" x2="80.38" y2="125.23"/><line class="cls-12" x1="69.6" y1="122.82" x2="80.29" y2="125.59"/><line class="cls-12" x1="69.51" y1="123.18" x2="80.19" y2="125.95"/><line class="cls-12" x1="69.41" y1="123.55" x2="80.1" y2="126.31"/><line class="cls-12" x1="69.32" y1="123.91" x2="80.01" y2="126.67"/><line class="cls-12" x1="69.23" y1="124.27" x2="79.91" y2="127.04"/></g><ellipse class="cls-1" cx="76.17" cy="122.51" rx="3.66" ry="2.28" transform="matrix(0.25, -0.97, 0.97, 0.25, -61.51, 165.55)"/><ellipse class="cls-2" cx="76.22" cy="122.52" rx="3.31" ry="1.95" transform="translate(-61.49 165.62) rotate(-75.49)"/><g class="cls-16"><ellipse class="cls-14" cx="73.31" cy="121.86" rx="3.43" ry="2.04" transform="translate(-63.03 162.3) rotate(-75.49)"/></g><path class="cls-17" d="M151.2,135.37h0l-.57-.14-.38,1.56a19.29,19.29,0,0,0-.94,3,19.67,19.67,0,0,0-.54,3.06l-.38,1.56.61.15c.44.11,1.31-1.85,1.93-4.37S151.65,135.48,151.2,135.37Z"/><circle class="cls-18" cx="89.94" cy="127.22" r="5.73" transform="translate(-46.48 202.49) rotate(-83.63)"/><circle class="cls-19" cx="124.53" cy="135.56" r="5.73" transform="translate(-24.01 244.28) rotate(-83.63)"/><path class="cls-20" d="M81.82,113.51s2,7.75-4,18.82l49.71,12.2L140,141l1.87.46,1.6-6.51-2.7-.66S130.58,121.73,123.59,123l-3-.75s-3.8,3.84-17.72.43-18.33-9.93-18.33-9.93Z"/><g class="cls-21"><path class="cls-7" d="M73.81,125.66c-2,8.21,7.4,10.29,7.4,10.29L89,137.87c.65.16,1.11-.91,1.11-.91-.29,1.17.45,1.31.45,1.31l3.84.94c.71.18,1.13-1,1.13-1-.27,1.1.31,1.27.31,1.27l3.54.87c.65.16,1.11-1,1.11-1-.42,1.32.59,1.41.59,1.41l3.72.91c.8.2,1.06-.87,1.06-.87a1,1,0,0,0,.86,1.39l7.52,1.85c.89.22,1.2-.74,1.2-.74l2.73.66c.69,2.36,4.51,2.9,4.51,2.9,5.26,1.29,17.24-4.7,17.24-4.7l1.51.37c.41,1.67,1.33.32,1.33.32l4.79,1.17s.79.2,1.2-1.46l1.35-5.53s.38-1.58-.4-1.77l-4.79-1.17s-.19-1.62-1.33-.34l-1.51-.36s-7.85-10.86-13.11-12.15c0,0-3.63-1.29-5.34.48l-2.73-.67s.18-1-.71-1.21L112.69,118a1,1,0,0,0-1.41.84s.27-1.07-.53-1.27l-3.73-.91s-.93-.38-1.17,1c0,0,.13-1.26-.51-1.42l-3.54-.87s-.59-.12-.87,1c0,0,.16-1.21-.55-1.38L96.54,114s-.72-.22-1,1c0,0,.09-1.16-.56-1.32l-7.82-1.92s-9.31-2.51-11.32,5.7Z"/><g class="cls-22"><path class="cls-23" d="M75.39,125s-.87,10.07,5.34,14.1l36.85,9s13.9-3.1,21.57-7.38l2.91.71.57-1.86-5.15-1.48s-8.11,6.17-17.51,3.52-38.79-9.52-38.79-9.52S76.45,131.93,75.39,125Z"/><path class="cls-24" d="M144.5,132.05a23.28,23.28,0,0,0-2.81,14.45l1.15-2.34a22.37,22.37,0,0,1,2.8-11.42Z"/></g></g><path class="cls-8" d="M145.25,133.91l5.56,1.37a1.07,1.07,0,0,1,.43,1.25l-1.72,7s-.48,1-1.29.83L142.74,143s-.58-.68.51-5.09S145.25,133.91,145.25,133.91Z"/><g class="cls-25"><line class="cls-26" x1="145.52" y1="134.55" x2="150.69" y2="135.82"/><line class="cls-26" x1="145.34" y1="135.19" x2="150.52" y2="136.46"/><line class="cls-26" x1="145.17" y1="135.84" x2="150.34" y2="137.1"/><line class="cls-26" x1="144.99" y1="136.48" x2="150.16" y2="137.75"/><line class="cls-26" x1="144.81" y1="137.12" x2="149.99" y2="138.39"/><line class="cls-26" x1="144.64" y1="137.76" x2="149.81" y2="139.03"/><line class="cls-26" x1="144.46" y1="138.4" x2="149.63" y2="139.67"/><line class="cls-26" x1="144.28" y1="139.05" x2="149.46" y2="140.32"/><line class="cls-26" x1="144.11" y1="139.69" x2="149.28" y2="140.96"/><line class="cls-26" x1="143.93" y1="140.33" x2="149.1" y2="141.6"/><line class="cls-26" x1="143.76" y1="140.97" x2="148.93" y2="142.24"/><line class="cls-26" x1="143.58" y1="141.62" x2="148.75" y2="142.88"/><line class="cls-26" x1="143.44" y1="142.27" x2="148.61" y2="143.54"/><line class="cls-27" x1="143.31" y1="142.79" x2="148.72" y2="144.12"/><path class="cls-28" d="M146.66,133.77s-2.89,2.33-2.81,11.45l-3.16-.74,2-11.72c0-.11,1.07-1.11,1.43-1A22.1,22.1,0,0,1,146.66,133.77Z"/><path class="cls-17" d="M151,134.75s-1.58,1.63-2.64,10.78c0,0,3,.93,3.11.53s1.16-7.71,1.2-8-.21-.85-.2-1.22S151,134.75,151,134.75Z"/></g><circle class="cls-29" cx="90.04" cy="126.78" r="0.83"/><path class="cls-29" d="M84.74,133.31c.12-.2,4.49-6.74,4.49-6.74l1.58.56L87,133.87Z"/><circle class="cls-29" cx="124.26" cy="135.2" r="0.83"/><path class="cls-29" d="M123.85,142.9c0-.23,1.23-7.51,1.23-7.51l-1.66-.23-1.63,7.16Z"/><ellipse class="cls-30" cx="78.05" cy="121.66" rx="6.32" ry="1.07" transform="translate(-58.7 168.48) rotate(-76.22)"/><circle class="cls-18" cx="85.86" cy="133.44" r="7.44" transform="translate(-56.28 203.96) rotate(-83.63)"/><circle class="cls-31" cx="85.86" cy="133.44" r="6.5" transform="translate(-56.28 203.96) rotate(-83.63)"/><circle class="cls-32" cx="85.86" cy="133.44" r="4.67" transform="translate(-56.28 203.96) rotate(-83.63)"/><circle class="cls-33" cx="85.91" cy="133.62" r="1.16"/><circle class="cls-19" cx="122.71" cy="142.47" r="7.44" transform="translate(-32.5 248.62) rotate(-83.63)"/><circle class="cls-1" cx="122.71" cy="142.47" r="6.5" transform="translate(-32.5 248.62) rotate(-83.63)"/><circle class="cls-34" cx="122.71" cy="142.47" r="4.75" transform="translate(-32.5 248.62) rotate(-83.63)"/><circle class="cls-33" cx="122.78" cy="142.66" r="1.16"/><path class="cls-35" d="M128.67,122.29s4.81,2,10.86,9.75"/><path class="cls-36" d="M131.67,128.38a17.6,17.6,0,0,1,7.75,5.5,8.42,8.42,0,0,0-.73,3.27s-5.86-3.64-8.4-3.46C130.29,133.69,130.34,129.59,131.67,128.38Z"/><path class="cls-37" d="M109.79,125.73s-2.78,4.45-3.45,13.17"/><path class="cls-37" d="M104.18,124.35s-2.78,4.46-3.45,13.17"/><path class="cls-37" d="M99.68,123.25s-2.78,4.45-3.45,13.17"/><path class="cls-4" d="M56.66,72.8c-48.08,41.31-66.67,2-66.67,2-8.77-13.66-18.2-6.54-18.2-6.54-9,5.39-12.63-6.17-12.63-6.17a12.41,12.41,0,0,1,3.36-15.66C-10.76,27.21,4.46,65.85,4.46,65.85c18.69,29.66,49.48.78,49.48.78a2.71,2.71,0,0,1,3.67,1.24C59,70.31,56.66,72.8,56.66,72.8Z"/><g class="cls-38"><ellipse class="cls-39" cx="-4.08" cy="50.9" rx="14.31" ry="4.78" transform="translate(-42.64 17.43) rotate(-53.63)"/></g><path class="cls-40" d="M137.52,103s5.19-5.14,7.56-2.94c0,0,4.95,2.23,2.77,4.41,0,0,1.64,2.63-1.29,5.43S141.34,119.32,133,113C133,113,128.37,108.17,137.52,103Z"/><path class="cls-41" d="M111.41,90.71s18.18,13,26.11,12.28c0,0,3.67,6.64-1.94,9.58s-21.05-7.66-27.35-12.95S105.82,88.25,111.41,90.71Z"/><path class="cls-40" d="M28.9,70.33S23,74.67,21,72.15c0,0-4.57-2.92-2.1-4.76,0,0-1.25-2.84,2.06-5.19s6.53-8.57,13.86-1.13C34.82,61.07,38.71,66.53,28.9,70.33Z"/><path class="cls-41" d="M53,86.26S36.86,70.74,28.9,70.33c0,0-2.67-7.09,3.31-9.19S51.94,71.76,57.41,77.9,58.14,89.5,53,86.26Z"/><path class="cls-4" d="M104.58,72.93s-2.37-.7-6.58-2.18c-2.18-1.5-12.18-8.23-11.71-5C83.56,64.15,80.91,63,80.55,64c-13.66-5.53-28.62-8.25-36.65,4.64C35.65,81.91,38.32,101,67.09,105.54s41.82,2,49.45-9.48C126.82,80.65,128.65,75.63,104.58,72.93Z"/><g class="cls-42"><ellipse class="cls-39" cx="82.6" cy="65.77" rx="5.3" ry="11.72" transform="translate(-22.14 52.46) rotate(-31.28)"/><ellipse class="cls-39" cx="68.22" cy="64.36" rx="5.3" ry="11.72" transform="translate(-22.07 38.97) rotate(-27.63)"/><path class="cls-43" d="M120.8,96.73s1.06-6.7-10-2.47-13.33,9.09-31.24,5.48S52.43,91,49.07,93.13s-7.58,5.11,3.18,13.41,53,11.19,53,11.19,14.56-3.09,14.82-3.88S120.8,96.73,120.8,96.73Z"/></g><path class="cls-44" d="M98.3,69.83s10.68,13,24.09,17.73L125.83,79S97.33,56.86,98.3,69.83Z"/><path class="cls-9" d="M161.33,72.26s-7.29,3.51-8.88,11c0,0-9.62,3.31-10.78-1.9S154.82,67.64,156.38,68,161.33,72.26,161.33,72.26Z"/><g class="cls-45"><path class="cls-46" d="M144,75.86a8.84,8.84,0,0,1,7.72,7.3C153.15,90,132.06,80.93,144,75.86Z"/></g><path class="cls-5" d="M156.24,71.28s.9,4.14,3.67.7C159.91,72,159.05,71,156.24,71.28Z"/><path class="cls-3" d="M143.06,31.82s9.09-16.69,4.45-20.19l-.2-.13c-.83-.44-6.56-2.65-19.6,11.11a1.26,1.26,0,0,0-.35,1c.16,1.53,1.16,5.66,7.36,8.11C134.72,31.71,141.75,35,143.06,31.82Z"/><g class="cls-47"><path class="cls-48" d="M152.46,16s-8-1.91-14.64,17.35c0,0,8.84,7,10.31,4.26s7.08-17.74,7.08-17.74Z"/></g><path class="cls-4" d="M153.27,83s.48,1.06-2.08,1.76c-11.52,3.17-30.67-2.94-32.39-3.5a1.14,1.14,0,0,0-.25-.06A52.43,52.43,0,0,1,97.1,72.81c-13-8.53-16.18-18.44-16.94-22.44a1.28,1.28,0,0,1,1.46-1.51c9.15,1.39,10.93-2.24,11.16-2.85a.83.83,0,0,0,0-.15c8.53-38.16,34.78-34,34.78-34s39.35.36,29.2,44a1.19,1.19,0,0,0,0,.53c.23,1,1.5,4.81,8.05,7.66a1.26,1.26,0,0,1,.68.68c.37,1,.55,3.24-3,7.41a1.29,1.29,0,0,1-1.63.29c-1.46-.86-5.05-1.75-11.89,3.15C137,84.12,153.27,83,153.27,83Z"/><g class="cls-49"><ellipse class="cls-43" cx="151.71" cy="83.04" rx="27.44" ry="24.94" transform="translate(38.58 213.86) rotate(-77.84)"/></g><ellipse class="cls-50" cx="161.82" cy="63.13" rx="2.51" ry="4.29" transform="translate(66.03 208.03) rotate(-77.84)"/><ellipse class="cls-39" cx="119.73" cy="36.95" rx="4.6" ry="12.28" transform="translate(58.39 146.21) rotate(-77.84)"/><ellipse class="cls-39" cx="123.53" cy="22.25" rx="4.6" ry="12.9" transform="translate(75.76 138.32) rotate(-77.84)"/><path class="cls-3" d="M130.52,29s8.79-16.14,4.67-20a1.18,1.18,0,0,0-.77-.29c-1.9-.08-9.52.5-21.5,13a1.27,1.27,0,0,0,0,1.8,28.48,28.48,0,0,0,9.23,5.42S129.21,32.2,130.52,29Z"/><g class="cls-51"><path class="cls-48" d="M139.92,13.18s-8-1.92-14.63,17.35c0,0,8.83,6.95,10.3,4.26s7.09-17.74,7.09-17.74Z"/></g><circle class="cls-5" cx="142.39" cy="48.12" r="7.09" transform="translate(2.3 102.57) rotate(-39.91)"/><g class="cls-52"><circle class="cls-53" cx="146.86" cy="49.3" r="5.29"/><circle class="cls-53" cx="146.86" cy="49.3" r="3.9"/><circle class="cls-5" cx="145.13" cy="45.13" r="1.57"/></g><path class="cls-4" d="M132.14,46.87s10.79,1.72,19.41-4.25c0,0-6.55-3.78-11.53-3.08S132.14,46.87,132.14,46.87Z"/><path class="cls-54" d="M152.11,33.84s-8,8.13-15.69,4.42"/><path class="cls-55" d="M129.79,61s14.41-1.78,21.74,5.15"/><path class="cls-55" d="M128.6,65.84s14.11-3.43,22.19,2.62"/><path class="cls-55" d="M127.24,69.77s13.92-4.11,22.28,1.54"/><path class="cls-43" d="M133.08,109.62s6.56-3.2,8.1-.36c0,0,4,3.71,1.2,5.07,0,0,.71,3-3,4.73s-8,7.24-13.85-1.41C125.57,117.65,122.74,111.58,133.08,109.62Z"/><path class="cls-4" d="M112.29,89.59s13,18.18,20.79,20c0,0,1.33,7.46-4.92,8.44s-17.48-14-21.74-21S107.8,85.47,112.29,89.59Z"/><path class="cls-43" d="M33.39,101.58s-.24,7.3-3.48,7.33c0,0-5.13,1.77-5-1.31,0,0-3-.79-2.78-4.84s-2.67-10.44,7.72-11.57C29.81,91.19,36.5,91.54,33.39,101.58Z"/><path class="cls-4" d="M60.82,92.61s-22.16,3-27.43,9c0,0-7.22-2.31-5.15-8.3S48.82,84.42,57,83.94,66.57,90.57,60.82,92.61Z"/></svg>