<svg id="Layer_1" data-name="Layer 1" xmlns="http://www.w3.org/2000/svg" xmlns:xlink="http://www.w3.org/1999/xlink" viewBox="0 0 260 168"><defs><style>.cls-1{fill:#ffbd29;}.cls-2{fill:#eaa61f;}.cls-3{fill:#5b091b;}.cls-4{clip-path:url(#clip-path);}.cls-5{fill:#ff7e27;}.cls-6{clip-path:url(#clip-path-2);}.cls-7{fill:#f7cc81;}.cls-8{clip-path:url(#clip-path-3);}.cls-9{clip-path:url(#clip-path-4);}.cls-10{fill:#ffe7b6;}.cls-11{fill:#3acccc;}.cls-12{clip-path:url(#clip-path-5);}.cls-13{clip-path:url(#clip-path-6);}.cls-14{fill:#ffab24;}.cls-15{fill:#7f4a03;}.cls-16{clip-path:url(#clip-path-7);}.cls-17{fill:#fff;}.cls-18{fill:#594025;}.cls-19{clip-path:url(#clip-path-8);}.cls-20{fill:#a82648;}.cls-21{fill:none;stroke:#a57749;stroke-linecap:round;stroke-linejoin:round;stroke-width:0.33px;}.cls-22{fill:#ff8098;}</style><clipPath id="clip-path"><path class="cls-1" d="M62,126.8s22.59,2.8,21.14-14.63c0,0-1.07-19.06,8.93-18.66,0,0,5.13-.6,6.34,3,0,0,1.81,4.94-3.39,5.5,0,0-5.69.74-5.09,8.81,0,0,3.69,19.95-27.87,17.92"/></clipPath><clipPath id="clip-path-2"><path class="cls-2" d="M69.76,125.39s-1,16.19,1.24,16.19,1.48,3.35.34,3.35a3.54,3.54,0,0,1-3.44.36,3.13,3.13,0,0,1-3.09-.36s-1.46-3.14.94-4.55c0,0-.88-10.42-.08-16.63S68.74,117.29,69.76,125.39Z"/></clipPath><clipPath id="clip-path-3"><path class="cls-2" d="M58,125.39s1,16.19-1.25,16.19-1.48,3.35-.34,3.35a3.54,3.54,0,0,0,3.44.36,3.13,3.13,0,0,0,3.09-.36s1.46-3.14-.94-4.55c0,0,.88-10.42.08-16.63S59,117.29,58,125.39Z"/></clipPath><clipPath id="clip-path-4"><path class="cls-1" d="M69.85,115.26l-6-.14-6,.14s-5.66,15.58-2.32,17.9a13.06,13.06,0,0,0,8.35,2.32,13.08,13.08,0,0,0,8.35-2.32C75.52,130.84,69.85,115.26,69.85,115.26Z"/></clipPath><clipPath id="clip-path-5"><path class="cls-1" d="M54.42,127.09s1,16.19-1.25,16.19-1.48,3.34-.33,3.34a3.51,3.51,0,0,0,3.43.37,3.11,3.11,0,0,0,3.09-.37s1.47-3.13-.94-4.54c0,0,.88-10.42.08-16.64S55.44,119,54.42,127.09Z"/></clipPath><clipPath id="clip-path-6"><path class="cls-1" d="M73.15,127.09s-1,16.19,1.25,16.19,1.48,3.34.33,3.34a3.51,3.51,0,0,1-3.43.37,3.11,3.11,0,0,1-3.09-.37s-1.46-3.13.94-4.54c0,0-.88-10.42-.08-16.64S72.13,119,73.15,127.09Z"/></clipPath><clipPath id="clip-path-7"><path class="cls-1" d="M83.46,106c-2.34-1.35-5.33-6.74-6.58-9.15-.15-.32-.31-.64-.48-.95l-.11-.22h0a14.1,14.1,0,0,0-24.4,0h0l0,0A13.11,13.11,0,0,0,51.17,97c-1.31,2.5-4.19,7.62-6.46,8.93a1.64,1.64,0,0,0,1.55,1s-2.44,9.36,16.79,9.82v0c.34,0,.68,0,1,0s.69,0,1,0v0c19.24-.46,16.8-9.82,16.8-9.82A1.64,1.64,0,0,0,83.46,106Z"/></clipPath><clipPath id="clip-path-8"><path class="cls-3" d="M60.51,112.94a4.13,4.13,0,0,0,3.92,2.32A3.34,3.34,0,0,0,67.77,113s-1.38,1.48-3.63-.38C64.14,112.59,62.9,114.09,60.51,112.94Z"/></clipPath></defs><path class="cls-1" d="M62,126.8s22.59,2.8,21.14-14.63c0,0-1.07-19.06,8.93-18.66,0,0,5.13-.6,6.34,3,0,0,1.81,4.94-3.39,5.5,0,0-5.69.74-5.09,8.81,0,0,3.69,19.95-27.87,17.92"/><g class="cls-4"><ellipse class="cls-5" cx="87.09" cy="97.53" rx="2.57" ry="5.4" transform="translate(-43.35 106.66) rotate(-52.24)"/><ellipse class="cls-5" cx="83.63" cy="103.98" rx="2.57" ry="5.4" transform="translate(-37.11 160.8) rotate(-76.39)"/></g><path class="cls-2" d="M69.76,125.39s-1,16.19,1.24,16.19,1.48,3.35.34,3.35a3.54,3.54,0,0,1-3.44.36,3.13,3.13,0,0,1-3.09-.36s-1.46-3.14.94-4.55c0,0-.88-10.42-.08-16.63S68.74,117.29,69.76,125.39Z"/><g class="cls-6"><path class="cls-7" d="M71.67,140.38s-3.34,3.88-7.3-1.2c0,0-4.44,14.42-3.46,14.49s8.11,1.47,11,.42,4.53-3.22,3.7-4.41,1.69-7.2,1.69-7.2Z"/></g><path class="cls-2" d="M58,125.39s1,16.19-1.25,16.19-1.48,3.35-.34,3.35a3.54,3.54,0,0,0,3.44.36,3.13,3.13,0,0,0,3.09-.36s1.46-3.14-.94-4.55c0,0,.88-10.42.08-16.63S59,117.29,58,125.39Z"/><g class="cls-8"><path class="cls-7" d="M56,140.38s3.34,3.88,7.3-1.2c0,0,4.44,14.42,3.47,14.49s-8.12,1.47-11,.42-4.53-3.22-3.7-4.41-1.69-7.2-1.69-7.2Z"/></g><path class="cls-1" d="M57.7,114.86a4.55,4.55,0,0,1-2,3.7,3.29,3.29,0,0,0,1,0,10.61,10.61,0,0,1-1.32,1.83,1.19,1.19,0,0,0,.62,0,3.46,3.46,0,0,1-1.21,1.07l2.21.08a1.06,1.06,0,0,0,.56-.07c.37-.17.43-.66.39-1a18.87,18.87,0,0,0-.43-2.81c0-.17.14-.43.18-.61s-.39-.43-.25-.63a.7.7,0,0,0,.1-.69"/><path class="cls-1" d="M70.05,114.86a4.55,4.55,0,0,0,2,3.7,3.24,3.24,0,0,1-1,0,11.12,11.12,0,0,0,1.31,1.83,1.15,1.15,0,0,1-.61,0,3.34,3.34,0,0,0,1.2,1.07l-2.21.08a1.06,1.06,0,0,1-.56-.07c-.36-.17-.43-.66-.39-1a20.27,20.27,0,0,1,.43-2.81c0-.17-.14-.43-.18-.61s.39-.43.26-.63a.7.7,0,0,1-.11-.69"/><path class="cls-1" d="M69.85,115.26l-6-.14-6,.14s-5.66,15.58-2.32,17.9a13.06,13.06,0,0,0,8.35,2.32,13.08,13.08,0,0,0,8.35-2.32C75.52,130.84,69.85,115.26,69.85,115.26Z"/><g class="cls-9"><ellipse class="cls-10" cx="63.89" cy="136.23" rx="6.06" ry="7.95"/></g><path class="cls-11" d="M56.62,115.91s6.54,7.38,14.54,0L58,113.54"/><path class="cls-1" d="M54.42,127.09s1,16.19-1.25,16.19-1.48,3.34-.33,3.34a3.51,3.51,0,0,0,3.43.37,3.11,3.11,0,0,0,3.09-.37s1.47-3.13-.94-4.54c0,0,.88-10.42.08-16.64S55.44,119,54.42,127.09Z"/><g class="cls-12"><path class="cls-10" d="M52.5,142.08s3.35,3.88,7.3-1.2c0,0,4.45,14.42,3.47,14.49s-8.11,1.47-11.05.42-4.52-3.22-3.69-4.41-1.69-7.2-1.69-7.2Z"/></g><path class="cls-1" d="M73.15,127.09s-1,16.19,1.25,16.19,1.48,3.34.33,3.34a3.51,3.51,0,0,1-3.43.37,3.11,3.11,0,0,1-3.09-.37s-1.46-3.13.94-4.54c0,0-.88-10.42-.08-16.64S72.13,119,73.15,127.09Z"/><g class="cls-13"><path class="cls-10" d="M75.07,142.08s-3.34,3.88-7.3-1.2c0,0-4.45,14.42-3.47,14.49s8.11,1.47,11,.42,4.52-3.22,3.7-4.41,1.68-7.2,1.68-7.2Z"/></g><path class="cls-14" d="M57.59,90.6s-10.75-9.37-5.74,5.09c0,0,1.86.92,4-1.11C55.87,94.58,58.59,93,57.59,90.6Z"/><path class="cls-15" d="M56.29,91s-6.66-5.8-3.56,3.15a2.27,2.27,0,0,0,2.49-.68S56.9,92.55,56.29,91Z"/><path class="cls-14" d="M70,90.6s10.75-9.37,5.73,5.09c0,0-1.85.92-4-1.11C71.69,94.58,69,93,70,90.6Z"/><path class="cls-15" d="M71.64,91s6.66-5.8,3.55,3.15a2.27,2.27,0,0,1-2.49-.68S71,92.55,71.64,91Z"/><path class="cls-1" d="M83.46,106c-2.34-1.35-5.33-6.74-6.58-9.15-.15-.32-.31-.64-.48-.95l-.11-.22h0a14.1,14.1,0,0,0-24.4,0h0l0,0A13.11,13.11,0,0,0,51.17,97c-1.31,2.5-4.19,7.62-6.46,8.93a1.64,1.64,0,0,0,1.55,1s-2.44,9.36,16.79,9.82v0c.34,0,.68,0,1,0s.69,0,1,0v0c19.24-.46,16.8-9.82,16.8-9.82A1.64,1.64,0,0,0,83.46,106Z"/><g class="cls-16"><circle class="cls-10" cx="64.08" cy="115.91" r="9.69"/><ellipse class="cls-5" cx="48.99" cy="101.46" rx="4.03" ry="1.31"/><ellipse class="cls-5" cx="51.22" cy="97.21" rx="4.03" ry="1.31"/><ellipse class="cls-5" cx="78.89" cy="101.46" rx="4.03" ry="1.31"/><ellipse class="cls-5" cx="76.67" cy="97.21" rx="4.03" ry="1.31"/><ellipse class="cls-5" cx="61.44" cy="90.65" rx="1.27" ry="4.45"/><ellipse class="cls-5" cx="66.45" cy="90.65" rx="1.27" ry="4.45"/></g><circle class="cls-17" cx="56.42" cy="103.55" r="3.4"/><circle class="cls-18" cx="56.42" cy="103.55" r="2.35"/><circle class="cls-18" cx="56.42" cy="103.55" r="1.55"/><circle class="cls-17" cx="55.46" cy="102" r="0.78"/><circle class="cls-17" cx="71.5" cy="103.55" r="3.4"/><circle class="cls-18" cx="71.5" cy="103.55" r="2.35"/><circle class="cls-18" cx="71.5" cy="103.55" r="1.55"/><circle class="cls-17" cx="70.54" cy="102" r="0.78"/><path class="cls-1" d="M58.77,107s-1.54-1.47-7.05-.57c0,0,2.16,1.08,2.35,1.08s4.37.06,4.45,0A2.14,2.14,0,0,0,58.77,107Z"/><path class="cls-1" d="M69.76,107s1.54-1.47,7-.57c0,0-2.16,1.08-2.35,1.08s-4.37.06-4.45,0A2.14,2.14,0,0,1,69.76,107Z"/><path class="cls-15" d="M54.69,98.05a2.06,2.06,0,0,1,2-1,2.37,2.37,0,0,1,1.91,1.19,8.35,8.35,0,0,1-1.07-.07l-.92-.09A15.41,15.41,0,0,0,54.69,98.05Z"/><path class="cls-15" d="M73.29,98.05a15.55,15.55,0,0,0-2,0l-.92.09a8.35,8.35,0,0,1-1.07.07A2.37,2.37,0,0,1,71.27,97,2.08,2.08,0,0,1,73.29,98.05Z"/><path class="cls-3" d="M60.51,112.94a4.13,4.13,0,0,0,3.92,2.32A3.34,3.34,0,0,0,67.77,113s-1.38,1.48-3.63-.38C64.14,112.59,62.9,114.09,60.51,112.94Z"/><g class="cls-19"><ellipse class="cls-20" cx="64.34" cy="116.11" rx="1.83" ry="3.15" transform="translate(-53.4 177.41) rotate(-88.51)"/><ellipse class="cls-17" cx="62.36" cy="113.41" rx="0.34" ry="0.56" transform="translate(-9.65 5.87) rotate(-5)"/><ellipse class="cls-17" cx="65.96" cy="113.48" rx="0.56" ry="0.34" transform="translate(-51.87 171.3) rotate(-85.97)"/></g><path class="cls-21" d="M64.12,109v3.51s-1.25,2.25-4.3,0"/><path class="cls-21" d="M64.12,109v3.51s1.25,2.25,4.3,0"/><ellipse class="cls-22" cx="64.08" cy="108.19" rx="2.37" ry="1.24"/></svg>