<svg id="Layer_1" data-name="Layer 1" xmlns="http://www.w3.org/2000/svg" xmlns:xlink="http://www.w3.org/1999/xlink" viewBox="0 0 260 168"><defs><style>.cls-1{fill:#ffbd29;}.cls-2{fill:#f48c37;}.cls-3{fill:#ffab24;}.cls-4{fill:#fff;}.cls-5{clip-path:url(#clip-path);}.cls-6{fill:#ff7e27;}.cls-7{fill:#f9d89d;}.cls-8{fill:#ffa92c;}.cls-9{clip-path:url(#clip-path-2);}.cls-10{fill:#ffe7b6;}.cls-11{fill:#3acccc;}.cls-12{clip-path:url(#clip-path-3);}.cls-13{fill:#ef526c;}.cls-14{clip-path:url(#clip-path-4);}.cls-15{fill:#7f4a03;}.cls-16{clip-path:url(#clip-path-5);}.cls-17{fill:#ff8098;}.cls-18{clip-path:url(#clip-path-6);}.cls-19{clip-path:url(#clip-path-7);}.cls-20{fill:#594025;}.cls-21,.cls-22{fill:none;stroke-linecap:round;}.cls-21{stroke:#7f4a03;stroke-miterlimit:10;stroke-width:2.67px;}.cls-22{stroke:#ffc866;stroke-linejoin:round;stroke-width:0.62px;}</style><clipPath id="clip-path"><path class="cls-1" d="M120.66,75.15C59.78,92.83,59.14,49.36,59.14,49.36c-2.32-16.07-13.85-13.5-13.85-13.5C34.86,37,36.34,25,36.34,25a12.43,12.43,0,0,1,9.54-12.87c32.3-6.43,30.14,35,30.14,35,4.73,34.74,44.71,21.21,44.71,21.21a2.71,2.71,0,0,1,2.83,2.65C123.85,73.86,120.66,75.15,120.66,75.15Z"/></clipPath><clipPath id="clip-path-2"><path class="cls-1" d="M164.22,95.1s-1.87-1.61-5.09-4.7c-1.37-2.27-7.68-12.54-8.57-9.44-1.84-2.55-3.76-4.72-4.51-3.95-10.15-10.69-22.64-19.36-35.28-11-13,8.67-18.49,27.17,5.82,43.2s37.24,19.11,48.93,11.86C181.26,111.35,185,107.53,164.22,95.1Z"/></clipPath><clipPath id="clip-path-3"><path class="cls-2" d="M216.14,118s-8.08.17-12.66,6.37c0,0-10.12-1-9-6.19s17.66-7.09,18.95-6.14S216.14,118,216.14,118Z"/></clipPath><clipPath id="clip-path-4"><path class="cls-3" d="M216.26,73.63s15.19-11.42,12.42-16.53a1.37,1.37,0,0,0-.13-.2c-.57-.75-4.87-5.14-22.43,2a1.26,1.26,0,0,0-.74.76c-.49,1.45-1.28,5.62,3.34,10.42C208.72,70.07,213.74,76,216.26,73.63Z"/></clipPath><clipPath id="clip-path-5"><path class="cls-1" d="M204.38,124.39s0,1.17-2.62.75c-11.8-1.89-26.7-15.39-28-16.61a1,1,0,0,0-.21-.15,52.65,52.65,0,0,1-16.07-16.49c-8.31-13.14-7.08-23.48-6.11-27.43a1.28,1.28,0,0,1,1.95-.77c7.75,5,10.87,2.49,11.33,2l.11-.12C188.3,34.4,210.48,49,210.48,49s35.67,16.63,8.35,52.15a1.3,1.3,0,0,0-.23.49c-.22,1-.62,5,4.16,10.3a1.26,1.26,0,0,1,.33.9c-.05,1-.84,3.17-5.79,5.51a1.26,1.26,0,0,1-1.59-.42c-1-1.38-3.88-3.68-12.13-2.06C189.11,118.73,204.38,124.39,204.38,124.39Z"/></clipPath><clipPath id="clip-path-6"><path class="cls-3" d="M206,65.86s14.68-11,12.54-16.27A1.17,1.17,0,0,0,218,49c-1.69-.86-8.86-3.49-24.93,2.88a1.28,1.28,0,0,0-.73,1.66,29,29,0,0,0,6.16,8.76S203.51,68.24,206,65.86Z"/></clipPath><clipPath id="clip-path-7"><circle class="cls-4" cx="208.9" cy="88.19" r="7.09"/></clipPath></defs><path class="cls-1" d="M120.66,75.15C59.78,92.83,59.14,49.36,59.14,49.36c-2.32-16.07-13.85-13.5-13.85-13.5C34.86,37,36.34,25,36.34,25a12.43,12.43,0,0,1,9.54-12.87c32.3-6.43,30.14,35,30.14,35,4.73,34.74,44.71,21.21,44.71,21.21a2.71,2.71,0,0,1,2.83,2.65C123.85,73.86,120.66,75.15,120.66,75.15Z"/><g class="cls-5"><ellipse class="cls-6" cx="65.23" cy="16.08" rx="14.31" ry="4.78" transform="translate(5.83 47.48) rotate(-41.71)"/><ellipse class="cls-6" cx="74.44" cy="30.05" rx="14.31" ry="4.78" transform="translate(-5.21 40.08) rotate(-29.16)"/></g><path class="cls-7" d="M181.75,136.12s6.85-2.54,8.1.45c0,0,3.58,4.08.69,5.16,0,0,.41,3.07-3.42,4.41s-8.66,6.42-13.64-2.78C173.48,143.36,171.27,137,181.75,136.12Z"/><path class="cls-8" d="M163.06,114.12s11.16,19.39,18.69,22c0,0,.59,7.55-5.74,7.91s-16-15.7-19.53-23.12S159,109.57,163.06,114.12Z"/><path class="cls-7" d="M96.41,61.39s-7.14,1.52-8-1.61c0,0-2.95-4.56.07-5.21,0,0,0-3.1,4-3.87s9.49-5.1,13.09,4.72C105.64,55.42,106.91,62,96.41,61.39Z"/><path class="cls-8" d="M111.72,85.86s-8.23-20.79-15.31-24.47c0,0,.51-7.56,6.82-7s13.55,17.84,16,25.69S115.09,91,111.72,85.86Z"/><path class="cls-1" d="M164.22,95.1s-1.87-1.61-5.09-4.7c-1.37-2.27-7.68-12.54-8.57-9.44-1.84-2.55-3.76-4.72-4.51-3.95-10.15-10.69-22.64-19.36-35.28-11-13,8.67-18.49,27.17,5.82,43.2s37.24,19.11,48.93,11.86C181.26,111.35,185,107.53,164.22,95.1Z"/><g class="cls-9"><ellipse class="cls-6" cx="147.17" cy="79.49" rx="5.3" ry="11.72" transform="translate(-8.39 18.03) rotate(-6.81)"/><ellipse class="cls-6" cx="134.67" cy="72.25" rx="5.3" ry="11.72" transform="translate(-3.77 7.53) rotate(-3.16)"/><path class="cls-10" d="M169.12,123.49s3.74-5.66-8.13-6.41-15.89,2.75-30.69-8-21-19.17-25-18.63S96.3,92,102.67,104s43.62,32.16,43.62,32.16,14.53,3.21,15.1,2.6S169.12,123.49,169.12,123.49Z"/></g><path class="cls-11" d="M159.79,89.68s4.34,16.23,14.58,26.12l6.67-6.37S164.27,77.47,159.79,89.68Z"/><path class="cls-2" d="M216.14,118s-8.08.17-12.66,6.37c0,0-10.12-1-9-6.19s17.66-7.09,18.95-6.14S216.14,118,216.14,118Z"/><g class="cls-12"><path class="cls-13" d="M198.87,114.1a8.85,8.85,0,0,1,4,9.84C201.33,130.8,185.91,113.78,198.87,114.1Z"/></g><path class="cls-4" d="M211.92,115s-.89,4.14,3.05,2.15C215,117.16,214.61,115.87,211.92,115Z"/><path class="cls-3" d="M216.26,73.63s15.19-11.42,12.42-16.53a1.37,1.37,0,0,0-.13-.2c-.57-.75-4.87-5.14-22.43,2a1.26,1.26,0,0,0-.74.76c-.49,1.45-1.28,5.62,3.34,10.42C208.72,70.07,213.74,76,216.26,73.63Z"/><g class="cls-14"><path class="cls-15" d="M231.37,63.13s-6.47-5-20.51,9.73c0,0,5.16,10,7.62,8.15S232.27,67.8,232.27,67.8Z"/></g><path class="cls-1" d="M204.38,124.39s0,1.17-2.62.75c-11.8-1.89-26.7-15.39-28-16.61a1,1,0,0,0-.21-.15,52.65,52.65,0,0,1-16.07-16.49c-8.31-13.14-7.08-23.48-6.11-27.43a1.28,1.28,0,0,1,1.95-.77c7.75,5,10.87,2.49,11.33,2l.11-.12C188.3,34.4,210.48,49,210.48,49s35.67,16.63,8.35,52.15a1.3,1.3,0,0,0-.23.49c-.22,1-.62,5,4.16,10.3a1.26,1.26,0,0,1,.33.9c-.05,1-.84,3.17-5.79,5.51a1.26,1.26,0,0,1-1.59-.42c-1-1.38-3.88-3.68-12.13-2.06C189.11,118.73,204.38,124.39,204.38,124.39Z"/><g class="cls-16"><ellipse class="cls-10" cx="202.93" cy="123.83" rx="27.44" ry="24.94" transform="translate(-17.52 212.8) rotate(-53.37)"/></g><ellipse class="cls-17" cx="220.38" cy="109.9" rx="2.51" ry="4.29" transform="translate(0.7 221.19) rotate(-53.37)"/><ellipse class="cls-6" cx="192.91" cy="68.64" rx="4.6" ry="12.28" transform="translate(22.73 182.5) rotate(-53.37)"/><ellipse class="cls-6" cx="202.46" cy="56.83" rx="4.6" ry="12.9" transform="translate(36.06 185.4) rotate(-53.37)"/><path class="cls-3" d="M206,65.86s14.68-11,12.54-16.27A1.17,1.17,0,0,0,218,49c-1.69-.86-8.86-3.49-24.93,2.88a1.28,1.28,0,0,0-.73,1.66,29,29,0,0,0,6.16,8.76S203.51,68.24,206,65.86Z"/><g class="cls-18"><path class="cls-15" d="M221.13,55.36s-6.46-5-20.5,9.73c0,0,5.16,10,7.62,8.15S222,60,222,60Z"/></g><circle class="cls-4" cx="208.9" cy="88.19" r="7.09"/><g class="cls-19"><circle class="cls-20" cx="212.48" cy="91.12" r="5.29"/><circle class="cls-20" cx="212.48" cy="91.12" r="3.9"/><circle class="cls-4" cx="212.63" cy="86.6" r="1.57"/></g><path class="cls-1" d="M200.09,82.8s9.11,6,19.43,4.17c0,0-4.39-6.14-9.22-7.57S200.09,82.8,200.09,82.8Z"/><path class="cls-21" d="M223.67,79.22S213,83.29,207.55,76.74"/><path class="cls-22" d="M192.1,94.7s13.85,4.35,17.65,13.7"/><path class="cls-22" d="M189,98.61s14.26,2.72,19.11,11.57"/><path class="cls-22" d="M186.15,101.61s14.37,2,19.64,10.64"/><path class="cls-10" d="M175,140.31s7.31-.2,7.53,3c0,0,2.07,5-1,5.11,0,0-.6,3-4.65,3.07s-10.26,3.29-12-7C164.8,144.51,164.74,137.81,175,140.31Z"/><path class="cls-1" d="M164.33,113.47s4.33,21.94,10.62,26.84c0,0-1.87,7.34-8,5.64s-10.09-20-11.07-28.16S162,107.85,164.33,113.47Z"/><path class="cls-10" d="M87.55,91.7s-3.24,6.54-6.2,5.23c0,0-5.4-.52-4-3.28,0,0-2.41-2-.54-5.56s1.9-10.61,11.83-7.33C88.6,80.76,94.54,83.84,87.55,91.7Z"/><path class="cls-1" d="M116.24,94.9s-21.42-6.46-28.69-3.2c0,0-5.61-5.09-1.25-9.69s22.4.46,30.07,3.42S122.32,95.42,116.24,94.9Z"/></svg>