<svg xmlns="http://www.w3.org/2000/svg" xmlns:xlink="http://www.w3.org/1999/xlink" viewBox="0 0 260 168"><defs><style>.cls-1{fill:#ffbd29;}.cls-2{fill:#ffab14;}.cls-3{fill:#ffab24;}.cls-4{clip-path:url(#clip-path);}.cls-5{fill:#ff7e27;}.cls-6{clip-path:url(#clip-path-2);}.cls-7{fill:#ffe7b6;}.cls-8{fill:#3acccc;}.cls-9{clip-path:url(#clip-path-3);}.cls-10{fill:#ffda99;}.cls-11{clip-path:url(#clip-path-4);}.cls-12{fill:#f48c37;}.cls-13{clip-path:url(#clip-path-5);}.cls-14{fill:#7f4a03;}.cls-15{clip-path:url(#clip-path-6);}.cls-16{fill:#ff8098;}.cls-17{clip-path:url(#clip-path-7);}.cls-18{fill:#fff;}.cls-19{fill:#594025;}</style><clipPath id="clip-path"><path class="cls-1" d="M93.82,136.67S69.23,143.06,67.9,122c0,0,3.08-24.8-16.58-22.33A7.46,7.46,0,0,0,45,107s-1.41,7.15,4.9,6.9c0,0,7-1,7.73,8.69,0,0-1.49,26.12,35.81,18.13"/></clipPath><clipPath id="clip-path-2"><path class="cls-1" d="M124.88,64.54S121.52,82.18,108,92.12,84.24,106.85,84.24,122.3s9.77,27,46.51,27,37.46-23.43,37.46-23.43,2.52-20.52-6.75-37.63c-8.28-15.29-15.05-23.68-15.05-23.68Z"/></clipPath><clipPath id="clip-path-3"><path class="cls-2" d="M154.09,124.29s1.17,16.08-2.44,21.84c0,0,4.28.38,4.28,2.77,0,0,1.18,5-8.87,2.58,0,0-5.17-.63-1.14-5,0,0-3.4-16.43,2.27-22.6C148.19,123.84,151.84,119.44,154.09,124.29Z"/></clipPath><clipPath id="clip-path-4"><path class="cls-2" d="M119.17,150.91c-2.49-3.5-11.59-1.63-11.59-1.63,20.65-6.8,2.77-21.66,2.77-21.66s-12-12-20.15-.76,6.26,16.37,6.26,16.37,8.65,3.09,2.56,5.29c-4.87,1.77-1.72,5.3-1.72,5.3s2.54,1.63,12.23,1.63,9.79-1.89,9.79-1.89A2.62,2.62,0,0,0,119.17,150.91Z"/></clipPath><clipPath id="clip-path-5"><path class="cls-3" d="M142.41,43.32s1.6-7.7-.69-8.44c0,0-2.68-.9-6.5,6.85,0,0,.54,2.25,3.92,2.53C139.14,44.26,142.28,44.73,142.41,43.32Z"/></clipPath><clipPath id="clip-path-6"><path class="cls-1" d="M149.35,65c-4.58,2.16-12.27,2-12.27,2a21.15,21.15,0,0,1-9.43-.71c-7.86-2.3-9.6-7.45-9.6-7.45,4.79-.46,4.73-2.56,4.73-2.56-1.2-16,9.57-17.46,9.57-17.46S147.84,34.24,149,52.64c0,0,.73,1.81,4.28,2.17,0,0,1.57,4.39-1.07,7.9,0,0-1.72,2-5,0a2.7,2.7,0,0,0,1.34,1.86Z"/></clipPath><clipPath id="clip-path-7"><path class="cls-3" d="M137.85,45s1.59-7.7-.7-8.44c0,0-2.67-.9-6.5,6.85,0,0,.54,2.25,3.92,2.53C134.57,45.91,137.72,46.38,137.85,45Z"/></clipPath></defs><g id="Layer_4" data-name="Layer 4"><path class="cls-1" d="M93.82,136.67S69.23,143.06,67.9,122c0,0,3.08-24.8-16.58-22.33A7.46,7.46,0,0,0,45,107s-1.41,7.15,4.9,6.9c0,0,7-1,7.73,8.69,0,0-1.49,26.12,35.81,18.13"/><g class="cls-4"><ellipse class="cls-5" cx="62.76" cy="102.88" rx="8.61" ry="2.88" transform="translate(-49.73 59.66) rotate(-37.6)"/><ellipse class="cls-5" cx="67.69" cy="111.65" rx="8.61" ry="2.88" transform="translate(-40.91 39.17) rotate(-25.05)"/></g><path class="cls-1" d="M124.88,64.54S121.52,82.18,108,92.12,84.24,106.85,84.24,122.3s9.77,27,46.51,27,37.46-23.43,37.46-23.43,2.52-20.52-6.75-37.63c-8.28-15.29-15.05-23.68-15.05-23.68Z"/><g class="cls-6"><path class="cls-7" d="M163.56,90.63s-6.68-2.64-3.42,9.24,14.39,44.52-20.37,48.7c0,0-15.92.93-26.36.59s-8,4.08-8,4.08,51.68,30,57.15,24.67,15-13.15,16.16-20.6S180,142.12,180,132.2,163.56,90.63,163.56,90.63Z"/><path class="cls-8" d="M121.38,66.3s10.14,6.42,30.11.38l-1.31-4.83s-28.26-3.61-28.8-3.23S121.38,66.3,121.38,66.3Z"/></g><path class="cls-2" d="M154.09,124.29s1.17,16.08-2.44,21.84c0,0,4.28.38,4.28,2.77,0,0,1.18,5-8.87,2.58,0,0-5.17-.63-1.14-5,0,0-3.4-16.43,2.27-22.6C148.19,123.84,151.84,119.44,154.09,124.29Z"/><g class="cls-9"><path class="cls-10" d="M157.28,145.58s-16.2-.25-21.91,5.13c0,0-6.8,3.18-.34,5.79s17,4,22.67,4.7,8.73,1.59,8.89-3.11S157.28,145.58,157.28,145.58Z"/></g><ellipse class="cls-5" cx="136.54" cy="91.61" rx="13.64" ry="3.27"/><ellipse class="cls-5" cx="135.03" cy="101.43" rx="13.64" ry="3.27"/><path class="cls-2" d="M119.17,150.91c-2.49-3.5-11.59-1.63-11.59-1.63,20.65-6.8,2.77-21.66,2.77-21.66s-12-12-20.15-.76,6.26,16.37,6.26,16.37,8.65,3.09,2.56,5.29c-4.87,1.77-1.72,5.3-1.72,5.3s2.54,1.63,12.23,1.63,9.79-1.89,9.79-1.89A2.62,2.62,0,0,0,119.17,150.91Z"/><g class="cls-11"><path class="cls-10" d="M92.85,148.65s17,2.26,30.85-2.14c0,0,4.53,13,3.9,13.22a69.46,69.46,0,0,1-20.4,1.64c-9.31-.89-10.07-.13-13-1.64s-4.15-2.39-3.77-3.4S92.85,148.65,92.85,148.65Z"/></g><path class="cls-12" d="M148.9,63a1.57,1.57,0,0,0-.12,1.77l-2.86-1.43,1-1.64Z"/><path class="cls-3" d="M142.41,43.32s1.6-7.7-.69-8.44c0,0-2.68-.9-6.5,6.85,0,0,.54,2.25,3.92,2.53C139.14,44.26,142.28,44.73,142.41,43.32Z"/><g class="cls-13"><path class="cls-14" d="M144.22,36s-3.35.2-3.67,8.52c0,0,4.28,1.68,4.54.45s.66-7.78.66-7.78Z"/></g><path class="cls-1" d="M149.35,65c-4.58,2.16-12.27,2-12.27,2a21.15,21.15,0,0,1-9.43-.71c-7.86-2.3-9.6-7.45-9.6-7.45,4.79-.46,4.73-2.56,4.73-2.56-1.2-16,9.57-17.46,9.57-17.46S147.84,34.24,149,52.64c0,0,.73,1.81,4.28,2.17,0,0,1.57,4.39-1.07,7.9,0,0-1.72,2-5,0a2.7,2.7,0,0,0,1.34,1.86Z"/><g class="cls-15"><ellipse class="cls-7" cx="150.22" cy="63.79" rx="10.19" ry="11.21" transform="translate(-4.72 12.53) rotate(-4.7)"/></g><ellipse class="cls-16" cx="151" cy="54.87" rx="2.57" ry="1.03" transform="translate(-3.99 12.56) rotate(-4.7)"/><ellipse class="cls-5" cx="136.09" cy="49.24" rx="6.55" ry="1.88" transform="translate(-3.58 11.32) rotate(-4.7)"/><ellipse class="cls-5" cx="135.66" cy="43.93" rx="6.55" ry="1.88" transform="translate(-3.15 11.27) rotate(-4.7)"/><path class="cls-3" d="M137.85,45s1.59-7.7-.7-8.44c0,0-2.67-.9-6.5,6.85,0,0,.54,2.25,3.92,2.53C134.57,45.91,137.72,46.38,137.85,45Z"/><g class="cls-17"><path class="cls-14" d="M139.65,37.67s-3.35.2-3.67,8.52c0,0,4.28,1.67,4.54.44s.67-7.77.67-7.77Z"/></g><path class="cls-14" d="M143.23,44.53a1.12,1.12,0,0,1,.3-1.06,1.36,1.36,0,0,1,1.2-.35,1.69,1.69,0,0,1,1,.56,1.74,1.74,0,0,1,.43.93,4.44,4.44,0,0,1-.92-.22,5.69,5.69,0,0,0-.66-.18,1.23,1.23,0,0,0-.51,0A3.13,3.13,0,0,0,143.23,44.53Z"/><ellipse class="cls-18" cx="145.14" cy="49.8" rx="1.76" ry="3.57" transform="translate(-3.6 12.07) rotate(-4.7)"/><ellipse class="cls-19" cx="145.14" cy="49.8" rx="1.1" ry="2.24" transform="translate(-3.6 12.07) rotate(-4.7)"/><ellipse class="cls-19" cx="145.14" cy="49.8" rx="0.78" ry="1.58" transform="translate(-3.6 12.07) rotate(-4.7)"/><ellipse class="cls-18" cx="145.76" cy="48.23" rx="0.28" ry="0.72" transform="translate(-3.46 12.12) rotate(-4.7)"/><path class="cls-1" d="M123.94,68.11a7.42,7.42,0,0,1-4.56,2.39,2.15,2.15,0,0,0,2.47,1.23,6,6,0,0,1-4.19,1.68s.1,2.19,4.49,1.49l3.44-1.53a42.65,42.65,0,0,0-.13-5A8.43,8.43,0,0,1,123.94,68.11Z"/></g></svg>