<svg id="_9" data-name=" 9" xmlns="http://www.w3.org/2000/svg" xmlns:xlink="http://www.w3.org/1999/xlink" viewBox="0 0 260 168"><defs><style>.cls-1{fill:none;}.cls-2{fill:#ffbd29;}.cls-3{clip-path:url(#clip-path);}.cls-4{fill:#ff7e27;}.cls-5{fill:#ffab24;}.cls-6{fill:#7f4a03;}.cls-7{clip-path:url(#clip-path-2);}</style><clipPath id="clip-path"><path class="cls-1" d="M45.31,226.14s72.1-42.55,28.78-90c0,0-45.88-53.11-15.84-74.38,0,0,13.57-13.26,25.28-5.34,0,0,16.37,10.32,2.46,23.61,0,0-14.9,14.93,5,37.09,0,0,55.47,49.85-41,114.72"/></clipPath><clipPath id="clip-path-2"><path class="cls-1" d="M133.83,201.64c-8.61-5-19.58-24.8-24.17-33.65-.55-1.19-1.14-2.35-1.77-3.49l-.4-.82h-.06a51.83,51.83,0,0,0-89.7,0h0l-.07.15a52,52,0,0,0-2.53,5C10.3,178-.28,196.82-8.63,201.64a6,6,0,0,0,5.69,3.78s-9,34.41,61.75,36.12v-.15c1.24.09,2.5.15,3.77.15s2.57-.07,3.84-.16v.16c70.72-1.71,61.75-36.12,61.75-36.12A6,6,0,0,0,133.83,201.64Z"/></clipPath></defs><path class="cls-2" d="M45.31,226.14s72.1-42.55,28.78-90c0,0-45.88-53.11-15.84-74.38,0,0,13.57-13.26,25.28-5.34,0,0,16.37,10.32,2.46,23.61,0,0-14.9,14.93,5,37.09,0,0,55.47,49.85-41,114.72"/><g class="cls-3"><ellipse class="cls-4" cx="52.85" cy="84.51" rx="9.45" ry="19.86" transform="translate(-31.82 137.11) rotate(-89.83)"/><ellipse class="cls-4" cx="57.36" cy="110.52" rx="19.82" ry="9.43" transform="translate(-40.34 33.32) rotate(-24.25)"/></g><path class="cls-5" d="M38.73,145.12S-.8,110.69,17.64,163.83c0,0,6.82,3.39,14.78-4.06C32.42,159.77,42.39,154.11,38.73,145.12Z"/><path class="cls-6" d="M33.94,146.74S9.45,125.42,20.87,158.33c0,0,4.23,2.1,9.16-2.52C30,155.81,36.21,152.31,33.94,146.74Z"/><path class="cls-5" d="M84.26,145.12s39.54-34.43,21.1,18.71c0,0-6.82,3.39-14.78-4.06C90.58,159.77,80.6,154.11,84.26,145.12Z"/><path class="cls-6" d="M90.39,146.74s24.48-21.32,13.06,11.59c0,0-4.23,2.1-9.15-2.52C94.3,155.81,88.12,152.31,90.39,146.74Z"/><path class="cls-2" d="M133.83,201.64c-8.61-5-19.58-24.8-24.17-33.65-.55-1.19-1.14-2.35-1.77-3.49l-.4-.82h-.06a51.83,51.83,0,0,0-89.7,0h0l-.07.15a52,52,0,0,0-2.53,5C10.3,178-.28,196.82-8.63,201.64a6,6,0,0,0,5.69,3.78s-9,34.41,61.75,36.12v-.15c1.24.09,2.5.15,3.77.15s2.57-.07,3.84-.16v.16c70.72-1.71,61.75-36.12,61.75-36.12A6,6,0,0,0,133.83,201.64Z"/><g class="cls-7"><ellipse class="cls-4" cx="15.3" cy="169.44" rx="14.81" ry="4.83"/><ellipse class="cls-4" cx="108.87" cy="169.44" rx="14.81" ry="4.83"/><ellipse class="cls-4" cx="52.88" cy="145.33" rx="4.67" ry="16.37"/><ellipse class="cls-4" cx="71.31" cy="145.33" rx="4.67" ry="16.37"/></g></svg>