<svg id="Layer_9" data-name="Layer 9" xmlns="http://www.w3.org/2000/svg" xmlns:xlink="http://www.w3.org/1999/xlink" viewBox="0 0 260 168"><defs><style>.cls-1{fill:#ffbd29;}.cls-2{fill:#ff872e;}.cls-3{fill:#ce6824;}.cls-26,.cls-27,.cls-30,.cls-4,.cls-44,.cls-45,.cls-53,.cls-55{fill:none;}.cls-48,.cls-5{fill:#ff0695;}.cls-5{opacity:0.53;}.cls-6{fill:#ff618b;}.cls-7{fill:#f48c37;}.cls-8{fill:#ffab24;}.cls-54,.cls-9{fill:#fff;}.cls-10{clip-path:url(#clip-path);}.cls-11{fill:#ff7e27;}.cls-12{fill:#f9d89d;}.cls-13{fill:#ffa92c;}.cls-14{clip-path:url(#clip-path-2);}.cls-15{fill:#ffe7b6;}.cls-16{fill:#3acccc;}.cls-17{clip-path:url(#clip-path-3);}.cls-18{fill:#ef526c;}.cls-19{clip-path:url(#clip-path-4);}.cls-20{fill:#7f4a03;}.cls-21{clip-path:url(#clip-path-5);}.cls-22{fill:#ff8098;}.cls-23{clip-path:url(#clip-path-6);}.cls-24{clip-path:url(#clip-path-7);}.cls-25{fill:#594025;}.cls-26{stroke:#7f4a03;stroke-width:2.67px;}.cls-26,.cls-27,.cls-53,.cls-55{stroke-linecap:round;}.cls-26,.cls-30,.cls-44,.cls-45{stroke-miterlimit:10;}.cls-27{stroke:#ffc866;stroke-width:0.62px;}.cls-27,.cls-53,.cls-55{stroke-linejoin:round;}.cls-28{fill:#ea0c67;opacity:0.8;}.cls-29{clip-path:url(#clip-path-8);}.cls-30{stroke:#c6601c;stroke-width:0.11px;}.cls-31{clip-path:url(#clip-path-9);}.cls-32{fill:#ffb273;}.cls-33{clip-path:url(#clip-path-10);}.cls-34{clip-path:url(#clip-path-11);}.cls-35{fill:#ff8db6;}.cls-36{fill:#8c1cb5;}.cls-37{fill:#cc621b;}.cls-38,.cls-41{fill:#6abfbd;}.cls-38{opacity:0.2;}.cls-39{clip-path:url(#clip-path-12);}.cls-40{clip-path:url(#clip-path-13);}.cls-41{opacity:0.1;}.cls-42{fill:#77f7f7;}.cls-43{clip-path:url(#clip-path-14);}.cls-44,.cls-45{stroke:#b73e70;}.cls-44{stroke-width:0.11px;}.cls-45{stroke-width:0.11px;}.cls-46{fill:#e24475;}.cls-47{fill:#efefef;}.cls-48{opacity:0.5;}.cls-49{fill:#b94ee5;}.cls-50{fill:#a141ce;}.cls-51{fill:#e2e2e2;}.cls-52{fill:#e27124;}.cls-53,.cls-55{stroke:#fff;}.cls-53{stroke-width:0.89px;}.cls-53,.cls-54,.cls-55{opacity:0.3;}.cls-55{stroke-width:0.43px;}</style><clipPath id="clip-path"><path class="cls-1" d="M120.66,75.15C59.78,92.83,59.14,49.36,59.14,49.36c-2.32-16.07-13.85-13.5-13.85-13.5C34.86,37,36.34,25,36.34,25a12.43,12.43,0,0,1,9.54-12.87c32.3-6.43,30.14,35,30.14,35,4.73,34.74,44.71,21.21,44.71,21.21a2.71,2.71,0,0,1,2.83,2.65C123.85,73.86,120.66,75.15,120.66,75.15Z"/></clipPath><clipPath id="clip-path-2"><path class="cls-1" d="M164.22,95.1s-1.87-1.61-5.09-4.7c-1.37-2.27-7.68-12.54-8.57-9.44-1.84-2.55-3.76-4.72-4.51-3.95-10.15-10.69-22.64-19.36-35.28-11-13,8.67-18.49,27.17,5.82,43.2s37.24,19.11,48.93,11.86C181.26,111.35,185,107.53,164.22,95.1Z"/></clipPath><clipPath id="clip-path-3"><path class="cls-7" d="M216.14,118s-8.08.17-12.66,6.37c0,0-10.12-1-9-6.19s17.66-7.09,18.95-6.14S216.14,118,216.14,118Z"/></clipPath><clipPath id="clip-path-4"><path class="cls-8" d="M216.26,73.63s15.19-11.42,12.42-16.53a1.37,1.37,0,0,0-.13-.2c-.57-.75-4.87-5.14-22.43,2a1.26,1.26,0,0,0-.74.76c-.49,1.45-1.28,5.62,3.34,10.42C208.72,70.07,213.74,76,216.26,73.63Z"/></clipPath><clipPath id="clip-path-5"><path class="cls-1" d="M204.38,124.39s0,1.17-2.62.75c-11.8-1.89-26.7-15.39-28-16.61a1,1,0,0,0-.21-.15,52.65,52.65,0,0,1-16.07-16.49c-8.31-13.14-7.08-23.48-6.11-27.43a1.28,1.28,0,0,1,1.95-.77c7.75,5,10.87,2.49,11.33,2l.11-.12C188.3,34.4,210.48,49,210.48,49s35.67,16.63,8.35,52.15a1.3,1.3,0,0,0-.23.49c-.22,1-.62,5,4.16,10.3a1.26,1.26,0,0,1,.33.9c-.05,1-.84,3.17-5.79,5.51a1.26,1.26,0,0,1-1.59-.42c-1-1.38-3.88-3.68-12.13-2.06C189.11,118.73,204.38,124.39,204.38,124.39Z"/></clipPath><clipPath id="clip-path-6"><path class="cls-8" d="M206,65.86s14.68-11,12.54-16.27A1.17,1.17,0,0,0,218,49c-1.69-.86-8.86-3.49-24.93,2.88a1.28,1.28,0,0,0-.73,1.66,29,29,0,0,0,6.16,8.76S203.51,68.24,206,65.86Z"/></clipPath><clipPath id="clip-path-7"><circle class="cls-9" cx="208.9" cy="88.19" r="7.09"/></clipPath><clipPath id="clip-path-8"><path class="cls-2" d="M140,131.83l1.81-1.59c1-.91.82-2.87-.49-4.37s-3.1-1.93-4.16-1.14h0l-1.91,1.68c-1,.92-.82,2.87.49,4.37S139,132.74,140,131.83Z"/></clipPath><clipPath id="clip-path-9"><ellipse class="cls-3" cx="137.37" cy="129.27" rx="1.95" ry="3.31" transform="translate(-51.14 122.66) rotate(-41.25)"/></clipPath><clipPath id="clip-path-10"><path class="cls-2" d="M80.11,117l-2.18-1c-1.25-.59-1.57-2.53-.72-4.33s2.45-2.71,3.69-2.24h0l2.31,1.09c1.25.6,1.57,2.54.72,4.34S81.36,117.58,80.11,117Z"/></clipPath><clipPath id="clip-path-11"><ellipse class="cls-3" cx="81.95" cy="113.81" rx="3.31" ry="1.95" transform="translate(-56.03 138.93) rotate(-64.56)"/></clipPath><clipPath id="clip-path-12"><path id="SVGID" class="cls-4" d="M128.11,119.15s-5.41,6.19-20.48-2.46-15.74-15.18-15.74-15.18l-8.76.74S70.69,112,70.39,113.48s-3.71,14.17-3.71,14.17l16.25,12.73s20.82,9.94,31.15,13,13.88,4.06,17.55,4,19.44-3.76,21.14-4.8S161.58,138,160,136.74s-13-12.84-14.08-13.2S128.11,119.15,128.11,119.15Z"/></clipPath><clipPath id="clip-path-13"><path class="cls-5" d="M79,116.44c-3.53,7.68,5.32,11.5,5.32,11.5l7.31,3.37c.61.28,1.26-.68,1.26-.68-.5,1.08.2,1.37.2,1.37l3.59,1.65c.67.31,1.3-.74,1.3-.74-.48,1,.06,1.31.06,1.31l3.31,1.53c.6.27,1.28-.79,1.28-.79-.66,1.21.31,1.49.31,1.49l3.48,1.61c.75.34,1.21-.66,1.21-.66a1,1,0,0,0,.58,1.53l7,3.24a1.05,1.05,0,0,0,1.32-.51l2.55,1.18c.23,2.44,3.88,3.7,3.88,3.7,4.92,2.26,17.82-1.35,17.82-1.35l1.41.65c.09,1.72,1.25.56,1.25.56l4.48,2.06s.74.35,1.45-1.21l2.38-5.17s.67-1.47-.06-1.81l-4.48-2.06s.12-1.63-1.24-.59l-1.41-.64s-5.65-12.15-10.57-14.41c0,0-3.33-2-5.34-.54l-2.55-1.18a1,1,0,0,0-.47-1.32l-7-3.24a1,1,0,0,0-1.53.56s.46-1-.29-1.35l-3.49-1.6s-.84-.55-1.33.74c0,0,.37-1.21-.23-1.49l-3.32-1.52s-.55-.23-1,.8c0,0,.38-1.15-.28-1.46l-3.59-1.65s-.68-.35-1.18.74c0,0,.31-1.12-.29-1.4l-7.32-3.36s-8.66-4.24-12.2,3.44Z"/></clipPath><clipPath id="clip-path-14"><path class="cls-6" d="M147.56,138.08l5.2,2.39a1.07,1.07,0,0,1,.19,1.31l-3,6.55s-.67.91-1.43.56l-5.14-2.36s-.43-.77,1.47-4.9S147.56,138.08,147.56,138.08Z"/></clipPath></defs><path class="cls-1" d="M120.66,75.15C59.78,92.83,59.14,49.36,59.14,49.36c-2.32-16.07-13.85-13.5-13.85-13.5C34.86,37,36.34,25,36.34,25a12.43,12.43,0,0,1,9.54-12.87c32.3-6.43,30.14,35,30.14,35,4.73,34.74,44.71,21.21,44.71,21.21a2.71,2.71,0,0,1,2.83,2.65C123.85,73.86,120.66,75.15,120.66,75.15Z"/><g class="cls-10"><ellipse class="cls-11" cx="65.23" cy="16.08" rx="14.31" ry="4.78" transform="translate(5.83 47.48) rotate(-41.71)"/><ellipse class="cls-11" cx="74.44" cy="30.05" rx="14.31" ry="4.78" transform="translate(-5.21 40.08) rotate(-29.16)"/></g><path class="cls-12" d="M181.75,136.12s6.85-2.54,8.1.45c0,0,3.58,4.08.69,5.16,0,0,.41,3.07-3.42,4.41s-8.66,6.42-13.64-2.78C173.48,143.36,171.27,137,181.75,136.12Z"/><path class="cls-13" d="M163.06,114.12s11.16,19.39,18.69,22c0,0,.59,7.55-5.74,7.91s-16-15.7-19.53-23.12S159,109.57,163.06,114.12Z"/><path class="cls-12" d="M96.41,61.39s-7.14,1.52-8-1.61c0,0-2.95-4.56.07-5.21,0,0,0-3.1,4-3.87s9.49-5.1,13.09,4.72C105.64,55.42,106.91,62,96.41,61.39Z"/><path class="cls-13" d="M111.72,85.86s-8.23-20.79-15.31-24.47c0,0,.51-7.56,6.82-7s13.55,17.84,16,25.69S115.09,91,111.72,85.86Z"/><path class="cls-1" d="M164.22,95.1s-1.87-1.61-5.09-4.7c-1.37-2.27-7.68-12.54-8.57-9.44-1.84-2.55-3.76-4.72-4.51-3.95-10.15-10.69-22.64-19.36-35.28-11-13,8.67-18.49,27.17,5.82,43.2s37.24,19.11,48.93,11.86C181.26,111.35,185,107.53,164.22,95.1Z"/><g class="cls-14"><ellipse class="cls-11" cx="147.17" cy="79.49" rx="5.3" ry="11.72" transform="translate(-8.39 18.03) rotate(-6.81)"/><ellipse class="cls-11" cx="134.67" cy="72.25" rx="5.3" ry="11.72" transform="translate(-3.77 7.53) rotate(-3.16)"/><path class="cls-15" d="M169.12,123.49s3.74-5.66-8.13-6.41-15.89,2.75-30.69-8-21-19.17-25-18.63S96.3,92,102.67,104s43.62,32.16,43.62,32.16,14.53,3.21,15.1,2.6S169.12,123.49,169.12,123.49Z"/></g><path class="cls-16" d="M159.79,89.68s4.34,16.23,14.58,26.12l6.67-6.37S164.27,77.47,159.79,89.68Z"/><path class="cls-7" d="M216.14,118s-8.08.17-12.66,6.37c0,0-10.12-1-9-6.19s17.66-7.09,18.95-6.14S216.14,118,216.14,118Z"/><g class="cls-17"><path class="cls-18" d="M198.87,114.1a8.85,8.85,0,0,1,4,9.84C201.33,130.8,185.91,113.78,198.87,114.1Z"/></g><path class="cls-9" d="M211.92,115s-.89,4.14,3.05,2.15C215,117.16,214.61,115.87,211.92,115Z"/><path class="cls-8" d="M216.26,73.63s15.19-11.42,12.42-16.53a1.37,1.37,0,0,0-.13-.2c-.57-.75-4.87-5.14-22.43,2a1.26,1.26,0,0,0-.74.76c-.49,1.45-1.28,5.62,3.34,10.42C208.72,70.07,213.74,76,216.26,73.63Z"/><g class="cls-19"><path class="cls-20" d="M231.37,63.13s-6.47-5-20.51,9.73c0,0,5.16,10,7.62,8.15S232.27,67.8,232.27,67.8Z"/></g><path class="cls-1" d="M204.38,124.39s0,1.17-2.62.75c-11.8-1.89-26.7-15.39-28-16.61a1,1,0,0,0-.21-.15,52.65,52.65,0,0,1-16.07-16.49c-8.31-13.14-7.08-23.48-6.11-27.43a1.28,1.28,0,0,1,1.95-.77c7.75,5,10.87,2.49,11.33,2l.11-.12C188.3,34.4,210.48,49,210.48,49s35.67,16.63,8.35,52.15a1.3,1.3,0,0,0-.23.49c-.22,1-.62,5,4.16,10.3a1.26,1.26,0,0,1,.33.9c-.05,1-.84,3.17-5.79,5.51a1.26,1.26,0,0,1-1.59-.42c-1-1.38-3.88-3.68-12.13-2.06C189.11,118.73,204.38,124.39,204.38,124.39Z"/><g class="cls-21"><ellipse class="cls-15" cx="202.93" cy="123.83" rx="27.44" ry="24.94" transform="translate(-17.52 212.8) rotate(-53.37)"/></g><ellipse class="cls-22" cx="220.38" cy="109.9" rx="2.51" ry="4.29" transform="translate(0.7 221.19) rotate(-53.37)"/><ellipse class="cls-11" cx="192.91" cy="68.64" rx="4.6" ry="12.28" transform="translate(22.73 182.5) rotate(-53.37)"/><ellipse class="cls-11" cx="202.46" cy="56.83" rx="4.6" ry="12.9" transform="translate(36.06 185.4) rotate(-53.37)"/><path class="cls-8" d="M206,65.86s14.68-11,12.54-16.27A1.17,1.17,0,0,0,218,49c-1.69-.86-8.86-3.49-24.93,2.88a1.28,1.28,0,0,0-.73,1.66,29,29,0,0,0,6.16,8.76S203.51,68.24,206,65.86Z"/><g class="cls-23"><path class="cls-20" d="M221.13,55.36s-6.46-5-20.5,9.73c0,0,5.16,10,7.62,8.15S222,60,222,60Z"/></g><circle class="cls-9" cx="208.9" cy="88.19" r="7.09"/><g class="cls-24"><circle class="cls-25" cx="212.48" cy="91.12" r="5.29"/><circle class="cls-25" cx="212.48" cy="91.12" r="3.9"/><circle class="cls-9" cx="212.63" cy="86.6" r="1.57"/></g><path class="cls-1" d="M200.09,82.8s9.11,6,19.43,4.17c0,0-4.39-6.14-9.22-7.57S200.09,82.8,200.09,82.8Z"/><path class="cls-26" d="M223.67,79.22S213,83.29,207.55,76.74"/><path class="cls-27" d="M192.1,94.7s13.85,4.35,17.65,13.7"/><path class="cls-27" d="M189,98.61s14.26,2.72,19.11,11.57"/><path class="cls-27" d="M186.15,101.61s14.37,2,19.64,10.64"/><path class="cls-15" d="M175,140.31s7.31-.2,7.53,3c0,0,2.07,5-1,5.11,0,0-.6,3-4.65,3.07s-10.26,3.29-12-7C164.8,144.51,164.74,137.81,175,140.31Z"/><path class="cls-1" d="M164.33,113.47s4.33,21.94,10.62,26.84c0,0-1.87,7.34-8,5.64s-10.09-20-11.07-28.16S162,107.85,164.33,113.47Z"/><path class="cls-15" d="M87.55,91.7s-3.24,6.54-6.2,5.23c0,0-5.4-.52-4-3.28,0,0-2.41-2-.54-5.56s1.9-10.61,11.83-7.33C88.6,80.76,94.54,83.84,87.55,91.7Z"/><path class="cls-1" d="M116.24,94.9s-21.42-6.46-28.69-3.2c0,0-5.61-5.09-1.25-9.69s22.4.46,30.07,3.42S122.32,95.42,116.24,94.9Z"/><path class="cls-28" d="M93.34,104.83s0-.37,6.14,4.73,11.91,8.38,16.66,9.31,10.77,1.16,10,1.7c0,0-6.8,3.53-19.09-3.86S93.49,105.69,93.34,104.83Z"/><path class="cls-2" d="M140,131.83l1.81-1.59c1-.91.82-2.87-.49-4.37s-3.1-1.93-4.16-1.14h0l-1.91,1.68c-1,.92-.82,2.87.49,4.37S139,132.74,140,131.83Z"/><g class="cls-29"><line class="cls-30" x1="140.21" y1="122.9" x2="131.91" y2="130.18"/><line class="cls-30" x1="140.01" y1="122.67" x2="131.71" y2="129.95"/><line class="cls-30" x1="140.46" y1="123.18" x2="132.16" y2="130.46"/><line class="cls-30" x1="140.71" y1="123.46" x2="132.41" y2="130.74"/><line class="cls-30" x1="140.95" y1="123.75" x2="132.65" y2="131.02"/><line class="cls-30" x1="141.2" y1="124.03" x2="132.9" y2="131.31"/><line class="cls-30" x1="141.45" y1="124.31" x2="133.15" y2="131.59"/><line class="cls-30" x1="141.69" y1="124.59" x2="133.39" y2="131.87"/><line class="cls-30" x1="141.94" y1="124.87" x2="133.64" y2="132.15"/><line class="cls-30" x1="142.19" y1="125.15" x2="133.89" y2="132.43"/><line class="cls-30" x1="142.43" y1="125.43" x2="134.13" y2="132.71"/><line class="cls-30" x1="142.68" y1="125.72" x2="134.38" y2="132.99"/><line class="cls-30" x1="142.93" y1="126" x2="134.63" y2="133.28"/><line class="cls-30" x1="143.17" y1="126.28" x2="134.88" y2="133.56"/><line class="cls-30" x1="143.42" y1="126.56" x2="135.12" y2="133.84"/><line class="cls-30" x1="143.67" y1="126.84" x2="135.37" y2="134.12"/><line class="cls-30" x1="143.91" y1="127.12" x2="135.62" y2="134.4"/><line class="cls-30" x1="144.16" y1="127.4" x2="135.86" y2="134.68"/><line class="cls-30" x1="144.41" y1="127.68" x2="136.11" y2="134.96"/></g><ellipse class="cls-2" cx="137.41" cy="129.24" rx="2.28" ry="3.66" transform="translate(-51.11 122.68) rotate(-41.25)"/><ellipse class="cls-3" cx="137.37" cy="129.27" rx="1.95" ry="3.31" transform="translate(-51.14 122.66) rotate(-41.25)"/><g class="cls-31"><ellipse class="cls-32" cx="139.68" cy="127.37" rx="2.04" ry="3.43" transform="translate(-49.32 123.71) rotate(-41.25)"/></g><path class="cls-2" d="M80.11,117l-2.18-1c-1.25-.59-1.57-2.53-.72-4.33s2.45-2.71,3.69-2.24h0l2.31,1.09c1.25.6,1.57,2.54.72,4.34S81.36,117.58,80.11,117Z"/><g class="cls-33"><line class="cls-30" x1="77.48" y1="108.46" x2="87.44" y2="113.2"/><line class="cls-30" x1="77.61" y1="108.18" x2="87.57" y2="112.92"/><line class="cls-30" x1="77.31" y1="108.79" x2="87.28" y2="113.53"/><line class="cls-30" x1="77.15" y1="109.13" x2="87.12" y2="113.87"/><line class="cls-30" x1="76.99" y1="109.47" x2="86.96" y2="114.21"/><line class="cls-30" x1="76.83" y1="109.81" x2="86.8" y2="114.55"/><line class="cls-30" x1="76.67" y1="110.15" x2="86.64" y2="114.89"/><line class="cls-30" x1="76.51" y1="110.48" x2="86.48" y2="115.22"/><line class="cls-30" x1="76.35" y1="110.82" x2="86.32" y2="115.56"/><line class="cls-30" x1="76.19" y1="111.16" x2="86.16" y2="115.9"/><line class="cls-30" x1="76.03" y1="111.5" x2="86" y2="116.24"/><line class="cls-30" x1="75.87" y1="111.84" x2="85.84" y2="116.58"/><line class="cls-30" x1="75.71" y1="112.17" x2="85.68" y2="116.91"/><line class="cls-30" x1="75.55" y1="112.51" x2="85.52" y2="117.25"/><line class="cls-30" x1="75.39" y1="112.85" x2="85.35" y2="117.59"/><line class="cls-30" x1="75.23" y1="113.19" x2="85.19" y2="117.93"/><line class="cls-30" x1="75.06" y1="113.52" x2="85.03" y2="118.27"/><line class="cls-30" x1="74.9" y1="113.86" x2="84.87" y2="118.6"/><line class="cls-30" x1="74.74" y1="114.2" x2="84.71" y2="118.94"/></g><ellipse class="cls-2" cx="81.9" cy="113.79" rx="3.66" ry="2.28" transform="translate(-56.03 138.87) rotate(-64.56)"/><ellipse class="cls-3" cx="81.95" cy="113.81" rx="3.31" ry="1.95" transform="translate(-56.03 138.93) rotate(-64.56)"/><g class="cls-34"><ellipse class="cls-32" cx="79.21" cy="112.61" rx="3.43" ry="2.04" transform="translate(-56.5 135.77) rotate(-64.56)"/></g><path class="cls-35" d="M153.13,140.63h0l-.54-.25-.66,1.46a20,20,0,0,0-1.49,2.73,20.53,20.53,0,0,0-1.11,2.9l-.67,1.46.57.26c.42.19,1.64-1.56,2.73-3.93S153.55,140.82,153.13,140.63Z"/><circle class="cls-36" cx="94.52" cy="121.02" r="5.73" transform="translate(-49.21 175.08) rotate(-72.62)"/><circle class="cls-37" cx="126.9" cy="135.77" r="5.73" transform="translate(-40.57 216.33) rotate(-72.62)"/><path class="cls-38" d="M89.14,106s.49,8-7.52,17.72l46.49,21.39L141,144l1.75.8,2.8-6.08L143,137.57s-7.57-14.24-14.68-14.29L125.51,122s-4.46,3-17.48-3S91.91,105.8,91.91,105.8Z"/><g class="cls-39"><path class="cls-5" d="M79,116.44c-3.53,7.68,5.32,11.5,5.32,11.5l7.31,3.37c.61.28,1.26-.68,1.26-.68-.5,1.08.2,1.37.2,1.37l3.59,1.65c.67.31,1.3-.74,1.3-.74-.48,1,.06,1.31.06,1.31l3.31,1.53c.6.27,1.28-.79,1.28-.79-.66,1.21.31,1.49.31,1.49l3.48,1.61c.75.34,1.21-.66,1.21-.66a1,1,0,0,0,.58,1.53l7,3.24a1.05,1.05,0,0,0,1.32-.51l2.55,1.18c.23,2.44,3.88,3.7,3.88,3.7,4.92,2.26,17.82-1.35,17.82-1.35l1.41.65c.09,1.72,1.25.56,1.25.56l4.48,2.06s.74.35,1.45-1.21l2.38-5.17s.67-1.47-.06-1.81l-4.48-2.06s.12-1.63-1.24-.59l-1.41-.64s-5.65-12.15-10.57-14.41c0,0-3.33-2-5.34-.54l-2.55-1.18a1,1,0,0,0-.47-1.32l-7-3.24a1,1,0,0,0-1.53.56s.46-1-.29-1.35l-3.49-1.6s-.84-.55-1.33.74c0,0,.37-1.21-.23-1.49l-3.32-1.52s-.55-.23-1,.8c0,0,.38-1.15-.28-1.46l-3.59-1.65s-.68-.35-1.18.74c0,0,.31-1.12-.29-1.4l-7.32-3.36s-8.66-4.24-12.2,3.44Z"/><g class="cls-40"><path class="cls-41" d="M80.65,116.13s-2.76,9.72,2.57,14.85l34.47,15.86s14.23-.41,22.58-3.16l2.72,1.25.91-1.72-4.77-2.42s-9.13,4.51-17.86.13S85,124.23,85,124.23,80.38,123.08,80.65,116.13Z"/><path class="cls-42" d="M147.17,136.11a23.28,23.28,0,0,0-5.49,13.65l1.57-2.08A22.38,22.38,0,0,1,148.17,137Z"/></g></g><path class="cls-6" d="M147.56,138.08l5.2,2.39a1.07,1.07,0,0,1,.19,1.31l-3,6.55s-.67.91-1.43.56l-5.14-2.36s-.43-.77,1.47-4.9S147.56,138.08,147.56,138.08Z"/><g class="cls-43"><line class="cls-44" x1="147.71" y1="138.76" x2="152.54" y2="140.98"/><line class="cls-44" x1="147.41" y1="139.35" x2="152.25" y2="141.58"/><line class="cls-44" x1="147.12" y1="139.95" x2="151.95" y2="142.18"/><line class="cls-44" x1="146.82" y1="140.55" x2="151.66" y2="142.77"/><line class="cls-44" x1="146.53" y1="141.14" x2="151.36" y2="143.37"/><line class="cls-44" x1="146.23" y1="141.74" x2="151.07" y2="143.97"/><line class="cls-44" x1="145.94" y1="142.34" x2="150.77" y2="144.56"/><line class="cls-44" x1="145.64" y1="142.93" x2="150.48" y2="145.16"/><line class="cls-44" x1="145.35" y1="143.53" x2="150.18" y2="145.76"/><line class="cls-44" x1="145.05" y1="144.13" x2="149.89" y2="146.35"/><line class="cls-44" x1="144.76" y1="144.73" x2="149.59" y2="146.95"/><line class="cls-44" x1="144.46" y1="145.32" x2="149.3" y2="147.55"/><line class="cls-44" x1="144.2" y1="145.94" x2="149.04" y2="148.16"/><line class="cls-45" x1="143.98" y1="146.43" x2="149.03" y2="148.75"/><path class="cls-46" d="M149,138.2s-3.29,1.75-4.93,10.72l-3-1.33s4.17-11,4.22-11.12,1.26-.89,1.6-.73A22.2,22.2,0,0,1,149,138.2Z"/><path class="cls-35" d="M153,140s-1.86,1.3-4.64,10.08c0,0,2.82,1.49,2.95,1.11s2.61-7.35,2.7-7.63,0-.88,0-1.25A9.27,9.27,0,0,0,153,140Z"/></g><circle class="cls-47" cx="94.7" cy="120.61" r="0.83"/><path class="cls-47" d="M88.26,126,94,120.25l1.44.85-5,5.89Z"/><circle class="cls-47" cx="126.71" cy="135.37" r="0.83"/><path class="cls-47" d="M124.85,142.84c0-.22,2.63-7.14,2.63-7.14l-1.59-.53-3,6.72Z"/><ellipse class="cls-48" cx="83.9" cy="113.31" rx="6.32" ry="1.07" transform="translate(-54.1 142.17) rotate(-65.29)"/><circle class="cls-36" cx="89.34" cy="126.35" r="7.44" transform="translate(-57.93 173.88) rotate(-72.62)"/><circle class="cls-49" cx="89.34" cy="126.35" r="6.5" transform="translate(-57.93 173.88) rotate(-72.62)"/><circle class="cls-50" cx="89.34" cy="126.35" r="4.67" transform="translate(-57.93 173.88) rotate(-72.62)"/><circle class="cls-51" cx="89.35" cy="126.54" r="1.16"/><circle class="cls-37" cx="123.81" cy="142.21" r="7.44" transform="translate(-48.89 217.9) rotate(-72.62)"/><circle class="cls-2" cx="123.81" cy="142.21" r="6.5" transform="translate(-48.89 217.9) rotate(-72.62)"/><circle class="cls-52" cx="123.81" cy="142.21" r="4.75" transform="translate(-48.89 217.9) rotate(-72.62)"/><circle class="cls-51" cx="123.84" cy="142.41" r="1.16"/><path class="cls-53" d="M133.49,123.52s4.34,2.91,8.81,11.63"/><path class="cls-54" d="M135.27,130.07a17.67,17.67,0,0,1,6.57,6.86,8.63,8.63,0,0,0-1.33,3.08s-5.07-4.69-7.59-5C132.92,135,133.74,131,135.27,130.07Z"/><path class="cls-55" d="M114.29,123.32s-3.57,3.84-5.88,12.28"/><path class="cls-55" d="M109.05,120.9s-3.58,3.85-5.89,12.28"/><path class="cls-55" d="M104.84,119s-3.57,3.85-5.88,12.28"/></svg>