<svg xmlns="http://www.w3.org/2000/svg" xmlns:xlink="http://www.w3.org/1999/xlink" viewBox="0 0 260 168"><defs><style>.cls-1{fill:#ffab14;}.cls-2{fill:#ffbd29;}.cls-3{fill:#ffab24;}.cls-4{clip-path:url(#clip-path);}.cls-5{fill:#ffda99;}.cls-6{clip-path:url(#clip-path-2);}.cls-7{fill:#ffe7b6;}.cls-8{fill:#3acccc;}.cls-9{clip-path:url(#clip-path-3);}.cls-10{fill:#ff7e27;}.cls-11{clip-path:url(#clip-path-4);}.cls-12{fill:#f48c37;}.cls-13{clip-path:url(#clip-path-5);}.cls-14{fill:#7f4a03;}.cls-15{clip-path:url(#clip-path-6);}.cls-16{fill:#ff8098;}.cls-17{clip-path:url(#clip-path-7);}.cls-18{fill:#fff;}.cls-19{fill:#594025;}</style><clipPath id="clip-path"><path class="cls-1" d="M55.11,122.4s9.51,13,9.5,19.81c0,0,3.83-2,5.1.08,0,0,3.66,3.64-6.16,6.89,0,0-4.71,2.2-3.63-3.67,0,0-11.59-12.14-10.05-20.37C49.87,125.14,50.63,119.47,55.11,122.4Z"/></clipPath><clipPath id="clip-path-2"><path class="cls-2" d="M27.57,64.54S24.21,82.18,10.72,92.12s-23.79,14.73-23.79,30.18,9.77,27,46.51,27,37.45-23.43,37.45-23.43,2.53-20.52-6.74-37.63C55.87,72.93,49.1,64.54,49.1,64.54Z"/></clipPath><clipPath id="clip-path-3"><path class="cls-1" d="M56.2,124.48s-1.74,16-6.33,21c0,0,4.14,1.14,3.71,3.49,0,0,.25,5.16-9.2.94,0,0-5-1.55-.21-5.16,0,0-.37-16.77,6.31-21.82C50.48,123,54.87,119.29,56.2,124.48Z"/></clipPath><clipPath id="clip-path-4"><path class="cls-1" d="M19.09,147.55c-2-3.79-11.28-3.11-11.28-3.11,21.35-4.08,5.53-21.12,5.53-21.12S3,109.92-6.54,120s4.1,17,4.1,17,8.18,4.18,1.85,5.58c-5,1.13-2.38,5-2.38,5s2.3,1.94,11.92,3.18,10-.61,10-.61A2.62,2.62,0,0,0,19.09,147.55Z"/></clipPath><clipPath id="clip-path-5"><path class="cls-3" d="M45.1,43.32s1.6-7.7-.69-8.44c0,0-2.68-.9-6.5,6.85,0,0,.54,2.25,3.92,2.53C41.83,44.26,45,44.73,45.1,43.32Z"/></clipPath><clipPath id="clip-path-6"><path class="cls-2" d="M52,65c-4.58,2.16-12.27,2-12.27,2a21.19,21.19,0,0,1-9.44-.71c-7.85-2.3-9.59-7.45-9.59-7.45,4.79-.46,4.73-2.56,4.73-2.56C24.27,40.29,35,38.79,35,38.79s15.5-4.55,16.65,13.85c0,0,.73,1.81,4.28,2.17,0,0,1.57,4.39-1.08,7.9,0,0-1.71,2-5,0a2.7,2.7,0,0,0,1.34,1.86Z"/></clipPath><clipPath id="clip-path-7"><path class="cls-3" d="M40.54,45s1.59-7.7-.7-8.44c0,0-2.67-.9-6.5,6.85,0,0,.54,2.25,3.92,2.53C37.26,45.91,40.4,46.38,40.54,45Z"/></clipPath></defs><g id="Layer_2" data-name="Layer 2"><path class="cls-1" d="M55.11,122.4s9.51,13,9.5,19.81c0,0,3.83-2,5.1.08,0,0,3.66,3.64-6.16,6.89,0,0-4.71,2.2-3.63-3.67,0,0-11.59-12.14-10.05-20.37C49.87,125.14,50.63,119.47,55.11,122.4Z"/><g class="cls-4"><path class="cls-5" d="M69.09,138.76s-13.87,8.37-15.87,16c0,0-4.07,6.31,2.79,5.1s16.51-5.57,21.71-8,8.25-3.27,5.9-7.34S69.09,138.76,69.09,138.76Z"/></g><path class="cls-2" d="M27.57,64.54S24.21,82.18,10.72,92.12s-23.79,14.73-23.79,30.18,9.77,27,46.51,27,37.45-23.43,37.45-23.43,2.53-20.52-6.74-37.63C55.87,72.93,49.1,64.54,49.1,64.54Z"/><g class="cls-6"><path class="cls-7" d="M66.25,90.63S59.57,88,62.83,99.87s14.39,44.52-20.37,48.7c0,0-15.92.93-26.36.59s-8,4.08-8,4.08,51.68,30,57.14,24.67,15-13.15,16.17-20.6,1.29-15.19,1.32-25.11S66.25,90.63,66.25,90.63Z"/><path class="cls-8" d="M24.07,66.3s10.14,6.42,30.11.38l-1.31-4.83s-28.26-3.61-28.8-3.23S24.07,66.3,24.07,66.3Z"/></g><path class="cls-1" d="M56.2,124.48s-1.74,16-6.33,21c0,0,4.14,1.14,3.71,3.49,0,0,.25,5.16-9.2.94,0,0-5-1.55-.21-5.16,0,0-.37-16.77,6.31-21.82C50.48,123,54.87,119.29,56.2,124.48Z"/><g class="cls-9"><path class="cls-5" d="M55.5,146S39.61,142.82,33,147.08c0,0-7.26,1.91-1.37,5.63s16,7,21.44,8.72,8.3,3.14,9.31-1.45S55.5,146,55.5,146Z"/></g><ellipse class="cls-10" cx="39.23" cy="91.61" rx="13.64" ry="3.27"/><ellipse class="cls-10" cx="37.72" cy="101.43" rx="13.64" ry="3.27"/><path class="cls-1" d="M19.09,147.55c-2-3.79-11.28-3.11-11.28-3.11,21.35-4.08,5.53-21.12,5.53-21.12S3,109.92-6.54,120s4.1,17,4.1,17,8.18,4.18,1.85,5.58c-5,1.13-2.38,5-2.38,5s2.3,1.94,11.92,3.18,10-.61,10-.61A2.62,2.62,0,0,0,19.09,147.55Z"/><g class="cls-11"><path class="cls-5" d="M-6.72,141.92s16.57,4.44,30.87,1.85c0,0,2.82,13.45,2.17,13.61a69,69,0,0,1-20.44-1c-9.13-2.07-10-1.42-12.65-3.29s-3.82-2.91-3.31-3.86S-6.72,141.92-6.72,141.92Z"/></g><path class="cls-12" d="M51.59,63a1.57,1.57,0,0,0-.12,1.77l-2.86-1.43,1-1.64Z"/><path class="cls-3" d="M45.1,43.32s1.6-7.7-.69-8.44c0,0-2.68-.9-6.5,6.85,0,0,.54,2.25,3.92,2.53C41.83,44.26,45,44.73,45.1,43.32Z"/><g class="cls-13"><path class="cls-14" d="M46.9,36s-3.34.2-3.66,8.52c0,0,4.28,1.68,4.53.45s.67-7.78.67-7.78Z"/></g><path class="cls-2" d="M52,65c-4.58,2.16-12.27,2-12.27,2a21.19,21.19,0,0,1-9.44-.71c-7.85-2.3-9.59-7.45-9.59-7.45,4.79-.46,4.73-2.56,4.73-2.56C24.27,40.29,35,38.79,35,38.79s15.5-4.55,16.65,13.85c0,0,.73,1.81,4.28,2.17,0,0,1.57,4.39-1.08,7.9,0,0-1.71,2-5,0a2.7,2.7,0,0,0,1.34,1.86Z"/><g class="cls-15"><ellipse class="cls-7" cx="52.91" cy="63.79" rx="10.19" ry="11.21" transform="translate(-5.05 4.55) rotate(-4.7)"/></g><ellipse class="cls-16" cx="53.69" cy="54.87" rx="2.57" ry="1.03" transform="translate(-4.32 4.59) rotate(-4.7)"/><ellipse class="cls-10" cx="38.78" cy="49.24" rx="6.55" ry="1.88" transform="translate(-3.91 3.34) rotate(-4.7)"/><ellipse class="cls-10" cx="38.34" cy="43.93" rx="6.55" ry="1.88" transform="translate(-3.47 3.29) rotate(-4.7)"/><path class="cls-3" d="M40.54,45s1.59-7.7-.7-8.44c0,0-2.67-.9-6.5,6.85,0,0,.54,2.25,3.92,2.53C37.26,45.91,40.4,46.38,40.54,45Z"/><g class="cls-17"><path class="cls-14" d="M42.34,37.67s-3.35.2-3.67,8.52c0,0,4.28,1.67,4.54.44s.67-7.77.67-7.77Z"/></g><path class="cls-14" d="M45.92,44.53a1.12,1.12,0,0,1,.3-1.06,1.35,1.35,0,0,1,1.2-.35,1.69,1.69,0,0,1,.95.56,1.74,1.74,0,0,1,.43.93,4.44,4.44,0,0,1-.92-.22,6.28,6.28,0,0,0-.66-.18,1.23,1.23,0,0,0-.51,0A3,3,0,0,0,45.92,44.53Z"/><ellipse class="cls-18" cx="47.83" cy="49.8" rx="1.76" ry="3.57" transform="translate(-3.92 4.09) rotate(-4.7)"/><ellipse class="cls-19" cx="47.83" cy="49.8" rx="1.1" ry="2.24" transform="translate(-3.92 4.09) rotate(-4.7)"/><ellipse class="cls-19" cx="47.83" cy="49.8" rx="0.78" ry="1.58" transform="translate(-3.92 4.09) rotate(-4.7)"/><ellipse class="cls-18" cx="48.45" cy="48.23" rx="0.28" ry="0.72" transform="translate(-3.79 4.14) rotate(-4.7)"/><path class="cls-2" d="M26.63,68.11a7.42,7.42,0,0,1-4.56,2.39,2.15,2.15,0,0,0,2.47,1.23,6,6,0,0,1-4.19,1.68s.1,2.19,4.49,1.49l3.44-1.53a42.65,42.65,0,0,0-.13-5A8.25,8.25,0,0,1,26.63,68.11Z"/></g></svg>