<svg xmlns="http://www.w3.org/2000/svg" xmlns:xlink="http://www.w3.org/1999/xlink" viewBox="0 0 260 168"><defs><style>.cls-1{fill:#f9a806;}.cls-2{fill:#ffab15;}.cls-3{fill:#111;}.cls-4{fill:#472813;}.cls-5{fill:#ffbd29;}.cls-6{fill:#4bb21b;}.cls-7{fill:#fff;}.cls-8{clip-path:url(#clip-path);}.cls-9{fill:#ff7e27;}.cls-10{clip-path:url(#clip-path-2);}.cls-11{fill:#ffda99;}.cls-12{clip-path:url(#clip-path-3);}.cls-13{clip-path:url(#clip-path-4);}.cls-14{fill:#3acccc;}.cls-15{fill:#ffe7b6;}.cls-16{fill:#ffab24;}.cls-17{fill:#7f4a03;}.cls-18{clip-path:url(#clip-path-5);}.cls-19{fill:#594025;}.cls-20,.cls-42,.cls-45,.cls-49,.cls-50{fill:none;}.cls-20{stroke:#a57749;stroke-miterlimit:10;stroke-width:0.15px;}.cls-21{fill:#ff8098;}.cls-22{clip-path:url(#clip-path-6);}.cls-23{clip-path:url(#clip-path-7);}.cls-24{fill:#99623d;}.cls-25{fill:#227fef;}.cls-26{fill:#303030;}.cls-27{fill:#9b633d;}.cls-28{clip-path:url(#clip-path-8);}.cls-29{fill:#2a6805;}.cls-30{fill:#c5db21;}.cls-31{fill:#383838;}.cls-32{fill:#a86f47;}.cls-33{clip-path:url(#clip-path-9);}.cls-34{fill:#177ce0;}.cls-35{fill:#1972dd;}.cls-36{fill:#0461bc;}.cls-37{fill:#895e3c;}.cls-38{fill:#2e83ff;}.cls-39{fill:#126cc6;}.cls-40{fill:#05a;}.cls-41{fill:#603913;}.cls-42{stroke:#28190a;stroke-width:0.99px;}.cls-42,.cls-45,.cls-49,.cls-50{stroke-linecap:round;stroke-linejoin:round;}.cls-43{clip-path:url(#clip-path-10);}.cls-44{fill:#4f3615;}.cls-45,.cls-49,.cls-50{stroke:#4f3615;opacity:0.25;}.cls-45{stroke-width:0.38px;}.cls-46{fill:#6d6d6d;}.cls-47{clip-path:url(#clip-path-11);}.cls-48{fill:#ffce00;}.cls-49{stroke-width:0.42px;}.cls-50{stroke-width:0.84px;}.cls-51{clip-path:url(#clip-path-12);}.cls-52{fill:#ff5050;}.cls-53{fill:#247eea;}.cls-54{fill:#f55;}</style><clipPath id="clip-path"><path class="cls-1" d="M143.85,117.62s17.66,4.6,18.63-10.53c0,0-2.22-17.81,11.9-16a5.39,5.39,0,0,1,4.52,5.26s1,5.13-3.52,5c0,0-5-.75-5.56,6.24,0,0,1.07,18.77-25.72,13"/></clipPath><clipPath id="clip-path-2"><path class="cls-2" d="M114,119.27s-11.14-5.74-10.93,9c0,0-.53-2.51-2.21-2.35s-.26,3.66-.26,3.66,1.09,5.06,3.39,4.21c0,0,.6,0,1-1,0,0,8.37.72,9.49-1.68l2.37-7.32Z"/></clipPath><clipPath id="clip-path-3"><path class="cls-2" d="M145.33,119.47s9.78-7.84,12.5,6.64c0,0,0-2.56,1.7-2.74s1,3.54,1,3.54-.06,5.18-2.49,4.8c0,0-.59.08-1.18-.75,0,0-8.06,2.37-9.64.24l-3.77-6.7Z"/></clipPath><clipPath id="clip-path-4"><path class="cls-5" d="M149.53,91.45c-7.6-6.32-8.86-16-8.86-16l-10.85.5L119,75.48s-1.27,9.65-8.87,16-13,10.91-13,23.85c0,20.68,32.26,19.66,32.74,19.7s32.74,1,32.74-19.7C162.56,102.36,157.13,97.77,149.53,91.45Z"/></clipPath><clipPath id="clip-path-5"><path class="cls-5" d="M144.05,70c-1.72-1-3.91-5-4.83-6.72-.11-.24-.23-.47-.35-.7l-.09-.17h0a10.35,10.35,0,0,0-17.92,0h0l0,0c-.18.32-.35.65-.5,1-1,1.84-3.08,5.6-4.74,6.56a1.19,1.19,0,0,0,1.13.75s-1.79,6.88,12.34,7.22v0q.38,0,.75,0c.26,0,.51,0,.77,0v0c14.13-.34,12.34-7.22,12.34-7.22A1.21,1.21,0,0,0,144.05,70Z"/></clipPath><clipPath id="clip-path-6"><path class="cls-2" d="M110.57,118.17c-1.23,7.23,2.47,14.22,2.47,14.22a4.1,4.1,0,0,0-1.24,1.16c-1.66,2.36,1.2,2.16,1.2,2.16a3,3,0,0,0,2.92,0c3.32-.46,1.07-3.31,1.07-3.31s.71-10.53-2-15.09a2.68,2.68,0,0,0-2.71-1.39A2.59,2.59,0,0,0,110.57,118.17Z"/></clipPath><clipPath id="clip-path-7"><path class="cls-2" d="M150.26,118.17c1.23,7.23-2.47,14.22-2.47,14.22a4.1,4.1,0,0,1,1.24,1.16c1.67,2.36-1.2,2.16-1.2,2.16a3,3,0,0,1-2.92,0c-3.32-.46-1.06-3.31-1.06-3.31s-.72-10.53,2-15.09a2.69,2.69,0,0,1,2.72-1.39A2.58,2.58,0,0,1,150.26,118.17Z"/></clipPath><clipPath id="clip-path-8"><path class="cls-6" d="M73.73,100.48s-.88-1.27-5.36.6c0,0-3.38,1.23-3.61,2.65a4.86,4.86,0,0,0-4.1-1.11c-2.24.59-7.73,1.21-8.15-4.31,0,0-.23-2.5,2.93-3.12s12-3,13.48-3.28,4.48-.55,4.72,2S73.53,99.54,73.73,100.48Z"/></clipPath><clipPath id="clip-path-9"><path class="cls-6" d="M56.71,108s-1.43-.59-4.18,3.41c0,0-2.17,2.87-1.6,4.19a4.82,4.82,0,0,0-4,1.3c-1.57,1.71-5.84,5.21-9.2.8,0,0-1.54-2,.77-4.21s8.4-9,9.54-10.07,3.46-2.9,5.06-.86S56,107.36,56.71,108Z"/></clipPath><clipPath id="clip-path-10"><circle class="cls-7" cx="152.17" cy="126.14" r="3.41" transform="translate(-45.42 131.28) rotate(-41.15)"/></clipPath><clipPath id="clip-path-11"><path class="cls-3" d="M219.29,124.52s-12.42,1.38-33-4.85a7,7,0,0,0-1.68,3.54c-.47,2.39-2.87,12.47,6,15.61s25.41,1.77,28.27-7.54C218.84,131.28,220.88,126.88,219.29,124.52Z"/></clipPath><clipPath id="clip-path-12"><path class="cls-4" d="M146.09,134.2s-3.54,4,2.74,3.45C148.83,137.65,149.16,136,146.09,134.2Z"/></clipPath></defs><g id="Layer_2" data-name="Layer 2"><path class="cls-1" d="M143.85,117.62s17.66,4.6,18.63-10.53c0,0-2.22-17.81,11.9-16a5.39,5.39,0,0,1,4.52,5.26s1,5.13-3.52,5c0,0-5-.75-5.56,6.24,0,0,1.07,18.77-25.72,13"/><g class="cls-8"><ellipse class="cls-9" cx="166.17" cy="93.35" rx="2.07" ry="6.18" transform="translate(-9.18 168.04) rotate(-52.4)"/><ellipse class="cls-9" cx="162.62" cy="99.65" rx="2.07" ry="6.18" transform="translate(3.49 204.78) rotate(-64.95)"/></g><path class="cls-2" d="M114,119.27s-11.14-5.74-10.93,9c0,0-.53-2.51-2.21-2.35s-.26,3.66-.26,3.66,1.09,5.06,3.39,4.21c0,0,.6,0,1-1,0,0,8.37.72,9.49-1.68l2.37-7.32Z"/><g class="cls-10"><path class="cls-11" d="M102.56,126.31s1.31,7.18,3.77,7.24c0,0-4.39,2.2-5.34.93,0,0-4.12-5.67-4.23-6.52s-.87-3.2-.41-3.82a3.84,3.84,0,0,1,1.78-1.25l1.68-.57"/></g><path class="cls-2" d="M145.33,119.47s9.78-7.84,12.5,6.64c0,0,0-2.56,1.7-2.74s1,3.54,1,3.54-.06,5.18-2.49,4.8c0,0-.59.08-1.18-.75,0,0-8.06,2.37-9.64.24l-3.77-6.7Z"/><g class="cls-12"><path class="cls-11" d="M157.93,124.11s.13,7.29-2.27,7.84c0,0,4.75,1.29,5.43-.15,0,0,2.91-6.38,2.85-7.23s.21-3.31-.36-3.83a3.86,3.86,0,0,0-2-.87l-1.77-.22"/></g><path class="cls-5" d="M149.53,91.45c-7.6-6.32-8.86-16-8.86-16l-10.85.5L119,75.48s-1.27,9.65-8.87,16-13,10.91-13,23.85c0,20.68,32.26,19.66,32.74,19.7s32.74,1,32.74-19.7C162.56,102.36,157.13,97.77,149.53,91.45Z"/><g class="cls-13"><path class="cls-14" d="M116.93,75.48h26.28s-1.82,3.86-13.39,3.86C129.82,79.34,119.12,79.46,116.93,75.48Z"/><ellipse class="cls-15" cx="129.82" cy="117.62" rx="14.8" ry="28.13"/><ellipse class="cls-9" cx="109.49" cy="89.38" rx="6.8" ry="2.41"/><ellipse class="cls-9" cx="103.88" cy="95.65" rx="6.8" ry="2.41"/><ellipse class="cls-9" cx="150.85" cy="89.38" rx="6.8" ry="2.41"/><ellipse class="cls-9" cx="156.46" cy="95.65" rx="6.8" ry="2.41"/></g><path class="cls-16" d="M125.05,58.69s-7.9-6.88-4.22,3.74a2.71,2.71,0,0,0,3-.82S125.78,60.48,125.05,58.69Z"/><path class="cls-17" d="M124.09,59s-4.89-4.26-2.61,2.32a1.66,1.66,0,0,0,1.83-.51S124.54,60.12,124.09,59Z"/><path class="cls-16" d="M134.15,58.69s7.89-6.88,4.21,3.74a2.69,2.69,0,0,1-3-.82S133.41,60.48,134.15,58.69Z"/><path class="cls-17" d="M135.37,59s4.89-4.26,2.61,2.32a1.66,1.66,0,0,1-1.83-.51S134.91,60.12,135.37,59Z"/><path class="cls-5" d="M144.05,70c-1.72-1-3.91-5-4.83-6.72-.11-.24-.23-.47-.35-.7l-.09-.17h0a10.35,10.35,0,0,0-17.92,0h0l0,0c-.18.32-.35.65-.5,1-1,1.84-3.08,5.6-4.74,6.56a1.19,1.19,0,0,0,1.13.75s-1.79,6.88,12.34,7.22v0q.38,0,.75,0c.26,0,.51,0,.77,0v0c14.13-.34,12.34-7.22,12.34-7.22A1.21,1.21,0,0,0,144.05,70Z"/><g class="cls-18"><circle class="cls-15" cx="129.82" cy="77.28" r="7.12"/><ellipse class="cls-9" cx="118.73" cy="66.67" rx="2.96" ry="0.97"/><ellipse class="cls-9" cx="120.37" cy="63.54" rx="2.96" ry="0.97"/><ellipse class="cls-9" cx="140.69" cy="66.67" rx="2.96" ry="0.97"/><ellipse class="cls-9" cx="139.06" cy="63.54" rx="2.96" ry="0.97"/><ellipse class="cls-9" cx="127.87" cy="58.73" rx="0.93" ry="3.27"/><ellipse class="cls-9" cx="131.56" cy="58.73" rx="0.93" ry="3.27"/></g><circle class="cls-7" cx="124.19" cy="68.2" r="2.5"/><circle class="cls-19" cx="124.19" cy="68.2" r="1.73"/><circle class="cls-19" cx="124.19" cy="68.2" r="1.14"/><circle class="cls-7" cx="123.48" cy="67.06" r="0.57"/><circle class="cls-7" cx="135.27" cy="68.2" r="2.5"/><circle class="cls-19" cx="135.27" cy="68.2" r="1.73"/><circle class="cls-19" cx="135.27" cy="68.2" r="1.14"/><circle class="cls-7" cx="134.56" cy="67.06" r="0.57"/><path class="cls-5" d="M125.92,70.7s-1.14-1.08-5.19-.42c0,0,1.59.8,1.73.8s3.21,0,3.27,0A1.67,1.67,0,0,0,125.92,70.7Z"/><path class="cls-5" d="M134,70.7s1.14-1.08,5.19-.42c0,0-1.59.8-1.73.8s-3.21,0-3.27,0A2.22,2.22,0,0,1,134,70.7Z"/><path class="cls-17" d="M122.91,64.16a1.53,1.53,0,0,1,1.49-.75,1.93,1.93,0,0,1,.82.26,1.51,1.51,0,0,1,.58.62c-.59,0-1-.09-1.46-.12A11.11,11.11,0,0,0,122.91,64.16Z"/><path class="cls-17" d="M136.58,64.16a11.11,11.11,0,0,0-1.43,0c-.44,0-.87.1-1.46.12a1.58,1.58,0,0,1,.58-.62,2,2,0,0,1,.82-.26A1.53,1.53,0,0,1,136.58,64.16Z"/><path class="cls-20" d="M129.81,72.34v3.07a2.15,2.15,0,0,1-1.84.66c-1.4,0-1.63-.79-1.63-.79"/><path class="cls-20" d="M129.81,72.34v3.07s.43.66,1.83.66,1.63-.79,1.63-.79"/><ellipse class="cls-21" cx="129.82" cy="71.61" rx="1.74" ry="0.91"/><path class="cls-5" d="M118.64,77.14s-.76,1.46-1.72,1.43a1,1,0,0,0,1.29.79s-1.31,1.28-2.59.84c0,0,.32,2,2.17,1.84a20.61,20.61,0,0,0,2.47-.92c0-.12-.61-1.93-.61-1.93Z"/><path class="cls-5" d="M141,77.32s.75,1.46,1.72,1.43a1,1,0,0,1-1.3.78s1.31,1.28,2.59.84c0,0-.31,2-2.17,1.84a20.61,20.61,0,0,1-2.47-.92c0-.12.62-1.93.62-1.93Z"/><path class="cls-2" d="M110.57,118.17c-1.23,7.23,2.47,14.22,2.47,14.22a4.1,4.1,0,0,0-1.24,1.16c-1.66,2.36,1.2,2.16,1.2,2.16a3,3,0,0,0,2.92,0c3.32-.46,1.07-3.31,1.07-3.31s.71-10.53-2-15.09a2.68,2.68,0,0,0-2.71-1.39A2.59,2.59,0,0,0,110.57,118.17Z"/><g class="cls-22"><path class="cls-11" d="M108.59,133.62s7-2.67,12-.48c0,0,1.1,7.05-1,7.19s-8.14.58-10.43.19-3-1.14-2.76-2S108.59,133.62,108.59,133.62Z"/></g><path class="cls-2" d="M150.26,118.17c1.23,7.23-2.47,14.22-2.47,14.22a4.1,4.1,0,0,1,1.24,1.16c1.67,2.36-1.2,2.16-1.2,2.16a3,3,0,0,1-2.92,0c-3.32-.46-1.06-3.31-1.06-3.31s-.72-10.53,2-15.09a2.69,2.69,0,0,1,2.72-1.39A2.58,2.58,0,0,1,150.26,118.17Z"/><g class="cls-23"><path class="cls-11" d="M152.24,133.62s-7-2.67-12-.48c0,0-1.1,7.05.95,7.19s8.14.58,10.43.19,3-1.14,2.76-2S152.24,133.62,152.24,133.62Z"/></g><path class="cls-5" d="M108,106.66l-2.49,3.3a1.21,1.21,0,0,0-.31.68,1.07,1.07,0,0,0,.51.77,5.55,5.55,0,0,0,5.29.76,2.3,2.3,0,0,0,1.24-1,2.69,2.69,0,0,0,.12-1.57,18.21,18.21,0,0,0-.59-2.61C111,104.59,109.34,104.85,108,106.66Z"/><path class="cls-24" d="M157.69,132.07s4.64.75,6.73,1.26a24.24,24.24,0,0,1,5.93,2.45c.41.39,0,1.75-3.38,1.16a36.61,36.61,0,0,1-4.13-.86s.12.45,1.42.83,2.22,2.93-7.13.18C157.13,137.09,155.66,133.91,157.69,132.07Z"/><path class="cls-25" d="M121.24,123.72s9.14,2.47,15.19,7.18c0,0,1.46,3.63-.67,6.6,0,0-9.28,1.21-17.28-3.49S115.39,122.72,121.24,123.72Z"/><path class="cls-26" d="M99.67,138.23s5.88-7.45,1-12.89-18.73-8-23.6-8-5.56,8-3,10.07S83.8,136.78,99.67,138.23Z"/><path class="cls-27" d="M77,108.45s-3.38-6.82-3.44-9,1-7.53-2.74-7.08S59.54,95,55.3,95.79s-2.39,6.6,2.22,7.11,6.77-4.82,9.4,6.56l6.62,3.3Z"/><path class="cls-26" d="M81.85,119.5s-4.56-15.44-8.1-19.28c0,0-6.31-1.07-12,4.93,0,0,1.3,12.63,13.09,24.57C74.86,129.72,83.19,128.81,81.85,119.5Z"/><path class="cls-6" d="M73.73,100.48s-.88-1.27-5.36.6c0,0-3.38,1.23-3.61,2.65a4.86,4.86,0,0,0-4.1-1.11c-2.24.59-7.73,1.21-8.15-4.31,0,0-.23-2.5,2.93-3.12s12-3,13.48-3.28,4.48-.55,4.72,2S73.53,99.54,73.73,100.48Z"/><g class="cls-28"><path class="cls-29" d="M74.31,92.81s-2.79-.53-8.11.83S55.15,96.27,54,96.91a2.54,2.54,0,0,0-1.37,2.55L52,99l0-3.69,5.68-2.81L73,90.23s1.3,1.44,1.18,1.52S74.31,92.81,74.31,92.81Z"/></g><path class="cls-30" d="M64.76,103.73s.59-.07,2-1.94S64.61,100,64.61,100l-1.93,2.66Z"/><path class="cls-30" d="M63.37,100.12A13,13,0,0,1,62,102.48l-1.07.09a20.88,20.88,0,0,0,1-2.33Z"/><path class="cls-31" d="M100.11,131.57s1.16-9.43-5.81-11.55S74.15,122.93,70,125.43s-.6,9.71,2.63,10.18S85.79,138.57,100.11,131.57Z"/><path class="cls-32" d="M63.78,113s-6.54-3.88-7.77-5.67-3.22-6.87-6.15-4.45-8.08,8.28-11.18,11.28,1.59,6.85,5.73,4.77,3.06-7.72,11.46.4l7.34-.82Z"/><path class="cls-31" d="M76.26,122.16s-10.73-12-15.57-14c0,0-6.16,1.72-8.72,9.58,0,0,6.56,10.86,22.33,16.62C74.3,134.39,81.44,130,76.26,122.16Z"/><path class="cls-6" d="M56.71,108s-1.43-.59-4.18,3.41c0,0-2.17,2.87-1.6,4.19a4.82,4.82,0,0,0-4,1.3c-1.57,1.71-5.84,5.21-9.2.8,0,0-1.54-2,.77-4.21s8.4-9,9.54-10.07,3.46-2.9,5.06-.86S56,107.36,56.71,108Z"/><g class="cls-33"><path class="cls-29" d="M53,101.28s-2.63,1.07-6.35,5.11-7.85,8.21-8.44,9.35a2.54,2.54,0,0,0,.24,2.89l-.8,0-2-3.08,3.25-5.45L50.55,99.81a8.7,8.7,0,0,1,1.82.63C52.31,100.57,53,101.28,53,101.28Z"/></g><path class="cls-30" d="M50.93,115.64s.47-.38.65-2.72-2.82-.38-2.82-.38l-.18,3.29Z"/><path class="cls-30" d="M47.81,113.36a13.47,13.47,0,0,1,.09,2.76l-.84.66a20.87,20.87,0,0,0-.42-2.52Z"/><path class="cls-25" d="M137.14,130.55a98.47,98.47,0,0,1,20.08,1s1.14,4.43-.14,6.25A71,71,0,0,1,137.57,139s-4.32-.66-3.89-3.7,1.3-4.64,3.46-4.71"/><path class="cls-34" d="M154,129.82l1.13,9.68,2.52-.29s2.13-6.86,1.5-8.16S154,129.82,154,129.82Z"/><path class="cls-35" d="M130.57,133.9c-.06.19.36,4.56-7,5.32s-16.84,1.61-20.59,1.45-11.87-1.67-12.28-3,4.06-1,4.06-1l26.07-7.3Z"/><path class="cls-36" d="M133.51,133.43a16,16,0,0,0-1.14,4l-4,.25,2-5.8Z"/><path class="cls-36" d="M135.19,123.48s.86.88,0,3.88l-2.66-.71S134.29,123.69,135.19,123.48Z"/><path class="cls-37" d="M140.83,126.24s-7.38.22-8.78-2.88c0,0-6.09,2.26-2.94,12.35,0,0,2.26-1.51,9.34-1.59S145.68,126.44,140.83,126.24Z"/><path class="cls-38" d="M132.86,122.88a6.72,6.72,0,0,0-5-5.35c-4.53-1.31-25-8.56-30.42-6s-4.33,6.18-4.42,10.87-2.75,15.94,3.87,17,23.54-.29,31.55-3.17C128.45,136.31,134,130.78,132.86,122.88Z"/><polygon class="cls-38" points="131.84 135.74 128.45 136.31 128.51 134.07 131.84 135.74"/><path class="cls-39" d="M135.19,123.48s-3.47,6.63-3.35,12.26l-4-1.26s2.71-11.74,4.42-13.4Z"/><circle class="cls-40" cx="123.14" cy="136.62" r="0.61"/><circle class="cls-40" cx="115.41" cy="137.94" r="0.61"/><circle class="cls-40" cx="106.75" cy="138.47" r="0.61"/><circle class="cls-40" cx="97.77" cy="138" r="0.61"/><path class="cls-38" d="M94.2,138.08s-6.75-3.13-8.15-7.85c-.72-2.41-.31-15.86,3.52-17.65s5.33-4.36,15.89-1.14c0,0-10.67,12.62-10.69,13Z"/><path class="cls-24" d="M154.26,136.65a65.55,65.55,0,0,1,11.86,1.9s3.36.73,3.58,1.83-6.07,1.1-6.65,1-8.57.44-9.3-.44S150.83,138.11,154.26,136.65Z"/><path class="cls-32" d="M137.9,132.22c-2.26-3.38-3.46-8.12-2.16-12,0,0,.08-.17.25-.47a3.82,3.82,0,0,1-1.37-1.57c-1-2.14.1-3.88,1.82-5.07a4.18,4.18,0,0,0,1.19-1.1,9.84,9.84,0,0,0,.76-1.58,13.69,13.69,0,0,1,2.1-3.58,11.15,11.15,0,0,1,8.07-3.74,15.06,15.06,0,0,1,8.63,2.59c3.94,2.58,7.52,5.48,8.12,10.15a17.83,17.83,0,0,1-1.58,8.33c-1.12,2.07-3.32,3.56-4.95,5.21-1.49,1.49-3.11,4.11-2.39,6.09,0,0,.62,1.77-.38,2.53s-3.47-1.69-3.47-1.69-.73,1.75-2.21.8c0,0-4.13,6.32-12.31-4.76"/><path class="cls-41" d="M137.89,110.6a3,3,0,0,0-2.81.06,1.9,1.9,0,0,0-.63,2.55,2.1,2.1,0,0,0-1,3.83,1.21,1.21,0,0,0,.29,1.51,3.52,3.52,0,0,0,1.51.68,2.49,2.49,0,0,0,1.21,1.32A1.19,1.19,0,0,0,138,120a1.06,1.06,0,0,0,1.63-.14,2.84,2.84,0,0,0,.4-1.82,2.47,2.47,0,0,0,1.44-3.22,7.83,7.83,0,0,1-.72-1.45,5,5,0,0,0-.13-.77,1.06,1.06,0,0,0-.9-.68c-.22,0-.5,0-.6-.17a.78.78,0,0,1,0-.31c0-.44-.53-.68-.94-.83"/><path class="cls-42" d="M158.33,123a8.68,8.68,0,0,1-5.39-2.48"/><circle class="cls-7" cx="152.17" cy="126.14" r="3.41" transform="translate(-45.42 131.28) rotate(-41.15)"/><g class="cls-43"><circle class="cls-44" cx="153.8" cy="126.43" r="2.35"/><circle cx="153.8" cy="126.43" r="1.44"/><circle class="cls-7" cx="153.77" cy="125.3" r="0.83"/></g><path class="cls-45" d="M149.55,132.86a7.92,7.92,0,0,0-8.18-.31"/><path class="cls-41" d="M153.43,115.52a3,3,0,0,1-.87,2.56,1.62,1.62,0,0,1-2.42-.33c.32.17.26.66,0,.94a1.85,1.85,0,0,1-1.41.65,4,4,0,0,1-1.56-.32c-.38-.13-.83-.48-.64-.83.24.39-.21.85-.65,1a2.93,2.93,0,0,1-3.91-2.27,1.86,1.86,0,0,1-2.33-2.05,1.56,1.56,0,0,1-1.59.09,1.81,1.81,0,0,1-1.09-1.06,1,1,0,0,1,.57-1.29.49.49,0,0,1-.63-.3,1,1,0,0,1,.05-.77,2.89,2.89,0,0,1,4-1.57,1.28,1.28,0,0,1,.73-1.38,2.65,2.65,0,0,1,1.65-.17,6.23,6.23,0,0,1,1.79.52c.48.21,1,.6.94,1.13a4.36,4.36,0,0,1,2.26-.46,2.23,2.23,0,0,1,1.84,1.25,8.86,8.86,0,0,1,.29,1.26.42.42,0,0,0,.11.22.44.44,0,0,0,.34.05l1.36-.2c.51-.08,1.14-.09,1.41.35s.08.77.27,1.09a1.39,1.39,0,0,0,.65.45,1.08,1.08,0,0,1,.6.48c.11.25,0,.61-.3.6"/><path class="cls-3" d="M202,123.55s-11.51-10.46-17.51-10.23,2.1,7.08,2.1,7.08Z"/><circle class="cls-46" cx="183.91" cy="115.9" r="0.48"/><path class="cls-3" d="M219.29,124.52s-12.42,1.38-33-4.85a7,7,0,0,0-1.68,3.54c-.47,2.39-2.87,12.47,6,15.61s25.41,1.77,28.27-7.54C218.84,131.28,220.88,126.88,219.29,124.52Z"/><g class="cls-47"><path class="cls-3" d="M218.51,127.56s-24.22,8-31.52-4.41l16.2,1.75Z"/><path class="cls-48" d="M223.1,126.94s-16.73,4.11-41.39-5.38l4.23-4.74,38.9,5.81-1.49,3.85"/></g><path class="cls-49" d="M148.21,127.56a3.73,3.73,0,0,0,3.53,2.67"/><circle class="cls-32" cx="143.51" cy="119.42" r="4.03" transform="translate(-43.12 124.27) rotate(-41.25)"/><path class="cls-50" d="M145.54,117.34a3,3,0,0,0-4.17.18s-2.32,2.06.36,4.59"/><path class="cls-4" d="M146.09,134.2s-3.54,4,2.74,3.45C148.83,137.65,149.16,136,146.09,134.2Z"/><g class="cls-51"><path class="cls-7" d="M145.79,133.72a3.89,3.89,0,0,0,1.1,2.95,3.2,3.2,0,0,0,2.79,1.18l-1.15-3Z"/><path class="cls-52" d="M145,135.08s1.27.61,1,3.09L144,136.7Z"/></g><path class="cls-41" d="M153.1,135.68a3.31,3.31,0,0,0-3.79-2.17c-3.1.33-2.86-3.2-2.86-3.2s-2.9,3.44,1.76,7a6.66,6.66,0,0,0,2.6,1.08C153.25,138.76,153.1,135.68,153.1,135.68Z"/><path class="cls-41" d="M158.17,115.47a5.65,5.65,0,0,0,5.92,2.94,2.31,2.31,0,0,0,.43,3.23,2.8,2.8,0,0,0,3.38-.2,3.55,3.55,0,0,0,1.07-3.32,6.7,6.7,0,0,0,5.45-1.07c1.46-1.24,1.82-3.82.31-5a4.44,4.44,0,0,1-.91-.75,2.81,2.81,0,0,1-.33-1.26,6.25,6.25,0,0,0-3.4-4.65,6,6,0,0,1-1.36-.73,7.12,7.12,0,0,1-1.1-1.48,4.85,4.85,0,0,0-4.95-1.82,7,7,0,0,0-4-3.25c-2.09-.63-4.34-.24-6.48-.63-.86-.15-1.7-.43-2.57-.5A7.08,7.08,0,0,0,144,99.49a11.23,11.23,0,0,1-1.26,1.32c-.84.66-2,.92-2.77,1.61a3.36,3.36,0,0,0-.86,3.88c-1.63.35-2.1,2.74-1.07,4.07a5.08,5.08,0,0,0,4.55,1.55,4.39,4.39,0,0,0,5.43.54c-.41.29,1.62,1.69,1.84,1.77.9.34,1.76,0,2.63.19C154.58,115,155.81,116.75,158.17,115.47Z"/><path class="cls-38" d="M129,120.5a102.34,102.34,0,0,1,10.13,14.59s-6.63,1.84-7.21,4.3c0,0-9.46-9.58-10.66-12s-1.73-5.45,2.38-7.67S129,120.5,129,120.5Z"/><path class="cls-38" d="M134.89,132.26a98.36,98.36,0,0,1,19.84,3.3s.62,4.53-.86,6.19a70.89,70.89,0,0,1-19.52-1.08s-4.21-1.16-3.43-4.13,1.82-4.46,4-4.28"/><path class="cls-53" d="M151.77,133.5v9.74h2.53s2.92-6.56,2.44-7.93S151.77,133.5,151.77,133.5Z"/><path class="cls-15" d="M105.66,107.42a3.91,3.91,0,0,0-2.44,1.31,1.44,1.44,0,0,0-.41.87,1.18,1.18,0,0,0,.63,1,3,3,0,0,0,1.19.31,2.39,2.39,0,0,0,2.92.86,1.39,1.39,0,0,0,2,.15,1.83,1.83,0,0,0,.3-2.12A4.41,4.41,0,0,0,105.66,107.42Z"/><path class="cls-54" d="M102.42,109.15a1.49,1.49,0,0,0,0,1.08,1.72,1.72,0,0,0,1.6,1.27,1.89,1.89,0,0,0,1.65,1c.67.06,1.35,0,2,.05.43.06.84.2,1.28.22a1.19,1.19,0,0,0,1.11-.52,1,1,0,0,0-.39-1.2,1.21,1.21,0,0,0-1.3.12,1.55,1.55,0,0,0-1.65-.69c-.34.08-.73.27-1,0a2,2,0,0,1-.23-.34c-.32-.43-1-.35-1.5-.22.28-.07-.38-1.12-.54-1.2A.78.78,0,0,0,102.42,109.15Z"/><ellipse class="cls-54" cx="109.56" cy="110.35" rx="0.41" ry="0.44"/></g></svg>