<svg id="Layer_1" data-name="Layer 1" xmlns="http://www.w3.org/2000/svg" xmlns:xlink="http://www.w3.org/1999/xlink" viewBox="0 0 260 168"><defs><style>.cls-1{fill:#ffbd29;}.cls-2{fill:#ffab24;}.cls-3{fill:#fff;}.cls-4{fill:#f9d89d;}.cls-5{fill:#ffa92c;}.cls-6{clip-path:url(#clip-path);}.cls-7{fill:#ff7e27;}.cls-8{clip-path:url(#clip-path-2);}.cls-9{fill:#ffe7b6;}.cls-10{fill:#3acccc;}.cls-11{clip-path:url(#clip-path-3);}.cls-12{fill:#7f4a03;}.cls-13{clip-path:url(#clip-path-4);}.cls-14{fill:#ff8098;}.cls-15{clip-path:url(#clip-path-5);}.cls-16{clip-path:url(#clip-path-6);}.cls-17{fill:#594025;}.cls-18,.cls-19{fill:none;stroke-linecap:round;}.cls-18{stroke:#7f4a03;stroke-miterlimit:10;stroke-width:2.67px;}.cls-19{stroke:#ffc866;stroke-linejoin:round;stroke-width:0.62px;}</style><clipPath id="clip-path"><path class="cls-1" d="M118.91,82.86c-45.82,43.81-66.47,5.56-66.47,5.56C43,75.25,33.92,82.85,33.92,82.85,25.22,88.71,21,77.37,21,77.37a12.41,12.41,0,0,1,2.51-15.82C49.16,40.92,66.41,78.7,66.41,78.7c20.24,28.62,49.45-1.86,49.45-1.86a2.71,2.71,0,0,1,3.74,1C121.15,80.24,118.91,82.86,118.91,82.86Z"/></clipPath><clipPath id="clip-path-2"><path class="cls-1" d="M166.77,80.43s-2.41-.57-6.7-1.83c-2.25-1.38-12.59-7.57-12-4.4-2.8-1.41-5.51-2.46-5.81-1.42-14-4.79-29-6.71-36.35,6.59C98.41,93.07,102.1,112,131.07,115s41.86-.26,48.87-12.1C189.39,87,190.94,81.84,166.77,80.43Z"/></clipPath><clipPath id="clip-path-3"><path class="cls-2" d="M199.17,35.8s6.81-17.74,1.75-20.6a1,1,0,0,0-.21-.1c-.89-.34-6.86-1.78-18,13.58a1.33,1.33,0,0,0-.22,1c.36,1.49,1.9,5.45,8.36,7.06C190.88,36.78,198.29,39.15,199.17,35.8Z"/></clipPath><clipPath id="clip-path-4"><path class="cls-1" d="M214.2,87.15c-11,4.66-30.79,1.13-32.57.8a1,1,0,0,0-.25,0A52.56,52.56,0,0,1,159,82.48c-14-6.73-18.46-16.14-19.74-20a1.28,1.28,0,0,1,1.25-1.68c9.25.17,10.53-3.66,10.68-4.3a.77.77,0,0,0,0-.15c3.43-39,30-38.34,30-38.34S220.26,13.16,216,57.77a1.06,1.06,0,0,0,.06.53c.37,1,2.12,4.57,9,6.53a1.25,1.25,0,0,1,.76.59c.49.88,1,3.13-2,7.74,0,0-3.7,6.57-5.24,8.32,0,0-1.31,1.76-6.91,1.65,0,0,5.82.11,5.05,1.54A8,8,0,0,1,214.2,87.15Z"/></clipPath><clipPath id="clip-path-5"><path class="cls-2" d="M186.37,34.64s6.58-17.15,2-20.45a1.26,1.26,0,0,0-.81-.19c-1.89.17-9.36,1.75-19.6,15.68a1.28,1.28,0,0,0,.27,1.79,28.62,28.62,0,0,0,9.86,4.16S185.49,38,186.37,34.64Z"/></clipPath><clipPath id="clip-path-6"><circle class="cls-3" cx="200.66" cy="52.04" r="7.09" transform="translate(43.56 187.29) rotate(-55.27)"/></clipPath></defs><path class="cls-4" d="M90.92,114.18s1.64,7.12-1.48,8c0,0-4.5,3-5.2,0,0,0-3.1,0-3.94-4s-5.26-9.4,4.49-13.17C84.79,105.06,91.34,103.68,90.92,114.18Z"/><path class="cls-5" d="M115.13,98.46s-20.66,8.59-24.21,15.72c0,0-7.57-.37-7.11-6.69s17.61-13.86,25.42-16.43S120.16,95,115.13,98.46Z"/><path class="cls-1" d="M118.91,82.86c-45.82,43.81-66.47,5.56-66.47,5.56C43,75.25,33.92,82.85,33.92,82.85,25.22,88.71,21,77.37,21,77.37a12.41,12.41,0,0,1,2.51-15.82C49.16,40.92,66.41,78.7,66.41,78.7c20.24,28.62,49.45-1.86,49.45-1.86a2.71,2.71,0,0,1,3.74,1C121.15,80.24,118.91,82.86,118.91,82.86Z"/><g class="cls-6"><ellipse class="cls-7" cx="42.46" cy="56.1" rx="14.31" ry="4.78" transform="translate(-25.04 75.91) rotate(-69.23)"/><ellipse class="cls-7" cx="57.09" cy="64.22" rx="14.31" ry="4.78" transform="translate(-27.93 76.65) rotate(-56.69)"/></g><path class="cls-4" d="M177,129.78s6.95,2.26,6.08,5.38c0,0,.26,5.42-2.67,4.48,0,0-1.59,2.66-5.42,1.33s-10.77-.35-9-10.64C166.06,130.33,168.25,124,177,129.78Z"/><path class="cls-5" d="M176,100.93s-3.29,22.13,1,28.85c0,0-4.23,6.29-9.4,2.64s-2.79-22.23-1-30.25S175.68,94.84,176,100.93Z"/><path class="cls-1" d="M166.77,80.43s-2.41-.57-6.7-1.83c-2.25-1.38-12.59-7.57-12-4.4-2.8-1.41-5.51-2.46-5.81-1.42-14-4.79-29-6.71-36.35,6.59C98.41,93.07,102.1,112,131.07,115s41.86-.26,48.87-12.1C189.39,87,190.94,81.84,166.77,80.43Z"/><g class="cls-8"><ellipse class="cls-7" cx="144.43" cy="74.45" rx="5.3" ry="11.72" transform="translate(-16.83 94.45) rotate(-34.34)"/><ellipse class="cls-7" cx="130" cy="73.81" rx="5.3" ry="11.72" transform="translate(-19.47 76.67) rotate(-30.68)"/><path class="cls-9" d="M184.23,103.33s.7-6.75-10.17-1.93-12.82,9.79-30.9,7.14-27.51-7.28-30.75-5-7.3,5.51,3.89,13.22,53.55,8.35,53.55,8.35,14.37-3.86,14.59-4.67S184.23,103.33,184.23,103.33Z"/></g><path class="cls-10" d="M160.33,77.67s11.35,12.38,25,16.42l3-8.73S158.67,64.77,160.33,77.67Z"/><path class="cls-2" d="M199.17,35.8s6.81-17.74,1.75-20.6a1,1,0,0,0-.21-.1c-.89-.34-6.86-1.78-18,13.58a1.33,1.33,0,0,0-.22,1c.36,1.49,1.9,5.45,8.36,7.06C190.88,36.78,198.29,39.15,199.17,35.8Z"/><g class="cls-11"><path class="cls-12" d="M206.4,18.88S198.24,18,194.18,38c0,0,9.68,5.74,10.78,2.87s4.68-18.52,4.68-18.52Z"/></g><path class="cls-1" d="M214.2,87.15c-11,4.66-30.79,1.13-32.57.8a1,1,0,0,0-.25,0A52.56,52.56,0,0,1,159,82.48c-14-6.73-18.46-16.14-19.74-20a1.28,1.28,0,0,1,1.25-1.68c9.25.17,10.53-3.66,10.68-4.3a.77.77,0,0,0,0-.15c3.43-39,30-38.34,30-38.34S220.26,13.16,216,57.77a1.06,1.06,0,0,0,.06.53c.37,1,2.12,4.57,9,6.53a1.25,1.25,0,0,1,.76.59c.49.88,1,3.13-2,7.74,0,0-3.7,6.57-5.24,8.32,0,0-1.31,1.76-6.91,1.65,0,0,5.82.11,5.05,1.54A8,8,0,0,1,214.2,87.15Z"/><g class="cls-13"><ellipse class="cls-9" cx="214.5" cy="85.42" rx="27.44" ry="24.94" transform="translate(112.22 292.42) rotate(-85.42)"/></g><ellipse class="cls-14" cx="221.9" cy="64.35" rx="2.51" ry="4.29" transform="translate(140.04 280.4) rotate(-85.42)"/><ellipse class="cls-7" cx="176.72" cy="43.96" rx="4.6" ry="12.28" transform="translate(118.79 216.61) rotate(-85.42)"/><ellipse class="cls-7" cx="178.55" cy="28.88" rx="4.6" ry="12.9" transform="matrix(0.08, -1, 1, 0.08, 135.5, 204.55)"/><path class="cls-2" d="M186.37,34.64s6.58-17.15,2-20.45a1.26,1.26,0,0,0-.81-.19c-1.89.17-9.36,1.75-19.6,15.68a1.28,1.28,0,0,0,.27,1.79,28.62,28.62,0,0,0,9.86,4.16S185.49,38,186.37,34.64Z"/><g class="cls-15"><path class="cls-12" d="M193.6,17.73s-8.16-.85-12.22,19.13c0,0,9.68,5.73,10.78,2.86s4.68-18.52,4.68-18.52Z"/></g><circle class="cls-3" cx="200.66" cy="52.04" r="7.09" transform="translate(43.56 187.29) rotate(-55.27)"/><g class="cls-16"><circle class="cls-17" cx="203.32" cy="54.52" r="5.29"/><circle class="cls-17" cx="203.32" cy="54.52" r="3.9"/><circle class="cls-3" cx="201.05" cy="50.61" r="1.57"/></g><path class="cls-18" d="M208.6,41.16s-8.23-8.25-14,.39"/><path class="cls-19" d="M189.87,66.48s14-3.67,22.22,2.24"/><path class="cls-19" d="M189.32,71.43s13.53-5.26,22.34-.33"/><path class="cls-19" d="M188.49,75.5s13.26-5.91,22.3-1.41"/><path class="cls-9" d="M198.26,114.22s6.24-3.8,8-1.11c0,0,4.29,3.32,1.67,4.93,0,0,1,2.94-2.52,5s-7.27,8-13.91-.11C191.54,122.91,188.16,117.13,198.26,114.22Z"/><path class="cls-1" d="M175.71,96.2s14.66,16.89,22.55,18c0,0,2,7.3-4.11,8.86s-18.7-12.35-23.6-19S170.85,92.51,175.71,96.2Z"/><path class="cls-9" d="M115.3,128.15s6.39,3.54,4.94,6.44c0,0-.76,5.37-3.46,3.89,0,0-2.06,2.31-5.57.28s-10.51-2.38-6.79-12.15C104.42,126.61,107.77,120.81,115.3,128.15Z"/><path class="cls-1" d="M119.79,99.64s-7.42,21.1-4.49,28.51c0,0-5.34,5.38-9.74.82s1.47-22.36,4.79-29.89S120.59,93.59,119.79,99.64Z"/></svg>