<svg xmlns="http://www.w3.org/2000/svg" xmlns:xlink="http://www.w3.org/1999/xlink" viewBox="0 0 260 168"><defs><style>.cls-1{fill:#ffab14;}.cls-2{fill:#ffbd29;}.cls-3{fill:#ffab24;}.cls-4{clip-path:url(#clip-path);}.cls-5{fill:#ffda99;}.cls-6{clip-path:url(#clip-path-2);}.cls-7{fill:#ff7e27;}.cls-8{clip-path:url(#clip-path-3);}.cls-9{fill:#ffe7b6;}.cls-10{fill:#3acccc;}.cls-11{clip-path:url(#clip-path-4);}.cls-12{clip-path:url(#clip-path-5);}.cls-13{fill:#f48c37;}.cls-14{clip-path:url(#clip-path-6);}.cls-15{fill:#7f4a03;}.cls-16{clip-path:url(#clip-path-7);}.cls-17{fill:#ff8098;}.cls-18{clip-path:url(#clip-path-8);}.cls-19{fill:#fff;}.cls-20{fill:#594025;}</style><clipPath id="clip-path"><path class="cls-1" d="M135.34,122.4s9.51,13,9.5,19.81c0,0,3.83-2,5.1.08,0,0,3.66,3.64-6.16,6.89,0,0-4.72,2.2-3.63-3.67,0,0-11.59-12.14-10.06-20.37C130.09,125.14,130.86,119.47,135.34,122.4Z"/></clipPath><clipPath id="clip-path-2"><path class="cls-2" d="M76.73,136.67S52.15,143.06,50.81,122c0,0,3.09-24.8-16.57-22.33A7.48,7.48,0,0,0,28,107s-1.4,7.15,4.9,6.9c0,0,7-1,7.74,8.69,0,0-1.49,26.12,35.81,18.13"/></clipPath><clipPath id="clip-path-3"><path class="cls-2" d="M107.79,64.54S104.44,82.18,91,92.12,67.16,106.85,67.16,122.3s9.77,27,46.51,27,37.45-23.43,37.45-23.43,2.53-20.52-6.74-37.63c-8.28-15.29-15-23.68-15-23.68Z"/></clipPath><clipPath id="clip-path-4"><path class="cls-1" d="M136.43,124.48s-1.74,16-6.33,21c0,0,4.14,1.14,3.71,3.49,0,0,.25,5.16-9.2.94,0,0-5-1.55-.21-5.16,0,0-.37-16.77,6.31-21.82C130.71,123,135.1,119.29,136.43,124.48Z"/></clipPath><clipPath id="clip-path-5"><path class="cls-1" d="M99.32,147.55c-2-3.79-11.28-3.11-11.28-3.11,21.35-4.08,5.53-21.12,5.53-21.12S83.25,109.92,73.69,120s4.09,17,4.09,17,8.18,4.18,1.86,5.58c-5,1.13-2.39,5-2.39,5s2.31,1.94,11.93,3.18,9.95-.61,9.95-.61A2.62,2.62,0,0,0,99.32,147.55Z"/></clipPath><clipPath id="clip-path-6"><path class="cls-3" d="M125.33,43.32s1.6-7.7-.69-8.44c0,0-2.68-.9-6.5,6.85,0,0,.54,2.25,3.92,2.53C122.06,44.26,125.2,44.73,125.33,43.32Z"/></clipPath><clipPath id="clip-path-7"><path class="cls-2" d="M132.27,65C127.69,67.12,120,67,120,67a21.19,21.19,0,0,1-9.44-.71C102.71,64,101,58.81,101,58.81c4.79-.46,4.73-2.56,4.73-2.56-1.2-16,9.56-17.46,9.56-17.46s15.5-4.55,16.65,13.85c0,0,.73,1.81,4.28,2.17,0,0,1.57,4.39-1.08,7.9,0,0-1.71,2-5,0a2.7,2.7,0,0,0,1.34,1.86Z"/></clipPath><clipPath id="clip-path-8"><path class="cls-3" d="M120.77,45s1.59-7.7-.7-8.44c0,0-2.68-.9-6.5,6.85,0,0,.54,2.25,3.92,2.53C117.49,45.91,120.63,46.38,120.77,45Z"/></clipPath></defs><g id="Layer_4" data-name="Layer 4"><path class="cls-1" d="M135.34,122.4s9.51,13,9.5,19.81c0,0,3.83-2,5.1.08,0,0,3.66,3.64-6.16,6.89,0,0-4.72,2.2-3.63-3.67,0,0-11.59-12.14-10.06-20.37C130.09,125.14,130.86,119.47,135.34,122.4Z"/><g class="cls-4"><path class="cls-5" d="M149.32,138.76s-13.87,8.37-15.87,16c0,0-4.07,6.31,2.79,5.1s16.51-5.57,21.71-8,8.25-3.27,5.9-7.34S149.32,138.76,149.32,138.76Z"/></g><path class="cls-2" d="M76.73,136.67S52.15,143.06,50.81,122c0,0,3.09-24.8-16.57-22.33A7.48,7.48,0,0,0,28,107s-1.4,7.15,4.9,6.9c0,0,7-1,7.74,8.69,0,0-1.49,26.12,35.81,18.13"/><g class="cls-6"><ellipse class="cls-7" cx="45.68" cy="102.88" rx="8.61" ry="2.88" transform="translate(-53.28 49.24) rotate(-37.6)"/><ellipse class="cls-7" cx="50.61" cy="111.65" rx="8.61" ry="2.88" transform="translate(-42.52 31.93) rotate(-25.05)"/></g><path class="cls-2" d="M107.79,64.54S104.44,82.18,91,92.12,67.16,106.85,67.16,122.3s9.77,27,46.51,27,37.45-23.43,37.45-23.43,2.53-20.52-6.74-37.63c-8.28-15.29-15-23.68-15-23.68Z"/><g class="cls-8"><path class="cls-9" d="M146.48,90.63s-6.68-2.64-3.42,9.24,14.39,44.52-20.37,48.7c0,0-15.93.93-26.36.59s-8,4.08-8,4.08,51.68,30,57.14,24.67,15-13.15,16.17-20.6,1.29-15.19,1.32-25.11S146.48,90.63,146.48,90.63Z"/><path class="cls-10" d="M104.3,66.3s10.13,6.42,30.11.38l-1.31-4.83s-28.26-3.61-28.8-3.23S104.3,66.3,104.3,66.3Z"/></g><path class="cls-1" d="M136.43,124.48s-1.74,16-6.33,21c0,0,4.14,1.14,3.71,3.49,0,0,.25,5.16-9.2.94,0,0-5-1.55-.21-5.16,0,0-.37-16.77,6.31-21.82C130.71,123,135.1,119.29,136.43,124.48Z"/><g class="cls-11"><path class="cls-5" d="M135.73,146s-15.89-3.17-22.48,1.09c0,0-7.26,1.91-1.37,5.63s16,7,21.44,8.72,8.3,3.14,9.31-1.45S135.73,146,135.73,146Z"/></g><ellipse class="cls-7" cx="119.46" cy="91.61" rx="13.64" ry="3.27"/><ellipse class="cls-7" cx="117.94" cy="101.43" rx="13.64" ry="3.27"/><path class="cls-1" d="M99.32,147.55c-2-3.79-11.28-3.11-11.28-3.11,21.35-4.08,5.53-21.12,5.53-21.12S83.25,109.92,73.69,120s4.09,17,4.09,17,8.18,4.18,1.86,5.58c-5,1.13-2.39,5-2.39,5s2.31,1.94,11.93,3.18,9.95-.61,9.95-.61A2.62,2.62,0,0,0,99.32,147.55Z"/><g class="cls-12"><path class="cls-5" d="M73.51,141.92s16.56,4.44,30.87,1.85c0,0,2.82,13.45,2.17,13.61a69,69,0,0,1-20.44-1c-9.13-2.07-10-1.42-12.65-3.29s-3.82-2.91-3.31-3.86S73.51,141.92,73.51,141.92Z"/></g><path class="cls-13" d="M131.82,63a1.57,1.57,0,0,0-.13,1.77l-2.85-1.43,1-1.64Z"/><path class="cls-3" d="M125.33,43.32s1.6-7.7-.69-8.44c0,0-2.68-.9-6.5,6.85,0,0,.54,2.25,3.92,2.53C122.06,44.26,125.2,44.73,125.33,43.32Z"/><g class="cls-14"><path class="cls-15" d="M127.13,36s-3.34.2-3.66,8.52c0,0,4.28,1.68,4.53.45s.67-7.78.67-7.78Z"/></g><path class="cls-2" d="M132.27,65C127.69,67.12,120,67,120,67a21.19,21.19,0,0,1-9.44-.71C102.71,64,101,58.81,101,58.81c4.79-.46,4.73-2.56,4.73-2.56-1.2-16,9.56-17.46,9.56-17.46s15.5-4.55,16.65,13.85c0,0,.73,1.81,4.28,2.17,0,0,1.57,4.39-1.08,7.9,0,0-1.71,2-5,0a2.7,2.7,0,0,0,1.34,1.86Z"/><g class="cls-16"><ellipse class="cls-9" cx="133.14" cy="63.79" rx="10.19" ry="11.21" transform="translate(-4.78 11.13) rotate(-4.7)"/></g><ellipse class="cls-17" cx="133.92" cy="54.87" rx="2.57" ry="1.03" transform="translate(-4.05 11.16) rotate(-4.7)"/><ellipse class="cls-7" cx="119.01" cy="49.24" rx="6.55" ry="1.88" transform="translate(-3.64 9.92) rotate(-4.7)"/><ellipse class="cls-7" cx="118.57" cy="43.93" rx="6.55" ry="1.88" transform="translate(-3.2 9.87) rotate(-4.7)"/><path class="cls-3" d="M120.77,45s1.59-7.7-.7-8.44c0,0-2.68-.9-6.5,6.85,0,0,.54,2.25,3.92,2.53C117.49,45.91,120.63,46.38,120.77,45Z"/><g class="cls-18"><path class="cls-15" d="M122.57,37.67s-3.35.2-3.67,8.52c0,0,4.28,1.67,4.54.44s.66-7.77.66-7.77Z"/></g><path class="cls-15" d="M126.15,44.53a1.12,1.12,0,0,1,.3-1.06,1.34,1.34,0,0,1,1.2-.35,1.69,1.69,0,0,1,.95.56,1.74,1.74,0,0,1,.43.93,4.44,4.44,0,0,1-.92-.22c-.27-.07-.49-.16-.66-.18a1.23,1.23,0,0,0-.51,0A3,3,0,0,0,126.15,44.53Z"/><ellipse class="cls-19" cx="128.06" cy="49.8" rx="1.76" ry="3.57" transform="translate(-3.65 10.67) rotate(-4.7)"/><ellipse class="cls-20" cx="128.06" cy="49.8" rx="1.1" ry="2.24" transform="translate(-3.65 10.67) rotate(-4.7)"/><ellipse class="cls-20" cx="128.06" cy="49.8" rx="0.78" ry="1.58" transform="translate(-3.65 10.67) rotate(-4.7)"/><ellipse class="cls-19" cx="128.68" cy="48.23" rx="0.28" ry="0.72" transform="translate(-3.52 10.71) rotate(-4.7)"/><path class="cls-2" d="M106.86,68.11a7.45,7.45,0,0,1-4.56,2.39,2.15,2.15,0,0,0,2.47,1.23,6,6,0,0,1-4.2,1.68s.11,2.19,4.5,1.49l3.44-1.53a42.65,42.65,0,0,0-.13-5A8.25,8.25,0,0,1,106.86,68.11Z"/></g></svg>