<svg id="Layer_12" data-name="Layer 12" xmlns="http://www.w3.org/2000/svg" xmlns:xlink="http://www.w3.org/1999/xlink" viewBox="0 0 260 168"><defs><style>.cls-1{fill:#ffbd29;}.cls-2{fill:#ffab24;}.cls-3{fill:#fff;}.cls-4{fill:#f9d89d;}.cls-5{fill:#ffa92c;}.cls-6{clip-path:url(#clip-path);}.cls-7{fill:#ff7e27;}.cls-8{fill:#ffe7b6;}.cls-9{fill:#3acccc;}.cls-10{clip-path:url(#clip-path-2);}.cls-11{fill:#7f4a03;}.cls-12{clip-path:url(#clip-path-3);}.cls-13{fill:#ff8098;}.cls-14{clip-path:url(#clip-path-4);}.cls-15{clip-path:url(#clip-path-5);}.cls-16{fill:#594025;}.cls-17,.cls-18{fill:none;stroke-linecap:round;}.cls-17{stroke:#7f4a03;stroke-miterlimit:10;stroke-width:2.67px;}.cls-18{stroke:#ffc866;stroke-linejoin:round;stroke-width:0.62px;}</style><clipPath id="clip-path"><path class="cls-1" d="M31,93.29s-2.4-.56-6.69-1.82c-2.26-1.38-12.6-7.57-12-4.4-2.81-1.41-5.52-2.46-5.82-1.42-13.94-4.79-29-6.71-36.35,6.59-7.54,13.7-3.85,32.64,25.12,35.62s41.86-.26,48.88-12.1C53.64,99.82,55.19,94.71,31,93.29Z"/></clipPath><clipPath id="clip-path-2"><path class="cls-2" d="M66.12,50.67S74,33.35,69.06,30.2l-.21-.11c-.86-.38-6.74-2.17-18.72,12.52a1.26,1.26,0,0,0-.27,1c.27,1.51,1.58,5.56,7.93,7.54C57.79,51.17,65.05,54,66.12,50.67Z"/></clipPath><clipPath id="clip-path-3"><path class="cls-1" d="M78.16,102.8c-11.25,4-30.8-.65-32.56-1.08a1.09,1.09,0,0,0-.25,0,52.59,52.59,0,0,1-22-6.73C9.72,87.42,5.84,77.76,4.78,73.83a1.28,1.28,0,0,1,1.34-1.61c9.23.71,10.73-3,10.92-3.67l0-.15c5.67-38.69,32.15-36.54,32.15-36.54s39.26-2.57,32.39,41.71a1.24,1.24,0,0,0,0,.54c.31,1,1.86,4.68,8.6,7a1.28,1.28,0,0,1,.73.62c.43.92.78,3.19-2.43,7.62,0,0-4.08,6.34-5.72,8,0,0-1.41,1.67-7,1.24,0,0,5.81.45,5,1.83A7.93,7.93,0,0,1,78.16,102.8Z"/></clipPath><clipPath id="clip-path-4"><path class="cls-2" d="M53.41,48.77S61,32,56.58,28.47a1.17,1.17,0,0,0-.79-.23c-1.9.06-9.45,1.2-20.48,14.52a1.28,1.28,0,0,0,.16,1.8,28.65,28.65,0,0,0,9.61,4.71S52.34,52.07,53.41,48.77Z"/></clipPath><clipPath id="clip-path-5"><circle class="cls-3" cx="66.67" cy="66.97" r="7.09" transform="translate(-26.72 81.38) rotate(-53.9)"/></clipPath></defs><path class="cls-4" d="M21,136.45s3.38,6.47.58,8.09c0,0-3.6,4.06-5,1.33,0,0-3,.79-4.8-2.84s-7.46-7.78,1-13.87C12.74,129.16,18.73,126.17,21,136.45Z"/><path class="cls-5" d="M40.43,115.14S22.6,128.65,21,136.45c0,0-7.42,1.53-8.57-4.7S26,113.92,32.86,109.46,44.43,110.54,40.43,115.14Z"/><path class="cls-1" d="M31,93.29s-2.4-.56-6.69-1.82c-2.26-1.38-12.6-7.57-12-4.4-2.81-1.41-5.52-2.46-5.82-1.42-13.94-4.79-29-6.71-36.35,6.59-7.54,13.7-3.85,32.64,25.12,35.62s41.86-.26,48.88-12.1C53.64,99.82,55.19,94.71,31,93.29Z"/><g class="cls-6"><ellipse class="cls-7" cx="8.68" cy="87.32" rx="5.3" ry="11.72" transform="translate(-47.74 20.12) rotate(-34.34)"/><ellipse class="cls-7" cx="-5.75" cy="86.68" rx="5.3" ry="11.72" transform="translate(-45.04 9.2) rotate(-30.68)"/><path class="cls-8" d="M48.49,116.2s.7-6.75-10.18-1.93-12.82,9.79-30.89,7.14-27.52-7.28-30.75-5-7.31,5.52,3.88,13.23S34.1,138,34.1,138s14.37-3.86,14.6-4.67S48.49,116.2,48.49,116.2Z"/></g><path class="cls-9" d="M24.58,90.53s11.36,12.39,25,16.43l3-8.73S22.92,77.64,24.58,90.53Z"/><path class="cls-2" d="M66.12,50.67S74,33.35,69.06,30.2l-.21-.11c-.86-.38-6.74-2.17-18.72,12.52a1.26,1.26,0,0,0-.27,1c.27,1.51,1.58,5.56,7.93,7.54C57.79,51.17,65.05,54,66.12,50.67Z"/><g class="cls-10"><path class="cls-11" d="M74.32,34.2S66.23,32.88,61,52.59c0,0,9.33,6.28,10.6,3.48s5.75-18.22,5.75-18.22Z"/></g><path class="cls-1" d="M78.16,102.8c-11.25,4-30.8-.65-32.56-1.08a1.09,1.09,0,0,0-.25,0,52.59,52.59,0,0,1-22-6.73C9.72,87.42,5.84,77.76,4.78,73.83a1.28,1.28,0,0,1,1.34-1.61c9.23.71,10.73-3,10.92-3.67l0-.15c5.67-38.69,32.15-36.54,32.15-36.54s39.26-2.57,32.39,41.71a1.24,1.24,0,0,0,0,.54c.31,1,1.86,4.68,8.6,7a1.28,1.28,0,0,1,.73.62c.43.92.78,3.19-2.43,7.62,0,0-4.08,6.34-5.72,8,0,0-1.41,1.67-7,1.24,0,0,5.81.45,5,1.83A7.93,7.93,0,0,1,78.16,102.8Z"/><g class="cls-12"><ellipse class="cls-8" cx="78.56" cy="101.1" rx="27.44" ry="24.94" transform="translate(-32.37 165.02) rotate(-82.11)"/></g><ellipse class="cls-13" cx="87.16" cy="80.49" rx="2.51" ry="4.29" transform="matrix(0.14, -0.99, 0.99, 0.14, -4.53, 155.77)"/><ellipse class="cls-7" cx="43.24" cy="57.51" rx="4.6" ry="12.28" transform="translate(-19.67 92.45) rotate(-82.11)"/><ellipse class="cls-7" cx="45.93" cy="42.57" rx="4.6" ry="12.9" transform="translate(-2.54 82.22) rotate(-82.11)"/><path class="cls-2" d="M53.41,48.77S61,32,56.58,28.47a1.17,1.17,0,0,0-.79-.23c-1.9.06-9.45,1.2-20.48,14.52a1.28,1.28,0,0,0,.16,1.8,28.65,28.65,0,0,0,9.61,4.71S52.34,52.07,53.41,48.77Z"/><g class="cls-14"><path class="cls-11" d="M61.61,32.3S53.51,31,48.3,50.69c0,0,9.33,6.29,10.6,3.48S64.64,36,64.64,36Z"/></g><circle class="cls-3" cx="66.67" cy="66.97" r="7.09" transform="translate(-26.72 81.38) rotate(-53.9)"/><g class="cls-15"><circle class="cls-16" cx="70.97" cy="68.12" r="5.29"/><circle class="cls-16" cx="70.97" cy="68.12" r="3.9"/><circle class="cls-3" cx="68.93" cy="64.09" r="1.57"/></g><path class="cls-17" d="M75.23,56.56s-7.63,5.26-14-.42"/><path class="cls-18" d="M55.06,80.75s14.24-2.84,22.06,3.53"/><path class="cls-18" d="M54.23,85.67s13.82-4.47,22.32,1"/><path class="cls-18" d="M53.17,89.68s13.58-5.13,22.34-.12"/><path class="cls-8" d="M57.25,134.46s6.91-2.36,8.09.65c0,0,3.47,4.17.56,5.18,0,0,.33,3.08-3.53,4.32s-8.82,6.21-13.56-3.11C48.81,141.5,46.76,135.13,57.25,134.46Z"/><path class="cls-1" d="M39.12,112s10.67,19.66,18.13,22.45c0,0,.4,7.57-5.93,7.77s-15.59-16.09-19-23.59S35.17,107.36,39.12,112Z"/><path class="cls-8" d="M-3.18,134.36s7.08-1.78,8,1.33c0,0,3.11,4.45.12,5.2,0,0,.07,3.1-3.88,4s-9.3,5.44-13.25-4.25C-12.19,140.65-13.7,134.13-3.18,134.36Z"/></svg>