<svg id="_5" data-name="5" xmlns="http://www.w3.org/2000/svg" xmlns:xlink="http://www.w3.org/1999/xlink" viewBox="0 0 260 168"><defs><style>.cls-1{fill:#ffbd29;}.cls-2{fill:#ffab24;}.cls-3{fill:#fff;}.cls-4{fill:#f9d89d;}.cls-5{fill:#ffa92c;}.cls-6{clip-path:url(#clip-path);}.cls-7{fill:#ff7e27;}.cls-8{clip-path:url(#clip-path-2);}.cls-9{fill:#ffe7b6;}.cls-10{fill:#3acccc;}.cls-11{clip-path:url(#clip-path-3);}.cls-12{fill:#7f4a03;}.cls-13{clip-path:url(#clip-path-4);}.cls-14{fill:#ff8098;}.cls-15{clip-path:url(#clip-path-5);}.cls-16{clip-path:url(#clip-path-6);}.cls-17{fill:#594025;}.cls-18,.cls-19{fill:none;stroke-linecap:round;}.cls-18{stroke:#7f4a03;stroke-miterlimit:10;stroke-width:0.6px;}.cls-19{stroke:#ffc866;stroke-linejoin:round;stroke-width:0.14px;}</style><clipPath id="clip-path"><path class="cls-1" d="M24.42,104.78c14,1.83,12.66-7.75,12.66-7.75,0-3.61,2.59-3.43,2.59-3.43,2.33-.1,1.6-2.69,1.6-2.69a2.76,2.76,0,0,0-2.53-2.51c-7.32-.32-5.45,8.73-5.45,8.73.14,7.8-9.11,6.17-9.11,6.17a.61.61,0,0,0-.54.68C23.67,104.61,24.42,104.78,24.42,104.78Z"/></clipPath><clipPath id="clip-path-2"><path class="cls-1" d="M13,104.27s.54-.13,1.49-.41c.51-.3,2.81-1.68,2.67-1,.62-.31,1.22-.54,1.29-.31,3.1-1.07,6.46-1.5,8.09,1.47S27.4,111.3,21,112s-9.32-.06-10.88-2.69C8,105.72,7.62,104.59,13,104.27Z"/></clipPath><clipPath id="clip-path-3"><path class="cls-2" d="M5.79,94.34s-1.51-4-.39-4.59l0,0c.2-.07,1.53-.39,4,3A.27.27,0,0,1,9.5,93a2.26,2.26,0,0,1-1.86,1.57S6,95.09,5.79,94.34Z"/></clipPath><clipPath id="clip-path-4"><path class="cls-1" d="M2.45,105.77c2.45,1,6.85.25,7.25.17h.05a11.7,11.7,0,0,0,5-1.21,7.92,7.92,0,0,0,4.39-4.46.28.28,0,0,0-.27-.37c-2.06,0-2.35-.81-2.38-1s0,0,0,0c-.76-8.67-6.67-8.53-6.67-8.53S1.1,89.3,2.06,99.23a.25.25,0,0,1,0,.12c-.08.22-.47,1-2,1.45a.31.31,0,0,0-.17.13c-.1.2-.21.7.45,1.72a20.21,20.21,0,0,0,1.16,1.86s.29.39,1.54.36c0,0-1.29,0-1.12.34A1.8,1.8,0,0,0,2.45,105.77Z"/></clipPath><clipPath id="clip-path-5"><path class="cls-2" d="M8.64,94.08s-1.46-3.82-.44-4.55a.22.22,0,0,1,.18,0c.42,0,2.08.39,4.36,3.49a.29.29,0,0,1-.06.4,6.5,6.5,0,0,1-2.19.92S8.84,94.83,8.64,94.08Z"/></clipPath><clipPath id="clip-path-6"><circle class="cls-3" cx="5.46" cy="97.95" r="1.58"/></clipPath></defs><path class="cls-4" d="M25.48,114.26s-1.42.78-1.1,1.42c0,0,.16,1.2.76.87a1,1,0,0,0,1.24.07c.79-.45,2.35-.52,1.53-2.7C27.91,113.92,27.17,112.63,25.48,114.26Z"/><path class="cls-5" d="M24.51,107.91s1.63,4.7,1,6.35c0,0,1.19,1.2,2.17.19s-.3-5-1-6.66S24.34,106.56,24.51,107.91Z"/><path class="cls-1" d="M24.42,104.78c14,1.83,12.66-7.75,12.66-7.75,0-3.61,2.59-3.43,2.59-3.43,2.33-.1,1.6-2.69,1.6-2.69a2.76,2.76,0,0,0-2.53-2.51c-7.32-.32-5.45,8.73-5.45,8.73.14,7.8-9.11,6.17-9.11,6.17a.61.61,0,0,0-.54.68C23.67,104.61,24.42,104.78,24.42,104.78Z"/><g class="cls-6"><ellipse class="cls-7" cx="34.62" cy="89.92" rx="1.06" ry="3.18" transform="translate(-59.66 70.02) rotate(-57.03)"/><ellipse class="cls-7" cx="33.06" cy="93.3" rx="1.06" ry="3.18" transform="translate(-65.91 91.72) rotate(-69.58)"/></g><path class="cls-4" d="M12,114.33s-1.44.76-1.13,1.41c0,0,.15,1.2.76.88a1,1,0,0,0,1.23.09c.79-.44,2.35-.49,1.57-2.68C14.42,114,13.7,112.73,12,114.33Z"/><path class="cls-5" d="M11.11,108s1.56,4.72.88,6.36c0,0,1.17,1.22,2.16.22s-.23-5-.94-6.67S11,106.62,11.11,108Z"/><path class="cls-1" d="M13,104.27s.54-.13,1.49-.41c.51-.3,2.81-1.68,2.67-1,.62-.31,1.22-.54,1.29-.31,3.1-1.07,6.46-1.5,8.09,1.47S27.4,111.3,21,112s-9.32-.06-10.88-2.69C8,105.72,7.62,104.59,13,104.27Z"/><g class="cls-8"><ellipse class="cls-7" cx="17.97" cy="102.94" rx="2.61" ry="1.18" transform="translate(-77.16 59.71) rotate(-55.66)"/><ellipse class="cls-7" cx="21.19" cy="102.8" rx="2.61" ry="1.18" transform="translate(-78.03 68.56) rotate(-59.32)"/><path class="cls-9" d="M9.12,109.37s-.16-1.5,2.26-.43,2.85,2.18,6.88,1.59,6.12-1.62,6.84-1.11,1.63,1.23-.87,2.94-11.91,1.86-11.91,1.86a24.87,24.87,0,0,1-3.25-1C9,113,9.12,109.37,9.12,109.37Z"/></g><path class="cls-10" d="M14.44,103.66a14.51,14.51,0,0,1-5.57,3.65l-.66-1.94S14.81,100.79,14.44,103.66Z"/><path class="cls-2" d="M5.79,94.34s-1.51-4-.39-4.59l0,0c.2-.07,1.53-.39,4,3A.27.27,0,0,1,9.5,93a2.26,2.26,0,0,1-1.86,1.57S6,95.09,5.79,94.34Z"/><g class="cls-11"><path class="cls-12" d="M4.18,90.57S6,90.39,6.9,94.83c0,0-2.15,1.28-2.4.64s-1-4.12-1-4.12Z"/></g><path class="cls-1" d="M2.45,105.77c2.45,1,6.85.25,7.25.17h.05a11.7,11.7,0,0,0,5-1.21,7.92,7.92,0,0,0,4.39-4.46.28.28,0,0,0-.27-.37c-2.06,0-2.35-.81-2.38-1s0,0,0,0c-.76-8.67-6.67-8.53-6.67-8.53S1.1,89.3,2.06,99.23a.25.25,0,0,1,0,.12c-.08.22-.47,1-2,1.45a.31.31,0,0,0-.17.13c-.1.2-.21.7.45,1.72a20.21,20.21,0,0,0,1.16,1.86s.29.39,1.54.36c0,0-1.29,0-1.12.34A1.8,1.8,0,0,0,2.45,105.77Z"/><g class="cls-13"><ellipse class="cls-9" cx="2.38" cy="105.38" rx="5.55" ry="6.11" transform="translate(-8.41 0.53) rotate(-4.58)"/></g><ellipse class="cls-14" cx="0.73" cy="100.69" rx="0.96" ry="0.56" transform="translate(-8.04 0.38) rotate(-4.58)"/><ellipse class="cls-7" cx="10.79" cy="96.15" rx="2.73" ry="1.02" transform="translate(-7.64 1.17) rotate(-4.58)"/><ellipse class="cls-7" cx="10.38" cy="92.8" rx="2.87" ry="1.02" transform="translate(-7.38 1.13) rotate(-4.58)"/><path class="cls-2" d="M8.64,94.08s-1.46-3.82-.44-4.55a.22.22,0,0,1,.18,0c.42,0,2.08.39,4.36,3.49a.29.29,0,0,1-.06.4,6.5,6.5,0,0,1-2.19.92S8.84,94.83,8.64,94.08Z"/><g class="cls-15"><path class="cls-12" d="M7,90.32s1.82-.19,2.72,4.25c0,0-2.15,1.28-2.4.64s-1-4.12-1-4.12Z"/></g><circle class="cls-3" cx="5.46" cy="97.95" r="1.58"/><g class="cls-16"><circle class="cls-17" cx="4.87" cy="98.5" r="1.18"/><circle class="cls-17" cx="4.87" cy="98.5" r="0.87"/><circle class="cls-3" cx="5.37" cy="97.64" r="0.35"/></g><path class="cls-18" d="M3.69,95.53s1.84-1.83,3.13.09"/><path class="cls-19" d="M7.86,101.17s-3.12-.82-4.94.5"/><path class="cls-19" d="M8,102.27s-3-1.17-5-.08"/><path class="cls-19" d="M8.17,103.17s-2.95-1.31-5-.31"/><path class="cls-9" d="M6.59,110.25s-1.31-1-1.76-.41c0,0-1,.64-.47,1.06a1,1,0,0,0,.45,1.15c.74.53,1.45,1.91,3.09.26C7.9,112.31,8.77,111.1,6.59,110.25Z"/><path class="cls-1" d="M12,106.72s-3.59,3.44-5.36,3.53c0,0-.6,1.57.73,2s4.39-2.35,5.61-3.72S13.11,106,12,106.72Z"/><path class="cls-9" d="M20.67,112.63s-1.52-.58-1.8.09c0,0-.8.9-.16,1.15a1,1,0,0,0,.76,1c.85.3,1.92,1.44,3-.6C22.51,114.25,23,112.84,20.67,112.63Z"/><path class="cls-1" d="M24.86,107.75s-2.51,4.3-4.19,4.88c0,0-.13,1.68,1.27,1.76s3.58-3.47,4.37-5.12S25.77,106.74,24.86,107.75Z"/></svg>