<svg id="Layer_1" data-name="Layer 1" xmlns="http://www.w3.org/2000/svg" xmlns:xlink="http://www.w3.org/1999/xlink" viewBox="0 0 260 168"><defs><style>.cls-1{fill:#ffbd29;}.cls-2{fill:#eaa61f;}.cls-3{fill:#5b091b;}.cls-4{clip-path:url(#clip-path);}.cls-5{fill:#ff7e27;}.cls-6{clip-path:url(#clip-path-2);}.cls-7{fill:#f7cc81;}.cls-8{clip-path:url(#clip-path-3);}.cls-9{clip-path:url(#clip-path-4);}.cls-10{fill:#ffe7b6;}.cls-11{fill:#3acccc;}.cls-12{clip-path:url(#clip-path-5);}.cls-13{clip-path:url(#clip-path-6);}.cls-14{fill:#ffab24;}.cls-15{fill:#7f4a03;}.cls-16{clip-path:url(#clip-path-7);}.cls-17{fill:#fff;}.cls-18{fill:#594025;}.cls-19{clip-path:url(#clip-path-8);}.cls-20{fill:#a82648;}.cls-21{fill:none;stroke:#a57749;stroke-linecap:round;stroke-linejoin:round;stroke-width:0.43px;}.cls-22{fill:#ff8098;}</style><clipPath id="clip-path"><path class="cls-1" d="M128.38,133.62s30,3.71,28.07-19.43c0,0-1.43-25.3,11.85-24.77,0,0,6.81-.8,8.41,4,0,0,2.41,6.55-4.5,7.29,0,0-7.55,1-6.75,11.71,0,0,4.89,26.48-37,23.78"/></clipPath><clipPath id="clip-path-2"><path class="cls-2" d="M119.33,121s-12.12,2.32-5.16,17.16c0,0-6.75,1.81-3.22,7,0,0,4,3.35,11-2.13l3-12.22Z"/></clipPath><clipPath id="clip-path-3"><path class="cls-2" d="M140.81,121s12.12,2.32,5.16,17.16c0,0,6.74,1.81,3.22,7,0,0-4.06,3.35-11-2.13l-2.95-12.22Z"/></clipPath><clipPath id="clip-path-4"><path class="cls-1" d="M138.24,95.83l-8-.34-8,.34s-7.51,38.49-3.08,44.22,8.18,5.73,11.09,5.73,6.65,0,11.08-5.73S138.24,95.83,138.24,95.83Z"/></clipPath><clipPath id="clip-path-5"><path class="cls-1" d="M120.21,106.72s-1.11,34.62-4.11,34.62-2,4.44-.45,4.44a4.69,4.69,0,0,0,4.56.48,4.13,4.13,0,0,0,4.1-.48s1.94-4.16-1.24-6"/></clipPath><clipPath id="clip-path-6"><path class="cls-1" d="M140.18,106.72s1.11,34.62,4.11,34.62,2,4.44.45,4.44a4.69,4.69,0,0,1-4.56.48,4.13,4.13,0,0,1-4.1-.48s-1.94-4.16,1.24-6"/></clipPath><clipPath id="clip-path-7"><path class="cls-1" d="M154.51,80.54c-3.29-1.43-8-8.1-10-11.09-.25-.4-.51-.8-.78-1.18l-.18-.28h0a18.71,18.71,0,0,0-32.18,3.65h0l0,0c-.26.62-.5,1.25-.7,1.89-1.35,3.5-4.38,10.68-7.18,12.75a2.17,2.17,0,0,0,2.19,1.12s-1.82,12.71,23.63,10.45v-.06c.45,0,.9,0,1.36-.1s.92-.12,1.37-.21v.06c25.3-3.49,20.68-15.47,20.68-15.47A2.18,2.18,0,0,0,154.51,80.54Z"/></clipPath><clipPath id="clip-path-8"><path class="cls-3" d="M125.28,93.16a5.47,5.47,0,0,0,5.52,2.48c3.72-.59,4.06-3.53,4.06-3.53s-1.59,2.17-4.84,0C130,92.16,128.61,94.33,125.28,93.16Z"/></clipPath></defs><path class="cls-1" d="M128.38,133.62s30,3.71,28.07-19.43c0,0-1.43-25.3,11.85-24.77,0,0,6.81-.8,8.41,4,0,0,2.41,6.55-4.5,7.29,0,0-7.55,1-6.75,11.71,0,0,4.89,26.48-37,23.78"/><g class="cls-4"><ellipse class="cls-5" cx="161.73" cy="94.75" rx="3.41" ry="7.17" transform="translate(-12.22 164.59) rotate(-52.24)"/><ellipse class="cls-5" cx="157.14" cy="103.32" rx="3.41" ry="7.17" transform="translate(19.75 231.74) rotate(-76.39)"/></g><path class="cls-2" d="M119.33,121s-12.12,2.32-5.16,17.16c0,0-6.75,1.81-3.22,7,0,0,4,3.35,11-2.13l3-12.22Z"/><g class="cls-6"><path class="cls-7" d="M112.23,136.78s9.86,7.2,17.83-.93c0,0,1.4,18.94,0,19.31s-28.5-.19-29.89-2.14-1.58-6.49,0-8.44,3.71-5.29,5-6,1.39-1.11,1.39-1.11"/></g><path class="cls-2" d="M140.81,121s12.12,2.32,5.16,17.16c0,0,6.74,1.81,3.22,7,0,0-4.06,3.35-11-2.13l-2.95-12.22Z"/><g class="cls-8"><path class="cls-7" d="M135.07,140.44c.11-.21,7.44.49,13.84-4s-.38-.12-.38-.12,21.81,9.19,14,12.43,6.53,6.6-16.32,4.27-26.5-2.22-25.56-3.89a10.18,10.18,0,0,0,1.13-2.52Z"/></g><path class="cls-1" d="M138.24,95.83l-8-.34-8,.34s-7.51,38.49-3.08,44.22,8.18,5.73,11.09,5.73,6.65,0,11.08-5.73S138.24,95.83,138.24,95.83Z"/><g class="cls-9"><ellipse class="cls-10" cx="130.06" cy="125.06" rx="8.05" ry="19.65"/></g><path class="cls-11" d="M120.66,96.54s8.69,9.79,19.31,0L122.51,93.4"/><path class="cls-1" d="M121.86,97.83a6.1,6.1,0,0,1-2.58,4.92,4,4,0,0,0,1.34,0,13.52,13.52,0,0,1-1.7,2.42,1.51,1.51,0,0,0,.79,0,4.52,4.52,0,0,1-1.56,1.42l2.87.11a1.49,1.49,0,0,0,.73-.09,1.35,1.35,0,0,0,.51-1.41,27.37,27.37,0,0,0-.56-3.72c0-.23.19-.58.23-.81s-.5-.57-.33-.84a1,1,0,0,0,.14-.92"/><path class="cls-1" d="M138.6,97.83a6.1,6.1,0,0,0,2.58,4.92,4,4,0,0,1-1.34,0,13.52,13.52,0,0,0,1.7,2.42,1.51,1.51,0,0,1-.79,0,4.52,4.52,0,0,0,1.56,1.42l-2.87.11a1.49,1.49,0,0,1-.73-.09,1.35,1.35,0,0,1-.51-1.41,27.37,27.37,0,0,1,.56-3.72c.05-.23-.19-.58-.23-.81s.5-.57.33-.84a1,1,0,0,1-.14-.92"/><path class="cls-1" d="M120.21,106.72s-1.11,34.62-4.11,34.62-2,4.44-.45,4.44a4.69,4.69,0,0,0,4.56.48,4.13,4.13,0,0,0,4.1-.48s1.94-4.16-1.24-6"/><g class="cls-12"><path class="cls-10" d="M115.2,139.75s4.45,5.15,9.7-1.6c0,0,5.9,19.14,4.6,19.24s-10.77,2-14.67.55-6-4.27-4.9-5.84-2.24-9.56-2.24-9.56Z"/></g><path class="cls-1" d="M140.18,106.72s1.11,34.62,4.11,34.62,2,4.44.45,4.44a4.69,4.69,0,0,1-4.56.48,4.13,4.13,0,0,1-4.1-.48s-1.94-4.16,1.24-6"/><g class="cls-13"><path class="cls-10" d="M136.53,139.1s2.72,3.13,8.7,1.11l5,9.89a15.5,15.5,0,0,1-7.2,1.25c-3.83-.34-5,.35-7.52-1.25s-4.25-2.25-4-3.49S136.53,139.1,136.53,139.1Z"/></g><path class="cls-14" d="M118.09,64.13s-15.59-10.74-6.81,7.57c0,0,2.59.94,5.14-2C116.42,69.65,119.77,67.21,118.09,64.13Z"/><path class="cls-15" d="M116.44,64.91s-9.66-6.66-4.22,4.69c0,0,1.6.58,3.18-1.28C115.4,68.32,117.48,66.81,116.44,64.91Z"/><path class="cls-14" d="M134.43,62.28s12.78-14,8.33,5.85c0,0-2.31,1.5-5.47-.85C137.29,67.28,133.48,65.65,134.43,62.28Z"/><path class="cls-15" d="M136.69,62.61s7.92-8.65,5.16,3.63c0,0-1.43.92-3.39-.53C138.46,65.71,136.1,64.7,136.69,62.61Z"/><path class="cls-1" d="M154.51,80.54c-3.29-1.43-8-8.1-10-11.09-.25-.4-.51-.8-.78-1.18l-.18-.28h0a18.71,18.71,0,0,0-32.18,3.65h0l0,0c-.26.62-.5,1.25-.7,1.89-1.35,3.5-4.38,10.68-7.18,12.75a2.17,2.17,0,0,0,2.19,1.12s-1.82,12.71,23.63,10.45v-.06c.45,0,.9,0,1.36-.1s.92-.12,1.37-.21v.06c25.3-3.49,20.68-15.47,20.68-15.47A2.18,2.18,0,0,0,154.51,80.54Z"/><g class="cls-16"><circle class="cls-10" cx="130.44" cy="96.55" r="12.86" transform="translate(-25.14 50.38) rotate(-19.98)"/><ellipse class="cls-5" cx="108.38" cy="79.75" rx="5.35" ry="1.75" transform="translate(-8.3 12.72) rotate(-6.47)"/><ellipse class="cls-5" cx="110.67" cy="73.81" rx="5.35" ry="1.75" transform="translate(-7.61 12.94) rotate(-6.47)"/><ellipse class="cls-5" cx="147.81" cy="75.28" rx="5.35" ry="1.75" transform="translate(-7.54 17.14) rotate(-6.47)"/><ellipse class="cls-5" cx="144.24" cy="70" rx="5.35" ry="1.75" transform="translate(-6.97 16.7) rotate(-6.47)"/><ellipse class="cls-5" cx="123.17" cy="63.63" rx="1.69" ry="5.91" transform="translate(-6.39 14.29) rotate(-6.47)"/><ellipse class="cls-5" cx="129.79" cy="62.88" rx="1.69" ry="5.91" transform="matrix(0.99, -0.11, 0.11, 0.99, -6.26, 15.03)"/></g><circle class="cls-17" cx="118.49" cy="81.39" r="4.51"/><circle class="cls-18" cx="120.02" cy="83.29" r="3.12"/><circle class="cls-18" cx="120.02" cy="83.29" r="2.05"/><circle class="cls-17" cx="118.52" cy="81.39" r="1.03"/><circle class="cls-17" cx="138.38" cy="79.13" r="4.51"/><circle class="cls-18" cx="139.92" cy="81.03" r="3.12"/><circle class="cls-18" cx="139.92" cy="81.03" r="2.05"/><circle class="cls-17" cx="138.42" cy="79.14" r="1.03"/><path class="cls-1" d="M122.1,85.52s-2.26-1.7-9.4.31c0,0,3,1.11,3.27,1.08s5.77-.59,5.87-.67A3.37,3.37,0,0,0,122.1,85.52Z"/><path class="cls-1" d="M136.58,83.88s1.82-2.16,9.23-1.8c0,0-2.69,1.75-2.95,1.78s-5.75.72-5.86.66A3.28,3.28,0,0,1,136.58,83.88Z"/><path class="cls-15" d="M115.37,74.4a2.2,2.2,0,0,1,1-1.19,3.07,3.07,0,0,1,1.5-.46A3.14,3.14,0,0,1,120.59,74a10.25,10.25,0,0,1-1.43,0c-.43,0-.82,0-1.22,0A18.17,18.17,0,0,0,115.37,74.4Z"/><path class="cls-15" d="M139.91,71.62a18.41,18.41,0,0,0-2.57.3c-.38.08-.78.14-1.2.25a10.69,10.69,0,0,1-1.4.26,3.19,3.19,0,0,1,3.92-1.75A2.17,2.17,0,0,1,139.91,71.62Z"/><path class="cls-3" d="M125.28,93.16a5.47,5.47,0,0,0,5.52,2.48c3.72-.59,4.06-3.53,4.06-3.53s-1.59,2.17-4.84,0C130,92.16,128.61,94.33,125.28,93.16Z"/><g class="cls-19"><ellipse class="cls-20" cx="130.81" cy="96.77" rx="4.18" ry="2.43" transform="translate(-7.91 11.73) rotate(-4.98)"/><ellipse class="cls-17" cx="127.79" cy="93.5" rx="0.45" ry="0.74" transform="translate(-16.05 27.29) rotate(-11.47)"/><ellipse class="cls-17" cx="132.55" cy="93.06" rx="0.45" ry="0.74" transform="translate(-3.85 5.74) rotate(-2.44)"/></g><path class="cls-21" d="M129.45,87.36,130,92s-1.32,3.15-5.67.64"/><path class="cls-21" d="M129.45,87.36,130,92s2,2.79,5.68-.63"/><ellipse class="cls-22" cx="129.28" cy="86.36" rx="3.15" ry="1.64" transform="translate(-8.91 15.12) rotate(-6.47)"/></svg>