<svg id="Layer_1" data-name="Layer 1" xmlns="http://www.w3.org/2000/svg" xmlns:xlink="http://www.w3.org/1999/xlink" viewBox="0 0 260 168"><defs><style>.cls-1{fill:#ff8a8a;}.cls-1,.cls-2,.cls-3{opacity:0.53;}.cls-2{fill:#9cf3ff;}.cls-3{fill:#aee4ff;}.cls-4{clip-path:url(#clip-path);}.cls-5{opacity:0.5;}.cls-6{fill:#fff;}.cls-7{clip-path:url(#clip-path-2);}.cls-8{fill:#66c5ff;opacity:0.23;}.cls-9{fill:#1d06ff;}</style><clipPath id="clip-path"><path class="cls-1" d="M153.88,141c-3.56,0-3.44-4.07-3.44-4.07l0-3.38c0-.28.48-.36.48-.36-.5,0-.49-.32-.49-.32l0-1.66c0-.3.51-.36.51-.36-.48,0-.49-.26-.49-.26V129c0-.27.53-.34.53-.34-.58,0-.52-.38-.52-.38l0-1.61c0-.35.46-.35.46-.35a.43.43,0,0,1-.48-.49l0-3.25c0-.38.43-.41.43-.41V121c-.89-.52-.72-2.13-.72-2.13,0-2.27,3.69-6.53,3.69-6.53v-.66c-.63-.34,0-.57,0-.57l0-2.07s0-.34.72-.34l2.39,0s.68,0,.68.34v2.07s.64.25,0,.58v.65s3.62,4.31,3.6,6.58c0,0,.16,1.62-.74,2.13v1.18s.42,0,.42.41l0,3.25a.44.44,0,0,1-.49.49s.47,0,.47.35l0,1.61s.06.41-.52.37c0,0,.53.08.53.36v1.52s0,.26-.49.26c0,0,.51.06.5.36v1.66s0,.32-.49.31c0,0,.48.09.48.37l0,3.38s.06,4-3.49,4Z"/></clipPath><clipPath id="clip-path-2"><path class="cls-2" d="M153.88,141c-3.56,0-3.44-4.07-3.44-4.07l0-3.38c0-.28.48-.36.48-.36-.5,0-.49-.32-.49-.32l0-1.66c0-.3.51-.36.51-.36-.48,0-.49-.26-.49-.26V129c0-.27.53-.34.53-.34-.58,0-.52-.38-.52-.38l0-1.61c0-.35.46-.35.46-.35a.43.43,0,0,1-.48-.49l0-3.25c0-.38.43-.41.43-.41V121c-.89-.52-.72-2.13-.72-2.13,0-2.27,3.69-6.53,3.69-6.53v-.66c-.63-.34,0-.57,0-.57l0-2.07s0-.34.72-.34l2.39,0s.68,0,.68.34v2.07s.64.25,0,.58v.65s3.62,4.31,3.6,6.58c0,0,.16,1.62-.74,2.13v1.18s.42,0,.42.41l0,3.25a.44.44,0,0,1-.49.49s.47,0,.47.35l0,1.61s.06.41-.52.37c0,0,.53.08.53.36v1.52s0,.26-.49.26c0,0,.51.06.5.36v1.66s0,.32-.49.31c0,0,.48.09.48.37l0,3.38s.06,4-3.49,4Z"/></clipPath></defs><path class="cls-3" d="M154.57,141c-2.17,0-2.08-4.06-2.08-4.06l0-3.38a.4.4,0,0,1,.3-.36.3.3,0,0,1-.3-.32v-1.65a.38.38,0,0,1,.31-.37.26.26,0,0,1-.29-.25V129c0-.28.32-.35.32-.35-.35,0-.31-.38-.31-.38V126.7c0-.35.28-.34.28-.34-.33,0-.29-.49-.29-.49l0-3.25c0-.39.27-.42.27-.42V121c-.54-.53-.43-2.14-.43-2.14,0-2.27,2.27-6.54,2.27-6.54v-.65c-.39-.34,0-.58,0-.58l0-2.07s0-.34.44-.33h1.46s.41,0,.41.34v2.07s.39.24,0,.57v.66s2.2,4.3,2.18,6.57c0,0,.09,1.61-.46,2.12v1.18s.25,0,.25.42l0,3.25s0,.49-.3.49c0,0,.28,0,.28.34v1.61s0,.42-.32.38c0,0,.32.07.32.35v1.53a.27.27,0,0,1-.3.25.38.38,0,0,1,.31.37v1.66a.3.3,0,0,1-.3.31.4.4,0,0,1,.29.36l0,3.38s0,4.05-2.14,4Z"/><path class="cls-1" d="M153.88,141c-3.56,0-3.44-4.07-3.44-4.07l0-3.38c0-.28.48-.36.48-.36-.5,0-.49-.32-.49-.32l0-1.66c0-.3.51-.36.51-.36-.48,0-.49-.26-.49-.26V129c0-.27.53-.34.53-.34-.58,0-.52-.38-.52-.38l0-1.61c0-.35.46-.35.46-.35a.43.43,0,0,1-.48-.49l0-3.25c0-.38.43-.41.43-.41V121c-.89-.52-.72-2.13-.72-2.13,0-2.27,3.69-6.53,3.69-6.53v-.66c-.63-.34,0-.57,0-.57l0-2.07s0-.34.72-.34l2.39,0s.68,0,.68.34v2.07s.64.25,0,.58v.65s3.62,4.31,3.6,6.58c0,0,.16,1.62-.74,2.13v1.18s.42,0,.42.41l0,3.25a.44.44,0,0,1-.49.49s.47,0,.47.35l0,1.61s.06.41-.52.37c0,0,.53.08.53.36v1.52s0,.26-.49.26c0,0,.51.06.5.36v1.66s0,.32-.49.31c0,0,.48.09.48.37l0,3.38s.06,4-3.49,4Z"/><g class="cls-4"><path class="cls-2" d="M151.59,140.35c-.17.49,1.85,1,4.14,1s4.14-.39,4.15-.91-1.85-.91-4.14-1C153.65,139.38,151.8,139.79,151.59,140.35Z"/></g><g class="cls-5"><path class="cls-6" d="M157.31,112.72a14.23,14.23,0,0,1,2.3,2.93,10.35,10.35,0,0,1,1.34,3.48A28.25,28.25,0,0,0,157.31,112.72Z"/></g><path class="cls-2" d="M153.88,141c-3.56,0-3.44-4.07-3.44-4.07l0-3.38c0-.28.48-.36.48-.36-.5,0-.49-.32-.49-.32l0-1.66c0-.3.51-.36.51-.36-.48,0-.49-.26-.49-.26V129c0-.27.53-.34.53-.34-.58,0-.52-.38-.52-.38l0-1.61c0-.35.46-.35.46-.35a.43.43,0,0,1-.48-.49l0-3.25c0-.38.43-.41.43-.41V121c-.89-.52-.72-2.13-.72-2.13,0-2.27,3.69-6.53,3.69-6.53v-.66c-.63-.34,0-.57,0-.57l0-2.07s0-.34.72-.34l2.39,0s.68,0,.68.34v2.07s.64.25,0,.58v.65s3.62,4.31,3.6,6.58c0,0,.16,1.62-.74,2.13v1.18s.42,0,.42.41l0,3.25a.44.44,0,0,1-.49.49s.47,0,.47.35l0,1.61s.06.41-.52.37c0,0,.53.08.53.36v1.52s0,.26-.49.26c0,0,.51.06.5.36v1.66s0,.32-.49.31c0,0,.48.09.48.37l0,3.38s.06,4-3.49,4Z"/><g class="cls-7"><rect class="cls-8" x="149.97" y="125.96" width="11.61" height="0.7"/><rect class="cls-8" x="149.97" y="121.04" width="11.61" height="1.17"/><rect class="cls-8" x="149.97" y="128.21" width="11.61" height="0.7"/><rect class="cls-8" x="149.97" y="130.46" width="11.61" height="0.7"/><rect class="cls-8" x="149.98" y="132.79" width="11.61" height="0.7"/></g><path class="cls-9" d="M154.22,108.65h3.22a.42.42,0,0,1,.42.42v1.62a.42.42,0,0,1-.42.42H154a.21.21,0,0,1-.21-.21v-1.84A.42.42,0,0,1,154.22,108.65Z"/></svg>