<svg xmlns="http://www.w3.org/2000/svg" viewBox="0 0 134.94 209.31">
  <defs>
    <style>
      .cls-1 {
        fill: #0c0807;
      }

      .cls-2 {
        fill: #a56737;
      }

      .cls-3 {
        fill: #a46636;
      }

      .cls-4 {
        fill: #488dcb;
      }

      .cls-5 {
        fill: #d42027;
      }

      .cls-6 {
        fill: #21b14b;
      }

      .cls-7 {
        fill: #fde500;
      }

      .cls-8 {
        fill: #9a5b2a;
      }

      .cls-9 {
        fill: #6c401d;
      }

      .cls-10 {
        fill: #faf8f7;
      }

      .cls-11 {
        fill: #522f27;
      }

      .cls-12 {
        fill: #060504;
      }

      .cls-13 {
        fill: #600b0c;
      }

      .cls-14 {
        fill: #f2ecec;
      }

      .cls-15 {
        fill: #fff;
      }

      .cls-16 {
        fill: #734725;
      }

      .cls-17 {
        fill: #a87c4f;
      }

      .cls-18 {
        fill: #d0ad80;
      }

      .cls-19 {
        fill: #c3996b;
      }
    </style>
  </defs>
  <title>p24</title>
  <g id="character">
    <g>
      <path class="cls-1" d="M76.58,193.78c1,1,1,.94,2.07-.06a23.16,23.16,0,0,1,9.94-5.49,19.09,19.09,0,0,0,3.16,2.86,47.23,47.23,0,0,1,4,3.15,18.88,18.88,0,0,1,4.39,4.87c1.67,3,.92,8.49-4.08,9.86a14.54,14.54,0,0,1-6.23,0,20.29,20.29,0,0,1-10.61-4.57,6.57,6.57,0,0,0-3.07-1.56c-2.86-.63-5-2.17-5.59-5.24a12.66,12.66,0,0,1,1.54-8.36c.12-.23.26-.53.63-.31C73.48,191,75.08,192.35,76.58,193.78Zm14.67,5.58c2.21-1.08,2.82-2.77,1.8-5a13.39,13.39,0,0,0-2.13-3.09,1.22,1.22,0,0,0-1.32-.33,13.94,13.94,0,0,0-7,3.93c-.67.62-1.88,1.2-1.73,2s1.4,1,2.18,1.46a10,10,0,0,0,4.3,1.67A8.54,8.54,0,0,0,91.25,199.36Z"/>
      <path class="cls-1" d="M33,158.7a20.34,20.34,0,0,1-2.81,8.11c-.37.58-.25.91.28,1.28a15.8,15.8,0,0,0,5.91,2.73c-2.61,2.65-6,3.35-9.47,3.4-2.89.05-4.62-2-5.63-4.57a2.29,2.29,0,0,0-.8-1.17,23.2,23.2,0,0,1-8.56-11.57,8.28,8.28,0,0,1-.08-6.21c1.14-2.71,5.95-5.35,9.77-3.27.92.5,1.84,1,2.76,1.5,3.17,1.75,5.54,4.67,8.86,6.21.06,0,.08.11.12.17A25.62,25.62,0,0,0,33,158.7Zm-6.38,6.18c.24.25.47.25.66-.08,1.78-3.1,3.45-6.23,3.08-10a1.2,1.2,0,0,0-.82-1.18A15.54,15.54,0,0,0,26,152.46c-2.83-.38-4.21,1.46-4.27,3.87a7.47,7.47,0,0,0,.7,3.56C23.29,162,25.05,163.32,26.58,164.88Z"/>
      <path class="cls-2" d="M72.78,188.92c.7,2.07,2.3,3.43,3.8,4.86,1,1,1,.94,2.07-.06a23.16,23.16,0,0,1,9.94-5.49c-1.17-1.92-1.24-4.11-1.51-6.24-.35-2.8-.63-5.61-.94-8.42a47.56,47.56,0,0,1-6.31-.24l-5.73-.94c-.1,3.87-.07,7.74-.46,11.6A27.51,27.51,0,0,1,72.78,188.92Z"/>
      <path class="cls-2" d="M33.31,155.31A25.62,25.62,0,0,0,33,158.7a20.34,20.34,0,0,1-2.81,8.11c-.37.58-.25.91.28,1.28a15.8,15.8,0,0,0,5.91,2.73C39,169.1,42,168.71,45,167.88l5.11-1.46a36.39,36.39,0,0,1-4.22-11.91,87.39,87.39,0,0,1-9.55,1C35.31,155.57,34.32,155.38,33.31,155.31Z"/>
      <path class="cls-2" d="M87.33,200a8.54,8.54,0,0,0,3.92-.65c2.21-1.08,2.82-2.77,1.8-5a13.39,13.39,0,0,0-2.13-3.09,1.22,1.22,0,0,0-1.32-.33,13.94,13.94,0,0,0-7,3.93c-.67.62-1.88,1.2-1.73,2s1.4,1,2.18,1.46A10,10,0,0,0,87.33,200Z"/>
      <path class="cls-2" d="M22.38,159.89c.91,2.07,2.67,3.43,4.2,5,.24.25.47.25.66-.08,1.78-3.1,3.45-6.23,3.08-10a1.2,1.2,0,0,0-.82-1.18A15.54,15.54,0,0,0,26,152.46c-2.83-.38-4.21,1.46-4.27,3.87A7.47,7.47,0,0,0,22.38,159.89Z"/>
      <path class="cls-3" d="M5.64,52.09c2.54,2,4.37,4.46,6.89,7.35.13.16.43.06.4-.14-.32-2-2-6-1.35-8.67a1,1,0,0,1,.89-.73c.74-.09,1.25.86,1.65,1.6l2.7,8c.27.58.28,1,.63.89s0-.7,0-1A22.83,22.83,0,0,0,17.75,56a6.48,6.48,0,0,1,.51-1.48,1,1,0,0,1,1.65.21A11,11,0,0,1,21,58.59c.29,2,.52,4.15.82,6.19a4.51,4.51,0,0,0,.91,2.84c1,1.11,2.34,2.68,3.43,3.7A87.5,87.5,0,0,0,42.67,84.19c1.28.77,3,1.57,3.13,3.06a3,3,0,0,1-.4,1.58,4.15,4.15,0,0,1-2.5,2.22c-2.37.74-4.75-.7-7.09-1.91a159.72,159.72,0,0,1-19.61-12c-1.15-.82-2.14-1.94-3.53-2.15-2.82-.42-6-.74-8.66-2a1.4,1.4,0,0,1-.72-1.78A2.16,2.16,0,0,1,4.9,70.05a24.6,24.6,0,0,0,3.17-1c.65-.53-.59-1.59-1.47-2.07a23.2,23.2,0,0,1-5.24-4c-.77-.77-1.81-1.7-1.15-2.57.36-.48,1.29-.36,1.87-.22a13.54,13.54,0,0,1,2.19.92,47.3,47.3,0,0,0,4.64,2.12c.48-.15-1.28-2.59-3.16-5.87-.13-.23-3-4.92-2-5.66C4.23,51.33,5.21,51.75,5.64,52.09Z"/>
      <path class="cls-4" d="M50.25,97.31a5.49,5.49,0,0,1-1.68-.74c-1.07-.68-.54.23-1.59-.69a14,14,0,0,0-4.83-2.67,2.3,2.3,0,0,1-1-.53,2.16,2.16,0,0,1-.27-1.1,8.27,8.27,0,0,1,1.58-5.14c.62-1,1.34-1.8,2-2.72a1.74,1.74,0,0,1,1.2-.89,5.5,5.5,0,0,1,1.37.25,21.86,21.86,0,0,0,5.17.81,8.37,8.37,0,0,1,5.07,1.87,9.23,9.23,0,0,1,2.23,3.08c.68,1.42.37.7.36,2.28a5.77,5.77,0,0,1-1.75,4.23,9.37,9.37,0,0,1-2.28,1.36,8.6,8.6,0,0,1-2.76.94A8.58,8.58,0,0,1,50.25,97.31Z"/>
      <path class="cls-3" d="M127.08,43.72c-1.9,2.61-3,5.46-4.65,8.93-.09.18-.4.17-.42,0-.24-2.06.36-6.31-1-8.71a1.05,1.05,0,0,0-1.06-.47c-.74.11-1,1.17-1.15,2l-.46,8.42c-.1.63,0,1-.37,1s-.18-.67-.29-.93a21.62,21.62,0,0,1-1.17-3.21,6.41,6.41,0,0,0-.9-1.28,1,1,0,0,0-1.53.64,11.26,11.26,0,0,0,0,4c.27,2,.62,4.14.88,6.19a4.55,4.55,0,0,1-.11,3c-.67,1.34-1.53,3.21-2.31,4.49A88,88,0,0,1,100.07,84.6c-1,1.09-2.52,2.33-2.19,3.79a3,3,0,0,0,.81,1.41,4.19,4.19,0,0,0,3,1.47c2.48.07,4.39-2,6.31-3.75a158.84,158.84,0,0,0,15.66-16.84c.88-1.1,1.54-2.44,2.83-3,2.59-1.16,5.55-2.32,7.79-4.28a1.4,1.4,0,0,0,.21-1.91,2.2,2.2,0,0,0-1.85-.67,22.46,22.46,0,0,1-3.33-.12c-.77-.34.14-1.69.86-2.39a23.31,23.31,0,0,0,4-5.28c.53-.95,1.29-2.13.42-2.79-.48-.36-1.35,0-1.87.29A14.55,14.55,0,0,0,130.82,52a47.85,47.85,0,0,1-3.89,3.29c-.5,0,.53-2.84,1.46-6.5.07-.25,1.54-5.54.37-6C128.24,42.6,127.41,43.27,127.08,43.72Z"/>
      <path class="cls-4" d="M96.12,101.66a5.17,5.17,0,0,0,1.42-1.17c.85-.94.76-2.3,1.53-3.48A14,14,0,0,1,103,93.15a2.39,2.39,0,0,0,.82-.79,2.17,2.17,0,0,0,0-1.13,8.36,8.36,0,0,0-2.91-4.52c-.86-.76-1.77-1.37-2.68-2.08a1.69,1.69,0,0,0-1.39-.53,5.06,5.06,0,0,0-1.26.61,22,22,0,0,1-4.76,2.17,8.36,8.36,0,0,0-4.38,3.17,9.18,9.18,0,0,0-1.32,3.56,10.41,10.41,0,0,0,.1,4.68,5.7,5.7,0,0,0,2.82,3.6,9.34,9.34,0,0,0,2.56.7,8.65,8.65,0,0,0,2.91.16A8.58,8.58,0,0,0,96.12,101.66Z"/>
      <path d="M76.35,78.43s11.29,4.13,16,9.39c0,0-4.06-11.75-4.59-15.28,0,0,9.89,8.88,19,7.52a18.13,18.13,0,0,1-11.1-14.55s13.25-11,15.68-26.94c0,0-10.66-12.56-13.55-14.41,0,0,.43-12.83-5.41-17.3,0,0-14.34-3.17-21.3.61A32.19,32.19,0,0,0,51.32,0S35.78,8.29,34.25,18c0,0-15.86,8.9-18.09,10.6,0,0-2,12.67,3.53,19.16,0,0-3.42,11.87-1.34,16.6,0,0,11.31,10.06,21.24,11.09s5.64,23.63,5.64,23.63,6.59-11.28,11.58-14.75a77.29,77.29,0,0,0,.85,12.83S64,79.33,76.35,78.43Z"/>
      <path class="cls-4" d="M90.76,173a33.46,33.46,0,0,1-12.7.16c-6.43-1.32-8.33-1-9.56-.87a8.93,8.93,0,0,1-3.33.13,15.22,15.22,0,0,0-2.53-.32,18.51,18.51,0,0,1-5.9-1.15,23.93,23.93,0,0,1-6.25-3.43c-1-.89-2-1.88-3-2.78-2.07-1.81-3.73-4-5.72-5.92-.48-.46-.92-.93-1.42-1.36s-1.21-.77-1.4-1.45c.46-.58,1.41-.4,1.9-1a3.73,3.73,0,0,0,.44-.87c.51-1,1.39-1.76,1.88-2.73a12.2,12.2,0,0,0,1.22-2.8,6.82,6.82,0,0,0,0-1.86c-.09-2,.73-4.3,1.19-6.26,1-4.1,2-8.18,3.32-12.21.48-1.53,1-3.06,1.56-4.57,2.32-6.13,3.9-22.57,3.9-22.57S53.71,89.23,56.06,86c2.55-3.47,10.49-3.09,17.87-2.26a65.1,65.1,0,0,1,16.41,4.35c1.91.84,1.47,19.27,1.33,23s-1.92,19.11-1.89,24.32.69,16.23.32,21.6S90.76,173,90.76,173Z"/>
      <polygon class="cls-5" points="59.67 85.63 63.69 85.13 86.85 86.81 89.08 87.26 87.14 99.2 60.72 97.13 59.67 85.63"/>
      <path class="cls-6" d="M62.61,85.19l3.16-.63,18.56,1.31a11.44,11.44,0,0,1,1.23.51l1.26.34L85,96.1,63.25,94.22Z"/>
      <polygon class="cls-7" points="65.58 84.54 69.81 83.76 82.12 84.86 84.34 85.78 82.74 93.34 65.78 91.83 65.58 84.54"/>
      <path class="cls-3" d="M80.5,91,82,85.19A3.54,3.54,0,0,1,79.52,83c-.5-1.72-1.18-3.9-5.48-4.17s-3.31,1.67-3.58,2.42a19.48,19.48,0,0,0-.52,1.91,1.73,1.73,0,0,1-1.56,1.42c-1.08.17.18,4.83.18,4.83Z"/>
      <path class="cls-8" d="M97.62,37.39l-3.16-7.06a2.48,2.48,0,0,1,.25-1.65C95.17,28,97,25.23,97,25.23s-3.13,1.26-4,2.37c-.4.17-.44.55-1,.06s-7.59-5.85-7.59-5.85-10.27-1.89-11.72-2.38-1.82-.66-2-2.26-.24-5.52-.21-6.25c0,0-1.59,7-1.69,8s-1.19.69-1.44.66-12.08-.23-12.08-.23a2.63,2.63,0,0,0-1.41.41c-1,.5-9.29,5.13-10.59,6.45-.5.33-.8.26-1,.06S37,23.43,35.68,22a55.63,55.63,0,0,1,3.85,5.51c.56.83-.17.84-.33,1.08s-5.88,6.21-5.88,6.21l-1.59,10.3s-7.28.31-9.33,2.2a15,15,0,0,1,8-.24s-.52,4.58.29,6.3C32.42,65.22,36,71.86,39,75.86c5.9,6.71,17.69,10.52,24.31,11.21,9.95.52,14.28-1.09,22.55-6.4,2.15-3.3,12.1-8.18,13.92-26.44Z"/>
      <path class="cls-8" d="M101.91,53.67a3.54,3.54,0,0,1-1.88.45c-.57-.16-1-.79-1.42-1.23-1.81-2-2.12-4.91-2.34-7.6l-.2-2.45a14.39,14.39,0,0,1,0-3.28,5,5,0,0,1,1.46-3,4.59,4.59,0,0,1,2.59-1.08,6.51,6.51,0,0,1,3.37.16,4.68,4.68,0,0,1,2.14,2,14.12,14.12,0,0,1,1.53,4.09,12,12,0,0,1-.11,4.17,12.32,12.32,0,0,1-1.8,4.89A7.07,7.07,0,0,1,101.91,53.67Z"/>
      <path class="cls-9" d="M100.76,38a3.14,3.14,0,0,0-1.25.46A8.87,8.87,0,0,0,98,39.86c-.16-.47.1-.92.4-1.61a2.76,2.76,0,0,1,.61-.9,3.12,3.12,0,0,1,1.45-.73,4.27,4.27,0,0,1,4.34,1.79c1,1.37.91,3.31.81,5-.23,4.08-1.55,6.66-3.19,8.21-.07.06-1.46,1.67-2.37,1.28a1.44,1.44,0,0,1-.32-.23,2.07,2.07,0,0,1-.66-1.42,1.29,1.29,0,0,1,1-1.3,1.21,1.21,0,0,0,.67,1.38.93.93,0,0,0,.52,0,6.28,6.28,0,0,0,.92-.8,4.43,4.43,0,0,0,1.32-2.18,12.72,12.72,0,0,0,.55-2,19.45,19.45,0,0,0,.46-4.78c-.14-1.63-1.32-3.37-2.94-3.57A2.2,2.2,0,0,0,100.76,38Z"/>
      <path class="cls-8" d="M34,70.08c.64,0,1.65.11,1.93-.18a3.72,3.72,0,0,0,.62-1.78c.56-2.64-.61-5.31-1.76-7.75l-1.05-2.22a13.43,13.43,0,0,0-1.62-2.86c-.68-.86-1.13-1.67-2.21-1.89a8.44,8.44,0,0,0-3.81.09,6,6,0,0,0-2.8,1.61c-.6.84-.39,2.28-.4,3.32a13.66,13.66,0,0,0,.9,4.16,12.55,12.55,0,0,0,2.3,3.59c1.13,1.42,2.65,1.9,4.25,2.76S32.39,70.16,34,70.08Z"/>
      <path class="cls-9" d="M27.23,55.58a3.15,3.15,0,0,1,1.31-.22,8.32,8.32,0,0,1,2,.47c-.09-.49-.55-.75-1.15-1.2a2.55,2.55,0,0,0-1-.47,3.08,3.08,0,0,0-1.62.09A4.26,4.26,0,0,0,23.9,58c-.2,1.7,1.1,4.16,2,5.59,2.23,3.41,4.71,4.74,6.9,5.26.1,0,2.1.73,2.7-.07a1.37,1.37,0,0,0,.15-.35,2.06,2.06,0,0,0-.13-1.57,1.28,1.28,0,0,0-1.48-.63,1.21,1.21,0,0,1,.1,1.53,1.05,1.05,0,0,1-.46.23,7.29,7.29,0,0,1-1.2-.24,6.32,6.32,0,0,1-2.66-1.45,12.75,12.75,0,0,1-1.47-1.47,19,19,0,0,1-2.79-3.92c-.69-1.48-.4-3.94.9-4.92A2.19,2.19,0,0,1,27.23,55.58Z"/>
      <path class="cls-10" d="M70.2,54.94a7.3,7.3,0,0,1,1.25-7.75A14.43,14.43,0,0,1,80.86,42a8.75,8.75,0,0,1,9,5.42A8.08,8.08,0,0,1,87,56.69a15.93,15.93,0,0,1-9.61,3C73.56,59.39,71.35,57.82,70.2,54.94Z"/>
      <path class="cls-10" d="M42.9,61.85a7.61,7.61,0,0,1,2.86-8.09,13.93,13.93,0,0,1,11.72-2.42,6.58,6.58,0,0,1,5.16,5.23c.69,2.91.51,5.7-2,7.73a16.06,16.06,0,0,1-10,3.56C46.3,67.44,44,65.41,42.9,61.85Z"/>
      <g>
        <path class="cls-11" d="M77.64,49.68A5.76,5.76,0,1,1,82.76,56,5.77,5.77,0,0,1,77.64,49.68Zm9.19-3c-.77-.62-1.59-.51-2.58.33a3.57,3.57,0,0,0-3.64,1,4,4,0,0,0-.27,4.92A3.74,3.74,0,0,0,85,54.09a4,4,0,0,0,2.19-4.31c0-.17-.06-.34-.08-.51C87.68,48.08,87.6,47.27,86.83,46.67Z"/>
        <path class="cls-12" d="M84.25,47a3.57,3.57,0,0,0-3.64,1,4,4,0,0,0-.27,4.92A3.74,3.74,0,0,0,85,54.09a4,4,0,0,0,2.19-4.31c0-.17-.06-.34-.08-.51a1.87,1.87,0,0,1-2.47.16A1.82,1.82,0,0,1,84.25,47Z"/>
        <path class="cls-10" d="M84.25,47a1.82,1.82,0,0,0,.39,2.43,1.87,1.87,0,0,0,2.47-.16c.57-1.19.49-2-.28-2.6S85.24,46.16,84.25,47Z"/>
      </g>
      <g>
        <path class="cls-11" d="M59.93,63.27a5.75,5.75,0,1,1,.84-8.07A5.73,5.73,0,0,1,59.93,63.27ZM52.62,60c.07.16.15.31.22.47A3.92,3.92,0,0,0,57,62.92a3.73,3.73,0,0,0,3.24-3.55,4,4,0,0,0-2.91-4,3.57,3.57,0,0,0-3.58,1.18c-1.29-.16-2,.2-2.34,1.14S51.49,59.36,52.62,60Z"/>
        <path class="cls-12" d="M53.77,56.57a3.57,3.57,0,0,1,3.58-1.18,4,4,0,0,1,2.91,4A3.73,3.73,0,0,1,57,62.92a3.92,3.92,0,0,1-4.18-2.41c-.07-.16-.15-.31-.22-.47,1,0,1.82-.17,2.15-1.22A1.82,1.82,0,0,0,53.77,56.57Z"/>
        <path class="cls-10" d="M53.77,56.57a1.82,1.82,0,0,1,1,2.25c-.33,1-1.19,1.24-2.15,1.22-1.13-.68-1.5-1.41-1.19-2.33S52.48,56.41,53.77,56.57Z"/>
      </g>
      <path class="cls-13" d="M79,70.55s.43-.79-.35-.14a18.51,18.51,0,0,1-5.11,2.72,18.12,18.12,0,0,1-5.81,1A8.76,8.76,0,0,1,65.9,74c-.18,0-.19.17.1.25s2.86.51,3.71,1.2a2.83,2.83,0,0,0,2.21.42,10.53,10.53,0,0,0,3.88-1.42C77,73.36,76.69,72.35,79,70.55Z"/>
      <path class="cls-14" d="M79,69.91s0,1-2.59,2.47A17.56,17.56,0,0,1,69,74.59,8.26,8.26,0,0,1,65.75,74Z"/>
      <path class="cls-15" d="M76.3,73.83s-2.52,1.09-3,1.25-2.9.62-3.56,1.19S75.76,76.52,76.3,73.83Z"/>
      <path class="cls-16" d="M63,74.1c1,.38,2.36.48,3.54,1.44a15,15,0,0,0,1.34,1.19c.31.18.76.7,1.12.78a9.19,9.19,0,0,0,3.62.17,20.47,20.47,0,0,0,2.67-.79,5.83,5.83,0,0,0,2.6-1.58,2,2,0,0,0,.38-.52,3.26,3.26,0,0,0,.21-1,8.19,8.19,0,0,1,2.1-4.66.1.1,0,0,0-.12-.15l-1.21.59a2.8,2.8,0,0,1-.63.23,13.11,13.11,0,0,1-1.57.3,14.6,14.6,0,0,0-2.19.42c-1,.26-2.87.87-3.84,1.2C68,72.73,65.58,73.78,63,74.1ZM65.9,74a8.76,8.76,0,0,0,1.83.13,18.12,18.12,0,0,0,5.81-1,18.51,18.51,0,0,0,5.11-2.72c.78-.65.35.14.35.14-2.31,1.8-2,2.81-3.2,3.91a10.53,10.53,0,0,1-3.88,1.42,2.83,2.83,0,0,1-2.21-.42c-.85-.69-3.42-1.13-3.71-1.2S65.72,74,65.9,74Z"/>
      <path class="cls-11" d="M68,67.19c3.25.57,6-2,7-4.47.39-1-.07-1.58-1.15-1.41a5,5,0,0,0-1,.28,47.39,47.39,0,0,1-7.48,2.35c-.5.12-1.09.23-1.22.83s.38,1,.83,1.32A5.46,5.46,0,0,0,68,67.19Z"/>
      <path class="cls-1" d="M79.93,34.91a12.52,12.52,0,0,0-8.31,2.18,8.27,8.27,0,0,0-.63.55.85.85,0,0,0-.28,1c.19.42.6.23.92.14l3.2-1c3.75-1.18,7.28-.41,10.71,1.21a7.19,7.19,0,0,0,1.17.44c.28.07.65.25.86-.1s0-.61-.19-.88a5.73,5.73,0,0,0-2.22-1.87A14.47,14.47,0,0,0,79.93,34.91Z"/>
      <path class="cls-1" d="M40.31,52.51c-.07.77-.24,1.58.37,1.78s.88-.64,1.16-1.12a39.9,39.9,0,0,1,2.09-3.5,13.69,13.69,0,0,1,6.91-4.86c.69-.25,1.38-.51,2.06-.78.28-.12.62-.28.58-.65s-.42-.5-.77-.57a6.18,6.18,0,0,0-2.9.15,13.15,13.15,0,0,0-9.34,8.81A5.37,5.37,0,0,0,40.31,52.51Z"/>
      <g>
        <path class="cls-17" d="M91.31,127.67s12.63,18.92,12.22,28.48c-.3,3.4-.52-5.44-15.66-28.1Z"/>
        <path class="cls-17" d="M84.05,127.69s1.47,27.23-1,38.81c0,0-2.73-32.33-3.89-38.5Z"/>
        <path class="cls-17" d="M87.16,128s9.87,28.45,9,34.85a74.08,74.08,0,0,0-6-35.25Z"/>
        <path class="cls-18" d="M88.62,127.41s9.58,24.43,10.15,33.94c0,0,4.53-11.66-8.1-34.49Z"/>
        <path class="cls-17" d="M79.36,128.26s1.07,27.81-1.48,39.66c0,0-2.22-33-3.26-39.29Z"/>
        <path class="cls-17" d="M79,128.91s-1.65,27.74-5.36,39.37c0,0,1-33,.59-39.31Z"/>
        <path class="cls-17" d="M83.69,129l.06.27c.67,3.08,6.78,31.31,6.11,37.46,0,0,.87-22.16-1.68-38"/>
        <path class="cls-19" d="M90,127s5.39,27,4.74,38.79c0,0-7.33-31.94-9.34-38Z"/>
        <path class="cls-18" d="M86.3,127.53s1.47,27.23-1,38.81c0,0-2.73-32.33-3.89-38.5Z"/>
        <path class="cls-19" d="M82.19,128.33s1.07,27.8-1.49,39.65c0,0-2.21-33-3.25-39.29Z"/>
        <path class="cls-19" d="M52.54,124.67S36.39,146.21,33.16,155.3c0,0-1.11-12.29,17.56-31.62Z"/>
        <path class="cls-17" d="M54.5,125.39S38.35,146.94,35.12,156c0,0-1.1-12.29,17.56-31.61Z"/>
        <path class="cls-17" d="M56.6,126s-9.09,26.05-9.94,37.82c0,0,11.75-30.71,14.61-36.43Z"/>
        <path class="cls-17" d="M56.91,126.83l-.14.25C55.25,129.92,41.38,155.9,40.3,162c0,0,5.4-21.65,12.32-36.39"/>
        <path class="cls-18" d="M51.34,123.57s-12.83,25-15.52,36.52c0,0,16.1-29.31,19.74-34.71Z"/>
        <path class="cls-19" d="M54.78,124.87s-9.1,26-9.94,37.81c0,0,11.74-30.71,14.61-36.43Z"/>
        <path class="cls-17" d="M62.47,126.84s-6.71,24.69-2,39.66c0,0,6.19-30.05,5.74-39.2Z"/>
        <path class="cls-17" d="M69,126.91s-6.7,24.7-2,39.66c0,0,6.18-30,5.73-39.2Z"/>
        <path class="cls-18" d="M74.47,127.31s-6.7,24.7-2,39.66c0,0,6.18-30.05,5.74-39.2Z"/>
        <path class="cls-17" d="M59.13,125.9s-6.22,27.22-5.9,39.3c0,0,8.31-32.16,10.5-38.19Z"/>
        <path class="cls-18" d="M58.54,126.55s-8.87,26.69-9.74,38.73c0,0,11.44-31.47,14.23-37.33Z"/>
        <path class="cls-19" d="M61.5,127.83s-6.22,27.22-5.9,39.3c0,0,8.31-32.16,10.5-38.19Z"/>
        <path class="cls-19" d="M74.16,128.32s2.33,25.38-4.92,39.44c0,0-.89-30.59,1.14-39.55Z"/>
        <path class="cls-18" d="M65.85,127.84s-7.06,24.65-1.45,39.73c0,0,6.37-30,5.68-39.22Z"/>
        <path class="cls-19" d="M90.79,123.18a1.09,1.09,0,0,1-.92.74c-.81.16-5.16,2-23.22.7,0,0-11.45-.85-15.94-2.94,0,0-.34-.31-.83.59a31.05,31.05,0,0,0-1.49,2.91c.15.58.06.61.76.75,0,0,6.62,2.56,19.38,3.09s21.43-.4,22.87-.82c.72-.21.55-2,.44-2.33S91.28,123.1,90.79,123.18Z"/>
      </g>
    </g>
  </g>
</svg>
