<svg xmlns="http://www.w3.org/2000/svg" viewBox="0 0 405.68 595.74">
  <defs>
    <style>
      .cls-1 {
        fill: #0c0807;
      }

      .cls-2 {
        fill: #a56737;
      }

      .cls-3 {
        fill: #a46636;
      }

      .cls-4 {
        fill: #488dcb;
      }

      .cls-5 {
        fill: #d42027;
      }

      .cls-6 {
        fill: #21b14b;
      }

      .cls-7 {
        fill: #fde500;
      }

      .cls-8 {
        fill: #9a5b2a;
      }

      .cls-9 {
        fill: #6c401d;
      }

      .cls-10 {
        fill: #faf8f7;
      }

      .cls-11 {
        fill: #522f27;
      }

      .cls-12 {
        fill: #060504;
      }

      .cls-13 {
        fill: #600b0c;
      }

      .cls-14 {
        fill: #f2ecec;
      }

      .cls-15 {
        fill: #fff;
      }

      .cls-16 {
        fill: #734725;
      }
    </style>
  </defs>
  <title>p25</title>
  <g id="character">
    <g>
      <path class="cls-1" d="M240.27,557.14c3.1,2.39,3.17,2.32,5.73-.76,7-8.46,16.06-14,26.09-18.15a55,55,0,0,0,9.63,7,125.62,125.62,0,0,1,12.18,7.59C299,556.38,304,560,307.56,565.15c5.5,7.83,5,23.36-8.5,28.62-5.63,2.2-11.5,2.12-17.35,1.8-11.09-.59-21.71-3.08-30.89-9.64a18.16,18.16,0,0,0-9-3.45c-8.14-.93-14.54-4.61-17.09-13-2.47-8.11-1.13-16,1.86-23.73.27-.67.57-1.55,1.66-1C230.8,550.27,235.66,553.6,240.27,557.14Zm42.46,11.29c5.83-3.66,7-8.53,3.56-14.49a38.34,38.34,0,0,0-6.82-8c-1.2-1.15-2.41-.9-3.79-.52-7.67,2.15-13.32,7.22-18.41,13-1.69,1.91-4.87,3.88-4.23,6.16.54,1.91,4.2,2.38,6.5,3.43,3.73,1.7,7.46,3.45,12.47,3.41C275.24,571.08,279.21,570.64,282.73,568.43Z"/>
      <path class="cls-1" d="M139,542.3c6.95,4.27,13.27,9.22,17.93,16,1.09,1.59,2.09,1.62,3.61.66A44.45,44.45,0,0,0,174,546.65c4,9.59,2.15,19.14-1.43,28.12-3,7.53-10.1,9.8-17.88,9.62a6.56,6.56,0,0,0-3.9.8,64.77,64.77,0,0,1-39.12,9.66c-6.06-.38-11.64-1.91-16.14-6.51-5.75-5.87-7.39-21.14,2.1-28.76,2.28-1.84,4.55-3.69,6.84-5.51,8-6.31,18-9.28,25.62-16.21.12-.11.37-.09.56-.13C133.13,539.77,136.27,540.63,139,542.3Zm9.09,23.16c.9-.36,1.17-.94.5-1.8-6.08-7.94-12.36-15.63-22.49-18.75a3.37,3.37,0,0,0-3.93.85c-2.43,2.52-5,4.83-6.85,7.93-4,6.91-.78,12.46,5.4,15.2a21.1,21.1,0,0,0,10,2C137,570.81,142.41,567.73,148.08,565.46Z"/>
      <path class="cls-2" d="M228.26,544.73c2.54,5.54,7.4,8.87,12,12.41,3.1,2.39,3.17,2.32,5.73-.76,7-8.46,16.06-14,26.09-18.15-3.81-5-4.66-11.09-6-17-1.77-7.7-3.37-15.44-5.05-23.16-5.88.41-11.71,1.53-17.64,1.15-5.41-.35-10.82-.63-16.23-.94.83,10.79,2,21.57,2.09,32.41A78.12,78.12,0,0,1,228.26,544.73Z"/>
      <path class="cls-2" d="M130.62,537.73c2.51,2,5.65,2.9,8.37,4.57,6.95,4.27,13.27,9.22,17.93,16,1.09,1.59,2.09,1.62,3.61.66A44.45,44.45,0,0,0,174,546.65c-1.63-8.64.69-17,1.72-25.49.59-4.93,1.15-9.85,1.73-14.78-11.87,1.11-23.68,1.07-35.32-2-2.45,8.63-4.21,17.45-7.6,25.81C133.43,532.86,131.88,535.21,130.62,537.73Z"/>
      <path class="cls-2" d="M272,571.39c3.23-.31,7.2-.75,10.72-3,5.83-3.66,7-8.53,3.56-14.49a38.34,38.34,0,0,0-6.82-8c-1.2-1.15-2.41-.9-3.79-.52-7.67,2.15-13.32,7.22-18.41,13-1.69,1.91-4.87,3.88-4.23,6.16.54,1.91,4.2,2.38,6.5,3.43C263.27,569.68,267,571.43,272,571.39Z"/>
      <path class="cls-2" d="M130.67,570.93c6.32-.12,11.74-3.2,17.41-5.47.9-.36,1.17-.94.5-1.8-6.08-7.94-12.36-15.63-22.49-18.75a3.37,3.37,0,0,0-3.93.85c-2.43,2.52-5,4.83-6.85,7.93-4,6.91-.78,12.46,5.4,15.2A21.1,21.1,0,0,0,130.67,570.93Z"/>
      <g>
        <path class="cls-3" d="M390.72,167.36c-7.28,5.38-12.63,12.06-20,19.91-.4.43-1.23.13-1.12-.44,1.1-5.68,6.3-16.51,4.6-24.12a2.93,2.93,0,0,0-2.43-2.14c-2.06-.32-3.57,2.3-4.75,4.33L358.74,187c-.79,1.6-.85,2.7-1.83,2.42s.07-2,0-2.73a61.23,61.23,0,0,1-.43-9.57,17.06,17.06,0,0,0-1.31-4.18,2.77,2.77,0,0,0-4.62.43c-1.95,3.23-2.64,7-3.3,10.74-1,5.69-1.86,11.57-2.87,17.26-.54,3-.52,5.44-2.83,7.86-2.91,3-6.8,7.27-9.94,10-16,14.14-28.46,23.88-47.51,34.46-3.67,2-8.7,4.09-9.05,8.27a8.65,8.65,0,0,0,1,4.45,11.75,11.75,0,0,0,6.78,6.45c6.57,2.27,13.36-1.52,20-4.69a445.75,445.75,0,0,0,56-31.74c3.29-2.19,6.17-5.22,10.09-5.67,7.91-.92,16.79-1.51,24.42-4.87a3.9,3.9,0,0,0,2.18-4.9c-.73-1.83-2.48-2.82-4.39-3.35a62.41,62.41,0,0,1-8.79-3.14c-1.77-1.55,1.8-4.39,4.31-5.65a64.5,64.5,0,0,0,15-10.76c2.23-2.08,5.23-4.59,3.47-7.08-1-1.37-3.58-1.15-5.22-.81a40.33,40.33,0,0,0-6.21,2.38,131.22,131.22,0,0,1-13.17,5.51c-1.33-.48,3.81-7.13,9.39-16.14.38-.62,8.79-13.47,6-15.65C394.74,165.35,392,166.43,390.72,167.36Z"/>
        <path class="cls-4" d="M261.66,289.7a14.9,14.9,0,0,0,4.78-1.92c3.06-1.8,1.47.71,4.51-1.78a39.53,39.53,0,0,1,13.76-7,6.45,6.45,0,0,0,2.86-1.4,6.29,6.29,0,0,0,.86-3c.34-5.71-1.12-9.81-3.95-14.51-1.65-2.76-3.58-5.16-5.39-7.82-.89-1.3-1.72-2.38-3.27-2.59a14.53,14.53,0,0,0-3.86.56c-5.08,1.44-9.28,1.51-14.56,1.79-5.8.31-10.22,1.47-14.36,4.75a25.83,25.83,0,0,0-6.52,8.41c-2.05,3.9-1.1,1.94-1.21,6.34a16.05,16.05,0,0,0,4.5,12,26.09,26.09,0,0,0,6.24,4,24,24,0,0,0,7.64,2.9A23.91,23.91,0,0,0,261.66,289.7Z"/>
      </g>
      <g>
        <path class="cls-3" d="M15.43,165.75C22.61,171.27,27.84,178,35,186c.39.44,1.22.16,1.12-.42-1-5.69-6-16.62-4.15-24.2a2.92,2.92,0,0,1,2.47-2.09c2.07-.29,3.53,2.36,4.67,4.41L47,186c.76,1.61.8,2.71,1.79,2.45s0-2,0-2.73a60,60,0,0,0,.61-9.56A17,17,0,0,1,50.86,172a2.78,2.78,0,0,1,4.62.52c1.88,3.26,2.51,7.08,3.1,10.8.9,5.71,1.64,11.6,2.55,17.31.47,3,.41,5.45,2.68,7.91,2.85,3.07,6.65,7.39,9.75,10.22,15.75,14.44,28,24.41,46.86,35.33,3.63,2.11,8.62,4.26,8.89,8.44a8.64,8.64,0,0,1-1.05,4.44,11.78,11.78,0,0,1-6.89,6.32c-6.62,2.15-13.34-1.77-19.93-5.06A445.83,445.83,0,0,1,46,235.43c-3.24-2.25-6.07-5.34-10-5.87-7.9-1.06-16.76-1.82-24.32-5.31a3.9,3.9,0,0,1-2.09-4.94c.76-1.82,2.53-2.77,4.44-3.27a64.48,64.48,0,0,0,8.86-3c1.8-1.52-1.72-4.43-4.21-5.73a65.21,65.21,0,0,1-14.83-11c-2.19-2.12-5.15-4.69-3.34-7.15,1-1.35,3.6-1.08,5.23-.71a39.08,39.08,0,0,1,6.17,2.5A130.82,130.82,0,0,0,25,196.68c1.33-.44-3.68-7.19-9.09-16.3-.37-.63-8.54-13.64-5.73-15.77C11.45,163.67,14.19,164.8,15.43,165.75Z"/>
        <path class="cls-4" d="M144.57,296.73a15,15,0,0,1-4.75-2c-3-1.86-3.85-5.58-6.84-8.13a39.39,39.39,0,0,0-13.63-7.25,6.5,6.5,0,0,1-2.83-1.46,6.21,6.21,0,0,1-.81-3.06c-.23-5.72,1.3-9.79,4.22-14.44,1.71-2.73,3.67-5.1,5.54-7.72.91-1.28,1.76-2.35,3.31-2.53a14.64,14.64,0,0,1,3.86.64c5.05,1.53,9.25,1.67,14.51,2,5.8.42,10.2,1.67,14.27,5a25.67,25.67,0,0,1,6.37,8.53A29,29,0,0,1,171.26,279a16.09,16.09,0,0,1-4.73,11.93,25.67,25.67,0,0,1-6.31,3.89,24.13,24.13,0,0,1-7.69,2.76A23.92,23.92,0,0,1,144.57,296.73Z"/>
      </g>
      <path d="M213.84,230.1s27.73,19.05,36.9,36.59c0,0-2.83-34.68-1.82-44.63,0,0,20.64,31,46.42,33.61a50.72,50.72,0,0,1-20-47.15s43.54-20.57,61.24-62.18c0,0-20.19-41.49-26.77-48.51,0,0,10.09-34.49-2.65-50.67,0,0-36.7-18.55-58.2-13.13,0,0-16.85-25.73-48.56-34,0,0-47.9,11.7-58.83,37.09,0,0-49.19,13.13-56.44,16.18,0,0-14.12,33-3.71,54.43,0,0-17.53,29.82-15.16,44.07,0,0,23.68,35.14,49.9,44.85s-1.09,68-1.09,68,25.69-26,41.65-32c0,0-5.13,18-6.6,35.39C150.11,268,179.79,224,213.84,230.1Z"/>
      <path class="cls-4" d="M273.7,495.15s-17,5.91-35.31,4.12-23.48-.36-26.88.36-29.4,8.06-42.3,7.7-29.39.9-39.25-8.6a381.16,381.16,0,0,0,5.74-50.18c1.25-27.42,6.81-61.11,11.47-78.86s4.3-64,4.3-64-5.27-33,.36-42.65c6.09-10.4,28.31-11.65,49.1-11.47s41.4,5.55,47,7.34,9.68,53.23,10.39,63.63.18,53.76,1.8,68.28,6.63,45,7.16,60S273.7,495.15,273.7,495.15Z"/>
      <polygon class="cls-5" points="161.77 260.9 172.79 258.34 237.79 256.31 244.12 256.9 242.21 290.71 168.01 292.63 161.77 260.9"/>
      <path class="cls-6" d="M169.81,258.81l8.63-2.65,52.06-1.77c1.17.07,3.47,1.2,3.59,1.08l3.58.6-2.39,26.64-61.05,1.08Z"/>
      <polygon class="cls-7" points="177.9 256.15 189.46 252.75 224.05 252.24 230.5 254.15 228.23 275.66 180.56 276.38 177.9 256.15"/>
      <path class="cls-3" d="M221.3,269.69l2.39-16.49s-5.49-.72-7.4-5.38-4.43-10.51-16.49-10c-11.65.46-8.73,5.61-9.26,7.79a52.47,52.47,0,0,0-.9,5.47s0,3.31-3.94,4.39c-2.94.8,1.91,13.41,1.91,13.41Z"/>
      <path class="cls-8" d="M300,133.57l-3.68-21.37s.17-2.86,1.84-4.28,8.61-7.77,8.61-7.77-9.38,1.24-12.56,3.63c-1.21.19-1.59,1.2-2.85-.55s-16.51-21.14-16.51-21.14-26.55-12.25-30.14-14.6-4.48-3-3.73-7.49,3.18-15.13,3.78-17.08c0,0-9.21,18-10.13,20.46s-3.7,1.05-4.37.81-32.59-9-32.59-9-1.08-.53-4.13.13-28.75,7.45-33.18,10.14c-1.61.55-2.35.15-2.86-.55s-12.25-11.29-14.82-16.06c0,0,6.36,14.84,6.61,17.61.93,2.64-1.06,2.16-1.64,2.7s-20.27,12.76-20.27,12.76l-11.46,26.84s-20-4.2-26.82-.5c0,0,11.45-1,21.76,4.88,0,0-4.59,12.06-3.59,17.27-3.43,33.38,1.72,53.89,7.11,66.84,11.37,22.3,40.7,40.8,58.19,47.27,26.62,8.34,39.46,7,65.6-1.71,8.11-7.44,38.48-13.78,56.09-62.05Z"/>
      <path class="cls-8" d="M300.34,180.7c-1.77.4-4.43.48-5.41-.09-1.44-.83-2.23-2.86-3-4.33-3.51-6.69-2.33-14.77-1.07-22.22l1.15-6.79a39.17,39.17,0,0,1,2.23-8.91,13.82,13.82,0,0,1,6-7c2.79-1.41,4.65-1.33,7.77-1.14,2.74.17,6.89,1,9,2.76a13.2,13.2,0,0,1,4.42,6.9A39.76,39.76,0,0,1,322.8,152c-.13,3.77-1.74,7.75-3.2,11.23a34.65,34.65,0,0,1-8.28,12C307.63,178.81,304.69,179.73,300.34,180.7Z"/>
      <path class="cls-9" d="M308.08,137.4a9.23,9.23,0,0,0-3.71.4,24.46,24.46,0,0,0-5,2.74c-.13-1.38.91-2.43,2.2-4.1a7.71,7.71,0,0,1,2.29-2,8.67,8.67,0,0,1,4.43-1c4.79.1,8.7,3.44,10.52,7.87s.17,9.59-1.28,14.15c-3.45,10.88-8.83,17-14.36,20-.24.14-5.12,3.52-7.31,1.83a3.73,3.73,0,0,1-.69-.84,5.85,5.85,0,0,1-.83-4.32,3.62,3.62,0,0,1,3.54-2.83c-.58,1.56-.52,3.28.86,4.2a2.76,2.76,0,0,0,1.43.28,16.84,16.84,0,0,0,3.05-1.55c2.54-1.32,3.5-2.62,5.1-5a36,36,0,0,0,2.89-5.05c1.65-3.59,3.82-8.26,4.57-12.66s-1.25-10.05-5.51-11.72A6.31,6.31,0,0,0,308.08,137.4Z"/>
      <path class="cls-8" d="M104.68,178c1.78.36,4.41,1.43,5.38.85,1.42-.86,2.17-2.91,2.91-4.39,3.36-6.77,2-14.82.61-22.24l-1.29-6.77a39.66,39.66,0,0,0-2.42-8.86c-1.26-2.8-1.92-5.33-4.69-6.66s-7.26-2.67-10.38-2.41c-2.74.23-6.64.64-8.73,2.41s-2.64,5.94-3.39,8.75c-1,3.89-.66,7.89-.43,11.9.21,3.77,2.2,7.88,3.74,11.33,2.07,4.64,5.85,7,9.61,10.43S100.32,177.16,104.68,178Z"/>
      <path class="cls-9" d="M96.45,134a9.21,9.21,0,0,1,3.71.31,24.56,24.56,0,0,1,5,2.65c.1-1.39-1-2.42-2.28-4.06a7.86,7.86,0,0,0-2.33-2,8.84,8.84,0,0,0-4.46-.87c-4.78.2-8.62,3.62-10.34,8.08s.1,12,1.64,16.56c3.68,10.82,9.49,16.15,15.08,19.09.25.13,5.2,3.41,7.35,1.68a4,4,0,0,0,.68-.86,5.84,5.84,0,0,0,.73-4.33,3.6,3.6,0,0,0-3.59-2.76c.61,1.54.58,3.26-.78,4.22a2.62,2.62,0,0,1-1.42.3,16.4,16.4,0,0,1-3.08-1.48,17.39,17.39,0,0,1-6.19-5.78,35,35,0,0,1-3-5c-1.72-3.56-4-8.18-4.83-12.57s1.64-11,5.86-12.72A6.26,6.26,0,0,1,96.45,134Z"/>
      <path class="cls-10" d="M213.46,162.13c-1.08-8.34,2-15.27,8.77-20.16a40.37,40.37,0,0,1,29.1-7.48c10.38,1.19,20,10.67,20.78,21,.62,8.2-3.12,18.61-14.27,23.08a44.88,44.88,0,0,1-28.19,1.57C219.48,176.53,214.57,170.74,213.46,162.13Z"/>
      <path class="cls-10" d="M134.59,161.92c-.3-8.18,5.06-16.63,13.38-20a39.13,39.13,0,0,1,33.48,1.59c7,3.56,10.51,9.86,10.37,17.77-.15,8.36-2.59,15.82-10.9,19.55a45.1,45.1,0,0,1-29.71,2.68C139.94,179.43,135,172.3,134.59,161.92Z"/>
      <g>
        <path class="cls-11" d="M227.52,153.14A16.13,16.13,0,1,1,237,173.75,16.16,16.16,0,0,1,227.52,153.14Zm27-1.79c-1.66-2.19-4-2.48-7.24-.9-2.33-2-7.71-1.94-10.54.09a11.34,11.34,0,0,0-4.14,13.18c1.89,4.77,6.41,7.26,11.79,6.5,4.71-.67,8.45-4.94,8.93-10.17,0-.48.09-1,.14-1.44C255.86,155.79,256.19,153.53,254.54,151.35Z"/>
        <path class="cls-12" d="M247.3,150.45c-2.33-2-7.71-1.94-10.54.09a11.34,11.34,0,0,0-4.14,13.18c1.89,4.77,6.41,7.26,11.79,6.5,4.71-.67,8.45-4.94,8.93-10.17,0-.48.09-1,.14-1.44-2.52.93-5,1.2-6.79-1.29S245.46,152.6,247.3,150.45Z"/>
        <path class="cls-10" d="M247.3,150.45c-1.84,2.15-2.35,4.48-.61,6.87s4.27,2.22,6.79,1.29c2.38-2.82,2.71-5.08,1.06-7.26S250.57,148.87,247.3,150.45Z"/>
      </g>
      <g>
        <path class="cls-11" d="M148.06,164.31a16.09,16.09,0,1,1,18.21,13.56A16,16,0,0,1,148.06,164.31Zm18.22-13-1.45-.15c-5.21-.62-10.16,2.17-11.79,6.63-1.86,5.11-.35,10.05,3.93,12.88a11.33,11.33,0,0,0,13.75-1.33c2.56-2.35,3.72-7.61,2.26-10.3,2.22-2.87,2.42-5.19.61-7.27S169.52,149.6,166.28,151.34Z"/>
        <path class="cls-12" d="M173,159.07c1.46,2.69.3,8-2.26,10.3A11.33,11.33,0,0,1,157,170.7c-4.28-2.83-5.79-7.77-3.93-12.88,1.63-4.46,6.58-7.25,11.79-6.63l1.45.15c-1.44,2.28-2.21,4.63-.15,6.91S170.5,160.43,173,159.07Z"/>
        <path class="cls-10" d="M173,159.07c-2.48,1.36-4.87,1.38-6.85-.82s-1.29-4.63.15-6.91c3.24-1.74,5.52-1.6,7.31.46S175.2,156.2,173,159.07Z"/>
      </g>
      <path class="cls-13" d="M223.1,212.82s1.7-1.85-.85-.63A51.53,51.53,0,0,1,190,214.73a26.93,26.93,0,0,1-4.88-1.62c-.47-.11-.63.34.11.74s7.41,3.38,9.24,5.84,5,2.55,5.7,2.68,7.34.49,11.51-1.15C215.69,219.06,215.58,216.09,223.1,212.82Z"/>
      <path class="cls-14" d="M223.61,211.1s-.52,2.61-8.76,4.91a49.15,49.15,0,0,1-21.77.8,22.76,22.76,0,0,1-8.3-3.9Z"/>
      <path class="cls-15" d="M213.49,219.84s-7.58,1.21-9.13,1.27-8.29-.33-10.48.77S210.17,226.76,213.49,219.84Z"/>
      <path class="cls-16" d="M177.33,211.36c2.36,1.7,6,2.94,8.6,6.37.78,1,1.87,3.24,2.79,4.15.72.72,1.6,2.42,2.5,2.9a25.69,25.69,0,0,0,9.7,3c2.6.28,5.23-.17,7.81-.27a16.27,16.27,0,0,0,8.13-2.47,6.22,6.22,0,0,0,1.39-1.16,9.47,9.47,0,0,0,1.3-2.65A23,23,0,0,1,228.47,210a.27.27,0,0,0-.2-.49c-.92.19-1.8.36-3.71.77a8.44,8.44,0,0,1-1.88.18,36.49,36.49,0,0,1-4.47-.28,41.74,41.74,0,0,0-6.22-.4c-2.86,0-8.4.4-11.25.62C191.74,211.11,184.44,212.28,177.33,211.36Zm7.82,1.75a26.93,26.93,0,0,0,4.88,1.62,51.53,51.53,0,0,0,32.22-2.54c2.55-1.22.85.63.85.63-7.52,3.27-7.41,6.24-11.39,8.4-4.17,1.64-10.8,1.29-11.51,1.15s-3.87-.22-5.7-2.68-8.5-5.44-9.24-5.84S184.68,213,185.15,213.11Z"/>
      <path class="cls-11" d="M198.85,193.78c8.41,3.82,17.73-1.25,22-7.29,1.78-2.54.9-4.33-2.15-4.6a13,13,0,0,0-2.92,0,134.92,134.92,0,0,1-21.91,1.2c-1.47,0-3.13-.14-3.91,1.39-.86,1.69.37,3,1.36,4.17A15.3,15.3,0,0,0,198.85,193.78Z"/>
      <path class="cls-1" d="M253.73,114.55c-7.65-2.25-15.84-3.27-24,.14a18.57,18.57,0,0,0-2.08,1.07,2.35,2.35,0,0,0-1.43,2.36c.23,1.28,1.46,1.06,2.4,1q4.68-.17,9.34-.41c11-.58,20,4,28.24,10.72a17.74,17.74,0,0,0,2.86,2c.71.4,1.57,1.12,2.38.31s.35-1.67.1-2.49c-.81-2.73-2.77-4.73-4.71-6.61A40.07,40.07,0,0,0,253.73,114.55Z"/>
      <path class="cls-1" d="M134.07,134.78c-.74,2.05-1.76,4.12-.23,5.09,1.71,1.07,2.83-1.14,3.91-2.24,2.65-2.73,5.19-5.57,8.11-8,6.39-5.39,13.94-7.69,22.11-8.4,2-.18,4.08-.4,6.12-.68.86-.12,1.88-.32,2-1.36.19-1.2-.79-1.65-1.7-2.08a17.24,17.24,0,0,0-8-1.59c-13.44.43-24,6-31.44,17.4A14.47,14.47,0,0,0,134.07,134.78Z"/>
    </g>
  </g>
</svg>
