<svg xmlns="http://www.w3.org/2000/svg" viewBox="0 0 136.26 181.22">
  <defs>
    <style>
      .cls-1 {
        fill: #0c0807;
      }

      .cls-2 {
        fill: #a56737;
      }

      .cls-3 {
        fill: #a46636;
      }

      .cls-4 {
        fill: #488dcb;
      }

      .cls-5 {
        fill: #d42027;
      }

      .cls-6 {
        fill: #21b14b;
      }

      .cls-7 {
        fill: #fde500;
      }

      .cls-8 {
        fill: #9a5b2a;
      }

      .cls-9 {
        fill: #6c401d;
      }

      .cls-10 {
        fill: #faf8f7;
      }

      .cls-11 {
        fill: #522f27;
      }

      .cls-12 {
        fill: #060504;
      }

      .cls-13 {
        fill: #600b0c;
      }

      .cls-14 {
        fill: #f2ecec;
      }

      .cls-15 {
        fill: #fff;
      }

      .cls-16 {
        fill: #734725;
      }
    </style>
  </defs>
  <title>p17</title>
  <g id="character">
    <g>
      <path class="cls-1" d="M76.34,168.7c1,.77,1,.75,1.81-.2A20.48,20.48,0,0,1,86.51,163a16.61,16.61,0,0,0,3,2.3,41,41,0,0,1,3.78,2.48,16.61,16.61,0,0,1,4.21,4c1.67,2.51,1.39,7.4-2.9,8.95a12.72,12.72,0,0,1-5.48.43,17.86,17.86,0,0,1-9.65-3.28,5.85,5.85,0,0,0-2.81-1.15c-2.56-.36-4.54-1.57-5.28-4.22a11.17,11.17,0,0,1,.77-7.46c.09-.21.19-.48.53-.32C73.41,166.46,74.91,167.55,76.34,168.7Zm13.28,3.88c1.87-1.11,2.28-2.63,1.24-4.54a12.26,12.26,0,0,0-2.09-2.57,1.09,1.09,0,0,0-1.19-.19,12.33,12.33,0,0,0-5.9,3.94c-.55.59-1.56,1.19-1.38,1.91s1.3.78,2,1.13a8.89,8.89,0,0,0,3.9,1.17A7.42,7.42,0,0,0,89.62,172.58Z"/>
      <path class="cls-1" d="M35.52,140.9a18,18,0,0,1-1.9,7.33c-.29.53-.15.82.33,1.1a14,14,0,0,0,5.39,2c-2.11,2.51-5.05,3.36-8.08,3.65-2.54.25-4.2-1.41-5.27-3.62a2,2,0,0,0-.79-1,20.39,20.39,0,0,1-8.34-9.57,7.37,7.37,0,0,1-.5-5.46c.82-2.46,4.86-5.12,8.36-3.55l2.53,1.12c2.92,1.32,5.2,3.72,8.23,4.84.05,0,.08.1.12.14A23.23,23.23,0,0,0,35.52,140.9Zm-5.18,5.88c.24.2.44.19.58-.12,1.35-2.85,2.6-5.71,2-9a1.08,1.08,0,0,0-.81-1,13.33,13.33,0,0,0-3.21-.78c-2.51-.14-3.6,1.58-3.48,3.7a6.77,6.77,0,0,0,.86,3.09C27.25,144.44,28.89,145.52,30.34,146.78Z"/>
      <path class="cls-2" d="M72.65,164.69c.76,1.77,2.26,2.86,3.69,4,1,.77,1,.75,1.81-.2A20.48,20.48,0,0,1,86.51,163c-1.16-1.6-1.39-3.52-1.77-5.38-.5-2.44-.94-4.89-1.41-7.34a39.72,39.72,0,0,1-5.56.23l-5.11-.42c.18,3.4.47,6.81.41,10.22A24.94,24.94,0,0,1,72.65,164.69Z"/>
      <path class="cls-2" d="M35.6,137.89a23.23,23.23,0,0,0-.08,3,18,18,0,0,1-1.9,7.33c-.29.53-.15.82.33,1.1a14,14,0,0,0,5.39,2c2.19-1.7,4.87-2.25,7.39-3.18l4.4-1.65a31.94,31.94,0,0,1-4.54-10.18,76,76,0,0,1-8.33,1.59C37.37,138,36.49,137.88,35.6,137.89Z"/>
      <path class="cls-2" d="M86.22,173.43a7.42,7.42,0,0,0,3.4-.85c1.87-1.11,2.28-2.63,1.24-4.54a12.26,12.26,0,0,0-2.09-2.57,1.09,1.09,0,0,0-1.19-.19,12.33,12.33,0,0,0-5.9,3.94c-.55.59-1.56,1.19-1.38,1.91s1.3.78,2,1.13A8.89,8.89,0,0,0,86.22,173.43Z"/>
      <path class="cls-2" d="M26.3,142.69c.95,1.75,2.59,2.83,4,4.09.24.2.44.19.58-.12,1.35-2.85,2.6-5.71,2-9a1.08,1.08,0,0,0-.81-1,13.33,13.33,0,0,0-3.21-.78c-2.51-.14-3.6,1.58-3.48,3.7A6.77,6.77,0,0,0,26.3,142.69Z"/>
      <path class="cls-3" d="M5,43.27c2.23,1.78,3.83,3.95,6,6.51.12.14.38.06.36-.12-.28-1.8-1.78-5.28-1.16-7.65a.94.94,0,0,1,.8-.65c.65-.07,1.09.77,1.44,1.42l2.35,7.06c.23.51.23.86.55.78s0-.61,0-.86a18.89,18.89,0,0,0,.26-3,5.44,5.44,0,0,1,.46-1.3.87.87,0,0,1,1.45.19,9.59,9.59,0,0,1,.91,3.42c.25,1.81.44,3.67.69,5.47A4,4,0,0,0,20,57.05c.88,1,2.05,2.37,3,3.28A77.65,77.65,0,0,0,37.52,71.77c1.13.68,2.69,1.39,2.74,2.71a2.6,2.6,0,0,1-.36,1.39,3.7,3.7,0,0,1-2.21,1.95c-2.1.63-4.19-.64-6.24-1.72A140.23,140.23,0,0,1,14.21,65.41c-1-.73-1.88-1.72-3.11-1.91-2.48-.39-5.27-.68-7.62-1.83a1.23,1.23,0,0,1-.63-1.57,1.92,1.92,0,0,1,1.42-1,20.9,20.9,0,0,0,2.81-.88c.58-.47-.51-1.41-1.29-1.83a20.7,20.7,0,0,1-4.6-3.58c-.67-.68-1.59-1.51-1-2.27.32-.42,1.14-.32,1.65-.19a12.61,12.61,0,0,1,1.93.83,40.81,40.81,0,0,0,4.07,1.89c.43-.13-1.11-2.29-2.75-5.19-.11-.2-2.6-4.36-1.7-5C3.78,42.58,4.64,43,5,43.27Z"/>
      <path class="cls-4" d="M44.14,83.38a4.72,4.72,0,0,1-1.48-.67c-.94-.6-.47.21-1.4-.61A12.51,12.51,0,0,0,37,79.72a2.08,2.08,0,0,1-.89-.48,2,2,0,0,1-.23-1,7.33,7.33,0,0,1,1.42-4.52c.56-.84,1.19-1.58,1.8-2.39a1.52,1.52,0,0,1,1.06-.78,4.62,4.62,0,0,1,1.21.23,19.39,19.39,0,0,0,4.56.74,7.4,7.4,0,0,1,4.46,1.67,8.42,8.42,0,0,1,2,2.73c.6,1.26.32.63.3,2a5.1,5.1,0,0,1-1.56,3.73,8.16,8.16,0,0,1-2,1.18,7.41,7.41,0,0,1-2.44.82A7.6,7.6,0,0,1,44.14,83.38Z"/>
      <path class="cls-3" d="M134,59.6c-2.68,1-4.9,2.5-7.82,4.22-.16.09-.38-.07-.29-.24.84-1.61,3.38-4.42,3.55-6.87a.9.9,0,0,0-.54-.86c-.59-.28-1.29.37-1.82.88l-4.5,5.92c-.39.41-.5.74-.77.56s.19-.58.25-.82a18.73,18.73,0,0,1,.73-2.93,5.79,5.79,0,0,0,0-1.38.87.87,0,0,0-1.44-.28,9.64,9.64,0,0,0-2,2.94c-.82,1.63-1.6,3.33-2.42,5-.43.85-.64,1.6-1.56,2.12-1.15.65-2.7,1.58-3.9,2.14A77.71,77.71,0,0,1,94,76.09c-1.29.28-3,.46-3.47,1.69a2.67,2.67,0,0,0-.11,1.43,3.67,3.67,0,0,0,1.47,2.55c1.78,1.28,4.17.74,6.46.39a142.28,142.28,0,0,0,19.77-4.55c1.19-.37,2.33-1,3.56-.81,2.47.43,5.2,1,7.81.72a1.21,1.21,0,0,0,1.09-1.28,1.93,1.93,0,0,0-1-1.41,20.26,20.26,0,0,1-2.37-1.73c-.4-.63.94-1.17,1.81-1.32a20.39,20.39,0,0,0,5.5-1.9c.87-.43,2-.92,1.69-1.83-.17-.5-1-.67-1.5-.71a12.19,12.19,0,0,0-2.09.16,42.74,42.74,0,0,1-4.48.48c-.36-.26,1.8-1.81,4.29-4,.17-.15,3.86-3.28,3.22-4.19C135.37,59.35,134.44,59.43,134,59.6Z"/>
      <path class="cls-4" d="M82.7,86.6a4.93,4.93,0,0,0,1.62-.15c1.08-.27,1.69-1.31,2.83-1.79a12.4,12.4,0,0,1,4.78-.88,1.94,1.94,0,0,0,1-.17,2,2,0,0,0,.54-.84A7.4,7.4,0,0,0,93.57,78c-.25-1-.62-1.88-.93-2.84a1.51,1.51,0,0,0-.75-1.08,5,5,0,0,0-1.22-.18,19.59,19.59,0,0,1-4.55-.76,7.38,7.38,0,0,0-4.77.14,8.2,8.2,0,0,0-2.72,2,9.17,9.17,0,0,0-2.25,3.46,5.08,5.08,0,0,0,.28,4,8.59,8.59,0,0,0,1.52,1.78,8.13,8.13,0,0,0,2,1.56A7.66,7.66,0,0,0,82.7,86.6Z"/>
      <path d="M68.08,67.28s10.21,2.85,14.73,7.14c0,0-4.38-10-5.1-13.11,0,0,9.32,7.12,17.27,5.28a16,16,0,0,1-10.77-12S95.08,44,96.11,29.79c0,0-10.25-10.31-12.92-11.73,0,0-.52-11.31-6-14.83,0,0-12.83-1.78-18.68,2A28.38,28.38,0,0,0,40.59.07S27.51,8.44,26.84,17.13c0,0-13.32,8.93-15.17,10.58,0,0-.85,11.27,4.45,16.6,0,0-2.19,10.68,0,14.69,0,0,10.65,8,19.45,8.27s6.62,20.38,6.62,20.38,5-10.38,9.15-13.78A68.82,68.82,0,0,0,53,85.1S57.3,68.94,68.08,67.28Z"/>
      <path class="cls-4" d="M87.35,149.43a29.45,29.45,0,0,1-11.16,1c-5.74-.7-7.39-.29-8.47-.09a7.89,7.89,0,0,1-2.91.35,13,13,0,0,0-2.25-.11,16.16,16.16,0,0,1-5.27-.6,21,21,0,0,1-5.73-2.58c-1-.71-1.86-1.52-2.82-2.23-1.94-1.45-3.56-3.28-5.44-4.81-.45-.37-.87-.76-1.34-1.1s-1.13-.59-1.34-1.17c.36-.54,1.21-.46,1.6-1a3.2,3.2,0,0,0,.33-.8c.39-.88,1.1-1.64,1.47-2.53a11,11,0,0,0,.88-2.55,6.41,6.41,0,0,0-.17-1.63c-.22-1.77.35-3.83.62-5.59.55-3.67,1.23-7.34,2.06-11,.32-1.39.66-2.77,1.06-4.14,1.6-5.55,1.85-20.12,1.85-20.12s-1.4-10.45.44-13.43c2-3.22,9-3.45,15.56-3.23a56.92,56.92,0,0,1,14.73,2.68c1.74.61,2.64,16.84,2.78,20.12s-.36,16.94,0,21.52,1.73,14.22,1.79,19S87.35,149.43,87.35,149.43Z"/>
      <polygon class="cls-5" points="53.91 74.78 57.4 74.06 77.89 73.92 79.88 74.16 79.02 84.8 55.63 84.82 53.91 74.78"/>
      <path class="cls-6" d="M56.46,74.19l2.74-.77,16.41-.15a10.05,10.05,0,0,1,1.12.36l1.13.22-1,8.37-19.24-.13Z"/>
      <polygon class="cls-7" points="59.03 73.41 62.7 72.43 73.6 72.54 75.61 73.19 74.73 79.95 59.71 79.8 59.03 73.41"/>
      <path class="cls-3" d="M72.59,78l.89-5.17a3.13,3.13,0,0,1-2.3-1.75c-.56-1.49-1.31-3.35-5.11-3.29s-2.79,1.7-3,2.38-.32,1.71-.32,1.71a1.54,1.54,0,0,1-1.28,1.36c-.93.23.5,4.24.5,4.24Z"/>
      <path class="cls-8" d="M83.91,29.72l-3.27-6a2.12,2.12,0,0,1,.11-1.46c.35-.6,1.77-3.2,1.77-3.2s-2.67,1.33-3.37,2.37c-.34.18-.35.52-.91.13s-7.08-4.62-7.08-4.62S62,16,60.69,15.66s-1.65-.45-1.88-1.85S58.22,9,58.2,8.33c0,0-.91,6.31-.93,7.14s-1,.69-1.22.68-10.64.64-10.64.64a2.38,2.38,0,0,0-1.22.46c-.84.51-7.8,5.16-8.85,6.41-.42.33-.69.28-.91.13s-4.8-2.12-6.06-3.28a50.35,50.35,0,0,1,3.77,4.58c.55.69-.09.75-.21,1s-4.74,5.87-4.74,5.87l-.68,9.17s-6.38.79-8,2.59a13.18,13.18,0,0,1,7-.77s-.14,4.07.69,5.52c2.38,10.3,6,15.88,8.94,19.2,5.67,5.48,16.3,8,22.17,8.15,8.78-.23,12.47-2,19.38-7.21,1.66-3,10.06-8,10.39-24.22Z"/>
      <path class="cls-8" d="M88.82,43.73a3.26,3.26,0,0,1-1.62.53,3.28,3.28,0,0,1-1.34-1c-1.73-1.64-2.2-4.16-2.58-6.51l-.35-2.14a12.24,12.24,0,0,1-.25-2.89A4.43,4.43,0,0,1,83.76,29,4.09,4.09,0,0,1,86,27.9a5.66,5.66,0,0,1,3-.09,4.09,4.09,0,0,1,2,1.6,12.47,12.47,0,0,1,1.64,3.48,10.56,10.56,0,0,1,.19,3.68A10.74,10.74,0,0,1,91.54,41,6.24,6.24,0,0,1,88.82,43.73Z"/>
      <path class="cls-9" d="M86.71,30a2.79,2.79,0,0,0-1.06.49,7.19,7.19,0,0,0-1.2,1.33c-.18-.4,0-.82.23-1.45a2.38,2.38,0,0,1,.48-.83,2.74,2.74,0,0,1,1.22-.74,3.75,3.75,0,0,1,3.94,1.27c1,1.13,1,2.84,1.07,4.35.08,3.59-.91,6-2.24,7.43-.06.07-1.17,1.58-2,1.3a1.83,1.83,0,0,1-.3-.18,1.86,1.86,0,0,1-.68-1.21,1.13,1.13,0,0,1,.76-1.2,1.06,1.06,0,0,0,.69,1.16.88.88,0,0,0,.45-.06,5,5,0,0,0,.75-.77,3.89,3.89,0,0,0,1-2,11.22,11.22,0,0,0,.35-1.8,17.07,17.07,0,0,0,.07-4.24A3.39,3.39,0,0,0,87.42,30,1.9,1.9,0,0,0,86.71,30Z"/>
      <path class="cls-8" d="M30.23,62.9c.57-.07,1.46,0,1.69-.29A3.33,3.33,0,0,0,32.34,61c.31-2.36-.91-4.62-2.09-6.69l-1.07-1.88A12.68,12.68,0,0,0,27.55,50c-.66-.71-1.12-1.39-2.08-1.51a7.54,7.54,0,0,0-3.34.34,5.3,5.3,0,0,0-2.35,1.61c-.47.79-.19,2-.12,3A12.09,12.09,0,0,0,20.74,57,11.11,11.11,0,0,0,23,60c1.1,1.18,2.46,1.5,3.93,2.13S28.84,63.09,30.23,62.9Z"/>
      <path class="cls-9" d="M23.28,50.62a2.9,2.9,0,0,1,1.14-.28,8.06,8.06,0,0,1,1.77.27c-.11-.42-.54-.62-1.1-1a2.37,2.37,0,0,0-.89-.35,2.76,2.76,0,0,0-1.42.19A3.78,3.78,0,0,0,20.52,53c-.06,1.51,1.26,3.58,2.18,4.77a9.91,9.91,0,0,0,6.45,4.15c.08,0,1.89.49,2.36-.25a1.17,1.17,0,0,0,.11-.33,1.84,1.84,0,0,0-.22-1.36,1.14,1.14,0,0,0-1.35-.46,1.08,1.08,0,0,1,.2,1.34.84.84,0,0,1-.4.23,4.94,4.94,0,0,1-1.07-.12,5.57,5.57,0,0,1-2.43-1.09A12.3,12.3,0,0,1,25,58.65a17.28,17.28,0,0,1-2.73-3.26c-.71-1.25-.63-3.43.45-4.39A2.15,2.15,0,0,1,23.28,50.62Z"/>
      <path class="cls-10" d="M61,47.06a6.42,6.42,0,0,1,.56-6.9A12.67,12.67,0,0,1,69.5,35a7.69,7.69,0,0,1,8.33,4.13,7.12,7.12,0,0,1-1.9,8.33,14.11,14.11,0,0,1-8.24,3.34C64.29,50.74,62.24,49.51,61,47.06Z"/>
      <path class="cls-10" d="M37.5,55.05a6.74,6.74,0,0,1,2-7.32,12.31,12.31,0,0,1,10.14-2.95A5.81,5.81,0,0,1,54.49,49c.81,2.51.85,5-1.25,6.94a14.16,14.16,0,0,1-8.58,3.83C40.88,59.72,38.67,58.1,37.5,55.05Z"/>
      <g>
        <path class="cls-11" d="M67.2,41.91a5.08,5.08,0,1,1,4.94,5.18A5.09,5.09,0,0,1,67.2,41.91Zm7.87-3.29c-.72-.48-1.43-.33-2.25.47a3.15,3.15,0,0,0-3.13,1.1,3.57,3.57,0,0,0,.11,4.35,3.29,3.29,0,0,0,4.18.74,3.48,3.48,0,0,0,1.62-3.94c0-.15-.07-.3-.1-.45C75.92,39.81,75.79,39.1,75.07,38.62Z"/>
        <path class="cls-12" d="M72.82,39.09a3.15,3.15,0,0,0-3.13,1.1,3.57,3.57,0,0,0,.11,4.35,3.29,3.29,0,0,0,4.18.74,3.48,3.48,0,0,0,1.62-3.94c0-.15-.07-.3-.1-.45-.66.54-1.37.87-2.16.31A1.6,1.6,0,0,1,72.82,39.09Z"/>
        <path class="cls-10" d="M72.82,39.09a1.6,1.6,0,0,0,.52,2.11c.79.56,1.5.23,2.16-.31.42-1.08.29-1.79-.43-2.27S73.64,38.29,72.82,39.09Z"/>
      </g>
      <g>
        <path class="cls-11" d="M52.57,55.1A5.07,5.07,0,1,1,52.75,48,5.05,5.05,0,0,1,52.57,55.1Zm-6.65-2.33.23.4A3.47,3.47,0,0,0,50,55a3.28,3.28,0,0,0,2.59-3.35,3.56,3.56,0,0,0-2.84-3.3,3.17,3.17,0,0,0-3.06,1.29c-1.14,0-1.77.32-2,1.16S44.88,52.25,45.92,52.77Z"/>
        <path class="cls-12" d="M46.69,49.64a3.17,3.17,0,0,1,3.06-1.29,3.56,3.56,0,0,1,2.84,3.3A3.28,3.28,0,0,1,50,55a3.47,3.47,0,0,1-3.85-1.83l-.23-.4c.85,0,1.59-.27,1.81-1.22A1.61,1.61,0,0,0,46.69,49.64Z"/>
        <path class="cls-10" d="M46.69,49.64a1.61,1.61,0,0,1,1,1.91c-.22,1-1,1.18-1.81,1.22-1-.52-1.41-1.13-1.21-2S45.55,49.59,46.69,49.64Z"/>
      </g>
      <path class="cls-13" d="M69.85,60.17s.32-.73-.31-.1a16.32,16.32,0,0,1-9.35,4,9.25,9.25,0,0,1-1.62,0c-.15,0-.15.16.11.21a10.53,10.53,0,0,1,3.35.8,2.5,2.5,0,0,0,2,.21,9.33,9.33,0,0,0,3.31-1.51C68.28,62.79,68,61.91,69.85,60.17Z"/>
      <path class="cls-14" d="M69.83,59.61s.11.83-2.11,2.35a15.43,15.43,0,0,1-6.41,2.46,7.23,7.23,0,0,1-2.87-.31Z"/>
      <path class="cls-15" d="M67.71,63.24s-2.14,1.14-2.6,1.31a12,12,0,0,0-3,1.3C61.53,66.4,67.42,65.65,67.71,63.24Z"/>
      <path class="cls-16" d="M56.06,64.41a9.1,9.1,0,0,1,3.21,1,14.33,14.33,0,0,0,1.26.95c.29.14.72.56,1,.61a8,8,0,0,0,3.2-.11A16.66,16.66,0,0,0,67.06,66a5.07,5.07,0,0,0,2.17-1.56,1.9,1.9,0,0,0,.3-.49,2.84,2.84,0,0,0,.12-.92,7.22,7.22,0,0,1,1.52-4.25.08.08,0,0,0-.11-.12l-1,.6a2.2,2.2,0,0,1-.54.25,10.21,10.21,0,0,1-1.36.37,14.06,14.06,0,0,0-1.9.52c-.85.3-2.46,1-3.29,1.33A37.87,37.87,0,0,1,56.06,64.41Zm2.51-.28a9.25,9.25,0,0,0,1.62,0,16.32,16.32,0,0,0,9.35-4c.63-.63.31.1.31.1-1.9,1.74-1.57,2.62-2.54,3.67A9.33,9.33,0,0,1,64,65.35a2.5,2.5,0,0,1-2-.21,10.53,10.53,0,0,0-3.35-.8C58.42,64.29,58.42,64.14,58.57,64.13Z"/>
      <path class="cls-11" d="M59.9,58c2.9.29,5.16-2.18,5.82-4.41.27-.94-.18-1.39-1.11-1.16a4.31,4.31,0,0,0-.87.32,43,43,0,0,1-6.41,2.59c-.44.14-.94.28-1,.81s.41.85.83,1.11A4.81,4.81,0,0,0,59.9,58Z"/>
      <path class="cls-1" d="M68.18,28.77A11.06,11.06,0,0,0,61,31.26a5.18,5.18,0,0,0-.51.54.73.73,0,0,0-.19.85c.2.35.54.16.82.05l2.74-1.07c3.22-1.3,6.38-.87,9.51.31a5.82,5.82,0,0,0,1.06.31c.25,0,.58.17.74-.15s-.06-.54-.22-.76a5,5,0,0,0-2.08-1.48A12.53,12.53,0,0,0,68.18,28.77Z"/>
      <path class="cls-1" d="M34.57,47c0,.69-.1,1.41.46,1.54s.72-.63.93-1.07a35.71,35.71,0,0,1,1.6-3.22,12,12,0,0,1,5.73-4.76c.59-.26,1.18-.54,1.76-.83.24-.12.52-.28.47-.61s-.41-.41-.72-.45a5.6,5.6,0,0,0-2.54.34,11.59,11.59,0,0,0-7.6,8.4A4.9,4.9,0,0,0,34.57,47Z"/>
    </g>
  </g>
</svg>
