<svg xmlns="http://www.w3.org/2000/svg" viewBox="0 0 131.56 156.7">
  <defs>
    <style>
      .cls-1 {
        fill: #0c0807;
      }

      .cls-2 {
        fill: #a56737;
      }

      .cls-3 {
        fill: #a46636;
      }

      .cls-4 {
        fill: #488dcb;
      }

      .cls-5 {
        fill: #d42027;
      }

      .cls-6 {
        fill: #21b14b;
      }

      .cls-7 {
        fill: #fde500;
      }

      .cls-8 {
        fill: #9a5b2a;
      }

      .cls-9 {
        fill: #6c401d;
      }

      .cls-10 {
        fill: #faf8f7;
      }

      .cls-11 {
        fill: #522f27;
      }

      .cls-12 {
        fill: #060504;
      }

      .cls-13 {
        fill: #600b0c;
      }

      .cls-14 {
        fill: #f2ecec;
      }

      .cls-15 {
        fill: #fff;
      }

      .cls-16 {
        fill: #734725;
      }
    </style>
  </defs>
  <title>p07</title>
  <g id="character">
    <g>
      <g>
        <path class="cls-1" d="M54.54,148.55c.34,0,.3.28.27.49a10,10,0,0,1-2.72,6.17c-1.76,1.75-3.85,1.81-6,.95a5.22,5.22,0,0,0-2.71-.35,16.1,16.1,0,0,1-9-1.74,11.44,11.44,0,0,1-4.09-2.78c-2.67-3.13-.71-7.07,1.72-8.29a14.56,14.56,0,0,1,5.06-1.23,34.6,34.6,0,0,1,4.06-.27,15.19,15.19,0,0,0,3.36-.46,18.4,18.4,0,0,1,4.07,8c.23,1.11.24,1.14,1.33,1A9.82,9.82,0,0,0,54.54,148.55ZM40,149.33a7.9,7.9,0,0,0,3.57.83c.72.05,1.69.42,2.09,0s-.07-1.4-.23-2.1a11,11,0,0,0-2.86-5.71,1,1,0,0,0-1-.38,10.63,10.63,0,0,0-2.77,1.08,2.7,2.7,0,0,0-1.06,4.1A6.68,6.68,0,0,0,40,149.33Z"/>
        <path class="cls-2" d="M54.54,148.55A9.82,9.82,0,0,1,49.87,150c-1.09.18-1.1.15-1.33-1a18.4,18.4,0,0,0-4.07-8c1.62-.74,2.65-2.14,3.78-3.43,1.47-1.68,6.33-8.64,7.78-10.34a37.46,37.46,0,0,0,4.26,2.66l4.18,1.94c-1.66,2.59-6.82,10.35-8.29,13.06A21.83,21.83,0,0,0,54.54,148.55Z"/>
        <path class="cls-2" d="M40,149.33a6.68,6.68,0,0,1-2.28-2.17,2.7,2.7,0,0,1,1.06-4.1A10.63,10.63,0,0,1,41.58,142a1,1,0,0,1,1,.38,11,11,0,0,1,2.86,5.71c.16.7.69,1.62.23,2.1s-1.37,0-2.09,0A7.9,7.9,0,0,1,40,149.33Z"/>
      </g>
      <g>
        <path class="cls-1" d="M103.41,134.39s.1-.07.15-.06c2.9.31,5.7-.71,8.58-.61l2.49.11c3.45.14,5.64,3.91,5.31,6.22a6.61,6.61,0,0,1-2.59,4.2,18.41,18.41,0,0,1-10.56,4.37,1.82,1.82,0,0,0-1,.47c-1.75,1.35-3.75,2-5.71.81-2.32-1.45-4.36-3.32-5-6.18a12.77,12.77,0,0,0,5.14.55c.51,0,.73-.21.71-.76a16.37,16.37,0,0,1,1.41-6.67A20.17,20.17,0,0,0,103.41,134.39ZM109,142a6,6,0,0,0,1.93-2.14c1-1.66.76-3.48-1.32-4.38a12.69,12.69,0,0,0-2.9-.66,1,1,0,0,0-1,.47c-1.79,2.42-1.93,5.23-2,8.06,0,.31.15.4.42.33C105.76,143.23,107.52,143,109,142Z"/>
        <path class="cls-2" d="M103.41,134.39a20.17,20.17,0,0,1-1.14,2.45,16.37,16.37,0,0,0-1.41,6.67c0,.55-.2.73-.71.76a12.77,12.77,0,0,1-5.14-.55c-1.08-2.25-3-3.77-4.68-5.54-1-1-7.3-6.65-8.26-7.68a28.85,28.85,0,0,0,7.74-6.39c2,1.56,9.27,7.88,11.45,9.22C102,133.75,102.7,134,103.41,134.39Z"/>
        <path class="cls-2" d="M109,142c-1.46,1-3.22,1.25-4.89,1.68-.27.07-.43,0-.42-.33,0-2.83.19-5.64,2-8.06a1,1,0,0,1,1-.47,12.69,12.69,0,0,1,2.9.66c2.08.9,2.27,2.72,1.32,4.38A6,6,0,0,1,109,142Z"/>
      </g>
      <path class="cls-3" d="M130.12,68.3a43.78,43.78,0,0,0-7.79,1.83c-.16.05-.31-.15-.2-.27,1.11-1.21,4-3,4.7-5.14a.83.83,0,0,0-.26-.87c-.45-.39-1.21,0-1.8.33l-5.3,4.09c-.43.27-.61.53-.8.31s.31-.46.41-.65a17.2,17.2,0,0,1,1.32-2.38,4.93,4.93,0,0,0,.31-1.2.79.79,0,0,0-1.18-.59,8.9,8.9,0,0,0-2.4,2.1c-1.09,1.23-2.17,2.52-3.26,3.74-.58.64-.94,1.24-1.86,1.48-1.15.29-2.72.74-3.89.94a70.15,70.15,0,0,1-16.6,1.24c-1.19-.06-2.71-.31-3.42.65a2.49,2.49,0,0,0-.43,1.22,3.34,3.34,0,0,0,.68,2.56c1.25,1.53,3.45,1.62,5.53,1.85a126.29,126.29,0,0,0,18.24.68c1.12,0,2.27-.34,3.29.14A23.67,23.67,0,0,0,122,82.82a1.1,1.1,0,0,0,1.26-.86,1.73,1.73,0,0,0-.56-1.46,18.3,18.3,0,0,1-1.66-2.07c-.19-.63,1.09-.79,1.89-.72a18,18,0,0,0,5.23-.36c.85-.16,1.95-.32,1.89-1.19,0-.47-.69-.81-1.14-1a11.4,11.4,0,0,0-1.85-.35,39.85,39.85,0,0,1-4-.63c-.25-.32,2-1.16,4.67-2.5.18-.09,4.13-1.94,3.79-2.88C131.38,68.41,130.56,68.26,130.12,68.3Z"/>
      <path class="cls-4" d="M80.74,78.6a4.12,4.12,0,0,0,1.44.25c1,0,.25.39,1.35.24a11.15,11.15,0,0,1,4.37.36,1.84,1.84,0,0,0,.9.09,1.92,1.92,0,0,0,.66-.61,6.64,6.64,0,0,0,1.21-4.09c0-.91-.1-1.78-.14-2.69a1.39,1.39,0,0,0-.4-1.12,4,4,0,0,0-1-.43,17.46,17.46,0,0,1-3.78-1.74,6.58,6.58,0,0,0-4.17-1,7.11,7.11,0,0,0-2.83,1.06c-1.07.63-.55.3-1.24,1.34a4.59,4.59,0,0,0-.7,3.57,7.55,7.55,0,0,0,.91,1.9,6.73,6.73,0,0,0,1.41,1.84A6.92,6.92,0,0,0,80.74,78.6Z"/>
      <path class="cls-3" d="M1.48,72.58a43.31,43.31,0,0,1,7.66,2.31c.15,0,.32-.14.22-.26-1-1.28-3.79-3.29-4.39-5.42a.83.83,0,0,1,.32-.86c.48-.35,1.2.1,1.77.45l5,4.4c.42.3.58.56.79.36s-.28-.48-.37-.68a17.82,17.82,0,0,0-1.18-2.45,4.62,4.62,0,0,1-.23-1.22.78.78,0,0,1,1.21-.51,8.78,8.78,0,0,1,2.27,2.24c1,1.29,2,2.64,3,3.93.53.67.86,1.29,1.76,1.58,1.13.37,2.67.91,3.83,1.18A69.88,69.88,0,0,0,39.7,79.88c1.19,0,2.73-.15,3.37.85A2.48,2.48,0,0,1,43.43,82a3.32,3.32,0,0,1-.83,2.52C41.26,85.94,39.05,85.91,37,86a126.5,126.5,0,0,1-18.26-.43c-1.11-.11-2.24-.48-3.28-.07a24,24,0,0,1-6.76,2.06,1.1,1.1,0,0,1-1.2-.93,1.74,1.74,0,0,1,.65-1.43,18.2,18.2,0,0,0,1.78-2c.23-.63-1-.86-1.84-.84a18.34,18.34,0,0,1-5.2-.67C2,81.52.94,81.29,1,80.43c.06-.47.75-.76,1.2-.9a11.8,11.8,0,0,1,1.87-.23,38.78,38.78,0,0,0,4-.39c.27-.3-1.91-1.28-4.51-2.78C3.46,76-.37,73.94,0,73,.21,72.62,1,72.52,1.48,72.58Z"/>
      <path class="cls-4" d="M51.6,87.08a4.24,4.24,0,0,1-1.46.17c-1,0-1.73-.85-2.82-1.07a11.33,11.33,0,0,0-4.38.1,1.83,1.83,0,0,1-.9,0,1.87,1.87,0,0,1-.63-.65,6.57,6.57,0,0,1-.95-4.15c0-.92.2-1.77.3-2.68a1.35,1.35,0,0,1,.47-1.09,4,4,0,0,1,1-.37,17.56,17.56,0,0,0,3.87-1.51,6.71,6.71,0,0,1,4.23-.74,7.46,7.46,0,0,1,2.76,1.23A8.26,8.26,0,0,1,55.74,79a4.52,4.52,0,0,1,.48,3.6,7.38,7.38,0,0,1-1,1.84,6.9,6.9,0,0,1-1.52,1.75A6.75,6.75,0,0,1,51.6,87.08Z"/>
      <path d="M62,63.24S53.2,67,49.67,71.35c0,0,2.72-9.48,3-12.31,0,0-7.47,7.46-14.79,6.76a14.4,14.4,0,0,0,8.2-12s-11-8.16-13.56-20.72c0,0,7.93-10.41,10.15-12,0,0-.88-10.15,3.56-13.94,0,0,11.25-3.11,16.92-.41A25.58,25.58,0,0,1,78.55,0S91.22,5.93,92.84,13.6c0,0,13,6.39,14.8,7.65,0,0,2.08,10-2,15.34,0,0,3.21,9.27,1.76,13.1,0,0-8.55,8.45-16.38,9.69s-3.49,19-3.49,19-5.7-8.67-9.8-11.21a61.43,61.43,0,0,1-.14,10.21S71.78,63.44,62,63.24Z"/>
      <path class="cls-4" d="M55.41,136.74c1.06.47,2.11,1,3.13,1.53a6.19,6.19,0,0,0,2.1.77,2.32,2.32,0,0,0,.69-.07,2.31,2.31,0,0,1,.52-.06,6.25,6.25,0,0,0,2.92-.35,10,10,0,0,1,2.75-.82,18.27,18.27,0,0,1,3.82-.44l.78,0c1.33.07,2.66.24,4,.34,1.11.08,2.22.14,3.34.17a2.15,2.15,0,0,0,1-.1c.85-.33,1.75-.4,2.62-.66a26,26,0,0,0,4.08-1.89c1-.53,2-1.14,3.12-1.64a16.81,16.81,0,0,0,2.64-1.87c.89-.66,1.79-1.33,2.73-1.91.45-.29.88-.64,1.35-.91.29-.16.52-.23.31-.61a5.7,5.7,0,0,0-1.41-1,7.91,7.91,0,0,1-.79-.48,4.57,4.57,0,0,1-.59-.78c-.28-.41-.53-.87-.84-1.26a17.6,17.6,0,0,1-1.42-2.07c-.28-.47-.53-.93-.83-1.39a2.13,2.13,0,0,1-.2-.65,5.08,5.08,0,0,1-.35-1.47,4.93,4.93,0,0,0-.17-1.32c-.24-1.06-.5-2.12-.77-3.17q-.84-3.2-1.82-6.34a100,100,0,0,0-3.7-10.19c-2.09-4.76-4-17.74-4-17.74s0-9.49-2-11.93c-2.16-2.64-8.44-2-14.26-1a51.33,51.33,0,0,0-12.83,4.13c-1.48.75-.36,15.34-.1,18.28S53.51,104.87,53.7,109c.15,3.17.15,6.35.23,9.53,0,1.08.14,2.18.17,3.24a3.91,3.91,0,0,1-.24,1,17.45,17.45,0,0,1-1.19,3.62c-.28.54-.6,1-.84,1.6a21.84,21.84,0,0,1-.93,2,23.19,23.19,0,0,1-1.45,2c-.18.25-.84,1-.68,1.35s1,.54,1.31.74.73.41,1.1.62a10.46,10.46,0,0,0,1.11.66C53.34,135.87,54.38,136.29,55.41,136.74Z"/>
      <polygon class="cls-5" points="75.5 68.26 72.3 68.02 54 70.33 52.25 70.78 54.28 80.16 75.16 77.42 75.5 68.26"/>
      <path class="cls-6" d="M73.16,68l-2.54-.37L56,69.47a10.26,10.26,0,0,0-1,.46l-1,.33,1.85,7.35L73,75.22Z"/>
      <polygon class="cls-7" points="70.77 67.64 67.38 67.2 57.67 68.58 55.95 69.4 57.53 75.33 70.92 73.42 70.77 67.64"/>
      <path class="cls-3" d="M59.21,73.35l-1.4-4.52A2.79,2.79,0,0,0,59.65,67c.33-1.39.78-3.14,4.18-3.54s2.69,1.19,2.94,1.77.49,1.5.49,1.5a1.37,1.37,0,0,0,1.3,1c.86.1,0,3.84,0,3.84Z"/>
      <path class="cls-8" d="M43.4,31.59l2.21-5.74a1.94,1.94,0,0,0-.27-1.3c-.39-.48-2-2.64-2-2.64a11,11,0,0,1,3.29,1.71c.33.12.37.43.82,0s5.77-5,5.77-5,8.07-1.92,9.2-2.37,1.42-.6,1.45-1.88,0-4.39-.09-5c0,0,1.56,5.52,1.67,6.25s1,.5,1.17.47,9.57-.68,9.57-.68a2,2,0,0,1,1.14.26c.81.36,7.58,3.68,8.66,4.67.42.25.65.18.83,0s4-2.45,5-3.64a45.49,45.49,0,0,0-2.82,4.53c-.4.68.18.66.31.84s4.92,4.68,4.92,4.68L96,35s5.79-.06,7.49,1.36a11.82,11.82,0,0,0-6.32.13s.6,3.61,0,5c-.91,9.47-3.48,14.89-5.71,18.19-4.4,5.57-13.59,9.07-18.82,9.9-7.86.83-11.36-.27-18.15-4.14-1.83-2.52-9.93-6-12.13-20.38Z"/>
      <path class="cls-8" d="M40.67,44.67a2.89,2.89,0,0,0,1.51.28c.45-.15.78-.67,1.08-1,1.35-1.66,1.47-4,1.54-6.12l.06-1.95a11.29,11.29,0,0,0-.13-2.6A3.88,3.88,0,0,0,43.45,31a3.65,3.65,0,0,0-2.1-.75,5.1,5.1,0,0,0-2.66.26,3.77,3.77,0,0,0-1.61,1.67,11,11,0,0,0-1,3.31,9.45,9.45,0,0,0,.26,3.3,9.8,9.8,0,0,0,1.63,3.81A5.64,5.64,0,0,0,40.67,44.67Z"/>
      <path class="cls-9" d="M40.94,32.2a2.72,2.72,0,0,1,1,.32,7.14,7.14,0,0,1,1.23,1c.11-.38-.12-.73-.39-1.27a2.16,2.16,0,0,0-.52-.68,2.57,2.57,0,0,0-1.18-.52,3.38,3.38,0,0,0-3.36,1.6c-.76,1.13-.59,2.66-.44,4,.35,3.22,1.51,5.22,2.87,6.37.06,0,1.23,1.27,1.94.92a1.11,1.11,0,0,0,.24-.2,1.62,1.62,0,0,0,.47-1.15,1,1,0,0,0-.83-1,1,1,0,0,1-.47,1.13.75.75,0,0,1-.42,0,4.65,4.65,0,0,1-.76-.6,3.49,3.49,0,0,1-1.14-1.67,10.7,10.7,0,0,1-.52-1.57,15.1,15.1,0,0,1-.56-3.77,3.05,3.05,0,0,1,2.18-2.95A1.78,1.78,0,0,1,40.94,32.2Z"/>
      <path class="cls-8" d="M95.23,54.85c-.51,0-1.3.16-1.54-.06a2.87,2.87,0,0,1-.56-1.39c-.56-2.06.26-4.23,1.07-6.21l.73-1.81a11.55,11.55,0,0,1,1.17-2.33c.51-.71.83-1.38,1.68-1.59a6.57,6.57,0,0,1,3-.09,4.66,4.66,0,0,1,2.29,1.15c.52.65.41,1.8.46,2.63a10.57,10.57,0,0,1-.55,3.33,9.89,9.89,0,0,1-1.67,2.94c-.83,1.18-2,1.62-3.25,2.37S96.5,54.85,95.23,54.85Z"/>
      <path class="cls-9" d="M100,43.07a2.7,2.7,0,0,0-1-.12,6.83,6.83,0,0,0-1.54.46c0-.39.4-.62.86-1A2.33,2.33,0,0,1,99,42a2.42,2.42,0,0,1,1.28,0,3.38,3.38,0,0,1,2.43,2.82c.23,1.34-.7,3.34-1.38,4.52a8.89,8.89,0,0,1-5.26,4.46c-.08,0-1.64.66-2.14.06a1,1,0,0,1-.14-.28,1.67,1.67,0,0,1,0-1.24A1,1,0,0,1,95,51.77,1,1,0,0,0,95,53a.81.81,0,0,0,.38.16,4.64,4.64,0,0,0,.94-.24,4.93,4.93,0,0,0,2-1.26,9.79,9.79,0,0,0,1.11-1.22,15.61,15.61,0,0,0,2-3.23,3.53,3.53,0,0,0-.92-3.86A1.86,1.86,0,0,0,100,43.07Z"/>
      <path class="cls-10" d="M60.37,48.45a12.73,12.73,0,0,1-7.76-2,6.41,6.41,0,0,1-2.68-7.21,6.93,6.93,0,0,1,7-4.67,11.49,11.49,0,0,1,7.68,3.7,5.8,5.8,0,0,1,1.31,6.1C65.08,46.69,63.39,48,60.37,48.45Z"/>
      <path class="cls-10" d="M82,53.78a12.74,12.74,0,0,1-8.11-2.4c-2.11-1.5-2.37-3.71-1.94-6.05A5.24,5.24,0,0,1,75.81,41a11.07,11.07,0,0,1,9.4,1.43,6.06,6.06,0,0,1,2.61,6.3C87.13,51.57,85.35,53.27,82,53.78Z"/>
      <g>
        <path class="cls-11" d="M56,45.69a4.56,4.56,0,1,1,3.79-5.2A4.53,4.53,0,0,1,56,45.69Zm-3.73-5.13c0,.14,0,.28,0,.42A3.12,3.12,0,0,0,54.1,44.3a3,3,0,0,0,3.65-1.15,3.23,3.23,0,0,0-.42-3.9,2.84,2.84,0,0,0-2.93-.61c-.82-.62-1.47-.67-2.06-.15S51.73,39.65,52.23,40.56Z"/>
        <path class="cls-12" d="M54.4,38.64a2.84,2.84,0,0,1,2.93.61,3.23,3.23,0,0,1,.42,3.9A3,3,0,0,1,54.1,44.3,3.12,3.12,0,0,1,52.19,41c0-.14,0-.28,0-.42.65.4,1.32.62,2,0A1.44,1.44,0,0,0,54.4,38.64Z"/>
        <path class="cls-10" d="M54.4,38.64a1.44,1.44,0,0,1-.21,2c-.64.59-1.31.37-2,0-.5-.91-.47-1.56.11-2.07S53.58,38,54.4,38.64Z"/>
      </g>
      <g>
        <path class="cls-11" d="M73.37,44.17a4.57,4.57,0,1,1,1,6.36A4.58,4.58,0,0,1,73.37,44.17Zm7.51,1.6C80.59,45,80,44.79,79,45a2.84,2.84,0,0,0-2.88-.79,3.22,3.22,0,0,0-2.15,3.28,3,3,0,0,0,2.72,2.69,3.13,3.13,0,0,0,3.22-2.09l.15-.38C80.9,47.08,81.16,46.49,80.88,45.77Z"/>
        <path class="cls-12" d="M79,45a2.84,2.84,0,0,0-2.88-.79,3.22,3.22,0,0,0-2.15,3.28,3,3,0,0,0,2.72,2.69,3.13,3.13,0,0,0,3.22-2.09l.15-.38c-.76.06-1.45-.06-1.76-.88A1.45,1.45,0,0,1,79,45Z"/>
        <path class="cls-10" d="M79,45a1.45,1.45,0,0,0-.7,1.83c.31.82,1,.94,1.76.88.87-.59,1.13-1.18.85-1.9S80,44.79,79,45Z"/>
      </g>
      <path class="cls-13" d="M59.55,57.1s-.37-.61.27-.13a14.68,14.68,0,0,0,8.82,2.51,8.6,8.6,0,0,0,1.44-.18c.14,0,.16.13-.07.2a9.59,9.59,0,0,0-2.89,1.11,2.3,2.3,0,0,1-1.74.43,8.7,8.7,0,0,1-3.13-1C61.26,59.25,61.46,58.43,59.55,57.1Z"/>
      <path class="cls-14" d="M59.5,56.59s0,.76,2.16,1.86a14.05,14.05,0,0,0,6,1.44,6.47,6.47,0,0,0,2.53-.63Z"/>
      <path class="cls-15" d="M61.83,59.59s2,.76,2.47.86a10.85,10.85,0,0,1,2.87.8C67.72,61.68,62.37,61.7,61.83,59.59Z"/>
      <path class="cls-16" d="M65.9,57.68c-.78-.22-2.3-.63-3.09-.8a13.06,13.06,0,0,0-1.76-.24,10.72,10.72,0,0,1-1.25-.17,2.4,2.4,0,0,1-.52-.16l-1-.42a.08.08,0,0,0-.09.13,6.5,6.5,0,0,1,1.86,3.61,2.7,2.7,0,0,0,.21.8,1.45,1.45,0,0,0,.33.41A4.57,4.57,0,0,0,62.73,62a15.64,15.64,0,0,0,2.15.51,7.33,7.33,0,0,0,2.87-.28c.27-.09.61-.51.85-.67a10.59,10.59,0,0,0,1-1,8.51,8.51,0,0,1,2.75-1.29A34,34,0,0,1,65.9,57.68ZM70,59.5a9.59,9.59,0,0,0-2.89,1.11,2.3,2.3,0,0,1-1.74.43,8.7,8.7,0,0,1-3.13-1c-1-.82-.79-1.64-2.7-3,0,0-.37-.61.27-.13a14.68,14.68,0,0,0,8.82,2.51,8.6,8.6,0,0,0,1.44-.18C70.22,59.29,70.24,59.43,70,59.5Z"/>
      <path class="cls-11" d="M68.17,54c-2.55.6-4.86-1.33-5.71-3.25-.36-.81,0-1.26.85-1.16a3.17,3.17,0,0,1,.81.18,38.12,38.12,0,0,0,6,1.55c.41.07.88.14,1,.61s-.27.8-.61,1.08A4.33,4.33,0,0,1,68.17,54Z"/>
      <path class="cls-1" d="M57.33,28.88A9.94,9.94,0,0,1,64,30.26a5.08,5.08,0,0,1,.51.41.68.68,0,0,1,.27.74c-.14.34-.47.21-.72.15-.86-.2-1.72-.42-2.58-.64A11.44,11.44,0,0,0,53,32.33a4.93,4.93,0,0,1-.91.4c-.22.07-.5.22-.68,0s0-.48.11-.7a4.52,4.52,0,0,1,1.68-1.57A11.32,11.32,0,0,1,57.33,28.88Z"/>
      <path class="cls-1" d="M89.48,41.18c.09.61.26,1.25-.22,1.43s-.73-.47-1-.84a32.3,32.3,0,0,0-1.8-2.69,10.93,10.93,0,0,0-5.68-3.57c-.56-.16-1.12-.34-1.67-.53-.23-.08-.5-.19-.49-.49s.31-.42.59-.48a4.88,4.88,0,0,1,2.31,0,10.44,10.44,0,0,1,7.77,6.59A5,5,0,0,1,89.48,41.18Z"/>
    </g>
  </g>
</svg>
