<svg xmlns="http://www.w3.org/2000/svg" viewBox="0 0 173.15 258.95">
  <defs>
    <style>
      .cls-1 {
        fill: #0c0807;
      }

      .cls-2 {
        fill: #a56737;
      }

      .cls-3 {
        fill: #a46636;
      }

      .cls-4 {
        fill: #488dcb;
      }

      .cls-5 {
        fill: #d42027;
      }

      .cls-6 {
        fill: #21b14b;
      }

      .cls-7 {
        fill: #fde500;
      }

      .cls-8 {
        fill: #9a5b2a;
      }

      .cls-9 {
        fill: #6c401d;
      }

      .cls-10 {
        fill: #faf8f7;
      }

      .cls-11 {
        fill: #522f27;
      }

      .cls-12 {
        fill: #060504;
      }

      .cls-13 {
        fill: #600b0c;
      }

      .cls-14 {
        fill: #f2ecec;
      }

      .cls-15 {
        fill: #fff;
      }

      .cls-16 {
        fill: #734725;
      }

      .cls-17 {
        fill: #ed1c24;
      }
    </style>
  </defs>
  <title>p21</title>
  <g id="character">
    <g>
      <path class="cls-1" d="M86.47,236.25c.49-.22.62.16.74.47,1.33,3.43,1.93,6.95.83,10.56s-4,5.36-7.61,5.77a8.14,8.14,0,0,0-4,1.54c-4.09,2.92-8.81,4-13.75,4.29a18.07,18.07,0,0,1-7.72-.8c-6-2.34-6.23-9.26-3.79-12.74a23.21,23.21,0,0,1,6.09-5.47,54,54,0,0,1,5.42-3.38A24.12,24.12,0,0,0,67,233.36a28.84,28.84,0,0,1,11.62,8.07c1.14,1.38,1.17,1.41,2.55.35C83.18,240.2,85.34,238.72,86.47,236.25ZM67,248.12a12.5,12.5,0,0,0,5.55-1.52c1-.47,2.65-.67,2.89-1.53s-1.13-1.89-1.88-2.74c-2.27-2.56-4.78-4.81-8.2-5.77a1.53,1.53,0,0,0-1.68.23,17,17,0,0,0-3,3.56c-1.54,2.66-1,4.82,1.59,6.45A10.62,10.62,0,0,0,67,248.12Z"/>
      <path class="cls-1" d="M129.93,233.14c.09,0,.2,0,.25.05,3.37,3.09,7.86,4.41,11.41,7.22,1,.81,2,1.63,3,2.45,4.23,3.39,3.5,10.19.94,12.8a10.38,10.38,0,0,1-7.19,2.9,28.76,28.76,0,0,1-17.41-4.3,3,3,0,0,0-1.74-.36c-3.46.09-6.62-.93-8-4.28-1.59-4-2.42-8.24-.63-12.51a19.82,19.82,0,0,0,6,5.48c.68.43,1.12.41,1.61-.29a25.25,25.25,0,0,1,8-7.13A31.82,31.82,0,0,0,129.93,233.14Zm0,14.77a9.49,9.49,0,0,0,4.44-.9c2.74-1.23,4.19-3.7,2.4-6.77a19.45,19.45,0,0,0-3.05-3.53,1.5,1.5,0,0,0-1.75-.38c-4.51,1.39-7.3,4.81-10,8.35-.3.38-.18.64.22.8C124.69,246.49,127.1,247.86,129.91,247.91Z"/>
      <path class="cls-2" d="M86.47,236.25c-1.13,2.47-3.29,3.95-5.34,5.53-1.38,1.06-1.41,1-2.55-.35A28.84,28.84,0,0,0,67,233.36c1.7-2.23,2.08-4.94,2.68-7.55.79-3.43,1.5-6.87,2.25-10.31a58.91,58.91,0,0,0,7.85.51l7.23-.42c-.37,4.81-.91,9.6-.93,14.43A35.09,35.09,0,0,0,86.47,236.25Z"/>
      <path class="cls-2" d="M129.93,233.14a31.82,31.82,0,0,1-3.72,2,25.25,25.25,0,0,0-8,7.13c-.49.7-.93.72-1.61.29a19.82,19.82,0,0,1-6-5.48c.72-3.85-.31-7.58-.77-11.35-.26-2.19-.51-4.39-.77-6.58a45.17,45.17,0,0,0,15.72-.87c1.09,3.84,1.88,7.77,3.39,11.48C128.68,231,129.37,232,129.93,233.14Z"/>
      <path class="cls-2" d="M67,248.12a10.62,10.62,0,0,1-4.77-1.32c-2.6-1.63-3.13-3.79-1.59-6.45a17,17,0,0,1,3-3.56,1.53,1.53,0,0,1,1.68-.23c3.42,1,5.93,3.21,8.2,5.77.75.85,2.17,1.73,1.88,2.74s-1.87,1.06-2.89,1.53A12.5,12.5,0,0,1,67,248.12Z"/>
      <path class="cls-2" d="M129.91,247.91c-2.81,0-5.22-1.42-7.75-2.43-.4-.16-.52-.42-.22-.8,2.71-3.54,5.5-7,10-8.35a1.5,1.5,0,0,1,1.75.38,19.45,19.45,0,0,1,3.05,3.53c1.79,3.07.34,5.54-2.4,6.77A9.49,9.49,0,0,1,129.91,247.91Z"/>
      <path class="cls-3" d="M170.34,177.4c-2.48-3.18-5.51-5.48-9.09-8.64-.2-.18-.08-.55.18-.51,2.54.43,7.42,2.61,10.79,1.77a1.3,1.3,0,0,0,.92-1.11c.12-.92-1.06-1.56-2-2.06l-9.93-3.45c-.72-.33-1.21-.35-1.09-.79s.87,0,1.21,0a26.39,26.39,0,0,1,4.26-.31,7.56,7.56,0,0,0,1.84-.63,1.23,1.23,0,0,0-.25-2.05,13.68,13.68,0,0,0-4.81-1.34c-2.55-.39-5.17-.7-7.72-1.08-1.33-.2-2.42-.16-3.53-1.17-1.37-1.25-3.31-2.93-4.58-4.3-6.48-7-11-12.38-15.89-20.74-.95-1.61-1.92-3.82-3.79-3.93a3.92,3.92,0,0,0-2,.49,5.27,5.27,0,0,0-2.79,3.09c-.93,2.95.84,5.93,2.32,8.85A200.26,200.26,0,0,0,139.22,164c1,1.44,2.4,2.68,2.65,4.42.5,3.51.87,7.46,2.45,10.81a1.72,1.72,0,0,0,2.2.91,2.69,2.69,0,0,0,1.44-2,28.83,28.83,0,0,1,1.3-3.95c.67-.8,2,.75,2.56,1.85a28.93,28.93,0,0,0,5,6.57c1,1,2.1,2.27,3.19,1.46.6-.44.47-1.61.3-2.33a17.22,17.22,0,0,0-1.14-2.74,60.58,60.58,0,0,1-2.6-5.79c.2-.6,3.22,1.61,7.29,4,.28.17,6.1,3.76,7,2.5C171.28,179.16,170.77,178,170.34,177.4Z"/>
      <path class="cls-4" d="M114.39,121.4a6.72,6.72,0,0,0,.91,2.11c.84,1.34-.29.66.85,2a17.57,17.57,0,0,1,3.28,6,2.83,2.83,0,0,0,.65,1.25,2.76,2.76,0,0,0,1.37.35,10.36,10.36,0,0,0,6.41-1.93c1.21-.77,2.26-1.65,3.42-2.49a2.14,2.14,0,0,0,1.11-1.48,6.33,6.33,0,0,0-.29-1.72,27.41,27.41,0,0,1-1-6.45,10.35,10.35,0,0,0-2.28-6.33,11.32,11.32,0,0,0-3.82-2.81c-1.76-.86-.88-.46-2.83-.46a7.13,7.13,0,0,0-5.29,2.14,11.46,11.46,0,0,0-1.72,2.82,10.77,10.77,0,0,0-1.2,3.44A10.87,10.87,0,0,0,114.39,121.4Z"/>
      <path class="cls-3" d="M9,152.08c3.52-2,7.21-2.91,11.74-4.44.24-.09.28-.48,0-.54-2.5-.59-7.85-.47-10.63-2.55a1.3,1.3,0,0,1-.42-1.38c.25-.89,1.59-1,2.63-1.13l10.48.67c.8,0,1.26.14,1.32-.31s-.81-.33-1.11-.49a27.68,27.68,0,0,0-3.8-1.93,7.55,7.55,0,0,1-1.46-1.3,1.23,1.23,0,0,1,1-1.79,13.61,13.61,0,0,1,5,.63c2.49.63,5,1.36,7.52,2,1.31.33,2.3.79,3.71.29,1.76-.62,4.19-1.42,5.89-2.19,8.67-3.91,14.9-7.17,22.68-13,1.5-1.12,3.26-2.78,5-2.16a3.84,3.84,0,0,1,1.63,1.21,5.22,5.22,0,0,1,1.38,3.93c-.28,3.08-3.07,5.14-5.57,7.26A198.24,198.24,0,0,1,42.9,151.8c-1.49.93-3.25,1.55-4.16,3-1.82,3.05-3.68,6.54-6.44,9a1.75,1.75,0,0,1-2.39,0,2.72,2.72,0,0,1-.55-2.4,28,28,0,0,0,.33-4.14c-.3-1-2.11-.07-3.08.72a28.87,28.87,0,0,1-7.12,4.12c-1.25.53-2.82,1.28-3.51.11-.38-.64.2-1.66.63-2.26a18.11,18.11,0,0,1,2.11-2.09,57.18,57.18,0,0,0,4.64-4.33c.05-.63-3.59.24-8.26.85-.32,0-7.08,1.1-7.46-.42C7.47,153.35,8.42,152.42,9,152.08Z"/>
      <path class="cls-4" d="M85.28,122.26a6.78,6.78,0,0,1-1.66,1.59c-1.29.91-3,.6-4.53,1.37a17.7,17.7,0,0,0-5.36,4.3,2.9,2.9,0,0,1-1.09.91,2.86,2.86,0,0,1-1.4-.21A10.37,10.37,0,0,1,66.08,126c-.82-1.18-1.44-2.4-2.19-3.62a2.15,2.15,0,0,1-.45-1.8,6.55,6.55,0,0,1,.94-1.47,27.45,27.45,0,0,0,3.39-5.57,10.44,10.44,0,0,1,4.56-5,11.57,11.57,0,0,1,4.61-1.11,13,13,0,0,1,5.77.8,7.15,7.15,0,0,1,4,4,11.54,11.54,0,0,1,.49,3.26,11.09,11.09,0,0,1-.22,3.64A10.92,10.92,0,0,1,85.28,122.26Z"/>
      <path class="cls-4" d="M66.25,214.18A41.72,41.72,0,0,0,82,216c8.14-.8,10.45-.16,12,.16s13.08,3.59,18.83,3.43,13.08.39,17.47-3.83a168.93,168.93,0,0,1-2.56-22.34,196.39,196.39,0,0,0-5.1-35.1c-2.08-7.9-1.92-28.48-1.92-28.48s2.35-14.71-.16-19c-2.71-4.62-12.6-5.18-21.85-5.1A80.44,80.44,0,0,0,77.74,109c-2.48.8-4.31,23.69-4.63,28.32s-.08,23.93-.8,30.39-3,20-3.19,26.73S66.25,214.18,66.25,214.18Z"/>
      <polygon class="cls-5" points="116.07 109.92 111.16 108.77 82.23 107.87 79.41 108.13 80.26 123.19 113.29 124.04 116.07 109.92"/>
      <path class="cls-6" d="M112.49,109l-3.84-1.18L85.47,107a14.82,14.82,0,0,0-1.59.48l-1.6.26,1.07,11.86,27.17.48Z"/>
      <polygon class="cls-7" points="108.89 107.8 103.74 106.29 88.34 106.06 85.47 106.91 86.48 116.48 107.7 116.8 108.89 107.8"/>
      <path class="cls-3" d="M89.57,113.82l-1.06-7.33a4.39,4.39,0,0,0,3.29-2.4c.85-2.07,2-4.68,7.34-4.47,5.19.21,3.88,2.5,4.12,3.47a23.62,23.62,0,0,1,.4,2.44,2.15,2.15,0,0,0,1.76,2c1.31.36-.85,6-.85,6Z"/>
      <g>
        <path d="M90.92,100.89s-10,11.18-12.07,19.74c0,0-2.46-15.3-3.95-19.49,0,0-5.64,15.58-16.49,19.46A22.56,22.56,0,0,0,62,98.1S41,93.83,29,77.73c0,0,4.32-20.08,6.42-23.82,0,0-8-13.83-4.24-22.18,0,0,13.89-11.92,23.76-11.86C54.9,19.87,59.45,7,72.27,0c0,0,22,0,29.37,9.78,0,0,22.66.44,26.12,1,0,0,9.61,12.76,7.39,23.14,0,0,10.74,11,11.24,17.43,0,0-6.51,17.71-16.81,24.69s7.7,29.28,7.7,29.28-13.87-8.52-21.4-9.39a95.77,95.77,0,0,1,6.62,14.59S105,94.63,90.92,100.89Z"/>
        <path class="cls-8" d="M43.41,68.32l-.68-9.62A3.11,3.11,0,0,0,41.48,57c-.88-.44-4.55-2.44-4.55-2.44s4.19-.46,5.81.23c.55,0,.82.35,1.18-.54S48.81,43.4,48.81,43.4,59,35.28,60.29,33.89s1.6-1.8.81-3.64-3-6.2-3.45-7c0,0,5.9,6.8,6.55,7.77s1.71.06,2-.12,13.13-7.36,13.13-7.36a3.22,3.22,0,0,1,1.8-.38c1.38,0,13.21.17,15.42.86.75.06,1-.19,1.17-.54s4.1-6.19,4.7-8.52c0,0-1.17,7.09-1,8.31-.12,1.24.68.82,1,1s10.12,3.36,10.12,3.36L120.34,38s8.18-3.94,11.54-3.07A18.6,18.6,0,0,0,123,39.38s3.26,4.73,3.39,7.09c5,14.06,5,23.47,4,29.64-2.55,10.85-13.26,22-20.13,26.62C99.66,109.16,94,109.93,81.74,109c-4.29-2.36-18.1-1.87-30.84-20.86Z"/>
        <path class="cls-8" d="M48.28,88.73a4.48,4.48,0,0,0,2.32-.61,4.51,4.51,0,0,0,.84-2.19c.8-3.27-.56-6.64-1.9-9.72l-1.22-2.82a17.31,17.31,0,0,0-1.91-3.61,6.14,6.14,0,0,0-3.34-2.38,5.72,5.72,0,0,0-3.48.33A8.14,8.14,0,0,0,36,69.88a6,6,0,0,0-1.18,3.45,17.68,17.68,0,0,0,.72,5.4,15,15,0,0,0,2.58,4.51A15.4,15.4,0,0,0,43,87.57,8.88,8.88,0,0,0,48.28,88.73Z"/>
        <path class="cls-9" d="M40.33,70.84A4,4,0,0,1,42,70.61a11.44,11.44,0,0,1,2.44.66c-.09-.61-.65-1-1.39-1.54a3.61,3.61,0,0,0-1.2-.62,4,4,0,0,0-2,0,5.34,5.34,0,0,0-3.71,4.52c-.31,2.11.95,4.17,2.06,6,2.65,4.34,5.62,6.41,8.33,7.14.12,0,2.59,1,3.36,0a1.63,1.63,0,0,0,.21-.44,2.63,2.63,0,0,0-.1-2,1.62,1.62,0,0,0-1.83-.85,1.51,1.51,0,0,1,.07,1.91,1.23,1.23,0,0,1-.59.27,8.09,8.09,0,0,1-1.48-.34,5.63,5.63,0,0,1-2.74-1.62,16.55,16.55,0,0,1-1.78-1.87,24.34,24.34,0,0,1-3.32-5c-.81-1.87-.53-4.48,1.13-5.65A2.69,2.69,0,0,1,40.33,70.84Z"/>
        <path class="cls-8" d="M132.56,66.78c-.73.35-1.75,1.09-2.23.94-.7-.22-1.25-1-1.72-1.59-2.18-2.56-2.45-6.19-2.63-9.55l-.16-3.06a16.87,16.87,0,0,1,.1-4.08c.25-1.35.26-2.51,1.32-3.38a10.37,10.37,0,0,1,4.23-2.15c1.21-.19,2.94-.43,4,.12s1.77,2.28,2.39,3.42a16.8,16.8,0,0,1,1.46,5.1,15.55,15.55,0,0,1-.42,5.29c-.4,2.23-1.78,3.65-3,5.53S134.36,65.94,132.56,66.78Z"/>
        <path class="cls-9" d="M131.44,46.88a4.23,4.23,0,0,0-1.57.53A11.2,11.2,0,0,0,128,49.09c-.19-.59.16-1.15.56-2a3.42,3.42,0,0,1,.8-1.09,3.86,3.86,0,0,1,1.83-.85,5.31,5.31,0,0,1,5.33,2.39c1.22,1.75,1.24,5.21,1.05,7.33-.44,5.07-2.38,8-4.49,9.86-.09.08-1.88,2-3,1.5a1.79,1.79,0,0,1-.38-.3,2.61,2.61,0,0,1-.78-1.79,1.63,1.63,0,0,1,1.26-1.58,1.51,1.51,0,0,0,.79,1.75,1.27,1.27,0,0,0,.64,0,8.74,8.74,0,0,0,3.24-4.13,16.39,16.39,0,0,0,.76-2.47,23.59,23.59,0,0,0,.75-5.95c-.1-2-1.87-4.56-3.88-4.87A2.69,2.69,0,0,0,131.44,46.88Z"/>
        <path class="cls-10" d="M78.77,81a19.9,19.9,0,0,1-12.36,2.32,10.08,10.08,0,0,1-8.62-8.45c-.75-4.53,2.4-9.66,6.76-11.28a18,18,0,0,1,13.37.15,9.08,9.08,0,0,1,5.93,7.78C84.29,75.31,82.78,78.33,78.77,81Z"/>
        <path class="cls-10" d="M113,74.1a20,20,0,0,1-13.12,2c-4-.73-5.84-3.69-6.79-7.29A8.21,8.21,0,0,1,95.71,60,17.42,17.42,0,0,1,110,55.78a9.52,9.52,0,0,1,7.9,7.21C118.86,67.52,117.47,71.13,113,74.1Z"/>
        <g>
          <path class="cls-11" d="M70.67,80a7.16,7.16,0,1,1,1.92-9.92A7.13,7.13,0,0,1,70.67,80ZM62,75.18l.21.61a4.91,4.91,0,0,0,4.94,3.45,4.66,4.66,0,0,0,4.41-4.07,5.05,5.05,0,0,0-3.19-5.25A4.45,4.45,0,0,0,63.75,71c-1.58-.33-2.55,0-3,1.16S60.62,74.22,62,75.18Z"/>
          <path class="cls-12" d="M63.75,71a4.45,4.45,0,0,1,4.57-1.08,5.05,5.05,0,0,1,3.19,5.25,4.66,4.66,0,0,1-4.41,4.07,4.91,4.91,0,0,1-4.94-3.45L62,75.18c1.19.14,2.28,0,2.8-1.27A2.28,2.28,0,0,0,63.75,71Z"/>
          <path class="cls-10" d="M63.75,71a2.28,2.28,0,0,1,1,2.91c-.52,1.26-1.61,1.41-2.8,1.27-1.33-1-1.71-1.91-1.23-3S62.17,70.67,63.75,71Z"/>
        </g>
        <g>
          <path class="cls-11" d="M94.38,66.2a7.18,7.18,0,1,1,5.67,8.37A7.18,7.18,0,0,1,94.38,66.2Zm11.73-2.74c-.89-.84-1.92-.8-3.24.13a4.47,4.47,0,0,0-4.63.8,5.06,5.06,0,0,0-.86,6.09,4.66,4.66,0,0,0,5.65,2,4.89,4.89,0,0,0,3.18-5.11c0-.22,0-.43,0-.65C107,65.31,107,64.29,106.11,63.46Z"/>
          <path class="cls-12" d="M102.87,63.59a4.47,4.47,0,0,0-4.63.8,5.06,5.06,0,0,0-.86,6.09,4.66,4.66,0,0,0,5.65,2,4.89,4.89,0,0,0,3.18-5.11c0-.22,0-.43,0-.65-1,.59-2.1.89-3.07-.07A2.26,2.26,0,0,1,102.87,63.59Z"/>
          <path class="cls-10" d="M102.87,63.59a2.26,2.26,0,0,0,.23,3.06c1,1,2,.66,3.07.07.84-1.41.82-2.43-.06-3.26S104.19,62.66,102.87,63.59Z"/>
        </g>
        <path class="cls-13" d="M83.38,93.79s-.94-.62.3-.36A23,23,0,0,0,97.87,91.1a11.58,11.58,0,0,0,1.94-1.22c.19-.1.31.08,0,.33S97,92.46,96.47,93.72a3.54,3.54,0,0,1-2.18,1.76,13.29,13.29,0,0,1-5.1.73C87.24,95.7,87,94.4,83.38,93.79Z"/>
        <path class="cls-14" d="M83,93.1s.5,1.07,4.31,1.19a21.8,21.8,0,0,0,9.49-2A10.13,10.13,0,0,0,100,89.75Z"/>
        <path class="cls-15" d="M88.27,95.8s3.41-.28,4.09-.42,3.54-1,4.61-.78S90.45,98.44,88.27,95.8Z"/>
        <path class="cls-16" d="M92.78,90.37c-1.25.21-3.68.64-4.92.93a18.52,18.52,0,0,0-2.65.83,16.19,16.19,0,0,1-1.9.6,4,4,0,0,1-.84.12l-1.68.06a.12.12,0,0,0,0,.23,10.24,10.24,0,0,1,5,3.89,4.06,4.06,0,0,0,.84,1,2.76,2.76,0,0,0,.73.36,7.2,7.2,0,0,0,3.77.2,23.47,23.47,0,0,0,3.41-.71,11.5,11.5,0,0,0,3.88-2.31c.33-.3.53-1.13.77-1.52A18.57,18.57,0,0,0,100,92c.74-1.75,2.2-2.68,3-3.67C100,89.44,96.75,89.72,92.78,90.37Zm7.06-.16c-.28.26-2.84,2.25-3.37,3.51a3.54,3.54,0,0,1-2.18,1.76,13.29,13.29,0,0,1-5.1.73c-2-.51-2.22-1.81-5.81-2.42,0,0-.94-.62.3-.36A23,23,0,0,0,97.87,91.1a11.58,11.58,0,0,0,1.94-1.22C100,89.78,100.12,90,99.84,90.21Z"/>
        <path class="cls-11" d="M93.53,83.59c-3.23,2.55-7.79,1.35-10.28-.81-1-.9-.85-1.77.44-2.21a6.17,6.17,0,0,1,1.27-.3,60.39,60.39,0,0,0,9.6-1.81c.63-.17,1.33-.39,1.83.19s.16,1.32-.14,1.94A6.78,6.78,0,0,1,93.53,83.59Z"/>
        <path class="cls-1" d="M61.39,55.18c3.07-1.78,6.5-3.1,10.41-2.49a7.06,7.06,0,0,1,1,.24c.44.13.85.41.87.87s-.52.61-.93.69c-1.36.29-2.72.56-4.08.82-4.81.92-8.24,3.84-11.07,7.64a8.07,8.07,0,0,1-1,1.17c-.26.24-.56.65-1,.39s-.32-.69-.31-1.07a7.13,7.13,0,0,1,1.34-3.36A17.75,17.75,0,0,1,61.39,55.18Z"/>
        <path class="cls-1" d="M115.26,51.21c.54.8,1.2,1.59.64,2.17s-1.34-.19-1.92-.55a50.72,50.72,0,0,0-4.36-2.61,17,17,0,0,0-10.45-1.28c-.91.14-1.81.26-2.72.35-.38.05-.85.07-1-.37s.17-.79.52-1.08a7.61,7.61,0,0,1,3.28-1.53,16.36,16.36,0,0,1,15.43,4.18A4.73,4.73,0,0,1,115.26,51.21Z"/>
      </g>
    </g>
    <path class="cls-17" d="M24.46,158.33l2.44-.71a1.49,1.49,0,0,0,.37-.14l.86-.57a1.3,1.3,0,0,0,.46-1.62l-19.5-46a1.33,1.33,0,0,0-.84-.75L7,108.11a1.3,1.3,0,0,0-1,.12l-5.33,2.9a1.34,1.34,0,0,0-.54,1.78l2.07,4.67,20.72,40.07A1.33,1.33,0,0,0,24.46,158.33Z"/>
  </g>
</svg>
