<svg xmlns="http://www.w3.org/2000/svg" viewBox="0 0 219.27 392.74">
  <defs>
    <style>
      .cls-1 {
        fill: #0c0807;
      }

      .cls-2 {
        fill: #a56737;
      }

      .cls-3 {
        fill: #a46636;
      }

      .cls-4 {
        fill: #488dcb;
      }

      .cls-5 {
        fill: #d42027;
      }

      .cls-6 {
        fill: #21b14b;
      }

      .cls-7 {
        fill: #fde500;
      }

      .cls-8 {
        fill: #9a5b2a;
      }

      .cls-9 {
        fill: #6c401d;
      }

      .cls-10 {
        fill: #faf8f7;
      }

      .cls-11 {
        fill: #522f27;
      }

      .cls-12 {
        fill: #060504;
      }

      .cls-13 {
        fill: #600b0c;
      }

      .cls-14 {
        fill: #f2ecec;
      }

      .cls-15 {
        fill: #fff;
      }

      .cls-16 {
        fill: #734725;
      }
    </style>
  </defs>
  <title>p19</title>
  <g id="character">
    <g>
      <path class="cls-1" d="M148.7,366.21c2.13,1.64,2.17,1.59,3.94-.53,4.83-5.81,11-9.64,17.93-12.48A36.83,36.83,0,0,0,177.2,358a85.4,85.4,0,0,1,8.37,5.23c3.47,2.41,6.91,4.92,9.39,8.45,3.78,5.37,3.44,16-5.85,19.67-3.86,1.51-7.9,1.46-11.92,1.24-7.63-.41-14.92-2.12-21.24-6.63a12.38,12.38,0,0,0-6.18-2.37c-5.6-.64-10-3.17-11.75-8.92-1.7-5.58-.77-11,1.28-16.32.18-.46.39-1.06,1.14-.72C142.19,361.49,145.53,363.77,148.7,366.21ZM177.89,374c4-2.52,4.84-5.86,2.45-10a26.23,26.23,0,0,0-4.69-5.5,2.37,2.37,0,0,0-2.61-.36c-5.27,1.48-9.15,5-12.66,8.92-1.16,1.31-3.34,2.67-2.9,4.23.37,1.32,2.88,1.64,4.47,2.36,2.56,1.17,5.13,2.37,8.57,2.34A16.28,16.28,0,0,0,177.89,374Z"/>
      <path class="cls-1" d="M79.07,356c4.78,2.93,9.12,6.33,12.32,11,.75,1.09,1.44,1.12,2.48.46a30.66,30.66,0,0,0,9.24-8.47c2.76,6.59,1.48,13.16-1,19.33-2.06,5.17-6.94,6.74-12.29,6.61a4.54,4.54,0,0,0-2.68.55,44.6,44.6,0,0,1-26.9,6.65c-4.16-.27-8-1.32-11.09-4.48-4-4-5.09-14.54,1.44-19.78,1.57-1.26,3.13-2.53,4.7-3.78,5.48-4.35,12.41-6.38,17.61-11.15.09-.07.26-.06.39-.09C75,354.26,77.19,354.86,79.07,356Zm6.24,15.92c.63-.25.81-.65.35-1.24-4.18-5.46-8.5-10.75-15.46-12.89a2.34,2.34,0,0,0-2.71.58,29.64,29.64,0,0,0-4.7,5.46c-2.78,4.74-.54,8.56,3.71,10.45a14.57,14.57,0,0,0,6.84,1.4C77.69,375.61,81.42,373.49,85.31,371.93Z"/>
      <path class="cls-2" d="M140.44,357.67c1.75,3.82,5.09,6.1,8.26,8.54,2.13,1.64,2.17,1.59,3.94-.53,4.83-5.81,11-9.64,17.93-12.48-2.61-3.44-3.2-7.62-4.13-11.66-1.22-5.29-2.32-10.61-3.47-15.92-4.05.28-8.05,1.06-12.13.79-3.72-.24-7.44-.43-11.16-.64.57,7.42,1.39,14.82,1.43,22.28A53.36,53.36,0,0,1,140.44,357.67Z"/>
      <path class="cls-2" d="M73.31,352.86c1.73,1.4,3.88,2,5.76,3.15,4.78,2.93,9.12,6.33,12.32,11,.75,1.09,1.44,1.12,2.48.46a30.66,30.66,0,0,0,9.24-8.47c-1.11-5.95.48-11.71,1.19-17.53.41-3.39.79-6.78,1.19-10.16-8.16.76-16.28.73-24.29-1.35-1.68,5.93-2.89,12-5.22,17.74C75.24,349.51,74.18,351.13,73.31,352.86Z"/>
      <path class="cls-2" d="M170.52,376a16.28,16.28,0,0,0,7.37-2c4-2.52,4.84-5.86,2.45-10a26.23,26.23,0,0,0-4.69-5.5,2.37,2.37,0,0,0-2.61-.36c-5.27,1.48-9.15,5-12.66,8.92-1.16,1.31-3.34,2.67-2.9,4.23.37,1.32,2.88,1.64,4.47,2.36C164.51,374.83,167.08,376,170.52,376Z"/>
      <path class="cls-2" d="M73.34,375.69c4.35-.08,8.08-2.2,12-3.76.63-.25.81-.65.35-1.24-4.18-5.46-8.5-10.75-15.46-12.89a2.34,2.34,0,0,0-2.71.58,29.64,29.64,0,0,0-4.7,5.46c-2.78,4.74-.54,8.56,3.71,10.45A14.57,14.57,0,0,0,73.34,375.69Z"/>
      <path class="cls-3" d="M10.9,266.78c3.83-4.91,8.51-8.47,14-13.36.31-.26.12-.84-.28-.77-3.92.65-11.46,4-16.66,2.72a2,2,0,0,1-1.43-1.71c-.18-1.42,1.65-2.41,3.06-3.18L25,245.15c1.11-.52,1.87-.54,1.69-1.22s-1.35,0-1.88,0a42.45,42.45,0,0,0-6.57-.48,11.56,11.56,0,0,1-2.85-1,1.91,1.91,0,0,1,.38-3.17,21.21,21.21,0,0,1,7.45-2.07c3.92-.6,8-1.07,11.91-1.67,2.06-.31,3.75-.25,5.45-1.8,2.13-1.94,5.12-4.53,7.08-6.64,10-10.76,16.93-19.13,24.54-32,1.47-2.48,3-5.9,5.85-6.06a6,6,0,0,1,3,.74,8.09,8.09,0,0,1,4.31,4.78c1.45,4.55-1.28,9.15-3.58,13.67A306.25,306.25,0,0,1,59,246.11c-1.56,2.22-3.7,4.14-4.08,6.83-.78,5.42-1.34,11.51-3.79,16.69a2.66,2.66,0,0,1-3.4,1.41A4.2,4.2,0,0,1,45.46,268a43.16,43.16,0,0,0-2-6.1c-1-1.25-3.06,1.15-4,2.86a45,45,0,0,1-7.67,10.13c-1.47,1.5-3.25,3.52-4.94,2.26-.92-.68-.72-2.48-.45-3.6a27.68,27.68,0,0,1,1.74-4.23,87.09,87.09,0,0,0,4-9c-.3-.92-5,2.49-11.26,6.16-.43.25-9.42,5.8-10.86,3.86C9.45,269.5,10.24,267.62,10.9,266.78Z"/>
      <path class="cls-4" d="M97.32,180.29a10.56,10.56,0,0,1-1.41,3.25c-1.29,2.07.46,1-1.31,3.06a27.32,27.32,0,0,0-5.06,9.33,4.41,4.41,0,0,1-1,1.94,4.23,4.23,0,0,1-2.12.54,16,16,0,0,1-9.9-3c-1.87-1.19-3.48-2.56-5.28-3.85a3.32,3.32,0,0,1-1.72-2.3,10,10,0,0,1,.46-2.64,42.31,42.31,0,0,0,1.49-10c.32-4,1.2-7,3.53-9.78a17.66,17.66,0,0,1,5.9-4.34c2.71-1.33,1.35-.71,4.37-.71a11,11,0,0,1,8.17,3.31,17.59,17.59,0,0,1,2.65,4.36,16.68,16.68,0,0,1,1.86,5.3A16.69,16.69,0,0,1,97.32,180.29Z"/>
      <path class="cls-3" d="M213.53,274.64c-3.29-5.28-7.57-9.32-12.55-14.77-.27-.29,0-.85.37-.74,3.83,1.07,11,5.23,16.27,4.48a2,2,0,0,0,1.61-1.54c.33-1.4-1.38-2.58-2.71-3.5l-14.68-6.92c-1.05-.64-1.8-.74-1.55-1.39s1.34.15,1.87.16a41.29,41.29,0,0,1,6.58.23,11.84,11.84,0,0,0,2.94-.67,1.91,1.91,0,0,0,0-3.19,21.49,21.49,0,0,0-7.18-2.86c-3.84-1-7.83-1.91-11.67-2.91-2-.53-3.7-.65-5.23-2.38-1.91-2.16-4.6-5-6.33-7.36-8.81-11.76-14.8-20.82-21-34.46-1.2-2.63-2.33-6.18-5.18-6.65a5.89,5.89,0,0,0-3.1.41,8.13,8.13,0,0,0-4.79,4.29c-1.92,4.38.3,9.24,2.11,14A307.59,307.59,0,0,0,167.94,249c1.32,2.37,3.24,4.51,3.33,7.23.2,5.47.11,11.59,2,17A2.67,2.67,0,0,0,176.5,275a4.15,4.15,0,0,0,2.53-2.82,44.73,44.73,0,0,1,2.64-5.85c1.16-1.13,2.91,1.47,3.63,3.26a44.94,44.94,0,0,0,6.55,10.9c1.3,1.64,2.86,3.84,4.67,2.77,1-.58,1-2.39.83-3.53a27.19,27.19,0,0,0-1.28-4.39,90.32,90.32,0,0,1-3-9.33c.4-.89,4.68,3,10.54,7.32.4.3,8.75,6.77,10.4,5C214.69,277.51,214.1,275.55,213.53,274.64Z"/>
      <path class="cls-4" d="M132.68,177.4a10.69,10.69,0,0,0,1,3.39c1.07,2.19,3.56,3,5.1,5.23a27.07,27.07,0,0,1,4,9.82,4.38,4.38,0,0,0,.81,2,4.29,4.29,0,0,0,2,.77,16.07,16.07,0,0,0,10.16-1.91c2-1,3.74-2.17,5.66-3.27.93-.53,1.72-1,2-2.09a10.52,10.52,0,0,0-.18-2.68c-.71-3.56-.52-6.45-.42-10.07.1-4-.45-7.09-2.47-10.11a17.7,17.7,0,0,0-5.4-4.93,19.89,19.89,0,0,0-8.4-3.23,11.05,11.05,0,0,0-8.48,2.42,18.09,18.09,0,0,0-3.09,4.06,12.48,12.48,0,0,0-2.38,10.57Z"/>
      <path d="M125.23,145.41s22.42,5.67,32.53,14.79c0,0-10.11-21.69-11.83-28.34,0,0,20.7,15,37.95,10.6a34.87,34.87,0,0,1-24.15-25.63s23.16-23.66,24.64-54.71c0,0-22.92-21.93-28.83-24.89,0,0-1.73-24.65-13.8-32,0,0-28.1-3.2-40.66,5.42,0,0-17-12.57-39.43-10.35,0,0-28.1,19-29.08,38C32.57,38.21,4,58.42,0,62.12c0,0-1.24,24.64,10.59,36,0,0-4.19,23.41.74,32,0,0,23.66,17,42.88,17s15.53,44.11,15.53,44.11S80.13,168.33,89,160.69a149,149,0,0,0,4.19,24.4S101.81,149.6,125.23,145.41Z"/>
      <path class="cls-4" d="M171.68,323.59a64.37,64.37,0,0,1-24.27,2.83c-12.57-1.23-16.15-.25-18.49.25s-20.21,5.54-29.08,5.29-20.2.62-27-5.91a261.53,261.53,0,0,0,3.94-34.5c.86-18.85,4.68-42,7.89-54.22s3-44,3-44S84,170.62,87.89,164c4.19-7.15,19.47-8,33.76-7.89a125,125,0,0,1,32.29,5.05c3.82,1.24,6.65,36.6,7.14,43.75s.13,37,1.23,46.94,4.56,30.93,4.93,41.28S171.68,323.59,171.68,323.59Z"/>
      <polygon class="cls-5" points="94.73 162.54 102.31 160.77 146.99 159.38 151.35 159.79 150.03 183.03 99.02 184.35 94.73 162.54"/>
      <path class="cls-6" d="M100.25,161.1l5.94-1.82L142,158.06a24.9,24.9,0,0,1,2.47.74l2.46.41-1.64,18.32-42,.74Z"/>
      <polygon class="cls-7" points="105.82 159.28 113.77 156.93 137.55 156.59 141.98 157.9 140.42 172.69 107.65 173.18 105.82 159.28"/>
      <path class="cls-3" d="M135.66,168.58l1.64-11.34s-3.78-.49-5.09-3.69-3-7.23-11.34-6.9c-8,.31-6,3.85-6.36,5.36a36.34,36.34,0,0,0-.62,3.75,3.32,3.32,0,0,1-2.71,3c-2,.55,1.31,9.22,1.31,9.22Z"/>
      <path class="cls-8" d="M157.76,62.61l-7.48-12.9a4.8,4.8,0,0,1,.16-3.2c.74-1.31,3.7-7.06,3.7-7.06s-5.75,3-7.23,5.34c-.74.41-.74,1.15-2,.32s-15.69-9.69-15.69-9.69-20-1.56-22.92-2.22-3.61-.9-4.19-3.94-1.56-10.51-1.64-11.91c0,0-1.64,13.8-1.64,15.61s-2.14,1.56-2.63,1.56-23.17,2-23.17,2a4.93,4.93,0,0,0-2.62,1.07c-1.81,1.15-16.76,11.66-19,14.45-.9.74-1.48.66-2,.33S38.89,48,36.1,45.52c0,0,7.64,8,8.46,9.78,1.23,1.48-.16,1.64-.41,2.14s-10,13.06-10,13.06l-1,20s-13.88,2-17.41,6.08a28.65,28.65,0,0,1,15.19-2.05s-.08,8.87,1.81,12c5.75,22.34,14,34.34,20.54,41.4,12.65,11.66,36,16.59,48.79,16.59,19.16-1,27.11-4.93,41.89-16.75,3.46-6.74,21.53-18.08,21.36-53.4Z"/>
      <path class="cls-8" d="M169.21,92.92a6.79,6.79,0,0,1-3.51,1.23c-1.12-.19-2.12-1.31-3-2.07-3.85-3.48-5-9-6-14.07l-.88-4.66a27.15,27.15,0,0,1-.68-6.28,9.52,9.52,0,0,1,2.21-5.94c1.46-1.58,2.68-2,4.74-2.59,1.81-.54,4.68-1,6.47-.37a9.13,9.13,0,0,1,4.5,3.39,27,27,0,0,1,3.75,7.52,22.89,22.89,0,0,1,.62,8A23.69,23.69,0,0,1,175,86.82C173.46,90,171.78,91.26,169.21,92.92Z"/>
      <path class="cls-9" d="M163.87,63.16a6.15,6.15,0,0,0-2.29,1.13,16.69,16.69,0,0,0-2.55,3c-.41-.86,0-1.79.44-3.17a5.24,5.24,0,0,1,1-1.84,6,6,0,0,1,2.62-1.68,8.23,8.23,0,0,1,8.66,2.56c2.23,2.42,2.4,6.14,2.56,9.43.37,7.85-1.65,13.06-4.48,16.35-.12.14-2.46,3.49-4.28,2.92a2.51,2.51,0,0,1-.65-.38,4,4,0,0,1-1.56-2.58,2.49,2.49,0,0,1,1.6-2.67,2.32,2.32,0,0,0,1.56,2.5,1.9,1.9,0,0,0,1-.16,11.52,11.52,0,0,0,1.6-1.73,8.55,8.55,0,0,0,2.1-4.43,25,25,0,0,0,.65-4,36.88,36.88,0,0,0-.07-9.26c-.59-3.08-3.21-6.17-6.35-6.23A4.06,4.06,0,0,0,163.87,63.16Z"/>
      <path class="cls-8" d="M42.42,137.9c1.24-.2,3.19-.13,3.67-.74.71-.89.71-2.39.83-3.52.55-5.17-2.23-10-4.91-14.49l-2.45-4.05A26.82,26.82,0,0,0,35.89,110c-1.48-1.51-2.52-3-4.62-3.18a16.26,16.26,0,0,0-7.27.93c-1.71.8-4.12,2-5.05,3.63s-.28,4.46-.1,6.46c.27,2.75,1.46,5.24,2.56,7.77s3.3,4.56,5.12,6.41c2.44,2.5,5.44,3.13,8.69,4.44S39.4,138.37,42.42,137.9Z"/>
      <path class="cls-9" d="M26.61,111.48a6.09,6.09,0,0,1,2.47-.68,16.76,16.76,0,0,1,3.87.5c-.27-.91-1.2-1.32-2.44-2.07a5.35,5.35,0,0,0-2-.7,6.11,6.11,0,0,0-3.09.49,8.25,8.25,0,0,0-4.74,7.69c0,3.28,2.94,7.73,5,10.28,4.95,6.1,10,8.15,14.27,8.71.19,0,4.17,1,5.14-.67a2.33,2.33,0,0,0,.23-.72,4,4,0,0,0-.56-3,2.48,2.48,0,0,0-3-.92,2.35,2.35,0,0,1,.51,2.91,1.87,1.87,0,0,1-.85.53,11.7,11.7,0,0,1-2.34-.21,11.84,11.84,0,0,1-5.37-2.26,23.41,23.41,0,0,1-3.12-2.5,36.69,36.69,0,0,1-6.11-6.95c-1.63-2.69-1.56-7.46.74-9.6A4.08,4.08,0,0,1,26.61,111.48Z"/>
      <path class="cls-10" d="M108.76,101.68a14.05,14.05,0,0,1,.85-15.09,27.76,27.76,0,0,1,17-11.77c7-1.71,15.45,2.11,18.41,8.56a15.55,15.55,0,0,1-3.7,18.28,30.81,30.81,0,0,1-17.8,7.74C116.08,109.53,111.54,107,108.76,101.68Z"/>
      <path class="cls-10" d="M57.86,120.37a14.72,14.72,0,0,1,3.86-16.08,26.93,26.93,0,0,1,22-7c5.35.62,9.13,3.84,10.92,9,1.9,5.43,2.1,10.82-2.36,15.21a31,31,0,0,1-18.51,8.81C65.49,130.38,60.58,127,57.86,120.37Z"/>
      <g>
        <path class="cls-11" d="M122,90.12a11.09,11.09,0,1,1,11,11A11.1,11.1,0,0,1,122,90.12Zm17-7.6c-1.59-1-3.14-.66-4.88,1.15-2-.73-5.43.58-6.78,2.57a7.8,7.8,0,0,0,.48,9.48,7.2,7.2,0,0,0,9.16,1.38,7.57,7.57,0,0,0,3.32-8.69c-.08-.32-.16-.64-.25-1C140.85,85.06,140.53,83.52,138.94,82.52Z"/>
        <path class="cls-12" d="M134.06,83.67c-2-.73-5.43.58-6.78,2.57a7.8,7.8,0,0,0,.48,9.48,7.2,7.2,0,0,0,9.16,1.38,7.57,7.57,0,0,0,3.32-8.69c-.08-.32-.16-.64-.25-1-1.4,1.2-2.92,2-4.68.79S133.39,85.49,134.06,83.67Z"/>
        <path class="cls-10" d="M134.06,83.67c-.67,1.82-.45,3.44,1.25,4.57s3.28.41,4.68-.79c.86-2.39.54-3.93-1.05-4.93S135.8,81.86,134.06,83.67Z"/>
      </g>
      <g>
        <path class="cls-11" d="M90.75,119.67a11.07,11.07,0,1,1,0-15.6A11,11,0,0,1,90.75,119.67ZM76.11,115c.17.29.35.57.51.86a7.56,7.56,0,0,0,8.5,3.78,7.19,7.19,0,0,0,5.49-7.45,7.79,7.79,0,0,0-6.38-7c-2.35-.45-5.72,1.07-6.6,3-2.5,0-3.86.8-4.27,2.65S73.82,113.88,76.11,115Z"/>
        <path class="cls-12" d="M77.63,108.08c.88-1.91,4.25-3.43,6.6-3a7.79,7.79,0,0,1,6.38,7,7.19,7.19,0,0,1-5.49,7.45,7.56,7.56,0,0,1-8.5-3.78c-.16-.29-.34-.57-.51-.86,1.85-.14,3.46-.68,3.88-2.76S79.39,108.89,77.63,108.08Z"/>
        <path class="cls-10" d="M77.63,108.08c1.76.81,2.75,2.12,2.36,4.11s-2,2.62-3.88,2.76c-2.29-1.07-3.15-2.39-2.75-4.22S75.13,108,77.63,108.08Z"/>
      </g>
      <path class="cls-13" d="M128.72,129.81s.65-1.61-.7-.21a35.39,35.39,0,0,1-20.17,9.32,18.71,18.71,0,0,1-3.53.13c-.33,0-.33.37.25.45s5.58.41,7.35,1.56,3.82.45,4.31.37a20.62,20.62,0,0,0,7.15-3.49C125.43,135.6,124.65,133.71,128.72,129.81Z"/>
      <path class="cls-14" d="M128.63,128.57s.29,1.81-4.47,5.26a33.77,33.77,0,0,1-13.84,5.71A15.79,15.79,0,0,1,104,139Z"/>
      <path class="cls-15" d="M124.2,136.62s-4.6,2.59-5.59,3-5.42,1.77-6.57,3S123.71,141.88,124.2,136.62Z"/>
      <path class="cls-16" d="M98.86,139.79c1.93.53,4.6.45,7.06,2.05a29.78,29.78,0,0,0,2.79,2c.64.29,1.61,1.18,2.3,1.28a18,18,0,0,0,7-.41,37.05,37.05,0,0,0,5-2,11.12,11.12,0,0,0,4.65-3.54,4,4,0,0,0,.62-1.08,6.43,6.43,0,0,0,.2-2,15.83,15.83,0,0,1,3.09-9.34.19.19,0,0,0-.25-.27l-2.2,1.38a6.33,6.33,0,0,1-1.17.57,26,26,0,0,1-3,.88,29.42,29.42,0,0,0-4.11,1.23c-1.84.7-5.32,2.26-7.1,3.08C108.09,136.18,103.66,138.68,98.86,139.79Zm5.46-.74a18.71,18.71,0,0,0,3.53-.13A35.39,35.39,0,0,0,128,129.6c1.35-1.4.7.21.7.21-4.07,3.9-3.29,5.79-5.34,8.13a20.62,20.62,0,0,1-7.15,3.49c-.49.08-2.55.78-4.31-.37s-6.78-1.48-7.35-1.56S104,139.09,104.32,139.05Z"/>
      <path class="cls-11" d="M106.89,125.57c6.34.46,11.14-5,12.45-9.95.55-2.06-.45-3-2.48-2.45a8.42,8.42,0,0,0-1.88.73,93.77,93.77,0,0,1-13.84,6c-1,.33-2,.65-2.19,1.83s1,1.82,1.87,2.36A10.55,10.55,0,0,0,106.89,125.57Z"/>
      <path class="cls-1" d="M123.38,61.39c-5.48.38-11,1.67-15.47,5.83a11.23,11.23,0,0,0-1.09,1.19,1.62,1.62,0,0,0-.36,1.86c.46.77,1.2.33,1.79.09,2-.82,4-1.66,5.93-2.5,6.95-3,13.86-2.23,20.76.18a13.55,13.55,0,0,0,2.33.61c.55.08,1.28.34,1.61-.37s-.18-1.16-.53-1.63a10.9,10.9,0,0,0-4.62-3.14A27.53,27.53,0,0,0,123.38,61.39Z"/>
      <path class="cls-1" d="M51.05,103c0,1.5-.15,3.08,1.07,3.34s1.55-1.41,2-2.38c1.06-2.39,2-4.83,3.31-7.12,2.84-5,7.16-8.28,12.25-10.69,1.28-.6,2.54-1.23,3.79-1.9.52-.28,1.13-.65,1-1.36s-.91-.88-1.6-.94a11.94,11.94,0,0,0-5.52.88c-8.56,3.49-14.07,9.63-16.12,18.72A9.22,9.22,0,0,0,51.05,103Z"/>
    </g>
  </g>
</svg>
