<svg id="character" xmlns="http://www.w3.org/2000/svg" viewBox="0 0 195.57 294.29">
  <defs>
    <style>
      .cls-1 {
        fill: #0c0807;
      }

      .cls-2 {
        fill: #a56737;
      }

      .cls-3 {
        fill: #a46636;
      }

      .cls-4 {
        fill: #488dcb;
      }

      .cls-5 {
        fill: #d42027;
      }

      .cls-6 {
        fill: #21b14b;
      }

      .cls-7 {
        fill: #fde500;
      }

      .cls-8 {
        fill: #9a5b2a;
      }

      .cls-9 {
        fill: #6c401d;
      }

      .cls-10 {
        fill: #faf8f7;
      }

      .cls-11 {
        fill: #522f27;
      }

      .cls-12 {
        fill: #060504;
      }

      .cls-13 {
        fill: #600b0c;
      }

      .cls-14 {
        fill: #f2ecec;
      }

      .cls-15 {
        fill: #fff;
      }

      .cls-16 {
        fill: #734725;
      }
    </style>
  </defs>
  <title>p03</title>
  <g>
    <path class="cls-1" d="M114.35,261.89c.46-.38.71,0,.92.29,2.4,3.29,4,6.88,3.9,11.05s-2.73,6.87-6.48,8.35a8.88,8.88,0,0,0-3.85,2.78c-3.53,4.29-8.27,6.82-13.47,8.51a20.08,20.08,0,0,1-8.48,1.34c-7.1-.79-9.3-8.12-7.68-12.54a25.89,25.89,0,0,1,4.94-7.58A63.67,63.67,0,0,1,89,268.93a26.48,26.48,0,0,0,3.69-4.57,32,32,0,0,1,14.72,5.33c1.61,1.14,1.65,1.16,2.82-.37C112,267.05,113.85,264.85,114.35,261.89ZM96.92,280.13a13.82,13.82,0,0,0,5.5-3.2c1-.8,2.64-1.48,2.66-2.46,0-1.17-1.75-1.7-2.8-2.39-3.15-2.09-6.48-3.79-10.4-3.84a1.69,1.69,0,0,0-1.74.73,18.91,18.91,0,0,0-2.23,4.67c-.9,3.28.29,5.44,3.53,6.44A11.68,11.68,0,0,0,96.92,280.13Z"/>
    <path class="cls-1" d="M160.86,207.63c0-.09.06-.21.13-.26,4.2-2.81,6.79-7.29,10.74-10.36,1.14-.89,2.29-1.76,3.43-2.64,4.75-3.65,11.87-1.09,14,2.35a11.47,11.47,0,0,1,1.23,8.48,32,32,0,0,1-9.17,17.59,3.18,3.18,0,0,0-.84,1.77c-.82,3.75-2.74,6.88-6.69,7.44-4.71.66-9.49.44-13.62-2.59a22.06,22.06,0,0,0,7.46-5c.64-.61.74-1.1.11-1.8a28,28,0,0,1-5.57-10.45C161.59,210.67,161.54,209.06,160.86,207.63Zm15.88,3.89a10.38,10.38,0,0,0,.18-5c-.59-3.27-2.86-5.48-6.64-4.35a21.38,21.38,0,0,0-4.59,2.35,1.69,1.69,0,0,0-.87,1.78c.32,5.22,3.27,9.11,6.36,13,.33.42.64.36.92,0C173.84,216.76,176,214.53,176.74,211.52Z"/>
    <path class="cls-2" d="M114.35,261.89c-.5,3-2.39,5.16-4.14,7.43-1.17,1.53-1.21,1.51-2.82.37a32,32,0,0,0-14.72-5.33c1.18-2.87.81-5.87.71-8.83-.13-3.89-.35-7.77-.53-11.66,2.85-.55,5.76-.76,8.54-1.69,2.53-.85,5.07-1.68,7.6-2.51,1,5.24,1.77,10.52,3.12,15.69A39.63,39.63,0,0,0,114.35,261.89Z"/>
    <path class="cls-2" d="M160.86,207.63c.68,1.43.73,3,1.22,4.53a28,28,0,0,0,5.57,10.45c.63.7.53,1.19-.11,1.8a22.06,22.06,0,0,1-7.46,5c-3.94-1.79-8.22-1.65-12.39-2.15l-7.28-.89a50.13,50.13,0,0,0,3.18-17.13c4.41-.17,8.84,0,13.23-.63C158.2,208.4,159.51,207.94,160.86,207.63Z"/>
    <path class="cls-2" d="M96.92,280.13a11.68,11.68,0,0,1-5.48-.05c-3.24-1-4.43-3.16-3.53-6.44A18.91,18.91,0,0,1,90.14,269a1.69,1.69,0,0,1,1.74-.73c3.92.05,7.25,1.75,10.4,3.84,1,.69,2.81,1.22,2.8,2.39,0,1-1.7,1.66-2.66,2.46A13.82,13.82,0,0,1,96.92,280.13Z"/>
    <path class="cls-2" d="M176.74,211.52c-.79,3-2.9,5.24-4.64,7.69-.28.39-.59.45-.92,0-3.09-3.84-6-7.73-6.36-13a1.69,1.69,0,0,1,.87-1.78,21.38,21.38,0,0,1,4.59-2.35c3.78-1.13,6.05,1.08,6.64,4.35A10.38,10.38,0,0,1,176.74,211.52Z"/>
    <path class="cls-3" d="M187.67,68c-3.47,2.8-6,6.2-9.39,10.22-.19.22-.6.09-.56-.19.42-2.82,2.74-8.26,1.75-12a1.45,1.45,0,0,0-1.25-1c-1-.11-1.71,1.21-2.24,2.23l-3.62,11c-.36.8-.37,1.34-.85,1.23s0-1-.06-1.35a30.86,30.86,0,0,1-.42-4.7,8.21,8.21,0,0,0-.73-2,1.36,1.36,0,0,0-2.26.32,15.29,15.29,0,0,0-1.4,5.35c-.37,2.82-.66,5.73-1,8.55-.2,1.48-.13,2.69-1.22,3.93-1.37,1.55-3.19,3.72-4.67,5.15-7.58,7.31-13.49,12.36-22.64,18-1.76,1.08-4.19,2.21-4.27,4.27a4.27,4.27,0,0,0,.57,2.17,5.83,5.83,0,0,0,3.47,3c3.28,1,6.54-1,9.75-2.74a219,219,0,0,0,26.87-16.82c1.57-1.15,2.92-2.7,4.84-3,3.88-.62,8.23-1.1,11.91-2.91a1.93,1.93,0,0,0,1-2.46A3,3,0,0,0,189,92.73a32.53,32.53,0,0,1-4.4-1.35c-.9-.73.8-2.2,2-2.87a32.19,32.19,0,0,0,7.17-5.62c1.05-1.07,2.47-2.37,1.56-3.56-.51-.65-1.79-.49-2.59-.28a20,20,0,0,0-3,1.3,64.72,64.72,0,0,1-6.36,3c-.66-.2,1.73-3.59,4.28-8.14.17-.31,4-6.82,2.62-7.83C189.6,66.92,188.26,67.51,187.67,68Z"/>
    <path class="cls-4" d="M126.8,131a7.4,7.4,0,0,0,2.31-1c1.47-1,.74.31,2.18-1a19.73,19.73,0,0,1,6.62-3.74,1.92,1.92,0,0,0,1.74-2.27,11.51,11.51,0,0,0-2.26-7c-.87-1.32-1.87-2.47-2.82-3.73a2.38,2.38,0,0,0-1.66-1.21,7.18,7.18,0,0,0-1.89.36,30,30,0,0,1-7.12,1.19,11.6,11.6,0,0,0-7,2.65,12.88,12.88,0,0,0-3,4.28c-.92,2-.49,1-.45,3.14a7.87,7.87,0,0,0,2.47,5.81,12.57,12.57,0,0,0,3.15,1.84,12,12,0,0,0,3.82,1.27A11.83,11.83,0,0,0,126.8,131Z"/>
    <path class="cls-3" d="M9.15,75.84C12.3,79,14.42,82.63,17.41,87c.16.23.58.15.57-.14-.12-2.84-1.85-8.5-.47-12.08a1.44,1.44,0,0,1,1.34-.86c1,0,1.57,1.38,2,2.45l2.43,11.37c.27.83.22,1.38.72,1.31s.11-1,.19-1.33a30.59,30.59,0,0,0,.92-4.63,8.28,8.28,0,0,1,.94-1.94,1.36,1.36,0,0,1,2.22.55,15.27,15.27,0,0,1,.82,5.47c.07,2.85.06,5.77.13,8.61,0,1.5-.15,2.69.8,4,1.2,1.68,2.78,4,4.11,5.62,6.76,8.06,12.1,13.71,20.61,20.26,1.63,1.26,3.93,2.63,3.79,4.69a4.35,4.35,0,0,1-.79,2.1A5.78,5.78,0,0,1,54,135.13c-3.36.63-6.39-1.72-9.4-3.75a220.07,220.07,0,0,1-25-19.56c-1.43-1.31-2.61-3-4.49-3.51-3.79-1-8.07-2-11.53-4.15a1.92,1.92,0,0,1-.71-2.55,3,3,0,0,1,2.38-1.31,31.47,31.47,0,0,0,4.52-.88c1-.63-.56-2.27-1.69-3.07A31.64,31.64,0,0,1,1.56,90C.62,88.83-.65,87.39.39,86.3c.57-.59,1.83-.29,2.6,0a20.09,20.09,0,0,1,2.85,1.62,62.51,62.51,0,0,0,6,3.64c.68-.13-1.33-3.75-3.39-8.54-.14-.33-3.29-7.21-1.78-8.07C7.34,74.56,8.61,75.29,9.15,75.84Z"/>
    <path class="cls-4" d="M63.79,148.08a7.41,7.41,0,0,1-2.19-1.28c-1.36-1.11-1.53-3-2.82-4.41A19.59,19.59,0,0,0,52.59,138a3.28,3.28,0,0,1-1.29-.89,3.12,3.12,0,0,1-.2-1.55,11.53,11.53,0,0,1,3-6.78c1-1.22,2.12-2.25,3.2-3.41a2.38,2.38,0,0,1,1.78-1,7.52,7.52,0,0,1,1.84.56,29.72,29.72,0,0,0,7,1.94,11.54,11.54,0,0,1,6.64,3.37,12.72,12.72,0,0,1,2.56,4.57,14.27,14.27,0,0,1,.88,6.39,7.88,7.88,0,0,1-3.07,5.51,12.5,12.5,0,0,1-3.33,1.5,12,12,0,0,1-3.93.85A11.67,11.67,0,0,1,63.79,148.08Z"/>
    <path class="cls-4" d="M86.44,244.07a46.09,46.09,0,0,0,17.32-2.52c8.47-3.17,11.13-3.15,12.84-3.24s3.06.11,4.55-.54a20.88,20.88,0,0,1,3.39-1,25.59,25.59,0,0,0,7.78-2.83c2.66-1.67,5.73-3.59,7.77-6,1.21-1.44,2.27-3,3.47-4.43,2.43-2.91,4.21-6.28,6.51-9.29.55-.73,1.05-1.47,1.64-2.16s1.49-1.31,1.6-2.27c-.75-.69-2-.25-2.79-.91a5.31,5.31,0,0,1-.8-1.08c-.9-1.2-2.26-2.1-3.14-3.32a16.59,16.59,0,0,1-2.27-3.55,9.42,9.42,0,0,1-.35-2.53c-.31-2.78-1.93-5.7-3-8.27-2.19-5.39-4.55-10.71-7.15-15.91-1-2-2-4-3.11-5.9-4.47-7.85-10.17-29.9-10.17-29.9S118.87,122,115,118.17c-4.22-4.17-15-2-24.82.78a88.87,88.87,0,0,0-21.41,9.45C66.33,130,70.9,155,71.87,160s6.74,25.61,7.82,32.72,2.55,22.25,4.2,29.48S86.44,244.07,86.44,244.07Z"/>
    <polygon class="cls-5" points="109.97 118.41 104.4 118.59 73.22 125.87 70.28 126.96 75.48 142.8 111.03 134.3 109.97 118.41"/>
    <path class="cls-6" d="M105.88,118.44l-4.44-.17-25,5.77a17.8,17.8,0,0,0-1.57,1l-1.63.74,4.52,12.38L107,130.88Z"/>
    <polygon class="cls-7" points="101.69 118.2 95.76 118.05 79.24 122.19 76.41 123.92 80.22 133.87 103 128.16 101.69 118.2"/>
    <path class="cls-3" d="M82.76,130.14l-3.23-7.54a4.85,4.85,0,0,0,2.84-3.5c.32-2.46.77-5.56,6.58-6.86,5.6-1.26,4.86,1.56,5.39,2.53a26.43,26.43,0,0,1,1.12,2.49,2.38,2.38,0,0,0,2.43,1.59c1.51,0,.8,6.62.8,6.62Z"/>
    <g>
      <path d="M85.71,112.19s-14.48,8.06-19.79,16.23c0,0,3-16.87,3-21.79,0,0-11.55,14.22-24.31,14.34a25,25,0,0,0,12-22.2S36.15,86.67,29.4,65.46c0,0,11.81-19.41,15.36-22.55,0,0-3.35-17.37,3.64-24.72,0,0,18.85-7.4,29.14-3.75,0,0,9.45-11.84,25.38-14.44,0,0,22.94,8,27.13,20.9,0,0,23.51,8.71,26.92,10.54,0,0,5.4,16.82-.69,26.85,0,0,7.22,15.43,5.4,22.31,0,0-13.24,16.13-26.54,19.68s-2.6,33.4-2.6,33.4-11.39-14-18.94-17.6a106.46,106.46,0,0,1,1.6,17.65S102.68,110.77,85.71,112.19Z"/>
      <path class="cls-8" d="M47.91,60.89,50.7,50.58A3.4,3.4,0,0,0,50,48.4c-.76-.78-3.86-4.21-3.86-4.21s4.54,1,6,2.36c.59.15.73.66,1.43-.14s9.07-9.6,9.07-9.6S76.2,32,78.07,31s2.34-1.29,2.17-3.5S79.38,20,79.18,19c0,0,3.69,9.24,4,10.49s1.76.69,2.11.6,16.39-2.91,16.39-2.91a3.54,3.54,0,0,1,2,.25c1.46.46,13.75,5,15.8,6.51.76.34,1.14.18,1.42-.14s6.53-5,8-7.19c0,0-3.8,7-4,8.33-.58,1.25.42,1.1.68,1.4s9.34,7.19,9.34,7.19l4.39,13.69s10-1.14,13.17,1a20.63,20.63,0,0,0-10.9,1.38s1.7,6.13,1,8.64c.14,16.52-3.33,26.34-6.57,32.44-6.61,10.41-21.84,18.12-30.71,20.49-13.44,2.86-19.67,1.59-32.09-3.87-3.63-4-18.23-8.53-24.63-33Z"/>
      <path class="cls-8" d="M45.57,84a4.86,4.86,0,0,0,2.66.2c.75-.34,1.23-1.29,1.67-2,2-3.12,1.83-7.13,1.55-10.85L51.2,68a19.26,19.26,0,0,0-.68-4.47,6.8,6.8,0,0,0-2.63-3.7,6.27,6.27,0,0,0-3.76-.92,8.89,8.89,0,0,0-4.54.94A6.46,6.46,0,0,0,37.1,63a19.5,19.5,0,0,0-1.21,5.9,16.57,16.57,0,0,0,1,5.66,16.93,16.93,0,0,0,3.5,6.28A9.84,9.84,0,0,0,45.57,84Z"/>
      <path class="cls-9" d="M43.78,62.39a4.56,4.56,0,0,1,1.8.37,12.06,12.06,0,0,1,2.31,1.57c.12-.67-.34-1.23-.89-2.11a4,4,0,0,0-1-1.09,4.43,4.43,0,0,0-2.13-.68,5.89,5.89,0,0,0-5.52,3.37c-1.09,2.09-.53,4.7,0,7,1.19,5.5,3.55,8.74,6.12,10.49.11.07,2.35,2,3.5,1.23a2,2,0,0,0,.38-.38,2.91,2.91,0,0,0,.6-2.08,1.77,1.77,0,0,0-1.6-1.55,1.67,1.67,0,0,1-.62,2,1.32,1.32,0,0,1-.71.07,8.34,8.34,0,0,1-1.43-.9A6.13,6.13,0,0,1,42.26,77a18,18,0,0,1-1.18-2.61A27.1,27.1,0,0,1,39.42,68c-.16-2.25,1.08-4.87,3.24-5.49A3.28,3.28,0,0,1,43.78,62.39Z"/>
      <path class="cls-8" d="M141.62,91.7c-.89.1-2.22.5-2.67.17a5.09,5.09,0,0,1-1.23-2.29c-1.33-3.47-.31-7.35.73-10.93l1-3.25A19.15,19.15,0,0,1,141,71.16c.75-1.31,1.19-2.52,2.61-3a11.59,11.59,0,0,1,5.2-.7c1.33.24,3.22.62,4.17,1.58s1,3,1.25,4.45a18.67,18.67,0,0,1-.33,5.86,17.42,17.42,0,0,1-2.36,5.38c-1.23,2.18-3.19,3.16-5.19,4.67S143.8,91.47,141.62,91.7Z"/>
      <path class="cls-9" d="M147.69,70.5a4.34,4.34,0,0,0-1.83,0,12,12,0,0,0-2.59,1.06c0-.68.59-1.14,1.31-1.88a3.79,3.79,0,0,1,1.23-.86,4.43,4.43,0,0,1,2.23-.22,5.89,5.89,0,0,1,4.7,4.44c.63,2.27-.61,5.9-1.58,8-2.3,5.13-5.39,7.47-8.27,8.66-.12.05-2.7,1.43-3.68.48a1.92,1.92,0,0,1-.29-.45,2.84,2.84,0,0,1-.16-2.16,1.78,1.78,0,0,1,1.89-1.19,1.68,1.68,0,0,0,.18,2.11,1.36,1.36,0,0,0,.69.21,8.87,8.87,0,0,0,1.58-.58,8.63,8.63,0,0,0,3.3-2.55,17.31,17.31,0,0,0,1.69-2.31A26.34,26.34,0,0,0,151,77.36c.63-2.16-.3-5.45-2.28-6.5A3.15,3.15,0,0,0,147.69,70.5Z"/>
      <path class="cls-10" d="M80.26,86.94a22,22,0,0,1-13.75-2.07,11.14,11.14,0,0,1-5.93-12c.86-5,6-9.21,11.16-9.32a19.93,19.93,0,0,1,13.92,5A10.09,10.09,0,0,1,89,78.88C88.08,83.06,85.41,85.66,80.26,86.94Z"/>
      <path class="cls-10" d="M118.56,92.25a22.21,22.21,0,0,1-14.45-2.69c-3.89-2.21-4.75-6-4.44-10.09a9.11,9.11,0,0,1,5.91-8.23,19.27,19.27,0,0,1,16.49.77,10.52,10.52,0,0,1,5.63,10.41C127,87.49,124.27,90.76,118.56,92.25Z"/>
      <g>
        <path class="cls-11" d="M72.15,83a7.92,7.92,0,1,1,5.62-9.66A7.89,7.89,0,0,1,72.15,83ZM64.79,74.8v.71a5.42,5.42,0,0,0,3.91,5.4,5.16,5.16,0,0,0,6.08-2.65,5.58,5.58,0,0,0-1.42-6.65c-1.3-1.12-3.93-1.39-5.17-.52-1.53-.93-2.67-.9-3.59.1S63.75,73.3,64.79,74.8Z"/>
        <path class="cls-12" d="M68.19,71.09c1.24-.87,3.87-.6,5.17.52a5.58,5.58,0,0,1,1.42,6.65,5.16,5.16,0,0,1-6.08,2.65,5.42,5.42,0,0,1-3.91-5.4V74.8c1.19.57,2.39.82,3.39-.32A2.5,2.5,0,0,0,68.19,71.09Z"/>
        <path class="cls-10" d="M68.19,71.09a2.5,2.5,0,0,1,0,3.39c-1,1.14-2.2.89-3.39.32-1-1.5-1.1-2.62-.19-3.61S66.66,70.16,68.19,71.09Z"/>
      </g>
      <g>
        <path class="cls-11" d="M101.93,77.21A7.94,7.94,0,1,1,104.82,88,8,8,0,0,1,101.93,77.21Zm13.26,1.4c-.62-1.2-1.71-1.54-3.43-1-1-1.16-3.58-1.59-5.13-.85a5.6,5.6,0,0,0-3.11,6,5.15,5.15,0,0,0,5.18,4.14,5.42,5.42,0,0,0,5.18-4.18c.06-.23.13-.46.19-.69C115.46,80.87,115.81,79.8,115.19,78.61Z"/>
        <path class="cls-12" d="M111.76,77.57c-1-1.16-3.58-1.59-5.13-.85a5.6,5.6,0,0,0-3.11,6,5.15,5.15,0,0,0,5.18,4.14,5.42,5.42,0,0,0,5.18-4.18c.06-.23.13-.46.19-.69-1.3.24-2.52.17-3.19-1.19A2.5,2.5,0,0,1,111.76,77.57Z"/>
        <path class="cls-10" d="M111.76,77.57a2.5,2.5,0,0,0-.88,3.28c.67,1.36,1.89,1.43,3.19,1.19,1.39-1.17,1.74-2.24,1.12-3.43S113.48,77.07,111.76,77.57Z"/>
      </g>
      <path class="cls-13" d="M80.41,102s-.75-1,.44-.27a25.45,25.45,0,0,0,15.68,2.73,12.76,12.76,0,0,0,2.47-.57c.23,0,.29.2-.09.36s-3.79,1.32-4.8,2.44a3.92,3.92,0,0,1-2.91,1,14.83,14.83,0,0,1-5.6-1.1C83.75,105.43,83.94,104,80.41,102Z"/>
      <path class="cls-14" d="M80.24,101.16s.13,1.31,4.07,2.81a24.18,24.18,0,0,0,10.63,1.4,11.14,11.14,0,0,0,4.25-1.53Z"/>
      <path class="cls-15" d="M84.79,105.92s3.67.94,4.42,1,4.08.22,5.1.86S86.11,109.46,84.79,105.92Z"/>
      <path class="cls-16" d="M91.48,101.88c-1.39-.24-4.08-.68-5.48-.82a21,21,0,0,0-3.07-.1,18.29,18.29,0,0,1-2.21-.06,4.58,4.58,0,0,1-.91-.18L78,100.17a.13.13,0,0,0-.12.23,11.27,11.27,0,0,1,3.85,5.9,4.91,4.91,0,0,0,.52,1.35,2.94,2.94,0,0,0,.63.64,8,8,0,0,0,3.87,1.59,27.2,27.2,0,0,0,3.81.49,12.89,12.89,0,0,0,4.9-1c.46-.2,1-1,1.35-1.31a20.7,20.7,0,0,0,1.57-1.91c1.41-1.56,3.27-2,4.51-2.72C99.39,103.55,95.86,102.64,91.48,101.88Zm7.43,2.4c-.38.16-3.79,1.32-4.8,2.44a3.92,3.92,0,0,1-2.91,1,14.83,14.83,0,0,1-5.6-1.1c-1.85-1.24-1.66-2.69-5.19-4.64,0,0-.75-1,.44-.27a25.45,25.45,0,0,0,15.68,2.73,12.76,12.76,0,0,0,2.47-.57C99.23,103.89,99.29,104.12,98.91,104.28Z"/>
      <path class="cls-11" d="M94.73,95.07c-4.3,1.49-8.64-1.43-10.45-4.59-.76-1.32-.24-2.16,1.27-2.15a6.33,6.33,0,0,1,1.43.16,66.32,66.32,0,0,0,10.68,1.59c.72.06,1.54.08,1.85.87s-.31,1.43-.85,2A7.55,7.55,0,0,1,94.73,95.07Z"/>
      <path class="cls-1" d="M71.48,53.7c3.86-.75,7.92-.88,11.78,1.18a8.87,8.87,0,0,1,1,.62,1.14,1.14,0,0,1,.59,1.22c-.17.62-.76.45-1.22.39-1.52-.2-3-.41-4.56-.64-5.37-.78-10,1-14.34,4a9.55,9.55,0,0,1-1.49.85c-.37.16-.83.48-1.19,0s-.09-.84.07-1.23a7.71,7.71,0,0,1,2.61-3A19.8,19.8,0,0,1,71.48,53.7Z"/>
      <path class="cls-1" d="M129.21,69.14c.27,1,.67,2.1-.12,2.5s-1.34-.68-1.81-1.27c-1.18-1.46-2.29-3-3.61-4.32a18.81,18.81,0,0,0-10.45-5.14c-1-.18-2-.38-3-.61-.42-.1-.91-.25-.94-.77s.47-.77.93-.94a8.61,8.61,0,0,1,4-.41,18.11,18.11,0,0,1,14.61,10A5.87,5.87,0,0,1,129.21,69.14Z"/>
    </g>
  </g>
</svg>
