<svg xmlns="http://www.w3.org/2000/svg" viewBox="0 0 161.75 249.63">
  <defs>
    <style>
      .cls-1 {
        fill: #0c0807;
      }

      .cls-2 {
        fill: #a56737;
      }

      .cls-3 {
        fill: #a46636;
      }

      .cls-4 {
        fill: #488dcb;
      }

      .cls-5 {
        fill: #d42027;
      }

      .cls-6 {
        fill: #21b14b;
      }

      .cls-7 {
        fill: #fde500;
      }

      .cls-8 {
        fill: #9a5b2a;
      }

      .cls-9 {
        fill: #6c401d;
      }

      .cls-10 {
        fill: #faf8f7;
      }

      .cls-11 {
        fill: #522f27;
      }

      .cls-12 {
        fill: #060504;
      }

      .cls-13 {
        fill: #600b0c;
      }

      .cls-14 {
        fill: #f2ecec;
      }

      .cls-15 {
        fill: #fff;
      }

      .cls-16 {
        fill: #734725;
      }

      .cls-17 {
        fill: #a87c4f;
      }

      .cls-18 {
        fill: #d0ad80;
      }

      .cls-19 {
        fill: #c3996b;
      }
    </style>
  </defs>
  <title>p14</title>
  <g id="character">
    <g>
      <path class="cls-1" d="M97,222.15c.39-.32.6,0,.78.25a14.83,14.83,0,0,1,3.31,9.37c-.13,3.65-2.32,5.83-5.5,7.08a7.51,7.51,0,0,0-3.26,2.36c-3,3.64-7,5.78-11.43,7.22a17.12,17.12,0,0,1-7.19,1.14c-6-.67-7.9-6.89-6.52-10.64a21.75,21.75,0,0,1,4.19-6.43,53,53,0,0,1,4.1-4.38,22.29,22.29,0,0,0,3.13-3.87,27.07,27.07,0,0,1,12.48,4.51c1.37,1,1.4,1,2.4-.3C95,226.53,96.57,224.66,97,222.15ZM82.21,237.62a11.59,11.59,0,0,0,4.67-2.72c.81-.67,2.24-1.25,2.25-2.08,0-1-1.48-1.44-2.37-2-2.67-1.77-5.5-3.21-8.82-3.25a1.43,1.43,0,0,0-1.48.62,15.68,15.68,0,0,0-1.89,4c-.76,2.78.25,4.61,3,5.46A10,10,0,0,0,82.21,237.62Z"/>
      <path class="cls-1" d="M136.45,176.12c0-.07.05-.17.11-.21,3.56-2.39,5.76-6.19,9.11-8.8l2.91-2.23c4-3.1,10.07-.93,11.88,2a9.75,9.75,0,0,1,1,7.19A27.17,27.17,0,0,1,153.73,189a2.71,2.71,0,0,0-.72,1.49c-.69,3.18-2.31,5.84-5.67,6.31-4,.57-8.05.38-11.55-2.19a18.7,18.7,0,0,0,6.33-4.24c.54-.52.62-.93.09-1.53a23.9,23.9,0,0,1-4.73-8.86A29.92,29.92,0,0,0,136.45,176.12Zm13.47,3.3a8.84,8.84,0,0,0,.16-4.24c-.51-2.78-2.44-4.65-5.64-3.69a17.85,17.85,0,0,0-3.89,2,1.41,1.41,0,0,0-.74,1.51c.27,4.42,2.77,7.73,5.39,11,.29.36.55.31.78,0C147.46,183.87,149.25,182,149.92,179.42Z"/>
      <path class="cls-2" d="M97,222.15c-.43,2.51-2,4.38-3.51,6.31-1,1.29-1,1.27-2.4.3a27.07,27.07,0,0,0-12.48-4.51c1-2.44.69-5,.6-7.5-.11-3.29-.3-6.59-.45-9.89A53.88,53.88,0,0,0,86,205.43l6.45-2.13c.83,4.45,1.5,8.93,2.65,13.31A31.78,31.78,0,0,0,97,222.15Z"/>
      <path class="cls-2" d="M136.45,176.12a29.92,29.92,0,0,1,1,3.85,23.9,23.9,0,0,0,4.73,8.86c.53.6.45,1-.09,1.53a18.7,18.7,0,0,1-6.33,4.24c-3.35-1.52-7-1.4-10.51-1.82L119.1,192a42.17,42.17,0,0,0,2.7-14.53A102.54,102.54,0,0,0,133,177C134.2,176.78,135.31,176.38,136.45,176.12Z"/>
      <path class="cls-2" d="M82.21,237.62a10,10,0,0,1-4.64,0c-2.75-.85-3.76-2.68-3-5.46a15.68,15.68,0,0,1,1.89-4,1.43,1.43,0,0,1,1.48-.62c3.32,0,6.15,1.48,8.82,3.25.89.59,2.39,1,2.37,2,0,.83-1.44,1.41-2.25,2.08A11.59,11.59,0,0,1,82.21,237.62Z"/>
      <path class="cls-2" d="M149.92,179.42c-.67,2.56-2.46,4.45-3.94,6.53-.23.33-.49.38-.78,0-2.62-3.25-5.12-6.56-5.39-11a1.41,1.41,0,0,1,.74-1.51,17.85,17.85,0,0,1,3.89-2c3.2-1,5.13.91,5.64,3.69A8.84,8.84,0,0,1,149.92,179.42Z"/>
      <path class="cls-3" d="M146.54,44.66c-2.32,3-3.71,6.28-5.76,10.27-.11.22-.48.19-.5,0-.2-2.41.66-7.35-.89-10.22a1.23,1.23,0,0,0-1.22-.58c-.86.1-1.18,1.33-1.42,2.28l-.84,9.82c-.14.73,0,1.18-.46,1.18s-.2-.79-.31-1.1a26.44,26.44,0,0,1-1.26-3.8,7,7,0,0,0-1-1.53,1.16,1.16,0,0,0-1.81.7,13,13,0,0,0-.1,4.69c.24,2.4.56,4.87.8,7.27.13,1.26.41,2.24-.24,3.48-.83,1.54-1.91,3.69-2.86,5.16a102.9,102.9,0,0,1-15.19,19.25c-1.24,1.23-3,2.63-2.69,4.35a3.57,3.57,0,0,0,.89,1.68,4.93,4.93,0,0,0,3.46,1.82c2.9.17,5.2-2.13,7.51-4.16a184.42,184.42,0,0,0,18.91-19.11c1.07-1.26,1.89-2.8,3.41-3.43,3.08-1.27,6.58-2.51,9.27-4.73a1.62,1.62,0,0,0,.32-2.21,2.53,2.53,0,0,0-2.15-.85,26.9,26.9,0,0,1-3.89-.27c-.89-.42.23-2,1.09-2.76a26.75,26.75,0,0,0,4.82-6c.67-1.09,1.59-2.44.6-3.24-.54-.44-1.57,0-2.19.27a16.33,16.33,0,0,0-2.23,1.66,56.54,56.54,0,0,1-4.67,3.71c-.59,0,.72-3.3,1.94-7.56.09-.29,2-6.41.65-7C147.92,43.4,146.94,44.15,146.54,44.66Z"/>
      <path class="cls-4" d="M108.54,108.49a6.23,6.23,0,0,0,1.71-1.31c1-1.07.67.12,1.61-1.23a16.62,16.62,0,0,1,4.73-4.38,1.64,1.64,0,0,0,1-2.21A9.8,9.8,0,0,0,114.35,94c-1-.92-2-1.66-3-2.53a2,2,0,0,0-1.61-.67,6,6,0,0,0-1.49.67,25.79,25.79,0,0,1-5.65,2.37,9.73,9.73,0,0,0-5.23,3.54,10.7,10.7,0,0,0-1.67,4.12c-.38,1.8-.22.9.23,2.69a6.71,6.71,0,0,0,3.18,4.31,10.71,10.71,0,0,0,3,.91,10.31,10.31,0,0,0,3.4.3A9.87,9.87,0,0,0,108.54,108.49Z"/>
      <path class="cls-3" d="M7.76,64.33c2.68,2.67,4.47,5.76,7,9.46.13.21.49.14.48-.11-.1-2.41-1.57-7.21-.4-10.25A1.23,1.23,0,0,1,16,62.7c.87,0,1.33,1.17,1.69,2.08l2.07,9.64c.23.71.19,1.17.61,1.12s.09-.82.16-1.13a26.27,26.27,0,0,0,.78-3.93,6.74,6.74,0,0,1,.8-1.64A1.16,1.16,0,0,1,24,69.3a13,13,0,0,1,.69,4.64c.07,2.42,0,4.9.12,7.31,0,1.27-.13,2.28.68,3.42,1,1.43,2.35,3.43,3.48,4.77a102.66,102.66,0,0,0,17.48,17.18c1.39,1.07,3.34,2.24,3.22,4a3.59,3.59,0,0,1-.67,1.78,4.89,4.89,0,0,1-3.2,2.24c-2.86.54-5.43-1.45-8-3.18A186.15,186.15,0,0,1,16.64,94.85c-1.22-1.11-2.22-2.54-3.82-3C9.61,91,6,90.21,3,88.35a1.61,1.61,0,0,1-.59-2.16,2.54,2.54,0,0,1,2-1.11,26.6,26.6,0,0,0,3.83-.75c.83-.53-.47-1.92-1.43-2.6a27.16,27.16,0,0,1-5.54-5.38c-.79-1-1.87-2.22-1-3.14.48-.51,1.55-.25,2.21,0A16.42,16.42,0,0,1,5,74.57a55,55,0,0,0,5.1,3.09c.58-.11-1.13-3.18-2.87-7.25-.12-.28-2.8-6.11-1.52-6.84C6.23,63.25,7.3,63.87,7.76,64.33Z"/>
      <path class="cls-4" d="M54.11,125.61a6.23,6.23,0,0,1-1.86-1.09c-1.15-.93-1.29-2.52-2.39-3.74A16.6,16.6,0,0,0,44.61,117a2.63,2.63,0,0,1-1.09-.75,2.55,2.55,0,0,1-.17-1.32,9.73,9.73,0,0,1,2.53-5.75c.86-1,1.8-1.91,2.72-2.89a2,2,0,0,1,1.51-.87,6.25,6.25,0,0,1,1.56.48,26.47,26.47,0,0,0,5.9,1.64,9.76,9.76,0,0,1,5.63,2.85,10.79,10.79,0,0,1,2.18,3.88,12.13,12.13,0,0,1,.74,5.42,6.7,6.7,0,0,1-2.6,4.68,10.76,10.76,0,0,1-2.83,1.27,9.9,9.9,0,0,1-3.33.72A10,10,0,0,1,54.11,125.61Z"/>
      <path d="M72.7,95.16S60.42,102,55.92,108.94c0,0,2.54-14.32,2.51-18.49,0,0-9.8,12.06-20.62,12.16A21.18,21.18,0,0,0,48,83.78s-17.3-10.26-23-28.25c0,0,10-16.47,13-19.13,0,0-2.85-14.74,3.08-21,0,0,16-6.28,24.72-3.18,0,0,8-10,21.53-12.25,0,0,19.46,6.74,23,17.73,0,0,19.95,7.38,22.84,8.94,0,0,4.58,14.27-.59,22.78,0,0,6.13,13.08,4.59,18.92,0,0-11.23,13.69-22.52,16.7s-2.2,28.32-2.2,28.32-9.67-11.83-16.07-14.93a90,90,0,0,1,1.36,15S87.1,94,72.7,95.16Z"/>
      <path class="cls-4" d="M73.32,207A39,39,0,0,0,88,204.9c7.18-2.7,9.44-2.68,10.89-2.75a10.54,10.54,0,0,0,3.86-.46,16.82,16.82,0,0,1,2.87-.83,21.45,21.45,0,0,0,6.6-2.41,28,28,0,0,0,6.6-5.1c1-1.22,1.92-2.53,2.94-3.76,2-2.46,3.57-5.32,5.52-7.88.47-.62.89-1.24,1.39-1.83S130,178.77,130,178c-.63-.58-1.69-.21-2.36-.76a4.1,4.1,0,0,1-.67-.93c-.77-1-1.93-1.78-2.68-2.81a14.37,14.37,0,0,1-1.92-3,8.19,8.19,0,0,1-.29-2.15c-.27-2.36-1.64-4.83-2.53-7-1.85-4.57-3.86-9.09-6.06-13.5-.84-1.69-1.71-3.36-2.64-5-3.79-6.66-8.62-25.36-8.62-25.36s-1.43-13.91-4.74-17.18c-3.58-3.54-12.68-1.65-21,.66a75.53,75.53,0,0,0-18.16,8c-2,1.32,1.82,22.52,2.65,26.8s5.71,21.71,6.62,27.75,2.17,18.87,3.57,25S73.32,207,73.32,207Z"/>
      <polygon class="cls-5" points="93.28 100.44 88.56 100.59 62.11 106.77 59.62 107.69 64.03 121.13 94.18 113.92 93.28 100.44"/>
      <path class="cls-6" d="M89.82,100.46l-3.77-.14-21.21,4.89c-.46.16-1.27.86-1.33.82l-1.38.63L66,117.16,90.72,111Z"/>
      <polygon class="cls-7" points="86.26 100.26 81.23 100.13 67.22 103.65 64.82 105.12 68.05 113.55 87.37 108.71 86.26 100.26"/>
      <path class="cls-3" d="M70.2,110.4,67.46,104a4.12,4.12,0,0,0,2.41-3c.27-2.09.66-4.72,5.58-5.82,4.75-1.07,4.12,1.32,4.58,2.15a22,22,0,0,1,1,2.11A2,2,0,0,0,83,100.81c1.27,0,.67,5.62.67,5.62Z"/>
      <path class="cls-8" d="M40.64,51.65,43,42.91a2.91,2.91,0,0,0-.6-1.86c-.64-.65-3.27-3.57-3.27-3.57s3.85.89,5.08,2c.49.12.61.56,1.2-.12s7.7-8.15,7.7-8.15,11.52-4,13.1-4.89,2-1.09,1.85-3-.73-6.41-.9-7.25c0,0,3.12,7.85,3.4,8.91s1.5.58,1.79.5,13.91-2.47,13.91-2.47a3.07,3.07,0,0,1,1.71.22c1.24.39,11.66,4.22,13.4,5.52.65.29,1,.15,1.21-.12s5.54-4.21,6.79-6.1c0,0-3.22,5.92-3.43,7.06-.49,1.07.35.94.57,1.19s7.93,6.1,7.93,6.1l3.72,11.61s8.47-1,11.17.85a17.45,17.45,0,0,0-9.24,1.17s1.44,5.2.82,7.32c.12,14-2.83,22.35-5.58,27.52-5.6,8.83-18.52,15.38-26,17.38-11.4,2.43-16.69,1.35-27.22-3.28-3.08-3.41-15.47-7.23-20.9-28Z"/>
      <path class="cls-8" d="M38.66,71.24a4.2,4.2,0,0,0,2.25.17c.63-.29,1-1.1,1.42-1.68,1.72-2.65,1.55-6.06,1.32-9.2l-.22-2.87a16.25,16.25,0,0,0-.58-3.8,5.75,5.75,0,0,0-2.22-3.14A5.43,5.43,0,0,0,37.44,50a7.56,7.56,0,0,0-3.86.79,5.56,5.56,0,0,0-2.11,2.69,16.81,16.81,0,0,0-1,5,14.15,14.15,0,0,0,.89,4.79,14.52,14.52,0,0,0,3,5.33A8.41,8.41,0,0,0,38.66,71.24Z"/>
      <path class="cls-9" d="M37.14,52.93a3.68,3.68,0,0,1,1.52.3,10.61,10.61,0,0,1,2,1.34c.11-.57-.29-1-.75-1.79a3.22,3.22,0,0,0-.88-.92,3.59,3.59,0,0,0-1.81-.58,5,5,0,0,0-4.67,2.86c-.93,1.77-.45,4,0,5.93,1,4.67,3,7.41,5.19,8.9.09.07,2,1.66,3,1a1.67,1.67,0,0,0,.32-.33,2.43,2.43,0,0,0,.51-1.76,1.51,1.51,0,0,0-1.36-1.32,1.42,1.42,0,0,1-.52,1.72,1.24,1.24,0,0,1-.61.06,7.47,7.47,0,0,1-1.21-.77,5.13,5.13,0,0,1-1.92-2.27,15.12,15.12,0,0,1-1-2.21,22.45,22.45,0,0,1-1.41-5.45c-.14-1.91.92-4.13,2.75-4.66A2.55,2.55,0,0,1,37.14,52.93Z"/>
      <path class="cls-8" d="M120.13,77.79c-.75.08-1.89.42-2.27.14a4.34,4.34,0,0,1-1-1.94c-1.13-2.95-.26-6.24.62-9.27l.8-2.76a16.28,16.28,0,0,1,1.36-3.6c.63-1.11,1-2.14,2.21-2.58a9.81,9.81,0,0,1,4.41-.6,7,7,0,0,1,3.53,1.35c.86.86.87,2.57,1.07,3.77a15.72,15.72,0,0,1-.28,5,15,15,0,0,1-2,4.56c-1,1.85-2.71,2.68-4.41,4S122,77.59,120.13,77.79Z"/>
      <path class="cls-9" d="M125.28,59.8a3.9,3.9,0,0,0-1.56,0,10.2,10.2,0,0,0-2.19.9c0-.58.5-1,1.11-1.6a3.5,3.5,0,0,1,1-.72,3.63,3.63,0,0,1,1.88-.19,5,5,0,0,1,4,3.77c.54,1.92-.52,5-1.33,6.82-2,4.36-4.58,6.35-7,7.35-.11,0-2.3,1.21-3.12.41a1.56,1.56,0,0,1-.25-.38,2.45,2.45,0,0,1-.14-1.83,1.51,1.51,0,0,1,1.6-1,1.41,1.41,0,0,0,.16,1.78,1.18,1.18,0,0,0,.58.19,7.48,7.48,0,0,0,1.34-.5,7.13,7.13,0,0,0,2.8-2.16,14.52,14.52,0,0,0,1.44-2,22.36,22.36,0,0,0,2.5-5c.53-1.83-.25-4.62-1.94-5.52A2.59,2.59,0,0,0,125.28,59.8Z"/>
      <path class="cls-10" d="M68.08,73.75A18.71,18.71,0,0,1,56.42,72a9.46,9.46,0,0,1-5-10.16c.72-4.25,5.1-7.82,9.46-7.91a16.9,16.9,0,0,1,11.81,4.25,8.56,8.56,0,0,1,2.86,8.73C74.72,70.45,72.45,72.66,68.08,73.75Z"/>
      <path class="cls-10" d="M100.57,78.25A18.78,18.78,0,0,1,88.32,76c-3.31-1.87-4-5.07-3.77-8.56a7.71,7.71,0,0,1,5-7,16.35,16.35,0,0,1,14,.65,9,9,0,0,1,4.79,8.83C107.76,74.22,105.41,77,100.57,78.25Z"/>
      <g>
        <path class="cls-11" d="M61.2,70.39a6.72,6.72,0,0,1-3.53-13,6.72,6.72,0,1,1,3.53,13ZM55,63.45v.6a4.59,4.59,0,0,0,3.31,4.58,4.37,4.37,0,0,0,5.16-2.24,4.73,4.73,0,0,0-1.2-5.64,4.15,4.15,0,0,0-4.38-.45c-1.3-.79-2.27-.76-3.05.09S54.08,62.18,55,63.45Z"/>
        <path class="cls-12" d="M57.85,60.3a4.15,4.15,0,0,1,4.38.45,4.73,4.73,0,0,1,1.2,5.64,4.37,4.37,0,0,1-5.16,2.24A4.59,4.59,0,0,1,55,64.05v-.6c1,.48,2,.69,2.87-.27A2.12,2.12,0,0,0,57.85,60.3Z"/>
        <path class="cls-10" d="M57.85,60.3a2.12,2.12,0,0,1,0,2.88c-.85,1-1.86.75-2.87.27-.88-1.27-.93-2.22-.16-3.06S56.55,59.51,57.85,60.3Z"/>
      </g>
      <g>
        <path class="cls-11" d="M86.47,65.49a6.73,6.73,0,1,1,2.44,9.17A6.74,6.74,0,0,1,86.47,65.49Zm11.24,1.19c-.52-1-1.45-1.3-2.91-.88a4.17,4.17,0,0,0-4.35-.72,4.75,4.75,0,0,0-2.64,5.13,4.38,4.38,0,0,0,4.39,3.52,4.6,4.6,0,0,0,4.4-3.55c.05-.2.11-.39.16-.59C97.94,68.6,98.24,67.69,97.71,66.68Z"/>
        <path class="cls-12" d="M94.8,65.8a4.17,4.17,0,0,0-4.35-.72,4.75,4.75,0,0,0-2.64,5.13,4.38,4.38,0,0,0,4.39,3.52,4.6,4.6,0,0,0,4.4-3.55c.05-.2.11-.39.16-.59-1.1.21-2.14.14-2.7-1A2.12,2.12,0,0,1,94.8,65.8Z"/>
        <path class="cls-10" d="M94.8,65.8a2.12,2.12,0,0,0-.74,2.78c.56,1.15,1.6,1.22,2.7,1,1.18-1,1.48-1.9.95-2.91S96.26,65.38,94.8,65.8Z"/>
      </g>
      <path class="cls-13" d="M68.21,86.55s-.64-.84.38-.23a21.39,21.39,0,0,0,13.29,2.31,10.87,10.87,0,0,0,2.1-.48c.2,0,.25.17-.08.31s-3.21,1.11-4.07,2.06a3.32,3.32,0,0,1-2.47.9,12.62,12.62,0,0,1-4.75-.93C71,89.43,71.21,88.2,68.21,86.55Z"/>
      <path class="cls-14" d="M68.06,85.81s.12,1.11,3.45,2.39a20.47,20.47,0,0,0,9,1.18,9.56,9.56,0,0,0,3.61-1.3Z"/>
      <path class="cls-15" d="M71.93,89.84s3.1.8,3.75.89,3.45.19,4.32.73S73,92.85,71.93,89.84Z"/>
      <path class="cls-16" d="M77.6,86.42c-1.18-.2-3.47-.57-4.65-.7a19,19,0,0,0-2.61-.08,16.81,16.81,0,0,1-1.87,0,4,4,0,0,1-.77-.15L66.19,85a.12.12,0,0,0-.11.2,9.52,9.52,0,0,1,3.28,5,3.89,3.89,0,0,0,.43,1.15,2.76,2.76,0,0,0,.54.54,6.78,6.78,0,0,0,3.28,1.34,21.92,21.92,0,0,0,3.24.42A10.77,10.77,0,0,0,81,92.77c.39-.16.82-.84,1.15-1.11A16.06,16.06,0,0,0,83.47,90c1.2-1.32,2.78-1.69,3.83-2.31C84.3,87.83,81.32,87.06,77.6,86.42Zm6.3,2c-.32.14-3.21,1.11-4.07,2.06a3.32,3.32,0,0,1-2.47.9,12.62,12.62,0,0,1-4.75-.93c-1.57-1.06-1.4-2.29-4.4-3.94,0,0-.64-.84.38-.23a21.39,21.39,0,0,0,13.29,2.31,10.87,10.87,0,0,0,2.1-.48C84.18,88.13,84.23,88.32,83.9,88.46Z"/>
      <path class="cls-11" d="M80.36,80.65c-3.65,1.26-7.33-1.22-8.87-3.9-.64-1.12-.2-1.83,1.07-1.83a5.5,5.5,0,0,1,1.22.14,57.77,57.77,0,0,0,9.06,1.36c.61,0,1.31.06,1.57.73s-.26,1.21-.72,1.67A6.45,6.45,0,0,1,80.36,80.65Z"/>
      <path class="cls-1" d="M60.63,45.55c3.27-.64,6.72-.74,10,1a8.15,8.15,0,0,1,.82.53,1,1,0,0,1,.5,1c-.15.53-.65.39-1,.33-1.29-.16-2.58-.35-3.87-.53-4.55-.67-8.48.86-12.16,3.35a7.56,7.56,0,0,1-1.27.72c-.31.14-.69.41-1,0s-.08-.71.06-1a6.53,6.53,0,0,1,2.21-2.56A16.61,16.61,0,0,1,60.63,45.55Z"/>
      <path class="cls-1" d="M109.6,58.65c.23.88.58,1.78-.1,2.12s-1.13-.58-1.54-1.08A46.32,46.32,0,0,0,104.9,56,16,16,0,0,0,96,51.67c-.84-.15-1.68-.33-2.52-.52-.35-.09-.77-.21-.79-.65s.39-.65.78-.8a7.37,7.37,0,0,1,3.39-.35,15.37,15.37,0,0,1,12.39,8.47A4.81,4.81,0,0,1,109.6,58.65Z"/>
    </g>
    <g>
      <path class="cls-17" d="M64.41,154.78s-11.14,24.16-8.92,35.13c1,3.87-.39-6.37,13-35.32Z"/>
      <path class="cls-17" d="M72.8,153.48s3.27,31.72,8.27,44.64c0,0-2.76-37.84-2.54-45.18Z"/>
      <path class="cls-17" d="M69.27,154.42s-6.21,34.66-4.09,41.91a86.76,86.76,0,0,1,.45-41.81Z"/>
      <path class="cls-18" d="M67.47,154s-6.6,30-5.52,41c0,0-7.37-12.64,3.06-41.32Z"/>
      <path class="cls-17" d="M78.32,153.28s3.85,32.32,9,45.54c0,0-3.47-38.52-3.42-46Z"/>
      <path class="cls-17" d="M78.91,154s7,31.74,13.37,44.49c0,0-7.19-37.9-7.85-45.29Z"/>
      <path class="cls-17" d="M73.45,154.88s0,.11,0,.32c-.21,3.69-2.12,37.4-.22,44.39,0,0-5-25.44-5-44.15"/>
      <path class="cls-19" d="M65.81,153.8S64.5,186,67.41,199.47c0,0,2.64-38.23,3.86-45.56Z"/>
      <path class="cls-18" d="M70.17,153.7s3.27,31.73,8.27,44.65c0,0-2.76-37.85-2.54-45.19Z"/>
      <path class="cls-19" d="M75.07,153.87s3.84,32.32,9,45.54c0,0-3.46-38.52-3.41-46Z"/>
      <path class="cls-19" d="M108.65,144.24s22.59,21.93,28,31.84c0,0-1-14.4-26.06-33.32Z"/>
      <path class="cls-17" d="M106.51,145.43s22.6,21.94,28,31.84c0,0-1-14.39-26.06-33.31Z"/>
      <path class="cls-17" d="M104.2,146.53S119.46,175,122.59,188.4c0,0-19.17-33.33-23.53-39.42Z"/>
      <path class="cls-17" d="M104,147.53l.2.27c2.28,3,23,30.48,25.4,37.33,0,0-10.18-24-20.87-39.78"/>
      <path class="cls-18" d="M109.84,142.75s19.37,26.47,24.59,39.35c0,0-24-30.92-29.14-36.49Z"/>
      <path class="cls-19" d="M106.1,144.88s15.26,28.43,18.39,41.86c0,0-19.18-33.33-23.53-39.41Z"/>
      <path class="cls-17" d="M97.58,148.55s12.25,27.31,9.54,45.45c0,0-12.63-33.58-13.78-44.23Z"/>
      <path class="cls-17" d="M90.1,149.82s12.25,27.31,9.55,45.45c0,0-12.64-33.58-13.79-44.24Z"/>
      <path class="cls-18" d="M83.8,151.29s12.25,27.31,9.54,45.45c0,0-12.63-33.58-13.78-44.23Z"/>
      <path class="cls-17" d="M101.26,146.86s12.15,30.31,14,44.32c0,0-15.47-35.63-19.11-42.2Z"/>
      <path class="cls-18" d="M102.07,147.5s15.11,29.22,18.31,43c0,0-19-34.27-23.24-40.53Z"/>
      <path class="cls-19" d="M98.88,149.52s12.15,30.31,14,44.33c0,0-15.47-35.63-19.11-42.2Z"/>
      <path class="cls-19" d="M84.35,152.4s1.94,29.75,12.87,44.66c0,0-4.55-35.5-8.53-45.48Z"/>
      <path class="cls-18" d="M93.85,150.33s12.66,27.18,8.93,45.62c0,0-12.84-33.52-13.72-44.25Z"/>
      <path class="cls-19" d="M64.19,149.5a1.28,1.28,0,0,0,1.21.68c1,0,6.31,1.36,26.94-3.42,0,0,13.08-3.07,17.88-6.31,0,0,.33-.42,1.06.53a33.12,33.12,0,0,1,2.25,3.09c-.06.69,0,.71-.73,1,0,0-7.19,4.16-21.82,7.1s-24.83,3.45-26.57,3.23c-.87-.11-1-2.21-.93-2.61S63.61,149.5,64.19,149.5Z"/>
    </g>
  </g>
</svg>
