<svg id="Layer_1" data-name="Layer 1" xmlns="http://www.w3.org/2000/svg" xmlns:xlink="http://www.w3.org/1999/xlink" width="309.48" height="218.48" viewBox="0 0 309.48 218.48">
  <defs>
    <style>
      .cls-1 {
        fill: none;
      }

      .cls-2 {
        fill: #9e005d;
      }

      .cls-3 {
        fill: #870659;
      }

      .cls-4 {
        clip-path: url(#clip-path);
      }

      .cls-5 {
        fill: #ff960e;
      }

      .cls-6 {
        fill: #fff;
      }

      .cls-7 {
        fill: #8b5e3c;
      }

      .cls-8 {
        fill: #603913;
      }
    </style>
    <clipPath id="clip-path">
      <path id="SVGID" class="cls-1" d="M92.12,108.43C113.18,87.12,157,57.09,196.18,99.5s46.63,65.12,59.53,69.15c-8.65,20.76-54.69,64.71-125.49,44.77S58.55,142.39,92.12,108.43Z"/>
    </clipPath>
  </defs>
  <title>04_a_big_bird_flying</title>
  <path class="cls-2" d="M309,174.16c-1.43-4.28-6-6.72-10.88-6.25l0-.09s-53.15,8.08-73.06-10.56-21.8,6.13-21.8,6.13,7.77,36.49,73.87,49.28l.06-.13a12.29,12.29,0,0,0,6.9-.28c5-1.67,8.17-6.07,8-10.49a12.28,12.28,0,0,0,6.95-.27c5.88-2,9.27-7.7,7.57-12.8a8.61,8.61,0,0,0-2-3.33C308.46,182.73,310.42,178.26,309,174.16Z"/>
  <path class="cls-2" d="M192.71,67A19.61,19.61,0,0,0,189.56,68c-28.44,9.54-66.49,10.58-66.49,10.58-10.66,64.48,72.87,53.79,72.87,53.79h0c6,0,11.08-3.36,11.94-8.31.79-4.54-2.24-9-7.1-11.26,6.6-1,11.68-5.49,11.92-11.13.23-5.33-4-10-9.9-11.79,6.11-3.05,9.7-8.94,8.29-14.56C209.39,68.61,201.16,64.84,192.71,67Z"/>
  <g>
    <path class="cls-3" d="M92.12,108.43C113.18,87.12,157,57.09,196.18,99.5s46.63,65.12,59.53,69.15c-8.65,20.76-54.69,64.71-125.49,44.77S58.55,142.39,92.12,108.43Z"/>
    <g class="cls-4">
      <path class="cls-2" d="M174.41,160.08c32.3,15.6,47.77,46.39,34.55,68.78s-50.13,27.9-82.44,12.3S78.75,194.77,92,172.38,142.11,144.48,174.41,160.08Z"/>
    </g>
  </g>
  <path class="cls-2" d="M230.45,73.88a19.61,19.61,0,0,0-3.11,1.21c-28.06,10.61-66,13.09-66,13.09-8.22,64.84,74.85,51,74.85,51h0c6-.21,10.94-3.77,11.62-8.76.62-4.57-2.58-8.91-7.52-11,6.56-1.26,11.46-5.93,11.49-11.57,0-5.33-4.33-9.82-10.34-11.41,6-3.28,9.36-9.3,7.74-14.87C247.18,74.9,238.82,71.44,230.45,73.88Z"/>
  <g>
    <path class="cls-5" d="M24.34,120.42,8.42,150.65a3.58,3.58,0,0,0,4.71,4.89l11.77-5.66,1.38,11.57a3.58,3.58,0,0,0,5.93,2.24l25.3-22.54Z"/>
    <path class="cls-2" d="M135,8.28C117.48-18.35,36.17,27.76,36.17,27.76a67.51,67.51,0,1,0,96.29,41.3c5.18-.24,7.91-1.9,8.61-4.14,2.5-8-11.09-17.4-11.09-17.4s17.56,5,17.83-5c.31-11.13-28.55-16.91-28.55-16.91S145.8,27.41,135,8.28Z"/>
    <circle class="cls-6" cx="52.33" cy="95.17" r="31.16" transform="translate(-38.21 35.18) rotate(-27.67)"/>
    <g>
      <circle class="cls-7" cx="51.58" cy="97.41" r="20.21" transform="translate(-56.13 120.83) rotate(-74.36)"/>
      <circle class="cls-8" cx="50.95" cy="97.69" r="11.02" transform="translate(-56.86 120.42) rotate(-74.36)"/>
      <circle class="cls-6" cx="48.38" cy="85.09" r="7.07" transform="translate(-46.6 108.75) rotate(-74.36)"/>
    </g>
  </g>
</svg>
