<svg xmlns="http://www.w3.org/2000/svg" xmlns:xlink="http://www.w3.org/1999/xlink" viewBox="0 0 260 168"><defs><style>.cls-1{fill:#d6550d;}.cls-2{fill:#bc3a0d;}.cls-3{fill:#b22f0d;}.cls-4{fill:#e5611f;}.cls-5{fill:#fff;}.cls-6{fill:#d6550f;}.cls-7{clip-path:url(#clip-path);}.cls-8{fill:#c6490a;}.cls-9{fill:#b23d09;}.cls-10{fill:#ef713a;}.cls-11{clip-path:url(#clip-path-2);}.cls-12{clip-path:url(#clip-path-3);}.cls-13{fill:#9e220a;}.cls-14{fill:#e56120;}.cls-15{clip-path:url(#clip-path-4);}.cls-16{fill:#dd581d;}.cls-17{clip-path:url(#clip-path-5);}.cls-18{clip-path:url(#clip-path-6);}.cls-19{clip-path:url(#clip-path-7);}.cls-20{clip-path:url(#clip-path-8);}.cls-21{clip-path:url(#clip-path-9);}.cls-22{clip-path:url(#clip-path-10);}</style><clipPath id="clip-path"><ellipse class="cls-1" cx="98.13" cy="85.3" rx="10" ry="17.2" transform="translate(-19.69 140.29) rotate(-66.02)"/></clipPath><clipPath id="clip-path-2"><path class="cls-2" d="M107.93,100.52a75.32,75.32,0,0,0-11.44-.12c-2.45.16-5.11.39-7.14-1A8.73,8.73,0,0,1,87,96.82c-1.39-2.13-2.5-4.74-1.74-7.17a6.87,6.87,0,0,1,5.19-4.28,17.42,17.42,0,0,1,7,.26q3.83.72,7.58,1.8a7.62,7.62,0,0,1,2.26.94,22.54,22.54,0,0,1,2.25,2.23c2.11,1.91,7.32,2.49,7.44,6C117.16,101.08,110.74,100.76,107.93,100.52Z"/></clipPath><clipPath id="clip-path-3"><path class="cls-3" d="M87.12,85.14a2.46,2.46,0,0,0-1.77,3,5,5,0,0,0,2.51,2.93c4,2.35,9.18,1.73,13.52,3.46a11.79,11.79,0,0,0,3.27,1.1c1.67.14,3.35-.74,5-.39a11.33,11.33,0,0,1,2.8,1.41,9,9,0,0,0,7,.68c-.57,1.61-1.21,3.31-2.57,4.33a7.06,7.06,0,0,1-2.59,1.08c-4.91,1.16-10,.14-15.1.06-2.82,0-5.64.2-8.45,0a13.49,13.49,0,0,1-7.79-2.9,9.28,9.28,0,0,1-1.2-12.68A5.34,5.34,0,0,1,85.32,85"/></clipPath><clipPath id="clip-path-4"><ellipse class="cls-4" cx="90.93" cy="93.7" rx="17.2" ry="10" transform="translate(-1.14 1.12) rotate(-0.7)"/></clipPath><clipPath id="clip-path-5"><ellipse class="cls-4" cx="57.58" cy="94.69" rx="17.2" ry="10" transform="translate(-9.91 6.79) rotate(-6.21)"/></clipPath><clipPath id="clip-path-6"><path class="cls-2" d="M93,83.83a75.21,75.21,0,0,0-7.46,8.68c-1.45,2-3,4.16-5.35,4.83a9,9,0,0,1-3.48.1c-2.52-.32-5.23-1.15-6.6-3.29a6.84,6.84,0,0,1,.07-6.73,17.36,17.36,0,0,1,4.7-5.19q3-2.46,6.27-4.64a7.59,7.59,0,0,1,2.17-1.12,22.09,22.09,0,0,1,3.15-.29c2.82-.38,6.62-4,9.42-1.79C99.36,77.13,95,81.84,93,83.83Z"/></clipPath><clipPath id="clip-path-7"><path class="cls-3" d="M67.82,89.84A2.48,2.48,0,0,0,69,93.16a5,5,0,0,0,3.85,0c4.41-1.58,7.24-5.9,11.36-8.11a12.23,12.23,0,0,0,3-1.79c1.18-1.19,1.59-3,2.92-4.07A11,11,0,0,1,93,77.92,9,9,0,0,0,98,73c.86,1.47,1.75,3.06,1.65,4.76a7.06,7.06,0,0,1-.84,2.67c-2.27,4.51-6.36,7.78-9.68,11.6-1.85,2.12-3.48,4.44-5.48,6.43a13.51,13.51,0,0,1-7.23,4.08,9.28,9.28,0,0,1-10.48-7.25,5.35,5.35,0,0,1,.6-4.17"/></clipPath><clipPath id="clip-path-8"><path class="cls-2" d="M65.2,83.79a74.75,74.75,0,0,0-1.33,11.36c-.1,2.45-.15,5.12-1.74,7a8.8,8.8,0,0,1-2.82,2c-2.27,1.15-5,2-7.32,1a6.88,6.88,0,0,1-3.7-5.62,17.32,17.32,0,0,1,1-6.93q1.13-3.74,2.6-7.35a7.45,7.45,0,0,1,1.16-2.15,23.84,23.84,0,0,1,2.46-2c2.13-1.89,3.26-7,6.8-6.75C66.74,74.66,65.74,81,65.2,83.79Z"/></clipPath><clipPath id="clip-path-9"><path class="cls-3" d="M47.7,102.84a2.46,2.46,0,0,0,2.83,2.09,4.94,4.94,0,0,0,3.17-2.19c2.77-3.77,2.7-8.94,4.88-13.07A11.73,11.73,0,0,0,60,86.53c.32-1.64-.38-3.4.15-5a11,11,0,0,1,1.69-2.63A9,9,0,0,0,63.28,72a8.83,8.83,0,0,1,4,3,6.94,6.94,0,0,1,.8,2.69c.64,5-.92,10-1.54,15-.35,2.8-.4,5.63-.95,8.4a13.47,13.47,0,0,1-3.71,7.43,9.26,9.26,0,0,1-12.73-.15,5.36,5.36,0,0,1-1.84-3.8"/></clipPath><clipPath id="clip-path-10"><ellipse class="cls-1" cx="68.9" cy="74.31" rx="21.95" ry="12.77" transform="translate(-7.53 7.78) rotate(-6.12)"/></clipPath></defs><g id="Layer_3" data-name="Layer 3"><path class="cls-5" d="M14.15,153.66"/><path class="cls-6" d="M95.82,73q-2.61.06-5.22.33c-.88.1-1.9.31-2.28,1.11a9.45,9.45,0,0,0,4.24,2.41c2,.61,4,1.1,6,1.71,1.1.34,2.1.44,2.47-.85C101.87,74.61,98.28,73,95.82,73Z"/><ellipse class="cls-1" cx="98.13" cy="85.3" rx="10" ry="17.2" transform="translate(-19.69 140.29) rotate(-66.02)"/><g class="cls-7"><path class="cls-8" d="M96,90a62.44,62.44,0,0,1-10.27-7.63,11.36,11.36,0,0,1-3-3.4A11.74,11.74,0,0,1,82,73.86a3.8,3.8,0,0,0-3.4,1.88,9.42,9.42,0,0,0-1.17,3.9,39.78,39.78,0,0,0,.16,11.53,6.41,6.41,0,0,0,1,2.81c1.23,1.69,3.61,1.91,5.69,2.06a75.34,75.34,0,0,1,24,5.9c1.66.71,3.46,1.51,5.21,1.08,4.53-1.11,6.35-9.64.69-10.34-2.83-.35-5.64.89-8.58.55A25.81,25.81,0,0,1,96,90Z"/><path class="cls-8" d="M100.25,76.48a3,3,0,0,0-1-.41,1,1,0,0,0-.93.35,9.3,9.3,0,0,0,2.94,2.16A17.94,17.94,0,0,0,104.23,80c.49.16,1,.28,1.47.45a14.07,14.07,0,0,1,2.12,1c.1.06,0-.55-.07-.59s-.51-.3-.68-.41c-.76-.46-1.54-.88-2.31-1.33Z"/><path class="cls-8" d="M95,84.71a5.2,5.2,0,0,0-2.82-1.24c-.3,0-.66.13-.73.43a.74.74,0,0,0,.08.43,5,5,0,0,0,2.91,2.23c.76.3,5.56,2.21,5.92,1.07C100.53,87.18,95.7,85.16,95,84.71Z"/><path class="cls-8" d="M85.39,77.14c-.11,0-.25-.1-.32,0a.23.23,0,0,0,0,.18,1.85,1.85,0,0,0,.33.88c.25.36,2,2.09,2.43,1.15C88.05,78.75,85.81,77.37,85.39,77.14Z"/><path class="cls-8" d="M108.51,85.25a71,71,0,0,0-7.36-3.91c-.52-.22-1.25-.36-1.53.13a1,1,0,0,0,0,.76c.75,2.13,4,2.21,5.16,4.14l-1.59.12a2.9,2.9,0,0,0,1.88,1.94c1.18.37,2.54,0,3.62.56.71.39,1.4,1.19,2.14.88a4.65,4.65,0,0,0-2-2.4c.66.3,3,1.92,2.68.3C111.27,86.63,109.42,85.78,108.51,85.25Z"/><path class="cls-8" d="M91.53,77.13a2.19,2.19,0,0,0-1.07-.44.77.77,0,0,0-.85.63,1.13,1.13,0,0,0,.13.5A7,7,0,0,0,93,81.09a14.65,14.65,0,0,1-.65-1.32c.7-.4,2.22.69,2.11-.51C94.32,78.4,92.2,77.55,91.53,77.13Z"/><path class="cls-9" d="M115.17,92.88a14.51,14.51,0,0,1-9.25,2.25,17.88,17.88,0,0,0-4.12-.3,11.13,11.13,0,0,1-2.35.3,5.62,5.62,0,0,1-1.85-.62l-6.37-3a12.9,12.9,0,0,1-3.5-2.14c-1.63-1.57-2.31-3.93-3.91-5.53a18.17,18.17,0,0,1-1.66-1.62c-.9-1.16-1.24-2.92-2.63-3.4a3.45,3.45,0,0,0-1.1,2.34L77.12,88.3a1.11,1.11,0,0,0,0,.6,1.14,1.14,0,0,0,.47.48c3,2,6.32,3.38,9.34,5.31,2.74,1.77,5.22,3.94,8,5.56a24,24,0,0,0,16.4,2.63,9.82,9.82,0,0,0,3.63-1.37,4.51,4.51,0,0,0,2-3.17,3,3,0,0,0-1.85-3.1"/></g><path class="cls-6" d="M114,92l.24-3a3,3,0,0,1,.14-.85c.09-.29.27-.56.35-.85a2.27,2.27,0,0,0-.58-2c-.45-.56-1-1-1.45-1.58-.21-.29-.39-.6-.61-.87a2.8,2.8,0,0,0-2-1,11.71,11.71,0,0,0,1.45,3.38,4.68,4.68,0,0,1,.59,3.55,3.92,3.92,0,0,0-.36,1.18c0,.42.35.88.75.77"/><ellipse class="cls-10" cx="110.12" cy="83.99" rx="0.66" ry="1.85" transform="matrix(0.54, -0.84, 0.84, 0.54, -20.22, 130.81)"/><ellipse class="cls-10" cx="94.81" cy="75.29" rx="0.66" ry="1.85" transform="matrix(0.09, -1, 1, 0.09, 11.54, 163.17)"/><path class="cls-2" d="M107.93,100.52a75.32,75.32,0,0,0-11.44-.12c-2.45.16-5.11.39-7.14-1A8.73,8.73,0,0,1,87,96.82c-1.39-2.13-2.5-4.74-1.74-7.17a6.87,6.87,0,0,1,5.19-4.28,17.42,17.42,0,0,1,7,.26q3.83.72,7.58,1.8a7.62,7.62,0,0,1,2.26.94,22.54,22.54,0,0,1,2.25,2.23c2.11,1.91,7.32,2.49,7.44,6C117.16,101.08,110.74,100.76,107.93,100.52Z"/><g class="cls-11"><path class="cls-3" d="M87.12,85.14a2.46,2.46,0,0,0-1.77,3,5,5,0,0,0,2.51,2.93c4,2.35,9.18,1.73,13.52,3.46a11.79,11.79,0,0,0,3.27,1.1c1.67.14,3.35-.74,5-.39a11.33,11.33,0,0,1,2.8,1.41,9,9,0,0,0,7,.68c-.57,1.61-1.21,3.31-2.57,4.33a7.06,7.06,0,0,1-2.59,1.08c-4.91,1.16-10,.14-15.1.06-2.82,0-5.64.2-8.45,0a13.49,13.49,0,0,1-7.79-2.9,9.28,9.28,0,0,1-1.2-12.68A5.34,5.34,0,0,1,85.32,85"/><g class="cls-12"><path class="cls-13" d="M78.72,86.44A15.18,15.18,0,0,0,92,97.12a10.64,10.64,0,0,1,2.11.22,14.22,14.22,0,0,1,2,.88,9.94,9.94,0,0,0,5.18.63,13.7,13.7,0,0,1,2.92-.28,10.4,10.4,0,0,1,2.75.84,33.13,33.13,0,0,0,10.58,2.33,10,10,0,0,1-7.14,2.38,66.15,66.15,0,0,1-7.65-1c-6.39-.85-12.88.05-19.25,1.07a23.22,23.22,0,0,1-6.43.44A3.37,3.37,0,0,1,75,103.8a3.78,3.78,0,0,1-.78-2.35,37.51,37.51,0,0,1,.69-10.88c.1-.49.29-1,.77-1.17a1.21,1.21,0,0,1,.89.22,5.49,5.49,0,0,1,1.87,1.84"/></g><path class="cls-3" d="M102.17,92.43c-1.11-.31-2.15-.87-3.28-1.07-.92-.15-1.86-.07-2.77-.24A.46.46,0,0,1,95.8,91a.43.43,0,0,1,.08-.5,2.39,2.39,0,0,1,1.91-.84,11.06,11.06,0,0,1,2.13.31c1.17.22,3.41-.25,4.21.8C105.22,92.17,103.3,92.74,102.17,92.43Z"/><path class="cls-3" d="M111.3,94.43A3.47,3.47,0,0,1,109,93.09a.77.77,0,0,1-.08-.59.64.64,0,0,1,.74-.33,2.14,2.14,0,0,1,.78.4A8.28,8.28,0,0,0,113,93.68c.69.18,1.67.17,1.9,1C115.31,96.35,112,94.63,111.3,94.43Z"/><path class="cls-3" d="M96.35,88.18a14.36,14.36,0,0,1-2.86.06A19.12,19.12,0,0,0,90,88.5a7.08,7.08,0,0,1-1.71.16.46.46,0,0,1-.24-.08c-.23-.17,0-.53.21-.7a8,8,0,0,1,4.94-1.29c1.11,0,3.16-.35,4.18.06C98.85,87.25,97.13,88,96.35,88.18Z"/></g><path class="cls-14" d="M97.91,83.31q2.39,1.09,4.67,2.37c.77.44,1.62,1,1.66,1.92a9.54,9.54,0,0,1-4.86.54c-2-.22-4.09-.57-6.15-.79-1.14-.12-2.1-.42-1.92-1.75C91.72,82.39,95.67,82.3,97.91,83.31Z"/><ellipse class="cls-4" cx="90.93" cy="93.7" rx="17.2" ry="10" transform="translate(-1.14 1.12) rotate(-0.7)"/><g class="cls-15"><path class="cls-8" d="M91,98.84a61.55,61.55,0,0,0,12.46-3A11.39,11.39,0,0,0,107.55,94a11.74,11.74,0,0,0,2.74-4.39,3.8,3.8,0,0,1,2.38,3.08,9.46,9.46,0,0,1-.46,4,40,40,0,0,1-4.71,10.53,6.48,6.48,0,0,1-2,2.2c-1.8,1.06-4.07.32-6.05-.35A75.06,75.06,0,0,0,75.1,105c-1.81,0-3.77,0-5.21-1.07-3.73-2.81-2-11.36,3.45-9.76,2.74.8,4.83,3,7.66,3.89A25.62,25.62,0,0,0,91,98.84Z"/><path class="cls-16" d="M92.48,84.75a2.8,2.8,0,0,1,1,0,.94.94,0,0,1,.72.69,9.5,9.5,0,0,1-3.55.82,17.67,17.67,0,0,1-3.25.11c-.51,0-1-.13-1.53-.17a16.64,16.64,0,0,0-2.34.08c-.11,0,.26-.49.3-.51s.59-.08.79-.11c.87-.13,1.76-.21,2.64-.31Z"/><path class="cls-16" d="M94,94.38a5.22,5.22,0,0,1,3.08,0c.27.13.56.38.5.68a.72.72,0,0,1-.25.37,5,5,0,0,1-3.55.9c-.82,0-6-.17-5.86-1.36C88,94.47,93.22,94.53,94,94.38Z"/><path class="cls-16" d="M105.87,91.23c.11,0,.26,0,.29.12a.24.24,0,0,1,0,.18,1.92,1.92,0,0,1-.65.68c-.38.22-2.68,1.12-2.69.09C102.78,91.66,105.39,91.27,105.87,91.23Z"/><path class="cls-16" d="M81.42,89.54a70.15,70.15,0,0,1,8.31-.67c.56,0,1.29.16,1.35.71a1,1,0,0,1-.31.7c-1.53,1.66-4.54.45-6.38,1.76l1.42.74a2.91,2.91,0,0,1-2.5,1c-1.22-.12-2.32-1-3.54-.91-.81.07-1.75.53-2.31,0a4.66,4.66,0,0,1,2.77-1.41c-.73,0-3.55.56-2.57-.79C78.34,89.72,80.38,89.67,81.42,89.54Z"/><path class="cls-16" d="M100.23,88.79a2.28,2.28,0,0,1,1.16,0,.79.79,0,0,1,.53.92,1.14,1.14,0,0,1-.32.41,7,7,0,0,1-4.24,1.73,14.59,14.59,0,0,0,1.11-1c-.48-.65-2.31-.25-1.73-1.3C97.16,88.85,99.44,88.92,100.23,88.79Z"/><path class="cls-9" d="M72.28,93.92a14.54,14.54,0,0,0,7.61,5.72A18.63,18.63,0,0,1,83.8,101a10.85,10.85,0,0,0,2,1.21,5.31,5.31,0,0,0,2,.16l7-.23a12.36,12.36,0,0,0,4.06-.58c2.12-.8,3.67-2.69,5.78-3.54a18.16,18.16,0,0,0,2.16-.83c1.28-.71,2.29-2.19,3.75-2.08a3.45,3.45,0,0,1,.1,2.59l-1.62,7.06a1.15,1.15,0,0,1-.24.55,1.05,1.05,0,0,1-.62.26c-3.53.62-7.14.61-10.67,1.19-3.23.53-6.36,1.56-9.6,1.92a24,24,0,0,1-16.1-4.07A9.77,9.77,0,0,1,69,101.92a4.51,4.51,0,0,1-.63-3.73,3,3,0,0,1,2.93-2.12"/></g><path class="cls-6" d="M73.69,93.55l1-2.81a4,4,0,0,0,.21-.84c0-.3,0-.61,0-.92a2.29,2.29,0,0,1,1.31-1.59c.63-.33,1.34-.52,2-.88.31-.17.59-.39.91-.55a2.82,2.82,0,0,1,2.24-.12,11.7,11.7,0,0,1-2.67,2.53,4.74,4.74,0,0,0-1.94,3,3.91,3.91,0,0,1-.13,1.23c-.16.38-.67.66-1,.41"/><ellipse class="cls-10" cx="96.28" cy="87.42" rx="2.43" ry="1.02" transform="translate(-5.1 5.97) rotate(-3.46)"/><ellipse class="cls-10" cx="89.54" cy="87.57" rx="1.84" ry="0.77" transform="translate(-5.12 5.56) rotate(-3.46)"/><path class="cls-14" d="M49.41,85.22c-1.49.91-2.95,1.88-4.35,2.92-.71.52-1.49,1.21-1.42,2.1a9.54,9.54,0,0,0,4.89,0c2-.47,4-1.06,6-1.52,1.12-.26,2-.68,1.71-2C55.44,83.56,51.51,83.94,49.41,85.22Z"/><ellipse class="cls-4" cx="57.58" cy="94.69" rx="17.2" ry="10" transform="translate(-9.91 6.79) rotate(-6.21)"/><g class="cls-17"><path class="cls-8" d="M58.12,99.81A62.77,62.77,0,0,1,45.4,98.38a11.54,11.54,0,0,1-4.28-1.44,11.73,11.73,0,0,1-3.25-4,3.76,3.76,0,0,0-2,3.34,9.31,9.31,0,0,0,.94,3.95,39.74,39.74,0,0,0,6,9.88A6.25,6.25,0,0,0,45,112c1.91.84,4.08-.17,6-1.08a75.32,75.32,0,0,1,23.7-7c1.8-.22,3.75-.44,5-1.7,3.35-3.23.64-11.52-4.6-9.28-2.63,1.13-4.44,3.61-7.14,4.8A26,26,0,0,1,58.12,99.81Z"/><path class="cls-16" d="M55,86a3,3,0,0,0-1,.14,1,1,0,0,0-.64.77,9.44,9.44,0,0,0,3.63.38A17.5,17.5,0,0,0,60.17,87c.5-.11,1-.26,1.5-.36a16.53,16.53,0,0,1,2.33-.2c.11,0-.32-.45-.36-.48s-.59,0-.79,0c-.89,0-1.78,0-2.66,0Z"/><path class="cls-16" d="M54.59,95.74a5.19,5.19,0,0,0-3.06.34c-.26.16-.51.45-.41.74a.64.64,0,0,0,.28.33,4.9,4.9,0,0,0,3.64.46c.81-.12,5.92-.88,5.66-2C60.6,95.1,55.41,95.79,54.59,95.74Z"/><path class="cls-16" d="M42.46,94c-.11,0-.26,0-.28.15a.27.27,0,0,0,.06.17A1.88,1.88,0,0,0,43,95c.39.18,2.79.79,2.67-.23C45.58,94.09,42.94,94,42.46,94Z"/><path class="cls-16" d="M66.53,89.42a68.09,68.09,0,0,0-8.33.33c-.56.06-1.27.31-1.25.87a.93.93,0,0,0,.38.66c1.72,1.46,4.57-.11,6.54,1l-1.31.91a2.87,2.87,0,0,0,2.61.73c1.19-.27,2.18-1.29,3.4-1.33.81,0,1.81.32,2.29-.32a4.64,4.64,0,0,0-2.92-1.07c.72-.08,3.59.13,2.46-1.09C69.61,89.22,67.58,89.42,66.53,89.42Z"/><path class="cls-16" d="M47.76,90.94a2.25,2.25,0,0,0-1.15.16.79.79,0,0,0-.41,1,1,1,0,0,0,.37.37A6.93,6.93,0,0,0,51,93.64a14.39,14.39,0,0,1-1.23-.8c.4-.7,2.27-.53,1.57-1.5C50.82,90.63,48.56,91,47.76,90.94Z"/><path class="cls-9" d="M76.12,92.66a14.45,14.45,0,0,1-6.86,6.6,18.3,18.3,0,0,0-3.72,1.81,11.36,11.36,0,0,1-1.88,1.45,5.61,5.61,0,0,1-1.91.39l-7,.62a12.53,12.53,0,0,1-4.1-.09c-2.2-.54-4-2.23-6.16-2.82a19,19,0,0,1-2.25-.56c-1.36-.55-2.54-1.9-4-1.62a3.46,3.46,0,0,0,.21,2.59l2.46,6.81a1,1,0,0,0,.3.52,1.05,1.05,0,0,0,.65.18c3.57.19,7.16-.26,10.74-.1,3.26.14,6.5.78,9.76.74a23.92,23.92,0,0,0,15.49-6,9.83,9.83,0,0,0,2.45-3,4.51,4.51,0,0,0,.17-3.78,3,3,0,0,0-3.16-1.74"/></g><path class="cls-6" d="M74.69,92.47,73.4,89.79a3.37,3.37,0,0,1-.3-.8c-.07-.31,0-.62-.12-.92a2.31,2.31,0,0,0-1.5-1.42c-.67-.25-1.39-.35-2-.63-.33-.14-.64-.33-1-.45a2.82,2.82,0,0,0-2.24.16,11.92,11.92,0,0,0,3,2.19,4.68,4.68,0,0,1,2.3,2.77,4,4,0,0,0,.27,1.2c.21.36.75.58,1,.29"/><ellipse class="cls-10" cx="51.52" cy="89.1" rx="2.43" ry="1.02" transform="translate(-5.28 3.27) rotate(-3.46)"/><ellipse class="cls-10" cx="58.22" cy="88.44" rx="1.84" ry="0.77" transform="translate(-5.23 3.67) rotate(-3.46)"/><path class="cls-2" d="M93,83.83a75.21,75.21,0,0,0-7.46,8.68c-1.45,2-3,4.16-5.35,4.83a9,9,0,0,1-3.48.1c-2.52-.32-5.23-1.15-6.6-3.29a6.84,6.84,0,0,1,.07-6.73,17.36,17.36,0,0,1,4.7-5.19q3-2.46,6.27-4.64a7.59,7.59,0,0,1,2.17-1.12,22.09,22.09,0,0,1,3.15-.29c2.82-.38,6.62-4,9.42-1.79C99.36,77.13,95,81.84,93,83.83Z"/><g class="cls-18"><path class="cls-3" d="M67.82,89.84A2.48,2.48,0,0,0,69,93.16a5,5,0,0,0,3.85,0c4.41-1.58,7.24-5.9,11.36-8.11a12.23,12.23,0,0,0,3-1.79c1.18-1.19,1.59-3,2.92-4.07A11,11,0,0,1,93,77.92,9,9,0,0,0,98,73c.86,1.47,1.75,3.06,1.65,4.76a7.06,7.06,0,0,1-.84,2.67c-2.27,4.51-6.36,7.78-9.68,11.6-1.85,2.12-3.48,4.44-5.48,6.43a13.51,13.51,0,0,1-7.23,4.08,9.28,9.28,0,0,1-10.48-7.25,5.35,5.35,0,0,1,.6-4.17"/><g class="cls-19"><path class="cls-13" d="M63.41,97.11a15.17,15.17,0,0,0,16.72-3.28,11.11,11.11,0,0,1,1.52-1.47,15.6,15.6,0,0,1,2-1,9.87,9.87,0,0,0,3.82-3.55,13.93,13.93,0,0,1,1.66-2.41,9.92,9.92,0,0,1,2.42-1.56,33.44,33.44,0,0,0,8.59-6.59,10,10,0,0,1-2.77,7,65.44,65.44,0,0,1-5.69,5.21c-4.76,4.35-8.26,9.89-11.58,15.42a23.56,23.56,0,0,1-3.8,5.2,3.43,3.43,0,0,1-2,1.07,3.78,3.78,0,0,1-2.29-.92,37.58,37.58,0,0,1-7.89-7.53c-.3-.39-.61-.91-.4-1.35a1.23,1.23,0,0,1,.74-.53,5.44,5.44,0,0,1,2.62-.25"/></g><path class="cls-3" d="M83.09,83c-1,.66-2,1.09-2.93,1.83-.71.6-1.25,1.38-2,2a.49.49,0,0,1-.33.14c-.18,0-.29-.21-.33-.38a2.37,2.37,0,0,1,.59-2,10.48,10.48,0,0,1,1.61-1.43c.93-.75,2-2.77,3.32-2.71C84.86,80.53,84.06,82.36,83.09,83Z"/><path class="cls-3" d="M90.5,77.33a3.46,3.46,0,0,1-2.53.93.75.75,0,0,1-.5-.32.64.64,0,0,1,.22-.78,2.53,2.53,0,0,1,.81-.34A8.27,8.27,0,0,0,91,75.59c.58-.42,1.21-1.17,2-.81C94.56,75.5,91.13,76.9,90.5,77.33Z"/><path class="cls-3" d="M76.09,84.75A15.82,15.82,0,0,1,74.3,87a18.38,18.38,0,0,0-2.09,2.88,6.84,6.84,0,0,1-1,1.41.39.39,0,0,1-.21.13c-.28.06-.41-.33-.4-.61a8,8,0,0,1,2.19-4.61c.72-.85,1.78-2.64,2.74-3.16C77,82.23,76.49,84.05,76.09,84.75Z"/></g><path class="cls-2" d="M65.2,83.79a74.75,74.75,0,0,0-1.33,11.36c-.1,2.45-.15,5.12-1.74,7a8.8,8.8,0,0,1-2.82,2c-2.27,1.15-5,2-7.32,1a6.88,6.88,0,0,1-3.7-5.62,17.32,17.32,0,0,1,1-6.93q1.13-3.74,2.6-7.35a7.45,7.45,0,0,1,1.16-2.15,23.84,23.84,0,0,1,2.46-2c2.13-1.89,3.26-7,6.8-6.75C66.74,74.66,65.74,81,65.2,83.79Z"/><g class="cls-20"><path class="cls-3" d="M47.7,102.84a2.46,2.46,0,0,0,2.83,2.09,4.94,4.94,0,0,0,3.17-2.19c2.77-3.77,2.7-8.94,4.88-13.07A11.73,11.73,0,0,0,60,86.53c.32-1.64-.38-3.4.15-5a11,11,0,0,1,1.69-2.63A9,9,0,0,0,63.28,72a8.83,8.83,0,0,1,4,3,6.94,6.94,0,0,1,.8,2.69c.64,5-.92,10-1.54,15-.35,2.8-.4,5.63-.95,8.4a13.47,13.47,0,0,1-3.71,7.43,9.26,9.26,0,0,1-12.73-.15,5.36,5.36,0,0,1-1.84-3.8"/><g class="cls-21"><path class="cls-13" d="M48.11,111.33a15.14,15.14,0,0,0,12-12.07,11.22,11.22,0,0,1,.44-2.07,17,17,0,0,1,1.09-2,9.84,9.84,0,0,0,1.19-5.08,13,13,0,0,1,0-2.93A10.07,10.07,0,0,1,64,84.59a33.43,33.43,0,0,0,3.44-10.28,10,10,0,0,1,1.61,7.35,64.92,64.92,0,0,1-1.8,7.5c-1.52,6.27-1.31,12.82-1,19.26a23.52,23.52,0,0,1-.25,6.44,3.38,3.38,0,0,1-1.06,2,3.79,3.79,0,0,1-2.42.52,37.47,37.47,0,0,1-10.75-1.83c-.47-.16-1-.41-1.08-.9a1.24,1.24,0,0,1,.31-.85,5.44,5.44,0,0,1,2-1.68"/></g><path class="cls-3" d="M56.54,88.65c-.42,1.07-1.09,2-1.4,3.15-.25.9-.27,1.84-.53,2.73a.5.5,0,0,1-.19.31c-.16.09-.36,0-.49-.14a2.37,2.37,0,0,1-.63-2,10.86,10.86,0,0,1,.53-2.09c.35-1.14.11-3.42,1.25-4.1C56.61,85.59,57,87.56,56.54,88.65Z"/><path class="cls-3" d="M59.51,79.79A3.5,3.5,0,0,1,57.92,82a.76.76,0,0,1-.59,0,.64.64,0,0,1-.25-.77,2.06,2.06,0,0,1,.48-.73,8.23,8.23,0,0,0,1.37-2.43c.25-.66.35-1.64,1.2-1.78C61.84,76,59.78,79.07,59.51,79.79Z"/><path class="cls-3" d="M51.7,94a14.37,14.37,0,0,1-.24,2.85,19.17,19.17,0,0,0-.12,3.55,7.07,7.07,0,0,1,0,1.72.48.48,0,0,1-.1.23c-.2.2-.53,0-.68-.28a8,8,0,0,1-.76-5c.12-1.11,0-3.19.5-4.15C51,91.41,51.64,93.2,51.7,94Z"/></g><path class="cls-6" d="M76.52,60.28c2.1.73,4.18,1.54,6.21,2.45,1,.46,2.19,1.11,2.35,2.23A12,12,0,0,1,79,66.23c-2.64,0-5.27-.22-7.9-.26-1.47,0-2.72-.28-2.67-2C68.55,59.85,73.55,59.26,76.52,60.28Z"/><ellipse class="cls-1" cx="68.9" cy="74.31" rx="21.95" ry="12.77" transform="translate(-7.53 7.78) rotate(-6.12)"/><g class="cls-22"><path class="cls-8" d="M69.63,80.84A79.69,79.69,0,0,0,85.1,75.59a14.56,14.56,0,0,0,4.94-3A14.73,14.73,0,0,0,93,66.73a4.81,4.81,0,0,1,3.4,3.62,12.08,12.08,0,0,1-.09,5.18,51.29,51.29,0,0,1-4.72,14,8.16,8.16,0,0,1-2.27,3c-2.15,1.56-5.13.9-7.71.28a96.19,96.19,0,0,0-31.45-2.23c-2.29.22-4.79.48-6.75-.73C38.33,86.72,39.46,75.65,46.61,77c3.58.68,6.51,3.28,10.2,4A32.74,32.74,0,0,0,69.63,80.84Z"/><path class="cls-8" d="M69.79,62.76a3.54,3.54,0,0,1,1.33-.11,1.22,1.22,0,0,1,1,.78,12,12,0,0,1-4.42,1.48,22.9,22.9,0,0,1-4.11.53c-.66,0-1.31,0-2,0a18.44,18.44,0,0,0-3,.38c-.14,0,.27-.65.31-.69.2-.18.75-.17,1-.23,1.1-.27,2.22-.47,3.32-.71Z"/><path class="cls-8" d="M72.92,74.81c1.28-.36,2.65-.85,3.91-.41.36.13.75.42.72.81a.89.89,0,0,1-.27.49c-1.07,1.2-2.81,1.46-4.41,1.57-1,.07-7.61.5-7.61-1C65.26,75.64,71.91,75.09,72.92,74.81Z"/><path class="cls-8" d="M87.58,69.38c.14,0,.34,0,.39.11a.31.31,0,0,1,0,.23,2.47,2.47,0,0,1-.75.94c-.45.34-3.27,1.76-3.4.45C83.71,70.29,87,69.49,87.58,69.38Z"/><path class="cls-8" d="M56.32,70.18a88.61,88.61,0,0,1,10.47-1.86c.71-.07,1.66.05,1.8.75a1.17,1.17,0,0,1-.3.92c-1.74,2.29-5.72,1.11-7.89,3l1.89.78a3.75,3.75,0,0,1-3,1.62c-1.57,0-3.07-1-4.62-.73-1,.18-2.15.88-2.93.22A5.93,5.93,0,0,1,55,72.75c-.92.1-4.45,1.14-3.37-.69C52.43,70.78,55,70.47,56.32,70.18Z"/><path class="cls-8" d="M80.12,67a3,3,0,0,1,1.48-.12A1,1,0,0,1,82.38,68a1.29,1.29,0,0,1-.35.55,8.85,8.85,0,0,1-5.19,2.71,18.38,18.38,0,0,0,1.31-1.34c-.69-.76-3,0-2.36-1.44C76.23,67.41,79.14,67.21,80.12,67Z"/><path class="cls-9" d="M45.24,76.84A18.43,18.43,0,0,0,55.6,83.19a23.22,23.22,0,0,1,5.12,1.25,14.54,14.54,0,0,0,2.74,1.29,7.19,7.19,0,0,0,2.49,0l8.91-1.14a16,16,0,0,0,5.08-1.23c2.6-1.27,4.35-3.86,6.92-5.19a22.49,22.49,0,0,0,2.65-1.31c1.54-1.06,2.65-3.07,4.51-3.1A4.36,4.36,0,0,1,94.46,77l-1.21,9.17a1.07,1.07,0,0,1-1,1.13c-4.41,1.21-9,1.63-13.42,2.8-4,1.06-7.88,2.74-12,3.59a30.58,30.58,0,0,1-20.94-3.22,12.24,12.24,0,0,1-3.87-3.08,5.73,5.73,0,0,1-1.25-4.65,3.82,3.82,0,0,1,3.46-3"/></g><path class="cls-6" d="M47,76.21l.87-3.69A4.49,4.49,0,0,0,48,71.43c0-.39-.11-.78-.1-1.17a3,3,0,0,1,1.48-2.18c.77-.5,1.64-.82,2.38-1.35.37-.26.71-.58,1.09-.82a3.64,3.64,0,0,1,2.84-.42A15,15,0,0,1,52.61,69a6,6,0,0,0-2.1,4.08,5.22,5.22,0,0,1,0,1.58c-.16.5-.77.93-1.21.64"/><ellipse class="cls-10" cx="54.86" cy="68.03" rx="2.35" ry="0.84" transform="translate(-15.78 16.58) rotate(-15.05)"/><ellipse class="cls-10" cx="76.86" cy="63.44" rx="0.84" ry="2.35" transform="translate(-2.09 124.26) rotate(-77.15)"/></g></svg>