<svg id="_34" data-name="34" xmlns="http://www.w3.org/2000/svg" xmlns:xlink="http://www.w3.org/1999/xlink" viewBox="0 0 260 168"><defs><style>.cls-1{fill:#fff;}.cls-2{fill:#bc3a0d;}.cls-3{fill:#b22f0d;}.cls-4{clip-path:url(#clip-path);}.cls-5{clip-path:url(#clip-path-2);}.cls-6{clip-path:url(#clip-path-3);}.cls-7{fill:#9e220a;}</style><clipPath id="clip-path"><path class="cls-1" d="M78,33.22c22.46,0,41.27,16.07,46.25,37.67a29.09,29.09,0,0,0,13,3.68,23.58,23.58,0,0,1-11.92,3.28c.13,1.46.2,2.94.2,4.43,0,27.1-21.29,49.07-47.55,49.07s-47.54-22-47.54-49.07S51.72,33.22,78,33.22Z"/></clipPath><clipPath id="clip-path-2"><path class="cls-2" d="M93,83.83a75.21,75.21,0,0,0-7.46,8.68c-1.45,2-3,4.16-5.35,4.83a9,9,0,0,1-3.48.1c-2.52-.32-5.23-1.15-6.6-3.29a6.84,6.84,0,0,1,.07-6.73,17.36,17.36,0,0,1,4.7-5.19q3-2.46,6.27-4.64a7.59,7.59,0,0,1,2.17-1.12,22.09,22.09,0,0,1,3.15-.29c2.82-.38,6.62-4,9.42-1.79C99.36,77.13,95,81.84,93,83.83Z"/></clipPath><clipPath id="clip-path-3"><path class="cls-3" d="M67.82,89.84A2.48,2.48,0,0,0,69,93.16a5,5,0,0,0,3.85,0c4.41-1.58,7.24-5.9,11.36-8.11a12.23,12.23,0,0,0,3-1.79c1.18-1.19,1.59-3,2.92-4.07A11,11,0,0,1,93,77.92,9,9,0,0,0,98,73c.86,1.47,1.75,3.06,1.65,4.76a7.06,7.06,0,0,1-.84,2.67c-2.27,4.51-6.36,7.78-9.68,11.6-1.85,2.12-3.48,4.44-5.48,6.43a13.51,13.51,0,0,1-7.23,4.08,9.28,9.28,0,0,1-10.48-7.25,5.35,5.35,0,0,1,.6-4.17"/></clipPath></defs><path class="cls-1" d="M78,33.22c22.46,0,41.27,16.07,46.25,37.67a29.09,29.09,0,0,0,13,3.68,23.58,23.58,0,0,1-11.92,3.28c.13,1.46.2,2.94.2,4.43,0,27.1-21.29,49.07-47.55,49.07s-47.54-22-47.54-49.07S51.72,33.22,78,33.22Z"/><g class="cls-4"><path class="cls-2" d="M93,83.83a75.21,75.21,0,0,0-7.46,8.68c-1.45,2-3,4.16-5.35,4.83a9,9,0,0,1-3.48.1c-2.52-.32-5.23-1.15-6.6-3.29a6.84,6.84,0,0,1,.07-6.73,17.36,17.36,0,0,1,4.7-5.19q3-2.46,6.27-4.64a7.59,7.59,0,0,1,2.17-1.12,22.09,22.09,0,0,1,3.15-.29c2.82-.38,6.62-4,9.42-1.79C99.36,77.13,95,81.84,93,83.83Z"/><g class="cls-5"><path class="cls-3" d="M67.82,89.84A2.48,2.48,0,0,0,69,93.16a5,5,0,0,0,3.85,0c4.41-1.58,7.24-5.9,11.36-8.11a12.23,12.23,0,0,0,3-1.79c1.18-1.19,1.59-3,2.92-4.07A11,11,0,0,1,93,77.92,9,9,0,0,0,98,73c.86,1.47,1.75,3.06,1.65,4.76a7.06,7.06,0,0,1-.84,2.67c-2.27,4.51-6.36,7.78-9.68,11.6-1.85,2.12-3.48,4.44-5.48,6.43a13.51,13.51,0,0,1-7.23,4.08,9.28,9.28,0,0,1-10.48-7.25,5.35,5.35,0,0,1,.6-4.17"/><g class="cls-6"><path class="cls-7" d="M63.41,97.11a15.17,15.17,0,0,0,16.72-3.28,11.11,11.11,0,0,1,1.52-1.47,15.6,15.6,0,0,1,2-1,9.87,9.87,0,0,0,3.82-3.55,13.93,13.93,0,0,1,1.66-2.41,9.92,9.92,0,0,1,2.42-1.56,33.44,33.44,0,0,0,8.59-6.59,10,10,0,0,1-2.77,7,65.44,65.44,0,0,1-5.69,5.21c-4.76,4.35-8.26,9.89-11.58,15.42a23.56,23.56,0,0,1-3.8,5.2,3.43,3.43,0,0,1-2,1.07,3.78,3.78,0,0,1-2.29-.92,37.58,37.58,0,0,1-7.89-7.53c-.3-.39-.61-.91-.4-1.35a1.23,1.23,0,0,1,.74-.53,5.44,5.44,0,0,1,2.62-.25"/></g><path class="cls-3" d="M83.09,83c-1,.66-2,1.09-2.93,1.83-.71.6-1.25,1.38-2,2a.49.49,0,0,1-.33.14c-.18,0-.29-.21-.33-.38a2.37,2.37,0,0,1,.59-2,10.48,10.48,0,0,1,1.61-1.43c.93-.75,2-2.77,3.32-2.71C84.86,80.53,84.06,82.36,83.09,83Z"/><path class="cls-3" d="M90.5,77.33a3.46,3.46,0,0,1-2.53.93.75.75,0,0,1-.5-.32.64.64,0,0,1,.22-.78,2.53,2.53,0,0,1,.81-.34A8.27,8.27,0,0,0,91,75.59c.58-.42,1.21-1.17,2-.81C94.56,75.5,91.13,76.9,90.5,77.33Z"/><path class="cls-3" d="M76.09,84.75A15.82,15.82,0,0,1,74.3,87a18.38,18.38,0,0,0-2.09,2.88,6.84,6.84,0,0,1-1,1.41.39.39,0,0,1-.21.13c-.28.06-.41-.33-.4-.61a8,8,0,0,1,2.19-4.61c.72-.85,1.78-2.64,2.74-3.16C77,82.23,76.49,84.05,76.09,84.75Z"/></g></g></svg>