<svg id="_11" data-name="11" xmlns="http://www.w3.org/2000/svg" xmlns:xlink="http://www.w3.org/1999/xlink" viewBox="0 0 260 168"><defs><style>.cls-1{fill:#fff;}.cls-2{fill:#d6550d;}.cls-3{fill:#e5611f;}.cls-4{fill:#bc3a0d;}.cls-5{fill:#b22f0d;}.cls-6{clip-path:url(#clip-path);}.cls-7{fill:#d6550f;}.cls-8{clip-path:url(#clip-path-2);}.cls-9{fill:#c6490a;}.cls-10{fill:#b23d09;}.cls-11{fill:#ef713a;}.cls-12{clip-path:url(#clip-path-3);}.cls-13{clip-path:url(#clip-path-4);}.cls-14{clip-path:url(#clip-path-5);}.cls-15{clip-path:url(#clip-path-6);}.cls-16{clip-path:url(#clip-path-7);}.cls-17{clip-path:url(#clip-path-8);}.cls-18{clip-path:url(#clip-path-9);}.cls-19{fill:#9e220a;}.cls-20{fill:#e56120;}.cls-21{clip-path:url(#clip-path-10);}.cls-22{fill:#dd581d;}.cls-23{clip-path:url(#clip-path-11);}.cls-24{clip-path:url(#clip-path-12);}.cls-25{clip-path:url(#clip-path-13);}.cls-26{clip-path:url(#clip-path-14);}.cls-27{clip-path:url(#clip-path-15);}.cls-28{clip-path:url(#clip-path-16);}.cls-29{clip-path:url(#clip-path-17);}.cls-30{clip-path:url(#clip-path-18);}.cls-31{clip-path:url(#clip-path-19);}.cls-32{clip-path:url(#clip-path-20);}.cls-33{clip-path:url(#clip-path-21);}.cls-34{clip-path:url(#clip-path-22);}.cls-35{clip-path:url(#clip-path-23);}.cls-36{clip-path:url(#clip-path-24);}.cls-37{clip-path:url(#clip-path-25);}.cls-38{clip-path:url(#clip-path-26);}.cls-39{clip-path:url(#clip-path-27);}.cls-40{clip-path:url(#clip-path-28);}.cls-41{clip-path:url(#clip-path-29);}.cls-42{clip-path:url(#clip-path-30);}.cls-43{clip-path:url(#clip-path-31);}.cls-44{clip-path:url(#clip-path-32);}.cls-45{clip-path:url(#clip-path-33);}.cls-46{clip-path:url(#clip-path-34);}</style><clipPath id="clip-path"><path class="cls-1" d="M78,33.22c22.46,0,41.27,16.07,46.25,37.67a29.09,29.09,0,0,0,13,3.68,23.58,23.58,0,0,1-11.92,3.28c.13,1.46.2,2.94.2,4.43,0,27.1-21.29,49.07-47.55,49.07s-47.54-22-47.54-49.07S51.72,33.22,78,33.22Z"/></clipPath><clipPath id="clip-path-2"><ellipse class="cls-2" cx="92.01" cy="46.04" rx="12.77" ry="21.95" transform="translate(16.38 115.79) rotate(-69.27)"/></clipPath><clipPath id="clip-path-3"><ellipse class="cls-2" cx="49.11" cy="61.98" rx="21.95" ry="12.77" transform="translate(-12.81 12.8) rotate(-13.15)"/></clipPath><clipPath id="clip-path-4"><ellipse class="cls-2" cx="122.42" cy="85.12" rx="21.95" ry="12.77" transform="translate(-26.41 76.05) rotate(-31.32)"/></clipPath><clipPath id="clip-path-5"><ellipse class="cls-2" cx="64.67" cy="104.9" rx="12.77" ry="21.95" transform="translate(-51.4 146.3) rotate(-77.98)"/></clipPath><clipPath id="clip-path-6"><ellipse class="cls-2" cx="37.85" cy="82.95" rx="12.77" ry="21.95" transform="translate(-53.13 88.99) rotate(-69.27)"/></clipPath><clipPath id="clip-path-7"><ellipse class="cls-2" cx="98.13" cy="85.3" rx="10" ry="17.2" transform="translate(-19.69 140.29) rotate(-66.02)"/></clipPath><clipPath id="clip-path-8"><path class="cls-4" d="M107.93,100.52a75.32,75.32,0,0,0-11.44-.12c-2.45.16-5.11.39-7.14-1A8.73,8.73,0,0,1,87,96.82c-1.39-2.13-2.5-4.74-1.74-7.17a6.87,6.87,0,0,1,5.19-4.28,17.42,17.42,0,0,1,7,.26q3.83.72,7.58,1.8a7.62,7.62,0,0,1,2.26.94,22.54,22.54,0,0,1,2.25,2.23c2.11,1.91,7.32,2.49,7.44,6C117.16,101.08,110.74,100.76,107.93,100.52Z"/></clipPath><clipPath id="clip-path-9"><path class="cls-5" d="M87.12,85.14a2.46,2.46,0,0,0-1.77,3,5,5,0,0,0,2.51,2.93c4,2.35,9.18,1.73,13.52,3.46a11.79,11.79,0,0,0,3.27,1.1c1.67.14,3.35-.74,5-.39a11.33,11.33,0,0,1,2.8,1.41,9,9,0,0,0,7,.68c-.57,1.61-1.21,3.31-2.57,4.33a7.06,7.06,0,0,1-2.59,1.08c-4.91,1.16-10,.14-15.1.06-2.82,0-5.64.2-8.45,0a13.49,13.49,0,0,1-7.79-2.9,9.28,9.28,0,0,1-1.2-12.68A5.34,5.34,0,0,1,85.32,85"/></clipPath><clipPath id="clip-path-10"><ellipse class="cls-3" cx="90.93" cy="93.7" rx="17.2" ry="10" transform="translate(-1.14 1.12) rotate(-0.7)"/></clipPath><clipPath id="clip-path-11"><ellipse class="cls-3" cx="77.76" cy="127.94" rx="17.2" ry="10" transform="translate(-1.56 0.96) rotate(-0.7)"/></clipPath><clipPath id="clip-path-12"><ellipse class="cls-3" cx="57.58" cy="94.69" rx="17.2" ry="10" transform="translate(-9.91 6.79) rotate(-6.21)"/></clipPath><clipPath id="clip-path-13"><ellipse class="cls-3" cx="79.75" cy="53.36" rx="17.2" ry="10" transform="translate(-5.31 8.94) rotate(-6.21)"/></clipPath><clipPath id="clip-path-14"><ellipse class="cls-3" cx="113.12" cy="64.78" rx="17.2" ry="10" transform="translate(-6.35 12.62) rotate(-6.21)"/></clipPath><clipPath id="clip-path-15"><path class="cls-4" d="M93,83.83a75.21,75.21,0,0,0-7.46,8.68c-1.45,2-3,4.16-5.35,4.83a9,9,0,0,1-3.48.1c-2.52-.32-5.23-1.15-6.6-3.29a6.84,6.84,0,0,1,.07-6.73,17.36,17.36,0,0,1,4.7-5.19q3-2.46,6.27-4.64a7.59,7.59,0,0,1,2.17-1.12,22.09,22.09,0,0,1,3.15-.29c2.82-.38,6.62-4,9.42-1.79C99.36,77.13,95,81.84,93,83.83Z"/></clipPath><clipPath id="clip-path-16"><path class="cls-5" d="M67.82,89.84A2.48,2.48,0,0,0,69,93.16a5,5,0,0,0,3.85,0c4.41-1.58,7.24-5.9,11.36-8.11a12.23,12.23,0,0,0,3-1.79c1.18-1.19,1.59-3,2.92-4.07A11,11,0,0,1,93,77.92,9,9,0,0,0,98,73c.86,1.47,1.75,3.06,1.65,4.76a7.06,7.06,0,0,1-.84,2.67c-2.27,4.51-6.36,7.78-9.68,11.6-1.85,2.12-3.48,4.44-5.48,6.43a13.51,13.51,0,0,1-7.23,4.08,9.28,9.28,0,0,1-10.48-7.25,5.35,5.35,0,0,1,.6-4.17"/></clipPath><clipPath id="clip-path-17"><path class="cls-4" d="M102.86,50.25a75.21,75.21,0,0,1,7.46,8.68c1.45,2,3,4.16,5.35,4.82a8.62,8.62,0,0,0,3.47.1c2.52-.32,5.24-1.15,6.61-3.29a6.89,6.89,0,0,0-.07-6.73A17.49,17.49,0,0,0,121,48.65q-3-2.48-6.26-4.64a7.62,7.62,0,0,0-2.17-1.13,23.64,23.64,0,0,0-3.16-.29c-2.82-.37-6.62-4-9.41-1.79C96.48,43.55,100.86,48.26,102.86,50.25Z"/></clipPath><clipPath id="clip-path-18"><path class="cls-5" d="M128,56.26a2.48,2.48,0,0,1-1.19,3.31,4.91,4.91,0,0,1-3.85,0c-4.4-1.58-7.24-5.9-11.36-8.11a11.4,11.4,0,0,1-2.94-1.79c-1.19-1.18-1.59-3-2.92-4.06a10.7,10.7,0,0,0-2.88-1.23,9,9,0,0,1-5-4.93c-.86,1.47-1.76,3.05-1.65,4.76A6.93,6.93,0,0,0,97,46.84c2.28,4.51,6.37,7.78,9.69,11.59,1.85,2.13,3.48,4.44,5.48,6.43A13.49,13.49,0,0,0,119.44,69a9.26,9.26,0,0,0,10.47-7.25,5.38,5.38,0,0,0-.6-4.18"/></clipPath><clipPath id="clip-path-19"><path class="cls-4" d="M111,99.2a75.21,75.21,0,0,1,7.46,8.68c1.45,2,3,4.16,5.35,4.82a8.62,8.62,0,0,0,3.47.1c2.53-.32,5.24-1.14,6.61-3.29a6.89,6.89,0,0,0-.07-6.73,17.49,17.49,0,0,0-4.71-5.18c-2-1.65-4.1-3.19-6.26-4.64a7.62,7.62,0,0,0-2.17-1.13,23.64,23.64,0,0,0-3.16-.29c-2.81-.37-6.62-4-9.41-1.79C104.6,92.5,109,97.21,111,99.2Z"/></clipPath><clipPath id="clip-path-20"><path class="cls-5" d="M136.15,105.21a2.47,2.47,0,0,1-1.18,3.31,4.93,4.93,0,0,1-3.86,0c-4.4-1.58-7.24-5.9-11.36-8.11a11.57,11.57,0,0,1-2.94-1.79c-1.19-1.18-1.59-3-2.92-4.06A10.77,10.77,0,0,0,111,93.29a9,9,0,0,1-5-4.93c-.86,1.47-1.75,3.06-1.65,4.76a6.89,6.89,0,0,0,.84,2.67c2.27,4.51,6.36,7.78,9.68,11.59,1.85,2.13,3.48,4.45,5.48,6.43a13.49,13.49,0,0,0,7.23,4.09A9.26,9.26,0,0,0,138,110.65a5.35,5.35,0,0,0-.59-4.17"/></clipPath><clipPath id="clip-path-21"><path class="cls-4" d="M88.59,120.93a75.21,75.21,0,0,1,7.46,8.68c1.45,2,3,4.16,5.35,4.82a8.62,8.62,0,0,0,3.47.1c2.53-.32,5.24-1.14,6.61-3.29a6.89,6.89,0,0,0-.07-6.73,17.61,17.61,0,0,0-4.71-5.18q-3-2.46-6.26-4.64a7.62,7.62,0,0,0-2.17-1.13,23.64,23.64,0,0,0-3.16-.29c-2.81-.37-6.62-4-9.41-1.78C82.21,114.23,86.59,118.94,88.59,120.93Z"/></clipPath><clipPath id="clip-path-22"><path class="cls-5" d="M113.76,126.94a2.47,2.47,0,0,1-1.18,3.31,4.93,4.93,0,0,1-3.86,0c-4.4-1.58-7.24-5.89-11.36-8.1a11.9,11.9,0,0,1-2.94-1.8c-1.19-1.18-1.59-3-2.92-4.06A10.77,10.77,0,0,0,88.63,115a9,9,0,0,1-5-4.93c-.86,1.47-1.75,3.06-1.65,4.76a6.73,6.73,0,0,0,.84,2.67c2.27,4.51,6.36,7.78,9.68,11.59,1.85,2.13,3.48,4.45,5.48,6.43a13.43,13.43,0,0,0,7.23,4.09,9.26,9.26,0,0,0,10.47-7.25,5.35,5.35,0,0,0-.59-4.17"/></clipPath><clipPath id="clip-path-23"><path class="cls-4" d="M65.2,83.79a74.75,74.75,0,0,0-1.33,11.36c-.1,2.45-.15,5.12-1.74,7a8.8,8.8,0,0,1-2.82,2c-2.27,1.15-5,2-7.32,1a6.88,6.88,0,0,1-3.7-5.62,17.32,17.32,0,0,1,1-6.93q1.13-3.74,2.6-7.35a7.45,7.45,0,0,1,1.16-2.15,23.84,23.84,0,0,1,2.46-2c2.13-1.89,3.26-7,6.8-6.75C66.74,74.66,65.74,81,65.2,83.79Z"/></clipPath><clipPath id="clip-path-24"><path class="cls-5" d="M47.7,102.84a2.46,2.46,0,0,0,2.83,2.09,4.94,4.94,0,0,0,3.17-2.19c2.77-3.77,2.7-8.94,4.88-13.07A11.73,11.73,0,0,0,60,86.53c.32-1.64-.38-3.4.15-5a11,11,0,0,1,1.69-2.63A9,9,0,0,0,63.28,72a8.83,8.83,0,0,1,4,3,6.94,6.94,0,0,1,.8,2.69c.64,5-.92,10-1.54,15-.35,2.8-.4,5.63-.95,8.4a13.47,13.47,0,0,1-3.71,7.43,9.26,9.26,0,0,1-12.73-.15,5.36,5.36,0,0,1-1.84-3.8"/></clipPath><clipPath id="clip-path-25"><path class="cls-4" d="M90.8,109.81a74.88,74.88,0,0,0-1.33,11.37c-.1,2.45-.15,5.12-1.74,7a8.8,8.8,0,0,1-2.82,2c-2.27,1.14-5,2-7.32,1a6.85,6.85,0,0,1-3.7-5.61,17.32,17.32,0,0,1,1-6.93c.75-2.49,1.62-5,2.6-7.35a7.48,7.48,0,0,1,1.17-2.15,24,24,0,0,1,2.45-2c2.13-1.88,3.26-7,6.8-6.74C92.34,100.69,91.34,107.05,90.8,109.81Z"/></clipPath><clipPath id="clip-path-26"><path class="cls-5" d="M73.3,128.87A2.48,2.48,0,0,0,76.13,131a5,5,0,0,0,3.17-2.19c2.77-3.77,2.71-8.94,4.88-13.08a11.81,11.81,0,0,0,1.44-3.13c.32-1.64-.38-3.41.15-5a11,11,0,0,1,1.69-2.63A9,9,0,0,0,88.88,98c1.54.74,3.17,1.55,4,3a7,7,0,0,1,.8,2.68c.64,5-.92,10-1.54,15-.35,2.8-.4,5.63-.94,8.4a13.54,13.54,0,0,1-3.71,7.43,9.27,9.27,0,0,1-12.74-.15,5.36,5.36,0,0,1-1.84-3.8"/></clipPath><clipPath id="clip-path-27"><path class="cls-4" d="M36,108.13a73.56,73.56,0,0,0-8.14-8c-1.87-1.59-3.95-3.27-4.45-5.67A8.65,8.65,0,0,1,23.56,91c.49-2.5,1.5-5.15,3.74-6.37a6.88,6.88,0,0,1,6.7.53,17.43,17.43,0,0,1,4.85,5c1.5,2.13,2.91,4.32,4.2,6.57A7.83,7.83,0,0,1,44,99a23.93,23.93,0,0,1,.07,3.17c.18,2.84,3.52,6.88,1.13,9.52C42.26,115,37.86,110.25,36,108.13Z"/></clipPath><clipPath id="clip-path-28"><path class="cls-5" d="M31.75,82.6a2.48,2.48,0,0,0-3.39,1,4.91,4.91,0,0,0-.23,3.84c1.28,4.5,5.39,7.63,7.31,11.89A12,12,0,0,0,37,102.35c1.1,1.27,2.92,1.8,3.85,3.19a10.93,10.93,0,0,1,1,3,9.05,9.05,0,0,0,4.57,5.36c-1.52.76-3.17,1.54-4.86,1.32a7,7,0,0,1-2.61-1c-4.34-2.58-7.32-6.88-10.9-10.46-2-2-4.19-3.78-6-5.9a13.58,13.58,0,0,1-3.58-7.5,9.27,9.27,0,0,1,8-10,5.36,5.36,0,0,1,4.12.88"/></clipPath><clipPath id="clip-path-29"><path class="cls-4" d="M55.62,55.81a74.27,74.27,0,0,0-11.27,2c-2.38.61-5,1.32-7.2.34A8.57,8.57,0,0,1,34.4,56c-1.75-1.85-3.33-4.21-3-6.73a6.86,6.86,0,0,1,4.32-5.16,17.26,17.26,0,0,1,6.93-1c2.6,0,5.2.13,7.78.38a7.78,7.78,0,0,1,2.4.5,23.7,23.7,0,0,1,2.62,1.78c2.42,1.49,7.65,1.11,8.42,4.58C64.8,54.66,58.42,55.53,55.62,55.81Z"/></clipPath><clipPath id="clip-path-30"><path class="cls-5" d="M32.34,44.5a2.49,2.49,0,0,0-1.19,3.32,5,5,0,0,0,3,2.41c4.4,1.57,9.34,0,13.92.92a11.83,11.83,0,0,0,3.42.49c1.67-.17,3.15-1.35,4.83-1.3a10.73,10.73,0,0,1,3,.87,9,9,0,0,0,7-.62,8.74,8.74,0,0,1-1.74,4.73,6.83,6.83,0,0,1-2.34,1.53c-4.61,2-9.85,2-14.83,2.83-2.78.47-5.51,1.24-8.32,1.51a13.46,13.46,0,0,1-8.18-1.43,9.27,9.27,0,0,1-3.51-12.24,5.37,5.37,0,0,1,3.11-2.85"/></clipPath><clipPath id="clip-path-31"><ellipse class="cls-2" cx="68.9" cy="74.31" rx="21.95" ry="12.77" transform="translate(-7.53 7.78) rotate(-6.12)"/></clipPath><clipPath id="clip-path-32"><ellipse class="cls-2" cx="99.75" cy="71.97" rx="12.77" ry="21.95" transform="translate(-2.87 139.79) rotate(-69.27)"/></clipPath><clipPath id="clip-path-33"><ellipse class="cls-2" cx="103.85" cy="106.8" rx="12.77" ry="21.95" transform="matrix(0.35, -0.94, 0.94, 0.35, -32.8, 166.12)"/></clipPath><clipPath id="clip-path-34"><ellipse class="cls-2" cx="52.22" cy="118.78" rx="12.77" ry="21.95" transform="translate(-71.69 157.26) rotate(-83.52)"/></clipPath></defs><path class="cls-1" d="M78,33.22c22.46,0,41.27,16.07,46.25,37.67a29.09,29.09,0,0,0,13,3.68,23.58,23.58,0,0,1-11.92,3.28c.13,1.46.2,2.94.2,4.43,0,27.1-21.29,49.07-47.55,49.07s-47.54-22-47.54-49.07S51.72,33.22,78,33.22Z"/><g class="cls-6"><path class="cls-7" d="M105.14,37q2.33,2.4,4.44,5c.71.87,1.44,2,1.08,3a12.14,12.14,0,0,1-6-1.63c-2.34-1.22-4.6-2.58-6.94-3.8-1.3-.68-2.3-1.48-1.47-3C98.22,33,103,34.71,105.14,37Z"/><ellipse class="cls-2" cx="92.01" cy="46.04" rx="12.77" ry="21.95" transform="translate(16.38 115.79) rotate(-69.27)"/><g class="cls-8"><path class="cls-9" d="M89.7,52.19a79.31,79.31,0,0,0,16.17,2.31,14.66,14.66,0,0,0,5.76-.41c2.09-.73,3.73-2.36,5.29-3.93a4.8,4.8,0,0,1,1.4,4.76,12,12,0,0,1-2.43,4.59,51.1,51.1,0,0,1-10.51,10.31A8.13,8.13,0,0,1,102,71.5c-2.63.43-5-1.51-7-3.23a96,96,0,0,0-27-16.19c-2.15-.85-4.49-1.74-5.69-3.71-3.11-5.07,2.89-14.44,8.65-10,2.89,2.23,4.33,5.88,7.29,8.21A32.84,32.84,0,0,0,89.7,52.19Z"/><path class="cls-9" d="M98,36.14a3.45,3.45,0,0,1,1.24.5,1.22,1.22,0,0,1,.54,1.15,11.94,11.94,0,0,1-4.61-.68,23.26,23.26,0,0,1-3.91-1.38c-.59-.29-1.15-.64-1.74-.92a20,20,0,0,0-2.81-1c-.14,0,.53-.45.59-.47.26-.08.74.18,1,.24,1.11.26,2.2.58,3.29.87Z"/><path class="cls-9" d="M95.36,48.3c1.31.26,2.75.44,3.68,1.4.27.28.48.71.27,1a.86.86,0,0,1-.46.33c-1.49.58-3.17,0-4.64-.6-1-.4-7-3-6.33-4.34C88.16,45.59,94.34,48.09,95.36,48.3Z"/><path class="cls-9" d="M110.89,50.08c.15,0,.32.13.3.28a.31.31,0,0,1-.13.19,2.42,2.42,0,0,1-1.09.5c-.55.09-3.71.09-3.23-1.14C107,49.15,110.31,49.91,110.89,50.08Z"/><path class="cls-9" d="M82.64,36.67a89.86,89.86,0,0,1,10.19,3.07c.67.26,1.46.8,1.27,1.48a1.2,1.2,0,0,1-.69.69C90.82,43.17,87.8,40.32,85,41l1.34,1.55a3.72,3.72,0,0,1-3.45.07c-1.4-.72-2.28-2.3-3.79-2.74-1-.29-2.33-.18-2.72-1.13a6,6,0,0,1,4-.39c-.87-.32-4.48-1-2.69-2.13C78.9,35.45,81.35,36.34,82.64,36.67Z"/><path class="cls-9" d="M105.34,44.55a2.93,2.93,0,0,1,1.37.57,1,1,0,0,1,.2,1.33,1.38,1.38,0,0,1-.57.34,8.89,8.89,0,0,1-5.85.07,17.53,17.53,0,0,0,1.77-.6c-.27-1-2.63-1.37-1.45-2.35C101.66,43.19,104.34,44.33,105.34,44.55Z"/><path class="cls-10" d="M69.75,37.61A18.43,18.43,0,0,0,76.12,48a23.2,23.2,0,0,1,4,3.43A14.56,14.56,0,0,0,82,53.77a7.31,7.31,0,0,0,2.24,1.1l8.46,3a16.17,16.17,0,0,0,5.09,1.21c2.89,0,5.62-1.49,8.52-1.51a22.49,22.49,0,0,0,3,0c1.85-.24,3.74-1.53,5.42-.72A4.44,4.44,0,0,1,113.59,60l-5.22,7.63a1.06,1.06,0,0,1-1.39.56c-4.48-.91-8.77-2.61-13.24-3.56-4.07-.87-8.27-1.12-12.29-2.2A30.54,30.54,0,0,1,64.22,50.08a12.42,12.42,0,0,1-2.07-4.49,5.8,5.8,0,0,1,1-4.72,3.83,3.83,0,0,1,4.47-1.15"/></g><path class="cls-7" d="M71.59,37.83,74,34.94a4.62,4.62,0,0,0,.64-.9c.17-.36.25-.75.44-1.09a2.92,2.92,0,0,1,2.3-1.28c.91-.1,1.83,0,2.74-.13.45-.07.89-.2,1.34-.24a3.62,3.62,0,0,1,2.72.91A15.06,15.06,0,0,1,79.86,34a6,6,0,0,0-3.72,2.69,5.33,5.33,0,0,1-.73,1.4c-.37.38-1.11.48-1.37,0"/><ellipse class="cls-11" cx="82.32" cy="34.09" rx="0.84" ry="2.35" transform="translate(32.11 107.69) rotate(-78.2)"/><ellipse class="cls-11" cx="104.01" cy="39.94" rx="0.84" ry="2.35" transform="translate(6.84 94.44) rotate(-50.29)"/><path class="cls-7" d="M55,47.13c2.18.46,4.34,1,6.47,1.67,1.08.33,2.31.83,2.6,1.93a12.06,12.06,0,0,1-5.91,2c-2.62.29-5.25.42-7.87.71-1.46.16-2.74.06-2.89-1.65C47,47.68,51.88,46.48,55,47.13Z"/><ellipse class="cls-2" cx="49.11" cy="61.98" rx="21.95" ry="12.77" transform="translate(-12.81 12.8) rotate(-13.15)"/><g class="cls-12"><path class="cls-9" d="M50.63,68.37a79.08,79.08,0,0,0,14.71-7.1,14.78,14.78,0,0,0,4.55-3.54,14.82,14.82,0,0,0,2.2-6.22,4.83,4.83,0,0,1,3.82,3.18,12.11,12.11,0,0,1,.54,5.16,51.17,51.17,0,0,1-3,14.41,8.12,8.12,0,0,1-1.88,3.29c-1.94,1.82-5,1.53-7.62,1.23a96.25,96.25,0,0,0-31.48,1.63c-2.25.5-4.69,1.06-6.79.1-5.41-2.48-5.65-13.6,1.61-13.12,3.64.25,6.87,2.47,10.62,2.75A32.64,32.64,0,0,0,50.63,68.37Z"/><path class="cls-9" d="M48.58,50.41a3.64,3.64,0,0,1,1.3-.27,1.2,1.2,0,0,1,1.09.65,11.86,11.86,0,0,1-4.21,2,22.3,22.3,0,0,1-4,1c-.65.08-1.31.11-2,.21a19.45,19.45,0,0,0-2.89.74c-.13,0,.19-.68.23-.73s.72-.25.95-.34c1.06-.4,2.14-.75,3.21-1.12Z"/><path class="cls-9" d="M53.16,62c1.23-.51,2.52-1.16,3.83-.88.38.08.8.32.81.71a1,1,0,0,1-.2.53c-.92,1.31-2.62,1.79-4.19,2.09-1,.2-7.49,1.44-7.68-.08C45.66,63.75,52.19,62.39,53.16,62Z"/><path class="cls-9" d="M67,54.81c.14-.05.34-.07.41.06a.37.37,0,0,1,0,.23,2.34,2.34,0,0,1-.63,1c-.4.38-3,2.14-3.31.85C63.32,56.18,66.46,55,67,54.81Z"/><path class="cls-9" d="M36.11,59.43a89.1,89.1,0,0,1,10.17-3.14c.7-.15,1.66-.15,1.88.53a1.24,1.24,0,0,1-.18,1c-1.46,2.49-5.55,1.8-7.47,3.94l2,.54a3.72,3.72,0,0,1-2.83,2c-1.56.19-3.17-.64-4.67-.16-1,.31-2,1.15-2.89.58a5.91,5.91,0,0,1,3.07-2.52c-.9.21-4.28,1.67-3.43-.28C32.33,60.49,34.85,59.87,36.11,59.43Z"/><path class="cls-9" d="M59.35,53.31A3,3,0,0,1,60.8,53a1,1,0,0,1,.91,1,1.36,1.36,0,0,1-.29.59,8.82,8.82,0,0,1-4.81,3.32,14.48,14.48,0,0,0,1.13-1.48c-.77-.68-2.94.32-2.51-1.15C55.54,54.23,58.4,53.69,59.35,53.31Z"/><path class="cls-10" d="M25.94,67.39a18.4,18.4,0,0,0,11.05,5,23.47,23.47,0,0,1,5.24.62,14.92,14.92,0,0,0,2.88.94,7.19,7.19,0,0,0,2.47-.33l8.69-2.23a15.93,15.93,0,0,0,4.9-1.84c2.42-1.58,3.84-4.36,6.23-6A22.84,22.84,0,0,0,69.87,62c1.4-1.24,2.25-3.37,4.1-3.63a4.36,4.36,0,0,1,.83,3.2l-.07,9.25a1.46,1.46,0,0,1-.14.75,1.48,1.48,0,0,1-.71.48c-4.22,1.75-8.73,2.73-13,4.43-3.87,1.54-7.49,3.68-11.44,5a30.49,30.49,0,0,1-21.17-.63,12.34,12.34,0,0,1-4.22-2.58,5.77,5.77,0,0,1-1.81-4.47,3.8,3.8,0,0,1,3.07-3.44"/></g><path class="cls-7" d="M27.58,66.55,28,62.78a4.49,4.49,0,0,0,0-1.1c-.06-.39-.21-.76-.25-1.15A2.91,2.91,0,0,1,29,58.19c.69-.59,1.52-1,2.19-1.64.34-.3.63-.65,1-.94a3.61,3.61,0,0,1,2.77-.76,15,15,0,0,1-2.63,3.88A6,6,0,0,0,30.71,63a5.26,5.26,0,0,1,.17,1.57c-.09.52-.65,1-1.12.78"/><ellipse class="cls-11" cx="34.4" cy="57.46" rx="2.35" ry="0.84" transform="translate(-19.07 17.14) rotate(-22.08)"/><ellipse class="cls-11" cx="55.67" cy="50.22" rx="0.84" ry="2.35" transform="translate(0.06 100.51) rotate(-84.18)"/><path class="cls-7" d="M123.34,69.19c2.21-.24,4.43-.39,6.66-.43,1.13,0,2.46.07,3.07,1a12,12,0,0,1-5,3.75c-2.4,1.09-4.86,2-7.26,3.13-1.34.61-2.58.9-3.26-.67C115.94,72.2,120.22,69.53,123.34,69.19Z"/><ellipse class="cls-2" cx="122.42" cy="85.12" rx="21.95" ry="12.77" transform="translate(-26.41 76.05) rotate(-31.32)"/><g class="cls-13"><path class="cls-9" d="M125.86,90.72a79.71,79.71,0,0,0,11.76-11.33,14.73,14.73,0,0,0,3.21-4.79A14.78,14.78,0,0,0,141,68a4.83,4.83,0,0,1,4.62,1.82,12.2,12.2,0,0,1,2.12,4.74,50.77,50.77,0,0,1,1.66,14.62,8.24,8.24,0,0,1-.75,3.72c-1.28,2.33-4.26,3-6.86,3.54a96.18,96.18,0,0,0-29.4,11.37c-2,1.18-4.13,2.47-6.42,2.21-5.92-.67-9.61-11.16-2.56-13,3.53-.9,7.29.21,10.95-.69A32.82,32.82,0,0,0,125.86,90.72Z"/><path class="cls-9" d="M118.3,74.3a3.66,3.66,0,0,1,1.16-.67,1.2,1.2,0,0,1,1.23.28,11.77,11.77,0,0,1-3.37,3.22,22.71,22.71,0,0,1-3.49,2.23c-.59.29-1.2.52-1.79.81a19.45,19.45,0,0,0-2.51,1.61c-.12.08,0-.71,0-.76.1-.25.61-.47.8-.63.88-.71,1.8-1.37,2.7-2.06Z"/><path class="cls-9" d="M126.26,83.86c1-.87,2-1.89,3.37-2,.38,0,.86.06,1,.42a.83.83,0,0,1,0,.56c-.45,1.54-1.92,2.52-3.32,3.3-.91.51-6.67,3.7-7.32,2.32C119.69,87.88,125.47,84.55,126.26,83.86Z"/><path class="cls-9" d="M137.22,72.71c.12-.08.29-.16.4-.06a.28.28,0,0,1,.07.22,2.41,2.41,0,0,1-.28,1.17c-.26.49-2.2,3-2.88,1.85C134.11,75.18,136.72,73.07,137.22,72.71Z"/><path class="cls-9" d="M109.28,86.75A87.3,87.3,0,0,1,118,80.6c.62-.36,1.52-.66,2-.09a1.25,1.25,0,0,1,.12,1c-.61,2.81-4.71,3.44-5.87,6.07l2-.1a3.72,3.72,0,0,1-2.08,2.76c-1.42.66-3.21.39-4.48,1.31-.84.6-1.58,1.72-2.57,1.45a6,6,0,0,1,2.13-3.36c-.79.49-3.54,2.93-3.34.81C106,88.94,108.21,87.57,109.28,86.75Z"/><path class="cls-9" d="M129.44,73.7a3,3,0,0,1,1.29-.74,1,1,0,0,1,1.18.67,1.32,1.32,0,0,1-.09.65,8.8,8.8,0,0,1-3.54,4.66,16.15,16.15,0,0,0,.62-1.77c-1-.4-2.7,1.23-2.75-.3C126.11,75.76,128.66,74.35,129.44,73.7Z"/><path class="cls-10" d="M102.09,97.49a18.48,18.48,0,0,0,12.07,1.34,23.87,23.87,0,0,1,5.17-1.06,14,14,0,0,0,3,0,7.14,7.14,0,0,0,2.24-1.08l7.57-4.83a16,16,0,0,0,4.08-3.28c1.81-2.25,2.29-5.34,4.05-7.64a23.89,23.89,0,0,0,1.84-2.31c.94-1.62,1.09-3.9,2.76-4.73a4.41,4.41,0,0,1,1.79,2.78l2.81,8.81a1.06,1.06,0,0,1-.42,1.44c-3.46,3-7.44,5.31-10.94,8.25-3.2,2.68-6,5.84-9.3,8.34a30.54,30.54,0,0,1-20.32,6,12.42,12.42,0,0,1-4.81-1.13,5.77,5.77,0,0,1-3.11-3.69,3.79,3.79,0,0,1,1.84-4.22"/></g><path class="cls-7" d="M103.39,96.18l-.78-3.71a5,5,0,0,0-.32-1.06c-.17-.35-.43-.65-.59-1a2.91,2.91,0,0,1,.42-2.6c.47-.78,1.12-1.44,1.57-2.24.22-.4.39-.82.64-1.21a3.6,3.6,0,0,1,2.39-1.58,14.88,14.88,0,0,1-1.29,4.51,6,6,0,0,0-.17,4.59,4.94,4.94,0,0,1,.66,1.44c.07.52-.3,1.16-.82,1.09"/><ellipse class="cls-11" cx="107.04" cy="85.42" rx="2.35" ry="0.84" transform="translate(-29.85 89.38) rotate(-40.25)"/><ellipse class="cls-11" cx="124.99" cy="71.9" rx="2.35" ry="0.84" transform="translate(-12.49 28.39) rotate(-12.35)"/><path class="cls-7" d="M76.27,93.94c1.78,1.34,3.49,2.77,5.14,4.26.84.76,1.74,1.74,1.54,2.85a12,12,0,0,1-6.2-.69c-2.5-.85-4.94-1.86-7.43-2.71-1.39-.47-2.5-1.11-1.91-2.72C68.83,91.05,73.77,92.05,76.27,93.94Z"/><ellipse class="cls-2" cx="64.67" cy="104.9" rx="12.77" ry="21.95" transform="translate(-51.4 146.3) rotate(-77.98)"/><g class="cls-14"><path class="cls-9" d="M63.32,111.33a79.6,79.6,0,0,0,16.33-.17,14.57,14.57,0,0,0,5.63-1.28,14.81,14.81,0,0,0,4.64-4.68,4.82,4.82,0,0,1,2.1,4.5,11.92,11.92,0,0,1-1.7,4.89,51.14,51.14,0,0,1-8.83,11.78,8.37,8.37,0,0,1-3.1,2.19c-2.53.81-5.15-.74-7.42-2.14a96.21,96.21,0,0,0-29.19-11.91c-2.25-.51-4.7-1-6.18-2.8-3.85-4.54.67-14.71,7-11.18,3.19,1.76,5.16,5.15,8.44,7A33,33,0,0,0,63.32,111.33Z"/><path class="cls-9" d="M69.1,94.2a3.54,3.54,0,0,1,1.3.31,1.19,1.19,0,0,1,.71,1,12,12,0,0,1-4.66,0,23.38,23.38,0,0,1-4.07-.77c-.63-.2-1.23-.46-1.86-.65a21,21,0,0,0-2.93-.56c-.14,0,.45-.53.51-.56.25-.11.76.08,1,.1,1.13.08,2.25.23,3.38.35Z"/><path class="cls-9" d="M68.33,106.62c1.33.06,2.78,0,3.84.83.31.24.59.63.43,1a.94.94,0,0,1-.4.39c-1.39.8-3.13.51-4.69.11-1-.25-7.39-1.89-6.91-3.33C60.79,105,67.28,106.58,68.33,106.62Z"/><path class="cls-9" d="M84,106c.14,0,.33.08.33.23a.26.26,0,0,1-.1.21,2.4,2.4,0,0,1-1,.66c-.53.18-3.65.65-3.37-.64C80,105.69,83.34,106,84,106Z"/><path class="cls-9" d="M54,97.06a87.08,87.08,0,0,1,10.54,1.49c.69.16,1.56.56,1.47,1.27a1.23,1.23,0,0,1-.57.79c-2.37,1.63-5.78-.73-8.43.39l1.55,1.32a3.72,3.72,0,0,1-3.41.59c-1.48-.5-2.59-1.93-4.15-2.13-1-.14-2.33.17-2.86-.71a6,6,0,0,1,3.85-1c-.91-.19-4.58-.3-3-1.71C50.11,96.41,52.66,96.92,54,97.06Z"/><path class="cls-9" d="M77.62,101.41a2.84,2.84,0,0,1,1.44.35,1,1,0,0,1,.4,1.29,1.34,1.34,0,0,1-.52.42,8.87,8.87,0,0,1-5.76,1,16.18,16.18,0,0,0,1.65-.87c-.41-.94-2.8-1-1.79-2.1C73.78,100.62,76.6,101.34,77.62,101.41Z"/><path class="cls-10" d="M41.39,99.94a18.49,18.49,0,0,0,7.86,9.25A23.45,23.45,0,0,1,53.74,112a13.88,13.88,0,0,0,2.2,2.07,7.14,7.14,0,0,0,2.38.76l8.81,1.68a16.15,16.15,0,0,0,5.22.42c2.86-.4,5.33-2.32,8.19-2.78a24,24,0,0,0,2.93-.42c1.79-.53,3.47-2.09,5.25-1.54a4.38,4.38,0,0,1-.61,3.25l-4,8.34a1.38,1.38,0,0,1-.45.61,1.34,1.34,0,0,1-.84.14c-4.57-.21-9.06-1.24-13.63-1.51-4.16-.25-8.34.15-12.48-.32a30.56,30.56,0,0,1-18.9-9.58A12.47,12.47,0,0,1,35.09,109a5.73,5.73,0,0,1,.27-4.81,3.79,3.79,0,0,1,4.23-1.81"/></g><path class="cls-7" d="M43.24,99.88l2-3.24a4.49,4.49,0,0,0,.49-1c.12-.38.14-.78.27-1.15a2.91,2.91,0,0,1,2.09-1.6c.88-.24,1.81-.28,2.68-.55.43-.13.85-.33,1.29-.44a3.58,3.58,0,0,1,2.83.49,15.32,15.32,0,0,1-4,2.4A6,6,0,0,0,47.56,98a5.05,5.05,0,0,1-.51,1.49c-.3.44-1,.65-1.35.23"/><ellipse class="cls-11" cx="53.28" cy="94.55" rx="0.84" ry="2.35" transform="translate(-44.01 142.65) rotate(-86.9)"/><ellipse class="cls-11" cx="75.61" cy="97.05" rx="0.84" ry="2.35" transform="matrix(0.52, -0.86, 0.86, 0.52, -46.52, 111.88)"/><path class="cls-7" d="M51,73.87c1.55,1.6,3,3.27,4.44,5,.71.88,1.44,2,1.08,3.06a12.14,12.14,0,0,1-6-1.63c-2.34-1.22-4.6-2.58-6.94-3.8-1.3-.68-2.3-1.48-1.47-3C44.06,69.89,48.79,71.62,51,73.87Z"/><ellipse class="cls-2" cx="37.85" cy="82.95" rx="12.77" ry="21.95" transform="translate(-53.13 88.99) rotate(-69.27)"/><g class="cls-15"><path class="cls-9" d="M35.55,89.1a79.12,79.12,0,0,0,16.17,2.31A14.62,14.62,0,0,0,57.47,91c2.09-.73,3.73-2.36,5.29-3.93a4.8,4.8,0,0,1,1.4,4.76,12,12,0,0,1-2.43,4.59,50.8,50.8,0,0,1-10.51,10.3,8,8,0,0,1-3.39,1.69c-2.63.43-5-1.51-7-3.23A96,96,0,0,0,13.77,89c-2.14-.85-4.48-1.74-5.69-3.71C5,80.21,11,70.84,16.73,75.29c2.89,2.23,4.33,5.88,7.29,8.21A32.8,32.8,0,0,0,35.55,89.1Z"/><path class="cls-9" d="M43.85,73.05a3.54,3.54,0,0,1,1.24.49,1.25,1.25,0,0,1,.54,1.16A12,12,0,0,1,41,74a23.23,23.23,0,0,1-3.91-1.37c-.59-.29-1.15-.64-1.74-.92a20,20,0,0,0-2.81-1c-.14,0,.53-.45.59-.47.26-.08.74.18,1,.24,1.1.26,2.19.58,3.28.87Z"/><path class="cls-9" d="M41.2,85.21c1.31.26,2.75.44,3.68,1.4.27.28.48.71.27,1a.91.91,0,0,1-.46.33c-1.49.58-3.16,0-4.64-.6-1-.41-7-3-6.33-4.34C34,82.5,40.18,85,41.2,85.21Z"/><path class="cls-9" d="M56.74,87c.14,0,.31.13.29.28s-.07.14-.13.19a2.42,2.42,0,0,1-1.09.5c-.55.09-3.71.09-3.23-1.14C52.87,86.06,56.15,86.82,56.74,87Z"/><path class="cls-9" d="M28.48,73.58a89.25,89.25,0,0,1,10.19,3.07c.67.26,1.46.79,1.27,1.48a1.18,1.18,0,0,1-.69.69c-2.59,1.26-5.6-1.59-8.39-.89l1.33,1.55a3.69,3.69,0,0,1-3.45.06c-1.4-.71-2.28-2.29-3.79-2.73-1-.29-2.33-.18-2.72-1.13a5.91,5.91,0,0,1,3.95-.39c-.86-.32-4.48-1-2.69-2.13C24.74,72.36,27.19,73.25,28.48,73.58Z"/><path class="cls-9" d="M51.18,81.46a2.89,2.89,0,0,1,1.37.57,1,1,0,0,1,.2,1.33,1.38,1.38,0,0,1-.57.34,8.89,8.89,0,0,1-5.85.07,17.53,17.53,0,0,0,1.77-.6c-.27-1-2.63-1.38-1.45-2.35C47.51,80.1,50.18,81.24,51.18,81.46Z"/><path class="cls-10" d="M15.59,74.52A18.52,18.52,0,0,0,22,84.86a23.2,23.2,0,0,1,4,3.43,14.56,14.56,0,0,0,1.86,2.39,7.31,7.31,0,0,0,2.24,1.1l8.46,3A15.89,15.89,0,0,0,43.62,96c2.89,0,5.63-1.48,8.52-1.5a22.5,22.5,0,0,0,3,0c1.85-.25,3.74-1.53,5.42-.72a4.35,4.35,0,0,1-1.09,3.12l-5.22,7.63a1.36,1.36,0,0,1-.54.55,1.45,1.45,0,0,1-.85,0c-4.48-.91-8.77-2.61-13.24-3.56-4.07-.87-8.27-1.12-12.29-2.2A30.54,30.54,0,0,1,10.06,87,12.42,12.42,0,0,1,8,82.5a5.8,5.8,0,0,1,1-4.72,3.81,3.81,0,0,1,4.46-1.15"/></g><path class="cls-7" d="M17.43,74.74l2.44-2.89a4.62,4.62,0,0,0,.64-.9c.17-.36.25-.75.44-1.09a2.92,2.92,0,0,1,2.3-1.28c.91-.1,1.83,0,2.74-.13.45-.07.89-.2,1.34-.24a3.62,3.62,0,0,1,2.72.91,15.06,15.06,0,0,1-4.35,1.76A6,6,0,0,0,22,73.57a5,5,0,0,1-.73,1.4c-.37.38-1.11.48-1.37,0"/><ellipse class="cls-11" cx="28.16" cy="71" rx="0.84" ry="2.35" transform="translate(-47.1 84.04) rotate(-78.2)"/><ellipse class="cls-11" cx="49.85" cy="76.85" rx="0.84" ry="2.35" transform="translate(-41.12 66.11) rotate(-50.29)"/><path class="cls-7" d="M95.82,73q-2.61.06-5.22.33c-.88.1-1.9.31-2.28,1.11a9.45,9.45,0,0,0,4.24,2.41c2,.61,4,1.1,6,1.71,1.1.34,2.1.44,2.47-.85C101.87,74.61,98.28,73,95.82,73Z"/><ellipse class="cls-2" cx="98.13" cy="85.3" rx="10" ry="17.2" transform="translate(-19.69 140.29) rotate(-66.02)"/><g class="cls-16"><path class="cls-9" d="M96,90a62.44,62.44,0,0,1-10.27-7.63,11.36,11.36,0,0,1-3-3.4A11.74,11.74,0,0,1,82,73.86a3.8,3.8,0,0,0-3.4,1.88,9.42,9.42,0,0,0-1.17,3.9,39.78,39.78,0,0,0,.16,11.53,6.41,6.41,0,0,0,1,2.81c1.23,1.69,3.61,1.91,5.69,2.06a75.34,75.34,0,0,1,24,5.9c1.66.71,3.46,1.51,5.21,1.08,4.53-1.11,6.35-9.64.69-10.34-2.83-.35-5.64.89-8.58.55A25.81,25.81,0,0,1,96,90Z"/><path class="cls-9" d="M100.25,76.48a3,3,0,0,0-1-.41,1,1,0,0,0-.93.35,9.3,9.3,0,0,0,2.94,2.16A17.94,17.94,0,0,0,104.23,80c.49.16,1,.28,1.47.45a14.07,14.07,0,0,1,2.12,1c.1.06,0-.55-.07-.59s-.51-.3-.68-.41c-.76-.46-1.54-.88-2.31-1.33Z"/><path class="cls-9" d="M95,84.71a5.2,5.2,0,0,0-2.82-1.24c-.3,0-.66.13-.73.43a.74.74,0,0,0,.08.43,5,5,0,0,0,2.91,2.23c.76.3,5.56,2.21,5.92,1.07C100.53,87.18,95.7,85.16,95,84.71Z"/><path class="cls-9" d="M85.39,77.14c-.11,0-.25-.1-.32,0a.23.23,0,0,0,0,.18,1.85,1.85,0,0,0,.33.88c.25.36,2,2.09,2.43,1.15C88.05,78.75,85.81,77.37,85.39,77.14Z"/><path class="cls-9" d="M108.51,85.25a71,71,0,0,0-7.36-3.91c-.52-.22-1.25-.36-1.53.13a1,1,0,0,0,0,.76c.75,2.13,4,2.21,5.16,4.14l-1.59.12a2.9,2.9,0,0,0,1.88,1.94c1.18.37,2.54,0,3.62.56.71.39,1.4,1.19,2.14.88a4.65,4.65,0,0,0-2-2.4c.66.3,3,1.92,2.68.3C111.27,86.63,109.42,85.78,108.51,85.25Z"/><path class="cls-9" d="M91.53,77.13a2.19,2.19,0,0,0-1.07-.44.77.77,0,0,0-.85.63,1.13,1.13,0,0,0,.13.5A7,7,0,0,0,93,81.09a14.65,14.65,0,0,1-.65-1.32c.7-.4,2.22.69,2.11-.51C94.32,78.4,92.2,77.55,91.53,77.13Z"/><path class="cls-10" d="M115.17,92.88a14.51,14.51,0,0,1-9.25,2.25,17.88,17.88,0,0,0-4.12-.3,11.13,11.13,0,0,1-2.35.3,5.62,5.62,0,0,1-1.85-.62l-6.37-3a12.9,12.9,0,0,1-3.5-2.14c-1.63-1.57-2.31-3.93-3.91-5.53a18.17,18.17,0,0,1-1.66-1.62c-.9-1.16-1.24-2.92-2.63-3.4a3.45,3.45,0,0,0-1.1,2.34L77.12,88.3a1.11,1.11,0,0,0,0,.6,1.14,1.14,0,0,0,.47.48c3,2,6.32,3.38,9.34,5.31,2.74,1.77,5.22,3.94,8,5.56a24,24,0,0,0,16.4,2.63,9.82,9.82,0,0,0,3.63-1.37,4.51,4.51,0,0,0,2-3.17,3,3,0,0,0-1.85-3.1"/></g><path class="cls-7" d="M114,92l.24-3a3,3,0,0,1,.14-.85c.09-.29.27-.56.35-.85a2.27,2.27,0,0,0-.58-2c-.45-.56-1-1-1.45-1.58-.21-.29-.39-.6-.61-.87a2.8,2.8,0,0,0-2-1,11.71,11.71,0,0,0,1.45,3.38,4.68,4.68,0,0,1,.59,3.55,3.92,3.92,0,0,0-.36,1.18c0,.42.35.88.75.77"/><ellipse class="cls-11" cx="110.12" cy="83.99" rx="0.66" ry="1.85" transform="matrix(0.54, -0.84, 0.84, 0.54, -20.22, 130.81)"/><ellipse class="cls-11" cx="94.81" cy="75.29" rx="0.66" ry="1.85" transform="matrix(0.09, -1, 1, 0.09, 11.54, 163.17)"/><path class="cls-4" d="M107.93,100.52a75.32,75.32,0,0,0-11.44-.12c-2.45.16-5.11.39-7.14-1A8.73,8.73,0,0,1,87,96.82c-1.39-2.13-2.5-4.74-1.74-7.17a6.87,6.87,0,0,1,5.19-4.28,17.42,17.42,0,0,1,7,.26q3.83.72,7.58,1.8a7.62,7.62,0,0,1,2.26.94,22.54,22.54,0,0,1,2.25,2.23c2.11,1.91,7.32,2.49,7.44,6C117.16,101.08,110.74,100.76,107.93,100.52Z"/><g class="cls-17"><path class="cls-5" d="M87.12,85.14a2.46,2.46,0,0,0-1.77,3,5,5,0,0,0,2.51,2.93c4,2.35,9.18,1.73,13.52,3.46a11.79,11.79,0,0,0,3.27,1.1c1.67.14,3.35-.74,5-.39a11.33,11.33,0,0,1,2.8,1.41,9,9,0,0,0,7,.68c-.57,1.61-1.21,3.31-2.57,4.33a7.06,7.06,0,0,1-2.59,1.08c-4.91,1.16-10,.14-15.1.06-2.82,0-5.64.2-8.45,0a13.49,13.49,0,0,1-7.79-2.9,9.28,9.28,0,0,1-1.2-12.68A5.34,5.34,0,0,1,85.32,85"/><g class="cls-18"><path class="cls-19" d="M78.72,86.44A15.18,15.18,0,0,0,92,97.12a10.64,10.64,0,0,1,2.11.22,14.22,14.22,0,0,1,2,.88,9.94,9.94,0,0,0,5.18.63,13.7,13.7,0,0,1,2.92-.28,10.4,10.4,0,0,1,2.75.84,33.13,33.13,0,0,0,10.58,2.33,10,10,0,0,1-7.14,2.38,66.15,66.15,0,0,1-7.65-1c-6.39-.85-12.88.05-19.25,1.07a23.22,23.22,0,0,1-6.43.44A3.37,3.37,0,0,1,75,103.8a3.78,3.78,0,0,1-.78-2.35,37.51,37.51,0,0,1,.69-10.88c.1-.49.29-1,.77-1.17a1.21,1.21,0,0,1,.89.22,5.49,5.49,0,0,1,1.87,1.84"/></g><path class="cls-5" d="M102.17,92.43c-1.11-.31-2.15-.87-3.28-1.07-.92-.15-1.86-.07-2.77-.24A.46.46,0,0,1,95.8,91a.43.43,0,0,1,.08-.5,2.39,2.39,0,0,1,1.91-.84,11.06,11.06,0,0,1,2.13.31c1.17.22,3.41-.25,4.21.8C105.22,92.17,103.3,92.74,102.17,92.43Z"/><path class="cls-5" d="M111.3,94.43A3.47,3.47,0,0,1,109,93.09a.77.77,0,0,1-.08-.59.64.64,0,0,1,.74-.33,2.14,2.14,0,0,1,.78.4A8.28,8.28,0,0,0,113,93.68c.69.18,1.67.17,1.9,1C115.31,96.35,112,94.63,111.3,94.43Z"/><path class="cls-5" d="M96.35,88.18a14.36,14.36,0,0,1-2.86.06A19.12,19.12,0,0,0,90,88.5a7.08,7.08,0,0,1-1.71.16.46.46,0,0,1-.24-.08c-.23-.17,0-.53.21-.7a8,8,0,0,1,4.94-1.29c1.11,0,3.16-.35,4.18.06C98.85,87.25,97.13,88,96.35,88.18Z"/></g><path class="cls-20" d="M97.91,83.31q2.39,1.09,4.67,2.37c.77.44,1.62,1,1.66,1.92a9.54,9.54,0,0,1-4.86.54c-2-.22-4.09-.57-6.15-.79-1.14-.12-2.1-.42-1.92-1.75C91.72,82.39,95.67,82.3,97.91,83.31Z"/><ellipse class="cls-3" cx="90.93" cy="93.7" rx="17.2" ry="10" transform="translate(-1.14 1.12) rotate(-0.7)"/><g class="cls-21"><path class="cls-9" d="M91,98.84a61.55,61.55,0,0,0,12.46-3A11.39,11.39,0,0,0,107.55,94a11.74,11.74,0,0,0,2.74-4.39,3.8,3.8,0,0,1,2.38,3.08,9.46,9.46,0,0,1-.46,4,40,40,0,0,1-4.71,10.53,6.48,6.48,0,0,1-2,2.2c-1.8,1.06-4.07.32-6.05-.35A75.06,75.06,0,0,0,75.1,105c-1.81,0-3.77,0-5.21-1.07-3.73-2.81-2-11.36,3.45-9.76,2.74.8,4.83,3,7.66,3.89A25.62,25.62,0,0,0,91,98.84Z"/><path class="cls-22" d="M92.48,84.75a2.8,2.8,0,0,1,1,0,.94.94,0,0,1,.72.69,9.5,9.5,0,0,1-3.55.82,17.67,17.67,0,0,1-3.25.11c-.51,0-1-.13-1.53-.17a16.64,16.64,0,0,0-2.34.08c-.11,0,.26-.49.3-.51s.59-.08.79-.11c.87-.13,1.76-.21,2.64-.31Z"/><path class="cls-22" d="M94,94.38a5.22,5.22,0,0,1,3.08,0c.27.13.56.38.5.68a.72.72,0,0,1-.25.37,5,5,0,0,1-3.55.9c-.82,0-6-.17-5.86-1.36C88,94.47,93.22,94.53,94,94.38Z"/><path class="cls-22" d="M105.87,91.23c.11,0,.26,0,.29.12a.24.24,0,0,1,0,.18,1.92,1.92,0,0,1-.65.68c-.38.22-2.68,1.12-2.69.09C102.78,91.66,105.39,91.27,105.87,91.23Z"/><path class="cls-22" d="M81.42,89.54a70.15,70.15,0,0,1,8.31-.67c.56,0,1.29.16,1.35.71a1,1,0,0,1-.31.7c-1.53,1.66-4.54.45-6.38,1.76l1.42.74a2.91,2.91,0,0,1-2.5,1c-1.22-.12-2.32-1-3.54-.91-.81.07-1.75.53-2.31,0a4.66,4.66,0,0,1,2.77-1.41c-.73,0-3.55.56-2.57-.79C78.34,89.72,80.38,89.67,81.42,89.54Z"/><path class="cls-22" d="M100.23,88.79a2.28,2.28,0,0,1,1.16,0,.79.79,0,0,1,.53.92,1.14,1.14,0,0,1-.32.41,7,7,0,0,1-4.24,1.73,14.59,14.59,0,0,0,1.11-1c-.48-.65-2.31-.25-1.73-1.3C97.16,88.85,99.44,88.92,100.23,88.79Z"/><path class="cls-10" d="M72.28,93.92a14.54,14.54,0,0,0,7.61,5.72A18.63,18.63,0,0,1,83.8,101a10.85,10.85,0,0,0,2,1.21,5.31,5.31,0,0,0,2,.16l7-.23a12.36,12.36,0,0,0,4.06-.58c2.12-.8,3.67-2.69,5.78-3.54a18.16,18.16,0,0,0,2.16-.83c1.28-.71,2.29-2.19,3.75-2.08a3.45,3.45,0,0,1,.1,2.59l-1.62,7.06a1.15,1.15,0,0,1-.24.55,1.05,1.05,0,0,1-.62.26c-3.53.62-7.14.61-10.67,1.19-3.23.53-6.36,1.56-9.6,1.92a24,24,0,0,1-16.1-4.07A9.77,9.77,0,0,1,69,101.92a4.51,4.51,0,0,1-.63-3.73,3,3,0,0,1,2.93-2.12"/></g><path class="cls-7" d="M73.69,93.55l1-2.81a4,4,0,0,0,.21-.84c0-.3,0-.61,0-.92a2.29,2.29,0,0,1,1.31-1.59c.63-.33,1.34-.52,2-.88.31-.17.59-.39.91-.55a2.82,2.82,0,0,1,2.24-.12,11.7,11.7,0,0,1-2.67,2.53,4.74,4.74,0,0,0-1.94,3,3.91,3.91,0,0,1-.13,1.23c-.16.38-.67.66-1,.41"/><ellipse class="cls-11" cx="96.28" cy="87.42" rx="2.43" ry="1.02" transform="translate(-5.1 5.97) rotate(-3.46)"/><ellipse class="cls-11" cx="89.54" cy="87.57" rx="1.84" ry="0.77" transform="translate(-5.12 5.56) rotate(-3.46)"/><path class="cls-20" d="M84.74,117.56q2.39,1.08,4.67,2.37c.77.43,1.62,1,1.66,1.91a9.33,9.33,0,0,1-4.86.54c-2-.22-4.09-.56-6.15-.78-1.14-.13-2.1-.43-1.92-1.76C78.55,116.64,82.5,116.54,84.74,117.56Z"/><ellipse class="cls-3" cx="77.76" cy="127.94" rx="17.2" ry="10" transform="translate(-1.56 0.96) rotate(-0.7)"/><g class="cls-23"><path class="cls-9" d="M77.84,133.09a62.92,62.92,0,0,0,12.46-3,11.41,11.41,0,0,0,4.08-1.95,11.7,11.7,0,0,0,2.74-4.38,3.79,3.79,0,0,1,2.38,3.07,9.44,9.44,0,0,1-.46,4,40,40,0,0,1-4.71,10.53,6.41,6.41,0,0,1-2,2.2c-1.79,1.06-4.06.33-6-.35a75.32,75.32,0,0,0-24.36-4.06c-1.81,0-3.77,0-5.22-1.08-3.72-2.81-2-11.36,3.46-9.76,2.74.8,4.83,3,7.66,3.9A25.81,25.81,0,0,0,77.84,133.09Z"/><path class="cls-22" d="M79.31,119a2.6,2.6,0,0,1,1,0,1,1,0,0,1,.72.69,9.13,9.13,0,0,1-3.55.82,17.68,17.68,0,0,1-3.25.12c-.51,0-1-.14-1.53-.17a14.09,14.09,0,0,0-2.34.08c-.11,0,.26-.49.3-.52s.59-.08.79-.11c.87-.12,1.76-.2,2.64-.31Z"/><path class="cls-22" d="M80.86,128.63a5.22,5.22,0,0,1,3.08,0c.27.13.55.39.5.69a.74.74,0,0,1-.25.36,4.91,4.91,0,0,1-3.55.9c-.82,0-6-.17-5.86-1.36C74.82,128.71,80.05,128.77,80.86,128.63Z"/><path class="cls-22" d="M92.69,125.48c.12,0,.27,0,.3.11a.23.23,0,0,1,0,.18,1.87,1.87,0,0,1-.66.68c-.37.22-2.67,1.12-2.68.09C89.61,125.9,92.22,125.52,92.69,125.48Z"/><path class="cls-22" d="M68.25,123.79a68.12,68.12,0,0,1,8.31-.68c.56,0,1.29.16,1.35.72a1,1,0,0,1-.31.7c-1.53,1.65-4.54.44-6.38,1.75l1.42.74a2.88,2.88,0,0,1-2.5,1c-1.22-.12-2.32-1-3.54-.91-.81.07-1.75.53-2.31,0a4.67,4.67,0,0,1,2.77-1.42c-.73,0-3.55.57-2.58-.78C65.17,124,67.21,123.92,68.25,123.79Z"/><path class="cls-22" d="M87.06,123a2.28,2.28,0,0,1,1.16,0,.78.78,0,0,1,.53.91,1.07,1.07,0,0,1-.32.41,7,7,0,0,1-4.25,1.73,11.45,11.45,0,0,0,1.12-1c-.48-.65-2.31-.25-1.73-1.3C84,123.1,86.27,123.16,87.06,123Z"/><path class="cls-10" d="M59.11,128.16a14.49,14.49,0,0,0,7.61,5.72,18.1,18.1,0,0,1,3.91,1.36,11.36,11.36,0,0,0,2,1.2,5.53,5.53,0,0,0,2,.17l7-.23a12.64,12.64,0,0,0,4.06-.59c2.12-.8,3.67-2.69,5.78-3.53a20.07,20.07,0,0,0,2.16-.83c1.28-.71,2.29-2.2,3.75-2.09a3.45,3.45,0,0,1,.1,2.59L95.88,139a1.24,1.24,0,0,1-.24.55,1.14,1.14,0,0,1-.62.25c-3.53.62-7.14.61-10.68,1.19-3.22.53-6.35,1.56-9.59,1.92a24,24,0,0,1-16.1-4.06,9.84,9.84,0,0,1-2.8-2.69,4.55,4.55,0,0,1-.62-3.73,3,3,0,0,1,2.93-2.11"/></g><path class="cls-7" d="M60.52,127.8l.95-2.81a4.13,4.13,0,0,0,.21-.84c0-.31,0-.62,0-.92A2.31,2.31,0,0,1,63,121.64c.63-.34,1.34-.52,2-.88.3-.18.59-.4.91-.56a2.82,2.82,0,0,1,2.24-.12,11.49,11.49,0,0,1-2.67,2.53,4.7,4.7,0,0,0-1.94,3,4.19,4.19,0,0,1-.13,1.23c-.16.38-.67.67-1,.41"/><ellipse class="cls-11" cx="83.11" cy="121.66" rx="2.43" ry="1.02" transform="translate(-7.19 5.23) rotate(-3.46)"/><ellipse class="cls-11" cx="76.37" cy="121.82" rx="1.84" ry="0.77" transform="translate(-7.21 4.83) rotate(-3.46)"/><path class="cls-20" d="M49.41,85.22c-1.49.91-2.95,1.88-4.35,2.92-.71.52-1.49,1.21-1.42,2.1a9.54,9.54,0,0,0,4.89,0c2-.47,4-1.06,6-1.52,1.12-.26,2-.68,1.71-2C55.44,83.56,51.51,83.94,49.41,85.22Z"/><ellipse class="cls-3" cx="57.58" cy="94.69" rx="17.2" ry="10" transform="translate(-9.91 6.79) rotate(-6.21)"/><g class="cls-24"><path class="cls-9" d="M58.12,99.81A62.77,62.77,0,0,1,45.4,98.38a11.54,11.54,0,0,1-4.28-1.44,11.73,11.73,0,0,1-3.25-4,3.76,3.76,0,0,0-2,3.34,9.31,9.31,0,0,0,.94,3.95,39.74,39.74,0,0,0,6,9.88A6.25,6.25,0,0,0,45,112c1.91.84,4.08-.17,6-1.08a75.32,75.32,0,0,1,23.7-7c1.8-.22,3.75-.44,5-1.7,3.35-3.23.64-11.52-4.6-9.28-2.63,1.13-4.44,3.61-7.14,4.8A26,26,0,0,1,58.12,99.81Z"/><path class="cls-22" d="M55,86a3,3,0,0,0-1,.14,1,1,0,0,0-.64.77,9.44,9.44,0,0,0,3.63.38A17.5,17.5,0,0,0,60.17,87c.5-.11,1-.26,1.5-.36a16.53,16.53,0,0,1,2.33-.2c.11,0-.32-.45-.36-.48s-.59,0-.79,0c-.89,0-1.78,0-2.66,0Z"/><path class="cls-22" d="M54.59,95.74a5.19,5.19,0,0,0-3.06.34c-.26.16-.51.45-.41.74a.64.64,0,0,0,.28.33,4.9,4.9,0,0,0,3.64.46c.81-.12,5.92-.88,5.66-2C60.6,95.1,55.41,95.79,54.59,95.74Z"/><path class="cls-22" d="M42.46,94c-.11,0-.26,0-.28.15a.27.27,0,0,0,.06.17A1.88,1.88,0,0,0,43,95c.39.18,2.79.79,2.67-.23C45.58,94.09,42.94,94,42.46,94Z"/><path class="cls-22" d="M66.53,89.42a68.09,68.09,0,0,0-8.33.33c-.56.06-1.27.31-1.25.87a.93.93,0,0,0,.38.66c1.72,1.46,4.57-.11,6.54,1l-1.31.91a2.87,2.87,0,0,0,2.61.73c1.19-.27,2.18-1.29,3.4-1.33.81,0,1.81.32,2.29-.32a4.64,4.64,0,0,0-2.92-1.07c.72-.08,3.59.13,2.46-1.09C69.61,89.22,67.58,89.42,66.53,89.42Z"/><path class="cls-22" d="M47.76,90.94a2.25,2.25,0,0,0-1.15.16.79.79,0,0,0-.41,1,1,1,0,0,0,.37.37A6.93,6.93,0,0,0,51,93.64a14.39,14.39,0,0,1-1.23-.8c.4-.7,2.27-.53,1.57-1.5C50.82,90.63,48.56,91,47.76,90.94Z"/><path class="cls-10" d="M76.12,92.66a14.45,14.45,0,0,1-6.86,6.6,18.3,18.3,0,0,0-3.72,1.81,11.36,11.36,0,0,1-1.88,1.45,5.61,5.61,0,0,1-1.91.39l-7,.62a12.53,12.53,0,0,1-4.1-.09c-2.2-.54-4-2.23-6.16-2.82a19,19,0,0,1-2.25-.56c-1.36-.55-2.54-1.9-4-1.62a3.46,3.46,0,0,0,.21,2.59l2.46,6.81a1,1,0,0,0,.3.52,1.05,1.05,0,0,0,.65.18c3.57.19,7.16-.26,10.74-.1,3.26.14,6.5.78,9.76.74a23.92,23.92,0,0,0,15.49-6,9.83,9.83,0,0,0,2.45-3,4.51,4.51,0,0,0,.17-3.78,3,3,0,0,0-3.16-1.74"/></g><path class="cls-7" d="M74.69,92.47,73.4,89.79a3.37,3.37,0,0,1-.3-.8c-.07-.31,0-.62-.12-.92a2.31,2.31,0,0,0-1.5-1.42c-.67-.25-1.39-.35-2-.63-.33-.14-.64-.33-1-.45a2.82,2.82,0,0,0-2.24.16,11.92,11.92,0,0,0,3,2.19,4.68,4.68,0,0,1,2.3,2.77,4,4,0,0,0,.27,1.2c.21.36.75.58,1,.29"/><ellipse class="cls-11" cx="51.52" cy="89.1" rx="2.43" ry="1.02" transform="translate(-5.28 3.27) rotate(-3.46)"/><ellipse class="cls-11" cx="58.22" cy="88.44" rx="1.84" ry="0.77" transform="translate(-5.23 3.67) rotate(-3.46)"/><path class="cls-20" d="M71.58,43.9q-2.23,1.37-4.35,2.91c-.71.53-1.49,1.22-1.42,2.11a9.54,9.54,0,0,0,4.89-.05c2-.47,4-1.06,6-1.53,1.12-.26,2-.67,1.7-2C77.61,42.24,73.68,42.62,71.58,43.9Z"/><ellipse class="cls-3" cx="79.75" cy="53.36" rx="17.2" ry="10" transform="translate(-5.31 8.94) rotate(-6.21)"/><g class="cls-25"><path class="cls-9" d="M80.29,58.48a62.06,62.06,0,0,1-12.72-1.43,11.35,11.35,0,0,1-4.28-1.43,11.67,11.67,0,0,1-3.25-4,3.79,3.79,0,0,0-2,3.34,9.32,9.32,0,0,0,.94,4,39.74,39.74,0,0,0,5.95,9.88,6.25,6.25,0,0,0,2.24,2c1.91.84,4.08-.17,5.95-1.08a75.61,75.61,0,0,1,23.7-7c1.8-.21,3.75-.43,5-1.69,3.36-3.24.64-11.52-4.6-9.28-2.63,1.13-4.44,3.61-7.14,4.8A25.78,25.78,0,0,1,80.29,58.48Z"/><path class="cls-22" d="M77.14,44.67a2.74,2.74,0,0,0-1,.14,1,1,0,0,0-.64.76A9.26,9.26,0,0,0,79.1,46a17.5,17.5,0,0,0,3.24-.27c.5-.11,1-.26,1.5-.36a15.16,15.16,0,0,1,2.33-.2c.11,0-.31-.45-.36-.48s-.59,0-.79,0c-.89,0-1.78,0-2.66,0Z"/><path class="cls-22" d="M76.77,54.42a5.21,5.21,0,0,0-3.07.34c-.26.16-.5.45-.41.74a.64.64,0,0,0,.28.33,4.92,4.92,0,0,0,3.65.46c.8-.12,5.91-.88,5.65-2C82.77,53.78,77.59,54.46,76.77,54.42Z"/><path class="cls-22" d="M64.63,52.72c-.11,0-.26,0-.28.15a.23.23,0,0,0,.07.17,1.86,1.86,0,0,0,.73.6c.39.17,2.79.79,2.67-.23C67.75,52.77,65.11,52.7,64.63,52.72Z"/><path class="cls-22" d="M88.7,48.1a68.09,68.09,0,0,0-8.33.33c-.56.06-1.27.31-1.25.87a.93.93,0,0,0,.38.66c1.72,1.46,4.57-.11,6.55,1l-1.32.91a2.9,2.9,0,0,0,2.61.73c1.2-.27,2.18-1.3,3.41-1.33.8,0,1.8.32,2.28-.32a4.64,4.64,0,0,0-2.92-1.07c.72-.08,3.59.13,2.46-1.09C91.78,47.9,89.75,48.1,88.7,48.1Z"/><path class="cls-22" d="M69.93,49.62a2.1,2.1,0,0,0-1.14.16.79.79,0,0,0-.42,1,1,1,0,0,0,.37.37,6.94,6.94,0,0,0,4.42,1.2,12.82,12.82,0,0,1-1.22-.8c.39-.7,2.26-.53,1.56-1.5C73,49.31,70.73,49.65,69.93,49.62Z"/><path class="cls-10" d="M98.3,51.34a14.52,14.52,0,0,1-6.87,6.6,18.3,18.3,0,0,0-3.72,1.81,10.43,10.43,0,0,1-1.88,1.44,5.62,5.62,0,0,1-1.91.4l-7,.62a12.53,12.53,0,0,1-4.1-.09c-2.2-.54-4-2.23-6.16-2.82a19,19,0,0,1-2.25-.56c-1.35-.55-2.54-1.9-4-1.62a3.39,3.39,0,0,0,.22,2.58l2.45,6.82a1.23,1.23,0,0,0,.3.52,1.2,1.2,0,0,0,.65.18c3.58.19,7.16-.26,10.74-.1,3.26.14,6.5.78,9.76.74a23.92,23.92,0,0,0,15.49-6,9.69,9.69,0,0,0,2.45-3,4.55,4.55,0,0,0,.18-3.78,3,3,0,0,0-3.17-1.74"/></g><path class="cls-7" d="M96.86,51.15l-1.28-2.68a3,3,0,0,1-.31-.81c-.06-.3,0-.61-.12-.91a2.31,2.31,0,0,0-1.5-1.42c-.67-.25-1.39-.35-2.05-.64-.33-.14-.63-.32-1-.44a2.86,2.86,0,0,0-2.24.15,11.61,11.61,0,0,0,3,2.19,4.74,4.74,0,0,1,2.3,2.77,3.75,3.75,0,0,0,.28,1.21c.2.36.74.58,1,.29"/><ellipse class="cls-11" cx="73.69" cy="47.78" rx="2.43" ry="1.02" transform="translate(-2.75 4.53) rotate(-3.46)"/><ellipse class="cls-11" cx="80.4" cy="47.12" rx="1.84" ry="0.77" transform="translate(-2.7 4.93) rotate(-3.46)"/><path class="cls-20" d="M104.94,55.31q-2.23,1.36-4.34,2.92c-.72.52-1.49,1.22-1.42,2.1a9.4,9.4,0,0,0,4.88,0c2-.47,4-1.05,6-1.52,1.12-.26,2-.67,1.7-2C111,53.65,107,54,104.94,55.31Z"/><ellipse class="cls-3" cx="113.12" cy="64.78" rx="17.2" ry="10" transform="translate(-6.35 12.62) rotate(-6.21)"/><g class="cls-26"><path class="cls-9" d="M113.66,69.9a62.06,62.06,0,0,1-12.72-1.43A11.36,11.36,0,0,1,96.66,67a11.62,11.62,0,0,1-3.25-4,3.78,3.78,0,0,0-2,3.34,9.48,9.48,0,0,0,1,4,40.25,40.25,0,0,0,5.94,9.89,6.44,6.44,0,0,0,2.25,1.94c1.91.84,4.07-.16,6-1.07a75.27,75.27,0,0,1,23.7-7c1.79-.22,3.74-.44,5.05-1.69,3.35-3.24.64-11.53-4.61-9.28-2.62,1.12-4.43,3.6-7.13,4.79A25.6,25.6,0,0,1,113.66,69.9Z"/><path class="cls-22" d="M110.51,56.09a2.73,2.73,0,0,0-1,.13,1,1,0,0,0-.64.77,9.43,9.43,0,0,0,3.63.39,18.57,18.57,0,0,0,3.24-.28c.5-.11,1-.26,1.5-.35a15.06,15.06,0,0,1,2.33-.21c.11,0-.32-.45-.36-.47s-.6,0-.79,0c-.89,0-1.78,0-2.67,0Z"/><path class="cls-22" d="M110.13,65.83a5.27,5.27,0,0,0-3.06.34c-.26.16-.51.45-.42.74a.79.79,0,0,0,.29.34,5,5,0,0,0,3.64.46c.81-.12,5.91-.89,5.65-2.06C116.13,65.19,111,65.88,110.13,65.83Z"/><path class="cls-22" d="M98,64.13c-.12,0-.26,0-.28.15a.3.3,0,0,0,.06.18,1.91,1.91,0,0,0,.73.59c.4.18,2.8.8,2.68-.23C101.11,64.18,98.48,64.12,98,64.13Z"/><path class="cls-22" d="M122.07,59.51a70.15,70.15,0,0,0-8.33.33c-.56.07-1.27.31-1.26.88a1,1,0,0,0,.39.65c1.72,1.46,4.56-.11,6.54,1l-1.32.91a2.94,2.94,0,0,0,2.61.73c1.2-.27,2.18-1.3,3.41-1.34.81,0,1.8.32,2.29-.32a4.69,4.69,0,0,0-2.93-1.07c.73-.07,3.6.13,2.47-1.09C125.14,59.32,123.11,59.51,122.07,59.51Z"/><path class="cls-22" d="M103.3,61a2.36,2.36,0,0,0-1.15.16.77.77,0,0,0-.41,1,1.06,1.06,0,0,0,.36.37,7,7,0,0,0,4.42,1.21,14.33,14.33,0,0,1-1.22-.81c.4-.7,2.26-.53,1.56-1.5C106.35,60.72,104.1,61.06,103.3,61Z"/><path class="cls-10" d="M131.66,62.76a14.52,14.52,0,0,1-6.86,6.59,17.82,17.82,0,0,0-3.72,1.82,11.3,11.3,0,0,1-1.88,1.44,5.62,5.62,0,0,1-1.91.4l-7,.61a12.52,12.52,0,0,1-4.1-.09c-2.2-.54-4-2.23-6.16-2.81a18.49,18.49,0,0,1-2.25-.56c-1.36-.56-2.54-1.9-4-1.62A3.44,3.44,0,0,0,94,71.12l2.46,6.82a1.13,1.13,0,0,0,.3.52,1.1,1.1,0,0,0,.64.17c3.58.2,7.17-.25,10.75-.1,3.26.14,6.49.78,9.76.75a24,24,0,0,0,15.49-6,9.87,9.87,0,0,0,2.45-3,4.49,4.49,0,0,0,.17-3.77,3,3,0,0,0-3.16-1.75"/></g><path class="cls-7" d="M130.22,62.56l-1.28-2.67a4,4,0,0,1-.31-.81c-.06-.3,0-.62-.12-.91A2.25,2.25,0,0,0,127,56.75c-.67-.26-1.39-.36-2-.64-.33-.14-.64-.32-1-.45a2.85,2.85,0,0,0-2.25.16,12,12,0,0,0,3,2.19A4.7,4.7,0,0,1,127,60.78a4.45,4.45,0,0,0,.28,1.21c.21.36.74.58,1,.28"/><ellipse class="cls-11" cx="107.05" cy="59.19" rx="2.43" ry="1.02" transform="translate(-3.37 6.56) rotate(-3.46)"/><ellipse class="cls-11" cx="113.76" cy="58.54" rx="1.84" ry="0.77" transform="translate(-3.32 6.97) rotate(-3.46)"/><path class="cls-4" d="M93,83.83a75.21,75.21,0,0,0-7.46,8.68c-1.45,2-3,4.16-5.35,4.83a9,9,0,0,1-3.48.1c-2.52-.32-5.23-1.15-6.6-3.29a6.84,6.84,0,0,1,.07-6.73,17.36,17.36,0,0,1,4.7-5.19q3-2.46,6.27-4.64a7.59,7.59,0,0,1,2.17-1.12,22.09,22.09,0,0,1,3.15-.29c2.82-.38,6.62-4,9.42-1.79C99.36,77.13,95,81.84,93,83.83Z"/><g class="cls-27"><path class="cls-5" d="M67.82,89.84A2.48,2.48,0,0,0,69,93.16a5,5,0,0,0,3.85,0c4.41-1.58,7.24-5.9,11.36-8.11a12.23,12.23,0,0,0,3-1.79c1.18-1.19,1.59-3,2.92-4.07A11,11,0,0,1,93,77.92,9,9,0,0,0,98,73c.86,1.47,1.75,3.06,1.65,4.76a7.06,7.06,0,0,1-.84,2.67c-2.27,4.51-6.36,7.78-9.68,11.6-1.85,2.12-3.48,4.44-5.48,6.43a13.51,13.51,0,0,1-7.23,4.08,9.28,9.28,0,0,1-10.48-7.25,5.35,5.35,0,0,1,.6-4.17"/><g class="cls-28"><path class="cls-19" d="M63.41,97.11a15.17,15.17,0,0,0,16.72-3.28,11.11,11.11,0,0,1,1.52-1.47,15.6,15.6,0,0,1,2-1,9.87,9.87,0,0,0,3.82-3.55,13.93,13.93,0,0,1,1.66-2.41,9.92,9.92,0,0,1,2.42-1.56,33.44,33.44,0,0,0,8.59-6.59,10,10,0,0,1-2.77,7,65.44,65.44,0,0,1-5.69,5.21c-4.76,4.35-8.26,9.89-11.58,15.42a23.56,23.56,0,0,1-3.8,5.2,3.43,3.43,0,0,1-2,1.07,3.78,3.78,0,0,1-2.29-.92,37.58,37.58,0,0,1-7.89-7.53c-.3-.39-.61-.91-.4-1.35a1.23,1.23,0,0,1,.74-.53,5.44,5.44,0,0,1,2.62-.25"/></g><path class="cls-5" d="M83.09,83c-1,.66-2,1.09-2.93,1.83-.71.6-1.25,1.38-2,2a.49.49,0,0,1-.33.14c-.18,0-.29-.21-.33-.38a2.37,2.37,0,0,1,.59-2,10.48,10.48,0,0,1,1.61-1.43c.93-.75,2-2.77,3.32-2.71C84.86,80.53,84.06,82.36,83.09,83Z"/><path class="cls-5" d="M90.5,77.33a3.46,3.46,0,0,1-2.53.93.75.75,0,0,1-.5-.32.64.64,0,0,1,.22-.78,2.53,2.53,0,0,1,.81-.34A8.27,8.27,0,0,0,91,75.59c.58-.42,1.21-1.17,2-.81C94.56,75.5,91.13,76.9,90.5,77.33Z"/><path class="cls-5" d="M76.09,84.75A15.82,15.82,0,0,1,74.3,87a18.38,18.38,0,0,0-2.09,2.88,6.84,6.84,0,0,1-1,1.41.39.39,0,0,1-.21.13c-.28.06-.41-.33-.4-.61a8,8,0,0,1,2.19-4.61c.72-.85,1.78-2.64,2.74-3.16C77,82.23,76.49,84.05,76.09,84.75Z"/></g><path class="cls-4" d="M102.86,50.25a75.21,75.21,0,0,1,7.46,8.68c1.45,2,3,4.16,5.35,4.82a8.62,8.62,0,0,0,3.47.1c2.52-.32,5.24-1.15,6.61-3.29a6.89,6.89,0,0,0-.07-6.73A17.49,17.49,0,0,0,121,48.65q-3-2.48-6.26-4.64a7.62,7.62,0,0,0-2.17-1.13,23.64,23.64,0,0,0-3.16-.29c-2.82-.37-6.62-4-9.41-1.79C96.48,43.55,100.86,48.26,102.86,50.25Z"/><g class="cls-29"><path class="cls-5" d="M128,56.26a2.48,2.48,0,0,1-1.19,3.31,4.91,4.91,0,0,1-3.85,0c-4.4-1.58-7.24-5.9-11.36-8.11a11.4,11.4,0,0,1-2.94-1.79c-1.19-1.18-1.59-3-2.92-4.06a10.7,10.7,0,0,0-2.88-1.23,9,9,0,0,1-5-4.93c-.86,1.47-1.76,3.05-1.65,4.76A6.93,6.93,0,0,0,97,46.84c2.28,4.51,6.37,7.78,9.69,11.59,1.85,2.13,3.48,4.44,5.48,6.43A13.49,13.49,0,0,0,119.44,69a9.26,9.26,0,0,0,10.47-7.25,5.38,5.38,0,0,0-.6-4.18"/><g class="cls-30"><path class="cls-19" d="M132.43,63.52a15.14,15.14,0,0,1-16.71-3.28,10.55,10.55,0,0,0-1.53-1.46,14.29,14.29,0,0,0-2-1,10,10,0,0,1-3.83-3.55,12.65,12.65,0,0,0-1.66-2.42,10,10,0,0,0-2.41-1.56,33.27,33.27,0,0,1-8.6-6.59,9.94,9.94,0,0,0,2.78,7,65.42,65.42,0,0,0,5.68,5.22c4.77,4.34,8.26,9.88,11.58,15.41a24,24,0,0,0,3.81,5.21,3.42,3.42,0,0,0,2,1.06,3.77,3.77,0,0,0,2.3-.92,37,37,0,0,0,7.88-7.53c.31-.39.62-.9.4-1.34a1.18,1.18,0,0,0-.74-.54,5.55,5.55,0,0,0-2.62-.25"/></g><path class="cls-5" d="M112.75,49.44c1,.65,2,1.09,2.93,1.83.71.6,1.25,1.37,2,2a.46.46,0,0,0,.32.15c.19,0,.29-.21.34-.39a2.4,2.4,0,0,0-.59-2,10.42,10.42,0,0,0-1.61-1.42c-.93-.76-2-2.78-3.33-2.71C111,46.94,111.79,48.78,112.75,49.44Z"/><path class="cls-5" d="M105.34,43.75a3.43,3.43,0,0,0,2.53.92.74.74,0,0,0,.51-.32.64.64,0,0,0-.23-.77,2.11,2.11,0,0,0-.8-.34,8.35,8.35,0,0,1-2.5-1.24c-.58-.41-1.2-1.17-2-.81C101.29,41.91,104.71,43.31,105.34,43.75Z"/><path class="cls-5" d="M119.76,51.16a13.6,13.6,0,0,0,1.79,2.22,20.32,20.32,0,0,1,2.09,2.88,6.92,6.92,0,0,0,1,1.41.46.46,0,0,0,.22.14c.27.06.41-.33.4-.61a7.92,7.92,0,0,0-2.2-4.61c-.71-.86-1.77-2.65-2.73-3.17C118.86,48.65,119.36,50.47,119.76,51.16Z"/></g><path class="cls-4" d="M111,99.2a75.21,75.21,0,0,1,7.46,8.68c1.45,2,3,4.16,5.35,4.82a8.62,8.62,0,0,0,3.47.1c2.53-.32,5.24-1.14,6.61-3.29a6.89,6.89,0,0,0-.07-6.73,17.49,17.49,0,0,0-4.71-5.18c-2-1.65-4.1-3.19-6.26-4.64a7.62,7.62,0,0,0-2.17-1.13,23.64,23.64,0,0,0-3.16-.29c-2.81-.37-6.62-4-9.41-1.79C104.6,92.5,109,97.21,111,99.2Z"/><g class="cls-31"><path class="cls-5" d="M136.15,105.21a2.47,2.47,0,0,1-1.18,3.31,4.93,4.93,0,0,1-3.86,0c-4.4-1.58-7.24-5.9-11.36-8.11a11.57,11.57,0,0,1-2.94-1.79c-1.19-1.18-1.59-3-2.92-4.06A10.77,10.77,0,0,0,111,93.29a9,9,0,0,1-5-4.93c-.86,1.47-1.75,3.06-1.65,4.76a6.89,6.89,0,0,0,.84,2.67c2.27,4.51,6.36,7.78,9.68,11.59,1.85,2.13,3.48,4.45,5.48,6.43a13.49,13.49,0,0,0,7.23,4.09A9.26,9.26,0,0,0,138,110.65a5.35,5.35,0,0,0-.59-4.17"/><g class="cls-32"><path class="cls-19" d="M140.56,112.47a15.17,15.17,0,0,1-16.72-3.27,10.11,10.11,0,0,0-1.53-1.47,14.29,14.29,0,0,0-2-1,10,10,0,0,1-3.82-3.55,13.17,13.17,0,0,0-1.67-2.42,10.28,10.28,0,0,0-2.41-1.56,33.44,33.44,0,0,1-8.6-6.59,9.94,9.94,0,0,0,2.78,7,65.42,65.42,0,0,0,5.68,5.22c4.77,4.34,8.26,9.88,11.59,15.41a23.62,23.62,0,0,0,3.8,5.21,3.42,3.42,0,0,0,2,1.06,3.75,3.75,0,0,0,2.29-.92,37,37,0,0,0,7.88-7.53c.31-.39.62-.9.4-1.34a1.22,1.22,0,0,0-.74-.54,5.54,5.54,0,0,0-2.62-.25"/></g><path class="cls-5" d="M120.87,98.39c.95.65,2,1.09,2.93,1.83.71.6,1.26,1.37,2,2a.48.48,0,0,0,.33.15c.18,0,.28-.21.33-.39a2.37,2.37,0,0,0-.59-2,10.42,10.42,0,0,0-1.61-1.42c-.93-.76-2-2.78-3.33-2.71C119.11,95.9,119.91,97.73,120.87,98.39Z"/><path class="cls-5" d="M113.46,92.7a3.45,3.45,0,0,0,2.54.92.74.74,0,0,0,.5-.31.66.66,0,0,0-.22-.78,2.15,2.15,0,0,0-.81-.34A8.12,8.12,0,0,1,113,91c-.58-.41-1.2-1.17-2-.81C109.41,90.87,112.83,92.27,113.46,92.7Z"/><path class="cls-5" d="M127.88,100.11a13.6,13.6,0,0,0,1.79,2.22,20.32,20.32,0,0,1,2.09,2.88,6.58,6.58,0,0,0,1,1.41.43.43,0,0,0,.21.14c.28.06.41-.33.4-.61a8,8,0,0,0-2.19-4.61c-.72-.85-1.78-2.65-2.74-3.17C127,97.6,127.48,99.42,127.88,100.11Z"/></g><path class="cls-4" d="M88.59,120.93a75.21,75.21,0,0,1,7.46,8.68c1.45,2,3,4.16,5.35,4.82a8.62,8.62,0,0,0,3.47.1c2.53-.32,5.24-1.14,6.61-3.29a6.89,6.89,0,0,0-.07-6.73,17.61,17.61,0,0,0-4.71-5.18q-3-2.46-6.26-4.64a7.62,7.62,0,0,0-2.17-1.13,23.64,23.64,0,0,0-3.16-.29c-2.81-.37-6.62-4-9.41-1.78C82.21,114.23,86.59,118.94,88.59,120.93Z"/><g class="cls-33"><path class="cls-5" d="M113.76,126.94a2.47,2.47,0,0,1-1.18,3.31,4.93,4.93,0,0,1-3.86,0c-4.4-1.58-7.24-5.89-11.36-8.1a11.9,11.9,0,0,1-2.94-1.8c-1.19-1.18-1.59-3-2.92-4.06A10.77,10.77,0,0,0,88.63,115a9,9,0,0,1-5-4.93c-.86,1.47-1.75,3.06-1.65,4.76a6.73,6.73,0,0,0,.84,2.67c2.27,4.51,6.36,7.78,9.68,11.59,1.85,2.13,3.48,4.45,5.48,6.43a13.43,13.43,0,0,0,7.23,4.09,9.26,9.26,0,0,0,10.47-7.25,5.35,5.35,0,0,0-.59-4.17"/><g class="cls-34"><path class="cls-19" d="M118.17,134.2a15.15,15.15,0,0,1-16.72-3.27,10.62,10.62,0,0,0-1.53-1.47,14.29,14.29,0,0,0-2-1,10,10,0,0,1-3.82-3.55,13.17,13.17,0,0,0-1.67-2.42A9.93,9.93,0,0,0,90,120.93a33.53,33.53,0,0,1-8.6-6.6,9.94,9.94,0,0,0,2.78,7,65.42,65.42,0,0,0,5.68,5.22c4.77,4.34,8.26,9.88,11.59,15.41a23.62,23.62,0,0,0,3.8,5.21,3.37,3.37,0,0,0,2,1.06,3.8,3.8,0,0,0,2.29-.91,37.33,37.33,0,0,0,7.88-7.54c.31-.39.62-.9.4-1.34a1.22,1.22,0,0,0-.74-.54,5.41,5.41,0,0,0-2.62-.24"/></g><path class="cls-5" d="M98.48,120.12c1,.66,2,1.09,2.93,1.83.71.6,1.26,1.38,2,2a.52.52,0,0,0,.33.14c.18,0,.28-.21.33-.39a2.34,2.34,0,0,0-.59-2,10,10,0,0,0-1.61-1.43c-.93-.76-2-2.77-3.33-2.71C96.72,117.63,97.52,119.46,98.48,120.12Z"/><path class="cls-5" d="M91.07,114.43a3.43,3.43,0,0,0,2.54.92.7.7,0,0,0,.5-.31.66.66,0,0,0-.22-.78,2.15,2.15,0,0,0-.81-.34,8.12,8.12,0,0,1-2.5-1.24c-.58-.41-1.2-1.16-2-.81C87,112.6,90.44,114,91.07,114.43Z"/><path class="cls-5" d="M105.49,121.84a14.11,14.11,0,0,0,1.79,2.23,19.68,19.68,0,0,1,2.09,2.87,6.34,6.34,0,0,0,1,1.41.43.43,0,0,0,.21.14c.27.06.41-.33.4-.61a8,8,0,0,0-2.19-4.61c-.72-.85-1.78-2.65-2.74-3.16C104.59,119.33,105.09,121.15,105.49,121.84Z"/></g><path class="cls-4" d="M65.2,83.79a74.75,74.75,0,0,0-1.33,11.36c-.1,2.45-.15,5.12-1.74,7a8.8,8.8,0,0,1-2.82,2c-2.27,1.15-5,2-7.32,1a6.88,6.88,0,0,1-3.7-5.62,17.32,17.32,0,0,1,1-6.93q1.13-3.74,2.6-7.35a7.45,7.45,0,0,1,1.16-2.15,23.84,23.84,0,0,1,2.46-2c2.13-1.89,3.26-7,6.8-6.75C66.74,74.66,65.74,81,65.2,83.79Z"/><g class="cls-35"><path class="cls-5" d="M47.7,102.84a2.46,2.46,0,0,0,2.83,2.09,4.94,4.94,0,0,0,3.17-2.19c2.77-3.77,2.7-8.94,4.88-13.07A11.73,11.73,0,0,0,60,86.53c.32-1.64-.38-3.4.15-5a11,11,0,0,1,1.69-2.63A9,9,0,0,0,63.28,72a8.83,8.83,0,0,1,4,3,6.94,6.94,0,0,1,.8,2.69c.64,5-.92,10-1.54,15-.35,2.8-.4,5.63-.95,8.4a13.47,13.47,0,0,1-3.71,7.43,9.26,9.26,0,0,1-12.73-.15,5.36,5.36,0,0,1-1.84-3.8"/><g class="cls-36"><path class="cls-19" d="M48.11,111.33a15.14,15.14,0,0,0,12-12.07,11.22,11.22,0,0,1,.44-2.07,17,17,0,0,1,1.09-2,9.84,9.84,0,0,0,1.19-5.08,13,13,0,0,1,0-2.93A10.07,10.07,0,0,1,64,84.59a33.43,33.43,0,0,0,3.44-10.28,10,10,0,0,1,1.61,7.35,64.92,64.92,0,0,1-1.8,7.5c-1.52,6.27-1.31,12.82-1,19.26a23.52,23.52,0,0,1-.25,6.44,3.38,3.38,0,0,1-1.06,2,3.79,3.79,0,0,1-2.42.52,37.47,37.47,0,0,1-10.75-1.83c-.47-.16-1-.41-1.08-.9a1.24,1.24,0,0,1,.31-.85,5.44,5.44,0,0,1,2-1.68"/></g><path class="cls-5" d="M56.54,88.65c-.42,1.07-1.09,2-1.4,3.15-.25.9-.27,1.84-.53,2.73a.5.5,0,0,1-.19.31c-.16.09-.36,0-.49-.14a2.37,2.37,0,0,1-.63-2,10.86,10.86,0,0,1,.53-2.09c.35-1.14.11-3.42,1.25-4.1C56.61,85.59,57,87.56,56.54,88.65Z"/><path class="cls-5" d="M59.51,79.79A3.5,3.5,0,0,1,57.92,82a.76.76,0,0,1-.59,0,.64.64,0,0,1-.25-.77,2.06,2.06,0,0,1,.48-.73,8.23,8.23,0,0,0,1.37-2.43c.25-.66.35-1.64,1.2-1.78C61.84,76,59.78,79.07,59.51,79.79Z"/><path class="cls-5" d="M51.7,94a14.37,14.37,0,0,1-.24,2.85,19.17,19.17,0,0,0-.12,3.55,7.07,7.07,0,0,1,0,1.72.48.48,0,0,1-.1.23c-.2.2-.53,0-.68-.28a8,8,0,0,1-.76-5c.12-1.11,0-3.19.5-4.15C51,91.41,51.64,93.2,51.7,94Z"/></g><path class="cls-4" d="M90.8,109.81a74.88,74.88,0,0,0-1.33,11.37c-.1,2.45-.15,5.12-1.74,7a8.8,8.8,0,0,1-2.82,2c-2.27,1.14-5,2-7.32,1a6.85,6.85,0,0,1-3.7-5.61,17.32,17.32,0,0,1,1-6.93c.75-2.49,1.62-5,2.6-7.35a7.48,7.48,0,0,1,1.17-2.15,24,24,0,0,1,2.45-2c2.13-1.88,3.26-7,6.8-6.74C92.34,100.69,91.34,107.05,90.8,109.81Z"/><g class="cls-37"><path class="cls-5" d="M73.3,128.87A2.48,2.48,0,0,0,76.13,131a5,5,0,0,0,3.17-2.19c2.77-3.77,2.71-8.94,4.88-13.08a11.81,11.81,0,0,0,1.44-3.13c.32-1.64-.38-3.41.15-5a11,11,0,0,1,1.69-2.63A9,9,0,0,0,88.88,98c1.54.74,3.17,1.55,4,3a7,7,0,0,1,.8,2.68c.64,5-.92,10-1.54,15-.35,2.8-.4,5.63-.94,8.4a13.54,13.54,0,0,1-3.71,7.43,9.27,9.27,0,0,1-12.74-.15,5.36,5.36,0,0,1-1.84-3.8"/><g class="cls-38"><path class="cls-19" d="M73.71,137.36a15.15,15.15,0,0,0,12-12.07,11.22,11.22,0,0,1,.44-2.07,17,17,0,0,1,1.09-2,9.84,9.84,0,0,0,1.19-5.08,13,13,0,0,1,0-2.93,10.33,10.33,0,0,1,1.13-2.65A33.28,33.28,0,0,0,93,100.34a10,10,0,0,1,1.61,7.35,67.54,67.54,0,0,1-1.79,7.5c-1.53,6.27-1.32,12.81-1,19.26a23.52,23.52,0,0,1-.25,6.44,3.38,3.38,0,0,1-1.06,2,3.73,3.73,0,0,1-2.42.53,37.14,37.14,0,0,1-10.75-1.84c-.47-.15-1-.4-1.08-.89a1.23,1.23,0,0,1,.32-.86,5.4,5.4,0,0,1,2-1.67"/></g><path class="cls-5" d="M82.15,114.68a34,34,0,0,0-1.41,3.15c-.25.89-.27,1.84-.53,2.73a.48.48,0,0,1-.19.3.45.45,0,0,1-.49-.13,2.38,2.38,0,0,1-.63-2,10.28,10.28,0,0,1,.54-2.08c.34-1.15.1-3.42,1.24-4.11C82.22,111.62,82.57,113.59,82.15,114.68Z"/><path class="cls-5" d="M85.11,105.82A3.5,3.5,0,0,1,83.52,108a.76.76,0,0,1-.59,0,.66.66,0,0,1-.25-.78,2.31,2.31,0,0,1,.48-.73,8.3,8.3,0,0,0,1.38-2.42c.24-.66.34-1.64,1.19-1.78C87.44,102,85.39,105.1,85.11,105.82Z"/><path class="cls-5" d="M77.3,120a14.44,14.44,0,0,1-.24,2.85,19.11,19.11,0,0,0-.12,3.55,7,7,0,0,1,0,1.71.47.47,0,0,1-.1.24c-.2.2-.53-.05-.68-.29a8,8,0,0,1-.76-5c.12-1.11,0-3.19.5-4.16C76.64,117.44,77.24,119.22,77.3,120Z"/></g><path class="cls-4" d="M36,108.13a73.56,73.56,0,0,0-8.14-8c-1.87-1.59-3.95-3.27-4.45-5.67A8.65,8.65,0,0,1,23.56,91c.49-2.5,1.5-5.15,3.74-6.37a6.88,6.88,0,0,1,6.7.53,17.43,17.43,0,0,1,4.85,5c1.5,2.13,2.91,4.32,4.2,6.57A7.83,7.83,0,0,1,44,99a23.93,23.93,0,0,1,.07,3.17c.18,2.84,3.52,6.88,1.13,9.52C42.26,115,37.86,110.25,36,108.13Z"/><g class="cls-39"><path class="cls-5" d="M31.75,82.6a2.48,2.48,0,0,0-3.39,1,4.91,4.91,0,0,0-.23,3.84c1.28,4.5,5.39,7.63,7.31,11.89A12,12,0,0,0,37,102.35c1.1,1.27,2.92,1.8,3.85,3.19a10.93,10.93,0,0,1,1,3,9.05,9.05,0,0,0,4.57,5.36c-1.52.76-3.17,1.54-4.86,1.32a7,7,0,0,1-2.61-1c-4.34-2.58-7.32-6.88-10.9-10.46-2-2-4.19-3.78-6-5.9a13.58,13.58,0,0,1-3.58-7.5,9.27,9.27,0,0,1,8-10,5.36,5.36,0,0,1,4.12.88"/><g class="cls-40"><path class="cls-19" d="M24.8,77.71a15.15,15.15,0,0,0,2.12,16.9,10.43,10.43,0,0,1,1.36,1.62,15,15,0,0,1,.87,2.06,9.91,9.91,0,0,0,3.28,4.06,13.09,13.09,0,0,1,2.29,1.82,9.82,9.82,0,0,1,1.39,2.52,33.5,33.5,0,0,0,6,9,10,10,0,0,1-6.78-3.25,65.18,65.18,0,0,1-4.81-6c-4-5.06-9.3-8.92-14.59-12.62A23.41,23.41,0,0,1,11,89.67a3.35,3.35,0,0,1-.92-2.07,3.75,3.75,0,0,1,1.07-2.23A37.56,37.56,0,0,1,19.2,78c.41-.27.94-.55,1.37-.3a1.21,1.21,0,0,1,.48.77,5.49,5.49,0,0,1,.07,2.64"/></g><path class="cls-5" d="M37.5,98.31c-.59-1-1-2.12-1.63-3-.54-.75-1.28-1.34-1.82-2.1a.47.47,0,0,1-.12-.33c0-.18.23-.27.41-.3a2.37,2.37,0,0,1,1.95.72A10.83,10.83,0,0,1,37.6,95c.69,1,2.63,2.19,2.48,3.51C39.87,100.25,38.09,99.32,37.5,98.31Z"/><path class="cls-5" d="M42.66,106.09a3.45,3.45,0,0,1-.74-2.59.75.75,0,0,1,.35-.48.66.66,0,0,1,.76.28,2.15,2.15,0,0,1,.28.83,8.06,8.06,0,0,0,1.07,2.57c.37.61,1.08,1.29.67,2C44.22,110.26,43.06,106.75,42.66,106.09Z"/><path class="cls-5" d="M36.26,91.2a14.18,14.18,0,0,1-2.09-1.94A19.88,19.88,0,0,0,31.44,87a6.31,6.31,0,0,1-1.34-1.07.48.48,0,0,1-.12-.22c0-.28.36-.39.64-.36a7.92,7.92,0,0,1,4.44,2.51c.8.77,2.52,2,3,2.94C38.71,92.27,36.93,91.65,36.26,91.2Z"/></g><path class="cls-4" d="M55.62,55.81a74.27,74.27,0,0,0-11.27,2c-2.38.61-5,1.32-7.2.34A8.57,8.57,0,0,1,34.4,56c-1.75-1.85-3.33-4.21-3-6.73a6.86,6.86,0,0,1,4.32-5.16,17.26,17.26,0,0,1,6.93-1c2.6,0,5.2.13,7.78.38a7.78,7.78,0,0,1,2.4.5,23.7,23.7,0,0,1,2.62,1.78c2.42,1.49,7.65,1.11,8.42,4.58C64.8,54.66,58.42,55.53,55.62,55.81Z"/><g class="cls-41"><path class="cls-5" d="M32.34,44.5a2.49,2.49,0,0,0-1.19,3.32,5,5,0,0,0,3,2.41c4.4,1.57,9.34,0,13.92.92a11.83,11.83,0,0,0,3.42.49c1.67-.17,3.15-1.35,4.83-1.3a10.73,10.73,0,0,1,3,.87,9,9,0,0,0,7-.62,8.74,8.74,0,0,1-1.74,4.73,6.83,6.83,0,0,1-2.34,1.53c-4.61,2-9.85,2-14.83,2.83-2.78.47-5.51,1.24-8.32,1.51a13.46,13.46,0,0,1-8.18-1.43,9.27,9.27,0,0,1-3.51-12.24,5.37,5.37,0,0,1,3.11-2.85"/><g class="cls-42"><path class="cls-19" d="M24.32,47.33a15.16,15.16,0,0,0,15,8.06,10.79,10.79,0,0,1,2.11-.17,16,16,0,0,1,2.18.48,9.93,9.93,0,0,0,5.21-.32,13.52,13.52,0,0,1,2.82-.81,9.6,9.6,0,0,1,2.86.32,33.59,33.59,0,0,0,10.82.35,10,10,0,0,1-6.57,3.65,68.31,68.31,0,0,1-7.71.43c-6.44.34-12.65,2.41-18.72,4.58a23.7,23.7,0,0,1-6.25,1.62,3.39,3.39,0,0,1-2.22-.45,3.81,3.81,0,0,1-1.2-2.16,37.7,37.7,0,0,1-1.32-10.83c0-.49.09-1.08.54-1.29a1.2,1.2,0,0,1,.91.06A5.52,5.52,0,0,1,25,52.31"/></g><path class="cls-5" d="M48.47,48.91a33,33,0,0,0-3.42-.44c-.93,0-1.84.27-2.77.27a.5.5,0,0,1-.34-.09.45.45,0,0,1,0-.51A2.39,2.39,0,0,1,43.65,47a11,11,0,0,1,2.15-.08c1.19,0,3.3-.88,4.29,0C51.42,48.1,49.64,49,48.47,48.91Z"/><path class="cls-5" d="M57.81,49.2a3.42,3.42,0,0,1-2.54-.89.7.7,0,0,1-.19-.56.65.65,0,0,1,.67-.46,2.14,2.14,0,0,1,.84.25,8.11,8.11,0,0,0,2.71.62c.71.05,1.67-.14,2.05.64C62.11,50.35,58.58,49.27,57.81,49.2Z"/><path class="cls-5" d="M42,45.8a14.57,14.57,0,0,1-2.79.59,18.73,18.73,0,0,0-3.44.9,6.46,6.46,0,0,1-1.65.47.43.43,0,0,1-.25,0c-.25-.13-.11-.51.08-.73a7.93,7.93,0,0,1,4.62-2.17c1.09-.2,3-.92,4.12-.71C44.25,44.43,42.71,45.52,42,45.8Z"/></g><path class="cls-7" d="M76.52,60.28c2.1.73,4.18,1.54,6.21,2.45,1,.46,2.19,1.11,2.35,2.23A12,12,0,0,1,79,66.23c-2.64,0-5.27-.22-7.9-.26-1.47,0-2.72-.28-2.67-2C68.55,59.85,73.55,59.26,76.52,60.28Z"/><ellipse class="cls-2" cx="68.9" cy="74.31" rx="21.95" ry="12.77" transform="translate(-7.53 7.78) rotate(-6.12)"/><g class="cls-43"><path class="cls-9" d="M69.63,80.84A79.69,79.69,0,0,0,85.1,75.59a14.56,14.56,0,0,0,4.94-3A14.73,14.73,0,0,0,93,66.73a4.81,4.81,0,0,1,3.4,3.62,12.08,12.08,0,0,1-.09,5.18,51.29,51.29,0,0,1-4.72,14,8.16,8.16,0,0,1-2.27,3c-2.15,1.56-5.13.9-7.71.28a96.19,96.19,0,0,0-31.45-2.23c-2.29.22-4.79.48-6.75-.73C38.33,86.72,39.46,75.65,46.61,77c3.58.68,6.51,3.28,10.2,4A32.74,32.74,0,0,0,69.63,80.84Z"/><path class="cls-9" d="M69.79,62.76a3.54,3.54,0,0,1,1.33-.11,1.22,1.22,0,0,1,1,.78,12,12,0,0,1-4.42,1.48,22.9,22.9,0,0,1-4.11.53c-.66,0-1.31,0-2,0a18.44,18.44,0,0,0-3,.38c-.14,0,.27-.65.31-.69.2-.18.75-.17,1-.23,1.1-.27,2.22-.47,3.32-.71Z"/><path class="cls-9" d="M72.92,74.81c1.28-.36,2.65-.85,3.91-.41.36.13.75.42.72.81a.89.89,0,0,1-.27.49c-1.07,1.2-2.81,1.46-4.41,1.57-1,.07-7.61.5-7.61-1C65.26,75.64,71.91,75.09,72.92,74.81Z"/><path class="cls-9" d="M87.58,69.38c.14,0,.34,0,.39.11a.31.31,0,0,1,0,.23,2.47,2.47,0,0,1-.75.94c-.45.34-3.27,1.76-3.4.45C83.71,70.29,87,69.49,87.58,69.38Z"/><path class="cls-9" d="M56.32,70.18a88.61,88.61,0,0,1,10.47-1.86c.71-.07,1.66.05,1.8.75a1.17,1.17,0,0,1-.3.92c-1.74,2.29-5.72,1.11-7.89,3l1.89.78a3.75,3.75,0,0,1-3,1.62c-1.57,0-3.07-1-4.62-.73-1,.18-2.15.88-2.93.22A5.93,5.93,0,0,1,55,72.75c-.92.1-4.45,1.14-3.37-.69C52.43,70.78,55,70.47,56.32,70.18Z"/><path class="cls-9" d="M80.12,67a3,3,0,0,1,1.48-.12A1,1,0,0,1,82.38,68a1.29,1.29,0,0,1-.35.55,8.85,8.85,0,0,1-5.19,2.71,18.38,18.38,0,0,0,1.31-1.34c-.69-.76-3,0-2.36-1.44C76.23,67.41,79.14,67.21,80.12,67Z"/><path class="cls-10" d="M45.24,76.84A18.43,18.43,0,0,0,55.6,83.19a23.22,23.22,0,0,1,5.12,1.25,14.54,14.54,0,0,0,2.74,1.29,7.19,7.19,0,0,0,2.49,0l8.91-1.14a16,16,0,0,0,5.08-1.23c2.6-1.27,4.35-3.86,6.92-5.19a22.49,22.49,0,0,0,2.65-1.31c1.54-1.06,2.65-3.07,4.51-3.1A4.36,4.36,0,0,1,94.46,77l-1.21,9.17a1.07,1.07,0,0,1-1,1.13c-4.41,1.21-9,1.63-13.42,2.8-4,1.06-7.88,2.74-12,3.59a30.58,30.58,0,0,1-20.94-3.22,12.24,12.24,0,0,1-3.87-3.08,5.73,5.73,0,0,1-1.25-4.65,3.82,3.82,0,0,1,3.46-3"/></g><path class="cls-7" d="M47,76.21l.87-3.69A4.49,4.49,0,0,0,48,71.43c0-.39-.11-.78-.1-1.17a3,3,0,0,1,1.48-2.18c.77-.5,1.64-.82,2.38-1.35.37-.26.71-.58,1.09-.82a3.64,3.64,0,0,1,2.84-.42A15,15,0,0,1,52.61,69a6,6,0,0,0-2.1,4.08,5.22,5.22,0,0,1,0,1.58c-.16.5-.77.93-1.21.64"/><ellipse class="cls-11" cx="54.86" cy="68.03" rx="2.35" ry="0.84" transform="translate(-15.78 16.58) rotate(-15.05)"/><ellipse class="cls-11" cx="76.86" cy="63.44" rx="0.84" ry="2.35" transform="translate(-2.09 124.26) rotate(-77.15)"/><path class="cls-7" d="M112.88,62.9q2.33,2.4,4.44,5c.71.88,1.45,2,1.08,3a12,12,0,0,1-6-1.62c-2.34-1.22-4.6-2.58-6.94-3.81-1.3-.68-2.29-1.48-1.47-3C106,58.92,110.69,60.65,112.88,62.9Z"/><ellipse class="cls-2" cx="99.75" cy="71.97" rx="12.77" ry="21.95" transform="translate(-2.87 139.79) rotate(-69.27)"/><g class="cls-44"><path class="cls-9" d="M97.45,78.13a79.9,79.9,0,0,0,16.17,2.3,14.43,14.43,0,0,0,5.75-.41,14.81,14.81,0,0,0,5.3-3.93,4.83,4.83,0,0,1,1.39,4.77,12,12,0,0,1-2.42,4.58,51.35,51.35,0,0,1-10.51,10.31,8.31,8.31,0,0,1-3.4,1.69c-2.62.42-5-1.51-7-3.24A96.18,96.18,0,0,0,75.67,78c-2.14-.84-4.48-1.74-5.69-3.7-3.11-5.08,2.9-14.44,8.66-10,2.88,2.23,4.32,5.87,7.28,8.2A33,33,0,0,0,97.45,78.13Z"/><path class="cls-9" d="M105.76,62.07a3.59,3.59,0,0,1,1.23.5,1.2,1.2,0,0,1,.54,1.15,12,12,0,0,1-4.61-.68A22.41,22.41,0,0,1,99,61.66c-.58-.29-1.14-.63-1.74-.91a18.79,18.79,0,0,0-2.81-1c-.14,0,.53-.46.59-.48.26-.07.74.19,1,.25,1.1.25,2.19.57,3.28.86Z"/><path class="cls-9" d="M103.11,74.23c1.3.26,2.75.44,3.67,1.4a.93.93,0,0,1,.28,1.05,1,1,0,0,1-.46.32c-1.5.58-3.17,0-4.65-.6-1-.4-7-3-6.33-4.34C95.9,71.52,102.08,74,103.11,74.23Z"/><path class="cls-9" d="M118.64,76c.14,0,.31.13.3.28a.33.33,0,0,1-.14.19,2.32,2.32,0,0,1-1.09.5c-.55.1-3.7.09-3.23-1.14C114.78,75.08,118.05,75.84,118.64,76Z"/><path class="cls-9" d="M90.38,62.61a85.4,85.4,0,0,1,10.19,3.07c.67.26,1.46.79,1.27,1.48a1.23,1.23,0,0,1-.69.69c-2.59,1.25-5.6-1.6-8.39-.89L94.1,68.5a3.72,3.72,0,0,1-3.46.07c-1.4-.72-2.28-2.3-3.79-2.74-1-.28-2.32-.18-2.72-1.13a6,6,0,0,1,4-.38c-.87-.33-4.49-1-2.7-2.14C86.65,61.38,89.09,62.27,90.38,62.61Z"/><path class="cls-9" d="M113.08,70.49a3,3,0,0,1,1.37.56,1,1,0,0,1,.2,1.34,1.47,1.47,0,0,1-.57.33,8.89,8.89,0,0,1-5.85.08,15.4,15.4,0,0,0,1.77-.61c-.26-1-2.62-1.37-1.45-2.35C109.41,69.13,112.09,70.27,113.08,70.49Z"/><path class="cls-10" d="M77.49,63.55a18.51,18.51,0,0,0,6.38,10.34,23.14,23.14,0,0,1,4,3.43,14.13,14.13,0,0,0,1.87,2.38A7,7,0,0,0,92,80.81l8.46,3a16.15,16.15,0,0,0,5.1,1.2c2.89,0,5.62-1.48,8.51-1.51a24.38,24.38,0,0,0,3,0c1.85-.25,3.74-1.54,5.43-.73a4.41,4.41,0,0,1-1.1,3.12l-5.22,7.64a1.45,1.45,0,0,1-.53.54,1.4,1.4,0,0,1-.86,0c-4.48-.9-8.77-2.6-13.24-3.56-4.07-.87-8.27-1.11-12.29-2.2A30.56,30.56,0,0,1,72,76a12.35,12.35,0,0,1-2.06-4.5,5.73,5.73,0,0,1,1-4.71,3.8,3.8,0,0,1,4.46-1.15"/></g><path class="cls-7" d="M79.33,63.77l2.44-2.9a4.33,4.33,0,0,0,.64-.9c.17-.35.25-.75.44-1.09a2.91,2.91,0,0,1,2.31-1.27c.9-.11,1.83,0,2.73-.14.45-.06.89-.19,1.34-.23a3.56,3.56,0,0,1,2.72.91A14.92,14.92,0,0,1,87.6,59.9a6,6,0,0,0-3.72,2.69,4.91,4.91,0,0,1-.73,1.4c-.37.39-1.1.49-1.37,0"/><ellipse class="cls-11" cx="90.06" cy="60.02" rx="0.84" ry="2.35" transform="translate(12.88 135.9) rotate(-78.2)"/><ellipse class="cls-11" cx="111.75" cy="65.87" rx="0.84" ry="2.35" transform="translate(-10.32 109.77) rotate(-50.29)"/><path class="cls-7" d="M117,97.73c1.55,1.59,3,3.26,4.44,5,.71.87,1.44,2,1.08,3a11.94,11.94,0,0,1-6-1.63c-2.34-1.22-4.6-2.58-6.94-3.8-1.3-.68-2.3-1.48-1.47-3C110.06,93.75,114.79,95.48,117,97.73Z"/><ellipse class="cls-2" cx="103.85" cy="106.8" rx="12.77" ry="21.95" transform="matrix(0.35, -0.94, 0.94, 0.35, -32.8, 166.12)"/><g class="cls-45"><path class="cls-9" d="M101.55,113a79.8,79.8,0,0,0,16.17,2.3,14.43,14.43,0,0,0,5.75-.41,14.69,14.69,0,0,0,5.29-3.93,4.81,4.81,0,0,1,1.4,4.77,12,12,0,0,1-2.43,4.58,51.1,51.1,0,0,1-10.51,10.31,8.27,8.27,0,0,1-3.39,1.69c-2.63.42-5-1.52-7-3.24a96,96,0,0,0-27-16.19c-2.14-.84-4.48-1.74-5.69-3.7C71,104.06,77,94.7,82.73,99.15c2.89,2.23,4.33,5.87,7.29,8.2A33,33,0,0,0,101.55,113Z"/><path class="cls-9" d="M109.85,96.9a3.56,3.56,0,0,1,1.24.5,1.22,1.22,0,0,1,.54,1.15,12,12,0,0,1-4.61-.68,22.41,22.41,0,0,1-3.91-1.38c-.59-.29-1.15-.63-1.74-.92a19.93,19.93,0,0,0-2.81-1c-.14,0,.53-.46.59-.48.26-.07.74.19,1,.25,1.1.25,2.19.57,3.28.86Z"/><path class="cls-9" d="M107.2,109.06c1.31.26,2.75.44,3.68,1.4a.91.91,0,0,1,.27,1.05.9.9,0,0,1-.46.32c-1.49.58-3.17,0-4.64-.6-1-.4-7-3-6.33-4.34C100,106.35,106.18,108.86,107.2,109.06Z"/><path class="cls-9" d="M122.74,110.84c.14,0,.31.13.29.28s-.07.14-.13.19a2.32,2.32,0,0,1-1.09.5c-.55.1-3.71.09-3.23-1.14C118.87,109.91,122.15,110.67,122.74,110.84Z"/><path class="cls-9" d="M94.48,97.44a85.4,85.4,0,0,1,10.19,3.07c.67.26,1.46.79,1.27,1.48a1.23,1.23,0,0,1-.69.69c-2.59,1.25-5.6-1.6-8.39-.89l1.33,1.54a3.69,3.69,0,0,1-3.45.07c-1.4-.72-2.28-2.3-3.79-2.74-1-.29-2.33-.18-2.72-1.13a6,6,0,0,1,4-.38c-.86-.33-4.48-1-2.69-2.14C90.74,96.21,93.19,97.1,94.48,97.44Z"/><path class="cls-9" d="M117.18,105.32a2.78,2.78,0,0,1,1.37.56,1,1,0,0,1,.2,1.34,1.47,1.47,0,0,1-.57.33,8.89,8.89,0,0,1-5.85.08,17.58,17.58,0,0,0,1.77-.61c-.27-1-2.63-1.37-1.45-2.35C113.51,104,116.18,105.1,117.18,105.32Z"/><path class="cls-10" d="M81.59,98.38A18.55,18.55,0,0,0,88,108.72a23.2,23.2,0,0,1,4,3.43,14.92,14.92,0,0,0,1.86,2.38,6.88,6.88,0,0,0,2.24,1.1l8.46,3a16.16,16.16,0,0,0,5.09,1.2c2.89,0,5.63-1.48,8.52-1.51a24.38,24.38,0,0,0,3,0c1.85-.25,3.74-1.54,5.42-.73a4.35,4.35,0,0,1-1.09,3.12l-5.22,7.64a1.4,1.4,0,0,1-.54.54,1.37,1.37,0,0,1-.85,0c-4.48-.9-8.77-2.61-13.24-3.56-4.07-.87-8.27-1.11-12.29-2.2a30.53,30.53,0,0,1-17.23-12.33,12.54,12.54,0,0,1-2.07-4.5,5.77,5.77,0,0,1,1-4.71,3.79,3.79,0,0,1,4.46-1.15"/></g><path class="cls-7" d="M83.43,98.6l2.44-2.9a4.33,4.33,0,0,0,.64-.9c.17-.35.25-.75.44-1.09a2.91,2.91,0,0,1,2.3-1.27c.91-.11,1.83,0,2.74-.14.45-.06.89-.19,1.34-.23a3.57,3.57,0,0,1,2.72.9,14.78,14.78,0,0,1-4.35,1.76A6,6,0,0,0,88,97.42a4.91,4.91,0,0,1-.73,1.4c-.37.39-1.11.48-1.37,0"/><ellipse class="cls-11" cx="94.16" cy="94.85" rx="0.84" ry="2.35" transform="translate(-17.95 167.62) rotate(-78.2)"/><ellipse class="cls-11" cx="115.85" cy="100.7" rx="0.84" ry="2.35" transform="translate(-35.63 125.5) rotate(-50.29)"/><path class="cls-7" d="M44.7,104.7c-2.12.71-4.2,1.52-6.24,2.41-1,.45-2.19,1.1-2.35,2.22a12,12,0,0,0,6.1,1.31c2.63,0,5.26-.2,7.9-.21,1.47,0,2.72-.27,2.67-2C52.67,104.32,47.67,103.7,44.7,104.7Z"/><ellipse class="cls-2" cx="52.22" cy="118.78" rx="12.77" ry="21.95" transform="translate(-71.69 157.26) rotate(-83.52)"/><g class="cls-46"><path class="cls-9" d="M51.46,125.3A79.48,79.48,0,0,1,36,120a14.72,14.72,0,0,1-4.93-3,14.89,14.89,0,0,1-2.91-5.91,4.8,4.8,0,0,0-3.42,3.6,12.08,12.08,0,0,0,.06,5.18,51.34,51.34,0,0,0,4.63,14,8.29,8.29,0,0,0,2.25,3.06c2.14,1.57,5.12.93,7.72.32a96.13,96.13,0,0,1,31.45-2c2.3.23,4.79.51,6.76-.69,5.08-3.09,4-14.16-3.13-12.84-3.58.66-6.53,3.25-10.23,4A32.89,32.89,0,0,1,51.46,125.3Z"/><path class="cls-9" d="M51.41,107.22a3.76,3.76,0,0,0-1.33-.12,1.21,1.21,0,0,0-1,.78,12,12,0,0,0,4.41,1.5,22.72,22.72,0,0,0,4.1.56c.66,0,1.31,0,2,0a19.86,19.86,0,0,1,3,.4c.14,0-.27-.65-.31-.69-.2-.19-.75-.17-1-.24-1.1-.27-2.21-.49-3.32-.73Z"/><path class="cls-9" d="M48.2,119.25c-1.28-.37-2.64-.87-3.9-.44-.37.13-.76.42-.73.81a1,1,0,0,0,.26.5c1.06,1.2,2.81,1.47,4.41,1.59,1,.08,7.61.55,7.61-1C55.85,120.13,49.21,119.54,48.2,119.25Z"/><path class="cls-9" d="M33.58,113.73c-.15,0-.34,0-.39.11a.27.27,0,0,0,0,.23,2.45,2.45,0,0,0,.74,1c.44.33,3.25,1.77,3.39.46C37.44,114.67,34.18,113.85,33.58,113.73Z"/><path class="cls-9" d="M64.83,114.73a86.66,86.66,0,0,0-10.46-1.93c-.71-.07-1.66,0-1.8.74a1.17,1.17,0,0,0,.29.92c1.73,2.3,5.71,1.15,7.87,3.05l-1.89.76a3.69,3.69,0,0,0,3,1.64c1.57,0,3.08-1,4.62-.7,1,.2,2.15.9,2.94.24a6,6,0,0,0-3.34-2.15c.92.11,4.44,1.17,3.37-.67C68.72,115.35,66.14,115,64.83,114.73Z"/><path class="cls-9" d="M41.05,111.36a2.9,2.9,0,0,0-1.48-.13,1,1,0,0,0-.79,1.1,1.46,1.46,0,0,0,.36.56,8.84,8.84,0,0,0,5.16,2.74A16.38,16.38,0,0,1,43,114.28c.68-.76,3,0,2.36-1.43C44.93,111.83,42,111.62,41.05,111.36Z"/><path class="cls-10" d="M75.87,121.46a18.49,18.49,0,0,1-10.4,6.28A23.39,23.39,0,0,0,60.34,129a14.54,14.54,0,0,1-2.75,1.27,7.19,7.19,0,0,1-2.49,0L46.2,129a16.21,16.21,0,0,1-5.07-1.26c-2.59-1.29-4.33-3.89-6.89-5.24a21.74,21.74,0,0,1-2.64-1.33c-1.53-1.06-2.63-3.07-4.5-3.12a4.41,4.41,0,0,0-.45,3.27l1.15,9.18a1.07,1.07,0,0,0,1,1.13c4.4,1.24,9,1.69,13.41,2.88,4,1.09,7.86,2.8,11.94,3.67a30.61,30.61,0,0,0,21-3.09A12.6,12.6,0,0,0,79,132a5.78,5.78,0,0,0,1.27-4.65,3.8,3.8,0,0,0-3.44-3.07"/></g><path class="cls-7" d="M74.13,120.81l-.84-3.69a4,4,0,0,1-.16-1.09c0-.39.12-.78.11-1.17a2.93,2.93,0,0,0-1.47-2.19c-.76-.5-1.63-.83-2.37-1.37-.37-.26-.7-.58-1.09-.82a3.61,3.61,0,0,0-2.83-.44,15.21,15.21,0,0,0,3.06,3.56,5.94,5.94,0,0,1,2.08,4.09,5.23,5.23,0,0,0,0,1.58c.15.51.76.93,1.21.65"/><ellipse class="cls-11" cx="66.3" cy="112.58" rx="0.84" ry="2.35" transform="translate(-59.84 146.6) rotate(-74.6)"/><ellipse class="cls-11" cx="44.34" cy="107.86" rx="2.35" ry="0.84" transform="translate(-22.29 12.15) rotate(-12.5)"/></g></svg>