<svg id="Layer_3" data-name="Layer 3" xmlns="http://www.w3.org/2000/svg" xmlns:xlink="http://www.w3.org/1999/xlink" viewBox="0 0 260 168"><defs><style>.cls-1{fill:none;}.cls-2{fill:#ffecde;}.cls-3{fill:#61b51f;}.cls-4{fill:#f4ddce;}.cls-5{fill:#a46121;}.cls-6{clip-path:url(#clip-path);}.cls-7{fill:#c48b4d;}.cls-8{fill:#dfaa69;}.cls-9{fill:#905a27;}.cls-10{clip-path:url(#clip-path-2);}.cls-11{fill:#7b470f;}.cls-12{fill:#efcbb4;}.cls-13{clip-path:url(#clip-path-3);}.cls-14{fill:#58a316;}.cls-15{fill:#a8f447;}.cls-16{fill:#70472b;}.cls-17{clip-path:url(#clip-path-4);}.cls-18{fill:#f7e0d0;opacity:0.35;}.cls-19{clip-path:url(#clip-path-5);}.cls-20{clip-path:url(#clip-path-6);}.cls-21{clip-path:url(#clip-path-7);}.cls-22{clip-path:url(#clip-path-8);}.cls-23{clip-path:url(#clip-path-9);}.cls-24{clip-path:url(#clip-path-10);}.cls-25{clip-path:url(#clip-path-11);}.cls-26{clip-path:url(#clip-path-12);}</style><clipPath id="clip-path"><path id="SVGID" class="cls-1" d="M25.48,135.47c0,6.54,7.51,13.95,30.78,13.95C79,149.42,87,142,87,135.47S25.48,128.93,25.48,135.47Z"/></clipPath><clipPath id="clip-path-2"><ellipse id="SVGID-2" data-name="SVGID" class="cls-1" cx="56.34" cy="134.92" rx="27.36" ry="8.79"/></clipPath><clipPath id="clip-path-3"><path class="cls-3" d="M32.87,132a4.69,4.69,0,0,0-1,.28,1.62,1.62,0,0,1-1,0,.4.4,0,0,1-.28-.28.35.35,0,0,1,.21-.31,1,1,0,0,1,.39-.08,4.77,4.77,0,0,0,1.29-.31,8.69,8.69,0,0,1-1.35,0,1.12,1.12,0,0,1-.4-.1.38.38,0,0,1-.2-.34.36.36,0,0,1,.3-.3,1.19,1.19,0,0,1,.46,0,5,5,0,0,0,1.22-.06,2.55,2.55,0,0,0-1.07-.14c-.37,0-.79-.17-.88-.52a.17.17,0,0,1,0-.1.34.34,0,0,1,.08-.09,1.15,1.15,0,0,1,.8-.07l1.4.2c-.4-.28-.93-.23-1.38-.41-.24-.09-.48-.33-.4-.57a.46.46,0,0,1,.37-.26,1.25,1.25,0,0,1,.47.07l1.28.37a2.05,2.05,0,0,0,.54.1,2.61,2.61,0,0,0,.56-.08,3.63,3.63,0,0,1,1.14,0,.22.22,0,0,1,.11.05s0,.08,0,.13c-.09.69-.19,1.38-.29,2.07a2,2,0,0,1-.14.54,5.27,5.27,0,0,1-.46.7.43.43,0,0,1-.45.18,2.32,2.32,0,0,1-.61-.21,2,2,0,0,1-.37-.21A3.69,3.69,0,0,0,32.87,132Z"/></clipPath><clipPath id="clip-path-4"><path class="cls-2" d="M55.49,134.51a59,59,0,0,1-16.36.6,11.59,11.59,0,0,1-2.8-.56,4.32,4.32,0,0,1-2.23-1.71,3.39,3.39,0,0,1,.32-3.94c1-.89,2.93-1.12,4.22-1.18a23.24,23.24,0,0,1,4.16.31c1.06.14,2.12.3,3.19.46a21.16,21.16,0,0,1,2.22.42s5.08.82,6.43,1.28,2.69,1,2.76,2.57S55.49,134.51,55.49,134.51Z"/></clipPath><clipPath id="clip-path-5"><path class="cls-3" d="M42.59,138.39a4.39,4.39,0,0,0-1,.4,1.7,1.7,0,0,1-1,.17.44.44,0,0,1-.31-.25.35.35,0,0,1,.17-.34,1.15,1.15,0,0,1,.37-.12,4.93,4.93,0,0,0,1.25-.46,10,10,0,0,1-1.34.15,1.15,1.15,0,0,1-.41-.05.38.38,0,0,1-.24-.31.37.37,0,0,1,.27-.34,1.36,1.36,0,0,1,.45-.06A4.51,4.51,0,0,0,42,137a2.66,2.66,0,0,0-1.09,0c-.36,0-.8-.07-.93-.41a.12.12,0,0,1,0-.1.16.16,0,0,1,.07-.09,1.18,1.18,0,0,1,.79-.18l1.4,0c-.42-.23-.94-.12-1.41-.24-.25-.07-.51-.27-.46-.53a.44.44,0,0,1,.33-.3,1.23,1.23,0,0,1,.47,0l1.32.21a2,2,0,0,0,.55,0,3.41,3.41,0,0,0,.55-.14,3.31,3.31,0,0,1,1.13-.14.14.14,0,0,1,.11,0,.18.18,0,0,1,0,.13c0,.7,0,1.39,0,2.09a1.66,1.66,0,0,1-.07.55,5.22,5.22,0,0,1-.37.75.45.45,0,0,1-.43.24,2.41,2.41,0,0,1-.63-.15,2.08,2.08,0,0,1-.39-.15S42.61,138.38,42.59,138.39Z"/></clipPath><clipPath id="clip-path-6"><path class="cls-4" d="M65.34,138.15a58.38,58.38,0,0,1-16.17,2.54,10.91,10.91,0,0,1-2.85-.22A4.37,4.37,0,0,1,43.9,139a3.4,3.4,0,0,1-.15-3.95c.91-1,2.78-1.46,4-1.67a22.33,22.33,0,0,1,4.17-.19c1.07,0,2.15,0,3.22.08a21.44,21.44,0,0,1,2.26.15s5.14.21,6.53.51,2.79.64,3.05,2.23S65.34,138.15,65.34,138.15Z"/></clipPath><clipPath id="clip-path-7"><path class="cls-3" d="M47.85,127.48a4.74,4.74,0,0,0-1.06.08,1.59,1.59,0,0,1-1-.14.39.39,0,0,1-.21-.33.32.32,0,0,1,.25-.27,1.34,1.34,0,0,1,.4,0,5,5,0,0,0,1.33-.06,8.33,8.33,0,0,1-1.32-.26,1,1,0,0,1-.38-.17.37.37,0,0,1-.14-.37.36.36,0,0,1,.36-.24,1.42,1.42,0,0,1,.45.08,4.48,4.48,0,0,0,1.21.17,2.45,2.45,0,0,0-1-.33c-.36-.09-.75-.32-.77-.68a.16.16,0,0,1,0-.1s.06,0,.09-.07a1.2,1.2,0,0,1,.81.07l1.33.46c-.33-.34-.87-.4-1.27-.65-.22-.14-.41-.42-.29-.64a.43.43,0,0,1,.41-.19,1.37,1.37,0,0,1,.44.16l1.19.59a2.1,2.1,0,0,0,.52.21,3.62,3.62,0,0,0,.57,0,3.58,3.58,0,0,1,1.12.21s.07,0,.09.07a.19.19,0,0,1,0,.13c-.22.66-.44,1.32-.67,2a1.45,1.45,0,0,1-.24.5,5.49,5.49,0,0,1-.57.61.45.45,0,0,1-.48.1,2.12,2.12,0,0,1-.56-.33,1.7,1.7,0,0,1-.33-.27A2.35,2.35,0,0,0,47.85,127.48Z"/></clipPath><clipPath id="clip-path-8"><path class="cls-2" d="M69.62,134.09a58.47,58.47,0,0,1-16.19-2.44,11.22,11.22,0,0,1-2.64-1.06,4.34,4.34,0,0,1-1.88-2.09,3.36,3.36,0,0,1,1-3.81c1.17-.7,3.09-.57,4.36-.39a22.73,22.73,0,0,1,4,1.08c1,.34,2,.68,3,1a21.44,21.44,0,0,1,2.11.82s4.84,1.74,6.08,2.45,2.47,1.45,2.24,3S69.62,134.09,69.62,134.09Z"/></clipPath><clipPath id="clip-path-9"><path class="cls-3" d="M82.25,134.7a4.65,4.65,0,0,1,1,.08,1.64,1.64,0,0,0,1-.14.4.4,0,0,0,.22-.33.32.32,0,0,0-.26-.27,1,1,0,0,0-.39,0,4.56,4.56,0,0,1-1.33-.07,8.53,8.53,0,0,0,1.32-.25,1,1,0,0,0,.37-.17.37.37,0,0,0,.14-.37.38.38,0,0,0-.35-.25,1.13,1.13,0,0,0-.45.09,4.6,4.6,0,0,1-1.22.17,2.61,2.61,0,0,1,1-.34c.35-.08.74-.31.77-.67a.2.2,0,0,0,0-.11.15.15,0,0,0-.09-.06,1.12,1.12,0,0,0-.8.07l-1.34.46c.34-.35.87-.4,1.28-.65.22-.14.41-.42.28-.64a.42.42,0,0,0-.4-.19,1.21,1.21,0,0,0-.45.16l-1.19.59A2.28,2.28,0,0,1,81,132a3.62,3.62,0,0,1-.57,0,3.58,3.58,0,0,0-1.12.21s-.08,0-.1.07a.15.15,0,0,0,0,.13c.22.66.44,1.32.67,2a1.64,1.64,0,0,0,.23.5,4.71,4.71,0,0,0,.58.6.45.45,0,0,0,.48.11,2.17,2.17,0,0,0,.55-.33A1.44,1.44,0,0,0,82,135,3.58,3.58,0,0,1,82.25,134.7Z"/></clipPath><clipPath id="clip-path-10"><path class="cls-2" d="M60.47,141.31a59.17,59.17,0,0,0,16.19-2.44,11.29,11.29,0,0,0,2.65-1.06,4.34,4.34,0,0,0,1.88-2.09c.45-1.19.14-3.12-1-3.82s-3.09-.56-4.37-.38a23.47,23.47,0,0,0-4,1.07l-3,1c-.71.25-1.42.51-2.11.83,0,0-4.84,1.74-6.08,2.45s-2.46,1.45-2.23,3S60.47,141.31,60.47,141.31Z"/></clipPath><clipPath id="clip-path-11"><path class="cls-3" d="M33.07,139.23a4.58,4.58,0,0,0-1,.24,1.55,1.55,0,0,1-1,0,.38.38,0,0,1-.27-.29.35.35,0,0,1,.21-.31,1.27,1.27,0,0,1,.39-.06,4.79,4.79,0,0,0,1.3-.28,7.48,7.48,0,0,1-1.34-.05.92.92,0,0,1-.4-.11.35.35,0,0,1-.19-.34.38.38,0,0,1,.31-.3,1.42,1.42,0,0,1,.46,0,4.16,4.16,0,0,0,1.22,0,2.56,2.56,0,0,0-1.07-.16c-.37,0-.78-.19-.87-.55a.17.17,0,0,1,0-.1.2.2,0,0,1,.08-.08,1.18,1.18,0,0,1,.81-.06L33,137c-.39-.28-.92-.25-1.37-.44-.23-.1-.47-.34-.38-.59a.42.42,0,0,1,.38-.24,1.07,1.07,0,0,1,.46.08l1.27.4a1.93,1.93,0,0,0,.54.12,2.6,2.6,0,0,0,.56-.06,3.63,3.63,0,0,1,1.14,0,.22.22,0,0,1,.11,0,.2.2,0,0,1,0,.13c-.11.69-.23,1.38-.35,2.06a1.67,1.67,0,0,1-.15.54,4.63,4.63,0,0,1-.48.68.44.44,0,0,1-.45.18,2.09,2.09,0,0,1-.6-.24,1.68,1.68,0,0,1-.37-.21S33.1,139.22,33.07,139.23Z"/></clipPath><clipPath id="clip-path-12"><path class="cls-2" d="M55.61,142.34a58.6,58.6,0,0,1-16.36.13,11.07,11.07,0,0,1-2.79-.63,4.43,4.43,0,0,1-2.18-1.77c-.63-1.1-.62-3.06.43-3.93s3-1,4.25-1.06a23.29,23.29,0,0,1,4.16.42l3.17.55c.74.14,1.48.28,2.21.49,0,0,5,1,6.39,1.46s2.66,1.05,2.68,2.66S55.61,142.34,55.61,142.34Z"/></clipPath></defs><path class="cls-5" d="M25.48,135.47c0,6.54,7.51,13.95,30.78,13.95C79,149.42,87,142,87,135.47S25.48,128.93,25.48,135.47Z"/><g class="cls-6"><path class="cls-7" d="M57.1,147.22a65.62,65.62,0,0,0,13.4-1.34,52,52,0,0,0,13.15-4.57,27.15,27.15,0,0,0,4.45-2.76l-.4-.49h0a27.09,27.09,0,0,1-4.37,2.71,51,51,0,0,1-13,4.5,69,69,0,0,1-21.48.86A104.6,104.6,0,0,1,19,137.91l-.24.58a104.88,104.88,0,0,0,30,8.27A75.46,75.46,0,0,0,57.1,147.22Z"/><path class="cls-7" d="M57.1,149a65.63,65.63,0,0,0,13.4-1.33,52.81,52.81,0,0,0,13.15-4.57,27.15,27.15,0,0,0,4.45-2.76l-.4-.49h0a28,28,0,0,1-4.37,2.71,51.38,51.38,0,0,1-13,4.5,69,69,0,0,1-21.48.86A104.31,104.31,0,0,1,19,139.66l-.24.58a104.92,104.92,0,0,0,30,8.28A78,78,0,0,0,57.1,149Z"/><path class="cls-7" d="M64,157.65a55.27,55.27,0,0,0,2.65-25.48l-.93.15a52,52,0,0,1,.45,8,50.26,50.26,0,0,1-3,17Z"/><path class="cls-7" d="M68.72,157.77a55.27,55.27,0,0,0,2.65-25.48l-.93.15a53.59,53.59,0,0,1,.45,8,50.26,50.26,0,0,1-3,17Z"/><path class="cls-7" d="M59.8,158.17a51.23,51.23,0,0,0,3.11-17.35,51.62,51.62,0,0,0-.46-8.13l-.93.15a52.2,52.2,0,0,1,.45,8,50.16,50.16,0,0,1-3,17Z"/><path class="cls-7" d="M61.79,157.94a51,51,0,0,0,3.09-17.24,54.09,54.09,0,0,0-.46-8.08l-.31,0a52.76,52.76,0,0,1,.45,8,50.45,50.45,0,0,1-3.07,17.12Z"/><path class="cls-7" d="M66.34,157a50.83,50.83,0,0,0,3.1-17.24,54.09,54.09,0,0,0-.46-8.08l-.31.05a52.76,52.76,0,0,1,.45,8,50.45,50.45,0,0,1-3.07,17.12Z"/><path class="cls-7" d="M73.28,157.89a55.27,55.27,0,0,0,2.65-25.48l-.94.15a51.11,51.11,0,0,1,.46,8,50.5,50.5,0,0,1-3,17Z"/><path class="cls-7" d="M70.9,157.1a54.84,54.84,0,0,0,2.63-25.32l-.31.05A54.37,54.37,0,0,1,70.61,157Z"/><path class="cls-7" d="M78.19,156.93a51.07,51.07,0,0,0,3.12-17.35,52.13,52.13,0,0,0-.47-8.13l-.93.15a54.24,54.24,0,0,1-2.6,25Z"/><path class="cls-7" d="M75.82,156.14a54.84,54.84,0,0,0,2.63-25.32l-.31.05a51.87,51.87,0,0,1,.46,8A50.45,50.45,0,0,1,75.53,156Z"/><path class="cls-7" d="M83.71,154.86a51.31,51.31,0,0,0,1.84-17.54,52.7,52.7,0,0,0-1.06-8.07l-.92.22a51.36,51.36,0,0,1,1,7.93,50.29,50.29,0,0,1-1.8,17.18Z"/><path class="cls-7" d="M81.29,154.24a51,51,0,0,0,1.82-17.42,51.44,51.44,0,0,0-1-8l-.31.07A54.24,54.24,0,0,1,81,154.15Z"/><path class="cls-7" d="M47.5,157.65l.88-.34a50.36,50.36,0,0,1-3.05-17,51.57,51.57,0,0,1,.45-8l-.93-.15a52,52,0,0,0-.47,8.13A51.07,51.07,0,0,0,47.5,157.65Z"/><path class="cls-7" d="M42.82,157.77l.88-.34a50.36,50.36,0,0,1-3.05-17,53.15,53.15,0,0,1,.45-8l-.93-.15a55.27,55.27,0,0,0,2.65,25.48Z"/><path class="cls-7" d="M51,158.34l.9-.29a58.92,58.92,0,0,1-2.41-17.24,59.84,59.84,0,0,1,.49-8l-.93-.14a59.46,59.46,0,0,0-.51,8.09A60.32,60.32,0,0,0,51,158.34Z"/><path class="cls-7" d="M49.75,157.94l.29-.12A50.75,50.75,0,0,1,47,140.69a51.8,51.8,0,0,1,.46-8l-.31,0a54.84,54.84,0,0,0,2.63,25.32Z"/><path class="cls-7" d="M45.19,157l.3-.12a50.51,50.51,0,0,1-3.07-17.13,52.69,52.69,0,0,1,.45-8l-.31-.05a54.09,54.09,0,0,0-.46,8.08A51,51,0,0,0,45.19,157Z"/><path class="cls-7" d="M38.26,157.89l.88-.34a50.26,50.26,0,0,1-3-17,53.59,53.59,0,0,1,.45-8l-.93-.15a55.27,55.27,0,0,0,2.65,25.48Z"/><path class="cls-7" d="M40.64,157.1l.29-.12a50.45,50.45,0,0,1-3.07-17.12,52.76,52.76,0,0,1,.45-8l-.31-.05a54.09,54.09,0,0,0-.46,8.08A50.83,50.83,0,0,0,40.64,157.1Z"/><path class="cls-7" d="M33.34,156.93l.88-.34a54,54,0,0,1-2.59-25l-.94-.15a55.27,55.27,0,0,0,2.65,25.48Z"/><path class="cls-7" d="M35.72,156.14,36,156a50.51,50.51,0,0,1-3.07-17.13,51.8,51.8,0,0,1,.46-8l-.31-.05a54.84,54.84,0,0,0,2.63,25.32Z"/><path class="cls-7" d="M27.83,154.86l.9-.28A53.94,53.94,0,0,1,28,129.47l-.92-.22a55,55,0,0,0,.78,25.61Z"/><path class="cls-7" d="M30.25,154.24l.3-.09a50.55,50.55,0,0,1-1.81-17.3,53.25,53.25,0,0,1,1-8l-.3-.07a51.44,51.44,0,0,0-1.05,8A50.79,50.79,0,0,0,30.25,154.24Z"/><path class="cls-7" d="M57.47,158.48A55.29,55.29,0,0,0,60,141.65a81.28,81.28,0,0,0-.3-8.63l-.32,0a75,75,0,0,1,.3,8.6c-.08,4.53-.58,11.12-2.51,16.72Z"/><path class="cls-7" d="M55.54,158.89c2-5.69,2.47-12.35,2.55-16.93a82.27,82.27,0,0,0-.3-8.67l-.94.1a78.9,78.9,0,0,1,.29,8.57c-.08,4.51-.57,11-2.49,16.62Z"/><path class="cls-7" d="M54.17,158.53a159.76,159.76,0,0,0,1.46-25.27h-.31c0,.14.36,13.85-1.46,25.21Z"/><path class="cls-7" d="M52.71,158.35l.93-.15c-.82-5.18.53-24.78.54-25l-.94-.06C53.18,134,51.87,153.06,52.71,158.35Z"/><path class="cls-7" d="M52,158.78l.3-.1c-.75-2.3-1-7.46-.84-14.92.15-5.65.53-10.66.54-10.71l-.32,0s-.38,5.08-.53,10.73C51,151.35,51.26,156.41,52,158.78Z"/></g><ellipse class="cls-8" cx="56.3" cy="135.33" rx="30.78" ry="9.86"/><ellipse class="cls-9" cx="56.34" cy="134.92" rx="27.36" ry="8.79"/><g class="cls-10"><ellipse class="cls-11" cx="56.34" cy="137.02" rx="27.36" ry="8.79"/></g><ellipse class="cls-12" cx="56.93" cy="132.94" rx="1.05" ry="0.64" transform="translate(-81.32 175.4) rotate(-83.89)"/><path class="cls-3" d="M32.87,132a4.69,4.69,0,0,0-1,.28,1.62,1.62,0,0,1-1,0,.4.4,0,0,1-.28-.28.35.35,0,0,1,.21-.31,1,1,0,0,1,.39-.08,4.77,4.77,0,0,0,1.29-.31,8.69,8.69,0,0,1-1.35,0,1.12,1.12,0,0,1-.4-.1.38.38,0,0,1-.2-.34.36.36,0,0,1,.3-.3,1.19,1.19,0,0,1,.46,0,5,5,0,0,0,1.22-.06,2.55,2.55,0,0,0-1.07-.14c-.37,0-.79-.17-.88-.52a.17.17,0,0,1,0-.1.34.34,0,0,1,.08-.09,1.15,1.15,0,0,1,.8-.07l1.4.2c-.4-.28-.93-.23-1.38-.41-.24-.09-.48-.33-.4-.57a.46.46,0,0,1,.37-.26,1.25,1.25,0,0,1,.47.07l1.28.37a2.05,2.05,0,0,0,.54.1,2.61,2.61,0,0,0,.56-.08,3.63,3.63,0,0,1,1.14,0,.22.22,0,0,1,.11.05s0,.08,0,.13c-.09.69-.19,1.38-.29,2.07a2,2,0,0,1-.14.54,5.27,5.27,0,0,1-.46.7.43.43,0,0,1-.45.18,2.32,2.32,0,0,1-.61-.21,2,2,0,0,1-.37-.21A3.69,3.69,0,0,0,32.87,132Z"/><g class="cls-13"><path class="cls-14" d="M35.66,129.09a1.59,1.59,0,0,0-.89,0c-.29.08-.56.2-.85.28a1.31,1.31,0,0,0-.7.3,1,1,0,0,0-.21.68,2.56,2.56,0,0,1,0,.73c0,.07,0,.13,0,.2a.71.71,0,0,0,0,.25,1.28,1.28,0,0,0,.62.77,3.71,3.71,0,0,0,1,.36.55.55,0,0,0,.4,0,.51.51,0,0,0,.19-.28,11.48,11.48,0,0,0,.56-1.62,3.67,3.67,0,0,0,.06-1.71.79.79,0,0,0-.45.11"/></g><ellipse class="cls-15" cx="31.2" cy="132.29" rx="0.09" ry="0.19" transform="translate(-103.66 149.23) rotate(-83.89)"/><ellipse class="cls-15" cx="30.84" cy="131.17" rx="0.09" ry="0.19" transform="translate(-102.87 147.87) rotate(-83.89)"/><ellipse class="cls-16" cx="34.96" cy="130.91" rx="2.38" ry="1.73" transform="translate(-98.92 151.74) rotate(-83.89)"/><path class="cls-2" d="M55.49,134.51a59,59,0,0,1-16.36.6,11.59,11.59,0,0,1-2.8-.56,4.32,4.32,0,0,1-2.23-1.71,3.39,3.39,0,0,1,.32-3.94c1-.89,2.93-1.12,4.22-1.18a23.24,23.24,0,0,1,4.16.31c1.06.14,2.12.3,3.19.46a21.16,21.16,0,0,1,2.22.42s5.08.82,6.43,1.28,2.69,1,2.76,2.57S55.49,134.51,55.49,134.51Z"/><g class="cls-17"><path class="cls-18" d="M36.46,127.84a1.17,1.17,0,0,0,.3.89l-1.62.8a1.06,1.06,0,0,0-.47.36.71.71,0,0,0,.22.91,1.7,1.7,0,0,0,1,.29,16.09,16.09,0,0,1,2.41.09c.77.17,1.46.62,2.24.75a6.52,6.52,0,0,0,2.78-.44,3.89,3.89,0,0,1,2.77,0,3.88,3.88,0,0,0,.85.4,2.53,2.53,0,0,0,.94-.11,4.84,4.84,0,0,1,2.36.1c.88.26,1.76.78,2.64.56.36-.09.69-.29,1.06-.36.71-.12,1.53.3,2.14-.1a1.9,1.9,0,0,0,.6-1l.22-.69a.46.46,0,0,0,0-.26.43.43,0,0,0-.14-.23,3,3,0,0,0-1.51-.65,109.8,109.8,0,0,0-11-1.61c-1.43-.16-2.85-.32-4.29-.34C39.31,127.16,36.63,126.9,36.46,127.84Z"/><ellipse class="cls-18" cx="36.28" cy="133.77" rx="0.33" ry="0.64" transform="translate(-102.16 126.88) rotate(-71.98)"/></g><ellipse class="cls-12" cx="66.58" cy="136.43" rx="0.64" ry="1.05" transform="translate(-1.69 0.84) rotate(-0.71)"/><path class="cls-3" d="M42.59,138.39a4.39,4.39,0,0,0-1,.4,1.7,1.7,0,0,1-1,.17.44.44,0,0,1-.31-.25.35.35,0,0,1,.17-.34,1.15,1.15,0,0,1,.37-.12,4.93,4.93,0,0,0,1.25-.46,10,10,0,0,1-1.34.15,1.15,1.15,0,0,1-.41-.05.38.38,0,0,1-.24-.31.37.37,0,0,1,.27-.34,1.36,1.36,0,0,1,.45-.06A4.51,4.51,0,0,0,42,137a2.66,2.66,0,0,0-1.09,0c-.36,0-.8-.07-.93-.41a.12.12,0,0,1,0-.1.16.16,0,0,1,.07-.09,1.18,1.18,0,0,1,.79-.18l1.4,0c-.42-.23-.94-.12-1.41-.24-.25-.07-.51-.27-.46-.53a.44.44,0,0,1,.33-.3,1.23,1.23,0,0,1,.47,0l1.32.21a2,2,0,0,0,.55,0,3.41,3.41,0,0,0,.55-.14,3.31,3.31,0,0,1,1.13-.14.14.14,0,0,1,.11,0,.18.18,0,0,1,0,.13c0,.7,0,1.39,0,2.09a1.66,1.66,0,0,1-.07.55,5.22,5.22,0,0,1-.37.75.45.45,0,0,1-.43.24,2.41,2.41,0,0,1-.63-.15,2.08,2.08,0,0,1-.39-.15S42.61,138.38,42.59,138.39Z"/><g class="cls-19"><path class="cls-14" d="M45,135.13a1.55,1.55,0,0,0-.87.13c-.28.11-.54.26-.82.37a1.55,1.55,0,0,0-.66.38,1.07,1.07,0,0,0-.13.71,3,3,0,0,1,.06.73,1.2,1.2,0,0,0,0,.2.74.74,0,0,0,.05.25,1.27,1.27,0,0,0,.71.69,3.68,3.68,0,0,0,1,.24.5.5,0,0,0,.4-.05.51.51,0,0,0,.15-.3,10.72,10.72,0,0,0,.37-1.68,3.76,3.76,0,0,0-.15-1.7.87.87,0,0,0-.43.16"/></g><ellipse class="cls-15" cx="40.96" cy="138.83" rx="0.19" ry="0.09" transform="translate(-1.73 0.52) rotate(-0.71)"/><ellipse class="cls-15" cx="40.47" cy="137.77" rx="0.19" ry="0.09" transform="matrix(1, -0.01, 0.01, 1, -1.71, 0.51)"/><ellipse class="cls-16" cx="44.53" cy="137.02" rx="1.73" ry="2.38" transform="translate(-1.7 0.57) rotate(-0.71)"/><path class="cls-4" d="M65.34,138.15a58.38,58.38,0,0,1-16.17,2.54,10.91,10.91,0,0,1-2.85-.22A4.37,4.37,0,0,1,43.9,139a3.4,3.4,0,0,1-.15-3.95c.91-1,2.78-1.46,4-1.67a22.33,22.33,0,0,1,4.17-.19c1.07,0,2.15,0,3.22.08a21.44,21.44,0,0,1,2.26.15s5.14.21,6.53.51,2.79.64,3.05,2.23S65.34,138.15,65.34,138.15Z"/><g class="cls-20"><path class="cls-18" d="M45.65,133.79a1.17,1.17,0,0,0,.41.85l-1.52,1a1.13,1.13,0,0,0-.43.41.73.73,0,0,0,.34.88,1.68,1.68,0,0,0,1,.18,15,15,0,0,1,2.4-.2c.78.08,1.52.44,2.31.47a6.46,6.46,0,0,0,2.71-.76,3.88,3.88,0,0,1,2.74-.35,3.64,3.64,0,0,0,.9.29,2.51,2.51,0,0,0,.92-.21,4.84,4.84,0,0,1,2.36-.19c.9.16,1.83.57,2.68.25.35-.13.65-.38,1-.48.69-.21,1.56.11,2.11-.36a1.78,1.78,0,0,0,.47-1.07l.15-.71a.62.62,0,0,0,0-.27.41.41,0,0,0-.18-.21,2.88,2.88,0,0,0-1.56-.46,108.39,108.39,0,0,0-11.11-.3c-1.44,0-2.87,0-4.3.17C48.4,132.78,45.71,132.84,45.65,133.79Z"/><ellipse class="cls-18" cx="46.17" cy="139.71" rx="0.33" ry="0.64" transform="translate(-99.84 157.87) rotate(-78.8)"/></g><ellipse class="cls-12" cx="71.32" cy="132.81" rx="1.05" ry="0.64" transform="matrix(0.29, -0.96, 0.96, 0.29, -76.42, 162.8)"/><path class="cls-3" d="M47.85,127.48a4.74,4.74,0,0,0-1.06.08,1.59,1.59,0,0,1-1-.14.39.39,0,0,1-.21-.33.32.32,0,0,1,.25-.27,1.34,1.34,0,0,1,.4,0,5,5,0,0,0,1.33-.06,8.33,8.33,0,0,1-1.32-.26,1,1,0,0,1-.38-.17.37.37,0,0,1-.14-.37.36.36,0,0,1,.36-.24,1.42,1.42,0,0,1,.45.08,4.48,4.48,0,0,0,1.21.17,2.45,2.45,0,0,0-1-.33c-.36-.09-.75-.32-.77-.68a.16.16,0,0,1,0-.1s.06,0,.09-.07a1.2,1.2,0,0,1,.81.07l1.33.46c-.33-.34-.87-.4-1.27-.65-.22-.14-.41-.42-.29-.64a.43.43,0,0,1,.41-.19,1.37,1.37,0,0,1,.44.16l1.19.59a2.1,2.1,0,0,0,.52.21,3.62,3.62,0,0,0,.57,0,3.58,3.58,0,0,1,1.12.21s.07,0,.09.07a.19.19,0,0,1,0,.13c-.22.66-.44,1.32-.67,2a1.45,1.45,0,0,1-.24.5,5.49,5.49,0,0,1-.57.61.45.45,0,0,1-.48.1,2.12,2.12,0,0,1-.56-.33,1.7,1.7,0,0,1-.33-.27A2.35,2.35,0,0,0,47.85,127.48Z"/><g class="cls-21"><path class="cls-14" d="M51.13,125.1a1.61,1.61,0,0,0-.87-.15c-.3,0-.59.09-.89.12a1.45,1.45,0,0,0-.75.16,1,1,0,0,0-.33.64,2.83,2.83,0,0,1-.17.71c0,.06-.06.12-.08.18a.54.54,0,0,0,0,.25,1.27,1.27,0,0,0,.47.88,3.46,3.46,0,0,0,.87.52.55.55,0,0,0,.39.08.51.51,0,0,0,.24-.24,12.25,12.25,0,0,0,.86-1.49,3.87,3.87,0,0,0,.37-1.67.8.8,0,0,0-.46,0"/></g><ellipse class="cls-15" cx="46.16" cy="127.42" rx="0.09" ry="0.19" transform="translate(-89.15 134.86) rotate(-73.24)"/><ellipse class="cls-15" cx="46.01" cy="126.25" rx="0.09" ry="0.19" transform="translate(-88.14 133.89) rotate(-73.24)"/><ellipse class="cls-16" cx="50.11" cy="126.76" rx="2.38" ry="1.73" transform="translate(-85.71 138.18) rotate(-73.24)"/><path class="cls-2" d="M69.62,134.09a58.47,58.47,0,0,1-16.19-2.44,11.22,11.22,0,0,1-2.64-1.06,4.34,4.34,0,0,1-1.88-2.09,3.36,3.36,0,0,1,1-3.81c1.17-.7,3.09-.57,4.36-.39a22.73,22.73,0,0,1,4,1.08c1,.34,2,.68,3,1a21.44,21.44,0,0,1,2.11.82s4.84,1.74,6.08,2.45,2.47,1.45,2.24,3S69.62,134.09,69.62,134.09Z"/><g class="cls-22"><path class="cls-18" d="M52.15,124a1.13,1.13,0,0,0,.13.93l-1.74.5a1.06,1.06,0,0,0-.53.26.74.74,0,0,0,.05.94,1.62,1.62,0,0,0,.9.46,15.57,15.57,0,0,1,2.34.54c.73.31,1.33.88,2.07,1.14a6.64,6.64,0,0,0,2.81.09,3.91,3.91,0,0,1,2.72.48,3.79,3.79,0,0,0,.77.56,2.67,2.67,0,0,0,.94.07,4.75,4.75,0,0,1,2.31.53c.81.42,1.57,1.09,2.48,1,.38,0,.74-.16,1.11-.16.72,0,1.45.58,2.12.29a1.82,1.82,0,0,0,.77-.87l.35-.64a.45.45,0,0,0,.09-.25.39.39,0,0,0-.1-.25,3,3,0,0,0-1.36-.92,110.23,110.23,0,0,0-10.5-3.62c-1.37-.42-2.75-.84-4.15-1.12C55.08,123.88,52.49,123.13,52.15,124Z"/><ellipse class="cls-18" cx="50.87" cy="129.81" rx="0.33" ry="0.64" transform="translate(-87.43 112.16) rotate(-61.32)"/></g><ellipse class="cls-12" cx="58.77" cy="140.03" rx="0.64" ry="1.05" transform="translate(-37.89 22.9) rotate(-16.76)"/><path class="cls-3" d="M82.25,134.7a4.65,4.65,0,0,1,1,.08,1.64,1.64,0,0,0,1-.14.4.4,0,0,0,.22-.33.32.32,0,0,0-.26-.27,1,1,0,0,0-.39,0,4.56,4.56,0,0,1-1.33-.07,8.53,8.53,0,0,0,1.32-.25,1,1,0,0,0,.37-.17.37.37,0,0,0,.14-.37.38.38,0,0,0-.35-.25,1.13,1.13,0,0,0-.45.09,4.6,4.6,0,0,1-1.22.17,2.61,2.61,0,0,1,1-.34c.35-.08.74-.31.77-.67a.2.2,0,0,0,0-.11.15.15,0,0,0-.09-.06,1.12,1.12,0,0,0-.8.07l-1.34.46c.34-.35.87-.4,1.28-.65.22-.14.41-.42.28-.64a.42.42,0,0,0-.4-.19,1.21,1.21,0,0,0-.45.16l-1.19.59A2.28,2.28,0,0,1,81,132a3.62,3.62,0,0,1-.57,0,3.58,3.58,0,0,0-1.12.21s-.08,0-.1.07a.15.15,0,0,0,0,.13c.22.66.44,1.32.67,2a1.64,1.64,0,0,0,.23.5,4.71,4.71,0,0,0,.58.6.45.45,0,0,0,.48.11,2.17,2.17,0,0,0,.55-.33A1.44,1.44,0,0,0,82,135,3.58,3.58,0,0,1,82.25,134.7Z"/><g class="cls-23"><path class="cls-14" d="M79,132.32a1.57,1.57,0,0,1,.88-.15c.3,0,.59.09.89.12a1.41,1.41,0,0,1,.74.16,1,1,0,0,1,.34.63,3,3,0,0,0,.16.72l.09.18a.72.72,0,0,1,0,.25,1.31,1.31,0,0,1-.47.88,4.26,4.26,0,0,1-.87.52.58.58,0,0,1-.4.08.61.61,0,0,1-.24-.24,11,11,0,0,1-.85-1.49,3.76,3.76,0,0,1-.37-1.67.8.8,0,0,1,.46,0"/></g><ellipse class="cls-15" cx="83.94" cy="134.63" rx="0.19" ry="0.09" transform="translate(-35.27 29.93) rotate(-16.76)"/><ellipse class="cls-15" cx="84.08" cy="133.47" rx="0.19" ry="0.09" transform="translate(-34.92 29.93) rotate(-16.76)"/><ellipse class="cls-16" cx="79.98" cy="133.98" rx="1.73" ry="2.38" transform="translate(-35.24 28.76) rotate(-16.76)"/><path class="cls-2" d="M60.47,141.31a59.17,59.17,0,0,0,16.19-2.44,11.29,11.29,0,0,0,2.65-1.06,4.34,4.34,0,0,0,1.88-2.09c.45-1.19.14-3.12-1-3.82s-3.09-.56-4.37-.38a23.47,23.47,0,0,0-4,1.07l-3,1c-.71.25-1.42.51-2.11.83,0,0-4.84,1.74-6.08,2.45s-2.46,1.45-2.23,3S60.47,141.31,60.47,141.31Z"/><g class="cls-24"><path class="cls-18" d="M78,131.23a1.18,1.18,0,0,1-.14.93l1.75.5a1.06,1.06,0,0,1,.53.26.72.72,0,0,1-.06.93,1.64,1.64,0,0,1-.89.47,15.42,15.42,0,0,0-2.35.54c-.72.3-1.32.87-2.06,1.14a6.64,6.64,0,0,1-2.81.09,3.94,3.94,0,0,0-2.73.48,3.34,3.34,0,0,1-.76.55,2.3,2.3,0,0,1-.94.07,4.88,4.88,0,0,0-2.31.54,5.33,5.33,0,0,1-2.49,1c-.37,0-.73-.17-1.1-.16-.73,0-1.46.58-2.12.29a1.82,1.82,0,0,1-.78-.88l-.35-.63a.58.58,0,0,1-.09-.25.52.52,0,0,1,.1-.26,3.06,3.06,0,0,1,1.36-.91,107.69,107.69,0,0,1,10.51-3.62,42.33,42.33,0,0,1,4.15-1.12C75,131.09,77.6,130.35,78,131.23Z"/><ellipse class="cls-18" cx="79.22" cy="137.03" rx="0.64" ry="0.33" transform="translate(-56.04 54.82) rotate(-28.68)"/></g><ellipse class="cls-12" cx="57.09" cy="140.82" rx="1.05" ry="0.64" transform="translate(-90.14 178.39) rotate(-82.24)"/><path class="cls-3" d="M33.07,139.23a4.58,4.58,0,0,0-1,.24,1.55,1.55,0,0,1-1,0,.38.38,0,0,1-.27-.29.35.35,0,0,1,.21-.31,1.27,1.27,0,0,1,.39-.06,4.79,4.79,0,0,0,1.3-.28,7.48,7.48,0,0,1-1.34-.05.92.92,0,0,1-.4-.11.35.35,0,0,1-.19-.34.38.38,0,0,1,.31-.3,1.42,1.42,0,0,1,.46,0,4.16,4.16,0,0,0,1.22,0,2.56,2.56,0,0,0-1.07-.16c-.37,0-.78-.19-.87-.55a.17.17,0,0,1,0-.1.2.2,0,0,1,.08-.08,1.18,1.18,0,0,1,.81-.06L33,137c-.39-.28-.92-.25-1.37-.44-.23-.1-.47-.34-.38-.59a.42.42,0,0,1,.38-.24,1.07,1.07,0,0,1,.46.08l1.27.4a1.93,1.93,0,0,0,.54.12,2.6,2.6,0,0,0,.56-.06,3.63,3.63,0,0,1,1.14,0,.22.22,0,0,1,.11,0,.2.2,0,0,1,0,.13c-.11.69-.23,1.38-.35,2.06a1.67,1.67,0,0,1-.15.54,4.63,4.63,0,0,1-.48.68.44.44,0,0,1-.45.18,2.09,2.09,0,0,1-.6-.24,1.68,1.68,0,0,1-.37-.21S33.1,139.22,33.07,139.23Z"/><g class="cls-25"><path class="cls-14" d="M36,136.36a1.59,1.59,0,0,0-.89,0c-.29.07-.57.19-.86.26a1.35,1.35,0,0,0-.71.28,1,1,0,0,0-.23.67,3.49,3.49,0,0,1,0,.73c0,.07-.05.13-.06.19a.57.57,0,0,0,0,.26,1.28,1.28,0,0,0,.6.79,4,4,0,0,0,.94.38.56.56,0,0,0,.4,0,.52.52,0,0,0,.2-.28,10.33,10.33,0,0,0,.61-1.6,3.82,3.82,0,0,0,.11-1.71.7.7,0,0,0-.45.1"/></g><ellipse class="cls-15" cx="31.4" cy="139.43" rx="0.09" ry="0.19" transform="translate(-110.99 151.72) rotate(-82.24)"/><ellipse class="cls-15" cx="31.07" cy="138.3" rx="0.09" ry="0.19" transform="translate(-110.16 150.42) rotate(-82.24)"/><ellipse class="cls-16" cx="35.2" cy="138.16" rx="2.38" ry="1.73" transform="translate(-106.45 154.39) rotate(-82.24)"/><path class="cls-2" d="M55.61,142.34a58.6,58.6,0,0,1-16.36.13,11.07,11.07,0,0,1-2.79-.63,4.43,4.43,0,0,1-2.18-1.77c-.63-1.1-.62-3.06.43-3.93s3-1,4.25-1.06a23.29,23.29,0,0,1,4.16.42l3.17.55c.74.14,1.48.28,2.21.49,0,0,5,1,6.39,1.46s2.66,1.05,2.68,2.66S55.61,142.34,55.61,142.34Z"/><g class="cls-26"><path class="cls-18" d="M36.78,135.13a1.17,1.17,0,0,0,.28.9l-1.65.76a1,1,0,0,0-.48.34.74.74,0,0,0,.2.92,1.67,1.67,0,0,0,.95.32,14.79,14.79,0,0,1,2.41.16c.76.19,1.44.66,2.22.81a6.63,6.63,0,0,0,2.78-.36,3.94,3.94,0,0,1,2.77.05,3.58,3.58,0,0,0,.85.43,2.47,2.47,0,0,0,.93-.08,5,5,0,0,1,2.37.16,5.18,5.18,0,0,0,2.62.64c.36-.08.69-.27,1.06-.33.72-.1,1.53.35,2.14,0a1.76,1.76,0,0,0,.63-1l.25-.68a.58.58,0,0,0,0-.26.58.58,0,0,0-.14-.24,3.06,3.06,0,0,0-1.49-.69A109.32,109.32,0,0,0,44.59,135c-1.42-.2-2.84-.4-4.28-.46C39.65,134.53,37,134.2,36.78,135.13Z"/><ellipse class="cls-18" cx="36.43" cy="141.06" rx="0.33" ry="0.64" transform="translate(-108.66 127.89) rotate(-70.33)"/></g></svg>