<svg id="Layer_1" data-name="Layer 1" xmlns="http://www.w3.org/2000/svg" xmlns:xlink="http://www.w3.org/1999/xlink" width="400" height="180" viewBox="0 0 400 180">
  <defs>
    <style>
      .cls-1, .cls-11, .cls-2, .cls-24 {
        fill: none;
      }

      .cls-17, .cls-18, .cls-19, .cls-2 {
        stroke: #dbdbdb;
      }

      .cls-10, .cls-2, .cls-9 {
        stroke-miterlimit: 10;
      }

      .cls-10, .cls-11, .cls-15, .cls-17, .cls-18, .cls-19, .cls-2, .cls-20, .cls-9 {
        stroke-width: 0.68px;
      }

      .cls-3 {
        fill: #fff;
      }

      .cls-4 {
        fill: #73c9fe;
      }

      .cls-5 {
        fill: #38a4fc;
      }

      .cls-6 {
        clip-path: url(#clip-path);
      }

      .cls-7 {
        fill: #dbdbdb;
      }

      .cls-8 {
        fill: #f2f2f2;
      }

      .cls-12, .cls-9 {
        fill: #dd4e36;
      }

      .cls-10, .cls-24, .cls-9 {
        stroke: #e6e6e6;
      }

      .cls-10, .cls-14 {
        fill: #ccc;
      }

      .cls-11 {
        stroke: #fff;
      }

      .cls-11, .cls-15, .cls-17, .cls-18, .cls-19, .cls-20, .cls-24 {
        stroke-linecap: round;
        stroke-linejoin: round;
      }

      .cls-13 {
        fill: #e6e6e6;
      }

      .cls-15, .cls-17 {
        fill: #03d6fc;
      }

      .cls-15 {
        stroke: #03d6fc;
      }

      .cls-16 {
        clip-path: url(#clip-path-2);
      }

      .cls-18, .cls-20 {
        fill: #49e1fc;
      }

      .cls-19 {
        fill: #7ee9fc;
      }

      .cls-20 {
        stroke: #49e1fc;
      }

      .cls-21 {
        clip-path: url(#clip-path-3);
      }

      .cls-22 {
        clip-path: url(#clip-path-4);
      }

      .cls-23 {
        clip-path: url(#clip-path-5);
      }

      .cls-24 {
        stroke-width: 1.31px;
      }
    </style>
    <clipPath id="clip-path">
      <path id="SVGID" class="cls-1" d="M284.44,80.71s-95.66-7.24-108.29,3.82c-.59.52.53,3.75-2.84,4.75-1.84.55-10.69-.19-13.17.46-27.46,7.25-86.23,19.38-87.5,22-1.6,3.28,9.2,14.13,11.88,18.48s17.59,26.92,20.6,28.17S292.11,164,332,160c6-.63-4.06-27.4-5.61-27.56s-26.54-10.28-26.68-11.87L299.6,119s10.93.51,11.8-1.91-.31-9.13-5.73-11.26-24.44-6.3-23.36-13.72c10,.41,27.53.66,27.53.66l.29-2.79Z"/>
    </clipPath>
    <clipPath id="clip-path-2">
      <path id="SVGID-2" data-name="SVGID" class="cls-2" d="M176.15,84.53s-1.68,5.22,33.55,7.72c31.45,2.24,50.39,2.72,54.1,2.79a.88.88,0,0,1,.84.67l1.86,7.28a.88.88,0,0,1-.87,1.11c-8.45-.17-60.73-1.38-83.52-4.74C164.52,96.77,156.18,95.67,176.15,84.53Z"/>
    </clipPath>
    <clipPath id="clip-path-3">
      <path id="SVGID-3" data-name="SVGID" class="cls-2" d="M120.39,126.71c.08-2.15.08-2.58,17.9-4.87,3.9-.5,126.12,1.41,138.84,1.61a1.45,1.45,0,0,1,1.37,1l1.61,5.45a1.46,1.46,0,0,1-1.41,1.87l-115.88-.94a5.68,5.68,0,0,1-3.32-1.11l-.82-.6a5.67,5.67,0,0,0-3.3-1.11c-3.57,0-11.8-.12-19.4,0C127.77,128.13,120.33,128.31,120.39,126.71Z"/>
    </clipPath>
    <clipPath id="clip-path-4">
      <path id="SVGID-4" data-name="SVGID" class="cls-1" d="M279.19,94.57s.95,7,3,9.68l-5.52-.57-3.87-9.07Z"/>
    </clipPath>
    <clipPath id="clip-path-5">
      <path id="SVGID-5" data-name="SVGID" class="cls-1" d="M285.59,122.2s1.1,6.37,3.15,8.17l-6.9-.72-3.26-8.14Z"/>
    </clipPath>
  </defs>
  <title>14_big_boat_moves_fast</title>
  <path class="cls-3" d="M223.63,147.93l14.51-6.6,5.33-2.42c1.71-.75,3.33-1.4,4.71-2,2.77-1.12,4.66-1.78,4.66-1.78l0,.06s-1.77.93-4.47,2.21c-1.36.63-2.93,1.37-4.65,2.12l-5.39,2.27L223.66,148Z"/>
  <path class="cls-3" d="M278.54,137.67l15.71-2.73,5.77-1c1.84-.29,3.57-.52,5.06-.72,3-.38,5-.55,5-.55v.07s-1.95.46-4.88,1c-1.47.27-3.18.59-5,.88l-5.79.84-15.78,2.27Z"/>
  <path class="cls-3" d="M161.24,112.14s4.44.65,8.86,1.36l3.25.5c1,.19,2,.41,2.81.59,1.64.39,2.72.72,2.72.72v.07s-1.13-.06-2.8-.27c-.83-.11-1.81-.24-2.84-.43L170,114c-4.39-.88-8.78-1.81-8.78-1.81Z"/>
  <path class="cls-3" d="M173.57,120.56l10.22,1.66,3.75.61c1.19.22,2.3.47,3.24.69,1.89.44,3.14.82,3.14.82v.07s-1.3-.1-3.22-.36c-1-.14-2.08-.3-3.27-.52l-3.72-.77-10.13-2.12Z"/>
  <path class="cls-3" d="M95.59,90.51s4.44-.6,8.89-1.14l3.27-.41c1-.11,2-.16,2.86-.21,1.68-.08,2.81-.05,2.81-.05v.07s-1.1.25-2.76.51c-.83.12-1.8.27-2.85.37l-3.28.25c-4.47.37-8.94.68-8.94.68Z"/>
  <path class="cls-3" d="M106.28,92.88l10.28-1.22,3.77-.44c1.21-.12,2.34-.18,3.31-.24,1.94-.1,3.24-.08,3.24-.08V91s-1.27.26-3.2.54c-1,.13-2.08.28-3.29.4l-3.79.28L106.29,93Z"/>
  <path class="cls-3" d="M241.07,134l13.54-7.42,5-2.72c1.6-.85,3.11-1.59,4.41-2.24,2.6-1.28,4.37-2.06,4.37-2.06l0,.06s-1.64,1-4.16,2.45c-1.26.71-2.74,1.54-4.33,2.38l-5,2.58-13.76,7Z"/>
  <g>
    <path class="cls-4" d="M346.16,158.55s12.24-1.13,8.28-5.46S346.16,158.55,346.16,158.55Z"/>
    <path class="cls-5" d="M372.31,146.41s8.85,4.14,7.88-.42S372.31,146.41,372.31,146.41Z"/>
    <path class="cls-5" d="M381.31,89.74s8.85,4.14,7.88-.42S381.31,89.74,381.31,89.74Z"/>
    <path class="cls-5" d="M389,128.74s8.85,4.14,7.88-.42S389,128.74,389,128.74Z"/>
    <path class="cls-5" d="M380,108.08s8.85,4.14,7.88-.42S380,108.08,380,108.08Z"/>
    <path class="cls-5" d="M378.64,124.08s8.85,4.14,7.88-.42S378.64,124.08,378.64,124.08Z"/>
    <path class="cls-5" d="M354.55,109.41s9.5-2.29,5.89-5.25S354.55,109.41,354.55,109.41Z"/>
    <path class="cls-4" d="M385.55,141.28s8.39,8,9,2.53S385.55,141.28,385.55,141.28Z"/>
    <path class="cls-4" d="M372.45,87.75s11.12-3.47,6.62-6.69S372.45,87.75,372.45,87.75Z"/>
    <path class="cls-4" d="M370.38,136.7s12.12,2,9.4-3.17S370.38,136.7,370.38,136.7Z"/>
    <path class="cls-4" d="M365,120.7s12.12,2,9.4-3.17S365,120.7,365,120.7Z"/>
    <path class="cls-4" d="M388,115.37s12.12,2,9.4-3.17S388,115.37,388,115.37Z"/>
    <path class="cls-5" d="M347.44,130.64s14.67-6.76,7.88-10.4S347.44,130.64,347.44,130.64Z"/>
    <path class="cls-5" d="M354.47,135.36s16.12,1,11.87-5.41S354.47,135.36,354.47,135.36Z"/>
    <path class="cls-4" d="M333.86,152.36s15.75-3.6,9.84-8.56S333.86,152.36,333.86,152.36Z"/>
    <path class="cls-4" d="M363.53,108.36s15.75-3.6,9.84-8.56S363.53,108.36,363.53,108.36Z"/>
    <path class="cls-4" d="M358.75,147s11.6-.63,8-4.86S358.75,147,358.75,147Z"/>
  </g>
  <g>
    <path class="cls-4" d="M61.31,140.32s-4.26-11.52-7.42-6.58S61.31,140.32,61.31,140.32Z"/>
    <path class="cls-4" d="M48.81,141.8s-9.25-8-9.65-2.2S48.81,141.8,48.81,141.8Z"/>
    <path class="cls-5" d="M53.2,123.73s-4-15.65-8.82-9.61S53.2,123.73,53.2,123.73Z"/>
    <path class="cls-5" d="M31.66,132.79s-13.2-9.32-12.94-1.62S31.66,132.79,31.66,132.79Z"/>
    <path class="cls-5" d="M34.58,90.1S22.73,79.11,22,86.78,34.58,90.1,34.58,90.1Z"/>
    <path class="cls-5" d="M26.16,115.84s-13-9.57-12.91-1.86S26.16,115.84,26.16,115.84Z"/>
    <path class="cls-5" d="M53,110.11s3.89-15.68-3.2-12.64S53,110.11,53,110.11Z"/>
    <path class="cls-5" d="M28.15,75.27s-8.88-13.47-11.42-6.2S28.15,75.27,28.15,75.27Z"/>
    <path class="cls-4" d="M66.06,133.43s-.72-16.14-6.66-11.22S66.06,133.43,66.06,133.43Z"/>
    <path class="cls-4" d="M37.6,127.95s-.72-16.14-6.66-11.22S37.6,127.95,37.6,127.95Z"/>
    <path class="cls-4" d="M39.15,110.12S34,94.82,29.63,101.2,39.15,110.12,39.15,110.12Z"/>
    <path class="cls-4" d="M48.15,84.45S43,69.15,38.63,75.53,48.15,84.45,48.15,84.45Z"/>
    <path class="cls-4" d="M18.52,95.23s-15.89-2.9-12.42,4S18.52,95.23,18.52,95.23Z"/>
    <path class="cls-4" d="M64.75,111.73s5.58-10.19.1-9.38S64.75,111.73,64.75,111.73Z"/>
    <path class="cls-4" d="M60.42,87.95S64,76.88,58.73,78.72,60.42,87.95,60.42,87.95Z"/>
    <path class="cls-4" d="M10.81,81.8s-7-9.26-8.5-3.93S10.81,81.8,10.81,81.8Z"/>
    <path class="cls-4" d="M89.07,159.1s-6.12-5.49-6.45-1.58S89.07,159.1,89.07,159.1Z"/>
    <path class="cls-5" d="M79.08,151.82s-7.27-8-8.22-2.93S79.08,151.82,79.08,151.82Z"/>
    <path class="cls-4" d="M89.72,153.54s-5.47-9.33-7.44-4.56S89.72,153.54,89.72,153.54Z"/>
    <path class="cls-4" d="M82.17,141.1s.12-7.77-2.87-5.58S82.17,141.1,82.17,141.1Z"/>
  </g>
  <g>
    <g class="cls-6">
      <g>
        <polygon class="cls-7" points="312.49 87.9 216.04 84.7 73.86 123.02 106.52 169.26 338.28 167.48 330.56 121.56 312.49 87.9"/>
        <path class="cls-8" d="M77.9,124.36s3-2.39,6-2.41,36.65-4.05,55.3-8.86,53-12.92,60.06-14c0,0,11.41-10,38.1-9.79s72.74.66,72.74.66l-30.39-13.9L177.21,74.5,65.09,102.8Z"/>
      </g>
      <path class="cls-9" d="M81.57,131.91s19.43,8.3,73.22,9.25,177.94.94,177.94.94l5.64,22.07-241.7-2.6Z"/>
      <path class="cls-10" d="M282.42,92.15a.8.8,0,0,0-.22-.09,10.85,10.85,0,0,0-1.16-.15c-.75-.07-1.64-.09-1.7.4-.1,1,1.4,16,9.65,15.46,1.11,0,.33.87.53,3s-1.76,4.76,12,4.28c2.15-.31,2.35-.44,2.57-6a.86.86,0,0,1,.85-.83c1.65,0,3.16-.23,3.56-.67S284.2,93.16,282.42,92.15Z"/>
      <path class="cls-10" d="M300.61,119.07s-13-.93-14.29-.23.24,13.78,7.73,13.87l36.23.42Z"/>
    </g>
    <g>
      <g>
        <path class="cls-10" d="M110.34,103.15a2.48,2.48,0,0,0-1.23-.09c-5.11,1.18-32.09,7.46-33.45,9-1.5,1.7,5.35,9.85,8.27,9.89,2,0,21.81-2.35,33.59-4.17,5-.78,8.61-1.45,8.73-1.8.39-1.16-4.81-3.55-4-3.6s3-1,2.2-2-3.82-.26-5.21.26c-1.11.42-5.22-3.81-6.81-5.52a.5.5,0,0,1,.27-.83c.86-.17,2-.54,2-1.29C114.71,101.92,111.58,103.5,110.34,103.15Z"/>
        <path class="cls-11" d="M116.81,117.84s-27.74-2.69-29.07-3.44-11.23-10.78-9.28-10.93,26.42.71,26.42.71"/>
        <path class="cls-11" d="M107.71,119.23c-8.5-.89-20.26-2.18-21.08-2.65-1.33-.76-11.23-10.78-9.28-10.93,1.22-.09,11.31.22,18.78.48"/>
        <path class="cls-11" d="M94.6,120.83a65.63,65.63,0,0,1-8.71-1.34c-1.33-.76-11.23-10.78-9.28-10.93.74-.06,4.75,0,9.45.18"/>
        <path class="cls-11" d="M84.89,122c-1.33-.76-11.12-10.61-9.17-10.75.26,0,.95,0,1.93,0"/>
        <g>
          <line class="cls-11" x1="78.85" y1="105.29" x2="77.51" y2="114.38"/>
          <line class="cls-11" x1="80.76" y1="107.65" x2="79.43" y2="116.74"/>
          <line class="cls-11" x1="82.7" y1="109.84" x2="81.36" y2="118.94"/>
          <line class="cls-11" x1="84.68" y1="111.59" x2="83.34" y2="120.69"/>
        </g>
      </g>
      <g>
        <rect class="cls-12" x="208.95" y="46.7" width="0.95" height="15.63" rx="0.47" ry="0.47" transform="translate(6.75 -21.32) rotate(5.92)"/>
        <rect class="cls-12" x="210.65" y="18.23" width="0.39" height="45.23" rx="0.2" ry="0.2" transform="translate(5.34 -21.54) rotate(5.92)"/>
        <rect class="cls-13" x="207.7" y="48.56" width="1.73" height="28.53" rx="0.86" ry="0.86" transform="translate(7.6 -21.19) rotate(5.92)"/>
        <path class="cls-14" d="M199.24,84.11l8.73-.31a.68.68,0,0,0,.65-.63l.54-7a.68.68,0,0,0-.61-.73l-2.45-.25a.68.68,0,0,0-.57.22L198.72,83A.68.68,0,0,0,199.24,84.11Z"/>
      </g>
      <g>
        <g>
          <path class="cls-15" d="M176.15,84.53s-1.68,5.22,33.55,7.72c31.45,2.24,50.39,2.72,54.1,2.79a.88.88,0,0,1,.84.67l1.86,7.28a.88.88,0,0,1-.87,1.11c-8.45-.17-60.73-1.38-83.52-4.74C164.52,96.77,156.18,95.67,176.15,84.53Z"/>
          <g>
            <g class="cls-16">
              <g>
                <polygon class="cls-17" points="180.42 85.67 161.82 97.24 159.43 93.29 177.43 82.76 180.42 85.67"/>
                <polygon class="cls-18" points="183.62 88.4 165.38 100.53 162.87 96.66 180.53 85.58 183.62 88.4"/>
                <polygon class="cls-19" points="189.94 89.25 171.9 101.67 169.32 97.84 186.81 86.48 189.94 89.25"/>
              </g>
            </g>
            <path id="SVGID-6" data-name="SVGID" class="cls-2" d="M176.15,84.53s-1.68,5.22,33.55,7.72c31.45,2.24,50.39,2.72,54.1,2.79a.88.88,0,0,1,.84.67l1.86,7.28a.88.88,0,0,1-.87,1.11c-8.45-.17-60.73-1.38-83.52-4.74C164.52,96.77,156.18,95.67,176.15,84.53Z"/>
          </g>
        </g>
        <polygon class="cls-10" points="152.77 109.86 278.5 112.49 277.37 109.08 164.79 106.78 152.77 109.86"/>
        <path class="cls-10" d="M166.43,136.83l123.39.65-1.18-3.39-112.56-.53H176l-9.64,2.63A.32.32,0,0,0,166.43,136.83Z"/>
        <g>
          <path class="cls-20" d="M120.39,126.71c.08-2.15.08-2.58,17.9-4.87,3.9-.5,126.12,1.41,138.84,1.61a1.45,1.45,0,0,1,1.37,1l1.61,5.45a1.46,1.46,0,0,1-1.41,1.87l-115.88-.94a5.68,5.68,0,0,1-3.32-1.11l-.82-.6a5.67,5.67,0,0,0-3.3-1.11c-3.57,0-11.8-.12-19.4,0C127.77,128.13,120.33,128.31,120.39,126.71Z"/>
          <g>
            <g class="cls-21">
              <g>
                <rect class="cls-17" x="118.5" y="115.41" width="17.75" height="19.18" transform="translate(1.58 -1.59) rotate(0.72)"/>
                <rect class="cls-17" x="136.6" y="115.64" width="17.75" height="19.18" transform="translate(1.58 -1.81) rotate(0.72)"/>
                <rect class="cls-17" x="154.71" y="115.86" width="17.75" height="19.18" transform="translate(1.58 -2.04) rotate(0.72)"/>
                <rect class="cls-17" x="172.81" y="116.09" width="17.75" height="19.18" transform="translate(1.59 -2.27) rotate(0.72)"/>
                <rect class="cls-17" x="190.92" y="116.32" width="17.75" height="19.18" transform="translate(1.59 -2.49) rotate(0.72)"/>
                <rect class="cls-17" x="209.02" y="116.54" width="17.75" height="19.18" transform="translate(1.6 -2.72) rotate(0.72)"/>
                <rect class="cls-17" x="227.13" y="116.77" width="17.75" height="19.18" transform="translate(1.6 -2.95) rotate(0.72)"/>
                <rect class="cls-17" x="245.24" y="117" width="17.75" height="19.18" transform="translate(1.61 -3.17) rotate(0.72)"/>
                <rect class="cls-17" x="263.34" y="117.22" width="17.75" height="19.18" transform="translate(1.61 -3.4) rotate(0.72)"/>
              </g>
            </g>
            <path id="SVGID-7" data-name="SVGID" class="cls-2" d="M120.39,126.71c.08-2.15.08-2.58,17.9-4.87,3.9-.5,126.12,1.41,138.84,1.61a1.45,1.45,0,0,1,1.37,1l1.61,5.45a1.46,1.46,0,0,1-1.41,1.87l-115.88-.94a5.68,5.68,0,0,1-3.32-1.11l-.82-.6a5.67,5.67,0,0,0-3.3-1.11c-3.57,0-11.8-.12-19.4,0C127.77,128.13,120.33,128.31,120.39,126.71Z"/>
          </g>
        </g>
      </g>
      <g>
        <g class="cls-22">
          <g>
            <polygon class="cls-12" points="280.58 96.09 273.94 95.4 275.68 97.55 280.95 98.09 280.58 96.09"/>
            <polygon class="cls-12" points="281.49 98.78 274.85 98.09 276.59 100.24 281.86 100.78 281.49 98.78"/>
            <polygon class="cls-12" points="282.61 101.61 275.96 100.92 277.71 103.06 282.97 103.61 282.61 101.61"/>
          </g>
        </g>
        <g class="cls-23">
          <g>
            <polygon class="cls-12" points="285.99 122.63 279.34 121.94 281.08 124.08 286.35 124.63 285.99 122.63"/>
            <polygon class="cls-12" points="287 125.33 280.36 124.64 282.1 126.79 287.37 127.34 287 125.33"/>
            <polygon class="cls-12" points="288.26 128.17 281.62 127.48 283.36 129.63 288.63 130.18 288.26 128.17"/>
          </g>
        </g>
      </g>
    </g>
    <line class="cls-24" x1="289.98" y1="108.19" x2="303.77" y2="108.59"/>
    <line class="cls-24" x1="289.88" y1="111.17" x2="303.53" y2="111.55"/>
  </g>
  <path class="cls-3" d="M155.78,151.6l15.71,2.71,5.77,1c1.84.34,3.54.71,5,1,2.92.64,4.85,1.15,4.85,1.15v.07s-2-.23-4.94-.69c-1.48-.24-3.2-.52-5-.86l-5.74-1.16-15.62-3.17Z"/>
  <g>
    <path class="cls-4" d="M181.49,144.89s-2.57-8.17-4.93-4.84S181.49,144.89,181.49,144.89Z"/>
    <path class="cls-5" d="M169.81,141.71s-1.75-7.45-4.11-4.64S169.81,141.71,169.81,141.71Z"/>
    <path class="cls-5" d="M248.08,145.45s7.51-1.46,4.8-3.92S248.08,145.45,248.08,145.45Z"/>
    <path class="cls-5" d="M306.67,159.68s7.63.62,5.68-2.48S306.67,159.68,306.67,159.68Z"/>
    <path class="cls-5" d="M267.63,156.94s7.39,2,6-1.41S267.63,156.94,267.63,156.94Z"/>
    <path class="cls-4" d="M186.54,159.17s-3.49-8.23-5.62-4.53S186.54,159.17,186.54,159.17Z"/>
    <path class="cls-4" d="M143,157.72s-2.54-6-4.09-3.3S143,157.72,143,157.72Z"/>
    <path class="cls-4" d="M144.61,147s-3.49-8.23-5.62-4.53S144.61,147,144.61,147Z"/>
    <path class="cls-4" d="M239.28,161.24s6.75-1.46,4.25-3.6S239.28,161.24,239.28,161.24Z"/>
    <path class="cls-4" d="M248.15,154.65s6.83-.55,4.66-3S248.15,154.65,248.15,154.65Z"/>
    <path class="cls-4" d="M238.63,153.12s7.65-4.63,3.69-6.2S238.63,153.12,238.63,153.12Z"/>
    <path class="cls-4" d="M214.63,159.45s7.65-4.63,3.69-6.2S214.63,159.45,214.63,159.45Z"/>
    <path class="cls-4" d="M279.83,152.19s8.93.43,6.52-3.09S279.83,152.19,279.83,152.19Z"/>
    <path class="cls-4" d="M269,146.26s5.59.1,4-2.06S269,146.26,269,146.26Z"/>
    <path class="cls-4" d="M162.12,156.82s-4.7-7.6-6.24-3.63S162.12,156.82,162.12,156.82Z"/>
    <path class="cls-5" d="M172.1,153.73s-3.51-11.2-6.74-6.61S172.1,153.73,172.1,153.73Z"/>
    <path class="cls-5" d="M174.16,161.22s-4-5.23-4.81-2.21S174.16,161.22,174.16,161.22Z"/>
    <path class="cls-5" d="M130.28,150.9s-4-5.23-4.81-2.21S130.28,150.9,130.28,150.9Z"/>
    <path class="cls-5" d="M230.25,154.65s5.19-4.1,2.14-4.87S230.25,154.65,230.25,154.65Z"/>
    <path class="cls-5" d="M239.32,141.91s5.19-4.1,2.14-4.87S239.32,141.91,239.32,141.91Z"/>
    <path class="cls-4" d="M158.67,144.45s-2.37-8.11-4.78-4.87S158.67,144.45,158.67,144.45Z"/>
  </g>
</svg>
