<svg id="Layer_1" data-name="Layer 1" xmlns="http://www.w3.org/2000/svg" xmlns:xlink="http://www.w3.org/1999/xlink" width="400" height="180" viewBox="0 0 400 180">
  <defs>
    <style>
      .cls-1, .cls-2, .cls-21, .cls-8 {
        fill: none;
      }

      .cls-14, .cls-15, .cls-16, .cls-2 {
        stroke: #dbdbdb;
      }

      .cls-2, .cls-6, .cls-7 {
        stroke-miterlimit: 10;
      }

      .cls-12, .cls-14, .cls-15, .cls-16, .cls-17, .cls-2, .cls-6, .cls-7, .cls-8 {
        stroke-width: 0.68px;
      }

      .cls-3 {
        clip-path: url(#clip-path);
      }

      .cls-4 {
        fill: #dbdbdb;
      }

      .cls-5 {
        fill: #f2f2f2;
      }

      .cls-6, .cls-9 {
        fill: #dd4e36;
      }

      .cls-21, .cls-6, .cls-7 {
        stroke: #e6e6e6;
      }

      .cls-11, .cls-7 {
        fill: #ccc;
      }

      .cls-8 {
        stroke: #fff;
      }

      .cls-12, .cls-14, .cls-15, .cls-16, .cls-17, .cls-21, .cls-8 {
        stroke-linecap: round;
        stroke-linejoin: round;
      }

      .cls-10 {
        fill: #e6e6e6;
      }

      .cls-12, .cls-14 {
        fill: #03d6fc;
      }

      .cls-12 {
        stroke: #03d6fc;
      }

      .cls-13 {
        clip-path: url(#clip-path-2);
      }

      .cls-15, .cls-17 {
        fill: #49e1fc;
      }

      .cls-16 {
        fill: #7ee9fc;
      }

      .cls-17 {
        stroke: #49e1fc;
      }

      .cls-18 {
        clip-path: url(#clip-path-3);
      }

      .cls-19 {
        clip-path: url(#clip-path-4);
      }

      .cls-20 {
        clip-path: url(#clip-path-5);
      }

      .cls-21 {
        stroke-width: 1.31px;
      }

      .cls-22 {
        fill: #73c9fe;
      }

      .cls-23 {
        fill: #38a4fc;
      }
    </style>
    <clipPath id="clip-path">
      <path id="SVGID" class="cls-1" d="M272.16,78.89S176.35,74.07,164,85.44c-.58.53.62,3.74-2.72,4.82-1.83.59-10.69.08-13.15.79-27.27,7.94-85.72,21.55-86.92,24.2-1.51,3.32,9.55,13.89,12.35,18.18s18.27,26.47,21.31,27.64,187.07.88,226.89-4.13c6-.78-4.75-27.28-6.3-27.41s-26.79-9.61-27-11.19l-.19-1.58s10.93.23,11.75-2.21-.54-9.12-6-11.11-24.59-5.68-23.69-13.12c10,.16,27.54,0,27.54,0l.22-2.8Z"/>
    </clipPath>
    <clipPath id="clip-path-2">
      <path id="SVGID-2" data-name="SVGID" class="cls-2" d="M164,85.44s-1.55,5.26,33.73,6.87c31.49,1.44,50.44,1.44,54.15,1.43a.88.88,0,0,1,.86.65l2,7.23a.88.88,0,0,1-.84,1.13c-8.45,0-60.75.16-83.61-2.63C152.69,98,144.32,97.09,164,85.44Z"/>
    </clipPath>
    <clipPath id="clip-path-3">
      <path id="SVGID-3" data-name="SVGID" class="cls-2" d="M109.32,129c0-2.15,0-2.59,17.77-5.32,3.88-.6,126.11-1.77,138.84-1.89a1.45,1.45,0,0,1,1.4,1l1.75,5.41a1.46,1.46,0,0,1-1.36,1.91l-115.87,2a5.68,5.68,0,0,1-3.35-1l-.83-.58a5.67,5.67,0,0,0-3.33-1c-3.57,0-11.8.18-19.4.46C116.74,130.25,109.31,130.61,109.32,129Z"/>
    </clipPath>
    <clipPath id="clip-path-4">
      <path id="SVGID-4" data-name="SVGID" class="cls-1" d="M267.26,92.88s1.12,6.94,3.28,9.6l-5.54-.43-4.1-9Z"/>
    </clipPath>
    <clipPath id="clip-path-5">
      <path id="SVGID-5" data-name="SVGID" class="cls-1" d="M274.36,120.34s1.26,6.34,3.35,8.09l-6.92-.54-3.46-8.06Z"/>
    </clipPath>
  </defs>
  <title>14_big_boat_moves_fast</title>
  <g>
    <g class="cls-3">
      <g>
        <polygon class="cls-4" points="300.38 85.37 203.88 84.61 62.71 126.5 96.53 171.9 328.17 164.28 319.3 118.56 300.38 85.37"/>
        <path class="cls-5" d="M66.78,127.74s2.94-2.47,6-2.56,36.54-5,55.06-10.25,52.61-14.25,59.69-15.51c0,0,11.15-10.25,37.84-10.75s72.73-1.17,72.73-1.17L267.36,74.36l-102.55,1L53.44,106.51Z"/>
      </g>
      <path class="cls-6" d="M70.64,135.19s19.64,7.81,73.43,7.4S322,139,322,139l6.2,21.92L86.49,164.46Z"/>
      <path class="cls-7" d="M270.43,90.38a.8.8,0,0,0-.22-.08,10.85,10.85,0,0,0-1.17-.12c-.75-.05-1.65,0-1.69.45-.08,1,1.8,15.95,10,15.21,1.11-.05.35.86.6,3s-1.64,4.81,12.08,4c2.14-.36,2.34-.5,2.42-6a.86.86,0,0,1,.83-.85c1.65-.06,3.15-.31,3.54-.76S272.23,91.34,270.43,90.38Z"/>
      <path class="cls-7" d="M289.29,116.83s-13-.6-14.29.13.59,13.77,8.08,13.67l36.23-.49Z"/>
    </g>
    <g>
      <g>
        <path class="cls-7" d="M98.69,105.72a2.48,2.48,0,0,0-1.23-.06c-5.08,1.31-31.89,8.26-33.21,9.84-1.46,1.74,5.6,9.71,8.52,9.68,2,0,21.74-2.9,33.47-5,5-.9,8.57-1.67,8.68-2,.36-1.16-4.9-3.43-4.1-3.5s3-1.09,2.15-2.08-3.83-.17-5.2.39c-1.09.44-5.31-3.68-7-5.35a.5.5,0,0,1,.25-.83c.86-.19,2-.59,2-1.34C103,104.38,99.93,106,98.69,105.72Z"/>
        <path class="cls-8" d="M105.52,120.24s-27.8-2-29.15-2.71S64.87,107,66.82,106.83s26.43,0,26.43,0"/>
        <path class="cls-8" d="M96.46,121.85c-8.52-.67-20.31-1.67-21.14-2.12C74,119,63.82,109.24,65.77,109c1.21-.12,11.31-.06,18.79,0"/>
        <path class="cls-8" d="M83.39,123.79a65.63,65.63,0,0,1-8.75-1.12C73.3,122,63.15,112.18,65.1,112c.74-.08,4.75-.08,9.46-.06"/>
        <path class="cls-8" d="M73.71,125.16c-1.35-.72-11.39-10.32-9.43-10.52.26,0,.95,0,1.93-.06"/>
        <g>
          <line class="cls-8" x1="67.25" y1="108.65" x2="66.15" y2="117.77"/>
          <line class="cls-8" x1="69.23" y1="110.96" x2="68.12" y2="120.08"/>
          <line class="cls-8" x1="71.22" y1="113.1" x2="70.11" y2="122.23"/>
          <line class="cls-8" x1="73.24" y1="114.8" x2="72.13" y2="123.93"/>
        </g>
      </g>
      <g>
        <rect class="cls-9" x="196.04" y="46.79" width="0.95" height="15.63" rx="0.47" ry="0.47" transform="translate(4.86 -15.18) rotate(4.48)"/>
        <rect class="cls-9" x="197.39" y="18.28" width="0.39" height="45.23" rx="0.2" ry="0.2" transform="translate(3.8 -15.31) rotate(4.48)"/>
        <rect class="cls-10" x="194.99" y="48.66" width="1.73" height="28.53" rx="0.86" ry="0.86" transform="translate(5.51 -15.1) rotate(4.48)"/>
        <path class="cls-11" d="M187.08,84.43l8.72-.53a.68.68,0,0,0,.64-.64l.36-7a.68.68,0,0,0-.62-.71l-2.46-.19a.68.68,0,0,0-.57.23l-6.63,7.69A.68.68,0,0,0,187.08,84.43Z"/>
      </g>
      <g>
        <g>
          <path class="cls-12" d="M164,85.44s-1.55,5.26,33.73,6.87c31.49,1.44,50.44,1.44,54.15,1.43a.88.88,0,0,1,.86.65l2,7.23a.88.88,0,0,1-.84,1.13c-8.45,0-60.75.16-83.61-2.63C152.69,98,144.32,97.09,164,85.44Z"/>
          <g>
            <g class="cls-13">
              <g>
                <polygon class="cls-14" points="168.3 86.47 150 98.51 147.51 94.62 165.23 83.64 168.3 86.47"/>
                <polygon class="cls-15" points="171.56 89.12 153.64 101.71 151.03 97.91 168.41 86.38 171.56 89.12"/>
                <polygon class="cls-16" points="177.9 89.82 160.18 102.69 157.51 98.92 174.71 87.13 177.9 89.82"/>
              </g>
            </g>
            <path id="SVGID-6" data-name="SVGID" class="cls-2" d="M164,85.44s-1.55,5.26,33.73,6.87c31.49,1.44,50.44,1.44,54.15,1.43a.88.88,0,0,1,.86.65l2,7.23a.88.88,0,0,1-.84,1.13c-8.45,0-60.75.16-83.61-2.63C152.69,98,144.32,97.09,164,85.44Z"/>
          </g>
        </g>
        <polygon class="cls-7" points="141.27 111.36 267.02 110.81 265.81 107.43 153.2 107.97 141.27 111.36"/>
        <path class="cls-7" d="M155.6,138,279,135.5l-1.27-3.36-112.54,2.31h-.09l-9.57,2.88A.32.32,0,0,0,155.6,138Z"/>
        <g>
          <path class="cls-17" d="M109.32,129c0-2.15,0-2.59,17.77-5.32,3.88-.6,126.11-1.77,138.84-1.89a1.45,1.45,0,0,1,1.4,1l1.75,5.41a1.46,1.46,0,0,1-1.36,1.91l-115.87,2a5.68,5.68,0,0,1-3.35-1l-.83-.58a5.67,5.67,0,0,0-3.33-1c-3.57,0-11.8.18-19.4.46C116.74,130.25,109.31,130.61,109.32,129Z"/>
          <g>
            <g class="cls-18">
              <g>
                <rect class="cls-14" x="107.38" y="117.54" width="17.75" height="19.18" transform="translate(-1.61 1.49) rotate(-0.73)"/>
                <rect class="cls-14" x="125.49" y="117.31" width="17.75" height="19.18" transform="translate(-1.6 1.72) rotate(-0.73)"/>
                <rect class="cls-14" x="143.59" y="117.08" width="17.75" height="19.18" transform="translate(-1.6 1.95) rotate(-0.73)"/>
                <rect class="cls-14" x="161.7" y="116.85" width="17.75" height="19.18" transform="translate(-1.59 2.18) rotate(-0.73)"/>
                <rect class="cls-14" x="179.81" y="116.62" width="17.75" height="19.18" transform="translate(-1.59 2.41) rotate(-0.73)"/>
                <rect class="cls-14" x="197.91" y="116.39" width="17.75" height="19.18" transform="translate(-1.58 2.64) rotate(-0.73)"/>
                <rect class="cls-14" x="216.02" y="116.16" width="17.75" height="19.18" transform="translate(-1.58 2.87) rotate(-0.73)"/>
                <rect class="cls-14" x="234.12" y="115.93" width="17.75" height="19.18" transform="translate(-1.57 3.1) rotate(-0.73)"/>
                <rect class="cls-14" x="252.23" y="115.7" width="17.75" height="19.18" transform="translate(-1.57 3.33) rotate(-0.73)"/>
              </g>
            </g>
            <path id="SVGID-7" data-name="SVGID" class="cls-2" d="M109.32,129c0-2.15,0-2.59,17.77-5.32,3.88-.6,126.11-1.77,138.84-1.89a1.45,1.45,0,0,1,1.4,1l1.75,5.41a1.46,1.46,0,0,1-1.36,1.91l-115.87,2a5.68,5.68,0,0,1-3.35-1l-.83-.58a5.67,5.67,0,0,0-3.33-1c-3.57,0-11.8.18-19.4.46C116.74,130.25,109.31,130.61,109.32,129Z"/>
          </g>
        </g>
      </g>
      <g>
        <g class="cls-19">
          <g>
            <polygon class="cls-9" points="268.69 94.36 262.03 93.84 263.83 95.94 269.11 96.36 268.69 94.36"/>
            <polygon class="cls-9" points="269.67 97.03 263.01 96.51 264.81 98.61 270.08 99.03 269.67 97.03"/>
            <polygon class="cls-9" points="270.86 99.83 264.2 99.31 265.99 101.41 271.27 101.82 270.86 99.83"/>
          </g>
        </g>
        <g class="cls-20">
          <g>
            <polygon class="cls-9" points="274.76 120.76 268.1 120.24 269.9 122.34 275.18 122.75 274.76 120.76"/>
            <polygon class="cls-9" points="275.85 123.44 269.19 122.92 270.98 125.02 276.26 125.43 275.85 123.44"/>
            <polygon class="cls-9" points="277.18 126.24 270.52 125.72 272.31 127.82 277.59 128.24 277.18 126.24"/>
          </g>
        </g>
      </g>
    </g>
    <line class="cls-21" x1="278.39" y1="106.22" x2="292.19" y2="106.27"/>
    <line class="cls-21" x1="278.36" y1="109.2" x2="292.02" y2="109.24"/>
  </g>
  <g>
    <path class="cls-22" d="M316.71,154.42s12.24-1.13,8.28-5.46S316.71,154.42,316.71,154.42Z"/>
    <path class="cls-23" d="M342.86,142.28s8.85,4.14,7.88-.42S342.86,142.28,342.86,142.28Z"/>
    <path class="cls-23" d="M359.52,124.61s8.85,4.14,7.88-.42S359.52,124.61,359.52,124.61Z"/>
    <path class="cls-23" d="M349.19,119.94s8.85,4.14,7.88-.42S349.19,119.94,349.19,119.94Z"/>
    <path class="cls-23" d="M325.1,105.28S334.6,103,331,100,325.1,105.28,325.1,105.28Z"/>
    <path class="cls-22" d="M356.09,137.15s8.39,8,9,2.53S356.09,137.15,356.09,137.15Z"/>
    <path class="cls-22" d="M340.93,132.57s12.12,2,9.4-3.17S340.93,132.57,340.93,132.57Z"/>
    <path class="cls-22" d="M335.59,116.57s12.12,2,9.4-3.17S335.59,116.57,335.59,116.57Z"/>
    <path class="cls-23" d="M318,126.5s14.67-6.76,7.88-10.4S318,126.5,318,126.5Z"/>
    <path class="cls-23" d="M325,131.23s16.12,1,11.87-5.41S325,131.23,325,131.23Z"/>
    <path class="cls-22" d="M304.41,148.23s15.75-3.6,9.84-8.56S304.41,148.23,304.41,148.23Z"/>
    <path class="cls-22" d="M329.29,142.88s11.6-.63,8-4.86S329.29,142.88,329.29,142.88Z"/>
  </g>
  <g>
    <path class="cls-22" d="M54.69,132.35s-4.26-11.52-7.42-6.58S54.69,132.35,54.69,132.35Z"/>
    <path class="cls-22" d="M42.19,133.83s-9.25-8-9.65-2.2S42.19,133.83,42.19,133.83Z"/>
    <path class="cls-23" d="M46.58,115.77s-4-15.65-8.82-9.61S46.58,115.77,46.58,115.77Z"/>
    <path class="cls-22" d="M59.44,125.47s-.72-16.14-6.66-11.22S59.44,125.47,59.44,125.47Z"/>
    <path class="cls-22" d="M59.08,146.81s-8.19-8.24-9-2.75S59.08,146.81,59.08,146.81Z"/>
    <path class="cls-22" d="M82.45,151.13s-6.12-5.49-6.45-1.58S82.45,151.13,82.45,151.13Z"/>
    <path class="cls-23" d="M72.46,143.85s-7.27-8-8.22-2.93S72.46,143.85,72.46,143.85Z"/>
    <path class="cls-22" d="M83.1,145.57s-5.47-9.33-7.44-4.56S83.1,145.57,83.1,145.57Z"/>
    <path class="cls-22" d="M75.55,133.14s.12-7.77-2.87-5.58S75.55,133.14,75.55,133.14Z"/>
  </g>
  <g>
    <path class="cls-22" d="M228.34,143.74s2.57-8.17,4.93-4.84S228.34,143.74,228.34,143.74Z"/>
    <path class="cls-23" d="M240,140.57s1.75-7.45,4.11-4.64S240,140.57,240,140.57Z"/>
    <path class="cls-23" d="M161.75,144.3s-7.51-1.46-4.8-3.92S161.75,144.3,161.75,144.3Z"/>
    <path class="cls-23" d="M103.16,158.53s-7.63.62-5.68-2.48S103.16,158.53,103.16,158.53Z"/>
    <path class="cls-23" d="M142.2,155.8s-7.39,2-6-1.41S142.2,155.8,142.2,155.8Z"/>
    <path class="cls-22" d="M223.29,158s3.49-8.23,5.62-4.53S223.29,158,223.29,158Z"/>
    <path class="cls-22" d="M266.86,156.58s2.54-6,4.09-3.3S266.86,156.58,266.86,156.58Z"/>
    <path class="cls-22" d="M265.22,145.89s3.49-8.23,5.62-4.53S265.22,145.89,265.22,145.89Z"/>
    <path class="cls-22" d="M170.54,160.1s-6.75-1.46-4.25-3.6S170.54,160.1,170.54,160.1Z"/>
    <path class="cls-22" d="M161.68,153.51s-6.83-.55-4.66-3S161.68,153.51,161.68,153.51Z"/>
    <path class="cls-22" d="M171.19,152s-7.65-4.63-3.69-6.2S171.19,152,171.19,152Z"/>
    <path class="cls-22" d="M195.19,158.31s-7.65-4.63-3.69-6.2S195.19,158.31,195.19,158.31Z"/>
    <path class="cls-22" d="M130,151s-8.93.43-6.52-3.09S130,151,130,151Z"/>
    <path class="cls-22" d="M140.85,145.12s-5.59.1-4-2.06S140.85,145.12,140.85,145.12Z"/>
    <path class="cls-22" d="M247.71,155.67s4.7-7.6,6.24-3.63S247.71,155.67,247.71,155.67Z"/>
    <path class="cls-23" d="M237.73,152.58s3.51-11.2,6.74-6.61S237.73,152.58,237.73,152.58Z"/>
    <path class="cls-23" d="M235.67,160.07s4-5.23,4.81-2.21S235.67,160.07,235.67,160.07Z"/>
    <path class="cls-23" d="M279.55,149.75s4-5.23,4.81-2.21S279.55,149.75,279.55,149.75Z"/>
    <path class="cls-23" d="M179.58,153.51s-5.19-4.1-2.14-4.87S179.58,153.51,179.58,153.51Z"/>
    <path class="cls-23" d="M170.51,140.77s-5.19-4.1-2.14-4.87S170.51,140.77,170.51,140.77Z"/>
    <path class="cls-22" d="M251.16,143.3s2.37-8.11,4.78-4.87S251.16,143.3,251.16,143.3Z"/>
  </g>
</svg>
