<svg id="Layer_1" data-name="Layer 1" xmlns="http://www.w3.org/2000/svg" xmlns:xlink="http://www.w3.org/1999/xlink" width="400" height="180" viewBox="0 0 400 180">
  <defs>
    <style>
      .cls-1, .cls-11, .cls-2, .cls-24 {
        fill: none;
      }

      .cls-17, .cls-18, .cls-19, .cls-2 {
        stroke: #dbdbdb;
      }

      .cls-10, .cls-2, .cls-9 {
        stroke-miterlimit: 10;
      }

      .cls-10, .cls-11, .cls-15, .cls-17, .cls-18, .cls-19, .cls-2, .cls-20, .cls-9 {
        stroke-width: 0.68px;
      }

      .cls-3 {
        fill: #fff;
      }

      .cls-4 {
        fill: #73c9fe;
      }

      .cls-5 {
        fill: #38a4fc;
      }

      .cls-6 {
        clip-path: url(#clip-path);
      }

      .cls-7 {
        fill: #dbdbdb;
      }

      .cls-8 {
        fill: #f2f2f2;
      }

      .cls-12, .cls-9 {
        fill: #dd4e36;
      }

      .cls-10, .cls-24, .cls-9 {
        stroke: #e6e6e6;
      }

      .cls-10, .cls-14 {
        fill: #ccc;
      }

      .cls-11 {
        stroke: #fff;
      }

      .cls-11, .cls-15, .cls-17, .cls-18, .cls-19, .cls-20, .cls-24 {
        stroke-linecap: round;
        stroke-linejoin: round;
      }

      .cls-13 {
        fill: #e6e6e6;
      }

      .cls-15, .cls-17 {
        fill: #03d6fc;
      }

      .cls-15 {
        stroke: #03d6fc;
      }

      .cls-16 {
        clip-path: url(#clip-path-2);
      }

      .cls-18, .cls-20 {
        fill: #49e1fc;
      }

      .cls-19 {
        fill: #7ee9fc;
      }

      .cls-20 {
        stroke: #49e1fc;
      }

      .cls-21 {
        clip-path: url(#clip-path-3);
      }

      .cls-22 {
        clip-path: url(#clip-path-4);
      }

      .cls-23 {
        clip-path: url(#clip-path-5);
      }

      .cls-24 {
        stroke-width: 1.31px;
      }
    </style>
    <clipPath id="clip-path">
      <path id="SVGID" class="cls-1" d="M301.32,86.11s-87.32-39.73-103-33.7c-.73.28-.8,3.71-4.3,3.48-1.92-.12-10-3.86-12.52-4.1-28.28-2.64-87.63-11.49-89.73-9.47-2.63,2.53,3.77,16.43,4.79,21.45s7.25,31.33,9.64,33.54,173.63,69.64,212.5,79.62c5.87,1.48,5.62-27.12,4.22-27.8s-21.37-18.79-21-20.33l.41-1.54s10.08,4.24,11.74,2.27,2.85-8.68-1.51-12.54-20.78-14.33-17.21-20.92c9.24,3.83,25.62,10.1,25.62,10.1l1.23-2.52Z"/>
    </clipPath>
    <clipPath id="clip-path-2">
      <path id="SVGID-2" data-name="SVGID" class="cls-2" d="M198.33,52.41s-3.38,4.32,28.84,18.8c28.76,12.93,46.38,19.9,49.83,21.25a.88.88,0,0,1,.56.92l-.76,7.48a.88.88,0,0,1-1.2.74c-7.87-3.07-56.55-22.2-76.79-33.2C183.2,59.91,175.74,56,198.33,52.41Z"/>
    </clipPath>
    <clipPath id="clip-path-3">
      <path id="SVGID-3" data-name="SVGID" class="cls-2" d="M131.46,72.82c.81-2,1-2.4,18.48,1.59,3.83.87,117.92,44.75,129.8,49.32a1.45,1.45,0,0,1,.93,1.45l-.37,5.67a1.46,1.46,0,0,1-2,1.27L169.86,91.35a5.68,5.68,0,0,1-2.74-2.18l-.56-.85a5.67,5.67,0,0,0-2.72-2.18c-3.34-1.27-11-4.17-18.21-6.71C137.9,76.69,130.86,74.3,131.46,72.82Z"/>
    </clipPath>
    <clipPath id="clip-path-4">
      <path id="SVGID-4" data-name="SVGID" class="cls-1" d="M291.61,97.32s-1.51,6.86-.48,10.14l-5-2.44-.51-9.84Z"/>
    </clipPath>
    <clipPath id="clip-path-5">
      <path id="SVGID-5" data-name="SVGID" class="cls-1" d="M288.12,125.46s-1.16,6.36.14,8.75l-6.24-3-.25-8.77Z"/>
    </clipPath>
  </defs>
  <title>14_big_boat_moves_fast</title>
  <path class="cls-3" d="M233.43,121.26l14.51-6.6,5.33-2.42c1.71-.75,3.33-1.4,4.71-2,2.77-1.12,4.66-1.78,4.66-1.78l0,.06s-1.77.93-4.47,2.21c-1.36.63-2.93,1.37-4.65,2.12l-5.39,2.27-14.7,6.17Z"/>
  <path class="cls-3" d="M288.35,111l15.71-2.73,5.77-1c1.84-.29,3.57-.52,5.06-.72,3-.38,5-.55,5-.55v.07s-1.95.46-4.88,1c-1.47.27-3.18.59-5,.88l-5.79.84-15.78,2.27Z"/>
  <path class="cls-3" d="M171,85.46s4.44.65,8.86,1.36l3.25.5c1,.19,2,.41,2.81.59,1.64.39,2.72.72,2.72.72v.07s-1.13-.06-2.8-.27c-.83-.11-1.81-.24-2.84-.43l-3.22-.66c-4.39-.88-8.78-1.81-8.78-1.81Z"/>
  <path class="cls-3" d="M183.37,93.88l10.22,1.66,3.75.61c1.19.22,2.3.47,3.24.69,1.89.44,3.14.82,3.14.82v.07s-1.3-.1-3.22-.36c-1-.14-2.08-.3-3.27-.52l-3.72-.77-10.13-2.12Z"/>
  <path class="cls-3" d="M105.39,63.83s4.44-.6,8.89-1.14l3.27-.41c1-.11,2-.16,2.86-.21,1.68-.08,2.81-.05,2.81-.05v.07s-1.1.25-2.76.51c-.83.12-1.8.27-2.85.37l-3.28.25c-4.47.37-8.94.68-8.94.68Z"/>
  <path class="cls-3" d="M116.08,66.21,126.36,65l3.77-.44c1.21-.12,2.34-.18,3.31-.24,1.94-.1,3.24-.08,3.24-.08v.07s-1.27.26-3.2.54c-1,.13-2.08.28-3.29.4l-3.79.28-10.32.76Z"/>
  <path class="cls-3" d="M250.87,107.37,264.42,100l5-2.72c1.6-.85,3.11-1.59,4.41-2.24,2.6-1.28,4.37-2.06,4.37-2.06l0,.06s-1.64,1-4.16,2.45c-1.26.71-2.74,1.54-4.33,2.38l-5,2.58-13.76,7Z"/>
  <g>
    <path class="cls-4" d="M338,168.87s12.24-1.13,8.28-5.46S338,168.87,338,168.87Z"/>
    <path class="cls-5" d="M364.11,156.74s8.85,4.14,7.88-.42S364.11,156.74,364.11,156.74Z"/>
    <path class="cls-4" d="M377.35,151.61s8.39,8,9,2.53S377.35,151.61,377.35,151.61Z"/>
    <path class="cls-4" d="M362.18,147s12.12,2,9.4-3.17S362.18,147,362.18,147Z"/>
    <path class="cls-5" d="M339.24,141s14.67-6.76,7.88-10.4S339.24,141,339.24,141Z"/>
    <path class="cls-5" d="M346.27,145.68s16.12,1,11.87-5.41S346.27,145.68,346.27,145.68Z"/>
    <path class="cls-4" d="M325.66,162.69s15.75-3.6,9.84-8.56S325.66,162.69,325.66,162.69Z"/>
    <path class="cls-4" d="M357.66,130.52s15.75-3.6,9.84-8.56S357.66,130.52,357.66,130.52Z"/>
    <path class="cls-4" d="M350.55,157.34s11.6-.63,8-4.86S350.55,157.34,350.55,157.34Z"/>
  </g>
  <g>
    <path class="cls-4" d="M83.11,89.36s-3.89-10.51-6.77-6S83.11,89.36,83.11,89.36Z"/>
    <path class="cls-5" d="M75.71,74.23S72,60,67.67,65.47,75.71,74.23,75.71,74.23Z"/>
    <path class="cls-5" d="M58.73,43.56s-10.8-10-11.5-3S58.73,43.56,58.73,43.56Z"/>
    <path class="cls-5" d="M50.43,63.47s-14.68-1.31-10.95,4.65S50.43,63.47,50.43,63.47Z"/>
    <path class="cls-5" d="M75.55,61.81s3.55-14.3-2.92-11.53S75.55,61.81,75.55,61.81Z"/>
    <path class="cls-4" d="M87.44,83.08s-.66-14.72-6.07-10.23S87.44,83.08,87.44,83.08Z"/>
    <path class="cls-4" d="M71.65,91.48s-10-6.22-9.48-.63S71.65,91.48,71.65,91.48Z"/>
    <path class="cls-4" d="M61.48,78.07s-.66-14.72-6.07-10.23S61.48,78.07,61.48,78.07Z"/>
    <path class="cls-4" d="M33.36,70.78s-7-6-7.26-1.59S33.36,70.78,33.36,70.78Z"/>
    <path class="cls-4" d="M62.9,61.82s-4.74-14-8.68-8.13S62.9,61.82,62.9,61.82Z"/>
    <path class="cls-4" d="M43.57,52.15s-8.86-9.53-9.93-3.41S43.57,52.15,43.57,52.15Z"/>
    <path class="cls-4" d="M86.25,63.29s5.09-9.29.09-8.55S86.25,63.29,86.25,63.29Z"/>
    <path class="cls-4" d="M108.42,106.49s-5.58-5-5.88-1.44S108.42,106.49,108.42,106.49Z"/>
    <path class="cls-4" d="M84.89,102.8s-5.58-5-5.88-1.44S84.89,102.8,84.89,102.8Z"/>
    <path class="cls-5" d="M99.32,99.84s-6.63-7.3-7.5-2.68S99.32,99.84,99.32,99.84Z"/>
    <path class="cls-5" d="M50,82.71s-8.13-5.59-7.91-.89S50,82.71,50,82.71Z"/>
    <path class="cls-4" d="M109,101.42s-5-8.51-6.79-4.16S109,101.42,109,101.42Z"/>
    <path class="cls-4" d="M97.58,87.34s.11-7.09-2.62-5.09S97.58,87.34,97.58,87.34Z"/>
  </g>
  <g>
    <g class="cls-6">
      <g>
        <polygon class="cls-7" points="325.17 102.52 235.73 66.31 89.04 53.33 103.79 107.99 321.99 186.12 330.55 140.34 325.17 102.52"/>
        <path class="cls-8" d="M92.37,56s3.64-1.21,6.49-.19,35.81,8.81,55,10.72,54.16,6.1,61.21,7.54c0,0,14.14-5.43,39.14,3.93s68.06,25.67,68.06,25.67L298.52,80.13,202.78,43.36l-115-12Z"/>
      </g>
      <path class="cls-9" d="M93.22,64.33s15.39,14.48,65.55,33.89,166.74,62.15,166.74,62.15L323.22,183l-226-85.66Z"/>
      <path class="cls-10" d="M295.48,96.16a.8.8,0,0,0-.18-.16,10.85,10.85,0,0,0-1-.54c-.68-.32-1.51-.65-1.73-.2-.43.87-4.19,15.49,3.74,17.83,1.05.36,0,.93-.53,3s-3.29,3.87,9.77,8.14c2.13.45,2.36.39,4.46-4.71a.86.86,0,0,1,1.08-.48c1.55.55,3,.87,3.57.6S296.81,97.71,295.48,96.16Z"/>
      <path class="cls-10" d="M303.29,127.69s-11.85-5.34-13.34-5.14-4.52,13,2.49,15.68l33.87,12.87Z"/>
    </g>
    <g>
      <g>
        <path class="cls-10" d="M130.14,47.24a2.48,2.48,0,0,0-1.13-.51c-5.21-.65-32.69-4-34.5-3.07-2,1.08,1.63,11.09,4.36,12.13,1.91.73,21.28,5.3,33,7.65,5,1,8.59,1.6,8.81,1.31.76-1-3.29-5-2.52-4.76s3.19.09,2.77-1.15-3.5-1.56-5-1.55c-1.18,0-3.58-5.38-4.5-7.53a.5.5,0,0,1,.54-.68c.87.14,2.09.19,2.35-.51C134.66,47.59,131.18,48,130.14,47.24Z"/>
        <path class="cls-11" d="M131.15,63.26S106,51.18,105,50s-6.83-14-4.94-13.46,24.56,9.77,24.56,9.77"/>
        <path class="cls-11" d="M122.13,61.43c-7.68-3.76-18.27-9-18.88-9.75-1-1.17-6.83-14-4.94-13.46,1.17.33,10.54,4.11,17.47,6.92"/>
        <path class="cls-11" d="M109.27,58.42a65.63,65.63,0,0,1-7.72-4.26c-1-1.17-6.83-14-4.94-13.46.71.2,4.44,1.67,8.81,3.42"/>
        <path class="cls-11" d="M99.76,56.14c-1-1.17-6.79-13.79-4.9-13.25.25.07.9.31,1.81.66"/>
        <g>
          <line class="cls-11" x1="99.83" y1="38.41" x2="95.45" y2="46.48"/>
          <line class="cls-11" x1="100.82" y1="41.28" x2="96.43" y2="49.36"/>
          <line class="cls-11" x1="101.88" y1="44.01" x2="97.49" y2="52.08"/>
          <line class="cls-11" x1="103.13" y1="46.33" x2="98.75" y2="54.41"/>
        </g>
      </g>
      <g>
        <rect class="cls-12" x="239.43" y="27.88" width="0.95" height="15.63" rx="0.47" ry="0.47" transform="translate(40.08 -101.77) rotate(26.06)"/>
        <rect class="cls-12" x="245.75" y="0.73" width="0.39" height="45.23" rx="0.2" ry="0.2" transform="translate(35.27 -105.69) rotate(26.06)"/>
        <rect class="cls-13" x="235.37" y="28.93" width="1.73" height="28.53" rx="0.86" ry="0.86" transform="translate(43 -99.4) rotate(26.06)"/>
        <path class="cls-14" d="M220.16,60l8.31,2.71a.68.68,0,0,0,.83-.36l2.9-6.35a.68.68,0,0,0-.32-.89L229.66,54a.68.68,0,0,0-.61,0l-9,4.72A.68.68,0,0,0,220.16,60Z"/>
      </g>
      <g>
        <g>
          <path class="cls-15" d="M198.33,52.41s-3.38,4.32,28.84,18.8c28.76,12.93,46.38,19.9,49.83,21.25a.88.88,0,0,1,.56.92l-.76,7.48a.88.88,0,0,1-1.2.74c-7.87-3.07-56.55-22.2-76.79-33.2C183.2,59.91,175.74,56,198.33,52.41Z"/>
          <g>
            <g class="cls-16">
              <g>
                <polygon class="cls-17" points="201.95 54.95 180.51 59.41 179.62 54.88 200.14 51.19 201.95 54.95"/>
                <polygon class="cls-18" points="204.01 58.62 182.72 63.73 181.69 59.23 202.09 54.91 204.01 58.62"/>
                <polygon class="cls-19" points="209.65 61.6 188.44 67.05 187.34 62.56 207.66 57.92 209.65 61.6"/>
              </g>
            </g>
            <path id="SVGID-6" data-name="SVGID" class="cls-2" d="M198.33,52.41s-3.38,4.32,28.84,18.8c28.76,12.93,46.38,19.9,49.83,21.25a.88.88,0,0,1,.56.92l-.76,7.48a.88.88,0,0,1-1.2.74c-7.87-3.07-56.55-22.2-76.79-33.2C183.2,59.91,175.74,56,198.33,52.41Z"/>
          </g>
        </g>
        <polygon class="cls-10" points="167.66 68.15 284.8 113.9 284.91 110.31 180 69.4 167.66 68.15"/>
        <path class="cls-10" d="M171.2,98.17l115.62,43.09.06-3.59L181.39,98.41l-.09,0-10-.85A.32.32,0,0,0,171.2,98.17Z"/>
        <g>
          <path class="cls-20" d="M131.46,72.82c.81-2,1-2.4,18.48,1.59,3.83.87,117.92,44.75,129.8,49.32a1.45,1.45,0,0,1,.93,1.45l-.37,5.67a1.46,1.46,0,0,1-2,1.27L169.86,91.35a5.68,5.68,0,0,1-2.74-2.18l-.56-.85a5.67,5.67,0,0,0-2.72-2.18c-3.34-1.27-11-4.17-18.21-6.71C137.9,76.69,130.86,74.3,131.46,72.82Z"/>
          <g>
            <g class="cls-21">
              <g>
                <rect class="cls-17" x="129.73" y="64.03" width="17.75" height="19.18" transform="translate(35.29 -44.52) rotate(20.86)"/>
                <rect class="cls-17" x="146.65" y="70.47" width="17.75" height="19.18" transform="translate(38.69 -50.12) rotate(20.86)"/>
                <rect class="cls-17" x="163.57" y="76.92" width="17.75" height="19.18" transform="translate(42.1 -55.72) rotate(20.86)"/>
                <rect class="cls-17" x="180.49" y="83.37" width="17.75" height="19.18" transform="translate(45.5 -61.33) rotate(20.86)"/>
                <rect class="cls-17" x="197.41" y="89.81" width="17.75" height="19.18" transform="translate(48.91 -66.93) rotate(20.86)"/>
                <rect class="cls-17" x="214.33" y="96.26" width="17.75" height="19.18" transform="translate(52.31 -72.53) rotate(20.86)"/>
                <rect class="cls-17" x="231.25" y="102.7" width="17.75" height="19.18" transform="translate(55.71 -78.13) rotate(20.86)"/>
                <rect class="cls-17" x="248.17" y="109.15" width="17.75" height="19.18" transform="translate(59.12 -83.73) rotate(20.86)"/>
                <rect class="cls-17" x="265.09" y="115.6" width="17.75" height="19.18" transform="translate(62.52 -89.33) rotate(20.86)"/>
              </g>
            </g>
            <path id="SVGID-7" data-name="SVGID" class="cls-2" d="M131.46,72.82c.81-2,1-2.4,18.48,1.59,3.83.87,117.92,44.75,129.8,49.32a1.45,1.45,0,0,1,.93,1.45l-.37,5.67a1.46,1.46,0,0,1-2,1.27L169.86,91.35a5.68,5.68,0,0,1-2.74-2.18l-.56-.85a5.67,5.67,0,0,0-2.72-2.18c-3.34-1.27-11-4.17-18.21-6.71C137.9,76.69,130.86,74.3,131.46,72.82Z"/>
          </g>
        </g>
      </g>
      <g>
        <g class="cls-22">
          <g>
            <polygon class="cls-12" points="292.4 99.22 286.4 96.29 287.3 98.9 292.05 101.23 292.4 99.22"/>
            <polygon class="cls-12" points="292.33 102.06 286.33 99.13 287.23 101.74 291.98 104.07 292.33 102.06"/>
            <polygon class="cls-12" points="292.4 105.1 286.4 102.17 287.3 104.78 292.06 107.11 292.4 105.1"/>
          </g>
        </g>
        <g class="cls-23">
          <g>
            <polygon class="cls-12" points="288.33 126 282.33 123.06 283.23 125.68 287.99 128.01 288.33 126"/>
            <polygon class="cls-12" points="288.36 128.89 282.36 125.95 283.26 128.57 288.01 130.9 288.36 128.89"/>
            <polygon class="cls-12" points="288.56 131.99 282.56 129.05 283.46 131.67 288.22 133.99 288.56 131.99"/>
          </g>
        </g>
      </g>
    </g>
    <line class="cls-24" x1="297.06" y1="113.82" x2="309.87" y2="118.94"/>
    <line class="cls-24" x1="295.93" y1="116.58" x2="308.62" y2="121.64"/>
  </g>
  <path class="cls-3" d="M165.59,124.93l15.71,2.71,5.77,1c1.84.34,3.54.71,5,1,2.92.64,4.85,1.15,4.85,1.15v.07s-2-.23-4.94-.69c-1.48-.24-3.2-.52-5-.86l-5.74-1.16L165.57,125Z"/>
  <g>
    <path class="cls-4" d="M180.67,121s-6.76,5.23-2.83,6.3S180.67,121,180.67,121Z"/>
    <path class="cls-5" d="M160.46,113.75s-6.85,3.36-3.61,5S160.46,113.75,160.46,113.75Z"/>
    <path class="cls-5" d="M230.94,155.27S238.09,158,235,160,230.94,155.27,230.94,155.27Z"/>
    <path class="cls-5" d="M197.15,138.62s-7.21,2.57-4.16,4.6S197.15,138.62,197.15,138.62Z"/>
    <path class="cls-5" d="M252.16,147.28s7.62-.7,5.71,2.42S252.16,147.28,252.16,147.28Z"/>
    <path class="cls-4" d="M159.4,143.54s-6.72,5.9-2.54,6.76S159.4,143.54,159.4,143.54Z"/>
    <path class="cls-4" d="M132.6,126.91s-6,2.58-3.27,4.11S132.6,126.91,132.6,126.91Z"/>
    <path class="cls-4" d="M138.78,106.8s-8.29-3.34-7.18.78S138.78,106.8,138.78,106.8Z"/>
    <path class="cls-4" d="M225,138.21s6.4,2.59,3.57,4.28S225,138.21,225,138.21Z"/>
    <path class="cls-4" d="M232.58,146.21s6.64,1.71,4.08,3.74S232.58,146.21,232.58,146.21Z"/>
    <path class="cls-4" d="M222.94,146.1s6.75,5.86,2.57,6.74S222.94,146.1,222.94,146.1Z"/>
    <path class="cls-4" d="M263.38,154s8.87,1.1,5.9,4.16S263.38,154,263.38,154Z"/>
    <path class="cls-4" d="M251.67,158s5.53.86,3.61,2.71S251.67,158,251.67,158Z"/>
    <path class="cls-4" d="M155.93,124.34s-8.66,2.21-5.33,4.87S155.93,124.34,155.93,124.34Z"/>
    <path class="cls-5" d="M122.46,121.68s-11.66-1-8.64,3.73S122.46,121.68,122.46,121.68Z"/>
    <path class="cls-5" d="M162.63,132.05s-5.29,3.86-2.34,4.76S162.63,132.05,162.63,132.05Z"/>
    <path class="cls-5" d="M127.15,114.88s-6.43-1.33-5.06,1.49S127.15,114.88,127.15,114.88Z"/>
    <path class="cls-5" d="M214.94,143.16s4.41,4.93,1.28,5.16S214.94,143.16,214.94,143.16Z"/>
    <path class="cls-5" d="M221.7,157.26s4.41,4.93,1.28,5.16S221.7,157.26,221.7,157.26Z"/>
    <path class="cls-4" d="M143.29,116.84s-8.2-2.07-6.62,1.64S143.29,116.84,143.29,116.84Z"/>
  </g>
</svg>
