<svg id="Layer_5" data-name="Layer 5" xmlns="http://www.w3.org/2000/svg" xmlns:xlink="http://www.w3.org/1999/xlink" viewBox="0 0 260 168"><defs><style>.cls-1{fill:#f4a947;}.cls-2{fill:#ff1515;}.cls-3{clip-path:url(#clip-path);}.cls-4{fill:#f98e0d;}.cls-5{fill:#ffe38a;}.cls-6{clip-path:url(#clip-path-2);}.cls-7{fill:#e51a1a;}.cls-8{clip-path:url(#clip-path-3);}.cls-9{fill:#af0c0c;}.cls-10{fill:#f7b03e;}.cls-11{fill:#f9cc3d;}.cls-12{fill:none;stroke:#af0c0c;stroke-linecap:round;stroke-linejoin:round;}.cls-13{clip-path:url(#clip-path-4);}.cls-14{clip-path:url(#clip-path-5);}</style><clipPath id="clip-path"><path class="cls-1" d="M150.57,131.78a62.65,62.65,0,0,0-16-1.43A35.61,35.61,0,0,1,150.7,126a31.49,31.49,0,0,0-9.51-3A30.69,30.69,0,0,1,156,121.76l-2.79-4.61a27.7,27.7,0,0,1,6.47,2.35,11.71,11.71,0,0,1,8.88-6.41l-1.75,3.72a21.23,21.23,0,0,1,20.45-2.48l-4.06,3.34a17.06,17.06,0,0,1,11.28,4.86L192.31,124a15.44,15.44,0,0,1,13.42,7.61,16.45,16.45,0,0,0-8-1.11,8.46,8.46,0,0,1,5.82,5.29,14.62,14.62,0,0,0-7.69-.22,14.07,14.07,0,0,1,3.45,2.46,66.17,66.17,0,0,0-9.74-.69,9.52,9.52,0,0,1,1.62,2.36l-4.17-.89a1,1,0,0,0-.76,0c-.23.13-.3.53-.06.64l-4.9-.35a5.37,5.37,0,0,0,.13,2.64q-3.26-1-6.57-1.66l.28,1.85L172,140.17c-1.3.21-2.61.42-3.93.66-1.5.26-3.8-.29-3.36-1.75a26.61,26.61,0,0,1-6.3,1.28,3.24,3.24,0,0,1,1.18-2.12,39.74,39.74,0,0,0-11.46.75l3.29-2.29a77.73,77.73,0,0,0-14.62.72Z"/></clipPath><clipPath id="clip-path-2"><path class="cls-1" d="M105,114.92a91.55,91.55,0,0,0-23.17-2.07,51.85,51.85,0,0,1,23.35-6.28,45.72,45.72,0,0,0-13.77-4.41,44.62,44.62,0,0,1,21.48-1.76l-4.06-6.68a40.22,40.22,0,0,1,9.38,3.41,17,17,0,0,1,12.88-9.3l-2.54,5.4a30.74,30.74,0,0,1,29.64-3.6l-5.89,4.85a24.76,24.76,0,0,1,16.35,7l-3.15,2.15a22.32,22.32,0,0,1,19.43,11,23.55,23.55,0,0,0-11.62-1.62,12.33,12.33,0,0,1,8.43,7.67c-3.56-1.27-7.38-1-11.15-.32a20.49,20.49,0,0,1,5,3.56,95.16,95.16,0,0,0-14.11-1,13.87,13.87,0,0,1,2.35,3.42l-6-1.29a1.59,1.59,0,0,0-1.12,0c-.33.19-.42.76-.08.92l-7.09-.51a7.89,7.89,0,0,0,.17,3.83c-3.13-1-6.31-1.75-9.52-2.4l.41,2.68-4.5-2.6c-1.89.31-3.78.62-5.7,1-2.18.39-5.51-.41-4.87-2.52a38.34,38.34,0,0,1-9.13,1.84,4.69,4.69,0,0,1,1.72-3.06,57.19,57.19,0,0,0-16.61,1.09l4.76-3.33a114.66,114.66,0,0,0-21.19,1Z"/></clipPath><clipPath id="clip-path-3"><path class="cls-2" d="M150.38,115.24c0,14.21-8.88,17.15-19.13,17.15s-18-2.94-18-17.15,7.75-34.3,18-34.3S150.38,101,150.38,115.24Z"/></clipPath><clipPath id="clip-path-4"><path class="cls-1" d="M121.27,133.68a81,81,0,0,1,20.42-1.82,45.73,45.73,0,0,0-20.58-5.54,40.65,40.65,0,0,1,12.14-3.89,39.36,39.36,0,0,0-18.93-1.55q1.8-2.94,3.58-5.88a35.29,35.29,0,0,0-8.27,3,14.94,14.94,0,0,0-11.35-8.19l2.24,4.76a27.11,27.11,0,0,0-26.12-3.18l5.19,4.28a21.78,21.78,0,0,0-14.41,6.2L68,123.76a19.67,19.67,0,0,0-17.13,9.73,20.87,20.87,0,0,1,10.25-1.43,10.83,10.83,0,0,0-7.44,6.76,18.8,18.8,0,0,1,9.83-.29,18.37,18.37,0,0,0-4.41,3.15,83.56,83.56,0,0,1,12.44-.88,12.19,12.19,0,0,0-2.07,3l5.32-1.14a1.37,1.37,0,0,1,1,0c.3.16.38.67.07.81l6.26-.45a6.88,6.88,0,0,1-.16,3.37c2.77-.83,5.57-1.54,8.39-2.11l-.36,2.36,4-2.29c1.66.27,3.33.54,5,.84,1.91.34,4.85-.37,4.28-2.23a33.55,33.55,0,0,0,8.05,1.63,4.13,4.13,0,0,0-1.51-2.7,50.34,50.34,0,0,1,14.64,1l-4.2-2.93a99.6,99.6,0,0,1,18.67.92Z"/></clipPath><clipPath id="clip-path-5"><path class="cls-1" d="M128.87,137.42a57.05,57.05,0,0,0-14.51-1.29A32.53,32.53,0,0,1,129,132.19a28.77,28.77,0,0,0-8.62-2.76,27.87,27.87,0,0,1,13.44-1.1q-1.26-2.1-2.54-4.18a24.59,24.59,0,0,1,5.87,2.14,10.61,10.61,0,0,1,8.06-5.82l-1.59,3.37a19.28,19.28,0,0,1,18.56-2.25l-3.69,3A15.46,15.46,0,0,1,168.7,129l-2,1.34a14,14,0,0,1,12.17,6.91,14.85,14.85,0,0,0-7.28-1,7.68,7.68,0,0,1,5.28,4.8,13.31,13.31,0,0,0-7-.2,12.45,12.45,0,0,1,3.13,2.23,58.09,58.09,0,0,0-8.83-.62,8.76,8.76,0,0,1,1.47,2.14l-3.78-.81a1,1,0,0,0-.7,0c-.21.12-.27.48-.05.58l-4.45-.32a4.84,4.84,0,0,0,.12,2.39q-3-.89-6-1.5l.25,1.68L148.3,145l-3.56.6c-1.37.24-3.45-.26-3.05-1.58A24.22,24.22,0,0,1,136,145.2a2.92,2.92,0,0,1,1.07-1.92,35.61,35.61,0,0,0-10.4.69l3-2.09a71.76,71.76,0,0,0-13.26.66Z"/></clipPath></defs><path class="cls-1" d="M150.57,131.78a62.65,62.65,0,0,0-16-1.43A35.61,35.61,0,0,1,150.7,126a31.49,31.49,0,0,0-9.51-3A30.69,30.69,0,0,1,156,121.76l-2.79-4.61a27.7,27.7,0,0,1,6.47,2.35,11.71,11.71,0,0,1,8.88-6.41l-1.75,3.72a21.23,21.23,0,0,1,20.45-2.48l-4.06,3.34a17.06,17.06,0,0,1,11.28,4.86L192.31,124a15.44,15.44,0,0,1,13.42,7.61,16.45,16.45,0,0,0-8-1.11,8.46,8.46,0,0,1,5.82,5.29,14.62,14.62,0,0,0-7.69-.22,14.07,14.07,0,0,1,3.45,2.46,66.17,66.17,0,0,0-9.74-.69,9.52,9.52,0,0,1,1.62,2.36l-4.17-.89a1,1,0,0,0-.76,0c-.23.13-.3.53-.06.64l-4.9-.35a5.37,5.37,0,0,0,.13,2.64q-3.26-1-6.57-1.66l.28,1.85L172,140.17c-1.3.21-2.61.42-3.93.66-1.5.26-3.8-.29-3.36-1.75a26.61,26.61,0,0,1-6.3,1.28,3.24,3.24,0,0,1,1.18-2.12,39.74,39.74,0,0,0-11.46.75l3.29-2.29a77.73,77.73,0,0,0-14.62.72Z"/><g class="cls-3"><path class="cls-4" d="M207.13,132.15a69.09,69.09,0,0,0-12.49-4.39,19.43,19.43,0,0,1,5.23,5.68,25.07,25.07,0,0,1-6.1-.78l1.2,2.24-4.5-1.39,1.65,2.37a29.38,29.38,0,0,1-7.45-1.92,8.28,8.28,0,0,1,2.86,3.4,15.14,15.14,0,0,0-8-1.73,17.34,17.34,0,0,1,3.41,2.05,24.29,24.29,0,0,0-5.6-1.12,3.55,3.55,0,0,1,.76,2.45,3.46,3.46,0,0,0-2.93-1.64l.23,1.67a6.91,6.91,0,0,0-3-2,7.19,7.19,0,0,1-6.42,1.74,3.31,3.31,0,0,1,2-2.44q-4.16.32-8.25,1l4.16-2.56-9.52,1a17.5,17.5,0,0,1,6-2.48c-9.43-1.37-18.91,1.4-28,4.15l15.79,9.37c3.47,2.05,7.06,4.16,11.06,4.66,3.11.4,6.26-.21,9.34-.8a231.11,231.11,0,0,1,24-3.65c7.42-.62,15.47-.79,21.33-5.39a2.52,2.52,0,0,0,.83-.95,2.65,2.65,0,0,0,0-1.4c-.32-2.11-1.08-4.7-3.19-5"/><path class="cls-5" d="M188.84,113.74q-3.36-.09-6.72.12a19.63,19.63,0,0,0-4.44.68,22.31,22.31,0,0,0-6.08,3.38,22.64,22.64,0,0,0-4.23,3.5,8,8,0,0,1,.58-4l-4.79,2.7,1.55-3.1a12.51,12.51,0,0,0-5.53,4.37,11.94,11.94,0,0,0-4.12-2.5,25.7,25.7,0,0,1,3.56,4.73,52,52,0,0,0-22,.62c1.44-4.54,5.55-7.71,9.76-9.93a80.74,80.74,0,0,1,11.3-4.68A48.8,48.8,0,0,1,167.8,107a49.55,49.55,0,0,1,11.6.41,80.68,80.68,0,0,1,8.47,1.35,11,11,0,0,1,5.38,2.51"/></g><path class="cls-1" d="M105,114.92a91.55,91.55,0,0,0-23.17-2.07,51.85,51.85,0,0,1,23.35-6.28,45.72,45.72,0,0,0-13.77-4.41,44.62,44.62,0,0,1,21.48-1.76l-4.06-6.68a40.22,40.22,0,0,1,9.38,3.41,17,17,0,0,1,12.88-9.3l-2.54,5.4a30.74,30.74,0,0,1,29.64-3.6l-5.89,4.85a24.76,24.76,0,0,1,16.35,7l-3.15,2.15a22.32,22.32,0,0,1,19.43,11,23.55,23.55,0,0,0-11.62-1.62,12.33,12.33,0,0,1,8.43,7.67c-3.56-1.27-7.38-1-11.15-.32a20.49,20.49,0,0,1,5,3.56,95.16,95.16,0,0,0-14.11-1,13.87,13.87,0,0,1,2.35,3.42l-6-1.29a1.59,1.59,0,0,0-1.12,0c-.33.19-.42.76-.08.92l-7.09-.51a7.89,7.89,0,0,0,.17,3.83c-3.13-1-6.31-1.75-9.52-2.4l.41,2.68-4.5-2.6c-1.89.31-3.78.62-5.7,1-2.18.39-5.51-.41-4.87-2.52a38.34,38.34,0,0,1-9.13,1.84,4.69,4.69,0,0,1,1.72-3.06,57.19,57.19,0,0,0-16.61,1.09l4.76-3.33a114.66,114.66,0,0,0-21.19,1Z"/><g class="cls-6"><path class="cls-4" d="M187,115.45a99.92,99.92,0,0,0-18.1-6.35,27.87,27.87,0,0,1,7.58,8.24,37.64,37.64,0,0,1-8.83-1.14l1.73,3.25-6.52-2,2.39,3.44a42.33,42.33,0,0,1-10.79-2.79,12.11,12.11,0,0,1,4.15,4.93,21.91,21.91,0,0,0-11.64-2.51,25.35,25.35,0,0,1,4.94,3,36.21,36.21,0,0,0-8.12-1.63,5.09,5.09,0,0,1,1.1,3.56A5,5,0,0,0,140.6,123l.34,2.42a9.94,9.94,0,0,0-4.32-2.9,10.44,10.44,0,0,1-9.31,2.52,4.83,4.83,0,0,1,2.9-3.54q-6,.47-12,1.51l6-3.71L110.5,120.7a25.41,25.41,0,0,1,8.73-3.59c-13.66-2-27.41,2-40.63,6l22.9,13.58c5,3,10.23,6,16,6.76,4.51.58,9.07-.3,13.53-1.15a334.45,334.45,0,0,1,34.74-5.3c10.76-.9,22.43-1.14,30.92-7.81a3.62,3.62,0,0,0,1.2-1.38,3.84,3.84,0,0,0,.06-2c-.46-3.06-1.56-6.82-4.62-7.31"/><path class="cls-5" d="M160.46,88.77c-3.24-.09-6.49,0-9.73.18a28,28,0,0,0-6.44,1c-3.23,1-6,3-8.82,4.9a32.54,32.54,0,0,0-6.13,5.08,11.69,11.69,0,0,1,.84-5.76l-6.94,3.9,2.24-4.49a18.15,18.15,0,0,0-8,6.35,17.2,17.2,0,0,0-6-3.64,38.38,38.38,0,0,1,5.16,6.86,75.43,75.43,0,0,0-31.9.9c2.1-6.58,8-11.17,14.16-14.39a117.17,117.17,0,0,1,16.38-6.78A69.92,69.92,0,0,1,130,79.05c5.59-.66,11.24-.08,16.82.58a115.6,115.6,0,0,1,12.27,2c2.83.66,5.74,1.58,7.8,3.63"/></g><path class="cls-7" d="M145.65,91.39s15.59,4.45,19,24.73-10.71,3.06-10.71,3.06-3.62,12.33-10.91.74S133.42,89.1,145.65,91.39Z"/><path class="cls-7" d="M119.92,91.08s-15.19,5.64-17,26.12,10.91,2.22,10.91,2.22,4.56,12,10.94-.11S131.94,87.84,119.92,91.08Z"/><path class="cls-2" d="M150.38,115.24c0,14.21-8.88,17.15-19.13,17.15s-18-2.94-18-17.15,7.75-34.3,18-34.3S150.38,101,150.38,115.24Z"/><g class="cls-8"><circle class="cls-7" cx="131.11" cy="77.41" r="16.58"/></g><path class="cls-9" d="M124.67,49.11a4.26,4.26,0,0,1,2.48-4.59,7.61,7.61,0,0,1,5.52-.11,8.36,8.36,0,0,1,3.46,2A5,5,0,0,1,137.68,50a8.23,8.23,0,0,1-.85,3l-1.4,3.29A2.18,2.18,0,0,1,135,57a2.07,2.07,0,0,1-.82.42c-2,.64-6.41.89-6.58-2.06a4.76,4.76,0,0,0-1-3.09A9.21,9.21,0,0,1,124.67,49.11Z"/><path class="cls-2" d="M149.31,70.5A17.51,17.51,0,0,0,131.8,53h0A17.51,17.51,0,0,0,114.26,70.5c0,.82,0,1.63,0,2.42-.09,8.45.12,15,17.08,15.08h.87c17-.12,17.17-6.63,17.08-15.08C149.31,72.13,149.31,71.32,149.31,70.5Z"/><path class="cls-9" d="M137.21,90.27c-.73-1.7-1.49-3.53-2.33-5.17-.67-1.31-2.18-.8-3.26-.06-1.09-.74-2.6-1.25-3.27.06-.84,1.64-1.6,3.47-2.33,5.17s-1.21,4-.31,5.8a4.69,4.69,0,0,0,1.53,1.69,5.87,5.87,0,0,0,4,1.38c.14,0,.28,0,.42,0s.27,0,.41,0a5.87,5.87,0,0,0,4-1.38,4.72,4.72,0,0,0,1.54-1.69C138.42,94.28,138,92.11,137.21,90.27Z"/><path class="cls-10" d="M124.47,82.57s-1,5.44,7.3,5.44,6.62-5.94,6.62-5.94Z"/><path class="cls-11" d="M131.39,74h0c-6.93,0-7.59,6.69-7.71,8s1.91,1.17,4.63,1.17,3.08.57,3.08.57h0s.38-.57,3.09-.57,4.75.14,4.63-1.17S138.33,74,131.39,74Z"/><path class="cls-12" d="M115.79,75s4.28,4.28,9.44-.44"/><path class="cls-12" d="M137.74,75s4.28,4.28,9.44-.44"/><path class="cls-1" d="M121.27,133.68a81,81,0,0,1,20.42-1.82,45.73,45.73,0,0,0-20.58-5.54,40.65,40.65,0,0,1,12.14-3.89,39.36,39.36,0,0,0-18.93-1.55q1.8-2.94,3.58-5.88a35.29,35.29,0,0,0-8.27,3,14.94,14.94,0,0,0-11.35-8.19l2.24,4.76a27.11,27.11,0,0,0-26.12-3.18l5.19,4.28a21.78,21.78,0,0,0-14.41,6.2L68,123.76a19.67,19.67,0,0,0-17.13,9.73,20.87,20.87,0,0,1,10.25-1.43,10.83,10.83,0,0,0-7.44,6.76,18.8,18.8,0,0,1,9.83-.29,18.37,18.37,0,0,0-4.41,3.15,83.56,83.56,0,0,1,12.44-.88,12.19,12.19,0,0,0-2.07,3l5.32-1.14a1.37,1.37,0,0,1,1,0c.3.16.38.67.07.81l6.26-.45a6.88,6.88,0,0,1-.16,3.37c2.77-.83,5.57-1.54,8.39-2.11l-.36,2.36,4-2.29c1.66.27,3.33.54,5,.84,1.91.34,4.85-.37,4.28-2.23a33.55,33.55,0,0,0,8.05,1.63,4.13,4.13,0,0,0-1.51-2.7,50.34,50.34,0,0,1,14.64,1l-4.2-2.93a99.6,99.6,0,0,1,18.67.92Z"/><g class="cls-13"><path class="cls-4" d="M49,134.15A88.27,88.27,0,0,1,65,128.55a24.77,24.77,0,0,0-6.68,7.26,32.56,32.56,0,0,0,7.79-1l-1.53,2.86,5.74-1.78-2.1,3a37.62,37.62,0,0,0,9.51-2.46,10.57,10.57,0,0,0-3.65,4.35,19.23,19.23,0,0,1,10.25-2.22A21.91,21.91,0,0,0,80,141.23a31.18,31.18,0,0,1,7.15-1.44,4.49,4.49,0,0,0-1,3.14,4.36,4.36,0,0,1,3.74-2.1L89.6,143a8.79,8.79,0,0,1,3.81-2.56,9.16,9.16,0,0,0,8.2,2.23,4.24,4.24,0,0,0-2.55-3.12c3.53.27,7,.71,10.54,1.33l-5.32-3.27,12.15,1.21a22.26,22.26,0,0,0-7.69-3.17c12-1.75,24.15,1.8,35.8,5.3l-20.18,12c-4.42,2.63-9,5.31-14.12,6-4,.5-8-.27-11.93-1a293.31,293.31,0,0,0-30.61-4.66c-9.49-.8-19.77-1-27.25-6.89a3.11,3.11,0,0,1-1.06-1.22,3.35,3.35,0,0,1,0-1.78c.4-2.7,1.37-6,4.07-6.44"/><path class="cls-5" d="M72.39,110.64c2.86-.08,5.73,0,8.58.16a24.54,24.54,0,0,1,5.67.87A28.42,28.42,0,0,1,94.42,116a29.11,29.11,0,0,1,5.4,4.48,10.26,10.26,0,0,0-.74-5.08l6.12,3.44-2-3.95a16,16,0,0,1,7.07,5.59,15,15,0,0,1,5.25-3.2,33.09,33.09,0,0,0-4.55,6,66.46,66.46,0,0,1,28.11.79c-1.84-5.8-7.09-9.84-12.47-12.68a102.28,102.28,0,0,0-14.44-6,61.22,61.22,0,0,0-12.91-3.37,63.51,63.51,0,0,0-14.83.51,101.32,101.32,0,0,0-10.81,1.73c-2.5.58-5.06,1.39-6.87,3.2"/></g><path class="cls-1" d="M128.87,137.42a57.05,57.05,0,0,0-14.51-1.29A32.53,32.53,0,0,1,129,132.19a28.77,28.77,0,0,0-8.62-2.76,27.87,27.87,0,0,1,13.44-1.1q-1.26-2.1-2.54-4.18a24.59,24.59,0,0,1,5.87,2.14,10.61,10.61,0,0,1,8.06-5.82l-1.59,3.37a19.28,19.28,0,0,1,18.56-2.25l-3.69,3A15.46,15.46,0,0,1,168.7,129l-2,1.34a14,14,0,0,1,12.17,6.91,14.85,14.85,0,0,0-7.28-1,7.68,7.68,0,0,1,5.28,4.8,13.31,13.31,0,0,0-7-.2,12.45,12.45,0,0,1,3.13,2.23,58.09,58.09,0,0,0-8.83-.62,8.76,8.76,0,0,1,1.47,2.14l-3.78-.81a1,1,0,0,0-.7,0c-.21.12-.27.48-.05.58l-4.45-.32a4.84,4.84,0,0,0,.12,2.39q-3-.89-6-1.5l.25,1.68L148.3,145l-3.56.6c-1.37.24-3.45-.26-3.05-1.58A24.22,24.22,0,0,1,136,145.2a2.92,2.92,0,0,1,1.07-1.92,35.61,35.61,0,0,0-10.4.69l3-2.09a71.76,71.76,0,0,0-13.26.66Z"/><g class="cls-14"><path class="cls-4" d="M180.17,137.75a64,64,0,0,0-11.33-4,17.69,17.69,0,0,1,4.74,5.16,23,23,0,0,1-5.53-.71l1.09,2L165.06,139l1.49,2.15a26.72,26.72,0,0,1-6.75-1.74,7.49,7.49,0,0,1,2.59,3.09,13.66,13.66,0,0,0-7.28-1.58,15.42,15.42,0,0,1,3.09,1.87,22.57,22.57,0,0,0-5.08-1,3.23,3.23,0,0,1,.69,2.23,3.11,3.11,0,0,0-2.66-1.48l.21,1.51a6.23,6.23,0,0,0-2.7-1.82,6.52,6.52,0,0,1-5.83,1.58,3,3,0,0,1,1.81-2.21c-2.51.19-5,.51-7.48.94l3.77-2.32-8.63.86a16.08,16.08,0,0,1,5.47-2.25c-8.55-1.24-17.15,1.27-25.43,3.76l14.33,8.5c3.15,1.87,6.4,3.78,10,4.24a27.23,27.23,0,0,0,8.47-.73,208.2,208.2,0,0,1,21.74-3.31c6.74-.57,14-.72,19.35-4.89a2.19,2.19,0,0,0,.76-.87,2.44,2.44,0,0,0,0-1.26c-.29-1.92-1-4.27-2.89-4.58"/><path class="cls-5" d="M163.58,121.05q-3-.08-6.09.12a17.61,17.61,0,0,0-4,.61,20.38,20.38,0,0,0-5.52,3.07A20.24,20.24,0,0,0,144.1,128a7.31,7.31,0,0,1,.53-3.61l-4.35,2.45,1.41-2.81a11.38,11.38,0,0,0-5,4,10.64,10.64,0,0,0-3.73-2.28,24.18,24.18,0,0,1,3.23,4.3,47.2,47.2,0,0,0-20,.56c1.31-4.12,5-7,8.86-9a72.87,72.87,0,0,1,10.26-4.24,43,43,0,0,1,9.17-2.39,44.68,44.68,0,0,1,10.52.36,71.14,71.14,0,0,1,7.69,1.23,9.93,9.93,0,0,1,4.88,2.27"/></g></svg>