<svg id="Layer_1" data-name="Layer 1" xmlns="http://www.w3.org/2000/svg" xmlns:xlink="http://www.w3.org/1999/xlink" viewBox="0 0 260 168"><defs><style>.cls-1{fill:#ff1515;}.cls-2{fill:#9e4407;}.cls-3{fill:#e51a1a;}.cls-4{clip-path:url(#clip-path);}.cls-5{fill:#af0c0c;}.cls-6{fill:#fff;}.cls-7{fill:#f7b03e;}.cls-8{fill:#f9cc3d;}.cls-9{fill:#f41616;}</style><clipPath id="clip-path"><path class="cls-1" d="M146.22,102.77c0,12.48-7.8,15.07-16.81,15.07s-15.82-2.59-15.82-15.07,6.81-30.14,15.82-30.14S146.22,90.28,146.22,102.77Z"/></clipPath></defs><path class="cls-2" d="M121.17,118v11.8s-11.3,6-9.94,6.58,9.69-4,9.69-4,2,17.64,3.11.12c0,0,20.55,11.06.18-2.6V117.28S121.85,113.8,121.17,118Z"/><path class="cls-2" d="M136.32,118v11.8s-11.3,6-9.93,6.58,9.68-4,9.68-4,2,17.64,3.11.12c0,0,20.55,11.06.19-2.6V117.28S137,113.8,136.32,118Z"/><path class="cls-3" d="M119.55,82.4S98.19,71,82.29,79.09s6.13,7.45,6.13,7.45S79,96,93.06,94.65c0,0-2,9.77,8.77,4.14,0,0-2.64,9.28,7.79,4,0,0,4.47,8,12.92-1.33S120.71,82.56,119.55,82.4Z"/><path class="cls-3" d="M140.45,82.4S161.81,71,177.71,79.09s-6.13,7.45-6.13,7.45S181,96,166.94,94.65c0,0,2,9.77-8.77,4.14,0,0,2.64,9.28-7.79,4,0,0-4.47,8-12.92-1.33S139.29,82.56,140.45,82.4Z"/><path class="cls-1" d="M146.22,102.77c0,12.48-7.8,15.07-16.81,15.07s-15.82-2.59-15.82-15.07,6.81-30.14,15.82-30.14S146.22,90.28,146.22,102.77Z"/><g class="cls-4"><circle class="cls-3" cx="129.28" cy="69.52" r="14.57"/></g><path class="cls-5" d="M123.63,44.66a3.74,3.74,0,0,1,2.18-4,6.68,6.68,0,0,1,4.84-.09,7.42,7.42,0,0,1,3,1.73,4.42,4.42,0,0,1,1.36,3.15,7.37,7.37,0,0,1-.75,2.61l-1.23,2.88a1.83,1.83,0,0,1-.39.66,1.71,1.71,0,0,1-.72.37c-1.8.56-5.63.78-5.78-1.81a4.19,4.19,0,0,0-.85-2.71A8.14,8.14,0,0,1,123.63,44.66Z"/><path class="cls-1" d="M145.28,63.45a15.39,15.39,0,0,0-15.39-15.39h0a15.39,15.39,0,0,0-15.38,15.39c0,.73,0,1.43,0,2.13-.09,7.42.1,13.14,15,13.25h.76c14.91-.11,15.09-5.83,15-13.25C145.28,64.88,145.28,64.18,145.28,63.45Z"/><ellipse class="cls-6" cx="120.23" cy="63.18" rx="4.05" ry="5.76"/><path d="M120.35,59.64a3.68,3.68,0,0,0-.58.06,2,2,0,1,1-2.86,2.21,3.71,3.71,0,0,0-.31,1.49,3.76,3.76,0,1,0,3.75-3.76Z"/><ellipse class="cls-6" cx="138.78" cy="63.18" rx="4.05" ry="5.76"/><path class="cls-5" d="M134.64,80.82c-.63-1.49-1.31-3.1-2-4.54-.59-1.15-1.91-.7-2.87,0-1-.65-2.28-1.1-2.87,0-.74,1.44-1.41,3-2,4.54a6.17,6.17,0,0,0-.28,5.1,4.09,4.09,0,0,0,1.35,1.48,5.06,5.06,0,0,0,3.48,1.21,2.18,2.18,0,0,1,.72,0,5.06,5.06,0,0,0,3.48-1.21,4.09,4.09,0,0,0,1.35-1.48A6.17,6.17,0,0,0,134.64,80.82Z"/><path d="M138.9,59.64a3.68,3.68,0,0,0-.58.06,2,2,0,1,1-2.86,2.21,3.72,3.72,0,0,0-.32,1.49,3.76,3.76,0,1,0,3.76-3.76Z"/><path class="cls-7" d="M123.45,74.06s-.83,4.78,6.41,4.78,5.82-5.22,5.82-5.22Z"/><path class="cls-8" d="M129.53,66.56h0c-6.09,0-6.67,5.87-6.78,7s1.69,1,4.07,1,2.71.5,2.71.5h0s.33-.5,2.72-.5,4.17.13,4.06-1S135.63,66.56,129.53,66.56Z"/><circle class="cls-9" cx="122.78" cy="115.44" r="5.38"/><circle class="cls-9" cx="137.19" cy="115.44" r="5.38"/></svg>