<svg id="Layer_8" data-name="Layer 8" xmlns="http://www.w3.org/2000/svg" xmlns:xlink="http://www.w3.org/1999/xlink" viewBox="0 0 260 168"><defs><style>.cls-1{fill:#f9cc3d;}.cls-2{fill:#893a04;}.cls-3{fill:#7c3200;}.cls-4{fill:#9e4407;}.cls-5{fill:#ff1515;}.cls-6{fill:#d60707;}.cls-7{fill:#ff6e6e;}.cls-8{fill:#af0c0c;}.cls-9{clip-path:url(#clip-path);}.cls-10{fill:#f7b03e;}.cls-11{fill:#fff;}</style><clipPath id="clip-path"><path class="cls-1" d="M140.24,102a2.39,2.39,0,0,1-2.13-1.1,2.49,2.49,0,0,0-1-1.42s.83-.41.92-.79c0,0,1.39-2.83,3.34-2.74,0,0,2.56.77,2.83,4.32a.9.9,0,0,0-.42,0S143.14,101.94,140.24,102Z"/></clipPath></defs><path class="cls-2" d="M126.27,129.16s3-2,4.64-2-4.48,2.59-4.48,2.59Z"/><path class="cls-3" d="M124.51,123.57l.87,6s-2.59,1.75-2.82,2.57c0,0-.1.57,1.19-.25a23.76,23.76,0,0,1,4.34-2.09c1.45-.54,3.25-.84,3.91-1.18s-1.16-.4-2.15-.13l-.93.23s2.17-.75,2.84-1-1-.81-4.24.75l-.9.48s-.54-4.33-1-6.07S124.46,121.31,124.51,123.57Z"/><path class="cls-2" d="M118.2,128.1s3.48,1.09,4.46,2.35-4.83-1.83-4.83-1.83Z"/><path class="cls-4" d="M121.42,123.21l-4.11,4.47s-3-.9-3.78-.57c0,0-.5.28,1,.77a24.09,24.09,0,0,1,4.37,2c1.32.79,2.69,2,3.38,2.29s-.42-1.15-1.26-1.75l-.77-.58s2,1.21,2.58,1.56,0-1.26-3.25-2.81l-.94-.39s3-3.16,4.1-4.58S123.14,121.74,121.42,123.21Z"/><path class="cls-5" d="M129.28,95.82c-.2,1.9-.2,3.53-.2,3.53.93,5.33-2.63,7-2.63,7-8-.72-12.61,1.73-12.61,1.73-2.59-4.46-2.73-.29-2.73-.29-5-6.12-4.25-1.72-4.25-1.72-8-4-3.25,2.88-3.25,2.88-5.54-.07,2.67,6.19,2.67,6.19,2,7.35,11.24,7.42,11.24,7.42,5.26,5.12,9.56,0,9.56,0a19.9,19.9,0,0,0,7.23-2.8c8.79-5.77-.43-21-.43-21a13.68,13.68,0,0,0-1.77-2.94s.24-1.45-1.11-1.61A1.69,1.69,0,0,0,129.28,95.82Z"/><path class="cls-6" d="M129.35,116.17s-4.29-6.24-15.3-4c0,0-1.62.89,0,2.18,0,0-7.53-1.94-4.78,1,0,0-1.94,3.23,4.62,3.72,0,0-2.11,3.64,3.56,2.83C117.45,121.83,135.34,123.21,129.35,116.17Z"/><ellipse class="cls-7" cx="118.78" cy="107.76" rx="1.21" ry="0.35"/><ellipse class="cls-7" cx="116.61" cy="108.4" rx="0.96" ry="0.28"/><path class="cls-6" d="M132.72,109.72c-.27.48-.55,1.1-.17,1.61a1.13,1.13,0,0,0,1.27.3.67.67,0,0,0,.15-.06c.1-.06.09,0,0-.06.1.07.18.18.28.25a1.48,1.48,0,0,0,.71.25,1.45,1.45,0,0,0,1.33-.71l-.36,0a1.38,1.38,0,0,0,1.57.28.88.88,0,0,0,.33-1.19c-.17-.25-.57,0-.4.23a.43.43,0,0,1-.21.6,1,1,0,0,1-1-.25.23.23,0,0,0-.36,0,1,1,0,0,1-1,.46,1.06,1.06,0,0,1-.54-.31.42.42,0,0,0-.35-.15c-.15,0-.28.12-.44.15a.7.7,0,0,1-.53-.06c-.44-.27-.1-.89.08-1.21s-.25-.49-.39-.23Z"/><path class="cls-8" d="M139.73,90.18s1.53-4.78-12.8-4.87c0,0-3.1.32-.81,3,0,0-5.39,3.43-2.29,5.76,0,0-2.09,4.84.84,3.26,0,0-1.4,4.16,2.75,1.45l7.27-4.66,2.52-2.85Z"/><path class="cls-5" d="M141.57,94.88c-.81,4.21,0,7.3-7.22,7.3-4.28,0-7.59-3-7.59-7.29a7.76,7.76,0,0,1,7.76-7.75C138.8,87.14,142.68,89.17,141.57,94.88Z"/><path class="cls-8" d="M137.64,100.26s-2,4.68,1.43,5.84,4.74-4.43.46-6.16A1.59,1.59,0,0,0,137.64,100.26Z"/><path class="cls-1" d="M140.24,102a2.39,2.39,0,0,1-2.13-1.1,2.49,2.49,0,0,0-1-1.42s.83-.41.92-.79c0,0,1.39-2.83,3.34-2.74,0,0,2.56.77,2.83,4.32a.9.9,0,0,0-.42,0S143.14,101.94,140.24,102Z"/><g class="cls-9"><path class="cls-10" d="M136.19,99.27a8.47,8.47,0,0,0,4.43.63,5.94,5.94,0,0,1,4,.71s-2,2.57-1.92,2.57-5.51-1-5.51-1Z"/></g><circle class="cls-11" cx="136.44" cy="94.3" r="2.85"/><path d="M136.84,92.55l-.28,0a1,1,0,1,1-1.42,1.09,1.86,1.86,0,1,0,1.7-1.12Z"/></svg>