<svg id="Layer_4" data-name="Layer 4" xmlns="http://www.w3.org/2000/svg" xmlns:xlink="http://www.w3.org/1999/xlink" viewBox="0 0 260 168"><defs><style>.cls-1{fill:#ff1515;}.cls-2{fill:#9e4407;}.cls-3{fill:#e51a1a;}.cls-4{clip-path:url(#clip-path);}.cls-5{fill:#af0c0c;}.cls-6{fill:#fff;}.cls-7{fill:#f7b03e;}.cls-8{fill:#f9cc3d;}.cls-9{fill:#f41616;}</style><clipPath id="clip-path"><path class="cls-1" d="M168.31,90.46c0,9.91-6.2,12-13.35,12s-12.56-2.06-12.56-12S147.8,66.52,155,66.52,168.31,80.54,168.31,90.46Z"/></clipPath></defs><path class="cls-2" d="M148.41,97.74v9.37s-9,4.73-7.89,5.23,7.7-3.16,7.7-3.16,1.58,14,2.46.1c0,0,16.33,8.78.15-2.07v-10S149,94.43,148.41,97.74Z"/><path class="cls-2" d="M160.45,97.74v9.37s-9,4.73-7.89,5.23,7.69-3.16,7.69-3.16,1.58,14,2.47.1c0,0,16.33,8.78.15-2.07v-10S161,94.43,160.45,97.74Z"/><path class="cls-3" d="M145.89,76.18s-19.22,1-26.7,13,7.22,2.56,7.22,2.56-2.54,10.29,6.49,3.61c0,0,2.66,7.46,7.66-.78,0,0,2,7.39,6.93-.49,0,0,6.3,3.57,8.24-6.21S146.74,75.81,145.89,76.18Z"/><path class="cls-3" d="M166,76.09s19.17,1.74,26.18,14.06-7.32,2.27-7.32,2.27,2.15,10.39-6.61,3.37c0,0-3,7.35-7.64-1.09,0,0-2.28,7.32-6.9-.75,0,0-6.43,3.32-8-6.52S165.15,75.7,166,76.09Z"/><path class="cls-1" d="M168.31,90.46c0,9.91-6.2,12-13.35,12s-12.56-2.06-12.56-12S147.8,66.52,155,66.52,168.31,80.54,168.31,90.46Z"/><g class="cls-4"><circle class="cls-3" cx="154.86" cy="64.05" r="11.58"/></g><path class="cls-5" d="M150.37,44.3a3,3,0,0,1,1.73-3.21A5.37,5.37,0,0,1,156,41a5.76,5.76,0,0,1,2.41,1.38,3.49,3.49,0,0,1,1.09,2.5,5.84,5.84,0,0,1-.59,2.07l-1,2.29a1.6,1.6,0,0,1-.31.52,1.29,1.29,0,0,1-.58.3c-1.42.45-4.47.62-4.58-1.44a3.42,3.42,0,0,0-.68-2.15A6.49,6.49,0,0,1,150.37,44.3Z"/><path class="cls-1" d="M167.56,59.23A12.22,12.22,0,0,0,155.34,47h0A12.22,12.22,0,0,0,143.1,59.23c0,.57,0,1.14,0,1.69-.07,5.89.08,10.44,11.92,10.52h.6c11.84-.08,12-4.63,11.93-10.52Z"/><ellipse class="cls-6" cx="147.67" cy="59.01" rx="3.21" ry="4.57"/><path d="M147.77,56.2a3.75,3.75,0,0,0-.47,0A1.55,1.55,0,1,1,145,58a3,3,0,1,0,2.74-1.8Z"/><ellipse class="cls-6" cx="162.4" cy="59.01" rx="3.21" ry="4.57"/><path class="cls-5" d="M159.12,73c-.51-1.19-1-2.47-1.62-3.61-.47-.91-1.53-.56-2.29,0-.76-.52-1.81-.87-2.28,0-.58,1.14-1.11,2.42-1.62,3.61a4.92,4.92,0,0,0-.22,4,3.25,3.25,0,0,0,1.07,1.17,4,4,0,0,0,2.77,1,2.64,2.64,0,0,0,.28,0c.1,0,.2,0,.29,0a4,4,0,0,0,2.77-1,3.34,3.34,0,0,0,1.07-1.17A5,5,0,0,0,159.12,73Z"/><path d="M162.5,56.2a3.41,3.41,0,0,0-.46,0A1.55,1.55,0,1,1,159.76,58a3,3,0,1,0,2.74-1.8Z"/><path class="cls-7" d="M150.22,67.65s-.65,3.8,5.1,3.8,4.62-4.14,4.62-4.14Z"/><path class="cls-8" d="M155.06,61.69h0c-4.84,0-5.3,4.66-5.39,5.58s1.34.82,3.23.82,2.16.39,2.16.39h0s.26-.4,2.15-.4,3.32.1,3.23-.81S159.9,61.69,155.06,61.69Z"/><circle class="cls-9" cx="149.7" cy="92.69" r="4.27"/><circle class="cls-9" cx="161.14" cy="92.69" r="4.27"/></svg>