<svg xmlns="http://www.w3.org/2000/svg" viewBox="0 0 260 168"><defs><style>.cls-1{fill:#893a04;}.cls-2{fill:#9e4407;}.cls-3{fill:#ff1515;}.cls-4{fill:#d60707;}.cls-5{fill:#ff6e6e;}.cls-6{fill:#af0c0c;}.cls-7{fill:#fff;}.cls-8{fill:#f7b03e;}.cls-9{fill:#e28600;}.cls-10{fill:#d30d0d;}.cls-11{fill:#f9cc3d;}</style></defs><g id="Layer_1" data-name="Layer 1"><path class="cls-1" d="M187.61,149s-5.84-.66-8.09.56,8.31.45,8.31.45Z"/><path class="cls-2" d="M186.05,139.67l3.14,9.24s5,.62,5.93,1.62c0,0,.56.74-1.89.51a38,38,0,0,0-7.76.18c-2.46.29-5.25,1.17-6.46,1.16s1.37-1.41,3-1.74l1.5-.37s-3.65.52-4.81.62.78-1.86,6.62-2l1.64,0s-2.4-6.61-3.07-9.41S184.47,136.38,186.05,139.67Z"/><path class="cls-1" d="M191.2,149.91s-5.79-1-8.1.12,8.27.89,8.27.89Z"/><path class="cls-2" d="M190.15,140.55l2.63,9.4s5,.89,5.84,1.94c0,0,.52.77-1.92.41a37.84,37.84,0,0,0-7.75-.25c-2.48.17-5.31.89-6.51.81s1.44-1.33,3.07-1.58L187,151s-3.67.32-4.83.36.88-1.82,6.71-1.66l1.64.13s-2-6.73-2.56-9.57S188.75,137.19,190.15,140.55Z"/><path class="cls-3" d="M178.14,95.62c.31,3,.32,5.68.32,5.68-1.51,8.57,4.22,11.28,4.22,11.28,12.87-1.16,20.28,2.78,20.28,2.78,4.18-7.18,4.41-.46,4.41-.46,8.11-9.85,6.84-2.78,6.84-2.78,12.86-6.38,5.21,4.63,5.21,4.63,8.93-.11-4.29,10-4.29,10-3.24,11.82-18.08,11.94-18.08,11.94-8.46,8.22-15.37,0-15.37,0a31.88,31.88,0,0,1-11.63-4.52c-14.14-9.28.68-33.79.68-33.79a22.56,22.56,0,0,1,2.85-4.73s-.38-2.33,1.78-2.59A2.73,2.73,0,0,1,178.14,95.62Z"/><path class="cls-4" d="M178,128.35s6.9-10,24.61-6.51c0,0,2.61,1.43,0,3.51,0,0,12.11-3.12,7.69,1.56,0,0,3.12,5.21-7.43,6,0,0,3.39,5.86-5.73,4.56C197.16,137.46,168.39,139.68,178,128.35Z"/><ellipse class="cls-5" cx="195.03" cy="114.82" rx="1.95" ry="0.56"/><ellipse class="cls-5" cx="198.52" cy="115.86" rx="1.54" ry="0.44"/><path class="cls-4" d="M172,118.35c.29.51.85,1.51.13,2a1.19,1.19,0,0,1-.85.09c-.25,0-.47-.2-.71-.23a.64.64,0,0,0-.56.24,1.7,1.7,0,0,1-.87.5,1.57,1.57,0,0,1-1.64-.75.38.38,0,0,0-.58-.07,1.6,1.6,0,0,1-1.56.39.69.69,0,0,1-.33-1c.26-.39-.38-.76-.64-.37a1.41,1.41,0,0,0,.51,1.92,2.26,2.26,0,0,0,2.54-.45l-.58-.08a2.29,2.29,0,0,0,2.08,1.14,2.24,2.24,0,0,0,1.15-.37,2,2,0,0,0,.47-.4q.09-.09-.09,0l.1,0a1.57,1.57,0,0,0,.3.12,1.84,1.84,0,0,0,2-.44c.65-.82.2-1.85-.25-2.64-.23-.41-.87,0-.63.38Z"/><path class="cls-6" d="M166.54,80.32a2.94,2.94,0,0,1,1.71-3.16,5.24,5.24,0,0,1,3.8-.07,5.8,5.8,0,0,1,2.39,1.35,3.45,3.45,0,0,1,1.06,2.48,5.54,5.54,0,0,1-.58,2l-1,2.26a1.66,1.66,0,0,1-.31.51,1.42,1.42,0,0,1-.57.3c-1.41.44-4.41.61-4.52-1.42a3.25,3.25,0,0,0-.68-2.13A6.47,6.47,0,0,1,166.54,80.32Z"/><path class="cls-3" d="M183.52,95.06A12.06,12.06,0,0,0,171.45,83h0a12.06,12.06,0,0,0-12.06,12.07c0,.57,0,1.12,0,1.67-.07,5.81.08,10.3,11.77,10.38h.59c11.69-.08,11.83-4.57,11.77-10.38C183.52,96.18,183.52,95.63,183.52,95.06Z"/><ellipse class="cls-7" cx="163.88" cy="94.85" rx="3.17" ry="4.52"/><path d="M164,92.07a3.41,3.41,0,0,0-.46.05,1.52,1.52,0,0,1,.77,1.32A1.54,1.54,0,0,1,162.75,95a1.52,1.52,0,0,1-1.47-1.13A2.85,2.85,0,0,0,161,95a2.95,2.95,0,1,0,2.95-3Z"/><ellipse class="cls-7" cx="178.42" cy="94.85" rx="3.17" ry="4.52"/><path class="cls-6" d="M175.18,108.68c-.5-1.17-1-2.44-1.6-3.56-.46-.91-1.5-.55-2.25-.05-.75-.5-1.79-.86-2.25.05-.58,1.12-1.11,2.39-1.6,3.56a4.78,4.78,0,0,0-.22,4,3,3,0,0,0,1.06,1.16,4,4,0,0,0,2.72,1,2.83,2.83,0,0,0,.29,0,2.64,2.64,0,0,0,.28,0,4,4,0,0,0,2.73-1,3.12,3.12,0,0,0,1.06-1.16A4.86,4.86,0,0,0,175.18,108.68Z"/><path d="M178.52,92.07a3.41,3.41,0,0,0-.46.05,1.52,1.52,0,0,1,.77,1.32,1.53,1.53,0,0,1-3,.41,2.85,2.85,0,0,0-.25,1.17,2.95,2.95,0,1,0,3-3Z"/><path class="cls-8" d="M166.4,103.37s-.65,3.75,5,3.75S176,103,176,103Z"/><path class="cls-9" d="M166.52,103.62c.11,0,1,1.45,4.81,1.45s4.85-1.6,4.85-1.6Z"/><path class="cls-10" d="M166.52,103.07c.11,0,1,1.45,4.81,1.45s4.85-1.6,4.85-1.6Z"/><path class="cls-11" d="M171.17,97.49h0c-4.77,0-5.23,4.61-5.31,5.51s1.32.81,3.19.81,2.12.39,2.12.39h0s.26-.39,2.13-.39,3.28.1,3.19-.81S176,97.49,171.17,97.49Z"/></g></svg>