<svg xmlns="http://www.w3.org/2000/svg" xmlns:xlink="http://www.w3.org/1999/xlink" viewBox="0 0 260 168"><defs><style>.cls-1{fill:#f9cc3d;}.cls-2{fill:#893a04;}.cls-3{fill:#9e4407;}.cls-4{fill:#ff1515;}.cls-5{fill:#d60707;}.cls-6{fill:#ff6e6e;}.cls-7{fill:#af0c0c;}.cls-8{clip-path:url(#clip-path);}.cls-9{fill:#f7b03e;}.cls-10{fill:#fff;}</style><clipPath id="clip-path"><path class="cls-1" d="M124,85.32a3.87,3.87,0,0,0,3.45-1.76,4,4,0,0,1,1.53-2.3s-1.35-.67-1.49-1.28c0,0-2.26-4.6-5.4-4.45,0,0-4.15,1.25-4.59,7a1.58,1.58,0,0,1,.69,0S119.26,85.2,124,85.32Z"/></clipPath></defs><g id="Layer_5" data-name="Layer 5"><path class="cls-2" d="M151.24,129s-5.88-.67-8.14.56,8.35.45,8.35.45Z"/><path class="cls-3" d="M149.67,119.63l3.16,9.3s5,.63,6,1.64c0,0,.56.75-1.91.51a38.41,38.41,0,0,0-7.8.18c-2.48.3-5.3,1.18-6.5,1.17s1.37-1.43,3-1.76l1.51-.37s-3.67.53-4.84.63.79-1.88,6.66-2l1.65,0s-2.41-6.65-3.09-9.47S148.08,116.32,149.67,119.63Z"/><path class="cls-2" d="M154.86,129.94s-5.84-1-8.16.12,8.32.9,8.32.9Z"/><path class="cls-3" d="M153.8,120.52l2.65,9.46s5,.9,5.87,2c0,0,.52.77-1.93.4a39.06,39.06,0,0,0-7.8-.24c-2.5.16-5.35.9-6.56.81s1.45-1.34,3.1-1.59l1.53-.28s-3.7.32-4.87.37.88-1.84,6.76-1.68l1.65.13s-2.06-6.77-2.58-9.63S152.39,117.13,153.8,120.52Z"/><path class="cls-4" d="M141.71,75.29C142,78.36,142,81,142,81c-1.52,8.64,4.25,11.36,4.25,11.36,12.95-1.16,20.41,2.8,20.41,2.8,4.2-7.23,4.44-.46,4.44-.46,8.16-9.92,6.88-2.8,6.88-2.8,13-6.42,5.25,4.66,5.25,4.66,9-.11-4.32,10-4.32,10-3.26,11.9-18.2,12-18.2,12-8.51,8.29-15.47,0-15.47,0a32,32,0,0,1-11.71-4.55c-14.23-9.33.69-34,.69-34a22.06,22.06,0,0,1,2.87-4.77s-.39-2.35,1.79-2.61A2.75,2.75,0,0,1,141.71,75.29Z"/><path class="cls-5" d="M141.59,108.23s6.94-10.09,24.77-6.55c0,0,2.62,1.44,0,3.54,0,0,12.19-3.15,7.73,1.57,0,0,3.15,5.25-7.47,6,0,0,3.41,5.9-5.76,4.59C160.86,117.41,131.88,119.64,141.59,108.23Z"/><ellipse class="cls-6" cx="158.71" cy="94.62" rx="1.97" ry="0.57"/><ellipse class="cls-6" cx="162.22" cy="95.67" rx="1.55" ry="0.45"/><path class="cls-5" d="M135.49,98.17c.3.52.86,1.53.14,2a1.25,1.25,0,0,1-.87.09c-.24,0-.46-.21-.71-.24a.64.64,0,0,0-.56.24,1.8,1.8,0,0,1-.87.51A1.6,1.6,0,0,1,131,100a.37.37,0,0,0-.58-.08,1.61,1.61,0,0,1-1.57.39.7.7,0,0,1-.34-1c.27-.4-.37-.77-.64-.37a1.42,1.42,0,0,0,.52,1.93,2.27,2.27,0,0,0,2.55-.45l-.58-.08a2.34,2.34,0,0,0,2.1,1.15,2.38,2.38,0,0,0,1.15-.38,2.26,2.26,0,0,0,.47-.4c.06-.06,0-.06-.08,0l.1,0a1.48,1.48,0,0,0,.29.12,1.86,1.86,0,0,0,2-.45c.66-.82.2-1.86-.25-2.65a.37.37,0,0,0-.64.38Z"/><path class="cls-7" d="M124.77,66.15s-2.46-7.73,20.73-7.88c0,0,5,.52,1.32,4.86,0,0,8.73,5.55,3.7,9.32,0,0,3.39,7.85-1.36,5.28,0,0,2.27,6.75-4.45,2.36l-11.77-7.56-4.07-4.6Z"/><path class="cls-4" d="M121.8,73.77c1.32,6.81,0,11.83,11.69,11.83,6.93,0,12.28-4.87,12.28-11.81a12.56,12.56,0,0,0-12.56-12.56C126.28,61.23,120,64.53,121.8,73.77Z"/><path class="cls-7" d="M128.16,82.47s3.29,7.58-2.31,9.47-7.68-7.18-.75-10A2.6,2.6,0,0,1,128.16,82.47Z"/><path class="cls-1" d="M124,85.32a3.87,3.87,0,0,0,3.45-1.76,4,4,0,0,1,1.53-2.3s-1.35-.67-1.49-1.28c0,0-2.26-4.6-5.4-4.45,0,0-4.15,1.25-4.59,7a1.58,1.58,0,0,1,.69,0S119.26,85.2,124,85.32Z"/><g class="cls-8"><path class="cls-9" d="M130.51,80.88a13.68,13.68,0,0,1-7.18,1,9.61,9.61,0,0,0-6.4,1.14s3.22,4.16,3.1,4.16S129,85.61,129,85.61Z"/></g><circle class="cls-10" cx="130.1" cy="72.83" r="4.61"/><path d="M129.45,70a2.42,2.42,0,0,1,.47,0,1.56,1.56,0,1,0,2.29,1.76A3,3,0,1,1,129.45,70Z"/></g></svg>