<svg id="Layer_5" data-name="Layer 5" xmlns="http://www.w3.org/2000/svg" xmlns:xlink="http://www.w3.org/1999/xlink" viewBox="0 0 260 168"><defs><style>.cls-1{fill:#f9cc3d;}.cls-2{fill:#893a04;}.cls-3{fill:#7c3200;}.cls-4{fill:#9e4407;}.cls-5{fill:#ff1515;}.cls-6{fill:#d60707;}.cls-7{fill:#ff6e6e;}.cls-8{fill:#af0c0c;}.cls-9{clip-path:url(#clip-path);}.cls-10{fill:#f7b03e;}.cls-11{fill:#fff;}</style><clipPath id="clip-path"><path class="cls-1" d="M94.89,102a2.38,2.38,0,0,1-2.12-1.1,2.55,2.55,0,0,0-1-1.42s.83-.41.92-.79c0,0,1.39-2.83,3.33-2.74,0,0,2.57.77,2.84,4.32a.94.94,0,0,0-.43,0S97.8,101.94,94.89,102Z"/></clipPath></defs><path class="cls-2" d="M80.93,129.16s3-2,4.63-2-4.47,2.59-4.47,2.59Z"/><path class="cls-3" d="M79.17,123.57l.87,6s-2.59,1.75-2.82,2.57c0,0-.1.57,1.19-.25a23.45,23.45,0,0,1,4.34-2.09c1.45-.54,3.24-.84,3.91-1.18s-1.16-.4-2.15-.13l-.94.23s2.18-.75,2.84-1-1-.81-4.23.75l-.9.48s-.54-4.33-1-6.07S79.11,121.31,79.17,123.57Z"/><path class="cls-2" d="M72.86,128.1s3.48,1.09,4.45,2.35-4.83-1.83-4.83-1.83Z"/><path class="cls-4" d="M76.07,123.21,72,127.68s-3-.9-3.78-.57c0,0-.51.28,1,.77a23.69,23.69,0,0,1,4.36,2c1.33.79,2.7,2,3.38,2.29s-.42-1.15-1.26-1.75l-.76-.58s2,1.21,2.58,1.56,0-1.26-3.25-2.81l-1-.39s3-3.16,4.11-4.58S77.8,121.74,76.07,123.21Z"/><path class="cls-5" d="M83.93,95.82c-.19,1.9-.19,3.53-.19,3.53.93,5.33-2.63,7-2.63,7-8-.72-12.61,1.73-12.61,1.73-2.59-4.46-2.74-.29-2.74-.29-5-6.12-4.25-1.72-4.25-1.72-8-4-3.24,2.88-3.24,2.88-5.55-.07,2.67,6.19,2.67,6.19,2,7.35,11.24,7.42,11.24,7.42,5.26,5.12,9.55,0,9.55,0a19.8,19.8,0,0,0,7.23-2.8c8.79-5.77-.42-21-.42-21a13.68,13.68,0,0,0-1.77-2.94s.24-1.45-1.11-1.61A1.7,1.7,0,0,0,83.93,95.82Z"/><path class="cls-6" d="M84,116.17s-4.29-6.24-15.3-4c0,0-1.62.89,0,2.18,0,0-7.53-1.94-4.78,1,0,0-1.94,3.23,4.62,3.72,0,0-2.11,3.64,3.56,2.83C72.11,121.83,90,123.21,84,116.17Z"/><ellipse class="cls-7" cx="73.44" cy="107.76" rx="1.21" ry="0.35"/><ellipse class="cls-7" cx="71.26" cy="108.4" rx="0.96" ry="0.28"/><path class="cls-6" d="M87.38,109.72c-.28.48-.56,1.1-.18,1.61a1.15,1.15,0,0,0,1.28.3.94.94,0,0,0,.15-.06c.1-.06.09,0,0-.06.1.07.17.18.28.25a1.44,1.44,0,0,0,.7.25A1.47,1.47,0,0,0,91,111.3l-.36,0a1.38,1.38,0,0,0,1.57.28.87.87,0,0,0,.32-1.19c-.16-.25-.56,0-.39.23a.44.44,0,0,1-.21.6,1,1,0,0,1-1-.25.23.23,0,0,0-.36,0,1,1,0,0,1-1,.46,1.06,1.06,0,0,1-.54-.31.42.42,0,0,0-.35-.15c-.15,0-.29.12-.44.15a.7.7,0,0,1-.53-.06c-.45-.27-.1-.89.08-1.21s-.25-.49-.39-.23Z"/><path class="cls-8" d="M94.39,90.18s1.53-4.78-12.8-4.87c0,0-3.1.32-.82,3,0,0-5.39,3.43-2.28,5.76,0,0-2.1,4.84.84,3.26,0,0-1.4,4.16,2.75,1.45l7.27-4.66,2.51-2.85Z"/><path class="cls-5" d="M96.23,94.88c-.82,4.21,0,7.3-7.22,7.3-4.28,0-7.59-3-7.59-7.29a7.75,7.75,0,0,1,7.76-7.75C93.46,87.14,97.34,89.17,96.23,94.88Z"/><path class="cls-8" d="M92.3,100.26s-2,4.68,1.43,5.84,4.74-4.43.46-6.16A1.59,1.59,0,0,0,92.3,100.26Z"/><path class="cls-1" d="M94.89,102a2.38,2.38,0,0,1-2.12-1.1,2.55,2.55,0,0,0-1-1.42s.83-.41.92-.79c0,0,1.39-2.83,3.33-2.74,0,0,2.57.77,2.84,4.32a.94.94,0,0,0-.43,0S97.8,101.94,94.89,102Z"/><g class="cls-9"><path class="cls-10" d="M90.85,99.27a8.47,8.47,0,0,0,4.43.63,5.92,5.92,0,0,1,4,.71s-2,2.57-1.91,2.57-5.51-1-5.51-1Z"/></g><circle class="cls-11" cx="91.1" cy="94.3" r="2.85"/><path d="M91.5,92.55a2.85,2.85,0,0,0-.29,0,1,1,0,1,1-1.41,1.09,1.86,1.86,0,1,0,1.7-1.12Z"/></svg>