<svg xmlns="http://www.w3.org/2000/svg" xmlns:xlink="http://www.w3.org/1999/xlink" viewBox="0 0 260 168"><defs><style>.cls-1{fill:#f9cc3d;}.cls-2{fill:#6d3007;}.cls-3{fill:#893d09;}.cls-4{fill:#8e3f09;}.cls-5{fill:#9e4407;}.cls-6{fill:#ff1515;}.cls-7{fill:#ff6e6e;}.cls-8{fill:#d60707;}.cls-9{fill:#af0c0c;}.cls-10{clip-path:url(#clip-path);}.cls-11{fill:#f7b03e;}.cls-12{fill:#fff;}</style><clipPath id="clip-path"><path class="cls-1" d="M120.53,127.47a3.92,3.92,0,0,0-.63-3.86,4.06,4.06,0,0,1-1.74-2.19s-1.06,1.1-1.69,1c0,0-5.11.75-5.93,3.82,0,0-.09,4.37,5.3,6.56a1.48,1.48,0,0,1,.19-.66S119,132,120.53,127.47Z"/></clipPath></defs><g id="Layer_1" data-name="Layer 1"><path class="cls-2" d="M151.12,128.89s-5.93-.66-8.21.57,8.43.45,8.43.45Z"/><path class="cls-3" d="M149.54,119.46l3.19,9.39s5.07.63,6,1.65c0,0,.57.75-1.92.52a38.48,38.48,0,0,0-7.88.18c-2.5.3-5.34,1.19-6.56,1.18s1.38-1.44,3-1.78l1.53-.37s-3.72.53-4.89.64.79-1.9,6.72-2.06l1.67,0s-2.44-6.71-3.12-9.56S147.93,116.12,149.54,119.46Z"/><path class="cls-4" d="M154.77,129.86s-5.88-1-8.23.13,8.4.9,8.4.9Z"/><path class="cls-5" d="M153.7,120.35l2.68,9.55s5,.91,5.93,2c0,0,.53.78-1.95.41a38.4,38.4,0,0,0-7.88-.24c-2.51.16-5.4.9-6.61.82s1.46-1.36,3.12-1.61l1.54-.28s-3.73.32-4.91.37.9-1.86,6.82-1.69l1.67.12s-2.07-6.83-2.6-9.71S152.28,116.94,153.7,120.35Z"/><path class="cls-6" d="M145.1,118.43s7,8.36,15.62,0c0,0,15.07-.12,18.37-12.13,0,0,13.43-10.24,4.36-10.13,0,0,7.77-11.18-5.3-4.71,0,0,1.29-7.18-7,2.83,0,0-.24-6.83-4.48.47,0,0-7.53-4-20.61-2.83,0,0-20.14,2.84-25.14,17.35l-.35,8.64s7.25-2.77,13.64-2.59A22.5,22.5,0,0,1,145.1,118.43Z"/><ellipse class="cls-7" cx="158.66" cy="94.21" rx="1.98" ry="0.57"/><ellipse class="cls-7" cx="162.21" cy="95.27" rx="1.57" ry="0.45"/><path class="cls-8" d="M131.75,106.43c.49-.35,1.41-1,2-.38.39.45.14,1,0,1.51a.63.63,0,0,0,.26.66,1.79,1.79,0,0,1,.55.7,1.61,1.61,0,0,1-.52,1.87.37.37,0,0,0-.08.58,1.68,1.68,0,0,1,.57,1.53c-.12.36-.57.68-.93.48s-.8.41-.38.65a1.45,1.45,0,0,0,1.92-.66,2.27,2.27,0,0,0-.65-2.53l-.08.59a2.33,2.33,0,0,0,1-2.23,2.37,2.37,0,0,0-.48-1.14l-.2-.22s-.26-.18-.26-.21.09-.09.1-.12a1.55,1.55,0,0,0,.07-.31,1.83,1.83,0,0,0-.7-1.93,2.38,2.38,0,0,0-2.56.51c-.4.27,0,.92.38.65Z"/><path class="cls-8" d="M142.13,104.66s.6-12.35,17.79-18.77c0,0,3-.16,1.88,3,0,0,8.8-9.18,7.48-2.76,0,0,5.48,2.83-3.22,9.14,0,0,6.06,3.26-2.51,7C163.55,102.31,139.86,119.61,142.13,104.66Z"/><path class="cls-9" d="M102.36,120.78s-8.19,0-1.2-22.35c0,0,2-4.66,5.08.23,0,0,8-6.68,10.1-.69,0,0,8.59-.84,4.66,2.93,0,0,7.18-.1.89,5l-10.89,9-5.68,2.51Z"/><path class="cls-6" d="M108.76,126c6.95.83,11.39,3.59,15-7.6,2.14-6.66-.9-13.31-7.56-15.44a12.68,12.68,0,0,0-16,8.2C98.09,117.82,99.32,124.87,108.76,126Z"/><path class="cls-9" d="M119.09,122.55s8.3-.83,8.39,5.14-9.27,5.18-9.83-2.35A2.63,2.63,0,0,1,119.09,122.55Z"/><path class="cls-1" d="M120.53,127.47a3.92,3.92,0,0,0-.63-3.86,4.06,4.06,0,0,1-1.74-2.19s-1.06,1.1-1.69,1c0,0-5.11.75-5.93,3.82,0,0-.09,4.37,5.3,6.56a1.48,1.48,0,0,1,.19-.66S119,132,120.53,127.47Z"/><g class="cls-10"><path class="cls-11" d="M118.28,119.8a13.85,13.85,0,0,1-1.23,7.22,9.67,9.67,0,0,0-.87,6.5s5-1.81,4.95-1.69,1.22-9.08,1.22-9.08Z"/></g><circle class="cls-12" cx="110.42" cy="117.72" r="4.65" transform="translate(-45.83 77.26) rotate(-32.32)"/><path d="M107.5,117.47a3.3,3.3,0,0,1,.19-.43,1.58,1.58,0,0,0,3,.15,1.59,1.59,0,0,0-.65-1.81,3,3,0,1,1-2.59,2.09Z"/><path class="cls-2" d="M151.12,128.89s-5.93-.66-8.21.57,8.43.45,8.43.45Z"/><path class="cls-3" d="M149.54,119.46l3.19,9.39s5.07.63,6,1.65c0,0,.57.75-1.92.52a38.48,38.48,0,0,0-7.88.18c-2.5.3-5.34,1.19-6.56,1.18s1.38-1.44,3-1.78l1.53-.37s-3.72.53-4.89.64.79-1.9,6.72-2.06l1.67,0s-2.44-6.71-3.12-9.56S147.93,116.12,149.54,119.46Z"/><path class="cls-4" d="M154.77,129.86s-5.88-1-8.23.13,8.4.9,8.4.9Z"/><path class="cls-5" d="M153.7,120.35l2.68,9.55s5,.91,5.93,2c0,0,.53.78-1.95.41a38.4,38.4,0,0,0-7.88-.24c-2.51.16-5.4.9-6.61.82s1.46-1.36,3.12-1.61l1.54-.28s-3.73.32-4.91.37.9-1.86,6.82-1.69l1.67.12s-2.07-6.83-2.6-9.71S152.28,116.94,153.7,120.35Z"/><path class="cls-6" d="M145.1,118.43s7,8.36,15.62,0c0,0,15.07-.12,18.37-12.13,0,0,13.43-10.24,4.36-10.13,0,0,7.77-11.18-5.3-4.71,0,0,1.29-7.18-7,2.83,0,0-.24-6.83-4.48.47,0,0-7.53-4-20.61-2.83,0,0-20.14,2.84-25.14,17.35l-.35,8.64s7.25-2.77,13.64-2.59A22.5,22.5,0,0,1,145.1,118.43Z"/><ellipse class="cls-7" cx="158.66" cy="94.21" rx="1.98" ry="0.57"/><ellipse class="cls-7" cx="162.21" cy="95.27" rx="1.57" ry="0.45"/><path class="cls-8" d="M131.75,106.43c.49-.35,1.41-1,2-.38.39.45.14,1,0,1.51a.63.63,0,0,0,.26.66,1.79,1.79,0,0,1,.55.7,1.61,1.61,0,0,1-.52,1.87.37.37,0,0,0-.08.58,1.68,1.68,0,0,1,.57,1.53c-.12.36-.57.68-.93.48s-.8.41-.38.65a1.45,1.45,0,0,0,1.92-.66,2.27,2.27,0,0,0-.65-2.53l-.08.59a2.33,2.33,0,0,0,1-2.23,2.37,2.37,0,0,0-.48-1.14l-.2-.22s-.26-.18-.26-.21.09-.09.1-.12a1.55,1.55,0,0,0,.07-.31,1.83,1.83,0,0,0-.7-1.93,2.38,2.38,0,0,0-2.56.51c-.4.27,0,.92.38.65Z"/><path class="cls-8" d="M142.13,104.66s.6-12.35,17.79-18.77c0,0,3-.16,1.88,3,0,0,8.8-9.18,7.48-2.76,0,0,5.48,2.83-3.22,9.14,0,0,6.06,3.26-2.51,7C163.55,102.31,139.86,119.61,142.13,104.66Z"/><path class="cls-9" d="M102.36,120.78s-8.19,0-1.2-22.35c0,0,2-4.66,5.08.23,0,0,8-6.68,10.1-.69,0,0,8.59-.84,4.66,2.93,0,0,7.18-.1.89,5l-10.89,9-5.68,2.51Z"/><path class="cls-6" d="M108.76,126c6.95.83,11.39,3.59,15-7.6,2.14-6.66-.9-13.31-7.56-15.44a12.68,12.68,0,0,0-16,8.2C98.09,117.82,99.32,124.87,108.76,126Z"/><path class="cls-9" d="M119.09,122.55s8.3-.83,8.39,5.14-9.27,5.18-9.83-2.35A2.63,2.63,0,0,1,119.09,122.55Z"/><path class="cls-1" d="M120.53,127.47a3.92,3.92,0,0,0-.63-3.86,4.06,4.06,0,0,1-1.74-2.19s-1.06,1.1-1.69,1c0,0-5.11.75-5.93,3.82,0,0-.09,4.37,5.3,6.56a1.48,1.48,0,0,1,.19-.66S119,132,120.53,127.47Z"/><g class="cls-10"><path class="cls-11" d="M118.28,119.8a13.85,13.85,0,0,1-1.23,7.22,9.67,9.67,0,0,0-.87,6.5s5-1.81,4.95-1.69,1.22-9.08,1.22-9.08Z"/></g><circle class="cls-12" cx="110.42" cy="117.72" r="4.65" transform="translate(-45.83 77.26) rotate(-32.32)"/><path d="M107.5,117.47a3.3,3.3,0,0,1,.19-.43,1.58,1.58,0,0,0,3,.15,1.59,1.59,0,0,0-.65-1.81,3,3,0,1,1-2.59,2.09Z"/></g></svg>