<svg id="Layer_12" data-name="Layer 12" xmlns="http://www.w3.org/2000/svg" xmlns:xlink="http://www.w3.org/1999/xlink" viewBox="0 0 260 168"><defs><style>.cls-1{fill:#f9cc3d;}.cls-2{fill:#893a04;}.cls-3{fill:#7c3200;}.cls-4{fill:#9e4407;}.cls-5{fill:#ff1515;}.cls-6{fill:#d60707;}.cls-7{fill:#ff6e6e;}.cls-8{fill:#af0c0c;}.cls-9{clip-path:url(#clip-path);}.cls-10{fill:#f7b03e;}.cls-11{fill:#fff;}</style><clipPath id="clip-path"><path class="cls-1" d="M88.3,102a2.4,2.4,0,0,0,2.13-1.1,2.49,2.49,0,0,1,.95-1.42s-.84-.41-.93-.79c0,0-1.39-2.83-3.33-2.74,0,0-2.56.77-2.84,4.32a.94.94,0,0,1,.43,0S85.39,101.94,88.3,102Z"/></clipPath></defs><path class="cls-2" d="M110.56,127.87s-3.37,1.41-4.22,2.75,4.64-2.28,4.64-2.28Z"/><path class="cls-3" d="M106.89,123.3l4.51,4.06s2.9-1.18,3.71-.92c0,0,.53.23-.87.85a23.81,23.81,0,0,0-4.15,2.45c-1.25.91-2.5,2.24-3.15,2.59s.31-1.18,1.09-1.85l.7-.65s-1.82,1.39-2.42,1.8-.14-1.25,3-3.11l.9-.48s-3.31-2.85-4.52-4.17S105,122,106.89,123.3Z"/><path class="cls-2" d="M102.23,128.14s-1.8-3.18-3.23-3.87,2.8,4.34,2.8,4.34Z"/><path class="cls-4" d="M106.34,124l-3.51,4.95s1.5,2.74,1.34,3.58c0,0-.17.55-1-.77a23,23,0,0,0-2.91-3.84c-1-1.13-2.51-2.22-2.94-2.83s1.21.17,2,.87l.73.62s-1.6-1.65-2.07-2.19,1.23-.29,3.43,2.59l.58.84s2.45-3.61,3.62-5S107.42,122,106.34,124Z"/><path class="cls-5" d="M99.26,95.82c.19,1.9.2,3.53.2,3.53-.94,5.33,2.62,7,2.62,7,8-.72,12.61,1.73,12.61,1.73,2.59-4.46,2.74-.29,2.74-.29,5-6.12,4.25-1.72,4.25-1.72,8-4,3.24,2.88,3.24,2.88,5.55-.07-2.67,6.19-2.67,6.19-2,7.35-11.24,7.42-11.24,7.42-5.26,5.12-9.55,0-9.55,0a19.8,19.8,0,0,1-7.23-2.8c-8.79-5.77.42-21,.42-21a13.68,13.68,0,0,1,1.77-2.94s-.24-1.45,1.11-1.61A1.7,1.7,0,0,1,99.26,95.82Z"/><path class="cls-6" d="M99.18,116.17s4.29-6.24,15.3-4c0,0,1.62.89,0,2.18,0,0,7.53-1.94,4.78,1,0,0,1.94,3.23-4.62,3.72,0,0,2.11,3.64-3.56,2.83C111.08,121.83,93.19,123.21,99.18,116.17Z"/><ellipse class="cls-7" cx="109.75" cy="107.76" rx="1.21" ry="0.35"/><ellipse class="cls-7" cx="111.93" cy="108.4" rx="0.96" ry="0.28"/><path class="cls-6" d="M95.42,110c.18.32.53.94.08,1.21a.7.7,0,0,1-.53.06c-.15,0-.29-.12-.44-.15a.42.42,0,0,0-.35.15,1.06,1.06,0,0,1-.54.31,1,1,0,0,1-1-.46.23.23,0,0,0-.36,0,1,1,0,0,1-1,.25.43.43,0,0,1-.21-.6c.17-.25-.23-.48-.39-.23a.87.87,0,0,0,.32,1.19,1.38,1.38,0,0,0,1.57-.28l-.36,0a1.45,1.45,0,0,0,1.3.71,1.39,1.39,0,0,0,.71-.23,1.16,1.16,0,0,0,.29-.25s0,0,0,0l.06,0a1.34,1.34,0,0,0,.18.07,1.15,1.15,0,0,0,1.26-.28c.4-.5.12-1.14-.16-1.63-.14-.26-.54,0-.39.23Z"/><path class="cls-8" d="M88.8,90.18s-1.52-4.78,12.8-4.87c0,0,3.1.32.82,3,0,0,5.39,3.43,2.28,5.76,0,0,2.1,4.84-.84,3.26,0,0,1.4,4.16-2.75,1.45l-7.27-4.66-2.51-2.85Z"/><path class="cls-5" d="M87,94.88c.82,4.21,0,7.3,7.22,7.3,4.28,0,7.59-3,7.59-7.29A7.75,7.75,0,0,0,94,87.14C89.73,87.14,85.85,89.17,87,94.88Z"/><path class="cls-8" d="M90.89,100.26s2,4.68-1.43,5.84-4.74-4.43-.46-6.16A1.59,1.59,0,0,1,90.89,100.26Z"/><path class="cls-1" d="M88.3,102a2.4,2.4,0,0,0,2.13-1.1,2.49,2.49,0,0,1,.95-1.42s-.84-.41-.93-.79c0,0-1.39-2.83-3.33-2.74,0,0-2.56.77-2.84,4.32a.94.94,0,0,1,.43,0S85.39,101.94,88.3,102Z"/><g class="cls-9"><path class="cls-10" d="M92.34,99.27a8.47,8.47,0,0,1-4.43.63,5.92,5.92,0,0,0-4,.71s2,2.57,1.91,2.57,5.52-1,5.52-1Z"/></g><circle class="cls-11" cx="92.09" cy="94.3" r="2.85"/><path d="M91.69,92.55a2.85,2.85,0,0,1,.29,0,1,1,0,1,0,1.41,1.09,1.86,1.86,0,1,1-1.7-1.12Z"/></svg>