<svg id="Layer_3" data-name="Layer 3" xmlns="http://www.w3.org/2000/svg" xmlns:xlink="http://www.w3.org/1999/xlink" viewBox="0 0 260 168"><defs><style>.cls-1{fill:#f9cc3d;}.cls-2{fill:#893a04;}.cls-3{fill:#7c3200;}.cls-4{fill:#9e4407;}.cls-5{fill:#ff1515;}.cls-6{fill:#d60707;}.cls-7{fill:#ff6e6e;}.cls-8{fill:#af0c0c;}.cls-9{clip-path:url(#clip-path);}.cls-10{fill:#f7b03e;}.cls-11{fill:#fff;}</style><clipPath id="clip-path"><path class="cls-1" d="M128.33,102a2.39,2.39,0,0,1-2.13-1.1,2.49,2.49,0,0,0-1-1.42s.84-.41.92-.79c0,0,1.4-2.83,3.34-2.74,0,0,2.56.77,2.83,4.32a.9.9,0,0,0-.42,0S131.23,101.94,128.33,102Z"/></clipPath></defs><path class="cls-2" d="M106.07,127.87s3.36,1.41,4.21,2.75-4.64-2.28-4.64-2.28Z"/><path class="cls-3" d="M109.73,123.3l-4.51,4.06s-2.9-1.18-3.71-.92c0,0-.53.23.87.85a23.53,23.53,0,0,1,4.16,2.45c1.24.91,2.49,2.24,3.15,2.59s-.31-1.18-1.09-1.85l-.71-.65s1.83,1.39,2.42,1.8.15-1.25-3-3.11l-.9-.48s3.3-2.85,4.52-4.17S111.58,122,109.73,123.3Z"/><path class="cls-2" d="M114.4,128.14s1.79-3.18,3.22-3.87-2.8,4.34-2.8,4.34Z"/><path class="cls-4" d="M110.29,124l3.51,4.95s-1.51,2.74-1.34,3.58c0,0,.17.55.94-.77a23.57,23.57,0,0,1,2.92-3.84c1-1.13,2.51-2.22,2.93-2.83s-1.2.17-2,.87l-.73.62s1.59-1.65,2.06-2.19-1.22-.29-3.42,2.59l-.59.84s-2.45-3.61-3.62-5S109.21,122,110.29,124Z"/><path class="cls-5" d="M117.37,95.82c-.2,1.9-.2,3.53-.2,3.53.94,5.33-2.63,7-2.63,7-8-.72-12.6,1.73-12.6,1.73-2.6-4.46-2.74-.29-2.74-.29-5-6.12-4.25-1.72-4.25-1.72-8-4-3.25,2.88-3.25,2.88-5.54-.07,2.67,6.19,2.67,6.19,2,7.35,11.24,7.42,11.24,7.42,5.26,5.12,9.56,0,9.56,0a19.8,19.8,0,0,0,7.23-2.8c8.79-5.77-.43-21-.43-21a13.68,13.68,0,0,0-1.77-2.94s.24-1.45-1.1-1.61A1.7,1.7,0,0,0,117.37,95.82Z"/><path class="cls-6" d="M117.44,116.17s-4.29-6.24-15.3-4c0,0-1.62.89,0,2.18,0,0-7.53-1.94-4.77,1,0,0-2,3.23,4.61,3.72,0,0-2.1,3.64,3.56,2.83C105.54,121.83,123.43,123.21,117.44,116.17Z"/><ellipse class="cls-7" cx="106.87" cy="107.76" rx="1.21" ry="0.35"/><ellipse class="cls-7" cx="104.7" cy="108.4" rx="0.96" ry="0.28"/><path class="cls-6" d="M120.81,109.72c-.27.48-.55,1.1-.17,1.61a1.13,1.13,0,0,0,1.27.3,1,1,0,0,0,.16-.06c.09-.06.08,0,0-.06.1.07.18.18.28.25a1.52,1.52,0,0,0,.71.25,1.45,1.45,0,0,0,1.33-.71l-.36,0a1.4,1.4,0,0,0,1.58.28.87.87,0,0,0,.32-1.19c-.17-.25-.56,0-.4.23a.43.43,0,0,1-.21.6,1,1,0,0,1-1-.25.23.23,0,0,0-.36,0,1,1,0,0,1-1,.46,1.06,1.06,0,0,1-.54-.31.4.4,0,0,0-.34-.15c-.16,0-.29.12-.45.15a.7.7,0,0,1-.53-.06c-.44-.27-.1-.89.09-1.21a.23.23,0,0,0-.4-.23Z"/><path class="cls-8" d="M127.82,90.18s1.53-4.78-12.8-4.87c0,0-3.1.32-.81,3,0,0-5.39,3.43-2.29,5.76,0,0-2.09,4.84.84,3.26,0,0-1.4,4.16,2.75,1.45l7.27-4.66,2.52-2.85Z"/><path class="cls-5" d="M129.66,94.88c-.81,4.21,0,7.3-7.22,7.3a7.22,7.22,0,0,1-7.58-7.29,7.75,7.75,0,0,1,7.75-7.75C126.9,87.14,130.77,89.17,129.66,94.88Z"/><path class="cls-8" d="M125.73,100.26s-2,4.68,1.43,5.84,4.75-4.43.46-6.16A1.59,1.59,0,0,0,125.73,100.26Z"/><path class="cls-1" d="M128.33,102a2.39,2.39,0,0,1-2.13-1.1,2.49,2.49,0,0,0-1-1.42s.84-.41.92-.79c0,0,1.4-2.83,3.34-2.74,0,0,2.56.77,2.83,4.32a.9.9,0,0,0-.42,0S131.23,101.94,128.33,102Z"/><g class="cls-9"><path class="cls-10" d="M124.28,99.27a8.49,8.49,0,0,0,4.44.63,5.92,5.92,0,0,1,3.95.71s-2,2.57-1.91,2.57-5.52-1-5.52-1Z"/></g><circle class="cls-11" cx="124.53" cy="94.3" r="2.85"/><path d="M124.94,92.55a2.58,2.58,0,0,0-.29,0,1,1,0,0,1-.49,1.81,1,1,0,0,1-.93-.72,2,2,0,0,0-.15.74,1.86,1.86,0,1,0,1.86-1.86Z"/></svg>