<svg id="Layer_5" data-name="Layer 5" xmlns="http://www.w3.org/2000/svg" xmlns:xlink="http://www.w3.org/1999/xlink" viewBox="0 0 260 168"><defs><style>.cls-1{fill:#ff1515;}.cls-2{fill:#9e4407;}.cls-3{fill:#e51a1a;}.cls-4{clip-path:url(#clip-path);}.cls-5{fill:#af0c0c;}.cls-6{fill:#fff;}.cls-7{fill:#f7b03e;}.cls-8{fill:#f9cc3d;}.cls-9{fill:#f41616;}</style><clipPath id="clip-path"><path class="cls-1" d="M182.05,69c0,4.86-3,5.87-6.55,5.87s-6.16-1-6.16-5.87S172,57.21,175.5,57.21,182.05,64.09,182.05,69Z"/></clipPath></defs><path class="cls-2" d="M172.29,69.18v4.6s-4.41,2.32-3.87,2.56,3.77-1.54,3.77-1.54.78,6.87,1.21,0c0,0,8,4.31.08-1V68.91S172.56,67.56,172.29,69.18Z"/><path class="cls-2" d="M178.2,69.18v4.6s-4.41,2.32-3.88,2.56,3.78-1.54,3.78-1.54.77,6.87,1.21,0c0,0,8,4.31.07-1V68.91S178.46,67.56,178.2,69.18Z"/><path class="cls-3" d="M169.83,61.93s-9.31,1.55-12.3,7.83,3.67.85,3.67.85-.67,5.16,3.36,1.41c0,0,1.71,3.49,3.7-.81,0,0,1.38,3.49,3.34-.62,0,0,3.28,1.39,3.68-3.48S170.23,61.71,169.83,61.93Z"/><path class="cls-3" d="M181,62.22s9.31,1.61,12.25,7.91-3.67.83-3.67.83.64,5.16-3.37,1.38c0,0-1.73,3.48-3.69-.83,0,0-1.41,3.49-3.34-.64,0,0-3.28,1.37-3.66-3.5S180.56,62,181,62.22Z"/><path class="cls-1" d="M182.05,69c0,4.86-3,5.87-6.55,5.87s-6.16-1-6.16-5.87S172,57.21,175.5,57.21,182.05,64.09,182.05,69Z"/><g class="cls-4"><circle class="cls-3" cx="175.45" cy="56" r="5.68"/></g><path class="cls-5" d="M173.25,49.18a1.45,1.45,0,0,1,.85-1.58,2.67,2.67,0,0,1,1.89,0,3,3,0,0,1,1.18.67,1.71,1.71,0,0,1,.53,1.23,2.84,2.84,0,0,1-.29,1l-.48,1.12a.84.84,0,0,1-.15.26.74.74,0,0,1-.28.14c-.7.22-2.2.31-2.25-.7a1.64,1.64,0,0,0-.34-1.06A3.3,3.3,0,0,1,173.25,49.18Z"/><path class="cls-1" d="M181.69,56.5a6,6,0,0,0-6-6h0a6,6,0,0,0-6,6v.83c0,2.9,0,5.13,5.86,5.17h.29c5.81,0,5.89-2.27,5.85-5.17C181.69,57.06,181.69,56.79,181.69,56.5Z"/><ellipse class="cls-6" cx="171.92" cy="56.4" rx="1.58" ry="2.24"/><path d="M172,55l-.23,0a.76.76,0,1,1-1.11.86,1.43,1.43,0,0,0-.12.58A1.47,1.47,0,1,0,172,55Z"/><ellipse class="cls-6" cx="179.15" cy="56.4" rx="1.58" ry="2.24"/><path class="cls-5" d="M177.54,63.28c-.25-.59-.51-1.22-.79-1.77s-.75-.28-1.12,0c-.38-.25-.89-.42-1.12,0s-.55,1.18-.8,1.77a2.41,2.41,0,0,0-.11,2,1.55,1.55,0,0,0,.53.58,2,2,0,0,0,1.35.47h.29a2,2,0,0,0,1.35-.47,1.55,1.55,0,0,0,.53-.58A2.38,2.38,0,0,0,177.54,63.28Z"/><path d="M179.2,55,179,55a.76.76,0,1,1-1.11.86,1.43,1.43,0,0,0-.12.58A1.46,1.46,0,1,0,179.2,55Z"/><path class="cls-7" d="M173.18,60.64s-.33,1.86,2.5,1.86,2.27-2,2.27-2Z"/><path class="cls-8" d="M175.55,57.71h0a2.68,2.68,0,0,0-2.64,2.74c0,.45.65.4,1.58.4s1.06.19,1.06.2h0s.13-.2,1.06-.2,1.63,0,1.58-.4A2.68,2.68,0,0,0,175.55,57.71Z"/><circle class="cls-9" cx="172.92" cy="70.05" r="2.1"/><circle class="cls-9" cx="178.53" cy="70.05" r="2.1"/></svg>