<svg id="Layer_11" data-name="Layer 11" xmlns="http://www.w3.org/2000/svg" xmlns:xlink="http://www.w3.org/1999/xlink" viewBox="0 0 260 168"><defs><style>.cls-1{fill:#f9cc3d;}.cls-2{fill:#893a04;}.cls-3{fill:#7c3200;}.cls-4{fill:#9e4407;}.cls-5{fill:#ff1515;}.cls-6{fill:#d60707;}.cls-7{fill:#ff6e6e;}.cls-8{fill:#af0c0c;}.cls-9{clip-path:url(#clip-path);}.cls-10{fill:#f7b03e;}.cls-11{fill:#fff;}</style><clipPath id="clip-path"><path class="cls-1" d="M98.42,102a2.4,2.4,0,0,0,2.13-1.1,2.49,2.49,0,0,1,1-1.42s-.84-.41-.93-.79c0,0-1.39-2.83-3.33-2.74,0,0-2.56.77-2.83,4.32a.88.88,0,0,1,.42,0S95.52,101.94,98.42,102Z"/></clipPath></defs><path class="cls-2" d="M112.39,129.16s-3-2-4.64-2,4.47,2.59,4.47,2.59Z"/><path class="cls-3" d="M114.15,123.57l-.88,6s2.59,1.75,2.83,2.57c0,0,.1.57-1.19-.25a23.85,23.85,0,0,0-4.35-2.09c-1.45-.54-3.24-.84-3.9-1.18s1.15-.4,2.14-.13l.94.23s-2.17-.75-2.84-1,1-.81,4.23.75l.9.48s.54-4.33,1-6.07S114.2,121.31,114.15,123.57Z"/><path class="cls-2" d="M120.46,128.1s-3.49,1.09-4.46,2.35,4.83-1.83,4.83-1.83Z"/><path class="cls-4" d="M117.24,123.21l4.1,4.47s3-.9,3.78-.57c0,0,.51.28-.94.77a23.78,23.78,0,0,0-4.37,2c-1.33.79-2.69,2-3.38,2.29s.42-1.15,1.26-1.75l.76-.58s-2,1.21-2.58,1.56,0-1.26,3.26-2.81l.94-.39s-3-3.16-4.11-4.58S115.52,121.74,117.24,123.21Z"/><path class="cls-5" d="M109.38,95.82c.19,1.9.2,3.53.2,3.53-.94,5.33,2.62,7,2.62,7,8-.72,12.61,1.73,12.61,1.73,2.6-4.46,2.74-.29,2.74-.29,5-6.12,4.25-1.72,4.25-1.72,8-4,3.24,2.88,3.24,2.88,5.55-.07-2.66,6.19-2.66,6.19-2,7.35-11.24,7.42-11.24,7.42-5.26,5.12-9.56,0-9.56,0a19.8,19.8,0,0,1-7.23-2.8c-8.79-5.77.42-21,.42-21a13.53,13.53,0,0,1,1.78-2.94s-.24-1.45,1.1-1.61A1.7,1.7,0,0,1,109.38,95.82Z"/><path class="cls-6" d="M109.31,116.17s4.29-6.24,15.3-4c0,0,1.61.89,0,2.18,0,0,7.52-1.94,4.77,1,0,0,1.94,3.23-4.61,3.72,0,0,2.1,3.64-3.56,2.83C121.21,121.83,103.31,123.21,109.31,116.17Z"/><ellipse class="cls-7" cx="119.88" cy="107.76" rx="1.21" ry="0.35"/><ellipse class="cls-7" cx="122.05" cy="108.4" rx="0.96" ry="0.28"/><path class="cls-6" d="M105.54,110c.18.32.53.94.08,1.21a.69.69,0,0,1-.53.06c-.15,0-.29-.12-.44-.15a.4.4,0,0,0-.34.15,1.06,1.06,0,0,1-.54.31,1,1,0,0,1-1-.46.23.23,0,0,0-.36,0,1,1,0,0,1-1,.25.43.43,0,0,1-.21-.6c.16-.25-.24-.48-.4-.23a.87.87,0,0,0,.32,1.19,1.4,1.4,0,0,0,1.58-.28l-.36,0a1.42,1.42,0,0,0,2,.48,1.37,1.37,0,0,0,.29-.25s0,0-.06,0l.07,0a1,1,0,0,0,.18.07,1.14,1.14,0,0,0,1.25-.28c.41-.5.12-1.14-.15-1.63a.23.23,0,0,0-.4.23Z"/><path class="cls-8" d="M98.92,90.18s-1.52-4.78,12.8-4.87c0,0,3.1.32.82,3,0,0,5.39,3.43,2.28,5.76,0,0,2.1,4.84-.84,3.26,0,0,1.4,4.16-2.74,1.45L104,94.12l-2.52-2.85Z"/><path class="cls-5" d="M97.08,94.88c.82,4.21,0,7.3,7.22,7.3,4.29,0,7.59-3,7.59-7.29a7.75,7.75,0,0,0-7.75-7.75C99.85,87.14,96,89.17,97.08,94.88Z"/><path class="cls-8" d="M101,100.26s2,4.68-1.42,5.84-4.75-4.43-.46-6.16A1.58,1.58,0,0,1,101,100.26Z"/><path class="cls-1" d="M98.42,102a2.4,2.4,0,0,0,2.13-1.1,2.49,2.49,0,0,1,1-1.42s-.84-.41-.93-.79c0,0-1.39-2.83-3.33-2.74,0,0-2.56.77-2.83,4.32a.88.88,0,0,1,.42,0S95.52,101.94,98.42,102Z"/><g class="cls-9"><path class="cls-10" d="M102.47,99.27A8.49,8.49,0,0,1,98,99.9a5.92,5.92,0,0,0-4,.71s2,2.57,1.91,2.57,5.52-1,5.52-1Z"/></g><circle class="cls-11" cx="102.21" cy="94.3" r="2.85"/><path d="M101.81,92.55a2.58,2.58,0,0,1,.29,0,1,1,0,1,0,1.41,1.09,1.85,1.85,0,1,1-1.7-1.12Z"/></svg>