<svg xmlns="http://www.w3.org/2000/svg" xmlns:xlink="http://www.w3.org/1999/xlink" viewBox="0 0 260 168"><defs><style>.cls-1{fill:#f4a947;}.cls-2{fill:#5c1c09;}.cls-3{fill:#ff1515;}.cls-4{fill:#fff;}.cls-5{fill:#0083c4;}.cls-6{fill:#d8d8d8;}.cls-7{fill:#cbcccd;}.cls-8{fill:#c5c8c9;}.cls-9{clip-path:url(#clip-path);}.cls-10{fill:#f98e0d;}.cls-11{fill:#ffc988;}.cls-12{clip-path:url(#clip-path-2);}.cls-13{fill:#ffe38a;}.cls-14{fill:#e51a1a;}.cls-15{clip-path:url(#clip-path-3);}.cls-16{fill:#af0c0c;}.cls-17{clip-path:url(#clip-path-4);}.cls-18{clip-path:url(#clip-path-5);}.cls-19{fill:#f7b03e;}.cls-20{fill:#f9cc3d;}.cls-21{clip-path:url(#clip-path-6);}.cls-22{clip-path:url(#clip-path-7);}.cls-23{fill:#0061c1;}.cls-24{fill:#591f12;}.cls-25{clip-path:url(#clip-path-8);}.cls-26{fill:#007cad;}.cls-27{fill:#813a24;}.cls-28{clip-path:url(#clip-path-9);}.cls-29,.cls-30,.cls-33{fill:none;}.cls-29{stroke:red;stroke-width:0.95px;}.cls-29,.cls-30{stroke-miterlimit:10;}.cls-30{stroke:#1d94dc;stroke-width:0.73px;}.cls-31{fill:#1d94dc;}.cls-32{fill:#190000;}.cls-33{stroke:#461c11;stroke-linecap:round;stroke-linejoin:round;stroke-width:1.3px;}.cls-34{clip-path:url(#clip-path-10);}.cls-35{fill:#eaeaea;}.cls-36{clip-path:url(#clip-path-11);}.cls-37{fill:#ff4a4a;}.cls-38{fill:#d1d1d1;}.cls-39{fill:#914030;}</style><clipPath id="clip-path"><path class="cls-1" d="M144.4,139.25a42.45,42.45,0,0,0-10.61-.95,23.69,23.69,0,0,1,10.7-2.87,20.69,20.69,0,0,0-6.31-2,20.39,20.39,0,0,1,9.83-.81c-.61-1-1.23-2-1.85-3.06a18.25,18.25,0,0,1,4.29,1.57,7.76,7.76,0,0,1,5.9-4.26c-.39.82-.78,1.65-1.16,2.47a14.09,14.09,0,0,1,13.57-1.65l-2.7,2.22a11.37,11.37,0,0,1,7.49,3.22l-1.44,1a10.22,10.22,0,0,1,8.9,5.05,10.8,10.8,0,0,0-5.33-.74,5.6,5.6,0,0,1,3.86,3.51,9.68,9.68,0,0,0-5.1-.15,9.69,9.69,0,0,1,2.29,1.63,43.66,43.66,0,0,0-6.46-.45,6.32,6.32,0,0,1,1.07,1.57l-2.77-.6a.74.74,0,0,0-.51,0c-.15.09-.19.35,0,.42l-3.25-.23a3.58,3.58,0,0,0,.08,1.75c-1.44-.43-2.89-.8-4.36-1.1l.19,1.23-2.07-1.19c-.86.14-1.73.28-2.61.44s-2.52-.19-2.22-1.16a17.52,17.52,0,0,1-4.18.84,2.11,2.11,0,0,1,.78-1.4,26.3,26.3,0,0,0-7.61.5l2.19-1.52a51.69,51.69,0,0,0-9.71.47Z"/></clipPath><clipPath id="clip-path-2"><path class="cls-1" d="M114.16,128.06a60.66,60.66,0,0,0-15.38-1.37,34.45,34.45,0,0,1,15.5-4.17,30.63,30.63,0,0,0-9.14-2.93,29.71,29.71,0,0,1,14.25-1.17L116.7,114a27,27,0,0,1,6.23,2.27,11.24,11.24,0,0,1,8.54-6.17l-1.68,3.58a20.41,20.41,0,0,1,19.67-2.39l-3.91,3.22a16.43,16.43,0,0,1,10.85,4.67l-2.09,1.42a14.84,14.84,0,0,1,12.9,7.32,15.79,15.79,0,0,0-7.72-1.07,8.17,8.17,0,0,1,5.6,5.09,14.05,14.05,0,0,0-7.4-.21,13.73,13.73,0,0,1,3.31,2.36,62.31,62.31,0,0,0-9.36-.65,9.08,9.08,0,0,1,1.56,2.27l-4-.86a1,1,0,0,0-.74,0c-.22.12-.28.51,0,.61l-4.71-.34a5.2,5.2,0,0,0,.12,2.54q-3.12-.94-6.32-1.59l.27,1.78-3-1.72c-1.25.2-2.51.4-3.78.63-1.45.25-3.65-.28-3.23-1.68a25.56,25.56,0,0,1-6.06,1.22,3.08,3.08,0,0,1,1.14-2,38.18,38.18,0,0,0-11,.72l3.17-2.21a76.12,76.12,0,0,0-14.07.7Z"/></clipPath><clipPath id="clip-path-3"><path class="cls-3" d="M148.61,130.62c-1.43,9.26-7.51,10.29-14.19,9.26s-11.44-3.73-10-13,8.49-21.57,15.18-20.54S150,121.36,148.61,130.62Z"/></clipPath><clipPath id="clip-path-4"><ellipse class="cls-4" cx="133.86" cy="98.29" rx="4.32" ry="3.04" transform="translate(16.33 215.62) rotate(-81.24)"/></clipPath><clipPath id="clip-path-5"><ellipse class="cls-4" cx="147.61" cy="100.41" rx="4.32" ry="3.04" transform="translate(25.9 231.01) rotate(-81.24)"/></clipPath><clipPath id="clip-path-6"><path class="cls-1" d="M125,140.51a53.65,53.65,0,0,1,13.55-1.2,30.38,30.38,0,0,0-13.66-3.68,26.94,26.94,0,0,1,8.06-2.58,26.13,26.13,0,0,0-12.56-1l2.37-3.91a23.92,23.92,0,0,0-5.49,2,9.94,9.94,0,0,0-7.53-5.44c.5,1,1,2.11,1.49,3.16a18,18,0,0,0-17.34-2.11l3.44,2.84a14.49,14.49,0,0,0-9.56,4.11l1.85,1.26a13.06,13.06,0,0,0-11.37,6.45,13.86,13.86,0,0,1,6.8-.94,7.15,7.15,0,0,0-4.93,4.48,12.51,12.51,0,0,1,6.52-.19,12.36,12.36,0,0,0-2.93,2.09,55.67,55.67,0,0,1,8.26-.58,8.11,8.11,0,0,0-1.38,2l3.53-.76a1,1,0,0,1,.66,0c.19.11.25.45,0,.54l4.16-.29a4.56,4.56,0,0,1-.11,2.23q2.74-.82,5.57-1.4l-.24,1.57,2.64-1.52,3.33.56c1.27.22,3.22-.25,2.84-1.48a22.71,22.71,0,0,0,5.34,1.08,2.73,2.73,0,0,0-1-1.8,33.76,33.76,0,0,1,9.72.64l-2.79-1.95a66.68,66.68,0,0,1,12.39.62Z"/></clipPath><clipPath id="clip-path-7"><path class="cls-1" d="M130,143a38,38,0,0,0-9.63-.85,21.53,21.53,0,0,1,9.7-2.61,19.15,19.15,0,0,0-5.72-1.84,18.63,18.63,0,0,1,8.92-.73l-1.68-2.77a16.34,16.34,0,0,1,3.89,1.42,7.08,7.08,0,0,1,5.35-3.87L139.78,134a12.78,12.78,0,0,1,12.31-1.5l-2.45,2a10.27,10.27,0,0,1,6.8,2.93l-1.31.89a9.27,9.27,0,0,1,8.07,4.58,9.85,9.85,0,0,0-4.83-.67,5.11,5.11,0,0,1,3.5,3.19,8.85,8.85,0,0,0-4.63-.14,8.78,8.78,0,0,1,2.08,1.48,39.62,39.62,0,0,0-5.86-.41,5.76,5.76,0,0,1,1,1.42l-2.51-.54a.66.66,0,0,0-.46,0c-.14.08-.18.32,0,.38l-3-.21a3.29,3.29,0,0,0,.07,1.59c-1.3-.39-2.62-.73-4-1l.17,1.11-1.87-1.07c-.79.12-1.57.25-2.37.39s-2.29-.17-2-1.05a15.85,15.85,0,0,1-3.79.77,1.92,1.92,0,0,1,.71-1.27,23.5,23.5,0,0,0-6.9.45l2-1.38a47.08,47.08,0,0,0-8.8.43Z"/></clipPath><clipPath id="clip-path-8"><path class="cls-5" d="M85.71,135.1s15.59,10.32,12.38,15.36-23.84,2.07-29.8.23c0,0-1.84-3.21-.69-9.4,0,0-8-5.73-6.42-10.54S79.29,124.33,85.71,135.1Z"/></clipPath><clipPath id="clip-path-9"><path class="cls-6" d="M82,85.3s-4.88,0-7.54,3.85-9.64,28.45-10.68,30.52,24.49,12.47,28,11.55c0,0,2.71-28-.57-37.59L89,88.47S89.39,93.42,82,85.3Z"/></clipPath><clipPath id="clip-path-10"><path class="cls-7" d="M100.76,38.84s15.72,2.56,18.32,13.88a23.63,23.63,0,0,1-1.53,10.12,94.68,94.68,0,0,0-20.26-5.48A126,126,0,0,0,76.85,56S73.85,36.41,100.76,38.84Z"/></clipPath><clipPath id="clip-path-11"><path class="cls-2" d="M109.47,84.41s-.7,5.36-5.06,4.16-2.22-5.77-2.22-5.77c3.49,3.87,7,1.83,7,1.83A.81.81,0,0,0,109.47,84.41Z"/></clipPath></defs><g id="Layer_4" data-name="Layer 4"><path class="cls-8" d="M89,113.67c2-.87,3.37-.52,4.15-2.75-1-4.92-1.21-12.06-2-14.62-1.74-5.41-5.67-6.22-5.67-6.22-2.53-.62-3.86,3.32-3.5,9.1.18,3.07.71,9.11,1.15,14.52A7.87,7.87,0,0,0,89,113.67Z"/><path class="cls-1" d="M144.4,139.25a42.45,42.45,0,0,0-10.61-.95,23.69,23.69,0,0,1,10.7-2.87,20.69,20.69,0,0,0-6.31-2,20.39,20.39,0,0,1,9.83-.81c-.61-1-1.23-2-1.85-3.06a18.25,18.25,0,0,1,4.29,1.57,7.76,7.76,0,0,1,5.9-4.26c-.39.82-.78,1.65-1.16,2.47a14.09,14.09,0,0,1,13.57-1.65l-2.7,2.22a11.37,11.37,0,0,1,7.49,3.22l-1.44,1a10.22,10.22,0,0,1,8.9,5.05,10.8,10.8,0,0,0-5.33-.74,5.6,5.6,0,0,1,3.86,3.51,9.68,9.68,0,0,0-5.1-.15,9.69,9.69,0,0,1,2.29,1.63,43.66,43.66,0,0,0-6.46-.45,6.32,6.32,0,0,1,1.07,1.57l-2.77-.6a.74.74,0,0,0-.51,0c-.15.09-.19.35,0,.42l-3.25-.23a3.58,3.58,0,0,0,.08,1.75c-1.44-.43-2.89-.8-4.36-1.1l.19,1.23-2.07-1.19c-.86.14-1.73.28-2.61.44s-2.52-.19-2.22-1.16a17.52,17.52,0,0,1-4.18.84,2.11,2.11,0,0,1,.78-1.4,26.3,26.3,0,0,0-7.61.5l2.19-1.52a51.69,51.69,0,0,0-9.71.47Z"/><g class="cls-9"><path class="cls-10" d="M181.93,139.5a46,46,0,0,0-8.28-2.92,12.92,12.92,0,0,1,3.47,3.78,17.29,17.29,0,0,1-4.05-.52l.79,1.48-3-.92L172,142A19.61,19.61,0,0,1,167,140.7a5.49,5.49,0,0,1,1.9,2.26,10,10,0,0,0-5.33-1.15,11,11,0,0,1,2.26,1.36,16.73,16.73,0,0,0-3.71-.75,2.4,2.4,0,0,1,.5,1.63,2.32,2.32,0,0,0-1.94-1.09l.15,1.11a4.61,4.61,0,0,0-2-1.33,4.78,4.78,0,0,1-4.26,1.16,2.19,2.19,0,0,1,1.33-1.62q-2.76.21-5.48.69l2.76-1.7-6.31.63a11.81,11.81,0,0,1,4-1.65c-6.26-.91-12.55.94-18.61,2.76l10.49,6.22c2.3,1.36,4.68,2.75,7.34,3.09a19.93,19.93,0,0,0,6.19-.53,152.72,152.72,0,0,1,15.91-2.42c4.93-.42,10.27-.53,14.16-3.58a1.75,1.75,0,0,0,.55-.63,1.72,1.72,0,0,0,0-.93c-.21-1.4-.71-3.12-2.11-3.35"/><path class="cls-11" d="M169.8,127.28c-1.49,0-3,0-4.46.08a12.68,12.68,0,0,0-2.94.45,14.83,14.83,0,0,0-4,2.24,15,15,0,0,0-2.81,2.33,5.31,5.31,0,0,1,.39-2.64l-3.19,1.79,1-2.05a8.36,8.36,0,0,0-3.67,2.9,7.89,7.89,0,0,0-2.73-1.66,16.86,16.86,0,0,1,2.36,3.14,34.4,34.4,0,0,0-14.6.41c1-3,3.68-5.12,6.48-6.59a52.16,52.16,0,0,1,7.5-3.1,32.06,32.06,0,0,1,6.71-1.76,33.09,33.09,0,0,1,7.7.27,53,53,0,0,1,5.62.9,7.19,7.19,0,0,1,3.57,1.66"/></g><path class="cls-1" d="M114.16,128.06a60.66,60.66,0,0,0-15.38-1.37,34.45,34.45,0,0,1,15.5-4.17,30.63,30.63,0,0,0-9.14-2.93,29.71,29.71,0,0,1,14.25-1.17L116.7,114a27,27,0,0,1,6.23,2.27,11.24,11.24,0,0,1,8.54-6.17l-1.68,3.58a20.41,20.41,0,0,1,19.67-2.39l-3.91,3.22a16.43,16.43,0,0,1,10.85,4.67l-2.09,1.42a14.84,14.84,0,0,1,12.9,7.32,15.79,15.79,0,0,0-7.72-1.07,8.17,8.17,0,0,1,5.6,5.09,14.05,14.05,0,0,0-7.4-.21,13.73,13.73,0,0,1,3.31,2.36,62.31,62.31,0,0,0-9.36-.65,9.08,9.08,0,0,1,1.56,2.27l-4-.86a1,1,0,0,0-.74,0c-.22.12-.28.51,0,.61l-4.71-.34a5.2,5.2,0,0,0,.12,2.54q-3.12-.94-6.32-1.59l.27,1.78-3-1.72c-1.25.2-2.51.4-3.78.63-1.45.25-3.65-.28-3.23-1.68a25.56,25.56,0,0,1-6.06,1.22,3.08,3.08,0,0,1,1.14-2,38.18,38.18,0,0,0-11,.72l3.17-2.21a76.12,76.12,0,0,0-14.07.7Z"/><g class="cls-12"><path class="cls-10" d="M168.55,128.42a66.08,66.08,0,0,0-12-4.22,18.5,18.5,0,0,1,5,5.47,25.23,25.23,0,0,1-5.86-.75l1.15,2.15-4.33-1.34,1.59,2.28a27.83,27.83,0,0,1-7.17-1.85,8,8,0,0,1,2.76,3.27,14.51,14.51,0,0,0-7.73-1.66,16.09,16.09,0,0,1,3.28,2,23.47,23.47,0,0,0-5.38-1.09,3.41,3.41,0,0,1,.72,2.36,3.28,3.28,0,0,0-2.81-1.57l.22,1.6a6.65,6.65,0,0,0-2.87-1.93A6.88,6.88,0,0,1,129,134.8a3.19,3.19,0,0,1,1.92-2.35q-4,.31-7.94,1l4-2.46-9.15.91a16.91,16.91,0,0,1,5.79-2.39c-9.07-1.31-18.19,1.36-27,4l15.19,9c3.34,2,6.79,4,10.64,4.49a28.71,28.71,0,0,0,9-.77,221.86,221.86,0,0,1,23.05-3.51c7.14-.6,14.89-.76,20.52-5.19a2.36,2.36,0,0,0,.8-.92,2.53,2.53,0,0,0,0-1.34c-.31-2-1-4.52-3.07-4.85"/><path class="cls-13" d="M151,110.71q-3.24-.09-6.46.12a18.09,18.09,0,0,0-4.27.66,21.44,21.44,0,0,0-5.86,3.24,22.78,22.78,0,0,0-4.07,3.38,7.83,7.83,0,0,1,.56-3.83l-4.61,2.6,1.49-3a12.06,12.06,0,0,0-5.32,4.21,11.42,11.42,0,0,0-4-2.42,24.85,24.85,0,0,1,3.42,4.55,50.17,50.17,0,0,0-21.16.6c1.39-4.37,5.34-7.41,9.39-9.55a78.21,78.21,0,0,1,10.87-4.5,46.29,46.29,0,0,1,9.73-2.53,47.44,47.44,0,0,1,11.16.38A77.06,77.06,0,0,1,150,106a10.48,10.48,0,0,1,5.17,2.4"/></g><path class="cls-14" d="M131.16,112.47s-14.54-10.92-27.26-6.72,3.69,6.23,3.69,6.23-8.08,5.92,2.52,6.55c0,0-2.59,7,6,4.07,0,0-3,6.58,5.32,3.84,0,0,2.41,6.41,9.74.49S132,112.72,131.16,112.47Z"/><path class="cls-14" d="M146.66,114.85s17.15-6,28,1.81-5.39,4.82-5.39,4.82,5.92,8.08-4.37,5.49c0,0,.36,7.48-7,2.07,0,0,.9,7.18-6.23,2.06,0,0-4.23,5.38-9.43-2.46S145.78,114.84,146.66,114.85Z"/><path class="cls-3" d="M148.61,130.62c-1.43,9.26-7.51,10.29-14.19,9.26s-11.44-3.73-10-13,8.49-21.57,15.18-20.54S150,121.36,148.61,130.62Z"/><g class="cls-15"><circle class="cls-14" cx="139.85" cy="104.03" r="10.94" transform="translate(-2.98 203.93) rotate(-71.61)"/></g><path class="cls-16" d="M138.49,84.94a2.82,2.82,0,0,1,2.08-2.75,5,5,0,0,1,3.61.49,5.66,5.66,0,0,1,2.06,1.63,3.36,3.36,0,0,1,.65,2.5,5.6,5.6,0,0,1-.85,1.84l-1.25,2a1.39,1.39,0,0,1-.36.44,1.34,1.34,0,0,1-.58.2c-1.4.21-4.26-.07-4.08-2a3.15,3.15,0,0,0-.32-2.1A6.26,6.26,0,0,1,138.49,84.94Z"/><path class="cls-3" d="M152.41,101.35a11.55,11.55,0,0,0-9.66-13.17h0a11.55,11.55,0,0,0-13.17,9.65q-.12.81-.24,1.59c-.91,5.49-1.42,9.75,9.62,11.53l.27,0h0l.28,0c11.07,1.63,11.86-2.6,12.64-8.11C152.24,102.42,152.32,101.89,152.41,101.35Z"/><ellipse class="cls-4" cx="133.86" cy="98.29" rx="4.32" ry="3.04" transform="translate(16.33 215.62) rotate(-81.24)"/><g class="cls-17"><path d="M133,95.3a3.24,3.24,0,0,0-.44,0,1.47,1.47,0,1,1-2.37,1.31A2.82,2.82,0,1,0,133,95.3Z"/></g><ellipse class="cls-4" cx="147.61" cy="100.41" rx="4.32" ry="3.04" transform="translate(25.9 231.01) rotate(-81.24)"/><g class="cls-18"><path d="M146.67,97.41a3.31,3.31,0,0,0-.44,0,1.47,1.47,0,1,1-2.38,1.31,2.7,2.7,0,0,0-.4,1.07,2.82,2.82,0,1,0,3.22-2.36Z"/></g><path class="cls-16" d="M142.53,113c-.3-1.18-.61-2.45-1-3.6-.31-.92-1.34-.74-2.13-.37-.63-.59-1.57-1.07-2.13-.28-.71,1-1.4,2.1-2,3.13a4.67,4.67,0,0,0-.79,3.75,3,3,0,0,0,.84,1.25,3.84,3.84,0,0,0,2.44,1.3l.27,0,.27.06a3.82,3.82,0,0,0,2.71-.5,3.1,3.1,0,0,0,1.18-.94A4.65,4.65,0,0,0,142.53,113Z"/><path class="cls-19" d="M135,106.72s-1.16,3.46,4.21,4.28,4.91-3.2,4.91-3.2Z"/><path class="cls-20" d="M140.37,101.86h0c-4.52-.7-5.62,3.6-5.83,4.44s1.13.95,2.9,1.23,2,.68,2,.68h0s.3-.33,2.07-.06,3.09.57,3.14-.29S144.89,102.55,140.37,101.86Z"/><path class="cls-1" d="M125,140.51a53.65,53.65,0,0,1,13.55-1.2,30.38,30.38,0,0,0-13.66-3.68,26.94,26.94,0,0,1,8.06-2.58,26.13,26.13,0,0,0-12.56-1l2.37-3.91a23.92,23.92,0,0,0-5.49,2,9.94,9.94,0,0,0-7.53-5.44c.5,1,1,2.11,1.49,3.16a18,18,0,0,0-17.34-2.11l3.44,2.84a14.49,14.49,0,0,0-9.56,4.11l1.85,1.26a13.06,13.06,0,0,0-11.37,6.45,13.86,13.86,0,0,1,6.8-.94,7.15,7.15,0,0,0-4.93,4.48,12.51,12.51,0,0,1,6.52-.19,12.36,12.36,0,0,0-2.93,2.09,55.67,55.67,0,0,1,8.26-.58,8.11,8.11,0,0,0-1.38,2l3.53-.76a1,1,0,0,1,.66,0c.19.11.25.45,0,.54l4.16-.29a4.56,4.56,0,0,1-.11,2.23q2.74-.82,5.57-1.4l-.24,1.57,2.64-1.52,3.33.56c1.27.22,3.22-.25,2.84-1.48a22.71,22.71,0,0,0,5.34,1.08,2.73,2.73,0,0,0-1-1.8,33.76,33.76,0,0,1,9.72.64l-2.79-1.95a66.68,66.68,0,0,1,12.39.62Z"/><g class="cls-21"><path class="cls-10" d="M77,140.83a58.37,58.37,0,0,1,10.59-3.72,16.23,16.23,0,0,0-4.44,4.82,22.54,22.54,0,0,0,5.17-.66l-1,1.89L91.14,142l-1.4,2a25,25,0,0,0,6.32-1.64,7.1,7.1,0,0,0-2.43,2.89,12.78,12.78,0,0,1,6.81-1.47,14.6,14.6,0,0,0-2.89,1.74,20.76,20.76,0,0,1,4.74-1,3.05,3.05,0,0,0-.64,2.08,2.92,2.92,0,0,1,2.49-1.39l-.2,1.41a5.86,5.86,0,0,1,2.53-1.7,6.06,6.06,0,0,0,5.44,1.48,2.85,2.85,0,0,0-1.69-2.07c2.34.18,4.67.48,7,.88l-3.53-2.16,8.07.8a15.16,15.16,0,0,0-5.11-2.11c8-1.16,16,1.2,23.76,3.52L127,153.26c-2.94,1.74-6,3.52-9.37,4a25.55,25.55,0,0,1-7.92-.68,193.87,193.87,0,0,0-20.32-3.09c-6.29-.53-13.11-.67-18.08-4.57a2.17,2.17,0,0,1-.7-.81,2.25,2.25,0,0,1,0-1.18c.27-1.79.91-4,2.7-4.28"/><path class="cls-13" d="M92.52,125.22c1.9,0,3.8,0,5.69.11a16.53,16.53,0,0,1,3.77.57,18.84,18.84,0,0,1,5.16,2.87,19.3,19.3,0,0,1,3.58,3,6.71,6.71,0,0,0-.49-3.37l4.06,2.28L113,128a10.67,10.67,0,0,1,4.69,3.71,10,10,0,0,1,3.49-2.13,22.18,22.18,0,0,0-3,4,44.26,44.26,0,0,1,18.65.53c-1.22-3.85-4.7-6.53-8.28-8.42a68.48,68.48,0,0,0-9.58-4,41.13,41.13,0,0,0-8.57-2.24,42.14,42.14,0,0,0-9.84.35A64.42,64.42,0,0,0,93.35,121a9.27,9.27,0,0,0-4.56,2.13"/></g><path class="cls-1" d="M130,143a38,38,0,0,0-9.63-.85,21.53,21.53,0,0,1,9.7-2.61,19.15,19.15,0,0,0-5.72-1.84,18.63,18.63,0,0,1,8.92-.73l-1.68-2.77a16.34,16.34,0,0,1,3.89,1.42,7.08,7.08,0,0,1,5.35-3.87L139.78,134a12.78,12.78,0,0,1,12.31-1.5l-2.45,2a10.27,10.27,0,0,1,6.8,2.93l-1.31.89a9.27,9.27,0,0,1,8.07,4.58,9.85,9.85,0,0,0-4.83-.67,5.11,5.11,0,0,1,3.5,3.19,8.85,8.85,0,0,0-4.63-.14,8.78,8.78,0,0,1,2.08,1.48,39.62,39.62,0,0,0-5.86-.41,5.76,5.76,0,0,1,1,1.42l-2.51-.54a.66.66,0,0,0-.46,0c-.14.08-.18.32,0,.38l-3-.21a3.29,3.29,0,0,0,.07,1.59c-1.3-.39-2.62-.73-4-1l.17,1.11-1.87-1.07c-.79.12-1.57.25-2.37.39s-2.29-.17-2-1.05a15.85,15.85,0,0,1-3.79.77,1.92,1.92,0,0,1,.71-1.27,23.5,23.5,0,0,0-6.9.45l2-1.38a47.08,47.08,0,0,0-8.8.43Z"/><g class="cls-22"><path class="cls-10" d="M164,143.22a40.66,40.66,0,0,0-7.52-2.64,11.43,11.43,0,0,1,3.15,3.42,15.71,15.71,0,0,1-3.67-.47l.72,1.35L154,144l1,1.43a17.88,17.88,0,0,1-4.49-1.16,5,5,0,0,1,1.73,2.05,9.06,9.06,0,0,0-4.84-1.05,10.54,10.54,0,0,1,2.06,1.24,15.59,15.59,0,0,0-3.38-.68,2.16,2.16,0,0,1,.46,1.48,2.1,2.1,0,0,0-1.76-1l.13,1a4.17,4.17,0,0,0-1.79-1.21,4.32,4.32,0,0,1-3.87,1.05,2,2,0,0,1,1.21-1.47c-1.67.13-3.32.34-5,.63l2.51-1.54-5.73.57a10.62,10.62,0,0,1,3.63-1.5c-5.68-.82-11.39.85-16.88,2.5l9.51,5.64a17.77,17.77,0,0,0,6.66,2.81,17.83,17.83,0,0,0,5.62-.48,140.78,140.78,0,0,1,14.43-2.2c4.47-.37,9.31-.47,12.84-3.24a1.47,1.47,0,0,0,.5-.58,1.59,1.59,0,0,0,0-.84c-.2-1.27-.65-2.83-1.92-3"/><path class="cls-13" d="M153,132.13c-1.35,0-2.7,0-4,.08a11.43,11.43,0,0,0-2.67.41,13.61,13.61,0,0,0-3.67,2,14,14,0,0,0-2.54,2.11,4.77,4.77,0,0,1,.35-2.39L137.57,136l.94-1.86a7.43,7.43,0,0,0-3.33,2.63,7.26,7.26,0,0,0-2.48-1.51,15.62,15.62,0,0,1,2.14,2.85,31.5,31.5,0,0,0-13.25.37c.87-2.73,3.35-4.64,5.88-6a49.32,49.32,0,0,1,6.81-2.82,29.2,29.2,0,0,1,6.09-1.59,29.69,29.69,0,0,1,7,.25,46.25,46.25,0,0,1,5.1.81,6.61,6.61,0,0,1,3.24,1.51"/></g><path class="cls-23" d="M102.72,146.55a4.21,4.21,0,0,1-3,2.94,7.45,7.45,0,0,1-1.57.08l-2.8,0a4.68,4.68,0,0,1-1.4-.17,3.33,3.33,0,0,1-1.83-1.8,6.07,6.07,0,0,1,1.53-7.14A8,8,0,0,1,96,139.1a5.16,5.16,0,0,1,1.72-.34,4,4,0,0,1,2.57,1.18C102.09,141.62,103.47,144,102.72,146.55Z"/><path d="M62.73,150.23a6.31,6.31,0,0,0-.87-.14,4.48,4.48,0,0,0-1,.14,12.6,12.6,0,0,1-5.76-.22,4.58,4.58,0,0,1-2.73-1.72,3.71,3.71,0,0,1-.5-2,7.21,7.21,0,0,1,4-5.84,18.71,18.71,0,0,1,7.18-1.74,10.45,10.45,0,0,1,2.68,0,5.67,5.67,0,0,1,4.55,4.79C70.74,147.31,66.47,150.91,62.73,150.23Z"/><path class="cls-24" d="M65,146.18a4,4,0,0,0-1.82-2.39A4.31,4.31,0,0,1,65,141a3.27,3.27,0,0,1,2-.18,5.43,5.43,0,0,1,3,1.51,4.18,4.18,0,0,1,1.25,3,5.63,5.63,0,0,1-.19,1.23c-.4,1.55-1.06,3.26-2.82,3a6.88,6.88,0,0,1-2.37-.7C65.38,148.48,65.23,146.78,65,146.18Z"/><path class="cls-5" d="M85.71,135.1s15.59,10.32,12.38,15.36-23.84,2.07-29.8.23c0,0-1.84-3.21-.69-9.4,0,0-8-5.73-6.42-10.54S79.29,124.33,85.71,135.1Z"/><g class="cls-25"><path class="cls-26" d="M82.92,141.71a37.75,37.75,0,0,0,7.26,4.06,15.08,15.08,0,0,0,8.17,1,4.65,4.65,0,0,0,1.23-.39,3.7,3.7,0,0,0,1.65-2.12c.84-2.47-.21-5.28-2-7.19a20.13,20.13,0,0,0-6.59-4.17A61.45,61.45,0,0,0,78.51,128c-2-.37-3.93-.58-5.9-.79s-12.26-.28-7,3.34c3.62,2.47,7.59,4.48,11.22,7C78.88,138.92,80.88,140.34,82.92,141.71Z"/></g><path class="cls-27" d="M86,125.32a4,4,0,0,0,1,2.28,18.93,18.93,0,0,1,1.62,2c.57.91.87,2,1.73,2.68a1.06,1.06,0,0,0,1.3.1,1.1,1.1,0,0,0,.06-1.23,3.8,3.8,0,0,1-.49-1.2l3.27,3.9a3.75,3.75,0,0,0,1.69,1.35,1.25,1.25,0,0,0,1.07-.13c.64-.46.43-1.46.13-2.2A46.9,46.9,0,0,0,94.63,127a10.19,10.19,0,0,0-3-3.62C89.83,122.2,85.92,122.37,86,125.32Z"/><path class="cls-8" d="M86.06,107.68a6.43,6.43,0,0,0-3.94,5.1,18.79,18.79,0,0,0,.39,6.71c.57,3.17,1.48,3.91,2,7.09,3.27-.49,7.14.42,10.41-.07-.88-4.92-1.92-7.86-2.48-11.22C91.9,111.68,90.91,106.11,86.06,107.68Z"/><path class="cls-26" d="M81,142.39a7.61,7.61,0,0,0-3.57-2.15,20,20,0,0,0-4.8-1.07,32.69,32.69,0,0,1-4.09-.33,8.07,8.07,0,0,1-6.16-6.93,2.9,2.9,0,0,0-.61,2.78,7.12,7.12,0,0,0,1.49,2.56c.9,1.1,2.4,3.26,3.83,3.68a2.2,2.2,0,0,0,1.42-.23,10.1,10.1,0,0,1,2.44-.39,19.83,19.83,0,0,1,5.16.37,19,19,0,0,1,2.58.72A6.3,6.3,0,0,1,81,142.39Z"/><polygon class="cls-27" points="81.01 90.98 88.15 92.41 89.96 83.34 83.07 80.68 81.01 90.98"/><path class="cls-6" d="M82,85.3s-4.88,0-7.54,3.85-9.64,28.45-10.68,30.52,24.49,12.47,28,11.55c0,0,2.71-28-.57-37.59L89,88.47S89.39,93.42,82,85.3Z"/><g class="cls-28"><path class="cls-7" d="M78.39,81.94s2,8.29,8.94,10.12c0,0,4,5,1.91,23.34l3.68.59,2-31Z"/><path class="cls-29" d="M76.17,85s6.86,5.17,7.59,9.56-1.19,21.26-.43,24,10.86,3.49,10.86,3.49"/><path class="cls-30" d="M78.13,85.36c1.92.23,2.78,2.54,4.37,3.63.54.36,1.21.64,1.45,1.24.16.4.08.87.23,1.27a4,4,0,0,0,.95,1.18,3.41,3.41,0,0,1,.43,3.86,2.38,2.38,0,0,1,1.38,2.31,6.92,6.92,0,0,1-.8,2.74,2.44,2.44,0,0,1-.29,4.47,4.07,4.07,0,0,1-.24,5.29,5.42,5.42,0,0,1,.4,5,1.89,1.89,0,0,1,1.81,1.91,1.68,1.68,0,0,1,2.76.93,2.31,2.31,0,0,1,3.86.77"/><path class="cls-31" d="M74.68,86.69a10.19,10.19,0,0,1,3.78,4.24c.9,1.92.73,4,1.26,6s-.45,3.58.14,5.48a5.8,5.8,0,0,1,.25,3.25,8.47,8.47,0,0,0-.31,2.83c.09.9.36,1.78.38,2.69,0,1.08-.27,2.14-.29,3.21a17.46,17.46,0,0,0,1.33,6.12c.45,1.23,1,2.7,2.54,2.74a2.71,2.71,0,0,1,1.48.45,4.83,4.83,0,0,0,.72.45c.65.25,1.12,0,1.73-.21,1.07-.32,1.66.48,2.67.55s1.48-.74,2.34-.86c1.49-.21,3.42,1.35,4.45-.56.38-.69-.68-1.31-1.05-.62-.51.93-2.1,0-2.77-.1a2.46,2.46,0,0,0-1.74.29c-.4.23-.76.65-1.28.62a4,4,0,0,1-1.08-.48,2.38,2.38,0,0,0-1.62-.13c-.41.13-.93.43-1.37.28s-.62-.5-.9-.66c-.65-.37-1.56,0-2.13-.47s-.93-2-1.2-2.74a19.09,19.09,0,0,1-.78-3c-.3-1.93.35-3.79.12-5.7A13.22,13.22,0,0,1,81,107.3c.09-.85.4-1.66.48-2.51a5.69,5.69,0,0,0-.34-2.35,5.64,5.64,0,0,1-.09-3.18c.34-1.71-.35-3.44-.52-5.15a11.25,11.25,0,0,0-5.25-8.47c-.67-.42-1.29.64-.62,1Z"/></g><path class="cls-32" d="M117.52,65.52a5.81,5.81,0,0,1-1.94,2.67,1.53,1.53,0,0,0-.33.29,1.55,1.55,0,0,0-.18.8,2.25,2.25,0,0,1-.54,1.48,1.79,1.79,0,0,1-2.43-.17,3.85,3.85,0,0,1-1-2.47,8.48,8.48,0,0,1,1.37-5.6,3.53,3.53,0,0,1,2.91-1.74C117.47,60.94,118.09,63.92,117.52,65.52Z"/><ellipse class="cls-27" cx="96.57" cy="81.55" rx="9.58" ry="15.68" transform="translate(-5.29 156.39) rotate(-76.48)"/><path class="cls-27" d="M79.38,67.26C77.7,78.54,82.64,88.47,92.92,90s18.11-6.74,20.45-17.9c4-18.91,11.69-16.43-14.36-23C88.92,46.64,81.06,56,79.38,67.26Z"/><ellipse class="cls-4" cx="105.99" cy="73.22" rx="6" ry="3.99" transform="translate(10.02 159.16) rotate(-76.48)"/><path d="M104,73.39a1.48,1.48,0,0,0,2.87,0,1.54,1.54,0,0,0-.19-1.14l.44.07a3.06,3.06,0,1,1-3.7,2.27A3.22,3.22,0,0,1,104,73.39Z"/><path class="cls-33" d="M103.25,65.29s5.8-4.07,9.23,1.53"/><ellipse class="cls-27" cx="111.1" cy="78.86" rx="2.37" ry="2.8" transform="translate(8.45 168.45) rotate(-76.48)"/><path class="cls-32" d="M114.78,64.69a7.42,7.42,0,0,1-3.71-1.62,4.81,4.81,0,0,1-5-1.59,9.65,9.65,0,0,1-7.69-.59A3.17,3.17,0,0,1,97,63.59a3.63,3.63,0,0,1-3.18.39,2.07,2.07,0,0,1,.08,2.3,2.27,2.27,0,0,1-2.2.92,2.51,2.51,0,0,1-.37,3,2.89,2.89,0,0,1-3.2.45,3.39,3.39,0,0,1-5,.88,7,7,0,0,1-3.31-.4,2.93,2.93,0,0,1-1.89-2.47,3,3,0,0,1-2.7-1.54,2.61,2.61,0,0,1,.32-2.91,2.41,2.41,0,0,1-1.08-2.52,4.88,4.88,0,0,1,1.43-2.45,4,4,0,0,1,2.51-3.93,13.42,13.42,0,0,1,5.07-1l9.35-.57C99,53.41,105.51,53.12,111,56a32.35,32.35,0,0,1,4,2.59c1.14.83,2.86,2.19,2.84,3.7S116.15,64.75,114.78,64.69Z"/><path class="cls-7" d="M100.76,38.84s15.72,2.56,18.32,13.88a23.63,23.63,0,0,1-1.53,10.12,94.68,94.68,0,0,0-20.26-5.48A126,126,0,0,0,76.85,56S73.85,36.41,100.76,38.84Z"/><g class="cls-34"><path class="cls-35" d="M120.9,60.92s-3.78-4.08-23.44-7.05-26.14.76-26.14.76l1.85,7.75,47.47,6.78Z"/></g><path class="cls-32" d="M89.39,75.2a8.42,8.42,0,0,1-5.52.79A7.17,7.17,0,0,1,81,75.13a3,3,0,0,1-1.51-2.51,3.27,3.27,0,0,1-3.12-1.76,4.53,4.53,0,0,1-.15-3.68,6.65,6.65,0,0,1,5.46-4.08,9.35,9.35,0,0,1,6.68,2.08C90.89,67.21,92.83,73,89.39,75.2Z"/><ellipse class="cls-27" cx="90.89" cy="71.52" rx="5.15" ry="4.05" transform="translate(0.11 143.18) rotate(-76.48)"/><path class="cls-2" d="M109.47,84.41s-.7,5.36-5.06,4.16-2.22-5.77-2.22-5.77c3.49,3.87,7,1.83,7,1.83A.81.81,0,0,0,109.47,84.41Z"/><g class="cls-36"><ellipse class="cls-37" cx="101.3" cy="89.26" rx="3.48" ry="4.27" transform="translate(-9.17 166.89) rotate(-76.48)"/><ellipse class="cls-4" cx="106.19" cy="82.7" rx="3.48" ry="4.27" transform="translate(0.97 166.62) rotate(-76.48)"/></g><path class="cls-32" d="M79,71.92a2.48,2.48,0,0,1-1.67-2.08,3,3,0,0,1-1.38-4,3.59,3.59,0,0,1,3.94-1.8,2.94,2.94,0,0,1,1.29.63,4,4,0,0,1,1,1.84A7.45,7.45,0,0,1,82.54,69a13.89,13.89,0,0,1,.07,1.81C82.34,72.17,80,72.3,79,71.92Z"/><path class="cls-38" d="M78.77,116.19c2.15-.54,3-1.73,4.09-3.82-.19-5-1.59-15.75-2-18.4-.89-5.61-4.5-4.86-4.5-4.86-2.41-1-4.32,2.69-4.85,8.46-.29,3.06,1.94,13,1.55,18.45C74.81,117,76.67,116.72,78.77,116.19Z"/><path class="cls-6" d="M64.22,119.05s-7.2,10.09-2.54,17.2c0,0,.42-7.8,4.67-6.42s23.11,14.44,27.35,15.59,15.48,1.15,9.75-5.73-14.62-9.48-14.62-9.48Z"/><path class="cls-27" d="M82.91,131.71l4.42,2.52a3.83,3.83,0,0,0,2.06.68,1.25,1.25,0,0,0,1-.5c.44-.66-.1-1.52-.64-2.11A47.23,47.23,0,0,0,85,127.82a10.12,10.12,0,0,0-4.08-2.35c-2.09-.47-5.7,1.06-4.56,3.77A4,4,0,0,0,78.14,131s1.12,1.26,4.65.67"/><path class="cls-39" d="M84.91,128.56a18.78,18.78,0,0,1,2.3,2,9.44,9.44,0,0,1,1,1.16,2.66,2.66,0,0,1,.39.75.88.88,0,0,1,0,.53,1.45,1.45,0,0,1-.26.4,1.65,1.65,0,0,1-1.68.22,5.42,5.42,0,0,1-1.4-.71c-.85-.54-1.69-1.08-2.52-1.68.93.41,1.83.87,2.73,1.33a6.76,6.76,0,0,0,1.33.59A1.22,1.22,0,0,0,88,133a.76.76,0,0,0,.15-.23c0-.05,0-.08,0-.1s0-.06,0-.11a2.35,2.35,0,0,0-.3-.59,12.44,12.44,0,0,0-.89-1.17C86.27,130,85.58,129.31,84.91,128.56Z"/><path class="cls-39" d="M81.92,131.05a2.63,2.63,0,0,1-1.11.48,3.45,3.45,0,0,1-1.24,0,3.53,3.53,0,0,1-1.15-.42,3.21,3.21,0,0,1-.93-.79,9.39,9.39,0,0,0,2.17.69A7.13,7.13,0,0,0,81.92,131.05Z"/><path class="cls-38" d="M77.56,108.42a6.44,6.44,0,0,0-4.12,5,19,19,0,0,0,.14,6.72c.46,3.2,1.33,4,1.79,7.16,3.28-.37,7.12.69,10.4.32-.7-4.95-1.63-7.93-2.06-11.31C83.25,112.63,82.47,107,77.56,108.42Z"/></g></svg>