<svg id="Layer_2" data-name="Layer 2" xmlns="http://www.w3.org/2000/svg" xmlns:xlink="http://www.w3.org/1999/xlink" viewBox="0 0 260 168"><defs><style>.cls-1{fill:#f2a64c;}.cls-2{fill:#ffba5f;}.cls-3{fill:#f4a64a;}.cls-4{fill:#c97523;}.cls-5{clip-path:url(#clip-path);}.cls-6{fill:#dd8b31;}.cls-7,.cls-9{fill:#f9e295;}.cls-8{clip-path:url(#clip-path-2);}.cls-9{opacity:0.29;}.cls-10{clip-path:url(#clip-path-3);}.cls-11{clip-path:url(#clip-path-4);}.cls-12{fill:#0400b5;}.cls-13{fill:#1800ff;}.cls-14{fill:#0500cc;}.cls-15{fill:red;}.cls-16{fill:#0068ff;}</style><clipPath id="clip-path"><path class="cls-1" d="M189.89,126.72a2.82,2.82,0,0,1,.64,3.09h-.1a.7.7,0,1,0,.27,1.37.79.79,0,0,0,.57-.49,4.82,4.82,0,0,0,0-4.26c-1.12-2.85.22-3.45.22-3.45l-3,.19A4.21,4.21,0,0,0,189.89,126.72Z"/></clipPath><clipPath id="clip-path-2"><path class="cls-1" d="M201.94,126.72a2.84,2.84,0,0,0-.64,3.09h.11a.7.7,0,1,1-.28,1.37.76.76,0,0,1-.56-.49,4.78,4.78,0,0,1,0-4.26c1.11-2.85-.22-3.45-.22-3.45l3,.19A4.2,4.2,0,0,1,201.94,126.72Z"/></clipPath><clipPath id="clip-path-3"><path class="cls-2" d="M203.63,123.56a4.86,4.86,0,0,0-3.86-2.87l-7.64.17s-2.86.89-3.83,2.65a.73.73,0,0,0-.22.51v.22a.72.72,0,0,0,.37.63.28.28,0,0,0,0,.09c0,.37.84.67,1.88.67a4.62,4.62,0,0,0,1-.1,19.21,19.21,0,0,0,9.29,0,4.77,4.77,0,0,0,1,.1c1,0,1.88-.3,1.88-.67,0,0,0,0,0-.08a.72.72,0,0,0,.39-.64V124A.76.76,0,0,0,203.63,123.56Z"/></clipPath><clipPath id="clip-path-4"><path class="cls-3" d="M187.31,123.13s0,1.72,8.7,1.72,9.6-2.37,9.6-2.37l.07,2.37-1.26,2.23-11.79,0-4.58-.17Z"/></clipPath></defs><path class="cls-4" d="M191.75,122a9.41,9.41,0,0,0,.24,3.56,6.37,6.37,0,0,1,.35,3.22c-.11.54.49.88.92.19s.14-2.81,0-4a9.89,9.89,0,0,1,.3-2.94Z"/><path class="cls-4" d="M200.14,122a9.41,9.41,0,0,1-.24,3.56,6.37,6.37,0,0,0-.35,3.22c.11.54-.49.88-.92.19s-.14-2.81,0-4a9.89,9.89,0,0,0-.3-2.94Z"/><path class="cls-1" d="M189.89,126.72a2.82,2.82,0,0,1,.64,3.09h-.1a.7.7,0,1,0,.27,1.37.79.79,0,0,0,.57-.49,4.82,4.82,0,0,0,0-4.26c-1.12-2.85.22-3.45.22-3.45l-3,.19A4.21,4.21,0,0,0,189.89,126.72Z"/><g class="cls-5"><path class="cls-6" d="M190.59,122.36a6.58,6.58,0,0,0,.3,4c.86,2.29.76,2.92.29,3.92a.73.73,0,0,0-.39-.34s.48.56-.3.89-.69-.32-.71-.48l-.13.8.37.64,2.4-.12,2.23-2.44-2.56-6.49Z"/><path class="cls-7" d="M188.82,122.53a6.68,6.68,0,0,0,1.17,3.85c1.22,1.52,1,2.51.59,3.44a2.12,2.12,0,0,0-.28,0c-.06,0-2.62-5.76-2.62-5.76Z"/></g><ellipse class="cls-7" cx="190.29" cy="130.13" rx="0.24" ry="0.16" transform="translate(-21.84 39.87) rotate(-11.32)"/><path class="cls-1" d="M201.94,126.72a2.84,2.84,0,0,0-.64,3.09h.11a.7.7,0,1,1-.28,1.37.76.76,0,0,1-.56-.49,4.78,4.78,0,0,1,0-4.26c1.11-2.85-.22-3.45-.22-3.45l3,.19A4.2,4.2,0,0,1,201.94,126.72Z"/><g class="cls-8"><path class="cls-6" d="M201.24,122.36a6.49,6.49,0,0,1-.3,4c-.86,2.29-.75,2.92-.28,3.92a.69.69,0,0,1,.38-.34s-.48.56.3.89.69-.32.72-.48l.13.8-.38.64-2.39-.12-2.23-2.44,2.56-6.49Z"/><path class="cls-9" d="M203,122.53a6.77,6.77,0,0,1-1.17,3.85c-1.23,1.52-1,2.51-.6,3.44a2.5,2.5,0,0,1,.28,0c.07,0,2.63-5.76,2.63-5.76Z"/></g><ellipse class="cls-7" cx="201.55" cy="130.13" rx="0.16" ry="0.24" transform="translate(34.4 302.22) rotate(-78.68)"/><path class="cls-2" d="M203.63,123.56a4.86,4.86,0,0,0-3.86-2.87l-7.64.17s-2.86.89-3.83,2.65a.73.73,0,0,0-.22.51v.22a.72.72,0,0,0,.37.63.28.28,0,0,0,0,.09c0,.37.84.67,1.88.67a4.62,4.62,0,0,0,1-.1,19.21,19.21,0,0,0,9.29,0,4.77,4.77,0,0,0,1,.1c1,0,1.88-.3,1.88-.67,0,0,0,0,0-.08a.72.72,0,0,0,.39-.64V124A.76.76,0,0,0,203.63,123.56Z"/><g class="cls-10"><path class="cls-3" d="M187.31,123.13s0,1.72,8.7,1.72,9.6-2.37,9.6-2.37l.07,2.37-1.26,2.23-11.79,0-4.58-.17Z"/><g class="cls-11"><path class="cls-7" d="M187.83,123.59s.34.1.36.65.62.62.62.62-.48,0-.11.68l-1,0Z"/></g></g><path class="cls-12" d="M202.27,124.1a58.89,58.89,0,0,1-6.41.32,59.49,59.49,0,0,1-6.15-.32.7.7,0,0,1-.44-.15.49.49,0,0,1-.19-.38v-1.08a.26.26,0,0,1,.28-.24h13.32a.2.2,0,0,1,.22.18v1.14A.59.59,0,0,1,202.27,124.1Z"/><path class="cls-13" d="M202.74,122.41H189.39c-.31,0-.26-.16-.15-.27a3.61,3.61,0,0,1,1-.72,5.22,5.22,0,0,1,1.38-.47l0,0,.17-.06a.76.76,0,0,1,.21,0c1.2-.09,2.54-.14,4-.15s2.89-.06,4.16,0l.16,0a5.36,5.36,0,0,1,1.59.7,3.42,3.42,0,0,1,.93.79A.11.11,0,0,1,202.74,122.41Z"/><ellipse class="cls-13" cx="191.21" cy="122.41" rx="2.13" ry="0.38"/><ellipse class="cls-13" cx="195.39" cy="122.41" rx="2.13" ry="0.38"/><ellipse class="cls-13" cx="199.41" cy="122.41" rx="2.13" ry="0.38"/><ellipse class="cls-13" cx="200.76" cy="122.41" rx="2.13" ry="0.38"/><ellipse class="cls-14" cx="192.94" cy="121.41" rx="0.81" ry="0.14"/><ellipse class="cls-14" cx="195.99" cy="121.41" rx="0.81" ry="0.14"/><ellipse class="cls-14" cx="198.96" cy="121.41" rx="0.81" ry="0.14"/><path class="cls-15" d="M189.11,122.34a.1.1,0,0,0,0,.09l0,0,.09,0a.11.11,0,0,0,.08,0,.08.08,0,0,0,0,0,.17.17,0,0,0,0-.12.05.05,0,0,0,0,0l-.05,0c-.05,0-.07,0-.09,0S189.13,122.31,189.11,122.34Z"/><ellipse class="cls-16" cx="200.85" cy="122.4" rx="1.58" ry="0.13"/><ellipse class="cls-16" cx="198.17" cy="122.18" rx="0.79" ry="0.07"/></svg>