<svg id="Layer_1" data-name="Layer 1" xmlns="http://www.w3.org/2000/svg" viewBox="0 0 260 168"><defs><style>.cls-1{fill:#995904;}.cls-2{fill:#b5781f;}.cls-3{fill:#a06517;}.cls-4{fill:#d8d8d8;}.cls-5{fill:#b7b7b7;}.cls-6{fill:#bfbfbf;}.cls-7{fill:#eae8e9;}.cls-8{fill:#d6d6d6;}</style></defs><path class="cls-1" d="M26.8,141v2.22c0,.6,4.11,1.09,9.18,1.09s9.17-.49,9.17-1.09V141Z"/><ellipse class="cls-2" cx="35.98" cy="141.03" rx="9.17" ry="1.09"/><rect class="cls-3" x="34.33" y="118.35" width="3.29" height="23.19" rx="1.65"/><path class="cls-1" d="M17.82,118.35v4.39c0,1.18,8.13,2.15,18.16,2.15s18.16-1,18.16-2.15v-4.39Z"/><ellipse class="cls-2" cx="35.98" cy="118.35" rx="18.16" ry="2.15"/><path class="cls-4" d="M25.82,105.81s-.56.9-1.09.18c0,0-.14,0-.5-1.42,0,0-1-3.3-2-3.46a4.47,4.47,0,0,0-2.31.45s-.32.13-.07.43A7.81,7.81,0,0,1,21,103.37a5.3,5.3,0,0,1,.53,2s0,4.1.57,5.13a4.24,4.24,0,0,0,3.26,2.74L27,109.13Z"/><ellipse class="cls-5" cx="35.42" cy="117.58" rx="6.52" ry="1.4"/><path class="cls-4" d="M43.68,104.51s.55.19,1.32-.73c0,0,1.55-2.3,3.6-1.6,0,0,2.17.5,2.54,3.81,0,0,.61,4.51-2.32,6.89a6.59,6.59,0,0,1-4.45,1.68l1.24-2.18s1.61.58,3.49-1.91c0,0,1.54-2.07.49-5.72,0,0-.51-1.12-1.38-1.24a1.59,1.59,0,0,0-1.62.57,3.32,3.32,0,0,0-.76,1.66s-.07,1.45-.38,1.62L43.14,105Z"/><path class="cls-4" d="M30.28,101.36a14.15,14.15,0,0,1,5.49-.81s4.76.41,5.78,1.79l-2.9,3.4-6.89.61-3-.44.55-3.48"/><circle class="cls-6" cx="35.63" cy="99.58" r="1.69"/><path class="cls-7" d="M28.83,103s-3.07,1.27-3.65,3.76c0,0-1.41,4.86.39,7.49a12.48,12.48,0,0,0,3,3,19,19,0,0,0,7.16,1.32s5-.3,5.83-1A9.22,9.22,0,0,0,45.31,114a9.48,9.48,0,0,0,.77-5.23s-.66-4.2-4.06-5.47a1.22,1.22,0,0,0,.11-.85s-.11-1-1.91-1c0,0,.8.53.89.91,0,0,.37.55-1.06.79a46.28,46.28,0,0,1-4.63.22s-4.87,0-5.53-1c0,0-.15-.87,1-1.22,0,0-1.79.1-2.05.91a1.4,1.4,0,0,0,.09.86Z"/><path class="cls-8" d="M28.91,103a3.53,3.53,0,0,0,1.48.81,10,10,0,0,0,1.64.38,22.33,22.33,0,0,0,3.38.26,21.2,21.2,0,0,0,3.38-.14,8.15,8.15,0,0,0,3.23-1,7.63,7.63,0,0,1-3.21,1.1,19.45,19.45,0,0,1-3.41.18,20.46,20.46,0,0,1-3.4-.3A5.76,5.76,0,0,1,28.91,103Z"/></svg>