<svg id="Layer_1" data-name="Layer 1" xmlns="http://www.w3.org/2000/svg" xmlns:xlink="http://www.w3.org/1999/xlink" viewBox="0 0 260 168"><defs><style>.cls-1{fill:#e53c70;}.cls-2{fill:#ff719d;}.cls-3{fill:#aeeeff;}.cls-4{fill:#e8ba67;}.cls-5,.cls-80{fill:#fff;}.cls-6{fill:#471e00;}.cls-7{fill:#d7fff4;opacity:0.3;}.cls-8{fill:#3d3dfc;}.cls-9{fill:#770031;}.cls-10{fill:#994a0a;}.cls-11{fill:#ddd;}.cls-12,.cls-28,.cls-44,.cls-46,.cls-52,.cls-53,.cls-78,.cls-82{fill:none;}.cls-13{fill:#98623d;}.cls-14{fill:#3e71ff;}.cls-15{fill:#2b2b2b;}.cls-16{fill:#a01548;}.cls-17{clip-path:url(#clip-path);}.cls-18{clip-path:url(#clip-path-2);}.cls-19{clip-path:url(#clip-path-3);}.cls-20{fill:#fc3f83;}.cls-21{fill:#fc5e9e;}.cls-22{fill:#ce366d;}.cls-23{clip-path:url(#clip-path-4);}.cls-24{clip-path:url(#clip-path-5);}.cls-25{fill:#6627c0;}.cls-26{clip-path:url(#clip-path-6);}.cls-27{fill:#77492a;}.cls-28{stroke:#77492a;stroke-width:0.13px;}.cls-105,.cls-106,.cls-28{stroke-miterlimit:10;}.cls-29{fill:#085abb;}.cls-30{fill:#0c69c3;}.cls-31{fill:#2783df;}.cls-32{fill:#faaf3b;}.cls-33{fill:#fbed21;}.cls-34{fill:#a76f47;}.cls-35{fill:#0071bb;}.cls-36{fill:#383838;}.cls-37{fill:#0461bb;}.cls-38{fill:#885e3c;}.cls-39{fill:#2e82ff;}.cls-40{fill:#126cc5;}.cls-41{fill:#0055a9;}.cls-42{fill:#1b6fe9;}.cls-43{fill:#603913;}.cls-44{stroke:#28190a;stroke-width:0.41px;}.cls-44,.cls-46,.cls-52,.cls-53,.cls-78,.cls-82{stroke-linecap:round;stroke-linejoin:round;}.cls-45{fill:#4f3615;}.cls-46,.cls-52,.cls-53{stroke:#4f3615;opacity:0.25;}.cls-46{stroke-width:0.16px;}.cls-47{fill:#111;}.cls-48{fill:#6d6d6d;}.cls-49{clip-path:url(#clip-path-7);}.cls-50{fill:#2b67ec;}.cls-51{fill:#ffcd00;}.cls-52{stroke-width:0.17px;}.cls-53{stroke-width:0.34px;}.cls-54{fill:#afaeb1;}.cls-55{fill:#9846e7;}.cls-56{fill:#191919;}.cls-57{fill:#7d33d2;}.cls-58{fill:#6429b6;}.cls-59{clip-path:url(#clip-path-8);}.cls-60{fill:#ffe600;}.cls-61{clip-path:url(#clip-path-9);}.cls-62{clip-path:url(#clip-path-10);}.cls-63{fill:#d3a254;}.cls-64{fill:#a06f20;}.cls-65{fill:#e2af5d;}.cls-66{fill:#f7d19a;}.cls-67{fill:#d69936;}.cls-68{clip-path:url(#clip-path-11);}.cls-69{fill:#ffd38d;}.cls-70{fill:#7a3100;}.cls-71{clip-path:url(#clip-path-12);}.cls-72{clip-path:url(#clip-path-13);}.cls-73{clip-path:url(#clip-path-14);}.cls-74{fill:#c41e1e;}.cls-75{fill:#93621b;}.cls-76{fill:#301c00;}.cls-77{fill:#7a4609;}.cls-78{stroke:#d8a14a;stroke-width:0.09px;}.cls-79{clip-path:url(#clip-path-15);}.cls-80{opacity:0.21;}.cls-81{fill:#2e2eef;}.cls-82{stroke:#457fff;stroke-width:0.03px;}.cls-83{fill:#457fff;}.cls-84{clip-path:url(#clip-path-16);}.cls-85{clip-path:url(#clip-path-17);}.cls-86{fill:#2d2de8;}.cls-87{clip-path:url(#clip-path-18);}.cls-88{clip-path:url(#clip-path-19);}.cls-89{clip-path:url(#clip-path-20);}.cls-90{fill:#682c02;}.cls-91{fill:#c1671e;}.cls-92{fill:#d6752d;}.cls-93{fill:#c97523;}.cls-94{clip-path:url(#clip-path-21);}.cls-95{fill:#f49547;}.cls-96{fill:#a8540e;}.cls-97{clip-path:url(#clip-path-22);}.cls-98{clip-path:url(#clip-path-23);}.cls-99{fill:#c11e59;}.cls-100{clip-path:url(#clip-path-24);}.cls-101{fill:#f2f2f2;}.cls-102{fill:#bf2564;}.cls-103{fill:#ffd00b;}.cls-104{fill:#ffea6c;}.cls-105,.cls-106{fill:#161616;stroke:#231f20;}.cls-105{stroke-width:0.53px;}.cls-106{stroke-width:0.53px;}</style><clipPath id="clip-path"><path class="cls-1" d="M59.13,48.64H183s16.56-.27,17,12.27-4,30.24-4,30.24,18.63-4.54,20.74,3.64c2.35,9.09-3.31,27.6-3.31,27.6s1.06,6.38-15.09,6.38-.85-.43-.85-.43H67.87s-18,2.94-20.82-9.35c-2.94-12.59-2.2-59.84-2.2-59.84S45.58,49.66,59.13,48.64Z"/></clipPath><clipPath id="clip-path-2"><path class="cls-2" d="M217.49,110.9c1.87-2.64-.74-23.68-.3-23.83s-19,2.43-19,2.43-2.72-1-2.58,5.37c0,0,11.92-.59,10.74,7.79,0,0-1.18,4-.88,6.33S215,114.43,217.49,110.9Z"/></clipPath><clipPath id="clip-path-3"><path class="cls-9" d="M228.16,105.57a165.29,165.29,0,0,1-17.35,0S219.56,121.5,228.16,105.57Z"/></clipPath><clipPath id="clip-path-4"><path class="cls-3" d="M192.1,59.35,175,59.27a2.64,2.64,0,0,0-2.66,2.64V90A2.65,2.65,0,0,0,175,92.66h16.43A2.6,2.6,0,0,0,194,90.3c.32-3.92,3.89-12.78,3.65-28.21C197.67,60.66,195.94,59.09,192.1,59.35Z"/></clipPath><clipPath id="clip-path-5"><path class="cls-12" d="M165.13,99.69V58.4H195.6l9.32,41.31S165.13,99.66,165.13,99.69Z"/></clipPath><clipPath id="clip-path-6"><path class="cls-13" d="M188.13,90.08a1.89,1.89,0,0,1,.71-1.28,7.24,7.24,0,0,1,1.36-1,1,1,0,0,1,1.33.41s1.11,0,1.34.16c0,0,.43.32-.17.8,0,0,.52.34-.15.84,0,0,.32.37-.26.78,0,0,.15.29-.76.65a7.39,7.39,0,0,1-2.87-.06S188,91.34,188.13,90.08Z"/></clipPath><clipPath id="clip-path-7"><path class="cls-14" d="M170.91,74.38s4.33-2.81,13.08-4.33a2.87,2.87,0,0,0,0-1.61c-.27-1-1.25-5.13-5.1-4.65s-9.69,4.05-9,8C169.82,71.81,169.89,73.81,170.91,74.38Z"/></clipPath><clipPath id="clip-path-8"><rect class="cls-3" x="51.02" y="59.35" width="19.03" height="34.5" rx="3.93"/></clipPath><clipPath id="clip-path-9"><rect class="cls-3" x="74.81" y="59.35" width="19.03" height="34.5" rx="3.93"/></clipPath><clipPath id="clip-path-10"><rect class="cls-3" x="99.79" y="59.35" width="19.03" height="34.5" rx="3.93"/></clipPath><clipPath id="clip-path-11"><path class="cls-4" d="M117.45,82.46a2.14,2.14,0,0,0,.57-1.3c.11-1.41-1.22-2.67-3-2.81A3.16,3.16,0,0,0,111.81,80l-.23,0h-.23a3.12,3.12,0,0,0-2.93-2.17c-1.76-.14-3.27.9-3.38,2.32a2.25,2.25,0,0,0,.33,1.31,2.59,2.59,0,0,0,1.41,1.19A4.18,4.18,0,0,0,108,83h.13a4.87,4.87,0,0,0,.86,0,4.33,4.33,0,0,0,4.65.36,5.67,5.67,0,0,0,.84.15h.14a3.81,3.81,0,0,0,1.32-.13A2.58,2.58,0,0,0,117.45,82.46Z"/></clipPath><clipPath id="clip-path-12"><ellipse class="cls-5" cx="115.18" cy="78.36" rx="1.52" ry="1.16" transform="translate(28.17 187.16) rotate(-85.58)"/></clipPath><clipPath id="clip-path-13"><ellipse class="cls-5" cx="108.27" cy="77.83" rx="1.52" ry="1.16" transform="translate(22.33 179.78) rotate(-85.58)"/></clipPath><clipPath id="clip-path-14"><path class="cls-6" d="M109.36,81.52a4.38,4.38,0,0,0,4.19.21,2.1,2.1,0,0,1-2.23,1.49C109.38,83.07,109.36,81.52,109.36,81.52Z"/></clipPath><clipPath id="clip-path-15"><circle class="cls-7" cx="108.61" cy="78.81" r="0.77" transform="translate(-25.54 82) rotate(-37.33)"/></clipPath><clipPath id="clip-path-16"><circle class="cls-7" cx="114.64" cy="79.23" r="0.77" transform="translate(-24.56 85.74) rotate(-37.33)"/></clipPath><clipPath id="clip-path-17"><path class="cls-8" d="M113.84,79l0,0a5.39,5.39,0,0,0-4.29-.31.14.14,0,0,1-.12-.26,5.5,5.5,0,0,1,4.54.31.15.15,0,0,1-.08.28Z"/></clipPath><clipPath id="clip-path-18"><path class="cls-4" d="M119.54,88.69c-.11,1.45-2.87,3.07-6.09,2.83s-5.71-2.25-5.6-3.7,2.81-2.43,6-2.19S119.64,87.24,119.54,88.69Z"/></clipPath><clipPath id="clip-path-19"><circle class="cls-4" cx="113.85" cy="86.09" r="5.18" transform="translate(0.56 172.91) rotate(-74.56)"/></clipPath><clipPath id="clip-path-20"><path class="cls-6" d="M111.85,89.27a3.68,3.68,0,0,0,3.52.17,1.77,1.77,0,0,1-1.87,1.25A1.56,1.56,0,0,1,111.85,89.27Z"/></clipPath><clipPath id="clip-path-21"><path class="cls-10" d="M104.94,94.89a4.16,4.16,0,0,0,3.85-1,2,2,0,0,1-1.59,2A1.77,1.77,0,0,1,104.94,94.89Z"/></clipPath><clipPath id="clip-path-22"><rect class="cls-3" x="122.39" y="59.35" width="19.03" height="34.5" rx="3.93"/></clipPath><clipPath id="clip-path-23"><rect class="cls-3" x="148.56" y="59.35" width="19.03" height="34.5" rx="3.93"/></clipPath><clipPath id="clip-path-24"><path class="cls-11" d="M208.73,131.91H46.9a4.2,4.2,0,0,1-4.2-4.2v-3.5a4.2,4.2,0,0,1,4.2-4.2H211.15c2.32,0,3.76,1,3.76,3.41l-.67,4.51C213.53,131.48,211.05,131.91,208.73,131.91Z"/></clipPath></defs><rect class="cls-15" x="55.78" y="37.94" width="126.09" height="3.57" rx="1.31"/><rect class="cls-15" x="58.16" y="42.7" width="122.52" height="3.57" rx="1.29"/><rect class="cls-15" x="61.73" y="39.13" width="2.38" height="9.52"/><rect class="cls-15" x="90.28" y="39.13" width="2.38" height="9.52"/><rect class="cls-15" x="118.83" y="39.13" width="2.38" height="9.52"/><rect class="cls-15" x="147.37" y="39.13" width="2.38" height="9.52"/><rect class="cls-15" x="175.92" y="39.13" width="2.38" height="9.52"/><rect class="cls-16" x="184.25" y="45.08" width="1.19" height="4.76"/><path class="cls-1" d="M59.13,48.64H183s16.56-.27,17,12.27-4,30.24-4,30.24,18.63-4.54,20.74,3.64c2.35,9.09-3.31,27.6-3.31,27.6s1.06,6.38-15.09,6.38-.85-.43-.85-.43H67.87s-18,2.94-20.82-9.35c-2.94-12.59-2.2-59.84-2.2-59.84S45.58,49.66,59.13,48.64Z"/><g class="cls-17"><path class="cls-2" d="M217.49,110.9c1.87-2.64-.74-23.68-.3-23.83s-19,2.43-19,2.43-2.72-1-2.58,5.37c0,0,11.92-.59,10.74,7.79,0,0-1.18,4-.88,6.33S215,114.43,217.49,110.9Z"/><g class="cls-18"><path class="cls-9" d="M228.16,105.57a165.29,165.29,0,0,1-17.35,0S219.56,121.5,228.16,105.57Z"/><g class="cls-19"><path class="cls-5" d="M225.76,104.77s-.49,3.7-6.09,3.7-6.74-4.12-6.74-4.12Z"/><path class="cls-20" d="M219.79,112.93s-1.26-3.72-6.11-3.72-6.12,3.67-6.12,3.67l12.37.15"/></g></g><path class="cls-21" d="M199.3,56.06s-1.1-3.85-32.86-3.85H56.6s-6.84-.64-13.46,8.12l2.21-16.44,152-1.07Z"/></g><path class="cls-22" d="M194.67,61.73l-22.32-.1V95h21.46S195.15,85.32,194.67,61.73Z"/><path class="cls-3" d="M192.1,59.35,175,59.27a2.64,2.64,0,0,0-2.66,2.64V90A2.65,2.65,0,0,0,175,92.66h16.43A2.6,2.6,0,0,0,194,90.3c.32-3.92,3.89-12.78,3.65-28.21C197.67,60.66,195.94,59.09,192.1,59.35Z"/><g class="cls-23"><g class="cls-24"><rect class="cls-25" x="200.39" y="102.09" width="6.91" height="14.94"/><path class="cls-13" d="M188.13,90.08a1.89,1.89,0,0,1,.71-1.28,7.24,7.24,0,0,1,1.36-1,1,1,0,0,1,1.33.41s1.11,0,1.34.16c0,0,.43.32-.17.8,0,0,.52.34-.15.84,0,0,.32.37-.26.78,0,0,.15.29-.76.65a7.39,7.39,0,0,1-2.87-.06S188,91.34,188.13,90.08Z"/><g class="cls-26"><path class="cls-27" d="M191.09,87.39a2.23,2.23,0,0,1,.46.89,1.62,1.62,0,0,1-.09,1,1.5,1.5,0,0,1-.26.44.46.46,0,0,1-.2.19.23.23,0,0,1-.3-.05,1.11,1.11,0,0,1-.17-.5l0-.25v-.24s0,0,0,0a.05.05,0,0,1,.08,0h0v0a1.91,1.91,0,0,1-.26.7,1,1,0,0,1-.6.43,1.33,1.33,0,0,0,.77-1.14v0c.15.21.1.66.28.88s.23,0,.31-.14a1.36,1.36,0,0,0,.26-.41A1.88,1.88,0,0,0,191.09,87.39Z"/><path class="cls-28" d="M193.33,89.22a11.22,11.22,0,0,1-1.82-.15"/><path class="cls-28" d="M192.9,90.07s-1.38.18-1.8-.29"/><path class="cls-28" d="M192.55,90.88s-2,.07-1.52-1"/><path class="cls-28" d="M191,90.45s-.56.48.18.83"/><path class="cls-27" d="M190.51,91.3a2.62,2.62,0,0,0-.46-.53.73.73,0,0,0-.6-.24.63.63,0,0,1,.69.14A1.41,1.41,0,0,1,190.51,91.3Z"/></g><path class="cls-29" d="M180.41,88.93a40.13,40.13,0,0,1,8.24-.12s.58,1.78.1,2.56a29.24,29.24,0,0,1-7.95,1S179,92.2,179.12,91s.41-1.93,1.29-2"/><path class="cls-30" d="M187.3,88.19l.72,3.93,1-.18s.69-2.86.4-3.38S187.3,88.19,187.3,88.19Z"/><path class="cls-29" d="M176.78,85.05a20.55,20.55,0,0,1,5,4.68,3.07,3.07,0,0,1-1.08,2.5,12.38,12.38,0,0,1-6.31-3.51C171.89,85.9,174.62,83.93,176.78,85.05Z"/><path class="cls-31" d="M178.92,83.44c.08,0,1.86-.23,2.3,2.77s.95,6.86.95,8.4.17,3.45-.38,3.64a1.4,1.4,0,0,1-1.12-.21L177.23,87.5Z"/><path class="cls-32" d="M194.26,107.32a1.89,1.89,0,0,1,.53-.08.75.75,0,0,1,.72.37c.21.53.17,1.09-1.08,1.64s-3.9,1.64-4.24,1S189.8,108.59,194.26,107.32Z"/><path class="cls-33" d="M194.24,107.24a1.89,1.89,0,0,1,.52-.09c.26,0,.58,0,.68.29.17.46.1,1-1.14,1.54s-3.84,1.67-4.14,1.09S189.86,108.62,194.24,107.24Z"/><path class="cls-34" d="M188.84,106.73a9.75,9.75,0,0,1,1.24,1.88c.12.49.14,1.78,1,1.49s2.45-1.15,3.38-1.56.22-1.63-.86-1.51-1.31,1.44-2.48-1l-1.68-.42Z"/><path class="cls-15" d="M173.08,99.13s-.51,3.06,2.27,3.83,8-1.36,9.58-2.4.14-3.85-1.15-4S178.68,96.21,173.08,99.13Z"/><path class="cls-15" d="M183.54,100.9s2.92,5.67,4.58,6.91c0,0,2.38,1,4.15-1.81A20.21,20.21,0,0,0,185,97.13S182.34,97.37,183.54,100.9Z"/><path class="cls-35" d="M194.16,107.56s.06,0,.08,0h0l0,0a.15.15,0,0,0,0-.22,2.57,2.57,0,0,0-2,0,.16.16,0,0,0-.1.2.15.15,0,0,0,.19.1c.66-.22,1.13-.38,1.41-.24,0,0,.08,0-.24.25a2.71,2.71,0,0,0-1.08,2,.41.41,0,0,0,.5-.15A2.61,2.61,0,0,1,194.16,107.56Z"/><path class="cls-36" d="M171.7,97.42s-1.68,2.74.69,4.55,8.14,1.79,10.11,1.43,1.63-3.64.46-4.28S178.2,96.79,171.7,97.42Z"/><path class="cls-37" d="M178.68,82.24a6.39,6.39,0,0,0,1.65.4l.17,1.61-2.41-.7Z"/><path class="cls-37" d="M174.58,81.72s.34-.36,1.59-.07l-.25,1.1S174.68,82.09,174.58,81.72Z"/><path class="cls-38" d="M175.61,79.37s.22,3-1,3.64c0,0,1,2.46,5.1,1,0,0-.65-.91-.8-3.8S175.61,77.38,175.61,79.37Z"/><path class="cls-39" d="M174.37,82.69a2.77,2.77,0,0,0-2.11,2.13c-.45,1.88-3.07,10.38-1.92,12.56S173,99,174.87,99s6.57.85,6.91-1.88a36,36,0,0,0-1.84-12.86A6.92,6.92,0,0,0,174.37,82.69Z"/><polygon class="cls-39" points="179.65 82.89 179.94 84.26 179.02 84.28 179.65 82.89"/><path class="cls-40" d="M174.58,81.72a12.56,12.56,0,0,0,5.07,1.17l-.44,1.64s-4.86-.91-5.57-1.58Z"/><circle class="cls-41" cx="180.16" cy="86.43" r="0.25"/><circle class="cls-41" cx="180.83" cy="89.57" r="0.25"/><circle class="cls-41" cx="181.2" cy="93.11" r="0.25"/><circle class="cls-41" cx="181.16" cy="96.79" r="0.25"/><path class="cls-39" d="M181.26,98.25s-1.17,2.82-3.08,3.47c-1,.34-6.48.4-7.28-1.13s-1.88-2.11-.74-6.49c0,0,5.35,4.15,5.52,4.15Z"/><path class="cls-32" d="M188.75,112.67a1.75,1.75,0,0,1,.55.12c.26.1.56.28.57.61,0,.58-.22,1.12-1.63,1.22s-4.36.21-4.46-.55S184,112.34,188.75,112.67Z"/><path class="cls-33" d="M188.76,112.59a2.53,2.53,0,0,1,.55.09c.25.08.55.24.55.53,0,.51-.24,1-1.64,1.09s-4.33.27-4.42-.39S184,112.39,188.76,112.59Z"/><path class="cls-34" d="M183.7,110.2a10.38,10.38,0,0,1,.54,2.26c-.06.52-.49,1.77.43,1.79s2.79-.26,3.83-.32.78-1.51-.3-1.78-1.78.94-2-1.88l-1.48-1Z"/><path class="cls-36" d="M180.6,102.66s.83,6.54,2,8.33c0,0,2,1.76,4.68-.3a20.89,20.89,0,0,0-3.95-11.18S180.67,98.81,180.6,102.66Z"/><path class="cls-35" d="M188.57,112.87s.07,0,.1,0,0,0,0,0h.05a.16.16,0,0,0,.07-.22,2.66,2.66,0,0,0-1.93-.71.16.16,0,0,0-.16.16.14.14,0,0,0,.15.16c.71,0,1.23,0,1.46.28,0,0,0,.06-.33.15a2.8,2.8,0,0,0-1.74,1.54.42.42,0,0,0,.54,0A2.7,2.7,0,0,1,188.57,112.87Z"/><path class="cls-42" d="M175.05,84.53a42.55,42.55,0,0,1,7.23.79s-.09,2.38.51,3.22c0,0-6.62.52-7.7.24a2.09,2.09,0,0,1-1.72-2.8C173.79,84.11,175.05,84.53,175.05,84.53Z"/><path class="cls-42" d="M184.9,86.16a2.43,2.43,0,1,1-4.85,0c0-1.34.77-1.2,2.11-1.2S184.9,84.82,184.9,86.16Z"/><path class="cls-34" d="M177.13,80.78a6,6,0,0,1-3.81-3.3l0-.22a1.55,1.55,0,0,1-.84-.15,1.6,1.6,0,0,1-.74-2.1,1.58,1.58,0,0,0,.1-.66,3.44,3.44,0,0,0-.16-.7,5.79,5.79,0,0,1-.26-1.7A4.61,4.61,0,0,1,173,68.66a6.19,6.19,0,0,1,3.45-1.41c1.93-.19,3.83-.19,5.23,1.15a7.49,7.49,0,0,1,1.66,3.09,10.9,10.9,0,0,1-.24,3c-.09.87.07,2.13.81,2.58,0,0,.66.41.54.91s-1.55.36-1.55.36.21.75-.51.83c0,0,.32,3.1-5.18,1.66"/><path class="cls-43" d="M171.52,73.84a1.25,1.25,0,0,0-.89.75.79.79,0,0,0,.46,1,.9.9,0,0,0-.18,1,.89.89,0,0,0,.86.5.52.52,0,0,0,.49.41,1.42,1.42,0,0,0,.66-.18,1,1,0,0,0,.73.12.51.51,0,0,0,.36-.58c.25.08.5-.2.49-.46a1.18,1.18,0,0,0-.35-.69,1,1,0,0,0-.37-1.41,3.78,3.78,0,0,1-.61-.28,1.57,1.57,0,0,0-.24-.21.43.43,0,0,0-.46,0c-.08.06-.16.14-.24.1s-.06,0-.09-.08-.35-.09-.52,0"/><path class="cls-44" d="M181.64,73.46a1.72,1.72,0,0,0-2.71-.33"/><circle class="cls-5" cx="180.14" cy="75.13" r="1.41"/><circle class="cls-45" cx="180.07" cy="75.13" r="0.97"/><circle cx="180.07" cy="75.13" r="0.59"/><circle class="cls-5" cx="179.77" cy="74.77" r="0.34"/><path class="cls-46" d="M181,78a3.26,3.26,0,0,0-2.71,2"/><path class="cls-43" d="M177.79,71.39a1.25,1.25,0,0,1,.38,1,.66.66,0,0,1-.86.52c.14,0,.25.15.25.29a.75.75,0,0,1-.28.58,1.78,1.78,0,0,1-.58.3c-.16.05-.39.06-.43-.1.18.06.16.33.06.49a1.22,1.22,0,0,1-.85.58,1.25,1.25,0,0,1-1-.29.78.78,0,0,1-.66.31.76.76,0,0,1-.62-.37.68.68,0,0,1-.49.45.77.77,0,0,1-.63-.06.43.43,0,0,1-.15-.57.2.2,0,0,1-.28.07.41.41,0,0,1-.18-.26,1.2,1.2,0,0,1,.09-1,1.23,1.23,0,0,1,.78-.58.53.53,0,0,1-.12-.63,1.11,1.11,0,0,1,.48-.48,3,3,0,0,1,.71-.3c.21-.05.48-.06.6.12a1.72,1.72,0,0,1,.6-.73.92.92,0,0,1,.92-.08,2.65,2.65,0,0,1,.42.33.18.18,0,0,0,.09,0,.19.19,0,0,0,.12-.07l.39-.42c.14-.15.34-.32.54-.25s.22.23.37.28a.59.59,0,0,0,.32,0,.53.53,0,0,1,.33,0c.09,0,.14.21,0,.27"/><path class="cls-47" d="M177.48,71.53s6.18,1.72,8.35.53-2.08-2.22-2.08-2.22Z"/><circle class="cls-48" cx="185.56" cy="71" r="0.2"/><path class="cls-14" d="M170.91,74.38s4.33-2.81,13.08-4.33a2.87,2.87,0,0,0,0-1.61c-.27-1-1.25-5.13-5.1-4.65s-9.69,4.05-9,8C169.82,71.81,169.89,73.81,170.91,74.38Z"/><g class="cls-49"><path class="cls-50" d="M170.63,73.12s7.46-7.43,12.45-4.22l-6.3,2.36Z"/><path class="cls-51" d="M169.06,74.19s5.41-4.61,16.26-5.68L184.64,71l-15.42,5.07-.17-1.7"/></g><path class="cls-52" d="M179.23,76.61a1.55,1.55,0,0,0,1.83-.06"/><circle class="cls-34" cx="175.61" cy="75.22" r="1.66"/><path class="cls-53" d="M175.73,74a1.26,1.26,0,0,0-1.3,1.14s-.21,1.27,1.31,1.38"/><path class="cls-43" d="M182.91,78a1.37,1.37,0,0,0-1.78.29c-.91.91-1.75-.29-1.75-.29s0,1.86,2.38,1.79a2.78,2.78,0,0,0,1.11-.33C183.76,78.9,182.91,78,182.91,78Z"/><rect class="cls-54" x="190.92" y="88.95" width="3.75" height="1.88" rx="0.64"/><rect class="cls-55" x="192.54" y="87.64" width="7.42" height="4.48" rx="1.39"/><rect class="cls-56" x="190.45" y="82.88" width="1.34" height="13.33" rx="0.5" transform="translate(17.45 -30.38) rotate(9.52)"/><path class="cls-57" d="M196.05,86.74l-3.7,13.38H202.8V86.74S196,86.66,196.05,86.74Z"/><rect class="cls-58" x="194.9" y="100.84" width="12.52" height="1.72" rx="0.4"/><path class="cls-13" d="M194,84.81a.61.61,0,0,1-.06.9s.41.52-.28.93a.74.74,0,0,1-.52.77,4.15,4.15,0,0,1-2.23.29s-1.1.16-1.43-1.39a1.34,1.34,0,0,1,1-1.79s1.33-1.45,2.49-.89a1.82,1.82,0,0,1,.33,0S194.29,83.38,194,84.81Z"/><path class="cls-42" d="M181.7,85.07a40.28,40.28,0,0,1,8.24,0s.56,1.79.07,2.56a29,29,0,0,1-8,.88s-1.78-.18-1.66-1.43.43-1.93,1.31-2"/><path class="cls-30" d="M188.61,84.43l.66,3.93,1-.17s.73-2.85.45-3.37S188.61,84.43,188.61,84.43Z"/></g></g><rect class="cls-22" x="51.02" y="60.54" width="19.03" height="34.5" rx="3.93"/><rect class="cls-22" x="74.81" y="60.54" width="19.03" height="34.5" rx="3.93"/><rect class="cls-22" x="148.56" y="60.54" width="19.03" height="34.5" rx="3.93"/><rect class="cls-3" x="51.02" y="59.35" width="19.03" height="34.5" rx="3.93"/><g class="cls-59"><rect class="cls-60" x="47.39" y="77.91" width="10.34" height="26" rx="3.47" transform="translate(-9.01 5.84) rotate(-5.86)"/></g><rect class="cls-3" x="74.81" y="59.35" width="19.03" height="34.5" rx="3.93"/><g class="cls-61"><rect class="cls-60" x="72.35" y="77.91" width="10.34" height="26" rx="3.47" transform="translate(-8.88 8.39) rotate(-5.86)"/></g><rect class="cls-22" x="99.79" y="60.54" width="19.03" height="34.5" rx="3.93"/><rect class="cls-3" x="99.79" y="59.35" width="19.03" height="34.5" rx="3.93"/><g class="cls-62"><path class="cls-63" d="M107.42,80.27A24.86,24.86,0,0,0,105,91.06a6.89,6.89,0,0,0,.32,2.38,4.23,4.23,0,0,0,2.41,2.38,14.18,14.18,0,0,0,6.73.73,3.56,3.56,0,0,0,1.67-.39,4.75,4.75,0,0,0,1.82-3c1-4-.3-8.06-2-11.31a7,7,0,0,0-1.58-2.18c-1.79-1.48-4.3-.53-6.29.88"/><ellipse class="cls-64" cx="111.31" cy="83.43" rx="1.07" ry="2.7" transform="translate(19.55 187.98) rotate(-85.58)"/><path class="cls-65" d="M116.58,74.26a3.92,3.92,0,0,1,3.28.1c1.83.84,1.51,1.72.7,2.86s-3.39,3.82-6.12.29C114.44,77.51,115.05,74.56,116.58,74.26Z"/><path class="cls-66" d="M116.36,75.16a3.2,3.2,0,0,1,2.66.13c1.5.71,1.26,1.41.61,2.32s-2.69,3-5,.14C114.67,77.75,115.12,75.38,116.36,75.16Z"/><circle class="cls-67" cx="116.21" cy="76.59" r="1.27" transform="translate(17.14 174.33) rotate(-78)"/><path class="cls-65" d="M107.52,73.55a4,4,0,0,0-3.26-.4c-1.93.55-1.76,1.47-1.13,2.72s2.77,4.3,6,1.23C109.14,77.1,109,74.09,107.52,73.55Z"/><path class="cls-66" d="M107.6,74.48A3.22,3.22,0,0,0,105,74.2c-1.59.47-1.46,1.21-1,2.2s2.19,3.41,4.88.9C108.87,77.3,108.79,74.89,107.6,74.48Z"/><circle class="cls-67" cx="107.53" cy="75.91" r="1.27" transform="translate(18.64 173) rotate(-82.74)"/><circle class="cls-4" cx="111.75" cy="77.82" r="5.18" transform="matrix(0.15, -0.99, 0.99, 0.15, 18.17, 176.76)"/><path class="cls-4" d="M117.45,82.46a2.14,2.14,0,0,0,.57-1.3c.11-1.41-1.22-2.67-3-2.81A3.16,3.16,0,0,0,111.81,80l-.23,0h-.23a3.12,3.12,0,0,0-2.93-2.17c-1.76-.14-3.27.9-3.38,2.32a2.25,2.25,0,0,0,.33,1.31,2.59,2.59,0,0,0,1.41,1.19A4.18,4.18,0,0,0,108,83h.13a4.87,4.87,0,0,0,.86,0,4.33,4.33,0,0,0,4.65.36,5.67,5.67,0,0,0,.84.15h.14a3.81,3.81,0,0,0,1.32-.13A2.58,2.58,0,0,0,117.45,82.46Z"/><g class="cls-68"><circle class="cls-64" cx="111.36" cy="82.89" r="4.19" transform="translate(12.82 180.68) rotate(-81.45)"/></g><ellipse class="cls-64" cx="111.34" cy="83.12" rx="0.55" ry="4.15" transform="translate(19.87 187.72) rotate(-85.58)"/><ellipse class="cls-69" cx="108.32" cy="77.57" rx="1.77" ry="1.36" transform="translate(22.63 179.59) rotate(-85.58)"/><ellipse class="cls-69" cx="115.2" cy="78.11" rx="1.77" ry="1.36" transform="translate(28.44 186.94) rotate(-85.58)"/><path class="cls-70" d="M107.58,76.85a.54.54,0,0,1-.49-.35.68.68,0,0,0,.17.67.21.21,0,0,0,.1.06.17.17,0,0,0,.13-.1.36.36,0,0,0,0-.27l0,.07"/><path class="cls-70" d="M107.47,77.3A.54.54,0,0,1,107,77a.65.65,0,0,0,.17.67.15.15,0,0,0,.09.06.18.18,0,0,0,.14-.1.36.36,0,0,0,0-.27l0,.07"/><path class="cls-70" d="M116.07,77.5a.52.52,0,0,0,.54-.26.67.67,0,0,1-.27.63.12.12,0,0,1-.11,0s-.09-.06-.11-.11a.36.36,0,0,1,0-.27l0,.08"/><path class="cls-70" d="M116.11,78a.52.52,0,0,0,.53-.26.65.65,0,0,1-.27.63.1.1,0,0,1-.1,0c-.06,0-.1-.06-.12-.11a.32.32,0,0,1,0-.27l0,.08"/><ellipse class="cls-5" cx="115.18" cy="78.36" rx="1.52" ry="1.16" transform="translate(28.17 187.16) rotate(-85.58)"/><g class="cls-71"><ellipse cx="114.71" cy="78.78" rx="1.15" ry="0.88" transform="translate(27.32 187.07) rotate(-85.58)"/><ellipse class="cls-5" cx="114.31" cy="77.97" rx="0.39" ry="0.32" transform="translate(27.76 185.93) rotate(-85.58)"/></g><path class="cls-70" d="M107.63,76.09a.83.83,0,0,1,.88-.48,1.11,1.11,0,0,1,.49.23,1.07,1.07,0,0,1,.28.42,3.07,3.07,0,0,0-.82-.3A1.52,1.52,0,0,0,107.63,76.09Z"/><path class="cls-70" d="M116.14,76.75a1.54,1.54,0,0,0-.81-.26,3,3,0,0,0-.85.17,1.09,1.09,0,0,1,.34-.37,1.13,1.13,0,0,1,.52-.16A.84.84,0,0,1,116.14,76.75Z"/><ellipse class="cls-5" cx="108.27" cy="77.83" rx="1.52" ry="1.16" transform="translate(22.33 179.78) rotate(-85.58)"/><g class="cls-72"><ellipse cx="107.77" cy="78.24" rx="1.15" ry="0.88" transform="translate(21.45 179.65) rotate(-85.58)"/><ellipse class="cls-5" cx="107.37" cy="77.43" rx="0.39" ry="0.32" transform="matrix(0.08, -1, 1, 0.08, 21.88, 178.51)"/></g><path class="cls-4" d="M106.26,79.77a1.35,1.35,0,0,1,1.59-1,1.71,1.71,0,0,1,1.15.51"/><path class="cls-4" d="M114.22,79.6a1.79,1.79,0,0,1,1.1-.26c.83.07,1.46.62,1.41,1.24"/><path class="cls-6" d="M109.36,81.52a4.38,4.38,0,0,0,4.19.21,2.1,2.1,0,0,1-2.23,1.49C109.38,83.07,109.36,81.52,109.36,81.52Z"/><g class="cls-73"><ellipse class="cls-74" cx="111.29" cy="83.65" rx="0.82" ry="1.41" transform="translate(19.3 188.16) rotate(-85.58)"/><ellipse class="cls-5" cx="111.43" cy="81.83" rx="0.86" ry="1.44" transform="translate(21.25 186.62) rotate(-85.58)"/></g><ellipse class="cls-75" cx="111.54" cy="80.47" rx="1.79" ry="2.98" transform="translate(22.71 185.48) rotate(-85.58)"/><ellipse class="cls-76" cx="111.6" cy="79.76" rx="0.94" ry="1.81" transform="translate(23.46 184.88) rotate(-85.58)"/><ellipse class="cls-77" cx="111.09" cy="79.16" rx="0.22" ry="0.43" transform="translate(23.61 183.82) rotate(-85.58)"/><path class="cls-70" d="M107.3,77.06a1.22,1.22,0,0,1,1.14-.74,1,1,0,0,1,.86.74,1.35,1.35,0,0,0-.9-.56,1.4,1.4,0,0,0-1.27,1.12A1.37,1.37,0,0,1,107.3,77.06Z"/><path class="cls-70" d="M116.26,77.75a1.23,1.23,0,0,0-1-.91,1,1,0,0,0-1,.61,1.36,1.36,0,0,1,1-.42,1.4,1.4,0,0,1,1.09,1.3A1.4,1.4,0,0,0,116.26,77.75Z"/><path class="cls-78" d="M106.76,79a1.42,1.42,0,0,0,1.84.42"/><path class="cls-78" d="M116.49,79.77a1.42,1.42,0,0,1-1.89.14"/><path class="cls-70" d="M115.88,74.09a3.69,3.69,0,0,0-1.35-1.72.68.68,0,0,0-.12-.12l-.54-.45-.18-.15a.67.67,0,0,0-.18-.11c-.09,0-.19,0-.27-.08a.87.87,0,0,1-.19-.23.55.55,0,0,0-.88.11,3.4,3.4,0,0,0-2.58.78h0a3.66,3.66,0,0,0-1.38,1.38.64.64,0,0,0-.1.61.73.73,0,0,0,.5.3c.27.06.61.07.73-.17a.27.27,0,0,0,.17.31.62.62,0,0,0,.38,0,2.25,2.25,0,0,0,.86-.43.34.34,0,0,0,.12.06c.22.06.42-.11.57-.27A3.48,3.48,0,0,0,112,73a1.6,1.6,0,0,0,.91,1.08.45.45,0,0,0,.16,0,2.17,2.17,0,0,0,1,.79.57.57,0,0,0,.38.05.25.25,0,0,0,.21-.28c.09.25.43.3.7.28a.76.76,0,0,0,.55-.22A.68.68,0,0,0,115.88,74.09Z"/><path class="cls-78" d="M110.21,74.93a5.39,5.39,0,0,0,3.41.26"/><path class="cls-78" d="M110.72,75.44a3.71,3.71,0,0,0,2.31.18"/><circle class="cls-7" cx="108.61" cy="78.81" r="0.77" transform="translate(-25.54 82) rotate(-37.33)"/><g class="cls-79"><path class="cls-80" d="M108.59,77.85c-.15.23-.3.47-.44.71a.14.14,0,0,0,0,.14l0,0a.12.12,0,0,1,0,.14.81.81,0,0,1-.1.21,4.45,4.45,0,0,0-.26.48s0,.1,0,.13a.1.1,0,0,0,.09,0,.24.24,0,0,0,.06-.08l.37-.69c0-.05.06-.11,0-.16l0-.06s0-.09,0-.14l.38-.61a.14.14,0,0,0,0-.06s-.06-.06-.11-.06"/></g><path class="cls-81" d="M108.54,79.71a.91.91,0,0,1-.83-1,.9.9,0,0,1,1.8.13A.91.91,0,0,1,108.54,79.71Zm.12-1.65a.75.75,0,1,0,.69.8A.75.75,0,0,0,108.66,78.06Z"/><path class="cls-82" d="M107.76,78.75a.85.85,0,0,1,.91-.79"/><path class="cls-82" d="M109.37,78.88a.76.76,0,0,1-.8.7"/><circle class="cls-83" cx="107.76" cy="78.82" r="0.02"/><circle class="cls-83" cx="109.38" cy="78.83" r="0.02"/><circle class="cls-7" cx="114.64" cy="79.23" r="0.77" transform="translate(-24.56 85.74) rotate(-37.33)"/><g class="cls-84"><path class="cls-80" d="M114.62,78.27c-.15.24-.3.47-.44.71,0,0,0,.1,0,.14s0,0,0,0a.14.14,0,0,1,0,.15.75.75,0,0,1-.1.2,4.59,4.59,0,0,0-.26.49s0,.09,0,.12a.07.07,0,0,0,.09,0A.24.24,0,0,0,114,80l.37-.69s.06-.1,0-.15l0-.06a.15.15,0,0,1,0-.14l.38-.61a.14.14,0,0,0,0-.07s-.06,0-.11-.06"/></g><path class="cls-81" d="M114.57,80.13a.9.9,0,0,1,.13-1.8.9.9,0,1,1-.13,1.8Zm.12-1.64a.75.75,0,1,0-.1,1.49.75.75,0,0,0,.1-1.49Z"/><path class="cls-82" d="M113.79,79.17a.85.85,0,0,1,.91-.79"/><path class="cls-82" d="M115.4,79.31a.75.75,0,0,1-.79.69"/><circle class="cls-83" cx="113.79" cy="79.24" r="0.02"/><circle class="cls-83" cx="115.41" cy="79.25" r="0.02"/><path class="cls-8" d="M113.84,79l0,0a5.39,5.39,0,0,0-4.29-.31.14.14,0,0,1-.12-.26,5.5,5.5,0,0,1,4.54.31.15.15,0,0,1-.08.28Z"/><g class="cls-85"><path class="cls-86" d="M109.11,78.79a4.74,4.74,0,0,1,2.61-.48,5.17,5.17,0,0,1,2.67,1l-.89.48-4-.33Z"/></g><ellipse class="cls-83" cx="110.95" cy="78.2" rx="0.64" ry="0.05" transform="translate(-4.46 6.74) rotate(-3.41)"/><ellipse class="cls-83" cx="111.83" cy="78.2" rx="0.04" ry="0.18" transform="matrix(0.07, -1, 1, 0.07, 25.98, 184.26)"/><rect class="cls-60" x="95.26" y="77.79" width="10.34" height="26" rx="3.47" transform="translate(-8.74 10.73) rotate(-5.86)"/><ellipse class="cls-4" cx="112.23" cy="97.01" rx="6.42" ry="8.55"/><path class="cls-65" d="M110.78,82.43a4,4,0,0,0-2.43-2.2c-1.9-.66-2.29.19-2.49,1.57s-.21,5.11,4.2,4.46C110.06,86.26,111.67,83.71,110.78,82.43Z"/><path class="cls-66" d="M110.31,83.23a3.22,3.22,0,0,0-2-1.75c-1.57-.53-1.88.15-2,1.24s-.17,4,3.47,3.54C109.73,86.26,111.05,84.25,110.31,83.23Z"/><path class="cls-65" d="M117.44,82.93a3.94,3.94,0,0,1,2.73-1.82c2-.37,2.23.53,2.22,1.93s-.54,5.08-4.81,3.78C117.58,86.82,116.37,84.06,117.44,82.93Z"/><path class="cls-66" d="M117.79,83.79A3.2,3.2,0,0,1,120,82.36c1.63-.29,1.84.42,1.84,1.53s-.44,4-4,3C117.9,86.88,116.9,84.69,117.79,83.79Z"/><path class="cls-4" d="M119.54,88.69c-.11,1.45-2.87,3.07-6.09,2.83s-5.71-2.25-5.6-3.7,2.81-2.43,6-2.19S119.64,87.24,119.54,88.69Z"/><g class="cls-87"><path class="cls-64" d="M117.55,89.25c.11,1.83-1.82,2.44-4,2.28s-4-1-3.82-2.84c.14-1.41,2.06-2.44,4.2-2.28S117.46,87.83,117.55,89.25Z"/></g><circle class="cls-67" cx="109.41" cy="84.02" r="1.27"/><circle class="cls-67" cx="118.26" cy="84.68" r="1.27"/><circle class="cls-4" cx="113.85" cy="86.09" r="5.18" transform="translate(0.56 172.91) rotate(-74.56)"/><g class="cls-88"><ellipse class="cls-64" cx="113.66" cy="89.43" rx="2.29" ry="3.88" transform="translate(15.99 196.1) rotate(-85.72)"/></g><path class="cls-6" d="M111.85,89.27a3.68,3.68,0,0,0,3.52.17,1.77,1.77,0,0,1-1.87,1.25A1.56,1.56,0,0,1,111.85,89.27Z"/><g class="cls-89"><ellipse class="cls-74" cx="113.48" cy="91.05" rx="0.68" ry="1.18" transform="translate(14.21 197.42) rotate(-85.72)"/><ellipse class="cls-5" cx="113.59" cy="89.52" rx="0.72" ry="1.2" transform="translate(15.84 196.12) rotate(-85.72)"/></g><ellipse class="cls-69" cx="110.43" cy="85.84" rx="1.77" ry="1.36" transform="translate(16.59 189.56) rotate(-85.72)"/><ellipse class="cls-69" cx="117.3" cy="86.36" rx="1.77" ry="1.36" transform="translate(22.44 196.9) rotate(-85.72)"/><ellipse class="cls-5" cx="110.38" cy="86.1" rx="1.51" ry="1.16" transform="translate(16.29 189.75) rotate(-85.72)"/><ellipse cx="110.38" cy="86.1" rx="1.15" ry="0.88" transform="translate(16.29 189.75) rotate(-85.72)"/><ellipse class="cls-5" cx="109.98" cy="85.3" rx="0.39" ry="0.32" transform="translate(16.72 188.61) rotate(-85.72)"/><ellipse class="cls-5" cx="117.29" cy="86.62" rx="1.51" ry="1.16" transform="translate(22.16 197.11) rotate(-85.72)"/><ellipse cx="117.29" cy="86.62" rx="1.15" ry="0.88" transform="matrix(0.07, -1, 1, 0.07, 22.16, 197.11)"/><ellipse class="cls-5" cx="116.88" cy="85.81" rx="0.39" ry="0.32" transform="translate(22.59 195.97) rotate(-85.72)"/><path class="cls-70" d="M116.24,81.49c.21.43-.88-.06-.88-.06a.45.45,0,0,0,.18.68.9.9,0,0,1-1-.62c-.61.58-.31,1.82-.31,1.82-1.09-.37-.68-2-.68-2-.37.08-.93.78-.93.78a2,2,0,0,1,.44-.84l-.5.17c-.46.2-.79.2-.86-.12,0,0,.35-.83,2.23-.78a.89.89,0,0,0-.19-.77s.8.18.89.82A2,2,0,0,1,116.24,81.49Z"/><ellipse class="cls-75" cx="113.68" cy="88.39" rx="1.5" ry="2.5" transform="translate(17.06 195.16) rotate(-85.72)"/><ellipse class="cls-76" cx="113.73" cy="87.79" rx="0.78" ry="1.52" transform="translate(17.69 194.66) rotate(-85.72)"/><ellipse class="cls-77" cx="113.3" cy="87.29" rx="0.18" ry="0.36" transform="translate(17.81 193.77) rotate(-85.72)"/><path class="cls-70" d="M109.73,84.36a.84.84,0,0,1,.88-.48,1,1,0,0,1,.49.23,1,1,0,0,1,.28.42,3,3,0,0,0-.82-.3A1.52,1.52,0,0,0,109.73,84.36Z"/><path class="cls-70" d="M118.24,85a1.63,1.63,0,0,0-.81-.26,3,3,0,0,0-.85.18,1,1,0,0,1,.34-.37,1,1,0,0,1,.52-.16A.83.83,0,0,1,118.24,85Z"/><path class="cls-90" d="M102.3,88.29a1.8,1.8,0,0,0-.16,1.4.25.25,0,0,0,.08.15.3.3,0,0,0,.21,0,14.38,14.38,0,0,0,6.41-1.48.35.35,0,0,0,.2-.18A.3.3,0,0,0,109,88a3.81,3.81,0,0,0-.45-.76,3,3,0,0,0-.87-.52,3.41,3.41,0,0,0-1.43-.28C105,86.57,103,87,102.3,88.29Z"/><path class="cls-91" d="M103.44,90.16c1.12.6.08,2-.7,2.65a2.37,2.37,0,0,1-2.94-3.56C100.58,88.6,102.41,89.6,103.44,90.16Z"/><path class="cls-92" d="M102.57,90.37c.76.33.17,1.28-.31,1.74A1.53,1.53,0,0,1,100.18,90C100.65,89.52,101.88,90.07,102.57,90.37Z"/><path class="cls-91" d="M108.06,89.08c-.74,1,.8,1.84,1.79,2.08a2.37,2.37,0,0,0,1.07-4.49C109.94,86.43,108.74,88.13,108.06,89.08Z"/><path class="cls-92" d="M108.93,88.89c-.54.63.42,1.23,1,1.43a1.53,1.53,0,0,0,.93-2.84C110.28,87.28,109.41,88.31,108.93,88.89Z"/><ellipse class="cls-93" cx="106.74" cy="93.89" rx="6.11" ry="2.68" transform="translate(-18.48 26.6) rotate(-13.08)"/><ellipse class="cls-93" cx="106.3" cy="91.99" rx="5.4" ry="4.64" transform="translate(-18.06 26.45) rotate(-13.08)"/><circle class="cls-5" cx="102.91" cy="92.91" r="1.31"/><circle cx="102.91" cy="92.91" r="0.98"/><circle class="cls-5" cx="102.3" cy="92.43" r="0.35"/><circle class="cls-5" cx="109.74" cy="91.33" r="1.31"/><circle cx="109.74" cy="91.33" r="0.98"/><circle class="cls-5" cx="109.12" cy="90.84" r="0.35"/><path class="cls-10" d="M104.94,94.89a4.16,4.16,0,0,0,3.85-1,2,2,0,0,1-1.59,2A1.77,1.77,0,0,1,104.94,94.89Z"/><g class="cls-94"><ellipse class="cls-74" cx="107.29" cy="96.27" rx="1.33" ry="0.77" transform="translate(-19.01 26.79) rotate(-13.08)"/><ellipse class="cls-5" cx="106.9" cy="94.58" rx="1.36" ry="0.81" transform="translate(-18.63 26.65) rotate(-13.08)"/></g><path class="cls-5" d="M104.7,94.73s-.43.34-.53.45.54.18,1.09-.15Z"/><path class="cls-5" d="M108.94,93.74s.54.12.67.17-.41.4-1,.35Z"/><path class="cls-95" d="M108.91,93.54c.15.64-.69,1.38-1.87,1.66s-2.26,0-2.4-.66a2.21,2.21,0,0,1,4.27-1Z"/><ellipse class="cls-96" cx="105.59" cy="94.21" rx="0.28" ry="0.52" transform="translate(-18.58 26.35) rotate(-13.08)"/><ellipse class="cls-96" cx="107.91" cy="93.67" rx="0.28" ry="0.52" transform="translate(-18.4 26.86) rotate(-13.08)"/><ellipse class="cls-91" cx="101.61" cy="94.6" rx="0.52" ry="0.17" transform="translate(-18.78 25.46) rotate(-13.08)"/><ellipse class="cls-91" cx="111.51" cy="92.3" rx="0.52" ry="0.17" transform="translate(-18 27.64) rotate(-13.08)"/><path class="cls-70" d="M104.26,88.49A2,2,0,0,0,106.07,90s-.39-1.67.27-1.82c0,0,0,.69.49.9a4.26,4.26,0,0,0,.29-1l.13.55s1-.61.7-1.25-1.35-1.4-3-1-2.28,1.57-2.15,2.19a1,1,0,0,0,.69.84l0-.58a.93.93,0,0,0,.77.79S104.08,88.68,104.26,88.49Z"/></g><rect class="cls-22" x="122.39" y="60.54" width="19.03" height="34.5" rx="3.93"/><rect class="cls-3" x="122.39" y="59.35" width="19.03" height="34.5" rx="3.93"/><g class="cls-97"><rect class="cls-60" x="118.83" y="76.91" width="10.34" height="26" rx="3.47" transform="translate(-8.53 13.13) rotate(-5.86)"/></g><rect class="cls-3" x="148.56" y="59.35" width="19.03" height="34.5" rx="3.93"/><g class="cls-98"><rect class="cls-60" x="145.33" y="76.26" width="10.34" height="26" rx="3.47" transform="translate(-8.33 15.83) rotate(-5.86)"/></g><rect class="cls-1" x="183.06" y="35.56" width="3.57" height="10.71" rx="1.64"/><circle class="cls-99" cx="193.77" cy="92.66" r="2.38"/><path class="cls-11" d="M208.73,131.91H46.9a4.2,4.2,0,0,1-4.2-4.2v-3.5a4.2,4.2,0,0,1,4.2-4.2H211.15c2.32,0,3.76,1,3.76,3.41l-.67,4.51C213.53,131.48,211.05,131.91,208.73,131.91Z"/><g class="cls-100"><rect class="cls-101" x="39.13" y="115.26" width="180.81" height="5.95"/></g><path class="cls-102" d="M200.75,120.05s0-12.17-17.35-12.17c-15.73,0-16.62,12.13-16.62,12.13Z"/><path class="cls-102" d="M91.14,120.06s0-12.18-17.32-12.18C58.08,107.88,57.2,120,57.2,120Z"/><ellipse class="cls-103" cx="208.63" cy="116.45" rx="1.78" ry="2.38"/><path class="cls-2" d="M199.47,90.75s13.09-12.5,15.15.74C214.62,91.49,208,95.75,199.47,90.75Z"/><ellipse class="cls-5" cx="210.42" cy="97.41" rx="2.38" ry="7.14"/><path d="M210.63,92.65a.81.81,0,0,1,.63.4,3.27,3.27,0,0,0-.25,1.38c0,.91.25,1.64.56,1.64s.35-.27.46-.69a12.74,12.74,0,0,1,.11,1.69c0,2.45-.67,4.43-1.51,4.43s-1.51-2-1.51-4.43S209.8,92.65,210.63,92.65Z"/><ellipse class="cls-5" cx="48.65" cy="106.93" rx="1.17" ry="3.58" transform="translate(-7.22 3.59) rotate(-3.93)"/><ellipse class="cls-104" cx="48.65" cy="115.26" rx="1.16" ry="2.39" transform="translate(-13.49 6.68) rotate(-6.9)"/><path class="cls-1" d="M188.35,89.51l-2.56.68a2.66,2.66,0,0,1-3.2-1.42l-2.44-6.6a2.12,2.12,0,0,1,1.67-2.71l2.57-.69a2.66,2.66,0,0,1,3.2,1.42l2.44,6.6A2.13,2.13,0,0,1,188.35,89.51Z"/><path class="cls-99" d="M194.15,93.82a.9.9,0,0,1-.88-.43,18.88,18.88,0,0,0-3.76-5.24,2.26,2.26,0,0,0-1.25-.67.91.91,0,0,1-1-.39.7.7,0,0,1,.42-1,2.23,2.23,0,0,1,1.45,0c1.78.57,3.72,2.8,5.76,6.64a.71.71,0,0,1-.44,1A1.1,1.1,0,0,1,194.15,93.82Zm-5.79-6.37Zm0,0Zm0,0h0Zm0,0Z"/><circle class="cls-99" cx="187.82" cy="86.71" r="1.19"/><path class="cls-102" d="M91.18,120.51s.65,8.5-2.07,11.4H58.45s-2.35-3.75-1.31-11.3l10.52-10S82.55,111.84,83,112,91.18,120.51,91.18,120.51Z"/><path class="cls-102" d="M200.79,120.51s.64,8.5-2.08,11.4H168.05s-2.35-3.75-1.31-11.3l10.52-10s14.89,1.27,15.33,1.38S200.79,120.51,200.79,120.51Z"/><circle class="cls-105" cx="73.62" cy="125.96" r="14.27"/><circle class="cls-11" cx="74.22" cy="126.56" r="6.54"/><circle class="cls-106" cx="184.25" cy="125.96" r="14.27"/><circle class="cls-11" cx="184.84" cy="126.56" r="6.54"/></svg>