<svg id="Layer_1" data-name="Layer 1" xmlns="http://www.w3.org/2000/svg" xmlns:xlink="http://www.w3.org/1999/xlink" viewBox="0 0 260 168"><defs><style>.cls-1{fill:#e53c70;}.cls-2{fill:#ff719d;}.cls-3{fill:#ddd;}.cls-4{fill:#770031;}.cls-5{fill:#aeeeff;}.cls-6{fill:none;}.cls-7{fill:#2b2b2b;}.cls-8{fill:#a01548;}.cls-9{clip-path:url(#clip-path);}.cls-10{clip-path:url(#clip-path-2);}.cls-11{clip-path:url(#clip-path-3);}.cls-12{fill:#fff;}.cls-13{fill:#fc3f83;}.cls-14{fill:#fc5e9e;}.cls-15{fill:#ce366d;}.cls-16{clip-path:url(#clip-path-4);}.cls-17{clip-path:url(#clip-path-5);}.cls-18{fill:#6627c0;}.cls-19{fill:#afaeb1;}.cls-20{fill:#9846e7;}.cls-21{fill:#191919;}.cls-22{fill:#7d33d2;}.cls-23{fill:#6429b6;}.cls-24{clip-path:url(#clip-path-6);}.cls-25{fill:#ffe600;}.cls-26{clip-path:url(#clip-path-7);}.cls-27{clip-path:url(#clip-path-8);}.cls-28{clip-path:url(#clip-path-9);}.cls-29{clip-path:url(#clip-path-10);}.cls-30{fill:#c11e59;}.cls-31{clip-path:url(#clip-path-11);}.cls-32{fill:#f2f2f2;}.cls-33{fill:#bf2564;}.cls-34{fill:#ffd00b;}.cls-35{fill:#ffea6c;}.cls-36,.cls-37{fill:#161616;stroke:#231f20;stroke-miterlimit:10;}.cls-36{stroke-width:0.16px;}.cls-37{stroke-width:0.16px;}</style><clipPath id="clip-path"><path class="cls-1" d="M57.19,120.7H18.87s-5.12-.08-5.25,3.79a42.38,42.38,0,0,0,1.24,9.36S9.1,132.44,8.45,135c-.73,2.81,1,8.54,1,8.54s-.33,2,4.67,2,.26-.13.26-.13H54.49s5.55.91,6.44-2.89.68-18.51.68-18.51S61.38,121,57.19,120.7Z"/></clipPath><clipPath id="clip-path-2"><path class="cls-2" d="M8.22,140c-.58-.82.22-7.33.09-7.37s5.89.75,5.89.75S15,133,15,135c0,0-3.68-.18-3.32,2.41a6.11,6.11,0,0,1,.27,2C11.85,140.09,9,141.05,8.22,140Z"/></clipPath><clipPath id="clip-path-3"><path class="cls-4" d="M4.92,138.31a52,52,0,0,0,5.36,0S7.57,143.23,4.92,138.31Z"/></clipPath><clipPath id="clip-path-4"><path class="cls-5" d="M16.07,124l5.28,0a.81.81,0,0,1,.82.81v8.7a.81.81,0,0,1-.81.81H16.28a.8.8,0,0,1-.81-.72c-.1-1.22-1.21-4-1.13-8.73C14.34,124.42,14.88,123.93,16.07,124Z"/></clipPath><clipPath id="clip-path-5"><path class="cls-6" d="M24.41,136.49V123.72H15L12.1,136.49S24.41,136.48,24.41,136.49Z"/></clipPath><clipPath id="clip-path-6"><rect class="cls-5" x="53.81" y="124.01" width="5.89" height="10.67" rx="1.21" transform="translate(113.51 258.69) rotate(-180)"/></clipPath><clipPath id="clip-path-7"><rect class="cls-5" x="46.46" y="124.01" width="5.89" height="10.67" rx="1.21" transform="translate(98.8 258.69) rotate(-180)"/></clipPath><clipPath id="clip-path-8"><rect class="cls-5" x="38.73" y="124.01" width="5.89" height="10.67" rx="1.21" transform="translate(83.35 258.69) rotate(-180)"/></clipPath><clipPath id="clip-path-9"><rect class="cls-5" x="31.74" y="124.01" width="5.89" height="10.67" rx="1.21" transform="translate(69.37 258.69) rotate(-180)"/></clipPath><clipPath id="clip-path-10"><rect class="cls-5" x="23.65" y="124.01" width="5.89" height="10.67" rx="1.21" transform="translate(53.18 258.69) rotate(-180)"/></clipPath><clipPath id="clip-path-11"><path class="cls-3" d="M10.92,146.45H61a1.3,1.3,0,0,0,1.3-1.3v-1.08a1.31,1.31,0,0,0-1.3-1.3H10.18c-.72,0-1.17.3-1.17,1.06l.21,1.39C9.44,146.32,10.21,146.45,10.92,146.45Z"/></clipPath></defs><rect class="cls-7" x="19.23" y="117.39" width="39" height="1.1" rx="0.4" transform="translate(77.46 235.88) rotate(-180)"/><rect class="cls-7" x="19.6" y="118.86" width="37.89" height="1.1" rx="0.4" transform="translate(77.09 238.83) rotate(-180)"/><rect class="cls-7" x="55.65" y="117.76" width="0.74" height="2.94" transform="translate(112.04 238.46) rotate(-180)"/><rect class="cls-7" x="46.82" y="117.76" width="0.74" height="2.94" transform="translate(94.38 238.46) rotate(-180)"/><rect class="cls-7" x="37.99" y="117.76" width="0.74" height="2.94" transform="translate(76.72 238.46) rotate(-180)"/><rect class="cls-7" x="29.16" y="117.76" width="0.74" height="2.94" transform="translate(59.06 238.46) rotate(-180)"/><rect class="cls-7" x="20.33" y="117.76" width="0.74" height="2.94" transform="translate(41.4 238.46) rotate(-180)"/><rect class="cls-8" x="18.13" y="119.6" width="0.37" height="1.47" transform="translate(36.62 240.67) rotate(-180)"/><path class="cls-1" d="M57.19,120.7H18.87s-5.12-.08-5.25,3.79a42.38,42.38,0,0,0,1.24,9.36S9.1,132.44,8.45,135c-.73,2.81,1,8.54,1,8.54s-.33,2,4.67,2,.26-.13.26-.13H54.49s5.55.91,6.44-2.89.68-18.51.68-18.51S61.38,121,57.19,120.7Z"/><g class="cls-9"><path class="cls-2" d="M8.22,140c-.58-.82.22-7.33.09-7.37s5.89.75,5.89.75S15,133,15,135c0,0-3.68-.18-3.32,2.41a6.11,6.11,0,0,1,.27,2C11.85,140.09,9,141.05,8.22,140Z"/><g class="cls-10"><path class="cls-4" d="M4.92,138.31a52,52,0,0,0,5.36,0S7.57,143.23,4.92,138.31Z"/><g class="cls-11"><path class="cls-12" d="M5.66,138.06s.15,1.14,1.88,1.14a2,2,0,0,0,2.08-1.27Z"/><path class="cls-13" d="M7.5,140.58a1.91,1.91,0,0,1,1.89-1.15,1.91,1.91,0,0,1,1.9,1.14l-3.83.05"/></g></g><path class="cls-14" d="M13.84,123s.34-1.19,10.16-1.19H58s2.11-.19,4.16,2.51l-.68-5.08-47-.33Z"/></g><path class="cls-15" d="M15.27,124.75l6.9,0v10.33H15.54A74.72,74.72,0,0,1,15.27,124.75Z"/><path class="cls-5" d="M16.07,124l5.28,0a.81.81,0,0,1,.82.81v8.7a.81.81,0,0,1-.81.81H16.28a.8.8,0,0,1-.81-.72c-.1-1.22-1.21-4-1.13-8.73C14.34,124.42,14.88,123.93,16.07,124Z"/><g class="cls-16"><g class="cls-17"><rect class="cls-18" x="11.36" y="137.23" width="2.14" height="4.62" transform="translate(24.87 279.09) rotate(-180)"/><rect class="cls-19" x="15.27" y="133.17" width="1.16" height="0.58" rx="0.2" transform="translate(31.7 266.92) rotate(-180)"/><rect class="cls-20" x="13.63" y="132.76" width="2.3" height="1.38" rx="0.43" transform="translate(29.56 266.91) rotate(-180)"/><rect class="cls-21" x="16.16" y="131.29" width="0.42" height="4.12" rx="0.15" transform="translate(54.57 262.16) rotate(170.48)"/><path class="cls-22" d="M14.84,132.48,16,136.62H12.76v-4.14S14.87,132.46,14.84,132.48Z"/><rect class="cls-23" x="11.33" y="136.85" width="3.87" height="0.53" rx="0.12" transform="translate(26.53 274.22) rotate(-180)"/></g></g><rect class="cls-15" x="53.81" y="124.38" width="5.89" height="10.67" rx="1.21" transform="translate(113.51 259.43) rotate(-180)"/><rect class="cls-15" x="46.46" y="124.38" width="5.89" height="10.67" rx="1.21" transform="translate(98.8 259.43) rotate(-180)"/><rect class="cls-15" x="23.65" y="124.38" width="5.89" height="10.67" rx="1.21" transform="translate(53.18 259.43) rotate(-180)"/><rect class="cls-5" x="53.81" y="124.01" width="5.89" height="10.67" rx="1.21" transform="translate(113.51 258.69) rotate(-180)"/><g class="cls-24"><rect class="cls-25" x="57.63" y="129.75" width="3.2" height="8.04" rx="1.07" transform="translate(104.48 272.9) rotate(-174.14)"/></g><rect class="cls-5" x="46.46" y="124.01" width="5.89" height="10.67" rx="1.21" transform="translate(98.8 258.69) rotate(-180)"/><g class="cls-26"><rect class="cls-25" x="49.91" y="129.75" width="3.2" height="8.04" rx="1.07" transform="translate(89.08 272.11) rotate(-174.14)"/></g><rect class="cls-15" x="38.73" y="124.38" width="5.89" height="10.67" rx="1.21" transform="translate(83.35 259.43) rotate(-180)"/><rect class="cls-5" x="38.73" y="124.01" width="5.89" height="10.67" rx="1.21" transform="translate(83.35 258.69) rotate(-180)"/><g class="cls-27"><rect class="cls-25" x="42.82" y="129.72" width="3.2" height="8.04" rx="1.07" transform="translate(74.96 271.31) rotate(-174.14)"/></g><rect class="cls-15" x="31.74" y="124.38" width="5.89" height="10.67" rx="1.21" transform="translate(69.37 259.43) rotate(-180)"/><rect class="cls-5" x="31.74" y="124.01" width="5.89" height="10.67" rx="1.21" transform="translate(69.37 258.69) rotate(-180)"/><g class="cls-28"><rect class="cls-25" x="35.53" y="129.44" width="3.2" height="8.04" rx="1.07" transform="translate(60.44 270.02) rotate(-174.14)"/></g><rect class="cls-5" x="23.65" y="124.01" width="5.89" height="10.67" rx="1.21" transform="translate(53.18 258.69) rotate(-180)"/><g class="cls-29"><rect class="cls-25" x="27.33" y="129.24" width="3.2" height="8.04" rx="1.07" transform="translate(44.11 268.78) rotate(-174.14)"/></g><rect class="cls-1" x="17.76" y="116.65" width="1.1" height="3.31" rx="0.51" transform="translate(36.62 236.62) rotate(-180)"/><circle class="cls-30" cx="15.55" cy="134.31" r="0.74"/><path class="cls-3" d="M10.92,146.45H61a1.3,1.3,0,0,0,1.3-1.3v-1.08a1.31,1.31,0,0,0-1.3-1.3H10.18c-.72,0-1.17.3-1.17,1.06l.21,1.39C9.44,146.32,10.21,146.45,10.92,146.45Z"/><g class="cls-31"><rect class="cls-32" x="7.46" y="141.3" width="55.92" height="1.84" transform="translate(70.84 284.45) rotate(-180)"/></g><path class="cls-33" d="M13.39,142.79s0-3.77,5.37-3.77c4.86,0,5.14,3.75,5.14,3.75Z"/><path class="cls-33" d="M47.29,142.79s0-3.77,5.36-3.77c4.87,0,5.14,3.75,5.14,3.75Z"/><ellipse class="cls-34" cx="10.95" cy="141.67" rx="0.55" ry="0.74"/><path class="cls-2" d="M13.79,133.72s-4-3.86-4.69.23A4.59,4.59,0,0,0,13.79,133.72Z"/><ellipse class="cls-12" cx="10.4" cy="135.78" rx="0.74" ry="2.21"/><path d="M10.34,134.31a.27.27,0,0,0-.2.13.92.92,0,0,1,.08.42c0,.28-.08.51-.17.51s-.11-.08-.15-.21a4.17,4.17,0,0,0,0,.52c0,.76.21,1.37.47,1.37s.46-.61.46-1.37S10.59,134.31,10.34,134.31Z"/><ellipse class="cls-12" cx="60.44" cy="138.73" rx="1.11" ry="0.36" transform="translate(-82.11 189.51) rotate(-86.07)"/><ellipse class="cls-35" cx="60.44" cy="141.3" rx="0.74" ry="0.36" transform="translate(-87.1 184.33) rotate(-83.1)"/><path class="cls-1" d="M17.23,133.34l.79.21a.82.82,0,0,0,1-.44l.75-2a.66.66,0,0,0-.51-.84l-.8-.21a.82.82,0,0,0-1,.44l-.75,2A.66.66,0,0,0,17.23,133.34Z"/><path class="cls-30" d="M15.35,134.65a.21.21,0,0,1-.13-.3c.63-1.19,1.23-1.88,1.78-2a.65.65,0,0,1,.45,0,.22.22,0,0,1,.13.3.28.28,0,0,1-.33.12.77.77,0,0,0-.38.21,5.76,5.76,0,0,0-1.16,1.62.3.3,0,0,1-.28.13Zm1.87-2Zm0,0Zm0,0Zm0,0Z"/><circle class="cls-30" cx="17.39" cy="132.47" r="0.37"/><path class="cls-33" d="M47.28,142.93s-.2,2.63.64,3.52H57.4a5.49,5.49,0,0,0,.41-3.49l-3.26-3.11s-4.6.39-4.74.43S47.28,142.93,47.28,142.93Z"/><path class="cls-33" d="M13.38,142.93s-.2,2.63.64,3.52H23.5a5.49,5.49,0,0,0,.41-3.49l-3.25-3.11s-4.61.39-4.75.43S13.38,142.93,13.38,142.93Z"/><circle class="cls-36" cx="52.71" cy="144.61" r="4.41"/><circle class="cls-3" cx="52.53" cy="144.8" r="2.02"/><circle class="cls-37" cx="18.49" cy="144.61" r="4.41"/><circle class="cls-3" cx="18.31" cy="144.8" r="2.02"/></svg>