<svg id="Layer_1" data-name="Layer 1" xmlns="http://www.w3.org/2000/svg" xmlns:xlink="http://www.w3.org/1999/xlink" viewBox="0 0 260 168"><defs><style>.cls-1{fill:none;}.cls-2{fill:#fff6e1;}.cls-3{fill:#6d4224;}.cls-4{fill:#9b7053;}.cls-5{fill:#f7e8cb;opacity:0.43;isolation:isolate;}.cls-6{fill:#f7e4c1;}.cls-7{clip-path:url(#clip-path);}.cls-8{fill:#7c4c1c;}.cls-9{fill:#5b3911;}.cls-10{fill:#6d4017;}.cls-11{fill:#ffe6ae;}.cls-12{fill:#e5c585;}.cls-13{fill:#fec;}</style><clipPath id="clip-path"><rect class="cls-1" y="57.68" width="90.67" height="110.32"/></clipPath></defs><rect class="cls-2" width="260" height="120.4"/><rect class="cls-3" x="48.9" y="99.81" width="211.1" height="9.06"/><rect class="cls-4" y="108.87" width="260" height="59.13"/><rect class="cls-5" x="10.8" y="5.76" width="18.81" height="7.51" rx="3.41"/><rect class="cls-5" x="6.78" y="87.3" width="18.81" height="7.51" rx="3.41"/><rect class="cls-5" x="225.48" y="9.52" width="18.81" height="7.51" rx="3.41"/><polygon class="cls-6" points="49.31 0 49.31 113.9 0 168 0 0 49.31 0"/><rect class="cls-5" x="188.66" y="31.16" width="18.81" height="7.51" rx="3.41"/><rect class="cls-5" x="232.03" y="85.77" width="18.81" height="7.51" rx="3.41"/><rect class="cls-5" x="65.93" y="79.42" width="18.81" height="7.51" rx="3.41"/><rect class="cls-5" x="219.58" y="75.59" width="18.81" height="7.51" rx="3.41"/><rect class="cls-5" x="123.57" y="28.44" width="18.81" height="7.51" rx="3.41"/><rect class="cls-5" x="53.31" y="41.06" width="18.81" height="7.51" rx="3.41"/><rect class="cls-5" x="34.5" y="53.22" width="18.81" height="7.51" rx="3.41"/><rect class="cls-5" x="18.27" y="15.43" width="18.81" height="7.51" rx="3.41"/><g class="cls-7"><polygon class="cls-8" points="84.74 94.13 84.74 123.7 43.91 168 0 168 84.74 94.13"/><polygon class="cls-9" points="0 131.78 49.31 94.13 84.74 94.13 6.78 168 0 168 0 131.78"/><polygon class="cls-10" points="81.45 101.56 81.45 123.7 70.91 135.01 70.91 112.31 81.45 101.56"/><polygon class="cls-10" points="65.93 117.02 53.31 129.3 53.31 154.15 65.93 140.6 65.93 117.02"/><polygon class="cls-10" points="47.11 135.58 34.49 147.86 34.49 172.71 47.11 159.16 47.11 135.58"/><polygon class="cls-10" points="27.98 153.53 15.36 165.81 15.36 190.66 27.98 177.12 27.98 153.53"/></g><rect class="cls-11" x="108.89" y="63.55" width="109.76" height="35.3" rx="5.87"/><rect class="cls-12" x="93.4" y="102.05" width="140.74" height="20.75" rx="3.75"/><polygon class="cls-13" points="96.48 102.05 108.89 94.13 218.65 94.13 231.83 102.33 96.48 102.05"/></svg>