<svg id="Layer_1" data-name="Layer 1" xmlns="http://www.w3.org/2000/svg" xmlns:xlink="http://www.w3.org/1999/xlink" viewBox="0 0 260 168"><defs><style>.cls-1{fill:#9a57c2;}.cls-2{clip-path:url(#clip-path);}.cls-3{fill:#c57ff0;}.cls-4{fill:#703395;}.cls-5{fill:#fff;}.cls-6{fill:#231f20;}.cls-7{fill:#45046e;}.cls-8{fill:none;stroke:#703395;stroke-linecap:round;stroke-linejoin:round;stroke-width:0.31px;}</style><clipPath id="clip-path"><path class="cls-1" d="M213.68,61.72a2.7,2.7,0,0,1,1.8-1.69c1.27-.21,1.44-.42,3.45,1.13s3.46-1.52,6.21-3.74c0,0,.66-.56-.82-.42s-3.59-.18-3.77-2.29c0,0,.53-1.2-1.05-.6s-5-1.48-5-2.68-.81-.42-.74.6a4.19,4.19,0,0,0-.63.95,4.37,4.37,0,0,0-.32,1.76,7.12,7.12,0,0,0-.35,5.82,1.36,1.36,0,0,0,1,1.2Z"/></clipPath></defs><path class="cls-1" d="M216.69,55.81a6.11,6.11,0,0,1-.73-.67,2.22,2.22,0,0,1-.55-.92,2.16,2.16,0,0,1,.11-1.18,7.4,7.4,0,0,1,.41-1.11s-.32-.43-.34-.47a1.17,1.17,0,0,1-.13-.91.06.06,0,0,1,.12,0,3.59,3.59,0,0,0,.12.35.8.8,0,0,0,.19.32.07.07,0,0,0,.11-.06,1.87,1.87,0,0,1,0-.53.88.88,0,0,1,.25-.44.06.06,0,0,1,.11.06,2.44,2.44,0,0,0,0,.81.06.06,0,0,0,.12,0,.89.89,0,0,1,.58-.57.07.07,0,0,1,.07.1A3.24,3.24,0,0,0,217,51c-.13.29-.08.58-.26.84a.36.36,0,0,1-.35.21,3.38,3.38,0,0,0-.52,2,1.24,1.24,0,0,0,.36.74,1.38,1.38,0,0,0,.42.25c.07,0,.54.21.59.15Z"/><path class="cls-1" d="M213.74,58.5a11.52,11.52,0,0,1,.61,1.94c.26,1.15,1.59,1.31,2.6,1.16,1,.15,2.34,0,2.6-1.16a9.94,9.94,0,0,1,.61-1.94c.92-2.21-1.16-4.41-3.21-4.85C214.9,54.09,212.81,56.29,213.74,58.5Z"/><path class="cls-1" d="M218.14,56a5,5,0,0,0,.73-.68,2.09,2.09,0,0,0,.55-.91,2.16,2.16,0,0,0-.11-1.18,6.15,6.15,0,0,0-.41-1.11l.35-.47a1.26,1.26,0,0,0,.13-.91.07.07,0,0,0-.13,0c0,.11-.07.23-.11.35a1.08,1.08,0,0,1-.19.31.07.07,0,0,1-.12,0,1.64,1.64,0,0,0,0-.54.89.89,0,0,0-.25-.44.07.07,0,0,0-.11.06,2.75,2.75,0,0,1,0,.81.07.07,0,0,1-.13,0,.86.86,0,0,0-.57-.56.07.07,0,0,0-.08.1c.07.12.14.3.16.34.12.29.07.58.26.85s.15.2.34.21a3.36,3.36,0,0,1,.52,2,1.2,1.2,0,0,1-.77,1c-.07,0-.55.2-.59.14Z"/><path class="cls-1" d="M213.68,61.72a2.7,2.7,0,0,1,1.8-1.69c1.27-.21,1.44-.42,3.45,1.13s3.46-1.52,6.21-3.74c0,0,.66-.56-.82-.42s-3.59-.18-3.77-2.29c0,0,.53-1.2-1.05-.6s-5-1.48-5-2.68-.81-.42-.74.6a4.19,4.19,0,0,0-.63.95,4.37,4.37,0,0,0-.32,1.76,7.12,7.12,0,0,0-.35,5.82,1.36,1.36,0,0,0,1,1.2Z"/><g class="cls-2"><path class="cls-3" d="M225.64,56.66a4,4,0,0,0-2.81,1.91c-1.22,1.8-3.41,3.79-3.37,1.45A26.23,26.23,0,0,1,221,53.65Z"/><path class="cls-3" d="M220.56,53.18s-1.33.27-1.6,3.79-1.76,2.85-3.17,3.05a8.21,8.21,0,0,0-2.27.78c-1.72.23.27-6.88,1.29-10S220.56,53.18,220.56,53.18Z"/></g><path class="cls-1" d="M215.12,68.42s-.37,3.23-5,3.82a.46.46,0,0,1-.52-.41c-.18-1.43-.43-5.76,3.11-6.14A2.77,2.77,0,0,1,215.12,68.42Z"/><path class="cls-4" d="M215.12,68.42s-.37,3.23-5,3.82a.46.46,0,0,1-.52-.41s1.06.53,3.11-.9a5,5,0,0,0,1.81-4.22h0A2.78,2.78,0,0,1,215.12,68.42Z"/><path class="cls-4" d="M212.71,70.93a2.52,2.52,0,0,1-1.05.24,2.49,2.49,0,0,1-1-.24A4.8,4.8,0,0,0,212.71,70.93Z"/><path class="cls-4" d="M213.76,69.81a3.49,3.49,0,0,1-1.67.28,3,3,0,0,1-.82-.24,2,2,0,0,1-.66-.53,2.54,2.54,0,0,0,1.5.64A4.61,4.61,0,0,0,213.76,69.81Z"/><path class="cls-4" d="M214.31,68.56a2.14,2.14,0,0,1-1.17.26,1.8,1.8,0,0,1-1.08-.49,2.47,2.47,0,0,0,1.1.36A3,3,0,0,0,214.31,68.56Z"/><path class="cls-1" d="M218.77,68.42s.38,3.23,5,3.82a.48.48,0,0,0,.53-.41c.18-1.43.42-5.76-3.11-6.14A2.77,2.77,0,0,0,218.77,68.42Z"/><path class="cls-4" d="M218.77,68.42s.38,3.23,5,3.82a.48.48,0,0,0,.53-.41s-1.07.53-3.11-.9a5,5,0,0,1-1.81-4.22h0A2.76,2.76,0,0,0,218.77,68.42Z"/><path class="cls-4" d="M221.19,70.93a4.8,4.8,0,0,0,2.1,0,2.42,2.42,0,0,1-2.1,0Z"/><path class="cls-4" d="M220.13,69.81a4.69,4.69,0,0,0,1.66.15,2.59,2.59,0,0,0,1.5-.64,2,2,0,0,1-.66.53,2.94,2.94,0,0,1-.83.24A3.53,3.53,0,0,1,220.13,69.81Z"/><path class="cls-4" d="M219.59,68.56a3,3,0,0,0,1.15.13,2.39,2.39,0,0,0,1.09-.36,1.8,1.8,0,0,1-1.08.49A2.11,2.11,0,0,1,219.59,68.56Z"/><path class="cls-3" d="M212.1,64a9.2,9.2,0,0,0,.53,2.54c.26.75.47,1.47,1.24,1.83a7.28,7.28,0,0,0,3.08.48h0a7.26,7.26,0,0,0,3.07-.48c.77-.36,1-1.08,1.24-1.83A8.86,8.86,0,0,0,221.8,64a2.54,2.54,0,0,0-.53-1.88,3.58,3.58,0,0,0-1-.63c-.53-.28-1-.61-1.59-.86a3.94,3.94,0,0,0-3.5,0c-.55.25-1.06.58-1.6.86a3.73,3.73,0,0,0-1,.63A2.53,2.53,0,0,0,212.1,64Z"/><path class="cls-1" d="M215.52,63.5a1.07,1.07,0,0,1,.47.63.75.75,0,0,0,.52.63,2.57,2.57,0,0,0,.44.08,2.76,2.76,0,0,0,.44-.08.77.77,0,0,0,.52-.63,1,1,0,0,1,.46-.63c.27-.2.59-.34.56-.73a.74.74,0,0,0-.17-.45c-.35-.4-1-.26-1.47-.07a.92.92,0,0,1-.69,0c-.48-.19-1.11-.33-1.46.07a.75.75,0,0,0-.18.45C214.94,63.16,215.25,63.3,215.52,63.5Z"/><circle class="cls-5" cx="214.43" cy="64.84" r="1.48"/><circle class="cls-6" cx="214.43" cy="64.84" r="1.08"/><circle class="cls-6" cx="214.43" cy="64.84" r="0.64"/><circle class="cls-5" cx="213.85" cy="65.23" r="0.33"/><path class="cls-7" d="M216.44,63.69s-.16-1.29-.65-.95S216.44,63.69,216.44,63.69Z"/><path class="cls-4" d="M217,61.8a6.62,6.62,0,0,1,3.15.75,5.69,5.69,0,0,0-3.18-.85,5.41,5.41,0,0,0-3.13.85A6.65,6.65,0,0,1,217,61.8Z"/><circle class="cls-5" cx="219.47" cy="64.84" r="1.48"/><circle class="cls-6" cx="219.47" cy="64.84" r="1.08"/><circle class="cls-6" cx="219.47" cy="64.84" r="0.64"/><circle class="cls-5" cx="218.89" cy="65.23" r="0.33"/><path class="cls-7" d="M217.46,63.69s.15-1.29.64-.95S217.46,63.69,217.46,63.69Z"/><path class="cls-4" d="M220.27,66.74a2.31,2.31,0,0,1-1.65,0,.14.14,0,0,0-.15.22,1.25,1.25,0,0,0,1.93,0A.14.14,0,0,0,220.27,66.74Z"/><path class="cls-4" d="M215.23,66.74a2.31,2.31,0,0,1-1.65,0,.13.13,0,0,0-.14.22,1.25,1.25,0,0,0,1.93,0A.14.14,0,0,0,215.23,66.74Z"/><path class="cls-5" d="M215.5,61.93a2.5,2.5,0,0,1,.39-.6.2.2,0,0,1,.34.07,1.45,1.45,0,0,0,.21.41A7.14,7.14,0,0,0,215.5,61.93Z"/><path class="cls-5" d="M218.39,61.93a2.18,2.18,0,0,0-.39-.6.21.21,0,0,0-.34.07,1.7,1.7,0,0,1-.2.41A7.08,7.08,0,0,1,218.39,61.93Z"/><circle class="cls-3" cx="219.46" cy="64.88" r="1.61"/><circle class="cls-3" cx="214.4" cy="64.88" r="1.61"/><path class="cls-8" d="M221,64.69a3,3,0,0,1-2.87-.07"/><path class="cls-8" d="M215.72,64.69a3,3,0,0,1-2.88-.07"/></svg>