<svg id="Layer_10" data-name="Layer 10" xmlns="http://www.w3.org/2000/svg" xmlns:xlink="http://www.w3.org/1999/xlink" viewBox="0 0 260 168"><defs><style>.cls-1{fill:#a8a3a0;}.cls-2{fill:#9b9491;}.cls-3{fill:#9a57c2;}.cls-4{fill:#703395;}.cls-5{clip-path:url(#clip-path);}.cls-6{clip-path:url(#clip-path-2);}.cls-7{fill:#8e8785;}.cls-8{clip-path:url(#clip-path-3);}.cls-9{fill:#c57ff0;}.cls-10{clip-path:url(#clip-path-4);}.cls-11{fill:#fff;}.cls-12{fill:#231f20;}.cls-13{fill:#45046e;}</style><clipPath id="clip-path"><ellipse class="cls-1" cx="131.28" cy="182.29" rx="9.39" ry="19.88" transform="translate(-67.08 76.85) rotate(-26.25)"/></clipPath><clipPath id="clip-path-2"><path class="cls-2" d="M125.4,158.46l.89,16.79-2,6.54,9.09,9.06,3.18,5.21,8.6,7.45-7.33,8.85s-22.68-29.76-22.55-30.75-1.52-16.18-1.52-16.18Z"/></clipPath><clipPath id="clip-path-3"><path class="cls-3" d="M97,109s2.37-5.83,7.48-6.46,5.84-1.44,13.62,5.09,14.06-5.47,25.43-13.89c0,0,2.77-2.14-3.17-1.83S126,90.64,125.68,82.16c0,0,2.31-4.71-4.13-2.58S101.93,72.83,102.13,68,99,66.21,99.07,70.31A16.87,16.87,0,0,0,96.37,74c-1.52,2.62-1.56,7-1.56,7s-7,11.14-2.39,23.19c0,0,.11,4,3.74,5Z"/></clipPath><clipPath id="clip-path-4"><path class="cls-4" d="M106.19,112.3s-1.63-4,4.74-5.67,8.46.16,7.84,2.41S108.06,114.71,106.19,112.3Z"/></clipPath></defs><ellipse class="cls-1" cx="131.28" cy="182.29" rx="9.39" ry="19.88" transform="translate(-67.08 76.85) rotate(-26.25)"/><g class="cls-5"><path class="cls-2" d="M125.4,158.46l.89,16.79-2,6.54,9.09,9.06,3.18,5.21,8.6,7.45-7.33,8.85s-22.68-29.76-22.55-30.75-1.52-16.18-1.52-16.18Z"/><g class="cls-6"><polygon class="cls-7" points="110.9 175.25 128.19 175.35 127.3 156.9 110.5 159.03 110.9 175.25"/></g></g><path class="cls-3" d="M110,85.92c-.13.16-2.58-2.57-2.81-2.82a8.62,8.62,0,0,1-2-3.76,8.47,8.47,0,0,1,.64-4.7,25.72,25.72,0,0,1,1.83-4.37s-1.24-1.78-1.32-1.93a4.89,4.89,0,0,1-.36-3.65.27.27,0,0,1,.51,0c.13.48.23,1,.39,1.42a3.55,3.55,0,0,0,.71,1.29.26.26,0,0,0,.46-.19,7,7,0,0,1,.22-2.14,3.68,3.68,0,0,1,1.06-1.71.26.26,0,0,1,.44.25,10,10,0,0,0-.2,3.23.27.27,0,0,0,.51.07,3.44,3.44,0,0,1,2.39-2.16.27.27,0,0,1,.28.4c-.28.48-.61,1.21-.68,1.35-.56,1.15-.39,2.31-1.18,3.35-.47.61-.66.78-1.43.77-1.37,2.28-2.63,5.08-2.39,7.8a4.81,4.81,0,0,0,1.31,3A5.43,5.43,0,0,0,110,82.52c.27.13,2.13.91,2.33.67Z"/><path class="cls-3" d="M97.8,96.16A44.89,44.89,0,0,1,99.91,104c.83,4.66,6.15,5.5,10.19,5.08,4,.76,9.36.37,10.59-4.21a43.91,43.91,0,0,1,2.76-7.65c4.08-8.69-3.89-17.82-12-19.94C103.17,78.73,94.47,87.16,97.8,96.16Z"/><path class="cls-3" d="M115.83,86.87c.12.17,2.79-2.34,3-2.57a8.63,8.63,0,0,0,2.33-3.58A8.39,8.39,0,0,0,121,76a25.33,25.33,0,0,0-1.45-4.52s1.39-1.66,1.47-1.81a4.81,4.81,0,0,0,.68-3.61.27.27,0,0,0-.51,0c-.17.46-.31.94-.51,1.39a3.46,3.46,0,0,1-.82,1.22.26.26,0,0,1-.44-.23,7,7,0,0,0,0-2.15,3.68,3.68,0,0,0-.91-1.8.27.27,0,0,0-.46.22,9.72,9.72,0,0,1-.08,3.23.26.26,0,0,1-.51,0,3.45,3.45,0,0,0-2.2-2.35.26.26,0,0,0-.31.37c.24.5.5,1.26.56,1.41.46,1.18.2,2.33.9,3.43.41.65.59.83,1.36.89,1.17,2.38,2.19,5.28,1.72,8a4.74,4.74,0,0,1-1.56,2.87,5.27,5.27,0,0,1-1.7,1c-.29.11-2.2.73-2.37.47Z"/><path class="cls-3" d="M97,109s2.37-5.83,7.48-6.46,5.84-1.44,13.62,5.09,14.06-5.47,25.43-13.89c0,0,2.77-2.14-3.17-1.83S126,90.64,125.68,82.16c0,0,2.31-4.71-4.13-2.58S101.93,72.83,102.13,68,99,66.21,99.07,70.31A16.87,16.87,0,0,0,96.37,74c-1.52,2.62-1.56,7-1.56,7s-7,11.14-2.39,23.19c0,0,.11,4,3.74,5Z"/><g class="cls-8"><path class="cls-9" d="M145.69,90.8s-6.43.2-11.58,7.19-14.24,14.59-13.68,5.21S127.6,78,127.6,78Z"/><path class="cls-9" d="M126,76s-5.37.87-7,14.89-7.52,11.12-13.18,11.66-7.88,2.63-9.2,2.75c-6.91.65,2.26-27.47,6.85-39.8S126,76,126,76Z"/></g><path class="cls-3" d="M112.28,136.6s2.12,12.84-15,20.22a1.87,1.87,0,0,1-2.46-1c-2.27-5.3-8-21.72,5.18-27.05C110.17,128,112.28,136.6,112.28,136.6Z"/><path class="cls-4" d="M112.28,136.6s2.12,12.84-15,20.22a1.87,1.87,0,0,1-2.46-1s4.69.86,11-6.92,2.29-18.24,2.29-18.24h0A11.17,11.17,0,0,1,112.28,136.6Z"/><path class="cls-4" d="M105.76,148.91a7.63,7.63,0,0,1-1.76,1.26,9.82,9.82,0,0,1-2,.84,8.92,8.92,0,0,1-4.32.22c.72-.08,1.43-.12,2.12-.26a17.9,17.9,0,0,0,2-.47A22.69,22.69,0,0,0,105.76,148.91Z"/><path class="cls-4" d="M108.59,143.44a12.84,12.84,0,0,1-2.87,1.83,12.7,12.7,0,0,1-3.25,1.09,9.7,9.7,0,0,1-3.44,0A8,8,0,0,1,95.9,145a11.09,11.09,0,0,0,3.19.93,12.1,12.1,0,0,0,3.29-.14,18,18,0,0,0,3.18-.93A23.43,23.43,0,0,0,108.59,143.44Z"/><path class="cls-4" d="M109.3,138.05a7.53,7.53,0,0,1-1.91,1.45,8.06,8.06,0,0,1-2.28.81,6.84,6.84,0,0,1-2.43.07,6.66,6.66,0,0,1-2.27-.74,12.37,12.37,0,0,0,2.31.33,9.25,9.25,0,0,0,2.29-.18A12.93,12.93,0,0,0,109.3,138.05Z"/><path class="cls-3" d="M126.31,132.58s5,12,23.46,9.16a1.87,1.87,0,0,0,1.56-2.14c-.89-5.7-4.73-22.66-18.74-20.19C123.51,124.12,126.31,132.58,126.31,132.58Z"/><path class="cls-4" d="M126.31,132.58s5,12,23.46,9.16a1.87,1.87,0,0,0,1.56-2.14s-3.52,3.21-13-.06-11.62-14.24-11.62-14.24h0A11.26,11.26,0,0,0,126.31,132.58Z"/><path class="cls-4" d="M138.37,139.54a21.41,21.41,0,0,0,4.17-.73,17.8,17.8,0,0,0,2-.68c.66-.25,1.28-.59,1.93-.91a8.9,8.9,0,0,1-3.77,2.1,9.21,9.21,0,0,1-2.15.36A7.81,7.81,0,0,1,138.37,139.54Z"/><path class="cls-4" d="M133.07,136.41a23.06,23.06,0,0,0,3.34-.37,17.35,17.35,0,0,0,3.19-.9,11.75,11.75,0,0,0,2.86-1.63,10.77,10.77,0,0,0,2.22-2.48,8.19,8.19,0,0,1-2,2.79,9.79,9.79,0,0,1-2.93,1.82,13.18,13.18,0,0,1-3.33.81A12.9,12.9,0,0,1,133.07,136.41Z"/><path class="cls-4" d="M129.61,132.22a13.1,13.1,0,0,0,4.56-.8,9.12,9.12,0,0,0,2-1.06,12.78,12.78,0,0,0,1.79-1.51,7,7,0,0,1-3.63,3.06,8.06,8.06,0,0,1-2.36.52A7.36,7.36,0,0,1,129.61,132.22Z"/><path class="cls-9" d="M95.78,123a35.74,35.74,0,0,0,4.86,9.15c1.84,2.6,3.44,5.15,6.79,5.67,4.13.65,8.33-.4,12.36-1.54h0c4-1.17,8.14-2.51,11.3-5.25,2.56-2.23,2.56-5.23,2.75-8.41a36.25,36.25,0,0,0-.74-10.34c-.62-2.61-1.8-5.3-4.11-6.65a14.51,14.51,0,0,0-4.46-1.35c-2.37-.49-4.7-1.18-7.09-1.56A15.74,15.74,0,0,0,104,106.61c-1.83,1.59-3.44,3.42-5.19,5.09a14.81,14.81,0,0,0-3.06,3.51C94.49,117.58,94.92,120.49,95.78,123Z"/><path class="cls-4" d="M106.19,112.3s-1.63-4,4.74-5.67,8.46.16,7.84,2.41S108.06,114.71,106.19,112.3Z"/><g class="cls-10"><path class="cls-11" d="M107.1,113.06a9,9,0,0,1,.83-2.74.81.81,0,0,1,1.39-.09,5.9,5.9,0,0,0,1.24,1.33A26.94,26.94,0,0,0,107.1,113.06Z"/><path class="cls-11" d="M118.2,109.88A8.94,8.94,0,0,0,116,108a.81.81,0,0,0-1.23.66,5.61,5.61,0,0,1-.35,1.79A26.87,26.87,0,0,1,118.2,109.88Z"/></g><path class="cls-3" d="M108.38,117.22a4.21,4.21,0,0,1,2.48,1.9,3,3,0,0,0,2.7,1.88,11.36,11.36,0,0,0,1.78-.2A11.16,11.16,0,0,0,117,120a3,3,0,0,0,1.29-3,4.23,4.23,0,0,1,1.1-2.93c.82-1.06,1.88-1.92,1.35-3.39a3.08,3.08,0,0,0-1.18-1.57c-1.78-1.15-4,.1-5.7,1.36a3.84,3.84,0,0,1-2.66.76c-2.08-.19-4.65,0-5.55,1.88a3.1,3.1,0,0,0-.17,2C105.76,116.58,107.11,116.76,108.38,117.22Z"/><circle class="cls-11" cx="105.65" cy="123.59" r="5.91"/><circle class="cls-12" cx="105.65" cy="123.59" r="4.3"/><circle class="cls-12" cx="105.65" cy="123.59" r="2.55"/><circle class="cls-11" cx="103.87" cy="125.72" r="1.31"/><path class="cls-13" d="M112.12,117s-2-4.8-3.54-2.94C107.47,115.4,112.12,117,112.12,117Z"/><circle class="cls-11" cx="125.03" cy="118.02" r="5.91"/><circle class="cls-12" cx="125.03" cy="118.02" r="4.3"/><circle class="cls-12" cx="125.03" cy="118.02" r="2.55"/><circle class="cls-11" cx="123.25" cy="120.15" r="1.31"/><path class="cls-13" d="M116,115.84s-.82-5.15,1.44-4.37C119.14,112.05,116,115.84,116,115.84Z"/><path class="cls-9" d="M118.66,118.14c4.11-.36,7.86-2.09,11.53-3.86a6.45,6.45,0,0,0-11.58,3.87Z"/><path class="cls-9" d="M130.42,124.49a21.12,21.12,0,0,0-4.2-.32,35.33,35.33,0,0,0-6.32.47,6.45,6.45,0,0,1,12.35.35A9.2,9.2,0,0,0,130.42,124.49Z"/><path class="cls-9" d="M104,122.75a14.57,14.57,0,0,0,4-1,15.33,15.33,0,0,0,3-1.5,6.45,6.45,0,0,0-11.75,2.58C100.79,122.68,102.41,122.86,104,122.75Z"/><path class="cls-9" d="M109.44,130.55a25.35,25.35,0,0,0-3.38,2c-.44.29-.91.62-1.4.91a4.7,4.7,0,0,1-.28-.74A6.45,6.45,0,0,1,116.71,129,18,18,0,0,0,109.44,130.55Z"/><path class="cls-4" d="M130.87,126.23a9.32,9.32,0,0,0-6.52-1,.53.53,0,0,1-.46-.94c1.8-1.4,4.69-2.5,7.64,1.11A.53.53,0,0,1,130.87,126.23Z"/><path class="cls-4" d="M111.71,128.73a9.25,9.25,0,0,0-4.36,5,.54.54,0,0,1-1-.14c-.2-2.26.45-5.29,5.08-5.81A.54.54,0,0,1,111.71,128.73Z"/></svg>