<svg id="Layer_8" data-name="Layer 8" xmlns="http://www.w3.org/2000/svg" xmlns:xlink="http://www.w3.org/1999/xlink" viewBox="0 0 260 168"><defs><style>.cls-1{fill:#9a57c2;}.cls-2{fill:#703395;}.cls-3{clip-path:url(#clip-path);}.cls-4{fill:#c57ff0;}.cls-5{clip-path:url(#clip-path-2);}.cls-6{fill:#fff;}.cls-7{fill:#231f20;}.cls-8{fill:#45046e;}</style><clipPath id="clip-path"><path class="cls-1" d="M97,109s2.37-5.83,7.48-6.46,5.84-1.44,13.62,5.09,14.06-5.47,25.43-13.89c0,0,2.77-2.14-3.17-1.83S126,90.64,125.68,82.16c0,0,2.31-4.71-4.13-2.58S101.93,72.83,102.13,68,99,66.21,99.07,70.31A16.87,16.87,0,0,0,96.37,74c-1.52,2.62-1.56,7-1.56,7s-7,11.14-2.39,23.19c0,0,.11,4,3.74,5Z"/></clipPath><clipPath id="clip-path-2"><path class="cls-2" d="M103.08,109.91s.12-4.28,6.63-3.25,7.67,3.59,6.19,5.4S103.8,112.87,103.08,109.91Z"/></clipPath></defs><path class="cls-1" d="M110,85.92c-.13.16-2.58-2.57-2.81-2.82a8.62,8.62,0,0,1-2-3.76,8.47,8.47,0,0,1,.64-4.7,25.72,25.72,0,0,1,1.83-4.37s-1.24-1.78-1.32-1.93a4.89,4.89,0,0,1-.36-3.65.27.27,0,0,1,.51,0c.13.48.23,1,.39,1.42a3.55,3.55,0,0,0,.71,1.29.26.26,0,0,0,.46-.19,7,7,0,0,1,.22-2.14,3.68,3.68,0,0,1,1.06-1.71.26.26,0,0,1,.44.25,10,10,0,0,0-.2,3.23.27.27,0,0,0,.51.07,3.44,3.44,0,0,1,2.39-2.16.27.27,0,0,1,.28.4c-.28.48-.61,1.21-.68,1.35-.56,1.15-.39,2.31-1.18,3.35-.47.61-.66.78-1.43.77-1.37,2.28-2.63,5.08-2.39,7.8a4.81,4.81,0,0,0,1.31,3A5.43,5.43,0,0,0,110,82.52c.27.13,2.13.91,2.33.67Z"/><path class="cls-1" d="M97.8,96.16A44.89,44.89,0,0,1,99.91,104c.83,4.66,6.15,5.5,10.19,5.08,4,.76,9.36.37,10.59-4.21a43.91,43.91,0,0,1,2.76-7.65c4.08-8.69-3.89-17.82-12-19.94C103.17,78.73,94.47,87.16,97.8,96.16Z"/><path class="cls-1" d="M115.83,86.87c.12.17,2.79-2.34,3-2.57a8.63,8.63,0,0,0,2.33-3.58A8.39,8.39,0,0,0,121,76a25.33,25.33,0,0,0-1.45-4.52s1.39-1.66,1.47-1.81a4.81,4.81,0,0,0,.68-3.61.27.27,0,0,0-.51,0c-.17.46-.31.94-.51,1.39a3.46,3.46,0,0,1-.82,1.22.26.26,0,0,1-.44-.23,7,7,0,0,0,0-2.15,3.68,3.68,0,0,0-.91-1.8.27.27,0,0,0-.46.22,9.72,9.72,0,0,1-.08,3.23.26.26,0,0,1-.51,0,3.45,3.45,0,0,0-2.2-2.35.26.26,0,0,0-.31.37c.24.5.5,1.26.56,1.41.46,1.18.2,2.33.9,3.43.41.65.59.83,1.36.89,1.17,2.38,2.19,5.28,1.72,8a4.74,4.74,0,0,1-1.56,2.87,5.27,5.27,0,0,1-1.7,1c-.29.11-2.2.73-2.37.47Z"/><path class="cls-1" d="M97,109s2.37-5.83,7.48-6.46,5.84-1.44,13.62,5.09,14.06-5.47,25.43-13.89c0,0,2.77-2.14-3.17-1.83S126,90.64,125.68,82.16c0,0,2.31-4.71-4.13-2.58S101.93,72.83,102.13,68,99,66.21,99.07,70.31A16.87,16.87,0,0,0,96.37,74c-1.52,2.62-1.56,7-1.56,7s-7,11.14-2.39,23.19c0,0,.11,4,3.74,5Z"/><g class="cls-3"><path class="cls-4" d="M145.69,90.8s-6.43.2-11.58,7.19-14.24,14.59-13.68,5.21S127.6,78,127.6,78Z"/><path class="cls-4" d="M126,76s-5.37.87-7,14.89-7.52,11.12-13.18,11.66-7.88,2.63-9.2,2.75c-6.91.65,2.26-27.47,6.85-39.8S126,76,126,76Z"/></g><path class="cls-1" d="M98.74,134.59s-3.3,12.58-21.95,12.34A1.88,1.88,0,0,1,74.94,145c.09-5.76,1.54-23.09,15.75-22.6C100.34,125.82,98.74,134.59,98.74,134.59Z"/><path class="cls-2" d="M98.74,134.59s-3.3,12.58-21.95,12.34A1.88,1.88,0,0,1,74.94,145s3.93,2.7,12.83-1.85,9.52-15.72,9.52-15.72h0A11.22,11.22,0,0,1,98.74,134.59Z"/><path class="cls-2" d="M87.77,143.17a8.51,8.51,0,0,1-2.12.44,10.58,10.58,0,0,1-2.18-.06,8.86,8.86,0,0,1-4-1.56c.69.22,1.35.47,2,.63a18.26,18.26,0,0,0,2.06.4A22.88,22.88,0,0,0,87.77,143.17Z"/><path class="cls-2" d="M92.58,139.32a12.65,12.65,0,0,1-3.36.51,13.52,13.52,0,0,1-3.41-.33,9.78,9.78,0,0,1-3.15-1.39,8,8,0,0,1-2.32-2.5,10.59,10.59,0,0,0,2.54,2.15A12,12,0,0,0,85.93,139a17.35,17.35,0,0,0,3.29.44A22.24,22.24,0,0,0,92.58,139.32Z"/><path class="cls-2" d="M95.42,134.69a7.14,7.14,0,0,1-2.33.54,7.83,7.83,0,0,1-2.41-.18,6.89,6.89,0,0,1-2.24-.92,6.69,6.69,0,0,1-1.78-1.61,12.18,12.18,0,0,0,2,1.25,9.25,9.25,0,0,0,2.16.76A12.77,12.77,0,0,0,95.42,134.69Z"/><path class="cls-1" d="M113.19,136.62s-.3,13,17.69,17.92a1.88,1.88,0,0,0,2.31-1.31c1.5-5.57,4.9-22.62-8.9-26.07C114.08,127.75,113.19,136.62,113.19,136.62Z"/><path class="cls-2" d="M113.19,136.62s-.3,13,17.69,17.92a1.88,1.88,0,0,0,2.31-1.31s-4.53,1.5-11.82-5.33-4.81-17.74-4.81-17.74h0A11.21,11.21,0,0,0,113.19,136.62Z"/><path class="cls-2" d="M121.37,147.9a21.2,21.2,0,0,0,4.1,1,16.23,16.23,0,0,0,2.1.19c.7,0,1.4,0,2.13,0a8.87,8.87,0,0,1-4.31.38,10.22,10.22,0,0,1-2.11-.54A8.13,8.13,0,0,1,121.37,147.9Z"/><path class="cls-2" d="M117.8,142.88a23,23,0,0,0,3.21,1,18.28,18.28,0,0,0,3.28.48,11.62,11.62,0,0,0,3.27-.33,10.87,10.87,0,0,0,3-1.36,8.07,8.07,0,0,1-2.92,1.76,9.87,9.87,0,0,1-3.41.46,12.78,12.78,0,0,1-3.37-.62A13.36,13.36,0,0,1,117.8,142.88Z"/><path class="cls-2" d="M116.35,137.64a12.84,12.84,0,0,0,4.49,1.12,9.25,9.25,0,0,0,2.29-.13,12.47,12.47,0,0,0,2.25-.65,7.11,7.11,0,0,1-4.57,1.32,8,8,0,0,1-2.37-.5A7.26,7.26,0,0,1,116.35,137.64Z"/><path class="cls-4" d="M89.2,115.47a35.86,35.86,0,0,0,.71,10.33c.62,3.13,1,6.1,3.89,8,3.51,2.28,7.77,3,11.92,3.63h0c4.15.56,8.45,1,12.46-.2,3.24-1,4.47-3.73,5.93-6.56a35.65,35.65,0,0,0,3.53-9.74c.5-2.63.53-5.57-1-7.75a14.3,14.3,0,0,0-3.52-3c-2-1.42-3.81-3-5.84-4.32a14.91,14.91,0,0,0-6.7-2.6,15.1,15.1,0,0,0-7.17.64c-2.31.71-4.53,1.73-6.81,2.54a14.76,14.76,0,0,0-4.22,2C90.24,110,89.45,112.8,89.2,115.47Z"/><path class="cls-2" d="M103.08,109.91s.12-4.28,6.63-3.25,7.67,3.59,6.19,5.4S103.8,112.87,103.08,109.91Z"/><g class="cls-5"><path class="cls-6" d="M103.59,111a8.88,8.88,0,0,1,1.88-2.17.81.81,0,0,1,1.31.48,5.75,5.75,0,0,0,.59,1.72A26.07,26.07,0,0,0,103.59,111Z"/><path class="cls-6" d="M115,112.59a8.79,8.79,0,0,0-1.2-2.6.82.82,0,0,0-1.4.1,5.56,5.56,0,0,1-1,1.49A26.35,26.35,0,0,1,115,112.59Z"/></g><path class="cls-1" d="M103.07,115.29a4.2,4.2,0,0,1,1.49,2.75,3,3,0,0,0,1.7,2.81,11.17,11.17,0,0,0,1.71.55,11.14,11.14,0,0,0,1.79-.06,3,3,0,0,0,2.41-2.23,4.22,4.22,0,0,1,2.19-2.23c1.19-.63,2.5-1,2.62-2.55a3.11,3.11,0,0,0-.44-1.91c-1.16-1.78-3.73-1.56-5.76-1.08A3.85,3.85,0,0,1,108,111c-1.82-1-4.23-1.94-5.83-.55a3,3,0,0,0-.95,1.72C100.94,113.64,102.1,114.35,103.07,115.29Z"/><circle class="cls-6" cx="97.99" cy="120" r="5.91"/><circle class="cls-7" cx="97.99" cy="120" r="4.3"/><circle class="cls-7" cx="97.99" cy="120" r="2.55"/><circle class="cls-6" cx="95.5" cy="121.22" r="1.31"/><path class="cls-8" d="M106.59,116.58s.1-5.22-2-4.13C103,113.26,106.59,116.58,106.59,116.58Z"/><circle class="cls-6" cx="117.95" cy="122.81" r="5.91"/><circle class="cls-7" cx="117.95" cy="122.81" r="4.3"/><circle class="cls-7" cx="117.95" cy="122.81" r="2.55"/><circle class="cls-6" cx="115.46" cy="124.03" r="1.31"/><path class="cls-8" d="M110.62,117.15s1.35-5,3.09-3.41C115,115,110.62,117.15,110.62,117.15Z"/><path class="cls-4" d="M112.09,120.32c3.89,1.34,8,1.3,12.1,1.17A6.45,6.45,0,0,0,112,120.31Z"/><path class="cls-4" d="M120.24,130.91a21,21,0,0,0-3.7-2,34.79,34.79,0,0,0-6-2.14,6.44,6.44,0,0,1,11.13,5.34A9.81,9.81,0,0,0,120.24,130.91Z"/><path class="cls-4" d="M96.78,118.54a14.34,14.34,0,0,0,4.12.69,15.38,15.38,0,0,0,3.32-.16,6.45,6.45,0,0,0-11.78-2.44C93.92,117.18,95.33,118,96.78,118.54Z"/><path class="cls-4" d="M98.61,127.89a27.29,27.29,0,0,0-3.92.5c-.52.09-1.09.2-1.66.27,0-.27,0-.53,0-.8a6.45,6.45,0,0,1,12.81,1.55A18.07,18.07,0,0,0,98.61,127.89Z"/><path class="cls-2" d="M119.94,132.68a9.29,9.29,0,0,0-5.56-3.55.53.53,0,0,1,0-1c2.21-.55,5.3-.38,6.53,4.12A.54.54,0,0,1,119.94,132.68Z"/><path class="cls-2" d="M101.42,127.16a9.25,9.25,0,0,0-6,2.74.53.53,0,0,1-.89-.54c.74-2.15,2.55-4.65,7-3.24A.53.53,0,0,1,101.42,127.16Z"/></svg>