<svg id="Layer_1" data-name="Layer 1" xmlns="http://www.w3.org/2000/svg" xmlns:xlink="http://www.w3.org/1999/xlink" viewBox="0 0 260 168"><defs><style>.cls-1{fill:#fff;}.cls-2{fill:#c57ff0;}.cls-3{fill:#9a57c2;}.cls-4{fill:#45046e;}.cls-5{fill:#703395;}.cls-6{clip-path:url(#clip-path);}.cls-7{fill:#231f20;}.cls-8{clip-path:url(#clip-path-2);}</style><clipPath id="clip-path"><circle class="cls-1" cx="191.53" cy="75.47" r="5.37"/></clipPath><clipPath id="clip-path-2"><circle class="cls-1" cx="173.2" cy="75.47" r="5.37"/></clipPath></defs><path class="cls-2" d="M194.43,87.46c3.17.25,7.56-.76,12.13-3.23s11.05-7,15.44-6.32S236.05,79,254.57,94.29c0,0-10-.37-14.29,7.58,0,0-12-4.84-20.93,4.84,0,0-10.86-6.85-28.78,6.68,0,0-3.91-.46-8.49,3.83V87.59S191.26,87.21,194.43,87.46Z"/><path class="cls-3" d="M194.43,87.46c3.17.25,7.56-.76,12.13-3.23s11.05-7,15.44-6.32S236.05,79,254.57,94.29c-25.1-17.73-33.67-14.58-33.67-14.58a51,51,0,0,1,19.38,22.16c-3.57-7.49-16.09-19.65-21.48-22.16,3.75,18.61.55,27,.55,27,1.37-15.71-1.55-25.86-2.28-26.06s-14,8.06-15.39,8.34-6.36.18-9.56,1.55-10,.69-10,.69V87.59S191.27,87.21,194.43,87.46Z"/><path class="cls-4" d="M219.58,77.91a2.52,2.52,0,0,0-3.1-1.24c.57.65,1.17,1.15.79,2Z"/><path class="cls-2" d="M169.86,87.46c-3.17.25-7.55-.76-12.12-3.23s-11.06-7-15.45-6.32-14,1.11-32.56,16.38c0,0,10-.37,14.28,7.58,0,0,12-4.84,20.93,4.84,0,0,10.87-6.85,28.79,6.68,0,0,3.91-.46,8.49,3.83V87.59S173,87.21,169.86,87.46Z"/><path class="cls-3" d="M169.86,87.46c-3.17.25-7.55-.76-12.12-3.23s-11.06-7-15.45-6.32-14,1.11-32.56,16.38c25.09-17.73,33.66-14.58,33.66-14.58A50.9,50.9,0,0,0,124,101.87c3.56-7.49,16.08-19.65,21.47-22.16-3.75,18.61-.55,27-.55,27-1.37-15.71,1.56-25.86,2.29-26.06s14,8.06,15.38,8.34,6.37.18,9.57,1.55,10,.69,10,.69V87.59C182.16,87.59,173,87.21,169.86,87.46Z"/><path class="cls-4" d="M144.72,77.91a2.52,2.52,0,0,1,3.1-1.24c-.58.65-1.18,1.15-.8,2Z"/><path class="cls-3" d="M191.2,108.32a22,22,0,0,1,2.66,2.45,6.63,6.63,0,0,1,1.58,7.63,24.27,24.27,0,0,1-1.49,4s1.19,1.56,1.26,1.7a4.4,4.4,0,0,1,.48,3.3.25.25,0,0,1-.47,0c-.13-.43-.24-.86-.4-1.28a3.2,3.2,0,0,0-.7-1.14.25.25,0,0,0-.42.19,6.06,6.06,0,0,1-.11,2,3.28,3.28,0,0,1-.9,1.6.24.24,0,0,1-.41-.21,9.07,9.07,0,0,0,.06-2.94.24.24,0,0,0-.47,0,3.11,3.11,0,0,1-2.08,2,.24.24,0,0,1-.27-.35c.23-.44.5-1.12.56-1.25.46-1.06.27-2.12.95-3.09.4-.57.57-.73,1.26-.75,1.16-2.12,2.2-4.72,1.88-7.19a4.36,4.36,0,0,0-1.31-2.67,5.09,5.09,0,0,0-1.51-.93c-.25-.1-2-.74-2.14-.52Z"/><path class="cls-3" d="M194,98.54a39.83,39.83,0,0,1-2.22-7.05c-.94-4.21-5.81-4.77-9.46-4.24-3.65-.53-8.51,0-9.45,4.24a39.83,39.83,0,0,1-2.22,7.05c-3.37,8,4.21,16,11.67,17.66C189.82,114.59,197.41,106.59,194,98.54Z"/><path class="cls-3" d="M189,62.43s1.37-11.75,18.2-13.9A1.71,1.71,0,0,1,209.11,50c.65,5.21,1.54,21-11.32,22.35C188.67,70.52,189,62.43,189,62.43Z"/><path class="cls-5" d="M189,62.43s1.37-11.75,18.2-13.9A1.71,1.71,0,0,1,209.11,50s-3.88-1.93-11.32,3.3-6.58,15.36-6.58,15.36h0A10.14,10.14,0,0,1,189,62.43Z"/><path class="cls-5" d="M197.79,53.31a6.82,6.82,0,0,1,1.85-.66,10.09,10.09,0,0,1,2-.23,9.39,9.39,0,0,1,2,.22,7.06,7.06,0,0,1,1.85.67c-.65-.11-1.28-.25-1.91-.31a12.28,12.28,0,0,0-1.91-.09,15.18,15.18,0,0,0-1.91.1Q198.75,53.11,197.79,53.31Z"/><path class="cls-5" d="M194,57.38a11.64,11.64,0,0,1,3-.89,13.47,13.47,0,0,1,3.11-.13,9.67,9.67,0,0,1,3,.86,7.12,7.12,0,0,1,2.4,2,9.59,9.59,0,0,0-2.56-1.61,10,10,0,0,0-2.91-.71,15.14,15.14,0,0,0-3,0A20.6,20.6,0,0,0,194,57.38Z"/><path class="cls-5" d="M192,61.91a6.68,6.68,0,0,1,2-.78,7.72,7.72,0,0,1,2.2-.14,6.61,6.61,0,0,1,2.14.54,6.22,6.22,0,0,1,1.8,1.22,11.19,11.19,0,0,0-1.94-.87,7.47,7.47,0,0,0-2-.41,9.14,9.14,0,0,0-2.09,0A14.15,14.15,0,0,0,192,61.91Z"/><path class="cls-3" d="M175.73,62.43s-1.38-11.75-18.21-13.9a1.7,1.7,0,0,0-1.9,1.48c-.65,5.21-1.55,21,11.32,22.35C176.05,70.52,175.73,62.43,175.73,62.43Z"/><path class="cls-5" d="M175.73,62.43s-1.38-11.75-18.21-13.9a1.7,1.7,0,0,0-1.9,1.48s3.88-1.93,11.32,3.3,6.58,15.36,6.58,15.36h0A10.22,10.22,0,0,0,175.73,62.43Z"/><path class="cls-5" d="M166.94,53.31c-.65-.13-1.28-.23-1.92-.3a15.28,15.28,0,0,0-1.91-.1,12.22,12.22,0,0,0-1.91.09c-.64.06-1.26.2-1.91.31a7.06,7.06,0,0,1,1.85-.67,9.29,9.29,0,0,1,2-.22,10,10,0,0,1,2,.23A6.88,6.88,0,0,1,166.94,53.31Z"/><path class="cls-5" d="M170.78,57.38a20.83,20.83,0,0,0-3-.52,15.24,15.24,0,0,0-3,0,10,10,0,0,0-2.9.71,9.59,9.59,0,0,0-2.56,1.61,7.12,7.12,0,0,1,2.4-2,9.54,9.54,0,0,1,3-.86,13.55,13.55,0,0,1,3.12.13A11.64,11.64,0,0,1,170.78,57.38Z"/><path class="cls-5" d="M172.75,61.91a13.78,13.78,0,0,0-2.09-.41,9.14,9.14,0,0,0-2.09,0,7.62,7.62,0,0,0-2,.41,11.91,11.91,0,0,0-1.94.87,6.41,6.41,0,0,1,1.81-1.22,6.55,6.55,0,0,1,2.14-.54,7.65,7.65,0,0,1,2.19.14A6.58,6.58,0,0,1,172.75,61.91Z"/><path class="cls-2" d="M200,78.43a32.85,32.85,0,0,0-2-9.22c-1-2.73-1.72-5.35-4.51-6.65-3.45-1.61-7.39-1.74-11.2-1.76h0c-3.81,0-7.74.15-11.19,1.76-2.8,1.3-3.56,3.92-4.51,6.65a32.85,32.85,0,0,0-1.95,9.22c-.11,2.44.24,5.09,1.92,6.85a13,13,0,0,0,3.56,2.3c1.95,1,3.81,2.21,5.8,3.15a14.36,14.36,0,0,0,12.74,0c2-.94,3.86-2.13,5.81-3.15a13,13,0,0,0,3.55-2.3C199.78,83.52,200.13,80.87,200,78.43Z"/><path class="cls-3" d="M187.55,80.35a3.76,3.76,0,0,1-1.69-2.29A2.78,2.78,0,0,0,184,75.75a10.92,10.92,0,0,0-1.61-.28,10.59,10.59,0,0,0-1.6.28,2.75,2.75,0,0,0-1.89,2.31,3.8,3.8,0,0,1-1.69,2.29c-1,.72-2.13,1.21-2,2.63a2.8,2.8,0,0,0,.64,1.66c1.27,1.46,3.56.94,5.33.25a3.5,3.5,0,0,1,2.51,0c1.77.69,4,1.21,5.32-.25a2.8,2.8,0,0,0,.64-1.66C189.67,81.56,188.54,81.07,187.55,80.35Z"/><circle class="cls-1" cx="191.53" cy="75.47" r="5.37"/><g class="cls-6"><path class="cls-7" d="M189.61,72.57a3.92,3.92,0,1,0,3.91,3.91A3.92,3.92,0,0,0,189.61,72.57Zm2.09,3.69a1.19,1.19,0,1,1,1.19-1.19A1.19,1.19,0,0,1,191.7,76.26Z"/></g><path class="cls-4" d="M184.21,79.64s.58,4.71,2.36,3.46C187.89,82.17,184.21,79.64,184.21,79.64Z"/><path class="cls-5" d="M182.36,86.54a24.14,24.14,0,0,1-11.48-2.74s4,6.49,11.48,6.56,11.49-6.56,11.49-6.56A24.17,24.17,0,0,1,182.36,86.54Z"/><circle class="cls-1" cx="173.2" cy="75.47" r="5.37"/><g class="cls-8"><path class="cls-7" d="M171.38,72.52a3.92,3.92,0,1,0,3.92,3.91A3.91,3.91,0,0,0,171.38,72.52Zm2.09,3.69A1.19,1.19,0,1,1,174.66,75,1.19,1.19,0,0,1,173.47,76.21Z"/></g><path class="cls-4" d="M180.52,79.64s-.58,4.71-2.36,3.46C176.84,82.17,180.52,79.64,180.52,79.64Z"/><path class="cls-5" d="M172.75,67.42a8.4,8.4,0,0,1,4.61,3.84.48.48,0,0,0,.91-.27c-.13-2.06-1.14-4.69-5.37-4.51A.49.49,0,0,0,172.75,67.42Z"/><path class="cls-5" d="M187.35,70.58a8.43,8.43,0,0,1,5.21-3,.49.49,0,0,0,.07-1c-2-.6-4.79-.58-6.11,3.45A.49.49,0,0,0,187.35,70.58Z"/><path class="cls-1" d="M187.61,86a8.07,8.07,0,0,1-1.41,2.19A.73.73,0,0,1,185,88a5.11,5.11,0,0,0-.75-1.47A24.29,24.29,0,0,0,187.61,86Z"/><path class="cls-1" d="M177.11,86a8,8,0,0,0,1.42,2.19.73.73,0,0,0,1.24-.27,4.86,4.86,0,0,1,.75-1.47A24.54,24.54,0,0,1,177.11,86Z"/><path class="cls-3" d="M173.53,108.32a20.59,20.59,0,0,0-2.66,2.45,7.87,7.87,0,0,0-2,3.34,7.69,7.69,0,0,0,.41,4.29,23.41,23.41,0,0,0,1.49,4s-1.19,1.56-1.27,1.7a4.39,4.39,0,0,0-.47,3.3.24.24,0,0,0,.46,0c.14-.43.25-.86.41-1.28a3.2,3.2,0,0,1,.7-1.14.24.24,0,0,1,.41.19,6.06,6.06,0,0,0,.12,2,3.34,3.34,0,0,0,.89,1.6.25.25,0,0,0,.42-.21,8.54,8.54,0,0,1-.06-2.94.24.24,0,0,1,.46,0,3.13,3.13,0,0,0,2.09,2,.24.24,0,0,0,.27-.35,12.89,12.89,0,0,1-.56-1.25c-.47-1.06-.28-2.12-1-3.09-.4-.57-.57-.73-1.27-.75-1.15-2.12-2.19-4.72-1.87-7.19a4.4,4.4,0,0,1,1.3-2.67,5.22,5.22,0,0,1,1.51-.93c.26-.1,2-.74,2.14-.52Z"/><path class="cls-2" d="M169.36,70s7.1,5.28,9.55,5.49c0,0-.69-4.16-3.3-6.08S169.36,70,169.36,70Z"/><path class="cls-2" d="M195,70s-7.09,5.28-9.55,5.49c0,0,.7-4.16,3.31-6.08S195,70,195,70Z"/></svg>