<svg id="Layer_2" data-name="Layer 2" xmlns="http://www.w3.org/2000/svg" xmlns:xlink="http://www.w3.org/1999/xlink" viewBox="0 0 260 168"><defs><style>.cls-1{fill:#9a57c2;}.cls-2{clip-path:url(#clip-path);}.cls-3{fill:#c57ff0;}.cls-4{fill:#703395;}.cls-5{fill:#fff;}.cls-6{fill:#231f20;}.cls-7{fill:#45046e;}.cls-8{fill:none;stroke:#703395;stroke-linecap:round;stroke-linejoin:round;stroke-width:1.26px;}</style><clipPath id="clip-path"><path class="cls-1" d="M97,109s2.37-5.83,7.48-6.46,5.84-1.44,13.62,5.09,14.06-5.47,25.43-13.89c0,0,2.77-2.14-3.17-1.83S126,90.64,125.68,82.16c0,0,2.31-4.71-4.13-2.58S101.93,72.83,102.13,68,99,66.21,99.07,70.31A16.87,16.87,0,0,0,96.37,74c-1.52,2.62-1.56,7-1.56,7s-7,11.14-2.39,23.19c0,0,.11,4,3.74,5Z"/></clipPath></defs><path class="cls-1" d="M110,85.92c-.13.16-2.58-2.57-2.81-2.82a8.62,8.62,0,0,1-2-3.76,8.47,8.47,0,0,1,.64-4.7,25.72,25.72,0,0,1,1.83-4.37s-1.24-1.78-1.32-1.93a4.89,4.89,0,0,1-.36-3.65.27.27,0,0,1,.51,0c.13.48.23,1,.39,1.42a3.55,3.55,0,0,0,.71,1.29.26.26,0,0,0,.46-.19,7,7,0,0,1,.22-2.14,3.68,3.68,0,0,1,1.06-1.71.26.26,0,0,1,.44.25,10,10,0,0,0-.2,3.23.27.27,0,0,0,.51.07,3.44,3.44,0,0,1,2.39-2.16.27.27,0,0,1,.28.4c-.28.48-.61,1.21-.68,1.35-.56,1.15-.39,2.31-1.18,3.35-.47.61-.66.78-1.43.77-1.37,2.28-2.63,5.08-2.39,7.8a4.81,4.81,0,0,0,1.31,3A5.43,5.43,0,0,0,110,82.52c.27.13,2.13.91,2.33.67Z"/><path class="cls-1" d="M97.8,96.16A44.89,44.89,0,0,1,99.91,104c.83,4.66,6.15,5.5,10.19,5.08,4,.76,9.36.37,10.59-4.21a43.91,43.91,0,0,1,2.76-7.65c4.08-8.69-3.89-17.82-12-19.94C103.17,78.73,94.47,87.16,97.8,96.16Z"/><path class="cls-1" d="M115.83,86.87c.12.17,2.79-2.34,3-2.57a8.63,8.63,0,0,0,2.33-3.58A8.39,8.39,0,0,0,121,76a25.33,25.33,0,0,0-1.45-4.52s1.39-1.66,1.47-1.81a4.81,4.81,0,0,0,.68-3.61.27.27,0,0,0-.51,0c-.17.46-.31.94-.51,1.39a3.46,3.46,0,0,1-.82,1.22.26.26,0,0,1-.44-.23,7,7,0,0,0,0-2.15,3.68,3.68,0,0,0-.91-1.8.27.27,0,0,0-.46.22,9.72,9.72,0,0,1-.08,3.23.26.26,0,0,1-.51,0,3.45,3.45,0,0,0-2.2-2.35.26.26,0,0,0-.31.37c.24.5.5,1.26.56,1.41.46,1.18.2,2.33.9,3.43.41.65.59.83,1.36.89,1.17,2.38,2.19,5.28,1.72,8a4.74,4.74,0,0,1-1.56,2.87,5.27,5.27,0,0,1-1.7,1c-.29.11-2.2.73-2.37.47Z"/><path class="cls-1" d="M97,109s2.37-5.83,7.48-6.46,5.84-1.44,13.62,5.09,14.06-5.47,25.43-13.89c0,0,2.77-2.14-3.17-1.83S126,90.64,125.68,82.16c0,0,2.31-4.71-4.13-2.58S101.93,72.83,102.13,68,99,66.21,99.07,70.31A16.87,16.87,0,0,0,96.37,74c-1.52,2.62-1.56,7-1.56,7s-7,11.14-2.39,23.19c0,0,.11,4,3.74,5Z"/><g class="cls-2"><path class="cls-3" d="M145.69,90.8s-6.43.2-11.58,7.19-14.24,14.59-13.68,5.21S127.6,78,127.6,78Z"/><path class="cls-3" d="M126,76s-5.37.87-7,14.89-7.52,11.12-13.18,11.66-7.88,2.63-9.2,2.75c-6.91.65,2.26-27.47,6.85-39.8S126,76,126,76Z"/></g><path class="cls-1" d="M101.66,136.07s-2,12.85-20.64,14.43a1.88,1.88,0,0,1-2-1.72c-.47-5.75-.72-23.13,13.47-24C102.4,127.19,101.66,136.07,101.66,136.07Z"/><path class="cls-4" d="M101.66,136.07s-2,12.85-20.64,14.43a1.88,1.88,0,0,1-2-1.72s4.18,2.3,12.59-3.1,7.94-16.57,7.94-16.57h0A11.14,11.14,0,0,1,101.66,136.07Z"/><path class="cls-4" d="M91.58,145.68a7.91,7.91,0,0,1-2.07.65,9.83,9.83,0,0,1-2.17.15,8.9,8.9,0,0,1-4.17-1.15c.71.15,1.39.33,2.09.42a16.57,16.57,0,0,0,2.1.2A21.48,21.48,0,0,0,91.58,145.68Z"/><path class="cls-4" d="M96,141.39a13.24,13.24,0,0,1-3.29.83,12.71,12.71,0,0,1-3.43,0A9.9,9.9,0,0,1,86,141.15a7.93,7.93,0,0,1-2.55-2.26,10.94,10.94,0,0,0,2.73,1.89,12,12,0,0,0,3.16.91,17.54,17.54,0,0,0,3.32.13A25.29,25.29,0,0,0,96,141.39Z"/><path class="cls-4" d="M98.37,136.5a7.52,7.52,0,0,1-2.27.77,8.17,8.17,0,0,1-2.42,0,7.1,7.1,0,0,1-4.25-2.12,13.18,13.18,0,0,0,2.09,1.05,9.08,9.08,0,0,0,2.23.54A12.69,12.69,0,0,0,98.37,136.5Z"/><path class="cls-1" d="M116.24,136.69s1,13,19.36,16.11a1.88,1.88,0,0,0,2.16-1.54c1-5.69,2.67-23-11.4-25.08C116.26,127.78,116.24,136.69,116.24,136.69Z"/><path class="cls-4" d="M116.24,136.69s1,13,19.36,16.11a1.88,1.88,0,0,0,2.16-1.54s-4.35,1.94-12.28-4.15S119,129.93,119,129.93h0A11.23,11.23,0,0,0,116.24,136.69Z"/><path class="cls-4" d="M125.48,147.11a21.54,21.54,0,0,0,4.18.62,16.53,16.53,0,0,0,2.11,0c.7,0,1.39-.15,2.11-.25a8.69,8.69,0,0,1-4.24.8,9.25,9.25,0,0,1-2.16-.33A7.59,7.59,0,0,1,125.48,147.11Z"/><path class="cls-4" d="M121.44,142.46a23.85,23.85,0,0,0,3.29.71,18.36,18.36,0,0,0,3.31.16,11.81,11.81,0,0,0,3.23-.65,10.91,10.91,0,0,0,2.88-1.65,8,8,0,0,1-2.73,2,9.67,9.67,0,0,1-3.35.8,13.85,13.85,0,0,1-6.63-1.4Z"/><path class="cls-4" d="M119.49,137.39a12.63,12.63,0,0,0,4.57.68,9.19,9.19,0,0,0,2.27-.36,11.71,11.71,0,0,0,2.17-.87,6.7,6.7,0,0,1-2,1.26,6.89,6.89,0,0,1-2.37.51,8.15,8.15,0,0,1-2.41-.27A6.91,6.91,0,0,1,119.49,137.39Z"/><path class="cls-3" d="M90.3,118A35.94,35.94,0,0,0,92,128.2c.92,3,1.64,6,4.65,7.52,3.72,1.92,8,2.25,12.21,2.45h0c4.18.16,8.51.19,12.38-1.41,3.13-1.3,4.08-4.15,5.26-7.11a36,36,0,0,0,2.57-10c.23-2.67,0-5.6-1.8-7.61a14.45,14.45,0,0,0-3.8-2.69c-2.09-1.21-4.08-2.61-6.23-3.73a15.82,15.82,0,0,0-14-.59c-2.23.94-4.33,2.16-6.52,3.2a14.24,14.24,0,0,0-4,2.35C90.79,112.4,90.29,115.29,90.3,118Z"/><path class="cls-1" d="M104.08,116.45a4.19,4.19,0,0,1,1.76,2.59,3,3,0,0,0,2,2.63,11.36,11.36,0,0,0,1.75.38,11.15,11.15,0,0,0,1.78-.23,3,3,0,0,0,2.18-2.46,4.2,4.2,0,0,1,2-2.43c1.12-.75,2.39-1.24,2.35-2.8a3,3,0,0,0-.62-1.85c-1.33-1.67-3.86-1.19-5.84-.52a3.76,3.76,0,0,1-2.76-.12c-1.91-.83-4.4-1.52-5.86,0a3.07,3.07,0,0,0-.78,1.8C101.81,115,103,115.61,104.08,116.45Z"/><circle class="cls-5" cx="99.49" cy="121.62" r="5.91"/><circle class="cls-6" cx="99.49" cy="121.62" r="4.3"/><circle class="cls-6" cx="99.49" cy="121.62" r="2.55"/><circle class="cls-5" cx="97.13" cy="123.08" r="1.31"/><path class="cls-7" d="M107.72,117.39s-.42-5.2-2.43-3.92C103.8,114.43,107.72,117.39,107.72,117.39Z"/><path class="cls-4" d="M110.07,109.89a26.52,26.52,0,0,1,12.49,3.54s-4.33-3.51-12.6-3.93-12.63,2.87-12.63,2.87A26.45,26.45,0,0,1,110.07,109.89Z"/><circle class="cls-5" cx="119.62" cy="122.47" r="5.91"/><circle class="cls-6" cx="119.62" cy="122.47" r="4.3"/><circle class="cls-6" cx="119.62" cy="122.47" r="2.55"/><circle class="cls-5" cx="117.26" cy="123.93" r="1.31"/><path class="cls-7" d="M111.78,117.56s.85-5.15,2.75-3.7C115.93,114.94,111.78,117.56,111.78,117.56Z"/><path class="cls-4" d="M122.5,130.23a9.35,9.35,0,0,1-6.59-.18.53.53,0,0,0-.61.85c1.52,1.69,4.17,3.28,7.71.24A.53.53,0,0,0,122.5,130.23Z"/><path class="cls-4" d="M102.36,129.38a9.35,9.35,0,0,1-6.59-.18.53.53,0,0,0-.61.85c1.52,1.69,4.17,3.28,7.71.24A.53.53,0,0,0,102.36,129.38Z"/><path class="cls-5" d="M104.28,110.19a8.78,8.78,0,0,1,1.65-2.34.82.82,0,0,1,1.35.35,5.69,5.69,0,0,0,.75,1.66A27.05,27.05,0,0,0,104.28,110.19Z"/><path class="cls-5" d="M115.81,110.68a8.72,8.72,0,0,0-1.45-2.47.81.81,0,0,0-1.37.23,5.94,5.94,0,0,1-.89,1.59A26.85,26.85,0,0,1,115.81,110.68Z"/><circle class="cls-3" cx="119.6" cy="122.64" r="6.45"/><circle class="cls-3" cx="99.37" cy="121.78" r="6.45"/><path class="cls-8" d="M125.64,122.14s-6.12,3-11.49-.75"/><path class="cls-8" d="M104.67,121.25s-6.11,3-11.48-.75"/><path d="M82.43,91.51c-.45.08-1,.15-1.67.21s-1.49.11-2.48.14l-.7,0-2.83,0c-.88,0-1.65,0-2.3,0l-.08-2.54,5.22-6.52L72.71,83l-.07-2.46L82,80.27l.07,2.29L76.4,89.27l.47,0,.61,0,.75,0,1.13-.06,1.11,0c.38,0,.73,0,1-.07s.59-.07.84-.11Z"/><path d="M81.08,73.24c-.69.05-1.54.08-2.55.07s-2.26-.07-3.75-.18l-1.07-.08c-1.52-.13-2.94-.27-4.27-.4S67,72.41,66,72.34l.28-3.84,8.87-9-7.38-.53L68,55.2l14.2,1L82,59.69l-9.62,9.25.72,0L74,69l1.15.08q.87,0,1.71.09l1.68.12c.58,0,1.11.06,1.58,0s.9,0,1.28,0Z"/><path d="M85.52,107.91q-.45.2-1.14.42c-.45.15-1,.31-1.71.49l-.5.13-2,.47-1.62.39L78.11,108l2.61-5.43-3.4.89-.45-1.72,6.55-1.71.41,1.6-2.91,5.64.33-.1.42-.12.53-.13c.26-.09.52-.16.78-.23l.77-.2c.27-.07.51-.14.73-.22l.57-.21Z"/></svg>