<svg id="Layer_1" data-name="Layer 1" xmlns="http://www.w3.org/2000/svg" width="370" height="310" viewBox="0 0 352.65 221.99"><defs><style>.cls-1{fill:#db9a00;}.cls-2{fill:#262626;}.cls-3{fill:#00a6b2;}.cls-4{fill:#da9b03;}.cls-5{fill:#2a2825;}.cls-6{fill:#d79d0b;}.cls-7{fill:#bda93c;}.cls-8{fill:#fefefe;}.cls-9{fill:#ae9f2b;}.cls-10{fill:#17595e;}.cls-11{fill:#fdfdfd;}</style></defs><title>16_the_happy_fish_dances</title><path class="cls-1" d="M226,118.29a16.46,16.46,0,0,0,.4,3.07c.33.74.08,1.59.46,2.31,0,.42-.47.89.14,1.25a4.12,4.12,0,0,0,.24,2.14c-.39,1.29.07,2.56.1,3.83A104.57,104.57,0,0,1,227,145.7c-1.44,2-2.41,4.23-3.92,6.16-.79,1-.77,1.1.5,1.45,5.18,1.42,10.31,3,15.42,4.68,10,3.2,19.94,6.58,29.76,10.31,8.58,3.26,17.07,6.72,25.39,10.6q6.64,3.09,13.07,6.67a140.63,140.63,0,0,1,12,7.54,11.49,11.49,0,0,1,4,4,72.34,72.34,0,0,1-8,5.4,79.07,79.07,0,0,1-12.61,6.05c-.38.07-.68.38-1.08.4l-8.86,2.81c-2.1-1.93-3.88-4.16-6.08-6-3.56-3-7-6.05-10.66-9-3.1-2.51-6.31-4.87-9.43-7.37-4.19-3.35-8.61-6.42-13-9.55-2.51-1.8-4.9-3.79-7.51-5.43-4-2.5-7.65-5.44-11.6-8-3.35-2.16-6.62-4.44-10-6.55-1.73-1.08-3.44-2.21-5.25-3.15a1.47,1.47,0,0,0-1.81.17c-2.37,1.88-2.46,1.88-1.54,4.79,1.33,4.21,2.68,8.42,4.09,12.61,1.35,4,2.54,8.06,3.93,12.05,1.54,4.44,3.07,8.89,4.63,13.33s3.23,8.94,4.95,13.36c1.87,4.83,3.78,9.65,6.1,14.29a24.74,24.74,0,0,0,3.57,5.81,1.77,1.77,0,0,1,.56,1c-2.52,3.8-5.31,7.41-8,11.07-1,1.32-2.16,2.47-3,3.88-.22.43-.5.82-.75,1.23a16.64,16.64,0,0,0-2.76,3.47c-.41.19-.55.59-.77.94l-2.55,2.94a13.36,13.36,0,0,0-.76,1.15c-2.89,3-5.41,6.28-8.16,9.38a83.74,83.74,0,0,1-12.74,11.53c-.86.64-1.85,1.13-2.77,1.68-.7-.82-.45-1.82-.43-2.73.15-7.27.11-14.55.28-21.82.15-6.47.53-12.92.75-19.39.17-5,.53-10.07.94-15.08.52-6.26,1.08-12.51,1.83-18.75.89-7.42,2-14.81,3.29-22.15.53-2.89,1.17-5.77,1.74-8.66.78-3.95,1.17-8,2-12.17-1.51,1-3,1.34-4.27,2.18-.51.33-1.06.72-1.67.15a2.43,2.43,0,0,0-1.86-3,60.31,60.31,0,0,0-13.75-2.27c-2.86-.17-5.71-.49-8.58-.61-2.34-.1-4.68,0-7,0-3.51,0-7-.1-10.54.1-4,.23-8.1.14-12.09,1.1a62.06,62.06,0,0,1-6.39.88,7.63,7.63,0,0,1-2.24.2c-2.73.13-5.43.64-8.17.54-4-.13-7.92-.07-11.84-.56-3.6-.45-7.23-.87-10.77-1.66s-7.23-1.9-10.8-3.06a119.21,119.21,0,0,1-14-5.68c-2.46-1.16-4.83-2.45-7.17-3.83a5,5,0,0,0-.91-.44l-4.62-3c-.44-.15-.76-.55-1.23-.63-2.62-1.92-5.31-3.76-7.85-5.77a119.8,119.8,0,0,1-11-10.23,136.1,136.1,0,0,1-11.83-13.4c-2.64-3.5-5.4-6.91-7.71-10.65-.92-1.5-1.94-2.94-2.91-4.41a3.48,3.48,0,0,0-.4-.81A174.52,174.52,0,0,1,19.72,72c.06-.49-.31-.83-.44-1.25l-.72-1.51c.07-.49-.33-.83-.43-1.26a94.83,94.83,0,0,1-3.5-9c-1.1-3.13-2.15-6.29-3.23-9.43a4,4,0,0,0-.62-1.33C9,45.88,7.1,43.71,5.57,41.29S1.65,36.7.66,33.82C-.87,29.34.06,24.9,5.57,24a4.7,4.7,0,0,0,2.21-.83.68.68,0,0,1,.52.18c1.93,2,4.37,3.32,6.67,4.83A29.55,29.55,0,0,0,23.46,32a53.5,53.5,0,0,1-11.91-6.38A19.83,19.83,0,0,1,8.3,22.5c-.42-4.92,2.77-10.67,7.7-12,.81-.22,1.65-.36,2.45-.65s1.54,0,2.25-.42L22,9.32c.5.21,1-.12,1.51,0,2.36-.14,4.77.28,7.08-.45,1.9-.6,3.73-1.41,5.63-2A136.83,136.83,0,0,1,52.43,2.77c.56-.22,1.21-.05,1.75-.37l1-.17c.44-.3,1-.07,1.46-.39C61.56,1.31,66.42.56,71.3.32A110,110,0,0,1,82.92.13,8.52,8.52,0,0,0,84.25,0c.39.17.8,0,1.2.13,3.45.39,6.93.39,10.36.9s6.63,1,9.89,1.76c2.39.56,4.81,1,7.17,1.66,2.73.78,5.4,1.75,8.09,2.65a123.07,123.07,0,0,1,13.5,5.79c2.58,1.22,5.09,2.59,7.59,4a4.52,4.52,0,0,0,2.79.71,3.24,3.24,0,0,1,2.21,0,81,81,0,0,1,14.32,5.22A151.82,151.82,0,0,1,177.49,31a184.4,184.4,0,0,1,16.12,10.7,131.88,131.88,0,0,1,13,11.08c1,.92,1.78,2,2.7,2.95.26.27.54.56.39,1a37.35,37.35,0,0,0-7.93,6.42,1.36,1.36,0,0,0-.13,2.1A106.29,106.29,0,0,1,209,76.18a144.11,144.11,0,0,1,7.9,15.46c1,2.38,2.12,4.71,3.07,7.11,1.33,3.36,2.78,6.69,3.76,10.16.74,2.6,1.35,5.27,1.89,7.94C225.92,117.28,225.67,117.86,226,118.29Z"/><path class="cls-2" d="M243.71,234.11c-2.27-1.8-3.27-4.47-4.58-6.89S237,222.44,236,220c-1.36-3.22-2.71-6.44-3.88-9.75-1-2.77-2.13-5.49-3.09-8.27-1.48-4.28-3-8.53-4.5-12.82s-2.93-8.72-4.35-13.09c-1.82-5.59-3.61-11.19-5.43-16.78a.9.9,0,0,1,.48-1.27,6.35,6.35,0,0,0,1.94-1.4c.75-.94,1.36-.8,2.26-.26,3.88,2.33,7.71,4.74,11.48,7.26,4.39,2.94,8.73,6,13.08,9s8.72,6.17,13,9.3q7.57,5.48,14.94,11.23c4.62,3.61,9.18,7.28,13.59,11.16,2.13,1.87,4.15,3.82,6.1,5.85.44.46,1.05.85,1.1,1.6-4.62,1.35-9.39,2-14.07,3-.69.47-1.58.08-2.28.53-4,.4-7.84,1.55-11.83,1.9a4.36,4.36,0,0,1-2,.23,35.52,35.52,0,0,1-4.44.39,4.51,4.51,0,0,0-4.16,2.27c-1,1.49-2.18,2.89-3.28,4.32-.23.42-.53.79-.73,1.22-1.61,1.33-2.24,3.36-3.51,4.94-.14.47-.58.78-.71,1.26C245,232.49,245.17,234.06,243.71,234.11Z"/><path class="cls-3" d="M205.91,163a2.28,2.28,0,0,0,1.33-.31c1.43-.81,2.89-1.56,4.35-2.32.18-.09.35-.36.62-.18s.07.42,0,.63c-.75,3.46-1.2,7-1.75,10.45s-1.37,7-2,10.5c-1.17,6.18-2,12.4-2.85,18.64-.89,6.83-1.51,13.68-2.1,20.54s-1,13.64-1.31,20.47-.56,13.88-.64,20.82c-.07,6.39-.09,12.78-.14,19.17-5.58,4.93-11.89,8.25-19.46,8.79-.46-.3-1,.12-1.43-.1-1-.23-2.29-.2-2-1.85-.29-.83-.06-1.75-.47-2.55a97.08,97.08,0,0,1-.48-13.42c.2-7.19.73-14.37,1.48-21.53.62-5.89,1.37-11.77,2.08-17.65.6-4.9,1.41-9.77,1.82-14.71a70,70,0,0,1,2.45-12.45,129.45,129.45,0,0,1,5.9-17.08c.87-2,1.79-4.07,2.85-6,.84-1.57,1.53-3.23,2.44-4.78.06-.32.35-.55.36-.88,1.22-2.11,2.48-4.2,3.66-6.32,1.3-2.34,2.92-4.47,4.26-6.77A6.15,6.15,0,0,1,205.91,163Z"/><path class="cls-3" d="M323.25,197.08c-4-4-8.82-6.9-13.68-9.75q-5.11-3-10.41-5.62c-3.77-1.87-7.57-3.68-11.48-5.27-3-1.21-5.91-2.61-8.9-3.82q-6.08-2.47-12.23-4.79-5.08-1.92-10.22-3.67-7.48-2.56-15-5c-4.56-1.48-9.13-2.9-13.71-4.32-1.91-.59-3.84-1.13-5.88-1.73a38.72,38.72,0,0,0,4.12-6.44c.27-.52.8-.61,1.16-1,1.13.52,2.33.12,3.48.14A243,243,0,0,1,257.59,148a218.24,218.24,0,0,1,25.28,4.79c.49.13,1.06-.15,1.48.3a10.5,10.5,0,0,0,1.31.27,98.66,98.66,0,0,1,13.45,3.94c4.38,1.51,8.65,3.32,12.89,5.18,1,.44,1.89,1.07,2.93,1.42a134.46,134.46,0,0,1,12.06,7c3.18,2.11,6.07,4.54,9,6.92a2.22,2.22,0,0,1,.92,1.84,8.59,8.59,0,0,1-.36,1.67,25.15,25.15,0,0,1-3.43,6.12c-.22.42-.51.81-.74,1.23-2.11,2.15-4.09,4.44-6.34,6.45A20.05,20.05,0,0,1,323.25,197.08Z"/><path class="cls-3" d="M232.92,49.68l-4.17.41a79.33,79.33,0,0,0-10.21-7.23c-4.48-2.83-9-5.61-13.7-8.09s-9.6-5-14.55-7.18a145.11,145.11,0,0,0-19.75-7.28A84.85,84.85,0,0,0,155,17.38a62.86,62.86,0,0,0-8.25.13c-.52,0-1.05.15-1.45-.34A20.54,20.54,0,0,1,152,14.52c6-1.57,12.12-1.2,18.22-.53.78.08,1.51.59,2.34.29.34.28.78,0,1.14.21,1.82.7,3.78.78,5.65,1.3,3.17.88,6.36,1.7,9.52,2.65,3.84,1.16,7.66,2.38,11.4,3.81,3.51,1.34,7,2.67,10.5,4.11,3.31,1.37,6.6,2.84,9.85,4.35,2.38,1.1,4.71,2.3,7,3.55,2.84,1.54,5.64,3.17,8.45,4.76.32.12.57.39.92.44l1.84,1.27c.45.18.8.52,1.25.71A73.26,73.26,0,0,1,247,46.83a11.87,11.87,0,0,1,1,1.08,1.16,1.16,0,0,1,.28,1.27c-.24.5-.73.23-1.2.19a51.27,51.27,0,0,0-11.84,0A5,5,0,0,0,232.92,49.68Z"/><path class="cls-2" d="M145.34,17.17c1.15.44,2.27-.05,3.4-.13a61.07,61.07,0,0,1,19.11,2.16,130,130,0,0,1,16.49,5.49c5.52,2.19,10.89,4.73,16.18,7.42,3.78,1.92,7.48,4,11.13,6.17,5.31,3.15,10.48,6.48,15.51,10.06a3.49,3.49,0,0,1,1.6,1.75c-6.51,1.24-12.79,3.09-18.5,6.58a1.43,1.43,0,0,1-.55.07,92.75,92.75,0,0,0-15.45-14.13c-2.58-1.92-5.15-3.84-7.83-5.62-4.16-2.77-8.45-5.31-12.83-7.73-2.55-1.41-5.14-2.73-7.75-4a119.69,119.69,0,0,0-13.3-5.65,34.77,34.77,0,0,0-7.7-2C144.85,17.23,145.26,17.4,145.34,17.17Z"/><path class="cls-4" d="M336.68,179.53a3.19,3.19,0,0,0-1.21-1.79,80.88,80.88,0,0,0-10.38-7.83,62.69,62.69,0,0,0-8.33-4.72,18.31,18.31,0,0,1-1.94-1.18c-.18-.06-.36-.14-.35-.36s.13-.21.28-.14c3.35,1.44,6.48,3.31,9.7,5,.47.15.82.52,1.27.7l1.52,1c.44.15.76.54,1.23.64,2.07,1.48,4.17,2.91,6.19,4.46a22,22,0,0,1,2.41,2.4,1.46,1.46,0,0,1-.1,2.42C336.75,180,336.83,179.71,336.68,179.53Z"/><path class="cls-5" d="M8.3,22.5c.5,0,.73.38,1,.68,3,3.11,6.8,5.13,10.69,7,1.48.69,3,1.33,4.53,1.94-2,1.28-13-4.57-16.77-8.88Z"/><path class="cls-6" d="M314.76,163.51c-.27.2,0,.34.06.5-1.78-.79-3.56-1.59-5.35-2.36a131.74,131.74,0,0,0-14.14-5.35c-3.26-1-6.52-2-9.78-2.93v-.16a33.68,33.68,0,0,1,7.72,1.8,132.94,132.94,0,0,1,14,5.05A56.89,56.89,0,0,1,314.76,163.51Z"/><path class="cls-7" d="M336.68,179.53l.3.59c.26.51,0,.83-.4,1.12C336.31,180.66,336.78,180.11,336.68,179.53Z"/><path class="cls-8" d="M178.06,285.66c.59.77.3,1.7.47,2.55C178,287.43,178.23,286.51,178.06,285.66Z"/><path class="cls-8" d="M143.44,159.37l2.24-.2A2.59,2.59,0,0,1,143.44,159.37Z"/><path class="cls-8" d="M262.59,217.45l2-.23A1.91,1.91,0,0,1,262.59,217.45Z"/><path class="cls-8" d="M245.76,231.85c-.08-.6.38-.89.71-1.26A1.3,1.3,0,0,1,245.76,231.85Z"/><path class="cls-8" d="M228.4,254.69c.09-.45.16-.92.77-.94A1.73,1.73,0,0,1,228.4,254.69Z"/><path class="cls-8" d="M225.1,258.78c0-.55.38-.85.76-1.15A1.33,1.33,0,0,1,225.1,258.78Z"/><path class="cls-8" d="M250,225.65a2.14,2.14,0,0,1,.73-1.22A1.37,1.37,0,0,1,250,225.65Z"/><path class="cls-8" d="M231.93,250.29c0-.57.4-.88.75-1.23A1.29,1.29,0,0,1,231.93,250.29Z"/><path class="cls-8" d="M180.54,290.06c.47.07,1-.34,1.43.1C181.49,290.14,181,290.44,180.54,290.06Z"/><path class="cls-8" d="M196.94,177.12a.75.75,0,0,1-.36.88C196.16,177.49,196.83,177.41,196.94,177.12Z"/><path class="cls-9" d="M285.56,153.21q0,.08,0,.16a1.08,1.08,0,0,1-1.2-.33A1.31,1.31,0,0,1,285.56,153.21Z"/><path class="cls-3" d="M133.84,153.77c-.73,1-1.95,1.07-2.88,1.68-.39.26-.7-.06-1-.28-1.91-1.38-3.88-2.69-5.75-4.14-6.47-5-12.66-10.38-17.49-17.07A38.2,38.2,0,0,1,100,119.64a35,35,0,0,1,.84-17.77,16.19,16.19,0,0,1,2.93-5.21,5.25,5.25,0,0,1,4.8-1.84c1.94.1,3.88.18,5.81.47a8.68,8.68,0,0,1,3.28,1.51A49.46,49.46,0,0,1,131.5,110a96.31,96.31,0,0,1,6.73,10.36c2.38,4.34,4.91,8.63,6.2,13.49.8,3-.25,5.64-1.27,8.29a18.38,18.38,0,0,1-2.5,4.85,7.81,7.81,0,0,1-3.9-1.25,32.3,32.3,0,0,1-11-9.94,85.91,85.91,0,0,1-6.41-11.1c-1.28-2.6-2.25-5.34-3.34-8a2.64,2.64,0,0,1-.15-.88,42.8,42.8,0,0,0,2.07,9.24,41.23,41.23,0,0,0,13.11,18.65,29.4,29.4,0,0,0,6.45,4.11c.54.26,1.16.47,1.43,1.11-.74,1.55-2.21,2.4-3.41,3.51a28.26,28.26,0,0,1-5.21-3.64,76.11,76.11,0,0,1-9.73-9.55,65.75,65.75,0,0,1-12.08-20.79,43.47,43.47,0,0,1-2.63-9.42c-.05-.43,0-.85-.07-1.27,0-.26-.08-.52-.06-.65a3.14,3.14,0,0,1,0,.53,50,50,0,0,0,2.33,13.27c2.91,8.75,8,16.09,14.34,22.66a67.92,67.92,0,0,0,10.62,9.22A1.37,1.37,0,0,1,133.84,153.77Z"/><path class="cls-2" d="M70.09,20.72A18.92,18.92,0,0,1,90.8,38c.79,10.83-6.68,19.68-17.4,20.51C62.84,59.3,53.87,52,53,40.86A18.88,18.88,0,0,1,70.09,20.72Z"/><path class="cls-2" d="M65.28,103.57c2.87-.95,5.53-1.8,8.17-2.7A106.64,106.64,0,0,0,89.2,94.33a82.55,82.55,0,0,0,13.91-9.55,74.1,74.1,0,0,0,8.07-7.72,48.73,48.73,0,0,0,11.36-20.69,40.09,40.09,0,0,0,.27-18.2,41.42,41.42,0,0,0-6.5-15.34c-1.11-1.59-.79-2.92.89-3.89a1.08,1.08,0,0,1,1.66.43,48.09,48.09,0,0,1,7,18.75,46.74,46.74,0,0,1-1.83,20.46,49.88,49.88,0,0,1-8.6,16.58,79.53,79.53,0,0,1-10.56,10.48,83.65,83.65,0,0,1-9.11,6.92,74.4,74.4,0,0,1-15.3,7.72,48.81,48.81,0,0,1-11.32,3C68,103.41,66.75,103.88,65.28,103.57Z"/><path class="cls-2" d="M105.94,107.67a55.54,55.54,0,0,0,3.73,12.87,68.32,68.32,0,0,0,16.33,24,77.43,77.43,0,0,0,8.37,6.88c.42.3.78.68,1.17,1a2.57,2.57,0,0,1-1.69,1.34,67.84,67.84,0,0,1-12.42-10.65,63.69,63.69,0,0,1-8.81-11.63,52.18,52.18,0,0,1-4-8.07,43.78,43.78,0,0,1-2.44-8.71,36.32,36.32,0,0,1-.55-7.1Q105.81,107.43,105.94,107.67Z"/><path class="cls-2" d="M138.94,148.92c-14.42-6.57-23-21.46-23.23-34.07.67,1.73,1.42,3.44,2.07,5.16a69.48,69.48,0,0,0,3.95,8.53,49.79,49.79,0,0,0,7.45,10.88c3.11,3.25,6.56,6,11,7.29a2.12,2.12,0,0,1,.48.29C140.14,147.68,139.94,148.66,138.94,148.92Z"/><path class="cls-10" d="M105.94,107.67l-.32,0c.14-.46-.42-.95.07-1.47A3.2,3.2,0,0,1,105.94,107.67Z"/><path class="cls-8" d="M73.28,54.65A15.32,15.32,0,1,1,86.94,37.89,15.28,15.28,0,0,1,73.28,54.65Z"/><path class="cls-2" d="M69.17,26.81a12.89,12.89,0,1,1,4,25.44,12.89,12.89,0,0,1-4-25.44Z"/><path class="cls-11" d="M69.79,38.26c-1.82.32-3.89-1-4-2.76-.2-2.24.73-3.6,3.1-4.09,1.47-.3,3.55,1.28,3.8,2.76A3.58,3.58,0,0,1,69.79,38.26Z"/><path d="M7.85,20.74s.33.31,1,.87,1.6,1.34,2.78,2.24a65.72,65.72,0,0,0,9.12,5.92c.88.45,1.77.89,2.66,1.28s1.78.75,2.66,1.05A23.78,23.78,0,0,0,31,33.29a15,15,0,0,0,2,.12,13.39,13.39,0,0,0,1.58-.08c.44,0,.77-.12,1-.16l.36-.06-.35.11c-.23.06-.56.19-1,.28a13.67,13.67,0,0,1-1.58.28,15.44,15.44,0,0,1-2.09.13,24.71,24.71,0,0,1-5.23-.59c-.95-.19-1.91-.45-2.88-.74s-1.94-.63-2.91-1A68.4,68.4,0,0,1,9.74,26.66c-1.33-.78-2.43-1.47-3.19-2s-1.2-.82-1.2-.82Z"/></svg>