<svg id="Layer_1" data-name="Layer 1" xmlns="http://www.w3.org/2000/svg" width="370" height="310" viewBox="0 0 352.65 221.99"><defs><style>.cls-1{fill:#db9a00;}.cls-2{fill:#262626;}.cls-3{fill:#00a6b2;}.cls-4{fill:#da9b03;}.cls-5{fill:#2a2825;}.cls-6{fill:#d79d0b;}.cls-7{fill:#bda93c;}.cls-8{fill:#fefefe;}.cls-9{fill:#ae9f2b;}.cls-10{fill:#17595e;}.cls-11{fill:#fdfdfd;}</style></defs><title>16_the_happy_fish_dances</title><path class="cls-1" d="M168.39,244.33a5,5,0,0,1,3.62-3.28h0c.33-.43,1-.33,1.3-.74,2.45-1.18,4.88-2.44,7.22-3.8,3.11-1.81,6-4,8.9-6.16,2.09-1.52,4.07-3.18,6.13-4.74a149.85,149.85,0,0,0,13.66-12.12,100.38,100.38,0,0,0,8.11-9.21,1.36,1.36,0,0,1,2.06-.39,37.35,37.35,0,0,1,8.19,6.09c.46,0,.67-.31.87-.63.71-1.13,1.53-2.18,2.19-3.35a131.88,131.88,0,0,0,7.51-15.35,184.4,184.4,0,0,0,6.37-18.27,151.82,151.82,0,0,0,4-17.65,81,81,0,0,0,1.5-15.17,3.24,3.24,0,0,0-.56-2.14,4.52,4.52,0,0,1,0-2.88c.72-2.76,1.42-5.53,2-8.33a123.07,123.07,0,0,0,2.25-14.52c.2-2.83.48-5.66.56-8.49.07-2.45-.12-4.91-.17-7.36-.07-3.35-.42-6.69-.76-10s-1.22-6.83-1.7-10.26c0-.41-.23-.78-.17-1.19A8.52,8.52,0,0,1,251,73.1a110,110,0,0,0-3.08-11.2c-1.44-4.67-3.38-9.19-5.1-13.78-.42-.34-.33-1-.74-1.32l-.43-1c-.44-.45-.43-1.12-.79-1.61a136.83,136.83,0,0,0-8-14.65c-1-1.69-2.28-3.27-3.34-5-1.29-2.05-1.47-4.49-2.2-6.75,0-.52-.41-.94-.33-1.48l-.45-1.25c-.55-.58-.56-1.42-1-2.07s-.83-1.48-1.24-2.21c-2.5-4.44-8.87-6.11-13.53-4.48a19.83,19.83,0,0,0-2.26,3.93,53.5,53.5,0,0,0-3.22,13.12,29.55,29.55,0,0,1,1.6-9.18c.9-2.6,1.56-5.28,3-7.66a.68.68,0,0,0,0-.55,4.7,4.7,0,0,1-1.35-1.94C206.41-1,201.88-.81,197.92,1.79c-2.55,1.67-4,4.43-6,6.61s-3.58,4.49-5.35,6.75a4,4,0,0,1-1.13.93c-2.78,1.82-5.57,3.62-8.33,5.47a94.83,94.83,0,0,0-7.88,5.63c-.4.21-.62.68-1.12.73L166.81,29c-.38.23-.61.68-1.1.74a174.52,174.52,0,0,0-20,18.09,3.48,3.48,0,0,1-.69.58c-1.18,1.31-2.32,2.65-3.54,3.91a115,115,0,0,0-7.39,8.83,152.05,152.05,0,0,0-10.77,15.6,123.84,123.84,0,0,0-7.46,13.65c-1.32,3-2.43,6-3.64,9,0,.48-.27.88-.31,1.35L110.18,106a5,5,0,0,1-.2,1c-.76,2.6-1.42,5.22-1.93,7.89a119.21,119.21,0,0,0-2,14.94c-.24,3.74-.39,7.49-.28,11.22s.6,7.24,1.06,10.84c.5,3.93,1.55,7.75,2.4,11.61.59,2.68,1.75,5.17,2.55,7.77a7.63,7.63,0,0,0,.75,2.12,62.06,62.06,0,0,0,2.44,6c2,3.71,2.88,7.78,4.16,11.71q1.21,3.74,2.06,7.58c.68,3.06,1.67,6.06,2.33,9.13.6,2.8,1,5.65,1.54,8.46.89,4.59,6.48,21.58,6.48,26.26a2.43,2.43,0,0,1-2.35,2.64c-.37.75.16,1.17.62,1.56,1.17,1,2,2.3,3.31,3.47-4.27.38-8.23,1.16-12.24,1.54-2.93.27-5.87.48-8.79.8-7.42.81-14.81,1.9-22.17,3.16-6.3,1.08-12.56,2.35-18.81,3.66-4.57,1-12,2.72-16.54,3.88C49,264.63,43.4,266,37.87,267.46c-7,1.91-14,4-21,5.95-.88.24-1.91.28-2.49,1.19.8.73,1.54,1.53,2.41,2.18a83.74,83.74,0,0,0,14.68,8.93c3.75,1.75,7.63,3.22,11.31,5.14a13.36,13.36,0,0,1,1.32.4l3.54,1.6a2,2,0,0,1,1.12.47A16.64,16.64,0,0,1,52.86,295c.47.12.92.28,1.4.37,1.59.42,3,1.23,4.58,1.79,4.28,1.55,8.54,3.19,12.9,4.53a1.77,1.77,0,0,0,.77-.81A19.2,19.2,0,0,1,75.73,297c3-2.85,6.1-5.52,9.33-8.07,5-4,10.14-7.88,15.35-11.65q5.72-4.14,11.46-8.24c3.27-2.35,6.64-4.55,9.94-6.85s6.87-4.81,10.35-7.14,3.31-2.57,6.09-.61a1.47,1.47,0,0,1,.68,1.69c-.38,2-1,4-1.52,5.93-1.06,3.84-2.31,7.63-3.43,11.46-1.32,4.51-3.1,8.87-4.35,13.4-1,3.49-2.48,6.81-3.56,10.27q-2.08,6.66-4.74,13.11c-1.59,3.86-3,7.8-4.59,11.66-1.78,4.3-3.73,8.51-5.57,12.78-1.14,2.63-2.77,5-4,7.54l5.22,7.69c.13.38.51.58.69.93a79.07,79.07,0,0,0,9.4,10.36,72.34,72.34,0,0,0,7.44,6.08,11.49,11.49,0,0,0,2.67-4.94,140.62,140.62,0,0,0,3.79-13.68q1.6-7.17,2.67-14.43c1.34-9.07,2.24-18.2,2.92-27.35.78-10.48,1.18-21,1.4-31.47.11-5.37.2-10.74.09-16.11,0-1.32.06-1.36,1.25-.9,2.28.89,4.49,1.31,6.79,2.13Z"/><path class="cls-2" d="M71.73,301.67c1.08-2.69,3.36-4.41,5.3-6.35s4-3.41,6-5.08c2.7-2.22,5.4-4.43,8.23-6.5,2.37-1.73,4.65-3.61,7-5.32,3.68-2.64,7.32-5.34,11-8s7.52-5.29,11.31-7.9c4.84-3.34,9.7-6.65,14.54-10a.9.9,0,0,1,1.35.1,6.35,6.35,0,0,0,1.9,1.46c1.11.45,1.16,1.08.9,2.09-1.13,4.39-2.35,8.74-3.69,13.08-1.56,5-3.22,10.07-4.86,15.09s-3.43,10.11-5.2,15.15q-3.1,8.82-6.51,17.52c-2.14,5.46-4.37,10.88-6.82,16.21-1.18,2.57-2.48,5.07-3.87,7.52-.32.56-.52,1.25-1.22,1.51-2.61-4-4.57-8.44-6.93-12.62-.65-.53-.53-1.49-1.16-2-1.52-3.7-3.72-7.07-5.19-10.8a4.36,4.36,0,0,1-.78-1.83,35.52,35.52,0,0,1-1.64-4.15,4.51,4.51,0,0,0-3.36-3.34c-1.72-.55-3.39-1.27-5.08-1.92-.46-.1-.91-.28-1.38-.35-1.74-1.17-3.86-1.19-5.74-2-.49,0-.91-.33-1.41-.32C73.64,302.4,72.19,303.05,71.73,301.67Z"/><path class="cls-3" d="M129.16,245.15a2.28,2.28,0,0,0,.67,1.19c1.18,1.14,2.32,2.32,3.46,3.51.14.15.45.23.35.54s-.38.19-.6.2c-3.53.27-7,.83-10.51,1.3s-7.1.69-10.64,1.05c-6.26.64-12.47,1.58-18.68,2.59-6.8,1.1-13.54,2.45-20.28,3.84s-13.35,2.93-20,4.58-13.46,3.42-20.14,5.32c-6.15,1.75-12.28,3.55-18.42,5.34-6.32-3.94-11.3-9-14-16.14.16-.52-.39-.89-.31-1.4-.07-1-.46-2.25,1.2-2.45.71-.52,1.66-.56,2.31-1.18a97.08,97.08,0,0,1,12.73-4.29c6.94-1.86,14-3.4,21.06-4.72,5.82-1.09,11.67-2,17.51-3,4.87-.82,9.77-1.44,14.62-2.45a70,70,0,0,1,12.63-1.2,129.45,129.45,0,0,1,18.05.79c2.2.26,4.41.55,6.6,1,1.74.36,3.53.55,5.28,1,.32,0,.62.18.95.09,2.37.56,4.73,1.18,7.1,1.71,2.62.58,5.11,1.52,7.7,2.15A6.15,6.15,0,0,1,129.16,245.15Z"/><path class="cls-3" d="M129.89,367.35c2.69-5,4.1-10.42,5.45-15.89q1.42-5.75,2.42-11.58c.72-4.15,1.37-8.31,1.78-12.51.31-3.21.81-6.41,1.13-9.62q.64-6.54,1.11-13.09c.26-3.61.46-7.23.6-10.84q.32-7.9.53-15.8c.12-4.79.17-9.58.23-14.37,0-2,0-4,0-6.12a38.72,38.72,0,0,0,7.34,2.11c.58.11.81.59,1.25.84-.18,1.24.55,2.27.85,3.38a243,243,0,0,1,5.7,26.56,218.24,218.24,0,0,1,2.62,25.6c0,.51.45,1,.13,1.5a10.5,10.5,0,0,0,.12,1.33,98.66,98.66,0,0,1,.06,14c-.2,4.63-.71,9.24-1.29,13.83-.14,1.08-.49,2.12-.52,3.21a134.46,134.46,0,0,1-3.24,13.54c-1.12,3.65-2.62,7.11-4.06,10.62a2.22,2.22,0,0,1-1.5,1.41,8.59,8.59,0,0,1-1.7.13,25.15,25.15,0,0,1-6.85-1.54c-.47-.09-.92-.26-1.39-.36-2.66-1.41-5.42-2.65-8-4.24A20.05,20.05,0,0,1,129.89,367.35Z"/><path class="cls-3" d="M240.22,230.71l-1.43-3.94a79.33,79.33,0,0,0,4.46-11.68c1.63-5,3.2-10.11,4.44-15.28s2.44-10.54,3.34-15.87A145.11,145.11,0,0,0,253.18,163a84.85,84.85,0,0,0-1-15.75,62.86,62.86,0,0,0-2.17-8c-.15-.5-.41-1,0-1.49a20.54,20.54,0,0,1,4.22,5.83c3,5.44,4.17,11.44,5,17.52.11.78-.2,1.61.29,2.34-.19.4.19.76.08,1.15-.23,1.94.18,3.86.14,5.8-.06,3.29-.07,6.58-.21,9.88-.17,4-.4,8-.86,12-.43,3.73-.84,7.47-1.37,11.19-.51,3.55-1.11,7.09-1.77,10.62-.48,2.58-1.06,5.14-1.7,7.68-.78,3.14-1.67,6.25-2.52,9.37a4.51,4.51,0,0,0-.2,1l-.78,2.1c-.06.48-.31.91-.37,1.38a73.26,73.26,0,0,1-3.51,8,11.87,11.87,0,0,1-.79,1.28,1.16,1.16,0,0,1-1.16.59c-.55-.11-.41-.65-.48-1.11a51.27,51.27,0,0,0-3-11.46A5,5,0,0,0,240.22,230.71Z"/><path class="cls-2" d="M250,137.8c-.15,1.22.62,2.19,1,3.26a61.07,61.07,0,0,1,2.66,19,130,130,0,0,1-1.23,17.33c-.75,5.89-1.88,11.72-3.17,17.51-.93,4.13-2,8.24-3.22,12.31-1.73,5.92-3.68,11.77-5.89,17.52a3.49,3.49,0,0,1-1.3,2c-2.82-6-6.17-11.62-11-16.29-.12-.12-.14-.34-.2-.51a92.75,92.75,0,0,0,9.85-18.47c1.21-3,2.44-5.95,3.5-9,1.65-4.72,3-9.51,4.3-14.34.73-2.82,1.37-5.66,2-8.51a119.69,119.69,0,0,0,2.17-14.29,34.77,34.77,0,0,0,.06-8C249.79,137.34,249.73,137.78,250,137.8Z"/><path class="cls-4" d="M150.54,375.22a3.19,3.19,0,0,0,1.37-1.67,80.88,80.88,0,0,0,4.55-12.18,62.69,62.69,0,0,0,2.15-9.33,18.31,18.31,0,0,1,.58-2.2c0-.19,0-.39.25-.44s.24.07.21.23c-.43,3.62-1.33,7.15-2,10.73,0,.49-.27.93-.31,1.42l-.53,1.74c0,.47-.3.88-.26,1.36-.83,2.4-1.6,4.83-2.51,7.2a22,22,0,0,1-1.61,3,1.46,1.46,0,0,1-2.35.59C150.12,375.41,150.42,375.41,150.54,375.22Z"/><path class="cls-5" d="M210.78,6.38c.13.48-.18.8-.4,1.16-2.25,3.73-3.28,7.86-4.08,12.08-.3,1.61-.55,3.22-.76,4.87-1.75-1.65,1.19-13.73,4.44-18.45Z"/><path class="cls-6" d="M159.65,349.65c-.27-.2-.32.11-.46.2.25-1.93.51-3.87.74-5.8A131.74,131.74,0,0,0,161,329c0-3.4,0-6.81,0-10.21l.16,0a33.68,33.68,0,0,1,.48,7.91,132.94,132.94,0,0,1-.84,14.88A56.89,56.89,0,0,1,159.65,349.65Z"/><path class="cls-7" d="M150.54,375.22l-.48.46c-.42.4-.8.2-1.19-.06C149.36,375.18,150,375.48,150.54,375.22Z"/><path class="cls-8" d="M3.6,253.43c-.57.79-1.55.77-2.31,1.18C1.89,253.89,2.84,253.83,3.6,253.43Z"/><path class="cls-8" d="M111.75,171.27l.75,2.12A2.59,2.59,0,0,1,111.75,171.27Z"/><path class="cls-8" d="M93.08,315l.78,1.83A1.91,1.91,0,0,1,93.08,315Z"/><path class="cls-8" d="M74.48,303c.55-.24,1,.1,1.41.32A1.3,1.3,0,0,1,74.48,303Z"/><path class="cls-8" d="M47.63,292.86c.46,0,.92-.11,1.12.47A1.73,1.73,0,0,1,47.63,292.86Z"/><path class="cls-8" d="M42.78,290.86a1.46,1.46,0,0,1,1.32.4A1.33,1.33,0,0,1,42.78,290.86Z"/><path class="cls-8" d="M81.62,305.26a2.14,2.14,0,0,1,1.38.35A1.37,1.37,0,0,1,81.62,305.26Z"/><path class="cls-8" d="M52.87,295c.55-.18,1,.14,1.4.37A1.29,1.29,0,0,1,52.87,295Z"/><path class="cls-8" d="M.09,257.06c.07.47.61.84.31,1.4C.28,258-.14,257.6.09,257.06Z"/><path class="cls-8" d="M113,240.59a.75.75,0,0,1-.95-.09C112.45,240,112.71,240.57,113,240.59Z"/><path class="cls-9" d="M161.2,318.71l-.16,0a1.08,1.08,0,0,1,0-1.25A1.31,1.31,0,0,1,161.2,318.71Z"/><path class="cls-3" d="M114.79,160.58c-1.11-.47-1.52-1.62-2.34-2.37-.35-.32-.12-.7,0-1.06.86-2.2,1.64-4.43,2.58-6.59,3.27-7.52,6.91-14.84,12.2-21.18a38.2,38.2,0,0,1,12.19-10.09,35,35,0,0,1,17.42-3.6,16.19,16.19,0,0,1,5.77,1.55,5.25,5.25,0,0,1,3,4.19c.39,1.9.79,3.81,1,5.75a8.68,8.68,0,0,1-.65,3.55,49.46,49.46,0,0,1-9.34,16.72,96.31,96.31,0,0,1-8.37,9.09c-3.62,3.38-7.14,6.9-11.53,9.36-2.7,1.51-5.52,1.15-8.35.83a18.38,18.38,0,0,1-5.31-1.22,7.81,7.81,0,0,1,.24-4.09,32.3,32.3,0,0,1,6.9-13.1,85.91,85.91,0,0,1,9.16-9c2.2-1.88,4.61-3.51,6.94-5.23a2.64,2.64,0,0,1,.82-.37,42.8,42.8,0,0,0-8.44,4.3,41.23,41.23,0,0,0-14.81,17.33,29.4,29.4,0,0,0-2.38,7.27,2.4,2.4,0,0,1-.72,1.66c-1.69-.33-2.88-1.54-4.25-2.43a28.26,28.26,0,0,1,2.23-6,76.11,76.11,0,0,1,6.83-11.8,65.75,65.75,0,0,1,17.14-16.87,43.47,43.47,0,0,1,8.47-4.88c.4-.16.82-.21,1.21-.38s.49-.2.61-.22a3.14,3.14,0,0,1-.5.16,50,50,0,0,0-12.27,5.55c-7.75,5-13.6,11.75-18.39,19.52a67.92,67.92,0,0,0-6.3,12.58A1.37,1.37,0,0,1,114.79,160.58Z"/><path class="cls-2" d="M227.85,65.79a18.92,18.92,0,0,1-11.56,24.34C206,93.59,195.57,88.55,192.1,78.37c-3.42-10,1.4-20.52,12-24.17A18.88,18.88,0,0,1,227.85,65.79Z"/><path class="cls-2" d="M146.39,81.71C148,84.25,149.51,86.62,151,89a106.64,106.64,0,0,0,10.25,13.63A82.55,82.55,0,0,0,174,113.68a74.1,74.1,0,0,0,9.48,5.9,48.73,48.73,0,0,0,22.86,5.87A40.09,40.09,0,0,0,224,121.19a41.42,41.42,0,0,0,13.24-10.1c1.26-1.47,2.64-1.49,4-.1a1.08,1.08,0,0,1,0,1.72,48.09,48.09,0,0,1-16.41,11.48,46.74,46.74,0,0,1-20.27,3.31,49.88,49.88,0,0,1-18.2-4.22,79.53,79.53,0,0,1-12.78-7.62,83.65,83.65,0,0,1-9-7.1,74.4,74.4,0,0,1-11.28-12.9,48.81,48.81,0,0,1-5.7-10.23C147.22,84.25,146.46,83.2,146.39,81.71Z"/><path class="cls-2" d="M152.52,122.1A55.54,55.54,0,0,0,141,128.91a68.32,68.32,0,0,0-19.16,21.78,77.43,77.43,0,0,0-4.59,9.82c-.19.48-.47.92-.71,1.38a2.57,2.57,0,0,1-1.72-1.3A67.84,67.84,0,0,1,122,145.91a63.69,63.69,0,0,1,9.07-11.42,52.18,52.18,0,0,1,6.83-5.88,43.78,43.78,0,0,1,7.83-4.52,36.32,36.32,0,0,1,6.74-2.3Q152.72,121.92,152.52,122.1Z"/><path class="cls-2" d="M120.76,164.31c2.79-15.6,15.08-27.57,27.24-31-1.51,1.08-3,2.23-4.49,3.29a69.48,69.48,0,0,0-7.28,5.94,49.79,49.79,0,0,0-8.69,9.92c-2.38,3.82-4.21,7.85-4.33,12.47a2.12,2.12,0,0,1-.16.54C122.25,165.17,121.26,165.22,120.76,164.31Z"/><path class="cls-10" d="M152.52,122.1l0-.32c.48,0,.82-.64,1.44-.3A3.2,3.2,0,0,1,152.52,122.1Z"/><path class="cls-8" d="M195.77,77.31a15.32,15.32,0,1,1,19.63,9.07A15.28,15.28,0,0,1,195.77,77.31Z"/><path class="cls-2" d="M221.72,66.42a12.89,12.89,0,1,1-23.64,10.21,12.89,12.89,0,0,1,23.64-10.21Z"/><path class="cls-11" d="M210.78,69.85c-.76-1.68,0-4,1.67-4.6,2.12-.75,3.67-.19,4.73,2,.66,1.34-.36,3.75-1.73,4.37A3.58,3.58,0,0,1,210.78,69.85Z"/><path d="M212.37,5.51s-.22.4-.6,1.18-.9,1.88-1.48,3.25a65.73,65.73,0,0,0-3.47,10.3c-.22,1-.43,1.93-.58,2.89S206,25,205.88,26A23.79,23.79,0,0,0,206,31a15,15,0,0,0,.38,2,13.4,13.4,0,0,0,.47,1.51c.14.42.31.72.4.94l.15.33-.19-.31c-.12-.21-.32-.49-.52-.89a13.64,13.64,0,0,1-.67-1.46,15.44,15.44,0,0,1-.65-2,24.71,24.71,0,0,1-.73-5.21c0-1,0-2,0-3s.13-2,.23-3.06a68.41,68.41,0,0,1,2.26-11.09c.43-1.49.82-2.72,1.12-3.58s.49-1.37.49-1.37Z"/></svg>