<svg id="Layer_1" data-name="Layer 1" xmlns="http://www.w3.org/2000/svg" width="370" height="310" viewBox="0 0 352.65 221.99"><defs><style>.cls-1{fill:#db9a00;}.cls-2{fill:#262626;}.cls-3{fill:#00a6b2;}.cls-4{fill:#da9b03;}.cls-5{fill:#2a2825;}.cls-6{fill:#d79d0b;}.cls-7{fill:#bda93c;}.cls-8{fill:#fefefe;}.cls-9{fill:#ae9f2b;}.cls-10{fill:#17595e;}.cls-11{fill:#fdfdfd;}</style></defs><title>16_the_happy_fish_dances</title><path class="cls-1" d="M90.34,246.84A5,5,0,0,1,93.42,243h0c.26-.48.9-.47,1.17-.93,2.24-1.54,4.46-3.15,6.56-4.85,2.8-2.26,5.3-4.9,7.86-7.44,1.83-1.82,3.54-3.76,5.34-5.61A149.85,149.85,0,0,0,126,210.14a100.38,100.38,0,0,0,6.61-10.34,1.36,1.36,0,0,1,2-.7,37.35,37.35,0,0,1,9,4.77c.46,0,.62-.41.77-.75.53-1.22,1.18-2.39,1.65-3.64a131.88,131.88,0,0,0,5.08-16.31,184.4,184.4,0,0,0,3.51-19,151.82,151.82,0,0,0,1.25-18,81,81,0,0,0-.83-15.22,3.24,3.24,0,0,0-.88-2,4.52,4.52,0,0,1-.45-2.85c.29-2.84.56-5.69.67-8.54a123.07,123.07,0,0,0,0-14.69c-.23-2.83-.39-5.67-.74-8.48-.31-2.43-.87-4.83-1.29-7.25-.58-3.3-1.43-6.54-2.27-9.79s-2.25-6.56-3.24-9.89c-.06-.4-.35-.73-.35-1.15a8.52,8.52,0,0,1-.64-1.17,110,110,0,0,0-4.74-10.6C139,50,136.44,45.87,134,41.6c-.46-.28-.48-.9-.93-1.19l-.57-.89c-.51-.38-.6-1-1-1.47a136.83,136.83,0,0,0-10.17-13.26c-1.29-1.52-2.75-2.88-4.05-4.39-1.58-1.84-2.14-4.22-3.2-6.34,0-.52-.54-.87-.55-1.41l-.63-1.17c-.64-.49-.77-1.32-1.27-1.9s-1-1.33-1.56-2c-3.15-4-9.69-4.69-14.05-2.37a19.83,19.83,0,0,0-1.63,4.23A53.5,53.5,0,0,0,93.22,22.9a29.55,29.55,0,0,1,.19-9.32c.49-2.71.73-5.46,1.82-8a.68.68,0,0,0,0-.55A4.7,4.7,0,0,1,93.57,3.3c-3-4.72-7.42-3.84-10.93-.67-2.26,2-3.26,5-4.95,7.45s-2.86,5-4.26,7.49a4,4,0,0,1-1,1.09c-2.47,2.22-5,4.43-7.41,6.67a94.83,94.83,0,0,0-6.93,6.76c-.36.26-.51.76-1,.89L56,34.23c-.34.29-.5.76-1,.89A174.52,174.52,0,0,0,38,56a3.48,3.48,0,0,1-.59.68c-1,1.47-1.89,3-2.91,4.41a115,115,0,0,0-6,9.85,152.05,152.05,0,0,0-8.28,17.06A123.84,123.84,0,0,0,15,102.68c-.85,3.13-1.49,6.32-2.22,9.49.11.47-.13.92-.1,1.38L11.76,119a5,5,0,0,1,0,1c-.35,2.69-.61,5.38-.71,8.09a119.21,119.21,0,0,0,.26,15.08c.34,3.74.76,7.46,1.43,11.13s1.69,7.06,2.7,10.55c1.09,3.8,2.71,7.43,4.14,11.11,1,2.56,2.51,4.84,3.71,7.3a7.63,7.63,0,0,0,1.07,2,62.06,62.06,0,0,0,3.32,5.53c2.51,3.37,4,7.25,5.89,10.94q1.76,3.51,3.18,7.18c1.14,2.93,2.58,5.74,3.69,8.67,1,2.68,1.84,5.43,2.81,8.13,1.58,4.4,16,30.26,19.9,32.88A2.43,2.43,0,0,1,64,262c.41.73,1.06.53,1.64.36,1.47-.42,3-.33,4.72-.8-2.07,3.75-3.64,7.47-5.58,11-1.41,2.58-2.89,5.13-4.26,7.73-3.48,6.6-6.72,13.34-9.79,20.14-2.63,5.82-5.08,11.73-7.5,17.64-1.77,4.33-4.47,11.48-6,15.88-1.93,5.4-4,10.76-5.8,16.19C29,357,26.88,364,24.54,370.85c-.29.86-.84,1.74-.41,2.73,1.05-.25,2.14-.42,3.15-.77a83.74,83.74,0,0,0,15.62-7.17c3.55-2.13,6.94-4.52,10.59-6.49a13.36,13.36,0,0,1,1.07-.87l3.31-2c.31-.27.57-.61,1-.66a16.64,16.64,0,0,1,3.68-2.48c.36-.32.75-.61,1.09-1,1.24-1.08,2.71-1.82,4-2.79,3.68-2.68,7.42-5.29,11-8.15a1.77,1.77,0,0,0-.24-1.1,19.2,19.2,0,0,1-1.37-4.82c-.71-4.05-1.16-8.15-1.47-12.25-.48-6.4-.85-12.82-1.06-19.24-.15-4.7-.28-9.4-.41-14.11-.12-4,0-8.05-.12-12.07-.07-4.19-.14-8.39-.13-12.58,0-4.36-.28-4.18,2.9-5.39a1.47,1.47,0,0,1,1.78.38c1.45,1.44,2.74,3,4.07,4.58,2.59,3,5,6.18,7.57,9.25,3,3.62,5.61,7.53,8.67,11.11,2.35,2.76,4.25,5.87,6.51,8.7q4.35,5.45,8.21,11.27c2.31,3.48,4.79,6.84,7.09,10.33,2.56,3.88,5,7.85,7.47,11.77,1.54,2.42,2.57,5.08,4,7.55l9.3,0c.39.1.77-.1,1.15-.05a79.07,79.07,0,0,0,13.85-2,72.34,72.34,0,0,0,9.21-2.76,11.49,11.49,0,0,0-2.6-5,140.62,140.62,0,0,0-9.22-10.8q-5-5.34-10.46-10.29c-6.77-6.19-13.83-12-21-17.73-8.25-6.51-16.71-12.72-25.29-18.78-4.39-3.1-8.79-6.18-13.3-9.09-1.11-.72-1.1-.81,0-1.54,2-1.39,3.6-3,5.57-4.43Z"/><path class="cls-2" d="M78.66,341.21c-1.62-2.4-1.77-5.25-2.3-7.95s-.61-5.2-.85-7.81c-.32-3.48-.65-7-.78-10.46-.11-2.94-.38-5.87-.46-8.82-.12-4.53-.33-9.05-.44-13.58s-.17-9.19-.22-13.79c-.06-5.88-.08-11.76-.14-17.64a.9.9,0,0,1,.84-1.07,6.35,6.35,0,0,0,2.28-.76c1-.67,1.54-.36,2.24.43,3,3.39,5.93,6.84,8.77,10.37,3.31,4.12,6.54,8.3,9.78,12.47s6.46,8.5,9.65,12.79q5.57,7.5,10.87,15.2c3.33,4.83,6.57,9.71,9.61,14.72,1.47,2.42,2.81,4.89,4.06,7.42.28.57.75,1.13.57,1.86-4.81-.1-9.55-.93-14.33-1.32-.8.24-1.53-.4-2.33-.18-3.92-.82-7.94-.88-11.85-1.74a4.36,4.36,0,0,1-2-.38,35.52,35.52,0,0,1-4.35-1,4.51,4.51,0,0,0-4.65.92c-1.42,1.12-2.95,2.1-4.43,3.14-.34.33-.74.6-1.06.95-1.94.79-3.15,2.54-4.83,3.66-.28.41-.79.57-1.06,1C80.34,340,80.07,341.6,78.66,341.21Z"/><path class="cls-3" d="M64,262a2.28,2.28,0,0,0,1.36.11c1.61-.34,3.23-.62,4.84-.91.2,0,.44-.24.65,0s-.06.42-.17.61c-1.75,3.07-3.23,6.28-4.8,9.44s-3.4,6.27-5.09,9.41c-3,5.55-5.67,11.22-8.31,16.93-2.9,6.25-5.55,12.59-8.17,19s-5,12.71-7.4,19.13-4.7,13.07-6.87,19.67c-2,6.07-3.93,12.17-5.89,18.25-6.8,3-13.82,4.3-21.2,2.55-.35-.42-1-.18-1.33-.52-.91-.53-2.12-.88-1.36-2.37,0-.88.46-1.69.32-2.58a97.08,97.08,0,0,1,3.57-12.95c2.35-6.8,5-13.49,7.88-20.09,2.36-5.44,4.84-10.82,7.29-16.21,2-4.5,4.28-8.9,6.15-13.49a70,70,0,0,1,6.07-11.14,129.45,129.45,0,0,1,10.76-14.52c1.44-1.68,2.93-3.35,4.53-4.91,1.27-1.24,2.43-2.62,3.76-3.83.15-.29.5-.42.61-.74,1.79-1.65,3.63-3.26,5.39-4.93,1.95-1.84,4.12-3.39,6.1-5.18A6.15,6.15,0,0,1,64,262Z"/><path class="cls-3" d="M165.65,329.78c-2.63-5-6.34-9.23-10.12-13.41q-4-4.4-8.24-8.49c-3-2.92-6.12-5.79-9.37-8.47-2.49-2.06-4.85-4.26-7.34-6.32q-5.06-4.19-10.23-8.25-4.27-3.36-8.65-6.57-6.36-4.69-12.8-9.28c-3.9-2.78-7.84-5.51-11.78-8.24-1.64-1.14-3.32-2.23-5.09-3.41a38.72,38.72,0,0,0,5.86-4.9c.41-.42.94-.34,1.39-.57.92.84,2.19.81,3.28,1.18a243,243,0,0,1,25.2,10.15,218.24,218.24,0,0,1,22.68,12.16c.43.27,1.06.18,1.32.73a10.5,10.5,0,0,0,1.17.65,98.66,98.66,0,0,1,11.65,7.8c3.73,2.76,7.25,5.76,10.74,8.81.82.72,1.48,1.59,2.37,2.23a134.46,134.46,0,0,1,9.41,10.27c2.4,3,4.43,6.16,6.53,9.31a2.22,2.22,0,0,1,.33,2,8.59,8.59,0,0,1-.84,1.48,25.15,25.15,0,0,1-5.11,4.81c-.34.34-.73.62-1.08.95-2.66,1.42-5.23,3-8,4.25A20.05,20.05,0,0,1,165.65,329.78Z"/><path class="cls-3" d="M159.27,222.45l-2-3.68a79.33,79.33,0,0,0,2.64-12.22c.85-5.23,1.63-10.48,2.06-15.78s.81-10.79.89-16.2a145.11,145.11,0,0,0-1.06-21,84.85,84.85,0,0,0-3.39-15.41,62.86,62.86,0,0,0-3.36-7.54c-.23-.47-.55-.91-.26-1.46a20.54,20.54,0,0,1,5.06,5.12c3.81,4.92,5.86,10.68,7.65,16.55.23.75,0,1.62.65,2.26-.13.42.3.72.25,1.13.07,1.95.76,3.78,1,5.71.44,3.26.93,6.52,1.3,9.79.44,4,.82,8,1,12,.14,3.76.31,7.51.35,11.27,0,3.59,0,7.18-.13,10.77-.08,2.62-.27,5.24-.51,7.85-.3,3.22-.7,6.43-1.06,9.64a4.51,4.51,0,0,0,0,1l-.45,2.19c0,.48-.17.94-.16,1.42a73.26,73.26,0,0,1-2.24,8.47,11.87,11.87,0,0,1-.59,1.38,1.16,1.16,0,0,1-1.06.76c-.56,0-.5-.58-.64-1a51.27,51.27,0,0,0-4.69-10.87A5,5,0,0,0,159.27,222.45Z"/><path class="cls-2" d="M154.77,129.14c0,1.23.94,2.07,1.45,3.07a61.07,61.07,0,0,1,5.52,18.42A130,130,0,0,1,163.17,168c.15,5.94-.07,11.87-.47,17.79-.29,4.23-.75,8.45-1.31,12.66-.81,6.12-1.84,12.19-3.16,18.21a3.49,3.49,0,0,1-1,2.16c-3.7-5.5-7.87-10.55-13.32-14.43-.14-.1-.19-.31-.28-.48a92.75,92.75,0,0,0,6.93-19.76c.75-3.13,1.51-6.25,2.09-9.41.91-4.91,1.57-9.86,2.07-14.83.29-2.9.49-5.8.65-8.71a119.69,119.69,0,0,0,0-14.45,34.77,34.77,0,0,0-1.15-7.88C154.52,128.71,154.52,129.15,154.77,129.14Z"/><path class="cls-4" d="M183.73,317.07a3.19,3.19,0,0,0-.61-2.07,80.88,80.88,0,0,0-7.55-10.59,62.69,62.69,0,0,0-6.53-7,18.31,18.31,0,0,1-1.5-1.71c-.16-.11-.3-.25-.22-.45s.19-.16.31,0c2.76,2.38,5.18,5.11,7.76,7.68.4.28.62.74,1,1l1.15,1.41c.37.28.56.74,1,1,1.53,2,3.1,4,4.57,6.11a22,22,0,0,1,1.58,3,1.46,1.46,0,0,1-.83,2.28C183.65,317.53,183.82,317.28,183.73,317.07Z"/><path class="cls-5" d="M96,5.21c.2.45-.06.81-.22,1.21-1.66,4-2,8.27-2.2,12.57-.06,1.63-.05,3.26,0,4.93-2-1.37-.91-13.75,1.58-18.91Z"/><path class="cls-6" d="M167.64,295.21c-.32.11-.09.33-.09.5-1.46-1.29-2.92-2.58-4.39-3.86a131.74,131.74,0,0,0-11.88-9.35c-2.81-1.92-5.63-3.82-8.45-5.73l.05-.16a33.68,33.68,0,0,1,6.83,4,132.94,132.94,0,0,1,11.86,9A56.89,56.89,0,0,1,167.64,295.21Z"/><path class="cls-7" d="M183.73,317.07l.11.65c.1.57-.29.78-.72.95C183,318,183.65,317.65,183.73,317.07Z"/><path class="cls-8" d="M.56,370.66c.33.91-.22,1.72-.32,2.58C0,372.34.46,371.52.56,370.66Z"/><path class="cls-8" d="M23.25,183.25l1.07,2A2.59,2.59,0,0,1,23.25,183.25Z"/><path class="cls-8" d="M101.68,331l2,.38A1.91,1.91,0,0,1,101.68,331Z"/><path class="cls-8" d="M81.3,339.67c.11-.59.63-.74,1.06-1C82.24,339.27,81.8,339.51,81.3,339.67Z"/><path class="cls-8" d="M57.88,356.24c.22-.4.43-.83,1-.66A1.73,1.73,0,0,1,57.88,356.24Z"/><path class="cls-8" d="M53.5,359.15c.16-.53.62-.7,1.07-.87A1.33,1.33,0,0,1,53.5,359.15Z"/><path class="cls-8" d="M87.18,335a2.14,2.14,0,0,1,1.06-.95A1.37,1.37,0,0,1,87.18,335Z"/><path class="cls-8" d="M62.57,353.1c.15-.55.65-.72,1.09-1A1.29,1.29,0,0,1,62.57,353.1Z"/><path class="cls-8" d="M1.6,375.6c.43.21,1,0,1.33.52C2.48,376,1.92,376.1,1.6,375.6Z"/><path class="cls-8" d="M51.17,272.8a.75.75,0,0,1-.61.74C50.32,272.92,51,273.05,51.17,272.8Z"/><path class="cls-9" d="M142.87,276.61l-.05.16a1.08,1.08,0,0,1-1-.67A1.31,1.31,0,0,1,142.87,276.61Z"/><path class="cls-3" d="M24.62,172.22c-1.17-.29-1.75-1.37-2.68-2-.39-.26-.22-.67-.14-1,.52-2.3.95-4.63,1.55-6.91,2.09-7.93,4.57-15.72,8.83-22.79A38.2,38.2,0,0,1,42.7,127.66a35,35,0,0,1,16.67-6.21,16.19,16.19,0,0,1,5.94.65,5.25,5.25,0,0,1,3.58,3.69c.67,1.82,1.36,3.64,1.85,5.53a8.68,8.68,0,0,1-.1,3.61A49.46,49.46,0,0,1,64,152.87a96.31,96.31,0,0,1-6.89,10.26c-3.06,3.89-6,7.9-10,11-2.44,1.91-5.28,2-8.12,2.09a18.38,18.38,0,0,1-5.44-.39,7.81,7.81,0,0,1-.38-4.07,32.3,32.3,0,0,1,4.83-14,85.91,85.91,0,0,1,7.69-10.25c1.89-2.2,4-4.17,6.06-6.22a2.64,2.64,0,0,1,.75-.49,42.8,42.8,0,0,0-7.68,5.53,41.23,41.23,0,0,0-12,19.38,29.4,29.4,0,0,0-1.24,7.55,2.4,2.4,0,0,1-.46,1.75c-1.72-.07-3.08-1.09-4.57-1.75a28.26,28.26,0,0,1,1.3-6.22,76.11,76.11,0,0,1,5-12.7A65.75,65.75,0,0,1,47.15,135a43.47,43.47,0,0,1,7.63-6.11c.37-.22.78-.34,1.14-.56s.45-.28.57-.31a3.14,3.14,0,0,1-.47.24,50,50,0,0,0-11.29,7.35c-6.9,6.12-11.65,13.68-15.21,22.09a67.92,67.92,0,0,0-4.31,13.39A1.37,1.37,0,0,1,24.62,172.22Z"/><path class="cls-2" d="M121.95,61.33a18.92,18.92,0,0,1-7.72,25.82c-9.65,5-20.72,1.59-25.7-7.95S86.78,58.71,96.7,53.5A18.88,18.88,0,0,1,121.95,61.33Z"/><path class="cls-2" d="M43.86,89.45c2,2.27,3.83,4.38,5.69,6.46a106.64,106.64,0,0,0,12.2,11.91,82.55,82.55,0,0,0,14.25,9,74.1,74.1,0,0,0,10.27,4.39,48.73,48.73,0,0,0,23.49,2.32,40.09,40.09,0,0,0,16.84-6.9,41.42,41.42,0,0,0,11.55-12c1-1.64,2.38-1.88,3.92-.71a1.08,1.08,0,0,1,.26,1.7,48.09,48.09,0,0,1-14.48,13.84,46.74,46.74,0,0,1-19.53,6.35,49.88,49.88,0,0,1-18.63-1.4,79.53,79.53,0,0,1-13.79-5.59A83.65,83.65,0,0,1,66,113.2a74.4,74.4,0,0,1-13.11-11,48.81,48.81,0,0,1-7.19-9.24C45.06,91.84,44.15,90.92,43.86,89.45Z"/><path class="cls-2" d="M56.06,128.45a55.54,55.54,0,0,0-10.38,8.48,68.32,68.32,0,0,0-15.63,24.44,77.43,77.43,0,0,0-3,10.4c-.12.5-.32,1-.49,1.48a2.57,2.57,0,0,1-1.9-1,67.84,67.84,0,0,1,4.91-15.6,63.69,63.69,0,0,1,7.23-12.67,52.18,52.18,0,0,1,5.85-6.85,43.78,43.78,0,0,1,7-5.66,36.32,36.32,0,0,1,6.31-3.3Q56.23,128.23,56.06,128.45Z"/><path class="cls-2" d="M31.09,175c.38-15.84,10.72-29.54,22.21-34.74-1.33,1.3-2.61,2.65-3.93,3.93a69.48,69.48,0,0,0-6.3,7A49.79,49.79,0,0,0,36,162.29c-1.77,4.14-3,8.4-2.38,13a2.12,2.12,0,0,1-.08.56C32.7,175.62,31.72,175.82,31.09,175Z"/><path class="cls-10" d="M56.06,128.45l-.09-.31c.48-.05.71-.76,1.38-.52A3.2,3.2,0,0,1,56.06,128.45Z"/><path class="cls-8" d="M92,77.6a15.32,15.32,0,1,1,20.78,6A15.28,15.28,0,0,1,92,77.6Z"/><path class="cls-2" d="M116,62.88A12.89,12.89,0,1,1,94.17,76.57,12.89,12.89,0,0,1,116,62.88Z"/><path class="cls-11" d="M105.7,67.94c-1-1.55-.6-4,.95-4.8,2-1.06,3.6-.74,5,1.24.86,1.23.22,3.76-1,4.58A3.58,3.58,0,0,1,105.7,67.94Z"/><path d="M97.48,4.1s-.15.43-.41,1.26-.6,2-1,3.43A65.73,65.73,0,0,0,94.24,19.5c-.07,1-.13,2-.14,2.95s0,1.93.08,2.86a23.78,23.78,0,0,0,.84,5,14.94,14.94,0,0,0,.68,1.92,13.39,13.39,0,0,0,.69,1.42c.2.39.42.66.54.87l.2.3-.23-.28c-.15-.19-.39-.43-.65-.8a13.68,13.68,0,0,1-.88-1.34,15.44,15.44,0,0,1-.94-1.87,24.72,24.72,0,0,1-1.51-5c-.19-.95-.33-1.94-.45-2.94s-.19-2-.24-3.06a68.41,68.41,0,0,1,.54-11.3c.2-1.54.4-2.81.56-3.71S93.62,3,93.62,3Z"/></svg>