<svg id="Layer_1" data-name="Layer 1" xmlns="http://www.w3.org/2000/svg" viewBox="0 0 260 168"><defs><style>.cls-1{fill:#fcdd11;}.cls-2{fill:#ffcb33;}.cls-3{fill:#a07815;}</style></defs><path class="cls-1" d="M113.1,73.83c.12-.29.56-.1,1,0s.66.09.69.47a13.18,13.18,0,0,1,.82,2c.24,1.22-.15,7.6-7.25,10.82s-11.12,1-12.91-1.83a9.68,9.68,0,0,1-.58-2,3.87,3.87,0,0,0-.54-1.21,1.32,1.32,0,0,0-.72-.5.45.45,0,0,1-.28-.62c.07-.16.31-.25.52-.55.37-.53.88-1,1.3,0s1.12,1,1.75,1.3a9.29,9.29,0,0,0,9,.13c4.27-2.25,3.92-4.23,6.24-6.58A3.7,3.7,0,0,0,113.1,73.83Z"/><path class="cls-2" d="M114.05,73.78c.39,0,.66.09.69.47a13.18,13.18,0,0,1,.82,2c.24,1.22-.15,7.6-7.25,10.82s-11.12,1-12.91-1.83a9.68,9.68,0,0,1-.58-2,3.87,3.87,0,0,0-.54-1.21,1.32,1.32,0,0,0-.72-.5.45.45,0,0,1-.28-.62,1.41,1.41,0,0,1,.52-.55c1-.65.45-.11,1.14.76,1.49,1.87,6.63,5.12,11.74,2.16C113.08,79.58,113.66,73.73,114.05,73.78Z"/><path class="cls-3" d="M114.6,74.14c.13-.27-.24-.34-.55-.38s-.66-.19-.75,0c0,0,0,.12.14.17S114.53,74.26,114.6,74.14Z"/></svg>