<svg id="Layer_1" data-name="Layer 1" xmlns="http://www.w3.org/2000/svg" viewBox="0 0 260 168"><defs><style>.cls-1{fill:#d6c9ac;}.cls-2{fill:#eadec0;}.cls-3{fill:#e9dbb8;}.cls-4{fill:#ede2c8;}.cls-5{fill:#ed3330;}.cls-6{fill:#c0b59f;opacity:0.6;}</style></defs><path class="cls-1" d="M107,68.64l-.32-1.42s12.24.85,13.86,4l-2.23,3.64"/><path class="cls-2" d="M121.05,71.33s-7.14-3.9-15-3.14c0,0,4.82,18.08,3.35,24.36,0,0,6.07-.28,10.29,2.59,0,0,2.63,2.76,5,2.52s0-.3,0-.3S132.31,76,131.5,75.61"/><path class="cls-1" d="M138.57,63.85l-.46-1.16a32.18,32.18,0,0,1-7.54,3.08s-7.94,2.83-10.06,5.69h10.25c.17,0,8.56-4.61,8.56-4.61Z"/><path class="cls-3" d="M138.67,64.14,138.25,63a32.32,32.32,0,0,1-7.63,2.83s-8,2.56-10.25,5.35l10.25.33c.17,0,8.71-4.33,8.71-4.33Z"/><path class="cls-4" d="M120.56,71.22a39.06,39.06,0,0,1,11.83-4.87s4.46-.65,7-2.76c0,0,3.55,20.62,2.09,26.87,0,0-.57.73-4.87,1.14,0,0-3.76.57-5.73,2.43,0,0-4.26,3.82-6.77,3.66C124.09,97.69,124.21,82.59,120.56,71.22Z"/><path class="cls-5" d="M123.31,72.59a32.26,32.26,0,0,1,8.25-3.46l.57,5.73s-3.46,1.48-7.52,3A36.32,36.32,0,0,0,123.31,72.59Z"/><path class="cls-6" d="M132.94,74.22l-.7-5.36s4.49-.38,6.66-2.11c0,0,1.08,5,.81,5.73A10.8,10.8,0,0,0,132.94,74.22Z"/><path class="cls-6" d="M124.93,78.92s2.55,11.26,1.52,15.7a27.13,27.13,0,0,0,4.27-2.71s2.93-3.14,9.53-2.32c0,0,.59-6.77-.22-10,0,0-1.24-5.23-.28-6.09,0,0-4.76,1.11-7.05,2.68A66.08,66.08,0,0,1,124.93,78.92Z"/><path class="cls-6" d="M109.78,76.65s6.62-.05,10.73,1.84c0,0,2.2,13.8,1.39,16.13,0,0-2.32-3.3-8.22-3.3l-2.49-.22S111.51,81.68,109.78,76.65Z"/><path class="cls-6" d="M108.43,69.94a31.89,31.89,0,0,1,1.35,5.79,18.19,18.19,0,0,1,10.59,1.68s-.2-4.33-1.2-5.36A26.83,26.83,0,0,0,108.43,69.94Z"/></svg>