<svg id="Layer_1" data-name="Layer 1" xmlns="http://www.w3.org/2000/svg" xmlns:xlink="http://www.w3.org/1999/xlink" viewBox="0 0 260 168"><defs><style>.cls-1{fill:#603913;}.cls-2{fill:#c11;}.cls-3{fill:none;}.cls-4{fill:#935125;}.cls-5{fill:#8c4d22;}.cls-6{fill:#a50000;}.cls-7{fill:#935227;}.cls-8{fill:#9b582a;}.cls-9{fill:#fff;}.cls-10{fill:#4c2706;}.cls-11{clip-path:url(#clip-path);}.cls-12{fill:#773c1b;}.cls-13{clip-path:url(#clip-path-2);}.cls-14,.cls-17{opacity:0.49;}.cls-15{clip-path:url(#clip-path-3);}.cls-16,.cls-17,.cls-18{fill:#9a2424;}.cls-16{opacity:0.48;}.cls-18{opacity:0.42;}.cls-19{fill:#a00000;opacity:0.66;}</style><clipPath id="clip-path"><path class="cls-1" d="M235.46,103.54a7.44,7.44,0,0,0,3.13,0S238.17,105,237,105A1.58,1.58,0,0,1,235.46,103.54Z"/></clipPath><clipPath id="clip-path-2"><path class="cls-2" d="M238,105.76s1.43,1.28-2.71,4-2.59,2.61-3,3.51-1.54,8-.71,10.08,6.45,3.26,10,2.9c0,0,2.07-.36,1.44-3.68s-1.07-9-1.32-9.35,0-2.33-.35-3.46-.58-3.4-.67-3.58A3.75,3.75,0,0,0,238,105.76Z"/></clipPath><clipPath id="clip-path-3"><rect id="SVGID" class="cls-3" x="222.32" y="103.66" width="29.85" height="23.29" transform="translate(-0.51 1.05) rotate(-0.25)"/></clipPath></defs><path class="cls-4" d="M232.33,111.15l.84.53s-1.73,4.64-1.87,5.12-1.81.45-1.87-.23,1.95-5.5,1.95-5.5Z"/><path class="cls-4" d="M232.93,106.71l-1.61,4.49c-.12.34.9,1,1.79.61a43.71,43.71,0,0,0,1.46-4.66s.08-.76-.56-.9S233.05,106.39,232.93,106.71Z"/><path class="cls-5" d="M230.38,118.37a1.51,1.51,0,0,0-.57,1c-.06.59-.16.8-.51.78,0,0-.12-1.28-.11-1.31s.75-1.25.75-1.25l.48.16Z"/><path class="cls-4" d="M231.28,116.83s-.06.62-.13,1.22a4,4,0,0,1-.24,1.25c-.14.22-.57.22-.57-.62,0,0-.13-.29-.37,0a3.74,3.74,0,0,0-.62,1.4c0,.38-.53.32-.58-.19a5.85,5.85,0,0,1,.67-3.38S231.06,116.18,231.28,116.83Z"/><path class="cls-4" d="M241.83,111.15l-.84.53s1.72,4.64,1.87,5.12,1.81.45,1.87-.23-1.95-5.5-1.95-5.5Z"/><path class="cls-4" d="M241.23,106.71l1.61,4.49c.11.34-.9,1-1.79.61a43.71,43.71,0,0,1-1.46-4.66s-.08-.76.56-.9S241.11,106.39,241.23,106.71Z"/><path class="cls-5" d="M243.78,118.37a1.55,1.55,0,0,1,.57,1c.06.59.16.8.51.78,0,0,.12-1.28.11-1.31l-.75-1.25-.48.16Z"/><path class="cls-4" d="M242.88,116.83s.06.62.12,1.22a4,4,0,0,0,.25,1.25c.14.22.56.22.57-.62,0,0,.13-.29.37,0a3.74,3.74,0,0,1,.62,1.4c0,.38.53.32.58-.19a5.8,5.8,0,0,0-.68-3.38S243.1,116.18,242.88,116.83Z"/><path class="cls-4" d="M233.44,124.24l.48,4.16a2.72,2.72,0,0,0,2.23-.14l-.11-5.94S233.17,120.27,233.44,124.24Z"/><path class="cls-4" d="M236.14,128.26a3.37,3.37,0,0,0-2.31,0s-2.24.48-2.29,1.74a.7.7,0,0,0,.18.5h0a1.2,1.2,0,0,0,.31.21,2.63,2.63,0,0,0,.61.29c.43.13.7.57,2.37-.54C235.74,130,236.57,129.41,236.14,128.26Z"/><path class="cls-4" d="M233.7,131.11a1.52,1.52,0,0,1-1,.16c-.55-.12-.39-.37-.11-.5a.66.66,0,0,1-.57.15c-.28-.1-.2-.27.11-.35,0,0-.66.18-.71-.07s.41-.32.41-.32-.37.22-.52,0,.13-.36.37-.41a3.34,3.34,0,0,1-.37.09c-.09,0-.22-.34.31-.47l.52-.41,1.15.38Z"/><path class="cls-4" d="M240.61,124.24l-.48,4.16a2.72,2.72,0,0,1-2.23-.14l.11-5.94S240.88,120.27,240.61,124.24Z"/><path class="cls-4" d="M237.91,128.26a3.37,3.37,0,0,1,2.31,0s2.24.48,2.29,1.74a.7.7,0,0,1-.18.5h0a1.2,1.2,0,0,1-.31.21,2.63,2.63,0,0,1-.61.29c-.43.13-.7.57-2.37-.54C238.31,130,237.48,129.41,237.91,128.26Z"/><path class="cls-4" d="M240.35,131.11a1.52,1.52,0,0,0,1,.16c.55-.12.39-.37.11-.5a.66.66,0,0,0,.57.15c.28-.1.2-.27-.11-.35,0,0,.66.18.71-.07s-.42-.32-.42-.32.37.22.53,0-.13-.36-.37-.41a3.34,3.34,0,0,0,.37.09c.09,0,.22-.34-.31-.47l-.52-.41-1.15.38Z"/><path class="cls-6" d="M240.71,107.09c-.17-.53,0-.85-.54-1a11,11,0,0,0-3.19-.27,9,9,0,0,0-3.1.27c-.6.25-.46.79-.67,1.47-.54,1.76-.83,8.77-.89,10a.37.37,0,0,0,.24.36,14.36,14.36,0,0,0,4.4.48,15.65,15.65,0,0,0,4.53-.48.36.36,0,0,0,.24-.36C241.65,116.22,241.25,108.84,240.71,107.09Z"/><ellipse class="cls-4" cx="237.01" cy="106.35" rx="1.42" ry="0.52"/><path class="cls-4" d="M236.05,104.69s.1,1-.21,1.37h2.37s-.29-.21-.41-1.37Z"/><circle class="cls-7" cx="232.44" cy="101.04" r="1.44" transform="translate(91.29 311.55) rotate(-79.65)"/><circle class="cls-7" cx="241.61" cy="101.04" r="1.44" transform="translate(98.81 320.56) rotate(-79.65)"/><path class="cls-8" d="M241.67,100.66c0,2.9-1,4.87-4.65,4.87s-4.64-2-4.64-4.87,2.08-5.25,4.64-5.25S241.67,97.76,241.67,100.66Z"/><circle class="cls-9" cx="234.66" cy="101.04" r="1.32"/><circle cx="234.66" cy="101.04" r="0.86"/><circle class="cls-9" cx="234.04" cy="100.55" r="0.29"/><circle class="cls-9" cx="239.39" cy="101.04" r="1.32"/><circle cx="239.39" cy="101.04" r="0.86"/><circle class="cls-9" cx="238.78" cy="100.55" r="0.29"/><path class="cls-10" d="M235.14,98.35a2.07,2.07,0,0,0-1.34.19c-.29.14,0,.57.25.43a1.52,1.52,0,0,1,1-.14c.31,0,.44-.43.13-.48Z"/><path class="cls-10" d="M238.91,98.35a2.07,2.07,0,0,1,1.34.19c.28.14,0,.57-.25.43a1.52,1.52,0,0,0-1-.14c-.31,0-.44-.43-.13-.48Z"/><path class="cls-1" d="M235.46,103.54a7.44,7.44,0,0,0,3.13,0S238.17,105,237,105A1.58,1.58,0,0,1,235.46,103.54Z"/><g class="cls-11"><path class="cls-9" d="M235.5,103.35s.09.61,1.5.63,1.63-.7,1.63-.7l-3.17,0"/></g><path class="cls-10" d="M236.79,102.58s-.95-.06-1.24.52a.58.58,0,0,1-.83.33s.24.69,1.71.37S237.1,102.57,236.79,102.58Z"/><path class="cls-10" d="M237.26,102.58s1-.06,1.24.52a.58.58,0,0,0,.83.33s-.24.69-1.71.37S237,102.57,237.26,102.58Z"/><ellipse class="cls-12" cx="237.02" cy="102.74" rx="1.08" ry="0.46"/><path class="cls-2" d="M238,105.76s1.43,1.28-2.71,4-2.59,2.61-3,3.51-1.54,8-.71,10.08,6.45,3.26,10,2.9c0,0,2.07-.36,1.44-3.68s-1.07-9-1.32-9.35,0-2.33-.35-3.46-.58-3.4-.67-3.58A3.75,3.75,0,0,0,238,105.76Z"/><g class="cls-13"><g class="cls-14"><g class="cls-15"><rect class="cls-16" x="222.28" y="108.16" width="29.97" height="0.25" transform="translate(0.12 -0.25) rotate(0.06)"/><rect class="cls-16" x="212.63" y="117.35" width="27.52" height="0.27" transform="translate(344.17 -108.75) rotate(90.07)"/><rect class="cls-16" x="216.89" y="117.36" width="27.52" height="0.27" transform="translate(348.44 -113.01) rotate(90.07)"/><rect class="cls-16" x="221.16" y="117.36" width="27.52" height="0.27" transform="translate(352.72 -117.27) rotate(90.07)"/><rect class="cls-16" x="225.45" y="117.37" width="27.52" height="0.27" transform="translate(357.02 -121.56) rotate(90.07)"/><rect class="cls-16" x="229.75" y="117.37" width="27.52" height="0.27" transform="translate(361.33 -125.85) rotate(90.07)"/><rect class="cls-16" x="234.02" y="117.37" width="27.52" height="0.27" transform="translate(365.62 -130.12) rotate(90.07)"/><rect class="cls-16" x="222.27" y="112.77" width="29.97" height="0.25" transform="translate(0.12 -0.25) rotate(0.06)"/><rect class="cls-16" x="222.27" y="117.4" width="29.97" height="0.25" transform="matrix(1, 0, 0, 1, 0.13, -0.25)"/><rect class="cls-16" x="222.26" y="122.01" width="29.97" height="0.25" transform="matrix(1, 0, 0, 1, 0.13, -0.25)"/><rect class="cls-16" x="222.26" y="126.62" width="29.97" height="0.25" transform="translate(0.14 -0.25) rotate(0.06)"/><rect class="cls-17" x="222.28" y="109.84" width="29.83" height="1.46" transform="matrix(1, 0, 0, 1, 0.12, -0.25)"/><rect class="cls-17" x="222.27" y="114.45" width="29.83" height="1.46" transform="translate(0.12 -0.25) rotate(0.06)"/><rect class="cls-17" x="222.26" y="119.08" width="29.83" height="1.46" transform="translate(0.13 -0.25) rotate(0.06)"/><rect class="cls-17" x="222.28" y="105.27" width="29.83" height="1.46" transform="translate(0.11 -0.25) rotate(0.06)"/><rect class="cls-17" x="222.26" y="123.69" width="29.83" height="1.46" transform="translate(0.13 -0.25) rotate(0.06)"/><rect class="cls-18" x="223.6" y="103.72" width="1.25" height="27.52" transform="translate(0.13 -0.24) rotate(0.06)"/><rect class="cls-18" x="227.86" y="103.73" width="1.25" height="27.52" transform="translate(0.13 -0.24) rotate(0.06)"/><rect class="cls-18" x="232.08" y="103.73" width="1.25" height="27.52" transform="translate(0.13 -0.25) rotate(0.06)"/><rect class="cls-18" x="236.41" y="103.74" width="1.25" height="27.52" transform="translate(0.13 -0.25) rotate(0.06)"/><rect class="cls-18" x="240.72" y="103.74" width="1.25" height="27.52" transform="translate(0.13 -0.26) rotate(0.06)"/><rect class="cls-18" x="244.99" y="103.75" width="1.25" height="27.52" transform="translate(0.13 -0.26) rotate(0.06)"/><rect class="cls-18" x="249.27" y="103.75" width="1.25" height="27.52" transform="translate(0.13 -0.27) rotate(0.06)"/><path class="cls-19" d="M226.21,124.55c3.4-.36,6.94-.7,10.16.34a10.92,10.92,0,0,0,1.75.51,8.61,8.61,0,0,0,4.18-.8,6.39,6.39,0,0,1,4.2-.42,3.19,3.19,0,0,1-1.24.94,19.86,19.86,0,0,1-7,2.12,14.68,14.68,0,0,1-7.26-1.06,10.4,10.4,0,0,0-3.65-1.31c-.5,0-1.07,0-1.42-.3"/></g></g></g></svg>