<svg id="Layer_1" data-name="Layer 1" xmlns="http://www.w3.org/2000/svg" xmlns:xlink="http://www.w3.org/1999/xlink" viewBox="0 0 145.2 452.95"><defs><style>.cls-1{fill:none;}.cls-2{fill:#f9bc26;}.cls-3{clip-path:url(#clip-path);}.cls-4{fill:#784a30;}.cls-5{fill:#f49f28;}.cls-6{clip-path:url(#clip-path-2);}.cls-7{fill:#fbdb55;}.cls-8{clip-path:url(#clip-path-3);}.cls-9{clip-path:url(#clip-path-4);}.cls-10{clip-path:url(#clip-path-5);}.cls-11{fill:#90684e;}.cls-12{fill:#fbdc50;}.cls-13{fill:#fcdc53;}.cls-14{fill:#ffffbf;}.cls-15{fill:#7c2e18;}.cls-16{fill:#fff;}.cls-17{fill:#231f20;}.cls-18{fill:#cf8a00;}</style><clipPath id="clip-path"><path id="SVGID" class="cls-1" d="M112.13,368.59l.16,68.16a9.84,9.84,0,0,1-3,7.09h0a9.87,9.87,0,0,1-14.25-.46l-.18-.19a9.89,9.89,0,0,1-2.46-7.78l8-67.25S112.55,368.62,112.13,368.59Z"/></clipPath><clipPath id="clip-path-2"><path id="SVGID-2" data-name="SVGID" class="cls-1" d="M57.18,373l.16,68.16a9.84,9.84,0,0,1-3,7.09h0a9.88,9.88,0,0,1-14.26-.46l-.17-.19a9.89,9.89,0,0,1-2.46-7.78l8-67.25S57.6,373,57.18,373Z"/></clipPath><clipPath id="clip-path-3"><path id="SVGID-3" data-name="SVGID" class="cls-1" d="M119.22,367.9l10.53,67.34a9.81,9.81,0,0,1-1.86,7.46h0a9.87,9.87,0,0,1-14.15,1.72l-.21-.17a9.86,9.86,0,0,1-3.61-7.31l-2.3-67.69S119.64,367.87,119.22,367.9Z"/></clipPath><clipPath id="clip-path-4"><path id="SVGID-4" data-name="SVGID" class="cls-1" d="M119.38,369.81l10.53,67.34a9.89,9.89,0,0,1-1.86,7.46h0a9.89,9.89,0,0,1-14.16,1.72l-.2-.17a9.87,9.87,0,0,1-3.62-7.31l-2.3-67.69S119.79,369.78,119.38,369.81Z"/></clipPath><clipPath id="clip-path-5"><path id="SVGID-5" data-name="SVGID" class="cls-1" d="M64.64,374.2l10.53,67.35A9.91,9.91,0,0,1,73.31,449h0a9.88,9.88,0,0,1-14.16,1.71l-.2-.16a9.86,9.86,0,0,1-3.62-7.32L53,375.55S65.05,374.17,64.64,374.2Z"/></clipPath></defs><title>10_short_and_tall_tree</title><path class="cls-2" d="M112.13,368.59l.16,68.16a9.84,9.84,0,0,1-3,7.09h0a9.87,9.87,0,0,1-14.25-.46l-.18-.19a9.89,9.89,0,0,1-2.46-7.78l8-67.25S112.55,368.62,112.13,368.59Z"/><g class="cls-3"><path class="cls-4" d="M117.48,437.83l-29-2.12s0,13.59,14.22,14.62S117.48,437.83,117.48,437.83Z"/></g><path class="cls-5" d="M103,385.09a2.1,2.1,0,0,0,3,.49c.83-.87.41-2.27.32-3.47a5.42,5.42,0,0,1,.31-2.22c.64-1.78-1.35-2.56-2.8-2C101.84,378.74,101.92,383.67,103,385.09Z"/><path class="cls-5" d="M96.12,417.74c1-1.76,4.23-.44,5.42.46a10.07,10.07,0,0,1,3,3.68,21.4,21.4,0,0,1,1.65,8.8c0,1-.13,2.17-1,2.47a1.72,1.72,0,0,1-1.84-.86,15.53,15.53,0,0,1-.85-2,5,5,0,0,0-3.88-2.87,2.38,2.38,0,0,1-1.09-.28,1.85,1.85,0,0,1-.59-.9,17.78,17.78,0,0,1-1.2-5.9A5.08,5.08,0,0,1,96.12,417.74Z"/><path class="cls-2" d="M57.18,373l.16,68.16a9.84,9.84,0,0,1-3,7.09h0a9.88,9.88,0,0,1-14.26-.46l-.17-.19a9.89,9.89,0,0,1-2.46-7.78l8-67.25S57.6,373,57.18,373Z"/><g class="cls-6"><path class="cls-4" d="M62.53,442.24l-29.05-2.12s0,13.59,14.21,14.62S62.53,442.24,62.53,442.24Z"/></g><path class="cls-5" d="M43.66,408.35c-.61-1.87-1.73-5.67.54-6.67a6.11,6.11,0,0,1,6.51,1.06,7.07,7.07,0,0,1,2.11,3.94,20.87,20.87,0,0,1,.25,4.54,6.29,6.29,0,0,1-.29,2.17,2.13,2.13,0,0,1-1.57,1.4c-1.29.18-2.19-1.18-3.24-1.94-.6-.44-1.31-.7-1.93-1.11A6.3,6.3,0,0,1,43.66,408.35Z"/><path class="cls-7" d="M119.22,367.9l10.53,67.34a9.81,9.81,0,0,1-1.86,7.46h0a9.87,9.87,0,0,1-14.15,1.72l-.21-.17a9.86,9.86,0,0,1-3.61-7.31l-2.3-67.69S119.64,367.87,119.22,367.9Z"/><g class="cls-8"><path class="cls-4" d="M135,435.52l-29,2.33s2.1,13.42,16.28,12.28S135,435.52,135,435.52Z"/></g><path class="cls-7" d="M119.38,369.81l10.53,67.34a9.89,9.89,0,0,1-1.86,7.46h0a9.89,9.89,0,0,1-14.16,1.72l-.2-.17a9.87,9.87,0,0,1-3.62-7.31l-2.3-67.69S119.79,369.78,119.38,369.81Z"/><g class="cls-9"><path class="cls-4" d="M135.2,437.43l-29,2.33s2.1,13.42,16.28,12.28S135.2,437.43,135.2,437.43Z"/></g><path class="cls-2" d="M110.9,405.8c-.67-2.1-.49-3.59,1.31-5.12,1.28-1.08,2.83-.65,4,.38a6.94,6.94,0,0,1,1.85,3.2c1.56,5.17-.44,10.71-2.78,15.58-.29.6-.88,1.3-1.46,1a1.2,1.2,0,0,1-.46-.71c-.76-2.31-.73-4.8-1-7.22A33.58,33.58,0,0,0,110.9,405.8Z"/><path class="cls-7" d="M64.64,374.2l10.53,67.35A9.91,9.91,0,0,1,73.31,449h0a9.88,9.88,0,0,1-14.16,1.71l-.2-.16a9.86,9.86,0,0,1-3.62-7.32L53,375.55S65.05,374.17,64.64,374.2Z"/><g class="cls-10"><path class="cls-4" d="M80.45,441.82l-29,2.33s2.1,13.42,16.28,12.28S80.45,441.82,80.45,441.82Z"/></g><path class="cls-2" d="M63.64,394.67a2.31,2.31,0,0,0,1.14-1.79,6.83,6.83,0,0,0-.18-2.2L63.91,387c-.31-1.66-1.87-4.73-3.55-1.92C59,387.32,59.1,397,63.64,394.67Z"/><path class="cls-2" d="M58.19,436.56c-.77-2.62-4.08-9.6-1.86-12.07a1.94,1.94,0,0,1,1.35-.71c1,0,2.43,1.6,2.83,2.41.72,1.45.77,3.15,1.29,4.69.74,2.23,2.4,4,3.41,6.16a3,3,0,0,1,.37,1.39,2.27,2.27,0,0,1-1.43,1.83,6.5,6.5,0,0,1-2.4.43,2.63,2.63,0,0,1-1.28-.13,2.25,2.25,0,0,1-.74-.6A9.22,9.22,0,0,1,58.19,436.56Z"/><path class="cls-11" d="M29.28,292s-6.68-12.8-13.94-12.62c-2.31,1.4,6.91,5.51,4.1,5.73s-8-3.4-8.1-.15,6.55,1.09,7.45,2.23-8.43.68-8.2,3.49S24.8,291.53,29.28,292Z"/><path class="cls-12" d="M45.51,302.79s-9.37-11-17.66-13.53l-2.58,3s13.14,12.68,14,18.27Z"/><path class="cls-13" d="M105.91,288.57c-2.13,6.34-16,3.57-29.44,3.94-10.28.28-22.56,1.15-29.54,5.22-17,9.93-13,25.29-12.6,47.38s1,38.44,26.12,32.14c40.05-7.5,35.12,2.17,55.39-3s13.23-38.63,9.31-87.53Z"/><path class="cls-2" d="M65.1,324.37c3.13-3.25,14.12-4.46,18.82-5.43,4.44-.92,12-2.17,11.38,4.71-.24,2.79-3.07,4.72-3.72,7.44-.36,1.5,0,3.15-.66,4.56A5.31,5.31,0,0,1,89,337.76c-4.26,3-10,2.34-15,.87-3.25-1-6.56-2.33-8.68-5S62.74,326.8,65.1,324.37Z"/><path class="cls-2" d="M78.17,369.9c1.87,0,3.71.72,4-1.57.14-1.2-.82-2.8-1.34-3.85-1.23-2.45-3.3-4.82-6.33-4.56s-5.22,3.1-8.18,3.31c-2.06.14-4.09-1.05-6.12-.67-2.94.53-4.25,4.87-2.11,6.95,1.85,1.8,4.82,1.46,7.38,1.12A85.91,85.91,0,0,1,78.17,369.9Z"/><path class="cls-2" d="M109.65,354.15c2.19-2.65,5.77-4.38,8.3-6.77,3-2.78,5-2.2,5.79,2,.59,3.17.94,6.61-.56,9.46a10.1,10.1,0,0,1-8.05,4.94,6.36,6.36,0,0,1-5.2-1.44,6,6,0,0,1-1.45-4A6.11,6.11,0,0,1,109.65,354.15Z"/><path class="cls-2" d="M39.07,328.28a21.88,21.88,0,0,0,.61,2.87c.42,1.38,1.39,2.87,2.84,2.88,1.67,0,2.64-1.9,2.92-3.54a30.27,30.27,0,0,0,.23-5.87l-.28-10.22a5.27,5.27,0,0,0-.55-2.7A3.6,3.6,0,0,0,42,310.19c-2.87-.21-4.34,1.62-4.74,4.37a18.09,18.09,0,0,0,.2,5C37.87,322.47,38.59,325.39,39.07,328.28Z"/><circle class="cls-11" cx="99.56" cy="170.8" r="10.47"/><circle class="cls-11" cx="102.43" cy="188" r="10.47"/><circle class="cls-11" cx="94.87" cy="134.82" r="10.47"/><circle class="cls-11" cx="97.74" cy="152.01" r="10.47"/><circle class="cls-11" cx="90.63" cy="102.22" r="10.47"/><circle class="cls-11" cx="88.48" cy="85.71" r="10.47"/><circle class="cls-11" cx="93.49" cy="119.42" r="10.47"/><circle class="cls-11" cx="105.29" cy="205.2" r="10.47"/><circle class="cls-11" cx="108.16" cy="222.39" r="10.47"/><circle class="cls-11" cx="111.03" cy="239.59" r="10.47"/><circle class="cls-11" cx="113.89" cy="256.79" r="10.47"/><circle class="cls-11" cx="116.76" cy="273.99" r="10.47"/><circle class="cls-11" cx="119.28" cy="286.35" r="10.47"/><path class="cls-13" d="M101,301.45c-2.42-49-27.22-208.63-27.22-208.63-6.66-19.6.41-34.9,11.23-17.64s32.67,210.56,36.82,222.45Z"/><path class="cls-2" d="M116,289.25c1-2,.35-4,.42-6.18s.54-4,0-6a9.93,9.93,0,0,0-.92-2.12,7.81,7.81,0,0,0-2.72-3.16,3.36,3.36,0,0,0-3.92.23,16.5,16.5,0,0,0-3.72,6.23,6.3,6.3,0,0,0,.15,5c.6,1.13,1.64,2,2.33,3.06.79,1.27,1.06,2.82,1.93,4s2.79,1.94,3.82.86C114.91,291.56,115.29,290.69,116,289.25Z"/><path class="cls-2" d="M98.24,186.68c.43-3.15,1-8.83-1.47-11.45-1.71-1.85-4.27-2.43-5.46.65s.52,8.74.8,11.89c.12,1.39.39,3,1.64,3.64a2.83,2.83,0,0,0,3.35-1.1A7.76,7.76,0,0,0,98.24,186.68Z"/><path class="cls-2" d="M83.34,116.29c.42-3.15,1-8.83-1.48-11.45-1.71-1.85-4.26-2.43-5.46.65s.52,8.74.8,11.89c.12,1.39.4,3,1.64,3.64a2.84,2.84,0,0,0,3.36-1.1A7.87,7.87,0,0,0,83.34,116.29Z"/><path class="cls-2" d="M100.82,247.55l1.05,13.07a3.13,3.13,0,0,1-.57,2.6,2.14,2.14,0,0,1-3-.52,6.21,6.21,0,0,1-1-3.2c-.71-6.22-1.84-12.54-2.16-18.77a1.75,1.75,0,0,1,.48-1.58c.56-.38,1.31,0,1.85.39a14.54,14.54,0,0,1,1.35,1.14,3.34,3.34,0,0,1,.68.82,3.74,3.74,0,0,1,.3.91A27.76,27.76,0,0,1,100.82,247.55Z"/><path class="cls-2" d="M106,225.57c1-1.49,2.42-6,2.15-7.76a2.58,2.58,0,0,0-2.28-2.32,5,5,0,0,1-.86,0c-.74-.16-1-1-1.58-1.55a2.26,2.26,0,0,0-2.9-.06c-2.23,1.81,0,3.6.83,5.28.62,1.25.31,2.73.29,4.13s.5,3.06,1.86,3.39A2.49,2.49,0,0,0,106,225.57Z"/><path class="cls-2" d="M97.38,150.91c1.05-1.48,2.41-6,2.14-7.75a2.59,2.59,0,0,0-2.28-2.33,4.12,4.12,0,0,1-.86,0c-.73-.15-1-1-1.58-1.55a2.28,2.28,0,0,0-2.9-.06c-2.23,1.81,0,3.6.83,5.29.63,1.24.32,2.72.3,4.12s.5,3.06,1.85,3.39A2.51,2.51,0,0,0,97.38,150.91Z"/><path class="cls-13" d="M89.2,47S124.66,36.08,121,5.69A6.43,6.43,0,0,0,112.87.24C102.5,3.09,84.37,13,89.2,47Z"/><path class="cls-14" d="M89.43,46.76S113,39.52,110.55,19.34a4.28,4.28,0,0,0-5.4-3.62C98.26,17.61,86.23,24.16,89.43,46.76Z"/><path class="cls-13" d="M84.62,71.23s29.61,22.34,15.81,49.67a6.43,6.43,0,0,1-9.5,2.35C82.16,117,68.48,101.58,84.62,71.23Z"/><path class="cls-14" d="M84.76,71.52s19.66,14.84,10.49,33a4.26,4.26,0,0,1-6.3,1.57C83.12,101.94,74,91.68,84.76,71.52Z"/><polygon class="cls-13" points="93.29 47 132.8 40.99 133.46 48.48 97 57.57 93.29 47"/><circle class="cls-15" cx="136.53" cy="44.75" r="8.67"/><polygon class="cls-13" points="87.88 68.75 121.31 90.64 125.03 84.1 95.65 60.68 87.88 68.75"/><circle class="cls-15" cx="126.27" cy="88.77" r="8.67"/><path class="cls-13" d="M35.15,21.3s75.25-6.25,68.66,37S44.51,82.61,22.74,76.42Z"/><ellipse class="cls-14" cx="25.2" cy="45.81" rx="35.12" ry="24.18" transform="matrix(0.28, -0.96, 0.96, 0.28, -25.8, 57.35)"/><circle class="cls-16" cx="71.56" cy="43.02" r="9.01"/><circle class="cls-17" cx="71.56" cy="43.02" r="5.99"/><circle class="cls-18" cx="32.49" cy="39.44" r="4.66"/><circle class="cls-18" cx="29.22" cy="55.21" r="4.66"/><circle class="cls-16" cx="73.32" cy="46.79" r="1.92"/><circle class="cls-16" cx="65.09" cy="67.31" r="9.01"/><circle class="cls-17" cx="65.09" cy="67.31" r="5.99"/><circle class="cls-16" cx="66.85" cy="71.08" r="1.92"/><path class="cls-2" d="M90.53,71.68c5.65,4.7,11.65-12.4,11-15.83s-3.45-6.21-5.73-2a5.7,5.7,0,0,1-5.09,2.89c-1.09,0-2.22-.4-3.25,0-1.94.69-2.18,3.45-1.34,5.33S88.5,65.46,89,67.45C89.45,68.92,89.36,70.7,90.53,71.68Z"/><path class="cls-2" d="M87.78,35.22c-1.18-.39-2.4-1.23-2.49-2.46C84.67,24.76,97.94,38.52,87.78,35.22Z"/><path class="cls-2" d="M92.24,46c.16,3.8,6.12,5.44,8.49,2.61a3,3,0,0,0,.19-3.14c-.85-1.77-2.78-2.79-4.1-4.17a8.2,8.2,0,0,0-4.41-2.76.84.84,0,0,0-.52,0c-.42.21-.3.82-.15,1.26a9.9,9.9,0,0,1,.68,4A19.63,19.63,0,0,0,92.24,46Z"/><path class="cls-2" d="M61.42,79.89c-1.54,3.66,7,7,8.79,3.55,1.38-2.65-1.33-2.63-2.95-2.45S62.21,78,61.42,79.89Z"/><path class="cls-2" d="M85.86,81.13c-3.26,2.38-8.42,3.16-10.78.32a2.17,2.17,0,0,1-.54-1.4,2.12,2.12,0,0,1,1.09-1.66,5.87,5.87,0,0,1,2-.64c2.26-.44,4.65-.81,6.45-2.23a21.72,21.72,0,0,1,2.45-2.06.94.94,0,0,1,1.5.39C89.7,76.62,88.32,79.33,85.86,81.13Z"/><ellipse class="cls-18" cx="14.44" cy="39.19" rx="17.35" ry="5.02" transform="translate(-26.85 45.46) rotate(-78.41)"/></svg>