<svg xmlns="http://www.w3.org/2000/svg" xmlns:xlink="http://www.w3.org/1999/xlink" viewBox="0 0 489.26 394.36"><defs><style>.cls-1,.cls-18{fill:none;}.cls-2{fill:#93278f;}.cls-3{clip-path:url(#clip-path);}.cls-4{fill:#fc9a8d;}.cls-5{fill:#d4555e;}.cls-6{fill:#510706;}.cls-7{clip-path:url(#clip-path-2);}.cls-8{clip-path:url(#clip-path-3);}.cls-9{clip-path:url(#clip-path-4);}.cls-10{clip-path:url(#clip-path-5);}.cls-11{clip-path:url(#clip-path-6);}.cls-12{clip-path:url(#clip-path-7);}.cls-13{clip-path:url(#clip-path-8);}.cls-14,.cls-17{fill:#2f009a;}.cls-15{fill:#fff;}.cls-16{fill:#231f20;}.cls-17,.cls-18{stroke:#a81307;stroke-linecap:round;stroke-linejoin:round;}.cls-17{stroke-width:0.85px;}.cls-18{stroke-width:1.71px;}.cls-19{clip-path:url(#clip-path-9);}.cls-20{fill:#fa4316;}</style><clipPath id="clip-path"><path class="cls-1" d="M461.21,159c2-4.12-1.18-9.61-6-9s-3.38-8.33,7.65-9.61,37.76,6.71,21,34.85-78.7,21.55-100.21,14.94c-13.59-3.12-90.38,39.39-93.66,6,0,0,6.7-28.92,33.25-32.61"/></clipPath><clipPath id="clip-path-2"><path class="cls-1" d="M444.37,247.26c3.6-2.84,3.09-9.18-1.5-10.72s.55-9,11.05-5.35,31.14,22.38,3.9,40.52S377.54,257.1,361,241.84c-10.91-8.69-98.53-3.56-87-35.11,0,0,18.55-23.18,44.09-15"/></clipPath><clipPath id="clip-path-3"><path class="cls-1" d="M404.76,307.65c4.39-1.32,6.24-7.41,2.54-10.53s3.81-8.15,12.25-.92,20.76,32.25-11.25,39.12S339,292.27,329.2,272c-7-12.09-90.35-39.48-68.07-64.6,0,0,25.76-14.76,46.53,2.2"/></clipPath><clipPath id="clip-path-4"><path class="cls-1" d="M321.81,365c4.42,1.21,9.22-3,7.75-7.57s7.56-4.87,10.86,5.73.44,38.35-30.32,27.15S274.27,317,276.76,294.63c.54-13.94-55.54-81.47-23.31-90.9,0,0,29.67,1.2,38.23,26.6"/></clipPath><clipPath id="clip-path-5"><path class="cls-1" d="M28.06,159c-2-4.12,1.18-9.61,6-9s3.38-8.33-7.65-9.61-37.76,6.71-21,34.85,78.7,21.55,100.21,14.94c13.59-3.12,90.38,39.39,93.66,6,0,0-6.7-28.92-33.25-32.61"/></clipPath><clipPath id="clip-path-6"><path class="cls-1" d="M44.89,247.26c-3.6-2.84-3.09-9.18,1.5-10.72s-.55-9-11.05-5.35-31.14,22.38-3.9,40.52,80.28-14.6,96.82-29.85c10.91-8.69,98.53-3.56,87-35.11,0,0-18.55-23.18-44.09-15"/></clipPath><clipPath id="clip-path-7"><path class="cls-1" d="M84.5,307.65c-4.39-1.32-6.24-7.41-2.54-10.53s-3.81-8.15-12.25-.92S49,328.44,81,335.32s69.32-43,79.1-63.31c7-12.09,90.35-39.48,68.07-64.6,0,0-25.76-14.76-46.53,2.2"/></clipPath><clipPath id="clip-path-8"><path class="cls-1" d="M170.27,366.4c-4.4,1.31-9.28-2.76-7.9-7.4s-7.66-4.72-10.74,6,.36,38.35,30.88,26.51,34.29-74,31.34-96.35c-.83-13.92,53.82-82.61,21.41-91.37,0,0-29.63,1.82-37.67,27.39"/></clipPath><clipPath id="clip-path-9"><path class="cls-1" d="M209.69,165s31.95,20.59,69.57,0C279.26,165,244.48,225.33,209.69,165Z"/></clipPath></defs><title>17_highlight_the_big_octopus</title><g id="character"><path class="cls-2" d="M290,196.11s6.7-28.92,33.25-32.61,25.88-8.25,48.6-8.88c26.6-.74,66.41,29.46,89.32,4.35,2-4.12-1.18-9.61-6-9s-3.38-8.33,7.65-9.61,37.76,6.71,21,34.85-78.7,21.55-100.21,14.94C370.1,187,293.31,229.53,290,196.11Z"/><g class="cls-3"><path class="cls-4" d="M496.32,151s-2.13,29.2-47.21,32.65-102.05-27.4-158.26,34c0,0,79.65-11.07,83.5-13.31S495.9,224.86,496.32,151Z"/></g><circle class="cls-5" cx="478.43" cy="181.84" r="6.24" transform="translate(23.07 415.52) rotate(-47.98)"/><circle class="cls-6" cx="476.87" cy="183.29" r="3.82" transform="translate(21.48 414.84) rotate(-47.98)"/><circle class="cls-5" cx="445.35" cy="194.66" r="6.24" transform="translate(2.61 395.19) rotate(-47.98)"/><circle class="cls-6" cx="443.79" cy="196.11" r="3.82" transform="translate(1.02 394.5) rotate(-47.98)"/><circle class="cls-5" cx="405.25" cy="194.83" r="6.24" transform="translate(-10.77 365.46) rotate(-47.98)"/><circle class="cls-6" cx="403.69" cy="196.28" r="3.82" transform="translate(-12.36 364.77) rotate(-47.98)"/><circle class="cls-5" cx="371.94" cy="192.41" r="6.24" transform="translate(-19.98 339.91) rotate(-47.98)"/><circle class="cls-6" cx="370.37" cy="193.86" r="3.82" transform="translate(-21.58 339.22) rotate(-47.98)"/><circle class="cls-5" cx="340.48" cy="202.01" r="6.24" transform="translate(-37.51 319.71) rotate(-47.98)"/><circle class="cls-6" cx="338.92" cy="203.46" r="3.82" transform="translate(-39.11 319.03) rotate(-47.98)"/><path class="cls-2" d="M274,206.73s18.55-23.18,44.09-15,26.9,3.76,47.66,13C390,215.55,412.86,260,444.37,247.26c3.6-2.84,3.09-9.18-1.5-10.72s.55-9,11.05-5.35,31.14,22.38,3.9,40.52S377.54,257.1,361,241.84C350.09,233.15,262.47,238.28,274,206.73Z"/><g class="cls-7"><path class="cls-4" d="M479.46,255.28s-14.54,25.41-56.69,9-80.17-68.83-157.42-37.74c0,0,76.61,24.46,81,24.11S447.16,321.67,479.46,255.28Z"/></g><circle class="cls-5" cx="450.01" cy="275.33" r="6.24" transform="translate(-70.9 191.87) rotate(-22.36)"/><circle class="cls-6" cx="447.98" cy="275.96" r="3.82" transform="translate(-71.29 191.14) rotate(-22.36)"/><circle class="cls-5" cx="414.64" cy="272.58" r="6.24" transform="translate(-72.52 178.21) rotate(-22.36)"/><circle class="cls-6" cx="412.61" cy="273.21" r="3.82" transform="translate(-72.91 177.48) rotate(-22.36)"/><circle class="cls-5" cx="378.41" cy="255.4" r="6.24" transform="translate(-68.7 163.14) rotate(-22.36)"/><circle class="cls-6" cx="376.37" cy="256.03" r="3.82" transform="translate(-69.09 162.41) rotate(-22.36)"/><circle class="cls-5" cx="349.42" cy="238.81" r="6.24" transform="translate(-64.57 150.86) rotate(-22.36)"/><circle class="cls-6" cx="347.38" cy="239.44" r="3.82" transform="translate(-64.96 150.13) rotate(-22.36)"/><circle class="cls-5" cx="316.91" cy="233.86" r="6.24" transform="matrix(0.92, -0.38, 0.38, 0.92, -65.13, 138.12)"/><circle class="cls-6" cx="314.87" cy="234.49" r="3.82" transform="translate(-65.53 137.4) rotate(-22.36)"/><path class="cls-2" d="M261.13,207.41s25.76-14.76,46.53,2.2S331.3,223,347.21,239.21c18.63,19,23.56,68.73,57.55,68.44,4.39-1.32,6.24-7.41,2.54-10.53s3.81-8.15,12.25-.92,20.76,32.25-11.25,39.12S339,292.27,329.2,272C322.24,259.92,238.85,232.53,261.13,207.41Z"/><g class="cls-8"><path class="cls-4" d="M434.46,328s-22.86,18.3-56-12.41S329.1,222.13,245.84,222.7c0,0,62.28,50.87,66.54,52.17S380,377.9,434.46,328Z"/></g><circle class="cls-5" cx="399.71" cy="335.83" r="6.24" transform="translate(-4.79 5.79) rotate(-0.83)"/><circle class="cls-6" cx="397.58" cy="335.67" r="3.82" transform="translate(-4.79 5.76) rotate(-0.83)"/><circle class="cls-5" cx="367.82" cy="320.29" r="6.24" transform="translate(-4.57 5.33) rotate(-0.83)"/><circle class="cls-6" cx="365.69" cy="320.13" r="3.82" transform="translate(-4.57 5.3) rotate(-0.83)"/><circle class="cls-5" cx="340.42" cy="291.01" r="6.24" transform="translate(-4.16 4.93) rotate(-0.83)"/><circle class="cls-6" cx="338.29" cy="290.85" r="3.82" transform="translate(-4.15 4.9) rotate(-0.83)"/><circle class="cls-5" cx="319.54" cy="264.94" r="6.24" transform="translate(-3.78 4.63) rotate(-0.83)"/><circle class="cls-6" cx="317.41" cy="264.78" r="3.82" transform="translate(-3.78 4.6) rotate(-0.83)"/><circle class="cls-5" cx="291.11" cy="248.41" r="6.24" transform="translate(-3.55 4.22) rotate(-0.83)"/><circle class="cls-6" cx="288.98" cy="248.24" r="3.82" transform="translate(-3.54 4.19) rotate(-0.83)"/><path class="cls-2" d="M253.45,203.72s29.67,1.2,38.23,26.6,12.92,23.9,17.77,46.1c5.68,26-16.58,70.74,12.36,88.57,4.42,1.21,9.22-3,7.75-7.57s7.56-4.87,10.86,5.73.44,38.35-30.32,27.15S274.27,317,276.76,294.63C277.3,280.69,221.22,213.16,253.45,203.72Z"/><g class="cls-9"><path class="cls-4" d="M336.15,398s-29.09,3.35-40.87-40.31,7.91-105.37-62.91-149.15c0,0,25.71,76.2,28.62,79.56S263.54,411.34,336.15,398Z"/></g><circle class="cls-5" cx="302.55" cy="386.17" r="6.24" transform="translate(-184.59 444.14) rotate(-58.71)"/><circle class="cls-6" cx="300.84" cy="384.9" r="3.82" transform="matrix(0.52, -0.85, 0.85, 0.52, -184.33, 442.07)"/><circle class="cls-5" cx="283.8" cy="356.05" r="6.24" transform="translate(-167.86 413.64) rotate(-58.71)"/><circle class="cls-6" cx="282.08" cy="354.79" r="3.82" transform="translate(-167.6 411.57) rotate(-58.71)"/><circle class="cls-5" cx="276.16" cy="316.69" r="6.24" transform="translate(-137.89 388.2) rotate(-58.71)"/><circle class="cls-6" cx="274.45" cy="315.42" r="3.82" transform="translate(-137.64 386.12) rotate(-58.71)"/><circle class="cls-5" cx="272.34" cy="283.5" r="6.24" transform="translate(-111.38 368.98) rotate(-58.71)"/><circle class="cls-6" cx="270.62" cy="282.24" r="3.82" transform="translate(-111.12 366.91) rotate(-58.71)"/><circle class="cls-5" cx="257.05" cy="254.39" r="6.24" transform="translate(-93.84 341.92) rotate(-58.71)"/><circle class="cls-6" cx="255.33" cy="253.12" r="3.82" transform="translate(-93.58 339.85) rotate(-58.71)"/><path class="cls-2" d="M199.23,196.11s-6.7-28.92-33.25-32.61-25.88-8.25-48.6-8.88C90.77,153.88,51,184.08,28.06,159c-2-4.12,1.18-9.61,6-9s3.38-8.33-7.65-9.61-37.76,6.71-21,34.85,78.7,21.55,100.21,14.94C119.17,187,196,229.53,199.23,196.11Z"/><g class="cls-10"><path class="cls-4" d="M-7.06,151s2.13,29.2,47.21,32.65,102.05-27.4,158.26,34c0,0-79.65-11.07-83.5-13.31S-6.64,224.86-7.06,151Z"/></g><circle class="cls-5" cx="10.83" cy="181.84" r="6.24" transform="translate(-118.94 54.01) rotate(-42.02)"/><circle class="cls-6" cx="12.4" cy="183.29" r="3.82" transform="translate(-119.51 55.43) rotate(-42.02)"/><circle class="cls-5" cx="43.91" cy="194.66" r="6.24" transform="translate(-119.02 79.45) rotate(-42.02)"/><circle class="cls-6" cx="45.48" cy="196.11" r="3.82" transform="translate(-119.59 80.87) rotate(-42.02)"/><circle class="cls-5" cx="84.01" cy="194.83" r="6.24" transform="translate(-108.82 106.33) rotate(-42.02)"/><circle class="cls-6" cx="85.58" cy="196.28" r="3.82" transform="translate(-109.39 107.76) rotate(-42.02)"/><circle class="cls-5" cx="117.33" cy="192.41" r="6.24" transform="translate(-98.64 128.01) rotate(-42.02)"/><circle class="cls-6" cx="118.89" cy="193.86" r="3.82" transform="translate(-99.2 129.44) rotate(-42.02)"/><circle class="cls-5" cx="148.78" cy="202.01" r="6.24" transform="translate(-96.98 151.54) rotate(-42.02)"/><circle class="cls-6" cx="150.35" cy="203.46" r="3.82" transform="translate(-97.54 152.96) rotate(-42.02)"/><path class="cls-2" d="M215.3,206.73s-18.55-23.18-44.09-15-26.9,3.76-47.66,13C99.24,215.55,76.41,260,44.89,247.26c-3.6-2.84-3.09-9.18,1.5-10.72s-.55-9-11.05-5.35-31.14,22.38-3.9,40.52,80.28-14.6,96.82-29.85C139.17,233.15,226.79,238.28,215.3,206.73Z"/><g class="cls-11"><path class="cls-4" d="M9.8,255.28s14.54,25.41,56.69,9,80.17-68.83,157.42-37.74c0,0-76.61,24.46-81,24.11S42.1,321.67,9.8,255.28Z"/></g><circle class="cls-5" cx="39.25" cy="275.33" r="6.24" transform="translate(-230.31 206.9) rotate(-67.64)"/><circle class="cls-6" cx="41.29" cy="275.96" r="3.82" transform="translate(-229.63 209.17) rotate(-67.64)"/><circle class="cls-5" cx="74.62" cy="272.58" r="6.24" transform="translate(-205.86 237.91) rotate(-67.64)"/><circle class="cls-6" cx="76.66" cy="273.21" r="3.82" transform="translate(-205.17 240.18) rotate(-67.64)"/><circle class="cls-5" cx="110.85" cy="255.4" r="6.24" transform="translate(-167.51 260.77) rotate(-67.64)"/><circle class="cls-6" cx="112.89" cy="256.03" r="3.82" transform="translate(-166.83 263.04) rotate(-67.64)"/><circle class="cls-5" cx="139.84" cy="238.81" r="6.24" transform="translate(-134.21 277.3) rotate(-67.64)"/><circle class="cls-6" cx="141.88" cy="239.44" r="3.82" transform="translate(-133.53 279.58) rotate(-67.64)"/><circle class="cls-5" cx="172.36" cy="233.86" r="6.24" transform="translate(-109.49 304.31) rotate(-67.64)"/><circle class="cls-6" cx="174.39" cy="234.49" r="3.82" transform="translate(-108.81 306.58) rotate(-67.64)"/><path class="cls-2" d="M228.14,207.41s-25.76-14.76-46.53,2.2S158,223,142.05,239.21c-18.63,19-23.56,68.73-57.55,68.44-4.39-1.32-6.24-7.41-2.54-10.53s-3.81-8.15-12.25-.92S49,328.44,81,335.32s69.32-43,79.1-63.31C167,259.92,250.41,232.53,228.14,207.41Z"/><g class="cls-12"><path class="cls-4" d="M54.8,328s22.86,18.3,56-12.41,49.32-93.45,132.58-92.88c0,0-62.28,50.87-66.54,52.17S109.22,377.9,54.8,328Z"/></g><circle class="cls-5" cx="89.55" cy="335.83" r="6.24" transform="translate(-247.53 420.54) rotate(-89.17)"/><circle class="cls-6" cx="91.68" cy="335.67" r="3.82" transform="translate(-245.27 422.5) rotate(-89.17)"/><circle class="cls-5" cx="121.45" cy="320.29" r="6.24" transform="translate(-200.56 437.12) rotate(-89.17)"/><circle class="cls-6" cx="123.57" cy="320.13" r="3.82" transform="translate(-198.3 439.08) rotate(-89.17)"/><circle class="cls-5" cx="148.84" cy="291.01" r="6.24" transform="translate(-144.28 435.65) rotate(-89.17)"/><circle class="cls-6" cx="150.97" cy="290.85" r="3.82" transform="translate(-142.02 437.62) rotate(-89.17)"/><circle class="cls-5" cx="169.72" cy="264.94" r="6.24" transform="translate(-97.63 430.83) rotate(-89.17)"/><circle class="cls-6" cx="171.85" cy="264.78" r="3.82" transform="translate(-95.37 432.8) rotate(-89.17)"/><circle class="cls-5" cx="198.15" cy="248.41" r="6.24" transform="translate(-53.08 442.96) rotate(-89.17)"/><circle class="cls-6" cx="200.28" cy="248.24" r="3.82" transform="translate(-50.82 444.93) rotate(-89.17)"/><path class="cls-2" d="M235.25,203.75s-29.63,1.82-37.67,27.39-12.42,24.16-16.81,46.46c-5.14,26.11,18.05,70.38-10.51,88.8-4.4,1.31-9.28-2.76-7.9-7.4s-7.66-4.72-10.74,6,.36,38.35,30.88,26.51,34.29-74,31.34-96.35C213,281.2,267.67,212.52,235.25,203.75Z"/><g class="cls-13"><path class="cls-4" d="M156.62,399.72s29.15,2.74,40-41.15-10.11-105.18,59.79-150.43c0,0-24.11,76.72-27,80.14S229.5,411.54,156.62,399.72Z"/></g><circle class="cls-5" cx="189.96" cy="387.18" r="6.24" transform="translate(-178.23 162.61) rotate(-32.49)"/><circle class="cls-6" cx="191.65" cy="385.88" r="3.82" transform="matrix(0.84, -0.54, 0.54, 0.84, -177.26, 163.31)"/><circle class="cls-5" cx="208.09" cy="356.68" r="6.24" transform="translate(-159.01 167.57) rotate(-32.49)"/><circle class="cls-6" cx="209.77" cy="355.38" r="3.82" transform="translate(-158.05 168.28) rotate(-32.49)"/><circle class="cls-5" cx="214.9" cy="317.17" r="6.24" transform="translate(-136.72 165.05) rotate(-32.49)"/><circle class="cls-6" cx="216.59" cy="315.86" r="3.82" transform="translate(-135.76 165.75) rotate(-32.49)"/><circle class="cls-5" cx="218.03" cy="283.91" r="6.24" transform="translate(-118.37 161.53) rotate(-32.49)"/><circle class="cls-6" cx="219.72" cy="282.61" r="3.82" transform="matrix(0.84, -0.54, 0.54, 0.84, -117.4, 162.23)"/><circle class="cls-5" cx="232.71" cy="254.48" r="6.24" transform="translate(-100.27 164.81) rotate(-32.49)"/><circle class="cls-6" cx="234.4" cy="253.18" r="3.82" transform="translate(-99.3 165.51) rotate(-32.49)"/><path class="cls-2" d="M255.89.59a140.64,140.64,0,0,0-25.69,0c-87.77,6.62-93.65,99.11-80.74,125.34a235.6,235.6,0,0,0,15.39,26.59,22.37,22.37,0,0,0,11,36.58c1.75,16.15,35.89,21.16,59.83,22,2.14.09,4.62.14,7.34.14s5.19,0,7.34-.14c23.71-.84,57.41-5.77,59.77-21.54a22.37,22.37,0,0,0,11.46-38.91c4.45-6.88,9.72-14.6,15-24.73C350.15,100.1,343.46,9.84,255.89.59Z"/><circle class="cls-14" cx="213.57" cy="122.65" r="26.41"/><circle class="cls-15" cx="213.57" cy="124.71" r="23.25"/><circle class="cls-16" cx="213.57" cy="124.71" r="18.34"/><circle class="cls-15" cx="221.38" cy="116.4" r="6.92"/><circle class="cls-14" cx="277.13" cy="122.65" r="26.41"/><circle class="cls-15" cx="277.13" cy="124.71" r="23.25"/><circle class="cls-16" cx="277.13" cy="124.71" r="18.34"/><circle class="cls-15" cx="284.94" cy="116.4" r="6.92"/><path class="cls-17" d="M209.69,165s31.95,20.59,69.57,0C279.26,165,244.48,225.33,209.69,165Z"/><path class="cls-18" d="M203,165.55a8.68,8.68,0,0,0,11-5.1"/><path class="cls-18" d="M286.71,165.55a8.68,8.68,0,0,1-11-5.1"/><g class="cls-19"><path class="cls-20" d="M231.27,192.49s-.56-8.43,5.38-8.43,6.82,3.37,6.82,3.37.88-3.85,7.38-3.85,5.54,12.36,5.54,12.36Z"/></g><path class="cls-17" d="M197.65,79.42h28.4S211.85,68.06,197.65,79.42Z"/><path class="cls-17" d="M263.92,79.42h28.4S278.12,68.06,263.92,79.42Z"/></g></svg>