<svg xmlns="http://www.w3.org/2000/svg" xmlns:xlink="http://www.w3.org/1999/xlink" viewBox="0 0 474.59 404.82"><defs><style>.cls-1,.cls-18{fill:none;}.cls-2{fill:#93278f;}.cls-3{clip-path:url(#clip-path);}.cls-4{fill:#fc9a8d;}.cls-5{fill:#d4555e;}.cls-6{fill:#510706;}.cls-7{clip-path:url(#clip-path-2);}.cls-8{clip-path:url(#clip-path-3);}.cls-9{clip-path:url(#clip-path-4);}.cls-10{clip-path:url(#clip-path-5);}.cls-11{clip-path:url(#clip-path-6);}.cls-12{clip-path:url(#clip-path-7);}.cls-13{clip-path:url(#clip-path-8);}.cls-14,.cls-17{fill:#2f009a;}.cls-15{fill:#fff;}.cls-16{fill:#231f20;}.cls-17,.cls-18{stroke:#a81307;stroke-linecap:round;stroke-linejoin:round;}.cls-17{stroke-width:0.85px;}.cls-18{stroke-width:1.71px;}.cls-19{clip-path:url(#clip-path-9);}.cls-20{fill:#fa4316;}</style><clipPath id="clip-path"><path class="cls-1" d="M427.53,79c.16-4.58-5-8.29-9.16-5.78s-6.5-6.22,3-11.9,37.2-9.33,33.45,23.19-63,51.87-85.32,54.64c-13.68,2.71-66.35,72.93-83,43.78,0,0-5.72-29.13,17-43.37"/></clipPath><clipPath id="clip-path-2"><path class="cls-1" d="M446.54,165.36c2.16-4-.84-9.65-5.66-9.23s-3.08-8.45,8-9.33,37.5,8,19.78,35.57S389.22,201.11,368,193.74c-13.47-3.6-91.73,36.15-93.81,2.64,0,0,7.73-28.67,34.39-31.41"/></clipPath><clipPath id="clip-path-3"><path class="cls-1" d="M425.22,263.9c3.95-2.33,4.3-8.68,0-10.83s1.76-8.82,11.67-3.81,27.84,26.38-1.61,40.67-77.57-25.3-91.9-42.65c-9.63-10.09-97.15-16.83-81.49-46.54,0,0,21.51-20.46,45.71-8.94"/></clipPath><clipPath id="clip-path-4"><path class="cls-1" d="M358.3,339.34c4.58.13,8.26-5.06,5.72-9.19s6.18-6.53,11.91,3,9.56,37.14-23,33.59-52.25-62.67-55.16-85c-2.8-13.66-73.33-65.9-44.28-82.74,0,0,29.1-5.9,43.47,16.73"/></clipPath><clipPath id="clip-path-5"><path class="cls-1" d="M28.06,164.44c-1.95-4.15,1.34-9.59,6.14-8.92s3.52-8.28-7.49-9.73-37.86,6.1-21.59,34.5,78.34,22.82,100,16.57c13.64-2.9,89.73,40.85,93.55,7.49,0,0-6.23-29-32.72-33.15"/></clipPath><clipPath id="clip-path-6"><path class="cls-1" d="M49.44,261.4c-3.77-2.61-3.65-9,.83-10.8s-1.11-8.92-11.36-4.66-29.7,24.26-1.38,40.68,79.22-19.54,94.78-35.79c10.35-9.35,98.12-9.66,84.69-40.43,0,0-20-22-44.93-12.27"/></clipPath><clipPath id="clip-path-7"><path class="cls-1" d="M114.17,340.14c-4.58-.24-7.83-5.71-5-9.62s-5.64-7-12.11,2-12.49,36.26,20.24,35.32,57.08-58.31,61.76-80.32c3.88-13.4,78.35-59.85,50.74-78.95,0,0-28.54-8.2-44.66,13.21"/></clipPath><clipPath id="clip-path-8"><path class="cls-1" d="M211.45,376.79c-4,2.32-9.67-.47-9.44-5.31s-8.56-2.76-9,8.34,9.48,37.16,36.31,18.4,15.68-80.08,7.5-101c-4.12-13.32,32.61-93-1-93.84,0,0-28.35,8.82-30.07,35.57"/></clipPath><clipPath id="clip-path-9"><path class="cls-1" d="M201.94,167.82s34.26,16.46,69-8.64C271,159.17,244,223.37,201.94,167.82Z"/></clipPath></defs><title>17_highlight_the_big_octopus</title><g id="character"><path class="cls-2" d="M286.55,183s-5.72-29.13,17-43.37,20.24-18.12,40.71-28c24-11.56,72.66-.29,83.28-32.58.16-4.58-5-8.29-9.16-5.78s-6.5-6.22,3-11.9,37.2-9.33,33.45,23.19-63,51.87-85.32,54.64C355.87,141.91,303.21,212.13,286.55,183Z"/><g class="cls-3"><path class="cls-4" d="M456.32,57.43s10,27.51-29.72,49.11S322.27,123.3,296.13,202.36c0,0,68.15-42.69,70.74-46.31S486.15,125,456.32,57.43Z"/></g><circle class="cls-5" cx="452.61" cy="92.86" r="6.24" transform="translate(225.36 495.14) rotate(-72.13)"/><circle class="cls-6" cx="451.77" cy="94.82" r="3.82" transform="translate(222.91 495.71) rotate(-72.13)"/><circle class="cls-5" cx="427.67" cy="118.09" r="6.24" transform="translate(184.06 488.9) rotate(-72.13)"/><circle class="cls-6" cx="426.83" cy="120.05" r="3.82" transform="translate(181.61 489.47) rotate(-72.13)"/><circle class="cls-5" cx="391.15" cy="134.66" r="6.24" transform="translate(142.98 465.63) rotate(-72.13)"/><circle class="cls-6" cx="390.32" cy="136.62" r="3.82" transform="translate(140.53 466.19) rotate(-72.13)"/><circle class="cls-5" cx="359.76" cy="146.08" r="6.24" transform="translate(110.35 443.67) rotate(-72.13)"/><circle class="cls-6" cx="358.93" cy="148.04" r="3.82" transform="translate(107.9 444.24) rotate(-72.13)"/><circle class="cls-5" cx="334.99" cy="167.71" r="6.24" transform="translate(72.59 435.09) rotate(-72.13)"/><circle class="cls-6" cx="334.15" cy="169.67" r="3.82" transform="translate(70.14 435.65) rotate(-72.13)"/><path class="cls-2" d="M274.16,196.38s7.73-28.67,34.39-31.41,26.16-7.32,48.88-7.14c26.61.21,65.32,31.81,89.11,7.53,2.16-4-.84-9.65-5.66-9.23s-3.08-8.45,8-9.33,37.5,8,19.78,35.57S389.22,201.11,368,193.74C354.49,190.14,276.24,229.89,274.16,196.38Z"/><g class="cls-7"><path class="cls-4" d="M481.91,158.68s-3.16,29.11-48.35,30.95-101-31-159.37,28.38c0,0,80-8.22,83.92-10.32S478.87,232.45,481.91,158.68Z"/></g><circle class="cls-5" cx="462.94" cy="188.83" r="6.24" transform="translate(5.3 390.15) rotate(-45.94)"/><circle class="cls-6" cx="461.33" cy="190.22" r="3.82" transform="translate(3.8 389.42) rotate(-45.94)"/><circle class="cls-5" cx="429.43" cy="200.46" r="6.24" transform="translate(-13.27 369.61) rotate(-45.94)"/><circle class="cls-6" cx="427.81" cy="201.85" r="3.82" transform="translate(-14.76 368.88) rotate(-45.94)"/><circle class="cls-5" cx="389.35" cy="199.2" r="6.24" transform="translate(-24.57 340.43) rotate(-45.94)"/><circle class="cls-6" cx="387.73" cy="200.59" r="3.82" transform="translate(-26.06 339.69) rotate(-45.94)"/><circle class="cls-5" cx="356.14" cy="195.59" r="6.24" transform="translate(-32.09 315.47) rotate(-45.94)"/><circle class="cls-6" cx="354.52" cy="196.99" r="3.82" transform="translate(-33.58 314.73) rotate(-45.94)"/><circle class="cls-5" cx="324.36" cy="204.07" r="6.24" transform="translate(-47.86 295.22) rotate(-45.94)"/><circle class="cls-6" cx="322.75" cy="205.46" r="3.82" transform="translate(-49.35 294.48) rotate(-45.94)"/><path class="cls-2" d="M261.85,200.74s21.51-20.46,45.71-8.94,26.15,7.35,45.47,19.33c22.62,14,39.25,61.14,72.19,52.77,3.95-2.33,4.3-8.68,0-10.83s1.76-8.82,11.67-3.81,27.84,26.38-1.61,40.67-77.57-25.3-91.9-42.65C333.71,237.19,246.2,230.45,261.85,200.74Z"/><g class="cls-8"><path class="cls-4" d="M458.91,276.59s-17.84,23.21-57.39,1.29-70.15-79-150.88-58.65c0,0,72.6,34.58,77,34.83S417.94,338,458.91,276.59Z"/></g><circle class="cls-5" cx="427.02" cy="292.48" r="6.24" transform="matrix(0.97, -0.25, 0.25, 0.97, -59.93, 117.06)"/><circle class="cls-6" cx="424.92" cy="292.83" r="3.82" transform="translate(-60.08 116.54) rotate(-14.6)"/><circle class="cls-5" cx="392.35" cy="284.98" r="6.24" transform="matrix(0.97, -0.25, 0.25, 0.97, -59.16, 108.08)"/><circle class="cls-6" cx="390.24" cy="285.33" r="3.82" transform="translate(-59.31 107.56) rotate(-14.6)"/><circle class="cls-5" cx="358.77" cy="263.06" r="6.24" transform="translate(-54.72 98.91) rotate(-14.6)"/><circle class="cls-6" cx="356.66" cy="263.41" r="3.82" transform="translate(-54.87 98.39) rotate(-14.6)"/><circle class="cls-5" cx="332.28" cy="242.71" r="6.24" transform="translate(-50.44 91.57) rotate(-14.6)"/><circle class="cls-6" cx="330.17" cy="243.06" r="3.82" transform="translate(-50.6 91.06) rotate(-14.6)"/><circle class="cls-5" cx="300.73" cy="233.42" r="6.24" transform="translate(-49.12 83.32) rotate(-14.6)"/><circle class="cls-6" cx="298.63" cy="233.77" r="3.82" transform="translate(-49.28 82.8) rotate(-14.6)"/><path class="cls-2" d="M253.51,199s29.1-5.9,43.47,16.73,18.24,20.13,28.23,40.54c11.71,23.9.74,72.65,33.09,83.08,4.58.13,8.26-5.06,5.72-9.19s6.18-6.53,11.91,3,9.56,37.14-23,33.59-52.25-62.67-55.16-85C295,268.07,224.46,215.83,253.51,199Z"/><g class="cls-9"><path class="cls-4" d="M380.09,368s-27.45,10.18-49.29-29.42-17.4-104.23-96.61-129.89c0,0,43.11,67.89,46.74,70.46S312.74,398.24,380.09,368Z"/></g><circle class="cls-5" cx="344.64" cy="364.5" r="6.24" transform="translate(-106.7 583.43) rotate(-72.48)"/><circle class="cls-6" cx="342.67" cy="363.67" r="3.82" transform="translate(-107.29 580.98) rotate(-72.48)"/><circle class="cls-5" cx="319.26" cy="339.71" r="6.24" transform="translate(-100.8 541.9) rotate(-72.48)"/><circle class="cls-6" cx="317.29" cy="338.89" r="3.82" transform="translate(-101.39 539.45) rotate(-72.48)"/><circle class="cls-5" cx="302.47" cy="303.3" r="6.24" transform="translate(-77.81 500.44) rotate(-72.48)"/><circle class="cls-6" cx="300.5" cy="302.47" r="3.82" transform="translate(-78.4 497.98) rotate(-72.48)"/><circle class="cls-5" cx="290.85" cy="271.98" r="6.24" transform="translate(-56.06 467.47) rotate(-72.48)"/><circle class="cls-6" cx="288.89" cy="271.15" r="3.82" transform="matrix(0.3, -0.95, 0.95, 0.3, -56.65, 465.02)"/><circle class="cls-5" cx="269.07" cy="247.34" r="6.24" transform="translate(-47.79 429.48) rotate(-72.48)"/><circle class="cls-6" cx="267.1" cy="246.51" r="3.82" transform="translate(-48.38 427.02) rotate(-72.48)"/><path class="cls-2" d="M198.6,204.35s-6.23-29-32.72-33.15-25.75-8.67-48.45-9.66c-26.59-1.17-66.88,28.38-89.38,2.9-1.95-4.15,1.34-9.59,6.14-8.92s3.52-8.28-7.49-9.73-37.86,6.1-21.59,34.5,78.34,22.82,100,16.57C118.7,194,194.79,237.71,198.6,204.35Z"/><g class="cls-10"><path class="cls-4" d="M-6.92,155.94s1.65,29.23,46.68,33.41,102.49-25.74,157.69,36.6c0,0-79.46-12.36-83.27-14.66S-7.7,229.77-6.92,155.94Z"/></g><circle class="cls-5" cx="10.46" cy="187.03" r="6.24" transform="translate(-120.36 52.96) rotate(-41.09)"/><circle class="cls-6" cx="12" cy="188.51" r="3.82" transform="matrix(0.75, -0.66, 0.66, 0.75, -120.95, 54.33)"/><circle class="cls-5" cx="43.33" cy="200.38" r="6.24" transform="translate(-121.04 77.85) rotate(-41.09)"/><circle class="cls-6" cx="44.87" cy="201.86" r="3.82" transform="translate(-121.63 79.23) rotate(-41.09)"/><circle class="cls-5" cx="83.42" cy="201.2" r="6.24" transform="translate(-111.7 104.4) rotate(-41.09)"/><circle class="cls-6" cx="84.96" cy="202.68" r="3.82" transform="translate(-112.29 105.78) rotate(-41.09)"/><circle class="cls-5" cx="116.77" cy="199.32" r="6.24" transform="translate(-102.25 125.86) rotate(-41.09)"/><circle class="cls-6" cx="118.31" cy="200.8" r="3.82" transform="translate(-102.84 127.24) rotate(-41.09)"/><circle class="cls-5" cx="148.07" cy="209.43" r="6.24" transform="translate(-101.18 148.92) rotate(-41.09)"/><circle class="cls-6" cx="149.61" cy="210.91" r="3.82" transform="translate(-101.77 150.3) rotate(-41.09)"/><path class="cls-2" d="M217,210.4s-20-22-44.93-12.27-26.62,5.41-46.76,15.94c-23.59,12.32-43.63,58.1-75.87,47.33-3.77-2.61-3.65-9,.83-10.8s-1.11-8.92-11.36-4.66-29.7,24.26-1.38,40.68,79.22-19.54,94.78-35.79C142.66,241.48,230.43,241.18,217,210.4Z"/><g class="cls-11"><path class="cls-4" d="M14.91,271.58S31,296,72,277.08s75.76-73.66,154.78-47.42c0,0-74.95,29.16-79.4,29.08S51.26,335.85,14.91,271.58Z"/></g><circle class="cls-5" cx="45.54" cy="289.77" r="6.24" transform="translate(-243.44 239.46) rotate(-71.19)"/><circle class="cls-6" cx="47.61" cy="290.27" r="3.82" transform="translate(-242.51 241.76) rotate(-71.19)"/><circle class="cls-5" cx="80.67" cy="284.83" r="6.24" transform="translate(-214.96 269.37) rotate(-71.19)"/><circle class="cls-6" cx="82.75" cy="285.34" r="3.82" transform="translate(-214.03 271.68) rotate(-71.19)"/><circle class="cls-5" cx="115.77" cy="265.44" r="6.24" transform="translate(-172.82 289.46) rotate(-71.19)"/><circle class="cls-6" cx="117.84" cy="265.94" r="3.82" transform="translate(-171.89 291.76) rotate(-71.19)"/><circle class="cls-5" cx="143.68" cy="247.09" r="6.24" transform="translate(-136.53 303.44) rotate(-71.19)"/><circle class="cls-6" cx="145.75" cy="247.59" r="3.82" transform="translate(-135.61 305.74) rotate(-71.19)"/><circle class="cls-5" cx="175.82" cy="240.14" r="6.24" transform="translate(-108.18 329.16) rotate(-71.19)"/><circle class="cls-6" cx="177.9" cy="240.64" r="3.82" transform="translate(-107.25 331.46) rotate(-71.19)"/><path class="cls-2" d="M229.81,208.59s-28.54-8.2-44.66,13.21S165.36,240.42,153.77,260c-13.57,22.89-6.53,72.36-39.6,80.18-4.58-.24-7.83-5.71-5-9.62s-5.64-7-12.11,2-12.49,36.26,20.24,35.32,57.08-58.31,61.76-80.32C182.95,274.15,257.42,227.69,229.81,208.59Z"/><g class="cls-12"><path class="cls-4" d="M90.16,367s26.55,12.33,51.48-25.4S167.29,239.07,248.3,219.8c0,0-48.38,64.24-52.21,66.51S154.89,402.49,90.16,367Z"/></g><circle class="cls-5" cx="125.78" cy="366.31" r="6.24" transform="translate(-78.87 37.49) rotate(-12.95)"/><circle class="cls-6" cx="127.81" cy="365.65" r="3.82" transform="translate(-78.67 37.93) rotate(-12.95)"/><circle class="cls-5" cx="153.06" cy="343.63" r="6.24" transform="translate(-73.1 43.03) rotate(-12.95)"/><circle class="cls-6" cx="155.09" cy="342.97" r="3.82" transform="translate(-72.9 43.47) rotate(-12.95)"/><circle class="cls-5" cx="172.7" cy="308.67" r="6.24" transform="translate(-64.77 46.54) rotate(-12.95)"/><circle class="cls-6" cx="174.72" cy="308" r="3.82" transform="translate(-64.57 46.98) rotate(-12.95)"/><circle class="cls-5" cx="186.77" cy="278.38" r="6.24" transform="translate(-57.62 48.92) rotate(-12.95)"/><circle class="cls-6" cx="188.8" cy="277.71" r="3.82" transform="translate(-57.42 49.36) rotate(-12.95)"/><circle class="cls-5" cx="210.45" cy="255.55" r="6.24" transform="translate(-51.91 53.65) rotate(-12.95)"/><circle class="cls-6" cx="212.47" cy="254.89" r="3.82" transform="translate(-51.71 54.08) rotate(-12.95)"/><path class="cls-2" d="M235.85,203.35s-28.35,8.82-30.07,35.57-6.31,26.42-5.26,49.12c1.23,26.59,34.29,64.06,10.93,88.75-4,2.32-9.67-.47-9.44-5.31s-8.56-2.76-9,8.34,9.48,37.16,36.31,18.4,15.68-80.08,7.5-101C232.69,283.86,269.42,204.14,235.85,203.35Z"/><g class="cls-13"><path class="cls-4" d="M206.12,412.4s29-4.28,29.07-49.5-34.86-99.75,22.26-160.34c0,0-5.16,80.25-7.11,84.25S279.72,406.53,206.12,412.4Z"/></g><circle class="cls-5" cx="235.53" cy="392.28" r="6.24" transform="translate(-210.73 291.21) rotate(-46.26)"/><circle class="cls-6" cx="236.86" cy="390.62" r="3.82" transform="translate(-209.11 291.66) rotate(-46.26)"/><circle class="cls-5" cx="245.87" cy="358.35" r="6.24" transform="translate(-183.02 288.21) rotate(-46.26)"/><circle class="cls-6" cx="247.2" cy="356.68" r="3.82" transform="translate(-181.4 288.66) rotate(-46.26)"/><circle class="cls-5" cx="243.08" cy="318.35" r="6.24" transform="translate(-154.98 273.85) rotate(-46.26)"/><circle class="cls-6" cx="244.41" cy="316.68" r="3.82" transform="translate(-153.36 274.3) rotate(-46.26)"/><circle class="cls-5" cx="238.2" cy="285.3" r="6.24" transform="translate(-132.61 260.13) rotate(-46.26)"/><circle class="cls-6" cx="239.53" cy="283.63" r="3.82" transform="translate(-131 260.58) rotate(-46.26)"/><circle class="cls-5" cx="245.46" cy="253.22" r="6.24" transform="translate(-107.2 255.47) rotate(-46.26)"/><circle class="cls-6" cx="246.78" cy="251.55" r="3.82" transform="translate(-105.58 255.92) rotate(-46.26)"/><path class="cls-2" d="M207.53,1.12a140.64,140.64,0,0,0-25,6.12c-83.67,27.33-67.36,118.55-48.58,141a235.6,235.6,0,0,0,21.28,22.16,22.37,22.37,0,0,0,19.42,32.9c5.55,15.27,39.89,12,63.35,7.14,2.1-.42,4.52-1,7.16-1.61s5-1.28,7.09-1.88c22.83-6.46,54.39-19.27,52.92-35.15a22.37,22.37,0,0,0,1.87-40.52c2.68-7.74,6-16.5,8.7-27.59C322.77,75.32,294.79-10.75,207.53,1.12Z"/><circle class="cls-14" cx="195.48" cy="129.74" r="26.41" transform="translate(-25.27 50.27) rotate(-13.77)"/><circle class="cls-15" cx="195.97" cy="131.73" r="23.25" transform="translate(-25.73 50.44) rotate(-13.77)"/><circle class="cls-16" cx="195.97" cy="131.73" r="18.34" transform="translate(-25.73 50.44) rotate(-13.77)"/><circle class="cls-15" cx="201.58" cy="121.81" r="6.92" transform="translate(-23.2 51.49) rotate(-13.77)"/><circle class="cls-14" cx="257.22" cy="114.61" r="26.41" transform="translate(-19.89 64.53) rotate(-13.77)"/><circle class="cls-15" cx="257.71" cy="116.6" r="23.25" transform="translate(-20.35 64.7) rotate(-13.77)"/><circle class="cls-16" cx="257.71" cy="116.6" r="18.34" transform="translate(-20.35 64.7) rotate(-13.77)"/><circle class="cls-15" cx="263.31" cy="106.68" r="6.92" transform="translate(-17.83 65.75) rotate(-13.77)"/><path class="cls-17" d="M201.94,167.82s34.26,16.46,69-8.64C271,159.17,244,223.37,201.94,167.82Z"/><path class="cls-18" d="M195.4,169.2a8.68,8.68,0,0,0,10.27-6.43"/><path class="cls-18" d="M278.43,158.8a8.68,8.68,0,0,1-11.54-3.7"/><g class="cls-19"><path class="cls-20" d="M226.77,192.42s-1.6-8.29,4.29-9,7.19,2.5,7.19,2.5.4-3.93,6.85-4.74,7,11.58,7,11.58Z"/></g><path class="cls-17" d="M169.73,91.54l27.58-6.76S180.82,77.13,169.73,91.54Z"/><path class="cls-17" d="M232.09,67.77,259.68,61S243.18,53.36,232.09,67.77Z"/></g></svg>