<svg id="Layer_1" data-name="Layer 1" xmlns="http://www.w3.org/2000/svg" viewBox="0 0 260 168"><defs><style>.cls-1{fill:#4b3320;}.cls-2{fill:#647432;}</style></defs><path class="cls-1" d="M55.87-47.48a4.89,4.89,0,0,1,1.67,2C55.31-43.3,53-41.11,51-38.73a34.06,34.06,0,0,0-5.61,7.89,6.53,6.53,0,0,0-.52,4.41c.84,3.46,5,6,8.73,5.39a5,5,0,0,0,2.68-1.23c2.46-2.27,5-4.48,7.41-6.77,5.37-5,10.61-10.17,14.82-16.29A19.89,19.89,0,0,0,82.1-53l1.32,0A32.66,32.66,0,0,1,81.3-36.87a3.43,3.43,0,0,0-.18,1.07c0,.66.31.9.91.7a7.21,7.21,0,0,0,2.15-1.28A78.44,78.44,0,0,0,99.84-54.11a9.31,9.31,0,0,0,3.86-3.15,16.3,16.3,0,0,1,.49,4.61A8.47,8.47,0,0,1,102.53-48c-2.08,2.7-4.14,5.4-6.18,8.13a18.27,18.27,0,0,0-2.12,3.53,3.06,3.06,0,0,0-.06,2.82c-1.13.67-1.2,1.91-1.55,3l-3.15,2.17c-.75.08-1.37-.41-2.08-.48-.41,0-1.33-.91-1.11.57,0,.34-.44.4-.76.4A18.91,18.91,0,0,1,83.26-28c-.8-.13-1.61-.51-2.43-.1-1-.9-1.89-1.86-2.9-2.7-2.06-1.68-3.69-1.5-5.34.59-2.26,2.87-4.22,6-6.78,8.6-3.16,3.34-7.26,4.17-11.54,4.61a88.48,88.48,0,0,0-13.81,2.13C37.27-14,34.1-13,31.85-10.41c-2.53,3-5.27,5.71-8,8.48A103.14,103.14,0,0,0,16,6.68c-2,2.51-2,2.54,1.1,3.41,4.7,1.33,9.53,1.93,14.3,2.83a37,37,0,0,0,12.84.44,121.17,121.17,0,0,0,25-6.84C78.16,3,86.47-1.69,94.62-6.74a9.34,9.34,0,0,0,5-.28,4.73,4.73,0,0,1,.93-.12c-1,.87-1.89,1.76-2.87,2.6a124.42,124.42,0,0,1-11.94,9C80.41,8,74.32,9.3,68.3,10.83a16.86,16.86,0,0,0-4.1,1.35,92,92,0,0,0,10,.9,147,147,0,0,0,25.42-1.3c6.25-.87,12.13-2.61,17.36-6.37,3.8-2.74,7.68-5.39,12.22-6.75.92-.1,1.93.34,2.74-.46L133.68-2c0,2.56.5,3.18,2.43,3.2.81,0,1-.17.56-.95-.91-1.63-.71-2,1.09-2.53l.79-.25,2.52-.2a3.08,3.08,0,0,1,.81,1.17,9.69,9.69,0,0,0,2,2.85c.5.49.82.58,1-.27.43-1.84,1.88-2.4,3.39-1.39a3.62,3.62,0,0,1,1.45,1.86c-4.66,1.2-9.34,2.38-14,3.62a91.65,91.65,0,0,0-13.41,4.36,20.34,20.34,0,0,0-4.62,2.78,29.31,29.31,0,0,1-13.55,5.71c-7.38,1.31-14.8.87-22.21.49-9.3-.48-18.59-.6-27.76,1.45a15.29,15.29,0,0,0-3,.82c-3.28,1.51-6.69,1.2-10.11.94-7.49-.54-14.92-1.61-22.42-2-5.49-.27-8.71,2.36-9.22,8-.91,9.83-1.13,19.67.4,29.49,1.47,9.36,2.9,18.74,3.07,28.25.08,4.27-.34,8.51-.45,12.77-.14,5.4.59,40.81,2,46.08.85,3.19,2.23,6,5.67,7.48-1.94.81-3.69.33-5.42.13-.36,0-.71-.14-1.06-.21-2-.39-2-.39-2,1.67a9.07,9.07,0,0,0,.37,2.54c.08.26.29.55,0,.77s-.56,0-.77-.13c-1.3-.87-2.6-1.74-3.87-2.66-3.3-2.39-3.31-2.41-6.57,0a11.14,11.14,0,0,0-3.25,3c-1.3-1.05-1.89-3.75-1.07-5.71.52-1.23-.06-1.29-.93-1.34a35.46,35.46,0,0,0-5.73.32c-.22,0-.36.06-.5-.23,1.75-.58-.72-.87.75-2a6.72,6.72,0,0,0,2.69-5.24c.42-15.38.27-60.77.21-76.16,0-14-.21-28-.9-42-.11-2.17.34-4.33,0-6.49-.73-5,.93-9.13-3.64-11.21s-8.79-4.81-11.4-9.48c0,0-.12.06-.14.11-.9,2.05-1.73,2.2-3.34.61-1-1-1.71-2.36-2.86-3.29a23.5,23.5,0,0,0-9.4-4.31A66,66,0,0,0-55-11.24c-.63,0-.73.23-.84.81C-56-9.55-55.95-8.3-57-8.1s-1.41-1-1.93-1.74c-.11-.16-.19-.35-.3-.52-.45-.7-.52-2-1.23-2.06s-1.42.77-2.11,1.24c-1.86,1.27-3.74,2.52-5.55,3.85-1.13.83-2.32.53-3.46.33a40.63,40.63,0,0,1-7.46-2.12,21.69,21.69,0,0,0-8.53-1.56,6,6,0,0,0-5.17,2.77A61.76,61.76,0,0,0-97.44.43c-.78-4.07.69-10.28,5-13.25,1.85-1.28,3.72-2.59,6.13-2.34.1,0,.25.05.28,0s0-.16-.14-.19c-2.78-3.84-6.69-4.91-11.07-4.6-3.59.26-6.69,2-9.73,3.78-1.82,1.09-3.6,2.25-5.49,3.23a5.4,5.4,0,0,1-5.65-.1,75.54,75.54,0,0,1-11.3-8,57,57,0,0,0-10.08-7c-1.26-.69-2.45-1.5-3.68-2.26,1.43-1.21,3.22-1.53,4.9-2.13l2.12,2.51-1.55.74,0,.29h3a4.52,4.52,0,0,0,2.15,1A26.43,26.43,0,0,1-118.32-19,2.9,2.9,0,0,0-115.77-18a9.94,9.94,0,0,0,1.88-.29c3.7-.9,7.09-2.65,10.59-4.1A2.49,2.49,0,0,0-102-24.57a14.56,14.56,0,0,0,.09-2.09,28.76,28.76,0,0,0-1.47-7.16,29.27,29.27,0,0,0,5.54,2.49c.18.71.39,1.41.55,2.13.29,1.31.86,2.66.49,4s.18,1.74,1.12,2.11a16.68,16.68,0,0,0,1.92.65c2.58.69,5.17,1.32,7.75,2a8.19,8.19,0,0,1,4.42,2.87c4,4.9,11.1,8.24,17.88,3a16.62,16.62,0,0,1,8.21-3.1c1.26-.16,2.52,0,3.79-.21a4.82,4.82,0,0,0-1.06-.58c-3.86-1.63-7.75-3.17-11.53-5-.65-.31-1.66-.7-1.41-1.52.18-.62,1.22-.3,1.85-.21,2.4.32,4.8.74,7.2,1.1A16.86,16.86,0,0,0-52-24c1.68-.22,2.17-1.26,1.36-2.77a8,8,0,0,0-2.29-2.47,35.79,35.79,0,0,0-10.44-5.28c-2.91-1-5.88-1.87-9-1.58A45.77,45.77,0,0,1-86.49-37c-2.76-.61-5.48-1.41-7.65-3.44a13.32,13.32,0,0,1,3.82.78c3.55,1.4,7,.64,10.39-.46a12.72,12.72,0,0,0,6.73.32,9.14,9.14,0,0,1,2.6-.28c4.32.21,8.35,1.64,12.34,3.17a53.85,53.85,0,0,1,12.32,6.12c.58.41.88.26.88-.47a4,4,0,0,0-.07-.85,22.23,22.23,0,0,0-6.43-11.24,5.2,5.2,0,0,0-3.63-1.32,65.35,65.35,0,0,1-7.53-.27c-4.33-.5-7-2.8-7.64-6.8a3.57,3.57,0,0,0-2.72-3.17,10.88,10.88,0,0,0-2.71-.44,68.94,68.94,0,0,0-9.19.58c-2.49.22-5,.62-7.5.12s-3.18-1.75-2.34-4.23a66.44,66.44,0,0,1,2.87-6.85,2.73,2.73,0,0,1,2.49,0c-.31.84-.67,1.66-.91,2.52-.73,2.55,0,3.66,2.53,3.86,4.09.32,8.2.51,12.29.84a16.22,16.22,0,0,1,6.67,1.73,4.62,4.62,0,0,1,2.6,3.57,5,5,0,0,0,2.91,3.79,14.44,14.44,0,0,0,4.45,1.31c4.07.61,8.26.22,12.2,2,2,.9,4,1.61,4.62,4.13.8-1,1-1.73,1.26-4.2a10.58,10.58,0,0,0-6.28-11,18.39,18.39,0,0,0-4.13-1.17c-6-1.11-9.15-4.12-10.1-9.52a8.39,8.39,0,0,1,3.94-.79c3.72,2,7.12,4.58,10.91,6.48A28,28,0,0,1-41.31-59a7.37,7.37,0,0,1,2.76,5.23,56.36,56.36,0,0,1-.94,16c-.37,2-1.17,3.88-1.27,5.84a17.34,17.34,0,0,0,4.5,12.29,4.89,4.89,0,0,0,1.09.94c1.3.88,2.25.68,3.18-.6,1.16-1.61,2.34-3.21,3.49-4.82A48.06,48.06,0,0,0-22-35.5a16.71,16.71,0,0,0,.9-9.61,26.55,26.55,0,0,0-2.2-5,25.65,25.65,0,0,1-2.45-9.62c1.46.77,3,.26,4.48.26.08.57.16,1.13.25,1.7a16.85,16.85,0,0,0,1.86,6,3.81,3.81,0,0,0,3.72,2.17,9,9,0,0,0,8.08-9.12,9.65,9.65,0,0,1,3.29-1.59c.14.92.32,1.85.43,2.78.87,7.77-1.78,14-9.63,16.91a6.64,6.64,0,0,0-3,2.17,17.61,17.61,0,0,0-2.32,3.84,33.06,33.06,0,0,0-2.89,12.66c-.21,5.57,1.82,9.76,7,12.09A26,26,0,0,1-11-7.91,7.42,7.42,0,0,1-8-4.33c.7,1.81,1.41,2.08,3.11,1.23a6.74,6.74,0,0,0,1.12-.69,35.49,35.49,0,0,0,11-14.85,6.07,6.07,0,0,0,.06-4.42,18.28,18.28,0,0,1-1.08-6c-.09-5,1.82-9.37,4.52-13.43a79.81,79.81,0,0,0,5.16-8.38l2.61,0c.31,0,.67,0,.85-.31s-.18-.57-.36-.8a4.86,4.86,0,0,1-1.27-2.69c.27-.86.54-1.72.8-2.59A9.33,9.33,0,0,1,21.06-58a38.87,38.87,0,0,1-.72,9.51C19.52-44.2,18.43-40,16-36.39,14.35-34,15.19-32,18-31.67c3.2.38,5.64-1.1,7.62-3.49,2.45-3,3.47-6.54,4.09-10.29.53-3.24.4-6.52.63-9.78.74.3.92,1.08,1.34,1.65A42.69,42.69,0,0,0,35-49.89c-.09,1.1-.24,2.2-.27,3.3-.1,4.74-1.65,8.78-5.28,11.85-.49.42-.92.92-1.39,1.35a38.06,38.06,0,0,1-10.32,7.23c-2.05.88-4.14,1.47-6.3.14-.72-.45-1.22-.08-1.26.81a18.43,18.43,0,0,0,.11,3.06,65.72,65.72,0,0,1,.77,9.4C10.94-9,10.11-5.54,6.83-3.21a7.91,7.91,0,0,0-2,2.27,7,7,0,0,0-.11,8.16c1.9,2.94,1.9,2.44,3.64.28,2.9-3.59,5.61-7.34,8.44-11a79.84,79.84,0,0,1,9.42-10.93,7.64,7.64,0,0,1,3.88-2c.82-.14,1.61-.45,2.42-.66,4-1.08,6.3-3.77,6.39-8,.1-5,2.38-8.78,5.69-12.12,1-1,2-1.93,3-2.85C50.32-42.56,53.25-44.84,55.87-47.48ZM-51-17.71c-.06,0-.12-.09-.19-.09a.48.48,0,0,0-.18.08c.06,0,.12.09.18.09S-51.07-17.68-51-17.71Z"/><path class="cls-2" d="M80.83-28.1c.82-.41,1.63,0,2.43.1a18.91,18.91,0,0,0,2.26.13c.32,0,.81-.06.76-.4-.22-1.48.7-.61,1.11-.57.71.07,1.33.56,2.08.48,2.41,1.08,3.15.61,3.16-2.05a.49.49,0,0,0,0-.12c.35-1.09.42-2.33,1.55-3A12.39,12.39,0,0,1,97-31.94a7.47,7.47,0,0,0,2.27,1.06c1.48.37,2,.16,2.75-1.2A7.7,7.7,0,0,1,103.31-34c.25-.25.49-.67.88-.52s.38.66.41,1.06a13.81,13.81,0,0,0,.2,2.56c.33,1.3.89,1.63,2.09,1.16a8.15,8.15,0,0,0,2.67-1.83c.56-.54.83-1.11-.24-1.56a2.54,2.54,0,0,1,2.28.82c2.27,2.05,4.18,1.93,6.15-.36,1.27-1.48,2.45-1.48,3.72,0A18,18,0,0,0,123-30.95a2,2,0,0,0,3.18-.1,26.34,26.34,0,0,0,2.25-2.87c1-1.34,1.89-1.29,2.33.33.54,2,1.8,2.58,3.61,2.67a26.72,26.72,0,0,0,3.58-.13,2.15,2.15,0,0,0,1.79-1.6A2.12,2.12,0,0,1,142.25-34c.93.1,1.19.59.79,1.42-.28.58-.66,1.11-1,1.67,2.61,1.06,4.66-.08,6-3.36a5.61,5.61,0,0,0,3,2c3.09,1.05,6,2.7,9.18,3.42A3.73,3.73,0,0,1,163-26.58c.92,2.07,2.08,2.6,4.23,2a12.76,12.76,0,0,0,4-2.17c1.75-1.27,2.21-1.26,3.32.63,1.75,3,4.49,3.78,7.57,4.19,2.08.28,4.14.82,6.19,1.3a2.7,2.7,0,0,1,2.08,2,2.87,2.87,0,0,0,3,2.16c2,.14,4-.2,6-.19.94,0,2.09-.18,2.58.84s-.15,2-.72,2.83a9.05,9.05,0,0,1-.66.87c-1.17,1.42-1.39,1.46-3,.58a6.47,6.47,0,0,0-3.39-1,2.14,2.14,0,0,0-2.19,1.86A4.86,4.86,0,0,0,192.59-7c.45.71.88,1.48.36,2.27s-1.44.77-2.28.54c-2.67-.69-5.33-1.39-8-2.14-.66-.19-.88-.27-.91.66a2.81,2.81,0,0,1-3.25,2.83,3.79,3.79,0,0,0-3.76,1.54c-.92,1.21-2.56,1.23-4,1.33a38.51,38.51,0,0,1-4.43,0,4.08,4.08,0,0,0-2.83.77,4.26,4.26,0,0,1-3.32.61,1.56,1.56,0,0,0-1.79,1c-1.58,2.92-2.36,3-4.52.51-.42-.48-.88-1-1.52-.7-1.14.5-1.89-.06-2.63-.8A3.62,3.62,0,0,0,148.3-.42c-1.51-1-3-.45-3.39,1.39-.2.85-.52.76-1,.27a9.69,9.69,0,0,1-2-2.85,3.08,3.08,0,0,0-.81-1.17c-.91-.92-1.71-.24-2.52.2l-.79.25c-1.8.49-2,.9-1.09,2.53.43.78.25,1-.56,1-1.93,0-2.42-.64-2.43-3.2.21-1.76-.87-2.88-2-4-.2-.21-.46-.58-.79-.32s-.08.53,0,.81c.25,1.28.94,2.43,1.08,3.74-.81.8-1.82.36-2.74.46-.53-.42-.47-1-.4-1.57s.18-1.45.2-2.18c0-.31-.11-.73-.46-.79s-.49.35-.58.65c-.17.54-.26,1.11-.44,1.65-.06.2-.09.77-.47.43-.7-.62-1.2-.09-1.73.18-1.47.75-3,.63-4.78.57a11.62,11.62,0,0,0,1-.79c.62-.62,1.1-1.45.33-2.12s-1,.45-1.32.85a3.94,3.94,0,0,1-2.89,1.51c-.43,0-1,.05-1.15-.43s.26-.74.56-1c.46-.39,1-.73,1.43-1.11.18-.14.51-.44.35-.52-.63-.34-.75-1.21-1.32-1.44s-1.23.22-1.71.65-1.13,1.15-1.7,1.73c-.18.18-.42.32-.63.14a.71.71,0,0,1-.14-.55A7.5,7.5,0,0,1,114-8.06c.23-.49.71-1,0-1.45s-1.33-.54-1.9.21a1.2,1.2,0,0,1-1,.63c-1.4,0-1.51.23-.9,1.66.15.37.7.81.27,1.15s-.78-.23-1.14-.47a4.2,4.2,0,0,1-.66-.52,1.33,1.33,0,0,0-1.84-.21c-.45.26-.9.54-1.36.77s-.81.27-1.08-.13C103.34-8,102-7.57,100.55-7.14a4.73,4.73,0,0,0-.93.12,9.34,9.34,0,0,1-5,.28,1.69,1.69,0,0,0-2.38,0A3.53,3.53,0,0,1,88-6a1.75,1.75,0,0,0-2.47.78,1,1,0,0,1-1.5.5,1.57,1.57,0,0,0-1.87.36,20.8,20.8,0,0,0-1.64,1.61,4.72,4.72,0,0,1-4.8,1.49,14.43,14.43,0,0,1-3.44-1c-.29-.13-.55-.35-.89-.27-1.59.37-3.18.77-4.78,1.11-.44.09-.44.82-1,.64a15.17,15.17,0,0,1-4.49-1.94c-.3-.21-.67-.53-.39-.9.71-.91-.09-.78-.52-.8-1.19,0-2.39,0-3.59-.07-.26,0-.91,0-.62-.4,1-1.15-.12-1.27-.67-1.63a10.36,10.36,0,0,1-1.38-1.35c-.66-.64-.49-1,.26-1.3,1.15-.47,2.3-.93,3.42-1.46.68-.32.7-.71,0-1.07s-1.36-.32-1.92-.88c.72-.6,2-.51,2.08-1.42.17-1.15.68-.81,1.28-.62a10.36,10.36,0,0,0,4.07.87,2,2,0,0,0,1.56-.76c.45-.67-.47-.83-.51-1.4a10,10,0,0,1,3.52-.27,2.59,2.59,0,0,0,1.8-.52,1,1,0,0,0,.37-.86c-.07-.38-.42-.3-.67-.38-.68-.22-1.37-.44-2-.71-.4-.17-.57-.41-.07-.77,1.35-1,1.33-1-.25-1.78-.26-.12-.49-.27-.73-.41.74-.61,1.73-.51,2.53-1,1.32-.76,1.48-.7,2.12.7.15.33.26.68.41,1s.24.54.58.55.54-.3.7-.58.15-1,.53-1.39c.42.22.51.6.71.9s.14,1,.72.94c.43,0,.72-.55.79-1,.22-1.39,1.2-1.68,2.33-1.79a4.34,4.34,0,0,0,1.61-.4c.36-.19.79-.49.57-.93-.47-1,.22-.87.73-1,1.26-.34,1.43-.74.81-1.91C81.07-27.68,81-27.89,80.83-28.1ZM186.7-14.18a2.83,2.83,0,0,0-3.63-2.47c-1.34.38-2.57,1.12-4,1.09a24,24,0,0,0-6.13.76,11.07,11.07,0,0,1-3.18.41,1.79,1.79,0,0,1-1.87-1.42,3.46,3.46,0,0,0-1.65-2.12c-1.21-.86-1.92-.78-2.68.46C162-15,162-15.23,160-17.44a2.91,2.91,0,0,1-.25-.42,9.1,9.1,0,0,0-5.24-4,2.57,2.57,0,0,0-3.1,1.13,34.87,34.87,0,0,0-1.81,4c-1.39,2.67-2.64,3.05-5.19,1.57a22.87,22.87,0,0,0-6.14-3A2.15,2.15,0,0,0,135.66-17c-.23.43-.45.86-.66,1.31-.65,1.41-.33,2.46,1.07,3.1a19.82,19.82,0,0,0,2.72.93c4.58,1.3,9.33,1.41,14,2.06,2.26.32,4.54.64,5.38,3.44.3,1,1.36,1.1,2.16.35a16.63,16.63,0,0,0,2-2.13c1.4-1.9,2.86-3.73,5.35-4.22a29.23,29.23,0,0,1,10-.14,20.21,20.21,0,0,0,6,.42C185.39-12.1,186.69-13,186.7-14.18ZM85-19.82a5.65,5.65,0,0,0,1.47,1.08c2,1.32,4.16,2.42,5.27,4.79a2,2,0,0,0,2,1.14,7.81,7.81,0,0,0,3.57-.83c1.87-.92,3.71-1.89,5.57-2.81s3.7-1.06,5.38.58a25.08,25.08,0,0,0,3.26,2.66c2.13,1.47,3.82,1.24,5.27-.59a4.44,4.44,0,0,0,.94-2.1A5.09,5.09,0,0,1,121-20l3.84-1.72a75.22,75.22,0,0,0-8.53.53c-3,.18-6,.52-8.86-.61a36.39,36.39,0,0,0-4.73-1.67c-1.92-.45-3.07.13-3.3,2.08a2.62,2.62,0,0,1-2.22,2.35,9.14,9.14,0,0,1-2.35.34A44.86,44.86,0,0,1,85-19.82Z"/><path class="cls-1" d="M113.09,8.37c-.51-.34-2,.43-2.54.67a20.55,20.55,0,0,1-3.46,1.28c-1,.27-2.39.82-2.14,2.18.32,1.73,3.65,3.49,3.7,3.52,1.07.56,2.91-.22,3.9-.68,1.22-.57,4.78-1.83,4.27-3.52S114.39,9.21,113.09,8.37Z"/></svg>