<svg id="Layer_1" data-name="Layer 1" xmlns="http://www.w3.org/2000/svg" xmlns:xlink="http://www.w3.org/1999/xlink" width="170" height="110" viewBox="0 0 170 110">
  <defs>
    <style>
      .cls-1 {
        fill: none;
      }

      .cls-2 {
        fill: #73c9fe;
      }

      .cls-3 {
        fill: #38a4fc;
      }

      .cls-4 {
        fill: #5ea8ff;
      }

      .cls-5 {
        clip-path: url(#clip-path);
      }

      .cls-6 {
        fill: #e61e0c;
      }

      .cls-7 {
        fill: #a31508;
      }

      .cls-8 {
        fill: #fcee21;
      }

      .cls-9 {
        fill: #c61a0a;
      }

      .cls-10 {
        fill: #ff2127;
      }

      .cls-11 {
        fill: #2674cf;
      }

      .cls-12 {
        fill: #d3b05f;
      }

      .cls-13 {
        fill: #fff;
      }

      .cls-14 {
        fill: #2c2e7a;
      }

      .cls-15 {
        fill: #2fb34c;
      }

      .cls-16 {
        fill: #f16939;
      }

      .cls-17 {
        fill: #4c90cd;
      }

      .cls-18 {
        fill: #c6a459;
      }

      .cls-19 {
        fill: #8b683d;
      }

      .cls-20 {
        fill: #dfbc6d;
      }

      .cls-21 {
        fill: #b8b282;
      }

      .cls-22 {
        fill: #4c3422;
      }

      .cls-23 {
        fill: #cca348;
      }

      .cls-24 {
        clip-path: url(#clip-path-2);
      }

      .cls-25 {
        fill: #d3b266;
      }

      .cls-26 {
        fill: #040404;
      }

      .cls-27 {
        fill: #fde3ba;
      }

      .cls-28 {
        fill: #600b0c;
      }

      .cls-29 {
        fill: #d42027;
      }

      .cls-30 {
        fill: #4e2a21;
      }

      .cls-31 {
        fill: #bc9c39;
      }
    </style>
    <clipPath id="clip-path">
      <path id="SVGID" class="cls-1" d="M140.79,55.83h0a1.53,1.53,0,0,1,1.5-1.57l3.48-.08a1.53,1.53,0,0,1,.89.26l7.59,5.14a1.53,1.53,0,0,1,.51,2L146,79a1.52,1.52,0,0,1-1.13.83c-8,1.25-76.48,11.5-102.8,3.65-24.33-7.26-27-33.17-27.25-39.81a1.53,1.53,0,0,1,1.5-1.6l4.75-.11a1.53,1.53,0,0,1,1.57,1.5l0,2.11a1.53,1.53,0,0,0,1.6,1.5l99-4.49a1.53,1.53,0,0,1,.7.14l6.68,3a1.53,1.53,0,0,1,.9,1.36l.13,5.92a1.53,1.53,0,0,0,.86,1.34l6,2.91A1.53,1.53,0,0,0,140.79,55.83Z"/>
    </clipPath>
    <clipPath id="clip-path-2">
      <path id="SVGID-2" data-name="SVGID" class="cls-1" d="M88.7,7.86a4.78,4.78,0,0,1-.75.85,24.22,24.22,0,0,0-2,2.87,21.47,21.47,0,0,1-2.08,2.75,5.2,5.2,0,0,0-1.25,2.39c0,.18,0,.39-.21.51-1.76-1.66-3.07-3.57-2.92-6.09a6.43,6.43,0,0,1,3.36-5.57,3.64,3.64,0,0,1,4.62.83C87.86,6.87,88.28,7.37,88.7,7.86Z"/>
    </clipPath>
  </defs>
  <title>14_small_boat_moves_slowly</title>
  <g>
    <path class="cls-2" d="M23.75,88.74s-6.89-4.48-6.61-.57S23.75,88.74,23.75,88.74Z"/>
    <path class="cls-3" d="M16.14,84.15S9.6,78.86,9.47,82.87,16.14,84.15,16.14,84.15Z"/>
    <path class="cls-2" d="M23.33,84s-5.09-6.24-6-2.5S23.33,84,23.33,84Z"/>
    <path class="cls-2" d="M15,76.69s-1.08-7.7-3.7-5.07S15,76.69,15,76.69Z"/>
  </g>
  <g>
    <path class="cls-4" d="M15.68,51s5.18,36,14.35,36.56,20-3.37,11.4-6.23S19.88,66.78,15.68,51Z"/>
    <g class="cls-5">
      <rect class="cls-6" x="8.48" y="38.41" width="16.22" height="34.36" transform="translate(34.42 110.79) rotate(178.72)"/>
      <rect class="cls-7" x="121.01" y="39.99" width="33.47" height="34.36" transform="translate(276.73 111.24) rotate(178.72)"/>
      <polygon class="cls-8" points="6.33 47.32 26.92 46.86 39.03 12.22 5.56 12.97 6.33 47.32"/>
      <polygon class="cls-6" points="24.26 78.34 123.86 75.52 123.11 42.24 22.95 45.89 24.26 78.34"/>
      <rect class="cls-9" x="13.42" y="44.29" width="121.43" height="2.94" transform="translate(150.14 88.32) rotate(177.56)"/>
      <g>
        <polygon class="cls-9" points="93.43 87.2 124.39 86.51 125.36 64.77 100.69 49.02 92.61 50.52 93.43 87.2"/>
        <polygon class="cls-10" points="132.24 75.94 141.72 73.81 100.69 49.03 92.53 50.44 132.24 75.94"/>
      </g>
      <g>
        <polygon class="cls-9" points="54.84 88.07 85.8 87.38 86.76 65.64 62.1 49.89 54.01 51.39 54.84 88.07"/>
        <polygon class="cls-10" points="93.65 76.81 103.13 74.68 62.1 49.9 53.94 51.31 93.65 76.81"/>
      </g>
      <path class="cls-9" d="M157,57.56S70.56,76.88,26.85,55.82C16.33,50.28,15.08,46.92,14,46.17c.12,5.39,9.71,22.07,9.71,22.07L30,75l126.05-2.83Z"/>
      <path class="cls-11" d="M163.46,59.57s-58.74,14.64-106.1,7.3S-.31,39.21-.31,39.21L16.47,90.09,158,86.92Z"/>
    </g>
  </g>
  <g>
    <path class="cls-12" d="M116.39,49.66a12.53,12.53,0,0,0,.12-3.38A18.58,18.58,0,0,0,115,40.53a8.74,8.74,0,0,0-1-1.34,6.57,6.57,0,0,1-.81-5.61A10.73,10.73,0,0,1,115,30.15c.1-.13.17-.26.37-.09a10.32,10.32,0,0,1,2.12,2.28,4.08,4.08,0,0,1,.39,3.75c-.22.64-.46,1.26-.66,1.91a3.59,3.59,0,0,0,0,2,24.74,24.74,0,0,1,.56,9.77,4.72,4.72,0,0,1-.13.54,18.47,18.47,0,0,1-3,6.29c-1.43,2.1-4.13,2-6.54,1.43a13.77,13.77,0,0,1-2.29-.74l.84-1.26a.81.81,0,0,0,.19.13,10.26,10.26,0,0,0,4.38.62,2.94,2.94,0,0,0,2.18-.83A14.74,14.74,0,0,0,116.39,49.66Z"/>
    <g>
      <path class="cls-13" d="M76.06,48.95s-.7-.2-1.62-2.52c-.57-1.3-1.43-3.3-3.26-3.54s-2.57,2.3-2.61,3.55S69,53,70,53.56a8.26,8.26,0,0,0,3.42-.06C73.92,53.31,76.6,49.63,76.06,48.95Z"/>
      <path class="cls-12" d="M87.38,47.82q.68,0,1.35.07a16.59,16.59,0,0,1,3.28.54c1.17.36,1.24,1.85,1.06,2.88a3.17,3.17,0,0,1-.69,1.39c-.51.64-1.47,1.12-1.81,1.85a17.14,17.14,0,0,0-.39,2.55,3.82,3.82,0,0,1-2.36,2.84,1.68,1.68,0,0,1-1.09,0,2.19,2.19,0,0,1-1.09-1.57,4.46,4.46,0,0,0-.71-1.83C84,55.44,82.62,56,81.42,56a20,20,0,0,1-4.64-.77,10.2,10.2,0,0,1-3.4-1.69c-.16-.11-.12-.31-.18-.46a2.53,2.53,0,0,1-.13-1.78c.2-.62.33-.72,1-.77a1.45,1.45,0,0,0,1.56-1.31c.08-.31.19-.38.51-.33,2.26.39,3.76-.14,6-.57A24.06,24.06,0,0,1,87.38,47.82Z"/>
      <path class="cls-14" d="M71.18,42.88a3,3,0,0,0-1,.63,4.53,4.53,0,0,0-1,2.26A14,14,0,0,0,70,53.44a.87.87,0,0,1,0,.12,3.86,3.86,0,0,1-.8-.19c-.12,0-.15-.12-.18-.23a17.87,17.87,0,0,1-.84-7.26,4.74,4.74,0,0,1,.63-2.09A2,2,0,0,1,71.18,42.88Z"/>
      <path class="cls-15" d="M72.28,48.66a7.34,7.34,0,0,1,1.19-2.8,1.24,1.24,0,0,1,.28-.25c.16-.11.3-.12.37.1a.72.72,0,0,0,0,.09,2,2,0,0,1,.28.62c0,.27-.32.25-.47.41a3.75,3.75,0,0,0-.87,1.79,3.84,3.84,0,0,0-.08.47.38.38,0,0,1-.34.33c-.2,0-.28-.13-.33-.29A3.23,3.23,0,0,1,72.28,48.66Z"/>
      <path class="cls-16" d="M71.54,47a4.56,4.56,0,0,1,1.34-2.57c.22-.18.38-.17.52.08l.06.09c.3.46.3.46-.11.82a4.66,4.66,0,0,0-1.19,2.1c0,.14,0,.41-.25.39s-.24-.25-.3-.42A1.82,1.82,0,0,1,71.54,47Z"/>
      <path class="cls-17" d="M70.7,45.4a3.37,3.37,0,0,1,1.28-2c.23-.16.82.14.89.42,0,.12-.06.14-.12.18a3,3,0,0,0-1.31,1.78c-.05.16,0,.41-.31.38s-.32-.21-.37-.41S70.73,45.54,70.7,45.4Z"/>
    </g>
    <g>
      <path class="cls-18" d="M83.18,26.09c.47,1.35-.25,1.5.64,2.62.55.69-.45,1.2,0,1.93.09.13.22.25.19.44-1-.51-1.94-1-2.92-1.53C79,28.49,73.37,25.87,71.2,25a8.09,8.09,0,0,0-2.51-.36,4,4,0,0,0-1.85.32A2,2,0,0,1,65.5,25a1.88,1.88,0,0,1-1.21-2.69c.07-.17.13-.28-.06-.45a1.53,1.53,0,0,1-.05-2.49.83.83,0,0,0,.3-.71A1.86,1.86,0,0,1,67,17c.14.06.2.06.31-.06a1.71,1.71,0,0,1,2.95.31c.53.92,1.18,1.74,1.78,2.59a2.93,2.93,0,0,0,1.32,1,23.28,23.28,0,0,1,3,1.86C76.48,22.84,83,26,83.18,26.09ZM67.42,21.38a8.39,8.39,0,0,0,.84,1.95c.16.26.38.49.7.44s.77-.22.85-.65a3.32,3.32,0,0,1,.92-1.7.9.9,0,0,0,.13-1c-.16-.33-.49-.31-.79-.32s-.89.08-1.36,0A1.31,1.31,0,0,0,67.42,21.38Zm-1.78.29c.56,0,1-.27,1-.66a1.09,1.09,0,0,0-1-.92.9.9,0,0,0-1,.79C64.61,21.32,65,21.66,65.63,21.66Zm3.93-3.43a1.35,1.35,0,0,0-.42-1,.59.59,0,0,0-1,.24,1.15,1.15,0,0,0,.16,1.11c.18.28.42.5.78.41S69.54,18.61,69.56,18.24ZM66,24.18a1.12,1.12,0,0,0,1-.46.58.58,0,0,0-.31-1,1.26,1.26,0,0,0-1,.19.77.77,0,0,0-.44.81C65.28,24,65.56,24.18,66,24.18Zm.67-4.49c.68,0,.94-.38.74-.85a1.35,1.35,0,0,0-1.15-.75.59.59,0,0,0-.56.89A1.14,1.14,0,0,0,66.71,19.69Z"/>
      <path class="cls-19" d="M67.42,21.38A1.31,1.31,0,0,1,68.7,20.1c.46,0,.9-.05,1.36,0s.64,0,.79.32a.9.9,0,0,1-.13,1,3.32,3.32,0,0,0-.92,1.7c-.08.43-.47.59-.85.65s-.54-.18-.7-.44A8.39,8.39,0,0,1,67.42,21.38Z"/>
      <path class="cls-19" d="M65.63,21.66c-.59,0-1-.34-1-.78a.9.9,0,0,1,1-.79,1.09,1.09,0,0,1,1,.92C66.59,21.39,66.19,21.67,65.63,21.66Z"/>
      <path class="cls-19" d="M69.56,18.24c0,.38-.12.7-.49.8s-.59-.13-.78-.41a1.15,1.15,0,0,1-.16-1.11.59.59,0,0,1,1-.24A1.35,1.35,0,0,1,69.56,18.24Z"/>
      <path class="cls-19" d="M66,24.18c-.48,0-.76-.15-.8-.46a.77.77,0,0,1,.44-.81,1.26,1.26,0,0,1,1-.19.58.58,0,0,1,.31,1A1.12,1.12,0,0,1,66,24.18Z"/>
      <path class="cls-19" d="M66.71,19.69a1.14,1.14,0,0,1-1-.71.59.59,0,0,1,.56-.89,1.35,1.35,0,0,1,1.15.75C67.65,19.31,67.39,19.69,66.71,19.69Z"/>
    </g>
    <g>
      <path class="cls-20" d="M106.47,59.7l.12-.15a5.55,5.55,0,0,0,.89-1.73,6.2,6.2,0,0,0,.15-1.35c0-.33.07-.66.08-1a16.26,16.26,0,0,0-.55-4.82c-.4-1.56-1-3.07-1.33-4.65-.66-3-1-6-1.58-9a15.46,15.46,0,0,0-1.37-3.82c-.28-.56-.33-.89-.91-1.23a5.75,5.75,0,0,0-2.15-.76A7.94,7.94,0,0,0,97.47,31a8.77,8.77,0,0,1-1.95.22c-2.2-.1-4.4-.26-6.6-.4l-2.47-.15c-.16,0-.72-.14-.87,0a22.69,22.69,0,0,0-.9,3.19,85.11,85.11,0,0,0-1.3,13c-.11,2.44.95,7.06,1.55,9.45a8.42,8.42,0,0,0,.87,2.17,2.82,2.82,0,0,0,.2.3A6.89,6.89,0,0,0,89.21,61a15.47,15.47,0,0,0,4.38.88c.22,0,.44.05.66.08l1.28.07,1.19,0c.69,0,1.39,0,2.08,0a8.56,8.56,0,0,0,1.27-.32c.51-.13,1-.28,1.53-.37a3.27,3.27,0,0,1,1,0,4.79,4.79,0,0,0,2.74-.64A4.42,4.42,0,0,0,106.47,59.7Z"/>
      <path class="cls-21" d="M86.29,33.32c1,1,2,.18,3.15.11,5.51-.33,8.47,6.19,7.86,10.87-.52,4-1.41,10.06-5.5,12.18-3.72,1.93-6.94-3.26-7.6-6.38a23.45,23.45,0,0,1,0-7c.29-3,.44-6.59,1.8-9.31A.84.84,0,0,1,86.29,33.32Z"/>
    </g>
    <path class="cls-13" d="M104.35,28.14c0,.09-.12.08-.2.08S104.26,28.12,104.35,28.14Z"/>
    <path class="cls-13" d="M104.42,28.06c0,.07,0,.08-.08.08S104.36,28.06,104.42,28.06Z"/>
    <path class="cls-22" d="M106.33,15.87l0,.06Z"/>
    <g>
      <g>
        <path class="cls-23" d="M88.7,7.86a4.78,4.78,0,0,1-.75.85,24.22,24.22,0,0,0-2,2.87,21.47,21.47,0,0,1-2.08,2.75,5.2,5.2,0,0,0-1.25,2.39c0,.18,0,.39-.21.51-1.76-1.66-3.07-3.57-2.92-6.09a6.43,6.43,0,0,1,3.36-5.57,3.64,3.64,0,0,1,4.62.83C87.86,6.87,88.28,7.37,88.7,7.86Z"/>
        <path class="cls-22" d="M82.72,13.14,82.8,13C82.71,13,82.72,13.08,82.72,13.14Z"/>
        <g class="cls-24">
          <path class="cls-19" d="M82.72,13.14a6.12,6.12,0,0,0-.64,1.37,3.19,3.19,0,0,0,.7,3.18s0,.07,0,.1h0a.14.14,0,0,1,.15.1l.81.5a20,20,0,0,1,2.28-2.09,2.31,2.31,0,0,0,.73-2.37,1.06,1.06,0,0,1-.06-.45l0-.07h0c-.2-.1-.3-.3-.45-.45a2.06,2.06,0,0,0-2.5-.55c-.36.14-.61.43-1,.6h0Z"/>
          <path class="cls-22" d="M82.8,13c.34-.17.59-.46,1-.6a2.06,2.06,0,0,1,2.5.55c.15.15.25.35.45.45a3.13,3.13,0,0,0-1.4-2,4,4,0,0,0-3.13-.46,7.73,7.73,0,0,1,2.79.74A2.83,2.83,0,0,0,82.8,13Z"/>
        </g>
      </g>
      <g>
        <path class="cls-22" d="M113.24,19.65c-.23-.29-.34-.66-.61-.95a2.06,2.06,0,0,0-2.5-.57,1.93,1.93,0,0,1-.6.21,3.13,3.13,0,0,1,2.13-1.25,4,4,0,0,1,3,.91,7.73,7.73,0,0,0-2.84-.52A2.83,2.83,0,0,1,113.24,19.65Z"/>
        <path class="cls-19" d="M113.26,19.79a6.12,6.12,0,0,1,0,1.51,3.19,3.19,0,0,1-2,2.58s-.05.05-.08.08h0a.32.32,0,0,1-.17,0l-.95.11a20,20,0,0,0-1.17-2.87,2.31,2.31,0,0,1,.35-2.45,1.06,1.06,0,0,0,.24-.38l.06,0h0a1.93,1.93,0,0,0,.6-.21,2.06,2.06,0,0,1,2.5.57c.27.28.37.65.61.95h0Z"/>
        <g>
          <path class="cls-25" d="M118.72,15a3.7,3.7,0,0,0-3.4-2.11,6.27,6.27,0,0,0-2.09.52,3.81,3.81,0,0,1-2.2.17,3.89,3.89,0,0,1-1.73-1,33.12,33.12,0,0,0-6-4.27.45.45,0,0,1-.28-.51,2.25,2.25,0,0,0-.22-1.48,2.18,2.18,0,0,1-.11-2c0-.12.08-.24.14-.43a2.86,2.86,0,0,0-.8.58,5.62,5.62,0,0,0-.89,1.32,2.71,2.71,0,0,1-.65.88c-.16.13-.26.11-.31-.11a2.49,2.49,0,0,1,0-1,9.11,9.11,0,0,0,.22-2.07,3.55,3.55,0,0,0-.65-1.92,3.16,3.16,0,0,1-.51,1.38,11.86,11.86,0,0,1-1,1.31,2.88,2.88,0,0,0-.87,1.48,2.62,2.62,0,0,1-.46-1.6,5,5,0,0,1,.25-1.62,1.73,1.73,0,0,0-.79.28A6.11,6.11,0,0,0,94.26,5a1,1,0,0,1-.65.51A22,22,0,0,0,89.87,7.1c-4.2,2.28-8.14,7.37-7.58,12.35q.07.59.18,1.16h0a12.74,12.74,0,0,1,.18,4.85A14.41,14.41,0,0,0,84,31.88a11.18,11.18,0,0,0,5.9,2.8,7.57,7.57,0,0,0,5.28-1.42c2.13-1.44,4.46-1.85,6.91-2.33A12.24,12.24,0,0,0,107.21,29c1-.77,3.21-3.63,2.85-4.95a20,20,0,0,0-1.17-2.87,2.31,2.31,0,0,1,.35-2.45,1.06,1.06,0,0,0,.24-.38l.06,0h0a3.13,3.13,0,0,1,2.13-1.25,4,4,0,0,1,3,.91,7.73,7.73,0,0,0-2.84-.52,2.83,2.83,0,0,1,1.39,2.14.8.8,0,0,0,0,.14,6.12,6.12,0,0,1,0,1.51,3.19,3.19,0,0,1-2,2.58s-.05.05-.08.08a5.5,5.5,0,0,0,1.55,0,9.51,9.51,0,0,0,4.19-1.37C119.6,20.83,119.85,17.1,118.72,15Z"/>
          <polygon class="cls-25" points="113.24 19.65 113.24 19.65 113.24 19.65 113.24 19.65"/>
        </g>
        <path class="cls-22" d="M101.83,18.78c-.53-1.12-1.06-2.24-2.35-2.64a4.22,4.22,0,0,0-3.51.75,3.94,3.94,0,0,1,1-1.16,4.72,4.72,0,0,1,2-1.07,1.74,1.74,0,0,1,1.83.54A5,5,0,0,1,101.83,18.78Z"/>
        <path class="cls-22" d="M89.42,15.42c-.53-.92-1-1.85-2.16-2.14a3.66,3.66,0,0,0-3,.76,4.08,4.08,0,0,1,2.89-2.11,1.35,1.35,0,0,1,.9.27A4.09,4.09,0,0,1,89.42,15.42Z"/>
        <path class="cls-18" d="M93.48,18.47a5.66,5.66,0,0,1-6,2.67,5.8,5.8,0,0,0,3,2.87A9.07,9.07,0,0,0,93.48,18.47Z"/>
        <g>
          <path class="cls-13" d="M101.14,21.36a2.79,2.79,0,0,1-3,2.58,4.62,4.62,0,0,1-1.57-.23A2.82,2.82,0,0,1,94.54,21a3.69,3.69,0,0,1,2.74-3.66,3.33,3.33,0,0,1,3.89,3.12A3.88,3.88,0,0,1,101.14,21.36Z"/>
          <path class="cls-22" d="M97,23.16a2.62,2.62,0,1,1,.66-5.2,2.62,2.62,0,0,1-.66,5.2Zm-1.15-3.1a.53.53,0,0,0-.23.53,1.71,1.71,0,0,0,1.51,1.74,1.75,1.75,0,0,0,1.78-1.13,1.67,1.67,0,0,0-.83-2A3.35,3.35,0,0,0,96.92,19c-.42-.41-.86-.46-1.2-.12A.79.79,0,0,0,95.84,20.07Z"/>
          <path class="cls-26" d="M96.92,19a3.35,3.35,0,0,1,1.15.21,1.67,1.67,0,0,1,.83,2,1.75,1.75,0,0,1-1.78,1.13,1.71,1.71,0,0,1-1.51-1.74.53.53,0,0,1,.23-.53.81.81,0,0,0,.95-.12A.82.82,0,0,0,96.92,19Z"/>
          <path class="cls-13" d="M96.92,19a.82.82,0,0,1-.13.95.81.81,0,0,1-.95.12.79.79,0,0,1-.12-1.19C96.06,18.54,96.5,18.59,96.92,19Z"/>
        </g>
        <g>
          <path class="cls-13" d="M88.67,18a2.52,2.52,0,0,1-2.83,2.22,3.34,3.34,0,0,1-1.69-.46,2.19,2.19,0,0,1-1.09-2.16,5.25,5.25,0,0,1,.61-2,2.56,2.56,0,0,1,2.84-1.07A3,3,0,0,1,88.67,18Z"/>
          <path class="cls-22" d="M83.26,17a2.38,2.38,0,1,1,2,2.67A2.35,2.35,0,0,1,83.26,17Zm1,0c-.19,0-.18.16-.17.28a2,2,0,0,0,.06.48,1.51,1.51,0,0,0,2.49.76,1.53,1.53,0,0,0,.24-2,1.51,1.51,0,0,0-1.68-.61c-.44-.29-.77-.28-1,0S83.92,16.61,84.26,17Z"/>
          <path class="cls-26" d="M85.19,15.94a1.51,1.51,0,0,1,1.68.61,1.53,1.53,0,0,1-.24,2,1.51,1.51,0,0,1-2.49-.76,2,2,0,0,1-.06-.48c0-.12,0-.27.17-.28a.88.88,0,0,0,.52.11C85.32,17,85.49,16.51,85.19,15.94Z"/>
          <path class="cls-13" d="M85.19,15.94c.3.57.12,1.05-.42,1.16a.88.88,0,0,1-.52-.11q-.51-.56-.1-1C84.43,15.66,84.76,15.65,85.19,15.94Z"/>
        </g>
        <g>
          <g>
            <path class="cls-27" d="M94,32.86c-.09.39,0-.18-.07.21a2.84,2.84,0,0,1-1.23,1.37,5.23,5.23,0,0,1-4.13.08c-.78-.26-1.54-.57-2.33-.8a3.53,3.53,0,0,1-2.7-2.24A10.15,10.15,0,0,1,83,29.67c0-.89,0-1.79.06-2.68a8.51,8.51,0,0,1,.08-1.3,1.71,1.71,0,0,1,.19.64c.08.72.15,1.45.26,2.17a4,4,0,0,0,2.26,3.16,10.56,10.56,0,0,0,4.05,1.07A4.19,4.19,0,0,0,94.32,30a3.1,3.1,0,0,1,.55-1,19.9,19.9,0,0,1-.76,3.23C94.07,32.47,94,32.66,94,32.86Z"/>
            <path class="cls-22" d="M94.88,29.05a3.1,3.1,0,0,0-.55,1,4.19,4.19,0,0,1-4.43,2.7,10.56,10.56,0,0,1-4.05-1.07,4,4,0,0,1-2.26-3.16c-.11-.72-.17-1.45-.26-2.17a1.71,1.71,0,0,0-.19-.64c0-.14-.1-.28,0-.42a6,6,0,0,0,1,1.18,2.21,2.21,0,0,0,3.21-.37,3.8,3.8,0,0,0,.46-.8c0-.11,0-.56.08-.7s.21,0,.25,0a.44.44,0,0,0,0,.31,3.54,3.54,0,0,1,0,.42,5.45,5.45,0,0,0,.18.91,3.07,3.07,0,0,0,.95,1.49,5.46,5.46,0,0,0,5.46,1.06.77.77,0,0,0,.36-.25A.86.86,0,0,1,94.88,29.05ZM85.8,30.64a11.86,11.86,0,0,0,3.54,1.2,3.28,3.28,0,0,0,1.44.1c1.32.12,3.24-1.37,3.65-2.5,0-.06.07-.12,0-.18s-.17,0-.26,0a5.06,5.06,0,0,1-2,.22A5.51,5.51,0,0,1,89,28a4.93,4.93,0,0,1-1.23-1.71,2.78,2.78,0,0,1-4.08.47l0,0,0,0A4.23,4.23,0,0,0,85.8,30.64Z"/>
            <path class="cls-27" d="M95.08,28.55a.77.77,0,0,1-.36.25,5.46,5.46,0,0,1-5.46-1.06,3.9,3.9,0,0,1-1.18-2.93c0-.09,0-.22.15-.19a3,3,0,0,0,3-1.38l0,0c.42.45,1,.74,1.43,1.16A6.87,6.87,0,0,1,95,27.8C95,28,95,28.3,95.08,28.55Z"/>
            <path class="cls-27" d="M85.64,21.64c.06.24.1.49.18.73a3.18,3.18,0,0,0,2,2.12c.21.08.26.14.19.35a4.47,4.47,0,0,1-.62,1.24,2.21,2.21,0,0,1-3.21.37,6,6,0,0,1-1-1.18h0a.16.16,0,0,0,0-.16v0A.1.1,0,0,0,83,25a1.41,1.41,0,0,1,.4-.92C84.18,23.3,84.86,22.43,85.64,21.64Z"/>
            <path class="cls-22" d="M83.09,25.12a.16.16,0,0,1,0,.16C83,25.26,83.11,25.17,83.09,25.12Z"/>
            <path class="cls-28" d="M83.71,26.8a2.78,2.78,0,0,0,4.08-.47A4.93,4.93,0,0,0,89,28a5.51,5.51,0,0,0,3.18,1.42,5.06,5.06,0,0,0,2-.22c.09,0,.18-.09.26,0s0,.12,0,.18c-.41,1.12-2.33,2.62-3.65,2.5a2.33,2.33,0,0,0-1.21-.53,4.64,4.64,0,0,1-2.09-.65,1.54,1.54,0,0,0-1.68-.11,4.23,4.23,0,0,1-2.08-3.83Z"/>
            <path class="cls-29" d="M85.8,30.64a1.54,1.54,0,0,1,1.68.11,4.64,4.64,0,0,0,2.09.65,2.33,2.33,0,0,1,1.21.53,3.28,3.28,0,0,1-1.44-.1A11.86,11.86,0,0,1,85.8,30.64Z"/>
          </g>
          <path class="cls-30" d="M91.28,22.83A1.57,1.57,0,0,1,90.57,24a3.17,3.17,0,0,1-2.71.53,3.6,3.6,0,0,1-2.28-1.88,1.31,1.31,0,0,1-.13-.93,1,1,0,0,1,.52-.62A3,3,0,0,1,86.9,21a6.62,6.62,0,0,1,2,.27c.2,0,.86.18,1,.26a3.82,3.82,0,0,1,.77.39A1.23,1.23,0,0,1,91.28,22.83Z"/>
        </g>
      </g>
    </g>
    <g>
      <path class="cls-13" d="M88,59.54S86.9,59.2,84.92,57c-.45-.38-2.54-2.42-4.6-1.75s-1.47,4.33-.24,6.92,3.12,5,3.78,4.85a15.92,15.92,0,0,0,3.78-1.73C88.13,64,90.38,60.82,88,59.54Z"/>
      <path class="cls-14" d="M80.32,55.24a3.47,3.47,0,0,0-.89,3.38,15.75,15.75,0,0,0,4.2,8.11c.08.09.19.14.23.28a3.72,3.72,0,0,1-.88.16.33.33,0,0,1-.31-.13,20.65,20.65,0,0,1-4.2-7.35,6.05,6.05,0,0,1-.3-2.1,2.42,2.42,0,0,1,1.79-2.34A.55.55,0,0,1,80.32,55.24Z"/>
      <path class="cls-15" d="M84.06,60.75a8.57,8.57,0,0,1,0-3.51,1.09,1.09,0,0,1,.2-.38c.12-.15.23-.17.36,0l.06.05c.22.19.51.34.63.58s-.23.45-.32.69a4.2,4.2,0,0,0-.11,2.14,6.42,6.42,0,0,0,.14.66.42.42,0,0,1-.23.5c-.18.11-.34,0-.44-.16S84.17,60.94,84.06,60.75Z"/>
      <path class="cls-16" d="M82.5,59.19a5.24,5.24,0,0,1,.23-3.05c.22-.47.31-.48.73-.21s.54.36.27.94a5.37,5.37,0,0,0-.31,2.72c0,.17.18.43-.07.53S83,60,82.82,59.8A2.19,2.19,0,0,1,82.5,59.19Z"/>
      <path class="cls-17" d="M81,58a3.87,3.87,0,0,1,.39-2.56.88.88,0,0,1,1.19,0c.07.1,0,.15,0,.21a3.56,3.56,0,0,0-.59,2.59c0,.17.08.35-.15.44a.46.46,0,0,1-.5-.15A1.13,1.13,0,0,1,81,58Z"/>
      <path class="cls-20" d="M96.23,54.33a.39.39,0,0,1-.16.51c-.5.36-1,.72-1.49,1.09a6.65,6.65,0,0,0-1,.81,8.11,8.11,0,0,1-2,1.37,7,7,0,0,1-1.27.67c-.71.24-1.42.5-2.14.7-.3.08-.36.18-.32.47a1.64,1.64,0,0,1-.73,1.81,5.39,5.39,0,0,1-.6.3.58.58,0,0,0-.39.54,4.41,4.41,0,0,0,0,.67,3.2,3.2,0,0,0,1,1.85c.31.31.67.09,1,.12h.12a10.82,10.82,0,0,0,4.56-.38c.21-.06.66-.14.8-.19l1-.33a16.23,16.23,0,0,0,2.66-1.18,24.23,24.23,0,0,1,3.35-1.86S102.79,55.3,96.23,54.33Z"/>
    </g>
  </g>
  <path class="cls-31" d="M83.05,72.35,68.19,11.27a2.09,2.09,0,0,0-4.06,1L79,73.34A14.78,14.78,0,0,0,77.36,83l5.88,24.16s1.73,2,6.37.91,5.24-3.73,5.24-3.73L89,80.21A14.77,14.77,0,0,0,83.05,72.35Z"/>
  <g>
    <path class="cls-2" d="M99.45,103.19s6.7,1.34,5.28-1.6S99.45,103.19,99.45,103.19Z"/>
    <path class="cls-2" d="M124.8,91.09s4.32,2.54,4,.16S124.8,91.09,124.8,91.09Z"/>
    <path class="cls-3" d="M129.81,88.49s4.92,2.3,4.38-.23S129.81,88.49,129.81,88.49Z"/>
    <path class="cls-2" d="M135.65,84.47s6.64-1.57,4.13-3.65S135.65,84.47,135.65,84.47Z"/>
    <path class="cls-3" d="M118.23,89.18s9,.57,6.6-3S118.23,89.18,118.23,89.18Z"/>
    <path class="cls-3" d="M104.88,96.06s7.31.46,5.38-2.45S104.88,96.06,104.88,96.06Z"/>
    <path class="cls-2" d="M95.36,101s8.75-2,5.47-4.76S95.36,101,95.36,101Z"/>
    <path class="cls-2" d="M126.11,82.16s6.45-.35,4.46-2.7S126.11,82.16,126.11,82.16Z"/>
  </g>
  <g>
    <path class="cls-2" d="M77.28,107s-5.33-2.41-4.71.31S77.28,107,77.28,107Z"/>
    <path class="cls-3" d="M68.38,104.68s-5.8-3.37-5.41-.2S68.38,104.68,68.38,104.68Z"/>
    <path class="cls-3" d="M84.35,106.35s-4.8-3.31-4.68-.53S84.35,106.35,84.35,106.35Z"/>
    <path class="cls-2" d="M77,102s-7.28-6.57-7.69-1.91S77,102,77,102Z"/>
    <path class="cls-2" d="M67.75,100.47s-3.28-6.24-4.71-3.2S67.75,100.47,67.75,100.47Z"/>
  </g>
  <g>
    <path class="cls-2" d="M149.43,78.71s5.36-3.49,5.14-.44S149.43,78.71,149.43,78.71Z"/>
    <path class="cls-3" d="M155.34,75.14s5.09-4.11,5.19-1S155.34,75.14,155.34,75.14Z"/>
    <path class="cls-2" d="M149.76,75.06s4-4.85,4.66-1.95S149.76,75.06,149.76,75.06Z"/>
    <path class="cls-2" d="M156.23,69.34s.84-6,2.87-3.94S156.23,69.34,156.23,69.34Z"/>
  </g>
  <path class="cls-20" d="M97.32,33.45c-.44.32-4.43,3-5.31,3.38h0a68.8,68.8,0,0,1-12.68,4.51,4,4,0,0,1-2.76.08,1.69,1.69,0,0,0-.39-.08A5.41,5.41,0,0,1,74,40.56a2,2,0,0,0-2.48-.09,2,2,0,0,0-.75,2.18c0,.16,0,.27-.15.35A1.65,1.65,0,0,0,70,45.64a.6.6,0,0,1,.09.61,2,2,0,0,0,2,2.4c.28-.06.37,0,.48.23a1.42,1.42,0,0,0,1.35.93,2.26,2.26,0,0,0,1.66-.72A20.58,20.58,0,0,1,78,46.91a1.15,1.15,0,0,1,.6-.26,6.92,6.92,0,0,0,1.57-.4c3.45-1.31,6.85-2.74,10.17-4.37.22-.11.41-.29.68-.26h0c0-.07,0-.08.08-.09h0c0-.09.13-.08.2-.09.85-.58,1.8-1,2.67-1.54s6.27-4.09,6.27-4.48Z"/>
</svg>
