<svg id="Layer_1" data-name="Layer 1" xmlns="http://www.w3.org/2000/svg" xmlns:xlink="http://www.w3.org/1999/xlink" width="170" height="110" viewBox="0 0 170 110">
  <defs>
    <style>
      .cls-1 {
        fill: none;
      }

      .cls-2 {
        fill: #73c9fe;
      }

      .cls-3 {
        fill: #38a4fc;
      }

      .cls-4 {
        fill: #5ea8ff;
      }

      .cls-5 {
        clip-path: url(#clip-path);
      }

      .cls-6 {
        fill: #e61e0c;
      }

      .cls-7 {
        fill: #a31508;
      }

      .cls-8 {
        fill: #fcee21;
      }

      .cls-9 {
        fill: #c61a0a;
      }

      .cls-10 {
        fill: #ff2127;
      }

      .cls-11 {
        fill: #2674cf;
      }

      .cls-12 {
        fill: #d3b05f;
      }

      .cls-13 {
        fill: #fff;
      }

      .cls-14 {
        fill: #2c2e7a;
      }

      .cls-15 {
        fill: #2fb34c;
      }

      .cls-16 {
        fill: #f16939;
      }

      .cls-17 {
        fill: #4c90cd;
      }

      .cls-18 {
        fill: #c6a459;
      }

      .cls-19 {
        fill: #8b683d;
      }

      .cls-20 {
        fill: #dfbc6d;
      }

      .cls-21 {
        fill: #b8b282;
      }

      .cls-22 {
        fill: #4c3422;
      }

      .cls-23 {
        fill: #cca348;
      }

      .cls-24 {
        clip-path: url(#clip-path-2);
      }

      .cls-25 {
        fill: #d3b266;
      }

      .cls-26 {
        fill: #040404;
      }

      .cls-27 {
        fill: #fde3ba;
      }

      .cls-28 {
        fill: #600b0c;
      }

      .cls-29 {
        fill: #d42027;
      }

      .cls-30 {
        fill: #4e2a21;
      }

      .cls-31 {
        fill: #bc9c39;
      }
    </style>
    <clipPath id="clip-path">
      <path id="SVGID" class="cls-1" d="M134.9,68.06h0a1.53,1.53,0,0,1,1.6-1.47l3.47.15a1.53,1.53,0,0,1,.88.32l7.24,5.62a1.53,1.53,0,0,1,.38,2l-9.86,16.81a1.52,1.52,0,0,1-1.18.75c-8.1.72-77.07,6.49-102.82-3.06C10.81,80.35,9.86,54.32,10,47.67a1.53,1.53,0,0,1,1.6-1.49l4.75.2A1.53,1.53,0,0,1,17.83,48l-.09,2.1a1.53,1.53,0,0,0,1.5,1.6l99.1,2a1.53,1.53,0,0,1,.69.18l6.47,3.47a1.53,1.53,0,0,1,.81,1.42l-.25,5.91a1.53,1.53,0,0,0,.77,1.4l5.77,3.3A1.53,1.53,0,0,0,134.9,68.06Z"/>
    </clipPath>
    <clipPath id="clip-path-2">
      <path id="SVGID-2" data-name="SVGID" class="cls-1" d="M83.67,17.43a4.78,4.78,0,0,1-.72.87,24.22,24.22,0,0,0-2,2.93A21.47,21.47,0,0,1,79,24a5.2,5.2,0,0,0-1.18,2.43c0,.18,0,.39-.19.51-1.8-1.6-3.18-3.48-3.11-6a6.43,6.43,0,0,1,3.19-5.67,3.64,3.64,0,0,1,4.65.69C82.8,16.48,83.23,17,83.67,17.43Z"/>
    </clipPath>
  </defs>
  <title>14_small_boat_moves_slowly</title>
  <g>
    <path class="cls-2" d="M16,93.28s-6.59-4.92-6.56-1S16,93.28,16,93.28Z"/>
    <path class="cls-3" d="M8.67,88.2s-6.19-5.7-6.57-1.7S8.67,88.2,8.67,88.2Z"/>
    <path class="cls-2" d="M15.85,88.57S11.18,82,10,85.68,15.85,88.57,15.85,88.57Z"/>
    <path class="cls-2" d="M8,80.68s-.57-7.75-3.36-5.3S8,80.68,8,80.68Z"/>
  </g>
  <g>
    <path class="cls-4" d="M10.38,55.05s2.83,36.23,11.94,37.41S42.45,90.41,34.1,87,13.54,71.12,10.38,55.05Z"/>
    <g class="cls-5">
      <rect class="cls-6" x="2.87" y="42.55" width="16.22" height="34.36" transform="translate(19.39 119.88) rotate(-177.55)"/>
      <rect class="cls-7" x="115.04" y="52.03" width="33.47" height="34.36" transform="translate(260.46 143.99) rotate(-177.55)"/>
      <polygon class="cls-8" points="1.28 50.81 21.86 51.69 36.2 17.91 2.75 16.48 1.28 50.81"/>
      <polygon class="cls-6" points="17.15 82.93 116.72 86.61 118.15 53.35 17.96 50.47 17.15 82.93"/>
      <rect class="cls-9" x="8.33" y="52.2" width="121.43" height="2.94" transform="translate(136.85 108.9) rotate(-178.7)"/>
      <g>
        <polygon class="cls-9" points="85.59 96.29 116.54 97.61 118.92 75.98 95.33 58.66 87.16 59.63 85.59 96.29"/>
        <polygon class="cls-10" points="125.06 87.58 134.65 86.07 95.33 58.67 87.09 59.55 125.06 87.58"/>
      </g>
      <g>
        <polygon class="cls-9" points="47.03 94.64 77.97 95.96 80.35 74.33 56.77 57.01 48.6 57.98 47.03 94.64"/>
        <polygon class="cls-10" points="86.5 85.93 96.09 84.42 56.76 57.02 48.52 57.9 86.5 85.93"/>
      </g>
      <path class="cls-9" d="M151,70.86S63.45,84.5,21.2,60.63C11.07,54.41,10,51,9.05,50.16c-.23,5.39,8.25,22.66,8.25,22.66L23.13,80l126,5.4Z"/>
      <path class="cls-11" d="M157.28,73.28s-59.57,10.78-106.36.37S-4.81,42.29-4.81,42.29L8.61,94.15,150,100.21Z"/>
    </g>
  </g>
  <g>
    <path class="cls-12" d="M112.61,66a12.53,12.53,0,0,0,1.9-2.8,18.58,18.58,0,0,0,1.82-5.66,8.74,8.74,0,0,0-.12-1.65,6.57,6.57,0,0,1,2.3-5.18,10.73,10.73,0,0,1,3.32-2c.15-.06.28-.13.36.12a10.32,10.32,0,0,1,.58,3.06,4.08,4.08,0,0,1-1.67,3.38c-.52.42-1.06.83-1.57,1.26a3.59,3.59,0,0,0-1.07,1.68,24.74,24.74,0,0,1-4.73,8.56,4.72,4.72,0,0,1-.39.39,18.47,18.47,0,0,1-5.93,3.7c-2.33,1-4.56-.52-6.3-2.27a13.77,13.77,0,0,1-1.54-1.85l1.39-.62a.81.81,0,0,0,.09.22,10.26,10.26,0,0,0,3.38,2.86,2.94,2.94,0,0,0,2.28.46A14.74,14.74,0,0,0,112.61,66Z"/>
    <g>
      <path class="cls-13" d="M70.76,57s-.68-.25-1.45-2.62c-.48-1.34-1.21-3.39-3-3.75S63.57,52.74,63.45,54s0,6.6.94,7.2a8.26,8.26,0,0,0,3.41.16C68.34,61.19,71.25,57.7,70.76,57Z"/>
      <path class="cls-12" d="M82.13,56.59q.67.06,1.34.16a16.59,16.59,0,0,1,3.24.75c1.14.43,1.11,1.93.87,2.94a3.17,3.17,0,0,1-.78,1.34c-.55.61-1.54,1-1.93,1.73A17.14,17.14,0,0,0,84.32,66a3.82,3.82,0,0,1-2.54,2.68,1.68,1.68,0,0,1-1.09-.09,2.19,2.19,0,0,1-1-1.64,4.46,4.46,0,0,0-.59-1.87c-.85-1.14-2.27-.71-3.46-.79a20,20,0,0,1-4.58-1.07,10.2,10.2,0,0,1-3.28-1.91c-.15-.12-.1-.31-.15-.47a2.53,2.53,0,0,1,0-1.79c.24-.6.38-.7,1-.71a1.45,1.45,0,0,0,1.64-1.2c.1-.31.21-.37.53-.29,2.23.53,3.76.11,6-.18A24.06,24.06,0,0,1,82.13,56.59Z"/>
      <path class="cls-14" d="M66.29,50.61a3,3,0,0,0-1,.56,4.53,4.53,0,0,0-1.15,2.19,14,14,0,0,0,.27,7.7.87.87,0,0,1,0,.12,3.86,3.86,0,0,1-.79-.25c-.12,0-.14-.13-.16-.24a17.87,17.87,0,0,1-.37-7.3,4.74,4.74,0,0,1,.77-2A2,2,0,0,1,66.29,50.61Z"/>
      <path class="cls-15" d="M67,56.44a7.34,7.34,0,0,1,1.37-2.72,1.24,1.24,0,0,1,.3-.23c.16-.1.3-.1.36.13a.72.72,0,0,0,0,.1,2,2,0,0,1,.24.64c0,.27-.34.23-.5.38a3.75,3.75,0,0,0-1,1.73,3.84,3.84,0,0,0-.11.47.38.38,0,0,1-.36.31c-.2,0-.27-.15-.31-.31A3.23,3.23,0,0,1,67,56.44Z"/>
      <path class="cls-16" d="M66.38,54.7a4.56,4.56,0,0,1,1.5-2.47c.23-.17.39-.14.51.12l.05.09c.27.48.27.48-.16.82a4.66,4.66,0,0,0-1.33,2c-.06.14,0,.41-.27.37s-.23-.26-.27-.44A1.82,1.82,0,0,1,66.38,54.7Z"/>
      <path class="cls-17" d="M65.64,53.09A3.37,3.37,0,0,1,67,51.17c.24-.14.8.19.86.48,0,.12-.06.14-.13.17a3,3,0,0,0-1.42,1.69c-.07.15-.07.4-.34.36s-.3-.23-.34-.43S65.66,53.23,65.64,53.09Z"/>
    </g>
    <g>
      <path class="cls-18" d="M79.79,40c1.13.88.61,1.39,2,1.85.84.28.27,1.25,1.08,1.6.15.06.32.09.4.27-1.1.1-2.19.19-3.29.31-2.32.25-8.5,1.15-10.78,1.61a8.09,8.09,0,0,0-2.3,1.06A4,4,0,0,0,65.49,48a2,2,0,0,1-1.08.8,1.88,1.88,0,0,1-2.48-1.59c0-.18,0-.31-.29-.34a1.53,1.53,0,0,1-1.41-2.06.83.83,0,0,0-.14-.76,1.86,1.86,0,0,1,1.17-2.79c.15,0,.2-.06.22-.22a1.71,1.71,0,0,1,2.64-1.35c.94.48,1.94.81,2.91,1.2a2.93,2.93,0,0,0,1.67.14,23.28,23.28,0,0,1,3.53-.08C72.41,40.9,79.62,40,79.79,40ZM64,44.63a8.39,8.39,0,0,0,1.77,1.17.72.72,0,0,0,.82,0,.89.89,0,0,0,.36-1,3.32,3.32,0,0,1-.16-1.93.9.9,0,0,0-.46-.94c-.31-.19-.58,0-.84.16s-.7.56-1.12.77A1.31,1.31,0,0,0,64,44.63Zm-1.34,1.21c.47-.3.65-.75.44-1.07a1.09,1.09,0,0,0-1.34-.23.9.9,0,0,0-.39,1.2A.92.92,0,0,0,62.68,45.84Zm1.42-5a1.35,1.35,0,0,0-.88-.58.59.59,0,0,0-.72.75,1.15,1.15,0,0,0,.74.85.71.71,0,0,0,.88-.08C64.38,41.47,64.29,41.15,64.1,40.83Zm.29,6.9a1.12,1.12,0,0,0,.55-.91.58.58,0,0,0-.81-.67,1.26,1.26,0,0,0-.74.71.77.77,0,0,0,.07.92C63.68,48,64,48,64.39,47.73ZM62.5,43.6c.57-.37.58-.83.15-1.12a1.35,1.35,0,0,0-1.37,0,.59.59,0,0,0,0,1.05A1.14,1.14,0,0,0,62.5,43.6Z"/>
      <path class="cls-19" d="M64,44.63a1.31,1.31,0,0,1,.38-1.77c.41-.21.73-.54,1.12-.77s.53-.35.84-.16a.9.9,0,0,1,.46.94A3.32,3.32,0,0,0,67,44.78a.89.89,0,0,1-.36,1,.72.72,0,0,1-.82,0A8.39,8.39,0,0,1,64,44.63Z"/>
      <path class="cls-19" d="M62.68,45.84a.92.92,0,0,1-1.29-.09.9.9,0,0,1,.39-1.2,1.09,1.09,0,0,1,1.34.23C63.33,45.09,63.14,45.54,62.68,45.84Z"/>
      <path class="cls-19" d="M64.1,40.83c.19.32.28.65,0,.94a.71.71,0,0,1-.88.08A1.15,1.15,0,0,1,62.5,41a.59.59,0,0,1,.72-.75A1.35,1.35,0,0,1,64.1,40.83Z"/>
      <path class="cls-19" d="M64.39,47.73c-.4.26-.71.29-.92.05a.77.77,0,0,1-.07-.92,1.26,1.26,0,0,1,.74-.71.58.58,0,0,1,.81.67A1.12,1.12,0,0,1,64.39,47.73Z"/>
      <path class="cls-19" d="M62.5,43.6a1.14,1.14,0,0,1-1.2-.06.59.59,0,0,1,0-1.05,1.35,1.35,0,0,1,1.37,0C63.09,42.77,63.07,43.23,62.5,43.6Z"/>
    </g>
    <g>
      <path class="cls-20" d="M100.4,69.69l.13-.15a5.55,5.55,0,0,0,1-1.67,6.2,6.2,0,0,0,.24-1.34c0-.33.11-.65.15-1a16.26,16.26,0,0,0-.23-4.84c-.3-1.58-.78-3.13-1-4.73-.46-3-.57-6.09-1-9.12A15.46,15.46,0,0,0,98.56,43c-.24-.58-.27-.91-.83-1.28a5.75,5.75,0,0,0-2.1-.9,7.94,7.94,0,0,0-2.34-.29,8.77,8.77,0,0,1-2,.09c-2.19-.24-4.38-.55-6.56-.83l-2.46-.31c-.16,0-.71-.19-.86-.1a22.69,22.69,0,0,0-1.11,3.12,85.11,85.11,0,0,0-2.15,12.85c-.27,2.43.49,7.1.93,9.53a8.42,8.42,0,0,0,.73,2.22,2.82,2.82,0,0,0,.18.32,6.89,6.89,0,0,0,3.06,2.46A15.47,15.47,0,0,0,87.4,71c.22,0,.44.08.66.12l1.27.16,1.18.09c.69,0,1.38.11,2.07.1a8.56,8.56,0,0,0,1.29-.23c.51-.09,1-.22,1.55-.27a3.27,3.27,0,0,1,1,.09,4.79,4.79,0,0,0,2.78-.46A4.42,4.42,0,0,0,100.4,69.69Z"/>
      <path class="cls-21" d="M82,42c1,1,2,.31,3.14.31,5.52,0,8,6.72,7.14,11.36-.78,4-2.07,9.95-6.28,11.8-3.84,1.69-6.71-3.7-7.17-6.86a23.45,23.45,0,0,1,.42-7c.48-3,.87-6.55,2.4-9.17A.84.84,0,0,1,82,42Z"/>
    </g>
    <path class="cls-13" d="M100.34,38.06c0,.08-.13.07-.2.07S100.25,38,100.34,38.06Z"/>
    <path class="cls-13" d="M100.42,38c0,.07,0,.07-.09.08S100.36,38,100.42,38Z"/>
    <path class="cls-22" d="M103.11,25.95l-.05.06Z"/>
    <g>
      <g>
        <path class="cls-23" d="M83.67,17.43a4.78,4.78,0,0,1-.72.87,24.22,24.22,0,0,0-2,2.93A21.47,21.47,0,0,1,79,24a5.2,5.2,0,0,0-1.18,2.43c0,.18,0,.39-.19.51-1.8-1.6-3.18-3.48-3.11-6a6.43,6.43,0,0,1,3.19-5.67,3.64,3.64,0,0,1,4.65.69C82.8,16.48,83.23,17,83.67,17.43Z"/>
        <path class="cls-22" d="M77.86,22.9l.08-.12C77.84,22.77,77.86,22.84,77.86,22.9Z"/>
        <g class="cls-24">
          <path class="cls-19" d="M77.86,22.9a6.12,6.12,0,0,0-.59,1.39,3.19,3.19,0,0,0,.8,3.16s0,.07,0,.1h0a.14.14,0,0,1,.15.09l.82.48A20,20,0,0,1,81.29,26a2.31,2.31,0,0,0,.66-2.39,1.06,1.06,0,0,1-.07-.44l0-.07h0c-.2-.09-.31-.29-.46-.44a2.06,2.06,0,0,0-2.52-.48c-.36.15-.6.45-.93.63h0Z"/>
          <path class="cls-22" d="M77.93,22.78c.33-.18.58-.47.93-.63a2.06,2.06,0,0,1,2.52.48c.15.15.26.34.46.44a3.13,3.13,0,0,0-1.46-2,4,4,0,0,0-3.14-.37,7.73,7.73,0,0,1,2.81.66A2.83,2.83,0,0,0,77.93,22.78Z"/>
        </g>
      </g>
      <g>
        <path class="cls-22" d="M108.56,28.48c-.24-.29-.36-.65-.64-.93a2.06,2.06,0,0,0-2.52-.49,1.93,1.93,0,0,1-.59.23,3.13,3.13,0,0,1,2.1-1.31,4,4,0,0,1,3.05.82,7.73,7.73,0,0,0-2.86-.43A2.83,2.83,0,0,1,108.56,28.48Z"/>
        <path class="cls-19" d="M108.58,28.62a6.12,6.12,0,0,1,0,1.51,3.19,3.19,0,0,1-1.91,2.64s-.05.05-.07.08h0a.32.32,0,0,1-.17,0l-.94.14a20,20,0,0,0-1.26-2.83,2.31,2.31,0,0,1,.28-2.46,1.06,1.06,0,0,0,.23-.39l.06,0h0a1.93,1.93,0,0,0,.59-.23,2.06,2.06,0,0,1,2.52.49c.27.27.39.64.64.93h0Z"/>
        <g>
          <path class="cls-25" d="M113.89,23.64a3.7,3.7,0,0,0-3.46-2,6.27,6.27,0,0,0-2.08.58,3.81,3.81,0,0,1-2.2.24,3.89,3.89,0,0,1-1.76-1,33.12,33.12,0,0,0-6.08-4.08.45.45,0,0,1-.29-.5,2.25,2.25,0,0,0-.26-1.47,2.18,2.18,0,0,1-.17-2c0-.12.07-.25.13-.43a2.86,2.86,0,0,0-.78.61,5.62,5.62,0,0,0-.85,1.34,2.71,2.71,0,0,1-.62.9c-.16.13-.26.12-.32-.1a2.49,2.49,0,0,1,0-1,9.11,9.11,0,0,0,.16-2.08,3.55,3.55,0,0,0-.71-1.9,3.16,3.16,0,0,1-.46,1.39,11.86,11.86,0,0,1-1,1.34A2.88,2.88,0,0,0,92.28,15a2.62,2.62,0,0,1-.51-1.58A5,5,0,0,1,92,11.79a1.73,1.73,0,0,0-.78.31,6.11,6.11,0,0,0-2.05,2.3,1,1,0,0,1-.63.53,22,22,0,0,0-3.69,1.71c-4.13,2.41-7.91,7.61-7.2,12.57q.08.58.21,1.15h0a12.74,12.74,0,0,1,.33,4.84,14.41,14.41,0,0,0,1.56,6.38,11.18,11.18,0,0,0,6,2.62,7.57,7.57,0,0,0,5.23-1.58c2.08-1.5,4.4-2,6.84-2.54a12.24,12.24,0,0,0,5.08-2c1-.8,3.1-3.73,2.7-5a20,20,0,0,0-1.26-2.83,2.31,2.31,0,0,1,.28-2.46,1.06,1.06,0,0,0,.23-.39l.06,0h0a3.13,3.13,0,0,1,2.1-1.31,4,4,0,0,1,3.05.82,7.73,7.73,0,0,0-2.86-.43,2.83,2.83,0,0,1,1.45,2.1.8.8,0,0,0,0,.14,6.12,6.12,0,0,1,0,1.51,3.19,3.19,0,0,1-1.91,2.64s-.05.05-.07.08a5.5,5.5,0,0,0,1.55-.09,9.51,9.51,0,0,0,4.15-1.49C115,29.46,115.09,25.72,113.89,23.64Z"/>
          <polygon class="cls-25" points="108.56 28.48 108.56 28.47 108.56 28.47 108.56 28.48"/>
        </g>
        <path class="cls-22" d="M97.13,28c-.57-1.1-1.13-2.21-2.43-2.57a4.22,4.22,0,0,0-3.49.86,3.94,3.94,0,0,1,1-1.19,4.72,4.72,0,0,1,1.92-1.13,1.74,1.74,0,0,1,1.85.48A5,5,0,0,1,97.13,28Z"/>
        <path class="cls-22" d="M84.62,25c-.56-.9-1.08-1.82-2.22-2.07a3.66,3.66,0,0,0-2.93.85,4.08,4.08,0,0,1,2.82-2.19,1.35,1.35,0,0,1,.91.24A4.09,4.09,0,0,1,84.62,25Z"/>
        <path class="cls-18" d="M88.78,27.9a5.66,5.66,0,0,1-5.92,2.85A5.8,5.8,0,0,0,86,33.52,9.07,9.07,0,0,0,88.78,27.9Z"/>
        <g>
          <path class="cls-13" d="M96.51,30.55a2.79,2.79,0,0,1-2.87,2.67A4.62,4.62,0,0,1,92.06,33a2.82,2.82,0,0,1-2.15-2.68,3.69,3.69,0,0,1,2.63-3.74,3.33,3.33,0,0,1,4,3A3.88,3.88,0,0,1,96.51,30.55Z"/>
          <path class="cls-22" d="M92.42,32.48a2.62,2.62,0,1,1,.5-5.22,2.62,2.62,0,0,1-.5,5.22Zm-1.24-3.06A.53.53,0,0,0,91,30a1.71,1.71,0,0,0,1.56,1.7,1.75,1.75,0,0,0,1.74-1.18,1.67,1.67,0,0,0-.89-2,3.35,3.35,0,0,0-1.15-.18c-.43-.4-.87-.43-1.2-.09A.79.79,0,0,0,91.18,29.42Z"/>
          <path class="cls-26" d="M92.22,28.32a3.35,3.35,0,0,1,1.15.18,1.67,1.67,0,0,1,.89,2,1.75,1.75,0,0,1-1.74,1.18A1.71,1.71,0,0,1,91,30a.53.53,0,0,1,.21-.54.81.81,0,0,0,.94-.15A.82.82,0,0,0,92.22,28.32Z"/>
          <path class="cls-13" d="M92.22,28.32a.82.82,0,0,1-.1,1,.81.81,0,0,1-.94.15A.79.79,0,0,1,91,28.24C91.35,27.89,91.79,27.93,92.22,28.32Z"/>
        </g>
        <g>
          <path class="cls-13" d="M83.95,27.58a2.52,2.52,0,0,1-2.76,2.31,3.34,3.34,0,0,1-1.7-.41,2.19,2.19,0,0,1-1.16-2.12,5.25,5.25,0,0,1,.55-2,2.56,2.56,0,0,1,2.8-1.16A3,3,0,0,1,83.95,27.58Z"/>
          <path class="cls-22" d="M78.51,26.73a2.38,2.38,0,1,1,2.13,2.61A2.35,2.35,0,0,1,78.51,26.73Zm1,0c-.19,0-.17.17-.17.28a2,2,0,0,0,.08.47,1.51,1.51,0,0,0,2.51.69,1.53,1.53,0,0,0,.18-2,1.51,1.51,0,0,0-1.7-.56c-.45-.27-.78-.25-1,.06S79.16,26.33,79.51,26.69Z"/>
          <path class="cls-26" d="M80.41,25.62a1.51,1.51,0,0,1,1.7.56,1.53,1.53,0,0,1-.18,2,1.51,1.51,0,0,1-2.51-.69,2,2,0,0,1-.08-.47c0-.12,0-.27.17-.28a.88.88,0,0,0,.52.1C80.57,26.67,80.73,26.18,80.41,25.62Z"/>
          <path class="cls-13" d="M80.41,25.62c.32.56.16,1.05-.38,1.17a.88.88,0,0,1-.52-.1q-.52-.55-.13-1C79.64,25.36,80,25.34,80.41,25.62Z"/>
        </g>
        <g>
          <g>
            <path class="cls-27" d="M89.69,42.26c-.08.39,0-.18-.06.21a2.84,2.84,0,0,1-1.18,1.41,5.23,5.23,0,0,1-4.12.2c-.79-.24-1.56-.52-2.36-.73A3.53,3.53,0,0,1,79.2,41.2a10.15,10.15,0,0,1-.58-1.79c0-.89,0-1.79,0-2.68a8.51,8.51,0,0,1,0-1.3,1.71,1.71,0,0,1,.21.63c.1.72.19,1.44.32,2.16a4,4,0,0,0,2.36,3.09,10.56,10.56,0,0,0,4.08.95A4.19,4.19,0,0,0,90,39.43a3.1,3.1,0,0,1,.52-1,19.9,19.9,0,0,1-.67,3.25C89.79,41.88,89.72,42.07,89.69,42.26Z"/>
            <path class="cls-22" d="M90.49,38.43a3.1,3.1,0,0,0-.52,1,4.19,4.19,0,0,1-4.35,2.84,10.56,10.56,0,0,1-4.08-.95,4,4,0,0,1-2.36-3.09c-.13-.72-.22-1.44-.32-2.16a1.71,1.71,0,0,0-.21-.63c0-.14-.11-.28,0-.42a6,6,0,0,0,1,1.15,2.21,2.21,0,0,0,3.2-.47,3.8,3.8,0,0,0,.43-.82c0-.11-.05-.56.06-.7s.21,0,.25,0a.44.44,0,0,0,0,.31,3.54,3.54,0,0,1,0,.41,5.45,5.45,0,0,0,.21.9,3.07,3.07,0,0,0,1,1.46,5.46,5.46,0,0,0,5.49.89.77.77,0,0,0,.35-.26A.86.86,0,0,1,90.49,38.43Zm-9,1.86A11.86,11.86,0,0,0,85,41.38a3.28,3.28,0,0,0,1.44.05c1.33.08,3.2-1.47,3.57-2.61,0-.06.07-.12,0-.18s-.17,0-.26,0a5.06,5.06,0,0,1-2,.28,5.51,5.51,0,0,1-3.22-1.32,4.93,4.93,0,0,1-1.28-1.67,2.78,2.78,0,0,1-4.07.59l0,0,0,0A4.23,4.23,0,0,0,81.46,40.29Z"/>
            <path class="cls-27" d="M90.68,37.93a.77.77,0,0,1-.35.26,5.46,5.46,0,0,1-5.49-.89,3.9,3.9,0,0,1-1.27-2.9c0-.09,0-.22.15-.2a3,3,0,0,0,2.93-1.47l0,0c.43.44,1,.71,1.47,1.12a6.87,6.87,0,0,1,2.39,3.35C90.61,37.42,90.64,37.68,90.68,37.93Z"/>
            <path class="cls-27" d="M81,31.3c.07.24.11.49.2.73a3.18,3.18,0,0,0,2,2.06c.21.07.27.13.2.35a4.47,4.47,0,0,1-.59,1.26,2.21,2.21,0,0,1-3.2.47,6,6,0,0,1-1-1.15h0a.16.16,0,0,0-.05-.16v0a.1.1,0,0,0,0-.05,1.41,1.41,0,0,1,.37-.94C79.63,33,80.28,32.12,81,31.3Z"/>
            <path class="cls-22" d="M78.59,34.86a.16.16,0,0,1,.05.16C78.52,35,78.61,34.91,78.59,34.86Z"/>
            <path class="cls-28" d="M79.26,36.52a2.78,2.78,0,0,0,4.07-.59,4.93,4.93,0,0,0,1.28,1.67,5.51,5.51,0,0,0,3.22,1.32,5.06,5.06,0,0,0,2-.28c.09,0,.18-.09.26,0s0,.12,0,.18c-.37,1.14-2.25,2.69-3.57,2.61a2.33,2.33,0,0,0-1.22-.49,4.64,4.64,0,0,1-2.11-.59,1.54,1.54,0,0,0-1.68-.06,4.23,4.23,0,0,1-2.2-3.77Z"/>
            <path class="cls-29" d="M81.46,40.29a1.54,1.54,0,0,1,1.68.06,4.64,4.64,0,0,0,2.11.59,2.33,2.33,0,0,1,1.22.49A3.28,3.28,0,0,1,85,41.38,11.86,11.86,0,0,1,81.46,40.29Z"/>
          </g>
          <path class="cls-30" d="M86.71,32.33A1.57,1.57,0,0,1,86,33.51a3.17,3.17,0,0,1-2.69.61A3.6,3.6,0,0,1,81,32.31a1.31,1.31,0,0,1-.16-.93,1,1,0,0,1,.5-.64,3,3,0,0,1,.92-.12,6.62,6.62,0,0,1,2,.21c.2,0,.86.16,1.05.23a3.82,3.82,0,0,1,.78.37A1.23,1.23,0,0,1,86.71,32.33Z"/>
        </g>
      </g>
    </g>
    <g>
      <path class="cls-13" d="M82,68.33s-1-.42-2.88-2.74c-.42-.41-2.38-2.58-4.48-2.05s-1.75,4.22-.69,6.89,2.79,5.22,3.46,5.08A15.92,15.92,0,0,0,81.24,74C81.82,72.81,84.28,69.76,82,68.33Z"/>
      <path class="cls-14" d="M74.59,63.54a3.47,3.47,0,0,0-1.1,3.31,15.75,15.75,0,0,0,3.66,8.37c.07.09.18.15.21.29a3.72,3.72,0,0,1-.89.1.33.33,0,0,1-.3-.15,20.65,20.65,0,0,1-3.72-7.61,6.05,6.05,0,0,1-.16-2.12,2.42,2.42,0,0,1,1.94-2.21A.55.55,0,0,1,74.59,63.54Z"/>
      <path class="cls-15" d="M78,69.28a8.57,8.57,0,0,1,.27-3.5,1.09,1.09,0,0,1,.23-.37c.13-.14.24-.15.36,0l.05.06c.2.21.49.38.59.62s-.25.43-.36.67a4.2,4.2,0,0,0-.25,2.13,6.42,6.42,0,0,0,.1.66.42.42,0,0,1-.26.48c-.19.09-.33,0-.43-.19S78.07,69.48,78,69.28Z"/>
      <path class="cls-16" d="M76.52,67.62a5.24,5.24,0,0,1,.43-3c.25-.45.34-.46.74-.16s.51.39.2,1a5.37,5.37,0,0,0-.48,2.69c0,.18.15.44-.11.52s-.37-.18-.51-.35A2.19,2.19,0,0,1,76.52,67.62Z"/>
      <path class="cls-17" d="M75.05,66.32a3.87,3.87,0,0,1,.56-2.52.88.88,0,0,1,1.19.06c.06.1,0,.15-.05.2A3.56,3.56,0,0,0,76,66.61c0,.17.05.36-.17.43a.46.46,0,0,1-.49-.19A1.13,1.13,0,0,1,75.05,66.32Z"/>
      <path class="cls-20" d="M90.53,63.67a.39.39,0,0,1-.19.5c-.53.32-1,.65-1.56,1a6.65,6.65,0,0,0-1,.75,8.11,8.11,0,0,1-2.12,1.23,7,7,0,0,1-1.31.58c-.73.19-1.45.41-2.18.56-.31.06-.37.15-.35.45A1.64,1.64,0,0,1,81,70.49a5.39,5.39,0,0,1-.62.26.58.58,0,0,0-.43.51,4.41,4.41,0,0,0,0,.67,3.2,3.2,0,0,0,.92,1.92c.29.33.66.14,1,.18l.12,0A10.82,10.82,0,0,0,86.48,74c.22,0,.67-.1.81-.14l1-.26a16.23,16.23,0,0,0,2.74-1,24.23,24.23,0,0,1,3.46-1.64S97,65.06,90.53,63.67Z"/>
    </g>
  </g>
  <path class="cls-31" d="M112.05,63.46,55.21,36.62a2.09,2.09,0,0,0-1.79,3.78l56.84,26.84a14.78,14.78,0,0,0,6.51,7.37l22.48,10.61s2.67-.06,4.71-4.38.39-6.42.39-6.42L121.88,63.81A14.77,14.77,0,0,0,112.05,63.46Z"/>
  <g>
    <path class="cls-2" d="M145.62,90.26s6.58,1.82,5.38-1.21S145.62,90.26,145.62,90.26Z"/>
    <path class="cls-2" d="M158.33,89.33s4.12,2.85,4,.46S158.33,89.33,158.33,89.33Z"/>
    <path class="cls-3" d="M163.52,87.1s4.74,2.65,4.38.09S163.52,87.1,163.52,87.1Z"/>
    <path class="cls-2" d="M151.54,80.69s6.74-1.09,4.39-3.34S151.54,80.69,151.54,80.69Z"/>
    <path class="cls-3" d="M151.91,86.95s8.9,1.22,6.8-2.52S151.91,86.95,151.91,86.95Z"/>
    <path class="cls-2" d="M141.7,87.82s8.88-1.36,5.8-4.34S141.7,87.82,141.7,87.82Z"/>
    <path class="cls-2" d="M160.28,80.52s6.46.12,4.64-2.37S160.28,80.52,160.28,80.52Z"/>
  </g>
  <g>
    <path class="cls-2" d="M133.86,93.12s-5.27-2.54-4.72.19S133.86,93.12,133.86,93.12Z"/>
    <path class="cls-3" d="M125,90.53s-5.71-3.52-5.41-.34S125,90.53,125,90.53Z"/>
    <path class="cls-3" d="M141,92.62s-4.72-3.43-4.66-.65S141,92.62,141,92.62Z"/>
    <path class="cls-2" d="M133.7,88.07s-7.11-6.75-7.63-2.1S133.7,88.07,133.7,88.07Z"/>
    <path class="cls-2" d="M124.51,86.31S121.39,80,119.88,83,124.51,86.31,124.51,86.31Z"/>
  </g>
  <g>
    <path class="cls-2" d="M147.53,77.78s5.6-3.08,5.16-.07S147.53,77.78,147.53,77.78Z"/>
    <path class="cls-3" d="M153.69,74.65s5.38-3.72,5.24-.61S153.69,74.65,153.69,74.65Z"/>
    <path class="cls-2" d="M148.12,74.17s4.3-4.54,4.79-1.6S148.12,74.17,148.12,74.17Z"/>
    <path class="cls-2" d="M155,68.93s1.27-5.91,3.15-3.72S155,68.93,155,68.93Z"/>
  </g>
  <g>
    <path class="cls-2" d="M102.33,95.78s-6.39.25-4.45,2.61S102.33,95.78,102.33,95.78Z"/>
    <path class="cls-3" d="M95.45,96.28s-6.53-.41-4.8,2.19S95.45,96.28,95.45,96.28Z"/>
    <path class="cls-2" d="M100,93s-6-1.67-4.93,1.11S100,93,100,93Z"/>
    <path class="cls-2" d="M91.37,92.06s-4.14-4.4-4.62-1.56S91.37,92.06,91.37,92.06Z"/>
  </g>
  <path class="cls-20" d="M95,47.91a7.55,7.55,0,0,1,.14,1.86h0c-.14.9-.89,1.34-2.45,1.59a4,4,0,0,1-2.75-.29,1.69,1.69,0,0,0-.37-.13,5.41,5.41,0,0,1-2.05-1.07,2,2,0,0,0-2.45-.41,2,2,0,0,0-1,2.06c0,.16,0,.27-.2.32a1.65,1.65,0,0,0-.94,2.54.6.6,0,0,1,0,.62,2,2,0,0,0,1.7,2.65c.28,0,.37.06.44.3a1.42,1.42,0,0,0,1.22,1.1A2.26,2.26,0,0,0,88,58.56a20.58,20.58,0,0,1,2.66-1.85,1.15,1.15,0,0,1,.63-.18,6.92,6.92,0,0,0,1.61-.19c3.6-.84,6.19-3.2,5.89-6.94-.08-1-.83-7.44-1.18-7.61Z"/>
</svg>
