<svg xmlns="http://www.w3.org/2000/svg" xmlns:xlink="http://www.w3.org/1999/xlink" viewBox="0 0 260 168"><defs><style>.cls-1{fill:#4bb21b;}.cls-2{fill:#fff;}.cls-3{fill:#472813;}.cls-4{fill:#111;}.cls-5{fill:#227fef;}.cls-6{fill:#303030;}.cls-7{fill:#9b633d;}.cls-8{clip-path:url(#clip-path);}.cls-9{fill:#2a6805;}.cls-10{fill:#c5db21;}.cls-11{fill:#383838;}.cls-12{fill:#a86f47;}.cls-13{clip-path:url(#clip-path-2);}.cls-14{fill:#99623d;}.cls-15{fill:#177ce0;}.cls-16{fill:#1972dd;}.cls-17{fill:#0461bc;}.cls-18{fill:#895e3c;}.cls-19{fill:#2e83ff;}.cls-20{fill:#126cc6;}.cls-21{fill:#05a;}.cls-22{fill:#247eea;}.cls-23{fill:#996542;}.cls-24,.cls-29{fill:none;stroke:#4f3615;stroke-linecap:round;stroke-linejoin:round;opacity:0.25;}.cls-24{stroke-width:0.79px;}.cls-25{fill:#28190a;}.cls-26{clip-path:url(#clip-path-3);}.cls-27{fill:#4f3615;}.cls-28{clip-path:url(#clip-path-4);}.cls-29{stroke-width:0.39px;}.cls-30{clip-path:url(#clip-path-5);}.cls-31{fill:#ff5050;}.cls-32{fill:#603913;}.cls-33{clip-path:url(#clip-path-6);}.cls-34{fill:#ffce00;}</style><clipPath id="clip-path"><path class="cls-1" d="M103.48,139.44s-.15,1.44,4.15,2.86c0,0,3.14,1.2,4.17.34a4.51,4.51,0,0,0,2.21,3.29c1.94.95,6.19,3.88,3.11,8,0,0-1.37,1.9-4,.41s-10.29-5.19-11.51-5.94-3.49-2.35-2.08-4.32S103.05,140.23,103.48,139.44Z"/></clipPath><clipPath id="clip-path-2"><path class="cls-1" d="M122.06,146.69s.66,1.29,5,.11c0,0,3.27-.72,3.67-2a4.5,4.5,0,0,0,3.65,1.52c2.15-.26,7.3-.16,7,5,0,0-.1,2.34-3.1,2.53s-11.44,1.34-12.88,1.38-4.2,0-4.11-2.46S122.14,147.6,122.06,146.69Z"/></clipPath><clipPath id="clip-path-3"><circle class="cls-2" cx="129.38" cy="47.33" r="3.2" transform="translate(63.48 168.3) rotate(-81.51)"/></clipPath><clipPath id="clip-path-4"><circle class="cls-2" cx="115.89" cy="46.43" r="3.2" transform="translate(54.35 155.06) rotate(-82.3)"/></clipPath><clipPath id="clip-path-5"><path class="cls-3" d="M118.38,55.16a25.79,25.79,0,0,0,7.07.47S122,63.45,118.38,55.16Z"/></clipPath><clipPath id="clip-path-6"><path class="cls-4" d="M136,30.52c-.39-.38-.8-.73-1.22-1.07h0s-4.9-4.48-10.73-4.87H124c-5.13-.31-10,2.6-11,3.27a16.94,16.94,0,0,0-1.6,1.05c-5.17,3.84-.57,7.44-.57,7.44l12.3,1.26h.07L135.6,38S140.64,35,136,30.52Z"/></clipPath></defs><g id="Layer_10" data-name="Layer 10"><path class="cls-5" d="M127.15,70.7s7.52,4.64,11.68,10.46c0,0,.35,3.64-2.35,5.73,0,0-8.63-1.38-14.53-7.72S122.18,68.25,127.15,70.7Z"/><path class="cls-6" d="M129,97.18s-7.45-4.81-12.07.18-5.74,18.11-5.34,22.65,7.92,4.45,9.62,1.93S129,112.05,129,97.18Z"/><path class="cls-7" d="M106.05,131.83s-1.78,6.87-3.06,8.43-5.33,4.68-2.4,6.67,9.52,5.1,13,7.1,5.72-3.2,2.79-6.38-7.72-.74-2.62-10.37l-2.64-6.38Z"/><path class="cls-6" d="M109.39,121.06s-6.22,13.68-6.08,18.56c0,0,3.79,4.61,11.47,3.85,0,0,6.81-9.7,5.8-25.34C120.58,118.13,114.15,113.68,109.39,121.06Z"/><path class="cls-1" d="M103.48,139.44s-.15,1.44,4.15,2.86c0,0,3.14,1.2,4.17.34a4.51,4.51,0,0,0,2.21,3.29c1.94.95,6.19,3.88,3.11,8,0,0-1.37,1.9-4,.41s-10.29-5.19-11.51-5.94-3.49-2.35-2.08-4.32S103.05,140.23,103.48,139.44Z"/><g class="cls-8"><path class="cls-9" d="M98.38,144.5s1.65,2.08,6.23,4.37,9.4,4.91,10.57,5.14a2.38,2.38,0,0,0,2.53-1l.17.72-2.24,2.61-5.72-1.49L97.7,147.1a8.3,8.3,0,0,1,.1-1.8C97.93,145.32,98.38,144.5,98.38,144.5Z"/></g><path class="cls-10" d="M111.8,142.64s-.46-.31-2.61.13.4,2.63.4,2.63l3-.69Z"/><path class="cls-10" d="M110.56,146a12.3,12.3,0,0,1,2.45-.8l.81.59a19.75,19.75,0,0,0-2.15,1Z"/><path class="cls-11" d="M124,94.8s-8.8-1.08-10.79,5.42,2.7,18.81,5,22.71,9.07.57,9.51-2.44S130.49,108.18,124,94.8Z"/><path class="cls-12" d="M120,138.93s2.3,6.71,2.09,8.72-1.88,6.84,1.67,6.9,10.75-1,14.77-1.25,3-5.82-1.17-6.86-6.86,3.64-7.9-7.22l-5.72-3.87Z"/><path class="cls-11" d="M116.73,124.82s.34,15,2.59,19.35c0,0,5.42,2.51,12-1.51,0,0,1.92-11.7-5.79-25.34C125.53,117.32,117.8,116.11,116.73,124.82Z"/><path class="cls-1" d="M122.06,146.69s.66,1.29,5,.11c0,0,3.27-.72,3.67-2a4.5,4.5,0,0,0,3.65,1.52c2.15-.26,7.3-.16,7,5,0,0-.1,2.34-3.1,2.53s-11.44,1.34-12.88,1.38-4.2,0-4.11-2.46S122.14,147.6,122.06,146.69Z"/><g class="cls-13"><path class="cls-9" d="M120.59,153.73s2.52.83,7.6.22,10.55-1.08,11.65-1.53a2.38,2.38,0,0,0,1.59-2.2l.54.51-.43,3.41-5.6,1.91-14.49.22s-1-1.5-.91-1.55S120.59,153.73,120.59,153.73Z"/></g><path class="cls-10" d="M130.77,144.79s-.56,0-2.12,1.55,1.78,2,1.78,2l2.12-2.22Z"/><path class="cls-10" d="M131.6,148.3a12.26,12.26,0,0,1,1.61-2l1,0a20,20,0,0,0-1.24,2Z"/><path class="cls-14" d="M145.18,59.78c.19.92-.79,3.28-2.27,6.15,0,0-.67,1.41-3.29.15a4.28,4.28,0,0,1-2.21-2.49A16.31,16.31,0,0,1,136.34,60a2.24,2.24,0,0,1,1.86-2.56s.52-2,2-1.58S144.81,58.06,145.18,59.78Z"/><path class="cls-5" d="M131.43,81.86A92.35,92.35,0,0,1,137.27,64s4.27.07,5.59,1.67a66.45,66.45,0,0,1-3.75,17.86s-1.66,3.72-4.29,2.58-3.86-2.31-3.39-4.27"/><path class="cls-15" d="M135,66.46l9,1.37.36-2.33s-5.65-3.61-7-3.37S135,66.46,135,66.46Z"/><path class="cls-14" d="M136.34,60s-2.72-3.65-1.9-4.53,2-.16,3.51,2.21l.17,2.75Z"/><path class="cls-14" d="M138.25,57.81s.76-7.35,1.88-7.25c1.61.16.47,4-.08,7.16C140.05,57.72,139.26,60.1,138.25,57.81Z"/><path class="cls-14" d="M140,57.62s1.66-7.2,2.76-7c1.58.36,0,4-1,7.09C141.8,57.75,140.72,60,140,57.62Z"/><path class="cls-14" d="M141.51,58.84s2.31-7,3.38-6.67c1.54.49-.39,4-1.6,7C143.29,59.14,142,61.29,141.51,58.84Z"/><path class="cls-14" d="M143,61s2-6.17,3-5.87c1.35.43-.35,3.51-1.41,6.13C144.59,61.23,143.47,63.12,143,61Z"/><path class="cls-16" d="M125,67.83c.17,0,4.23-.51,5.23,6.31s2.16,15.65,2.16,19.15-1.1,11.14-2.36,11.57-1.06-3.75-1.06-3.75l-7.82-24Z"/><path class="cls-17" d="M124.42,65.11a15.41,15.41,0,0,0,3.76.91l.39,3.67-5.49-1.6Z"/><path class="cls-17" d="M115.09,63.93s.78-.84,3.61-.17l-.56,2.51S115.31,64.76,115.09,63.93Z"/><path class="cls-18" d="M117.44,58.56s.49,6.88-2.34,8.3c0,0,2.34,5.6,11.62,2.27,0,0-1.49-2.06-1.84-8.65S117.44,54,117.44,58.56Z"/><path class="cls-19" d="M114.61,66.13A6.25,6.25,0,0,0,109.82,71c-1,4.28-7,23.65-4.38,28.61s5.93,3.79,10.31,3.69,15,1.95,15.75-4.28-1.19-21.94-4.19-29.3C127.31,69.71,121.94,64.75,114.61,66.13Z"/><polygon class="cls-19" points="126.64 66.58 127.31 69.71 125.22 69.75 126.64 66.58"/><path class="cls-20" d="M115.09,63.93s6.31,3,11.56,2.65l-1,3.74s-11.06-2.07-12.67-3.6Z"/><circle class="cls-21" cx="127.81" cy="74.65" r="0.57"/><circle class="cls-21" cx="129.34" cy="81.81" r="0.57"/><circle class="cls-21" cx="130.17" cy="89.87" r="0.57"/><circle class="cls-21" cx="130.09" cy="98.26" r="0.57"/><path class="cls-19" d="M130.3,101.59s-2.66,6.42-7,7.91c-2.22.76-14.78.91-16.6-2.59s-4.28-4.8-1.68-14.79c0,0,12.19,9.47,12.58,9.47Z"/><path class="cls-19" d="M116.62,75.66a95.74,95.74,0,0,1-11.38,12.06s-4.2-3.43-6.56-3.48c0,0,8.17-12.76,10.15-14.33s4.65-2.62,7.46.71S116.62,75.66,116.62,75.66Z"/><path class="cls-14" d="M90.09,109.72a1.38,1.38,0,0,1-1.54-1.34s-1.5,0-1.31-1.78a1.75,1.75,0,0,1-.69-2,9.44,9.44,0,0,1,2.53-4.45s1.23-2.21,4.51-.7,1.93,4.21,1.93,4.21.81,4.4-1.81,5.76c-.14.2-.29.39-.45.58C93.26,110,92.28,112.23,90.09,109.72Z"/><path class="cls-19" d="M106.5,87a92.39,92.39,0,0,1-11.29,15s-4-1.44-4.76-3.39A66.26,66.26,0,0,1,99.77,83s2.78-3,4.9-1.07,2.9,3.44,1.83,5.15"/><path class="cls-22" d="M98.19,100.46l-8.07-4.2L89,98.35s4.18,5.24,5.51,5.44S98.19,100.46,98.19,100.46Z"/><path class="cls-12" d="M134.83,53.12s-2.29,9.89-6.33,8.31c0,0-3.24-4.28.71-8.11S134.83,53.12,134.83,53.12Z"/><path class="cls-12" d="M109.82,51.64s1,10.11,5.17,9.08c0,0,3.78-3.82.37-8.14S109.82,51.64,109.82,51.64Z"/><path class="cls-23" d="M110.07,45.13s-1-2.36-2.22-.07S107.07,52,110,51.63l1.61-3.94Z"/><path class="cls-23" d="M135.1,46.79s1.26-2.22,2.21.23-.15,7-3,6.22l-1.08-4.12Z"/><path class="cls-24" d="M109.4,45a2.79,2.79,0,0,0-1.33,2.69c0,2.06.87,3.11,1.87,2.9"/><path class="cls-24" d="M135.42,46.73a2.78,2.78,0,0,1,1,2.84c-.29,2-1.26,3-2.23,2.63"/><path class="cls-12" d="M135.89,46c-.67,10.11-4.24,18.1-14.35,17.43S109,54.36,109.65,44.25,113.86,26.14,124,26.81,136.56,35.88,135.89,46Z"/><path class="cls-25" d="M133,44.23a.48.48,0,0,1-.38-.24,4,4,0,0,0-2.34-1.87,3.79,3.79,0,0,0-3.08.86.47.47,0,0,1-.65-.11.46.46,0,0,1,.11-.64,4.62,4.62,0,0,1,3.83-1,4.93,4.93,0,0,1,2.95,2.33.45.45,0,0,1-.19.62A.46.46,0,0,1,133,44.23Z"/><circle class="cls-2" cx="129.38" cy="47.33" r="3.2" transform="translate(63.48 168.3) rotate(-81.51)"/><g class="cls-26"><circle class="cls-27" cx="129.44" cy="47.39" r="2.21"/><circle cx="129.44" cy="47.39" r="1.35"/><circle class="cls-2" cx="128.8" cy="46.53" r="0.78"/></g><path class="cls-25" d="M112.7,42.88a.38.38,0,0,1-.24-.09.45.45,0,0,1-.1-.64,4.93,4.93,0,0,1,3.22-1.92,4.67,4.67,0,0,1,3.67,1.51.46.46,0,1,1-.63.67,3.81,3.81,0,0,0-2.94-1.26,4.1,4.1,0,0,0-2.57,1.54A.46.46,0,0,1,112.7,42.88Z"/><circle class="cls-2" cx="115.89" cy="46.43" r="3.2" transform="translate(54.35 155.06) rotate(-82.3)"/><g class="cls-28"><circle class="cls-27" cx="115.91" cy="46.44" r="2.21"/><circle cx="115.91" cy="46.44" r="1.35"/><circle class="cls-2" cx="116.65" cy="45.68" r="0.78"/></g><path class="cls-29" d="M112.65,49.47s2.46,3.09,5.56.6"/><path class="cls-29" d="M132.24,50.77s-2.84,2.74-5.58-.14"/><path class="cls-29" d="M119,53.26a6.05,6.05,0,0,0-4,5.25"/><path class="cls-29" d="M125.86,53.71a6.06,6.06,0,0,1,3.31,5.74"/><path class="cls-3" d="M118.38,55.16a25.79,25.79,0,0,0,7.07.47S122,63.45,118.38,55.16Z"/><g class="cls-30"><path class="cls-2" d="M118.85,54.5A3.1,3.1,0,0,0,122,57a3.47,3.47,0,0,0,3.51-2.57Z"/><path class="cls-31" d="M119.21,59.28s.3-1.76,2.7-1.6A3.09,3.09,0,0,1,124.76,60Z"/></g><path class="cls-4" d="M121.45,53.23s-1.59-1.7-4.09.39c-2.24,1.87-3.93-.91-3.93-.91s-.36,4.21,5.13,4.41a6.28,6.28,0,0,0,2.59-.58C123.24,55.52,121.45,53.23,121.45,53.23Z"/><path class="cls-4" d="M123.05,53.34s1.64-1.77,4,.92c1.93,2.2,4-.38,4-.38s-.2,4.22-5.67,3.69a6.16,6.16,0,0,1-2.48-.91C121,55.37,123.05,53.34,123.05,53.34Z"/><path class="cls-32" d="M113,37.15s-.11,5.31-2.48,5.23c0,0,.06,2.66-2.07,1.79,0,0-3.69-1.06-1.22-3.67,0,0,.69-4.4,4.72-3Z"/><path class="cls-32" d="M133.7,38.53s-.58,5.27,1.78,5.51c0,0-.41,2.63,1.81,2,0,0,3.8-.56,1.7-3.47,0,0-.1-4.45-4.29-3.62Z"/><path class="cls-4" d="M136,30.52c-.39-.38-.8-.73-1.22-1.07h0s-4.9-4.48-10.73-4.87H124c-5.13-.31-10,2.6-11,3.27a16.94,16.94,0,0,0-1.6,1.05c-5.17,3.84-.57,7.44-.57,7.44l12.3,1.26h.07L135.6,38S140.64,35,136,30.52Z"/><g class="cls-33"><path class="cls-4" d="M111.55,37.38c.06-.32,2.45-7.66,12.17-7s10.6,7.84,10.6,7.84l-22.77-.83"/></g><path class="cls-34" d="M123.6,32.44h0c-9.49-.62-14.5,3.66-13.87,4.81s1.86.13,1.86.13l3.67-1.17,8.12-.29,8,1.36,3.48,1.64s1.07,1.18,1.86.12S133.08,33.08,123.6,32.44Z"/><path class="cls-4" d="M111.55,37.38s9.13,6.55,23.26,1.54c0,0-2.32-3.21-11.49-3.82C123.32,35.1,114,34.36,111.55,37.38Z"/></g></svg>