<svg id="Layer_1" data-name="Layer 1" xmlns="http://www.w3.org/2000/svg" xmlns:xlink="http://www.w3.org/1999/xlink" viewBox="0 0 260 168"><defs><style>.cls-1{fill:#4bb21b;}.cls-2{fill:#99623d;}.cls-3{fill:#fff;}.cls-4{fill:#111;}.cls-5{fill:#472813;}.cls-6{fill:#227fef;}.cls-7{fill:#303030;}.cls-8{fill:#9b633d;}.cls-9{clip-path:url(#clip-path);}.cls-10{fill:#2a6805;}.cls-11{fill:#c5db21;}.cls-12{fill:#383838;}.cls-13{fill:#a86f47;}.cls-14{clip-path:url(#clip-path-2);}.cls-15{clip-path:url(#clip-path-3);}.cls-16{fill:#77492a;}.cls-17,.cls-23,.cls-26,.cls-30,.cls-31{fill:none;}.cls-17{stroke:#77492a;stroke-miterlimit:10;stroke-width:0.3px;}.cls-18{fill:#177ce0;}.cls-19{fill:#1972dd;}.cls-20{fill:#0461bc;}.cls-21{fill:#895e3c;}.cls-22{fill:#603913;}.cls-23{stroke:#28190a;stroke-width:0.92px;}.cls-23,.cls-26,.cls-30,.cls-31{stroke-linecap:round;stroke-linejoin:round;}.cls-24{clip-path:url(#clip-path-4);}.cls-25{fill:#4f3615;}.cls-26,.cls-30,.cls-31{stroke:#4f3615;opacity:0.25;}.cls-26{stroke-width:0.35px;}.cls-27{fill:#6d6d6d;}.cls-28{clip-path:url(#clip-path-5);}.cls-29{fill:#ffce00;}.cls-30{stroke-width:0.39px;}.cls-31{stroke-width:0.78px;}.cls-32{fill:#2e83ff;}.cls-33{fill:#126cc6;}.cls-34{fill:#05a;}.cls-35{clip-path:url(#clip-path-6);}.cls-36{fill:#ff5050;}.cls-37{fill:#070300;}.cls-38{fill:#247eea;}</style><clipPath id="clip-path"><path class="cls-1" d="M52.75,136.79s-.34,1.41,3.75,3.38c0,0,3,1.59,4.09.87a4.51,4.51,0,0,0,1.77,3.54c1.8,1.2,5.64,4.64,2,8.36,0,0-1.6,1.71-4-.1s-9.54-6.46-10.65-7.37-3.16-2.77-1.51-4.55S52.22,137.53,52.75,136.79Z"/></clipPath><clipPath id="clip-path-2"><path class="cls-1" d="M90.8,143.86s1.13.9,4.64-2c0,0,2.69-2,2.51-3.34a4.5,4.5,0,0,0,4-.11c1.85-1.13,6.59-3.15,8.45,1.68,0,0,.87,2.17-1.78,3.57s-9.89,5.92-11.18,6.54-3.85,1.7-4.76-.55S91.24,144.65,90.8,143.86Z"/></clipPath><clipPath id="clip-path-3"><path class="cls-2" d="M94.3,98.58A4.3,4.3,0,0,1,97.57,98a16.16,16.16,0,0,1,3.68,1,2.22,2.22,0,0,1,1.24,2.9s1.71,1.89,1.68,2.58c0,0,.07,1.22-1.65.88,0,0,.19,1.39-1.67,1,0,0-.17,1.11-1.73.7,0,0-.29.69-2.26-.36-.83-.43-2.41-2.35-4.11-5.09C92.75,101.48,91.88,100.18,94.3,98.58Z"/></clipPath><clipPath id="clip-path-4"><circle class="cls-3" cx="81.41" cy="51.73" r="3.18"/></clipPath><clipPath id="clip-path-5"><path class="cls-4" d="M60.54,50.05s9.78-6.36,29.57-9.8A6.46,6.46,0,0,0,90,36.6C89.42,34.41,87.19,25,78.5,26.08S56.57,35.25,58.08,44.22C58.08,44.22,58.23,48.75,60.54,50.05Z"/></clipPath><clipPath id="clip-path-6"><path class="cls-5" d="M81.72,61.15s-.24,5,4,.9C85.73,62.05,85,60.67,81.72,61.15Z"/></clipPath></defs><path class="cls-6" d="M78.48,71.67s5.29,7.07,7,14c0,0-1,3.51-4.28,4.46,0,0-7.52-4.45-10.69-12.51S74.75,67.57,78.48,71.67Z"/><path class="cls-7" d="M83.44,98.15s-6.77-5.72-12-1.37-8,17.23-8.2,21.78,7.27,5.43,9.29,3.15S81.59,112.91,83.44,98.15Z"/><path class="cls-8" d="M56.27,129.57s-2.65,6.59-4.12,8-5.88,3.95-3.23,6.31,8.79,6.27,12,8.7,6.09-2.44,3.59-6-7.57-1.73-1.27-10.63l-1.81-6.66Z"/><path class="cls-7" d="M61,119.33S53,132.1,52.56,137c0,0,3.16,5.06,10.88,5.29,0,0,8-8.75,9-24.38C72.43,117.86,66.63,112.62,61,119.33Z"/><path class="cls-1" d="M52.75,136.79s-.34,1.41,3.75,3.38c0,0,3,1.59,4.09.87a4.51,4.51,0,0,0,1.77,3.54c1.8,1.2,5.64,4.64,2,8.36,0,0-1.6,1.71-4-.1s-9.54-6.46-10.65-7.37-3.16-2.77-1.51-4.55S52.22,137.53,52.75,136.79Z"/><g class="cls-9"><path class="cls-10" d="M47,141.16s1.36,2.27,5.62,5.13,8.69,6.07,9.82,6.45a2.37,2.37,0,0,0,2.63-.63l.08.74-2.55,2.3-5.49-2.21L46,143.65a8,8,0,0,1,.33-1.77C46.49,141.92,47,141.16,47,141.16Z"/></g><path class="cls-11" d="M60.59,141s-.42-.38-2.61-.21.06,2.65.06,2.65l3.05-.29Z"/><path class="cls-11" d="M58.93,144.24a12.34,12.34,0,0,1,2.53-.47l.73.68a20.9,20.9,0,0,0-2.27.74Z"/><path class="cls-12" d="M71.25,95.75s-8.48,2.62-7.62,9.37,10.18,16,13.91,18.65,8.5-3.2,7.66-6.13S82.68,105.27,71.25,95.75Z"/><path class="cls-13" d="M85.74,137.61s4.85,5.19,5.49,7.11,1.09,7,4.35,5.6,9.4-5.32,13-7.2.36-6.55-3.89-5.77-4.76,6.12-10.17-3.35l-6.8-1.18Z"/><path class="cls-12" d="M77,126.1s6.48,13.57,10.3,16.58c0,0,6,.07,10.32-6.3,0,0-3-11.45-15.68-20.73C81.9,115.65,74.36,117.72,77,126.1Z"/><path class="cls-1" d="M90.8,143.86s1.13.9,4.64-2c0,0,2.69-2,2.51-3.34a4.5,4.5,0,0,0,4-.11c1.85-1.13,6.59-3.15,8.45,1.68,0,0,.87,2.17-1.78,3.57s-9.89,5.92-11.18,6.54-3.85,1.7-4.76-.55S91.24,144.65,90.8,143.86Z"/><g class="cls-14"><path class="cls-10" d="M92.34,150.87s2.64-.27,7-2.91,9.17-5.31,10-6.18a2.38,2.38,0,0,0,.55-2.65l.7.24,1,3.29-4.33,4-13.12,6.15s-1.55-.94-1.47-1S92.34,150.87,92.34,150.87Z"/></g><path class="cls-11" d="M98,138.55s-.51.22-1.29,2.28,2.44,1.06,2.44,1.06l1-2.89Z"/><path class="cls-11" d="M100.16,141.41a12.47,12.47,0,0,1,.64-2.49l.93-.38a20.18,20.18,0,0,0-.29,2.37Z"/><path class="cls-2" d="M94.3,98.58A4.3,4.3,0,0,1,97.57,98a16.16,16.16,0,0,1,3.68,1,2.22,2.22,0,0,1,1.24,2.9s1.71,1.89,1.68,2.58c0,0,.07,1.22-1.65.88,0,0,.19,1.39-1.67,1,0,0-.17,1.11-1.73.7,0,0-.29.69-2.26-.36-.83-.43-2.41-2.35-4.11-5.09C92.75,101.48,91.88,100.18,94.3,98.58Z"/><g class="cls-15"><path class="cls-16" d="M103.34,99.78a5.37,5.37,0,0,1-.87,2.13,3.66,3.66,0,0,1-1.9,1.35,4.6,4.6,0,0,1-1.16.18,1.26,1.26,0,0,1-.63-.06.57.57,0,0,1-.36-.61,2.6,2.6,0,0,1,.62-1l.38-.43.2-.22a1.27,1.27,0,0,1,.12-.1l.08-.06a.17.17,0,0,1,.12,0,.14.14,0,0,1,.1.18v0l0,0a4.12,4.12,0,0,1-1.62.56,2.39,2.39,0,0,1-1.63-.4,2.32,2.32,0,0,0,1.61.25,3.89,3.89,0,0,0,1.5-.62l0,.07s0,.07.08.12.06,0,.05,0l0,0-.1.1-.18.2-.37.44a2.32,2.32,0,0,0-.54.9c0,.28.33.4.69.35a4,4,0,0,0,1.09-.16,3.62,3.62,0,0,0,1.83-1.19A5.92,5.92,0,0,0,103.34,99.78Z"/><path class="cls-17" d="M103.44,106.38A25.32,25.32,0,0,1,101,103"/><path class="cls-17" d="M101.34,106.88s-2.36-2.14-2.15-3.57"/><path class="cls-17" d="M99.4,107.47s-3-3.31-.44-4.16"/><path class="cls-17" d="M97.9,104.15s-1.67-.27-1.19,1.52"/><path class="cls-16" d="M95.68,104.52c.07-.27.11-.53.16-.79a4.15,4.15,0,0,0,.09-.78,1.82,1.82,0,0,0-.46-1.41,1.21,1.21,0,0,1,.6.58,1.79,1.79,0,0,1,.16.85A2.88,2.88,0,0,1,95.68,104.52Z"/></g><path class="cls-6" d="M85,83.45A92.56,92.56,0,0,1,97.28,97.62S95,101.25,93,101.56a66.23,66.23,0,0,1-13.4-12.38s-2.34-3.34,0-5,4-2.12,5.41-.72"/><path class="cls-18" d="M96.37,94.37l-5.79,7,1.82,1.5s6-3,6.47-4.26S96.37,94.37,96.37,94.37Z"/><path class="cls-19" d="M77.2,69c.17.05,4.24-.52,5.23,6.31s2.16,15.65,2.16,19.15-1.1,11.14-2.35,11.57-1.06-3.75-1.06-3.75l-7.83-24Z"/><path class="cls-20" d="M76.64,66.24a15.41,15.41,0,0,0,3.76.91l.39,3.67-5.49-1.6Z"/><path class="cls-20" d="M67.3,65.06s.78-.84,3.62-.17l-.57,2.51S67.53,65.89,67.3,65.06Z"/><path class="cls-21" d="M69.65,59.69s.5,6.88-2.34,8.3c0,0,2.34,5.6,11.63,2.27,0,0-1.49-2.06-1.84-8.65S69.65,55.16,69.65,59.69Z"/><path class="cls-13" d="M74.61,64.52C71,63.4,67.33,60.66,66,57c0,0,0-.17-.09-.49A3.51,3.51,0,0,1,64,56.22c-2-1-2.2-2.87-1.66-4.75a3.94,3.94,0,0,0,.22-1.5,9.11,9.11,0,0,0-.37-1.59,13.12,13.12,0,0,1-.58-3.83,10.36,10.36,0,0,1,3.67-7.45A14,14,0,0,1,73,33.91c4.37-.43,8.67-.42,11.84,2.61a16.74,16.74,0,0,1,3.75,7c.39,2.16-.33,4.53-.55,6.68-.2,2,.16,4.81,1.85,5.83,0,0,1.49.92,1.2,2.05s-3.51.82-3.51.82.5,1.7-1.13,1.88c0,0,.71,7-11.73,3.75"/><path class="cls-22" d="M61.92,48.83a2.77,2.77,0,0,0-2,1.69,1.78,1.78,0,0,0,1,2.22,2,2,0,0,0,1.54,3.36,1.13,1.13,0,0,0,1.09.92,3.35,3.35,0,0,0,1.5-.39,2.29,2.29,0,0,0,1.65.25,1.12,1.12,0,0,0,.82-1.3c.57.17,1.12-.46,1.1-1A2.74,2.74,0,0,0,67.87,53,2.32,2.32,0,0,0,67,49.78a7.2,7.2,0,0,1-1.38-.63,4.78,4.78,0,0,0-.54-.47,1,1,0,0,0-1,0c-.17.12-.36.31-.54.23s-.14-.13-.21-.2c-.29-.3-.78-.19-1.17-.06"/><path class="cls-23" d="M84.8,48a3.88,3.88,0,0,0-6.12-.75"/><circle class="cls-3" cx="81.41" cy="51.73" r="3.18"/><g class="cls-24"><circle class="cls-25" cx="82.77" cy="51.73" r="2.19"/><circle cx="82.77" cy="51.73" r="1.34"/><circle class="cls-3" cx="82.08" cy="50.93" r="0.77"/></g><path class="cls-26" d="M83.44,58.15a7.4,7.4,0,0,0-6.12,4.58"/><path class="cls-22" d="M76.09,43.28A2.85,2.85,0,0,1,77,45.65,1.51,1.51,0,0,1,75,46.83c.33-.06.57.33.58.66a1.76,1.76,0,0,1-.64,1.3,4,4,0,0,1-1.33.69c-.35.12-.88.13-1-.24.4.15.35.75.13,1.12a2.76,2.76,0,0,1-4.18.65,1.74,1.74,0,0,1-2.89-.13,1.46,1.46,0,0,1-1.11,1,1.7,1.7,0,0,1-1.41-.13,1,1,0,0,1-.34-1.27.47.47,0,0,1-.64.16,1,1,0,0,1-.41-.59,2.7,2.7,0,0,1,2-3.49,1.19,1.19,0,0,1-.28-1.43A2.55,2.55,0,0,1,64.61,44a6.31,6.31,0,0,1,1.61-.67c.47-.13,1.08-.15,1.35.26A4,4,0,0,1,68.94,42,2.06,2.06,0,0,1,71,41.81a7.56,7.56,0,0,1,1,.74.4.4,0,0,0,.22.1c.11,0,.19-.09.27-.17l.87-.94c.33-.35.78-.74,1.23-.57s.5.51.84.62a1.15,1.15,0,0,0,.73-.05,1.08,1.08,0,0,1,.73,0c.22.11.32.46.12.61"/><path class="cls-4" d="M75.4,43.6s14,3.89,18.89,1.18-4.72-5-4.72-5Z"/><circle class="cls-27" cx="93.66" cy="42.4" r="0.45"/><path class="cls-4" d="M60.54,50.05s9.78-6.36,29.57-9.8A6.46,6.46,0,0,0,90,36.6C89.42,34.41,87.19,25,78.5,26.08S56.57,35.25,58.08,44.22C58.08,44.22,58.23,48.75,60.54,50.05Z"/><g class="cls-28"><path class="cls-4" d="M59.92,47.18s16.86-16.79,28.14-9.54L73.82,43Z"/><path class="cls-29" d="M56.35,49.62S68.58,39.18,93.12,36.76l-1.53,5.73L56.71,53.94l-.37-3.83"/></g><path class="cls-30" d="M79.37,55.09A3.47,3.47,0,0,0,83.49,55"/><circle class="cls-13" cx="71.18" cy="51.93" r="3.76"/><path class="cls-31" d="M71.43,49.23a2.84,2.84,0,0,0-2.93,2.58s-.47,2.86,3,3.12"/><path class="cls-32" d="M66.83,67.26A6.27,6.27,0,0,0,62,72.12c-1,4.28-7,23.65-4.38,28.61s5.94,3.79,10.31,3.69,15,2,15.76-4.28-1.19-21.94-4.2-29.3C79.52,70.84,74.16,65.88,66.83,67.26Z"/><polygon class="cls-32" points="78.86 67.71 79.52 70.84 77.43 70.87 78.86 67.71"/><path class="cls-33" d="M67.3,65.06s6.31,3,11.56,2.65l-1,3.74s-11.07-2.08-12.68-3.6Z"/><circle class="cls-34" cx="80.02" cy="75.78" r="0.57"/><circle class="cls-34" cx="81.56" cy="82.94" r="0.57"/><circle class="cls-34" cx="82.39" cy="91" r="0.57"/><circle class="cls-34" cx="82.3" cy="99.39" r="0.57"/><path class="cls-32" d="M82.52,102.72s-2.66,6.42-7,7.91c-2.23.76-14.79.91-16.6-2.6s-4.28-4.79-1.69-14.78c0,0,12.19,9.47,12.58,9.47Z"/><path class="cls-32" d="M68.83,76.79A95.25,95.25,0,0,1,57.46,88.85s-4.2-3.43-6.56-3.48c0,0,8.16-12.76,10.15-14.33s4.64-2.62,7.46.71S68.83,76.79,68.83,76.79Z"/><path class="cls-5" d="M81.72,61.15s-.24,5,4,.9C85.73,62.05,85,60.67,81.72,61.15Z"/><g class="cls-35"><path class="cls-3" d="M81.22,61a3.59,3.59,0,0,0,2.53,1.49,3,3,0,0,0,2.72-.78l-2.6-1.51Z"/><path class="cls-36" d="M81.46,62.42s1.27-.3,2.5,1.68l-2.27.07Z"/></g><path class="cls-37" d="M87.68,58.11a3.09,3.09,0,0,0-4,.65c-2.06,2.06-4-.65-4-.65s-.08,4.21,5.38,4a6.28,6.28,0,0,0,2.52-.74C89.59,60.26,87.68,58.11,87.68,58.11Z"/><path class="cls-2" d="M42.31,110.85a1.37,1.37,0,0,1-1.54-1.34s-1.51,0-1.31-1.78a1.74,1.74,0,0,1-.69-2,9.36,9.36,0,0,1,2.52-4.45s1.24-2.22,4.51-.7,1.94,4.21,1.94,4.21.8,4.4-1.81,5.76a6.15,6.15,0,0,1-.46.58S44.49,113.36,42.31,110.85Z"/><path class="cls-32" d="M58.72,88.15a92,92,0,0,1-11.3,15s-4-1.45-4.75-3.39A66.43,66.43,0,0,1,52,84.07s2.78-3,4.9-1.06,2.9,3.44,1.83,5.14"/><path class="cls-38" d="M50.41,101.59l-8.07-4.2-1.09,2.09s4.17,5.24,5.51,5.44S50.41,101.59,50.41,101.59Z"/></svg>