<svg xmlns="http://www.w3.org/2000/svg" xmlns:xlink="http://www.w3.org/1999/xlink" viewBox="0 0 260 168"><defs><style>.cls-1{fill:#297bff;}.cls-2{fill:#0e278e;}.cls-3{fill:#1328a0;}.cls-4{fill:#fff;}.cls-5{fill:#7f3d18;}.cls-6{fill:#351c08;}.cls-7{fill:none;stroke:#703111;stroke-linecap:round;stroke-linejoin:round;stroke-width:0.94px;}.cls-8{fill:#2c3cce;}.cls-9{fill:#2239bf;}.cls-10{fill:#2338b5;}.cls-11{clip-path:url(#clip-path);}.cls-12{fill:#2caaff;}</style><clipPath id="clip-path"><path class="cls-1" d="M46.59,135.76a4.66,4.66,0,0,0,4.51-2.52c1.33-2.2,1.06-4.8-.59-5.79s-4.07,0-5.4,2.18a4.65,4.65,0,0,0-.14,5.14c-1.15,1.41-2.67,3.53-4.44,5.82-5.64,7.31-4.38,8.79-3.56,9.29s2,2.57,6.56-7.48C44.72,139.76,45.89,137.43,46.59,135.76Z"/></clipPath></defs><g id="Layer_3" data-name="Layer 3"><path class="cls-2" d="M22.59,147.31s25.31,17.31,26.62,18.27S46.67,176.78,43,178c0,0-22.44-9.48-28.23-12.55s-5.3-9.22-3.19-12.46S14.14,145.05,22.59,147.31Z"/><path class="cls-2" d="M49.35,172.27,46.3,193.65s-4.19,1.4-11.79.58a1.44,1.44,0,0,1-1.29-1.59l2.24-21.33s-.38-10,7.42-7.66S49.54,164.84,49.35,172.27Z"/><path class="cls-3" d="M10.31,148.64S39.38,158.39,40.9,159s.62,11.47-2.62,13.68c0,0-24.18-3-30.58-4.37s-7.62-7.42-6.47-11.11S1.57,148.77,10.31,148.64Z"/><path class="cls-3" d="M38,176.8l-7.82,20.13s-4.41.4-11.62-2.12a1.44,1.44,0,0,1-.9-1.84l7-20.26s1.91-9.83,9-5.77S39.92,169.61,38,176.8Z"/><path class="cls-4" d="M12.61,98.49s8.28.76,12.46,11.8c3.15,8.31,5.85,39,5.85,42.05s-21.25,5.57-28.88,1c0,0-1-28.47,1.86-41.88S12.61,98.49,12.61,98.49Z"/><rect class="cls-5" x="12.84" y="87.76" width="7.15" height="12.68" transform="translate(32.83 188.21) rotate(180)"/><path class="cls-6" d="M36.58,89.12a10.65,10.65,0,0,1-6.36.49,4.53,4.53,0,0,1-2.3-1.15,2.15,2.15,0,0,1-.48-2.4,2.92,2.92,0,0,1,1.47-1.18c1.43-.64,4.9-1.75,6.34-.63C35.74,84.63,36.18,89.28,36.58,89.12Z"/><path class="cls-5" d="M-1.33,72.22C-1.4,58.36,7.34,47.11,19.11,47.11c18.83,0,21.37,11.14,21.43,25a28.4,28.4,0,0,1-2.63,12.24l-.8,1.3s-1.65,1.13-5.41.15c0,0,.15,2,5.31,2.79,0,0,.31,1.39-1.81,5.16a31.53,31.53,0,0,1-2.73,4.43s-22.93,2-24.58-15.5Z"/><circle class="cls-4" cx="29.49" cy="74.59" r="5.87"/><circle cx="30.08" cy="76.65" r="3.83"/><circle class="cls-4" cx="32.81" cy="74.46" r="1.31"/><path d="M25.07,66.94s8.44.48,11,3.45C36.09,70.39,32.55,61.71,25.07,66.94Z"/><path d="M30.31,85.47h0a.38.38,0,0,1,.38.43c-.2,1.57-.75,7,.84,8.31,1.87,1.57,2.57-.54,3.17-1.08a1.69,1.69,0,0,1,.83-.44h0a3.09,3.09,0,0,1,.74,1.64,4.55,4.55,0,0,1-.54,3.17,3.75,3.75,0,0,1-.88,1,12.5,12.5,0,0,1-1.63.18,5.54,5.54,0,0,1-3.82-1.8c-1.9-2.19-.31-9.48.57-11.19A.38.38,0,0,1,30.31,85.47Z"/><path class="cls-5" d="M40.49,74.23a8.37,8.37,0,0,0,2.17,4.3c1.73,1.58.67,3.59-1.73,4.13a7.42,7.42,0,0,1-4-.08l1.24-6.81S39.67,72.88,40.49,74.23Z"/><path d="M39.84,83.74a1.07,1.07,0,0,0-.61-.69,6.23,6.23,0,0,0-6,.37c-3.14,2.09-4.5.48-4.5.48s1.53,3,6.19,2.41C39.13,85.8,40.26,85.16,39.84,83.74Z"/><path d="M37.85,63.45A12.34,12.34,0,0,1,33,61.77a6.74,6.74,0,0,1-8,1,4,4,0,0,1-1.7,3.77,8.27,8.27,0,0,1-3.7,1.15c1.26.79,1.17,3.21.07,4.28a3.53,3.53,0,0,1-4.07.31,4.79,4.79,0,0,1-.48,4.33A3.22,3.22,0,0,1,11.59,78a5.85,5.85,0,0,1-1.71,5.41A3.93,3.93,0,0,1,5,83.54a3.3,3.3,0,0,1-3.62-1,4.9,4.9,0,0,1-1-4.21,14.91,14.91,0,0,1-4.16-5.06c-.91-2.11-.91-5,.54-6.6a7.28,7.28,0,0,1-1.69-6,6.34,6.34,0,0,1,3.51-4.78c-2.12-1.92-2.19-6-.56-8.51A8,8,0,0,1,5.13,44c1.6-3.28,5.12-5.08,8.24-4.21A7.09,7.09,0,0,1,17.7,36.4,15.8,15.8,0,0,1,23,36c1.78.09,3.83.4,4.77,2.18,2.74-.65,5.69-.78,8.21.65a7.91,7.91,0,0,1,3.76,8,5.86,5.86,0,0,1,3.48,3.84,7.42,7.42,0,0,1-.52,5.59,2.78,2.78,0,0,1,1.14,2.61c-.16,1.4-1.49,2.22-2.31,3.07A4.76,4.76,0,0,1,37.85,63.45Z"/><path d="M12,80.18a2.58,2.58,0,0,1,.2,1.47,1.34,1.34,0,0,1-.95,1.07,1.71,1.71,0,0,1-2.36,2.37,2.75,2.75,0,0,1-3.38.77,3.8,3.8,0,0,1-1.95-3,1.34,1.34,0,0,0-.16-.66,1.68,1.68,0,0,0-.54-.41A2.43,2.43,0,0,1,2,79,3.88,3.88,0,0,1,4,76.79c1.63-.82,2.94-.12,4.51.33A5.24,5.24,0,0,1,12,80.18Z"/><circle class="cls-5" cx="13.92" cy="74.64" r="6.41" transform="translate(-11.77 3.19) rotate(-9.21)"/><path class="cls-7" d="M13.84,69.52A5.12,5.12,0,1,0,14,79.76"/><path class="cls-5" d="M19.68,100.06s2.89,1.39,2.78,2.67-1.9,2.08-5.88,1-5.46-4.3-4-5S19.68,100.06,19.68,100.06Z"/><path class="cls-4" d="M12.61,98.72a13.62,13.62,0,0,0,3.15,2.35c1.91,1,4.44,3.51,7,2.12l1.6,5.31-8.66-.83s-3.05-.46-3.67-1.54a17.5,17.5,0,0,1-1.65-3,12.43,12.43,0,0,1,.52-2.94,10.39,10.39,0,0,1,.21-1.08S12.36,98.18,12.61,98.72Z"/><path class="cls-8" d="M10.21,98.09s-7,5.56-8.35,18.83-.56,38.94-.56,38.94,23.85,3.92,30.61-2c0,0,.17-46.8-10.34-50.8Z"/><path class="cls-9" d="M12.84,95.73a4.5,4.5,0,0,0-2.63,2.36c-.85,1.85,10.46,8.08,10.46,8.08L23.2,102Z"/><path class="cls-10" d="M6.76,105.65S.93,107-1.5,122.49l-2.35,12.4s2,5.91,9.3,4c0,0,3.29-.78,3.54-2.72s2.76-9.6,3.79-16.47S15.21,104.19,6.76,105.65Z"/><path class="cls-1" d="M46.59,135.76a4.66,4.66,0,0,0,4.51-2.52c1.33-2.2,1.06-4.8-.59-5.79s-4.07,0-5.4,2.18a4.65,4.65,0,0,0-.14,5.14c-1.15,1.41-2.67,3.53-4.44,5.82-5.64,7.31-4.38,8.79-3.56,9.29s2,2.57,6.56-7.48C44.72,139.76,45.89,137.43,46.59,135.76Z"/><g class="cls-11"><path class="cls-12" d="M38.16,152a4.45,4.45,0,0,1-.74-5.56c1.85-3.27,8-11.51,8-11.51s-1.86-2.48.41-5.67,6.28-1.73,6.28-1.73l-5.26-3.18-14.8,24.55Z"/></g><path class="cls-5" d="M40.47,135.42c.43-.71,1.06-1.6,1.87-1.39a1.26,1.26,0,0,1,.82,1.12,3.78,3.78,0,0,1-.26,1.44l-1.25,3.84,4.78-1a1.34,1.34,0,0,1,1.27.15,1,1,0,0,1-.12,1.33c-.31.38-.75.65-1,1.05-.67,1-.32,2.59-1.33,3.21a3.25,3.25,0,0,0-.75.43,2.27,2.27,0,0,0-.39,1A3.09,3.09,0,0,1,42.9,148c-2.85,2.07-6.73,1.7-10.22,1.24a3.57,3.57,0,0,1-2-.66A3.46,3.46,0,0,1,30,145.7a7.18,7.18,0,0,1,.56-2.8c.94-1.92,3.53-2.11,5.24-3A12.45,12.45,0,0,0,40.47,135.42Z"/><path class="cls-4" d="M30.92,139.28l2.29,1.18s0,5.81-2.4,8.34a4.71,4.71,0,0,1-3.41,0C26,148,30.92,139.28,30.92,139.28Z"/><path class="cls-10" d="M-3.41,135.45S9.2,149.33,28.26,149.33c0,0,3.4-6.53,3.1-9.92s-24.3-10.2-24.3-10.2S.44,123.15-3.41,135.45Z"/></g></svg>