<svg xmlns="http://www.w3.org/2000/svg" xmlns:xlink="http://www.w3.org/1999/xlink" viewBox="0 0 260 168"><defs><style>.cls-1{fill:#4bb21b;}.cls-2{fill:#99623d;}.cls-3{fill:#fff;}.cls-4{fill:#111;}.cls-5{fill:#472813;}.cls-6{fill:#227fef;}.cls-7{fill:#303030;}.cls-8{fill:#9b633d;}.cls-9{clip-path:url(#clip-path);}.cls-10{fill:#2a6805;}.cls-11{fill:#c5db21;}.cls-12{fill:#383838;}.cls-13{fill:#a86f47;}.cls-14{clip-path:url(#clip-path-2);}.cls-15{clip-path:url(#clip-path-3);}.cls-16{fill:#77492a;}.cls-17,.cls-23,.cls-26,.cls-30,.cls-31{fill:none;}.cls-17{stroke:#77492a;stroke-miterlimit:10;stroke-width:0.18px;}.cls-18{fill:#177ce0;}.cls-19{fill:#1972dd;}.cls-20{fill:#0461bc;}.cls-21{fill:#895e3c;}.cls-22{fill:#603913;}.cls-23{stroke:#28190a;stroke-width:0.55px;}.cls-23,.cls-26,.cls-30,.cls-31{stroke-linecap:round;stroke-linejoin:round;}.cls-24{clip-path:url(#clip-path-4);}.cls-25{fill:#4f3615;}.cls-26,.cls-30,.cls-31{stroke:#4f3615;opacity:0.25;}.cls-26{stroke-width:0.21px;}.cls-27{fill:#6d6d6d;}.cls-28{clip-path:url(#clip-path-5);}.cls-29{fill:#ffce00;}.cls-30{stroke-width:0.23px;}.cls-31{stroke-width:0.46px;}.cls-32{fill:#2e83ff;}.cls-33{fill:#126cc6;}.cls-34{fill:#05a;}.cls-35{clip-path:url(#clip-path-6);}.cls-36{fill:#ff5050;}.cls-37{fill:#247eea;}</style><clipPath id="clip-path"><path class="cls-1" d="M89.08,112.11s-.85.11-1.08,2.79c0,0-.26,2,.38,2.46a2.67,2.67,0,0,0-1.59,1.74c-.28,1.25-1.39,4.12-4.22,2.91a1.7,1.7,0,0,1-.78-2.24c.5-1.72,1.57-6.68,1.83-7.49s.88-2.34,2.21-1.8S88.56,112,89.08,112.11Z"/></clipPath><clipPath id="clip-path-2"><path class="cls-1" d="M115,132.15s.67.53,2.76-1.17c0,0,1.6-1.2,1.5-2a2.68,2.68,0,0,0,2.35-.07c1.1-.67,3.92-1.87,5,1a1.73,1.73,0,0,1-1.07,2.13c-1.58.83-5.88,3.52-6.65,3.89s-2.29,1-2.83-.33S115.23,132.62,115,132.15Z"/></clipPath><clipPath id="clip-path-3"><path class="cls-2" d="M117.58,86.24a2.52,2.52,0,0,1-1.09-1.65,10,10,0,0,1-.32-2.24A1.32,1.32,0,0,1,117.48,81s.65-1.37,1-1.51c0,0,.66-.33.86.7,0,0,.72-.42.92.7,0,0,.64-.16.78.79,0,0,.44,0,.32,1.32a10.34,10.34,0,0,1-1.86,3.42S119,87.21,117.58,86.24Z"/></clipPath><clipPath id="clip-path-4"><circle class="cls-3" cx="110.6" cy="78.27" r="1.89"/></clipPath><clipPath id="clip-path-5"><path class="cls-4" d="M98.7,74.61s6.5-2.44,18.44-1.89a3.88,3.88,0,0,0,.42-2.13c-.08-1.35-.16-7.11-5.34-7.59S98.3,65.51,98,70.91C98,70.91,97.53,73.56,98.7,74.61Z"/></clipPath><clipPath id="clip-path-6"><path class="cls-5" d="M109.57,83.78s-.77,2.85,2.22,1C111.79,84.82,111.55,83.93,109.57,83.78Z"/></clipPath></defs><g id="Layer_1" data-name="Layer 1"><path class="cls-6" d="M107.51,88.35A28,28,0,0,1,115,93.9a4.14,4.14,0,0,1-1.08,3.52,16.72,16.72,0,0,1-9-3.77C101.05,90.22,104.43,87.17,107.51,88.35Z"/><path class="cls-7" d="M110.59,105s-4-3.41-7.13-.82-4.78,10.25-4.88,13,4.33,3.23,5.53,1.87S109.49,113.74,110.59,105Z"/><path class="cls-8" d="M93.84,112.54s-4.22-.08-5.3-.61-3.45-2.43-4.2-.46-1.62,6.22-2.29,8.52,2.64,2.87,4.07.73-.64-4.57,5.64-3l3.32-2.41Z"/><path class="cls-7" d="M100.53,113S91.75,111.27,89,112a7.94,7.94,0,0,0-.63,7.17s6.55,2.59,15.46-.16C103.78,119,105.46,114.7,100.53,113Z"/><path class="cls-1" d="M89.08,112.11s-.85.11-1.08,2.79c0,0-.26,2,.38,2.46a2.67,2.67,0,0,0-1.59,1.74c-.28,1.25-1.39,4.12-4.22,2.91a1.7,1.7,0,0,1-.78-2.24c.5-1.72,1.57-6.68,1.83-7.49s.88-2.34,2.21-1.8S88.56,112,89.08,112.11Z"/><g class="cls-9"><path class="cls-10" d="M85.45,109.86a11.45,11.45,0,0,0-1.67,4.21,69.87,69.87,0,0,0-1.5,6.83,1.41,1.41,0,0,0,.9,1.33l-.39.2L81,121.49,81,118l2.81-8.15a4.75,4.75,0,0,1,1.05-.2C84.91,109.71,85.45,109.86,85.45,109.86Z"/></g><path class="cls-11" d="M88.38,117.36s.12-.31-.43-1.49-1.47.59-1.47.59l.82,1.64Z"/><path class="cls-11" d="M86.25,117.12a7.13,7.13,0,0,1,.8,1.31l-.23.55a11,11,0,0,0-.89-1.11Z"/><path class="cls-12" d="M103.34,103.53s-5,1.56-4.54,5.57,6.06,9.55,8.28,11.09,5.06-1.9,4.56-3.64S110.14,109.19,103.34,103.53Z"/><path class="cls-13" d="M112,128.43s2.88,3.09,3.26,4.23.65,4.17,2.59,3.33,5.59-3.16,7.71-4.28.22-3.9-2.31-3.44-2.83,3.65-6-2l-4-.7Z"/><path class="cls-12" d="M106.74,121.58s3.85,8.07,6.13,9.87A7.92,7.92,0,0,0,119,127.7s-1.82-6.82-9.33-12.33C109.68,115.37,105.19,116.59,106.74,121.58Z"/><path class="cls-1" d="M115,132.15s.67.53,2.76-1.17c0,0,1.6-1.2,1.5-2a2.68,2.68,0,0,0,2.35-.07c1.1-.67,3.92-1.87,5,1a1.73,1.73,0,0,1-1.07,2.13c-1.58.83-5.88,3.52-6.65,3.89s-2.29,1-2.83-.33S115.23,132.62,115,132.15Z"/><g class="cls-14"><path class="cls-10" d="M115.88,136.32a11.39,11.39,0,0,0,4.19-1.74c2.6-1.57,5.45-3.15,5.94-3.67a1.43,1.43,0,0,0,.33-1.58l.41.15.6,2-2.57,2.4-7.8,3.66s-.93-.56-.88-.62S115.88,136.32,115.88,136.32Z"/></g><path class="cls-11" d="M119.23,129s-.31.13-.77,1.35,1.44.64,1.44.64l.61-1.73Z"/><path class="cls-11" d="M120.54,130.69a7.14,7.14,0,0,1,.38-1.48l.55-.22a11.17,11.17,0,0,0-.17,1.4Z"/><path class="cls-2" d="M117.58,86.24a2.52,2.52,0,0,1-1.09-1.65,10,10,0,0,1-.32-2.24A1.32,1.32,0,0,1,117.48,81s.65-1.37,1-1.51c0,0,.66-.33.86.7,0,0,.72-.42.92.7,0,0,.64-.16.78.79,0,0,.44,0,.32,1.32a10.34,10.34,0,0,1-1.86,3.42S119,87.21,117.58,86.24Z"/><g class="cls-15"><path class="cls-16" d="M116.17,81a3,3,0,0,1,1.37,0,2.25,2.25,0,0,1,1.17.74,2.43,2.43,0,0,1,.37.59.67.67,0,0,1,.11.36.32.32,0,0,1-.25.33,1.37,1.37,0,0,1-.71-.11l-.33-.11-.16-.06-.08,0,0,0a.11.11,0,0,1,0,0c0-.08.06-.09.07-.09h0a2.55,2.55,0,0,1,.68.75,1.43,1.43,0,0,1,.16,1,1.85,1.85,0,0,0-.91-1.63h0c.35-.06.86.29,1.23.2.17,0,.14-.27,0-.46a2.33,2.33,0,0,0-.34-.57,2.07,2.07,0,0,0-1.08-.73A3.52,3.52,0,0,0,116.17,81Z"/><path class="cls-17" d="M119.78,79.44a15.73,15.73,0,0,1-1.31,2.1"/><path class="cls-17" d="M120.53,80.48s-.63,1.78-1.47,2"/><path class="cls-17" d="M121.3,81.41s-1.14,2.4-2.18,1.19"/><path class="cls-17" d="M119.82,83s.23,1,1.11.31"/><path class="cls-16" d="M120.53,84.12a4.43,4.43,0,0,0-.92.23,1,1,0,0,0-.67.57.65.65,0,0,1,.19-.45,1.32,1.32,0,0,1,.42-.29A1.93,1.93,0,0,1,120.53,84.12Z"/></g><path class="cls-6" d="M111.42,94.84a54.83,54.83,0,0,1,5-10s2.51.4,3.15,1.46a39.25,39.25,0,0,1-3.72,10.19s-1.3,2.06-2.75,1.16S111,96,111.42,94.84"/><path class="cls-18" d="M114.8,86.07,120,87.64l.41-1.34s-3-2.61-3.82-2.58S114.8,86.07,114.8,86.07Z"/><path class="cls-19" d="M106.88,87.59c.1,0,2.52-.31,3.11,3.76s1.29,9.3,1.29,11.39-.66,6.62-1.4,6.88-.63-2.23-.63-2.23L104.59,93.1Z"/><path class="cls-20" d="M106.55,86a9.07,9.07,0,0,0,2.23.54L109,88.7l-3.26-1Z"/><path class="cls-20" d="M101,85.27s.47-.5,2.15-.1l-.33,1.49S101.12,85.76,101,85.27Z"/><path class="cls-21" d="M102.39,82.08s.29,4.09-1.39,4.93c0,0,1.39,3.33,6.91,1.35,0,0-.88-1.22-1.09-5.14S102.39,79.38,102.39,82.08Z"/><path class="cls-13" d="M105,84.82A8.05,8.05,0,0,1,101,79.37s0-.1,0-.29a2.11,2.11,0,0,1-1.07-.45,2.15,2.15,0,0,1-.35-3,2.64,2.64,0,0,0,.32-.84,5.49,5.49,0,0,0,0-1,7.72,7.72,0,0,1,.16-2.3,6.18,6.18,0,0,1,3.09-3.86,8.31,8.31,0,0,1,4.93-.84c2.6.31,5.09.86,6.55,3a10,10,0,0,1,1.28,4.54,14.88,14.88,0,0,1-1.18,3.81c-.37,1.11-.52,2.81.32,3.62,0,0,.75.73.44,1.35s-2.15,0-2.15,0,.07,1-.9,1c0,0-.49,4.16-7.29.67"/><path class="cls-22" d="M99.66,74.08a1.63,1.63,0,0,0-1.38.72,1.06,1.06,0,0,0,.31,1.43,1.2,1.2,0,0,0-.52,1.23,1.18,1.18,0,0,0,1,.91.68.68,0,0,0,.52.68,2,2,0,0,0,.92,0,1.33,1.33,0,0,0,.93.36.66.66,0,0,0,.64-.65c.31.18.71-.12.77-.47a1.58,1.58,0,0,0-.25-1,1.37,1.37,0,0,0-.08-2,4.83,4.83,0,0,1-.72-.54,3.12,3.12,0,0,0-.25-.35.57.57,0,0,0-.62-.11c-.11,0-.24.13-.34.06a1.1,1.1,0,0,1-.09-.14c-.13-.22-.43-.21-.68-.19"/><path class="cls-23" d="M113.06,76.52a2.31,2.31,0,0,0-3.46-1.22"/><circle class="cls-3" cx="110.6" cy="78.27" r="1.89"/><g class="cls-24"><circle class="cls-25" cx="111.21" cy="78.96" r="1.3"/><circle cx="111.21" cy="78.96" r="0.8"/><circle class="cls-3" cx="110.92" cy="78.41" r="0.46"/></g><path class="cls-26" d="M111,82.26a4.4,4.4,0,0,0-4.14,1.87"/><path class="cls-22" d="M108.6,72.68a1.69,1.69,0,0,1,.2,1.49.89.89,0,0,1-1.28.43c.2,0,.29.26.25.46a1,1,0,0,1-.54.67,2.29,2.29,0,0,1-.86.23c-.22,0-.53,0-.52-.26.21.14.11.48-.07.67a1.65,1.65,0,0,1-2.51-.16,1,1,0,0,1-1.66-.45.87.87,0,0,1-.77.44,1,1,0,0,1-.81-.26.57.57,0,0,1,0-.78.27.27,0,0,1-.39,0,.63.63,0,0,1-.17-.4,1.67,1.67,0,0,1,.41-1.24A1.63,1.63,0,0,1,101,73a.72.72,0,0,1,0-.86,1.51,1.51,0,0,1,.78-.5,3.53,3.53,0,0,1,1-.18c.29,0,.64.05.75.33a2.4,2.4,0,0,1,1-.79,1.26,1.26,0,0,1,1.23.17,4,4,0,0,1,.45.55.22.22,0,0,0,.12.09.27.27,0,0,0,.17-.06l.63-.44c.24-.16.55-.33.79-.18s.23.37.4.48a.73.73,0,0,0,.44.06.68.68,0,0,1,.42.09c.11.1.13.31,0,.37"/><path class="cls-4" d="M108.16,72.77s7.62,4.06,10.82,3.12-2.09-3.52-2.09-3.52Z"/><circle class="cls-27" cx="118.92" cy="74.43" r="0.27"/><path class="cls-4" d="M98.7,74.61s6.5-2.44,18.44-1.89a3.88,3.88,0,0,0,.42-2.13c-.08-1.35-.16-7.11-5.34-7.59S98.3,65.51,98,70.91C98,70.91,97.53,73.56,98.7,74.61Z"/><g class="cls-28"><path class="cls-4" d="M98.71,72.86s12-7.58,17.57-1.92l-9,1.27Z"/><path class="cls-29" d="M96.32,73.82s8.45-4.49,23-2.74l-1.62,3.13L96,76.38l.28-2.27"/></g><path class="cls-30" d="M109,80a2.06,2.06,0,0,0,2.41.45"/><circle class="cls-13" cx="104.63" cy="77.07" r="2.24"/><path class="cls-31" d="M105.13,75.54a1.67,1.67,0,0,0-2,1.12s-.64,1.6,1.32,2.19"/><path class="cls-32" d="M100.71,86.58a3.7,3.7,0,0,0-2.85,2.89c-.62,2.55-4.17,14.07-2.61,17s3.53,2.25,6.13,2.2,8.91,1.15,9.38-2.55-.71-13-2.5-17.43A9.39,9.39,0,0,0,100.71,86.58Z"/><polygon class="cls-32" points="107.87 86.84 108.26 88.71 107.02 88.73 107.87 86.84"/><path class="cls-33" d="M101,85.27a17.1,17.1,0,0,0,6.88,1.58l-.61,2.22s-6.58-1.23-7.54-2.14Z"/><circle class="cls-34" cx="108.56" cy="91.65" r="0.34"/><circle class="cls-34" cx="109.47" cy="95.91" r="0.34"/><circle class="cls-34" cx="109.96" cy="100.7" r="0.34"/><circle class="cls-34" cx="109.91" cy="105.69" r="0.34"/><path class="cls-32" d="M110,107.67s-1.58,3.82-4.16,4.71c-1.32.45-8.8.54-9.88-1.54S93.46,108,95,102c0,0,7.25,5.63,7.48,5.63Z"/><path class="cls-32" d="M100.29,93.46a57.91,57.91,0,0,1-9.87.1s1.23-3.62.28-4.66c0,0,7.35-1.35,8.84-1.15s3,.91,2.77,3.49S100.29,93.46,100.29,93.46Z"/><path class="cls-5" d="M109.57,83.78s-.77,2.85,2.22,1C111.79,84.82,111.55,83.93,109.57,83.78Z"/><g class="cls-35"><path class="cls-3" d="M109.3,83.62a2.16,2.16,0,0,0,1.28,1.19,1.78,1.78,0,0,0,1.68-.1l-1.32-1.22Z"/><path class="cls-36" d="M109.26,84.49s.78,0,1.24,1.29l-1.33-.25Z"/></g><path d="M113.42,82.78a1.84,1.84,0,0,0-2.42-.14c-1.46.93-2.21-.88-2.21-.88s-.59,2.43,2.6,3a3.72,3.72,0,0,0,1.56-.1C114.26,84.28,113.42,82.78,113.42,82.78Z"/><path class="cls-2" d="M85.3,106.65a.82.82,0,0,1-1-.68s-.89.14-.91-1a1,1,0,0,1-.56-1.13A5.58,5.58,0,0,1,84,101.07s.56-1.4,2.61-.76A1.83,1.83,0,0,1,88,102.65s.81,2.53-.63,3.53a2.88,2.88,0,0,1-.22.38S86.78,108,85.3,106.65Z"/><path class="cls-32" d="M93.24,92a54.84,54.84,0,0,1-5.51,9.71s-2.48-.54-3.07-1.63a39.73,39.73,0,0,1,4.3-10s1.41-2,2.81-1,2,1.8,1.47,2.89"/><path class="cls-37" d="M89.37,100.56,84.29,98.7,83.8,100s2.87,2.77,3.67,2.79S89.37,100.56,89.37,100.56Z"/></g></svg>