<svg id="Layer_1" data-name="Layer 1" xmlns="http://www.w3.org/2000/svg" xmlns:xlink="http://www.w3.org/1999/xlink" viewBox="0 0 260 168"><defs><style>.cls-1{fill:#4bb21b;}.cls-2{fill:#99623d;}.cls-3{fill:#fff;}.cls-4{fill:#111;}.cls-5{fill:#472813;}.cls-6{fill:#227fef;}.cls-7{fill:#303030;}.cls-8{fill:#9b633d;}.cls-9{clip-path:url(#clip-path);}.cls-10{fill:#2a6805;}.cls-11{fill:#c5db21;}.cls-12{fill:#383838;}.cls-13{fill:#a86f47;}.cls-14{clip-path:url(#clip-path-2);}.cls-15{clip-path:url(#clip-path-3);}.cls-16{fill:#77492a;}.cls-17,.cls-23,.cls-26,.cls-30,.cls-31{fill:none;}.cls-17{stroke:#77492a;stroke-miterlimit:10;stroke-width:0.18px;}.cls-18{fill:#177ce0;}.cls-19{fill:#1972dd;}.cls-20{fill:#0461bc;}.cls-21{fill:#895e3c;}.cls-22{fill:#603913;}.cls-23{stroke:#28190a;stroke-width:0.55px;}.cls-23,.cls-26,.cls-30,.cls-31{stroke-linecap:round;stroke-linejoin:round;}.cls-24{clip-path:url(#clip-path-4);}.cls-25{fill:#4f3615;}.cls-26,.cls-30,.cls-31{stroke:#4f3615;opacity:0.25;}.cls-26{stroke-width:0.21px;}.cls-27{fill:#6d6d6d;}.cls-28{clip-path:url(#clip-path-5);}.cls-29{fill:#ffce00;}.cls-30{stroke-width:0.23px;}.cls-31{stroke-width:0.46px;}.cls-32{fill:#2e83ff;}.cls-33{fill:#126cc6;}.cls-34{fill:#05a;}.cls-35{clip-path:url(#clip-path-6);}.cls-36{fill:#ff5050;}.cls-37{fill:#247eea;}</style><clipPath id="clip-path"><path class="cls-1" d="M74.1,112.11s-.85.11-1.08,2.79c0,0-.26,2,.38,2.46a2.67,2.67,0,0,0-1.59,1.74c-.28,1.25-1.39,4.12-4.21,2.91a1.71,1.71,0,0,1-.79-2.24c.5-1.72,1.57-6.68,1.84-7.49s.87-2.34,2.2-1.8S73.58,112,74.1,112.11Z"/></clipPath><clipPath id="clip-path-2"><path class="cls-1" d="M100,132.15s.67.53,2.76-1.17c0,0,1.6-1.2,1.5-2a2.68,2.68,0,0,0,2.35-.07c1.1-.67,3.92-1.87,5,1a1.72,1.72,0,0,1-1.06,2.13c-1.59.83-5.89,3.52-6.65,3.89s-2.3,1-2.83-.33S100.25,132.62,100,132.15Z"/></clipPath><clipPath id="clip-path-3"><path class="cls-2" d="M102.61,86.24a2.52,2.52,0,0,1-1.1-1.65,10,10,0,0,1-.32-2.24A1.32,1.32,0,0,1,102.5,81s.65-1.37,1-1.51c0,0,.65-.33.85.7,0,0,.73-.42.92.7,0,0,.64-.16.78.79,0,0,.44,0,.32,1.32a10.45,10.45,0,0,1-1.85,3.42S104,87.21,102.61,86.24Z"/></clipPath><clipPath id="clip-path-4"><circle class="cls-3" cx="95.62" cy="78.27" r="1.89"/></clipPath><clipPath id="clip-path-5"><path class="cls-4" d="M83.72,74.61s6.5-2.44,18.44-1.89a3.88,3.88,0,0,0,.42-2.13c-.07-1.35-.16-7.11-5.34-7.59S83.32,65.51,83,70.91C83,70.91,82.55,73.56,83.72,74.61Z"/></clipPath><clipPath id="clip-path-6"><path class="cls-5" d="M94.59,83.78s-.77,2.85,2.22,1C96.81,84.82,96.58,83.93,94.59,83.78Z"/></clipPath></defs><path class="cls-6" d="M92.53,88.35A28,28,0,0,1,100,93.9,4.14,4.14,0,0,1,99,97.42a16.72,16.72,0,0,1-9-3.77C86.07,90.22,89.45,87.17,92.53,88.35Z"/><path class="cls-7" d="M95.61,105s-4-3.41-7.13-.82-4.77,10.25-4.88,13,4.33,3.23,5.53,1.87S94.51,113.74,95.61,105Z"/><path class="cls-8" d="M78.86,112.54s-4.22-.08-5.3-.61-3.45-2.43-4.2-.46-1.62,6.22-2.29,8.52,2.64,2.87,4.07.73-.64-4.57,5.64-3l3.32-2.41Z"/><path class="cls-7" d="M85.55,113S76.77,111.27,74,112a7.92,7.92,0,0,0-.64,7.17s6.56,2.59,15.46-.16C88.8,119,90.48,114.7,85.55,113Z"/><path class="cls-1" d="M74.1,112.11s-.85.11-1.08,2.79c0,0-.26,2,.38,2.46a2.67,2.67,0,0,0-1.59,1.74c-.28,1.25-1.39,4.12-4.21,2.91a1.71,1.71,0,0,1-.79-2.24c.5-1.72,1.57-6.68,1.84-7.49s.87-2.34,2.2-1.8S73.58,112,74.1,112.11Z"/><g class="cls-9"><path class="cls-10" d="M70.47,109.86a11.45,11.45,0,0,0-1.67,4.21c-.68,3-1.53,6.12-1.5,6.83a1.42,1.42,0,0,0,.91,1.33l-.4.2L66,121.49l.07-3.51,2.81-8.15a4.75,4.75,0,0,1,1-.2C69.93,109.71,70.47,109.86,70.47,109.86Z"/></g><path class="cls-11" d="M73.4,117.36s.12-.31-.43-1.49-1.47.59-1.47.59l.82,1.64Z"/><path class="cls-11" d="M71.27,117.12a7.13,7.13,0,0,1,.8,1.31l-.23.55a11,11,0,0,0-.89-1.11Z"/><path class="cls-12" d="M88.36,103.53s-5,1.56-4.53,5.57,6,9.55,8.27,11.09,5.06-1.9,4.56-3.64S95.16,109.19,88.36,103.53Z"/><path class="cls-13" d="M97,128.43s2.89,3.09,3.26,4.23.66,4.17,2.59,3.33,5.59-3.16,7.71-4.28.22-3.9-2.31-3.44-2.83,3.65-6-2l-4-.7Z"/><path class="cls-12" d="M91.76,121.58s3.85,8.07,6.13,9.87A7.92,7.92,0,0,0,104,127.7s-1.82-6.82-9.33-12.33C94.7,115.37,90.21,116.59,91.76,121.58Z"/><path class="cls-1" d="M100,132.15s.67.53,2.76-1.17c0,0,1.6-1.2,1.5-2a2.68,2.68,0,0,0,2.35-.07c1.1-.67,3.92-1.87,5,1a1.72,1.72,0,0,1-1.06,2.13c-1.59.83-5.89,3.52-6.65,3.89s-2.3,1-2.83-.33S100.25,132.62,100,132.15Z"/><g class="cls-14"><path class="cls-10" d="M100.91,136.32a11.39,11.39,0,0,0,4.18-1.74,67.23,67.23,0,0,0,5.94-3.67,1.42,1.42,0,0,0,.33-1.58l.42.15.59,2-2.57,2.4-7.8,3.66s-.93-.56-.88-.62S100.91,136.32,100.91,136.32Z"/></g><path class="cls-11" d="M104.25,129s-.31.13-.77,1.35,1.45.64,1.45.64l.6-1.73Z"/><path class="cls-11" d="M105.56,130.69a7.14,7.14,0,0,1,.38-1.48l.55-.22a11.17,11.17,0,0,0-.17,1.4Z"/><path class="cls-2" d="M102.61,86.24a2.52,2.52,0,0,1-1.1-1.65,10,10,0,0,1-.32-2.24A1.32,1.32,0,0,1,102.5,81s.65-1.37,1-1.51c0,0,.65-.33.85.7,0,0,.73-.42.92.7,0,0,.64-.16.78.79,0,0,.44,0,.32,1.32a10.45,10.45,0,0,1-1.85,3.42S104,87.21,102.61,86.24Z"/><g class="cls-15"><path class="cls-16" d="M101.2,81a3,3,0,0,1,1.36,0,2.25,2.25,0,0,1,1.17.74,2.43,2.43,0,0,1,.37.59.59.59,0,0,1,.11.36A.32.32,0,0,1,104,83a1.37,1.37,0,0,1-.71-.11l-.33-.11-.16-.06-.08,0-.05,0a.07.07,0,0,1,0,0c0-.08.05-.09.06-.09h0a2.55,2.55,0,0,1,.68.75,1.43,1.43,0,0,1,.16,1,1.85,1.85,0,0,0-.91-1.63h0c.35-.06.87.29,1.23.2.17,0,.15-.27,0-.46a2.66,2.66,0,0,0-.33-.57,2.11,2.11,0,0,0-1.08-.73A3.55,3.55,0,0,0,101.2,81Z"/><path class="cls-17" d="M104.8,79.44a15.73,15.73,0,0,1-1.31,2.1"/><path class="cls-17" d="M105.55,80.48s-.63,1.78-1.47,2"/><path class="cls-17" d="M106.32,81.41s-1.13,2.4-2.18,1.19"/><path class="cls-17" d="M104.84,83s.23,1,1.11.31"/><path class="cls-16" d="M105.55,84.12a4.18,4.18,0,0,0-.91.23,1,1,0,0,0-.68.57.7.7,0,0,1,.19-.45,1.32,1.32,0,0,1,.42-.29A1.93,1.93,0,0,1,105.55,84.12Z"/></g><path class="cls-6" d="M96.44,94.84a54.48,54.48,0,0,1,5-10s2.5.4,3.15,1.46a39.49,39.49,0,0,1-3.73,10.19s-1.3,2.06-2.75,1.16S96,96,96.44,94.84"/><path class="cls-18" d="M99.82,86.07,105,87.64l.41-1.34s-3-2.61-3.82-2.58S99.82,86.07,99.82,86.07Z"/><path class="cls-19" d="M91.9,87.59c.1,0,2.52-.31,3.11,3.76s1.29,9.3,1.29,11.39-.66,6.62-1.4,6.88-.63-2.23-.63-2.23L89.61,93.1Z"/><path class="cls-20" d="M91.57,86a9.07,9.07,0,0,0,2.23.54L94,88.7l-3.27-1Z"/><path class="cls-20" d="M86,85.27s.47-.5,2.15-.1l-.33,1.49S86.15,85.76,86,85.27Z"/><path class="cls-21" d="M87.41,82.08S87.71,86.17,86,87c0,0,1.39,3.33,6.92,1.35,0,0-.89-1.22-1.1-5.14S87.41,79.38,87.41,82.08Z"/><path class="cls-13" d="M90,84.82a8.05,8.05,0,0,1-4-5.45s0-.1,0-.29a2.11,2.11,0,0,1-1.07-.45,2.15,2.15,0,0,1-.35-3,2.64,2.64,0,0,0,.32-.84,6.4,6.4,0,0,0,0-1,7.72,7.72,0,0,1,.15-2.3,6.18,6.18,0,0,1,3.09-3.86,8.31,8.31,0,0,1,4.93-.84c2.6.31,5.09.86,6.55,3a10,10,0,0,1,1.28,4.54,14.5,14.5,0,0,1-1.18,3.81c-.37,1.11-.52,2.81.32,3.62,0,0,.75.73.44,1.35s-2.14,0-2.14,0,.07,1-.9,1c0,0-.49,4.16-7.3.67"/><path class="cls-22" d="M84.68,74.08a1.64,1.64,0,0,0-1.38.72,1.06,1.06,0,0,0,.32,1.43,1.16,1.16,0,0,0,.46,2.14.67.67,0,0,0,.51.68,2,2,0,0,0,.92,0,1.33,1.33,0,0,0,.93.36.66.66,0,0,0,.64-.65c.31.18.71-.12.78-.47a1.65,1.65,0,0,0-.26-1,1.37,1.37,0,0,0-.08-2,4.83,4.83,0,0,1-.72-.54,2.22,2.22,0,0,0-.25-.35.57.57,0,0,0-.62-.11c-.11,0-.24.13-.34.06a1.1,1.1,0,0,1-.09-.14c-.13-.22-.43-.21-.68-.19"/><path class="cls-23" d="M98.08,76.52a2.31,2.31,0,0,0-3.46-1.22"/><circle class="cls-3" cx="95.62" cy="78.27" r="1.89"/><g class="cls-24"><circle class="cls-25" cx="96.23" cy="78.96" r="1.3"/><circle cx="96.23" cy="78.96" r="0.8"/><circle class="cls-3" cx="95.94" cy="78.41" r="0.46"/></g><path class="cls-26" d="M96,82.26a4.4,4.4,0,0,0-4.14,1.87"/><path class="cls-22" d="M93.62,72.68a1.66,1.66,0,0,1,.2,1.49.89.89,0,0,1-1.28.43c.2,0,.29.26.25.46a1,1,0,0,1-.54.67,2.29,2.29,0,0,1-.86.23c-.22,0-.52,0-.52-.26.22.14.11.48-.07.67a1.65,1.65,0,0,1-2.51-.16,1,1,0,0,1-1.66-.45.87.87,0,0,1-.77.44,1,1,0,0,1-.8-.26.56.56,0,0,1,0-.78.27.27,0,0,1-.39,0,.58.58,0,0,1-.16-.4A1.6,1.6,0,0,1,86.06,73a.72.72,0,0,1,0-.86,1.51,1.51,0,0,1,.78-.5,3.53,3.53,0,0,1,1-.18c.29,0,.65.05.75.33a2.37,2.37,0,0,1,1-.79,1.24,1.24,0,0,1,1.22.17,5,5,0,0,1,.46.55.19.19,0,0,0,.11.09.27.27,0,0,0,.17-.06l.63-.44c.24-.16.55-.33.79-.18s.23.37.41.48a.69.69,0,0,0,.43.06.67.67,0,0,1,.42.09c.11.1.13.31,0,.37"/><path class="cls-4" d="M93.18,72.77s7.62,4.06,10.82,3.12-2.09-3.52-2.09-3.52Z"/><circle class="cls-27" cx="103.94" cy="74.43" r="0.27"/><path class="cls-4" d="M83.72,74.61s6.5-2.44,18.44-1.89a3.88,3.88,0,0,0,.42-2.13c-.07-1.35-.16-7.11-5.34-7.59S83.32,65.51,83,70.91C83,70.91,82.55,73.56,83.72,74.61Z"/><g class="cls-28"><path class="cls-4" d="M83.73,72.86s12-7.58,17.57-1.92l-9,1.27Z"/><path class="cls-29" d="M81.34,73.82s8.45-4.49,23-2.74l-1.63,3.13L81,76.38l.28-2.27"/></g><path class="cls-30" d="M94,80a2.06,2.06,0,0,0,2.41.45"/><circle class="cls-13" cx="89.66" cy="77.07" r="2.24"/><path class="cls-31" d="M90.15,75.54a1.67,1.67,0,0,0-2,1.12s-.64,1.6,1.32,2.19"/><path class="cls-32" d="M85.73,86.58a3.7,3.7,0,0,0-2.85,2.89c-.62,2.55-4.17,14.07-2.61,17s3.53,2.25,6.14,2.2,8.9,1.15,9.37-2.55-.71-13-2.5-17.43A9.39,9.39,0,0,0,85.73,86.58Z"/><polygon class="cls-32" points="92.89 86.84 93.28 88.71 92.04 88.73 92.89 86.84"/><path class="cls-33" d="M86,85.27a17.1,17.1,0,0,0,6.88,1.58l-.6,2.22s-6.59-1.23-7.54-2.14Z"/><circle class="cls-34" cx="93.58" cy="91.65" r="0.34"/><circle class="cls-34" cx="94.49" cy="95.91" r="0.34"/><circle class="cls-34" cx="94.99" cy="100.7" r="0.34"/><circle class="cls-34" cx="94.94" cy="105.69" r="0.34"/><path class="cls-32" d="M95.06,107.67s-1.58,3.82-4.16,4.71c-1.32.45-8.79.54-9.87-1.54S78.48,108,80,102c0,0,7.25,5.63,7.49,5.63Z"/><path class="cls-32" d="M85.31,93.46a57.91,57.91,0,0,1-9.87.1s1.23-3.62.28-4.66c0,0,7.35-1.35,8.84-1.15s3,.91,2.78,3.49S85.31,93.46,85.31,93.46Z"/><path class="cls-5" d="M94.59,83.78s-.77,2.85,2.22,1C96.81,84.82,96.58,83.93,94.59,83.78Z"/><g class="cls-35"><path class="cls-3" d="M94.33,83.62a2.12,2.12,0,0,0,1.27,1.19,1.78,1.78,0,0,0,1.68-.1L96,83.49Z"/><path class="cls-36" d="M94.28,84.49s.78,0,1.24,1.29l-1.33-.25Z"/></g><path d="M98.45,82.78A1.85,1.85,0,0,0,96,82.64c-1.46.93-2.21-.88-2.21-.88s-.59,2.43,2.6,3a3.72,3.72,0,0,0,1.56-.1C99.28,84.28,98.45,82.78,98.45,82.78Z"/><path class="cls-2" d="M70.32,106.65a.82.82,0,0,1-1-.68s-.89.14-.91-1a1,1,0,0,1-.56-1.13A5.58,5.58,0,0,1,69,101.07s.56-1.4,2.61-.76a1.83,1.83,0,0,1,1.46,2.34s.81,2.53-.63,3.53a2.88,2.88,0,0,1-.22.38S71.8,108,70.32,106.65Z"/><path class="cls-32" d="M78.26,92a54.84,54.84,0,0,1-5.51,9.71s-2.48-.54-3.06-1.63a39.49,39.49,0,0,1,4.29-10s1.41-2,2.81-1,2,1.8,1.47,2.89"/><path class="cls-37" d="M74.39,100.56,69.31,98.7,68.82,100s2.87,2.77,3.67,2.79S74.39,100.56,74.39,100.56Z"/></svg>