<svg xmlns="http://www.w3.org/2000/svg" xmlns:xlink="http://www.w3.org/1999/xlink" viewBox="0 0 260 168"><defs><style>.cls-1{fill:#4bb21b;}.cls-2{fill:#99623d;}.cls-3{fill:#fff;}.cls-4{fill:#111;}.cls-5{fill:#472813;}.cls-6{fill:#303030;}.cls-7{fill:#a86f47;}.cls-8{clip-path:url(#clip-path);}.cls-9{fill:#2a6805;}.cls-10{fill:#c5db21;}.cls-11{fill:#227fef;}.cls-12{fill:#383838;}.cls-13{fill:#9b633d;}.cls-14{clip-path:url(#clip-path-2);}.cls-15{clip-path:url(#clip-path-3);}.cls-16{fill:#77492a;}.cls-17,.cls-23,.cls-26,.cls-30,.cls-31{fill:none;}.cls-17{stroke:#77492a;stroke-miterlimit:10;stroke-width:0.18px;}.cls-18{fill:#177ce0;}.cls-19{fill:#1972dd;}.cls-20{fill:#0461bc;}.cls-21{fill:#895e3c;}.cls-22{fill:#603913;}.cls-23{stroke:#28190a;stroke-width:0.55px;}.cls-23,.cls-26,.cls-30,.cls-31{stroke-linecap:round;stroke-linejoin:round;}.cls-24{clip-path:url(#clip-path-4);}.cls-25{fill:#4f3615;}.cls-26,.cls-30,.cls-31{stroke:#4f3615;opacity:0.25;}.cls-26{stroke-width:0.21px;}.cls-27{fill:#6d6d6d;}.cls-28{clip-path:url(#clip-path-5);}.cls-29{fill:#ffce00;}.cls-30{stroke-width:0.23px;}.cls-31{stroke-width:0.46px;}.cls-32{fill:#2e83ff;}.cls-33{fill:#126cc6;}.cls-34{fill:#05a;}.cls-35{clip-path:url(#clip-path-6);}.cls-36{fill:#ff5050;}.cls-37{fill:#247eea;}</style><clipPath id="clip-path"><path class="cls-1" d="M61.11,127.67s-.25.82,2.12,2.11c0,0,1.71,1,2.41.64a2.68,2.68,0,0,0,.94,2.16c1,.77,3.21,2.93,1,5a1.71,1.71,0,0,1-2.37-.18c-1.37-1.15-5.48-4.13-6.11-4.7s-1.8-1.74-.76-2.75S60.77,128.09,61.11,127.67Z"/></clipPath><clipPath id="clip-path-2"><path class="cls-1" d="M85.9,127.72s.13.85,2.82,1c0,0,2,.2,2.45-.45A2.69,2.69,0,0,0,93,129.81c1.26.25,4.16,1.27,3,4.13a1.71,1.71,0,0,1-2.22.85c-1.73-.45-6.72-1.38-7.53-1.63s-2.37-.8-1.87-2.15S85.77,128.24,85.9,127.72Z"/></clipPath><clipPath id="clip-path-3"><path class="cls-2" d="M76.89,104.19a2.52,2.52,0,0,1,2,.27,10,10,0,0,1,1.89,1.24,1.32,1.32,0,0,1,.14,1.87s.61,1.39.45,1.77c0,0-.19.71-1.09.18,0,0-.16.82-1.13.23,0,0-.3.59-1.11.06,0,0-.29.33-1.2-.63a10.51,10.51,0,0,1-1.35-3.65S75.21,104.63,76.89,104.19Z"/></clipPath><clipPath id="clip-path-4"><circle class="cls-3" cx="88.67" cy="78.27" r="1.89"/></clipPath><clipPath id="clip-path-5"><path class="cls-4" d="M76.77,74.61s6.5-2.44,18.44-1.89a3.88,3.88,0,0,0,.42-2.13c-.08-1.35-.16-7.11-5.34-7.59s-13.92,2.51-14.2,7.91C76.09,70.91,75.6,73.56,76.77,74.61Z"/></clipPath><clipPath id="clip-path-6"><path class="cls-5" d="M87.64,83.78s-.77,2.85,2.22,1C89.86,84.82,89.62,83.93,87.64,83.78Z"/></clipPath></defs><g id="Layer_17" data-name="Layer 17"><path class="cls-6" d="M83.25,106.13s-3.33-4.08-6.86-2.1-6.57,9.19-7.17,11.84,3.66,4,5.09,2.85S80.56,114.56,83.25,106.13Z"/><path class="cls-7" d="M63.42,123.48s-1.77,3.83-2.69,4.61-3.62,2.17-2.11,3.66,5,4,6.86,5.53,3.69-1.26,2.32-3.43-4.45-1.26-.43-6.36l-.87-4Z"/><path class="cls-6" d="M67.8,116.07s-6,6.6-6.83,9.39a7.92,7.92,0,0,0,5.78,4.27s5.63-4.24,7.92-13.27C74.67,116.46,71.85,112.76,67.8,116.07Z"/><path class="cls-1" d="M61.11,127.67s-.25.82,2.12,2.11c0,0,1.71,1,2.41.64a2.68,2.68,0,0,0,.94,2.16c1,.77,3.21,2.93,1,5a1.71,1.71,0,0,1-2.37-.18c-1.37-1.15-5.48-4.13-6.11-4.7s-1.8-1.74-.76-2.75S60.77,128.09,61.11,127.67Z"/><g class="cls-8"><path class="cls-9" d="M57.59,130.08a11.45,11.45,0,0,0,3.18,3.23,69.79,69.79,0,0,0,5.64,4.13,1.41,1.41,0,0,0,1.58-.3l0,.44-1.58,1.29-3.2-1.48-6.32-5.86a4.64,4.64,0,0,1,.25-1C57.23,130.52,57.59,130.08,57.59,130.08Z"/></g><path class="cls-10" d="M65.64,130.42s-.24-.23-1.55-.2,0,1.58,0,1.58l1.82-.08Z"/><path class="cls-10" d="M64.55,132.28a7.29,7.29,0,0,1,1.52-.2l.41.42a13.24,13.24,0,0,0-1.37.37Z"/><path class="cls-11" d="M82,95.23a27.88,27.88,0,0,1-9.12,2,4.11,4.11,0,0,1-1.93-3.13,16.72,16.72,0,0,1,8.8-4.29C84.82,89.15,84.88,93.7,82,95.23Z"/><path class="cls-12" d="M78.15,106.41s-3.29,4.12-.61,7.16,10.37,4.48,13.08,4.51,3.11-4.41,1.72-5.58S87,107.27,78.15,106.41Z"/><path class="cls-13" d="M86.19,123s0,4.22-.45,5.31-2.34,3.52-.34,4.21,6.25,1.45,8.57,2.06,2.79-2.73.62-4.1-4.55.77-3.11-5.55L89,121.63Z"/><path class="cls-12" d="M86.44,116.25s-1.45,8.82-.61,11.59a7.9,7.9,0,0,0,7.18.44s2.41-6.63-.6-15.45C92.41,112.83,88,111.27,86.44,116.25Z"/><path class="cls-1" d="M85.9,127.72s.13.85,2.82,1c0,0,2,.2,2.45-.45A2.69,2.69,0,0,0,93,129.81c1.26.25,4.16,1.27,3,4.13a1.71,1.71,0,0,1-2.22.85c-1.73-.45-6.72-1.38-7.53-1.63s-2.37-.8-1.87-2.15S85.77,128.24,85.9,127.72Z"/><g class="cls-14"><path class="cls-9" d="M83.75,131.41A11.58,11.58,0,0,0,88,133c3,.6,6.16,1.36,6.87,1.31a1.43,1.43,0,0,0,1.31-.94l.21.39-.88,1.84-3.52,0L83.76,133a4.79,4.79,0,0,1-.22-1C83.62,132,83.75,131.41,83.75,131.41Z"/></g><path class="cls-10" d="M91.17,128.27s-.31-.11-1.48.48.64,1.44.64,1.44l1.61-.86Z"/><path class="cls-10" d="M91,130.41a7.44,7.44,0,0,1,1.28-.84l.56.21a12.2,12.2,0,0,0-1.08.92Z"/><path class="cls-2" d="M76.89,104.19a2.52,2.52,0,0,1,2,.27,10,10,0,0,1,1.89,1.24,1.32,1.32,0,0,1,.14,1.87s.61,1.39.45,1.77c0,0-.19.71-1.09.18,0,0-.16.82-1.13.23,0,0-.3.59-1.11.06,0,0-.29.33-1.2-.63a10.51,10.51,0,0,1-1.35-3.65S75.21,104.63,76.89,104.19Z"/><g class="cls-15"><path class="cls-16" d="M81.75,106.59a3.07,3.07,0,0,1-.9,1,2.3,2.3,0,0,1-1.32.39,2.76,2.76,0,0,1-.7-.11.66.66,0,0,1-.34-.16.33.33,0,0,1-.08-.41,1.49,1.49,0,0,1,.55-.46l.3-.17.15-.08.09,0h0a.07.07,0,0,1,.06,0c.06,0,0,.09,0,.1v0h0a2.7,2.7,0,0,1-1,0,1.42,1.42,0,0,1-.84-.54,1.81,1.81,0,0,0,1.82.4l0,0c-.19.3-.79.46-1,.8-.08.15.11.28.32.33a2.41,2.41,0,0,0,.65.12,2.08,2.08,0,0,0,1.26-.33A3.73,3.73,0,0,0,81.75,106.59Z"/><path class="cls-17" d="M80.55,110.33a15.27,15.27,0,0,1-.72-2.37"/><path class="cls-17" d="M79.27,110.21s-.92-1.66-.53-2.43"/><path class="cls-17" d="M78.06,110.17s-1-2.43.54-2.43"/><path class="cls-17" d="M77.85,108s-.89-.47-1,.63"/><path class="cls-16" d="M76.53,107.8A4,4,0,0,0,77,107a1,1,0,0,0,0-.88.72.72,0,0,1,.22.44,1.26,1.26,0,0,1-.07.51A1.82,1.82,0,0,1,76.53,107.8Z"/></g><path class="cls-11" d="M74.51,93.88a55.16,55.16,0,0,1,4.23,10.33s-2,1.62-3.17,1.4a39.24,39.24,0,0,1-5.19-9.53s-.69-2.33.94-2.83,2.64-.44,3.19.63"/><path class="cls-18" d="M78.85,102.21l-4.6,2.85.74,1.2s4-.55,4.46-1.17S78.85,102.21,78.85,102.21Z"/><path class="cls-19" d="M85,87.59c.1,0,2.52-.31,3.11,3.76s1.29,9.3,1.29,11.39-.66,6.62-1.4,6.88-.63-2.23-.63-2.23L82.66,93.1Z"/><path class="cls-20" d="M84.62,86a9.07,9.07,0,0,0,2.23.54l.23,2.19-3.26-1Z"/><path class="cls-20" d="M79.06,85.27s.47-.5,2.15-.1l-.33,1.49S79.19,85.76,79.06,85.27Z"/><path class="cls-21" d="M80.46,82.08s.29,4.09-1.39,4.93c0,0,1.39,3.33,6.91,1.35,0,0-.88-1.22-1.09-5.14S80.46,79.38,80.46,82.08Z"/><path class="cls-7" d="M83.08,84.82a8.05,8.05,0,0,1-4-5.45s0-.1,0-.29A2.11,2.11,0,0,1,78,78.63a2.15,2.15,0,0,1-.35-3,2.64,2.64,0,0,0,.32-.84,5.49,5.49,0,0,0,0-1,7.72,7.72,0,0,1,.16-2.3,6.18,6.18,0,0,1,3.09-3.86,8.31,8.31,0,0,1,4.93-.84c2.6.31,5.09.86,6.55,3a10,10,0,0,1,1.28,4.54,14.88,14.88,0,0,1-1.18,3.81c-.37,1.11-.52,2.81.32,3.62,0,0,.75.73.44,1.35s-2.15,0-2.15,0,.07,1-.9,1c0,0-.49,4.16-7.29.67"/><path class="cls-22" d="M77.73,74.08a1.63,1.63,0,0,0-1.38.72,1.06,1.06,0,0,0,.31,1.43,1.2,1.2,0,0,0-.52,1.23,1.18,1.18,0,0,0,1,.91.68.68,0,0,0,.52.68,2,2,0,0,0,.92,0,1.33,1.33,0,0,0,.93.36.66.66,0,0,0,.64-.65c.31.18.71-.12.77-.47a1.58,1.58,0,0,0-.25-1,1.37,1.37,0,0,0-.08-2,4.83,4.83,0,0,1-.72-.54,3.12,3.12,0,0,0-.25-.35.57.57,0,0,0-.62-.11c-.11,0-.24.13-.34.06a1.1,1.1,0,0,1-.09-.14c-.13-.22-.43-.21-.68-.19"/><path class="cls-23" d="M91.13,76.52a2.31,2.31,0,0,0-3.46-1.22"/><circle class="cls-3" cx="88.67" cy="78.27" r="1.89"/><g class="cls-24"><circle class="cls-25" cx="89.28" cy="78.96" r="1.3"/><circle cx="89.28" cy="78.96" r="0.8"/><circle class="cls-3" cx="88.99" cy="78.41" r="0.46"/></g><path class="cls-26" d="M89,82.26a4.4,4.4,0,0,0-4.14,1.87"/><path class="cls-22" d="M86.67,72.68a1.69,1.69,0,0,1,.2,1.49.89.89,0,0,1-1.28.43c.2,0,.29.26.25.46a1,1,0,0,1-.54.67,2.29,2.29,0,0,1-.86.23c-.22,0-.53,0-.52-.26.21.14.11.48-.07.67a1.65,1.65,0,0,1-2.51-.16,1,1,0,0,1-1.66-.45.87.87,0,0,1-.77.44,1,1,0,0,1-.81-.26.57.57,0,0,1,0-.78.27.27,0,0,1-.39,0,.63.63,0,0,1-.17-.4,1.67,1.67,0,0,1,.41-1.24A1.63,1.63,0,0,1,79.11,73a.72.72,0,0,1,0-.86,1.51,1.51,0,0,1,.78-.5,3.53,3.53,0,0,1,1-.18c.29,0,.64.05.75.33a2.4,2.4,0,0,1,1-.79,1.26,1.26,0,0,1,1.23.17,4,4,0,0,1,.45.55.22.22,0,0,0,.12.09.27.27,0,0,0,.17-.06l.63-.44c.24-.16.55-.33.79-.18s.23.37.4.48a.73.73,0,0,0,.44.06.68.68,0,0,1,.42.09c.11.1.13.31,0,.37"/><path class="cls-4" d="M86.23,72.77s7.62,4.06,10.82,3.12S95,72.37,95,72.37Z"/><circle class="cls-27" cx="96.99" cy="74.43" r="0.27"/><path class="cls-4" d="M76.77,74.61s6.5-2.44,18.44-1.89a3.88,3.88,0,0,0,.42-2.13c-.08-1.35-.16-7.11-5.34-7.59s-13.92,2.51-14.2,7.91C76.09,70.91,75.6,73.56,76.77,74.61Z"/><g class="cls-28"><path class="cls-4" d="M76.78,72.86s12-7.58,17.57-1.92l-9,1.27Z"/><path class="cls-29" d="M74.39,73.82s8.45-4.49,23-2.74l-1.62,3.13L74,76.38l.28-2.27"/></g><path class="cls-30" d="M87.06,80a2.06,2.06,0,0,0,2.41.45"/><circle class="cls-7" cx="82.71" cy="77.07" r="2.24"/><path class="cls-31" d="M83.2,75.54a1.67,1.67,0,0,0-2,1.12s-.64,1.6,1.32,2.19"/><path class="cls-32" d="M78.78,86.58a3.7,3.7,0,0,0-2.85,2.89c-.62,2.55-4.17,14.07-2.61,17s3.53,2.25,6.13,2.2,8.91,1.15,9.38-2.55-.71-13-2.5-17.43A9.39,9.39,0,0,0,78.78,86.58Z"/><polygon class="cls-32" points="85.94 86.84 86.33 88.71 85.09 88.73 85.94 86.84"/><path class="cls-33" d="M79.06,85.27a17.1,17.1,0,0,0,6.88,1.58l-.61,2.22s-6.58-1.23-7.54-2.14Z"/><circle class="cls-34" cx="86.63" cy="91.65" r="0.34"/><circle class="cls-34" cx="87.54" cy="95.91" r="0.34"/><circle class="cls-34" cx="88.03" cy="100.7" r="0.34"/><circle class="cls-34" cx="87.98" cy="105.69" r="0.34"/><path class="cls-32" d="M88.11,107.67s-1.58,3.82-4.16,4.71c-1.32.45-8.8.54-9.88-1.54s-2.54-2.86-1-8.8c0,0,7.25,5.63,7.48,5.63Z"/><path class="cls-32" d="M82,88.78a57.21,57.21,0,0,1,7.73,6.13s-3.23,2-3.14,3.44c0,0-6.57-3.57-7.6-4.66s-1.79-2.62,0-4.46S82,88.78,82,88.78Z"/><path class="cls-5" d="M87.64,83.78s-.77,2.85,2.22,1C89.86,84.82,89.62,83.93,87.64,83.78Z"/><g class="cls-35"><path class="cls-3" d="M87.37,83.62a2.16,2.16,0,0,0,1.28,1.19,1.78,1.78,0,0,0,1.68-.1L89,83.49Z"/><path class="cls-36" d="M87.33,84.49s.78,0,1.24,1.29l-1.33-.25Z"/></g><path d="M91.49,82.78a1.84,1.84,0,0,0-2.42-.14c-1.46.93-2.21-.88-2.21-.88s-.59,2.43,2.6,3a3.72,3.72,0,0,0,1.56-.1C92.33,84.28,91.49,82.78,91.49,82.78Z"/><path class="cls-2" d="M102,88a.81.81,0,0,1,.36,1.16s.78.45.11,1.31a1,1,0,0,1-.27,1.24,5.64,5.64,0,0,1-2.67,1.47s-1.32.74-2.5-1a1.83,1.83,0,0,1,.33-2.74s1-2.48,2.71-2.36l.41-.15S101.64,86,102,88Z"/><path class="cls-32" d="M86.58,94.34A55.4,55.4,0,0,1,97,90.26s1.59,2,1.36,3.2a39.66,39.66,0,0,1-9.61,5.05s-2.34.65-2.81-1-.41-2.65.67-3.18"/><path class="cls-37" d="M95,90.12l2.78,4.65L99,94s-.48-4-1.1-4.47S95,90.12,95,90.12Z"/></g></svg>