<svg xmlns="http://www.w3.org/2000/svg" xmlns:xlink="http://www.w3.org/1999/xlink" viewBox="0 0 260 168"><defs><style>.cls-1{fill:#fff;}.cls-2{fill:#472813;}.cls-3{fill:#9e6041;}.cls-4{fill:#111;}.cls-5{fill:#2e83ff;}.cls-6{fill:#0f7dea;}.cls-7{fill:#2b2b2b;}.cls-8{fill:#4bb21b;}.cls-9{fill:#2a6805;}.cls-10{fill:#c5db21;}.cls-11{fill:#3d3d3d;}.cls-12{fill:#00b4bc;}.cls-13{fill:#8b5e3c;}.cls-14{fill:#1471e0;}.cls-15{fill:#05a;}.cls-16{fill:#a86f47;}.cls-17{fill:#996542;}.cls-18,.cls-23{fill:none;stroke:#4f3615;stroke-linecap:round;stroke-linejoin:round;opacity:0.25;}.cls-18{stroke-width:0.69px;}.cls-19{fill:#28190a;}.cls-20{clip-path:url(#clip-path);}.cls-21{fill:#4f3615;}.cls-22{clip-path:url(#clip-path-2);}.cls-23{stroke-width:0.35px;}.cls-24{clip-path:url(#clip-path-3);}.cls-25{fill:#ff5050;}.cls-26{fill:#603913;}.cls-27{fill:#8e5339;}.cls-28{fill:#317bff;}.cls-29{clip-path:url(#clip-path-4);}.cls-30{fill:#bc785b;}.cls-31{clip-path:url(#clip-path-5);}.cls-32{fill:#ffce00;}</style><clipPath id="clip-path"><circle class="cls-1" cx="137.21" cy="58.19" r="2.82"/></clipPath><clipPath id="clip-path-2"><circle class="cls-1" cx="125.3" cy="58.27" r="2.82"/></clipPath><clipPath id="clip-path-3"><path class="cls-2" d="M128.06,65.78a22.77,22.77,0,0,0,6.24,0S131.73,72.83,128.06,65.78Z"/></clipPath><clipPath id="clip-path-4"><path class="cls-3" d="M115.58,103.06a8.27,8.27,0,0,0,.77,2.8c.66,1.24,1.49,3.86.39,4.19s-1.26-2.09-1.52-2.5-.76-.35-.82.41a10.74,10.74,0,0,0,.35,3.68c.38,1,1.4,2.33.9,3.06s-2.11-1.41-2.68-2.47a22.4,22.4,0,0,1-1.2-3.46,14.53,14.53,0,0,1-.1-5.76l2.4-.59Z"/></clipPath><clipPath id="clip-path-5"><path class="cls-4" d="M143.59,35.56a13.77,13.77,0,0,0-1-1h0s-4-4.25-9.1-5h-.06c-4.49-.6-8.91,1.64-9.87,2.16a15,15,0,0,0-1.47.82c-4.8,3-1,6.5-1,6.5l10.73,1.9h.05l10.84,1.14S147.36,39.8,143.59,35.56Z"/></clipPath></defs><g id="Layer_2" data-name="Layer 2"><path class="cls-5" d="M140.91,72.57s5.8-10.84,7.69-13c0,0,4.37-1.27,4.17,4.31,0,0-3.32,11.2-7,13.35S142,76.29,140.91,72.57Z"/><path class="cls-6" d="M117.56,76.56s-5.86,9.76-6.7,12.48c0,0,1.19,4.39,5.86,1.32,0,0,4-4.25,3.9-8.51S121.32,75.58,117.56,76.56Z"/><path class="cls-7" d="M141.53,107s2.09,16,1.51,18.94c0,0-9.25,2.1-11.21.21,0,0-2.09-16.11-2.33-19.63S140,100.06,141.53,107Z"/><path class="cls-7" d="M143,125.89s-1.75,7.68-8.87,3.56l2.63-5.29,3.91-1Z"/><path class="cls-8" d="M143,146.74a12.58,12.58,0,0,1-1.67-2.55c-.41-1-4.09-.5-4.53-.32s-1.61,3.31-1.61,3.31,6.69.07,6.81,0S143,146.74,143,146.74Z"/><path class="cls-9" d="M144.13,150.16a1.12,1.12,0,0,1,.33,1c-.05.71-1.08,2.42-5.35,2.57s-4.83-1.78-4.83-1.78-.23-1.37.35-1.61S144.13,150.16,144.13,150.16Z"/><path class="cls-8" d="M144.23,150.68s-1.34,1.43-4.81,1.55-4.91-1.23-4.91-1.23-.7-5.83,4.66-6S144.23,150.68,144.23,150.68Z"/><path class="cls-10" d="M141,146.48a6.86,6.86,0,0,0-4,.14s-.14-.89.45-1.1a6.74,6.74,0,0,1,3.18-.14C141.36,145.56,141,146.48,141,146.48Z"/><path class="cls-10" d="M137.07,145.11a7.44,7.44,0,0,1,1.91-.31,7.85,7.85,0,0,1,2,.18l0-.73a.3.3,0,0,0-.23-.29,8.43,8.43,0,0,0-1.77-.12,8.9,8.9,0,0,0-1.67.24.3.3,0,0,0-.22.3Z"/><path class="cls-7" d="M142.87,124.76s.47,14.59-.21,17.23c0,0-4.76,2-8.33.88,0,0-2.33-11.85-2.43-15.8s2.65-4.4,5.45-4.55S142.42,122.41,142.87,124.76Z"/><path class="cls-11" d="M133.91,142.41s7,0,9.47-1.49l.11,2s-.27,2.47-9.64,1.83Z"/><path class="cls-12" d="M126.59,103.14s1.38-1.34,11,0l2-6.8-15.8.62"/><path class="cls-7" d="M118.5,107s-2.09,16-1.51,18.94c0,0,9.25,2.1,11.21.21,0,0,2.09-16.11,2.33-19.63S120,100.06,118.5,107Z"/><path class="cls-1" d="M141.48,77c-.1-5.16-8.42-6.27-8.42-6.27l-2-.14v.06h-1.92s-8.41,1.26-8.51,6.41c0,0-2.19,20.52-1.23,26.11,0,0-1.33,2.62,11.66,2.62v-.07c13,0,11.65-2.61,11.65-2.61C143.68,97.53,141.48,77,141.48,77Z"/><path class="cls-13" d="M134.26,71.9a7.12,7.12,0,0,1,0-5.37l-3.27.28-3.27-.28a7.12,7.12,0,0,1,0,5.37s-.55,1.24,3.27,1.24S134.26,71.9,134.26,71.9Z"/><path class="cls-13" d="M127.72,71.9a9,9,0,0,0-1.16,4.1c0,2.17.58,2.92,4.68,2.92s4.43-1.67,4.26-3.26a18.54,18.54,0,0,0-1.5-4.35Z"/><path class="cls-5" d="M128.09,70.88S124.35,78,131,80.27c0,0,.12,10.69.12,12.14s-.12,16.88.22,18.33a12.35,12.35,0,0,1-4.91,1c-2.11-.23-7.76-2.52-8.54-4.42s0-10.85,1-15.09S117,77.56,117.56,76.56,122.4,70.77,128.09,70.88Z"/><path class="cls-14" d="M128.08,70.89s-3.8.46-4.1,3.69l1.55.49-1.79.81S125,79.5,131,80.29C131,80.29,124.94,78.48,128.08,70.89Z"/><path class="cls-5" d="M133.9,70.88s4.43,7-2.93,9.39c0,0-.11,10.69-.11,12.14s.11,16.91-.22,18.36a12.54,12.54,0,0,0,4.9.92c2.12-.23,7.36.89,8.14-1s.44-14.26-.56-18.5,2.6-15.14,2-16.15S139.58,70.77,133.9,70.88Z"/><path class="cls-14" d="M133.91,70.89s3.8.46,4.1,3.69l-1.55.49,1.78.81S137,79.5,131,80.29C131,80.29,137.05,78.47,133.91,70.89Z"/><circle class="cls-15" cx="130.9" cy="85.37" r="0.56"/><circle class="cls-15" cx="130.9" cy="92.89" r="0.56"/><circle class="cls-15" cx="130.9" cy="100.42" r="0.56"/><circle class="cls-15" cx="130.9" cy="107.94" r="0.56"/><path class="cls-7" d="M117,125.89s1.75,7.68,8.87,3.56l-2.63-5.29-3.91-1Z"/><path class="cls-8" d="M117,146.74a13,13,0,0,0,1.67-2.55c.41-1,4.09-.5,4.53-.32s1.6,3.31,1.6,3.31-6.68.07-6.8,0S117,146.74,117,146.74Z"/><path class="cls-9" d="M115.9,150.16a1.12,1.12,0,0,0-.33,1c.05.71,1.07,2.42,5.35,2.57s4.83-1.78,4.83-1.78.23-1.37-.36-1.61S115.9,150.16,115.9,150.16Z"/><path class="cls-8" d="M115.8,150.68s1.34,1.43,4.81,1.55,4.91-1.23,4.91-1.23.69-5.83-4.66-6S115.8,150.68,115.8,150.68Z"/><path class="cls-10" d="M119,146.48a6.82,6.82,0,0,1,4,.14s.15-.89-.44-1.1a6.75,6.75,0,0,0-3.18-.14C118.66,145.56,119,146.48,119,146.48Z"/><path class="cls-10" d="M123,145.11a7.44,7.44,0,0,0-1.91-.31,7.85,7.85,0,0,0-2,.18l0-.73a.31.31,0,0,1,.24-.29,8.38,8.38,0,0,1,1.76-.12,8.89,8.89,0,0,1,1.68.24.3.3,0,0,1,.22.3Z"/><path class="cls-7" d="M117.16,124.76s-.47,14.59.21,17.23c0,0,4.76,2,8.33.88,0,0,2.33-11.85,2.43-15.8s-2.66-4.4-5.45-4.55S117.61,122.41,117.16,124.76Z"/><path class="cls-11" d="M126.12,142.41s-7,0-9.47-1.49l-.11,2s.26,2.47,9.64,1.83Z"/><path class="cls-16" d="M142.37,62.93s-1.37,8.83-5,7.71a5.39,5.39,0,0,1,.1-7.18C140.67,59.85,142.37,62.93,142.37,62.93Z"/><path class="cls-16" d="M120.3,63.23s1.5,8.82,5.13,7.64a5.39,5.39,0,0,0-.2-7.17C122,60.13,120.3,63.23,120.3,63.23Z"/><path class="cls-17" d="M120.1,57.5s-1-2-1.95.08-.24,6.14,2.34,5.64l1.16-3.57Z"/><path class="cls-17" d="M142.2,57.35s1-2,2,0,.32,6.14-2.26,5.67l-1.21-3.55Z"/><path class="cls-18" d="M119.51,57.44a2.43,2.43,0,0,0-1,2.44c.15,1.81,1,2.68,1.82,2.43"/><path class="cls-18" d="M142.48,57.28a2.47,2.47,0,0,1,1,2.43c-.13,1.81-.93,2.69-1.8,2.45"/><path class="cls-16" d="M142.84,56.59c.06,8.93-2.56,16.18-11.48,16.24s-11.62-7.15-11.68-16.08,2.54-16.17,11.46-16.23S142.78,47.67,142.84,56.59Z"/><path class="cls-19" d="M140.2,55.23a.4.4,0,0,1-.35-.19,3.64,3.64,0,0,0-2.18-1.49,3.38,3.38,0,0,0-2.65,1,.41.41,0,0,1-.52-.63,4.12,4.12,0,0,1,3.3-1.13,4.33,4.33,0,0,1,2.74,1.86.4.4,0,0,1-.12.56A.46.46,0,0,1,140.2,55.23Z"/><circle class="cls-1" cx="137.21" cy="58.19" r="2.82"/><g class="cls-20"><circle class="cls-21" cx="137.41" cy="58.5" r="1.94"/><circle cx="137.41" cy="58.5" r="1.19"/><circle class="cls-1" cx="136.8" cy="57.79" r="0.68"/></g><path class="cls-19" d="M122.27,55.36a.33.33,0,0,1-.21-.07.4.4,0,0,1-.14-.56,4.41,4.41,0,0,1,2.71-1.89A4.12,4.12,0,0,1,128,53.93a.41.41,0,0,1-.52.63,3.36,3.36,0,0,0-2.66-.92,3.64,3.64,0,0,0-2.16,1.52A.41.41,0,0,1,122.27,55.36Z"/><circle class="cls-1" cx="125.3" cy="58.27" r="2.82"/><g class="cls-22"><circle class="cls-21" cx="125.47" cy="58.54" r="1.94"/><circle cx="125.47" cy="58.54" r="1.19"/><circle class="cls-1" cx="126.07" cy="57.82" r="0.68"/></g><path class="cls-23" d="M122.66,61.14a3.38,3.38,0,0,0,4.91.18"/><path class="cls-23" d="M139.94,61a3.38,3.38,0,0,1-4.91.25"/><path class="cls-23" d="M128.5,64.07a5.31,5.31,0,0,0-3.21,4.86"/><path class="cls-23" d="M134.53,64a5.32,5.32,0,0,1,3.27,4.83"/><path class="cls-2" d="M128.06,65.78a22.77,22.77,0,0,0,6.24,0S131.73,72.83,128.06,65.78Z"/><g class="cls-24"><path class="cls-1" d="M128.42,65.16a2.73,2.73,0,0,0,2.89,2,3,3,0,0,0,2.91-2.48Z"/><path class="cls-25" d="M129.05,69.34s.14-1.57,2.26-1.58A2.7,2.7,0,0,1,134,69.65Z"/></g><path d="M130.63,63.89s-1.52-1.4-3.57.6c-1.86,1.79-3.51-.55-3.51-.55s0,3.72,4.79,3.55a5.47,5.47,0,0,0,2.23-.68C132.34,65.78,130.63,63.89,130.63,63.89Z"/><path d="M132,63.88s1.32-1.66,3.57.55c1.84,1.8,3.51-.6,3.51-.6s.09,3.73-4.75,3.61a5.48,5.48,0,0,1-2.24-.64C130.35,65.79,132,63.88,132,63.88Z"/><path class="cls-26" d="M122.13,50.31s.24,4.67-1.85,4.75c0,0,.22,2.33-1.7,1.7,0,0-3.32-.69-1.31-3.14,0,0,.32-3.91,4-3Z"/><path class="cls-26" d="M140.44,50.18s-.17,4.67,1.92,4.73c0,0-.2,2.33,1.72,1.67,0,0,3.3-.73,1.26-3.16,0,0-.37-3.9-4-2.9Z"/><path class="cls-26" d="M126.67,50.11a3.77,3.77,0,0,0,2.71,1.61,4,4,0,0,0,3.07-1,2.86,2.86,0,0,0,2.37.87,2.69,2.69,0,0,0,2.09-1.32,4.31,4.31,0,0,0,2.15,1.23,2.07,2.07,0,0,0,2.2-.87c.73.48,1.86.85,2.45.24a1.55,1.55,0,0,0,.32-1.14c0-.77-.12-1.72-.94-2A2.75,2.75,0,0,0,142,44.43,2.33,2.33,0,0,0,140.42,42a3.83,3.83,0,0,1-.72-.27,3.88,3.88,0,0,1-.64-.64,4,4,0,0,0-2.37-.78c-1.15-.13-2.29-.25-3.44-.31-.67,0-1.33,0-2,0l-1.18,0a11.73,11.73,0,0,0-1.78.06,22.54,22.54,0,0,0-4.55,1.59c-.71.24-1.55.52-1.72,1.17-.08.28,0,.58-.17.82a1.51,1.51,0,0,1-.62.45c-1.09.57-2,1.72-1.54,2.77a2.85,2.85,0,0,0-1.32,1.43,1.51,1.51,0,0,0,.09,1.12c.08.19.35.3.42.45s0,.5.18.7c.51.69.92.51,1.77.54C123,51.11,124.92,51.7,126.67,50.11Z"/><path class="cls-27" d="M144.3,45.16s-.64-3.5-1.47-4.1-2-1.58-1.84-1.91.71-.93,2.76,1.1,2.89,6.37,2.89,6.37l-1.2.25Z"/><path class="cls-3" d="M144.41,49.12a8.23,8.23,0,0,0-1.53-2.48c-1-1-2.51-3.28-1.54-3.9s1.79,1.65,2.16,2,.83.12.67-.63a10.65,10.65,0,0,0-1.36-3.43c-.65-.86-2-1.85-1.73-2.68s2.42.76,3.27,1.62a21.64,21.64,0,0,1,2.12,3,14.6,14.6,0,0,1,1.71,5.5L146,49.31Z"/><path class="cls-28" d="M147.51,61.93a72.07,72.07,0,0,1-3.81-14.15S146.5,46,148,46.42a51.53,51.53,0,0,1,5.18,13.24s.51,3.15-1.68,3.56-3.49.19-4-1.29"/><path class="cls-14" d="M149.69,48.43l-6.31.18-.28-1.56S147,45.13,148,45.4,149.69,48.43,149.69,48.43Z"/><path class="cls-27" d="M114.58,106.89s-.37,3.54.26,4.35,1.49,2.08,1.23,2.35-.94.7-2.34-1.83-1-6.93-1-6.93l1.22.1Z"/><path class="cls-3" d="M115.58,103.06a8.27,8.27,0,0,0,.77,2.8c.66,1.24,1.49,3.86.39,4.19s-1.26-2.09-1.52-2.5-.76-.35-.82.41a10.74,10.74,0,0,0,.35,3.68c.38,1,1.4,2.33.9,3.06s-2.11-1.41-2.68-2.47a22.4,22.4,0,0,1-1.2-3.46,14.53,14.53,0,0,1-.1-5.76l2.4-.59Z"/><g class="cls-29"><path class="cls-30" d="M114.77,114.68s.5.14.36-.09a2.21,2.21,0,0,0-.63-.5s-.23,0-.22.14S114.77,114.68,114.77,114.68Z"/></g><path class="cls-30" d="M117,109.06a1.84,1.84,0,0,1-.92.18s.11.7.62.54S117,109.06,117,109.06Z"/><path class="cls-28" d="M116.19,89.89a72.37,72.37,0,0,1-.3,14.65s-3.2,1-4.55.1a51.41,51.41,0,0,1-1.26-14.17s.39-3.16,2.61-2.94,3.4.79,3.5,2.36"/><path class="cls-14" d="M110.32,102.24l6.11,1.6-.17,1.57s-4.32.74-5.14.22S110.32,102.24,110.32,102.24Z"/><path class="cls-27" d="M143.88,41.41a10.36,10.36,0,0,1-.95-1,3.13,3.13,0,0,1-.7-1.28.55.55,0,0,1,.57-.53,1.17,1.17,0,0,1,.68.29,5,5,0,0,1,1,1,9,9,0,0,0-1.09-.87,1.21,1.21,0,0,0-.6-.23.37.37,0,0,0-.35.34,3.25,3.25,0,0,0,.61,1.18C143.32,40.66,143.6,41,143.88,41.41Z"/><path class="cls-4" d="M143.59,35.56a13.77,13.77,0,0,0-1-1h0s-4-4.25-9.1-5h-.06c-4.49-.6-8.91,1.64-9.87,2.16a15,15,0,0,0-1.47.82c-4.8,3-1,6.5-1,6.5l10.73,1.9h.05l10.84,1.14S147.36,39.8,143.59,35.56Z"/><g class="cls-31"><path class="cls-4" d="M121.65,40c.08-.27,2.65-6.56,11.14-5.36s8.81,7.58,8.81,7.58L121.65,40"/></g><path class="cls-32" d="M132.55,36.44h0c-8.29-1.16-13,2.27-12.49,3.33s1.62.22,1.62.22l3.29-.78,7.16.27,6.94,1.72,3,1.66s.86,1.11,1.62.23S140.84,37.62,132.55,36.44Z"/><path class="cls-4" d="M121.65,40s7.59,6.35,20.33,2.87c0,0-1.83-3-9.84-4.1C132.14,38.76,124,37.5,121.65,40Z"/></g></svg>