<svg xmlns="http://www.w3.org/2000/svg" viewBox="0 0 260 168"><defs><style>.cls-1{fill:#7f3d18;}.cls-2{fill:#fff;}.cls-3{fill:#1d34bc;}.cls-4{fill:#03091e;}.cls-5{fill:#0e278e;}.cls-6{fill:#1328a0;}.cls-7{fill:#351c08;}.cls-8{fill:none;stroke:#703111;stroke-linecap:round;stroke-linejoin:round;stroke-width:0.6px;}.cls-9{fill:#2c3cce;}.cls-10{fill:#2239bf;}.cls-11{fill:#141414;}.cls-12{fill:#444;}</style></defs><g id="Layer_3" data-name="Layer 3"><path class="cls-1" d="M218.17,97.19l2.62-1.06s7.84,11.79,8.68,12.92-2,4.94-3.67,3.94-9.42-13.75-9.42-13.75Z"/><path class="cls-1" d="M208.91,88.35s7.07,10.4,7.67,11.25,3.87-.37,4.4-3.11a125,125,0,0,0-8.31-11.19s-1.62-1.47-3-.21S208.37,87.54,208.91,88.35Z"/><path class="cls-1" d="M224.79,114.53c-.06.41-.09.91.25,1.14s.81,0,1.07-.36a5,5,0,0,1,.74-1c.71,1.71,1.46,3.4,2.27,5.06a1.11,1.11,0,0,0,.43.56.75.75,0,0,0,1-.54,1.89,1.89,0,0,0-.19-1.25,4.38,4.38,0,0,1-.46-1.2c-.14-1.07,1.37-2.28,1.84-3.24.78-1.61-.33-3.47-1.77-4.5-1.13-.81-3.3-.88-4.25.32-.41.5-.3,1.17-.39,1.8C225.14,112.39,225,113.46,224.79,114.53Z"/><path class="cls-1" d="M230.69,118.58a1.36,1.36,0,0,0,.54.62.68.68,0,0,0,.93-.58,1.14,1.14,0,0,0-.13-.51l-1.64-4a.86.86,0,0,0-.38-.51,1.11,1.11,0,0,0-1.28.7c-.11.45.12.7.36,1a8.79,8.79,0,0,1,.71,1.52C230.07,117.42,230.38,118,230.69,118.58Z"/><path class="cls-1" d="M232,117.34a1.33,1.33,0,0,0,.57.58.69.69,0,0,0,.9-.65,1.35,1.35,0,0,0-.17-.5l-1.93-3.88a.93.93,0,0,0-.42-.49,1.13,1.13,0,0,0-1.23.8c-.07.45.17.69.44,1a8,8,0,0,1,.81,1.46C231.25,116.23,231.6,116.78,232,117.34Z"/><path class="cls-1" d="M232.91,115.5a1.12,1.12,0,0,0,.52.42.56.56,0,0,0,.66-.61,1.06,1.06,0,0,0-.18-.39l-1.9-3a.76.76,0,0,0-.39-.36c-.39-.1-.9.4-.92.76s.2.54.44.77a6.36,6.36,0,0,1,.79,1.11C232.24,114.66,232.57,115.08,232.91,115.5Z"/><path class="cls-2" d="M228.89,107.61l.74,1.22a6,6,0,0,1-4.63,4l-1.14-1.93Z"/><path class="cls-3" d="M208.81,83.88s-3.69,2.45,1.67,9.14c4.66,5.82,12.77,18.26,13.48,18.52,0,0,3.17.15,5.47-4.2l-9-12.67-4.09-6S212.89,81.14,208.81,83.88Z"/><path class="cls-2" d="M197,146.14s-.67,3-4.5,2.76-6-1-6.68,1,12.26,5.89,14.42,5.89,1.6-7.95,1.6-7.95S200,143.46,197,146.14Z"/><path class="cls-4" d="M201.82,151.4a6.16,6.16,0,0,1-1.22,4.38c-1.55,1.69-12.07-2.84-14.72-4.83,0,0-2-2.18,1.59-3a14.07,14.07,0,0,1,7,.46s.64-1.78,1.88-1.1,2.79,1.72,2.95,2.22A3.76,3.76,0,0,0,201.82,151.4Z"/><path class="cls-2" d="M219.55,146.77s1.29,2.83-1.94,4.9-5.41,2.77-4.76,4.79,13.35-2.65,15.06-4-3.48-7.32-3.48-7.32S220.4,142.78,219.55,146.77Z"/><path class="cls-5" d="M201.42,112.38s-3.17,19.44-3.31,20.48,6.33,3.78,8.56,2.6c0,0,5.54-14.63,6.68-18.68a5.48,5.48,0,0,0-4.38-7C206.53,109.33,204.11,107.46,201.42,112.38Z"/><path class="cls-5" d="M198.11,132.86l-3.06,13.52a19.58,19.58,0,0,0,6.95,3.05.92.92,0,0,0,1.13-.66l3.54-13.31s2.51-5.92-2.7-6.29S199.7,128.35,198.11,132.86Z"/><path class="cls-6" d="M204.47,115.82s8.25,17.88,8.71,18.81,7.37-.4,8.55-2.62c0,0-3.59-15.23-4.91-19.22a5.49,5.49,0,0,0-7.54-3.36C207,110.42,204,110.23,204.47,115.82Z"/><path class="cls-6" d="M213.18,134.63l5,12.93a19.34,19.34,0,0,0,7.46-1.36.92.92,0,0,0,.57-1.18l-4.51-13s-1.22-6.31-5.76-3.71S212,130,213.18,134.63Z"/><path class="cls-2" d="M212.05,80s-5.32.49-8,7.57c-2,5.34-3.76,25-3.76,27s13.65,3.58,18.55.67c0,0,.66-18.29-1.19-26.9S212.05,80,212.05,80Z"/><rect class="cls-1" x="207.31" y="73.12" width="4.59" height="8.14"/><path class="cls-7" d="M196.66,74a6.78,6.78,0,0,0,4.08.31,2.84,2.84,0,0,0,1.48-.73,1.39,1.39,0,0,0,.31-1.55,1.88,1.88,0,0,0-.95-.75c-.92-.41-3.14-1.13-4.06-.41C197.2,71.11,196.91,74.09,196.66,74Z"/><path class="cls-1" d="M221,63.14c0-8.91-5.57-16.13-13.13-16.13-12.09,0-13.72,7.15-13.77,16.06a18.4,18.4,0,0,0,1.69,7.86l.52.83s1.06.73,3.47.1c0,0-.09,1.29-3.41,1.79,0,0-.2.89,1.16,3.31a20.13,20.13,0,0,0,1.76,2.85s14.73,1.26,15.79-10Z"/><circle class="cls-2" cx="201.22" cy="64.66" r="3.77"/><circle cx="200.83" cy="65.98" r="2.46"/><circle class="cls-2" cx="199.08" cy="64.57" r="0.84"/><path d="M204.05,59.74s-5.42.31-7.07,2.22C197,62,199.25,56.39,204.05,59.74Z"/><path d="M200.68,71.64h0a.25.25,0,0,0-.24.28c.13,1,.48,4.48-.54,5.34-1.2,1-1.65-.35-2-.7a1.19,1.19,0,0,0-.53-.28h0a2.05,2.05,0,0,0-.47,1,3,3,0,0,0,.34,2,2.45,2.45,0,0,0,.57.63,8.87,8.87,0,0,0,1,.12A3.57,3.57,0,0,0,201.27,79c1.22-1.41.2-6.09-.36-7.19A.27.27,0,0,0,200.68,71.64Z"/><path class="cls-1" d="M194.15,64.42a5.47,5.47,0,0,1-1.39,2.77c-1.11,1-.44,2.3,1.1,2.65a4.73,4.73,0,0,0,2.57,0l-.79-4.37S194.68,63.56,194.15,64.42Z"/><path d="M194.56,70.53a.71.71,0,0,1,.39-.44,4,4,0,0,1,3.86.24c2,1.34,2.89.31,2.89.31s-1,1.91-4,1.55C195,71.86,194.29,71.45,194.56,70.53Z"/><path d="M195.84,57.5A7.87,7.87,0,0,0,199,56.43a4.32,4.32,0,0,0,5.11.64,2.59,2.59,0,0,0,1.09,2.43,5.3,5.3,0,0,0,2.38.73,1.94,1.94,0,0,0,0,2.75,2.24,2.24,0,0,0,2.61.2,3.06,3.06,0,0,0,.31,2.78,2.06,2.06,0,0,0,2.26.86,3.76,3.76,0,0,0,1.1,3.48,2.53,2.53,0,0,0,3.14.1,2.11,2.11,0,0,0,2.32-.6,3.17,3.17,0,0,0,.66-2.71,9.54,9.54,0,0,0,2.67-3.25,4.23,4.23,0,0,0-.35-4.24,4.67,4.67,0,0,0,1.09-3.85,4.07,4.07,0,0,0-2.26-3.07c1.37-1.23,1.41-3.85.36-5.46A5.14,5.14,0,0,0,216.86,45a4.69,4.69,0,0,0-5.3-2.7,4.52,4.52,0,0,0-2.78-2.15,10.11,10.11,0,0,0-3.38-.23c-1.14.05-2.46.26-3.07,1.4a7.22,7.22,0,0,0-5.27.42,5.06,5.06,0,0,0-2.41,5.14,3.76,3.76,0,0,0-2.24,2.46,4.71,4.71,0,0,0,.34,3.59,1.78,1.78,0,0,0-.73,1.68c.1.9.95,1.42,1.48,2A3,3,0,0,0,195.84,57.5Z"/><path d="M212.46,68.25a1.64,1.64,0,0,0-.13,1,.87.87,0,0,0,.61.68,1.1,1.1,0,0,0,1.52,1.52,1.76,1.76,0,0,0,2.17.5,2.47,2.47,0,0,0,1.25-2,.91.91,0,0,1,.1-.43,1.28,1.28,0,0,1,.35-.26,1.57,1.57,0,0,0,.55-1.76,2.52,2.52,0,0,0-1.32-1.42c-1.05-.52-1.89-.08-2.9.21A3.38,3.38,0,0,0,212.46,68.25Z"/><circle class="cls-1" cx="211.21" cy="64.69" r="4.11" transform="translate(113.55 262.83) rotate(-80.79)"/><path class="cls-8" d="M211.27,61.4a3.29,3.29,0,0,1-.11,6.58"/><path class="cls-1" d="M207.51,81s-1.85.89-1.79,1.71,1.23,1.34,3.78.64,3.51-2.77,2.55-3.21S207.51,81,207.51,81Z"/><path class="cls-2" d="M212.05,80.16a8.86,8.86,0,0,1-2,1.51c-1.23.66-2.85,2.25-4.47,1.35l-1,3.42,5.57-.53s2-.3,2.35-1A10.15,10.15,0,0,0,213.51,83a7.91,7.91,0,0,0-.33-1.89,6.71,6.71,0,0,0-.13-.69S212.22,79.81,212.05,80.16Z"/><path class="cls-4" d="M226.61,148.05a6.16,6.16,0,0,1,1.65,4.23c-.22,2.28-11.36,5-14.67,5,0,0-2.91-.54-.52-3.32a14.16,14.16,0,0,1,5.89-3.85s-.56-1.81.85-2,3.25-.3,3.68,0A3.83,3.83,0,0,0,226.61,148.05Z"/><path class="cls-9" d="M213.59,79.75s4.48,3.57,5.37,12.1.36,25,.36,25-15.32,2.51-19.66-1.26c0,0-.11-30,6.64-32.62Z"/><path class="cls-10" d="M211.91,78.24a2.87,2.87,0,0,1,1.68,1.51c.55,1.19-6.71,5.19-6.71,5.19l-1.63-2.68Z"/><rect class="cls-11" x="175.15" y="117.14" width="33.72" height="22.5" rx="4.01" transform="translate(384.02 256.78) rotate(180)"/><path class="cls-11" d="M184,122.21v-6a2.65,2.65,0,0,1,2.65-2.64h10.72a2.64,2.64,0,0,1,2.64,2.64v6a2.64,2.64,0,0,1-2.64,2.64H186.65A2.65,2.65,0,0,1,184,122.21Zm2.65-6.74a.7.7,0,0,0-.7.7v6a.7.7,0,0,0,.7.7h10.72a.7.7,0,0,0,.7-.7v-6a.7.7,0,0,0-.7-.7Z"/><rect class="cls-12" x="178.75" y="118.08" width="26.71" height="0.71" rx="0.36" transform="translate(384.21 236.88) rotate(-180)"/><path class="cls-1" d="M203.47,98.63l-2.62-1s-7.84,11.78-8.69,12.92,2,4.93,3.67,3.94,9.42-13.75,9.42-13.75Z"/><path class="cls-1" d="M212.73,89.79s-7.08,10.41-7.68,11.25-3.86-.36-4.4-3.11A125.78,125.78,0,0,1,209,86.74s1.61-1.47,3-.21S213.26,89,212.73,89.79Z"/><path class="cls-1" d="M190.59,117.05a1.25,1.25,0,0,1-.76.11,1,1,0,0,1-.69-.82,1.53,1.53,0,0,1,.29-1.24.17.17,0,0,0,0-.15c.31-.47.61-.94.93-1.41a5.28,5.28,0,0,0-1.26-.06c-.42,0-.89-.28-.88-.7s.44-.66.82-.83c1-.45,2-.89,3-1.35.58-.27,1.08-.72,1.72-.66,1.53.14,2.66,2,2.61,3.37-.07,1.77-1,3.73-2.79,4-.74.1-1.86-.16-2.75-.09A.17.17,0,0,0,190.59,117.05Z"/><path class="cls-2" d="M192.75,109.06l-.74,1.21a6,6,0,0,0,4.63,4l1.13-1.94Z"/><path class="cls-3" d="M212.83,85.32s3.68,2.45-1.67,9.14c-4.66,5.82-12.78,18.26-13.48,18.52,0,0-3.18.15-5.47-4.19l8.95-12.68,4.09-6S208.75,82.58,212.83,85.32Z"/></g></svg>