<svg xmlns="http://www.w3.org/2000/svg" xmlns:xlink="http://www.w3.org/1999/xlink" viewBox="0 0 260 168"><defs><style>.cls-1{fill:#4bb21b;}.cls-2{fill:#99623d;}.cls-3{fill:#fff;}.cls-4{fill:#111;}.cls-5{fill:#472813;}.cls-6{fill:#227fef;}.cls-7{fill:#303030;}.cls-8{fill:#9b633d;}.cls-9{clip-path:url(#clip-path);}.cls-10{fill:#2a6805;}.cls-11{fill:#c5db21;}.cls-12{fill:#383838;}.cls-13{fill:#a86f47;}.cls-14{clip-path:url(#clip-path-2);}.cls-15{clip-path:url(#clip-path-3);}.cls-16{fill:#77492a;}.cls-17,.cls-26,.cls-29,.cls-33,.cls-34{fill:none;}.cls-17{stroke:#77492a;stroke-miterlimit:10;stroke-width:0.18px;}.cls-18{fill:#177ce0;}.cls-19{fill:#1972dd;}.cls-20{fill:#0461bc;}.cls-21{fill:#895e3c;}.cls-22{fill:#2e83ff;}.cls-23{fill:#126cc6;}.cls-24{fill:#05a;}.cls-25{fill:#603913;}.cls-26{stroke:#28190a;stroke-width:0.55px;}.cls-26,.cls-29,.cls-33,.cls-34{stroke-linecap:round;stroke-linejoin:round;}.cls-27{clip-path:url(#clip-path-4);}.cls-28{fill:#4f3615;}.cls-29,.cls-33,.cls-34{stroke:#4f3615;opacity:0.25;}.cls-29{stroke-width:0.21px;}.cls-30{fill:#6d6d6d;}.cls-31{clip-path:url(#clip-path-5);}.cls-32{fill:#ffce00;}.cls-33{stroke-width:0.23px;}.cls-34{stroke-width:0.46px;}.cls-35{clip-path:url(#clip-path-6);}.cls-36{fill:#ff5050;}.cls-37{fill:#247eea;}</style><clipPath id="clip-path"><path class="cls-1" d="M36.75,128.1s-.2.83,2.22,2c0,0,1.76.94,2.43.52a2.66,2.66,0,0,0,1.05,2.1c1.07.71,3.35,2.75,1.22,5a1.7,1.7,0,0,1-2.37-.06c-1.42-1.08-5.67-3.83-6.33-4.37s-1.87-1.65-.89-2.7S36.43,128.53,36.75,128.1Z"/></clipPath><clipPath id="clip-path-2"><path class="cls-1" d="M59.34,132.29s.67.54,2.75-1.17c0,0,1.6-1.19,1.5-2a2.68,2.68,0,0,0,2.35-.07c1.09-.66,3.91-1.87,5,1a1.7,1.7,0,0,1-1.06,2.12c-1.58.83-5.87,3.52-6.64,3.89s-2.28,1-2.82-.33S59.6,132.76,59.34,132.29Z"/></clipPath><clipPath id="clip-path-3"><path class="cls-2" d="M57.86,107.46a2.55,2.55,0,0,1,1.93.43,10.13,10.13,0,0,1,1.78,1.38,1.34,1.34,0,0,1,0,1.88s.49,1.43.3,1.8c0,0-.24.69-1.1.09,0,0-.23.8-1.14.13,0,0-.35.56-1.11,0,0,0-.31.3-1.14-.73a10.42,10.42,0,0,1-1-3.75S56.16,107.76,57.86,107.46Z"/></clipPath><clipPath id="clip-path-4"><circle class="cls-3" cx="54.07" cy="77.8" r="1.89" transform="matrix(0.96, -0.3, 0.3, 0.96, -20.54, 19.41)"/></clipPath><clipPath id="clip-path-5"><path class="cls-4" d="M41.72,76.4s5.93-3.59,17.74-5.25a3.86,3.86,0,0,0,0-2.17C59.16,67.67,58,62,52.84,62.52s-13.19,5-12.46,10.37C40.38,72.89,40.38,75.58,41.72,76.4Z"/></clipPath><clipPath id="clip-path-6"><path class="cls-5" d="M54.07,83.39s-.24,2.94,2.37.61C56.44,84,56,83.17,54.07,83.39Z"/></clipPath></defs><g id="Layer_2" data-name="Layer 2"><path class="cls-2" d="M61.73,111.81s.81,3.11.26,3.22-1-1.48-1.26-2.52S61.73,111.81,61.73,111.81Z"/><path class="cls-6" d="M52,89.44a27.54,27.54,0,0,1,4.17,8.32,4.13,4.13,0,0,1-2.54,2.65A16.77,16.77,0,0,1,47.3,93C45.42,88.19,49.81,87,52,89.44Z"/><path class="cls-7" d="M55,105.15s-4-3.39-7.12-.81S43.09,114.57,43,117.27s4.32,3.22,5.52,1.87S53.87,113.92,55,105.15Z"/><path class="cls-8" d="M38.84,123.81s-1.57,3.91-2.45,4.73-3.49,2.35-1.92,3.75,5.22,3.72,7.13,5.17,3.61-1.45,2.13-3.54-4.49-1-.75-6.31l-1.08-4Z"/><path class="cls-7" d="M41.63,117.73s-4.71,7.58-5,10.46a7.9,7.9,0,0,0,6.45,3.14s4.75-5.19,5.34-14.48C48.43,116.85,45,113.74,41.63,117.73Z"/><path class="cls-1" d="M36.75,128.1s-.2.83,2.22,2c0,0,1.76.94,2.43.52a2.66,2.66,0,0,0,1.05,2.1c1.07.71,3.35,2.75,1.22,5a1.7,1.7,0,0,1-2.37-.06c-1.42-1.08-5.67-3.83-6.33-4.37s-1.87-1.65-.89-2.7S36.43,128.53,36.75,128.1Z"/><g class="cls-9"><path class="cls-10" d="M33.36,130.69a11.52,11.52,0,0,0,3.33,3.05c2.53,1.69,5.16,3.6,5.84,3.82a1.39,1.39,0,0,0,1.56-.37l0,.44L42.62,139l-3.26-1.32-6.6-5.51a5.13,5.13,0,0,1,.19-1C33,131.14,33.36,130.69,33.36,130.69Z"/></g><path class="cls-11" d="M41.4,130.62s-.25-.23-1.55-.13,0,1.58,0,1.58l1.81-.18Z"/><path class="cls-11" d="M40.42,132.52a6.94,6.94,0,0,1,1.5-.28l.43.4a12.91,12.91,0,0,0-1.35.44Z"/><path class="cls-12" d="M47.73,103.73s-5,1.56-4.52,5.56,6,9.53,8.26,11.07,5-1.9,4.55-3.64S54.52,109.38,47.73,103.73Z"/><path class="cls-13" d="M56.33,128.58s2.88,3.08,3.26,4.22.65,4.16,2.58,3.32,5.58-3.15,7.7-4.27.22-3.89-2.31-3.42-2.83,3.63-6-2l-4-.7Z"/><path class="cls-12" d="M51.12,121.75s3.85,8.05,6.12,9.84a7.92,7.92,0,0,0,6.13-3.74s-1.82-6.8-9.31-12.31C54.06,115.54,49.58,116.77,51.12,121.75Z"/><path class="cls-1" d="M59.34,132.29s.67.54,2.75-1.17c0,0,1.6-1.19,1.5-2a2.68,2.68,0,0,0,2.35-.07c1.09-.66,3.91-1.87,5,1a1.7,1.7,0,0,1-1.06,2.12c-1.58.83-5.87,3.52-6.64,3.89s-2.28,1-2.82-.33S59.6,132.76,59.34,132.29Z"/><g class="cls-14"><path class="cls-10" d="M60.25,136.46a11.32,11.32,0,0,0,4.17-1.74c2.61-1.57,5.45-3.15,5.94-3.66a1.41,1.41,0,0,0,.32-1.58l.42.14.6,2L69.13,134l-7.79,3.65s-.92-.55-.87-.62S60.25,136.46,60.25,136.46Z"/></g><path class="cls-11" d="M63.59,129.14s-.31.13-.77,1.35,1.44.63,1.44.63l.61-1.72Z"/><path class="cls-11" d="M64.89,130.84a7.28,7.28,0,0,1,.39-1.48l.55-.22a12.82,12.82,0,0,0-.18,1.4Z"/><path class="cls-2" d="M57.86,107.46a2.55,2.55,0,0,1,1.93.43,10.13,10.13,0,0,1,1.78,1.38,1.34,1.34,0,0,1,0,1.88s.49,1.43.3,1.8c0,0-.24.69-1.1.09,0,0-.23.8-1.14.13,0,0-.35.56-1.11,0,0,0-.31.3-1.14-.73a10.42,10.42,0,0,1-1-3.75S56.16,107.76,57.86,107.46Z"/><g class="cls-15"><path class="cls-16" d="M62.5,110.24a3.1,3.1,0,0,1-1,1,2.25,2.25,0,0,1-1.35.28,2.71,2.71,0,0,1-.68-.17.69.69,0,0,1-.32-.18.33.33,0,0,1-.05-.42,1.35,1.35,0,0,1,.58-.41l.31-.15.16-.07.09,0h.05l.07,0a.07.07,0,0,1,0,.11h0a2.35,2.35,0,0,1-1-.07,1.43,1.43,0,0,1-.79-.6,1.85,1.85,0,0,0,1.78.55l0,0c-.21.28-.83.39-1,.71-.09.14.09.29.29.35a2.45,2.45,0,0,0,.64.18,2.19,2.19,0,0,0,1.28-.22A3.88,3.88,0,0,0,62.5,110.24Z"/><path class="cls-17" d="M61,113.86a15.29,15.29,0,0,1-.52-2.41"/><path class="cls-17" d="M59.73,113.64s-.78-1.72-.33-2.45"/><path class="cls-17" d="M58.54,113.51s-.85-2.51.74-2.37"/><path class="cls-17" d="M58.5,111.34s-.84-.54-1,.55"/><path class="cls-16" d="M57.21,111a3.73,3.73,0,0,0,.5-.79,1,1,0,0,0,.08-.88.64.64,0,0,1,.19.46,1.35,1.35,0,0,1-.11.49A1.84,1.84,0,0,1,57.21,111Z"/></g><path class="cls-6" d="M56.33,97a55,55,0,0,1,3.37,10.63s-2.08,1.44-3.27,1.13A39.31,39.31,0,0,1,52,98.87s-.49-2.38,1.17-2.74,2.66-.22,3.12.88"/><path class="cls-18" d="M60,105.65l-4.8,2.46.63,1.25s4-.22,4.53-.79S60,105.65,60,105.65Z"/><path class="cls-19" d="M51.26,87.83c.11,0,2.52-.31,3.11,3.74s1.28,9.29,1.28,11.37-.65,6.61-1.4,6.87-.62-2.23-.62-2.23L49,93.32Z"/><path class="cls-20" d="M50.93,86.21a9.07,9.07,0,0,0,2.23.54l.23,2.18-3.25-1Z"/><path class="cls-20" d="M45.39,85.51s.46-.5,2.15-.1L47.2,86.9S45.52,86,45.39,85.51Z"/><path class="cls-21" d="M46.78,82.32s.3,4.09-1.39,4.93c0,0,1.39,3.32,6.91,1.35,0,0-.89-1.23-1.1-5.14S46.78,79.63,46.78,82.32Z"/><path class="cls-22" d="M45.11,86.81a3.72,3.72,0,0,0-2.85,2.89c-.62,2.54-4.16,14-2.6,17s3.52,2.25,6.12,2.2,8.89,1.15,9.35-2.54-.7-13-2.49-17.4A9.34,9.34,0,0,0,45.11,86.81Z"/><polygon class="cls-22" points="52.25 87.08 52.64 88.94 51.4 88.96 52.25 87.08"/><path class="cls-23" d="M45.39,85.51s3.75,1.77,6.86,1.57l-.6,2.22s-6.57-1.23-7.53-2.14Z"/><circle class="cls-24" cx="52.94" cy="91.87" r="0.34"/><circle class="cls-24" cx="53.85" cy="96.12" r="0.34"/><circle class="cls-24" cx="54.34" cy="100.91" r="0.34"/><circle class="cls-24" cx="54.29" cy="105.89" r="0.34"/><path class="cls-22" d="M54.42,107.87s-1.58,3.81-4.16,4.69c-1.31.46-8.77.54-9.85-1.54s-2.54-2.85-1-8.77c0,0,7.24,5.62,7.47,5.62Z"/><path class="cls-22" d="M46.3,92.47a56.15,56.15,0,0,1-6.75,7.16s-2.5-2-3.9-2.07c0,0,4.85-7.57,6-8.5s2.76-1.56,4.44.42S46.3,92.47,46.3,92.47Z"/><path class="cls-13" d="M49.79,85.25a8,8,0,0,1-5-4.6s0-.1,0-.29a2.07,2.07,0,0,1-1.13-.24,2.15,2.15,0,0,1-.9-2.85,2.16,2.16,0,0,0,.16-.88,4.88,4.88,0,0,0-.19-1,8,8,0,0,1-.27-2.29,6.21,6.21,0,0,1,2.32-4.35,8.45,8.45,0,0,1,4.69-1.74c2.6-.17,5.15-.08,7,1.78a9.87,9.87,0,0,1,2.08,4.21,14.38,14.38,0,0,1-.45,4c-.16,1.15,0,2.85,1,3.49,0,0,.87.58.68,1.24s-2.1.42-2.1.42.26,1-.71,1.09c0,0,.29,4.17-7,2"/><path class="cls-25" d="M42.56,75.7a1.66,1.66,0,0,0-1.22,1A1.06,1.06,0,0,0,41.91,78a1.17,1.17,0,0,0,.85,2,.66.66,0,0,0,.63.57,2,2,0,0,0,.9-.2,1.34,1.34,0,0,0,1,.18.67.67,0,0,0,.51-.76c.34.12.68-.25.68-.6a1.61,1.61,0,0,0-.44-.94,1.37,1.37,0,0,0-.44-1.91,4,4,0,0,1-.8-.4c-.11-.09-.19-.21-.31-.29a.6.6,0,0,0-.63,0c-.1.07-.21.18-.32.12s-.08-.07-.12-.12-.46-.12-.7,0"/><path class="cls-26" d="M56.16,75.63a2.31,2.31,0,0,0-3.62-.56"/><circle class="cls-3" cx="54.07" cy="77.8" r="1.89" transform="matrix(0.96, -0.3, 0.3, 0.96, -20.54, 19.41)"/><g class="cls-27"><circle class="cls-28" cx="54.92" cy="78.31" r="1.3"/><circle cx="54.92" cy="78.31" r="0.8"/><circle class="cls-3" cx="54.53" cy="77.82" r="0.46"/></g><path class="cls-29" d="M55.15,81.64a4.4,4.4,0,0,0-3.72,2.6"/><path class="cls-25" d="M51.08,72.68a1.71,1.71,0,0,1,.47,1.43.89.89,0,0,1-1.18.65c.19,0,.33.21.33.41a1,1,0,0,1-.41.76,2.51,2.51,0,0,1-.79.38c-.22.06-.53.06-.57-.16.24.1.2.45.06.67a1.64,1.64,0,0,1-2.49.3A1,1,0,0,1,44.78,77a.86.86,0,0,1-.67.57,1,1,0,0,1-.84-.1.59.59,0,0,1-.18-.76.28.28,0,0,1-.38.08.63.63,0,0,1-.23-.36,1.6,1.6,0,0,1,1.24-2,.72.72,0,0,1-.14-.85,1.57,1.57,0,0,1,.67-.63,3.81,3.81,0,0,1,1-.37c.28-.06.64-.06.79.19a2.47,2.47,0,0,1,.85-1,1.23,1.23,0,0,1,1.23-.06,4.79,4.79,0,0,1,.55.46.23.23,0,0,0,.12.06.28.28,0,0,0,.17-.09l.53-.55c.2-.2.48-.42.74-.31s.29.31.49.39a.79.79,0,0,0,.43,0,.63.63,0,0,1,.43,0c.13.07.19.28.07.37"/><path class="cls-4" d="M50.66,72.86s8.22,2.58,11.19,1.06-2.7-3.07-2.7-3.07Z"/><circle class="cls-30" cx="61.52" cy="72.5" r="0.27"/><path class="cls-4" d="M41.72,76.4s5.93-3.59,17.74-5.25a3.86,3.86,0,0,0,0-2.17C59.16,67.67,58,62,52.84,62.52s-13.19,5-12.46,10.37C40.38,72.89,40.38,75.58,41.72,76.4Z"/><g class="cls-31"><path class="cls-4" d="M41.41,74.68S51.74,65,58.29,69.57l-8.55,2.89Z"/><path class="cls-32" d="M39.24,76.06s7.46-6,22.07-6.92l-1,3.37L39.37,78.63l-.14-2.28"/></g><path class="cls-33" d="M52.79,79.75a2.08,2.08,0,0,0,2.46,0"/><circle class="cls-13" cx="47.99" cy="77.72" r="2.23" transform="translate(-20.01 16.73) rotate(-16.41)"/><path class="cls-34" d="M48.2,76.12a1.68,1.68,0,0,0-1.79,1.47s-.33,1.69,1.7,1.91"/><path class="cls-5" d="M54.07,83.39s-.24,2.94,2.37.61C56.44,84,56,83.17,54.07,83.39Z"/><g class="cls-35"><path class="cls-3" d="M53.78,83.28a2.17,2.17,0,0,0,1.47.94,1.79,1.79,0,0,0,1.63-.41l-1.51-1Z"/><path class="cls-36" d="M53.89,84.14s.76-.15,1.46,1H54Z"/></g><path d="M57.67,81.7a1.85,1.85,0,0,0-2.41.31c-1.26,1.18-2.33-.46-2.33-.46S52.8,84,56,84.05a3.74,3.74,0,0,0,1.51-.39C58.76,83,57.67,81.7,57.67,81.7Z"/><path class="cls-2" d="M30.55,112.7a.82.82,0,0,1-.91-.8s-.9,0-.78-1.06a1,1,0,0,1-.41-1.2A5.55,5.55,0,0,1,30,107s.73-1.31,2.68-.41a1.82,1.82,0,0,1,1.14,2.5s.48,2.61-1.07,3.41a3,3,0,0,1-.27.35S31.85,114.18,30.55,112.7Z"/><path class="cls-22" d="M40.29,99.22a54.45,54.45,0,0,1-6.7,8.9s-2.39-.86-2.83-2A39.3,39.3,0,0,1,36.3,96.8S38,95,39.2,96.17s1.73,2,1.09,3"/><path class="cls-37" d="M35.36,107.19l-4.79-2.49-.65,1.24s2.48,3.12,3.27,3.23S35.36,107.19,35.36,107.19Z"/></g></svg>