<svg xmlns="http://www.w3.org/2000/svg" xmlns:xlink="http://www.w3.org/1999/xlink" viewBox="0 0 260 168"><defs><style>.cls-1{fill:#4bb21b;}.cls-2{fill:#fff;}.cls-3{fill:#472813;}.cls-4{fill:#111;}.cls-5{fill:#895e3c;}.cls-6{fill:#227fef;}.cls-7{fill:#0461bc;}.cls-8{fill:#303030;}.cls-9{fill:#9b633d;}.cls-10{clip-path:url(#clip-path);}.cls-11{fill:#2a6805;}.cls-12{fill:#c5db21;}.cls-13{fill:#383838;}.cls-14{fill:#a86f47;}.cls-15{clip-path:url(#clip-path-2);}.cls-16{fill:#1972dd;}.cls-17{fill:#2e83ff;}.cls-18{fill:#126cc6;}.cls-19{fill:#05a;}.cls-20{fill:#603913;}.cls-21,.cls-24,.cls-25,.cls-26{fill:none;stroke-linecap:round;stroke-linejoin:round;}.cls-21{stroke:#28190a;stroke-width:0.83px;}.cls-22{clip-path:url(#clip-path-3);}.cls-23{fill:#4f3615;}.cls-24,.cls-25,.cls-26{stroke:#4f3615;opacity:0.25;}.cls-24{stroke-width:0.32px;}.cls-25{stroke-width:0.35px;}.cls-26{stroke-width:0.71px;}.cls-27{clip-path:url(#clip-path-4);}.cls-28{fill:#ff5050;}.cls-29{fill:#6d6d6d;}.cls-30{clip-path:url(#clip-path-5);}.cls-31{fill:#ffce00;}.cls-32{fill:#247eea;}</style><clipPath id="clip-path"><path class="cls-1" d="M66.9,89.31s-1.31,0-2.28,4c0,0-.85,2.91,0,3.78a4.09,4.09,0,0,0-2.8,2.23c-.72,1.82-3,5.87-7,3.39,0,0-1.81-1.1-.66-3.55s3.92-9.66,4.52-10.81S60.52,85,62.4,86.11,66.15,89,66.9,89.31Z"/></clipPath><clipPath id="clip-path-2"><path class="cls-1" d="M83.78,123s-.33,1.26,3.33,3.1c0,0,2.65,1.48,3.69.85a4.08,4.08,0,0,0,1.55,3.23c1.61,1.1,5,4.27,1.73,7.59,0,0-1.47,1.52-3.61-.16s-8.53-6-9.52-6.81-2.82-2.56-1.3-4.13S83.29,123.62,83.78,123Z"/></clipPath><clipPath id="clip-path-3"><circle class="cls-2" cx="141.13" cy="62.05" r="2.88"/></clipPath><clipPath id="clip-path-4"><path class="cls-3" d="M137.7,70.21s-1.92-.28-2.62.74,2,1.3,3.13.48S137.7,70.21,137.7,70.21Z"/></clipPath><clipPath id="clip-path-5"><path class="cls-4" d="M145.72,38.47s6.65,8.19,11.63,25.65a5.79,5.79,0,0,0,3.27-.42c1.91-.75,10.16-3.65,8.36-11.36S158.64,33.5,150.73,35.71C150.73,35.71,146.67,36.27,145.72,38.47Z"/></clipPath></defs><g id="Layer_3" data-name="Layer 3"><path class="cls-5" d="M127.6,102.75a9.13,9.13,0,0,0,1.54.47l2.45.6a1.93,1.93,0,0,0,1.65-.11,1.32,1.32,0,0,0,.23-1.52,4.64,4.64,0,0,0-1-1.27,14.4,14.4,0,0,1-2-2.55,2.4,2.4,0,0,0,1.62.39c.72-.75-1-1.24-1.69-1.62l-1.45-.77c-1.67-.89-4.92-1.47-5.17,1.34C123.6,99.58,126.06,102.07,127.6,102.75Z"/><path class="cls-5" d="M148.14,75.46c.07-.26.08-.6-.16-.75a.55.55,0,0,0-.26-.06c-.5,0-.88.44-1.26.76s-1,.54-1.35.18c.5-1.51,2.12-2.26,3.55-2.94.38-.18.82-.48.74-.89s-.71-.53-1.17-.45A11.86,11.86,0,0,0,143,74.13a7.35,7.35,0,0,0-1.71,1.81c-1,1.6-.17,4.14,2,3.72C145.09,79.3,147.65,77.23,148.14,75.46Z"/><path class="cls-6" d="M123.21,70.42s7.19,11.93,8,13.24-3.1,4.36-5.31,4.19-10.5-12.42-10.5-12.42S115.74,67.23,123.21,70.42Z"/><path class="cls-7" d="M125.94,67a13.8,13.8,0,0,0,2.22,2.71l-1.73,2.86-3.08-4.14Z"/><path class="cls-8" d="M106,94.77s-.88-8-7-8.36S83,92.71,80,95.58s1.39,8.09,4.13,7.85S95.57,103.3,106,94.77Z"/><path class="cls-9" d="M74,91.07s-6.32-1.1-7.83-2.14-4.6-4.47-6.19-1.68S56,96.2,54.49,99.5s3.3,4.93,5.95,2,.1-7,9.16-3.11l5.55-2.85Z"/><path class="cls-8" d="M83.89,93.3s-12.78-4.61-17.16-4.13c0,0-3.88,3.76-2.64,10.62,0,0,9.24,5.43,23.26,3.37C87.35,103.16,90.89,97.05,83.89,93.3Z"/><path class="cls-1" d="M66.9,89.31s-1.31,0-2.28,4c0,0-.85,2.91,0,3.78a4.09,4.09,0,0,0-2.8,2.23c-.72,1.82-3,5.87-7,3.39,0,0-1.81-1.1-.66-3.55s3.92-9.66,4.52-10.81S60.52,85,62.4,86.11,66.15,89,66.9,89.31Z"/><g class="cls-10"><path class="cls-11" d="M62,85.09S60.21,86.72,58.48,91s-3.73,8.82-3.85,9.9a2.14,2.14,0,0,0,1,2.21l-.64.21-2.52-1.83.93-5.27,6.13-11.58a7.33,7.33,0,0,1,1.62,0C61.19,84.74,62,85.09,62,85.09Z"/></g><path class="cls-12" d="M64.62,97s.25-.44-.31-2.34-2.33.55-2.33.55l.84,2.65Z"/><path class="cls-12" d="M61.47,96.18a10.57,10.57,0,0,1,.89,2.15l-.46.77a17.52,17.52,0,0,0-1.08-1.87Z"/><path class="cls-13" d="M103.35,83.31S95.62,81.17,93,86.71s-.08,17.18,1.49,21,8,1.71,8.82-.93S107.4,96.13,103.35,83.31Z"/><path class="cls-14" d="M87.07,116.49s-2.5,5.91-3.84,7.15-5.38,3.49-3,5.66,7.85,5.79,10.72,8,5.54-2.12,3.33-5.34-6.81-1.67-1-9.62l-1.53-6Z"/><path class="cls-13" d="M93.33,105s-8.81,10.35-9.89,14.62c0,0,2.15,4.95,9,6.19,0,0,8.32-6.74,11.32-20.59C103.78,105.22,99.3,99.76,93.33,105Z"/><path class="cls-1" d="M83.78,123s-.33,1.26,3.33,3.1c0,0,2.65,1.48,3.69.85a4.08,4.08,0,0,0,1.55,3.23c1.61,1.1,5,4.27,1.73,7.59,0,0-1.47,1.52-3.61-.16s-8.53-6-9.52-6.81-2.82-2.56-1.3-4.13S83.29,123.62,83.78,123Z"/><g class="cls-15"><path class="cls-11" d="M78.55,126.83s1.2,2.08,5,4.72,7.77,5.62,8.79,6a2.17,2.17,0,0,0,2.39-.53l.06.67-2.34,2-4.93-2.08-9.91-8.56a7.21,7.21,0,0,1,.32-1.6C78,127.51,78.55,126.83,78.55,126.83Z"/></g><path class="cls-12" d="M90.8,126.92s-.37-.35-2.36-.23,0,2.4,0,2.4l2.77-.22Z"/><path class="cls-12" d="M89.25,129.79a11.13,11.13,0,0,1,2.3-.39l.64.63a18.74,18.74,0,0,0-2.06.63Z"/><path class="cls-16" d="M125.5,70.09c.09.13,3.1,2.29-.5,7.39s-8.31,11.61-10.49,13.91-7.66,6.62-8.75,6.12,1.64-3.12,1.64-3.12l9.82-20.63Z"/><path class="cls-7" d="M121.44,61.37s1-.06,2.47,2.14L122,64.8S121.07,62.05,121.44,61.37Z"/><path class="cls-5" d="M126.31,59.31s-4,4.82-6.69,4c0,0-2,5.13,6.21,8.72,0,0,.31-2.28,4.18-6.82S129.14,56.33,126.31,59.31Z"/><path class="cls-17" d="M119.76,62.51a5.67,5.67,0,0,0-6.17.21c-3.35,2.16-19.31,11.15-20.67,16s1.53,6.18,4.46,8.84,8.61,10.59,13,7,12.87-15.13,15.48-21.82A14.29,14.29,0,0,0,119.76,62.51Z"/><polygon class="cls-17" points="127.37 70.3 125.85 72.77 124.46 71.49 127.37 70.3"/><path class="cls-18" d="M121.44,61.37s2.28,5.88,5.93,8.93l-3,1.82s-6-8.24-6.07-10.25Z"/><circle class="cls-19" cx="123.11" cy="76.32" r="0.51"/><circle class="cls-19" cx="119.66" cy="81.97" r="0.51"/><circle class="cls-19" cx="115.19" cy="87.77" r="0.51"/><circle class="cls-19" cx="109.91" cy="93.22" r="0.51"/><path class="cls-17" d="M108,95.54s-5.73,2.55-9.51.83c-1.93-.88-10.26-8.6-9.27-12s.18-5.81,8.09-10.74c0,0,2.1,13.79,2.36,14Z"/><path class="cls-14" d="M128.93,66.8c-1.82-2.91-2.71-6.94-1.5-10.21,0,0,.07-.14.22-.39a3.25,3.25,0,0,1-1.11-1.36c-.81-1.84.18-3.27,1.66-4.23a3.76,3.76,0,0,0,1-.9,7.93,7.93,0,0,0,.68-1.31,12.36,12.36,0,0,1,1.86-3,9.39,9.39,0,0,1,6.91-2.93,12.66,12.66,0,0,1,7.22,2.41c3.25,2.28,6.19,4.82,6.57,8.78a15,15,0,0,1-1.55,7c-1,1.72-2.89,2.92-4.32,4.26s-2.72,3.39-2.17,5.08c0,0,.48,1.51-.39,2.12s-2.88-1.51-2.88-1.51-.66,1.46-1.89.61c0,0-3.64,5.22-10.25-4.35"/><path class="cls-20" d="M129.49,48.56a2.52,2.52,0,0,0-2.37,0,1.62,1.62,0,0,0-.6,2.14,1.77,1.77,0,0,0-.93,3.2,1,1,0,0,0,.21,1.28,2.91,2.91,0,0,0,1.26.61,2.07,2.07,0,0,0,1,1.15,1,1,0,0,0,1.33-.41c.28.46,1,.35,1.37-.07a2.42,2.42,0,0,0,.38-1.53,2.09,2.09,0,0,0,1.31-2.68,6.6,6.6,0,0,1-.57-1.24c0-.21,0-.44-.09-.65a.88.88,0,0,0-.75-.59c-.18,0-.42,0-.5-.17a.71.71,0,0,1,0-.25c0-.38-.43-.59-.77-.73"/><path class="cls-21" d="M146.82,60.09s-2,1.6-4.9-2.74"/><circle class="cls-2" cx="141.13" cy="62.05" r="2.88"/><g class="cls-22"><circle class="cls-23" cx="141.44" cy="63.42" r="1.98"/><circle cx="141.44" cy="63.42" r="1.22"/><circle class="cls-2" cx="141.45" cy="62.46" r="0.7"/></g><path class="cls-24" d="M138.74,67.65a6.69,6.69,0,0,0-6.9-.48"/><path class="cls-20" d="M142.47,53.13a2.57,2.57,0,0,1-.8,2.14,1.37,1.37,0,0,1-2-.35c.26.15.2.56,0,.8a1.56,1.56,0,0,1-1.2.51,3.75,3.75,0,0,1-1.31-.31c-.31-.13-.68-.43-.52-.73.19.34-.2.72-.57.84a2.47,2.47,0,0,1-3.24-2,1.65,1.65,0,0,1-1.44-.39,1.6,1.6,0,0,1-.47-1.41,1.35,1.35,0,0,1-1.35,0,1.52,1.52,0,0,1-.88-.93.87.87,0,0,1,.51-1.07.43.43,0,0,1-.53-.27.93.93,0,0,1,.07-.65A2.44,2.44,0,0,1,130.14,48a2.49,2.49,0,0,1,2,.15,1.07,1.07,0,0,1,.65-1.14,2.28,2.28,0,0,1,1.39-.11,6,6,0,0,1,1.5.49c.4.2.83.54.77,1a3.71,3.71,0,0,1,1.91-.33,1.91,1.91,0,0,1,1.52,1.11,7.5,7.5,0,0,1,.21,1.07.42.42,0,0,0,.09.19.39.39,0,0,0,.28,0l1.16-.14c.43,0,1,0,1.17.34s0,.65.21.92a1.12,1.12,0,0,0,.53.4,1,1,0,0,1,.5.43c.09.2,0,.5-.27.49"/><path class="cls-25" d="M137.75,63.15a3.15,3.15,0,0,0,2.91,2.34"/><circle class="cls-14" cx="134" cy="56.15" r="3.4"/><path class="cls-26" d="M135.77,54.46a2.56,2.56,0,0,0-3.53,0s-2,1.68.19,3.89"/><path class="cls-3" d="M137.7,70.21s-1.92-.28-2.62.74,2,1.3,3.13.48S137.7,70.21,137.7,70.21Z"/><g class="cls-27"><ellipse class="cls-28" cx="134.76" cy="72.31" rx="2.22" ry="1.33" transform="translate(44.92 196.08) rotate(-82.24)"/><ellipse class="cls-2" cx="138.5" cy="70.34" rx="1.33" ry="2.22" transform="translate(11.79 160.21) rotate(-62.27)"/></g><path d="M141.66,70.12a2.79,2.79,0,0,0-3.14-1.93c-2.62.2-2.33-2.78-2.33-2.78s-2.54,2.83,1.3,5.94a5.6,5.6,0,0,0,2.16,1C141.71,72.72,141.66,70.12,141.66,70.12Z"/><path class="cls-20" d="M133.55,42.56c.44-.18.89-.32,1.33-.52s.78-.41,1.19-.55a5.72,5.72,0,0,1,2.26-.15l5,.34a11.47,11.47,0,0,1,2.33.32,9.23,9.23,0,0,1,4.41,3.21,21.09,21.09,0,0,1,4.3,8.55,8.21,8.21,0,0,1,.19,3.78,3.72,3.72,0,0,1-2.37,2.76,3,3,0,0,1-3.65-3,4.13,4.13,0,0,1-4.24-4,4.24,4.24,0,0,1-3.65-.32A8.24,8.24,0,0,1,138,50.42a1.61,1.61,0,0,0-.58-.58,1.68,1.68,0,0,0-1.19.15c-1.69.64-7,1.06-7.34-1.44S131.63,43.36,133.55,42.56Z"/><path class="cls-4" d="M152.93,51.22s-2.17,12.94.74,17.1,4.06-4.72,4.06-4.72Z"/><circle class="cls-29" cx="155.75" cy="67.52" r="0.4"/><path class="cls-4" d="M145.72,38.47s6.65,8.19,11.63,25.65a5.79,5.79,0,0,0,3.27-.42c1.91-.75,10.16-3.65,8.36-11.36S158.64,33.5,150.73,35.71C150.73,35.71,146.67,36.27,145.72,38.47Z"/><g class="cls-30"><path class="cls-4" d="M148.24,37.64S164.94,51.2,159.49,62l-6.15-12.3Z"/><path class="cls-31" d="M145.71,34.67s10.55,10,15.06,31.83l-5.3-.83L141.85,35.4l3.41-.7"/></g><path class="cls-6" d="M125.51,82.88a83.21,83.21,0,0,1,15.42-7.1s2.58,2.88,2.33,4.74A60,60,0,0,1,129.12,89s-3.49,1.19-4.35-1.25-.84-4,.74-4.88"/><path class="cls-6" d="M137.89,75.75l4.62,6.8,1.76-1.2s-1.07-6-2.05-6.69S137.89,75.75,137.89,75.75Z"/><path class="cls-17" d="M120.41,70.63a86.59,86.59,0,0,1-1,15s-5.34-2.28-7-1c0,0-1.21-11.3-.73-13.53s1.73-4.5,5.61-3.81S120.41,70.63,120.41,70.63Z"/><path class="cls-17" d="M117.35,81.36a82.8,82.8,0,0,1,9.9,13.79s-2.33,3.08-4.2,3.19a59.84,59.84,0,0,1-11-12.27s-1.83-3.2.4-4.51,3.75-1.58,4.93-.2"/><path class="cls-32" d="M126.71,92.15,120.91,98l1.51,1.51s5.65-2.19,6.18-3.29S126.71,92.15,126.71,92.15Z"/></g></svg>