<svg xmlns="http://www.w3.org/2000/svg" xmlns:xlink="http://www.w3.org/1999/xlink" viewBox="0 0 260 168"><defs><style>.cls-1{fill:#4bb21b;}.cls-2{fill:#fff;}.cls-3{fill:#111;}.cls-4{fill:#472813;}.cls-5{fill:#99623d;}.cls-6{fill:#227fef;}.cls-7{fill:#303030;}.cls-8{fill:#9b633d;}.cls-9{clip-path:url(#clip-path);}.cls-10{fill:#2a6805;}.cls-11{fill:#c5db21;}.cls-12{fill:#383838;}.cls-13{fill:#a86f47;}.cls-14{clip-path:url(#clip-path-2);}.cls-15{fill:#177ce0;}.cls-16{fill:#1972dd;}.cls-17{fill:#0461bc;}.cls-18{fill:#895e3c;}.cls-19{fill:#2e83ff;}.cls-20{fill:#126cc6;}.cls-21{fill:#05a;}.cls-22{fill:#603913;}.cls-23,.cls-26,.cls-30,.cls-31{fill:none;stroke-linecap:round;stroke-linejoin:round;}.cls-23{stroke:#28190a;stroke-width:0.78px;}.cls-24{clip-path:url(#clip-path-3);}.cls-25{fill:#4f3615;}.cls-26,.cls-30,.cls-31{stroke:#4f3615;opacity:0.25;}.cls-26{stroke-width:0.3px;}.cls-27{fill:#6d6d6d;}.cls-28{clip-path:url(#clip-path-4);}.cls-29{fill:#ffce00;}.cls-30{stroke-width:0.33px;}.cls-31{stroke-width:0.66px;}.cls-32{clip-path:url(#clip-path-5);}.cls-33{fill:#ff5050;}.cls-34{fill:#247eea;}</style><clipPath id="clip-path"><path class="cls-1" d="M132.44,109.5s-.69-1-4.23.47c0,0-2.67,1-2.85,2.09a3.8,3.8,0,0,0-3.23-.87c-1.77.46-6.11,1-6.44-3.41,0,0-.18-2,2.32-2.46s9.44-2.39,10.64-2.59,3.53-.43,3.72,1.61S132.28,108.75,132.44,109.5Z"/></clipPath><clipPath id="clip-path-2"><path class="cls-1" d="M119,115.46s-1.13-.46-3.3,2.7c0,0-1.71,2.26-1.26,3.3a3.83,3.83,0,0,0-3.19,1c-1.23,1.35-4.6,4.11-7.25.63,0,0-1.22-1.56.61-3.32s6.62-7.14,7.52-8,2.73-2.29,4-.68S118.46,114.92,119,115.46Z"/></clipPath><clipPath id="clip-path-3"><circle class="cls-2" cx="194.34" cy="129.75" r="2.69"/></clipPath><clipPath id="clip-path-4"><path class="cls-3" d="M247.31,128.47s-9.8,1.09-26.05-3.83a5.48,5.48,0,0,0-1.33,2.79c-.37,1.89-2.26,9.84,4.71,12.32s20.05,1.4,22.31-5.94C247,133.81,248.56,130.33,247.31,128.47Z"/></clipPath><clipPath id="clip-path-5"><path class="cls-4" d="M189.54,136.1s-2.79,3.14,2.17,2.73C191.71,138.83,192,137.55,189.54,136.1Z"/></clipPath></defs><g id="Layer_7" data-name="Layer 7"><path class="cls-5" d="M198.69,134.42s3.67.6,5.32,1a19.42,19.42,0,0,1,4.67,1.93c.33.31,0,1.39-2.66.92a27.26,27.26,0,0,1-3.26-.68s.1.35,1.12.65,1.75,2.32-5.63.15C198.25,138.39,197.09,135.88,198.69,134.42Z"/><path class="cls-6" d="M169.93,127.84s7.21,1.94,12,5.66a5.9,5.9,0,0,1-.53,5.21s-7.32,1-13.63-2.76S165.31,127.05,169.93,127.84Z"/><path class="cls-7" d="M152.91,139.29s4.64-5.89.81-10.17-14.78-6.29-18.62-6.32-4.39,6.3-2.4,7.94S140.38,138.14,152.91,139.29Z"/><path class="cls-8" d="M135,115.78s-2.67-5.37-2.71-7.08.81-5.94-2.17-5.59-8.9,2-12.24,2.68-1.89,5.22,1.74,5.62,5.35-3.81,7.43,5.17l5.22,2.61Z"/><path class="cls-7" d="M138.85,124.51s-3.6-12.19-6.4-15.22c0,0-5-.84-9.45,3.89,0,0,1,10,10.33,19.39C133.33,132.57,139.9,131.85,138.85,124.51Z"/><path class="cls-1" d="M132.44,109.5s-.69-1-4.23.47c0,0-2.67,1-2.85,2.09a3.8,3.8,0,0,0-3.23-.87c-1.77.46-6.11,1-6.44-3.41,0,0-.18-2,2.32-2.46s9.44-2.39,10.64-2.59,3.53-.43,3.72,1.61S132.28,108.75,132.44,109.5Z"/><g class="cls-9"><path class="cls-10" d="M132.9,103.44a16.28,16.28,0,0,0-6.4.66c-4.19,1.08-8.72,2.07-9.6,2.58a2,2,0,0,0-1.08,2l-.51-.36,0-2.91,4.49-2.22,12.11-1.79s1,1.14.94,1.2S132.9,103.44,132.9,103.44Z"/></g><path class="cls-11" d="M125.36,112.06s.47,0,1.6-1.53-1.71-1.45-1.71-1.45l-1.53,2.09Z"/><path class="cls-11" d="M124.27,109.21a9.89,9.89,0,0,1-1.13,1.86l-.84.08a17.33,17.33,0,0,0,.81-1.85Z"/><path class="cls-12" d="M153.26,134s.91-7.44-4.59-9.12-15.9,2.3-19.2,4.28-.47,7.66,2.08,8S142,139.55,153.26,134Z"/><path class="cls-13" d="M124.59,119.34s-5.16-3.07-6.13-4.47-2.55-5.43-4.86-3.52-6.37,6.53-8.82,8.9,1.25,5.4,4.52,3.77,2.42-6.1,9,.31l5.8-.65Z"/><path class="cls-12" d="M134.43,126.61s-8.46-9.48-12.28-11c0,0-4.86,1.36-6.89,7.56,0,0,5.19,8.57,17.63,13.12C132.89,136.26,138.52,132.8,134.43,126.61Z"/><path class="cls-1" d="M119,115.46s-1.13-.46-3.3,2.7c0,0-1.71,2.26-1.26,3.3a3.83,3.83,0,0,0-3.19,1c-1.23,1.35-4.6,4.11-7.25.63,0,0-1.22-1.56.61-3.32s6.62-7.14,7.52-8,2.73-2.29,4-.68S118.46,114.92,119,115.46Z"/><g class="cls-14"><path class="cls-10" d="M116.1,110.13a16.22,16.22,0,0,0-5,4c-2.93,3.18-6.19,6.48-6.65,7.38a2,2,0,0,0,.18,2.28l-.62,0-1.6-2.44,2.56-4.29,9.2-8.09s1.48.39,1.43.5S116.1,110.13,116.1,110.13Z"/></g><path class="cls-11" d="M114.45,121.46s.37-.3.51-2.15-2.23-.29-2.23-.29l-.14,2.59Z"/><path class="cls-11" d="M112,119.66a10.37,10.37,0,0,1,.06,2.18l-.66.52a17.88,17.88,0,0,0-.32-2Z"/><path class="cls-6" d="M182.48,133.22a78,78,0,0,1,15.85.78s.9,3.5-.12,4.93a55.79,55.79,0,0,1-15.39.93s-3.41-.52-3.07-2.91,1-3.67,2.73-3.73"/><path class="cls-15" d="M195.82,132.65l.89,7.64,2-.23s1.68-5.41,1.18-6.44S195.82,132.65,195.82,132.65Z"/><path class="cls-16" d="M177.29,135.87c0,.15.29,3.6-5.51,4.2s-13.29,1.27-16.25,1.14-9.37-1.32-9.69-2.39,3.2-.77,3.2-.77l20.58-5.75Z"/><path class="cls-17" d="M179.61,135.5a12.89,12.89,0,0,0-.9,3.14l-3.11.2,1.54-4.58Z"/><path class="cls-17" d="M180.94,127.65s.68.69,0,3.06l-2.1-.56S180.23,127.81,180.94,127.65Z"/><path class="cls-18" d="M185.39,129.82s-5.83.18-6.92-2.27c0,0-4.82,1.78-2.33,9.74,0,0,1.79-1.18,7.37-1.25S189.22,130,185.39,129.82Z"/><path class="cls-19" d="M179.1,127.17a5.3,5.3,0,0,0-3.94-4.22c-3.57-1-19.72-6.75-24-4.71s-3.42,4.87-3.49,8.57-2.17,12.58,3.06,13.46,18.57-.23,24.89-2.5A13.33,13.33,0,0,0,179.1,127.17Z"/><polygon class="cls-19" points="178.3 137.32 175.62 137.77 175.67 136 178.3 137.32"/><path class="cls-20" d="M180.94,127.65s-2.74,5.23-2.64,9.67l-3.13-1s2.14-9.27,3.49-10.58Z"/><circle class="cls-21" cx="171.43" cy="138.01" r="0.48"/><circle class="cls-21" cx="165.34" cy="139.06" r="0.48"/><circle class="cls-21" cx="158.5" cy="139.47" r="0.48"/><circle class="cls-21" cx="151.41" cy="139.1" r="0.48"/><path class="cls-19" d="M148.59,139.17s-5.32-2.47-6.43-6.2c-.56-1.9-.24-12.51,2.78-13.92s4.2-3.45,12.54-.9c0,0-8.42,10-8.44,10.29Z"/><path class="cls-5" d="M196,138a52.34,52.34,0,0,1,9.36,1.5s2.65.58,2.83,1.44-4.8.87-5.26.75-6.75.35-7.33-.34S193.28,139.19,196,138Z"/><path class="cls-13" d="M183.08,134.54c-1.79-2.66-2.73-6.4-1.7-9.5,0,0,.06-.13.19-.37a3,3,0,0,1-1.08-1.24c-.8-1.69.08-3.06,1.44-4a3.37,3.37,0,0,0,.94-.87,8.05,8.05,0,0,0,.6-1.24,11,11,0,0,1,1.65-2.83,8.81,8.81,0,0,1,6.37-2.95,11.84,11.84,0,0,1,6.81,2c3.11,2,5.93,4.33,6.41,8a14.15,14.15,0,0,1-1.24,6.58c-.89,1.63-2.63,2.81-3.92,4.11s-2.44,3.24-1.88,4.81c0,0,.49,1.39-.3,2s-2.74-1.33-2.74-1.33-.58,1.38-1.74.63c0,0-3.26,5-9.71-3.76"/><path class="cls-22" d="M183.07,117.48a2.36,2.36,0,0,0-2.22,0,1.49,1.49,0,0,0-.49,2,1.66,1.66,0,0,0-.78,3,1,1,0,0,0,.23,1.18,2.73,2.73,0,0,0,1.2.54,2,2,0,0,0,1,1,1,1,0,0,0,1.23-.43.83.83,0,0,0,1.28-.1,2.29,2.29,0,0,0,.31-1.44,2,2,0,0,0,1.14-2.54,6.48,6.48,0,0,1-.57-1.15,4,4,0,0,0-.1-.6.82.82,0,0,0-.71-.54c-.18,0-.4,0-.48-.14a.85.85,0,0,1,0-.23c0-.35-.41-.54-.74-.67"/><path class="cls-23" d="M199.2,127.28a6.8,6.8,0,0,1-4.25-2"/><circle class="cls-2" cx="194.34" cy="129.75" r="2.69"/><g class="cls-24"><circle class="cls-25" cx="195.63" cy="129.98" r="1.85"/><circle cx="195.63" cy="129.98" r="1.14"/><circle class="cls-2" cx="195.61" cy="129.08" r="0.65"/></g><path class="cls-26" d="M192.27,135.05a6.24,6.24,0,0,0-6.45-.24"/><path class="cls-22" d="M195.34,121.36a2.44,2.44,0,0,1-.69,2,1.28,1.28,0,0,1-1.91-.27c.25.14.2.52,0,.75a1.46,1.46,0,0,1-1.11.51,3.52,3.52,0,0,1-1.24-.25c-.29-.11-.65-.38-.5-.66.19.31-.17.68-.51.8a2.33,2.33,0,0,1-3.09-1.79,1.5,1.5,0,0,1-1.35-.32,1.52,1.52,0,0,1-.49-1.3,1.24,1.24,0,0,1-1.25.07,1.43,1.43,0,0,1-.86-.84.83.83,0,0,1,.45-1,.38.38,0,0,1-.5-.23.83.83,0,0,1,0-.6,2.3,2.3,0,0,1,1.3-1.33,2.34,2.34,0,0,1,1.85.08,1,1,0,0,1,.58-1.09,2.13,2.13,0,0,1,1.3-.13,5.42,5.42,0,0,1,1.41.41c.38.17.79.48.74.89a3.48,3.48,0,0,1,1.78-.36,1.8,1.8,0,0,1,1.46,1,6.86,6.86,0,0,1,.22,1,.32.32,0,0,0,.1.18.38.38,0,0,0,.26,0l1.08-.16c.4,0,.9-.07,1.1.28s.07.61.22.86a1,1,0,0,0,.51.35.93.93,0,0,1,.48.39c.09.19,0,.47-.24.47"/><path class="cls-3" d="M233.64,127.7s-9.08-8.25-13.82-8.07,1.66,5.59,1.66,5.59Z"/><circle class="cls-27" cx="219.39" cy="121.67" r="0.38"/><path class="cls-3" d="M247.31,128.47s-9.8,1.09-26.05-3.83a5.48,5.48,0,0,0-1.33,2.79c-.37,1.89-2.26,9.84,4.71,12.32s20.05,1.4,22.31-5.94C247,133.81,248.56,130.33,247.31,128.47Z"/><g class="cls-28"><path class="cls-3" d="M246.7,130.87s-19.12,6.28-24.88-3.48l12.78,1.38Z"/><path class="cls-29" d="M250.31,130.38s-13.2,3.24-32.65-4.25l3.33-3.74,30.7,4.59-1.18,3"/></g><path class="cls-30" d="M191.22,130.87A3,3,0,0,0,194,133"/><circle class="cls-13" cx="187.51" cy="124.44" r="3.18" transform="translate(-35.52 154.53) rotate(-41.25)"/><path class="cls-31" d="M189.11,122.8a2.41,2.41,0,0,0-3.3.14s-1.82,1.63.29,3.63"/><path class="cls-4" d="M189.54,136.1s-2.79,3.14,2.17,2.73C191.71,138.83,192,137.55,189.54,136.1Z"/><g class="cls-32"><path class="cls-2" d="M189.3,135.73a3,3,0,0,0,.88,2.32,2.49,2.49,0,0,0,2.2.93l-.91-2.37Z"/><path class="cls-33" d="M188.69,136.8s1,.48.76,2.44l-1.53-1.16Z"/></g><path class="cls-22" d="M195.08,137.27a2.63,2.63,0,0,0-3-1.71c-2.44.26-2.26-2.53-2.26-2.53s-2.28,2.72,1.39,5.52a5.27,5.27,0,0,0,2.06.85C195.2,139.7,195.08,137.27,195.08,137.27Z"/><path class="cls-22" d="M199.08,121.32a4.46,4.46,0,0,0,4.67,2.33,1.81,1.81,0,0,0,.33,2.54,2.21,2.21,0,0,0,2.67-.15,2.82,2.82,0,0,0,.85-2.63,5.27,5.27,0,0,0,4.3-.84c1.15-1,1.43-3,.25-3.95a3,3,0,0,1-.72-.59,2.22,2.22,0,0,1-.27-1,4.93,4.93,0,0,0-2.67-3.67,4.64,4.64,0,0,1-1.08-.57,5.31,5.31,0,0,1-.87-1.17,3.82,3.82,0,0,0-3.9-1.44,5.5,5.5,0,0,0-3.19-2.56c-1.64-.5-3.42-.19-5.11-.5a20.18,20.18,0,0,0-2-.39,5.56,5.56,0,0,0-4.39,2,10.84,10.84,0,0,1-1,1c-.67.52-1.55.72-2.2,1.27a2.67,2.67,0,0,0-.67,3.06c-1.29.28-1.66,2.16-.85,3.21a4,4,0,0,0,3.59,1.23,3.47,3.47,0,0,0,4.29.42c-.33.23,1.28,1.33,1.45,1.4.71.27,1.39,0,2.07.15C196.24,120.94,197.21,122.34,199.08,121.32Z"/><path class="cls-19" d="M176,125.29a80.27,80.27,0,0,1,8,11.52s-5.24,1.45-5.69,3.39c0,0-7.47-7.55-8.42-9.47s-1.36-4.3,1.89-6S176,125.29,176,125.29Z"/><path class="cls-19" d="M180.71,134.57a78.18,78.18,0,0,1,15.65,2.61s.49,3.58-.68,4.89a56.06,56.06,0,0,1-15.4-.86s-3.33-.92-2.71-3.26,1.44-3.52,3.14-3.38"/><path class="cls-34" d="M194,135.55v7.69h2s2.29-5.18,1.92-6.26S194,135.55,194,135.55Z"/></g></svg>