<svg xmlns="http://www.w3.org/2000/svg" xmlns:xlink="http://www.w3.org/1999/xlink" viewBox="0 0 260 168"><defs><style>.cls-1{fill:#4bb21b;}.cls-2{fill:#a86f47;}.cls-3{clip-path:url(#clip-path);}.cls-4{fill:#2a6805;}</style><clipPath id="clip-path"><path class="cls-1" d="M-18.72,143.86s1.13.9,4.64-2c0,0,2.69-2,2.52-3.34a4.49,4.49,0,0,0,4-.11c1.84-1.13,6.59-3.15,8.44,1.68,0,0,.88,2.17-1.78,3.57s-9.89,5.92-11.18,6.54-3.85,1.7-4.76-.55S-18.28,144.65-18.72,143.86Z"/></clipPath></defs><g id="Layer_1" data-name="Layer 1"><path class="cls-2" d="M-23.78,137.61s4.85,5.19,5.49,7.11,1.1,7,4.35,5.6,9.4-5.32,13-7.2.37-6.55-3.89-5.77S-9.63,143.47-15,134l-6.8-1.18Z"/><path class="cls-1" d="M-18.72,143.86s1.13.9,4.64-2c0,0,2.69-2,2.52-3.34a4.49,4.49,0,0,0,4-.11c1.84-1.13,6.59-3.15,8.44,1.68,0,0,.88,2.17-1.78,3.57s-9.89,5.92-11.18,6.54-3.85,1.7-4.76-.55S-18.28,144.65-18.72,143.86Z"/><g class="cls-3"><path class="cls-4" d="M-17.18,150.87s2.64-.27,7-2.91,9.18-5.31,10-6.18a2.38,2.38,0,0,0,.54-2.65l.7.24,1,3.29-4.33,4-13.12,6.15s-1.55-.94-1.46-1S-17.18,150.87-17.18,150.87Z"/></g></g></svg>