<svg xmlns="http://www.w3.org/2000/svg" xmlns:xlink="http://www.w3.org/1999/xlink" viewBox="0 0 260 168"><defs><style>.cls-1{fill:#4bb21b;}.cls-2{fill:#99623d;}.cls-3{fill:#fff;}.cls-4{fill:#111;}.cls-5{fill:#472813;}.cls-6{fill:#227fef;}.cls-7{fill:#303030;}.cls-8{fill:#9b633d;}.cls-9{clip-path:url(#clip-path);}.cls-10{fill:#2a6805;}.cls-11{fill:#c5db21;}.cls-12{fill:#383838;}.cls-13{fill:#a86f47;}.cls-14{clip-path:url(#clip-path-2);}.cls-15{clip-path:url(#clip-path-3);}.cls-16{fill:#77492a;}.cls-17,.cls-23,.cls-26,.cls-30,.cls-31{fill:none;}.cls-17{stroke:#77492a;stroke-miterlimit:10;stroke-width:0.27px;}.cls-18{fill:#177ce0;}.cls-19{fill:#1972dd;}.cls-20{fill:#0461bc;}.cls-21{fill:#895e3c;}.cls-22{fill:#603913;}.cls-23{stroke:#28190a;stroke-width:0.82px;}.cls-23,.cls-26,.cls-30,.cls-31{stroke-linecap:round;stroke-linejoin:round;}.cls-24{clip-path:url(#clip-path-4);}.cls-25{fill:#4f3615;}.cls-26,.cls-30,.cls-31{stroke:#4f3615;opacity:0.25;}.cls-26{stroke-width:0.32px;}.cls-27{fill:#6d6d6d;}.cls-28{clip-path:url(#clip-path-5);}.cls-29{fill:#ffce00;}.cls-30{stroke-width:0.35px;}.cls-31{stroke-width:0.7px;}.cls-32{fill:#2e83ff;}.cls-33{fill:#126cc6;}.cls-34{fill:#05a;}.cls-35{clip-path:url(#clip-path-6);}.cls-36{fill:#ff5050;}.cls-37{fill:#247eea;}</style><clipPath id="clip-path"><path class="cls-1" d="M79.63,127.29s.2,1.28,4.25,1.5c0,0,3,.31,3.68-.67a4,4,0,0,0,2.68,2.32c1.89.37,6.25,1.91,4.55,6.22,0,0-.74,2-3.34,1.27s-10.1-2.08-11.33-2.45-3.56-1.21-2.8-3.24S79.44,128.07,79.63,127.29Z"/></clipPath><clipPath id="clip-path-2"><path class="cls-1" d="M42.34,127.21s-.37,1.24,3.19,3.19c0,0,2.57,1.55,3.62,1a4,4,0,0,0,1.42,3.25c1.55,1.15,4.83,4.4,1.45,7.57,0,0-1.51,1.45-3.56-.28s-8.24-6.21-9.19-7.07-2.7-2.62-1.14-4.13S41.83,127.84,42.34,127.21Z"/></clipPath><clipPath id="clip-path-3"><path class="cls-2" d="M66.07,91.89a3.84,3.84,0,0,1,3,.41,15,15,0,0,1,2.85,1.86A2,2,0,0,1,72.08,97s.91,2.09.68,2.67c0,0-.28,1.06-1.64.27,0,0-.24,1.23-1.7.34,0,0-.46.88-1.66.1,0,0-.44.49-1.82-1-.57-.61-1.37-2.69-2-5.49C63.92,93.91,63.55,92.55,66.07,91.89Z"/></clipPath><clipPath id="clip-path-4"><circle class="cls-3" cx="83.8" cy="52.91" r="2.85"/></clipPath><clipPath id="clip-path-5"><path class="cls-4" d="M65.9,47.4s9.78-3.67,27.73-2.85a5.72,5.72,0,0,0,.64-3.2c-.11-2-.24-10.69-8-11.42S65.29,33.7,64.88,41.83C64.88,41.83,64.13,45.81,65.9,47.4Z"/></clipPath><clipPath id="clip-path-6"><path class="cls-5" d="M82.25,61.19s-1.17,4.29,3.34,1.56C85.59,62.75,85.23,61.42,82.25,61.19Z"/></clipPath></defs><g id="Layer_4" data-name="Layer 4"><path class="cls-6" d="M73.7,78.42s-7.31,3-13.72,3a6.2,6.2,0,0,1-2.9-4.72s5.54-5.51,13.23-6.45S78.09,76.12,73.7,78.42Z"/><path class="cls-7" d="M68,95.24S63,101.44,67.05,106s15.61,6.75,19.68,6.8,4.68-6.65,2.59-8.4S81.22,96.53,68,95.24Z"/><path class="cls-8" d="M80.07,120.11s.06,6.35-.68,8-3.52,5.28-.52,6.33,9.42,2.18,12.91,3.09,4.2-4.1.92-6.15S85.86,132.53,88,123l-3.77-4.89Z"/><path class="cls-7" d="M80.45,110s-2.19,13.27-.93,17.45c0,0,4.35,3.1,10.81.66,0,0,3.62-10-.9-23.25C89.43,104.89,82.84,102.55,80.45,110Z"/><path class="cls-1" d="M79.63,127.29s.2,1.28,4.25,1.5c0,0,3,.31,3.68-.67a4,4,0,0,0,2.68,2.32c1.89.37,6.25,1.91,4.55,6.22,0,0-.74,2-3.34,1.27s-10.1-2.08-11.33-2.45-3.56-1.21-2.8-3.24S79.44,128.07,79.63,127.29Z"/><g class="cls-9"><path class="cls-10" d="M76.4,132.85s1.9,1.41,6.4,2.32,9.26,2.05,10.33,2a2.14,2.14,0,0,0,2-1.42l.32.58-1.33,2.78-5.29,0-12.37-3.88a7.23,7.23,0,0,1-.34-1.57C76.2,133.66,76.4,132.85,76.4,132.85Z"/></g><path class="cls-11" d="M87.56,128.12s-.47-.17-2.23.72,1,2.17,1,2.17l2.42-1.29Z"/><path class="cls-11" d="M87.28,131.34a11.32,11.32,0,0,1,1.93-1.26l.84.32a18,18,0,0,0-1.62,1.38Z"/><path class="cls-12" d="M75.65,94.82s-5-6.15-10.32-3.17-9.89,13.84-10.79,17.81,5.51,6,7.66,4.29S71.6,107.5,75.65,94.82Z"/><path class="cls-13" d="M45.82,120.92s-2.67,5.76-4,6.94-5.44,3.26-3.18,5.49,7.57,6,10.33,8.32,5.55-1.9,3.48-5.16-6.69-1.89-.65-9.56l-1.31-6Z"/><path class="cls-12" d="M52.41,109.76s-9.07,9.94-10.29,14.13c0,0,2,5,8.71,6.43,0,0,8.47-6.38,11.91-20C62.74,110.35,58.49,104.79,52.41,109.76Z"/><path class="cls-1" d="M42.34,127.21s-.37,1.24,3.19,3.19c0,0,2.57,1.55,3.62,1a4,4,0,0,0,1.42,3.25c1.55,1.15,4.83,4.4,1.45,7.57,0,0-1.51,1.45-3.56-.28s-8.24-6.21-9.19-7.07-2.7-2.62-1.14-4.13S41.83,127.84,42.34,127.21Z"/><g class="cls-14"><path class="cls-10" d="M37,130.85s1.11,2.1,4.78,4.85,7.49,5.82,8.49,6.21a2.13,2.13,0,0,0,2.38-.44l0,.66-2.39,1.94-4.8-2.23L36,133a7.63,7.63,0,0,1,.37-1.57C36.51,131.5,37,130.85,37,130.85Z"/></g><path class="cls-11" d="M49.15,131.36s-.36-.35-2.32-.3-.07,2.37-.07,2.37l2.74-.12Z"/><path class="cls-11" d="M47.52,134.15a10.61,10.61,0,0,1,2.28-.3l.62.64a18.57,18.57,0,0,0-2.06.55Z"/><path class="cls-2" d="M66.07,91.89a3.84,3.84,0,0,1,3,.41,15,15,0,0,1,2.85,1.86A2,2,0,0,1,72.08,97s.91,2.09.68,2.67c0,0-.28,1.06-1.64.27,0,0-.24,1.23-1.7.34,0,0-.46.88-1.66.1,0,0-.44.49-1.82-1-.57-.61-1.37-2.69-2-5.49C63.92,93.91,63.55,92.55,66.07,91.89Z"/><g class="cls-15"><path class="cls-16" d="M73.38,95.5A4.67,4.67,0,0,1,72,97.06a3.23,3.23,0,0,1-2,.59,4.11,4.11,0,0,1-1-.17,1.13,1.13,0,0,1-.51-.24.5.5,0,0,1-.13-.62,2.25,2.25,0,0,1,.82-.7l.45-.27.23-.12.13,0,.09,0a.19.19,0,0,1,.11,0,.14.14,0,0,1,0,.19l0,0h0a3.76,3.76,0,0,1-1.53,0,2.18,2.18,0,0,1-1.27-.81,2.72,2.72,0,0,0,2.74.58l-.06,0s0,0,0,.13,0,0,0,0l0,0-.1,0-.22.12-.44.26a2,2,0,0,0-.71.62c-.13.22.16.42.48.49a4,4,0,0,0,1,.18,3.31,3.31,0,0,0,1.89-.49A5.12,5.12,0,0,0,73.38,95.5Z"/><path class="cls-17" d="M71.58,101.13a22.35,22.35,0,0,1-1.08-3.57"/><path class="cls-17" d="M69.65,101s-1.38-2.49-.8-3.65"/><path class="cls-17" d="M67.84,100.89s-1.58-3.66.82-3.65"/><path class="cls-17" d="M67.52,97.65s-1.34-.71-1.45.95"/><path class="cls-16" d="M65.54,97.32c.13-.21.24-.42.36-.62a4,4,0,0,0,.29-.63,1.62,1.62,0,0,0,0-1.33,1.06,1.06,0,0,1,.34.66,1.75,1.75,0,0,1-.1.76A2.62,2.62,0,0,1,65.54,97.32Z"/></g><path class="cls-6" d="M62.49,76.39a82.34,82.34,0,0,1,6.38,15.54s-3,2.43-4.78,2.11A59.19,59.19,0,0,1,56.28,79.7s-1-3.5,1.42-4.25,4-.67,4.79.94"/><path class="cls-18" d="M69,88.92,62.11,93.2,63.22,95s5.94-.81,6.71-1.75S69,88.92,69,88.92Z"/><path class="cls-19" d="M78.2,66.93c.16,0,3.79-.46,4.68,5.65s1.94,14,1.94,17.13-1,10-2.11,10.36-.95-3.36-.95-3.36l-7-21.5Z"/><path class="cls-20" d="M77.7,64.49a13.51,13.51,0,0,0,3.37.81l.34,3.29L76.5,67.16Z"/><path class="cls-20" d="M69.34,63.43s.7-.74,3.24-.15l-.5,2.25S69.55,64.18,69.34,63.43Z"/><path class="cls-21" d="M71.45,58.63s.44,6.16-2.1,7.43c0,0,2.1,5,10.41,2,0,0-1.33-1.84-1.65-7.74S71.45,54.57,71.45,58.63Z"/><path class="cls-13" d="M75.39,62.76c-3-1.68-5.61-4.78-6.09-8.2,0,0,0-.15,0-.44a3.22,3.22,0,0,1-1.61-.67c-1.56-1.22-1.37-2.94-.53-4.47a3.44,3.44,0,0,0,.48-1.27,8.09,8.09,0,0,0,0-1.46,11.84,11.84,0,0,1,.24-3.46A9.29,9.29,0,0,1,72.52,37a12.56,12.56,0,0,1,7.42-1.27c3.9.46,7.65,1.3,9.84,4.57a14.82,14.82,0,0,1,1.93,6.82c-.08,2-1.17,3.9-1.78,5.73-.55,1.67-.78,4.24.49,5.45,0,0,1.12,1.09.66,2s-3.23,0-3.23,0,.11,1.58-1.35,1.42c0,0-.74,6.26-11,1"/><path class="cls-22" d="M67.34,46.6a2.47,2.47,0,0,0-2.08,1.09,1.58,1.58,0,0,0,.48,2.14,1.75,1.75,0,0,0,.69,3.23,1,1,0,0,0,.78,1A2.94,2.94,0,0,0,68.59,54a2.07,2.07,0,0,0,1.4.54,1,1,0,0,0,1-1c.46.27,1.07-.18,1.17-.7a2.37,2.37,0,0,0-.39-1.51,2.08,2.08,0,0,0-.11-2.95,6.27,6.27,0,0,1-1.08-.82c-.14-.17-.23-.37-.38-.52a.88.88,0,0,0-.93-.17c-.17.07-.37.2-.52.09s-.09-.14-.14-.21c-.19-.32-.65-.32-1-.28"/><path class="cls-23" d="M87.5,50.27a3.49,3.49,0,0,0-5.21-1.84"/><circle class="cls-3" cx="83.8" cy="52.91" r="2.85"/><g class="cls-24"><circle class="cls-25" cx="84.72" cy="53.95" r="1.96"/><circle cx="84.72" cy="53.95" r="1.2"/><circle class="cls-3" cx="84.27" cy="53.11" r="0.69"/></g><path class="cls-26" d="M84.34,58.9a6.62,6.62,0,0,0-6.23,2.82"/><path class="cls-22" d="M80.79,44.49a2.51,2.51,0,0,1,.3,2.24,1.34,1.34,0,0,1-1.93.65c.3,0,.44.4.38.69a1.55,1.55,0,0,1-.81,1,3.44,3.44,0,0,1-1.29.35c-.33,0-.79-.06-.79-.39.33.21.16.72-.1,1a2.47,2.47,0,0,1-3.78-.24,1.58,1.58,0,0,1-1.43.34,1.61,1.61,0,0,1-1.07-1,1.31,1.31,0,0,1-1.16.66,1.53,1.53,0,0,1-1.21-.39.88.88,0,0,1-.05-1.18.42.42,0,0,1-.59,0,.92.92,0,0,1-.24-.59A2.41,2.41,0,0,1,69.42,45a1.07,1.07,0,0,1,0-1.3,2.31,2.31,0,0,1,1.17-.75,5.65,5.65,0,0,1,1.53-.27c.44,0,1,.08,1.13.49A3.63,3.63,0,0,1,74.79,42a1.89,1.89,0,0,1,1.84.25,5.61,5.61,0,0,1,.69.84.33.33,0,0,0,.17.12.38.38,0,0,0,.27-.09l.94-.66c.36-.24.82-.49,1.18-.26s.35.54.62.71a1.1,1.1,0,0,0,.65.1.91.91,0,0,1,.63.14c.17.14.2.46,0,.55"/><path class="cls-4" d="M80.13,44.63s11.46,6.11,16.28,4.7S93.26,44,93.26,44Z"/><circle class="cls-27" cx="96.32" cy="47.12" r="0.4"/><path class="cls-4" d="M65.9,47.4s9.78-3.67,27.73-2.85a5.72,5.72,0,0,0,.64-3.2c-.11-2-.24-10.69-8-11.42S65.29,33.7,64.88,41.83C64.88,41.83,64.13,45.81,65.9,47.4Z"/><g class="cls-28"><path class="cls-4" d="M65.91,44.77s18-11.41,26.43-2.89l-13.47,1.9Z"/><path class="cls-29" d="M62.32,46.21S75,39.46,96.94,42.09L94.49,46.8l-32.7,3.26.43-3.42"/></g><path class="cls-30" d="M81.37,55.44a3.1,3.1,0,0,0,3.63.68"/><circle class="cls-13" cx="74.83" cy="51.1" r="3.36" transform="translate(7.56 111.8) rotate(-76.39)"/><path class="cls-31" d="M75.57,48.79a2.54,2.54,0,0,0-3.06,1.69s-1,2.4,2,3.3"/><path class="cls-32" d="M68.92,65.4a5.61,5.61,0,0,0-4.29,4.35c-.93,3.83-6.27,21.16-3.92,25.6s5.31,3.4,9.23,3.31S83.34,100.4,84,94.83,83,75.2,80.28,68.61A14.13,14.13,0,0,0,68.92,65.4Z"/><polygon class="cls-32" points="79.69 65.8 80.28 68.61 78.41 68.64 79.69 65.8"/><path class="cls-33" d="M69.34,63.43S75,66.1,79.69,65.8l-.91,3.36s-9.9-1.86-11.34-3.23Z"/><circle class="cls-34" cx="80.73" cy="73.03" r="0.51"/><circle class="cls-34" cx="82.1" cy="79.43" r="0.51"/><circle class="cls-34" cx="82.84" cy="86.65" r="0.51"/><circle class="cls-34" cx="82.77" cy="94.16" r="0.51"/><path class="cls-32" d="M83,97.14s-2.38,5.74-6.26,7.07c-2,.69-13.23.82-14.86-2.32S58,97.6,60.33,88.67c0,0,10.91,8.47,11.26,8.47Z"/><path class="cls-32" d="M73.79,68.72a85.63,85.63,0,0,1,11.63,9.21S80.56,81,80.7,83.12c0,0-9.88-5.37-11.43-7s-2.7-3.94,0-6.71S73.79,68.72,73.79,68.72Z"/><path class="cls-5" d="M82.25,61.19s-1.17,4.29,3.34,1.56C85.59,62.75,85.23,61.42,82.25,61.19Z"/><g class="cls-35"><path class="cls-3" d="M81.85,61a3.24,3.24,0,0,0,1.92,1.79,2.66,2.66,0,0,0,2.53-.16l-2-1.82Z"/><path class="cls-36" d="M81.78,62.26s1.17,0,1.86,1.95l-2-.38Z"/></g><path d="M88.05,59.69a2.78,2.78,0,0,0-3.65-.21c-2.19,1.4-3.33-1.33-3.33-1.33S80.19,61.8,85,62.72a5.68,5.68,0,0,0,2.34-.16C89.31,61.94,88.05,59.69,88.05,59.69Z"/><path class="cls-2" d="M103.8,67.46a1.24,1.24,0,0,1,.54,1.75s1.17.68.16,2a1.56,1.56,0,0,1-.41,1.87,8.44,8.44,0,0,1-4,2.2s-2,1.11-3.77-1.58.5-4.11.5-4.11,1.45-3.74,4.08-3.55a6.32,6.32,0,0,1,.61-.22S103.31,64.53,103.8,67.46Z"/><path class="cls-32" d="M80.65,77.08a82.29,82.29,0,0,1,15.64-6.14s2.39,3,2,4.81a59.22,59.22,0,0,1-14.45,7.6s-3.52,1-4.23-1.49-.6-4,1-4.78"/><path class="cls-37" d="M93.28,70.74l4.18,7,1.82-1.09s-.73-5.95-1.65-6.73S93.28,70.74,93.28,70.74Z"/></g></svg>