<svg xmlns="http://www.w3.org/2000/svg" xmlns:xlink="http://www.w3.org/1999/xlink" viewBox="0 0 260 168"><defs><style>.cls-1{fill:#4bb21b;}.cls-2{fill:#99623d;}.cls-3{fill:#fff;}.cls-4{fill:#111;}.cls-5{fill:#472813;}.cls-6{fill:#227fef;}.cls-7{fill:#303030;}.cls-8{fill:#9b633d;}.cls-9{clip-path:url(#clip-path);}.cls-10{fill:#2a6805;}.cls-11{fill:#c5db21;}.cls-12{fill:#383838;}.cls-13{fill:#a86f47;}.cls-14{clip-path:url(#clip-path-2);}.cls-15{clip-path:url(#clip-path-3);}.cls-16{fill:#77492a;}.cls-17,.cls-23,.cls-26,.cls-30,.cls-31{fill:none;}.cls-17{stroke:#77492a;stroke-miterlimit:10;stroke-width:0.3px;}.cls-18{fill:#177ce0;}.cls-19{fill:#1972dd;}.cls-20{fill:#0461bc;}.cls-21{fill:#895e3c;}.cls-22{fill:#603913;}.cls-23{stroke:#28190a;stroke-width:0.92px;}.cls-23,.cls-26,.cls-30,.cls-31{stroke-linecap:round;stroke-linejoin:round;}.cls-24{clip-path:url(#clip-path-4);}.cls-25{fill:#4f3615;}.cls-26,.cls-30,.cls-31{stroke:#4f3615;opacity:0.25;}.cls-26{stroke-width:0.35px;}.cls-27{fill:#6d6d6d;}.cls-28{clip-path:url(#clip-path-5);}.cls-29{fill:#ffce00;}.cls-30{stroke-width:0.39px;}.cls-31{stroke-width:0.78px;}.cls-32{fill:#2e83ff;}.cls-33{fill:#126cc6;}.cls-34{fill:#05a;}.cls-35{clip-path:url(#clip-path-6);}.cls-36{fill:#ff5050;}.cls-37{fill:#070300;}.cls-38{fill:#247eea;}</style><clipPath id="clip-path"><path class="cls-1" d="M24.11,136.79s-.34,1.41,3.75,3.38c0,0,2.95,1.59,4.09.87a4.51,4.51,0,0,0,1.77,3.54c1.8,1.2,5.64,4.64,2.05,8.36,0,0-1.6,1.71-4-.1s-9.55-6.46-10.66-7.37-3.16-2.77-1.51-4.55S23.58,137.53,24.11,136.79Z"/></clipPath><clipPath id="clip-path-2"><path class="cls-1" d="M62.16,143.86s1.13.9,4.64-2c0,0,2.69-2,2.52-3.34a4.48,4.48,0,0,0,4-.11c1.85-1.13,6.6-3.15,8.45,1.68,0,0,.87,2.17-1.78,3.57s-9.89,5.92-11.18,6.54-3.85,1.7-4.76-.55S62.6,144.65,62.16,143.86Z"/></clipPath><clipPath id="clip-path-3"><path class="cls-2" d="M65.67,98.58A4.3,4.3,0,0,1,68.94,98a16,16,0,0,1,3.67,1,2.22,2.22,0,0,1,1.24,2.9s1.71,1.89,1.68,2.58c0,0,.08,1.22-1.65.88,0,0,.19,1.39-1.67,1,0,0-.17,1.11-1.73.7,0,0-.28.69-2.26-.36-.83-.43-2.41-2.35-4.11-5.09C64.11,101.48,63.24,100.18,65.67,98.58Z"/></clipPath><clipPath id="clip-path-4"><circle class="cls-3" cx="52.77" cy="51.73" r="3.18"/></clipPath><clipPath id="clip-path-5"><path class="cls-4" d="M31.91,50.05s9.77-6.36,29.56-9.8a6.46,6.46,0,0,0-.08-3.65C60.78,34.41,58.56,25,49.87,26.08S27.93,35.25,29.44,44.22C29.44,44.22,29.59,48.75,31.91,50.05Z"/></clipPath><clipPath id="clip-path-6"><path class="cls-5" d="M53.08,61.15s-.24,5,4,.9C57.09,62.05,56.39,60.67,53.08,61.15Z"/></clipPath></defs><g id="Layer_4" data-name="Layer 4"><path class="cls-6" d="M49.84,71.67s5.3,7.07,7,14c0,0-1,3.51-4.29,4.46,0,0-7.52-4.45-10.69-12.51S46.12,67.57,49.84,71.67Z"/><path class="cls-7" d="M54.8,98.15s-6.77-5.72-12-1.37-8,17.23-8.2,21.78,7.27,5.43,9.29,3.15S53,112.91,54.8,98.15Z"/><path class="cls-8" d="M27.63,129.57s-2.65,6.59-4.12,8-5.88,3.95-3.23,6.31,8.79,6.27,12,8.7,6.09-2.44,3.59-6S28.3,144.87,34.6,136l-1.8-6.66Z"/><path class="cls-7" d="M32.33,119.33S24.4,132.1,23.92,137c0,0,3.17,5.06,10.88,5.29,0,0,8-8.75,9-24.38C43.8,117.86,38,112.62,32.33,119.33Z"/><path class="cls-1" d="M24.11,136.79s-.34,1.41,3.75,3.38c0,0,2.95,1.59,4.09.87a4.51,4.51,0,0,0,1.77,3.54c1.8,1.2,5.64,4.64,2.05,8.36,0,0-1.6,1.71-4-.1s-9.55-6.46-10.66-7.37-3.16-2.77-1.51-4.55S23.58,137.53,24.11,136.79Z"/><g class="cls-9"><path class="cls-10" d="M18.4,141.16s1.37,2.27,5.62,5.13,8.69,6.07,9.82,6.45a2.38,2.38,0,0,0,2.64-.63l.07.74L34,155.15l-5.49-2.21L17.4,143.65a8,8,0,0,1,.32-1.77C17.85,141.92,18.4,141.16,18.4,141.16Z"/></g><path class="cls-11" d="M32,141s-.42-.38-2.61-.21.06,2.65.06,2.65l3.06-.29Z"/><path class="cls-11" d="M30.29,144.24a12.48,12.48,0,0,1,2.53-.47l.73.68a20.9,20.9,0,0,0-2.27.74Z"/><path class="cls-12" d="M42.61,95.75s-8.47,2.62-7.62,9.37,10.18,16,13.91,18.65,8.5-3.2,7.67-6.13S54,105.27,42.61,95.75Z"/><path class="cls-13" d="M57.1,137.61s4.85,5.19,5.49,7.11,1.09,7,4.35,5.6,9.4-5.32,13-7.2.36-6.55-3.89-5.77-4.76,6.12-10.16-3.35L59,132.82Z"/><path class="cls-12" d="M48.32,126.1s6.48,13.57,10.31,16.58c0,0,6,.07,10.32-6.3,0,0-3.06-11.45-15.68-20.73C53.27,115.65,45.73,117.72,48.32,126.1Z"/><path class="cls-1" d="M62.16,143.86s1.13.9,4.64-2c0,0,2.69-2,2.52-3.34a4.48,4.48,0,0,0,4-.11c1.85-1.13,6.6-3.15,8.45,1.68,0,0,.87,2.17-1.78,3.57s-9.89,5.92-11.18,6.54-3.85,1.7-4.76-.55S62.6,144.65,62.16,143.86Z"/><g class="cls-14"><path class="cls-10" d="M63.7,150.87s2.64-.27,7-2.91,9.17-5.31,10-6.18a2.36,2.36,0,0,0,.55-2.65l.7.24,1,3.29-4.33,4-13.12,6.15s-1.55-.94-1.46-1S63.7,150.87,63.7,150.87Z"/></g><path class="cls-11" d="M69.32,138.55s-.52.22-1.3,2.28,2.44,1.06,2.44,1.06l1-2.89Z"/><path class="cls-11" d="M71.52,141.41a12.47,12.47,0,0,1,.64-2.49l.93-.38a20.18,20.18,0,0,0-.29,2.37Z"/><path class="cls-2" d="M65.67,98.58A4.3,4.3,0,0,1,68.94,98a16,16,0,0,1,3.67,1,2.22,2.22,0,0,1,1.24,2.9s1.71,1.89,1.68,2.58c0,0,.08,1.22-1.65.88,0,0,.19,1.39-1.67,1,0,0-.17,1.11-1.73.7,0,0-.28.69-2.26-.36-.83-.43-2.41-2.35-4.11-5.09C64.11,101.48,63.24,100.18,65.67,98.58Z"/><g class="cls-15"><path class="cls-16" d="M74.7,99.78a5.09,5.09,0,0,1-.87,2.13,3.66,3.66,0,0,1-1.9,1.35,4.53,4.53,0,0,1-1.16.18,1.26,1.26,0,0,1-.63-.06.56.56,0,0,1-.35-.61,2.47,2.47,0,0,1,.61-1l.38-.43.2-.22.12-.1.08-.06a.17.17,0,0,1,.12,0,.14.14,0,0,1,.1.18v0l0,0a4.12,4.12,0,0,1-1.62.56,2.39,2.39,0,0,1-1.63-.4,2.33,2.33,0,0,0,1.61.25,3.82,3.82,0,0,0,1.5-.62l0,.07s0,.07.08.12.06,0,.06,0l0,0-.09.1-.19.2-.37.44a2.29,2.29,0,0,0-.53.9c-.06.28.32.4.68.35a4.12,4.12,0,0,0,1.1-.16,3.63,3.63,0,0,0,1.82-1.19A5.92,5.92,0,0,0,74.7,99.78Z"/><path class="cls-17" d="M74.8,106.38A25.32,25.32,0,0,1,72.39,103"/><path class="cls-17" d="M72.7,106.88s-2.36-2.14-2.15-3.57"/><path class="cls-17" d="M70.76,107.47s-3-3.31-.44-4.16"/><path class="cls-17" d="M69.26,104.15s-1.67-.27-1.19,1.52"/><path class="cls-16" d="M67.05,104.52c.06-.27.11-.53.15-.79a4.15,4.15,0,0,0,.09-.78,1.82,1.82,0,0,0-.46-1.41,1.21,1.21,0,0,1,.6.58,1.79,1.79,0,0,1,.16.85A3,3,0,0,1,67.05,104.52Z"/></g><path class="cls-6" d="M56.32,83.45A92,92,0,0,1,68.64,97.62s-2.25,3.63-4.3,3.94A66.43,66.43,0,0,1,50.93,89.18s-2.34-3.34,0-5,4-2.12,5.41-.72"/><path class="cls-18" d="M67.73,94.37l-5.78,7,1.82,1.5s6-3,6.46-4.26S67.73,94.37,67.73,94.37Z"/><path class="cls-19" d="M48.56,69c.18.05,4.24-.52,5.23,6.31S56,90.92,56,94.42,54.85,105.56,53.6,106s-1.06-3.75-1.06-3.75l-7.82-24Z"/><path class="cls-20" d="M48,66.24a15.41,15.41,0,0,0,3.76.91l.39,3.67-5.49-1.6Z"/><path class="cls-20" d="M38.66,65.06s.78-.84,3.62-.17l-.56,2.51S38.89,65.89,38.66,65.06Z"/><path class="cls-21" d="M41,59.69s.5,6.88-2.34,8.3c0,0,2.34,5.6,11.63,2.27,0,0-1.49-2.06-1.84-8.65S41,55.16,41,59.69Z"/><path class="cls-13" d="M46,64.52C42.35,63.4,38.7,60.66,37.34,57c0,0,0-.17-.09-.49a3.51,3.51,0,0,1-1.92-.33c-2-1-2.2-2.87-1.66-4.75a3.75,3.75,0,0,0,.22-1.5,8.27,8.27,0,0,0-.37-1.59,13.12,13.12,0,0,1-.58-3.83,10.39,10.39,0,0,1,3.67-7.45,14,14,0,0,1,7.79-3.19c4.37-.43,8.67-.42,11.84,2.61a16.74,16.74,0,0,1,3.75,7c.4,2.16-.33,4.53-.55,6.68-.2,2,.17,4.81,1.85,5.83,0,0,1.49.92,1.2,2.05s-3.51.82-3.51.82.5,1.7-1.13,1.88c0,0,.71,7-11.73,3.75"/><path class="cls-22" d="M33.28,48.83a2.73,2.73,0,0,0-2,1.69,1.76,1.76,0,0,0,1,2.22,2,2,0,0,0,1.53,3.36A1.13,1.13,0,0,0,35,57a3.28,3.28,0,0,0,1.49-.39,2.29,2.29,0,0,0,1.65.25,1.12,1.12,0,0,0,.82-1.3c.57.17,1.12-.46,1.1-1A2.74,2.74,0,0,0,39.23,53a2.32,2.32,0,0,0-.84-3.19A7.49,7.49,0,0,1,37,49.15a4,4,0,0,0-.54-.47,1,1,0,0,0-1,0c-.17.12-.36.31-.54.23s-.14-.13-.21-.2c-.29-.3-.78-.19-1.17-.06"/><path class="cls-23" d="M56.16,48A3.88,3.88,0,0,0,50,47.22"/><circle class="cls-3" cx="52.77" cy="51.73" r="3.18"/><g class="cls-24"><circle class="cls-25" cx="54.13" cy="51.73" r="2.19"/><circle cx="54.13" cy="51.73" r="1.34"/><circle class="cls-3" cx="53.44" cy="50.93" r="0.77"/></g><path class="cls-26" d="M54.8,58.15a7.4,7.4,0,0,0-6.12,4.58"/><path class="cls-22" d="M47.45,43.28a2.82,2.82,0,0,1,.87,2.37,1.51,1.51,0,0,1-2,1.18c.33-.06.57.33.58.66a1.73,1.73,0,0,1-.64,1.3,4.06,4.06,0,0,1-1.32.69c-.36.12-.88.13-1-.24.41.15.35.75.13,1.12A2.75,2.75,0,0,1,40,51a1.78,1.78,0,0,1-1.49.71,1.76,1.76,0,0,1-1.41-.84,1.44,1.44,0,0,1-1.1,1,1.69,1.69,0,0,1-1.41-.13,1,1,0,0,1-.35-1.27.46.46,0,0,1-.63.16,1,1,0,0,1-.42-.59,2.7,2.7,0,0,1,2-3.49,1.21,1.21,0,0,1-.28-1.43A2.52,2.52,0,0,1,36,44a6.24,6.24,0,0,1,1.6-.67c.48-.13,1.08-.15,1.35.26A4.08,4.08,0,0,1,40.3,42a2.08,2.08,0,0,1,2.07-.17,9.35,9.35,0,0,1,1,.74.35.35,0,0,0,.21.1.4.4,0,0,0,.27-.17l.87-.94c.33-.35.78-.74,1.23-.57s.51.51.84.62a1.15,1.15,0,0,0,.73-.05,1.08,1.08,0,0,1,.73,0c.22.11.32.46.12.61"/><path class="cls-4" d="M46.76,43.6s14,3.89,18.89,1.18-4.71-5-4.71-5Z"/><circle class="cls-27" cx="65.02" cy="42.4" r="0.45"/><path class="cls-4" d="M31.91,50.05s9.77-6.36,29.56-9.8a6.46,6.46,0,0,0-.08-3.65C60.78,34.41,58.56,25,49.87,26.08S27.93,35.25,29.44,44.22C29.44,44.22,29.59,48.75,31.91,50.05Z"/><g class="cls-28"><path class="cls-4" d="M31.28,47.18s16.86-16.79,28.14-9.54L45.18,43Z"/><path class="cls-29" d="M27.71,49.62S39.94,39.18,64.49,36.76L63,42.49,28.07,53.94l-.37-3.83"/></g><path class="cls-30" d="M50.73,55.09A3.48,3.48,0,0,0,54.86,55"/><circle class="cls-13" cx="42.54" cy="51.93" r="3.76"/><path class="cls-31" d="M42.79,49.23a2.84,2.84,0,0,0-2.93,2.58s-.47,2.86,3,3.12"/><path class="cls-32" d="M38.19,67.26a6.27,6.27,0,0,0-4.8,4.86c-1,4.28-7,23.65-4.37,28.61s5.93,3.79,10.3,3.69,15,2,15.76-4.28-1.19-21.94-4.19-29.3C50.89,70.84,45.52,65.88,38.19,67.26Z"/><polygon class="cls-32" points="50.22 67.71 50.88 70.84 48.8 70.87 50.22 67.71"/><path class="cls-33" d="M38.66,65.06S45,68,50.22,67.71l-1,3.74s-11.06-2.08-12.68-3.6Z"/><circle class="cls-34" cx="51.38" cy="75.78" r="0.57"/><circle class="cls-34" cx="52.92" cy="82.94" r="0.57"/><circle class="cls-34" cx="53.75" cy="91" r="0.57"/><circle class="cls-34" cx="53.66" cy="99.39" r="0.57"/><path class="cls-32" d="M53.88,102.72s-2.66,6.42-7,7.91c-2.22.76-14.78.91-16.6-2.6S26,103.24,28.6,93.25c0,0,12.18,9.47,12.57,9.47Z"/><path class="cls-32" d="M40.2,76.79A95.74,95.74,0,0,1,28.82,88.85s-4.2-3.43-6.56-3.48c0,0,8.17-12.76,10.15-14.33s4.64-2.62,7.46.71S40.2,76.79,40.2,76.79Z"/><path class="cls-5" d="M53.08,61.15s-.24,5,4,.9C57.09,62.05,56.39,60.67,53.08,61.15Z"/><g class="cls-35"><path class="cls-3" d="M52.58,61a3.59,3.59,0,0,0,2.53,1.49,3,3,0,0,0,2.72-.78l-2.6-1.51Z"/><path class="cls-36" d="M52.82,62.42s1.27-.3,2.5,1.68l-2.27.07Z"/></g><path class="cls-37" d="M59,58.11a3.09,3.09,0,0,0-4,.65c-2.06,2.06-4-.65-4-.65s-.08,4.21,5.38,4A6.28,6.28,0,0,0,59,61.41C61,60.26,59,58.11,59,58.11Z"/><path class="cls-2" d="M13.67,110.85a1.37,1.37,0,0,1-1.54-1.34s-1.51,0-1.31-1.78a1.74,1.74,0,0,1-.69-2,9.36,9.36,0,0,1,2.52-4.45s1.24-2.22,4.52-.7,1.93,4.21,1.93,4.21.81,4.4-1.81,5.76a6.15,6.15,0,0,1-.46.58S15.86,113.36,13.67,110.85Z"/><path class="cls-32" d="M30.08,88.15a92,92,0,0,1-11.3,15s-4-1.45-4.75-3.39a66.43,66.43,0,0,1,9.32-15.69s2.78-3,4.9-1.06,2.9,3.44,1.83,5.14"/><path class="cls-38" d="M21.77,101.59l-8.07-4.2-1.09,2.09s4.17,5.24,5.51,5.44S21.77,101.59,21.77,101.59Z"/></g></svg>