<svg xmlns="http://www.w3.org/2000/svg" xmlns:xlink="http://www.w3.org/1999/xlink" viewBox="0 0 260 168"><defs><style>.cls-1{fill:#4bb21b;}.cls-2{fill:#99623d;}.cls-3{fill:#fff;}.cls-4{fill:#111;}.cls-5{fill:#472813;}.cls-6{fill:#227fef;}.cls-7{fill:#303030;}.cls-8{fill:#9b633d;}.cls-9{clip-path:url(#clip-path);}.cls-10{fill:#2a6805;}.cls-11{fill:#c5db21;}.cls-12{fill:#383838;}.cls-13{fill:#a86f47;}.cls-14{clip-path:url(#clip-path-2);}.cls-15{clip-path:url(#clip-path-3);}.cls-16{fill:#77492a;}.cls-17,.cls-23,.cls-26,.cls-30,.cls-31{fill:none;}.cls-17{stroke:#77492a;stroke-miterlimit:10;stroke-width:0.3px;}.cls-18{fill:#177ce0;}.cls-19{fill:#1972dd;}.cls-20{fill:#0461bc;}.cls-21{fill:#895e3c;}.cls-22{fill:#603913;}.cls-23{stroke:#28190a;stroke-width:0.92px;}.cls-23,.cls-26,.cls-30,.cls-31{stroke-linecap:round;stroke-linejoin:round;}.cls-24{clip-path:url(#clip-path-4);}.cls-25{fill:#4f3615;}.cls-26,.cls-30,.cls-31{stroke:#4f3615;opacity:0.25;}.cls-26{stroke-width:0.35px;}.cls-27{fill:#6d6d6d;}.cls-28{clip-path:url(#clip-path-5);}.cls-29{fill:#ffce00;}.cls-30{stroke-width:0.39px;}.cls-31{stroke-width:0.78px;}.cls-32{fill:#2e83ff;}.cls-33{fill:#126cc6;}.cls-34{fill:#05a;}.cls-35{clip-path:url(#clip-path-6);}.cls-36{fill:#ff5050;}.cls-37{fill:#070300;}.cls-38{fill:#247eea;}</style><clipPath id="clip-path"><path class="cls-1" d="M101.79,142s1,1.05,4.86-1.32c0,0,2.94-1.62,2.95-3a4.53,4.53,0,0,0,3.94.43c2-.87,7-2.23,8.14,2.8,0,0,.57,2.28-2.26,3.3s-10.59,4.52-12,5-4,1.15-4.64-1.2S102.12,142.86,101.79,142Z"/></clipPath><clipPath id="clip-path-2"><path class="cls-1" d="M63.11,136.5s-.29,1.41,3.87,3.23c0,0,3,1.47,4.12.71a4.5,4.5,0,0,0,1.9,3.47c1.85,1.13,5.81,4.43,2.37,8.29,0,0-1.54,1.76-4,0s-9.78-6.1-10.92-7-3.27-2.65-1.68-4.49S62.6,137.25,63.11,136.5Z"/></clipPath><clipPath id="clip-path-3"><path class="cls-2" d="M66.66,98.46a4.25,4.25,0,0,1,1.26,3.08,16.07,16.07,0,0,1-.2,3.79,2.21,2.21,0,0,1-2.6,1.79s-1.5,2.06-2.19,2.16c0,0-1.18.32-1.19-1.43,0,0-1.32.45-1.28-1.45,0,0-1.11,0-1-1.56,0,0-.73-.14-.1-2.28.27-.9,1.83-2.84,4.18-5C63.51,97.51,64.61,96.4,66.66,98.46Z"/></clipPath><clipPath id="clip-path-4"><circle class="cls-3" cx="97.04" cy="52.97" r="3.18"/></clipPath><clipPath id="clip-path-5"><path class="cls-4" d="M76.56,48.6s10.52-5,30.59-5.9a6.51,6.51,0,0,0,.39-3.63c-.33-2.25-1.32-11.88-10.08-11.92S74.53,33.42,74.88,42.5C74.88,42.5,74.44,47,76.56,48.6Z"/></clipPath><clipPath id="clip-path-6"><path class="cls-5" d="M96.13,62.34s-.88,4.89,3.87,1.41C100,63.75,99.47,62.3,96.13,62.34Z"/></clipPath></defs><g id="Layer_3" data-name="Layer 3"><path class="cls-6" d="M89.88,77.59S84,84.19,77.54,87.27c0,0-3.65-.3-5.23-3.31,0,0,2.87-8.26,10.14-13S93.16,73.13,89.88,77.59Z"/><path class="cls-7" d="M85.94,95.28s-8.48,2.59-7.65,9.34,10.13,16.08,13.86,18.69,8.5-3.17,7.68-6.1S97.34,104.83,85.94,95.28Z"/><path class="cls-8" d="M97.63,135.14s4.1,5.8,4.47,7.78.13,7.09,3.55,6.14,10-4,13.82-5.37,1.25-6.44-3.07-6.25-5.55,5.43-9.62-4.69l-6.58-2.09Z"/><path class="cls-7" d="M91.56,125.64s6.44,13.59,10.25,16.62c0,0,6,.08,10.34-6.28,0,0-3-11.46-15.61-20.77C96.54,115.21,89,117.25,91.56,125.64Z"/><path class="cls-1" d="M101.79,142s1,1.05,4.86-1.32c0,0,2.94-1.62,2.95-3a4.53,4.53,0,0,0,3.94.43c2-.87,7-2.23,8.14,2.8,0,0,.57,2.28-2.26,3.3s-10.59,4.52-12,5-4,1.15-4.64-1.2S102.12,142.86,101.79,142Z"/><g class="cls-9"><path class="cls-10" d="M102.36,149.17s2.66.09,7.36-1.93,9.81-4,10.74-4.77a2.35,2.35,0,0,0,.9-2.55l.67.34.55,3.39-4.84,3.41-13.83,4.31s-1.41-1.14-1.31-1.23S102.36,149.17,102.36,149.17Z"/></g><path class="cls-11" d="M109.6,137.73s-.54.14-1.59,2.08,2.27,1.38,2.27,1.38l1.4-2.73Z"/><path class="cls-11" d="M111.4,140.86a12.25,12.25,0,0,1,1-2.38l1-.25a20.24,20.24,0,0,0-.61,2.31Z"/><path class="cls-12" d="M97,97.14s-6.2-6.34-11.81-2.5S75.54,111,74.93,115.53s6.73,6.1,8.95,4S93.73,111.66,97,97.14Z"/><path class="cls-13" d="M66.36,129.15s-2.4,6.68-3.82,8.12-5.73,4.17-3,6.43,9,5.94,12.33,8.24,6-2.66,3.36-6.09-7.63-1.44-1.67-10.57l-2.06-6.59Z"/><path class="cls-12" d="M72.59,116.08s-9.11,12-10.05,16.74c0,0,2.67,5.34,10.32,6.3,0,0,8.8-7.94,11.29-23.41C84.15,115.71,78.87,109.94,72.59,116.08Z"/><path class="cls-1" d="M63.11,136.5s-.29,1.41,3.87,3.23c0,0,3,1.47,4.12.71a4.5,4.5,0,0,0,1.9,3.47c1.85,1.13,5.81,4.43,2.37,8.29,0,0-1.54,1.76-4,0s-9.78-6.1-10.92-7-3.27-2.65-1.68-4.49S62.6,137.25,63.11,136.5Z"/><g class="cls-14"><path class="cls-10" d="M57.57,141.07S59,143.3,63.37,146s8.92,5.74,10.06,6.08a2.38,2.38,0,0,0,2.61-.73l.11.73-2.47,2.4-5.56-2L56.66,143.6a8.13,8.13,0,0,1,.25-1.78C57,141.85,57.57,141.07,57.57,141.07Z"/></g><path class="cls-11" d="M71.1,140.44s-.43-.35-2.62-.11.16,2.65.16,2.65l3-.41Z"/><path class="cls-11" d="M69.56,143.71a12.63,12.63,0,0,1,2.51-.57l.76.66a20.18,20.18,0,0,0-2.24.82Z"/><path class="cls-2" d="M66.66,98.46a4.25,4.25,0,0,1,1.26,3.08,16.07,16.07,0,0,1-.2,3.79,2.21,2.21,0,0,1-2.6,1.79s-1.5,2.06-2.19,2.16c0,0-1.18.32-1.19-1.43,0,0-1.32.45-1.28-1.45,0,0-1.11,0-1-1.56,0,0-.73-.14-.1-2.28.27-.9,1.83-2.84,4.18-5C63.51,97.51,64.61,96.4,66.66,98.46Z"/><g class="cls-15"><path class="cls-16" d="M67.28,107.55a5.19,5.19,0,0,1-2.26-.42,3.69,3.69,0,0,1-1.69-1.6,4.46,4.46,0,0,1-.42-1.1,1.19,1.19,0,0,1-.06-.63.57.57,0,0,1,.53-.47,2.43,2.43,0,0,1,1.14.4L65,104l.25.16a.94.94,0,0,1,.12.09l.07.07a.15.15,0,0,1,0,.12.15.15,0,0,1-.16.13h0l0,0a4,4,0,0,1-.88-1.47,2.43,2.43,0,0,1,.07-1.68,2.34,2.34,0,0,0,.08,1.63,4,4,0,0,0,.9,1.35l-.08,0s-.07,0-.1.1,0,.06,0,.06l0,0-.11-.08-.24-.14-.5-.27a2.16,2.16,0,0,0-1-.35c-.29,0-.32.4-.21.74a4,4,0,0,0,.38,1A3.66,3.66,0,0,0,65.1,107,6,6,0,0,0,67.28,107.55Z"/><path class="cls-17" d="M60.83,109a25.69,25.69,0,0,1,2.84-3"/><path class="cls-17" d="M59.92,107s1.63-2.74,3.08-2.82"/><path class="cls-17" d="M59,105.23s2.65-3.59,4-1.27"/><path class="cls-17" d="M61.91,103.09s-.06-1.69-1.72-.86"/><path class="cls-16" d="M61.12,101h.8a4,4,0,0,0,.78-.07,1.79,1.79,0,0,0,1.29-.73,1.21,1.21,0,0,1-.45.71,1.94,1.94,0,0,1-.79.32A2.91,2.91,0,0,1,61.12,101Z"/></g><path class="cls-6" d="M79.63,86.29A92.61,92.61,0,0,1,68.2,101.18s-4-1.48-4.72-3.43a66,66,0,0,1,9.46-15.6s2.8-3,4.9-1,2.88,3.46,1.79,5.16"/><path class="cls-18" d="M71.2,99.65l-8-4.28-1.12,2.09s4.13,5.28,5.47,5.49S71.2,99.65,71.2,99.65Z"/><path class="cls-19" d="M91.57,69c.17.05,4.24-.52,5.23,6.31S99,90.92,99,94.42s-1.1,11.14-2.35,11.57-1.06-3.75-1.06-3.75l-7.83-24Z"/><path class="cls-20" d="M91,66.24a15.41,15.41,0,0,0,3.76.91l.39,3.67-5.49-1.6Z"/><path class="cls-20" d="M81.67,65.06s.78-.84,3.62-.17l-.57,2.51S81.9,65.89,81.67,65.06Z"/><path class="cls-21" d="M84,59.69s.5,6.88-2.34,8.3c0,0,2.34,5.6,11.63,2.27,0,0-1.49-2.06-1.84-8.65S84,55.16,84,59.69Z"/><path class="cls-13" d="M88.65,64.76c-3.45-1.57-6.72-4.76-7.59-8.52,0,0,0-.17,0-.49a3.63,3.63,0,0,1-1.85-.58c-1.86-1.21-1.82-3.14-1-4.93a3.92,3.92,0,0,0,.42-1.46,9,9,0,0,0-.17-1.62,12.94,12.94,0,0,1-.08-3.88,10.4,10.4,0,0,1,4.6-6.91A14,14,0,0,1,91,34.22c4.39.13,8.65.69,11.41,4.11a16.64,16.64,0,0,1,2.82,7.4c.11,2.19-.91,4.45-1.41,6.56-.45,1.91-.45,4.79,1.08,6,0,0,1.36,1.11.93,2.2s-3.58.35-3.58.35.27,1.75-1.37,1.72c0,0-.2,7-12.12,2.21"/><path class="cls-22" d="M78.08,47.57A2.78,2.78,0,0,0,75.88,49a1.77,1.77,0,0,0,.74,2.34,2,2,0,0,0-.69,2.14,2,2,0,0,0,1.78,1.39,1.13,1.13,0,0,0,1,1,3.22,3.22,0,0,0,1.53-.2,2.33,2.33,0,0,0,1.61.47,1.13,1.13,0,0,0,1-1.19c.54.25,1.17-.31,1.23-.9a2.73,2.73,0,0,0-.58-1.64A2.33,2.33,0,0,0,83,49.18a8,8,0,0,1-1.29-.8,4.88,4.88,0,0,0-.47-.55,1,1,0,0,0-1-.1c-.18.1-.39.26-.57.16a.66.66,0,0,1-.17-.23c-.25-.33-.75-.28-1.16-.2"/><path class="cls-23" d="M100.89,49.67a3.9,3.9,0,0,0-6-1.54"/><circle class="cls-3" cx="97.04" cy="52.97" r="3.18"/><g class="cls-24"><circle class="cls-25" cx="98.38" cy="53.14" r="2.19"/><circle cx="98.38" cy="53.14" r="1.34"/><circle class="cls-3" cx="97.81" cy="52.25" r="0.77"/></g><path class="cls-26" d="M98.23,59.59a7.38,7.38,0,0,0-6.66,3.75"/><path class="cls-22" d="M92.85,43.9a2.81,2.81,0,0,1,.56,2.46,1.51,1.51,0,0,1-2.09.91c.34,0,.53.41.49.74a1.7,1.7,0,0,1-.8,1.2,3.87,3.87,0,0,1-1.4.51c-.37.08-.89,0-.92-.35.38.2.25.79,0,1.12a2.75,2.75,0,0,1-4.23.11,1.73,1.73,0,0,1-2.85-.5,1.47,1.47,0,0,1-1.23.85A1.69,1.69,0,0,1,79,50.64a1,1,0,0,1-.18-1.31.46.46,0,0,1-.64.08,1,1,0,0,1-.34-.64,2.76,2.76,0,0,1,.49-2.14,2.71,2.71,0,0,1,1.92-1.06,1.2,1.2,0,0,1-.09-1.46,2.54,2.54,0,0,1,1.22-.94,6.66,6.66,0,0,1,1.68-.46c.49-.06,1.09,0,1.3.44a4.13,4.13,0,0,1,1.58-1.47,2.12,2.12,0,0,1,2.07.1,7.68,7.68,0,0,1,.85.86.34.34,0,0,0,.2.13.41.41,0,0,0,.28-.13l1-.83c.37-.31.87-.63,1.29-.41s.44.58.75.73a1.22,1.22,0,0,0,.73,0,1.07,1.07,0,0,1,.73.09c.2.14.26.5,0,.62"/><path class="cls-4" d="M92.13,44.12s13.36,5.67,18.58,3.61-4-5.59-4-5.59Z"/><circle class="cls-27" cx="110.39" cy="45.29" r="0.45"/><path class="cls-4" d="M76.56,48.6s10.52-5,30.59-5.9a6.51,6.51,0,0,0,.39-3.63c-.33-2.25-1.32-11.88-10.08-11.92S74.53,33.42,74.88,42.5C74.88,42.5,74.44,47,76.56,48.6Z"/><g class="cls-28"><path class="cls-4" d="M76.31,45.68S95.2,31.2,105.45,39.85L90.64,43.3Z"/><path class="cls-29" d="M72.46,47.64s13.48-8.78,38.13-8l-2.27,5.48L72.26,52l.13-3.84"/></g><path class="cls-30" d="M94.58,56a3.49,3.49,0,0,0,4.11.4"/><circle class="cls-13" cx="86.86" cy="51.84" r="3.76"/><path class="cls-31" d="M87.47,49.2a2.84,2.84,0,0,0-3.24,2.18s-.84,2.77,2.53,3.47"/><path class="cls-32" d="M81.2,67.26a6.27,6.27,0,0,0-4.8,4.86c-1,4.28-7,23.65-4.38,28.61s5.94,3.79,10.31,3.69,15,2,15.76-4.28-1.19-21.94-4.2-29.3C93.89,70.84,88.52,65.88,81.2,67.26Z"/><polygon class="cls-32" points="93.23 67.71 93.89 70.84 91.8 70.87 93.23 67.71"/><path class="cls-33" d="M81.67,65.06S88,68,93.23,67.71l-1,3.74s-11.07-2.08-12.68-3.6Z"/><circle class="cls-34" cx="94.39" cy="75.78" r="0.57"/><circle class="cls-34" cx="95.93" cy="82.94" r="0.57"/><circle class="cls-34" cx="96.76" cy="91" r="0.57"/><circle class="cls-34" cx="96.67" cy="99.39" r="0.57"/><path class="cls-32" d="M96.89,102.72s-2.66,6.42-7,7.91c-2.23.76-14.79.91-16.6-2.6S69,103.24,71.6,93.25c0,0,12.19,9.47,12.58,9.47Z"/><path class="cls-32" d="M84.83,71.43a94.9,94.9,0,0,1,9,13.9s-4.33,3.27-4.93,5.55c0,0-10.47-10.94-11.53-13.24S76,72.51,79.86,70.55,84.83,71.43,84.83,71.43Z"/><path class="cls-5" d="M96.13,62.34s-.88,4.89,3.87,1.41C100,63.75,99.47,62.3,96.13,62.34Z"/><g class="cls-35"><path class="cls-3" d="M95.66,62.11A3.59,3.59,0,0,0,98,63.91a3,3,0,0,0,2.8-.42l-2.38-1.83Z"/><path class="cls-36" d="M95.71,63.57s1.3-.14,2.26,2l-2.26-.22Z"/></g><path class="cls-37" d="M102.43,60.1a3.1,3.1,0,0,0-4.08.12c-2.3,1.78-3.84-1.15-3.84-1.15s-.62,4.16,4.81,4.7a6.33,6.33,0,0,0,2.6-.41C104.06,62.47,102.43,60.1,102.43,60.1Z"/><path class="cls-2" d="M111.67,105.24a1.37,1.37,0,0,1-1.67,1.18s-.32,1.48-2,.85a1.72,1.72,0,0,1-2.12.2,9.3,9.3,0,0,1-3.72-3.5s-1.87-1.73.38-4.55,4.55-.89,4.55-.89,4.46.26,5.17,3.12a6.41,6.41,0,0,1,.45.58S114.63,103.71,111.67,105.24Z"/><path class="cls-32" d="M93.49,83.94a91.66,91.66,0,0,1,11.9,14.52S103,102,101,102.28a66.14,66.14,0,0,1-13-12.76s-2.25-3.41.12-5,4-2,5.43-.57"/><path class="cls-38" d="M104.58,95.19l-6,6.84,1.78,1.56s6.08-2.82,6.59-4.07S104.58,95.19,104.58,95.19Z"/></g></svg>