<?xml version="1.0" encoding="utf-8"?>
<!-- Generator: Adobe Illustrator 23.0.1, SVG Export Plug-In . SVG Version: 6.00 Build 0)  -->
<svg version="1.1" id="Layer_1" xmlns="http://www.w3.org/2000/svg" xmlns:xlink="http://www.w3.org/1999/xlink" x="0px" y="0px"
	 viewBox="0 0 123.5 104" style="enable-background:new 0 0 123.5 104;" xml:space="preserve">
<style type="text/css">
	.st0{fill:none;}
	.st1{fill:#D60000;}
	.st2{fill:#F86531;}
	.st3{fill:#71B44D;}
	.st4{fill:#FFE700;}
	.st5{fill:#78DFFF;}
	.st6{fill:#0798E1;}
	.st7{fill:#3230AF;}
	.st8{fill:#D7E27D;}
</style>
<title>p11</title>
<g>
	<path class="st0" d="M71.5,49.1c-5-3.5-10.3-6.6-15.7-9.5C61.2,42.5,66.5,45.6,71.5,49.1c9.9,6.8,19,14.8,27,23.7
		c4.6,5.1,8.8,10.6,12.6,16.3l0,0c-3.8-5.7-8-11.2-12.6-16.3C90.5,63.8,81.4,55.9,71.5,49.1z"/>
	<path class="st0" d="M13.2,23.5C13.2,23.5,13.1,23.5,13.2,23.5c0.1,0,0.2,0,0.3,0C13.3,23.5,13.2,23.5,13.2,23.5
		C13.1,23.5,13.1,23.5,13.2,23.5C13.2,23.5,13.2,23.5,13.2,23.5z"/>
	<path class="st0" d="M13.4,23.6c0.1,0,0.2,0,0.3,0c0,0,0,0,0,0c0.5,0,1,0,1.5,0.2c-0.5-0.2-1-0.3-1.5-0.3c0,0,0,0,0,0
		C13.6,23.7,13.5,23.7,13.4,23.6z"/>
	<path class="st0" d="M12.2,23.3C12.2,23.3,12.2,23.3,12.2,23.3c0.3-0.1,0.5,0,0.7,0.1C12.7,23.2,12.4,23.2,12.2,23.3
		c-0.7-0.3-1.4-0.5-2.1-0.7l0,0C10.8,22.8,11.5,23.1,12.2,23.3z"/>
	<path class="st0" d="M14.7,24c0.3,0.1,0.6,0.1,1,0.1c0,0,0,0,0,0C15.3,24.1,15,24.1,14.7,24z"/>
	<path class="st0" d="M16.3,24.4c0.2,0.1,0.5,0.1,0.7,0c0,0,0,0-0.1,0c-0.3-0.2-0.6-0.3-0.9-0.3c0.3,0,0.7,0.1,0.9,0.3
		C16.7,24.4,16.5,24.4,16.3,24.4z"/>
	<path class="st0" d="M69.1,74.2c-8.3-7-17.5-13-27.2-17.8C51.6,61.3,60.7,67.3,69.1,74.2c8.6,7.3,16.3,15.7,22.7,25
		c0.7,1.1,1.4,2.1,2.1,3.2l0.1,0c-0.7-1.1-1.4-2.2-2.1-3.2C85.4,89.9,77.8,81.5,69.1,74.2z"/>
	<path class="st0" d="M35.1,45.7C45,49.9,54.4,55,63.3,61.2C54.4,55,45,49.9,35.1,45.7c-8.7-3.7-17.7-6.5-27-8.6l0,0
		C17.3,39.2,26.3,42.1,35.1,45.7z"/>
	<path class="st1" d="M56.1,13.3C42.9,7.3,28.5,2.6,13.4-0.5l-1.2,8.8c3.9,0.8,7.8,1.8,11.6,2.8c10.2,2.8,20.1,6.4,29.6,10.8
		c10.4,4.8,20.2,10.5,29.5,17.1c8.1,5.8,15.8,12.3,22.8,19.4c3,3,5.8,6.2,8.5,9.4l1.8-12C100.3,38.9,80.3,24.1,56.1,13.3z"/>
	<path class="st2" d="M82.9,38.9c-9.3-6.6-19.2-12.3-29.5-17.1c-9.6-4.4-19.5-8-29.6-10.8c-3.8-1.1-7.7-2-11.6-2.8l-1.1,7.7
		c4.4,0.9,8.8,2,13.1,3.3c10.3,3,20.3,6.8,29.9,11.5c13.3,6.5,25.8,14.7,37,24.5c8,7,15.2,14.8,21.6,23.3l1.6-10.7
		c-2.7-3.2-5.5-6.4-8.5-9.4C98.7,51.2,91.1,44.7,82.9,38.9z"/>
	<path class="st3" d="M12.2,23.3C12.2,23.3,12.2,23.3,12.2,23.3C12.2,23.3,12.3,23.3,12.2,23.3C12.2,23.3,12.2,23.3,12.2,23.3z"/>
	<path class="st3" d="M71.5,49.1c-5-3.5-10.3-6.6-15.6-9.5c-7.5-4-15.3-7.5-23.3-10.3c-4.9-1.7-9.9-3.2-15-4.6
		c-0.2-0.1-0.4-0.1-0.6-0.2c-0.2,0-0.5,0-0.7,0c-0.2,0-0.4-0.1-0.6-0.2c-0.3,0-0.7-0.1-1-0.1c-0.3-0.1-0.7-0.2-1-0.3
		c-0.1,0-0.2,0-0.3,0c-0.1,0-0.2-0.1-0.3-0.1c0,0,0,0,0,0c0,0,0,0,0,0c-0.3,0-0.6,0-0.9-0.2c-0.7-0.1-1.4-0.2-2.1-0.4L9,30.6
		c5.5,1.2,10.9,2.7,16.2,4.4c21,6.7,40.4,17.8,56.9,32.5c10.8,9.7,20,21.1,27.2,33.7l1.8-12.1c-3.8-5.7-8-11.2-12.6-16.3
		C90.5,63.8,81.4,55.9,71.5,49.1z"/>
	<path class="st4" d="M91,55.2c-11.2-9.7-23.6-18-37-24.5c-9.6-4.7-19.6-8.5-29.9-11.5c-4.3-1.2-8.7-2.3-13.1-3.3l-0.9,6.7
		c0.7,0.2,1.4,0.4,2.1,0.6c0.2-0.1,0.5-0.1,0.7,0.1c0.1,0,0.1,0.1,0.2,0.1c0.1,0,0.2,0,0.3,0c0.1,0,0.2,0.1,0.2,0.1
		c0.5,0,1.1,0,1.5,0.3c0.2,0.1,0.3,0.1,0.4,0.2c0.1,0,0.2,0,0.3,0c0.3,0,0.7,0.1,0.9,0.3c0,0,0,0,0.1,0c0.2,0.1,0.4,0.1,0.6,0.2
		c5.1,1.4,10.1,2.9,15,4.6c8,2.8,15.8,6.3,23.3,10.3c5.4,2.9,10.6,6,15.7,9.5c9.9,6.8,19,14.8,27,23.7c4.6,5.1,8.8,10.6,12.6,16.3
		l1.5-10.6C106.2,70,99,62.2,91,55.2z"/>
	<path class="st5" d="M82.1,67.5C65.6,52.9,46.3,41.8,25.2,35.1c-5.3-1.7-10.7-3.2-16.2-4.4l-0.9,6.5c9.2,2.1,18.2,5,27,8.6
		C45,49.9,54.4,55,63.3,61.2C76,69.9,87.1,80.8,96.2,93.4c2.3,3.2,4.4,6.5,6.4,9.9l6.4,0.6l0.4-2.7C102.1,88.6,93,77.2,82.1,67.5z"
		/>
	<path class="st6" d="M63.3,61.2C54.4,55,45,49.9,35.1,45.7c-8.7-3.6-17.7-6.5-27-8.6l-0.9,6.7c12,2.8,23.7,7,34.8,12.6
		c9.7,4.9,18.8,10.9,27.2,17.8c8.7,7.3,16.3,15.7,22.7,25c0.7,1.1,1.4,2.1,2.1,3.2l8.6,0.9c-2-3.4-4.1-6.7-6.4-9.9
		C87.1,80.8,76,69.9,63.3,61.2z"/>
	<path class="st7" d="M69,74.2c-8.3-7-17.4-13-27.1-17.9c-11.1-5.6-22.7-9.8-34.8-12.6l-0.9,6.5c4.9,1.2,9.8,2.6,14.4,4.3
		c28.5,10,50.2,27.3,64.1,47l9,0.9c-0.7-1.1-1.4-2.1-2.1-3.2C85.4,89.9,77.7,81.5,69,74.2z"/>
	<path class="st8" d="M10.1,22.7l0,0.3c0.7,0.1,1.4,0.3,2.1,0.4c0,0,0,0,0,0C11.5,23.1,10.8,22.8,10.1,22.7z"/>
	<path class="st8" d="M13.7,23.7c0.3,0.1,0.7,0.3,1,0.3c0.3,0.1,0.6,0.1,1,0.1c0,0,0,0,0,0c0,0,0,0,0,0c-0.1-0.1-0.3-0.2-0.4-0.2
		C14.7,23.7,14.2,23.6,13.7,23.7C13.7,23.7,13.7,23.7,13.7,23.7z"/>
	<path class="st8" d="M15.7,24.1C15.7,24.1,15.7,24.1,15.7,24.1c0.2,0.1,0.4,0.2,0.6,0.2c0.2,0,0.4,0.1,0.6,0
		c-0.3-0.2-0.6-0.3-0.9-0.3C15.9,24.1,15.8,24.1,15.7,24.1C15.6,24.1,15.6,24.1,15.7,24.1C15.6,24.1,15.7,24.1,15.7,24.1z"/>
	<path class="st8" d="M12.3,23.3C12.3,23.3,12.2,23.3,12.3,23.3c0.3,0.2,0.6,0.2,0.9,0.2c0,0,0,0,0,0c0,0,0,0,0,0
		c-0.1-0.1-0.1-0.1-0.2-0.1C12.7,23.3,12.5,23.2,12.3,23.3z"/>
	<path class="st8" d="M13.2,23.5c0.1,0.1,0.2,0.1,0.3,0.1c0.1,0,0.2,0,0.3,0c0,0,0,0,0,0c-0.1-0.1-0.2-0.1-0.2-0.1
		C13.3,23.5,13.2,23.5,13.2,23.5C13.1,23.5,13.2,23.5,13.2,23.5z"/>
</g>
</svg>
