<svg id="Layer_1" data-name="Layer 1" xmlns="http://www.w3.org/2000/svg" xmlns:xlink="http://www.w3.org/1999/xlink" viewBox="0 0 1024 600"><defs><style>.cls-1{fill:none;}.cls-2{clip-path:url(#clip-path);}.cls-3{fill:#0c0807;}.cls-4{fill:#a56636;}</style><clipPath id="clip-path"><rect id="SVGID" class="cls-1" y="-991" width="1024" height="600"/></clipPath></defs><title>Akili_wave</title><g class="cls-2"><path class="cls-3" d="M6.92,27.68c4.47,3.49,4.56,3.38,8.31-1.05,10.26-12.17,23.39-20.14,38-26C57.54,4.4,61.9,8.1,67.06,10.91A178.31,178.31,0,0,1,84.61,22C91.9,27.17,99.1,32.49,104.27,40c7.88,11.39,7,33.87-12.61,41.35C83.5,84.43,75,84.25,66.54,83.74c-16.06-1-31.4-4.69-44.63-14.28a26.37,26.37,0,0,0-13-5.09c-11.77-1.43-21-6.81-24.61-19-3.49-11.78-1.46-23.19,2.94-34.34.39-1,.84-2.24,2.41-1.5C-6.72,17.64.28,22.51,6.92,27.68ZM68.28,44.46c8.49-5.24,10.27-12.28,5.31-20.95C71,19,67.43,15.44,63.79,11.87c-1.72-1.69-3.48-1.34-5.48-.8C47.18,14.11,39,21.39,31.52,29.66c-2.47,2.75-7.09,5.57-6.18,8.87.76,2.78,6.05,3.5,9.37,5,5.39,2.5,10.77,5.06,18,5.06C57.41,48.21,63.17,47.61,68.28,44.46Z"/><path class="cls-4" d="M-10.34,9.58C-6.72,17.64.28,22.51,6.92,27.68c4.47,3.49,4.56,3.38,8.31-1.05,10.26-12.17,23.39-20.14,38-26C47.73-6.68,46.55-15.49,44.65-24c-2.5-11.16-11.48-61-13.83-72.16-8.52.53-17,2.1-25.56,1.49-7.82-.56-15.65-1-23.48-1.54,1.09,15.65,9.47,69.84,9.44,85.54A113.48,113.48,0,0,1-10.34,9.58Z"/><path class="cls-4" d="M52.74,48.63c4.67-.42,10.43-1,15.54-4.17,8.49-5.24,10.27-12.28,5.31-20.95C71,19,67.43,15.44,63.79,11.87c-1.72-1.69-3.48-1.34-5.48-.8C47.18,14.11,39,21.39,31.52,29.66c-2.47,2.75-7.09,5.57-6.18,8.87.76,2.78,6.05,3.5,9.37,5C40.1,46.07,45.48,48.63,52.74,48.63Z"/></g></svg>