<svg id="Layer_1" data-name="Layer 1" xmlns="http://www.w3.org/2000/svg" xmlns:xlink="http://www.w3.org/1999/xlink" viewBox="0 0 1024 600"><defs><style>.cls-1{fill:none;}.cls-2{clip-path:url(#clip-path);}.cls-3{fill:#a46636;}.cls-4{fill:#0798ff;}.cls-5{fill:#d60000;}.cls-6{fill:#06b800;}.cls-7{fill:#ffe700;}.cls-8{fill:#a56636;}.cls-9{fill:#6c401d;}.cls-10{fill:#faf8f7;}.cls-11{fill:#600b0c;}.cls-12{fill:#f2ecec;}.cls-13{fill:#fff;}.cls-14{fill:#734725;}.cls-15{fill:#522f27;}.cls-16{fill:#0c0807;}.cls-17{fill:#060504;}</style><clipPath id="clip-path"><rect id="SVGID" class="cls-1" width="1024" height="600"/></clipPath></defs><title>Akili_wave</title><g class="cls-2"><path class="cls-3" d="M3.05,575.15S-40,461.8-40.19,421.9a98.12,98.12,0,0,0-.57-40.53,39.81,39.81,0,0,0-1.82-4.59l5.75-39.15s1.23-7.64-5.12-8.26c0,0-4.18-1.71-7.75,14.57l-6.23,25.29-1.39,4.43-2.71.08L-62.24,341s1.64-14.21-5-15.82c0,0-7.86-3.11-7.8,17.24l-.53,34.76c-.13.28-.26.58-.38.89,0,0-9.64-3.14-11.86,8.92,0,0-8.59,2.32-8.35,11.67,0,0-1.83,14.89,7.7,33.44,0,0,47.44,124.6,71.07,149.77,0,0,5,8.76,15.73,2.63C-1.62,584.46,4,580.84,3.05,575.15Z"/><path class="cls-4" d="M-24.1,609.88a21.73,21.73,0,0,1-2.73-7c-1.14-5-2.21-.84-2.6-6.52A57.39,57.39,0,0,0-35.71,575a9.29,9.29,0,0,1-1.36-4.4c0-1.13,1.57-3.12,2.35-3.94,5.69-6,11.45-8.57,19.21-10.26,4.55-1,9-1.35,13.6-2.08,2.24-.35,4.21-.56,6,.87a21.11,21.11,0,0,1,3.23,4.63c3.54,6.78,7.64,11.27,12.58,17.11,5.43,6.42,8.6,12.24,9.25,19.85.45,5.16-.7,10.33-2.38,15.23-2.07,6-1,3.08-5.48,7.57S10.52,627,4.15,626.72c-3.59-.18-7-1.39-10.42-2.59-3.74-1.31-7.56-2.68-10.65-5.17S-22,613.18-24.1,609.88Z"/><path class="cls-4" d="M57.41,959.6s-37.94-1.15-61.68-13.14-31.51-12.78-36.48-13.59-43.9-4.5-61.13-11.74S-145.1,904-153.43,886a291.52,291.52,0,0,0,37.08-61.76c16-36.36,41.19-78.94,56.77-100.45s39.3-84.12,39.3-84.12,10-45.87,22.62-55.88C16,572.94,39.27,582,74.83,592.5c28.88,8.5,53,29.17,59.54,34.5s-14.8,76.92-19.28,91.33S87.19,791,81.77,811.44,70.54,875.3,68,896.61C65.32,918.27,57.41,959.6,57.41,959.6Z"/><polygon class="cls-5" points="16.38 581.93 32.6 584.23 121.4 615.52 129.64 619.64 109.36 664.28 8.2 628.02 16.38 581.93"/><path class="cls-6" d="M28.32,583.31l13,.93,71.21,24.88c1.54.7,4.05,3.43,4.27,3.33l4.53,2.68-17.18,34.72-83-30.51Z"/><polygon class="cls-7" points="40.63 583.96 58.02 585.42 104.98 602.84 112.69 608.8 98.37 636.64 33.64 612.65 40.63 583.96"/><path class="cls-8" d="M92.85,627.6l11.86-21s-7-3.85-7.18-11.14-.47-16.51-17-22.18c-16-5.47-14.71,3-16.58,5.68a76,76,0,0,0-4.07,6.91s-1.74,4.47-7.62,3.86c-4.39-.45-4.44,19.11-4.44,19.11Z"/><path d="M106.56,566s26.47,40.9,29,69.45c0,0,15.51-47.94,22.39-60.68,0,0,10.38,52.87,43.35,70.76,0,0-22.91-34-.51-74.16,0,0,69.65-3.28,116.45-49.06,0,0-3.91-66.69-8.79-79.73,0,0,32.67-40.49,24.64-69.2,0,0-38.74-45.23-70.49-49.94,0,0-8.21-43.77-46-72.5,0,0-70.55-11-99.27,16.85,0,0-73.07-9.81-84.45-9.76,0,0-37.24,36.24-35.24,70.69,0,0-40,30.11-44.79,50.48,0,0,12.11,60.14,41.76,87.7s-39.3,90.31-39.3,90.31,48.83-20.52,73.47-19.58c0,0-16.85,21.18-28.52,43.64C.26,581.26,64.44,538.89,106.56,566Z"/><path class="cls-8" d="M275.46,484.9l7-30.61s1.82-3.74,4.85-4.7S303.1,444,303.1,444s-13.23-3.56-18.81-2.13c-1.73-.43-2.79.71-3.51-2.32s-10.31-37.45-10.31-37.45S241.79,371,238.3,365.81s-4.28-6.57-.81-12.09S250.16,335.27,252,333c0,0-22.32,18.93-24.91,21.72s-5.53-.66-6.29-1.37-38.56-30.17-38.56-30.17-1.15-1.3-5.59-2.12-42.57-6-50-4.9c-2.46-.16-3.23-1.11-3.52-2.32s-10.1-21.91-10.87-29.72c0,0,.24,23.37-1,27.21-.22,4.05-2.61,2.3-3.69,2.71s-34.19,5.78-34.19,5.78l-30.26,29.5S18.83,332.59,7.61,333.73c0,0,15.86,5,26.39,18.62,0,0-12.85,13.57-14.41,21.09-23.16,42.71-27.69,73-27.68,93.31,2.79,36.13,31.71,77.18,51.48,95.55,31,26,48.88,31.26,88.65,34.22,15-5.45,59.11,3,109.5-51.74Z"/><path class="cls-8" d="M249.68,548.09c-2.59-.46-6.19-1.83-7.19-3.13-1.46-1.92-1.39-5.07-1.6-7.46-1-10.9,5.1-21,10.93-30.3l5.31-8.44c2.37-3.76,4.77-7.56,7.95-10.67s7.49-5.67,11.93-6,6.95.81,11,2.81c3.56,1.75,8.62,5.21,10.5,8.71a19,19,0,0,1,2.08,11.67,57.1,57.1,0,0,1-5,17c-2.27,5-6.63,9.41-10.53,13.24A49.87,49.87,0,0,1,267.35,547C260.47,549.62,256,549.21,249.68,548.09Z"/><path class="cls-9" d="M284.11,494.52c-1.61-.68-3.43-1.6-5.17-1.54a35.53,35.53,0,0,0-8.17.91c.6-1.92,2.58-2.75,5.22-4.27a11.42,11.42,0,0,1,4.18-1.4,12.76,12.76,0,0,1,6.47,1.17c6.33,2.81,9.71,9.44,9.67,16.37s-5.1,12.92-9.57,18.21c-10.68,12.63-21.26,17.79-30.34,18.79-.4,0-8.81,1.86-10.8-1.62a5.73,5.73,0,0,1-.46-1.51c-.17-1.47-.32-4.2,1.31-6.23a5.21,5.21,0,0,1,6.29-1.82c-1.64,1.76-2.51,4.09-1.18,6.1a4,4,0,0,0,1.76,1.16c.64.27,4.24-.31,4.94-.37,4.12-.36,6.14-1.56,9.59-3.84a51,51,0,0,0,6.67-5.14c4.2-3.88,9.71-8.92,13.15-14.39s3.92-14.12-.84-18.72A8.89,8.89,0,0,0,284.11,494.52Z"/><path class="cls-8" d="M-10.39,435.68c2.18,1.47,5.09,4.37,6.71,4.12,2.38-.36,4.52-2.67,6.34-4.25,8.26-7.17,11-18.68,13.19-29.39l2-9.75a57.28,57.28,0,0,0,1.7-13.2c-.13-4.44.39-8.2-2.57-11.51s-8.22-7.61-12.54-9c-3.78-1.21-9.22-2.84-13-1.63-4,1.27-6.84,6.47-9.4,9.81-3.55,4.63-5.27,10.18-7.21,15.67-1.81,5.16-1.43,11.75-1.29,17.22.18,7.36,3.91,12.62,7,19.29S-15.73,432.08-10.39,435.68Z"/><path class="cls-9" d="M3.09,372.26c1.63.62,3.58,1.23,4.79,2.48a36.49,36.49,0,0,1,5.25,6.33c.9-1.8,0-3.76-.8-6.69a11.28,11.28,0,0,0-2-3.92,12.8,12.8,0,0,0-5.46-3.65c-6.51-2.38-13.55.05-18.33,5.05s-6.56,16.15-7,23.06c-1.09,16.5,3.71,26.87,9.54,33.9.26.31,5.05,7.45,8.9,6.33a5.86,5.86,0,0,0,1.38-.77c1.14-.93,3.14-2.8,3.39-5.38a5.24,5.24,0,0,0-3.27-5.69c0,2.41-1,4.69-3.39,5.21A3.83,3.83,0,0,1-6,428.14c-.66-.25-2.85-3.17-3.31-3.7-2.71-3.12-4.15-7.13-5.05-11.17a52.15,52.15,0,0,1-1.23-8.33c-.32-5.71-.78-13.16.54-19.49s8.3-13.74,14.91-13.75A9,9,0,0,1,3.09,372.26Z"/><path class="cls-10" d="M143.87,474.92c3.2-11.74,11.19-19.28,22.95-22.06,15-3.57,29.59-1.32,43.05,6.18,13.21,7.37,20.8,25.4,16.12,39.59-3.73,11.3-14.53,23.14-31.92,22.91A65,65,0,0,1,155.51,508C143.91,497.52,140.57,487.06,143.87,474.92Z"/><path class="cls-10" d="M38.56,430.77c4.15-11.1,16-19.42,29-19.26,17.64.22,32.5,7.39,43.87,20.75,7.37,8.65,8.57,19,4,29.52-4.85,11.1-12.27,19.7-25.45,20.07a65.37,65.37,0,0,1-41.2-12.94C36,457.15,33.29,444.86,38.56,430.77Z"/><path class="cls-11" d="M134.33,546.92s3.31-1.53-.79-1.32a74.55,74.55,0,0,1-44.47-14.53,40.53,40.53,0,0,1-5.63-4.87c-.56-.41-1,.1-.26,1s8,8.64,9.1,13,5.24,6.17,6.12,6.75,9.54,4.73,16,4.86C121,551.14,122.46,547.11,134.33,546.92Z"/><path class="cls-12" d="M136,544.9s-2.15,3.2-14.45,1.69a70.94,70.94,0,0,1-29.53-11,33,33,0,0,1-8.93-9.83Z"/><path class="cls-13" d="M117.58,551s-10.8-2.6-12.91-3.38-10.9-5.05-14.44-4.8S109.28,558.36,117.58,551Z"/><path class="cls-14" d="M74,519.51c2.21,3.59,6.44,7.29,8,13.29.46,1.83.69,5.37,1.42,7.11.57,1.36.79,4.12,1.72,5.26a37.5,37.5,0,0,0,11.33,9.36c3.32,1.82,7.09,2.67,10.59,4a23.54,23.54,0,0,0,12.24,1.21,8.36,8.36,0,0,0,2.5-.78,13,13,0,0,0,3.21-2.82,33.43,33.43,0,0,1,18.15-10,.39.39,0,0,0,0-.76l-5.37-1a12.1,12.1,0,0,1-2.63-.8,54,54,0,0,1-5.81-2.86,60.26,60.26,0,0,0-8.1-4c-3.84-1.55-11.44-4.14-15.38-5.43C93.36,527.18,83,524.68,74,519.51Zm9.48,6.69a40.53,40.53,0,0,0,5.63,4.87,74.55,74.55,0,0,0,44.47,14.53c4.1-.21.79,1.32.79,1.32-11.87.19-13.38,4.22-19.9,4.89-6.49-.13-15.15-4.28-16-4.86s-5.05-2.45-6.12-6.75-8.34-12-9.1-13S82.88,525.79,83.44,526.2Z"/><path class="cls-15" d="M106.74,509.1c9.11,9.8,24.39,8.2,33.45,2.49,3.8-2.39,3.62-5.28-.3-7.34a18.8,18.8,0,0,0-3.94-1.56,196.31,196.31,0,0,1-30-10.59c-1.93-.85-4.09-1.93-6-.31-2.09,1.77-1.16,4.16-.5,6.32A22.1,22.1,0,0,0,106.74,509.1Z"/><path class="cls-16" d="M224.18,433.73c-9-7.27-19.36-13.19-32.22-13.19a25.54,25.54,0,0,0-3.38.28c-1.49.2-2.92.88-3.23,2.35-.39,1.85,1.38,2.23,2.65,2.71,4.22,1.59,8.47,3.12,12.72,4.64,15,5.35,24.57,16.43,31.77,30.05a28.78,28.78,0,0,0,2.71,4.27c.72.92,1.48,2.37,3,1.74,1.36-.55,1.4-2,1.53-3.28.42-4.1-1.08-7.85-2.63-11.45C234.24,445.18,229.89,439.46,224.18,433.73Z"/><path class="cls-16" d="M53,394.2c-2.13,2.33-4.64,4.52-3.13,6.67,1.67,2.39,4.41.06,6.46-.81,5.07-2.17,10-4.56,15.32-6.23,11.54-3.66,22.91-2.52,34.22,1.07,2.84.89,5.69,1.73,8.56,2.49,1.22.32,2.69.62,3.49-.68.92-1.5-.14-2.65-1.12-3.73a24.9,24.9,0,0,0-9.78-6.56c-18.2-6.9-35.5-5.32-51.7,5.77A20.74,20.74,0,0,0,53,394.2Z"/><path class="cls-15" d="M167.68,470.92a23.35,23.35,0,1,1,1.25,32.84A23.38,23.38,0,0,1,167.68,470.92Zm37.12,12.63c-1-3.85-3.93-5.52-9.18-5.22-2-3.95-9.23-6.89-14.14-5.75a16.4,16.4,0,0,0-12.86,15.31c-.14,7.43,4.52,13.28,12.14,15.25,6.66,1.72,14-1.9,17.58-8.62.33-.62.67-1.24,1-1.86C204.09,490.22,205.79,487.38,204.8,483.55Z"/><path class="cls-17" d="M195.62,478.33c-2-3.95-9.23-6.89-14.14-5.75a16.4,16.4,0,0,0-12.86,15.31c-.14,7.43,4.52,13.28,12.14,15.25,6.66,1.72,14-1.9,17.58-8.62.33-.62.67-1.24,1-1.86-3.89-.16-7.34-1.16-8.37-5.49C190,483,192,480.17,195.62,478.33Z"/><path class="cls-10" d="M195.62,478.33C192,480.17,190,483,191,487.17c1,4.33,4.48,5.33,8.37,5.49,4.74-2.44,6.44-5.28,5.45-9.11S200.87,478,195.62,478.33Z"/><path class="cls-15" d="M59.44,432.14a23.35,23.35,0,1,1,.3,32.87A23.37,23.37,0,0,1,59.44,432.14Zm36.73,13.7c-.89-3.89-3.76-5.63-9-5.49-1.9-4-9-7.15-14-6.15a16.38,16.38,0,0,0-13.29,14.94c-.35,7.42,4.13,13.4,11.7,15.59,6.6,1.91,14.09-1.5,17.82-8.12.34-.61.7-1.22,1.06-1.82C95.28,452.48,97.06,449.69,96.17,445.84Z"/><path class="cls-17" d="M87.15,440.35c-1.9-4-9-7.15-14-6.15a16.38,16.38,0,0,0-13.29,14.94c-.35,7.42,4.13,13.4,11.7,15.59,6.6,1.91,14.09-1.5,17.82-8.12.34-.61.7-1.22,1.06-1.82-3.89-.27-7.3-1.38-8.21-5.74C81.38,444.86,83.44,442.09,87.15,440.35Z"/><path class="cls-10" d="M87.15,440.35c-3.71,1.74-5.77,4.51-4.89,8.7.91,4.36,4.32,5.47,8.21,5.74,4.81-2.31,6.59-5.1,5.7-9S92.41,440.21,87.15,440.35Z"/></g></svg>