<svg id="Layer_1" data-name="Layer 1" xmlns="http://www.w3.org/2000/svg" xmlns:xlink="http://www.w3.org/1999/xlink" viewBox="0 0 1024 600"><defs><style>.cls-1{fill:none;}.cls-2{clip-path:url(#clip-path);}.cls-3{fill:#a46636;}.cls-4{fill:#895430;}.cls-5{fill:#0798ff;}.cls-6{fill:#d60000;}.cls-7{fill:#06b800;}.cls-8{fill:#ffe700;}.cls-9{fill:#a56636;}.cls-10{fill:#6c401d;}.cls-11{fill:#faf8f7;}.cls-12{fill:#600b0c;}.cls-13{fill:#f2ecec;}.cls-14{fill:#fff;}.cls-15{fill:#734725;}.cls-16{fill:#522f27;}.cls-17{fill:#0c0807;}.cls-18{fill:#060504;}.cls-19{clip-path:url(#clip-path-2);}</style><clipPath id="clip-path"><rect id="SVGID" class="cls-1" width="1024" height="600"/></clipPath><clipPath id="clip-path-2"><rect id="SVGID-2" data-name="SVGID" class="cls-1" y="-1003" width="1024" height="600"/></clipPath></defs><title>Akili_wave</title><g class="cls-2"><path class="cls-3" d="M46.1,457.71S-14,352.41-20.38,313a98.31,98.31,0,0,0-6.85-39.95,41.54,41.54,0,0,0-2.51-4.25l-.39-39.57s0-7.73-6.35-7.37c0,0-4.38-1-5.39,15.6l-2.24,26-.68,4.59-2.67.5-7.26-32s-.58-14.29-7.35-14.86c0,0-8.25-1.85-5,18.25l4.87,34.41c-.09.3-.17.62-.24.94,0,0-10-1.61-10.33,10.66,0,0-8.13,3.61-6.44,12.82,0,0,.51,15,12.79,31.84,0,0,66.19,115.73,93.44,136.94,0,0,6.28,7.88,16,.16C42.93,467.64,47.88,463.19,46.1,457.71Z"/><path class="cls-3" d="M196.53,520.42S313.38,488,345.62,464.47a98.06,98.06,0,0,1,33-23.55,39.78,39.78,0,0,1,4.77-1.26l28.14-27.82s5.42-5.52,9.69-.77c0,0,3.85,2.35-7.16,14.88l-16.67,20-2.75,3.74,1.54,2.23,27.71-17.64s10.48-9.74,15.69-5.37c0,0,7.16,4.49-9.27,16.5l-27.69,21c-.15.28-.31.56-.49.84,0,0,8.24,5.9-.17,14.84,0,0,3.23,8.29-4.45,13.64,0,0-10.91,10.29-31.5,13.61,0,0-128.48,35.59-162.76,31.47,0,0-10,1.17-11.44-11.12C191.8,529.7,191.42,523.06,196.53,520.42Z"/><path class="cls-4" d="M387.87,487.65c-3.09-1.53-5.87-3.23-8.79-4.59a30.47,30.47,0,0,0-4.42-1.78,16.49,16.49,0,0,0-4.81-.7,8.21,8.21,0,0,1,5.14-1,14.42,14.42,0,0,1,5.06,1.47,20,20,0,0,1,4.35,2.81A17.25,17.25,0,0,1,387.87,487.65Z"/><path class="cls-3" d="M395.66,468.07l40-12.73s9.44-4.27,11.86,3.43c0,0,1.17,5.41-11.76,9.89l-34.86,13-4.68-7.57Z"/><path class="cls-3" d="M390.35,484.08l41.4-7.08s9.95-2.93,11.27,5c0,0,.42,5.52-13,8.17l-36.32,8.05-3.59-8.14Z"/><path class="cls-3" d="M347.69,463s5.77-25.43,14.38-37.38c0,0,12.86-10.87,9.82,22.53l-9.95,21.6-13.58-5.5"/><path class="cls-4" d="M373.23,450.93a22.46,22.46,0,0,1,1,6.19,26.63,26.63,0,0,1-.49,6.29,20.72,20.72,0,0,1-2.12,6,12.59,12.59,0,0,1-4.28,4.67,27.41,27.41,0,0,0,2.68-5.4A42.57,42.57,0,0,0,371.5,463C372.29,459.07,372.66,455.08,373.23,450.93Z"/><path class="cls-4" d="M398.73,489.05a53,53,0,0,0,.11-12,48.83,48.83,0,0,0-2.54-11.56,23.83,23.83,0,0,0-1.05-2.77,27.06,27.06,0,0,0-1.2-2.7l-1.34-2.65c-.48-.87-1-1.68-1.54-2.54-1-1.74-2.26-3.27-3.41-4.92l-.44-.62-.49-.57-1-1.14c-.66-.77-1.3-1.56-1.94-2.36.8.62,1.59,1.26,2.38,1.92l1.18,1,.58.5.53.56a39.84,39.84,0,0,1,4,4.65,39.32,39.32,0,0,1,5.81,10.93c.3,1,.64,2,.9,3s.46,2,.67,3,.27,2.06.41,3.08.12,2.07.17,3.1A32.83,32.83,0,0,1,398.73,489.05Z"/><path class="cls-5" d="M174.87,562.54a21.75,21.75,0,0,0,7.45-.5c5-1.11,7.92-5.81,13.22-7.87a57.11,57.11,0,0,1,22.08-3.47,9.29,9.29,0,0,0,4.57-.65c1-.52,2.14-2.75,2.56-3.8,3-7.72,2.86-14,1.07-21.76-1-4.54-2.61-8.71-3.92-13.18-.63-2.18-1.29-4.05-3.33-5a21.31,21.31,0,0,0-5.57-.95c-7.64-.3-13.46-2.1-20.84-4.07-8.13-2.18-14.73-2.56-21.9.09-4.86,1.8-9,5.05-12.76,8.66-4.57,4.44-8.59,9.62-10.72,15.62s-2.2,12.93.81,18.55c1.69,3.17,4.25,5.77,6.78,8.33,2.79,2.82,5.65,5.69,9.22,7.42S171,562.09,174.87,562.54Z"/><path class="cls-5" d="M24.66,496.23a21.6,21.6,0,0,1-3.77-6.44c-1.9-4.77-2.31-.49-3.58-6a57.22,57.22,0,0,0-9.54-20.22,9.38,9.38,0,0,1-2-4.14c-.14-1.12,1.07-3.33,1.71-4.26,4.68-6.84,10-10.23,17.39-13.11,4.34-1.69,8.67-2.73,13.11-4.16,2.16-.7,4.07-1.21,6-.07a21.33,21.33,0,0,1,3.92,4.07c4.54,6.15,9.29,9.95,15.07,14.95,6.36,5.5,10.39,10.76,12.22,18.18,1.24,5,.91,10.32,0,15.41-1.11,6.28-.47,3.19-4.24,8.33s-9.46,9.08-15.8,9.75c-3.57.37-7.16-.29-10.7-.94-3.89-.72-7.88-1.48-11.31-3.46S27.19,499.17,24.66,496.23Z"/><path class="cls-5" d="M107.41,839.6s-37.94-1.15-61.68-13.14S14.22,813.68,9.25,812.87s-43.9-4.5-61.13-11.74S-95.1,784-103.43,766a291.52,291.52,0,0,0,37.08-61.76c16-36.36,41.19-78.94,56.77-100.45s39.3-84.12,39.3-84.12,10-45.87,22.62-55.88C66,452.94,89.27,462,124.83,472.5c28.88,8.5,53,29.17,59.54,34.5s-14.8,76.92-19.28,91.33-27.9,72.67-33.32,93.11S120.54,755.3,118,776.61C115.32,798.27,107.41,839.6,107.41,839.6Z"/><polygon class="cls-6" points="66.38 461.93 82.6 464.23 171.4 495.52 179.64 499.64 159.36 544.28 58.2 508.02 66.38 461.93"/><path class="cls-7" d="M78.32,463.31l13,.93,71.21,24.88c1.54.7,4.05,3.43,4.27,3.33l4.53,2.68-17.18,34.72-83-30.51Z"/><polygon class="cls-8" points="90.64 463.96 108.02 465.42 154.98 482.84 162.69 488.8 148.37 516.64 83.64 492.65 90.64 463.96"/><path class="cls-9" d="M142.85,507.6l11.86-21s-7-3.85-7.18-11.14-.47-16.51-17-22.18c-16-5.47-14.71,3-16.58,5.68a76,76,0,0,0-4.07,6.91s-1.74,4.47-7.62,3.86c-4.39-.45-4.44,19.11-4.44,19.11Z"/><path d="M158.6,449.29s21.2,43.86,20.16,72.5c0,0,21.32-45.65,29.72-57.44,0,0,3.76,53.75,34.26,75.58,0,0-18.52-36.62,8.67-73.65,0,0,69.52,5.36,121.63-34.27,0,0,4.37-66.67,1.14-80.21,0,0,37.43-36.13,33-65.62,0,0-32.85-49.67-63.77-58.28,0,0-2.74-44.44-36.66-77.63,0,0-68.64-19.65-100.59,4.44,0,0-71.29-18.78-82.6-20.14,0,0-41.43,31.36-43.71,65.79,0,0-43.45,24.92-50.69,44.54,0,0,4.57,61.19,30.59,92.2S9.6,421.85,9.6,421.85s51-14.31,75.32-10.34c0,0-19.35,18.94-33.7,39.78C51.22,451.29,120.15,417.19,158.6,449.29Z"/><path class="cls-9" d="M336.23,389.73l10.69-29.52s2.27-3.48,5.39-4.07,16.4-3.59,16.4-3.59-12.68-5.17-18.39-4.44c-1.67-.64-2.86.36-3.2-2.74s-5.59-38.43-5.59-38.43-24.61-34.46-27.44-40-3.43-7.05.69-12.09,14.86-16.75,17-18.77c0,0-24.49,16-27.41,18.47s-5.41-1.33-6.07-2.13-34.53-34.71-34.53-34.71-1-1.44-5.28-2.8-41.5-11.25-49-11c-2.42-.46-3.06-1.5-3.2-2.74s-7.32-23-7.12-30.83c0,0-2.65,23.22-4.32,26.88-.72,4-2.88,2-4,2.23s-34.64,1.5-34.64,1.5l-33.68,25.54s-22.1-19.62-33.37-19.88c0,0,15.1,7,23.88,21.75,0,0-14.43,11.87-16.91,19.14-28.27,39.52-36.51,69-39,89.17C55.4,372.82,79,417.14,96.36,437.81c27.5,29.59,44.64,37.08,83.74,44.93,15.54-3.55,58.28,10.27,115.06-37.8Z"/><path class="cls-9" d="M302.82,449.24c-2.51-.78-5.91-2.58-6.74-4-1.21-2.08-.75-5.2-.67-7.6.4-10.94,7.67-20.25,14.6-28.72l6.32-7.71a56.93,56.93,0,0,1,9.2-9.6c3.54-2.7,8.14-4.71,12.58-4.48s6.8,1.66,10.6,4.15c3.32,2.18,7.91,6.24,9.35,9.94a19.1,19.1,0,0,1,.62,11.84,57.34,57.34,0,0,1-7.05,16.24c-2.87,4.65-7.75,8.51-12.09,11.83a49.94,49.94,0,0,1-19,9.2C313.35,452.09,309,451.13,302.82,449.24Z"/><path class="cls-10" d="M343.62,400.34c-1.51-.87-3.21-2-4.94-2.17a35.89,35.89,0,0,0-8.22-.11c.84-1.83,2.9-2.4,5.71-3.58a11.23,11.23,0,0,1,4.32-.88,12.91,12.91,0,0,1,6.28,2c5.93,3.57,8.46,10.57,7.57,17.44s-6.66,12.19-11.75,16.89c-12.16,11.21-23.3,15-32.44,14.89-.4,0-9,.75-10.51-2.95a5.42,5.42,0,0,1-.27-1.55c0-1.48.21-4.21,2.07-6a5.21,5.21,0,0,1,6.47-1c-1.84,1.54-3,3.75-1.93,5.91a4,4,0,0,0,1.6,1.37c.6.35,4.25.22,4.95.25,4.14.15,6.28-.8,10-2.63a51.34,51.34,0,0,0,7.26-4.27c4.65-3.34,10.74-7.65,14.83-12.66s5.63-13.53,1.48-18.68A8.88,8.88,0,0,0,343.62,400.34Z"/><path class="cls-9" d="M58.67,305.51c2,1.73,4.51,5,6.15,4.92,2.4-.06,4.81-2.09,6.81-3.43,9.09-6.1,13.18-17.18,16.72-27.53L91.59,270c1.44-4.21,2.89-8.46,3.31-12.88s1.41-8.09-1.12-11.75-7.21-8.56-11.33-10.48c-3.6-1.67-8.8-4-12.7-3.23-4.14.77-7.58,5.58-10.54,8.58-4.09,4.15-6.49,9.44-9.09,14.66-2.44,4.89-2.88,11.48-3.42,16.92-.72,7.33,2.33,13,4.6,20S53.82,301.27,58.67,305.51Z"/><path class="cls-10" d="M79.89,244.24c1.54.83,3.4,1.67,4.45,3.06a36,36,0,0,1,4.42,6.93c1.11-1.67.52-3.73,0-6.74a11.34,11.34,0,0,0-1.53-4.13,12.78,12.78,0,0,0-5-4.3c-6.16-3.17-13.45-1.64-18.82,2.74s-8.5,15.21-9.81,22c-3.13,16.24.35,27.12,5.27,34.82.22.34,4.09,8,8,7.38a5.33,5.33,0,0,0,1.47-.59c1.25-.78,3.47-2.38,4-4.92a5.24,5.24,0,0,0-2.54-6.05c-.34,2.39-1.61,4.53-4,4.76a4,4,0,0,1-2-.64c-.62-.33-2.43-3.5-2.82-4.08-2.31-3.43-3.23-7.59-3.63-11.71a52.61,52.61,0,0,1-.19-8.42c.39-5.71.85-13.16,3-19.27,2.15-6.26,9.93-12.61,16.5-11.8A9.13,9.13,0,0,1,79.89,244.24Z"/><path class="cls-11" d="M206.89,363.54c4.62-11.26,13.49-17.75,25.49-19.06a58.48,58.48,0,0,1,42,11.47c12.2,8.94,17.5,27.78,11.1,41.28-5.1,10.75-17.28,21.16-34.51,18.78a64.9,64.9,0,0,1-36.58-18.26C204.12,386,202.11,375.18,206.89,363.54Z"/><path class="cls-11" d="M107.84,306.7c5.5-10.5,18.3-17.29,31.17-15.53,17.47,2.4,31.33,11.36,41,26,6.24,9.5,6.15,19.94.3,29.78-6.19,10.42-14.62,18-27.74,16.78a65.33,65.33,0,0,1-39.28-17.95C102,332.56,100.87,320,107.84,306.7Z"/><path class="cls-12" d="M188.5,433.8s3.48-1.1-.61-1.4a74.46,74.46,0,0,1-42.33-19.92,38.51,38.51,0,0,1-5-5.54c-.51-.47-1,0-.4,1s6.9,9.57,7.43,14,4.44,6.77,5.24,7.46,8.88,5.87,15.31,6.8C174.71,436.34,176.71,432.52,188.5,433.8Z"/><path class="cls-13" d="M190.38,432s-2.53,2.91-14.54-.11a70.91,70.91,0,0,1-27.94-14.6,33,33,0,0,1-7.65-10.87Z"/><path class="cls-14" d="M171.39,435.74s-10.4-3.92-12.4-5-10.18-6.35-13.73-6.54S162.24,442.06,171.39,435.74Z"/><path class="cls-15" d="M132,399.13c1.75,3.84,5.5,8,6.25,14.18.23,1.87,0,5.42.53,7.23.4,1.41.27,4.19,1.06,5.43a37.22,37.22,0,0,0,10.08,10.69c3.07,2.21,6.71,3.53,10,5.26a23.56,23.56,0,0,0,12,2.71,8.39,8.39,0,0,0,2.58-.46,12.9,12.9,0,0,0,3.53-2.4,33.43,33.43,0,0,1,19.25-7.66.38.38,0,0,0,.09-.75c-1.28-.43-2.51-.83-5.2-1.69a12,12,0,0,1-2.5-1.13,51.72,51.72,0,0,1-5.42-3.56,62.84,62.84,0,0,0-7.54-5c-3.62-2-10.84-5.52-14.59-7.29C150.3,409.15,140.28,405.38,132,399.13Zm8.59,7.81a38.51,38.51,0,0,0,5,5.54,74.46,74.46,0,0,0,42.33,19.92c4.09.3.61,1.4.61,1.4-11.79-1.28-13.79,2.54-20.34,2.39-6.43-.93-14.51-6.12-15.31-6.8s-4.7-3.06-5.24-7.46-6.78-12.94-7.43-14S140.07,406.47,140.58,406.94Z"/><path class="cls-16" d="M165.81,392.86c7.83,10.85,23.19,11.16,32.89,6.61,4.06-1.9,4.25-4.79.6-7.32a18.87,18.87,0,0,0-3.71-2,195.78,195.78,0,0,1-28.42-14.21c-1.81-1.09-3.82-2.42-5.91-1-2.29,1.5-1.66,4-1.28,6.21A22.1,22.1,0,0,0,165.81,392.86Z"/><path class="cls-17" d="M291.67,332.6c-8-8.32-17.58-15.48-30.34-17.07a25.41,25.41,0,0,0-3.38-.14c-1.51,0-3,.51-3.5,1.93-.62,1.78,1.09,2.38,2.29,3q6,3.15,12.05,6.18c14.23,7.17,22.35,19.35,27.81,33.75a28.58,28.58,0,0,0,2.16,4.58c.6,1,1.18,2.53,2.78,2.1,1.41-.38,1.63-1.86,1.91-3.07.93-4-.09-7.93-1.18-11.69C300.24,345.21,296.63,339,291.67,332.6Z"/><path class="cls-17" d="M126.67,272.19c-2.41,2.05-5.17,3.92-3.94,6.23,1.37,2.58,4.37.61,6.51,0,5.3-1.52,10.53-3.28,16-4.28,11.91-2.2,23,.33,33.83,5.29,2.7,1.24,5.43,2.43,8.19,3.54,1.16.47,2.59,1,3.54-.25,1.1-1.37.19-2.64-.65-3.84a25,25,0,0,0-8.89-7.72c-17.21-9.1-34.57-9.67-52-.67A19.8,19.8,0,0,0,126.67,272.19Z"/><path class="cls-16" d="M231,362.51a23.35,23.35,0,1,1-2.83,32.75A23.37,23.37,0,0,1,231,362.51Zm35.26,17.13c-.51-3.95-3.21-6-8.46-6.32-1.51-4.17-8.3-8-13.32-7.45a16.39,16.39,0,0,0-14.65,13.6c-1.06,7.36,2.84,13.73,10.16,16.64,6.4,2.53,14.17-.15,18.51-6.38l1.23-1.72C264.75,386.17,266.79,383.56,266.27,379.64Z"/><path class="cls-18" d="M257.81,373.32c-1.51-4.17-8.3-8-13.32-7.45a16.39,16.39,0,0,0-14.65,13.6c-1.06,7.36,2.84,13.73,10.16,16.64,6.4,2.53,14.17-.15,18.51-6.38l1.23-1.72c-3.84-.64-7.14-2.06-7.62-6.49C251.65,377.26,254,374.7,257.81,373.32Z"/><path class="cls-11" d="M257.81,373.32c-3.85,1.38-6.16,3.94-5.69,8.2.48,4.43,3.78,5.85,7.62,6.49,5-1.84,7.05-4.45,6.53-8.37S263.06,373.68,257.81,373.32Z"/><path class="cls-16" d="M128.39,310.64a23.35,23.35,0,1,1-3.76,32.65A23.39,23.39,0,0,1,128.39,310.64Zm34.76,18.13c-.4-4-3-6-8.28-6.56-1.39-4.21-8.07-8.2-13.1-7.83a16.38,16.38,0,0,0-15,13.18c-1.27,7.32,2.44,13.81,9.68,16.92,6.32,2.71,14.17.26,18.69-5.85.41-.56.85-1.12,1.27-1.68C161.44,335.25,163.55,332.71,163.15,328.77Z"/><path class="cls-18" d="M154.87,322.21c-1.39-4.21-8.07-8.2-13.1-7.83a16.38,16.38,0,0,0-15,13.18c-1.27,7.32,2.44,13.81,9.68,16.92,6.32,2.71,14.17.26,18.69-5.85.41-.56.85-1.12,1.27-1.68-3.82-.75-7.07-2.27-7.43-6.7C148.6,326,151,323.48,154.87,322.21Z"/><path class="cls-11" d="M154.87,322.21c-3.89,1.27-6.27,3.77-5.92,8,.36,4.43,3.61,5.95,7.43,6.7,5.06-1.7,7.17-4.24,6.77-8.18S160.11,322.72,154.87,322.21Z"/></g><g class="cls-19"><path class="cls-17" d="M6.92,15.68c4.47,3.49,4.56,3.38,8.31-1,10.26-12.17,23.39-20.14,38-26C57.54-7.6,61.9-3.9,67.06-1.09A178.31,178.31,0,0,1,84.61,10C91.9,15.17,99.1,20.49,104.27,28c7.88,11.39,7,33.87-12.61,41.35C83.5,72.43,75,72.25,66.54,71.74c-16.06-1-31.4-4.69-44.63-14.28a26.37,26.37,0,0,0-13-5.09c-11.77-1.43-21-6.81-24.61-18.95-3.49-11.78-1.46-23.19,2.94-34.34.39-1,.84-2.24,2.41-1.5C-6.72,5.64.28,10.51,6.92,15.68ZM68.28,32.46c8.49-5.24,10.27-12.28,5.31-21C71,7,67.43,3.44,63.79-.13c-1.72-1.69-3.48-1.34-5.48-.8C47.18,2.11,39,9.39,31.52,17.66c-2.47,2.75-7.09,5.57-6.18,8.87.76,2.78,6.05,3.5,9.37,5,5.39,2.5,10.77,5.06,18,5.06C57.41,36.21,63.17,35.61,68.28,32.46Z"/><path class="cls-9" d="M-10.34-2.42C-6.72,5.64.28,10.51,6.92,15.68c4.47,3.49,4.56,3.38,8.31-1,10.26-12.17,23.39-20.14,38-26-5.46-7.29-6.64-16.1-8.54-24.61-2.5-11.16-11.48-61-13.83-72.16-8.52.53-17,2.1-25.56,1.49-7.82-.56-15.65-1-23.48-1.54,1.09,15.65,9.47,69.84,9.44,85.54A113.48,113.48,0,0,1-10.34-2.42Z"/><path class="cls-9" d="M52.74,36.63c4.67-.42,10.43-1,15.54-4.17,8.49-5.24,10.27-12.28,5.31-21C71,7,67.43,3.44,63.79-.13c-1.72-1.69-3.48-1.34-5.48-.8C47.18,2.11,39,9.39,31.52,17.66c-2.47,2.75-7.09,5.57-6.18,8.87.76,2.78,6.05,3.5,9.37,5C40.1,34.07,45.48,36.63,52.74,36.63Z"/></g></svg>