<svg id="Layer_1" data-name="Layer 1" xmlns="http://www.w3.org/2000/svg" xmlns:xlink="http://www.w3.org/1999/xlink" viewBox="0 0 1024 600"><defs><style>.cls-1{fill:none;}.cls-2{clip-path:url(#clip-path);}.cls-3{fill:#a46636;}.cls-4{fill:#895430;}.cls-5{fill:#0798ff;}.cls-6{fill:#d60000;}.cls-7{fill:#06b800;}.cls-8{fill:#ffe700;}.cls-9{fill:#a56636;}.cls-10{fill:#6c401d;}.cls-11{fill:#faf8f7;}.cls-12{fill:#600b0c;}.cls-13{fill:#f2ecec;}.cls-14{fill:#fff;}.cls-15{fill:#734725;}.cls-16{fill:#522f27;}.cls-17{fill:#0c0807;}.cls-18{fill:#060504;}</style><clipPath id="clip-path"><rect id="SVGID" class="cls-1" width="1024" height="600"/></clipPath></defs><title>Akili_wave</title><g class="cls-2"><path class="cls-3" d="M35.58,462.23S-43.51,370.3-57.23,332.84a98.52,98.52,0,0,0-14.34-37.92,39.06,39.06,0,0,0-3.27-3.69l-7.92-38.77s-1.44-7.6-7.62-6c0,0-4.51-.19-2.33,16.34L-90,288.67l.21,4.64-2.53,1-13.22-30.07s-3.3-13.92-10-13.19c0,0-8.45-.24-1.47,18.87l11.33,32.86c0,.31,0,.64,0,1,0,0-10.14.33-8.11,12.43,0,0-7.3,5.09-3.89,13.81,0,0,3.35,14.62,18.62,28.82,0,0,87,101,117.8,116.65,0,0,7.66,6.54,15.69-2.88C34.36,472.58,38.37,467.27,35.58,462.23Z"/><path class="cls-3" d="M190.08,505.58s101.72-66,125.42-98.11a98.05,98.05,0,0,1,24.4-32.37,39.76,39.76,0,0,1,4.18-2.63l18.49-35s3.52-6.89,9-3.64c0,0,4.38,1.08-2.36,16.33l-9.9,24.09-1.5,4.39,2.15,1.67,21.13-25.14s7.08-12.44,13.35-9.84c0,0,8.18,2.14-3.89,18.52l-20.1,28.36c-.06.31-.14.62-.22.94,0,0,9.63,3.16,4.29,14.21,0,0,5.57,6.94-.15,14.34,0,0-7.32,13.1-26,22.44,0,0-111.88,72.51-145.82,78.87,0,0-9.19,4.12-14.25-7.18C188.35,515.85,186,509.63,190.08,505.58Z"/><path class="cls-4" d="M362.76,416.9c-3.41-.53-6.57-1.32-9.76-1.74a30.37,30.37,0,0,0-4.74-.37,16.15,16.15,0,0,0-4.8.78,8.2,8.2,0,0,1,4.59-2.52,14.38,14.38,0,0,1,5.27-.12,19.75,19.75,0,0,1,5,1.38A16.82,16.82,0,0,1,362.76,416.9Z"/><path class="cls-3" d="M364.32,395.88l34.36-24.15s7.73-6.91,12.34-.29c0,0,2.74,4.81-8.24,13l-29.36,22.85-6.73-5.82Z"/><path class="cls-3" d="M364.06,412.75l37.37-19.18S410,387.8,413.69,395c0,0,2.05,5.15-9.95,11.71l-32.23,18.57-5.87-6.69Z"/><path class="cls-3" d="M317,405.44s-2.13-26,2.5-40c0,0,9-14.23,16.12,18.55l-3,23.59-14.6-1.18"/><path class="cls-4" d="M337.78,386.27a22.79,22.79,0,0,1,2.79,5.61A26.8,26.8,0,0,1,342,398a20.66,20.66,0,0,1-.22,6.37,12.68,12.68,0,0,1-2.68,5.74,27.44,27.44,0,0,0,.94-6,45,45,0,0,0-.27-5.91C339.33,394.31,338.48,390.39,337.78,386.27Z"/><path class="cls-4" d="M373.55,415a53.75,53.75,0,0,0-3.5-11.48,48.88,48.88,0,0,0-5.9-10.27,22.66,22.66,0,0,0-1.82-2.32,27.75,27.75,0,0,0-2-2.22l-2.07-2.13c-.72-.68-1.5-1.29-2.24-2a59,59,0,0,0-4.73-3.67l-.6-.45-.64-.4-1.28-.8c-.85-.54-1.7-1.09-2.56-1.66q1.42.53,2.85,1.11l1.42.59.71.3.67.37A41.16,41.16,0,0,1,366,391.9c.58.85,1.2,1.68,1.75,2.56s1,1.79,1.55,2.7.88,1.88,1.31,2.82.74,1.93,1.1,2.89A33.25,33.25,0,0,1,373.55,415Z"/><path class="cls-5" d="M182.06,552.26a21.87,21.87,0,0,0,6.95-2.71c4.46-2.56,5.82-7.92,10.25-11.48a57.17,57.17,0,0,1,20-9.93,9.48,9.48,0,0,0,4.16-2c.8-.8,1.22-3.27,1.3-4.4.57-8.27-1.48-14.22-5.5-21.08-2.36-4-5.11-7.52-7.7-11.39-1.26-1.89-2.45-3.48-4.7-3.81a21.06,21.06,0,0,0-5.6.77c-7.37,2-13.46,2-21.09,2.36-8.41.37-14.82,2-20.87,6.67-4.09,3.17-7.11,7.53-9.57,12.09-3,5.6-5.31,11.75-5.54,18.11s1.78,13,6.34,17.46c2.57,2.51,5.79,4.22,9,5.9,3.51,1.85,7.1,3.74,11,4.32S178.25,553,182.06,552.26Z"/><path class="cls-5" d="M21.87,504.13a21.51,21.51,0,0,1-4.93-5.61c-2.78-4.32-2.37,0-4.66-5.24a57.32,57.32,0,0,0-13.22-18,9.5,9.5,0,0,1-2.78-3.68c-.34-1.08.42-3.47.87-4.51,3.3-7.61,7.86-11.95,14.58-16.18,3.94-2.48,8-4.33,12.08-6.58,2-1.1,3.77-2,5.92-1.22a21,21,0,0,1,4.62,3.26c5.63,5.17,11,8,17.64,11.8,7.3,4.19,12.25,8.58,15.46,15.52a37.32,37.32,0,0,1,2.94,15.13c.1,6.37.15,3.21-2.57,9s-7.56,10.72-13.66,12.58c-3.43,1-7.08,1.08-10.68,1.11-4,0-8,.06-11.77-1.23S24.91,506.53,21.87,504.13Z"/><path class="cls-5" d="M107.41,839.6s-37.94-1.15-61.68-13.14S14.22,813.68,9.25,812.87s-43.9-4.5-61.13-11.74S-95.1,784-103.43,766a291.52,291.52,0,0,0,37.08-61.76c16-36.36,41.19-78.94,56.77-100.45s39.3-84.12,39.3-84.12,10-45.87,22.62-55.88C66,452.94,89.27,462,124.83,472.5c28.88,8.5,53,29.17,59.54,34.5s-14.8,76.92-19.28,91.33-27.9,72.67-33.32,93.11S120.54,755.3,118,776.61C115.32,798.27,107.41,839.6,107.41,839.6Z"/><polygon class="cls-6" points="66.38 461.93 82.6 464.23 171.4 495.52 179.64 499.64 159.36 544.28 58.2 508.02 66.38 461.93"/><path class="cls-7" d="M78.32,463.31l13,.93,71.21,24.88c1.54.7,4.05,3.43,4.27,3.33l4.53,2.68-17.18,34.72-83-30.51Z"/><polygon class="cls-8" points="90.64 463.96 108.02 465.42 154.98 482.84 162.69 488.8 148.37 516.64 83.64 492.65 90.64 463.96"/><path class="cls-9" d="M142.85,507.6l11.86-21s-7-3.85-7.18-11.14-.47-16.51-17-22.18c-16-5.47-14.71,3-16.58,5.68a76,76,0,0,0-4.07,6.91s-1.74,4.47-7.62,3.86c-4.39-.45-4.44,19.11-4.44,19.11Z"/><path d="M155.82,445.84s27.22,40.39,30.26,68.89c0,0,14.62-48.21,21.26-61.07,0,0,11.35,52.66,44.65,69.94,0,0-23.54-33.62-1.88-74.14,0,0,69.58-4.57,115.52-51.2,0,0-5.14-66.61-10.26-79.56,0,0,31.92-41.08,23.36-69.65,0,0-39.57-44.49-71.41-48.62,0,0-9-43.61-47.31-71.63,0,0-70.74-9.71-98.94,18.68,0,0-73.24-8.46-84.62-8.2,0,0-36.55,36.93-33.92,71.33,0,0-39.47,30.84-43.85,51.3,0,0,13.22,59.91,43.37,86.92s-37.62,91-37.62,91,48.44-21.41,73.09-20.93c0,0-16.45,21.49-27.7,44.16C49.82,463.07,113.21,419.52,155.82,445.84Z"/><path class="cls-9" d="M323.19,361.64l6.39-30.74s1.75-3.77,4.76-4.79,15.72-5.89,15.72-5.89-13.29-3.31-18.84-1.78c-1.74-.39-2.78.77-3.55-2.25s-11-37.25-11-37.25-29.25-30.61-32.84-35.68-4.4-6.5-1-12.08,12.32-18.68,14.16-21c0,0-22,19.34-24.51,22.18s-5.54-.55-6.31-1.25S227,201.67,227,201.67s-1.17-1.28-5.62-2-42.68-5.24-50.08-4c-2.46-.11-3.24-1-3.56-2.25s-10.5-21.72-11.42-29.51c0,0,.67,23.36-.46,27.22-.15,4.05-2.57,2.35-3.65,2.78s-34.07,6.41-34.07,6.41L88.45,230.38s-24.66-16.29-35.86-14.94c0,0,16,4.76,26.73,18.13,0,0-12.59,13.81-14,21.36C42.93,298.06,39,328.41,39.35,348.73c3.46,36.07,33.14,76.58,53.24,94.59C124,468.69,142,473.67,181.86,475.89c14.87-5.72,59.15,1.88,108.52-53.76Z"/><path class="cls-9" d="M298.58,425.29c-2.6-.41-6.22-1.72-7.24-3-1.5-1.88-1.49-5-1.75-7.43-1.15-10.88,4.72-21.13,10.38-30.49l5.15-8.54c2.3-3.8,4.63-7.64,7.75-10.81s7.39-5.81,11.81-6.22,7,.68,11.08,2.61c3.6,1.68,8.72,5,10.67,8.5a19,19,0,0,1,2.29,11.64,57.12,57.12,0,0,1-4.66,17.07c-2.18,5-6.46,9.52-10.29,13.43a49.91,49.91,0,0,1-17.54,11.81C309.4,426.62,304.94,426.29,298.58,425.29Z"/><path class="cls-10" d="M332,371.09c-1.61-.65-3.46-1.53-5.2-1.44a35.5,35.5,0,0,0-8.15,1.06c.57-1.93,2.53-2.79,5.15-4.36a11.17,11.17,0,0,1,4.15-1.48,12.7,12.7,0,0,1,6.49,1.05c6.38,2.69,9.88,9.26,10,16.18s-4.86,13-9.23,18.39c-10.44,12.82-20.93,18.18-30,19.35-.4.05-8.77,2-10.82-1.43a5.18,5.18,0,0,1-.49-1.5c-.2-1.46-.4-4.19,1.19-6.25a5.22,5.22,0,0,1,6.26-1.94c-1.61,1.79-2.43,4.14-1.07,6.13a3.93,3.93,0,0,0,1.78,1.12c.64.27,4.24-.38,4.93-.45,4.12-.44,6.11-1.68,9.52-4a52,52,0,0,0,6.57-5.26c4.13-4,9.55-9.1,12.89-14.63s3.65-14.2-1.19-18.71A9,9,0,0,0,332,371.09Z"/><path class="cls-9" d="M36.48,317.71c2.21,1.43,5.17,4.27,6.79,4,2.37-.4,4.47-2.76,6.25-4.37,8.13-7.32,10.61-18.88,12.65-29.63L64,277.92a57.36,57.36,0,0,0,1.46-13.22c-.21-4.44.24-8.21-2.78-11.47s-8.36-7.45-12.7-8.76c-3.81-1.15-9.28-2.67-13-1.4-4,1.36-6.71,6.6-9.21,10-3.46,4.69-5.08,10.27-6.92,15.8-1.71,5.19-1.21,11.78-1,17.24.33,7.36,4.16,12.55,7.4,19.16S31.07,314.21,36.48,317.71Z"/><path class="cls-10" d="M48.78,254.05c1.64.6,3.6,1.17,4.84,2.4A35.36,35.36,0,0,1,59,262.68c.86-1.82,0-3.77-.92-6.68a11.35,11.35,0,0,0-2.1-3.88,12.85,12.85,0,0,0-5.53-3.55c-6.55-2.26-13.54.3-18.24,5.39s-6.25,16.27-6.58,23.18c-.79,16.53,4.2,26.8,10.16,33.72.26.31,5.19,7.36,9,6.17a5.71,5.71,0,0,0,1.37-.8c1.12-1,3.09-2.85,3.29-5.44a5.25,5.25,0,0,0-3.37-5.63c0,2.41-1,4.71-3.29,5.28a4.1,4.1,0,0,1-2.08-.35c-.66-.24-2.9-3.12-3.37-3.64-2.77-3.07-4.28-7.05-5.26-11.07a52,52,0,0,1-1.38-8.31c-.42-5.71-1-13.15.18-19.5s8-13.89,14.66-14A9,9,0,0,1,48.78,254.05Z"/><path class="cls-11" d="M191.44,354.1c3-11.81,10.83-19.49,22.53-22.49A58.47,58.47,0,0,1,257.13,337c13.35,7.13,21.27,25,16.85,39.29-3.52,11.36-14.1,23.4-31.49,23.49a64.87,64.87,0,0,1-38.8-12.87C191.89,376.69,188.36,366.29,191.44,354.1Z"/><path class="cls-11" d="M85.32,311.9c4-11.18,15.66-19.72,28.65-19.8,17.63-.11,32.63,6.79,44.24,19.93,7.53,8.52,8.92,18.87,4.53,29.44-4.65,11.19-11.91,19.93-25.07,20.55a65.38,65.38,0,0,1-41.44-12.18C83.23,338.32,80.31,326.08,85.32,311.9Z"/><path class="cls-12" d="M183.23,426.26s3.28-1.59-.81-1.31a74.6,74.6,0,0,1-44.74-13.7,39.94,39.94,0,0,1-5.71-4.77c-.58-.4-1,.11-.25,1s8.19,8.49,9.34,12.78,5.36,6.07,6.25,6.64,9.62,4.55,16.11,4.56C169.93,430.72,171.36,426.66,183.23,426.26Z"/><path class="cls-13" d="M184.83,424.21s-2.09,3.24-14.41,2a71,71,0,0,1-29.74-10.49,33,33,0,0,1-9.11-9.66Z"/><path class="cls-14" d="M166.56,430.6s-10.85-2.4-13-3.14-11-4.85-14.52-4.53S158.4,438.16,166.56,430.6Z"/><path class="cls-15" d="M122.36,400c2.28,3.55,6.58,7.17,8.2,13.15.49,1.82.79,5.36,1.55,7.08.59,1.34.87,4.11,1.82,5.23a37.39,37.39,0,0,0,11.5,9.14c3.35,1.76,7.14,2.55,10.66,3.79a23.57,23.57,0,0,0,12.26,1,8.38,8.38,0,0,0,2.49-.82,13.25,13.25,0,0,0,3.15-2.88,33.45,33.45,0,0,1,18-10.32.39.39,0,0,0,0-.76l-5.39-.93a12.84,12.84,0,0,1-2.64-.76,51.62,51.62,0,0,1-5.86-2.75,60.32,60.32,0,0,0-8.18-3.84c-3.87-1.48-11.51-3.93-15.47-5.15C141.9,407.28,131.46,405,122.36,400Zm9.61,6.52a39.94,39.94,0,0,0,5.71,4.77A74.6,74.6,0,0,0,182.42,425c4.09-.28.81,1.31.81,1.31-11.87.4-13.3,4.46-19.81,5.25-6.49,0-15.22-4-16.11-4.56s-5.09-2.36-6.25-6.64-8.55-11.84-9.34-12.78S131.39,406.08,132,406.48Z"/><path class="cls-16" d="M154.94,389c9.29,9.63,24.54,7.75,33.5,1.88,3.75-2.47,3.52-5.35-.45-7.34a18.53,18.53,0,0,0-4-1.49,196.67,196.67,0,0,1-30.15-10c-1.95-.82-4.13-1.85-6-.2-2.06,1.81-1.09,4.18-.39,6.32A22.1,22.1,0,0,0,154.94,389Z"/><path class="cls-17" d="M271,311.42c-9.12-7.1-19.6-12.83-32.46-12.59a25.48,25.48,0,0,0-3.37.34c-1.49.23-2.9.94-3.19,2.42-.36,1.85,1.42,2.2,2.7,2.65,4.25,1.51,8.53,3,12.81,4.4,15.1,5.07,24.87,16,32.32,29.46a28.22,28.22,0,0,0,2.78,4.22c.74.91,1.53,2.34,3.05,1.69,1.34-.58,1.36-2.07,1.46-3.31.35-4.11-1.22-7.83-2.83-11.4C281.24,322.69,276.79,317,271,311.42Z"/><path class="cls-17" d="M99.05,275.07c-2.09,2.36-4.56,4.61-3,6.73,1.72,2.35,4.41,0,6.45-.94,5-2.26,10-4.74,15.2-6.51,11.47-3.87,22.86-3,34.24.43,2.84.85,5.71,1.64,8.6,2.34,1.22.3,2.7.57,3.48-.75.88-1.51-.19-2.64-1.19-3.7a24.93,24.93,0,0,0-9.91-6.38c-18.32-6.56-35.59-4.67-51.58,6.72A19.77,19.77,0,0,0,99.05,275.07Z"/><path class="cls-16" d="M215.17,349.65A23.35,23.35,0,1,1,217,382.46,23.37,23.37,0,0,1,215.17,349.65Zm37.34,12c-1.07-3.84-4-5.45-9.27-5.06-2.09-3.91-9.35-6.71-14.25-5.49a16.42,16.42,0,0,0-12.57,15.55c0,7.43,4.76,13.19,12.42,15,6.69,1.6,14-2.16,17.42-8.94.32-.63.65-1.25,1-1.87C251.93,368.27,253.58,365.4,252.51,361.6Z"/><path class="cls-18" d="M243.24,356.54c-2.09-3.91-9.35-6.71-14.25-5.49a16.42,16.42,0,0,0-12.57,15.55c0,7.43,4.76,13.19,12.42,15,6.69,1.6,14-2.16,17.42-8.94.32-.63.65-1.25,1-1.87-3.89-.09-7.35-1-8.47-5.34C237.69,361.32,239.62,358.45,243.24,356.54Z"/><path class="cls-11" d="M243.24,356.54c-3.62,1.91-5.55,4.78-4.48,8.93,1.12,4.31,4.58,5.25,8.47,5.34,4.7-2.54,6.35-5.41,5.28-9.21S248.49,356.15,243.24,356.54Z"/><path class="cls-16" d="M106.23,312.88a23.35,23.35,0,1,1,.91,32.85A23.36,23.36,0,0,1,106.23,312.88Zm37,13c-1-3.86-3.87-5.56-9.13-5.32-2-4-9.15-7-14.08-5.89a16.4,16.4,0,0,0-13,15.18c-.21,7.43,4.38,13.32,12,15.37,6.64,1.79,14.06-1.75,17.67-8.44.33-.62.68-1.23,1-1.84C142.44,332.55,144.16,329.73,143.21,325.89Z"/><path class="cls-18" d="M134.08,320.57c-2-4-9.15-7-14.08-5.89a16.4,16.4,0,0,0-13,15.18c-.21,7.43,4.38,13.32,12,15.37,6.64,1.79,14.06-1.75,17.67-8.44.33-.62.68-1.23,1-1.84-3.89-.2-7.33-1.24-8.31-5.58C128.41,325.19,130.41,322.38,134.08,320.57Z"/><path class="cls-11" d="M134.08,320.57c-3.67,1.81-5.67,4.62-4.72,8.8,1,4.34,4.42,5.38,8.31,5.58,4.77-2.4,6.49-5.22,5.54-9.06S139.34,320.33,134.08,320.57Z"/></g></svg>