<svg id="Layer_1" data-name="Layer 1" xmlns="http://www.w3.org/2000/svg" xmlns:xlink="http://www.w3.org/1999/xlink" viewBox="0 0 1024 600"><defs><style>.cls-1{fill:none;}.cls-2{clip-path:url(#clip-path);}.cls-3{fill:#a46636;}.cls-4{fill:#895430;}.cls-5{fill:#0798ff;}.cls-6{fill:#d60000;}.cls-7{fill:#06b800;}.cls-8{fill:#ffe700;}.cls-9{fill:#a56636;}.cls-10{fill:#6c401d;}.cls-11{fill:#faf8f7;}.cls-12{fill:#600b0c;}.cls-13{fill:#f2ecec;}.cls-14{fill:#fff;}.cls-15{fill:#734725;}.cls-16{fill:#522f27;}.cls-17{fill:#0c0807;}.cls-18{fill:#060504;}</style><clipPath id="clip-path"><rect class="cls-1" width="1024" height="600"/></clipPath></defs><title>Akili_wave</title><g class="cls-2"><path class="cls-3" d="M325.31,416.25s109.25-52.63,136.81-81.48a98.33,98.33,0,0,1,28.3-29,40.59,40.59,0,0,1,4.48-2.08l22.76-32.37s4.36-6.38,9.4-2.46c0,0,4.2,1.63-4.41,15.9l-12.87,22.64-2,4.17,1.92,1.93L533.8,291.2s8.59-11.44,14.49-8.06c0,0,7.84,3.15-6.2,17.88l-23.53,25.59c-.1.29-.21.6-.33.91,0,0,9.15,4.35,2.46,14.63,0,0,4.65,7.59-2,14.21,0,0-8.91,12.06-28.58,19,0,0-120.15,57.79-154.62,59.81,0,0-9.64,2.92-13.23-8.92C322.29,426.22,320.74,419.75,325.31,416.25Z"/><path class="cls-4" d="M507.81,350.1c-3.31-1-6.35-2.13-9.46-3a31.6,31.6,0,0,0-4.66-1,16.34,16.34,0,0,0-4.86.16,8.27,8.27,0,0,1,4.87-1.92A14.48,14.48,0,0,1,499,345a20.07,20.07,0,0,1,4.77,2A17.3,17.3,0,0,1,507.81,350.1Z"/><path class="cls-3" d="M512,329.45l37.14-19.61s8.54-5.87,12.28,1.27c0,0,2.11,5.12-9.82,11.82l-32,18.95-5.94-6.62Z"/><path class="cls-3" d="M509.62,346.16l39.5-14.31s9.27-4.64,12,2.95c0,0,1.38,5.36-11.35,10.36l-34.32,14.35-5-7.38Z"/><path class="cls-3" d="M463.9,333s1.18-26.06,7.54-39.34c0,0,10.72-13,13.65,20.43l-6,23-14.34-3"/><path class="cls-4" d="M486.91,316.56a23.09,23.09,0,0,1,2,5.92,26.94,26.94,0,0,1,.63,6.28,21.13,21.13,0,0,1-1,6.29,12.48,12.48,0,0,1-3.39,5.35,27,27,0,0,0,1.69-5.78,43.06,43.06,0,0,0,.47-5.9C487.42,324.74,487.08,320.74,486.91,316.56Z"/><path class="cls-4" d="M518.75,349.57a53.62,53.62,0,0,0-2-11.84,48.73,48.73,0,0,0-4.55-10.93,23.13,23.13,0,0,0-1.51-2.53,27.11,27.11,0,0,0-1.67-2.45l-1.78-2.37c-.63-.77-1.33-1.47-2-2.23-1.27-1.54-2.8-2.82-4.23-4.24l-.54-.53-.58-.47-1.17-1c-.78-.65-1.56-1.31-2.33-2,.9.47,1.79,1,2.68,1.46l1.34.77.66.39.62.44a41.46,41.46,0,0,1,12.45,13.6c.47.92,1,1.83,1.42,2.77s.81,1.91,1.19,2.87.63,2,1,3,.49,2,.72,3A33,33,0,0,1,518.75,349.57Z"/><path class="cls-3" d="M191.82,355.15S148.74,241.8,148.58,201.9a98.12,98.12,0,0,0-.57-40.53,39.81,39.81,0,0,0-1.82-4.59l5.75-39.15s1.23-7.64-5.12-8.26c0,0-4.18-1.71-7.75,14.57l-6.23,25.29-1.39,4.43-2.71.08L126.53,121s1.64-14.21-5-15.82c0,0-7.86-3.11-7.8,17.24l-.53,34.76c-.13.28-.26.58-.38.89,0,0-9.64-3.14-11.86,8.92,0,0-8.59,2.32-8.35,11.67,0,0-1.83,14.89,7.7,33.44,0,0,47.44,124.6,71.07,149.77,0,0,5,8.76,15.73,2.63C187.15,364.46,192.73,360.84,191.82,355.15Z"/><path class="cls-4" d="M104.88,181.59a17.27,17.27,0,0,1,5.12.54,20,20,0,0,1,4.84,1.84,14.56,14.56,0,0,1,4.19,3.2,8.31,8.31,0,0,1,2.21,4.75,16,16,0,0,0-3.41-3.46,30.44,30.44,0,0,0-4-2.51C111,184.41,107.94,183.18,104.88,181.59Z"/><path class="cls-3" d="M116,163.71l-13.46-39.78s-2.15-10.14-9.78-7.53c0,0-5.05,2.26-1,15.33L102,167.51l8.87-.72Z"/><path class="cls-3" d="M106.28,177.48,87.46,139.93s-3.54-9.75-10.73-6.11c0,0-4.69,2.94,1.12,15.33l15,34,8.69-1.93Z"/><path class="cls-3" d="M148.54,199.35s17.07-19.71,21.6-33.73c0,0,1.14-16.8-24,5.44l-11.51,20.82,12.48,7.67"/><path class="cls-4" d="M143.13,171.63c-3,2.91-6,5.58-8.68,8.53a42,42,0,0,0-3.71,4.61,27,27,0,0,0-2.76,5.35,12.58,12.58,0,0,1,1.22-6.21,20.82,20.82,0,0,1,3.59-5.27,26.3,26.3,0,0,1,4.77-4.12A22.68,22.68,0,0,1,143.13,171.63Z"/><path class="cls-4" d="M97.31,173.67A33.17,33.17,0,0,1,106,165c.86-.56,1.69-1.19,2.6-1.69s1.8-1,2.72-1.49,1.9-.84,2.85-1.26,2-.69,2.93-1a41.37,41.37,0,0,1,18.39-1.3l.76.1.75.18,1.49.36c1,.25,2,.51,3,.78-1,0-2-.09-3-.16l-1.51-.11-.75-.06h-.76a59.46,59.46,0,0,0-6,.17c-1,.1-2,.13-3,.26l-2.93.49a28.62,28.62,0,0,0-2.89.63,25.64,25.64,0,0,0-2.85.8,49,49,0,0,0-10.81,4.8A53.33,53.33,0,0,0,97.31,173.67Z"/><path class="cls-5" d="M311.45,461.54a21.72,21.72,0,0,0,7.24-1.81c4.74-2,6.77-7.12,11.62-10.09a57.16,57.16,0,0,1,21.12-7.32,9.45,9.45,0,0,0,4.37-1.45c.9-.69,1.63-3.09,1.85-4.2,1.61-8.13.33-14.29-2.79-21.6-1.84-4.29-4.12-8.11-6.2-12.28-1-2-2-3.76-4.17-4.37a21,21,0,0,0-5.66.05c-7.57,1.06-13.6.32-21.22-.32-8.39-.7-15,.1-21.54,4-4.46,2.63-8,6.57-11,10.78-3.71,5.18-6.75,11-7.79,17.27s.12,13.12,4.08,18.11c2.23,2.82,5.21,4.93,8.15,7,3.25,2.28,6.57,4.6,10.39,5.67S307.57,461.78,311.45,461.54Z"/><path class="cls-5" d="M164.67,389.88a21.73,21.73,0,0,1-2.73-6.95c-1.14-5-2.21-.84-2.6-6.52A57.39,57.39,0,0,0,153.06,355a9.29,9.29,0,0,1-1.36-4.4c0-1.13,1.57-3.12,2.35-3.94,5.69-6,11.45-8.57,19.21-10.26,4.55-1,9-1.35,13.6-2.08,2.24-.35,4.21-.56,6,.87a21.11,21.11,0,0,1,3.23,4.63c3.54,6.78,7.64,11.27,12.58,17.11,5.43,6.42,8.59,12.24,9.25,19.85.45,5.16-.7,10.33-2.38,15.23-2.07,6-1,3.08-5.48,7.57s-10.75,7.5-17.12,7.18c-3.59-.18-7-1.39-10.42-2.59-3.74-1.31-7.56-2.68-10.65-5.17S166.72,393.18,164.67,389.88Z"/><path class="cls-5" d="M246.18,739.6s-37.94-1.15-61.68-13.14S153,713.68,148,712.87s-43.9-4.5-61.13-11.74S43.67,684,35.34,666a291.52,291.52,0,0,0,37.08-61.76c16-36.36,41.19-78.94,56.77-100.45s39.3-84.12,39.3-84.12,10-45.87,22.62-55.88C204.77,352.94,228,362,263.6,372.5c28.88,8.5,53,29.17,59.54,34.5s-14.8,76.92-19.28,91.33S276,571,270.54,591.44s-11.23,63.86-13.82,85.17C254.09,698.27,246.18,739.6,246.18,739.6Z"/><polygon class="cls-6" points="205.15 361.93 221.37 364.23 310.17 395.52 318.41 399.64 298.13 444.28 196.97 408.02 205.15 361.93"/><path class="cls-7" d="M217.09,363.31l13,.93,71.21,24.88c1.54.7,4.05,3.43,4.27,3.33l4.53,2.68L293,429.85l-83-30.51Z"/><polygon class="cls-8" points="229.41 363.96 246.79 365.42 293.75 382.84 301.46 388.8 287.14 416.64 222.41 392.65 229.41 363.96"/><path class="cls-9" d="M281.62,407.6l11.86-21s-7-3.85-7.18-11.14-.47-16.51-17-22.18c-16-5.47-14.71,3-16.58,5.68a76,76,0,0,0-4.07,6.91s-1.74,4.47-7.62,3.86c-4.39-.45-4.44,19.11-4.44,19.11Z"/><path d="M295.33,346s26.47,40.9,29,69.45c0,0,15.51-47.94,22.39-60.68,0,0,10.38,52.87,43.35,70.76,0,0-22.91-34-.51-74.16,0,0,69.65-3.28,116.45-49.06,0,0-3.91-66.69-8.79-79.73,0,0,32.67-40.49,24.64-69.2,0,0-38.74-45.23-70.49-49.94,0,0-8.21-43.77-46-72.5,0,0-70.55-11-99.27,16.85,0,0-73.07-9.81-84.45-9.76,0,0-37.24,36.24-35.24,70.69,0,0-40,30.11-44.79,50.48,0,0,12.11,60.14,41.76,87.7s-39.3,90.31-39.3,90.31,48.83-20.52,73.47-19.58c0,0-16.85,21.18-28.52,43.64C189,361.26,253.21,318.89,295.33,346Z"/><path class="cls-9" d="M464.23,264.9l7-30.61s1.82-3.74,4.84-4.7,15.84-5.6,15.84-5.6-13.23-3.56-18.81-2.13c-1.73-.43-2.79.71-3.51-2.32s-10.31-37.45-10.31-37.45S430.56,151,427.07,145.81s-4.28-6.57-.81-12.09S438.93,115.27,440.8,113c0,0-22.32,18.93-24.91,21.72s-5.53-.66-6.29-1.37S371,103.18,371,103.18s-1.15-1.3-5.59-2.12-42.57-6-50-4.9c-2.46-.16-3.23-1.11-3.52-2.32s-10.1-21.91-10.88-29.72c0,0,.25,23.37-1,27.21-.22,4-2.61,2.3-3.69,2.71s-34.19,5.78-34.19,5.78L232,129.32s-24.36-16.73-35.58-15.59c0,0,15.86,5,26.39,18.62,0,0-12.85,13.57-14.41,21.09-23.16,42.71-27.69,73-27.68,93.31,2.79,36.13,31.71,77.18,51.48,95.55,31,26,48.88,31.26,88.65,34.22,15-5.45,59.11,3,109.5-51.74Z"/><path class="cls-9" d="M438.45,328.09c-2.59-.46-6.19-1.83-7.19-3.13-1.46-1.92-1.39-5.07-1.6-7.46-1-10.9,5.1-21.05,10.93-30.3l5.31-8.44c2.37-3.76,4.77-7.56,8-10.67s7.49-5.67,11.93-6,7,.81,11,2.81c3.56,1.75,8.62,5.21,10.5,8.71a19,19,0,0,1,2.08,11.67,57.1,57.1,0,0,1-5,17c-2.27,5-6.63,9.41-10.53,13.24A49.87,49.87,0,0,1,456.12,327C449.24,329.62,444.79,329.21,438.45,328.09Z"/><path class="cls-10" d="M472.88,274.52c-1.61-.68-3.43-1.6-5.17-1.54a35.53,35.53,0,0,0-8.17.91c.6-1.92,2.58-2.75,5.22-4.27a11.42,11.42,0,0,1,4.18-1.4,12.76,12.76,0,0,1,6.47,1.17c6.33,2.81,9.71,9.44,9.67,16.37S480,298.68,475.51,304c-10.68,12.63-21.26,17.79-30.34,18.79-.4.05-8.81,1.86-10.8-1.62a5.73,5.73,0,0,1-.46-1.51c-.17-1.47-.32-4.2,1.31-6.23a5.21,5.21,0,0,1,6.29-1.82c-1.64,1.76-2.51,4.09-1.18,6.1a4,4,0,0,0,1.76,1.16c.64.27,4.24-.31,4.94-.37,4.12-.36,6.14-1.56,9.59-3.84a51,51,0,0,0,6.67-5.14c4.2-3.88,9.71-8.92,13.15-14.39s3.92-14.12-.84-18.72A8.89,8.89,0,0,0,472.88,274.52Z"/><path class="cls-9" d="M178.38,215.68c2.18,1.47,5.09,4.37,6.71,4.12,2.38-.36,4.52-2.67,6.34-4.25,8.26-7.17,10.95-18.68,13.19-29.39l2-9.75a57.28,57.28,0,0,0,1.7-13.2c-.13-4.44.39-8.2-2.57-11.51s-8.22-7.61-12.54-9c-3.78-1.21-9.22-2.84-13-1.63-4,1.27-6.84,6.47-9.4,9.81-3.55,4.63-5.27,10.18-7.21,15.67-1.81,5.16-1.43,11.75-1.29,17.22.18,7.36,3.91,12.62,7,19.29S173,212.08,178.38,215.68Z"/><path class="cls-10" d="M191.86,152.26c1.63.62,3.58,1.23,4.79,2.48a36.49,36.49,0,0,1,5.25,6.33c.9-1.8,0-3.76-.8-6.69a11.28,11.28,0,0,0-2-3.92,12.77,12.77,0,0,0-5.47-3.65c-6.5-2.38-13.54.05-18.32,5.05s-6.56,16.15-7,23.06c-1.09,16.5,3.71,26.87,9.54,33.9.26.31,5,7.45,8.9,6.33a5.86,5.86,0,0,0,1.38-.77c1.14-.93,3.14-2.8,3.39-5.38a5.24,5.24,0,0,0-3.27-5.69c0,2.41-1,4.69-3.39,5.21a3.83,3.83,0,0,1-2.06-.38c-.66-.25-2.85-3.17-3.31-3.7-2.71-3.12-4.15-7.13-5.05-11.17a52.15,52.15,0,0,1-1.23-8.33c-.32-5.71-.78-13.16.54-19.49s8.3-13.74,14.91-13.75A9,9,0,0,1,191.86,152.26Z"/><path class="cls-11" d="M332.64,254.92c3.2-11.74,11.19-19.28,22.95-22.06,15-3.57,29.59-1.32,43.05,6.18,13.21,7.37,20.8,25.4,16.12,39.59-3.73,11.3-14.53,23.14-31.92,22.91A65,65,0,0,1,344.28,288C332.68,277.52,329.34,267.06,332.64,254.92Z"/><path class="cls-11" d="M227.33,210.77c4.15-11.1,16-19.42,29-19.26,17.64.22,32.5,7.39,43.87,20.75,7.37,8.65,8.57,19,4,29.52-4.85,11.1-12.27,19.7-25.45,20.07a65.37,65.37,0,0,1-41.2-12.94C224.75,237.15,222.06,224.86,227.33,210.77Z"/><path class="cls-12" d="M323.1,326.92s3.31-1.53-.79-1.32a74.55,74.55,0,0,1-44.47-14.53,40.53,40.53,0,0,1-5.63-4.87c-.56-.41-1,.1-.26,1.05s8,8.64,9.1,12.95,5.24,6.17,6.12,6.75,9.54,4.73,16,4.86C309.72,331.14,311.23,327.11,323.1,326.92Z"/><path class="cls-13" d="M324.74,324.9s-2.15,3.2-14.45,1.69a70.94,70.94,0,0,1-29.53-11,33,33,0,0,1-8.93-9.83Z"/><path class="cls-14" d="M306.35,331s-10.8-2.6-12.91-3.38-10.9-5.05-14.44-4.8S298.05,338.36,306.35,331Z"/><path class="cls-15" d="M262.73,299.51c2.21,3.59,6.44,7.29,7.95,13.29.46,1.83.69,5.37,1.42,7.11.57,1.36.79,4.12,1.72,5.26a37.5,37.5,0,0,0,11.33,9.36c3.32,1.82,7.09,2.67,10.59,4A23.54,23.54,0,0,0,308,339.72a8.36,8.36,0,0,0,2.5-.78,13,13,0,0,0,3.21-2.82,33.43,33.43,0,0,1,18.15-10,.39.39,0,0,0,0-.76l-5.37-1a12.1,12.1,0,0,1-2.63-.8,54,54,0,0,1-5.81-2.86,60.26,60.26,0,0,0-8.1-4c-3.84-1.55-11.44-4.14-15.38-5.43C282.13,307.18,271.73,304.68,262.73,299.51Zm9.48,6.69a40.53,40.53,0,0,0,5.63,4.87,74.55,74.55,0,0,0,44.47,14.53c4.1-.21.79,1.32.79,1.32-11.87.19-13.38,4.22-19.9,4.89-6.49-.13-15.15-4.28-16-4.86s-5.05-2.45-6.12-6.75-8.34-12-9.1-12.95S271.65,305.79,272.21,306.2Z"/><path class="cls-16" d="M295.51,289.1c9.11,9.8,24.39,8.2,33.45,2.49,3.8-2.39,3.62-5.28-.3-7.34a18.8,18.8,0,0,0-3.94-1.56,196.31,196.31,0,0,1-30-10.59c-1.93-.85-4.09-1.93-6-.31-2.09,1.77-1.16,4.16-.5,6.32A22.1,22.1,0,0,0,295.51,289.1Z"/><path class="cls-17" d="M413,213.73c-9-7.27-19.36-13.19-32.22-13.19a25.54,25.54,0,0,0-3.38.28c-1.49.2-2.92.88-3.23,2.35-.39,1.85,1.38,2.23,2.65,2.71,4.22,1.59,8.47,3.12,12.72,4.64,15,5.35,24.57,16.43,31.77,30a28.78,28.78,0,0,0,2.71,4.27c.72.92,1.48,2.37,3,1.74,1.36-.55,1.4-2,1.53-3.28.42-4.1-1.08-7.85-2.63-11.45C423,225.18,418.66,219.46,413,213.73Z"/><path class="cls-17" d="M241.73,174.2c-2.13,2.33-4.64,4.52-3.13,6.67,1.67,2.39,4.41.06,6.46-.81,5.07-2.17,10-4.56,15.32-6.23,11.54-3.66,22.91-2.52,34.22,1.07,2.84.89,5.69,1.73,8.56,2.49,1.22.32,2.69.62,3.49-.68.92-1.5-.14-2.65-1.12-3.73a24.9,24.9,0,0,0-9.78-6.56c-18.2-6.9-35.5-5.32-51.7,5.77A20.74,20.74,0,0,0,241.73,174.2Z"/><path class="cls-16" d="M356.45,250.92a23.35,23.35,0,1,1,1.25,32.84A23.38,23.38,0,0,1,356.45,250.92Zm37.12,12.63c-1-3.85-3.93-5.52-9.18-5.22-2-3.95-9.23-6.89-14.15-5.75a16.4,16.4,0,0,0-12.85,15.31c-.14,7.43,4.52,13.28,12.14,15.25,6.66,1.72,14-1.9,17.58-8.62.33-.62.67-1.24,1-1.86C392.86,270.22,394.56,267.38,393.57,263.55Z"/><path class="cls-18" d="M384.39,258.33c-2-3.95-9.23-6.89-14.15-5.75a16.4,16.4,0,0,0-12.85,15.31c-.14,7.43,4.52,13.28,12.14,15.25,6.66,1.72,14-1.9,17.58-8.62.33-.62.67-1.24,1-1.86-3.89-.16-7.34-1.16-8.37-5.49C378.76,263,380.73,260.17,384.39,258.33Z"/><path class="cls-11" d="M384.39,258.33c-3.66,1.84-5.63,4.67-4.64,8.84,1,4.33,4.48,5.33,8.37,5.49,4.74-2.44,6.44-5.28,5.45-9.11S389.64,258,384.39,258.33Z"/><path class="cls-16" d="M248.21,212.14a23.35,23.35,0,1,1,.3,32.87A23.37,23.37,0,0,1,248.21,212.14Zm36.73,13.7c-.89-3.89-3.76-5.63-9-5.49-1.89-4-9-7.15-14-6.15a16.38,16.38,0,0,0-13.29,14.94c-.35,7.42,4.13,13.4,11.7,15.59,6.6,1.91,14.09-1.5,17.82-8.12.34-.61.7-1.22,1.06-1.82C284.05,232.48,285.83,229.69,284.94,225.84Z"/><path class="cls-18" d="M275.91,220.35c-1.89-4-9-7.15-14-6.15a16.38,16.38,0,0,0-13.29,14.94c-.35,7.42,4.13,13.4,11.7,15.59,6.6,1.91,14.09-1.5,17.82-8.12.34-.61.7-1.22,1.06-1.82-3.89-.27-7.3-1.38-8.21-5.74C270.15,224.86,272.21,222.09,275.91,220.35Z"/><path class="cls-11" d="M275.91,220.35c-3.7,1.74-5.76,4.51-4.88,8.7.91,4.36,4.32,5.47,8.21,5.74,4.81-2.31,6.59-5.1,5.7-8.95S281.18,220.21,275.91,220.35Z"/></g></svg>