<svg id="character" xmlns="http://www.w3.org/2000/svg" viewBox="0 0 102.87 114.35">
  <defs>
    <style>
      .cls-1 {
        fill: #8c6239;
      }

      .cls-2 {
        fill: #a67c52;
      }

      .cls-3 {
        fill: #c69c6d;
      }

      .cls-4, .cls-6 {
        fill: none;
        stroke: #fff;
        stroke-width: 2px;
      }

      .cls-4 {
        stroke-miterlimit: 10;
      }

      .cls-5 {
        fill: #fff;
      }

      .cls-6 {
        stroke-linecap: round;
        stroke-linejoin: round;
      }
    </style>
  </defs>
  <title>p03</title>
  <g>
    <g>
      <path class="cls-1" d="M43.83,0h4.83a2.15,2.15,0,0,1,2.15,2.15V112.08a2.27,2.27,0,0,1-2.27,2.27h-5.7a2.27,2.27,0,0,1-2.27-2.27V3.26A3.26,3.26,0,0,1,43.83,0Z"/>
      <path class="cls-2" d="M81.09,47.49H.87L0,41l.87-7L2,25,.87,18.44V11.65h78.6a4.65,4.65,0,0,1,2.89,1L102.1,28a2,2,0,0,1,0,3.15Z"/>
      <path class="cls-3" d="M81.09,46.49H.87L0,40l.87-7L2,24,.87,17.44V10.65h78.6a4.65,4.65,0,0,1,2.89,1L102.1,27a2,2,0,0,1,0,3.15Z"/>
    </g>
    <path class="cls-4" d="M10.44,36.67A69.89,69.89,0,0,0,26.8,24.16"/>
    <path class="cls-5" d="M26.55,22.55a1.53,1.53,0,0,0-.27.79c0,.7.93,1,1.62,1a19.36,19.36,0,0,0,7.8-1.12l-1.14,2.94a1.49,1.49,0,0,0-.12,1.07c.32.74,1.44.43,2.14,0L41.73,24a9,9,0,0,0,1.79,3.58,3.09,3.09,0,0,0,3.66.77c1.52-.93,1.49-3.29,2.85-4.45a26.28,26.28,0,0,0,5.66,5,8.73,8.73,0,0,0,1.38-5.74L60.25,25c.44.25,1,.5,1.42.15a1.24,1.24,0,0,0,.2-1l-.28-2.48,4.18,2c.79-2.19-.65-4.72-2.72-5.79a10.24,10.24,0,0,0-6.83-.5A19.15,19.15,0,0,1,53,18a16.7,16.7,0,0,1-5.19-1.08,26.67,26.67,0,0,0-8.69-1.17,24.64,24.64,0,0,0-5.32,1,7.6,7.6,0,0,0-1.85.62,13.3,13.3,0,0,0-2.75,2.44A16.68,16.68,0,0,0,26.55,22.55Z"/>
    <path class="cls-6" d="M65.43,23.84a50.92,50.92,0,0,0,15.8,14.54q-35.94,1.08-71.89-.93"/>
  </g>
</svg>
