<svg id="Layer_1" data-name="Layer 1" xmlns="http://www.w3.org/2000/svg" viewBox="0 0 352.65 221.99"><defs><style>.cls-1{fill:#db9a00;}.cls-2{fill:#262626;}.cls-3{fill:#00a6b2;}.cls-4{fill:#da9b03;}.cls-5{fill:#2a2825;}.cls-6{fill:#d79d0b;}.cls-7{fill:#bda93c;}.cls-8{fill:#fefefe;}.cls-9{fill:#ae9f2b;}.cls-10{fill:#17595e;}.cls-11{fill:#fdfdfd;}</style></defs><title>16_the_happy_fish_dances</title><path class="cls-1" d="M227.22,66A16.46,16.46,0,0,0,229.65,68c.75.3,1.16,1.09,1.94,1.35.32.27.29,1,1,.81a4.12,4.12,0,0,0,1.66,1.37c.61,1.2,1.82,1.79,2.74,2.69A104.57,104.57,0,0,1,247,85c.33,2.42,1.2,4.72,1.46,7.15.13,1.27.21,1.33,1.37.7,4.72-2.58,9.53-5,14.34-7.34,9.42-4.64,18.92-9.11,28.58-13.25,8.43-3.61,17-7,25.63-10q6.92-2.38,14-4.27a140.63,140.63,0,0,1,13.89-2.93,11.49,11.49,0,0,1,5.61.1,72.34,72.34,0,0,1-2,9.41,79.07,79.07,0,0,1-4.87,13.11c-.23.32-.23.74-.5,1l-4.42,8.18c-2.85.07-5.69-.3-8.54-.1-4.64.32-9.27.54-13.91.94-4,.34-7.93.88-11.9,1.24-5.34.5-10.65,1.36-16,2.13-3.06.44-6.15.67-9.17,1.31-4.6,1-9.29,1.4-13.9,2.31-3.91.77-7.85,1.41-11.75,2.23-2,.42-4,.8-6,1.38a1.47,1.47,0,0,0-1.19,1.38c-.4,3-.46,3.06,2.22,4.51,3.89,2.11,7.78,4.2,11.7,6.23,3.75,1.94,7.43,4,11.2,5.95,4.2,2.13,8.39,4.26,12.59,6.38S294.09,127,298.4,129c4.7,2.17,9.42,4.32,14.31,6a24.74,24.74,0,0,0,6.61,1.7,1.77,1.77,0,0,1,1.08.31c.82,4.49,1.32,9,1.92,13.53.21,1.63.16,3.28.52,4.88.14.46.21.94.32,1.41a16.64,16.64,0,0,0,.42,4.41,2,2,0,0,0,.1,1.21l.21,3.88a13.36,13.36,0,0,0,.26,1.35c0,4.15.47,8.27.64,12.41a83.74,83.74,0,0,1-1.17,17.14c-.17,1.06-.55,2.09-.83,3.14-1.07-.1-1.58-1-2.2-1.67-4.94-5.34-10-10.55-14.95-15.9-4.38-4.76-8.59-9.67-12.92-14.47-3.38-3.75-6.61-7.61-9.8-11.51-4-4.86-7.91-9.75-11.71-14.76-4.51-6-8.88-12-13-18.22-1.63-2.44-3.16-5-4.76-7.44-2.18-3.38-4.69-6.54-7-10.16-.42,1.74-1.22,3-1.55,4.53-.13.59-.27,1.26-1.1,1.27a2.43,2.43,0,0,0-3.42-.87,60.31,60.31,0,0,0-11.47,7.91c-2.17,1.87-4.45,3.62-6.59,5.52-1.75,1.55-3.37,3.25-5,4.89-2.51,2.45-5.13,4.81-7.51,7.39-2.74,3-5.73,5.73-7.94,9.19a62.06,62.06,0,0,1-4,5.07,7.63,7.63,0,0,1-1.48,1.7c-1.87,2-3.46,4.23-5.5,6.06-2.94,2.65-5.75,5.45-8.91,7.82-2.9,2.18-5.81,4.4-8.9,6.28s-6.52,3.66-9.89,5.3a119.21,119.21,0,0,1-14,5.61c-2.57.87-5.18,1.59-7.82,2.22a5,5,0,0,0-1,.32l-5.4,1.06c-.42.2-.92.13-1.33.4-3.22.44-6.43,1-9.66,1.3a119.8,119.8,0,0,1-15,.27,136.1,136.1,0,0,1-17.82-1.42c-4.32-.69-8.68-1.22-12.94-2.31-1.7-.44-3.44-.77-5.15-1.15a3.48,3.48,0,0,0-.85-.31,174.52,174.52,0,0,1-25.6-8.43c-.29-.4-.8-.38-1.18-.59l-1.57-.58c-.29-.41-.81-.37-1.19-.61a94.83,94.83,0,0,1-8.78-4.07c-3-1.49-5.92-3-8.87-4.55a4,4,0,0,0-1.37-.52c-2.84-.42-5.73-.64-8.51-1.32s-6-.59-8.72-2c-4.22-2.16-6.63-6-3.27-10.46a4.7,4.7,0,0,0,1-2.13.68.68,0,0,1,.5-.23c2.79.1,5.45-.65,8.15-1.15a29.55,29.55,0,0,0,8.77-3.14,53.5,53.5,0,0,1-13,3.68,19.83,19.83,0,0,1-4.54,0c-3.72-3.25-5.41-9.6-2.79-14,.43-.72.94-1.41,1.31-2.17s1.09-1.09,1.33-1.86l.87-1c.5-.2.65-.79,1.12-1,1.6-1.74,3.63-3.11,4.78-5.24.95-1.75,1.7-3.61,2.66-5.35a136.83,136.83,0,0,1,8.77-14.23c.25-.55.84-.88,1-1.48l.63-.85c.11-.52.69-.76.78-1.29C27.66,96,30.64,92.13,34,88.57a110,110,0,0,1,8.22-8.21,8.52,8.52,0,0,0,.87-1c.39-.15.6-.53,1-.74,2.75-2.11,5.25-4.53,8.08-6.55s5.46-3.89,8.34-5.61c2.11-1.26,4.15-2.63,6.31-3.79,2.5-1.33,5.1-2.49,7.66-3.71a123.07,123.07,0,0,1,13.74-5.21c2.7-.91,5.46-1.67,8.22-2.41a4.52,4.52,0,0,0,2.5-1.43,3.24,3.24,0,0,1,1.58-1.55,81,81,0,0,1,13.93-6.19,151.82,151.82,0,0,1,17.31-5.26,184.4,184.4,0,0,1,19-3.49,131.88,131.88,0,0,1,17.05-1.06c1.33,0,2.66.19,4,.25.38,0,.78,0,1,.45a37.35,37.35,0,0,0-1.25,10.13c0,.91.23,1.41,1.36,1.6a106.29,106.29,0,0,1,12.88,2.75,144.11,144.11,0,0,1,16.42,5.63c2.37,1,4.8,1.92,7.15,3,3.29,1.49,6.64,2.89,9.76,4.7,2.34,1.36,4.63,2.85,6.87,4.4C226.46,65.35,226.69,65.95,227.22,66Z"/><path class="cls-2" d="M320.39,137.06c-2.88.28-5.46-1-8.08-1.78s-4.86-1.95-7.27-3c-3.21-1.38-6.42-2.76-9.56-4.32-2.63-1.31-5.34-2.47-8-3.81-4-2.05-8.11-4-12.14-6.1s-8.16-4.24-12.22-6.4c-5.19-2.75-10.37-5.54-15.56-8.31a.9.9,0,0,1-.54-1.25,6.35,6.35,0,0,0,.42-2.36c-.11-1.19.42-1.53,1.45-1.76,4.41-1,8.84-1.95,13.3-2.75,5.2-.94,10.42-1.77,15.63-2.64s10.56-1.61,15.84-2.36Q303,88.95,312.25,88c5.83-.61,11.66-1.13,17.53-1.41,2.83-.13,5.64-.13,8.45,0,.64,0,1.35-.12,1.91.39-2.38,4.18-5.38,7.94-8,12-.17.82-1.08,1.16-1.27,2-2.59,3.05-4.57,6.56-7.19,9.58a4.36,4.36,0,0,1-1.26,1.54,35.52,35.52,0,0,1-2.93,3.37,4.51,4.51,0,0,0-1.42,4.52c.31,1.78.43,3.59.64,5.39.12.46.17.93.33,1.38-.24,2.08.72,4,.91,6,.23.44.12,1,.36,1.4C320.17,135,321.41,136,320.39,137.06Z"/><path class="cls-3" d="M243.78,112.12a2.28,2.28,0,0,0,.74-1.14c.47-1.57,1-3.13,1.52-4.69.07-.19,0-.5.32-.56s.34.25.45.44c1.86,3,4,5.84,6,8.73s3.88,6,5.83,9c3.45,5.26,7.15,10.34,10.9,15.39,4.1,5.53,8.41,10.89,12.75,16.23S291,166,295.57,171.12s9.23,10.38,14,15.43c4.38,4.65,8.81,9.26,13.22,13.89-.59,7.42-2.83,14.19-7.89,19.84-.54.1-.61.76-1.1.92-.9.55-1.79,1.45-2.73.07-.78-.39-1.26-1.21-2.11-1.51a97.08,97.08,0,0,1-9.67-9.32c-4.85-5.31-9.45-10.85-13.89-16.52-3.65-4.67-7.19-9.42-10.76-14.15-3-3.94-5.78-8-8.91-11.85a70,70,0,0,1-6.88-10.66,129.45,129.45,0,0,1-7.61-16.39c-.79-2.07-1.54-4.17-2.15-6.32-.48-1.71-1.14-3.39-1.57-5.13-.18-.27-.13-.63-.36-.88-.59-2.36-1.13-4.74-1.75-7.08-.69-2.59-1-5.24-1.64-7.83A6.15,6.15,0,0,1,243.78,112.12Z"/><path class="cls-3" d="M351.92,55.19c-5.67-.09-11.14,1.16-16.61,2.48q-5.76,1.39-11.4,3.18c-4,1.27-8,2.61-11.92,4.18-3,1.2-6.06,2.23-9.06,3.43q-6.1,2.44-12.13,5-5,2.15-9.9,4.46-7.16,3.35-14.27,6.81c-4.31,2.1-8.58,4.26-12.86,6.41-1.79.9-3.55,1.85-5.43,2.84a38.72,38.72,0,0,0-1.51-7.49c-.17-.56.15-1,.17-1.49,1.18-.41,1.76-1.54,2.61-2.31a243,243,0,0,1,21-17.29,218.24,218.24,0,0,1,21.52-14.11c.44-.25.66-.85,1.27-.81a10.5,10.5,0,0,0,1.13-.72,98.66,98.66,0,0,1,12.41-6.51c4.2-2,8.53-3.62,12.87-5.23,1-.38,2.11-.54,3.09-1a134.46,134.46,0,0,1,13.51-3.36c3.76-.69,7.52-.95,11.3-1.29a2.22,2.22,0,0,1,1.94.68,8.59,8.59,0,0,1,.9,1.45,25.15,25.15,0,0,1,1.78,6.79c.13.46.2.94.32,1.4,0,3,.14,6-.09,9A20.05,20.05,0,0,1,351.92,55.19Z"/><path class="cls-3" d="M184.56,11.85,181.84,15a79.33,79.33,0,0,0-12.36,1.89C164.29,18,159.1,19.14,154,20.62s-10.37,3.08-15.45,4.94A145.11,145.11,0,0,0,119.28,34a84.85,84.85,0,0,0-13.2,8.65,62.86,62.86,0,0,0-5.85,5.82c-.36.38-.65.84-1.28.76a20.54,20.54,0,0,1,3-6.55c3.24-5.31,7.89-9.28,12.74-13,.62-.48,1.5-.62,1.88-1.41.44,0,.57-.54,1-.64,1.8-.76,3.26-2.06,5-3,2.89-1.57,5.76-3.19,8.69-4.7,3.57-1.83,7.16-3.61,10.85-5.18,3.46-1.47,6.91-3,10.41-4.33,3.34-1.31,6.72-2.54,10.11-3.71,2.48-.86,5-1.62,7.52-2.32,3.11-.87,6.26-1.63,9.39-2.44a4.51,4.51,0,0,0,1-.33l2.21-.36c.45-.18.94-.18,1.39-.36A73.26,73.26,0,0,1,192.73,0a11.87,11.87,0,0,1,1.5.06,1.16,1.16,0,0,1,1.08.72c.17.53-.37.68-.73,1A51.27,51.27,0,0,0,186.1,10,5,5,0,0,0,184.56,11.85Z"/><path class="cls-2" d="M99,49.27c1.13-.48,1.6-1.62,2.35-2.45A61.07,61.07,0,0,1,116.56,35.1a130,130,0,0,1,15.68-7.5c5.5-2.26,11.12-4.16,16.79-5.89,4.05-1.24,8.16-2.31,12.29-3.29,6-1.42,12-2.62,18.14-3.53a3.49,3.49,0,0,1,2.37.15c-3.82,5.41-7.06,11.11-8.74,17.58,0,.16-.23.29-.34.43a92.75,92.75,0,0,0-20.93.56c-3.19.42-6.38.82-9.54,1.39-4.92.9-9.77,2-14.6,3.35-2.81.76-5.59,1.61-8.37,2.49A119.69,119.69,0,0,0,105.83,46a34.77,34.77,0,0,0-7,3.88C98.64,49.66,99.06,49.5,99,49.27Z"/><path class="cls-4" d="M349.39,33.24a3.19,3.19,0,0,0-2.11-.45,80.88,80.88,0,0,0-12.91,1.57,62.69,62.69,0,0,0-9.27,2.39,18.31,18.31,0,0,1-2.22.5c-.17.09-.36.15-.5,0s0-.24.11-.3c3.41-1.29,7-2.11,10.45-3.15.44-.22.95-.19,1.4-.38l1.79-.33c.42-.2.92-.14,1.33-.39,2.52-.37,5-.8,7.55-1.09a22,22,0,0,1,3.4,0c1.14,0,1.75.61,1.61,1.81C349.76,33.52,349.62,33.26,349.39,33.24Z"/><path class="cls-5" d="M4.06,148.27c.35-.35.78-.23,1.21-.22,4.35.12,8.45-1,12.52-2.42,1.55-.53,3.07-1.11,4.61-1.75-.57,2.34-12.53,5.74-18.24,5.25Z"/><path class="cls-6" d="M322.5,36.93c-.05.34.24.23.39.32-1.83.67-3.67,1.33-5.49,2a131.74,131.74,0,0,0-13.89,6c-3,1.55-6,3.12-9.07,4.69l-.11-.12a33.68,33.68,0,0,1,6.8-4.07,132.94,132.94,0,0,1,13.6-6.1A56.89,56.89,0,0,1,322.5,36.93Z"/><path class="cls-7" d="M349.39,33.24l.63.22c.55.19.55.62.49,1.08C349.9,34.3,349.87,33.58,349.39,33.24Z"/><path class="cls-8" d="M308.95,219.75c1,.14,1.4,1,2.11,1.51C310.14,221.06,309.66,220.25,308.95,219.75Z"/><path class="cls-8" d="M196.34,152.92l1.48-1.7A2.59,2.59,0,0,1,196.34,152.92Z"/><path class="cls-8" d="M322.41,112l1.26-1.54A1.91,1.91,0,0,1,322.41,112Z"/><path class="cls-8" d="M320.3,134c-.47-.38-.35-.9-.36-1.4A1.3,1.3,0,0,1,320.3,134Z"/><path class="cls-8" d="M323.67,162.51c-.25-.39-.52-.77-.1-1.21A1.73,1.73,0,0,1,323.67,162.51Z"/><path class="cls-8" d="M324.13,167.75a1.46,1.46,0,0,1-.26-1.35A1.33,1.33,0,0,1,324.13,167.75Z"/><path class="cls-8" d="M319,126.63a2.14,2.14,0,0,1-.33-1.38A1.37,1.37,0,0,1,319,126.63Z"/><path class="cls-8" d="M323.15,156.89c-.41-.4-.32-.91-.32-1.41A1.29,1.29,0,0,1,323.15,156.89Z"/><path class="cls-8" d="M313.79,221.2c.39-.28.47-.93,1.1-.92C314.53,220.6,314.38,221.15,313.79,221.2Z"/><path class="cls-8" d="M247.16,128.53a.75.75,0,0,1,.36.88C246.86,129.34,247.29,128.82,247.16,128.53Z"/><path class="cls-9" d="M294.33,49.8l.11.12a1.08,1.08,0,0,1-1.09.6A1.31,1.31,0,0,1,294.33,49.8Z"/><path class="cls-3" d="M185.55,155.56c.14,1.19-.65,2.12-.9,3.21-.11.46-.55.45-.93.5-2.34.34-4.66.76-7,1-8.15.87-16.31,1.33-24.44-.14a38.2,38.2,0,0,1-14.79-5.62,35,35,0,0,1-11.73-13.37,16.19,16.19,0,0,1-1.51-5.79,5.25,5.25,0,0,1,2.18-4.66c1.46-1.27,2.92-2.56,4.51-3.7a8.68,8.68,0,0,1,3.41-1.19,49.46,49.46,0,0,1,19.15-.14,96.31,96.31,0,0,1,12,2.78c4.73,1.47,9.52,2.8,13.83,5.4,2.65,1.6,3.73,4.23,4.84,6.85a18.38,18.38,0,0,1,1.57,5.22,7.81,7.81,0,0,1-3.67,1.81,32.3,32.3,0,0,1-14.8.47A85.91,85.91,0,0,1,155,144.68c-2.73-1-5.33-2.27-8-3.45a2.64,2.64,0,0,1-.72-.53,42.8,42.8,0,0,0,7.9,5.21,41.23,41.23,0,0,0,22.39,4.32,29.4,29.4,0,0,0,7.5-1.53,2.4,2.4,0,0,1,1.8-.19c.54,1.63.08,3.26,0,4.89a28.26,28.26,0,0,1-6.28,1,76.11,76.11,0,0,1-13.63-.11,65.75,65.75,0,0,1-23.13-6.57,43.47,43.47,0,0,1-8.43-5c-.33-.27-.59-.61-.93-.87-.16-.21-.42-.32-.49-.43a3.14,3.14,0,0,1,.39.36,50,50,0,0,0,10.89,7.93c8.17,4.27,16.93,6,26.06,6.35a67.92,67.92,0,0,0,14.05-.74A1.37,1.37,0,0,1,185.55,155.56Z"/><path class="cls-2" d="M47.28,104.08a18.92,18.92,0,0,1,26.88-2c8.09,7.24,8.86,18.8,1.72,26.84s-18.53,8.93-26.94,1.51A18.88,18.88,0,0,1,47.28,104.08Z"/><path class="cls-2" d="M101.35,167c1.41-2.67,2.73-5.13,4-7.62a106.64,106.64,0,0,0,6.79-15.64,82.55,82.55,0,0,0,3.37-16.53,74.1,74.1,0,0,0,.45-11.16,48.73,48.73,0,0,0-6.19-22.77A40.09,40.09,0,0,0,97.33,80,41.42,41.42,0,0,0,82,73.52c-1.9-.37-2.6-1.55-2.06-3.41a1.08,1.08,0,0,1,1.5-.84,48.09,48.09,0,0,1,18.09,8.6,46.74,46.74,0,0,1,12.89,16,49.88,49.88,0,0,1,5.32,17.91,79.53,79.53,0,0,1-.32,14.87,83.65,83.65,0,0,1-1.75,11.3A74.4,74.4,0,0,1,110,154.11a48.81,48.81,0,0,1-6.07,10C103.16,165.07,102.62,166.25,101.35,167Z"/><path class="cls-2" d="M133.45,141.76a55.54,55.54,0,0,0,11.62,6.68,68.32,68.32,0,0,0,28.4,5.91,77.43,77.43,0,0,0,10.8-.86c.51-.07,1,0,1.55-.07a2.57,2.57,0,0,1-.28,2.14,67.84,67.84,0,0,1-16.33,1,63.69,63.69,0,0,1-14.41-2.25,52.18,52.18,0,0,1-8.49-3,43.78,43.78,0,0,1-7.8-4.57,36.32,36.32,0,0,1-5.33-4.72Q133.19,141.67,133.45,141.76Z"/><path class="cls-2" d="M185.84,148.52c-14.94,5.28-31.42.5-40.37-8.38,1.68.78,3.41,1.49,5.08,2.28a69.48,69.48,0,0,0,8.76,3.4,49.79,49.79,0,0,0,12.91,2.65c4.49.18,8.91-.22,13-2.39a2.12,2.12,0,0,1,.55-.12C185.85,146.8,186.38,147.64,185.84,148.52Z"/><path class="cls-10" d="M133.45,141.76l-.26.19c-.22-.42-1-.39-1-1.1A3.2,3.2,0,0,1,133.45,141.76Z"/><path class="cls-8" d="M73.14,126.29a15.32,15.32,0,1,1-1.81-21.54A15.28,15.28,0,0,1,73.14,126.29Z"/><path class="cls-2" d="M50.85,109.1a12.89,12.89,0,1,1,20.56,15.51A12.89,12.89,0,0,1,50.85,109.1Z"/><path class="cls-11" d="M59.24,116.92c-1.09,1.49-3.5,2-4.82.82-1.7-1.48-2-3.1-.61-5.09.84-1.24,3.44-1.54,4.65-.66A3.58,3.58,0,0,1,59.24,116.92Z"/><path d="M2.51,147.32s.45,0,1.32-.06,2.08-.15,3.55-.32a65.73,65.73,0,0,0,10.67-2.07c.95-.28,1.89-.58,2.8-.92s1.8-.69,2.64-1.09a23.78,23.78,0,0,0,4.37-2.57A15,15,0,0,0,29.41,139a13.39,13.39,0,0,0,1.08-1.15c.29-.33.47-.63.62-.81l.21-.29-.18.32c-.12.2-.27.52-.52.89a13.67,13.67,0,0,1-.94,1.3,15.44,15.44,0,0,1-1.41,1.55A24.71,24.71,0,0,1,24.1,144c-.82.52-1.69,1-2.59,1.47s-1.84.9-2.78,1.31A68.4,68.4,0,0,1,8,150.27c-1.5.36-2.77.63-3.67.79s-1.43.25-1.43.25Z"/></svg>