<svg id="Layer_1" data-name="Layer 1" xmlns="http://www.w3.org/2000/svg" viewBox="0 0 234.17 384.22"><defs><style>.cls-1{fill:#db9a00;}.cls-2{fill:#262626;}.cls-3{fill:#00a6b2;}.cls-4{fill:#da9b03;}.cls-5{fill:#2a2825;}.cls-6{fill:#d79d0b;}.cls-7{fill:#bda93c;}.cls-8{fill:#fefefe;}.cls-9{fill:#ae9f2b;}.cls-10{fill:#17595e;}.cls-11{fill:#fdfdfd;}</style></defs><title>16_the_happy_fish_dances</title><path class="cls-1" d="M121.18,232.43a5,5,0,0,1,1.57-4.63l0,0c.08-.54.68-.75.77-1.28,1.57-2.23,3.08-4.51,4.46-6.84,1.83-3.1,3.25-6.44,4.77-9.72,1.09-2.34,2-4.76,3-7.12a149.85,149.85,0,0,0,6-17.24,100.38,100.38,0,0,0,2.59-12c.19-1.13.69-1.33,1.61-1.35a37.35,37.35,0,0,1,10.12,1.32c.42-.2.44-.6.46-1,.07-1.33.27-2.65.28-4a131.88,131.88,0,0,0-.93-17.06,184.4,184.4,0,0,0-3.34-19.06,151.82,151.82,0,0,0-5.12-17.35,81,81,0,0,0-6.09-14,3.24,3.24,0,0,0-1.53-1.6A4.52,4.52,0,0,1,138.47,97c-.72-2.76-1.46-5.52-2.35-8.23A123.07,123.07,0,0,0,131,75c-1.2-2.57-2.34-5.17-3.65-7.69-1.14-2.17-2.5-4.22-3.74-6.34-1.7-2.9-3.62-5.64-5.54-8.38s-4.39-5.37-6.48-8.13c-.2-.35-.58-.56-.73-1a8.52,8.52,0,0,1-1-.88,110,110,0,0,0-8.14-8.28C98.19,31,94.3,28,90.56,24.83c-.53-.1-.76-.68-1.28-.79l-.85-.64c-.6-.18-.92-.76-1.47-1A136.83,136.83,0,0,0,72.8,13.5c-1.74-1-3.58-1.74-5.33-2.7C65.34,9.63,64,7.6,62.26,6c-.22-.48-.81-.63-1-1.13l-1-.87c-.77-.24-1.18-1-1.85-1.34S57,1.75,56.25,1.31C51.9-1.35,45.53.3,42.25,4a19.83,19.83,0,0,0-.05,4.54,53.5,53.5,0,0,0,3.58,13,29.55,29.55,0,0,1-3.07-8.8c-.49-2.71-1.22-5.37-1.09-8.16a.68.68,0,0,0-.23-.51,4.7,4.7,0,0,1-2.12-1C34.84-.34,31,2,28.79,6.24c-1.41,2.7-1.31,5.81-2,8.7s-.94,5.67-1.39,8.5a4,4,0,0,1-.53,1.36c-1.54,2.94-3.1,5.88-4.61,8.84a94.83,94.83,0,0,0-4.14,8.75c-.25.37-.21.89-.62,1.18l-.6,1.56c-.22.38-.2.89-.6,1.18A174.52,174.52,0,0,0,5.63,71.85a3.48,3.48,0,0,1-.31.84c-.39,1.72-.74,3.44-1.19,5.15A115,115,0,0,0,2,89.16,152.05,152.05,0,0,0,.18,108a123.84,123.84,0,0,0,.13,15.56c.3,3.23.81,6.45,1.23,9.67.26.4.19.9.39,1.33l1,5.41a5,5,0,0,1,.31,1c.61,2.64,1.3,5.25,2.16,7.83a119.21,119.21,0,0,0,5.5,14c1.62,3.38,3.31,6.73,5.22,9.93s4.05,6,6.21,9c2.35,3.18,5.13,6,7.75,9,1.82,2.05,4,3.66,6,5.55a7.63,7.63,0,0,0,1.69,1.49,62.06,62.06,0,0,0,5,4c3.53,2.28,6.31,5.38,9.34,8.2q2.88,2.68,5.49,5.62c2.08,2.35,4.42,4.48,6.48,6.84,1.89,2.16,3.62,4.45,5.47,6.64,3,3.57,25.57,22.78,30.12,23.88a2.43,2.43,0,0,1,2,2.9c.64.54,1.17.13,1.66-.23,1.23-.9,2.69-1.36,4.15-2.4-.63,4.24-.81,8.27-1.39,12.25-.42,2.91-.92,5.82-1.3,8.73-1,7.4-1.64,14.84-2.15,22.29-.43,6.38-.67,12.76-.87,19.15-.15,4.67-.18,12.32-.13,17,.07,5.73,0,11.46.21,17.19.2,7.27.62,14.53.83,21.81,0,.91-.18,1.92.57,2.7.9-.6,1.86-1.14,2.68-1.82a83.74,83.74,0,0,0,12.14-12.16c2.59-3.24,4.93-6.66,7.66-9.78a13.36,13.36,0,0,1,.7-1.19l2.39-3.06c.2-.36.32-.77.72-1a16.64,16.64,0,0,1,2.58-3.61c.23-.42.49-.83.69-1.27.78-1.45,1.91-2.66,2.81-4,2.52-3.8,5.11-7.54,7.44-11.47a1.77,1.77,0,0,0-.61-.94,19.2,19.2,0,0,1-3-4c-2.08-3.55-3.93-7.23-5.64-11-2.68-5.83-5.27-11.72-7.7-17.66-1.78-4.35-3.54-8.72-5.31-13.08-1.51-3.73-2.85-7.53-4.32-11.28-1.53-3.9-3.06-7.81-4.5-11.74-1.5-4.09-1.72-3.82.84-6.07a1.47,1.47,0,0,1,1.8-.26c1.86.85,3.63,1.88,5.41,2.87,3.48,1.94,6.87,4,10.33,6,4.07,2.35,7.89,5.1,12,7.39,3.16,1.76,6,4,9.14,5.88q6,3.59,11.63,7.7c3.38,2.45,6.87,4.74,10.25,7.21,3.76,2.74,7.4,5.63,11.1,8.43,2.29,1.73,4.18,3.87,6.38,5.69l8.71-3.26c.4,0,.68-.36,1.06-.45A79.07,79.07,0,0,0,213,289.7a72.34,72.34,0,0,0,7.67-5.8,11.49,11.49,0,0,0-4.17-3.76,140.63,140.63,0,0,0-12.41-6.91q-6.59-3.24-13.39-6c-8.5-3.44-17.16-6.47-25.9-9.28-10-3.22-20.1-6.09-30.25-8.78-5.19-1.37-10.39-2.73-15.64-3.88-1.29-.28-1.31-.38-.58-1.43,1.4-2,2.33-4.06,3.67-6.1Z"/><path class="cls-2" d="M143.15,324.94c-2.36-1.68-3.49-4.3-4.93-6.65s-2.38-4.66-3.52-7c-1.52-3.15-3-6.3-4.38-9.53-1.13-2.72-2.41-5.37-3.51-8.1-1.69-4.2-3.46-8.37-5.15-12.57s-3.37-8.56-5-12.85c-2.11-5.49-4.18-11-6.28-16.48a.9.9,0,0,1,.41-1.29,6.35,6.35,0,0,0,1.87-1.5c.7-1,1.32-.87,2.25-.38,4,2.13,7.95,4.34,11.84,6.66,4.54,2.71,9,5.5,13.52,8.28s9,5.71,13.5,8.62q7.84,5.09,15.49,10.45c4.8,3.37,9.54,6.81,14.14,10.45,2.22,1.76,4.34,3.6,6.39,5.53.47.44,1.09.8,1.18,1.55-4.54,1.58-9.28,2.46-13.89,3.76-.67.5-1.57.16-2.25.65-4,.6-7.75,2-11.72,2.5a4.36,4.36,0,0,1-2,.33,35.52,35.52,0,0,1-4.42.62,4.51,4.51,0,0,0-4,2.48c-.94,1.54-2,3-3.06,4.49-.21.43-.49.82-.66,1.26-1.54,1.41-2.06,3.47-3.25,5.11-.12.48-.54.81-.65,1.29C144.31,323.27,144.61,324.82,143.15,324.94Z"/><path class="cls-3" d="M101.76,255.82a2.28,2.28,0,0,0,1.31-.37c1.39-.88,2.81-1.71,4.22-2.54.18-.1.33-.38.61-.21s.09.41.06.63c-.57,3.49-.84,7-1.21,10.52s-1,7.06-1.49,10.59c-.85,6.23-1.4,12.49-1.89,18.76-.53,6.87-.81,13.74-1,20.62s-.3,13.67-.26,20.51.15,13.89.42,20.83c.25,6.39.56,12.77.85,19.16-5.32,5.21-11.45,8.85-19,9.78-.47-.27-1,.17-1.43,0-1-.18-2.3-.08-2.1-1.74-.33-.81-.15-1.74-.6-2.52a97.08,97.08,0,0,1-1.17-13.38c-.17-7.19,0-14.39.38-21.58.31-5.92.76-11.82,1.18-17.73.35-4.93.9-9.83,1.06-14.78a70,70,0,0,1,1.81-12.56,129.45,129.45,0,0,1,5-17.36c.77-2.08,1.58-4.16,2.53-6.18.76-1.61,1.37-3.3,2.19-4.9,0-.32.32-.56.31-.9,1.11-2.17,2.26-4.32,3.33-6.49,1.18-2.41,2.68-4.61,3.91-7A6.15,6.15,0,0,1,101.76,255.82Z"/><path class="cls-3" d="M220.69,283.9c-4.22-3.79-9.16-6.44-14.16-9q-5.26-2.73-10.69-5.08c-3.86-1.68-7.75-3.29-11.73-4.67-3.05-1.06-6-2.3-9.09-3.36q-6.2-2.16-12.46-4.16-5.17-1.66-10.39-3.14-7.6-2.17-15.23-4.24c-4.63-1.25-9.27-2.43-13.91-3.61-1.94-.5-3.89-.93-6-1.42a38.72,38.72,0,0,0,3.78-6.64c.24-.54.77-.65,1.11-1,1.16.46,2.34,0,3.48,0a243,243,0,0,1,27.15.72,218.24,218.24,0,0,1,25.5,3.49c.5.1,1.05-.2,1.49.22a10.5,10.5,0,0,0,1.32.2,98.66,98.66,0,0,1,13.63,3.24c4.45,1.29,8.81,2.87,13.14,4.51,1,.39,1.94,1,3,1.26a134.46,134.46,0,0,1,12.4,6.34c3.29,1.95,6.3,4.22,9.37,6.45a2.22,2.22,0,0,1,1,1.79,8.59,8.59,0,0,1-.27,1.68,25.15,25.15,0,0,1-3.11,6.29c-.2.44-.47.84-.68,1.27-2,2.26-3.85,4.64-6,6.77A20.05,20.05,0,0,1,220.69,283.9Z"/><path class="cls-3" d="M177.27,185.54l-3.17-2.74a79.33,79.33,0,0,0-1.79-12.38c-1-5.2-2.13-10.39-3.57-15.5s-3-10.39-4.82-15.49a145.11,145.11,0,0,0-8.33-19.33A84.85,84.85,0,0,0,147,106.83a62.86,62.86,0,0,0-5.77-5.89c-.38-.36-.83-.66-.75-1.28a20.54,20.54,0,0,1,6.52,3c5.28,3.28,9.22,8,12.94,12.84.48.62.61,1.5,1.4,1.9,0,.44.54.57.63,1,.75,1.8,2,3.28,3,5,1.55,2.9,3.15,5.78,4.63,8.73,1.81,3.58,3.55,7.19,5.09,10.89,1.45,3.47,2.91,6.93,4.25,10.44,1.29,3.35,2.49,6.73,3.63,10.14.84,2.48,1.58,5,2.26,7.53.84,3.12,1.58,6.27,2.37,9.41a4.51,4.51,0,0,0,.32,1l.34,2.21c.18.45.17.94.35,1.39a73.26,73.26,0,0,1,.85,8.72,11.87,11.87,0,0,1-.07,1.5,1.16,1.16,0,0,1-.73,1.08c-.53.17-.67-.37-1-.74a51.27,51.27,0,0,0-8.19-8.55A5,5,0,0,0,177.27,185.54Z"/><path class="cls-2" d="M140.52,99.65c.47,1.14,1.6,1.61,2.43,2.37a61.07,61.07,0,0,1,11.6,15.34,130,130,0,0,1,7.37,15.73c2.21,5.52,4.07,11.15,5.76,16.84,1.21,4.06,2.25,8.18,3.19,12.32,1.37,6,2.52,12.07,3.39,18.17a3.49,3.49,0,0,1-.17,2.36c-5.38-3.86-11.05-7.14-17.51-8.88-.16,0-.29-.23-.43-.35a92.75,92.75,0,0,0-.4-20.93c-.39-3.19-.77-6.38-1.32-9.55-.86-4.92-2-9.79-3.24-14.62-.74-2.82-1.56-5.61-2.43-8.39a119.69,119.69,0,0,0-5.07-13.53,34.77,34.77,0,0,0-3.83-7C140.13,99.33,140.29,99.75,140.52,99.65Z"/><path class="cls-4" d="M233.21,265.68a3.19,3.19,0,0,0-1.3-1.72,80.88,80.88,0,0,0-10.77-7.29,62.69,62.69,0,0,0-8.56-4.28,18.31,18.31,0,0,1-2-1.08c-.19,0-.37-.12-.36-.35s.12-.21.28-.15c3.42,1.27,6.64,3,9.95,4.49.48.12.84.48,1.3.63l1.57.93c.45.13.78.5,1.26.58,2.14,1.37,4.32,2.7,6.41,4.13a22,22,0,0,1,2.53,2.27,1.46,1.46,0,0,1,0,2.42C233.29,266.14,233.36,265.85,233.21,265.68Z"/><path class="cls-5" d="M42.25,4c.34.36.23.78.21,1.21-.15,4.35,1,8.46,2.32,12.54.52,1.55,1.09,3.08,1.71,4.62-2.33-.59-5.65-12.57-5.11-18.28Z"/><path class="cls-6" d="M210.5,250.8c-.26.22,0,.34.09.5-1.82-.7-3.64-1.4-5.47-2.09a131.74,131.74,0,0,0-14.39-4.62c-3.3-.82-6.61-1.62-9.92-2.42V242a33.68,33.68,0,0,1,7.8,1.4,132.94,132.94,0,0,1,14.26,4.33A56.89,56.89,0,0,1,210.5,250.8Z"/><path class="cls-7" d="M233.21,265.68l.33.57c.29.5,0,.83-.34,1.14C232.89,266.82,233.33,266.25,233.21,265.68Z"/><path class="cls-8" d="M80.22,379.79c.63.74.39,1.69.6,2.52C80.27,381.56,80.43,380.63,80.22,379.79Z"/><path class="cls-8" d="M36.12,196.23l1.69,1.49A2.59,2.59,0,0,1,36.12,196.23Z"/><path class="cls-8" d="M161.15,307.34l2-.33A1.91,1.91,0,0,1,161.15,307.34Z"/><path class="cls-8" d="M145.08,322.59c-.11-.59.33-.91.65-1.29A1.3,1.3,0,0,1,145.08,322.59Z"/><path class="cls-8" d="M128.91,346.29c.07-.45.11-.92.72-1A1.73,1.73,0,0,1,128.91,346.29Z"/><path class="cls-8" d="M125.82,350.54c0-.55.33-.87.7-1.19A1.33,1.33,0,0,1,125.82,350.54Z"/><path class="cls-8" d="M149,316.18a2.14,2.14,0,0,1,.66-1.26A1.37,1.37,0,0,1,149,316.18Z"/><path class="cls-8" d="M132.21,341.7c0-.57.36-.9.69-1.27A1.29,1.29,0,0,1,132.21,341.7Z"/><path class="cls-8" d="M82.93,384.06c.48,0,1-.39,1.43,0C83.88,384.09,83.4,384.41,82.93,384.06Z"/><path class="cls-8" d="M93.53,270.42a.75.75,0,0,1-.31.9C92.77,270.83,93.43,270.72,93.53,270.42Z"/><path class="cls-9" d="M180.8,242q0,.08,0,.16a1.08,1.08,0,0,1-1.22-.26A1.31,1.31,0,0,1,180.8,242Z"/><path class="cls-3" d="M33.57,185.41c-1.19.13-2.12-.67-3.2-.93-.46-.11-.44-.55-.49-.93-.32-2.34-.73-4.67-1-7-.81-8.16-1.2-16.32.33-24.44A38.2,38.2,0,0,1,35,137.34a35,35,0,0,1,13.46-11.63,16.19,16.19,0,0,1,5.8-1.46,5.25,5.25,0,0,1,4.64,2.21c1.26,1.47,2.54,2.94,3.67,4.54a8.68,8.68,0,0,1,1.16,3.41,49.46,49.46,0,0,1,0,19.15,96.31,96.31,0,0,1-2.88,12c-1.51,4.71-2.87,9.5-5.51,13.79-1.62,2.64-4.26,3.7-6.88,4.79a18.38,18.38,0,0,1-5.23,1.53A7.81,7.81,0,0,1,41.4,182,32.3,32.3,0,0,1,41,167.2a85.91,85.91,0,0,1,3.64-12.29c1-2.72,2.32-5.31,3.51-7.95a2.64,2.64,0,0,1,.53-.72,42.8,42.8,0,0,0-5.27,7.86A41.23,41.23,0,0,0,39,176.45,29.4,29.4,0,0,0,40.42,184a2.4,2.4,0,0,1,.18,1.8c-1.64.53-3.26.05-4.89-.05a28.26,28.26,0,0,1-1-6.29A76.11,76.11,0,0,1,35,165.8a65.75,65.75,0,0,1,6.75-23.08,43.47,43.47,0,0,1,5-8.39c.28-.33.61-.59.88-.92.21-.16.33-.42.43-.49a3.14,3.14,0,0,1-.36.38,50,50,0,0,0-8,10.83c-4.34,8.14-6.15,16.89-6.55,26a67.92,67.92,0,0,0,.63,14.06A1.37,1.37,0,0,1,33.57,185.41Z"/><path class="cls-2" d="M86.11,47.55a18.92,18.92,0,0,1,1.77,26.89C80.57,82.47,69,83.15,61,76S52.23,57.35,59.71,49A18.88,18.88,0,0,1,86.11,47.55Z"/><path class="cls-2" d="M22.73,101.13c2.66,1.43,5.11,2.77,7.59,4.07a106.64,106.64,0,0,0,15.59,6.91,82.55,82.55,0,0,0,16.5,3.5,74.1,74.1,0,0,0,11.15.53,48.73,48.73,0,0,0,22.82-6,40.09,40.09,0,0,0,13.38-12.34,41.42,41.42,0,0,0,6.64-15.28c.39-1.9,1.57-2.59,3.43-2a1.08,1.08,0,0,1,.83,1.5,48.09,48.09,0,0,1-8.74,18,46.74,46.74,0,0,1-16.09,12.76A49.88,49.88,0,0,1,77.89,118,79.53,79.53,0,0,1,63,117.52a83.65,83.65,0,0,1-11.29-1.84,74.4,74.4,0,0,1-16.13-5.77,48.81,48.81,0,0,1-10-6.15C24.69,103,23.52,102.41,22.73,101.13Z"/><path class="cls-2" d="M47.77,133.43A55.54,55.54,0,0,0,41,145a68.32,68.32,0,0,0-6.13,28.35,77.43,77.43,0,0,0,.77,10.81c.07.51,0,1,.06,1.55a2.57,2.57,0,0,1-2.14-.3,67.84,67.84,0,0,1-.84-16.34,63.69,63.69,0,0,1,2.36-14.39,52.18,52.18,0,0,1,3.09-8.46,43.78,43.78,0,0,1,4.63-7.76,36.32,36.32,0,0,1,4.76-5.29Q47.85,133.17,47.77,133.43Z"/><path class="cls-2" d="M40.6,185.76c-5.17-15-.26-31.42,8.7-40.31-.79,1.68-1.52,3.4-2.31,5.06a69.48,69.48,0,0,0-3.47,8.74,49.79,49.79,0,0,0-2.75,12.89c-.22,4.49.15,8.91,2.29,13a2.12,2.12,0,0,1,.12.55C42.32,185.79,41.47,186.31,40.6,185.76Z"/><path class="cls-10" d="M47.77,133.43l-.19-.26c.43-.22.4-1,1.11-1A3.2,3.2,0,0,1,47.77,133.43Z"/><path class="cls-8" d="M63.7,73.24a15.32,15.32,0,1,1,21.56-1.65A15.28,15.28,0,0,1,63.7,73.24Z"/><path class="cls-2" d="M81.06,51.08A12.89,12.89,0,1,1,65.39,71.52,12.89,12.89,0,0,1,81.06,51.08Z"/><path class="cls-11" d="M73.18,59.41c-1.48-1.1-1.95-3.52-.79-4.83,1.49-1.68,3.11-1.95,5.1-.57,1.23.85,1.52,3.45.62,4.65A3.58,3.58,0,0,1,73.18,59.41Z"/><path d="M43.21,2.45s0,.45.05,1.32.13,2.08.29,3.56a65.73,65.73,0,0,0,2,10.68c.28.95.57,1.9.9,2.81s.68,1.81,1.07,2.65a23.78,23.78,0,0,0,2.53,4.39,15,15,0,0,0,1.31,1.56,13.4,13.4,0,0,0,1.15,1.09c.33.29.62.47.81.62l.29.22-.32-.18c-.2-.12-.52-.27-.89-.52a13.67,13.67,0,0,1-1.29-1,15.44,15.44,0,0,1-1.54-1.42,24.71,24.71,0,0,1-3.17-4.2c-.51-.82-1-1.7-1.45-2.6s-.88-1.84-1.29-2.79A68.39,68.39,0,0,1,40.23,7.89c-.35-1.51-.6-2.77-.76-3.67s-.24-1.44-.24-1.44Z"/></svg>