<svg id="Layer_3" data-name="Layer 3" xmlns="http://www.w3.org/2000/svg" xmlns:xlink="http://www.w3.org/1999/xlink" viewBox="0 0 260 168"><defs><style>.cls-1{fill:#2057f2;}.cls-2{fill:#590a0a;}.cls-3{fill:#8c4d22;}.cls-4{fill:#9b582a;}.cls-5{fill:#fcdd11;}.cls-6{fill:#ffcb33;}.cls-7{fill:#a07815;}.cls-8{clip-path:url(#clip-path);}.cls-9{fill:#fff;}.cls-10{fill:#ff2c8c;}.cls-11{fill:#935227;}.cls-12{clip-path:url(#clip-path-2);}.cls-13{clip-path:url(#clip-path-3);}.cls-14{clip-path:url(#clip-path-4);}.cls-15{fill:#1350d6;}.cls-16{fill:#82461d;}.cls-17{clip-path:url(#clip-path-5);}.cls-18,.cls-20,.cls-22{fill:none;stroke-width:0.4px;}.cls-18,.cls-22{stroke:#8e8e8e;}.cls-18{stroke-miterlimit:10;}.cls-19{fill:#683310;}.cls-20{stroke:#82461d;}.cls-20,.cls-22{stroke-linecap:round;stroke-linejoin:round;}.cls-21{clip-path:url(#clip-path-6);}</style><clipPath id="clip-path"><path class="cls-1" d="M45.15,111.18S41.44,130,40.4,136.46s13.44,10.23,24.72,10.23,26.8-5.37,25.55-9.58-5.26-27.73-5.26-27.73L65.63,95.93Z"/></clipPath><clipPath id="clip-path-2"><path class="cls-1" d="M45.73,69.47S41.15,70.56,39.32,77s11.49,1.46,13-3.35S48.23,68.14,45.73,69.47Z"/></clipPath><clipPath id="clip-path-3"><path class="cls-1" d="M82.93,61.82s4.64-.81,8.84,4.34-10,5.88-13.21,2S80.11,61.58,82.93,61.82Z"/></clipPath><clipPath id="clip-path-4"><path class="cls-1" d="M47,70.38s-7.48-4-10-16.3S41.5,29,54.13,26.38s24.71.51,27.71,18.33S71.4,67,71.4,67Z"/></clipPath><clipPath id="clip-path-5"><path d="M42.77,61.15s11-2.51,12.59-12.12c0,0,8.08-1.56,12.7,2.31s8.5,5.25,11.49,4.77c0,0,1.12-2.89-.46-9.26s-5-13-22.55-9.7C36.82,40.86,39.37,54.61,39.37,54.61S39.32,60.08,42.77,61.15Z"/></clipPath><clipPath id="clip-path-6"><path class="cls-2" d="M57.08,71.38a17.1,17.1,0,0,0,12.47-2.56s1.28,5.33-5.13,6.65S57.08,71.38,57.08,71.38Z"/></clipPath></defs><path class="cls-3" d="M35.59,114.46a5.53,5.53,0,0,0-.86,4c.47,2.12.37,3-.87,3.28,0,0-1.9-4.26-1.9-4.37s1.16-5.22,1.16-5.22H35Z"/><path class="cls-4" d="M50.47,80s-4.72,3-8.85,12.72c0,0-3.78,5.65,0,7.47s6.12,1.22,9.6-4,4.55-7,5-11.82S52.23,78.53,50.47,80Z"/><path class="cls-4" d="M47.63,100.77s-6.82,9.42-9.74,11.7a3.53,3.53,0,0,1-2.91-.33c-1.75-.86-1.8-2.35-1.37-3.08S39,97,40.38,95.27s3.65-1.47,6.18,0S48.91,99,47.63,100.77Z"/><path class="cls-4" d="M37.07,109.17s.37,1.16.82,3.3.8,3.68.59,4.6-1.69,1.41-2.68-1.48c0,0-.77-.85-1.27.49a13.73,13.73,0,0,0-.49,5.57c.28,1.34-1.48,1.69-2.26,0s-2.11-5.8,1.83-12.59C33.61,109.06,35.55,107.17,37.07,109.17Z"/><path class="cls-3" d="M104.68,94a5.54,5.54,0,0,0,3.55-2c1.27-1.75,2-2.24,3-1.53,0,0-1.92,4.26-2,4.33s-4.67,2.6-4.67,2.6L103.36,96Z"/><path class="cls-4" d="M80.35,80s4.72,3,8.85,12.72c0,0,3.78,5.65,0,7.47s-6.12,1.22-9.6-4-4.55-7-5-11.82S78.59,78.53,80.35,80Z"/><path class="cls-4" d="M86.45,94.1s11.58-1.18,15.21-.51a3.55,3.55,0,0,1,1.7,2.39c.52,1.88-.56,2.91-1.4,3.07s-12.55,4-14.79,4.13-3.53-1.75-4.09-4.64S84.3,94.3,86.45,94.1Z"/><path class="cls-4" d="M99.75,96.4s.62-1.05,1.91-2.81,2.22-3,3-3.5,2.18.33.68,3c0,0-.12,1.14,1.21.61a13.68,13.68,0,0,0,4.49-3.33c.81-1.1,2.24,0,1.5,1.68s-2.93,5.44-10.63,7C102,99.05,99.27,98.86,99.75,96.4Z"/><path class="cls-5" d="M113.1,80.26c.12-.28.56-.09,1,0s.66.09.69.47a13.18,13.18,0,0,1,.82,2c.24,1.21-.15,7.6-7.25,10.82s-11.12,1-12.91-1.84a9.43,9.43,0,0,1-.58-2,3.87,3.87,0,0,0-.54-1.21,1.27,1.27,0,0,0-.72-.5.45.45,0,0,1-.28-.62c.07-.16.31-.26.52-.55.37-.53.88-1,1.3,0s1.12,1,1.75,1.3a9.29,9.29,0,0,0,9,.13c4.27-2.26,3.92-4.23,6.24-6.58A3.67,3.67,0,0,0,113.1,80.26Z"/><path class="cls-6" d="M114.05,80.22c.39,0,.66.09.69.47a13.18,13.18,0,0,1,.82,2c.24,1.21-.15,7.6-7.25,10.82s-11.12,1-12.91-1.84a9.43,9.43,0,0,1-.58-2,3.87,3.87,0,0,0-.54-1.21,1.27,1.27,0,0,0-.72-.5.45.45,0,0,1-.28-.62,1.35,1.35,0,0,1,.52-.55c1-.66.45-.11,1.14.76,1.49,1.87,6.63,5.12,11.74,2.15C113.08,86,113.66,80.17,114.05,80.22Z"/><path class="cls-7" d="M114.6,80.58c.13-.27-.24-.34-.55-.38s-.66-.19-.75,0c0,0,0,.12.14.17S114.53,80.7,114.6,80.58Z"/><path class="cls-4" d="M62.58,151.85s1.36,2.19.6,3.83l-.6,1.71-3.52.59-3.61-6.13,4-3.1Z"/><path class="cls-4" d="M51.36,144.08,53,151.65s.75,1.53,4.74,1.53,4.82-1.33,4.82-1.33l0-10s-.49-3.83-6.07-4S50.61,140.65,51.36,144.08Z"/><path d="M46.59,153.15s1.13-3.24,6.5-3.69,7.24,5.36,7.24,5.36L61,157l2.14-1.29a.9.9,0,0,1,1,.85c.16,1-2.62,2.64-2.62,2.64S59.38,162,50,161.4C41.63,160.86,46.59,153.15,46.59,153.15Z"/><path class="cls-4" d="M71.31,151.85S70,154,70.72,155.68l.59,1.71,3.53.59,3.61-6.13-4-3.1Z"/><path class="cls-4" d="M82.53,144.08l-1.65,7.57s-.76,1.53-4.75,1.53-4.82-1.33-4.82-1.33l0-10s.49-3.83,6.06-4S83.28,140.65,82.53,144.08Z"/><path d="M87.31,153.15s-1.14-3.24-6.51-3.69-7.24,5.36-7.24,5.36l-.7,2.15-2.14-1.29a.9.9,0,0,0-1,.85c-.17,1,2.62,2.64,2.62,2.64s2.16,2.84,11.53,2.23C92.27,160.86,87.31,153.15,87.31,153.15Z"/><path class="cls-1" d="M45.15,111.18S41.44,130,40.4,136.46s13.44,10.23,24.72,10.23,26.8-5.37,25.55-9.58-5.26-27.73-5.26-27.73L65.63,95.93Z"/><g class="cls-8"><ellipse class="cls-9" cx="-0.12" cy="76.77" rx="4.55" ry="4.38"/><ellipse class="cls-9" cx="-0.12" cy="96.3" rx="4.55" ry="4.38"/><ellipse class="cls-9" cx="-0.12" cy="115.84" rx="4.55" ry="4.38"/><ellipse class="cls-9" cx="-0.12" cy="135.37" rx="4.55" ry="4.38"/><ellipse class="cls-9" cx="-0.12" cy="154.9" rx="4.55" ry="4.38"/><ellipse class="cls-9" cx="15.33" cy="68.21" rx="4.55" ry="4.38"/><ellipse class="cls-9" cx="15.33" cy="87.75" rx="4.55" ry="4.38"/><ellipse class="cls-9" cx="15.33" cy="107.28" rx="4.55" ry="4.38"/><ellipse class="cls-9" cx="15.33" cy="126.81" rx="4.55" ry="4.38"/><ellipse class="cls-9" cx="15.33" cy="146.34" rx="4.55" ry="4.38"/><ellipse class="cls-9" cx="15.33" cy="165.88" rx="4.55" ry="4.38"/><ellipse class="cls-9" cx="28.82" cy="76.77" rx="4.55" ry="4.38"/><ellipse class="cls-9" cx="28.82" cy="96.3" rx="4.55" ry="4.38"/><ellipse class="cls-9" cx="28.82" cy="115.84" rx="4.55" ry="4.38"/><ellipse class="cls-9" cx="28.82" cy="135.37" rx="4.55" ry="4.38"/><ellipse class="cls-9" cx="28.82" cy="154.9" rx="4.55" ry="4.38"/><ellipse class="cls-9" cx="44.27" cy="68.21" rx="4.55" ry="4.38"/><ellipse class="cls-9" cx="44.27" cy="87.75" rx="4.55" ry="4.38"/><ellipse class="cls-9" cx="44.27" cy="107.28" rx="4.55" ry="4.38"/><ellipse class="cls-9" cx="44.27" cy="126.81" rx="4.55" ry="4.38"/><ellipse class="cls-9" cx="44.27" cy="146.34" rx="4.55" ry="4.38"/><ellipse class="cls-9" cx="44.27" cy="165.88" rx="4.55" ry="4.38"/><ellipse class="cls-9" cx="57.75" cy="76.77" rx="4.55" ry="4.38"/><ellipse class="cls-9" cx="57.75" cy="96.3" rx="4.55" ry="4.38"/><ellipse class="cls-9" cx="57.75" cy="115.84" rx="4.55" ry="4.38"/><ellipse class="cls-9" cx="57.75" cy="135.37" rx="4.55" ry="4.38"/><ellipse class="cls-9" cx="57.75" cy="154.9" rx="4.55" ry="4.38"/><ellipse class="cls-9" cx="73.21" cy="68.21" rx="4.55" ry="4.38"/><ellipse class="cls-9" cx="73.21" cy="87.75" rx="4.55" ry="4.38"/><ellipse class="cls-9" cx="73.21" cy="107.28" rx="4.55" ry="4.38"/><ellipse class="cls-9" cx="73.21" cy="126.81" rx="4.55" ry="4.38"/><ellipse class="cls-9" cx="73.21" cy="146.34" rx="4.55" ry="4.38"/><ellipse class="cls-9" cx="73.21" cy="165.88" rx="4.55" ry="4.38"/><ellipse class="cls-9" cx="86.69" cy="76.77" rx="4.55" ry="4.38"/><ellipse class="cls-9" cx="86.69" cy="96.3" rx="4.55" ry="4.38"/><ellipse class="cls-9" cx="86.69" cy="115.84" rx="4.55" ry="4.38"/><ellipse class="cls-9" cx="86.69" cy="135.37" rx="4.55" ry="4.38"/><ellipse class="cls-9" cx="86.69" cy="154.9" rx="4.55" ry="4.38"/><ellipse class="cls-9" cx="102.15" cy="68.21" rx="4.55" ry="4.38"/><ellipse class="cls-9" cx="102.15" cy="87.75" rx="4.55" ry="4.38"/><ellipse class="cls-9" cx="102.15" cy="107.28" rx="4.55" ry="4.38"/><ellipse class="cls-9" cx="102.15" cy="126.81" rx="4.55" ry="4.38"/><ellipse class="cls-9" cx="102.15" cy="146.34" rx="4.55" ry="4.38"/><ellipse class="cls-9" cx="102.15" cy="165.88" rx="4.55" ry="4.38"/><ellipse class="cls-9" cx="115.63" cy="76.77" rx="4.55" ry="4.38"/><ellipse class="cls-9" cx="115.63" cy="96.3" rx="4.55" ry="4.38"/><ellipse class="cls-9" cx="115.63" cy="115.84" rx="4.55" ry="4.38"/><ellipse class="cls-9" cx="115.63" cy="135.37" rx="4.55" ry="4.38"/><ellipse class="cls-9" cx="115.63" cy="154.9" rx="4.55" ry="4.38"/><ellipse class="cls-9" cx="131.09" cy="68.21" rx="4.55" ry="4.38"/><ellipse class="cls-9" cx="131.09" cy="87.75" rx="4.55" ry="4.38"/><ellipse class="cls-9" cx="131.09" cy="107.28" rx="4.55" ry="4.38"/><ellipse class="cls-9" cx="131.09" cy="126.81" rx="4.55" ry="4.38"/><ellipse class="cls-9" cx="131.09" cy="146.34" rx="4.55" ry="4.38"/><ellipse class="cls-9" cx="131.09" cy="165.88" rx="4.55" ry="4.38"/><ellipse class="cls-9" cx="144.57" cy="76.77" rx="4.55" ry="4.38"/><ellipse class="cls-9" cx="144.57" cy="96.3" rx="4.55" ry="4.38"/><ellipse class="cls-9" cx="144.57" cy="115.84" rx="4.55" ry="4.38"/><ellipse class="cls-9" cx="144.57" cy="135.37" rx="4.55" ry="4.38"/><ellipse class="cls-9" cx="144.57" cy="154.9" rx="4.55" ry="4.38"/></g><path class="cls-10" d="M81.26,82.36c-2.4-6.26-13.86-5.63-16-5.53-2.13-.1-13.79-.58-16.19,5.68-2.65,6.9-3.94,28.67-3.94,28.67s4.27,2,20,2,20.56-2,20.56-2S83.91,89.26,81.26,82.36Z"/><ellipse class="cls-11" cx="65.54" cy="78.52" rx="6.26" ry="3.84"/><path class="cls-1" d="M45.73,69.47S41.15,70.56,39.32,77s11.49,1.46,13-3.35S48.23,68.14,45.73,69.47Z"/><g class="cls-12"><circle class="cls-9" cx="14.52" cy="60.91" r="1.6"/><circle class="cls-9" cx="15.95" cy="67.9" r="1.6"/><circle class="cls-9" cx="17.39" cy="74.88" r="1.6"/><circle class="cls-9" cx="18.82" cy="81.86" r="1.6"/><circle class="cls-9" cx="20.26" cy="88.84" r="1.6"/><circle class="cls-9" cx="21.7" cy="95.83" r="1.6"/><circle class="cls-9" cx="19.79" cy="63.02" r="1.6"/><circle class="cls-9" cx="21.23" cy="70" r="1.6"/><circle class="cls-9" cx="22.67" cy="76.98" r="1.6"/><circle class="cls-9" cx="24.1" cy="83.96" r="1.6"/><circle class="cls-9" cx="25.54" cy="90.95" r="1.6"/><circle class="cls-9" cx="26.98" cy="97.93" r="1.6"/><circle class="cls-9" cx="24.49" cy="58.86" r="1.6"/><circle class="cls-9" cx="25.93" cy="65.84" r="1.6"/><circle class="cls-9" cx="27.36" cy="72.83" r="1.6"/><circle class="cls-9" cx="28.8" cy="79.81" r="1.6"/><circle class="cls-9" cx="30.24" cy="86.79" r="1.6"/><circle class="cls-9" cx="31.67" cy="93.78" r="1.6"/><circle class="cls-9" cx="29.77" cy="60.96" r="1.6"/><circle class="cls-9" cx="31.21" cy="67.95" r="1.6"/><circle class="cls-9" cx="32.64" cy="74.93" r="1.6"/><circle class="cls-9" cx="34.08" cy="81.91" r="1.6"/><circle class="cls-9" cx="35.51" cy="88.9" r="1.6"/><circle class="cls-9" cx="36.95" cy="95.88" r="1.6"/><circle class="cls-9" cx="34.47" cy="56.81" r="1.6"/><circle class="cls-9" cx="35.9" cy="63.79" r="1.6"/><circle class="cls-9" cx="37.34" cy="70.78" r="1.6"/><circle class="cls-9" cx="38.78" cy="77.76" r="1.6"/><circle class="cls-9" cx="40.21" cy="84.74" r="1.6"/><circle class="cls-9" cx="41.65" cy="91.72" r="1.6"/><circle class="cls-9" cx="39.75" cy="58.91" r="1.6"/><circle class="cls-9" cx="41.18" cy="65.9" r="1.6"/><circle class="cls-9" cx="42.62" cy="72.88" r="1.6"/><circle class="cls-9" cx="44.05" cy="79.86" r="1.6"/><circle class="cls-9" cx="45.49" cy="86.84" r="1.6"/><circle class="cls-9" cx="46.93" cy="93.83" r="1.6"/><circle class="cls-9" cx="44.44" cy="54.76" r="1.6"/><circle class="cls-9" cx="45.88" cy="61.74" r="1.6"/><circle class="cls-9" cx="47.31" cy="68.72" r="1.6"/><circle class="cls-9" cx="48.75" cy="75.71" r="1.6"/><circle class="cls-9" cx="50.19" cy="82.69" r="1.6"/><circle class="cls-9" cx="51.62" cy="89.67" r="1.6"/><circle class="cls-9" cx="49.72" cy="56.86" r="1.6"/><circle class="cls-9" cx="51.16" cy="63.84" r="1.6"/><circle class="cls-9" cx="52.59" cy="70.83" r="1.6"/><circle class="cls-9" cx="54.03" cy="77.81" r="1.6"/><circle class="cls-9" cx="55.47" cy="84.79" r="1.6"/><circle class="cls-9" cx="56.9" cy="91.77" r="1.6"/><circle class="cls-9" cx="54.42" cy="52.71" r="1.6"/><circle class="cls-9" cx="55.85" cy="59.69" r="1.6"/><circle class="cls-9" cx="57.29" cy="66.67" r="1.6"/><circle class="cls-9" cx="58.73" cy="73.65" r="1.6"/><circle class="cls-9" cx="60.16" cy="80.64" r="1.6"/><circle class="cls-9" cx="61.6" cy="87.62" r="1.6"/><circle class="cls-9" cx="59.7" cy="54.81" r="1.6"/><circle class="cls-9" cx="61.13" cy="61.79" r="1.6"/><circle class="cls-9" cx="62.57" cy="68.77" r="1.6"/><circle class="cls-9" cx="64" cy="75.76" r="1.6"/><circle class="cls-9" cx="65.44" cy="82.74" r="1.6"/><circle class="cls-9" cx="66.88" cy="89.72" r="1.6"/><circle class="cls-9" cx="64.39" cy="50.66" r="1.6"/><circle class="cls-9" cx="65.83" cy="57.64" r="1.6"/><circle class="cls-9" cx="67.26" cy="64.62" r="1.6"/><circle class="cls-9" cx="68.7" cy="71.6" r="1.6"/><circle class="cls-9" cx="70.14" cy="78.59" r="1.6"/><circle class="cls-9" cx="71.57" cy="85.57" r="1.6"/><circle class="cls-9" cx="69.67" cy="52.76" r="1.6"/><circle class="cls-9" cx="71.11" cy="59.74" r="1.6"/><circle class="cls-9" cx="72.54" cy="66.72" r="1.6"/><circle class="cls-9" cx="73.98" cy="73.71" r="1.6"/><circle class="cls-9" cx="75.42" cy="80.69" r="1.6"/><circle class="cls-9" cx="76.85" cy="87.67" r="1.6"/></g><path class="cls-1" d="M82.93,61.82s4.64-.81,8.84,4.34-10,5.88-13.21,2S80.11,61.58,82.93,61.82Z"/><g class="cls-13"><circle class="cls-9" cx="108.24" cy="41.64" r="1.6"/><circle class="cls-9" cx="109.67" cy="48.62" r="1.6"/><circle class="cls-9" cx="111.11" cy="55.6" r="1.6"/><circle class="cls-9" cx="112.54" cy="62.59" r="1.6"/><circle class="cls-9" cx="113.98" cy="69.57" r="1.6"/><circle class="cls-9" cx="115.42" cy="76.55" r="1.6"/><circle class="cls-9" cx="104.22" cy="45.65" r="1.6"/><circle class="cls-9" cx="105.65" cy="52.64" r="1.6"/><circle class="cls-9" cx="107.09" cy="59.62" r="1.6"/><circle class="cls-9" cx="108.52" cy="66.6" r="1.6"/><circle class="cls-9" cx="109.96" cy="73.58" r="1.6"/><circle class="cls-9" cx="111.4" cy="80.57" r="1.6"/><circle class="cls-9" cx="98.26" cy="43.69" r="1.6"/><circle class="cls-9" cx="99.7" cy="50.67" r="1.6"/><circle class="cls-9" cx="101.13" cy="57.65" r="1.6"/><circle class="cls-9" cx="102.57" cy="64.64" r="1.6"/><circle class="cls-9" cx="104" cy="71.62" r="1.6"/><circle class="cls-9" cx="105.44" cy="78.6" r="1.6"/><circle class="cls-9" cx="94.24" cy="47.7" r="1.6"/><circle class="cls-9" cx="95.68" cy="54.69" r="1.6"/><circle class="cls-9" cx="97.11" cy="61.67" r="1.6"/><circle class="cls-9" cx="98.55" cy="68.65" r="1.6"/><circle class="cls-9" cx="99.98" cy="75.64" r="1.6"/><circle class="cls-9" cx="101.42" cy="82.62" r="1.6"/><circle class="cls-9" cx="88.28" cy="45.74" r="1.6"/><circle class="cls-9" cx="89.72" cy="52.72" r="1.6"/><circle class="cls-9" cx="91.16" cy="59.71" r="1.6"/><circle class="cls-9" cx="92.59" cy="66.69" r="1.6"/><circle class="cls-9" cx="94.03" cy="73.67" r="1.6"/><circle class="cls-9" cx="95.47" cy="80.65" r="1.6"/><circle class="cls-9" cx="84.26" cy="49.76" r="1.6"/><circle class="cls-9" cx="85.7" cy="56.74" r="1.6"/><circle class="cls-9" cx="87.14" cy="63.72" r="1.6"/><circle class="cls-9" cx="88.57" cy="70.7" r="1.6"/><circle class="cls-9" cx="90.01" cy="77.69" r="1.6"/><circle class="cls-9" cx="91.45" cy="84.67" r="1.6"/><circle class="cls-9" cx="78.31" cy="47.79" r="1.6"/><circle class="cls-9" cx="79.75" cy="54.78" r="1.6"/><circle class="cls-9" cx="81.18" cy="61.76" r="1.6"/><circle class="cls-9" cx="82.62" cy="68.74" r="1.6"/><circle class="cls-9" cx="84.05" cy="75.72" r="1.6"/><circle class="cls-9" cx="85.49" cy="82.71" r="1.6"/><circle class="cls-9" cx="74.29" cy="51.81" r="1.6"/><circle class="cls-9" cx="75.73" cy="58.79" r="1.6"/><circle class="cls-9" cx="77.16" cy="65.77" r="1.6"/><circle class="cls-9" cx="78.6" cy="72.76" r="1.6"/><circle class="cls-9" cx="80.03" cy="79.74" r="1.6"/><circle class="cls-9" cx="81.47" cy="86.72" r="1.6"/><circle class="cls-9" cx="68.33" cy="49.84" r="1.6"/><circle class="cls-9" cx="69.77" cy="56.83" r="1.6"/><circle class="cls-9" cx="71.21" cy="63.81" r="1.6"/><circle class="cls-9" cx="72.64" cy="70.79" r="1.6"/><circle class="cls-9" cx="74.08" cy="77.78" r="1.6"/><circle class="cls-9" cx="75.52" cy="84.76" r="1.6"/><circle class="cls-9" cx="64.31" cy="53.86" r="1.6"/><circle class="cls-9" cx="65.75" cy="60.84" r="1.6"/><circle class="cls-9" cx="67.19" cy="67.83" r="1.6"/><circle class="cls-9" cx="68.62" cy="74.81" r="1.6"/><circle class="cls-9" cx="70.06" cy="81.79" r="1.6"/><circle class="cls-9" cx="71.5" cy="88.77" r="1.6"/><circle class="cls-9" cx="58.36" cy="51.9" r="1.6"/><circle class="cls-9" cx="59.8" cy="58.88" r="1.6"/><circle class="cls-9" cx="61.23" cy="65.86" r="1.6"/><circle class="cls-9" cx="62.67" cy="72.84" r="1.6"/><circle class="cls-9" cx="64.1" cy="79.83" r="1.6"/><circle class="cls-9" cx="65.54" cy="86.81" r="1.6"/><circle class="cls-9" cx="54.34" cy="55.91" r="1.6"/><circle class="cls-9" cx="55.78" cy="62.89" r="1.6"/><circle class="cls-9" cx="57.21" cy="69.88" r="1.6"/><circle class="cls-9" cx="58.65" cy="76.86" r="1.6"/><circle class="cls-9" cx="60.08" cy="83.84" r="1.6"/><circle class="cls-9" cx="61.52" cy="90.82" r="1.6"/></g><path class="cls-1" d="M47,70.38s-7.48-4-10-16.3S41.5,29,54.13,26.38s24.71.51,27.71,18.33S71.4,67,71.4,67Z"/><g class="cls-14"><circle class="cls-9" cx="27.85" cy="34.14" r="1.6"/><circle class="cls-9" cx="29.29" cy="41.12" r="1.6"/><circle class="cls-9" cx="30.73" cy="48.1" r="1.6"/><circle class="cls-9" cx="32.16" cy="55.08" r="1.6"/><circle class="cls-9" cx="33.6" cy="62.07" r="1.6"/><circle class="cls-9" cx="35.04" cy="69.05" r="1.6"/><circle class="cls-9" cx="33.13" cy="36.24" r="1.6"/><circle class="cls-9" cx="34.57" cy="43.22" r="1.6"/><circle class="cls-9" cx="36" cy="50.2" r="1.6"/><circle class="cls-9" cx="37.44" cy="57.19" r="1.6"/><circle class="cls-9" cx="38.88" cy="64.17" r="1.6"/><circle class="cls-9" cx="40.31" cy="71.15" r="1.6"/><circle class="cls-9" cx="37.83" cy="32.08" r="1.6"/><circle class="cls-9" cx="39.27" cy="39.07" r="1.6"/><circle class="cls-9" cx="40.7" cy="46.05" r="1.6"/><circle class="cls-9" cx="42.14" cy="53.03" r="1.6"/><circle class="cls-9" cx="43.57" cy="60.01" r="1.6"/><circle class="cls-9" cx="45.01" cy="67" r="1.6"/><circle class="cls-9" cx="43.11" cy="34.19" r="1.6"/><circle class="cls-9" cx="44.54" cy="41.17" r="1.6"/><circle class="cls-9" cx="45.98" cy="48.15" r="1.6"/><circle class="cls-9" cx="47.42" cy="55.13" r="1.6"/><circle class="cls-9" cx="48.85" cy="62.12" r="1.6"/><circle class="cls-9" cx="50.29" cy="69.1" r="1.6"/><circle class="cls-9" cx="47.8" cy="30.03" r="1.6"/><circle class="cls-9" cx="49.24" cy="37.01" r="1.6"/><circle class="cls-9" cx="50.68" cy="44" r="1.6"/><circle class="cls-9" cx="52.11" cy="50.98" r="1.6"/><circle class="cls-9" cx="53.55" cy="57.96" r="1.6"/><circle class="cls-9" cx="54.99" cy="64.95" r="1.6"/><circle class="cls-9" cx="53.08" cy="32.13" r="1.6"/><circle class="cls-9" cx="54.52" cy="39.12" r="1.6"/><circle class="cls-9" cx="55.96" cy="46.1" r="1.6"/><circle class="cls-9" cx="57.39" cy="53.08" r="1.6"/><circle class="cls-9" cx="58.83" cy="60.07" r="1.6"/><circle class="cls-9" cx="60.26" cy="67.05" r="1.6"/><circle class="cls-9" cx="57.78" cy="27.98" r="1.6"/><circle class="cls-9" cx="59.22" cy="34.96" r="1.6"/><circle class="cls-9" cx="60.65" cy="41.95" r="1.6"/><circle class="cls-9" cx="62.09" cy="48.93" r="1.6"/><circle class="cls-9" cx="63.52" cy="55.91" r="1.6"/><circle class="cls-9" cx="64.96" cy="62.89" r="1.6"/><circle class="cls-9" cx="63.06" cy="30.08" r="1.6"/><circle class="cls-9" cx="64.49" cy="37.07" r="1.6"/><circle class="cls-9" cx="65.93" cy="44.05" r="1.6"/><circle class="cls-9" cx="67.37" cy="51.03" r="1.6"/><circle class="cls-9" cx="68.8" cy="58.01" r="1.6"/><circle class="cls-9" cx="70.24" cy="65" r="1.6"/><circle class="cls-9" cx="67.76" cy="25.93" r="1.6"/><circle class="cls-9" cx="69.19" cy="32.91" r="1.6"/><circle class="cls-9" cx="70.63" cy="39.89" r="1.6"/><circle class="cls-9" cx="72.06" cy="46.88" r="1.6"/><circle class="cls-9" cx="73.5" cy="53.86" r="1.6"/><circle class="cls-9" cx="74.94" cy="60.84" r="1.6"/><circle class="cls-9" cx="73.03" cy="28.03" r="1.6"/><circle class="cls-9" cx="74.47" cy="35.01" r="1.6"/><circle class="cls-9" cx="75.91" cy="42" r="1.6"/><circle class="cls-9" cx="77.34" cy="48.98" r="1.6"/><circle class="cls-9" cx="78.78" cy="55.96" r="1.6"/><circle class="cls-9" cx="80.21" cy="62.94" r="1.6"/><circle class="cls-9" cx="77.73" cy="23.88" r="1.6"/><circle class="cls-9" cx="79.17" cy="30.86" r="1.6"/><circle class="cls-9" cx="80.6" cy="37.84" r="1.6"/><circle class="cls-9" cx="82.04" cy="44.83" r="1.6"/><circle class="cls-9" cx="83.48" cy="51.81" r="1.6"/><circle class="cls-9" cx="84.91" cy="58.79" r="1.6"/><circle class="cls-9" cx="83.01" cy="25.98" r="1.6"/><circle class="cls-9" cx="84.45" cy="32.96" r="1.6"/><circle class="cls-9" cx="85.88" cy="39.95" r="1.6"/><circle class="cls-9" cx="87.32" cy="46.93" r="1.6"/><circle class="cls-9" cx="88.75" cy="53.91" r="1.6"/><circle class="cls-9" cx="90.19" cy="60.89" r="1.6"/></g><path class="cls-15" d="M43.4,63.14S37.51,56.7,39.86,46,54.62,33.79,59,33,73.56,32,77.91,41s.61,18,.61,18Z"/><circle class="cls-16" cx="44.01" cy="66.15" r="5.15"/><circle class="cls-16" cx="79.49" cy="58.85" r="5.15"/><path class="cls-4" d="M78.92,52.55C76.37,40.18,67.56,38.09,57.65,40.13S40.47,47.56,43,59.94a52.8,52.8,0,0,0,2.71,9.53,6.94,6.94,0,0,0,.09,2.18c.83,4,5.28,6.79,11.13,7.45a23.55,23.55,0,0,0,7.66-.27h0l.33-.06.57-.11h0l.15,0,.31-.07a25.32,25.32,0,0,0,5.15-1.67c6.54-2.86,10.63-7.8,9.67-12.44A6.84,6.84,0,0,0,80,62.31,46.63,46.63,0,0,0,78.92,52.55Z"/><path d="M48.82,60.67a1.8,1.8,0,0,1-1.83,0s.38,1.37,1,1.43l.84-.59Z"/><path d="M48.39,61.71a1.78,1.78,0,0,1-1.82,0s.37,1.37,1,1.42l.83-.58Z"/><path d="M72.91,55.71A1.78,1.78,0,0,0,74.57,55s.2,1.41-.34,1.7l-1-.21Z"/><path d="M73.71,56.5a1.77,1.77,0,0,0,1.66-.76s.2,1.41-.34,1.7l-1-.2Z"/><path d="M42.77,61.15s11-2.51,12.59-12.12c0,0,8.08-1.56,12.7,2.31s8.5,5.25,11.49,4.77c0,0,1.12-2.89-.46-9.26s-5-13-22.55-9.7C36.82,40.86,39.37,54.61,39.37,54.61S39.32,60.08,42.77,61.15Z"/><g class="cls-17"><path class="cls-18" d="M55.1,37.26s-2.16,4.61.4,12"/><path class="cls-18" d="M54.79,46.46s7.91-4.13,13.14,1.81,13.14,1.48,13.14,1.48"/><path class="cls-18" d="M54.31,43.48s7.36-6.14,14.73-.41,10.17,2.06,10.17,2.06"/><path class="cls-18" d="M54.44,39.77a10.17,10.17,0,0,1,11.21-2c7,2.72,10.38,3.4,11.26,1.07"/><path class="cls-18" d="M54.7,46.5A13.56,13.56,0,0,0,49,52.9c-1.83,4.41-9.9,6-10.67,2.19"/><path class="cls-18" d="M54.25,43.57s-1.91.85-6.64,4.6-9.49.8-9.46-.36"/><path class="cls-18" d="M40.58,43c1.1,4.92,13.93-3.32,13.93-3.32"/></g><ellipse class="cls-19" cx="62.52" cy="66.21" rx="3.79" ry="1.74" transform="translate(-12.06 13.95) rotate(-11.62)"/><circle class="cls-9" cx="51.35" cy="64.03" r="4.2"/><circle cx="52.45" cy="64.65" r="2.74"/><circle class="cls-9" cx="50.21" cy="63.52" r="0.94"/><circle class="cls-9" cx="71.92" cy="59.8" r="4.2"/><circle cx="73.02" cy="60.42" r="2.74"/><circle class="cls-9" cx="69.68" cy="58.66" r="0.94"/><path d="M46,59.47s2.55-3.94,8.55-1.76C54.5,57.71,48.76,52.29,46,59.47Z"/><path d="M75.07,53.48s-3.89-2.61-8.55,1.76C66.52,55.24,69.65,48,75.07,53.48Z"/><path class="cls-20" d="M48.55,68.59s4.23,2.4,7.15-1.52"/><path class="cls-20" d="M76.28,62.89s-2.92,3.92-7.16,1.43"/><path class="cls-2" d="M57.08,71.38a17.1,17.1,0,0,0,12.47-2.56s1.28,5.33-5.13,6.65S57.08,71.38,57.08,71.38Z"/><g class="cls-21"><path class="cls-9" d="M57.28,70.86s.88,2.71,6.51,1.55,5.4-4.06,5.4-4.06Z"/></g><path class="cls-20" d="M56.07,71.9s1.38,0,1-1.22l0-.1"/><path class="cls-20" d="M70.58,68.91s-1.27.56-1.36-.74v-.1"/><path class="cls-22" d="M54.44,39.77S40.49,41.43,42.65,53s6,11.43,5,18a10.31,10.31,0,0,0,4.21,10"/></svg>