<svg id="_16" data-name="16" xmlns="http://www.w3.org/2000/svg" xmlns:xlink="http://www.w3.org/1999/xlink" viewBox="0 0 260 168"><defs><style>.cls-1{fill:#845633;}.cls-2{fill:#1a5686;}.cls-3{fill:#774828;}.cls-4{fill:#144e75;}.cls-5{fill:#9e633b;}.cls-6{fill:#cfeaa8;}.cls-7{clip-path:url(#clip-path);}.cls-8{fill:#4f2821;}</style><clipPath id="clip-path"><path class="cls-1" d="M-4,62.37s-4.25,1-5.76,4.34-.88,4.77-.44,7,.67,2.66-.17,4.3,1.67,1.44,1.67,1.44.36,2.4.48,2.59c0,0,2.31-.92,2.88-1.22a6.91,6.91,0,0,1-2.3,2.16,2.32,2.32,0,0,0,.41.9,2.73,2.73,0,0,1,.38,1s.31,1.37,3.07.58,4-.82,7.32-4.8c0,0,4.86-3.69,4.48-9.24S4.84,63.39.9,62.3-4,62.37-4,62.37Z"/></clipPath></defs><rect class="cls-1" x="0.18" y="80.2" width="3.36" height="4.73" transform="translate(-35.41 8.87) rotate(-25.54)"/><path class="cls-1" d="M6,84.58a70.53,70.53,0,0,1,9.24,5.73l3,2.33s3.89.74,4,1.54c0,0,.27.55-2.08.3,0,0-.24.14,0,.35s2.61,1.9,2.24,2.55c0,0-.3.6-2.43-1.12,0,0-.2-.11-.1.16,0,0,1.69,3.23,1.13,3.81,0,0-.91,0-2.63-2.75,0,0,.57,2.91-.06,3.07s-1.61-3.44-1.61-3.44-.07,0-.13.13c0,0-.3,1.4-.9,1.23,0,0-.75.07-.64-3.37,0,0-4.94-6.27-8.45-7.85,0,0-1.33-.82-1.4-1.64C5.26,85.61,5.1,84.57,6,84.58Z"/><path class="cls-2" d="M6.14,86a1.88,1.88,0,0,0-2.86-1C2,85.81,1,90.64,1,90.64c.76,1,3.7,1.24,3.7,1.24C5.86,91,6.31,86.7,6.31,86.7Z"/><path class="cls-3" d="M-.63,102.93c.09.37.8,9,.8,9s-2.68,1.7-3.24,2.73,3.51.65,6.94-.74.66-2.71.59-3.66-1.79-9-1.79-9l-3.34,1.36"/><path class="cls-4" d="M6.44,97.64l-6.83,4A1.17,1.17,0,0,0-1,102.82c.16,1.17,1.86,2.27,4.23,3.7.32.19,1.29.63,1.63.49,1.68-.71,5.21-2.29,7-4.35s-2.73-4.33-4.36-5.07A1.2,1.2,0,0,0,6.44,97.64Z"/><path class="cls-1" d="M15.32,114s-2.54,2.27-3,3.37,3.58.13,6.76-1.74c3-1.76.62-2.66.13-3.53"/><path class="cls-1" d="M11.5,107.32c.21.25,3.63,6,4.5,7.43a2.06,2.06,0,0,0,2.84.1c1.36-1.31,1.26-1.63,1.26-1.63-.49-.82-6.34-8.8-6.34-8.8l-2.41,2.69"/><ellipse class="cls-5" cx="12.98" cy="117.04" rx="0.29" ry="0.11" transform="translate(-57.66 22.82) rotate(-30.53)"/><path class="cls-2" d="M5.58,102l4.23,6.7a1.17,1.17,0,0,0,1.17.54A6.54,6.54,0,0,0,15.7,106a1.18,1.18,0,0,0,0-1c-.76-1.66-3.2-6.8-5.31-8.51s-4.25,2.86-4.94,4.52A1.18,1.18,0,0,0,5.58,102Z"/><path class="cls-6" d="M.2,85.54C-1.11,87.32,2,99.45,2.63,101.05s5.22.79,8.9-1.58S10.1,89.76,8.34,86.2,2.79,82.05.2,85.54Z"/><polygon class="cls-6" points="0.31 84.64 0.2 85.54 1.33 85.52 0.31 84.64"/><polygon class="cls-2" points="4.03 82.51 0.31 84.64 1.47 85.95 5.18 83.41 4.03 82.51"/><path class="cls-1" d="M6.62,85.37a69,69,0,0,1-7,8.29l-2.75,2.6S-4.47,100-5.27,100c0,0-.59.19,0-2.1,0,0-.1-.26-.35,0s-2.26,2.31-2.85,1.85c0,0-.55-.39,1.46-2.24,0,0,.15-.18-.13-.13,0,0-3.45,1.2-3.94.56,0,0,.11-.91,3.11-2.19,0,0-3,.13-3-.52s3.64-1.08,3.64-1.08.05-.06-.11-.15c0,0-1.34-.5-1.08-1.07,0,0,0-.75,3.42-.14,0,0,6.93-4,9-7.2,0,0,1-1.19,1.82-1.13C5.71,84.46,6.77,84.46,6.62,85.37Z"/><path class="cls-2" d="M6.76,85.93a1.89,1.89,0,0,0-2.18-2.1C3,84,.11,88,.11,88c.27,1.19,2.82,2.69,2.82,2.69,1.43-.27,3.67-4,3.67-4Z"/><path class="cls-1" d="M-4,62.37s-4.25,1-5.76,4.34-.88,4.77-.44,7,.67,2.66-.17,4.3,1.67,1.44,1.67,1.44.36,2.4.48,2.59c0,0,2.31-.92,2.88-1.22a6.91,6.91,0,0,1-2.3,2.16,2.32,2.32,0,0,0,.41.9,2.73,2.73,0,0,1,.38,1s.31,1.37,3.07.58,4-.82,7.32-4.8c0,0,4.86-3.69,4.48-9.24S4.84,63.39.9,62.3-4,62.37-4,62.37Z"/><g class="cls-7"><path d="M-11.07,67.37a16.18,16.18,0,0,1,5.89-2.06c3.4-.43,4.79,0,5.31.87S.9,68,1,70.38s.12,2.18.38,2.45c0,0,.51-1.37,1.61-1.46s2.13-.2,2.53,1.21a4.59,4.59,0,0,1-1.86,4.85s1,3.09,2.93,1.74L7,80.6l4.33-2.06,2.37-2.65.64-12.43L10,60.06l-8.55-.9L-7,60.5l-3.39,1.37-1,1.9-1.22,3"/></g><path class="cls-8" d="M3.48,72a2.12,2.12,0,0,0-.9,2.17c.18,1.58,1.23,1.61,1.23,1.61a2.69,2.69,0,0,1-.65-1.59A1.61,1.61,0,0,0,5,73.81a3.81,3.81,0,0,1-1.77-.14A2.6,2.6,0,0,1,3.48,72Z"/><path d="M1.4,72.83A25.15,25.15,0,0,0,.23,69.49s-1.55-1.4-1-2.85c0,0,.51-1.16-.34-1.31,0,0,.9-1.31,1.37-1.17s2.51.57,2.51.57L4.13,66l.62,1.26Z"/><polygon class="cls-1" points="-1.14 66.9 3.2 65.58 -0.94 67.89 -1.14 66.9"/><path d="M7.53,66.23s1.82,1.18,2.12,2.36-1.27,5-1.79,5.36-2.58-4.51-2.58-4.51l-2.56-5.2-7.6-1.56A42,42,0,0,1,.59,60.31C1.67,60.14,3.93,63,3.93,63a36.54,36.54,0,0,1,3.89-.14C9.17,62.94,7.53,66.23,7.53,66.23Z"/></svg>