<svg id="Layer_2" data-name="Layer 2" xmlns="http://www.w3.org/2000/svg" xmlns:xlink="http://www.w3.org/1999/xlink" viewBox="0 0 260 168"><defs><style>.cls-1{fill:#fff;}.cls-2{fill:#784f2d;}.cls-3{fill:none;stroke:#5ab4a1;stroke-miterlimit:10;stroke-width:0.92px;}.cls-4{fill:#5ab4a1;opacity:0.12;}.cls-5{fill:#986336;}.cls-6{fill:#80562f;}.cls-7{fill:#835633;}.cls-8{fill:#663711;}.cls-9{fill:#4f2821;}.cls-10{clip-path:url(#clip-path);}.cls-11{fill:#d0e9a3;}.cls-12{fill:#275687;}.cls-13{fill:#1b5685;}</style><clipPath id="clip-path"><ellipse class="cls-1" cx="137.25" cy="75.66" rx="6.56" ry="5.05" transform="translate(-18.88 62.01) rotate(-23.87)"/></clipPath></defs><path class="cls-2" d="M166.63,96.44a143.88,143.88,0,0,1-21.2,6.81l-7.61,1.56s-6.32,5.08-7.73,4.23c0,0-1.23-.31,2.29-3.66,0,0,.1-.54-.61-.39s-6.43,1.57-7,.13c0,0-.54-1.27,5-2.31,0,0,.45-.17-.1-.37,0,0-7.29-1.64-7.44-3.28,0,0,1.17-1.47,7.77-.46,0,0-5.28-3-4.69-4.18s7.49,2.06,7.49,2.06.16,0,0-.38c0,0-1.78-2.32-.71-3,0,0,.89-1.25,6.1,3.48,0,0,16.32.62,23.46-2.77,0,0,3-1,4.4,0C166,93.88,167.87,95,166.63,96.44Z"/><path class="cls-3" d="M132.13,150.6c5.41,0,5.27-6.17,5.27-6.17v-5.15c0-.43-.73-.55-.73-.55.76,0,.74-.48.74-.48v-2.53c0-.47-.77-.55-.77-.55.73,0,.74-.39.74-.39v-2.33c0-.43-.8-.54-.8-.54.88.06.79-.57.79-.57v-2.46c0-.52-.71-.52-.71-.52a.66.66,0,0,0,.74-.75v-5c0-.59-.65-.63-.65-.63v-1.8c1.36-.79,1.11-3.25,1.11-3.25,0-3.46-5.55-10-5.55-10v-1c1-.51,0-.87,0-.87V102s0-.52-1.09-.52h-3.64s-1,0-1,.52v3.16s-1,.36,0,.87v1S121,113.52,121,117c0,0-.25,2.46,1.11,3.25V122s-.65,0-.65.63v5a.66.66,0,0,0,.74.75s-.71,0-.71.52v2.46s-.09.63.79.57c0,0-.8.11-.8.54v2.33s0,.39.74.39c0,0-.77.08-.77.55v2.53s0,.48.75.48c0,0-.74.12-.74.55v5.15s-.14,6.17,5.27,6.17Z"/><path class="cls-4" d="M131.52,150.6c4,0,3.93-6.17,3.93-6.17v-5.15c0-.43-.55-.55-.55-.55a.49.49,0,0,0,.56-.48v-2.53c0-.47-.58-.55-.58-.55.55,0,.56-.39.56-.39v-2.33c0-.43-.6-.54-.6-.54a.5.5,0,0,0,.59-.57v-2.46a.52.52,0,0,0-.53-.52c.62,0,.55-.75.55-.75v-5A.56.56,0,0,0,135,122v-1.8c1-.79.83-3.25.83-3.25,0-3.46-4.15-10-4.15-10v-1c.72-.51,0-.87,0-.87V102s0-.52-.81-.52h-2.72s-.77,0-.77.52v3.16s-.74.36,0,.87v1s-4.14,6.53-4.14,10c0,0-.19,2.46.83,3.25V122a.56.56,0,0,0-.48.63v5s-.08.75.55.75a.52.52,0,0,0-.53.52v2.46a.5.5,0,0,0,.59.57s-.6.11-.6.54v2.33s0,.39.56.39c0,0-.58.08-.58.55v2.53s0,.48.55.48c0,0-.54.12-.54.55v5.15s-.11,6.17,3.93,6.17Z"/><path class="cls-2" d="M170.74,135.61l2.5,3.24a3.92,3.92,0,0,1,.69,1.16,2.57,2.57,0,0,1-.27,2,5.66,5.66,0,0,1-1.29,1.51,8.74,8.74,0,0,1-3.56,2.07,4.47,4.47,0,0,1-3.9-.7,2.41,2.41,0,0,1-.76-1,3.79,3.79,0,0,1,.33-2.74l1.3-3.38a5.23,5.23,0,0,1,1.78-2.71,2.45,2.45,0,0,1,2.28-.12"/><path class="cls-2" d="M165,142.43a10.47,10.47,0,0,0,2.41-1.53,14.66,14.66,0,0,0,2.08-2.3,5.87,5.87,0,0,0,1.32-2.72l-.1-.14c-1-1.71-11.68-15-11.68-15l-4.94,5.63.31.43c.49.58,9,14.61,9.82,15.94A4.87,4.87,0,0,0,165,142.43Z"/><path class="cls-2" d="M173.5,139.58a6.5,6.5,0,0,1-2.07,1.86,15.82,15.82,0,0,1-3,1.51,11.07,11.07,0,0,1-3.07.6,5.42,5.42,0,0,1-1.15-.09c-1.25,1-5,4.08-5.8,5.93-1,2.23,7.4.7,14.22-2.82C178.67,143.46,174.71,141.37,173.5,139.58Z"/><ellipse class="cls-5" cx="159.73" cy="148.8" rx="0.61" ry="0.24" transform="translate(-50.45 89.8) rotate(-27.29)"/><path class="cls-6" d="M166.33,136.22l2.65,3.11a3.54,3.54,0,0,1,.75,1.13,2.58,2.58,0,0,1-.17,2,5.78,5.78,0,0,1-1.22,1.57,8.88,8.88,0,0,1-3.45,2.24,4.51,4.51,0,0,1-3.93-.51,2.34,2.34,0,0,1-.81-.93,3.82,3.82,0,0,1,.19-2.75l1.14-3.44a5.15,5.15,0,0,1,1.65-2.79,2.4,2.4,0,0,1,2.26-.24"/><path class="cls-6" d="M160.9,143.31a10.26,10.26,0,0,0,2.33-1.65,14.23,14.23,0,0,0,2-2.4,5.75,5.75,0,0,0,1.18-2.78.76.76,0,0,1-.11-.14c-1.1-1.65-12.39-14.43-12.39-14.43l-7,7.3,1.19,1c.52.55,11.15,12.12,12,13.41A4.59,4.59,0,0,0,160.9,143.31Z"/><path class="cls-6" d="M169.54,140.11a6.48,6.48,0,0,1-2.17,1.74,15.83,15.83,0,0,1-3.08,1.33,11.24,11.24,0,0,1-3.1.41,5.4,5.4,0,0,1-1.15-.16c-1.3.92-5.22,3.78-6.14,5.58-1.11,2.17,7.34,1.14,14.36-2C174.47,144.29,170.64,142,169.54,140.11Z"/><ellipse class="cls-5" cx="155.25" cy="148.5" rx="0.61" ry="0.24" transform="translate(-46.82 75.54) rotate(-23.87)"/><path class="cls-6" d="M147.91,123.36s-3.28,2-1,5.85l6.05-.79-.83-4.69Z"/><path d="M123.55,60.14s-.58-5,5.33-9.3S139.56,41,141.05,40.71s7.09,1.39,8.72,3.39c0,0,7-2.9,8.38-2.56s2.12,3.25,1.17,7.37c0,0,5.69.8,6.24,4s-.11,10.41-.11,10.41,1.88,10.44-4.52,14.67-25.59-20.5-25.59-20.5Z"/><path class="cls-7" d="M123.55,60.14s-2.37,4.74,1.94,12.25,3.37,10,3.34,13.17c0,0-.06,1.38,2.18,1.31s2.56-.52,2.8,1.33c0,0,.8,2.44,2.6,1.94s3.8-3.66,3.8-3.66-.23,3.7-1.78,5.41c0,0-.45.63.44,1.28S155.1,98.3,160.93,78l-2.7-3.16s4.36-6.24.86-11.32-7.77-.16-8.3,2.89c0,0-.66,0-1.87-2.91s-6.48-5.52-6.06-6.18,6.93-7,6.93-7-6,4.07-7.72,4.38a1.75,1.75,0,0,0-1.3-2.49C138.62,51.68,128.7,54.91,123.55,60.14Z"/><path class="cls-8" d="M140.41,86.33s-6.89,1.13-6.53,3.09S136.64,91.34,140.41,86.33Z"/><path class="cls-8" d="M140.36,86.33a27.71,27.71,0,0,1-2.46,4.8c-1.18,1.59-.58,1.75,0,2.11s2.65-.07,3.05-2.81A5.73,5.73,0,0,0,140.36,86.33Z"/><path class="cls-9" d="M154.21,63.72a4.73,4.73,0,0,0-.35,4.35c1,2.47,2.73,3.21,3.75,3.18a13.36,13.36,0,0,1-2.05-2.9s3.15-.35,3.35-2.16a7.67,7.67,0,0,1-3.64.72A14.43,14.43,0,0,1,154.21,63.72Z"/><path d="M129.29,70.81a10.08,10.08,0,0,1,3.86-3.07,23.93,23.93,0,0,1,4.43-1.36c.76-.35-.38-1.61-2.89-1.54s-5.09,2.61-6.06,3.76S127,72.14,129.29,70.81Z"/><ellipse class="cls-1" cx="137.25" cy="75.66" rx="6.56" ry="5.05" transform="translate(-18.88 62.01) rotate(-23.87)"/><g class="cls-10"><circle class="cls-9" cx="136.82" cy="78.96" r="3.71" transform="translate(-13.93 31.75) rotate(-12.6)"/><circle cx="136.82" cy="78.96" r="2.37" transform="translate(-13.93 31.75) rotate(-12.6)"/><circle class="cls-1" cx="134.2" cy="77.64" r="1.51" transform="translate(-13.7 31.14) rotate(-12.6)"/></g><rect class="cls-6" x="153.69" y="82.86" width="6.88" height="9.7" transform="translate(-19.6 53.77) rotate(-18.3)"/><path class="cls-11" d="M153.44,93.34c-3.13,3.27-2.94,24-2.1,27.43s15.42,11.53,23.51,7.66-2.38-24-5-31.64S159.59,86.92,153.44,93.34Z"/><polygon class="cls-11" points="153.45 91.53 152.64 94.79 155.29 93.58 153.45 91.53"/><polygon class="cls-12" points="162 88.17 153.89 91.53 155.91 94.5 164.1 90.3 162 88.17"/><path class="cls-6" d="M167.73,97.71a143.29,143.29,0,0,1-20.92,7.53l-7.54,1.81s-6.14,5.3-7.58,4.49c0,0-1.23-.27,2.17-3.73,0,0,.08-.55-.63-.37s-6.36,1.78-6.92.36c0,0-.59-1.25,4.87-2.47,0,0,.44-.18-.11-.37,0,0-7.33-1.39-7.54-3,0,0,1.12-1.5,7.74-.72,0,0-5.38-2.78-4.82-4S134,99,134,99s.15,0-.05-.38c0,0-1.86-2.26-.82-3,0,0,.84-1.28,6.2,3.26,0,0,16.32.07,23.33-3.56,0,0,3-1.08,4.39-.15C167.05,95.17,168.93,96.25,167.73,97.71Z"/><path class="cls-12" d="M167.39,98.86c2.66-4-1.69-6-1.69-6-3-1.25-12.18,2.8-12.18,2.8-.73,2.4,2.26,7.67,2.26,7.67,2.8,1,10.57-3.36,10.57-3.36Z"/><path class="cls-13" d="M151.81,119.87c-.34.09-5.11,1.63-5.11,3.72s13.35,9.75,16,12,11.15,3.83,13.35,0a14.21,14.21,0,0,0,1.75-11.5s-2.33,2.33-7.78.82S159.47,118,151.81,119.87Z"/></svg>