<svg id="_10" data-name="10" xmlns="http://www.w3.org/2000/svg" xmlns:xlink="http://www.w3.org/1999/xlink" viewBox="0 0 260 168"><defs><style>.cls-1{fill:#845633;}.cls-2{fill:#fff;}.cls-3{fill:#1a5686;}.cls-4{fill:#774828;}.cls-5{fill:#9e633b;}.cls-6{fill:#144e75;}.cls-7{fill:#cfeaa8;}.cls-8{clip-path:url(#clip-path);}.cls-9{fill:#4f2821;}.cls-10{fill:#64340f;}.cls-11{clip-path:url(#clip-path-2);}</style><clipPath id="clip-path"><path class="cls-1" d="M40.51,60.6s-4.29.81-5.95,4.08-1.09,4.72-.75,6.92.55,2.69-.36,4.29,1.61,1.52,1.61,1.52.25,2.41.36,2.6c0,0,2.35-.82,2.93-1.09A6.88,6.88,0,0,1,36,81a2.4,2.4,0,0,0,.36.91,2.85,2.85,0,0,1,.35,1s.24,1.38,3,.71,4-.64,7.53-4.47c0,0,5-3.46,4.88-9s-2.77-8.1-6.67-9.36S40.51,60.6,40.51,60.6Z"/></clipPath><clipPath id="clip-path-2"><path class="cls-2" d="M35.27,72.36a2,2,0,0,1,1.87-1.67c1.62,0,2.29.71,2.42,1.29a1.57,1.57,0,0,1-1.33,2.09C36.7,74.38,35.36,74.15,35.27,72.36Z"/></clipPath></defs><path class="cls-3" d="M55.72,95.66a2.74,2.74,0,0,1,.62,1.07,5.32,5.32,0,0,1,.16,1.06,5.1,5.1,0,0,1-.55,3.37,14.81,14.81,0,0,0-1.35-3,1.77,1.77,0,0,1-.32-.81,1.21,1.21,0,0,1,.48-.87c.26-.23.56-.39.83-.61a.34.34,0,0,1-.1.27"/><path class="cls-1" d="M43.53,98.26a1.46,1.46,0,0,0-.79,1.29,2.29,2.29,0,0,0,.55,1.45.78.78,0,0,0,.52.34c.29,0,.5-.27.65-.51a1.74,1.74,0,0,0,.37-1.07,1.21,1.21,0,0,0-.19-.52,2.23,2.23,0,0,0-1-.87v.16"/><path class="cls-1" d="M44.67,92.23c.17-.49.34-1,.5-1.49a16.62,16.62,0,0,0,.91-5s.14-1.55.84-2c0,0,.86-.61,1.26.22a64.84,64.84,0,0,1-.51,7.57l0,.25c-.06.47-.12.94-.19,1.39,0,0,.14,1.21-1.72,1.69-.1,0-.11-.13-.11-.13l-.82-1.47Z"/><rect class="cls-1" x="43.82" y="78.67" width="3.36" height="4.73" transform="translate(-28.03 24.2) rotate(-22.98)"/><path class="cls-3" d="M45.8,83.69a1.88,1.88,0,0,1,3,.41c.81,1.34-.51,6.09-.51,6.09-1.1.52-3.86-.56-3.86-.56-.66-1.29.89-5.36.89-5.36Z"/><path class="cls-1" d="M47.79,95c-.24.3-.46.59-.68.84l-2.45,2.9s-.9,3.85-1.7,4c0,0-.56.25-.22-2.09,0,0-.13-.24-.35,0s-2,2.54-2.63,2.15c0,0-.6-.32,1.21-2.39,0,0,.12-.19-.15-.11,0,0-3.3,1.57-3.85,1,0,0,0-.92,2.84-2.52,0,0-2.92.45-3.06-.19S40.25,97,40.25,97s0-.07-.13-.13c0,0-1.39-.36-1.19-1,0,0,0-.75,3.39-.51,0,0,1.6-1.16,3.42-2.75"/><path class="cls-3" d="M49.63,84.62a1.88,1.88,0,0,0-2.81-1.11c-1.37.77-2.55,5.56-2.55,5.56.72,1,3.65,1.4,3.65,1.4,1.2-.8,1.85-5.1,1.85-5.1Z"/><path class="cls-4" d="M53.39,106.39l5.21,7,.46-.31a6.74,6.74,0,0,0,1.06-1c1.82-1.93,1.46-2.14,1.46-2.14-.55-.78-6.21-6.73-6.21-6.73l-2.14,2.9Z"/><path class="cls-4" d="M58.19,113.39s-1.4,2.85-1.35,4,3.34-1.27,5.55-4.23c1.89-2.56-.09-2.69-1-3.17"/><ellipse class="cls-5" cx="57.55" cy="117.02" rx="0.29" ry="0.11" transform="translate(-54.76 50.75) rotate(-33.27)"/><path class="cls-4" d="M61.62,110a3.54,3.54,0,0,1,.67.9l-1.46.44-.74-.93.72-.7Z"/><path class="cls-6" d="M48.11,101.24l4.25,6.69a1.16,1.16,0,0,0,1.17.53,7.72,7.72,0,0,0,4.65-3.85c.18-.32-.51-1.82-.67-2.15-.76-1.66-2.46-5.13-4.58-6.84S48.7,98.5,48,100.16A1.16,1.16,0,0,0,48.11,101.24Z"/><path class="cls-1" d="M43,100.61c.13.31,1.74,7.34,2.12,9a1.93,1.93,0,0,0,2.55.44c1.7-.83,1.69-1.17,1.69-1.17-.2-.93-3.32-10.33-3.32-10.33l-3.11,1.83"/><path class="cls-1" d="M45.24,109.32s-1.54,3-1.52,4.21,3.38-1.17,5.66-4.08c2.13-2.72-.39-2.7-1.16-3.33"/><ellipse class="cls-5" cx="44.17" cy="113.01" rx="0.29" ry="0.11" transform="translate(-71.99 77.95) rotate(-51.85)"/><path class="cls-3" d="M51.18,95.23l-7.55,2.43a1.19,1.19,0,0,0-.81,1c-.1,1.17,2.78,3.16,4.78,5.08.26.26,0,.45.42.39a19.53,19.53,0,0,0,7.38-2.83c2.16-1.59-1.72-4.82-3.15-5.9A1.18,1.18,0,0,0,51.18,95.23Z"/><path class="cls-7" d="M43.72,83.93C42.32,85.65,45,95.44,45.5,97.06s5.13,3.5,8.91,1.29-1-9.76-2.59-13.39S46.45,80.57,43.72,83.93Z"/><polygon class="cls-7" points="43.86 83.03 43.72 83.93 44.84 83.96 43.86 83.03"/><polygon class="cls-3" points="47.68 81.08 43.86 83.03 44.97 84.4 48.78 82.03 47.68 81.08"/><path class="cls-1" d="M51.32,87.37l2.46,2.18a52,52,0,0,1,2.49,5.58c-1.16,3.24-.43,3.41-.43,3.41.51.35,1.23-.89,1.23-.89.12-.15.17-.09.17-.09s-.2,3.73.46,3.77,1-2.9,1-2.9c.78,3.17,1.65,3.42,1.65,3.42.72-.37.1-4,.1-4,0-.28.15-.11.15-.11,1.49,2.29,2,1.81,2,1.81.55-.5-1.15-2.82-1.35-3.11s.06-.35.06-.35c2.16,1,2.08.35,2.08.35.12-.8-3.35-2.7-3.35-2.7L57.9,90.62c-.5-.74-1.14-1.58-1.83-2.45a12.27,12.27,0,0,0-3.53-1.92Z"/><path class="cls-1" d="M54.16,89.9A16,16,0,0,0,50,87.22s-1.38-.74-1.49-1.55c0,0-.23-1,.69-1.08a64,64,0,0,1,6.45,3.25"/><path class="cls-3" d="M48.38,83.09a1.88,1.88,0,0,0-1.61,2.56c.51,1.49,5,3.52,5,3.52,1.11-.52,2-3.33,2-3.33-.56-1.33-4.67-2.75-4.67-2.75Z"/><path class="cls-1" d="M40.51,60.6s-4.29.81-5.95,4.08-1.09,4.72-.75,6.92.55,2.69-.36,4.29,1.61,1.52,1.61,1.52.25,2.41.36,2.6c0,0,2.35-.82,2.93-1.09A6.88,6.88,0,0,1,36,81a2.4,2.4,0,0,0,.36.91,2.85,2.85,0,0,1,.35,1s.24,1.38,3,.71,4-.64,7.53-4.47c0,0,5-3.46,4.88-9s-2.77-8.1-6.67-9.36S40.51,60.6,40.51,60.6Z"/><g class="cls-8"><path d="M33.26,65.28a16.43,16.43,0,0,1,6-1.8c3.41-.27,4.78.23,5.26,1.12s.69,1.81.71,4.23,0,2.18.27,2.46c0,0,.57-1.35,1.67-1.38s2.14-.11,2.47,1.32A4.57,4.57,0,0,1,47.55,76s.89,3.13,2.85,1.87l.32,1.44,4.43-1.87,2.48-2.53,1.19-12.39-4.18-3.59-8.5-1.29-8.48,1-3.45,1.22-1.1,1.86-1.35,2.95"/></g><path class="cls-9" d="M47.59,70.57a2.14,2.14,0,0,0-1,2.13c.12,1.58,1.16,1.65,1.16,1.65a2.66,2.66,0,0,1-.58-1.61,1.61,1.61,0,0,0,1.89-.31,3.8,3.8,0,0,1-1.76-.22A2.6,2.6,0,0,1,47.59,70.57Z"/><path class="cls-10" d="M35,79.35s.14-.35,1.21-.42a16.42,16.42,0,0,0,2.34-.08,7.46,7.46,0,0,1-2.69,1.4C34.6,80.47,35,79.35,35,79.35Z"/><path class="cls-10" d="M38.55,78.85a2.93,2.93,0,0,1-1.95,2.37,1.06,1.06,0,0,1-1.18-.06c-.55-.45.31-.73.81-1A16.26,16.26,0,0,0,38.55,78.85Z"/><path d="M45.48,71.29a26.47,26.47,0,0,0-1-3.38S43,66.44,43.55,65c0,0,.56-1.14-.28-1.32,0,0,.95-1.27,1.41-1.12s2.49.69,2.49.69l1.34,1.36.57,1.29Z"/><path class="cls-2" d="M35.27,72.36a2,2,0,0,1,1.87-1.67c1.62,0,2.29.71,2.42,1.29a1.57,1.57,0,0,1-1.33,2.09C36.7,74.38,35.36,74.15,35.27,72.36Z"/><g class="cls-11"><circle class="cls-9" cx="36.31" cy="73.36" r="1.32"/><circle cx="36.31" cy="73.36" r="0.88"/><circle class="cls-2" cx="35.63" cy="73.01" r="0.46"/></g><path d="M39.51,68.85a3,3,0,0,0-2.76-.54,3.08,3.08,0,0,0-2.15,1.34s-.3.48.31.3a6.87,6.87,0,0,1,4.46-.73S39.82,69.24,39.51,68.85Z"/><polygon class="cls-1" points="43.21 65.26 47.6 64.13 43.36 66.25 43.21 65.26"/><path d="M51.89,65s1.77,1.26,2,2.45-1.49,4.92-2,5.27-2.37-4.61-2.37-4.61l-2.33-5.31-7.53-1.9a42,42,0,0,1,5.57-2.13c1.09-.12,3.22,2.84,3.22,2.84a36.31,36.31,0,0,1,3.89,0C53.68,61.75,51.89,65,51.89,65Z"/></svg>