<svg id="Layer_1" data-name="Layer 1" xmlns="http://www.w3.org/2000/svg" xmlns:xlink="http://www.w3.org/1999/xlink" viewBox="0 0 260 168"><defs><style>.cls-1{fill:#cfeaa8;}.cls-2{fill:#7c4b2a;}.cls-3{fill:#845633;}.cls-4{fill:#fff;}.cls-5{fill:#231f20;opacity:0.26;}.cls-6{fill:#1a5686;}.cls-7{fill:#124d75;}.cls-8{clip-path:url(#clip-path);}.cls-9{clip-path:url(#clip-path-2);}.cls-10{fill:#6b3e1f;}.cls-11{fill:#9e6239;}.cls-12{clip-path:url(#clip-path-3);}.cls-13{fill:#620100;}.cls-14{clip-path:url(#clip-path-4);}.cls-15{fill:#4f2821;}.cls-16{clip-path:url(#clip-path-5);}.cls-17{fill:#64340f;}</style><clipPath id="clip-path"><path class="cls-1" d="M206.74,114.63a42.42,42.42,0,0,1,0-6.07l-1-.34a.33.33,0,0,0-.1,0l-1.64-.43-2.3,2.28-1.5-2.68-1.11.26a4.71,4.71,0,0,0-1.53.37l-.77.46a16.24,16.24,0,0,0-.74,6.2c.23,2.85.26,8.87.26,8.87s-.33.35,5.42.69,6-.39,6-.39Z"/></clipPath><clipPath id="clip-path-2"><path class="cls-2" d="M200.83,132.26c-.91.63-2.27-.58-2.81-3.21-.24-1.17,2.35-1.92,6-3.56a20.55,20.55,0,0,1,5.24-1.81c1.73-.21,2.75,2.65.73,4s-8.13,2.72-8.13,2.72a9.56,9.56,0,0,1-.63,1.18A1.56,1.56,0,0,1,200.83,132.26Z"/></clipPath><clipPath id="clip-path-3"><path class="cls-3" d="M202.48,83.5a9.57,9.57,0,0,0-6.86,8.83s-3-.93-3.17,2.86a2.71,2.71,0,0,0,3,2.81s.34,5.13,2.93,7.4,4.61,2.12,6.46,1.54,5.31-4.8,5.78-6.64c0,0,2.3,1.92,4-1.39,0,0,1.46-3-2.05-3.24,0,0,2-7.55-2.77-10.54C205.32,82.3,202.48,83.5,202.48,83.5Z"/></clipPath><clipPath id="clip-path-4"><path class="cls-4" d="M197.65,94.76a2,2,0,0,1,2.21-1.17c1.57.38,2,1.24,2,1.84a1.57,1.57,0,0,1-1.79,1.7C198.55,97.07,197.31,96.52,197.65,94.76Z"/></clipPath><clipPath id="clip-path-5"><path class="cls-4" d="M209.7,96.37a2,2,0,0,0-1.83-1.7c-1.61-.06-2.3.65-2.45,1.23A1.58,1.58,0,0,0,206.71,98C208.23,98.36,209.56,98.16,209.7,96.37Z"/></clipPath></defs><ellipse class="cls-5" cx="202.19" cy="128.78" rx="14.16" ry="3.19"/><rect class="cls-6" x="196.38" y="123" width="11.15" height="3.59"/><path class="cls-6" d="M196.32,123.7s-4.73-1.93-4.79,1.63,6.49,4.84,8.1,5.14a30.36,30.36,0,0,0,4.54.25s7-1,7.37-4.22-1.48-4.36-3.81-2.82S199.59,125.06,196.32,123.7Z"/><path class="cls-7" d="M201.34,126.34a3.63,3.63,0,0,0,2.73.67,4.17,4.17,0,0,0,1.12-.55,4,4,0,0,0,1.56-1.53c-.12.24-2.35.16-2.67.17-.92,0-1.84,0-2.76-.08q-.66,0-1.32-.12c-.2,0-1-.27-.78.11.14.22.8.45,1,.61S201,126.11,201.34,126.34Z"/><path class="cls-3" d="M197.3,108.41a64.43,64.43,0,0,0-4.83,8.68l-1.35,3.19s-2.77,2.32-2.52,3c0,0,0,.56,1.8-.68,0,0,.25,0,.11.3s-1.24,2.67-.66,3c0,0,.51.35,1.45-2,0,0,.11-.18.15.07,0,0,.08,3.34.78,3.55,0,0,.75-.39.88-3.36,0,0,.84,2.57,1.42,2.42s-.25-3.46-.25-3.46,0-.07.17,0,.86,1,1.26.58c0,0,.62-.28-1-3,0,0,1.16-7.19,3.26-10,0,0,.7-1.24.39-1.92C198.37,108.9,198,108,197.3,108.41Z"/><path class="cls-6" d="M196.89,108.31s-2.55,4-2.94,5c0,0,2.1,1.7,3.21,1.56,0,0,1.67-2.28,1.33-3.68,0,0,.37-3.71-1.6-2.84"/><path class="cls-3" d="M205.71,108.84a63.82,63.82,0,0,1,5.33,8.38l1.53,3.11s2.9,2.15,2.69,2.86c0,0,0,.56-1.83-.58,0,0-.25,0-.1.31s1.4,2.6.83,3c0,0-.48.38-1.55-1.88,0,0-.12-.17-.15.09,0,0,.11,3.33-.58,3.58,0,0-.76-.34-1.07-3.3,0,0-.69,2.61-1.27,2.49s0-3.46,0-3.46,0-.06-.16.06-.8,1-1.23.65c0,0-.64-.24.82-3,0,0-1.57-7.11-3.84-9.81,0,0-.76-1.2-.49-1.9C204.68,109.39,205,108.47,205.71,108.84Z"/><path class="cls-6" d="M206.12,108.72s2.77,3.82,3.22,4.78c0,0-2,1.82-3.11,1.74,0,0-1.81-2.18-1.55-3.59,0,0-.58-3.69,1.44-2.93"/><path class="cls-3" d="M200.25,106.37a2,2,0,0,1,0,1c-.17.36-2.42.48-3,1.27s-.47,5.21-.47,5.21l.35,9.7s9.14.26,9.14.07.48-10.38.33-11.59.42-2.93-1.31-3.71-2-.72-2-.72a2.22,2.22,0,0,1,0-1.14,10.36,10.36,0,0,0-1.35-.51Z"/><path class="cls-1" d="M206.74,114.63a42.42,42.42,0,0,1,0-6.07l-1-.34a.33.33,0,0,0-.1,0l-1.64-.43-2.3,2.28-1.5-2.68-1.11.26a4.71,4.71,0,0,0-1.53.37l-.77.46a16.24,16.24,0,0,0-.74,6.2c.23,2.85.26,8.87.26,8.87s-.33.35,5.42.69,6-.39,6-.39Z"/><g class="cls-8"><polyline class="cls-6" points="198.77 106.72 200.36 111.17 201.73 110.04 202.96 111.4 205.81 107.52 199.4 105.87 198.55 106.95"/></g><path class="cls-2" d="M200.83,132.26c-.91.63-2.27-.58-2.81-3.21-.24-1.17,2.35-1.92,6-3.56a20.55,20.55,0,0,1,5.24-1.81c1.73-.21,2.75,2.65.73,4s-8.13,2.72-8.13,2.72a9.56,9.56,0,0,1-.63,1.18A1.56,1.56,0,0,1,200.83,132.26Z"/><g class="cls-9"><path class="cls-10" d="M197.73,128.84a1.74,1.74,0,0,0,.75.88,5.28,5.28,0,0,0,1.09.47l1.15.4a.7.7,0,0,1,.27.14.61.61,0,0,1,.13.22,3.77,3.77,0,0,0,.37.72,1.27,1.27,0,0,0,.63.49,1.54,1.54,0,0,0,1.19-.24,1.2,1.2,0,0,0,.35-.28,1,1,0,0,0,.23-.57,2.85,2.85,0,0,0-.51-1.7,4.53,4.53,0,0,0-1-1.26,3.59,3.59,0,0,0-.79-.49,9.89,9.89,0,0,0-3.85-.74,2.45,2.45,0,0,0-.94.1.83.83,0,0,0-.55.71.78.78,0,0,0,.28.56,1.71,1.71,0,0,0,.56.31"/></g><ellipse class="cls-2" cx="198.32" cy="129.26" rx="0.66" ry="0.89" transform="translate(-20.39 38.67) rotate(-10.6)"/><ellipse class="cls-2" cx="198.6" cy="130.45" rx="0.42" ry="0.57" transform="translate(-20.6 38.74) rotate(-10.6)"/><ellipse class="cls-2" cx="199.08" cy="131.16" rx="0.42" ry="0.57" transform="translate(-34.14 81.71) rotate(-21.41)"/><ellipse class="cls-2" cx="199.76" cy="131.83" rx="0.42" ry="0.57" transform="translate(-39.55 135.66) rotate(-34.34)"/><ellipse class="cls-2" cx="200.28" cy="131.96" rx="0.42" ry="0.57" transform="translate(-39.53 135.98) rotate(-34.34)"/><ellipse class="cls-11" cx="198.35" cy="129.39" rx="0.14" ry="0.42" transform="translate(-37.85 112.25) rotate(-28.97)"/><ellipse class="cls-11" cx="198.72" cy="130.44" rx="0.1" ry="0.29" transform="translate(-38.31 112.56) rotate(-28.97)"/><ellipse class="cls-11" cx="199.25" cy="131.24" rx="0.1" ry="0.29" transform="translate(-38.63 112.92) rotate(-28.97)"/><ellipse class="cls-11" cx="199.84" cy="131.77" rx="0.1" ry="0.29" transform="matrix(0.87, -0.48, 0.48, 0.87, -38.82, 113.27)"/><ellipse class="cls-11" cx="200.52" cy="132.07" rx="0.08" ry="0.25" transform="translate(-38.88 113.64) rotate(-28.97)"/><path class="cls-3" d="M202.26,132.26c.92.63,2.28-.58,2.82-3.21.24-1.17-2.35-1.92-6-3.56a20.55,20.55,0,0,0-5.24-1.81c-1.73-.21-2.76,2.65-.73,4s8.13,2.72,8.13,2.72a9.56,9.56,0,0,0,.63,1.18A1.62,1.62,0,0,0,202.26,132.26Z"/><ellipse class="cls-3" cx="204.77" cy="129.26" rx="0.89" ry="0.66" transform="translate(40.06 306.77) rotate(-79.4)"/><ellipse class="cls-3" cx="204.5" cy="130.45" rx="0.57" ry="0.42" transform="translate(38.68 307.47) rotate(-79.4)"/><ellipse class="cls-3" cx="204.02" cy="131.16" rx="0.57" ry="0.42" transform="translate(7.44 273.23) rotate(-68.59)"/><ellipse class="cls-3" cx="203.34" cy="131.83" rx="0.57" ry="0.42" transform="translate(-20.22 225.36) rotate(-55.66)"/><ellipse class="cls-3" cx="202.82" cy="131.96" rx="0.57" ry="0.42" transform="translate(-20.55 224.99) rotate(-55.66)"/><ellipse class="cls-11" cx="204.75" cy="129.39" rx="0.42" ry="0.14" transform="translate(-7.62 245.86) rotate(-61.03)"/><ellipse class="cls-11" cx="204.38" cy="130.44" rx="0.29" ry="0.1" transform="translate(-8.72 246.08) rotate(-61.03)"/><ellipse class="cls-11" cx="203.85" cy="131.24" rx="0.29" ry="0.1" transform="translate(-9.7 246.03) rotate(-61.03)"/><ellipse class="cls-11" cx="203.26" cy="131.77" rx="0.29" ry="0.1" transform="translate(-10.47 245.78) rotate(-61.03)"/><ellipse class="cls-11" cx="202.58" cy="132.07" rx="0.25" ry="0.08" transform="translate(-11.08 245.34) rotate(-61.03)"/><path class="cls-3" d="M202.48,83.5a9.57,9.57,0,0,0-6.86,8.83s-3-.93-3.17,2.86a2.71,2.71,0,0,0,3,2.81s.34,5.13,2.93,7.4,4.61,2.12,6.46,1.54,5.31-4.8,5.78-6.64c0,0,2.3,1.92,4-1.39,0,0,1.46-3-2.05-3.24,0,0,2-7.55-2.77-10.54C205.32,82.3,202.48,83.5,202.48,83.5Z"/><g class="cls-12"><path d="M195.54,92.14l0,.11s1.49-3.35,3.25-4.75a2.2,2.2,0,0,1,2.08-.54c1.08.41,2.84,1.4,9.17,1.58,0,0,1.26-.27,1.84,1.67a29.28,29.28,0,0,1,.79,5.09s1.23-.84,1.36-1.35,1.63-4.83,1.63-4.83l-.76-3.76-2.67-2.09s.55-.45-3.73-1,1.33-1.11-3.62-.55-3.24.18-3.24.18L194,86.68"/></g><path class="cls-13" d="M199.65,102.57c-.07,0-.64,0-.64,0l1,.8,2.15,1.4,2.77-.28.6-.71.45-.2-2.27-.92-3.28-.26Z"/><path class="cls-4" d="M197.65,94.76a2,2,0,0,1,2.21-1.17c1.57.38,2,1.24,2,1.84a1.57,1.57,0,0,1-1.79,1.7C198.55,97.07,197.31,96.52,197.65,94.76Z"/><g class="cls-14"><circle class="cls-15" cx="198.53" cy="95.69" r="1.32"/><circle cx="198.53" cy="95.69" r="0.88"/><circle class="cls-4" cx="197.95" cy="95.19" r="0.46"/></g><path class="cls-15" d="M201.11,99.5s.27.73,1.76.93,2-.43,2-.43a3.08,3.08,0,0,0-1.46-2.31C202.06,97,201.11,99.5,201.11,99.5Z"/><path class="cls-4" d="M209.7,96.37a2,2,0,0,0-1.83-1.7c-1.61-.06-2.3.65-2.45,1.23A1.58,1.58,0,0,0,206.71,98C208.23,98.36,209.56,98.16,209.7,96.37Z"/><g class="cls-16"><circle class="cls-15" cx="206.31" cy="96.65" r="1.32"/><circle cx="206.31" cy="96.65" r="0.88"/><circle class="cls-4" cx="205.73" cy="96.15" r="0.46"/></g><path d="M198.17,91.79a3,3,0,0,1,2.77-.48,3.12,3.12,0,0,1,2.12,1.39s.28.49-.32.29a6.86,6.86,0,0,0-4.43-.83S197.86,92.17,198.17,91.79Z"/><path class="cls-4" d="M200.55,102.69a4.35,4.35,0,0,0,4.14.74l-2-.76Z"/><path d="M206.11,92.59a3.79,3.79,0,0,1,5,.9c.1.21,0,.43-.44.26a7.69,7.69,0,0,0-4.25-.78S205.79,93,206.11,92.59Z"/><path class="cls-17" d="M198.92,102.48a7.84,7.84,0,0,1,3-.45,6.16,6.16,0,0,1,3.14,1,4.43,4.43,0,0,0,.89.56S200.82,103.21,198.92,102.48Z"/><path class="cls-17" d="M198.92,102.48a2.21,2.21,0,0,1,.67,1,2.29,2.29,0,0,0,1.85,1.89,3.39,3.39,0,0,0,3.18-.5c.86-.66.67-1.14,1.31-1.33a15.93,15.93,0,0,1-1.9.43,5.81,5.81,0,0,1-3.79-.73Z"/><path class="cls-15" d="M195.06,93.32a2.36,2.36,0,0,1,.79,2,2,2,0,0,1-1.07,1.55s.65-.84.58-1.37a1.66,1.66,0,0,1-1.63-.45s1.43.21,1.58-.15A2.41,2.41,0,0,0,195.06,93.32Z"/><path class="cls-15" d="M212.77,96.43a2.25,2.25,0,0,0-1.5,1.36,1.73,1.73,0,0,0,.27,1.82,4.38,4.38,0,0,1,.14-1.42,1.76,1.76,0,0,0,1.65.35s-1.21-.28-1.37-.86A2.55,2.55,0,0,1,212.77,96.43Z"/><path d="M195.7,91.83a15.57,15.57,0,0,1-2.17-3.91s.81-1,3.72-.9c0,0-.54-3.78.15-4.79,0,0,1.54-.21,3.49,1.69,0,0,.91-3.59,2.78-3.77a5,5,0,0,1,2.54,3.38l-1.43,2s-6.14.56-6,.7-2.11,2.19-2,2.37A25.7,25.7,0,0,1,195.7,91.83Z"/><path d="M212.67,95.24a16.36,16.36,0,0,0,3.92-3.41s0-1.27-3.07-1.92c0,0,1.88-3.53,1.43-4.7,0,0-1-.51-3.58.8,0,0,0-3.71-1.84-4.4A5.33,5.33,0,0,0,206,84.18l.95,2.28s3.78,2.1,4.9,2.21a8.37,8.37,0,0,1,.61,3A27.19,27.19,0,0,0,212.67,95.24Z"/><path class="cls-3" d="M199.06,87.76a11,11,0,0,1-1.52-.57l.79,1.19.93-.19"/><polyline class="cls-3" points="211 90.08 213 89.99 211.67 90.9"/></svg>