<svg id="Layer_8" data-name="Layer 8" xmlns="http://www.w3.org/2000/svg" xmlns:xlink="http://www.w3.org/1999/xlink" viewBox="0 0 260 168"><defs><style>.cls-1{fill:#845633;}.cls-2{fill:#fff;}.cls-3{fill:#cfeaa8;}.cls-4{fill:#7c4b2a;}.cls-5{fill:#ff7427;}.cls-6{clip-path:url(#clip-path);}.cls-7{fill:#620100;}.cls-8{clip-path:url(#clip-path-2);}.cls-9{fill:#4f2821;}.cls-10{clip-path:url(#clip-path-3);}.cls-11{fill:#64340f;}.cls-12{fill:#1a5686;}.cls-13{fill:#124d75;}.cls-14{clip-path:url(#clip-path-4);}.cls-15{clip-path:url(#clip-path-5);}.cls-16{fill:#6b3e1f;}.cls-17{fill:#9e6239;}.cls-18{clip-path:url(#clip-path-6);}.cls-19{fill:#ffc639;}.cls-20{fill:#b5805d;}</style><clipPath id="clip-path"><path class="cls-1" d="M183.45,76.62a15.25,15.25,0,0,0-8.89,15.45s-5-.8-4.37,5.2c0,0,.58,4.76,5.41,3.78,0,0,1.67,8,6.27,11s7.74,2.33,10.53,1,7.32-8.74,7.66-11.76c0,0,4.06,2.53,6-3.07,0,0,1.64-5-4-4.66,0,0,1.51-12.35-6.69-16C187.66,74.1,183.45,76.62,183.45,76.62Z"/></clipPath><clipPath id="clip-path-2"><path class="cls-2" d="M178.31,95.45a3.1,3.1,0,0,1,3.23-2.33c2.56.25,3.5,1.51,3.62,2.45a2.51,2.51,0,0,1-2.46,3.07C180.22,98.89,178.15,98.31,178.31,95.45Z"/></clipPath><clipPath id="clip-path-3"><path class="cls-2" d="M197.66,95.34a3.1,3.1,0,0,0-3.25-2.29c-2.56.27-3.49,1.55-3.59,2.49a2.5,2.5,0,0,0,2.49,3C195.79,98.8,197.85,98.19,197.66,95.34Z"/></clipPath><clipPath id="clip-path-4"><path class="cls-3" d="M195.38,125.91c-.09-1.85-.38-8.24,0-9.66l-1.53-.54a.43.43,0,0,0-.15-.06l-2.62-.68-3.66,3.63-2.4-4.26-1.77.42a7.06,7.06,0,0,0-2.43.58l-1.23.72a25.73,25.73,0,0,0-1.18,9.89c.36,4.54.42,14.14.42,14.14s-.52.54,8.63,1.1,9.54-.63,9.54-.63Z"/></clipPath><clipPath id="clip-path-5"><path class="cls-4" d="M186,154c-1.46,1-3.63-.93-4.49-5.12-.38-1.86,3.75-3.06,9.56-5.67,0,0,4.91-2.46,8.35-2.88,2.76-.33,4.39,4.22,1.17,6.46s-13,4.32-13,4.32a13.18,13.18,0,0,1-1,1.88A2.36,2.36,0,0,1,186,154Z"/></clipPath><clipPath id="clip-path-6"><path class="cls-5" d="M186.14,109.85c-1.11,0-2.7,0-4.46,0-6.75-.07-5.9,1.12-5.84,1.71s.56,1.66,6.07.41c1.72-.39,3.29-.69,4.36-1a2.85,2.85,0,0,0,2.89,1.24c1.56-.17,2.72-1.26,2.59-2.43C191.75,109.82,191.17,109.48,186.14,109.85Z"/></clipPath></defs><path class="cls-1" d="M183.45,76.62a15.25,15.25,0,0,0-8.89,15.45s-5-.8-4.37,5.2c0,0,.58,4.76,5.41,3.78,0,0,1.67,8,6.27,11s7.74,2.33,10.53,1,7.32-8.74,7.66-11.76c0,0,4.06,2.53,6-3.07,0,0,1.64-5-4-4.66,0,0,1.51-12.35-6.69-16C187.66,74.1,183.45,76.62,183.45,76.62Z"/><g class="cls-6"><path d="M174.39,91.78l.07.17s1.6-5.61,4.07-8.21a3.5,3.5,0,0,1,3.16-1.31c1.81.41,4.79,1.58,14.82.47,0,0,1.92-.71,3.27,2.22A46.38,46.38,0,0,1,202.15,93s1.76-1.59,1.86-2.43,1.49-8,1.49-8l-2-5.76-4.67-2.7s.76-.85-6.09-.7,1.84-2-5.85-.08-5.07,1-5.07,1L170.73,83.5"/></g><path class="cls-7" d="M183.19,107.33c-.12,0-1,.08-1,.08l1.68,1,3.7,1.75,4.31-1.06.78-1.24.68-.44-3.79-1-5.23.32Z"/><path class="cls-2" d="M178.31,95.45a3.1,3.1,0,0,1,3.23-2.33c2.56.25,3.5,1.51,3.62,2.45a2.51,2.51,0,0,1-2.46,3.07C180.22,98.89,178.15,98.31,178.31,95.45Z"/><g class="cls-8"><circle class="cls-9" cx="181.4" cy="98.13" r="2.1" transform="translate(-24.01 116.66) rotate(-33.57)"/><circle cx="181.4" cy="98.13" r="1.4"/><circle class="cls-2" cx="180.37" cy="97.46" r="0.73"/></g><path class="cls-9" d="M184.81,102.16s.59,1.1,3,1.08,3.07-1.11,3-1.11a4.94,4.94,0,0,0-2.8-3.32C185.76,98,184.81,102.16,184.81,102.16Z"/><path class="cls-2" d="M197.66,95.34a3.1,3.1,0,0,0-3.25-2.29c-2.56.27-3.49,1.55-3.59,2.49a2.5,2.5,0,0,0,2.49,3C195.79,98.8,197.85,98.19,197.66,95.34Z"/><g class="cls-10"><circle class="cls-9" cx="193.89" cy="97.93" r="2.1" transform="translate(-21.81 123.53) rotate(-33.57)"/><circle cx="193.89" cy="97.93" r="1.4"/><circle class="cls-2" cx="192.87" cy="97.27" r="0.73"/></g><path d="M178.48,90.65a4.76,4.76,0,0,1,4.26-1.36c2.82.37,3.64,1.71,3.64,1.71s.56.71-.44.53a11,11,0,0,0-7.17-.33S178.06,91.31,178.48,90.65Z"/><path class="cls-2" d="M184.63,107.33a7,7,0,0,0,6.69.26l-3.35-.77Z"/><path d="M191.17,90.16a5.16,5.16,0,0,1,4.16-1.36c2.69.25,3.67,1.37,3.88,1.69s.08.68-.63.5a12.46,12.46,0,0,0-6.88-.3S190.75,90.8,191.17,90.16Z"/><path class="cls-11" d="M182,107.35a12.63,12.63,0,0,1,4.62-1.36,9.74,9.74,0,0,1,5.15.8,6.12,6.12,0,0,0,1.54.68S185.16,108.1,182,107.35Z"/><path class="cls-11" d="M182,107.35a3.59,3.59,0,0,1,1.28,1.43,3.67,3.67,0,0,0,3.34,2.58c2.34.23,3.69-.26,4.9-1.49s.81-1.94,1.79-2.4a25.5,25.5,0,0,1-2.91,1.11,9.31,9.31,0,0,1-6.14-.31Z"/><path class="cls-9" d="M173.9,93.75a3.8,3.8,0,0,1,1.68,2.91,3.2,3.2,0,0,1-1.36,2.68,4.34,4.34,0,0,0,.63-2.3s-1.68.69-2.68-.34c0,0,2.3,0,2.46-.58A3.91,3.91,0,0,0,173.9,93.75Z"/><path class="cls-9" d="M202.53,94.75a3.59,3.59,0,0,0-2.07,2.47,2.75,2.75,0,0,0,.82,2.82,6.91,6.91,0,0,1-.08-2.28,2.81,2.81,0,0,0,2.68.2s-2-.18-2.35-1A4.09,4.09,0,0,1,202.53,94.75Z"/><path d="M174.57,91.26a25,25,0,0,1-4.28-5.7s1.05-1.83,5.67-2.24c0,0-1.69-5.84-.81-7.59,0,0,2.38-.68,5.88,1.91,0,0,.64-5.88,3.55-6.58a8.1,8.1,0,0,1,4.76,4.78l-1.84,3.41s-9.56,2.24-9.37,2.44-2.84,3.91-2.64,4.18S174.57,91.26,174.57,91.26Z"/><path d="M202.1,92.91a26,26,0,0,0,5.44-6.26s-.33-2-5.27-2.35c0,0,2.19-6,1.23-7.73,0,0-1.77-.58-5.48,2.05,0,0-.75-5.87-3.86-6.53a8.43,8.43,0,0,0-5,4.82l2,3.39s6.43,2.49,8.23,2.42c.3,0,1.83,4.28,1.62,4.55S202.1,92.91,202.1,92.91Z"/><path class="cls-1" d="M179,84.1a18.88,18.88,0,0,1-2.52-.57l1.49,1.7,1.44-.5"/><polyline class="cls-1" points="198.34 85.12 201.47 84.54 199.57 86.27"/><path class="cls-1" d="M172.7,125.17s1.49.47,3.24-1.74-3.08-2.23-3.08-2.23Z"/><path class="cls-1" d="M194.53,116.7A103.34,103.34,0,0,1,203,130.05l2.44,4.95s4.62,3.43,4.29,4.56c0,0,0,.89-2.92-.92,0,0-.4,0-.16.49s2.23,4.14,1.33,4.75c0,0-.77.61-2.48-3,0,0-.19-.28-.23.13,0,0,.18,5.31-.93,5.71,0,0-1.21-.54-1.7-5.26,0,0-1.09,4.17-2,4s.07-5.53.07-5.53-.06-.1-.26.1c0,0-1.27,1.64-2,1,0,0-1-.38,1.29-4.82,0,0-2.5-11.33-6.11-15.63,0,0-1.22-1.92-.78-3C192.88,117.57,193.33,116.1,194.53,116.7Z"/><path class="cls-12" d="M195.17,116.5s4.42,6.1,5.14,7.62c0,0-3.19,2.89-5,2.76,0,0-2.88-3.46-2.47-5.71,0,0-.93-5.88,2.29-4.67"/><rect class="cls-12" x="178.87" y="139.26" width="17.77" height="5.72"/><path class="cls-12" d="M178.78,140.38s-7.54-3.09-7.64,2.59,10.35,7.72,12.91,8.19a47.64,47.64,0,0,0,7.23.39S202.46,150,203,144.84s-2.36-7-6.07-4.5S184,142.54,178.78,140.38Z"/><path class="cls-13" d="M186.78,144.58a5.79,5.79,0,0,0,4.35,1.06,8.51,8.51,0,0,0,4.26-3.31c-.19.39-3.74.26-4.24.27-1.47,0-2.94,0-4.4-.12-.71,0-1.42-.12-2.12-.2-.31,0-1.62-.42-1.24.18.23.36,1.27.71,1.66,1C185.63,143.81,186.19,144.22,186.78,144.58Z"/><path class="cls-1" d="M181.05,116.05a103.44,103.44,0,0,0-11.12,6,4.37,4.37,0,0,0,1.46,2.36,4.81,4.81,0,0,0,.73.52l.07,0,.11,0,.37.1h0c2.33-2.18,5-4.36,7.28-5.28,0,0,2-1.11,2.12-2.3C182.1,117.59,182.39,116.08,181.05,116.05Z"/><path class="cls-12" d="M180.58,115.57s-6.77,3.31-8.12,4.31c0,0,1.46,4.06,3.08,4.77,0,0,4.17-1.71,4.87-3.88,0,0,3.58-4.76.17-5.2"/><path class="cls-1" d="M185,112.76a3.07,3.07,0,0,1,0,1.58c-.27.57-3.85.77-4.82,2s-.76,8.28-.76,8.28l.56,15.47s14.56.41,14.57.12.76-16.54.52-18.48.67-4.67-2.08-5.91-3.16-1.14-3.16-1.14a3.59,3.59,0,0,1,0-1.82,15.9,15.9,0,0,0-2.15-.82Z"/><path class="cls-3" d="M195.38,125.91c-.09-1.85-.38-8.24,0-9.66l-1.53-.54a.43.43,0,0,0-.15-.06l-2.62-.68-3.66,3.63-2.4-4.26-1.77.42a7.06,7.06,0,0,0-2.43.58l-1.23.72a25.73,25.73,0,0,0-1.18,9.89c.36,4.54.42,14.14.42,14.14s-.52.54,8.63,1.1,9.54-.63,9.54-.63Z"/><g class="cls-14"><polyline class="cls-12" points="182.68 113.32 185.21 120.41 187.4 118.6 189.36 120.78 193.9 114.58 183.69 111.95 182.32 113.68"/></g><path class="cls-4" d="M186,154c-1.46,1-3.63-.93-4.49-5.12-.38-1.86,3.75-3.06,9.56-5.67,0,0,4.91-2.46,8.35-2.88,2.76-.33,4.39,4.22,1.17,6.46s-13,4.32-13,4.32a13.18,13.18,0,0,1-1,1.88A2.36,2.36,0,0,1,186,154Z"/><g class="cls-15"><path class="cls-16" d="M181,148.56a2.8,2.8,0,0,0,1.21,1.4,7.61,7.61,0,0,0,1.73.75l1.83.63a1.12,1.12,0,0,1,.43.23,1,1,0,0,1,.21.36,6.16,6.16,0,0,0,.59,1.14,2,2,0,0,0,1,.78,2.41,2.41,0,0,0,1.9-.39,2,2,0,0,0,.57-.44,1.74,1.74,0,0,0,.36-.91,4.52,4.52,0,0,0-.82-2.7,7.44,7.44,0,0,0-1.59-2,6.25,6.25,0,0,0-1.26-.77,15.47,15.47,0,0,0-6.14-1.18,3.93,3.93,0,0,0-1.49.16,1.31,1.31,0,0,0-.88,1.13,1.26,1.26,0,0,0,.44.89,2.84,2.84,0,0,0,.9.5"/></g><ellipse class="cls-4" cx="181.97" cy="149.23" rx="1.06" ry="1.41" transform="translate(-24.34 36) rotate(-10.6)"/><ellipse class="cls-4" cx="182.4" cy="151.12" rx="0.67" ry="0.9" transform="matrix(0.98, -0.18, 0.18, 0.98, -24.68, 36.12)"/><ellipse class="cls-4" cx="183.18" cy="152.26" rx="0.67" ry="0.9" transform="translate(-42.94 77.36) rotate(-21.41)"/><ellipse class="cls-4" cx="184.25" cy="153.32" rx="0.67" ry="0.9" transform="translate(-54.38 130.66) rotate(-34.34)"/><ellipse class="cls-4" cx="185.08" cy="153.53" rx="0.67" ry="0.9" transform="translate(-54.35 131.16) rotate(-34.34)"/><ellipse class="cls-17" cx="182.01" cy="149.44" rx="0.22" ry="0.67" transform="translate(-49.6 106.84) rotate(-28.97)"/><ellipse class="cls-17" cx="182.6" cy="151.11" rx="0.15" ry="0.47" transform="translate(-50.34 107.34) rotate(-28.97)"/><ellipse class="cls-17" cx="183.44" cy="152.38" rx="0.15" ry="0.47" transform="translate(-50.85 107.9) rotate(-28.97)"/><ellipse class="cls-17" cx="184.38" cy="153.23" rx="0.15" ry="0.47" transform="translate(-51.15 108.47) rotate(-28.97)"/><ellipse class="cls-17" cx="185.47" cy="153.7" rx="0.13" ry="0.4" transform="translate(-51.24 109.05) rotate(-28.97)"/><path class="cls-1" d="M188.25,154c1.45,1,3.62-.93,4.48-5.12.38-1.86-3.75-3.06-9.56-5.67,0,0-4.9-2.46-8.34-2.88-2.77-.33-4.4,4.22-1.18,6.46s13,4.32,13,4.32a13.18,13.18,0,0,0,1,1.88A2.31,2.31,0,0,0,188.25,154Z"/><ellipse class="cls-1" cx="192.24" cy="149.23" rx="1.41" ry="1.06" transform="translate(10.21 310.76) rotate(-79.4)"/><ellipse class="cls-1" cx="191.81" cy="151.12" rx="0.9" ry="0.67" transform="translate(8 311.87) rotate(-79.4)"/><ellipse class="cls-1" cx="191.04" cy="152.26" rx="0.9" ry="0.67" transform="translate(-20.44 274.55) rotate(-68.59)"/><ellipse class="cls-1" cx="189.96" cy="153.32" rx="0.9" ry="0.67" transform="translate(-43.8 223.68) rotate(-55.66)"/><ellipse class="cls-1" cx="189.13" cy="153.53" rx="0.9" ry="0.67" transform="translate(-44.32 223.09) rotate(-55.66)"/><ellipse class="cls-17" cx="192.2" cy="149.44" rx="0.67" ry="0.22" transform="translate(-31.63 245.22) rotate(-61.03)"/><ellipse class="cls-17" cx="191.62" cy="151.11" rx="0.47" ry="0.15" transform="translate(-33.39 245.57) rotate(-61.03)"/><ellipse class="cls-17" cx="190.77" cy="152.38" rx="0.47" ry="0.15" transform="translate(-34.94 245.49) rotate(-61.03)"/><ellipse class="cls-17" cx="189.83" cy="153.23" rx="0.47" ry="0.15" transform="translate(-36.17 245.1) rotate(-61.03)"/><ellipse class="cls-17" cx="188.74" cy="153.7" rx="0.4" ry="0.13" transform="translate(-37.14 244.39) rotate(-61.03)"/><path class="cls-5" d="M186.14,109.85c-1.11,0-2.7,0-4.46,0-6.75-.07-5.9,1.12-5.84,1.71s.56,1.66,6.07.41c1.72-.39,3.29-.69,4.36-1a2.85,2.85,0,0,0,2.89,1.24c1.56-.17,2.72-1.26,2.59-2.43C191.75,109.82,191.17,109.48,186.14,109.85Z"/><g class="cls-18"><path class="cls-19" d="M175,110.35a2.71,2.71,0,0,0,2.89,1.84c2.29-.19,8.43-1.48,8.43-1.48a3,3,0,0,0,3.25,1.23c2.35-.44,2.58-3,2.58-3l.4,3.72-17.4,1.89Z"/></g><path class="cls-1" d="M172.76,110.42c-.24.42-.65.73-.81,1.19a2.92,2.92,0,0,0,0,1.63,4.76,4.76,0,0,0,.93,1.9,2.71,2.71,0,0,0,1.84,1,3.63,3.63,0,0,0,1.18-.17,6.34,6.34,0,0,0,3.94-3.06.83.83,0,0,0,0-.88c-.22-.26-.62-.19-.95-.13a4.77,4.77,0,0,1-2-.07c-.27-.06-.6-.26-.52-.53a6.72,6.72,0,0,0,2.63-.37,1.36,1.36,0,0,0,.64-.39.55.55,0,0,0,0-.7.92.92,0,0,0-.36-.17l-1.62-.48a5,5,0,0,0-3.27-.21A4.28,4.28,0,0,0,172.76,110.42Z"/><ellipse class="cls-20" cx="178.98" cy="109.95" rx="0.27" ry="0.5" transform="translate(68.58 288.65) rotate(-89.85)"/><path class="cls-1" d="M179.37,112.18a.4.4,0,0,1,.41.36,1.08,1.08,0,0,1-.1.58,5.16,5.16,0,0,1-1.63,2.66,3.77,3.77,0,0,1-1.86.58,2.78,2.78,0,0,1-2.18-.55,2.09,2.09,0,0,1-.24-2.53,3.35,3.35,0,0,1,2.26-1.42,8.41,8.41,0,0,1,2.74.09l-.16.39"/><path class="cls-1" d="M172.38,110.91a16.47,16.47,0,0,0-2.8,9.44c.3,4.84,2.76,3.85,3.9,2.35s2.19-7.91,2.19-7.91Z"/></svg>