<svg id="Layer_3" data-name="Layer 3" xmlns="http://www.w3.org/2000/svg" xmlns:xlink="http://www.w3.org/1999/xlink" viewBox="0 0 260 168"><defs><style>.cls-1{fill:#fff;}.cls-2{fill:#845633;}.cls-3{fill:#1a5686;}.cls-4{fill:#774828;}.cls-5{fill:#9e633b;}.cls-6{fill:#144e75;}.cls-7{fill:#cfeaa8;}.cls-8{fill:#835633;}.cls-9{fill:#663711;}.cls-10{fill:#4f2821;}.cls-11{clip-path:url(#clip-path);}</style><clipPath id="clip-path"><ellipse class="cls-1" cx="135.71" cy="112.79" rx="2.6" ry="2" transform="translate(-39.86 95.08) rotate(-33.97)"/></clipPath></defs><rect class="cls-2" x="132.95" y="120" width="2.98" height="4.21" transform="translate(253.18 259.53) rotate(-173.07)"/><path class="cls-2" d="M148.61,123.27c0-.21.07-.42.1-.63a3.41,3.41,0,0,0-.08-1.42,9,9,0,0,0-1.09-2.36l-.13.24s-.07,0-.09-.15a3.23,3.23,0,0,0-.06-.67.44.44,0,0,1-.07-.24c-.08-.19-.2-.34-.39-.33,0,0-.63-.22-1.26,2.77,0,0-5.57,4.38-8.94,5,0,0-1.32.43-1.55,1.12,0,0-.36.87.44,1a61.29,61.29,0,0,0,9.18-3l3.07-1.4.86,0Z"/><path class="cls-3" d="M135.91,128a1.66,1.66,0,0,1-1-2.49c.68-1.22,4.92-2.29,4.92-2.29.88.62,1.26,3.23,1.26,3.23-.7,1.07-4.52,1.67-4.52,1.67Z"/><path class="cls-4" d="M134.34,144.49c-.1.32-1.29,8-1.29,8a12.29,12.29,0,0,1,2.7,2.63c.43.95-3.16.36-6.1-1.1s-.42-2.44-.3-3.28,2.17-7.85,2.17-7.85l2.87,1.42"/><ellipse class="cls-5" cx="135.18" cy="154.84" rx="0.1" ry="0.26" transform="translate(-63.53 207.4) rotate(-63.69)"/><path class="cls-6" d="M136.91,138.45l-1,7a1,1,0,0,1-.76.86,5.82,5.82,0,0,1-5-1,1.06,1.06,0,0,1-.41-.84c0-1.62.15-6.67,1.24-8.83s4.48.8,5.64,1.89A1,1,0,0,1,136.91,138.45Z"/><path class="cls-2" d="M137.64,145.16c.05.34,2.37,7.71,2.37,7.71A12.22,12.22,0,0,1,143.6,154c.81.65-2.68,1.71-6,1.71s-1.46-2-1.72-2.81-1.54-8-1.54-8h3.21"/><ellipse class="cls-5" cx="142.98" cy="154.07" rx="0.26" ry="0.1"/><path class="cls-3" d="M137.29,138l2,6.75a1,1,0,0,1-.33,1.1,5.83,5.83,0,0,1-4.95,1.23,1,1,0,0,1-.72-.59c-.67-1.47-2.67-6.11-2.59-8.53s4.4-1.16,5.91-.66A1,1,0,0,1,137.29,138Z"/><path class="cls-7" d="M136.68,124.14c1.61,1.12,2.42,12.23,2.35,13.75s-4.17,2.15-7.94,1.19S129.54,130.5,130,127,133.51,121.94,136.68,124.14Z"/><polygon class="cls-7" points="136.33 123.41 136.68 124.14 135.72 124.44 136.33 123.41"/><polygon class="cls-3" points="132.59 122.67 136.33 123.41 135.72 124.85 131.88 123.76 132.59 122.67"/><path class="cls-2" d="M131.83,124.32a62.82,62.82,0,0,0-4.6,8.5L126,135.94s-2.67,2.29-2.42,3c0,0,0,.54,1.74-.69,0,0,.24,0,.12.29s-1.18,2.62-.61,3c0,0,.5.33,1.39-1.94,0,0,.1-.17.14.08,0,0,.12,3.24.81,3.43,0,0,.72-.38.82-3.27,0,0,.84,2.49,1.4,2.33s-.28-3.36-.28-3.36,0-.06.16.05.85.94,1.24.55c0,0,.6-.28-1-2.89,0,0,1-7,3.05-9.78,0,0,.66-1.22.35-1.88C132.87,124.78,132.53,123.9,131.83,124.32Z"/><path class="cls-3" d="M131.31,124.39a1.68,1.68,0,0,1,2.45,1.12c.35,1.35-2,5-2,5-1.08.15-3.14-1.47-3.14-1.47-.23-1.27,2.13-4.33,2.13-4.33Z"/><path class="cls-2" d="M147.1,119.17c.86-.68,1.75-1.33,2.66-2a2,2,0,0,1,1.41-.47.61.61,0,0,1,.52.53.8.8,0,0,1-.2.45A5.56,5.56,0,0,1,150,119.1a.55.55,0,0,1,.49.36.91.91,0,0,1,0,.63.55.55,0,0,0,0,.25.64.64,0,0,0,.1.18,1.27,1.27,0,0,1,.07,1.3,1.31,1.31,0,0,0-.12.27,1.34,1.34,0,0,0,0,.28.84.84,0,0,1-.5.73,2.37,2.37,0,0,1-.91.21,2.31,2.31,0,0,1-1-.06,2,2,0,0,1-.92-.85,4,4,0,0,1-.59-1.4,2.2,2.2,0,0,1,.24-1.47s.06,0,0,.06"/><path d="M133.39,104.91s-1.55-1.25-4.25-.18-5.55,1.52-6,2a5.62,5.62,0,0,0-.7,3.65s-2.45,1.73-2.63,2.27.64,1.4,2.23,2c0,0-.94,2.08,0,2.94a23.33,23.33,0,0,0,3.52,2.17s3.11,2.83,5.88,1.58S130,108.31,130,108.31Z"/><path class="cls-8" d="M133.39,104.91s2.09.2,3.7,3.23,2.63,3.24,3.72,3.91c0,0,.48.27,0,1s-.71.76-.14,1.23c0,0,.65.78.1,1.28a3.94,3.94,0,0,1-2,.5,4.27,4.27,0,0,0,2.19.55s.31,0,.34.42-1.71,6.53-9.75,4.21l-.49-1.58s-3,.15-4-2.1,1.58-2.64,2.72-2.18c0,0,.14-.22-.58-1.24s-.49-3.34-.8-3.34-3.8.86-3.8.86a17,17,0,0,0,3.11-1.67.69.69,0,0,1-.57-1C127.37,108.18,130.55,105.53,133.39,104.91Z"/><path class="cls-9" d="M138.63,116.1s1.83-2.08,2.41-1.54S141.1,115.89,138.63,116.1Z"/><path class="cls-9" d="M138.63,116.08a11,11,0,0,0,2.14.19c.78-.06.71.17.7.45s-.58.87-1.58.43A2.3,2.3,0,0,1,138.63,116.08Z"/><path class="cls-10" d="M128.12,116a1.86,1.86,0,0,1,1.53.8,1.73,1.73,0,0,1,.28,1.93,5.3,5.3,0,0,0-.54-1.3s-.78,1-1.44.67a3,3,0,0,0,1-1.07A5.69,5.69,0,0,0,128.12,116Z"/><path d="M135.76,109.09a3.94,3.94,0,0,0-1.85.65,9,9,0,0,0-1.39,1.2c-.27.18-.46-.47.1-1.3a4,4,0,0,1,2.54-1.24C135.74,108.32,136.68,108.61,135.76,109.09Z"/><ellipse class="cls-1" cx="135.71" cy="112.79" rx="2.6" ry="2" transform="translate(-39.86 95.08) rotate(-33.97)"/><g class="cls-11"><circle class="cls-10" cx="136.57" cy="111.81" r="1.47"/><circle cx="136.57" cy="111.81" r="0.94"/><circle class="cls-1" cx="136.68" cy="110.65" r="0.6"/></g></svg>