<svg id="_14" data-name="14" xmlns="http://www.w3.org/2000/svg" xmlns:xlink="http://www.w3.org/1999/xlink" viewBox="0 0 260 168"><defs><style>.cls-1{fill:#845633;}.cls-2{fill:#fff;}.cls-3{fill:#1a5686;}.cls-4{fill:#774828;}.cls-5{fill:#9e633b;}.cls-6{fill:#144e75;}.cls-7{fill:#cfeaa8;}.cls-8{clip-path:url(#clip-path);}.cls-9{fill:#4f2821;}.cls-10{fill:#64340f;}.cls-11{clip-path:url(#clip-path-2);}</style><clipPath id="clip-path"><path class="cls-1" d="M6.38,60.93s-4.32.65-6.09,3.85-1.27,4.68-1,6.89.45,2.7-.52,4.27S.31,77.52.31,77.52s.17,2.42.26,2.61c0,0,2.39-.73,3-1a6.92,6.92,0,0,1-2.46,2,2.32,2.32,0,0,0,.33.92,2.75,2.75,0,0,1,.31,1s.19,1.38,3,.82,4-.49,7.68-4.19c0,0,5.14-3.27,5.22-8.84s-2.48-8.2-6.32-9.6S6.38,60.93,6.38,60.93Z"/></clipPath><clipPath id="clip-path-2"><path class="cls-2" d="M.71,72.48a2,2,0,0,1,1.93-1.6c1.62.05,2.26.8,2.37,1.39a1.58,1.58,0,0,1-1.41,2C2.06,74.56.74,74.28.71,72.48Z"/></clipPath></defs><rect class="cls-1" x="8.94" y="79.16" width="3.36" height="4.73" transform="translate(-28.35 9.13) rotate(-20.87)"/><path class="cls-1" d="M14.28,84.78A68.81,68.81,0,0,1,10.59,95l-1.67,3.4s.09,4-.67,4.25c0,0-.48.38-.73-2,0,0-.18-.2-.33.12s-1.31,3-2,2.72c0,0-.66-.17.58-2.61,0,0,.07-.22-.17-.07,0,0-2.81,2.33-3.49,1.9,0,0-.22-.89,2.14-3.14,0,0-2.72,1.16-3,.57s3-2.29,3-2.29,0-.07-.16-.1c0,0-1.43,0-1.38-.62,0,0-.22-.72,3.16-1.32,0,0,5.11-6.13,5.93-9.9,0,0,.53-1.47,1.32-1.7C13.12,84.25,14.1,83.88,14.28,84.78Z"/><path class="cls-3" d="M14.61,85.27a1.88,1.88,0,0,0-2.77-1.22c-1.4.72-2.75,5.46-2.75,5.46.68,1,3.59,1.53,3.59,1.53,1.24-.75,2-5,2-5Z"/><path class="cls-4" d="M7.46,103.16l1-1.45s7.63,3,8.46,3.52,3.46-1.09,2.71,2.53-2.71,7.21-3.25,6.17-.46-4.21-.46-4.21-7.6-4.24-8-4.37a1.65,1.65,0,0,1-.84-2.12Z"/><ellipse class="cls-5" cx="16.57" cy="113.26" rx="0.29" ry="0.11" transform="translate(-97.71 106.57) rotate(-78.33)"/><path class="cls-6" d="M12.61,96.48,7,102.09a1.16,1.16,0,0,0-.26,1.26c.44,1.09,2.73,1.34,5.39,2.14a2.64,2.64,0,0,0,1.51-.45c1.44-1.1,4.29-2.64,5.49-5.08s-3.73-3.5-5.5-3.81A1.13,1.13,0,0,0,12.61,96.48Z"/><path class="cls-1" d="M16.57,114.82s-3.24,1.08-4.05,1.92,3.23,1.55,6.9,1.09c3.42-.43,1.78-2.09,1.67-3.08"/><path class="cls-1" d="M14.2,107.24c.14.31,1.93,6.73,2.38,8.36,0,0,.81,1.07,2.47.16a7.37,7.37,0,0,1,2.07-.93c-.25-.93-4-9.79-4-9.79l-3,2"/><ellipse class="cls-5" cx="13.21" cy="116.69" rx="0.29" ry="0.11" transform="translate(-14.35 2.53) rotate(-7.11)"/><path class="cls-3" d="M11.89,99l.1,7.93a1.15,1.15,0,0,0,.72,1.07,6.57,6.57,0,0,0,5.73-.33,1.16,1.16,0,0,0,.58-.88c.23-1.8.83-7.46-.08-10S13.83,97,12.37,98A1.17,1.17,0,0,0,11.89,99Z"/><path class="cls-7" d="M8.72,84.36C7.27,86,9.39,98.37,9.88,100s5.14,1.22,9-.85-.64-9.79-2.1-13.48S11.58,81.1,8.72,84.36Z"/><polygon class="cls-7" points="8.9 83.47 8.72 84.36 9.85 84.43 8.9 83.47"/><polygon class="cls-3" points="12.79 81.65 8.9 83.47 9.96 84.87 13.85 82.64 12.79 81.65"/><path class="cls-1" d="M14.62,84.23A70.35,70.35,0,0,1,16.14,95l.13,3.79s1.92,3.46,1.4,4.07c0,0-.26.56-1.57-1.41,0,0-.26-.09-.24.27s.22,3.22-.52,3.35c0,0-.65.16-.7-2.58,0,0,0-.23-.18,0,0,0-1.4,3.37-2.2,3.31,0,0-.61-.68.42-3.78,0,0-1.86,2.3-2.39,1.92s1.61-3.44,1.61-3.44,0-.08-.19,0c0,0-1.27.66-1.52.09,0,0-.53-.53,2.18-2.65,0,0,1.64-7.8.6-11.52,0,0-.22-1.54.37-2.12C13.34,84.3,14,83.51,14.62,84.23Z"/><path class="cls-3" d="M15.13,84.5a1.89,1.89,0,0,0-3,.23c-.89,1.29.13,6.11.13,6.11,1.08.58,3.89-.33,3.89-.33.74-1.25-.55-5.4-.55-5.4Z"/><path class="cls-1" d="M6.38,60.93s-4.32.65-6.09,3.85-1.27,4.68-1,6.89.45,2.7-.52,4.27S.31,77.52.31,77.52s.17,2.42.26,2.61c0,0,2.39-.73,3-1a6.92,6.92,0,0,1-2.46,2,2.32,2.32,0,0,0,.33.92,2.75,2.75,0,0,1,.31,1s.19,1.38,3,.82,4-.49,7.68-4.19c0,0,5.14-3.27,5.22-8.84s-2.48-8.2-6.32-9.6S6.38,60.93,6.38,60.93Z"/><g class="cls-8"><path d="M-1,65.33a16.47,16.47,0,0,1,6-1.57c3.42-.15,4.78.4,5.22,1.3s.62,1.84.55,4.26-.06,2.18.18,2.47c0,0,.62-1.32,1.72-1.32s2.14,0,2.42,1.41a4.57,4.57,0,0,1-2.24,4.68s.77,3.16,2.78,2L15.89,80l4.5-1.7L23,75.85l1.65-12.34-4.05-3.74-8.45-1.6-8.5.65L.11,59.91-1,61.73l-1.46,2.9"/></g><path class="cls-9" d="M13.09,71.15A2.12,2.12,0,0,0,12,73.24c.06,1.58,1.1,1.7,1.1,1.7a2.69,2.69,0,0,1-.52-1.64,1.6,1.6,0,0,0,1.9-.24,3.81,3.81,0,0,1-1.75-.28A2.6,2.6,0,0,1,13.09,71.15Z"/><path class="cls-10" d="M.19,79.46s.14-.35,1.22-.38a16.16,16.16,0,0,0,2.34,0A7.52,7.52,0,0,1,1,80.38C-.26,80.56.19,79.46.19,79.46Z"/><path class="cls-10" d="M3.75,79.09a2.93,2.93,0,0,1-2,2.3,1.09,1.09,0,0,1-1.19-.11c-.53-.47.34-.72.86-1A16.6,16.6,0,0,0,3.75,79.09Z"/><path d="M11,71.79a25.6,25.6,0,0,0-.89-3.42s-1.43-1.52-.81-2.93c0,0,.61-1.11-.23-1.33,0,0,1-1.23,1.46-1.06s2.46.78,2.46.78l1.28,1.41.52,1.3Z"/><path class="cls-2" d="M.71,72.48a2,2,0,0,1,1.93-1.6c1.62.05,2.26.8,2.37,1.39a1.58,1.58,0,0,1-1.41,2C2.06,74.56.74,74.28.71,72.48Z"/><g class="cls-11"><circle class="cls-9" cx="1.71" cy="73.52" r="1.32"/><circle cx="1.71" cy="73.52" r="0.88"/><circle class="cls-2" cx="1.04" cy="73.14" r="0.46"/></g><path d="M5.07,69.13a3,3,0,0,0-2.73-.64,3.12,3.12,0,0,0-2.2,1.26s-.32.47.3.31a6.89,6.89,0,0,1,4.48-.56S5.37,69.53,5.07,69.13Z"/><polygon class="cls-1" points="8.9 65.68 13.34 64.71 9.02 66.67 8.9 65.68"/><path d="M17.59,65.71s1.72,1.32,1.93,2.52-1.67,4.87-2.23,5.2-2.19-4.7-2.19-4.7L13,63.33,5.51,61.16a42,42,0,0,1,5.65-1.92c1.09-.08,3.11,3,3.11,3a36,36,0,0,1,3.89.17C19.5,62.56,17.59,65.71,17.59,65.71Z"/></svg>