<svg id="_1" data-name="1" xmlns="http://www.w3.org/2000/svg" xmlns:xlink="http://www.w3.org/1999/xlink" viewBox="0 0 260 168"><defs><style>.cls-1{fill:#fff;}.cls-2{fill:#845633;}.cls-3{fill:#1a5686;}.cls-4{fill:#774828;}.cls-5{fill:#9e633b;}.cls-6{fill:#144e75;}.cls-7{fill:#cfeaa8;}.cls-8{fill:#835633;}.cls-9{fill:#663711;}.cls-10{fill:#4f2821;}.cls-11{clip-path:url(#clip-path);}</style><clipPath id="clip-path"><ellipse class="cls-1" cx="93.84" cy="113.55" rx="2.6" ry="2" transform="translate(-26.58 28.7) rotate(-15.26)"/></clipPath></defs><rect class="cls-2" x="88.44" y="120" width="2.98" height="4.21" transform="translate(164.47 254.16) rotate(-173.07)"/><path class="cls-2" d="M89.36,126.25a62.63,62.63,0,0,0,5.9,7.65l2.34,2.43s1,3.37,1.72,3.41c0,0,.51.19.08-1.87,0,0,.1-.22.31,0s1.92,2.14,2.46,1.76c0,0,.51-.32-1.21-2,0,0-.12-.17.13-.11,0,0,3,1.21,3.47.66,0,0-.06-.81-2.67-2.08,0,0,2.62.25,2.71-.33s-3.19-1.11-3.19-1.11,0-.06.11-.13,1.21-.39,1-.9c0,0,0-.67-3-.26,0,0-6-3.8-7.7-6.77,0,0-.84-1.1-1.57-1.08C90.21,125.48,89.27,125.43,89.36,126.25Z"/><path class="cls-3" d="M89.22,126.75a1.68,1.68,0,0,1,2-1.79c1.38.24,3.81,3.88,3.81,3.88-.3,1-2.62,2.27-2.62,2.27-1.25-.3-3.09-3.7-3.09-3.7Z"/><path class="cls-4" d="M86.6,146.43c-.33-.11-8-1.3-8-1.3A12.07,12.07,0,0,1,76,147.82c-1,.43-.35-3.16,1.11-6.1s2.44-.41,3.28-.29,7.85,2.18,7.85,2.18l-1.43,2.87"/><ellipse class="cls-5" cx="76.24" cy="147.26" rx="0.26" ry="0.1" transform="translate(-89.56 150.1) rotate(-63.61)"/><path class="cls-6" d="M93.48,141.31,89,146.72a1,1,0,0,1-1.1.34,5.86,5.86,0,0,1-3.77-3.44,1.05,1.05,0,0,1,.09-.93c.86-1.37,3.62-5.61,5.68-6.88s3.4,3,3.82,4.56A1,1,0,0,1,93.48,141.31Z"/><path class="cls-2" d="M93.13,145.16c.05.34,2.37,7.71,2.37,7.71A12.1,12.1,0,0,1,99.08,154c.81.65-2.67,1.71-6,1.71s-1.46-2-1.72-2.81-1.54-8-1.54-8h3.2"/><ellipse class="cls-5" cx="98.47" cy="154.07" rx="0.26" ry="0.1"/><path class="cls-3" d="M93.44,138.13,95,145a1.05,1.05,0,0,1-.41,1.07,5.84,5.84,0,0,1-5,.86,1,1,0,0,1-.68-.64c-.56-1.52-2.21-6.29-2-8.7s4.47-.83,5.94-.22A1,1,0,0,1,93.44,138.13Z"/><path class="cls-7" d="M92.16,124.14c1.62,1.12,2.43,12.23,2.36,13.75s-4.18,2.15-8,1.19S85,130.5,85.5,127,89,121.94,92.16,124.14Z"/><polygon class="cls-7" points="91.82 123.41 92.16 124.14 91.21 124.44 91.82 123.41"/><polygon class="cls-3" points="88.08 122.67 91.82 123.41 91.21 124.85 87.37 123.76 88.08 122.67"/><path class="cls-2" d="M87.49,124.24a62.6,62.6,0,0,0-5.85,7.69l-1.74,2.89s-3,1.85-2.85,2.55c0,0,0,.54,1.83-.41,0,0,.24,0,.07.31s-1.57,2.4-1.06,2.82c0,0,.45.41,1.67-1.7,0,0,.13-.16.13.1,0,0-.38,3.22.27,3.52,0,0,.77-.27,1.31-3.11,0,0,.45,2.59,1,2.52s.24-3.36.24-3.36,0-.06.15.07.69,1.06,1.14.73c0,0,.64-.18-.54-3,0,0,2.1-6.77,4.52-9.2,0,0,.84-1.1.64-1.8C88.45,124.86,88.25,123.94,87.49,124.24Z"/><path class="cls-3" d="M87,124.23a1.67,1.67,0,0,1,2.24,1.49c.14,1.39-2.75,4.68-2.75,4.68-1.08,0-2.87-1.94-2.87-1.94,0-1.29,2.77-3.94,2.77-3.94Z"/><path d="M94.17,105.35s-1.07-1.68-4-1.53-5.74-.35-6.28-.07A5.57,5.57,0,0,0,82.08,107s-2.87.85-3.22,1.3.16,1.53,1.49,2.56c0,0-1.55,1.68-.91,2.81a23.54,23.54,0,0,0,2.64,3.18s2,3.68,5.06,3.38,2.74-12.72,2.74-12.72Z"/><path class="cls-8" d="M94.17,105.35s1.91.86,2.47,4.25,1.45,3.91,2.26,4.89c0,0,.37.41-.34,1s-.91.48-.52,1.11c0,0,.36,1-.32,1.25a4,4,0,0,1-2.09-.18,4.24,4.24,0,0,0,1.91,1.22s.29.09.18.51S94,125,87.14,120.21l0-1.65s-2.91-.83-3.1-3.27,2.35-2,3.28-1.19c0,0,.2-.16-.15-1.36s.61-3.32.31-3.42-3.87-.41-3.87-.41a17.27,17.27,0,0,0,3.47-.58.69.69,0,0,1-.22-1.09C87.41,106.52,91.28,105,94.17,105.35Z"/><path class="cls-9" d="M95.54,117.63s2.4-1.38,2.78-.69S98,118.22,95.54,117.63Z"/><path class="cls-9" d="M95.55,117.61a11.34,11.34,0,0,0,2,.87c.76.19.62.39.53.65s-.84.64-1.65-.1A2.28,2.28,0,0,1,95.55,117.61Z"/><path class="cls-10" d="M85.63,114.12a1.87,1.87,0,0,1,1.19,1.25,1.71,1.71,0,0,1-.35,1.92,5.19,5.19,0,0,0-.1-1.4s-1.05.68-1.57.17a3.06,3.06,0,0,0,1.3-.69A6,6,0,0,0,85.63,114.12Z"/><path d="M95.07,110.07a4,4,0,0,0-2,0,10.05,10.05,0,0,0-1.7.69c-.32.08-.28-.59.51-1.2a4,4,0,0,1,2.8-.36C95.3,109.33,96.1,109.91,95.07,110.07Z"/><ellipse class="cls-1" cx="93.84" cy="113.55" rx="2.6" ry="2" transform="translate(-26.58 28.7) rotate(-15.26)"/><g class="cls-11"><circle class="cls-10" cx="94.97" cy="112.91" r="1.47"/><circle cx="94.97" cy="112.91" r="0.94"/><circle class="cls-1" cx="95.44" cy="111.84" r="0.6"/></g></svg>