<svg id="_12" data-name="12" xmlns="http://www.w3.org/2000/svg" xmlns:xlink="http://www.w3.org/1999/xlink" viewBox="0 0 260 168"><defs><style>.cls-1{fill:#845633;}.cls-2{fill:#fff;}.cls-3{fill:#1a5686;}.cls-4{fill:#774828;}.cls-5{fill:#9e633b;}.cls-6{fill:#144e75;}.cls-7{fill:#cfeaa8;}.cls-8{clip-path:url(#clip-path);}.cls-9{fill:#4f2821;}.cls-10{fill:#64340f;}.cls-11{clip-path:url(#clip-path-2);}</style><clipPath id="clip-path"><path class="cls-1" d="M20.72,65.93s-4.29.81-5.94,4.08-1.1,4.73-.75,6.92.55,2.69-.37,4.29,1.61,1.52,1.61,1.52.26,2.41.36,2.6c0,0,2.35-.81,2.93-1.09a6.78,6.78,0,0,1-2.39,2.06,2.32,2.32,0,0,0,.37.91,2.71,2.71,0,0,1,.34,1s.25,1.38,3,.72,4-.65,7.52-4.48c0,0,5-3.46,4.89-9s-2.78-8.11-6.67-9.37S20.72,65.93,20.72,65.93Z"/></clipPath><clipPath id="clip-path-2"><path class="cls-2" d="M15.49,77.69A1.94,1.94,0,0,1,17.35,76c1.62,0,2.29.71,2.43,1.3a1.58,1.58,0,0,1-1.34,2.08C16.91,79.72,15.58,79.49,15.49,77.69Z"/></clipPath></defs><path class="cls-1" d="M24.85,93,23,95.65a53.46,53.46,0,0,1-5.27,3.11c-3.34-.8-3.43-.05-3.43-.05-.29.55,1,1.12,1,1.12.17.1.11.16.11.16s-3.72.23-3.69.88,3,.68,3,.68c-3.06,1.13-3.21,2-3.21,2,.45.66,3.95-.35,3.95-.35.29,0,.13.13.13.13-2.11,1.74-1.57,2.16-1.57,2.16.55.49,2.67-1.45,2.94-1.69s.35,0,.35,0c-.71,2.26-.12,2.1-.12,2.1.81,0,2.31-3.63,2.31-3.63l2.89-2.45c.68-.58,1.45-1.31,2.23-2.1a12.17,12.17,0,0,0,1.51-3.72Z"/><path class="cls-1" d="M22.61,95.43A15.78,15.78,0,0,0,24.79,91s.57-1.45,1.36-1.66c0,0,1-.34,1.15.57a63.22,63.22,0,0,1-2.46,6.78"/><path class="cls-3" d="M28.42,91.71a1.88,1.88,0,0,0-2.56-1.61c-1.48.51-3.52,5-3.52,5,.52,1.1,3.33,2,3.33,2,1.33-.56,2.75-4.67,2.75-4.67Z"/><path class="cls-3" d="M28.61,89.82a1.88,1.88,0,0,0-3-.46c-1.16,1.06-1.25,6-1.25,6,.92.81,3.87.56,3.87.56,1-1.05.67-5.39.67-5.39Z"/><path class="cls-3" d="M35.93,101a2.62,2.62,0,0,1,.62,1.07,4.68,4.68,0,0,1,.16,1.06,5.14,5.14,0,0,1-.55,3.38,14.12,14.12,0,0,0-1.35-3,1.62,1.62,0,0,1-.31-.8,1.16,1.16,0,0,1,.47-.88c.26-.22.57-.39.83-.6a.32.32,0,0,1-.09.26"/><path class="cls-1" d="M24.89,97.56c.17-.48.33-1,.49-1.48a16.62,16.62,0,0,0,.91-5s.14-1.56.85-2c0,0,.86-.61,1.26.22a65.84,65.84,0,0,1-.52,7.57l0,.25c-.05.48-.12.94-.18,1.39,0,0,.14,1.21-1.73,1.69-.09,0-.1-.13-.1-.13L25,98.6Z"/><rect class="cls-1" x="24.04" y="84" width="3.36" height="4.73" transform="translate(-31.68 16.9) rotate(-22.98)"/><path class="cls-3" d="M26,89a1.88,1.88,0,0,1,3,.4c.82,1.35-.5,6.09-.5,6.09C27.4,96,24.65,95,24.65,95c-.66-1.29.88-5.35.88-5.35Z"/><path class="cls-3" d="M29.85,90A1.89,1.89,0,0,0,27,88.84c-1.37.78-2.54,5.56-2.54,5.56.71,1,3.64,1.4,3.64,1.4C29.34,95,30,90.7,30,90.7Z"/><path class="cls-4" d="M38.82,110.29l7.68-4.18c-.07-.16-.15-.33-.24-.5a6.71,6.71,0,0,0-.79-1.18c-1.66-2.07-1.92-1.75-1.92-1.75-.84.45-7.53,5.23-7.53,5.23l2.58,2.52Z"/><path class="cls-4" d="M46.42,106.51s2.62,1.79,3.79,1.9-.79-3.49-3.42-6.08c-2.26-2.24-2.67-.29-3.28.58"/><ellipse class="cls-5" cx="49.92" cy="107.65" rx="0.11" ry="0.29" transform="translate(-41.21 31.65) rotate(-25.29)"/><path class="cls-4" d="M43.48,102.64a3.64,3.64,0,0,1,1-.54l.22,1.5-1,.61-.6-.81Z"/><path class="cls-6" d="M30,106.62l6.34,4.75a1.17,1.17,0,0,0,1.29.08,7.66,7.66,0,0,0,3-5.25c.06-.36-1.12-1.51-1.38-1.77-1.3-1.28-4.12-3.92-6.71-4.77s-2.94,4.18-3,6A1.15,1.15,0,0,0,30,106.62Z"/><path class="cls-1" d="M27.17,108c-.19.28-5.07,5.59-6.22,6.83A1.92,1.92,0,0,0,22,117.13c1.64.94,1.92.74,1.92.74.65-.69,6.64-8.58,6.64-8.58l-3.26-1.53"/><path class="cls-1" d="M22.14,113.26s-3.05-1.53-4.22-1.51,1.19,3.38,4.1,5.65c2.73,2.12,2.7-.4,3.33-1.17"/><ellipse class="cls-5" cx="18.44" cy="112.21" rx="0.11" ry="0.29" transform="translate(-81.4 57.78) rotate(-52.07)"/><path class="cls-3" d="M30.08,101.46,25,107.52a1.17,1.17,0,0,0-.16,1.28c.53,1,3.33,2.38,6,3,.36.08,1-.8,1.26-1a19.55,19.55,0,0,0,4.78-6.3c1-2.49-4-3.18-5.79-3.35A1.2,1.2,0,0,0,30.08,101.46Z"/><path class="cls-7" d="M23.93,89.27c-1.39,1.71,1.24,11.5,1.78,13.12s5.14,3.5,8.92,1.29-1-9.76-2.6-13.39S26.67,85.9,23.93,89.27Z"/><polygon class="cls-7" points="24.08 88.37 23.93 89.27 25.05 89.3 24.08 88.37"/><polygon class="cls-3" points="27.89 86.41 24.08 88.37 25.18 89.73 28.99 87.36 27.89 86.41"/><path class="cls-1" d="M31.51,92.18l2.23,2.41a53.46,53.46,0,0,1,1.94,5.8c-1.48,3.1-.77,3.34-.77,3.34.48.4,1.31-.76,1.31-.76s.18-.07.18-.07-.56,3.69.09,3.8,1.29-2.79,1.29-2.79c.46,3.23,1.31,3.57,1.31,3.57.74-.3.49-3.94.49-3.94,0-.29.15-.1.15-.1,1.27,2.43,1.78,2,1.78,2,.6-.44-.86-2.92-1-3.23s.09-.34.09-.34c2.06,1.17,2,.56,2,.56.2-.78-3.06-3-3.06-3l-1.8-3.34c-.42-.78-1-1.69-1.58-2.62a12.13,12.13,0,0,0-3.33-2.25Z"/><path class="cls-1" d="M34.11,95.16a16,16,0,0,0-4-2.88s-1.33-.8-1.41-1.61c0,0-.18-1,.75-1a66.34,66.34,0,0,1,6.28,3.55"/><path class="cls-3" d="M28.34,88.38A1.88,1.88,0,0,0,26.81,91c.56,1.47,5.11,3.36,5.11,3.36C33,93.8,33.86,91,33.86,91c-.61-1.31-4.76-2.6-4.76-2.6Z"/><path class="cls-1" d="M20.72,65.93s-4.29.81-5.94,4.08-1.1,4.73-.75,6.92.55,2.69-.37,4.29,1.61,1.52,1.61,1.52.26,2.41.36,2.6c0,0,2.35-.81,2.93-1.09a6.78,6.78,0,0,1-2.39,2.06,2.32,2.32,0,0,0,.37.91,2.71,2.71,0,0,1,.34,1s.25,1.38,3,.72,4-.65,7.52-4.48c0,0,5-3.46,4.89-9s-2.78-8.11-6.67-9.37S20.72,65.93,20.72,65.93Z"/><g class="cls-8"><path d="M13.48,70.61a16.21,16.21,0,0,1,6-1.79c3.42-.28,4.79.22,5.27,1.11s.68,1.81.7,4.23,0,2.18.27,2.47c0,0,.57-1.35,1.68-1.39s2.13-.11,2.47,1.32a4.6,4.6,0,0,1-2.07,4.76s.89,3.13,2.85,1.87l.32,1.44,4.42-1.86,2.49-2.54L39,67.84l-4.18-3.59L26.35,63l-8.48,1-3.45,1.22L13.33,67,12,70"/></g><path class="cls-9" d="M27.81,75.9a2.12,2.12,0,0,0-1,2.13c.11,1.58,1.15,1.66,1.15,1.66a2.72,2.72,0,0,1-.57-1.62,1.58,1.58,0,0,0,1.88-.31,3.88,3.88,0,0,1-1.76-.21A2.59,2.59,0,0,1,27.81,75.9Z"/><path class="cls-10" d="M15.22,84.68s.13-.35,1.21-.42a15.14,15.14,0,0,0,2.34-.08,7.54,7.54,0,0,1-2.7,1.4C14.81,85.8,15.22,84.68,15.22,84.68Z"/><path class="cls-10" d="M18.76,84.18a2.93,2.93,0,0,1-1.94,2.38,1.09,1.09,0,0,1-1.19-.07c-.55-.45.31-.73.82-1A17.74,17.74,0,0,0,18.76,84.18Z"/><path d="M25.69,76.63a26,26,0,0,0-1-3.39s-1.49-1.47-.92-2.9c0,0,.57-1.13-.28-1.32,0,0,1-1.27,1.42-1.11s2.48.68,2.48.68L28.72,70l.57,1.28Z"/><path class="cls-2" d="M15.49,77.69A1.94,1.94,0,0,1,17.35,76c1.62,0,2.29.71,2.43,1.3a1.58,1.58,0,0,1-1.34,2.08C16.91,79.72,15.58,79.49,15.49,77.69Z"/><g class="cls-11"><circle class="cls-9" cx="16.53" cy="78.69" r="1.32"/><circle cx="16.53" cy="78.69" r="0.88"/><circle class="cls-2" cx="15.84" cy="78.34" r="0.46"/></g><path d="M19.72,74.19A3,3,0,0,0,17,73.64,3.15,3.15,0,0,0,14.81,75s-.3.48.32.3a7,7,0,0,1,4.45-.73S20,74.57,19.72,74.19Z"/><polygon class="cls-1" points="23.42 70.59 27.81 69.46 23.57 71.58 23.42 70.59"/><path d="M32.11,70.3s1.76,1.26,2,2.45-1.49,4.93-2,5.28-2.37-4.62-2.37-4.62L27.39,68.1l-7.52-1.9a42.25,42.25,0,0,1,5.57-2.12c1.09-.12,3.21,2.83,3.21,2.83a34.76,34.76,0,0,1,3.9,0C33.9,67.09,32.11,70.3,32.11,70.3Z"/></svg>