<svg id="Layer_1" data-name="Layer 1" xmlns="http://www.w3.org/2000/svg" xmlns:xlink="http://www.w3.org/1999/xlink" viewBox="0 0 260 168"><defs><style>.cls-1,.cls-3{fill:none;}.cls-2{fill:#845633;}.cls-3{stroke:#7c4e2e;stroke-linecap:round;stroke-linejoin:round;stroke-width:0.1px;}.cls-4{fill:#7c4e2e;}.cls-5{fill:#1a5686;}.cls-6{fill:#124d75;}.cls-7{fill:#cfeaa8;}.cls-8{clip-path:url(#clip-path);}.cls-9{fill:#7c4b2a;}.cls-10{clip-path:url(#clip-path-2);}.cls-11{fill:#6b3e1f;}.cls-12{fill:#9e6239;}.cls-13{clip-path:url(#clip-path-3);}.cls-14{fill:#620100;}.cls-15{fill:#fff;}.cls-16{clip-path:url(#clip-path-4);}.cls-17{fill:#4f2821;}.cls-18{clip-path:url(#clip-path-5);}.cls-19{fill:#64340f;}</style><clipPath id="clip-path"><path class="cls-1" d="M206.74,114.63a43.92,43.92,0,0,1,0-6.07l-1-.34a.17.17,0,0,0-.1,0l-1.64-.43-2.3,2.28-1.5-2.68-1.11.26a4.76,4.76,0,0,0-1.53.37l-.77.46a16.08,16.08,0,0,0-.74,6.2c.23,2.85.26,8.87.26,8.87s-.33.35,5.42.69,6-.39,6-.39Z"/></clipPath><clipPath id="clip-path-2"><path class="cls-1" d="M200.83,132.26c-.91.63-2.27-.58-2.81-3.21-.24-1.17,2.35-1.92,6-3.56a20.34,20.34,0,0,1,5.24-1.81c1.73-.21,2.75,2.65.73,4s-8.13,2.72-8.13,2.72a8.91,8.91,0,0,1-.63,1.18A1.52,1.52,0,0,1,200.83,132.26Z"/></clipPath><clipPath id="clip-path-3"><path class="cls-1" d="M198.15,83.81a9.58,9.58,0,0,0-5.12,10s-3.16-.36-2.59,3.38a2.72,2.72,0,0,0,3.1,2.27,2.37,2.37,0,0,0,.46-.11s1.28,5,4.25,6.73,4.92,1.23,6.63.32,4.34-5.69,4.46-7.59c0,0,2.61,1.47,3.66-2.1,0,0,.89-3.17-2.61-2.81,0,0,.58-7.79-4.67-9.85C200.71,82.11,198.15,83.81,198.15,83.81Z"/></clipPath><clipPath id="clip-path-4"><path class="cls-1" d="M195.48,95.76a2,2,0,0,1,2-1.55c1.62.08,2.25.84,2.34,1.43a1.57,1.57,0,0,1-1.08,1.94,1.15,1.15,0,0,1-.37.06C196.78,97.87,195.46,97.56,195.48,95.76Z"/></clipPath><clipPath id="clip-path-5"><path class="cls-1" d="M207.61,95.13a1.93,1.93,0,0,0-2.11-1.34c-1.59.24-2.14,1.07-2.18,1.67a1.57,1.57,0,0,0,1.3,1.81,1.62,1.62,0,0,0,.38,0C206.53,97.36,207.81,96.91,207.61,95.13Z"/></clipPath></defs><path class="cls-2" d="M190.12,122.34s-2.14,4.49-1.67,4.77,1.23-.28,2.12-3a2.31,2.31,0,0,0,3.09-1.07,2.84,2.84,0,0,0,.17-.49l1.24-3.23a63.66,63.66,0,0,0,2.52-9.6c-.23-.81-1.1-.39-1.1-.39-.7.28-1.06,1.66-1.06,1.66-.44,3.49-4.59,9.48-4.59,9.48-3,.83-2.77,1.46-2.77,1.46,0,.57,1.47.54,1.47.54"/><path class="cls-3" d="M190.93,121.82a1.25,1.25,0,0,0,1.75-.15.91.91,0,0,0,.11-.16"/><path class="cls-4" d="M191.64,122.49c.29.13.28.76,0,1.39s-.5,1.21-1,.92c-.28-.15-.28-.76,0-1.4S191.36,122.36,191.64,122.49Z"/><path class="cls-4" d="M192.44,122.46c.29.11.34.73.1,1.39s-.39,1.25-1,1c-.28-.13-.34-.73-.1-1.39S192.14,122.35,192.44,122.46Z"/><path class="cls-4" d="M193.11,122.68c.24.09.28.6.08,1.14s-.32,1-.79.81c-.23-.1-.27-.59-.08-1.13S192.87,122.6,193.11,122.68Z"/><path class="cls-5" d="M199.25,110.17s-1.68,4.42-2.23,5.32c0,0-2.62-.68-3.16-1.65,0,0,1.6-4.91,2.92-5.47a2.2,2.2,0,0,1,2.47,1.8"/><rect class="cls-5" x="196.38" y="123" width="11.15" height="3.59"/><path class="cls-5" d="M196.32,123.7s-4.73-1.93-4.79,1.63,6.49,4.84,8.1,5.14a29.91,29.91,0,0,0,4.54.25s7-1,7.37-4.22-1.48-4.36-3.81-2.82S199.59,125.06,196.32,123.7Z"/><path class="cls-6" d="M201.34,126.34a3.64,3.64,0,0,0,2.73.67,4.17,4.17,0,0,0,1.12-.55,4.09,4.09,0,0,0,1.56-1.53c-.12.24-2.35.16-2.67.17-.92,0-1.84,0-2.76-.08a7.37,7.37,0,0,1-1.32-.12c-.2,0-1-.27-.78.11.14.22.8.45,1,.61S201,126.11,201.34,126.34Z"/><path class="cls-2" d="M206.46,108.64a65.87,65.87,0,0,1,5.32,8.38l1.53,3.11s2.91,2.15,2.7,2.86c0,0,0,.56-1.84-.58,0,0-.25,0-.1.31s1.4,2.6.84,3c0,0-.49.39-1.56-1.88,0,0-.12-.17-.14.09,0,0,.11,3.33-.58,3.58,0,0-.77-.34-1.08-3.3,0,0-.68,2.62-1.27,2.5s.05-3.47.05-3.47,0-.06-.17.06-.8,1-1.22.65c0,0-.64-.24.81-3,0,0-1.57-7.11-3.83-9.81,0,0-.77-1.2-.5-1.9C205.42,109.19,205.7,108.27,206.46,108.64Z"/><path class="cls-5" d="M206.86,108.52s2.78,3.83,3.23,4.78c0,0-2,1.82-3.12,1.74,0,0-1.8-2.18-1.55-3.59,0,0-.58-3.69,1.44-2.93"/><path class="cls-2" d="M200.25,106.37a2.11,2.11,0,0,1,0,1c-.17.36-2.42.48-3,1.27s-.47,5.21-.47,5.21l.35,9.7s9.14.26,9.14.07.48-10.38.33-11.59.42-2.93-1.31-3.71-2-.72-2-.72a2.2,2.2,0,0,1,0-1.14,11,11,0,0,0-1.35-.51Z"/><path class="cls-7" d="M206.74,114.63a43.92,43.92,0,0,1,0-6.07l-1-.34a.17.17,0,0,0-.1,0l-1.64-.43-2.3,2.28-1.5-2.68-1.11.26a4.76,4.76,0,0,0-1.53.37l-.77.46a16.08,16.08,0,0,0-.74,6.2c.23,2.85.26,8.87.26,8.87s-.33.35,5.42.69,6-.39,6-.39Z"/><g class="cls-8"><polyline class="cls-5" points="198.77 106.72 200.36 111.17 201.73 110.04 202.96 111.4 205.81 107.52 199.4 105.87 198.55 106.95"/></g><path class="cls-9" d="M200.83,132.26c-.91.63-2.27-.58-2.81-3.21-.24-1.17,2.35-1.92,6-3.56a20.34,20.34,0,0,1,5.24-1.81c1.73-.21,2.75,2.65.73,4s-8.13,2.72-8.13,2.72a8.91,8.91,0,0,1-.63,1.18A1.52,1.52,0,0,1,200.83,132.26Z"/><g class="cls-10"><path class="cls-11" d="M197.73,128.84a1.75,1.75,0,0,0,.75.88,5.28,5.28,0,0,0,1.09.47l1.15.4a.7.7,0,0,1,.27.14.61.61,0,0,1,.13.22,4.08,4.08,0,0,0,.37.72,1.23,1.23,0,0,0,.63.49,1.53,1.53,0,0,0,1.19-.24,1.35,1.35,0,0,0,.35-.28,1,1,0,0,0,.23-.57,2.79,2.79,0,0,0-.51-1.7,4.53,4.53,0,0,0-1-1.26,3.59,3.59,0,0,0-.79-.49,10,10,0,0,0-3.85-.74,2.48,2.48,0,0,0-.94.1.83.83,0,0,0-.55.71.76.76,0,0,0,.28.56,1.82,1.82,0,0,0,.56.31"/></g><ellipse class="cls-9" cx="198.32" cy="129.24" rx="0.66" ry="0.89" transform="translate(-20.39 38.69) rotate(-10.6)"/><ellipse class="cls-9" cx="198.61" cy="130.43" rx="0.42" ry="0.57" transform="translate(-20.6 38.76) rotate(-10.6)"/><ellipse class="cls-9" cx="199.17" cy="131.28" rx="0.42" ry="0.57" transform="translate(-33.96 80.75) rotate(-21.16)"/><ellipse class="cls-9" cx="199.76" cy="131.83" rx="0.42" ry="0.57" transform="translate(-39.55 135.66) rotate(-34.34)"/><ellipse class="cls-9" cx="200.28" cy="131.96" rx="0.42" ry="0.57" transform="translate(-39.53 135.98) rotate(-34.34)"/><ellipse class="cls-12" cx="198.35" cy="129.38" rx="0.14" ry="0.42" transform="translate(-37.85 112.26) rotate(-28.97)"/><ellipse class="cls-12" cx="198.72" cy="130.43" rx="0.1" ry="0.29" transform="translate(-38.31 112.57) rotate(-28.97)"/><ellipse class="cls-12" cx="199.25" cy="131.23" rx="0.1" ry="0.29" transform="translate(-38.63 112.93) rotate(-28.97)"/><ellipse class="cls-12" cx="199.84" cy="131.76" rx="0.1" ry="0.29" transform="translate(-38.81 113.28) rotate(-28.97)"/><ellipse class="cls-12" cx="200.52" cy="132.06" rx="0.08" ry="0.25" transform="translate(-38.87 113.65) rotate(-28.97)"/><path class="cls-2" d="M202.26,132.26c.92.63,2.28-.58,2.82-3.21.24-1.17-2.35-1.92-6-3.56a20.34,20.34,0,0,0-5.24-1.81c-1.73-.21-2.76,2.65-.73,4s8.13,2.72,8.13,2.72a8.91,8.91,0,0,0,.63,1.18A1.6,1.6,0,0,0,202.26,132.26Z"/><ellipse class="cls-2" cx="204.78" cy="129.27" rx="0.89" ry="0.66" transform="translate(40.05 306.78) rotate(-79.4)"/><ellipse class="cls-2" cx="204.52" cy="130.46" rx="0.57" ry="0.42" transform="translate(38.67 307.49) rotate(-79.4)"/><ellipse class="cls-2" cx="204.02" cy="131.17" rx="0.57" ry="0.42" transform="translate(7.43 273.23) rotate(-68.59)"/><ellipse class="cls-2" cx="203.34" cy="131.83" rx="0.57" ry="0.42" transform="translate(-20.22 225.36) rotate(-55.66)"/><ellipse class="cls-2" cx="202.82" cy="131.96" rx="0.57" ry="0.42" transform="translate(-20.55 224.99) rotate(-55.66)"/><ellipse class="cls-12" cx="204.75" cy="129.4" rx="0.42" ry="0.14" transform="translate(-7.63 245.86) rotate(-61.03)"/><ellipse class="cls-12" cx="204.39" cy="130.45" rx="0.29" ry="0.1" transform="translate(-8.74 246.08) rotate(-61.03)"/><ellipse class="cls-12" cx="203.85" cy="131.25" rx="0.29" ry="0.1" transform="translate(-9.71 246.03) rotate(-61.03)"/><ellipse class="cls-12" cx="203.26" cy="131.78" rx="0.29" ry="0.1" transform="translate(-10.48 245.78) rotate(-61.03)"/><ellipse class="cls-12" cx="202.58" cy="132.08" rx="0.25" ry="0.08" transform="translate(-11.09 245.34) rotate(-61.03)"/><path class="cls-2" d="M198.15,83.81a9.58,9.58,0,0,0-5.12,10s-3.16-.36-2.59,3.38a2.72,2.72,0,0,0,3.1,2.27,2.37,2.37,0,0,0,.46-.11s1.28,5,4.25,6.73,4.92,1.23,6.63.32,4.34-5.69,4.46-7.59c0,0,2.61,1.47,3.66-2.1,0,0,.89-3.17-2.61-2.81,0,0,.58-7.79-4.67-9.85C200.71,82.11,198.15,83.81,198.15,83.81Z"/><g class="cls-13"><path d="M192.92,93.58v.1s.84-3.56,2.32-5.26a2.16,2.16,0,0,1,1.94-.92c1.14.21,3,.85,9.3-.13,0,0,1.19-.51,2.12,1.29a29.85,29.85,0,0,1,1.72,4.86,4.66,4.66,0,0,0,1.09-1.58c.09-.58.7-5,.7-5l-1.44-3.55-3-1.56s.46-.55-3.84-.26,1.1-1.33-3.66.13-3.15.78-3.15.78l-6.67,6.07"/></g><path class="cls-14" d="M198.89,103.07l-.65.08,1.09.61,2.37,1,2.67-.79.46-.81.41-.29-2.41-.48-3.27.35Z"/><path class="cls-15" d="M195.48,95.76a2,2,0,0,1,2-1.55c1.62.08,2.25.84,2.34,1.43a1.57,1.57,0,0,1-1.08,1.94,1.15,1.15,0,0,1-.37.06C196.78,97.87,195.46,97.56,195.48,95.76Z"/><g class="cls-16"><circle class="cls-17" cx="196.51" cy="96.52" r="1.32"/><circle cx="196.51" cy="96.52" r="0.88"/><circle class="cls-15" cx="195.85" cy="96.14" r="0.46"/></g><path class="cls-17" d="M199.75,99.78s.4.67,1.9.59,1.89-.79,1.87-.79a3,3,0,0,0-1.85-2C200.22,97.16,199.75,99.78,199.75,99.78Z"/><path class="cls-15" d="M207.61,95.13a1.93,1.93,0,0,0-2.11-1.34c-1.59.24-2.14,1.07-2.18,1.67a1.57,1.57,0,0,0,1.3,1.81,1.62,1.62,0,0,0,.38,0C206.53,97.36,207.81,96.91,207.61,95.13Z"/><g class="cls-18"><circle class="cls-17" cx="204.34" cy="96.03" r="1.32"/><circle cx="204.34" cy="96.03" r="0.88"/><circle class="cls-15" cx="203.67" cy="95.65" r="0.46"/></g><path d="M195.44,92.75a3,3,0,0,1,2.63-1,3.13,3.13,0,0,1,2.34,1s.37.43-.26.35a6.84,6.84,0,0,0-4.51,0S195.2,93.18,195.44,92.75Z"/><path class="cls-15" d="M199.79,103a4.35,4.35,0,0,0,4.2,0l-2.12-.38Z"/><path d="M203.39,92.07a3.2,3.2,0,0,1,2.56-1,3.17,3.17,0,0,1,2.49.94c.14.19.07.43-.38.34a7.74,7.74,0,0,0-4.32,0S203.14,92.48,203.39,92.07Z"/><path class="cls-19" d="M198.14,103.12a8.07,8.07,0,0,1,2.86-1,5.93,5.93,0,0,1,3.25.35,3.9,3.9,0,0,0,1,.38S200.15,103.49,198.14,103.12Z"/><path class="cls-19" d="M198.14,103.12a2.2,2.2,0,0,1,.85.86,2.31,2.31,0,0,0,2.17,1.52,3.39,3.39,0,0,0,3-1.08c.72-.81.45-1.24,1.05-1.56a14.38,14.38,0,0,1-1.8.78,5.78,5.78,0,0,1-3.85,0Z"/><path class="cls-17" d="M192.67,94.83a2.38,2.38,0,0,1,1.13,1.77,2,2,0,0,1-.77,1.72,2.55,2.55,0,0,0,.32-1.46,1.64,1.64,0,0,1-1.68-.13s1.44-.06,1.52-.44A2.43,2.43,0,0,0,192.67,94.83Z"/><path class="cls-17" d="M210.64,94.62a2.24,2.24,0,0,0-1.22,1.61A1.73,1.73,0,0,0,210,98a4.31,4.31,0,0,1-.12-1.43,1.73,1.73,0,0,0,1.68,0s-1.24,0-1.5-.59A2.55,2.55,0,0,1,210.64,94.62Z"/><path d="M193,93.25a15.74,15.74,0,0,1-2.85-3.45s.6-1.18,3.49-1.57c0,0-1.23-3.61-.73-4.73,0,0,1.47-.5,3.74,1,0,0,.23-3.7,2-4.23a5.1,5.1,0,0,1,3.13,2.86l-1,2.19S194.84,87,195,87.15s-1.67,2.53-1.54,2.7A26,26,0,0,1,193,93.25Z"/><path d="M210.32,93.47a16.3,16.3,0,0,0,3.22-4.08s-.26-1.24-3.37-1.32c0,0,1.2-3.82.55-4.88,0,0-1.13-.31-3.38,1.44,0,0-.64-3.65-2.61-4a5.32,5.32,0,0,0-3,3.18l1.35,2.06s4.11,1.38,5.23,1.27A8.75,8.75,0,0,1,209.45,90,25.52,25.52,0,0,0,210.32,93.47Z"/><path class="cls-2" d="M195.57,88.63a12.46,12.46,0,0,1-1.6-.28l1,1,.89-.36"/><polyline class="cls-2" points="207.73 88.7 209.68 88.25 208.54 89.39"/></svg>