<svg id="_11" data-name="11" xmlns="http://www.w3.org/2000/svg" xmlns:xlink="http://www.w3.org/1999/xlink" viewBox="0 0 260 168"><defs><style>.cls-1{fill:#845633;}.cls-2{fill:#fff;}.cls-3{fill:#1a5686;}.cls-4{fill:#774828;}.cls-5{fill:#9e633b;}.cls-6{fill:#144e75;}.cls-7{fill:#cfeaa8;}.cls-8{clip-path:url(#clip-path);}.cls-9{fill:#4f2821;}.cls-10{fill:#64340f;}.cls-11{clip-path:url(#clip-path-2);}</style><clipPath id="clip-path"><path class="cls-1" d="M31.07,59.19s-4.29.81-5.95,4.07S24,68,24.37,70.18s.55,2.69-.36,4.29S25.62,76,25.62,76s.25,2.42.36,2.61c0,0,2.35-.82,2.93-1.09a7,7,0,0,1-2.39,2.06,2.46,2.46,0,0,0,.36.91,2.77,2.77,0,0,1,.35,1s.24,1.37,3,.71,4-.64,7.53-4.47c0,0,5-3.46,4.89-9S39.9,60.6,36,59.34,31.07,59.19,31.07,59.19Z"/></clipPath><clipPath id="clip-path-2"><path class="cls-2" d="M25.83,70.94a2,2,0,0,1,1.87-1.66c1.62,0,2.29.71,2.42,1.29a1.57,1.57,0,0,1-1.33,2.08C27.26,73,25.92,72.74,25.83,70.94Z"/></clipPath></defs><path class="cls-1" d="M35.08,86.52l-2.65,1.94a53.1,53.1,0,0,1-6,1.24c-2.91-1.82-3.23-1.15-3.23-1.15-.46.44.6,1.4.6,1.4s.05.18.05.18-3.6-1-3.78-.35,2.62,1.61,2.62,1.61c-3.26.08-3.7.88-3.7.88.21.78,3.86.94,3.86.94.28.05.08.17.08.17-2.56,1-2.19,1.54-2.19,1.54.37.64,3-.52,3.33-.66s.33.14.33.14c-1.41,1.9-.79,1.95-.79,1.95.75.29,3.35-2.69,3.35-2.69l3.53-1.4c.83-.33,1.79-.78,2.78-1.27a12,12,0,0,0,2.63-3Z"/><path class="cls-1" d="M31.82,88.75a16.09,16.09,0,0,0,3.32-3.63s1-1.23,1.77-1.22c0,0,1.05-.05,1,.87A65.91,65.91,0,0,1,33.6,90.6"/><path class="cls-3" d="M39.22,83.82A1.88,1.88,0,0,0,36.81,82c-1.53.38-3.93,4.68-3.93,4.68C33.3,87.82,36,89,36,89c1.38-.45,3.14-4.42,3.14-4.42Z"/><path class="cls-3" d="M46.28,94.25a2.77,2.77,0,0,1,.62,1.06,5.53,5.53,0,0,1,.16,1.07,5.1,5.1,0,0,1-.55,3.37,14.89,14.89,0,0,0-1.35-3,1.74,1.74,0,0,1-.32-.8,1.24,1.24,0,0,1,.48-.88c.26-.22.56-.38.83-.6a.32.32,0,0,1-.1.26"/><path class="cls-1" d="M35.23,90.81c.17-.48.34-1,.5-1.48a16.62,16.62,0,0,0,.91-5s.14-1.55.84-2c0,0,.86-.61,1.26.23a64.84,64.84,0,0,1-.51,7.57l0,.24c-.06.48-.12.95-.19,1.39,0,0,.14,1.21-1.72,1.69-.1,0-.11-.12-.11-.12l-.82-1.47Z"/><rect class="cls-1" x="34.38" y="77.25" width="3.36" height="4.73" transform="translate(-28.23 20.4) rotate(-22.98)"/><path class="cls-3" d="M36.36,82.28a1.88,1.88,0,0,1,3,.41c.81,1.34-.51,6.09-.51,6.09-1.1.51-3.86-.57-3.86-.57-.66-1.29.89-5.35.89-5.35Z"/><path class="cls-3" d="M40.19,83.21a1.88,1.88,0,0,0-2.81-1.11c-1.37.77-2.55,5.55-2.55,5.55.72,1,3.65,1.4,3.65,1.4,1.21-.8,1.85-5.1,1.85-5.1Z"/><path class="cls-4" d="M45.73,104.08l7.68,4.2.29-.47a6.88,6.88,0,0,0,.56-1.3c.85-2.53.43-2.57.43-2.57-.83-.47-8.46-3.5-8.46-3.5L45.5,104Z"/><path class="cls-4" d="M53,108.42s-.09,3.18.45,4.22,2.51-2.55,3.26-6.17c.66-3.11-1.2-2.39-2.26-2.44"/><ellipse class="cls-5" cx="53.96" cy="111.99" rx="0.29" ry="0.11" transform="translate(-69.62 98.5) rotate(-58.04)"/><path class="cls-4" d="M54.69,103.86a3.83,3.83,0,0,1,1,.54l-1.15,1-1.06-.53.36-.94Z"/><path class="cls-6" d="M39.12,98.62l4.25,6.69a1.17,1.17,0,0,0,1.17.54A7.68,7.68,0,0,0,49.19,102c.18-.32-.51-1.81-.67-2.15-.76-1.65-2.46-5.12-4.58-6.83S39.71,95.88,39,97.54A1.18,1.18,0,0,0,39.12,98.62Z"/><path class="cls-1" d="M35.22,100.27c-.11.32-3.44,6.72-4.23,8.21a1.92,1.92,0,0,0,1.66,2c1.83.48,2.05.21,2.05.21.45-.84,4.17-10,4.17-10L35.32,100"/><path class="cls-1" d="M31.75,106.71s-3.34-.69-4.47-.36,2,3,5.43,4.38c3.19,1.34,2.5-1.09,2.91-2"/><ellipse class="cls-5" cx="27.9" cy="106.65" rx="0.11" ry="0.29" transform="translate(-81.23 91.07) rotate(-67.21)"/><path class="cls-3" d="M40.73,94.28l-6.3,4.81A1.14,1.14,0,0,0,34,100.3c.29,1.15,3.67,2.07,6.19,3.21.34.15.2.41.53.22a19.43,19.43,0,0,0,6-5.12c1.5-2.22-3.23-4-4.94-4.52A1.2,1.2,0,0,0,40.73,94.28Z"/><path class="cls-7" d="M34.28,82.52c-1.4,1.72,1.24,11.5,1.78,13.13s5.13,3.49,8.91,1.29-1-9.76-2.59-13.39S37,79.15,34.28,82.52Z"/><polygon class="cls-7" points="34.42 81.62 34.28 82.52 35.4 82.55 34.42 81.62"/><polygon class="cls-3" points="38.24 79.66 34.42 81.62 35.53 82.99 39.34 80.62 38.24 79.66"/><path class="cls-1" d="M42.88,83.71l3.06,1.18a54.52,54.52,0,0,1,4.28,4.37c0,3.44.78,3.34.78,3.34.6.15.84-1.26.84-1.26.06-.18.13-.14.13-.14s1.11,3.56,1.74,3.37-.05-3.06-.05-3.06c1.82,2.7,2.73,2.63,2.73,2.63.54-.6-1.28-3.76-1.28-3.76-.11-.26.09-.16.09-.16,2.2,1.64,2.48,1,2.48,1,.34-.66-2.06-2.25-2.35-2.45s-.06-.35-.06-.35c2.36.15,2.07-.39,2.07-.39-.17-.79-4.08-1.37-4.08-1.37l-3.08-2.21c-.73-.52-1.62-1.1-2.57-1.66a12,12,0,0,0-4-.58Z"/><path class="cls-1" d="M46.52,85.25a16,16,0,0,0-4.85-.84s-1.56-.13-2-.83c0,0-.62-.86.21-1.26a62.87,62.87,0,0,1,7.21.43"/><path class="cls-3" d="M38.36,81.68a1.89,1.89,0,0,0-.23,3c1.15,1.07,6.06.78,6.06.78.74-1,.26-3.89.26-3.89-1.12-.92-5.42-.26-5.42-.26Z"/><path class="cls-1" d="M31.07,59.19s-4.29.81-5.95,4.07S24,68,24.37,70.18s.55,2.69-.36,4.29S25.62,76,25.62,76s.25,2.42.36,2.61c0,0,2.35-.82,2.93-1.09a7,7,0,0,1-2.39,2.06,2.46,2.46,0,0,0,.36.91,2.77,2.77,0,0,1,.35,1s.24,1.37,3,.71,4-.64,7.53-4.47c0,0,5-3.46,4.89-9S39.9,60.6,36,59.34,31.07,59.19,31.07,59.19Z"/><g class="cls-8"><path d="M23.82,63.87a16.21,16.21,0,0,1,6-1.8c3.41-.27,4.78.23,5.26,1.11s.69,1.82.71,4.24,0,2.17.27,2.46c0,0,.57-1.35,1.67-1.38s2.14-.12,2.47,1.31a4.56,4.56,0,0,1-2.07,4.76S39,77.71,41,76.44l.32,1.45L45.71,76l2.48-2.53L49.38,61.1,45.2,57.51l-8.5-1.29-8.48,1-3.45,1.22-1.09,1.85-1.35,3"/></g><path class="cls-9" d="M38.15,69.16a2.11,2.11,0,0,0-1,2.12c.12,1.58,1.16,1.66,1.16,1.66a2.69,2.69,0,0,1-.58-1.61A1.61,1.61,0,0,0,39.62,71a3.8,3.8,0,0,1-1.76-.22A2.6,2.6,0,0,1,38.15,69.16Z"/><path class="cls-10" d="M25.56,77.93s.14-.34,1.21-.41a16.42,16.42,0,0,0,2.34-.08,7.34,7.34,0,0,1-2.69,1.39C25.16,79.06,25.56,77.93,25.56,77.93Z"/><path class="cls-10" d="M29.11,77.43a2.92,2.92,0,0,1-1.95,2.38A1.08,1.08,0,0,1,26,79.75c-.55-.45.31-.74.81-1A17.26,17.26,0,0,0,29.11,77.43Z"/><path d="M36,69.88a26.47,26.47,0,0,0-1-3.39S33.53,65,34.11,63.6c0,0,.56-1.14-.28-1.33,0,0,1-1.26,1.41-1.11s2.49.69,2.49.69l1.34,1.36.57,1.28Z"/><path class="cls-2" d="M25.83,70.94a2,2,0,0,1,1.87-1.66c1.62,0,2.29.71,2.42,1.29a1.57,1.57,0,0,1-1.33,2.08C27.26,73,25.92,72.74,25.83,70.94Z"/><g class="cls-11"><circle class="cls-9" cx="26.87" cy="71.94" r="1.32"/><circle cx="26.87" cy="71.94" r="0.88"/><circle class="cls-2" cx="26.19" cy="71.6" r="0.46"/></g><path d="M30.07,67.44a3,3,0,0,0-2.76-.54,3.08,3.08,0,0,0-2.15,1.34s-.3.48.31.29a7,7,0,0,1,4.46-.72S30.38,67.82,30.07,67.44Z"/><polygon class="cls-1" points="33.77 63.84 38.16 62.71 33.92 64.84 33.77 63.84"/><path d="M42.45,63.56s1.77,1.25,2,2.44-1.49,4.93-2,5.28-2.37-4.61-2.37-4.61l-2.33-5.32-7.53-1.89a42,42,0,0,1,5.57-2.13c1.09-.12,3.22,2.84,3.22,2.84a36.31,36.31,0,0,1,3.89,0C44.24,60.34,42.45,63.56,42.45,63.56Z"/></svg>