<svg id="_2" data-name="2" xmlns="http://www.w3.org/2000/svg" xmlns:xlink="http://www.w3.org/1999/xlink" viewBox="0 0 260 168"><defs><style>.cls-1{fill:#845633;}.cls-2{fill:#fff;}.cls-3{fill:#1a5686;}.cls-4{fill:#cfeaa8;}.cls-5{clip-path:url(#clip-path);}.cls-6{fill:#620100;}.cls-7{clip-path:url(#clip-path-2);}.cls-8{fill:#4f2821;}.cls-9{clip-path:url(#clip-path-3);}.cls-10{fill:#64340f;}.cls-11{fill:#114d75;}.cls-12{clip-path:url(#clip-path-4);}.cls-13{fill:#7c4c2c;}.cls-14{fill:#9b633d;}</style><clipPath id="clip-path"><path class="cls-1" d="M143.53,53.89a15.85,15.85,0,0,0-9.33,16S129,69,129.63,75.26c0,0,.58,4.95,5.6,4,0,0,1.69,8.34,6.45,11.49s8,2.47,10.93,1.11,7.67-9,8-12.17c0,0,4.2,2.66,6.24-3.15,0,0,1.74-5.17-4.07-4.87,0,0,1.64-12.83-6.86-16.69C147.92,51.29,143.53,53.89,143.53,53.89Z"/></clipPath><clipPath id="clip-path-2"><path class="cls-2" d="M138.07,73.42a3.24,3.24,0,0,1,3.37-2.4c2.67.27,3.64,1.59,3.75,2.57a2.6,2.6,0,0,1-2.57,3.17C140.05,77,137.9,76.39,138.07,73.42Z"/></clipPath><clipPath id="clip-path-3"><path class="cls-2" d="M158.19,73.42a3.24,3.24,0,0,0-3.37-2.4c-2.66.27-3.63,1.59-3.74,2.57a2.59,2.59,0,0,0,2.57,3.17C156.22,77,158.37,76.39,158.19,73.42Z"/></clipPath><clipPath id="clip-path-4"><path class="cls-1" d="M126.92,101.43s-6.71.71-8.82,1.53-2,3.78-1.56,5.55,3.13,2.2,5.53,2.86,4.63,1,5.63-.43a11.12,11.12,0,0,0,1.22-4.31S130.76,103,126.92,101.43Z"/></clipPath></defs><rect class="cls-1" x="144.68" y="89.04" width="5.63" height="8.44" transform="translate(295 186.53) rotate(180)"/><path class="cls-1" d="M147.23,96.66a106,106,0,0,0,6.17,15.23l2.72,5s.11,6,1.26,6.39c0,0,.75.54,1-3,0,0,.26-.31.51.16s2.15,4.39,3.21,4c0,0,1-.29-1-3.91,0,0-.12-.33.26-.11,0,0,4.38,3.36,5.38,2.67,0,0,.28-1.36-3.41-4.63,0,0,4.18,1.6,4.58.69s-4.71-3.27-4.71-3.27-.05-.12.23-.16c0,0,2.16-.09,2.06-1,0,0,.29-1.09-4.86-1.82,0,0-8.07-9-9.53-14.61,0,0-.88-2.19-2.09-2.49C149,95.79,147.45,95.28,147.23,96.66Z"/><path class="cls-3" d="M146.77,97.41c.91-3.45,4.12-2,4.12-2,2.14,1,4.46,8.09,4.46,8.09-1,1.58-5.33,2.52-5.33,2.52-1.91-1.07-3.37-7.48-3.37-7.48Z"/><ellipse class="cls-1" cx="158.6" cy="123.35" rx="5.64" ry="4.74" transform="translate(-19.41 30.17) rotate(-10.24)"/><path class="cls-3" d="M139.06,119s-2.06,8.23,1.87,10.94,4.5,1.36,8.57,1.47,11.65-2.8,12.1-6.09-1.08-5.31-4-6.32-9.89,2.25-9.89,2.25Z"/><path class="cls-4" d="M150.91,95.77c2.74,1.91,4.12,20.81,4,23.4s-7.11,3.65-13.53,2-2.63-14.61-1.83-20.55S145.52,92,150.91,95.77Z"/><polygon class="cls-4" points="150.32 94.53 150.91 95.77 149.29 96.28 150.32 94.53"/><polygon class="cls-3" points="143.96 93.28 150.32 94.53 149.29 96.97 142.75 95.12 143.96 93.28"/><path class="cls-1" d="M168.3,127.33c0,3.49-3,3.92-7,4.09s-7.2-1.41-7.29-3.51,3-3.93,7-4.09S168.35,122.39,168.3,127.33Z"/><ellipse class="cls-1" cx="167.32" cy="124.42" rx="0.96" ry="1.67" transform="translate(36.63 286.89) rotate(-87.82)"/><ellipse class="cls-1" cx="168.16" cy="125.98" rx="1.15" ry="0.8" transform="translate(-2.51 3.42) rotate(-1.16)"/><ellipse class="cls-1" cx="168.22" cy="127.28" rx="1.02" ry="0.71" transform="translate(-2.53 3.42) rotate(-1.16)"/><ellipse class="cls-1" cx="167.84" cy="128.44" rx="1.02" ry="0.71" transform="matrix(1, -0.02, 0.02, 1, -2.56, 3.41)"/><ellipse class="cls-1" cx="167.44" cy="129.43" rx="1.02" ry="0.71" transform="translate(-2.58 3.4) rotate(-1.16)"/><path class="cls-1" d="M143.53,53.89a15.85,15.85,0,0,0-9.33,16S129,69,129.63,75.26c0,0,.58,4.95,5.6,4,0,0,1.69,8.34,6.45,11.49s8,2.47,10.93,1.11,7.67-9,8-12.17c0,0,4.2,2.66,6.24-3.15,0,0,1.74-5.17-4.07-4.87,0,0,1.64-12.83-6.86-16.69C147.92,51.29,143.53,53.89,143.53,53.89Z"/><g class="cls-5"><path d="M134,69.59l.07.17s1.7-5.82,4.28-8.51c0,0,1.42-1.78,3.29-1.34s5,1.67,15.4.58c0,0,2-.73,3.38,2.33A48.56,48.56,0,0,1,162.87,71s1.84-1.64,1.94-2.51,1.6-8.29,1.6-8.29l-2.07-6-4.83-2.84s.8-.87-6.33-.76,1.93-2.11-6.07-.11-5.27,1-5.27,1L130.27,61"/></g><path class="cls-6" d="M143.08,85.8a5.17,5.17,0,0,0-.88.27l1.54.9,3.84,1.84,4.49-1.07.82-1.29.23-.38L149.66,85l-5.44.3Z"/><path class="cls-2" d="M138.07,73.42a3.24,3.24,0,0,1,3.37-2.4c2.67.27,3.64,1.59,3.75,2.57a2.6,2.6,0,0,1-2.57,3.17C140.05,77,137.9,76.39,138.07,73.42Z"/><g class="cls-7"><circle class="cls-8" cx="141" cy="74.82" r="2.18"/><circle cx="141" cy="74.82" r="1.45"/><circle class="cls-2" cx="139.94" cy="74.12" r="0.76"/></g><path class="cls-8" d="M144.8,80.43s.6,1.14,3.09,1.14,3.19-1.14,3.16-1.14A5.1,5.1,0,0,0,148.16,77C145.8,76.13,144.8,80.43,144.8,80.43Z"/><path class="cls-2" d="M158.19,73.42a3.24,3.24,0,0,0-3.37-2.4c-2.66.27-3.63,1.59-3.74,2.57a2.59,2.59,0,0,0,2.57,3.17C156.22,77,158.37,76.39,158.19,73.42Z"/><g class="cls-9"><circle class="cls-8" cx="153.98" cy="74.69" r="2.18"/><circle cx="153.98" cy="74.69" r="1.45"/><circle class="cls-2" cx="152.92" cy="74" r="0.76"/></g><path d="M138.28,68.44a5,5,0,0,1,4.43-1.4c2.93.41,3.78,1.81,3.78,1.81s.58.74-.46.54-3.18-1.53-7.45-.38C138.58,69,137.84,69.12,138.28,68.44Z"/><path class="cls-2" d="M144.58,85.8a7.21,7.21,0,0,0,6.94.31l-3.47-.82Z"/><path d="M151.48,68a5.32,5.32,0,0,1,4.32-1.39c2.79.27,3.81,1.45,4,1.78s.08.71-.66.52a12.93,12.93,0,0,0-7.15-.35S151,68.66,151.48,68Z"/><path class="cls-10" d="M142,85.77a12,12,0,0,1,4.64-1.35,10,10,0,0,1,5.35.87,6.65,6.65,0,0,0,1.6.71S145.29,86.56,142,85.77Z"/><path class="cls-10" d="M141.84,85.81a3.68,3.68,0,0,1,1.33,1.49,3.78,3.78,0,0,0,3.45,2.7c2.43.25,3.83-.24,5.1-1.51s.94-1.83,2-2.29c0,0-1.87.6-3.11.93a9.63,9.63,0,0,1-6.38-.35Z"/><path class="cls-8" d="M133.51,71.63a4,4,0,0,1,1.72,3,3.32,3.32,0,0,1-1.42,2.78,4.49,4.49,0,0,0,.66-2.39s-1.75.71-2.78-.37c0,0,2.39,0,2.56-.59A4.06,4.06,0,0,0,133.51,71.63Z"/><path class="cls-8" d="M163.25,72.84a3.72,3.72,0,0,0-2.16,2.55,2.83,2.83,0,0,0,.84,2.93,7.13,7.13,0,0,1-.08-2.36,2.92,2.92,0,0,0,2.78.22s-2-.2-2.43-1.11A4.26,4.26,0,0,1,163.25,72.84Z"/><path d="M134.22,69a26.17,26.17,0,0,1-4.41-5.94s1.09-1.9,5.9-2.3c0,0-1.72-6.08-.8-7.89,0,0,2.48-.69,6.1,2,0,0,.7-6.1,3.73-6.81a8.35,8.35,0,0,1,4.91,5l-1.92,3.54s-9.95,2.27-9.75,2.48-3,4.05-2.78,4.33S134.22,69,134.22,69Z"/><path d="M162.82,70.92a27.08,27.08,0,0,0,5.68-6.48S168.18,62.37,163,62c0,0,2.31-6.21,1.33-8,0,0-1.84-.61-5.71,2.1,0,0-.74-6.1-4-6.81a8.76,8.76,0,0,0-5.25,5l2.05,3.54s6.67,2.62,8.54,2.55c.31,0,1.87,4.46,1.65,4.74S162.82,70.92,162.82,70.92Z"/><path class="cls-1" d="M138.85,61.63a19.78,19.78,0,0,1-2.62-.61l1.55,1.78,1.49-.51"/><polyline class="cls-1" points="158.95 62.8 162.22 62.22 160.23 64.01"/><path class="cls-3" d="M146,102a4.92,4.92,0,1,1-9.81,0c0-2.91,2.37-3.95,4.91-5.26C143.06,95.69,146,99.05,146,102Z"/><circle class="cls-11" cx="140.49" cy="102.96" r="4.26"/><path class="cls-1" d="M139.88,98a11.73,11.73,0,0,0-3.75.7c-2.59.8-9.21,2.69-9.21,2.69s-4,4-1.12,7.66c0,0,12.1-3.87,12.6-4s4.68-.5,5.13-3.73S139.88,98,139.88,98Z"/><path class="cls-1" d="M126.92,101.43s-6.71.71-8.82,1.53-2,3.78-1.56,5.55,3.13,2.2,5.53,2.86,4.63,1,5.63-.43a11.12,11.12,0,0,0,1.22-4.31S130.76,103,126.92,101.43Z"/><g class="cls-12"><path class="cls-13" d="M117.69,107a8.58,8.58,0,0,0,3,2,4,4,0,0,1,.92.52,1,1,0,0,1,.41.93,1.21,1.21,0,0,1-.48.72,4.86,4.86,0,0,1-2.9.8,27.07,27.07,0,0,1-5.32-.32,1.87,1.87,0,0,1-.74-.22,1.49,1.49,0,0,1-.58-.75c-.53-1.36.19-2.92,1.18-4a24.86,24.86,0,0,1,3.16-2.92A6.42,6.42,0,0,0,117.69,107Z"/></g><path class="cls-1" d="M122.6,106.57s-8.62,1.76-9.57,2.29-.88,2,1.71,2.18c3.6.33,10.7-2.49,10.7-2.49Z"/><ellipse class="cls-14" cx="114.25" cy="109.53" rx="0.54" ry="0.84" transform="translate(-42.63 130.49) rotate(-51.4)"/></svg>