<svg id="_2" data-name="2" xmlns="http://www.w3.org/2000/svg" xmlns:xlink="http://www.w3.org/1999/xlink" viewBox="0 0 260 168"><defs><style>.cls-1{fill:#fff;}.cls-2{fill:#845633;}.cls-3{fill:#1a5686;}.cls-4{fill:#774828;}.cls-5{fill:#9e633b;}.cls-6{fill:#144e75;}.cls-7{fill:#cfeaa8;}.cls-8{fill:#835633;}.cls-9{fill:#663711;}.cls-10{fill:#4f2821;}.cls-11{clip-path:url(#clip-path);}</style><clipPath id="clip-path"><ellipse class="cls-1" cx="95.78" cy="113.55" rx="2.6" ry="2" transform="translate(-26.51 29.21) rotate(-15.26)"/></clipPath></defs><rect class="cls-2" x="90.38" y="120" width="2.98" height="4.21" transform="translate(168.35 254.39) rotate(-173.07)"/><path class="cls-2" d="M91.34,124.86a64.09,64.09,0,0,0,1,9.62l.7,3.29s-.93,3.4-.35,3.81c0,0,.34.43,1.06-1.54,0,0,.2-.14.26.17s.5,2.83,1.16,2.79c0,0,.6,0,.06-2.38,0,0,0-.2.16,0,0,0,1.92,2.62,2.6,2.39,0,0,.38-.71-1.17-3.17,0,0,2.1,1.59,2.48,1.15s-2.12-2.63-2.12-2.63,0-.07.16-.05c0,0,1.23.31,1.33-.24,0,0,.34-.57-2.44-1.82,0,0-3.07-6.39-3-9.82,0,0-.14-1.38-.77-1.75C92.46,124.66,91.69,124.12,91.34,124.86Z"/><path class="cls-3" d="M91,125.9a1.67,1.67,0,0,1,2.62-.61c1.1.86,1.51,5.22,1.51,5.22-.76.78-3.39.75-3.39.75-.95-.86-.95-4.72-.95-4.72Z"/><path class="cls-4" d="M93.17,144.29c-.19.29-3.28,7.37-3.28,7.37a12.33,12.33,0,0,1,2,3.23c.18,1-3.15-.46-5.63-2.61s.22-2.47.55-3.25,4.09-7,4.09-7l2.42,2.1"/><ellipse class="cls-5" cx="91.35" cy="154.52" rx="0.1" ry="0.26" transform="translate(-85.18 122) rotate(-48.97)"/><path class="cls-6" d="M94.3,137.67l.49,7a1,1,0,0,1-.56,1,5.8,5.8,0,0,1-5.1.13,1,1,0,0,1-.58-.73c-.33-1.59-1.27-6.55-.66-8.89s4.54-.18,5.91.64A1,1,0,0,1,94.3,137.67Z"/><path class="cls-2" d="M96.12,145.29c0,.34-.39,8.06-.39,8.06A12.23,12.23,0,0,1,99.12,155c.7.76-2.9,1.31-6.15.84s-1.15-2.19-1.29-3,1.25-8.23,1.25-8.23l3.17.46"/><ellipse class="cls-5" cx="98.5" cy="154.96" rx="0.1" ry="0.26" transform="matrix(0.14, -0.99, 0.99, 0.14, -69.01, 230.17)"/><path class="cls-3" d="M95.19,138.35l1.71,6.84a1,1,0,0,1-.38,1.08,5.82,5.82,0,0,1-5,1,1,1,0,0,1-.7-.62c-.6-1.5-2.4-6.23-2.2-8.64s4.44-1,5.93-.4A1.05,1.05,0,0,1,95.19,138.35Z"/><path class="cls-7" d="M94.1,124.14c1.62,1.12,2.43,12.23,2.36,13.75s-4.17,2.15-7.94,1.19S87,130.5,87.44,127,90.94,121.94,94.1,124.14Z"/><polygon class="cls-7" points="93.76 123.41 94.11 124.14 93.15 124.44 93.76 123.41"/><polygon class="cls-3" points="90.02 122.67 93.76 123.41 93.15 124.85 89.31 123.76 90.02 122.67"/><path class="cls-2" d="M88.89,124.66a62.49,62.49,0,0,0-1.76,9.49l-.25,3.36s-1.84,3-1.4,3.56c0,0,.2.51,1.45-1.18,0,0,.23-.07.2.24s-.32,2.85.33,3c0,0,.58.16.72-2.27,0,0,0-.2.16,0,0,0,1.11,3.05,1.83,3,0,0,.56-.58-.23-3.37,0,0,1.56,2.11,2,1.79s-1.3-3.11-1.3-3.11,0-.07.17,0c0,0,1.1.64,1.34.15,0,0,.49-.45-1.83-2.44,0,0-1.16-7-.1-10.25,0,0,.26-1.36-.24-1.9C90,124.77,89.44,124,88.89,124.66Z"/><path class="cls-3" d="M88.43,124.88a1.67,1.67,0,0,1,2.67.32c.74,1.18-.35,5.42-.35,5.42-1,.47-3.44-.44-3.44-.44-.61-1.14.7-4.77.7-4.77Z"/><path d="M96.11,105.35s-1.07-1.68-4-1.53-5.74-.35-6.28-.07A5.63,5.63,0,0,0,84,107s-2.87.85-3.21,1.3.16,1.53,1.48,2.56c0,0-1.55,1.68-.91,2.81A23.54,23.54,0,0,0,84,116.83s2,3.68,5.06,3.38,2.74-12.72,2.74-12.72Z"/><path class="cls-8" d="M96.11,105.35s1.92.86,2.47,4.25,1.45,3.91,2.27,4.89c0,0,.36.41-.34,1s-.92.48-.53,1.11c0,0,.36,1-.32,1.25a3.93,3.93,0,0,1-2.08-.18,4.19,4.19,0,0,0,1.9,1.22s.3.09.19.51S96,125,89.08,120.21l0-1.65s-2.9-.83-3.1-3.27,2.36-2,3.28-1.19c0,0,.2-.16-.15-1.36s.61-3.32.32-3.42-3.88-.41-3.88-.41a17.46,17.46,0,0,0,3.48-.58.69.69,0,0,1-.23-1.09C89.35,106.52,93.22,105,96.11,105.35Z"/><path class="cls-9" d="M97.48,117.63s2.4-1.38,2.78-.69S99.89,118.22,97.48,117.63Z"/><path class="cls-9" d="M97.49,117.61a11.34,11.34,0,0,0,2,.87c.76.19.62.39.53.65s-.84.64-1.65-.1A2.28,2.28,0,0,1,97.49,117.61Z"/><path class="cls-10" d="M87.57,114.12a1.88,1.88,0,0,1,1.2,1.25,1.73,1.73,0,0,1-.36,1.92,5.5,5.5,0,0,0-.09-1.4s-1.06.68-1.58.17a3.06,3.06,0,0,0,1.3-.69A5.37,5.37,0,0,0,87.57,114.12Z"/><path d="M97,110.07a4,4,0,0,0-2,0,9.93,9.93,0,0,0-1.71.69c-.32.08-.28-.59.51-1.2a4,4,0,0,1,2.8-.36C97.25,109.33,98,109.91,97,110.07Z"/><ellipse class="cls-1" cx="95.78" cy="113.55" rx="2.6" ry="2" transform="translate(-26.51 29.21) rotate(-15.26)"/><g class="cls-11"><circle class="cls-10" cx="96.91" cy="112.91" r="1.47"/><circle cx="96.91" cy="112.91" r="0.94"/><circle class="cls-1" cx="97.39" cy="111.84" r="0.6"/></g></svg>