<svg xmlns="http://www.w3.org/2000/svg" xmlns:xlink="http://www.w3.org/1999/xlink" viewBox="0 0 260 168"><defs><style>.cls-1{fill:#845633;}.cls-2{fill:#fff;}.cls-3{fill:#1a5686;}.cls-4{fill:#774828;}.cls-5{fill:#9e633b;}.cls-6{fill:#144e75;}.cls-7{fill:#cfeaa8;}.cls-8{clip-path:url(#clip-path);}.cls-9{fill:#4f2821;}.cls-10{fill:#64340f;}.cls-11{clip-path:url(#clip-path-2);}</style><clipPath id="clip-path"><path class="cls-1" d="M56.33,63.08s-4.3.71-6,3.93-1.21,4.71-.91,6.91.49,2.7-.46,4.27,1.57,1.56,1.57,1.56.2,2.42.29,2.61c0,0,2.38-.76,3-1a7,7,0,0,1-2.43,2,2.23,2.23,0,0,0,.34.91,2.7,2.7,0,0,1,.32,1s.21,1.38,3,.79,4-.55,7.63-4.3c0,0,5.09-3.35,5.09-8.91s-2.59-8.17-6.45-9.52S56.33,63.08,56.33,63.08Z"/></clipPath><clipPath id="clip-path-2"><path class="cls-2" d="M50.83,74.71a1.94,1.94,0,0,1,1.9-1.62c1.62,0,2.28.76,2.4,1.35a1.58,1.58,0,0,1-1.39,2C52.21,76.77,50.88,76.51,50.83,74.71Z"/></clipPath></defs><g id="_7" data-name="7"><path class="cls-1" d="M57.72,93.78c.3-.41.61-.84.9-1.28A16.08,16.08,0,0,0,61,88s.59-1.44,1.39-1.64c0,0,1-.33,1.14.58A66.22,66.22,0,0,1,60.79,94c0,.08-.07.16-.1.23-.2.44-.39.87-.59,1.28,0,0-.21,1.19-2.14,1.11-.1,0-.06-.15-.06-.15l-.36-1.65Z"/><rect class="cls-1" x="59.18" y="81.25" width="3.36" height="4.73" transform="translate(-26.57 28.37) rotate(-21.66)"/><path class="cls-3" d="M61.28,85.94A1.88,1.88,0,0,1,64,87.2c.39,1.52-2.25,5.68-2.25,5.68-1.21.17-3.53-1.66-3.53-1.66-.26-1.43,2.4-4.86,2.4-4.86Z"/><path class="cls-1" d="M59.17,96.4l-1,.35-3.61,1.17s-2.79,2.8-3.53,2.47c0,0-.61-.09.92-1.9,0,0,0-.27-.32-.16s-3,1.11-3.36.44c0,0-.34-.59,2.28-1.39,0,0,.21-.1-.07-.17,0,0-3.63-.41-3.79-1.2,0,0,.49-.77,3.75-.64,0,0-2.73-1.15-2.51-1.77s3.75.6,3.75.6.08,0,0-.19-1-1-.51-1.43c0,0,.37-.65,3.15,1.36,0,0,2-.14,4.35-.54"/><path class="cls-3" d="M64.9,87.3a1.89,1.89,0,0,0-2.79-1.17c-1.38.74-2.67,5.49-2.67,5.49.69,1,3.61,1.49,3.61,1.49,1.23-.78,2-5.06,2-5.06Z"/><path class="cls-4" d="M58.21,108l3,8.22.52-.16A6.76,6.76,0,0,0,63,115.4c2.3-1.34,2-1.64,2-1.64-.31-.9-4.05-8.22-4.05-8.22l-2.88,2.18Z"/><path class="cls-4" d="M60.87,114.82s-3,1.13-3.73,2,3.32,1.34,7,.67c3.12-.58,1.76-2,1.39-3"/><ellipse class="cls-5" cx="57.83" cy="116.76" rx="0.29" ry="0.11" transform="translate(-20.41 12.57) rotate(-10.56)"/><path class="cls-4" d="M65,113.76a3.6,3.6,0,0,1,.56,1l-1.5.24-.62-1,.8-.6Z"/><path class="cls-6" d="M63.71,100.74l-6,5.21a1.19,1.19,0,0,0-.35,1.24c.37,1.12,2.25,1.88,4.84,2.86.35.13,1.39.37,1.7.17,1.52-1,4.69-3.21,6.06-5.56s-3.48-3.75-5.22-4.18A1.2,1.2,0,0,0,63.71,100.74Z"/><path class="cls-1" d="M67.86,110c.33,0,7.54.35,9.22.44a1.93,1.93,0,0,0,1.13-2.33c-.33-1.86-.65-2-.65-2-1-.06-10.85.35-10.85.35l.9,3.49"/><path class="cls-1" d="M76.85,110.18s2.5,2.33,3.63,2.63-.2-3.57-2.36-6.57c-2-2.79-2.7-.37-3.52.2"/><ellipse class="cls-5" cx="80.11" cy="112.23" rx="0.11" ry="0.29" transform="translate(-50.57 68.23) rotate(-35.87)"/><path class="cls-3" d="M62.61,102.05l2.08,7.65a1.15,1.15,0,0,0,1,.86,6.56,6.56,0,0,0,5.47-1.75,1.16,1.16,0,0,0,.35-1c-.24-1.81-1.07-7.44-2.58-9.7s-4.9,1.49-6,2.87A1.19,1.19,0,0,0,62.61,102.05Z"/><path class="cls-7" d="M59,86.48c-1.43,1.68.87,14,1.37,15.63s5.16,1.15,9-1-.77-9.78-2.28-13.45S61.82,83.17,59,86.48Z"/><polygon class="cls-7" points="59.17 85.58 59 86.48 60.13 86.53 59.17 85.58"/><polygon class="cls-3" points="63.03 83.71 59.17 85.58 60.24 86.97 64.11 84.69 63.03 83.71"/><path class="cls-1" d="M68.75,91.06A54.49,54.49,0,0,1,68,97.13c-2.67,2.16-2.14,2.69-2.14,2.69.26.56,1.52-.12,1.52-.12.17-.07.19,0,.19,0s-2.1,3.08-1.56,3.46,2.37-2,2.37-2c-1,3.11-.37,3.78-.37,3.78.81,0,2.15-3.34,2.15-3.34.14-.25.18,0,.18,0,.09,2.74.74,2.57.74,2.57.74-.14.49-3,.47-3.36s.23-.26.23-.26c1.35,1.94,1.59,1.38,1.59,1.38.52-.62-1.46-4-1.46-4l-.18-3.79c0-.89-.15-2-.29-3A1.6,1.6,0,0,0,70,89.19c-1.7-.17-3.14-.26-3.14-.26Z"/><path class="cls-1" d="M69.68,91.76A16.08,16.08,0,0,0,65.1,90s-1.49-.45-1.77-1.23c0,0-.42-1,.48-1.19a65.23,65.23,0,0,1,7,1.91"/><path class="cls-3" d="M62.66,86.23a1.88,1.88,0,0,0-1.07,2.83c.8,1.35,5.6,2.46,5.6,2.46,1-.73,1.34-3.67,1.34-3.67-.82-1.19-5.12-1.77-5.12-1.77Z"/><path class="cls-1" d="M56.33,63.08s-4.3.71-6,3.93-1.21,4.71-.91,6.91.49,2.7-.46,4.27,1.57,1.56,1.57,1.56.2,2.42.29,2.61c0,0,2.38-.76,3-1a7,7,0,0,1-2.43,2,2.23,2.23,0,0,0,.34.91,2.7,2.7,0,0,1,.32,1s.21,1.38,3,.79,4-.55,7.63-4.3c0,0,5.09-3.35,5.09-8.91s-2.59-8.17-6.45-9.52S56.33,63.08,56.33,63.08Z"/><g class="cls-8"><path d="M49,67.59a16.35,16.35,0,0,1,6-1.66c3.42-.19,4.78.34,5.24,1.23s.64,1.84.6,4.25,0,2.18.22,2.47c0,0,.6-1.33,1.7-1.34s2.14-.06,2.44,1.37A4.58,4.58,0,0,1,63,78.62s.82,3.15,2.81,1.94L66.11,82l4.47-1.77,2.55-2.47L74.6,65.41l-4.1-3.69L62,60.24l-8.5.77-3.48,1.14L48.92,64,47.5,66.91"/></g><path class="cls-9" d="M63.19,73.21a2.11,2.11,0,0,0-1,2.1c.08,1.58,1.12,1.68,1.12,1.68a2.65,2.65,0,0,1-.54-1.62,1.59,1.59,0,0,0,1.89-.27,3.7,3.7,0,0,1-1.75-.26A2.55,2.55,0,0,1,63.19,73.21Z"/><path class="cls-10" d="M50.4,81.69s.14-.34,1.22-.39a16.3,16.3,0,0,0,2.34,0,7.5,7.5,0,0,1-2.73,1.33C50,82.81,50.4,81.69,50.4,81.69Z"/><path class="cls-10" d="M54,81.27a2.93,2.93,0,0,1-2,2.33,1.09,1.09,0,0,1-1.19-.09c-.54-.46.33-.72.84-1A17.4,17.4,0,0,0,54,81.27Z"/><path d="M61.06,73.88a26.09,26.09,0,0,0-.94-3.41s-1.46-1.5-.85-2.91c0,0,.59-1.13-.25-1.33,0,0,1-1.25,1.44-1.08s2.47.74,2.47.74l1.31,1.39.54,1.3Z"/><path class="cls-2" d="M50.83,74.71a1.94,1.94,0,0,1,1.9-1.62c1.62,0,2.28.76,2.4,1.35a1.58,1.58,0,0,1-1.39,2C52.21,76.77,50.88,76.51,50.83,74.71Z"/><g class="cls-11"><circle class="cls-9" cx="51.84" cy="75.73" r="1.32"/><circle cx="51.84" cy="75.73" r="0.88"/><circle class="cls-2" cx="51.17" cy="75.37" r="0.46"/></g><path d="M55.14,71.31a3,3,0,0,0-2.74-.61A3.12,3.12,0,0,0,50.21,72s-.3.47.31.3A6.92,6.92,0,0,1,55,71.67S55.44,71.69,55.14,71.31Z"/><polygon class="cls-1" points="58.93 67.8 63.34 66.76 59.05 68.79 58.93 67.8"/><path d="M67.61,67.71s1.74,1.3,2,2.49-1.6,4.89-2.15,5.23-2.26-4.67-2.26-4.67L63,65.4l-7.48-2.07a43,43,0,0,1,5.62-2c1.09-.1,3.15,2.91,3.15,2.91a36.65,36.65,0,0,1,3.89.12C69.48,64.53,67.61,67.71,67.61,67.71Z"/></g></svg>