<svg xmlns="http://www.w3.org/2000/svg" xmlns:xlink="http://www.w3.org/1999/xlink" viewBox="0 0 260 168"><defs><style>.cls-1{fill:#cfeaa8;}.cls-2{fill:#7c4b2a;}.cls-3{fill:#845633;}.cls-4{fill:#1a5686;}.cls-5{fill:#124d75;}.cls-6{clip-path:url(#clip-path);}.cls-7{clip-path:url(#clip-path-2);}.cls-8{fill:#6b3e1f;}.cls-9{fill:#9e6239;}.cls-10{clip-path:url(#clip-path-3);}.cls-11{fill:#620100;}.cls-12{fill:#4f2821;}.cls-13{fill:#fff;}.cls-14{fill:#64340f;}.cls-15{fill:none;stroke:#4f2821;stroke-linecap:round;stroke-linejoin:round;stroke-width:0.46px;}</style><clipPath id="clip-path"><path class="cls-1" d="M152.57,89a39.63,39.63,0,0,1,0-5.55l-.88-.32a.2.2,0,0,0-.08,0l-1.51-.39L148,84.82l-1.38-2.45-1,.24a4.06,4.06,0,0,0-1.4.33l-.69.29a15.65,15.65,0,0,0-.69,5.8c.21,2.62.24,8.12.24,8.12s-.3.32,5,.64,5.47-.37,5.47-.37Z"/></clipPath><clipPath id="clip-path-2"><path class="cls-2" d="M147.16,105.15c-.84.57-2.08-.53-2.58-2.94-.22-1.07,2.16-1.76,5.49-3.25a18.85,18.85,0,0,1,4.8-1.66c1.58-.19,2.52,2.42.67,3.71s-7.45,2.48-7.45,2.48a7.32,7.32,0,0,1-.57,1.08A1.36,1.36,0,0,1,147.16,105.15Z"/></clipPath><clipPath id="clip-path-3"><path class="cls-3" d="M140.4,62.24a8.76,8.76,0,0,0-2.56,9.91s-2.89.32-1.62,3.54A2.48,2.48,0,0,0,139.79,77s2.15,4.18,5.15,5.15,4.64.1,6-1,2.73-6,2.45-7.68c0,0,2.63.78,2.84-2.61,0,0,.16-3-2.89-2,0,0-1-7.07-6.16-7.85C142.35,60.2,140.4,62.24,140.4,62.24Z"/></clipPath></defs><g id="Layer_3" data-name="Layer 3"><rect class="cls-4" x="143.08" y="96.68" width="10.21" height="3.28"/><path class="cls-4" d="M143,97.32s-4.33-1.77-4.38,1.49,5.94,4.43,7.41,4.71a27.91,27.91,0,0,0,4.15.22s6.42-.91,6.74-3.86-1.35-4-3.49-2.58S146,98.56,143,97.32Z"/><path class="cls-5" d="M147.62,99.74a3.35,3.35,0,0,0,2.5.6,3.39,3.39,0,0,0,1-.5,3.61,3.61,0,0,0,1.42-1.4c-.11.23-2.15.15-2.44.16-.84,0-1.68,0-2.52-.07-.41,0-.81-.07-1.22-.12-.18,0-.93-.24-.71.11s.73.41.95.55S147.29,99.53,147.62,99.74Z"/><path class="cls-3" d="M143.93,83.33a58.15,58.15,0,0,0-4.42,7.94l-1.24,2.92s-2.54,2.12-2.31,2.75c0,0,0,.52,1.65-.62,0,0,.23,0,.11.27s-1.14,2.45-.61,2.77c0,0,.47.33,1.32-1.8,0,0,.1-.16.14.07,0,0,.07,3.05.72,3.24,0,0,.68-.35.8-3.07,0,0,.77,2.35,1.3,2.21s-.23-3.16-.23-3.16,0-.06.15.05.79.9,1.16.53c0,0,.57-.26-.9-2.73,0,0,1.05-6.58,3-9.16,0,0,.64-1.14.35-1.77C144.9,83.77,144.59,83,143.93,83.33Z"/><path class="cls-4" d="M143.55,83.24s-2.33,3.64-2.69,4.54c0,0,1.92,1.55,2.93,1.42,0,0,1.54-2.09,1.23-3.36,0,0,.33-3.4-1.47-2.6"/><path class="cls-3" d="M151.62,83.72a58.31,58.31,0,0,1,4.87,7.67l1.4,2.84s2.66,2,2.47,2.62c0,0,0,.51-1.68-.53,0,0-.23,0-.09.28s1.28,2.38.77,2.73c0,0-.45.35-1.43-1.72,0,0-.11-.16-.13.08,0,0,.1,3-.53,3.28,0,0-.7-.31-1-3,0,0-.63,2.39-1.17,2.28s0-3.17,0-3.17,0-.06-.15,0-.73,1-1.12.6c0,0-.58-.22.75-2.77,0,0-1.44-6.51-3.51-9,0,0-.7-1.1-.45-1.74C150.68,84.22,150.93,83.38,151.62,83.72Z"/><path class="cls-4" d="M152,83.61s2.54,3.5,2.95,4.37c0,0-1.83,1.67-2.85,1.59,0,0-1.65-2-1.41-3.28,0,0-.54-3.38,1.31-2.68"/><path class="cls-3" d="M146.63,81.46a1.74,1.74,0,0,1,0,.91c-.15.33-2.2.44-2.76,1.16s-.44,4.76-.44,4.76l.32,8.88s8.36.24,8.37.07.43-9.5.3-10.61.38-2.68-1.2-3.4-1.81-.65-1.81-.65a2,2,0,0,1,0-1,9.22,9.22,0,0,0-1.24-.47Z"/><path class="cls-1" d="M152.57,89a39.63,39.63,0,0,1,0-5.55l-.88-.32a.2.2,0,0,0-.08,0l-1.51-.39L148,84.82l-1.38-2.45-1,.24a4.06,4.06,0,0,0-1.4.33l-.69.29a15.65,15.65,0,0,0-.69,5.8c.21,2.62.24,8.12.24,8.12s-.3.32,5,.64,5.47-.37,5.47-.37Z"/><g class="cls-6"><polyline class="cls-4" points="145.27 81.78 146.72 85.85 147.98 84.82 149.11 86.07 151.72 82.51 145.85 81 145.07 81.99"/></g><path class="cls-2" d="M147.16,105.15c-.84.57-2.08-.53-2.58-2.94-.22-1.07,2.16-1.76,5.49-3.25a18.85,18.85,0,0,1,4.8-1.66c1.58-.19,2.52,2.42.67,3.71s-7.45,2.48-7.45,2.48a7.32,7.32,0,0,1-.57,1.08A1.36,1.36,0,0,1,147.16,105.15Z"/><g class="cls-7"><path class="cls-8" d="M144.31,102a1.67,1.67,0,0,0,.7.81,4.86,4.86,0,0,0,1,.43l1.05.36a.6.6,0,0,1,.25.13.59.59,0,0,1,.12.2,3.74,3.74,0,0,0,.34.66,1.14,1.14,0,0,0,.57.45,1.42,1.42,0,0,0,1.09-.22,1.19,1.19,0,0,0,.33-.26,1,1,0,0,0,.21-.52,2.57,2.57,0,0,0-.47-1.55,4.17,4.17,0,0,0-.92-1.16,3.79,3.79,0,0,0-.72-.45,9,9,0,0,0-3.53-.67,2.21,2.21,0,0,0-.85.09.75.75,0,0,0-.5.65.7.7,0,0,0,.25.51,1.61,1.61,0,0,0,.51.29"/></g><ellipse class="cls-2" cx="144.86" cy="102.4" rx="0.61" ry="0.81" transform="translate(-16.36 28.38) rotate(-10.6)"/><ellipse class="cls-2" cx="145.11" cy="103.49" rx="0.39" ry="0.52" transform="translate(-16.56 28.45) rotate(-10.6)"/><ellipse class="cls-2" cx="145.56" cy="104.14" rx="0.39" ry="0.52" transform="translate(-27.97 60.31) rotate(-21.41)"/><ellipse class="cls-2" cx="146.17" cy="104.76" rx="0.39" ry="0.52" transform="translate(-33.62 100.72) rotate(-34.34)"/><ellipse class="cls-2" cx="146.65" cy="104.87" rx="0.39" ry="0.52" transform="translate(-33.6 101) rotate(-34.34)"/><ellipse class="cls-9" cx="144.89" cy="102.52" rx="0.13" ry="0.38" transform="translate(-31.53 83) rotate(-28.97)"/><ellipse class="cls-9" cx="145.22" cy="103.48" rx="0.09" ry="0.27" transform="translate(-31.95 83.28) rotate(-28.97)"/><ellipse class="cls-9" cx="145.71" cy="104.22" rx="0.09" ry="0.27" transform="translate(-32.24 83.61) rotate(-28.97)"/><ellipse class="cls-9" cx="146.25" cy="104.7" rx="0.09" ry="0.27" transform="translate(-32.41 83.93) rotate(-28.97)"/><ellipse class="cls-9" cx="146.87" cy="104.97" rx="0.07" ry="0.23" transform="matrix(0.87, -0.48, 0.48, 0.87, -32.47, 84.26)"/><path class="cls-3" d="M148.47,105.15c.83.57,2.08-.53,2.57-2.94.22-1.07-2.15-1.76-5.49-3.25a18.72,18.72,0,0,0-4.79-1.66c-1.59-.19-2.52,2.42-.67,3.71s7.44,2.48,7.44,2.48a8,8,0,0,0,.58,1.08A1.36,1.36,0,0,0,148.47,105.15Z"/><ellipse class="cls-3" cx="150.76" cy="102.4" rx="0.81" ry="0.61" transform="translate(22.38 231.77) rotate(-79.4)"/><ellipse class="cls-3" cx="150.51" cy="103.49" rx="0.52" ry="0.39" transform="translate(21.11 232.41) rotate(-79.4)"/><ellipse class="cls-3" cx="150.07" cy="104.14" rx="0.52" ry="0.39" transform="translate(-1.66 205.85) rotate(-68.59)"/><ellipse class="cls-3" cx="149.45" cy="104.76" rx="0.52" ry="0.39" transform="translate(-21.35 169.07) rotate(-55.66)"/><ellipse class="cls-3" cx="148.98" cy="104.87" rx="0.52" ry="0.39" transform="translate(-21.65 168.73) rotate(-55.66)"/><ellipse class="cls-9" cx="150.74" cy="102.52" rx="0.38" ry="0.13" transform="translate(-11.96 184.75) rotate(-61.03)"/><ellipse class="cls-9" cx="150.4" cy="103.48" rx="0.27" ry="0.09" transform="translate(-12.98 184.95) rotate(-61.03)"/><ellipse class="cls-9" cx="149.92" cy="104.22" rx="0.27" ry="0.09" transform="translate(-13.87 184.91) rotate(-61.03)"/><ellipse class="cls-9" cx="149.38" cy="104.7" rx="0.27" ry="0.09" transform="translate(-14.57 184.68) rotate(-61.03)"/><ellipse class="cls-9" cx="148.75" cy="104.97" rx="0.23" ry="0.07" transform="translate(-15.13 184.28) rotate(-61.03)"/><path class="cls-3" d="M140.4,62.24a8.76,8.76,0,0,0-2.56,9.91s-2.89.32-1.62,3.54A2.48,2.48,0,0,0,139.79,77s2.15,4.18,5.15,5.15,4.64.1,6-1,2.73-6,2.45-7.68c0,0,2.63.78,2.84-2.61,0,0,.16-3-2.89-2,0,0-1-7.07-6.16-7.85C142.35,60.2,140.4,62.24,140.4,62.24Z"/><g class="cls-10"><path d="M137.71,72l.06.08a14.09,14.09,0,0,1,1-5.16,2,2,0,0,1,1.55-1.21c1.06,0,2.89.14,8.27-2,0,0,1-.68,2.15.73a27.34,27.34,0,0,1,2.52,4s.72-1.15.65-1.63-.39-4.65-.39-4.65l-2-2.88-3-.78s.29-.59-3.48.54.71-1.41-3.25.85-2.65,1.34-2.65,1.34L134.41,68"/></g><path class="cls-11" d="M145,79.28a5,5,0,0,0-.56.2l1.09.32,2.32.4L150,79l.25-.81.3-.34-2.24,0-2.85,1Z"/><path class="cls-12" d="M145.06,76.16s.49.52,1.81.15,1.53-1.09,1.51-1.08a2.78,2.78,0,0,0-2-1.41C145,73.72,145.06,76.16,145.06,76.16Z"/><path d="M139.79,70.76a2.76,2.76,0,0,1,2.15-1.41,2.83,2.83,0,0,1,2.28.4s.42.3-.16.36a6.28,6.28,0,0,0-4,.91S139.66,71.19,139.79,70.76Z"/><path class="cls-13" d="M145.75,79.05a4,4,0,0,0,3.74-.88l-2,.09Z"/><path d="M146.74,68.55a3,3,0,0,1,2.1-1.39,2.91,2.91,0,0,1,2.4.34c.17.14.15.37-.27.38a7.16,7.16,0,0,0-3.85.88S146.61,69,146.74,68.55Z"/><path class="cls-14" d="M144.3,79.47A7.2,7.2,0,0,1,146.64,78a5.64,5.64,0,0,1,3-.35,3.68,3.68,0,0,0,.95.15A33.7,33.7,0,0,1,144.3,79.47Z"/><path class="cls-14" d="M144.3,79.47a2,2,0,0,1,.92.59,2.11,2.11,0,0,0,2.24.92A3.09,3.09,0,0,0,150,79.41c.49-.87.15-1.2.62-1.6a14.11,14.11,0,0,1-1.44,1,5.32,5.32,0,0,1-3.44.77Z"/><path class="cls-12" d="M137.73,73.18a2.18,2.18,0,0,1,1.38,1.35,1.84,1.84,0,0,1-.35,1.69,2.42,2.42,0,0,0,0-1.37,1.52,1.52,0,0,1-1.54.22s1.28-.34,1.28-.7A2.27,2.27,0,0,0,137.73,73.18Z"/><path class="cls-12" d="M153.73,69.35A2,2,0,0,0,153,71a1.58,1.58,0,0,0,.88,1.43,3.83,3.83,0,0,1-.39-1.25,1.6,1.6,0,0,0,1.51-.29s-1.12.2-1.46-.23A2.38,2.38,0,0,1,153.73,69.35Z"/><path d="M137.72,71.69a14.26,14.26,0,0,1-3.24-2.5s.3-1.17,2.8-2.1c0,0-1.83-3-1.61-4.08,0,0,1.21-.74,3.55.16,0,0-.55-3.35.95-4.18a4.63,4.63,0,0,1,3.37,1.91l-.49,2.17s-5,2.7-4.82,2.78-1,2.6-.82,2.72A23.85,23.85,0,0,1,137.72,71.69Z"/><path d="M153.21,68.4a14.88,14.88,0,0,0,2.06-4.3s-.49-1-3.28-.49c0,0,.3-3.65-.5-4.47,0,0-1.07,0-2.72,2,0,0-1.31-3.13-3.14-3a4.86,4.86,0,0,0-2,3.44l1.62,1.57s3.95.39,4.93.08a7.91,7.91,0,0,1,1.59,2.27A23.86,23.86,0,0,0,153.21,68.4Z"/><path class="cls-3" d="M139.07,67.06a11.67,11.67,0,0,1-1.48.07l1.09.71.72-.5"/><polyline class="cls-3" points="149.94 64.66 151.59 63.86 150.8 65.11"/><path class="cls-15" d="M140.84,74.5a4.25,4.25,0,0,0,4-1.32"/><path class="cls-15" d="M147.62,72.47s2.84.87,4.13-.83"/></g></svg>