<svg xmlns="http://www.w3.org/2000/svg" xmlns:xlink="http://www.w3.org/1999/xlink" viewBox="0 0 260 168"><defs><style>.cls-1{fill:#cfeaa8;}.cls-2{fill:#7c4b2a;}.cls-3{fill:#845633;}.cls-4{fill:#fff;}.cls-5{fill:#1a5686;}.cls-6{fill:#77492a;}.cls-7{fill:#124d75;}.cls-8{clip-path:url(#clip-path);}.cls-9{clip-path:url(#clip-path-2);}.cls-10{fill:#6b3e1f;}.cls-11{fill:#9e6239;}.cls-12{clip-path:url(#clip-path-3);}.cls-13{fill:#620100;}.cls-14{clip-path:url(#clip-path-4);}.cls-15{fill:#4f2821;}.cls-16{clip-path:url(#clip-path-5);}.cls-17{fill:#64340f;}</style><clipPath id="clip-path"><path class="cls-1" d="M206.8,114.63a65.5,65.5,0,0,1,.29-7.55l-1,.28c-.05.18-.75.24-.75.24l-1.21.16-2.3,2.28-1.51-2.68-1.1.26a4.63,4.63,0,0,0-1.53.37l-.7.32a16.37,16.37,0,0,0-.81,6.34c.23,2.85.26,8.87.26,8.87s-.33.35,5.42.69,6-.39,6-.39Z"/></clipPath><clipPath id="clip-path-2"><path class="cls-2" d="M200.89,132.26c-.91.63-2.27-.58-2.81-3.21-.24-1.17,2.35-1.92,6-3.56a20.42,20.42,0,0,1,5.23-1.81c1.74-.21,2.76,2.65.74,4s-8.14,2.72-8.14,2.72a8.17,8.17,0,0,1-.63,1.18A1.5,1.5,0,0,1,200.89,132.26Z"/></clipPath><clipPath id="clip-path-3"><path class="cls-3" d="M192.75,85.72a9.58,9.58,0,0,0-2.55,10.9s-3.15.42-1.68,3.91a2.71,2.71,0,0,0,3.93,1.29s2.46,4.51,5.76,5.49,5.08,0,6.51-1.3,2.82-6.58,2.48-8.45c0,0,2.89.79,3-2.93,0,0,.09-3.29-3.21-2.08,0,0-1.33-7.7-6.93-8.42C194.82,83.45,192.75,85.72,192.75,85.72Z"/></clipPath><clipPath id="clip-path-4"><path class="cls-4" d="M193.06,98a2,2,0,0,1,1.52-2c1.59-.32,2.38.27,2.62.81a1.57,1.57,0,0,1-.92,2.29C194.84,99.69,193.49,99.71,193.06,98Z"/></clipPath><clipPath id="clip-path-5"><path class="cls-4" d="M204.68,94.4a2,2,0,0,0-2.37-.79c-1.49.63-1.82,1.56-1.71,2.15a1.58,1.58,0,0,0,2.05,1.38C204.17,96.82,205.31,96.08,204.68,94.4Z"/></clipPath></defs><g id="Layer_3" data-name="Layer 3"><path class="cls-3" d="M218.06,105.26,215,106.89a61.77,61.77,0,0,1-9.21,3.7c-.83-.13-.52-1-.52-1,.19-.73,1.51-1.26,1.51-1.26,3.41-.87,8.84-5.73,8.84-5.73.44-3.11,1.1-2.94,1.1-2.94.57-.06.62,1.25.62,1.25,0,.17.09.14.09.14s4-3.33,4.14-1.81c0,0,.08.37-1.87,1.79C219.7,101,221.52,103.41,218.06,105.26Z"/><path class="cls-5" d="M206.05,110.93s4.48-1.49,5.4-2c0,0-.56-2.65-1.51-3.23,0,0-2.74.72-3.35,2,0,0-2.63,2.66-.54,3.22"/><ellipse class="cls-6" cx="219.42" cy="101.68" rx="0.93" ry="0.6" transform="translate(-20.03 135.6) rotate(-32.92)"/><ellipse class="cls-6" cx="219.67" cy="102.58" rx="0.93" ry="0.6" transform="translate(-20.47 135.88) rotate(-32.92)"/><ellipse class="cls-6" cx="219.65" cy="103.48" rx="0.8" ry="0.51" transform="translate(-20.97 136.01) rotate(-32.92)"/><rect class="cls-5" x="196.44" y="123" width="11.15" height="3.59"/><path class="cls-5" d="M196.38,123.7s-4.73-1.93-4.79,1.63,6.49,4.84,8.1,5.14a30.36,30.36,0,0,0,4.54.25s7-1,7.37-4.22-1.49-4.36-3.82-2.82S199.65,125.06,196.38,123.7Z"/><path class="cls-7" d="M201.4,126.34a3.63,3.63,0,0,0,2.73.67,4.17,4.17,0,0,0,1.12-.55,3.93,3.93,0,0,0,1.55-1.53c-.11.24-2.34.16-2.66.17-.92,0-1.84,0-2.76-.08l-1.33-.12c-.19,0-1-.27-.77.11.14.22.79.45,1,.61S201,126.11,201.4,126.34Z"/><path class="cls-3" d="M197.36,108.41a64.43,64.43,0,0,0-4.83,8.68l-1.35,3.19s-2.77,2.32-2.52,3c0,0,0,.56,1.79-.68,0,0,.25,0,.12.3s-1.24,2.67-.66,3c0,0,.51.35,1.45-2,0,0,.11-.18.15.07,0,0,.08,3.34.78,3.55,0,0,.74-.39.88-3.36,0,0,.84,2.57,1.42,2.42s-.25-3.46-.25-3.46,0-.07.17,0,.85,1,1.26.58c0,0,.62-.28-1-3,0,0,1.16-7.19,3.26-10,0,0,.7-1.24.38-1.92C198.42,108.9,198.09,108,197.36,108.41Z"/><path class="cls-5" d="M197,108.31s-2.55,4-2.94,5c0,0,2.1,1.7,3.2,1.56,0,0,1.68-2.28,1.34-3.68,0,0,.37-3.71-1.6-2.84"/><path class="cls-3" d="M200.31,106.37a1.93,1.93,0,0,1,0,1c-.16.36-2.41.48-3,1.27s-.47,5.21-.47,5.21l.35,9.7s9.14.26,9.14.07.48-10.38.33-11.59.41-2.93-1.31-3.71-2-.72-2-.72a2.22,2.22,0,0,1,0-1.14,10.36,10.36,0,0,0-1.35-.51Z"/><path class="cls-1" d="M206.8,114.63a65.5,65.5,0,0,1,.29-7.55l-1,.28c-.05.18-.75.24-.75.24l-1.21.16-2.3,2.28-1.51-2.68-1.1.26a4.63,4.63,0,0,0-1.53.37l-.7.32a16.37,16.37,0,0,0-.81,6.34c.23,2.85.26,8.87.26,8.87s-.33.35,5.42.69,6-.39,6-.39Z"/><g class="cls-8"><polyline class="cls-5" points="205.87 107.52 199.46 105.87 198.61 106.95"/></g><path class="cls-2" d="M200.89,132.26c-.91.63-2.27-.58-2.81-3.21-.24-1.17,2.35-1.92,6-3.56a20.42,20.42,0,0,1,5.23-1.81c1.74-.21,2.76,2.65.74,4s-8.14,2.72-8.14,2.72a8.17,8.17,0,0,1-.63,1.18A1.5,1.5,0,0,1,200.89,132.26Z"/><g class="cls-9"><path class="cls-10" d="M197.78,128.84a1.81,1.81,0,0,0,.76.88,5.28,5.28,0,0,0,1.09.47l1.14.4a.74.74,0,0,1,.28.14.8.8,0,0,1,.13.22,3.27,3.27,0,0,0,.37.72,1.23,1.23,0,0,0,.63.49,1.55,1.55,0,0,0,1.19-.24,1.35,1.35,0,0,0,.35-.28,1,1,0,0,0,.23-.57,2.85,2.85,0,0,0-.51-1.7,4.92,4.92,0,0,0-1-1.26,3.43,3.43,0,0,0-.8-.49,9.85,9.85,0,0,0-3.85-.74,2.42,2.42,0,0,0-.93.1.81.81,0,0,0-.55.71.78.78,0,0,0,.28.56,1.61,1.61,0,0,0,.56.31"/></g><ellipse class="cls-2" cx="198.38" cy="129.26" rx="0.66" ry="0.89" transform="translate(-20.39 38.68) rotate(-10.6)"/><ellipse class="cls-2" cx="198.66" cy="130.45" rx="0.42" ry="0.57" transform="translate(-20.6 38.75) rotate(-10.6)"/><ellipse class="cls-2" cx="199.14" cy="131.16" rx="0.42" ry="0.57" transform="matrix(0.93, -0.36, 0.36, 0.93, -34.13, 81.73)"/><ellipse class="cls-2" cx="199.82" cy="131.83" rx="0.42" ry="0.57" transform="matrix(0.83, -0.56, 0.56, 0.83, -39.54, 135.69)"/><ellipse class="cls-2" cx="200.33" cy="131.96" rx="0.42" ry="0.57" transform="translate(-39.52 136.01) rotate(-34.34)"/><ellipse class="cls-11" cx="198.41" cy="129.39" rx="0.14" ry="0.42" transform="translate(-37.84 112.28) rotate(-28.97)"/><ellipse class="cls-11" cx="198.78" cy="130.44" rx="0.1" ry="0.29" transform="translate(-38.3 112.59) rotate(-28.97)"/><ellipse class="cls-11" cx="199.31" cy="131.24" rx="0.1" ry="0.29" transform="translate(-38.63 112.94) rotate(-28.97)"/><ellipse class="cls-11" cx="199.9" cy="131.77" rx="0.1" ry="0.29" transform="translate(-38.81 113.3) rotate(-28.97)"/><ellipse class="cls-11" cx="200.58" cy="132.07" rx="0.08" ry="0.25" transform="translate(-38.87 113.66) rotate(-28.97)"/><path class="cls-3" d="M202.32,132.26c.92.63,2.28-.58,2.82-3.21.24-1.17-2.36-1.92-6-3.56a20.55,20.55,0,0,0-5.24-1.81c-1.73-.21-2.76,2.65-.74,4s8.14,2.72,8.14,2.72a9.56,9.56,0,0,0,.63,1.18A1.5,1.5,0,0,0,202.32,132.26Z"/><ellipse class="cls-3" cx="204.83" cy="129.26" rx="0.89" ry="0.66" transform="translate(40.11 306.83) rotate(-79.4)"/><ellipse class="cls-3" cx="204.56" cy="130.45" rx="0.57" ry="0.42" transform="translate(38.72 307.53) rotate(-79.4)"/><ellipse class="cls-3" cx="204.07" cy="131.16" rx="0.57" ry="0.42" transform="translate(7.48 273.29) rotate(-68.59)"/><ellipse class="cls-3" cx="203.4" cy="131.83" rx="0.57" ry="0.42" transform="translate(-20.19 225.41) rotate(-55.66)"/><ellipse class="cls-3" cx="202.88" cy="131.96" rx="0.57" ry="0.42" transform="translate(-20.52 225.04) rotate(-55.66)"/><ellipse class="cls-11" cx="204.8" cy="129.39" rx="0.42" ry="0.14" transform="translate(-7.59 245.91) rotate(-61.03)"/><ellipse class="cls-11" cx="204.44" cy="130.44" rx="0.29" ry="0.1" transform="translate(-8.69 246.13) rotate(-61.03)"/><ellipse class="cls-11" cx="203.91" cy="131.24" rx="0.29" ry="0.1" transform="translate(-9.67 246.08) rotate(-61.03)"/><ellipse class="cls-11" cx="203.32" cy="131.77" rx="0.29" ry="0.1" transform="translate(-10.44 245.83) rotate(-61.03)"/><ellipse class="cls-11" cx="202.64" cy="132.07" rx="0.25" ry="0.08" transform="translate(-11.05 245.39) rotate(-61.03)"/><polygon class="cls-5" points="200.15 106.88 201.79 110.04 200.58 110.81 199.05 107.71 200.15 106.88"/><polygon class="cls-5" points="203.51 106.97 201.7 110.03 202.87 110.87 204.56 107.85 203.51 106.97"/><path class="cls-3" d="M192.75,85.72a9.58,9.58,0,0,0-2.55,10.9s-3.15.42-1.68,3.91a2.71,2.71,0,0,0,3.93,1.29s2.46,4.51,5.76,5.49,5.08,0,6.51-1.3,2.82-6.58,2.48-8.45c0,0,2.89.79,3-2.93,0,0,.09-3.29-3.21-2.08,0,0-1.33-7.7-6.93-8.42C194.82,83.45,192.75,85.72,192.75,85.72Z"/><g class="cls-12"><path d="M190.05,96.47l.07.09s-.05-3.66,1-5.67a2.19,2.19,0,0,1,1.66-1.36c1.16-.08,3.16.08,9-2.4,0,0,1-.77,2.36.75A29.46,29.46,0,0,1,207,92.17s.77-1.27.68-1.79-.55-5.07-.55-5.07l-2.26-3.1-3.3-.78s.31-.64-3.79.68.74-1.55-3.52,1-2.86,1.52-2.86,1.52l-5,7.51"/></g><path class="cls-13" d="M198.15,104.23l-.63.17,1.22.39,2.54.38,2.4-1.42.25-.89.33-.38-2.46.11-3.08,1.14Z"/><path class="cls-4" d="M193.06,98a2,2,0,0,1,1.52-2c1.59-.32,2.38.27,2.62.81a1.57,1.57,0,0,1-.92,2.29C194.84,99.69,193.49,99.71,193.06,98Z"/><g class="cls-14"><circle class="cls-15" cx="196.84" cy="96.92" r="1.32"/><circle cx="196.84" cy="96.92" r="0.88"/><circle class="cls-4" cx="196.11" cy="96.71" r="0.46"/></g><path class="cls-15" d="M198.19,100.82s.55.56,2,.12,1.64-1.23,1.62-1.22a3.07,3.07,0,0,0-2.29-1.49C198,98.16,198.19,100.82,198.19,100.82Z"/><path class="cls-4" d="M204.68,94.4a2,2,0,0,0-2.37-.79c-1.49.63-1.82,1.56-1.71,2.15a1.58,1.58,0,0,0,2.05,1.38C204.17,96.82,205.31,96.08,204.68,94.4Z"/><g class="cls-16"><circle class="cls-15" cx="204.32" cy="94.54" r="1.32"/><circle cx="204.32" cy="94.54" r="0.88"/><circle class="cls-4" cx="203.58" cy="94.33" r="0.46"/></g><path d="M192.3,95.06a3,3,0,0,1,2.31-1.6,3.11,3.11,0,0,1,2.5.38s.47.32-.17.39a7,7,0,0,0-4.37,1.1S192.17,95.53,192.3,95.06Z"/><path class="cls-4" d="M199,104a4.36,4.36,0,0,0,4.07-1l-2.15.14Z"/><path d="M199.84,92.46a3.24,3.24,0,0,1,2.25-1.57,3.19,3.19,0,0,1,2.64.31c.18.15.17.4-.29.42a7.82,7.82,0,0,0-4.19,1.07S199.7,92.92,199.84,92.46Z"/><path class="cls-17" d="M197.52,104.4a7.22,7.22,0,0,1,2.45-1.6,6,6,0,0,1,3.24-.45,4.07,4.07,0,0,0,1,.13S199.56,104.28,197.52,104.4Z"/><path class="cls-17" d="M197.52,104.4a2.72,2.72,0,0,1,.95.68,2.3,2.3,0,0,0,2.47,1,3.4,3.4,0,0,0,2.68-1.79c.5-.95.13-1.31.64-1.76a15.15,15.15,0,0,1-1.55,1.19,5.81,5.81,0,0,1-3.75.92C197.15,104.42,197.52,104.4,197.52,104.4Z"/><path class="cls-15" d="M190.11,97.75a2.36,2.36,0,0,1,1.53,1.44,2,2,0,0,1-.33,1.85,2.67,2.67,0,0,0,0-1.49,1.65,1.65,0,0,1-1.67.28S191,99.42,191,99A2.36,2.36,0,0,0,190.11,97.75Z"/><path class="cls-15" d="M207.5,93.16a2.28,2.28,0,0,0-.8,1.87,1.73,1.73,0,0,0,1,1.54,4.43,4.43,0,0,1-.46-1.35,1.79,1.79,0,0,0,1.65-.37s-1.22.25-1.61-.21A2.55,2.55,0,0,1,207.5,93.16Z"/><path d="M190.06,96.12a15.53,15.53,0,0,1-3.6-2.64s.3-1.29,3-2.38c0,0-2.07-3.2-1.86-4.41,0,0,1.31-.84,3.88.08,0,0-.68-3.64.94-4.59a5.07,5.07,0,0,1,3.72,2l-.48,2.38s-5.34,3.07-5.19,3.16-1,2.87-.83,3A25.61,25.61,0,0,1,190.06,96.12Z"/><path d="M206.9,92.13A16.46,16.46,0,0,0,209,87.39s-.56-1.14-3.59-.46c0,0,.23-4-.66-4.87,0,0-1.17,0-2.93,2.23,0,0-1.51-3.39-3.5-3.23a5.31,5.31,0,0,0-2.14,3.81L198,86.55s4.31.33,5.38,0a8.54,8.54,0,0,1,1.8,2.44A26.29,26.29,0,0,0,206.9,92.13Z"/><path class="cls-3" d="M191.42,91a12.91,12.91,0,0,1-1.62.11l1.21.75.77-.56"/><polyline class="cls-3" points="203.23 88.13 205.01 87.22 204.18 88.61"/></g></svg>