<svg id="_13" data-name="13" xmlns="http://www.w3.org/2000/svg" xmlns:xlink="http://www.w3.org/1999/xlink" viewBox="0 0 260 168"><defs><style>.cls-1{fill:#845633;}.cls-2{fill:#fff;}.cls-3{fill:#1a5686;}.cls-4{fill:#774828;}.cls-5{fill:#9e633b;}.cls-6{fill:#144e75;}.cls-7{fill:#cfeaa8;}.cls-8{clip-path:url(#clip-path);}.cls-9{fill:#4f2821;}.cls-10{fill:#64340f;}.cls-11{clip-path:url(#clip-path-2);}</style><clipPath id="clip-path"><path class="cls-1" d="M15,62.71S10.86,64,9.59,67.43s-.55,4.82,0,7,.86,2.61.13,4.31S11.53,80,11.53,80s.53,2.37.65,2.55c0,0,2.25-1.08,2.79-1.42a6.91,6.91,0,0,1-2.13,2.32,2.28,2.28,0,0,0,.46.86,2.75,2.75,0,0,1,.46,1s.4,1.34,3.1.36,3.9-1.09,7-5.3c0,0,4.59-4,3.83-9.53S24,63.1,20,62.29,15,62.71,15,62.71Z"/></clipPath><clipPath id="clip-path-2"><path class="cls-2" d="M11.17,75a2,2,0,0,1,1.66-1.87c1.61-.2,2.36.45,2.56,1a1.58,1.58,0,0,1-1.09,2.22C12.82,76.83,11.46,76.76,11.17,75Z"/></clipPath></defs><rect class="cls-1" x="20.52" y="80.13" width="3.36" height="4.73" transform="translate(-15.76 5.96) rotate(-11.32)"/><path class="cls-1" d="M23.19,87.1a71.07,71.07,0,0,1-6,9.09l-2.41,2.92s-.84,3.87-1.64,4c0,0-.56.26-.25-2.09,0,0-.14-.24-.36,0s-2,2.57-2.6,2.18c0,0-.59-.31,1.18-2.4,0,0,.12-.2-.15-.11,0,0-3.27,1.62-3.84,1,0,0,0-.91,2.81-2.56,0,0-2.91.5-3.06-.14s3.48-1.52,3.48-1.52,0-.07-.13-.14c0,0-1.39-.33-1.21-.92,0,0,0-.75,3.39-.56,0,0,6.39-4.77,8.06-8.25,0,0,.85-1.31,1.67-1.35C22.17,86.31,23.22,86.17,23.19,87.1Z"/><path class="cls-3" d="M23.39,87.64A1.89,1.89,0,0,0,21,85.82C19.45,86.2,17,90.49,17,90.49c.42,1.15,3.14,2.33,3.14,2.33,1.37-.45,3.14-4.42,3.14-4.42Z"/><path class="cls-4" d="M28,109.5c.36-.14,8.82-2.14,8.82-2.14s2.09,2.39,3.19,2.79.12-3.57-1.77-6.75-2.78-.25-3.71,0-8.62,3.12-8.62,3.12l1.85,3.1"/><ellipse class="cls-5" cx="39.72" cy="109.54" rx="0.11" ry="0.29" transform="translate(-50.47 35.76) rotate(-30.78)"/><path class="cls-6" d="M19.86,104.36,25.39,110a1.18,1.18,0,0,0,1.26.28,6.56,6.56,0,0,0,3.93-4.19,1.15,1.15,0,0,0-.18-1c-1.08-1.47-4.54-6-7-7.23s-3.55,3.68-3.89,5.45A1.18,1.18,0,0,0,19.86,104.36Z"/><path class="cls-1" d="M17.79,106.85l3.29-1.49s2,8,2.14,8.91c0,0-.3.7-2.08,1.13a13.27,13.27,0,0,1-2.17.43c-.18-1.48-1-8.4-1.13-8.73"/><path class="cls-1" d="M19,115.19S15.89,116,15,116.8s3.15,1.7,6.84,1.42c3.28-.25,1.87-1.94,1.68-3"/><path class="cls-1" d="M23.22,114.27a9.85,9.85,0,0,1,.54,1.63c.1.57-1.9.72-1.9.72l-1.65-1.43.91-1.43Z"/><ellipse class="cls-5" cx="15.73" cy="116.79" rx="0.29" ry="0.11" transform="translate(-8.9 1.55) rotate(-4.39)"/><path class="cls-3" d="M19.56,99.94l-2.79,7.42a1.16,1.16,0,0,0,.28,1.26,6.57,6.57,0,0,0,5.46,1.78,1.14,1.14,0,0,0,.86-.61c.87-1.6,3.48-6.65,3.58-9.37s-4.85-1.65-6.59-1.21A1.17,1.17,0,0,0,19.56,99.94Z"/><path class="cls-7" d="M19.86,85C18.15,86.37,18.2,98.9,18.4,100.6s4.87,2.05,9,.66,1-9.76.17-13.64S23.22,82.23,19.86,85Z"/><polygon class="cls-7" points="20.19 84.13 19.86 84.98 20.96 85.23 20.19 84.13"/><polygon class="cls-3" points="24.32 82.98 20.19 84.13 20.99 85.69 25.2 84.14 24.32 82.98"/><path class="cls-1" d="M25.12,84.69a71.23,71.23,0,0,1,7.22,8.12l2.2,3.09s3.52,1.81,3.42,2.61c0,0,.1.61-2.09-.3,0,0-.26.07,0,.35s2,2.57,1.43,3.08c0,0-.46.5-2-1.76,0,0-.16-.17-.14.12,0,0,.71,3.58,0,4,0,0-.88-.23-1.74-3.38,0,0-.28,3-.93,2.92s-.56-3.75-.56-3.75-.06-.06-.17.09-.68,1.26-1.21.92c0,0-.73-.15.35-3.41,0,0-2.95-7.41-5.87-9.93,0,0-1-1.17-.87-2C24.09,85.46,24.24,84.41,25.12,84.69Z"/><path class="cls-3" d="M25.7,84.63a1.88,1.88,0,0,0-2.39,1.86c0,1.57,3.49,5,3.49,5,1.21-.11,3.06-2.43,3.06-2.43-.08-1.44-3.45-4.18-3.45-4.18Z"/><path class="cls-1" d="M15,62.71S10.86,64,9.59,67.43s-.55,4.82,0,7,.86,2.61.13,4.31S11.53,80,11.53,80s.53,2.37.65,2.55c0,0,2.25-1.08,2.79-1.42a6.91,6.91,0,0,1-2.13,2.32,2.28,2.28,0,0,0,.46.86,2.75,2.75,0,0,1,.46,1s.4,1.34,3.1.36,3.9-1.09,7-5.3c0,0,4.59-4,3.83-9.53S24,63.1,20,62.29,15,62.71,15,62.71Z"/><g class="cls-8"><path d="M8.37,68.18a16.2,16.2,0,0,1,5.73-2.46c3.36-.67,4.78-.33,5.36.5s.88,1.73,1.18,4.13.26,2.15.55,2.41c0,0,.41-1.4,1.5-1.56s2.11-.36,2.61,1a4.6,4.6,0,0,1-1.52,5s1.24,3,3,1.53l.48,1.4,4.18-2.36L33.67,75l-.23-12.45-4.56-3.08-8.6-.31L12,61,8.68,62.65l-.87,2-1,3.09"/></g><path class="cls-9" d="M23.21,71.8A2.13,2.13,0,0,0,22.45,74c.3,1.55,1.34,1.51,1.34,1.51A2.67,2.67,0,0,1,23,74a1.59,1.59,0,0,0,1.83-.53,3.79,3.79,0,0,1-1.77,0A2.61,2.61,0,0,1,23.21,71.8Z"/><path class="cls-10" d="M11.7,82s.09-.36,1.15-.55a17.28,17.28,0,0,0,2.32-.35,7.46,7.46,0,0,1-2.52,1.69C11.43,83.12,11.7,82,11.7,82Z"/><path class="cls-10" d="M15.17,81.06a2.94,2.94,0,0,1-1.67,2.58,1.08,1.08,0,0,1-1.18.07c-.6-.38.22-.76.69-1.08A17.35,17.35,0,0,0,15.17,81.06Z"/><path d="M21.19,72.76a26,26,0,0,0-1.4-3.25s-1.65-1.29-1.24-2.77c0,0,.43-1.19-.43-1.28,0,0,.81-1.37,1.28-1.27s2.55.4,2.55.4l1.48,1.2L24.15,67Z"/><path class="cls-2" d="M11.17,75a2,2,0,0,1,1.66-1.87c1.61-.2,2.36.45,2.56,1a1.58,1.58,0,0,1-1.09,2.22C12.82,76.83,11.46,76.76,11.17,75Z"/><g class="cls-11"><circle class="cls-9" cx="12.31" cy="75.86" r="1.32"/><circle cx="12.31" cy="75.86" r="0.88"/><circle class="cls-2" cx="11.6" cy="75.59" r="0.46"/></g><path d="M15,71a3,3,0,0,0-2.81-.23c-1.67.64-2,1.58-2,1.58s-.24.51.35.26a6.9,6.9,0,0,1,4.34-1.23S15.33,71.36,15,71Z"/><polygon class="cls-1" points="18.24 67.02 22.48 65.4 18.51 67.99 18.24 67.02"/><path d="M26.84,65.75s1.89,1,2.28,2.2S28.2,73,27.7,73.42s-2.88-4.31-2.88-4.31l-2.92-5-7.69-1a42.88,42.88,0,0,1,5.29-2.75c1.07-.24,3.52,2.45,3.52,2.45a38.15,38.15,0,0,1,3.87-.41C28.25,62.35,26.84,65.75,26.84,65.75Z"/></svg>