<svg id="_17" data-name="17" xmlns="http://www.w3.org/2000/svg" xmlns:xlink="http://www.w3.org/1999/xlink" viewBox="0 0 260 168"><defs><style>.cls-1{fill:#845633;}.cls-2{fill:#9e633b;}.cls-3{fill:#1a5686;}.cls-4{clip-path:url(#clip-path);}</style><clipPath id="clip-path"><path class="cls-1" d="M-15.71,58.58s-4.31.65-6.08,3.85-1.27,4.69-1,6.89.46,2.71-.51,4.28,1.55,1.57,1.55,1.57.16,2.43.26,2.62c0,0,2.38-.73,3-1a6.92,6.92,0,0,1-2.46,2,2.32,2.32,0,0,0,.33.92,2.61,2.61,0,0,1,.3,1s.2,1.39,3,.83,4-.5,7.68-4.2c0,0,5.14-3.28,5.21-8.85s-2.48-8.19-6.33-9.59S-15.71,58.58-15.71,58.58Z"/></clipPath></defs><path class="cls-1" d="M-9.65,82A70.77,70.77,0,0,1,1.08,83.8l3.65,1S8.61,84,9,84.7c0,0,.46.41-1.81,1.08,0,0-.16.22.18.3s3.14.76,3,1.5c0,0,0,.67-2.67-.1,0,0-.23,0,0,.18,0,0,2.8,2.34,2.5,3.08,0,0-.84.38-3.48-1.53,0,0,1.64,2.47,1.11,2.86s-2.8-2.56-2.8-2.56-.08,0-.07.17c0,0,.26,1.41-.36,1.48,0,0-.67.34-1.88-2.87,0,0-6.95-3.91-10.81-4,0,0-1.54-.25-1.91-1C-10,83.27-10.51,82.37-9.65,82Z"/><path class="cls-1" d="M-1.76,104.25c.3.13,6.39,4,7.82,4.92a1.92,1.92,0,0,0,2.12-1.48c.63-1.78.39-2,.39-2-.8-.52-9.62-5-9.62-5L-2,104.13"/><path class="cls-1" d="M6,108.87s1,3.25,1.87,4.07,1.58-3.21,1.16-6.88c-.38-3.43-2.16-1.65-3.16-1.56"/><ellipse class="cls-2" cx="7.79" cy="112.25" rx="0.11" ry="0.29" transform="translate(-12.56 1.59) rotate(-6.45)"/><path class="cls-3" d="M-8.85,99.58l5.09,6.07a1.17,1.17,0,0,0,1.24.37,6.54,6.54,0,0,0,4.23-3.88,1.18,1.18,0,0,0-.11-1c-1-1.54-4.09-6.3-6.41-7.71s-3.82,3.41-4.28,5.14A1.16,1.16,0,0,0-8.85,99.58Z"/><path class="cls-1" d="M-15.71,58.58s-4.31.65-6.08,3.85-1.27,4.69-1,6.89.46,2.71-.51,4.28,1.55,1.57,1.55,1.57.16,2.43.26,2.62c0,0,2.38-.73,3-1a6.92,6.92,0,0,1-2.46,2,2.32,2.32,0,0,0,.33.92,2.61,2.61,0,0,1,.3,1s.2,1.39,3,.83,4-.5,7.68-4.2c0,0,5.14-3.28,5.21-8.85s-2.48-8.19-6.33-9.59S-15.71,58.58-15.71,58.58Z"/><g class="cls-4"><path d="M-23.12,63a16.23,16.23,0,0,1,6-1.58c3.42-.15,4.77.4,5.22,1.3s.62,1.84.55,4.26-.06,2.18.18,2.47c0,0,.62-1.33,1.73-1.32s2.13,0,2.42,1.41a4.59,4.59,0,0,1-2.25,4.68s.78,3.16,2.78,2l.27,1.46,4.49-1.71L.89,73.49,2.53,61.15l-4-3.74L-10,55.82l-8.5.65L-22,57.57l-1.16,1.81-1.46,2.91"/></g></svg>