<svg id="_3" data-name="3" xmlns="http://www.w3.org/2000/svg" xmlns:xlink="http://www.w3.org/1999/xlink" viewBox="0 0 260 168"><defs><style>.cls-1{fill:#fff;}.cls-2{fill:#845633;}.cls-3{fill:#1a5686;}.cls-4{fill:#774828;}.cls-5{fill:#9e633b;}.cls-6{fill:#144e75;}.cls-7{fill:#cfeaa8;}.cls-8{fill:#835633;}.cls-9{fill:#663711;}.cls-10{fill:#4f2821;}.cls-11{clip-path:url(#clip-path);}</style><clipPath id="clip-path"><ellipse class="cls-1" cx="103.45" cy="113.55" rx="2.6" ry="2" transform="translate(-26.24 31.23) rotate(-15.26)"/></clipPath></defs><rect class="cls-2" x="98.05" y="120" width="2.98" height="4.21" transform="translate(183.64 255.32) rotate(-173.07)"/><path class="cls-2" d="M98.76,124.47a62.67,62.67,0,0,0-6.7,7l-2,2.67s-3.19,1.49-3.13,2.2c0,0-.11.54,1.86-.19,0,0,.24.06,0,.31s-1.84,2.21-1.37,2.68c0,0,.39.46,1.84-1.49,0,0,.15-.14.13.11,0,0-.75,3.16-.14,3.53,0,0,.79-.18,1.66-2.94,0,0,.15,2.62.73,2.62s.63-3.31.63-3.31,0,0,.14.08.56,1.14,1,.86c0,0,.66-.11-.19-3,0,0,2.87-6.48,5.55-8.62,0,0,1-1,.84-1.72C99.64,125.19,99.55,124.26,98.76,124.47Z"/><path class="cls-3" d="M98.67,125.9a1.68,1.68,0,0,1,2.63-.61c1.1.86,1.51,5.22,1.51,5.22-.76.78-3.39.75-3.39.75-1-.86-1-4.72-1-4.72Z"/><path class="cls-4" d="M104.44,144c.09.32,3.36,7.33,3.36,7.33a12.16,12.16,0,0,1,3.71.69c.88.54-2.43,2-5.69,2.48s-1.7-1.8-2.07-2.57-2.57-7.73-2.57-7.73l3.18-.41"/><ellipse class="cls-5" cx="110.9" cy="152.1" rx="0.26" ry="0.1" transform="matrix(0.99, -0.13, 0.13, 0.99, -18.87, 15.74)"/><path class="cls-6" d="M103.19,137.63l2.54,6.58a1,1,0,0,1-.24,1.12,5.81,5.81,0,0,1-4.84,1.62,1,1,0,0,1-.77-.53c-.78-1.42-3.14-5.89-3.25-8.3s4.29-1.51,5.84-1.12A1,1,0,0,1,103.19,137.63Z"/><path class="cls-2" d="M98.33,145.07c-.08.33-2.17,7.77-2.17,7.77a12.41,12.41,0,0,1,2.92,2.38c.52.9-3.11.64-6.18-.55s-.63-2.39-.59-3.24,3.06-7.74,3.06-7.74l3,1.15"/><ellipse class="cls-5" cx="98.5" cy="155.03" rx="0.1" ry="0.26" transform="translate(-81.61 191.05) rotate(-68.88)"/><path class="cls-3" d="M101.85,139.83l-2.5,6.59a1,1,0,0,1-.93.67,5.81,5.81,0,0,1-4.68-2,1,1,0,0,1-.22-.9c.36-1.58,1.59-6.48,3.12-8.35s4.2,1.75,5.1,3.06A1.06,1.06,0,0,1,101.85,139.83Z"/><path class="cls-7" d="M101.78,124.14c1.61,1.12,2.42,12.23,2.36,13.75s-4.18,2.15-8,1.19S94.64,130.5,95.11,127,98.61,121.94,101.78,124.14Z"/><polygon class="cls-7" points="101.44 123.41 101.78 124.14 100.83 124.44 101.44 123.41"/><polygon class="cls-3" points="97.7 122.67 101.44 123.41 100.83 124.85 96.99 123.76 97.7 122.67"/><path class="cls-2" d="M96.22,125.45a63,63,0,0,0,5.53,7.92l2.22,2.54s.85,3.41,1.56,3.49c0,0,.51.21.17-1.86,0,0,.11-.22.31,0s1.82,2.23,2.37,1.87c0,0,.53-.3-1.11-2.1,0,0-.11-.18.14-.1,0,0,3,1.34,3.43.82,0,0,0-.81-2.56-2.2,0,0,2.6.36,2.72-.21s-3.14-1.26-3.14-1.26,0-.06.12-.12c0,0,1.22-.33,1-.86,0,0,0-.66-3-.4,0,0-5.8-4.07-7.38-7.12,0,0-.79-1.14-1.52-1.15C97.1,124.73,96.17,124.63,96.22,125.45Z"/><path class="cls-3" d="M96.06,125.94a1.67,1.67,0,0,1,2.09-1.68c1.37.3,3.62,4,3.62,4-.34,1-2.72,2.14-2.72,2.14-1.24-.36-2.91-3.84-2.91-3.84Z"/><path d="M103.79,105.35s-1.07-1.68-4-1.53-5.75-.35-6.28-.07A5.57,5.57,0,0,0,91.7,107s-2.87.85-3.22,1.3.16,1.53,1.49,2.56c0,0-1.56,1.68-.92,2.81a23.54,23.54,0,0,0,2.64,3.18s2,3.68,5.07,3.38,2.74-12.72,2.74-12.72Z"/><path class="cls-8" d="M103.79,105.35s1.91.86,2.47,4.25,1.45,3.91,2.26,4.89c0,0,.37.41-.34,1s-.92.48-.53,1.11c0,0,.37,1-.31,1.25a4,4,0,0,1-2.09-.18,4.25,4.25,0,0,0,1.9,1.22s.3.09.19.51-3.71,5.64-10.58.86l0-1.65s-2.91-.83-3.1-3.27,2.35-2,3.28-1.19c0,0,.2-.16-.16-1.36s.61-3.32.32-3.42-3.87-.41-3.87-.41a17.38,17.38,0,0,0,3.47-.58.69.69,0,0,1-.22-1.09C97,106.52,100.89,105,103.79,105.35Z"/><path class="cls-9" d="M105.15,117.63s2.41-1.38,2.79-.69S107.57,118.22,105.15,117.63Z"/><path class="cls-9" d="M105.17,117.61a11,11,0,0,0,2,.87c.76.19.62.39.52.65s-.83.64-1.64-.1A2.28,2.28,0,0,1,105.17,117.61Z"/><path class="cls-10" d="M95.25,114.12a1.87,1.87,0,0,1,1.19,1.25,1.73,1.73,0,0,1-.36,1.92,5.06,5.06,0,0,0-.09-1.4s-1.06.68-1.57.17a3.06,3.06,0,0,0,1.3-.69A6,6,0,0,0,95.25,114.12Z"/><path d="M104.69,110.07a4,4,0,0,0-2,0,10.05,10.05,0,0,0-1.7.69c-.32.08-.29-.59.5-1.2a4.06,4.06,0,0,1,2.81-.36C104.92,109.33,105.71,109.91,104.69,110.07Z"/><ellipse class="cls-1" cx="103.45" cy="113.55" rx="2.6" ry="2" transform="translate(-26.24 31.23) rotate(-15.26)"/><g class="cls-11"><circle class="cls-10" cx="104.59" cy="112.91" r="1.47"/><circle cx="104.59" cy="112.91" r="0.94"/><circle class="cls-1" cx="105.06" cy="111.84" r="0.6"/></g></svg>