<svg xmlns="http://www.w3.org/2000/svg" xmlns:xlink="http://www.w3.org/1999/xlink" viewBox="0 0 260 168"><defs><style>.cls-1{fill:#fff;}.cls-2{fill:#845633;}.cls-3{fill:none;stroke:#77492a;stroke-linecap:round;stroke-linejoin:round;stroke-width:0.17px;}.cls-4{fill:#1a5686;}.cls-5{fill:#774828;}.cls-6{fill:#9e633b;}.cls-7{fill:#144e75;}.cls-8{fill:#cfeaa8;}.cls-9{fill:#835633;}.cls-10{fill:#663711;}.cls-11{fill:#4f2821;}.cls-12{clip-path:url(#clip-path);}</style><clipPath id="clip-path"><ellipse class="cls-1" cx="119.18" cy="60.49" rx="2.6" ry="2" transform="translate(-8.53 21.07) rotate(-9.75)"/></clipPath></defs><g id="Layer_1" data-name="Layer 1"><rect class="cls-2" x="112.47" y="66.19" width="3.49" height="4.93" transform="translate(235.95 122.87) rotate(173)"/><path class="cls-2" d="M128.73,79.65l-3.35-1.45a61.87,61.87,0,0,1-9.14-5.35,1,1,0,0,1,.47-1.34c.69-.42,2,.35,2,.35,3,2.39,10.49,3.35,10.49,3.35s2.26-1,2.86.57l.25.57s3,.79,3.65,1.71-.71,1-3,.44C133,78.5,132.14,81.77,128.73,79.65Z"/><path class="cls-2" d="M132.36,76.58a1.92,1.92,0,0,1-.55,1.61c-.68.51-1.14-.53-1-1.62,0,0-.2,1.12-.86,1.19"/><ellipse class="cls-2" cx="132.42" cy="78.38" rx="0.68" ry="0.99" transform="translate(0.45 157.5) rotate(-61.57)"/><ellipse class="cls-2" cx="131.83" cy="79.35" rx="0.68" ry="0.99" transform="translate(-0.72 157.49) rotate(-61.57)"/><ellipse class="cls-2" cx="131.08" cy="79.84" rx="0.68" ry="0.99" transform="translate(-1.54 157.1) rotate(-61.57)"/><path class="cls-3" d="M132.36,76.58a1.92,1.92,0,0,1-.55,1.61c-.68.51-1.14-.53-1-1.62,0,0-.2,1.12-.86,1.19"/><path class="cls-3" d="M133.31,78.41s0-.49-1.09-.76"/><path class="cls-3" d="M132.53,79.06s-.85-.19-1-.7"/><path class="cls-3" d="M131.83,80s-1.1-.33-1-1,.5-.62.86-.31"/><path class="cls-3" d="M130.79,79.25s-.85,0-.31.83"/><path class="cls-4" d="M115.05,74a2,2,0,0,1,1.18-2.92c1.56-.48,6,2.06,6,2.06.24,1.25-1.56,3.75-1.56,3.75-1.47.34-5.18-2.26-5.18-2.26Z"/><path class="cls-5" d="M128.26,86.83c0,.39,2.28,9.17,2.28,9.17s3.21.77,4.12,1.59-3.24,1.83-7.08,1.62-1.58-2.43-1.83-3.4-1.29-9.45-1.29-9.45l3.75.21"/><ellipse class="cls-6" cx="133.94" cy="97.59" rx="0.12" ry="0.31" transform="translate(29.16 225.98) rotate(-86.86)"/><path class="cls-7" d="M119.56,81.78l7.92,2.35a1.21,1.21,0,0,1,.86,1,6.83,6.83,0,0,1-2,5.65,1.21,1.21,0,0,1-1,.33c-1.87-.29-7.71-1.3-10-2.93S117,83.15,118.46,82A1.18,1.18,0,0,1,119.56,81.78Z"/><path class="cls-2" d="M127.86,89.3c0,.39.56,9.43.56,9.43s3,1.35,3.76,2.32-3.53,1.21-7.26.3-1.11-2.69-1.18-3.68.47-9.53.47-9.53l3.65.89"/><ellipse class="cls-6" cx="131.47" cy="100.92" rx="0.12" ry="0.31" transform="translate(2.27 204.72) rotate(-76.29)"/><path class="cls-4" d="M119.9,83.62l7.32,3.8a1.21,1.21,0,0,1,.66,1.17,6.83,6.83,0,0,1-3,5.18,1.24,1.24,0,0,1-1.09.14c-1.78-.64-7.32-2.73-9.29-4.77s2.6-4.65,4.26-5.52A1.25,1.25,0,0,1,119.9,83.62Z"/><path class="cls-8" d="M117.33,70.34c2.15.82,6.21,13.22,6.56,15s-4.14,3.62-8.7,3.6-4.18-9.32-4.63-13.43S113.11,68.73,117.33,70.34Z"/><polygon class="cls-8" points="116.73 69.61 117.33 70.34 116.33 70.95 116.73 69.61"/><polygon class="cls-4" points="112.28 69.82 116.73 69.61 116.45 71.41 111.78 71.26 112.28 69.82"/><path class="cls-2" d="M112.8,71.24a72.71,72.71,0,0,0-9.67,5.87L100,79.52s-4,.73-4.2,1.56c0,0-.28.57,2.17.33,0,0,.24.15,0,.37s-2.75,2-2.37,2.63c0,0,.31.63,2.55-1.14,0,0,.21-.12.1.16,0,0-1.8,3.35-1.22,3.95,0,0,1,0,2.77-2.83,0,0-.62,3,0,3.19s1.7-3.56,1.7-3.56.07,0,.14.14c0,0,.29,1.46.92,1.29,0,0,.78.07.7-3.51,0,0,5.2-6.47,8.88-8.09,0,0,1.38-.84,1.46-1.69C113.58,72.32,113.76,71.23,112.8,71.24Z"/><path class="cls-4" d="M112.23,71a2,2,0,0,1,1.82,2.58c-.45,1.57-5,3.92-5,3.92-1.18-.48-2.3-3.35-2.3-3.35.51-1.41,4.71-3.11,4.71-3.11Z"/><path d="M120.3,52.35s-.91-1.77-3.81-1.9-5.68-.9-6.24-.67a5.55,5.55,0,0,0-2.14,3s-2.94.58-3.33,1,0,1.53,1.23,2.69c0,0-1.7,1.51-1.17,2.7a22.71,22.71,0,0,0,2.32,3.42s1.67,3.86,4.72,3.85,3.94-12.4,3.94-12.4Z"/><path class="cls-9" d="M120.3,52.35s1.82,1,2,4.47,1.07,4,1.78,5.09c0,0,.33.44-.43.91s-1,.39-.63,1c0,0,.27,1-.43,1.22a4,4,0,0,1-2.06-.38,4.29,4.29,0,0,0,1.77,1.4s.29.11.14.52-4.24,5.26-10.61-.16l.19-1.64s-2.81-1.1-2.77-3.55,2.53-1.76,3.38-.87c0,0,.21-.14,0-1.37s.92-3.25.64-3.37-3.82-.78-3.82-.78a17.34,17.34,0,0,0,3.52-.24.7.7,0,0,1-.12-1.11C113.46,52.87,117.45,51.75,120.3,52.35Z"/><path class="cls-10" d="M120.48,64.71s2.52-1.14,2.83-.42S122.83,65.53,120.48,64.71Z"/><path class="cls-10" d="M120.49,64.7a11.45,11.45,0,0,0,1.87,1c.74.27.58.45.46.7s-.89.56-1.62-.26A2.28,2.28,0,0,1,120.49,64.7Z"/><path class="cls-11" d="M111,60.27A1.86,1.86,0,0,1,112,61.63a1.7,1.7,0,0,1-.54,1.87,5.52,5.52,0,0,0,0-1.41s-1.12.58-1.59,0a3,3,0,0,0,1.36-.56A5.28,5.28,0,0,0,111,60.27Z"/><path d="M120.74,57.14a3.9,3.9,0,0,0-1.95-.17,10.15,10.15,0,0,0-1.76.52c-.33.06-.23-.61.62-1.14a4,4,0,0,1,2.82-.09C121,56.43,121.78,57.08,120.74,57.14Z"/><ellipse class="cls-1" cx="119.18" cy="60.49" rx="2.6" ry="2" transform="translate(-8.53 21.07) rotate(-9.75)"/><g class="cls-12"><circle class="cls-11" cx="120.65" cy="60.77" r="1.47"/><circle cx="120.65" cy="60.77" r="0.94"/><circle class="cls-1" cx="121.22" cy="59.76" r="0.6"/></g></g></svg>