<svg id="Layer_1" data-name="Layer 1" xmlns="http://www.w3.org/2000/svg" xmlns:xlink="http://www.w3.org/1999/xlink" viewBox="0 0 260 168"><defs><style>.cls-1{fill:#cfeaa8;}.cls-2{fill:#845633;}.cls-3{fill:#fff;}.cls-4{fill:#1a5686;}.cls-5{fill:none;stroke:#77492a;stroke-linecap:round;stroke-linejoin:round;stroke-width:0.15px;}.cls-6{clip-path:url(#clip-path);}.cls-7{clip-path:url(#clip-path-2);}.cls-8{fill:#620100;}.cls-9{clip-path:url(#clip-path-3);}.cls-10{fill:#4f2821;}.cls-11{clip-path:url(#clip-path-4);}.cls-12{fill:#64340f;}.cls-13{fill:#9b623b;}</style><clipPath id="clip-path"><path class="cls-1" d="M217.84,89.13a44.11,44.11,0,0,1-.19-6.1l-1-.32a.33.33,0,0,0-.1,0l-1.66-.38-2.25,2.35L211.08,82l-1.11.3a4.56,4.56,0,0,0-1.53.41l-.76.48a16.26,16.26,0,0,0-.57,6.26,68,68,0,0,1-.12,8.71s.31.58,6.11.76,6-.56,6-.56Z"/></clipPath><clipPath id="clip-path-2"><path class="cls-2" d="M210.32,58.12a9.63,9.63,0,0,0-5.67,9.73s-3.16-.53-2.78,3.27a2.72,2.72,0,0,0,3.4,2.4s1,5.08,3.92,7,4.89,1.5,6.65.68,4.67-5.5,4.89-7.4c0,0,2.55,1.61,3.79-1.92,0,0,1.06-3.14-2.47-3,0,0,1-7.8-4.18-10.15C213,56.54,210.32,58.12,210.32,58.12Z"/></clipPath><clipPath id="clip-path-3"><path class="cls-3" d="M207,70a2,2,0,0,1,2.05-1.46c1.62.16,2.21,1,2.28,1.56A1.58,1.58,0,0,1,209.77,72C208.2,72.18,206.9,71.8,207,70Z"/></clipPath><clipPath id="clip-path-4"><path class="cls-3" d="M219.24,70a2,2,0,0,0-2.05-1.46c-1.62.16-2.21,1-2.28,1.56A1.58,1.58,0,0,0,216.47,72C218,72.18,219.35,71.8,219.24,70Z"/></clipPath></defs><path class="cls-2" d="M217.65,83.39a64.16,64.16,0,0,1,4.42,9l1.2,3.28s2.68,2.46,2.39,3.15c0,0-.06.56-1.77-.77,0,0-.25,0-.14.29s1.12,2.75.52,3.08c0,0-.53.33-1.36-2,0,0-.1-.19-.15.07,0,0-.25,3.34-1,3.52,0,0-.73-.42-.72-3.42,0,0-1,2.55-1.54,2.36s.42-3.46.42-3.46,0-.07-.17,0-.91.94-1.3.52c0,0-.61-.31,1.14-2.94,0,0-.8-7.3-2.78-10.24,0,0-.64-1.29-.29-2C216.55,83.82,216.93,82.93,217.65,83.39Z"/><path class="cls-2" d="M216.28,107.32a60,60,0,0,1-.3,6.06,2.75,2.75,0,0,0,1.73.49,2.56,2.56,0,0,1,2.81-1.69s-.55-4.8-.62-6l-1.58-1Z"/><path class="cls-2" d="M209.19,107.32a53.3,53.3,0,0,0,.15,6.05,2.23,2.23,0,0,1-1.59.5,2.54,2.54,0,0,0-2.8-1.69s.54-4.8.61-6l1.58-1Z"/><path class="cls-4" d="M212.68,100.89a11.23,11.23,0,0,0,1.49,4s1.38,2.66,1.5,3.06a5.68,5.68,0,0,0,5.11-1.63S219,98,218.52,97.11l-4.44-.21s-3.62,0-2.25,2.28C211.9,99.3,212.68,100.89,212.68,100.89Z"/><path class="cls-4" d="M212.45,101.73l1.4-4-5.46-.78-1.25.33v.26l-.49,2.53a59.25,59.25,0,0,0-2,6.42,3.93,3.93,0,0,0,3.11,1.5c2.28.16,2.16-.22,2.16-.22A45.81,45.81,0,0,0,212.45,101.73Z"/><path class="cls-2" d="M195.07,87.47l3.47-.34a65.4,65.4,0,0,0,9.78-2.06c.62-.58-.15-1.17-.15-1.17-.56-.5-2-.21-2-.21-3.34,1.19-10.61.15-10.61.15s-1.9-1.37-2.81-.23l-.37.39s-3-.1-3.81.48.44,1,2.71,1.06C191.31,85.54,191.39,88.34,195.07,87.47Z"/><path class="cls-2" d="M192.32,84.17a1.4,1.4,0,0,0,.16,1.41c.54.56,1.19-.15,1.32-1,0,0-.06.93.55,1.15"/><ellipse class="cls-2" cx="191.87" cy="85.58" rx="0.94" ry="0.57" transform="translate(-7.72 19.98) rotate(-5.84)"/><ellipse class="cls-2" cx="192.22" cy="86.49" rx="0.94" ry="0.57" transform="translate(-7.81 20.02) rotate(-5.84)"/><ellipse class="cls-2" cx="192.81" cy="87.06" rx="0.94" ry="0.57" transform="translate(-7.86 20.08) rotate(-5.84)"/><path class="cls-5" d="M192.32,84.17a1.4,1.4,0,0,0,.16,1.41c.54.56,1.19-.15,1.32-1,0,0-.06.93.55,1.15"/><path class="cls-5" d="M191,85.4s.15-.39,1.2-.35"/><path class="cls-5" d="M191.62,86.09s.84.06,1.09-.31"/><path class="cls-5" d="M192.08,87s1.1,0,1.19-.59-.34-.61-.74-.45"/><path class="cls-5" d="M193.21,86.67s.8.21.12.73"/><path class="cls-4" d="M208.4,83.29s-4.76-.17-5.81,0c0,0-.39,2.69.3,3.58,0,0,4.25.65,5.29-.36,0,0,2-2,.22-3.21"/><path class="cls-4" d="M218.06,83.31s2.37,4.12,2.72,5.13c0,0-2.2,1.6-3.31,1.4,0,0-1.57-2.37-1.16-3.76,0,0-.18-3.76,1.75-2.77"/><path class="cls-2" d="M211.08,81a2,2,0,0,1,0,1c-.16.37-2.42.56-3,1.37s-.33,5.25-.33,5.25l.63,9.76s9.2,0,9.2-.18.19-10.47,0-11.69.34-3-1.42-3.69-2-.67-2-.67a2.21,2.21,0,0,1,0-1.15,11,11,0,0,0-1.38-.48Z"/><path class="cls-1" d="M217.84,89.13a44.11,44.11,0,0,1-.19-6.1l-1-.32a.33.33,0,0,0-.1,0l-1.66-.38-2.25,2.35L211.08,82l-1.11.3a4.56,4.56,0,0,0-1.53.41l-.76.48a16.26,16.26,0,0,0-.57,6.26,68,68,0,0,1-.12,8.71s.31.58,6.11.76,6-.56,6-.56Z"/><g class="cls-6"><polyline class="cls-4" points="209.59 81.4 211.32 85.83 212.67 84.65 213.95 86 216.71 82 210.21 80.52 209.38 81.64"/></g><path class="cls-2" d="M210.32,58.12a9.63,9.63,0,0,0-5.67,9.73s-3.16-.53-2.78,3.27a2.72,2.72,0,0,0,3.4,2.4s1,5.08,3.92,7,4.89,1.5,6.65.68,4.67-5.5,4.89-7.4c0,0,2.55,1.61,3.79-1.92,0,0,1.06-3.14-2.47-3,0,0,1-7.8-4.18-10.15C213,56.54,210.32,58.12,210.32,58.12Z"/><g class="cls-7"><path d="M204.54,67.67l0,.1s1-3.54,2.61-5.17a2.19,2.19,0,0,1,2-.82c1.14.27,3,1,9.37.35,0,0,1.21-.44,2.05,1.42a29.52,29.52,0,0,1,1.47,5s1.12-1,1.19-1.53,1-5,1-5L223,58.31,220,56.58s.48-.53-3.85-.46,1.17-1.28-3.69-.07-3.21.62-3.21.62l-7,5.75"/></g><path class="cls-8" d="M210.05,77.53a3.25,3.25,0,0,0-.54.16l.94.55,2.34,1.12,2.72-.66.5-.78.14-.23-2.1-.65-3.31.18Z"/><path class="cls-3" d="M207,70a2,2,0,0,1,2.05-1.46c1.62.16,2.21,1,2.28,1.56A1.58,1.58,0,0,1,209.77,72C208.2,72.18,206.9,71.8,207,70Z"/><g class="cls-9"><circle class="cls-10" cx="208.78" cy="70.85" r="1.33"/><circle cx="208.78" cy="70.85" r="0.88"/><circle class="cls-3" cx="208.14" cy="70.43" r="0.46"/></g><path class="cls-10" d="M211.09,74.26s.37.7,1.88.7,1.94-.7,1.92-.7a3.05,3.05,0,0,0-1.76-2.1C211.7,71.65,211.09,74.26,211.09,74.26Z"/><path class="cls-3" d="M219.24,70a2,2,0,0,0-2.05-1.46c-1.62.16-2.21,1-2.28,1.56A1.58,1.58,0,0,0,216.47,72C218,72.18,219.35,71.8,219.24,70Z"/><g class="cls-11"><circle class="cls-10" cx="216.68" cy="70.77" r="1.33"/><circle cx="216.68" cy="70.77" r="0.88"/><circle class="cls-3" cx="216.03" cy="70.35" r="0.46"/></g><path d="M207.13,67a3,3,0,0,1,2.7-.85,3.11,3.11,0,0,1,2.29,1.1s.35.45-.28.33a6.92,6.92,0,0,0-4.53-.23S206.86,67.38,207.13,67Z"/><path class="cls-3" d="M211,77.53a4.38,4.38,0,0,0,4.22.19l-2.11-.5Z"/><path d="M215.15,66.7a3.29,3.29,0,0,1,2.63-.85,3.2,3.2,0,0,1,2.45,1.09c.14.2.05.43-.4.31a8,8,0,0,0-4.34-.21S214.89,67.1,215.15,66.7Z"/><path class="cls-12" d="M209.39,77.51a7.4,7.4,0,0,1,2.83-.82,6.17,6.17,0,0,1,3.25.52,4.16,4.16,0,0,0,1,.44S211.39,78,209.39,77.51Z"/><path class="cls-12" d="M209.3,77.53a2.29,2.29,0,0,1,.8.91,2.31,2.31,0,0,0,2.1,1.64,3.37,3.37,0,0,0,3.1-.92c.78-.77.58-1.11,1.2-1.39,0,0-1.15.37-1.9.57a5.84,5.84,0,0,1-3.88-.22Z"/><path class="cls-10" d="M204.23,68.91a2.39,2.39,0,0,1,1,1.84,2,2,0,0,1-.86,1.69s.54-.93.4-1.45a1.66,1.66,0,0,1-1.69-.23s1.45,0,1.56-.35A2.51,2.51,0,0,0,204.23,68.91Z"/><path class="cls-10" d="M222.32,69.64A2.28,2.28,0,0,0,221,71.2a1.74,1.74,0,0,0,.51,1.78,4.25,4.25,0,0,1,0-1.44,1.77,1.77,0,0,0,1.69.14s-1.24-.12-1.48-.68A2.63,2.63,0,0,1,222.32,69.64Z"/><path d="M204.66,67.33A16,16,0,0,1,202,63.72s.67-1.15,3.6-1.4c0,0-1-3.69-.49-4.8,0,0,1.51-.41,3.71,1.23,0,0,.42-3.71,2.26-4.14a5.08,5.08,0,0,1,3,3l-1.17,2.15s-6.05,1.38-5.93,1.51-1.81,2.46-1.68,2.64A26.73,26.73,0,0,1,204.66,67.33Z"/><path d="M222.05,68.48a16.61,16.61,0,0,0,3.46-3.94s-.2-1.26-3.32-1.5c0,0,1.4-3.78.8-4.88,0,0-1.12-.37-3.47,1.27,0,0-.45-3.71-2.41-4.14a5.34,5.34,0,0,0-3.2,3l1.25,2.15s4.06,1.6,5.19,1.56a8.65,8.65,0,0,1,1,2.88A27.57,27.57,0,0,0,222.05,68.48Z"/><path class="cls-2" d="M207.48,62.83a12,12,0,0,1-1.6-.37l.94,1.08.91-.31"/><polyline class="cls-2" points="219.7 63.54 221.69 63.19 220.48 64.28"/><path class="cls-2" d="M209.34,113.37v1.86s.43.68-.77,1-3,1.67-4.33,1.41-4-.89-2.4-2.14,2.66-1.87,3.11-3.37l1.56-1.08Z"/><ellipse class="cls-13" cx="204.82" cy="116.76" rx="0.55" ry="0.22"/><ellipse class="cls-13" cx="203.71" cy="116.62" rx="0.36" ry="0.14"/><ellipse class="cls-13" cx="203" cy="116.4" rx="0.36" ry="0.14"/><ellipse class="cls-13" cx="202.37" cy="116.11" rx="0.36" ry="0.14"/><ellipse class="cls-13" cx="201.82" cy="115.85" rx="0.28" ry="0.11"/><path class="cls-2" d="M216.05,113.37v1.86s-.42.68.77,1,3,1.67,4.33,1.41,4-.89,2.41-2.14-2.66-1.87-3.11-3.37l-1.56-1.08Z"/><ellipse class="cls-13" cx="220.58" cy="116.76" rx="0.55" ry="0.22"/><ellipse class="cls-13" cx="221.68" cy="116.62" rx="0.36" ry="0.14"/><ellipse class="cls-13" cx="222.4" cy="116.4" rx="0.36" ry="0.14"/><ellipse class="cls-13" cx="223.03" cy="116.11" rx="0.36" ry="0.14"/><ellipse class="cls-13" cx="223.57" cy="115.85" rx="0.28" ry="0.11"/></svg>