<svg xmlns="http://www.w3.org/2000/svg" xmlns:xlink="http://www.w3.org/1999/xlink" viewBox="0 0 260 168"><defs><style>.cls-1{fill:#845633;}.cls-2{fill:#fff;}.cls-3{fill:#1a5686;}.cls-4{fill:#774828;}.cls-5{fill:#9e633b;}.cls-6{fill:#144e75;}.cls-7{fill:#cfeaa8;}.cls-8{clip-path:url(#clip-path);}.cls-9{fill:#4f2821;}.cls-10{fill:#64340f;}.cls-11{clip-path:url(#clip-path-2);}</style><clipPath id="clip-path"><path class="cls-1" d="M43.83,61.27s-4.29.8-5.95,4.07-1.09,4.73-.75,6.92.55,2.69-.36,4.29,1.61,1.52,1.61,1.52.25,2.41.36,2.6c0,0,2.35-.81,2.93-1.09a6.88,6.88,0,0,1-2.39,2.06,2.4,2.4,0,0,0,.36.91,2.85,2.85,0,0,1,.35,1s.24,1.37,3,.71,4-.65,7.53-4.47c0,0,5-3.47,4.89-9s-2.78-8.11-6.68-9.37S43.83,61.27,43.83,61.27Z"/></clipPath><clipPath id="clip-path-2"><path class="cls-2" d="M38.59,73a2,2,0,0,1,1.87-1.67c1.62,0,2.29.71,2.42,1.3a1.57,1.57,0,0,1-1.33,2.08C40,75.05,38.68,74.82,38.59,73Z"/></clipPath></defs><g id="_9" data-name="9"><path class="cls-3" d="M59,96.32a2.74,2.74,0,0,1,.62,1.07,5.32,5.32,0,0,1,.16,1.06,5.14,5.14,0,0,1-.55,3.38,14.89,14.89,0,0,0-1.35-3,1.74,1.74,0,0,1-.32-.8,1.21,1.21,0,0,1,.48-.88c.26-.22.56-.39.83-.6a.33.33,0,0,1-.1.26"/><path class="cls-1" d="M46.87,101.71a1.46,1.46,0,0,0-.47,1.43,2.31,2.31,0,0,0,.87,1.29.79.79,0,0,0,.59.21c.28-.06.42-.38.51-.65a1.85,1.85,0,0,0,.12-1.13,1.25,1.25,0,0,0-.31-.45,2.26,2.26,0,0,0-1.15-.63l0,.16"/><path class="cls-1" d="M48,92.89c.17-.48.34-1,.5-1.48a16.62,16.62,0,0,0,.91-5s.14-1.56.84-2c0,0,.86-.61,1.26.22A65,65,0,0,1,51,92.21l0,.24c-.06.48-.12.94-.19,1.39,0,0,.14,1.21-1.72,1.69-.1,0-.11-.12-.11-.12l-.82-1.48Z"/><rect class="cls-1" x="47.14" y="79.33" width="3.36" height="4.73" transform="translate(-28.02 25.55) rotate(-22.98)"/><path class="cls-3" d="M49.12,84.36a1.88,1.88,0,0,1,3,.4c.81,1.35-.51,6.09-.51,6.09-1.1.52-3.86-.56-3.86-.56-.66-1.29.89-5.35.89-5.35Z"/><path class="cls-1" d="M50.14,95l-.87.64-3.12,2.17s-1.85,3.49-2.65,3.38c0,0-.61.1.32-2.08,0,0-.06-.26-.35,0s-2.58,1.94-3.09,1.39c0,0-.49-.46,1.78-2,0,0,.17-.16-.11-.15,0,0-3.59.67-4,0,0,0,.24-.88,3.4-1.7,0,0-2.94-.31-2.91-1s3.76-.52,3.76-.52.06,0-.09-.16c0,0-1.25-.7-.91-1.22,0,0,.16-.73,3.41.38,0,0,1.84-.71,4-1.78"/><path class="cls-3" d="M53,85.29a1.88,1.88,0,0,0-2.81-1.12c-1.37.78-2.55,5.56-2.55,5.56.72,1,3.65,1.4,3.65,1.4,1.21-.8,1.85-5.1,1.85-5.1Z"/><path class="cls-4" d="M56.07,107.31l4.28,7.63.49-.24a6.79,6.79,0,0,0,1.17-.81c2.06-1.69,1.73-1.94,1.73-1.94-.46-.84-5.32-7.46-5.32-7.46l-2.49,2.61Z"/><path class="cls-4" d="M59.82,114.2s-2.4,2.08-2.8,3.18,3.57.13,6.75-1.76c2.74-1.62,1-2.5.27-3.31"/><ellipse class="cls-5" cx="57.82" cy="117.3" rx="0.29" ry="0.11" transform="translate(-20.51 12.58) rotate(-10.56)"/><path class="cls-4" d="M63.78,111.88a3.78,3.78,0,0,1,.56,1l-1.51.24-.61-1,.8-.6Z"/><path class="cls-6" d="M51.43,101.9l4.25,6.69a1.15,1.15,0,0,0,1.17.53,7.62,7.62,0,0,0,4.65-3.85c.18-.32-.51-1.81-.67-2.15-.76-1.65-2.46-5.13-4.58-6.83s-4.23,2.87-4.92,4.53A1.15,1.15,0,0,0,51.43,101.9Z"/><path class="cls-1" d="M46.89,104.11c.19.28,3.38,6.75,4.13,8.27a1.92,1.92,0,0,0,2.58-.16c1.47-1.2,1.39-1.53,1.39-1.53-.42-.86-5.62-9.28-5.62-9.28l-2.61,2.49"/><path class="cls-1" d="M51.09,112.07s-.8,3.32-.51,4.45,3-1.92,4.56-5.27c1.45-3.14-1-2.54-1.89-3"/><ellipse class="cls-5" cx="50.9" cy="115.91" rx="0.29" ry="0.11" transform="translate(-75.67 113.44) rotate(-65.17)"/><path class="cls-3" d="M53.62,97l-6.78,4.1a1.16,1.16,0,0,0-.56,1.16c.17,1.17,3.43,2.45,5.82,3.86.32.18.16.42.49.27A19.51,19.51,0,0,0,59.13,102c1.73-2.06-2.79-4.3-4.43-5A1.15,1.15,0,0,0,53.62,97Z"/><path class="cls-7" d="M47,84.6c-1.4,1.71,1.18,14,1.73,15.6s5.18,1,9-1.18-1-9.77-2.59-13.4S49.77,81.23,47,84.6Z"/><polygon class="cls-7" points="47.18 83.7 47.04 84.6 48.16 84.63 47.18 83.7"/><polygon class="cls-3" points="51 81.74 47.18 83.7 48.29 85.06 52.1 82.69 51 81.74"/><path class="cls-1" d="M54.47,88.17l2.31,2.34a51.88,51.88,0,0,1,2.11,5.74c-1.37,3.15-.65,3.37-.65,3.37.49.38,1.28-.81,1.28-.81s.18-.08.18-.08-.44,3.71.21,3.8,1.2-2.83,1.2-2.83c.56,3.22,1.42,3.53,1.42,3.53.74-.33.36-4,.36-4,0-.29.16-.1.16-.1,1.34,2.39,1.84,1.93,1.84,1.93.58-.46-1-2.89-1.14-3.19s.09-.34.09-.34c2.09,1.1,2,.49,2,.49.18-.79-3.16-2.92-3.16-2.92l-1.9-3.28c-.45-.78-1-1.66-1.66-2.57a12.29,12.29,0,0,0-3.4-2.15Z"/><path class="cls-1" d="M57.14,90.88a16,16,0,0,0-3.94-2.94s-1.32-.83-1.39-1.65c0,0-.15-1,.77-1a61.18,61.18,0,0,1,6.22,3.66"/><path class="cls-3" d="M51.82,83.71a1.88,1.88,0,0,0-1.77,2.45C50.46,87.67,54.8,90,54.8,90c1.14-.45,2.26-3.19,2.26-3.19-.48-1.36-4.48-3-4.48-3Z"/><path class="cls-1" d="M43.83,61.27s-4.29.8-5.95,4.07-1.09,4.73-.75,6.92.55,2.69-.36,4.29,1.61,1.52,1.61,1.52.25,2.41.36,2.6c0,0,2.35-.81,2.93-1.09a6.88,6.88,0,0,1-2.39,2.06,2.4,2.4,0,0,0,.36.91,2.85,2.85,0,0,1,.35,1s.24,1.37,3,.71,4-.65,7.53-4.47c0,0,5-3.47,4.89-9s-2.78-8.11-6.68-9.37S43.83,61.27,43.83,61.27Z"/><g class="cls-8"><path d="M36.58,66a16,16,0,0,1,6-1.8c3.41-.28,4.79.22,5.26,1.11s.69,1.81.71,4.23,0,2.18.27,2.47c0,0,.57-1.35,1.67-1.39s2.14-.11,2.47,1.32a4.56,4.56,0,0,1-2.07,4.76s.89,3.13,2.85,1.87L54,80l4.43-1.86L61,75.56l1.19-12.39L58,59.58l-8.5-1.28-8.48,1-3.45,1.22-1.09,1.86-1.35,3"/></g><path class="cls-9" d="M50.91,71.23a2.14,2.14,0,0,0-1,2.13C50,74.94,51.07,75,51.07,75a2.65,2.65,0,0,1-.57-1.62,1.58,1.58,0,0,0,1.88-.31,3.88,3.88,0,0,1-1.76-.21A2.63,2.63,0,0,1,50.91,71.23Z"/><path class="cls-10" d="M38.32,80s.14-.35,1.21-.42a15,15,0,0,0,2.34-.08,7.46,7.46,0,0,1-2.69,1.4C37.92,81.14,38.32,80,38.32,80Z"/><path class="cls-10" d="M41.87,79.51a2.93,2.93,0,0,1-1.95,2.38,1.07,1.07,0,0,1-1.18-.07c-.55-.45.31-.73.81-1A17.26,17.26,0,0,0,41.87,79.51Z"/><path d="M48.8,72a26.47,26.47,0,0,0-1-3.39s-1.49-1.47-.91-2.89c0,0,.56-1.14-.28-1.33,0,0,.95-1.27,1.41-1.11s2.49.68,2.49.68l1.34,1.37.57,1.28Z"/><path class="cls-2" d="M38.59,73a2,2,0,0,1,1.87-1.67c1.62,0,2.29.71,2.42,1.3a1.57,1.57,0,0,1-1.33,2.08C40,75.05,38.68,74.82,38.59,73Z"/><g class="cls-11"><circle class="cls-9" cx="39.63" cy="74.02" r="1.32"/><circle cx="39.63" cy="74.02" r="0.88"/><circle class="cls-2" cx="38.95" cy="73.67" r="0.46"/></g><path d="M42.83,69.52A3,3,0,0,0,40.07,69a3.12,3.12,0,0,0-2.15,1.34s-.3.48.31.3a7,7,0,0,1,4.46-.73S43.14,69.9,42.83,69.52Z"/><polygon class="cls-1" points="46.53 65.92 50.92 64.79 46.68 66.91 46.53 65.92"/><path d="M55.21,65.63s1.77,1.26,2,2.45-1.49,4.93-2,5.28-2.37-4.62-2.37-4.62L50.5,63.43,43,61.53a42.25,42.25,0,0,1,5.57-2.12c1.09-.12,3.22,2.83,3.22,2.83a37.31,37.31,0,0,1,3.89,0C57,62.42,55.21,65.63,55.21,65.63Z"/></g></svg>