<svg xmlns="http://www.w3.org/2000/svg" xmlns:xlink="http://www.w3.org/1999/xlink" viewBox="0 0 260 168"><defs><style>.cls-1{fill:#845633;}.cls-2{fill:#fff;}.cls-3{fill:#1a5686;}.cls-4{fill:#774828;}.cls-5{fill:#9e633b;}.cls-6{fill:#144e75;}.cls-7{fill:#cfeaa8;}.cls-8{clip-path:url(#clip-path);}.cls-9{fill:#4f2821;}.cls-10{fill:#64340f;}.cls-11{clip-path:url(#clip-path-2);}</style><clipPath id="clip-path"><path class="cls-1" d="M82,62.37s-4.24,1-5.75,4.34-.89,4.77-.44,7,.67,2.66-.17,4.3,1.67,1.44,1.67,1.44.36,2.4.47,2.59c0,0,2.32-.92,2.88-1.22a6.83,6.83,0,0,1-2.29,2.16,2.4,2.4,0,0,0,.4.9,2.68,2.68,0,0,1,.39,1s.31,1.37,3.07.58,4-.82,7.32-4.8c0,0,4.85-3.69,4.47-9.24s-3.13-8-7.08-9.06S82,62.37,82,62.37Z"/></clipPath><clipPath id="clip-path-2"><path class="cls-2" d="M77.25,74.35A2,2,0,0,1,79,72.6c1.61-.09,2.32.61,2.48,1.19a1.57,1.57,0,0,1-1.24,2.13C78.76,76.31,77.42,76.14,77.25,74.35Z"/></clipPath></defs><g id="_4" data-name="4"><rect class="cls-1" x="86.17" y="80.2" width="3.36" height="4.73" transform="translate(-27.01 45.94) rotate(-25.54)"/><path class="cls-1" d="M92,84.58a70.53,70.53,0,0,1,9.24,5.73l3,2.33s3.89.74,4,1.54c0,0,.27.55-2.09.3,0,0-.23.14,0,.35s2.62,1.9,2.25,2.55c0,0-.3.6-2.43-1.12,0,0-.21-.11-.11.16,0,0,1.7,3.23,1.14,3.81,0,0-.92,0-2.63-2.75,0,0,.57,2.91-.07,3.07s-1.61-3.44-1.61-3.44-.06,0-.13.13c0,0-.29,1.4-.89,1.23,0,0-.75.07-.64-3.37,0,0-4.94-6.27-8.46-7.85,0,0-1.33-.82-1.39-1.64C91.26,85.61,91.1,84.57,92,84.58Z"/><path class="cls-3" d="M92.14,86a1.88,1.88,0,0,0-2.86-1C88,85.81,87,90.64,87,90.64c.75,1,3.7,1.24,3.7,1.24,1.17-.86,1.62-5.18,1.62-5.18Z"/><path class="cls-4" d="M85.37,102.93c.09.37.8,9,.8,9s-2.68,1.7-3.25,2.73,3.52.65,6.94-.74.67-2.71.6-3.66-1.79-9-1.79-9l-3.34,1.36"/><ellipse class="cls-5" cx="83.58" cy="114.48" rx="0.29" ry="0.11" transform="translate(-37.01 39.98) rotate(-22.16)"/><path class="cls-6" d="M92.44,97.64l-6.83,4a1.16,1.16,0,0,0-.57,1.15c.15,1.17,1.86,2.27,4.23,3.7.31.19,1.29.63,1.63.49,1.68-.71,5.21-2.29,7-4.35s-2.73-4.33-4.37-5.07A1.18,1.18,0,0,0,92.44,97.64Z"/><path class="cls-1" d="M101.32,114s-2.55,2.27-2.95,3.37,3.57.13,6.75-1.74c3-1.76.62-2.66.13-3.53"/><path class="cls-1" d="M97.5,107.32c.21.25,3.63,6,4.49,7.43a2.07,2.07,0,0,0,2.85.1c1.36-1.31,1.25-1.63,1.25-1.63-.48-.82-6.34-8.8-6.34-8.8l-2.4,2.69"/><ellipse class="cls-5" cx="98.98" cy="117.04" rx="0.29" ry="0.11" transform="translate(-45.73 66.51) rotate(-30.53)"/><path class="cls-3" d="M91.58,102l4.23,6.7a1.17,1.17,0,0,0,1.17.54A6.58,6.58,0,0,0,101.7,106a1.15,1.15,0,0,0,0-1c-.75-1.66-3.2-6.8-5.31-8.51s-4.24,2.86-4.93,4.52A1.15,1.15,0,0,0,91.58,102Z"/><path class="cls-7" d="M86.2,85.54c-1.32,1.78,1.81,13.91,2.42,15.51s5.23.79,8.91-1.58S96.1,89.76,94.34,86.2,88.78,82.05,86.2,85.54Z"/><polygon class="cls-7" points="86.31 84.64 86.2 85.54 87.32 85.52 86.31 84.64"/><polygon class="cls-3" points="90.03 82.51 86.31 84.64 87.47 85.95 91.17 83.41 90.03 82.51"/><path class="cls-1" d="M92.62,85.37a71.08,71.08,0,0,1-7,8.29l-2.75,2.6S81.53,100,80.72,100c0,0-.58.19,0-2.1,0,0-.1-.26-.35,0s-2.27,2.31-2.85,1.85c0,0-.56-.39,1.46-2.24,0,0,.14-.18-.14-.13,0,0-3.44,1.2-3.93.56,0,0,.1-.91,3.1-2.19,0,0-3,.13-3-.52s3.64-1.08,3.64-1.08,0-.06-.12-.15c0,0-1.34-.5-1.08-1.07,0,0,0-.75,3.43-.14,0,0,6.93-4,9-7.2,0,0,1-1.19,1.82-1.13C91.71,84.46,92.77,84.46,92.62,85.37Z"/><path class="cls-3" d="M92.75,85.93a1.88,1.88,0,0,0-2.17-2.1C89,84,86.1,88,86.1,88c.28,1.19,2.83,2.69,2.83,2.69,1.42-.27,3.66-4,3.66-4Z"/><path class="cls-1" d="M82,62.37s-4.24,1-5.75,4.34-.89,4.77-.44,7,.67,2.66-.17,4.3,1.67,1.44,1.67,1.44.36,2.4.47,2.59c0,0,2.32-.92,2.88-1.22a6.83,6.83,0,0,1-2.29,2.16,2.4,2.4,0,0,0,.4.9,2.68,2.68,0,0,1,.39,1s.31,1.37,3.07.58,4-.82,7.32-4.8c0,0,4.85-3.69,4.47-9.24s-3.13-8-7.08-9.06S82,62.37,82,62.37Z"/><g class="cls-8"><path d="M74.93,67.37a16.18,16.18,0,0,1,5.89-2.06c3.39-.43,4.79,0,5.31.87s.76,1.79.89,4.2.11,2.18.38,2.45c0,0,.51-1.37,1.61-1.46s2.13-.2,2.52,1.21a4.58,4.58,0,0,1-1.85,4.85s1,3.09,2.93,1.74L93,80.6l4.34-2.06,2.37-2.65.64-12.43L96,60.06l-8.55-.9L79,60.5l-3.39,1.37-1,1.9-1.22,3"/></g><path class="cls-9" d="M89.48,72a2.13,2.13,0,0,0-.91,2.17c.19,1.58,1.23,1.61,1.23,1.61a2.71,2.71,0,0,1-.64-1.59A1.59,1.59,0,0,0,91,73.81a3.76,3.76,0,0,1-1.76-.14A2.6,2.6,0,0,1,89.48,72Z"/><path class="cls-10" d="M77.29,81.35s.12-.36,1.19-.48a14.74,14.74,0,0,0,2.33-.18,7.44,7.44,0,0,1-2.62,1.51C76.94,82.49,77.29,81.35,77.29,81.35Z"/><path class="cls-10" d="M80.81,80.69A2.93,2.93,0,0,1,79,83.15a1.09,1.09,0,0,1-1.19,0c-.57-.43.28-.75.78-1A16.61,16.61,0,0,0,80.81,80.69Z"/><path d="M87.4,72.83a26.75,26.75,0,0,0-1.17-3.34s-1.55-1.4-1-2.85c0,0,.51-1.16-.34-1.31,0,0,.9-1.31,1.36-1.17s2.52.57,2.52.57L90.12,66l.63,1.26Z"/><path class="cls-2" d="M77.25,74.35A2,2,0,0,1,79,72.6c1.61-.09,2.32.61,2.48,1.19a1.57,1.57,0,0,1-1.24,2.13C78.76,76.31,77.42,76.14,77.25,74.35Z"/><g class="cls-11"><circle class="cls-9" cx="78.33" cy="75.3" r="1.32"/><circle cx="78.33" cy="75.3" r="0.88"/><circle class="cls-2" cx="77.63" cy="74.99" r="0.46"/></g><path d="M81.32,70.66a3,3,0,0,0-2.78-.42,3.14,3.14,0,0,0-2.09,1.43s-.27.5.33.29A6.92,6.92,0,0,1,81.2,71S81.65,71,81.32,70.66Z"/><polygon class="cls-1" points="84.86 66.9 89.2 65.58 85.06 67.89 84.86 66.9"/><path d="M93.52,66.23s1.82,1.18,2.12,2.36-1.26,5-1.79,5.36-2.57-4.51-2.57-4.51l-2.57-5.2-7.6-1.56a42.62,42.62,0,0,1,5.47-2.37c1.08-.17,3.34,2.69,3.34,2.69a36.69,36.69,0,0,1,3.89-.14C95.17,62.94,93.52,66.23,93.52,66.23Z"/></g></svg>