<svg xmlns="http://www.w3.org/2000/svg" xmlns:xlink="http://www.w3.org/1999/xlink" viewBox="0 0 260 168"><defs><style>.cls-1{fill:#845633;}.cls-2{fill:#fff;}.cls-3{fill:#1a5686;}.cls-4{fill:#774828;}.cls-5{fill:#9e633b;}.cls-6{fill:#144e75;}.cls-7{fill:#cfeaa8;}.cls-8{clip-path:url(#clip-path);}.cls-9{fill:#4f2821;}.cls-10{fill:#64340f;}.cls-11{clip-path:url(#clip-path-2);}</style><clipPath id="clip-path"><path class="cls-1" d="M72.45,58.58s-4.32.65-6.09,3.85-1.27,4.69-1,6.89.45,2.71-.52,4.28,1.55,1.57,1.55,1.57.17,2.43.26,2.62c0,0,2.39-.73,3-1a6.92,6.92,0,0,1-2.46,2,2.32,2.32,0,0,0,.33.92,2.75,2.75,0,0,1,.31,1s.2,1.39,3,.83,4-.5,7.68-4.2c0,0,5.14-3.28,5.21-8.85s-2.48-8.19-6.33-9.59S72.45,58.58,72.45,58.58Z"/></clipPath><clipPath id="clip-path-2"><path class="cls-2" d="M66.79,70.14a2,2,0,0,1,1.92-1.6c1.62,0,2.27.79,2.38,1.38a1.57,1.57,0,0,1-1.41,2C68.14,72.21,66.81,71.94,66.79,70.14Z"/></clipPath></defs><g id="_5" data-name="5"><rect class="cls-1" x="75.02" y="76.81" width="3.36" height="4.73" transform="translate(-23.21 32.58) rotate(-20.91)"/><path class="cls-1" d="M78.5,82A70.58,70.58,0,0,1,89.23,83.8l3.65,1s3.88-.81,4.3-.12c0,0,.46.41-1.81,1.08,0,0-.16.22.18.3s3.14.76,3,1.5c0,0,0,.67-2.67-.1,0,0-.23,0,0,.18,0,0,2.8,2.34,2.5,3.08,0,0-.83.38-3.48-1.53,0,0,1.64,2.47,1.11,2.86s-2.8-2.56-2.8-2.56-.07,0-.06.17c0,0,.25,1.41-.37,1.48,0,0-.66.34-1.87-2.87,0,0-7-3.91-10.81-4,0,0-1.54-.25-1.92-1C78.19,83.27,77.65,82.37,78.5,82Z"/><path class="cls-3" d="M80.69,82.92a1.88,1.88,0,0,0-2.77-1.22c-1.39.72-2.74,5.46-2.74,5.46.67,1,3.59,1.53,3.59,1.53,1.23-.75,2-5,2-5Z"/><path class="cls-4" d="M73.17,99.8c0,.39-1.28,9-1.28,9s-3,1.06-3.77,1.93,3.27,1.43,6.92.85,1.27-2.48,1.41-3.43.3-9.16.3-9.16l-3.57.57"/><ellipse class="cls-5" cx="68.8" cy="110.65" rx="0.29" ry="0.11" transform="translate(-16.56 12.21) rotate(-9.06)"/><path class="cls-6" d="M79.63,94.87l-6.48,4.58a1.17,1.17,0,0,0-.47,1.2c.25,1.15,2,2.1,4.52,3.33.33.17,1.34.52,1.67.35,1.62-.84,5-2.72,6.6-4.91s-3.08-4.09-4.77-4.7A1.17,1.17,0,0,0,79.63,94.87Z"/><path class="cls-1" d="M86.39,104.25c.31.13,6.39,4,7.82,4.92a1.92,1.92,0,0,0,2.12-1.48c.63-1.78.39-2,.39-2-.8-.52-9.61-5-9.61-5l-.94,3.49"/><path class="cls-1" d="M94.11,108.87s1,3.25,1.87,4.07,1.58-3.21,1.17-6.88c-.39-3.43-2.17-1.65-3.17-1.56"/><ellipse class="cls-5" cx="95.94" cy="112.25" rx="0.11" ry="0.29" transform="translate(-12 11.49) rotate(-6.45)"/><path class="cls-3" d="M79.3,99.58l5.1,6.07a1.15,1.15,0,0,0,1.23.37,6.54,6.54,0,0,0,4.23-3.88,1.18,1.18,0,0,0-.1-1c-1-1.54-4.09-6.3-6.42-7.71s-3.81,3.41-4.28,5.14A1.16,1.16,0,0,0,79.3,99.58Z"/><path class="cls-7" d="M74.81,82c-1.46,1.67.68,14,1.16,15.65s5.15,1.21,9-.85-.64-9.79-2.1-13.48S77.67,78.75,74.81,82Z"/><polygon class="cls-7" points="74.99 81.12 74.81 82.01 75.93 82.08 74.99 81.12"/><polygon class="cls-3" points="78.87 79.3 74.99 81.12 76.04 82.52 79.94 80.29 78.87 79.3"/><path class="cls-1" d="M81.34,83.36a70.63,70.63,0,0,1-9.63,5l-3.53,1.38s-2.62,3-3.37,2.67c0,0-.62,0,.79-2,0,0,0-.27-.32-.13s-3,1.28-3.33.63c0,0-.37-.57,2.19-1.52,0,0,.2-.12-.08-.17,0,0-3.64-.19-3.85-1,0,0,.44-.8,3.7-.86,0,0-2.79-1-2.6-1.62s3.77.37,3.77.37.07,0,0-.18-1.05-1-.59-1.4c0,0,.32-.67,3.22,1.17,0,0,7.91-1,11.07-3.27,0,0,1.38-.73,2.11-.36C80.84,82.18,81.82,82.57,81.34,83.36Z"/><path class="cls-3" d="M81.25,83.93A1.88,1.88,0,0,0,80,81.16c-1.52-.41-5.72,2.16-5.72,2.16-.19,1.21,1.61,3.56,1.61,3.56,1.42.28,4.9-2.32,4.9-2.32Z"/><path class="cls-1" d="M72.45,58.58s-4.32.65-6.09,3.85-1.27,4.69-1,6.89.45,2.71-.52,4.28,1.55,1.57,1.55,1.57.17,2.43.26,2.62c0,0,2.39-.73,3-1a6.92,6.92,0,0,1-2.46,2,2.32,2.32,0,0,0,.33.92,2.75,2.75,0,0,1,.31,1s.2,1.39,3,.83,4-.5,7.68-4.2c0,0,5.14-3.28,5.21-8.85s-2.48-8.19-6.33-9.59S72.45,58.58,72.45,58.58Z"/><g class="cls-8"><path d="M65,63a16.14,16.14,0,0,1,6-1.58c3.42-.15,4.78.4,5.22,1.3s.62,1.84.55,4.26,0,2.18.19,2.47c0,0,.61-1.33,1.72-1.32s2.14,0,2.42,1.41a4.59,4.59,0,0,1-2.24,4.68s.77,3.16,2.78,2L82,77.64l4.49-1.71L89,73.49l1.64-12.34-4.05-3.74-8.45-1.59-8.51.65-3.49,1.1L65,59.38l-1.46,2.91"/></g><path class="cls-9" d="M79.17,68.8a2.11,2.11,0,0,0-1.08,2.09c.06,1.58,1.1,1.69,1.1,1.69A2.65,2.65,0,0,1,78.67,71a1.6,1.6,0,0,0,1.89-.24,3.82,3.82,0,0,1-1.75-.28A2.56,2.56,0,0,1,79.17,68.8Z"/><path class="cls-10" d="M66.27,77.11s.14-.34,1.22-.37a14.43,14.43,0,0,0,2.34,0A7.47,7.47,0,0,1,67.09,78C65.82,78.22,66.27,77.11,66.27,77.11Z"/><path class="cls-10" d="M69.83,76.74a3,3,0,0,1-2,2.31,1.09,1.09,0,0,1-1.19-.11c-.53-.47.34-.72.86-1A16.58,16.58,0,0,0,69.83,76.74Z"/><path d="M77,69.44a26.11,26.11,0,0,0-.9-3.42s-1.43-1.52-.81-2.92c0,0,.61-1.12-.23-1.34,0,0,1-1.23,1.46-1.06s2.45.77,2.45.77l1.29,1.42.53,1.3Z"/><path class="cls-2" d="M66.79,70.14a2,2,0,0,1,1.92-1.6c1.62,0,2.27.79,2.38,1.38a1.57,1.57,0,0,1-1.41,2C68.14,72.21,66.81,71.94,66.79,70.14Z"/><g class="cls-11"><circle class="cls-9" cx="67.79" cy="71.17" r="1.32"/><circle cx="67.79" cy="71.17" r="0.88"/><circle class="cls-2" cx="67.12" cy="70.8" r="0.46"/></g><path d="M71.15,66.79a3,3,0,0,0-2.74-.64,3.12,3.12,0,0,0-2.2,1.26s-.31.47.31.31A6.82,6.82,0,0,1,71,67.15S71.44,67.18,71.15,66.79Z"/><polygon class="cls-1" points="74.97 63.33 79.41 62.36 75.09 64.33 74.97 63.33"/><path d="M83.66,63.36s1.72,1.32,1.93,2.52-1.67,4.86-2.22,5.19-2.2-4.69-2.2-4.69L79,61l-7.45-2.16a42,42,0,0,1,5.64-1.93c1.1-.08,3.12,3,3.12,3a37,37,0,0,1,3.89.18C85.57,60.21,83.66,63.36,83.66,63.36Z"/></g></svg>