<svg xmlns="http://www.w3.org/2000/svg" xmlns:xlink="http://www.w3.org/1999/xlink" viewBox="0 0 260 168"><defs><style>.cls-1{fill:#cfeaa8;}.cls-2{fill:#7c4b2a;}.cls-3{fill:#845633;}.cls-4{fill:#1a5686;}.cls-5{fill:#124d75;}.cls-6{clip-path:url(#clip-path);}.cls-7{clip-path:url(#clip-path-2);}.cls-8{fill:#6b3e1f;}.cls-9{fill:#9e6239;}.cls-10{clip-path:url(#clip-path-3);}.cls-11{fill:#620100;}.cls-12{fill:#4f2821;}.cls-13{fill:#fff;}.cls-14{fill:#64340f;}.cls-15{fill:none;stroke:#4f2821;stroke-linecap:round;stroke-linejoin:round;stroke-width:0.5px;}</style><clipPath id="clip-path"><path class="cls-1" d="M166.74,81.68a44,44,0,0,1,0-6.07l-1-.34-.09,0L164,74.81l-2.29,2.28-1.51-2.68-1.11.27a4.45,4.45,0,0,0-1.52.36l-.76.32a17.08,17.08,0,0,0-.76,6.34c.23,2.85.27,8.87.27,8.87s-.33.35,5.42.69,6-.39,6-.39Z"/></clipPath><clipPath id="clip-path-2"><path class="cls-2" d="M160.83,99.31c-.92.63-2.28-.58-2.82-3.21-.24-1.17,2.36-1.92,6-3.56a21,21,0,0,1,5.24-1.81c1.73-.21,2.76,2.65.74,4s-8.14,2.72-8.14,2.72a8.82,8.82,0,0,1-.63,1.18A1.45,1.45,0,0,1,160.83,99.31Z"/></clipPath><clipPath id="clip-path-3"><path class="cls-3" d="M153.44,52.41a9.58,9.58,0,0,0-2.8,10.83s-3.15.35-1.77,3.88a2.71,2.71,0,0,0,3.9,1.38s2.35,4.57,5.63,5.62,5.08.12,6.54-1.15,3-6.51,2.67-8.39c0,0,2.88.85,3.11-2.86,0,0,.17-3.28-3.16-2.16,0,0-1.15-7.72-6.73-8.57C155.57,50.18,153.44,52.41,153.44,52.41Z"/></clipPath></defs><g id="_2" data-name="2"><rect class="cls-4" x="156.37" y="90.06" width="11.15" height="3.59"/><path class="cls-4" d="M156.32,90.76s-4.74-1.94-4.79,1.63,6.49,4.84,8.1,5.14a29.73,29.73,0,0,0,4.53.24s7-1,7.37-4.21-1.48-4.36-3.81-2.83S159.59,92.11,156.32,90.76Z"/><path class="cls-5" d="M161.34,93.4a3.65,3.65,0,0,0,2.73.66,4,4,0,0,0,1.12-.55A3.93,3.93,0,0,0,166.74,92c-.12.25-2.35.17-2.66.17-.92,0-1.84,0-2.76-.07L160,92c-.2,0-1-.26-.78.12.14.22.8.44,1,.6S161,93.17,161.34,93.4Z"/><path class="cls-3" d="M157.29,75.47a64.1,64.1,0,0,0-4.83,8.67l-1.34,3.19s-2.78,2.32-2.53,3c0,0,0,.56,1.8-.68,0,0,.25,0,.12.3s-1.25,2.68-.66,3c0,0,.5.35,1.44-2,0,0,.11-.18.15.08,0,0,.08,3.33.79,3.54,0,0,.74-.38.88-3.36,0,0,.83,2.57,1.41,2.42s-.24-3.46-.24-3.46,0-.06.16.05.86,1,1.26.58c0,0,.63-.28-1-3,0,0,1.15-7.2,3.26-10,0,0,.69-1.25.38-1.93C158.36,76,158,75.05,157.29,75.47Z"/><path class="cls-4" d="M156.88,75.37s-2.54,4-2.94,4.95c0,0,2.1,1.7,3.21,1.56,0,0,1.68-2.28,1.34-3.67,0,0,.37-3.72-1.61-2.84"/><path class="cls-3" d="M165.71,75.9A64.88,64.88,0,0,1,171,84.27l1.53,3.11s2.9,2.16,2.69,2.86c0,0,0,.56-1.83-.57,0,0-.25,0-.1.3s1.4,2.6.84,3c0,0-.49.38-1.56-1.88,0,0-.12-.18-.15.08,0,0,.12,3.33-.58,3.58,0,0-.76-.34-1.07-3.3,0,0-.68,2.62-1.27,2.5s0-3.47,0-3.47,0-.06-.16.06-.8,1-1.22.65c0,0-.64-.24.81-3,0,0-1.57-7.12-3.83-9.82,0,0-.77-1.2-.5-1.9C164.67,76.44,165,75.52,165.71,75.9Z"/><path class="cls-4" d="M166.11,75.77s2.77,3.83,3.22,4.78c0,0-2,1.82-3.11,1.74,0,0-1.8-2.18-1.55-3.59,0,0-.58-3.69,1.44-2.93"/><path class="cls-3" d="M160.25,73.42a1.93,1.93,0,0,1,0,1c-.17.37-2.41.49-3,1.28s-.48,5.2-.48,5.2l.35,9.7s9.14.26,9.15.08.47-10.38.32-11.6.42-2.93-1.31-3.71-2-.72-2-.72a2.11,2.11,0,0,1,0-1.13,10.9,10.9,0,0,0-1.35-.52C161.83,73,160.25,73.42,160.25,73.42Z"/><path class="cls-1" d="M166.74,81.68a44,44,0,0,1,0-6.07l-1-.34-.09,0L164,74.81l-2.29,2.28-1.51-2.68-1.11.27a4.45,4.45,0,0,0-1.52.36l-.76.32a17.08,17.08,0,0,0-.76,6.34c.23,2.85.27,8.87.27,8.87s-.33.35,5.42.69,6-.39,6-.39Z"/><g class="cls-6"><polyline class="cls-4" points="158.76 73.78 160.35 78.22 161.72 77.09 162.96 78.46 165.81 74.57 159.4 72.92 158.54 74"/></g><path class="cls-2" d="M160.83,99.31c-.92.63-2.28-.58-2.82-3.21-.24-1.17,2.36-1.92,6-3.56a21,21,0,0,1,5.24-1.81c1.73-.21,2.76,2.65.74,4s-8.14,2.72-8.14,2.72a8.82,8.82,0,0,1-.63,1.18A1.45,1.45,0,0,1,160.83,99.31Z"/><g class="cls-7"><path class="cls-8" d="M157.72,95.89a1.72,1.72,0,0,0,.76.88,5.19,5.19,0,0,0,1.08.47l1.15.4a.63.63,0,0,1,.27.14.61.61,0,0,1,.13.22,4.44,4.44,0,0,0,.37.72,1.27,1.27,0,0,0,.63.49A1.5,1.5,0,0,0,163.3,99a1.4,1.4,0,0,0,.36-.28,1.05,1.05,0,0,0,.22-.57,2.79,2.79,0,0,0-.51-1.7,4.53,4.53,0,0,0-1-1.26,3.59,3.59,0,0,0-.79-.49,9.7,9.7,0,0,0-3.85-.73,2.13,2.13,0,0,0-.94.1.83.83,0,0,0-.55.7.76.76,0,0,0,.28.56,1.54,1.54,0,0,0,.56.31"/></g><ellipse class="cls-2" cx="158.32" cy="96.31" rx="0.66" ry="0.89" transform="translate(-15.01 30.75) rotate(-10.6)"/><ellipse class="cls-2" cx="158.59" cy="97.5" rx="0.42" ry="0.57" transform="translate(-15.22 30.82) rotate(-10.6)"/><ellipse class="cls-2" cx="159.08" cy="98.21" rx="0.42" ry="0.57" transform="translate(-24.87 64.83) rotate(-21.41)"/><ellipse class="cls-2" cx="159.75" cy="98.88" rx="0.42" ry="0.57" transform="translate(-27.94 107.35) rotate(-34.34)"/><ellipse class="cls-2" cx="160.27" cy="99.01" rx="0.42" ry="0.57" transform="translate(-27.92 107.67) rotate(-34.34)"/><ellipse class="cls-9" cx="158.34" cy="96.44" rx="0.14" ry="0.42" transform="translate(-26.9 88.75) rotate(-28.97)"/><ellipse class="cls-9" cx="158.71" cy="97.49" rx="0.1" ry="0.29" transform="translate(-27.36 89.06) rotate(-28.97)"/><ellipse class="cls-9" cx="159.24" cy="98.29" rx="0.1" ry="0.29" transform="translate(-27.68 89.42) rotate(-28.97)"/><ellipse class="cls-9" cx="159.83" cy="98.83" rx="0.1" ry="0.29" transform="matrix(0.87, -0.48, 0.48, 0.87, -27.87, 89.77)"/><ellipse class="cls-9" cx="160.51" cy="99.12" rx="0.08" ry="0.25" transform="translate(-27.92 90.14) rotate(-28.97)"/><path class="cls-3" d="M162.26,99.31c.91.63,2.27-.58,2.81-3.21.24-1.17-2.35-1.92-6-3.56a21,21,0,0,0-5.23-1.81c-1.74-.21-2.76,2.65-.74,4s8.14,2.72,8.14,2.72a7.63,7.63,0,0,0,.63,1.18A1.45,1.45,0,0,0,162.26,99.31Z"/><ellipse class="cls-3" cx="164.77" cy="96.31" rx="0.89" ry="0.66" transform="translate(39.8 240.56) rotate(-79.4)"/><ellipse class="cls-3" cx="164.49" cy="97.5" rx="0.57" ry="0.42" transform="translate(38.41 241.26) rotate(-79.4)"/><ellipse class="cls-3" cx="164.01" cy="98.21" rx="0.57" ry="0.42" transform="translate(12.71 215.06) rotate(-68.59)"/><ellipse class="cls-3" cx="163.33" cy="98.88" rx="0.57" ry="0.42" transform="translate(-10.45 177.97) rotate(-55.66)"/><ellipse class="cls-3" cx="162.82" cy="99.01" rx="0.57" ry="0.42" transform="matrix(0.56, -0.83, 0.83, 0.56, -10.78, 177.6)"/><ellipse class="cls-9" cx="164.74" cy="96.44" rx="0.42" ry="0.14" transform="translate(0.58 193.86) rotate(-61.03)"/><ellipse class="cls-9" cx="164.37" cy="97.49" rx="0.29" ry="0.1" transform="translate(-0.53 194.08) rotate(-61.03)"/><ellipse class="cls-9" cx="163.84" cy="98.29" rx="0.29" ry="0.1" transform="translate(-1.5 194.03) rotate(-61.03)"/><ellipse class="cls-9" cx="163.25" cy="98.83" rx="0.29" ry="0.1" transform="translate(-2.27 193.79) rotate(-61.03)"/><ellipse class="cls-9" cx="162.57" cy="99.12" rx="0.25" ry="0.08" transform="translate(-2.88 193.35) rotate(-61.03)"/><path class="cls-3" d="M153.44,52.41a9.58,9.58,0,0,0-2.8,10.83s-3.15.35-1.77,3.88a2.71,2.71,0,0,0,3.9,1.38s2.35,4.57,5.63,5.62,5.08.12,6.54-1.15,3-6.51,2.67-8.39c0,0,2.88.85,3.11-2.86,0,0,.17-3.28-3.16-2.16,0,0-1.15-7.72-6.73-8.57C155.57,50.18,153.44,52.41,153.44,52.41Z"/><g class="cls-10"><path d="M150.5,63.1l.06.08s0-3.65,1.1-5.64a2.18,2.18,0,0,1,1.69-1.32c1.16-.06,3.16.15,9-2.19,0,0,1.05-.75,2.35.8a29.24,29.24,0,0,1,2.75,4.36s.8-1.26.72-1.78-.43-5.08-.43-5.08l-2.19-3.15-3.28-.86s.32-.63-3.8.6.77-1.54-3.55.93-2.89,1.46-2.89,1.46L146.9,58.7"/></g><path class="cls-11" d="M158.41,71c-.07,0-.61.22-.61.22l1.19.36,2.54.43L164,70.69l.26-.89.34-.37-2.45.06L159,70.55Z"/><path class="cls-12" d="M158.53,67.63s.54.57,2,.16,1.66-1.19,1.64-1.18a3,3,0,0,0-2.24-1.54C158.41,65,158.53,67.63,158.53,67.63Z"/><path d="M152.78,61.73a3,3,0,0,1,2.34-1.54,3.15,3.15,0,0,1,2.5.43s.45.34-.18.4a6.88,6.88,0,0,0-4.39,1S152.63,62.2,152.78,61.73Z"/><path class="cls-13" d="M159.29,70.79a4.36,4.36,0,0,0,4.08-1l-2.15.1Z"/><path d="M160.38,59.31a3.21,3.21,0,0,1,2.28-1.52,3.14,3.14,0,0,1,2.63.38c.18.15.17.4-.3.41a7.85,7.85,0,0,0-4.21,1S160.23,59.77,160.38,59.31Z"/><path class="cls-14" d="M157.7,71.24a7.91,7.91,0,0,1,2.56-1.59,6.13,6.13,0,0,1,3.26-.38,4.17,4.17,0,0,0,1,.16S159.73,71.17,157.7,71.24Z"/><path class="cls-14" d="M157.7,71.24a2.21,2.21,0,0,1,1,.65,2.31,2.31,0,0,0,2.45,1,3.41,3.41,0,0,0,2.72-1.72c.53-1,.16-1.31.68-1.75A14.73,14.73,0,0,1,163,70.58a5.74,5.74,0,0,1-3.76.84Z"/><path class="cls-12" d="M150.53,64.37a2.39,2.39,0,0,1,1.5,1.48,2,2,0,0,1-.38,1.85,2.69,2.69,0,0,0,0-1.5,1.66,1.66,0,0,1-1.68.24s1.39-.38,1.39-.76A2.42,2.42,0,0,0,150.53,64.37Z"/><path class="cls-12" d="M168,60.19a2.26,2.26,0,0,0-.83,1.84,1.72,1.72,0,0,0,1,1.57,4.34,4.34,0,0,1-.43-1.36,1.76,1.76,0,0,0,1.65-.33s-1.22.22-1.59-.25A2.59,2.59,0,0,1,168,60.19Z"/><path d="M150.51,62.75A15.79,15.79,0,0,1,147,60s.33-1.28,3.06-2.31c0,0-2-3.25-1.76-4.45,0,0,1.33-.81,3.88.17,0,0-.6-3.66,1-4.57A5.08,5.08,0,0,1,156.87,51l-.54,2.37s-5.41,3-5.26,3-1.07,2.84-.9,3A25.05,25.05,0,0,1,150.51,62.75Z"/><path d="M167.45,59.15a16.57,16.57,0,0,0,2.24-4.7s-.53-1.15-3.58-.54c0,0,.32-4-.55-4.88,0,0-1.17-.05-3,2.16,0,0-1.43-3.43-3.43-3.31a5.29,5.29,0,0,0-2.23,3.76l1.77,1.71s4.31.44,5.38.09a8.51,8.51,0,0,1,1.74,2.48A26.29,26.29,0,0,0,167.45,59.15Z"/><path class="cls-3" d="M152,57.68a12.27,12.27,0,0,1-1.62.08l1.19.78.78-.55"/><polyline class="cls-3" points="163.87 55.06 165.67 54.19 164.81 55.56"/><path class="cls-15" d="M153.93,65.81a4.62,4.62,0,0,0,4.39-1.44"/><path class="cls-15" d="M161.33,63.6s3.11.95,4.52-.91"/></g></svg>