<svg xmlns="http://www.w3.org/2000/svg" xmlns:xlink="http://www.w3.org/1999/xlink" viewBox="0 0 260 168"><defs><style>.cls-1{fill:#845633;}.cls-2{fill:#fff;}.cls-3{fill:#1a5686;}.cls-4{fill:#774828;}.cls-5{fill:#9e633b;}.cls-6{fill:#144e75;}.cls-7{fill:#cfeaa8;}.cls-8{clip-path:url(#clip-path);}.cls-9{fill:#4f2821;}.cls-10{fill:#64340f;}.cls-11{clip-path:url(#clip-path-2);}</style><clipPath id="clip-path"><path class="cls-1" d="M92.22,60.93s-4.31.65-6.09,3.85-1.27,4.68-1,6.89.45,2.7-.52,4.27,1.55,1.58,1.55,1.58.16,2.42.26,2.61c0,0,2.38-.73,3-1a6.92,6.92,0,0,1-2.46,2,2.15,2.15,0,0,0,.33.92,2.81,2.81,0,0,1,.3,1s.2,1.38,3,.82,4-.49,7.69-4.19c0,0,5.14-3.27,5.21-8.84s-2.47-8.2-6.32-9.6S92.22,60.93,92.22,60.93Z"/></clipPath><clipPath id="clip-path-2"><path class="cls-2" d="M86.56,72.48a2,2,0,0,1,1.92-1.6c1.62.05,2.27.8,2.38,1.39a1.58,1.58,0,0,1-1.41,2C87.91,74.56,86.58,74.28,86.56,72.48Z"/></clipPath></defs><g id="_2" data-name="2"><rect class="cls-1" x="94.78" y="79.16" width="3.36" height="4.73" transform="translate(-22.71 39.71) rotate(-20.87)"/><path class="cls-1" d="M100.13,84.78A70,70,0,0,1,96.44,95l-1.67,3.4s.08,4-.67,4.25c0,0-.49.38-.73-2,0,0-.18-.2-.33.12s-1.32,3-2,2.72c0,0-.65-.17.59-2.61,0,0,.07-.22-.17-.07,0,0-2.81,2.33-3.49,1.9,0,0-.22-.89,2.14-3.14,0,0-2.73,1.16-3,.57s3-2.29,3-2.29,0-.07-.16-.1c0,0-1.43,0-1.39-.62,0,0-.22-.72,3.17-1.32,0,0,5.11-6.13,5.93-9.9,0,0,.52-1.47,1.31-1.7C99,84.25,100,83.88,100.13,84.78Z"/><path class="cls-3" d="M100.45,85.27a1.88,1.88,0,0,0-2.77-1.22c-1.39.72-2.74,5.46-2.74,5.46.67,1,3.59,1.53,3.59,1.53,1.23-.75,2-5,2-5Z"/><path class="cls-4" d="M93.31,103.16l1-1.45s7.63,3,8.46,3.52,3.45-1.09,2.71,2.53-2.71,7.21-3.25,6.17-.47-4.21-.47-4.21-7.59-4.24-8-4.37a1.66,1.66,0,0,1-.85-2.12Z"/><ellipse class="cls-5" cx="102.41" cy="113.26" rx="0.29" ry="0.11" transform="translate(-29.23 190.64) rotate(-78.33)"/><path class="cls-6" d="M98.45,96.48l-5.6,5.61a1.18,1.18,0,0,0-.26,1.26c.45,1.09,2.74,1.34,5.39,2.14a2.62,2.62,0,0,0,1.51-.45c1.45-1.1,4.29-2.64,5.5-5.08s-3.74-3.5-5.5-3.81A1.15,1.15,0,0,0,98.45,96.48Z"/><path class="cls-1" d="M102.42,114.82s-3.24,1.08-4,1.92,3.23,1.55,6.89,1.09c3.43-.43,1.78-2.09,1.68-3.08"/><path class="cls-1" d="M100.05,107.24c.13.31,1.93,6.73,2.38,8.36,0,0,.8,1.07,2.46.16a7.54,7.54,0,0,1,2.07-.93c-.25-.93-4-9.79-4-9.79l-3,2"/><ellipse class="cls-5" cx="99.06" cy="116.69" rx="0.29" ry="0.11" transform="translate(-13.69 13.16) rotate(-7.11)"/><path class="cls-3" d="M97.73,99l.1,7.93a1.18,1.18,0,0,0,.72,1.07,6.59,6.59,0,0,0,5.74-.33,1.18,1.18,0,0,0,.58-.88c.22-1.8.82-7.46-.08-10S99.68,97,98.22,98A1.21,1.21,0,0,0,97.73,99Z"/><path class="cls-7" d="M94.57,84.36c-1.46,1.66.67,14,1.15,15.65s5.15,1.22,9-.85-.64-9.79-2.1-13.48S97.43,81.1,94.57,84.36Z"/><polygon class="cls-7" points="94.75 83.47 94.57 84.36 95.69 84.43 94.75 83.47"/><polygon class="cls-3" points="98.63 81.65 94.75 83.47 95.8 84.87 99.7 82.64 98.63 81.65"/><path class="cls-1" d="M100.46,84.23A69.94,69.94,0,0,1,102,95l.12,3.79s1.93,3.46,1.4,4.07c0,0-.25.56-1.57-1.41,0,0-.26-.09-.24.27s.22,3.22-.51,3.35c0,0-.66.16-.7-2.58,0,0,0-.23-.19,0,0,0-1.39,3.37-2.19,3.31,0,0-.61-.68.42-3.78,0,0-1.87,2.3-2.4,1.92s1.61-3.44,1.61-3.44,0-.08-.19,0c0,0-1.26.66-1.51.09,0,0-.53-.53,2.17-2.65,0,0,1.65-7.8.61-11.52,0,0-.22-1.54.36-2.12C99.18,84.3,99.88,83.51,100.46,84.23Z"/><path class="cls-3" d="M101,84.5a1.89,1.89,0,0,0-3,.23c-.9,1.29.13,6.11.13,6.11,1.07.58,3.89-.33,3.89-.33.74-1.25-.56-5.4-.56-5.4Z"/><path class="cls-1" d="M92.22,60.93s-4.31.65-6.09,3.85-1.27,4.68-1,6.89.45,2.7-.52,4.27,1.55,1.58,1.55,1.58.16,2.42.26,2.61c0,0,2.38-.73,3-1a6.92,6.92,0,0,1-2.46,2,2.15,2.15,0,0,0,.33.92,2.81,2.81,0,0,1,.3,1s.2,1.38,3,.82,4-.49,7.69-4.19c0,0,5.14-3.27,5.21-8.84s-2.47-8.2-6.32-9.6S92.22,60.93,92.22,60.93Z"/><g class="cls-8"><path d="M84.81,65.33a16.56,16.56,0,0,1,6-1.57c3.42-.15,4.77.4,5.22,1.3s.62,1.84.55,4.26-.06,2.18.18,2.47c0,0,.62-1.32,1.72-1.32s2.14,0,2.42,1.41a4.58,4.58,0,0,1-2.25,4.68s.78,3.16,2.78,2l.27,1.46,4.49-1.7,2.58-2.44,1.64-12.34-4-3.74L98,58.17l-8.51.65L86,59.91,84.8,61.73l-1.46,2.9"/></g><path class="cls-9" d="M98.94,71.15a2.11,2.11,0,0,0-1.08,2.09c.06,1.58,1.09,1.7,1.09,1.7a2.71,2.71,0,0,1-.51-1.64,1.58,1.58,0,0,0,1.89-.24,3.82,3.82,0,0,1-1.75-.28A2.56,2.56,0,0,1,98.94,71.15Z"/><path class="cls-10" d="M86,79.46s.15-.35,1.22-.38a16.14,16.14,0,0,0,2.34,0,7.43,7.43,0,0,1-2.74,1.29C85.59,80.56,86,79.46,86,79.46Z"/><path class="cls-10" d="M89.59,79.09a2.91,2.91,0,0,1-2,2.3,1.07,1.07,0,0,1-1.18-.11c-.54-.47.34-.72.85-1A16.08,16.08,0,0,0,89.59,79.09Z"/><path d="M96.8,71.79a27.3,27.3,0,0,0-.89-3.42s-1.44-1.52-.81-2.93c0,0,.6-1.11-.23-1.33,0,0,1-1.23,1.45-1.06s2.46.78,2.46.78l1.29,1.41.52,1.3Z"/><path class="cls-2" d="M86.56,72.48a2,2,0,0,1,1.92-1.6c1.62.05,2.27.8,2.38,1.39a1.58,1.58,0,0,1-1.41,2C87.91,74.56,86.58,74.28,86.56,72.48Z"/><g class="cls-11"><circle class="cls-9" cx="87.56" cy="73.52" r="1.32"/><circle cx="87.56" cy="73.52" r="0.88"/><circle class="cls-2" cx="86.89" cy="73.14" r="0.46"/></g><path d="M90.92,69.13a3,3,0,0,0-2.74-.64A3.12,3.12,0,0,0,86,69.75s-.31.47.31.31a6.87,6.87,0,0,1,4.47-.56S91.21,69.53,90.92,69.13Z"/><polygon class="cls-1" points="94.75 65.68 99.18 64.71 94.86 66.67 94.75 65.68"/><path d="M103.44,65.71s1.72,1.32,1.92,2.52-1.67,4.87-2.22,5.2-2.2-4.7-2.2-4.7l-2.13-5.4-7.45-2.17A42.23,42.23,0,0,1,97,59.24c1.1-.08,3.11,3,3.11,3a35.92,35.92,0,0,1,3.89.17C105.35,62.56,103.44,65.71,103.44,65.71Z"/></g></svg>