<svg xmlns="http://www.w3.org/2000/svg" xmlns:xlink="http://www.w3.org/1999/xlink" viewBox="0 0 260 168"><defs><style>.cls-1{fill:#845633;}.cls-2{fill:#fff;}.cls-3{fill:#1a5686;}.cls-4{fill:#774828;}.cls-5{fill:#9e633b;}.cls-6{fill:#144e75;}.cls-7{fill:#cfeaa8;}.cls-8{clip-path:url(#clip-path);}.cls-9{fill:#4f2821;}.cls-10{fill:#64340f;}.cls-11{clip-path:url(#clip-path-2);}</style><clipPath id="clip-path"><path class="cls-1" d="M105.44,59.78s-4.25,1-5.78,4.29-.92,4.77-.49,6.94.65,2.67-.2,4.3,1.66,1.46,1.66,1.46.34,2.4.45,2.59c0,0,2.33-.9,2.89-1.2a6.82,6.82,0,0,1-2.3,2.15,2.27,2.27,0,0,0,.39.89,2.62,2.62,0,0,1,.38,1s.3,1.37,3.07.6,4-.79,7.35-4.75c0,0,4.88-3.65,4.54-9.21s-3.08-8-7-9.1S105.44,59.78,105.44,59.78Z"/></clipPath><clipPath id="clip-path-2"><path class="cls-2" d="M100.65,71.72A2,2,0,0,1,102.46,70c1.61-.07,2.31.63,2.47,1.21a1.58,1.58,0,0,1-1.26,2.13C102.15,73.69,100.81,73.51,100.65,71.72Z"/></clipPath></defs><g id="Layer_3" data-name="Layer 3"><rect class="cls-1" x="109.39" y="77.69" width="3.36" height="4.73" transform="translate(-8.84 13.98) rotate(-6.93)"/><path class="cls-1" d="M111.71,84.72a71.27,71.27,0,0,1-6.64,8.61l-2.63,2.73s-1.13,3.79-1.93,3.84c0,0-.58.21-.1-2.1,0,0-.11-.25-.35,0s-2.15,2.41-2.76,2c0,0-.57-.36,1.36-2.3,0,0,.13-.19-.15-.12,0,0-3.38,1.36-3.9.74,0,0,.06-.91,3-2.33,0,0-3,.27-3-.38s3.59-1.25,3.59-1.25,0-.06-.12-.14c0,0-1.36-.44-1.13-1,0,0,0-.75,3.42-.3,0,0,6.73-4.27,8.67-7.61,0,0,1-1.23,1.77-1.21C110.76,83.86,111.81,83.8,111.71,84.72Z"/><path class="cls-3" d="M111.87,85.28a1.89,1.89,0,0,0-2.27-2c-1.55.27-4.28,4.36-4.28,4.36.33,1.18,3,2.56,3,2.56,1.41-.34,3.47-4.17,3.47-4.17Z"/><path class="cls-4" d="M114.82,107.43c.37-.12,9-1.47,9-1.47s1.9,2.55,3,3,.39-3.56-1.25-6.87-2.75-.46-3.7-.32-8.83,2.44-8.83,2.44l1.61,3.24"/><ellipse class="cls-5" cx="126.47" cy="108.36" rx="0.11" ry="0.29" transform="translate(-34.99 67.51) rotate(-26.39)"/><path class="cls-6" d="M107.07,101.67l5.08,6.09a1.17,1.17,0,0,0,1.23.38,6.58,6.58,0,0,0,4.24-3.88,1.13,1.13,0,0,0-.1-1c-1-1.54-4.07-6.31-6.38-7.74s-3.83,3.4-4.3,5.13A1.19,1.19,0,0,0,107.07,101.67Z"/><path class="cls-1" d="M107.47,106c0,.38-2.67,8.68-2.67,8.68s-3.12.57-4,1.31,3,1.93,6.7,1.93,1.64-2.25,1.94-3.16,1.73-9,1.73-9h-3.61"/><ellipse class="cls-5" cx="101.46" cy="116.03" rx="0.29" ry="0.11"/><path class="cls-3" d="M107.12,98.08l-1.69,7.75a1.17,1.17,0,0,0,.46,1.21,6.55,6.55,0,0,0,5.66,1,1.18,1.18,0,0,0,.76-.72c.63-1.71,2.49-7.09,2.19-9.79s-5-.94-6.69-.25A1.18,1.18,0,0,0,107.12,98.08Z"/><path class="cls-7" d="M108.56,82.35c-1.82,1.26-2.73,13.76-2.65,15.47s4.69,2.42,8.94,1.34,1.74-9.65,1.21-13.58S112.12,79.87,108.56,82.35Z"/><polygon class="cls-7" points="108.95 81.53 108.56 82.35 109.63 82.69 108.95 81.53"/><polygon class="cls-3" points="113.15 80.7 108.95 81.53 109.63 83.14 113.95 81.92 113.15 80.7"/><path class="cls-1" d="M113.82,82.46a71.17,71.17,0,0,1,6.58,8.65l1.95,3.25s3.37,2.08,3.21,2.87c0,0,.06.62-2-.46,0,0-.27,0-.08.35s1.76,2.7,1.18,3.18c0,0-.49.46-1.87-1.91,0,0-.15-.18-.15.1,0,0,.43,3.63-.3,4,0,0-.87-.3-1.48-3.51,0,0-.5,2.92-1.16,2.84s-.27-3.78-.27-3.78,0-.07-.17.08c0,0-.77,1.2-1.27.82,0,0-.72-.21.6-3.38,0,0-2.37-7.61-5.09-10.35,0,0-.94-1.24-.71-2C112.74,83.15,113,82.12,113.82,82.46Z"/><path class="cls-3" d="M114.4,82.45a1.89,1.89,0,0,0-2.53,1.67c-.15,1.56,3.1,5.27,3.1,5.27,1.22,0,3.24-2.18,3.24-2.18,0-1.45-3.12-4.44-3.12-4.44Z"/><path class="cls-1" d="M105.44,59.78s-4.25,1-5.78,4.29-.92,4.77-.49,6.94.65,2.67-.2,4.3,1.66,1.46,1.66,1.46.34,2.4.45,2.59c0,0,2.33-.9,2.89-1.2a6.82,6.82,0,0,1-2.3,2.15,2.27,2.27,0,0,0,.39.89,2.62,2.62,0,0,1,.38,1s.3,1.37,3.07.6,4-.79,7.35-4.75c0,0,4.88-3.65,4.54-9.21s-3.08-8-7-9.1S105.44,59.78,105.44,59.78Z"/><g class="cls-8"><path d="M98.38,64.72a16.45,16.45,0,0,1,5.9-2c3.4-.4,4.79,0,5.31.92s.75,1.79.86,4.2.1,2.17.36,2.45c0,0,.52-1.37,1.62-1.44s2.13-.2,2.52,1.22a4.57,4.57,0,0,1-1.89,4.83s1,3.1,2.92,1.77l.37,1.43,4.35-2,2.39-2.62L123.82,61l-4.32-3.43-8.54-1-8.44,1.28-3.4,1.35-1,1.9-1.24,3"/></g><path class="cls-9" d="M112.9,69.47a2.11,2.11,0,0,0-.92,2.16c.17,1.58,1.22,1.62,1.22,1.62a2.75,2.75,0,0,1-.64-1.6,1.6,1.6,0,0,0,1.87-.38,3.68,3.68,0,0,1-1.76-.15A2.6,2.6,0,0,1,112.9,69.47Z"/><path class="cls-10" d="M100.65,78.72s.12-.36,1.19-.47a15.14,15.14,0,0,0,2.33-.17,7.3,7.3,0,0,1-2.63,1.5C100.29,79.85,100.65,78.72,100.65,78.72Z"/><path class="cls-10" d="M104.17,78.08a2.92,2.92,0,0,1-1.85,2.45,1.08,1.08,0,0,1-1.19,0c-.57-.43.28-.74.78-1A16.78,16.78,0,0,0,104.17,78.08Z"/><path d="M110.81,70.27a25.7,25.7,0,0,0-1.14-3.35s-1.54-1.41-1-2.85c0,0,.53-1.16-.32-1.31,0,0,.9-1.31,1.37-1.17s2.51.59,2.51.59l1.39,1.31.61,1.26Z"/><path class="cls-2" d="M100.65,71.72A2,2,0,0,1,102.46,70c1.61-.07,2.31.63,2.47,1.21a1.58,1.58,0,0,1-1.26,2.13C102.15,73.69,100.81,73.51,100.65,71.72Z"/><g class="cls-11"><circle class="cls-9" cx="101.73" cy="72.68" r="1.32"/><circle cx="101.73" cy="72.68" r="0.88"/><circle class="cls-2" cx="101.03" cy="72.36" r="0.46"/></g><path d="M104.75,68.06a3,3,0,0,0-2.77-.44c-1.72.51-2.1,1.42-2.1,1.42s-.28.49.32.28a7,7,0,0,1,4.43-.89S105.08,68.43,104.75,68.06Z"/><polygon class="cls-1" points="108.32 64.33 112.66 63.03 108.5 65.31 108.32 64.33"/><path d="M117,63.71s1.81,1.19,2.11,2.37-1.3,5-1.83,5.35-2.54-4.52-2.54-4.52l-2.53-5.22-7.59-1.61a42,42,0,0,1,5.48-2.34c1.09-.16,3.33,2.71,3.33,2.71a36.65,36.65,0,0,1,3.89-.11C118.65,60.43,117,63.71,117,63.71Z"/></g></svg>