<svg id="_5" data-name="5" xmlns="http://www.w3.org/2000/svg" xmlns:xlink="http://www.w3.org/1999/xlink" viewBox="0 0 260 168"><defs><style>.cls-1{fill:#fff;}.cls-2{fill:#845633;}.cls-3{fill:#1a5686;}.cls-4{fill:#774828;}.cls-5{fill:#9e633b;}.cls-6{fill:#144e75;}.cls-7{fill:#cfeaa8;}.cls-8{fill:#835633;}.cls-9{fill:#663711;}.cls-10{fill:#4f2821;}.cls-11{clip-path:url(#clip-path);}</style><clipPath id="clip-path"><ellipse class="cls-1" cx="127.96" cy="113.03" rx="2.6" ry="2" transform="translate(-36.43 66.95) rotate(-25.8)"/></clipPath></defs><rect class="cls-2" x="124.04" y="120" width="2.98" height="4.21" transform="translate(235.43 258.45) rotate(-173.07)"/><path class="cls-2" d="M124.75,124.47a62.67,62.67,0,0,0-6.7,7L116,134.11s-3.18,1.49-3.12,2.2c0,0-.11.54,1.86-.19,0,0,.24.06,0,.31s-1.84,2.21-1.37,2.68c0,0,.39.46,1.84-1.49,0,0,.15-.14.13.11,0,0-.75,3.16-.14,3.53,0,0,.79-.18,1.66-2.94,0,0,.15,2.62.73,2.62s.63-3.31.63-3.31,0,0,.14.08.56,1.14,1,.86c0,0,.66-.11-.19-3,0,0,2.87-6.48,5.55-8.62,0,0,1-1,.84-1.72C125.63,125.19,125.54,124.26,124.75,124.47Z"/><path class="cls-3" d="M124.66,125.9a1.67,1.67,0,0,1,2.62-.61c1.11.86,1.51,5.22,1.51,5.22-.75.78-3.38.75-3.38.75-1-.86-1-4.72-1-4.72Z"/><path class="cls-4" d="M130.43,144c.09.32,3.36,7.33,3.36,7.33a12.16,12.16,0,0,1,3.71.69c.88.54-2.44,2-5.69,2.48s-1.7-1.8-2.07-2.57-2.57-7.73-2.57-7.73l3.18-.41"/><ellipse class="cls-5" cx="136.89" cy="152.1" rx="0.26" ry="0.1" transform="matrix(0.99, -0.13, 0.13, 0.99, -18.64, 19.12)"/><path class="cls-6" d="M129.18,137.63l2.54,6.58a1,1,0,0,1-.24,1.12,5.81,5.81,0,0,1-4.84,1.62,1,1,0,0,1-.77-.53c-.78-1.42-3.14-5.89-3.25-8.3s4.29-1.51,5.84-1.12A1,1,0,0,1,129.18,137.63Z"/><path class="cls-2" d="M124.32,145.07c-.08.33-2.18,7.77-2.18,7.77a12.41,12.41,0,0,1,2.93,2.38c.52.9-3.11.64-6.18-.55s-.63-2.39-.59-3.24,3.06-7.74,3.06-7.74l3,1.15"/><ellipse class="cls-5" cx="124.49" cy="155.03" rx="0.1" ry="0.26" transform="translate(-64.99 215.29) rotate(-68.88)"/><path class="cls-3" d="M127.84,139.83l-2.5,6.59a1,1,0,0,1-.93.67,5.81,5.81,0,0,1-4.68-2,1,1,0,0,1-.22-.9c.36-1.58,1.59-6.48,3.12-8.35s4.2,1.75,5.1,3.06A1.06,1.06,0,0,1,127.84,139.83Z"/><path class="cls-7" d="M127.77,124.14c1.61,1.12,2.42,12.23,2.36,13.75s-4.18,2.15-7.95,1.19-1.55-8.58-1.08-12.07S124.6,121.94,127.77,124.14Z"/><polygon class="cls-7" points="127.42 123.41 127.77 124.14 126.82 124.44 127.42 123.41"/><polygon class="cls-3" points="123.69 122.67 127.42 123.41 126.82 124.85 122.98 123.76 123.69 122.67"/><path class="cls-2" d="M122.21,125.45a63,63,0,0,0,5.53,7.92l2.22,2.54s.85,3.41,1.56,3.49c0,0,.51.21.17-1.86,0,0,.11-.22.31,0s1.82,2.23,2.37,1.87c0,0,.53-.3-1.11-2.1,0,0-.11-.18.13-.1,0,0,3,1.34,3.44.82,0,0,0-.81-2.56-2.2,0,0,2.6.36,2.71-.21s-3.13-1.26-3.13-1.26,0-.06.12-.12c0,0,1.22-.33,1-.86,0,0,0-.66-3-.4,0,0-5.8-4.07-7.38-7.12,0,0-.79-1.14-1.52-1.15C123.09,124.73,122.16,124.63,122.21,125.45Z"/><path class="cls-3" d="M122.05,125.94a1.67,1.67,0,0,1,2.09-1.68c1.37.3,3.62,4,3.62,4-.34,1-2.73,2.14-2.73,2.14-1.23-.36-2.9-3.84-2.9-3.84Z"/><path d="M126.79,104.9s-1.36-1.46-4.18-.78-5.71.71-6.19,1.08a5.65,5.65,0,0,0-1.22,3.51s-2.66,1.36-2.92,1.88.44,1.47,1.93,2.24c0,0-1.22,1.93-.39,2.92A23.49,23.49,0,0,0,117,118.4s2.67,3.24,5.6,2.39.37-13,.37-13Z"/><path class="cls-8" d="M126.79,104.9s2,.5,3.21,3.73,2.14,3.57,3.12,4.39c0,0,.43.34-.17,1s-.81.64-.31,1.19c0,0,.53.87-.08,1.28a4,4,0,0,1-2.09.21,4.31,4.31,0,0,0,2.1.85s.31,0,.27.46-2.62,6.23-10.24,2.78l-.27-1.63s-3-.28-3.64-2.64,2-2.39,3-1.77c0,0,.16-.2-.4-1.31s0-3.38-.32-3.42-3.88.31-3.88.31a17.39,17.39,0,0,0,3.31-1.21.69.69,0,0,1-.42-1C120.36,107.28,123.89,105.11,126.79,104.9Z"/><path class="cls-9" d="M130.38,116.72s2.11-1.79,2.61-1.18S132.86,116.87,130.38,116.72Z"/><path class="cls-9" d="M130.39,116.71a11.73,11.73,0,0,0,2.08.49c.79,0,.68.27.64.54s-.7.78-1.63.2A2.26,2.26,0,0,1,130.39,116.71Z"/><path class="cls-10" d="M120,115.09a1.86,1.86,0,0,1,1.4,1,1.73,1.73,0,0,1,0,2,5.2,5.2,0,0,0-.35-1.36s-.91.86-1.51.46a3.11,3.11,0,0,0,1.15-.92A5.79,5.79,0,0,0,120,115.09Z"/><path d="M128.54,109.37a4.07,4.07,0,0,0-1.92.38,10,10,0,0,0-1.55,1c-.3.14-.39-.53.28-1.27a4,4,0,0,1,2.69-.86C128.63,108.61,129.52,109,128.54,109.37Z"/><ellipse class="cls-1" cx="127.96" cy="113.03" rx="2.6" ry="2" transform="translate(-36.43 66.95) rotate(-25.8)"/><g class="cls-11"><path class="cls-10" d="M129.9,111.05l-.07,0a.69.69,0,0,1-.14.43.59.59,0,0,1-1-.69,1.42,1.42,0,0,0-.9.49,1.47,1.47,0,1,0,2.07-.19Z"/><path d="M128.85,111.51a.65.65,0,0,1-.16-.21.93.93,0,1,0,1,1.49.94.94,0,0,0-.08-1.28A.59.59,0,0,1,128.85,111.51Z"/></g></svg>