<svg id="Layer_1" data-name="Layer 1" xmlns="http://www.w3.org/2000/svg" xmlns:xlink="http://www.w3.org/1999/xlink" viewBox="0 0 260 168"><defs><style>.cls-1{fill:#845633;}.cls-2{fill:#fff;}.cls-3{fill:none;stroke:#48b5a2;stroke-miterlimit:10;stroke-width:0.92px;}.cls-4{fill:#7c4c2c;}.cls-5{fill:#1a5686;}.cls-6{fill:#774b2c;}.cls-7{fill:#9e633b;}.cls-8{fill:#cfeaa8;}.cls-9{clip-path:url(#clip-path);}.cls-10{fill:#4f2821;}.cls-11{fill:#64340f;}.cls-12{clip-path:url(#clip-path-2);}.cls-13{clip-path:url(#clip-path-3);}.cls-14{fill:#b5895d;}.cls-15{fill:#48b5a2;opacity:0.12;}</style><clipPath id="clip-path"><path class="cls-1" d="M162.93,74.42c-9.11,25-24,14.27-24,14.27a16.94,16.94,0,0,0,3.62-5.16c-1,1-5.16,2.8-5.16,2.8a38.67,38.67,0,0,1-2-3.31s-5,1.92-4.3-2,0-4.73-2.27-8.92-4.38-6.77-3.32-14.52,9.16-12.39,9.16-12.39,1.33-3,10.08-3.15,16.77,2.68,20.93,13.84-2.41,17.89-2.41,17.89Z"/></clipPath><clipPath id="clip-path-2"><path class="cls-2" d="M132.69,74.18s-.81-4.39,3.27-5.85,6.42-.2,7.27,1.15,2,4.29-1.56,6.44S134.5,78.65,132.69,74.18Z"/></clipPath><clipPath id="clip-path-3"><path class="cls-3" d="M132.13,150.6c5.41,0,5.27-6.17,5.27-6.17v-5.15c0-.43-.73-.55-.73-.55.76,0,.74-.48.74-.48v-2.53c0-.47-.77-.55-.77-.55.73,0,.74-.39.74-.39v-2.33c0-.43-.8-.54-.8-.54.88.06.79-.57.79-.57v-2.46c0-.52-.71-.52-.71-.52a.66.66,0,0,0,.74-.75v-5c0-.59-.65-.63-.65-.63v-1.8c1.36-.79,1.11-3.25,1.11-3.25,0-3.46-5.55-10-5.55-10v-1c1-.51,0-.87,0-.87V102s0-.52-1.09-.52h-3.64s-1,0-1,.52v3.16s-1,.36,0,.87v1S121,113.52,121,117c0,0-.25,2.46,1.11,3.25V122s-.65,0-.65.63v5a.66.66,0,0,0,.74.75s-.71,0-.71.52v2.46s-.09.63.79.57c0,0-.8.11-.8.54v2.33s0,.39.74.39c0,0-.77.08-.77.55v2.53s0,.48.75.48c0,0-.74.12-.74.55v5.15s-.14,6.17,5.27,6.17Z"/></clipPath></defs><path class="cls-4" d="M168,97a149.64,149.64,0,0,1-22.81,4.44l-8.09.68s-7.17,4.49-8.53,3.43c0,0-1.23-.48,2.82-3.51,0,0,.17-.56-.59-.48s-6.86.83-7.21-.73c0,0-.42-1.38,5.43-1.78,0,0,.48-.11-.06-.39,0,0-7.36-2.61-7.32-4.33,0,0,1.39-1.37,8.12.49,0,0-5.12-3.73-4.36-4.91s7.52,3.06,7.52,3.06.17,0,0-.4c0,0-1.56-2.63-.37-3.23,0,0,1.08-1.19,5.9,4.36,0,0,16.85,2.66,24.67,0,0,0,3.28-.65,4.57.54C167.72,94.22,169.49,95.63,168,97Z"/><path class="cls-5" d="M167.49,98.08c3.39-3.75-.81-6.43-.81-6.43-2.86-1.76-13,1-13,1-1.13,2.35,1.12,8.27,1.12,8.27,2.74,1.44,11.46-1.79,11.46-1.79Z"/><path class="cls-6" d="M170.24,139a21.83,21.83,0,0,0,1.35-2.9,30.37,30.37,0,0,0,1.46-5.24c-2.24-1.38-17.35-8.78-17.35-8.78l-2.25-1c-5.59,4.95.6,8.64.6,8.64.65.3,12.55,8.15,15.58,10.15A5.78,5.78,0,0,0,170.24,139Z"/><path class="cls-6" d="M177.4,133.62a32.37,32.37,0,0,1-4.15,3.33,23.66,23.66,0,0,1-2.94,1.67,6.09,6.09,0,0,1-1.36.53l-.24,0c-1,1.17-4.28,5.13-4.74,7.2-.55,2.44,7.62-.75,13.81-5.65C183.14,136.52,179.07,135.15,177.4,133.62Z"/><ellipse class="cls-7" cx="164.88" cy="145.85" rx="0.63" ry="0.24" transform="translate(-54.92 133.66) rotate(-38.32)"/><path class="cls-6" d="M173.05,130.89a23.41,23.41,0,0,1,5.93,4l-7.76,5-2.07-1.63,1.12-4.64Z"/><path class="cls-1" d="M163,140.92a24,24,0,0,0,2.05-2.45,31.53,31.53,0,0,0,2.78-4.68c-1.81-1.92-14.48-13-14.48-13l-1.93-1.52c-6.68,3.34-1.66,8.5-1.66,8.5.55.46,10,11.14,12.41,13.85A5.64,5.64,0,0,0,163,140.92Z"/><path class="cls-1" d="M171.28,137.56a32.84,32.84,0,0,1-4.86,2.13,23.24,23.24,0,0,1-3.28.85,5.92,5.92,0,0,1-1.45.16l-.25,0c-1.27.88-5.46,3.85-6.44,5.73-1.16,2.22,7.55,1.25,14.81-1.87C176.07,141.84,172.5,139.47,171.28,137.56Z"/><ellipse class="cls-7" cx="156.02" cy="146.12" rx="0.63" ry="0.24" transform="translate(-45.04 73.54) rotate(-23.28)"/><path class="cls-1" d="M167.8,133.79a23.43,23.43,0,0,1,4.69,5.39l-8.8,2.82-1.58-2.1,2.29-4.2Z"/><path class="cls-5" d="M178.77,121.13s3.51,12.81-4.36,13.32c-6.42.42-10.2-1.3-12.95-3.8s-11.36-8.12-13-8.6,1.6-4.62,8.44-4.94C164.14,116.78,178.77,121.13,178.77,121.13Z"/><rect class="cls-1" x="154.84" y="79.68" width="7.96" height="11.95" transform="translate(-19.89 60.7) rotate(-20.39)"/><path class="cls-8" d="M154.28,90.16c-3.37,3.31-1.63,27.12-.86,30.7s14,8.38,22.53,4.61-2.18-23.07-4.7-31.17S160.92,83.66,154.28,90.16Z"/><polygon class="cls-8" points="154.81 88.28 154.28 90.16 156.66 90.49 154.81 88.28"/><polygon class="cls-5" points="163.39 85.05 154.81 88.28 156.82 91.45 165.5 87.34 163.39 85.05"/><path class="cls-5" d="M174.75,126.19s-11.7-12.1-21.81-8.44l-1.19,3.34,10.82,8s7.57,1.28,8.12,1.2S174.75,126.19,174.75,126.19Z"/><path class="cls-1" d="M162.93,74.42c-9.11,25-24,14.27-24,14.27a16.94,16.94,0,0,0,3.62-5.16c-1,1-5.16,2.8-5.16,2.8a38.67,38.67,0,0,1-2-3.31s-5,1.92-4.3-2,0-4.73-2.27-8.92-4.38-6.77-3.32-14.52,9.16-12.39,9.16-12.39,1.33-3,10.08-3.15,16.77,2.68,20.93,13.84-2.41,17.89-2.41,17.89Z"/><g class="cls-9"><path d="M123.29,59.77A34.5,34.5,0,0,1,134.11,52c6.71-2.94,9.83-2.89,11.42-1.43s2.66,3.19,4.38,8.06,1.57,4.39,2.28,4.79c0,0,.2-3.12,2.41-4s4.24-1.71,5.91.94a9.8,9.8,0,0,1-.85,11.07s4,5.71,7.07,1.79l1.65,2.69L176,69l3.26-6.86L173,36.29l-11-4.33L144,35.3,127.5,43.19l-6.12,4.88-.91,4.51-.66,6.92"/></g><path class="cls-10" d="M156,60.43a4.54,4.54,0,0,0-.53,5c1.34,3.11,3.5,2.54,3.5,2.54s-2-1.33-2.3-2.86c0,0,2.67.38,3.6-2a8.1,8.1,0,0,1-3.71.8S155.44,61.85,156,60.43Z"/><path class="cls-11" d="M136.43,85.66s0-.79,2.15-1.69,4.09-1.25,4.67-1.8c0,0-2.08,3.37-4.47,4.71S136.43,85.66,136.43,85.66Z"/><path class="cls-11" d="M143,82.3a6.27,6.27,0,0,1-1.5,6.39,2.29,2.29,0,0,1-2.34,1c-1.48-.34-.09-1.69.63-2.68A35,35,0,0,0,143,82.3Z"/><path d="M152.19,63.37a56,56,0,0,0-4.43-6.13s-4-1.93-3.87-5.21c0,0,.34-2.7-1.49-2.48,0,0,1-3.24,2.08-3.25S150,46,150,46l3.66,1.83L155.69,50Z"/><path class="cls-2" d="M132.69,74.18s-.81-4.39,3.27-5.85,6.42-.2,7.27,1.15,2,4.29-1.56,6.44S134.5,78.65,132.69,74.18Z"/><g class="cls-12"><circle class="cls-10" cx="137.28" cy="76.23" r="3.54" transform="translate(-18.56 95.46) rotate(-36.08)"/><circle cx="137.28" cy="76.23" r="2.35"/><circle class="cls-2" cx="135.25" cy="75.95" r="1.23"/></g><path d="M138.41,62.62a6.4,6.4,0,0,0-6,.83c-3.19,2.11-3.41,4.21-3.41,4.21s-.26,1.18.85.38,2.86-3.55,8.49-4.58C138.38,63.46,139.3,63.18,138.41,62.62Z"/><polygon class="cls-1" points="143.38 52.76 151.46 47.4 144.37 54.66 143.38 52.76"/><path d="M160.73,46.11s4.44,1.3,5.78,3.54.44,11-.41,12.08-8-7.67-8-7.67L149.66,45l-16.54,1.43s7.65-7.19,9.77-8.19,8.49,3.48,8.49,3.48A77.35,77.35,0,0,1,159.27,39C162.1,38.35,160.73,46.11,160.73,46.11Z"/><g class="cls-13"><path class="cls-14" d="M127.28,112a8.66,8.66,0,0,0,3.13.94c2-.11,3.83-2.51,5.77-3.52s4.14-.24,5.45,4.7c1.15,4.35,1.29,10.75,1.16,16.58-.12,5-.44,10.26-1.45,13.91s-2.66,5.13-4.18,6a12.22,12.22,0,0,1-12.63,0c-3.25-1.83-11.85-9.58-10.16-23.88C115.74,115.11,124.05,110.77,127.28,112Z"/><path class="cls-14" d="M128.43,101.44s1,4.48-1.62,7.67-.82,5.26-.82,5.26h5.53l1.26-1.73a11,11,0,0,1-1.6-5c-.36-3.35-.62-6.24-.62-6.24Z"/></g><path class="cls-3" d="M132.13,150.6c5.41,0,5.27-6.17,5.27-6.17v-5.15c0-.43-.73-.55-.73-.55.76,0,.74-.48.74-.48v-2.53c0-.47-.77-.55-.77-.55.73,0,.74-.39.74-.39v-2.33c0-.43-.8-.54-.8-.54.88.06.79-.57.79-.57v-2.46c0-.52-.71-.52-.71-.52a.66.66,0,0,0,.74-.75v-5c0-.59-.65-.63-.65-.63v-1.8c1.36-.79,1.11-3.25,1.11-3.25,0-3.46-5.55-10-5.55-10v-1c1-.51,0-.87,0-.87V102s0-.52-1.09-.52h-3.64s-1,0-1,.52v3.16s-1,.36,0,.87v1S121,113.52,121,117c0,0-.25,2.46,1.11,3.25V122s-.65,0-.65.63v5a.66.66,0,0,0,.74.75s-.71,0-.71.52v2.46s-.09.63.79.57c0,0-.8.11-.8.54v2.33s0,.39.74.39c0,0-.77.08-.77.55v2.53s0,.48.75.48c0,0-.74.12-.74.55v5.15s-.14,6.17,5.27,6.17Z"/><path class="cls-15" d="M131.52,150.6c4,0,3.93-6.17,3.93-6.17v-5.15c0-.43-.55-.55-.55-.55a.49.49,0,0,0,.56-.48v-2.53c0-.47-.58-.55-.58-.55.55,0,.56-.39.56-.39v-2.33c0-.43-.6-.54-.6-.54a.5.5,0,0,0,.59-.57v-2.46a.52.52,0,0,0-.53-.52c.62,0,.55-.75.55-.75v-5A.56.56,0,0,0,135,122v-1.8c1-.79.83-3.25.83-3.25,0-3.46-4.15-10-4.15-10v-1c.72-.51,0-.87,0-.87V102s0-.52-.81-.52h-2.72s-.77,0-.77.52v3.16s-.74.36,0,.87v1s-4.14,6.53-4.14,10c0,0-.19,2.46.83,3.25V122a.56.56,0,0,0-.48.63v5s-.08.75.55.75a.52.52,0,0,0-.53.52v2.46a.5.5,0,0,0,.59.57s-.6.11-.6.54v2.33s0,.39.56.39c0,0-.58.08-.58.55v2.53s0,.48.55.48c0,0-.54.12-.54.55v5.15s-.11,6.17,3.93,6.17Z"/><path class="cls-1" d="M170.23,95.42a150.82,150.82,0,0,1-21.9,7.81l-7.89,1.88s-6.42,5.52-7.93,4.68c0,0-1.28-.29,2.27-3.89,0,0,.08-.58-.65-.39s-6.66,1.85-7.25.36c0,0-.62-1.31,5.1-2.58,0,0,.46-.18-.12-.37,0,0-7.67-1.47-7.88-3.18,0,0,1.17-1.57,8.1-.74,0,0-5.62-2.92-5.05-4.2s7.9,1.9,7.9,1.9.16-.06-.05-.4c0,0-1.94-2.36-.86-3.14,0,0,.89-1.33,6.5,3.43,0,0,17.06.1,24.4-3.68,0,0,3.14-1.12,4.6-.14C169.52,92.77,171.48,93.89,170.23,95.42Z"/></svg>