<svg xmlns="http://www.w3.org/2000/svg" xmlns:xlink="http://www.w3.org/1999/xlink" viewBox="0 0 260 168"><defs><style>.cls-1{fill:#845633;}.cls-2{fill:#fff;}.cls-3{fill:#1a5686;}.cls-4{fill:#774828;}.cls-5{fill:#9e633b;}.cls-6{fill:#144e75;}.cls-7{fill:#cfeaa8;}.cls-8{clip-path:url(#clip-path);}.cls-9{fill:#4f2821;}.cls-10{fill:#64340f;}.cls-11{clip-path:url(#clip-path-2);}</style><clipPath id="clip-path"><path class="cls-1" d="M88,62s-4.32.65-6.09,3.85-1.27,4.69-1,6.89.45,2.71-.52,4.27S82,78.61,82,78.61s.17,2.42.27,2.62c0,0,2.38-.73,3-1a7,7,0,0,1-2.46,2,2.2,2.2,0,0,0,.33.92,2.81,2.81,0,0,1,.3,1s.2,1.39,3,.82,4-.49,7.68-4.19c0,0,5.14-3.28,5.21-8.85s-2.48-8.2-6.32-9.6S88,62,88,62Z"/></clipPath><clipPath id="clip-path-2"><path class="cls-2" d="M82.38,73.57A2,2,0,0,1,84.31,72c1.61,0,2.26.79,2.37,1.38a1.58,1.58,0,0,1-1.41,2C83.73,75.65,82.41,75.37,82.38,73.57Z"/></clipPath></defs><g id="_3" data-name="3"><rect class="cls-1" x="90.61" y="80.25" width="3.36" height="4.73" transform="translate(-23.41 38.37) rotate(-20.91)"/><path class="cls-1" d="M96.52,85.22a70,70,0,0,1,5.71,9.24l1.63,3.43s3.15,2.39,2.92,3.16c0,0,0,.62-2-.65,0,0-.28,0-.12.33s1.5,2.87.88,3.28c0,0-.54.41-1.68-2.08,0,0-.13-.19-.16.09,0,0,.07,3.65-.69,3.92,0,0-.83-.39-1.13-3.63,0,0-.78,2.85-1.42,2.71s.09-3.79.09-3.79,0-.07-.17.06-.89,1.12-1.35.7c0,0-.7-.28.93-3.31,0,0-1.62-7.81-4.07-10.79,0,0-.82-1.33-.51-2.09C95.38,85.8,95.7,84.79,96.52,85.22Z"/><path class="cls-3" d="M96.29,86.35a1.89,1.89,0,0,0-2.78-1.21c-1.39.72-2.74,5.46-2.74,5.46.68,1,3.59,1.53,3.59,1.53,1.24-.76,2-5,2-5Z"/><path class="cls-4" d="M89.67,105.1c.25.29,4.82,7.69,4.82,7.69s-1.62,2.74-1.65,3.91,3.43-1,5.85-3.81-.64-2.71-1.14-3.53-5.67-7.19-5.67-7.19l-2.36,2.73"/><ellipse class="cls-5" cx="93.32" cy="116.2" rx="0.29" ry="0.11" transform="translate(-55.62 110.86) rotate(-49.18)"/><path class="cls-6" d="M95.86,98l-6.08,5.09a1.16,1.16,0,0,0-.37,1.23c.34,1.13,2.2,1.93,4.77,3,.35.14,1.38.4,1.69.21,1.55-1,4.77-3.12,6.18-5.44s-3.4-3.82-5.13-4.28A1.16,1.16,0,0,0,95.86,98Z"/><path class="cls-1" d="M102.42,114.82s-3.24,1.08-4,1.92,3.23,1.55,6.89,1.09c3.43-.43,1.62-2.19,1.52-3.18"/><path class="cls-1" d="M98.69,108.07c.19.27,3.14,6.26,3.88,7.77a2.07,2.07,0,0,0,2.83.33c1.46-1.19,1.38-1.52,1.38-1.52-.41-.86-5.61-9.29-5.61-9.29l-2.61,2.49"/><ellipse class="cls-5" cx="99.06" cy="116.69" rx="0.29" ry="0.11" transform="translate(-13.69 13.16) rotate(-7.11)"/><path class="cls-3" d="M94.9,100.39l1.56,7.78a1.17,1.17,0,0,0,.9.92,6.58,6.58,0,0,0,5.58-1.39,1.16,1.16,0,0,0,.41-1c-.12-1.82-.57-7.49-1.93-9.85s-5,1.16-6.22,2.46A1.15,1.15,0,0,0,94.9,100.39Z"/><path class="cls-7" d="M90.4,85.45c-1.46,1.66.68,14,1.16,15.65s5.15,1.21,9-.85-.65-9.8-2.11-13.48S93.26,82.18,90.4,85.45Z"/><polygon class="cls-7" points="90.58 84.56 90.4 85.45 91.52 85.52 90.58 84.56"/><polygon class="cls-3" points="94.46 82.74 90.58 84.56 91.63 85.96 95.53 83.73 94.46 82.74"/><path class="cls-1" d="M96.82,85.68a69.33,69.33,0,0,1-5.47,9.4l-2.25,3s-.63,3.91-1.42,4.06c0,0-.54.29-.36-2.07,0,0-.15-.23-.35.06s-1.82,2.67-2.48,2.31c0,0-.62-.28,1-2.46,0,0,.11-.2-.15-.1,0,0-3.19,1.79-3.78,1.24,0,0,0-.91,2.67-2.7,0,0-2.89.65-3.07,0s3.4-1.7,3.4-1.7,0-.07-.14-.13c0,0-1.41-.26-1.25-.86,0,0-.09-.75,3.35-.74,0,0,6.12-5.11,7.61-8.67,0,0,.78-1.35,1.59-1.44C95.76,85,96.8,84.76,96.82,85.68Z"/><path class="cls-3" d="M97.05,86.22a1.88,1.88,0,0,0-2.51-1.69C93,85,90.86,89.4,90.86,89.4c.48,1.13,3.26,2.16,3.26,2.16C95.47,91,97,87,97,87Z"/><path class="cls-1" d="M88,62s-4.32.65-6.09,3.85-1.27,4.69-1,6.89.45,2.71-.52,4.27S82,78.61,82,78.61s.17,2.42.27,2.62c0,0,2.38-.73,3-1a7,7,0,0,1-2.46,2,2.2,2.2,0,0,0,.33.92,2.81,2.81,0,0,1,.3,1s.2,1.39,3,.82,4-.49,7.68-4.19c0,0,5.14-3.28,5.21-8.85s-2.48-8.2-6.32-9.6S88,62,88,62Z"/><g class="cls-8"><path d="M80.63,66.43a16.14,16.14,0,0,1,6-1.58c3.43-.15,4.78.4,5.23,1.3s.62,1.84.55,4.26-.06,2.17.18,2.47c0,0,.62-1.33,1.72-1.32s2.14,0,2.42,1.4a4.6,4.6,0,0,1-2.24,4.69s.78,3.16,2.78,2l.27,1.45,4.49-1.7,2.57-2.44,1.64-12.34-4-3.74-8.45-1.6-8.51.66L81.77,61l-1.16,1.81-1.46,2.91"/></g><path class="cls-9" d="M94.76,72.23a2.12,2.12,0,0,0-1.08,2.09c.06,1.59,1.1,1.7,1.1,1.7a2.65,2.65,0,0,1-.52-1.63,1.6,1.6,0,0,0,1.89-.24,3.82,3.82,0,0,1-1.75-.28A2.67,2.67,0,0,1,94.76,72.23Z"/><path class="cls-10" d="M81.86,80.55s.14-.34,1.22-.37a15.68,15.68,0,0,0,2.34,0,7.38,7.38,0,0,1-2.74,1.3C81.41,81.66,81.86,80.55,81.86,80.55Z"/><path class="cls-10" d="M85.42,80.18a2.91,2.91,0,0,1-2,2.3,1.08,1.08,0,0,1-1.18-.1c-.54-.47.33-.72.85-1A17.67,17.67,0,0,0,85.42,80.18Z"/><path d="M92.62,72.88a26.11,26.11,0,0,0-.9-3.42s-1.43-1.52-.81-2.93c0,0,.61-1.11-.23-1.33,0,0,1-1.23,1.46-1.06s2.46.77,2.46.77l1.29,1.42.52,1.3Z"/><path class="cls-2" d="M82.38,73.57A2,2,0,0,1,84.31,72c1.61,0,2.26.79,2.37,1.38a1.58,1.58,0,0,1-1.41,2C83.73,75.65,82.41,75.37,82.38,73.57Z"/><g class="cls-11"><circle class="cls-9" cx="83.38" cy="74.61" r="1.32"/><circle cx="83.38" cy="74.61" r="0.88"/><circle class="cls-2" cx="82.71" cy="74.24" r="0.46"/></g><path d="M86.74,70.23A3,3,0,0,0,84,69.58a3.12,3.12,0,0,0-2.2,1.26s-.31.48.31.31a6.93,6.93,0,0,1,4.47-.56S87,70.62,86.74,70.23Z"/><polygon class="cls-1" points="90.57 66.77 95 65.79 90.68 67.76 90.57 66.77"/><path d="M99.26,66.79s1.71,1.32,1.92,2.52-1.66,4.87-2.22,5.2-2.2-4.69-2.2-4.69l-2.14-5.4-7.45-2.17a42,42,0,0,1,5.65-1.92c1.09-.08,3.11,3,3.11,3s2.54,0,3.89.17S99.26,66.79,99.26,66.79Z"/></g></svg>