<svg xmlns="http://www.w3.org/2000/svg" xmlns:xlink="http://www.w3.org/1999/xlink" viewBox="0 0 260 168"><defs><style>.cls-1{fill:#efffab;}.cls-2{fill:#ff7300;}.cls-3{fill:#fff;}.cls-4{fill:#1e0351;}.cls-5{fill:#abf4f4;}.cls-6{fill:#d15805;}.cls-7{fill:#572517;}.cls-8{fill:#ed6703;}.cls-9{fill:#231f20;opacity:0.38;}.cls-10{clip-path:url(#clip-path);}.cls-11{fill:#e1ef8f;}.cls-12{clip-path:url(#clip-path-2);}.cls-13{clip-path:url(#clip-path-3);}.cls-14{fill:none;stroke:#ff7300;stroke-miterlimit:10;stroke-width:0.48px;}.cls-15{clip-path:url(#clip-path-4);}.cls-16{fill:#fc9549;}.cls-17{fill:#460f0b;}.cls-18{fill:#130402;}.cls-19{fill:#572417;}.cls-20{clip-path:url(#clip-path-5);}.cls-21{fill:#7358c6;}.cls-22{fill:#2a0d70;}.cls-23{clip-path:url(#clip-path-6);}.cls-24{fill:#3a150e;}.cls-25{clip-path:url(#clip-path-7);}.cls-26{opacity:0.18;}.cls-27{fill:#3582a8;}.cls-28{fill:#a60cbc;}</style><clipPath id="clip-path"><path class="cls-1" d="M218.25,174c-4.08-.4-8.45,1.4-12.17-.35-.59-.28-1.15-.65-1.75-.92a14,14,0,0,0-4.87-.84,9.62,9.62,0,0,1-4.76-1.23,3.67,3.67,0,0,1-1.6-4.28,5,5,0,0,1-2.72-9.45c-1.55-2.12-2.63-5.26-.87-7.21.46-.52,1.08-.88,1.55-1.39.84-.92,1.14-2.25,2.05-3.11,1.14-1.08,2.89-1.09,4.46-1,4.48.15,9.5.58,12.43,4,.88,1,1.55,2.28,2.71,3a8.43,8.43,0,0,0,3.88.69,14.34,14.34,0,0,1,9.1,3.27c2.43,2.21,3.65,6,2.25,8.94a5.3,5.3,0,0,1,4.24,3.87c.52,2.64-1.8,4.51-3.85,5.54C224.7,175.23,222.07,174.37,218.25,174Z"/></clipPath><clipPath id="clip-path-2"><path class="cls-2" d="M260.66,147.26s12.85,20.41-6.77,26.46-54.89-4.43-61.72-17.35,6.69-19,30.09-12.44S252.89,147.19,260.66,147.26Z"/></clipPath><clipPath id="clip-path-3"><path class="cls-3" d="M218.69,137.08s20.4,4.38,27,18,23.24,23.22,23.24,23.22L246.7,183.1s-11.91-14.16-17.76-24.88-27.78-18.13-27.78-18.13Z"/></clipPath><clipPath id="clip-path-4"><path class="cls-3" d="M239.67,128.79s20.79,1.79,29,14.45,26,20.12,26,20.12l-21.45,7.58s-13.6-12.56-20.74-22.46S222.65,134,222.65,134Z"/></clipPath><clipPath id="clip-path-5"><path class="cls-4" d="M225.61,110.13c0-.38,0-.75,0-1.14.46-9.23.83-7.39.83-7.39s1.24-.82,1.38-.9a7.47,7.47,0,0,1,2.68-2.24c6.9-7.67,4.07-23.16,4.07-23.16-4.54-5.91-16.72-3-16.72-3-1.71-8-.82-10.94,3.92-14.38A17.47,17.47,0,0,1,235,52.63c5.91-.36,12.62,1.53,15.49,4.59,4.09,3.33,8.53,7,10.45,13,3,9.42-4.37,19.67-4.37,19.67s5.7,3.88-8.51,9.64S234.86,108.74,225.61,110.13Z"/></clipPath><clipPath id="clip-path-6"><path class="cls-3" d="M231.07,81.72s-6.42-1.85-8.72.19a2.19,2.19,0,0,0-.59,2.28C222.46,85.57,225.89,86.57,231.07,81.72Z"/></clipPath><clipPath id="clip-path-7"><path class="cls-5" d="M256.79,89.94s-19.47,4.52-30.61,14.72c0,0-5.35,1.27-5.12,6.43S213.92,131,217.83,137s5.71,8.3,12.5-.94,13.45-20.75,18-20.59,13.29,1.71,15.86-1.18S260.62,93,256.79,89.94Z"/></clipPath></defs><g id="Layer_3" data-name="Layer 3"><path class="cls-3" d="M14.15,153.66"/><path class="cls-6" d="M246.74,114.62s-10.39,19.55-14.28,24.4-13.17-4.07-11-9.19,11.54-22.52,14-25.58S250.15,104.67,246.74,114.62Z"/><path class="cls-7" d="M211.41,153.89s-3.22,1.18-5,.85-5.56.3-4.53,1.32,3.84,1.64,3.84,1.64l-2.09,2.48s-.08,2.39,3.24,4.08,5.41.92,5.41.92,4.53-4,4.45-6.72S213.54,152.64,211.41,153.89Z"/><path class="cls-7" d="M202.69,164.11c4.23-3.26,3.29-3.79,2.78-4.36s-2.58.48-4.62,2.32-3.29,3.79-2.78,4.36S200.51,165.79,202.69,164.11Z"/><path class="cls-7" d="M204.73,166.84c3.78-3.77,2.78-4.18,2.2-4.68s-2.5.8-4.29,2.88-2.78,4.19-2.2,4.68S202.78,168.78,204.73,166.84Z"/><path class="cls-7" d="M208.17,168.21c2.89-4.49,1.83-4.68,1.16-5s-2.28,1.3-3.58,3.73-1.83,4.68-1.16,5S206.68,170.52,208.17,168.21Z"/><path class="cls-7" d="M211.55,167.84c2.59-4.67,1.51-4.79.82-5.11s-2.18,1.46-3.33,4-1.51,4.79-.82,5.11S210.21,170.25,211.55,167.84Z"/><path class="cls-6" d="M220.51,130.7s-8.42,10.82-12.19,17.28,5.16,15.42,11,11.28,10.3-16.76,13.51-19.39,2.91-8.23-1.87-12.19S220.51,130.7,220.51,130.7Z"/><path class="cls-8" d="M259.44,107.64s3.84,23.31,1.46,43.55l-36.94-4s3-12.82,6-33.42S252.92,85.27,259.44,107.64Z"/><ellipse class="cls-9" cx="226.45" cy="170.59" rx="37.43" ry="8.15"/><path class="cls-7" d="M196.22,147.66s-1.89,2.61-3.43,3.26-4.18,3.16-2.84,3.41,3.86-.73,3.86-.73l-.34,3s1.19,1.9,4.68,1.49,4.7-2.13,4.7-2.13,1.44-5.51,0-7.59S197.22,145.56,196.22,147.66Z"/><path class="cls-1" d="M218.25,174c-4.08-.4-8.45,1.4-12.17-.35-.59-.28-1.15-.65-1.75-.92a14,14,0,0,0-4.87-.84,9.62,9.62,0,0,1-4.76-1.23,3.67,3.67,0,0,1-1.6-4.28,5,5,0,0,1-2.72-9.45c-1.55-2.12-2.63-5.26-.87-7.21.46-.52,1.08-.88,1.55-1.39.84-.92,1.14-2.25,2.05-3.11,1.14-1.08,2.89-1.09,4.46-1,4.48.15,9.5.58,12.43,4,.88,1,1.55,2.28,2.71,3a8.43,8.43,0,0,0,3.88.69,14.34,14.34,0,0,1,9.1,3.27c2.43,2.21,3.65,6,2.25,8.94a5.3,5.3,0,0,1,4.24,3.87c.52,2.64-1.8,4.51-3.85,5.54C224.7,175.23,222.07,174.37,218.25,174Z"/><g class="cls-10"><path class="cls-11" d="M194.7,157.87a9.87,9.87,0,0,1,1.26,2.35,17.89,17.89,0,0,1,.31,2.3,5.79,5.79,0,0,0,6.06,4.64,7.32,7.32,0,0,0,11.16,4.22,14.53,14.53,0,0,0,9.55,1.81,27.24,27.24,0,0,0,9.3-3.26,8.42,8.42,0,0,0,2.73-2.05c1.41-1.84,1.18-4.43.74-6.71a58.5,58.5,0,0,0-4.24-13.23c-1.31-2.87-3-5.76-5.63-7.45a16.32,16.32,0,0,0-6.56-2.06c-5.54-.79-16.07-2.18-20.46,2.28S191.13,152,194.7,157.87Z"/></g><path class="cls-8" d="M251.87,143.13a13.3,13.3,0,0,1,5.12,3,5.52,5.52,0,0,1,1.51,5.46c-.67,1.92-2.63,3.07-4.53,3.8-5.7,2.18-12,2.06-18.08,1.91a106.19,106.19,0,0,1-13.81-.93c-3.39-.52-8-1.51-10.06-4.62-1.79-2.73.24-5.56,2.54-7.17,6.24-4.34,16.37-4.85,23.67-4.33A49,49,0,0,1,251.87,143.13Z"/><path class="cls-2" d="M260.66,147.26s12.85,20.41-6.77,26.46-54.89-4.43-61.72-17.35,6.69-19,30.09-12.44S252.89,147.19,260.66,147.26Z"/><g class="cls-12"><path class="cls-3" d="M218.69,137.08s20.4,4.38,27,18,23.24,23.22,23.24,23.22L246.7,183.1s-11.91-14.16-17.76-24.88-27.78-18.13-27.78-18.13Z"/><g class="cls-13"><path class="cls-14" d="M204.52,140.67s12.53-2.06,25.09,13.08,13.66,24.73,20.17,27.38"/><path class="cls-14" d="M207.63,139.29s12.23-2.86,24.79,12.28,13.66,24.72,20.17,27.38"/><path class="cls-14" d="M211.13,137.7s12.23-2.86,24.78,12.28,13.66,24.72,20.18,27.38"/><path class="cls-14" d="M213.87,136.5s12.23-2.86,24.78,12.27,13.67,24.73,20.18,27.39"/></g><path class="cls-3" d="M239.67,128.79s20.79,1.79,29,14.45,26,20.12,26,20.12l-21.45,7.58s-13.6-12.56-20.74-22.46S222.65,134,222.65,134Z"/><g class="cls-15"><path class="cls-14" d="M226.46,134.88s11.78-4.36,26.13,9.08,16.66,22.81,23.45,24.63"/><path class="cls-14" d="M229,132.36s11.78-4.36,26.13,9.08,16.66,22.81,23.45,24.63"/><path class="cls-14" d="M232.24,130.35S244,126,258.37,139.43s16.66,22.81,23.45,24.63"/><path class="cls-14" d="M234.81,128.81s11.78-4.37,26.13,9.08,16.66,22.81,23.45,24.63"/></g><path class="cls-16" d="M194.36,138.65s19,8.95,22.19,19.73,9.88,23.11,9.88,23.11l-8.49-2.92a40.92,40.92,0,0,0-5.64-20.19C206.25,147.84,192.11,140,192.11,140Z"/><ellipse class="cls-16" cx="207.05" cy="167.08" rx="6.3" ry="3.64"/><ellipse class="cls-16" cx="199.81" cy="156.67" rx="6.3" ry="3.64" transform="translate(-15.27 21.72) rotate(-5.99)"/><ellipse class="cls-16" cx="192.51" cy="147.81" rx="6.3" ry="3.64" transform="translate(-37.26 69.61) rotate(-18.72)"/></g><path class="cls-6" d="M252.93,109s6.32,21.23,6.95,27.42-12.25,6.33-14.27,1.14-7.58-24.14-8-28S248.39,99.48,252.93,109Z"/><path class="cls-4" d="M224.54,96.29s.79,10.67,3.43,15.87S247.41,100,247.41,100l-.81-5.11Z"/><path class="cls-17" d="M221.57,83.4s2,16.47,8.42,22.76l18.17-12.81-8.72-16Z"/><path class="cls-17" d="M225.37,94.54s1.29,1.82.75,2.87c0,0,3.69-1.89,3.21-3.77Z"/><path class="cls-3" d="M223.7,94.53s0,1.34,2.66.78,2.91-1,3-1.53Z"/><path class="cls-7" d="M242.06,100.45c9.14-2.36,13.17-12,13.58-14.82s.69-19.4-6.43-27.71c-6.52-7.62-15.82-5.39-15.82-5.39a18.14,18.14,0,0,0-14.12,12c-3.06,9.11.39,20,2.55,25.06,0,0,.69,3.53,1.48,4.63,0,0,2.35,1.4,6-.62,0,0-.08,2.82-4.31,3.82,0,0-.65.28.33,2.07S226.83,104.38,242.06,100.45Z"/><path class="cls-18" d="M220.4,80a19.68,19.68,0,0,1,10.78-1.71S224.59,73.15,220.4,80Z"/><ellipse class="cls-19" cx="221.34" cy="89.89" rx="3.06" ry="1.98" transform="translate(-11.36 35.81) rotate(-9.02)"/><path class="cls-19" d="M219.48,82.81A14.26,14.26,0,0,1,218.32,90l5.47.85-.47-4.1S220.34,79.11,219.48,82.81Z"/><path class="cls-4" d="M225.61,110.13c0-.38,0-.75,0-1.14.46-9.23.83-7.39.83-7.39s1.24-.82,1.38-.9a7.47,7.47,0,0,1,2.68-2.24c6.9-7.67,4.07-23.16,4.07-23.16-4.54-5.91-16.72-3-16.72-3-1.71-8-.82-10.94,3.92-14.38A17.47,17.47,0,0,1,235,52.63c5.91-.36,12.62,1.53,15.49,4.59,4.09,3.33,8.53,7,10.45,13,3,9.42-4.37,19.67-4.37,19.67s5.7,3.88-8.51,9.64S234.86,108.74,225.61,110.13Z"/><g class="cls-20"><circle class="cls-21" cx="256.67" cy="85.6" r="6.06"/><circle class="cls-21" cx="242.06" cy="94.98" r="6.06"/><path class="cls-22" d="M216,68.09s16.7-4.07,18.67,7.21-22.3,15.14-22.3,15.14l-.18-28Z"/><circle class="cls-21" cx="257.03" cy="60.99" r="6.06"/><circle class="cls-21" cx="229.51" cy="48.01" r="6.06"/></g><path class="cls-3" d="M231.07,81.72s-6.42-1.85-8.72.19a2.19,2.19,0,0,0-.59,2.28C222.46,85.57,225.89,86.57,231.07,81.72Z"/><g class="cls-23"><ellipse cx="224.38" cy="83.21" rx="1.63" ry="1.83" transform="translate(-10.27 36.21) rotate(-9.02)"/><circle class="cls-3" cx="223.19" cy="82.42" r="0.74"/></g><path class="cls-22" d="M240.74,65.38s4.59,9.07,2.81,18C243.55,83.39,250.23,70,240.74,65.38Z"/><path class="cls-22" d="M243.59,62s-3.62-5.14-7.82-6C235.77,56,243.56,54.25,243.59,62Z"/><path class="cls-24" d="M229.87,93.19a4.55,4.55,0,0,1-2.74,2.25c-2.24.88-3.32,1.16-3.72.77s-1-1.6.12-1.87S227.42,94.39,229.87,93.19Z"/><path class="cls-24" d="M229.9,93.25A5.18,5.18,0,0,1,228,96.58c-1.75,1.43-3.13,2-3.64,1.67s-1.13-1.62.17-2A8,8,0,0,0,229.9,93.25Z"/><path class="cls-5" d="M256.79,89.94s-19.47,4.52-30.61,14.72c0,0-5.35,1.27-5.12,6.43S213.92,131,217.83,137s5.71,8.3,12.5-.94,13.45-20.75,18-20.59,13.29,1.71,15.86-1.18S260.62,93,256.79,89.94Z"/><g class="cls-25"><g class="cls-26"><rect class="cls-27" x="170.5" y="118.86" width="75.88" height="2.64" transform="translate(33.83 285.71) rotate(-73.44)"/><rect class="cls-27" x="181.87" y="118.01" width="75.88" height="2.64" transform="translate(42.78 296) rotate(-73.44)"/><rect class="cls-27" x="193.24" y="117.15" width="75.88" height="2.64" transform="translate(51.72 306.29) rotate(-73.44)"/><rect class="cls-27" x="204.61" y="116.3" width="75.88" height="2.64" transform="translate(60.67 316.58) rotate(-73.44)"/><rect class="cls-27" x="215.98" y="115.45" width="75.88" height="2.64" transform="translate(69.62 326.87) rotate(-73.44)"/><rect class="cls-27" x="227.36" y="114.6" width="75.88" height="2.64" transform="translate(78.56 337.16) rotate(-73.44)"/></g><ellipse class="cls-28" cx="230.66" cy="126.63" rx="4.13" ry="4.33" transform="translate(44.17 312.27) rotate(-73.64)"/><ellipse class="cls-28" cx="222.04" cy="114.26" rx="4.13" ry="4.33" transform="translate(49.85 295.11) rotate(-73.64)"/><ellipse class="cls-28" cx="216.71" cy="133.29" rx="4.13" ry="4.33" transform="matrix(0.28, -0.96, 0.96, 0.28, 27.76, 303.67)"/><ellipse class="cls-28" cx="239.52" cy="93.98" rx="4.13" ry="4.33" transform="translate(81.86 297.31) rotate(-73.64)"/><path class="cls-27" d="M269.09,111.12s-1.82,3-14.6,2.2-16.21,5.66-22.06,14-11.09,18-17.22,7l1.08,11.51,56.25-7.26Z"/><g class="cls-26"><polygon class="cls-27" points="282.55 150.65 284.88 149.53 248.04 81.19 245.71 82.3 282.55 150.65"/><polygon class="cls-27" points="271.18 151.5 273.51 150.38 236.67 82.04 234.34 83.16 271.18 151.5"/><polygon class="cls-27" points="259.81 152.35 262.14 151.24 225.3 82.89 222.97 84.01 259.81 152.35"/><polygon class="cls-27" points="248.44 153.2 250.77 152.09 213.93 83.74 211.6 84.86 248.44 153.2"/><polygon class="cls-27" points="237.06 154.06 239.4 152.94 202.56 84.59 200.23 85.71 237.06 154.06"/><polygon class="cls-27" points="225.69 154.91 228.02 153.79 191.18 85.45 188.85 86.56 225.69 154.91"/></g><ellipse class="cls-28" cx="252.51" cy="102.68" rx="4.13" ry="4.33" transform="translate(82.84 316.03) rotate(-73.64)"/><ellipse class="cls-28" cx="239.52" cy="112" rx="4.13" ry="4.33" transform="translate(64.58 310.26) rotate(-73.64)"/></g><path class="cls-7" d="M229.15,142.56s-3.34-.78-4.61-2-4.82-2.81-4.51-1.4,2.3,3.49,2.3,3.49l-3.12.92s-1.37,1.95.47,5.19,4,3.74,4,3.74,6-.86,7.42-3.16S231.61,142.69,229.15,142.56Z"/><path class="cls-7" d="M216.24,146.31c5.32-.4,4.83-1.36,4.72-2.12s-2.41-1-5.14-.6S211,145,211.11,145.7,213.5,146.51,216.24,146.31Z"/><path class="cls-7" d="M216.44,149.7c5.23-1.07,4.62-2,4.42-2.69s-2.53-.71-5.17.05-4.63,2-4.42,2.69S213.75,150.26,216.44,149.7Z"/><path class="cls-7" d="M218.57,152.74c4.88-2.16,4.09-2.91,3.73-3.58s-2.61-.15-5,1.15-4.1,2.91-3.74,3.58S216.05,153.85,218.57,152.74Z"/><path class="cls-7" d="M221.59,154.29c4.73-2.48,3.9-3.17,3.49-3.81s-2.62,0-5,1.48-3.9,3.16-3.5,3.81S219.15,155.57,221.59,154.29Z"/><path class="cls-6" d="M249.49,128.2s-13,4.41-19.68,7.73-4.17,15.71,3,15.46,17.82-8.33,22-8.76,6.95-5.28,5.13-11.21S249.49,128.2,249.49,128.2Z"/></g></svg>