<svg id="boat01" xmlns="http://www.w3.org/2000/svg" width="650" height="650" viewBox="0 0 650 650">
  <defs>
    <style>
      .cls-1 {
        fill: #f27341;
      }
    </style>
  </defs>
  <title>05_orange_portion_sun</title>
  <polygon class="cls-1" points="166.9 229.22 139.06 160.95 200.03 178.11 196.13 121.63 253.61 155.92 272.72 86.98 307.58 130.94 336.75 83.83 364.51 138.18 420.37 95.29 422.35 163.71 482.68 137.91 466.36 207.23 535.56 201.66 505.6 250.37 562.56 263.57 513.08 307.62 566.59 341.93 506.67 368.93 551.91 419.99 479.54 425.97 504.18 490.68 453.57 476.65 457.85 530.34 393.58 491.71 376.87 561.83 340.02 517.88 306.92 574.96 280.65 503.49 224.03 551.96 219.34 495.09 169.72 515.26 186.01 441.96 114.42 446.35 142.8 398.84 89.81 385.62 138.88 340.38 77.78 299.35 134.16 279.54 94.14 237.99 166.9 229.22"/>
</svg>
