<svg id="boat01" xmlns="http://www.w3.org/2000/svg" xmlns:xlink="http://www.w3.org/1999/xlink" width="650" height="650" viewBox="0 0 650 650">
  <defs>
    <style>
      .cls-1 {
        fill: none;
      }

      .cls-2 {
        fill: #fbe831;
      }

      .cls-3 {
        fill: #f27341;
      }

      .cls-4 {
        fill: #f27342;
      }

      .cls-5 {
        fill: #fff;
      }

      .cls-6 {
        clip-path: url(#clip-path);
      }

      .cls-7 {
        fill: #ec764b;
      }

      .cls-8 {
        fill: #ed2d24;
      }

      .cls-9 {
        clip-path: url(#clip-path-2);
      }
    </style>
    <clipPath id="clip-path">
      <circle class="cls-1" cx="324.52" cy="314.2" r="36.88"/>
    </clipPath>
    <clipPath id="clip-path-2">
      <circle class="cls-1" cx="416.67" cy="325.01" r="36.88"/>
    </clipPath>
  </defs>
  <title>05_orange_portion_sun</title>
  <g>
    <circle class="cls-2" cx="325" cy="325" r="159.84"/>
    <path class="cls-3" d="M292.68,261.88s47.15-32.92,66.72,3.56c0,0,4.45-30.25-19.57-31.14S292.68,261.88,292.68,261.88Z"/>
    <path class="cls-3" d="M386.64,269.11s47.15-32.92,66.72,3.56c0,0,4.45-30.25-19.57-31.14S386.64,269.11,386.64,269.11Z"/>
    <path class="cls-4" d="M291,395.06s27.91,54.8,82.2,49.22C406.69,439.2,426,402.16,426,402.16S378.27,447.83,291,395.06Z"/>
    <g>
      <circle class="cls-5" cx="324.52" cy="314.2" r="36.88"/>
      <g class="cls-6">
        <g>
          <circle class="cls-7" cx="337.96" cy="319.13" r="23.25"/>
          <circle class="cls-8" cx="338.41" cy="319.2" r="15.75"/>
          <circle class="cls-5" cx="328.75" cy="309.15" r="7.33"/>
        </g>
      </g>
    </g>
    <g>
      <circle class="cls-5" cx="416.67" cy="325.01" r="36.88"/>
      <g class="cls-9">
        <g>
          <circle class="cls-7" cx="433.5" cy="331.55" r="23.25"/>
          <circle class="cls-8" cx="433.95" cy="331.62" r="15.75"/>
          <circle class="cls-5" cx="424.3" cy="321.58" r="7.33"/>
        </g>
      </g>
    </g>
    <circle class="cls-4" cx="368.44" cy="383.11" r="18.84"/>
  </g>
</svg>
