<svg id="Layer_1" data-name="Layer 1" xmlns="http://www.w3.org/2000/svg" xmlns:xlink="http://www.w3.org/1999/xlink" viewBox="0 0 325.76 329.31"><defs><style>.cls-1{fill:none;}.cls-2{fill:#f27341;}.cls-3{fill:#fbe831;}.cls-4{fill:#f27342;}.cls-5{fill:#fff;}.cls-6{clip-path:url(#clip-path);}.cls-7{fill:#ec764b;}.cls-8{fill:#ed2d24;}.cls-9{clip-path:url(#clip-path-2);}</style><clipPath id="clip-path"><circle class="cls-1" cx="162.57" cy="157.49" r="24.47"/></clipPath><clipPath id="clip-path-2"><circle class="cls-1" cx="223.7" cy="164.67" r="24.47"/></clipPath></defs><title>5_sun</title><polygon class="cls-2" points="40.7 154.15 4.07 121.73 45.38 114.02 26.46 81.57 70.73 85.07 61.83 38.45 95.49 54.35 98.99 17.76 131.48 41.92 152.09 0 173.38 40.11 201.68 7.03 212.34 53.06 251.86 29.41 248.36 67.19 286.13 58.3 269.64 99.04 311.55 103.72 283.84 137.38 325.76 154.46 284.48 179.29 318.15 210.53 283.92 217.06 302.25 247.73 252.67 243.65 263.34 290.27 228.5 274.96 225.59 318.63 188.97 283.85 169.54 329.31 150.03 296.87 126.45 323.46 114.59 275.07 73.3 298.72 76.22 262.13 40.81 269.83 56.71 228.5 8.3 222.06 36.02 193.7 0 180.75 40.7 154.15"/><circle class="cls-3" cx="162.88" cy="164.66" r="106.04"/><path class="cls-2" d="M141.44,122.78s31.28-21.84,44.27,2.36c0,0,3-20.07-13-20.66S141.44,122.78,141.44,122.78Z"/><path class="cls-2" d="M203.78,127.58s31.28-21.84,44.27,2.36c0,0,3-20.07-13-20.66S203.78,127.58,203.78,127.58Z"/><path class="cls-4" d="M140.33,211.14s18.51,36.35,54.53,32.65c22.22-3.37,35-27.94,35-27.94S198.22,246.14,140.33,211.14Z"/><circle class="cls-5" cx="162.57" cy="157.49" r="24.47"/><g class="cls-6"><circle class="cls-7" cx="171.48" cy="160.76" r="15.43"/><circle class="cls-8" cx="171.78" cy="160.81" r="10.45"/><circle class="cls-5" cx="165.37" cy="154.14" r="4.86"/></g><circle class="cls-5" cx="223.7" cy="164.67" r="24.47"/><g class="cls-9"><circle class="cls-7" cx="234.86" cy="169" r="15.43"/><circle class="cls-8" cx="235.16" cy="169.05" r="10.45"/><circle class="cls-5" cx="228.76" cy="162.39" r="4.86"/></g><circle class="cls-4" cx="191.7" cy="203.21" r="12.5"/></svg>