<svg id="Layer_1" data-name="Layer 1" xmlns="http://www.w3.org/2000/svg" xmlns:xlink="http://www.w3.org/1999/xlink" viewBox="0 0 1024 600"><defs><style>.cls-1{fill:none;}.cls-2{fill:#f9bc26;}.cls-3{clip-path:url(#clip-path);}.cls-4{fill:#784a30;}.cls-5{fill:#f49f28;}.cls-6{clip-path:url(#clip-path-2);}.cls-7{fill:#fbdb55;}.cls-8{clip-path:url(#clip-path-3);}.cls-9{clip-path:url(#clip-path-4);}.cls-10{clip-path:url(#clip-path-5);}.cls-11{fill:#90684e;}.cls-12{fill:#fbdc50;}.cls-13{fill:#fcdc53;}.cls-14{fill:#ffffbf;}.cls-15{fill:#7c2e18;}.cls-16{fill:#fff;}.cls-17{fill:#231f20;}.cls-18{fill:#cf8a00;}.cls-19{fill:#368524;}.cls-20{fill:#71b44d;}</style><clipPath id="clip-path"><path id="SVGID" class="cls-1" d="M380.38,503.1l.16,68.16a9.91,9.91,0,0,1-3,7.09h0a9.88,9.88,0,0,1-14.25-.46l-.17-.2a9.87,9.87,0,0,1-2.47-7.77l8-67.26S380.79,503.13,380.38,503.1Z"/></clipPath><clipPath id="clip-path-2"><path id="SVGID-2" data-name="SVGID" class="cls-1" d="M325.43,507.51l.16,68.16a9.91,9.91,0,0,1-3,7.09h0a9.87,9.87,0,0,1-14.25-.46l-.18-.19a9.9,9.9,0,0,1-2.46-7.78l8-67.25S325.84,507.54,325.43,507.51Z"/></clipPath><clipPath id="clip-path-3"><path id="SVGID-3" data-name="SVGID" class="cls-1" d="M387.47,502.41,398,569.75a9.89,9.89,0,0,1-1.86,7.46h0A9.88,9.88,0,0,1,382,578.92l-.2-.16a9.9,9.9,0,0,1-3.62-7.31l-2.3-67.69Z"/></clipPath><clipPath id="clip-path-4"><path id="SVGID-4" data-name="SVGID" class="cls-1" d="M387.62,504.32l10.53,67.34a9.89,9.89,0,0,1-1.86,7.46h0a9.88,9.88,0,0,1-14.16,1.71l-.2-.16a9.9,9.9,0,0,1-3.62-7.31L376,505.67Z"/></clipPath><clipPath id="clip-path-5"><path id="SVGID-5" data-name="SVGID" class="cls-1" d="M332.88,508.71l10.53,67.34a9.89,9.89,0,0,1-1.86,7.46h0a9.88,9.88,0,0,1-14.16,1.72l-.2-.17a9.89,9.89,0,0,1-3.62-7.31l-2.29-67.69S333.3,508.68,332.88,508.71Z"/></clipPath></defs><title>10_giraffe_stand_up</title><path class="cls-2" d="M380.38,503.1l.16,68.16a9.91,9.91,0,0,1-3,7.09h0a9.88,9.88,0,0,1-14.25-.46l-.17-.2a9.87,9.87,0,0,1-2.47-7.77l8-67.26S380.79,503.13,380.38,503.1Z"/><g class="cls-3"><path class="cls-4" d="M385.72,572.33l-29.05-2.11s0,13.58,14.22,14.62S385.72,572.33,385.72,572.33Z"/></g><path class="cls-5" d="M371.21,519.6a2.09,2.09,0,0,0,3,.48c.84-.86.41-2.26.33-3.46a5.41,5.41,0,0,1,.3-2.22c.64-1.79-1.34-2.56-2.8-2C370.09,513.25,370.16,518.18,371.21,519.6Z"/><path class="cls-5" d="M364.37,552.25c.95-1.76,4.22-.44,5.41.46a10,10,0,0,1,3,3.68,21.37,21.37,0,0,1,1.65,8.8c0,1-.12,2.17-1,2.47a1.7,1.7,0,0,1-1.83-.86,14.76,14.76,0,0,1-.85-2,5.06,5.06,0,0,0-3.88-2.88,2.55,2.55,0,0,1-1.1-.27,1.83,1.83,0,0,1-.58-.9,18,18,0,0,1-1.21-5.9A5,5,0,0,1,364.37,552.25Z"/><path class="cls-2" d="M325.43,507.51l.16,68.16a9.91,9.91,0,0,1-3,7.09h0a9.87,9.87,0,0,1-14.25-.46l-.18-.19a9.9,9.9,0,0,1-2.46-7.78l8-67.25S325.84,507.54,325.43,507.51Z"/><g class="cls-6"><path class="cls-4" d="M330.77,576.74l-29-2.11s0,13.58,14.22,14.62S330.77,576.74,330.77,576.74Z"/></g><path class="cls-5" d="M311.9,542.86c-.6-1.87-1.73-5.68.54-6.68a6.11,6.11,0,0,1,6.51,1.07,6.94,6.94,0,0,1,2.11,3.94,20.88,20.88,0,0,1,.26,4.54,6.33,6.33,0,0,1-.3,2.17,2.12,2.12,0,0,1-1.57,1.4c-1.29.17-2.19-1.18-3.24-1.94-.6-.44-1.31-.7-1.92-1.11A6.36,6.36,0,0,1,311.9,542.86Z"/><path class="cls-7" d="M387.47,502.41,398,569.75a9.89,9.89,0,0,1-1.86,7.46h0A9.88,9.88,0,0,1,382,578.92l-.2-.16a9.9,9.9,0,0,1-3.62-7.31l-2.3-67.69Z"/><g class="cls-8"><path class="cls-4" d="M403.29,570l-29,2.33s2.1,13.43,16.28,12.29S403.29,570,403.29,570Z"/></g><path class="cls-7" d="M387.62,504.32l10.53,67.34a9.89,9.89,0,0,1-1.86,7.46h0a9.88,9.88,0,0,1-14.16,1.71l-.2-.16a9.9,9.9,0,0,1-3.62-7.31L376,505.67Z"/><g class="cls-9"><path class="cls-4" d="M403.44,571.93l-29,2.33s2.09,13.43,16.27,12.29S403.44,571.93,403.44,571.93Z"/></g><path class="cls-2" d="M379.15,540.31c-.68-2.1-.5-3.59,1.3-5.12,1.28-1.08,2.83-.65,4,.38a7,7,0,0,1,1.84,3.2c1.56,5.17-.43,10.71-2.78,15.58-.28.59-.88,1.3-1.46,1a1.2,1.2,0,0,1-.46-.71c-.75-2.32-.73-4.8-1-7.22A34.2,34.2,0,0,0,379.15,540.31Z"/><path class="cls-7" d="M332.88,508.71l10.53,67.34a9.89,9.89,0,0,1-1.86,7.46h0a9.88,9.88,0,0,1-14.16,1.72l-.2-.17a9.89,9.89,0,0,1-3.62-7.31l-2.29-67.69S333.3,508.68,332.88,508.71Z"/><g class="cls-10"><path class="cls-4" d="M348.7,576.33l-29,2.33s2.09,13.42,16.27,12.28S348.7,576.33,348.7,576.33Z"/></g><path class="cls-2" d="M331.88,529.18a2.33,2.33,0,0,0,1.14-1.8,7,7,0,0,0-.17-2.19l-.69-3.69c-.32-1.66-1.88-4.73-3.56-1.92C327.26,521.82,327.34,531.48,331.88,529.18Z"/><path class="cls-2" d="M326.43,571.06c-.77-2.61-4.07-9.59-1.85-12.06a1.92,1.92,0,0,1,1.35-.71c1,0,2.42,1.6,2.82,2.4.72,1.46.78,3.16,1.29,4.7.75,2.23,2.41,4,3.42,6.16a3,3,0,0,1,.36,1.39,2.28,2.28,0,0,1-1.43,1.83,6.88,6.88,0,0,1-2.39.43,2.94,2.94,0,0,1-1.29-.13,2.12,2.12,0,0,1-.73-.6A9.21,9.21,0,0,1,326.43,571.06Z"/><path class="cls-11" d="M297.53,426.48s-6.69-12.79-13.95-12.61c-2.31,1.4,6.91,5.5,4.1,5.73s-7.95-3.4-8.09-.15,6.55,1.08,7.45,2.22-8.43.68-8.21,3.49S293.05,426,297.53,426.48Z"/><path class="cls-12" d="M313.75,437.3s-9.37-11-17.65-13.53l-2.59,3s13.15,12.68,14,18.26Z"/><path class="cls-13" d="M374.16,423.07c-2.13,6.35-16,3.57-29.44,3.94-10.28.29-22.56,1.16-29.54,5.23-17,9.92-12.95,25.29-12.61,47.37s.95,38.44,26.12,32.14c40.06-7.49,35.13,2.18,55.4-3s13.23-38.62,9.3-87.52Z"/><path class="cls-2" d="M333.34,458.87c3.14-3.24,14.12-4.45,18.82-5.42,4.45-.93,12-2.17,11.38,4.7-.24,2.79-3.06,4.72-3.72,7.45-.36,1.5,0,3.15-.66,4.56a5.31,5.31,0,0,1-1.91,2.11c-4.25,3-10,2.34-15,.87-3.25-1-6.56-2.33-8.68-5S331,461.31,333.34,458.87Z"/><path class="cls-2" d="M346.41,504.41c1.87,0,3.71.72,4-1.57.15-1.21-.82-2.8-1.34-3.85-1.22-2.45-3.29-4.82-6.33-4.56s-5.22,3.1-8.18,3.3c-2.06.15-4.09-1-6.12-.67-2.93.54-4.25,4.88-2.11,6.95,1.86,1.8,4.83,1.47,7.39,1.13A84.37,84.37,0,0,1,346.41,504.41Z"/><path class="cls-2" d="M377.89,488.66c2.2-2.66,5.77-4.39,8.31-6.77,3-2.78,5-2.2,5.78,2,.59,3.17.94,6.62-.56,9.47a10.13,10.13,0,0,1-8,4.94,6.35,6.35,0,0,1-5.2-1.45,5.94,5.94,0,0,1-1.46-4A6.21,6.21,0,0,1,377.89,488.66Z"/><path class="cls-2" d="M307.32,462.78a22.83,22.83,0,0,0,.6,2.87c.42,1.39,1.4,2.88,2.84,2.89,1.67,0,2.64-1.9,2.92-3.55a30.17,30.17,0,0,0,.23-5.86l-.27-10.22a5.4,5.4,0,0,0-.56-2.71,3.59,3.59,0,0,0-2.81-1.5c-2.88-.21-4.34,1.62-4.75,4.36a18.15,18.15,0,0,0,.21,5C306.12,457,306.84,459.9,307.32,462.78Z"/><circle class="cls-11" cx="463.97" cy="336.24" r="10.47"/><circle class="cls-11" cx="451.43" cy="348.35" r="10.47"/><circle class="cls-11" cx="489.15" cy="310.11" r="10.47"/><circle class="cls-11" cx="476.61" cy="322.22" r="10.47"/><circle class="cls-11" cx="511.97" cy="286.44" r="10.47"/><circle class="cls-11" cx="523.52" cy="274.45" r="10.47"/><circle class="cls-11" cx="499.43" cy="298.56" r="10.47"/><circle class="cls-11" cx="438.89" cy="360.47" r="10.47"/><circle class="cls-11" cx="426.35" cy="372.58" r="10.47"/><circle class="cls-11" cx="413.81" cy="384.69" r="10.47"/><circle class="cls-11" cx="401.27" cy="396.81" r="10.47"/><circle class="cls-11" cx="388.73" cy="408.92" r="10.47"/><circle class="cls-11" cx="379.35" cy="417.35" r="10.47"/><path class="cls-13" d="M385.07,440.38c31.11-37.94,146-151.45,146-151.45,17-11.79,20.44-28.29,1.48-20.86S381,417.83,370.6,424.92Z"/><path class="cls-2" d="M380.26,421.64c.39-2.24,2.12-3.46,3.34-5.21s2-3.58,3.59-4.85a10.52,10.52,0,0,1,2-1.16,7.94,7.94,0,0,1,4.06-.92,3.36,3.36,0,0,1,3,2.52,16.59,16.59,0,0,1-.72,7.23,6.31,6.31,0,0,1-3.08,3.9c-1.16.55-2.49.61-3.69,1.07-1.39.55-2.53,1.63-4,2.1s-3.4-.1-3.59-1.58C379.76,424.14,380,423.22,380.26,421.64Z"/><path class="cls-2" d="M455.58,349.78c1.53-2.79,4.48-7.66,8-8.32,2.47-.47,4.87.58,4,3.77s-5.62,6.72-7.72,9.08c-.92,1-2.11,2.18-3.48,1.95a2.82,2.82,0,0,1-2.05-2.88A7.78,7.78,0,0,1,455.58,349.78Z"/><path class="cls-2" d="M509.45,302.09c1.53-2.79,4.49-7.66,8-8.32,2.47-.47,4.88.58,4,3.77s-5.62,6.72-7.71,9.08c-.93,1-2.12,2.18-3.49,1.94a2.81,2.81,0,0,1-2-2.88A7.76,7.76,0,0,1,509.45,302.09Z"/><path class="cls-2" d="M417.28,397.16,408.66,407a3.1,3.1,0,0,0-1.09,2.43,2.13,2.13,0,0,0,2.69,1.35,6.14,6.14,0,0,0,2.7-2c4.26-4.58,8.93-9,12.9-13.8a1.71,1.71,0,0,0,.55-1.55c-.22-.64-1-.79-1.72-.79a14.68,14.68,0,0,0-1.75.11,3.18,3.18,0,0,0-1.05.26,4.15,4.15,0,0,0-.77.55A27.44,27.44,0,0,0,417.28,397.16Z"/><path class="cls-2" d="M426.24,376.44c0-1.81,1.61-6.23,2.89-7.51a2.57,2.57,0,0,1,3.21-.5,4.24,4.24,0,0,0,.69.51c.68.32,1.44-.2,2.19-.3a2.27,2.27,0,0,1,2.37,1.68c.72,2.78-2.13,2.9-3.81,3.75-1.25.63-1.88,2-2.7,3.14s-2.22,2.16-3.51,1.62A2.51,2.51,0,0,1,426.24,376.44Z"/><path class="cls-2" d="M477.56,321.56c0-1.82,1.61-6.24,2.89-7.52a2.59,2.59,0,0,1,3.22-.5,3.85,3.85,0,0,0,.69.51c.68.32,1.44-.2,2.19-.3a2.26,2.26,0,0,1,2.36,1.68c.72,2.78-2.13,2.9-3.81,3.75-1.24.63-1.88,2-2.69,3.14s-2.23,2.16-3.51,1.62A2.51,2.51,0,0,1,477.56,321.56Z"/><path class="cls-13" d="M544.6,251.86s-6.17-36.58,22.64-47a6.44,6.44,0,0,1,8.52,4.82C577.86,220.27,577.18,240.9,544.6,251.86Z"/><path class="cls-14" d="M544.71,251.55s-4.1-24.29,15-31.17a4.26,4.26,0,0,1,5.65,3.19C566.79,230.58,566.34,244.27,544.71,251.55Z"/><path class="cls-13" d="M525,266.84s-33.27-16.43-51.48,8.18a6.43,6.43,0,0,0,2.16,9.54C485.19,289.61,505.14,294.89,525,266.84Z"/><path class="cls-14" d="M524.68,266.85s-22.08-10.91-34.18,5.43a4.27,4.27,0,0,0,1.43,6.33C498.24,282,511.49,285.48,524.68,266.85Z"/><polygon class="cls-13" points="542.76 248.22 530.39 210.22 523.4 212.99 531.65 249.64 542.76 248.22"/><circle class="cls-15" cx="525.36" cy="208.57" r="8.67"/><polygon class="cls-13" points="525.76 262.81 491.19 242.77 495.37 236.51 529.48 252.25 525.76 262.81"/><circle class="cls-15" cx="490.63" cy="237.5" r="8.67"/><path class="cls-13" d="M591.83,288.63s-28.21-70-63.86-44.76,4.88,63.92,20.19,80.59Z"/><ellipse class="cls-14" cx="574.4" cy="308.53" rx="35.12" ry="24.18" transform="translate(-56.84 471.8) rotate(-42.74)"/><circle class="cls-16" cx="556.07" cy="265.85" r="9.01"/><circle class="cls-17" cx="556.07" cy="265.85" r="5.99"/><circle class="cls-18" cx="576.81" cy="299.15" r="4.66"/><circle class="cls-18" cx="564.19" cy="309.15" r="4.66"/><circle class="cls-16" cx="551.92" cy="265.97" r="1.92"/><circle class="cls-16" cx="537.27" cy="282.53" r="9.01"/><circle class="cls-17" cx="537.27" cy="282.53" r="5.99"/><circle class="cls-16" cx="533.12" cy="282.65" r="1.92"/><path class="cls-2" d="M522,261.76c-6.73-2.94,5.85-16,9.21-16.93s7.1.29,4.37,4.21a5.68,5.68,0,0,0-.3,5.84c.53,1,1.36,1.81,1.49,2.89.25,2.05-2.1,3.5-4.16,3.6s-4.14-.58-6.17-.18C524.9,261.49,523.35,262.37,522,261.76Z"/><path class="cls-2" d="M555.76,247.84c.88.89,2.18,1.6,3.32,1.13C566.51,245.94,548.25,240.26,555.76,247.84Z"/><path class="cls-2" d="M544.11,248.71c-3.47,1.57-7.61-3-6.14-6.41a3,3,0,0,1,2.72-1.58c2,0,3.74,1.23,5.56,1.79a8.21,8.21,0,0,1,4.45,2.7.92.92,0,0,1,.2.49c0,.46-.6.63-1.06.69a9.92,9.92,0,0,0-3.87,1.19A19.61,19.61,0,0,1,544.11,248.71Z"/><path class="cls-2" d="M527.68,291.46c-2.57,3-9.36-3.15-7.12-6.26,1.75-2.42,3,0,3.52,1.53S529,289.92,527.68,291.46Z"/><path class="cls-2" d="M515.6,270.18c-.66,4,1,8.94,4.55,9.77a2.18,2.18,0,0,0,1.51-.14,2.13,2.13,0,0,0,1-1.73,5.67,5.67,0,0,0-.31-2c-.62-2.21-1.36-4.51-.9-6.77a21,21,0,0,0,.74-3.11,1.16,1.16,0,0,0-.22-.86,1.21,1.21,0,0,0-.8-.31C517.91,264.73,516.11,267.18,515.6,270.18Z"/><ellipse class="cls-18" cx="585.15" cy="315.17" rx="17.35" ry="5.02" transform="translate(-69.46 430.12) rotate(-38.27)"/><path class="cls-19" d="M576.15,328.56a2.81,2.81,0,0,1-.53-.68,10.67,10.67,0,0,1-.81-2.19,6.75,6.75,0,0,1-.35-2.48,5.89,5.89,0,0,1,.25-1.38,6.11,6.11,0,0,1,.34-1.2,5.47,5.47,0,0,1,.56-1,2.62,2.62,0,0,1,.48-.46c1.31-1,2.64-2,3.95-2.95a3.84,3.84,0,0,1,4.08-.43c2.09,1,3.67.2,5.08-1.26,2-2.05,3.43-4.52,5.26-6.68.86-1,1.71-2.44,3.28-2s2,2,2.41,3.37a13.25,13.25,0,0,1,.36,1.51c.46,2.58.31,2.85-2.14,3.83a9.08,9.08,0,0,0-4.23,2.74,3,3,0,0,0,0,4.09,6.94,6.94,0,0,0,4.7,2.7c1.18.16,2.42.4,2.8,1.68s-.49,2.27-1.5,3l-1.61,1.14-3.94,2.77-2,1.37a2,2,0,0,0-.65.59,6.32,6.32,0,0,1-.65.82,2.09,2.09,0,0,1-.44.45c-.06,0-.17.16-.24.18s-.15,0-.23,0c-.27.11-.42.47-.71.53a2.88,2.88,0,0,1-.72,0,5.24,5.24,0,0,1-1.31-.07l-.3-.06a2.06,2.06,0,0,0-.43,0,4.26,4.26,0,0,1-.7.07,1.51,1.51,0,0,1-.88-.39,4.78,4.78,0,0,1-.88-.86,2.64,2.64,0,0,0-.3-.42,4.79,4.79,0,0,1-.41-.36,10.52,10.52,0,0,1-.78-1.25,5.14,5.14,0,0,0-.29-.51c-.06-.07-.14-.12-.19-.19s0-.22-.11-.31a2.19,2.19,0,0,0-.5-.46,3.12,3.12,0,0,0-.41-.33,2.75,2.75,0,0,1-.3-.14,3.19,3.19,0,0,0-.84-.38,4.75,4.75,0,0,1-1-.56c-.58-.32-1.18-.61-1.77-.89A5.58,5.58,0,0,1,576.15,328.56Z"/><path class="cls-19" d="M587.28,318.62a2.8,2.8,0,0,1,.39-.77,11.77,11.77,0,0,1,1.65-1.66,6.82,6.82,0,0,1,2.11-1.36,6.23,6.23,0,0,1,1.35-.35,6.52,6.52,0,0,1,1.24-.19,5.86,5.86,0,0,1,1.18.08,2.28,2.28,0,0,1,.61.24c1.46.77,2.89,1.56,4.34,2.35a3.82,3.82,0,0,1,2.1,3.52c0,2.3,1.35,3.42,3.27,4.08,2.69.94,5.54,1.22,8.28,2,1.29.36,2.93.53,3.23,2.13s-.95,2.64-2,3.6c-.39.34-.81.66-1.23,1-2.14,1.5-2.45,1.47-4.37-.34a9.1,9.1,0,0,0-4.27-2.69,3,3,0,0,0-3.7,1.73,6.89,6.89,0,0,0-.48,5.39c.35,1.14.65,2.36-.35,3.25s-2.27.51-3.34-.11l-1.71-1-4.17-2.42-2.08-1.22a2,2,0,0,0-.8-.34,7.19,7.19,0,0,1-1-.24,2.32,2.32,0,0,1-.59-.22,1.15,1.15,0,0,1-.27-.14c-.06-.07,0-.15-.09-.2-.22-.21-.6-.2-.78-.43a2.59,2.59,0,0,1-.33-.64,5.37,5.37,0,0,1-.49-1.22c0-.1,0-.2-.07-.3a2,2,0,0,0-.17-.4,3.67,3.67,0,0,1-.36-.6,1.57,1.57,0,0,1,0-1,5.18,5.18,0,0,1,.42-1.16,2.23,2.23,0,0,0,.25-.45c.06-.17.08-.36.15-.52a10.12,10.12,0,0,1,.82-1.23,5.11,5.11,0,0,0,.33-.48c0-.08,0-.18.1-.26s.18-.13.24-.22a2.45,2.45,0,0,0,.2-.65,3.47,3.47,0,0,0,.13-.51c0-.12,0-.22,0-.33a2.84,2.84,0,0,0,0-.92,5.16,5.16,0,0,1,.11-1.11c.05-.65.06-1.32.06-2A6,6,0,0,1,587.28,318.62Z"/><path class="cls-20" d="M594.41,305.94a1.44,1.44,0,0,1,1.42.94,5.67,5.67,0,0,0,.32,1.38c.1.16.4.3.55.41s.56.42.85.62,1.06.62,1.25,1.11a1.19,1.19,0,0,1,0,.83,1.78,1.78,0,0,0-.17.49.54.54,0,0,0,.09.27,6.74,6.74,0,0,0,1.34,1.63,23.84,23.84,0,0,0,3.76,2.95,24.52,24.52,0,0,1,3.14,2.68c1.11,1.09,1,2.61-.39,3.08-3.93,1.36-4.25,4.62-4.57,7.85q-.13,1.43-.24,2.85a13.88,13.88,0,0,0-.13,2.73c.07.56.39,1,.45,1.6a3.26,3.26,0,0,1-.56,2.27,3.94,3.94,0,0,1-1,1.15,3.34,3.34,0,0,1-1.22.51,5.9,5.9,0,0,1-1.19,0c-.71-.05-1.26.14-1.91-.24a2.24,2.24,0,0,1-.86-.78,3.12,3.12,0,0,1-.34-1.7c0-.52.38-.86.06-1.33a7.31,7.31,0,0,0-3-2.17c-1.89-.89-4-1.23-5.77-2.36a3.63,3.63,0,0,1-1.77-4.33,12.89,12.89,0,0,1,5.4-7.67,4.45,4.45,0,0,0,.58-.38c3-2.89,3.33-3-.25-5-1.8-1-2-2-.81-3.78l.27-.4a6.29,6.29,0,0,1,.93-1.13c.33-.31.71-.54,1-.86a5.42,5.42,0,0,0,.85-1.45,3.94,3.94,0,0,1,1.47-1.66A1.19,1.19,0,0,1,594.41,305.94Z"/></svg>