<svg id="Layer_1" data-name="Layer 1" xmlns="http://www.w3.org/2000/svg" xmlns:xlink="http://www.w3.org/1999/xlink" viewBox="0 0 1024 600"><defs><style>.cls-1{fill:none;}.cls-2{fill:#f9bc26;}.cls-3{clip-path:url(#clip-path);}.cls-4{fill:#784a30;}.cls-5{fill:#f49f28;}.cls-6{clip-path:url(#clip-path-2);}.cls-7{fill:#fbdb55;}.cls-8{clip-path:url(#clip-path-3);}.cls-9{clip-path:url(#clip-path-4);}.cls-10{fill:#90684e;}.cls-11{fill:#fbdc50;}.cls-12{fill:#fcdc53;}.cls-13{fill:#ffffbf;}.cls-14{fill:#7c2e18;}.cls-15{fill:#fff;}.cls-16{fill:#231f20;}.cls-17{fill:#cf8a00;}</style><clipPath id="clip-path"><path id="SVGID" class="cls-1" d="M375.87,548.92l67.83-6.71a9.9,9.9,0,0,1,7.35,2.28h0a9.89,9.89,0,0,1,.91,14.23l-.18.19a9.85,9.85,0,0,1-7.5,3.2l-67.72-1.53S375.86,548.5,375.87,548.92Z"/></clipPath><clipPath id="clip-path-2"><path id="SVGID-2" data-name="SVGID" class="cls-1" d="M316.41,567.31,249.83,582a9.94,9.94,0,0,1-7.56-1.4h0a9.88,9.88,0,0,1-2.57-14l.15-.21a9.86,9.86,0,0,1,7.07-4.06l67.43-6.44S316.46,567.72,316.41,567.31Z"/></clipPath><clipPath id="clip-path-3"><path id="SVGID-3" data-name="SVGID" class="cls-1" d="M381.7,551.43l67.89,6.14a9.9,9.9,0,0,1,6.78,3.62h0a9.88,9.88,0,0,1-1.77,14.15l-.21.16a9.91,9.91,0,0,1-8,1.73L380.19,563S381.77,551,381.7,551.43Z"/></clipPath><clipPath id="clip-path-4"><path id="SVGID-4" data-name="SVGID" class="cls-1" d="M327.92,567.34l-64.38,22.38a9.86,9.86,0,0,1-7.68-.5h0a9.88,9.88,0,0,1-4.21-13.62l.13-.23a9.87,9.87,0,0,1,6.55-4.86l66.19-14.34S328,567.75,327.92,567.34Z"/></clipPath></defs><title>10_giraffe_stand_up</title><path class="cls-2" d="M375.87,548.92l67.83-6.71a9.9,9.9,0,0,1,7.35,2.28h0a9.89,9.89,0,0,1,.91,14.23l-.18.19a9.85,9.85,0,0,1-7.5,3.2l-67.72-1.53S375.86,548.5,375.87,548.92Z"/><g class="cls-3"><path class="cls-4" d="M444.27,537l.69,29.11s13.52-1.33,13.18-15.55S444.27,537,444.27,537Z"/></g><path class="cls-5" d="M393.18,556.46a2.09,2.09,0,0,0,.19-3.05c-.94-.75-2.3-.2-3.48,0a5.64,5.64,0,0,1-2.24-.09c-1.84-.47-2.42,1.58-1.68,3C387,558.19,391.87,557.64,393.18,556.46Z"/><path class="cls-5" d="M426.34,560.13c-1.85-.78-.85-4.16-.07-5.43a10,10,0,0,1,3.38-3.32,21.44,21.44,0,0,1,8.6-2.49c1-.12,2.17-.08,2.56.8a1.7,1.7,0,0,1-.68,1.91,16.9,16.9,0,0,1-1.92,1,5,5,0,0,0-2.49,4.14,2.43,2.43,0,0,1-.17,1.11,1.83,1.83,0,0,1-.83.67,18,18,0,0,1-5.76,1.77A5,5,0,0,1,426.34,560.13Z"/><path class="cls-2" d="M316.41,567.31,249.83,582a9.94,9.94,0,0,1-7.56-1.4h0a9.88,9.88,0,0,1-2.57-14l.15-.21a9.86,9.86,0,0,1,7.07-4.06l67.43-6.44S316.46,567.72,316.41,567.31Z"/><g class="cls-6"><path class="cls-4" d="M249.88,587.24l-4.1-28.83s-13.27,2.91-11.26,17S249.88,587.24,249.88,587.24Z"/></g><path class="cls-5" d="M279,561.6c1.7-1,5.18-2.89,6.64-.89a6.13,6.13,0,0,1,.34,6.59,7,7,0,0,1-3.4,2.9,20.12,20.12,0,0,1-4.39,1.21,6,6,0,0,1-2.18.17,2.09,2.09,0,0,1-1.7-1.23c-.45-1.22.69-2.39,1.21-3.58.3-.68.4-1.43.67-2.12A6.35,6.35,0,0,1,279,561.6Z"/><path class="cls-7" d="M381.7,551.43l67.89,6.14a9.9,9.9,0,0,1,6.78,3.62h0a9.88,9.88,0,0,1-1.77,14.15l-.21.16a9.91,9.91,0,0,1-8,1.73L380.19,563S381.77,551,381.7,551.43Z"/><g class="cls-8"><path class="cls-4" d="M451.14,552.51l-4.79,28.73s13.53,1.22,15.87-12.81S451.14,552.51,451.14,552.51Z"/></g><path class="cls-2" d="M414.56,568.4c-2.2.14-3.6-.4-4.65-2.52-.74-1.5,0-2.9,1.33-3.75a7,7,0,0,1,3.55-1c5.4-.26,10.29,3,14.44,6.48.51.42,1,1.17.6,1.65a1.2,1.2,0,0,1-.8.28c-2.43.17-4.83-.46-7.24-.83A33.64,33.64,0,0,0,414.56,568.4Z"/><path class="cls-7" d="M327.92,567.34l-64.38,22.38a9.86,9.86,0,0,1-7.68-.5h0a9.88,9.88,0,0,1-4.21-13.62l.13-.23a9.87,9.87,0,0,1,6.55-4.86l66.19-14.34S328,567.75,327.92,567.34Z"/><g class="cls-9"><path class="cls-4" d="M264.21,595l-7.47-28.15s-12.83,4.45-9.18,18.2S264.21,595,264.21,595Z"/></g><path class="cls-2" d="M307.6,570a2.34,2.34,0,0,0,2,.79,6.65,6.65,0,0,0,2.13-.56l3.51-1.34c1.58-.6,4.32-2.68,1.25-3.83C314,564.16,304.52,566,307.6,570Z"/><path class="cls-2" d="M265.42,572.13c2.43-1.23,8.71-5.73,11.54-4a2,2,0,0,1,.94,1.2c.2,1-1.14,2.67-1.86,3.21-1.31,1-3,1.32-4.39,2.11-2.07,1.13-3.55,3.08-5.46,4.46a2.92,2.92,0,0,1-1.3.6,2.27,2.27,0,0,1-2.06-1.08,6.65,6.65,0,0,1-.84-2.28,2.58,2.58,0,0,1-.1-1.29,2,2,0,0,1,.46-.83A9.18,9.18,0,0,1,265.42,572.13Z"/><path class="cls-10" d="M297.53,480.68s-6.69-12.8-13.95-12.62c-2.31,1.4,6.91,5.51,4.1,5.73s-7.95-3.4-8.09-.15,6.55,1.09,7.45,2.23-8.43.68-8.21,3.49S293.05,480.23,297.53,480.68Z"/><path class="cls-11" d="M313.75,491.49s-9.37-11-17.65-13.53l-2.59,3s13.15,12.68,14,18.27Z"/><path class="cls-12" d="M374.16,477.27c-2.13,6.34-16,3.57-29.44,3.94-10.28.28-22.56,1.15-29.54,5.22-17,9.93-12.95,25.29-12.61,47.38s.95,38.44,26.12,32.14c40.06-7.5,35.13,2.17,55.4-3s13.23-38.63,9.3-87.53Z"/><path class="cls-2" d="M333.34,513.07c3.14-3.25,14.12-4.46,18.82-5.43,4.45-.92,12-2.17,11.38,4.71-.24,2.79-3.06,4.72-3.72,7.44-.36,1.5,0,3.15-.66,4.56a5.31,5.31,0,0,1-1.91,2.11c-4.25,3-10,2.34-15,.87-3.25-1-6.56-2.33-8.68-5S331,515.5,333.34,513.07Z"/><path class="cls-2" d="M346.41,558.6c1.87,0,3.71.72,4-1.56.15-1.21-.82-2.81-1.34-3.86-1.22-2.45-3.29-4.82-6.33-4.56s-5.22,3.1-8.18,3.31c-2.06.14-4.09-1-6.12-.67-2.93.53-4.25,4.87-2.11,7,1.86,1.8,4.83,1.46,7.39,1.12A85.7,85.7,0,0,1,346.41,558.6Z"/><path class="cls-2" d="M377.89,542.85c2.2-2.65,5.77-4.38,8.31-6.77,3-2.78,5-2.19,5.78,2,.59,3.17.94,6.61-.56,9.46a10.08,10.08,0,0,1-8,4.94,6.35,6.35,0,0,1-5.2-1.44,6,6,0,0,1-1.46-4A6.22,6.22,0,0,1,377.89,542.85Z"/><path class="cls-2" d="M307.32,517a23.6,23.6,0,0,0,.6,2.87c.42,1.38,1.4,2.87,2.84,2.88,1.67,0,2.64-1.9,2.92-3.54a30.27,30.27,0,0,0,.23-5.87l-.27-10.22a5.38,5.38,0,0,0-.56-2.7,3.57,3.57,0,0,0-2.81-1.51c-2.88-.21-4.34,1.62-4.75,4.37a18.09,18.09,0,0,0,.21,5C306.12,511.17,306.84,514.09,307.32,517Z"/><circle class="cls-10" cx="375.46" cy="357.44" r="10.47"/><circle class="cls-10" cx="375.21" cy="374.88" r="10.47"/><circle class="cls-10" cx="374.67" cy="321.16" r="10.47"/><circle class="cls-10" cx="374.42" cy="338.6" r="10.47"/><circle class="cls-10" cx="373.95" cy="288.3" r="10.47"/><circle class="cls-10" cx="373.59" cy="271.65" r="10.47"/><circle class="cls-10" cx="373.71" cy="305.73" r="10.47"/><circle class="cls-10" cx="374.97" cy="392.31" r="10.47"/><circle class="cls-10" cx="374.73" cy="409.74" r="10.47"/><circle class="cls-10" cx="374.49" cy="427.18" r="10.47"/><circle class="cls-10" cx="374.25" cy="444.61" r="10.47"/><circle class="cls-10" cx="374" cy="462.04" r="10.47"/><circle class="cls-10" cx="373.37" cy="474.65" r="10.47"/><path class="cls-12" d="M393.74,486.81c-5-48.8-4.53-210.34-4.53-210.34,3.63-20.39-5.67-34.44-13.76-15.75s-.57,213.08-2.88,225.46Z"/><path class="cls-2" d="M377.05,477c-1.31-1.86-.95-3.94-1.34-6s-1.15-3.91-.9-6a10.25,10.25,0,0,1,.58-2.24,7.86,7.86,0,0,1,2.22-3.53,3.36,3.36,0,0,1,3.91-.37,16.81,16.81,0,0,1,4.62,5.6,6.31,6.31,0,0,1,.6,4.94c-.43,1.21-1.33,2.2-1.84,3.38-.59,1.37-.63,2.94-1.3,4.28s-2.47,2.34-3.65,1.43C378.48,479.14,378,478.33,377.05,477Z"/><path class="cls-2" d="M379.15,372.94c-.9-3.05-2.27-8.58-.27-11.54,1.41-2.08,3.85-3,5.5-.18s.8,8.72,1,11.87c.09,1.39.06,3-1.07,3.85a2.83,2.83,0,0,1-3.49-.58A7.83,7.83,0,0,1,379.15,372.94Z"/><path class="cls-2" d="M383.28,301.11c-.9-3.05-2.27-8.58-.27-11.54,1.41-2.08,3.85-3.05,5.5-.18s.8,8.72,1,11.87c.09,1.39.06,3-1.07,3.85a2.84,2.84,0,0,1-3.49-.58A7.89,7.89,0,0,1,383.28,301.11Z"/><path class="cls-2" d="M385.78,433.5l.92,13.08a3.16,3.16,0,0,0,1,2.49,2.13,2.13,0,0,0,2.86-1,6.18,6.18,0,0,0,.49-3.31c-.24-6.25-.08-12.67-.7-18.88-.06-.57-.19-1.23-.71-1.48s-1.3.18-1.77.66a16.1,16.1,0,0,0-1.16,1.32,3.51,3.51,0,0,0-.55.93,3.7,3.7,0,0,0-.16.94A26.77,26.77,0,0,0,385.78,433.5Z"/><path class="cls-2" d="M377.39,412.55c-1.26-1.31-3.29-5.54-3.29-7.34a2.57,2.57,0,0,1,1.9-2.64,4.71,4.71,0,0,0,.85-.13c.71-.26.88-1.16,1.34-1.76a2.25,2.25,0,0,1,2.85-.5c2.48,1.45.56,3.55,0,5.35-.43,1.32.1,2.74.33,4.12s0,3.1-1.33,3.63A2.5,2.5,0,0,1,377.39,412.55Z"/><path class="cls-2" d="M374.62,337.45c-1.26-1.31-3.29-5.54-3.3-7.34a2.59,2.59,0,0,1,1.91-2.64,4.85,4.85,0,0,0,.85-.13c.71-.26.88-1.16,1.33-1.76a2.27,2.27,0,0,1,2.86-.5c2.48,1.45.55,3.56,0,5.35-.43,1.33.09,2.74.32,4.12s0,3.1-1.32,3.63A2.48,2.48,0,0,1,374.62,337.45Z"/><path class="cls-12" d="M408.81,251.87s-1.84-37.05,28-44a6.44,6.44,0,0,1,7.9,5.78C445.54,224.4,442.45,244.81,408.81,251.87Z"/><path class="cls-13" d="M408.94,251.58s-1.22-24.61,18.59-29.2a4.27,4.27,0,0,1,5.24,3.84C433.34,233.34,431.28,246.89,408.94,251.58Z"/><path class="cls-12" d="M387.59,264.45s-31.11-20.22-52.08,2.08a6.43,6.43,0,0,0,1,9.73C345.37,282.39,364.56,290,387.59,264.45Z"/><path class="cls-13" d="M387.27,264.42S366.61,251,352.68,265.8a4.28,4.28,0,0,0,.68,6.47C359.23,276.33,372,281.37,387.27,264.42Z"/><polygon class="cls-12" points="407.4 248.04 399.58 208.85 392.31 210.79 396.21 248.15 407.4 248.04"/><circle class="cls-14" cx="394.78" cy="206.62" r="8.67"/><polygon class="cls-12" points="388.81 260.54 356.83 236.58 361.71 230.86 393.74 250.49 388.81 260.54"/><circle class="cls-14" cx="356.89" cy="231.28" r="8.67"/><path class="cls-12" d="M451.39,293.92S431.6,221.05,393.23,242s-2.66,64.05,10.59,82.4Z"/><ellipse class="cls-13" cx="431.75" cy="311.64" rx="35.12" ry="24.18" transform="translate(-100.72 313.37) rotate(-36.01)"/><circle class="cls-15" cx="418.56" cy="267.11" r="9.01"/><circle class="cls-16" cx="418.56" cy="267.11" r="5.99"/><circle class="cls-17" cx="435.25" cy="302.61" r="4.66"/><circle class="cls-17" cx="421.54" cy="311.07" r="4.66"/><circle class="cls-15" cx="414.41" cy="266.74" r="1.92"/><circle class="cls-15" cx="397.93" cy="281.47" r="9.01"/><circle class="cls-16" cx="397.93" cy="281.47" r="5.99"/><circle class="cls-15" cx="393.79" cy="281.1" r="1.92"/><path class="cls-2" d="M385.15,259c-6.34-3.7,7.68-15.17,11.13-15.73s7,1.12,3.85,4.7a5.66,5.66,0,0,0-1,5.77c.41,1,1.13,1.95,1.13,3,0,2.06-2.49,3.23-4.55,3.08s-4.05-1.06-6.1-.9C388.11,259.13,386.47,259.81,385.15,259Z"/><path class="cls-2" d="M420.36,249.19c.77,1,2,1.84,3.17,1.51C431.25,248.56,413.79,240.78,420.36,249.19Z"/><path class="cls-2" d="M408.68,248.69c-3.62,1.15-7.19-3.9-5.34-7.09a3,3,0,0,1,2.88-1.25c1.95.19,3.57,1.66,5.32,2.43a8.26,8.26,0,0,1,4.1,3.21.75.75,0,0,1,.14.5c0,.46-.67.56-1.13.56a10.15,10.15,0,0,0-4,.73A21,21,0,0,1,408.68,248.69Z"/><path class="cls-2" d="M387.36,289.21c-2.91,2.7-8.93-4.22-6.34-7,2-2.2,2.93.36,3.31,1.94S388.84,287.84,387.36,289.21Z"/><path class="cls-2" d="M377.86,266.67c-1.13,3.87-.1,9,3.37,10.23a2.18,2.18,0,0,0,1.51,0,2.12,2.12,0,0,0,1.18-1.6,5.71,5.71,0,0,0-.07-2.06c-.35-2.27-.82-4.64-.1-6.82a20.9,20.9,0,0,0,1.1-3,1.16,1.16,0,0,0-.12-.88,1.13,1.13,0,0,0-.75-.39C380.79,261.52,378.71,263.74,377.86,266.67Z"/><ellipse class="cls-17" cx="441.64" cy="319.5" rx="17.35" ry="5.02" transform="translate(-101.88 278.14) rotate(-31.53)"/></svg>