<svg id="_3" data-name="3" xmlns="http://www.w3.org/2000/svg" xmlns:xlink="http://www.w3.org/1999/xlink" viewBox="0 0 260 168"><defs><style>.cls-1{fill:#9e6041;}.cls-2{fill:#821717;}.cls-3{fill:#4368ef;}.cls-4{fill:#a46c35;}.cls-5{fill:#ad3d1a;}.cls-6{fill:#8e5339;}.cls-7{clip-path:url(#clip-path);}.cls-8{fill:#bc785b;}.cls-9{fill:#ac6f47;}.cls-10{clip-path:url(#clip-path-2);}.cls-11{fill:#701010;}.cls-12{clip-path:url(#clip-path-3);}.cls-13{clip-path:url(#clip-path-4);}.cls-14{fill:#3763dd;}.cls-15{fill:#8b5e3c;}.cls-16{clip-path:url(#clip-path-5);}.cls-17{fill:#995f2b;}.cls-18{fill:#fff;}.cls-19,.cls-20{fill:none;stroke:#603913;stroke-linecap:round;stroke-linejoin:round;}.cls-19{stroke-width:2.06px;}.cls-20{stroke-width:1.71px;}.cls-21{fill:#6a3e1e;}.cls-22{fill:#5f0a0f;}.cls-23{fill:#dd993e;}.cls-24{fill:#dd643e;}.cls-25{fill:#d3562a;}.cls-26{fill:#603913;}</style><clipPath id="clip-path"><path class="cls-1" d="M169.4,125.53a15.37,15.37,0,0,0-1.57,5.12c-.21,2.57-1.5,7.46-3.55,6.88s.13-4.49.12-5.38-.84-1.3-1.68-.17a19.86,19.86,0,0,0-3.1,6.05c-.4,1.94-.12,5-1.62,5.64s-1.88-4.27-1.71-6.49a40.08,40.08,0,0,1,1.55-6.54s2.22-6.1,5.53-9l4.32,1.44Z"/></clipPath><clipPath id="clip-path-2"><path class="cls-2" d="M181.42,129l-.5,10.77s10.44,5,20.73,5,24.29-3.43,24.29-3.43l-3.48-15.22Z"/></clipPath><clipPath id="clip-path-3"><path class="cls-1" d="M236.65,125.53a15.27,15.27,0,0,1,1.58,5.12c.2,2.57,1.5,7.46,3.54,6.88s-.13-4.49-.12-5.38.84-1.3,1.69-.17a20.32,20.32,0,0,1,3.1,6.05c.39,1.94.12,5,1.61,5.64s1.88-4.27,1.72-6.49a39.76,39.76,0,0,0-1.56-6.54s-2.22-6.1-5.53-9L238.36,123Z"/></clipPath><clipPath id="clip-path-4"><path class="cls-3" d="M224.62,107.84s1.63-24.12-8.7-28.72c-3.55-2.21-8.32-1.74-8.32-1.74l-2.94-.15v-.1l-3.09.07s-13.87.2-16.27,6.26c0,0-2.6,12.78-5.12,25.14,0,0-16.11,29.24,21.63,27.91S225.33,113.6,224.62,107.84Z"/></clipPath><clipPath id="clip-path-5"><path class="cls-4" d="M183.88,53.63c.33,19.36,15,20.87,19.62,21.18S222.84,72.28,222.38,53c-.29-11.88-9-21.36-19.63-21.17S183.67,41.75,183.88,53.63Z"/></clipPath></defs><polygon class="cls-5" points="172.96 51.37 184.96 48.15 187.96 42.59 183.35 42.67 176.69 46.11 172.96 51.37"/><path class="cls-6" d="M164.06,130.49s-4.07,5.14-3.91,7,.27,4.71-.4,4.86-2.15.16-1.83-5.15,5.32-11.72,5.32-11.72l1.79,1.35Z"/><path class="cls-1" d="M169.4,125.53a15.37,15.37,0,0,0-1.57,5.12c-.21,2.57-1.5,7.46-3.55,6.88s.13-4.49.12-5.38-.84-1.3-1.68-.17a19.86,19.86,0,0,0-3.1,6.05c-.4,1.94-.12,5-1.62,5.64s-1.88-4.27-1.71-6.49a40.08,40.08,0,0,1,1.55-6.54s2.22-6.1,5.53-9l4.32,1.44Z"/><g class="cls-7"><path class="cls-8" d="M156.65,142.78s.64.71.65.22a4.08,4.08,0,0,0-.49-1.41s-.31-.27-.47,0S156.65,142.78,156.65,142.78Z"/></g><path class="cls-8" d="M165.6,136.22a3.44,3.44,0,0,1-1.6-.63s-.52,1.18.42,1.45S165.6,136.22,165.6,136.22Z"/><path class="cls-1" d="M187.84,83.2c-4.71-.7-19.84,21.31-17.27,26.92s10.85-1.9,15.13-9S196.39,84.47,187.84,83.2Z"/><path class="cls-1" d="M177.57,101.5s3.76,2.84.42,9.41-8.59,14.62-8.59,14.62-6,3-6.93-3l9.62-19.72S174.83,98.37,177.57,101.5Z"/><path class="cls-1" d="M187.85,83.2c-4.71-.7-19.84,21.31-17.28,26.92s10.86-1.9,15.14-9S196.4,84.47,187.85,83.2Z"/><path class="cls-3" d="M188.41,80.15s-8.69,4.37-17.24,19.24c0,0,0,7.11,11.05,7.45a114.38,114.38,0,0,0,8.41-16.09C193.56,83.32,191.77,79.38,188.41,80.15Z"/><path class="cls-9" d="M224,151.71s2.47,3.88-1.67,18.21-1.09,16.29,4.79,17.82,6.63,1,6.21,2.54-1.17.59-1.88.66.86.09-.15,1.67c-1.85,2.87-7.24,1-17.33-2-5.06-1.31-3.08-6-2.72-8.38s1.26-23.95,0-27.13S224,151.71,224,151.71Z"/><ellipse class="cls-9" cx="217.8" cy="152.72" rx="7.04" ry="6.12" transform="translate(-2.08 3.01) rotate(-0.79)"/><path class="cls-9" d="M210.76,152.82c.11-1.13-2.61-20.9-2.61-20.9l14.52-1.1,2.17,21.8-9.82.72Z"/><path class="cls-9" d="M183,152.22s-2.36,3.94,2.17,18.15,1.54,16.26-4.3,17.95-6.6,1.22-6.14,2.71,1.2.55,1.91.61-.86.12.2,1.66c1.92,2.82,7.26.81,17.26-2.5,5-1.45,2.92-6.12,2.49-8.46s-1.93-23.9-.73-27.12S183,152.22,183,152.22Z"/><ellipse class="cls-9" cx="189.14" cy="153.06" rx="7.04" ry="6.12" transform="translate(-2.09 2.62) rotate(-0.79)"/><path class="cls-9" d="M196.18,153c-.14-1.12,2-21,2-21l-14.55-.7-1.56,21.85,9.84.45Z"/><path class="cls-2" d="M223.31,125.53s4.2,24.42,3.49,29.06c0,0-14.12,3.8-17.25,1,0,0-4.2-24.67-4.79-30.07S220.58,115,223.31,125.53Z"/><path class="cls-2" d="M226.8,154.59s-2.68,23.91-4.34,28.06c0,0-7.7,2-12.89-.69,0,0-.79-19.91,0-26.36s5.06-6.51,9.36-6S226.66,150.64,226.8,154.59Z"/><path class="cls-2" d="M183.74,119.32s-4.38,31.1-3.54,35.82c0,0,14.21,3.48,17.26.55,0,0,3.52-25.29,4-30.81S186.17,108.5,183.74,119.32Z"/><path class="cls-2" d="M180.2,155.18s3.33,23.82,5.1,27.92c0,0,7.76,1.78,12.87-1,0,0,.24-19.92-.71-26.35s-5.24-6.37-9.52-5.79S180.23,151.23,180.2,155.18Z"/><path class="cls-2" d="M181.42,129l-.5,10.77s10.44,5,20.73,5,24.29-3.43,24.29-3.43l-3.48-15.22Z"/><g class="cls-10"><path class="cls-11" d="M175.31,128.53s2.15,11.69,27,11.69,28.07-11.51,28.07-11.51l-5.53-8.1Z"/></g><path class="cls-6" d="M242,130.49s4.06,5.14,3.9,7-.27,4.71.41,4.86,2.15.16,1.82-5.15-5.32-11.72-5.32-11.72L241,126.84Z"/><path class="cls-1" d="M236.65,125.53a15.27,15.27,0,0,1,1.58,5.12c.2,2.57,1.5,7.46,3.54,6.88s-.13-4.49-.12-5.38.84-1.3,1.69-.17a20.32,20.32,0,0,1,3.1,6.05c.39,1.94.12,5,1.61,5.64s1.88-4.27,1.72-6.49a39.76,39.76,0,0,0-1.56-6.54s-2.22-6.1-5.53-9L238.36,123Z"/><g class="cls-12"><path class="cls-8" d="M249.4,142.78s-.64.71-.65.22a4.08,4.08,0,0,1,.49-1.41s.32-.27.47,0S249.4,142.78,249.4,142.78Z"/></g><path class="cls-8" d="M240.45,136.22a3.46,3.46,0,0,0,1.61-.63s.51,1.18-.43,1.45S240.45,136.22,240.45,136.22Z"/><path class="cls-1" d="M218.21,83.2c4.71-.7,19.84,21.31,17.28,26.92s-10.86-1.9-15.14-9S209.66,84.47,218.21,83.2Z"/><path class="cls-1" d="M228.48,101.5s-3.75,2.84-.41,9.41,8.58,14.62,8.58,14.62,6,3,6.93-3L234,102.79S231.22,98.37,228.48,101.5Z"/><path class="cls-3" d="M224.62,107.84s1.63-24.12-8.7-28.72c-3.55-2.21-8.32-1.74-8.32-1.74l-2.94-.15v-.1l-3.09.07s-13.87.2-16.27,6.26c0,0-2.6,12.78-5.12,25.14,0,0-16.11,29.24,21.63,27.91S225.33,113.6,224.62,107.84Z"/><g class="cls-13"><path class="cls-14" d="M174.58,119.41s3.87,13.25,28.71,13.25,24.54-16.58,24.54-16.58l6.68,26.37-62.6,2.27Z"/></g><path class="cls-15" d="M200.36,79.11a9.3,9.3,0,0,0,.35-7l4.27.57,4.3-.14a9.29,9.29,0,0,0-.35,7s.64,1.66-4.37,1.41S200.36,79.11,200.36,79.11Z"/><path class="cls-15" d="M208.93,79.54A11.82,11.82,0,0,1,210.18,85c-.15,2.85-1,3.79-6.32,3.52S198.17,86,198.49,84a24.37,24.37,0,0,1,2.26-5.6Z"/><ellipse class="cls-4" cx="194.66" cy="66.63" rx="8.14" ry="11.31" transform="translate(48.8 211.73) rotate(-63.75)"/><ellipse class="cls-4" cx="209.36" cy="67.02" rx="11.31" ry="8.14" transform="translate(-8.05 99.52) rotate(-26.25)"/><path class="cls-4" d="M183.88,53.63c.33,19.36,15,20.87,19.62,21.18S222.84,72.28,222.38,53c-.29-11.88-9-21.36-19.63-21.17S183.67,41.75,183.88,53.63Z"/><g class="cls-16"><path class="cls-17" d="M181.3,46.76s2.34-2,7.83-2.48,22.39-.88,25.17,4,5,14.63,9.66,11.34,3.36-15.22,3.36-15.22l-5.19-20.19-33.37-1.1s-14.56,7.24-14.34,7.32S181.3,46.76,181.3,46.76Z"/></g><circle class="cls-4" cx="217.48" cy="56.06" r="4.36" transform="translate(102.94 249.26) rotate(-73.79)"/><ellipse class="cls-18" cx="202.91" cy="55.88" rx="4.01" ry="4.32" transform="translate(145.32 258.32) rotate(-89.52)"/><path class="cls-19" d="M199.31,49.08s4.31-3.81,7.4-.58"/><path class="cls-20" d="M184.24,50.47s3-3.78,5.12-.54"/><circle cx="202.68" cy="57.24" r="2.52" transform="translate(93.05 237.06) rotate(-74.4)"/><circle class="cls-18" cx="203.99" cy="56.27" r="0.7"/><ellipse class="cls-18" cx="187.09" cy="55.98" rx="2.55" ry="3.37" transform="translate(-0.43 1.47) rotate(-0.45)"/><ellipse cx="186.96" cy="57.19" rx="2.16" ry="1.49" transform="translate(127.64 243.48) rotate(-89.35)"/><ellipse class="cls-18" cx="187.73" cy="56.35" rx="0.6" ry="0.41" transform="translate(129.25 243.43) rotate(-89.35)"/><ellipse class="cls-4" cx="194.56" cy="60.48" rx="3.46" ry="2.52"/><path class="cls-21" d="M192.71,63.21a3.21,3.21,0,0,0-2.22.25,4.55,4.55,0,0,0-1.89,1.3s-1.15,1.11-1.64,1.13a7.38,7.38,0,0,1,1.68,2.32s1.17,2.7,2.11,2.88c0,0,3.53.66,4.87-.16a2.9,2.9,0,0,0,1.77-2.54c.07-1.91,0-.07,0-.07s1.17-2.45,1.6-2.6a24,24,0,0,1-2.5-1.59s-1.36-1.09-2.1-1a2,2,0,0,0-.85.27l-.25,0Z"/><path class="cls-22" d="M187.57,66s2.34-.47,2.78-.51a3.76,3.76,0,0,0,1.1,0,5.7,5.7,0,0,0,2.68.08,8,8,0,0,0,1.45-.1,11.86,11.86,0,0,1,2.22.44,19.33,19.33,0,0,0-2.2,2.35s-.52.81-2.71.7a7.31,7.31,0,0,1-2.75-.56,2.19,2.19,0,0,1-.78-1.06A2.92,2.92,0,0,0,187.57,66Z"/><path class="cls-18" d="M188.65,65.82a12.85,12.85,0,0,0,8.76,0,13,13,0,0,0-1.83-.32,4.69,4.69,0,0,1-1.45.1,6.23,6.23,0,0,1-2.68-.08,2.06,2.06,0,0,1-1.1,0Z"/><path class="cls-18" d="M189.46,67.48a12.71,12.71,0,0,0,6.6.12l.08,0a4.71,4.71,0,0,0-.51.64s-.56.86-2.51.76a7.73,7.73,0,0,1-2.94-.55S189.46,67.87,189.46,67.48Z"/><ellipse class="cls-4" cx="203.34" cy="73.71" rx="10.35" ry="2.31" transform="translate(-1.09 3.09) rotate(-0.87)"/><path class="cls-23" d="M184,43.84s-6.76-13.21,2-15.11,30.24-5.95,37.15,4.76c0,0,.32,12.85-.41,16.42-.65,3.14-2.25-3.14-3.88-.58C218.84,49.33,206.62,34.62,184,43.84Z"/><path class="cls-24" d="M213.42,52.25s4.69-1.32,5.42-2.78-3.66-9-19.83-9.22l13.75,8.49Z"/><path class="cls-25" d="M172,49.26s-.15,4.27,2.7,1,5.25-6.93,18.71-7.17,15.45,4.92,18.34,8.08,2.91-1.49.49-4.21S208,39.8,193,40.08,173.88,46.83,172,49.26Z"/><path class="cls-3" d="M217.65,80.15s8.69,4.37,17.24,19.24c0,0,.05,7.11-11,7.45a114.38,114.38,0,0,1-8.41-16.09C212.5,83.32,214.29,79.38,217.65,80.15Z"/><path class="cls-26" d="M194.62,59.41a.64.64,0,0,1,.15.49.69.69,0,0,1-.29.54.92.92,0,0,1-.65,0,1.81,1.81,0,0,1-.52-.26l.52-.23a1.53,1.53,0,0,1-.71,1.14,2.83,2.83,0,0,1-1.15.51,1.47,1.47,0,0,1-1.25-.6,2.47,2.47,0,0,1-.48-1.09l.54,0a1.23,1.23,0,0,1-.26.34.47.47,0,0,1-.53.12.59.59,0,0,1-.26-.35,1.48,1.48,0,0,1,0-.35l.22.26c.07.07.16.14.2.12s0,0,.06-.11a2.25,2.25,0,0,0,.08-.24.28.28,0,0,1,.34-.2.26.26,0,0,1,.18.16l0,.06c.27.6.72,1.13,1.11,1.06a2.52,2.52,0,0,0,.79-.35,1.09,1.09,0,0,0,.52-.51l0-.12a.26.26,0,0,1,.34-.19.22.22,0,0,1,.14.08,1.06,1.06,0,0,0,.6.34c.07,0,.2-.11.25-.23A.65.65,0,0,0,194.62,59.41Z"/></svg>