<svg xmlns="http://www.w3.org/2000/svg" xmlns:xlink="http://www.w3.org/1999/xlink" viewBox="0 0 260 168"><defs><style>.cls-1{fill:#9e6041;}.cls-2{fill:#821717;}.cls-3{fill:#4368ef;}.cls-4{fill:#a46c35;}.cls-5{fill:#ffec00;}.cls-6{fill:red;}.cls-7{fill:#8e5339;}.cls-8{clip-path:url(#clip-path);}.cls-9{fill:#bc785b;}.cls-10{fill:#fbb03b;}.cls-11{fill:#fcee21;}.cls-12{fill:#ac6f47;}.cls-13{fill:#0071bc;}.cls-14{fill:#630d0d;}.cls-15{clip-path:url(#clip-path-2);}.cls-16{fill:#701010;}.cls-17{clip-path:url(#clip-path-3);}.cls-18{fill:#3763dd;}.cls-19{fill:#8b5e3c;}.cls-20{clip-path:url(#clip-path-4);}.cls-21{fill:#995f2b;}.cls-22{fill:#603913;}.cls-23{fill:#fff;}.cls-24,.cls-33{fill:none;stroke-linecap:round;stroke-linejoin:round;}.cls-24{stroke:#603913;stroke-width:1.6px;}.cls-25{fill:#6a3e1e;}.cls-26{fill:#5f0a0f;}.cls-27{fill:#dd993e;}.cls-28{fill:#d3562a;}.cls-29{clip-path:url(#clip-path-5);}.cls-30{fill:#ffc200;}.cls-31{fill:#fa0;opacity:0.31;}.cls-32{fill:#fff1ae;}.cls-33{stroke:#fff1ae;stroke-width:0.18px;}.cls-34{fill:#ffb600;}.cls-35{clip-path:url(#clip-path-6);}.cls-36{fill:#ff8080;}.cls-37{fill:#ff3636;}.cls-38{fill:#ff4848;}.cls-39{fill:#dd1f1f;}.cls-40{fill:#c11111;}.cls-41{fill:#d12c2c;}.cls-42{fill:#ff8f8f;}.cls-43,.cls-44{fill:#ffc2c2;}.cls-44{opacity:0.35;}</style><clipPath id="clip-path"><path class="cls-1" d="M31.49,108.87a11.77,11.77,0,0,0-1.22,4c-.16,2-1.17,5.78-2.75,5.33s.1-3.48.1-4.17-.66-1-1.31-.13a15.53,15.53,0,0,0-2.41,4.69c-.3,1.5-.09,3.89-1.25,4.37s-1.45-3.31-1.33-5a31.55,31.55,0,0,1,1.21-5.07s1.72-4.73,4.29-7l3.34,1.12Z"/></clipPath><clipPath id="clip-path-2"><path class="cls-2" d="M40.8,111.52l-.38,8.35s8.09,3.88,16.07,3.88,18.83-2.67,18.83-2.67l-2.7-11.79Z"/></clipPath><clipPath id="clip-path-3"><path class="cls-3" d="M74.29,95.16s1.27-18.7-6.73-22.27a11.78,11.78,0,0,0-6.46-1.35l-2.28-.12v-.07l-2.41.05s-10.75.16-12.61,4.85c0,0-2,9.91-4,19.49,0,0-12.49,22.67,16.76,21.64S74.85,99.62,74.29,95.16Z"/></clipPath><clipPath id="clip-path-4"><ellipse class="cls-4" cx="60.47" cy="53.21" rx="16.68" ry="14.93" transform="translate(-0.73 105.56) rotate(-81.89)"/></clipPath><clipPath id="clip-path-5"><path class="cls-5" d="M68,61l-.34-.79-.65.63-.15.15-.65.62L67,62a2.1,2.1,0,1,0,1-1ZM70,64.12A1.61,1.61,0,1,1,70,61.85,1.61,1.61,0,0,1,70,64.12Z"/></clipPath><clipPath id="clip-path-6"><polygon class="cls-6" points="66.06 58.58 65.37 59.24 65.25 59.36 64.56 60.02 65.03 61.27 66.99 62.01 68 61.04 67.3 59.1 66.06 58.58"/></clipPath></defs><g id="_2" data-name="2"><path class="cls-7" d="M27.34,112.71s-3.15,4-3,5.44.21,3.65-.32,3.77-1.66.12-1.41-4,4.12-9.1,4.12-9.1l1.39,1Z"/><path class="cls-1" d="M31.49,108.87a11.77,11.77,0,0,0-1.22,4c-.16,2-1.17,5.78-2.75,5.33s.1-3.48.1-4.17-.66-1-1.31-.13a15.53,15.53,0,0,0-2.41,4.69c-.3,1.5-.09,3.89-1.25,4.37s-1.45-3.31-1.33-5a31.55,31.55,0,0,1,1.21-5.07s1.72-4.73,4.29-7l3.34,1.12Z"/><g class="cls-8"><path class="cls-9" d="M21.61,122.24s.49.55.5.17a3.07,3.07,0,0,0-.38-1.09s-.25-.21-.37,0S21.61,122.24,21.61,122.24Z"/></g><path class="cls-9" d="M28.55,117.16a2.75,2.75,0,0,1-1.25-.49s-.4.91.33,1.12S28.55,117.16,28.55,117.16Z"/><path class="cls-1" d="M45.79,76.05c-3.66-.54-15.39,16.52-13.4,20.87s8.42-1.47,11.73-7S52.41,77,45.79,76.05Z"/><path class="cls-1" d="M37.82,90.24s2.91,2.2.32,7.3-6.65,11.33-6.65,11.33-4.64,2.32-5.37-2.34l7.45-15.29S35.7,87.81,37.82,90.24Z"/><path class="cls-1" d="M45.79,76.05c-3.65-.54-15.38,16.52-13.39,20.87s8.41-1.47,11.73-7S52.42,77,45.79,76.05Z"/><path class="cls-3" d="M46.22,73.69S39.49,77.07,32.86,88.6c0,0,0,5.52,8.57,5.78A89.77,89.77,0,0,0,48,81.91C50.22,76.14,48.83,73.09,46.22,73.69Z"/><path class="cls-10" d="M78.78,157.68a6.94,6.94,0,0,1,1.75.86,2.62,2.62,0,0,1,1.39,2.56c-.45,2-1.71,3.58-6.55,2.69s-14.86-3-14.55-5.7S63,152.45,78.78,157.68Z"/><path class="cls-11" d="M78.89,157.43a7,7,0,0,1,1.75.77c.79.49,1.64,1.28,1.41,2.25-.42,1.72-1.66,3.11-6.48,2.27S60.75,159.9,61,157.58,63.08,152.68,78.89,157.43Z"/><path class="cls-12" d="M73.78,129.17s1.91,3-1.29,14.11-.85,12.63,3.71,13.81,5.14.81,4.81,2-.91.46-1.46.52.67.07-.12,1.29c-1.43,2.23-5.61.78-13.43-1.57-3.92-1-2.39-4.68-2.11-6.5s1-18.57,0-21S73.78,129.17,73.78,129.17Z"/><path class="cls-13" d="M69.5,159.69A11.38,11.38,0,0,1,79,158.8c-.55-1-2.3-1.46-4.67-2.17a.55.55,0,1,1,.31-1.06c4.43,1.31,5.85,3.9,5.89,4.05a.55.55,0,0,1-.42.66.33.33,0,0,1-.17,0l-.11,0a.61.61,0,0,1-.35-.06,10.29,10.29,0,0,0-9.45.45.52.52,0,0,1-.32.07.55.55,0,0,1-.43-.28A.56.56,0,0,1,69.5,159.69Z"/><ellipse class="cls-12" cx="69.01" cy="129.95" rx="5.46" ry="4.74" transform="translate(-1.78 0.96) rotate(-0.79)"/><path class="cls-12" d="M63.55,130c.08-.87-2-16.2-2-16.2L72.79,113l1.68,16.9-7.62.56Z"/><path class="cls-10" d="M37.79,158.2a6.82,6.82,0,0,0-1.73.91,2.61,2.61,0,0,0-1.31,2.6c.5,2,1.8,3.53,6.61,2.5s14.78-3.44,14.39-6.09S53.47,152.54,37.79,158.2Z"/><path class="cls-11" d="M37.67,158a7,7,0,0,0-1.72.82c-.78.52-1.62,1.32-1.35,2.28.47,1.72,1.74,3.07,6.54,2.1s14.73-3.22,14.39-5.54S53.34,152.77,37.67,158Z"/><path class="cls-12" d="M42,129.56s-1.83,3.06,1.68,14.07,1.2,12.6-3.33,13.91-5.11,1-4.76,2.1.93.44,1.48.48-.67.09.15,1.29c1.49,2.18,5.63.62,13.39-1.95,3.89-1.12,2.26-4.74,1.93-6.55s-1.5-18.53-.57-21S42,129.56,42,129.56Z"/><path class="cls-13" d="M47.12,160a11.32,11.32,0,0,0-9.53-.63c.52-1,2.26-1.53,4.61-2.3a.55.55,0,0,0-.35-1.05c-4.38,1.43-5.74,4.05-5.77,4.21a.56.56,0,0,0,.44.65h.17l.11,0a.5.5,0,0,0,.34-.07,10.31,10.31,0,0,1,9.46.19.65.65,0,0,0,.33.06.55.55,0,0,0,.19-1Z"/><ellipse class="cls-12" cx="46.79" cy="130.21" rx="5.46" ry="4.74" transform="translate(-1.79 0.66) rotate(-0.79)"/><path class="cls-12" d="M52.25,130.13c-.11-.87,1.57-16.24,1.57-16.24l-11.27-.55-1.22,16.94,7.63.35Z"/><path class="cls-2" d="M73.28,108.87S76.53,127.8,76,131.4c0,0-10.94,2.95-13.36.78,0,0-3.26-19.13-3.72-23.31S71.17,100.71,73.28,108.87Z"/><path class="cls-2" d="M76,131.4s-2.07,18.53-3.36,21.75c0,0-6,1.54-10-.53,0,0-.61-15.44,0-20.44s3.92-5.05,7.25-4.69S75.88,128.34,76,131.4Z"/><path class="cls-14" d="M62.22,152s8.28,1.35,11.45,0l-.23,2.54s-.76,3.07-11.71.42Z"/><path class="cls-2" d="M42.61,104.05s-3.4,24.11-2.75,27.77c0,0,11,2.7,13.38.43,0,0,2.73-19.6,3.07-23.89S44.49,95.67,42.61,104.05Z"/><path class="cls-2" d="M39.86,131.85s2.58,18.47,4,21.65c0,0,6,1.38,10-.8,0,0,.19-15.45-.55-20.43s-4.06-4.94-7.38-4.5S39.88,128.79,39.86,131.85Z"/><path class="cls-14" d="M54.18,152s-8.23,1.58-11.44.3l.3,2.52s.84,3,11.71.11Z"/><path class="cls-2" d="M40.8,111.52l-.38,8.35s8.09,3.88,16.07,3.88,18.83-2.67,18.83-2.67l-2.7-11.79Z"/><g class="cls-15"><path class="cls-16" d="M36.07,111.19s1.66,9.07,20.92,9.07,21.77-8.93,21.77-8.93l-4.29-6.27Z"/></g><path class="cls-3" d="M74.29,95.16s1.27-18.7-6.73-22.27a11.78,11.78,0,0,0-6.46-1.35l-2.28-.12v-.07l-2.41.05s-10.75.16-12.61,4.85c0,0-2,9.91-4,19.49,0,0-12.49,22.67,16.76,21.64S74.85,99.62,74.29,95.16Z"/><g class="cls-17"><path class="cls-18" d="M35.51,104.12s3,10.28,22.25,10.28,19-12.86,19-12.86L82,122l-48.53,1.77Z"/></g><path class="cls-19" d="M55.49,72.88a7.21,7.21,0,0,0,.27-5.44l3.31.44,3.33-.11a7.22,7.22,0,0,0-.27,5.45s.5,1.28-3.38,1.09S55.49,72.88,55.49,72.88Z"/><path class="cls-19" d="M62.13,73.22a9.1,9.1,0,0,1,1,4.21c-.11,2.21-.74,2.94-4.9,2.73S53.79,78.24,54,76.64a18.52,18.52,0,0,1,1.75-4.34Z"/><path class="cls-1" d="M68,73.74c2.89-2.3,21.59,6.6,22,11.36S82,88,76.41,84.94,62.76,77.91,68,73.74Z"/><path class="cls-3" d="M66.45,71.91s7.53-.44,19,6.22c0,0,2.79,4.75-4.52,9.29,0,0-8.15-2.76-13-6.62S63.9,72.7,66.45,71.91Z"/><ellipse class="cls-4" cx="52.35" cy="62.37" rx="6.31" ry="8.77" transform="translate(-28.81 68.96) rotate(-54.64)"/><ellipse class="cls-4" cx="65.6" cy="64.29" rx="8.77" ry="6.31" transform="matrix(0.95, -0.32, 0.32, 0.95, -17.27, 24.69)"/><ellipse class="cls-4" cx="60.47" cy="53.21" rx="16.68" ry="14.93" transform="translate(-0.73 105.56) rotate(-81.89)"/><g class="cls-20"><path class="cls-21" d="M47.39,49.12A12,12,0,0,0,51,47.63a14.81,14.81,0,0,1,7.59-1.12,43.94,43.94,0,0,1,7.59,1.58,13.38,13.38,0,0,1,3.09,1.1c1.67.92,2.87,2.48,4.38,3.64A10.87,10.87,0,0,0,78,54.88a4.73,4.73,0,0,0,2.42,0,5.41,5.41,0,0,0,2.24-1.62,24,24,0,0,0,2.34-3,5.43,5.43,0,0,0,.86-1.8c.35-1.7-.8-3.36-2.12-4.49a23.49,23.49,0,0,0-6.45-3.61A107.2,107.2,0,0,0,59.4,34.76a51.22,51.22,0,0,0-9.22-1.32,11.92,11.92,0,0,0-5.53.83,7.27,7.27,0,0,0-4,5.62c-.29,2.51.83,4.18,2.23,6.07C44.06,47.59,44.93,49.41,47.39,49.12Z"/></g><circle class="cls-4" cx="74.61" cy="57.18" r="3.38"/><circle class="cls-4" cx="46.01" cy="53.11" r="3.38"/><path class="cls-22" d="M61.86,58.23a.47.47,0,0,1,.06.39.53.53,0,0,1-.3.38.71.71,0,0,1-.49-.06,1.18,1.18,0,0,1-.37-.26l.42-.12a1.12,1.12,0,0,1-.58.85,1.33,1.33,0,0,1-.48.18,1.19,1.19,0,0,1-.54,0,1.59,1.59,0,0,1-.81-.56,1.57,1.57,0,0,1-.33-.89l.35.15a1.12,1.12,0,0,1-.38.12A.63.63,0,0,1,58,58.3a.66.66,0,0,1-.27-.65c.09.2.22.4.38.41a.59.59,0,0,0,.43-.18.21.21,0,0,1,.29,0,.22.22,0,0,1,0,.08V58a1.3,1.3,0,0,0,.87.92A1,1,0,0,0,60,59a.75.75,0,0,0,.29-.09.71.71,0,0,0,.39-.41l0-.07a.23.23,0,0,1,.29-.13.2.2,0,0,1,.11.09.75.75,0,0,0,.42.33c.05,0,.16-.05.22-.14A.51.51,0,0,0,61.86,58.23Z"/><ellipse class="cls-23" cx="67.54" cy="56.1" rx="3.11" ry="3.35" transform="matrix(0.13, -0.99, 0.99, 0.13, 2.93, 115.56)"/><circle cx="67.93" cy="57.4" r="1.95"/><circle class="cls-23" cx="69.05" cy="56.81" r="0.54"/><ellipse class="cls-23" cx="52.68" cy="53.99" rx="3.11" ry="3.35" transform="translate(-9.33 96.93) rotate(-80.41)"/><path class="cls-24" d="M71.51,51.3s-3-3.35-5.63-1.16"/><path class="cls-24" d="M50.76,48.34s3.76-2.39,5.73.46"/><circle cx="53.23" cy="55.3" r="1.95"/><circle class="cls-23" cx="54.35" cy="54.72" r="0.54"/><path class="cls-25" d="M59,60.79a4.12,4.12,0,0,0-2.25-.18,4.8,4.8,0,0,0-2,.67,5.23,5.23,0,0,1-1.76.6,6.38,6.38,0,0,1,1.41,2s.86,2.27,1.77,2.57c0,0,3.45,1.09,4.89.69,0,0,1.76-.21,2.05-1.65v-.05s1.46-1.68,1.9-1.72a27.89,27.89,0,0,1-2.31-1.65,5.32,5.32,0,0,0-2-1.12,2.62,2.62,0,0,0-.89.07l-.25,0Z"/><path class="cls-26" d="M53.58,62s2.39,0,2.83.08a5.12,5.12,0,0,0,1.1.21,7.48,7.48,0,0,0,2.67.51,10.88,10.88,0,0,0,1.46.17,15.23,15.23,0,0,1,2.16.71,16.16,16.16,0,0,0-2.46,1.43s-.63.53-2.79.08a9.48,9.48,0,0,1-2.69-.89,1.9,1.9,0,0,1-.65-.94A3,3,0,0,0,53.58,62Z"/><path class="cls-23" d="M54.67,62.1a16.74,16.74,0,0,0,8.75,1.46A16.66,16.66,0,0,0,61.64,63a6.08,6.08,0,0,1-1.46-.17,8.14,8.14,0,0,1-2.67-.51,2.86,2.86,0,0,1-1.1-.21Z"/><path class="cls-23" d="M55.29,63.51a16.72,16.72,0,0,0,6.58,1.2H62a3.36,3.36,0,0,0-.58.41s-.67.56-2.6.16a10.24,10.24,0,0,1-2.87-.92S55.24,63.81,55.29,63.51Z"/><ellipse class="cls-4" cx="58.13" cy="68.86" rx="1.79" ry="8.02" transform="translate(-18.35 116.51) rotate(-81.76)"/><path class="cls-27" d="M47,46.34s-3.48-13.71,3.43-14.08,23.88-.76,27.83,8.29c0,0,0,5.42-3.4,9.16C74.85,49.71,67.77,37.88,47,46.34Z"/><path class="cls-28" d="M44.76,47.47s-.65,3.25,1.94,1.09,4.88-4.65,15.21-3.16,11.21,5.7,13,8.48,2.41-.78.9-3.16-2.34-6-13.89-7.66S46.52,45.85,44.76,47.47Z"/><path class="cls-1" d="M88.26,87.6s2.95-2.14.45-7.28-6.44-11.46-6.44-11.46-4.59-2.41-5.41,2.24L84,86.52S86.09,90,88.26,87.6Z"/><path class="cls-1" d="M73.83,71c-1-.18-2.35-1.41-3.12-2a3.38,3.38,0,0,1-1-1.69,8.74,8.74,0,0,1-.34-2.59c0-.37.11-.84.47-.92s.58.19.74.46c.27.47.36,1,.62,1.5a1.2,1.2,0,0,0,1.33.68,1.35,1.35,0,0,0,.68-1.14c.28-2-.79-4-1.82-5.73a2.14,2.14,0,0,0-.55-.68.69.69,0,0,0-.82,0,1,1,0,0,0-.22.55c-.13.79.76,2.26-.13,2.39-.36.18-.76-.17-1-.52a3.24,3.24,0,0,1,1.42-4.36c1.56-.71,2.93.53,4,1.91a3.3,3.3,0,0,0,.72.81,1.27,1.27,0,0,0,.54.17c2.54.39,5.3,1,6.88,3.05a5.4,5.4,0,0,1-3.89,8.74A15.31,15.31,0,0,1,73.83,71Z"/><ellipse class="cls-7" cx="75.76" cy="61.47" rx="1.27" ry="2.97" transform="matrix(0.97, -0.26, 0.26, 0.97, -13.29, 21.62)"/><ellipse class="cls-7" cx="77.75" cy="61.52" rx="1.27" ry="2.97" transform="translate(-13.24 22.14) rotate(-14.95)"/><ellipse class="cls-7" cx="79.94" cy="62.02" rx="1.27" ry="2.97" transform="translate(-13.29 22.72) rotate(-14.95)"/><path class="cls-5" d="M68,61l-.34-.79-.65.63-.15.15-.65.62L67,62a2.1,2.1,0,1,0,1-1ZM70,64.12A1.61,1.61,0,1,1,70,61.85,1.61,1.61,0,0,1,70,64.12Z"/><g class="cls-29"><rect class="cls-30" x="65.39" y="60.71" width="3.08" height="0.41" transform="translate(-23.54 63.25) rotate(-43.78)"/><circle class="cls-31" cx="68.87" cy="62.94" r="1.78"/></g><ellipse class="cls-32" cx="66.9" cy="62.63" rx="0.34" ry="0.07" transform="translate(-4.85 119.64) rotate(-81.58)"/><ellipse class="cls-32" cx="66.89" cy="63.16" rx="0.07" ry="0.16" transform="translate(-11.24 14.6) rotate(-11.49)"/><path class="cls-33" d="M67.37,64.23a2.11,2.11,0,0,0,2.6.41"/><ellipse class="cls-34" cx="67.5" cy="61.52" rx="1.61" ry="0.2" transform="translate(-23.8 63.8) rotate(-43.78)"/><polygon class="cls-6" points="66.06 58.58 65.37 59.24 65.25 59.36 64.56 60.02 65.03 61.27 66.99 62.01 68 61.04 67.3 59.1 66.06 58.58"/><g class="cls-35"><path class="cls-36" d="M65.31,61.89s.48-1.16.48-1.16l-.73-.95-.69.32-.17.72Z"/><path class="cls-37" d="M67.85,59.46l-1.18.43-.92-.77.35-.67.72-.14Z"/><path class="cls-38" d="M64.74,61.47l1.06-.75L67.51,62l-.78.63Z"/><path class="cls-39" d="M67.47,58.85s-.79,1-.79,1l1.16,1.76.67-.76Z"/><polygon class="cls-40" points="65.79 60.73 66.68 59.89 67.67 61.36 67.25 61.76 65.79 60.73"/><polygon class="cls-41" points="65.06 59.78 65.75 59.12 66.68 59.89 65.79 60.73 65.06 59.78"/></g><ellipse class="cls-42" cx="65.34" cy="59.4" rx="0.52" ry="0.04" transform="translate(-22.93 61.72) rotate(-43.78)"/><ellipse class="cls-43" cx="64.9" cy="60.52" rx="0.1" ry="0.49" transform="translate(-18.92 31.39) rotate(-23.83)"/><ellipse class="cls-44" cx="66.14" cy="61.5" rx="0.13" ry="0.81" transform="translate(-15.72 99.64) rotate(-67.9)"/></g></svg>