<svg xmlns="http://www.w3.org/2000/svg" xmlns:xlink="http://www.w3.org/1999/xlink" viewBox="0 0 260 168"><defs><style>.cls-1{fill:#9e6041;}.cls-2{fill:#821717;}.cls-3{fill:#4368ef;}.cls-4{fill:#a46c35;}.cls-5{fill:#8e5339;}.cls-6{clip-path:url(#clip-path);}.cls-7{fill:#bc785b;}.cls-8{fill:#fbb03b;}.cls-9{fill:#fcee21;}.cls-10{fill:#ac6f47;}.cls-11{fill:#0071bc;}.cls-12{fill:#630d0d;}.cls-13{clip-path:url(#clip-path-2);}.cls-14{fill:#701010;}.cls-15{clip-path:url(#clip-path-3);}.cls-16{fill:#3763dd;}.cls-17{fill:#8b5e3c;}.cls-18{clip-path:url(#clip-path-4);}.cls-19{fill:#995f2b;}.cls-20{fill:#603913;}.cls-21{fill:#fff;}.cls-22{fill:none;stroke:#603913;stroke-linecap:round;stroke-linejoin:round;stroke-width:1.62px;}.cls-23{fill:#6a3e1e;}.cls-24{fill:#5f0a0f;}.cls-25{fill:#dd993e;}.cls-26{fill:#d3562a;}</style><clipPath id="clip-path"><path class="cls-1" d="M207.08,100a11.88,11.88,0,0,1,1.23,4c.17,2,1.18,5.84,2.78,5.38s-.1-3.51-.09-4.21.66-1,1.32-.14a15.92,15.92,0,0,1,2.43,4.75c.31,1.52.09,3.93,1.26,4.42s1.48-3.35,1.35-5.09a30.82,30.82,0,0,0-1.22-5.13s-1.74-4.78-4.34-7.08L208.42,98Z"/></clipPath><clipPath id="clip-path-2"><path class="cls-2" d="M163.83,102.63l-.39,8.44s8.18,3.92,16.25,3.92,19-2.69,19-2.69L196,100.37Z"/></clipPath><clipPath id="clip-path-3"><path class="cls-3" d="M197.69,86.08s1.28-18.9-6.81-22.51a11.88,11.88,0,0,0-6.52-1.37l-2.31-.11V62l-2.43.05s-10.87.16-12.75,4.91c0,0-2,10-4,19.71,0,0-12.63,22.92,17,21.88S198.26,90.6,197.69,86.08Z"/></clipPath><clipPath id="clip-path-4"><ellipse class="cls-4" cx="181.39" cy="45.4" rx="16.86" ry="15.09" transform="translate(134.28 226.36) rotate(-89.46)"/></clipPath></defs><g id="_4" data-name="4"><path class="cls-1" d="M163.83,84.12s3.16,1.9,1.1,7.3-5.5,12.1-5.5,12.1-4.41,2.82-5.64-1.79l5.88-16.16S161.44,81.89,163.83,84.12Z"/><path class="cls-1" d="M150.05,104.08a3.72,3.72,0,0,0-1,.77,1.22,1.22,0,0,0-.29,1.16c.25.76,1.27.86,1.93,1.31a.4.4,0,0,1,.17.17.5.5,0,0,1-.07.41,24.9,24.9,0,0,0-1.53,4.53c-.1.39-.16.9.18,1.1s.86-.19,1.11-.57a25,25,0,0,0,1.91-3.43,1.28,1.28,0,0,0,2.41.16c0,.31.37.5.67.47a1.74,1.74,0,0,0,.8-.43l.78-.61a4.62,4.62,0,0,0,.62-.54,4.17,4.17,0,0,0,.75-1.35,14.76,14.76,0,0,0,.77-2.69,3.48,3.48,0,0,0-.09-2.12,2.67,2.67,0,0,0-1.6-1.3C154.59,100.06,152.34,102.64,150.05,104.08Z"/><path class="cls-1" d="M168.94,66.91c-3.73.18-12,19.4-9.21,23.33S167.79,87.13,170,81,175.71,66.6,168.94,66.91Z"/><path class="cls-5" d="M211.27,103.83s3.19,4,3.06,5.5-.21,3.69.32,3.81,1.68.13,1.43-4-4.17-9.19-4.17-9.19l-1.4,1.06Z"/><path class="cls-1" d="M207.08,100a11.88,11.88,0,0,1,1.23,4c.17,2,1.18,5.84,2.78,5.38s-.1-3.51-.09-4.21.66-1,1.32-.14a15.92,15.92,0,0,1,2.43,4.75c.31,1.52.09,3.93,1.26,4.42s1.48-3.35,1.35-5.09a30.82,30.82,0,0,0-1.22-5.13s-1.74-4.78-4.34-7.08L208.42,98Z"/><g class="cls-6"><path class="cls-7" d="M217.07,113.47s-.5.56-.51.17a3.1,3.1,0,0,1,.39-1.1s.25-.21.37,0S217.07,113.47,217.07,113.47Z"/></g><path class="cls-7" d="M210.06,108.33a2.63,2.63,0,0,0,1.26-.5s.4.93-.34,1.14S210.06,108.33,210.06,108.33Z"/><path class="cls-1" d="M200.68,81.12s-3,2.22-.33,7.37S207.08,100,207.08,100s4.69,2.35,5.43-2.37L205,82.13S202.83,78.66,200.68,81.12Z"/><path class="cls-1" d="M169,66.91c-3.73.18-12,19.4-9.22,23.32S167.79,87.13,170,81,175.72,66.6,169,66.91Z"/><path class="cls-3" d="M168.92,64.48s-6,4.68-10.35,17.41c0,0,1,5.48,9.63,4.06a89.67,89.67,0,0,0,4-13.65C173.36,66.14,171.39,63.38,168.92,64.48Z"/><path class="cls-8" d="M202.23,149.31a6.48,6.48,0,0,1,1.77.87,2.64,2.64,0,0,1,1.4,2.58c-.45,2-1.73,3.63-6.62,2.72s-15-3.06-14.71-5.76S186.22,144,202.23,149.31Z"/><path class="cls-9" d="M202.34,149.05a6.82,6.82,0,0,1,1.77.78c.8.5,1.66,1.29,1.42,2.27-.42,1.74-1.68,3.15-6.55,2.3s-15-2.85-14.7-5.2S186.36,144.25,202.34,149.05Z"/><path class="cls-10" d="M197.17,120.47s1.93,3-1.31,14.27-.85,12.78,3.76,14,5.2.81,4.87,2-.92.47-1.48.52.67.08-.12,1.31c-1.45,2.25-5.68.79-13.58-1.59-4-1-2.42-4.73-2.14-6.57s1-18.77,0-21.27S197.17,120.47,197.17,120.47Z"/><path class="cls-11" d="M192.84,151.34a11.49,11.49,0,0,1,9.62-.9c-.56-1-2.32-1.48-4.72-2.19a.56.56,0,0,1,.32-1.08c4.47,1.32,5.91,3.94,5.95,4.09a.56.56,0,0,1-.43.68h-.17l-.11,0a.53.53,0,0,1-.35,0,10.36,10.36,0,0,0-9.55.45.57.57,0,0,1-.33.07.56.56,0,0,1-.23-1Z"/><ellipse class="cls-10" cx="192.35" cy="121.26" rx="5.52" ry="4.8" transform="translate(-1.65 2.66) rotate(-0.79)"/><path class="cls-10" d="M186.83,121.34c.08-.88-2-16.38-2-16.38l11.38-.86,1.7,17.09-7.7.56Z"/><path class="cls-8" d="M160.78,149.83a6.92,6.92,0,0,0-1.74.92,2.66,2.66,0,0,0-1.34,2.63c.51,2,1.83,3.57,6.69,2.53s14.94-3.48,14.55-6.16S176.64,144.1,160.78,149.83Z"/><path class="cls-9" d="M160.66,149.58a7.3,7.3,0,0,0-1.74.82c-.79.53-1.63,1.34-1.37,2.32.48,1.73,1.77,3.09,6.61,2.11s14.9-3.25,14.56-5.59S176.5,144.34,160.66,149.58Z"/><path class="cls-10" d="M165,120.87s-1.85,3.09,1.7,14.23,1.21,12.74-3.37,14.07-5.17,1-4.81,2.12.93.44,1.49.48-.67.09.16,1.3c1.51,2.22,5.69.64,13.53-2,3.94-1.14,2.29-4.79,1.95-6.63s-1.51-18.74-.57-21.26S165,120.87,165,120.87Z"/><path class="cls-11" d="M170.22,151.61a11.47,11.47,0,0,0-9.64-.64c.53-1,2.28-1.54,4.66-2.32a.56.56,0,0,0-.35-1.07c-4.44,1.45-5.8,4.11-5.83,4.26a.56.56,0,0,0,.44.66h.17l.11,0a.54.54,0,0,0,.35-.07,10.41,10.41,0,0,1,9.56.19.49.49,0,0,0,.33.06.55.55,0,0,0,.43-.29A.56.56,0,0,0,170.22,151.61Z"/><ellipse class="cls-10" cx="169.88" cy="121.53" rx="5.52" ry="4.8" transform="translate(-1.66 2.35) rotate(-0.79)"/><path class="cls-10" d="M175.4,121.45C175.29,120.57,177,105,177,105l-11.4-.55-1.23,17.13,7.71.35Z"/><path class="cls-2" d="M196.67,100s3.29,19.14,2.73,22.78c0,0-11.06,3-13.52.79,0,0-3.29-19.34-3.75-23.57S194.53,91.7,196.67,100Z"/><path class="cls-2" d="M199.4,122.73s-2.1,18.74-3.4,22c0,0-6,1.56-10.1-.53,0,0-.62-15.61,0-20.67s4-5.1,7.34-4.74S199.29,119.64,199.4,122.73Z"/><path class="cls-12" d="M185.49,143.52s8.36,1.37,11.57,0l-.23,2.57s-.77,3.1-11.84.43Z"/><path class="cls-2" d="M165.65,95.08s-3.43,24.38-2.78,28.08c0,0,11.15,2.73,13.54.43,0,0,2.75-19.82,3.1-24.15S167.56,86.6,165.65,95.08Z"/><path class="cls-2" d="M162.87,123.19s2.62,18.68,4,21.89c0,0,6.07,1.39,10.08-.81,0,0,.19-15.62-.55-20.66s-4.11-5-7.47-4.54S162.9,120.09,162.87,123.19Z"/><path class="cls-12" d="M177.36,143.59s-8.33,1.59-11.58.29l.31,2.55s.85,3.09,11.85.11Z"/><path class="cls-2" d="M163.83,102.63l-.39,8.44s8.18,3.92,16.25,3.92,19-2.69,19-2.69L196,100.37Z"/><g class="cls-13"><path class="cls-14" d="M159,102.3s1.69,9.17,21.16,9.17,22-9,22-9l-4.33-6.34Z"/></g><path class="cls-3" d="M197.69,86.08s1.28-18.9-6.81-22.51a11.88,11.88,0,0,0-6.52-1.37l-2.31-.11V62l-2.43.05s-10.87.16-12.75,4.91c0,0-2,10-4,19.71,0,0-12.63,22.92,17,21.88S198.26,90.6,197.69,86.08Z"/><g class="cls-15"><path class="cls-16" d="M158.47,95.15s3,10.39,22.51,10.39,19.23-13,19.23-13l5.24,20.67L156.37,115Z"/></g><path class="cls-17" d="M178.68,63.56a7.26,7.26,0,0,0,.27-5.5l3.35.45,3.37-.11a7.27,7.27,0,0,0-.28,5.5s.51,1.3-3.42,1.1S178.68,63.56,178.68,63.56Z"/><path class="cls-17" d="M185.39,63.9a9.14,9.14,0,0,1,1,4.27c-.11,2.23-.75,3-5,2.76s-4.46-2-4.21-3.57A19.1,19.1,0,0,1,179,63Z"/><path class="cls-1" d="M193.82,67.88c3.7-.46,15.15,17.08,13,21.42s-8.47-1.69-11.69-7.32S187.09,68.71,193.82,67.88Z"/><path class="cls-3" d="M193.44,65.48s6.73,3.59,13.15,15.4c0,0-.1,5.58-8.8,5.63,0,0-5.58-6.67-7.73-12.56S190.82,64.81,193.44,65.48Z"/><ellipse class="cls-4" cx="174.47" cy="55.67" rx="6.38" ry="8.87" transform="translate(43.86 184.05) rotate(-62.2)"/><ellipse class="cls-4" cx="188.01" cy="55.83" rx="8.87" ry="6.38" transform="translate(-5.19 89.58) rotate(-26.45)"/><ellipse class="cls-4" cx="181.39" cy="45.4" rx="16.86" ry="15.09" transform="translate(134.28 226.36) rotate(-89.46)"/><g class="cls-18"><path class="cls-19" d="M167.73,43.05a12.2,12.2,0,0,0,3.43-2,15.05,15.05,0,0,1,7.46-2.13,45.48,45.48,0,0,1,7.81.57,14.27,14.27,0,0,1,3.25.7c1.79.7,3.21,2.1,4.87,3.06a11.18,11.18,0,0,0,4.67,1.48,4.81,4.81,0,0,0,2.44-.31,5.46,5.46,0,0,0,2-1.92,23.26,23.26,0,0,0,1.95-3.3,5.34,5.34,0,0,0,.62-1.92c.13-1.75-1.25-3.26-2.72-4.22a23.71,23.71,0,0,0-6.95-2.76,109,109,0,0,0-18.72-3.26,51.91,51.91,0,0,0-9.41-.1A11.93,11.93,0,0,0,163,28.54a7.33,7.33,0,0,0-3.3,6.17c0,2.55,1.39,4.07,3,5.78C164.19,42,165.31,43.67,167.73,43.05Z"/></g><circle class="cls-4" cx="196.09" cy="47.51" r="3.42" transform="translate(62.01 198.27) rotate(-61.97)"/><circle class="cls-4" cx="166.88" cy="47.23" r="3.42" transform="translate(46.77 172.34) rotate(-61.97)"/><path class="cls-20" d="M183.45,50.25a.49.49,0,0,1,.11.39.5.5,0,0,1-.24.41.69.69,0,0,1-.51,0,1.19,1.19,0,0,1-.4-.21l.41-.17a1.17,1.17,0,0,1-.47.93,1.26,1.26,0,0,1-.46.24,1.16,1.16,0,0,1-.55,0,1.62,1.62,0,0,1-.88-.45,1.64,1.64,0,0,1-.45-.85l.37.1a1.06,1.06,0,0,1-.37.18.61.61,0,0,1-.42,0,.69.69,0,0,1-.37-.62c.12.19.28.36.44.36a.65.65,0,0,0,.41-.24.21.21,0,0,1,.3,0l0,.07,0,.05a1.3,1.3,0,0,0,1,.81.86.86,0,0,0,.28,0,.93.93,0,0,0,.27-.12.73.73,0,0,0,.34-.47l0-.07a.22.22,0,0,1,.27-.17.2.2,0,0,1,.12.08.8.8,0,0,0,.46.27c.06,0,.16-.08.21-.17A.58.58,0,0,0,183.45,50.25Z"/><ellipse class="cls-21" cx="188.86" cy="47.37" rx="3.14" ry="3.39" transform="translate(141.19 236.15) rotate(-89.91)"/><circle cx="188.49" cy="48.43" r="1.98"/><circle class="cls-21" cx="189.54" cy="47.69" r="0.55"/><ellipse class="cls-21" cx="173.68" cy="47.22" rx="3.14" ry="3.39" transform="translate(120.35 219.13) rotate(-87.97)"/><path class="cls-22" d="M192.21,42s-3.41-3-5.81-.41"/><path class="cls-22" d="M171,41.82s3.46-2.9,5.8-.3"/><circle cx="173.48" cy="48.28" r="1.98"/><circle class="cls-21" cx="174.52" cy="47.55" r="0.55"/><path class="cls-23" d="M181,53.19a4.23,4.23,0,0,0-2.28.12,5,5,0,0,0-2,.95,5.23,5.23,0,0,1-1.69.83A6.52,6.52,0,0,1,176.72,57s1.17,2.16,2.12,2.33c0,0,3.61.64,5,.05,0,0,1.74-.45,1.84-1.93s0-.05,0-.05,1.24-1.88,1.68-2A26.07,26.07,0,0,1,184.81,54a5.21,5.21,0,0,0-2.13-.85,2.6,2.6,0,0,0-.88.18h-.26Z"/><path class="cls-24" d="M175.66,55.18s2.4-.29,2.85-.3a5.12,5.12,0,0,0,1.13.06,7.5,7.5,0,0,0,2.74.16,9.87,9.87,0,0,0,1.49,0,15.14,15.14,0,0,1,2.26.43,17.14,17.14,0,0,0-2.28,1.76s-.55.62-2.79.46a9.59,9.59,0,0,1-2.8-.54,1.9,1.9,0,0,1-.78-.86A3,3,0,0,0,175.66,55.18Z"/><path class="cls-21" d="M176.77,55.1a16.93,16.93,0,0,0,9,.29,18.2,18.2,0,0,0-1.86-.32,6.41,6.41,0,0,1-1.49,0,8.29,8.29,0,0,1-2.74-.16,2.69,2.69,0,0,1-1.13-.06Z"/><path class="cls-21" d="M177.57,56.42a16.82,16.82,0,0,0,6.75.33h.09a3.45,3.45,0,0,0-.53.48s-.59.66-2.58.51a10.07,10.07,0,0,1-3-.54S177.56,56.73,177.57,56.42Z"/><ellipse class="cls-4" cx="181.13" cy="61.4" rx="1.81" ry="8.11" transform="translate(117.6 241.8) rotate(-89.33)"/><path class="cls-25" d="M167,40.32S161.65,27,168.53,25.75s23.83-3.95,29,4.6c0,0,.69,5.44-2.18,9.63C195.34,40,186.67,29.07,167,40.32Z"/><path class="cls-26" d="M164.88,41.75s-.22,3.34,2.09.83,4.27-5.31,14.83-5.19,12,4.22,14.18,6.77,2.31-1.1.48-3.3-3.14-5.68-14.94-5.82S166.43,39.89,164.88,41.75Z"/></g></svg>