<svg id="_1" data-name="1" xmlns="http://www.w3.org/2000/svg" xmlns:xlink="http://www.w3.org/1999/xlink" viewBox="0 0 260 168"><defs><style>.cls-1{fill:#9e6041;}.cls-2{fill:#821717;}.cls-3{fill:#4368ef;}.cls-4{fill:#a46c35;}.cls-5{fill:#8e5339;}.cls-6{clip-path:url(#clip-path);}.cls-7{fill:#bc785b;}.cls-8{fill:#ac6f47;}.cls-9{clip-path:url(#clip-path-2);}.cls-10{fill:#701010;}.cls-11{clip-path:url(#clip-path-3);}.cls-12{clip-path:url(#clip-path-4);}.cls-13{fill:#3763dd;}.cls-14{fill:#8b5e3c;}.cls-15{clip-path:url(#clip-path-5);}.cls-16{fill:#995f2b;}.cls-17{fill:#603913;}.cls-18{fill:#fff;}.cls-19{fill:none;stroke:#603913;stroke-linecap:round;stroke-linejoin:round;stroke-width:2.06px;}.cls-20{fill:#6a3e1e;}.cls-21{fill:#5f0a0f;}.cls-22{fill:#dd993e;}.cls-23{fill:#d3562a;}</style><clipPath id="clip-path"><path class="cls-1" d="M169.4,125.53a15.37,15.37,0,0,0-1.57,5.12c-.21,2.57-1.5,7.46-3.55,6.88s.13-4.49.12-5.38-.84-1.3-1.68-.17a19.86,19.86,0,0,0-3.1,6.05c-.4,1.94-.12,5-1.62,5.64s-1.88-4.27-1.71-6.49a40.08,40.08,0,0,1,1.55-6.54s2.22-6.1,5.53-9l4.32,1.44Z"/></clipPath><clipPath id="clip-path-2"><path class="cls-2" d="M181.42,129l-.5,10.77s10.44,5,20.73,5,24.29-3.43,24.29-3.43l-3.48-15.22Z"/></clipPath><clipPath id="clip-path-3"><path class="cls-1" d="M236.65,125.53a15.27,15.27,0,0,1,1.58,5.12c.2,2.57,1.5,7.46,3.54,6.88s-.13-4.49-.12-5.38.84-1.3,1.69-.17a20.32,20.32,0,0,1,3.1,6.05c.39,1.94.12,5,1.61,5.64s1.88-4.27,1.72-6.49a39.76,39.76,0,0,0-1.56-6.54s-2.22-6.1-5.53-9L238.36,123Z"/></clipPath><clipPath id="clip-path-4"><path class="cls-3" d="M224.62,107.84s1.63-24.12-8.7-28.72c-3.55-2.21-8.32-1.74-8.32-1.74l-2.94-.15v-.1l-3.09.07s-13.87.2-16.27,6.26c0,0-2.6,12.78-5.12,25.14,0,0-16.11,29.24,21.63,27.91S225.33,113.6,224.62,107.84Z"/></clipPath><clipPath id="clip-path-5"><ellipse class="cls-4" cx="207.37" cy="53.44" rx="21.51" ry="19.25" transform="translate(120.2 249.04) rotate(-80.43)"/></clipPath></defs><path class="cls-5" d="M164.06,130.49s-4.07,5.14-3.91,7,.27,4.71-.4,4.86-2.15.16-1.83-5.15,5.32-11.72,5.32-11.72l1.79,1.35Z"/><path class="cls-1" d="M169.4,125.53a15.37,15.37,0,0,0-1.57,5.12c-.21,2.57-1.5,7.46-3.55,6.88s.13-4.49.12-5.38-.84-1.3-1.68-.17a19.86,19.86,0,0,0-3.1,6.05c-.4,1.94-.12,5-1.62,5.64s-1.88-4.27-1.71-6.49a40.08,40.08,0,0,1,1.55-6.54s2.22-6.1,5.53-9l4.32,1.44Z"/><g class="cls-6"><path class="cls-7" d="M156.65,142.78s.64.71.65.22a4.08,4.08,0,0,0-.49-1.41s-.31-.27-.47,0S156.65,142.78,156.65,142.78Z"/></g><path class="cls-7" d="M165.6,136.22a3.44,3.44,0,0,1-1.6-.63s-.52,1.18.42,1.45S165.6,136.22,165.6,136.22Z"/><path class="cls-1" d="M187.84,83.2c-4.71-.7-19.84,21.31-17.27,26.92s10.85-1.9,15.13-9S196.39,84.47,187.84,83.2Z"/><path class="cls-1" d="M177.57,101.5s3.76,2.84.42,9.41-8.59,14.62-8.59,14.62-6,3-6.93-3l9.62-19.72S174.83,98.37,177.57,101.5Z"/><path class="cls-1" d="M187.85,83.2c-4.71-.7-19.84,21.31-17.28,26.92s10.86-1.9,15.14-9S196.4,84.47,187.85,83.2Z"/><path class="cls-3" d="M188.41,80.15s-8.69,4.37-17.24,19.24c0,0,0,7.11,11.05,7.45a114.38,114.38,0,0,0,8.41-16.09C193.56,83.32,191.77,79.38,188.41,80.15Z"/><path class="cls-8" d="M224,151.71s2.47,3.88-1.67,18.21-1.09,16.29,4.79,17.82,6.63,1,6.21,2.54-1.17.59-1.88.66.86.09-.15,1.67c-1.85,2.87-7.24,1-17.33-2-5.06-1.31-3.08-6-2.72-8.38s1.26-23.95,0-27.13S224,151.71,224,151.71Z"/><ellipse class="cls-8" cx="217.8" cy="152.72" rx="7.04" ry="6.12" transform="translate(-2.08 3.01) rotate(-0.79)"/><path class="cls-8" d="M210.76,152.82c.11-1.13-2.61-20.9-2.61-20.9l14.52-1.1,2.17,21.8-9.82.72Z"/><path class="cls-8" d="M183,152.22s-2.36,3.94,2.17,18.15,1.54,16.26-4.3,17.95-6.6,1.22-6.14,2.71,1.2.55,1.91.61-.86.12.2,1.66c1.92,2.82,7.26.81,17.26-2.5,5-1.45,2.92-6.12,2.49-8.46s-1.93-23.9-.73-27.12S183,152.22,183,152.22Z"/><ellipse class="cls-8" cx="189.14" cy="153.06" rx="7.04" ry="6.12" transform="translate(-2.09 2.62) rotate(-0.79)"/><path class="cls-8" d="M196.18,153c-.14-1.12,2-21,2-21l-14.55-.7-1.56,21.85,9.84.45Z"/><path class="cls-2" d="M223.31,125.53s4.2,24.42,3.49,29.06c0,0-14.12,3.8-17.25,1,0,0-4.2-24.67-4.79-30.07S220.58,115,223.31,125.53Z"/><path class="cls-2" d="M226.8,154.59s-2.68,23.91-4.34,28.06c0,0-7.7,2-12.89-.69,0,0-.79-19.91,0-26.36s5.06-6.51,9.36-6S226.66,150.64,226.8,154.59Z"/><path class="cls-2" d="M183.74,119.32s-4.38,31.1-3.54,35.82c0,0,14.21,3.48,17.26.55,0,0,3.52-25.29,4-30.81S186.17,108.5,183.74,119.32Z"/><path class="cls-2" d="M180.2,155.18s3.33,23.82,5.1,27.92c0,0,7.76,1.78,12.87-1,0,0,.24-19.92-.71-26.35s-5.24-6.37-9.52-5.79S180.23,151.23,180.2,155.18Z"/><path class="cls-2" d="M181.42,129l-.5,10.77s10.44,5,20.73,5,24.29-3.43,24.29-3.43l-3.48-15.22Z"/><g class="cls-9"><path class="cls-10" d="M175.31,128.53s2.15,11.69,27,11.69,28.07-11.51,28.07-11.51l-5.53-8.1Z"/></g><path class="cls-5" d="M242,130.49s4.06,5.14,3.9,7-.27,4.71.41,4.86,2.15.16,1.82-5.15-5.32-11.72-5.32-11.72L241,126.84Z"/><path class="cls-1" d="M236.65,125.53a15.27,15.27,0,0,1,1.58,5.12c.2,2.57,1.5,7.46,3.54,6.88s-.13-4.49-.12-5.38.84-1.3,1.69-.17a20.32,20.32,0,0,1,3.1,6.05c.39,1.94.12,5,1.61,5.64s1.88-4.27,1.72-6.49a39.76,39.76,0,0,0-1.56-6.54s-2.22-6.1-5.53-9L238.36,123Z"/><g class="cls-11"><path class="cls-7" d="M249.4,142.78s-.64.71-.65.22a4.08,4.08,0,0,1,.49-1.41s.32-.27.47,0S249.4,142.78,249.4,142.78Z"/></g><path class="cls-7" d="M240.45,136.22a3.46,3.46,0,0,0,1.61-.63s.51,1.18-.43,1.45S240.45,136.22,240.45,136.22Z"/><path class="cls-1" d="M218.21,83.2c4.71-.7,19.84,21.31,17.28,26.92s-10.86-1.9-15.14-9S209.66,84.47,218.21,83.2Z"/><path class="cls-1" d="M228.48,101.5s-3.75,2.84-.41,9.41,8.58,14.62,8.58,14.62,6,3,6.93-3L234,102.79S231.22,98.37,228.48,101.5Z"/><path class="cls-3" d="M224.62,107.84s1.63-24.12-8.7-28.72c-3.55-2.21-8.32-1.74-8.32-1.74l-2.94-.15v-.1l-3.09.07s-13.87.2-16.27,6.26c0,0-2.6,12.78-5.12,25.14,0,0-16.11,29.24,21.63,27.91S225.33,113.6,224.62,107.84Z"/><g class="cls-12"><path class="cls-13" d="M174.58,119.41s3.87,13.25,28.71,13.25,24.54-16.58,24.54-16.58l6.68,26.37-62.6,2.27Z"/></g><path class="cls-14" d="M200.36,79.11a9.3,9.3,0,0,0,.35-7l4.27.57,4.3-.14a9.29,9.29,0,0,0-.35,7s.64,1.66-4.37,1.41S200.36,79.11,200.36,79.11Z"/><path class="cls-14" d="M208.93,79.54A11.82,11.82,0,0,1,210.18,85c-.15,2.85-1,3.79-6.32,3.52S198.17,86,198.49,84a24.37,24.37,0,0,1,2.26-5.6Z"/><ellipse class="cls-4" cx="196.6" cy="64.99" rx="8.14" ry="11.31" transform="translate(26.74 183.4) rotate(-53.17)"/><ellipse class="cls-4" cx="213.62" cy="67.9" rx="11.31" ry="8.14" transform="translate(-10.53 67.06) rotate(-17.42)"/><ellipse class="cls-4" cx="207.37" cy="53.44" rx="21.51" ry="19.25" transform="translate(120.2 249.04) rotate(-80.43)"/><g class="cls-15"><path class="cls-16" d="M190.64,47.74c1.68-.15,3.16-1.12,4.71-1.81a19.1,19.1,0,0,1,9.82-1.19A57.08,57.08,0,0,1,214.9,47a17.46,17.46,0,0,1,4,1.53c2.11,1.23,3.62,3.28,5.52,4.83A14.16,14.16,0,0,0,230,56.18a6.16,6.16,0,0,0,3.13.1,6.9,6.9,0,0,0,2.93-2,30.54,30.54,0,0,0,3.13-3.77,7,7,0,0,0,1.16-2.3c.51-2.18-.92-4.35-2.58-5.85a30.21,30.21,0,0,0-8.21-4.87,137.59,137.59,0,0,0-22.93-7.86,67.05,67.05,0,0,0-11.84-2,15.26,15.26,0,0,0-7.17.9,9.37,9.37,0,0,0-5.39,7.11c-.46,3.22.93,5.41,2.68,7.89C186.39,45.65,187.46,48,190.64,47.74Z"/></g><circle class="cls-4" cx="225.47" cy="59.04" r="4.36" transform="translate(73.49 235.74) rotate(-63.97)"/><circle class="cls-4" cx="188.73" cy="52.84" r="4.36" transform="translate(58.43 199.24) rotate(-63.97)"/><path class="cls-17" d="M209,60a.62.62,0,0,1,.06.52.67.67,0,0,1-.39.46.85.85,0,0,1-.64-.09,1.52,1.52,0,0,1-.47-.35l.56-.13a1.49,1.49,0,0,1-.78,1.08,1.74,1.74,0,0,1-.63.21,1.55,1.55,0,0,1-.69-.07,2.08,2.08,0,0,1-1.43-1.91l.45.2a1.54,1.54,0,0,1-.5.16.78.78,0,0,1-.53-.11.89.89,0,0,1-.34-.85c.12.26.28.52.48.54a.78.78,0,0,0,.57-.22.28.28,0,0,1,.38,0,.47.47,0,0,1,.05.1v.07a1.67,1.67,0,0,0,1.1,1.21.78.78,0,0,0,.35,0,1.26,1.26,0,0,0,.38-.1.87.87,0,0,0,.51-.52l0-.09a.29.29,0,0,1,.37-.16.26.26,0,0,1,.15.12,1.08,1.08,0,0,0,.52.45.39.39,0,0,0,.29-.18A.67.67,0,0,0,209,60Z"/><ellipse class="cls-18" cx="216.39" cy="57.41" rx="4.01" ry="4.32" transform="translate(125.4 261.96) rotate(-80.88)"/><circle cx="215.71" cy="58.67" r="2.52" transform="translate(69.97 228.18) rotate(-64.53)"/><circle class="cls-18" cx="217.18" cy="57.95" r="0.7"/><ellipse class="cls-18" cx="197.3" cy="54.19" rx="4.01" ry="4.32" transform="translate(106.28 237.43) rotate(-78.94)"/><path class="cls-19" d="M221.68,51.34s-3.7-4.41-7.23-1.68"/><path class="cls-19" d="M195,46.84s4.94-3,7.37.79"/><circle cx="196.82" cy="55.48" r="2.52" transform="translate(62.09 209.31) rotate(-64.53)"/><circle class="cls-18" cx="198.29" cy="54.77" r="0.7"/><path class="cls-20" d="M205.27,63.17a5.34,5.34,0,0,0-2.9-.31,6.16,6.16,0,0,0-2.65.81,6.67,6.67,0,0,1-2.29.7,8.4,8.4,0,0,1,1.75,2.7s1,3,2.2,3.37c0,0,4.41,1.53,6.27,1.06,0,0,2.29-.22,2.71-2.07s0-.06,0-.06,1.93-2.12,2.52-2.16A33.46,33.46,0,0,1,210,65a6.79,6.79,0,0,0-2.52-1.51,3.48,3.48,0,0,0-1.15.06l-.32-.05Z"/><path class="cls-21" d="M198.19,64.6s3.08.12,3.65.2a6.23,6.23,0,0,0,1.41.3,9.57,9.57,0,0,0,3.43.76,13.33,13.33,0,0,0,1.88.26,21.18,21.18,0,0,1,2.76,1,21.27,21.27,0,0,0-3.22,1.77s-.82.67-3.6,0a12.23,12.23,0,0,1-3.43-1.25,2.42,2.42,0,0,1-.82-1.23A3.81,3.81,0,0,0,198.19,64.6Z"/><path class="cls-18" d="M199.61,64.72a21.51,21.51,0,0,0,11.23,2.16,22.71,22.71,0,0,0-2.28-.76,8.47,8.47,0,0,1-1.88-.26,10.5,10.5,0,0,1-3.43-.76,3.49,3.49,0,0,1-1.41-.3Z"/><path class="cls-18" d="M200.35,66.56a21.5,21.5,0,0,0,8.45,1.76h.11a4.4,4.4,0,0,0-.77.5s-.88.7-3.35.12a12.77,12.77,0,0,1-3.67-1.28S200.28,66.94,200.35,66.56Z"/><ellipse class="cls-4" cx="203.84" cy="73.54" rx="2.31" ry="10.35" transform="translate(96.99 262.07) rotate(-80.3)"/><path class="cls-22" d="M190.21,44.14s-4-17.8,4.89-18,30.82-.21,35.61,11.6c0,0-.22,7-4.67,11.69C226,49.4,217.29,33.92,190.21,44.14Z"/><path class="cls-23" d="M187.3,45.52s-.94,4.17,2.47,1.47,6.45-5.83,19.72-3.56S223.75,51.14,226,54.79s3.14-.93,1.27-4-2.82-7.8-17.66-10.33S189.63,43.49,187.3,45.52Z"/><path class="cls-3" d="M217.65,80.15s8.69,4.37,17.24,19.24c0,0,.05,7.11-11,7.45a114.38,114.38,0,0,1-8.41-16.09C212.5,83.32,214.29,79.38,217.65,80.15Z"/></svg>