<svg id="Layer_1" data-name="Layer 1" xmlns="http://www.w3.org/2000/svg" xmlns:xlink="http://www.w3.org/1999/xlink" viewBox="0 0 260 168"><defs><style>.cls-1{fill:#9e6041;}.cls-2{fill:#821717;}.cls-3{fill:#4368ef;}.cls-4{fill:#a46c35;}.cls-5{fill:#ffec00;}.cls-6{fill:red;}.cls-7{fill:#8e5339;}.cls-8{clip-path:url(#clip-path);}.cls-9{fill:#bc785b;}.cls-10{fill:#fbb03b;}.cls-11{fill:#fcee21;}.cls-12{fill:#ac6f47;}.cls-13{fill:#0071bc;}.cls-14{fill:#630d0d;}.cls-15{clip-path:url(#clip-path-2);}.cls-16{fill:#701010;}.cls-17{clip-path:url(#clip-path-3);}.cls-18{fill:#3763dd;}.cls-19{fill:#8b5e3c;}.cls-20{clip-path:url(#clip-path-4);}.cls-21{fill:#995f2b;}.cls-22{fill:#603913;}.cls-23{fill:#fff;}.cls-24,.cls-33{fill:none;stroke-linecap:round;stroke-linejoin:round;}.cls-24{stroke:#603913;stroke-width:1.6px;}.cls-25{fill:#6a3e1e;}.cls-26{fill:#5f0a0f;}.cls-27{fill:#dd993e;}.cls-28{fill:#d3562a;}.cls-29{clip-path:url(#clip-path-5);}.cls-30{fill:#ffc200;}.cls-31{fill:#fa0;opacity:0.31;}.cls-32{fill:#fff1ae;}.cls-33{stroke:#fff1ae;stroke-width:0.18px;}.cls-34{fill:#ffb600;}.cls-35{clip-path:url(#clip-path-6);}.cls-36{fill:#ff8080;}.cls-37{fill:#ff3636;}.cls-38{fill:#ff4848;}.cls-39{fill:#dd1f1f;}.cls-40{fill:#c11111;}.cls-41{fill:#d12c2c;}.cls-42{fill:#ff8f8f;}.cls-43,.cls-44{fill:#ffc2c2;}.cls-44{opacity:0.35;}</style><clipPath id="clip-path"><path class="cls-1" d="M31.49,108.87a11.77,11.77,0,0,0-1.22,4c-.16,2-1.17,5.78-2.75,5.33s.1-3.48.1-4.17-.66-1-1.31-.13a15.53,15.53,0,0,0-2.41,4.69c-.3,1.5-.09,3.89-1.25,4.37s-1.45-3.31-1.33-5a31.55,31.55,0,0,1,1.21-5.07s1.72-4.73,4.29-7l3.34,1.12Z"/></clipPath><clipPath id="clip-path-2"><path class="cls-2" d="M40.8,111.52l-.38,8.35s8.09,3.88,16.07,3.88,18.83-2.67,18.83-2.67l-2.7-11.79Z"/></clipPath><clipPath id="clip-path-3"><path class="cls-3" d="M74.29,95.16s1.27-18.7-6.73-22.27a11.78,11.78,0,0,0-6.46-1.35l-2.28-.12v-.07l-2.41.05s-10.75.16-12.61,4.85c0,0-2,9.91-4,19.49,0,0-12.49,22.67,16.76,21.64S74.85,99.62,74.29,95.16Z"/></clipPath><clipPath id="clip-path-4"><ellipse class="cls-4" cx="54.58" cy="53.67" rx="14.93" ry="16.68" transform="translate(-9.7 12.11) rotate(-11.63)"/></clipPath><clipPath id="clip-path-5"><path class="cls-5" d="M91.35,54.75l.3-.8h-2l.3.8a2.1,2.1,0,1,0,1.42,0Zm-.73,3.58a1.61,1.61,0,1,1,1.63-1.58A1.61,1.61,0,0,1,90.62,58.33Z"/></clipPath><clipPath id="clip-path-6"><polygon class="cls-6" points="91.64 51.63 90.69 51.63 90.51 51.63 89.56 51.63 89.03 52.86 89.93 54.75 91.34 54.75 92.17 52.86 91.64 51.63"/></clipPath></defs><path class="cls-7" d="M27.34,112.71s-3.15,4-3,5.44.21,3.65-.32,3.77-1.66.12-1.41-4,4.12-9.1,4.12-9.1l1.39,1Z"/><path class="cls-1" d="M31.49,108.87a11.77,11.77,0,0,0-1.22,4c-.16,2-1.17,5.78-2.75,5.33s.1-3.48.1-4.17-.66-1-1.31-.13a15.53,15.53,0,0,0-2.41,4.69c-.3,1.5-.09,3.89-1.25,4.37s-1.45-3.31-1.33-5a31.55,31.55,0,0,1,1.21-5.07s1.72-4.73,4.29-7l3.34,1.12Z"/><g class="cls-8"><path class="cls-9" d="M21.61,122.24s.49.55.5.17a3.07,3.07,0,0,0-.38-1.09s-.25-.21-.37,0S21.61,122.24,21.61,122.24Z"/></g><path class="cls-9" d="M28.55,117.16a2.75,2.75,0,0,1-1.25-.49s-.4.91.33,1.12S28.55,117.16,28.55,117.16Z"/><path class="cls-1" d="M45.79,76.05c-3.66-.54-15.39,16.52-13.4,20.87s8.42-1.47,11.73-7S52.41,77,45.79,76.05Z"/><path class="cls-1" d="M37.82,90.24s2.91,2.2.32,7.3-6.65,11.33-6.65,11.33-4.64,2.32-5.37-2.34l7.45-15.29S35.7,87.81,37.82,90.24Z"/><path class="cls-1" d="M45.79,76.05c-3.65-.54-15.38,16.52-13.39,20.87s8.41-1.47,11.73-7S52.42,77,45.79,76.05Z"/><path class="cls-3" d="M46.22,73.69S39.49,77.07,32.86,88.6c0,0,0,5.52,8.57,5.78A89.77,89.77,0,0,0,48,81.91C50.22,76.14,48.83,73.09,46.22,73.69Z"/><path class="cls-10" d="M78.78,157.68a6.94,6.94,0,0,1,1.75.86,2.62,2.62,0,0,1,1.39,2.56c-.45,2-1.71,3.58-6.55,2.69s-14.86-3-14.55-5.7S63,152.45,78.78,157.68Z"/><path class="cls-11" d="M78.89,157.43a7,7,0,0,1,1.75.77c.79.49,1.64,1.28,1.41,2.25-.42,1.72-1.66,3.11-6.48,2.27S60.75,159.9,61,157.58,63.08,152.68,78.89,157.43Z"/><path class="cls-12" d="M73.78,129.17s1.91,3-1.29,14.11-.85,12.63,3.71,13.81,5.14.81,4.81,2-.91.46-1.46.52.67.07-.12,1.29c-1.43,2.23-5.61.78-13.43-1.57-3.92-1-2.39-4.68-2.11-6.5s1-18.57,0-21S73.78,129.17,73.78,129.17Z"/><path class="cls-13" d="M69.5,159.69A11.38,11.38,0,0,1,79,158.8c-.55-1-2.3-1.46-4.67-2.17a.55.55,0,1,1,.31-1.06c4.43,1.31,5.85,3.9,5.89,4.05a.55.55,0,0,1-.42.66.33.33,0,0,1-.17,0l-.11,0a.61.61,0,0,1-.35-.06,10.29,10.29,0,0,0-9.45.45.52.52,0,0,1-.32.07.55.55,0,0,1-.43-.28A.56.56,0,0,1,69.5,159.69Z"/><ellipse class="cls-12" cx="69.01" cy="129.95" rx="5.46" ry="4.74" transform="translate(-1.78 0.96) rotate(-0.79)"/><path class="cls-12" d="M63.55,130c.08-.87-2-16.2-2-16.2L72.79,113l1.68,16.9-7.62.56Z"/><path class="cls-10" d="M37.79,158.2a6.82,6.82,0,0,0-1.73.91,2.61,2.61,0,0,0-1.31,2.6c.5,2,1.8,3.53,6.61,2.5s14.78-3.44,14.39-6.09S53.47,152.54,37.79,158.2Z"/><path class="cls-11" d="M37.67,158a7,7,0,0,0-1.72.82c-.78.52-1.62,1.32-1.35,2.28.47,1.72,1.74,3.07,6.54,2.1s14.73-3.22,14.39-5.54S53.34,152.77,37.67,158Z"/><path class="cls-12" d="M42,129.56s-1.83,3.06,1.68,14.07,1.2,12.6-3.33,13.91-5.11,1-4.76,2.1.93.44,1.48.48-.67.09.15,1.29c1.49,2.18,5.63.62,13.39-1.95,3.89-1.12,2.26-4.74,1.93-6.55s-1.5-18.53-.57-21S42,129.56,42,129.56Z"/><path class="cls-13" d="M47.12,160a11.32,11.32,0,0,0-9.53-.63c.52-1,2.26-1.53,4.61-2.3a.55.55,0,0,0-.35-1.05c-4.38,1.43-5.74,4.05-5.77,4.21a.56.56,0,0,0,.44.65h.17l.11,0a.5.5,0,0,0,.34-.07,10.31,10.31,0,0,1,9.46.19.65.65,0,0,0,.33.06.55.55,0,0,0,.19-1Z"/><ellipse class="cls-12" cx="46.79" cy="130.21" rx="5.46" ry="4.74" transform="translate(-1.79 0.66) rotate(-0.79)"/><path class="cls-12" d="M52.25,130.13c-.11-.87,1.57-16.24,1.57-16.24l-11.27-.55-1.22,16.94,7.63.35Z"/><path class="cls-2" d="M73.28,108.87S76.53,127.8,76,131.4c0,0-10.94,2.95-13.36.78,0,0-3.26-19.13-3.72-23.31S71.17,100.71,73.28,108.87Z"/><path class="cls-2" d="M76,131.4s-2.07,18.53-3.36,21.75c0,0-6,1.54-10-.53,0,0-.61-15.44,0-20.44s3.92-5.05,7.25-4.69S75.88,128.34,76,131.4Z"/><path class="cls-14" d="M62.22,152s8.28,1.35,11.45,0l-.23,2.54s-.76,3.07-11.71.42Z"/><path class="cls-2" d="M42.61,104.05s-3.4,24.11-2.75,27.77c0,0,11,2.7,13.38.43,0,0,2.73-19.6,3.07-23.89S44.49,95.67,42.61,104.05Z"/><path class="cls-2" d="M39.86,131.85s2.58,18.47,4,21.65c0,0,6,1.38,10-.8,0,0,.19-15.45-.55-20.43s-4.06-4.94-7.38-4.5S39.88,128.79,39.86,131.85Z"/><path class="cls-14" d="M54.18,152s-8.23,1.58-11.44.3l.3,2.52s.84,3,11.71.11Z"/><path class="cls-2" d="M40.8,111.52l-.38,8.35s8.09,3.88,16.07,3.88,18.83-2.67,18.83-2.67l-2.7-11.79Z"/><g class="cls-15"><path class="cls-16" d="M36.07,111.19s1.66,9.07,20.92,9.07,21.77-8.93,21.77-8.93l-4.29-6.27Z"/></g><path class="cls-3" d="M74.29,95.16s1.27-18.7-6.73-22.27a11.78,11.78,0,0,0-6.46-1.35l-2.28-.12v-.07l-2.41.05s-10.75.16-12.61,4.85c0,0-2,9.91-4,19.49,0,0-12.49,22.67,16.76,21.64S74.85,99.62,74.29,95.16Z"/><g class="cls-17"><path class="cls-18" d="M35.51,104.12s3,10.28,22.25,10.28,19-12.86,19-12.86L82,122l-48.53,1.77Z"/></g><path class="cls-19" d="M55.49,72.88a7.21,7.21,0,0,0,.27-5.44l3.31.44,3.33-.11a7.22,7.22,0,0,0-.27,5.45s.5,1.28-3.38,1.09S55.49,72.88,55.49,72.88Z"/><path class="cls-19" d="M62.13,73.22a9.1,9.1,0,0,1,1,4.21c-.11,2.21-.74,2.94-4.9,2.73S53.79,78.24,54,76.64a18.52,18.52,0,0,1,1.75-4.34Z"/><ellipse class="cls-4" cx="50.03" cy="65.03" rx="6.31" ry="8.77" transform="translate(-26.07 95.7) rotate(-74.38)"/><ellipse class="cls-4" cx="63.15" cy="62.36" rx="8.77" ry="6.31" transform="translate(-25.11 53.06) rotate(-38.62)"/><ellipse class="cls-4" cx="54.58" cy="53.67" rx="14.93" ry="16.68" transform="translate(-9.7 12.11) rotate(-11.63)"/><g class="cls-20"><path class="cls-21" d="M40.89,54.24a12.23,12.23,0,0,0,2.9-2.63A14.78,14.78,0,0,1,50.55,48a44,44,0,0,1,7.67-1.08,13.41,13.41,0,0,1,3.29,0c1.88.3,3.54,1.35,5.34,1.94a11,11,0,0,0,4.83.45,4.74,4.74,0,0,0,2.29-.8,5.34,5.34,0,0,0,1.55-2.28,22.73,22.73,0,0,0,1.21-3.6,5.58,5.58,0,0,0,.19-2c-.24-1.72-1.88-2.88-3.51-3.5a23.32,23.32,0,0,0-7.29-1.22,107.14,107.14,0,0,0-18.78.75,51.43,51.43,0,0,0-9.12,1.87,11.87,11.87,0,0,0-4.93,2.65,7.3,7.3,0,0,0-1.9,6.66c.57,2.46,2.19,3.65,4.15,4.95C37.23,53.92,38.67,55.34,40.89,54.24Z"/></g><circle class="cls-4" cx="69.23" cy="52.64" r="3.38"/><circle class="cls-4" cx="40.93" cy="58.46" r="3.38"/><path class="cls-22" d="M57.58,57.92a.48.48,0,0,1,.19.36.52.52,0,0,1-.15.45.69.69,0,0,1-.48.11,1.16,1.16,0,0,1-.44-.12l.36-.25a1.16,1.16,0,0,1-.26,1,1.26,1.26,0,0,1-.4.32,1.14,1.14,0,0,1-.52.15,1.67,1.67,0,0,1-1-.25,1.65,1.65,0,0,1-.61-.73l.38,0a1.11,1.11,0,0,1-.32.25.62.62,0,0,1-.41.07.66.66,0,0,1-.48-.52c.15.16.34.3.49.26a.61.61,0,0,0,.35-.32.22.22,0,0,1,.29-.08s.05,0,.06.06l0,0a1.28,1.28,0,0,0,1.14.57.72.72,0,0,0,.27-.06,1,1,0,0,0,.24-.18.71.71,0,0,0,.23-.52v-.07a.22.22,0,0,1,.22-.22.24.24,0,0,1,.14.05.83.83,0,0,0,.5.17.3.3,0,0,0,.16-.21A.48.48,0,0,0,57.58,57.92Z"/><ellipse class="cls-23" cx="62.21" cy="54.01" rx="3.35" ry="3.11" transform="translate(-9.93 14.22) rotate(-12.08)"/><circle cx="63.01" cy="55.09" r="1.95"/><circle class="cls-23" cx="63.87" cy="54.16" r="0.54"/><ellipse class="cls-23" cx="47.51" cy="57.03" rx="3.35" ry="3.11" transform="translate(-9.31 9.26) rotate(-10.15)"/><path class="cls-24" d="M64.33,48.14S60.42,46,58.63,49"/><path class="cls-24" d="M43.79,52.37s2.74-3.52,5.55-1.5"/><circle cx="48.47" cy="58.09" r="1.95"/><circle class="cls-23" cx="49.33" cy="57.16" r="0.54"/><path class="cls-25" d="M55.79,61.29a4.12,4.12,0,0,0-2.18.59,4.81,4.81,0,0,0-1.69,1.32s-1,1-1.46,1.16a6.47,6.47,0,0,1,2,1.46s1.57,1.84,2.54,1.81c0,0,3.61-.13,4.83-1,0,0,1.59-.8,1.37-2.26s0,0,0,0,.8-2.08,1.2-2.27a26.83,26.83,0,0,1-2.73-.76,5.18,5.18,0,0,0-2.24-.39,2.84,2.84,0,0,0-.82.36l-.24.06Z"/><path class="cls-26" d="M51.08,64.31s2.25-.78,2.69-.89a5,5,0,0,0,1.1-.17,7.45,7.45,0,0,0,2.69-.41A10.69,10.69,0,0,0,59,62.5a15.09,15.09,0,0,1,2.27-.06,16.28,16.28,0,0,0-1.83,2.17s-.41.72-2.6,1A9.62,9.62,0,0,1,54,65.7a1.87,1.87,0,0,1-.93-.66A3,3,0,0,0,51.08,64.31Z"/><path class="cls-23" d="M52.13,64a16.72,16.72,0,0,0,8.72-1.59A15.73,15.73,0,0,0,59,62.5a6.34,6.34,0,0,1-1.43.34,8.21,8.21,0,0,1-2.69.41,2.53,2.53,0,0,1-1.1.17Z"/><path class="cls-23" d="M53.18,65.12a16.64,16.64,0,0,0,6.6-1.1l.08,0a3.42,3.42,0,0,0-.41.59s-.44.75-2.39,1a10.23,10.23,0,0,1-3,.11S53.24,65.41,53.18,65.12Z"/><ellipse class="cls-4" cx="57.66" cy="69.19" rx="8.02" ry="1.79" transform="translate(-12.64 12.89) rotate(-11.5)"/><path class="cls-27" d="M39.57,51.76S31.66,40,38.05,37.35s22.21-8.79,29-1.6c0,0,1.8,5.11-.1,9.77C66.94,45.52,56.27,36.78,39.57,51.76Z"/><path class="cls-28" d="M37.85,53.58s.49,3.27,2.2.36,3-6,13.25-8.1,12.47,1.57,15.12,3.58,2-1.55-.22-3.29S64,41.29,52.54,43.62,39,51.45,37.85,53.58Z"/><path class="cls-1" d="M68,73.74c2.89-2.3,21.59,6.6,22,11.36S82,88,76.41,84.94,62.76,77.91,68,73.74Z"/><path class="cls-1" d="M87.58,87.94s3.61.5,5.38-4.94,3.27-12.73,3.27-12.73-1.65-4.91-5.46-2.13l-5.49,16.1S84.36,88.17,87.58,87.94Z"/><path class="cls-3" d="M66.45,71.91s7.53-.44,19,6.22c0,0,2.79,4.75-4.52,9.29,0,0-8.15-2.76-13-6.62S63.9,72.7,66.45,71.91Z"/><path class="cls-1" d="M88.63,66c-.58-.81-.72-2.65-.83-3.64a3.41,3.41,0,0,1,.47-1.89,8.71,8.71,0,0,1,1.55-2.11c.26-.27.65-.53,1-.34a.75.75,0,0,1,.21.85c-.13.52-.45,1-.58,1.51a1.18,1.18,0,0,0,.49,1.41,1.31,1.31,0,0,0,1.27-.35c1.6-1.27,2.18-3.41,2.65-5.4a2,2,0,0,0,.08-.87.69.69,0,0,0-.6-.56,1,1,0,0,0-.54.24c-.64.48-1,2.16-1.75,1.64-.38-.12-.43-.65-.33-1a3.25,3.25,0,0,1,4-2.17c1.62.57,1.75,2.41,1.56,4.15a3.27,3.27,0,0,0,0,1.08,1.27,1.27,0,0,0,.28.49c1.56,2,3.11,4.4,2.86,7a5.42,5.42,0,0,1-8.87,3.63A15.87,15.87,0,0,1,88.63,66Z"/><ellipse class="cls-7" cx="96.64" cy="60.43" rx="2.97" ry="1.27" transform="translate(-2.9 115.95) rotate(-61.17)"/><ellipse class="cls-7" cx="98.04" cy="61.84" rx="2.97" ry="1.27" transform="translate(-3.41 117.91) rotate(-61.17)"/><ellipse class="cls-7" cx="99.28" cy="63.71" rx="2.97" ry="1.27" transform="translate(-4.41 119.96) rotate(-61.17)"/><path class="cls-5" d="M91.35,54.75l.3-.8h-2l.3.8a2.1,2.1,0,1,0,1.42,0Zm-.73,3.58a1.61,1.61,0,1,1,1.63-1.58A1.61,1.61,0,0,1,90.62,58.33Z"/><g class="cls-29"><rect class="cls-30" x="89.11" y="53.72" width="3.08" height="0.41"/><circle class="cls-31" cx="90.65" cy="56.73" r="1.78"/></g><ellipse class="cls-32" cx="89.44" cy="55.14" rx="0.34" ry="0.07" transform="translate(-15.03 66.39) rotate(-37.8)"/><ellipse class="cls-32" cx="89.07" cy="55.51" rx="0.16" ry="0.07" transform="translate(-5.44 101.16) rotate(-57.72)"/><path class="cls-33" d="M88.68,56.62a2.1,2.1,0,0,0,1.59,2.09"/><ellipse class="cls-34" cx="90.65" cy="54.75" rx="1.61" ry="0.2"/><polygon class="cls-6" points="91.64 51.63 90.69 51.63 90.51 51.63 89.56 51.63 89.03 52.86 89.93 54.75 91.34 54.75 92.17 52.86 91.64 51.63"/><g class="cls-35"><path class="cls-36" d="M88.8,53.5,90,53l.13-1.19-.71-.24-.63.39Z"/><path class="cls-37" d="M92.32,53.5,91.17,53,91,51.81l.71-.24.62.39Z"/><path class="cls-38" d="M88.69,52.8,90,53l.38,2.08-1-.09Z"/><path class="cls-39" d="M92.46,52.8l-1.28.2-.38,2.08,1-.09Z"/><polygon class="cls-40" points="89.95 53 91.18 53 90.87 54.75 90.29 54.75 89.95 53"/><polygon class="cls-41" points="90.08 51.81 91.03 51.81 91.18 53 89.95 53 90.08 51.81"/></g><ellipse class="cls-42" cx="90.55" cy="51.72" rx="0.52" ry="0.04"/><ellipse class="cls-43" cx="89.45" cy="52.23" rx="0.49" ry="0.1" transform="translate(9.84 118.5) rotate(-70.05)"/><ellipse class="cls-44" cx="89.67" cy="53.79" rx="0.13" ry="0.81" transform="translate(-14.15 41.35) rotate(-24.12)"/></svg>