<svg xmlns="http://www.w3.org/2000/svg" xmlns:xlink="http://www.w3.org/1999/xlink" viewBox="0 0 260 168"><defs><style>.cls-1{fill:#9e6041;}.cls-2{fill:#821717;}.cls-3{fill:#4368ef;}.cls-4{fill:#a46c35;}.cls-5{fill:#ffec00;}.cls-6{fill:red;}.cls-7{fill:#8e5339;}.cls-8{clip-path:url(#clip-path);}.cls-9{fill:#bc785b;}.cls-10{fill:#fbb03b;}.cls-11{fill:#fcee21;}.cls-12{fill:#ac6f47;}.cls-13{fill:#0071bc;}.cls-14{fill:#630d0d;}.cls-15{clip-path:url(#clip-path-2);}.cls-16{fill:#701010;}.cls-17{clip-path:url(#clip-path-3);}.cls-18{fill:#3763dd;}.cls-19{fill:#8b5e3c;}.cls-20{clip-path:url(#clip-path-4);}.cls-21{fill:#995f2b;}.cls-22{fill:#603913;}.cls-23{fill:#fff;}.cls-24,.cls-33{fill:none;stroke-linecap:round;stroke-linejoin:round;}.cls-24{stroke:#603913;stroke-width:1.6px;}.cls-25{fill:#6a3e1e;}.cls-26{fill:#5f0a0f;}.cls-27{fill:#dd993e;}.cls-28{fill:#d3562a;}.cls-29{clip-path:url(#clip-path-5);}.cls-30{fill:#ffc200;}.cls-31{fill:#fa0;opacity:0.31;}.cls-32{fill:#fff1ae;}.cls-33{stroke:#fff1ae;stroke-width:0.18px;}.cls-34{fill:#ffb600;}.cls-35{clip-path:url(#clip-path-6);}.cls-36{fill:#ff8080;}.cls-37{fill:#ff3636;}.cls-38{fill:#ff4848;}.cls-39{fill:#dd1f1f;}.cls-40{fill:#c11111;}.cls-41{fill:#d12c2c;}.cls-42{fill:#ff8f8f;}.cls-43,.cls-44{fill:#ffc2c2;}.cls-44{opacity:0.35;}</style><clipPath id="clip-path"><path class="cls-1" d="M31.49,108.87a11.77,11.77,0,0,0-1.22,4c-.16,2-1.17,5.78-2.75,5.33s.1-3.48.1-4.17-.66-1-1.31-.13a15.53,15.53,0,0,0-2.41,4.69c-.3,1.5-.09,3.89-1.25,4.37s-1.45-3.31-1.33-5a31.55,31.55,0,0,1,1.21-5.07s1.72-4.73,4.29-7l3.34,1.12Z"/></clipPath><clipPath id="clip-path-2"><path class="cls-2" d="M40.8,111.52l-.38,8.35s8.09,3.88,16.07,3.88,18.83-2.67,18.83-2.67l-2.7-11.79Z"/></clipPath><clipPath id="clip-path-3"><path class="cls-3" d="M74.29,95.16s1.27-18.7-6.73-22.27a11.78,11.78,0,0,0-6.46-1.35l-2.28-.12v-.07l-2.41.05s-10.75.16-12.61,4.85c0,0-2,9.91-4,19.49,0,0-12.49,22.67,16.76,21.64S74.85,99.62,74.29,95.16Z"/></clipPath><clipPath id="clip-path-4"><ellipse class="cls-4" cx="60.08" cy="53.21" rx="16.68" ry="14.93" transform="translate(0.07 106.5) rotate(-83.13)"/></clipPath><clipPath id="clip-path-5"><path class="cls-5" d="M63.88,65l-.46-.72-.54.73-.12.17-.54.73.82.23A2.11,2.11,0,1,0,63.88,65Zm2.46,2.71A1.61,1.61,0,1,1,66,65.41,1.61,1.61,0,0,1,66.34,67.66Z"/></clipPath><clipPath id="clip-path-6"><polygon class="cls-6" points="61.55 62.87 60.98 63.64 60.88 63.78 60.31 64.55 60.98 65.7 63.05 66.09 63.88 64.96 62.85 63.17 61.55 62.87"/></clipPath></defs><g id="_3" data-name="3"><path class="cls-7" d="M27.34,112.71s-3.15,4-3,5.44.21,3.65-.32,3.77-1.66.12-1.41-4,4.12-9.1,4.12-9.1l1.39,1Z"/><path class="cls-1" d="M31.49,108.87a11.77,11.77,0,0,0-1.22,4c-.16,2-1.17,5.78-2.75,5.33s.1-3.48.1-4.17-.66-1-1.31-.13a15.53,15.53,0,0,0-2.41,4.69c-.3,1.5-.09,3.89-1.25,4.37s-1.45-3.31-1.33-5a31.55,31.55,0,0,1,1.21-5.07s1.72-4.73,4.29-7l3.34,1.12Z"/><g class="cls-8"><path class="cls-9" d="M21.61,122.24s.49.55.5.17a3.07,3.07,0,0,0-.38-1.09s-.25-.21-.37,0S21.61,122.24,21.61,122.24Z"/></g><path class="cls-9" d="M28.55,117.16a2.75,2.75,0,0,1-1.25-.49s-.4.91.33,1.12S28.55,117.16,28.55,117.16Z"/><path class="cls-1" d="M45.79,76.05c-3.66-.54-15.39,16.52-13.4,20.87s8.42-1.47,11.73-7S52.41,77,45.79,76.05Z"/><path class="cls-1" d="M37.82,90.24s2.91,2.2.32,7.3-6.65,11.33-6.65,11.33-4.64,2.32-5.37-2.34l7.45-15.29S35.7,87.81,37.82,90.24Z"/><path class="cls-1" d="M45.79,76.05c-3.65-.54-15.38,16.52-13.39,20.87s8.41-1.47,11.73-7S52.42,77,45.79,76.05Z"/><path class="cls-3" d="M46.22,73.69S39.49,77.07,32.86,88.6c0,0,0,5.52,8.57,5.78A89.77,89.77,0,0,0,48,81.91C50.22,76.14,48.83,73.09,46.22,73.69Z"/><path class="cls-10" d="M78.78,157.68a6.94,6.94,0,0,1,1.75.86,2.62,2.62,0,0,1,1.39,2.56c-.45,2-1.71,3.58-6.55,2.69s-14.86-3-14.55-5.7S63,152.45,78.78,157.68Z"/><path class="cls-11" d="M78.89,157.43a7,7,0,0,1,1.75.77c.79.49,1.64,1.28,1.41,2.25-.42,1.72-1.66,3.11-6.48,2.27S60.75,159.9,61,157.58,63.08,152.68,78.89,157.43Z"/><path class="cls-12" d="M73.78,129.17s1.91,3-1.29,14.11-.85,12.63,3.71,13.81,5.14.81,4.81,2-.91.46-1.46.52.67.07-.12,1.29c-1.43,2.23-5.61.78-13.43-1.57-3.92-1-2.39-4.68-2.11-6.5s1-18.57,0-21S73.78,129.17,73.78,129.17Z"/><path class="cls-13" d="M69.5,159.69A11.38,11.38,0,0,1,79,158.8c-.55-1-2.3-1.46-4.67-2.17a.55.55,0,1,1,.31-1.06c4.43,1.31,5.85,3.9,5.89,4.05a.55.55,0,0,1-.42.66.33.33,0,0,1-.17,0l-.11,0a.61.61,0,0,1-.35-.06,10.29,10.29,0,0,0-9.45.45.52.52,0,0,1-.32.07.55.55,0,0,1-.43-.28A.56.56,0,0,1,69.5,159.69Z"/><ellipse class="cls-12" cx="69.01" cy="129.95" rx="5.46" ry="4.74" transform="translate(-1.78 0.96) rotate(-0.79)"/><path class="cls-12" d="M63.55,130c.08-.87-2-16.2-2-16.2L72.79,113l1.68,16.9-7.62.56Z"/><path class="cls-10" d="M37.79,158.2a6.82,6.82,0,0,0-1.73.91,2.61,2.61,0,0,0-1.31,2.6c.5,2,1.8,3.53,6.61,2.5s14.78-3.44,14.39-6.09S53.47,152.54,37.79,158.2Z"/><path class="cls-11" d="M37.67,158a7,7,0,0,0-1.72.82c-.78.52-1.62,1.32-1.35,2.28.47,1.72,1.74,3.07,6.54,2.1s14.73-3.22,14.39-5.54S53.34,152.77,37.67,158Z"/><path class="cls-12" d="M42,129.56s-1.83,3.06,1.68,14.07,1.2,12.6-3.33,13.91-5.11,1-4.76,2.1.93.44,1.48.48-.67.09.15,1.29c1.49,2.18,5.63.62,13.39-1.95,3.89-1.12,2.26-4.74,1.93-6.55s-1.5-18.53-.57-21S42,129.56,42,129.56Z"/><path class="cls-13" d="M47.12,160a11.32,11.32,0,0,0-9.53-.63c.52-1,2.26-1.53,4.61-2.3a.55.55,0,0,0-.35-1.05c-4.38,1.43-5.74,4.05-5.77,4.21a.56.56,0,0,0,.44.65h.17l.11,0a.5.5,0,0,0,.34-.07,10.31,10.31,0,0,1,9.46.19.65.65,0,0,0,.33.06.55.55,0,0,0,.19-1Z"/><ellipse class="cls-12" cx="46.79" cy="130.21" rx="5.46" ry="4.74" transform="translate(-1.79 0.66) rotate(-0.79)"/><path class="cls-12" d="M52.25,130.13c-.11-.87,1.57-16.24,1.57-16.24l-11.27-.55-1.22,16.94,7.63.35Z"/><path class="cls-2" d="M73.28,108.87S76.53,127.8,76,131.4c0,0-10.94,2.95-13.36.78,0,0-3.26-19.13-3.72-23.31S71.17,100.71,73.28,108.87Z"/><path class="cls-2" d="M76,131.4s-2.07,18.53-3.36,21.75c0,0-6,1.54-10-.53,0,0-.61-15.44,0-20.44s3.92-5.05,7.25-4.69S75.88,128.34,76,131.4Z"/><path class="cls-14" d="M62.22,152s8.28,1.35,11.45,0l-.23,2.54s-.76,3.07-11.71.42Z"/><path class="cls-2" d="M42.61,104.05s-3.4,24.11-2.75,27.77c0,0,11,2.7,13.38.43,0,0,2.73-19.6,3.07-23.89S44.49,95.67,42.61,104.05Z"/><path class="cls-2" d="M39.86,131.85s2.58,18.47,4,21.65c0,0,6,1.38,10-.8,0,0,.19-15.45-.55-20.43s-4.06-4.94-7.38-4.5S39.88,128.79,39.86,131.85Z"/><path class="cls-14" d="M54.18,152s-8.23,1.58-11.44.3l.3,2.52s.84,3,11.71.11Z"/><path class="cls-2" d="M40.8,111.52l-.38,8.35s8.09,3.88,16.07,3.88,18.83-2.67,18.83-2.67l-2.7-11.79Z"/><g class="cls-15"><path class="cls-16" d="M36.07,111.19s1.66,9.07,20.92,9.07,21.77-8.93,21.77-8.93l-4.29-6.27Z"/></g><path class="cls-3" d="M74.29,95.16s1.27-18.7-6.73-22.27a11.78,11.78,0,0,0-6.46-1.35l-2.28-.12v-.07l-2.41.05s-10.75.16-12.61,4.85c0,0-2,9.91-4,19.49,0,0-12.49,22.67,16.76,21.64S74.85,99.62,74.29,95.16Z"/><g class="cls-17"><path class="cls-18" d="M35.51,104.12s3,10.28,22.25,10.28,19-12.86,19-12.86L82,122l-48.53,1.77Z"/></g><path class="cls-19" d="M55.49,72.88a7.21,7.21,0,0,0,.27-5.44l3.31.44,3.33-.11a7.22,7.22,0,0,0-.27,5.45s.5,1.28-3.38,1.09S55.49,72.88,55.49,72.88Z"/><path class="cls-19" d="M62.13,73.22a9.1,9.1,0,0,1,1,4.21c-.11,2.21-.74,2.94-4.9,2.73S53.79,78.24,54,76.64a18.52,18.52,0,0,1,1.75-4.34Z"/><path class="cls-1" d="M68,73.74c2.89-2.3,21.59,6.6,22,11.36S82,88,76.41,84.94,62.76,77.91,68,73.74Z"/><path class="cls-3" d="M66.45,71.91s7.53-.44,19,6.22c0,0,2.79,4.75-4.52,9.29,0,0-8.15-2.76-13-6.62S63.9,72.7,66.45,71.91Z"/><ellipse class="cls-4" cx="52.16" cy="62.55" rx="6.31" ry="8.77" transform="translate(-28.88 70.65) rotate(-55.88)"/><ellipse class="cls-4" cx="65.45" cy="64.18" rx="8.77" ry="6.31" transform="translate(-18.08 26.44) rotate(-20.12)"/><ellipse class="cls-4" cx="60.08" cy="53.21" rx="16.68" ry="14.93" transform="translate(0.07 106.5) rotate(-83.13)"/><g class="cls-20"><path class="cls-21" d="M46.92,49.41a12.37,12.37,0,0,0,3.58-1.57,14.83,14.83,0,0,1,7.56-1.29A45,45,0,0,1,65.68,48a13.46,13.46,0,0,1,3.12,1c1.68.88,2.92,2.41,4.45,3.54a11.16,11.16,0,0,0,4.44,2,4.84,4.84,0,0,0,2.42,0,5.35,5.35,0,0,0,2.2-1.67,23.3,23.3,0,0,0,2.28-3A5.41,5.41,0,0,0,85.4,48c.32-1.71-.87-3.34-2.21-4.44A23.27,23.27,0,0,0,76.66,40a108,108,0,0,0-18-5.25,52.41,52.41,0,0,0-9.25-1.12,11.78,11.78,0,0,0-5.52,1,7.26,7.26,0,0,0-3.91,5.7c-.24,2.51.92,4.16,2.36,6C43.55,48,44.47,49.75,46.92,49.41Z"/></g><circle class="cls-4" cx="74.3" cy="56.88" r="3.38"/><circle class="cls-4" cx="45.62" cy="53.43" r="3.38"/><path class="cls-22" d="M61.58,58.2a.49.49,0,0,1,.07.4.52.52,0,0,1-.29.37.67.67,0,0,1-.49,0,1.17,1.17,0,0,1-.38-.26l.42-.12a1.13,1.13,0,0,1-.56.86,1.18,1.18,0,0,1-.48.19,1.37,1.37,0,0,1-.54,0,1.6,1.6,0,0,1-1.17-1.43l.35.15a1,1,0,0,1-.37.13.62.62,0,0,1-.42-.06.67.67,0,0,1-.29-.65c.09.2.23.39.39.4a.63.63,0,0,0,.43-.18.2.2,0,0,1,.29,0,.12.12,0,0,1,0,.08l0,0a1.28,1.28,0,0,0,.89.9.69.69,0,0,0,.28,0,.71.71,0,0,0,.28-.09.73.73,0,0,0,.39-.42l0-.07a.22.22,0,0,1,.28-.14.27.27,0,0,1,.12.09.77.77,0,0,0,.42.32.3.3,0,0,0,.22-.15A.51.51,0,0,0,61.58,58.2Z"/><ellipse class="cls-23" cx="67.21" cy="55.95" rx="3.11" ry="3.35" transform="translate(4.1 116.49) rotate(-83.58)"/><circle cx="67.63" cy="57.24" r="1.95"/><circle class="cls-23" cx="68.74" cy="56.63" r="0.54"/><ellipse class="cls-23" cx="52.31" cy="54.16" rx="3.11" ry="3.35" transform="translate(-8.87 98.05) rotate(-81.65)"/><path class="cls-24" d="M71.08,51.06s-3-3.28-5.65-1"/><path class="cls-24" d="M50.27,48.55S54,46.08,56,48.89"/><circle cx="52.89" cy="55.46" r="1.95"/><circle class="cls-23" cx="54" cy="54.85" r="0.54"/><path class="cls-25" d="M58.81,60.82a4.14,4.14,0,0,0-2.25-.13,4.85,4.85,0,0,0-2,.72,5.28,5.28,0,0,1-1.75.63,6.43,6.43,0,0,1,1.46,2s.91,2.25,1.83,2.52c0,0,3.47,1,4.89.59,0,0,1.77-.25,2-1.7s0,0,0,0,1.42-1.71,1.87-1.76a24.52,24.52,0,0,1-2.35-1.6,5.24,5.24,0,0,0-2-1.07,2.66,2.66,0,0,0-.88.08l-.25,0Z"/><path class="cls-26" d="M53.38,62.19s2.39,0,2.84,0a5,5,0,0,0,1.1.19,7.33,7.33,0,0,0,2.68.46,9.53,9.53,0,0,0,1.46.13,14.8,14.8,0,0,1,2.18.67,16.94,16.94,0,0,0-2.43,1.48s-.61.55-2.79.15a9.51,9.51,0,0,1-2.7-.84,1.88,1.88,0,0,1-.67-.93A3,3,0,0,0,53.38,62.19Z"/><path class="cls-23" d="M54.48,62.23a16.74,16.74,0,0,0,8.78,1.26,17.6,17.6,0,0,0-1.8-.51A6.23,6.23,0,0,1,60,62.85a8.24,8.24,0,0,1-2.68-.46,2.54,2.54,0,0,1-1.1-.19Z"/><path class="cls-23" d="M55.13,63.62a16.58,16.58,0,0,0,6.6,1.06h.09a3.51,3.51,0,0,0-.58.42s-.65.58-2.59.22a10.27,10.27,0,0,1-2.89-.86S55.09,63.92,55.13,63.62Z"/><ellipse class="cls-4" cx="58.08" cy="68.91" rx="1.79" ry="8.02" transform="translate(-17.39 118.16) rotate(-83)"/><path class="cls-27" d="M46.46,46.64S42.68,33,49.58,32.49s23.86-1.29,28,7.68c0,0,.09,5.42-3.19,9.23C74.39,49.4,67.05,37.73,46.46,46.64Z"/><path class="cls-28" d="M44.25,47.81s-.57,3.27,2,1S51,44.11,61.36,45.38s11.32,5.45,13.2,8.19,2.39-.83.84-3.18S72.92,44.46,61.34,43,46,46.15,44.25,47.81Z"/><path class="cls-1" d="M88.39,87.66s2.54-2.62-.8-7.26-8.31-10.18-8.31-10.18-4.94-1.58-5,3.14l9.71,14S86.66,90.39,88.39,87.66Z"/><path class="cls-1" d="M71.33,73.8c-1,0-2.56-1-3.42-1.48a3.38,3.38,0,0,1-1.24-1.5,8.78,8.78,0,0,1-.79-2.5c-.06-.36,0-.83.31-1a.74.74,0,0,1,.8.33c.35.42.54,1,.88,1.37a1.18,1.18,0,0,0,1.42.44,1.35,1.35,0,0,0,.48-1.24c-.08-2-1.46-3.77-2.78-5.33a2,2,0,0,0-.66-.58.68.68,0,0,0-.81.16,1,1,0,0,0-.12.57c0,.8,1.14,2.1.29,2.38-.33.23-.78,0-1-.35a3.23,3.23,0,0,1,.65-4.53c1.42-1,3,0,4.26,1.19a3.27,3.27,0,0,0,.85.68,1.49,1.49,0,0,0,.56.07c2.57,0,5.39.1,7.3,1.82a5.42,5.42,0,0,1-2.33,9.29A15.41,15.41,0,0,1,71.33,73.8Z"/><ellipse class="cls-7" cx="71.59" cy="64.06" rx="1.27" ry="2.97" transform="translate(-20.28 35.97) rotate(-24.82)"/><ellipse class="cls-7" cx="73.56" cy="63.77" rx="1.27" ry="2.97" transform="translate(-19.97 36.77) rotate(-24.82)"/><ellipse class="cls-7" cx="75.8" cy="63.88" rx="1.27" ry="2.97" transform="translate(-19.81 37.72) rotate(-24.82)"/><path class="cls-5" d="M63.88,65l-.46-.72-.54.73-.12.17-.54.73.82.23A2.11,2.11,0,1,0,63.88,65Zm2.46,2.71A1.61,1.61,0,1,1,66,65.41,1.61,1.61,0,0,1,66.34,67.66Z"/><g class="cls-29"><rect class="cls-30" x="61.27" y="64.82" width="3.08" height="0.41" transform="matrix(0.59, -0.81, 0.81, 0.59, -26.8, 77.07)"/><circle class="cls-31" cx="65.06" cy="66.69" r="1.78"/></g><ellipse class="cls-32" cx="63.07" cy="66.72" rx="0.07" ry="0.34" transform="translate(-1.67 1.62) rotate(-1.45)"/><ellipse class="cls-32" cx="63.14" cy="67.24" rx="0.07" ry="0.16" transform="translate(-20.16 27.63) rotate(-21.37)"/><path class="cls-33" d="M63.8,68.21a2.11,2.11,0,0,0,2.63,0"/><ellipse class="cls-34" cx="63.47" cy="65.52" rx="1.61" ry="0.2" transform="translate(-26.92 77.8) rotate(-53.65)"/><polygon class="cls-6" points="61.55 62.87 60.98 63.64 60.88 63.78 60.31 64.55 60.98 65.7 63.05 66.09 63.88 64.96 62.85 63.17 61.55 62.87"/><g class="cls-35"><path class="cls-36" d="M61.37,66.26s.27-1.22.27-1.22l-.88-.81-.62.43,0,.74Z"/><path class="cls-37" d="M63.45,63.43l-1.08.63-1-.6.23-.72.69-.26Z"/><path class="cls-38" d="M60.74,65.94l.92-.91,1.9.92-.67.76Z"/><path class="cls-39" d="M63,62.9s-.6,1.15-.6,1.15l1.45,1.54.53-.86Z"/><polygon class="cls-40" points="61.64 65.04 62.37 64.05 63.6 65.33 63.26 65.81 61.64 65.04"/><polygon class="cls-41" points="60.76 64.23 61.33 63.46 62.37 64.05 61.64 65.04 60.76 64.23"/></g><ellipse class="cls-42" cx="60.97" cy="63.8" rx="0.52" ry="0.04" transform="translate(-26.55 75.09) rotate(-53.65)"/><ellipse class="cls-43" cx="60.73" cy="64.99" rx="0.1" ry="0.49" transform="translate(-25.85 44.62) rotate(-33.71)"/><ellipse class="cls-44" cx="62.12" cy="65.73" rx="0.13" ry="0.81" transform="translate(-15.28 112.52) rotate(-77.77)"/></g></svg>