<svg id="Layer_1" data-name="Layer 1" xmlns="http://www.w3.org/2000/svg" viewBox="0 0 260 168"><defs><style>.cls-1{fill:#ff6801;}.cls-2{fill:#ffeff7;}.cls-3{fill:#ffe703;}.cls-4{fill:#0410aa;}</style></defs><polygon class="cls-1" points="178.21 70.95 181.72 77.52 182.59 79.26 183.92 78.72 179.73 70.26 178.21 70.95"/><path class="cls-1" d="M184.15,79.32a2.92,2.92,0,0,1-2.42,3.52c-1.82.45-4-.33-4.45-2s1-3.21,2.85-3.66A3.21,3.21,0,0,1,184.15,79.32Z"/><path class="cls-2" d="M178,80.87c.52.24,1-1,.3-1.2s-.67.54-.52.93A.49.49,0,0,0,178,80.87Z"/><path class="cls-2" d="M181.13,78.29c.07-.25-.11-.5-.63-.59a1.88,1.88,0,0,0-1.6.64.84.84,0,0,0-.24.57.46.46,0,0,0,.35.46.69.69,0,0,0,.41-.08l1.09-.44A1,1,0,0,0,181.13,78.29Z"/><path class="cls-3" d="M181.94,59.87l-.73-7.41,10.24-.27c0,.69.45,8.15.5,10l-1.57.16-.39-7-7,.28.5,6.19h-1.43Z"/><path class="cls-3" d="M183.5,62.47a2.91,2.91,0,0,1-3.58,2.32c-1.86-.27-3.62-1.85-3.37-3.5s2.18-2.57,4-2.3A3.22,3.22,0,0,1,183.5,62.47Z"/><path class="cls-3" d="M191.92,62.66A2.91,2.91,0,0,1,188.34,65c-1.85-.27-3.61-1.85-3.37-3.5s2.19-2.57,4-2.3A3.22,3.22,0,0,1,191.92,62.66Z"/><path class="cls-2" d="M177.13,61.53c.39.42,1.28-.59.74-1s-.83.24-.84.65A.51.51,0,0,0,177.13,61.53Z"/><path class="cls-2" d="M181.06,60.36c.16-.21.09-.51-.36-.79a1.89,1.89,0,0,0-1.73,0,.94.94,0,0,0-.44.44.48.48,0,0,0,.15.56.72.72,0,0,0,.41.08h1.18A1,1,0,0,0,181.06,60.36Z"/><path class="cls-2" d="M185.67,61.57c.39.41,1.29-.6.74-1s-.83.24-.83.66A.5.5,0,0,0,185.67,61.57Z"/><path class="cls-2" d="M189.6,60.4c.16-.21.09-.51-.36-.79a1.89,1.89,0,0,0-1.73,0,.9.9,0,0,0-.43.43.47.47,0,0,0,.14.56.82.82,0,0,0,.41.09h1.18A1,1,0,0,0,189.6,60.4Z"/><path class="cls-4" d="M189.84,39.88a2.9,2.9,0,0,1-4,1.53c-1.76-.64-3.16-2.55-2.58-4.11s2.67-2.07,4.43-1.42A3.22,3.22,0,0,1,189.84,39.88Z"/><path class="cls-4" d="M198.05,41.79a2.91,2.91,0,0,1-4,1.54c-1.75-.65-3.15-2.55-2.58-4.11s2.67-2.07,4.43-1.42A3.22,3.22,0,0,1,198.05,41.79Z"/><path class="cls-4" d="M209.12,33.18l-5.63-1-3.76-.68v0l-5.63-1-4.44-.81L188.85,37,188.59,39l1.4.3.78-6.16,3.31.55,3.58.61-1.06,6.94,1.57.17c.2-1.12.69-4.3,1.07-6.77L207.05,36,206,42.92l1.56.17C207.88,41.26,209,33.87,209.12,33.18Z"/><path class="cls-4" d="M207.43,43.53a2.91,2.91,0,0,1-4,1.53c-1.76-.65-3.16-2.55-2.58-4.11s2.67-2.07,4.42-1.42A3.21,3.21,0,0,1,207.43,43.53Z"/><path class="cls-2" d="M183.71,37.84c.3.49,1.38-.32.93-.82s-.87.06-.95.47A.47.47,0,0,0,183.71,37.84Z"/><path class="cls-2" d="M187.79,37.5c.21-.17.2-.48-.19-.84a1.84,1.84,0,0,0-1.68-.37.86.86,0,0,0-.52.33.47.47,0,0,0,0,.58.72.72,0,0,0,.38.16l1.16.25A1,1,0,0,0,187.79,37.5Z"/><path class="cls-2" d="M192.2,39.62c.3.49,1.38-.31.93-.82s-.86.07-.95.47A.47.47,0,0,0,192.2,39.62Z"/><path class="cls-2" d="M196.28,39.29c.21-.18.2-.48-.19-.85a1.86,1.86,0,0,0-1.68-.37.86.86,0,0,0-.52.33.48.48,0,0,0,0,.58.76.76,0,0,0,.38.16l1.16.25A1,1,0,0,0,196.28,39.29Z"/><path class="cls-2" d="M201.66,41.61c.3.49,1.38-.32.93-.82s-.87.06-1,.47A.47.47,0,0,0,201.66,41.61Z"/><path class="cls-2" d="M205.74,41.27c.21-.17.2-.48-.19-.84a1.87,1.87,0,0,0-1.68-.38.92.92,0,0,0-.52.34.48.48,0,0,0,0,.58.76.76,0,0,0,.38.16l1.16.25A1,1,0,0,0,205.74,41.27Z"/></svg>