<svg id="Layer_1" data-name="Layer 1" xmlns="http://www.w3.org/2000/svg" xmlns:xlink="http://www.w3.org/1999/xlink" viewBox="0 0 260 168"><defs><style>.cls-1{fill:#ffe9ab;}.cls-2{fill:#edce83;}.cls-3{clip-path:url(#clip-path);}.cls-4{clip-path:url(#clip-path-2);}.cls-5{fill:#e0bb69;}</style><clipPath id="clip-path"><path class="cls-1" d="M79.57,119.13s12.29-11.85,16.68-17.56A58.23,58.23,0,0,1,120,97.18c13.17.44,35.12,5.71,40,5.71s11,5.7,11,5.7,7.47,14,11,18-7.46,8.78-14.05,10.1-30.29.88-37.32.88-22,0-24.14-.44-14.49-6.59-18-7.46S66.84,126.59,79.57,119.13Z"/></clipPath><clipPath id="clip-path-2"><path class="cls-2" d="M185.81,102,160.93,114.3l-19-2.34-13.46,2.34-19.61-5.85-6.44-3.81-12-4.09-18.44,2L60.25,120.15s-1.17,11.13-1.17,14,10.54,7.61,31.61,10,39.8,5.57,39.8,5.57l63.22-1.47,9.66-16.39L199,115.76Z"/></clipPath></defs><path class="cls-1" d="M79.57,119.13s12.29-11.85,16.68-17.56A58.23,58.23,0,0,1,120,97.18c13.17.44,35.12,5.71,40,5.71s11,5.7,11,5.7,7.47,14,11,18-7.46,8.78-14.05,10.1-30.29.88-37.32.88-22,0-24.14-.44-14.49-6.59-18-7.46S66.84,126.59,79.57,119.13Z"/><g class="cls-3"><path class="cls-2" d="M185.81,102,160.93,114.3l-19-2.34-13.46,2.34-19.61-5.85-6.44-3.81-12-4.09-18.44,2L60.25,120.15s-1.17,11.13-1.17,14,10.54,7.61,31.61,10,39.8,5.57,39.8,5.57l63.22-1.47,9.66-16.39L199,115.76Z"/><g class="cls-4"><path class="cls-5" d="M57.84,136c.87.22,26.34-9.88,26.34-9.88l16-19.09,2.2-2.42,3.73-10.75,5.93,6.36L98.45,123.52,91,133,79.79,149.2l-5.71.44-19.76-1.53Z"/><polygon class="cls-5" points="138.4 88.84 145.64 147.01 161.45 150.3 169.57 149.86 159.25 109.47 153.1 83.57 138.4 88.84"/><path class="cls-5" d="M118.64,89.94v21.73l-12.73,27.87,11,2.2,14.93-.44,6.59-7.46-6.15-9.66s-3.51-3.29-3.29-4.39-.51-5.49-.51-5.49l.07-27.88Z"/><path class="cls-5" d="M166.71,94.33l5.93,21.73,5.27,9-.22,6.36-2.2,7.91,12.74,6.8,11.41-5s-7.9-46.53-8.34-51.36-4.61-9.88-4.61-9.88Z"/></g></g></svg>