<?xml version="1.0" encoding="utf-8"?>
<!-- Generator: Adobe Illustrator 23.0.1, SVG Export Plug-In . SVG Version: 6.00 Build 0)  -->
<svg version="1.1" id="Layer_1" xmlns="http://www.w3.org/2000/svg" xmlns:xlink="http://www.w3.org/1999/xlink" x="0px" y="0px"
	 viewBox="0 0 326.1 387.6" style="enable-background:new 0 0 326.1 387.6;" xml:space="preserve">
<style type="text/css">
	.st0{fill:#F9BC26;}
	.st1{clip-path:url(#SVGID_2_);}
	.st2{fill:#784A30;}
	.st3{fill:#F49F28;}
	.st4{clip-path:url(#SVGID_4_);}
	.st5{fill:#FBDB55;}
	.st6{clip-path:url(#SVGID_6_);}
	.st7{clip-path:url(#SVGID_8_);}
	.st8{clip-path:url(#SVGID_10_);}
	.st9{fill:#90684E;}
	.st10{fill:#FBDC50;}
	.st11{fill:#FCDC53;}
	.st12{fill:#FFFFBF;}
	.st13{fill:#7C2E18;}
	.st14{fill:#FFFFFF;}
	.st15{fill:#231F20;}
	.st16{fill:#CF8A00;}
</style>
<title>10_short_and_tall_tree</title>
<path class="st0" d="M101.6,303.2l0.2,68.2c0,2.7-1.1,5.2-3,7.1l0,0c-3.9,3.8-10.1,3.7-14-0.2c-0.1-0.1-0.2-0.2-0.3-0.3l-0.2-0.2
	c-1.9-2.1-2.8-5-2.5-7.8l8-67.2C89.8,302.8,102,303.2,101.6,303.2z"/>
<g>
	<defs>
		<path id="SVGID_1_" d="M101.6,303.2l0.2,68.2c0,2.7-1.1,5.2-3,7.1l0,0c-3.9,3.8-10.1,3.7-14-0.2c-0.1-0.1-0.2-0.2-0.3-0.3
			l-0.2-0.2c-1.9-2.1-2.8-5-2.5-7.8l8-67.2C89.8,302.8,102,303.2,101.6,303.2z"/>
	</defs>
	<clipPath id="SVGID_2_">
		<use xlink:href="#SVGID_1_"  style="overflow:visible;"/>
	</clipPath>
	<g class="st1">
		<path class="st2" d="M106.9,372.4l-29-2.1c0,0,0,13.6,14.2,14.6S106.9,372.4,106.9,372.4z"/>
	</g>
</g>
<path class="st3" d="M92.4,319.7c0.7,1,2,1.2,2.9,0.5c0,0,0.1,0,0.1-0.1c0.8-0.9,0.4-2.3,0.3-3.5c-0.1-0.8,0-1.5,0.3-2.2
	c0.6-1.8-1.3-2.6-2.8-2C91.3,313.4,91.3,318.3,92.4,319.7z"/>
<path class="st3" d="M85.5,352.4c0.9-1.8,4.2-0.4,5.4,0.5c1.3,1,2.3,2.2,3,3.7c1.2,2.8,1.7,5.8,1.7,8.8c0,1-0.1,2.2-1,2.5
	c-0.7,0.1-1.5-0.2-1.8-0.9c-0.3-0.6-0.6-1.3-0.8-2c-0.7-1.6-2.2-2.7-3.9-2.9c-0.4,0-0.8-0.1-1.1-0.3c-0.3-0.2-0.5-0.5-0.6-0.9
	c-0.7-1.9-1.1-3.9-1.2-5.9C85,354,85.2,353.2,85.5,352.4z"/>
<path class="st0" d="M46.6,307.6l0.2,68.2c0,2.7-1.1,5.2-3,7.1l0,0c-3.9,3.8-10.1,3.7-14-0.1c-0.1-0.1-0.2-0.2-0.3-0.3l-0.2-0.2
	c-1.9-2.1-2.8-5-2.5-7.8l8-67.2C34.9,307.2,47,307.6,46.6,307.6z"/>
<g>
	<defs>
		<path id="SVGID_3_" d="M46.6,307.6l0.2,68.2c0,2.7-1.1,5.2-3,7.1l0,0c-3.9,3.8-10.1,3.7-14-0.1c-0.1-0.1-0.2-0.2-0.3-0.3l-0.2-0.2
			c-1.9-2.1-2.8-5-2.5-7.8l8-67.2C34.9,307.2,47,307.6,46.6,307.6z"/>
	</defs>
	<clipPath id="SVGID_4_">
		<use xlink:href="#SVGID_3_"  style="overflow:visible;"/>
	</clipPath>
	<g class="st4">
		<path class="st2" d="M51.9,376.9l-29-2.1c0,0,0,13.6,14.2,14.6S51.9,376.9,51.9,376.9z"/>
	</g>
</g>
<path class="st3" d="M33.1,343c-0.6-1.9-1.7-5.7,0.5-6.7c2.2-1,4.7-0.5,6.5,1.1c1.1,1,1.9,2.4,2.1,3.9c0.3,1.5,0.3,3,0.3,4.5
	c0,0.7-0.1,1.5-0.3,2.2c-0.2,0.7-0.8,1.2-1.6,1.4c-1.3,0.2-2.2-1.2-3.2-1.9c-0.6-0.4-1.3-0.7-1.9-1.1
	C34.3,345.6,33.5,344.4,33.1,343z"/>
<path class="st5" d="M108.6,302.5l10.5,67.3c0.4,2.6-0.3,5.3-1.9,7.5l0,0c-3.3,4.4-9.5,5.2-13.9,1.9c-0.1-0.1-0.2-0.2-0.3-0.2
	l-0.2-0.2c-2.2-1.8-3.5-4.5-3.6-7.3L97,303.9L108.6,302.5z"/>
<g>
	<defs>
		<path id="SVGID_5_" d="M108.6,302.5l10.5,67.3c0.4,2.6-0.3,5.3-1.9,7.5l0,0c-3.3,4.4-9.5,5.2-13.9,1.9c-0.1-0.1-0.2-0.2-0.3-0.2
			l-0.2-0.2c-2.2-1.8-3.5-4.5-3.6-7.3L97,303.9L108.6,302.5z"/>
	</defs>
	<clipPath id="SVGID_6_">
		<use xlink:href="#SVGID_5_"  style="overflow:visible;"/>
	</clipPath>
	<g class="st6">
		<path class="st2" d="M124.5,370.1l-29,2.3c0,0,2.1,13.4,16.3,12.3S124.5,370.1,124.5,370.1z"/>
	</g>
</g>
<path class="st5" d="M108.8,304.4l10.5,67.3c0.4,2.6-0.3,5.3-1.9,7.5l0,0c-3.3,4.4-9.5,5.2-13.8,2c-0.1-0.1-0.2-0.2-0.3-0.3
	l-0.2-0.2c-2.2-1.8-3.5-4.5-3.6-7.3l-2.3-67.7L108.8,304.4z"/>
<g>
	<defs>
		<path id="SVGID_7_" d="M108.8,304.4l10.5,67.3c0.4,2.6-0.3,5.3-1.9,7.5l0,0c-3.3,4.4-9.5,5.2-13.8,2c-0.1-0.1-0.2-0.2-0.3-0.3
			l-0.2-0.2c-2.2-1.8-3.5-4.5-3.6-7.3l-2.3-67.7L108.8,304.4z"/>
	</defs>
	<clipPath id="SVGID_8_">
		<use xlink:href="#SVGID_7_"  style="overflow:visible;"/>
	</clipPath>
	<g class="st7">
		<path class="st2" d="M124.6,372l-29,2.3c0,0,2.1,13.4,16.3,12.3S124.6,372,124.6,372z"/>
	</g>
</g>
<path class="st0" d="M100.3,340.4c-0.7-2.1-0.5-3.6,1.3-5.1c1.3-1.1,2.8-0.6,4,0.4c0.9,0.9,1.5,2,1.8,3.2c1.6,5.2-0.4,10.7-2.8,15.6
	c-0.3,0.6-0.9,1.3-1.5,1c-0.2-0.2-0.4-0.4-0.5-0.7c-0.8-2.3-0.7-4.8-1-7.2C101.5,345.1,101.1,342.7,100.3,340.4z"/>
<path class="st5" d="M54,308.8l10.5,67.4c0.4,2.6-0.3,5.3-1.9,7.5l0,0c-3.3,4.4-9.5,5.2-13.8,2c-0.1-0.1-0.2-0.2-0.3-0.3l-0.2-0.2
	c-2.2-1.8-3.5-4.5-3.6-7.3l-2.3-67.7C42.5,310.2,54.5,308.8,54,308.8z"/>
<g>
	<defs>
		<path id="SVGID_9_" d="M54,308.8l10.5,67.4c0.4,2.6-0.3,5.3-1.9,7.5l0,0c-3.3,4.4-9.5,5.2-13.8,2c-0.1-0.1-0.2-0.2-0.3-0.3
			l-0.2-0.2c-2.2-1.8-3.5-4.5-3.6-7.3l-2.3-67.7C42.5,310.2,54.5,308.8,54,308.8z"/>
	</defs>
	<clipPath id="SVGID_10_">
		<use xlink:href="#SVGID_9_"  style="overflow:visible;"/>
	</clipPath>
	<g class="st8">
		<path class="st2" d="M69.9,376.4l-29,2.3c0,0,2.1,13.4,16.2,12.2S69.9,376.4,69.9,376.4z"/>
	</g>
</g>
<path class="st0" d="M53,329.3c0.6-0.4,1.1-1.1,1.1-1.8c0.1-0.7,0-1.5-0.2-2.2l-0.7-3.7c-0.3-1.7-1.9-4.7-3.6-1.9
	C48.4,321.9,48.5,331.6,53,329.3z"/>
<path class="st0" d="M47.6,371.2c-0.8-2.6-4.1-9.6-1.8-12.1c0.3-0.4,0.8-0.7,1.3-0.7c1,0,2.4,1.6,2.8,2.4c0.7,1.5,0.8,3.2,1.3,4.7
	c0.8,2.2,2.4,4,3.4,6.2c0.2,0.4,0.4,0.9,0.4,1.3c-0.1,0.8-0.7,1.5-1.4,1.8c-0.8,0.3-1.6,0.4-2.4,0.4c-0.4,0.1-0.9,0-1.3-0.1
	c-0.3-0.1-0.5-0.3-0.7-0.6C48.4,373.5,47.9,372.4,47.6,371.2z"/>
<path class="st9" d="M18.7,226.6c0,0-6.7-12.8-14-12.6c-2.3,1.4,6.9,5.5,4.1,5.7s-8-3.4-8.1-0.2s6.6,1.1,7.4,2.2s-8.4,0.7-8.2,3.5
	S14.2,226.1,18.7,226.6z"/>
<path class="st10" d="M34.9,237.4c0,0-9.4-11-17.6-13.5l-2.6,3c0,0,13.1,12.7,14,18.3L34.9,237.4z"/>
<path class="st11" d="M95.3,223.2c-2.1,6.4-16,3.6-29.4,3.9c-10.3,0.3-22.6,1.2-29.5,5.2c-17,9.9-13,25.3-12.6,47.4
	s1,38.4,26.1,32.1c40.1-7.5,35.1,2.2,55.4-3s13.2-38.6,9.3-87.5L95.3,223.2z"/>
<path class="st0" d="M54.5,259c3.1-3.2,14.1-4.4,18.8-5.4c4.4-0.9,12-2.2,11.4,4.7c-0.2,2.8-3.1,4.7-3.7,7.5c-0.4,1.5,0,3.1-0.7,4.6
	c-0.4,0.9-1.1,1.6-1.9,2.1c-4.2,3-10,2.3-15,0.9c-3.2-1-6.6-2.3-8.7-5S52.2,261.4,54.5,259z"/>
<path class="st0" d="M67.6,304.5c1.9,0,3.7,0.7,4-1.6c0.2-1.2-0.8-2.8-1.3-3.9c-1.2-2.5-3.3-4.8-6.3-4.6s-5.2,3.1-8.2,3.3
	c-2.1,0.1-4.1-1-6.1-0.7c-2.9,0.5-4.2,4.9-2.1,7c1.8,1.8,4.8,1.5,7.4,1.1C59.1,304.7,63.3,304.4,67.6,304.5z"/>
<path class="st0" d="M99.1,288.8c2.2-2.7,5.8-4.4,8.3-6.8c3-2.8,5-2.2,5.8,2c0.6,3.2,0.9,6.6-0.6,9.5c-1.7,2.9-4.7,4.7-8,4.9
	c-1.9,0.3-3.8-0.2-5.2-1.5c-1-1.1-1.5-2.5-1.5-4C97.8,291.5,98.2,290,99.1,288.8z"/>
<path class="st0" d="M28.5,262.9c0.1,1,0.3,1.9,0.6,2.9c0.4,1.4,1.4,2.9,2.8,2.9c1.7,0,2.6-1.9,2.9-3.5c0.3-1.9,0.3-3.9,0.2-5.9
	L34.8,249c0.1-0.9-0.1-1.9-0.6-2.7c-0.7-0.9-1.7-1.5-2.8-1.5c-2.9-0.2-4.3,1.6-4.8,4.4c-0.2,1.7-0.1,3.4,0.2,5
	C27.3,257.1,28,260,28.5,262.9z"/>
<circle class="st9" cx="185.1" cy="136.3" r="10.5"/>
<circle class="st9" cx="172.6" cy="148.4" r="10.5"/>
<circle class="st9" cx="210.3" cy="110.2" r="10.5"/>
<circle class="st9" cx="197.8" cy="122.3" r="10.5"/>
<circle class="st9" cx="233.1" cy="86.5" r="10.5"/>
<circle class="st9" cx="244.7" cy="74.6" r="10.5"/>
<circle class="st9" cx="220.6" cy="98.7" r="10.5"/>
<circle class="st9" cx="160.1" cy="160.6" r="10.5"/>
<circle class="st9" cx="147.5" cy="172.7" r="10.5"/>
<circle class="st9" cx="135" cy="184.8" r="10.5"/>
<circle class="st9" cx="122.4" cy="196.9" r="10.5"/>
<circle class="st9" cx="109.9" cy="209" r="10.5"/>
<circle class="st9" cx="100.5" cy="217.5" r="10.5"/>
<path class="st11" d="M106.2,240.5c31.1-37.9,146-151.5,146-151.5c17-11.8,20.4-28.3,1.5-20.9S102.2,217.9,91.8,225L106.2,240.5z"/>
<path class="st0" d="M101.4,221.7c0.4-2.2,2.1-3.5,3.3-5.2s2-3.6,3.6-4.9c0.6-0.5,1.3-0.8,2-1.1c1.2-0.7,2.6-1,4.1-0.9
	c1.4,0.1,2.6,1.1,3,2.5c0.3,2.4,0.1,4.9-0.7,7.2c-0.4,1.7-1.6,3.1-3.1,3.9c-1.2,0.6-2.5,0.6-3.7,1.1c-1.4,0.5-2.5,1.6-3.9,2.1
	s-3.4-0.1-3.6-1.6C100.9,224.2,101.2,223.3,101.4,221.7z"/>
<path class="st0" d="M176.8,149.9c1.5-2.8,4.5-7.7,8-8.3c2.5-0.5,4.9,0.6,4,3.8s-5.6,6.7-7.7,9.1c-0.9,1-2.1,2.2-3.5,2
	c-1.3-0.4-2.1-1.6-2.1-2.9C175.6,152.2,176,151,176.8,149.9z"/>
<path class="st0" d="M230.6,102.2c1.5-2.8,4.5-7.7,8-8.3c2.5-0.5,4.9,0.6,4,3.8s-5.6,6.7-7.7,9.1c-0.9,1-2.1,2.2-3.5,2
	c-1.3-0.4-2.1-1.6-2-2.9C229.5,104.5,229.9,103.3,230.6,102.2z"/>
<path class="st0" d="M138.4,197.3l-8.6,9.9c-0.7,0.6-1.1,1.5-1.1,2.4c0.4,1.1,1.6,1.7,2.7,1.4c1.1-0.4,2-1.1,2.7-2
	c4.3-4.6,8.9-9,12.9-13.8c0.4-0.4,0.6-1,0.6-1.6c-0.2-0.6-1-0.8-1.7-0.8c-0.6,0-1.2,0-1.8,0.1c-0.4,0-0.7,0.1-1.1,0.3
	c-0.3,0.2-0.5,0.3-0.8,0.6C140.9,194.8,139.6,196,138.4,197.3z"/>
<path class="st0" d="M147.4,176.6c0-1.8,1.6-6.2,2.9-7.5c0.8-0.9,2.2-1.1,3.2-0.5c0.2,0.2,0.4,0.4,0.7,0.5c0.7,0.3,1.4-0.2,2.2-0.3
	c1.1-0.1,2.1,0.6,2.4,1.7c0.7,2.8-2.1,2.9-3.8,3.8c-1.2,0.6-1.9,2-2.7,3.1s-2.2,2.2-3.5,1.6C147.9,178.5,147.3,177.5,147.4,176.6z"
	/>
<path class="st0" d="M198.7,121.7c0-1.8,1.6-6.2,2.9-7.5c0.8-0.9,2.2-1.1,3.2-0.5c0.2,0.2,0.4,0.4,0.7,0.5c0.7,0.3,1.4-0.2,2.2-0.3
	c1.1-0.1,2.1,0.6,2.4,1.7c0.7,2.8-2.1,2.9-3.8,3.8c-1.2,0.6-1.9,2-2.7,3.1s-2.2,2.2-3.5,1.6C199.2,123.6,198.7,122.6,198.7,121.7z"
	/>
<path class="st11" d="M265.8,52c0,0-6.2-36.6,22.6-47c3.3-1.2,7,0.5,8.3,3.9c0.1,0.3,0.2,0.6,0.3,1C299,20.4,298.4,41,265.8,52z"/>
<path class="st12" d="M265.9,51.7c0,0-4.1-24.3,15-31.2c2.2-0.8,4.7,0.3,5.5,2.5c0.1,0.2,0.1,0.4,0.2,0.7
	C288,30.7,287.5,44.4,265.9,51.7z"/>
<path class="st11" d="M246.2,66.9c0,0-33.3-16.4-51.5,8.2c-2.1,2.8-1.5,6.9,1.3,9c0.3,0.2,0.6,0.4,0.9,0.5
	C206.4,89.7,226.3,95,246.2,66.9z"/>
<path class="st12" d="M245.9,67c0,0-22.1-11-34.2,5.4c-1.4,1.9-1,4.6,0.9,6c0.2,0.1,0.4,0.2,0.6,0.4C219.4,82.1,232.7,85.6,245.9,67
	z"/>
<polygon class="st11" points="263.9,48.3 251.6,10.3 244.6,13.1 252.8,49.7 "/>
<circle class="st13" cx="246.5" cy="8.7" r="8.7"/>
<polygon class="st11" points="246.9,62.9 212.4,42.9 216.5,36.6 250.6,52.3 "/>
<circle class="st13" cx="211.8" cy="37.6" r="8.7"/>
<path class="st11" d="M313,88.7c0,0-28.2-70.1-63.9-44.7s4.9,63.9,20.2,80.6L313,88.7z"/>
<ellipse transform="matrix(0.7344 -0.6787 0.6787 0.7344 4.7563 229.4494)" class="st12" cx="295.6" cy="108.6" rx="35.1" ry="24.2"/>
<circle class="st14" cx="277.2" cy="65.9" r="9"/>
<circle class="st15" cx="277.2" cy="65.9" r="6"/>
<circle class="st16" cx="298" cy="99.2" r="4.7"/>
<circle class="st16" cx="285.4" cy="109.2" r="4.7"/>
<circle class="st14" cx="273.1" cy="66.1" r="1.9"/>
<circle class="st14" cx="258.4" cy="82.6" r="9"/>
<circle class="st15" cx="258.4" cy="82.6" r="6"/>
<circle class="st14" cx="254.3" cy="82.8" r="1.9"/>
<path class="st0" d="M243.1,61.9c-6.7-2.9,5.9-16,9.2-16.9s7.1,0.3,4.4,4.2c-1.2,1.7-1.3,4-0.3,5.8c0.5,1,1.4,1.8,1.5,2.9
	c0.2,2-2.1,3.5-4.2,3.6s-4.1-0.6-6.2-0.2C246.1,61.6,244.5,62.5,243.1,61.9z"/>
<path class="st0" d="M276.9,48c0.9,0.9,2.2,1.6,3.3,1.1C287.7,46,269.4,40.4,276.9,48z"/>
<path class="st0" d="M265.3,48.8c-3.5,1.6-7.6-3-6.1-6.4c0.5-1,1.6-1.6,2.7-1.6c2,0,3.7,1.2,5.6,1.8c1.7,0.4,3.3,1.3,4.5,2.7
	c0.1,0.1,0.2,0.3,0.2,0.5c0,0.5-0.6,0.6-1.1,0.7c-1.4,0.1-2.7,0.5-3.9,1.2C266.5,48.1,265.9,48.5,265.3,48.8z"/>
<path class="st0" d="M248.9,91.6c-2.6,3-9.4-3.2-7.1-6.3c1.8-2.4,3,0,3.5,1.5S250.2,90,248.9,91.6z"/>
<path class="st0" d="M236.8,70.3c-0.7,4,1,8.9,4.6,9.8c1,0.3,2.1-0.2,2.4-1.2c0.1-0.2,0.1-0.4,0.1-0.6c0-0.7-0.1-1.4-0.3-2
	c-0.6-2.2-1.4-4.5-0.9-6.8c0.3-1,0.6-2.1,0.7-3.1c0-0.3,0-0.6-0.2-0.9c-0.2-0.2-0.5-0.3-0.8-0.3C239.1,64.8,237.3,67.3,236.8,70.3z"
	/>
<ellipse transform="matrix(0.7851 -0.6194 0.6194 0.7851 -5.5573 214.4907)" class="st16" cx="306.3" cy="115.3" rx="17.4" ry="5"/>
</svg>
