<svg id="Layer_4" data-name="Layer 4" xmlns="http://www.w3.org/2000/svg" xmlns:xlink="http://www.w3.org/1999/xlink" viewBox="0 0 1920 1080">
  <defs>
    <style>
      .cls-1 {
        fill: none;
      }

      .cls-2 {
        fill: #fff;
      }

      .cls-3 {
        fill: #d3b05f;
      }

      .cls-4 {
        fill: #2c2e7a;
      }

      .cls-5 {
        fill: #2fb34c;
      }

      .cls-6 {
        fill: #f16939;
      }

      .cls-7 {
        fill: #dfbc6d;
      }

      .cls-8 {
        fill: #8b683d;
      }

      .cls-9 {
        fill: #c6a459;
      }

      .cls-10 {
        fill: #4c90cd;
      }

      .cls-11 {
        fill: #b8b282;
      }

      .cls-12 {
        fill: #4c3422;
      }

      .cls-13 {
        fill: #cca348;
      }

      .cls-14 {
        clip-path: url(#clip-path);
      }

      .cls-15 {
        fill: #d3b266;
      }

      .cls-16 {
        fill: #040404;
      }

      .cls-17 {
        fill: #fde3ba;
      }

      .cls-18 {
        fill: #600b0c;
      }

      .cls-19 {
        fill: #d42027;
      }

      .cls-20 {
        fill: #4e2a21;
      }
    </style>
    <clipPath id="clip-path">
      <path class="cls-1" d="M739.09,664.53c-2.21,2.74-4.32,5.57-6.48,8.36,1.08,1.82,2.89,2.94,4.32,4.41,4.51,4.61,8.22,9.85,12,15a118.15,118.15,0,0,0,12.17,14.36,28.35,28.35,0,0,1,7.56,12.66c.26.94.16,2.13,1.28,2.69,9.07-9.57,15.66-20.4,14.11-34.1-1.46-13.05-7.84-23.43-20-29.35a20.59,20.59,0,0,0-9-2.15c-6,0-11.72,2.85-15.95,8.08"/>
    </clipPath>
  </defs>
  <title>LittleLion-waving-5</title>
  <g>
    <path class="cls-2" d="M805.32,960s3.38,2.07,16.14-2.73c7.35-2.52,18.57-6.39,26.27.09s.21,18.83-4.69,23.59-28,22.62-33.91,20.59c-5-3.32-11.14-11.15-12.33-14s3.79-27.17,8.52-27.53"/>
    <path class="cls-3" d="M768.19,910.15q-2.57-2.67-5.27-5.19c-4.16-3.86-9.36-8.34-14.24-11.23-5.74-3.39-12,1.82-15.5,6.31a17.28,17.28,0,0,0-3,7.9c-.73,4.41.91,10.07-.81,14.11s-6.48,7.26-8.86,11c-3.8,5.91-5.87,13.66-2.76,20a9.2,9.2,0,0,0,4.08,4.34c3.26,1.55,7.13.29,10.34-1.37s6.39-3.75,10-3.86c7.76-.24,10.78,7.27,15.2,12.07,5.36,5.82,13.5,11.6,20.15,15.87a55.68,55.68,0,0,0,19.34,7.48c1,.21,1.68-.65,2.52-1a13.85,13.85,0,0,0,7.65-6c1.75-3.09,1.68-4-.46-6.75-3.15-4.08-3.33-6.64-.45-11.09,1-1.48.85-2.16-.57-3.27-9.89-7.69-13.3-15.68-19.63-26.16a131,131,0,0,0-17.67-23.06"/>
    <path class="cls-4" d="M847.73,957.32a16.63,16.63,0,0,1,1.11,6.33c-.44,4.72-2.67,8.68-5.41,12.39-8.7,11.77-20.34,19.63-33.74,25.11a5,5,0,0,0-.56.35,21,21,0,0,0,3.73,2.51,1.46,1.46,0,0,0,1.57-.11c12.3-5.7,23.33-13.18,32.4-23.34a25.82,25.82,0,0,0,6.1-10.24c1.45-5.27-.39-10-5.2-13"/>
    <path class="cls-5" d="M820.43,974.17c3.13-4.6,5.85-9.47,6.9-15.11a6.73,6.73,0,0,0,0-2c-.13-1-.6-1.65-1.76-1.11a4.88,4.88,0,0,1-.54.18c-1.19.36-2.61.44-3.53,1.15-1.16.88.15,2.22.06,3.41-.26,3.84-1.94,7.05-4,10.12a20.4,20.4,0,0,1-1.59,2.08,2.06,2.06,0,0,0-.1,2.61c.58.95,1.59.65,2.37.27a17.52,17.52,0,0,0,2.25-1.55"/>
    <path class="cls-6" d="M830,970.87c2.93-4.52,5.71-9.1,5.42-14.84-.07-1.54-.72-2.16-2.24-1.78-.18,0-.37,0-.56.08-3,.5-3,.5-2.93,3.47,0,4.62-1.9,8.6-4.06,12.53-.4.72-1.62,1.54-.64,2.42.81.73,1.89.07,2.8-.36a9.79,9.79,0,0,0,2.21-1.52"/>
    <path class="cls-3" d="M636.4,956c-6.64.69-10.92,1.18-19.91-.67a8.79,8.79,0,0,1-3-.51A135.11,135.11,0,0,1,565.71,931a19.62,19.62,0,0,0-10-4.23c-3.65-.39-7.32-.53-11-.81-7.53-.57-13.69-3.56-18-10a56.37,56.37,0,0,1-6.87-15.53c-.4-1.36.36-1.45,1.25-1.65,6.93-1.58,13.92-2.43,21-1.47,11.13,1.51,20.09,6.62,26.39,16.14,1.67,2.52,2.43,5.53,4.6,7.77A101.26,101.26,0,0,0,598.86,941a68.3,68.3,0,0,0,17.23,6.69s3.14.58,8,1c20.64,1.58,39.68-11.8,44.56-31.91a20.17,20.17,0,0,0,.57-3.2,4,4,0,0,0-.26-1.25l8.15-1.51c0,4.4-2.39,13.3-2.45,13.43-8,19.49-20.75,30-38.28,31.82"/>
    <path class="cls-7" d="M668.1,831.09a41.39,41.39,0,0,0-9.71-3h0A375.73,375.73,0,0,0,585.2,821c-5.17,0-10.36-.28-14.74,3.27a8.93,8.93,0,0,1-2,.91c-3.86,1.8-7.61,3.72-10.48,7.05-3.48,4-8,5.6-13,3.74-4.66-1.72-6.56-5.75-6.88-10.55-.06-.9-.26-1.46-1.27-1.63-7.21-1.16-8.82-7.83-6.64-13.21a3.27,3.27,0,0,0-.34-3.36c-3.55-5.72,1-15.12,7.58-15.42,1.54-.07,1.95-.57,2.21-1.87.67-3.35,2.44-5.89,5.93-6.71a12.32,12.32,0,0,1,9.76,1.62,113,113,0,0,0,15.58,8.41,6.19,6.19,0,0,0,3.51.6,38.26,38.26,0,0,1,8.82,0c20,2.34,39.94,5.41,59.66,9.68,1.29.28,2.57,1,4,.47h0c0,.4.27.38.54.35h0c.34.42.78.27,1.2.2,5.27,2,10.84,2.85,16.17,4.59,5.14,1.69,38.64,13.35,39.14,15.45Z"/>
    <path class="cls-8" d="M550.26,812.82c-1.57-3.56.47-8.53,3.83-9.58,2.52-.79,4.59-2.32,7-3.23,1.63-.61,3.31-1.47,4.86-.11a5.11,5.11,0,0,1,1.66,5.68,18.89,18.89,0,0,0-1,10.95c.54,2.42-1.12,4.14-3,5.3-1.56,1-3.22.25-4.63-.72a47.52,47.52,0,0,1-8.78-8.29"/>
    <path class="cls-8" d="M541.58,818.34c-3.06,1.29-6.12.54-7.14-1.77s.56-5.29,3.31-6.36,6.33.29,7.32,2.56c.89,2-.57,4.33-3.49,5.57"/>
    <path class="cls-8" d="M554.38,791.6c.74,2,1,3.92-.77,5.27s-3.4.66-5-.39a6.52,6.52,0,0,1-3.34-5.46c-.08-2.81,2.07-4.44,4.75-3.52a7.67,7.67,0,0,1,4.35,4.1"/>
    <path class="cls-8" d="M549.38,830.58c-2.5,1.09-4.28.94-5.23-.59a4.36,4.36,0,0,1,.5-5.22,7.2,7.2,0,0,1,4.84-3.26c2.91-.37,4.72,1.68,3.87,4.52a6.38,6.38,0,0,1-4,4.55"/>
    <path class="cls-8" d="M542.77,805.61a6.51,6.51,0,0,1-6.68-1.52c-2.16-2-1.7-4.72.94-5.92a7.67,7.67,0,0,1,7.69,1.31c2.12,2,1.59,4.6-2,6.13"/>
    <path class="cls-9" d="M787.9,745.06c4.46-4.63,8.32-9.88,13.44-13.8a16,16,0,0,0,5.66-7.2c2.08-5.35,4.46-10.55,6-16.1,2.11-7.45,9.08-9.9,15.2-5.54.72.51,1,.44,1.71-.08,5.36-4.08,14.2-.86,15.52,5.72a4.52,4.52,0,0,0,2.51,3.37c5.54,3.24,6.62,8.06,3,13.27-.78,1.12-.31,1.6.28,2.44,3.52,5.06,3.9,12.1-2.88,15.84a11,11,0,0,1-7.2,1.35,21.66,21.66,0,0,0-10.25.75c-4.37,1.45-8.77,2.36-12.8,5.23-37.29,26.6-69.07,57-98.94,91.67-4-1.4-8.07-2.87-11.19-5.71s-5-7.44-3.49-11.37a16,16,0,0,1,4.08-5.29c16.59-16.21,31.67-35.26,49.23-50.32,9.62-8.25,21.11-15,30.09-24.23m37-24.09c-2.39.87-4.86.91-7.23,1.62-1.6.48-3.38.8-3.77,2.74a4.87,4.87,0,0,0,2,5.3,18.21,18.21,0,0,1,7.1,7.8c1,2.17,3.27,2.51,5.37,2.32,1.76-.17,2.6-1.68,3.11-3.25a45.65,45.65,0,0,0,1.88-11.44c-.87-3.63-5.33-6.24-8.5-5.09m22.77-1.26c-.56-2.32-3.51-3.71-6.24-2.92s-4.66,3.9-4.1,6.22c.5,2,3,3,5.91,2.22s5-3.15,4.43-5.52m-26.11-3.88c2,0,3-1.47,3.58-3.21a6.25,6.25,0,0,0-.62-6.11,3.25,3.25,0,0,0-5.68.08,7.34,7.34,0,0,0-.93,5.66c.59,2,1.54,3.56,3.65,3.58M848,735.62a4.19,4.19,0,0,0-3.42-3.7,7,7,0,0,0-5.59.33c-2.44,1.41-2.63,4-.33,5.7a6.09,6.09,0,0,0,5.69,1.16c2.55-.62,3.82-1.77,3.65-3.49m-8.92-24.47c.51-2.76-1.45-4.6-4.16-4a7.38,7.38,0,0,0-5.12,5.48c-.43,2.79,1.47,4.44,5.06,3.55a6.25,6.25,0,0,0,4.22-5.05"/>
    <path class="cls-8" d="M833.35,726.06c-.87-3.63-5.33-6.24-8.5-5.09-2.39.87-4.86.91-7.22,1.61-1.6.48-3.39.81-3.78,2.75a4.87,4.87,0,0,0,2,5.3,18.18,18.18,0,0,1,7.1,7.81c1,2.16,3.27,2.5,5.37,2.31,1.76-.17,2.6-1.68,3.11-3.25a45.65,45.65,0,0,0,1.88-11.44"/>
    <path class="cls-8" d="M817.86,712.25c.59,2,1.54,3.56,3.65,3.58s3-1.47,3.58-3.21a6.23,6.23,0,0,0-.62-6.1c-1.58-2.19-4.17-2.19-5.68.07a7.34,7.34,0,0,0-.93,5.66"/>
    <path class="cls-2" d="M615.56,994.3s-.43,6.14,6.67,20.66c1,3,7.07,17.83-.53,26.9s-24.91-1.42-35.54-12.94-19.07-26.09-16.81-29,11-12.34,16.47-15.62c7.41.08,28.2-4.78,29.74,10"/>
    <path class="cls-4" d="M621.7,1041.86c-6.94,3.28-13.08,1.07-18.9-2.42-15-9-25-22.4-32.51-37.83-.28-.57-.31-1.28-.94-1.73a19.71,19.71,0,0,0-2.61,4.15,1.76,1.76,0,0,0,0,1.82c7.27,13.9,16.34,26.38,28.62,36.31a33.2,33.2,0,0,0,10,5.83c6.1,2.08,11.82.49,15.48-4.29a3,3,0,0,0,.79-1.84"/>
    <path class="cls-5" d="M601.44,1011.64c5.63,3.16,11.28,6.27,17.88,7a6,6,0,0,0,2.34-.26c1-.29,1.31-.81.89-1.75-.06-.13-.11-.27-.16-.4-.52-1.5-.7-3.29-1.66-4.4s-2.72.23-4.17.18c-4.1-.13-7.64-1.76-11.06-3.8a32.9,32.9,0,0,1-3-2,2.31,2.31,0,0,0-3,.14c-.9.69-.61,1.73-.11,2.55s1.35,1.84,2.07,2.81"/>
    <path class="cls-6" d="M606.15,1022.71c4.68,2.67,9.81,5.43,15.94,5.06,2.83-.17,3.08-.59,2.53-3.26-.71-3.46-.71-3.44-4.22-3.27-5.23.26-9.82-1.77-14.38-4-.86-.42-1.82-1.79-2.81-.72s0,2.27.53,3.35a11.87,11.87,0,0,0,2.41,2.83"/>
    <path class="cls-10" d="M609.07,1033c4.25,2.43,8.75,4,13.74,3.23,2-.29,3.6-4.35,2.52-6-.35-.53-.75-.34-1.13-.23-5.14,1.47-9.79-.09-14.33-2.32-.83-.4-1.62-1.1-2.51-.15a2.51,2.51,0,0,0-.24,2.84,6.18,6.18,0,0,0,2,2.6"/>
    <path class="cls-7" d="M662.57,960.9c-1-.8-5.54,1.29-6.63,2-2.83,1.83-5.68,3.63-8.58,5.34a36.3,36.3,0,0,1-6.08,3.18c-4.39,1.56-7.5,4.87-11.09,7.54a38.23,38.23,0,0,0-6,5c-2.65,3.13-5.43,6.15-7.9,9.42-1,1.36-1.65,1.48-3.06.66-3.51-2-7.14-2.69-10.69,0a28.56,28.56,0,0,0-2.74,2.42,3.19,3.19,0,0,1-3.54.87,24.51,24.51,0,0,1-3.4-1.34c-3.67-2-5.65-5.41-7.25-9.09-1-2.19.9-3.59,1.47-5.35.07-.21.15-.41.2-.62,1.92-8.37,6.17-15.57,11.27-22.32.73-1,2.08-3.06,2.6-3.68l3.74-4.44a89.15,89.15,0,0,1,11.44-11.06c5.18-4.17,11.86-8.19,16.25-13.15,0,0,38.47-.63,30,34.57"/>
    <path class="cls-7" d="M633.3,957.12c-.33-8-5.68-12.12-6.52-27.09-1.21-21.49,4.79-33,7.41-49.46s3.35-33.24,5.75-49.77c2.56-17.65,11-30.11,11.4-32.21l88.34-8.24.07.07a124.74,124.74,0,0,1,5.94,17.09c2.8,11.07,7,29.19,11.23,70.27,1.38,13.26-2.92,38.78-5.43,52a46.22,46.22,0,0,1-4.07,12.11,16.22,16.22,0,0,1-1,1.72c-4.21,6.22-10.05,10.37-16.81,13.31a84.48,84.48,0,0,1-23.6,6.17c-1.2.14-2.39.43-3.58.65l-7,.8L689,965c-3.78.06-7.56.57-11.33.47Z"/>
    <path class="cls-11" d="M736.73,805.18c-5.33,5.53-10.85,1.6-17.14,1.59-30.11-.06-44.21,36.41-39.42,61.76,4.13,21.84,10.91,54.39,33.84,64.67,20.88,9.36,36.8-20,39.38-37.2,1.92-12.74-.06-25.7-2-38.42-2.5-16.2-4.48-35.78-12.77-50.16a4.54,4.54,0,0,0-1.86-2.24"/>
    <path class="cls-2" d="M636.67,782.71c.25.45.69.37,1.1.37-.33-.25-.64-.54-1.1-.37"/>
    <path class="cls-2" d="M636.24,782.31c-.06.37.2.4.46.42,0-.35-.16-.45-.46-.42"/>
    <path class="cls-12" d="M622,716.44a2.61,2.61,0,0,1,.27.31l-.27-.31"/>
    <path class="cls-13" d="M732.61,672.89c1.08,1.82,2.89,2.94,4.32,4.41,4.51,4.61,8.21,9.85,12,15a117.26,117.26,0,0,0,12.17,14.36,28.42,28.42,0,0,1,7.56,12.65c.26.95.16,2.14,1.28,2.7,9.07-9.57,15.66-20.4,14.11-34.11-1.47-13-7.84-23.42-20-29.34-9-4.38-18.63-1.89-25,5.93-2.21,2.74-4.32,5.57-6.48,8.36"/>
    <path class="cls-12" d="M766.78,699.9l-.46-.63c.52-.06.44.32.46.63"/>
    <g class="cls-14">
      <path class="cls-8" d="M766.78,699.9c1.39,2.39,3.11,4.6,3.89,7.3,1.81,6.3,1.75,12.3-2.87,17.56-.12.14-.11.38-.17.58v0a.8.8,0,0,0-.78.58l-4.26,3c-3.92-4.1-8.57-7.31-13.05-10.74-4.2-3.2-5.4-7.63-4.68-12.7a5.81,5.81,0,0,0,.19-2.45c.05-.13.1-.26.16-.38l0,0c1.06-.6,1.54-1.72,2.31-2.58,4.06-4.53,8-5.59,13.48-3.77,2,.66,3.48,2.17,5.37,3l0,0,.46.63"/>
      <path class="cls-12" d="M766.34,699.29c-1.89-.8-3.36-2.31-5.37-3-5.49-1.82-9.42-.76-13.48,3.77-.77.86-1.25,2-2.31,2.58a17.05,17.05,0,0,1,7-11.52c4.54-3.35,10.68-4.54,16.91-3.46-5.36,1.1-10.3,1.9-15,4.88,5.18.75,9.55,2.28,12.23,6.72"/>
    </g>
    <path class="cls-12" d="M602.36,744.61c1.19-1.67,1.66-3.73,3-5.34,3.74-4.43,7.63-5.58,13.46-3.84,1.11.33,2.11,1,3.32,1a17.06,17.06,0,0,0-12-6.14c-5.62-.49-11.47,1.71-16.22,5.88,5.14-1.86,9.78-3.76,15.33-3.68-4,3.35-6.94,6.95-6.9,12.13"/>
    <path class="cls-8" d="M602.3,745.36c.07,2.76-.25,5.54.5,8.25,1.75,6.31,5,11.4,11.63,13.47.18.06.3.27.45.41v0a1.75,1.75,0,0,0,1,.09l5.19.33c1.21-5.55,3.49-10.72,5.52-16,1.9-4.93.61-9.33-2.65-13.28a5.67,5.67,0,0,1-1.45-2l-.33-.24h0c-1.21,0-2.21-.66-3.32-1-5.83-1.74-9.72-.58-13.46,3.84-1.36,1.61-1.83,3.67-3,5.34v0c0,.26,0,.52-.07.78"/>
    <path class="cls-15" d="M583.15,761.51c7.23,4.11,15.09,5.72,23.27,6.18a30,30,0,0,0,8.46-.2c-.15-.14-.27-.35-.45-.41-6.68-2.07-9.88-7.15-11.63-13.47-.75-2.71-.43-5.49-.5-8.25a4.54,4.54,0,0,0,.06-.78c0-5.17,2.89-8.76,6.9-12.1-5.55-.08-10.19,1.82-15.33,3.68,4.75-4.17,10.6-6.37,16.22-5.88a17.06,17.06,0,0,1,12,6.14h0l.33.24a5.67,5.67,0,0,0,1.45,2c3.26,4,4.55,8.35,2.65,13.28-2,5.26-4.31,10.43-5.52,16-1.57,7.26,11.3,22.21,17,26.1,8.26,5.63,18.89,7.37,28.59,8.72,13.54,1.88,26.35,3.4,38.39,10.61,8.39,5,19.16,8.41,29.21,6.17,11.72-2.6,23.21-8.34,31.32-17.07,3.09-5.68,7.15-24.46,5.52-35.43-2.77-18.65-.45-26.47-.45-26.47h-.16c.28-2.11.49-4.23.61-6.37,1.54-27.31-21.5-53.86-45.07-65a119.36,119.36,0,0,0-20.87-7.56,5.7,5.7,0,0,1-3.7-2.61,33.34,33.34,0,0,0-12.25-11.57,9.42,9.42,0,0,0-4.4-1.32c1,3,1.93,5.77,1.87,8.75s0,5.92-2,8.86c-.74-3.57-3.07-5.63-5.21-7.83a65.54,65.54,0,0,1-6.08-6.81,17.36,17.36,0,0,1-3.17-7.36,19.43,19.43,0,0,0-3,10.67c0,3.84,1,7.53,1.83,11.24a13.58,13.58,0,0,1,.31,5.35c-.2,1.22-.75,1.33-1.67.68a14.82,14.82,0,0,1-3.81-4.6,30.63,30.63,0,0,0-5.27-6.91,15.78,15.78,0,0,0-4.52-2.94c.39,1,.63,1.66.91,2.31,1.59,3.66,2,7.3,0,11-1.39,2.57-1.2,5.38-.74,8.12a2.49,2.49,0,0,1-1.35,2.86c-11.16,7.38-21.86,15.38-31.16,25.06-2.65,2.75-5.37,5.08-9.1,6.23-4.09,1.26-8.06.83-12-.29-3.8-1.06-7.55-2.47-11.58-2.19-8.45.58-14.34,4.93-17.9,12.55-5.55,11.89-3.05,32.13,12.06,40.72"/>
    <path class="cls-15" d="M602.36,744.61v0h0Z"/>
    <path class="cls-12" d="M664.28,736.41c2.56-6.26,5.1-12.55,12-15.13,6.7-2.5,12.92-.34,19.38,3a21.35,21.35,0,0,0-5.84-6,25.67,25.67,0,0,0-11-5.24c-3.93-.69-7.34.29-9.83,3.5-4.53,5.86-5.42,12.67-4.79,19.86"/>
    <path class="cls-12" d="M730.94,714.37c2.62-5.19,5-10.41,11.12-12.33s11.17.32,16.35,3.23c-2.32-5.1-11.16-10.79-16.36-10.61a7.38,7.38,0,0,0-4.85,1.74c-5.31,4.85-6.3,11.25-6.26,18"/>
    <path class="cls-9" d="M709.72,732.19a30.91,30.91,0,0,0,33.51,12.73,31.65,31.65,0,0,1-15.76,16.58c-7.55-5.77-16.93-18.92-17.75-29.31"/>
    <path class="cls-2" d="M668.4,745.15A18.2,18.2,0,0,1,688.65,727c8.33.93,16.12,10.22,16,19.13-.08,7.72-3.5,12.9-10.45,15.61a25.16,25.16,0,0,1-8.51,1.72c-8,.23-15.74-4-16.86-13.16a20.79,20.79,0,0,1-.47-5.12"/>
    <path class="cls-12" d="M676.34,747.66a14.31,14.31,0,0,1,28.18-5,14.31,14.31,0,1,1-28.18,5m22.24-12.17c-1.94-1.71-4.31-1.33-6.48,1-2.09.39-4.27.39-6.2,1.51A9.12,9.12,0,0,0,682,749.18a9.55,9.55,0,0,0,10,5.61,9.35,9.35,0,0,0,7.7-9.95A2.91,2.91,0,0,0,698.3,742c2.08-2.28,2.18-4.85.28-6.53"/>
    <path class="cls-16" d="M692.1,736.53c-2.09.39-4.27.39-6.2,1.51A9.12,9.12,0,0,0,682,749.18a9.55,9.55,0,0,0,10,5.61,9.35,9.35,0,0,0,7.7-9.95A2.91,2.91,0,0,0,698.3,742c-1.8.82-3.59,1.09-5.2-.36s-1.62-3.24-1-5.13"/>
    <path class="cls-2" d="M692.1,736.53c-.62,1.89-.58,3.69,1,5.13s3.4,1.18,5.2.36c2.08-2.28,2.18-4.85.28-6.53s-4.31-1.33-6.48,1"/>
    <path class="cls-2" d="M746.58,708.53c5.49-2,13,.26,15.8,5a28.7,28.7,0,0,1,4,10.86,12,12,0,0,1-5.3,12.08,18.16,18.16,0,0,1-9.08,3c-6.8.69-14.75-2.36-16.11-11.26-1.69-9.54,2.13-16.53,10.73-19.68"/>
    <path class="cls-12" d="M755.62,736.62A13,13,0,1,1,766,721.43a12.94,12.94,0,0,1-10.35,15.19m5.12-20.52c-1.55-1.57-3.35-1.51-5.65.18-3.72-.75-7.58.89-9,3.82-1.9,3.92-1.25,8.13,1.92,10.6a8.24,8.24,0,0,0,13.34-4.9,10.46,10.46,0,0,0,.19-2.62c0-.64,0-1.48-1-1.46,1.72-2.16,1.8-4,.23-5.62"/>
    <path class="cls-16" d="M755.09,716.27c-3.72-.74-7.58.9-9,3.83-1.9,3.92-1.25,8.13,1.92,10.6a8.24,8.24,0,0,0,13.34-4.9,11,11,0,0,0,.19-2.62c0-.64,0-1.48-1-1.46a4.87,4.87,0,0,1-2.8.77c-3-.43-4.08-3-2.62-6.22"/>
    <path class="cls-2" d="M755.09,716.27c-1.46,3.2-.35,5.79,2.62,6.22a4.87,4.87,0,0,0,2.8-.77c1.72-2.16,1.8-4,.23-5.62s-3.35-1.51-5.65.17"/>
    <path class="cls-17" d="M711.47,810.78c.63,2.08-.19-.95.43,1.13,1.75,3,3.76,5.69,7.11,7.12,7.61,3.23,15.1,2.13,22.52-.82,4.17-1.65,8.24-3.55,12.48-5.05,6.57-2.33,12.14-5.78,14-13,1-5,1.94-5,2.29-10-.38-4.86-.75-9.73-1.15-14.59a46.44,46.44,0,0,0-.83-7,9.26,9.26,0,0,0-.86,3.54c-.23,4-.37,8-.74,11.91-.74,7.81-4.33,14-11.39,17.93a57.55,57.55,0,0,1-21.77,7.06c-11.59,1.28-19.64-3.19-25-13.41-1-1.82-1.73-3.75-3.32-5.18.67,6.11,3.52,11.58,5.15,17.4.28,1,.77,2,1,3.07"/>
    <path class="cls-12" d="M704,787.65a4.19,4.19,0,0,0,2,1.24c11.18,2.93,21.12.39,29.47-7.41a16.76,16.76,0,0,0,4.72-8.43,29.37,29.37,0,0,0,.72-5,18.92,18.92,0,0,1,0-2.27,2.44,2.44,0,0,0-.32-1.67c.2,0,1.17-.42,1.34-.24.69.73.37,3.18.67,3.78a21,21,0,0,0,2.72,4.24c4.64,5.45,12,5.84,17.64,1,2.22-1.9,3.54-4.43,5.15-6.75.63.72-.12,1.54.17,2.28a9.26,9.26,0,0,0-.86,3.54c-.23,4-.37,8-.74,11.91-.74,7.81-4.33,14-11.39,17.93a57.55,57.55,0,0,1-21.77,7.06c-11.59,1.28-19.64-3.19-25-13.41-1-1.82-1.73-3.75-3.32-5.18a4.68,4.68,0,0,1-1.27-2.66m61.47-13,.16-.15-.16.14c-5.35,6.22-16,5.7-22.4-1.33a26.85,26.85,0,0,1-6.21,9.71A30.07,30.07,0,0,1,720,791.74a27.6,27.6,0,0,1-10.91-.62c-.5-.12-1-.41-1.39.14-.24.35,0,.66.19,1,2.56,6,13.48,13.59,20.65,12.52a18,18,0,0,0,7.82-1c6.57-1.9,13.2-3.69,19-7.6,7.77-5.2,10.46-12.69,10.2-21.52"/>
    <path class="cls-17" d="M704,787.65a4.19,4.19,0,0,0,2,1.24c11.18,2.93,21.12.39,29.47-7.41,4.64-4.33,5.48-10.33,5.54-16.35,0-.51.13-1.22-.9-1-7.06,1.47-12.3-1.48-16.61-6.61a.69.69,0,0,0-.19-.1c-2.16,2.6-5.12,4.34-7.47,6.77-5.41,5.57-10.07,11.53-11.46,19.35-.24,1.36-.27,2.75-.4,4.12"/>
    <path class="cls-17" d="M753.47,747.12c-.25,1.34-.4,2.71-.75,4-1.49,5.58-4.71,9.83-10.18,12.18-1.11.48-1.4.86-.92,2a24.28,24.28,0,0,0,3.77,6.55c4.64,5.45,12,5.84,17.64,1,2.22-1.9,3.54-4.43,5.15-6.75l0,.05a.88.88,0,0,1,.22-.91l.06-.12a.53.53,0,0,1,.19-.31,7.77,7.77,0,0,0-2.46-4.92c-4.28-4.24-8.25-8.78-12.7-12.85"/>
    <path class="cls-12" d="M768.38,765.32a.88.88,0,0,0-.22.91c.66-.17.15-.61.22-.91"/>
    <path class="cls-18" d="M765.51,774.68c-5.35,6.22-16,5.7-22.4-1.33a27,27,0,0,1-6.21,9.71A30.13,30.13,0,0,1,720,791.74a27.6,27.6,0,0,1-10.91-.62c-.5-.12-1-.41-1.39.14-.24.35,0,.66.19,1,2.56,6,13.48,13.59,20.65,12.52a12.71,12.71,0,0,1,6.42-3.25,25.32,25.32,0,0,0,11.23-4.2c2.44-1.7,5.84-3,9.13-1.11,7.77-5.2,10.46-12.69,10.2-21.52Z"/>
    <path class="cls-19" d="M755.31,796.21c-3.29-1.86-6.69-.59-9.13,1.11a25.32,25.32,0,0,1-11.23,4.2,12.79,12.79,0,0,0-6.42,3.25,18,18,0,0,0,7.82-1c6.57-1.9,13.2-3.69,19-7.6"/>
    <path class="cls-20" d="M723,755.33c0,2.4,2.22,4.78,4.23,6.12a17.34,17.34,0,0,0,14.91,2.07A19.68,19.68,0,0,0,754,752.59c.63-1.57,1.08-3.55.43-5.11a5.24,5.24,0,0,0-3-3.25,16.46,16.46,0,0,0-5.06-.21c-4.54.18-6.47.81-10.82,2.1-1.07.32-4.61,1.26-5.63,1.73a20.83,20.83,0,0,0-4.06,2.37,6.77,6.77,0,0,0-2.87,5.11"/>
    <path class="cls-8" d="M843.19,725.23c3.09-.8,5-3.15,4.43-5.52s-3.51-3.71-6.24-2.92-4.66,3.9-4.1,6.22c.5,2,3,3,5.91,2.22"/>
    <path class="cls-8" d="M844.36,739.11c2.54-.62,3.82-1.77,3.65-3.49a4.19,4.19,0,0,0-3.42-3.7,7,7,0,0,0-5.59.33c-2.44,1.41-2.63,4-.33,5.7a6.09,6.09,0,0,0,5.69,1.16"/>
    <path class="cls-8" d="M834.87,716.2a6.25,6.25,0,0,0,4.22-5.05c.51-2.76-1.45-4.6-4.16-4a7.38,7.38,0,0,0-5.12,5.48c-.43,2.79,1.47,4.44,5.06,3.55"/>
  </g>
</svg>
