<svg id="Layer_3" data-name="Layer 3" xmlns="http://www.w3.org/2000/svg" viewBox="0 0 595.28 1387.94"><defs><style>.cls-1{fill:#bea05c;}.cls-2{fill:#dfbc6d;}.cls-3{fill:#987647;}.cls-4{fill:#dfbc6c;}.cls-5{fill:#2c2c79;}.cls-6{fill:#fff;}.cls-7{fill:#2db24c;}.cls-8{fill:#f16838;}.cls-9{fill:#4b8fcc;}.cls-10{fill:#b6b081;}.cls-11{fill:#d5b367;}.cls-12{fill:#a56737;}.cls-13{fill:#4c3421;}.cls-14{fill:#030202;}.cls-15{fill:#ffe5bb;}.cls-16{fill:#4e2a21;}.cls-17{fill:#600b0c;}.cls-18{fill:#d42027;}</style></defs><title>LittleLion-jumping_and_landing-2</title><g id="character"><path class="cls-1" d="M50.56,1230.17c-.76,1,.28,4,.28,5.1,0,12.19,3.14,23.38,13.18,30.3,9.31,6.38,20.42,6,31.61,7.61a54.4,54.4,0,0,1,26.8,9.12c4.46,3.34,8.68,9.16,13,12.74A300.1,300.1,0,0,0,162.85,1316c18,11.59,32.93,21.62,58.46,25.44,28.91,4.34,44.28,1.52,60.69-12.26s26.64-32.89,33.13-57.07a11.35,11.35,0,0,0-5.58-13.18,8.37,8.37,0,0,0-10.19,3.47,24,24,0,0,0-2.87,10.31A86.93,86.93,0,0,1,281,1309.5a51.42,51.42,0,0,1-32.45,18.63c-9.2,1.36-19.55,3.59-28.71,2a123.94,123.94,0,0,1-34.93-13.26,111.27,111.27,0,0,1-22.77-16.36A85.26,85.26,0,0,1,137.05,1267a97.29,97.29,0,0,0-10.63-14.86,83.6,83.6,0,0,0-23.9-18.27c-16.56-8.25-30.26-8-48.62-5.74A4.49,4.49,0,0,0,50.56,1230.17Z"/><path class="cls-2" d="M320.78,1277.88s-78,7.6-94.85-66c-10.63-41-.44-98.52.32-105.13s4-37,4-42,3.23-35,10-45.64,22.38-47,71.17-46.87,72.47,38.51,77.77,48.07c15.92,17.68,21,85.73,21.94,106.36s29,124-46.47,142.44C342.41,1279.39,333.61,1277.16,320.78,1277.88Z"/><path class="cls-2" d="M368.85,1029.12S445.14,1066.75,453,1100c-2.19,35.84-13.58,35.28-18.64,40.26,0,0-17.2,17.52,4.58,28.51,5.06,1.39,6.93-.72,8.56,6.09a12.94,12.94,0,0,0,13.82,9c4.34-.76,6.93-2.31,10.71.24a15.24,15.24,0,0,0,17.52-2.43c5.26-5.22,4.35-7.13,4.5-8s-.87-3.47,6.06-4.22a13.19,13.19,0,0,0,8-16.85v0c-1.67-4.46-8.76-19.31-10.35-23.09a63.51,63.51,0,0,1-4.74-19.36c-4.7-78.56-94.1-104-100.27-114.56S334.52,988.82,368.85,1029.12Z"/><path class="cls-3" d="M456.13,1127.63a8.07,8.07,0,0,0-4,2.79,6.65,6.65,0,0,0-1.87,3.19,6.21,6.21,0,0,0,.92,4,34.15,34.15,0,0,0,2.43,3.66l5.33,7.29a13.43,13.43,0,0,0,7.09,6,9.87,9.87,0,0,0,8.6-3.22,36.74,36.74,0,0,0,6.57-10.32c.84-1.75,1.71-3.46,2.43-5.25a8,8,0,0,0,.8-4.22,6.57,6.57,0,0,0-7-4.5,66.67,66.67,0,0,0-8.84,1.83,17.12,17.12,0,0,1-7.09-.32A12.26,12.26,0,0,0,456.13,1127.63Z"/><path class="cls-3" d="M493.45,1161.52a6.38,6.38,0,0,0,7.09-1.23,5.59,5.59,0,0,0,.87-4.94,13.34,13.34,0,0,0-7.8-7.85,5.75,5.75,0,0,0-5.7,1.44,8.91,8.91,0,0,0-1.39,2.75,4.39,4.39,0,0,0-.28,1.19,4.11,4.11,0,0,0,0,1.31A11.53,11.53,0,0,0,493.45,1161.52Z"/><path class="cls-3" d="M477.76,1176.65a4.25,4.25,0,0,0,2-.2,7.61,7.61,0,0,0,5.06-6.33,10.68,10.68,0,0,0-2.51-8,5.38,5.38,0,0,0-4-2.31,4.18,4.18,0,0,0-1.76.52,7.52,7.52,0,0,0-4,6,12.72,12.72,0,0,0,1.63,7.09A5.53,5.53,0,0,0,477.76,1176.65Z"/><path class="cls-3" d="M457.09,1161.12a9.72,9.72,0,0,0-4,6.06,10.85,10.85,0,0,0,.91,7.32,5.68,5.68,0,0,0,1.64,1.87,4.55,4.55,0,0,0,4.3,0,9.14,9.14,0,0,0,3.38-2.82,12.47,12.47,0,0,0,2.87-6.49,8,8,0,0,0-2.31-6.57,4.06,4.06,0,0,0-1.67-1,4.9,4.9,0,0,0-1.87,0A9.22,9.22,0,0,0,457.09,1161.12Z"/><path class="cls-3" d="M437.06,1151.05a8.23,8.23,0,0,0-1.75,4.5,4.89,4.89,0,0,0,1.91,4.3,7.07,7.07,0,0,0,4,1,3.73,3.73,0,0,0,1.56,0,4.55,4.55,0,0,0,1.47-.75,12,12,0,0,0,5.77-9.64,4.73,4.73,0,0,0-1.35-3.22,5.14,5.14,0,0,0-4.46-.76A11.93,11.93,0,0,0,437.06,1151.05Z"/><path class="cls-2" d="M265,1033s-76.29,37.59-84.18,70.92c2.19,36,13.58,35.28,18.64,40.26,0,0,17.2,17.52-4.58,28.51-5.06,1.4-6.93-.76-8.56,6a12.9,12.9,0,0,1-13.82,9c-4.34-.79-6.93-2.31-10.71,0a15.15,15.15,0,0,1-17.52-2.39c-5.26-5.21-4.34-7.12-4.5-8s.87-3.46-6.06-4.22a13.18,13.18,0,0,1-8-16.85v0c1.67-4.5,8.76-19.32,10.35-23.14a63.73,63.73,0,0,0,4.78-19.35c5-78.33,94.1-103.74,100.55-114.33S299.32,992.68,265,1033Z"/><path class="cls-3" d="M177.71,1131.5a8,8,0,0,1,4,2.74,6.86,6.86,0,0,1,1.87,3.23,6.19,6.19,0,0,1-.92,4,35.31,35.31,0,0,1-2.43,3.67l-5.33,7.28a13.21,13.21,0,0,1-7.09,5.94,9.69,9.69,0,0,1-8.6-3.23,36.49,36.49,0,0,1-6.57-10.27c-.84-1.76-1.71-3.51-2.43-5.3a7.42,7.42,0,0,1-.76-4.22,6.49,6.49,0,0,1,6.93-4.46,68,68,0,0,1,8.84,1.83,17.12,17.12,0,0,0,7.09-.32A12.4,12.4,0,0,1,177.71,1131.5Z"/><path class="cls-3" d="M140.39,1165.38a6.46,6.46,0,0,1-7.09-1.23,5.42,5.42,0,0,1-.83-4.94,10.93,10.93,0,0,1,2.67-4.42,11.37,11.37,0,0,1,5.09-3.42,5.63,5.63,0,0,1,5.7,1.43,7.94,7.94,0,0,1,1.39,2.75,3.29,3.29,0,0,1,.28,1.19,4,4,0,0,1-.2,1.32A11.54,11.54,0,0,1,140.39,1165.38Z"/><path class="cls-3" d="M156.08,1180.52a4.51,4.51,0,0,1-2-.2A7.62,7.62,0,0,1,149,1174a10.79,10.79,0,0,1,2.51-8,5.41,5.41,0,0,1,4-2.31,4.31,4.31,0,0,1,1.71.52,7.53,7.53,0,0,1,4,6,12.72,12.72,0,0,1-1.63,7.09A5.69,5.69,0,0,1,156.08,1180.52Z"/><path class="cls-3" d="M176.75,1165.11a9.68,9.68,0,0,1,4,6.05,10.89,10.89,0,0,1-.91,7.33,5,5,0,0,1-1.64,1.87,4.61,4.61,0,0,1-4.3,0,9.27,9.27,0,0,1-3.38-2.83,12.66,12.66,0,0,1-2.87-6.49,8,8,0,0,1,2.31-6.57,4.06,4.06,0,0,1,1.67-1,4.22,4.22,0,0,1,1.87,0A9.24,9.24,0,0,1,176.75,1165.11Z"/><path class="cls-3" d="M196.78,1154.87a8.67,8.67,0,0,1,1.79,4.54,5.09,5.09,0,0,1-1.95,4.3,7.32,7.32,0,0,1-4,1,5,5,0,0,1-1.55,0,5.58,5.58,0,0,1-1.48-.8,11.69,11.69,0,0,1-5.77-9.6,4.74,4.74,0,0,1,1.35-3.22,5.16,5.16,0,0,1,4.46-.88A12.26,12.26,0,0,1,196.78,1154.87Z"/><path class="cls-4" d="M205.58,1343.11c22.06,3,30.9-3.43,33.37-20.63s-12.15-54.76,33.17-61.49c15-1.91,41.06-13.53,35.84-45.43s-24.85-31.86-30.5-31.62a56.32,56.32,0,0,0-21.9,4.66c-5.7,2.63-41.1,19.43-54.88,38.63C183.52,1251.12,175.75,1339,205.58,1343.11Z"/><path class="cls-5" d="M239.75,1369.79a169.49,169.49,0,0,1-63.52,8,104.44,104.44,0,0,1-34.36-7.37,30.32,30.32,0,0,1-19.56-19.91,21.59,21.59,0,0,0,3.75,23,39.43,39.43,0,0,0,21.82,11.31,160.75,160.75,0,0,0,39.82,3,224.15,224.15,0,0,0,47.79-7.65,2.89,2.89,0,0,0,2.62-2.43A43.27,43.27,0,0,0,239.75,1369.79Z"/><path id="Foot_L" data-name="Foot L" class="cls-6" d="M239.75,1369.79s8-26.13-1.56-43a13.38,13.38,0,0,1-14.21,7.37c-11-1-13.82-6-13.82-6s-2.15-2-1.39-8.92a15.2,15.2,0,0,0-5.26-11.94S192.08,1301,187,1300.7l-2.51-2s-13.85,7.08-19.51,16.16c0,0-23.89,11.11-30.22,16.89s-10.91,6.41-12.51,18.51c0,0,3,19.12,33.73,25S215.46,1379.5,239.75,1369.79Z"/><path class="cls-7" d="M184.79,1340.32a24.11,24.11,0,0,0,7.77,0c1.91-.4,4-1.12,3.7-3.55a4,4,0,0,0-3.7-4,60.57,60.57,0,0,1-14.85-4.82A23.66,23.66,0,0,1,165,1316.43c-.52-1.24-1.11-1.36-2.27-.84-2.63,1.23-5.25,2.43-8,3.42-1.83.72-2.07,1.76-1.28,3.35a13.31,13.31,0,0,0,4,4.58A93.3,93.3,0,0,0,184.79,1340.32Z"/><path class="cls-8" d="M165.76,1347.84a18,18,0,0,0,10.75-1.11c1-.48,2-1.08,2.11-2.39s-1.31-1.59-2.27-1.95a88.31,88.31,0,0,1-15.93-7.33,32.86,32.86,0,0,1-11.15-10.75c-.91-1.55-1.75-1.63-3.1-.76a20,20,0,0,1-2.07,1c-6.89,4-7.53,4-1.6,10.39S157.32,1344.9,165.76,1347.84Z"/><path class="cls-9" d="M148.6,1356.25a9.86,9.86,0,0,0,8.6-1.52c2.35-1.87,2-4-.76-5.29s-5.53-2.35-8.2-3.67A27.8,27.8,0,0,1,135.1,1333c-.84-1.71-1.64-1.67-3-.68-5.49,4-6.13,8-1.63,12.67A39.83,39.83,0,0,0,148.6,1356.25Z"/><path class="cls-4" d="M459.8,1343.11c-22.1,3-30.9-3.43-33.41-20.63s11.94-54.76-33.17-61.49c-15-1.91-41.06-13.53-35.84-45.43s24.81-31.86,30.46-31.62a56.37,56.37,0,0,1,21.94,4.66c5.66,2.63,44.44,25.49,54.88,38.63C483.61,1251.12,489.58,1339,459.8,1343.11Z"/><path class="cls-5" d="M425.59,1369.79a169.49,169.49,0,0,0,63.72,8,104.26,104.26,0,0,0,34.4-7.49,30.34,30.34,0,0,0,19.59-19.91,21.58,21.58,0,0,1-4,23,39.44,39.44,0,0,1-21.78,11.31,160.78,160.78,0,0,1-39.82,3,224.15,224.15,0,0,1-47.79-7.65,3,3,0,0,1-2.63-2.43A49.08,49.08,0,0,1,425.59,1369.79Z"/><path id="Foot_L-2" data-name="Foot L-2" class="cls-6" d="M425.59,1369.79s-8-26.13,1.56-43a13.42,13.42,0,0,0,14.25,7.37c11-1,13.78-6,13.78-6s2.15-2,1.39-8.92a15.2,15.2,0,0,1,5.26-11.94s11.43-6.33,16.53-6.61l2.46-2s13.9,7.08,19.56,16.16c0,0,23.89,11.11,30.18,16.89s10.91,6.41,12.54,18.51c0,0-3.06,19.12-33.76,25S449.88,1379.5,425.59,1369.79Z"/><path class="cls-7" d="M480.55,1340.32a24.23,24.23,0,0,1-8,0c-1.91-.4-4-1.12-3.7-3.55a4,4,0,0,1,3.7-4,60.57,60.57,0,0,0,14.85-4.82,23.65,23.65,0,0,0,12.83-11.54c.51-1.24,1.11-1.36,2.27-.84,2.62,1.23,5.25,2.43,8,3.42,1.83.72,2.07,1.76,1.28,3.35a13.72,13.72,0,0,1-4,4.58A94,94,0,0,1,480.55,1340.32Z"/><path class="cls-8" d="M499.74,1347.84a18,18,0,0,1-10.75-1.11c-1-.48-2-1.08-2.07-2.39s1.31-1.59,2.23-1.95a88.31,88.31,0,0,0,15.93-7.33,32.5,32.5,0,0,0,11.11-10.67c.95-1.55,1.75-1.63,3.1-.76a20,20,0,0,0,2.07,1c6.89,4,7.53,4,1.63,10.39S508.22,1344.9,499.74,1347.84Z"/><path class="cls-9" d="M516.74,1356.25a9.77,9.77,0,0,1-8.56-1.52c-2.35-1.87-2-4,.76-5.29s5.49-2.35,8-3.67A27.8,27.8,0,0,0,530,1333c.88-1.71,1.64-1.67,3-.68,5.45,4,6.09,8,1.63,12.67A40.08,40.08,0,0,1,516.74,1356.25Z"/><path class="cls-10" d="M252.77,1157.86s-17.6-56.47-2.27-87.21,35.24-46.71,65.86-46.67,57.78,7.33,68.42,33c17,36.4.91,104.77-8,128.19s-19.15,50.61-54.43,52.6S261.33,1218.31,252.77,1157.86Z"/><path class="cls-11" d="M269.29,1020.59a374.88,374.88,0,0,1-37.63-25.92,154.67,154.67,0,0,0-22.1-13.7,53.94,53.94,0,0,1-28.47-38.86c0-.36-.48-.68-.76-1-.47-4-1.07-8-1.43-11.94a106.63,106.63,0,0,1,1.15-22.86c.4-.2,1-.28,1.16-.6a127.5,127.5,0,0,1,14.34-17.76,17.06,17.06,0,0,0,4.22-14.18,74.2,74.2,0,0,0-2.15-8.16c0-.36,0-.8-.56-.64h0c.32-1.51-.76-2.51-1.47-3.58a27.37,27.37,0,0,0-29-12c-4.86,1.12-4.86,1.12-6.3,2.19A54.32,54.32,0,0,1,182,854.1a22.29,22.29,0,0,0-15.14,12.35h0c-.63.28-.59.83-.55,1.39-4.94,10.87-5.5,21.42,2.35,31.34a1.43,1.43,0,0,1,.35,1.51,43,43,0,0,1-22.37-21.9c-7.53-16.92-5.22-33.53,4-49.14,5.21-8.84,15.41-11.94,27.16-9.28a33.66,33.66,0,0,1,12.18,5.14,36.82,36.82,0,0,0,22.58,5.77,6.58,6.58,0,0,0,4-2.11,175.84,175.84,0,0,1,59.1-32.25,8.26,8.26,0,0,0,6.77-6.65,42.2,42.2,0,0,1,12.54-20.91c.8-.71,1.75-1.83,2.83-1.47s.51,1.91.63,2.91a36.36,36.36,0,0,0,8,19.07c.63.72,1.27,1.59,2.43,1.51a.66.66,0,0,0,0,.28h0l.36-.2a55.9,55.9,0,0,1,2.19-19A91.06,91.06,0,0,0,314.45,755a32.6,32.6,0,0,1,8,12.46c2.42,6.13,4.38,12.47,6.57,18.68a22.45,22.45,0,0,0,2.43,4.94c.51.83,1.11,2,2.15,1.87s1.71-1.36,2.11-2.35a23.62,23.62,0,0,0,1.31-6.81,32.82,32.82,0,0,1,2.95-12.59,10,10,0,0,1,4-4.77h0a75.34,75.34,0,0,0,.28,8,12.9,12.9,0,0,0,4,8.68,18.12,18.12,0,0,1,5.14,11.07,4,4,0,0,0,3.3,4A321.09,321.09,0,0,1,430.21,829a21.88,21.88,0,0,0,21.07.36,95.52,95.52,0,0,0,12.22-8,26,26,0,0,1,39.42,13.7c7.41,22.1.76,41.41-19.91,56.15a60.22,60.22,0,0,1-15.61,8.8,30.26,30.26,0,0,0,5.94-21.23c-.32-3.74-2.07-7.05-2.63-10.63l-.48-.56h0A22.08,22.08,0,0,0,455,854a58.08,58.08,0,0,1,21.86-2.15,28,28,0,0,0-9.87-2.59,26.53,26.53,0,0,0-27.64,15.93,19.92,19.92,0,0,0,3.82,25.13c2.27,2.27,4,4.94,6.25,7.33s3.63,6.09,6.22,8.6a66.15,66.15,0,0,1,.55,25.16,69,69,0,0,1-11.94,25A78,78,0,0,1,416,980.53,133.24,133.24,0,0,0,385.41,1002a125.45,125.45,0,0,1-20.15,16.32c-.12,19.76-14.85,35-45.79,35.29C282.55,1053.92,272.56,1040.51,269.29,1020.59ZM385.33,878a44,44,0,0,0-5.61.67A30,30,0,0,0,357.42,908a31.85,31.85,0,0,0,41.13,31.5c10.72-3,18.84-9.28,21-20.59a33.81,33.81,0,0,0-25.9-40.19A33.43,33.43,0,0,0,385.33,878ZM246,938.48c14.93.24,33-11.62,29.23-32.65a34.28,34.28,0,0,0-16.53-24.65c-11.55-6.81-25.6-4-36.24,7.09a27.28,27.28,0,0,0-9,23.41,31.12,31.12,0,0,0,32.41,26.8Z"/><path class="cls-12" d="M168.91,900.85a1.45,1.45,0,0,0-.4-1.55c-8-10.12-7.45-20.87-2.39-31.86a1.49,1.49,0,0,0,.56-1.39h0c1.59,0,2.23-1.47,3.14-2.39a17,17,0,0,1,24.05-1.59l.44.39c1,.8,1.67,1.88,3.07,2h0l.59.63a72.8,72.8,0,0,1,2.31,8.45A17.36,17.36,0,0,1,196,888a133.2,133.2,0,0,0-14.65,18.16c0,.32-.76.4-1.16.6a51,51,0,0,1-10.43-5.18c0-.52-.24-.8-.8-.68Z"/><path class="cls-12" d="M472.1,868.88c.44,3.78,2.07,7.24,2.23,11.15a31.08,31.08,0,0,1-7.12,21.7h0l-.88.48a30.3,30.3,0,0,1-11.95,5.65c-2.59-2.67-3.74-6.29-6.05-9.16s-4-5.45-6.13-8a20.78,20.78,0,0,1-2.51-26.4,19.51,19.51,0,0,0,5.14-3.27,17.29,17.29,0,0,1,22.06,2.19c1.63,1.55,3.1,3.35,4.62,5h0Z"/><path class="cls-6" d="M385.33,878a33.81,33.81,0,0,1,34.25,40.93c-2.19,11.31-10.31,17.6-21,20.59A31.86,31.86,0,0,1,357.42,908a30,30,0,0,1,22.3-29.35A44,44,0,0,1,385.33,878Zm-21.42,32.29a25.45,25.45,0,1,0,24.87-26A25.46,25.46,0,0,0,363.91,910.25Z"/><path class="cls-6" d="M245.8,938.48a31.13,31.13,0,0,1-32.57-26.8,27.26,27.26,0,0,1,9-23.41c10.63-11.07,24.68-13.9,36.23-7.09A34.25,34.25,0,0,1,275,905.83C278.85,926.86,260.73,938.72,245.8,938.48Zm-.4-4.62a25.15,25.15,0,0,0,24.66-25.66c0-.14,0-.28,0-.42a25.44,25.44,0,1,0-24.79,26.09Z"/><path class="cls-13" d="M412.41,877.88C394,859,376.57,862.82,362.28,880.22c-.56-.75,0-1.47,0-2a41.94,41.94,0,0,1,13.38-20.3,15.65,15.65,0,0,1,19.43-2A39.79,39.79,0,0,1,412.41,877.88Z"/><path class="cls-13" d="M270.13,878.63c-7.17-7.29-14.1-14.21-25-14s-17.92,6.09-24.81,13.14a2.36,2.36,0,0,1,0-2.19A42.94,42.94,0,0,1,235,856.09a16.14,16.14,0,0,1,19.91-.24A40.8,40.8,0,0,1,270.13,878.63Z"/><path class="cls-13" d="M197.62,865.37c-1.44,0-2.19-1.15-3.19-2a17.56,17.56,0,0,0-24.82.87l-.51.56c-.95,1-1.59,2.39-3.22,2.43a23.53,23.53,0,0,1,15.93-13.22A57.47,57.47,0,0,0,159,851.63c1.55-1.27,1.55-1.27,6.53-2.31a28.87,28.87,0,0,1,30.66,12.31C196.78,862.74,197.89,863.78,197.62,865.37Z"/><path class="cls-13" d="M471.7,868.36c-1.51-1.67-3-3.47-4.61-5A17.3,17.3,0,0,0,445,861.15a19.55,19.55,0,0,1-5.13,3.27A27.33,27.33,0,0,1,469.2,849.2a28.79,28.79,0,0,1,10.11,3.11,59.86,59.86,0,0,0-22.74,1.23A22.9,22.9,0,0,1,471.7,868.36Z"/><path class="cls-6" d="M307,791.5l.36.2h0v-.28Z"/><path class="cls-13" d="M196.14,866.45l-.59-.68C196.14,865.77,196.1,866.21,196.14,866.45Z"/><path class="cls-13" d="M363.91,910.25A25.44,25.44,0,1,1,390.06,935h-.15A25.41,25.41,0,0,1,363.91,910.25Zm41.49-4c3.23-4.38,3.23-8.28,0-11.19s-7-2.47-10.87,1a1.6,1.6,0,0,0-1.23-1.35,14,14,0,0,0-9.08.6,16.29,16.29,0,0,0-9.84,20.23A16.49,16.49,0,0,0,395,925.66C403,922.59,406.52,916.34,405.4,906.27Z"/><path class="cls-13" d="M245.4,933.86a25.44,25.44,0,1,1,24.65-26.22v.14a25.36,25.36,0,0,1-24.63,26.08Zm-16.25-27.07a2.15,2.15,0,0,0-.63,1.79,15.93,15.93,0,0,0,15.16,16.66,15.42,15.42,0,0,0,3-.14,15.93,15.93,0,1,0-6.21-31.24,15.52,15.52,0,0,0-2.48.7c-4.81-2.15-8.28-1.55-10.63,1.83a7.73,7.73,0,0,0,1.64,10.4Z"/><path class="cls-14" d="M405.4,906.27c1.12,10.19-2.39,16.44-10.47,19.39a16.49,16.49,0,0,1-20.59-10.11,16.29,16.29,0,0,1,9.84-20.23,14,14,0,0,1,9.08-.6,1.6,1.6,0,0,1,1.23,1.35,11.11,11.11,0,0,0-1.31,3.71,7.26,7.26,0,0,0,3.22,6.85A8,8,0,0,0,405.4,906.27Z"/><path class="cls-6" d="M405.4,906.27a8,8,0,0,1-9,.36,7.26,7.26,0,0,1-3.22-6.85,11.11,11.11,0,0,1,1.31-3.71c4-3.46,7.73-4,10.87-1S408.67,901.77,405.4,906.27Z"/><path class="cls-14" d="M237.76,894.56a15.93,15.93,0,0,1,11.16,29.84,15.52,15.52,0,0,1-2.48.7,15.93,15.93,0,0,1-18-13.56,16.27,16.27,0,0,1-.13-3,2.13,2.13,0,0,1,.64-1.79,9.08,9.08,0,0,0,6,.91,7.57,7.57,0,0,0,2.75-13.14Z"/><path class="cls-6" d="M237.76,894.56A7.57,7.57,0,0,1,235,907.7a9.08,9.08,0,0,1-6-.91,7.73,7.73,0,0,1-1.84-10.4C229.47,893,232.94,892.41,237.76,894.56Z"/><path class="cls-15" d="M356.62,1041.66A31.87,31.87,0,0,1,343,1050a82.53,82.53,0,0,1-13.62,3.15,111.12,111.12,0,0,1-16.72.48,92.89,92.89,0,0,1-17.92-1.76,30.57,30.57,0,0,1-15.61-8.48,41.81,41.81,0,0,1-8.32-17.24,229.42,229.42,0,0,1-7.49-37.71,28.52,28.52,0,0,1,0-7.61,29.54,29.54,0,0,1,3-8,87.91,87.91,0,0,1,5-9.28,48.89,48.89,0,0,1,28.28-20.23,55.7,55.7,0,0,1,34.88,2.51,43.24,43.24,0,0,1,7.05,3.5,59,59,0,0,1,7.37,5.62c10.91,9.76,19.91,23,19.91,37.63a67.22,67.22,0,0,1-.56,7.49,167.15,167.15,0,0,1-2,17.84C364.19,1026.93,361.64,1036.4,356.62,1041.66Z"/><path class="cls-16" d="M342.64,949.79a15.4,15.4,0,0,1-4,12.67A30.09,30.09,0,0,1,314.77,974,34.33,34.33,0,0,1,289.2,961.7a12.73,12.73,0,0,1-3.42-8.48,9.5,9.5,0,0,1,3.42-7.13,28.09,28.09,0,0,1,8.37-3.07,62.2,62.2,0,0,1,19.15-2.19c1.95,0,8.4-.32,10.31,0a34.62,34.62,0,0,1,8,1.87A11.92,11.92,0,0,1,342.64,949.79Z"/><path id="_2" data-name=" 2" class="cls-17" d="M263.8,984.76s5.73,11.3,25.17,9.91,26.95-8.76,28.11-20.71c0,0,.52,20.51,25.33,22.38,0,0,17-1.11,25.32-11.31,0,0,1.59,1.12-.64,5.18-3.74,4.42-9.55,38.63-31.85,44.8s-37.63.32-43.81-3.27a43.08,43.08,0,0,1-18.31-23.89c-4-12.54-6.65-18.67-8.8-20.63S263.8,984.76,263.8,984.76Z"/><path class="cls-18" d="M294,1028.16a10,10,0,0,1,5.66-4.38,28.81,28.81,0,0,1,7.21-1.11,14,14,0,0,1,6.53,1,10.77,10.77,0,0,0,4,1.75c3,.32,4-1.39,7.44-1.95a22.66,22.66,0,0,1,14.7,2.83,6.42,6.42,0,0,1,1.43,1.27c1.12,1.52,0,2.19-1,3.75s-3.39,1.07-4.74,2.39-2.51,0-3.63.67a12.66,12.66,0,0,1-5.57,2,37.15,37.15,0,0,1-18.92-1.71C300.91,1032.34,297.49,1033.7,294,1028.16Z"/><path class="cls-16" d="M367.61,985.19c-8.36,10.2-25.32,11.31-25.32,11.31C317.48,994.63,317.08,974,317.08,974c-1,11.95-8.56,19.16-27.88,20.55S264,984.6,264,984.6s-1.87.51.32,2.43,4.89,8,8.8,20.62a43.13,43.13,0,0,0,18.31,23.9c6.1,3.58,21.27,9.47,43.81,3.26s28.27-40.38,31.85-44.8C369.21,986.31,367.61,985.19,367.61,985.19Zm-26,40.54c-12.78,8-37,5.78-44.16,2.23s-20.31-8.64-26.88-32.61a40.4,40.4,0,0,0,21.74,5.45c10.87-1.15,20.47-5.21,24.13-13.42,0,0,9,12.31,21.82,13a36.87,36.87,0,0,0,26.64-8S354.39,1017.49,341.61,1025.73Z"/></g></svg>