<svg id="Layer_6" data-name="Layer 6" xmlns="http://www.w3.org/2000/svg" viewBox="0 0 445 627.66">
  <defs>
    <style>
      .cls-1 {
        fill: #d3af5d;
      }

      .cls-2 {
        fill: #010084;
      }

      .cls-3 {
        fill: #fff;
      }

      .cls-4 {
        fill: #0798ff;
      }

      .cls-5 {
        fill: #f86531;
      }

      .cls-6 {
        fill: #06b800;
      }

      .cls-7 {
        fill: #e1bd6c;
      }

      .cls-8 {
        fill: #a56636;
      }

      .cls-9 {
        fill: #49301d;
      }

      .cls-10 {
        fill: #620000;
      }

      .cls-11 {
        fill: #ffe6bc;
      }

      .cls-12 {
        fill: #4e2921;
      }

      .cls-13 {
        fill: #b8b182;
      }

      .cls-14 {
        fill: #492b19;
      }

      .cls-15 {
        fill: #221f1f;
      }

      .cls-16 {
        fill: #987647;
      }
    </style>
  </defs>
  <title>LittleLion-running_on_the_spot-1</title>
  <g>
    <path class="cls-1" d="M1360.15,639.87s-55.82,48.83-62.8,52.74c0,0-17.86,5-22.88,6.7a42.65,42.65,0,0,1-7.53,2s-24.56-3.36-28.19,14.64,10,18.92,10,18.92-9.21,7.46-5.86,18.06c0,0,5.3,11.72,15.07,10.05,0,0-5.31,10.32,8.09,15.62s19,3.07,21.77-2.79c0,0,1.39-.55,2.79,1.68s15.75,9.21,23.36-3.07,7.61-26.51,7.61-26.51,8.66-15.45,8.1-23.63c0,0,8.65-.93,26.79-21l20.09-44.1Z" transform="translate(-1232.77 -361.61)"/>
    <path class="cls-1" d="M1364.54,801a153.82,153.82,0,0,0-18.83,55.19l-27.46,49.5a117.7,117.7,0,0,0,47.51,20.55l9.18-7.77s26.92-16.79,43.52-66.34c0,0,5.42-25.79-19.09-44.76S1364.54,801,1364.54,801Z" transform="translate(-1232.77 -361.61)"/>
    <g>
      <path class="cls-2" d="M1251.76,904.87s-8.44,9.11-3.18,20.16,22.51,25.41,47,32.09,49.08,11.57,56.33,10.2,7.66-3.8,9-9.16l-43.12-21.46-47.25-10.4Z" transform="translate(-1232.77 -361.61)"/>
      <g>
        <path class="cls-3" d="M1306,882.51s13.21-16,27.94-3.41,12.53,18,10,25.72,7.92,17.32,18.21,16.14,12.81-2.54,12.81-2.54-4.06,21.34-14,39.74c0,0-23,4-64.53-10.6s-45.82-33.56-44.65-42.69,16.48-15.16,24.15-16.58S1296,882,1306,882.51Z" transform="translate(-1232.77 -361.61)"/>
        <path class="cls-4" d="M1271.17,889.49s-.69,9.47,8.25,17.86,9.47,9.44,4.65,12.29-12-2.3-17.68-12.22-3.92-14.33-3.92-14.33.38-1.34,2.92-2.63S1270.49,888.84,1271.17,889.49Z" transform="translate(-1232.77 -361.61)"/>
        <path class="cls-5" d="M1286.05,885.17s.27,9.79,11.61,18.83,12.08,10.15,6.8,12.91-14.19-2.85-21.92-13.35-6.18-15-6.18-15,.29-1.37,3.09-2.61S1285.19,884.48,1286.05,885.17Z" transform="translate(-1232.77 -361.61)"/>
        <path class="cls-6" d="M1303.75,882.38s1,9.86,13.56,18.63,13.42,9.87,8.08,12.81-15.09-2.45-24-12.8-9.93-16.73-9.93-16.73.84-.95,4.63-2C1299.18,881.45,1302.79,881.71,1303.75,882.38Z" transform="translate(-1232.77 -361.61)"/>
      </g>
    </g>
    <g>
      <path class="cls-7" d="M1240.32,510.77s26.06-19.1,44.1-29.93,23.33-22.72,25.76-33.28,4.41-30.36,31-43.07c0,0,10.73-28,18.64-32.07,0,0-4,17.61,3.48,27,0,0,15.48-20.83,15.26-37.85,0,0,9.69,8.08,8.54,23.64s4.49,16.43,4.49,16.43,6-22.16,15.26-25.43a18.89,18.89,0,0,0-.49,17c4.35,9,13.74,15.27,26,19.17s23.8,22.66,26.84,28.06c0,0,41-29.07,68.09-1.36s27,98.59-49.14,98.78c0,0-55.72,81.1-140.21,77.74,0,0,6.89-26.27,3.16-44.33s-24.54-34.25-28.25-36.72-24.25-11.57-37.05-10C1275.84,524.55,1221.08,524.43,1240.32,510.77Z" transform="translate(-1232.77 -361.61)"/>
      <path class="cls-8" d="M1466.29,474.71s-5.06,11.67,2.2,22.27,9,14.91,8.77,23.88c0,0,27.29,4.1,32.93-27.88s-19.87-32.24-27-32C1483.23,461,1473.14,460.55,1466.29,474.71Z" transform="translate(-1232.77 -361.61)"/>
      <path class="cls-9" d="M1465.78,476.14s3.68-33.6,41.47-29c0,0-14.86-.78-25.1,10.27,0,0,16.33-1.13,24.46,12.07,0,0-7.73-11.7-26-8.15C1480.6,461.36,1471.85,462.41,1465.78,476.14Z" transform="translate(-1232.77 -361.61)"/>
      <path class="cls-9" d="M1318.5,453.82s15.65-14.25,29.75-11.46,21.81,18.25,21.81,18.25,0-24.45-19.68-30.69S1318.5,453.82,1318.5,453.82Z" transform="translate(-1232.77 -361.61)"/>
      <path class="cls-10" d="M1304.74,563.18a45.56,45.56,0,0,1,1.61,30.53s20.11-13.13,16.53-36.63Z" transform="translate(-1232.77 -361.61)"/>
      <path class="cls-11" d="M1236.07,521.28l48.65-1.51,45.8,21.94,18.58,44.48L1338,615.64s-3,18-30,19.35-35.81-12-38-23.07l-3-5.4,9.68-.87,21.23-5.07,15.78-12.48,8-15,1.23-16-20.54,6.42-28,4.48-25.93-6.29-10.62-16.85-3.25-10.37Z" transform="translate(-1232.77 -361.61)"/>
      <path class="cls-12" d="M1233,527.1s-2.39-15.42,8.21-14.41c0,0,4.44,1.78,10,4.3s6.83.67,11.57.33,10.27-4.09,13.64,2.22-3.34,17.69-15.43,19-23.31-3-24-2.11,5.8,17.42,17,25.06,50.55,1.92,70-7.69c0,0,3.55,8.14-2.07,23.1s-17.39,29.51-53.78,29.65c0,0,52.86-6,53.55-46.67,0,0-46.77,16.15-66.86,8C1232.53,558.89,1233,527.1,1233,527.1Z" transform="translate(-1232.77 -361.61)"/>
    </g>
    <path class="cls-7" d="M1457.07,559.25s17.86,90.92,29.6,135.32,35.1,88.8,25,137.43-71.89,56.25-99.24,46.52c-28.72-10.22-28.45-13.38-41.6-27.47,0,0-25.12-18.35-23.24-89.76s.94-72.83,2.82-87.87,5.12-38.07,13.36-53.57c0,0,.73-47.91,36-63.89S1457.07,559.25,1457.07,559.25Z" transform="translate(-1232.77 -361.61)"/>
    <path class="cls-13" d="M1361.28,625.13s1.82-13.35,9.71-10.91,15.63,29.13,20.79,49.34,17.37,69.07,27.23,103.83,23,86-14.09,87.87-33.6-.6-51.33-30.61S1348.7,634.11,1361.28,625.13Z" transform="translate(-1232.77 -361.61)"/>
    <path class="cls-7" d="M1419.13,601.22s19-15.85,59.2,20.09,81.41,81.17,90.1,92.44c0,0,20.67,12.45,29.13,16.45s17.85,6.81,17.15,19.26-8.22,10.34-8.22,10.34,10.33,12-.24,25.14-16.68,6.57-16.68,6.57,1.65,6.58-10.1,12-18.8-7.76-18.8-7.76-3.52,9.64-18.32,5.88-13.86-15.74-12.92-31.72-2.35-27-5.64-32.89-39.23-63.66-74.94-90.68S1411,610.86,1419.13,601.22Z" transform="translate(-1232.77 -361.61)"/>
    <path class="cls-7" d="M1509.78,839s39.85,29.4,69,9.2,46.52-40.88,50.28-94c0,0,2.35-22.16,0-38.33,0,0-17.18-26.51,1-62.22s24.8-24.09,31.38-39.77c0,0,41.82,49.17-8.46,88.17,0,0,6.81,108.14-53.8,153.21,0,0-29.6,40.13-92.32,2.78C1506.88,858.08,1486.6,842.49,1509.78,839Z" transform="translate(-1232.77 -361.61)"/>
    <path class="cls-7" d="M1470.18,877.92a153.93,153.93,0,0,0,54.63,20.37l27.11,9.71s34.24-6.7,40-34.4l-1.68-2.26s-42.06-44-91.13-62c0,0-1.94,10-21.6,33.94S1470.18,877.92,1470.18,877.92Z" transform="translate(-1232.77 -361.61)"/>
    <g>
      <path class="cls-2" d="M1535,979.63s5.9,10.93,18.06,9.52,31.32-13.09,45.56-34.11,26.81-42.71,27.85-50-1.12-8.48-5.75-11.49l-34.24,33.86-25.11,41.36Z" transform="translate(-1232.77 -361.61)"/>
      <g>
        <path class="cls-3" d="M1531.31,921.11s-10.87-17.67,5.8-27.54,21.13-6,27.58-1.18,19-1.89,21.17-12,1.73-13,1.73-13,18.88,10.74,33.08,26.1c0,0-3.62,23.07-30.88,57.64s-46.57,32.51-54.84,28.46-9-20.5-7.88-28.22S1527.6,930.39,1531.31,921.11Z" transform="translate(-1232.77 -361.61)"/>
        <path class="cls-4" d="M1526.68,956.28s8.74,3.73,19.56-2,12-5.91,13.13-.43-6,10.61-17.27,12.79-14.83-.93-14.83-.93-1.14-.78-1.54-3.61S1525.85,956.72,1526.68,956.28Z" transform="translate(-1232.77 -361.61)"/>
        <path class="cls-5" d="M1527.4,940.81s9.35,2.9,21.57-4.91,13.51-8.14,14.41-2.25-7.28,12.5-19.71,16.42-16.2,1-16.2,1-1.2-.71-1.47-3.77S1526.46,941.4,1527.4,940.81Z" transform="translate(-1232.77 -361.61)"/>
        <path class="cls-6" d="M1530.48,923.16s9.65,2.24,22-6.82,13.67-9.5,14.73-3.5-7.19,13.49-19.86,18.55-19,4-19,4-.63-1.1-.39-5C1528.12,927.18,1529.53,923.84,1530.48,923.16Z" transform="translate(-1232.77 -361.61)"/>
      </g>
    </g>
    <circle class="cls-3" cx="109.67" cy="129.57" r="29.35"/>
    <circle class="cls-14" cx="109.67" cy="129.57" r="22.45"/>
    <circle class="cls-15" cx="109.67" cy="129.57" r="14.87"/>
    <circle class="cls-3" cx="114.88" cy="118.26" r="6.1"/>
    <path class="cls-16" d="M1299,706.84s-3.35-8.08-8.37-5.57-7.54,13.39-8.93,19.53-.84,12.83,4.18,17.3,26.24-1.24,29.86-3.27,7.39-13.47-1.75-15.71S1299,706.84,1299,706.84Z" transform="translate(-1232.77 -361.61)"/>
    <ellipse class="cls-16" cx="27.38" cy="354.64" rx="11.35" ry="7.99"/>
    <ellipse class="cls-16" cx="1280.39" cy="755.94" rx="11.35" ry="7.99" transform="translate(-1235.23 1146.08) rotate(-60.93)"/>
    <ellipse class="cls-16" cx="1307.74" cy="755.94" rx="7.99" ry="11.35" transform="translate(-1300.22 -230.56) rotate(-5.59)"/>
  </g>
</svg>
