<svg id="Layer_2" data-name="Layer 2" xmlns="http://www.w3.org/2000/svg" viewBox="0 0 595.28 1387.94"><defs><style>.cls-1{fill:#bea05c;}.cls-2{fill:#dfbc6d;}.cls-3{fill:#987647;}.cls-4{fill:#dfbc6c;}.cls-5{fill:#2c2c79;}.cls-6{fill:#fff;}.cls-7{fill:#2db24c;}.cls-8{fill:#f16838;}.cls-9{fill:#4b8fcc;}.cls-10{fill:#b6b081;}.cls-11{fill:#d5b367;}.cls-12{fill:#a56737;}.cls-13{fill:#4c3421;}.cls-14{fill:#030202;}.cls-15{fill:#ffe5bb;}.cls-16{fill:#4e2a21;}.cls-17{fill:#600b0c;}.cls-18{fill:#d42027;}</style></defs><title>LittleLion-jumping_and_landing-3</title><g id="character"><path class="cls-1" d="M50.56,972.17c-.76,1,.28,4,.28,5.09,0,12.19,3.14,23.38,13.18,30.31,9.31,6.37,20.42,6,31.61,7.6a54.5,54.5,0,0,1,26.8,9.12c4.46,3.35,8.68,9.16,13,12.74a300.1,300.1,0,0,0,27.39,20.91c18,11.59,32.93,21.62,58.46,25.45,28.91,4.34,44.28,1.51,60.69-12.27s26.64-32.89,33.13-57.06a11.35,11.35,0,0,0-5.58-13.18,8.35,8.35,0,0,0-10.19,3.46,24,24,0,0,0-2.87,10.32A87,87,0,0,1,281,1051.49a51.43,51.43,0,0,1-32.45,18.64c-9.2,1.35-19.55,3.58-28.71,2a123.94,123.94,0,0,1-34.93-13.26,111.69,111.69,0,0,1-22.77-16.37A85.26,85.26,0,0,1,137.05,1009a97.21,97.21,0,0,0-10.63-14.85,83.63,83.63,0,0,0-23.9-18.28c-16.56-8.24-30.26-8-48.62-5.74A4.5,4.5,0,0,0,50.56,972.17Z"/><path class="cls-2" d="M320.78,1019.87s-78,7.61-94.85-66c-10.63-41-.44-98.52.32-105.13s4-37,4-42.05,3.23-35,10-45.64,22.38-47,71.17-46.87,72.47,38.51,77.77,48.07c15.92,17.68,21,85.73,21.94,106.36s29,124-46.47,142.44C342.41,1021.38,333.61,1019.15,320.78,1019.87Z"/><path class="cls-2" d="M353.72,792.11c12.15,1.64,69.89,74.47,144.26,48.69a63.87,63.87,0,0,1,19.69-3c4.1,0,20.54.88,25.3.71h0a13.18,13.18,0,0,0,12.5-13.83c-2-6.69.87-6.74,1.58-7.21s2.83-.35,5.63-7.2a15.25,15.25,0,0,0-4.48-17.12c-3.8-2.52-3.36-5.5-4.32-9.8A13,13,0,0,0,540.34,774c-6.91,1.11-5.68-1.43-8.91-5.57-18.5-15.9-28.08,6.7-28.08,6.7-2.66,6.58,2.22,16.89-30,32.65-33.77,5.48-97.78-50.56-97.78-50.56C325.15,740.94,341.58,790.48,353.72,792.11Z"/><path class="cls-3" d="M502.87,804.71a16.84,16.84,0,0,1,3,6.42,68.7,68.7,0,0,0,1.7,8.87,6.57,6.57,0,0,0,6.83,4.71,8,8,0,0,0,3.59-2.36c1.38-1.35,2.63-2.81,3.93-4.26a36.59,36.59,0,0,0,7-10,9.87,9.87,0,0,0-.32-9.18,13.38,13.38,0,0,0-8.23-4.25l-8.78-2.14a35.27,35.27,0,0,0-4.31-.84,6.21,6.21,0,0,0-4,.68,6.64,6.64,0,0,0-2.23,2.95,8,8,0,0,0-1,4.75A12.24,12.24,0,0,0,502.87,804.71Z"/><path class="cls-3" d="M536.06,817.66a4,4,0,0,0-1.21.5,4.46,4.46,0,0,0-1,.72,8.79,8.79,0,0,0-2,2.34,5.72,5.72,0,0,0,.85,5.81,11.16,11.16,0,0,0,5.12,3.39,11.36,11.36,0,0,0,5.12.81,5.57,5.57,0,0,0,4.23-2.7,6.38,6.38,0,0,0-1.58-7A11.53,11.53,0,0,0,536.06,817.66Z"/><path class="cls-3" d="M549.23,799.22a12.59,12.59,0,0,0-7.17,1.21,7.49,7.49,0,0,0-4,6,4.14,4.14,0,0,0,.19,1.82,5.36,5.36,0,0,0,3.66,2.79,10.67,10.67,0,0,0,8.32-.73,7.59,7.59,0,0,0,3.9-7.1,4.31,4.31,0,0,0-.59-1.95A5.51,5.51,0,0,0,549.23,799.22Z"/><path class="cls-3" d="M531.06,791.71a5,5,0,0,0,.72,1.73,4.12,4.12,0,0,0,1.53,1.18,8,8,0,0,0,7-.39,12.48,12.48,0,0,0,4.89-5.14,9.21,9.21,0,0,0,1.32-4.21,4.59,4.59,0,0,0-1.65-4,5.79,5.79,0,0,0-2.36-.79,10.86,10.86,0,0,0-7.11,2,9.71,9.71,0,0,0-4.07,6A9.45,9.45,0,0,0,531.06,791.71Z"/><path class="cls-3" d="M512.84,781.77a5.16,5.16,0,0,0,2.41,3.83,4.75,4.75,0,0,0,3.5,0,11.93,11.93,0,0,0,6.68-9,4.8,4.8,0,0,0,.14-1.65,4.11,4.11,0,0,0-.6-1.43,7,7,0,0,0-2.48-3.28,4.92,4.92,0,0,0-4.71-.12,8.21,8.21,0,0,0-3.48,3.35A11.92,11.92,0,0,0,512.84,781.77Z"/><path class="cls-2" d="M278,787.73c-12.28,1.76-70.75,73.65-144.7,47.35a63.88,63.88,0,0,0-19.67-3.23c-4.14-.05-20.55.63-25.35.39h0a13.18,13.18,0,0,1-12.34-14c2-6.67-.79-6.75-1.5-7.23s-2.82-.39-5.54-7.27a15.17,15.17,0,0,1,4.71-17c3.61-2.56,3.24-5.54,4.22-9.84a12.9,12.9,0,0,1,13.72-9.15c6.9,1.18,5.66-1.39,8.93-5.49,18.69-15.68,28,7,28,7,2.58,6.61-2.6,16.78,29.66,33,33.74,5.89,98.36-49.42,98.36-49.42C307,737.19,290.25,786,278,787.73Z"/><path class="cls-3" d="M128.56,798.88a17,17,0,0,0-3.09,6.39,66.58,66.58,0,0,1-1.8,8.84,6.49,6.49,0,0,1-6.83,4.61,7.33,7.33,0,0,1-3.58-2.36c-1.36-1.36-2.63-2.86-3.91-4.32A36.46,36.46,0,0,1,102.5,802a9.68,9.68,0,0,1,.43-9.18,13.17,13.17,0,0,1,8.24-4.18l8.8-2a37.44,37.44,0,0,1,4.33-.79,6.2,6.2,0,0,1,4,.73,6.87,6.87,0,0,1,2.22,3,7.94,7.94,0,0,1,1,4.75A12.49,12.49,0,0,1,128.56,798.88Z"/><path class="cls-3" d="M95.15,811.63a4,4,0,0,1,1.28.33,3.39,3.39,0,0,1,1,.73,7.89,7.89,0,0,1,2,2.36,5.64,5.64,0,0,1-.93,5.8,11.45,11.45,0,0,1-5.16,3.34,11,11,0,0,1-5.11.71A5.45,5.45,0,0,1,84,822.18a6.46,6.46,0,0,1,1.66-7A11.54,11.54,0,0,1,95.15,811.63Z"/><path class="cls-3" d="M82.26,792.88a12.71,12.71,0,0,1,7.15,1.3,7.5,7.5,0,0,1,3.92,6,4.14,4.14,0,0,1-.2,1.78,5.38,5.38,0,0,1-3.69,2.75,10.8,10.8,0,0,1-8.31-.83,7.61,7.61,0,0,1-3.82-7.15,4.31,4.31,0,0,1,.62-1.94A5.67,5.67,0,0,1,82.26,792.88Z"/><path class="cls-3" d="M100.41,785.51a3.72,3.72,0,0,1-2.27,2.88,8,8,0,0,1-7-.47,12.61,12.61,0,0,1-4.84-5.19,9.29,9.29,0,0,1-1.26-4.23,4.57,4.57,0,0,1,1.69-4,4.88,4.88,0,0,1,2.37-.76,10.82,10.82,0,0,1,7.09,2,9.77,9.77,0,0,1,4,6A9.44,9.44,0,0,1,100.41,785.51Z"/><path class="cls-3" d="M119,775.87a5.18,5.18,0,0,1-2.56,3.76,4.75,4.75,0,0,1-3.5,0,11.68,11.68,0,0,1-6.54-9.09,5.51,5.51,0,0,1-.16-1.67,5.28,5.28,0,0,1,.62-1.42,7.24,7.24,0,0,1,2.52-3.26,5.08,5.08,0,0,1,4.72-.09,8.74,8.74,0,0,1,3.47,3.43A12.28,12.28,0,0,1,119,775.87Z"/><path class="cls-4" d="M241.17,1092c22.06-3.06,28.82-11.66,26.55-28.89s-26.5-49.43,15.31-68.16c13.89-5.89,35.86-24.14,22.21-53.44s-32.54-24-37.92-22.19a56.39,56.39,0,0,0-19.82,10.41c-4.77,4.07-34.31,29.82-42.38,52C195.05,1009.38,211.35,1096.09,241.17,1092Z"/><path class="cls-5" d="M281.28,1108.42a169.42,169.42,0,0,1-59,24.85,104.55,104.55,0,0,1-35.08,2.2A30.3,30.3,0,0,1,163,1121.59a21.59,21.59,0,0,0,9.82,21.11,39.4,39.4,0,0,0,24.06,5,160.47,160.47,0,0,0,39.15-7.89A223,223,0,0,0,280,1119.5a2.9,2.9,0,0,0,1.87-3A44.15,44.15,0,0,0,281.28,1108.42Z"/><path id="Foot_L" data-name="Foot L" class="cls-6" d="M281.28,1108.42s.6-27.3-13.13-41a13.38,13.38,0,0,1-11.69,10.94c-10.84,2-14.92-2-14.92-2s-2.62-1.37-3.75-8.21a15.24,15.24,0,0,0-8.29-10.08s-12.72-3-17.66-1.9l-3-1.24s-11.42,10.57-14.41,20.84c0,0-20,17.16-24.53,24.43s-8.77,9.12-7,21.21c0,0,8.08,17.58,39.23,14.95S260.52,1124.35,281.28,1108.42Z"/><path class="cls-7" d="M220.41,1094.91a24.07,24.07,0,0,0,7.47-2.1c1.73-.9,3.53-2.15,2.61-4.41a4,4,0,0,0-4.64-2.83,60.46,60.46,0,0,1-15.61-.62,23.65,23.65,0,0,1-15.31-7.7c-.83-1-1.44-1-2.41-.19-2.2,1.9-4.41,3.76-6.74,5.45-1.57,1.19-1.52,2.25-.33,3.57a13.3,13.3,0,0,0,5.08,3.33A92.85,92.85,0,0,0,220.41,1094.91Z"/><path class="cls-8" d="M204.12,1107.31a18.13,18.13,0,0,0,10-4c.83-.73,1.67-1.59,1.39-2.87s-1.7-1.18-2.71-1.27a88.29,88.29,0,0,1-17.32-2.75,32.6,32.6,0,0,1-13.64-7.33c-1.3-1.25-2.13-1.1-3.2.11a21.09,21.09,0,0,1-1.71,1.56c-5.55,5.69-6.17,5.87,1.28,10.43S195.19,1106.75,204.12,1107.31Z"/><path class="cls-9" d="M189.86,1120a9.84,9.84,0,0,0,7.88-3.78c1.75-2.44.8-4.37-2.16-4.9s-6-.76-8.89-1.31a27.81,27.81,0,0,1-16.11-8.75c-1.27-1.42-2-1.17-3.06.16-4.21,5.32-3.75,9.32,1.85,12.63A39.83,39.83,0,0,0,189.86,1120Z"/><path class="cls-4" d="M413.56,1099.62c-21.74-5-27.69-14.14-23.94-31.12s30.57-47-9.24-69.25c-13.33-7.09-33.6-27.2-17.42-55.18s34.48-21,39.69-18.78a56.55,56.55,0,0,1,18.87,12.13c4.35,4.46,32.53,39.58,37.63,55.56C468.41,1022,442.86,1106.34,413.56,1099.62Z"/><path class="cls-5" d="M372.12,1112.46a169.5,169.5,0,0,0,56.76,30,104.18,104.18,0,0,0,34.82,5.18A30.38,30.38,0,0,0,489.08,1136a21.59,21.59,0,0,1-11.86,20.08,39.5,39.5,0,0,1-24.38,2.86,161.4,161.4,0,0,1-38.3-11.31,224.1,224.1,0,0,1-42-24.08,3,3,0,0,1-1.59-3.2A47.42,47.42,0,0,1,372.12,1112.46Z"/><path id="Foot_L-2" data-name="Foot L-2" class="cls-6" d="M372.12,1112.46s1.8-27.25,16.68-39.67a13.43,13.43,0,0,0,10.73,11.94c10.57,3,15-.71,15-.71s2.73-1.13,4.46-7.84a15.18,15.18,0,0,1,9.15-9.31s12.93-1.88,17.79-.33l3-1s10.48,11.55,12.55,22c0,0,18.41,18.85,22.25,26.48s7.93,9.86,5.17,21.76c0,0-9.64,16.79-40.44,11.42S391.39,1130.15,372.12,1112.46Z"/><path class="cls-7" d="M433.94,1104.37a24.49,24.49,0,0,1-7.44-2.82c-1.65-1-3.33-2.46-2.21-4.63a4,4,0,0,1,4.87-2.41,60.42,60.42,0,0,0,15.6.75,23.64,23.64,0,0,0,16.08-6.25c.92-1,1.52-.87,2.42,0,2,2.08,4.06,4.13,6.24,6,1.45,1.32,1.31,2.37,0,3.58a13.53,13.53,0,0,1-5.34,2.87A93.85,93.85,0,0,1,433.94,1104.37Z"/><path class="cls-8" d="M449.23,1118.2a18,18,0,0,1-9.66-4.85c-.73-.78-1.48-1.71-1.09-3s1.79-1,2.77-1a87.68,87.68,0,0,0,17.5-1.21,32.38,32.38,0,0,0,14.17-6c1.44-1.12,2.21-.91,3.17.39a18.06,18.06,0,0,0,1.57,1.7c5,6.17,5.63,6.39-2.16,10.3S458.2,1118.45,449.23,1118.2Z"/><path class="cls-9" d="M462.15,1132.09a9.83,9.83,0,0,1-7.47-4.45c-1.53-2.58-.45-4.43,2.59-4.69s6-.25,8.74-.6a27.89,27.89,0,0,0,16.82-7.3c1.42-1.29,2.12-1,3.07.44,3.69,5.66,2.87,9.6-3,12.42A40.21,40.21,0,0,1,462.15,1132.09Z"/><path class="cls-10" d="M252.77,899.85s-17.6-56.47-2.27-87.21,35.24-46.71,65.86-46.67,57.78,7.33,68.42,33c17,36.4.91,104.77-8,128.19s-19.15,50.61-54.43,52.6S261.33,960.3,252.77,899.85Z"/><path class="cls-11" d="M269.29,762.59a376.64,376.64,0,0,1-37.63-25.93A155.51,155.51,0,0,0,209.56,723a54,54,0,0,1-28.47-38.87c0-.36-.48-.68-.76-1-.47-4-1.07-8-1.43-11.94a106.67,106.67,0,0,1,1.15-22.86c.4-.2,1-.28,1.16-.6a128.09,128.09,0,0,1,14.34-17.76,17,17,0,0,0,4.22-14.17,74.37,74.37,0,0,0-2.15-8.17c0-.35,0-.79-.56-.63h0c.32-1.52-.76-2.51-1.47-3.59a27.34,27.34,0,0,0-29-11.94c-4.86,1.11-4.86,1.11-6.3,2.19A54.14,54.14,0,0,1,182,596.1a22.3,22.3,0,0,0-15.14,12.34h0c-.63.28-.59.84-.55,1.39-4.94,10.87-5.5,21.43,2.35,31.34a1.45,1.45,0,0,1,.35,1.52,43.07,43.07,0,0,1-22.37-21.91c-7.53-16.92-5.22-33.53,4-49.14,5.21-8.84,15.41-11.94,27.16-9.27a33.47,33.47,0,0,1,12.18,5.13,36.83,36.83,0,0,0,22.58,5.78,6.63,6.63,0,0,0,4-2.11,175.87,175.87,0,0,1,59.1-32.26,8.24,8.24,0,0,0,6.77-6.65,42.12,42.12,0,0,1,12.54-20.9c.8-.72,1.75-1.84,2.83-1.48s.51,1.91.63,2.91a36.36,36.36,0,0,0,8,19.07c.63.72,1.27,1.6,2.43,1.52a.66.66,0,0,0,0,.28h0l.36-.2a55.93,55.93,0,0,1,2.19-19,90.92,90.92,0,0,0,3.14-17.48,32.6,32.6,0,0,1,8,12.46c2.42,6.14,4.38,12.47,6.57,18.68a22.23,22.23,0,0,0,2.43,4.94c.51.83,1.11,2,2.15,1.87s1.71-1.35,2.11-2.35a23.62,23.62,0,0,0,1.31-6.81,32.73,32.73,0,0,1,2.95-12.58,10.06,10.06,0,0,1,4-4.78h0a75.15,75.15,0,0,0,.28,8,12.88,12.88,0,0,0,4,8.68,18.14,18.14,0,0,1,5.14,11.07,4,4,0,0,0,3.3,4A320.2,320.2,0,0,1,430.21,571a21.93,21.93,0,0,0,21.07.36,95.59,95.59,0,0,0,12.22-8,26,26,0,0,1,39.42,13.7c7.41,22.1.76,41.41-19.91,56.15a60.22,60.22,0,0,1-15.61,8.8,30.26,30.26,0,0,0,5.94-21.23c-.32-3.74-2.07-7-2.63-10.63l-.48-.56h0A22,22,0,0,0,455,596a57.68,57.68,0,0,1,21.86-2.15,27.55,27.55,0,0,0-9.87-2.59,26.5,26.5,0,0,0-27.64,15.93,19.9,19.9,0,0,0,3.82,25.12c2.27,2.27,4,4.94,6.25,7.33s3.63,6.09,6.22,8.6a66.2,66.2,0,0,1,.55,25.17,69.15,69.15,0,0,1-11.94,25A78.1,78.1,0,0,1,416,722.53,132.89,132.89,0,0,0,385.41,744a126.05,126.05,0,0,1-20.15,16.33c-.12,19.75-14.85,35-45.79,35.28C282.55,795.92,272.56,782.5,269.29,762.59ZM385.33,620a44,44,0,0,0-5.61.67A30,30,0,0,0,357.42,650a31.85,31.85,0,0,0,41.13,31.5c10.72-3,18.84-9.28,21-20.59A33.8,33.8,0,0,0,385.33,620ZM246,680.48c14.93.24,33-11.63,29.23-32.66a34.3,34.3,0,0,0-16.53-24.65c-11.55-6.81-25.6-4-36.24,7.09a27.3,27.3,0,0,0-9,23.42,31.13,31.13,0,0,0,32.41,26.8Z"/><path class="cls-12" d="M168.91,642.85a1.47,1.47,0,0,0-.4-1.56c-8-10.11-7.45-20.86-2.39-31.85a1.51,1.51,0,0,0,.56-1.4h0c1.59,0,2.23-1.47,3.14-2.39a17,17,0,0,1,24.05-1.59c.15.13.3.26.44.4,1,.79,1.67,1.87,3.07,1.95h0l.59.64a72.1,72.1,0,0,1,2.31,8.44,17.36,17.36,0,0,1-4.3,14.45,133.82,133.82,0,0,0-14.65,18.16c0,.32-.76.4-1.16.6a50.46,50.46,0,0,1-10.43-5.18c0-.52-.24-.79-.8-.67Z"/><path class="cls-12" d="M472.1,610.87c.44,3.78,2.07,7.25,2.23,11.15a31.07,31.07,0,0,1-7.12,21.7h0l-.88.48a30.3,30.3,0,0,1-11.95,5.65c-2.59-2.66-3.74-6.29-6.05-9.16s-4-5.45-6.13-8a20.78,20.78,0,0,1-2.51-26.4,19.25,19.25,0,0,0,5.14-3.27,17.29,17.29,0,0,1,22.06,2.19c1.63,1.56,3.1,3.35,4.62,5h0Z"/><path class="cls-6" d="M385.33,620a33.81,33.81,0,0,1,34.25,40.93c-2.19,11.31-10.31,17.61-21,20.59A31.85,31.85,0,0,1,357.42,650a30,30,0,0,1,22.3-29.35A44,44,0,0,1,385.33,620Zm-21.42,32.29a25.45,25.45,0,1,0,24.87-26A25.45,25.45,0,0,0,363.91,652.24Z"/><path class="cls-6" d="M245.8,680.48a31.14,31.14,0,0,1-32.57-26.8,27.28,27.28,0,0,1,9-23.42c10.63-11.07,24.68-13.9,36.23-7.09A34.27,34.27,0,0,1,275,647.82C278.85,668.85,260.73,680.72,245.8,680.48Zm-.4-4.62a25.17,25.17,0,0,0,24.66-25.67c0-.14,0-.28,0-.42a25.44,25.44,0,1,0-24.79,26.09Z"/><path class="cls-13" d="M412.41,619.87c-18.44-18.84-35.84-15-50.13,2.35-.56-.76,0-1.48,0-2a42,42,0,0,1,13.38-20.31,15.64,15.64,0,0,1,19.43-2A39.77,39.77,0,0,1,412.41,619.87Z"/><path class="cls-13" d="M270.13,620.62c-7.17-7.28-14.1-14.21-25-14s-17.92,6.09-24.81,13.14a2.36,2.36,0,0,1,0-2.19A42.92,42.92,0,0,1,235,598.09a16.12,16.12,0,0,1,19.91-.24A40.74,40.74,0,0,1,270.13,620.62Z"/><path class="cls-13" d="M197.62,607.36c-1.44,0-2.19-1.15-3.19-2a17.57,17.57,0,0,0-24.82.87l-.51.57c-.95.95-1.59,2.39-3.22,2.43a23.48,23.48,0,0,1,15.93-13.22A57.11,57.11,0,0,0,159,593.63c1.55-1.28,1.55-1.28,6.53-2.31a28.87,28.87,0,0,1,30.66,12.3C196.78,604.74,197.89,605.77,197.62,607.36Z"/><path class="cls-13" d="M471.7,610.35c-1.51-1.67-3-3.46-4.61-5A17.3,17.3,0,0,0,445,603.14a19,19,0,0,1-5.13,3.27A27.31,27.31,0,0,1,469.2,591.2a28.78,28.78,0,0,1,10.11,3.1,60.07,60.07,0,0,0-22.74,1.24A22.9,22.9,0,0,1,471.7,610.35Z"/><path class="cls-6" d="M307,533.5l.36.2h0v-.28Z"/><path class="cls-13" d="M196.14,608.44l-.59-.68C196.14,607.76,196.1,608.2,196.14,608.44Z"/><path class="cls-13" d="M363.91,652.24A25.44,25.44,0,1,1,390.06,677h-.15A25.4,25.4,0,0,1,363.91,652.24Zm41.49-4c3.23-4.38,3.23-8.28,0-11.19s-7-2.47-10.87,1a1.6,1.6,0,0,0-1.23-1.36,14,14,0,0,0-9.08.6,16.29,16.29,0,0,0-9.84,20.23A16.49,16.49,0,0,0,395,667.65C403,664.59,406.52,658.34,405.4,648.26Z"/><path class="cls-13" d="M245.4,675.86a25.45,25.45,0,1,1,24.65-26.22v.13a25.37,25.37,0,0,1-24.63,26.09Zm-16.25-27.08a2.16,2.16,0,0,0-.63,1.79,15.92,15.92,0,0,0,15.16,16.66,16.27,16.27,0,0,0,3-.13,15.93,15.93,0,1,0-6.21-31.25,16.63,16.63,0,0,0-2.48.7c-4.81-2.15-8.28-1.55-10.63,1.84A7.72,7.72,0,0,0,229,648.78Z"/><path class="cls-14" d="M405.4,648.26c1.12,10.19-2.39,16.45-10.47,19.39a16.49,16.49,0,0,1-20.59-10.11,16.29,16.29,0,0,1,9.84-20.23,14,14,0,0,1,9.08-.6,1.6,1.6,0,0,1,1.23,1.36,11.06,11.06,0,0,0-1.31,3.7,7.26,7.26,0,0,0,3.22,6.85A8,8,0,0,0,405.4,648.26Z"/><path class="cls-6" d="M405.4,648.26a8,8,0,0,1-9,.36,7.26,7.26,0,0,1-3.22-6.85,11.06,11.06,0,0,1,1.31-3.7c4-3.47,7.73-4,10.87-1S408.67,643.76,405.4,648.26Z"/><path class="cls-14" d="M237.76,636.55a15.93,15.93,0,0,1,11.16,29.84,16.67,16.67,0,0,1-2.48.71,15.94,15.94,0,0,1-18-13.57,16.27,16.27,0,0,1-.13-3,2.14,2.14,0,0,1,.64-1.79,9,9,0,0,0,6,.91,7.57,7.57,0,0,0,2.75-13.14Z"/><path class="cls-6" d="M237.76,636.55A7.57,7.57,0,0,1,235,649.69a9,9,0,0,1-6-.91,7.71,7.71,0,0,1-1.84-10.39C229.47,635,232.94,634.4,237.76,636.55Z"/><path class="cls-15" d="M356.62,783.65A31.89,31.89,0,0,1,343,792a82.5,82.5,0,0,1-13.62,3.14,111.12,111.12,0,0,1-16.72.48,92.88,92.88,0,0,1-17.92-1.75,30.58,30.58,0,0,1-15.61-8.49,41.75,41.75,0,0,1-8.32-17.24,229.42,229.42,0,0,1-7.49-37.71,28.44,28.44,0,0,1,0-7.6,29.61,29.61,0,0,1,3-8,87.91,87.91,0,0,1,5-9.28,48.89,48.89,0,0,1,28.28-20.23,55.84,55.84,0,0,1,34.88,2.51,43.29,43.29,0,0,1,7.05,3.51,58.93,58.93,0,0,1,7.37,5.61c10.91,9.76,19.91,23,19.91,37.63a66.86,66.86,0,0,1-.56,7.49,166.87,166.87,0,0,1-2,17.84C364.19,768.92,361.64,778.4,356.62,783.65Z"/><path class="cls-16" d="M342.64,691.79a15.39,15.39,0,0,1-4,12.66A30.13,30.13,0,0,1,314.77,716a34.38,34.38,0,0,1-25.57-12.27,12.73,12.73,0,0,1-3.42-8.48,9.51,9.51,0,0,1,3.42-7.13,27.8,27.8,0,0,1,8.37-3.06,61.59,61.59,0,0,1,19.15-2.19c1.95,0,8.4-.32,10.31,0a34.11,34.11,0,0,1,8,1.87A11.9,11.9,0,0,1,342.64,691.79Z"/><path id="_2" data-name=" 2" class="cls-17" d="M263.8,726.75s5.73,11.31,25.17,9.91,26.95-8.76,28.11-20.7c0,0,.52,20.5,25.33,22.38,0,0,17-1.12,25.32-11.31,0,0,1.59,1.11-.64,5.17-3.74,4.42-9.55,38.63-31.85,44.8s-37.63.32-43.81-3.26a43.13,43.13,0,0,1-18.31-23.9c-4-12.54-6.65-18.67-8.8-20.62S263.8,726.75,263.8,726.75Z"/><path class="cls-18" d="M294,770.15a10,10,0,0,1,5.66-4.38,29.28,29.28,0,0,1,7.21-1.11,14,14,0,0,1,6.53,1,10.79,10.79,0,0,0,4,1.76c3,.31,4-1.4,7.44-2a22.73,22.73,0,0,1,14.7,2.83,6.22,6.22,0,0,1,1.43,1.28c1.12,1.51,0,2.19-1,3.74s-3.39,1.07-4.74,2.39-2.51,0-3.63.68a12.92,12.92,0,0,1-5.57,1.95,37.26,37.26,0,0,1-18.92-1.72C300.91,774.33,297.49,775.69,294,770.15Z"/><path class="cls-16" d="M367.61,727.19c-8.36,10.19-25.32,11.31-25.32,11.31C317.48,736.62,317.08,716,317.08,716c-1,11.94-8.56,19.15-27.88,20.54S264,726.59,264,726.59s-1.87.52.32,2.43,4.89,8,8.8,20.63a43.15,43.15,0,0,0,18.31,23.89c6.1,3.58,21.27,9.48,43.81,3.26s28.27-40.38,31.85-44.8C369.21,728.3,367.61,727.19,367.61,727.19Zm-26,40.53c-12.78,8-37,5.78-44.16,2.23s-20.31-8.64-26.88-32.61a40.5,40.5,0,0,0,21.74,5.46c10.87-1.16,20.47-5.22,24.13-13.42,0,0,9,12.3,21.82,13a36.78,36.78,0,0,0,26.64-8S354.39,759.48,341.61,767.72Z"/></g></svg>