<svg id="Layer_8" data-name="Layer 8" xmlns="http://www.w3.org/2000/svg" viewBox="0 0 1920 1080">
  <defs>
    <style>
      .cls-1 {
        fill: #d3af5d;
      }

      .cls-2 {
        fill: #987647;
      }

      .cls-3 {
        fill: #fff;
      }

      .cls-4 {
        fill: #010084;
      }

      .cls-5 {
        fill: #06b800;
      }

      .cls-6 {
        fill: #f86531;
      }

      .cls-7 {
        fill: #0798ff;
      }

      .cls-8 {
        fill: #e1bd6c;
      }

      .cls-9 {
        fill: #b8b182;
      }

      .cls-10 {
        fill: #620000;
      }

      .cls-11 {
        fill: #ffe6bc;
      }

      .cls-12 {
        fill: #4e2921;
      }

      .cls-13 {
        fill: #a56636;
      }

      .cls-14 {
        fill: #49301d;
      }

      .cls-15 {
        fill: #492b19;
      }

      .cls-16 {
        fill: #221f1f;
      }
    </style>
  </defs>
  <title>LittleLion-running_on_the_spot-2</title>
  <g>
    <g>
      <path class="cls-1" d="M1415.87,627.44s-69.43,92.15-86.18,97.91c0,0-1,10-7.5,22.81L1318.94,764l-.16,2.47s-11.58,25.85-29.85,9.35c0,0-6.29,10.31-21.83,2.83,0,0-12.64-5.28-9.4-14.58,0,0-10.55-1.31-13.32-9.63,0,0-4.36-10.21,2.8-18.62,0,0-11.61-10.23-7.2-21.85,0,0,7.6-15.78,25-12,0,0,27.43-7.87,30.86-8,0,0,66.18-50.14,73.65-68.18l23.64-24.09s4-7.12,24,3.72C1417.1,605.51,1427.18,612.69,1415.87,627.44Z"/>
      <g>
        <path class="cls-2" d="M1316.79,722.47a9.63,9.63,0,0,1,1.29,5.7,8.19,8.19,0,0,1-.93,4.42,7.5,7.5,0,0,1-4,2.76,39.94,39.94,0,0,1-5.17,1.31l-10.71,2.21c-3.75.77-7.89,1.49-11.22-.4s-4.91-6.05-5.14-9.93c-.29-4.95,1.1-9.84,2.48-14.61.65-2.26,1.3-4.52,2.11-6.73a9.68,9.68,0,0,1,2.74-4.43c2.87-2.26,7.28-.9,9.91,1.63s4.17,6,6.45,8.85a21.3,21.3,0,0,0,6.62,5.5C1313.21,719.8,1315.49,720.63,1316.79,722.47Z"/>
        <path class="cls-2" d="M1255.62,722.57c-2.87-1.18-5.51-3.77-5.38-6.87a6.66,6.66,0,0,1,3.25-5.15,13.37,13.37,0,0,1,6-1.78,13.59,13.59,0,0,1,7.36,1.06,6.86,6.86,0,0,1,4,5.94,9.82,9.82,0,0,1-1,3.6,5.07,5.07,0,0,1-.72,1.31,4.18,4.18,0,0,1-1.25,1A14,14,0,0,1,1255.62,722.57Z"/>
        <path class="cls-2" d="M1257.41,749a5.09,5.09,0,0,1-1.67-1.81,9.33,9.33,0,0,1,.62-9.83,12.83,12.83,0,0,1,8.73-5.11c2-.29,4.22-.12,5.63,1.3a5.24,5.24,0,0,1,1.16,1.88,9.23,9.23,0,0,1-1.49,8.47,15.5,15.5,0,0,1-7.25,5C1261.28,749.58,1259.1,750,1257.41,749Z"/>
        <path class="cls-2" d="M1288.56,751.94a11.73,11.73,0,0,1-1.46,8.56,12.91,12.91,0,0,1-6.79,5.85,6.25,6.25,0,0,1-3,.38,5.56,5.56,0,0,1-4-3.32,11,11,0,0,1-.74-5.32,15.32,15.32,0,0,1,2.73-8.16,9.56,9.56,0,0,1,7.4-4,4.68,4.68,0,0,1,2.29.5,5.34,5.34,0,0,1,1.66,1.55A11.28,11.28,0,0,1,1288.56,751.94Z"/>
        <path class="cls-2" d="M1314.89,759a10.07,10.07,0,0,1-2.08,5.52,6.06,6.06,0,0,1-5.25,2.31,8.72,8.72,0,0,1-4.44-2.34,4.86,4.86,0,0,1-2-3.29c-1.07-4.62-.72-10,2.65-13.33a5.62,5.62,0,0,1,3.84-1.81c1.9,0,3.52,1.41,4.63,3A14.75,14.75,0,0,1,1314.89,759Z"/>
      </g>
    </g>
    <g>
      <path class="cls-1" d="M1467.87,782.42s.8,21.12-28.75,72.85c0,0,8.79,40.83-4.35,81.33,0,0-18.14,24.3-49.15,11.54,0,0-2.56-55.17-14.68-74,0,0-10.57-28.08-4.76-50.76l27.21-45.87Z"/>
      <path class="cls-3" d="M1408.19,927.78l-1-8.79a15.7,15.7,0,0,0-9.07-9c-15.65-7-22.41-4-22.41-4-6.28,1.52-9.82,9.62-11,12.81-45.83,22.69-42.29,35.51-42.29,35.51-8.7,25.28,19.47,33.83,19.47,33.83,32.79,12.6,97.22-6.67,97.22-6.67,6.34-10.64,1.5-50.17,1.5-50.17C1411.52,947.25,1408.19,927.78,1408.19,927.78Z"/>
      <path class="cls-4" d="M1441.67,972s-67.11,19.47-99.92,6.82c0,0-17.44-5.27-20.63-19.82-3.91,21.64,20.71,29.07,20.71,29.07,32.79,12.59,97.21-6.67,97.21-6.67A9.94,9.94,0,0,0,1441.67,972Z"/>
      <path class="cls-5" d="M1362.86,920.66s4.73,12.14,30.19,16.58c0,0,7.51,6.19-4,7.37,0,0-30.07-3.32-37.33-18.85C1351.72,925.75,1356.57,920.16,1362.86,920.66Z"/>
      <path class="cls-6" d="M1347.16,928.59s2.74,10.62,30.79,19.25c0,0,3.9,3.19-8,5.71,0,0-22.25-1.82-32.27-18.58C1337.7,935,1341.65,929.66,1347.16,928.59Z"/>
      <path class="cls-7" d="M1334,937.65s4,12.88,23.82,17.26c0,0,5.26,5.22-5.58,7.9,0,0-18.9-4.13-25.29-17.53C1326.94,945.28,1327.72,940.13,1334,937.65Z"/>
    </g>
    <path class="cls-8" d="M1467.44,791.09s53.9,72.12,104.15,55.68c0,0,35.81-8.37,54.13-67.67,0,0,10.43-53.11,4-70.78,0,0-29.94-45.61,32.84-97,0,0,24,26.21,12.22,56.59,0,0-12.07,21.33-20.93,30.32,0,0-3.58,65.7-19.42,99.68,0,0-26.79,66.78-75,68.32,0,0-34.19,13.47-104.52-59.45l-21.69-42.34Z"/>
    <path class="cls-8" d="M1373.78,551.89l-10.35,71.61-1.07,188.33s3.26,62,66.62,61.23c0,0,68.68,4.14,80.25-32.46,0,0,19.6-11.14-11-118s-38.64-164.37-38.64-164.37l-48.81-23Z"/>
    <path class="cls-9" d="M1363.36,615.94s13.89-11.51,19,5.65l21,82.29,16,55.67s17.68,75.17-2.11,86.93c0,0-27.07,15.7-49.8-6,0,0-27.46-21.75-17.63-111.8C1349.78,728.68,1347.63,652,1363.36,615.94Z"/>
    <g>
      <path class="cls-10" d="M1309.84,562.59s8.33,17.47,1.53,30.94l6.57-3.21s26.73-5.07,27.48-5.43S1340.1,549,1340.1,549s-25.7-4.67-26.37-4S1309.84,562.59,1309.84,562.59Z"/>
      <path class="cls-8" d="M1342.14,407.63s-25.79,5.08-30.2,43c0,0-3,17.88-15.64,27.5,0,0-50,32.08-52.34,38.47l-2.17,12.4s34.9-4.14,45.83-.76c0,0,29.73,6,35.6,13.18,0,0,25.46,23.42,25.33,38.7,0,0-.79,23.18-5.76,36.54,0,0,36.81-4.38,43.18-8.35,0,0,58.19-18,94.32-73.66,0,0,47.44-3.53,57.17-27.17,0,0,19.74-26.53-9.91-70.32,0,0-22.35-19.13-51-7.78,0,0-11.76,3.93-15.51,9a68.25,68.25,0,0,0-35.32-27.86s-27.25-6.8-22.18-32.94c0,0-9.09,11.72-10.14,22.06,0,0-3.9,8.39-6.26-4.77,0,0,1-22.34-8.79-31.79,0,0-1.64,13.3-7,22.4,0,0-9.09,10.38-6.46,16.76,0,0-8.71-6.5-6.53-26.87C1358.32,375.29,1341.22,393.26,1342.14,407.63Z"/>
      <path class="cls-11" d="M1271.25,525.87s30.11-.39,52.36,14.4c0,0,21,21.83,24.52,35.53,0,0,3,31.31-10.11,49.76,0,0-25.29,21.9-54,1.7,0,0-5.67-7.47-7.13-14,0,0-2.44-3.11-4.17-4,0,0,31.24-7.81,43-19.55,0,0,14.77-13.17,9.94-30.07,0,0-34.69,11.38-65.58,10,0,0-26.23-21.84-19.62-40l10-5.57Z"/>
      <path class="cls-12" d="M1257.83,521.33s17.74-2.85,20.28-.81c0,0,5.53,5.88,1.79,9.65,0,0-11.34,17.38-38.6,9.87,0,0,3.73,13.94,19.92,25.41,0,0,15.75,9.06,67.69-10.34a46.84,46.84,0,0,1-2.15,22.43s-3.56,12.36-7.57,15.06c0,0-17.24,15.78-45.92,16.56,0,0,27.58-8.62,42.51-19.38,0,0,12.13-12.33,9.83-29.87,0,0-28,17.07-66.84,11,0,0-23.48-17-20.93-48.37,0,0,1.42-7.58,9.12-5.69Z"/>
      <path class="cls-13" d="M1475.83,458.73s-12.56,11.94-7.26,28.72a97.28,97.28,0,0,0,5.47,12.2s7.37,15.74,5.81,18.82c0,0,25.84-.73,31-25.05,0,0,8.66-26.55-16.72-37.19C1494.16,456.23,1482.35,452.7,1475.83,458.73Z"/>
      <path class="cls-14" d="M1467.86,472.19s.39-30,40-28.85c0,0-17.23,2.22-26.17,11.22,0,0,13.11-3.85,24.15,9.77C1505.8,464.33,1483.46,445.87,1467.86,472.19Z"/>
      <path class="cls-14" d="M1320.64,455.09s13-25.82,27.38-24.46c0,0,18.87,1.81,24.15,30.38C1372.17,461,1358.43,425.62,1320.64,455.09Z"/>
      <circle class="cls-3" cx="1342.42" cy="491.4" r="28.87" transform="translate(45.71 1093.16) rotate(-45)"/>
      <circle class="cls-15" cx="1340.95" cy="491.85" r="22.08" transform="translate(607.61 1717.53) rotate(-79.25)"/>
      <circle class="cls-16" cx="1340.94" cy="491.59" r="15.96" transform="translate(-41.19 131.75) rotate(-5.54)"/>
      <circle class="cls-3" cx="1347.65" cy="480" r="5.37"/>
    </g>
    <g>
      <path class="cls-8" d="M1506.55,787.24s5.79,20.31-10.63,77.59c0,0,18.24,37.56,15.08,80,0,0-11.85,27.91-45,22.86,0,0-15.58-53-31.84-68.44,0,0-16.94-24.79-16.66-48.17l15.59-51Z"/>
      <path class="cls-3" d="M1478.52,936.87l-1-8.79a15.68,15.68,0,0,0-9.11-9c-15.67-6.91-22.41-3.93-22.41-3.93-6.26,1.57-9.8,9.65-11,12.85-45.74,22.85-42.17,35.66-42.17,35.66-8.62,25.32,19.6,33.76,19.6,33.76,32.84,12.52,97.18-7,97.18-7,6.31-10.66,1.33-50.17,1.33-50.17C1482,956.31,1478.52,936.87,1478.52,936.87Z"/>
      <path class="cls-4" d="M1512.18,981s-67,19.72-99.88,7.17c0,0-17.44-5.21-20.71-19.74-3.83,21.64,20.83,29,20.83,29,32.84,12.52,97.18-7,97.18-7A10,10,0,0,0,1512.18,981Z"/>
      <path class="cls-5" d="M1433.18,929.86s4.76,12.1,30.25,16.48c0,0,7.51,6.16-4,7.39,0,0-30.08-3.22-37.38-18.73C1422.08,935,1426.92,929.39,1433.18,929.86Z"/>
      <path class="cls-6" d="M1417.52,937.86s2.79,10.61,30.85,19.14c0,0,3.93,3.2-7.93,5.76,0,0-22.26-1.75-32.35-18.46C1408.05,944.3,1412,939,1417.52,937.86Z"/>
      <path class="cls-7" d="M1404.4,947s4.07,12.86,23.87,17.17c0,0,5.28,5.21-5.55,7.92,0,0-18.91-4.07-25.35-17.44C1397.37,954.64,1398.13,949.5,1404.4,947Z"/>
    </g>
    <path class="cls-8" d="M1423.94,609.49l72.36,85s29,41.7,31.41,44.6l3.65,22.14-1.41,8.31s-5.7,22.53,11,30c0,0,15.56,4.36,21.51-5.52,0,0,13.06,21.25,29-3.8,0,0,14.12,1.63,18.9-13.33,0,0,3.61-12.13-2.91-17.65,0,0,13.36-6.82,5.16-20.63,0,0-5.37-8.67-14.78-9.76l-27.53-15s-62.78-73.35-89.62-94L1453,592.5s-10.75-10.09-24.55-5.84C1428.42,586.66,1413,590.68,1423.94,609.49Z"/>
  </g>
</svg>
