<svg id="Layer_9" data-name="Layer 9" xmlns="http://www.w3.org/2000/svg" viewBox="0 0 1920 1080">
  <defs>
    <style>
      .cls-1 {
        fill: #d3af5d;
      }

      .cls-2 {
        fill: #987647;
      }

      .cls-3 {
        fill: #fff;
      }

      .cls-4 {
        fill: #010084;
      }

      .cls-5 {
        fill: #06b800;
      }

      .cls-6 {
        fill: #f86531;
      }

      .cls-7 {
        fill: #0798ff;
      }

      .cls-8 {
        fill: #e1bd6c;
      }

      .cls-9 {
        fill: #b8b182;
      }

      .cls-10 {
        fill: #620000;
      }

      .cls-11 {
        fill: #ffe6bc;
      }

      .cls-12 {
        fill: #4e2921;
      }

      .cls-13 {
        fill: #a56636;
      }

      .cls-14 {
        fill: #49301d;
      }

      .cls-15 {
        fill: #492b19;
      }

      .cls-16 {
        fill: #221f1f;
      }
    </style>
  </defs>
  <title>LittleLion-running_on_the_spot-10</title>
  <g>
    <g>
      <path class="cls-1" d="M1415.87,627.44s-69.43,92.15-86.18,97.91c0,0-1,10-7.5,22.81L1318.94,764l-.16,2.47s-11.58,25.85-29.85,9.35c0,0-6.29,10.31-21.83,2.83,0,0-12.64-5.28-9.4-14.58,0,0-10.55-1.31-13.32-9.63,0,0-4.36-10.21,2.8-18.62,0,0-11.61-10.23-7.2-21.85,0,0,7.6-15.78,25-12,0,0,27.43-7.87,30.86-8,0,0,66.18-50.14,73.65-68.18l23.64-24.09s4-7.12,24,3.72C1417.1,605.51,1427.18,612.69,1415.87,627.44Z"/>
      <g>
        <path class="cls-2" d="M1316.79,722.47a9.63,9.63,0,0,1,1.29,5.7,8.19,8.19,0,0,1-.93,4.42,7.5,7.5,0,0,1-4,2.76,39.94,39.94,0,0,1-5.17,1.31l-10.71,2.21c-3.75.77-7.89,1.49-11.22-.4s-4.91-6.05-5.14-9.93c-.29-4.95,1.1-9.84,2.48-14.61.65-2.26,1.3-4.52,2.11-6.73a9.68,9.68,0,0,1,2.74-4.43c2.87-2.26,7.28-.9,9.91,1.63s4.17,6,6.45,8.85a21.3,21.3,0,0,0,6.62,5.5C1313.21,719.8,1315.49,720.63,1316.79,722.47Z"/>
        <path class="cls-2" d="M1255.62,722.57c-2.87-1.18-5.51-3.77-5.38-6.87a6.66,6.66,0,0,1,3.25-5.15,13.37,13.37,0,0,1,6-1.78,13.59,13.59,0,0,1,7.36,1.06,6.86,6.86,0,0,1,4,5.94,9.82,9.82,0,0,1-1,3.6,5.07,5.07,0,0,1-.72,1.31,4.18,4.18,0,0,1-1.25,1A14,14,0,0,1,1255.62,722.57Z"/>
        <path class="cls-2" d="M1257.41,749a5.09,5.09,0,0,1-1.67-1.81,9.33,9.33,0,0,1,.62-9.83,12.83,12.83,0,0,1,8.73-5.11c2-.29,4.22-.12,5.63,1.3a5.24,5.24,0,0,1,1.16,1.88,9.23,9.23,0,0,1-1.49,8.47,15.5,15.5,0,0,1-7.25,5C1261.28,749.58,1259.1,750,1257.41,749Z"/>
        <path class="cls-2" d="M1288.56,751.94a11.73,11.73,0,0,1-1.46,8.56,12.91,12.91,0,0,1-6.79,5.85,6.25,6.25,0,0,1-3,.38,5.56,5.56,0,0,1-4-3.32,11,11,0,0,1-.74-5.32,15.32,15.32,0,0,1,2.73-8.16,9.56,9.56,0,0,1,7.4-4,4.68,4.68,0,0,1,2.29.5,5.34,5.34,0,0,1,1.66,1.55A11.28,11.28,0,0,1,1288.56,751.94Z"/>
        <path class="cls-2" d="M1314.89,759a10.07,10.07,0,0,1-2.08,5.52,6.06,6.06,0,0,1-5.25,2.31,8.72,8.72,0,0,1-4.44-2.34,4.86,4.86,0,0,1-2-3.29c-1.07-4.62-.72-10,2.65-13.33a5.62,5.62,0,0,1,3.84-1.81c1.9,0,3.52,1.41,4.63,3A14.75,14.75,0,0,1,1314.89,759Z"/>
      </g>
    </g>
    <g>
      <path class="cls-1" d="M1474.92,823.18s-11.44,17.77-65.3,43.24c0,0-16.18,38.5-50.16,64.17,0,0-28.78,9.52-46.89-18.7,0,0,29.51-46.69,30.39-69.1,0,0,7.42-29.08,25.18-44.34l48.58-22Z"/>
      <path class="cls-3" d="M1345,903.86l1.71-8.69a15.72,15.72,0,0,0-5.88-11.36c-12.78-11.4-20.12-10.65-20.12-10.65-6.45-.47-12.29,6.16-14.38,8.84-50.56,7.62-51.11,20.91-51.11,20.91-16,21.42,8.22,38.16,8.22,38.16,27.38,22,94.61,23.32,94.61,23.32,9.29-8.2,16.74-47.32,16.74-47.32C1342.23,923.41,1345,903.86,1345,903.86Z"/>
      <path class="cls-4" d="M1363.38,956.19s-69.85-1.94-97.23-24c0,0-15-10.34-13.6-25.17-10.33,19.41,10.85,34,10.85,34,27.38,22,94.61,23.32,94.61,23.32A9.94,9.94,0,0,0,1363.38,956.19Z"/>
      <path class="cls-5" d="M1304,883.24s.8,13,23.69,25c0,0,5.26,8.19-6.07,5.8,0,0-27.62-12.34-29.79-29.35C1291.84,884.69,1298.17,880.84,1304,883.24Z"/>
      <path class="cls-6" d="M1286.63,886s-.63,11,23.45,27.73c0,0,2.74,4.23-9.34,3,0,0-20.64-8.53-25.06-27.54C1275.68,889.18,1281.06,885.34,1286.63,886Z"/>
      <path class="cls-7" d="M1271.33,890.61s-.09,13.5,17.41,23.7c0,0,3.42,6.58-7.72,5.82,0,0-16.74-9.7-18.74-24.41C1262.28,895.72,1264.6,891.06,1271.33,890.61Z"/>
    </g>
    <path class="cls-8" d="M1467.44,791.09s53.9,72.12,104.15,55.68c0,0,35.81-8.37,54.13-67.67,0,0,10.43-53.11,4-70.78,0,0-29.94-45.61,32.84-97,0,0,24,26.21,12.22,56.59,0,0-12.07,21.33-20.93,30.32,0,0-3.58,65.7-19.42,99.68,0,0-26.79,66.78-75,68.32,0,0-34.19,13.47-104.52-59.45l-21.69-42.34Z"/>
    <path class="cls-8" d="M1373.78,551.89l-10.35,71.61-1.07,188.33s3.26,62,66.62,61.23c0,0,68.68,4.14,80.25-32.46,0,0,19.6-11.14-11-118s-38.64-164.37-38.64-164.37l-48.81-23Z"/>
    <path class="cls-9" d="M1363.36,615.94s13.89-11.51,19,5.65l21,82.29,16,55.67s17.68,75.17-2.11,86.93c0,0-27.07,15.7-49.8-6,0,0-27.46-21.75-17.63-111.8C1349.78,728.68,1347.63,652,1363.36,615.94Z"/>
    <g>
      <path class="cls-10" d="M1309.84,562.59s8.33,17.47,1.53,30.94l6.57-3.21s26.73-5.07,27.48-5.43S1340.1,549,1340.1,549s-25.7-4.67-26.37-4S1309.84,562.59,1309.84,562.59Z"/>
      <path class="cls-8" d="M1342.14,407.63s-25.79,5.08-30.2,43c0,0-3,17.88-15.64,27.5,0,0-50,32.08-52.34,38.47l-2.17,12.4s34.9-4.14,45.83-.76c0,0,29.73,6,35.6,13.18,0,0,25.46,23.42,25.33,38.7,0,0-.79,23.18-5.76,36.54,0,0,36.81-4.38,43.18-8.35,0,0,58.19-18,94.32-73.66,0,0,47.44-3.53,57.17-27.17,0,0,19.74-26.53-9.91-70.32,0,0-22.35-19.13-51-7.78,0,0-11.76,3.93-15.51,9a68.25,68.25,0,0,0-35.32-27.86s-27.25-6.8-22.18-32.94c0,0-9.09,11.72-10.14,22.06,0,0-3.9,8.39-6.26-4.77,0,0,1-22.34-8.79-31.79,0,0-1.64,13.3-7,22.4,0,0-9.09,10.38-6.46,16.76,0,0-8.71-6.5-6.53-26.87C1358.32,375.29,1341.22,393.26,1342.14,407.63Z"/>
      <path class="cls-11" d="M1271.25,525.87s30.11-.39,52.36,14.4c0,0,21,21.83,24.52,35.53,0,0,3,31.31-10.11,49.76,0,0-25.29,21.9-54,1.7,0,0-5.67-7.47-7.13-14,0,0-2.44-3.11-4.17-4,0,0,31.24-7.81,43-19.55,0,0,14.77-13.17,9.94-30.07,0,0-34.69,11.38-65.58,10,0,0-26.23-21.84-19.62-40l10-5.57Z"/>
      <path class="cls-12" d="M1257.83,521.33s17.74-2.85,20.28-.81c0,0,5.53,5.88,1.79,9.65,0,0-11.34,17.38-38.6,9.87,0,0,3.73,13.94,19.92,25.41,0,0,15.75,9.06,67.69-10.34a46.84,46.84,0,0,1-2.15,22.43s-3.56,12.36-7.57,15.06c0,0-17.24,15.78-45.92,16.56,0,0,27.58-8.62,42.51-19.38,0,0,12.13-12.33,9.83-29.87,0,0-28,17.07-66.84,11,0,0-23.48-17-20.93-48.37,0,0,1.42-7.58,9.12-5.69Z"/>
      <path class="cls-13" d="M1475.83,458.73s-12.56,11.94-7.26,28.72a97.28,97.28,0,0,0,5.47,12.2s7.37,15.74,5.81,18.82c0,0,25.84-.73,31-25.05,0,0,8.66-26.55-16.72-37.19C1494.16,456.23,1482.35,452.7,1475.83,458.73Z"/>
      <path class="cls-14" d="M1467.86,472.19s.39-30,40-28.85c0,0-17.23,2.22-26.17,11.22,0,0,13.11-3.85,24.15,9.77C1505.8,464.33,1483.46,445.87,1467.86,472.19Z"/>
      <path class="cls-14" d="M1320.64,455.09s13-25.82,27.38-24.46c0,0,18.87,1.81,24.15,30.38C1372.17,461,1358.43,425.62,1320.64,455.09Z"/>
      <circle class="cls-3" cx="1342.42" cy="491.4" r="28.87" transform="translate(45.71 1093.16) rotate(-45)"/>
      <circle class="cls-15" cx="1340.95" cy="491.85" r="22.08" transform="translate(607.61 1717.53) rotate(-79.25)"/>
      <circle class="cls-16" cx="1340.94" cy="491.59" r="15.96" transform="translate(-41.19 131.75) rotate(-5.54)"/>
      <circle class="cls-3" cx="1347.65" cy="480" r="5.37"/>
    </g>
    <g>
      <path class="cls-8" d="M1473.66,769.86s19,9.23,50.73,59.67c0,0,40.15,11.46,69.69,42.14,0,0,12.89,27.44-13,48.79,0,0-49.88-23.73-72.23-21.92,0,0-29.77-3.9-47-19.71l-27.59-45.61Z"/>
      <path class="cls-3" d="M1566.46,890.54l-7.25-5.08a15.68,15.68,0,0,0-12.77.79c-15.6,7.07-17.88,14.08-17.88,14.08-3,5.71.66,13.74,2.27,16.73-13.48,49.33-1.55,55.21-1.55,55.21,13.11,23.31,38.22,7.91,38.22,7.91,31.24-16.12,59.6-77.08,59.6-77.08-3.74-11.81-36.5-34.45-36.5-34.45C1583.24,900.94,1566.46,890.54,1566.46,890.54Z"/>
      <path class="cls-4" d="M1621.77,894.87s-30,63.09-61.27,79.21c0,0-15.51,9.51-28.52,2.26,13.57,17.29,35.52,3.84,35.52,3.84,31.24-16.12,59.6-77.08,59.6-77.08A10,10,0,0,0,1621.77,894.87Z"/>
      <path class="cls-5" d="M1531,919.65s12.19,4.52,32.45-11.55c0,0,9.61-1.49,2.85,7.9,0,0-22.46,20.26-38.89,15.36C1527.45,931.36,1526.48,924,1531,919.65Z"/>
      <path class="cls-6" d="M1526.52,936.65s9.76,5,34.84-10.22c0,0,5-.8-1,9.75,0,0-16.15,15.42-35.33,11.79C1525,948,1523.68,941.49,1526.52,936.65Z"/>
      <path class="cls-7" d="M1524.57,952.52s12.3,5.54,28.71-6.34c0,0,7.41-.46,2.2,9.42,0,0-15.64,11.38-29.9,7.26C1525.58,962.86,1522.26,958.86,1524.57,952.52Z"/>
    </g>
    <path class="cls-8" d="M1423.94,609.49l72.36,85s29,41.7,31.41,44.6l3.65,22.14-1.41,8.31s-5.7,22.53,11,30c0,0,15.56,4.36,21.51-5.52,0,0,13.06,21.25,29-3.8,0,0,14.12,1.63,18.9-13.33,0,0,3.61-12.13-2.91-17.65,0,0,13.36-6.82,5.16-20.63,0,0-5.37-8.67-14.78-9.76l-27.53-15s-62.78-73.35-89.62-94L1453,592.5s-10.75-10.09-24.55-5.84C1428.42,586.66,1413,590.68,1423.94,609.49Z"/>
  </g>
</svg>
