<svg id="Layer_6" data-name="Layer 6" xmlns="http://www.w3.org/2000/svg" viewBox="0 0 1920 1080">
  <defs>
    <style>
      .cls-1 {
        fill: #d3af5d;
      }

      .cls-2 {
        fill: #987647;
      }

      .cls-3 {
        fill: #fff;
      }

      .cls-4 {
        fill: #010084;
      }

      .cls-5 {
        fill: #06b800;
      }

      .cls-6 {
        fill: #f86531;
      }

      .cls-7 {
        fill: #0798ff;
      }

      .cls-8 {
        fill: #e1bd6c;
      }

      .cls-9 {
        fill: #b8b182;
      }

      .cls-10 {
        fill: #620000;
      }

      .cls-11 {
        fill: #ffe6bc;
      }

      .cls-12 {
        fill: #4e2921;
      }

      .cls-13 {
        fill: #a56636;
      }

      .cls-14 {
        fill: #49301d;
      }

      .cls-15 {
        fill: #492b19;
      }

      .cls-16 {
        fill: #221f1f;
      }
    </style>
  </defs>
  <title>LittleLion-running_on_the_spot-7</title>
  <g>
    <g>
      <g>
        <path class="cls-1" d="M1337.73,681.85c2.88,5.26,6.59,10.33,11.66,13.68a24.14,24.14,0,0,0,4.44,2.27c23.23-24.48,45.79-50.68,45.79-50.68,12.25-14,2.66-21.8,2.66-21.8-19.29-12.12-23.7-5.28-23.7-5.28l-25.2,22.49c-2.47,5-9.93,12.37-19.32,20.29C1331.94,669.07,1334.64,676.19,1337.73,681.85Z"/>
        <g>
          <path class="cls-1" d="M1320.87,698A44.47,44.47,0,0,1,1331,680.8c3.18-3.48,7.11-6.52,11.62-7.49-27.48-13-62.05-34.28-62.05-34.28-1.31-3.17-18.59-25.91-18.59-25.91-2.7-17.62-20.18-19-20.18-19-12.44.1-17.77,14.61-17.77,14.61-10.43-3.63-18.38,4.13-18.38,4.13-6.75,5.59-4.17,15.89-4.17,15.89-9.83.35-10.19,14-10.19,14-1.35,17.19,10.52,19.35,10.52,19.35-8.78,23,19.51,24.45,19.51,24.45l2.38-.78,16-2.7c14.24,1.4,24-1.25,24-1.25,5.11,6.06,30.13,15.68,56.25,24.48A25.64,25.64,0,0,1,1320.87,698Z"/>
          <g>
            <path class="cls-2" d="M1261.7,668.86a9.74,9.74,0,0,1-4.84,3.27,8.45,8.45,0,0,1-4.46.72,7.42,7.42,0,0,1-4-2.75,40.18,40.18,0,0,1-3.08-4.35l-5.93-9.19c-2.07-3.22-4.24-6.81-3.65-10.58s3.85-6.77,7.39-8.38c4.51-2.06,9.57-2.53,14.51-3,2.34-.21,4.69-.42,7-.47a9.52,9.52,0,0,1,5.12,1c3.15,1.86,3.48,6.45,2.07,9.82s-4.08,6.06-5.93,9.22a21.24,21.24,0,0,0-2.72,8.16C1262.89,664.55,1263,667,1261.7,668.86Z"/>
            <path class="cls-2" d="M1239.5,611.86c0-3.1,1.52-6.51,4.46-7.51a6.67,6.67,0,0,1,6,1.18,13.34,13.34,0,0,1,3.86,5,13.62,13.62,0,0,1,1.69,7.23,6.87,6.87,0,0,1-4.1,5.84,10,10,0,0,1-3.72.4,5.27,5.27,0,0,1-1.48-.19,4.51,4.51,0,0,1-1.37-.81A14,14,0,0,1,1239.5,611.86Z"/>
            <path class="cls-2" d="M1215.56,623.06a5.11,5.11,0,0,1,1.07-2.22,9.36,9.36,0,0,1,9.4-3,12.92,12.92,0,0,1,7.92,6.3c1,1.74,1.64,3.89.82,5.72a5.13,5.13,0,0,1-1.34,1.76,9.19,9.19,0,0,1-8.43,1.67,15.47,15.47,0,0,1-7.32-4.93C1216.36,626.9,1215.19,625,1215.56,623.06Z"/>
            <path class="cls-2" d="M1224,653.19a11.74,11.74,0,0,1-8.48,1.75,12.94,12.94,0,0,1-7.91-4.21,6.41,6.41,0,0,1-1.44-2.66,5.62,5.62,0,0,1,1.63-5,11,11,0,0,1,4.7-2.62,15.39,15.39,0,0,1,8.61-.4,9.57,9.57,0,0,1,6.41,5.45,4.81,4.81,0,0,1,.37,2.31,5.55,5.55,0,0,1-.85,2.11A11.11,11.11,0,0,1,1224,653.19Z"/>
            <path class="cls-2" d="M1226.9,680.3a10.1,10.1,0,0,1-5.89.05,6.1,6.1,0,0,1-4-4.06,8.77,8.77,0,0,1,.58-5,6.21,6.21,0,0,1,.81-1.73,5.89,5.89,0,0,1,1.54-1.36c3.92-2.66,9-4.31,13.39-2.35a5.55,5.55,0,0,1,3.07,2.93c.67,1.79,0,3.79-1,5.35A14.74,14.74,0,0,1,1226.9,680.3Z"/>
          </g>
        </g>
        <path class="cls-1" d="M1353.83,697.8a74.07,74.07,0,0,1-22.76,8.62,29.53,29.53,0,0,1-8.15-10.79,30.28,30.28,0,0,1-1.58-19.13,19.35,19.35,0,0,1,2.12-4.12,36.61,36.61,0,0,1,10.63-9.55c11.32-7.28,20.14,7.29,20.14,7.29Z"/>
      </g>
      <g>
        <path class="cls-1" d="M1463,789.73s5.32,20.45-12.44,77.32c0,0,17.36,38,13.21,80.37,0,0-12.5,27.62-45.53,21.82,0,0-14.34-53.34-30.23-69.17,0,0-16.36-25.16-15.55-48.57l16.78-50.6Z"/>
        <g>
          <path class="cls-3" d="M1432.07,933.13l-1.91-8.64a15.7,15.7,0,0,0-10-8.06c-16.27-5.33-22.69-1.7-22.69-1.7-6.1,2.15-8.8,10.56-9.64,13.86-43.28,27.23-38.47,39.62-38.47,39.62-6.09,26,22.82,31.68,22.82,31.68,33.91,9.24,96-16.51,96-16.51,5.23-11.23-3.61-50.06-3.61-50.06C1437.4,952.14,1432.07,933.13,1432.07,933.13Z"/>
          <path class="cls-4" d="M1469.89,973.71s-64.78,26.2-98.69,16.95c0,0-17.86-3.48-22.55-17.62-1.69,21.92,23.58,26.85,23.58,26.85,33.91,9.24,96-16.51,96-16.51A9.93,9.93,0,0,0,1469.89,973.71Z"/>
          <path class="cls-5" d="M1386.28,930.64s5.93,11.56,31.72,13.42c0,0,8.1,5.4-3.24,7.75,0,0-30.25-.26-39-15C1375.72,936.84,1380,930.77,1386.28,930.64Z"/>
          <path class="cls-6" d="M1371.46,940.11s3.8,10.29,32.58,16c0,0,4.21,2.78-7.35,6.49,0,0-22.32.45-34-15.2C1362.7,947.42,1366.09,941.75,1371.46,940.11Z"/>
          <path class="cls-7" d="M1359.29,950.48s5.32,12.4,25.45,14.74c0,0,5.76,4.67-4.75,8.43,0,0-19.22-2.19-27-14.86C1353,958.79,1353.31,953.58,1359.29,950.48Z"/>
        </g>
      </g>
      <path class="cls-8" d="M1456.85,802.72s49.59,75.15,100.72,61.68c0,0,36.24-6.27,58-64.4,0,0,13.52-52.41,8.09-70.43,0,0-27.22-47.28,38.46-94.93,0,0,22.44,27.57,8.89,57.2,0,0-13.3,20.6-22.67,29.06,0,0-7.41,65.37-25.21,98.36,0,0-30.65,65.11-78.83,63.83,0,0-34.92,11.45-100.87-65.45l-19.18-43.54Z"/>
      <path class="cls-8" d="M1377.33,558.46l-14.52,70.88-12.07,187.95s-.37,62.13,62.93,65c0,0,68.32,8.15,82-27.71,0,0,20.22-10-4.13-118.43s-29-166.35-29-166.35L1415.19,544Z"/>
      <path class="cls-9" d="M1363.19,621.79s14.53-10.68,18.59,6.74l16.14,83.39,12.74,56.5s13.25,76.08-7.19,86.66c0,0-27.94,14.09-49.36-8.9,0,0-26.15-23.31-11.07-112.64C1343,733.54,1345.37,656.82,1363.19,621.79Z"/>
      <g>
        <path class="cls-10" d="M1312.88,565.41s7.28,17.92-.29,31l6.75-2.82s27-3.5,27.75-3.81-3.21-36.16-3.21-36.16-25.39-6.17-26.09-5.54S1312.88,565.41,1312.88,565.41Z"/>
        <path class="cls-8" d="M1354.18,412.59s-26,3.57-32.67,41.14c0,0-4,17.68-17.21,26.53,0,0-51.8,29.11-54.5,35.35l-2.9,12.24s35.09-2.09,45.8,1.92c0,0,29.33,7.69,34.77,15.24,0,0,24,24.86,23,40.12,0,0-2.14,23.09-7.89,36.13,0,0,37-2.21,43.6-5.81,0,0,59.14-14.53,98.45-68,0,0,47.57-.75,58.67-23.78,0,0,21.26-25.33-5.79-70.78,0,0-21.19-20.4-50.46-10.74,0,0-12,3.23-16,8a68.18,68.18,0,0,0-33.63-29.88s-26.81-8.38-20.22-34.17c0,0-9.76,11.17-11.41,21.43,0,0-4.39,8.14-6-5.14,0,0,2.31-22.23-6.93-32.24,0,0-2.41,13.18-8.32,22,0,0-9.69,9.83-7.43,16.35,0,0-8.32-7-5-27.2C1372.22,381.26,1354.1,398.2,1354.18,412.59Z"/>
        <path class="cls-11" d="M1276.49,526.49s30.09,1.37,51.43,17.44c0,0,19.71,23,22.41,36.9,0,0,1.13,31.43-13,49.08,0,0-26.53,20.39-54-1.45,0,0-5.22-7.79-6.3-14.35,0,0-2.26-3.25-3.93-4.21,0,0,31.64-6,44.08-17,0,0,15.5-12.28,11.68-29.43,0,0-35.3,9.33-66.06,6.19,0,0-24.91-23.32-17.25-41l10.3-5Z"/>
        <path class="cls-12" d="M1263.37,521.18s17.87-1.82,20.28.37c0,0,5.18,6.2,1.23,9.74,0,0-12.33,16.68-39.11,7.59,0,0,2.91,14.14,18.4,26.54,0,0,15.19,10,68.18-6.37a46.78,46.78,0,0,1-3.46,22.27s-4.28,12.13-8.44,14.59c0,0-18.13,14.75-46.8,13.85,0,0,28-7,43.57-16.87,0,0,12.82-11.6,11.55-29.24,0,0-29,15.4-67.37,7.11,0,0-22.45-18.34-18.06-49.5,0,0,1.86-7.49,9.44-5.15Z"/>
        <path class="cls-13" d="M1484.65,471.42s-13.24,11.19-8.93,28.24a97.67,97.67,0,0,0,4.75,12.5s6.44,16.15,4.7,19.13c0,0,25.84.79,32.44-23.19,0,0,10.2-26-14.52-38.1C1503.09,470,1491.51,465.79,1484.65,471.42Z"/>
        <path class="cls-14" d="M1475.9,484.39s2.15-29.91,41.58-26.46c0,0-17.32,1.21-26.78,9.67,0,0,13.32-3.08,23.54,11.17C1514.24,478.77,1493,459,1475.9,484.39Z"/>
        <path class="cls-14" d="M1329.93,458.72s14.49-25,28.77-22.82c0,0,18.73,2.91,22.34,31.74C1381,467.64,1369.38,431.51,1329.93,458.72Z"/>
        <circle class="cls-3" cx="1349.55" cy="496.22" r="28.87"/>
        <circle class="cls-15" cx="1347.93" cy="496.53" r="22.08" transform="translate(762.71 1808.38) rotate(-86.18)"/>
        <circle class="cls-16" cx="1348.07" cy="496.35" r="15.96" transform="translate(-50.67 168.96) rotate(-7.04)"/>
        <circle class="cls-3" cx="1355.45" cy="485.16" r="5.37"/>
      </g>
      <path class="cls-8" d="M1534.53,637.83c-20.29-9.78-40.67-18.88-53.2-22.57l-35.77-15.53s-13.66-5.55-25,3.44c0-.07-13,9.25,4.08,22.84l98.11,53.22,3.65,2.46C1521.52,667.08,1524.76,649.31,1534.53,637.83Z"/>
      <path class="cls-8" d="M1565.79,775.33s2.18-10-3.81-17.31l-9.28-29.94s2.25-35.66,2.92-71.13c-12.37-3.54-26.37-.61-37,6.4a40,40,0,0,0-6.54,5.41c-2.22,13.49-7.34,44.78-7.57,47.71L1491.7,734.9l-6.79,5s-19.8,12.19-13,29.19c0,0,8.12,14,19.28,11,0,0-5.44,24.34,23.47,17.52,0,0,9,11,22.85,3.6,0,0,11-6.19,10.22-14.69C1547.72,786.52,1562,790.94,1565.79,775.33Z"/>
      <path class="cls-1" d="M1319.92,706.37s6.71,2.47,11.15,0L1329,684.5l-11.5-2.5Z"/>
    </g>
    <g>
      <path class="cls-8" d="M1422.79,840.37c-6.76,4.79-14.64,7.33-22.56,9.49-11.79,3.21-27.32,6.55-39.48,1.86,10.35,16.44,27,28.14,27,28.14,20.66,8.74,53.91,52.84,53.91,52.84,32.8-7,34.06-37.26,34.06-37.26-10.56-36-35.28-62.5-41.07-68.38A41.46,41.46,0,0,1,1422.79,840.37Z"/>
      <path class="cls-8" d="M1433.14,771.47l-47.53,24.14a56.21,56.21,0,0,0-6.91,7.95c0,6.75,2.52,13.52,5.63,19.47a116.91,116.91,0,0,0,13.92,20.12c4.74,5.73,10.14,11.1,16.74,14.66a40.44,40.44,0,0,0,14.91,4.46c.16-.42.24-.65.24-.65,52.65-27.9,63.27-46.17,63.27-46.17Z"/>
      <path class="cls-3" d="M1442.54,899.4l-4.08-7.86a15.67,15.67,0,0,0-11.69-5.21c-17.1-.94-22.36,4.22-22.36,4.22-5.34,3.66-5.77,12.49-5.73,15.88-34.76,37.5-26.9,48.23-26.9,48.23.84,26.73,30.23,24.7,30.23,24.7,35.15.15,88.49-40.79,88.49-40.79,2.14-12.2-16.44-47.42-16.44-47.42C1452.61,916.38,1442.54,899.4,1442.54,899.4Z"/>
      <path class="cls-4" d="M1489.58,928.81s-55.8,42.06-91,41.9c0,0-18.15,1.26-26.33-11.19,4,21.61,29.72,19.84,29.72,19.84,35.15.15,88.49-40.79,88.49-40.79A9.94,9.94,0,0,0,1489.58,928.81Z"/>
      <path class="cls-5" d="M1397.67,908.83s8.72,9.64,34.12,4.76c0,0,9.21,3.12-1.13,8.32,0,0-29.29,7.58-41.59-4.36C1389.07,917.55,1391.61,910.59,1397.67,908.83Z"/>
      <path class="cls-6" d="M1385.8,921.81s6.34,9,35.62,7.05c0,0,4.78,1.59-5.42,8.17,0,0-21.45,6.21-36.77-5.89C1379.23,931.14,1381.05,924.78,1385.8,921.81Z"/>
      <path class="cls-7" d="M1376.73,935s8.35,10.6,28.39,7.65c0,0,6.78,3-2.4,9.38,0,0-19.13,2.85-29.87-7.4C1372.85,944.61,1371.76,939.52,1376.73,935Z"/>
      <path class="cls-8" d="M1385.67,795.67s-34.68,21.27-24.92,56.05L1396,866l44-11,8.5-40L1399,795Z"/>
    </g>
  </g>
  <path class="cls-8" d="M1533.62,637.5s23.07,8.88,22,20.54l-27.28,16.34-22.25-29.63Z"/>
</svg>
