<svg id="Layer_5" data-name="Layer 5" xmlns="http://www.w3.org/2000/svg" viewBox="0 0 595.28 1387.94"><defs><style>.cls-1{fill:#bea05c;}.cls-2{fill:#dfbc6d;}.cls-3{fill:#987647;}.cls-4{fill:#b6b081;}.cls-5{fill:#d5b367;}.cls-6{fill:#a56737;}.cls-7{fill:#fff;}.cls-8{fill:#4c3421;}.cls-9{fill:#030202;}.cls-10{fill:#ffe5bb;}.cls-11{fill:#4e2a21;}.cls-12{fill:#600b0c;}.cls-13{fill:#d42027;}.cls-14{fill:#dfbc6c;}.cls-15{fill:#2c2c79;}.cls-16{fill:#2db24c;}.cls-17{fill:#f16838;}.cls-18{fill:#4b8fcc;}</style></defs><title>LittleLion-jumping_and_landing-1</title><g id="character"><path class="cls-1" d="M50.56,1201.59c-.76,1,.28,4,.28,5.09,0,12.19,3.14,23.38,13.18,30.31,9.31,6.37,20.42,6,31.61,7.6a54.5,54.5,0,0,1,26.8,9.12c4.46,3.35,8.68,9.16,13,12.74a300.1,300.1,0,0,0,27.39,20.91c18,11.59,32.93,21.62,58.46,25.45,28.91,4.34,44.28,1.51,60.69-12.27s26.64-32.89,33.13-57.06a11.35,11.35,0,0,0-5.58-13.18,8.35,8.35,0,0,0-10.19,3.46,24,24,0,0,0-2.87,10.31A86.93,86.93,0,0,1,281,1280.91a51.48,51.48,0,0,1-32.45,18.64c-9.2,1.35-19.55,3.58-28.71,2a123.94,123.94,0,0,1-34.93-13.26,111.69,111.69,0,0,1-22.77-16.37,85.26,85.26,0,0,1-25.09-33.49,97.21,97.21,0,0,0-10.63-14.85,83.63,83.63,0,0,0-23.9-18.28c-16.56-8.24-30.26-8-48.62-5.74A4.5,4.5,0,0,0,50.56,1201.59Z"/><path class="cls-2" d="M320.78,1249.29s-78,7.61-94.85-66c-10.63-41-.44-98.52.32-105.13s4-37,4-42.05,3.23-35,10-45.64,22.38-47,71.17-46.87,72.47,38.51,77.77,48.07c15.92,17.68,21,85.73,21.94,106.36s29,124-46.47,142.44C342.41,1250.8,333.61,1248.57,320.78,1249.29Z"/><path class="cls-2" d="M368.85,1000.53s76.29,37.63,84.18,70.92c-2.19,35.84-13.58,35.28-18.64,40.26,0,0-17.2,17.52,4.58,28.51,5.06,1.39,6.93-.72,8.56,6.09a12.94,12.94,0,0,0,13.82,9c4.34-.75,6.93-2.31,10.71.24a15.24,15.24,0,0,0,17.52-2.43c5.26-5.21,4.35-7.12,4.5-8s-.87-3.47,6.06-4.22a13.18,13.18,0,0,0,8-16.85v0c-1.67-4.46-8.76-19.31-10.35-23.09a63.51,63.51,0,0,1-4.74-19.36c-4.7-78.56-94.1-104-100.27-114.56S334.52,960.23,368.85,1000.53Z"/><path class="cls-3" d="M456.13,1099.05a8,8,0,0,0-4,2.78,6.65,6.65,0,0,0-1.87,3.19,6.19,6.19,0,0,0,.92,4,33.17,33.17,0,0,0,2.43,3.66L459,1120a13.45,13.45,0,0,0,7.09,6,9.9,9.9,0,0,0,8.6-3.23,36.83,36.83,0,0,0,6.57-10.31c.84-1.76,1.71-3.47,2.43-5.26a8,8,0,0,0,.8-4.22,6.58,6.58,0,0,0-7-4.5,68.31,68.31,0,0,0-8.84,1.83,17.12,17.12,0,0,1-7.09-.32A12.4,12.4,0,0,0,456.13,1099.05Z"/><path class="cls-3" d="M493.45,1132.93a6.38,6.38,0,0,0,7.09-1.23,5.59,5.59,0,0,0,.87-4.94,11.32,11.32,0,0,0-2.71-4.42,11.16,11.16,0,0,0-5.09-3.42,5.72,5.72,0,0,0-5.7,1.43,8.91,8.91,0,0,0-1.39,2.75,4.39,4.39,0,0,0-.28,1.19,4.17,4.17,0,0,0,0,1.32A11.54,11.54,0,0,0,493.45,1132.93Z"/><path class="cls-3" d="M477.76,1148.07a4.51,4.51,0,0,0,2-.2,7.64,7.64,0,0,0,5.06-6.33,10.69,10.69,0,0,0-2.51-8,5.41,5.41,0,0,0-4-2.31,4.33,4.33,0,0,0-1.76.52,7.53,7.53,0,0,0-4,6,12.72,12.72,0,0,0,1.63,7.09A5.57,5.57,0,0,0,477.76,1148.07Z"/><path class="cls-3" d="M457.09,1132.54a9.68,9.68,0,0,0-4,6,10.88,10.88,0,0,0,.91,7.33,5.88,5.88,0,0,0,1.64,1.87,4.61,4.61,0,0,0,4.3,0,9.27,9.27,0,0,0,3.38-2.83,12.47,12.47,0,0,0,2.87-6.49,8,8,0,0,0-2.31-6.57,4.06,4.06,0,0,0-1.67-1,4.9,4.9,0,0,0-1.87,0A9.24,9.24,0,0,0,457.09,1132.54Z"/><path class="cls-3" d="M437.06,1122.46a8.23,8.23,0,0,0-1.75,4.5,4.88,4.88,0,0,0,1.91,4.3,7.16,7.16,0,0,0,4,1,4.09,4.09,0,0,0,1.56,0,4.78,4.78,0,0,0,1.47-.76,11.94,11.94,0,0,0,5.77-9.64,4.73,4.73,0,0,0-1.35-3.22,5.17,5.17,0,0,0-4.46-.76A12,12,0,0,0,437.06,1122.46Z"/><path class="cls-2" d="M265,1004.39s-76.29,37.59-84.18,70.92c2.19,36,13.58,35.28,18.64,40.26,0,0,17.2,17.52-4.58,28.51-5.06,1.4-6.93-.75-8.56,6.06a12.91,12.91,0,0,1-13.82,9c-4.34-.8-6.93-2.31-10.71,0a15.17,15.17,0,0,1-17.52-2.39c-5.26-5.22-4.34-7.13-4.5-8s.87-3.46-6.06-4.22a13.18,13.18,0,0,1-8-16.85v0c1.67-4.5,8.76-19.32,10.35-23.14a63.73,63.73,0,0,0,4.78-19.35c5-78.33,94.1-103.74,100.55-114.33S299.32,964.09,265,1004.39Z"/><path class="cls-3" d="M177.71,1102.91a7.94,7.94,0,0,1,4,2.75,6.78,6.78,0,0,1,1.87,3.22,6.19,6.19,0,0,1-.92,4,34.27,34.27,0,0,1-2.43,3.67l-5.33,7.28a13.21,13.21,0,0,1-7.09,5.94,9.66,9.66,0,0,1-8.6-3.23,36.49,36.49,0,0,1-6.57-10.27c-.84-1.75-1.71-3.51-2.43-5.3a7.42,7.42,0,0,1-.76-4.22,6.49,6.49,0,0,1,6.93-4.46,69.66,69.66,0,0,1,8.84,1.83,16.79,16.79,0,0,0,7.09-.32A12.4,12.4,0,0,1,177.71,1102.91Z"/><path class="cls-3" d="M140.39,1136.8a6.46,6.46,0,0,1-7.09-1.24,5.42,5.42,0,0,1-.83-4.94,10.93,10.93,0,0,1,2.67-4.42,11.37,11.37,0,0,1,5.09-3.42,5.63,5.63,0,0,1,5.7,1.43,7.94,7.94,0,0,1,1.39,2.75,3.29,3.29,0,0,1,.28,1.2,3.9,3.9,0,0,1-.2,1.31A11.55,11.55,0,0,1,140.39,1136.8Z"/><path class="cls-3" d="M156.08,1151.93a4.51,4.51,0,0,1-2-.2,7.61,7.61,0,0,1-5.06-6.33,10.79,10.79,0,0,1,2.51-8,5.44,5.44,0,0,1,4-2.31,4.31,4.31,0,0,1,1.71.52,7.53,7.53,0,0,1,4,6,12.7,12.7,0,0,1-1.63,7.09A5.69,5.69,0,0,1,156.08,1151.93Z"/><path class="cls-3" d="M176.75,1136.52a9.7,9.7,0,0,1,4,6,10.88,10.88,0,0,1-.91,7.33,5,5,0,0,1-1.64,1.87,4.61,4.61,0,0,1-4.3,0,9.27,9.27,0,0,1-3.38-2.83,12.63,12.63,0,0,1-2.87-6.49,8,8,0,0,1,2.31-6.57,4.06,4.06,0,0,1,1.67-1,4.22,4.22,0,0,1,1.87,0A9.41,9.41,0,0,1,176.75,1136.52Z"/><path class="cls-3" d="M196.78,1126.28a8.67,8.67,0,0,1,1.79,4.54,5.08,5.08,0,0,1-1.95,4.3,7.32,7.32,0,0,1-4,1,5,5,0,0,1-1.55,0,5.58,5.58,0,0,1-1.48-.8,11.69,11.69,0,0,1-5.77-9.59,4.75,4.75,0,0,1,1.35-3.23,5.2,5.2,0,0,1,4.46-.88A12.31,12.31,0,0,1,196.78,1126.28Z"/><path class="cls-4" d="M252.77,1129.27s-17.6-56.47-2.27-87.21,35.24-46.71,65.86-46.67,57.78,7.33,68.42,33c17,36.4.91,104.77-8,128.19s-19.15,50.61-54.43,52.6S261.33,1189.72,252.77,1129.27Z"/><path class="cls-5" d="M269.29,992a376.64,376.64,0,0,1-37.63-25.93,155.58,155.58,0,0,0-22.1-13.7,53.94,53.94,0,0,1-28.47-38.86c0-.36-.48-.68-.76-1-.47-4-1.07-8-1.43-11.94a106.67,106.67,0,0,1,1.15-22.86c.4-.2,1-.28,1.16-.6a128.09,128.09,0,0,1,14.34-17.76,17,17,0,0,0,4.22-14.17,74.37,74.37,0,0,0-2.15-8.17c0-.36,0-.79-.56-.63h0c.32-1.52-.76-2.51-1.47-3.59a27.34,27.34,0,0,0-29-11.94c-4.86,1.11-4.86,1.11-6.3,2.19a54.13,54.13,0,0,1,21.63,2.5,22.32,22.32,0,0,0-15.14,12.35h0c-.63.28-.59.84-.55,1.39-4.94,10.87-5.5,21.43,2.35,31.34a1.45,1.45,0,0,1,.35,1.52,43.07,43.07,0,0,1-22.37-21.91c-7.53-16.92-5.22-33.53,4-49.14,5.21-8.84,15.41-11.94,27.16-9.27a33.47,33.47,0,0,1,12.18,5.13,36.83,36.83,0,0,0,22.58,5.78,6.68,6.68,0,0,0,4-2.11,175.69,175.69,0,0,1,59.1-32.26,8.25,8.25,0,0,0,6.77-6.65,42.12,42.12,0,0,1,12.54-20.9c.8-.72,1.75-1.84,2.83-1.48s.51,1.91.63,2.91a36.36,36.36,0,0,0,8,19.07c.63.72,1.27,1.6,2.43,1.52a.61.61,0,0,0,0,.27h0l.36-.19a55.93,55.93,0,0,1,2.19-19,90.92,90.92,0,0,0,3.14-17.48,32.6,32.6,0,0,1,8,12.46c2.42,6.14,4.38,12.47,6.57,18.68a22.23,22.23,0,0,0,2.43,4.94c.51.83,1.11,1.95,2.15,1.87s1.71-1.35,2.11-2.35a23.62,23.62,0,0,0,1.31-6.81,32.73,32.73,0,0,1,2.95-12.58,10.06,10.06,0,0,1,4-4.78h0a75.24,75.24,0,0,0,.28,8,12.88,12.88,0,0,0,4,8.68,18.14,18.14,0,0,1,5.14,11.07,4,4,0,0,0,3.3,4,320.2,320.2,0,0,1,73.59,30.94,21.93,21.93,0,0,0,21.07.36,95.59,95.59,0,0,0,12.22-8,26,26,0,0,1,39.42,13.7c7.41,22.1.76,41.41-19.91,56.15a60.22,60.22,0,0,1-15.61,8.8,30.26,30.26,0,0,0,5.94-21.23c-.32-3.74-2.07-7-2.63-10.63l-.48-.56h0A22.08,22.08,0,0,0,455,825.43a58.08,58.08,0,0,1,21.86-2.15A27.74,27.74,0,0,0,467,820.7a26.51,26.51,0,0,0-27.64,15.92,19.92,19.92,0,0,0,3.82,25.13c2.27,2.27,4,4.94,6.25,7.33s3.63,6.09,6.22,8.6a66.2,66.2,0,0,1,.55,25.17,69.15,69.15,0,0,1-11.94,25A78.1,78.1,0,0,1,416,952a132.89,132.89,0,0,0-30.63,21.46,126.05,126.05,0,0,1-20.15,16.33c-.12,19.75-14.85,35-45.79,35.28C282.55,1025.34,272.56,1011.92,269.29,992Zm116-142.64a44,44,0,0,0-5.61.67,30,30,0,0,0-22.3,29.35,31.85,31.85,0,0,0,41.13,31.5c10.72-3,18.84-9.28,21-20.59a33.8,33.8,0,0,0-34.25-40.93ZM246,909.9c14.93.23,33-11.63,29.23-32.66a34.3,34.3,0,0,0-16.53-24.65c-11.55-6.81-25.6-4-36.24,7.09a27.3,27.3,0,0,0-9,23.42,31.13,31.13,0,0,0,32.41,26.8Z"/><path class="cls-6" d="M168.91,872.26a1.45,1.45,0,0,0-.4-1.55c-8-10.11-7.45-20.86-2.39-31.86a1.48,1.48,0,0,0,.56-1.39h0c1.59,0,2.23-1.47,3.14-2.39a17,17,0,0,1,24.05-1.59c.15.13.3.26.44.4,1,.79,1.67,1.87,3.07,2h0l.59.64a72.1,72.1,0,0,1,2.31,8.44,17.36,17.36,0,0,1-4.3,14.45,133.82,133.82,0,0,0-14.65,18.16c0,.32-.76.4-1.16.6a51,51,0,0,1-10.43-5.18c0-.52-.24-.79-.8-.68Z"/><path class="cls-6" d="M472.1,840.29c.44,3.78,2.07,7.25,2.23,11.15a31.08,31.08,0,0,1-7.12,21.7h0l-.88.48a30.3,30.3,0,0,1-11.95,5.65c-2.59-2.66-3.74-6.29-6.05-9.16s-4-5.45-6.13-8a20.78,20.78,0,0,1-2.51-26.4,19.25,19.25,0,0,0,5.14-3.27,17.29,17.29,0,0,1,22.06,2.19c1.63,1.56,3.1,3.35,4.62,5h0Z"/><path class="cls-7" d="M385.33,849.37a33.81,33.81,0,0,1,34.25,40.93c-2.19,11.31-10.31,17.6-21,20.59a31.85,31.85,0,0,1-41.13-31.5A30,30,0,0,1,379.72,850,44,44,0,0,1,385.33,849.37Zm-21.42,32.29a25.45,25.45,0,1,0,24.87-26A25.45,25.45,0,0,0,363.91,881.66Z"/><path class="cls-7" d="M245.8,909.9a31.14,31.14,0,0,1-32.57-26.8,27.28,27.28,0,0,1,9-23.42c10.63-11.07,24.68-13.9,36.23-7.09A34.27,34.27,0,0,1,275,877.24C278.85,898.27,260.73,910.13,245.8,909.9Zm-.4-4.62a25.17,25.17,0,0,0,24.66-25.67c0-.14,0-.28,0-.42a25.44,25.44,0,1,0-24.79,26.09Z"/><path class="cls-8" d="M412.41,849.29c-18.44-18.84-35.84-15-50.13,2.35-.56-.76,0-1.48,0-2a42,42,0,0,1,13.38-20.31,15.64,15.64,0,0,1,19.43-1.95A39.77,39.77,0,0,1,412.41,849.29Z"/><path class="cls-8" d="M270.13,850c-7.17-7.28-14.1-14.21-25-14s-17.92,6.09-24.81,13.14a2.36,2.36,0,0,1,0-2.19A42.92,42.92,0,0,1,235,827.51a16.12,16.12,0,0,1,19.91-.24A40.74,40.74,0,0,1,270.13,850Z"/><path class="cls-8" d="M197.62,836.78c-1.44,0-2.19-1.15-3.19-1.95a17.57,17.57,0,0,0-24.82.87l-.51.57c-.95,1-1.59,2.39-3.22,2.43a23.51,23.51,0,0,1,15.93-13.23A57.28,57.28,0,0,0,159,823.05c1.55-1.28,1.55-1.28,6.53-2.31A28.87,28.87,0,0,1,196.14,833C196.78,834.16,197.89,835.19,197.62,836.78Z"/><path class="cls-8" d="M471.7,839.77c-1.51-1.67-3-3.46-4.61-5A17.3,17.3,0,0,0,445,832.56a19.29,19.29,0,0,1-5.13,3.27,27.31,27.31,0,0,1,29.31-15.21,28.78,28.78,0,0,1,10.11,3.1A60.07,60.07,0,0,0,456.57,825,22.9,22.9,0,0,1,471.7,839.77Z"/><path class="cls-7" d="M307,762.92l.36.19h0v-.27Z"/><path class="cls-8" d="M196.14,837.86l-.59-.68C196.14,837.18,196.1,837.62,196.14,837.86Z"/><path class="cls-8" d="M363.91,881.66a25.44,25.44,0,1,1,26.15,24.73h-.15A25.4,25.4,0,0,1,363.91,881.66Zm41.49-4c3.23-4.38,3.23-8.28,0-11.19s-7-2.47-10.87,1a1.6,1.6,0,0,0-1.23-1.36,14,14,0,0,0-9.08.6A16.29,16.29,0,0,0,374.38,887,16.49,16.49,0,0,0,395,897.07C403,894,406.52,887.75,405.4,877.68Z"/><path class="cls-8" d="M245.4,905.28a25.45,25.45,0,1,1,24.65-26.23v.14a25.37,25.37,0,0,1-24.63,26.09ZM229.15,878.2a2.16,2.16,0,0,0-.63,1.79,15.92,15.92,0,0,0,15.16,16.66,16.27,16.27,0,0,0,3-.13,15.93,15.93,0,1,0-6.21-31.25,16.63,16.63,0,0,0-2.48.7c-4.81-2.15-8.28-1.55-10.63,1.83A7.73,7.73,0,0,0,229,878.2Z"/><path class="cls-9" d="M405.4,877.68c1.12,10.19-2.39,16.45-10.47,19.39A16.49,16.49,0,0,1,374.34,887a16.29,16.29,0,0,1,9.84-20.23,14,14,0,0,1,9.08-.6,1.6,1.6,0,0,1,1.23,1.36,11.06,11.06,0,0,0-1.31,3.7A7.26,7.26,0,0,0,396.4,878,8,8,0,0,0,405.4,877.68Z"/><path class="cls-7" d="M405.4,877.68a8,8,0,0,1-9,.36,7.26,7.26,0,0,1-3.22-6.85,11.06,11.06,0,0,1,1.31-3.7c4-3.47,7.73-4,10.87-1S408.67,873.18,405.4,877.68Z"/><path class="cls-9" d="M237.76,866a15.93,15.93,0,0,1,11.16,29.84,16.67,16.67,0,0,1-2.48.71,15.94,15.94,0,0,1-18-13.57,16.27,16.27,0,0,1-.13-3,2.14,2.14,0,0,1,.64-1.79,9.08,9.08,0,0,0,6,.91A7.57,7.57,0,0,0,237.76,866Z"/><path class="cls-7" d="M237.76,866A7.57,7.57,0,0,1,235,879.11a9.08,9.08,0,0,1-6-.91,7.72,7.72,0,0,1-1.84-10.4C229.47,864.42,232.94,863.82,237.76,866Z"/><path class="cls-10" d="M356.62,1013.07a31.77,31.77,0,0,1-13.58,8.36,81.53,81.53,0,0,1-13.62,3.15,111.12,111.12,0,0,1-16.72.48,92.88,92.88,0,0,1-17.92-1.75,30.58,30.58,0,0,1-15.61-8.49,41.75,41.75,0,0,1-8.32-17.24,229.42,229.42,0,0,1-7.49-37.71,28.44,28.44,0,0,1,0-7.6,29.61,29.61,0,0,1,3-8,87.91,87.91,0,0,1,5-9.28,48.89,48.89,0,0,1,28.28-20.23,55.84,55.84,0,0,1,34.88,2.51,43.29,43.29,0,0,1,7.05,3.51,58.93,58.93,0,0,1,7.37,5.61c10.91,9.76,19.91,23,19.91,37.63a66.86,66.86,0,0,1-.56,7.49,166.87,166.87,0,0,1-2,17.84C364.19,998.34,361.64,1007.82,356.62,1013.07Z"/><path class="cls-11" d="M342.64,921.2a15.4,15.4,0,0,1-4,12.67,30.13,30.13,0,0,1-23.89,11.51,34.38,34.38,0,0,1-25.57-12.27,12.73,12.73,0,0,1-3.42-8.48,9.5,9.5,0,0,1,3.42-7.13,27.8,27.8,0,0,1,8.37-3.06,61.9,61.9,0,0,1,19.15-2.2c1.95,0,8.4-.31,10.31,0a34.64,34.64,0,0,1,8,1.88A11.91,11.91,0,0,1,342.64,921.2Z"/><path id="_2" data-name=" 2" class="cls-12" d="M263.8,956.17s5.73,11.31,25.17,9.91,26.95-8.76,28.11-20.7c0,0,.52,20.5,25.33,22.38,0,0,17-1.12,25.32-11.31,0,0,1.59,1.11-.64,5.17-3.74,4.42-9.55,38.63-31.85,44.8s-37.63.32-43.81-3.26a43.13,43.13,0,0,1-18.31-23.9c-4-12.54-6.65-18.67-8.8-20.62S263.8,956.17,263.8,956.17Z"/><path class="cls-13" d="M294,999.57a10,10,0,0,1,5.66-4.38,29.28,29.28,0,0,1,7.21-1.11,14,14,0,0,1,6.53.95,11,11,0,0,0,4,1.76c3,.31,4-1.4,7.44-2a22.73,22.73,0,0,1,14.7,2.83,6.22,6.22,0,0,1,1.43,1.28c1.12,1.51,0,2.19-1,3.74s-3.39,1.07-4.74,2.39-2.51,0-3.63.67a12.8,12.8,0,0,1-5.57,2,37.26,37.26,0,0,1-18.92-1.72C300.91,1003.75,297.49,1005.11,294,999.57Z"/><path class="cls-11" d="M367.61,956.61c-8.36,10.19-25.32,11.3-25.32,11.3-24.81-1.87-25.21-22.53-25.21-22.53-1,11.94-8.56,19.15-27.88,20.54S264,956,264,956s-1.87.52.32,2.43,4.89,8,8.8,20.62a43.13,43.13,0,0,0,18.31,23.9c6.1,3.58,21.27,9.47,43.81,3.26s28.27-40.38,31.85-44.8C369.21,957.72,367.61,956.61,367.61,956.61Zm-26,40.53c-12.78,8-37,5.78-44.16,2.23s-20.31-8.64-26.88-32.61a40.5,40.5,0,0,0,21.74,5.46c10.87-1.16,20.47-5.22,24.13-13.42,0,0,9,12.3,21.82,13a36.78,36.78,0,0,0,26.64-8S354.39,988.9,341.61,997.14Z"/></g><path class="cls-14" d="M238,1327.39a254.62,254.62,0,0,1,4.06-35.15c3.5-18.19,20.91-53.15,24.08-80s-12.61-40.59-37.52-31.89-41.31,123.17-41.31,123.17l3.84,5.34s-1.59,4.08,7.5,10.5c0,0,9.65-9.39,7.92,1.35s5.8,11.48,9.1,13.19S234,1339.68,238,1327.39Z"/><path class="cls-15" d="M239.75,1369.79a169.49,169.49,0,0,1-63.52,8,104.44,104.44,0,0,1-34.36-7.37,30.32,30.32,0,0,1-19.56-19.91,21.59,21.59,0,0,0,3.75,23,39.43,39.43,0,0,0,21.82,11.31,160.75,160.75,0,0,0,39.82,3,224.15,224.15,0,0,0,47.79-7.65,2.89,2.89,0,0,0,2.62-2.43A43.27,43.27,0,0,0,239.75,1369.79Z"/><path id="Foot_L" data-name="Foot L" class="cls-7" d="M239.75,1369.79s8-26.13-1.56-43a13.38,13.38,0,0,1-14.21,7.37c-11-1-13.82-6-13.82-6s-2.15-2-1.39-8.92a15.2,15.2,0,0,0-5.26-11.94S192.08,1301,187,1300.7l-2.51-2s-13.85,7.08-19.51,16.16c0,0-23.89,11.11-30.22,16.89s-10.91,6.41-12.51,18.51c0,0,3,19.12,33.73,25S215.46,1379.5,239.75,1369.79Z"/><path class="cls-16" d="M184.79,1340.32a24.11,24.11,0,0,0,7.77,0c1.91-.4,4-1.12,3.7-3.55a4,4,0,0,0-3.7-4,60.57,60.57,0,0,1-14.85-4.82A23.66,23.66,0,0,1,165,1316.43c-.52-1.24-1.11-1.36-2.27-.84-2.63,1.23-5.25,2.43-8,3.42-1.83.72-2.07,1.76-1.28,3.35a13.31,13.31,0,0,0,4,4.58A93.3,93.3,0,0,0,184.79,1340.32Z"/><path class="cls-17" d="M165.76,1347.84a18,18,0,0,0,10.75-1.11c1-.48,2-1.08,2.11-2.39s-1.31-1.59-2.27-1.95a88.31,88.31,0,0,1-15.93-7.33,32.86,32.86,0,0,1-11.15-10.75c-.91-1.55-1.75-1.63-3.1-.76a20,20,0,0,1-2.07,1c-6.89,4-7.53,4-1.6,10.39S157.32,1344.9,165.76,1347.84Z"/><path class="cls-18" d="M148.6,1356.25a9.86,9.86,0,0,0,8.6-1.52c2.35-1.87,2-4-.76-5.29s-5.53-2.35-8.2-3.67A27.8,27.8,0,0,1,135.1,1333c-.84-1.71-1.64-1.67-3-.68-5.49,4-6.13,8-1.63,12.67A39.83,39.83,0,0,0,148.6,1356.25Z"/><path class="cls-14" d="M426.17,1328.89a158.69,158.69,0,0,0-9.5-32.5c-7.11-17.11-26.29-44.17-34.81-69.79s4.15-42.3,30.31-38.81,66,113.76,66,113.76l-1.84,6.34s-2.56,2.71-10.16,10.83c0,0-11-10.64-7.12-.47s-.69,12.7-3.57,15S435,1336.87,426.17,1328.89Z"/><path class="cls-15" d="M425.94,1377.67a2.91,2.91,0,0,0,2.63,2.43,224.05,224.05,0,0,0,47.79,7.65,160.78,160.78,0,0,0,39.82-3A39.43,39.43,0,0,0,538,1373.45a21.58,21.58,0,0,0,3.74-23,30.29,30.29,0,0,1-19.55,19.91,104.55,104.55,0,0,1-34.37,7.37,169.44,169.44,0,0,1-63.51-8A44.11,44.11,0,0,0,425.94,1377.67Z"/><path id="Foot_L-2" data-name="Foot L" class="cls-7" d="M508.05,1375.28c30.7-5.89,33.73-25,33.73-25-1.59-12.1-6.17-12.74-12.5-18.51s-30.23-16.89-30.23-16.89c-5.65-9.08-19.51-16.16-19.51-16.16l-2.51,2c-5.06.28-16.48,6.61-16.48,6.61a15.2,15.2,0,0,0-5.26,11.94c.76,6.89-1.39,8.92-1.39,8.92s-2.83,5-13.82,6a13.4,13.4,0,0,1-14.22-7.37c-9.52,16.88-1.55,43-1.55,43C448.6,1379.5,477.35,1381.17,508.05,1375.28Z"/><path class="cls-16" d="M506.54,1326.94a13.29,13.29,0,0,0,4-4.58c.8-1.59.56-2.63-1.27-3.35-2.71-1-5.34-2.19-8-3.42-1.15-.52-1.75-.4-2.27.84A23.65,23.65,0,0,1,486.35,1328a60.57,60.57,0,0,1-14.85,4.82,4,4,0,0,0-3.71,4c-.28,2.43,1.8,3.15,3.71,3.55a24.05,24.05,0,0,0,7.76,0A93.36,93.36,0,0,0,506.54,1326.94Z"/><path class="cls-17" d="M521.55,1335c5.94-6.41,5.3-6.41-1.59-10.39a20,20,0,0,1-2.07-1c-1.36-.87-2.19-.79-3.11.76a32.68,32.68,0,0,1-11.15,10.75,88,88,0,0,1-15.93,7.33c-.95.36-2.35.64-2.27,1.95s1.12,1.91,2.11,2.39a18,18,0,0,0,10.76,1.11C506.74,1344.9,515.62,1341.39,521.55,1335Z"/><path class="cls-18" d="M533.58,1345c4.5-4.7,3.86-8.68-1.63-12.67-1.36-1-2.15-1-3,.68a27.85,27.85,0,0,1-13.14,12.78c-2.67,1.32-5.5,2.35-8.21,3.67s-3.1,3.42-.75,5.29a9.85,9.85,0,0,0,8.6,1.52A39.88,39.88,0,0,0,533.58,1345Z"/></svg>