<svg id="Layer_6" data-name="Layer 6" xmlns="http://www.w3.org/2000/svg" viewBox="0 0 595.28 1387.94"><defs><style>.cls-1{fill:#dfbc6d;}.cls-2{fill:#987647;}.cls-3{fill:#bea05c;}.cls-4{fill:#dfbc6c;}.cls-5{fill:#2c2c79;}.cls-6{fill:#fff;}.cls-7{fill:#2db24c;}.cls-8{fill:#f16838;}.cls-9{fill:#4b8fcc;}.cls-10{fill:#b6b081;}.cls-11{fill:#d5b367;}.cls-12{fill:#a56737;}.cls-13{fill:#4c3421;}.cls-14{fill:#030202;}.cls-15{fill:#ffe5bb;}.cls-16{fill:#4e2a21;}.cls-17{fill:#600b0c;}.cls-18{fill:#d42027;}</style></defs><title>LittleLion-jumping_and_landing-5</title><path class="cls-1" d="M372.64,444.31c9.24-8.06,102.07-3.54,131.65-76.48A63.53,63.53,0,0,1,515,351c2.72-3.08,14.19-14.88,17.2-18.58l0,0A13.17,13.17,0,0,0,530,313.89c-6.32-2.93-4.5-5.09-4.38-5.94s1.6-2.36-1.72-9a15.25,15.25,0,0,0-15.82-7.91c-4.4,1.21-6.36-1.09-10.23-3.19a12.92,12.92,0,0,0-15.95,4.07c-3.73,5.92-4.83,3.33-10.06,3-24.16,3.45-13.46,25.55-13.46,25.55,3.2,6.33,14.17,9.45,4.78,44.1-18.12,29-102.44,40.28-102.44,40.28C315.32,432.1,363.41,452.37,372.64,444.31Z"/><path class="cls-2" d="M480.35,340.37a17,17,0,0,1,6.82,2A68.06,68.06,0,0,0,495,346.9a6.58,6.58,0,0,0,8-2,8.08,8.08,0,0,0,.6-4.26c-.11-1.92-.39-3.83-.63-5.75A36.66,36.66,0,0,0,500.05,323a9.9,9.9,0,0,0-7.12-5.81,13.5,13.5,0,0,0-8.63,3.4l-7.38,5.2a33.61,33.61,0,0,0-3.48,2.69,6.21,6.21,0,0,0-2.14,3.48,6.52,6.52,0,0,0,.76,3.62,7.93,7.93,0,0,0,2.88,3.91A12.21,12.21,0,0,0,480.35,340.37Z"/><path class="cls-2" d="M512,323.93a3.93,3.93,0,0,0-.42,1.25,4.18,4.18,0,0,0-.12,1.22,9,9,0,0,0,.44,3.05,5.74,5.74,0,0,0,4.94,3.18,11,11,0,0,0,5.92-1.62,11.22,11.22,0,0,0,4-3.32,5.58,5.58,0,0,0,.75-5,6.37,6.37,0,0,0-6.32-3.43A11.53,11.53,0,0,0,512,323.93Z"/><path class="cls-2" d="M506.75,301.88a12.57,12.57,0,0,0-3.81,6.19A7.53,7.53,0,0,0,504.8,315a4.17,4.17,0,0,0,1.49,1.05,5.36,5.36,0,0,0,4.52-.91,10.68,10.68,0,0,0,4.92-6.74,7.61,7.61,0,0,0-2.77-7.62,4.37,4.37,0,0,0-1.86-.84A5.56,5.56,0,0,0,506.75,301.88Z"/><path class="cls-2" d="M489.14,310.6a5.09,5.09,0,0,0,1.77.6,4.1,4.1,0,0,0,1.89-.37,8,8,0,0,0,4.29-5.49,12.39,12.39,0,0,0-.64-7.07,9.21,9.21,0,0,0-2.3-3.76,4.6,4.6,0,0,0-4.08-1.37,5.65,5.65,0,0,0-2.14,1.25,10.8,10.8,0,0,0-3.21,6.65,9.72,9.72,0,0,0,1.83,7A9.38,9.38,0,0,0,489.14,310.6Z"/><path class="cls-2" d="M469.66,317.77a5.16,5.16,0,0,0,4.46.71,4.76,4.76,0,0,0,2.32-2.63,12,12,0,0,0-2.39-11,4.49,4.49,0,0,0-1.15-1.19,4.12,4.12,0,0,0-1.48-.5,7.08,7.08,0,0,0-4.1-.29,4.92,4.92,0,0,0-3.19,3.46,8.29,8.29,0,0,0,.22,4.83A12,12,0,0,0,469.66,317.77Z"/><path class="cls-1" d="M265.93,440.42c-9.83-7.57-102.12.77-134.93-70.54a63.73,63.73,0,0,0-11.42-16.34c-2.86-3-14.8-14.27-18-17.86l0,0A13.18,13.18,0,0,1,103,317.06c6.19-3.2,4.28-5.28,4.13-6.12s-1.7-2.29,1.33-9.05a15.16,15.16,0,0,1,15.49-8.52c4.36.79,6.24-1.55,10-3.86a12.91,12.91,0,0,1,16.13,3.43c4,5.77,4.94,3.09,10.16,2.57,24.28,2.43,14.53,25,14.53,25-2.93,6.47-13.83,9.85-2.92,44.27,19.34,28.27,104.05,35.91,104.05,35.91C322.39,425.92,275.76,448,265.93,440.42Z"/><path class="cls-2" d="M153.63,341.24a16.94,16.94,0,0,0-6.72,2.25,68.64,68.64,0,0,1-7.6,4.88,6.46,6.46,0,0,1-8.06-1.67,7.4,7.4,0,0,1-.82-4.21c0-1.93.22-3.88.37-5.81a36.52,36.52,0,0,1,2.43-11.95,9.69,9.69,0,0,1,6.87-6.1,13.19,13.19,0,0,1,8.75,3l7.6,4.89A35.68,35.68,0,0,1,160,329a6.18,6.18,0,0,1,2.29,3.39,6.85,6.85,0,0,1-.59,3.68,8,8,0,0,1-2.73,4A12.4,12.4,0,0,1,153.63,341.24Z"/><path class="cls-2" d="M121.18,326.22a3.84,3.84,0,0,1,.65,1.15,3.14,3.14,0,0,1,.17,1.22,7.92,7.92,0,0,1-.31,3.06,5.63,5.63,0,0,1-4.8,3.39,11.39,11.39,0,0,1-6-1.37,10.87,10.87,0,0,1-4.07-3.16,5.41,5.41,0,0,1-1-4.91,6.44,6.44,0,0,1,6.17-3.7A11.56,11.56,0,0,1,121.18,326.22Z"/><path class="cls-2" d="M125.59,303.9a12.71,12.71,0,0,1,4.08,6,7.57,7.57,0,0,1-1.57,7,4.28,4.28,0,0,1-1.41,1.09,5.36,5.36,0,0,1-4.55-.72,10.8,10.8,0,0,1-5.21-6.53,7.65,7.65,0,0,1,2.45-7.73,4.41,4.41,0,0,1,1.82-.91A5.66,5.66,0,0,1,125.59,303.9Z"/><path class="cls-2" d="M143.55,311.75a4.21,4.21,0,0,1-1.74.67,4,4,0,0,1-1.91-.29,8,8,0,0,1-4.52-5.3,12.68,12.68,0,0,1,.35-7.09,9.11,9.11,0,0,1,2.14-3.85,4.59,4.59,0,0,1,4-1.55,4.88,4.88,0,0,1,2.2,1.16,10.93,10.93,0,0,1,3.49,6.51,9.75,9.75,0,0,1-1.54,7.08A9.53,9.53,0,0,1,143.55,311.75Z"/><path class="cls-2" d="M163.41,318.31a5.19,5.19,0,0,1-4.48.79,4.75,4.75,0,0,1-2.42-2.53,11.72,11.72,0,0,1,1.93-11,5.31,5.31,0,0,1,1.09-1.27,5,5,0,0,1,1.45-.56,7.43,7.43,0,0,1,4.09-.47,5.13,5.13,0,0,1,3.37,3.32,8.71,8.71,0,0,1,0,4.88A12.24,12.24,0,0,1,163.41,318.31Z"/><path class="cls-3" d="M50.56,618.68c-.76,1,.28,4,.28,5.09C50.84,636,54,647.15,64,654.08c9.31,6.37,20.42,6,31.61,7.6a54.6,54.6,0,0,1,26.8,9.12c4.46,3.35,8.68,9.16,13,12.75a301.81,301.81,0,0,0,27.39,20.9c18,11.59,32.93,21.63,58.46,25.45,28.91,4.34,44.28,1.51,60.69-12.27s26.64-32.89,33.13-57.06a11.35,11.35,0,0,0-5.58-13.18,8.35,8.35,0,0,0-10.19,3.46,24.08,24.08,0,0,0-2.87,10.32A87,87,0,0,1,281,698a51.43,51.43,0,0,1-32.45,18.64c-9.2,1.35-19.55,3.58-28.71,2a123.94,123.94,0,0,1-34.93-13.26A111.69,111.69,0,0,1,162.14,689a85.26,85.26,0,0,1-25.09-33.49,97.7,97.7,0,0,0-10.63-14.85,83.63,83.63,0,0,0-23.9-18.28c-16.56-8.24-30.26-8-48.62-5.73A4.49,4.49,0,0,0,50.56,618.68Z"/><path class="cls-4" d="M292.27,696.25c-18.66,5-36.7,7-56,4.89,5.8,34.91,24.22,77.74,45.39,72.83,21.69-5,27.65-14.21,23.82-31.17C302.94,731.36,297.05,713.14,292.27,696.25Z"/><path class="cls-4" d="M263.62,586.58c-31.36-7.83-39.09,10.22-41.11,15.51a56.48,56.48,0,0,0-4.38,22c.16,6.26,1.6,45.43,13.78,65.67,4.11,6.84,5.16,31.51,16,39.12C263,716.42,284.24,718,293.7,701c-4.06-7-6.17-49.77-2.52-63.51C295.34,623,295,594.4,263.62,586.58Z"/><path class="cls-5" d="M323.13,786.72a169.26,169.26,0,0,1-56.5,30.08,104.61,104.61,0,0,1-34.74,5.37,30.29,30.29,0,0,1-25.36-11.63,21.56,21.56,0,0,0,11.69,20.13,39.45,39.45,0,0,0,24.42,2.79,160.93,160.93,0,0,0,38.27-11.41,223.53,223.53,0,0,0,41.92-24.18,2.91,2.91,0,0,0,1.59-3.2A44.38,44.38,0,0,0,323.13,786.72Z"/><path id="Foot_L" data-name="Foot L" class="cls-6" d="M323.13,786.72s-1.87-27.25-16.78-39.63A13.38,13.38,0,0,1,295.69,759c-10.61,3-15-.65-15-.65s-2.73-1.13-4.48-7.84a15.21,15.21,0,0,0-9.17-9.29s-12.93-1.84-17.76-.3l-3.05-1s-10.42,11.56-12.47,22.06c0,0-18.36,18.9-22.22,26.55s-7.91,9.88-5.08,21.76c0,0,9.64,16.77,40.43,11.34S303.9,804.46,323.13,786.72Z"/><path class="cls-7" d="M261.28,778.78a24.34,24.34,0,0,0,7.26-2.77c1.64-1,3.32-2.46,2.19-4.63a4,4,0,0,0-4.88-2.4,60.78,60.78,0,0,1-15.59.79,23.66,23.66,0,0,1-15.95-6.27c-.92-1-1.52-.87-2.42,0-2,2.09-4,4.15-6.22,6-1.45,1.32-1.31,2.38,0,3.58A13.4,13.4,0,0,0,231,776,93.42,93.42,0,0,0,261.28,778.78Z"/><path class="cls-8" d="M246.18,792.59a18.08,18.08,0,0,0,9.65-4.87c.76-.8,1.51-1.73,1.12-3s-1.8-1-2.82-1a87.61,87.61,0,0,1-17.49-1.17,32.57,32.57,0,0,1-14.25-6.07c-1.41-1.12-2.22-.9-3.17.4a19.51,19.51,0,0,1-1.57,1.71c-5,6.18-5.61,6.4,2.22,10.28S237.24,792.85,246.18,792.59Z"/><path class="cls-9" d="M233.14,806.56a9.84,9.84,0,0,0,7.5-4.48c1.53-2.58.4-4.41-2.6-4.68s-6-.22-9-.49a27.89,27.89,0,0,1-16.83-7.26c-1.39-1.3-2.12-1-3,.43-3.72,5.68-2.89,9.63,3,12.41A39.71,39.71,0,0,0,233.14,806.56Z"/><path class="cls-4" d="M342.41,698.72c19,3.29,37.17,3.71,56.16-.08-2.69,35.29-17.26,79.58-38.77,76.56-22.05-3.11-28.8-11.72-26.48-29C334.88,734.63,339.14,716,342.41,698.72Z"/><path class="cls-4" d="M361.26,586.94c30.54-10.57,39.84,6.73,42.31,11.82a56.2,56.2,0,0,1,6.31,21.48c.39,6.26,2.42,45.4-7.92,66.64-3.49,7.18-2.36,31.84-12.47,40.38-16.11-11-37.17-7.61-48.09-23.72,3.42-7.33,1.75-50.12-3.1-63.48C332.87,626,330.71,597.5,361.26,586.94Z"/><path class="cls-5" d="M319.08,799.58a2.92,2.92,0,0,0,1.86,3.06A223.85,223.85,0,0,0,364.84,823,160.37,160.37,0,0,0,404,831,39.43,39.43,0,0,0,428,826.07,21.6,21.6,0,0,0,437.91,805a30.33,30.33,0,0,1-24.24,13.83,104.73,104.73,0,0,1-35.07-2.28,169.4,169.4,0,0,1-58.94-25A43.29,43.29,0,0,0,319.08,799.58Z"/><path id="Foot_L-2" data-name="Foot L" class="cls-6" d="M398.73,819.67C429.88,822.37,438,804.8,438,804.8c1.77-12.08-2.47-13.94-7-21.22s-24.48-24.49-24.48-24.49c-3-10.27-14.37-20.87-14.37-20.87l-2.95,1.23c-5-1.11-17.67,1.87-17.67,1.87a15.21,15.21,0,0,0-8.31,10.06c-1.15,6.83-3.77,8.2-3.77,8.2s-4.09,4.06-14.93,2a13.39,13.39,0,0,1-11.67-11c-13.76,13.65-13.21,40.95-13.21,40.95C340.38,807.52,367.59,817,398.73,819.67Z"/><path class="cls-7" d="M410.45,772.74a13.16,13.16,0,0,0,5.08-3.32c1.2-1.31,1.25-2.38-.31-3.56-2.34-1.7-4.54-3.57-6.73-5.47-1-.81-1.58-.86-2.41.19a23.7,23.7,0,0,1-15.33,7.66,60.91,60.91,0,0,1-15.61.58,4,4,0,0,0-4.65,2.82c-.93,2.27.87,3.52,2.6,4.42a24,24,0,0,0,7.47,2.12A93.22,93.22,0,0,0,410.45,772.74Z"/><path class="cls-8" d="M422.7,784.57c7.46-4.55,6.85-4.72,1.3-10.43a21.09,21.09,0,0,1-1.71-1.56c-1.06-1.21-1.89-1.36-3.19-.12a32.8,32.8,0,0,1-13.66,7.31,88.21,88.21,0,0,1-17.32,2.7c-1,.09-2.44,0-2.72,1.26s.55,2.15,1.38,2.88a18.15,18.15,0,0,0,10,4C405.75,790.08,415.25,789.12,422.7,784.57Z"/><path class="cls-9" d="M431.55,797.47c5.61-3.3,6.08-7.3,1.88-12.63-1-1.33-1.79-1.58-3.06-.16a27.84,27.84,0,0,1-16.12,8.71c-2.93.54-5.93.77-8.9,1.29s-3.92,2.45-2.17,4.89a9.84,9.84,0,0,0,7.87,3.8A39.82,39.82,0,0,0,431.55,797.47Z"/><g id="character"><path class="cls-1" d="M320.78,666.38s-78,7.61-94.85-66c-10.63-41-.44-98.52.32-105.13s4-37,4-42.05,3.23-35,10-45.63,22.38-47,71.17-46.87,72.47,38.5,77.77,48.06c15.92,17.68,21,85.74,21.94,106.36s29,124-46.47,142.44C342.41,667.9,333.61,665.67,320.78,666.38Z"/><path class="cls-10" d="M252.77,546.36s-17.6-56.46-2.27-87.21,35.24-46.71,65.86-46.67,57.78,7.33,68.42,33c17,36.39.91,104.77-8,128.18s-19.15,50.61-54.43,52.6S261.33,606.81,252.77,546.36Z"/><path class="cls-11" d="M269.29,409.1a378.23,378.23,0,0,1-37.63-25.92,154.67,154.67,0,0,0-22.1-13.7,54,54,0,0,1-28.47-38.87c0-.36-.48-.68-.76-1-.47-4-1.07-8-1.43-11.95a106.67,106.67,0,0,1,1.15-22.86c.4-.2,1-.28,1.16-.59a127.5,127.5,0,0,1,14.34-17.76,17.07,17.07,0,0,0,4.22-14.18,73.61,73.61,0,0,0-2.15-8.16c0-.36,0-.8-.56-.64h0c.32-1.51-.76-2.51-1.47-3.59a27.38,27.38,0,0,0-29-11.94c-4.86,1.11-4.86,1.11-6.3,2.19A54.14,54.14,0,0,1,182,242.61,22.3,22.3,0,0,0,166.83,255h0c-.63.28-.59.84-.55,1.4-4.94,10.87-5.5,21.42,2.35,31.33a1.45,1.45,0,0,1,.35,1.52,43.09,43.09,0,0,1-22.37-21.9c-7.53-16.93-5.22-33.53,4-49.14,5.21-8.84,15.41-11.95,27.16-9.28A33.32,33.32,0,0,1,189.93,214a36.88,36.88,0,0,0,22.58,5.77,6.63,6.63,0,0,0,4-2.11,175.87,175.87,0,0,1,59.1-32.26,8.24,8.24,0,0,0,6.77-6.65,42.12,42.12,0,0,1,12.54-20.9c.8-.72,1.75-1.83,2.83-1.48s.51,1.92.63,2.91a36.39,36.39,0,0,0,8,19.08c.63.71,1.27,1.59,2.43,1.51a.66.66,0,0,0,0,.28h0l.36-.2a56,56,0,0,1,2.19-19,90.92,90.92,0,0,0,3.14-17.48,32.64,32.64,0,0,1,8,12.47c2.42,6.13,4.38,12.46,6.57,18.67a22.23,22.23,0,0,0,2.43,4.94c.51.84,1.11,1.95,2.15,1.87s1.71-1.35,2.11-2.35a23.55,23.55,0,0,0,1.31-6.81,32.77,32.77,0,0,1,2.95-12.58,10.11,10.11,0,0,1,4-4.78h0a75.43,75.43,0,0,0,.28,8,12.92,12.92,0,0,0,4,8.68,18.09,18.09,0,0,1,5.14,11.07,4,4,0,0,0,3.3,4,320.65,320.65,0,0,1,73.59,30.94,21.91,21.91,0,0,0,21.07.36,94.53,94.53,0,0,0,12.22-8,26,26,0,0,1,39.42,13.7c7.41,22.1.76,41.42-19.91,56.15a60.22,60.22,0,0,1-15.61,8.8,30.23,30.23,0,0,0,5.94-21.22c-.32-3.75-2.07-7-2.63-10.64l-.48-.55h0A22.06,22.06,0,0,0,455,242.53a57.68,57.68,0,0,1,21.86-2.15,27.76,27.76,0,0,0-9.87-2.59,26.52,26.52,0,0,0-27.64,15.93,19.9,19.9,0,0,0,3.82,25.12c2.27,2.27,4,4.94,6.25,7.33s3.63,6.09,6.22,8.6a66.2,66.2,0,0,1,.55,25.17,69.07,69.07,0,0,1-11.94,25A78,78,0,0,1,416,369a133.2,133.2,0,0,0-30.63,21.46,126.05,126.05,0,0,1-20.15,16.33c-.12,19.75-14.85,35-45.79,35.28C282.55,442.43,272.56,429,269.29,409.1Zm116-142.64a44.06,44.06,0,0,0-5.61.68,30,30,0,0,0-22.3,29.35A31.85,31.85,0,0,0,398.55,328c10.72-3,18.84-9.27,21-20.58a33.8,33.8,0,0,0-34.25-40.94ZM246,327c14.93.24,33-11.63,29.23-32.66a34.28,34.28,0,0,0-16.53-24.64c-11.55-6.81-25.6-4-36.24,7.08a27.31,27.31,0,0,0-9,23.42A31.13,31.13,0,0,0,245.8,327Z"/><path class="cls-12" d="M168.91,289.36a1.47,1.47,0,0,0-.4-1.56c-8-10.11-7.45-20.86-2.39-31.85a1.51,1.51,0,0,0,.56-1.4h0c1.59,0,2.23-1.47,3.14-2.39a17,17,0,0,1,24.05-1.59c.15.13.3.26.44.4,1,.8,1.67,1.87,3.07,1.95h0l.59.64a72.1,72.1,0,0,1,2.31,8.44,17.36,17.36,0,0,1-4.3,14.45,133.82,133.82,0,0,0-14.65,18.16c0,.32-.76.4-1.16.6A50.46,50.46,0,0,1,169.74,290c0-.51-.24-.79-.8-.67Z"/><path class="cls-12" d="M472.1,257.38c.44,3.78,2.07,7.25,2.23,11.15a31,31,0,0,1-7.12,21.7h0l-.88.48a30.45,30.45,0,0,1-11.95,5.66c-2.59-2.67-3.74-6.3-6.05-9.16s-4-5.46-6.13-8a20.78,20.78,0,0,1-2.51-26.4,19.47,19.47,0,0,0,5.14-3.26,17.26,17.26,0,0,1,22.06,2.19c1.63,1.55,3.1,3.34,4.62,5h0Z"/><path class="cls-6" d="M385.33,266.46a33.82,33.82,0,0,1,34.25,40.94c-2.19,11.31-10.31,17.6-21,20.58a31.85,31.85,0,0,1-41.13-31.49,30,30,0,0,1,22.3-29.35A44.06,44.06,0,0,1,385.33,266.46Zm-21.42,32.29a25.45,25.45,0,1,0,24.87-26A25.45,25.45,0,0,0,363.91,298.75Z"/><path class="cls-6" d="M245.8,327a31.13,31.13,0,0,1-32.57-26.8,27.29,27.29,0,0,1,9-23.42c10.63-11.07,24.68-13.89,36.23-7.08A34.26,34.26,0,0,1,275,294.33C278.85,315.36,260.73,327.23,245.8,327Zm-.4-4.62a25.17,25.17,0,0,0,24.66-25.66c0-.14,0-.28,0-.42a25.44,25.44,0,1,0-24.79,26.08Z"/><path class="cls-13" d="M412.41,266.38c-18.44-18.84-35.84-15-50.13,2.35-.56-.76,0-1.47,0-2a42,42,0,0,1,13.38-20.31,15.64,15.64,0,0,1,19.43-1.95A39.77,39.77,0,0,1,412.41,266.38Z"/><path class="cls-13" d="M270.13,267.14c-7.17-7.29-14.1-14.22-25-14.06s-17.92,6.09-24.81,13.14a2.36,2.36,0,0,1,0-2.19A43,43,0,0,1,235,244.6a16.12,16.12,0,0,1,19.91-.24A40.73,40.73,0,0,1,270.13,267.14Z"/><path class="cls-13" d="M197.62,253.88c-1.44,0-2.19-1.16-3.19-1.95a17.56,17.56,0,0,0-24.82.86l-.51.57c-.95.95-1.59,2.39-3.22,2.43a23.48,23.48,0,0,1,15.93-13.22A57.29,57.29,0,0,0,159,240.14c1.55-1.28,1.55-1.28,6.53-2.31a28.87,28.87,0,0,1,30.66,12.3C196.78,251.25,197.89,252.28,197.62,253.88Z"/><path class="cls-13" d="M471.7,256.86c-1.51-1.67-3-3.46-4.61-5A17.28,17.28,0,0,0,445,249.66a19.26,19.26,0,0,1-5.13,3.26,27.31,27.31,0,0,1,29.31-15.21,28.59,28.59,0,0,1,10.11,3.11,59.86,59.86,0,0,0-22.74,1.23A22.9,22.9,0,0,1,471.7,256.86Z"/><path class="cls-6" d="M307,180l.36.2h0v-.28Z"/><path class="cls-13" d="M196.14,255l-.59-.68C196.14,254.27,196.1,254.71,196.14,255Z"/><path class="cls-13" d="M363.91,298.75a25.44,25.44,0,1,1,26.15,24.73h-.15A25.4,25.4,0,0,1,363.91,298.75Zm41.49-4c3.23-4.38,3.23-8.28,0-11.19s-7-2.47-10.87,1a1.6,1.6,0,0,0-1.23-1.36,14.08,14.08,0,0,0-9.08.6,16.29,16.29,0,0,0-9.84,20.23A16.49,16.49,0,0,0,395,314.17C403,311.1,406.52,304.85,405.4,294.77Z"/><path class="cls-13" d="M245.4,322.37a25.45,25.45,0,1,1,24.65-26.22v.14a25.36,25.36,0,0,1-24.63,26.08Zm-16.25-27.08a2.17,2.17,0,0,0-.63,1.79,15.92,15.92,0,0,0,15.16,16.66,15.42,15.42,0,0,0,3-.13,15.93,15.93,0,1,0-6.21-31.25,15.55,15.55,0,0,0-2.48.71c-4.81-2.16-8.28-1.56-10.63,1.83A7.72,7.72,0,0,0,229,295.29Z"/><path class="cls-14" d="M405.4,294.77c1.12,10.2-2.39,16.45-10.47,19.4a16.49,16.49,0,0,1-20.59-10.12,16.29,16.29,0,0,1,9.84-20.23,14.08,14.08,0,0,1,9.08-.6,1.6,1.6,0,0,1,1.23,1.36,11.13,11.13,0,0,0-1.31,3.7,7.25,7.25,0,0,0,3.22,6.85A8,8,0,0,0,405.4,294.77Z"/><path class="cls-6" d="M405.4,294.77a8,8,0,0,1-9,.36,7.25,7.25,0,0,1-3.22-6.85,11.13,11.13,0,0,1,1.31-3.7c4-3.47,7.73-4,10.87-1S408.67,290.27,405.4,294.77Z"/><path class="cls-14" d="M237.76,283.07a15.92,15.92,0,0,1,11.16,29.83,15.55,15.55,0,0,1-2.48.71,15.94,15.94,0,0,1-18-13.57,16.27,16.27,0,0,1-.13-3,2.15,2.15,0,0,1,.64-1.79,9.08,9.08,0,0,0,6,.92,7.57,7.57,0,0,0,2.75-13.14Z"/><path class="cls-6" d="M237.76,283.07A7.57,7.57,0,0,1,235,296.21a9.08,9.08,0,0,1-6-.92,7.71,7.71,0,0,1-1.84-10.39C229.47,281.51,232.94,280.91,237.76,283.07Z"/><path class="cls-15" d="M356.62,430.16A31.79,31.79,0,0,1,343,438.53a82.5,82.5,0,0,1-13.62,3.14,111.12,111.12,0,0,1-16.72.48,92.88,92.88,0,0,1-17.92-1.75,30.57,30.57,0,0,1-15.61-8.48,41.79,41.79,0,0,1-8.32-17.25A229.22,229.22,0,0,1,263.36,377a28.44,28.44,0,0,1,0-7.6,29.61,29.61,0,0,1,3-8,86.79,86.79,0,0,1,5-9.27,48.8,48.8,0,0,1,28.28-20.23,55.76,55.76,0,0,1,34.88,2.5,44.12,44.12,0,0,1,7.05,3.51,58.93,58.93,0,0,1,7.37,5.61c10.91,9.76,19.91,23,19.91,37.63a66.86,66.86,0,0,1-.56,7.49,166.87,166.87,0,0,1-2,17.84C364.19,415.43,361.64,424.91,356.62,430.16Z"/><path class="cls-16" d="M342.64,338.3a15.38,15.38,0,0,1-4,12.66,30.07,30.07,0,0,1-23.89,11.51A34.31,34.31,0,0,1,289.2,350.2a12.71,12.71,0,0,1-3.42-8.48,9.51,9.51,0,0,1,3.42-7.13,27.8,27.8,0,0,1,8.37-3.06,61.59,61.59,0,0,1,19.15-2.19c1.95,0,8.4-.32,10.31,0a34.11,34.11,0,0,1,8,1.87A11.92,11.92,0,0,1,342.64,338.3Z"/><path id="_2" data-name=" 2" class="cls-17" d="M263.8,373.26s5.73,11.31,25.17,9.92,26.95-8.77,28.11-20.71c0,0,.52,20.51,25.33,22.38,0,0,17-1.12,25.32-11.31,0,0,1.59,1.11-.64,5.18-3.74,4.42-9.55,38.62-31.85,44.79s-37.63.32-43.81-3.26a43.15,43.15,0,0,1-18.31-23.89c-4-12.55-6.65-18.68-8.8-20.63S263.8,373.26,263.8,373.26Z"/><path class="cls-18" d="M294,416.67a9.93,9.93,0,0,1,5.66-4.39,29.28,29.28,0,0,1,7.21-1.11,13.89,13.89,0,0,1,6.53,1,10.94,10.94,0,0,0,4,1.75c3,.32,4-1.4,7.44-1.95a22.66,22.66,0,0,1,14.7,2.82A6.22,6.22,0,0,1,341,416c1.12,1.51,0,2.19-1,3.74s-3.39,1.08-4.74,2.39-2.51,0-3.63.68a12.92,12.92,0,0,1-5.57,2,37.37,37.37,0,0,1-18.92-1.71C300.91,420.85,297.49,422.2,294,416.67Z"/><path class="cls-16" d="M367.61,373.7C359.25,383.89,342.29,385,342.29,385c-24.81-1.87-25.21-22.54-25.21-22.54-1,11.94-8.56,19.15-27.88,20.55S264,373.1,264,373.1s-1.87.52.32,2.43,4.89,8,8.8,20.63a43.15,43.15,0,0,0,18.31,23.89c6.1,3.58,21.27,9.48,43.81,3.27s28.27-40.38,31.85-44.8C369.21,374.81,367.61,373.7,367.61,373.7Zm-26,40.54c-12.78,8-37,5.77-44.16,2.23s-20.31-8.65-26.88-32.62a40.5,40.5,0,0,0,21.74,5.46c10.87-1.16,20.47-5.22,24.13-13.42,0,0,9,12.3,21.82,13a36.82,36.82,0,0,0,26.64-8S354.39,406,341.61,414.24Z"/></g></svg>