<svg id="Layer_3" data-name="Layer 3" xmlns="http://www.w3.org/2000/svg" viewBox="0 0 509.81 349.75">
  <defs>
    <style>
      .cls-1 {
        fill: #d3af5d;
      }

      .cls-2 {
        fill: #987647;
      }

      .cls-3 {
        fill: #010084;
      }

      .cls-4 {
        fill: #fff;
      }

      .cls-5 {
        fill: #0798ff;
      }

      .cls-6 {
        fill: #f86531;
      }

      .cls-7 {
        fill: #06b800;
      }

      .cls-8 {
        fill: #e1bd6c;
      }

      .cls-9 {
        fill: #a56636;
      }

      .cls-10 {
        fill: #49301d;
      }

      .cls-11 {
        fill: #d1a652;
      }

      .cls-12 {
        fill: #620000;
      }

      .cls-13 {
        fill: #ffe6bc;
      }

      .cls-14 {
        fill: #4e2921;
      }

      .cls-15 {
        fill: #b8b182;
      }
    </style>
  </defs>
  <title>LittleLion-sleeping</title>
  <g>
    <path class="cls-1" d="M433.92,805.73s5.41,18.86,47.72,13.19S571.09,802,581.8,798.46c0,0,19.08,1,26.4,2.19s14.73,3.48,19.81-5-.79-10.43-.79-10.43,12.11-3.25,11-16.57-8-11.73-8-11.73,4-3.58-1.29-12.35-15.76-3.28-15.76-3.28,2-7.88-9.39-12-16.09,4.14-22.58,15-13.56,16.65-18.33,19-54,24.24-89.45,26S432.9,795.81,433.92,805.73Z" transform="translate(-272.61 -667.41)"/>
    <ellipse class="cls-2" cx="594.9" cy="744.05" rx="8.28" ry="6.33" transform="translate(-627.87 145.32) rotate(-55.49)"/>
    <ellipse class="cls-2" cx="610.86" cy="758.2" rx="9.14" ry="6.98" transform="translate(-620.75 -77.61) rotate(-41.18)"/>
    <ellipse class="cls-2" cx="619.13" cy="776.81" rx="6.98" ry="9.14" transform="translate(-477.59 664.02) rotate(-85.38)"/>
  </g>
  <path class="cls-1" d="M637.78,761.58a121.9,121.9,0,0,1,46,3.65l44.62-4.41a93.16,93.16,0,0,1,0,41l-8.53,4.23s-20.66,14.29-61.9,10.79c0,0-20.44-4.17-26.54-27.94S637.78,761.58,637.78,761.58Z" transform="translate(-272.61 -667.41)"/>
  <g>
    <path class="cls-3" d="M748.76,712.25s9.27-3.27,15.66,4,11.39,24.35,8.55,44.26-7,39.31-10.29,44.15-5.16,4.38-9.49,3.68l-2.05-38.09,7.29-37.61Z" transform="translate(-272.61 -667.41)"/>
    <g>
      <path class="cls-4" d="M715.48,744.62s-15.78,4.58-11.26,19.24,9.18,14.78,15.54,15.37,10.11,11.19,6,18.31-5.88,8.51-5.88,8.51,16.79,3.76,33.29,2.31c0,0,10.16-15.46,12.57-50.24s-10-43.85-17-45.87-16.19,7.22-19.64,12.35S718.24,737.2,715.48,744.62Z" transform="translate(-272.61 -667.41)"/>
      <path class="cls-5" d="M731.48,721.53s7.11,2.47,10.39,11.61,3.89,9.85,7.47,7.23,2.1-9.44-3.32-16.69-9.18-7.35-9.18-7.35-1.1-.14-2.84,1.3S731.22,720.83,731.48,721.53Z" transform="translate(-272.61 -667.41)"/>
      <path class="cls-6" d="M723.67,731s7,3.27,10,14.36,3.59,12,7.25,9,2.39-11.21-2.81-20.12-9-9.21-9-9.21-1.08-.23-2.86,1.42S723.43,730.14,723.67,731Z" transform="translate(-272.61 -667.41)"/>
      <path class="cls-7" d="M716.08,743s6.85,3.83,9.28,15.72,3,12.85,6.77,9.9,3-11.75-1.77-21.45-9-12.48-9-12.48-1,.31-2.91,2.74C716.84,739.36,715.89,742.07,716.08,743Z" transform="translate(-272.61 -667.41)"/>
    </g>
  </g>
  <g>
    <path class="cls-8" d="M393.17,673.08s-15.63,20.09-24.56,34S350.19,725,341.82,726.66s-24,2.79-34.6,23.44c0,0-22.33,7.81-25.68,13.95,0,0,14-2.79,21.21,3.35,0,0-16.74,11.72-30.14,11.16,0,0,6.14,7.82,18.42,7.26s12.84,3.91,12.84,3.91-17.58,4.18-20.37,11.44a14.87,14.87,0,0,1,13.39,0c7,3.63,11.72,11.16,14.51,20.93s17.31,19.25,21.49,21.77c0,0-23.81,31.62-2.6,53.58s77,23.44,78.88-36.47c0,0,65.12-42,64.37-108.65,0,0-20.83,4.84-35,1.49s-26.42-20.09-28.28-23.07-8.56-19.35-7.07-29.39C403.22,701.36,404.35,658.23,393.17,673.08Z" transform="translate(-272.61 -667.41)"/>
    <path class="cls-9" d="M359.68,850.19s9.3-3.72,17.49,2.23,11.54,7.45,18.61,7.45c0,0,2.61,21.58-22.7,25.3s-24.93-16.37-24.56-21.95C348.52,863.22,348.38,855.26,359.68,850.19Z" transform="translate(-272.61 -667.41)"/>
    <path class="cls-10" d="M360.83,849.82s-26.54,2.14-23.75,32c0,0-.28-11.72,8.65-19.53,0,0-1.26,12.83,8.95,19.53,0,0-9-6.35-5.83-20.67C348.85,861.15,349.88,854.29,360.83,849.82Z" transform="translate(-272.61 -667.41)"/>
    <path class="cls-10" d="M346.57,733.36s-11.58,12-9.7,23.16,13.88,17.58,13.88,17.58-19.25-.56-23.72-16.19S346.57,733.36,346.57,733.36Z" transform="translate(-272.61 -667.41)"/>
    <path class="cls-11" d="M370.57,727.49s-21.21,6.14-19.82,26.24S372,774.66,379.22,774.1s22-6.42,19.81-25.68S375.82,725.26,370.57,727.49Z" transform="translate(-272.61 -667.41)"/>
    <path class="cls-12" d="M433,725a35.82,35.82,0,0,0,24,1.95s-10.79,15.54-29.2,12.19Z" transform="translate(-272.61 -667.41)"/>
    <path class="cls-13" d="M401.54,670l-2.28,38.27L415.5,744.8l34.6,15.62,23.44-8.09s14.24-2,15.91-23.16-8.65-28.47-17.3-30.42L468,696.24l-.91,7.6-4.46,16.61L452.4,732.59l-12,5.93-12.62.6,5.51-16,4.16-21.93-4.37-20.56-13-8.74L412,669.08Z" transform="translate(-272.61 -667.41)"/>
    <path class="cls-14" d="M406.19,667.68s-12.09-2.23-11.53,6.14c0,0,1.3,3.54,3.16,8s.37,5.4,0,9.12-3.45,8,1.44,10.79,14-2.24,15.31-11.72-1.86-18.42-1.12-19S427,676,432.8,685s.37,39.85-7.63,54.92c0,0,6.33,3,18.23-1.12s23.63-13,24.56-41.67c0,0-5.95,41.48-37.95,41.11,0,0,13.77-36.46,7.81-52.46C431.24,668,406.19,667.68,406.19,667.68Z" transform="translate(-272.61 -667.41)"/>
  </g>
  <path class="cls-8" d="M424.43,842.38s72,14.14,107.16,23.44,70.32,27.8,108.84,19.81S685,828.69,677.26,807c-8.09-22.74-10.59-22.52-21.75-32.94,0,0-14.53-19.9-71.08-18.41s-57.68.74-69.59,2.23S484.69,762,472.42,768.5c0,0-37.95.58-50.6,28.48S424.43,842.38,424.43,842.38Z" transform="translate(-272.61 -667.41)"/>
  <path class="cls-15" d="M476.6,766.52S466,768,468,774.21,491,786.58,507,790.67s54.7,13.75,82.23,21.57,68.1,18.23,69.58-11.16-.47-26.61-24.23-40.66S483.71,756.56,476.6,766.52Z" transform="translate(-272.61 -667.41)"/>
  <path class="cls-8" d="M461.26,812.33s-12.55,15.07,15.91,46.89,64.28,64.46,73.21,71.34c0,0,9.86,16.38,13,23.07s5.4,14.14,15.26,13.59,8.18-6.52,8.18-6.52,9.49,8.19,19.91-.18S612,947.31,612,947.31s5.21,1.3,9.49-8-6.14-14.89-6.14-14.89,7.63-2.79,4.65-14.51-12.46-11-25.12-10.23-21.39-1.86-26-4.46S518.38,864.15,497,835.87,468.89,805.91,461.26,812.33Z" transform="translate(-272.61 -667.41)"/>
  <path class="cls-8" d="M646,884.12s23.29,31.56,7.29,54.63-32.37,36.84-74.42,39.81c0,0-17.54,1.86-30.35,0,0,0-21-13.6-49.27.83s-19.08,19.64-31.5,24.85c0,0,38.94,33.11,69.82-6.7,0,0,85.65,5.4,121.34-42.6,0,0,31.78-23.45,2.2-73.12C661.08,881.82,648.73,865.76,646,884.12Z" transform="translate(-272.61 -667.41)"/>
  <path class="cls-8" d="M673.68,820.61a121.88,121.88,0,0,1,38.75,25.12l19,12.65s11.91,24.93-3,41.67h-2.24s-26.42,1.49-61-21.21c0,0-16-13.39-10-37.21S673.68,820.61,673.68,820.61Z" transform="translate(-272.61 -667.41)"/>
  <g>
    <path class="cls-3" d="M759.31,809.24s9.44-2.77,15.42,4.86,10.07,24.93,6.16,44.65-9.12,38.88-12.65,43.54-5.4,4.09-9.67,3.16V867.31l9.3-37.17Z" transform="translate(-272.61 -667.41)"/>
    <g>
      <path class="cls-4" d="M724.33,839.77s-16,3.72-12.28,18.61,8.38,15.25,14.7,16.18,9.49,11.73,5,18.61-6.32,8.18-6.32,8.18,16.56,4.66,33.12,4.1c0,0,11-14.89,15.25-49.49s-7.63-44.32-14.51-46.72-16.56,6.33-20.28,11.27S727.5,832.52,724.33,839.77Z" transform="translate(-272.61 -667.41)"/>
      <path class="cls-5" d="M741.56,817.58s7,2.84,9.75,12.15,3.35,10,7.07,7.62S761,828,756,820.51s-8.78-7.83-8.78-7.83-1.08-.21-2.89,1.14S741.34,816.87,741.56,817.58Z" transform="translate(-272.61 -667.41)"/>
      <path class="cls-6" d="M733.24,826.6s6.85,3.65,9.26,14.88,2.93,12.14,6.75,9.37,3-11.06-1.73-20.25-8.45-9.67-8.45-9.67-1.08-.29-3,1.27S733.05,825.75,733.24,826.6Z" transform="translate(-272.61 -667.41)"/>
      <path class="cls-7" d="M725,838.16s6.64,4.19,8.42,16.2,2.27,13,6.23,10.24,3.59-11.56-.61-21.51-8.36-13-8.36-13-1,.26-3.05,2.58C726,834.6,724.88,837.25,725,838.16Z" transform="translate(-272.61 -667.41)"/>
    </g>
  </g>
</svg>
