<svg id="Layer_7" data-name="Layer 7" xmlns="http://www.w3.org/2000/svg" viewBox="0 0 1920 1080">
  <defs>
    <style>
      .cls-1 {
        fill: #d3af5d;
      }

      .cls-2 {
        fill: #987647;
      }

      .cls-3 {
        fill: #fff;
      }

      .cls-4 {
        fill: #010084;
      }

      .cls-5 {
        fill: #06b800;
      }

      .cls-6 {
        fill: #f86531;
      }

      .cls-7 {
        fill: #0798ff;
      }

      .cls-8 {
        fill: #e1bd6c;
      }

      .cls-9 {
        fill: #b8b182;
      }

      .cls-10 {
        fill: #620000;
      }

      .cls-11 {
        fill: #ffe6bc;
      }

      .cls-12 {
        fill: #4e2921;
      }

      .cls-13 {
        fill: #a56636;
      }

      .cls-14 {
        fill: #49301d;
      }

      .cls-15 {
        fill: #492b19;
      }

      .cls-16 {
        fill: #221f1f;
      }
    </style>
  </defs>
  <title>LittleLion-running_on_the_spot-8</title>
  <g>
    <g>
      <g>
        <path class="cls-1" d="M1460.73,643.43c2.35-5.53,4-11.59,3.51-17.64a24,24,0,0,0-1-4.89c-33.6-3-68.15-4.48-68.15-4.48-18.56-.94-18.75,11.44-18.75,11.44,2.46,22.65,10.56,21.86,10.56,21.86l33.25,5.78c5.47-1.17,15.87.13,27.9,2.58C1454.31,655.9,1458.21,649.36,1460.73,643.43Z"/>
        <g>
          <path class="cls-1" d="M1480.79,642a44.47,44.47,0,0,1-17.58,9.42c-4.52,1.32-9.46,1.88-13.82.38,16.76,25.32,35.28,61.47,35.28,61.47-.51,3.4,2.45,31.78,2.45,31.78-6.79,16.45,7.43,26.68,7.43,26.68,10.68,6.36,22.77-3.28,22.77-3.28,7,8.52,17.85,6,17.85,6,8.68-1.28,11.8-11.43,11.8-11.43,8.6,4.8,16-6.72,16-6.72,10.07-14,1-22,1-22,19.44-15.12-4-31-4-31l-2.41-.58-15-6c-11.46-8.57-21.16-11.36-21.16-11.36-1.23-7.82-17.64-29-35.41-50.09A25.24,25.24,0,0,1,1480.79,642Z"/>
          <g>
            <path class="cls-2" d="M1516.3,697.57a9.6,9.6,0,0,1,5.83-.29,8.39,8.39,0,0,1,4.19,1.69,7.45,7.45,0,0,1,2,4.43,39.7,39.7,0,0,1,.39,5.33l.31,10.93c.1,3.83.09,8-2.35,11s-6.81,3.78-10.67,3.32c-4.93-.57-9.5-2.8-14-5-2.12-1-4.23-2.08-6.26-3.26a9.56,9.56,0,0,1-3.89-3.46c-1.72-3.23.38-7.33,3.34-9.48s6.62-3.06,9.83-4.8a21.21,21.21,0,0,0,6.57-5.57C1513.05,700.63,1514.25,698.53,1516.3,697.57Z"/>
            <path class="cls-2" d="M1505.74,757.82c-1.66,2.62-4.68,4.77-7.71,4.1a6.67,6.67,0,0,1-4.5-4.1,13.21,13.21,0,0,1-.7-6.23,13.6,13.6,0,0,1,2.31-7.06,6.9,6.9,0,0,1,6.54-2.88,9.87,9.87,0,0,1,3.38,1.58,5.89,5.89,0,0,1,1.17.94,4.64,4.64,0,0,1,.76,1.4A14,14,0,0,1,1505.74,757.82Z"/>
            <path class="cls-2" d="M1532,760.65a5.25,5.25,0,0,1-2,1.35,9.36,9.36,0,0,1-9.57-2.33,12.83,12.83,0,0,1-3.51-9.49c0-2,.61-4.18,2.25-5.32a5.42,5.42,0,0,1,2.06-.81,9.23,9.23,0,0,1,8.08,2.94,15.57,15.57,0,0,1,3.71,8C1533.32,757,1533.34,759.17,1532,760.65Z"/>
            <path class="cls-2" d="M1540.39,730.49a11.76,11.76,0,0,1,8.18,2.94,13,13,0,0,1,4.58,7.71,6.34,6.34,0,0,1-.15,3,5.58,5.58,0,0,1-4,3.38,11.1,11.1,0,0,1-5.37-.19,15.27,15.27,0,0,1-7.56-4.12,9.56,9.56,0,0,1-2.67-8,4.67,4.67,0,0,1,.89-2.17,5.31,5.31,0,0,1,1.82-1.36A11.22,11.22,0,0,1,1540.39,730.49Z"/>
            <path class="cls-2" d="M1552,705.81a10.18,10.18,0,0,1,5.07,3,6.11,6.11,0,0,1,1.36,5.57,8.94,8.94,0,0,1-3.08,4,7,7,0,0,1-1.58,1,5.93,5.93,0,0,1-2,.35c-4.73.25-10-1-12.67-4.93a5.58,5.58,0,0,1-1.1-4.1c.35-1.87,2-3.22,3.71-4.05A14.75,14.75,0,0,1,1552,705.81Z"/>
          </g>
        </g>
        <path class="cls-1" d="M1463.26,620.9c7.6,3,17,9.49,23.24,14.77-.12,4.57-3.65,6.77-5.78,10.81a30.31,30.31,0,0,1-14,13.09,19.54,19.54,0,0,1-4.54.9,37.22,37.22,0,0,1-14.09-2.39c-12.73-4.37-6.76-20.32-6.76-20.32Z"/>
      </g>
      <g>
        <path class="cls-1" d="M1408,841.91c-8.91,12.52-25.61,18-40.38,19.24a71.69,71.69,0,0,1-36.77-8.3c7.86,19.62,26,35.42,26,35.42,19.63,10.85,48.09,58.18,48.09,58.18,33.35-3.52,37.77-33.51,37.77-33.51-6.8-37.08-28.84-66.2-33.8-72.39C1408.62,841,1408.32,841.46,1408,841.91Z"/>
        <path class="cls-1" d="M1417.8,782.17,1368.32,802a52.44,52.44,0,0,0-4.33,3.83,62.68,62.68,0,0,0,.87,18.54,60.64,60.64,0,0,0,7.28,20.58,71.5,71.5,0,0,0,15.6,18.48,38.41,38.41,0,0,0,18.17,8.66l.67.12.25-.52c54.91-23.13,67.1-40.39,67.1-40.39Z"/>
        <g>
          <path class="cls-3" d="M1408.36,907.92l-4.22-7.79a15.68,15.68,0,0,0-11.77-5c-17.12-.65-22.29,4.6-22.29,4.6-5.28,3.75-5.56,12.58-5.46,16-34.11,38.09-26.07,48.68-26.07,48.68,1.3,26.71,30.65,24.17,30.65,24.17,35.15-.44,87.78-42.29,87.78-42.29,1.93-12.24-17.25-47.14-17.25-47.14C1418.71,924.73,1408.36,907.92,1408.36,907.92Z"/>
          <path class="cls-4" d="M1455.89,936.53s-55.07,43-90.22,43.45c0,0-18.13,1.56-26.52-10.74,4.4,21.54,30,19.32,30,19.32,35.15-.44,87.78-42.29,87.78-42.29A10,10,0,0,0,1455.89,936.53Z"/>
          <path class="cls-5" d="M1363.65,918.12s8.88,9.49,34.2,4.18c0,0,9.26,3-1,8.34,0,0-29.15,8.07-41.65-3.65C1355.21,927,1357.62,920,1363.65,918.12Z"/>
          <path class="cls-6" d="M1352,931.3s6.49,8.85,35.73,6.44c0,0,4.81,1.51-5.28,8.26,0,0-21.34,6.58-36.86-5.25C1345.6,940.75,1347.3,934.36,1352,931.3Z"/>
          <path class="cls-7" d="M1343.16,944.62s8.53,10.46,28.52,7.17c0,0,6.83,2.9-2.24,9.41,0,0-19.08,3.18-30-6.87C1339.44,954.33,1338.27,949.25,1343.16,944.62Z"/>
        </g>
        <path class="cls-1" d="M1368.25,802.25S1324.5,817,1331.5,854.5l57,25.5,19-20,16-27.5Z"/>
      </g>
      <path class="cls-8" d="M1456.85,802.72s49.59,75.15,100.72,61.68c0,0,36.24-6.27,58-64.4,0,0,13.52-52.41,8.09-70.43,0,0-27.22-47.28,38.46-94.93,0,0,22.44,27.57,8.89,57.2,0,0-13.3,20.6-22.67,29.06,0,0-7.41,65.37-25.21,98.36,0,0-30.65,65.11-78.83,63.83,0,0-34.92,11.45-100.87-65.45l-19.18-43.54Z"/>
      <path class="cls-8" d="M1377.33,558.46l-14.52,70.88-12.07,187.95s-.37,62.13,62.93,65c0,0,68.32,8.15,82-27.71,0,0,20.22-10-4.13-118.43s-29-166.35-29-166.35L1415.19,544Z"/>
      <path class="cls-9" d="M1363.19,621.79s14.53-10.68,18.59,6.74l16.14,83.39,12.74,56.5s13.25,76.08-7.19,86.66c0,0-27.94,14.09-49.36-8.9,0,0-26.15-23.31-11.07-112.64C1343,733.54,1345.37,656.82,1363.19,621.79Z"/>
      <g>
        <path class="cls-10" d="M1312.88,565.41s7.28,17.92-.29,31l6.75-2.82s27-3.5,27.75-3.81-3.21-36.16-3.21-36.16-25.39-6.17-26.09-5.54S1312.88,565.41,1312.88,565.41Z"/>
        <path class="cls-8" d="M1354.18,412.59s-26,3.57-32.67,41.14c0,0-4,17.68-17.21,26.53,0,0-51.8,29.11-54.5,35.35l-2.9,12.24s35.09-2.09,45.8,1.92c0,0,29.33,7.69,34.77,15.24,0,0,24,24.86,23,40.12,0,0-2.14,23.09-7.89,36.13,0,0,37-2.21,43.6-5.81,0,0,59.14-14.53,98.45-68,0,0,47.57-.75,58.67-23.78,0,0,21.26-25.33-5.79-70.78,0,0-21.19-20.4-50.46-10.74,0,0-12,3.23-16,8a68.18,68.18,0,0,0-33.63-29.88s-26.81-8.38-20.22-34.17c0,0-9.76,11.17-11.41,21.43,0,0-4.39,8.14-6-5.14,0,0,2.31-22.23-6.93-32.24,0,0-2.41,13.18-8.32,22,0,0-9.69,9.83-7.43,16.35,0,0-8.32-7-5-27.2C1372.22,381.26,1354.1,398.2,1354.18,412.59Z"/>
        <path class="cls-11" d="M1276.49,526.49s30.09,1.37,51.43,17.44c0,0,19.71,23,22.41,36.9,0,0,1.13,31.43-13,49.08,0,0-26.53,20.39-54-1.45,0,0-5.22-7.79-6.3-14.35,0,0-2.26-3.25-3.93-4.21,0,0,31.64-6,44.08-17,0,0,15.5-12.28,11.68-29.43,0,0-35.3,9.33-66.06,6.19,0,0-24.91-23.32-17.25-41l10.3-5Z"/>
        <path class="cls-12" d="M1263.37,521.18s17.87-1.82,20.28.37c0,0,5.18,6.2,1.23,9.74,0,0-12.33,16.68-39.11,7.59,0,0,2.91,14.14,18.4,26.54,0,0,15.19,10,68.18-6.37a46.78,46.78,0,0,1-3.46,22.27s-4.28,12.13-8.44,14.59c0,0-18.13,14.75-46.8,13.85,0,0,28-7,43.57-16.87,0,0,12.82-11.6,11.55-29.24,0,0-29,15.4-67.37,7.11,0,0-22.45-18.34-18.06-49.5,0,0,1.86-7.49,9.44-5.15Z"/>
        <path class="cls-13" d="M1484.65,471.42s-13.24,11.19-8.93,28.24a97.67,97.67,0,0,0,4.75,12.5s6.44,16.15,4.7,19.13c0,0,25.84.79,32.44-23.19,0,0,10.2-26-14.52-38.1C1503.09,470,1491.51,465.79,1484.65,471.42Z"/>
        <path class="cls-14" d="M1475.9,484.39s2.15-29.91,41.58-26.46c0,0-17.32,1.21-26.78,9.67,0,0,13.32-3.08,23.54,11.17C1514.24,478.77,1493,459,1475.9,484.39Z"/>
        <path class="cls-14" d="M1329.93,458.72s14.49-25,28.77-22.82c0,0,18.73,2.91,22.34,31.74C1381,467.64,1369.38,431.51,1329.93,458.72Z"/>
        <circle class="cls-3" cx="1349.55" cy="496.22" r="28.87"/>
        <circle class="cls-15" cx="1347.93" cy="496.53" r="22.08" transform="translate(762.71 1808.38) rotate(-86.18)"/>
        <circle class="cls-16" cx="1348.07" cy="496.35" r="15.96" transform="translate(-50.67 168.96) rotate(-7.04)"/>
        <circle class="cls-3" cx="1355.45" cy="485.16" r="5.37"/>
      </g>
      <path class="cls-8" d="M1447.77,609c0-.06-2.77-15.81-22.37-6.34l-78,56.4c1.54,13.7,8.73,30,20.41,37.05,17.37-13.9,34.09-28.09,42.74-37.68L1440,633S1450.92,623.08,1447.77,609Z"/>
      <path class="cls-8" d="M1369.59,662.86l-13.27-5.12s-45.34-22.85-48.87-24.22l-13.77-17.73-2.72-8s-5.73-22.51-24-21.11c0,0-15.76,3.58-16.27,15.11,0,0-21.62-12.46-23.72,17.19,0,0-13.19,5.3-10.26,20.72,0,0,2.61,12.39,11,14.14,0,0-8.48,12.35,5.31,20.59,0,0,8.86,5.06,17.68,1.51l31.34,0s33.81,13,67.69,24.22C1349.45,686.6,1359,671.79,1369.59,662.86Z"/>
      <path class="cls-8" d="M1367.86,696.11s-3.53,6.89-19.86,3.56l4-26,15,2.66,1.67,18.67"/>
    </g>
    <g>
      <path class="cls-8" d="M1500.89,799.69s6.91,20-6.36,78.06c0,0,20.27,36.52,19.45,79.09,0,0-10.31,28.51-43.69,25.31,0,0-18.46-52-35.54-66.59,0,0-18.27-23.81-19.29-47.21l12.77-51.75Z"/>
      <path class="cls-3" d="M1481.1,950.64l-1.53-8.72a15.7,15.7,0,0,0-9.58-8.48c-16-6-22.6-2.69-22.6-2.69-6.19,1.88-9.25,10.17-10.23,13.42-44.43,25.33-40.16,37.92-40.16,37.92-7.22,25.75,21.42,32.64,21.42,32.64,33.48,10.71,96.65-12.32,96.65-12.32,5.72-11-1.42-50.17-1.42-50.17C1485.6,969.87,1481.1,950.64,1481.1,950.64Z"/>
      <path class="cls-4" d="M1517.13,992.83s-65.86,23.35-99.34,12.64c0,0-17.69-4.26-21.76-18.59-2.64,21.83,22.39,27.85,22.39,27.85,33.48,10.71,96.65-12.32,96.65-12.32A9.91,9.91,0,0,0,1517.13,992.83Z"/>
      <path class="cls-5" d="M1435.47,946.15s5.42,11.82,31.11,14.8c0,0,7.85,5.74-3.58,7.6,0,0-30.21-1.58-38.35-16.66C1424.65,951.89,1429.16,946,1435.47,946.15Z"/>
      <path class="cls-6" d="M1420.25,955s3.35,10.45,31.86,17.42c0,0,4.08,3-7.63,6.17,0,0-22.32-.52-33.3-16.66C1411.18,961.9,1414.82,956.38,1420.25,955Z"/>
      <path class="cls-7" d="M1407.64,964.8s4.78,12.62,24.78,15.84c0,0,5.56,4.91-5.11,8.21,0,0-19.1-3-26.27-16C1401,972.83,1401.53,967.65,1407.64,964.8Z"/>
    </g>
  </g>
</svg>
