<svg xmlns="http://www.w3.org/2000/svg" viewBox="0 0 1920 1080">
  <defs>
    <style>
      .cls-1 {
        fill: #d3af5d;
      }

      .cls-2 {
        fill: #987647;
      }

      .cls-19, .cls-3 {
        fill: #fff;
      }

      .cls-4 {
        fill: #010084;
      }

      .cls-5 {
        fill: #06b800;
      }

      .cls-6 {
        fill: #f86531;
      }

      .cls-7 {
        fill: #0798ff;
      }

      .cls-8 {
        fill: #e1bd6c;
      }

      .cls-9 {
        fill: #b8b182;
      }

      .cls-10 {
        fill: #620000;
      }

      .cls-11 {
        fill: #ffe6bc;
      }

      .cls-12 {
        fill: #4e2921;
      }

      .cls-13 {
        fill: #a56636;
      }

      .cls-14 {
        fill: #49301d;
      }

      .cls-15 {
        fill: #492b19;
      }

      .cls-16 {
        fill: #221f1f;
      }

      .cls-17 {
        fill: #d1a652;
      }

      .cls-18 {
        opacity: 0.1;
      }

      .cls-19 {
        stroke: #000;
        stroke-miterlimit: 10;
      }
    </style>
  </defs>
  <title>LittleLion-sleeping-02</title>
  <g id="Layer_1" data-name="Layer 1">
    <g>
      <g>
        <g>
          <path class="cls-1" d="M470.76,810.84s91.17-7.47,102.12-16.25a57.8,57.8,0,0,0,18.46,4.64l12,4.54,1.72.94s22.23,3.2,18.92-16c0,0,9.57.15,11.14-13.42,0,0,1.82-10.71-5.78-12.48,0,0,3.59-7.62-.81-13,0,0-5-7.26-13.66-6,0,0-1.94-12.1-11.59-14.07,0,0-13.8-1.6-18.6,11.66,0,0-16.9,15-18.41,17.31,0,0-61.64,23.09-76.9,20.45l-26.15,5.63s-6.45-.36-7.68,17.65C455.54,802.37,456.09,812.17,470.76,810.84Z"/>
          <g>
            <path class="cls-2" d="M576.42,784.73a7.67,7.67,0,0,0,3.27,3.28,6.52,6.52,0,0,0,3.35,1.25,5.91,5.91,0,0,0,3.55-1.52,30.11,30.11,0,0,0,3.07-2.91l6-6.24c2.11-2.19,4.34-4.66,4.49-7.69s-2-5.85-4.48-7.65c-3.19-2.29-7.06-3.43-10.84-4.53-1.79-.52-3.58-1-5.4-1.43a7.63,7.63,0,0,0-4.13,0c-2.73,1-3.69,4.5-3.1,7.34s2.24,5.33,3.19,8.07a16.87,16.87,0,0,1,.88,6.76C576.15,781.2,575.73,783.07,576.42,784.73Z"/>
            <path class="cls-2" d="M602.41,743.78c.42-2.42-.2-5.29-2.33-6.52a5.31,5.31,0,0,0-4.83,0,10.46,10.46,0,0,0-3.73,3.27,10.72,10.72,0,0,0-2.42,5.38,5.45,5.45,0,0,0,2.3,5.17,7.68,7.68,0,0,0,2.82.88,4.77,4.77,0,0,0,1.19.08,3.6,3.6,0,0,0,1.19-.42A11.13,11.13,0,0,0,602.41,743.78Z"/>
            <path class="cls-2" d="M619.32,756.17a4.11,4.11,0,0,0-.5-1.9,7.44,7.44,0,0,0-6.85-3.75,10.28,10.28,0,0,0-7.13,3.69,5.17,5.17,0,0,0-1.51,4.32,4.09,4.09,0,0,0,.77,1.58,7.29,7.29,0,0,0,6.3,2.58,12.31,12.31,0,0,0,6.46-2.71C618.1,759,619.31,757.73,619.32,756.17Z"/>
            <path class="cls-2" d="M608.12,778.3a9.35,9.35,0,0,0,6.36,2.65,10.27,10.27,0,0,0,6.8-2.07,5.07,5.07,0,0,0,1.53-1.85,4.46,4.46,0,0,0-.52-4.1,8.83,8.83,0,0,0-3.26-2.76,12.09,12.09,0,0,0-6.62-1.62,7.59,7.59,0,0,0-5.83,3.25,3.72,3.72,0,0,0-.64,1.75,4.36,4.36,0,0,0,.34,1.77A8.91,8.91,0,0,0,608.12,778.3Z"/>
            <path class="cls-2" d="M601.73,799a8.07,8.07,0,0,0,4.58.95,4.85,4.85,0,0,0,3.77-2.55,6.91,6.91,0,0,0,.31-4,4.9,4.9,0,0,0-.37-1.46,4.69,4.69,0,0,0-1-1.28c-2.64-2.67-6.4-4.72-10.06-3.87a4.37,4.37,0,0,0-2.83,1.81,4.92,4.92,0,0,0,0,4.35A11.7,11.7,0,0,0,601.73,799Z"/>
          </g>
        </g>
        <g>
          <path class="cls-1" d="M628.93,856.73s16.22-4.21,48.74-38.47c0,0,33-2.64,60.75-21.88,0,0,14.3-19.31-2.47-39.94,0,0-42.46,10.66-59.56,5.77,0,0-23.74-1.62-39.63,8L608.2,801.34Z"/>
          <path class="cls-3" d="M721.88,778.84l-7-.86a12.43,12.43,0,0,1-7.1-7.25c-5.42-12.44-3-17.78-3-17.78,1.24-5,7.68-7.74,10.22-8.64C733.27,708.12,743.41,711,743.41,711c20.1-6.76,26.7,15.64,26.7,15.64,9.82,26.08-5.87,77-5.87,77-8.48,5-39.79.89-39.79.89C737.28,781.63,721.88,778.84,721.88,778.84Z"/>
          <path class="cls-4" d="M756.73,805.68s15.84-53.09,6-79.17c0,0-4.08-13.83-15.59-16.47,17.18-3,23,16.6,23,16.6,9.82,26.08-5.87,77-5.87,77A7.89,7.89,0,0,1,756.73,805.68Z"/>
          <path class="cls-5" d="M716.5,742.9s9.57,3.81,13,24c0,0,4.86,6,5.87-3.13,0,0-2.46-23.86-14.72-29.7C720.61,734.1,716.14,737.9,716.5,742.9Z"/>
          <path class="cls-6" d="M722.87,730.49s8.4,2.24,15.07,24.52c0,0,2.51,3.12,4.58-6.28,0,0-1.31-17.66-14.53-25.7C728,723,723.77,726.13,722.87,730.49Z"/>
          <path class="cls-7" d="M730.15,720.11s10.18,3.28,13.53,19c0,0,4.11,4.2,6.3-4.38,0,0-3.16-15-13.74-20.16C736.24,714.56,732.15,715.16,730.15,720.11Z"/>
        </g>
        <path class="cls-8" d="M612.71,850.07s57.18,42.73,44.15,82.58c0,0-6.64,28.38-53.65,42.91,0,0-42.1,8.27-56.11,3.14,0,0-36.16-23.74-76.92,26,0,0,20.78,19,44.86,9.68,0,0,16.92-9.56,24.05-16.58,0,0,52.08-2.84,79-15.4,0,0,52.95-21.24,54.17-59.43,0,0,10.68-27.11-47.13-82.87l-33.57-17.19Z"/>
        <path class="cls-8" d="M423.08,775.83l56.77-8.21,149.31-.85s49.19,2.58,48.54,52.82c0,0,3.28,54.44-25.73,63.61,0,0-8.83,15.54-93.54-8.75s-130.31-30.64-130.31-30.64l-18.25-38.69Z"/>
        <path class="cls-9" d="M473.87,767.57s-9.13,11,4.47,15l65.24,16.64,44.13,12.7s59.59,14,68.91-1.68c0,0,12.45-21.46-4.75-39.48,0,0-17.24-21.77-88.63-14C563.24,756.79,502.41,755.09,473.87,767.57Z"/>
        <g>
          <path class="cls-10" d="M431.57,725.14s13.85,6.59,24.53,1.2l-2.55,5.21s-4,21.2-4.3,21.79-28.47-4.21-28.47-4.21-3.71-20.38-3.17-20.91S431.57,725.14,431.57,725.14Z"/>
          <path class="cls-8" d="M308.72,750.74s4-20.44,34.06-23.94c0,0,14.18-2.37,21.8-12.4,0,0,25.44-39.64,30.5-41.49l9.83-1.73s-3.28,27.67-.61,36.34c0,0,4.72,23.56,10.45,28.22,0,0,18.57,20.18,30.68,20.09,0,0,18.38-.63,29-4.58,0,0-3.47,29.19-6.62,34.24,0,0-14.24,46.13-58.39,74.77,0,0-2.8,37.61-21.55,45.33,0,0-21,15.65-55.74-7.86,0,0-15.17-17.72-6.17-40.44,0,0,3.12-9.32,7.1-12.29A54.13,54.13,0,0,1,311,817s-5.39-21.6-26.12-17.59c0,0,9.3-7.2,17.5-8,0,0,6.64-3.1-3.79-5,0,0-17.71.79-25.2-7,0,0,10.54-1.29,17.76-5.57,0,0,8.23-7.21,13.28-5.12,0,0-5.15-6.91-21.3-5.18C283.08,763.57,297.33,750,308.72,750.74Z"/>
          <path class="cls-11" d="M402.45,694.54s-.3,23.87,11.43,41.51c0,0,17.3,16.66,28.16,19.44,0,0,24.82,2.35,39.45-8,0,0,17.36-20,1.35-42.77,0,0-5.93-4.49-11.07-5.65a14.72,14.72,0,0,1-3.15-3.3s-6.19,24.77-15.5,34.1c0,0-10.44,11.7-23.84,7.88,0,0,9-27.51,8-52,0,0-17.31-20.79-31.69-15.55l-4.42,7.92Z"/>
          <path class="cls-12" d="M398.86,683.91S396.6,698,398.21,700c0,0,4.67,4.38,7.66,1.42,0,0,13.77-9,7.82-30.61,0,0,11.05,3,20.15,15.8,0,0,7.17,12.48-8.2,53.66a37.08,37.08,0,0,0,17.78-1.71s9.8-2.82,11.94-6c0,0,12.51-13.67,13.13-36.4,0,0-6.84,21.85-15.37,33.7,0,0-9.77,9.61-23.68,7.78,0,0,13.53-22.22,8.75-53,0,0-13.47-18.61-38.34-16.58,0,0-6,1.12-4.51,7.23Z"/>
          <path class="cls-13" d="M349.23,856.73s9.47-10,22.77-5.76a78,78,0,0,1,9.67,4.33s12.47,5.85,14.92,4.62c0,0-.58,20.47-19.86,24.59,0,0-21.05,6.87-29.48-13.25C347.25,871.26,344.45,861.89,349.23,856.73Z"/>
          <path class="cls-14" d="M359.9,850.4s-23.77.32-22.87,31.69c0,0,1.76-13.66,8.89-20.75,0,0-3.05,10.4,7.75,19.14C353.67,880.48,339,862.77,359.9,850.4Z"/>
          <path class="cls-14" d="M346.34,733.69S325.88,744,327,755.4c0,0,1.43,15,24.08,19.15C351,774.55,323,763.65,346.34,733.69Z"/>
          <circle class="cls-3" cx="375.13" cy="750.97" r="22.89" transform="translate(-329.59 294.85) rotate(-30.54)"/>
          <circle class="cls-15" cx="375.45" cy="749.73" r="17.5" transform="translate(-247.95 188.99) rotate(-21.43)"/>
          <circle class="cls-16" cx="375.27" cy="749.79" r="12.66" transform="translate(-117.25 71.23) rotate(-9.39)"/>
          <circle class="cls-3" cx="366.09" cy="755.11" r="4.25" transform="translate(-283.98 224.43) rotate(-24.91)"/>
        </g>
        <g>
          <path class="cls-8" d="M607.38,884.5s15.54,6.27,62.07-1.89c0,0,28.09,17.53,61.83,18.59,0,0,23-7,21.8-33.56,0,0-40.46-16.72-51.29-30.83,0,0-18.11-15.43-36.59-17.18l-41.5,8Z"/>
          <path class="cls-3" d="M727.7,874.93l-6.85-1.57a12.42,12.42,0,0,1-6.32-7.93c-4.13-12.93-1.22-18-1.22-18,1.74-4.83,8.43-6.92,11-7.56C746.19,805.72,756,809.61,756,809.61c20.68-4.68,25,18.27,25,18.27,7.13,26.94-13.65,76-13.65,76-8.94,4.08-39.67-3.15-39.67-3.15C742.74,879.26,727.7,874.93,727.7,874.93Z"/>
          <path class="cls-4" d="M759.64,905.15s21.15-51.2,14-78.14c0,0-2.65-14.18-13.83-18,17.38-1.21,21.14,18.85,21.14,18.85,7.13,26.94-13.65,76-13.65,76A7.9,7.9,0,0,1,759.64,905.15Z"/>
          <path class="cls-5" d="M726,838.62s9.13,4.76,10.46,25.22c0,0,4.22,6.45,6.16-2.52,0,0,0-24-11.64-31C731,830.28,726.13,833.61,726,838.62Z"/>
          <path class="cls-6" d="M733.58,826.92s8.14,3.08,12.51,25.92c0,0,2.18,3.36,5.19-5.78,0,0,.49-17.7-11.85-27C739.43,820,734.92,822.68,733.58,826.92Z"/>
          <path class="cls-7" d="M741.88,817.33s9.8,4.3,11.53,20.26c0,0,3.67,4.6,6.71-3.71,0,0-1.62-15.25-11.62-21.45C748.5,812.43,744.37,812.61,741.88,817.33Z"/>
        </g>
        <path class="cls-8" d="M468.74,815.59,536.12,873s33.07,23,35.36,24.91L589,900.75l6.58-1.12s17.87-4.52,23.78,8.74c0,0,3.46,12.33-4.38,17,0,0,16.85,10.36-3,23,0,0,1.3,11.19-10.57,15,0,0-9.61,2.85-14-2.31,0,0-5.4,10.59-16.36,4.09,0,0-6.87-4.26-7.73-11.72l-11.89-21.82s-58.15-49.77-74.49-71l-21.7-22s-8-8.52-4.63-19.46C450.65,819.14,453.84,806.87,468.74,815.59Z"/>
      </g>
      <path class="cls-17" d="M372.11,727.11s-25,6.47-19.68,30.09,31.77,17.43,36.27,14.62A24.42,24.42,0,0,0,398,743.14C392.64,727.68,372.11,727.11,372.11,727.11Z"/>
    </g>
  </g>
  <g id="Layer_2" data-name="Layer 2">
    <g class="cls-18">
      <path class="cls-19" d="M425.42,611.92l26.39-6.53-4.86,26,11.27-2.79.53,13.84-28.67,7.09,5-26L426,625.74Z"/>
    </g>
  </g>
</svg>
