<svg id="Layer_2" data-name="Layer 2" xmlns="http://www.w3.org/2000/svg" xmlns:xlink="http://www.w3.org/1999/xlink" viewBox="0 0 260 168"><defs><style>.cls-1{fill:#f2a040;}.cls-2{fill:#f2a64c;}.cls-3{fill:#ffba5f;}.cls-4{fill:red;}.cls-5{fill:#f4a64a;}.cls-6{fill:#ffbd76;}.cls-7{fill:#c97523;}.cls-8{clip-path:url(#clip-path);}.cls-13,.cls-9{fill:#f9e295;}.cls-10{clip-path:url(#clip-path-2);}.cls-11{fill:#dd8b31;}.cls-12{clip-path:url(#clip-path-3);}.cls-13{opacity:0.29;}.cls-14{clip-path:url(#clip-path-4);}.cls-15{clip-path:url(#clip-path-5);}.cls-16{fill:#e20000;}.cls-17{fill:#f40303;}.cls-18{clip-path:url(#clip-path-6);}.cls-19{clip-path:url(#clip-path-7);}.cls-20{fill:#e59135;}.cls-21{clip-path:url(#clip-path-8);}.cls-22{fill:#efa154;}.cls-23{clip-path:url(#clip-path-9);}.cls-24{fill:#db0000;}.cls-25,.cls-26{fill:#ff7676;}.cls-25{opacity:0.58;}</style><clipPath id="clip-path"><rect class="cls-1" x="127.18" y="87.02" width="28" height="7.72"/></clipPath><clipPath id="clip-path-2"><path class="cls-2" d="M121.8,109.44a9.05,9.05,0,0,1,2,9.87l-.33,0a2.23,2.23,0,1,0,.87,4.37,2.37,2.37,0,0,0,1.81-1.54c.88-1.5,3-6.22.07-13.63-3.57-9.09.71-11,.71-11l-9.52.6S116.29,103.81,121.8,109.44Z"/></clipPath><clipPath id="clip-path-3"><path class="cls-2" d="M160.27,109.44a9.05,9.05,0,0,0-2,9.87l.33,0a2.23,2.23,0,1,1-.87,4.37,2.39,2.39,0,0,1-1.81-1.54c-.88-1.5-3-6.22-.07-13.63,3.57-9.09-.7-11-.7-11l9.51.6S165.78,103.81,160.27,109.44Z"/></clipPath><clipPath id="clip-path-4"><path class="cls-3" d="M155.63,70.72c2.5-10.55,5.63-16.11-4.77-18.09a4.17,4.17,0,0,0-3.69-3C146.89,47,144.24,45,141,45s-5.87,2-6.16,4.64a4.17,4.17,0,0,0-3.72,3c-10.41,2-7.28,7.54-4.78,18.09s0,15,0,15c-1.43,4.4,14,3.83,14.64,3.81s16.08.59,14.64-3.81C155.63,85.7,153.14,81.28,155.63,70.72Z"/></clipPath><clipPath id="clip-path-5"><path class="cls-4" d="M149.68,54.76a6.7,6.7,0,0,0-8.67-1,6.7,6.7,0,0,0-8.67,1c-4.87.74-7.65,4.18-4.91,13.39a49,49,0,0,1,2,14.32A2.51,2.51,0,0,0,131,85l-.08,0S133.68,87,141,87c6.11,0,9.39-1.58,10.32-2.11a1.17,1.17,0,0,0,.28-.17h0a2.77,2.77,0,0,0,1-2.27,49,49,0,0,1,2-14.32C157.33,58.94,154.56,55.5,149.68,54.76Z"/></clipPath><clipPath id="clip-path-6"><path class="cls-3" d="M165.66,99.37a15.53,15.53,0,0,0-12.33-9.17L129,90.72s-9.15,2.87-12.23,8.48a2.29,2.29,0,0,0-.7,1.64v.71a2.28,2.28,0,0,0,1.18,2,.92.92,0,0,0,0,.28c0,1.18,2.68,2.13,6,2.13a15.54,15.54,0,0,0,3-.29c3,1.09,8.48,1.82,14.8,1.82s11.91-.74,14.86-1.84A14.91,14.91,0,0,0,159,106c3.32,0,6-1,6-2.13a.74.74,0,0,0-.05-.25,2.26,2.26,0,0,0,1.25-2v-.71A2.31,2.31,0,0,0,165.66,99.37Z"/></clipPath><clipPath id="clip-path-7"><path class="cls-5" d="M113.54,98s.11,5.47,27.8,5.47S172,95.92,172,95.92l.25,7.55-4.06,7.12-37.62.15-14.64-.55Z"/></clipPath><clipPath id="clip-path-8"><path class="cls-5" d="M116.72,99.2s2.13-8.07,0-13.13h2.94s1.8,8,0,13.4A3.16,3.16,0,0,1,116.72,99.2Z"/></clipPath><clipPath id="clip-path-9"><rect class="cls-6" x="114.37" y="84.81" width="5.55" height="2.52" rx="1.18"/></clipPath></defs><path class="cls-7" d="M127.74,94.47s-.88,6.83.75,11.36a20.69,20.69,0,0,1,1.13,10.29c-.37,1.72,1.55,2.82,2.93.61s.46-9,0-12.76,1-9.41,1-9.41Z"/><path class="cls-7" d="M154.51,94.47s.88,6.83-.74,11.36a20.61,20.61,0,0,0-1.14,10.29c.37,1.72-1.55,2.82-2.92.61s-.47-9,0-12.76-1-9.41-1-9.41Z"/><rect class="cls-1" x="127.18" y="87.02" width="28" height="7.72"/><g class="cls-8"><rect class="cls-9" x="124.45" y="84.81" width="3.51" height="12.74"/></g><path class="cls-2" d="M121.8,109.44a9.05,9.05,0,0,1,2,9.87l-.33,0a2.23,2.23,0,1,0,.87,4.37,2.37,2.37,0,0,0,1.81-1.54c.88-1.5,3-6.22.07-13.63-3.57-9.09.71-11,.71-11l-9.52.6S116.29,103.81,121.8,109.44Z"/><g class="cls-10"><path class="cls-11" d="M124,95.53s-1.78,5.43,1,12.76,2.4,9.35.91,12.53a2.26,2.26,0,0,0-1.24-1.08s1.53,1.77-1,2.83-2.21-1-2.3-1.54l-.41,2.55,1.19,2,7.66-.38,7.13-7.79-8.18-20.71Z"/><path class="cls-9" d="M118.36,96.06s-.17,7.44,3.75,12.29,3.22,8,1.9,11a6.86,6.86,0,0,0-.91-.17c-.21,0-8.37-18.4-8.37-18.4Z"/></g><ellipse class="cls-9" cx="123.06" cy="120.34" rx="0.76" ry="0.51" transform="translate(-21.22 26.49) rotate(-11.32)"/><path class="cls-2" d="M160.27,109.44a9.05,9.05,0,0,0-2,9.87l.33,0a2.23,2.23,0,1,1-.87,4.37,2.39,2.39,0,0,1-1.81-1.54c-.88-1.5-3-6.22-.07-13.63,3.57-9.09-.7-11-.7-11l9.51.6S165.78,103.81,160.27,109.44Z"/><g class="cls-12"><path class="cls-11" d="M158,95.53s1.78,5.43-1,12.76-2.4,9.35-.91,12.53a2.27,2.27,0,0,1,1.23-1.08s-1.53,1.77.95,2.83,2.21-1,2.3-1.54l.41,2.55-1.19,2-7.66-.38-7.12-7.79,8.17-20.71Z"/><path class="cls-13" d="M163.71,96.06s.17,7.44-3.74,12.29-3.23,8-1.9,11a7,7,0,0,1,.9-.17c.21,0,8.38-18.4,8.38-18.4Z"/></g><ellipse class="cls-9" cx="159.02" cy="120.34" rx="0.51" ry="0.76" transform="translate(9.81 252.65) rotate(-78.68)"/><path class="cls-3" d="M155.63,70.72c2.5-10.55,5.63-16.11-4.77-18.09a4.17,4.17,0,0,0-3.69-3C146.89,47,144.24,45,141,45s-5.87,2-6.16,4.64a4.17,4.17,0,0,0-3.72,3c-10.41,2-7.28,7.54-4.78,18.09s0,15,0,15c-1.43,4.4,14,3.83,14.64,3.81s16.08.59,14.64-3.81C155.63,85.7,153.14,81.28,155.63,70.72Z"/><g class="cls-14"><path class="cls-9" d="M124.42,65.38s2.43,3.15,3.17,10.13a26.16,26.16,0,0,1-.48,10c0,.84-1.11,2.58,2.57,4.3l-.06,2L119,89.55l2-23.06Z"/></g><path class="cls-1" d="M154.27,70.61c2.27-9.73,5.11-14.85-4.33-16.67a3.81,3.81,0,0,0-3.34-2.76c-.26-2.4-2.66-4.28-5.59-4.28s-5.33,1.88-5.59,4.28a3.78,3.78,0,0,0-3.37,2.76c-9.44,1.82-6.6,6.94-4.34,16.67s0,13.79,0,13.79c-1.3,4,12.73,3.53,13.28,3.51s14.58.54,13.28-3.51C154.27,84.4,152,80.33,154.27,70.61Z"/><path class="cls-4" d="M149.68,54.76a6.7,6.7,0,0,0-8.67-1,6.7,6.7,0,0,0-8.67,1c-4.87.74-7.65,4.18-4.91,13.39a49,49,0,0,1,2,14.32A2.51,2.51,0,0,0,131,85l-.08,0S133.68,87,141,87c6.11,0,9.39-1.58,10.32-2.11a1.17,1.17,0,0,0,.28-.17h0a2.77,2.77,0,0,0,1-2.27,49,49,0,0,1,2-14.32C157.33,58.94,154.56,55.5,149.68,54.76Z"/><g class="cls-15"><path class="cls-16" d="M129.1,81.54a20,20,0,0,0,11,3.23c6.54,0,11.79-2.31,13.17-3.64l6.44-.09s3.13,10.73,0,10.73h-38.3l4.19-10.41Z"/><path class="cls-16" d="M125.45,70.85s-1-14.12,7-14.61c0,0,4.67-4,8.56-.86,0,0,4.33-3.07,8,.43,0,0,7.49.49,7.12,10.37l3.93-1.35-.8-13.63-29.52-1.9-11.3,9.33Z"/><path class="cls-16" d="M128.09,54.89a23.84,23.84,0,0,0,.18,13.26c2.15,7.61,2.38,11.89,2.36,14.31s-6,5.33-6,5.33l-1.9-31.18Z"/><path class="cls-16" d="M153.35,54.89a23.84,23.84,0,0,1-.18,13.26C151,75.76,150.79,80,150.81,82.46s6,5.33,6,5.33l1.9-31.18Z"/></g><ellipse class="cls-17" cx="135.86" cy="53.36" rx="0.84" ry="0.24" transform="translate(-6.18 19.74) rotate(-8.13)"/><ellipse class="cls-17" cx="134.54" cy="53.97" rx="0.59" ry="0.16" transform="translate(-9.57 38.26) rotate(-15.64)"/><path class="cls-16" d="M128.47,58.12s-1.21,1.41-1.12,4.91l-.63-3.92,1.18-1.6Z"/><path class="cls-16" d="M153.55,58s1,1.54.56,5l1.07-3.82-1-1.73Z"/><ellipse class="cls-16" cx="132.97" cy="63.76" rx="0.83" ry="2.36" transform="translate(-2.71 5.99) rotate(-2.56)"/><ellipse class="cls-16" cx="141.5" cy="63.76" rx="2.36" ry="0.83" transform="translate(75.53 204.24) rotate(-89.1)"/><ellipse class="cls-16" cx="150.01" cy="63.76" rx="2.36" ry="0.83" transform="translate(79.62 210.77) rotate(-87.44)"/><path class="cls-16" d="M132.73,66.6a.75.75,0,0,1,.52-.4h.16a.44.44,0,0,1,.16,0,.76.76,0,0,1,.31.16.21.21,0,0,0,.3-.3,1.22,1.22,0,0,0-1-.28,1.2,1.2,0,0,0-.8.6.21.21,0,0,0,.37.21Z"/><path class="cls-16" d="M131.92,61.25a1.24,1.24,0,0,0,1.89.07.21.21,0,0,0,0-.3.21.21,0,0,0-.29,0,.89.89,0,0,1-.68.28.92.92,0,0,1-.63-.35.21.21,0,0,0-.29,0,.22.22,0,0,0,0,.3Z"/><path class="cls-16" d="M140.79,61.06a.92.92,0,0,0,.83.54,2.08,2.08,0,0,0,1-.24.21.21,0,0,0,.07-.29.2.2,0,0,0-.28-.08,1.55,1.55,0,0,1-.69.19.7.7,0,0,1-.3-.06.43.43,0,0,1-.13-.09s0-.06,0,0,0-.07,0-.05a.21.21,0,0,0-.26-.14.21.21,0,0,0-.14.26Z"/><path class="cls-16" d="M140.84,66.42a.78.78,0,0,1,.69-.28,1.4,1.4,0,0,1,.78.38.22.22,0,0,0,.29,0,.21.21,0,0,0,0-.3,1.87,1.87,0,0,0-1.07-.5,1.2,1.2,0,0,0-1,.4.22.22,0,0,0,0,.3.21.21,0,0,0,.29,0Z"/><path class="cls-16" d="M149.39,61.3a1.88,1.88,0,0,0,1.53.41.19.19,0,0,0,.14-.25.21.21,0,0,0-.25-.15h-.31a1,1,0,0,1-.28,0,1.39,1.39,0,0,1-.27-.1l-.15-.08-.07-.05h0l0,0a.22.22,0,0,0-.3,0,.21.21,0,0,0,0,.29Z"/><path class="cls-16" d="M149.32,66.6a.72.72,0,0,1,.68-.3,1.23,1.23,0,0,1,.78.43c.19.19.49-.11.3-.3a1.69,1.69,0,0,0-1.11-.55,1.12,1.12,0,0,0-1,.5c-.15.23.21.44.36.22Z"/><ellipse class="cls-16" cx="141.5" cy="76.11" rx="2.36" ry="0.83" transform="translate(63.19 216.4) rotate(-89.1)"/><ellipse class="cls-16" cx="134.56" cy="75.25" rx="0.83" ry="2.36" transform="translate(-3.22 6.08) rotate(-2.56)"/><ellipse class="cls-16" cx="148.41" cy="75.25" rx="2.36" ry="0.83" transform="translate(66.62 220.16) rotate(-87.44)"/><path class="cls-16" d="M133.28,72.87a2.38,2.38,0,0,0,2.34,0,.22.22,0,0,0,.08-.29.21.21,0,0,0-.29-.07,2,2,0,0,1-2-.09.22.22,0,0,0-.26.15.22.22,0,0,0,.15.26Z"/><path class="cls-16" d="M134,78.29a.7.7,0,0,1,.63-.52,1.2,1.2,0,0,1,.95.43c.18.2.48-.1.29-.3a1.55,1.55,0,0,0-1.3-.54,1.11,1.11,0,0,0-1,.82.22.22,0,0,0,.15.26.2.2,0,0,0,.25-.15Z"/><path class="cls-16" d="M140.5,73.25a1.46,1.46,0,0,0,.95.65,1.43,1.43,0,0,0,1.15-.35.2.2,0,0,0,0-.29.21.21,0,0,0-.3,0,1,1,0,0,1-1.43-.23.22.22,0,0,0-.37.22Z"/><path class="cls-16" d="M141,78.85s0,0,0,0,0,0,0,0l0,0,0,0,0,0,0,0,0,0s0,0,0,0l.16-.1h.14s0,0,0,0a.67.67,0,0,1,.62.29.2.2,0,0,0,.28.08.21.21,0,0,0,.08-.29,1.07,1.07,0,0,0-1-.49,1.08,1.08,0,0,0-.89.69.21.21,0,0,0,.41.11Z"/><path class="cls-16" d="M147.8,78.11l0-.09s0,0,0,0l0,0,0,0s0,0,0,0l.06-.06s0,0,0,0l0,0h0l0,0h0l.09,0s-.05,0,0,0h.1s0,0,0,0l.08,0s0,0,0,0l0,0,0,0h0l.06.06h0l0,0a.05.05,0,0,0,0,0s0,0,0,0a.3.3,0,0,1,0,.1.22.22,0,0,0,.26.14.22.22,0,0,0,.15-.26.81.81,0,0,0-.77-.64.8.8,0,0,0-.77.64.22.22,0,0,0,.15.26.21.21,0,0,0,.25-.15Z"/><path class="cls-16" d="M147.67,72.31a.92.92,0,0,0,.73.73.93.93,0,0,0,1-.49.22.22,0,0,0-.07-.29.21.21,0,0,0-.29.08.41.41,0,0,1-.05.09h0l0,0,0,0h0l-.08,0-.05,0s0,0,0,0l-.09,0c-.05,0,0,0,0,0h-.11l-.09,0s-.05,0,0,0l0,0-.08,0s0,0,0,0l0,0,0,0h0l0-.09v0s0,0,0,0l0-.11a.21.21,0,0,0-.25-.14.22.22,0,0,0-.15.26Z"/><path class="cls-9" d="M130.55,53.1a11.32,11.32,0,0,0-3.39,1.2,5.07,5.07,0,0,0-1.37,1.1,7.59,7.59,0,0,0-.89,1.51,7,7,0,0,0-.47,3.49c.07,1.2.21,2.42.29,3.63a33.57,33.57,0,0,1-.61-3.61,7,7,0,0,1,.4-3.68,8,8,0,0,1,1-1.59A4.83,4.83,0,0,1,127,54,9.11,9.11,0,0,1,130.55,53.1Z"/><path class="cls-9" d="M131.77,52.79a2.6,2.6,0,0,1,.92-2.12,2.82,2.82,0,0,1,1.08-.54,3,3,0,0,1,1.16-.06,5.05,5.05,0,0,0-2,.92A4.07,4.07,0,0,0,131.77,52.79Z"/><ellipse class="cls-9" cx="141.01" cy="45.84" rx="1.77" ry="0.48"/><ellipse class="cls-9" cx="138.34" cy="46.61" rx="0.9" ry="0.29"/><path class="cls-3" d="M165.66,99.37a15.53,15.53,0,0,0-12.33-9.17L129,90.72s-9.15,2.87-12.23,8.48a2.29,2.29,0,0,0-.7,1.64v.71a2.28,2.28,0,0,0,1.18,2,.92.92,0,0,0,0,.28c0,1.18,2.68,2.13,6,2.13a15.54,15.54,0,0,0,3-.29c3,1.09,8.48,1.82,14.8,1.82s11.91-.74,14.86-1.84A14.91,14.91,0,0,0,159,106c3.32,0,6-1,6-2.13a.74.74,0,0,0-.05-.25,2.26,2.26,0,0,0,1.25-2v-.71A2.31,2.31,0,0,0,165.66,99.37Z"/><g class="cls-18"><path class="cls-5" d="M113.54,98s.11,5.47,27.8,5.47S172,95.92,172,95.92l.25,7.55-4.06,7.12-37.62.15-14.64-.55Z"/><g class="cls-19"><path class="cls-9" d="M115.2,99.47s1.1.32,1.15,2.07,2,2,2,2-1.53.09-.35,2.16l-3.29-.14Z"/></g></g><rect class="cls-20" x="122.87" y="83.92" width="3.16" height="10.55" transform="translate(-4.54 6.7) rotate(-3.03)"/><rect class="cls-5" x="122.87" y="83.95" width="2.09" height="10.55" transform="translate(-4.54 6.68) rotate(-3.03)"/><path class="cls-4" d="M115.75,82.85A13.73,13.73,0,0,1,125,81.13l-2.09,1.53-4.08.69Z"/><polygon class="cls-20" points="119.69 86.07 121.04 85.7 121.64 97.44 120.14 99.1 119.69 86.07"/><path class="cls-5" d="M116.72,99.2s2.13-8.07,0-13.13h2.94s1.8,8,0,13.4A3.16,3.16,0,0,1,116.72,99.2Z"/><g class="cls-21"><path class="cls-9" d="M116,84.64s2.76,2,2.31,7.42-1.89,7.91-1.89,7.91l-6.68-5.5Z"/></g><path class="cls-22" d="M119.2,87.24s6.24-2.14,6.83-2.69a1,1,0,0,0-.56-1.7,66.06,66.06,0,0,0-6.73,2Z"/><rect class="cls-6" x="114.37" y="84.81" width="5.55" height="2.52" rx="1.18"/><g class="cls-23"><path class="cls-9" d="M117.87,84.27c-.58.15-1.15.31-1.72.5a1.89,1.89,0,0,0-1.09.7,1.39,1.39,0,0,0-.13,1,2.42,2.42,0,0,0,.88,1.44l-1.93.81a18.45,18.45,0,0,1-.54-3,3.36,3.36,0,0,1,.32-2.15,1,1,0,0,1,.42-.41,1.48,1.48,0,0,1,.69-.11c.93,0,1.85,0,2.77.11"/></g><path class="cls-24" d="M120.09,82.66s3.26-1.82,4.87-1.53.58,2.42,0,2.79a16.14,16.14,0,0,1-5.25,1.25Z"/><rect class="cls-4" x="115.2" y="82.66" width="5.55" height="2.52" rx="1.18"/><rect class="cls-20" x="156.27" y="83.92" width="3.16" height="10.55" transform="translate(310.77 186.61) rotate(-176.97)"/><rect class="cls-5" x="157.34" y="83.95" width="2.09" height="10.55" transform="translate(311.83 186.69) rotate(-176.97)"/><path class="cls-4" d="M166.38,82.76a13.32,13.32,0,0,0-9-1.63l2.09,1.53,4.08.69Z"/><polygon class="cls-20" points="162.62 86.07 161.26 85.7 160.66 97.44 162.16 99.1 162.62 86.07"/><path class="cls-5" d="M165.58,99.2s-2.13-8.07,0-13.13h-2.94s-1.8,8,0,13.4A3.16,3.16,0,0,0,165.58,99.2Z"/><path class="cls-22" d="M163.1,87.24s-6.24-2.14-6.83-2.69a1,1,0,0,1,.56-1.7,66.06,66.06,0,0,1,6.73,2Z"/><rect class="cls-6" x="162.38" y="84.81" width="5.55" height="2.52" rx="1.18" transform="translate(330.31 172.14) rotate(180)"/><path class="cls-24" d="M162.21,82.66s-3.26-1.82-4.87-1.53-.58,2.42,0,2.79a16.14,16.14,0,0,0,5.25,1.25Z"/><rect class="cls-4" x="161.54" y="82.66" width="5.55" height="2.52" rx="1.18" transform="translate(328.64 167.84) rotate(180)"/><path class="cls-24" d="M161.32,101.09a195.8,195.8,0,0,1-20.46,1,194.88,194.88,0,0,1-19.64-1,2.28,2.28,0,0,1-1.42-.5,1.57,1.57,0,0,1-.59-1.19V95.93a.84.84,0,0,1,.9-.76h42.53a.64.64,0,0,1,.69.58V99.4A1.87,1.87,0,0,1,161.32,101.09Z"/><path class="cls-4" d="M162.82,95.68H120.19c-1,0-.81-.51-.49-.85a11.89,11.89,0,0,1,3.17-2.31,17,17,0,0,1,4.41-1.5.43.43,0,0,0,.12,0,2.28,2.28,0,0,1,.56-.21,2.44,2.44,0,0,1,.66-.09c3.84-.27,8.1-.46,12.71-.47,4.94,0,9.48.18,13.55.47h.05a16.28,16.28,0,0,1,5.29,1.94,10.46,10.46,0,0,1,2.94,2.52C163.34,95.37,163.15,95.68,162.82,95.68Z"/><ellipse class="cls-4" cx="126.03" cy="95.68" rx="6.81" ry="1.21"/><ellipse class="cls-4" cx="139.35" cy="95.68" rx="6.81" ry="1.21"/><ellipse class="cls-4" cx="152.18" cy="95.68" rx="6.81" ry="1.21"/><ellipse class="cls-4" cx="156.51" cy="95.68" rx="6.81" ry="1.21"/><ellipse class="cls-16" cx="131.53" cy="92.5" rx="2.58" ry="0.44"/><ellipse class="cls-16" cx="141.27" cy="92.5" rx="2.58" ry="0.44"/><ellipse class="cls-16" cx="150.75" cy="92.5" rx="2.58" ry="0.44"/><path class="cls-4" d="M119.31,95.47a.26.26,0,0,0,0,.27.39.39,0,0,0,.14.08,1.38,1.38,0,0,0,.27.08.42.42,0,0,0,.26-.07.28.28,0,0,0,.09-.18.81.81,0,0,0,0-.38.28.28,0,0,0-.13-.17.53.53,0,0,0-.18,0c-.15,0-.2,0-.28.08A2,2,0,0,0,119.31,95.47Z"/><ellipse class="cls-25" cx="156.78" cy="95.65" rx="5.03" ry="0.42"/><ellipse class="cls-25" cx="148.23" cy="94.96" rx="2.52" ry="0.21"/><ellipse class="cls-25" cx="141.22" cy="56.91" rx="4.94" ry="0.58"/><ellipse class="cls-26" cx="119.23" cy="82.08" rx="0.9" ry="0.29"/></svg>