<svg id="Layer_1" data-name="Layer 1" xmlns="http://www.w3.org/2000/svg" xmlns:xlink="http://www.w3.org/1999/xlink" viewBox="0 0 260 168"><defs><style>.cls-1,.cls-17,.cls-18,.cls-21,.cls-5,.cls-6{fill:none;}.cls-2{fill:#d3d3d3;opacity:0.24;}.cls-3{clip-path:url(#clip-path);}.cls-4{fill:#d81616;}.cls-18,.cls-5{stroke:#aaa;stroke-width:0.66px;}.cls-17,.cls-5,.cls-6{stroke-miterlimit:10;}.cls-16,.cls-6{stroke:#000;}.cls-6{stroke-width:0.17px;}.cls-7{clip-path:url(#clip-path-2);}.cls-8{fill:#ff2c2c;}.cls-9{fill:#fff;}.cls-10{fill:#891010;opacity:0.13;}.cls-11{fill:#fc5959;}.cls-12{fill:#a52020;}.cls-13{fill:#b23838;}.cls-14{fill:#0c0a07;opacity:0.25;}.cls-15{fill:#ffdeae;}.cls-16{fill:#ff1526;stroke-width:0.17px;}.cls-17{stroke:#ff1526;stroke-width:0.12px;}.cls-18,.cls-21{stroke-linecap:round;stroke-linejoin:round;}.cls-19{fill:#d6a749;}.cls-20{fill:#ffd26e;}.cls-21{stroke:#b28a42;stroke-width:0.5px;}.cls-22{fill:#aaa;}</style><clipPath id="clip-path"><path class="cls-1" d="M144.07,113.38a4.42,4.42,0,0,1,3.59-.59,6.44,6.44,0,0,0,1.47.36,5.09,5.09,0,0,0,1.66-.43,7,7,0,0,1,4-.16,6.69,6.69,0,0,0,1.69.35,7.49,7.49,0,0,0,1.55-.32,5.78,5.78,0,0,1,4.37.73,6.5,6.5,0,0,1,8.36.34,4.83,4.83,0,0,1,4.22-.81,6.21,6.21,0,0,0,1.33.35c.79,0,1.56-.39,2.34-.28,1.37.19,1.92,1.84,2.2,3.19.52,2.62,1,5.24,1.41,7.88a123.93,123.93,0,0,1,.68,19.65,12.23,12.23,0,0,1-.44,3.57c-.88,2.6-3.4,4.27-5.92,5.35-5.5,2.37-11.62,2.84-17.61,2.82s-12.19-.56-17.75-2.9a8.42,8.42,0,0,1-4.16-3.09c-1-1.73-.92-3.89-.76-5.91l1.26-16c.29-3.71.66-7.65,2.87-10.66a10.06,10.06,0,0,1,3.64-3.05l-.66.74"/></clipPath><clipPath id="clip-path-2"><path class="cls-1" d="M141.75,120.68c2.41-2.19,6.23-2.2,9.19-.83a3.48,3.48,0,0,0,1.42.45,3.42,3.42,0,0,0,1.34-.41,12.91,12.91,0,0,1,10-.14,3,3,0,0,0,1.16.32,3.57,3.57,0,0,0,1.57-.6,6.41,6.41,0,0,1,6.39.33,8,8,0,0,1,6.3-1,2.18,2.18,0,0,1,1,.49,2.64,2.64,0,0,1,.62,1.21,61.7,61.7,0,0,1,1.65,28.1c-.45,2.55-1.12,5.2-2.89,7.09s-4.64,2.81-7.29,3.46A136.55,136.55,0,0,1,155,162.19a27.09,27.09,0,0,1-5.47.22,22.64,22.64,0,0,1-4.59-1,21.25,21.25,0,0,1-9.26-5.21,16.84,16.84,0,0,1-4.1-13.24,26.45,26.45,0,0,1,5.53-13c1.58-2.1,3.47-4.23,3.66-6.85a4.35,4.35,0,0,1,.18-1.3,1,1,0,0,1,1-.68l-1.58.87"/></clipPath></defs><path class="cls-2" d="M146.55,110.65s16.13-2.42,27,.62l2.27,6.23-31.38.53S146.41,113.06,146.55,110.65Z"/><path class="cls-2" d="M146.46,110.11s3.42-1,14.14-1,13.18,1.69,13.18,1.69v-4.93s-2.7-2-13.47-2-13.95,2-13.95,2Z"/><g class="cls-3"><path class="cls-4" d="M176.7,117.2a.8.8,0,0,0-.22-.49c-1.93-4.5-1.76-6.52-1.76-6.52v-4.6h0c0-1.5-6.55-2.72-14.63-2.72s-14.63,1.22-14.63,2.72v4a.54.54,0,0,0-.06.25.53.53,0,0,0,.06.24v.15s.17,2-1.76,6.52a.73.73,0,0,0-.22.5v32c0,1.71,7.44,3.09,16.61,3.09s16.62-1.38,16.62-3.09h0v-32Z"/></g><ellipse class="cls-5" cx="160.2" cy="105.75" rx="14.63" ry="2.73"/><path class="cls-6" d="M176.81,117.45a.74.74,0,0,0-.21-.49c-1.93-4.5-1.76-6.52-1.76-6.52v-4.6h0c0-1.5-6.55-2.73-14.63-2.73s-14.63,1.23-14.63,2.73v4a.54.54,0,0,0-.06.25.53.53,0,0,0,.06.24v.15s.16,2-1.77,6.52a.77.77,0,0,0-.22.5v32c0,1.71,7.44,3.09,16.62,3.09s16.61-1.38,16.61-3.09h0v-32Z"/><g class="cls-7"><path class="cls-8" d="M176.81,117.45a.74.74,0,0,0-.21-.49c-1.93-4.5-1.76-6.52-1.76-6.52v-4.6h0c0-1.5-6.55-2.73-14.63-2.73s-14.63,1.23-14.63,2.73v4a.54.54,0,0,0-.06.25.53.53,0,0,0,.06.24v.15s.16,2-1.77,6.52a.77.77,0,0,0-.22.5v32c0,1.71,7.44,3.09,16.62,3.09s16.61-1.38,16.61-3.09h0v-32Z"/></g><circle class="cls-9" cx="173.41" cy="113.77" r="0.8"/><circle class="cls-9" cx="174.63" cy="115.57" r="0.6"/><ellipse class="cls-10" cx="160.2" cy="149.23" rx="16.62" ry="3.09"/><ellipse class="cls-11" cx="163.85" cy="145.54" rx="1.42" ry="0.59"/><ellipse class="cls-11" cx="173.41" cy="135.98" rx="1.42" ry="0.59"/><ellipse class="cls-11" cx="173.41" cy="148.63" rx="1.42" ry="0.59"/><ellipse class="cls-11" cx="162.75" cy="130.24" rx="1.42" ry="0.59"/><ellipse class="cls-11" cx="173.41" cy="127.23" rx="1.42" ry="0.59" transform="translate(-8.13 242.56) rotate(-68.69)"/><ellipse class="cls-12" cx="167.09" cy="115.57" rx="1.42" ry="0.59" transform="translate(-1.29 229.25) rotate(-68.69)"/><ellipse class="cls-13" cx="163.85" cy="123.02" rx="0.59" ry="1.42" transform="translate(1.75 248.34) rotate(-74.61)"/><rect class="cls-14" x="148.13" y="122.34" width="24.13" height="26.58" rx="2.75"/><rect class="cls-15" x="147.86" y="121.8" width="24.13" height="26.58" rx="2.75"/><path class="cls-5" d="M176.81,117.45a.74.74,0,0,0-.21-.49c-1.93-4.5-1.76-6.52-1.76-6.52v-4.6h0c0-1.5-6.55-2.73-14.63-2.73s-14.63,1.23-14.63,2.73v4a.54.54,0,0,0-.06.25.53.53,0,0,0,.06.24v.15s.16,2-1.77,6.52a.77.77,0,0,0-.22.5v32c0,1.71,7.44,3.09,16.62,3.09s16.61-1.38,16.61-3.09h0v-32Z"/><path class="cls-16" d="M152.78,139.05a3.9,3.9,0,0,1-.18,1.24,2.48,2.48,0,0,1-.52.88,2.32,2.32,0,0,1-.83.53,2.85,2.85,0,0,1-1.08.19h-.53L149,139.8h.26a1.19,1.19,0,0,0,.78-.22.92.92,0,0,0,.26-.74v-5.58l2.47-.21Zm0-6.8-2.48.2v-2.09l2.61-.11Z"/><path class="cls-16" d="M157.41,138.91h0a1.71,1.71,0,0,1-.78.61,3.12,3.12,0,0,1-1,.17,2.28,2.28,0,0,1-1.59-.64,2.39,2.39,0,0,1-.49-.74,2.5,2.5,0,0,1-.18-1,2,2,0,0,1,.18-.86,2.15,2.15,0,0,1,.5-.69,2.29,2.29,0,0,1,.74-.45,2.52,2.52,0,0,1,.93-.17,2.1,2.1,0,0,1,.88.16,2.7,2.7,0,0,1,.61.34v-.34a.68.68,0,0,0-.34-.69,1.93,1.93,0,0,0-.89-.18,3.89,3.89,0,0,0-.93.11c-.29.07-.59.15-.88.24l.44-1.82a7.18,7.18,0,0,1,1.14-.22,12.1,12.1,0,0,1,1.21-.06,4.53,4.53,0,0,1,1.1.13,2.7,2.7,0,0,1,.94.43,2.15,2.15,0,0,1,.64.76,2.39,2.39,0,0,1,.23,1.15l-.13,4.31-2.29.2ZM156,136.8a1.33,1.33,0,0,0-.64.27.49.49,0,0,0,.11.87,1.4,1.4,0,0,0,.73.06,1.19,1.19,0,0,0,.66-.29.51.51,0,0,0,.17-.46.52.52,0,0,0-.29-.37A1.07,1.07,0,0,0,156,136.8Z"/><path class="cls-16" d="M167.76,135.63a.45.45,0,0,0-.16-.36.6.6,0,0,0-.42-.13.53.53,0,0,0-.43.17.49.49,0,0,0-.16.35l.07,3.9-2.48.21,0-4.12a.44.44,0,0,0-.16-.37.64.64,0,0,0-.45-.14.66.66,0,0,0-.4.13.46.46,0,0,0-.18.39l.12,4.12-2.4-.21-.13-6.49,2.32-.2v1.05h0a3,3,0,0,1,.83-.77,2.08,2.08,0,0,1,1.11-.28,2.34,2.34,0,0,1,.9.16,2,2,0,0,1,.65.52,2.36,2.36,0,0,1,.68-.49,1.75,1.75,0,0,1,.83-.19,2.21,2.21,0,0,1,.91.18,1.78,1.78,0,0,1,.66.49,2.58,2.58,0,0,1,.41.75,3.34,3.34,0,0,1,.15.92l.07,4.34-2.48.21Z"/><line class="cls-17" x1="149.83" y1="123.88" x2="170.15" y2="123.88"/><line class="cls-17" x1="149.83" y1="146.13" x2="170.15" y2="146.13"/><path class="cls-18" d="M146.55,112.38a45,45,0,0,0,26.8,0"/><polyline class="cls-19" points="167.24 151.48 167.24 155.44 196.5 155.35 196.5 151.48"/><ellipse class="cls-19" cx="181.87" cy="155.35" rx="14.63" ry="2.73"/><ellipse class="cls-20" cx="181.87" cy="151.48" rx="14.63" ry="2.73"/><path class="cls-21" d="M167.24,155.89s4.69,2.46,15.46,2.19c0,0,9.39.16,13.73-2.46"/><path class="cls-8" d="M160.89,119.06a11.41,11.41,0,0,1,8.5-.09l-3.79,2-5-.46Z"/><path class="cls-22" d="M167.13,103c.14.09.29.18.42.28a4.12,4.12,0,0,1,.54.48c4.08.49,6.41,1.31,6.41,2,0,1-5.44,2.4-14.3,2.4-2.11,0-4-.08-5.7-.21a2.7,2.7,0,0,1,.36.67c1.84.14,3.7.2,5.34.2,6,0,15-.81,15-3.06C175.16,104.3,171.41,103.45,167.13,103Z"/></svg>