<?xml version="1.0" encoding="utf-8"?>
<!-- Generator: Adobe Illustrator 23.0.1, SVG Export Plug-In . SVG Version: 6.00 Build 0)  -->
<svg version="1.1" id="bg" xmlns="http://www.w3.org/2000/svg" xmlns:xlink="http://www.w3.org/1999/xlink" x="0px" y="0px"
	 viewBox="0 0 800 400" style="enable-background:new 0 0 800 400;" xml:space="preserve">
<style type="text/css">
	.st0{clip-path:url(#SVGID_2_);}
	.st1{fill:#7C92A5;}
	.st2{fill:#FFFFFF;}
</style>
<title>p06</title>
<g>
	<defs>
		<rect id="SVGID_1_" width="800" height="400"/>
	</defs>
	<clipPath id="SVGID_2_">
		<use xlink:href="#SVGID_1_"  style="overflow:visible;"/>
	</clipPath>
	<g class="st0">
		<g>
			<path class="st1" d="M578.4,332.2c-21.1-5-42.8-6.7-64.4-4.9c-55.1,4.2-78.1,5.8-106.3,5.8c-31.8,0.1-63.5,3.1-94.8,8.9
				c-26.5,5-55.8,6.6-66.6,7.1c-2.6,0.1-5.1,0.2-7.6,0.4c-12.9,0.6-25.9,0.6-38.8-0.2c-23.6-1.4-50.5,4.8-84.2,20.7
				S36.4,392,12.8,396.1S-40.5,418-94.4,439.4c-43.5,17.2-193.9,45.1-224.9,66.2C-355.6,530.3-666.1,623-574.7,623h3.4
				c148.8-0.1,297.6-0.2,446.4-0.4l731.3-0.7l283.9-0.3c32.7,0,65.3-0.2,98,0.1c44.2,0.4,115.1,7.1,35.2-26.8
				c-37.4-15.8-69.3-41.6-89-64.4c-63.3-73-100.3-139.8-258.9-164c-28.1-4.3-44.2-8-59.4-13.7C595.8,345.3,591.9,334.4,578.4,332.2z
				"/>
			<path class="st2" d="M675.5,366.6l-2.3-0.1c-23.6-4.2-51-11.1-64.3-21.1c-7.2-5.4-17.5-10-30.5-13.2c-21.1-5-42.8-6.7-64.4-4.9
				c-55.1,4.2-78.1,5.8-106.3,5.8c-31.8,0.1-63.5,3.1-94.8,8.9c-26.5,5-55.8,6.6-66.6,7.1c-2.6,0.1-5.1,0.2-7.6,0.4
				c-12.9,0.6-25.9,0.6-38.8-0.2c-23.6-1.4-50.5,4.8-84.2,20.7c-13.3,6.2-28.4,11-43.3,14.7c22.3-1.2,52.8-5,78.3-16.1
				c0,0-20.3,15.1-37,20.1c0,0,45.3-10.2,54.5-14.4c0,0,8.3,11.4-21.3,22.3c0,0,41.6-8.3,49.9-19.7c0,0,6.5,12.1,2.8,16.3
				c0,0,24-11.4,25-18.5c0,0,11.1,9.1,9.2,13.2c0,0,16.6-9.5,18.5-17.4c0,0,10.2,7.6,9.2,12.1c0,0,13.9-7.6,13.9-12.5
				c0,0,13.9,9.5-3.7,19.3c0,0,29.6-13.2,27.7-20.8c0,0,6.5,11.7,3.7,17.8c0,0,16.6-12.5,16.6-17c0,0,4.6,11.4,2.8,16.7l18.5-17.8
				c0,0-1.9,12.5,8.3,19.7c0,0,6.5-14.8,17.6-18.9c0,0-7.4,17.4,13.9,26.5c0,0-9.2-12.5,6.5-21.6c0,0,0,11.4,14.8,15.5
				c0,0-6.5-14.4,12-21.6c0,0,9.2,10.2,4.6,18.9c0,0,23.1-8.7,22.2-21.2c0,0,15.7,14.8,10.2,26.1c0,0,16.6-11.7,14.8-23.5
				c0,0,1.9,11,24,15.1c0,0-11.1-11-2.8-17.4c0,0,20.3,4.5,25,14.8c0,0,8-7.3,3.9-16.6c1.1,2.2,6.5,11.5,22,16.2
				c0,0-2.8-11.7,0.9-17.4c0,0,22.2,8.3,31.4,17.8c0,0,5.5-13.6-3.7-20.8c0,0,22.2,5.3,25,9.8c0,0,5.7-4-2.7-11.3
				c6.9,5.3,31.5,22.5,62.8,21.5c0,0-25-5.7-34.2-20.8C617.4,359.1,651.7,366.9,675.5,366.6z"/>
		</g>
	</g>
</g>
</svg>
