<svg id="Layer_1" data-name="Layer 1" xmlns="http://www.w3.org/2000/svg" xmlns:xlink="http://www.w3.org/1999/xlink" viewBox="0 0 170 110"><defs><style>.cls-1{fill:none;}.cls-2{fill:#5ea8ff;}.cls-3{clip-path:url(#clip-path);}.cls-4{fill:#e61e0c;}.cls-5{fill:#a31508;}.cls-6{fill:#fcee21;}.cls-7{fill:#c61a0a;}.cls-8{fill:#ff2127;}.cls-9{fill:#2674cf;}.cls-10{fill:#d3b05f;}.cls-11{fill:#fff;}.cls-12{fill:#2c2e7a;}.cls-13{fill:#2fb34c;}.cls-14{fill:#f16939;}.cls-15{fill:#4c90cd;}.cls-16{fill:#c6a459;}.cls-17{fill:#8b683d;}.cls-18{fill:#dfbc6d;}.cls-19{fill:#b8b282;}.cls-20{fill:#4c3422;}.cls-21{fill:#cca348;}.cls-22{clip-path:url(#clip-path-2);}.cls-23{fill:#d3b266;}.cls-24{fill:#040404;}.cls-25{fill:#fde3ba;}.cls-26{fill:#600b0c;}.cls-27{fill:#d42027;}.cls-28{fill:#4e2a21;}.cls-29{fill:#bc9c39;}</style><clipPath id="clip-path"><path id="SVGID" class="cls-1" d="M140.79,55.83h0a1.53,1.53,0,0,1,1.5-1.57l3.48-.08a1.55,1.55,0,0,1,.89.26l7.59,5.14a1.54,1.54,0,0,1,.52,2L146,79a1.52,1.52,0,0,1-1.13.83c-8,1.24-76.48,11.5-102.8,3.64-24.33-7.26-27-33.17-27.25-39.81a1.54,1.54,0,0,1,1.5-1.6l4.75-.1a1.53,1.53,0,0,1,1.57,1.5l.05,2.1a1.53,1.53,0,0,0,1.6,1.5l99-4.49a1.54,1.54,0,0,1,.7.14l6.69,3a1.54,1.54,0,0,1,.9,1.36l.13,5.92a1.53,1.53,0,0,0,.86,1.34l6,2.92A1.53,1.53,0,0,0,140.79,55.83Z"/></clipPath><clipPath id="clip-path-2"><path id="SVGID-2" data-name="SVGID" class="cls-1" d="M88.7,7.86a5,5,0,0,1-.75.85,25.25,25.25,0,0,0-2,2.87,20.47,20.47,0,0,1-2.08,2.75,5.2,5.2,0,0,0-1.25,2.39c0,.17,0,.39-.21.5-1.75-1.65-3.07-3.57-2.92-6.09a6.42,6.42,0,0,1,3.36-5.57,3.65,3.65,0,0,1,4.62.83C87.86,6.87,88.28,7.37,88.7,7.86Z"/></clipPath></defs><title>16_small_boat_moves_slowly</title><path class="cls-2" d="M15.68,51s5.19,36,14.35,36.56,20-3.37,11.41-6.23S19.88,66.78,15.68,51Z"/><g class="cls-3"><rect class="cls-4" x="8.48" y="38.41" width="16.22" height="34.36" transform="translate(34.42 110.79) rotate(178.72)"/><rect class="cls-5" x="121.01" y="39.99" width="33.47" height="34.36" transform="translate(276.73 111.24) rotate(178.72)"/><polygon class="cls-6" points="6.33 47.32 26.92 46.86 39.03 12.22 5.56 12.97 6.33 47.32"/><polygon class="cls-4" points="24.26 78.34 123.86 75.52 123.11 42.24 22.95 45.89 24.26 78.34"/><rect class="cls-7" x="13.42" y="44.29" width="121.43" height="2.94" transform="translate(150.14 88.32) rotate(177.56)"/><polygon class="cls-7" points="93.43 87.2 124.39 86.51 125.36 64.77 100.69 49.02 92.61 50.52 93.43 87.2"/><polygon class="cls-8" points="132.24 75.94 141.72 73.81 100.69 49.03 92.53 50.44 132.24 75.94"/><polygon class="cls-7" points="54.84 88.07 85.8 87.38 86.76 65.64 62.1 49.89 54.01 51.39 54.84 88.07"/><polygon class="cls-8" points="93.65 76.81 103.13 74.68 62.1 49.9 53.94 51.31 93.65 76.81"/><path class="cls-7" d="M157,57.56S70.56,76.88,26.85,55.82C16.33,50.28,15.08,46.92,14,46.17c.12,5.39,9.71,22.07,9.71,22.07L30,75l126.05-2.83Z"/><path class="cls-9" d="M163.46,59.57s-58.74,14.64-106.1,7.31S-.31,39.21-.31,39.21L16.47,90.09,158,86.92Z"/></g><path class="cls-10" d="M116.39,49.66a12.76,12.76,0,0,0,.11-3.38A18.19,18.19,0,0,0,115,40.53a8.64,8.64,0,0,0-1-1.34,6.56,6.56,0,0,1-.81-5.61A10.74,10.74,0,0,1,115,30.15c.1-.13.17-.25.37-.09a10.68,10.68,0,0,1,2.12,2.28,4.09,4.09,0,0,1,.38,3.75c-.22.63-.46,1.26-.66,1.9a3.64,3.64,0,0,0,0,2,24.76,24.76,0,0,1,.55,9.77,3.37,3.37,0,0,1-.12.53,18.62,18.62,0,0,1-3.05,6.3c-1.43,2.1-4.13,2-6.54,1.43a13,13,0,0,1-2.29-.74l.84-1.26a.59.59,0,0,0,.19.13,10.24,10.24,0,0,0,4.38.62,3,3,0,0,0,2.18-.83A14.68,14.68,0,0,0,116.39,49.66Z"/><path class="cls-11" d="M76.06,49s-.69-.21-1.62-2.52c-.57-1.31-1.43-3.3-3.26-3.55s-2.57,2.3-2.61,3.55S69,53,70,53.56a8.24,8.24,0,0,0,3.41-.06C73.92,53.31,76.6,49.63,76.06,49Z"/><path class="cls-10" d="M87.38,47.82c.46,0,.91,0,1.36.07a17.17,17.17,0,0,1,3.27.54c1.17.36,1.24,1.85,1.06,2.88a3.2,3.2,0,0,1-.69,1.39c-.5.64-1.47,1.11-1.81,1.85a17.19,17.19,0,0,0-.38,2.55,3.82,3.82,0,0,1-2.36,2.83,1.63,1.63,0,0,1-1.09,0,2.17,2.17,0,0,1-1.09-1.57,4.59,4.59,0,0,0-.72-1.83C84,55.44,82.62,56,81.42,56a20.37,20.37,0,0,1-4.63-.77,10.23,10.23,0,0,1-3.4-1.69c-.16-.12-.12-.31-.18-.46a2.54,2.54,0,0,1-.13-1.78c.21-.62.34-.72,1-.78a1.45,1.45,0,0,0,1.56-1.3c.08-.31.19-.38.51-.33,2.26.39,3.76-.13,6-.57A24.25,24.25,0,0,1,87.38,47.82Z"/><path class="cls-12" d="M71.18,42.88a3,3,0,0,0-1,.64,4.61,4.61,0,0,0-1,2.26A14,14,0,0,0,70,53.44s0,.06,0,.12a3.56,3.56,0,0,1-.81-.2c-.12,0-.14-.12-.18-.22a18.06,18.06,0,0,1-.84-7.26,4.8,4.8,0,0,1,.63-2.09A2,2,0,0,1,71.18,42.88Z"/><path class="cls-13" d="M72.28,48.66a7.16,7.16,0,0,1,1.19-2.8,1.12,1.12,0,0,1,.28-.25c.16-.11.3-.12.37.1a.42.42,0,0,0,0,.1,1.92,1.92,0,0,1,.28.62c0,.26-.32.25-.47.41a3.71,3.71,0,0,0-.87,1.79,4,4,0,0,0-.09.48.36.36,0,0,1-.34.33c-.2,0-.28-.13-.33-.29A3.46,3.46,0,0,1,72.28,48.66Z"/><path class="cls-14" d="M71.54,47a4.56,4.56,0,0,1,1.34-2.57c.22-.18.38-.17.52.08a.41.41,0,0,0,0,.09c.3.46.3.46-.1.82a4.76,4.76,0,0,0-1.2,2.1c0,.14,0,.41-.24.39s-.25-.25-.3-.43A1.85,1.85,0,0,1,71.54,47Z"/><path class="cls-15" d="M70.7,45.4a3.39,3.39,0,0,1,1.28-2c.23-.16.82.14.89.42,0,.12-.05.14-.11.18a3,3,0,0,0-1.32,1.78c0,.16,0,.41-.31.38s-.31-.21-.36-.41S70.73,45.54,70.7,45.4Z"/><path class="cls-16" d="M83.18,26.09c.46,1.36-.25,1.5.64,2.62.54.69-.46,1.2,0,1.93.08.13.22.26.18.44-1-.51-1.94-1-2.92-1.53C79,28.49,73.37,25.87,71.2,25a8.11,8.11,0,0,0-2.51-.36,3.92,3.92,0,0,0-1.85.32,2.06,2.06,0,0,1-1.34.08,1.88,1.88,0,0,1-1.21-2.69c.06-.18.13-.28-.06-.45a1.52,1.52,0,0,1-.06-2.49.83.83,0,0,0,.3-.71A1.85,1.85,0,0,1,67,17c.15.06.21.06.31-.06a1.71,1.71,0,0,1,3,.31A31.2,31.2,0,0,0,72,19.85a2.86,2.86,0,0,0,1.33,1,25.8,25.8,0,0,1,3,1.86C76.48,22.84,83,26,83.18,26.09ZM67.42,21.38a8.44,8.44,0,0,0,.84,1.95c.16.25.38.48.69.43a.88.88,0,0,0,.86-.64,3.33,3.33,0,0,1,.91-1.7.91.91,0,0,0,.13-1c-.15-.32-.49-.3-.79-.32-.45,0-.89.08-1.36,0A1.3,1.3,0,0,0,67.42,21.38Zm-1.79.28c.56,0,1-.27,1-.65a1.09,1.09,0,0,0-1-.93.9.9,0,0,0-1,.8C64.61,21.32,65.05,21.66,65.63,21.66Zm3.93-3.42a1.38,1.38,0,0,0-.41-1,.6.6,0,0,0-1,.24,1.16,1.16,0,0,0,.16,1.11c.19.28.43.51.78.41S69.54,18.61,69.56,18.24ZM66,24.18a1.12,1.12,0,0,0,1-.46.58.58,0,0,0-.31-1,1.28,1.28,0,0,0-1,.18.77.77,0,0,0-.44.81C65.28,24,65.56,24.18,66,24.18Zm.67-4.49c.68,0,.94-.38.74-.85a1.34,1.34,0,0,0-1.15-.75.59.59,0,0,0-.56.89A1.16,1.16,0,0,0,66.71,19.69Z"/><path class="cls-17" d="M67.42,21.38A1.3,1.3,0,0,1,68.7,20.1c.47,0,.91-.06,1.36,0,.3,0,.64,0,.79.32a.91.91,0,0,1-.13,1,3.33,3.33,0,0,0-.91,1.7.88.88,0,0,1-.86.64c-.31,0-.53-.18-.69-.43A8.44,8.44,0,0,1,67.42,21.38Z"/><path class="cls-17" d="M65.63,21.66c-.58,0-1-.34-1-.78a.9.9,0,0,1,1-.8,1.09,1.09,0,0,1,1,.93C66.59,21.39,66.19,21.67,65.63,21.66Z"/><path class="cls-17" d="M69.56,18.24c0,.37-.11.7-.49.79s-.59-.13-.78-.41a1.16,1.16,0,0,1-.16-1.11.6.6,0,0,1,1-.24A1.38,1.38,0,0,1,69.56,18.24Z"/><path class="cls-17" d="M66,24.18c-.48,0-.76-.15-.8-.46a.77.77,0,0,1,.44-.81,1.28,1.28,0,0,1,1-.18.58.58,0,0,1,.31,1A1.12,1.12,0,0,1,66,24.18Z"/><path class="cls-17" d="M66.71,19.69a1.16,1.16,0,0,1-1-.71.59.59,0,0,1,.56-.89,1.34,1.34,0,0,1,1.15.75C67.65,19.31,67.39,19.69,66.71,19.69Z"/><path class="cls-18" d="M106.47,59.7l.12-.16a5.47,5.47,0,0,0,.89-1.73,6.14,6.14,0,0,0,.15-1.35c0-.33.07-.66.08-1a16.27,16.27,0,0,0-.54-4.81c-.4-1.56-1-3.08-1.33-4.65-.66-3-1-6-1.58-9a15.55,15.55,0,0,0-1.37-3.82c-.28-.56-.33-.89-.91-1.23a5.89,5.89,0,0,0-2.15-.76A8.16,8.16,0,0,0,97.47,31a8.43,8.43,0,0,1-1.94.22c-2.21-.1-4.41-.26-6.61-.4l-2.47-.14c-.16,0-.72-.14-.87-.05a23.62,23.62,0,0,0-.9,3.19,86.1,86.1,0,0,0-1.31,13c-.11,2.43.95,7,1.55,9.44a8.18,8.18,0,0,0,.88,2.17,3.21,3.21,0,0,0,.19.31A7,7,0,0,0,89.21,61a15.57,15.57,0,0,0,4.38.88c.22,0,.44,0,.66.08l1.28.07,1.18,0c.69,0,1.39,0,2.08,0a7.16,7.16,0,0,0,1.27-.32c.51-.12,1-.28,1.53-.37a3.22,3.22,0,0,1,1,0,4.79,4.79,0,0,0,2.74-.64A4.39,4.39,0,0,0,106.47,59.7Z"/><path class="cls-19" d="M86.29,33.32c1,1,2,.17,3.15.1,5.51-.33,8.47,6.19,7.87,10.88-.52,4-1.42,10.05-5.5,12.18-3.72,1.93-6.94-3.26-7.6-6.38a23.46,23.46,0,0,1,0-7.05c.28-3,.43-6.59,1.8-9.3A.8.8,0,0,1,86.29,33.32Z"/><path class="cls-11" d="M104.35,28.14c0,.09-.13.08-.2.08A.21.21,0,0,1,104.35,28.14Z"/><path class="cls-11" d="M104.42,28.06c0,.07,0,.08-.08.09S104.36,28.06,104.42,28.06Z"/><path class="cls-20" d="M106.33,15.87l0,.06Z"/><path class="cls-21" d="M88.7,7.86a5,5,0,0,1-.75.85,25.25,25.25,0,0,0-2,2.87,20.47,20.47,0,0,1-2.08,2.75,5.2,5.2,0,0,0-1.25,2.39c0,.17,0,.39-.21.5-1.75-1.65-3.07-3.57-2.92-6.09a6.42,6.42,0,0,1,3.36-5.57,3.65,3.65,0,0,1,4.62.83C87.86,6.87,88.28,7.37,88.7,7.86Z"/><path class="cls-20" d="M82.72,13.14,82.8,13C82.71,13,82.72,13.08,82.72,13.14Z"/><g class="cls-22"><path class="cls-17" d="M82.72,13.14a5.86,5.86,0,0,0-.63,1.37,3.2,3.2,0,0,0,.7,3.19s0,.07,0,.1h0a.14.14,0,0,1,.15.1l.81.5a19.62,19.62,0,0,1,2.28-2.09,2.33,2.33,0,0,0,.73-2.37,1,1,0,0,1-.06-.45.25.25,0,0,0,0-.07h0c-.2-.1-.3-.3-.45-.45a2.05,2.05,0,0,0-2.5-.55c-.36.14-.61.43-1,.6h0Z"/><path class="cls-20" d="M82.8,13c.34-.17.59-.46,1-.6a2.05,2.05,0,0,1,2.5.55c.15.15.25.35.45.45a3.13,3.13,0,0,0-1.4-2,4.06,4.06,0,0,0-3.12-.46,8,8,0,0,1,2.79.74A2.83,2.83,0,0,0,82.8,13Z"/></g><path class="cls-20" d="M113.24,19.65a10.74,10.74,0,0,0-.61-.94,2.07,2.07,0,0,0-2.5-.57,2.1,2.1,0,0,1-.59.22,3.11,3.11,0,0,1,2.13-1.25,4.1,4.1,0,0,1,3,.91,7.94,7.94,0,0,0-2.85-.51A2.84,2.84,0,0,1,113.24,19.65Z"/><path class="cls-17" d="M113.26,19.79a6.35,6.35,0,0,1,0,1.51,3.18,3.18,0,0,1-2,2.58s-.05.06-.08.08h0a.32.32,0,0,1-.17,0l-1,.11a19.2,19.2,0,0,0-1.17-2.87,2.31,2.31,0,0,1,.35-2.45,1.09,1.09,0,0,0,.25-.38l.06,0h0a2.1,2.1,0,0,0,.59-.22,2.07,2.07,0,0,1,2.5.57,10.74,10.74,0,0,1,.61.94h0Z"/><path class="cls-23" d="M118.72,15a3.71,3.71,0,0,0-3.4-2.11,6.17,6.17,0,0,0-2.1.52,3.84,3.84,0,0,1-2.2.17,3.93,3.93,0,0,1-1.73-1.05,32.57,32.57,0,0,0-6-4.26.46.46,0,0,1-.27-.51,2.3,2.3,0,0,0-.22-1.48,2.2,2.2,0,0,1-.11-2c.05-.12.08-.24.14-.43a2.79,2.79,0,0,0-.79.58,5.71,5.71,0,0,0-.9,1.32,2.65,2.65,0,0,1-.65.88c-.16.13-.26.11-.31-.11a2.69,2.69,0,0,1,0-1,8.52,8.52,0,0,0,.22-2.07,3.55,3.55,0,0,0-.64-1.92,3.13,3.13,0,0,1-.51,1.37,13.29,13.29,0,0,1-1,1.31,2.85,2.85,0,0,0-.88,1.48,2.6,2.6,0,0,1-.46-1.6,5,5,0,0,1,.25-1.61,1.77,1.77,0,0,0-.79.28A6.07,6.07,0,0,0,94.26,5a1,1,0,0,1-.65.51,22.39,22.39,0,0,0-3.74,1.6c-4.2,2.28-8.14,7.37-7.58,12.35,0,.39.1.77.17,1.15h0a12.51,12.51,0,0,1,.19,4.84A14.3,14.3,0,0,0,84,31.88a11.22,11.22,0,0,0,5.89,2.8,7.52,7.52,0,0,0,5.28-1.43c2.13-1.44,4.46-1.84,6.92-2.32A12.16,12.16,0,0,0,107.21,29c1-.77,3.21-3.63,2.85-4.94a19.2,19.2,0,0,0-1.17-2.87,2.31,2.31,0,0,1,.35-2.45,1.09,1.09,0,0,0,.25-.38l.06,0h0a3.11,3.11,0,0,1,2.13-1.25,4.1,4.1,0,0,1,3,.91,7.94,7.94,0,0,0-2.85-.51,2.83,2.83,0,0,1,1.39,2.14.46.46,0,0,0,0,.14,6.35,6.35,0,0,1,0,1.51,3.18,3.18,0,0,1-2,2.58s-.05.06-.08.08a5.74,5.74,0,0,0,1.55,0,9.48,9.48,0,0,0,4.19-1.37C119.6,20.83,119.85,17.1,118.72,15Z"/><polygon class="cls-23" points="113.24 19.65 113.24 19.65 113.24 19.65 113.24 19.65"/><path class="cls-20" d="M101.83,18.78c-.53-1.12-1.06-2.24-2.35-2.64a4.19,4.19,0,0,0-3.51.75,3.73,3.73,0,0,1,1-1.16,4.56,4.56,0,0,1,2-1.07,1.73,1.73,0,0,1,1.83.54A4.9,4.9,0,0,1,101.83,18.78Z"/><path class="cls-20" d="M89.42,15.42c-.53-.92-1-1.85-2.16-2.14a3.65,3.65,0,0,0-3,.76,4.06,4.06,0,0,1,2.88-2.11,1.4,1.4,0,0,1,.91.27A4.09,4.09,0,0,1,89.42,15.42Z"/><path class="cls-16" d="M93.48,18.47a5.65,5.65,0,0,1-6,2.66,5.85,5.85,0,0,0,3,2.88A9,9,0,0,0,93.48,18.47Z"/><path class="cls-11" d="M101.14,21.36a2.81,2.81,0,0,1-3,2.58,4.69,4.69,0,0,1-1.58-.23A2.84,2.84,0,0,1,94.54,21a3.7,3.7,0,0,1,2.74-3.66,3.34,3.34,0,0,1,3.89,3.12A4.13,4.13,0,0,1,101.14,21.36Z"/><path class="cls-20" d="M97,23.16a2.57,2.57,0,0,1-2.28-2.92A2.62,2.62,0,1,1,97,23.16Zm-1.15-3.09a.54.54,0,0,0-.23.53,1.71,1.71,0,0,0,1.51,1.74,1.74,1.74,0,0,0,1.77-1.13,1.66,1.66,0,0,0-.83-2A3.21,3.21,0,0,0,96.92,19c-.42-.41-.86-.46-1.2-.12S95.44,19.67,95.84,20.07Z"/><path class="cls-24" d="M96.92,19a3.21,3.21,0,0,1,1.14.22,1.66,1.66,0,0,1,.83,2,1.74,1.74,0,0,1-1.77,1.13,1.71,1.71,0,0,1-1.51-1.74.54.54,0,0,1,.23-.53.8.8,0,0,0,.94-.12A.82.82,0,0,0,96.92,19Z"/><path class="cls-11" d="M96.92,19a.82.82,0,0,1-.14.95.8.8,0,0,1-.94.12c-.4-.4-.45-.87-.12-1.19S96.5,18.59,96.92,19Z"/><path class="cls-11" d="M88.67,18a2.54,2.54,0,0,1-2.84,2.22,3.48,3.48,0,0,1-1.69-.46,2.22,2.22,0,0,1-1.09-2.16,5.23,5.23,0,0,1,.62-2,2.55,2.55,0,0,1,2.83-1.08A3,3,0,0,1,88.67,18Z"/><path class="cls-20" d="M83.26,17a2.38,2.38,0,1,1,2,2.67A2.35,2.35,0,0,1,83.26,17Zm1,0c-.19,0-.18.16-.18.27a1.92,1.92,0,0,0,.07.48,1.47,1.47,0,0,0,1.07,1.11,1.45,1.45,0,0,0,1.41-.35,1.52,1.52,0,0,0,.25-2,1.5,1.5,0,0,0-1.69-.6c-.43-.29-.76-.28-1,0S83.92,16.61,84.26,17Z"/><path class="cls-24" d="M85.19,15.94a1.5,1.5,0,0,1,1.69.6,1.52,1.52,0,0,1-.25,2,1.45,1.45,0,0,1-1.41.35,1.47,1.47,0,0,1-1.07-1.11,1.92,1.92,0,0,1-.07-.48c0-.11,0-.27.18-.27a.91.91,0,0,0,.52.11C85.32,17,85.49,16.51,85.19,15.94Z"/><path class="cls-11" d="M85.19,15.94c.3.57.13,1-.41,1.16a.91.91,0,0,1-.52-.11c-.34-.38-.37-.72-.1-1S84.76,15.65,85.19,15.94Z"/><path class="cls-25" d="M94,32.86c-.1.38,0-.18-.07.21a2.83,2.83,0,0,1-1.23,1.37,5.22,5.22,0,0,1-4.12.08c-.78-.26-1.55-.57-2.34-.8a3.52,3.52,0,0,1-2.69-2.24A9.28,9.28,0,0,1,83,29.67L83.05,27a8.11,8.11,0,0,1,.08-1.3,1.63,1.63,0,0,1,.19.64c.08.73.15,1.45.26,2.17a4,4,0,0,0,2.26,3.17,10.64,10.64,0,0,0,4,1.07A4.2,4.2,0,0,0,94.32,30a3.2,3.2,0,0,1,.56-1,20,20,0,0,1-.77,3.23C94.07,32.47,94,32.66,94,32.86Z"/><path class="cls-20" d="M94.88,29.05a3.2,3.2,0,0,0-.56,1,4.2,4.2,0,0,1-4.43,2.71,10.64,10.64,0,0,1-4-1.07,4,4,0,0,1-2.26-3.17c-.11-.72-.18-1.44-.26-2.17a1.63,1.63,0,0,0-.19-.64c.05-.14-.1-.28,0-.42a6,6,0,0,0,1,1.19,2.2,2.2,0,0,0,3.21-.37,3.6,3.6,0,0,0,.46-.81c.05-.11,0-.55.08-.69s.21,0,.25,0a.38.38,0,0,0,0,.3c0,.12,0,.27,0,.42a5.63,5.63,0,0,0,.18.91,3.11,3.11,0,0,0,1,1.49,5.47,5.47,0,0,0,5.47,1.06.75.75,0,0,0,.35-.25A.85.85,0,0,1,94.88,29.05ZM85.8,30.64a11.93,11.93,0,0,0,3.54,1.19,3.33,3.33,0,0,0,1.44.1,4.51,4.51,0,0,0,3.65-2.5c0-.06.07-.12,0-.18s-.16,0-.25,0a5.13,5.13,0,0,1-2,.22A5.46,5.46,0,0,1,89,28a4.83,4.83,0,0,1-1.24-1.71,2.77,2.77,0,0,1-4.08.47l0,0,0,0A4.24,4.24,0,0,0,85.8,30.64Z"/><path class="cls-25" d="M95.08,28.55a.75.75,0,0,1-.35.25,5.47,5.47,0,0,1-5.47-1.06,3.92,3.92,0,0,1-1.18-2.93c0-.09,0-.22.16-.19a3,3,0,0,0,3-1.38l0,0c.42.45,1,.74,1.44,1.16A6.88,6.88,0,0,1,95,27.8,6.46,6.46,0,0,1,95.08,28.55Z"/><path class="cls-25" d="M85.64,21.64a6.41,6.41,0,0,0,.17.73,3.15,3.15,0,0,0,2,2.12c.21.08.26.15.19.36a4.53,4.53,0,0,1-.63,1.24,2.2,2.2,0,0,1-3.21.37,6,6,0,0,1-1-1.19h0a.15.15,0,0,0,0-.16v0A.13.13,0,0,0,83,25a1.46,1.46,0,0,1,.4-.92C84.18,23.3,84.86,22.43,85.64,21.64Z"/><path class="cls-20" d="M83.09,25.12a.15.15,0,0,1,0,.16C83,25.26,83.11,25.17,83.09,25.12Z"/><path class="cls-26" d="M83.71,26.8a2.77,2.77,0,0,0,4.08-.47A4.83,4.83,0,0,0,89,28a5.46,5.46,0,0,0,3.18,1.42,5.13,5.13,0,0,0,2-.22c.09,0,.18-.09.25,0s0,.12,0,.18a4.51,4.51,0,0,1-3.65,2.5,2.32,2.32,0,0,0-1.21-.53,4.61,4.61,0,0,1-2.09-.65,1.52,1.52,0,0,0-1.68-.11,4.24,4.24,0,0,1-2.09-3.84Z"/><path class="cls-27" d="M85.8,30.64a1.52,1.52,0,0,1,1.68.11,4.61,4.61,0,0,0,2.09.65,2.32,2.32,0,0,1,1.21.53,3.33,3.33,0,0,1-1.44-.1A11.93,11.93,0,0,1,85.8,30.64Z"/><path class="cls-28" d="M91.28,22.83A1.56,1.56,0,0,1,90.57,24a3.2,3.2,0,0,1-2.7.53,3.61,3.61,0,0,1-2.28-1.88,1.28,1.28,0,0,1-.14-.93,1,1,0,0,1,.52-.63A3.2,3.2,0,0,1,86.9,21a6.43,6.43,0,0,1,2,.28,9.47,9.47,0,0,1,1,.26,3.71,3.71,0,0,1,.77.39A1.22,1.22,0,0,1,91.28,22.83Z"/><path class="cls-11" d="M88,59.54s-1.07-.34-3-2.55c-.45-.38-2.54-2.42-4.6-1.75s-1.47,4.33-.24,6.92,3.12,5,3.78,4.85a16.12,16.12,0,0,0,3.78-1.73C88.13,64,90.38,60.82,88,59.54Z"/><path class="cls-12" d="M80.32,55.24a3.47,3.47,0,0,0-.89,3.38,15.73,15.73,0,0,0,4.2,8.11c.07.09.19.14.23.28a4.49,4.49,0,0,1-.89.16.32.32,0,0,1-.3-.14,20.75,20.75,0,0,1-4.21-7.35,6.21,6.21,0,0,1-.3-2.1A2.42,2.42,0,0,1,80,55.25.56.56,0,0,1,80.32,55.24Z"/><path class="cls-13" d="M84.06,60.75a8.65,8.65,0,0,1,0-3.51,1,1,0,0,1,.21-.38c.11-.15.22-.17.35,0l.06.05c.22.19.51.35.63.59s-.22.44-.31.69a4.21,4.21,0,0,0-.12,2.14c0,.22.09.44.14.66a.41.41,0,0,1-.22.49c-.18.11-.34,0-.45-.15S84.17,60.94,84.06,60.75Z"/><path class="cls-14" d="M82.5,59.19a5.19,5.19,0,0,1,.24-3c.22-.47.31-.48.72-.21s.54.36.27.94a5.47,5.47,0,0,0-.31,2.72c0,.17.18.43-.07.53S83,60,82.82,59.8A2.14,2.14,0,0,1,82.5,59.19Z"/><path class="cls-15" d="M81,58a3.82,3.82,0,0,1,.4-2.55.86.86,0,0,1,1.18,0c.07.09,0,.15,0,.21a3.54,3.54,0,0,0-.58,2.59c0,.17.07.35-.15.43a.46.46,0,0,1-.5-.15A1.21,1.21,0,0,1,81,58Z"/><path class="cls-18" d="M96.23,54.33a.39.39,0,0,1-.16.51c-.5.35-1,.72-1.49,1.09a6.75,6.75,0,0,0-1,.81,8.2,8.2,0,0,1-2,1.37,7.32,7.32,0,0,1-1.27.67c-.71.23-1.41.5-2.14.69-.3.09-.36.18-.32.48a1.63,1.63,0,0,1-.73,1.81,4.8,4.8,0,0,1-.6.3.59.59,0,0,0-.39.54,5,5,0,0,0,0,.67,3.21,3.21,0,0,0,1,1.86c.3.31.67.09,1,.11h.12a10.83,10.83,0,0,0,4.56-.38c.21-.06.66-.15.8-.19l1-.33a16.83,16.83,0,0,0,2.67-1.19,23.75,23.75,0,0,1,3.34-1.85S102.79,55.3,96.23,54.33Z"/><path class="cls-29" d="M83.05,72.35,68.19,11.27a2.09,2.09,0,0,0-4.07,1L79,73.34A14.74,14.74,0,0,0,77.36,83l5.88,24.16s1.72,2,6.37.91,5.23-3.74,5.23-3.74L89,80.21A14.69,14.69,0,0,0,83.05,72.35Z"/><path class="cls-18" d="M97.32,33.45c-.44.32-4.43,2.95-5.31,3.37h0a68.57,68.57,0,0,1-12.68,4.51,4,4,0,0,1-2.76.08,1.69,1.69,0,0,0-.39-.08A5.45,5.45,0,0,1,74,40.56a2,2,0,0,0-3.24,2.09c0,.16,0,.27-.15.35A1.64,1.64,0,0,0,70,45.64a.59.59,0,0,1,.09.61,2,2,0,0,0,2,2.4.36.36,0,0,1,.48.24,1.43,1.43,0,0,0,1.35.93,2.26,2.26,0,0,0,1.66-.73A20.53,20.53,0,0,1,78,46.91a1.1,1.1,0,0,1,.6-.27,7.08,7.08,0,0,0,1.57-.39c3.45-1.31,6.85-2.74,10.16-4.38.22-.1.42-.29.69-.26h0c0-.07,0-.08.09-.09h0c0-.09.12-.08.2-.09.85-.58,1.8-1,2.67-1.53s6.27-4.09,6.27-4.49Z"/></svg>