<svg id="star01" xmlns="http://www.w3.org/2000/svg" width="111.78" height="93.01" viewBox="0 0 111.78 93.01">
  <defs>
    <style>
      .cls-1 {
        fill: #ffde17;
      }

      .cls-2 {
        fill: #ffed94;
      }

      .cls-3 {
        fill: #fff3c0;
      }
    </style>
  </defs>
  <title>05_star_vibrates</title>
  <path class="cls-1" d="M50.27,9.49,67.62,26.2a1.49,1.49,0,0,0,1.34.39l23.6-4.82a1.49,1.49,0,0,1,1.64,2.12L83.67,45.55a1.49,1.49,0,0,0,0,1.39l11.88,21a1.49,1.49,0,0,1-1.51,2.22L70.22,66.8a1.49,1.49,0,0,0-1.31.47L52.65,85a1.49,1.49,0,0,1-2.57-.75L45.86,60.57a1.49,1.49,0,0,0-.85-1.1l-21.93-10A1.49,1.49,0,0,1,23,46.82L44.26,35.49A1.49,1.49,0,0,0,45,34.34L47.75,10.4A1.49,1.49,0,0,1,50.27,9.49Z"/>
  <path class="cls-2" d="M43.67,6.84c-.59,4.29-1.27,8.55-1.91,12.83l-1,6.4-1,6.4a.69.69,0,0,1-.34.49h0q-7.26,4-14.57,7.93C19.9,43.55,15,46.12,10.13,48.72l0-1.78,7.74,3.81,7.73,3.83Q33.29,58.44,41,62.37h0a.69.69,0,0,1,.36.47l1.33,6.28L44,75.41c.84,4.2,1.72,8.39,2.5,12.6-1.16-4.12-2.23-8.27-3.33-12.4l-1.61-6.21L40,63.17l.38.48Q32.53,60,24.76,56.26L17,52.51,9.23,48.74A1,1,0,0,1,9.2,47C14.1,44.4,19,41.8,23.9,39.28s9.83-5.07,14.76-7.57l-.37.5,1.29-6.35,1.32-6.35C41.82,15.29,42.7,11.06,43.67,6.84Z"/>
  <path class="cls-3" d="M36.17,7.34,34,18.6,31.82,29.85a.32.32,0,0,1-.14.21h0L24,34.81l-7.73,4.71L.76,48.93l0-.86L17,57.15l8.15,4.55,8.13,4.59h0a.32.32,0,0,1,.15.2l2.79,11,2.73,11L35.89,77.59l-3-10.94.16.2L24.8,62.41l-8.18-4.48-16.36-9a.5.5,0,0,1-.2-.67.5.5,0,0,1,.18-.19l15.53-9.32,7.77-4.65,7.79-4.61-.15.21,2.46-11.2Z"/>
  <path class="cls-2" d="M51.57,4.27c3.38,2.7,6.69,5.47,10,8.22l5,4.15,5,4.17-.6-.17Q79.07,19,87.21,17.39c5.42-1.08,10.86-2.08,16.29-3.12a1,1,0,0,1,1.08,1.41l-3.73,7.78L97.1,31.23Q93.32,39,89.48,46.71V46.1L92.1,52l2.6,5.87c1.7,3.93,3.45,7.84,5.1,11.79-2-3.79-3.92-7.61-5.87-11.42L91,52.46l-2.86-5.75a.68.68,0,0,1,0-.59v0q3.58-7.85,7.24-15.67l3.67-7.81,3.69-7.8,1.08,1.41c-5.44,1-10.87,2-16.32,3s-10.89,1.92-16.34,2.84h0a.69.69,0,0,1-.58-.17l-4.79-4.36L61,13.13C57.88,10.18,54.69,7.26,51.57,4.27Z"/>
  <path class="cls-3" d="M57.76,0l8.93,7.19,8.88,7.24-.25-.07,9-1.23,9-1.19,18-2.35a.5.5,0,0,1,.56.43.5.5,0,0,1,0,.26l-7.23,17.2-3.63,8.6-3.67,8.58V44.4l4.42,10.46L106,65.35,101.27,55,96.62,44.66a.32.32,0,0,1,0-.25h0l3.51-8.65,3.56-8.63,7.14-17.24.52.69-18,2.25-9,1.11L75.4,15h0a.32.32,0,0,1-.24-.07L66.43,7.49Z"/>
  <path class="cls-2" d="M57.71,87.63c.95-1.48,1.94-2.93,2.94-4.37s2-2.86,3.06-4.27,2.08-2.82,3.15-4.2S69,72,70.07,70.65a1,1,0,0,1,.86-.36h0c2.23.25,4.46.54,6.69.85s4.45.65,6.67,1c4.44.72,8.87,1.49,13.27,2.52-4.52-.1-9-.45-13.48-.86-2.24-.23-4.47-.43-6.7-.71s-4.46-.53-6.69-.84l.88-.36q-1.65,2-3.35,4c-1.12,1.35-2.27,2.66-3.42,4s-2.32,2.62-3.5,3.92S58.95,86.39,57.71,87.63Z"/>
  <path class="cls-3" d="M60,93c1-1.43,2.07-2.82,3.11-4.23S65.19,86,66.25,84.6c2.11-2.79,4.3-5.52,6.46-8.27a.47.47,0,0,1,.42-.18h0c4.47.51,8.91,1.17,13.37,1.74l6.67,1,3.33.54c1.11.18,2.22.37,3.33.57-1.12-.08-2.24-.17-3.36-.28l-3.36-.31-6.71-.69c-4.46-.55-8.93-1-13.38-1.63l.43-.17c-2.22,2.71-4.39,5.44-6.66,8.11-1.13,1.34-2.24,2.69-3.39,4S61.13,91.71,60,93Z"/>
</svg>
