<svg id="Layer_6" data-name="Layer 6" xmlns="http://www.w3.org/2000/svg" xmlns:xlink="http://www.w3.org/1999/xlink" viewBox="0 0 1920 1080">
  <defs>
    <style>
      .cls-1 {
        fill: none;
      }

      .cls-2 {
        clip-path: url(#clip-path);
      }

      .cls-3 {
        fill: #9b977c;
      }

      .cls-4 {
        fill: #99d7f2;
      }

      .cls-5 {
        opacity: 0.25;
      }

      .cls-6 {
        fill: #a9efff;
      }

      .cls-7 {
        opacity: 0.5;
      }
    </style>
    <clipPath id="clip-path">
      <rect class="cls-1" width="1920" height="1080"/>
    </clipPath>
  </defs>
  <title>RiverTwo-flowing-6</title>
  <g class="cls-2">
    <g>
      <path class="cls-3" d="M964.14,1191.7s102-48,90-144,15-69-51-108-90-27-138-33-84-3-159-18-75-15-144-27-60-12-120-18-75-9-135-15-78-6-135-9-138-3-138-3l-102-3-48,231,93,174Z"/>
      <path class="cls-4" d="M-89,849.67s1392.14-15,1041.1,309H-53Z"/>
    </g>
  </g>
  <g class="cls-5">
    <path class="cls-6" d="M551,896.1c66.34-1,134.8,1.17,197.41,25.48C762.36,927,778.9,933,789.76,943.71c13.43,13.2,6.59,30-5.15,41.67-22.7,22.56-57.1,30.08-87.25,36.85a603.65,603.65,0,0,1-122.31,14.49c-3.21,0-3.22,5,0,5a610.93,610.93,0,0,0,115.18-12.83c31.84-6.68,67.79-14.05,93.27-35.71,10.86-9.23,21.77-23.12,18.45-38.32-3.08-14.1-17.22-22.12-29.12-28C741.15,911.25,706.75,902,671.89,897c-40-5.82-80.51-6.49-120.86-5.86-3.22,0-3.23,5,0,5Z"/>
  </g>
  <g class="cls-7">
    <path class="cls-6" d="M396,914.44q51.33,2,102.64,4.5c31.81,1.59,63.92,3.76,94.74,12.34a204.83,204.83,0,0,1,22.29,7.52c6.05,2.48,13.47,6.09,14.93,13.16,1.62,7.84-5.51,14.88-11.31,18.95-6.3,4.44-13.65,7.7-20.79,10.51-14.4,5.66-29.55,9.16-44.68,12.22q-25.26,5.11-50.89,8.17A646.22,646.22,0,0,1,389,1005.14c-3.21-.19-3.2,4.81,0,5a647.68,647.68,0,0,0,110.08-2.89q26.28-3,52.27-8c16.69-3.28,33.44-7,49.29-13.31,12.46-5,28.38-11.73,33.79-25.14,5-12.53-5-21.5-15.57-26-30.87-13.21-65.15-17.3-98.37-19.56-41.43-2.82-83-4.13-124.5-5.76-3.22-.13-3.22,4.87,0,5Z"/>
  </g>
</svg>
