<svg id="Layer_2" data-name="Layer 2" xmlns="http://www.w3.org/2000/svg" xmlns:xlink="http://www.w3.org/1999/xlink" viewBox="0 0 1920 1080">
  <defs>
    <style>
      .cls-1 {
        fill: none;
      }

      .cls-2 {
        clip-path: url(#clip-path);
      }

      .cls-3 {
        fill: #9b977c;
      }

      .cls-4 {
        fill: #99d7f2;
      }

      .cls-5 {
        fill: #a9efff;
      }
    </style>
    <clipPath id="clip-path">
      <rect class="cls-1" width="1920" height="1080"/>
    </clipPath>
  </defs>
  <title>RiverTwo-flowing-2</title>
  <g class="cls-2">
    <g>
      <path class="cls-3" d="M964.14,1191.7s102-48,90-144,15-69-51-108-90-27-138-33-84-3-159-18-75-15-144-27-60-12-120-18-75-9-135-15-78-6-135-9-138-3-138-3l-102-3-48,231,93,174Z"/>
      <path class="cls-4" d="M-89,849.67s1392.14-15,1041.1,309H-53Z"/>
    </g>
  </g>
  <path class="cls-5" d="M22,880.84c39.21,3,78.48,6,117.4,11.82,18.86,2.83,37.64,6.33,56.18,10.82s37.44,9.51,55,17c16,6.77,33.35,19.25,34.21,38.31.82,18.22-14.7,32.36-28.24,42.07-29.9,21.45-66.44,33-102.31,39.52-41.13,7.47-83.11,8.35-124.8,9.14-3.21.06-3.22,5.06,0,5,39.21-.74,78.59-1.65,117.39-7.83,38.14-6.08,77.07-17.49,109.28-39.44,13.44-9.16,27.58-21,32.29-37.24,4.67-16.08-3.3-32.24-15.73-42.42-14.44-11.84-33.75-17.17-51.34-22.36a562.64,562.64,0,0,0-60.24-14c-46-8.21-92.6-11.81-139.12-15.34-3.21-.25-3.2,4.75,0,5Z"/>
</svg>
