<svg id="Layer_7" data-name="Layer 7" xmlns="http://www.w3.org/2000/svg" viewBox="0 0 1764.57 431.37">
  <defs>
    <style>
      .cls-1 {
        fill: #9b977c;
      }

      .cls-2 {
        fill: #99d7f2;
      }
    </style>
  </defs>
  <title>RiverTwo-flowing-1</title>
  <path class="cls-1" d="M1062.38,1080s-8.37-77.62-11.72-97.72-7.69-25.11-39.84-38.51-62.3-28.46-70.67-31.81-28.47,8.37-55.26,0-100.46-11.72-172.46-23.44-104.66-17.58-125.59-22.61-47.72-6.69-54.41-7.53-84.56-3.28-132.28-5.83S262,840,196.71,831.59,105.45,818.19,50.19,819s-94.6,28.46-154,27.63-192.56.07-214.33,5.89-119.72,36-125.58,37.64-71.16,6.7-130.6,51.91-79.54,97.12-111.91,116.09-12.28,80.37,32.37,102.7,148.47,17.86,223.26,41.3,58,33.49,189.77,33.49,270.4-13.4,421,0,251,17.86,416.24,12.28,273.49-22.73,307-29.78,136.18-43.9,159.07-132.08" transform="translate(702.19 -818.94)"/>
  <path class="cls-2" d="M-416.13,912s216-73.67,562.6-56.93S628.71,886.84,754.29,912s194.23,67,224.37,90.42,61.47,103.81-18.66,177.49-1335.94,18.41-1335.94,18.41l-80.38-18.41s-241.11-26.79-216-92.1S-536.54,941.19-416.13,912Z" transform="translate(702.19 -818.94)"/>
</svg>
