<svg id="Layer_1" data-name="Layer 1" xmlns="http://www.w3.org/2000/svg" xmlns:xlink="http://www.w3.org/1999/xlink" viewBox="0 0 260 168"><defs><style>.cls-1{fill:#9e5823;}.cls-2{clip-path:url(#clip-path);}.cls-3{fill:#8c4719;}.cls-4{fill:#aa6535;}</style><clipPath id="clip-path"><path class="cls-1" d="M142.63,34.87a5.71,5.71,0,0,0-1.79.59l-2.76,1.28a1.81,1.81,0,0,0-.77.53,1.92,1.92,0,0,0-.28,1l-.1,1.47a1.38,1.38,0,0,0,.09.73,1.32,1.32,0,0,0,.53.49,39.52,39.52,0,0,0,3.89,2.13,12.8,12.8,0,0,0,3.82,1.3,5.58,5.58,0,0,0,3.88-.77.84.84,0,0,0,.31-.31.83.83,0,0,0,.05-.35C149.51,39.44,146.83,34.51,142.63,34.87Z"/></clipPath></defs><path class="cls-1" d="M142.63,34.87a5.71,5.71,0,0,0-1.79.59l-2.76,1.28a1.81,1.81,0,0,0-.77.53,1.92,1.92,0,0,0-.28,1l-.1,1.47a1.38,1.38,0,0,0,.09.73,1.32,1.32,0,0,0,.53.49,39.52,39.52,0,0,0,3.89,2.13,12.8,12.8,0,0,0,3.82,1.3,5.58,5.58,0,0,0,3.88-.77.84.84,0,0,0,.31-.31.83.83,0,0,0,.05-.35C149.51,39.44,146.83,34.51,142.63,34.87Z"/><g class="cls-2"><path class="cls-3" d="M136,37.62c.12-.44.77-.36,1.19-.17a3,3,0,0,1,1.54,1.12,6,6,0,0,1,.33,1.26,1.25,1.25,0,0,0,.79,1c.42.1.92-.4.67-.76.55.19,1.24.22,1.57.7a3,3,0,0,1,.22.48,3,3,0,0,0,2,1.61,1,1,0,0,0,.6,0,.38.38,0,0,0,.22-.49c1.28-.73,2.84.87,4.26.48l1.89,3.71a41.83,41.83,0,0,1-10.55.81,5.74,5.74,0,0,1-1.94-.23,7.23,7.23,0,0,1-2.11-1.47,26.73,26.73,0,0,0-4.58-2.92,1.17,1.17,0,0,1-.58-.47,1.06,1.06,0,0,1-.08-.47,3.57,3.57,0,0,1,2.1-3.2"/><path class="cls-4" d="M141.54,36.27c.33-.09.64-.25,1-.34a2.58,2.58,0,0,1,2.3.49c.24.2.44.44.68.65a2.79,2.79,0,0,0,2.42.56A15.55,15.55,0,0,0,146.19,31c-1.32.29-2.63.6-3.94.94-1,.27-2.66.41-3.4,1.19C137,35,139.62,36.78,141.54,36.27Z"/></g></svg>