<svg id="Layer_1" data-name="Layer 1" xmlns="http://www.w3.org/2000/svg" xmlns:xlink="http://www.w3.org/1999/xlink" viewBox="0 0 260 168"><defs><style>.cls-1{fill:#fff;}.cls-2{fill:#774828;}.cls-3{fill:#845633;}.cls-4{fill:#72482a;}.cls-5{fill:#eac039;}.cls-6{fill:#f4d34a;}.cls-7{fill:#64340f;}.cls-8{clip-path:url(#clip-path);}.cls-9{fill:#4f2821;}.cls-10{fill:#070799;}</style><clipPath id="clip-path"><path class="cls-1" d="M175.12,118.32a2.25,2.25,0,0,1,2.71-1c1.76.67,2.18,1.74,2.07,2.42a1.82,1.82,0,0,1-2.32,1.68C175.8,121.12,174.45,120.3,175.12,118.32Z"/></clipPath></defs><path class="cls-2" d="M162,152c-.54.13-11.11,3.11-11.11,3.11s-3.09-3.37-4.68-3.91,0,5.15,2.79,9.64,4,.27,5.33-.08S166.56,156,166.56,156l-1.82-4A4.85,4.85,0,0,0,162,152Z"/><ellipse class="cls-2" cx="146.64" cy="152.05" rx="0.16" ry="0.42" transform="translate(-58.5 101.64) rotate(-32.23)"/><path class="cls-3" d="M184.31,139.91s4.45,13.61,5.79,18.87a5.78,5.78,0,0,1-1.64,3.55c-1.54,1.46.12,2.41,3.41.6,0,0,3.56,1.66,6,1.53s1.07-1.21-2-2.73a12.46,12.46,0,0,0,3.26-1.09c.61-.52-3.46-3.87-6.18-8.45a113.91,113.91,0,0,1-6-12.89C186.73,138.63,184.66,136,184.31,139.91Z"/><path class="cls-4" d="M183.79,133.6a96.75,96.75,0,0,1,.05,14.87l-.55,5.16s2,5.05,1.13,5.77c0,0-.45.72-1.87-2.19,0,0-.33-.18-.37.31s-.3,4.41-1.32,4.44c0,0-.93.1-.47-3.62,0,0,0-.32-.25,0,0,0-2.53,4.31-3.6,4.07,0,0-.7-1,1.28-5,0,0-3,2.77-3.61,2.15s2.83-4.36,2.83-4.36,0-.11-.25-.05c0,0-1.84.66-2.08-.16,0,0-.62-.82,3.45-3.18,0,0,3.7-10.27,3-15.5,0,0,0-2.13.89-2.8C182,133.46,183.14,132.52,183.79,133.6Z"/><path class="cls-5" d="M184.12,136.47c1-3.08-2.18-3.52-2.18-3.52-2.13-.27-7.33,4-7.33,4,0,1.67,2.85,4.51,2.85,4.51,2,.12,6.2-4.07,6.2-4.07Z"/><path class="cls-3" d="M164.48,152.75s-3.73-2.11-5.5.66,2.45,5.75,7.67,7.68Z"/><path class="cls-3" d="M160.36,152.28c-.49.25-12.42,4-12.42,4s-3.26-3.21-4.88-3.67.22,5.14,3.27,9.49,4,.06,5.32-.34,12-5.4,12-5.4l-3-4.25"/><ellipse class="cls-3" cx="143.59" cy="153.48" rx="0.16" ry="0.42" transform="translate(-62.11 110.35) rotate(-35.06)"/><rect class="cls-3" x="181.42" y="129.56" width="4.32" height="6.47" transform="translate(69.35 -62.88) rotate(23.84)"/><path class="cls-6" d="M179,133.22c-3,.66-11.38,16.52-12.28,18.8s4.48,5.77,10.41,6.71,7.78-11.69,9.39-17.13S184.91,132,179,133.22Z"/><path class="cls-3" d="M172.75,123.68a17.14,17.14,0,0,0-.51,2.08s2.78.16,3.52.11c0,0-1.95,2-3.55,2a2.62,2.62,0,0,0,0,1.13,3,3,0,0,1-.06,1.24s-.31,1.59,3,2.05,4.59,1,10-1.63c0,0,6.88-1.61,9.09-7.67s.44-9.92-3.23-12.92-5.26-2.25-5.26-2.25-5-1-8.14,1.87-3.18,4.64-3.74,7.15c0,0-.7,3.94-.73,4.24S170.44,122.6,172.75,123.68Z"/><path class="cls-7" d="M172.16,124.89s.29-.31,1.48.06a19,19,0,0,0,2.56.91,8.66,8.66,0,0,1-3.5.36C171.25,125.93,172.16,124.89,172.16,124.89Z"/><path class="cls-7" d="M176.08,126a3.39,3.39,0,0,1-2.79,2.21,1.25,1.25,0,0,1-1.33-.36c-.52-.65.53-.75,1.17-.93A18.77,18.77,0,0,0,176.08,126Z"/><path class="cls-1" d="M175.12,118.32a2.25,2.25,0,0,1,2.71-1c1.76.67,2.18,1.74,2.07,2.42a1.82,1.82,0,0,1-2.32,1.68C175.8,121.12,174.45,120.3,175.12,118.32Z"/><g class="cls-8"><circle class="cls-9" cx="176.18" cy="119.04" r="1.53" transform="translate(-27.84 59.14) rotate(-17.68)"/><circle cx="176.18" cy="119.04" r="1.02"/><circle class="cls-1" cx="175.59" cy="118.38" r="0.53"/></g><path d="M181.17,116.34a3.46,3.46,0,0,0-2.75-1.75,3.61,3.61,0,0,0-2.89.53s-.52.39.22.45a8,8,0,0,1,5.11,1.11S181.34,116.88,181.17,116.34Z"/><path d="M196.71,123.3c0-.48-.18-1-.19-1.43,0-1.31,1-2.41,1.26-3.69,0-.1,0-.2.05-.3a2.33,2.33,0,0,0,.39-1.51,1.8,1.8,0,0,0-.56-1.12l-.11-.76a3.1,3.1,0,0,0,1-1.67,3,3,0,0,0-.59-2.55,1.82,1.82,0,0,0-1.66-.74,2.76,2.76,0,0,0-.29-.3,2.91,2.91,0,0,0-1.05-2,3,3,0,0,0-2.29-.62l-.22-.17c.09-1.3-1.54-2.28-2.71-2.2a1.61,1.61,0,0,0-1.11.47,5.2,5.2,0,0,1-1.4-.39c-.76-.35-1.36-1-2.09-1.39a4.2,4.2,0,0,0-5.23,1.12,3.66,3.66,0,0,0-3.75-.34,2.34,2.34,0,0,0-.75,3.38,2.43,2.43,0,0,0-.29,3.72,3,3,0,0,0,3.93-.19,2.61,2.61,0,0,0,4.17,2.51,5.4,5.4,0,0,0-.19,3.54,2.78,2.78,0,0,0,2.74,1.94c-.95.11.14,4.11.28,4.68.32,1.37.75,2,2.22,2.3a4.44,4.44,0,0,0,.54,2.34,2.1,2.1,0,0,0,2.08,1c.38-.08.71-.28,1.08-.35.54-.12,1.1,0,1.64-.08a1.89,1.89,0,0,0,1.27-2.58A2.75,2.75,0,0,0,196.71,123.3Z"/><ellipse class="cls-3" cx="188.23" cy="123.63" rx="3.3" ry="2.75" transform="translate(19.82 273.14) rotate(-74.9)"/><path class="cls-9" d="M189.16,121.61a2.47,2.47,0,0,0-2,1.88c-.54,1.75.55,2.27.55,2.27a3.12,3.12,0,0,1,.06-2,1.85,1.85,0,0,0,2.16.46,4.36,4.36,0,0,1-1.8-1A3,3,0,0,1,189.16,121.61Z"/><path class="cls-10" d="M175.52,154.27,165,151.84a1.58,1.58,0,0,0-1.65.61,9,9,0,0,0-1.42,7.73,1.55,1.55,0,0,0,1,1c2.33.89,9.66,3.51,13.36,3.15s1.36-6.87.44-9.15A1.59,1.59,0,0,0,175.52,154.27Z"/><path class="cls-10" d="M180.87,154.39s4.62,11.13-6.26,10L173,158.1l2.57-3.83Z"/><path class="cls-6" d="M185.36,135.68a2.57,2.57,0,0,0-3.75,1.76c-.51,2.08,3.16,7.74,3.16,7.74,1.65.22,4.8-2.32,4.8-2.32.34-2-3.35-6.62-3.35-6.62Z"/><path class="cls-6" d="M166.46,151.53a1.52,1.52,0,0,0,.65,1.24,5,5,0,0,0,1.3.62,40.7,40.7,0,0,1,5.23,2.31,12.34,12.34,0,0,0,2.49,1.12c1.13.31,2.34.25,3.43.65a13.5,13.5,0,0,0,1.49.58,1.44,1.44,0,0,0,1.45-.39,1.46,1.46,0,0,0,.26-.84,3.38,3.38,0,0,0-1.1-2.43,7.6,7.6,0,0,0-2.32-1.44,29.63,29.63,0,0,0-7.29-1.94C171,150.85,166.61,149.56,166.46,151.53Z"/><path class="cls-3" d="M197.16,163.12q.78.34,1.59.63a2.45,2.45,0,0,0,2.19,0c.09-.06.18-.16.14-.26a.25.25,0,0,0-.11-.12,26.34,26.34,0,0,0-2.59-1.71c-.63-.37-2.08-1.48-2.85-1.29a.89.89,0,0,0-.46,1.26C195.36,162.45,196.45,162.81,197.16,163.12Z"/><path class="cls-3" d="M198.72,162.47c.54.18,1.09.33,1.65.47a2.43,2.43,0,0,0,2.18-.18.26.26,0,0,0,.12-.28.4.4,0,0,0-.12-.1,28.93,28.93,0,0,0-2.75-1.46c-.66-.3-2.22-1.26-3-1a.89.89,0,0,0-.34,1.3C196.87,162,198,162.23,198.72,162.47Z"/><path class="cls-3" d="M198.72,161.36c.54.18,1.09.33,1.65.47a2.43,2.43,0,0,0,2.18-.18.26.26,0,0,0,.12-.28.23.23,0,0,0-.12-.1,28.93,28.93,0,0,0-2.75-1.46c-.66-.3-2.22-1.27-3-1a.89.89,0,0,0-.34,1.3C196.87,160.87,198,161.12,198.72,161.36Z"/></svg>