<svg id="Layer_1" data-name="Layer 1" xmlns="http://www.w3.org/2000/svg" xmlns:xlink="http://www.w3.org/1999/xlink" viewBox="0 0 260 168"><defs><style>.cls-1{fill:none;}.cls-2{clip-path:url(#clip-path);}.cls-3{fill:#d3b38c;}.cls-4{fill:#c19b72;}</style><clipPath id="clip-path"><ellipse class="cls-1" cx="129.19" cy="119.01" rx="107.45" ry="24.06"/></clipPath></defs><g class="cls-2"><ellipse class="cls-3" cx="128.95" cy="127.88" rx="107.69" ry="25.34"/><path class="cls-3" d="M63,104.23c3.89-1.31,7.23-4.34,11.33-4.67,3.75-.3,7.49,1.75,11.18,1,1.42-.29,2.73-1,4.16-1.16,2-.26,3.9.44,5.87.6,3.86.3,7.85-1.49,11.53-.3s6.46,5.12,10.26,4.66c-4.23,4.83-11.13,6.34-17.54,6.44s-12.88-.92-19.22,0c-4.86.74-9.49,2.62-14.33,3.47-5.07.89-10.27.69-15.32,1.75-2.89.61-8.1,3.29-8.07-1.49C42.88,105.49,57.48,106.07,63,104.23Z"/><path class="cls-3" d="M211.59,108.5a42.49,42.49,0,0,0-7.91-3.63A43.19,43.19,0,0,0,193,103.48L183.4,103c-9.09-.42-18.46-.79-27,2.39a1.77,1.77,0,0,0-.94.6c-.6.88.54,1.9,1.52,2.34,14.43,6.46,31,6.6,45.68,12.44,5.17,2,15.91,7.82,19.95,1.12C226.93,114.8,216.23,111,211.59,108.5Z"/><path class="cls-4" d="M36.92,123.1a1.55,1.55,0,0,0-.67.62c-.31.62.19,1.33.71,1.79,2.32,2,5.5,2.68,8.53,3.22,3.79.67,7.65,1.29,11.46.76.51-.07,1.15-.3,1.18-.82s-.89-.85-1.55-.83a24.09,24.09,0,0,1-9.32-1.56c1.09-.27,2.21-1.41,1.65-2.38-.42-.72-4.16-.75-5.1-1.11-.75-.29-.91-1.11-1.93-1.32C40.44,121.17,38.1,122.39,36.92,123.1Z"/><path class="cls-4" d="M219.93,128c-6.66,2.83-14.08,3.13-21.31,3.39,3.41-3.36,9-2.82,13.3-5a1.38,1.38,0,0,1-1.28-1.59c-.06.29,5.86-1.37,6.5-1.89,1.59-1.29,2.26-4.46,4.82-4C228.09,120.08,222.74,126.85,219.93,128Z"/><path class="cls-4" d="M142.68,103.85c4-.08,8.21-.06,11.64,2a30.46,30.46,0,0,1-9.46,1.52l-17.38.93c-2,.11-12.38,1.65-12.38-.39C115.11,102.58,139.32,103.93,142.68,103.85Z"/></g></svg>