<svg id="character" xmlns="http://www.w3.org/2000/svg" viewBox="0 0 29.24 24.99">
  <defs>
    <style>
      .cls-1 {
        fill: #fff;
      }

      .cls-2 {
        fill: #29abe2;
      }
    </style>
  </defs>
  <title>p03</title>
  <g>
    <path class="cls-1" d="M29.13,22.92c.07-.86.12-1.72.11-2.59V17c0-.35,0-.7,0-1.06,0-1.09-.08-2.17-.19-3.26-.14-1.32-.32-2.64-.52-4q-.57-3.54-1.42-7L26.67,0A33.45,33.45,0,0,1,2.48.41c-.38,1.47-.71,3-1,4.45-.41,2-.75,4-1,6C.3,12,.17,13.19.09,14.37,0,15.26,0,16.16,0,17.05c0,1.23,0,2.47,0,3.7,0,.83,0,1.67.13,2.5A56.11,56.11,0,0,0,29.13,22.92Z"/>
    <path class="cls-2" d="M15.46,7.48C15.9,5.23,6,19.84,14.27,19.62,21.56,19.43,14.85,10.59,15.46,7.48Z"/>
  </g>
</svg>
