<svg id="Layer_4" data-name="Layer 4" xmlns="http://www.w3.org/2000/svg" xmlns:xlink="http://www.w3.org/1999/xlink" viewBox="0 0 260 168"><defs><style>.cls-1{fill:#ffe000;}.cls-2{fill:#3f3f3f;}.cls-3{fill:#fff;}.cls-4{fill:#ea8313;}.cls-5{fill:#f9cc3d;}.cls-10,.cls-6{fill:#fa0;}.cls-7{clip-path:url(#clip-path);}.cls-8{fill:#edcb00;}.cls-9{fill:#f7e37c;}.cls-10{opacity:0.56;}.cls-11{fill:#141414;}.cls-12,.cls-32{fill:none;stroke-linecap:round;stroke-linejoin:round;}.cls-12{stroke:#3f3f3f;stroke-width:0.45px;}.cls-13{fill:#2d2d2d;}.cls-14{fill:#535454;}.cls-15{fill:#0c0c0c;}.cls-16{fill:#1e1e1e;}.cls-17{clip-path:url(#clip-path-2);}.cls-18{fill:#6d6d6d;}.cls-19,.cls-20{fill:#191919;}.cls-19{opacity:0.53;}.cls-21{clip-path:url(#clip-path-3);}.cls-22{clip-path:url(#clip-path-4);}.cls-23{fill:#893a04;}.cls-24{fill:#893d0a;}.cls-25{fill:#d8730f;}.cls-26{fill:#9e4407;}.cls-27{clip-path:url(#clip-path-5);}.cls-28{fill:#a05000;}.cls-29{fill:#db7712;}.cls-30{fill:#ce6c0b;}.cls-31{fill:#ff9f2c;}.cls-32{stroke:#f99a10;stroke-width:0.29px;}.cls-33{fill:#f99a10;}.cls-34{fill:#e51a1a;}.cls-35{fill:#561404;}.cls-36{clip-path:url(#clip-path-6);}.cls-37{fill:#f7b03e;}.cls-38{fill:#fcd875;}.cls-39{fill:#ffc931;}.cls-40{fill:#f78411;}.cls-41{fill:#f4912f;}</style><clipPath id="clip-path"><rect class="cls-1" x="110.72" y="86.39" width="59.29" height="72.56" rx="6.79"/></clipPath><clipPath id="clip-path-2"><path class="cls-2" d="M146.24,65.46l-.45-1.26s-2.13,2.27-3.44-.11a6.82,6.82,0,0,0-4-3.05,6.82,6.82,0,0,0-4,3.05c-1.31,2.38-3.44.11-3.44.11l-.45,1.26s-1,2,2.91,6.16,5,14.22,5,14.22,1.1-10,5-14.22S146.24,65.46,146.24,65.46Z"/></clipPath><clipPath id="clip-path-3"><ellipse class="cls-3" cx="132.87" cy="61" rx="3.36" ry="2.4" transform="translate(48.59 180.47) rotate(-79.46)"/></clipPath><clipPath id="clip-path-4"><ellipse class="cls-3" cx="143.72" cy="61" rx="2.4" ry="3.36" transform="translate(-8.73 27.32) rotate(-10.54)"/></clipPath><clipPath id="clip-path-5"><path class="cls-4" d="M95.38,114.75c-2-.29-4.15,1-5.88,0-.58-.34-1.7,4.54-2.22,4.11a4.85,4.85,0,0,1-.58.35c-12.33-1.11-19.44,2.67-19.44,2.67-4-6.89-4.22-.45-4.22-.45-7.78-9.44-6.56-2.66-6.56-2.66-12.33-6.11-5,4.44-5,4.44-8.55-.11,4.11,9.56,4.11,9.56,3.11,11.33,18.21,11.83,18.21,11.83,4.5,7.81,10,.36,10,.36,6.74-1.22,15-5.08,15-5.08,6.37-4.19,7.1-17.59,5.55-24.27C101.31,116.23,98.46,115.22,95.38,114.75Z"/></clipPath><clipPath id="clip-path-6"><path class="cls-5" d="M101.17,106.45a2.6,2.6,0,0,1-2.57-.15,2.69,2.69,0,0,0-1.55-1s.64-.77.57-1.18c0,0,.13-3.39,2.08-4.14,0,0,2.86-.36,4.66,3a1.18,1.18,0,0,0-.42.17S104,105.11,101.17,106.45Z"/></clipPath></defs><path class="cls-6" d="M146.44,93.29H121.12a4.7,4.7,0,0,1-4.71-4.7V84.18a4.71,4.71,0,0,1,4.71-4.7h25.32a4.71,4.71,0,0,1,4.7,4.7v4.41A4.7,4.7,0,0,1,146.44,93.29ZM121.12,82.7a1.48,1.48,0,0,0-1.48,1.48v4.41a1.48,1.48,0,0,0,1.48,1.48h25.32a1.47,1.47,0,0,0,1.47-1.48V84.18a1.47,1.47,0,0,0-1.47-1.48Z"/><rect class="cls-6" x="153.62" y="83.2" width="9.61" height="5.65" rx="1.59"/><rect class="cls-1" x="110.72" y="86.39" width="59.29" height="72.56" rx="6.79"/><g class="cls-7"><rect class="cls-8" x="107.29" y="152.84" width="65.82" height="17.8"/><rect class="cls-9" x="105.74" y="84.75" width="66.25" height="6.5"/></g><rect class="cls-10" x="119.22" y="95.65" width="7.1" height="55.27" rx="3.55"/><rect class="cls-10" x="135.89" y="95.65" width="7.1" height="55.27" rx="3.55"/><rect class="cls-10" x="152.57" y="95.65" width="7.1" height="55.27" rx="3.55"/><path class="cls-11" d="M145.34,57.49c1.58,2.82,5.93,3.08,8.69,2.48,6.35-1.37,11.37-7.13,14.54-12.46a7.33,7.33,0,0,0,1-2.54,1.24,1.24,0,0,0-1.5-1.39A6.53,6.53,0,0,0,167,44c2.2-1.67,4.51-3.49,5.37-6.14a.79.79,0,0,0-.11-.73c-.29-.36-.69-.22-1-.09l-1.64.64a11.64,11.64,0,0,0,4.17-5,3.63,3.63,0,0,0,.38-1.78.75.75,0,0,0-.81-.68,5.33,5.33,0,0,0-2.42.79,16.93,16.93,0,0,0,3-2.92,6.28,6.28,0,0,0,1.1-2.41,1,1,0,0,0-1.36-1.19,7.27,7.27,0,0,0-1.71.82,34.25,34.25,0,0,0,4.16-4.52,1.92,1.92,0,0,0,.35-.7c.29-1.19-.79-1.58-1.56-1.32-2.7.92-5.59,2.85-8.09,4.29a90.67,90.67,0,0,0-9.43,6.2C148.85,35.66,139.08,46.29,145.34,57.49Z"/><path class="cls-12" d="M153.22,52.32s5.7-7,13.07-7.94"/><path class="cls-12" d="M152.46,47.59S160.73,39,168.85,38"/><path class="cls-12" d="M155.2,39.85s7.05-7.77,15.41-9"/><path class="cls-12" d="M158.84,32.62a28.26,28.26,0,0,1,12.55-7.42"/><path class="cls-11" d="M130.54,57.49c-1.58,2.82-5.93,3.08-8.69,2.48-6.34-1.37-11.37-7.13-14.53-12.46a7.17,7.17,0,0,1-1-2.54,1.24,1.24,0,0,1,1.5-1.39,6.26,6.26,0,0,1,1.13.38c-2.2-1.67-4.51-3.49-5.37-6.14a.76.76,0,0,1,.12-.73c.28-.36.68-.22,1-.09l1.64.64a11.64,11.64,0,0,1-4.17-5,3.74,3.74,0,0,1-.38-1.78.76.76,0,0,1,.81-.68A5.29,5.29,0,0,1,105,31a16.54,16.54,0,0,1-3-2.92,6.3,6.3,0,0,1-1.11-2.41,1,1,0,0,1,1.36-1.19,7.27,7.27,0,0,1,1.71.82,33.51,33.51,0,0,1-4.15-4.52,2.12,2.12,0,0,1-.36-.7c-.29-1.19.79-1.58,1.56-1.32,2.71.92,5.6,2.85,8.1,4.29a89.48,89.48,0,0,1,9.42,6.2C127,35.66,136.8,46.29,130.54,57.49Z"/><path class="cls-12" d="M122.67,52.32s-5.71-7-13.08-7.94"/><path class="cls-12" d="M123.42,47.59S115.16,39,107,38"/><path class="cls-12" d="M120.68,39.85s-7.05-7.77-15.4-9"/><path class="cls-12" d="M117.05,32.62a28.25,28.25,0,0,0-12.56-7.42"/><path d="M130.65,63.89s-4.53,12.47-3.86,15.31c.54,2.23,3.3,2,5.88-2.4,0,0,.58,11,6.15,2.69,0,0,6.35,8.19,6.08-3,0,0,12,11.3,1.59-14.08Z"/><path class="cls-13" d="M131.13,85.59s-3.63-.25-4.55-.16c0,0-.59,0-.67.38-.12.56.25.84.8.94s5.46-.23,5.46-.23l0-.8Z"/><path class="cls-13" d="M135.31,85.88s1.07-.18,1.51.44a3.36,3.36,0,0,0-1.61.34S134.3,86.41,135.31,85.88Z"/><path class="cls-14" d="M132.36,74.2S131,86,131.16,86.45s1,1.29,1.58-.53c.61-2.06,1.86-11.48,1.86-11.48A1.76,1.76,0,0,0,132.36,74.2Z"/><path class="cls-15" d="M127.94,68.71a47.19,47.19,0,0,0,3.34,8.19c1.95,3.48,3.83,2.41,4.25-1.4s.48-6.53,0-8.19S134,63.12,131,63.77C127.31,64.58,127.94,68.71,127.94,68.71Z"/><path class="cls-14" d="M134.33,87a42.48,42.48,0,0,0-7.54.93s-1.78.59-2.05-.3,3.1-1.44,3.1-1.44a18.15,18.15,0,0,1,6.46-.49s1.09,0,1,.37S135.62,87.11,134.33,87Z"/><path class="cls-13" d="M124.94,87.39s-1,.34-1.13,1.09a3.31,3.31,0,0,1,1.58-.44S126.09,87.39,124.94,87.39Z"/><path class="cls-14" d="M131.13,87.09S128.31,88.35,128,89s-1.65.43-1.36-.36.74-1.69,3.35-2.25C130,86.41,131.23,86,131.13,87.09Z"/><path class="cls-13" d="M126.84,88.72s-.66.86-.3,1.54a3.21,3.21,0,0,1,1-1.27S127.78,88.06,126.84,88.72Z"/><path class="cls-13" d="M126.61,85.68s-1.27-.11-1.51.39c0,0,1.15-.2,1.46.12C126.56,86.19,127.12,86,126.61,85.68Z"/><path class="cls-13" d="M147.46,85.12s3.6-.45,4.53-.41c0,0,.59,0,.69.34.15.55-.2.86-.75,1s-5.46.08-5.46.08l-.06-.81Z"/><path class="cls-13" d="M143.29,85.65s-1.07-.12-1.47.53a3.3,3.3,0,0,1,1.62.25S144.34,86.13,143.29,85.65Z"/><path class="cls-14" d="M145.58,73.83s2,11.72,1.89,12.16-1,1.34-1.61-.45c-.72-2-2.5-11.35-2.5-11.35A1.75,1.75,0,0,1,145.58,73.83Z"/><path class="cls-15" d="M149.69,68.1a46.83,46.83,0,0,1-2.88,8.36c-1.75,3.59-3.69,2.62-4.32-1.16s-.84-6.49-.42-8.18,1.26-4.27,4.27-3.79C150.08,63.93,149.69,68.1,149.69,68.1Z"/><path class="cls-14" d="M144.34,86.7a42.88,42.88,0,0,1,7.57.5s1.82.5,2-.41-3.17-1.26-3.17-1.26a18.29,18.29,0,0,0-6.48-.12s-1.09,0-1,.42S143.06,86.9,144.34,86.7Z"/><path class="cls-13" d="M153.74,86.57s1,.28,1.18,1a3.22,3.22,0,0,0-1.6-.35S152.59,86.64,153.74,86.57Z"/><path class="cls-14" d="M147.54,86.63s2.89,1.09,3.19,1.75,1.68.33,1.34-.44-.84-1.64-3.47-2.06C148.6,85.88,147.38,85.51,147.54,86.63Z"/><path class="cls-13" d="M151.92,88s.7.82.39,1.52a3.44,3.44,0,0,0-1.12-1.21S150.94,87.4,151.92,88Z"/><path class="cls-13" d="M152,85s1.26-.17,1.53.3c0,0-1.16-.13-1.45.2C152.05,85.46,151.48,85.28,152,85Z"/><path class="cls-15" d="M150.88,54.54c3.28,7.41.31,20.09-11.17,20.41v-.12a4.66,4.66,0,0,1-1,.15,4.16,4.16,0,0,1-1-.1V75c-11.48.33-15.16-12.16-12.3-19.75,0,0,4.66-13.65,13.26-13.65S150.88,54.54,150.88,54.54Z"/><path class="cls-16" d="M127.77,62.85a22.17,22.17,0,0,0,2.64,6.31c.14.22.49,0,.35-.2a21.54,21.54,0,0,1-2.6-6.22c-.06-.25-.45-.14-.39.11Z"/><path class="cls-16" d="M130.45,63.51a6.32,6.32,0,0,0,.46,1.14.19.19,0,0,0,.27.07.21.21,0,0,0,.07-.27l-.12-.26A2.56,2.56,0,0,1,131,64q-.11-.27-.18-.54a.2.2,0,0,0-.25-.14.2.2,0,0,0-.14.24Z"/><path class="cls-16" d="M133.63,58.46a32.58,32.58,0,0,0,1.71,7.4c.09.24.48.13.39-.11a32.06,32.06,0,0,1-1.7-7.29c0-.26-.43-.26-.4,0Z"/><path class="cls-16" d="M138.94,57.77a52.35,52.35,0,0,1,.53,10c0,.25.39.25.4,0a52.55,52.55,0,0,0-.54-10.11c0-.26-.42-.15-.39.1Z"/><path class="cls-16" d="M143,59.4a38,38,0,0,1-.2,6.31c0,.26.38.26.4,0a38,38,0,0,0,.2-6.31c0-.25-.41-.25-.4,0Z"/><path class="cls-16" d="M146.11,63.54l-.05.46a.22.22,0,0,0,.06.14.2.2,0,0,0,.14.06.2.2,0,0,0,.15-.06.22.22,0,0,0,.05-.14l0-.46a.22.22,0,0,0-.06-.14.15.15,0,0,0-.14-.06.21.21,0,0,0-.2.2Z"/><path class="cls-16" d="M148.59,63a3.23,3.23,0,0,1-.34,1.85c-.22.61-.46,1.2-.73,1.78-.51,1.12-1.09,2.2-1.67,3.28-.12.23.23.43.35.21.64-1.2,1.28-2.4,1.83-3.65.25-.58.49-1.16.69-1.76A3.07,3.07,0,0,0,149,62.9a.2.2,0,0,0-.39.1Z"/><ellipse class="cls-15" cx="138.22" cy="61.11" rx="9.26" ry="12.09"/><path class="cls-2" d="M146.24,65.46l-.45-1.26s-2.13,2.27-3.44-.11a6.82,6.82,0,0,0-4-3.05,6.82,6.82,0,0,0-4,3.05c-1.31,2.38-3.44.11-3.44.11l-.45,1.26s-1,2,2.91,6.16,5,14.22,5,14.22,1.1-10,5-14.22S146.24,65.46,146.24,65.46Z"/><g class="cls-17"><ellipse class="cls-18" cx="138.21" cy="63.01" rx="0.92" ry="10.43"/><path class="cls-19" d="M131,60.2a10.24,10.24,0,0,0,2.33,9.08c3.42,3.54,5,13.27,5,14.4s1.69-9.74,5.16-14.25,2.44-8.49,1.71-9.74h2.89V87.26h-18.7v-27Z"/></g><ellipse class="cls-20" cx="135.31" cy="64.09" rx="0.55" ry="0.14" transform="translate(-1.63 124.61) rotate(-49.19)"/><ellipse class="cls-20" cx="141.14" cy="64.09" rx="0.14" ry="0.55" transform="translate(-7.57 107.83) rotate(-40.81)"/><path class="cls-15" d="M130.66,54.28c.71-2.07,2.82-3.36,3.85-5.29a2,2,0,0,1,.69-.9c.35-.19.91,0,.87.4a3.53,3.53,0,0,1,.76-1.07,1.3,1.3,0,0,1,1.24-.3c.66.24.89,1.14,1.56,1.35-.16-.28.19-.63.52-.6a1.45,1.45,0,0,1,.81.51l1.69,1.75c0-.13.15-.25.29-.21a.58.58,0,0,1,.32.28,12.34,12.34,0,0,1,2.57,5.12.54.54,0,0,1-.11.51c-.14.12-.36.07-.55,0-1.82-.59-3.61-1.25-5.36-2a5.91,5.91,0,0,0-2.15-.63c-1.92,0-3.6,1.83-5.46,1.41a9.39,9.39,0,0,0-1-.28c-.17,0-.34.25-.18.23Z"/><ellipse class="cls-3" cx="132.87" cy="61" rx="3.36" ry="2.4" transform="translate(48.59 180.47) rotate(-79.46)"/><g class="cls-21"><path class="cls-15" d="M133.19,63.74a.92.92,0,0,1,0-1.8h.1a1.12,1.12,0,0,0-.84-.44c-.83,0-1.5,1.12-1.5,2.5s.67,2.49,1.5,2.49,1.49-1.12,1.49-2.49a3.81,3.81,0,0,0-.08-.78A.74.74,0,0,1,133.19,63.74Z"/></g><path class="cls-15" d="M130.35,59.56s3.28,2.23,5.47,1.55l-1.28-5.58-2.86.54L129.41,61"/><ellipse class="cls-3" cx="143.72" cy="61" rx="2.4" ry="3.36" transform="translate(-8.73 27.32) rotate(-10.54)"/><g class="cls-22"><path class="cls-15" d="M144.67,63.56a.91.91,0,0,1-.15-1.79h.1a1.18,1.18,0,0,0-.88-.37c-.82.07-1.39,1.24-1.27,2.62s.87,2.43,1.69,2.36,1.39-1.24,1.28-2.62a5.86,5.86,0,0,0-.14-.77A.74.74,0,0,1,144.67,63.56Z"/></g><path class="cls-15" d="M146.24,59.56s-3.29,2.23-5.47,1.55l1.28-5.58,2.86.54L147.18,61"/><path class="cls-16" d="M134.32,51.06a10.22,10.22,0,0,0-2.63,4.14c-.11.25.3.36.4.12a9.88,9.88,0,0,1,2.52-4c.21-.18-.09-.47-.29-.3Z"/><path class="cls-16" d="M134.6,52.11l-.37,1a.2.2,0,0,0,.15.26.22.22,0,0,0,.26-.15l.37-1a.21.21,0,0,0-.41-.12Z"/><path class="cls-16" d="M136,52.07l-.13.58a.23.23,0,0,0,0,.16.2.2,0,0,0,.12.1.23.23,0,0,0,.26-.15l.12-.58a.23.23,0,0,0,0-.16.19.19,0,0,0-.12-.09.21.21,0,0,0-.26.14Z"/><path class="cls-16" d="M137.61,51.69l.24,1.36a.2.2,0,0,0,.26.14.21.21,0,0,0,.15-.25L138,51.58a.21.21,0,0,0-.26-.15.22.22,0,0,0-.14.26Z"/><path class="cls-16" d="M139.29,51.44l.12.83a.23.23,0,0,0,.1.12.18.18,0,0,0,.16,0,.2.2,0,0,0,.13-.09.25.25,0,0,0,0-.17l-.12-.82a.2.2,0,0,0-.1-.12.23.23,0,0,0-.16,0,.26.26,0,0,0-.13.1.22.22,0,0,0,0,.16Z"/><path class="cls-16" d="M140.35,51a7.72,7.72,0,0,1,2,2.89c.1.25.5.14.4-.11a8.06,8.06,0,0,0-2.13-3.08c-.2-.18-.5.12-.29.3Z"/><path class="cls-16" d="M142.13,51.34a4.42,4.42,0,0,1,1.62,2.57c.06.26.46.15.4-.11A4.8,4.8,0,0,0,142.34,51a.2.2,0,0,0-.28.07.21.21,0,0,0,.07.29Z"/><path class="cls-16" d="M129,52.33a16.9,16.9,0,0,1,2.6-4,16.51,16.51,0,0,1,1.58-1.55,11.93,11.93,0,0,1,1-.84c.44-.32.56-.41,1.09-.26a.26.26,0,0,0,.32-.24,9.41,9.41,0,0,1,.32-1.58l-.31.18A7.74,7.74,0,0,1,138,45.6a.25.25,0,0,0,.43-.18l-.09-1.48-.38.22a10.09,10.09,0,0,1,3.47,2.53.26.26,0,0,0,.43-.11,3.29,3.29,0,0,1,.5-1.38h-.44l1.23,2.36a.26.26,0,0,0,.47-.06,3.33,3.33,0,0,1,.49-.91h-.44a9.3,9.3,0,0,1,1.13,2.63,11.47,11.47,0,0,0,1.37,2.21,21.65,21.65,0,0,1,2.47,5.24c.1.32.6.18.49-.13a22,22,0,0,0-2.39-5.19,11.1,11.1,0,0,1-1.5-2.46,8.38,8.38,0,0,0-1.13-2.56.26.26,0,0,0-.44,0,3.62,3.62,0,0,0-.54,1l.47-.06L142.38,45a.25.25,0,0,0-.44,0,3.65,3.65,0,0,0-.56,1.49l.43-.11a10.46,10.46,0,0,0-3.57-2.61c-.17-.07-.4,0-.39.22l.09,1.48.44-.19a8.2,8.2,0,0,0-2.65-1.65.25.25,0,0,0-.32.18,8.93,8.93,0,0,0-.34,1.71l.32-.25c-.41-.12-.62-.27-1,0a10.83,10.83,0,0,0-1,.75,16.92,16.92,0,0,0-1.92,1.77,17.54,17.54,0,0,0-3,4.37c-.14.3.31.56.45.26Z"/><path class="cls-16" d="M125.5,62l1.16,2.87A.26.26,0,0,0,127,65a.26.26,0,0,0,.18-.32L126,61.81a.26.26,0,0,0-.31-.18.25.25,0,0,0-.18.32Z"/><path class="cls-23" d="M79.87,154.42s5.75-.65,8,.55-8.19.44-8.19.44Z"/><path class="cls-24" d="M81.4,145.26l-3.09,9.12s-4.93.61-5.85,1.6c0,0-.55.73,1.87.5a37.56,37.56,0,0,1,7.64.17c2.43.3,5.19,1.17,6.37,1.15s-1.34-1.39-2.94-1.72l-1.48-.36s3.6.51,4.74.62-.77-1.85-6.52-2l-1.62,0s2.36-6.52,3-9.28S83,142,81.4,145.26Z"/><path class="cls-25" d="M78.16,144.39c.06.68.68,1.16,1.24,1.56l1.72,1.19a2.73,2.73,0,0,0,.71.39,1.93,1.93,0,0,0,1.55-.41,5.17,5.17,0,0,0,1.9-4.41,31.35,31.35,0,0,0-7.5.13.5.5,0,0,0-.27.11c-.13.15,0,.37,0,.54l.6,1.11"/><path class="cls-23" d="M76.87,155.12s5.71-1,8,.12-8.15.88-8.15.88Z"/><path class="cls-26" d="M77.91,145.89l-2.6,9.27s-4.88.88-5.75,1.92c0,0-.51.76,1.89.4a37.48,37.48,0,0,1,7.64-.24c2.45.16,5.24.88,6.42.8s-1.41-1.32-3-1.56L81,156.2s3.63.32,4.77.36-.87-1.8-6.62-1.64l-1.61.12s2-6.63,2.52-9.43S79.29,142.58,77.91,145.89Z"/><path class="cls-4" d="M95.38,114.75c-2-.29-4.15,1-5.88,0-.58-.34-1.7,4.54-2.22,4.11a4.85,4.85,0,0,1-.58.35c-12.33-1.11-19.44,2.67-19.44,2.67-4-6.89-4.22-.45-4.22-.45-7.78-9.44-6.56-2.66-6.56-2.66-12.33-6.11-5,4.44-5,4.44-8.55-.11,4.11,9.56,4.11,9.56,3.11,11.33,18.21,11.83,18.21,11.83,4.5,7.81,10,.36,10,.36,6.74-1.22,15-5.08,15-5.08,6.37-4.19,7.1-17.59,5.55-24.27C101.31,116.23,98.46,115.22,95.38,114.75Z"/><g class="cls-27"><path class="cls-28" d="M46.48,136.28A15.15,15.15,0,0,0,54,134.57a.75.75,0,0,1,0-1.41,20.53,20.53,0,0,1-3-6.66,2.43,2.43,0,0,1-.06-1.28,1.72,1.72,0,0,1,1.62-1,5,5,0,0,1,2,.5c-.48-.8-.94-1.61-1.37-2.44a4.48,4.48,0,0,1-.59-1.76,1.59,1.59,0,0,1,.85-1.54,2.19,2.19,0,0,1,1.85.35,13.31,13.31,0,0,1,2.92,2.25c-.09-.61-.48-1.15-.6-1.76s.26-1.41.88-1.35a1.31,1.31,0,0,1,.75.48l5,5a10,10,0,0,1-.15-2.11,2.25,2.25,0,0,1,1-1.77,1.29,1.29,0,0,1,1.79.53A47.71,47.71,0,0,0,63,114.94a9.14,9.14,0,0,0-1.73-1.73c-1.69-1.18-3.92-1.14-6-1.06-2.61.11-5.34.24-7.58,1.58a9.92,9.92,0,0,0-4.32,6.33,19.31,19.31,0,0,0,.06,7.83c.49,2.72,1.28,5.62.21,8.17a2.53,2.53,0,0,0,1.46.17l-1.31.48"/><path class="cls-29" d="M83.54,116.1c-.35.84-1.33,1.36-1.49,2.26a1.92,1.92,0,0,0,1.55,2,5.67,5.67,0,0,0,2.76-.27.89.89,0,0,0,.49,1.1,2.05,2.05,0,0,0,1.32.07,8.06,8.06,0,0,0,2.24-.78c.4,1,1.8,1,2.8.64a10.54,10.54,0,0,0,2.53-1.22,1.41,1.41,0,0,0,1.31.69,4.17,4.17,0,0,0,1.5-.43l3.27-1.38a1.42,1.42,0,0,0,2,.07.91.91,0,0,0,.78.36c-.1-.41.46-.67.88-.6s.84.29,1.23.13c.55-.22.59-1,.52-1.56a16.12,16.12,0,0,0-2.43-7.21,8.86,8.86,0,0,0-6.29-4,13.1,13.1,0,0,0-4.12.48,44.24,44.24,0,0,0-6.08,1.81c-1.91.74-3.93,1.92-4.42,3.91-.32,1.26.06,2.62-.26,3.88"/></g><ellipse class="cls-30" cx="73.61" cy="122.33" rx="1.87" ry="0.54"/><ellipse class="cls-30" cx="70.26" cy="123.33" rx="1.48" ry="0.43"/><path class="cls-31" d="M95.45,135.92a1.54,1.54,0,0,1-.66.85,4.53,4.53,0,0,1-1,.5,6.88,6.88,0,0,1-1.33.43,4,4,0,0,0,1.79,0,2.23,2.23,0,0,0,1.38-1,1,1,0,0,0,0-1.13.36.36,0,0,1-.09.22Z"/><path class="cls-31" d="M59.58,137.05a1.62,1.62,0,0,0,.65.86,5.24,5.24,0,0,0,1,.49,6.88,6.88,0,0,0,1.33.43,4,4,0,0,1-1.79,0,2.26,2.26,0,0,1-1.38-1,1.07,1.07,0,0,1,0-1.13.37.37,0,0,0,.1.22Z"/><path class="cls-31" d="M63.55,140.55a1.56,1.56,0,0,0,.9.59,4.64,4.64,0,0,0,1.11.15,7.26,7.26,0,0,0,1.4,0,3.83,3.83,0,0,1-1.7.55,2.21,2.21,0,0,1-1.64-.52,1,1,0,0,1-.33-1.07.33.33,0,0,0,.16.17Z"/><path class="cls-31" d="M82.9,123.17a1.58,1.58,0,0,1-.87.62,5.25,5.25,0,0,1-1.11.18,7.3,7.3,0,0,1-1.4,0,3.88,3.88,0,0,0,1.72.49,2.23,2.23,0,0,0,1.62-.58,1.05,1.05,0,0,0,.3-1.09A.35.35,0,0,1,83,123Z"/><path class="cls-31" d="M86.94,123.16a1.6,1.6,0,0,1-.58.91,4.91,4.91,0,0,1-1,.58,5.89,5.89,0,0,1-1.29.55,3.83,3.83,0,0,0,1.78-.19,2.19,2.19,0,0,0,1.28-1.14,1,1,0,0,0-.12-1.12A.4.4,0,0,1,87,123Z"/><path class="cls-31" d="M98.44,136.11a1.53,1.53,0,0,1-.48,1,4.88,4.88,0,0,1-.89.68,7.38,7.38,0,0,1-1.23.68,4,4,0,0,0,1.75-.37,2.22,2.22,0,0,0,1.16-1.27,1,1,0,0,0-.24-1.1.37.37,0,0,1-.05.23Z"/><path class="cls-31" d="M101.36,135.07a1.55,1.55,0,0,1-.32,1,4.93,4.93,0,0,1-.76.82,6.64,6.64,0,0,1-1.1.88,4.13,4.13,0,0,0,1.67-.66,2.23,2.23,0,0,0,.92-1.45,1,1,0,0,0-.42-1,.39.39,0,0,1,0,.24Z"/><path class="cls-31" d="M69.05,121.35s7.62-2.4,11.64-1.79Z"/><path class="cls-32" d="M94.66,127.28a2.44,2.44,0,0,1-2.12,1.48"/><path class="cls-33" d="M97.7,127.21a2.42,2.42,0,0,1-.79,1.75.15.15,0,0,0,.21.21,2.69,2.69,0,0,0,.86-2,.15.15,0,0,0-.18-.11.16.16,0,0,0-.1.18Z"/><path class="cls-33" d="M101,127.64l0,0,0,0,0,.09v0a.17.17,0,0,1,0,.1v0a.24.24,0,0,1,0,.08.15.15,0,0,0,0,.11.14.14,0,0,0,.08.07.17.17,0,0,0,.12,0,.15.15,0,0,0,.06-.09.35.35,0,0,0,0-.11v-.09a.49.49,0,0,0-.08-.23.16.16,0,0,0-.08-.06.16.16,0,0,0-.12,0,.11.11,0,0,0-.06.09.14.14,0,0,0,0,.11Z"/><path class="cls-33" d="M53.46,127.41a12.83,12.83,0,0,0,3.22,2.45.15.15,0,0,0,.15-.25,12.61,12.61,0,0,1-3.16-2.41c-.12-.14-.33.07-.21.21Z"/><path class="cls-33" d="M55.14,127.22l.55.4a.15.15,0,0,0,.2-.06.16.16,0,0,0,0-.2l-.56-.39a.14.14,0,1,0-.14.25Z"/><path class="cls-33" d="M53.87,120.91a12,12,0,0,0,6.59,4.88.15.15,0,0,0,.08-.29,11.68,11.68,0,0,1-6.42-4.74c-.1-.16-.36,0-.25.15Z"/><path class="cls-33" d="M57.15,122.32a6.43,6.43,0,0,0,.83.52.15.15,0,0,0,.15-.26,6.36,6.36,0,0,1-.83-.51.15.15,0,0,0-.2.05.16.16,0,0,0,0,.2Z"/><path class="cls-33" d="M60.44,121.15l.52.44a.18.18,0,0,0,.1,0,.15.15,0,0,0,.1,0,.14.14,0,0,0,0-.21l-.51-.44a.18.18,0,0,0-.1,0,.21.21,0,0,0-.11,0,.15.15,0,0,0,0,.21Z"/><path class="cls-33" d="M65.57,121a6.26,6.26,0,0,0,.93,1.19c.13.13.34-.07.21-.21a6.07,6.07,0,0,1-.89-1.13.15.15,0,0,0-.25.15Z"/><path class="cls-33" d="M57.75,131.13a3.81,3.81,0,0,0,.42,1.3c.09.16.34,0,.25-.15a3.37,3.37,0,0,1-.37-1.15.16.16,0,0,0-.15-.15c-.07,0-.16.07-.15.15Z"/><path class="cls-33" d="M57.44,132l0,0a.12.12,0,0,0,.1,0h.06l0,0a.18.18,0,0,0,0-.1.21.21,0,0,0,0-.11l0,0a.21.21,0,0,0-.11,0h0l-.05,0a.16.16,0,0,0,0,.11.19.19,0,0,0,0,.1Z"/><path class="cls-33" d="M79.79,120.92,81,120.7a.15.15,0,0,0,.11-.18.16.16,0,0,0-.18-.1l-1.22.22a.15.15,0,0,0-.11.18.16.16,0,0,0,.18.1Z"/><path class="cls-33" d="M80.73,121.23l0,0a.15.15,0,0,0,0-.1.13.13,0,0,0,0-.06l0,0a.21.21,0,0,0-.11,0,.18.18,0,0,0-.1,0l0,0a.15.15,0,0,0,0,.11,0,0,0,0,0,0,.05.05.05,0,0,0,0,0,.1.1,0,0,0,.1,0,.15.15,0,0,0,.11,0Z"/><path class="cls-34" d="M96,96.27s-.62-2.63-4.15-4.31-3,1-2.58,1.43c0,0-6-.44-4,2.47,0,0-4.82,2.2-.5,3.53l3.33-.47Z"/><path class="cls-31" d="M83,118.83s1.86-3.83.62-13.64,9.45-14.65,15.7-5.55,5.9,15.24,5.9,15.24-.11,1.75-3.59,1.39c0,0-5.5,4.43-5.77,1,0,0-5.09,4.81-5.88,1.62,0,0-3.59,2.55-3.08.69C86.92,119.58,80.74,122.47,83,118.83Z"/><path class="cls-34" d="M97.56,97.52s-3.26-2.16-6,.48.47,8.27,4.15,7.37c0,0-2.53.32-1.84,3.46s6.17,1.56,8.67-2.68a1.12,1.12,0,0,0,.09-1A21.53,21.53,0,0,0,97.56,97.52Z"/><path class="cls-35" d="M93.5,99.61a1.31,1.31,0,0,1-1.32.45,1.4,1.4,0,0,0,1.3.18Z"/><path class="cls-35" d="M93.47,100.14a.94.94,0,0,1-.94.31,1,1,0,0,0,.92.13Z"/><ellipse class="cls-3" cx="95.47" cy="100.87" rx="2.17" ry="2.79" transform="translate(-29.99 41.28) rotate(-21.17)"/><path d="M96.62,99.78a.67.67,0,0,1-.42.49.66.66,0,0,1-.86-.38.69.69,0,0,1,0-.47,1.47,1.47,0,0,0-.4.1,1.69,1.69,0,1,0,2.19,1A1.72,1.72,0,0,0,96.62,99.78Z"/><path class="cls-35" d="M96.58,98.76a2.58,2.58,0,0,0-2-.28,2.74,2.74,0,0,0-1.3,2.43,2.34,2.34,0,0,1,1.22-2.64A2.17,2.17,0,0,1,96.58,98.76Z"/><path class="cls-34" d="M100.31,107.37a4.91,4.91,0,0,0,.78,5c2,2.57,9,.23,1.58-6.94C102.67,105.4,100.27,105.13,100.31,107.37Z"/><path class="cls-5" d="M101.17,106.45a2.6,2.6,0,0,1-2.57-.15,2.69,2.69,0,0,0-1.55-1s.64-.77.57-1.18c0,0,.13-3.39,2.08-4.14,0,0,2.86-.36,4.66,3a1.18,1.18,0,0,0-.42.17S104,105.11,101.17,106.45Z"/><g class="cls-36"><path class="cls-37" d="M96,105.5a9.1,9.1,0,0,0,4.63-1.3,6.39,6.39,0,0,1,4.2-1s-.85,3.4-.77,3.36S98.21,108,98.21,108Z"/></g><ellipse class="cls-38" cx="100.25" cy="100.4" rx="0.19" ry="0.45" transform="translate(-4.74 195.83) rotate(-87.31)"/><ellipse class="cls-39" cx="92.01" cy="95.75" rx="0.59" ry="0.18" transform="translate(-13.7 15.38) rotate(-8.9)"/><ellipse class="cls-39" cx="91.11" cy="95.5" rx="0.25" ry="0.11" transform="translate(-28.34 39.35) rotate(-21.17)"/><path class="cls-40" d="M84.71,110.45a31.45,31.45,0,0,1-.44,6.85c0,.18.25.26.28.07a30.84,30.84,0,0,0,.45-6.92c0-.19-.3-.19-.29,0Z"/><path class="cls-40" d="M85.57,111.9v1.73a.15.15,0,0,0,.29,0V111.9c0-.19-.29-.19-.29,0Z"/><path class="cls-40" d="M87.81,115.6a8.06,8.06,0,0,1-.29,2.24.15.15,0,0,0,.28.08,8.3,8.3,0,0,0,.3-2.32.15.15,0,0,0-.29,0Z"/><path class="cls-40" d="M94.83,112.61a14.18,14.18,0,0,1,.41,2.14.15.15,0,0,0,.14.15.15.15,0,0,0,.15-.15,14,14,0,0,0-.42-2.22.15.15,0,0,0-.28.08Z"/><path class="cls-41" d="M89.87,131.21c1.39,8-6.69,10.93-16.66,7.64S68.28,132,68.28,132c-7.82-5.66-2.77-6.92-2.77-6.92-8-9-1.15-7.18-1.15-7.18-7.68-9-1.56-9,12.87-.43,12.84,7.59,12.56,12.4,12.56,12.4Z"/><path class="cls-4" d="M89,126.89c-.87.47-1.86,1.11-1.88,2.09a2.67,2.67,0,0,0,1.24,2,2.09,2.09,0,0,0,.61,3.85c-.61.21-.88.92-1.06,1.55a1,1,0,0,0,0,.74.82.82,0,0,0,.9.24,3.28,3.28,0,0,0,2.25-1.7,5.39,5.39,0,0,0,.46-1.59,16,16,0,0,0,.22-3,7,7,0,0,0-.41-2.44,3.3,3.3,0,0,0-1.61-1.81l-.1.43"/></svg>