<svg id="Layer_1" data-name="Layer 1" xmlns="http://www.w3.org/2000/svg" xmlns:xlink="http://www.w3.org/1999/xlink" viewBox="0 0 260 168"><defs><style>.cls-1{fill:#ffe000;}.cls-2,.cls-6{fill:#fa0;}.cls-3{clip-path:url(#clip-path);}.cls-4{fill:#edcb00;}.cls-5{fill:#f7e37c;}.cls-6{opacity:0.56;}</style><clipPath id="clip-path"><rect class="cls-1" x="16.6" y="51" width="33.7" height="41.25" rx="3.86"/></clipPath></defs><path class="cls-2" d="M36.9,54.92H22.51a2.67,2.67,0,0,1-2.67-2.67V49.74a2.68,2.68,0,0,1,2.67-2.67H36.9a2.68,2.68,0,0,1,2.68,2.67v2.51A2.67,2.67,0,0,1,36.9,54.92Zm-14.39-6a.85.85,0,0,0-.84.84v2.51a.85.85,0,0,0,.84.84H36.9a.84.84,0,0,0,.84-.84V49.74a.84.84,0,0,0-.84-.84Z"/><rect class="cls-2" x="40.99" y="49.19" width="5.46" height="3.21" rx="0.9"/><rect class="cls-1" x="16.6" y="51" width="33.7" height="41.25" rx="3.86"/><g class="cls-3"><rect class="cls-4" x="14.65" y="88.77" width="37.42" height="10.12"/><rect class="cls-5" x="13.77" y="50.07" width="37.66" height="3.69"/></g><rect class="cls-6" x="21.43" y="56.26" width="4.04" height="31.42" rx="2.02"/><rect class="cls-6" x="30.91" y="56.26" width="4.04" height="31.42" rx="2.02"/><rect class="cls-6" x="40.39" y="56.26" width="4.04" height="31.42" rx="2.02"/></svg>