<svg xmlns="http://www.w3.org/2000/svg" viewBox="0 0 225 400"><defs><style>.cls-1{fill:#0c0807;}.cls-2{fill:#a56737;}.cls-3{fill:#a46636;}.cls-4{fill:#488dcb;}.cls-5{fill:#d42027;}.cls-6{fill:#21b14b;}.cls-7{fill:#fde500;}.cls-8{fill:#9a5b2a;}.cls-9{fill:#6c401d;}.cls-10{fill:#faf8f7;}.cls-11{fill:#522f27;}.cls-12{fill:#060504;}.cls-13{fill:#600b0c;}.cls-14{fill:#f2ecec;}.cls-15{fill:#fff;}.cls-16{fill:#734725;}</style></defs><title>22</title><g id="Layer_2" data-name="Layer 2"><path class="cls-1" d="M123.38,372.4c.62-.22.75.27.87.66,1.3,4.39,1.7,8.81,0,13.19s-5.48,6.25-10,6.4a10.15,10.15,0,0,0-5.13,1.51c-5.36,3.21-11.33,4.12-17.49,3.95-3.24-.08-6.49-.3-9.5-1.76-7.23-3.51-6.81-12.11-3.42-16.19,2.22-2.67,5.14-4.46,8.09-6.18a68.32,68.32,0,0,1,7.06-3.65,30.08,30.08,0,0,0,5.64-3.47,36.12,36.12,0,0,1,13.6,11.19c1.28,1.82,1.31,1.86,3.13.68C118.9,377,121.73,375.36,123.38,372.4ZM98,385.19a15.64,15.64,0,0,0,7-1.33c1.31-.48,3.35-.57,3.74-1.61.46-1.23-1.21-2.46-2.06-3.59-2.56-3.4-5.45-6.45-9.6-8a1.89,1.89,0,0,0-2.11.12,21.16,21.16,0,0,0-4.13,4.11c-2.18,3.14-1.73,5.89,1.33,8.17A13.3,13.3,0,0,0,98,385.19Z"/><path class="cls-2" d="M123.38,372.4c-1.65,3-4.48,4.58-7.19,6.33-1.82,1.18-1.85,1.14-3.13-.68a36.12,36.12,0,0,0-13.6-11.19c2.32-2.59,3.06-5.91,4.07-9.09,1.33-4.18,6.78-33.72,8-37.91,3.23.49,6.4,1.37,9.69,1.42,3,.05,6,.13,9,.2-.94,5.93-6.31,37.16-6.82,43.15A42.91,42.91,0,0,0,123.38,372.4Z"/><path class="cls-2" d="M98,385.19a13.3,13.3,0,0,1-5.78-2.11c-3.06-2.28-3.51-5-1.33-8.17A21.16,21.16,0,0,1,95,370.8a1.89,1.89,0,0,1,2.11-.12c4.15,1.53,7,4.58,9.6,8,.85,1.13,2.52,2.36,2.06,3.59-.39,1-2.43,1.13-3.74,1.61A15.64,15.64,0,0,1,98,385.19Z"/><path class="cls-1" d="M188.28,355.48c.11,0,.23-.06.32,0,5.17,2.37,11,2.22,16.26,4.2,1.52.57,3,1.17,4.54,1.74,6.31,2.41,8,10.75,6,14.82-1.59,3.19-4.28,4.95-7.41,6.18a36,36,0,0,1-22.27,1.54,3.62,3.62,0,0,0-2.19.23c-4.08,1.42-8.21,1.43-11.07-2-3.41-4.12-6-8.85-5.52-14.59a24.56,24.56,0,0,0,9.18,4.22c1,.25,1.48.06,1.79-1a31.61,31.61,0,0,1,6.74-11.48C185.79,358,187.3,357,188.28,355.48ZM193.89,373a11.69,11.69,0,0,0,4.9-2.76c2.8-2.5,3.57-6,.27-8.93a24.26,24.26,0,0,0-4.95-3,1.89,1.89,0,0,0-2.22.22c-4.82,3.37-6.82,8.49-8.69,13.71-.2.57,0,.83.58.86C187.15,373.31,190.53,374,193.89,373Z"/><path class="cls-2" d="M188.28,355.48c-1,1.5-2.49,2.49-3.64,3.84a31.61,31.61,0,0,0-6.74,11.48c-.31,1-.83,1.21-1.79,1a24.56,24.56,0,0,1-9.18-4.22c-.61-4.83-3.26-8.86-5.24-13.15-1.15-2.5-2.28-5-3.42-7.5a56.33,56.33,0,0,0,18.3-7c2.76,4.13,5.18,8.49,8.39,12.32C186,353.39,187.19,354.37,188.28,355.48Z"/><path class="cls-2" d="M193.89,373c-3.36,1-6.74.31-10.11.07-.54,0-.78-.29-.58-.86,1.87-5.22,3.87-10.34,8.69-13.71a1.89,1.89,0,0,1,2.22-.22,24.26,24.26,0,0,1,4.95,3c3.3,2.95,2.53,6.43-.27,8.93A11.69,11.69,0,0,1,193.89,373Z"/><path class="cls-3" d="M223.08,283.46c-4.07-2.93-8.5-4.63-13.88-7.17-.29-.13-.28-.62.05-.66,3.18-.38,9.77.54,13.5-1.64a1.64,1.64,0,0,0,.72-1.65c-.18-1.14-1.81-1.5-3.08-1.78l-13.07-.66c-1-.15-1.57,0-1.58-.56s1-.29,1.44-.46a35.41,35.41,0,0,1,5-1.84,9.1,9.1,0,0,0,2-1.4,1.53,1.53,0,0,0-1-2.36,17,17,0,0,0-6.23.07c-3.17.43-6.42,1-9.59,1.4-1.67.22-3,.65-4.63-.17-2.08-1-5-2.36-7-3.55-10.17-6.06-17.41-11-26.2-19.26-1.7-1.59-3.63-3.89-5.9-3.37a4.8,4.8,0,0,0-2.19,1.26,6.52,6.52,0,0,0-2.25,4.67c-.09,3.85,3.06,6.79,5.85,9.77a248,248,0,0,0,26.21,24.2c1.71,1.36,3.8,2.37,4.7,4.36,1.82,4,3.63,8.61,6.69,12.07a2.14,2.14,0,0,0,2.95.32,3.38,3.38,0,0,0,1-2.88,35.36,35.36,0,0,1,.17-5.17c.52-1.19,2.62.21,3.71,1.32a35.76,35.76,0,0,0,8.22,6.12c1.48.83,3.3,2,4.33.64.56-.74,0-2.09-.46-2.89a21.28,21.28,0,0,0-2.31-2.88,72.81,72.81,0,0,1-5.12-6c0-.78,4.4.8,10.1,2.23.39.09,8.59,2.36,9.28.53C224.82,285.24,223.78,284,223.08,283.46Z"/><path class="cls-4" d="M136.72,236a8.24,8.24,0,0,0,1.82,2.21c1.47,1.3-.13.89,1.7,2.07a21.92,21.92,0,0,1,6,6.08,2.17,2.17,0,0,0,3,1.22,12.92,12.92,0,0,0,7-4.54c1.18-1.34,2.12-2.76,3.22-4.17a2.63,2.63,0,0,0,.81-2.16,7.76,7.76,0,0,0-.95-1.94,34.56,34.56,0,0,1-3.4-7.38c-1.14-3-2.5-5.15-4.93-6.78a14.28,14.28,0,0,0-5.54-2c-2.4-.42-1.21-.25-3.55.43a8.9,8.9,0,0,0-5.58,4.4,14.66,14.66,0,0,0-1.06,4,13.56,13.56,0,0,0-.24,4.53A12.93,12.93,0,0,0,136.72,236Z"/><path class="cls-3" d="M3.74,203.89c4.8,1.49,8.81,4,14.07,6.79.29.15.67-.16.51-.44-1.61-2.77-6.31-7.49-6.8-11.78a1.61,1.61,0,0,1,.88-1.57c1-.54,2.29.55,3.27,1.4l8.38,10.05c.71.69.94,1.26,1.4.93s-.39-1-.5-1.43a33,33,0,0,0-1.52-5.08,9.42,9.42,0,0,1-.07-2.43,1.54,1.54,0,0,1,2.5-.62,17.32,17.32,0,0,1,3.68,5c1.56,2.8,3.08,5.72,4.64,8.51.82,1.47,1.26,2.76,2.91,3.6,2.08,1,4.88,2.57,7,3.45,11,4.49,19.24,7.32,31.14,9.38,2.29.4,5.3.56,6.24,2.69a4.85,4.85,0,0,1,.31,2.5,6.53,6.53,0,0,1-2.38,4.61c-3,2.39-7.27,1.64-11.33,1.19A245.79,245.79,0,0,1,33,234.24c-2.12-.54-4.18-1.61-6.31-1.13-4.31,1-9.07,2.27-13.67,1.9a2.16,2.16,0,0,1-2-2.17,3.38,3.38,0,0,1,1.69-2.55,35.31,35.31,0,0,0,4-3.24c.64-1.14-1.74-2-3.29-2.18A35.65,35.65,0,0,1,3.61,222C2.06,221.29,0,220.53.5,218.9c.25-.89,1.67-1.25,2.58-1.37a22.76,22.76,0,0,1,3.69.11,72.29,72.29,0,0,0,7.89.49c.61-.49-3.29-3-7.85-6.74-.31-.25-7-5.45-6-7.1C1.28,203.57,2.92,203.63,3.74,203.89Z"/><path class="cls-4" d="M96,247.23a8.34,8.34,0,0,1-2.86-.14c-1.92-.38-3.07-2.16-5.11-2.91A22,22,0,0,0,79.55,243a3.57,3.57,0,0,1-1.75-.22,3.45,3.45,0,0,1-1-1.43,13,13,0,0,1-.58-8.32c.37-1.74.94-3.35,1.41-5.07a2.68,2.68,0,0,1,1.23-2,8.45,8.45,0,0,1,2.13-.4,34,34,0,0,0,7.94-1.72c3.09-.89,5.62-1.09,8.38-.12a14.37,14.37,0,0,1,5,3.21,16.11,16.11,0,0,1,4.22,5.9,8.89,8.89,0,0,1-.17,7.1,14.67,14.67,0,0,1-2.53,3.24,13.46,13.46,0,0,1-3.48,2.91A13.35,13.35,0,0,1,96,247.23Z"/><path class="cls-4" d="M103.71,355.44l.13,0a31.88,31.88,0,0,0,3.24.24l3.69.2a28,28,0,0,0,5.18-.27c3-.4,6.08-.6,9.11-1a12.87,12.87,0,0,1,2.32-.16,3.36,3.36,0,0,0,.71,0c1.64-.23,3.25-.65,4.9-.85a28.76,28.76,0,0,1,4.91-.16c1.92.09,16.79,1.77,23.82.42s16.15-2.15,20.69-8.23a210.77,210.77,0,0,1-7.65-26.93,245.47,245.47,0,0,0-13.35-42.09c-4.15-9.28-8.1-34.59-8.1-34.59s-.09-18.55-4-23.3c-4.27-5.13-16.53-3.82-27.88-1.86a100.59,100.59,0,0,0-25,8.24c-2.88,1.48-.51,30,0,35.72s4.74,29.42,5.16,37.5c.19,3.63.28,7.25.37,10.88a18.9,18.9,0,0,0,.23,3.91,13.18,13.18,0,0,1,0,3.55c-.09,1.71-.3,3.41-.49,5.11a40,40,0,0,1-.8,5.48,44.75,44.75,0,0,1-3,9.79,18.74,18.74,0,0,0-1.06,2.33,21.16,21.16,0,0,1-1.1,2.05c-.42.77-.67,1.59-1.11,2.34-.69,1.17-1.52,2.33-2.23,3.48s-1.33,2-2,2.95a1.54,1.54,0,0,0-.07,2c1.17,1.42,3.83,1.14,5.45,1.43s3.32.7,5,1a6.41,6.41,0,0,1,1.65.39A4.44,4.44,0,0,0,103.71,355.44Z"/><polygon class="cls-5" points="143.65 218.51 137.39 218.1 101.67 222.83 98.26 223.72 102.34 242.04 143.08 236.42 143.65 218.51"/><path class="cls-6" d="M139.07,218.09l-5-.68-28.63,3.72a18.11,18.11,0,0,0-1.86.91l-1.91.64,3.7,14.36,33.48-4.9Z"/><polygon class="cls-7" points="134.4 217.36 127.77 216.54 108.81 219.37 105.46 221 108.63 232.55 134.76 228.66 134.4 217.36"/><path class="cls-3" d="M111.88,228.66l-2.78-8.8s2.94-.89,3.56-3.61,1.48-6.14,8.12-7c6.41-.8,5.27,2.28,5.76,3.43a28.43,28.43,0,0,1,1,2.91,2.67,2.67,0,0,0,2.55,2c1.68.18.16,7.51.16,7.51Z"/><path d="M115.61,209.75S99.67,219.42,94,228.84c0,0,2.66-19.1,2.41-24.64,0,0-12.39,16.48-26.73,17.15a28.11,28.11,0,0,0,12.54-25.47s-23.44-12.74-31.93-36.32c0,0,12.47-22.32,16.33-26,0,0-4.51-19.39,3-27.94,0,0,20.89-9.12,32.61-5.45,0,0,10.13-13.7,27.93-17.3,0,0,26.14,8,31.39,22.36,0,0,26.8,8.81,30.71,10.72,0,0,6.78,18.7.35,30.23,0,0,8.77,17,7,24.86,0,0-14.2,18.7-29,23.24s-1.53,37.66-1.53,37.66-13.39-15.2-22-19a119,119,0,0,1,2.55,19.79S134.64,207.44,115.61,209.75Z"/><path class="cls-8" d="M71,153.65l2.71-11.71a3.82,3.82,0,0,0-.88-2.43c-.88-.84-4.52-4.57-4.52-4.57s5.15,1,6.83,2.41c.67.14.84.71,1.6-.22S86.48,126,86.48,126s15.08-5.94,17.14-7.13,2.57-1.55,2.29-4-1.29-8.47-1.55-9.56c0,0,4.53,10.24,5,11.63s2,.7,2.39.58,18.32-4,18.32-4a3.93,3.93,0,0,1,2.27.2c1.67.46,15.67,5,18,6.65.88.36,1.3.16,1.6-.21s7.14-5.86,8.7-8.42c0,0-4,8-4.2,9.53-.6,1.43.51,1.23.82,1.55s10.81,7.69,10.81,7.69l5.5,15.21s11.19-1.7,14.86.57a23.13,23.13,0,0,0-12.2,2s2.17,6.81,1.45,9.67c.86,18.57-2.64,29.76-6,36.75-7,12-23.79,21.3-33.67,24.33-15,3.78-22,2.62-36.24-3-4.25-4.37-20.86-8.83-29.09-36.08Z"/><path class="cls-8" d="M69.3,179.71a5.53,5.53,0,0,0,3,.12c.82-.41,1.33-1.51,1.8-2.3,2.15-3.6,1.75-8.1,1.29-12.26L75,161.48a22.21,22.21,0,0,0-1-5,7.68,7.68,0,0,0-3.11-4.06,7.14,7.14,0,0,0-4.27-.87,10,10,0,0,0-5.07,1.24,7.3,7.3,0,0,0-2.66,3.68,21.92,21.92,0,0,0-1.12,6.68,18.59,18.59,0,0,0,1.42,6.32,19,19,0,0,0,4.2,6.91A11,11,0,0,0,69.3,179.71Z"/><path class="cls-9" d="M66.37,155.51a5.15,5.15,0,0,1,2,.34,13.83,13.83,0,0,1,2.66,1.67c.11-.76-.43-1.37-1.09-2.34a4.35,4.35,0,0,0-1.2-1.18,4.87,4.87,0,0,0-2.43-.67,6.62,6.62,0,0,0-6.06,4c-1.14,2.39-.4,5.3.26,7.87,1.57,6.13,4.36,9.68,7.32,11.54.13.08,2.72,2.1,4,1.24a2.2,2.2,0,0,0,.41-.45,3.23,3.23,0,0,0,.59-2.36A2,2,0,0,0,71,173.51a1.88,1.88,0,0,1-.61,2.3,1.53,1.53,0,0,1-.8.11,10.09,10.09,0,0,1-1.64-.95,6.84,6.84,0,0,1-2.66-2.92,21,21,0,0,1-1.44-2.89A29.65,29.65,0,0,1,61.71,162c-.28-2.52,1-5.52,3.41-6.31A3.55,3.55,0,0,1,66.37,155.51Z"/><path class="cls-8" d="M177.63,184.37c-1,.14-2.49.65-3,.3a5.8,5.8,0,0,1-1.48-2.52c-1.65-3.85-.65-8.26.36-12.33l.93-3.7a21.93,21.93,0,0,1,1.61-4.83c.79-1.51,1.23-2.89,2.81-3.53a13,13,0,0,1,5.82-1c1.5.21,3.65.56,4.75,1.6s1.27,3.37,1.6,5a20.9,20.9,0,0,1-.13,6.6c-.24,2.08-1.47,4.29-2.43,6.15-1.29,2.5-3.45,3.69-5.64,5.47S180.07,184,177.63,184.37Z"/><path class="cls-9" d="M183.56,160.27a5.09,5.09,0,0,0-2.06.06,14,14,0,0,0-2.87,1.3c0-.77.61-1.3,1.39-2.17a4.51,4.51,0,0,1,1.36-1,5,5,0,0,1,2.49-.35,6.63,6.63,0,0,1,5.47,4.8c.81,2.52-.44,6.66-1.43,9.11-2.38,5.87-5.76,8.64-8.94,10.09-.14.06-3,1.72-4.12.7a2.24,2.24,0,0,1-.35-.5,3.3,3.3,0,0,1-.27-2.42,2,2,0,0,1,2.08-1.41,1.87,1.87,0,0,0,.29,2.36,1.52,1.52,0,0,0,.78.21,10.18,10.18,0,0,0,1.76-.72,9.76,9.76,0,0,0,3.6-3,20.09,20.09,0,0,0,1.81-2.66,30.26,30.26,0,0,0,3.07-6.81c.61-2.45-.57-6.11-2.85-7.22A3.44,3.44,0,0,0,183.56,160.27Z"/><path class="cls-10" d="M108.43,181.59a24.87,24.87,0,0,1-15.55-1.75,12.54,12.54,0,0,1-7.18-13.21c.76-5.67,6.38-10.62,12.16-10.95a22.35,22.35,0,0,1,15.86,5,11.31,11.31,0,0,1,4.22,11.43C117.06,176.89,114.16,179.93,108.43,181.59Z"/><path class="cls-10" d="M151.71,186a25,25,0,0,1-16.35-2.42c-4.48-2.32-5.6-6.52-5.42-11.16a10.23,10.23,0,0,1,6.3-9.5,21.65,21.65,0,0,1,18.57.17,11.86,11.86,0,0,1,6.78,11.47C161.05,180.24,158.07,184,151.71,186Z"/><path class="cls-11" d="M103.9,178.56a8.92,8.92,0,1,1,5.91-11.11A8.88,8.88,0,0,1,103.9,178.56Zm-8.63-8.9c0,.27,0,.54,0,.81a6.1,6.1,0,0,0,4.62,5.9,5.77,5.77,0,0,0,6.72-3.23,6.25,6.25,0,0,0-1.87-7.41c-1.5-1.21-4.48-1.41-5.83-.38-1.76-1-3-.89-4,.27S94.05,168,95.27,169.66Z"/><path class="cls-12" d="M99,165.35c1.35-1,4.33-.83,5.83.38a6.25,6.25,0,0,1,1.87,7.41,5.77,5.77,0,0,1-6.72,3.23,6.1,6.1,0,0,1-4.62-5.9c0-.27,0-.54,0-.81,1.37.6,2.73.83,3.8-.49A2.82,2.82,0,0,0,99,165.35Z"/><path class="cls-10" d="M99,165.35a2.82,2.82,0,0,1,.12,3.82c-1.07,1.32-2.43,1.09-3.8.49-1.22-1.63-1.33-2.89-.35-4S97.19,164.37,99,165.35Z"/><path class="cls-11" d="M144.12,183.12a8.94,8.94,0,1,1,9.74-8A8.94,8.94,0,0,1,144.12,183.12Zm-4.71-14.24c-.95,1.2-.78,2.47.52,4-.74,1.52,0,4.4,1.52,5.64a6.26,6.26,0,0,0,7.64.38,5.78,5.78,0,0,0,1.85-7.22,6.12,6.12,0,0,0-6.7-3.38l-.79.13C141.6,167.55,140.34,167.69,139.41,168.88Z"/><path class="cls-12" d="M139.93,172.89c-.74,1.52,0,4.4,1.52,5.64a6.26,6.26,0,0,0,7.64.38,5.78,5.78,0,0,0,1.85-7.22,6.12,6.12,0,0,0-6.7-3.38l-.79.13c.85,1.22,1.33,2.5.25,3.82A2.84,2.84,0,0,1,139.93,172.89Z"/><path class="cls-10" d="M139.93,172.89a2.84,2.84,0,0,0,3.77-.63c1.08-1.32.6-2.6-.25-3.82-1.85-.89-3.11-.75-4,.44S138.63,171.35,139.93,172.89Z"/><path class="cls-13" d="M109.22,198.55s-.88-1.08.49-.33a28.34,28.34,0,0,0,8.6,2.63,28.68,28.68,0,0,0,9.15-.21,16.12,16.12,0,0,0,2.75-.74c.26-.05.34.2-.08.4s-4.21,1.64-5.3,2.94a4.41,4.41,0,0,1-3.24,1.31,16.63,16.63,0,0,1-6.33-1C113.13,202.23,113.28,200.59,109.22,198.55Z"/><path class="cls-14" d="M109,197.58s.2,1.46,4.69,3a27.17,27.17,0,0,0,12,1.12,12.56,12.56,0,0,0,4.72-1.89Z"/><path class="cls-15" d="M114.32,202.73s4.15.91,5,1,4.6.08,5.77.76S115.94,206.67,114.32,202.73Z"/><path class="cls-16" d="M121.67,197.91c-1.57-.21-4.62-.58-6.2-.69a23.51,23.51,0,0,0-3.46,0,20.47,20.47,0,0,1-2.48,0,4.59,4.59,0,0,1-1-.16l-2-.54a.15.15,0,0,0-.13.26,12.82,12.82,0,0,1,4.59,6.47,5.24,5.24,0,0,0,.63,1.5,3.25,3.25,0,0,0,.74.69,9,9,0,0,0,4.42,1.62,29.52,29.52,0,0,0,4.31.4,14.2,14.2,0,0,0,5.46-1.34c.51-.23,1.05-1.15,1.47-1.52a24.14,24.14,0,0,0,1.67-2.21c1.52-1.82,3.6-2.39,5-3.26C130.63,199.46,126.63,198.58,121.67,197.91Zm8.46,2.39c-.43.2-4.21,1.64-5.3,2.94a4.41,4.41,0,0,1-3.24,1.31,16.63,16.63,0,0,1-6.33-1c-2.13-1.32-2-3-6-5,0,0-.88-1.08.49-.33a28.34,28.34,0,0,0,8.6,2.63,28.68,28.68,0,0,0,9.15-.21,16.12,16.12,0,0,0,2.75-.74C130.47,199.85,130.55,200.1,130.13,200.3Z"/><path class="cls-11" d="M125,190.12c-4.78,1.86-9.77-1.24-11.94-4.72-.91-1.46-.37-2.42,1.33-2.48A7.94,7.94,0,0,1,116,183a75.45,75.45,0,0,0,12.09,1.35c.81,0,1.73,0,2.11.89s-.29,1.63-.88,2.26A8.42,8.42,0,0,1,125,190.12Z"/><path class="cls-1" d="M97.15,144.57c4.31-1,8.87-1.31,13.3.83a9.67,9.67,0,0,1,1.12.66,1.3,1.3,0,0,1,.72,1.35c-.17.7-.85.54-1.37.49-1.72-.16-3.43-.33-5.15-.52-6.06-.66-11.21,1.56-16,5.05a10.68,10.68,0,0,1-1.64,1c-.41.2-.91.57-1.33.1s-.14-.94,0-1.39a8.83,8.83,0,0,1,2.81-3.5A22.4,22.4,0,0,1,97.15,144.57Z"/><path class="cls-1" d="M162.72,159.51c.35,1.16.85,2.33,0,2.82s-1.53-.71-2.09-1.36c-1.39-1.59-2.7-3.24-4.24-4.7a21.19,21.19,0,0,0-12-5.34c-1.12-.16-2.24-.35-3.36-.56-.47-.1-1-.24-1.09-.82s.49-.89,1-1.1a9.6,9.6,0,0,1,4.46-.63c7.42.66,13.12,4.09,16.85,10.61A8.37,8.37,0,0,1,162.72,159.51Z"/></g></svg>