<svg xmlns="http://www.w3.org/2000/svg" viewBox="0 0 225 400"><defs><style>.cls-1{fill:#0c0807;}.cls-2{fill:#a56737;}.cls-3{fill:#a46636;}.cls-4{fill:#488dcb;}.cls-5{fill:#d42027;}.cls-6{fill:#21b14b;}.cls-7{fill:#fde500;}.cls-8{fill:#9a5b2a;}.cls-9{fill:#6c401d;}.cls-10{fill:#faf8f7;}.cls-11{fill:#522f27;}.cls-12{fill:#060504;}.cls-13{fill:#600b0c;}.cls-14{fill:#f2ecec;}.cls-15{fill:#fff;}.cls-16{fill:#734725;}</style></defs><title>22</title><g id="Layer_2" data-name="Layer 2"><path class="cls-1" d="M68.49,369.25c.66-.08.68.43.7.83.32,4.58-.27,9-2.91,12.86s-6.72,4.91-11.17,4.06a10,10,0,0,0-5.33.35c-5.94,2-12,1.53-17.93,0-3.15-.79-6.27-1.71-8.89-3.8-6.28-5-4-13.31.2-16.54,2.76-2.13,6-3.23,9.26-4.26a67.93,67.93,0,0,1,7.69-2,30.14,30.14,0,0,0,6.25-2.14c4.63,3.83,8.5,8.26,10.83,13.89.85,2.05.87,2.1,2.9,1.35C63.11,372.73,66.23,371.77,68.49,369.25ZM41,376.17a15.52,15.52,0,0,0,7.16.25c1.4-.18,3.41.17,4-.75.71-1.1-.65-2.67-1.23-3.95-1.75-3.88-3.9-7.49-7.61-9.89a1.9,1.9,0,0,0-2.09-.35,21.47,21.47,0,0,0-4.93,3.11c-2.81,2.59-3,5.36-.49,8.26A13.22,13.22,0,0,0,41,376.17Z"/><path class="cls-2" d="M68.49,369.25c-2.26,2.52-5.38,3.48-8.4,4.6-2,.75-2.05.7-2.9-1.35-2.33-5.63-6.2-10.06-10.83-13.89,2.84-2,4.29-5.1,6-8,2.21-3.78,14-31.41,16.16-35.22,3,1.18,5.94,2.73,9.15,3.51,2.91.7,5.82,1.44,8.74,2.17-2.22,5.57-14.3,34.88-16.11,40.61A43.71,43.71,0,0,0,68.49,369.25Z"/><path class="cls-2" d="M41,376.17a13.22,13.22,0,0,1-5.18-3.32c-2.49-2.9-2.32-5.67.49-8.26a21.47,21.47,0,0,1,4.93-3.11,1.9,1.9,0,0,1,2.09.35c3.71,2.4,5.86,6,7.61,9.89.58,1.28,1.94,2.85,1.23,3.95-.6.92-2.61.57-4,.75A15.52,15.52,0,0,1,41,376.17Z"/><path class="cls-1" d="M135.52,367a.8.8,0,0,1,.32,0c4.52,3.45,10.24,4.58,14.95,7.67,1.35.89,2.69,1.8,4.05,2.69,5.62,3.73,5.47,12.25,2.59,15.77-2.25,2.76-5.25,3.89-8.58,4.4a36,36,0,0,1-22.07-3.37,3.62,3.62,0,0,0-2.19-.25c-4.29.49-8.32-.41-10.35-4.42-2.42-4.77-3.93-9.95-2.19-15.44a24.63,24.63,0,0,0,8,6.13c.88.45,1.43.38,2-.55a31.63,31.63,0,0,1,9.09-9.73C132.55,368.84,134.24,368.21,135.52,367Zm1.64,18.32a11.77,11.77,0,0,0,5.39-1.62c3.27-1.83,4.79-5.05,2.22-8.66a24.2,24.2,0,0,0-4.18-4,1.88,1.88,0,0,0-2.21-.27c-5.43,2.23-8.51,6.79-11.48,11.47-.32.51-.14.82.37,1C130.52,384.1,133.66,385.53,137.16,385.28Z"/><path class="cls-2" d="M135.52,367c-1.28,1.25-3,1.88-4.39,2.94a31.63,31.63,0,0,0-9.09,9.73c-.53.93-1.08,1-2,.55a24.63,24.63,0,0,1-8-6.13c.46-4.85-1.24-9.36-2.23-14q-.85-4-1.69-8.07c6.6,0,13.12-.6,19.39-2.85,1.78,4.64,3.2,9.42,5.49,13.86C133.73,364.41,134.7,365.63,135.52,367Z"/><path class="cls-2" d="M137.16,385.28c-3.5.25-6.64-1.18-9.89-2.15-.51-.15-.69-.46-.37-1,3-4.68,6-9.24,11.48-11.47a1.88,1.88,0,0,1,2.21.27,24.2,24.2,0,0,1,4.18,4c2.57,3.61,1,6.83-2.22,8.66A11.77,11.77,0,0,1,137.16,385.28Z"/><path class="cls-3" d="M216.13,203.35c-4.76,1.6-8.72,4.21-13.91,7.11-.29.15-.67-.14-.52-.43,1.55-2.8,6.13-7.63,6.53-11.93a1.62,1.62,0,0,0-.92-1.55c-1-.52-2.27.61-3.24,1.48l-8.15,10.23c-.69.71-.91,1.28-1.38,1s.37-1,.48-1.44a34.9,34.9,0,0,1,1.39-5.12,9.34,9.34,0,0,0,0-2.42,1.54,1.54,0,0,0-2.52-.56,17.09,17.09,0,0,0-3.56,5.1c-1.5,2.83-3,5.79-4.45,8.61-.79,1.49-1.2,2.79-2.83,3.67-2.05,1.1-4.82,2.67-7,3.6-10.85,4.74-19.07,7.75-30.92,10.09-2.28.45-5.28.68-6.18,2.82a4.79,4.79,0,0,0-.24,2.52,6.54,6.54,0,0,0,2.47,4.55c3.08,2.32,7.31,1.47,11.36.93a246,246,0,0,0,34.93-7.21c2.11-.59,4.14-1.7,6.29-1.28,4.33.87,9.11,2.07,13.7,1.59a2.15,2.15,0,0,0,2-2.21,3.37,3.37,0,0,0-1.75-2.51,36.34,36.34,0,0,1-4.1-3.15c-.67-1.12,1.7-2,3.23-2.25a35.76,35.76,0,0,0,9.76-3.12c1.53-.71,3.54-1.53,3-3.14-.27-.89-1.69-1.22-2.62-1.32a21.63,21.63,0,0,0-3.68.2,73.52,73.52,0,0,1-7.88.67c-.62-.48,3.22-3.12,7.7-6.92.3-.26,6.92-5.61,5.84-7.23C218.58,203,216.94,203.07,216.13,203.35Z"/><path class="cls-4" d="M127.25,245.91a8.31,8.31,0,0,0,2.85-.2c1.92-.43.65.63,2.68-.17a21.86,21.86,0,0,1,8.45-1.35,3.54,3.54,0,0,0,1.74-.26,3.4,3.4,0,0,0,1-1.46,12.85,12.85,0,0,0,.38-8.32c-.4-1.74-1-3.33-1.51-5a2.7,2.7,0,0,0-1.28-1.93,8.12,8.12,0,0,0-2.14-.35,34.23,34.23,0,0,1-8-1.54c-3.11-.82-5.64-1-8.38.06a14.44,14.44,0,0,0-4.87,3.33c-1.74,1.71-.91.84-1.72,3.14a8.87,8.87,0,0,0,.34,7.09,14.15,14.15,0,0,0,2.6,3.18,13.38,13.38,0,0,0,3.54,2.83A13,13,0,0,0,127.25,245.91Z"/><path class="cls-3" d="M7.23,295.2c3.59-3.5,7.72-5.83,12.68-9.13.27-.18.18-.65-.14-.65-3.21.1-9.6,2-13.61.35a1.63,1.63,0,0,1-1-1.52c0-1.15,1.58-1.75,2.79-2.21l12.83-2.57c.94-.29,1.55-.22,1.49-.78s-1.08-.14-1.5-.24a34.23,34.23,0,0,0-5.19-1.1,9.39,9.39,0,0,1-2.17-1.09,1.54,1.54,0,0,1,.65-2.49,17.29,17.29,0,0,1,6.17-.84c3.2,0,6.49,0,9.69,0,1.69,0,3,.21,4.55-.84,1.92-1.32,4.59-3.06,6.39-4.53,9.17-7.49,15.61-13.42,23.11-22.89,1.44-1.82,3-4.38,5.33-4.2a4.86,4.86,0,0,1,2.35.93,6.53,6.53,0,0,1,2.92,4.28c.65,3.8-2,7.17-4.36,10.53A246.78,246.78,0,0,1,47.87,284c-1.49,1.6-3.41,2.91-4,5-1.21,4.25-2.33,9-4.85,12.91a2.17,2.17,0,0,1-2.88.76,3.37,3.37,0,0,1-1.43-2.7,36.72,36.72,0,0,0-.93-5.09c-.69-1.11-2.56.59-3.48,1.85A35.74,35.74,0,0,1,23.06,304c-1.34,1-3,2.45-4.19,1.26-.66-.65-.3-2.06,0-2.92a21.23,21.23,0,0,1,1.86-3.19A72.77,72.77,0,0,0,25,292.4c-.14-.77-4.24,1.44-9.66,3.68-.38.15-8.16,3.6-9.1,1.89C5.77,297.21,6.61,295.8,7.23,295.2Z"/><path class="cls-4" d="M89.34,234.81a8.48,8.48,0,0,1-1.48,2.44c-1.26,1.51-3.37,1.67-5,3.11a22,22,0,0,0-5.06,6.89,3.57,3.57,0,0,1-1,1.44,3.44,3.44,0,0,1-1.75.2,12.94,12.94,0,0,1-7.58-3.46c-1.36-1.16-2.5-2.42-3.79-3.65a2.7,2.7,0,0,1-1.13-2,8.67,8.67,0,0,1,.66-2.06,33.7,33.7,0,0,0,2.28-7.79c.7-3.15,1.73-5.46,3.89-7.43a14.32,14.32,0,0,1,5.19-2.81,16.09,16.09,0,0,1,7.2-.9,8.91,8.91,0,0,1,6.16,3.54,14.69,14.69,0,0,1,1.63,3.77,10.09,10.09,0,0,1-.19,8.74Z"/><path class="cls-4" d="M53,348.39l.12.05a30.71,30.71,0,0,0,3.1.94l3.56,1a28.69,28.69,0,0,0,5.12.87c3,.28,6.06.74,9.09,1.06a12.65,12.65,0,0,1,2.3.35,3.29,3.29,0,0,0,.69.16c1.65.14,3.32.08,5,.24a30.51,30.51,0,0,1,4.83.93c1.86.51,16,5.41,23.15,5.62s16.23,1.44,22-3.5a211.15,211.15,0,0,1-1.57-27.94,244.42,244.42,0,0,0-3.81-44c-2-10-.32-35.54-.32-35.54s4-18.11,1.17-23.6c-3-6-15.29-7.36-26.8-7.93a100.34,100.34,0,0,0-26.21,2.56c-3.13.81-7.06,29.14-7.8,34.86s-1.82,29.74-3.18,37.72c-.61,3.58-1.31,7.14-2,10.7a19.45,19.45,0,0,0-.64,3.86A12.71,12.71,0,0,1,60,310.3c-.47,1.65-1,3.26-1.59,4.88a41.69,41.69,0,0,1-2,5.16,36.27,36.27,0,0,1-2.14,4.33,36.25,36.25,0,0,1-3,4.56,19.24,19.24,0,0,0-1.54,2A21.43,21.43,0,0,1,48.29,333c-.57.65-1,1.4-1.6,2-.92,1-2,1.93-2.93,2.9s-1.73,1.62-2.58,2.44a1.54,1.54,0,0,0-.49,1.9c.83,1.65,3.48,2,5,2.59s3.09,1.41,4.63,2.09a6.94,6.94,0,0,1,1.52.75A4.21,4.21,0,0,0,53,348.39Z"/><polygon class="cls-5" points="121.97 223.54 115.96 221.76 80.07 218.55 76.55 218.68 76.52 237.44 117.5 240.88 121.97 223.54"/><path class="cls-6" d="M117.6,222.12l-4.69-1.75-28.75-2.64a18.17,18.17,0,0,0-2,.48l-2,.21.47,14.82,33.74,2.55Z"/><polygon class="cls-7" points="113.2 220.39 106.92 218.14 87.8 216.74 84.17 217.59 84.73 229.56 111.08 231.49 113.2 220.39"/><path class="cls-3" d="M88.76,226.48l-.79-9.2s3.06-.22,4.27-2.73,2.78-5.68,9.44-5c6.43.62,4.65,3.38,4.87,4.61a28.1,28.1,0,0,1,.32,3.05,2.68,2.68,0,0,0,2,2.55c1.6.54-1.48,7.36-1.48,7.36Z"/><path d="M96.53,208.84s-17.66,5.95-25.22,13.9c0,0,6.77-18.05,7.75-23.5,0,0-15.7,13.36-29.84,10.87A28.1,28.1,0,0,0,67,188S47,170.44,43.83,145.58c0,0,17.06-19.05,21.63-21.79,0,0-.15-19.91,9.1-26.6,0,0,22.38-4.32,33,1.83,0,0,12.89-11.16,31-10.77,0,0,23.76,13.51,25.73,28.7,0,0,24.23,14.46,27.62,17.18,0,0,2.52,19.73-6.28,29.58,0,0,4.82,18.55,1.4,25.79,0,0-18,15.13-33.4,16.32s-9.74,36.41-9.74,36.41-9.74-17.77-17.35-23.36a119.07,119.07,0,0,1-1.85,19.87S115.61,210.76,96.53,208.84Z"/><path class="cls-8" d="M65.25,144.32l5.21-10.82a3.88,3.88,0,0,0-.33-2.57c-.68-1-3.41-5.45-3.41-5.45s4.81,2.09,6.14,3.85c.62.28.66.87,1.6.14s12-8.77,12-8.77,16-2.49,18.28-3.2,2.85-1,3.12-3.43.6-8.55.58-9.67c0,0,2.18,11,2.29,12.44s1.81,1.12,2.21,1.09,18.74.14,18.74.14a4.07,4.07,0,0,1,2.18.7c1.52.81,14.19,8.33,16.14,10.44.77.54,1.23.43,1.61.14s8.24-4.16,10.33-6.31c0,0-5.64,6.94-6.19,8.38-.9,1.26.24,1.31.46,1.69s8.87,9.87,8.87,9.87l2,16.05s11.28.79,14.37,3.8a23.14,23.14,0,0,0-12.34-.7s.61,7.12-.71,9.75c-3.23,18.31-9.09,28.46-13.93,34.54-9.44,10.16-27.88,15.57-38.18,16.37-15.46.4-22.09-2.28-34.71-10.87-3.19-5.2-18.42-13.19-20.48-41.58Z"/><path class="cls-8" d="M57.93,169.39a5.62,5.62,0,0,0,2.89.78c.9-.23,1.63-1.19,2.26-1.86,2.89-3,3.49-7.52,3.94-11.68l.42-3.79a21.7,21.7,0,0,0,.16-5.09,7.68,7.68,0,0,0-2.14-4.64,7.19,7.19,0,0,0-4-1.78,9.93,9.93,0,0,0-5.22.1,7.34,7.34,0,0,0-3.4,3,21.89,21.89,0,0,0-2.55,6.28,18.75,18.75,0,0,0,0,6.47,19.18,19.18,0,0,0,2.58,7.67A11,11,0,0,0,57.93,169.39Z"/><path class="cls-9" d="M60.37,145.14a5.14,5.14,0,0,1,1.92.77,14.19,14.19,0,0,1,2.23,2.22c.27-.72-.12-1.43-.55-2.52a4.41,4.41,0,0,0-.92-1.41A4.76,4.76,0,0,0,60.83,143,6.62,6.62,0,0,0,54,145.6c-1.64,2.09-1.55,5.09-1.47,7.74.19,6.33,2.13,10.39,4.61,12.86.11.11,2.2,2.65,3.62,2.08a1.92,1.92,0,0,0,.5-.34,3.2,3.2,0,0,0,1.09-2.18,2,2,0,0,0-1.45-2,1.88,1.88,0,0,1-1.1,2.11,1.48,1.48,0,0,1-.8-.08,9.3,9.3,0,0,1-1.39-1.28,6.83,6.83,0,0,1-2-3.44,20.94,20.94,0,0,1-.78-3.12,30.15,30.15,0,0,1-.51-7.45c.28-2.52,2.19-5.16,4.71-5.41A3.57,3.57,0,0,1,60.37,145.14Z"/><path class="cls-8" d="M162.61,197.66c-1-.08-2.57.1-3-.36a5.81,5.81,0,0,1-.88-2.78c-.77-4.12,1.17-8.21,3.05-12l1.71-3.41a22.29,22.29,0,0,1,2.63-4.35c1.1-1.31,1.84-2.56,3.52-2.84a12.91,12.91,0,0,1,5.9.29c1.42.53,3.43,1.34,4.28,2.61s.51,3.56.48,5.18a21,21,0,0,1-1.58,6.41c-.68,2-2.36,3.86-3.71,5.46-1.81,2.16-4.18,2.85-6.7,4.11S165.07,197.85,162.61,197.66Z"/><path class="cls-9" d="M173.68,175.45a5,5,0,0,0-2-.39,13.39,13.39,0,0,0-3.08.64c.16-.75.88-1.14,1.83-1.81a4.2,4.2,0,0,1,1.54-.69,4.78,4.78,0,0,1,2.51.21,6.6,6.6,0,0,1,4.29,5.87c.24,2.64-1.88,6.4-3.39,8.58-3.61,5.21-7.51,7.17-10.93,7.89-.16,0-3.29,1-4.18-.23A2.13,2.13,0,0,1,160,195a3.25,3.25,0,0,1,.27-2.42,2,2,0,0,1,2.33-.92,1.88,1.88,0,0,0-.22,2.37,1.39,1.39,0,0,0,.71.37A8.93,8.93,0,0,0,165,194a9.67,9.67,0,0,0,4.17-2.14,19.61,19.61,0,0,0,2.35-2.2,30,30,0,0,0,4.48-6c1.14-2.26.79-6.09-1.19-7.67A3.6,3.6,0,0,0,173.68,175.45Z"/><path class="cls-10" d="M95.7,179.8a24.81,24.81,0,0,1-14.79-5.12,12.53,12.53,0,0,1-4.11-14.46c2-5.37,8.55-9,14.26-8a22.38,22.38,0,0,1,14.37,8.4,11.33,11.33,0,0,1,1.62,12.08C105.15,177.1,101.66,179.44,95.7,179.8Z"/><path class="cls-10" d="M137,193.53a25,25,0,0,1-15.42-5.94c-3.86-3.25-4-7.59-2.84-12.07a10.22,10.22,0,0,1,8.22-7.9A21.67,21.67,0,0,1,145,171.86a11.84,11.84,0,0,1,4.1,12.67C147.34,190,143.6,193.05,137,193.53Z"/><path class="cls-11" d="M91.94,175.85a8.92,8.92,0,1,1,8.2-9.54A8.87,8.87,0,0,1,91.94,175.85Zm-6.47-10.57c0,.26-.09.53-.14.79a6.1,6.1,0,0,0,3.22,6.77,5.79,5.79,0,0,0,7.27-1.67,6.28,6.28,0,0,0-.21-7.65c-1.2-1.51-4.06-2.35-5.6-1.65-1.51-1.34-2.78-1.53-4-.62S84.64,163.42,85.47,165.28Z"/><path class="cls-12" d="M90,161.87c1.54-.7,4.4.14,5.6,1.65a6.28,6.28,0,0,1,.21,7.65,5.79,5.79,0,0,1-7.27,1.67,6.1,6.1,0,0,1-3.22-6.77c0-.26.1-.53.14-.79,1.21.88,2.48,1.4,3.82.35A2.83,2.83,0,0,0,90,161.87Z"/><path class="cls-10" d="M90,161.87a2.83,2.83,0,0,1-.72,3.76c-1.34,1.05-2.61.53-3.82-.35-.83-1.86-.67-3.12.54-4S88.5,160.53,90,161.87Z"/><path class="cls-11" d="M130.19,189.11a8.94,8.94,0,1,1,11.25-5.64A8.94,8.94,0,0,1,130.19,189.11Zm-1.48-14.93c-1.19,1-1.3,2.24-.37,4-1,1.32-.93,4.3.24,5.83a6.28,6.28,0,0,0,7.38,2.05,5.8,5.8,0,0,0,3.38-6.65,6.1,6.1,0,0,0-5.79-4.75l-.8-.06C131.14,173.37,129.88,173.23,128.71,174.18Z"/><path class="cls-12" d="M128.34,178.21c-1,1.32-.93,4.3.24,5.83a6.28,6.28,0,0,0,7.38,2.05,5.8,5.8,0,0,0,3.38-6.65,6.1,6.1,0,0,0-5.79-4.75l-.8-.06c.56,1.38.75,2.74-.59,3.79A2.82,2.82,0,0,1,128.34,178.21Z"/><path class="cls-10" d="M128.34,178.21a2.82,2.82,0,0,0,3.82.21c1.34-1,1.15-2.41.59-3.79-1.61-1.26-2.87-1.4-4-.45S127.41,176.42,128.34,178.21Z"/><path class="cls-13" d="M92.76,196.52s-.63-1.25.55-.21a28.07,28.07,0,0,0,7.81,4.44,28.41,28.41,0,0,0,9,1.8,14.44,14.44,0,0,0,2.85-.12c.27,0,.29.28-.17.38s-4.46.67-5.81,1.71a4.42,4.42,0,0,1-3.44.56,16.32,16.32,0,0,1-6-2.36C95.76,201,96.27,199.4,92.76,196.52Z"/><path class="cls-14" d="M92.75,195.52s-.12,1.47,3.92,3.95a27.2,27.2,0,0,0,11.48,3.73,12.64,12.64,0,0,0,5-.82Z"/><path class="cls-15" d="M96.81,201.72s3.86,1.79,4.68,2.06,4.47,1.08,5.47,2S97.54,205.91,96.81,201.72Z"/><path class="cls-16" d="M105,198.62c-1.49-.55-4.38-1.58-5.9-2a24.24,24.24,0,0,0-3.38-.74,19.39,19.39,0,0,1-2.42-.52,4.36,4.36,0,0,1-1-.39l-1.85-1a.15.15,0,0,0-.18.23,12.78,12.78,0,0,1,3,7.31,4.84,4.84,0,0,0,.3,1.61,3.11,3.11,0,0,0,.56.83,9.09,9.09,0,0,0,4,2.56,29.36,29.36,0,0,0,4.11,1.32,14.42,14.42,0,0,0,5.63-.1c.55-.12,1.27-.9,1.77-1.17a23.63,23.63,0,0,0,2.12-1.79c1.88-1.44,4-1.54,5.54-2.09C113.44,202.09,109.73,200.36,105,198.62Zm7.73,4.19c-.46.1-4.46.67-5.81,1.71a4.42,4.42,0,0,1-3.44.56,16.32,16.32,0,0,1-6-2.36c-1.8-1.75-1.29-3.32-4.8-6.2,0,0-.63-1.25.55-.21a28.07,28.07,0,0,0,7.81,4.44,28.41,28.41,0,0,0,9,1.8,14.44,14.44,0,0,0,2.85-.12C113.21,202.44,113.23,202.71,112.77,202.81Z"/><path class="cls-11" d="M110,191.76c-5.06.76-9.26-3.35-10.61-7.22-.57-1.62.17-2.45,1.84-2.13a6.94,6.94,0,0,1,1.55.47,74.27,74.27,0,0,0,11.49,4c.79.21,1.69.4,1.87,1.34s-.64,1.52-1.35,2A8.43,8.43,0,0,1,110,191.76Z"/><path class="cls-1" d="M92.8,141.21c4.43,0,8.94.66,12.8,3.72a11.25,11.25,0,0,1,.94.89,1.29,1.29,0,0,1,.41,1.47c-.32.65-.94.34-1.44.18q-2.46-.79-4.91-1.64c-5.77-2-11.28-.93-16.68,1.44a9.9,9.9,0,0,1-1.83.63c-.43.11-1,.36-1.32-.19s.07-1,.33-1.35a8.7,8.7,0,0,1,3.51-2.8A22.12,22.12,0,0,1,92.8,141.21Z"/><path class="cls-1" d="M153.51,170.15c.08,1.2.31,2.46-.65,2.74s-1.34-1-1.74-1.78c-1-1.86-1.92-3.76-3.11-5.52a21.19,21.19,0,0,0-10.5-7.83c-1.07-.4-2.12-.83-3.16-1.29-.44-.19-1-.45-.89-1s.68-.75,1.23-.84a9.48,9.48,0,0,1,4.49.36c7.1,2.27,11.9,6.86,14.12,14A8.63,8.63,0,0,1,153.51,170.15Z"/></g></svg>