<svg xmlns="http://www.w3.org/2000/svg" xmlns:xlink="http://www.w3.org/1999/xlink" width="1024" height="600" viewBox="0 0 1024 600">
  <defs>
    <style>
      .cls-1, .cls-22, .cls-37 {
        fill: none;
      }

      .cls-2 {
        fill: url(#linear-gradient);
      }

      .cls-3 {
        clip-path: url(#clip-path);
      }

      .cls-4 {
        fill: #38a4fc;
      }

      .cls-5 {
        fill: #73c9fe;
      }

      .cls-6 {
        fill: #93278f;
      }

      .cls-7 {
        clip-path: url(#clip-path-2);
      }

      .cls-8 {
        fill: #fc9a8d;
      }

      .cls-9 {
        fill: #d4555e;
      }

      .cls-10 {
        fill: #510706;
      }

      .cls-11 {
        clip-path: url(#clip-path-3);
      }

      .cls-12 {
        clip-path: url(#clip-path-4);
      }

      .cls-13 {
        clip-path: url(#clip-path-5);
      }

      .cls-14 {
        clip-path: url(#clip-path-6);
      }

      .cls-15 {
        clip-path: url(#clip-path-7);
      }

      .cls-16 {
        clip-path: url(#clip-path-8);
      }

      .cls-17 {
        clip-path: url(#clip-path-9);
      }

      .cls-18, .cls-21 {
        fill: #2f009a;
      }

      .cls-19 {
        fill: #fff;
      }

      .cls-20 {
        fill: #231f20;
      }

      .cls-21, .cls-22, .cls-36, .cls-37 {
        stroke: #a81307;
        stroke-linecap: round;
        stroke-linejoin: round;
      }

      .cls-21 {
        stroke-width: 0.62px;
      }

      .cls-22 {
        stroke-width: 1.25px;
      }

      .cls-23 {
        clip-path: url(#clip-path-10);
      }

      .cls-24 {
        fill: #fa4316;
      }

      .cls-25 {
        fill: #f7931e;
      }

      .cls-26 {
        clip-path: url(#clip-path-11);
      }

      .cls-27 {
        fill: #f15a24;
      }

      .cls-28 {
        clip-path: url(#clip-path-12);
      }

      .cls-29 {
        clip-path: url(#clip-path-13);
      }

      .cls-30 {
        clip-path: url(#clip-path-14);
      }

      .cls-31 {
        clip-path: url(#clip-path-15);
      }

      .cls-32 {
        clip-path: url(#clip-path-16);
      }

      .cls-33 {
        clip-path: url(#clip-path-17);
      }

      .cls-34 {
        clip-path: url(#clip-path-18);
      }

      .cls-35, .cls-36 {
        fill: #a81307;
      }

      .cls-36 {
        stroke-width: 0.32px;
      }

      .cls-37 {
        stroke-width: 0.87px;
      }

      .cls-38 {
        clip-path: url(#clip-path-19);
      }

      .cls-39 {
        fill: #8bd6fc;
      }

      .cls-40 {
        fill: #5ea8ff;
      }

      .cls-41 {
        clip-path: url(#clip-path-20);
      }

      .cls-42 {
        fill: #e61e0c;
      }

      .cls-43 {
        fill: #a31508;
      }

      .cls-44 {
        fill: #fcee21;
      }

      .cls-45 {
        fill: #c61a0a;
      }

      .cls-46 {
        fill: #ff2127;
      }

      .cls-47 {
        fill: #2674cf;
      }

      .cls-48 {
        fill: #d3b05f;
      }

      .cls-49 {
        fill: #2c2e7a;
      }

      .cls-50 {
        fill: #2fb34c;
      }

      .cls-51 {
        fill: #f16939;
      }

      .cls-52 {
        fill: #4c90cd;
      }

      .cls-53 {
        fill: #c6a459;
      }

      .cls-54 {
        fill: #8b683d;
      }

      .cls-55 {
        fill: #dfbc6d;
      }

      .cls-56 {
        fill: #b8b282;
      }

      .cls-57 {
        fill: #4c3422;
      }

      .cls-58 {
        fill: #cca348;
      }

      .cls-59 {
        clip-path: url(#clip-path-21);
      }

      .cls-60 {
        fill: #d3b266;
      }

      .cls-61 {
        fill: #040404;
      }

      .cls-62 {
        fill: #fde3ba;
      }

      .cls-63 {
        fill: #600b0c;
      }

      .cls-64 {
        fill: #d42027;
      }

      .cls-65 {
        fill: #4e2a21;
      }

      .cls-66 {
        fill: #bc9c39;
      }
    </style>
    <linearGradient id="linear-gradient" x1="512" y1="585.67" x2="512" y2="-195.88" gradientUnits="userSpaceOnUse">
      <stop offset="0" stop-color="#fff"/>
      <stop offset="0.38" stop-color="#9be9ff"/>
      <stop offset="0.81" stop-color="#31d1ff"/>
      <stop offset="1" stop-color="#07c7ff"/>
    </linearGradient>
    <clipPath id="clip-path">
      <rect id="SVGID" class="cls-1" width="1024" height="600"/>
    </clipPath>
    <clipPath id="clip-path-2">
      <path id="SVGID-2" data-name="SVGID" class="cls-1" d="M421.3,499.56c2.54-2.18,2-6.79-1.41-7.78s.14-6.57,7.91-4.24,23.4,15.41,4,29.46-59-8.27-71.56-18.91c-8.22-6-72,.33-64.57-23,0,0,12.85-17.47,31.73-12.28"/>
    </clipPath>
    <clipPath id="clip-path-3">
      <path id="SVGID-3" data-name="SVGID" class="cls-1" d="M402.53,532.74c2.93-1.62,3.31-6.25.18-7.91s1.46-6.41,8.6-2.56,19.82,19.8-2,29.67S353.19,532,343.06,519c-6.84-7.55-70.61-14.18-58.61-35.57,0,0,16.11-14.53,33.56-5.64"/>
    </clipPath>
    <clipPath id="clip-path-4">
      <path id="SVGID-4" data-name="SVGID" class="cls-1" d="M371.1,568.53c3.3-.6,5.14-4.87,2.7-7.43s3.43-5.6,9,.33,12.44,25.1-11.35,27.48S324.6,552,319.15,536.5c-4.06-9.34-62.37-36-44.15-52.45,0,0,19.91-8.61,33.6,5.39"/>
    </clipPath>
    <clipPath id="clip-path-5">
      <path id="SVGID-5" data-name="SVGID" class="cls-1" d="M317.24,600.65c3.21.95,6.78-2,5.76-5.42s5.59-3.46,7.86,4.33-.19,28-22.51,19.42-25.18-54-23.07-70.33c.58-10.17-39.47-60.25-15.8-66.71,0,0,21.65,1.28,27.57,19.94"/>
    </clipPath>
    <clipPath id="clip-path-6">
      <path id="SVGID-6" data-name="SVGID" class="cls-1" d="M103.26,496.16c-2.46-2.28-1.72-6.86,1.71-7.72s.11-6.57-7.74-4.53-24,14.51-5.16,29.28,59.3-6,72.22-16.2c8.44-5.71,72,3,65.39-20.59,0,0-12.18-17.94-31.25-13.47"/>
    </clipPath>
    <clipPath id="clip-path-7">
      <path id="SVGID-7" data-name="SVGID" class="cls-1" d="M124.42,535.9c-3-1.57-3.42-6.2-.32-7.9s-1.57-6.38-8.64-2.41S96,545.73,117.94,555.21s55.8-21,65.7-34.09c6.71-7.67,70.36-15.41,58-36.59,0,0-16.36-14.24-33.65-5.05"/>
    </clipPath>
    <clipPath id="clip-path-8">
      <path id="SVGID-8" data-name="SVGID" class="cls-1" d="M160.29,574.52c-3.33-.4-5.42-4.55-3.14-7.26s-3.76-5.39-8.93.86-10.92,25.8,13,26.75,44.53-39.63,49-55.43c3.5-9.57,60.11-39.68,40.94-55,0,0-20.38-7.41-33.21,7.39"/>
    </clipPath>
    <clipPath id="clip-path-9">
      <path id="SVGID-9" data-name="SVGID" class="cls-1" d="M218.06,604.35c-3.12,1.21-6.92-1.47-6.19-4.93s-5.85-3-7.48,5,2.49,27.9,24,17.51,20.66-55.91,17.22-72c-1.41-10.09,34.39-63.29,10.28-67.78,0,0-21.47,3-25.84,22.14"/>
    </clipPath>
    <clipPath id="clip-path-10">
      <path id="SVGID-10" data-name="SVGID" class="cls-1" d="M236.51,454.38a51.69,51.69,0,0,0,50.8-1.5S263.21,497.69,236.51,454.38Z"/>
    </clipPath>
    <clipPath id="clip-path-11">
      <path id="SVGID-11" data-name="SVGID" class="cls-1" d="M812.23,493.41a2.21,2.21,0,0,0-1.14-3.64c-1.69-.27-.32-3.15,3.54-2.5s12.12,6,3.68,13.87-28.76-.48-35.39-4.84c-4.29-2.4-34.48,4.4-32.29-7.23,0,0,5.13-9.13,14.48-7.75"/>
    </clipPath>
    <clipPath id="clip-path-12">
      <path id="SVGID-12" data-name="SVGID" class="cls-1" d="M799,516.16a2.21,2.21,0,0,0-.07-3.82c-1.54-.73.57-3.12,4.09-1.41s10,9.14-.34,14.35-27.49-8.49-32.63-14.52c-3.45-3.5-34.34-5.39-29-16,0,0,7.47-7.33,16.06-3.41"/>
    </clipPath>
    <clipPath id="clip-path-13">
      <path id="SVGID-13" data-name="SVGID" class="cls-1" d="M780.45,536.29a2.21,2.21,0,0,0,1.06-3.67c-1.26-1.16,1.47-2.81,4.33-.14s6.82,11.68-4.56,13.61-23.76-16.22-26.89-23.51c-2.26-4.36-31.22-15.29-23-23.8,0,0,9.3-4.8,16.35,1.49"/>
    </clipPath>
    <clipPath id="clip-path-14">
      <path id="SVGID-14" data-name="SVGID" class="cls-1" d="M751.65,555a2.21,2.21,0,0,0,2.79-2.61c-.49-1.64,2.7-1.66,3.79,2.1s-.13,13.52-10.89,9.34-12.08-26.11-11-34c.29-4.91-19-29.13-7.53-32.22,0,0,10.45.65,13.28,9.66"/>
    </clipPath>
    <clipPath id="clip-path-15">
      <path id="SVGID-15" data-name="SVGID" class="cls-1" d="M639.19,497.64a2.21,2.21,0,0,1,1-3.7c1.67-.35.17-3.17-3.65-2.32s-11.81,6.57-3,14,28.71-1.86,35.12-6.53c4.17-2.6,34.65,2.75,31.9-8.77,0,0-5.56-8.87-14.83-7.05"/>
    </clipPath>
    <clipPath id="clip-path-16">
      <path id="SVGID-16" data-name="SVGID" class="cls-1" d="M655,522.83a2.21,2.21,0,0,1-.32-3.8c1.46-.89-.89-3-4.22-1s-9,10.13,1.82,14.23,26.46-11.29,31-17.83c3.07-3.84,33.6-8.92,27.18-18.87,0,0-8.19-6.52-16.33-1.72"/>
    </clipPath>
    <clipPath id="clip-path-17">
      <path id="SVGID-17" data-name="SVGID" class="cls-1" d="M674.49,540.52a2.21,2.21,0,0,1-1.36-3.57c1.15-1.26-1.7-2.68-4.32.23s-5.81,12.21,5.69,13.17,22.31-18.17,24.82-25.69c1.89-4.54,29.82-17.86,20.9-25.65,0,0-9.67-4-16.17,2.86"/>
    </clipPath>
    <clipPath id="clip-path-18">
      <path id="SVGID-18" data-name="SVGID" class="cls-1" d="M708.11,557.56a2.21,2.21,0,0,1-3.12-2.2c.26-1.69-2.9-1.27-3.46,2.6s2,13.37,12.07,7.76,8.37-27.52,6.26-35.17c-1-4.82,14.78-31.46,3-32.95,0,0-10.26,2.08-11.82,11.4"/>
    </clipPath>
    <clipPath id="clip-path-19">
      <path id="SVGID-19" data-name="SVGID" class="cls-1" d="M707.4,476.29A36.08,36.08,0,0,0,742.86,475S726.22,506.41,707.4,476.29Z"/>
    </clipPath>
    <clipPath id="clip-path-20">
      <path id="SVGID-20" data-name="SVGID" class="cls-1" d="M345.18,225.43h0a1.67,1.67,0,0,1,1.66-1.67h3.78a1.67,1.67,0,0,1,1,.31l8.15,5.75a1.67,1.67,0,0,1,.51,2.14l-9.88,18.75a1.65,1.65,0,0,1-1.25.87c-8.77,1.18-83.41,10.86-111.87,1.76-26.3-8.42-28.62-36.65-28.78-43.88a1.66,1.66,0,0,1,1.66-1.7h5.17A1.67,1.67,0,0,1,217,209.4v2.29a1.67,1.67,0,0,0,1.71,1.66l107.77-2.76a1.67,1.67,0,0,1,.76.16l7.2,3.45a1.67,1.67,0,0,1,.95,1.5l0,6.44a1.67,1.67,0,0,0,.91,1.48l6.43,3.3A1.67,1.67,0,0,0,345.18,225.43Z"/>
    </clipPath>
    <clipPath id="clip-path-21">
      <path id="SVGID-21" data-name="SVGID" class="cls-1" d="M278.29,182.74a4.39,4.39,0,0,1-.46.93,22.24,22.24,0,0,0-1.11,3,19.71,19.71,0,0,1-1.18,2.94,4.77,4.77,0,0,0-.53,2.42c0,.16.09.35-.06.5-2-1-3.58-2.42-4.06-4.69a5.91,5.91,0,0,1,1.63-5.74,3.34,3.34,0,0,1,4.3-.38C277.31,182.07,277.8,182.41,278.29,182.74Z"/>
    </clipPath>
  </defs>
  <title>18_bobbing_togethe</title>
  <g id="character">
    <rect class="cls-2" width="1024" height="588"/>
    <g class="cls-3">
      <g>
        <path class="cls-4" d="M843.42,203.95c-96.92-7.82-151.64,42.21-259.51,15.63S401,199.26,274.39,225.83,88.35,218,.81,211.76c-8.29-.59-16.56-.83-24.85-.81V369.87l1048-33.62V225C976.66,219.1,897.78,208.33,843.42,203.95Z"/>
        <path class="cls-5" d="M982.41,307.3c-75,0-94.67-57.61-169.63-57.61s-108.48,51-171.6,52.67S552.42,243.11,475.5,248s-118.34,60.9-191.32,56-86.79-52.67-157.79-54.32c-21.82-.51-113.64,3.81-128.26,10V359.91c282.37,1.43,749.89,3.71,1099.4,6.82V255.8C1062.35,274.51,1036,307.3,982.41,307.3Z"/>
        <path class="cls-4" d="M890.39,328.71c-55.32,1.49-116.63,22.4-152.51,20.91s-82.24-22.4-130.08-22.4-104.67,19.42-146.53,20.91-91.21-17.92-143.54-19.42S240,343.65,186.14,348.13s-79.25-25.39-148-20.91a568.69,568.69,0,0,0-60.1,6.7V505.7l1046-56.54v-105C984,339.73,931.58,327.6,890.39,328.71Z"/>
        <path class="cls-5" d="M939,385.36c-67.06,0-88.76,64.2-163.71,64.2s-94.67-57.61-169.63-57.61S497.15,443,434,444.62s-88.76-59.26-165.68-54.32S150,451.2,77,446.26c-46.88-3.17-90.32-24-119.21-38.93v98.53L1024,517V402.48C1003.85,392.83,961.84,385.36,939,385.36Z"/>
        <g>
          <g>
            <g>
              <path class="cls-6" d="M295.72,475s12.85-17.47,31.73-12.28,19.75,1.94,35.17,8.08c18.06,7.19,36.06,39,58.68,28.71,2.54-2.18,2-6.79-1.41-7.78s.14-6.57,7.91-4.24,23.4,15.41,4,29.46-59-8.27-71.56-18.91C352.07,492.07,288.26,498.42,295.72,475Z"/>
              <g class="cls-7">
                <path class="cls-8" d="M447.15,504.38s-9.86,19-41.11,8.27-60.57-47.86-116-22.87c0,0,56.64,15.58,59.87,15.18S425.55,553.8,447.15,504.38Z"/>
              </g>
              <g>
                <g>
                  <circle class="cls-9" cx="426.26" cy="519.88" r="4.56" transform="translate(-178.19 225.58) rotate(-24.69)"/>
                  <circle class="cls-10" cx="424.79" cy="520.4" r="2.79" transform="translate(-178.54 225.01) rotate(-24.69)"/>
                </g>
                <g>
                  <circle class="cls-9" cx="400.36" cy="518.93" r="4.56" transform="translate(-180.16 214.67) rotate(-24.69)"/>
                  <circle class="cls-10" cx="398.89" cy="519.45" r="2.79" transform="translate(-180.51 214.11) rotate(-24.69)"/>
                </g>
                <g>
                  <circle class="cls-9" cx="373.4" cy="507.46" r="4.56" transform="translate(-177.84 202.37) rotate(-24.69)"/>
                  <circle class="cls-10" cx="371.93" cy="507.98" r="2.79" transform="translate(-178.19 201.8) rotate(-24.69)"/>
                </g>
                <g>
                  <circle class="cls-9" cx="351.75" cy="496.22" r="4.56" transform="translate(-175.12 192.29) rotate(-24.69)"/>
                  <circle class="cls-10" cx="350.28" cy="496.74" r="2.79" transform="translate(-175.47 191.73) rotate(-24.69)"/>
                </g>
                <g>
                  <circle class="cls-9" cx="327.87" cy="493.58" r="4.56" transform="translate(-176.2 182.08) rotate(-24.69)"/>
                  <circle class="cls-10" cx="326.4" cy="494.1" r="2.79" transform="translate(-176.55 181.51) rotate(-24.69)"/>
                </g>
              </g>
            </g>
            <g>
              <path class="cls-6" d="M284.46,483.44s16.11-14.53,33.56-5.64,19,5.88,32.83,15c16.25,10.68,27.47,45.41,51.69,39.94,2.93-1.62,3.31-6.25.18-7.91s1.46-6.41,8.6-2.56,19.82,19.8-2,29.67S353.19,532,343.06,519C336.23,511.45,272.45,504.82,284.46,483.44Z"/>
              <g class="cls-11">
                <path class="cls-8" d="M426.88,542.66s-13.48,16.61-41.93-.18-49.69-59.08-109-45.77c0,0,52.35,26.67,55.59,26.93S395.77,586.72,426.88,542.66Z"/>
              </g>
              <g>
                <g>
                  <circle class="cls-9" cx="403.29" cy="553.64" r="4.56" transform="translate(-114.76 105.55) rotate(-13.07)"/>
                  <circle class="cls-10" cx="401.75" cy="553.86" r="2.79" transform="translate(-114.85 105.2) rotate(-13.07)"/>
                </g>
                <g>
                  <circle class="cls-9" cx="378.11" cy="547.49" r="4.56" transform="translate(-114.02 99.7) rotate(-13.07)"/>
                  <circle class="cls-10" cx="376.57" cy="547.71" r="2.79" transform="translate(-114.11 99.35) rotate(-13.07)"/>
                </g>
                <g>
                  <circle class="cls-9" cx="354.02" cy="530.83" r="4.56" transform="translate(-110.88 93.81) rotate(-13.07)"/>
                  <circle class="cls-10" cx="352.48" cy="531.05" r="2.79" transform="translate(-110.97 93.47) rotate(-13.07)"/>
                </g>
                <g>
                  <circle class="cls-9" cx="335.07" cy="515.46" r="4.56" transform="translate(-107.89 89.13) rotate(-13.07)"/>
                  <circle class="cls-10" cx="333.53" cy="515.67" r="2.79" transform="translate(-107.98 88.79) rotate(-13.07)"/>
                </g>
                <g>
                  <circle class="cls-9" cx="312.22" cy="508.06" r="4.56" transform="translate(-106.81 83.77) rotate(-13.07)"/>
                  <circle class="cls-10" cx="310.67" cy="508.27" r="2.79" transform="translate(-106.9 83.43) rotate(-13.07)"/>
                </g>
              </g>
            </g>
            <g>
              <path class="cls-6" d="M275,484.06s19.91-8.61,33.6,5.39,16.08,11.63,26.31,24.71c12,15.31,11.5,51.82,36.2,54.38,3.3-.6,5.14-4.87,2.7-7.43s3.43-5.6,9,.33,12.44,25.1-11.35,27.48S324.6,552,319.15,536.5C315.09,527.16,256.78,500.48,275,484.06Z"/>
              <g class="cls-12">
                <path class="cls-8" d="M391,585.72s-18.08,11.42-39.67-13.58-28.18-71.86-88.68-78.24c0,0,41.07,42,44.05,43.3S347.43,617.52,391,585.72Z"/>
              </g>
              <g>
                <g>
                  <circle class="cls-9" cx="365.14" cy="588.58" r="4.56" transform="translate(-256.17 894.74) rotate(-84.42)"/>
                  <circle class="cls-10" cx="363.61" cy="588.29" r="2.79" transform="translate(-257.26 892.95) rotate(-84.42)"/>
                </g>
                <g>
                  <circle class="cls-9" cx="343.25" cy="574.7" r="4.56" transform="translate(-262.12 860.42) rotate(-84.42)"/>
                  <circle class="cls-10" cx="341.72" cy="574.41" r="2.79" transform="matrix(0.1, -1, 1, 0.1, -263.21, 858.64)"/>
                </g>
                <g>
                  <circle class="cls-9" cx="325.75" cy="551.21" r="4.56" transform="translate(-254.53 821.8) rotate(-84.42)"/>
                  <circle class="cls-10" cx="324.22" cy="550.92" r="2.79" transform="translate(-255.63 820.01) rotate(-84.42)"/>
                </g>
                <g>
                  <circle class="cls-9" cx="312.72" cy="530.58" r="4.56" transform="translate(-245.77 790.21) rotate(-84.42)"/>
                  <circle class="cls-10" cx="311.19" cy="530.29" r="2.79" transform="translate(-246.86 788.42) rotate(-84.42)"/>
                </g>
                <g>
                  <circle class="cls-9" cx="293.43" cy="516.26" r="4.56" transform="translate(-248.93 758.08) rotate(-84.42)"/>
                  <circle class="cls-10" cx="291.9" cy="515.97" r="2.79" transform="translate(-250.02 756.29) rotate(-84.42)"/>
                </g>
              </g>
            </g>
            <g>
              <path class="cls-6" d="M269.48,481.95s21.65,1.28,27.57,19.94,9.12,17.63,12.36,33.91c3.8,19.07-13.06,51.44,7.84,64.85,3.21.95,6.78-2,5.76-5.42s5.59-3.46,7.86,4.33-.19,28-22.51,19.42-25.18-54-23.07-70.33C285.86,538.48,245.82,488.41,269.48,481.95Z"/>
              <g class="cls-13">
                <path class="cls-8" d="M327.27,625S306,627,298,595s7.2-76.86-43.94-109.79c0,0,17.75,56,19.84,58.5S274.05,633.73,327.27,625Z"/>
              </g>
              <g>
                <g>
                  <circle class="cls-9" cx="289.6" cy="593.61" r="4.56" transform="matrix(0.54, -0.84, 0.84, 0.54, -366.85, 520.67)"/>
                  <circle class="cls-10" cx="288.36" cy="592.67" r="2.79" transform="translate(-366.62 519.19) rotate(-57.65)"/>
                </g>
                <g>
                  <circle class="cls-9" cx="284.55" cy="564.76" r="4.56" transform="translate(-344.82 502.99) rotate(-57.65)"/>
                  <circle class="cls-10" cx="283.31" cy="563.81" r="2.79" transform="translate(-344.59 501.51) rotate(-57.65)"/>
                </g>
                <g>
                  <circle class="cls-9" cx="282.2" cy="540.47" r="4.56" transform="translate(-325.39 489.72) rotate(-57.65)"/>
                  <circle class="cls-10" cx="280.97" cy="539.52" r="2.79" transform="translate(-325.16 488.23) rotate(-57.65)"/>
                </g>
                <g>
                  <circle class="cls-9" cx="271.43" cy="519" r="4.56" transform="translate(-312.26 470.63) rotate(-57.65)"/>
                  <circle class="cls-10" cx="270.19" cy="518.05" r="2.79" transform="matrix(0.54, -0.84, 0.84, 0.54, -312.03, 469.14)"/>
                </g>
              </g>
            </g>
            <g>
              <path class="cls-6" d="M229.67,476.4s-12.18-17.94-31.25-13.47-19.81,1.2-35.45,6.75c-18.32,6.5-37.5,37.56-59.72,26.48-2.46-2.28-1.72-6.86,1.71-7.72s.11-6.57-7.74-4.53-24,14.51-5.16,29.28,59.3-6,72.22-16.2C172.72,491.28,236.24,500,229.67,476.4Z"/>
              <g class="cls-14">
                <path class="cls-8" d="M77.24,500s9.14,19.34,40.77,9.82,62.33-45.54,116.8-18.48c0,0-57.19,13.43-60.4,12.92S97,550.19,77.24,500Z"/>
              </g>
              <g>
                <g>
                  <circle class="cls-9" cx="97.54" cy="516.28" r="4.56" transform="translate(-407.13 370.12) rotate(-63.15)"/>
                  <circle class="cls-10" cx="98.99" cy="516.85" r="2.79" transform="translate(-406.85 371.73) rotate(-63.15)"/>
                </g>
                <g>
                  <circle class="cls-9" cx="123.45" cy="516.3" r="4.56" transform="translate(-392.94 393.26) rotate(-63.15)"/>
                  <circle class="cls-10" cx="124.9" cy="516.88" r="2.79" transform="translate(-392.66 394.86) rotate(-63.15)"/>
                </g>
                <g>
                  <circle class="cls-9" cx="150.82" cy="505.86" r="4.56" transform="translate(-368.62 411.95) rotate(-63.15)"/>
                  <circle class="cls-10" cx="152.27" cy="506.43" r="2.79" transform="translate(-368.34 413.56) rotate(-63.15)"/>
                </g>
                <g>
                  <circle class="cls-9" cx="172.89" cy="495.44" r="4.56" transform="translate(-347.22 425.92) rotate(-63.15)"/>
                  <circle class="cls-10" cx="174.34" cy="496.01" r="2.79" transform="translate(-346.94 427.53) rotate(-63.15)"/>
                </g>
                <g>
                  <circle class="cls-9" cx="196.85" cy="493.7" r="4.56" transform="translate(-332.53 446.34) rotate(-63.15)"/>
                  <circle class="cls-10" cx="198.3" cy="494.27" r="2.79" transform="translate(-332.25 447.95) rotate(-63.15)"/>
                </g>
              </g>
            </g>
            <g>
              <path class="cls-6" d="M241.62,484.54S225.26,470.3,208,479.49s-18.85,6.21-32.56,15.57c-16.06,11-26.68,45.89-51,40.84-3-1.57-3.42-6.2-.32-7.9s-1.57-6.38-8.64-2.41S96,545.73,117.94,555.21s55.8-21,65.7-34.09C190.34,513.46,254,505.72,241.62,484.54Z"/>
              <g class="cls-15">
                <path class="cls-8" d="M100.24,546.24s13.77,16.37,41.92-.91,48.65-59.93,108.23-47.66c0,0-51.87,27.57-55.11,27.9S132.12,589.75,100.24,546.24Z"/>
              </g>
              <g>
                <g>
                  <circle class="cls-9" cx="124.03" cy="556.81" r="4.56" transform="translate(-446.41 561.64) rotate(-77.93)"/>
                  <circle class="cls-10" cx="125.57" cy="556.99" r="2.79" transform="translate(-445.37 563.3) rotate(-77.93)"/>
                </g>
                <g>
                  <circle class="cls-9" cx="149.09" cy="550.22" r="4.56" transform="translate(-420.14 580.94) rotate(-77.93)"/>
                  <circle class="cls-10" cx="150.64" cy="550.41" r="2.79" transform="translate(-419.1 582.6) rotate(-77.93)"/>
                </g>
                <g>
                  <circle class="cls-9" cx="172.89" cy="533.14" r="4.56" transform="translate(-384.62 590.71) rotate(-77.93)"/>
                  <circle class="cls-10" cx="174.44" cy="533.33" r="2.79" transform="translate(-383.58 592.37) rotate(-77.93)"/>
                </g>
                <g>
                  <circle class="cls-9" cx="191.57" cy="517.44" r="4.56" transform="translate(-354.49 596.55) rotate(-77.93)"/>
                  <circle class="cls-10" cx="193.11" cy="517.62" r="2.79" transform="translate(-353.45 598.21) rotate(-77.93)"/>
                </g>
                <g>
                  <circle class="cls-9" cx="214.29" cy="509.64" r="4.56" transform="matrix(0.21, -0.98, 0.98, 0.21, -328.9, 612.61)"/>
                  <circle class="cls-10" cx="215.84" cy="509.83" r="2.79" transform="translate(-327.86 614.27) rotate(-77.93)"/>
                </g>
              </g>
            </g>
            <g>
              <path class="cls-6" d="M251.18,484.46S230.8,477,218,491.84s-15.36,12.57-24.78,26.23c-11,16-8.39,52.41-32.89,56.44-3.33-.4-5.42-4.55-3.14-7.26s-3.76-5.39-8.93.86-10.92,25.8,13,26.75,44.53-39.63,49-55.43C213.74,529.88,270.35,499.76,251.18,484.46Z"/>
              <g class="cls-16">
                <path class="cls-8" d="M141.45,592.86s18.73,10.32,38.79-15.92,23.84-73.42,83.85-83.39c0,0-38.49,44.38-41.39,45.85S186.84,622,141.45,592.86Z"/>
              </g>
              <g>
                <g>
                  <circle class="cls-9" cx="167.44" cy="594.17" r="4.56" transform="translate(-90.91 33.52) rotate(-9)"/>
                  <circle class="cls-10" cx="168.95" cy="593.79" r="2.79" transform="translate(-90.84 33.75) rotate(-9)"/>
                </g>
                <g>
                  <circle class="cls-9" cx="188.46" cy="579.01" r="4.56" transform="translate(-88.28 36.62) rotate(-9)"/>
                  <circle class="cls-10" cx="189.97" cy="578.63" r="2.79" transform="translate(-88.2 36.86) rotate(-9)"/>
                </g>
                <g>
                  <circle class="cls-9" cx="204.53" cy="554.52" r="4.56" transform="translate(-84.25 38.84) rotate(-9)"/>
                  <circle class="cls-10" cx="206.04" cy="554.14" r="2.79" transform="translate(-84.17 39.07) rotate(-9)"/>
                </g>
                <g>
                  <circle class="cls-9" cx="216.31" cy="533.15" r="4.56" transform="translate(-80.76 40.42) rotate(-9)"/>
                  <circle class="cls-10" cx="217.82" cy="532.77" r="2.79" transform="translate(-80.69 40.65) rotate(-9)"/>
                </g>
                <g>
                  <circle class="cls-9" cx="234.71" cy="517.71" r="4.56" transform="translate(-78.12 43.11) rotate(-9)"/>
                  <circle class="cls-10" cx="236.22" cy="517.32" r="2.79" transform="translate(-78.04 43.34) rotate(-9)"/>
                </g>
              </g>
            </g>
            <g>
              <path class="cls-6" d="M255.92,482.13s-21.47,3-25.84,22.14-7.64,18.32-9.54,34.81c-2.22,19.31,17.24,50.2-2.49,65.28-3.12,1.21-6.92-1.47-6.19-4.93s-5.85-3-7.48,5,2.49,27.9,24,17.51,20.66-55.91,17.22-72C244.23,539.82,280,486.62,255.92,482.13Z"/>
              <g class="cls-17">
                <path class="cls-8" d="M210.06,629.4s21.39.3,26.75-32.3-13.48-76,34.79-113c0,0-13.09,57.27-15,59.93S263.82,633.77,210.06,629.4Z"/>
              </g>
              <g>
                <g>
                  <circle class="cls-9" cx="245.04" cy="595.07" r="4.56" transform="translate(-309.09 267.82) rotate(-37.05)"/>
                  <circle class="cls-10" cx="246.19" cy="594.02" r="2.79" transform="translate(-308.22 268.3) rotate(-37.05)"/>
                </g>
                <g>
                  <circle class="cls-9" cx="247.7" cy="565.9" r="4.56" transform="translate(-290.97 263.53) rotate(-37.05)"/>
                  <circle class="cls-10" cx="248.85" cy="564.85" r="2.79" transform="translate(-290.11 264.01) rotate(-37.05)"/>
                </g>
                <g>
                  <circle class="cls-9" cx="248.04" cy="541.5" r="4.56" transform="translate(-276.2 258.81) rotate(-37.05)"/>
                  <circle class="cls-10" cx="249.2" cy="540.45" r="2.79" transform="translate(-275.34 259.29) rotate(-37.05)"/>
                </g>
                <g>
                  <circle class="cls-9" cx="257.02" cy="519.21" r="4.56" transform="translate(-260.96 259.72) rotate(-37.05)"/>
                  <circle class="cls-10" cx="258.18" cy="518.17" r="2.79" transform="translate(-260.1 260.2) rotate(-37.05)"/>
                </g>
              </g>
            </g>
          </g>
          <g>
            <path class="cls-6" d="M266.71,333.34a102.74,102.74,0,0,0-18.76.55c-63.94,6.72-66.25,74.38-56.26,93.26a172.11,172.11,0,0,0,11.81,19.09,16.34,16.34,0,0,0,8.84,26.47C214,484.46,239,487.39,256.5,487.49c1.57,0,3.38,0,5.36-.06s3.79-.15,5.35-.26c17.3-1.13,41.8-5.45,43.18-17a16.34,16.34,0,0,0,7.53-28.66c3.1-5.12,6.78-10.87,10.44-18.38C337.68,404,330.86,338.21,266.71,333.34Z"/>
            <g>
              <g>
                <circle class="cls-18" cx="238.43" cy="423.38" r="19.3" transform="translate(-12.36 7.2) rotate(-1.69)"/>
                <circle class="cls-19" cx="238.48" cy="424.88" r="16.99" transform="translate(-12.41 7.21) rotate(-1.69)"/>
                <circle class="cls-20" cx="238.48" cy="424.88" r="13.4" transform="translate(-12.41 7.21) rotate(-1.69)"/>
                <circle class="cls-19" cx="244" cy="418.65" r="5.05" transform="translate(-12.22 7.37) rotate(-1.69)"/>
              </g>
              <g>
                <circle class="cls-18" cx="284.85" cy="422.01" r="19.3" transform="translate(-12.3 8.57) rotate(-1.69)"/>
                <circle class="cls-19" cx="284.89" cy="423.51" r="16.99" transform="translate(-12.35 8.57) rotate(-1.69)"/>
                <circle class="cls-20" cx="284.89" cy="423.51" r="13.4" transform="translate(-12.35 8.57) rotate(-1.69)"/>
                <circle class="cls-19" cx="290.41" cy="417.28" r="5.05" transform="translate(-12.16 8.73) rotate(-1.69)"/>
              </g>
              <g>
                <path class="cls-21" d="M236.51,454.38a51.69,51.69,0,0,0,50.8-1.5S263.21,497.69,236.51,454.38Z"/>
                <path class="cls-22" d="M231.66,454.93a6.34,6.34,0,0,0,7.91-4"/>
                <path class="cls-22" d="M292.76,453.13a6.34,6.34,0,0,1-8.13-3.49"/>
                <g class="cls-23">
                  <path class="cls-24" d="M252.86,474s-.59-6.14,3.75-6.27,5.05,2.31,5.05,2.31.56-2.83,5.31-3,4.31,8.91,4.31,8.91Z"/>
                </g>
              </g>
              <path class="cls-21" d="M225.88,392.16l20.74-.61S236,383.56,225.88,392.16Z"/>
              <path class="cls-21" d="M274.27,390.73l20.74-.61S284.39,382.13,274.27,390.73Z"/>
            </g>
          </g>
        </g>
        <g>
          <g>
            <path class="cls-25" d="M750.63,489.07s5.13-9.13,14.48-7.75,9.57-.23,17.32,1.8c9.08,2.38,19.57,16.53,29.8,10.3a2.21,2.21,0,0,0-1.14-3.64c-1.69-.27-.32-3.15,3.54-2.5s12.12,6,3.68,13.87-28.76-.48-35.39-4.84C778.63,493.9,748.44,500.7,750.63,489.07Z"/>
            <g class="cls-26">
              <path class="cls-27" d="M824.9,494.19s-3.6,9.67-19.2,6.39-31.83-19.35-56.92-4.12c0,0,28.05,4.12,29.57,3.75S817.47,519.14,824.9,494.19Z"/>
            </g>
            <g>
              <g>
                <circle class="cls-9" cx="815.8" cy="502.85" r="2.2" transform="translate(-142.52 503.77) rotate(-31.7)"/>
                <circle class="cls-10" cx="815.13" cy="503.19" r="1.35" transform="translate(-142.8 503.46) rotate(-31.7)"/>
              </g>
              <g>
                <circle class="cls-9" cx="803.34" cy="503.92" r="2.2" transform="translate(-144.95 497.38) rotate(-31.7)"/>
                <circle class="cls-10" cx="802.67" cy="504.26" r="1.35" transform="translate(-145.22 497.07) rotate(-31.7)"/>
              </g>
              <g>
                <circle class="cls-9" cx="789.75" cy="500.02" r="2.2" transform="translate(-144.92 489.65) rotate(-31.7)"/>
                <circle class="cls-10" cx="789.08" cy="500.35" r="1.35" transform="translate(-145.2 489.35) rotate(-31.7)"/>
              </g>
              <g>
                <circle class="cls-9" cx="778.72" cy="495.91" r="2.2" transform="translate(-144.41 483.24) rotate(-31.7)"/>
                <circle class="cls-10" cx="778.05" cy="496.24" r="1.35" transform="translate(-144.69 482.94) rotate(-31.7)"/>
              </g>
              <g>
                <circle class="cls-9" cx="767.12" cy="496.05" r="2.2" transform="translate(-146.21 477.17) rotate(-31.7)"/>
                <circle class="cls-10" cx="766.45" cy="496.38" r="1.35" transform="translate(-146.49 476.87) rotate(-31.7)"/>
              </g>
            </g>
          </g>
          <g>
            <path class="cls-25" d="M741.09,494.8s7.47-7.33,16.06-3.41,9.26,2.45,16.14,6.56c8.05,4.82,14.18,21.34,25.74,18.2a2.21,2.21,0,0,0-.07-3.82c-1.54-.73.57-3.12,4.09-1.41s10,9.14-.34,14.35-27.49-8.49-32.63-14.52C766.63,507.25,735.74,505.36,741.09,494.8Z"/>
            <g class="cls-28">
              <path class="cls-27" d="M811,520.44s-6.16,8.28-20.22.77-25.17-27.47-53.51-19.83c0,0,25.79,11.79,27.35,11.85S796.88,542.32,811,520.44Z"/>
            </g>
            <g>
              <g>
                <circle class="cls-9" cx="799.83" cy="526.22" r="2.2" transform="translate(-111.55 232.94) rotate(-15.5)"/>
                <circle class="cls-10" cx="799.09" cy="526.35" r="1.35" transform="translate(-111.62 232.74) rotate(-15.5)"/>
              </g>
              <g>
                <circle class="cls-9" cx="787.57" cy="523.77" r="2.2" transform="translate(-111.34 229.57) rotate(-15.5)"/>
                <circle class="cls-10" cx="786.83" cy="523.9" r="1.35" transform="translate(-111.41 229.38) rotate(-15.5)"/>
              </g>
              <g>
                <circle class="cls-9" cx="775.61" cy="516.23" r="2.2" transform="translate(-109.76 226.1) rotate(-15.5)"/>
                <circle class="cls-10" cx="774.87" cy="516.36" r="1.35" transform="translate(-109.83 225.9) rotate(-15.5)"/>
              </g>
              <g>
                <circle class="cls-9" cx="766.16" cy="509.2" r="2.2" transform="translate(-108.23 223.32) rotate(-15.5)"/>
                <circle class="cls-10" cx="765.42" cy="509.34" r="1.35" transform="matrix(0.96, -0.27, 0.27, 0.96, -108.29, 223.12)"/>
              </g>
              <g>
                <circle class="cls-9" cx="754.98" cy="506.1" r="2.2" transform="translate(-107.81 220.22) rotate(-15.5)"/>
                <circle class="cls-10" cx="754.24" cy="506.24" r="1.35" transform="translate(-107.87 220.02) rotate(-15.5)"/>
              </g>
            </g>
          </g>
          <g>
            <path class="cls-25" d="M731.39,498.79s9.3-4.8,16.35,1.49,8.13,5.07,13.48,11c6.27,7,7.25,24.57,19.22,25a2.21,2.21,0,0,0,1.06-3.67c-1.26-1.16,1.47-2.81,4.33-.14s6.82,11.68-4.56,13.61-23.76-16.22-26.89-23.51C752.11,518.22,723.16,507.3,731.39,498.79Z"/>
            <g class="cls-29">
              <path class="cls-27" d="M790.6,543.91s-8.33,6.1-19.55-5.23S755.1,505,725.77,503.94c0,0,21.16,18.87,22.64,19.39S770.67,560.66,790.6,543.91Z"/>
            </g>
            <g>
              <g>
                <circle class="cls-9" cx="778.24" cy="546.14" r="2.2" transform="translate(209.75 1308.21) rotate(-88.34)"/>
                <circle class="cls-10" cx="777.49" cy="546.05" r="1.35" transform="translate(209.11 1307.37) rotate(-88.34)"/>
              </g>
              <g>
                <circle class="cls-9" cx="767.24" cy="540.18" r="2.2" transform="translate(205.03 1291.43) rotate(-88.34)"/>
                <circle class="cls-10" cx="766.49" cy="540.09" r="1.35" transform="translate(204.39 1290.59) rotate(-88.34)"/>
              </g>
              <g>
                <circle class="cls-9" cx="758.04" cy="529.45" r="2.2" transform="translate(206.82 1271.81) rotate(-88.34)"/>
                <circle class="cls-10" cx="757.29" cy="529.36" r="1.35" transform="translate(206.19 1270.97) rotate(-88.34)"/>
              </g>
              <g>
                <circle class="cls-9" cx="751.08" cy="519.95" r="2.2" transform="translate(209.57 1255.63) rotate(-88.34)"/>
                <circle class="cls-10" cx="750.34" cy="519.86" r="1.35" transform="translate(208.93 1254.79) rotate(-88.34)"/>
              </g>
              <g>
                <circle class="cls-9" cx="741.32" cy="513.69" r="2.2" transform="translate(206.34 1239.8) rotate(-88.34)"/>
                <circle class="cls-10" cx="740.57" cy="513.6" r="1.35" transform="translate(205.71 1238.96) rotate(-88.34)"/>
              </g>
            </g>
          </g>
          <g>
            <path class="cls-25" d="M728.76,497.64s10.45.65,13.28,9.66,4.37,8.52,5.92,16.38c1.81,9.21-6.38,24.81,3.69,31.31a2.21,2.21,0,0,0,2.79-2.61c-.49-1.64,2.7-1.66,3.79,2.1s-.13,13.52-10.89,9.34-12.08-26.11-11-34C736.59,525,717.34,500.73,728.76,497.64Z"/>
            <g class="cls-30">
              <path class="cls-27" d="M756.45,566.75s-10.28,1-14.1-14.52,3.58-37.08-21.05-53c0,0,8.49,27.05,9.49,28.26S730.75,570.9,756.45,566.75Z"/>
            </g>
            <g>
              <g>
                <circle class="cls-9" cx="744.7" cy="562.32" r="2.2" transform="translate(-129.78 888.01) rotate(-57.48)"/>
                <circle class="cls-10" cx="744.1" cy="561.86" r="1.35" transform="translate(-129.67 887.29) rotate(-57.48)"/>
              </g>
              <g>
                <circle class="cls-9" cx="738.31" cy="551.57" r="2.2" transform="translate(-123.66 877.65) rotate(-57.48)"/>
                <circle class="cls-10" cx="737.72" cy="551.11" r="1.35" transform="translate(-123.55 876.93) rotate(-57.48)"/>
              </g>
              <g>
                <circle class="cls-9" cx="735.92" cy="537.63" r="2.2" transform="translate(-113.02 869.19) rotate(-57.48)"/>
                <circle class="cls-10" cx="735.32" cy="537.17" r="1.35" transform="translate(-112.91 868.47) rotate(-57.48)"/>
              </g>
              <g>
                <circle class="cls-9" cx="734.82" cy="525.91" r="2.2" transform="translate(-103.64 862.84) rotate(-57.48)"/>
                <circle class="cls-10" cx="734.23" cy="525.45" r="1.35" transform="translate(-103.53 862.12) rotate(-57.48)"/>
              </g>
              <g>
                <circle class="cls-9" cx="729.65" cy="515.53" r="2.2" transform="matrix(0.54, -0.84, 0.84, 0.54, -97.28, 853.68)"/>
                <circle class="cls-10" cx="729.06" cy="515.07" r="1.35" transform="translate(-97.17 852.96) rotate(-57.48)"/>
              </g>
            </g>
          </g>
          <g>
            <path class="cls-25" d="M700.52,490.36s-5.56-8.87-14.83-7.05-9.57.22-17.22,2.62c-9,2.81-18.75,17.45-29.27,11.71a2.21,2.21,0,0,1,1-3.7c1.67-.35.17-3.17-3.65-2.32s-11.81,6.57-3,14,28.71-1.86,35.12-6.53C672.78,496.52,703.26,501.87,700.52,490.36Z"/>
            <g class="cls-31">
              <path class="cls-27" d="M626.58,499s4.06,9.49,19.49,5.46,30.87-20.85,56.66-6.83c0,0-27.82,5.46-29.36,5.16S635.2,523.59,626.58,499Z"/>
            </g>
            <g>
              <g>
                <circle class="cls-9" cx="636.08" cy="507.24" r="2.2" transform="translate(-115.74 818.14) rotate(-61.04)"/>
                <circle class="cls-10" cx="636.77" cy="507.54" r="1.35" transform="translate(-115.65 818.9) rotate(-61.04)"/>
              </g>
              <g>
                <circle class="cls-9" cx="648.58" cy="507.71" r="2.2" transform="translate(-109.71 829.32) rotate(-61.04)"/>
                <circle class="cls-10" cx="649.27" cy="508.02" r="1.35" transform="translate(-109.62 830.08) rotate(-61.04)"/>
              </g>
              <g>
                <circle class="cls-9" cx="661.96" cy="503.16" r="2.2" transform="translate(-98.82 838.69) rotate(-61.04)"/>
                <circle class="cls-10" cx="662.65" cy="503.47" r="1.35" transform="translate(-98.73 839.45) rotate(-61.04)"/>
              </g>
              <g>
                <circle class="cls-9" cx="672.79" cy="498.53" r="2.2" transform="translate(-89.18 845.77) rotate(-61.04)"/>
                <circle class="cls-10" cx="673.48" cy="498.83" r="1.35" transform="translate(-89.09 846.53) rotate(-61.04)"/>
              </g>
              <g>
                <circle class="cls-9" cx="684.38" cy="498.12" r="2.2" transform="translate(-82.85 855.7) rotate(-61.04)"/>
                <circle class="cls-10" cx="685.07" cy="498.42" r="1.35" transform="translate(-82.76 856.45) rotate(-61.04)"/>
              </g>
            </g>
          </g>
          <g>
            <path class="cls-25" d="M710.37,495.59s-8.19-6.52-16.33-1.72-9,3.39-15.37,8.19c-7.51,5.62-11.89,22.69-23.72,20.77a2.21,2.21,0,0,1-.32-3.8c1.46-.89-.89-3-4.22-1s-9,10.13,1.82,14.23,26.46-11.29,31-17.83C686.26,510.62,716.79,505.54,710.37,495.59Z"/>
            <g class="cls-32">
              <path class="cls-27" d="M643.52,528.33s7,7.6,20.19-1.32,22.19-29.93,51.17-25.27c0,0-24.43,14.39-26,14.62S659.81,548.63,643.52,528.33Z"/>
            </g>
            <g>
              <g>
                <circle class="cls-9" cx="655.21" cy="532.92" r="2.2" transform="translate(20.88 1090.53) rotate(-80.44)"/>
                <circle class="cls-10" cx="655.96" cy="532.98" r="1.35" transform="translate(21.44 1091.31) rotate(-80.44)"/>
              </g>
              <g>
                <circle class="cls-9" cx="667.15" cy="529.21" r="2.2" transform="matrix(0.17, -0.99, 0.99, 0.17, 34.49, 1099.22)"/>
                <circle class="cls-10" cx="667.9" cy="529.27" r="1.35" transform="translate(35.06 1100) rotate(-80.44)"/>
              </g>
              <g>
                <circle class="cls-9" cx="678.27" cy="520.48" r="2.2" transform="translate(52.38 1102.89) rotate(-80.44)"/>
                <circle class="cls-10" cx="679.02" cy="520.53" r="1.35" transform="translate(52.95 1103.68) rotate(-80.44)"/>
              </g>
              <g>
                <circle class="cls-9" cx="686.94" cy="512.51" r="2.2" transform="translate(67.47 1104.8) rotate(-80.44)"/>
                <circle class="cls-10" cx="687.69" cy="512.57" r="1.35" transform="translate(68.04 1105.58) rotate(-80.44)"/>
              </g>
              <g>
                <circle class="cls-9" cx="697.73" cy="508.27" r="2.2" transform="translate(80.65 1111.9) rotate(-80.44)"/>
                <circle class="cls-10" cx="698.48" cy="508.33" r="1.35" transform="translate(81.22 1112.69) rotate(-80.44)"/>
              </g>
            </g>
          </g>
          <g>
            <path class="cls-25" d="M720.21,499s-9.67-4-16.17,2.86-7.67,5.74-12.5,12.13c-5.66,7.48-5.15,25.09-17,26.52a2.21,2.21,0,0,1-1.36-3.57c1.15-1.26-1.7-2.68-4.32.23s-5.81,12.21,5.69,13.17,22.31-18.17,24.82-25.69C701.2,520.12,729.13,506.8,720.21,499Z"/>
            <g class="cls-33">
              <path class="cls-27" d="M665,549s8.81,5.37,19-6.86,13-34.9,42.19-38.44c0,0-19.49,20.59-20.92,21.23S686.29,564,665,549Z"/>
            </g>
            <g>
              <g>
                <circle class="cls-9" cx="677.52" cy="550.15" r="2.2" transform="translate(-57.91 80.21) rotate(-6.5)"/>
                <circle class="cls-10" cx="678.26" cy="549.99" r="1.35" transform="translate(-57.89 80.3) rotate(-6.5)"/>
              </g>
              <g>
                <circle class="cls-9" cx="687.98" cy="543.28" r="2.2" transform="translate(-57.07 81.35) rotate(-6.5)"/>
                <circle class="cls-10" cx="688.71" cy="543.13" r="1.35" transform="translate(-57.04 81.44) rotate(-6.5)"/>
              </g>
              <g>
                <circle class="cls-9" cx="696.24" cy="531.81" r="2.2" transform="translate(-55.72 82.22) rotate(-6.5)"/>
                <circle class="cls-10" cx="696.98" cy="531.66" r="1.35" transform="translate(-55.69 82.3) rotate(-6.5)"/>
              </g>
              <g>
                <circle class="cls-9" cx="702.37" cy="521.75" r="2.2" transform="translate(-54.54 82.84) rotate(-6.5)"/>
                <circle class="cls-10" cx="703.11" cy="521.6" r="1.35" transform="translate(-54.52 82.93) rotate(-6.5)"/>
              </g>
              <g>
                <circle class="cls-9" cx="711.57" cy="514.7" r="2.2" transform="translate(-53.68 83.84) rotate(-6.5)"/>
                <circle class="cls-10" cx="712.31" cy="514.54" r="1.35" transform="translate(-53.66 83.92) rotate(-6.5)"/>
              </g>
            </g>
          </g>
          <g>
            <path class="cls-25" d="M722.89,497.6s-10.26,2.08-11.82,11.4-3.16,9-3.61,17c-.52,9.37,9.73,23.7.65,31.52a2.21,2.21,0,0,1-3.12-2.2c.26-1.69-2.9-1.27-3.46,2.6s2,13.37,12.07,7.76,8.37-27.52,6.26-35.17C718.9,525.73,734.64,499.09,722.89,497.6Z"/>
            <g class="cls-34">
              <path class="cls-27" d="M705,569.85s10.31-.46,12-16.32-8.65-36.24,13.56-55.44c0,0-4.69,28-5.52,29.3S731,570.44,705,569.85Z"/>
            </g>
            <g>
              <g>
                <circle class="cls-9" cx="716" cy="563.86" r="2.2" transform="translate(-194.7 598.77) rotate(-40.42)"/>
                <circle class="cls-10" cx="716.53" cy="563.32" r="1.35" transform="translate(-194.22 598.99) rotate(-40.42)"/>
              </g>
              <g>
                <circle class="cls-9" cx="720.85" cy="552.32" r="2.2" transform="translate(-186.06 599.16) rotate(-40.42)"/>
                <circle class="cls-10" cx="721.37" cy="551.79" r="1.35" transform="translate(-185.59 599.38) rotate(-40.42)"/>
              </g>
              <g>
                <circle class="cls-9" cx="721.3" cy="538.19" r="2.2" transform="translate(-176.79 596.09) rotate(-40.42)"/>
                <circle class="cls-10" cx="721.83" cy="537.66" r="1.35" transform="translate(-176.32 596.3) rotate(-40.42)"/>
              </g>
              <g>
                <circle class="cls-9" cx="720.78" cy="526.43" r="2.2" transform="translate(-169.29 592.94) rotate(-40.42)"/>
                <circle class="cls-10" cx="721.31" cy="525.89" r="1.35" transform="translate(-168.82 593.15) rotate(-40.42)"/>
              </g>
              <g>
                <circle class="cls-9" cx="724.47" cy="515.44" r="2.2" transform="translate(-161.29 592.71) rotate(-40.42)"/>
                <circle class="cls-10" cx="725" cy="514.9" r="1.35" transform="translate(-160.81 592.92) rotate(-40.42)"/>
              </g>
            </g>
          </g>
          <g>
            <path class="cls-25" d="M728,391.67a71.72,71.72,0,0,0-13.09.46c-44.61,5-45.94,52.2-38.89,65.33a120.15,120.15,0,0,0,8.32,13.27,11.41,11.41,0,0,0,6.28,18.44c1.19,8.2,18.67,10.14,30.89,10.14,1.09,0,2.36,0,3.74-.06s2.64-.12,3.74-.2c12.07-.86,29.15-4,30.07-12.06a11.41,11.41,0,0,0,5.14-20c2.14-3.58,4.69-7.62,7.21-12.87C777.82,440.68,772.78,394.8,728,391.67Z"/>
            <g>
              <g>
                <circle class="cls-35" cx="708.62" cy="454.64" r="13.47" transform="translate(-15.66 25.38) rotate(-2.03)"/>
                <circle class="cls-19" cx="708.65" cy="455.69" r="11.86" transform="translate(-15.69 25.38) rotate(-2.03)"/>
                <circle class="cls-20" cx="708.65" cy="455.69" r="9.35" transform="translate(-15.69 25.38) rotate(-2.03)"/>
                <circle class="cls-19" cx="712.48" cy="451.31" r="3.53" transform="translate(-15.54 25.52) rotate(-2.03)"/>
              </g>
              <g>
                <circle class="cls-35" cx="741.01" cy="453.5" r="13.47" transform="translate(-15.6 26.53) rotate(-2.03)"/>
                <circle class="cls-19" cx="741.05" cy="454.54" r="11.86" transform="translate(-15.63 26.53) rotate(-2.03)"/>
                <circle class="cls-20" cx="741.05" cy="454.54" r="9.35" transform="translate(-15.63 26.53) rotate(-2.03)"/>
                <circle class="cls-19" cx="744.88" cy="450.17" r="3.53" transform="translate(-15.48 26.66) rotate(-2.03)"/>
              </g>
              <g>
                <path class="cls-36" d="M707.4,476.29A36.08,36.08,0,0,0,742.86,475S726.22,506.41,707.4,476.29Z"/>
                <path class="cls-37" d="M704,476.69a4.43,4.43,0,0,0,5.51-2.8"/>
                <path class="cls-37" d="M746.67,475.18a4.43,4.43,0,0,1-5.69-2.4"/>
                <g class="cls-38">
                  <path class="cls-24" d="M718.9,489.91s-.44-4.28,2.59-4.39,3.54,1.59,3.54,1.59.38-2,3.69-2.1,3,6.2,3,6.2Z"/>
                </g>
              </g>
              <path class="cls-36" d="M699.72,432.9l14.47-.51S706.76,426.85,699.72,432.9Z"/>
              <path class="cls-36" d="M733.5,431.7l14.47-.51S740.53,425.66,733.5,431.7Z"/>
            </g>
          </g>
        </g>
        <path class="cls-4" d="M869.89,485c-55.32.9-116.63,13.51-152.51,12.61s-82.24-13.51-130.09-13.51-104.67,11.71-146.53,12.61S349.55,485.87,297.22,485s-77.75,9-131.58,11.71-79.25-15.32-148-12.61c-18.06.71-5.43,1.61-17.61,2.61V599.84l1024-.06V495C975.93,493.58,916.24,484.22,869.89,485Z"/>
      </g>
    </g>
    <g>
      <path class="cls-39" d="M387.25,504.79s25.95-2.37,17.57-11.56S387.25,504.79,387.25,504.79Z"/>
      <path class="cls-39" d="M424.73,478.29s19.22-4.83,11.85-10.75S424.73,478.29,424.73,478.29Z"/>
      <path class="cls-39" d="M452.73,468.17s25.79-3.73,16.94-12.47S452.73,468.17,452.73,468.17Z"/>
      <path class="cls-39" d="M474.6,470.26s24.46,9,20.83-2.92S474.6,470.26,474.6,470.26Z"/>
      <path class="cls-39" d="M434.94,487.1s26,1.65,19.14-8.72S434.94,487.1,434.94,487.1Z"/>
      <path class="cls-39" d="M470,488.78s15.36,10.72,15,1.79S470,488.78,470,488.78Z"/>
      <path class="cls-39" d="M386.95,461.93s15.3-12.59,6.11-14.78S386.95,461.93,386.95,461.93Z"/>
      <path class="cls-39" d="M407.92,440.79s21.71-14.41,10-18.52S407.92,440.79,407.92,440.79Z"/>
      <path class="cls-39" d="M428.58,433.32s25.95-2.37,17.57-11.56S428.58,433.32,428.58,433.32Z"/>
      <path class="cls-39" d="M399.95,465.51s24.21-9.64,13.57-16.07S399.95,465.51,399.95,465.51Z"/>
      <path class="cls-39" d="M432.31,452.05s18.47,3.11,14.34-4.81S432.31,452.05,432.31,452.05Z"/>
    </g>
    <g>
      <path class="cls-39" d="M172.33,499.75s-26,1.64-19.14-8.72S172.33,499.75,172.33,499.75Z"/>
      <path class="cls-39" d="M131.23,479.31s-19.73-1.82-13.36-8.8S131.23,479.31,131.23,479.31Z"/>
      <path class="cls-39" d="M102,473.6s-26.05.27-18.65-9.72S102,473.6,102,473.6Z"/>
      <path class="cls-39" d="M80.72,479s-22.8,12.61-21,.31S80.72,479,80.72,479Z"/>
      <path class="cls-39" d="M122.49,489.58S97,495.2,102.23,483.9,122.49,489.58,122.49,489.58Z"/>
      <path class="cls-39" d="M88.15,496.62s-13.54,13-14.57,4.07S88.15,496.62,88.15,496.62Z"/>
      <path class="cls-39" d="M166,457.34s-17.05-10.09-8.3-13.67S166,457.34,166,457.34Z"/>
      <path class="cls-39" d="M142.08,439.67s-23.66-10.9-12.7-16.77S142.08,439.67,142.08,439.67Z"/>
      <path class="cls-39" d="M120.52,435.46s-26,1.64-19.14-8.72S120.52,435.46,120.52,435.46Z"/>
      <path class="cls-39" d="M153.75,462.88s-25.4-5.81-15.88-13.8S153.75,462.88,153.75,462.88Z"/>
      <path class="cls-39" d="M119.7,454.55s-17.78,5.91-14.91-2.55S119.7,454.55,119.7,454.55Z"/>
    </g>
    <g>
      <path class="cls-39" d="M758.22,516.73s21-1.92,14.24-9.36S758.22,516.73,758.22,516.73Z"/>
      <path class="cls-39" d="M788.58,495.27s15.57-3.91,9.6-8.71S788.58,495.27,788.58,495.27Z"/>
      <path class="cls-39" d="M811.27,487.06S832.15,484,825,477,811.27,487.06,811.27,487.06Z"/>
      <path class="cls-39" d="M829,488.76s19.82,7.26,16.87-2.37S829,488.76,829,488.76Z"/>
      <path class="cls-39" d="M796.86,502.4s21.06,1.34,15.51-7.06S796.86,502.4,796.86,502.4Z"/>
      <path class="cls-39" d="M825.22,503.76s12.45,8.68,12.17,1.45S825.22,503.76,825.22,503.76Z"/>
      <path class="cls-39" d="M758,482s12.4-10.2,4.95-12S758,482,758,482Z"/>
      <path class="cls-39" d="M775,464.89s17.58-11.67,8.08-15S775,464.89,775,464.89Z"/>
      <path class="cls-39" d="M791.7,458.84s21-1.92,14.24-9.36S791.7,458.84,791.7,458.84Z"/>
      <path class="cls-39" d="M768.51,484.91s19.61-7.81,11-13S768.51,484.91,768.51,484.91Z"/>
      <path class="cls-39" d="M794.73,474s15,2.52,11.61-3.9S794.73,474,794.73,474Z"/>
    </g>
    <g>
      <path class="cls-39" d="M678.05,505.36s-21.06,1.33-15.5-7.07S678.05,505.36,678.05,505.36Z"/>
      <path class="cls-39" d="M644.76,488.8s-16-1.48-10.82-7.13S644.76,488.8,644.76,488.8Z"/>
      <path class="cls-39" d="M621.08,484.18s-21.1.22-15.11-7.87S621.08,484.18,621.08,484.18Z"/>
      <path class="cls-39" d="M603.84,488.57s-18.47,10.22-17,.25S603.84,488.57,603.84,488.57Z"/>
      <path class="cls-39" d="M637.68,497.12s-20.61,4.55-16.41-4.6S637.68,497.12,637.68,497.12Z"/>
      <path class="cls-39" d="M609.86,502.83s-11,10.49-11.8,3.3S609.86,502.83,609.86,502.83Z"/>
      <path class="cls-39" d="M673,471s-13.81-8.17-6.73-11.07S673,471,673,471Z"/>
      <path class="cls-39" d="M653.55,456.7s-19.17-8.83-10.29-13.58S653.55,456.7,653.55,456.7Z"/>
      <path class="cls-39" d="M636.09,453.29s-21.06,1.33-15.5-7.07S636.09,453.29,636.09,453.29Z"/>
      <path class="cls-39" d="M663,475.49s-20.57-4.7-12.86-11.18S663,475.49,663,475.49Z"/>
      <path class="cls-39" d="M635.43,468.74s-14.4,4.79-12.08-2.07S635.43,468.74,635.43,468.74Z"/>
    </g>
    <g>
      <g>
        <path class="cls-40" d="M209.24,217.45s4.86,39.22,14.82,40.06,21.77-3.23,12.53-6.52S213.47,234.74,209.24,217.45Z"/>
        <g class="cls-41">
          <rect class="cls-42" x="201.3" y="203.81" width="17.65" height="37.37" transform="translate(420.84 444.44) rotate(179.85)"/>
          <rect class="cls-43" x="323.63" y="208.14" width="36.41" height="37.37" transform="translate(684.27 452.74) rotate(179.85)"/>
          <polygon class="cls-44" points="199.15 213.29 221.55 213.23 235.46 175.82 199.05 175.92 199.15 213.29"/>
          <polygon class="cls-42" points="217.97 247.41 326.34 246.48 326.25 210.27 217.25 212.09 217.97 247.41"/>
          <rect class="cls-45" x="206.88" y="211.45" width="132.07" height="3.19" transform="matrix(-1, 0.02, -0.02, -1, 550.61, 419.82)"/>
          <g>
            <polygon class="cls-45" points="293 258.53 326.69 258.44 328.2 234.82 301.72 217.17 292.89 218.63 293 258.53"/>
            <polygon class="cls-46" points="335.45 247.12 345.8 245.01 301.72 217.18 292.81 218.54 335.45 247.12"/>
          </g>
          <g>
            <polygon class="cls-45" points="251.02 258.64 284.71 258.55 286.22 234.94 259.74 217.28 250.91 218.74 251.02 258.64"/>
            <polygon class="cls-46" points="293.47 247.23 303.82 245.12 259.74 217.29 250.83 218.65 293.47 247.23"/>
          </g>
          <path class="cls-45" d="M362.81,227.66S268.36,246.82,221.28,223C210,216.72,208.67,213,207.56,212.2c0,5.86,10.09,24.21,10.09,24.21l6.69,7.53,137.13-.37Z"/>
          <path class="cls-47" d="M369.75,230s-64.19,14.65-115.54,5.66-62.11-31.32-62.11-31.32L209.25,260l154-.41Z"/>
        </g>
      </g>
      <g>
        <path class="cls-48" d="M312.07,222.56a11.5,11.5,0,0,0,1.45-2.75,17.06,17.06,0,0,0,1.08-5.35,8,8,0,0,0-.27-1.49,6,6,0,0,1,1.57-5,9.85,9.85,0,0,1,2.83-2.13c.13-.07.24-.14.34.07a9.48,9.48,0,0,1,.84,2.73,3.75,3.75,0,0,1-1.18,3.25c-.43.44-.88.86-1.3,1.31a3.3,3.3,0,0,0-.8,1.64,22.71,22.71,0,0,1-3.44,8.3,4.33,4.33,0,0,1-.32.39,17,17,0,0,1-5,4c-2,1.17-4.21,0-6-1.43a12.64,12.64,0,0,1-1.6-1.53l1.2-.71a.74.74,0,0,0,.1.19,9.42,9.42,0,0,0,3.38,2.26,2.7,2.7,0,0,0,2.13.19A13.53,13.53,0,0,0,312.07,222.56Z"/>
        <g>
          <path class="cls-19" d="M273,218.62s-.65-.16-1.6-2.24c-.58-1.17-1.45-3-3.14-3.11s-2.26,2.22-2.24,3.36.65,6,1.59,6.48a7.58,7.58,0,0,0,3.13-.2C271.19,222.71,273.48,219.23,273,218.62Z"/>
          <path class="cls-48" d="M283.29,217.1q.62,0,1.24,0a15.23,15.23,0,0,1,3,.35c1.09.28,1.21,1.64,1.1,2.59a2.91,2.91,0,0,1-.58,1.3c-.44.61-1.3,1.09-1.58,1.77a15.73,15.73,0,0,0-.25,2.35,3.51,3.51,0,0,1-2,2.7,1.54,1.54,0,0,1-1,0,2,2,0,0,1-1.07-1.39,4.1,4.1,0,0,0-.73-1.65c-.89-.95-2.15-.41-3.24-.37a18.36,18.36,0,0,1-4.28-.5,9.37,9.37,0,0,1-3.19-1.41c-.15-.1-.12-.28-.19-.41a2.32,2.32,0,0,1-.19-1.63c.16-.57.27-.67.86-.75a1.33,1.33,0,0,0,1.37-1.27c.06-.29.15-.36.46-.32,2.09.26,3.44-.29,5.44-.78A22.09,22.09,0,0,1,283.29,217.1Z"/>
          <path class="cls-49" d="M268.23,213.27a2.79,2.79,0,0,0-.88.62,4.16,4.16,0,0,0-.83,2.12,12.86,12.86,0,0,0,1,7,.8.8,0,0,1,0,.11,3.54,3.54,0,0,1-.74-.14c-.12,0-.14-.11-.17-.2a16.41,16.41,0,0,1-1.09-6.62,4.35,4.35,0,0,1,.49-1.94A1.86,1.86,0,0,1,268.23,213.27Z"/>
          <path class="cls-50" d="M269.47,218.52a6.73,6.73,0,0,1,1-2.62,1.14,1.14,0,0,1,.25-.24c.14-.11.27-.12.34.08l0,.08a1.87,1.87,0,0,1,.28.56c0,.24-.28.25-.41.4a3.44,3.44,0,0,0-.72,1.68,3.52,3.52,0,0,0-.06.44.35.35,0,0,1-.3.32c-.18,0-.27-.11-.31-.25A3,3,0,0,1,269.47,218.52Z"/>
          <path class="cls-51" d="M268.73,217a4.19,4.19,0,0,1,1.12-2.41c.19-.17.34-.17.48.05l.06.08c.3.41.29.41-.06.76a4.28,4.28,0,0,0-1,2c0,.13,0,.38-.21.36s-.23-.22-.29-.38A1.67,1.67,0,0,1,268.73,217Z"/>
          <path class="cls-52" d="M267.89,215.6a3.09,3.09,0,0,1,1.09-1.9c.21-.16.75.09.84.35,0,.11,0,.13-.1.17a2.77,2.77,0,0,0-1.13,1.69c0,.15,0,.38-.27.36s-.3-.18-.35-.36S267.92,215.73,267.89,215.6Z"/>
        </g>
        <g>
          <path class="cls-53" d="M278.5,197.36c.49,1.22-.16,1.38.7,2.37.53.61-.36,1.12.11,1.77.09.12.21.22.19.4-.92-.43-1.83-.87-2.75-1.28-1.95-.88-7.26-3-9.29-3.73a7.43,7.43,0,0,0-2.31-.23,3.64,3.64,0,0,0-1.69.37,1.86,1.86,0,0,1-1.23.13,1.73,1.73,0,0,1-1.23-2.41c.05-.16.11-.26-.07-.41a1.4,1.4,0,0,1-.16-2.28.76.76,0,0,0,.24-.66,1.7,1.7,0,0,1,2.22-1.67c.13.05.19,0,.28-.07a1.57,1.57,0,0,1,2.72.16c.52.82,1.15,1.54,1.75,2.3a2.69,2.69,0,0,0,1.26.89,21.37,21.37,0,0,1,2.83,1.58C272.23,194.66,278.36,197.28,278.5,197.36Zm-14.65-3.65a7.7,7.7,0,0,0,.85,1.75.66.66,0,0,0,.66.37c.35-.07.7-.23.75-.63a3,3,0,0,1,.77-1.6.82.82,0,0,0,.07-1c-.16-.29-.46-.26-.74-.26s-.81.11-1.24.09A1.21,1.21,0,0,0,263.85,193.71Zm-1.62.34c.51,0,.86-.29.84-.64a1,1,0,0,0-1-.8.82.82,0,0,0-.86.77C261.27,193.78,261.69,194.07,262.23,194.05Zm3.45-3.31a1.24,1.24,0,0,0-.42-.87.55.55,0,0,0-.92.26,1.05,1.05,0,0,0,.19,1c.18.25.41.44.73.34S265.68,191.09,265.68,190.74Zm-3,5.6a1,1,0,0,0,.86-.46.53.53,0,0,0-.33-.9,1.16,1.16,0,0,0-.92.22.7.7,0,0,0-.37.76C262,196.24,262.27,196.37,262.71,196.34Zm.43-4.15c.62,0,.85-.39.64-.82a1.24,1.24,0,0,0-1.09-.64.55.55,0,0,0-.48.84A1,1,0,0,0,263.13,192.2Z"/>
          <path class="cls-54" d="M263.85,193.71a1.21,1.21,0,0,1,1.12-1.23c.43,0,.83-.09,1.24-.09s.58,0,.74.26a.82.82,0,0,1-.07,1,3,3,0,0,0-.77,1.6c-.06.4-.41.56-.75.63a.66.66,0,0,1-.66-.37A7.7,7.7,0,0,1,263.85,193.71Z"/>
          <path class="cls-54" d="M262.23,194.05c-.54,0-1-.27-1-.67a.82.82,0,0,1,.86-.77,1,1,0,0,1,1,.8C263.09,193.76,262.74,194,262.23,194.05Z"/>
          <path class="cls-54" d="M265.68,190.74c0,.35-.08.65-.42.75s-.55-.09-.73-.34a1.05,1.05,0,0,1-.19-1,.55.55,0,0,1,.92-.26A1.24,1.24,0,0,1,265.68,190.74Z"/>
          <path class="cls-54" d="M262.71,196.34c-.44,0-.7-.1-.76-.39a.7.7,0,0,1,.37-.76,1.16,1.16,0,0,1,.92-.22.53.53,0,0,1,.33.9A1,1,0,0,1,262.71,196.34Z"/>
          <path class="cls-54" d="M263.13,192.2a1,1,0,0,1-.92-.61.55.55,0,0,1,.48-.84,1.24,1.24,0,0,1,1.09.64C264,191.81,263.75,192.17,263.13,192.2Z"/>
        </g>
        <g>
          <path class="cls-55" d="M301.3,227.18l.11-.15a5.09,5.09,0,0,0,.74-1.63,5.69,5.69,0,0,0,.08-1.24c0-.3,0-.6,0-.91a14.93,14.93,0,0,0-.71-4.39c-.44-1.41-1-2.78-1.42-4.21-.73-2.71-1.14-5.5-1.84-8.22a14.2,14.2,0,0,0-1.42-3.45c-.28-.5-.34-.8-.89-1.08a5.28,5.28,0,0,0-2-.6,7.29,7.29,0,0,0-2.16,0,8.05,8.05,0,0,1-1.78.29c-2,0-4-.05-6.07-.08l-2.27,0c-.15,0-.67-.1-.8,0a20.83,20.83,0,0,0-.69,3,78.13,78.13,0,0,0-.64,11.95c0,2.24,1.17,6.43,1.82,8.6a7.73,7.73,0,0,0,.89,2,2.59,2.59,0,0,0,.19.27,6.33,6.33,0,0,0,3,1.93,14.2,14.2,0,0,0,4.05.62c.2,0,.41,0,.61,0h1.18l1.09,0c.63-.06,1.27,0,1.9-.12a7.86,7.86,0,0,0,1.15-.34c.46-.14.92-.3,1.39-.41a3,3,0,0,1,.9,0,4.4,4.4,0,0,0,2.49-.7A4.06,4.06,0,0,0,301.3,227.18Z"/>
          <path class="cls-56" d="M281.67,203.85c1,.83,1.84.08,2.89,0,5-.54,8,5.31,7.68,9.63-.31,3.72-.87,9.28-4.52,11.41-3.33,1.93-6.5-2.69-7.24-5.53a21.52,21.52,0,0,1-.34-6.46c.13-2.75.12-6.06,1.25-8.61A.77.77,0,0,1,281.67,203.85Z"/>
        </g>
        <path class="cls-19" d="M298,198.33c0,.08-.11.08-.18.08S297.92,198.31,298,198.33Z"/>
        <path class="cls-19" d="M298.07,198.26c0,.06,0,.07-.07.08S298,198.26,298.07,198.26Z"/>
        <path class="cls-57" d="M299.29,187l0,.06Z"/>
        <g>
          <g>
            <path class="cls-58" d="M278.29,182.74a4.39,4.39,0,0,1-.46.93,22.24,22.24,0,0,0-1.11,3,19.71,19.71,0,0,1-1.18,2.94,4.77,4.77,0,0,0-.53,2.42c0,.16.09.35-.06.5-2-1-3.58-2.42-4.06-4.69a5.91,5.91,0,0,1,1.63-5.74,3.34,3.34,0,0,1,4.3-.38C277.31,182.07,277.8,182.41,278.29,182.74Z"/>
            <path class="cls-57" d="M274.28,188.87l0-.13C274.23,188.76,274.27,188.82,274.28,188.87Z"/>
            <g class="cls-59">
              <path class="cls-54" d="M274.28,188.87a5.62,5.62,0,0,0-.23,1.37,2.93,2.93,0,0,0,1.39,2.65s0,.05.06.08h0a.13.13,0,0,1,.15.05l.84.25a18.31,18.31,0,0,1,1.51-2.41,2.12,2.12,0,0,0,.07-2.28,1,1,0,0,1-.16-.38l0-.05h0a1.77,1.77,0,0,1-.51-.29A1.89,1.89,0,0,0,275,188c-.28.21-.44.53-.7.76h0Z"/>
              <path class="cls-57" d="M274.32,188.75c.26-.23.41-.55.7-.76a1.89,1.89,0,0,1,2.35-.12,1.77,1.77,0,0,0,.51.29,2.87,2.87,0,0,0-1.73-1.46,3.71,3.71,0,0,0-2.88.35,7.09,7.09,0,0,1,2.65,0A2.6,2.6,0,0,0,274.32,188.75Z"/>
            </g>
          </g>
          <g>
            <path class="cls-57" d="M302.88,187.25c-.28-.2-.46-.51-.77-.69a1.89,1.89,0,0,0-2.35.1,1.77,1.77,0,0,1-.48.33,2.87,2.87,0,0,1,1.59-1.62,3.71,3.71,0,0,1,2.9.08,7.09,7.09,0,0,0-2.64.23A2.6,2.6,0,0,1,302.88,187.25Z"/>
            <path class="cls-54" d="M302.93,187.37a5.62,5.62,0,0,1,.36,1.34,2.93,2.93,0,0,1-1.14,2.77s0,.06,0,.09h0a.3.3,0,0,1-.15.06l-.81.33a18.31,18.31,0,0,0-1.73-2.25,2.12,2.12,0,0,1-.28-2.26,1,1,0,0,0,.13-.39l0-.06h0a1.77,1.77,0,0,0,.48-.33,1.89,1.89,0,0,1,2.35-.1c.3.18.49.49.77.69h0Z"/>
            <g>
              <path class="cls-60" d="M306.6,181.79a3.39,3.39,0,0,0-3.52-1,5.76,5.76,0,0,0-1.73,1,3.5,3.5,0,0,1-1.91.69,3.57,3.57,0,0,1-1.78-.51,30.41,30.41,0,0,0-6.3-2.34.42.42,0,0,1-.37-.38,2.06,2.06,0,0,0-.55-1.26,2,2,0,0,1-.58-1.75c0-.12,0-.24,0-.42a2.62,2.62,0,0,0-.57.71,5.16,5.16,0,0,0-.47,1.38,2.49,2.49,0,0,1-.36.94c-.11.15-.21.16-.3,0a2.29,2.29,0,0,1-.23-.87,8.37,8.37,0,0,0-.31-1.89,3.26,3.26,0,0,0-1-1.54,2.9,2.9,0,0,1-.12,1.34,10.88,10.88,0,0,1-.61,1.41,2.64,2.64,0,0,0-.41,1.53,2.4,2.4,0,0,1-.8-1.3,4.61,4.61,0,0,1-.17-1.5,1.58,1.58,0,0,0-.63.44,5.61,5.61,0,0,0-1.34,2.5,1,1,0,0,1-.45.61,20.2,20.2,0,0,0-2.93,2.32c-3.16,3-5.43,8.5-3.73,12.77q.2.5.44,1h0a11.69,11.69,0,0,1,1.34,4.25,13.22,13.22,0,0,0,2.76,5.36,10.27,10.27,0,0,0,5.9,1.06,7,7,0,0,0,4.33-2.54,16.22,16.22,0,0,1,5.56-3.73,11.23,11.23,0,0,0,4.09-2.91c.7-.93,2-4,1.33-5.07a18.32,18.32,0,0,0-1.73-2.25,2.12,2.12,0,0,1-.28-2.26,1,1,0,0,0,.13-.39l0-.06h0a2.87,2.87,0,0,1,1.59-1.62,3.71,3.71,0,0,1,2.9.08,7.09,7.09,0,0,0-2.64.23,2.6,2.6,0,0,1,1.75,1.56.74.74,0,0,0,.05.12,5.62,5.62,0,0,1,.36,1.34,2.93,2.93,0,0,1-1.14,2.77s0,.06,0,.09a5.05,5.05,0,0,0,1.36-.42,8.73,8.73,0,0,0,3.38-2.22C308.79,186.75,308.11,183.39,306.6,181.79Z"/>
              <polygon class="cls-60" points="302.88 187.25 302.88 187.25 302.88 187.25 302.88 187.25"/>
            </g>
            <path class="cls-57" d="M292.57,189.24c-.74-.86-1.48-1.73-2.72-1.77a3.87,3.87,0,0,0-2.93,1.52,3.61,3.61,0,0,1,.61-1.27,4.33,4.33,0,0,1,1.47-1.42,1.59,1.59,0,0,1,1.75,0A4.56,4.56,0,0,1,292.57,189.24Z"/>
            <path class="cls-57" d="M280.76,189.27a2.83,2.83,0,0,0-4.87,0,3.75,3.75,0,0,1,2-2.56,1.24,1.24,0,0,1,.87,0A3.75,3.75,0,0,1,280.76,189.27Z"/>
            <path class="cls-53" d="M285.1,191a5.2,5.2,0,0,1-4.67,3.81,5.32,5.32,0,0,0,3.39,1.81A8.32,8.32,0,0,0,285.1,191Z"/>
            <g>
              <path class="cls-19" d="M292.57,191.69a2.56,2.56,0,0,1-2,3,4.24,4.24,0,0,1-1.45.18,2.59,2.59,0,0,1-2.5-1.93,3.38,3.38,0,0,1,1.54-3.9,3.06,3.06,0,0,1,4.2,1.82A3.56,3.56,0,0,1,292.57,191.69Z"/>
              <path class="cls-57" d="M289.33,194.29a2.41,2.41,0,1,1-.68-4.76,2.41,2.41,0,0,1,.68,4.76Zm-1.77-2.46a.49.49,0,0,0-.07.52,1.57,1.57,0,0,0,1.76,1.18,1.61,1.61,0,0,0,1.3-1.43,1.53,1.53,0,0,0-1.22-1.57,3.08,3.08,0,0,0-1.07.09c-.47-.26-.87-.2-1.09.18A.73.73,0,0,0,287.57,191.83Z"/>
              <path class="cls-61" d="M288.27,190.63a3.08,3.08,0,0,1,1.07-.09,1.53,1.53,0,0,1,1.22,1.57,1.61,1.61,0,0,1-1.3,1.43,1.57,1.57,0,0,1-1.76-1.18.49.49,0,0,1,.07-.52.74.74,0,0,0,.81-.33A.75.75,0,0,0,288.27,190.63Z"/>
              <path class="cls-19" d="M288.27,190.63a.75.75,0,0,1,.11.87.74.74,0,0,1-.81.33.73.73,0,0,1-.39-1C287.4,190.43,287.79,190.36,288.27,190.63Z"/>
            </g>
            <g>
              <path class="cls-19" d="M280.72,191.74a2.32,2.32,0,0,1-2,2.65,3.07,3.07,0,0,1-1.61,0,2,2,0,0,1-1.49-1.64,4.82,4.82,0,0,1,.05-1.94,2.35,2.35,0,0,1,2.25-1.63A2.71,2.71,0,0,1,280.72,191.74Z"/>
              <path class="cls-57" d="M275.68,192.15a2.18,2.18,0,1,1,2.46,1.87A2.16,2.16,0,0,1,275.68,192.15Zm.89-.24c-.17.05-.12.19-.09.29a1.8,1.8,0,0,0,.17.41,1.38,1.38,0,0,0,2.39.07,1.4,1.4,0,0,0-.26-1.79,1.38,1.38,0,0,0-1.64-.13c-.46-.15-.75-.06-.91.27S276.18,191.65,276.57,191.9Z"/>
              <path class="cls-61" d="M277.14,190.75a1.38,1.38,0,0,1,1.64.13,1.4,1.4,0,0,1,.26,1.79,1.38,1.38,0,0,1-2.39-.07,1.8,1.8,0,0,1-.17-.41c0-.1-.08-.24.09-.29a.81.81,0,0,0,.49,0C277.51,191.65,277.55,191.18,277.14,190.75Z"/>
              <path class="cls-19" d="M277.14,190.75c.4.43.36.9-.09,1.13a.81.81,0,0,1-.49,0q-.58-.38-.34-.88C276.4,190.69,276.69,190.6,277.14,190.75Z"/>
            </g>
            <g>
              <g>
                <path class="cls-62" d="M289,203.61c0,.36,0-.16,0,.2a2.61,2.61,0,0,1-.75,1.51,4.8,4.8,0,0,1-3.64,1.07c-.75,0-1.5-.13-2.26-.14a3.24,3.24,0,0,1-2.93-1.33,9.32,9.32,0,0,1-.9-1.48l-.59-2.39a7.81,7.81,0,0,1-.24-1.17,1.57,1.57,0,0,1,.32.52c.25.62.48,1.25.75,1.86a3.64,3.64,0,0,0,2.77,2.25,9.7,9.7,0,0,0,3.85,0,3.85,3.85,0,0,0,3.27-3.47,2.84,2.84,0,0,1,.25-1,18.27,18.27,0,0,1,.1,3C289,203.24,289,203.43,289,203.61Z"/>
                <path class="cls-57" d="M288.89,200a2.84,2.84,0,0,0-.25,1,3.85,3.85,0,0,1-3.27,3.47,9.7,9.7,0,0,1-3.85,0,3.64,3.64,0,0,1-2.77-2.25c-.27-.61-.5-1.24-.75-1.86a1.57,1.57,0,0,0-.32-.52c0-.13-.16-.23-.09-.37a5.5,5.5,0,0,0,1.18.8,2,2,0,0,0,2.76-1.1,3.49,3.49,0,0,0,.21-.82c0-.11-.17-.49-.1-.64s.2,0,.23,0a.41.41,0,0,0,0,.28,3.25,3.25,0,0,1,.12.36,5,5,0,0,0,.38.76,2.81,2.81,0,0,0,1.2,1.09,5,5,0,0,0,5.09-.39.71.71,0,0,0,.26-.3A.79.79,0,0,1,288.89,200Zm-7.66,3.6a10.89,10.89,0,0,0,3.43.2,3,3,0,0,0,1.3-.26,4.13,4.13,0,0,0,2.63-3.09c0-.06,0-.13,0-.17s-.16,0-.23.05a4.64,4.64,0,0,1-1.71.68,5.06,5.06,0,0,1-3.16-.48,4.53,4.53,0,0,1-1.51-1.22,2.55,2.55,0,0,1-3.5,1.4h0l0,0A3.89,3.89,0,0,0,281.23,203.62Z"/>
                <path class="cls-62" d="M289,199.53a.71.71,0,0,1-.26.3,5,5,0,0,1-5.09.39,3.58,3.58,0,0,1-1.75-2.31c0-.08-.09-.19.09-.21a2.73,2.73,0,0,0,2.3-1.94l0,0c.48.3,1,.42,1.55.68a6.3,6.3,0,0,1,2.86,2.48C288.78,199.09,288.86,199.31,289,199.53Z"/>
                <path class="cls-62" d="M278.91,195.69c.11.2.21.41.33.6a2.92,2.92,0,0,0,2.27,1.4c.2,0,.27.06.25.27a4.1,4.1,0,0,1-.25,1.25,2,2,0,0,1-2.76,1.1,5.5,5.5,0,0,1-1.18-.8h0a.15.15,0,0,0-.08-.13l0,0,0,0a1.3,1.3,0,0,1,.13-.92C278,197.51,278.42,196.58,278.91,195.69Z"/>
                <path class="cls-57" d="M277.5,199.39a.15.15,0,0,1,.08.13C277.47,199.53,277.53,199.43,277.5,199.39Z"/>
                <path class="cls-63" d="M278.46,200.73a2.55,2.55,0,0,0,3.5-1.4,4.53,4.53,0,0,0,1.51,1.22,5.06,5.06,0,0,0,3.16.48,4.64,4.64,0,0,0,1.71-.68c.07,0,.14-.12.23-.05s0,.11,0,.17a4.13,4.13,0,0,1-2.63,3.09,2.14,2.14,0,0,0-1.2-.18,4.26,4.26,0,0,1-2-.07,1.42,1.42,0,0,0-1.51.31,3.89,3.89,0,0,1-2.77-2.89Z"/>
                <path class="cls-64" d="M281.23,203.62a1.42,1.42,0,0,1,1.51-.31,4.26,4.26,0,0,0,2,.07,2.14,2.14,0,0,1,1.2.18,3,3,0,0,1-1.3.26A10.89,10.89,0,0,1,281.23,203.62Z"/>
              </g>
              <path class="cls-65" d="M284.2,195.38a1.44,1.44,0,0,1-.35,1.2,2.91,2.91,0,0,1-2.27,1.12,3.31,3.31,0,0,1-2.47-1.11,1.2,1.2,0,0,1-.34-.79.89.89,0,0,1,.31-.68,2.75,2.75,0,0,1,.8-.3,6.07,6.07,0,0,1,1.84-.24c.19,0,.8,0,1,0a3.51,3.51,0,0,1,.77.16A1.13,1.13,0,0,1,284.2,195.38Z"/>
            </g>
          </g>
        </g>
        <g>
          <path class="cls-19" d="M284.33,227.83a8.11,8.11,0,0,1-2.91-2.21c-.43-.33-2.44-2.11-4.3-1.41s-1.16,4,.08,6.36,3.08,4.48,3.67,4.28a14.62,14.62,0,0,0,3.39-1.75C284.67,231.93,286.6,228.9,284.33,227.83Z"/>
          <path class="cls-49" d="M277.13,224.21a3.18,3.18,0,0,0-.67,3.13,14.46,14.46,0,0,0,4.2,7.26c.07.08.18.12.22.25a3.42,3.42,0,0,1-.8.18.3.3,0,0,1-.29-.11,19,19,0,0,1-4.17-6.56,5.56,5.56,0,0,1-.37-1.91,2.22,2.22,0,0,1,1.54-2.22A.51.51,0,0,1,277.13,224.21Z"/>
          <path class="cls-50" d="M280.8,229.1a7.87,7.87,0,0,1-.11-3.22,1,1,0,0,1,.17-.36c.1-.14.2-.16.33,0l.05,0c.21.17.48.29.61.51s-.19.42-.26.65a3.85,3.85,0,0,0,0,2,5.9,5.9,0,0,0,.15.6.39.39,0,0,1-.19.46c-.16.11-.31,0-.41-.12S280.91,229.27,280.8,229.1Z"/>
          <path class="cls-51" d="M279.3,227.74a4.81,4.81,0,0,1,.08-2.81c.18-.44.26-.46.66-.22s.51.3.28.85a4.93,4.93,0,0,0-.17,2.5c0,.16.18.39,0,.49s-.36-.13-.5-.27A2,2,0,0,1,279.3,227.74Z"/>
          <path class="cls-52" d="M277.83,226.71a3.56,3.56,0,0,1,.25-2.36.81.81,0,0,1,1.09-.07c.06.09,0,.14,0,.19a3.27,3.27,0,0,0-.43,2.4c0,.15.09.32-.12.41a.42.42,0,0,1-.46-.12A1,1,0,0,1,277.83,226.71Z"/>
          <path class="cls-55" d="M291.68,222.7a.36.36,0,0,1-.12.47c-.45.35-.89.7-1.32,1.06a6.11,6.11,0,0,0-.84.79,7.44,7.44,0,0,1-1.81,1.34,6.42,6.42,0,0,1-1.13.67c-.64.25-1.28.52-1.93.73-.27.09-.33.18-.27.45a1.5,1.5,0,0,1-.6,1.7,5,5,0,0,1-.54.3.53.53,0,0,0-.34.51,4,4,0,0,0,0,.61,2.93,2.93,0,0,0,1,1.66c.29.27.62.06.93.06h.11a9.93,9.93,0,0,0,4.17-.55c.19-.06.6-.16.73-.21l.91-.35a14.9,14.9,0,0,0,2.39-1.2,22.24,22.24,0,0,1,3-1.85S297.74,223.3,291.68,222.7Z"/>
        </g>
        <g>
          <path class="cls-55" d="M292.25,206.77a6.93,6.93,0,0,1-.3,1.68h0a63.16,63.16,0,0,1-4.57,11.48,3.63,3.63,0,0,1-1.62,2,1.55,1.55,0,0,0-.29.22,5,5,0,0,1-1.86,1,1.88,1.88,0,0,0-1.56,1.66,1.84,1.84,0,0,0,1,1.84c.13.08.2.15.15.32a1.51,1.51,0,0,0,1.46,2,.55.55,0,0,1,.48.31,1.81,1.81,0,0,0,2.89.05.32.32,0,0,1,.45-.19,1.31,1.31,0,0,0,1.46-.37,2.07,2.07,0,0,0,.51-1.58,18.89,18.89,0,0,1-.06-3,1.06,1.06,0,0,1,.18-.57,6.35,6.35,0,0,0,.68-1.32c1.19-3.17,2.27-6.38,3.15-9.66.06-.21.05-.46.23-.63h0c-.06,0,0-.07,0-.11h0c0-.08,0-.14.06-.19.12-.94.41-1.84.56-2.77s1-6.8.71-7Z"/>
          <path class="cls-54" d="M285.9,225.79a1.26,1.26,0,0,0,1.73.17c.31-.32.7-.51,1-.8s.47-.38.39-.72a.86.86,0,0,0-.72-.69,3.18,3.18,0,0,1-1.71-.7.85.85,0,0,0-1,0,.69.69,0,0,0-.25.75A8,8,0,0,0,285.9,225.79Z"/>
          <path class="cls-54" d="M284.41,226.66a.88.88,0,0,0-.29,1.2.86.86,0,0,0,1.21,0,1,1,0,0,0,.18-1.29C285.28,226.28,284.82,226.32,284.41,226.66Z"/>
          <path class="cls-54" d="M289.39,226.81c-.24-.27-.51-.45-.85-.29a.68.68,0,0,0-.33.78,1.1,1.1,0,0,0,.56.92.57.57,0,0,0,.89-.44A1.29,1.29,0,0,0,289.39,226.81Z"/>
          <path class="cls-54" d="M283.18,224.55c-.36.29-.47.57-.31.83a.73.73,0,0,0,.82.33,1.21,1.21,0,0,0,.86-.47.56.56,0,0,0-.38-.93A1.07,1.07,0,0,0,283.18,224.55Z"/>
          <path class="cls-54" d="M286.41,227.46a1.09,1.09,0,0,0-.29,1.12.57.57,0,0,0,1,.32,1.29,1.29,0,0,0,.4-1.25C287.33,227.17,286.91,227.05,286.41,227.46Z"/>
        </g>
      </g>
      <path class="cls-66" d="M295.25,232.16l-33.57-46.94a1.92,1.92,0,0,0-3.12,2.23l33.57,46.94a13.56,13.56,0,0,0,1.93,8.82l13.28,18.56s2.17,1.15,5.74-1.41,3.18-5,3.18-5L303,236.83A13.56,13.56,0,0,0,295.25,232.16Z"/>
    </g>
  </g>
</svg>
