<svg id="Layer_1" data-name="Layer 1" xmlns="http://www.w3.org/2000/svg" xmlns:xlink="http://www.w3.org/1999/xlink" viewBox="0 0 400 180"><defs><style>.cls-1,.cls-2,.cls-22,.cls-9{fill:none;}.cls-15,.cls-16,.cls-17,.cls-2{stroke:#dbdbdb;}.cls-2,.cls-7,.cls-8{stroke-miterlimit:10;}.cls-13,.cls-15,.cls-16,.cls-17,.cls-18,.cls-2,.cls-7,.cls-8,.cls-9{stroke-width:0.68px;}.cls-3{fill:#fff;}.cls-4{clip-path:url(#clip-path);}.cls-5{fill:#dbdbdb;}.cls-6{fill:#f2f2f2;}.cls-10,.cls-7{fill:#dd4e36;}.cls-22,.cls-7,.cls-8{stroke:#e6e6e6;}.cls-12,.cls-8{fill:#ccc;}.cls-9{stroke:#fff;}.cls-13,.cls-15,.cls-16,.cls-17,.cls-18,.cls-22,.cls-9{stroke-linecap:round;stroke-linejoin:round;}.cls-11{fill:#e6e6e6;}.cls-13,.cls-15{fill:#03d6fc;}.cls-13{stroke:#03d6fc;}.cls-14{clip-path:url(#clip-path-2);}.cls-16,.cls-18{fill:#49e1fc;}.cls-17{fill:#7ee9fc;}.cls-18{stroke:#49e1fc;}.cls-19{clip-path:url(#clip-path-3);}.cls-20{clip-path:url(#clip-path-4);}.cls-21{clip-path:url(#clip-path-5);}.cls-22{stroke-width:1.31px;}</style><clipPath id="clip-path"><path id="SVGID" class="cls-1" d="M277.53,60.7S182,69.51,171.38,82.51c-.49.61,1.15,3.62-2,5.16-1.73.84-10.57,1.59-12.91,2.65-25.86,11.73-81.79,33.49-82.61,36.28-1,3.5,11.43,12.4,14.8,16.24s21.83,23.61,25,24.35,185.3-25.65,224-36.26c5.84-1.63-8.57-26.34-10.12-26.24S299.68,99,299.27,97.44l-.41-1.53s10.85-1.33,11.32-3.86-1.83-9-7.53-10.14-25.15-2.14-25.32-9.63c9.93-1.26,27.26-3.94,27.26-3.94l-.18-2.8Z"/></clipPath><clipPath id="clip-path-2"><path id="SVGID-2" data-name="SVGID" class="cls-2" d="M171.38,82.51s-.78,5.43,34.37,2c31.38-3,50.14-5.73,53.81-6.27a.89.89,0,0,1,.93.52l3.06,6.87a.89.89,0,0,1-.68,1.24c-8.36,1.23-60.11,8.76-83.14,9.25C162,96.52,153.56,96.83,171.38,82.51Z"/></clipPath><clipPath id="clip-path-3"><path id="SVGID-3" data-name="SVGID" class="cls-2" d="M123.44,133.39c-.28-2.13-.35-2.56,16.84-7.78C144,124.46,264.87,106,277.45,104.05a1.46,1.46,0,0,1,1.53.81l2.5,5.1a1.47,1.47,0,0,1-1.08,2.09L166,130.44a5.7,5.7,0,0,1-3.47-.54l-.9-.45a5.68,5.68,0,0,0-3.44-.55c-3.53.56-11.65,1.86-19.14,3.21C131,133.57,123.65,135,123.44,133.39Z"/></clipPath><clipPath id="clip-path-4"><path id="SVGID-4" data-name="SVGID" class="cls-1" d="M274.66,75.24s2.09,6.71,4.61,9l-5.54.36-5.33-8.3Z"/></clipPath><clipPath id="clip-path-5"><path id="SVGID-5" data-name="SVGID" class="cls-1" d="M285.58,101.41s2.15,6.11,4.47,7.53l-6.93.45-4.57-7.49Z"/></clipPath></defs><title>16_big_boat_moves_fast</title><path class="cls-3" d="M220.54,120.07l14.51-6.6,5.33-2.42c1.71-.75,3.33-1.4,4.71-2,2.78-1.12,4.66-1.78,4.66-1.78l0,.06s-1.77.93-4.48,2.2c-1.35.64-2.93,1.38-4.64,2.13l-5.4,2.27-14.69,6.17Z"/><path class="cls-3" d="M275.45,109.81l15.71-2.73,5.77-1c1.84-.29,3.57-.52,5.05-.72,3-.38,5-.55,5-.55v.06s-1.95.46-4.88,1c-1.47.27-3.19.59-5,.89l-5.8.84-15.78,2.27Z"/><path class="cls-3" d="M158.15,84.27s4.43.65,8.86,1.36l3.25.5c1,.19,2,.41,2.81.59,1.64.39,2.72.73,2.72.73v.06s-1.13-.06-2.8-.27c-.83-.11-1.81-.24-2.84-.42l-3.23-.67c-4.39-.87-8.77-1.81-8.77-1.81Z"/><path class="cls-3" d="M170.48,92.7l10.21,1.65,3.75.62c1.2.22,2.3.47,3.25.68,1.89.44,3.13.82,3.13.82v.06s-1.3-.09-3.22-.36c-1-.14-2.08-.3-3.27-.52l-3.72-.77-10.13-2.12Z"/><path class="cls-3" d="M101.16,94.65s4.44-.6,8.89-1.14l3.27-.42c1-.1,2-.15,2.86-.2,1.68-.09,2.81-.06,2.81-.06v.07s-1.1.25-2.76.51c-.84.12-1.81.27-2.85.37l-3.28.26c-4.47.36-8.94.67-8.94.67Z"/><path class="cls-3" d="M111.86,97l10.27-1.22,3.78-.44c1.21-.12,2.34-.18,3.31-.24,1.94-.1,3.24-.08,3.24-.08v.07s-1.27.26-3.19.54c-1,.12-2.09.28-3.3.4l-3.78.28-10.33.76Z"/><path class="cls-3" d="M238,106.18l13.55-7.42,5-2.71c1.6-.85,3.12-1.6,4.41-2.25,2.6-1.27,4.37-2,4.37-2l0,0s-1.64,1-4.16,2.46c-1.26.7-2.73,1.53-4.33,2.38l-5,2.58-13.76,7Z"/><g class="cls-4"><polygon class="cls-5" points="306.38 63.11 210.75 76.03 76.94 137.51 116.86 177.66 345.08 137.28 329.81 93.28 306.38 63.11"/><path class="cls-6" d="M81.15,138.17s2.56-2.86,5.55-3.39,35.46-10.1,53.05-18S189.81,95.26,196.64,93c0,0,9.59-11.73,35.94-16s71.83-11.47,71.83-11.47l-32.28-8.65L170.77,72.44,64.93,119Z"/><path class="cls-7" d="M86,145s20.54,4.95,73.73-3.08,175.61-28.73,175.61-28.73L344.62,134,105.86,171.73Z"/><path class="cls-8" d="M277.44,72.32a.64.64,0,0,0-.23,0c-.23,0-.64,0-1.17,0-.75.05-1.64.18-1.61.68.06,1,4.05,15.53,12.1,13.63,1.09-.21.46.8,1,2.84s-.94,5,12.52,2.23c2.08-.67,2.25-.83,1.54-6.31a.86.86,0,0,1,.7-1c1.62-.28,3.07-.75,3.4-1.25S279.37,73,277.44,72.32Z"/><path class="cls-8" d="M299.86,95.82S286.92,97.07,285.73,98s2.53,13.55,9.94,12.38l35.79-5.62Z"/></g><path class="cls-8" d="M109.61,111.84a2.56,2.56,0,0,0-1.23.12c-4.85,2-30.4,12.7-31.48,14.45-1.2,1.93,6.92,8.82,9.8,8.37,2-.31,21.11-5.95,32.42-9.7,4.84-1.61,8.25-2.87,8.31-3.23.18-1.21-5.34-2.71-4.56-2.89s2.82-1.5,1.84-2.37-3.82.38-5.09,1.12c-1,.6-5.78-2.89-7.64-4.31a.49.49,0,0,1,.12-.85c.83-.31,1.92-.87,1.79-1.61C113.71,109.9,110.89,112,109.61,111.84Z"/><path class="cls-9" d="M118.43,125.25s-27.8,2-29.24,1.45-12.87-8.76-11-9.23,26.17-3.7,26.17-3.7"/><path class="cls-9" d="M109.69,128.13c-8.53.55-20.34,1.22-21.23.9-1.44-.52-12.87-8.76-11-9.23,1.18-.29,11.19-1.66,18.6-2.66"/><path class="cls-9" d="M97,131.9a66,66,0,0,1-8.81.14c-1.44-.53-12.87-8.76-11-9.24.72-.17,4.69-.75,9.35-1.4"/><path class="cls-9" d="M87.64,134.64c-1.44-.53-12.73-8.61-10.83-9.08.26-.07.93-.18,1.9-.33"/><line class="cls-9" x1="78.91" y1="119.2" x2="79.11" y2="128.39"/><line class="cls-9" x1="81.19" y1="121.21" x2="81.39" y2="130.4"/><line class="cls-9" x1="83.46" y1="123.05" x2="83.66" y2="132.24"/><line class="cls-9" x1="85.71" y1="124.44" x2="85.91" y2="133.63"/><rect class="cls-10" x="198.72" y="39.56" width="0.95" height="15.63" rx="0.47" transform="matrix(1, -0.06, 0.06, 1, -2.62, 12.85)"/><rect class="cls-10" x="198.12" y="11.04" width="0.39" height="45.23" rx="0.2" transform="translate(-1.75 12.77) rotate(-3.67)"/><rect class="cls-11" x="198.87" y="41.44" width="1.73" height="28.53" rx="0.86" transform="matrix(1, -0.06, 0.06, 1, -3.16, 12.9)"/><path class="cls-12" d="M194.09,78.25l8.56-1.77a.68.68,0,0,0,.54-.72l-.63-7a.69.69,0,0,0-.72-.62l-2.46.16a.67.67,0,0,0-.53.31l-5.47,8.56A.68.68,0,0,0,194.09,78.25Z"/><path class="cls-13" d="M171.38,82.51s-.78,5.43,34.37,2c31.38-3,50.14-5.73,53.81-6.27a.89.89,0,0,1,.93.52l3.06,6.87a.89.89,0,0,1-.68,1.24c-8.36,1.23-60.11,8.76-83.14,9.25C162,96.52,153.56,96.83,171.38,82.51Z"/><g class="cls-14"><polygon class="cls-15" points="175.79 82.92 159.38 97.43 156.37 93.94 172.35 80.55 175.79 82.92"/><polygon class="cls-16" points="179.4 85.08 163.44 100.09 160.32 96.69 175.88 82.82 179.4 85.08"/><polygon class="cls-17" points="185.77 84.87 170.05 100.13 166.88 96.78 182.22 82.67 185.77 84.87"/></g><path id="SVGID-6" data-name="SVGID" class="cls-2" d="M171.38,82.51s-.78,5.43,34.37,2c31.38-3,50.14-5.73,53.81-6.27a.89.89,0,0,1,.93.52l3.06,6.87a.89.89,0,0,1-.68,1.24c-8.36,1.23-60.11,8.76-83.14,9.25C162,96.52,153.56,96.83,171.38,82.51Z"/><polygon class="cls-8" points="152.56 111.39 276.97 93.02 275.29 89.84 163.9 106.35 152.56 111.39"/><path class="cls-8" d="M170.52,135.7l121.77-19.93-1.73-3.15L179.49,130.86l-.09,0-9.07,4.21A.32.32,0,0,0,170.52,135.7Z"/><path class="cls-18" d="M123.44,133.39c-.28-2.13-.35-2.56,16.84-7.78C144,124.46,264.87,106,277.45,104.05a1.46,1.46,0,0,1,1.53.81l2.5,5.1a1.47,1.47,0,0,1-1.08,2.09L166,130.44a5.7,5.7,0,0,1-3.47-.54l-.9-.45a5.68,5.68,0,0,0-3.44-.55c-3.53.56-11.65,1.86-19.14,3.21C131,133.57,123.65,135,123.44,133.39Z"/><g class="cls-19"><rect class="cls-15" x="121.17" y="120.96" width="17.75" height="19.18" transform="translate(-18.59 21.63) rotate(-8.88)"/><rect class="cls-15" x="139.06" y="118.16" width="17.75" height="19.18" transform="translate(-17.94 24.36) rotate(-8.88)"/><rect class="cls-15" x="156.95" y="115.37" width="17.75" height="19.18" transform="translate(-17.3 27.09) rotate(-8.88)"/><rect class="cls-15" x="174.84" y="112.57" width="17.75" height="19.18" transform="translate(-16.65 29.82) rotate(-8.88)"/><rect class="cls-15" x="192.73" y="109.78" width="17.75" height="19.18" transform="matrix(0.99, -0.15, 0.15, 0.99, -16.01, 32.54)"/><rect class="cls-15" x="210.62" y="106.99" width="17.75" height="19.18" transform="matrix(0.99, -0.15, 0.15, 0.99, -15.36, 35.27)"/><rect class="cls-15" x="228.51" y="104.19" width="17.75" height="19.18" transform="translate(-14.72 38) rotate(-8.88)"/><rect class="cls-15" x="246.4" y="101.4" width="17.75" height="19.18" transform="translate(-14.07 40.73) rotate(-8.88)"/><rect class="cls-15" x="264.29" y="98.6" width="17.75" height="19.18" transform="matrix(0.99, -0.15, 0.15, 0.99, -13.42, 43.45)"/></g><path id="SVGID-7" data-name="SVGID" class="cls-2" d="M123.44,133.39c-.28-2.13-.35-2.56,16.84-7.78C144,124.46,264.87,106,277.45,104.05a1.46,1.46,0,0,1,1.53.81l2.5,5.1a1.47,1.47,0,0,1-1.08,2.09L166,130.44a5.7,5.7,0,0,1-3.47-.54l-.9-.45a5.68,5.68,0,0,0-3.44-.55c-3.53.56-11.65,1.86-19.14,3.21C131,133.57,123.65,135,123.44,133.39Z"/><g class="cls-20"><polygon class="cls-10" points="276.29 76.5 269.62 76.93 271.7 78.75 276.98 78.42 276.29 76.5"/><polygon class="cls-10" points="277.64 79.01 270.97 79.43 273.05 81.26 278.33 80.92 277.64 79.01"/><polygon class="cls-10" points="279.21 81.6 272.54 82.03 274.62 83.86 279.9 83.52 279.21 81.6"/></g><g class="cls-21"><polygon class="cls-10" points="286.04 101.77 279.37 102.2 281.45 104.02 286.73 103.69 286.04 101.77"/><polygon class="cls-10" points="287.49 104.27 280.83 104.7 282.9 106.52 288.19 106.18 287.49 104.27"/><polygon class="cls-10" points="289.21 106.86 282.54 107.28 284.62 109.11 289.9 108.77 289.21 106.86"/></g><line class="cls-22" x1="287.57" y1="86.87" x2="301.24" y2="84.96"/><line class="cls-22" x1="287.96" y1="89.82" x2="301.49" y2="87.92"/><path class="cls-3" d="M152.69,123.74l15.71,2.71,5.77,1c1.84.35,3.54.72,5,1,2.92.63,4.86,1.14,4.86,1.14l0,.07s-2-.23-4.93-.69c-1.48-.25-3.2-.52-5-.87L168.3,127l-15.62-3.17Z"/></svg>