<svg id="Layer_8" data-name="Layer 8" xmlns="http://www.w3.org/2000/svg" xmlns:xlink="http://www.w3.org/1999/xlink" viewBox="0 0 260 168"><defs><style>.cls-1{fill:#c90505;}.cls-2{fill:#8e0303;}.cls-3{fill:#dd0505;}.cls-4{fill:#420202;}.cls-5{fill:#c90706;}.cls-6{fill:#aa0909;}.cls-7{clip-path:url(#clip-path);}.cls-8{fill:#a80202;}.cls-9{fill:#ea1f1f;}.cls-10{fill:#ef3a3a;}.cls-11{fill:#fff;}</style><clipPath id="clip-path"><path class="cls-1" d="M196.11,52.68s-.2,4.06,8.77,4.06,10.21-1.6,10.3-3.62l-16.24.5-2.78-1"/></clipPath></defs><ellipse class="cls-2" cx="199.07" cy="52.46" rx="1.58" ry="0.54" transform="matrix(0.96, -0.26, 0.26, 0.96, -6.79, 54.13)"/><ellipse class="cls-2" cx="197.38" cy="53.56" rx="1.58" ry="0.54" transform="translate(31.78 173.57) rotate(-51.11)"/><ellipse class="cls-2" cx="195.98" cy="55.99" rx="1.58" ry="0.54" transform="translate(65.39 212.48) rotate(-66.1)"/><ellipse class="cls-3" cx="192.43" cy="53.06" rx="0.33" ry="2.01" transform="translate(123.63 240.43) rotate(-85.25)"/><ellipse class="cls-4" cx="189.94" cy="51.19" rx="0.33" ry="2.01" transform="translate(-5.16 76.33) rotate(-22.43)"/><ellipse class="cls-3" cx="193.15" cy="54.94" rx="2.01" ry="0.33" transform="translate(-6.67 74.91) rotate(-21.59)"/><ellipse class="cls-4" cx="190.09" cy="54.38" rx="0.33" ry="2.01" transform="translate(23.89 161.47) rotate(-48.76)"/><path class="cls-5" d="M192.61,52.71a3.05,3.05,0,0,0,1.54,1.51c1.08.41,3,.54,3-.41S192.9,52.55,192.61,52.71Z"/><ellipse class="cls-6" cx="205.79" cy="57.63" rx="0.54" ry="1.58"/><ellipse class="cls-6" cx="206.82" cy="59.89" rx="0.54" ry="1.58" transform="translate(20.21 167.3) rotate(-46.07)"/><ellipse class="cls-6" cx="209.11" cy="61.49" rx="0.54" ry="1.58" transform="translate(54.11 214.74) rotate(-61.06)"/><ellipse class="cls-6" cx="203.19" cy="57.39" rx="1.58" ry="0.54" transform="translate(77.57 227.09) rotate(-69.26)"/><ellipse class="cls-6" cx="203.35" cy="59.87" rx="0.54" ry="1.58" transform="translate(-6.06 92.78) rotate(-25.34)"/><ellipse class="cls-6" cx="204.93" cy="62.18" rx="0.54" ry="1.58" transform="translate(8.45 147.38) rotate(-40.32)"/><ellipse class="cls-2" cx="202.91" cy="52.75" rx="1.58" ry="0.54" transform="translate(-6.67 58.53) rotate(-16.15)"/><ellipse class="cls-2" cx="201.03" cy="54.37" rx="1.58" ry="0.54" transform="translate(59.25 206.91) rotate(-62.23)"/><ellipse class="cls-2" cx="200.13" cy="57.02" rx="1.58" ry="0.54" transform="translate(100.23 239.57) rotate(-77.21)"/><ellipse class="cls-6" cx="197.96" cy="56.15" rx="1.58" ry="0.54" transform="translate(28.07 172.25) rotate(-50.18)"/><ellipse class="cls-6" cx="197.21" cy="58.02" rx="1.58" ry="0.54" transform="translate(125.8 250.78) rotate(-86.07)"/><ellipse class="cls-6" cx="197.45" cy="60.81" rx="0.54" ry="1.58" transform="translate(-8 38.99) rotate(-11.05)"/><ellipse class="cls-6" cx="208.31" cy="56.99" rx="0.37" ry="1.07"/><ellipse class="cls-6" cx="209.01" cy="58.52" rx="0.37" ry="1.07" transform="translate(21.87 168.46) rotate(-46.07)"/><ellipse class="cls-6" cx="210.56" cy="59.61" rx="0.37" ry="1.07" transform="translate(56.51 215.04) rotate(-61.06)"/><path class="cls-1" d="M196.11,52.68s-.2,4.06,8.77,4.06,10.21-1.6,10.3-3.62l-16.24.5-2.78-1"/><g class="cls-7"><path class="cls-8" d="M195.73,51.26s-1,3.81,7.14,4.6S215.65,55.8,216,52.4h0s-11.51-4.1-11.63-4.13S195.73,51.26,195.73,51.26Z"/></g><path class="cls-3" d="M216.09,52.68c0,1.67-2,3-7.6,3s-12.72-1.31-12.72-3,7.11-3.07,12.72-3.07S216.09,51,216.09,52.68Z"/><path class="cls-4" d="M202.26,50.27a23.9,23.9,0,0,1,1.36,4.63l3.25-3.06S203.35,50.14,202.26,50.27Z"/><path class="cls-4" d="M208.52,51.78s3.77-1.57,1.88-1.94c0,0,4.43-.17,5.37,2.23s-3.25,3.07-4.85,3.28C210.92,55.35,214.57,52.45,208.52,51.78Z"/><path class="cls-9" d="M202.15,50a1.85,1.85,0,0,0-2.31.08s0,3.61,1.64,4.87c0,0,1.93.8,2.14-.09S202.74,50.71,202.15,50Z"/><path class="cls-10" d="M199.84,50.12s-2.26-.21-3.27,1.17c0,0-.25,1.77.71,2.57a5.82,5.82,0,0,0,3.86,1A6.19,6.19,0,0,0,199.84,50.12Z"/><path class="cls-3" d="M196.57,51.29a3.61,3.61,0,0,0-4.07.76.54.54,0,0,0,.25.84,5.35,5.35,0,0,0,4.53,1S197.79,52.09,196.57,51.29Z"/><circle class="cls-11" cx="195.04" cy="52.74" r="0.76"/><circle cx="195.04" cy="52.75" r="0.61"/><circle class="cls-11" cx="194.71" cy="52.35" r="0.24"/></svg>