<svg xmlns="http://www.w3.org/2000/svg" xmlns:xlink="http://www.w3.org/1999/xlink" viewBox="0 0 260 168"><defs><style>.cls-1{fill:#c90505;}.cls-2{fill:#fff;}.cls-3{fill:#8e0303;}.cls-4{fill:#aa0909;}.cls-5{clip-path:url(#clip-path);}.cls-6{fill:#a80202;}.cls-7{fill:#dd0505;}.cls-8{fill:#420202;}.cls-9{fill:#ea1f1f;}.cls-10{fill:#ef3a3a;}.cls-11{fill:#c90706;}.cls-12{clip-path:url(#clip-path-2);}</style><clipPath id="clip-path"><path class="cls-1" d="M164.21,129.58s2,3.48-5.84,7.6-9.71,3.27-10.71,1.55l14.49-7,2-2.19"/></clipPath><clipPath id="clip-path-2"><ellipse class="cls-2" cx="164.94" cy="128.48" rx="0.63" ry="1.55" transform="matrix(0.78, -0.62, 0.62, 0.78, -44.12, 130.78)"/></clipPath></defs><g id="Layer_4" data-name="Layer 4"><ellipse class="cls-3" cx="161.51" cy="130.75" rx="1.57" ry="0.54" transform="translate(-24.26 37.63) rotate(-12.37)"/><ellipse class="cls-3" cx="163.49" cy="130.94" rx="0.54" ry="1.57" transform="translate(-21.81 228.6) rotate(-66.48)"/><ellipse class="cls-3" cx="165.84" cy="132.43" rx="0.54" ry="1.57" transform="translate(-41.04 179.76) rotate(-51.5)"/><ellipse class="cls-4" cx="155.54" cy="136.74" rx="0.54" ry="1.57" transform="translate(-10.15 260.97) rotate(-78.18)"/><ellipse class="cls-4" cx="157.52" cy="138.19" rx="0.54" ry="1.57" transform="translate(-49.36 104.86) rotate(-32.11)"/><ellipse class="cls-4" cx="158.61" cy="140.75" rx="0.54" ry="1.57" transform="matrix(0.96, -0.29, 0.29, 0.96, -34.41, 52.93)"/><ellipse class="cls-4" cx="158.7" cy="135.79" rx="0.54" ry="1.57" transform="translate(1.32 273.12) rotate(-81.66)"/><ellipse class="cls-4" cx="160.77" cy="137.13" rx="0.54" ry="1.57" transform="translate(-49.77 119.15) rotate(-35.58)"/><ellipse class="cls-4" cx="162.01" cy="139.61" rx="0.54" ry="1.57" transform="translate(-38.76 65.91) rotate(-20.59)"/><ellipse class="cls-3" cx="158.27" cy="132.77" rx="1.57" ry="0.54" transform="translate(-23.19 34.04) rotate(-11.44)"/><ellipse class="cls-3" cx="160.66" cy="133.33" rx="0.54" ry="1.57" transform="translate(-40.35 189.74) rotate(-55.37)"/><ellipse class="cls-3" cx="162.67" cy="135.24" rx="0.54" ry="1.57" transform="translate(-48.86 137.6) rotate(-40.38)"/><ellipse class="cls-4" cx="164.17" cy="133.49" rx="0.54" ry="1.57" transform="translate(-22.13 233.79) rotate(-67.41)"/><ellipse class="cls-4" cx="165.69" cy="134.78" rx="0.54" ry="1.57" transform="translate(-46.02 106.53) rotate(-31.52)"/><ellipse class="cls-4" cx="166.76" cy="137.34" rx="0.54" ry="1.57" transform="translate(-32.2 53.15) rotate(-16.54)"/><ellipse class="cls-4" cx="153.89" cy="138.95" rx="0.37" ry="1.06" transform="translate(-47.98 186.27) rotate(-55.27)"/><ellipse class="cls-4" cx="154.74" cy="140.38" rx="0.37" ry="1.06" transform="translate(-20.44 26.53) rotate(-9.2)"/><ellipse class="cls-4" cx="154.75" cy="142.26" rx="1.06" ry="0.37" transform="translate(-2.4 281.87) rotate(-84.21)"/><path class="cls-1" d="M164.21,129.58s2,3.48-5.84,7.6-9.71,3.27-10.71,1.55l14.49-7,2-2.19"/><g class="cls-5"><path class="cls-6" d="M163.89,128.16s2.62,2.89-4.16,7.32-11.25,5.81-13.14,3h0l8.32-9C155,129.43,163.89,128.16,163.89,128.16Z"/></g><path class="cls-7" d="M146.66,138.76c.77,1.46,3.12,1.7,8-.88s10.57-7,9.8-8.45-7.65.57-12.57,3.14S145.9,137.29,146.66,138.76Z"/><path class="cls-8" d="M157.7,130.29a23.23,23.23,0,0,0,.93,4.7l-4.26-1.2S156.68,130.68,157.7,130.29Z"/><path class="cls-8" d="M152.89,134.49s-4,.35-2.54-.84c0,0-4,1.88-3.69,4.43s4.26,1.19,5.76.65C152.42,138.73,147.89,137.85,152.89,134.49Z"/><path class="cls-9" d="M157.69,130a1.82,1.82,0,0,1,2.06-1s1.7,3.15.8,5c0,0-1.33,1.58-1.92.91S157.48,130.89,157.69,130Z"/><path class="cls-10" d="M159.75,129.05s1.9-1.23,3.42-.47c0,0,1,1.43.55,2.57a5.77,5.77,0,0,1-2.93,2.66A6.18,6.18,0,0,1,159.75,129.05Z"/><ellipse class="cls-7" cx="166.91" cy="127.52" rx="1.99" ry="0.33" transform="translate(-42.34 145.89) rotate(-42.4)"/><ellipse class="cls-8" cx="167.74" cy="124.55" rx="0.33" ry="1.99" transform="translate(-26.82 48.41) rotate(-15.22)"/><ellipse class="cls-7" cx="167.49" cy="129.44" rx="1.99" ry="0.33" transform="translate(-29.28 51.39) rotate(-16.06)"/><ellipse class="cls-8" cx="169.55" cy="127.15" rx="1.99" ry="0.33" transform="translate(12.11 269.01) rotate(-78.89)"/><path class="cls-11" d="M167.57,126.5a3.92,3.92,0,0,1-.39,2.74c-.76,1.26-2.65,2.92-3.39,2S167.16,126.56,167.57,126.5Z"/><path class="cls-7" d="M162.43,128.16a4.64,4.64,0,0,1,4.74-2.43.69.69,0,0,1,.4,1,6.85,6.85,0,0,1-3.86,4.54S161.82,129.93,162.43,128.16Z"/><ellipse class="cls-2" cx="164.94" cy="128.48" rx="0.63" ry="1.55" transform="matrix(0.78, -0.62, 0.62, 0.78, -44.12, 130.78)"/><g class="cls-12"><path d="M164.65,127.73c.15.17.34.26.42.19a.17.17,0,0,0,0-.17,2.74,2.74,0,0,1,.28.3c.38.47.53,1,.34,1.13s-.65-.11-1-.58-.53-1-.34-1.13a.24.24,0,0,1,.15,0A.57.57,0,0,0,164.65,127.73Z"/></g></g></svg>