<svg id="Layer_12" data-name="Layer 12" xmlns="http://www.w3.org/2000/svg" xmlns:xlink="http://www.w3.org/1999/xlink" viewBox="0 0 260 168"><defs><style>.cls-1{fill:#c90505;}.cls-2{fill:#8e0303;}.cls-3{fill:#dd0505;}.cls-4{fill:#420202;}.cls-5{fill:#c90706;}.cls-6{fill:#aa0909;}.cls-7{clip-path:url(#clip-path);}.cls-8{fill:#a80202;}.cls-9{fill:#ea1f1f;}.cls-10{fill:#ef3a3a;}.cls-11{fill:#fff;}</style><clipPath id="clip-path"><path class="cls-1" d="M142,52.68s-.2,4.06,8.77,4.06,10.21-1.6,10.3-3.62l-16.24.5-2.78-1"/></clipPath></defs><ellipse class="cls-2" cx="145.13" cy="52.75" rx="1.58" ry="0.54" transform="translate(-1.22 102) rotate(-38.57)"/><ellipse class="cls-2" cx="144.01" cy="54.43" rx="1.58" ry="0.54" transform="translate(52.99 178.59) rotate(-74.46)"/><ellipse class="cls-2" cx="143.69" cy="57.21" rx="1.58" ry="0.54" transform="translate(85.09 200.34) rotate(-89.45)"/><ellipse class="cls-3" cx="138.34" cy="53.06" rx="0.33" ry="2.01" transform="translate(74.01 186.53) rotate(-85.25)"/><ellipse class="cls-4" cx="135.84" cy="51.19" rx="0.33" ry="2.01" transform="translate(-9.25 55.69) rotate(-22.43)"/><ellipse class="cls-3" cx="139.06" cy="54.94" rx="2.01" ry="0.33" transform="translate(-10.46 55.01) rotate(-21.59)"/><ellipse class="cls-4" cx="136" cy="54.38" rx="0.33" ry="2.01" transform="translate(5.46 120.8) rotate(-48.76)"/><path class="cls-5" d="M138.52,52.71a3.05,3.05,0,0,0,1.54,1.51c1.07.41,3,.54,3-.41S138.8,52.55,138.52,52.71Z"/><ellipse class="cls-6" cx="151.2" cy="57.26" rx="1.58" ry="0.54" transform="translate(3.96 124.04) rotate(-45.14)"/><ellipse class="cls-6" cx="150.34" cy="59.58" rx="0.54" ry="1.58" transform="translate(-1.23 3.2) rotate(-1.21)"/><ellipse class="cls-6" cx="150.84" cy="62.34" rx="0.54" ry="1.58" transform="translate(-11.4 44.55) rotate(-16.2)"/><ellipse class="cls-6" cx="148.67" cy="56.93" rx="1.58" ry="0.54" transform="translate(-8.8 80.28) rotate(-29.39)"/><ellipse class="cls-6" cx="147.21" cy="58.93" rx="1.58" ry="0.54" transform="translate(53.21 186.63) rotate(-75.46)"/><ellipse class="cls-6" cx="146.94" cy="61.72" rx="0.54" ry="1.58" transform="translate(-0.48 1.15) rotate(-0.45)"/><ellipse class="cls-2" cx="149.32" cy="53.39" rx="1.58" ry="0.54" transform="translate(5.12 119.37) rotate(-44.26)"/><ellipse class="cls-2" cx="148.42" cy="55.7" rx="0.54" ry="1.58" transform="translate(-0.33 0.87) rotate(-0.34)"/><ellipse class="cls-2" cx="148.88" cy="58.47" rx="0.54" ry="1.58" transform="translate(-10.16 41.42) rotate(-15.32)"/><ellipse class="cls-6" cx="143.44" cy="55.56" rx="1.58" ry="0.54" transform="translate(-10.08 65.21) rotate(-24.77)"/><ellipse class="cls-6" cx="141.95" cy="56.92" rx="1.58" ry="0.54" transform="translate(22.77 152.76) rotate(-60.66)"/><ellipse class="cls-6" cx="140.98" cy="59.55" rx="1.58" ry="0.54" transform="translate(48.33 181.35) rotate(-75.64)"/><ellipse class="cls-6" cx="153.45" cy="56.98" rx="1.07" ry="0.37" transform="translate(11.26 138.06) rotate(-50.07)"/><ellipse class="cls-6" cx="153" cy="58.6" rx="0.37" ry="1.07" transform="translate(-5.39 16.7) rotate(-6.14)"/><ellipse class="cls-6" cx="153.5" cy="60.43" rx="0.37" ry="1.07" transform="translate(-11.46 59.39) rotate(-21.13)"/><path class="cls-1" d="M142,52.68s-.2,4.06,8.77,4.06,10.21-1.6,10.3-3.62l-16.24.5-2.78-1"/><g class="cls-7"><path class="cls-8" d="M141.63,51.26s-1,3.81,7.15,4.6,12.78-.06,13.15-3.46h0s-11.51-4.1-11.63-4.13S141.63,51.26,141.63,51.26Z"/></g><path class="cls-3" d="M162,52.68c0,1.67-2,3-7.59,3s-12.72-1.31-12.72-3,7.11-3.07,12.72-3.07S162,51,162,52.68Z"/><path class="cls-4" d="M148.16,50.27a23.55,23.55,0,0,1,1.37,4.63l3.25-3.06S149.26,50.14,148.16,50.27Z"/><path class="cls-4" d="M154.43,51.78s3.77-1.57,1.88-1.94c0,0,4.43-.17,5.37,2.23s-3.25,3.07-4.85,3.28C156.83,55.35,160.47,52.45,154.43,51.78Z"/><path class="cls-9" d="M148.06,50a1.85,1.85,0,0,0-2.31.08s0,3.61,1.64,4.87c0,0,1.93.8,2.14-.09S148.65,50.71,148.06,50Z"/><path class="cls-10" d="M145.75,50.12s-2.27-.21-3.27,1.17c0,0-.26,1.77.71,2.57a5.82,5.82,0,0,0,3.86,1A6.24,6.24,0,0,0,145.75,50.12Z"/><path class="cls-3" d="M142.48,51.29a3.62,3.62,0,0,0-4.08.76.55.55,0,0,0,.26.84,5.34,5.34,0,0,0,4.53,1S143.69,52.09,142.48,51.29Z"/><circle class="cls-11" cx="140.94" cy="52.74" r="0.76"/><circle cx="140.94" cy="52.75" r="0.61"/><circle class="cls-11" cx="140.62" cy="52.35" r="0.24"/></svg>