<svg id="Layer_15" data-name="Layer 15" xmlns="http://www.w3.org/2000/svg" xmlns:xlink="http://www.w3.org/1999/xlink" viewBox="0 0 260 168"><defs><style>.cls-1{fill:#c90505;}.cls-2{fill:#8e0303;}.cls-3{fill:#dd0505;}.cls-4{fill:#420202;}.cls-5{fill:#c90706;}.cls-6{fill:#aa0909;}.cls-7{clip-path:url(#clip-path);}.cls-8{fill:#a80202;}.cls-9{fill:#ea1f1f;}.cls-10{fill:#ef3a3a;}.cls-11{fill:#fff;}</style><clipPath id="clip-path"><path class="cls-1" d="M98.55,52.68s-.19,4.06,8.78,4.06,10.21-1.6,10.3-3.62l-16.24.5-2.79-1"/></clipPath></defs><ellipse class="cls-2" cx="101.51" cy="52.46" rx="1.58" ry="0.54" transform="matrix(0.96, -0.26, 0.26, 0.96, -10.22, 28.5)"/><ellipse class="cls-2" cx="99.83" cy="53.56" rx="1.58" ry="0.54" transform="translate(-4.53 97.64) rotate(-51.11)"/><ellipse class="cls-2" cx="98.43" cy="55.99" rx="1.58" ry="0.54" transform="translate(7.36 123.29) rotate(-66.1)"/><ellipse class="cls-3" cx="94.88" cy="53.06" rx="0.33" ry="2.01" transform="translate(34.15 143.21) rotate(-85.25)"/><ellipse class="cls-4" cx="92.38" cy="51.19" rx="0.33" ry="2.01" transform="translate(-12.54 39.11) rotate(-22.43)"/><ellipse class="cls-3" cx="95.6" cy="54.94" rx="2.01" ry="0.33" transform="translate(-13.51 39.02) rotate(-21.59)"/><ellipse class="cls-4" cx="92.54" cy="54.38" rx="0.33" ry="2.01" transform="translate(-9.35 88.12) rotate(-48.76)"/><path class="cls-5" d="M95.06,52.71a3.05,3.05,0,0,0,1.54,1.51c1.07.41,3,.54,3-.41S95.34,52.55,95.06,52.71Z"/><ellipse class="cls-6" cx="108.23" cy="57.63" rx="0.54" ry="1.58"/><ellipse class="cls-6" cx="109.26" cy="59.89" rx="0.54" ry="1.58" transform="translate(-9.67 97.04) rotate(-46.07)"/><ellipse class="cls-6" cx="111.56" cy="61.49" rx="0.54" ry="1.58" transform="translate(3.76 129.37) rotate(-61.06)"/><ellipse class="cls-6" cx="105.64" cy="57.39" rx="1.58" ry="0.54" transform="translate(14.56 135.86) rotate(-69.26)"/><ellipse class="cls-6" cx="105.8" cy="59.87" rx="0.54" ry="1.58" transform="translate(-15.44 51.03) rotate(-25.34)"/><ellipse class="cls-6" cx="107.38" cy="62.18" rx="0.54" ry="1.58" transform="translate(-14.73 84.26) rotate(-40.32)"/><ellipse class="cls-2" cx="105.36" cy="52.75" rx="1.58" ry="0.54" transform="translate(-10.52 31.39) rotate(-16.15)"/><ellipse class="cls-2" cx="103.47" cy="54.37" rx="1.58" ry="0.54" transform="translate(7.15 120.59) rotate(-62.23)"/><ellipse class="cls-2" cx="102.57" cy="57.02" rx="1.58" ry="0.54" transform="translate(24.26 144.43) rotate(-77.21)"/><ellipse class="cls-6" cx="100.41" cy="56.15" rx="1.58" ry="0.54" transform="translate(-7.02 97.32) rotate(-50.18)"/><ellipse class="cls-6" cx="99.65" cy="58.02" rx="1.58" ry="0.54" transform="translate(34.94 153.46) rotate(-86.07)"/><ellipse class="cls-6" cx="99.9" cy="60.81" rx="0.54" ry="1.58" transform="translate(-9.81 20.28) rotate(-11.05)"/><ellipse class="cls-6" cx="110.76" cy="56.99" rx="0.37" ry="1.07"/><ellipse class="cls-6" cx="111.46" cy="58.52" rx="0.37" ry="1.07" transform="translate(-8.01 98.2) rotate(-46.07)"/><ellipse class="cls-6" cx="113.01" cy="59.61" rx="0.37" ry="1.07" transform="translate(6.16 129.66) rotate(-61.06)"/><path class="cls-1" d="M98.55,52.68s-.19,4.06,8.78,4.06,10.21-1.6,10.3-3.62l-16.24.5-2.79-1"/><g class="cls-7"><path class="cls-8" d="M98.17,51.26s-1,3.81,7.15,4.6,12.77-.06,13.15-3.46h0S107,48.3,106.83,48.27,98.17,51.26,98.17,51.26Z"/></g><path class="cls-3" d="M118.53,52.68c0,1.67-2,3-7.59,3s-12.72-1.31-12.72-3,7.11-3.07,12.72-3.07S118.53,51,118.53,52.68Z"/><path class="cls-4" d="M104.7,50.27a23.55,23.55,0,0,1,1.37,4.63l3.25-3.06S105.79,50.14,104.7,50.27Z"/><path class="cls-4" d="M111,51.78s3.76-1.57,1.87-1.94c0,0,4.44-.17,5.38,2.23s-3.26,3.07-4.85,3.28C113.37,55.35,117,52.45,111,51.78Z"/><path class="cls-9" d="M104.6,50a1.86,1.86,0,0,0-2.31.08s0,3.61,1.64,4.87c0,0,1.93.8,2.14-.09S105.18,50.71,104.6,50Z"/><path class="cls-10" d="M102.29,50.12S100,49.91,99,51.29c0,0-.25,1.77.72,2.57a5.82,5.82,0,0,0,3.86,1A6.24,6.24,0,0,0,102.29,50.12Z"/><path class="cls-3" d="M99,51.29a3.61,3.61,0,0,0-4.07.76.54.54,0,0,0,.25.84,5.36,5.36,0,0,0,4.54,1S100.23,52.09,99,51.29Z"/><circle class="cls-11" cx="97.48" cy="52.74" r="0.76"/><circle cx="97.48" cy="52.75" r="0.61"/><circle class="cls-11" cx="97.15" cy="52.35" r="0.24"/></svg>