<svg id="Layer_7" data-name="Layer 7" xmlns="http://www.w3.org/2000/svg" xmlns:xlink="http://www.w3.org/1999/xlink" viewBox="0 0 260 168"><defs><style>.cls-1{fill:none;}.cls-2{fill:#c90505;}.cls-3{clip-path:url(#clip-path);}.cls-4{fill:#8e0303;}.cls-5{fill:#dd0505;}.cls-6{fill:#420202;}.cls-7{fill:#c90706;}.cls-8{fill:#aa0909;}.cls-9{clip-path:url(#clip-path-2);}.cls-10{fill:#a80202;}.cls-11{fill:#ea1f1f;}.cls-12{fill:#ef3a3a;}.cls-13{fill:#fff;}.cls-14{fill:#4c2308;}</style><clipPath id="clip-path"><path class="cls-1" d="M55.21,108.79l-.44,14.93s1.13,5.63,11.43,2.16,15.79,1.57,18.65.47-1.1-16.68-1.1-16.68Z"/></clipPath><clipPath id="clip-path-2"><path class="cls-2" d="M90.17,147.53s-2.74,3-9.08-3.34-6.08-8.35-4.72-9.84l11.12,11.84,2.71,1.24"/></clipPath></defs><g class="cls-3"><ellipse class="cls-4" cx="88.51" cy="147.04" rx="0.54" ry="1.58" transform="translate(-61.28 63.27) rotate(-29.74)"/><ellipse class="cls-4" cx="88.93" cy="149" rx="1.58" ry="0.54" transform="translate(-68.74 221.47) rotate(-83.85)"/><ellipse class="cls-4" cx="88.2" cy="151.71" rx="1.58" ry="0.54" transform="translate(-85.11 179.28) rotate(-68.87)"/><ellipse class="cls-5" cx="92.5" cy="150.4" rx="0.33" ry="2.01" transform="translate(-82.04 123.71) rotate(-49.71)"/><ellipse class="cls-6" cx="95.58" cy="150.85" rx="2.01" ry="0.33" transform="translate(-50.52 48.16) rotate(-22.54)"/><ellipse class="cls-5" cx="90.65" cy="151.22" rx="0.33" ry="2.01" transform="translate(-52.56 48.39) rotate(-23.38)"/><ellipse class="cls-6" cx="93.22" cy="152.99" rx="0.33" ry="2.01" transform="translate(-65.61 235.88) rotate(-86.2)"/><path class="cls-7" d="M92.61,150a3.08,3.08,0,0,1-2.15,0c-1-.47-2.52-1.77-1.85-2.43S92.53,149.72,92.61,150Z"/><ellipse class="cls-8" cx="79.83" cy="144.18" rx="1.58" ry="0.54" transform="translate(-78.54 98.58) rotate(-44.96)"/><ellipse class="cls-8" cx="77.5" cy="145.05" rx="0.54" ry="1.58" transform="translate(-69.03 219.72) rotate(-88.89)"/><ellipse class="cls-8" cx="74.74" cy="144.56" rx="0.54" ry="1.58" transform="translate(-84.87 176.29) rotate(-73.9)"/><ellipse class="cls-8" cx="81.83" cy="145.85" rx="1.58" ry="0.54" transform="translate(-84.77 160.42) rotate(-65.7)"/><ellipse class="cls-8" cx="79.96" cy="147.49" rx="1.58" ry="0.54" transform="translate(-44.9 35.43) rotate(-19.63)"/><ellipse class="cls-8" cx="77.2" cy="148" rx="1.58" ry="0.54" transform="translate(-11.73 6.73) rotate(-4.64)"/><ellipse class="cls-4" cx="83.52" cy="144.14" rx="0.54" ry="1.58" transform="translate(-59.13 58.09) rotate(-28.81)"/><ellipse class="cls-4" cx="83.71" cy="146.62" rx="1.58" ry="0.54" transform="translate(-81.14 183.04) rotate(-72.74)"/><ellipse class="cls-4" cx="82.47" cy="149.13" rx="1.58" ry="0.54" transform="translate(-87.66 139.3) rotate(-57.75)"/><ellipse class="cls-8" cx="86.4" cy="148.67" rx="1.58" ry="0.54" transform="translate(-69.52 221.19) rotate(-84.78)"/><ellipse class="cls-8" cx="85.61" cy="150.53" rx="1.58" ry="0.54" transform="translate(-84.1 116.08) rotate(-48.9)"/><ellipse class="cls-8" cx="83.46" cy="152.33" rx="1.58" ry="0.54" transform="translate(-70.79 72.47) rotate(-33.91)"/><ellipse class="cls-8" cx="78.49" cy="141.94" rx="1.07" ry="0.37" transform="translate(-77.35 96.98) rotate(-44.96)"/><ellipse class="cls-8" cx="76.92" cy="142.53" rx="0.37" ry="1.07" transform="translate(-67.08 216.67) rotate(-88.89)"/><ellipse class="cls-8" cx="75.05" cy="142.2" rx="0.37" ry="1.07" transform="translate(-82.38 174.88) rotate(-73.9)"/><path class="cls-2" d="M90.17,147.53s-2.74,3-9.08-3.34-6.08-8.35-4.72-9.84l11.12,11.84,2.71,1.24"/><g class="cls-9"><path class="cls-10" d="M91.44,146.8s-2,3.39-8.3-1.81-9-9.08-6.84-11.75h0s11,5.25,11.13,5.32S91.44,146.8,91.44,146.8Z"/></g><path class="cls-5" d="M76.05,133.4c-1.18,1.18-.71,3.51,3.26,7.48s9.91,8.07,11.09,6.89-2.85-7.2-6.81-11.17S77.23,132.22,76.05,133.4Z"/><path class="cls-6" d="M87.53,141.48a23.69,23.69,0,0,0-4.25,2.31l-.13-4.47S86.85,140.62,87.53,141.48Z"/><path class="cls-6" d="M82,138.11s-1.55-3.77,0-2.7c0,0-3-3.25-5.38-2.22s.13,4.47,1.11,5.74C77.81,138.93,77.29,134.31,82,138.11Z"/><path class="cls-11" d="M87.77,141.39a1.85,1.85,0,0,1,1.57,1.69s-2.53,2.58-4.6,2.28c0,0-1.93-.8-1.46-1.57S86.88,141.45,87.77,141.39Z"/><path class="cls-12" d="M89.34,143.08s1.75,1.46,1.48,3.15c0,0-1.07,1.42-2.31,1.3a5.81,5.81,0,0,1-3.45-2A6.27,6.27,0,0,1,89.34,143.08Z"/><path class="cls-5" d="M90.82,146.23a3.59,3.59,0,0,1,2.34,3.41.54.54,0,0,1-.77.42,5.35,5.35,0,0,1-3.88-2.53S89.4,145.93,90.82,146.23Z"/><circle class="cls-13" cx="90.88" cy="148.34" r="0.76"/><circle cx="90.88" cy="148.34" r="0.61"/><circle class="cls-13" cx="91.39" cy="148.29" r="0.24"/><path class="cls-14" d="M77,147.68a.81.81,0,0,0-.48-.08.41.41,0,0,1,.33-.41c.21-.06.73-.05.82.23S77.25,147.76,77,147.68Z"/><path class="cls-14" d="M76.45,148.33a.75.75,0,0,1-.47-.11.43.43,0,0,0,.15.51c.17.14.66.31.84.09S76.68,148.33,76.45,148.33Z"/><path class="cls-14" d="M76.8,147.82l-.17,0h0a.07.07,0,0,0,0,.07.25.25,0,0,0,0,.07c-.08,0-.06.16,0,.21a.19.19,0,0,0,.22,0,.21.21,0,0,0,.07-.13.12.12,0,0,0-.07-.12"/><path class="cls-14" d="M74.81,141.63a.31.31,0,0,0-.3.05.2.2,0,0,0,0,.22c.17.34.72.68,1,.27S75.12,141.68,74.81,141.63Z"/><path class="cls-14" d="M74.93,144a2.57,2.57,0,0,0-1.1-.08.42.42,0,0,0-.3.17.71.71,0,0,0,.47.37,1.15,1.15,0,0,1,.53.29c.08.1.15.25.27.24s.17-.09.26-.13a.39.39,0,0,1,.24,0,.48.48,0,0,0,.24,0,.15.15,0,0,0,.09-.2s.11,0,.12-.05A1.35,1.35,0,0,0,74.93,144Z"/><path class="cls-14" d="M83.29,151.68a.38.38,0,0,0-.21,0c-.14.05-.19.23-.29.35a1.12,1.12,0,0,1-.47.25c-.17.07-.33.23-.29.41a.26.26,0,0,0,.19.16.23.23,0,0,0,.23-.11.2.2,0,0,0,.22.09c.17-.05.2-.32.38-.35a.3.3,0,0,1,.13,0C83.79,152.57,83.87,151.83,83.29,151.68Z"/><path class="cls-14" d="M83,153c-.18.06-.33.23-.52.21a.75.75,0,0,1-.24-.08.29.29,0,0,0-.26,0,.85.85,0,0,0,.56.43,1,1,0,0,0,.34.08,1,1,0,0,0,.59-.36C83.57,153,83.19,152.92,83,153Z"/></g></svg>