<svg id="Layer_3" data-name="Layer 3" xmlns="http://www.w3.org/2000/svg" xmlns:xlink="http://www.w3.org/1999/xlink" viewBox="0 0 260 168"><defs><style>.cls-1{fill:none;}.cls-2{fill:#c90505;}.cls-3{clip-path:url(#clip-path);}.cls-4{fill:#dd0505;}.cls-5{fill:#420202;}.cls-6{fill:#c90706;}.cls-7{clip-path:url(#clip-path-2);}.cls-8{fill:#a80202;}.cls-9{fill:#ea1f1f;}.cls-10{fill:#ef3a3a;}.cls-11{fill:#fff;}</style><clipPath id="clip-path"><path class="cls-1" d="M172.52,132.33s17.08-.88,30.12-.18a70.2,70.2,0,0,0,23.25-2.64l2.29-14.62-6.7-8.8h-34c-3.52,0-13.39,6.34-13.39,6.34l-5.28,6.69Z"/></clipPath><clipPath id="clip-path-2"><path class="cls-2" d="M184.37,129.72s2.44,6,15.5,0,13.79-9.19,12.58-12.18l-23.32,11.62-4.75.35"/></clipPath></defs><g class="cls-3"><ellipse class="cls-4" cx="179.27" cy="132.73" rx="3.22" ry="0.53" transform="translate(-34.56 69.22) rotate(-19.97)"/><ellipse class="cls-5" cx="174.39" cy="131.68" rx="0.53" ry="3.22" transform="translate(-40.75 169.97) rotate(-47.15)"/><ellipse class="cls-4" cx="181.59" cy="134.99" rx="3.22" ry="0.53" transform="matrix(0.69, -0.72, 0.72, 0.69, -41.46, 173.05)"/><ellipse class="cls-5" cx="176.75" cy="136.22" rx="0.53" ry="3.22" transform="translate(-4.1 266.95) rotate(-73.48)"/><path class="cls-6" d="M179.3,132.11a4.94,4.94,0,0,0,3.26,1.16c1.84-.12,4.76-1.24,4.13-2.62S179.61,131.69,179.3,132.11Z"/><path class="cls-2" d="M184.37,129.72s2.44,6,15.5,0,13.79-9.19,12.58-12.18l-23.32,11.62-4.75.35"/><g class="cls-7"><path class="cls-8" d="M182.87,127.91s1.11,6.21,13.48,1.9,18.57-8.66,16.83-13.86h0s-19.5,1.76-19.71,1.8S182.87,127.91,182.87,127.91Z"/></g><path class="cls-4" d="M213.47,116.32c1.12,2.44-.9,5.67-9.07,9.43s-19.4,6.63-20.52,4.19,8.3-9.23,16.47-13S212.35,113.89,213.47,116.32Z"/><path class="cls-5" d="M191.71,122.08a37.33,37.33,0,0,1,5.09,5.84l2.69-6.64S193.21,121.16,191.71,122.08Z"/><path class="cls-5" d="M201.84,120.08s4.44-4.8,1.44-4.09c0,0,6.34-3.22,9.32-.34s-2.68,6.64-4.87,8C207.73,123.66,211.09,117,201.84,120.08Z"/><path class="cls-9" d="M191.4,121.81s-1.91-.6-3.31,1.67c0,0,2.36,5.29,5.65,6,0,0,3.35-.14,3.06-1.56S192.71,122.4,191.4,121.81Z"/><path class="cls-10" d="M188.09,123.48s-3.44,1.22-4,3.91c0,0,.82,2.74,2.76,3.25,0,0,3.8.69,6.3-1.12C193.17,129.52,192,125.17,188.09,123.48Z"/><path class="cls-4" d="M184.11,127.39s-3.54-.29-5.42,3.83a.86.86,0,0,0,.93,1.05,8.55,8.55,0,0,0,7.25-1.63S186.42,127.74,184.11,127.39Z"/><circle class="cls-11" cx="182.85" cy="130.53" r="1.21"/><circle cx="182.86" cy="130.53" r="0.98"/><circle class="cls-11" cx="182.11" cy="130.18" r="0.39"/></g></svg>