<svg id="Layer_5" data-name="Layer 5" xmlns="http://www.w3.org/2000/svg" xmlns:xlink="http://www.w3.org/1999/xlink" viewBox="0 0 260 168"><defs><style>.cls-1{fill:#c90505;}.cls-2{fill:#fff;}.cls-3{fill:#8e0303;}.cls-4{fill:#aa0909;}.cls-5{clip-path:url(#clip-path);}.cls-6{fill:#a80202;}.cls-7{fill:#dd0505;}.cls-8{fill:#420202;}.cls-9{fill:#ea1f1f;}.cls-10{fill:#ef3a3a;}.cls-11{fill:#c90706;}.cls-12{clip-path:url(#clip-path-2);}</style><clipPath id="clip-path"><path class="cls-1" d="M186.86,121.44s-4.19,4.56,6.31,13.3,13.5,8.07,15.57,5.81l-19.48-15.24L187,121.38"/></clipPath><clipPath id="clip-path-2"><ellipse class="cls-2" cx="186.12" cy="119.55" rx="2.39" ry="0.96" transform="translate(-33.65 144.69) rotate(-39.24)"/></clipPath></defs><ellipse class="cls-3" cx="190.53" cy="124.07" rx="0.83" ry="2.41" transform="translate(-1.56 245.72) rotate(-65.42)"/><ellipse class="cls-3" cx="187.49" cy="123.71" rx="2.41" ry="0.83" transform="translate(-20.61 39.15) rotate(-11.3)"/><ellipse class="cls-3" cx="183.49" cy="125.19" rx="2.41" ry="0.83" transform="translate(-36.47 94.22) rotate(-26.29)"/><ellipse class="cls-4" cx="197.56" cy="135" rx="0.83" ry="2.41" transform="translate(61.2 331.62) rotate(-89.6)"/><ellipse class="cls-4" cx="194.11" cy="136.54" rx="2.41" ry="0.83" transform="translate(-39.2 180.02) rotate(-45.68)"/><ellipse class="cls-4" cx="191.64" cy="140.02" rx="2.41" ry="0.83" transform="translate(-24.32 238.49) rotate(-60.66)"/><ellipse class="cls-4" cx="193.11" cy="132.56" rx="0.83" ry="2.41" transform="matrix(0.07, -1, 1, 0.07, 47.81, 316.27)"/><ellipse class="cls-4" cx="189.58" cy="133.89" rx="2.41" ry="0.83" transform="translate(-40.8 162.07) rotate(-42.21)"/><ellipse class="cls-4" cx="186.9" cy="137.22" rx="2.41" ry="0.83" transform="translate(-29.69 219.96) rotate(-57.19)"/><ellipse class="cls-3" cx="194.75" cy="128.16" rx="0.83" ry="2.41" transform="translate(-0.78 255.12) rotate(-66.34)"/><ellipse class="cls-3" cx="190.97" cy="128.21" rx="2.41" ry="0.83" transform="translate(-34.47 82.53) rotate(-22.42)"/><ellipse class="cls-3" cx="187.33" cy="130.44" rx="2.41" ry="0.83" transform="translate(-40.71 140.63) rotate(-37.41)"/><ellipse class="cls-4" cx="185.65" cy="127.31" rx="2.41" ry="0.83" transform="translate(-19.89 35.52) rotate(-10.38)"/><ellipse class="cls-4" cx="182.95" cy="128.75" rx="2.41" ry="0.83" transform="translate(-36.56 171.92) rotate(-46.26)"/><ellipse class="cls-4" cx="180.51" cy="132.26" rx="2.41" ry="0.83" transform="translate(-22.27 226.9) rotate(-61.25)"/><ellipse class="cls-4" cx="199.31" cy="138.86" rx="1.63" ry="0.56" transform="translate(-37.98 86.9) rotate(-22.51)"/><ellipse class="cls-4" cx="197.57" cy="140.73" rx="1.63" ry="0.56" transform="translate(-5.57 273.3) rotate(-68.59)"/><ellipse class="cls-4" cx="196.95" cy="143.55" rx="1.63" ry="0.56" transform="translate(32.26 323.2) rotate(-83.58)"/><path class="cls-1" d="M186.86,121.44s-4.19,4.56,6.31,13.3,13.5,8.07,15.57,5.81l-19.48-15.24L187,121.38"/><g class="cls-5"><path class="cls-6" d="M187.8,119.41s-4.87,3.49,3.87,12.34,15,12.38,18.75,8.77h0s-9.47-16-9.58-16.16S187.8,119.41,187.8,119.41Z"/></g><path class="cls-7" d="M210.22,140.91c-1.62,2-5.22,1.55-11.78-3.92s-13.6-13.92-12-15.88,11.3,3.34,17.86,8.81S211.85,139,210.22,140.91Z"/><path class="cls-8" d="M196.4,124.61a35.28,35.28,0,0,1-2.92,6.75l6.79-.41S197.8,125.53,196.4,124.61Z"/><path class="cls-8" d="M202.26,132.48s5.93,1.85,4.08-.44c0,0,5.35,4.12,4.11,7.85s-6.79.42-8.86-.89C201.59,139,208.67,139.16,202.26,132.48Z"/><path class="cls-9" d="M196.51,124.24a2.83,2.83,0,0,0-2.79-2.15s-3.56,4.18-2.83,7.29c0,0,1.48,2.81,2.59,2S196.54,125.6,196.51,124.24Z"/><path class="cls-10" d="M193.72,122.09s-2.44-2.46-5-1.82c0,0-2,1.82-1.66,3.69,0,0,1,3.54,3.53,4.94C190.62,128.9,193.86,126.11,193.72,122.09Z"/><ellipse class="cls-7" cx="183.47" cy="117.47" rx="0.5" ry="3.06" transform="translate(-34.13 127.96) rotate(-35.39)"/><ellipse class="cls-8" cx="183.2" cy="112.73" rx="3.06" ry="0.5" transform="translate(-1.27 223.38) rotate(-62.56)"/><ellipse class="cls-7" cx="181.99" cy="120.17" rx="0.5" ry="3.06" transform="matrix(0.47, -0.88, 0.88, 0.47, -10.05, 223.52)"/><ellipse class="cls-8" cx="179.64" cy="116.04" rx="3.06" ry="0.5" transform="translate(60.16 293.42) rotate(-88.9)"/><path class="cls-11" d="M182.82,115.71a6.07,6.07,0,0,0-.32,4.25c.75,2.14,3,5.25,4.47,4S183.42,115.94,182.82,115.71Z"/><path class="cls-7" d="M190,119.88s-.81-4.3-6.32-5.18a1.06,1.06,0,0,0-.94,1.45c.29,1.37.07,4.71,4.31,8.06C187,124.21,190.34,122.73,190,119.88Z"/><ellipse class="cls-2" cx="186.12" cy="119.55" rx="2.39" ry="0.96" transform="translate(-33.65 144.69) rotate(-39.24)"/><g class="cls-12"><path d="M186.8,118.51c-.29.22-.6.28-.7.14a.25.25,0,0,1,0-.25,3.16,3.16,0,0,0-.52.35c-.72.59-1.11,1.31-.87,1.6s1,.05,1.73-.54,1.11-1.31.88-1.6a.41.41,0,0,0-.21-.1A.92.92,0,0,1,186.8,118.51Z"/></g></svg>