<svg xmlns="http://www.w3.org/2000/svg" xmlns:xlink="http://www.w3.org/1999/xlink" viewBox="0 0 260 168"><defs><style>.cls-1{fill:#af1010;}.cls-2{fill:#fff;}.cls-3{fill:#420202;}.cls-4{fill:#c90505;}.cls-5{fill:#d81e1e;}.cls-6{fill:#900;}.cls-7{clip-path:url(#clip-path);}.cls-8{fill:none;stroke:#930909;stroke-miterlimit:10;stroke-width:0.12px;}.cls-9{clip-path:url(#clip-path-2);}.cls-10{clip-path:url(#clip-path-3);}.cls-11{clip-path:url(#clip-path-4);}.cls-12{fill:#ea2828;}</style><clipPath id="clip-path"><path class="cls-1" d="M158.3,133.72c0,3.35-1.32,4.81-2.94,4.81s-2.93-1.46-2.93-4.82,1.32-7.35,2.94-7.34S158.3,130.36,158.3,133.72Z"/></clipPath><clipPath id="clip-path-2"><ellipse class="cls-2" cx="154.31" cy="123.96" rx="1.18" ry="0.64" transform="translate(7.51 256.72) rotate(-80.9)"/></clipPath><clipPath id="clip-path-3"><ellipse class="cls-2" cx="156.39" cy="123.96" rx="0.64" ry="1.18" transform="translate(-17.51 26.07) rotate(-9.03)"/></clipPath><clipPath id="clip-path-4"><path class="cls-3" d="M154.88,125.74a1,1,0,0,0,1.05,0S155.48,127.33,154.88,125.74Z"/></clipPath></defs><g id="Layer_13" data-name="Layer 13"><ellipse class="cls-4" cx="155.35" cy="128.45" rx="3.56" ry="1.67"/><ellipse class="cls-5" cx="155.35" cy="126.14" rx="3.02" ry="1.89"/><path class="cls-4" d="M159.09,133.47c0,4.27-1.67,6.11-3.73,6.11s-3.73-1.85-3.73-6.12,1.68-9.33,3.74-9.33S159.09,129.2,159.09,133.47Z"/><path class="cls-6" d="M158.74,133.53c0,3.86-1.52,5.54-3.38,5.53s-3.38-1.67-3.37-5.53,1.51-8.45,3.38-8.45S158.74,129.67,158.74,133.53Z"/><ellipse class="cls-6" cx="152.98" cy="135.16" rx="1.67" ry="0.58" transform="translate(-49.98 157.03) rotate(-47.61)"/><ellipse class="cls-6" cx="151.85" cy="137.47" rx="1.6" ry="0.6" transform="translate(-18.43 251.31) rotate(-75.92)"/><ellipse class="cls-6" cx="150.94" cy="139.93" rx="1.62" ry="0.6" transform="translate(-44.56 204.29) rotate(-61.05)"/><ellipse class="cls-6" cx="159.04" cy="136.51" rx="0.58" ry="1.67" transform="translate(-45.92 92.71) rotate(-28.58)"/><ellipse class="cls-6" cx="159.39" cy="139.07" rx="1.6" ry="0.6" transform="translate(-5.07 272.11) rotate(-80.08)"/><ellipse class="cls-6" cx="159.22" cy="141.69" rx="0.6" ry="1.62" transform="translate(-11.62 14.25) rotate(-4.94)"/><ellipse class="cls-6" cx="159.66" cy="133.88" rx="0.58" ry="1.67" transform="translate(-44.44 175.8) rotate(-51.59)"/><ellipse class="cls-6" cx="161.14" cy="135.98" rx="0.6" ry="1.6" transform="translate(-40.62 74.75) rotate(-23.28)"/><ellipse class="cls-6" cx="162.43" cy="138.26" rx="0.6" ry="1.62" transform="translate(-50.71 129.85) rotate(-38.15)"/><ellipse class="cls-6" cx="159.66" cy="131.16" rx="0.58" ry="1.67" transform="translate(2.49 265.28) rotate(-79.88)"/><ellipse class="cls-6" cx="161.96" cy="132.3" rx="0.6" ry="1.6" transform="translate(-42.35 176.94) rotate(-51.57)"/><ellipse class="cls-6" cx="164.18" cy="133.7" rx="0.6" ry="1.62" transform="translate(-24.01 230.75) rotate(-66.44)"/><ellipse class="cls-6" cx="153.38" cy="130.83" rx="1.67" ry="0.58" transform="translate(-16.77 22.7) rotate(-8.03)"/><ellipse class="cls-6" cx="151.03" cy="131.89" rx="1.6" ry="0.6" transform="translate(-48.78 115.14) rotate(-36.34)"/><ellipse class="cls-6" cx="148.77" cy="133.21" rx="1.62" ry="0.6" transform="translate(-38.43 63.69) rotate(-21.47)"/><ellipse class="cls-6" cx="152.68" cy="132.41" rx="1.67" ry="0.58" transform="translate(-48.13 109.62) rotate(-34.46)"/><ellipse class="cls-6" cx="151.05" cy="134.41" rx="1.6" ry="0.6" transform="translate(-37.58 207.21) rotate(-62.77)"/><ellipse class="cls-6" cx="149.61" cy="136.6" rx="1.62" ry="0.6" transform="translate(-52.04 156.03) rotate(-47.9)"/><ellipse class="cls-6" cx="152.09" cy="127.96" rx="0.58" ry="1.67" transform="translate(-42.57 168.12) rotate(-51.73)"/><ellipse class="cls-6" cx="150.6" cy="125.86" rx="0.6" ry="1.6" transform="translate(-37.62 70.24) rotate(-23.42)"/><ellipse class="cls-6" cx="149.3" cy="123.58" rx="0.6" ry="1.62" transform="translate(-44.46 119.1) rotate(-38.29)"/><ellipse class="cls-6" cx="158.67" cy="127.96" rx="1.67" ry="0.58" transform="matrix(0.79, -0.62, 0.62, 0.79, -45.15, 125.51)"/><ellipse class="cls-6" cx="160.17" cy="125.87" rx="1.6" ry="0.6" transform="translate(-19.12 222.58) rotate(-66.51)"/><ellipse class="cls-6" cx="161.46" cy="123.59" rx="1.62" ry="0.6" transform="translate(-35.65 173.49) rotate(-51.64)"/><ellipse class="cls-5" cx="153.03" cy="124.8" rx="0.32" ry="2.17" transform="translate(-44.43 123.04) rotate(-38.69)"/><ellipse class="cls-3" cx="151.53" cy="121.5" rx="0.32" ry="2.17" transform="translate(-17.39 25.64) rotate(-9.15)"/><ellipse class="cls-5" cx="157.62" cy="124.8" rx="2.17" ry="0.32" transform="translate(-38.38 169.58) rotate(-51.24)"/><ellipse class="cls-3" cx="159.12" cy="121.5" rx="2.17" ry="0.32" transform="translate(13.69 259.1) rotate(-80.78)"/><path class="cls-1" d="M158.3,133.72c0,3.35-1.32,4.81-2.94,4.81s-2.93-1.46-2.93-4.82,1.32-7.35,2.94-7.34S158.3,130.36,158.3,133.72Z"/><g class="cls-7"><ellipse class="cls-8" cx="155.23" cy="129.46" rx="4.78" ry="4.2"/><path class="cls-8" d="M160,131.76a4.82,4.82,0,0,1-9.55,0"/><path class="cls-8" d="M160,133.72a4.81,4.81,0,0,1-9.55,0"/></g><path class="cls-4" d="M157.58,124.59c0-1.23-1-3.06-2.22-3.06s-2.23,1.82-2.23,3a2.23,2.23,0,1,0,4.45,0Z"/><ellipse class="cls-2" cx="154.31" cy="123.96" rx="1.18" ry="0.64" transform="translate(7.51 256.72) rotate(-80.9)"/><g class="cls-9"><path d="M154.52,123.28a.24.24,0,0,0-.16,0,.4.4,0,0,1,0,.31c0,.18-.14.3-.22.29s-.09-.14-.07-.28a1.34,1.34,0,0,0-.11.37c-.07.43.07.81.3.85s.48-.29.55-.72S154.76,123.32,154.52,123.28Z"/></g><ellipse class="cls-2" cx="156.39" cy="123.96" rx="0.64" ry="1.18" transform="translate(-17.51 26.07) rotate(-9.03)"/><g class="cls-10"><path d="M156.18,123.2a.22.22,0,0,1,.16,0,.46.46,0,0,0,0,.31c0,.18.14.31.22.29s.09-.13.07-.27a1.55,1.55,0,0,1,.1.36c.07.43-.06.81-.3.85s-.48-.28-.55-.72S156,123.24,156.18,123.2Z"/></g><path class="cls-3" d="M154.88,125.74a1,1,0,0,0,1.05,0S155.48,127.33,154.88,125.74Z"/><g class="cls-11"><ellipse class="cls-12" cx="155.41" cy="126.64" rx="0.51" ry="0.47"/></g></g></svg>