<svg id="Layer_16" data-name="Layer 16" xmlns="http://www.w3.org/2000/svg" xmlns:xlink="http://www.w3.org/1999/xlink" viewBox="0 0 260 168"><defs><style>.cls-1{fill:#c90505;}.cls-2{fill:#8e0303;}.cls-3{fill:#dd0505;}.cls-4{fill:#420202;}.cls-5{fill:#c90706;}.cls-6{fill:#aa0909;}.cls-7{clip-path:url(#clip-path);}.cls-8{fill:#a80202;}.cls-9{fill:#ea1f1f;}.cls-10{fill:#ef3a3a;}.cls-11{fill:#fff;}</style><clipPath id="clip-path"><path class="cls-1" d="M84.25,52.68s-.2,4.06,8.77,4.06,10.21-1.6,10.3-3.62l-16.24.5-2.78-1"/></clipPath></defs><ellipse class="cls-2" cx="87.36" cy="52.75" rx="1.58" ry="0.54" transform="translate(-13.83 65.98) rotate(-38.57)"/><ellipse class="cls-2" cx="86.24" cy="54.43" rx="1.58" ry="0.54" transform="translate(10.7 122.94) rotate(-74.46)"/><ellipse class="cls-2" cx="85.92" cy="57.21" rx="1.58" ry="0.54" transform="translate(27.88 142.58) rotate(-89.45)"/><ellipse class="cls-3" cx="80.57" cy="53.06" rx="0.33" ry="2.01" transform="translate(21.03 128.96) rotate(-85.25)"/><ellipse class="cls-4" cx="78.08" cy="51.19" rx="0.33" ry="2.01" transform="translate(-13.62 33.66) rotate(-22.43)"/><ellipse class="cls-3" cx="81.29" cy="54.94" rx="2.01" ry="0.33" transform="translate(-14.51 33.76) rotate(-21.59)"/><ellipse class="cls-4" cx="78.23" cy="54.38" rx="0.33" ry="2.01" transform="translate(-14.23 77.36) rotate(-48.76)"/><path class="cls-5" d="M80.75,52.71a3.05,3.05,0,0,0,1.54,1.51c1.07.41,3,.54,3-.41S81,52.55,80.75,52.71Z"/><ellipse class="cls-6" cx="93.44" cy="57.26" rx="1.58" ry="0.54" transform="translate(-13.06 83.1) rotate(-45.14)"/><ellipse class="cls-6" cx="92.57" cy="59.58" rx="0.54" ry="1.58" transform="translate(-1.24 1.97) rotate(-1.21)"/><ellipse class="cls-6" cx="93.07" cy="62.34" rx="0.54" ry="1.58" transform="translate(-13.7 28.44) rotate(-16.2)"/><ellipse class="cls-6" cx="90.9" cy="56.93" rx="1.58" ry="0.54" transform="translate(-16.24 51.93) rotate(-29.39)"/><ellipse class="cls-6" cx="89.44" cy="58.93" rx="1.58" ry="0.54" transform="translate(9.94 130.72) rotate(-75.46)"/><ellipse class="cls-6" cx="89.17" cy="61.72" rx="0.54" ry="1.58" transform="translate(-0.48 0.7) rotate(-0.45)"/><ellipse class="cls-2" cx="91.55" cy="53.39" rx="1.58" ry="0.54" transform="translate(-11.28 79.05) rotate(-44.26)"/><ellipse class="cls-2" cx="90.66" cy="55.7" rx="0.54" ry="1.58" transform="translate(-0.33 0.53) rotate(-0.34)"/><ellipse class="cls-2" cx="91.11" cy="58.47" rx="0.54" ry="1.58" transform="translate(-12.21 26.16) rotate(-15.32)"/><ellipse class="cls-6" cx="85.67" cy="55.56" rx="1.58" ry="0.54" transform="translate(-15.4 41.01) rotate(-24.77)"/><ellipse class="cls-6" cx="84.18" cy="56.92" rx="1.58" ry="0.54" transform="translate(-6.69 102.41) rotate(-60.66)"/><ellipse class="cls-6" cx="83.21" cy="59.55" rx="1.58" ry="0.54" transform="translate(4.89 125.39) rotate(-75.64)"/><ellipse class="cls-6" cx="95.68" cy="56.98" rx="1.07" ry="0.37" transform="translate(-9.43 93.77) rotate(-50.07)"/><ellipse class="cls-6" cx="95.23" cy="58.6" rx="0.37" ry="1.07" transform="translate(-5.72 10.52) rotate(-6.14)"/><ellipse class="cls-6" cx="95.73" cy="60.43" rx="0.37" ry="1.07" transform="translate(-15.35 38.57) rotate(-21.13)"/><path class="cls-1" d="M84.25,52.68s-.2,4.06,8.77,4.06,10.21-1.6,10.3-3.62l-16.24.5-2.78-1"/><g class="cls-7"><path class="cls-8" d="M83.87,51.26s-1,3.81,7.14,4.6,12.78-.06,13.15-3.46h0s-11.51-4.1-11.63-4.13S83.87,51.26,83.87,51.26Z"/></g><path class="cls-3" d="M104.23,52.68c0,1.67-2,3-7.6,3s-12.72-1.31-12.72-3S91,49.61,96.63,49.61,104.23,51,104.23,52.68Z"/><path class="cls-4" d="M90.4,50.27a23.9,23.9,0,0,1,1.36,4.63L95,51.84S91.49,50.14,90.4,50.27Z"/><path class="cls-4" d="M96.66,51.78s3.77-1.57,1.88-1.94c0,0,4.43-.17,5.37,2.23s-3.25,3.07-4.85,3.28C99.06,55.35,102.7,52.45,96.66,51.78Z"/><path class="cls-9" d="M90.29,50a1.85,1.85,0,0,0-2.31.08s0,3.61,1.64,4.87c0,0,1.93.8,2.14-.09S90.88,50.71,90.29,50Z"/><path class="cls-10" d="M88,50.12s-2.26-.21-3.27,1.17c0,0-.25,1.77.71,2.57a5.82,5.82,0,0,0,3.86,1A6.19,6.19,0,0,0,88,50.12Z"/><path class="cls-3" d="M84.71,51.29a3.61,3.61,0,0,0-4.07.76.54.54,0,0,0,.25.84,5.35,5.35,0,0,0,4.53,1S85.93,52.09,84.71,51.29Z"/><circle class="cls-11" cx="83.18" cy="52.74" r="0.76"/><circle cx="83.18" cy="52.75" r="0.61"/><circle class="cls-11" cx="82.85" cy="52.35" r="0.24"/></svg>