<svg id="Layer_1" data-name="Layer 1" xmlns="http://www.w3.org/2000/svg" xmlns:xlink="http://www.w3.org/1999/xlink" viewBox="0 0 260 168"><defs><style>.cls-1{fill:#c90505;}.cls-2{fill:#8e0303;}.cls-3{fill:#dd0505;}.cls-4{fill:#420202;}.cls-5{fill:#c90706;}.cls-6{fill:#aa0909;}.cls-7{clip-path:url(#clip-path);}.cls-8{fill:#a80202;}.cls-9{fill:#ea1f1f;}.cls-10{fill:#ef3a3a;}.cls-11{fill:#fff;}.cls-12{fill:#4c2308;}</style><clipPath id="clip-path"><path class="cls-1" d="M28.71,49.46s-2.62,3.1-9.2-3-6.39-8.11-5.09-9.65L26,48.22l2.74,1.13"/></clipPath></defs><ellipse class="cls-2" cx="27.03" cy="49.02" rx="0.54" ry="1.58" transform="matrix(0.85, -0.53, 0.53, 0.85, -21.84, 21.72)"/><ellipse class="cls-2" cx="27.53" cy="50.97" rx="1.58" ry="0.54" transform="translate(-25.22 74.92) rotate(-86.05)"/><ellipse class="cls-2" cx="26.9" cy="53.7" rx="1.58" ry="0.54" transform="translate(-32.63 61.72) rotate(-71.06)"/><ellipse class="cls-3" cx="31.15" cy="52.23" rx="0.33" ry="2.01" transform="translate(-29.17 44.52) rotate(-51.91)"/><ellipse class="cls-4" cx="34.25" cy="52.56" rx="2.01" ry="0.33" transform="translate(-18.85 19.15) rotate(-24.74)"/><ellipse class="cls-3" cx="29.33" cy="53.12" rx="0.33" ry="2.01" transform="translate(-20.06 17.87) rotate(-25.58)"/><ellipse class="cls-4" cx="31.97" cy="54.79" rx="0.33" ry="2.01" transform="translate(-23.7 85.21) rotate(-88.4)"/><path class="cls-5" d="M31.25,51.85a3.05,3.05,0,0,1-2.16.06c-1.06-.43-2.58-1.66-1.94-2.35S31.15,51.55,31.25,51.85Z"/><ellipse class="cls-6" cx="18.25" cy="46.5" rx="1.58" ry="0.54" transform="translate(-28.26 28.26) rotate(-47.16)"/><ellipse class="cls-6" cx="15.95" cy="47.46" rx="1.58" ry="0.54" transform="translate(-0.9 0.31) rotate(-1.09)"/><ellipse class="cls-6" cx="13.18" cy="47.07" rx="0.54" ry="1.58" transform="translate(-35.68 48.56) rotate(-76.1)"/><ellipse class="cls-6" cx="20.31" cy="48.09" rx="1.58" ry="0.54" transform="translate(-31.89 48.82) rotate(-67.9)"/><ellipse class="cls-6" cx="18.51" cy="49.8" rx="1.58" ry="0.54" transform="translate(-17.19 10.45) rotate(-21.82)"/><ellipse class="cls-6" cx="15.77" cy="50.42" rx="1.58" ry="0.54" transform="translate(-5.89 2.24) rotate(-6.84)"/><ellipse class="cls-2" cx="21.94" cy="46.32" rx="0.54" ry="1.58" transform="translate(-20.72 17.92) rotate(-31.01)"/><ellipse class="cls-2" cx="22.22" cy="48.78" rx="1.58" ry="0.54" transform="matrix(0.26, -0.97, 0.97, 0.26, -30.66, 57.56)"/><ellipse class="cls-2" cx="21.08" cy="51.34" rx="1.58" ry="0.54" transform="translate(-33.92 43.87) rotate(-59.95)"/><ellipse class="cls-6" cx="24.99" cy="50.74" rx="1.58" ry="0.54" transform="translate(-27 73.01) rotate(-86.98)"/><ellipse class="cls-6" cx="24.27" cy="52.62" rx="1.58" ry="0.54" transform="translate(-31.92 38.46) rotate(-51.09)"/><ellipse class="cls-6" cx="22.19" cy="54.5" rx="1.58" ry="0.54" transform="translate(-27.85 23.55) rotate(-36.11)"/><ellipse class="cls-6" cx="16.83" cy="44.32" rx="1.07" ry="0.37" transform="translate(-27.11 26.52) rotate(-47.16)"/><ellipse class="cls-6" cx="15.28" cy="44.96" rx="1.07" ry="0.37" transform="matrix(1, -0.02, 0.02, 1, -0.85, 0.3)"/><ellipse class="cls-6" cx="13.4" cy="44.7" rx="0.37" ry="1.07" transform="translate(-33.21 46.97) rotate(-76.1)"/><path class="cls-1" d="M28.71,49.46s-2.62,3.1-9.2-3-6.39-8.11-5.09-9.65L26,48.22l2.74,1.13"/><g class="cls-7"><path class="cls-8" d="M30,48.67s-1.86,3.47-8.36-1.48-9.33-8.74-7.29-11.48h0s11.22,4.82,11.33,4.88S30,48.67,30,48.67Z"/></g><path class="cls-3" d="M14.06,35.87c-1.14,1.22-.57,3.54,3.54,7.35S27.82,50.91,29,49.68s-3.12-7.08-7.24-10.89S15.19,34.65,14.06,35.87Z"/><path class="cls-4" d="M25.84,43.5A23.28,23.28,0,0,0,21.69,46l-.31-4.46S25.13,42.67,25.84,43.5Z"/><path class="cls-4" d="M20.22,40.35s-1.7-3.71-.06-2.7c0,0-3.13-3.14-5.46-2S15,40.1,16,41.33C16,41.33,15.33,36.73,20.22,40.35Z"/><path class="cls-9" d="M26.07,43.41s1.25,0,1.64,1.63c0,0-2.42,2.67-4.51,2.45,0,0-2-.72-1.51-1.51S25.19,43.5,26.07,43.41Z"/><path class="cls-10" d="M27.71,45s1.8,1.38,1.6,3.08c0,0-1,1.47-2.26,1.4a5.86,5.86,0,0,1-3.52-1.89A6.22,6.22,0,0,1,27.71,45Z"/><path class="cls-3" d="M29.31,48.12a3.62,3.62,0,0,1,2.47,3.33.53.53,0,0,1-.75.44,5.36,5.36,0,0,1-4-2.37S27.88,47.88,29.31,48.12Z"/><circle class="cls-11" cx="29.45" cy="50.23" r="0.76"/><circle cx="29.45" cy="50.23" r="0.61"/><circle class="cls-11" cx="29.96" cy="50.16" r="0.24"/><path class="cls-12" d="M15.59,50.1a.81.81,0,0,0-.48-.05.42.42,0,0,1,.3-.43c.22-.07.73-.07.83.2S15.81,50.18,15.59,50.1Z"/><path class="cls-12" d="M15,50.78a.88.88,0,0,1-.48-.09.44.44,0,0,0,.17.5c.18.13.68.28.85.05S15.26,50.77,15,50.78Z"/><path class="cls-12" d="M15.36,50.26l-.17,0h0a.08.08,0,0,0,0,.07.15.15,0,0,0,0,.07.13.13,0,0,0,0,.21.22.22,0,0,0,.23-.06.26.26,0,0,0,.06-.13.14.14,0,0,0-.07-.12"/><path class="cls-12" d="M13.13,44.14c-.1,0-.23,0-.29.07a.2.2,0,0,0,0,.22c.18.32.74.65,1,.23S13.45,44.19,13.13,44.14Z"/><path class="cls-12" d="M13.35,46.47a2.46,2.46,0,0,0-1.11,0,.43.43,0,0,0-.29.18.72.72,0,0,0,.48.36,1,1,0,0,1,.54.27c.09.09.16.23.29.23s.16-.11.25-.15a.49.49,0,0,1,.24,0,.39.39,0,0,0,.24,0,.15.15,0,0,0,.08-.2s.11,0,.12-.06A1.33,1.33,0,0,0,13.35,46.47Z"/><path class="cls-12" d="M22,53.86a.5.5,0,0,0-.21,0c-.15,0-.18.24-.28.36a1.24,1.24,0,0,1-.46.27c-.17.07-.33.24-.27.41a.22.22,0,0,0,.19.16.26.26,0,0,0,.23-.11.19.19,0,0,0,.22.07c.16-.06.19-.33.36-.36h.13C22.53,54.73,22.58,54,22,53.86Z"/><path class="cls-12" d="M21.74,55.18c-.17.07-.31.24-.5.23a.72.72,0,0,1-.25-.07.24.24,0,0,0-.25,0,.85.85,0,0,0,.57.41.82.82,0,0,0,.34.06,1.08,1.08,0,0,0,.58-.37C22.33,55.2,21.94,55.1,21.74,55.18Z"/></svg>