<svg id="Layer_4" data-name="Layer 4" xmlns="http://www.w3.org/2000/svg" xmlns:xlink="http://www.w3.org/1999/xlink" viewBox="0 0 260 168"><defs><style>.cls-1{fill:#c90505;}.cls-2{fill:#8e0303;}.cls-3{fill:#dd0505;}.cls-4{fill:#420202;}.cls-5{fill:#c90706;}.cls-6{fill:#aa0909;}.cls-7{clip-path:url(#clip-path);}.cls-8{fill:#a80202;}.cls-9{fill:#ea1f1f;}.cls-10{fill:#ef3a3a;}.cls-11{fill:#fff;}.cls-12{fill:#4c2308;}</style><clipPath id="clip-path"><path class="cls-1" d="M53.7,52.68s.2,4.06-8.77,4.06-10.21-1.6-10.3-3.62l16.24.5,2.78-1"/></clipPath></defs><ellipse class="cls-2" cx="52.18" cy="53.5" rx="0.54" ry="1.58" transform="translate(-13.15 89.8) rotate(-74.77)"/><ellipse class="cls-2" cx="53.87" cy="54.6" rx="0.54" ry="1.58" transform="translate(-22.34 45.92) rotate(-38.89)"/><ellipse class="cls-2" cx="55.27" cy="57.03" rx="0.54" ry="1.58" transform="translate(-18.37 27.28) rotate(-23.9)"/><ellipse class="cls-3" cx="57.38" cy="53.06" rx="2.01" ry="0.33" transform="translate(-4.2 4.93) rotate(-4.75)"/><ellipse class="cls-4" cx="59.88" cy="51.19" rx="2.01" ry="0.33" transform="translate(-10.28 87.01) rotate(-67.57)"/><ellipse class="cls-3" cx="56.66" cy="54.94" rx="0.33" ry="2.01" transform="translate(-15.28 87.41) rotate(-68.41)"/><ellipse class="cls-4" cx="59.72" cy="54.38" rx="2.01" ry="0.33" transform="translate(-21.03 52.86) rotate(-41.24)"/><path class="cls-5" d="M57.2,52.71a3.05,3.05,0,0,1-1.54,1.51c-1.07.41-3,.54-3-.41S56.92,52.55,57.2,52.71Z"/><ellipse class="cls-6" cx="44.03" cy="57.63" rx="0.54" ry="1.58"/><ellipse class="cls-6" cx="43" cy="59.89" rx="1.58" ry="0.54" transform="translate(-29.52 46.58) rotate(-43.93)"/><ellipse class="cls-6" cx="40.7" cy="61.49" rx="1.58" ry="0.54" transform="translate(-24.67 27.37) rotate(-28.94)"/><ellipse class="cls-6" cx="46.62" cy="57.39" rx="0.54" ry="1.58" transform="translate(-17.3 20.23) rotate(-20.74)"/><ellipse class="cls-6" cx="46.46" cy="59.87" rx="1.58" ry="0.54" transform="translate(-27.53 76.24) rotate(-64.66)"/><ellipse class="cls-6" cx="44.88" cy="62.18" rx="1.58" ry="0.54" transform="translate(-31.57 56.16) rotate(-49.68)"/><ellipse class="cls-2" cx="46.61" cy="54.98" rx="0.54" ry="1.58" transform="translate(-19.17 84.45) rotate(-73.85)"/><ellipse class="cls-2" cx="48.49" cy="56.6" rx="0.54" ry="1.58" transform="translate(-20.79 29.11) rotate(-27.77)"/><ellipse class="cls-2" cx="49.39" cy="59.25" rx="0.54" ry="1.58" transform="translate(-11.89 12.4) rotate(-12.79)"/><ellipse class="cls-6" cx="51.85" cy="56.15" rx="0.54" ry="1.58" transform="translate(-23.93 46.22) rotate(-39.82)"/><ellipse class="cls-6" cx="52.6" cy="58.02" rx="0.54" ry="1.58" transform="translate(-3.85 3.74) rotate(-3.93)"/><ellipse class="cls-6" cx="52.36" cy="60.81" rx="1.58" ry="0.54" transform="translate(-17.36 100.54) rotate(-78.95)"/><ellipse class="cls-6" cx="41.5" cy="56.99" rx="0.37" ry="1.07"/><ellipse class="cls-6" cx="40.8" cy="58.52" rx="1.07" ry="0.37" transform="translate(-29.18 44.68) rotate(-43.93)"/><ellipse class="cls-6" cx="39.25" cy="59.61" rx="1.07" ry="0.37" transform="translate(-23.94 26.43) rotate(-28.94)"/><path class="cls-1" d="M53.7,52.68s.2,4.06-8.77,4.06-10.21-1.6-10.3-3.62l16.24.5,2.78-1"/><g class="cls-7"><path class="cls-8" d="M54.09,51.26s1,3.81-7.15,4.6S34.16,55.8,33.79,52.4h0s11.51-4.1,11.63-4.13S54.09,51.26,54.09,51.26Z"/></g><path class="cls-3" d="M33.72,52.68c0,1.67,2,3,7.6,3S54,54.35,54,52.68s-7.11-3.07-12.72-3.07S33.72,51,33.72,52.68Z"/><path class="cls-4" d="M47.56,50.27a23.55,23.55,0,0,0-1.37,4.63l-3.25-3.06S46.46,50.14,47.56,50.27Z"/><path class="cls-4" d="M41.29,51.78s-3.77-1.57-1.88-1.94c0,0-4.43-.17-5.37,2.23s3.25,3.07,4.85,3.28C38.89,55.35,35.25,52.45,41.29,51.78Z"/><path class="cls-9" d="M47.66,50a1.85,1.85,0,0,1,2.31.08s0,3.61-1.64,4.87c0,0-1.93.8-2.14-.09S47.07,50.71,47.66,50Z"/><path class="cls-10" d="M50,50.12s2.27-.21,3.27,1.17c0,0,.25,1.77-.71,2.57a5.82,5.82,0,0,1-3.86,1A6.24,6.24,0,0,1,50,50.12Z"/><path class="cls-3" d="M53.24,51.29a3.61,3.61,0,0,1,4.07.76.54.54,0,0,1-.25.84,5.34,5.34,0,0,1-4.53,1S52,52.09,53.24,51.29Z"/><circle class="cls-11" cx="54.78" cy="52.74" r="0.76"/><circle cx="54.78" cy="52.75" r="0.61"/><circle class="cls-11" cx="55.1" cy="52.35" r="0.24"/><path class="cls-12" d="M44.52,62.08a.8.8,0,0,0-.39.28.42.42,0,0,1-.06-.52c.11-.2.48-.55.74-.42S44.74,62,44.52,62.08Z"/><path class="cls-12" d="M44.57,63a.82.82,0,0,1-.4.26.42.42,0,0,0,.46.25c.22,0,.69-.25.66-.54S44.74,62.79,44.57,63Z"/><path class="cls-12" d="M44.46,62.35l-.13.1s0,0,0,0a.07.07,0,0,0,0,.07.11.11,0,0,0,.08,0c0,.08.07.16.15.14a.2.2,0,0,0,.13-.19.24.24,0,0,0,0-.14.14.14,0,0,0-.13,0"/><path class="cls-12" d="M38.67,59.38c-.08.06-.18.14-.17.24a.23.23,0,0,0,.15.17c.35.11,1,0,.88-.5S38.93,59.19,38.67,59.38Z"/><path class="cls-12" d="M40.41,60.93a2.47,2.47,0,0,0-.84.73.44.44,0,0,0-.09.33.71.71,0,0,0,.6-.07,1.19,1.19,0,0,1,.58-.17c.13,0,.28.07.36,0s0-.19.09-.28a.46.46,0,0,1,.17-.17.46.46,0,0,0,.16-.18.15.15,0,0,0-.08-.2s.06-.1,0-.12A1.34,1.34,0,0,0,40.41,60.93Z"/><path class="cls-12" d="M51.78,60.47a.44.44,0,0,0-.16.14c-.07.14,0,.3,0,.45a1.09,1.09,0,0,1-.16.51c-.07.17-.07.4.09.49a.23.23,0,0,0,.33-.25.2.2,0,0,0,.22-.1c.08-.15-.09-.37,0-.51a.48.48,0,0,1,.11-.09C52.76,60.75,52.29,60.17,51.78,60.47Z"/><path class="cls-12" d="M52.49,61.62c-.08.16-.07.39-.21.51a1.08,1.08,0,0,1-.24.12c-.08,0-.16.1-.16.18a.81.81,0,0,0,.69-.09.85.85,0,0,0,.3-.19,1.12,1.12,0,0,0,.17-.67C52.93,61.23,52.58,61.42,52.49,61.62Z"/></svg>