<svg xmlns="http://www.w3.org/2000/svg" xmlns:xlink="http://www.w3.org/1999/xlink" viewBox="0 0 260 168"><defs><style>.cls-1{fill:#c90505;}.cls-2{fill:#fff;}.cls-3{fill:#8e0303;}.cls-4{fill:#aa0909;}.cls-5{clip-path:url(#clip-path);}.cls-6{fill:#a80202;}.cls-7{fill:#dd0505;}.cls-8{fill:#420202;}.cls-9{fill:#ea1f1f;}.cls-10{fill:#ef3a3a;}.cls-11{fill:#c90706;}.cls-12{clip-path:url(#clip-path-2);}</style><clipPath id="clip-path"><path class="cls-1" d="M231.11,134.05s.28,3.53-7.52,3.78-8.92-1.11-9.06-2.86l14.14,0,2.39-1"/></clipPath><clipPath id="clip-path-2"><ellipse class="cls-2" cx="232.1" cy="133.46" rx="0.55" ry="1.36" transform="translate(-23.81 54.76) rotate(-12.8)"/></clipPath></defs><g id="Layer_8" data-name="Layer 8"><ellipse class="cls-3" cx="227.67" cy="134.76" rx="0.47" ry="1.38" transform="translate(-36.77 126.75) rotate(-28.89)"/><ellipse class="cls-3" cx="228.01" cy="136.48" rx="1.38" ry="0.47" transform="translate(64.76 346.16) rotate(-83)"/><ellipse class="cls-3" cx="227.34" cy="138.82" rx="1.38" ry="0.47" transform="translate(13.5 297.65) rotate(-68.01)"/><ellipse class="cls-4" cx="221.56" cy="136.04" rx="0.47" ry="1.38" transform="translate(-3.66 265.94) rotate(-61.53)"/><ellipse class="cls-4" cx="222.86" cy="137.77" rx="0.47" ry="1.38" transform="translate(-28.65 64.35) rotate(-15.45)"/><ellipse class="cls-4" cx="223.13" cy="140.19" rx="0.47" ry="1.38" transform="matrix(1, -0.01, 0.01, 1, -1.13, 1.82)"/><ellipse class="cls-4" cx="224.44" cy="136.42" rx="0.47" ry="1.38" transform="translate(21.88 303.62) rotate(-70.83)"/><ellipse class="cls-4" cx="226" cy="137.92" rx="0.47" ry="1.38" transform="translate(-36.98 107.29) rotate(-24.75)"/><ellipse class="cls-4" cx="226.66" cy="140.26" rx="0.47" ry="1.38" transform="translate(-20.51 40.48) rotate(-9.77)"/><ellipse class="cls-3" cx="224.43" cy="134.86" rx="0.47" ry="1.38" transform="translate(-21.42 44.78) rotate(-10.88)"/><ellipse class="cls-3" cx="223.92" cy="136.96" rx="1.38" ry="0.47" transform="translate(-17.06 240.99) rotate(-54.8)"/><ellipse class="cls-3" cx="222.23" cy="138.7" rx="1.38" ry="0.47" transform="translate(-37.28 174.45) rotate(-39.81)"/><ellipse class="cls-4" cx="229.57" cy="137.08" rx="0.47" ry="1.38" transform="translate(1.58 276.77) rotate(-62.34)"/><ellipse class="cls-4" cx="230.8" cy="138.32" rx="0.47" ry="1.38" transform="translate(-37.45 117.29) rotate(-26.45)"/><ellipse class="cls-4" cx="231.53" cy="140.65" rx="0.47" ry="1.38" transform="translate(-23.34 48.83) rotate(-11.47)"/><ellipse class="cls-4" cx="219.81" cy="137.42" rx="0.32" ry="0.93" transform="translate(-21.17 232.95) rotate(-53.64)"/><ellipse class="cls-4" cx="220.52" cy="138.69" rx="0.32" ry="0.93" transform="translate(-16.33 30.22) rotate(-7.56)"/><ellipse class="cls-4" cx="220.48" cy="140.34" rx="0.93" ry="0.32" transform="translate(52.83 340.84) rotate(-82.58)"/><path class="cls-1" d="M231.11,134.05s.28,3.53-7.52,3.78-8.92-1.11-9.06-2.86l14.14,0,2.39-1"/><g class="cls-5"><path class="cls-6" d="M231.4,132.81s1,3.28-6.09,4.2-11.1.3-11.52-2.64h0l10-3.92C223.89,130.42,231.4,132.81,231.4,132.81Z"/></g><path class="cls-7" d="M213.74,134.62c0,1.45,1.81,2.53,6.69,2.37s11-1.49,11-2.94-6.27-2.47-11.14-2.32S213.69,133.16,213.74,134.62Z"/><path class="cls-8" d="M225.69,132.13a20.32,20.32,0,0,0-1.05,4.07l-2.92-2.57S224.74,132.05,225.69,132.13Z"/><path class="cls-8" d="M220.29,133.62S217,132.36,218.6,132c0,0-3.86,0-4.61,2.1s2.92,2.57,4.31,2.71C218.3,136.79,215.05,134.37,220.29,133.62Z"/><path class="cls-9" d="M225.78,131.92a1.62,1.62,0,0,1,2,0s.14,3.14-1.29,4.28c0,0-1.66.75-1.86,0A9.25,9.25,0,0,1,225.78,131.92Z"/><path class="cls-10" d="M227.79,131.93s2-.24,2.88.93a2.8,2.8,0,0,1-.55,2.25,5.06,5.06,0,0,1-3.33,1A5.42,5.42,0,0,1,227.79,131.93Z"/><ellipse class="cls-7" cx="234.03" cy="133.46" rx="1.75" ry="0.29" transform="translate(-28.43 72.66) rotate(-16.65)"/><ellipse class="cls-8" cx="235.82" cy="131.42" rx="1.75" ry="0.29" transform="translate(63.55 339.27) rotate(-79.48)"/><ellipse class="cls-7" cx="233.75" cy="135.19" rx="0.29" ry="1.75" transform="translate(61.17 342.87) rotate(-80.32)"/><ellipse class="cls-8" cx="236.26" cy="134.16" rx="1.75" ry="0.29" transform="translate(-12.8 242.73) rotate(-53.14)"/><path class="cls-11" d="M234.94,132.89a3.49,3.49,0,0,1-1.35,2c-1.09.7-3.21,1.29-3.43.25S234.59,132.78,234.94,132.89Z"/><path class="cls-7" d="M230.24,132.25a4.08,4.08,0,0,1,4.67-.11.6.6,0,0,1-.08,1,6,6,0,0,1-4.78,2.12S229.09,133.41,230.24,132.25Z"/><ellipse class="cls-2" cx="232.1" cy="133.46" rx="0.55" ry="1.36" transform="translate(-23.81 54.76) rotate(-12.8)"/><g class="cls-12"><path d="M232.16,132.76c.06.19.17.33.27.3s.07-.05.08-.12a2.89,2.89,0,0,1,.11.35c.12.52,0,1-.17,1s-.47-.33-.59-.85,0-1,.17-1a.22.22,0,0,1,.13,0A.5.5,0,0,0,232.16,132.76Z"/></g></g></svg>