<svg id="Layer_11" data-name="Layer 11" xmlns="http://www.w3.org/2000/svg" xmlns:xlink="http://www.w3.org/1999/xlink" viewBox="0 0 260 168"><defs><style>.cls-1{fill:#c90505;}.cls-2{fill:#8e0303;}.cls-3{fill:#dd0505;}.cls-4{fill:#420202;}.cls-5{fill:#c90706;}.cls-6{fill:#aa0909;}.cls-7{clip-path:url(#clip-path);}.cls-8{fill:#a80202;}.cls-9{fill:#ea1f1f;}.cls-10{fill:#ef3a3a;}.cls-11{fill:#fff;}</style><clipPath id="clip-path"><path class="cls-1" d="M158.94,52.68s-.2,4.06,8.77,4.06,10.21-1.6,10.3-3.62l-16.24.5-2.78-1"/></clipPath></defs><ellipse class="cls-2" cx="161.9" cy="52.46" rx="1.58" ry="0.54" transform="matrix(0.96, -0.26, 0.26, 0.96, -8.1, 44.36)"/><ellipse class="cls-2" cx="160.21" cy="53.56" rx="1.58" ry="0.54" transform="translate(17.94 144.64) rotate(-51.11)"/><ellipse class="cls-2" cx="158.81" cy="55.99" rx="1.58" ry="0.54" transform="translate(43.28 178.5) rotate(-66.1)"/><ellipse class="cls-3" cx="155.26" cy="53.06" rx="0.33" ry="2.01" transform="translate(89.53 203.39) rotate(-85.25)"/><ellipse class="cls-4" cx="152.77" cy="51.19" rx="0.33" ry="2.01" transform="translate(-7.97 62.15) rotate(-22.43)"/><ellipse class="cls-3" cx="155.99" cy="54.94" rx="2.01" ry="0.33" transform="translate(-9.27 61.24) rotate(-21.59)"/><ellipse class="cls-4" cx="152.92" cy="54.38" rx="0.33" ry="2.01" transform="translate(11.22 133.52) rotate(-48.76)"/><path class="cls-5" d="M155.44,52.71A3,3,0,0,0,157,54.22c1.07.41,3,.54,3-.41S155.73,52.55,155.44,52.71Z"/><ellipse class="cls-6" cx="168.62" cy="57.63" rx="0.54" ry="1.58"/><ellipse class="cls-6" cx="169.65" cy="59.89" rx="0.54" ry="1.58" transform="translate(8.83 140.53) rotate(-46.07)"/><ellipse class="cls-6" cx="171.94" cy="61.49" rx="0.54" ry="1.58" transform="translate(34.93 182.21) rotate(-61.06)"/><ellipse class="cls-6" cx="166.02" cy="57.39" rx="1.58" ry="0.54" transform="translate(53.56 192.33) rotate(-69.26)"/><ellipse class="cls-6" cx="166.18" cy="59.87" rx="0.54" ry="1.58" transform="translate(-9.63 76.87) rotate(-25.34)"/><ellipse class="cls-6" cx="167.77" cy="62.18" rx="0.54" ry="1.58" transform="translate(-0.38 123.33) rotate(-40.32)"/><ellipse class="cls-2" cx="165.74" cy="52.75" rx="1.58" ry="0.54" transform="translate(-8.13 48.19) rotate(-16.15)"/><ellipse class="cls-2" cx="163.86" cy="54.37" rx="1.58" ry="0.54" transform="translate(39.4 174.02) rotate(-62.23)"/><ellipse class="cls-2" cx="162.96" cy="57.02" rx="1.58" ry="0.54" transform="translate(71.28 203.32) rotate(-77.21)"/><ellipse class="cls-6" cx="160.79" cy="56.15" rx="1.58" ry="0.54" transform="translate(14.7 143.7) rotate(-50.18)"/><ellipse class="cls-6" cx="160.04" cy="58.02" rx="1.58" ry="0.54" transform="translate(91.18 213.7) rotate(-86.07)"/><ellipse class="cls-6" cx="160.28" cy="60.81" rx="0.54" ry="1.58" transform="translate(-8.69 31.86) rotate(-11.05)"/><ellipse class="cls-6" cx="171.14" cy="56.99" rx="0.37" ry="1.07"/><ellipse class="cls-6" cx="171.84" cy="58.52" rx="0.37" ry="1.07" transform="translate(10.48 141.69) rotate(-46.07)"/><ellipse class="cls-6" cx="173.4" cy="59.61" rx="0.37" ry="1.07" transform="translate(37.33 182.51) rotate(-61.06)"/><path class="cls-1" d="M158.94,52.68s-.2,4.06,8.77,4.06,10.21-1.6,10.3-3.62l-16.24.5-2.78-1"/><g class="cls-7"><path class="cls-8" d="M158.56,51.26s-1,3.81,7.14,4.6,12.78-.06,13.15-3.46h0s-11.51-4.1-11.63-4.13S158.56,51.26,158.56,51.26Z"/></g><path class="cls-3" d="M178.92,52.68c0,1.67-2,3-7.6,3s-12.72-1.31-12.72-3,7.11-3.07,12.72-3.07S178.92,51,178.92,52.68Z"/><path class="cls-4" d="M165.09,50.27a23.9,23.9,0,0,1,1.36,4.63l3.25-3.06S166.18,50.14,165.09,50.27Z"/><path class="cls-4" d="M171.35,51.78s3.77-1.57,1.88-1.94c0,0,4.43-.17,5.37,2.23s-3.25,3.07-4.85,3.28C173.75,55.35,177.4,52.45,171.35,51.78Z"/><path class="cls-9" d="M165,50a1.85,1.85,0,0,0-2.31.08s0,3.61,1.64,4.87c0,0,1.93.8,2.14-.09S165.57,50.71,165,50Z"/><path class="cls-10" d="M162.67,50.12s-2.26-.21-3.27,1.17c0,0-.25,1.77.71,2.57a5.84,5.84,0,0,0,3.86,1A6.19,6.19,0,0,0,162.67,50.12Z"/><path class="cls-3" d="M159.4,51.29a3.61,3.61,0,0,0-4.07.76.54.54,0,0,0,.25.84,5.35,5.35,0,0,0,4.53,1S160.62,52.09,159.4,51.29Z"/><circle class="cls-11" cx="157.87" cy="52.74" r="0.76"/><circle cx="157.87" cy="52.75" r="0.61"/><circle class="cls-11" cx="157.54" cy="52.35" r="0.24"/></svg>