<svg id="Layer_4" data-name="Layer 4" xmlns="http://www.w3.org/2000/svg" xmlns:xlink="http://www.w3.org/1999/xlink" viewBox="0 0 260 168"><defs><style>.cls-1{fill:none;}.cls-2{fill:#c90505;}.cls-3{clip-path:url(#clip-path);}.cls-4{fill:#dd0505;}.cls-5{fill:#420202;}.cls-6{fill:#c90706;}.cls-7{clip-path:url(#clip-path-2);}.cls-8{fill:#a80202;}.cls-9{fill:#ea1f1f;}.cls-10{fill:#ef3a3a;}.cls-11{fill:#fff;}</style><clipPath id="clip-path"><path class="cls-1" d="M172.52,132.33s17.08-.88,30.12-.18a70.2,70.2,0,0,0,23.25-2.64l2.29-14.62-6.7-8.8h-34c-3.52,0-13.39,6.34-13.39,6.34l-5.28,6.69Z"/></clipPath><clipPath id="clip-path-2"><path class="cls-2" d="M174,140.91s3.2,5.67,15.37-2,12.49-10.89,10.9-13.7l-21.62,14.54-4.66,1"/></clipPath></defs><g class="cls-3"><ellipse class="cls-4" cx="169.31" cy="144.55" rx="3.22" ry="0.53" transform="translate(-47.53 94.13) rotate(-27.4)"/><ellipse class="cls-5" cx="164.33" cy="144.14" rx="0.53" ry="3.22" transform="translate(-48.38 194.5) rotate(-54.57)"/><ellipse class="cls-4" cx="171.9" cy="146.5" rx="3.22" ry="0.53" transform="translate(-47.9 198.44) rotate(-53.73)"/><ellipse class="cls-5" cx="167.26" cy="148.34" rx="0.53" ry="3.22" transform="translate(-5.64 290.06) rotate(-80.91)"/><path class="cls-6" d="M169.26,143.93a4.91,4.91,0,0,0,3.39.73c1.8-.35,4.55-1.85,3.75-3.13S169.51,143.47,169.26,143.93Z"/><path class="cls-2" d="M174,140.91s3.2,5.67,15.37-2,12.49-10.89,10.9-13.7l-21.62,14.54-4.66,1"/><g class="cls-7"><path class="cls-8" d="M172.25,139.31s1.91,6,13.62.14,17.29-11,14.89-15.92h0s-19.11,4.27-19.3,4.33S172.25,139.31,172.25,139.31Z"/></g><path class="cls-4" d="M201.1,123.86c1.42,2.27-.16,5.74-7.77,10.53s-18.38,9.07-19.81,6.8,7-10.23,14.65-15S199.67,121.6,201.1,123.86Z"/><path class="cls-5" d="M180.27,132.38a37.51,37.51,0,0,1,5.8,5.14l1.81-6.94S181.64,131.28,180.27,132.38Z"/><path class="cls-5" d="M190.06,129.09s3.78-5.34.89-4.24c0,0,5.87-4,9.2-1.55s-1.8,6.94-3.79,8.58C196.36,131.88,198.84,124.85,190.06,129.09Z"/><path class="cls-9" d="M179.93,132.16s-2-.35-3.07,2.08c0,0,3,4.94,6.38,5.22,0,0,3.3-.57,2.83-1.94S181.3,132.57,179.93,132.16Z"/><path class="cls-10" d="M176.86,134.24s-3.25,1.65-3.44,4.39c0,0,1.17,2.61,3.16,2.87,0,0,3.86.19,6.1-1.93C182.68,139.57,180.94,135.42,176.86,134.24Z"/><path class="cls-4" d="M173.42,138.63s-3.55.17-4.88,4.5a.86.86,0,0,0,1.06.92,8.57,8.57,0,0,0,7-2.55S175.76,138.68,173.42,138.63Z"/><circle class="cls-11" cx="172.58" cy="141.9" r="1.21"/><circle cx="172.58" cy="141.91" r="0.98"/><circle class="cls-11" cx="171.8" cy="141.65" r="0.39"/></g></svg>