<svg xmlns="http://www.w3.org/2000/svg" xmlns:xlink="http://www.w3.org/1999/xlink" viewBox="0 0 260 168"><defs><style>.cls-1{fill:#c90505;}.cls-2{fill:#fff;}.cls-3{fill:#8e0303;}.cls-4{fill:#aa0909;}.cls-5{clip-path:url(#clip-path);}.cls-6{fill:#a80202;}.cls-7{fill:#dd0505;}.cls-8{fill:#420202;}.cls-9{fill:#ea1f1f;}.cls-10{fill:#ef3a3a;}.cls-11{fill:#c90706;}.cls-12{clip-path:url(#clip-path-2);}</style><clipPath id="clip-path"><path class="cls-1" d="M198.46,134.05s.28,3.53-7.52,3.78-8.92-1.11-9.06-2.86L196,135l2.39-1"/></clipPath><clipPath id="clip-path-2"><ellipse class="cls-2" cx="199.45" cy="133.46" rx="0.55" ry="1.36" transform="translate(-24.62 47.52) rotate(-12.8)"/></clipPath></defs><g id="Layer_5" data-name="Layer 5"><ellipse class="cls-3" cx="195.88" cy="133.95" rx="0.47" ry="1.38" transform="translate(20.25 293.53) rotate(-76.62)"/><ellipse class="cls-3" cx="197.38" cy="134.85" rx="0.47" ry="1.38" transform="translate(-40.18 161.48) rotate(-40.74)"/><ellipse class="cls-3" cx="198.66" cy="136.93" rx="0.47" ry="1.38" transform="translate(-39.76 99.91) rotate(-25.75)"/><ellipse class="cls-4" cx="188.49" cy="136.23" rx="0.47" ry="1.38" transform="translate(-41.15 99.49) rotate(-26.77)"/><ellipse class="cls-4" cx="188.58" cy="138.39" rx="1.38" ry="0.47" transform="translate(-4.38 270.6) rotate(-70.69)"/><ellipse class="cls-4" cx="187.42" cy="140.53" rx="1.38" ry="0.47" transform="translate(-34.28 216.19) rotate(-55.71)"/><ellipse class="cls-4" cx="191.42" cy="136.71" rx="0.47" ry="1.38" transform="translate(-43.61 127.23) rotate(-33.22)"/><ellipse class="cls-4" cx="191.74" cy="138.84" rx="1.38" ry="0.47" transform="translate(13.73 294.89) rotate(-77.15)"/><ellipse class="cls-4" cx="190.84" cy="141.1" rx="1.38" ry="0.47" transform="translate(-23.06 243.95) rotate(-62.16)"/><ellipse class="cls-3" cx="192.54" cy="134.31" rx="0.47" ry="1.38" transform="translate(14.83 287.7) rotate(-75.7)"/><ellipse class="cls-3" cx="194.22" cy="135.66" rx="0.47" ry="1.38" transform="translate(-41.67 113.73) rotate(-29.62)"/><ellipse class="cls-3" cx="195.08" cy="137.94" rx="0.47" ry="1.38" transform="translate(-28.52 53.76) rotate(-14.63)"/><ellipse class="cls-4" cx="196.18" cy="137.49" rx="0.47" ry="1.38" transform="translate(-17.54 29.26) rotate(-8.17)"/><ellipse class="cls-4" cx="195.89" cy="139.21" rx="1.38" ry="0.47" transform="translate(-18.46 247.87) rotate(-62.28)"/><ellipse class="cls-4" cx="194.44" cy="141.17" rx="1.38" ry="0.47" transform="translate(-41.18 188.3) rotate(-47.29)"/><ellipse class="cls-4" cx="186.24" cy="137.56" rx="0.93" ry="0.32" transform="translate(40.54 317.51) rotate(-87.45)"/><ellipse class="cls-4" cx="185.58" cy="138.86" rx="0.93" ry="0.32" transform="translate(-45.46 157.33) rotate(-41.38)"/><ellipse class="cls-4" cx="184.18" cy="139.74" rx="0.93" ry="0.32" transform="translate(-42.92 96.44) rotate(-26.39)"/><path class="cls-1" d="M198.46,134.05s.28,3.53-7.52,3.78-8.92-1.11-9.06-2.86L196,135l2.39-1"/><g class="cls-5"><path class="cls-6" d="M198.75,132.81s1,3.28-6.09,4.2-11.1.3-11.52-2.64h0l10-3.92C191.24,130.42,198.75,132.81,198.75,132.81Z"/></g><path class="cls-7" d="M181.09,134.62c0,1.45,1.81,2.53,6.69,2.37s11-1.49,11-2.94-6.27-2.47-11.14-2.32S181,133.16,181.09,134.62Z"/><path class="cls-8" d="M193,132.13a20.32,20.32,0,0,0-1,4.07l-2.92-2.57S192.09,132.05,193,132.13Z"/><path class="cls-8" d="M187.64,133.62s-3.32-1.26-1.69-1.64c0,0-3.86,0-4.61,2.1s2.92,2.57,4.31,2.71C185.65,136.79,182.4,134.37,187.64,133.62Z"/><path class="cls-9" d="M193.13,131.92a1.62,1.62,0,0,1,2,0s.14,3.14-1.29,4.28c0,0-1.66.75-1.86,0A9.25,9.25,0,0,1,193.13,131.92Z"/><path class="cls-10" d="M195.14,131.93s2-.24,2.88.93a2.8,2.8,0,0,1-.55,2.25,5.06,5.06,0,0,1-3.33,1A5.42,5.42,0,0,1,195.14,131.93Z"/><ellipse class="cls-7" cx="201.38" cy="133.46" rx="1.75" ry="0.29" transform="translate(-29.8 63.31) rotate(-16.65)"/><ellipse class="cls-8" cx="203.17" cy="131.42" rx="1.75" ry="0.29" transform="translate(36.86 307.17) rotate(-79.48)"/><ellipse class="cls-7" cx="201.1" cy="135.19" rx="0.29" ry="1.75" transform="translate(34.01 310.69) rotate(-80.32)"/><ellipse class="cls-8" cx="203.61" cy="134.16" rx="1.75" ry="0.29" transform="translate(-25.87 216.61) rotate(-53.14)"/><path class="cls-11" d="M202.29,132.89a3.49,3.49,0,0,1-1.35,2c-1.09.7-3.21,1.29-3.43.25S201.94,132.78,202.29,132.89Z"/><path class="cls-7" d="M197.59,132.25a4.08,4.08,0,0,1,4.67-.11.6.6,0,0,1-.08,1,6,6,0,0,1-4.78,2.12S196.44,133.41,197.59,132.25Z"/><ellipse class="cls-2" cx="199.45" cy="133.46" rx="0.55" ry="1.36" transform="translate(-24.62 47.52) rotate(-12.8)"/><g class="cls-12"><path d="M199.51,132.76c.06.19.17.33.27.3s.07-.05.08-.12a2.89,2.89,0,0,1,.11.35c.12.52,0,1-.17,1s-.47-.33-.59-.85,0-1,.17-1a.22.22,0,0,1,.13,0A.5.5,0,0,0,199.51,132.76Z"/></g></g></svg>