<svg id="Layer_6" data-name="Layer 6" xmlns="http://www.w3.org/2000/svg" xmlns:xlink="http://www.w3.org/1999/xlink" viewBox="0 0 260 168"><defs><style>.cls-1{fill:#c90505;}.cls-2{fill:#8e0303;}.cls-3{fill:#dd0505;}.cls-4{fill:#420202;}.cls-5{fill:#c90706;}.cls-6{fill:#aa0909;}.cls-7{clip-path:url(#clip-path);}.cls-8{fill:#a80202;}.cls-9{fill:#ea1f1f;}.cls-10{fill:#ef3a3a;}.cls-11{fill:#fff;}</style><clipPath id="clip-path"><path class="cls-1" d="M227.84,52.68s-.2,4.06,8.77,4.06,10.21-1.6,10.3-3.62l-16.24.5-2.78-1"/></clipPath></defs><ellipse class="cls-2" cx="230.8" cy="52.46" rx="1.58" ry="0.54" transform="matrix(0.96, -0.26, 0.26, 0.96, -5.68, 62.46)"/><ellipse class="cls-2" cx="229.11" cy="53.56" rx="1.58" ry="0.54" transform="translate(43.59 198.27) rotate(-51.11)"/><ellipse class="cls-2" cx="227.71" cy="55.99" rx="1.58" ry="0.54" transform="translate(84.26 241.49) rotate(-66.1)"/><ellipse class="cls-3" cx="224.16" cy="53.06" rx="0.33" ry="2.01" transform="translate(152.73 272.05) rotate(-85.25)"/><ellipse class="cls-4" cx="221.67" cy="51.19" rx="0.33" ry="2.01" transform="translate(-2.76 88.43) rotate(-22.43)"/><ellipse class="cls-3" cx="224.88" cy="54.94" rx="2.01" ry="0.33" transform="translate(-4.44 86.59) rotate(-21.59)"/><ellipse class="cls-4" cx="221.82" cy="54.38" rx="0.33" ry="2.01" transform="translate(34.7 185.33) rotate(-48.76)"/><path class="cls-5" d="M224.34,52.71a3.05,3.05,0,0,0,1.54,1.51c1.07.41,3,.54,3-.41S224.63,52.55,224.34,52.71Z"/><ellipse class="cls-6" cx="237.51" cy="57.63" rx="0.54" ry="1.58"/><ellipse class="cls-6" cx="238.55" cy="59.89" rx="0.54" ry="1.58" transform="translate(29.93 190.15) rotate(-46.07)"/><ellipse class="cls-6" cx="240.84" cy="61.49" rx="0.54" ry="1.58" transform="translate(70.49 242.51) rotate(-61.06)"/><ellipse class="cls-6" cx="234.92" cy="57.39" rx="1.58" ry="0.54" transform="translate(98.06 256.77) rotate(-69.26)"/><ellipse class="cls-6" cx="235.08" cy="59.87" rx="0.54" ry="1.58" transform="translate(-3.01 106.36) rotate(-25.34)"/><ellipse class="cls-6" cx="236.66" cy="62.18" rx="0.54" ry="1.58" transform="translate(15.99 167.92) rotate(-40.32)"/><ellipse class="cls-2" cx="234.64" cy="52.75" rx="1.58" ry="0.54" transform="translate(-5.41 67.36) rotate(-16.15)"/><ellipse class="cls-2" cx="232.76" cy="54.37" rx="1.58" ry="0.54" transform="translate(76.2 234.98) rotate(-62.23)"/><ellipse class="cls-2" cx="231.86" cy="57.02" rx="1.58" ry="0.54" transform="translate(124.93 270.51) rotate(-77.21)"/><ellipse class="cls-6" cx="229.69" cy="56.15" rx="1.58" ry="0.54" transform="translate(39.48 196.62) rotate(-50.18)"/><ellipse class="cls-6" cx="228.94" cy="58.02" rx="1.58" ry="0.54" transform="translate(155.36 282.44) rotate(-86.07)"/><ellipse class="cls-6" cx="229.18" cy="60.81" rx="0.54" ry="1.58" transform="translate(-7.41 45.07) rotate(-11.05)"/><ellipse class="cls-6" cx="240.04" cy="56.99" rx="0.37" ry="1.07"/><ellipse class="cls-6" cx="240.74" cy="58.52" rx="0.37" ry="1.07" transform="translate(31.59 191.32) rotate(-46.07)"/><ellipse class="cls-6" cx="242.29" cy="59.61" rx="0.37" ry="1.07" transform="translate(72.89 242.8) rotate(-61.06)"/><path class="cls-1" d="M227.84,52.68s-.2,4.06,8.77,4.06,10.21-1.6,10.3-3.62l-16.24.5-2.78-1"/><g class="cls-7"><path class="cls-8" d="M227.46,51.26s-1,3.81,7.14,4.6,12.78-.06,13.15-3.46h0s-11.51-4.1-11.63-4.13S227.46,51.26,227.46,51.26Z"/></g><path class="cls-3" d="M247.82,52.68c0,1.67-2,3-7.6,3s-12.72-1.31-12.72-3,7.11-3.07,12.72-3.07S247.82,51,247.82,52.68Z"/><path class="cls-4" d="M234,50.27a23.9,23.9,0,0,1,1.36,4.63l3.25-3.06S235.08,50.14,234,50.27Z"/><path class="cls-4" d="M240.25,51.78s3.77-1.57,1.88-1.94c0,0,4.43-.17,5.37,2.23s-3.25,3.07-4.85,3.28C242.65,55.35,246.29,52.45,240.25,51.78Z"/><path class="cls-9" d="M233.88,50a1.85,1.85,0,0,0-2.31.08s0,3.61,1.64,4.87c0,0,1.93.8,2.14-.09S234.47,50.71,233.88,50Z"/><path class="cls-10" d="M231.57,50.12s-2.26-.21-3.27,1.17c0,0-.25,1.77.71,2.57a5.82,5.82,0,0,0,3.86,1A6.19,6.19,0,0,0,231.57,50.12Z"/><path class="cls-3" d="M228.3,51.29a3.61,3.61,0,0,0-4.07.76.54.54,0,0,0,.25.84,5.35,5.35,0,0,0,4.53,1S229.52,52.09,228.3,51.29Z"/><circle class="cls-11" cx="226.77" cy="52.74" r="0.76"/><circle cx="226.77" cy="52.75" r="0.61"/><circle class="cls-11" cx="226.44" cy="52.35" r="0.24"/></svg>