<svg xmlns="http://www.w3.org/2000/svg" xmlns:xlink="http://www.w3.org/1999/xlink" viewBox="0 0 260 168"><defs><style>.cls-1{fill:#c90505;}.cls-2{fill:#fff;}.cls-3{fill:#8e0303;}.cls-4{fill:#aa0909;}.cls-5{clip-path:url(#clip-path);}.cls-6{fill:#a80202;}.cls-7{fill:#dd0505;}.cls-8{fill:#420202;}.cls-9{fill:#ea1f1f;}.cls-10{fill:#ef3a3a;}.cls-11{fill:#c90706;}.cls-12{clip-path:url(#clip-path-2);}</style><clipPath id="clip-path"><path class="cls-1" d="M208.92,134.05s.28,3.53-7.51,3.78-8.92-1.11-9.06-2.86l14.13,0,2.39-1"/></clipPath><clipPath id="clip-path-2"><ellipse class="cls-2" cx="209.92" cy="133.46" rx="0.55" ry="1.36" transform="translate(-24.36 49.84) rotate(-12.8)"/></clipPath></defs><g id="Layer_2" data-name="Layer 2"><ellipse class="cls-3" cx="205.49" cy="134.76" rx="0.47" ry="1.38" transform="translate(-39.53 116.03) rotate(-28.89)"/><ellipse class="cls-3" cx="205.82" cy="136.48" rx="1.38" ry="0.47" transform="translate(45.28 324.13) rotate(-83)"/><ellipse class="cls-3" cx="205.15" cy="138.82" rx="1.38" ry="0.47" transform="translate(-0.38 277.08) rotate(-68.01)"/><ellipse class="cls-4" cx="199.37" cy="136.04" rx="0.47" ry="1.38" transform="translate(-15.27 246.44) rotate(-61.53)"/><ellipse class="cls-4" cx="200.67" cy="137.77" rx="0.47" ry="1.38" transform="translate(-29.45 58.44) rotate(-15.45)"/><ellipse class="cls-4" cx="200.95" cy="140.19" rx="0.47" ry="1.38" transform="matrix(1, -0.01, 0.01, 1, -1.13, 1.64)"/><ellipse class="cls-4" cx="202.25" cy="136.42" rx="0.47" ry="1.38" transform="translate(6.98 282.66) rotate(-70.83)"/><ellipse class="cls-4" cx="203.82" cy="137.92" rx="0.47" ry="1.38" transform="translate(-39.02 98.01) rotate(-24.75)"/><ellipse class="cls-4" cx="204.48" cy="140.26" rx="0.47" ry="1.38" transform="translate(-20.83 36.72) rotate(-9.77)"/><ellipse class="cls-3" cx="202.25" cy="134.86" rx="0.47" ry="1.38" transform="translate(-21.82 40.59) rotate(-10.88)"/><ellipse class="cls-3" cx="201.74" cy="136.96" rx="1.38" ry="0.47" transform="translate(-26.46 222.86) rotate(-54.8)"/><ellipse class="cls-3" cx="200.04" cy="138.7" rx="1.38" ry="0.47" transform="translate(-42.43 160.25) rotate(-39.81)"/><ellipse class="cls-4" cx="207.38" cy="137.08" rx="0.47" ry="1.38" transform="translate(-10.3 257.12) rotate(-62.34)"/><ellipse class="cls-4" cx="208.61" cy="138.32" rx="0.47" ry="1.38" transform="translate(-39.78 107.41) rotate(-26.45)"/><ellipse class="cls-4" cx="209.35" cy="140.65" rx="0.47" ry="1.38" transform="translate(-23.78 44.42) rotate(-11.47)"/><ellipse class="cls-4" cx="197.62" cy="137.42" rx="0.32" ry="0.93" transform="translate(-30.21 215.09) rotate(-53.64)"/><ellipse class="cls-4" cx="198.33" cy="138.69" rx="0.32" ry="0.93" transform="translate(-16.53 27.31) rotate(-7.56)"/><ellipse class="cls-4" cx="198.29" cy="140.34" rx="0.93" ry="0.32" transform="translate(33.51 318.84) rotate(-82.58)"/><path class="cls-1" d="M208.92,134.05s.28,3.53-7.51,3.78-8.92-1.11-9.06-2.86l14.13,0,2.39-1"/><g class="cls-5"><path class="cls-6" d="M209.21,132.81s1,3.28-6.08,4.2-11.11.3-11.53-2.64h0l10-3.92C201.7,130.42,209.21,132.81,209.21,132.81Z"/></g><path class="cls-7" d="M191.55,134.62c0,1.45,1.81,2.53,6.69,2.37s11-1.49,11-2.94-6.26-2.47-11.14-2.32S191.5,133.16,191.55,134.62Z"/><path class="cls-8" d="M203.51,132.13a20,20,0,0,0-1.06,4.07l-2.91-2.57S202.55,132.05,203.51,132.13Z"/><path class="cls-8" d="M198.1,133.62s-3.32-1.26-1.68-1.64c0,0-3.86,0-4.61,2.1s2.91,2.57,4.3,2.71C196.11,136.79,192.87,134.37,198.1,133.62Z"/><path class="cls-9" d="M203.59,131.92a1.62,1.62,0,0,1,2,0s.14,3.14-1.29,4.28c0,0-1.65.75-1.86,0A9.25,9.25,0,0,1,203.59,131.92Z"/><path class="cls-10" d="M205.6,131.93s2-.24,2.88.93a2.76,2.76,0,0,1-.55,2.25,5,5,0,0,1-3.33,1A5.42,5.42,0,0,1,205.6,131.93Z"/><ellipse class="cls-7" cx="211.84" cy="133.46" rx="1.75" ry="0.29" transform="translate(-29.36 66.3) rotate(-16.65)"/><ellipse class="cls-8" cx="213.63" cy="131.42" rx="1.75" ry="0.29" transform="translate(45.41 317.46) rotate(-79.48)"/><ellipse class="cls-7" cx="211.56" cy="135.19" rx="0.29" ry="1.75" transform="translate(42.71 321) rotate(-80.32)"/><ellipse class="cls-8" cx="214.07" cy="134.16" rx="1.75" ry="0.29" transform="translate(-21.68 224.98) rotate(-53.14)"/><path class="cls-11" d="M212.75,132.89a3.43,3.43,0,0,1-1.35,2c-1.08.7-3.21,1.29-3.43.25S212.4,132.78,212.75,132.89Z"/><path class="cls-7" d="M208.06,132.25a4.07,4.07,0,0,1,4.67-.11.6.6,0,0,1-.09,1,6,6,0,0,1-4.77,2.12S206.9,133.41,208.06,132.25Z"/><ellipse class="cls-2" cx="209.92" cy="133.46" rx="0.55" ry="1.36" transform="translate(-24.36 49.84) rotate(-12.8)"/><g class="cls-12"><path d="M210,132.76c.05.19.17.33.26.3s.07-.05.08-.12a1.79,1.79,0,0,1,.11.35c.12.52,0,1-.16,1s-.48-.33-.6-.85,0-1,.17-1a.22.22,0,0,1,.13,0A.52.52,0,0,0,210,132.76Z"/></g></g></svg>