<svg id="Layer_2" data-name="Layer 2" xmlns="http://www.w3.org/2000/svg" xmlns:xlink="http://www.w3.org/1999/xlink" viewBox="0 0 260 168"><defs><style>.cls-1{fill:#c90505;}.cls-2{fill:#8e0303;}.cls-3{fill:#dd0505;}.cls-4{fill:#420202;}.cls-5{fill:#c90706;}.cls-6{fill:#aa0909;}.cls-7{clip-path:url(#clip-path);}.cls-8{fill:#a80202;}.cls-9{fill:#ea1f1f;}.cls-10{fill:#ef3a3a;}.cls-11{fill:#fff;}</style><clipPath id="clip-path"><path class="cls-1" d="M114.89,61.1s-.4,8.33,18,8.33,21-3.29,21.15-7.43l-33.35,1L115,60.9"/></clipPath></defs><ellipse class="cls-2" cx="121.67" cy="61.67" rx="3.25" ry="1.12" transform="translate(-2.02 119.17) rotate(-51.81)"/><ellipse class="cls-2" cx="120.22" cy="65.54" rx="3.25" ry="1.12" transform="translate(49.91 183.03) rotate(-87.7)"/><ellipse class="cls-2" cx="120.89" cy="71.26" rx="1.12" ry="3.25" transform="translate(-12.69 28.28) rotate(-12.68)"/><ellipse class="cls-3" cx="107.34" cy="61.87" rx="0.68" ry="4.13" transform="translate(36.8 163.72) rotate(-85.25)"/><ellipse class="cls-4" cx="102.22" cy="58.03" rx="0.68" ry="4.13" transform="matrix(0.92, -0.38, 0.38, 0.92, -14.41, 43.38)"/><ellipse class="cls-3" cx="108.83" cy="65.74" rx="4.13" ry="0.68" transform="translate(-16.55 44.65) rotate(-21.59)"/><ellipse class="cls-4" cx="102.54" cy="64.58" rx="0.68" ry="4.13" transform="translate(-13.62 99.11) rotate(-48.76)"/><path class="cls-5" d="M107.71,61.16a6.28,6.28,0,0,0,3.17,3.1c2.2.84,6.21,1.1,6.21-.84S108.29,60.84,107.71,61.16Z"/><ellipse class="cls-6" cx="132.71" cy="68.92" rx="3.25" ry="1.12" transform="translate(-5.5 11.83) rotate(-5)"/><ellipse class="cls-6" cx="128.27" cy="71.44" rx="3.25" ry="1.12" transform="translate(-7.9 126.34) rotate(-51.07)"/><ellipse class="cls-6" cx="125.4" cy="76.42" rx="3.25" ry="1.12" transform="translate(4.67 160.03) rotate(-66.06)"/><ellipse class="cls-6" cx="127.83" cy="67.74" rx="1.12" ry="3.25" transform="translate(35.84 179.4) rotate(-78.44)"/><ellipse class="cls-6" cx="122.86" cy="68.88" rx="3.25" ry="1.12" transform="translate(-17.41 81.73) rotate(-34.51)"/><ellipse class="cls-6" cx="118.69" cy="72.85" rx="3.25" ry="1.12" transform="translate(-13.79 115.78) rotate(-49.5)"/><ellipse class="cls-2" cx="130.28" cy="62.82" rx="3.25" ry="1.12" transform="translate(0.68 127.01) rotate(-52.09)"/><ellipse class="cls-2" cx="129.1" cy="67.77" rx="1.12" ry="3.25" transform="translate(-8.32 19.03) rotate(-8.17)"/><ellipse class="cls-2" cx="130.8" cy="73.27" rx="1.12" ry="3.25" transform="translate(-18.28 57.33) rotate(-23.15)"/><ellipse class="cls-6" cx="117.52" cy="65.69" rx="3.25" ry="1.12" transform="translate(-2.29 4.28) rotate(-2.07)"/><ellipse class="cls-6" cx="113.63" cy="67.09" rx="3.25" ry="1.12" transform="translate(-17.23 84.07) rotate(-37.95)"/><ellipse class="cls-6" cx="109.7" cy="71.29" rx="3.25" ry="1.12" transform="matrix(0.6, -0.8, 0.8, 0.6, -13.3, 115.86)"/><ellipse class="cls-6" cx="137.54" cy="69.38" rx="2.2" ry="0.76" transform="translate(-16.47 65.81) rotate(-25.44)"/><ellipse class="cls-6" cx="135.32" cy="72.02" rx="2.2" ry="0.76" transform="matrix(0.32, -0.95, 0.95, 0.32, 24.11, 177.52)"/><ellipse class="cls-6" cx="134.68" cy="75.86" rx="2.2" ry="0.76" transform="translate(50.74 205.65) rotate(-86.5)"/><ellipse class="cls-6" cx="138.21" cy="67.49" rx="2.2" ry="0.76" transform="translate(16.38 161.37) rotate(-63.65)"/><ellipse class="cls-6" cx="138.1" cy="70.93" rx="0.76" ry="2.2" transform="translate(-15.84 50.76) rotate(-19.72)"/><ellipse class="cls-6" cx="139.97" cy="74.35" rx="0.76" ry="2.2" transform="translate(-17.43 92.93) rotate(-34.71)"/><path class="cls-1" d="M114.89,61.1s-.4,8.33,18,8.33,21-3.29,21.15-7.43l-33.35,1L115,60.9"/><g class="cls-7"><path class="cls-8" d="M114.1,58.19s-2,7.82,14.68,9.43,26.23-.13,27-7.11h0s-23.63-8.4-23.88-8.46S114.1,58.19,114.1,58.19Z"/></g><path class="cls-3" d="M155.91,61.1c0,3.43-4.08,6.11-15.6,6.11S114.2,64.53,114.2,61.1s14.59-6.3,26.11-6.3S155.91,57.67,155.91,61.1Z"/><path class="cls-4" d="M127.51,56.14a47.86,47.86,0,0,1,2.8,9.52L137,59.37S129.75,55.88,127.51,56.14Z"/><path class="cls-4" d="M140.38,59.24s7.73-3.21,3.85-4c0,0,9.1-.35,11,4.59s-6.68,6.29-9.95,6.72C145.31,66.57,152.79,60.62,140.38,59.24Z"/><path class="cls-9" d="M127.3,55.67s-1.9-1.73-4.74.17c0,0-.09,7.41,3.36,10,0,0,4,1.63,4.39-.18S128.5,57,127.3,55.67Z"/><path class="cls-10" d="M122.56,55.84s-4.66-.43-6.72,2.41c0,0-.52,3.62,1.46,5.26,0,0,4,2.84,7.93,2.07C125.23,65.58,126.18,59.89,122.56,55.84Z"/><path class="cls-3" d="M115.84,58.25s-4-2.24-8.36,1.55a1.11,1.11,0,0,0,.51,1.73c1.3.69,3.8,3.1,9.31,2C117.3,63.51,118.33,59.89,115.84,58.25Z"/><circle class="cls-11" cx="112.69" cy="61.22" r="1.55"/><circle cx="112.69" cy="61.23" r="1.25"/><circle class="cls-11" cx="112.01" cy="60.42" r="0.5"/></svg>