<svg id="Layer_10" data-name="Layer 10" xmlns="http://www.w3.org/2000/svg" xmlns:xlink="http://www.w3.org/1999/xlink" viewBox="0 0 260 168"><defs><style>.cls-1{fill:#c90505;}.cls-2{fill:#8e0303;}.cls-3{fill:#dd0505;}.cls-4{fill:#420202;}.cls-5{fill:#c90706;}.cls-6{fill:#aa0909;}.cls-7{clip-path:url(#clip-path);}.cls-8{fill:#a80202;}.cls-9{fill:#ea1f1f;}.cls-10{fill:#ef3a3a;}.cls-11{fill:#fff;}</style><clipPath id="clip-path"><path class="cls-1" d="M178.65,52.68s-.2,4.06,8.77,4.06,10.21-1.6,10.3-3.62l-16.24.5-2.78-1"/></clipPath></defs><ellipse class="cls-2" cx="181.76" cy="52.75" rx="1.58" ry="0.54" transform="translate(6.77 124.85) rotate(-38.57)"/><ellipse class="cls-2" cx="180.64" cy="54.43" rx="1.58" ry="0.54" transform="translate(79.81 213.88) rotate(-74.46)"/><ellipse class="cls-2" cx="180.32" cy="57.21" rx="1.58" ry="0.54" transform="translate(121.37 236.97) rotate(-89.45)"/><ellipse class="cls-3" cx="174.97" cy="53.06" rx="0.33" ry="2.01" transform="translate(107.61 223.03) rotate(-85.25)"/><ellipse class="cls-4" cx="172.48" cy="51.19" rx="0.33" ry="2.01" transform="translate(-6.48 69.67) rotate(-22.43)"/><ellipse class="cls-3" cx="175.7" cy="54.94" rx="2.01" ry="0.33" transform="translate(-7.89 68.49) rotate(-21.59)"/><ellipse class="cls-4" cx="172.63" cy="54.38" rx="0.33" ry="2.01" transform="translate(17.94 148.34) rotate(-48.76)"/><path class="cls-5" d="M175.15,52.71a3,3,0,0,0,1.55,1.51c1.07.41,3,.54,3-.41S175.44,52.55,175.15,52.71Z"/><ellipse class="cls-6" cx="187.84" cy="57.26" rx="1.58" ry="0.54" transform="translate(14.75 150.01) rotate(-45.14)"/><ellipse class="cls-6" cx="186.97" cy="59.58" rx="0.54" ry="1.58" transform="translate(-1.22 3.97) rotate(-1.21)"/><ellipse class="cls-6" cx="187.47" cy="62.34" rx="0.54" ry="1.58" transform="translate(-9.95 54.77) rotate(-16.2)"/><ellipse class="cls-6" cx="185.3" cy="56.93" rx="1.58" ry="0.54" transform="translate(-4.09 98.25) rotate(-29.39)"/><ellipse class="cls-6" cx="183.84" cy="58.93" rx="1.58" ry="0.54" transform="translate(80.64 222.09) rotate(-75.46)"/><ellipse class="cls-6" cx="183.57" cy="61.72" rx="0.54" ry="1.58" transform="translate(-0.48 1.43) rotate(-0.45)"/><ellipse class="cls-2" cx="185.95" cy="53.39" rx="1.58" ry="0.54" transform="translate(15.52 144.94) rotate(-44.26)"/><ellipse class="cls-2" cx="185.06" cy="55.7" rx="0.54" ry="1.58" transform="translate(-0.32 1.09) rotate(-0.34)"/><ellipse class="cls-2" cx="185.51" cy="58.47" rx="0.54" ry="1.58" transform="translate(-8.86 51.1) rotate(-15.32)"/><ellipse class="cls-6" cx="180.07" cy="55.56" rx="1.58" ry="0.54" transform="translate(-6.71 80.56) rotate(-24.77)"/><ellipse class="cls-6" cx="178.58" cy="56.92" rx="1.58" ry="0.54" transform="translate(41.45 184.7) rotate(-60.66)"/><ellipse class="cls-6" cx="177.61" cy="59.55" rx="1.58" ry="0.54" transform="translate(75.88 216.84) rotate(-75.64)"/><ellipse class="cls-6" cx="190.08" cy="56.98" rx="1.07" ry="0.37" transform="translate(24.38 166.15) rotate(-50.07)"/><ellipse class="cls-6" cx="189.64" cy="58.6" rx="0.37" ry="1.07" transform="translate(-5.18 20.62) rotate(-6.14)"/><ellipse class="cls-6" cx="190.13" cy="60.43" rx="0.37" ry="1.07" transform="translate(-9 72.59) rotate(-21.13)"/><path class="cls-1" d="M178.65,52.68s-.2,4.06,8.77,4.06,10.21-1.6,10.3-3.62l-16.24.5-2.78-1"/><g class="cls-7"><path class="cls-8" d="M178.27,51.26s-1,3.81,7.14,4.6,12.78-.06,13.15-3.46h0s-11.51-4.1-11.63-4.13S178.27,51.26,178.27,51.26Z"/></g><path class="cls-3" d="M198.63,52.68c0,1.67-2,3-7.6,3s-12.72-1.31-12.72-3,7.11-3.07,12.72-3.07S198.63,51,198.63,52.68Z"/><path class="cls-4" d="M184.8,50.27a23.9,23.9,0,0,1,1.36,4.63l3.25-3.06S185.89,50.14,184.8,50.27Z"/><path class="cls-4" d="M191.06,51.78s3.77-1.57,1.88-1.94c0,0,4.43-.17,5.37,2.23s-3.25,3.07-4.85,3.28C193.46,55.35,197.11,52.45,191.06,51.78Z"/><path class="cls-9" d="M184.69,50a1.85,1.85,0,0,0-2.31.08s0,3.61,1.64,4.87c0,0,1.93.8,2.14-.09S185.28,50.71,184.69,50Z"/><path class="cls-10" d="M182.38,50.12s-2.26-.21-3.27,1.17c0,0-.25,1.77.71,2.57a5.84,5.84,0,0,0,3.86,1A6.19,6.19,0,0,0,182.38,50.12Z"/><path class="cls-3" d="M179.11,51.29a3.61,3.61,0,0,0-4.07.76.54.54,0,0,0,.25.84,5.35,5.35,0,0,0,4.53,1S180.33,52.09,179.11,51.29Z"/><circle class="cls-11" cx="177.58" cy="52.74" r="0.76"/><circle cx="177.58" cy="52.75" r="0.61"/><circle class="cls-11" cx="177.25" cy="52.35" r="0.24"/></svg>