<svg xmlns="http://www.w3.org/2000/svg" xmlns:xlink="http://www.w3.org/1999/xlink" viewBox="0 0 260 168"><defs><style>.cls-1{fill:#c90505;}.cls-2{fill:#fff;}.cls-3{fill:#8e0303;}.cls-4{fill:#aa0909;}.cls-5{clip-path:url(#clip-path);}.cls-6{fill:#a80202;}.cls-7{fill:#dd0505;}.cls-8{fill:#420202;}.cls-9{fill:#ea1f1f;}.cls-10{fill:#ef3a3a;}.cls-11{fill:#c90706;}.cls-12{clip-path:url(#clip-path-2);}</style><clipPath id="clip-path"><path class="cls-1" d="M251.54,134.05s.29,3.53-7.51,3.78-8.92-1.11-9.06-2.86l14.13,0,2.39-1"/></clipPath><clipPath id="clip-path-2"><ellipse class="cls-2" cx="252.54" cy="133.46" rx="0.55" ry="1.36" transform="translate(-23.3 59.29) rotate(-12.8)"/></clipPath></defs><g id="Layer_10" data-name="Layer 10"><ellipse class="cls-3" cx="248.11" cy="134.76" rx="0.47" ry="1.38" transform="translate(-34.23 136.62) rotate(-28.89)"/><ellipse class="cls-3" cx="248.45" cy="136.48" rx="1.38" ry="0.47" transform="translate(82.71 366.44) rotate(-83)"/><ellipse class="cls-3" cx="247.77" cy="138.82" rx="1.38" ry="0.47" transform="translate(26.28 316.6) rotate(-68.01)"/><ellipse class="cls-4" cx="241.99" cy="136.04" rx="0.47" ry="1.38" transform="translate(7.03 283.9) rotate(-61.53)"/><ellipse class="cls-4" cx="243.29" cy="137.77" rx="0.47" ry="1.38" transform="translate(-27.91 69.8) rotate(-15.45)"/><ellipse class="cls-4" cx="243.57" cy="140.19" rx="0.47" ry="1.38" transform="matrix(1, -0.01, 0.01, 1, -1.13, 1.98)"/><ellipse class="cls-4" cx="244.88" cy="136.42" rx="0.47" ry="1.38" transform="translate(35.61 322.92) rotate(-70.83)"/><ellipse class="cls-4" cx="246.44" cy="137.92" rx="0.47" ry="1.38" transform="translate(-35.1 115.85) rotate(-24.75)"/><ellipse class="cls-4" cx="247.1" cy="140.26" rx="0.47" ry="1.38" transform="translate(-20.21 43.94) rotate(-9.77)"/><ellipse class="cls-3" cx="244.87" cy="134.86" rx="0.47" ry="1.38" transform="translate(-21.05 48.63) rotate(-10.88)"/><ellipse class="cls-3" cx="244.36" cy="136.96" rx="1.38" ry="0.47" transform="translate(-8.41 257.69) rotate(-54.8)"/><ellipse class="cls-3" cx="242.66" cy="138.7" rx="1.38" ry="0.47" transform="translate(-32.55 187.54) rotate(-39.81)"/><ellipse class="cls-4" cx="250.01" cy="137.08" rx="0.47" ry="1.38" transform="translate(12.53 294.87) rotate(-62.34)"/><ellipse class="cls-4" cx="251.24" cy="138.32" rx="0.47" ry="1.38" transform="translate(-35.31 126.39) rotate(-26.45)"/><ellipse class="cls-4" cx="251.97" cy="140.65" rx="0.47" ry="1.38" transform="translate(-22.93 52.9) rotate(-11.47)"/><ellipse class="cls-4" cx="240.24" cy="137.42" rx="0.32" ry="0.93" transform="translate(-12.85 249.41) rotate(-53.64)"/><ellipse class="cls-4" cx="240.95" cy="138.69" rx="0.32" ry="0.93" transform="translate(-16.16 32.91) rotate(-7.56)"/><ellipse class="cls-4" cx="240.91" cy="140.34" rx="0.93" ry="0.32" transform="translate(70.62 361.1) rotate(-82.58)"/><path class="cls-1" d="M251.54,134.05s.29,3.53-7.51,3.78-8.92-1.11-9.06-2.86l14.13,0,2.39-1"/><g class="cls-5"><path class="cls-6" d="M251.83,132.81s1,3.28-6.08,4.2-11.11.3-11.53-2.64h0l10-3.92C244.33,130.42,251.83,132.81,251.83,132.81Z"/></g><path class="cls-7" d="M234.17,134.62c.05,1.45,1.81,2.53,6.69,2.37s11-1.49,11-2.94-6.26-2.47-11.14-2.32S234.13,133.16,234.17,134.62Z"/><path class="cls-8" d="M246.13,132.13a20.76,20.76,0,0,0-1.06,4.07l-2.91-2.57S245.18,132.05,246.13,132.13Z"/><path class="cls-8" d="M240.72,133.62s-3.31-1.26-1.68-1.64c0,0-3.86,0-4.61,2.1s2.91,2.57,4.31,2.71C238.74,136.79,235.49,134.37,240.72,133.62Z"/><path class="cls-9" d="M246.21,131.92a1.62,1.62,0,0,1,2,0s.14,3.14-1.28,4.28c0,0-1.66.75-1.87,0A9.25,9.25,0,0,1,246.21,131.92Z"/><path class="cls-10" d="M248.22,131.93s2-.24,2.88.93a2.76,2.76,0,0,1-.55,2.25,5,5,0,0,1-3.33,1A5.42,5.42,0,0,1,248.22,131.93Z"/><ellipse class="cls-7" cx="254.46" cy="133.46" rx="1.75" ry="0.29" transform="translate(-27.57 78.52) rotate(-16.65)"/><ellipse class="cls-8" cx="256.25" cy="131.42" rx="1.75" ry="0.29" transform="translate(80.25 359.36) rotate(-79.48)"/><ellipse class="cls-7" cx="254.18" cy="135.19" rx="0.29" ry="1.75" transform="translate(78.16 363.02) rotate(-80.32)"/><ellipse class="cls-8" cx="256.69" cy="134.16" rx="1.75" ry="0.29" transform="translate(-4.62 259.08) rotate(-53.14)"/><path class="cls-11" d="M255.37,132.89a3.43,3.43,0,0,1-1.35,2c-1.08.7-3.21,1.29-3.43.25S255,132.78,255.37,132.89Z"/><path class="cls-7" d="M250.68,132.25a4.07,4.07,0,0,1,4.67-.11.6.6,0,0,1-.09,1,6,6,0,0,1-4.77,2.12S249.52,133.41,250.68,132.25Z"/><ellipse class="cls-2" cx="252.54" cy="133.46" rx="0.55" ry="1.36" transform="translate(-23.3 59.29) rotate(-12.8)"/><g class="cls-12"><path d="M252.6,132.76c.05.19.17.33.26.3s.07-.05.09-.12a2.92,2.92,0,0,1,.1.35c.12.52,0,1-.16,1s-.48-.33-.59-.85-.05-1,.16-1a.21.21,0,0,1,.13,0A.62.62,0,0,0,252.6,132.76Z"/></g></g></svg>