<svg id="Layer_2" data-name="Layer 2" xmlns="http://www.w3.org/2000/svg" xmlns:xlink="http://www.w3.org/1999/xlink" viewBox="0 0 260 168"><defs><style>.cls-1{fill:#c90505;}.cls-2{fill:#8e0303;}.cls-3{fill:#dd0505;}.cls-4{fill:#420202;}.cls-5{fill:#c90706;}.cls-6{fill:#aa0909;}.cls-7{clip-path:url(#clip-path);}.cls-8{fill:#a80202;}.cls-9{fill:#ea1f1f;}.cls-10{fill:#ef3a3a;}.cls-11{fill:#fff;}</style><clipPath id="clip-path"><path class="cls-1" d="M250.83,52.68s-.19,4.06,8.78,4.06,10.21-1.6,10.3-3.62l-16.24.5-2.78-1"/></clipPath></defs><ellipse class="cls-2" cx="253.8" cy="52.46" rx="1.58" ry="0.54" transform="matrix(0.96, -0.26, 0.26, 0.96, -4.87, 68.5)"/><ellipse class="cls-2" cx="252.11" cy="53.56" rx="1.58" ry="0.54" transform="translate(52.15 216.17) rotate(-51.11)"/><ellipse class="cls-2" cx="250.71" cy="55.99" rx="1.58" ry="0.54" transform="translate(97.94 262.51) rotate(-66.1)"/><ellipse class="cls-3" cx="247.16" cy="53.06" rx="0.33" ry="2.01" transform="translate(173.82 294.97) rotate(-85.25)"/><ellipse class="cls-4" cx="244.66" cy="51.19" rx="0.33" ry="2.01" transform="translate(-1.02 97.21) rotate(-22.43)"/><ellipse class="cls-3" cx="247.88" cy="54.94" rx="2.01" ry="0.33" transform="translate(-2.83 95.05) rotate(-21.59)"/><ellipse class="cls-4" cx="244.82" cy="54.38" rx="0.33" ry="2.01" transform="translate(42.54 202.63) rotate(-48.76)"/><path class="cls-5" d="M247.34,52.71a3.05,3.05,0,0,0,1.54,1.51c1.07.41,3,.54,3-.41S247.62,52.55,247.34,52.71Z"/><ellipse class="cls-6" cx="260.51" cy="57.63" rx="0.54" ry="1.58"/><ellipse class="cls-6" cx="257.92" cy="57.39" rx="1.58" ry="0.54" transform="translate(112.92 278.27) rotate(-69.26)"/><ellipse class="cls-6" cx="258.08" cy="59.87" rx="0.54" ry="1.58" transform="translate(-0.8 116.2) rotate(-25.34)"/><ellipse class="cls-6" cx="259.66" cy="62.18" rx="0.54" ry="1.58" transform="translate(21.45 182.8) rotate(-40.32)"/><ellipse class="cls-2" cx="257.64" cy="52.75" rx="1.58" ry="0.54" transform="translate(-4.5 73.76) rotate(-16.15)"/><ellipse class="cls-2" cx="255.76" cy="54.37" rx="1.58" ry="0.54" transform="translate(88.48 255.33) rotate(-62.23)"/><ellipse class="cls-2" cx="254.85" cy="57.02" rx="1.58" ry="0.54" transform="translate(142.84 292.94) rotate(-77.21)"/><ellipse class="cls-6" cx="252.69" cy="56.15" rx="1.58" ry="0.54" transform="translate(47.75 214.29) rotate(-50.18)"/><ellipse class="cls-6" cx="251.93" cy="58.02" rx="1.58" ry="0.54" transform="translate(176.78 305.38) rotate(-86.07)"/><ellipse class="cls-6" cx="252.18" cy="60.81" rx="0.54" ry="1.58" transform="translate(-6.98 49.48) rotate(-11.05)"/><path class="cls-1" d="M250.83,52.68s-.19,4.06,8.78,4.06,10.21-1.6,10.3-3.62l-16.24.5-2.78-1"/><g class="cls-7"><path class="cls-8" d="M250.45,51.26s-1,3.81,7.15,4.6,12.78-.06,13.15-3.46h0s-11.51-4.1-11.63-4.13S250.45,51.26,250.45,51.26Z"/></g><path class="cls-3" d="M270.81,52.68c0,1.67-2,3-7.59,3s-12.72-1.31-12.72-3,7.11-3.07,12.72-3.07S270.81,51,270.81,52.68Z"/><path class="cls-4" d="M257,50.27a23.55,23.55,0,0,1,1.37,4.63l3.25-3.06S258.08,50.14,257,50.27Z"/><path class="cls-9" d="M256.88,50a1.85,1.85,0,0,0-2.31.08s0,3.61,1.64,4.87c0,0,1.93.8,2.14-.09S257.47,50.71,256.88,50Z"/><path class="cls-10" d="M254.57,50.12s-2.27-.21-3.27,1.17c0,0-.26,1.77.71,2.57a5.82,5.82,0,0,0,3.86,1A6.24,6.24,0,0,0,254.57,50.12Z"/><path class="cls-3" d="M251.3,51.29a3.62,3.62,0,0,0-4.08.76.55.55,0,0,0,.26.84,5.34,5.34,0,0,0,4.53,1S252.51,52.09,251.3,51.29Z"/><circle class="cls-11" cx="249.76" cy="52.74" r="0.76"/><circle cx="249.76" cy="52.75" r="0.61"/><circle class="cls-11" cx="249.43" cy="52.35" r="0.24"/></svg>