<svg id="Layer_19" data-name="Layer 19" xmlns="http://www.w3.org/2000/svg" xmlns:xlink="http://www.w3.org/1999/xlink" viewBox="0 0 260 168"><defs><style>.cls-1{fill:#c90505;}.cls-2{fill:#8e0303;}.cls-3{fill:#dd0505;}.cls-4{fill:#420202;}.cls-5{fill:#c90706;}.cls-6{fill:#aa0909;}.cls-7{clip-path:url(#clip-path);}.cls-8{fill:#a80202;}.cls-9{fill:#ea1f1f;}.cls-10{fill:#ef3a3a;}.cls-11{fill:#fff;}</style><clipPath id="clip-path"><path class="cls-1" d="M44.25,53.39s-.19,4.06,8.78,4.06,10.21-1.61,10.3-3.62l-16.24.5-2.79-1"/></clipPath></defs><ellipse class="cls-2" cx="47.21" cy="53.17" rx="1.58" ry="0.54" transform="matrix(0.96, -0.26, 0.26, 0.96, -12.31, 14.27)"/><ellipse class="cls-2" cx="45.53" cy="54.27" rx="1.58" ry="0.54" transform="translate(-25.3 55.63) rotate(-51.11)"/><ellipse class="cls-2" cx="44.13" cy="56.7" rx="1.58" ry="0.54" transform="translate(-25.59 74.07) rotate(-66.1)"/><ellipse class="cls-3" cx="40.58" cy="53.76" rx="0.33" ry="2.01" transform="translate(-16.36 89.75) rotate(-85.25)"/><ellipse class="cls-4" cx="38.08" cy="51.9" rx="0.33" ry="2.01" transform="translate(-16.92 18.45) rotate(-22.43)"/><ellipse class="cls-3" cx="41.3" cy="55.65" rx="2.01" ry="0.33" transform="translate(-17.58 19.1) rotate(-21.59)"/><ellipse class="cls-4" cx="38.24" cy="55.09" rx="0.33" ry="2.01" transform="translate(-28.39 47.53) rotate(-48.76)"/><path class="cls-5" d="M40.76,53.42a3.05,3.05,0,0,0,1.54,1.51c1.07.41,3,.54,3-.41S41,53.26,40.76,53.42Z"/><ellipse class="cls-6" cx="53.93" cy="58.34" rx="0.54" ry="1.58"/><ellipse class="cls-6" cx="54.96" cy="60.6" rx="0.54" ry="1.58" transform="translate(-26.81 58.15) rotate(-46.07)"/><ellipse class="cls-6" cx="57.26" cy="62.2" rx="0.54" ry="1.58" transform="translate(-24.88 82.21) rotate(-61.06)"/><ellipse class="cls-6" cx="51.34" cy="58.1" rx="1.58" ry="0.54" transform="translate(-21.18 85.54) rotate(-69.26)"/><ellipse class="cls-6" cx="51.5" cy="60.58" rx="0.54" ry="1.58" transform="translate(-20.97 27.87) rotate(-25.34)"/><ellipse class="cls-6" cx="53.08" cy="62.89" rx="0.54" ry="1.58" transform="translate(-28.09 49.29) rotate(-40.32)"/><ellipse class="cls-2" cx="51.06" cy="53.46" rx="1.58" ry="0.54" transform="translate(-12.86 16.32) rotate(-16.15)"/><ellipse class="cls-2" cx="49.18" cy="55.08" rx="1.58" ry="0.54" transform="translate(-22.47 72.93) rotate(-62.23)"/><ellipse class="cls-2" cx="48.27" cy="57.73" rx="1.58" ry="0.54" transform="translate(-18.71 92.03) rotate(-77.21)"/><ellipse class="cls-6" cx="46.11" cy="56.86" rx="1.58" ry="0.54" transform="translate(-27.09 55.87) rotate(-50.18)"/><ellipse class="cls-6" cx="45.35" cy="58.73" rx="1.58" ry="0.54" transform="translate(-16.35 99.95) rotate(-86.07)"/><ellipse class="cls-6" cx="45.6" cy="61.52" rx="0.54" ry="1.58" transform="translate(-10.95 9.88) rotate(-11.05)"/><ellipse class="cls-6" cx="56.46" cy="57.7" rx="0.37" ry="1.07"/><ellipse class="cls-6" cx="57.16" cy="59.23" rx="0.37" ry="1.07" transform="translate(-25.15 59.31) rotate(-46.07)"/><ellipse class="cls-6" cx="58.71" cy="60.31" rx="0.37" ry="1.07" transform="translate(-22.48 82.51) rotate(-61.06)"/><path class="cls-1" d="M44.25,53.39s-.19,4.06,8.78,4.06,10.21-1.61,10.3-3.62l-16.24.5-2.79-1"/><g class="cls-7"><path class="cls-8" d="M43.87,52s-1,3.81,7.15,4.6,12.77-.06,13.15-3.46h0S52.66,49,52.53,49,43.87,52,43.87,52Z"/></g><path class="cls-3" d="M64.23,53.39c0,1.67-2,3-7.59,3s-12.72-1.31-12.72-3S51,50.32,56.64,50.32,64.23,51.72,64.23,53.39Z"/><path class="cls-4" d="M50.4,51a23.3,23.3,0,0,1,1.37,4.63L55,52.55S51.49,50.85,50.4,51Z"/><path class="cls-4" d="M56.67,52.49s3.76-1.57,1.88-2c0,0,4.43-.17,5.37,2.24s-3.26,3.06-4.85,3.27C59.07,56.05,62.71,53.16,56.67,52.49Z"/><path class="cls-9" d="M50.3,50.74a1.85,1.85,0,0,0-2.31.09s0,3.61,1.64,4.87c0,0,1.93.79,2.14-.09S50.88,51.42,50.3,50.74Z"/><path class="cls-10" d="M48,50.83s-2.27-.21-3.28,1.17c0,0-.25,1.77.72,2.56a5.8,5.8,0,0,0,3.86,1A6.24,6.24,0,0,0,48,50.83Z"/><path class="cls-3" d="M44.71,52a3.61,3.61,0,0,0-4.07.76.55.55,0,0,0,.25.84,5.37,5.37,0,0,0,4.54,1S45.93,52.8,44.71,52Z"/><circle class="cls-11" cx="43.18" cy="53.45" r="0.76"/><circle cx="43.18" cy="53.45" r="0.61"/><circle class="cls-11" cx="42.85" cy="53.06" r="0.24"/></svg>