<svg xmlns="http://www.w3.org/2000/svg" xmlns:xlink="http://www.w3.org/1999/xlink" viewBox="0 0 260 168"><defs><style>.cls-1{fill:#c90505;}.cls-2{fill:#fff;}.cls-3{fill:#8e0303;}.cls-4{fill:#aa0909;}.cls-5{clip-path:url(#clip-path);}.cls-6{fill:#a80202;}.cls-7{fill:#dd0505;}.cls-8{fill:#420202;}.cls-9{fill:#ea1f1f;}.cls-10{fill:#ef3a3a;}.cls-11{fill:#c90706;}.cls-12{clip-path:url(#clip-path-2);}</style><clipPath id="clip-path"><path class="cls-1" d="M222.37,134.05s.29,3.53-7.51,3.78-8.92-1.11-9.06-2.86l14.13,0,2.4-1"/></clipPath><clipPath id="clip-path-2"><ellipse class="cls-2" cx="223.37" cy="133.46" rx="0.55" ry="1.36" transform="translate(-24.02 52.82) rotate(-12.8)"/></clipPath></defs><g id="Layer_6" data-name="Layer 6"><ellipse class="cls-3" cx="219.79" cy="133.95" rx="0.47" ry="1.38" transform="translate(38.63 316.79) rotate(-76.62)"/><ellipse class="cls-3" cx="221.29" cy="134.85" rx="0.47" ry="1.38" transform="translate(-34.39 177.09) rotate(-40.74)"/><ellipse class="cls-3" cx="222.58" cy="136.93" rx="0.47" ry="1.38" transform="translate(-37.39 110.3) rotate(-25.75)"/><ellipse class="cls-4" cx="212.41" cy="136.23" rx="0.47" ry="1.38" transform="translate(-38.59 110.26) rotate(-26.77)"/><ellipse class="cls-4" cx="212.49" cy="138.39" rx="1.38" ry="0.47" transform="translate(11.63 293.17) rotate(-70.69)"/><ellipse class="cls-4" cx="211.34" cy="140.53" rx="1.38" ry="0.47" transform="translate(-23.84 235.95) rotate(-55.71)"/><ellipse class="cls-4" cx="215.33" cy="136.71" rx="0.47" ry="1.38" transform="translate(-39.7 140.33) rotate(-33.22)"/><ellipse class="cls-4" cx="215.66" cy="138.84" rx="1.38" ry="0.47" transform="translate(32.32 318.21) rotate(-77.15)"/><ellipse class="cls-4" cx="214.75" cy="141.1" rx="1.38" ry="0.47" transform="translate(-10.31 265.1) rotate(-62.16)"/><ellipse class="cls-3" cx="216.46" cy="134.31" rx="0.47" ry="1.38" transform="translate(32.84 310.88) rotate(-75.7)"/><ellipse class="cls-3" cx="218.14" cy="135.66" rx="0.47" ry="1.38" transform="translate(-38.54 125.55) rotate(-29.62)"/><ellipse class="cls-3" cx="219" cy="137.94" rx="0.47" ry="1.38" transform="translate(-27.75 59.81) rotate(-14.63)"/><ellipse class="cls-4" cx="220.1" cy="137.49" rx="0.47" ry="1.38" transform="translate(-17.3 32.66) rotate(-8.17)"/><ellipse class="cls-4" cx="219.81" cy="139.21" rx="1.38" ry="0.47" transform="translate(-5.67 269.04) rotate(-62.28)"/><ellipse class="cls-4" cx="218.35" cy="141.17" rx="1.38" ry="0.47" transform="translate(-33.48 205.88) rotate(-47.29)"/><ellipse class="cls-4" cx="210.16" cy="137.56" rx="0.93" ry="0.32" transform="translate(63.4 341.4) rotate(-87.45)"/><ellipse class="cls-4" cx="209.49" cy="138.86" rx="0.93" ry="0.32" transform="translate(-39.49 173.14) rotate(-41.38)"/><ellipse class="cls-4" cx="208.1" cy="139.74" rx="0.93" ry="0.32" transform="translate(-40.43 107.07) rotate(-26.39)"/><path class="cls-1" d="M222.37,134.05s.29,3.53-7.51,3.78-8.92-1.11-9.06-2.86l14.13,0,2.4-1"/><g class="cls-5"><path class="cls-6" d="M222.67,132.81s1,3.28-6.09,4.2-11.11.3-11.53-2.64h0l10-3.92C215.16,130.42,222.67,132.81,222.67,132.81Z"/></g><path class="cls-7" d="M205,134.62c.05,1.45,1.82,2.53,6.69,2.37s11-1.49,11-2.94-6.27-2.47-11.15-2.32S205,133.16,205,134.62Z"/><path class="cls-8" d="M217,132.13a20.76,20.76,0,0,0-1.06,4.07L213,133.63S216,132.05,217,132.13Z"/><path class="cls-8" d="M211.56,133.62s-3.32-1.26-1.69-1.64c0,0-3.86,0-4.61,2.1s2.91,2.57,4.31,2.71C209.57,136.79,206.32,134.37,211.56,133.62Z"/><path class="cls-9" d="M217,131.92a1.62,1.62,0,0,1,2,0s.14,3.14-1.28,4.28c0,0-1.66.75-1.87,0A9.37,9.37,0,0,1,217,131.92Z"/><path class="cls-10" d="M219.05,131.93s2-.24,2.88.93a2.78,2.78,0,0,1-.54,2.25,5.06,5.06,0,0,1-3.33,1A5.44,5.44,0,0,1,219.05,131.93Z"/><ellipse class="cls-7" cx="225.29" cy="133.46" rx="1.75" ry="0.29" transform="translate(-28.8 70.16) rotate(-16.65)"/><ellipse class="cls-8" cx="227.08" cy="131.42" rx="1.75" ry="0.29" transform="translate(56.41 330.69) rotate(-79.48)"/><ellipse class="cls-7" cx="225.02" cy="135.19" rx="0.29" ry="1.75" transform="translate(53.9 334.26) rotate(-80.32)"/><ellipse class="cls-8" cx="227.52" cy="134.16" rx="1.75" ry="0.29" transform="translate(-16.29 235.74) rotate(-53.14)"/><path class="cls-11" d="M226.21,132.89a3.49,3.49,0,0,1-1.35,2c-1.09.7-3.22,1.29-3.44.25S225.86,132.78,226.21,132.89Z"/><path class="cls-7" d="M221.51,132.25a4.08,4.08,0,0,1,4.67-.11.61.61,0,0,1-.08,1,6,6,0,0,1-4.78,2.12S220.35,133.41,221.51,132.25Z"/><ellipse class="cls-2" cx="223.37" cy="133.46" rx="0.55" ry="1.36" transform="translate(-24.02 52.82) rotate(-12.8)"/><g class="cls-12"><path d="M223.43,132.76c0,.19.17.33.26.3s.07-.05.09-.12a1.79,1.79,0,0,1,.1.35c.12.52.05,1-.16,1s-.47-.33-.59-.85,0-1,.16-1a.21.21,0,0,1,.13,0A.62.62,0,0,0,223.43,132.76Z"/></g></g></svg>