<svg id="Layer_1" data-name="Layer 1" xmlns="http://www.w3.org/2000/svg" xmlns:xlink="http://www.w3.org/1999/xlink" viewBox="0 0 260 168"><defs><style>.cls-1{fill:#af1010;}.cls-2{fill:#fff;}.cls-3{fill:#9e5823;}.cls-4{fill:#420202;}.cls-5{fill:#c90505;}.cls-6{fill:#d81e1e;}.cls-7{fill:#900;}.cls-8{clip-path:url(#clip-path);}.cls-9{fill:none;stroke:#930909;stroke-miterlimit:10;stroke-width:0.44px;}.cls-10{clip-path:url(#clip-path-2);}.cls-11{clip-path:url(#clip-path-3);}.cls-12{clip-path:url(#clip-path-4);}.cls-13{fill:#8c4719;}.cls-14{fill:#aa6535;}.cls-15{clip-path:url(#clip-path-5);}.cls-16{fill:#ea2828;}</style><clipPath id="clip-path"><path class="cls-1" d="M139,114.86c0,12-4.7,17.24-10.5,17.24S118,126.89,118,114.86s4.7-26.3,10.51-26.3S139,102.84,139,114.86Z"/></clipPath><clipPath id="clip-path-2"><ellipse class="cls-2" cx="124.71" cy="79.94" rx="4.23" ry="2.3" transform="translate(26.12 190.49) rotate(-80.94)"/></clipPath><clipPath id="clip-path-3"><ellipse class="cls-2" cx="132.16" cy="79.94" rx="2.3" ry="4.23" transform="translate(-10.94 21.81) rotate(-9.06)"/></clipPath><clipPath id="clip-path-4"><path class="cls-3" d="M95.05,83a5.52,5.52,0,0,0-1,1.58l-1.34,2.73a1.92,1.92,0,0,0-.27.89,1.89,1.89,0,0,0,.43,1l.85,1.21a1.37,1.37,0,0,0,.52.52,1.46,1.46,0,0,0,.72,0,40.38,40.38,0,0,0,4.37-.78,13.36,13.36,0,0,0,3.79-1.38,5.62,5.62,0,0,0,2.54-3,.82.82,0,0,0,0-.44.78.78,0,0,0-.18-.3C103.27,82.27,98.09,80.12,95.05,83Z"/></clipPath><clipPath id="clip-path-5"><path class="cls-4" d="M126.74,86.32s2.11,1.35,3.77,0C130.51,86.32,128.91,92,126.74,86.32Z"/></clipPath></defs><ellipse class="cls-5" cx="128.45" cy="96.02" rx="12.73" ry="5.98"/><ellipse class="cls-6" cx="128.45" cy="87.75" rx="10.81" ry="6.75"/><path class="cls-5" d="M141.84,114c0,15.27-6,21.89-13.34,21.89s-13.35-6.62-13.35-21.89,6-33.42,13.35-33.42S141.84,98.7,141.84,114Z"/><path class="cls-7" d="M140.58,114.2c0,13.82-5.41,19.82-12.08,19.82s-12.09-6-12.09-19.82S121.82,84,128.5,84,140.58,100.38,140.58,114.2Z"/><ellipse class="cls-7" cx="117.12" cy="122.16" rx="5.97" ry="2.07" transform="translate(-47.5 161.39) rotate(-59.61)"/><ellipse class="cls-7" cx="114.88" cy="131.09" rx="5.71" ry="2.16" transform="translate(-20.29 241.13) rotate(-87.92)"/><ellipse class="cls-7" cx="113.54" cy="140.38" rx="5.79" ry="2.13" transform="translate(-53.84 208.07) rotate(-73.05)"/><ellipse class="cls-7" cx="140.23" cy="122.16" rx="2.07" ry="5.97" transform="translate(-42.53 87.72) rotate(-30.39)"/><ellipse class="cls-7" cx="142.47" cy="131.09" rx="2.16" ry="5.71" transform="translate(-4.66 5.25) rotate(-2.08)"/><ellipse class="cls-7" cx="143.81" cy="140.38" rx="2.13" ry="5.79" transform="translate(-34.67 48.01) rotate(-16.95)"/><ellipse class="cls-7" cx="142.56" cy="112.77" rx="2.07" ry="5.97" transform="translate(-38.47 129.23) rotate(-43.54)"/><ellipse class="cls-7" cx="146.77" cy="120.96" rx="2.16" ry="5.71" transform="translate(-26.62 42.8) rotate(-15.23)"/><ellipse class="cls-7" cx="150.19" cy="129.7" rx="2.13" ry="5.79" transform="translate(-44.79 92.8) rotate(-30.1)"/><ellipse class="cls-7" cx="142.98" cy="106.7" rx="2.07" ry="5.97" transform="translate(-6.24 204.49) rotate(-69.97)"/><ellipse class="cls-7" cx="150.4" cy="112.16" rx="2.16" ry="5.71" transform="translate(-36.52 128.33) rotate(-41.66)"/><ellipse class="cls-7" cx="157.35" cy="118.47" rx="2.13" ry="5.79" transform="translate(-28.25 184.38) rotate(-56.53)"/><ellipse class="cls-7" cx="115.28" cy="106.7" rx="5.97" ry="2.07" transform="translate(-29.57 45.94) rotate(-20.03)"/><ellipse class="cls-7" cx="107.86" cy="112.16" rx="5.71" ry="2.16" transform="translate(-47.63 118.19) rotate(-48.34)"/><ellipse class="cls-7" cx="100.91" cy="118.47" rx="5.79" ry="2.13" transform="translate(-48.6 75.3) rotate(-33.47)"/><ellipse class="cls-7" cx="114.01" cy="112.77" rx="5.97" ry="2.07" transform="translate(-46.28 117.74) rotate(-46.46)"/><ellipse class="cls-7" cx="109.8" cy="120.96" rx="5.71" ry="2.16" transform="translate(-35.76 195.13) rotate(-74.77)"/><ellipse class="cls-7" cx="106.38" cy="129.7" rx="5.79" ry="2.13" transform="translate(-59.18 156.7) rotate(-59.9)"/><ellipse class="cls-7" cx="115.84" cy="96.24" rx="5.97" ry="2.07" transform="translate(-2.61 3.23) rotate(-1.58)"/><ellipse class="cls-7" cx="106.94" cy="93.91" rx="2.16" ry="5.71" transform="translate(-25.03 147.18) rotate(-63.27)"/><ellipse class="cls-7" cx="98.15" cy="90.6" rx="2.13" ry="5.79" transform="translate(-10.69 168.03) rotate(-78.14)"/><ellipse class="cls-7" cx="141.29" cy="97.31" rx="2.07" ry="5.97" transform="translate(33.08 230.44) rotate(-85.45)"/><ellipse class="cls-7" cx="150.3" cy="95.44" rx="5.71" ry="2.16" transform="translate(-25.71 68.65) rotate(-23.76)"/><ellipse class="cls-7" cx="159.25" cy="92.59" rx="5.79" ry="2.13" transform="matrix(0.99, -0.15, 0.15, 0.99, -12.4, 25.73)"/><ellipse class="cls-6" cx="120.13" cy="82.96" rx="1.15" ry="7.78" transform="translate(-25.49 93.39) rotate(-38.72)"/><ellipse class="cls-4" cx="114.76" cy="71.15" rx="1.15" ry="7.78" transform="translate(-9.89 19.23) rotate(-9.18)"/><ellipse class="cls-6" cx="136.56" cy="82.96" rx="7.78" ry="1.15" transform="matrix(0.63, -0.78, 0.78, 0.63, -13.59, 137.6)"/><ellipse class="cls-4" cx="141.93" cy="71.15" rx="7.78" ry="1.15" transform="translate(49.04 199.9) rotate(-80.82)"/><path class="cls-1" d="M139,114.86c0,12-4.7,17.24-10.5,17.24S118,126.89,118,114.86s4.7-26.3,10.51-26.3S139,102.84,139,114.86Z"/><g class="cls-8"><ellipse class="cls-9" cx="128.02" cy="99.65" rx="17.09" ry="15.03"/><path class="cls-9" d="M145.11,107.84c0,8.31-7.65,15-17.09,15s-17.1-6.73-17.1-15"/><path class="cls-9" d="M145.11,114.89c0,8.3-7.65,15-17.09,15s-17.1-6.73-17.1-15"/></g><path class="cls-5" d="M136.42,82.19c0-4.4-3.57-10.94-8-10.94s-8,6.54-8,10.94a8,8,0,0,0,15.94,0Z"/><ellipse class="cls-2" cx="124.71" cy="79.94" rx="4.23" ry="2.3" transform="translate(26.12 190.49) rotate(-80.94)"/><g class="cls-10"><path d="M124.14,77.36a1,1,0,0,0-.57.1,1.65,1.65,0,0,1,0,1.12c-.16.63-.52,1.08-.79,1s-.31-.46-.24-1a4.43,4.43,0,0,0-.39,1.29c-.25,1.55.23,2.91,1.07,3s1.72-1,2-2.56S125,77.49,124.14,77.36Z"/></g><ellipse class="cls-2" cx="132.16" cy="79.94" rx="2.3" ry="4.23" transform="translate(-10.94 21.81) rotate(-9.06)"/><g class="cls-11"><path d="M130.46,77.33a1,1,0,0,1,.57.1,1.62,1.62,0,0,0,0,1.13c.16.63.51,1.08.78,1s.32-.47.25-1a5,5,0,0,1,.39,1.29c.25,1.55-.23,2.91-1.07,3s-1.73-1-2-2.56S129.62,77.47,130.46,77.33Z"/></g><path class="cls-3" d="M95.05,83a5.52,5.52,0,0,0-1,1.58l-1.34,2.73a1.92,1.92,0,0,0-.27.89,1.89,1.89,0,0,0,.43,1l.85,1.21a1.37,1.37,0,0,0,.52.52,1.46,1.46,0,0,0,.72,0,40.38,40.38,0,0,0,4.37-.78,13.36,13.36,0,0,0,3.79-1.38,5.62,5.62,0,0,0,2.54-3,.82.82,0,0,0,0-.44.78.78,0,0,0-.18-.3C103.27,82.27,98.09,80.12,95.05,83Z"/><g class="cls-12"><path class="cls-13" d="M91.64,89.3c-.18-.42.38-.76.82-.88a2.89,2.89,0,0,1,1.9-.08,5.27,5.27,0,0,1,1.06.76,1.22,1.22,0,0,0,1.21.26c.39-.19.46-.89,0-1,.55-.21,1.11-.61,1.67-.44a2.56,2.56,0,0,1,.47.23,3,3,0,0,0,2.57,0,.88.88,0,0,0,.47-.37.38.38,0,0,0-.14-.52c.55-1.36,2.77-1.11,3.63-2.3l3.8,1.7a41.83,41.83,0,0,1-7.71,7.26,5.82,5.82,0,0,1-1.65,1,7.38,7.38,0,0,1-2.57.18,26.59,26.59,0,0,0-5.4.6,1.17,1.17,0,0,1-.74,0,1,1,0,0,1-.36-.31,3.56,3.56,0,0,1-.37-3.81"/><path class="cls-14" d="M95.08,84.8c.2-.28.34-.59.54-.87a2.58,2.58,0,0,1,2.09-1.06c.32,0,.63.06.94.07a2.77,2.77,0,0,0,2.24-1.08,15.49,15.49,0,0,0-5.5-4.08c-.85,1-1.68,2.12-2.48,3.2-.63.84-1.82,2-1.9,3.06C90.8,86.67,93.91,86.41,95.08,84.8Z"/></g><path class="cls-4" d="M126.74,86.32s2.11,1.35,3.77,0C130.51,86.32,128.91,92,126.74,86.32Z"/><g class="cls-15"><ellipse class="cls-16" cx="128.66" cy="89.56" rx="1.82" ry="1.66"/></g></svg>