<svg id="Layer_2" data-name="Layer 2" xmlns="http://www.w3.org/2000/svg" xmlns:xlink="http://www.w3.org/1999/xlink" viewBox="0 0 260 168"><defs><style>.cls-1{fill:none;}.cls-2{fill:#c90505;}.cls-3{clip-path:url(#clip-path);}.cls-4{fill:#dd0505;}.cls-5{fill:#420202;}.cls-6{fill:#c90706;}.cls-7{clip-path:url(#clip-path-2);}.cls-8{fill:#a80202;}.cls-9{fill:#ea1f1f;}.cls-10{fill:#ef3a3a;}.cls-11{fill:#fff;}</style><clipPath id="clip-path"><path class="cls-1" d="M53.27,132.33s17.09-.88,30.12-.18a70.14,70.14,0,0,0,23.25-2.64l2.29-14.62-6.69-8.8h-34c-3.53,0-13.39,6.34-13.39,6.34l-5.29,6.69Z"/></clipPath><clipPath id="clip-path-2"><path class="cls-2" d="M71.54,131s-4.09,5.07,7.54,13.54,14.75,7.55,16.77,5L74.32,134.88l-2.63-4"/></clipPath></defs><g class="cls-3"><ellipse class="cls-4" cx="66.42" cy="128" rx="0.53" ry="3.22" transform="translate(-73.88 94.66) rotate(-49.21)"/><ellipse class="cls-5" cx="64.95" cy="123.23" rx="3.22" ry="0.53" transform="translate(-70.11 157.34) rotate(-76.38)"/><ellipse class="cls-4" cx="65.58" cy="131.14" rx="0.53" ry="3.22" transform="translate(-77.78 161.89) rotate(-75.54)"/><ellipse class="cls-5" cx="62.14" cy="127.51" rx="0.53" ry="3.22" transform="translate(-26.54 16.81) rotate(-12.72)"/><path class="cls-6" d="M67,127.73a4.89,4.89,0,0,0,.57,3.41c1,1.54,3.42,3.55,4.31,2.32S67.49,127.79,67,127.73Z"/><path class="cls-2" d="M71.54,131s-4.09,5.07,7.54,13.54,14.75,7.55,16.77,5L74.32,134.88l-2.63-4"/><g class="cls-7"><path class="cls-8" d="M72.38,128.79s-4.88,4,4.93,12.7,16.62,12,20.31,7.91h0s-11.06-16.16-11.19-16.32S72.38,128.79,72.38,128.79Z"/></g><path class="cls-4" d="M97.43,149.83c-1.57,2.17-5.38,2-12.65-3.3s-15.25-13.7-13.68-15.86,12.11,2.73,19.38,8S99,147.67,97.43,149.83Z"/><path class="cls-5" d="M81.79,133.66a37.73,37.73,0,0,1-2.61,7.3l7.11-.91S83.32,134.52,81.79,133.66Z"/><path class="cls-5" d="M88.48,141.52s6.36,1.53,4.27-.74c0,0,5.9,4,4.85,8s-7.1.9-9.37-.33C88.23,148.42,95.68,148.1,88.48,141.52Z"/><path class="cls-9" d="M81.87,133.26s-.41-2-3.07-2.07c0,0-3.46,4.64-2.48,7.85,0,0,1.76,2.86,2.86,1.92S82,134.68,81.87,133.26Z"/><path class="cls-10" d="M78.8,131.19s-2.74-2.41-5.36-1.57c0,0-2,2-1.49,4,0,0,1.25,3.65,4.06,4.94C76,138.56,79.22,135.41,78.8,131.19Z"/><path class="cls-4" d="M73.44,129.62s-1.47-3.23-6-2.86a.87.87,0,0,0-.46,1.33,8.59,8.59,0,0,0,5,5.53S74.27,131.81,73.44,129.62Z"/><circle class="cls-11" cx="70.09" cy="130.06" r="1.21"/><circle cx="70.09" cy="130.06" r="0.98"/><circle class="cls-11" cx="70.04" cy="129.24" r="0.39"/></g></svg>