<svg id="Layer_3" data-name="Layer 3" xmlns="http://www.w3.org/2000/svg" xmlns:xlink="http://www.w3.org/1999/xlink" viewBox="0 0 260 168"><defs><style>.cls-1{fill:#c90505;}.cls-2{fill:#8e0303;}.cls-3{fill:#dd0505;}.cls-4{fill:#420202;}.cls-5{fill:#c90706;}.cls-6{fill:#aa0909;}.cls-7{clip-path:url(#clip-path);}.cls-8{fill:#a80202;}.cls-9{fill:#ea1f1f;}.cls-10{fill:#ef3a3a;}.cls-11{fill:#fff;}</style><clipPath id="clip-path"><path class="cls-1" d="M114.89,61.1s-.4,8.33,18,8.33,21-3.29,21.15-7.43l-33.35,1L115,60.9"/></clipPath></defs><ellipse class="cls-2" cx="120.97" cy="60.65" rx="3.25" ry="1.12" transform="translate(-11.68 33.9) rotate(-15.23)"/><ellipse class="cls-2" cx="117.5" cy="62.9" rx="3.25" ry="1.12" transform="translate(-5.22 114.87) rotate(-51.11)"/><ellipse class="cls-2" cx="114.63" cy="67.89" rx="3.25" ry="1.12" transform="translate(6.12 145.18) rotate(-66.1)"/><ellipse class="cls-3" cx="107.34" cy="61.87" rx="0.68" ry="4.13" transform="translate(36.8 163.72) rotate(-85.25)"/><ellipse class="cls-4" cx="102.22" cy="58.03" rx="0.68" ry="4.13" transform="matrix(0.92, -0.38, 0.38, 0.92, -14.41, 43.38)"/><ellipse class="cls-3" cx="108.83" cy="65.74" rx="4.13" ry="0.68" transform="translate(-16.55 44.65) rotate(-21.59)"/><ellipse class="cls-4" cx="102.54" cy="64.58" rx="0.68" ry="4.13" transform="translate(-13.62 99.11) rotate(-48.76)"/><path class="cls-5" d="M107.71,61.16a6.28,6.28,0,0,0,3.17,3.1c2.2.84,6.21,1.1,6.21-.84S108.29,60.84,107.71,61.16Z"/><ellipse class="cls-6" cx="134.76" cy="71.26" rx="1.12" ry="3.25"/><ellipse class="cls-6" cx="136.88" cy="75.89" rx="1.12" ry="3.25" transform="translate(-12.74 121.83) rotate(-46.07)"/><ellipse class="cls-6" cx="141.59" cy="79.19" rx="1.12" ry="3.25" transform="translate(3.78 164.79) rotate(-61.06)"/><ellipse class="cls-6" cx="129.43" cy="70.77" rx="3.25" ry="1.12" transform="translate(17.42 166.75) rotate(-69.26)"/><ellipse class="cls-6" cx="129.77" cy="75.85" rx="1.12" ry="3.25" transform="matrix(0.9, -0.43, 0.43, 0.9, -19.98, 62.83)"/><ellipse class="cls-6" cx="133.01" cy="80.61" rx="1.12" ry="3.25" transform="translate(-20.56 105.22) rotate(-40.32)"/><ellipse class="cls-2" cx="128.86" cy="61.24" rx="3.25" ry="1.12" transform="translate(-11.95 38.27) rotate(-16.15)"/><ellipse class="cls-2" cx="124.99" cy="64.57" rx="3.25" ry="1.12" transform="translate(9.62 145.08) rotate(-62.23)"/><ellipse class="cls-2" cx="123.14" cy="70.01" rx="3.25" ry="1.12" transform="translate(27.61 174.61) rotate(-77.21)"/><ellipse class="cls-6" cx="118.7" cy="68.23" rx="3.25" ry="1.12" transform="translate(-9.71 115.71) rotate(-50.18)"/><ellipse class="cls-6" cx="117.15" cy="72.05" rx="3.25" ry="1.12" transform="translate(37.23 183.98) rotate(-86.07)"/><ellipse class="cls-6" cx="117.65" cy="77.79" rx="1.12" ry="3.25" transform="translate(-12.73 24) rotate(-11.05)"/><ellipse class="cls-6" cx="139.95" cy="69.95" rx="0.76" ry="2.2"/><ellipse class="cls-6" cx="141.38" cy="73.08" rx="0.76" ry="2.2" transform="translate(-9.34 124.21) rotate(-46.07)"/><ellipse class="cls-6" cx="144.57" cy="75.31" rx="0.76" ry="2.2" transform="translate(8.71 165.39) rotate(-61.06)"/><path class="cls-1" d="M114.89,61.1s-.4,8.33,18,8.33,21-3.29,21.15-7.43l-33.35,1L115,60.9"/><g class="cls-7"><path class="cls-8" d="M114.1,58.19s-2,7.82,14.68,9.43,26.23-.13,27-7.11h0s-23.63-8.4-23.88-8.46S114.1,58.19,114.1,58.19Z"/></g><path class="cls-3" d="M155.91,61.1c0,3.43-4.08,6.11-15.6,6.11S114.2,64.53,114.2,61.1s14.59-6.3,26.11-6.3S155.91,57.67,155.91,61.1Z"/><path class="cls-4" d="M127.51,56.14a47.86,47.86,0,0,1,2.8,9.52L137,59.37S129.75,55.88,127.51,56.14Z"/><path class="cls-4" d="M140.38,59.24s7.73-3.21,3.85-4c0,0,9.1-.35,11,4.59s-6.68,6.29-9.95,6.72C145.31,66.57,152.79,60.62,140.38,59.24Z"/><path class="cls-9" d="M127.3,55.67s-1.9-1.73-4.74.17c0,0-.09,7.41,3.36,10,0,0,4,1.63,4.39-.18S128.5,57,127.3,55.67Z"/><path class="cls-10" d="M122.56,55.84s-4.66-.43-6.72,2.41c0,0-.52,3.62,1.46,5.26,0,0,4,2.84,7.93,2.07C125.23,65.58,126.18,59.89,122.56,55.84Z"/><path class="cls-3" d="M115.84,58.25s-4-2.24-8.36,1.55a1.11,1.11,0,0,0,.51,1.73c1.3.69,3.8,3.1,9.31,2C117.3,63.51,118.33,59.89,115.84,58.25Z"/><circle class="cls-11" cx="112.69" cy="61.22" r="1.55"/><circle cx="112.69" cy="61.23" r="1.25"/><circle class="cls-11" cx="112.01" cy="60.42" r="0.5"/></svg>