<svg id="Layer_13" data-name="Layer 13" xmlns="http://www.w3.org/2000/svg" xmlns:xlink="http://www.w3.org/1999/xlink" viewBox="0 0 260 168"><defs><style>.cls-1{fill:#c90505;}.cls-2{fill:#8e0303;}.cls-3{fill:#dd0505;}.cls-4{fill:#420202;}.cls-5{fill:#c90706;}.cls-6{fill:#aa0909;}.cls-7{clip-path:url(#clip-path);}.cls-8{fill:#a80202;}.cls-9{fill:#ea1f1f;}.cls-10{fill:#ef3a3a;}.cls-11{fill:#fff;}</style><clipPath id="clip-path"><path class="cls-1" d="M126.85,52.68s-.2,4.06,8.77,4.06,10.21-1.6,10.31-3.62l-16.25.5-2.78-1"/></clipPath></defs><ellipse class="cls-2" cx="129.81" cy="52.46" rx="1.58" ry="0.54" transform="matrix(0.96, -0.26, 0.26, 0.96, -9.22, 35.94)"/><ellipse class="cls-2" cx="128.12" cy="53.56" rx="1.58" ry="0.54" transform="translate(6 119.66) rotate(-51.11)"/><ellipse class="cls-2" cx="126.72" cy="55.99" rx="1.58" ry="0.54" transform="translate(24.19 149.16) rotate(-66.1)"/><ellipse class="cls-3" cx="123.17" cy="53.06" rx="0.33" ry="2.01" transform="translate(60.1 171.41) rotate(-85.25)"/><ellipse class="cls-4" cx="120.68" cy="51.19" rx="0.33" ry="2.01" transform="translate(-10.4 49.91) rotate(-22.43)"/><ellipse class="cls-3" cx="123.9" cy="54.94" rx="2.01" ry="0.33" transform="translate(-11.52 49.43) rotate(-21.59)"/><ellipse class="cls-4" cx="120.83" cy="54.38" rx="0.33" ry="2.01" transform="translate(0.29 109.39) rotate(-48.76)"/><path class="cls-5" d="M123.35,52.71a3.1,3.1,0,0,0,1.55,1.51c1.07.41,3,.54,3-.41S123.64,52.55,123.35,52.71Z"/><ellipse class="cls-6" cx="136.53" cy="57.63" rx="0.54" ry="1.58"/><ellipse class="cls-6" cx="137.56" cy="59.89" rx="0.54" ry="1.58" transform="translate(-1 117.42) rotate(-46.07)"/><ellipse class="cls-6" cx="139.86" cy="61.49" rx="0.54" ry="1.58" transform="translate(18.37 154.13) rotate(-61.06)"/><ellipse class="cls-6" cx="133.93" cy="57.39" rx="1.58" ry="0.54" transform="translate(32.83 162.32) rotate(-69.26)"/><ellipse class="cls-6" cx="134.1" cy="59.87" rx="0.54" ry="1.58" transform="translate(-12.72 63.14) rotate(-25.34)"/><ellipse class="cls-6" cx="135.68" cy="62.18" rx="0.54" ry="1.58" transform="translate(-8 102.57) rotate(-40.32)"/><ellipse class="cls-2" cx="133.65" cy="52.75" rx="1.58" ry="0.54" transform="translate(-9.4 39.27) rotate(-16.15)"/><ellipse class="cls-2" cx="131.77" cy="54.37" rx="1.58" ry="0.54" transform="translate(22.26 145.63) rotate(-62.23)"/><ellipse class="cls-2" cx="130.87" cy="57.02" rx="1.58" ry="0.54" transform="translate(46.3 172.03) rotate(-77.21)"/><ellipse class="cls-6" cx="128.71" cy="56.15" rx="1.58" ry="0.54" transform="translate(3.16 119.05) rotate(-50.18)"/><ellipse class="cls-6" cx="127.95" cy="58.02" rx="1.58" ry="0.54" transform="translate(61.29 181.69) rotate(-86.07)"/><ellipse class="cls-6" cx="128.2" cy="60.81" rx="0.54" ry="1.58" transform="translate(-9.28 25.71) rotate(-11.05)"/><ellipse class="cls-6" cx="139.06" cy="56.99" rx="0.37" ry="1.07"/><ellipse class="cls-6" cx="139.75" cy="58.52" rx="0.37" ry="1.07" transform="translate(0.66 118.58) rotate(-46.07)"/><ellipse class="cls-6" cx="141.31" cy="59.61" rx="0.37" ry="1.07" transform="translate(20.77 154.43) rotate(-61.06)"/><path class="cls-1" d="M126.85,52.68s-.2,4.06,8.77,4.06,10.21-1.6,10.31-3.62l-16.25.5-2.78-1"/><g class="cls-7"><path class="cls-8" d="M126.47,51.26s-1,3.81,7.14,4.6,12.78-.06,13.15-3.46h0s-11.51-4.1-11.63-4.13S126.47,51.26,126.47,51.26Z"/></g><path class="cls-3" d="M146.83,52.68c0,1.67-2,3-7.6,3s-12.72-1.31-12.72-3,7.11-3.07,12.72-3.07S146.83,51,146.83,52.68Z"/><path class="cls-4" d="M133,50.27a23.9,23.9,0,0,1,1.36,4.63l3.26-3.06S134.09,50.14,133,50.27Z"/><path class="cls-4" d="M139.26,51.78s3.77-1.57,1.88-1.94c0,0,4.43-.17,5.37,2.23s-3.25,3.07-4.84,3.28C141.67,55.35,145.31,52.45,139.26,51.78Z"/><path class="cls-9" d="M132.89,50a1.85,1.85,0,0,0-2.31.08s0,3.61,1.64,4.87c0,0,1.93.8,2.14-.09S133.48,50.71,132.89,50Z"/><path class="cls-10" d="M130.58,50.12s-2.26-.21-3.27,1.17c0,0-.25,1.77.71,2.57a5.86,5.86,0,0,0,3.87,1A6.22,6.22,0,0,0,130.58,50.12Z"/><path class="cls-3" d="M127.31,51.29a3.61,3.61,0,0,0-4.07.76.54.54,0,0,0,.25.84,5.35,5.35,0,0,0,4.53,1S128.53,52.09,127.31,51.29Z"/><circle class="cls-11" cx="125.78" cy="52.74" r="0.76"/><circle cx="125.78" cy="52.75" r="0.61"/><circle class="cls-11" cx="125.45" cy="52.35" r="0.24"/></svg>