<svg id="Layer_21" data-name="Layer 21" xmlns="http://www.w3.org/2000/svg" xmlns:xlink="http://www.w3.org/1999/xlink" viewBox="0 0 260 168"><defs><style>.cls-1{fill:#c90505;}.cls-2{fill:#8e0303;}.cls-3{fill:#dd0505;}.cls-4{fill:#420202;}.cls-5{fill:#c90706;}.cls-6{fill:#aa0909;}.cls-7{clip-path:url(#clip-path);}.cls-8{fill:#a80202;}.cls-9{fill:#ea1f1f;}.cls-10{fill:#ef3a3a;}.cls-11{fill:#fff;}</style><clipPath id="clip-path"><path class="cls-1" d="M11.78,52.68s-.2,4.06,8.77,4.06,10.21-1.6,10.3-3.62l-16.24.5-2.78-1"/></clipPath></defs><ellipse class="cls-2" cx="14.89" cy="52.75" rx="1.58" ry="0.54" transform="translate(-29.64 20.8) rotate(-38.57)"/><ellipse class="cls-2" cx="13.77" cy="54.43" rx="1.58" ry="0.54" transform="translate(-42.35 53.12) rotate(-74.46)"/><ellipse class="cls-2" cx="13.45" cy="57.21" rx="1.58" ry="0.54" transform="translate(-43.88 70.11) rotate(-89.45)"/><ellipse class="cls-3" cx="8.1" cy="53.06" rx="0.33" ry="2.01" transform="translate(-45.44 56.74) rotate(-85.25)"/><ellipse class="cls-4" cx="5.61" cy="51.19" rx="0.33" ry="2.01" transform="translate(-19.1 6.01) rotate(-22.43)"/><ellipse class="cls-3" cx="8.83" cy="54.94" rx="2.01" ry="0.33" transform="translate(-19.59 7.1) rotate(-21.59)"/><ellipse class="cls-4" cx="5.76" cy="54.38" rx="0.33" ry="2.01" transform="translate(-38.93 22.86) rotate(-48.76)"/><path class="cls-5" d="M8.28,52.71a3.05,3.05,0,0,0,1.54,1.51c1.08.41,3,.54,3-.41S8.57,52.55,8.28,52.71Z"/><ellipse class="cls-6" cx="20.97" cy="57.26" rx="1.58" ry="0.54" transform="translate(-34.41 31.73) rotate(-45.14)"/><ellipse class="cls-6" cx="20.1" cy="59.58" rx="0.54" ry="1.58" transform="translate(-1.26 0.44) rotate(-1.21)"/><ellipse class="cls-6" cx="20.6" cy="62.34" rx="0.54" ry="1.58" transform="translate(-16.57 8.22) rotate(-16.2)"/><ellipse class="cls-6" cx="18.43" cy="56.93" rx="1.58" ry="0.54" transform="translate(-25.56 16.37) rotate(-29.39)"/><ellipse class="cls-6" cx="16.97" cy="58.93" rx="1.58" ry="0.54" transform="translate(-44.34 60.57) rotate(-75.46)"/><ellipse class="cls-6" cx="16.7" cy="61.72" rx="0.54" ry="1.58" transform="translate(-0.48 0.13) rotate(-0.45)"/><ellipse class="cls-2" cx="19.08" cy="53.39" rx="1.58" ry="0.54" transform="translate(-31.85 28.47) rotate(-44.26)"/><ellipse class="cls-2" cx="18.19" cy="55.7" rx="0.54" ry="1.58" transform="translate(-0.33 0.11) rotate(-0.34)"/><ellipse class="cls-2" cx="18.64" cy="58.47" rx="0.54" ry="1.58" transform="translate(-14.79 7) rotate(-15.32)"/><ellipse class="cls-6" cx="13.2" cy="55.56" rx="1.58" ry="0.54" transform="translate(-22.07 10.64) rotate(-24.77)"/><ellipse class="cls-6" cx="11.71" cy="56.92" rx="1.58" ry="0.54" transform="translate(-43.64 39.24) rotate(-60.66)"/><ellipse class="cls-6" cx="10.74" cy="59.55" rx="1.58" ry="0.54" transform="translate(-49.61 55.18) rotate(-75.64)"/><ellipse class="cls-6" cx="23.21" cy="56.98" rx="1.07" ry="0.37" transform="translate(-35.38 38.2) rotate(-50.07)"/><ellipse class="cls-6" cx="22.77" cy="58.6" rx="0.37" ry="1.07" transform="translate(-6.14 2.77) rotate(-6.14)"/><ellipse class="cls-6" cx="23.26" cy="60.43" rx="0.37" ry="1.07" transform="translate(-20.22 12.45) rotate(-21.13)"/><path class="cls-1" d="M11.78,52.68s-.2,4.06,8.77,4.06,10.21-1.6,10.3-3.62l-16.24.5-2.78-1"/><g class="cls-7"><path class="cls-8" d="M11.4,51.26s-1,3.81,7.14,4.6,12.78-.06,13.15-3.46h0s-11.51-4.1-11.63-4.13S11.4,51.26,11.4,51.26Z"/></g><path class="cls-3" d="M31.76,52.68c0,1.67-2,3-7.6,3s-12.72-1.31-12.72-3,7.11-3.07,12.72-3.07S31.76,51,31.76,52.68Z"/><path class="cls-4" d="M17.93,50.27a23.9,23.9,0,0,1,1.36,4.63l3.25-3.06S19,50.14,17.93,50.27Z"/><path class="cls-4" d="M24.19,51.78s3.77-1.57,1.88-1.94c0,0,4.43-.17,5.37,2.23s-3.25,3.07-4.85,3.28C26.59,55.35,30.24,52.45,24.19,51.78Z"/><path class="cls-9" d="M17.82,50a1.85,1.85,0,0,0-2.31.08s0,3.61,1.64,4.87c0,0,1.93.8,2.14-.09S18.41,50.71,17.82,50Z"/><path class="cls-10" d="M15.51,50.12s-2.26-.21-3.27,1.17c0,0-.25,1.77.71,2.57a5.82,5.82,0,0,0,3.86,1A6.19,6.19,0,0,0,15.51,50.12Z"/><path class="cls-3" d="M12.24,51.29a3.61,3.61,0,0,0-4.07.76.54.54,0,0,0,.25.84,5.35,5.35,0,0,0,4.53,1S13.46,52.09,12.24,51.29Z"/><circle class="cls-11" cx="10.71" cy="52.74" r="0.76"/><circle cx="10.71" cy="52.75" r="0.61"/><circle class="cls-11" cx="10.38" cy="52.35" r="0.24"/></svg>