<svg id="Layer_8" data-name="Layer 8" xmlns="http://www.w3.org/2000/svg" xmlns:xlink="http://www.w3.org/1999/xlink" viewBox="0 0 260 168"><defs><style>.cls-1{fill:none;}.cls-2{fill:#c90505;}.cls-3{clip-path:url(#clip-path);}.cls-4{fill:#dd0505;}.cls-5{fill:#420202;}.cls-6{fill:#c90706;}.cls-7{clip-path:url(#clip-path-2);}.cls-8{fill:#a80202;}.cls-9{fill:#ea1f1f;}.cls-10{fill:#ef3a3a;}.cls-11{fill:#fff;}</style><clipPath id="clip-path"><path class="cls-1" d="M31.26,132.51s39.1-1.06,52.13-.36a70.14,70.14,0,0,0,23.25-2.64l2.29-14.62-6.69-8.8h-34c-3.53,0-13.39,6.34-13.39,6.34l-31.18-2.12Z"/></clipPath><clipPath id="clip-path-2"><path class="cls-2" d="M55.5,127.69s-.77,6.47,13.57,7.49,16.51-1.41,16.89-4.62l-26-1-4.33-2"/></clipPath></defs><g class="cls-3"><ellipse class="cls-4" cx="49.58" cy="127.87" rx="0.53" ry="3.22" transform="translate(-84.38 157.29) rotate(-81.19)"/><ellipse class="cls-5" cx="45.8" cy="124.61" rx="0.53" ry="3.22" transform="translate(-36.93 20.78) rotate(-18.37)"/><ellipse class="cls-4" cx="50.52" cy="130.98" rx="3.22" ry="0.53" transform="translate(-37.1 21.3) rotate(-17.53)"/><ellipse class="cls-5" cx="45.69" cy="129.72" rx="0.53" ry="3.22" transform="translate(-78.04 69.66) rotate(-44.7)"/><path class="cls-6" d="M49.91,127.35a4.92,4.92,0,0,0,2.3,2.59c1.66.77,4.77,1.2,4.87-.31S50.38,127.13,49.91,127.35Z"/><path class="cls-2" d="M55.5,127.69s-.77,6.47,13.57,7.49,16.51-1.41,16.89-4.62l-26-1-4.33-2"/><g class="cls-7"><path class="cls-8" d="M55.05,125.38s-2,6,10.91,8.16,20.44,1.35,21.42-4h0s-17.94-7.85-18.14-7.92S55.05,125.38,55.05,125.38Z"/></g><path class="cls-4" d="M87.45,130c-.19,2.67-3.52,4.54-12.49,3.9s-20.19-3.53-20-6.2,11.72-4.11,20.69-3.47S87.64,127.29,87.45,130Z"/><path class="cls-5" d="M65.61,124.53a37.8,37.8,0,0,1,1.65,7.57l5.55-4.53S67.37,124.45,65.61,124.53Z"/><path class="cls-5" d="M75.45,127.66s6.21-2.08,3.23-2.89c0,0,7.1.23,8.34,4.18s-5.55,4.53-8.13,4.69C78.89,133.64,85,129.42,75.45,127.66Z"/><path class="cls-9" d="M65.47,124.15s-1.38-1.45-3.7-.13c0,0-.48,5.77,2.06,8,0,0,3,1.5,3.43.11S66.33,125.29,65.47,124.15Z"/><path class="cls-10" d="M61.77,124s-3.61-.59-5.37,1.51c0,0-.61,2.79.85,4.17,0,0,3,2.44,6.06,2.05C63.31,131.75,64.36,127.38,61.77,124Z"/><path class="cls-4" d="M56.4,125.53s-3-2-6.6.75a.87.87,0,0,0,.31,1.37,8.6,8.6,0,0,0,7.14,2S58.25,126.94,56.4,125.53Z"/><circle class="cls-11" cx="53.78" cy="127.67" r="1.21"/><circle cx="53.78" cy="127.67" r="0.98"/><circle class="cls-11" cx="53.3" cy="127.01" r="0.39"/></g></svg>