<svg id="Layer_18" data-name="Layer 18" xmlns="http://www.w3.org/2000/svg" xmlns:xlink="http://www.w3.org/1999/xlink" viewBox="0 0 260 168"><defs><style>.cls-1{fill:#c90505;}.cls-2{fill:#8e0303;}.cls-3{fill:#dd0505;}.cls-4{fill:#420202;}.cls-5{fill:#c90706;}.cls-6{fill:#aa0909;}.cls-7{clip-path:url(#clip-path);}.cls-8{fill:#a80202;}.cls-9{fill:#ea1f1f;}.cls-10{fill:#ef3a3a;}.cls-11{fill:#fff;}</style><clipPath id="clip-path"><path class="cls-1" d="M61.1,52.68s-.19,4.06,8.78,4.06,10.21-1.6,10.3-3.62l-16.24.5-2.78-1"/></clipPath></defs><ellipse class="cls-2" cx="64.22" cy="52.75" rx="1.58" ry="0.54" transform="translate(-18.88 51.55) rotate(-38.57)"/><ellipse class="cls-2" cx="63.1" cy="54.43" rx="1.58" ry="0.54" transform="translate(-6.24 100.64) rotate(-74.46)"/><ellipse class="cls-2" cx="62.78" cy="57.21" rx="1.58" ry="0.54" transform="translate(4.97 119.44) rotate(-89.45)"/><ellipse class="cls-3" cx="57.43" cy="53.06" rx="0.33" ry="2.01" transform="translate(-0.2 105.89) rotate(-85.25)"/><ellipse class="cls-4" cx="54.93" cy="51.19" rx="0.33" ry="2.01" transform="translate(-15.37 24.83) rotate(-22.43)"/><ellipse class="cls-3" cx="58.15" cy="54.94" rx="2.01" ry="0.33" transform="translate(-16.14 25.25) rotate(-21.59)"/><ellipse class="cls-4" cx="55.09" cy="54.38" rx="0.33" ry="2.01" transform="translate(-22.12 59.96) rotate(-48.76)"/><path class="cls-5" d="M57.61,52.71a3.05,3.05,0,0,0,1.54,1.51c1.07.41,3,.54,3-.41S57.89,52.55,57.61,52.71Z"/><ellipse class="cls-6" cx="70.29" cy="57.26" rx="1.58" ry="0.54" transform="translate(-19.88 66.69) rotate(-45.14)"/><ellipse class="cls-6" cx="69.43" cy="59.58" rx="0.54" ry="1.58" transform="translate(-1.25 1.48) rotate(-1.21)"/><ellipse class="cls-6" cx="69.93" cy="62.34" rx="0.54" ry="1.58" transform="translate(-14.62 21.98) rotate(-16.2)"/><ellipse class="cls-6" cx="67.76" cy="56.93" rx="1.58" ry="0.54" transform="translate(-19.21 40.57) rotate(-29.39)"/><ellipse class="cls-6" cx="66.3" cy="58.93" rx="1.58" ry="0.54" transform="translate(-7.39 108.31) rotate(-75.46)"/><ellipse class="cls-6" cx="66.03" cy="61.72" rx="0.54" ry="1.58" transform="translate(-0.48 0.52) rotate(-0.45)"/><ellipse class="cls-2" cx="68.41" cy="53.39" rx="1.58" ry="0.54" transform="translate(-17.84 62.9) rotate(-44.26)"/><ellipse class="cls-2" cx="67.51" cy="55.7" rx="0.54" ry="1.58" transform="translate(-0.33 0.4) rotate(-0.34)"/><ellipse class="cls-2" cx="67.97" cy="58.47" rx="0.54" ry="1.58" transform="translate(-13.04 20.04) rotate(-15.32)"/><ellipse class="cls-6" cx="62.52" cy="55.56" rx="1.58" ry="0.54" transform="translate(-17.53 31.31) rotate(-24.77)"/><ellipse class="cls-6" cx="61.04" cy="56.92" rx="1.58" ry="0.54" transform="translate(-18.49 82.23) rotate(-60.66)"/><ellipse class="cls-6" cx="60.07" cy="59.55" rx="1.58" ry="0.54" transform="translate(-12.52 102.97) rotate(-75.64)"/><ellipse class="cls-6" cx="72.54" cy="56.98" rx="1.07" ry="0.37" transform="translate(-17.72 76.02) rotate(-50.07)"/><ellipse class="cls-6" cx="72.09" cy="58.6" rx="0.37" ry="1.07" transform="translate(-5.85 8.05) rotate(-6.14)"/><ellipse class="cls-6" cx="72.59" cy="60.43" rx="0.37" ry="1.07" transform="translate(-16.9 30.22) rotate(-21.13)"/><path class="cls-1" d="M61.1,52.68s-.19,4.06,8.78,4.06,10.21-1.6,10.3-3.62l-16.24.5-2.78-1"/><g class="cls-7"><path class="cls-8" d="M60.72,51.26s-1,3.81,7.15,4.6S80.65,55.8,81,52.4h0s-11.51-4.1-11.63-4.13S60.72,51.26,60.72,51.26Z"/></g><path class="cls-3" d="M81.08,52.68c0,1.67-2,3-7.59,3s-12.72-1.31-12.72-3,7.11-3.07,12.72-3.07S81.08,51,81.08,52.68Z"/><path class="cls-4" d="M67.25,50.27a23.55,23.55,0,0,1,1.37,4.63l3.25-3.06S68.34,50.14,67.25,50.27Z"/><path class="cls-4" d="M73.52,51.78s3.77-1.57,1.88-1.94c0,0,4.43-.17,5.37,2.23s-3.25,3.07-4.85,3.28C75.92,55.35,79.56,52.45,73.52,51.78Z"/><path class="cls-9" d="M67.15,50a1.85,1.85,0,0,0-2.31.08s0,3.61,1.64,4.87c0,0,1.93.8,2.14-.09S67.74,50.71,67.15,50Z"/><path class="cls-10" d="M64.84,50.12s-2.27-.21-3.27,1.17c0,0-.26,1.77.71,2.57a5.82,5.82,0,0,0,3.86,1A6.24,6.24,0,0,0,64.84,50.12Z"/><path class="cls-3" d="M61.57,51.29a3.62,3.62,0,0,0-4.08.76.55.55,0,0,0,.26.84,5.34,5.34,0,0,0,4.53,1S62.78,52.09,61.57,51.29Z"/><circle class="cls-11" cx="60.03" cy="52.74" r="0.76"/><circle cx="60.03" cy="52.75" r="0.61"/><circle class="cls-11" cx="59.7" cy="52.35" r="0.24"/></svg>