<svg xmlns="http://www.w3.org/2000/svg" xmlns:xlink="http://www.w3.org/1999/xlink" viewBox="0 0 260 168"><defs><style>.cls-1{fill:#c90505;}.cls-2{fill:#fff;}.cls-3{fill:#8e0303;}.cls-4{fill:#aa0909;}.cls-5{clip-path:url(#clip-path);}.cls-6{fill:#a80202;}.cls-7{fill:#dd0505;}.cls-8{fill:#420202;}.cls-9{fill:#ea1f1f;}.cls-10{fill:#ef3a3a;}.cls-11{fill:#c90706;}.cls-12{clip-path:url(#clip-path-2);}</style><clipPath id="clip-path"><path class="cls-1" d="M243.39,134.05s.29,3.53-7.51,3.78-8.92-1.11-9.06-2.86L241,135l2.39-1"/></clipPath><clipPath id="clip-path-2"><ellipse class="cls-2" cx="244.39" cy="133.46" rx="0.55" ry="1.36" transform="translate(-23.5 57.48) rotate(-12.8)"/></clipPath></defs><g id="Layer_7" data-name="Layer 7"><ellipse class="cls-3" cx="240.81" cy="133.95" rx="0.47" ry="1.38" transform="translate(54.79 337.24) rotate(-76.62)"/><ellipse class="cls-3" cx="242.31" cy="134.85" rx="0.47" ry="1.38" transform="translate(-29.29 190.81) rotate(-40.74)"/><ellipse class="cls-3" cx="243.59" cy="136.93" rx="0.47" ry="1.38" transform="translate(-35.3 119.43) rotate(-25.75)"/><ellipse class="cls-4" cx="233.43" cy="136.23" rx="0.47" ry="1.38" transform="translate(-36.34 119.72) rotate(-26.77)"/><ellipse class="cls-4" cx="233.51" cy="138.39" rx="1.38" ry="0.47" transform="translate(25.7 313.01) rotate(-70.69)"/><ellipse class="cls-4" cx="232.36" cy="140.53" rx="1.38" ry="0.47" transform="translate(-14.67 253.31) rotate(-55.71)"/><ellipse class="cls-4" cx="236.35" cy="136.71" rx="0.47" ry="1.38" transform="translate(-36.27 151.85) rotate(-33.22)"/><ellipse class="cls-4" cx="236.68" cy="138.84" rx="1.38" ry="0.47" transform="translate(48.66 338.7) rotate(-77.15)"/><ellipse class="cls-4" cx="235.77" cy="141.1" rx="1.38" ry="0.47" transform="translate(0.89 283.69) rotate(-62.16)"/><ellipse class="cls-3" cx="237.48" cy="134.31" rx="0.47" ry="1.38" transform="translate(48.67 331.25) rotate(-75.7)"/><ellipse class="cls-3" cx="239.16" cy="135.66" rx="0.47" ry="1.38" transform="translate(-35.8 135.94) rotate(-29.62)"/><ellipse class="cls-3" cx="240.02" cy="137.94" rx="0.47" ry="1.38" transform="translate(-27.06 65.12) rotate(-14.63)"/><ellipse class="cls-4" cx="241.12" cy="137.49" rx="0.47" ry="1.38" transform="translate(-17.08 35.64) rotate(-8.17)"/><ellipse class="cls-4" cx="240.83" cy="139.21" rx="1.38" ry="0.47" transform="translate(5.57 287.65) rotate(-62.28)"/><ellipse class="cls-4" cx="239.37" cy="141.17" rx="1.38" ry="0.47" transform="translate(-26.72 221.32) rotate(-47.29)"/><ellipse class="cls-4" cx="231.18" cy="137.56" rx="0.93" ry="0.32" transform="translate(83.48 362.4) rotate(-87.45)"/><ellipse class="cls-4" cx="230.51" cy="138.86" rx="0.93" ry="0.32" transform="translate(-34.25 187.03) rotate(-41.38)"/><ellipse class="cls-4" cx="229.12" cy="139.74" rx="0.93" ry="0.32" transform="translate(-38.24 116.41) rotate(-26.39)"/><path class="cls-1" d="M243.39,134.05s.29,3.53-7.51,3.78-8.92-1.11-9.06-2.86L241,135l2.39-1"/><g class="cls-5"><path class="cls-6" d="M243.68,132.81s1,3.28-6.08,4.2-11.11.3-11.53-2.64h0l10-3.92C236.18,130.42,243.68,132.81,243.68,132.81Z"/></g><path class="cls-7" d="M226,134.62c0,1.45,1.81,2.53,6.69,2.37s11-1.49,11-2.94-6.26-2.47-11.14-2.32S226,133.16,226,134.62Z"/><path class="cls-8" d="M238,132.13a20.76,20.76,0,0,0-1.06,4.07L234,133.63S237,132.05,238,132.13Z"/><path class="cls-8" d="M232.57,133.62s-3.31-1.26-1.68-1.64c0,0-3.86,0-4.61,2.1s2.91,2.57,4.31,2.71C230.59,136.79,227.34,134.37,232.57,133.62Z"/><path class="cls-9" d="M238.06,131.92a1.62,1.62,0,0,1,2,0s.14,3.14-1.28,4.28c0,0-1.66.75-1.87,0A9.37,9.37,0,0,1,238.06,131.92Z"/><path class="cls-10" d="M240.07,131.93s2-.24,2.88.93a2.76,2.76,0,0,1-.55,2.25,5,5,0,0,1-3.33,1A5.47,5.47,0,0,1,240.07,131.93Z"/><ellipse class="cls-7" cx="246.31" cy="133.46" rx="1.75" ry="0.29" transform="translate(-27.91 76.18) rotate(-16.65)"/><ellipse class="cls-8" cx="248.1" cy="131.42" rx="1.75" ry="0.29" transform="translate(73.59 351.35) rotate(-79.48)"/><ellipse class="cls-7" cx="246.04" cy="135.19" rx="0.29" ry="1.75" transform="translate(71.38 354.98) rotate(-80.32)"/><ellipse class="cls-8" cx="248.54" cy="134.16" rx="1.75" ry="0.29" transform="translate(-7.88 252.56) rotate(-53.14)"/><path class="cls-11" d="M247.22,132.89a3.43,3.43,0,0,1-1.35,2c-1.08.7-3.21,1.29-3.43.25S246.88,132.78,247.22,132.89Z"/><path class="cls-7" d="M242.53,132.25a4.08,4.08,0,0,1,4.67-.11.61.61,0,0,1-.08,1,6,6,0,0,1-4.78,2.12S241.37,133.41,242.53,132.25Z"/><ellipse class="cls-2" cx="244.39" cy="133.46" rx="0.55" ry="1.36" transform="translate(-23.5 57.48) rotate(-12.8)"/><g class="cls-12"><path d="M244.45,132.76c.05.19.17.33.26.3s.07-.05.09-.12a1.79,1.79,0,0,1,.1.35c.12.52,0,1-.16,1s-.48-.33-.59-.85-.05-1,.16-1a.21.21,0,0,1,.13,0A.62.62,0,0,0,244.45,132.76Z"/></g></g></svg>