<svg id="Layer_3" data-name="Layer 3" xmlns="http://www.w3.org/2000/svg" xmlns:xlink="http://www.w3.org/1999/xlink" viewBox="0 0 260 168"><defs><style>.cls-1{fill:#c90505;}.cls-2{fill:#fff;}.cls-3{fill:#8e0303;}.cls-4{fill:#aa0909;}.cls-5{clip-path:url(#clip-path);}.cls-6{fill:#a80202;}.cls-7{fill:#dd0505;}.cls-8{fill:#420202;}.cls-9{fill:#ea1f1f;}.cls-10{fill:#ef3a3a;}.cls-11{fill:#c90706;}.cls-12{clip-path:url(#clip-path-2);}</style><clipPath id="clip-path"><path class="cls-1" d="M178.15,127.94s-1.86,5.9,11.34,9.37,15.65,1.59,16.57-1.34L182,130.42l-3.7-2.6"/></clipPath><clipPath id="clip-path-2"><ellipse class="cls-2" cx="176.68" cy="126.54" rx="2.39" ry="0.96" transform="translate(-13.95 230.89) rotate(-64.31)"/></clipPath></defs><ellipse class="cls-3" cx="182.59" cy="128.76" rx="2.41" ry="0.83" transform="translate(-1.09 1.55) rotate(-0.49)"/><ellipse class="cls-3" cx="179.68" cy="129.72" rx="2.41" ry="0.83" transform="translate(-41.92 131.83) rotate(-36.37)"/><ellipse class="cls-3" cx="176.68" cy="132.76" rx="2.41" ry="0.83" transform="translate(-37.34 187.86) rotate(-51.36)"/><ellipse class="cls-4" cx="193.58" cy="135.68" rx="2.41" ry="0.83" transform="translate(-38.97 93.2) rotate(-24.67)"/><ellipse class="cls-4" cx="191.11" cy="138.54" rx="2.41" ry="0.83" transform="translate(-2.7 273.29) rotate(-70.75)"/><ellipse class="cls-4" cx="190.35" cy="142.74" rx="2.41" ry="0.83" transform="translate(33.84 321.95) rotate(-85.73)"/><ellipse class="cls-4" cx="188.52" cy="135.36" rx="2.41" ry="0.83" transform="translate(-36.19 77.32) rotate(-21.2)"/><ellipse class="cls-4" cx="185.88" cy="138.06" rx="2.41" ry="0.83" transform="translate(-13.27 256.18) rotate(-67.27)"/><ellipse class="cls-4" cx="184.87" cy="142.21" rx="2.41" ry="0.83" transform="translate(19.06 306.24) rotate(-82.26)"/><ellipse class="cls-3" cx="188.14" cy="130.68" rx="2.41" ry="0.83" transform="translate(-3.17 4.68) rotate(-1.41)"/><ellipse class="cls-3" cx="184.74" cy="132.33" rx="2.41" ry="0.83" transform="translate(-37.64 179.09) rotate(-47.49)"/><ellipse class="cls-3" cx="182.38" cy="135.89" rx="2.41" ry="0.83" transform="translate(-22.41 234.83) rotate(-62.48)"/><ellipse class="cls-4" cx="179.54" cy="133.77" rx="2.41" ry="0.83" transform="translate(-44.3 128.91) rotate(-35.44)"/><ellipse class="cls-4" cx="177.7" cy="136.22" rx="2.41" ry="0.83" transform="translate(-8.24 260.96) rotate(-71.33)"/><ellipse class="cls-4" cx="176.98" cy="140.43" rx="2.41" ry="0.83" transform="translate(25.48 308.02) rotate(-86.32)"/><ellipse class="cls-4" cx="196.8" cy="138.44" rx="1.63" ry="0.56" transform="translate(-38.15 190.35) rotate(-47.58)"/><ellipse class="cls-4" cx="196.02" cy="140.87" rx="0.56" ry="1.63" transform="matrix(1, -0.06, 0.06, 1, -8.59, 12.8)"/><ellipse class="cls-4" cx="196.65" cy="143.69" rx="0.56" ry="1.63" transform="translate(-35.62 70.41) rotate(-18.65)"/><path class="cls-1" d="M178.15,127.94s-1.86,5.9,11.34,9.37,15.65,1.59,16.57-1.34L182,130.42l-3.7-2.6"/><g class="cls-5"><path class="cls-6" d="M178.13,125.7s-2.93,5.23,8.74,9.54,18.84,4.85,20.7,0h0S192.21,124.75,192,124.65,178.13,125.7,178.13,125.7Z"/></g><path class="cls-7" d="M207.56,135.68c-.65,2.45-4.08,3.61-12.34,1.44s-18.22-6.85-17.57-9.31,11.65-1.77,19.91.4S208.21,133.22,207.56,135.68Z"/><path class="cls-8" d="M188.13,126.76a36.23,36.23,0,0,1,.22,7.36l6-3.25S189.79,127,188.13,126.76Z"/><path class="cls-8" d="M196.77,131.41s6.15-.84,3.52-2.13c0,0,6.59,1.47,7,5.38s-6,3.25-8.4,2.94C198.93,137.6,205.41,134.74,196.77,131.41Z"/><path class="cls-9" d="M188.07,126.38a2.82,2.82,0,0,0-3.43-.77s-1.46,5.3.52,7.8c0,0,2.54,1.93,3.19.71S188.67,127.6,188.07,126.38Z"/><path class="cls-10" d="M184.64,125.61s-3.26-1.18-5.28.46c0,0-1.05,2.5.06,4.05,0,0,2.37,2.8,5.3,3C184.72,133.1,186.47,129.2,184.64,125.61Z"/><ellipse class="cls-7" cx="173.4" cy="125.77" rx="0.5" ry="3.06" transform="matrix(0.49, -0.87, 0.87, 0.49, -21.52, 214.62)"/><ellipse class="cls-8" cx="171.14" cy="121.6" rx="3.06" ry="0.5" transform="translate(42.57 287.57) rotate(-87.63)"/><ellipse class="cls-7" cx="173.19" cy="128.85" rx="0.5" ry="3.06" transform="translate(34.86 294.56) rotate(-86.79)"/><ellipse class="cls-8" cx="169.32" cy="126.11" rx="0.5" ry="3.06" transform="translate(-36.63 79.65) rotate(-23.97)"/><path class="cls-11" d="M172.06,124.46a6.06,6.06,0,0,0,1.52,4c1.57,1.62,5,3.46,5.75,1.77S172.7,124.41,172.06,124.46Z"/><path class="cls-7" d="M180.32,125.19s-2.55-3.55-7.92-2a1.07,1.07,0,0,0-.24,1.71c.85,1.12,2.06,4.24,7.32,5.48C179.48,130.37,181.84,127.63,180.32,125.19Z"/><ellipse class="cls-2" cx="176.68" cy="126.54" rx="2.39" ry="0.96" transform="translate(-13.95 230.89) rotate(-64.31)"/><g class="cls-12"><path d="M176.85,125.31c-.17.31-.42.5-.57.42s-.1-.12-.09-.24a2.94,2.94,0,0,0-.32.55c-.41.84-.46,1.65-.12,1.81s.94-.39,1.34-1.22.46-1.66.12-1.82a.36.36,0,0,0-.23,0A1,1,0,0,1,176.85,125.31Z"/></g></svg>