<svg xmlns="http://www.w3.org/2000/svg" xmlns:xlink="http://www.w3.org/1999/xlink" viewBox="0 0 260 168"><defs><style>.cls-1{fill:#c90505;}.cls-2{clip-path:url(#clip-path);}.cls-3{fill:#a80202;}.cls-4{fill:#dd0505;}.cls-5{fill:#420202;}</style><clipPath id="clip-path"><path class="cls-1" d="M273.14,134.05s.29,3.53-7.51,3.78-8.92-1.11-9.06-2.86l14.13,0,2.4-1"/></clipPath></defs><g id="Layer_14" data-name="Layer 14"><path class="cls-1" d="M273.14,134.05s.29,3.53-7.51,3.78-8.92-1.11-9.06-2.86l14.13,0,2.4-1"/><g class="cls-2"><path class="cls-3" d="M273.44,132.81s1,3.28-6.09,4.2-11.11.3-11.53-2.64h0l10-3.92C265.93,130.42,273.44,132.81,273.44,132.81Z"/></g><path class="cls-4" d="M255.77,134.62c0,1.45,1.82,2.53,6.69,2.37s11-1.49,11-2.94-6.27-2.47-11.15-2.32S255.73,133.16,255.77,134.62Z"/><path class="cls-5" d="M262.33,133.62s-3.32-1.26-1.69-1.64c0,0-3.86,0-4.61,2.1s2.91,2.57,4.31,2.71C260.34,136.79,257.09,134.37,262.33,133.62Z"/></g></svg>