<svg xmlns="http://www.w3.org/2000/svg" xmlns:xlink="http://www.w3.org/1999/xlink" viewBox="0 0 260 168"><defs><style>.cls-1{fill:#c90505;}.cls-2{fill:#fff;}.cls-3{fill:#8e0303;}.cls-4{fill:#aa0909;}.cls-5{clip-path:url(#clip-path);}.cls-6{fill:#a80202;}.cls-7{fill:#dd0505;}.cls-8{fill:#420202;}.cls-9{fill:#ea1f1f;}.cls-10{fill:#ef3a3a;}.cls-11{fill:#c90706;}.cls-12{clip-path:url(#clip-path-2);}</style><clipPath id="clip-path"><path class="cls-1" d="M172.37,134.05s.28,3.53-7.52,3.78-8.92-1.11-9.06-2.86l14.14,0,2.39-1"/></clipPath><clipPath id="clip-path-2"><ellipse class="cls-2" cx="173.36" cy="133.46" rx="0.55" ry="1.36" transform="translate(-25.27 41.74) rotate(-12.8)"/></clipPath></defs><g id="Layer_3" data-name="Layer 3"><ellipse class="cls-3" cx="169.78" cy="133.95" rx="0.47" ry="1.38" transform="translate(0.19 268.14) rotate(-76.62)"/><ellipse class="cls-3" cx="171.28" cy="134.85" rx="0.47" ry="1.38" transform="translate(-46.5 144.45) rotate(-40.74)"/><ellipse class="cls-3" cx="172.57" cy="136.93" rx="0.47" ry="1.38" transform="translate(-42.35 88.57) rotate(-25.75)"/><ellipse class="cls-4" cx="162.4" cy="136.23" rx="0.47" ry="1.38" transform="translate(-43.95 87.74) rotate(-26.77)"/><ellipse class="cls-4" cx="162.49" cy="138.39" rx="1.38" ry="0.47" transform="translate(-21.84 245.97) rotate(-70.69)"/><ellipse class="cls-4" cx="161.33" cy="140.53" rx="1.38" ry="0.47" transform="translate(-45.67 194.64) rotate(-55.71)"/><ellipse class="cls-4" cx="165.33" cy="136.71" rx="0.47" ry="1.38" transform="translate(-47.88 112.93) rotate(-33.22)"/><ellipse class="cls-4" cx="165.65" cy="138.84" rx="1.38" ry="0.47" transform="translate(-6.56 269.45) rotate(-77.15)"/><ellipse class="cls-4" cx="164.75" cy="141.1" rx="1.38" ry="0.47" transform="translate(-36.96 220.88) rotate(-62.16)"/><ellipse class="cls-3" cx="166.45" cy="134.31" rx="0.47" ry="1.38" transform="translate(-4.81 262.42) rotate(-75.7)"/><ellipse class="cls-3" cx="168.13" cy="135.66" rx="0.47" ry="1.38" transform="translate(-45.08 100.83) rotate(-29.62)"/><ellipse class="cls-3" cx="168.99" cy="137.94" rx="0.47" ry="1.38" transform="translate(-29.37 47.17) rotate(-14.63)"/><ellipse class="cls-4" cx="170.09" cy="137.49" rx="0.47" ry="1.38" transform="translate(-17.8 25.55) rotate(-8.17)"/><ellipse class="cls-4" cx="169.8" cy="139.21" rx="1.38" ry="0.47" transform="translate(-32.42 224.77) rotate(-62.28)"/><ellipse class="cls-4" cx="168.34" cy="141.17" rx="1.38" ry="0.47" transform="translate(-49.57 169.13) rotate(-47.29)"/><ellipse class="cls-4" cx="160.15" cy="137.56" rx="0.93" ry="0.32" transform="translate(15.61 291.44) rotate(-87.45)"/><ellipse class="cls-4" cx="159.49" cy="138.86" rx="0.93" ry="0.32" transform="translate(-51.98 140.08) rotate(-41.38)"/><ellipse class="cls-4" cx="158.09" cy="139.74" rx="0.93" ry="0.32" transform="translate(-45.64 84.84) rotate(-26.39)"/><path class="cls-1" d="M172.37,134.05s.28,3.53-7.52,3.78-8.92-1.11-9.06-2.86l14.14,0,2.39-1"/><g class="cls-5"><path class="cls-6" d="M172.66,132.81s1,3.28-6.09,4.2-11.11.3-11.52-2.64h0l10-3.92C165.15,130.42,172.66,132.81,172.66,132.81Z"/></g><path class="cls-7" d="M155,134.62c0,1.45,1.81,2.53,6.68,2.37s11-1.49,11-2.94-6.27-2.47-11.15-2.32S155,133.16,155,134.62Z"/><path class="cls-8" d="M167,132.13a20.32,20.32,0,0,0-1,4.07L163,133.63S166,132.05,167,132.13Z"/><path class="cls-8" d="M161.55,133.62s-3.32-1.26-1.69-1.64c0,0-3.86,0-4.61,2.1s2.92,2.57,4.31,2.71C159.56,136.79,156.31,134.37,161.55,133.62Z"/><path class="cls-9" d="M167,131.92a1.62,1.62,0,0,1,2,0s.13,3.14-1.29,4.28c0,0-1.66.75-1.86,0A9.13,9.13,0,0,1,167,131.92Z"/><path class="cls-10" d="M169.05,131.93s2-.24,2.88.93a2.8,2.8,0,0,1-.55,2.25,5.06,5.06,0,0,1-3.33,1A5.42,5.42,0,0,1,169.05,131.93Z"/><ellipse class="cls-7" cx="175.29" cy="133.46" rx="1.75" ry="0.29" transform="translate(-30.89 55.83) rotate(-16.65)"/><ellipse class="cls-8" cx="177.07" cy="131.42" rx="1.75" ry="0.29" transform="translate(15.53 281.52) rotate(-79.48)"/><ellipse class="cls-7" cx="175.01" cy="135.19" rx="0.29" ry="1.75" transform="translate(12.3 284.97) rotate(-80.32)"/><ellipse class="cls-8" cx="177.51" cy="134.16" rx="1.75" ry="0.29" transform="translate(-36.31 195.73) rotate(-53.14)"/><path class="cls-11" d="M176.2,132.89a3.49,3.49,0,0,1-1.35,2c-1.09.7-3.21,1.29-3.43.25S175.85,132.78,176.2,132.89Z"/><path class="cls-7" d="M171.5,132.25a4.08,4.08,0,0,1,4.67-.11.6.6,0,0,1-.08,1,6,6,0,0,1-4.78,2.12S170.34,133.41,171.5,132.25Z"/><ellipse class="cls-2" cx="173.36" cy="133.46" rx="0.55" ry="1.36" transform="translate(-25.27 41.74) rotate(-12.8)"/><g class="cls-12"><path d="M173.42,132.76c.06.19.17.33.27.3s.07-.05.08-.12a2.89,2.89,0,0,1,.11.35c.11.52,0,1-.17,1s-.47-.33-.59-.85,0-1,.16-1a.19.19,0,0,1,.13,0A.62.62,0,0,0,173.42,132.76Z"/></g></g></svg>