<svg id="Layer_1" data-name="Layer 1" xmlns="http://www.w3.org/2000/svg" xmlns:xlink="http://www.w3.org/1999/xlink" viewBox="0 0 260 168"><defs><style>.cls-1{fill:#c90505;}.cls-2{fill:#8e0303;}.cls-3{fill:#dd0505;}.cls-4{fill:#420202;}.cls-5{fill:#c90706;}.cls-6{fill:#aa0909;}.cls-7{clip-path:url(#clip-path);}.cls-8{fill:#a80202;}.cls-9{fill:#ea1f1f;}.cls-10{fill:#ef3a3a;}.cls-11{fill:#fff;}</style><clipPath id="clip-path"><path class="cls-1" d="M236.53,52.68s-.2,4.06,8.77,4.06,10.21-1.6,10.31-3.62l-16.25.5-2.78-1"/></clipPath></defs><ellipse class="cls-2" cx="239.64" cy="52.75" rx="1.58" ry="0.54" transform="translate(19.4 160.94) rotate(-38.57)"/><ellipse class="cls-2" cx="238.53" cy="54.43" rx="1.58" ry="0.54" transform="translate(122.18 269.65) rotate(-74.46)"/><ellipse class="cls-2" cx="238.21" cy="57.21" rx="1.58" ry="0.54" transform="translate(178.69 294.85) rotate(-89.45)"/><ellipse class="cls-3" cx="232.85" cy="53.06" rx="0.33" ry="2.01" transform="translate(160.7 280.72) rotate(-85.25)"/><ellipse class="cls-4" cx="230.36" cy="51.19" rx="0.33" ry="2.01" transform="translate(-2.11 91.75) rotate(-22.43)"/><ellipse class="cls-3" cx="233.58" cy="54.94" rx="2.01" ry="0.33" transform="translate(-3.83 89.78) rotate(-21.59)"/><ellipse class="cls-4" cx="230.51" cy="54.38" rx="0.33" ry="2.01" transform="translate(37.67 191.87) rotate(-48.76)"/><path class="cls-5" d="M233,52.71a3.1,3.1,0,0,0,1.55,1.51c1.07.41,3,.54,3-.41S233.32,52.55,233,52.71Z"/><ellipse class="cls-6" cx="245.72" cy="57.26" rx="1.58" ry="0.54" transform="translate(31.8 191.03) rotate(-45.14)"/><ellipse class="cls-6" cx="244.86" cy="59.58" rx="0.54" ry="1.58" transform="translate(-1.21 5.2) rotate(-1.21)"/><ellipse class="cls-6" cx="245.35" cy="62.34" rx="0.54" ry="1.58" transform="translate(-7.65 70.92) rotate(-16.2)"/><ellipse class="cls-6" cx="243.19" cy="56.93" rx="1.58" ry="0.54" transform="translate(3.36 126.65) rotate(-29.39)"/><ellipse class="cls-6" cx="241.72" cy="58.93" rx="1.58" ry="0.54" transform="translate(123.99 278.12) rotate(-75.46)"/><ellipse class="cls-6" cx="241.45" cy="61.72" rx="0.54" ry="1.58" transform="translate(-0.47 1.89) rotate(-0.45)"/><ellipse class="cls-2" cx="243.84" cy="53.39" rx="1.58" ry="0.54" transform="translate(31.95 185.34) rotate(-44.26)"/><ellipse class="cls-2" cx="242.94" cy="55.7" rx="0.54" ry="1.58" transform="translate(-0.32 1.43) rotate(-0.34)"/><ellipse class="cls-2" cx="243.39" cy="58.47" rx="0.54" ry="1.58" transform="translate(-6.8 66.4) rotate(-15.32)"/><ellipse class="cls-6" cx="237.95" cy="55.56" rx="1.58" ry="0.54" transform="translate(-1.39 104.81) rotate(-24.77)"/><ellipse class="cls-6" cx="236.47" cy="56.92" rx="1.58" ry="0.54" transform="translate(70.97 235.15) rotate(-60.66)"/><ellipse class="cls-6" cx="235.49" cy="59.55" rx="1.58" ry="0.54" transform="translate(119.4 272.91) rotate(-75.64)"/><ellipse class="cls-6" cx="247.96" cy="56.98" rx="1.07" ry="0.37" transform="translate(45.1 210.54) rotate(-50.07)"/><ellipse class="cls-6" cx="247.52" cy="58.6" rx="0.37" ry="1.07" transform="translate(-4.85 26.81) rotate(-6.14)"/><ellipse class="cls-6" cx="248.01" cy="60.43" rx="0.37" ry="1.07" transform="translate(-5.11 93.45) rotate(-21.13)"/><path class="cls-1" d="M236.53,52.68s-.2,4.06,8.77,4.06,10.21-1.6,10.31-3.62l-16.25.5-2.78-1"/><g class="cls-7"><path class="cls-8" d="M236.15,51.26s-1,3.81,7.14,4.6,12.78-.06,13.15-3.46h0s-11.51-4.1-11.63-4.13S236.15,51.26,236.15,51.26Z"/></g><path class="cls-3" d="M256.51,52.68c0,1.67-2,3-7.6,3s-12.72-1.31-12.72-3,7.11-3.07,12.72-3.07S256.51,51,256.51,52.68Z"/><path class="cls-4" d="M242.68,50.27A23.9,23.9,0,0,1,244,54.9l3.26-3.06S243.77,50.14,242.68,50.27Z"/><path class="cls-4" d="M248.94,51.78s3.77-1.57,1.88-1.94c0,0,4.43-.17,5.37,2.23s-3.25,3.07-4.84,3.28C251.35,55.35,255,52.45,248.94,51.78Z"/><path class="cls-9" d="M242.57,50a1.85,1.85,0,0,0-2.31.08s0,3.61,1.64,4.87c0,0,1.93.8,2.14-.09S243.16,50.71,242.57,50Z"/><path class="cls-10" d="M240.26,50.12S238,49.91,237,51.29c0,0-.25,1.77.71,2.57a5.86,5.86,0,0,0,3.87,1A6.22,6.22,0,0,0,240.26,50.12Z"/><path class="cls-3" d="M237,51.29a3.61,3.61,0,0,0-4.07.76.54.54,0,0,0,.25.84,5.35,5.35,0,0,0,4.53,1S238.21,52.09,237,51.29Z"/><circle class="cls-11" cx="235.46" cy="52.74" r="0.76"/><circle cx="235.46" cy="52.75" r="0.61"/><circle class="cls-11" cx="235.13" cy="52.35" r="0.24"/></svg>