<svg id="Layer_24" data-name="Layer 24" xmlns="http://www.w3.org/2000/svg" xmlns:xlink="http://www.w3.org/1999/xlink" viewBox="0 0 260 168"><defs><style>.cls-1{fill:#c90505;}.cls-2{fill:#8e0303;}.cls-3{fill:#aa0909;}.cls-4{clip-path:url(#clip-path);}.cls-5{fill:#a80202;}.cls-6{fill:#dd0505;}.cls-7{fill:#420202;}.cls-8{fill:#ea1f1f;}.cls-9{fill:#ef3a3a;}</style><clipPath id="clip-path"><path class="cls-1" d="M-2.54,53.39s-.19,4.06,8.78,4.06,10.21-1.61,10.3-3.62L.3,54.33l-2.78-1"/></clipPath></defs><ellipse class="cls-2" cx="0.43" cy="53.17" rx="1.58" ry="0.54" transform="matrix(0.96, -0.26, 0.26, 0.96, -13.95, 1.98)"/><ellipse class="cls-3" cx="7.14" cy="58.34" rx="0.54" ry="1.58"/><ellipse class="cls-3" cx="8.17" cy="60.6" rx="0.54" ry="1.58" transform="translate(-41.14 24.45) rotate(-46.07)"/><ellipse class="cls-3" cx="10.47" cy="62.2" rx="0.54" ry="1.58" transform="translate(-49.03 41.27) rotate(-61.06)"/><ellipse class="cls-3" cx="4.55" cy="58.1" rx="1.58" ry="0.54" transform="translate(-51.4 41.78) rotate(-69.26)"/><ellipse class="cls-3" cx="4.71" cy="60.58" rx="0.54" ry="1.58" transform="translate(-25.47 7.84) rotate(-25.34)"/><ellipse class="cls-3" cx="6.29" cy="62.89" rx="0.54" ry="1.58" transform="translate(-39.2 19.01) rotate(-40.32)"/><ellipse class="cls-2" cx="4.27" cy="53.46" rx="1.58" ry="0.54" transform="translate(-14.7 3.3) rotate(-16.15)"/><ellipse class="cls-2" cx="2.39" cy="55.08" rx="1.58" ry="0.54" transform="translate(-47.46 31.53) rotate(-62.23)"/><ellipse class="cls-2" cx="1.48" cy="57.73" rx="1.58" ry="0.54" transform="translate(-55.15 46.4) rotate(-77.21)"/><ellipse class="cls-3" cx="-0.68" cy="56.86" rx="1.58" ry="0.54" transform="translate(-43.92 19.93) rotate(-50.18)"/><ellipse class="cls-3" cx="9.67" cy="57.7" rx="0.37" ry="1.07"/><ellipse class="cls-3" cx="10.37" cy="59.23" rx="0.37" ry="1.07" transform="translate(-39.48 25.61) rotate(-46.07)"/><ellipse class="cls-3" cx="11.92" cy="60.31" rx="0.37" ry="1.07" transform="translate(-46.63 41.56) rotate(-61.06)"/><path class="cls-1" d="M-2.54,53.39s-.19,4.06,8.78,4.06,10.21-1.61,10.3-3.62L.3,54.33l-2.78-1"/><g class="cls-4"><path class="cls-5" d="M-2.92,52s-1,3.81,7.15,4.6S17,56.51,17.38,53.11h0S5.87,49,5.75,49-2.92,52-2.92,52Z"/></g><path class="cls-6" d="M17.44,53.39c0,1.67-2,3-7.59,3s-12.72-1.31-12.72-3,7.11-3.07,12.72-3.07S17.44,51.72,17.44,53.39Z"/><path class="cls-7" d="M3.61,51A23.3,23.3,0,0,1,5,55.61l3.25-3.06S4.7,50.85,3.61,51Z"/><path class="cls-7" d="M9.88,52.49s3.77-1.57,1.88-2c0,0,4.43-.17,5.37,2.24s-3.25,3.06-4.85,3.27C12.28,56.05,15.92,53.16,9.88,52.49Z"/><path class="cls-8" d="M3.51,50.74a1.84,1.84,0,0,0-2.31.09s0,3.61,1.64,4.87c0,0,1.93.79,2.14-.09S4.1,51.42,3.51,50.74Z"/><path class="cls-9" d="M1.2,50.83S-1.07,50.62-2.07,52c0,0-.26,1.77.71,2.56a5.8,5.8,0,0,0,3.86,1A6.24,6.24,0,0,0,1.2,50.83Z"/></svg>