<svg id="Layer_23" data-name="Layer 23" xmlns="http://www.w3.org/2000/svg" xmlns:xlink="http://www.w3.org/1999/xlink" viewBox="0 0 260 168"><defs><style>.cls-1{fill:#c90505;}.cls-2{clip-path:url(#clip-path);}.cls-3{fill:#a80202;}.cls-4{fill:#dd0505;}.cls-5{fill:#420202;}</style><clipPath id="clip-path"><path class="cls-1" d="M-14.92,52.68s-.2,4.06,8.77,4.06,10.21-1.6,10.3-3.62l-16.24.5-2.78-1"/></clipPath></defs><path class="cls-1" d="M-14.92,52.68s-.2,4.06,8.77,4.06,10.21-1.6,10.3-3.62l-16.24.5-2.78-1"/><g class="cls-2"><path class="cls-3" d="M-15.31,51.26s-1,3.81,7.15,4.6S4.62,55.8,5,52.4H5S-6.52,48.3-6.64,48.27-15.31,51.26-15.31,51.26Z"/></g><path class="cls-4" d="M5.06,52.68c0,1.67-2,3-7.6,3s-12.72-1.31-12.72-3,7.11-3.07,12.72-3.07S5.06,51,5.06,52.68Z"/><path class="cls-5" d="M-2.51,51.78s3.77-1.57,1.88-1.94c0,0,4.43-.17,5.37,2.23S1.49,55.14-.11,55.35C-.11,55.35,3.53,52.45-2.51,51.78Z"/></svg>