<svg id="Layer_3" data-name="Layer 3" xmlns="http://www.w3.org/2000/svg" xmlns:xlink="http://www.w3.org/1999/xlink" viewBox="0 0 260 168"><defs><style>.cls-1{fill:#c90505;}.cls-2{fill:#8e0303;}.cls-3{fill:#aa0909;}.cls-4{clip-path:url(#clip-path);}.cls-5{fill:#a80202;}.cls-6{fill:#dd0505;}.cls-7{fill:#420202;}.cls-8{fill:#ea1f1f;}.cls-9{fill:#ef3a3a;}.cls-10{fill:#c90706;}.cls-11{fill:#fff;}.cls-12{fill:#4c2308;}</style><clipPath id="clip-path"><path class="cls-1" d="M51.62,49.86s1.11,3.91-7.64,5.93-10.3.74-10.85-1.21l15.94-3.16,2.48-1.64"/></clipPath></defs><ellipse class="cls-2" cx="50.32" cy="51" rx="0.54" ry="1.58" transform="translate(-2.59 99.31) rotate(-87.78)"/><ellipse class="cls-2" cx="52.21" cy="51.69" rx="0.54" ry="1.58" transform="translate(-20.68 60.88) rotate(-51.9)"/><ellipse class="cls-2" cx="54.12" cy="53.74" rx="0.54" ry="1.58" transform="matrix(0.8, -0.6, 0.6, 0.8, -21.43, 43.28)"/><ellipse class="cls-3" cx="43.3" cy="56.86" rx="0.54" ry="1.58" transform="translate(-11.69 11.21) rotate(-13.01)"/><ellipse class="cls-3" cx="42.81" cy="59.29" rx="1.58" ry="0.54" transform="translate(-30.24 62.82) rotate(-56.94)"/><ellipse class="cls-3" cx="40.93" cy="61.37" rx="1.58" ry="0.54" transform="translate(-30.54 43.09) rotate(-41.95)"/><ellipse class="cls-3" cx="45.78" cy="56.04" rx="0.54" ry="1.58" transform="translate(-23.42 34.88) rotate(-33.75)"/><ellipse class="cls-3" cx="46.18" cy="58.49" rx="1.58" ry="0.54" transform="translate(-20.83 91.12) rotate(-77.68)"/><ellipse class="cls-3" cx="45.16" cy="61.11" rx="1.58" ry="0.54" transform="translate(-29.86 73.19) rotate(-62.69)"/><ellipse class="cls-2" cx="45.22" cy="53.7" rx="0.54" ry="1.58" transform="translate(-10.87 95.91) rotate(-86.86)"/><ellipse class="cls-2" cx="47.42" cy="54.85" rx="0.54" ry="1.58" transform="translate(-24.31 44.3) rotate(-40.78)"/><ellipse class="cls-2" cx="48.9" cy="57.24" rx="0.54" ry="1.58" transform="translate(-20.03 26.98) rotate(-25.8)"/><ellipse class="cls-3" cx="50.59" cy="53.66" rx="0.54" ry="1.58" transform="translate(-22.73 61.55) rotate(-52.83)"/><ellipse class="cls-3" cx="51.75" cy="55.31" rx="0.54" ry="1.58" transform="translate(-13.87 17.48) rotate(-16.94)"/><ellipse class="cls-3" cx="52.14" cy="58.08" rx="0.54" ry="1.58" transform="translate(-1.95 1.81) rotate(-1.96)"/><ellipse class="cls-3" cx="40.7" cy="56.81" rx="0.37" ry="1.07" transform="translate(-11.75 10.62) rotate(-13.01)"/><ellipse class="cls-3" cx="40.36" cy="58.45" rx="1.07" ry="0.37" transform="translate(-30.65 60.39) rotate(-56.94)"/><ellipse class="cls-3" cx="39.09" cy="59.86" rx="1.07" ry="0.37" transform="translate(-30 41.47) rotate(-41.95)"/><path class="cls-1" d="M51.62,49.86s1.11,3.91-7.64,5.93-10.3.74-10.85-1.21l15.94-3.16,2.48-1.64"/><g class="cls-4"><path class="cls-5" d="M51.67,48.39s1.83,3.49-5.92,6.09-12.47,2.82-13.59-.41h0s10.29-6.58,10.4-6.64S51.67,48.39,51.67,48.39Z"/></g><path class="cls-6" d="M32.15,54.36c.38,1.63,2.61,2.45,8.08,1.19S52.32,51.41,52,49.78s-7.62-1.39-13.08-.12S31.78,52.73,32.15,54.36Z"/><path class="cls-7" d="M45.09,48.89a23.48,23.48,0,0,0-.29,4.83l-3.86-2.26S44,49,45.09,48.89Z"/><path class="cls-7" d="M39.32,51.77s-4-.67-2.27-1.46c0,0-4.35.83-4.73,3.38s3.86,2.26,5.46,2.1C37.78,55.79,33.58,53.79,39.32,51.77Z"/><path class="cls-8" d="M45.14,48.64a1.84,1.84,0,0,1,2.26-.43s.86,3.5-.49,5.11c0,0-1.71,1.21-2.11.4S44.71,49.43,45.14,48.64Z"/><path class="cls-9" d="M47.4,48.21s2.17-.72,3.46.4c0,0,.64,1.66-.12,2.66a5.85,5.85,0,0,1-3.54,1.85A6.25,6.25,0,0,1,47.4,48.21Z"/><ellipse class="cls-6" cx="55.07" cy="50.92" rx="0.33" ry="2.01" transform="translate(2.37 104.29) rotate(-88.12)"/><ellipse class="cls-7" cx="57.76" cy="49.35" rx="2.01" ry="0.33" transform="translate(-13.43 75.88) rotate(-60.94)"/><ellipse class="cls-6" cx="54.13" cy="52.71" rx="0.33" ry="2.01" transform="translate(-17.91 75.49) rotate(-61.78)"/><ellipse class="cls-7" cx="57.24" cy="52.5" rx="2.01" ry="0.33" transform="translate(-19.69 41.8) rotate(-34.61)"/><path class="cls-10" d="M54.93,50.56a3.07,3.07,0,0,1-1.71,1.32c-1.11.28-3.06.18-2.95-.76S54.67,50.37,54.93,50.56Z"/><path class="cls-6" d="M51.16,48.69a3.62,3.62,0,0,1,4,1.22.54.54,0,0,1-.35.81,5.31,5.31,0,0,1-4.61.43S49.86,49.34,51.16,48.69Z"/><circle class="cls-11" cx="52.52" cy="50.31" r="0.76"/><circle cx="52.52" cy="50.31" r="0.61"/><circle class="cls-11" cx="52.89" cy="49.96" r="0.24"/><path class="cls-12" d="M44.79,61.08a.82.82,0,0,0-.32.37A.41.41,0,0,1,44.3,61c.06-.22.34-.65.62-.58S45,60.94,44.79,61.08Z"/><path class="cls-12" d="M45,61.92a.82.82,0,0,1-.34.35.41.41,0,0,0,.5.13c.21-.07.62-.39.53-.67S45.16,61.73,45,61.92Z"/><path class="cls-12" d="M44.79,61.36l-.11.13,0,0a.08.08,0,0,0,0,.07h.08a.13.13,0,0,0,.18.1.2.2,0,0,0,.08-.22.21.21,0,0,0-.07-.12.14.14,0,0,0-.14,0"/><path class="cls-12" d="M38.48,59.77a.32.32,0,0,0-.11.28.2.2,0,0,0,.18.12c.37,0,1-.25.74-.68S38.69,59.53,38.48,59.77Z"/><path class="cls-12" d="M40.52,60.89a2.73,2.73,0,0,0-.65.9.45.45,0,0,0,0,.34.68.68,0,0,0,.56-.2,1.28,1.28,0,0,1,.53-.3c.13,0,.29,0,.35-.1s0-.19,0-.29a.57.57,0,0,1,.13-.21.41.41,0,0,0,.12-.2c0-.08,0-.18-.12-.18s0-.11,0-.13A1.34,1.34,0,0,0,40.52,60.89Z"/><path class="cls-12" d="M51.5,57.89a.33.33,0,0,0-.12.17c0,.14.09.28.14.42a1.25,1.25,0,0,1-.05.54c0,.18,0,.4.2.46a.24.24,0,0,0,.24-.08.23.23,0,0,0,0-.25.18.18,0,0,0,.19-.14c0-.17-.17-.34-.1-.5a.28.28,0,0,1,.08-.11C52.52,57.93,51.93,57.48,51.5,57.89Z"/><path class="cls-12" d="M52.45,58.84c0,.18,0,.4-.09.55a.78.78,0,0,1-.2.16c-.07.06-.14.14-.12.22a.83.83,0,0,0,.65-.24.85.85,0,0,0,.25-.25,1,1,0,0,0,0-.69C52.79,58.36,52.5,58.63,52.45,58.84Z"/></svg>