<svg id="Layer_3" data-name="Layer 3" xmlns="http://www.w3.org/2000/svg" xmlns:xlink="http://www.w3.org/1999/xlink" viewBox="0 0 260 168"><defs><style>.cls-1{fill:#c90505;}.cls-2{fill:#fff;}.cls-3{fill:#8e0303;}.cls-4{fill:#aa0909;}.cls-5{clip-path:url(#clip-path);}.cls-6{fill:#a80202;}.cls-7{fill:#dd0505;}.cls-8{fill:#420202;}.cls-9{fill:#ea1f1f;}.cls-10{fill:#ef3a3a;}.cls-11{fill:#c90706;}.cls-12{clip-path:url(#clip-path-2);}</style><clipPath id="clip-path"><path class="cls-1" d="M148.81,140.62s.4-11.3-24.55-11-28.33,4.84-28.52,10.44l45.15-2,7.78,2.79"/></clipPath><clipPath id="clip-path-2"><ellipse class="cls-2" cx="152.55" cy="138.64" rx="1.76" ry="4.36" transform="translate(-44.02 76.57) rotate(-24.74)"/></clipPath></defs><ellipse class="cls-3" cx="140.58" cy="141.33" rx="4.4" ry="1.52" transform="translate(-33.45 44.13) rotate(-15.97)"/><ellipse class="cls-3" cx="145.24" cy="138.22" rx="4.4" ry="1.52" transform="translate(-53.18 167.07) rotate(-51.85)"/><ellipse class="cls-3" cx="149.04" cy="131.42" rx="4.4" ry="1.52" transform="translate(-30.4 216.76) rotate(-66.84)"/><ellipse class="cls-4" cx="121.72" cy="127.2" rx="1.52" ry="4.4" transform="translate(-1.63 1.58) rotate(-0.74)"/><ellipse class="cls-4" cx="118.77" cy="120.96" rx="1.52" ry="4.4" transform="translate(-50.71 124.78) rotate(-46.82)"/><ellipse class="cls-4" cx="112.32" cy="116.58" rx="1.52" ry="4.4" transform="translate(-43.49 160.48) rotate(-61.8)"/><ellipse class="cls-4" cx="128.95" cy="127.77" rx="4.4" ry="1.52" transform="translate(-35.22 205.25) rotate(-70)"/><ellipse class="cls-4" cx="128.4" cy="120.89" rx="1.52" ry="4.4" transform="translate(-40.07 68.75) rotate(-26.08)"/><ellipse class="cls-4" cx="123.92" cy="114.51" rx="1.52" ry="4.4" transform="translate(-44.73 109.57) rotate(-41.06)"/><ellipse class="cls-3" cx="129.88" cy="140.67" rx="4.4" ry="1.52" transform="translate(-35.27 43.82) rotate(-16.89)"/><ellipse class="cls-3" cx="135.06" cy="136.1" rx="4.4" ry="1.52" transform="translate(-47.55 194.55) rotate(-62.97)"/><ellipse class="cls-3" cx="137.48" cy="128.68" rx="4.4" ry="1.52" transform="translate(-17.06 236.28) rotate(-77.96)"/><ellipse class="cls-4" cx="143.52" cy="131.03" rx="4.4" ry="1.52" transform="translate(-48.67 159.85) rotate(-50.92)"/><ellipse class="cls-4" cx="145.56" cy="125.82" rx="4.4" ry="1.52" transform="translate(11.84 264.15) rotate(-86.81)"/><ellipse class="cls-4" cx="144.77" cy="118.06" rx="1.52" ry="4.4" transform="translate(-21.08 32.09) rotate(-11.79)"/><ellipse class="cls-4" cx="111.59" cy="128.28" rx="1.02" ry="2.97" transform="translate(-55.39 96.24) rotate(-38.12)"/><ellipse class="cls-4" cx="107.44" cy="126.14" rx="1.02" ry="2.97" transform="translate(-28.92 220.26) rotate(-84.19)"/><ellipse class="cls-4" cx="102.18" cy="126.43" rx="2.97" ry="1.02" transform="translate(-18.85 17.91) rotate(-9.18)"/><path class="cls-1" d="M148.81,140.62s.4-11.3-24.55-11-28.33,4.84-28.52,10.44l45.15-2,7.78,2.79"/><g class="cls-5"><path class="cls-6" d="M149.92,144.55s2.62-10.63-20-12.53-35.53.64-36.44,10.11h0s32.16,11,32.5,11.05S149.92,144.55,149.92,144.55Z"/></g><path class="cls-7" d="M93.25,141.34c-.06-4.65,5.42-8.36,21-8.56s35.42,3.18,35.48,7.82-19.66,8.8-35.26,9S93.31,146,93.25,141.34Z"/><path class="cls-8" d="M131.8,147.56a65.33,65.33,0,0,1-4-12.86l-8.94,8.64S128.77,147.94,131.8,147.56Z"/><path class="cls-8" d="M114.32,143.58s-10.42,4.48-5.15,5.46c0,0-12.32.64-15-6s8.94-8.64,13.37-9.28C107.51,133.74,97.49,141.93,114.32,143.58Z"/><path class="cls-9" d="M132.1,148.19s2.6,2.3,6.42-.31c0,0,0-10-4.73-13.49,0,0-5.4-2.14-5.95.31S130.44,146.35,132.1,148.19Z"/><path class="cls-10" d="M138.52,147.88s6.31.5,9.06-3.39c0,0,.64-4.91-2.08-7.09,0,0-5.53-3.79-10.77-2.67C134.73,134.73,133.54,142.45,138.52,147.88Z"/><ellipse class="cls-7" cx="157.44" cy="134.91" rx="5.59" ry="0.92" transform="translate(-37.76 65.02) rotate(-20.89)"/><ellipse class="cls-8" cx="165.94" cy="136.59" rx="0.92" ry="5.59" transform="translate(-46.56 168.77) rotate(-48.07)"/><ellipse class="cls-7" cx="153.35" cy="131.04" rx="5.59" ry="0.92" transform="translate(-46.98 154.62) rotate(-47.23)"/><ellipse class="cls-8" cx="161.71" cy="128.78" rx="0.92" ry="5.59" transform="translate(-5.8 249.91) rotate(-74.4)"/><path class="cls-11" d="M160.85,134.56a11.05,11.05,0,0,0-7.38-2.51c-4.12.34-10.66,3-9.19,6S160.17,135.51,160.85,134.56Z"/><path class="cls-7" d="M150.19,145.34s8,.54,12.06-8.81c0,0,.45-2.23-2.13-2.34s-8.36-2-16.24,3.94C143.88,138.13,145,144.65,150.19,145.34Z"/><ellipse class="cls-2" cx="152.55" cy="138.64" rx="1.76" ry="4.36" transform="translate(-44.02 76.57) rotate(-24.74)"/><g class="cls-12"><path d="M153.91,139.35c-.24-.6-.21-1.18.07-1.3a.48.48,0,0,1,.46.15,7.54,7.54,0,0,0-.4-1.08c-.71-1.55-1.8-2.57-2.42-2.28s-.55,1.77.16,3.32,1.8,2.56,2.42,2.28a.68.68,0,0,0,.28-.32A1.72,1.72,0,0,1,153.91,139.35Z"/></g></svg>