<svg id="Layer_5" data-name="Layer 5" xmlns="http://www.w3.org/2000/svg" xmlns:xlink="http://www.w3.org/1999/xlink" viewBox="0 0 260 168"><defs><style>.cls-1{fill:none;}.cls-2{fill:#c90505;}.cls-3{clip-path:url(#clip-path);}.cls-4{fill:#dd0505;}.cls-5{fill:#420202;}.cls-6{fill:#c90706;}.cls-7{clip-path:url(#clip-path-2);}.cls-8{fill:#a80202;}.cls-9{fill:#ea1f1f;}.cls-10{fill:#ef3a3a;}.cls-11{fill:#fff;}</style><clipPath id="clip-path"><path class="cls-1" d="M172.52,132.33s17.08-.88,30.12-.18a70.2,70.2,0,0,0,23.25-2.64l2.29-14.62-6.7-8.8h-34c-3.52,0-13.39,6.34-13.39,6.34l-5.28,6.69Z"/></clipPath><clipPath id="clip-path-2"><path class="cls-2" d="M163.41,151s3.2,5.67,15.38-2,12.48-10.89,10.89-13.7l-21.61,14.54-4.67,1"/></clipPath></defs><g class="cls-3"><ellipse class="cls-4" cx="158.74" cy="154.59" rx="3.22" ry="0.53" transform="translate(-53.33 90.39) rotate(-27.4)"/><ellipse class="cls-5" cx="153.76" cy="154.18" rx="0.53" ry="3.22" transform="translate(-61 190.11) rotate(-54.57)"/><ellipse class="cls-4" cx="161.34" cy="156.54" rx="3.22" ry="0.53" transform="translate(-60.31 194.02) rotate(-53.73)"/><ellipse class="cls-5" cx="156.69" cy="158.38" rx="0.53" ry="3.22" transform="translate(-24.46 288.08) rotate(-80.91)"/><path class="cls-6" d="M158.69,154a4.93,4.93,0,0,0,3.39.73c1.8-.35,4.56-1.85,3.75-3.13S158.94,153.51,158.69,154Z"/><path class="cls-2" d="M163.41,151s3.2,5.67,15.38-2,12.48-10.89,10.89-13.7l-21.61,14.54-4.67,1"/><g class="cls-7"><path class="cls-8" d="M161.68,149.35s1.91,6,13.62.14,17.29-11,14.9-15.92h0s-19.12,4.27-19.31,4.33S161.68,149.35,161.68,149.35Z"/></g><path class="cls-4" d="M190.53,133.9c1.43,2.27-.16,5.74-7.77,10.53s-18.38,9.07-19.8,6.8,7-10.23,14.64-15S189.11,131.64,190.53,133.9Z"/><path class="cls-5" d="M169.7,142.42a37.85,37.85,0,0,1,5.81,5.14l1.8-6.94S171.07,141.32,169.7,142.42Z"/><path class="cls-5" d="M179.49,139.13s3.78-5.34.89-4.24c0,0,5.87-4,9.2-1.55s-1.8,6.94-3.78,8.58C185.8,141.92,188.27,134.89,179.49,139.13Z"/><path class="cls-9" d="M169.36,142.2s-2-.35-3.06,2.08c0,0,3,4.94,6.37,5.22,0,0,3.3-.57,2.84-1.94S170.73,142.61,169.36,142.2Z"/><path class="cls-10" d="M166.3,144.28s-3.26,1.65-3.44,4.39c0,0,1.16,2.61,3.15,2.87,0,0,3.86.19,6.1-1.93C172.11,149.61,170.37,145.46,166.3,144.28Z"/><path class="cls-4" d="M162.86,148.67s-3.56.17-4.89,4.5a.86.86,0,0,0,1.06.92,8.57,8.57,0,0,0,7-2.55S165.19,148.71,162.86,148.67Z"/><circle class="cls-11" cx="162.01" cy="151.94" r="1.21"/><circle cx="162.01" cy="151.95" r="0.98"/><circle class="cls-11" cx="161.23" cy="151.69" r="0.39"/></g></svg>