<svg id="Layer_1" data-name="Layer 1" xmlns="http://www.w3.org/2000/svg" xmlns:xlink="http://www.w3.org/1999/xlink" viewBox="0 0 260 168"><defs><style>.cls-1{fill:#c90505;}.cls-2{fill:#dd0505;}.cls-3{fill:#420202;}.cls-4{fill:#c90706;}.cls-5{clip-path:url(#clip-path);}.cls-6{fill:#a80202;}.cls-7{fill:#ea1f1f;}.cls-8{fill:#ef3a3a;}.cls-9{fill:#fff;}</style><clipPath id="clip-path"><path class="cls-1" d="M187.44,125.12s-.31,6.51,14.07,6.51,16.36-2.58,16.51-5.81l-26,.81L187.52,125"/></clipPath></defs><ellipse class="cls-2" cx="181.55" cy="125.72" rx="0.53" ry="3.22" transform="translate(41.23 296.23) rotate(-85.25)"/><ellipse class="cls-3" cx="177.55" cy="122.72" rx="0.53" ry="3.22" transform="translate(-33.39 77.01) rotate(-22.43)"/><ellipse class="cls-2" cx="182.71" cy="128.75" rx="3.22" ry="0.53" transform="translate(-34.55 76.25) rotate(-21.59)"/><ellipse class="cls-3" cx="177.8" cy="127.84" rx="0.53" ry="3.22" transform="translate(-35.54 177.26) rotate(-48.76)"/><path class="cls-4" d="M181.84,125.17a4.89,4.89,0,0,0,2.47,2.42c1.72.65,4.85.86,4.85-.66S182.29,124.91,181.84,125.17Z"/><path class="cls-1" d="M187.44,125.12s-.31,6.51,14.07,6.51,16.36-2.58,16.51-5.81l-26,.81L187.52,125"/><g class="cls-5"><path class="cls-6" d="M186.83,122.84s-1.59,6.11,11.45,7.37,20.49-.1,21.08-5.55h0s-18.45-6.56-18.65-6.61S186.83,122.84,186.83,122.84Z"/></g><path class="cls-2" d="M219.47,125.12c0,2.68-3.19,4.77-12.18,4.77s-20.39-2.09-20.39-4.77,11.4-4.92,20.39-4.92S219.47,122.44,219.47,125.12Z"/><path class="cls-3" d="M197.3,121.25a37.44,37.44,0,0,1,2.18,7.43l5.22-4.91S199.05,121,197.3,121.25Z"/><path class="cls-3" d="M207.34,123.67s6-2.51,3-3.11c0,0,7.11-.28,8.61,3.58s-5.21,4.91-7.77,5.25C211.19,129.39,217,124.75,207.34,123.67Z"/><path class="cls-7" d="M197.13,120.88s-1.48-1.35-3.7.13c0,0-.07,5.79,2.62,7.81,0,0,3.1,1.28,3.43-.14S198.07,122,197.13,120.88Z"/><path class="cls-8" d="M193.43,121s-3.64-.34-5.25,1.89c0,0-.4,2.82,1.14,4.1,0,0,3.17,2.22,6.19,1.62C195.51,128.62,196.25,124.17,193.43,121Z"/><path class="cls-2" d="M188.18,122.9s-3.1-1.75-6.53,1.21a.86.86,0,0,0,.41,1.34,8.57,8.57,0,0,0,7.26,1.55S190.13,124.17,188.18,122.9Z"/><circle class="cls-9" cx="185.72" cy="125.22" r="1.21"/><circle cx="185.72" cy="125.22" r="0.98"/><circle class="cls-9" cx="185.2" cy="124.59" r="0.39"/></svg>