<svg xmlns="http://www.w3.org/2000/svg" xmlns:xlink="http://www.w3.org/1999/xlink" viewBox="0 0 260 168"><defs><style>.cls-1{fill:#c90505;}.cls-2{fill:#fff;}.cls-3{fill:#8e0303;}.cls-4{fill:#aa0909;}.cls-5{clip-path:url(#clip-path);}.cls-6{fill:#a80202;}.cls-7{fill:#dd0505;}.cls-8{fill:#420202;}.cls-9{fill:#ea1f1f;}.cls-10{fill:#ef3a3a;}.cls-11{fill:#c90706;}.cls-12{clip-path:url(#clip-path-2);}</style><clipPath id="clip-path"><path class="cls-1" d="M160.72,127.7s2.82,2.87-3.82,8.79-8.6,5.55-10,4.12l12.34-10.34,1.38-2.61"/></clipPath><clipPath id="clip-path-2"><ellipse class="cls-2" cx="161.15" cy="126.45" rx="0.63" ry="1.55" transform="matrix(0.61, -0.8, 0.8, 0.61, -37.11, 177.96)"/></clipPath></defs><g id="Layer_5" data-name="Layer 5"><ellipse class="cls-3" cx="158.38" cy="129.49" rx="1.57" ry="0.54" transform="translate(-41.14 84.29) rotate(-26.5)"/><ellipse class="cls-3" cx="160.35" cy="129.19" rx="0.54" ry="1.57" transform="translate(6.76 266.34) rotate(-80.62)"/><ellipse class="cls-3" cx="162.99" cy="130.06" rx="0.54" ry="1.57" transform="translate(-22.74 224.87) rotate(-65.63)"/><ellipse class="cls-4" cx="154.05" cy="136.75" rx="1.57" ry="0.54" transform="translate(-5.41 6.34) rotate(-2.32)"/><ellipse class="cls-4" cx="156.33" cy="137.68" rx="0.54" ry="1.57" transform="translate(-51.23 155.38) rotate(-46.24)"/><ellipse class="cls-4" cx="158.01" cy="139.89" rx="0.54" ry="1.57" transform="translate(-49.65 102.3) rotate(-31.26)"/><ellipse class="cls-4" cx="156.89" cy="135.07" rx="1.57" ry="0.54" transform="translate(-12.84 16.53) rotate(-5.8)"/><ellipse class="cls-4" cx="159.22" cy="135.86" rx="0.54" ry="1.57" transform="translate(-47.36 169.48) rotate(-49.72)"/><ellipse class="cls-4" cx="161.03" cy="137.96" rx="0.54" ry="1.57" transform="translate(-49.91 116.32) rotate(-34.73)"/><ellipse class="cls-3" cx="155.73" cy="132.24" rx="1.57" ry="0.54" transform="translate(-41.83 80.2) rotate(-25.58)"/><ellipse class="cls-3" cx="158.19" cy="132.19" rx="0.54" ry="1.57" transform="translate(-21.03 234.07) rotate(-69.5)"/><ellipse class="cls-3" cx="160.61" cy="133.56" rx="0.54" ry="1.57" transform="translate(-41.38 186.81) rotate(-54.51)"/><ellipse class="cls-4" cx="161.63" cy="131.49" rx="0.54" ry="1.57" transform="translate(7.81 272.04) rotate(-81.55)"/><ellipse class="cls-4" cx="163.42" cy="132.37" rx="0.54" ry="1.57" transform="translate(-45.47 156.74) rotate(-45.66)"/><ellipse class="cls-4" cx="165.08" cy="134.6" rx="0.54" ry="1.57" transform="translate(-45.57 103.05) rotate(-30.67)"/><ellipse class="cls-4" cx="153" cy="139.3" rx="0.37" ry="1.06" transform="translate(-31.22 233.53) rotate(-69.41)"/><ellipse class="cls-4" cx="154.17" cy="140.48" rx="0.37" ry="1.06" transform="translate(-43.03 72.54) rotate(-23.33)"/><ellipse class="cls-4" cx="154.64" cy="142.3" rx="0.37" ry="1.06" transform="translate(-19.02 23.95) rotate(-8.35)"/><path class="cls-1" d="M160.72,127.7s2.82,2.87-3.82,8.79-8.6,5.55-10,4.12l12.34-10.34,1.38-2.61"/><g class="cls-5"><path class="cls-6" d="M160.06,126.4s3.25,2.16-2.25,8.11-9.49,8.38-12,6.11h0s5.81-10.62,5.89-10.72S160.06,126.4,160.06,126.4Z"/></g><path class="cls-7" d="M145.94,140.88c1.1,1.23,3.44.89,7.58-2.81s8.55-9.36,7.45-10.59-7.29,2.42-11.43,6.12S144.84,139.64,145.94,140.88Z"/><path class="cls-8" d="M154.58,130a22.93,22.93,0,0,0,2,4.33l-4.43-.12S153.69,130.59,154.58,130Z"/><path class="cls-8" d="M150.94,135.22s-3.82,1.33-2.67-.2c0,0-3.39,2.8-2.5,5.2s4.43.12,5.75-.78C151.52,139.44,146.91,139.7,150.94,135.22Z"/><path class="cls-9" d="M154.5,129.73a1.83,1.83,0,0,1,1.76-1.46s2.42,2.64,2,4.68c0,0-.91,1.86-1.64,1.35S154.51,130.61,154.5,129.73Z"/><path class="cls-10" d="M156.26,128.27s1.54-1.65,3.2-1.29c0,0,1.35,1.13,1.16,2.36a5.73,5.73,0,0,1-2.19,3.29A6.17,6.17,0,0,1,156.26,128.27Z"/><ellipse class="cls-7" cx="162.83" cy="125.04" rx="1.99" ry="0.33" transform="translate(-31.27 191.92) rotate(-56.53)"/><ellipse class="cls-8" cx="162.91" cy="121.95" rx="0.33" ry="1.99" transform="translate(-38.87 95.53) rotate(-29.36)"/><ellipse class="cls-7" cx="163.86" cy="126.76" rx="1.99" ry="0.33" transform="translate(-41.52 99.62) rotate(-30.2)"/><ellipse class="cls-8" cx="165.3" cy="124.03" rx="0.33" ry="1.99" transform="translate(-6.31 8.89) rotate(-3.02)"/><path class="cls-11" d="M163.22,123.88a3.93,3.93,0,0,1,.3,2.76c-.44,1.41-1.86,3.48-2.82,2.73S162.83,124,163.22,123.88Z"/><path class="cls-7" d="M158.64,126.75a4.65,4.65,0,0,1,4-3.51.7.7,0,0,1,.65.92,6.86,6.86,0,0,1-2.63,5.35S158.48,128.61,158.64,126.75Z"/><ellipse class="cls-2" cx="161.15" cy="126.45" rx="0.63" ry="1.55" transform="matrix(0.61, -0.8, 0.8, 0.61, -37.11, 177.96)"/><g class="cls-12"><path d="M160.69,125.79c.19.13.4.17.46.08s0-.1,0-.17l.35.22c.48.37.75.83.6,1s-.66,0-1.14-.31-.75-.83-.6-1a.17.17,0,0,1,.13-.07A.62.62,0,0,0,160.69,125.79Z"/></g></g></svg>