<svg id="Layer_1" data-name="Layer 1" xmlns="http://www.w3.org/2000/svg" xmlns:xlink="http://www.w3.org/1999/xlink" viewBox="0 0 260 168"><defs><style>.cls-1{fill:#af1010;}.cls-2{fill:#fff;}.cls-3{fill:#420202;}.cls-4{fill:#c90505;}.cls-5{fill:#d81e1e;}.cls-6{fill:#900;}.cls-7{clip-path:url(#clip-path);}.cls-8{fill:none;stroke:#930909;stroke-miterlimit:10;stroke-width:0.22px;}.cls-9{clip-path:url(#clip-path-2);}.cls-10{clip-path:url(#clip-path-3);}.cls-11{clip-path:url(#clip-path-4);}.cls-12{fill:#ea2828;}</style><clipPath id="clip-path"><path class="cls-1" d="M159.57,95.48c2.14,5.56.9,8.81-1.79,9.84s-5.79-.54-7.93-6.1-2.5-13,.18-14S157.43,89.92,159.57,95.48Z"/></clipPath><clipPath id="clip-path-2"><ellipse class="cls-2" cx="146.74" cy="81.86" rx="1.14" ry="2.1" transform="translate(-13.8 32.25) rotate(-11.98)"/></clipPath><clipPath id="clip-path-3"><ellipse class="cls-2" cx="150.19" cy="80.54" rx="1.14" ry="2.1" transform="translate(-20.14 86.2) rotate(-30.11)"/></clipPath><clipPath id="clip-path-4"><path class="cls-3" d="M148.82,84.46a1.74,1.74,0,0,0,1.75-.67S150.84,86.71,148.82,84.46Z"/></clipPath></defs><ellipse class="cls-4" cx="151.34" cy="88.64" rx="6.31" ry="2.97" transform="translate(-21.74 60.26) rotate(-21.04)"/><ellipse class="cls-5" cx="149.86" cy="84.81" rx="5.36" ry="3.35" transform="translate(-20.46 59.47) rotate(-21.04)"/><path class="cls-4" d="M160.73,94.56c2.72,7.07,1.13,11.2-2.28,12.51s-7.35-.69-10.07-7.75-3.18-16.53.23-17.84S158,87.5,160.73,94.56Z"/><path class="cls-6" d="M160.18,94.89c2.47,6.4,1,10.13-2.06,11.32s-6.65-.62-9.11-7-2.89-15,.2-16.14S157.72,88.5,160.18,94.89Z"/><ellipse class="cls-6" cx="151.69" cy="101.26" rx="2.96" ry="1.03" transform="translate(2.23 205.79) rotate(-68.69)"/><ellipse class="cls-6" cx="151.29" cy="105.81" rx="1.07" ry="2.83" transform="translate(-11.77 19.23) rotate(-7)"/><ellipse class="cls-6" cx="151.36" cy="110.46" rx="2.87" ry="1.06" transform="translate(21.22 245.28) rotate(-82.13)"/><ellipse class="cls-6" cx="162.59" cy="99.63" rx="1.03" ry="2.97" transform="translate(-18.6 159.06) rotate(-49.66)"/><ellipse class="cls-6" cx="164.8" cy="103.65" rx="1.07" ry="2.83" transform="translate(-16.94 33.85) rotate(-11.16)"/><ellipse class="cls-6" cx="166.18" cy="108.1" rx="1.06" ry="2.87" transform="translate(-30.58 83.87) rotate(-26.02)"/><ellipse class="cls-6" cx="161.93" cy="94.88" rx="1.03" ry="2.96" transform="translate(23.11 221.19) rotate(-72.67)"/><ellipse class="cls-6" cx="165.73" cy="97.41" rx="1.07" ry="2.83" transform="translate(-20.87 143.63) rotate(-44.36)"/><ellipse class="cls-6" cx="169.32" cy="100.37" rx="1.06" ry="2.87" transform="translate(-3.55 194.49) rotate(-59.23)"/><ellipse class="cls-6" cx="160.19" cy="90.38" rx="2.96" ry="1.03" transform="translate(-14.26 32.11) rotate(-10.96)"/><ellipse class="cls-6" cx="164.74" cy="90.8" rx="1.07" ry="2.83" transform="translate(28.94 220.97) rotate(-72.65)"/><ellipse class="cls-6" cx="169.3" cy="91.71" rx="1.06" ry="2.87" transform="translate(70.35 256.88) rotate(-87.52)"/><ellipse class="cls-6" cx="149.58" cy="93.84" rx="2.96" ry="1.03" transform="translate(-26.76 84.62) rotate(-29.11)"/><ellipse class="cls-6" cx="146.38" cy="97.09" rx="2.83" ry="1.07" transform="translate(-14.26 168.15) rotate(-57.42)"/><ellipse class="cls-6" cx="143.47" cy="100.72" rx="2.87" ry="1.06" transform="translate(-30.34 123.54) rotate(-42.55)"/><ellipse class="cls-6" cx="149.44" cy="96.91" rx="2.96" ry="1.03" transform="translate(-15.03 165.29) rotate(-55.54)"/><ellipse class="cls-6" cx="148.01" cy="101.25" rx="2.83" ry="1.07" transform="matrix(0.11, -0.99, 0.99, 0.11, 31.49, 237.56)"/><ellipse class="cls-6" cx="147.03" cy="105.8" rx="2.87" ry="1.06" transform="translate(-4.47 205.09) rotate(-68.98)"/><ellipse class="cls-6" cx="145.62" cy="89.91" rx="1.03" ry="2.96" transform="translate(16.7 202.46) rotate(-72.81)"/><ellipse class="cls-6" cx="141.81" cy="87.39" rx="1.07" ry="2.83" transform="translate(-20.59 124.47) rotate(-44.5)"/><ellipse class="cls-6" cx="138.21" cy="84.44" rx="1.06" ry="2.87" transform="translate(-4.86 160.35) rotate(-59.37)"/><ellipse class="cls-6" cx="156.53" cy="85.71" rx="2.96" ry="1.03" transform="translate(2.87 176.48) rotate(-59.28)"/><ellipse class="cls-6" cx="157.66" cy="81.29" rx="2.83" ry="1.07" transform="translate(69.8 235.39) rotate(-87.59)"/><ellipse class="cls-6" cx="158.35" cy="76.69" rx="2.87" ry="1.06" transform="translate(38.08 205.11) rotate(-72.72)"/><ellipse class="cls-5" cx="145.16" cy="84.08" rx="0.57" ry="3.86" transform="translate(-0.57 167.16) rotate(-59.77)"/><ellipse class="cls-3" cx="140.57" cy="79.57" rx="0.57" ry="3.86" transform="translate(-20.94 81.59) rotate(-30.23)"/><ellipse class="cls-5" cx="152.76" cy="81.15" rx="3.86" ry="0.57" transform="matrix(0.3, -0.95, 0.95, 0.3, 29.05, 202.06)"/><ellipse class="cls-3" cx="153.15" cy="74.73" rx="0.57" ry="3.86" transform="translate(-12.09 33.07) rotate(-11.86)"/><path class="cls-1" d="M159.57,95.48c2.14,5.56.9,8.81-1.79,9.84s-5.79-.54-7.93-6.1-2.5-13,.18-14S157.43,89.92,159.57,95.48Z"/><g class="cls-7"><ellipse class="cls-8" cx="151.78" cy="90.4" rx="8.47" ry="7.45" transform="translate(-22.34 60.54) rotate(-21.05)"/><path class="cls-8" d="M161.15,91.15c1.48,3.84-.86,8.31-5.23,10s-9.11-.07-10.59-3.91"/><path class="cls-8" d="M162.4,94.4c1.48,3.85-.86,8.32-5.23,10s-9.11-.07-10.58-3.91"/></g><path class="cls-4" d="M152.56,80.82c-.78-2-3.6-4.43-5.63-3.64s-2.53,4.44-1.74,6.48a3.95,3.95,0,1,0,7.37-2.84Z"/><ellipse class="cls-2" cx="146.74" cy="81.86" rx="1.14" ry="2.1" transform="translate(-13.8 32.25) rotate(-11.98)"/><g class="cls-9"><path d="M146.67,80.61a.44.44,0,0,0-.25.15.76.76,0,0,1,.21.51c0,.32,0,.6-.18.61s-.23-.16-.29-.4a2.65,2.65,0,0,0,.05.67c.16.76.63,1.3,1,1.21s.62-.77.46-1.53S147.08,80.52,146.67,80.61Z"/></g><ellipse class="cls-2" cx="150.19" cy="80.54" rx="1.14" ry="2.1" transform="translate(-20.14 86.2) rotate(-30.11)"/><g class="cls-10"><path d="M149.37,79.42a.43.43,0,0,1,.28,0,.81.81,0,0,0,.19.52c.18.26.43.41.54.33s.06-.27-.06-.49a2.26,2.26,0,0,1,.41.53c.39.67.41,1.38.05,1.6s-1-.17-1.37-.84S149,79.63,149.37,79.42Z"/></g><path class="cls-3" d="M148.82,84.46a1.74,1.74,0,0,0,1.75-.67S150.84,86.71,148.82,84.46Z"/><g class="cls-11"><ellipse class="cls-12" cx="150.28" cy="85.61" rx="0.9" ry="0.83" transform="translate(-20.72 59.68) rotate(-21.05)"/></g></svg>