<svg xmlns="http://www.w3.org/2000/svg" xmlns:xlink="http://www.w3.org/1999/xlink" viewBox="0 0 260 168"><defs><style>.cls-1{fill:#c90505;}.cls-2{fill:#fff;}.cls-3{fill:#8e0303;}.cls-4{fill:#aa0909;}.cls-5{clip-path:url(#clip-path);}.cls-6{fill:#a80202;}.cls-7{fill:#dd0505;}.cls-8{fill:#420202;}.cls-9{fill:#ea1f1f;}.cls-10{fill:#ef3a3a;}.cls-11{fill:#c90706;}.cls-12{clip-path:url(#clip-path-2);}</style><clipPath id="clip-path"><path class="cls-1" d="M162.84,134.05s.29,3.53-7.51,3.78-8.92-1.11-9.06-2.86l14.14,0,2.39-1"/></clipPath><clipPath id="clip-path-2"><ellipse class="cls-2" cx="163.84" cy="133.46" rx="0.55" ry="1.36" transform="translate(-25.5 39.63) rotate(-12.8)"/></clipPath></defs><g id="Layer_1" data-name="Layer 1"><ellipse class="cls-3" cx="160.26" cy="133.95" rx="0.47" ry="1.38" transform="translate(-7.13 258.88) rotate(-76.62)"/><ellipse class="cls-3" cx="161.76" cy="134.85" rx="0.47" ry="1.38" transform="translate(-48.81 138.24) rotate(-40.74)"/><ellipse class="cls-3" cx="163.05" cy="136.93" rx="0.47" ry="1.38" transform="translate(-43.3 84.44) rotate(-25.75)"/><ellipse class="cls-4" cx="153.26" cy="136.4" rx="0.47" ry="1.38" transform="translate(-48.29 174.74) rotate(-52.44)"/><ellipse class="cls-4" cx="154.27" cy="138.31" rx="0.47" ry="1.38" transform="translate(-14.38 17.95) rotate(-6.36)"/><ellipse class="cls-4" cx="154.16" cy="140.75" rx="1.38" ry="0.47" transform="translate(-8.11 272.06) rotate(-81.38)"/><ellipse class="cls-4" cx="156.12" cy="136.86" rx="0.47" ry="1.38" transform="translate(-44.72 189.46) rotate(-55.92)"/><ellipse class="cls-4" cx="157.25" cy="138.71" rx="0.47" ry="1.38" transform="translate(-21.38 28.9) rotate(-9.84)"/><ellipse class="cls-4" cx="157.28" cy="141.15" rx="1.38" ry="0.47" transform="translate(2.59 285.12) rotate(-84.85)"/><ellipse class="cls-3" cx="156.93" cy="134.31" rx="0.47" ry="1.38" transform="translate(-11.98 253.2) rotate(-75.7)"/><ellipse class="cls-3" cx="158.61" cy="135.66" rx="0.47" ry="1.38" transform="translate(-46.32 96.13) rotate(-29.62)"/><ellipse class="cls-3" cx="159.47" cy="137.94" rx="0.47" ry="1.38" transform="translate(-29.68 44.77) rotate(-14.63)"/><ellipse class="cls-4" cx="161.33" cy="137.13" rx="0.47" ry="1.38" transform="translate(-50.35 141.94) rotate(-41.67)"/><ellipse class="cls-4" cx="162.04" cy="138.72" rx="0.47" ry="1.38" transform="translate(-13.15 17.03) rotate(-5.78)"/><ellipse class="cls-4" cx="161.9" cy="141.16" rx="1.38" ry="0.47" transform="translate(-3.34 278.39) rotate(-80.79)"/><ellipse class="cls-4" cx="151.11" cy="137.53" rx="0.32" ry="0.93" transform="translate(-48.15 92.34) rotate(-29.53)"/><ellipse class="cls-4" cx="151.24" cy="138.98" rx="0.93" ry="0.32" transform="translate(-25.06 244.37) rotate(-73.45)"/><ellipse class="cls-4" cx="150.53" cy="140.47" rx="0.93" ry="0.32" transform="translate(-47.92 195.3) rotate(-58.47)"/><path class="cls-1" d="M162.84,134.05s.29,3.53-7.51,3.78-8.92-1.11-9.06-2.86l14.14,0,2.39-1"/><g class="cls-5"><path class="cls-6" d="M163.14,132.81s1,3.28-6.09,4.2-11.11.3-11.52-2.64h0l10-3.92C155.63,130.42,163.14,132.81,163.14,132.81Z"/></g><path class="cls-7" d="M145.48,134.62c0,1.45,1.81,2.53,6.68,2.37s11-1.49,11-2.94-6.27-2.47-11.15-2.32S145.43,133.16,145.48,134.62Z"/><path class="cls-8" d="M157.43,132.13a20.32,20.32,0,0,0-1.05,4.07l-2.92-2.57S156.48,132.05,157.43,132.13Z"/><path class="cls-8" d="M152,133.62s-3.32-1.26-1.69-1.64c0,0-3.86,0-4.61,2.1s2.92,2.57,4.31,2.71C150,136.79,146.79,134.37,152,133.62Z"/><path class="cls-9" d="M157.52,131.92a1.62,1.62,0,0,1,2,0s.13,3.14-1.29,4.28c0,0-1.66.75-1.86,0A9.13,9.13,0,0,1,157.52,131.92Z"/><path class="cls-10" d="M159.53,131.93s2-.24,2.87.93a2.78,2.78,0,0,1-.54,2.25,5.06,5.06,0,0,1-3.33,1A5.42,5.42,0,0,1,159.53,131.93Z"/><ellipse class="cls-7" cx="165.77" cy="133.46" rx="1.75" ry="0.29" transform="translate(-31.29 53.1) rotate(-16.65)"/><ellipse class="cls-8" cx="167.55" cy="131.42" rx="1.75" ry="0.29" transform="translate(7.75 272.16) rotate(-79.48)"/><ellipse class="cls-7" cx="165.49" cy="135.19" rx="0.29" ry="1.75" transform="translate(4.39 275.58) rotate(-80.32)"/><ellipse class="cls-8" cx="167.99" cy="134.16" rx="1.75" ry="0.29" transform="translate(-40.12 188.11) rotate(-53.14)"/><path class="cls-11" d="M166.68,132.89a3.49,3.49,0,0,1-1.35,2c-1.09.7-3.22,1.29-3.43.25S166.33,132.78,166.68,132.89Z"/><path class="cls-7" d="M162,132.25a4.08,4.08,0,0,1,4.67-.11.61.61,0,0,1-.08,1,6,6,0,0,1-4.78,2.12S160.82,133.41,162,132.25Z"/><ellipse class="cls-2" cx="163.84" cy="133.46" rx="0.55" ry="1.36" transform="translate(-25.5 39.63) rotate(-12.8)"/><g class="cls-12"><path d="M163.9,132.76c0,.19.17.33.26.3s.07-.05.09-.12a2.89,2.89,0,0,1,.11.35c.11.52,0,1-.17,1s-.47-.33-.59-.85,0-1,.16-1a.19.19,0,0,1,.13,0A.62.62,0,0,0,163.9,132.76Z"/></g></g></svg>