<svg id="Layer_22" data-name="Layer 22" xmlns="http://www.w3.org/2000/svg" xmlns:xlink="http://www.w3.org/1999/xlink" viewBox="0 0 260 168"><defs><style>.cls-1{fill:#c90505;}.cls-2{fill:#8e0303;}.cls-3{fill:#dd0505;}.cls-4{fill:#420202;}.cls-5{fill:#c90706;}.cls-6{fill:#aa0909;}.cls-7{clip-path:url(#clip-path);}.cls-8{fill:#a80202;}.cls-9{fill:#ea1f1f;}.cls-10{fill:#ef3a3a;}.cls-11{fill:#fff;}</style><clipPath id="clip-path"><path class="cls-1" d="M20.56,53.39s-.2,4.06,8.78,4.06,10.21-1.61,10.3-3.62l-16.24.5-2.79-1"/></clipPath></defs><ellipse class="cls-2" cx="23.52" cy="53.17" rx="1.58" ry="0.54" transform="matrix(0.96, -0.26, 0.26, 0.96, -13.14, 8.04)"/><ellipse class="cls-2" cx="21.83" cy="54.27" rx="1.58" ry="0.54" transform="translate(-34.11 37.19) rotate(-51.11)"/><ellipse class="cls-2" cx="20.44" cy="56.7" rx="1.58" ry="0.54" transform="translate(-39.68 52.41) rotate(-66.1)"/><ellipse class="cls-3" cx="16.88" cy="53.76" rx="0.33" ry="2.01" transform="translate(-38.09 66.14) rotate(-85.25)"/><ellipse class="cls-4" cx="14.39" cy="51.9" rx="0.33" ry="2.01" transform="translate(-18.71 9.41) rotate(-22.43)"/><ellipse class="cls-3" cx="17.61" cy="55.65" rx="2.01" ry="0.33" transform="translate(-19.24 10.38) rotate(-21.59)"/><ellipse class="cls-4" cx="14.54" cy="55.09" rx="0.33" ry="2.01" transform="translate(-36.47 29.71) rotate(-48.76)"/><path class="cls-5" d="M17.07,53.42a3.05,3.05,0,0,0,1.54,1.51c1.07.41,3,.54,3-.41S17.35,53.26,17.07,53.42Z"/><ellipse class="cls-6" cx="30.24" cy="58.34" rx="0.54" ry="1.58"/><ellipse class="cls-6" cx="31.27" cy="60.6" rx="0.54" ry="1.58" transform="translate(-34.07 41.08) rotate(-46.07)"/><ellipse class="cls-6" cx="33.57" cy="62.2" rx="0.54" ry="1.58" transform="translate(-37.11 61.48) rotate(-61.06)"/><ellipse class="cls-6" cx="27.64" cy="58.1" rx="1.58" ry="0.54" transform="translate(-36.48 63.38) rotate(-69.26)"/><ellipse class="cls-6" cx="27.81" cy="60.58" rx="0.54" ry="1.58" transform="translate(-23.25 17.73) rotate(-25.34)"/><ellipse class="cls-6" cx="29.39" cy="62.89" rx="0.54" ry="1.58" transform="translate(-33.71 33.96) rotate(-40.32)"/><ellipse class="cls-2" cx="27.37" cy="53.46" rx="1.58" ry="0.54" transform="translate(-13.79 9.72) rotate(-16.15)"/><ellipse class="cls-2" cx="25.48" cy="55.08" rx="1.58" ry="0.54" transform="translate(-35.13 51.96) rotate(-62.23)"/><ellipse class="cls-2" cx="24.58" cy="57.73" rx="1.58" ry="0.54" transform="translate(-37.16 68.93) rotate(-77.21)"/><ellipse class="cls-6" cx="22.42" cy="56.86" rx="1.58" ry="0.54" transform="translate(-35.61 37.67) rotate(-50.18)"/><ellipse class="cls-6" cx="21.66" cy="58.73" rx="1.58" ry="0.54" transform="translate(-38.41 76.31) rotate(-86.07)"/><ellipse class="cls-6" cx="21.91" cy="61.52" rx="0.54" ry="1.58" transform="translate(-11.39 5.34) rotate(-11.05)"/><ellipse class="cls-6" cx="32.77" cy="57.7" rx="0.37" ry="1.07"/><ellipse class="cls-6" cx="33.46" cy="59.23" rx="0.37" ry="1.07" transform="translate(-32.41 42.24) rotate(-46.07)"/><ellipse class="cls-6" cx="35.02" cy="60.31" rx="0.37" ry="1.07" transform="translate(-34.71 61.77) rotate(-61.06)"/><path class="cls-1" d="M20.56,53.39s-.2,4.06,8.78,4.06,10.21-1.61,10.3-3.62l-16.24.5-2.79-1"/><g class="cls-7"><path class="cls-8" d="M20.18,52s-1,3.81,7.15,4.6,12.77-.06,13.14-3.46h0S29,49,28.84,49,20.18,52,20.18,52Z"/></g><path class="cls-3" d="M40.54,53.39c0,1.67-2,3-7.6,3s-12.72-1.31-12.72-3,7.11-3.07,12.72-3.07S40.54,51.72,40.54,53.39Z"/><path class="cls-4" d="M26.71,51a22.88,22.88,0,0,1,1.36,4.63l3.26-3.06S27.8,50.85,26.71,51Z"/><path class="cls-4" d="M33,52.49s3.77-1.57,1.88-2c0,0,4.43-.17,5.38,2.24S37,55.84,35.38,56.05C35.38,56.05,39,53.16,33,52.49Z"/><path class="cls-9" d="M26.6,50.74a1.83,1.83,0,0,0-2.3.09s-.05,3.61,1.63,4.87c0,0,1.93.79,2.14-.09S27.19,51.42,26.6,50.74Z"/><path class="cls-10" d="M24.3,50.83S22,50.62,21,52c0,0-.25,1.77.72,2.56a5.8,5.8,0,0,0,3.86,1A6.24,6.24,0,0,0,24.3,50.83Z"/><path class="cls-3" d="M21,52a3.61,3.61,0,0,0-4.07.76.54.54,0,0,0,.25.84,5.37,5.37,0,0,0,4.54,1S22.24,52.8,21,52Z"/><circle class="cls-11" cx="19.49" cy="53.45" r="0.76"/><circle cx="19.49" cy="53.45" r="0.61"/><circle class="cls-11" cx="19.16" cy="53.06" r="0.24"/></svg>