<svg id="Layer_14" data-name="Layer 14" xmlns="http://www.w3.org/2000/svg" xmlns:xlink="http://www.w3.org/1999/xlink" viewBox="0 0 260 168"><defs><style>.cls-1{fill:#c90505;}.cls-2{fill:#8e0303;}.cls-3{fill:#dd0505;}.cls-4{fill:#420202;}.cls-5{fill:#c90706;}.cls-6{fill:#aa0909;}.cls-7{clip-path:url(#clip-path);}.cls-8{fill:#a80202;}.cls-9{fill:#ea1f1f;}.cls-10{fill:#ef3a3a;}.cls-11{fill:#fff;}</style><clipPath id="clip-path"><path class="cls-1" d="M112.34,52.68s-.19,4.06,8.78,4.06,10.21-1.6,10.3-3.62l-16.24.5-2.78-1"/></clipPath></defs><ellipse class="cls-2" cx="115.46" cy="52.75" rx="1.58" ry="0.54" transform="translate(-7.7 83.5) rotate(-38.57)"/><ellipse class="cls-2" cx="114.34" cy="54.43" rx="1.58" ry="0.54" transform="translate(31.27 150.01) rotate(-74.46)"/><ellipse class="cls-2" cx="114.02" cy="57.21" rx="1.58" ry="0.54" transform="translate(55.71 170.67) rotate(-89.45)"/><ellipse class="cls-3" cx="108.67" cy="53.06" rx="0.33" ry="2.01" transform="translate(46.8 156.96) rotate(-85.25)"/><ellipse class="cls-4" cx="106.17" cy="51.19" rx="0.33" ry="2.01" transform="translate(-11.5 44.37) rotate(-22.43)"/><ellipse class="cls-3" cx="109.39" cy="54.94" rx="2.01" ry="0.33" transform="translate(-12.54 44.1) rotate(-21.59)"/><ellipse class="cls-4" cx="106.33" cy="54.38" rx="0.33" ry="2.01" transform="translate(-4.65 98.49) rotate(-48.76)"/><path class="cls-5" d="M108.85,52.71a3.05,3.05,0,0,0,1.54,1.51c1.07.41,3,.54,3-.41S109.13,52.55,108.85,52.71Z"/><ellipse class="cls-6" cx="121.53" cy="57.26" rx="1.58" ry="0.54" transform="translate(-4.78 103.01) rotate(-45.14)"/><ellipse class="cls-6" cx="120.67" cy="59.58" rx="0.54" ry="1.58" transform="translate(-1.23 2.57) rotate(-1.21)"/><ellipse class="cls-6" cx="121.17" cy="62.34" rx="0.54" ry="1.58" transform="translate(-12.58 36.28) rotate(-16.2)"/><ellipse class="cls-6" cx="119" cy="56.93" rx="1.58" ry="0.54" transform="translate(-12.62 65.72) rotate(-29.39)"/><ellipse class="cls-6" cx="117.54" cy="58.93" rx="1.58" ry="0.54" transform="translate(30.98 157.91) rotate(-75.46)"/><ellipse class="cls-6" cx="117.27" cy="61.72" rx="0.54" ry="1.58" transform="translate(-0.48 0.92) rotate(-0.45)"/><ellipse class="cls-2" cx="119.65" cy="53.39" rx="1.58" ry="0.54" transform="translate(-3.3 98.66) rotate(-44.26)"/><ellipse class="cls-2" cx="118.75" cy="55.7" rx="0.54" ry="1.58" transform="translate(-0.33 0.7) rotate(-0.34)"/><ellipse class="cls-2" cx="119.21" cy="58.47" rx="0.54" ry="1.58" transform="translate(-11.21 33.58) rotate(-15.32)"/><ellipse class="cls-6" cx="113.76" cy="55.56" rx="1.58" ry="0.54" transform="translate(-12.81 52.78) rotate(-24.77)"/><ellipse class="cls-6" cx="112.28" cy="56.92" rx="1.58" ry="0.54" transform="translate(7.64 126.9) rotate(-60.66)"/><ellipse class="cls-6" cx="111.3" cy="59.55" rx="1.58" ry="0.54" transform="translate(26.01 152.61) rotate(-75.64)"/><ellipse class="cls-6" cx="123.78" cy="56.98" rx="1.07" ry="0.37" transform="translate(0.63 115.31) rotate(-50.07)"/><ellipse class="cls-6" cx="123.33" cy="58.6" rx="0.37" ry="1.07" transform="translate(-5.56 13.53) rotate(-6.14)"/><ellipse class="cls-6" cx="123.83" cy="60.43" rx="0.37" ry="1.07" transform="translate(-13.46 48.69) rotate(-21.13)"/><path class="cls-1" d="M112.34,52.68s-.19,4.06,8.78,4.06,10.21-1.6,10.3-3.62l-16.24.5-2.78-1"/><g class="cls-7"><path class="cls-8" d="M112,51.26s-1,3.81,7.15,4.6,12.77-.06,13.15-3.46h0s-11.51-4.1-11.64-4.13S112,51.26,112,51.26Z"/></g><path class="cls-3" d="M132.32,52.68c0,1.67-2,3-7.59,3S112,54.35,112,52.68s7.11-3.07,12.72-3.07S132.32,51,132.32,52.68Z"/><path class="cls-4" d="M118.49,50.27a23.55,23.55,0,0,1,1.37,4.63l3.25-3.06S119.58,50.14,118.49,50.27Z"/><path class="cls-4" d="M124.76,51.78s3.76-1.57,1.88-1.94c0,0,4.43-.17,5.37,2.23s-3.25,3.07-4.85,3.28C127.16,55.35,130.8,52.45,124.76,51.78Z"/><path class="cls-9" d="M118.39,50a1.86,1.86,0,0,0-2.31.08s0,3.61,1.64,4.87c0,0,1.93.8,2.14-.09S119,50.71,118.39,50Z"/><path class="cls-10" d="M116.08,50.12s-2.27-.21-3.27,1.17c0,0-.26,1.77.71,2.57a5.82,5.82,0,0,0,3.86,1A6.24,6.24,0,0,0,116.08,50.12Z"/><path class="cls-3" d="M112.81,51.29a3.62,3.62,0,0,0-4.08.76.55.55,0,0,0,.26.84,5.33,5.33,0,0,0,4.53,1S114,52.09,112.81,51.29Z"/><circle class="cls-11" cx="111.27" cy="52.74" r="0.76"/><circle cx="111.27" cy="52.75" r="0.61"/><circle class="cls-11" cx="110.94" cy="52.35" r="0.24"/></svg>