<svg id="Layer_1" data-name="Layer 1" xmlns="http://www.w3.org/2000/svg" xmlns:xlink="http://www.w3.org/1999/xlink" viewBox="0 0 260 168"><defs><style>.cls-1{fill:#c90505;}.cls-2{fill:#8e0303;}.cls-3{fill:#dd0505;}.cls-4{fill:#420202;}.cls-5{fill:#c90706;}.cls-6{fill:#aa0909;}.cls-7{clip-path:url(#clip-path);}.cls-8{fill:#a80202;}.cls-9{fill:#ea1f1f;}.cls-10{fill:#ef3a3a;}.cls-11{fill:#fff;}.cls-12{fill:#4c2308;}.cls-13{fill:#f3feff;}.cls-13,.cls-15{opacity:0.63;}.cls-14,.cls-15{fill:#c0f3ff;}.cls-14{opacity:0.4;}</style><clipPath id="clip-path"><path class="cls-1" d="M77.29,128.33s-2.74,3-9.08-3.34-6.08-8.36-4.72-9.85L74.62,127l2.7,1.24"/></clipPath></defs><ellipse class="cls-2" cx="75.63" cy="127.83" rx="0.54" ry="1.58" transform="translate(-53.45 54.35) rotate(-29.74)"/><ellipse class="cls-2" cx="76.05" cy="129.8" rx="1.58" ry="0.54" transform="translate(-61.15 191.51) rotate(-83.85)"/><ellipse class="cls-2" cx="75.32" cy="132.51" rx="1.58" ry="0.54" transform="translate(-75.43 154.99) rotate(-68.87)"/><ellipse class="cls-3" cx="79.62" cy="131.2" rx="0.33" ry="2.01" transform="translate(-71.94 107.1) rotate(-49.71)"/><ellipse class="cls-4" cx="82.7" cy="131.64" rx="2.01" ry="0.33" transform="translate(-44.14 41.76) rotate(-22.54)"/><ellipse class="cls-3" cx="77.77" cy="132.02" rx="0.33" ry="2.01" transform="translate(-46 41.7) rotate(-23.38)"/><ellipse class="cls-4" cx="80.34" cy="133.79" rx="0.33" ry="2.01" transform="translate(-58.47 205.09) rotate(-86.2)"/><path class="cls-5" d="M79.74,130.82a3,3,0,0,1-2.16,0c-1-.47-2.52-1.76-1.85-2.43S79.65,130.51,79.74,130.82Z"/><ellipse class="cls-6" cx="66.95" cy="124.98" rx="1.58" ry="0.54" transform="translate(-68.74 83.86) rotate(-44.96)"/><ellipse class="cls-6" cx="64.62" cy="125.85" rx="0.54" ry="1.58" transform="translate(-62.46 188.02) rotate(-88.89)"/><ellipse class="cls-6" cx="61.86" cy="125.36" rx="0.54" ry="1.58" transform="translate(-75.73 150.04) rotate(-73.9)"/><ellipse class="cls-6" cx="68.95" cy="126.65" rx="1.58" ry="0.54" transform="translate(-74.85 137.38) rotate(-65.7)"/><ellipse class="cls-6" cx="67.08" cy="128.28" rx="1.58" ry="0.54" transform="translate(-39.19 29.99) rotate(-19.63)"/><ellipse class="cls-6" cx="64.33" cy="128.8" rx="1.58" ry="0.54" transform="translate(-10.21 5.63) rotate(-4.64)"/><ellipse class="cls-2" cx="70.64" cy="124.94" rx="0.54" ry="1.58" transform="translate(-51.46 49.51) rotate(-28.81)"/><ellipse class="cls-2" cx="70.83" cy="127.41" rx="1.58" ry="0.54" transform="translate(-71.86 157.24) rotate(-72.74)"/><ellipse class="cls-2" cx="69.59" cy="129.93" rx="1.58" ry="0.54" transform="translate(-77.43 119.45) rotate(-57.75)"/><ellipse class="cls-6" cx="73.52" cy="129.47" rx="1.58" ry="0.54" transform="translate(-62.1 190.91) rotate(-84.78)"/><ellipse class="cls-6" cx="72.73" cy="131.32" rx="1.58" ry="0.54" transform="translate(-74.04 99.8) rotate(-48.9)"/><ellipse class="cls-6" cx="70.58" cy="133.12" rx="1.58" ry="0.54" transform="translate(-62.26 62.02) rotate(-33.91)"/><ellipse class="cls-6" cx="65.61" cy="122.74" rx="1.07" ry="0.37" transform="translate(-67.55 82.26) rotate(-44.96)"/><ellipse class="cls-6" cx="64.04" cy="123.33" rx="0.37" ry="1.07" transform="translate(-60.51 184.96) rotate(-88.89)"/><ellipse class="cls-6" cx="62.17" cy="122.99" rx="0.37" ry="1.07" transform="translate(-73.24 148.63) rotate(-73.9)"/><path class="cls-1" d="M77.29,128.33s-2.74,3-9.08-3.34-6.08-8.36-4.72-9.85L74.62,127l2.7,1.24"/><g class="cls-7"><path class="cls-8" d="M78.56,127.6s-2,3.39-8.3-1.81-9-9.08-6.84-11.75h0s11,5.25,11.13,5.32S78.56,127.6,78.56,127.6Z"/></g><path class="cls-3" d="M63.17,114.19c-1.18,1.18-.71,3.52,3.26,7.49s9.91,8.07,11.09,6.89-2.85-7.2-6.81-11.17S64.35,113,63.17,114.19Z"/><path class="cls-4" d="M74.65,122.27a23.36,23.36,0,0,0-4.25,2.32l-.13-4.47S74,121.41,74.65,122.27Z"/><path class="cls-4" d="M69.15,118.91s-1.55-3.77,0-2.7c0,0-3-3.26-5.38-2.22s.13,4.46,1.11,5.74C64.93,119.73,64.41,115.11,69.15,118.91Z"/><path class="cls-9" d="M74.89,122.18s1.24.06,1.57,1.7c0,0-2.52,2.58-4.6,2.28,0,0-1.93-.8-1.46-1.57S74,122.24,74.89,122.18Z"/><path class="cls-10" d="M76.46,123.88s1.75,1.45,1.48,3.14c0,0-1.07,1.43-2.31,1.31a5.87,5.87,0,0,1-3.45-2A6.23,6.23,0,0,1,76.46,123.88Z"/><path class="cls-3" d="M77.94,127a3.61,3.61,0,0,1,2.34,3.42s-.08.62-.77.41a5.29,5.29,0,0,1-3.88-2.52S76.52,126.73,77.94,127Z"/><circle class="cls-11" cx="78" cy="129.13" r="0.76"/><circle cx="78" cy="129.13" r="0.61"/><circle class="cls-11" cx="78.51" cy="129.09" r="0.24"/><path class="cls-12" d="M64.15,128.48a.81.81,0,0,0-.48-.08A.41.41,0,0,1,64,128c.21-.07.73,0,.82.23S64.37,128.56,64.15,128.48Z"/><path class="cls-12" d="M63.57,129.13a.84.84,0,0,1-.47-.11.41.41,0,0,0,.15.5c.17.14.66.32.84.09S63.8,129.13,63.57,129.13Z"/><path class="cls-12" d="M63.92,128.62l-.17,0h0a.05.05,0,0,0,0,.07.13.13,0,0,0,0,.08.12.12,0,0,0,0,.2.18.18,0,0,0,.22,0,.24.24,0,0,0,.07-.13.16.16,0,0,0-.06-.13"/><path class="cls-12" d="M61.93,122.43a.31.31,0,0,0-.3,0,.2.2,0,0,0,0,.22c.17.33.72.68,1,.27S62.24,122.48,61.93,122.43Z"/><path class="cls-12" d="M62.05,124.75a2.93,2.93,0,0,0-1.1-.08.43.43,0,0,0-.3.18.71.71,0,0,0,.47.37,1.15,1.15,0,0,1,.53.29c.08.1.15.24.28.24s.16-.1.25-.13a.49.49,0,0,1,.24,0,.39.39,0,0,0,.24,0,.15.15,0,0,0,.09-.2s.11,0,.12,0A1.37,1.37,0,0,0,62.05,124.75Z"/><path class="cls-12" d="M70.41,132.48a.38.38,0,0,0-.21,0c-.14,0-.19.23-.29.34a1.12,1.12,0,0,1-.47.25c-.17.08-.33.24-.29.41a.25.25,0,0,0,.19.17.23.23,0,0,0,.23-.11.21.21,0,0,0,.22.09c.17-.06.2-.33.38-.36h.13C70.91,133.37,71,132.63,70.41,132.48Z"/><path class="cls-12" d="M70.11,133.78c-.18.07-.33.23-.52.22a.78.78,0,0,1-.24-.09.27.27,0,0,0-.26,0,.88.88,0,0,0,.56.43.73.73,0,0,0,.94-.28C70.69,133.83,70.31,133.71,70.11,133.78Z"/><path class="cls-13" d="M65,123.17c-.4-1.15-.79-2.31-1.24-3.45a4.49,4.49,0,0,0-.83-1.48,1.62,1.62,0,0,0-1.55-.51,1,1,0,0,0-.68,1.33,5.26,5.26,0,0,0-4.88-1.36,1.52,1.52,0,0,0-1.22.94,1.2,1.2,0,0,0,.12.79c.51,1.12,1.85,1.54,3,1.79a2.64,2.64,0,0,0-1,.35.92.92,0,0,0-.44.92c.09.4.52.63.92.77a6.22,6.22,0,0,0,2.35.31c-.54.26-1.17.71-1,1.28s.6.62,1,.71a8.36,8.36,0,0,0,3.45,0l-.39.43c.67.22,3.26,1.18,3.69.19.19-.44-.47-1-.68-1.34A8.87,8.87,0,0,1,65,123.17Z"/><ellipse class="cls-14" cx="57.18" cy="118.55" rx="1.06" ry="0.45" transform="matrix(1, -0.05, 0.05, 1, -5.87, 3.02)"/><path class="cls-15" d="M64.62,116.46a3.26,3.26,0,0,0-.51-.86.28.28,0,0,0-.13-.09.2.2,0,0,0-.11,0,.74.74,0,0,0-.41.64,1,1,0,0,0,.26.73.89.89,0,0,0,.47.34.55.55,0,0,0,.55-.14.4.4,0,0,0,0-.53"/><path class="cls-13" d="M78.12,120.64a6.29,6.29,0,0,1,2-3.75,1.54,1.54,0,0,1,1.89-.18c.51.47.35,1.3.15,2a6,6,0,0,1,4.81-1.62,1.72,1.72,0,0,1,1.14,3.09,5.31,5.31,0,0,1-2.52,1.78c.61-.17,1.19.59,1,1.21a1.65,1.65,0,0,1-1.48,1,6.22,6.22,0,0,1-1.9-.29,3.29,3.29,0,0,0-1.89,0c.62.28.45,1.3-.14,1.63a2.86,2.86,0,0,1-2,0c-1-.22-2.73,1.19-2.28-.66C77.26,123.45,77.8,122.09,78.12,120.64Z"/><path class="cls-13" d="M75.41,122.57c-.58.24-1,.7-1.61,1s-1.32.35-2,.6a1.61,1.61,0,0,0-1.14,1.52c.09.73.94,1.14,1.68,1.14s1.45-.29,2.19-.33c1.13,0,2.35.47,3.36-.06.79-.42,2.18-2.41,1.23-3.16a6.86,6.86,0,0,0-1.61-.49A2.73,2.73,0,0,0,75.41,122.57Z"/></svg>