<svg id="Layer_6" data-name="Layer 6" xmlns="http://www.w3.org/2000/svg" xmlns:xlink="http://www.w3.org/1999/xlink" viewBox="0 0 260 168"><defs><style>.cls-1{fill:none;}.cls-2{fill:#c90505;}.cls-3{clip-path:url(#clip-path);}.cls-4{fill:#dd0505;}.cls-5{fill:#420202;}.cls-6{fill:#c90706;}.cls-7{clip-path:url(#clip-path-2);}.cls-8{fill:#a80202;}.cls-9{fill:#ea1f1f;}.cls-10{fill:#ef3a3a;}.cls-11{fill:#fff;}</style><clipPath id="clip-path"><path class="cls-1" d="M53.27,132.33s17.09-.88,30.12-.18a70.14,70.14,0,0,0,23.25-2.64l2.29-14.62-6.69-8.8h-34c-3.53,0-13.39,6.34-13.39,6.34l-5.29,6.69Z"/></clipPath><clipPath id="clip-path-2"><path class="cls-2" d="M64.25,127s-2.84,5.87,10.39,11.51,16.06,4.06,17.46,1.14L67.84,130.2l-3.45-3.29"/></clipPath></defs><g class="cls-3"><ellipse class="cls-4" cx="58.6" cy="125.26" rx="0.53" ry="3.22" transform="translate(-79.53 118.53) rotate(-62.14)"/><ellipse class="cls-5" cx="56.09" cy="120.94" rx="3.22" ry="0.53" transform="translate(-65.51 175.58) rotate(-89.32)"/><ellipse class="cls-4" cx="58.47" cy="128.5" rx="0.53" ry="3.22" transform="translate(-71.54 183.54) rotate(-88.48)"/><ellipse class="cls-5" cx="54.31" cy="125.74" rx="0.53" ry="3.22" transform="translate(-49.08 35.9) rotate(-25.65)"/><path class="cls-6" d="M59.08,124.87a4.91,4.91,0,0,0,1.32,3.2c1.32,1.27,4.12,2.69,4.72,1.29S59.6,124.81,59.08,124.87Z"/><path class="cls-2" d="M64.25,127s-2.84,5.87,10.39,11.51,16.06,4.06,17.46,1.14L67.84,130.2l-3.45-3.29"/><g class="cls-7"><path class="cls-8" d="M64.58,124.69s-3.86,5,7.65,11.28,18.87,7.94,21.56,3.16h0s-14.39-13.27-14.56-13.4S64.58,124.69,64.58,124.69Z"/></g><path class="cls-4" d="M93.71,139.59c-1,2.47-4.8,3.15-13.08-.38s-17.93-9.94-16.87-12.4,12.41,0,20.68,3.48S94.76,137.13,93.71,139.59Z"/><path class="cls-5" d="M74.84,127.33a37.5,37.5,0,0,1-.91,7.7l6.72-2.47S76.53,127.83,74.84,127.33Z"/><path class="cls-5" d="M83.12,133.5s6.54.07,4-1.68c0,0,6.65,2.54,6.52,6.68s-6.72,2.47-9.21,1.77C84.42,140.27,91.61,138.29,83.12,133.5Z"/><path class="cls-9" d="M74.83,126.92s-.84-1.81-3.46-1.32c0,0-2.33,5.29-.65,8.2,0,0,2.35,2.4,3.21,1.23S75.27,128.28,74.83,126.92Z"/><path class="cls-10" d="M71.37,125.6s-3.21-1.74-5.57-.33c0,0-1.48,2.44-.55,4.22,0,0,2,3.29,5.06,3.92C70.31,133.41,72.73,129.61,71.37,125.6Z"/><path class="cls-4" d="M65.8,125.27s-2.16-2.83-6.47-1.45a.87.87,0,0,0-.16,1.4,8.56,8.56,0,0,0,6.08,4.27S67.1,127.21,65.8,125.27Z"/><circle class="cls-11" cx="62.63" cy="126.44" r="1.21"/><circle cx="62.63" cy="126.44" r="0.98"/><circle class="cls-11" cx="62.4" cy="125.65" r="0.39"/></g></svg>