<svg id="Layer_1" data-name="Layer 1" xmlns="http://www.w3.org/2000/svg" viewBox="0 0 260 168"><defs><style>.cls-1{fill:#4f2804;}.cls-2{fill:#7f470a;}.cls-3{fill:#b76e1d;}.cls-4{fill:#935914;}</style></defs><rect class="cls-1" x="24.79" y="125.49" width="4.31" height="23.37" rx="2.16"/><rect class="cls-1" x="35.01" y="119.74" width="4.31" height="23.37" rx="2.16"/><rect class="cls-1" x="116.03" y="119.74" width="4.31" height="23.37" rx="2.16"/><rect class="cls-1" x="124.66" y="125.49" width="4.31" height="23.37" rx="2.16"/><path class="cls-2" d="M22.83,123.85H130.22a0,0,0,0,1,0,0v3.85a1.8,1.8,0,0,1-1.8,1.8H24.63a1.8,1.8,0,0,1-1.8-1.8v-3.85A0,0,0,0,1,22.83,123.85Z"/><path class="cls-3" d="M21.78,119.5l11.77-3.87a1.7,1.7,0,0,1,.54-.09H122.8a1.19,1.19,0,0,1,.58.15l7.68,3.82S21.78,119.34,21.78,119.5Z"/><rect class="cls-4" x="19.63" y="119.46" width="113.46" height="5.11" rx="2.56"/></svg>