<svg id="Layer_2" data-name="Layer 2" xmlns="http://www.w3.org/2000/svg" xmlns:xlink="http://www.w3.org/1999/xlink" viewBox="0 0 260 168"><defs><style>.cls-1{fill:#e53c70;}.cls-2{fill:#d3336d;}.cls-3{fill:url(#linear-gradient);}.cls-4{fill:#cc326a;}.cls-5{fill:url(#linear-gradient-2);}.cls-6{clip-path:url(#clip-path);}.cls-7{clip-path:url(#clip-path-2);}.cls-8{clip-path:url(#clip-path-3);}.cls-9{clip-path:url(#clip-path-4);}.cls-10{clip-path:url(#clip-path-5);}.cls-11,.cls-12,.cls-15{opacity:0.81;}.cls-11{fill:url(#linear-gradient-4);}.cls-12{fill:url(#linear-gradient-5);}.cls-13{clip-path:url(#clip-path-6);}.cls-14{clip-path:url(#clip-path-7);}.cls-15{fill:url(#linear-gradient-7);}.cls-16{fill:#e867a2;}.cls-17{fill:#eaeaea;}.cls-18{fill:#ffe600;}.cls-19{fill:#ffb600;}.cls-20{fill:#ffd215;}.cls-21{fill:#ffbf00;}</style><linearGradient id="linear-gradient" x1="150.15" y1="-1.99" x2="150.15" y2="53.54" gradientTransform="translate(0.03)" gradientUnits="userSpaceOnUse"><stop offset="0" stop-color="#65d8f1"/><stop offset="0.03" stop-color="#6edaf2"/><stop offset="0.15" stop-color="#90e3f5"/><stop offset="0.28" stop-color="#adeaf7"/><stop offset="0.43" stop-color="#c3eff9"/><stop offset="0.58" stop-color="#d3f3fb"/><stop offset="0.75" stop-color="#dcf5fc"/><stop offset="1" stop-color="#dff6fc"/></linearGradient><linearGradient id="linear-gradient-2" x1="25.97" y1="8.85" x2="25.97" y2="53.92" xlink:href="#linear-gradient"/><clipPath id="clip-path"><rect class="cls-1" width="260" height="168"/></clipPath><clipPath id="clip-path-2"><path class="cls-2" d="M47.51,6.33H237.66A5.72,5.72,0,0,1,243.37,12V51.54a5.72,5.72,0,0,1-5.72,5.72H44.53A11.89,11.89,0,0,1,32.64,45.36V21.19A14.87,14.87,0,0,1,47.51,6.33Z"/></clipPath><clipPath id="clip-path-3"><rect class="cls-2" x="23.83" y="-13.59" width="252.7" height="168"/></clipPath><clipPath id="clip-path-4"><path class="cls-1" d="M40,5.33H237.16a6.21,6.21,0,0,1,6.21,6.21V50a6.21,6.21,0,0,1-6.21,6.21H40.05a7.41,7.41,0,0,1-7.41-7.41V12.69A7.37,7.37,0,0,1,40,5.33Z"/></clipPath><clipPath id="clip-path-5"><rect class="cls-3" x="23.83" y="-14.59" width="252.7" height="168"/></clipPath><linearGradient id="linear-gradient-4" x1="693.31" y1="179.94" x2="693.31" y2="80.62" gradientTransform="matrix(-1, 0, 0, 1, 969.84, 0)" gradientUnits="userSpaceOnUse"><stop offset="0" stop-color="#e6f5fc"/><stop offset="0.48" stop-color="#eff8fc"/><stop offset="0.54" stop-color="#f1f9fc"/><stop offset="0.99" stop-color="#fff"/></linearGradient><linearGradient id="linear-gradient-5" x1="2118.91" y1="174.85" x2="2118.91" y2="75.53" gradientTransform="translate(-2124.54)" xlink:href="#linear-gradient-4"/><clipPath id="clip-path-6"><polygon class="cls-4" points="24.16 0.06 24.16 106.01 -0.14 114.79 -0.14 0 24.16 0.06"/></clipPath><clipPath id="clip-path-7"><rect class="cls-5" x="-77.82" y="-1.38" width="207.64" height="136.37"/></clipPath><linearGradient id="linear-gradient-7" x1="840.02" y1="156.18" x2="840.02" y2="76.87" xlink:href="#linear-gradient-4"/></defs><rect class="cls-1" width="260" height="168"/><g class="cls-6"><rect class="cls-4" x="27.81" y="-1.7" width="243.22" height="182.19"/></g><path class="cls-2" d="M47.51,6.33H237.66A5.72,5.72,0,0,1,243.37,12V51.54a5.72,5.72,0,0,1-5.72,5.72H44.53A11.89,11.89,0,0,1,32.64,45.36V21.19A14.87,14.87,0,0,1,47.51,6.33Z"/><g class="cls-7"><rect class="cls-2" x="23.83" y="-13.59" width="252.7" height="168"/><g class="cls-8"><path class="cls-2" d="M172.2,139.67c1.58-2.35,3.25-1.93,3.25-1.93,1.66.09,1.49-.75,1.49-.75,1-3.26,5.35-1,5.35-1,1.93-3.18,5.71-1.43,5.71-1.43-1-1.42,1.75-1.59,1.75-1.59a1.56,1.56,0,0,1-1.23-2.25,3.26,3.26,0,0,1-1.08-3.56c1.79-5.32,9.75-2.47,9.75-2.47,6.17-3.79,8,2.09,8,2.09a7.85,7.85,0,0,1,7.56,6.07c4-.76,9,2.46,9,2.46s-12.28-8.15-5.29-10.55c0,0-4.66-6.15,1.25-6.15,0,0-3.94-7.34,2.33-8.88,0,0,.72-4.27,5.56-2.22,0,0-3.76-4.44,0-7.86s3.94,0,3.94,0a3.18,3.18,0,0,1,4.66.69s.9-3.25,3.41-.52a6.83,6.83,0,0,1,2.69-7s2.51-5.29,7,0c0,0,2.33-2,4.3,3.76,0,0,4.3-3.76,5.91,2,0,0,2.87-4.61,4.84.85,0,0,5.2-6.32,10.4-2.39,0,0,2,3.76-1.8,4.78,0,0,4.84.35,1.08,7.18,0,0,1.61-.51,1.43,1.54,0,0,.21-.16.56-.4-.38-1.78.16-3.47,3.61-3.47,0,0-4.88-9.1,2.88-11,0,0,.89-5.29,6.89-2.75,0,0-4.67-5.5,0-9.73s4.88,0,4.88,0a3.94,3.94,0,0,1,5.77.84s1.11-4,4.22-.63c0,0-1.33-5.5,3.33-8.67,0,0,3.11-6.56,8.65,0,0,0,2.89-2.54,5.33,4.65,0,0,5.33-4.66,7.33,2.54,0,0,3.55-5.71,6,1.06,0,0,6.44-7.83,12.88-3,0,0,2.44,4.66-2.22,5.93,0,0,6,.42,1.33,8.88,0,0,2-.63,1.77,1.91,0,0,12-9.1,12,3.8,0,0,6,.85,1.33,8A5.07,5.07,0,0,1,357,115s6.88,4.87-4.67,7.19c0,0,4,2.75-7.54,5.5a3.77,3.77,0,0,1-.89,4.24s6.44-2.75,7.77,2.53c0,0,2.22-2.11,4,.85,0,0,2-4.44,6-1.48,0,0,1-4.44,3.95-3.39,0,0-5.28-3,3.15-4.44,0,0,5.44-4.21,8.1,1.14,0,0,5.31,1.26,3.69,5.91v35.46H188.88c-1.76-1.21-.27-2.38-.27-2.38-.44-1.34,1.32-1.5,1.32-1.5,1.23-2.68,4.12-1,4.12-1,.36-.92,1.76-1,1.76-1-1.23-.34-.61-1.26-.61-1.26-1.32-2.09,1.73-2.84,1.73-2.84.51-2,3.71-.92,3.71-.92,1.84-1.17,3.25.92,3.25.92,2.63-2.34,5.53.42,5.53.42.61-1.51,3.07-1.51,3.07-1.51,1.31-1.5,3,0,3,0,.62-1.34,3.86-1.59,3.86-1.59l-2.19-.76c-2.63-.76-1.67-1.41-1.67-1.41a2.38,2.38,0,0,1-1.14-1.93,3.53,3.53,0,0,1-3.16,2.76c-2.63.17-2.81-.67-2.81-.67a5.66,5.66,0,0,1-5.62.84c-.79-.5.36-1.84.36-1.84-4.31,2.34-5.1-.08-5.1-.08-1.14.58-1.58-.07-1.58-.07-4.47,1.53-3.07,0-3.07,0-1.22-.29-.33-.56-.19-.6a12.16,12.16,0,0,1-4.37.42c-4.22.41-5.62,0-5.62,0a9.22,9.22,0,0,1,3.16-2.1s-4,.84-3.51-1.58a2.58,2.58,0,0,1,2.54-2.35c2.81-2.76,4.74-.75,4.74-.75,1.41-.75,1.85.25,1.85.25a5.13,5.13,0,0,1,5.79.92c.26-1.34,2.55-.92,2.55-.92a2.36,2.36,0,0,1,3.68-1.17c.88-1.51,3.6-1.26,3.6-1.26-4.65-.66-5.18-3.93-5.18-3.93a3.34,3.34,0,0,1-3,2.6c-2.55.25-2.9-.59-2.9-.59-6.32,3.1-4.91-1.25-4.91-1.25-3.69,2.09-5.71-.11-5.71-.11-3.95,1.23-4.3,0-4.3,0-.44-.78-1.58-.38-1.58-.38-4,.94-5.44-.18-5.44-.18C171.93,140.09,172.2,139.67,172.2,139.67Z"/><path class="cls-2" d="M98.7,134.58c-1.58-2.34-3.25-1.93-3.25-1.93-1.67.09-1.49-.75-1.49-.75-1-3.26-5.35-1-5.35-1-1.94-3.18-5.71-1.43-5.71-1.43,1-1.42-1.76-1.58-1.76-1.58a1.57,1.57,0,0,0,1.23-2.26,3.25,3.25,0,0,0,1.09-3.56c-1.79-5.31-9.75-2.47-9.75-2.47-6.17-3.79-8,2.09-8,2.09a7.87,7.87,0,0,0-7.57,6.07c-4-.76-9,2.46-9,2.46s12.28-8.15,5.29-10.55c0,0,4.66-6.14-1.26-6.14,0,0,4-7.35-2.33-8.89,0,0-.71-4.27-5.55-2.22,0,0,3.76-4.44,0-7.86s-3.94,0-3.94,0a3.18,3.18,0,0,0-4.66.69s-.9-3.25-3.41-.51c0,0,1.08-4.44-2.69-7,0,0-2.51-5.29-7,0,0,0-2.33-2-4.3,3.76,0,0-4.3-3.76-5.91,2.05,0,0-2.87-4.61-4.84.85,0,0-5.2-6.32-10.4-2.39,0,0-2,3.76,1.79,4.79,0,0-4.83.34-1.07,7.17,0,0-1.61-.51-1.43,1.54l-.56-.4c.38-1.78-.16-3.47-3.61-3.47,0,0,4.88-9.1-2.89-11,0,0-.88-5.29-6.88-2.75,0,0,4.66-5.5,0-9.73s-4.88,0-4.88,0a3.94,3.94,0,0,0-5.77.84s-1.11-4-4.22-.63c0,0,1.33-5.5-3.33-8.67,0,0-3.11-6.56-8.66,0,0,0-2.88-2.54-5.32,4.65,0,0-5.33-4.65-7.33,2.54,0,0-3.55-5.71-6,1.06,0,0-6.44-7.83-12.88-3,0,0-2.44,4.66,2.22,5.93,0,0-6,.42-1.33,8.88,0,0-2-.63-1.77,1.91,0,0-12-9.1-12,3.81,0,0-6,.84-1.33,8a5.06,5.06,0,0,0,2.88,6.34s-6.88,4.87,4.66,7.19c0,0-4,2.76,7.55,5.51a3.75,3.75,0,0,0,.89,4.23s-6.44-2.75-7.77,2.54c0,0-2.22-2.12-4,.84,0,0-2-4.44-6-1.48,0,0-1-4.44-4-3.38,0,0,5.29-3-3.14-4.45,0,0-5.44-4.21-8.1,1.14,0,0-5.32,1.26-3.69,5.91v35.46H82c1.76-1.21.27-2.38.27-2.38.43-1.33-1.32-1.5-1.32-1.5-1.23-2.68-4.13-1-4.13-1-.35-.92-1.75-1-1.75-1,1.23-.33.61-1.25.61-1.25C77,154.15,74,153.4,74,153.4c-.51-2-3.71-.92-3.71-.92-1.84-1.17-3.25.92-3.25.92-2.63-2.34-5.53.42-5.53.42-.61-1.51-3.07-1.51-3.07-1.51-1.32-1.5-3,0-3,0-.62-1.34-3.87-1.59-3.87-1.59l2.2-.76c2.63-.76,1.67-1.41,1.67-1.41a2.38,2.38,0,0,0,1.14-1.93,3.53,3.53,0,0,0,3.16,2.77c2.63.16,2.81-.67,2.81-.67a5.65,5.65,0,0,0,5.61.83c.79-.5-.35-1.84-.35-1.84,4.3,2.34,5.09-.08,5.09-.08,1.14.58,1.58-.07,1.58-.07,4.48,1.53,3.08,0,3.08,0,1.22-.29.32-.56.19-.6a12.15,12.15,0,0,0,4.37.42c4.21.42,5.62,0,5.62,0a9.14,9.14,0,0,0-3.16-2.09s4,.83,3.51-1.59a2.59,2.59,0,0,0-2.55-2.35c-2.81-2.76-4.74-.75-4.74-.75-1.4-.75-1.84.25-1.84.25a5.13,5.13,0,0,0-5.79.92c-.27-1.34-2.55-.92-2.55-.92a2.37,2.37,0,0,0-3.69-1.17c-.87-1.5-3.59-1.25-3.59-1.25,4.65-.67,5.17-3.94,5.17-3.94a3.35,3.35,0,0,0,3,2.6c2.54.25,2.9-.59,2.9-.59,6.32,3.1,4.91-1.25,4.91-1.25,3.69,2.09,5.71-.11,5.71-.11,3.95,1.23,4.3,0,4.3,0,.44-.78,1.58-.38,1.58-.38,4,.94,5.44-.18,5.44-.18C99,135,98.7,134.58,98.7,134.58Z"/></g></g><path class="cls-1" d="M40,5.33H237.16a6.21,6.21,0,0,1,6.21,6.21V50a6.21,6.21,0,0,1-6.21,6.21H40.05a7.41,7.41,0,0,1-7.41-7.41V12.69A7.37,7.37,0,0,1,40,5.33Z"/><g class="cls-9"><rect class="cls-3" x="23.83" y="-14.59" width="252.7" height="168"/><g class="cls-10"><path class="cls-11" d="M172.2,138.67c1.58-2.35,3.25-1.93,3.25-1.93,1.66.09,1.49-.75,1.49-.75,1-3.26,5.35-1,5.35-1,1.93-3.18,5.71-1.43,5.71-1.43-1-1.42,1.75-1.59,1.75-1.59a1.56,1.56,0,0,1-1.23-2.25,3.26,3.26,0,0,1-1.08-3.56c1.79-5.32,9.75-2.47,9.75-2.47,6.17-3.79,8,2.09,8,2.09a7.85,7.85,0,0,1,7.56,6.07c4-.76,9,2.46,9,2.46s-12.28-8.15-5.29-10.55c0,0-4.66-6.15,1.25-6.15,0,0-3.94-7.34,2.33-8.88,0,0,.72-4.27,5.56-2.22,0,0-3.76-4.44,0-7.86s3.94,0,3.94,0a3.18,3.18,0,0,1,4.66.69s.9-3.25,3.41-.52a6.83,6.83,0,0,1,2.69-7s2.51-5.29,7,0c0,0,2.33-2,4.3,3.76,0,0,4.3-3.76,5.91,2,0,0,2.87-4.61,4.84.85,0,0,5.2-6.32,10.4-2.39,0,0,2,3.76-1.8,4.78,0,0,4.84.35,1.08,7.18,0,0,1.61-.51,1.43,1.54,0,0,.21-.16.56-.4-.38-1.78.16-3.47,3.61-3.47,0,0-4.88-9.1,2.88-11,0,0,.89-5.29,6.89-2.75,0,0-4.67-5.5,0-9.73s4.88,0,4.88,0a3.94,3.94,0,0,1,5.77.84s1.11-4,4.22-.63c0,0-1.33-5.5,3.33-8.67,0,0,3.11-6.56,8.65,0,0,0,2.89-2.54,5.33,4.65,0,0,5.33-4.66,7.33,2.54,0,0,3.55-5.71,6,1.06,0,0,6.44-7.83,12.88-3,0,0,2.44,4.66-2.22,5.93,0,0,6,.42,1.33,8.88,0,0,2-.63,1.77,1.91,0,0,12-9.1,12,3.8,0,0,6,.85,1.33,8A5.07,5.07,0,0,1,357,114s6.88,4.87-4.67,7.19c0,0,4,2.75-7.54,5.5a3.77,3.77,0,0,1-.89,4.24s6.44-2.75,7.77,2.53c0,0,2.22-2.11,4,.85,0,0,2-4.44,6-1.48,0,0,1-4.44,3.95-3.39,0,0-5.28-3,3.15-4.44,0,0,5.44-4.21,8.1,1.14,0,0,5.31,1.26,3.69,5.91v35.46H188.88c-1.76-1.21-.27-2.38-.27-2.38-.44-1.34,1.32-1.5,1.32-1.5,1.23-2.68,4.12-1,4.12-1,.36-.92,1.76-1,1.76-1-1.23-.34-.61-1.26-.61-1.26-1.32-2.09,1.73-2.84,1.73-2.84.51-2,3.71-.92,3.71-.92,1.84-1.17,3.25.92,3.25.92,2.63-2.34,5.53.42,5.53.42.61-1.51,3.07-1.51,3.07-1.51,1.31-1.5,3,0,3,0,.62-1.34,3.86-1.59,3.86-1.59l-2.19-.76c-2.63-.76-1.67-1.41-1.67-1.41a2.38,2.38,0,0,1-1.14-1.93,3.53,3.53,0,0,1-3.16,2.76c-2.63.17-2.81-.67-2.81-.67a5.66,5.66,0,0,1-5.62.84c-.79-.5.36-1.84.36-1.84-4.31,2.34-5.1-.08-5.1-.08-1.14.58-1.58-.07-1.58-.07-4.47,1.53-3.07,0-3.07,0-1.22-.29-.33-.56-.19-.6a12.16,12.16,0,0,1-4.37.42c-4.22.41-5.62,0-5.62,0a9.22,9.22,0,0,1,3.16-2.1s-4,.84-3.51-1.58a2.58,2.58,0,0,1,2.54-2.35c2.81-2.76,4.74-.75,4.74-.75,1.41-.75,1.85.25,1.85.25a5.13,5.13,0,0,1,5.79.92c.26-1.34,2.55-.92,2.55-.92a2.36,2.36,0,0,1,3.68-1.17c.88-1.51,3.6-1.26,3.6-1.26-4.65-.66-5.18-3.93-5.18-3.93a3.34,3.34,0,0,1-3,2.6c-2.55.25-2.9-.59-2.9-.59-6.32,3.1-4.91-1.25-4.91-1.25-3.69,2.09-5.71-.11-5.71-.11-3.95,1.23-4.3,0-4.3,0-.44-.78-1.58-.38-1.58-.38-4,.94-5.44-.18-5.44-.18C171.93,139.09,172.2,138.67,172.2,138.67Z"/><path class="cls-12" d="M98.7,133.58c-1.58-2.34-3.25-1.93-3.25-1.93-1.67.09-1.49-.75-1.49-.75-1-3.26-5.35-1-5.35-1-1.94-3.18-5.71-1.43-5.71-1.43,1-1.42-1.76-1.58-1.76-1.58a1.57,1.57,0,0,0,1.23-2.26,3.25,3.25,0,0,0,1.09-3.56c-1.79-5.31-9.75-2.47-9.75-2.47-6.17-3.79-8,2.09-8,2.09a7.87,7.87,0,0,0-7.57,6.07c-4-.76-9,2.46-9,2.46s12.28-8.15,5.29-10.55c0,0,4.66-6.14-1.26-6.14,0,0,4-7.35-2.33-8.89,0,0-.71-4.27-5.55-2.22,0,0,3.76-4.44,0-7.86s-3.94,0-3.94,0a3.18,3.18,0,0,0-4.66.69s-.9-3.25-3.41-.51c0,0,1.08-4.44-2.69-7,0,0-2.51-5.29-7,0,0,0-2.33-2-4.3,3.76,0,0-4.3-3.76-5.91,2.05,0,0-2.87-4.61-4.84.85,0,0-5.2-6.32-10.4-2.39,0,0-2,3.76,1.79,4.79,0,0-4.83.34-1.07,7.17,0,0-1.61-.51-1.43,1.54l-.56-.4c.38-1.78-.16-3.47-3.61-3.47,0,0,4.88-9.1-2.89-11,0,0-.88-5.29-6.88-2.75,0,0,4.66-5.5,0-9.73s-4.88,0-4.88,0a3.94,3.94,0,0,0-5.77.84s-1.11-4-4.22-.63c0,0,1.33-5.5-3.33-8.67,0,0-3.11-6.56-8.66,0,0,0-2.88-2.54-5.32,4.65,0,0-5.33-4.65-7.33,2.54,0,0-3.55-5.71-6,1.06,0,0-6.44-7.83-12.88-3,0,0-2.44,4.66,2.22,5.93,0,0-6,.42-1.33,8.88,0,0-2-.63-1.77,1.91,0,0-12-9.1-12,3.81,0,0-6,.84-1.33,8a5.06,5.06,0,0,0,2.88,6.34s-6.88,4.87,4.66,7.19c0,0-4,2.76,7.55,5.51a3.75,3.75,0,0,0,.89,4.23s-6.44-2.75-7.77,2.54c0,0-2.22-2.12-4,.84,0,0-2-4.44-6-1.48,0,0-1-4.44-4-3.38,0,0,5.29-3-3.14-4.45,0,0-5.44-4.21-8.1,1.14,0,0-5.32,1.26-3.69,5.91v35.46H82c1.76-1.21.27-2.38.27-2.38.43-1.33-1.32-1.5-1.32-1.5-1.23-2.68-4.13-1-4.13-1-.35-.92-1.75-1-1.75-1,1.23-.33.61-1.25.61-1.25C77,153.15,74,152.4,74,152.4c-.51-2-3.71-.92-3.71-.92-1.84-1.17-3.25.92-3.25.92-2.63-2.34-5.53.42-5.53.42-.61-1.51-3.07-1.51-3.07-1.51-1.32-1.5-3,0-3,0-.62-1.34-3.87-1.59-3.87-1.59l2.2-.76c2.63-.76,1.67-1.41,1.67-1.41a2.38,2.38,0,0,0,1.14-1.93,3.53,3.53,0,0,0,3.16,2.77c2.63.16,2.81-.67,2.81-.67a5.65,5.65,0,0,0,5.61.83c.79-.5-.35-1.84-.35-1.84,4.3,2.34,5.09-.08,5.09-.08,1.14.58,1.58-.07,1.58-.07,4.48,1.53,3.08,0,3.08,0,1.22-.29.32-.56.19-.6a12.15,12.15,0,0,0,4.37.42c4.21.42,5.62,0,5.62,0a9.14,9.14,0,0,0-3.16-2.09s4,.83,3.51-1.59a2.59,2.59,0,0,0-2.55-2.35c-2.81-2.76-4.74-.75-4.74-.75-1.4-.75-1.84.25-1.84.25a5.13,5.13,0,0,0-5.79.92c-.27-1.34-2.55-.92-2.55-.92a2.37,2.37,0,0,0-3.69-1.17c-.87-1.5-3.59-1.25-3.59-1.25,4.65-.67,5.17-3.94,5.17-3.94a3.35,3.35,0,0,0,3,2.6c2.54.25,2.9-.59,2.9-.59,6.32,3.1,4.91-1.25,4.91-1.25,3.69,2.09,5.71-.11,5.71-.11,3.95,1.23,4.3,0,4.3,0,.44-.78,1.58-.38,1.58-.38,4,.94,5.44-.18,5.44-.18C99,134,98.7,133.58,98.7,133.58Z"/></g></g><polygon class="cls-4" points="24.16 0.06 24.16 106.01 -0.14 114.79 -0.14 0 24.16 0.06"/><g class="cls-13"><rect class="cls-5" x="-77.82" y="-1.38" width="207.64" height="136.37"/><g class="cls-14"><path class="cls-15" d="M44.09,123.22c1.3-1.87,2.67-1.54,2.67-1.54,1.37.07,1.22-.6,1.22-.6.8-2.6,4.4-.8,4.4-.8,1.59-2.54,4.69-1.13,4.69-1.13-.79-1.14,1.44-1.27,1.44-1.27a1.25,1.25,0,0,1-1-1.81,2.55,2.55,0,0,1-.89-2.84c1.47-4.24,8-2,8-2,5.07-3,6.54,1.67,6.54,1.67a6.38,6.38,0,0,1,6.22,4.84c3.27-.6,7.36,2,7.36,2s-10.09-6.51-4.35-8.42c0,0-3.83-4.91,1-4.91,0,0-3.24-5.87,1.92-7.09,0,0,.58-3.41,4.56-1.78,0,0-3.09-3.54,0-6.27s3.24,0,3.24,0a2.66,2.66,0,0,1,3.83.55s.74-2.6,2.8-.41a5.38,5.38,0,0,1,2.21-5.6s2.06-4.22,5.74,0c0,0,1.91-1.63,3.53,3,0,0,3.54-3,4.86,1.64,0,0,2.36-3.68,4,.68,0,0,4.27-5,8.54-1.91,0,0,1.62,3-1.47,3.82,0,0,4,.28.88,5.73,0,0,1.33-.41,1.18,1.23,0,0,.17-.13.46-.31-.32-1.43.13-2.78,3-2.78,0,0-4-7.26,2.37-8.78,0,0,.73-4.23,5.66-2.2,0,0-3.83-4.39,0-7.77s4,0,4,0a3.3,3.3,0,0,1,4.74.68s.92-3.21,3.47-.51a6.66,6.66,0,0,1,2.73-6.93s2.56-5.23,7.12,0c0,0,2.37-2,4.38,3.72,0,0,4.37-3.72,6,2,0,0,2.92-4.56,4.93.84,0,0,5.29-6.25,10.58-2.36,0,0,2,3.71-1.83,4.73,0,0,4.93.33,1.1,7.09,0,0,1.64-.5,1.46,1.52,0,0,9.85-7.26,9.85,3,0,0,4.92.68,1.09,6.42a4,4,0,0,1-2.37,5.07s5.65,3.89-3.83,5.74c0,0,3.28,2.2-6.2,4.4a2.94,2.94,0,0,1-.73,3.38s5.29-2.2,6.38,2a2,2,0,0,1,3.29.68s1.67-3.55,4.92-1.18c0,0,.85-3.55,3.25-2.71,0,0-4.34-2.36,2.59-3.54,0,0,4.46-3.37,6.65.9,0,0,4.37,1,3,4.72v28.32H57.79c-1.44-1-.21-1.9-.21-1.9-.37-1.07,1.08-1.2,1.08-1.2,1-2.14,3.39-.8,3.39-.8.29-.74,1.44-.81,1.44-.81-1-.26-.51-1-.51-1-1.08-1.67,1.43-2.27,1.43-2.27.42-1.6,3-.73,3-.73,1.51-.94,2.66.73,2.66.73,2.17-1.87,4.55.34,4.55.34.5-1.21,2.52-1.21,2.52-1.21,1.08-1.2,2.45,0,2.45,0,.51-1.07,3.18-1.27,3.18-1.27L81,135.5c-2.17-.6-1.38-1.12-1.38-1.12a1.89,1.89,0,0,1-.93-1.54,2.87,2.87,0,0,1-2.6,2.2c-2.16.14-2.31-.53-2.31-.53a4.75,4.75,0,0,1-4.61.67c-.65-.4.29-1.47.29-1.47-3.54,1.87-4.19-.07-4.19-.07-.94.47-1.3,0-1.3,0-3.67,1.22-2.52,0-2.52,0-1-.23-.27-.45-.16-.48a10.32,10.32,0,0,1-3.59.33,14.45,14.45,0,0,1-4.62,0,7.59,7.59,0,0,1,2.6-1.67s-3.25.67-2.88-1.27a2.1,2.1,0,0,1,2.09-1.87c2.3-2.2,3.89-.6,3.89-.6,1.16-.6,1.52.2,1.52.2a4.3,4.3,0,0,1,4.76.74c.21-1.07,2.09-.74,2.09-.74a2,2,0,0,1,3-.93c.72-1.21,3-1,3-1-3.82-.53-4.25-3.14-4.25-3.14a2.7,2.7,0,0,1-2.45,2.07c-2.1.21-2.38-.46-2.38-.46-5.2,2.47-4-1-4-1-3,1.67-4.69-.09-4.69-.09-3.25,1-3.53,0-3.53,0-.37-.62-1.3-.3-1.3-.3-3.32.75-4.47-.15-4.47-.15C43.87,123.55,44.09,123.22,44.09,123.22Z"/></g><polygon class="cls-4" points="20.94 -3.02 20.94 106.01 28.25 106.01 28.25 -6.24 20.94 -3.02"/><polygon class="cls-16" points="-10.82 116.4 20.94 106.01 28.98 106.01 -8.04 122.25 -10.82 116.4"/></g><path class="cls-17" d="M34.38,208.77l-1.11-.06c-2.4-.14-4.19-1.74-4-3.58l4.25-42.67c.19-1.83,2.28-3.2,4.68-3.06l1.11.06c2.4.14,4.19,1.74,4,3.57l-4.25,42.68C38.88,207.54,36.78,208.91,34.38,208.77Z"/><path class="cls-17" d="M244.48,208.75l.41,0c2.59-.15,4.53-1.88,4.33-3.86L245,162.73c-.2-2-2.46-3.46-5.05-3.31l-.42,0c-2.59.15-4.53,1.88-4.33,3.86l4.2,42.14C239.62,207.42,241.89,208.9,244.48,208.75Z"/><path class="cls-17" d="M227.27,191.24l1.89,0c2.19,0,4-1.31,4-3l1-43.39c0-1.68-1.71-3.06-3.9-3.08l-1.9,0c-2.19,0-4,1.31-4,3l-1,43.39C223.33,189.83,225.08,191.21,227.27,191.24Z"/><path class="cls-17" d="M49.24,191.24l1.9,0c2.19,0,4-1.31,4-3l1-43.39c0-1.68-1.7-3.06-3.89-3.08l-1.9,0c-2.19,0-4,1.31-4,3l-1,43.39C45.31,189.83,47.05,191.21,49.24,191.24Z"/><path class="cls-18" d="M242.43,77.88c.07-11.13-9.58-12.54-12.62-12.7a58.11,58.11,0,0,0-14.43-2.25c-3.9,0-7.72.92-11.61,1-4.18,0-8.29-.94-12.47-.89s-8.36,1.13-12.49,1.94L165,64.87a25.1,25.1,0,0,0-2.73-.62,37.79,37.79,0,0,0-6.56-.25c-11.83.18-23.67-.15-35.45-1a93.13,93.13,0,0,0-12.27-.4c-4.81.3-9.52,1.42-14.34,1.39-4.56,0-9-1.12-13.57-1.37a74.74,74.74,0,0,0-9.81.31l-19,1.44h-1.6c-5.58,0-10.16,3.41-10.44,7.75A13.59,13.59,0,0,0,37.22,76a24.71,24.71,0,0,0-1,6.08c-.57,7.86-1.13,15.78.26,23.58,1,5.43,2.89,10.91,1.69,16.32a34.8,34.8,0,0,0-.93,4.11,15.4,15.4,0,0,0,.63,4.93l.93,3.95-.06,9.73c0,4.5,4.6,8.18,10.34,8.2l178.88.76c5.42,0,12.23,1.35,13-2.28l.1.11S242.33,91.09,242.43,77.88Z"/><path class="cls-19" d="M77.67,85.06c-2.14,8.17-4.28,16.37-4.88,24.7s.38,16.84,4.31,24.59a75.49,75.49,0,0,0,5.2-37.21c-.5-4.24-1.4-8.54-4-12.27"/><path class="cls-19" d="M131,85.29c-2.14,8.17-4.28,16.37-4.88,24.7s.38,16.84,4.31,24.58a75.46,75.46,0,0,0,5.2-37.21c-.5-4.23-1.4-8.54-4-12.27"/><path class="cls-19" d="M192.16,85.55c-2.14,8.17-4.28,16.37-4.89,24.7s.38,16.84,4.32,24.58a75.34,75.34,0,0,0,5.19-37.21c-.49-4.23-1.39-8.53-4-12.26"/><path class="cls-20" d="M15.84,161.65,39.47,149.9H241l21.52,11.92S31.66,162.4,15.84,161.65Z"/><rect class="cls-21" x="11.28" y="160.88" width="254.28" height="22.98" rx="7.96"/></svg>