<svg id="Layer_1" data-name="Layer 1" xmlns="http://www.w3.org/2000/svg" xmlns:xlink="http://www.w3.org/1999/xlink" viewBox="0 0 260 168"><defs><style>.cls-1{fill:#5d9311;}.cls-2{fill:#65ad12;}.cls-3{fill:#fff;}.cls-4{clip-path:url(#clip-path);}.cls-5{fill:#4c7707;opacity:0.53;}.cls-6{fill:#8bc931;}.cls-7{fill:#64a511;}.cls-8{clip-path:url(#clip-path-2);}.cls-9{fill:#7dc422;}.cls-10{fill:#dbf257;}</style><clipPath id="clip-path"><path class="cls-1" d="M47.13,57s1.44-3.67,7.78-2.12c0,0,5.84-4.55,12.23-.38,0,0,9.78-3.51,11.06,4.44L69.37,64.4,54.68,63.07l-7.19-1.23Z"/></clipPath><clipPath id="clip-path-2"><path class="cls-2" d="M52.85,57.07A5.54,5.54,0,0,0,48,60.78c-1.3,3.62.52,24,7.45,29.14,6.48,4.81,12.66-.87,12.66-.87s3.74,2.15,7.68-3.15c4.47-6,5.37-18.15,4.89-22.81C80,56,75.22,56,71.76,58.8c0,0-1.86-2.72-6.33-2.78s-4.17,1.38-6.1,1.64S57.87,56.71,52.85,57.07Z"/></clipPath></defs><path class="cls-3" d="M70.07,37.33a28.06,28.06,0,0,0-13.2-3.12c-6.9,0-13,2.22-16.87,5.65-10.21.89-18.12,6.67-18.32,13.71-6,3-10.06,8.3-10.06,14.39,0,7.32,5.83,13.55,14,15.88,0,.26,0,.52,0,.78A14.09,14.09,0,0,0,46.83,96.76c3.77,3.83,10.25,6.36,17.62,6.36,8.54,0,15.89-3.4,19.2-8.29,10.74-.65,19.15-6.69,19.15-14,0-.33,0-.65,0-1,.25-.35.5-.7.73-1.06,4.28-3.09,7-7.56,7-12.53,0-5.47-3.26-10.33-8.3-13.41a37.74,37.74,0,0,0-12.64-9.89,14.11,14.11,0,0,0-11.56-6,14,14,0,0,0-4.81.86C72.13,37.58,71.1,37.44,70.07,37.33Z"/><ellipse class="cls-3" cx="110.34" cy="79.15" rx="4.06" ry="3"/><path class="cls-1" d="M47.13,57s1.44-3.67,7.78-2.12c0,0,5.84-4.55,12.23-.38,0,0,9.78-3.51,11.06,4.44L69.37,64.4,54.68,63.07l-7.19-1.23Z"/><g class="cls-4"><path class="cls-5" d="M56.1,56.81c.93-.13,1.85-.35,2.78-.49a34.4,34.4,0,0,1,4.19-.26l3-.07a11.71,11.71,0,0,1,2.9.19,8.25,8.25,0,0,0,1.53.35c.37,0,.74,0,1.1-.05a4.06,4.06,0,0,1,3.72,6A6.63,6.63,0,0,1,72,65.15c-5.48,2.44-11.87,2-17.61.25-2.23-.68-5.57-2.92-5.39-5.66C49.18,56.63,54,57.1,56.1,56.81Z"/></g><path class="cls-6" d="M59.18,57.42c-.29-3.45-.3-11.94,6.46-13.65a1.47,1.47,0,0,1,1.83,1.43v1.2a1.46,1.46,0,0,1-1,1.37c-1.4.48-3.73,2.33-3.3,9.36a1.46,1.46,0,0,1-1.34,1.54l-1,.09A1.46,1.46,0,0,1,59.18,57.42Z"/><path class="cls-7" d="M49.56,57.81s-4.22-3.11-6,2.51,0,27.3,12.26,29.6V67Z"/><path class="cls-2" d="M52.85,57.07A5.54,5.54,0,0,0,48,60.78c-1.3,3.62.52,24,7.45,29.14,6.48,4.81,12.66-.87,12.66-.87s3.74,2.15,7.68-3.15c4.47-6,5.37-18.15,4.89-22.81C80,56,75.22,56,71.76,58.8c0,0-1.86-2.72-6.33-2.78s-4.17,1.38-6.1,1.64S57.87,56.71,52.85,57.07Z"/><g class="cls-8"><path class="cls-7" d="M70.37,52.39A55.91,55.91,0,0,1,71.6,77c-2.22,13.62-6.08,15.12-6.08,15.12l11.66-1.33,7.67-35.93Z"/></g><ellipse class="cls-9" cx="52.19" cy="58.89" rx="2.35" ry="0.7" transform="translate(-19.41 26.24) rotate(-23.94)"/><circle class="cls-9" cx="49.79" cy="61.73" r="0.95"/><path class="cls-10" d="M59.5,57s-1.06-10.79,6-12.79c0,0,.7-.1.33.28a7.58,7.58,0,0,0-5.17,7.23C60.54,57,60,57.84,59.5,57Z"/><ellipse class="cls-9" cx="67.47" cy="59.26" rx="1.95" ry="2.32"/><ellipse class="cls-9" cx="76.98" cy="59.78" rx="1.22" ry="1.51" transform="translate(-11.55 19) rotate(-13.1)"/><ellipse class="cls-9" cx="46.48" cy="60.79" rx="1.56" ry="0.96" transform="translate(-24.94 88.25) rotate(-73.63)"/></svg>