<svg id="Layer_3" data-name="Layer 3" xmlns="http://www.w3.org/2000/svg" xmlns:xlink="http://www.w3.org/1999/xlink" viewBox="0 0 260 168"><defs><style>.cls-1{fill:#5d9311;}.cls-2{fill:#65ad12;}.cls-3{fill:#fff;}.cls-4{clip-path:url(#clip-path);}.cls-5{fill:#4c7707;opacity:0.53;}.cls-6{fill:#8bc931;}.cls-7{fill:#64a511;}.cls-8{clip-path:url(#clip-path-2);}.cls-9{fill:#7dc422;}.cls-10{fill:#dbf257;}</style><clipPath id="clip-path"><path class="cls-1" d="M41.58,62.21s.69-3.88,7.21-3.6c0,0,4.84-5.61,11.92-2.78,0,0,8.9-5.36,11.72,2.19l-7.59,7.14L50.19,66.73l-7.3.21Z"/></clipPath><clipPath id="clip-path-2"><path class="cls-2" d="M47.21,61.21a5.5,5.5,0,0,0-4,4.58c-.57,3.81,5.21,23.43,13,27.11,7.29,3.45,12.24-3.33,12.24-3.33S72.56,91,75.38,85c3.2-6.77,1.7-18.86.32-23.34-2.09-6.78-6.76-5.85-9.6-2.44,0,0-2.36-2.31-6.76-1.49s-3.82,2.17-5.66,2.8S52.06,59.87,47.21,61.21Z"/></clipPath></defs><path class="cls-3" d="M70.07,37.33a28.06,28.06,0,0,0-13.2-3.12c-6.9,0-13,2.22-16.87,5.65-10.21.89-18.12,6.67-18.32,13.71-6,3-10.06,8.3-10.06,14.39,0,7.32,5.83,13.55,14,15.88,0,.26,0,.52,0,.78A14.09,14.09,0,0,0,46.83,96.76c3.77,3.83,10.25,6.36,17.62,6.36,8.54,0,15.89-3.4,19.2-8.29,10.74-.65,19.15-6.69,19.15-14,0-.33,0-.65,0-1,.25-.35.5-.7.73-1.06,4.28-3.09,7-7.56,7-12.53,0-5.47-3.26-10.33-8.3-13.41a37.74,37.74,0,0,0-12.64-9.89,14.11,14.11,0,0,0-11.56-6,14,14,0,0,0-4.81.86C72.13,37.58,71.1,37.44,70.07,37.33Z"/><ellipse class="cls-3" cx="110.34" cy="79.15" rx="4.06" ry="3"/><path class="cls-1" d="M41.58,62.21s.69-3.88,7.21-3.6c0,0,4.84-5.61,11.92-2.78,0,0,8.9-5.36,11.72,2.19l-7.59,7.14L50.19,66.73l-7.3.21Z"/><g class="cls-4"><path class="cls-5" d="M50.35,60.31c.89-.31,1.74-.7,2.62-1A33.4,33.4,0,0,1,57,58.21L60,57.56a11.14,11.14,0,0,1,2.87-.38,9.18,9.18,0,0,0,1.57,0c.37,0,.72-.19,1.08-.27a4.07,4.07,0,0,1,4.82,5.17,6.69,6.69,0,0,1-2.74,3.26c-4.9,3.46-11.26,4.27-17.23,3.69-2.32-.22-6-1.76-6.39-4.49C43.53,61.5,48.33,61,50.35,60.31Z"/></g><path class="cls-6" d="M53.49,60.31c-1-3.32-2.64-11.65,3.65-14.65a1.47,1.47,0,0,1,2.08,1l.24,1.17a1.48,1.48,0,0,1-.72,1.55c-1.29.74-3.21,3-1.41,9.82a1.46,1.46,0,0,1-1,1.78l-1,.29A1.47,1.47,0,0,1,53.49,60.31Z"/><path class="cls-7" d="M44.13,62.57s-4.75-2.22-5.39,3.64S44.06,93,56.57,92.83L52.08,70.38Z"/><path class="cls-2" d="M47.21,61.21a5.5,5.5,0,0,0-4,4.58c-.57,3.81,5.21,23.43,13,27.11,7.29,3.45,12.24-3.33,12.24-3.33S72.56,91,75.38,85c3.2-6.77,1.7-18.86.32-23.34-2.09-6.78-6.76-5.85-9.6-2.44,0,0-2.36-2.31-6.76-1.49s-3.82,2.17-5.66,2.8S52.06,59.87,47.21,61.21Z"/><g class="cls-8"><path class="cls-7" d="M63.47,53.18A56,56,0,0,1,69.5,77c.49,13.8-3,16-3,16l11.18-3.6.48-36.73Z"/></g><ellipse class="cls-9" cx="46.92" cy="63.12" rx="2.35" ry="0.7" transform="translate(-27.82 38.65) rotate(-35.25)"/><circle class="cls-9" cx="45.12" cy="66.38" r="0.95"/><path class="cls-10" d="M53.71,59.78S50.56,49.41,57,46.07c0,0,.67-.23.39.21s-4.72,2.42-3.66,8.1C54.73,59.58,54.35,60.56,53.71,59.78Z"/><ellipse class="cls-9" cx="61.98" cy="60.49" rx="1.95" ry="2.32" transform="translate(-10.66 13.33) rotate(-11.31)"/><ellipse class="cls-9" cx="71.41" cy="59.13" rx="1.22" ry="1.51" transform="translate(-18.05 34.79) rotate(-24.41)"/><ellipse class="cls-9" cx="41.7" cy="66.1" rx="1.56" ry="0.96" transform="translate(-27.82 101.79) rotate(-84.93)"/></svg>