<svg xmlns="http://www.w3.org/2000/svg" viewBox="0 0 102.88 79">
  <defs>
    <style>
      .cls-1 {
        fill: #ff7300;
      }

      .cls-2 {
        fill: #ff9300;
      }

      .cls-3 {
        fill: #f7931e;
        opacity: 0.14;
      }
    </style>
  </defs>
  <title>p21</title>
  <g id="character">
    <path class="cls-1" d="M97.46,51.48c2.05-13.84-15.29-16.53-25-16.82L72.62,36c9.61-3.18,19.78-6.84,26-15.28,2-2.7,4.24-6.68,4.22-10.18,0-3.13-2.38-4.64-4.86-6.06C83.84-3.69,64.85-.32,53.94,11.66l1.13.3A16,16,0,0,0,37.94.84c-.86.09-.86,1.44,0,1.35A14.69,14.69,0,0,1,53.77,12.31a.67.67,0,0,0,1.12.3,35.26,35.26,0,0,1,37-9.44c4.29,1.48,8.93,3.53,9.43,8.75.35,3.61-4.32,9-6.62,11.26-6.14,6-14.47,8.86-22.45,11.5A.68.68,0,0,0,72.44,36c8.75.26,25.62,2.29,23.72,15.11-.12.85,1.18,1.22,1.3.36Z"/>
    <path class="cls-1" d="M47.25,20.86C48,10.51,38.78,4.32,29.6,2.73,20.68,1.17,8.36,1,2.38,9.08S2.67,25.53,10,29.92a33.22,33.22,0,0,0,29.38,2.13c.67-.26.64-1.33-.18-1.32C30.53,30.8,21,32,14.43,38.18c-5,4.7-8,12.49-5.36,19.15,2.6,6.49,10.12,10,16.85,8.8,7.52-1.31,12.75-7.65,14.61-14.74.19-.72-.88-1.23-1.23-.53-6.1,12,1.14,27,15.1,28.09,6.61.52,9.69-3.12,10.44-9.47a22.32,22.32,0,0,0-6.47-18.24c-.61-.62-1.57.34-1,1a21.07,21.07,0,0,1,6.21,13.68c.12,2.19.1,5-.86,7-2.54,5.33-6.8,5.38-11.11,4.3C40.26,74.29,35.31,61.74,40.47,51.55L39.23,51C37.41,57.93,32.12,64.26,24.61,65,17.31,65.62,10,60.59,9.46,53,8.27,37,26.75,32.18,39.17,32.08L39,30.75a32.07,32.07,0,0,1-21.66,1C9.22,29.2-3,21,2.73,11c4.82-8.4,16.54-8.26,24.91-7.17,9.07,1.19,19,6.51,18.26,17-.06.86,1.29.86,1.35,0Z"/>
    <path class="cls-2" d="M71.34,33.36C65.72,28.2,59.13,23.07,51.16,22.88c-6.44-.15-14.39,3.4-16.81,9.79S38,44.37,43.2,47a23.38,23.38,0,0,0,19.42,1c5.69-2.39,10.11-7.3,10.65-13.6.49-5.75-2.28-11.7-7.75-14-7.39-3.16-17.61-.51-24.81,2-5.88,2-12,5.47-11.12,12.64s7.8,12.54,14.3,14.44c8.21,2.39,16.67-.24,22.63-6.18a.68.68,0,0,0-1-1C60,47.85,52,50.38,44.25,48.1c-6.53-1.93-15.59-9.08-13.08-17s16.59-9.82,23.46-10.49C62.38,19.87,70.3,22,71.74,30.72c1.26,7.67-3.88,14.13-11,16.51A22.52,22.52,0,0,1,40,43.33c-4.67-3.65-6.62-9-1.83-13.95a17.72,17.72,0,0,1,12.18-5.17c7.92-.09,14.46,5,20,10.11.64.58,1.6-.37,1-1Z"/>
    <g>
      <path class="cls-3" d="M65.07,37.83a22.63,22.63,0,0,1-4.73,2.4q-2.48,1-5,2a42.08,42.08,0,0,0-6.28,3.51l2.9.31L66.41,34.76c.08-.07-1-.89-1.21-.77L61,36.36a49,49,0,0,1-6.6,2.56A108,108,0,0,1,43.1,41.83l2.33.79L55,38.48q6.51-3.28,13.16-6.3l1.54-.7a11.69,11.69,0,0,0,4-2.47c.38-.27-.65-.19-.79-.11l-5.58,3a64.13,64.13,0,0,1-10,3.66,125.25,125.25,0,0,1-16.73,3.63l1.35.69q11.9-7.22,24-14.08c.14-.09.26-.51,0-.41a153.46,153.46,0,0,1-16.8,6,125.29,125.29,0,0,1-17,3.36l1.71.82a77.7,77.7,0,0,1,15.59-6.8,85.11,85.11,0,0,0,11.59-5c.18-.09-1-.27-1.13-.22q-8.35,7.56-12.17,1a20.13,20.13,0,0,1,5.09-1c4.41-.47,8.79.38,13.17.8.33,0-.38-.47-.28-.38a2.51,2.51,0,0,0-1.15-.52c-6.33-.4-11.82-1.19-17.86,1a35,35,0,0,0-8.8,4.87c-.05,0-.15.25,0,.21q11.58-2.59,23-5.69l-1.13-.22a89.77,89.77,0,0,1-15.33,6.48c-4.22,1.38-8.25,2.9-12.33,4.65-.19.09,1.29.92,1.64.86a123,123,0,0,0,16.39-3.75,161.28,161.28,0,0,0,15.73-6.1v-.41q-12.54,7.13-25.33,13.8c-.24.13,1.09.74,1.35.69,4.3-.84,8.56-1.67,12.76-2.92a118.47,118.47,0,0,0,19-7.92l-.79-.11-2.22,1.74Q67.85,31.85,65,32.88a36.54,36.54,0,0,0-5.42,2.44A123.91,123.91,0,0,1,43.1,41.83c-.35.13.62.39.55.37a4.3,4.3,0,0,0,1.78.42,90.45,90.45,0,0,0,11-3.11c1.42-.48,2.81-1,4.18-1.65a26.45,26.45,0,0,0,5.78-3.06L65.13,34,49,45.8l1.13.24c.43,0,1.37.3,1.76.07,5.1-3,10.63-4.85,15.78-7.66.33-.18-.69-.34-.64-.32C66.67,38,65.45,37.62,65.07,37.83Z"/>
      <path class="cls-3" d="M65.55,38.74A72.29,72.29,0,0,1,56,43.1a26.88,26.88,0,0,0-6.37,3.55l3.62.33L67.88,36c-.06.05-1.63-1.3-2.08-1a53,53,0,0,1-13,5.58q-4.5,1.27-9.09,2.17l2.91.95C56,40,65.63,36.53,73.39,30c.22-.19-.38-.09-.41-.09a4.67,4.67,0,0,0-1.55.44,53.7,53.7,0,0,1-16.86,7.18,110.89,110.89,0,0,1-13.38,2.6l2.14.92A244.48,244.48,0,0,0,65.68,27.7c.2-.12.61-1.23.37-1.12l-6.3,2.72q-4.94,1.72-10,3.05a131.93,131.93,0,0,1-17.06,3.37l2.36,1.09A22.35,22.35,0,0,1,40.67,34a24.29,24.29,0,0,0,5.78-2.85l5.21-2.31a55.37,55.37,0,0,0,9.05-4.27c.35-.18-.76-.24-.63-.23a5.22,5.22,0,0,0-1.89,0q-10.08,3.13-20.25,6v.54a17.61,17.61,0,0,1,15-5.17,31.53,31.53,0,0,1,12.88-.76c.47,0-.81-.67-.63-.57A6.07,6.07,0,0,0,63,23.32c-2.68,0-5.45-.26-8.13-.13a25.83,25.83,0,0,0-8.09,1.72,32.28,32.28,0,0,0-8.86,5.45c-.07.06-.3.61,0,.53q11.35-3.39,22.84-6.31l-2.52-.23a79.76,79.76,0,0,1-11.13,6l-4.54,1.69a68.26,68.26,0,0,0-9.89,3.67,6.28,6.28,0,0,0,.88.54c.37.17,1.06.63,1.48.55a137.48,137.48,0,0,0,16.64-3.75c2.07-.61,4.13-1.25,6.19-1.9a25.19,25.19,0,0,0,7.86-3.49l.37-1.12q-12.24,7.2-24.94,13.58c.14-.07,1.73,1,2.14.92a108.62,108.62,0,0,0,15.88-4,17.15,17.15,0,0,0,5.37-2.43,97.63,97.63,0,0,1,8.73-4.55l-2,.36a88.13,88.13,0,0,1-27.56,12.3c-.39.13.78.43.7.4a5.63,5.63,0,0,0,2.21.55A91.2,91.2,0,0,0,59.9,39.86a62,62,0,0,0,8-3.82L65.8,35,49.61,46.65s1.19.25,1.37.27c.52,0,1.67.39,2.14.12,5.15-2.89,10.71-4.85,15.89-7.66l-1.7-.46C66.93,38.85,66,38.52,65.55,38.74Z"/>
      <path class="cls-3" d="M64.79,37.2a68,68,0,0,1-8,3.71,43.34,43.34,0,0,0-7.92,4.16l2.29.27L65.54,33.85c.14-.12-.56-.63-.7-.55l-4.16,2.37a46.92,46.92,0,0,1-6.58,2.56,109,109,0,0,1-11.27,2.92l1.87.62q7.59-3.23,15-6.78a36.61,36.61,0,0,1,8.79-3.62,24.46,24.46,0,0,0,5.55-3c.19-.13-.16-.26-.28-.21a85.14,85.14,0,0,1-23.62,8.49,85.34,85.34,0,0,1-9.93,1.79l1,.5q12.45-7.2,25-14.12c.15-.09-.17-.13-.24-.1a180.09,180.09,0,0,1-17.19,6,128.83,128.83,0,0,1-17,3.34L33,34.7a35,35,0,0,1,6.91-3.29,58.7,58.7,0,0,1,7.44-2.53l4.92-1.57a53.9,53.9,0,0,0,9-4.06c.35-.18-.34-.34-.48-.3Q54,27.39,46.92,25.57q-6.8-.78,4.66-2.38c4.94-.5,9.78.33,14.67.84.44,0-.36-.56-.55-.58-6.05-.56-12-1.67-17.91.25a48.5,48.5,0,0,0-10.26,4.94c-.12.07,0,.27.14.24q11.88-2.52,23.63-5.63l-.48-.3a40,40,0,0,1-6.47,3.17,44.38,44.38,0,0,1-7.08,2.49l-4.94,1.57a71.56,71.56,0,0,0-10.51,3.87c-.25.1,1,.69,1.21.65a130.54,130.54,0,0,0,16.28-3.59A75.38,75.38,0,0,0,59,27.72,97.29,97.29,0,0,1,40.25,38.45c-.27.15.77.53,1,.5a124.94,124.94,0,0,0,19-4.72A121.07,121.07,0,0,0,74,28.41l-.27-.2a21.25,21.25,0,0,1-8.67,3.89,203.26,203.26,0,0,1-22.25,9,4.48,4.48,0,0,0,1.87.62,91.44,91.44,0,0,0,10.86-3.11A39.4,39.4,0,0,0,59.73,37a25.56,25.56,0,0,0,5.75-3.1l-.64-.59-16,11.77a5.09,5.09,0,0,0,2.29.27,63.19,63.19,0,0,1,7.78-4c2.73-1.15,5.31-2.25,7.93-3.66C66.91,37.68,65.2,37,64.79,37.2Z"/>
      <path class="cls-3" d="M65.59,39.91a68.59,68.59,0,0,1-8.06,3.76,43.21,43.21,0,0,0-8,4.19l5.23.65L69.7,37.77a17.06,17.06,0,0,0-1.86-.94c-.25-.1-1.62-.88-2-.67a40.24,40.24,0,0,1-8.53,4.26A86.18,86.18,0,0,1,43.62,44l4.56,1.35c7-2.47,14-4.77,20.72-8,1.53-.74,2-1.55,3-3a20.6,20.6,0,0,0,1.1-1.8,4.37,4.37,0,0,0,.27-.68l-7,3a36,36,0,0,1-9,3.75c-5.12,1.6-10.56,2.08-15.86,2.85L44.91,43q11.18-5.34,22-11.41c.42-.22-.67-3.27-.67-3.27a45.25,45.25,0,0,1-9.76,3.72,133.47,133.47,0,0,1-23.74,5l3.82,1.7,3.84-1.57a12.15,12.15,0,0,0,5.39-1.69c.79-.43,1.58-.84,2.38-1.23a39.09,39.09,0,0,0,11.58-8.53c.41-.28-1.23-.12-1.07-.12a15.71,15.71,0,0,0-3.06.29,143.45,143.45,0,0,0-19.8,5.8l.79-.06c4.67-3.06,9.56-5.53,15.13-6.33,4.44-.63,8.86.13,13.3.46.14,0,.19,0,.06-.12a7.48,7.48,0,0,0-1.63-.93c-.74-.39-2-1.42-2.93-1.37-2.69.16-5.37.28-8.06.35a28.86,28.86,0,0,0-6.59,1.68,49.73,49.73,0,0,0-12.16,7.14c-.27.2.38.06.3.08Q46.79,29,59.71,25.77L55.47,26a23.55,23.55,0,0,1-12.76,7.53,74.38,74.38,0,0,0-10,3.54l1.85,1c.45.2,1.41.81,2,.72,13.27-2.3.19,0,13.44-2.7l6.6-1.27a18.23,18.23,0,0,0,10.31-3.2l-.67-3.27q-12.37,6.78-25,13.15s1.2.65,1.36.72c.56.24,1.58.92,2.2.83l6.51-.9a9.26,9.26,0,0,0,7.09-.53,7.55,7.55,0,0,0,3.69-2.41,13.81,13.81,0,0,1,9.12-4.06l1.92-3.24a14.55,14.55,0,0,1-7.41,3.53A197.91,197.91,0,0,1,43.62,44c.13,0,2.14.79,2.24.82a5.82,5.82,0,0,0,2.32.53,109.5,109.5,0,0,0,11.28-3A60.71,60.71,0,0,0,69.7,37.77l-3.84-1.61L49.57,47.86c.08,0,2.55.46,2.6.47.52.07,2.07.49,2.63.18,5.19-2.88,10.77-4.84,16-7.65a24.85,24.85,0,0,1-2.58-.62C67.75,40.15,66.12,39.61,65.59,39.91Z"/>
      <path class="cls-3" d="M65.39,39.08a43.39,43.39,0,0,1-9.71,4.4A26.49,26.49,0,0,0,49.41,47l4.26.42L68.29,36.59c-.16.12-2.09-1.57-2.65-1.26a44.06,44.06,0,0,1-13,5.61q-4.52,1.28-9.11,2.16l3.55,1.06a99.64,99.64,0,0,0,14.62-6,19.65,19.65,0,0,0,6.52-3.53c1.65-1.3,3.2-2.72,4.76-4.12.23-.21-.46,0-.46,0a6.87,6.87,0,0,0-1.7.73c-4.38,2.15-8.64,4.45-13.33,5.86a125.81,125.81,0,0,1-16.45,3.45l2.62,1.1a214.11,214.11,0,0,0,21.9-12.82c.25-.16.47-1.74.23-1.64L59.5,29.87q-4.86,1.64-9.84,2.9A140.78,140.78,0,0,1,32.58,36.1l2.83,1.29L39,35.49a25.91,25.91,0,0,0,8.09-3.78c4.34-2.46,8.84-4.42,13.2-6.82.37-.2-.85-.24-.72-.23a6.35,6.35,0,0,0-2.13,0l-20.14,6-.35.64a28.48,28.48,0,0,1,6.6-4.19,53.31,53.31,0,0,1,21.82-2c.49,0-.92-.71-.72-.6-.59-.33-1.7-1.18-2.41-1.18-2.68,0-5.45-.19-8.12,0A26.11,26.11,0,0,0,46,25.27a31.62,31.62,0,0,0-9,5.7s-.6.61-.16.48q11.65-3.6,23.49-6.56l-2.85-.22A56.12,56.12,0,0,1,46.9,30.85l-4.51,1.67a72.43,72.43,0,0,0-9.91,3.61s.94.56,1.07.62c.43.19,1.27.75,1.76.67,5.63-1,11.14-2.18,16.66-3.69q3-.84,6-1.59a17.67,17.67,0,0,0,7.66-3.35l.23-1.64Q53.6,34.22,41,40.54a6.52,6.52,0,0,0,1,.54c.41.17,1.18.65,1.63.56,4.34-.8,8.64-1.71,12.93-2.75A60.88,60.88,0,0,0,72.45,30.8l-1.77.53-1.07,1.79,1.11-.88a16.27,16.27,0,0,1-5.34,2.22,167.6,167.6,0,0,1-21.94,8.68,11.39,11.39,0,0,1,1.37.53A5.67,5.67,0,0,0,47,44.2a99.22,99.22,0,0,0,11.12-3c1.45-.47,2.88-1,4.28-1.62a27.2,27.2,0,0,0,5.9-3l-2.65-1.26L49.41,47s2.09.35,2.12.35c.49,0,1.64.34,2.14.07,5.15-2.86,10.68-4.8,15.85-7.58-.06,0-2-.52-2-.53C67.07,39.24,65.84,38.83,65.39,39.08Z"/>
      <path class="cls-3" d="M65.2,38.26a22.83,22.83,0,0,1-4.62,2.35q-2.46,1-5,2a42.29,42.29,0,0,0-6.36,3.56l3.29.29,14.5-11.12s-1.28-1.09-1.64-.89L61.3,36.77a49.15,49.15,0,0,1-6.62,2.55,109.39,109.39,0,0,1-11.33,2.91l2.62.86a70.68,70.68,0,0,0,9.73-4,94.16,94.16,0,0,1,11-5.68c.46-.18.91-.38,1.36-.6a17.33,17.33,0,0,0,5.37-3.39,3,3,0,0,0-1.4.07l-4.93,2.89a56.24,56.24,0,0,1-9.62,3.59A123.12,123.12,0,0,1,40.8,39.58l1.68.81q11.73-6.8,23.24-14c.13-.08.5-.74.13-.58a138.65,138.65,0,0,1-16.5,6,127.14,127.14,0,0,1-17,3.37l2,1A22.93,22.93,0,0,1,40.07,33l6.56-2.81,5.18-1.94a53.11,53.11,0,0,0,9-4.12,5,5,0,0,0-1.76-.21q-10.39,3.24-21,5.79l.12.32a30.33,30.33,0,0,1,11-5.51,14,14,0,0,1,7.14-.35,61.17,61.17,0,0,1,9.47.43c.39,0-.57-.55-.43-.46a4.3,4.3,0,0,0-1.57-.75c-4.88-.19-9.7-.79-14.49.41C45,24.9,41.52,27.08,38,29.75c-.12.09,0,.36.11.32q11.31-2.87,22.56-5.89l-1.61-.25a89.06,89.06,0,0,1-14.57,6.66c-4.14,1.44-8.12,2.88-12.14,4.59a4.19,4.19,0,0,0,1.94,1,122.4,122.4,0,0,0,16.47-3.79q3.26-.95,6.39-2.19a51.82,51.82,0,0,0,8.57-3.76l.13-.58Q53.51,33,40.8,39.58c-.2.11,1.34.88,1.68.81a114.26,114.26,0,0,0,15.94-4.07,114.32,114.32,0,0,0,14.93-6.87l-1.41.08a80.21,80.21,0,0,1-12.16,6.25,114.31,114.31,0,0,1-16.43,6.45c-.37.13.7.41.62.38a4.86,4.86,0,0,0,2,.48A91.6,91.6,0,0,0,57,40c1.42-.48,2.83-1,4.2-1.63a26.88,26.88,0,0,0,5.88-3l-1.64-.89L49.26,46.17s1.09.24,1.25.25c.47,0,1.52.35,2,.1A61.81,61.81,0,0,1,62,41.88a32.83,32.83,0,0,0,6.27-3c.3-.16-1-.39-1.08-.41C66.68,38.38,65.66,38,65.2,38.26Z"/>
      <path class="cls-3" d="M65.32,39.44a68.35,68.35,0,0,1-8,3.75,43.27,43.27,0,0,0-7.94,4.17l4.77.49L68.76,37.14a9.74,9.74,0,0,0-1.51-.85c-.22-.1-1.32-.77-1.64-.59a30.19,30.19,0,0,1-10.87,4.6,53.48,53.48,0,0,1-11.23,3.18l4,1.19L57.35,41a23.12,23.12,0,0,0,10.4-4.94,65.11,65.11,0,0,0,5.09-5c.24-.24-.43,0-.3,0q-6.24,2.73-12.35,5.72a117.31,117.31,0,0,1-19.13,4.13l3,1.26A209.24,209.24,0,0,0,65.72,29.93c.42-.26.07-2.24.13-2.27a77.5,77.5,0,0,1-19.63,6.43,105,105,0,0,1-13.64,2.43L35.79,38l3.59-1.77a10,10,0,0,0,5.37-2.25,32.77,32.77,0,0,1,6.18-3.59q4.59-2.43,9-5.1c.38-.23-1-.23-.83-.22a8,8,0,0,0-2.44,0L46.07,28.19Q32.63,30.74,48.46,27a15.36,15.36,0,0,1,10.54-2c2,.24,4.06.41,6.09.53.53,0-1-.77-.82-.66-.65-.35-1.95-1.35-2.73-1.33-2.69.06-5.47-.11-8.15.12a27,27,0,0,0-8.11,2.06,37.82,37.82,0,0,0-9.73,6.11c-.18.15-.11.26.11.2L60,25.25l-3.36-.1-3.75,3a33,33,0,0,1-8.27,4c-4.06,1.47-8.11,2.76-12.13,4.36,0,0,1.07.61,1.22.68.49.21,1.45.87,2,.77,5.62-1,11.13-2.24,16.68-3.59q2.89-.76,5.82-1.32a14.47,14.47,0,0,0,7.54-3.15l.13-2.27q-12.27,7-24.9,13.28s1,.55,1.15.6c.47.2,1.36.76,1.88.66L50.49,41q3.09-.27,6.15-.83a125.1,125.1,0,0,0,13-6.15l1.13-1.25a16.46,16.46,0,0,1-5.35,2.14,177.2,177.2,0,0,1-22,8.61,12.63,12.63,0,0,1,1.54.57,6.27,6.27,0,0,0,2.44.61c3.05-.67,6.09-1.34,9.08-2.26l4.42-1.53a36,36,0,0,0,7.89-3.77L65.61,35.7,49.34,47.36c.06,0,2.32.39,2.37.39.52.06,1.86.4,2.4.1A85.18,85.18,0,0,1,62,44c2.76-1.16,5.39-2.28,8-3.7-.09.05-2.23-.55-2.31-.57C67.24,39.64,65.82,39.16,65.32,39.44Z"/>
      <path class="cls-3" d="M66,39.8a69.74,69.74,0,0,1-8.08,3.76,43.35,43.35,0,0,0-8,4.17l4.73.58,15-10.78A12.82,12.82,0,0,0,68,36.65c-.24-.1-1.46-.8-1.8-.61a39.13,39.13,0,0,1-8.51,4.25,99.31,99.31,0,0,1-13.57,3.59l4,1.25c7-2.48,14.12-4.82,20.88-8,1.84-.88,2.31-1.93,3.59-3.76.15-.22,1.14-1.74.87-1.63l-6.91,3a36.45,36.45,0,0,1-9,3.76c-5.14,1.6-10.59,2.09-15.9,2.87L45,42.77q11.24-5.39,22.12-11.44c.43-.24-.55-3.13-.54-3.13L60,31q-4.81,1.57-9.76,2.72a166.74,166.74,0,0,1-17.07,3.24l3.39,1.57L40.45,37a12.19,12.19,0,0,0,5.47-1.7c.81-.44,1.62-.85,2.44-1.25a42.53,42.53,0,0,0,11.79-8.35c.42-.28-1.24-.13-1.08-.14a15.51,15.51,0,0,0-3.11.28,150.6,150.6,0,0,0-19.72,5.82l.76-.05c4.68-3.07,9.57-5.53,15.15-6.31,4.44-.63,8.86.14,13.3.48.14,0,.19,0,.06-.12a8,8,0,0,0-1.66-.95c-.76-.4-2.09-1.44-3-1.4q-4,.25-8.07.36a29.11,29.11,0,0,0-6.57,1.69,48.48,48.48,0,0,0-12,7.09c-.25.2.37.07.29.09q12.74-3.66,25.6-6.84l-4.3.22C52.19,30.52,53,30.14,47.49,32c-4.85,1.61-9.68,3.11-14.44,5,0,0,1.13.65,1.29.72.5.23,1.53,1,2.1.85A126.22,126.22,0,0,0,50,35.84a34.4,34.4,0,0,0,17.05-4.51l-.54-3.13Q54.18,35,41.58,41.37s1.1.61,1.25.67c.51.22,1.45.84,2,.76a43.62,43.62,0,0,1,12.27-1,80.12,80.12,0,0,0,14.26-7l2.09-3.13a14.69,14.69,0,0,1-7.43,3.58,198.16,198.16,0,0,1-22,8.61,14.11,14.11,0,0,1,1.55.6c.64.2,1.79.8,2.46.65,3.5-.77,5.68-1.21,9.11-2.25a45.5,45.5,0,0,0,4.53-1.53,38,38,0,0,0,8-3.85L66.2,36,50,47.73c.05,0,2.31.43,2.35.44.49,0,1.86.43,2.38.14,5.18-2.9,10.75-4.85,16-7.66-.09.05-2.23-.55-2.31-.57C67.91,40,66.49,39.53,66,39.8Z"/>
      <path class="cls-3" d="M65.16,38.61c-3.09,1.73-6.41,2.94-9.63,4.38a43.27,43.27,0,0,0-6.33,3.54l3.81.36,14.54-11c-.06.05-1.67-1.32-2.12-1.07a52.53,52.53,0,0,1-13,5.6q-4.52,1.28-9.1,2.17l3,1c9.27-3.7,19-7.33,26.76-13.8a5.5,5.5,0,0,0-1.7.22,56.94,56.94,0,0,1-17.27,7.36A108.18,108.18,0,0,1,40.8,40l2.15.93q11.56-6.3,22.48-13.67c.12-.08.51-1,.27-.89a116.56,116.56,0,0,1-19.76,6.82,99.55,99.55,0,0,1-13.6,2.41l2.41,1.12A29.15,29.15,0,0,1,42.21,33l2-1.06a51.38,51.38,0,0,1,7.17-3.24,55,55,0,0,0,9-4.2c.32-.17-.65-.25-.54-.23a4.1,4.1,0,0,0-1.6,0q-10.22,3.18-20.57,5.94l.12.42a24.53,24.53,0,0,1,9.25-5.28,65.28,65.28,0,0,1,18.35-.45c.42,0-.69-.61-.53-.51a5,5,0,0,0-1.85-.9c-3.69-.09-7.73-.6-11.4,0a26.85,26.85,0,0,0-6.34,1.8,35.29,35.29,0,0,0-7.66,4.91c-.11.08-.08.48.11.42q11.3-3.21,22.66-6.15l-2.14-.23a92.94,92.94,0,0,1-11.57,6L42.13,31.9a72.69,72.69,0,0,0-9.89,3.72,6.83,6.83,0,0,0,.91.54c.37.17,1.07.64,1.5.57a132.87,132.87,0,0,0,19.84-4.84l5.74-2a41.28,41.28,0,0,0,5.12-2.64l.35-.94Q53.43,33.6,40.72,40c.14-.07,1.73,1,2.15.93a107.44,107.44,0,0,0,15.88-4.14c5-1.81,9.54-4.54,14.23-6.94l-1.7.22a95.24,95.24,0,0,1-28,12.52c-.4.14.82.44.73.41a5.74,5.74,0,0,0,2.31.57,89.63,89.63,0,0,0,13.25-3.84,59.77,59.77,0,0,0,7.94-3.84l-2.12-1.07L49.2,46.53l1.89.32c.46,0,1.46.3,1.92,0,5.12-2.87,10.65-4.81,15.8-7.61,0,0-1.77-.47-1.8-.48C66.62,38.73,65.58,38.37,65.16,38.61Z"/>
    </g>
  </g>
</svg>
