<svg id="Layer_1" data-name="Layer 1" xmlns="http://www.w3.org/2000/svg" xmlns:xlink="http://www.w3.org/1999/xlink" width="118.8" height="85.22" viewBox="0 0 118.8 85.22">
  <defs>
    <style>
      .cls-1 {
        fill: none;
      }

      .cls-2 {
        fill: #ffcb33;
      }

      .cls-3 {
        fill: #27c5f4;
      }

      .cls-4 {
        fill: #f7f6da;
      }

      .cls-5 {
        fill: #fff;
      }

      .cls-6 {
        fill: #8b5e3c;
      }

      .cls-7 {
        fill: #603913;
      }

      .cls-8 {
        clip-path: url(#clip-path);
      }
    </style>
    <clipPath id="clip-path">
      <path id="SVGID" class="cls-1" d="M55.59,47.8S40.29,71,9.78,79.89c0,0,17.91,12.44,35.42-.71S55.59,47.8,55.59,47.8Z"/>
    </clipPath>
  </defs>
  <title>04_a_small_singing_bird</title>
  <g>
    <path class="cls-2" d="M89.66,34.26s19.77,8.89,24.77,12.25c4.38,3,6.47,6.65,1.44,16.07a2.08,2.08,0,0,1-3.69,0c-1.22-2.38-3.71-5.37-8.81-7.95-10.44-5.28-19.1-9.11-19.1-9.11S90,33.6,89.66,34.26Z"/>
    <path class="cls-3" d="M88.83,2.86c-6.48-3.28-26-7.38-35.59,10.72S27.45,54.16,0,40.27c0,0,6.51,38.24,52.35,41.33S124.67,21,88.83,2.86Z"/>
    <path class="cls-4" d="M85.07,71.18A47,47,0,0,1,52.35,81.6a72.1,72.1,0,0,1-14.69-2.46,26.07,26.07,0,0,1,47.42-8Z"/>
    <g>
      <circle class="cls-5" cx="83.73" cy="35.36" r="17.08" transform="translate(14.38 94.11) rotate(-63.17)"/>
      <g>
        <circle class="cls-6" cx="80.56" cy="35.18" r="8.09" transform="translate(12.8 91.18) rotate(-63.17)"/>
        <circle class="cls-7" cx="80.28" cy="35.23" r="4.42" transform="translate(12.6 90.97) rotate(-63.17)"/>
        <circle class="cls-5" cx="80.26" cy="30.09" r="2.83" transform="translate(17.18 88.12) rotate(-63.17)"/>
      </g>
    </g>
    <g>
      <path class="cls-3" d="M55.59,47.8S40.29,71,9.78,79.89c0,0,17.91,12.44,35.42-.71S55.59,47.8,55.59,47.8Z"/>
      <g class="cls-8">
        <g>
          <circle class="cls-2" cx="59.18" cy="53.24" r="6.41" transform="translate(-17.53 74.5) rotate(-57.47)"/>
          <circle class="cls-2" cx="56.41" cy="63.22" r="6.41" transform="translate(-27.23 76.78) rotate(-57.47)"/>
          <circle class="cls-2" cx="50.86" cy="73.38" r="6.41" transform="translate(-38.36 76.79) rotate(-57.47)"/>
          <circle class="cls-2" cx="42" cy="80.17" r="6.41" transform="translate(-48.17 72.46) rotate(-57.47)"/>
          <circle class="cls-2" cx="32.51" cy="84.85" r="6.41" transform="translate(-56.51 66.63) rotate(-57.47)"/>
          <circle class="cls-2" cx="21.17" cy="86.67" r="6.41" transform="translate(-63.28 57.91) rotate(-57.47)"/>
          <circle class="cls-2" cx="10.85" cy="86.02" r="6.41" transform="translate(-67.51 48.9) rotate(-57.47)"/>
        </g>
      </g>
    </g>
  </g>
</svg>
