<svg id="Layer_2" data-name="Layer 2" xmlns="http://www.w3.org/2000/svg" xmlns:xlink="http://www.w3.org/1999/xlink" viewBox="0 0 1920 1080">
  <defs>
    <style>
      .cls-1, .cls-3 {
        fill: none;
      }

      .cls-2 {
        clip-path: url(#clip-path);
      }

      .cls-3 {
        stroke: #2bb673;
        stroke-linecap: round;
        stroke-linejoin: round;
        stroke-width: 3.94px;
      }

      .cls-4 {
        fill: #faaf40;
      }

      .cls-5 {
        fill: #f7ea23;
      }

      .cls-6 {
        fill: #2bb673;
      }
    </style>
    <clipPath id="clip-path">
      <rect class="cls-1" width="1920" height="1080"/>
    </clipPath>
  </defs>
  <title>OrangeFlower-head_spins-2</title>
  <g class="cls-2">
    <g>
      <path class="cls-3" d="M1621.91,1000.67s-41.42,21.11-5.69,104.75"/>
      <g>
        <g>
          <path class="cls-4" d="M1654,981.51c-3-7.42-10.31-9.87-17.86-6.35-4.69,2.19-7.84,6.21-11.84,9.21,0,0,0,0,0-.06,1.42-5.41,3.63-10.66,3-16.49-.82-7.44-6.24-12-13.84-11.34s-12,5.69-11.66,13a29.66,29.66,0,0,0,7.24,17.74,16.82,16.82,0,0,1,13.44-.61l1.81-2.36-1.81,2.36a8.12,8.12,0,0,1,.67.48c4.76,2.93,6.74,7.44,7.27,12.77,5.32.59,10.58.64,15.73-1.25C1653.91,995.8,1657.08,989,1654,981.51Z"/>
          <path class="cls-4" d="M1597.74,1030.59c6.88,4.1,14.17,1.71,18.1-5.63,2.44-4.57,2.56-9.67,4-14.47l0,0c2.11,5.19,3.49,10.72,7.49,15,5.11,5.46,12.18,5.84,17.88.78s6.22-11.77,1.51-17.43a29.72,29.72,0,0,0-16.43-9.86,16.79,16.79,0,0,1-10.39,8.55l0,3,0-3c-.28,0-.55,0-.83,0-5.56.51-9.85-1.91-13.47-5.86-4.61,2.71-8.85,5.82-11.84,10.43C1589.23,1019.11,1590.75,1026.43,1597.74,1030.59Z"/>
          <path class="cls-4" d="M1608.61,1002.45l-2.85.86,2.85-.86a7.92,7.92,0,0,1-.26-.78c-2.17-5.16-1.15-10,1.54-14.61-4-3.59-8.22-6.69-13.52-8.16-8-2.23-14.52,1.42-16.39,9.34s2.63,14,10.81,15.57c5.1,1,10-.47,15-.58,0,0,0,0,0,.06"/>
        </g>
        <circle class="cls-5" cx="1616.63" cy="998" r="13.68"/>
      </g>
      <path class="cls-6" d="M1598.34,1043.9c-4.12-4-19-8.24-21.12-6.05s2.41,17,6.53,21,10.91,6.94,16.35,1.38S1602.46,1047.93,1598.34,1043.9Z"/>
    </g>
  </g>
</svg>
