<svg id="Layer_3" data-name="Layer 3" xmlns="http://www.w3.org/2000/svg" xmlns:xlink="http://www.w3.org/1999/xlink" viewBox="0 0 1920 1080">
  <defs>
    <style>
      .cls-1, .cls-3 {
        fill: none;
      }

      .cls-2 {
        clip-path: url(#clip-path);
      }

      .cls-3 {
        stroke: #2bb673;
        stroke-linecap: round;
        stroke-linejoin: round;
        stroke-width: 3.94px;
      }

      .cls-4 {
        fill: #faaf40;
      }

      .cls-5 {
        fill: #f7ea23;
      }

      .cls-6 {
        fill: #2bb673;
      }
    </style>
    <clipPath id="clip-path">
      <rect class="cls-1" width="1920" height="1080"/>
    </clipPath>
  </defs>
  <title>OrangeFlower-head_spins-3</title>
  <g class="cls-2">
    <g>
      <path class="cls-3" d="M1621.91,1000.67s-41.42,21.11-5.69,104.75"/>
      <g>
        <g>
          <path class="cls-4" d="M1652.52,1011.05c3-7.41-.38-14.27-8.22-17.08-4.88-1.75-9.94-1.12-14.89-1.8,0,0,0,0,0,0,4.83-2.85,10.09-5,13.74-9.6,4.66-5.86,4-12.9-1.84-17.8s-12.55-4.43-17.46,1.06a29.64,29.64,0,0,0-7.35,17.69,16.8,16.8,0,0,1,10,9l2.94-.4-2.94.4a7.37,7.37,0,0,1,.13.82c1.33,5.42-.44,10-3.82,14.18,3.36,4.17,7.06,7.9,12,10.19C1642.41,1021.15,1649.43,1018.58,1652.52,1011.05Z"/>
          <path class="cls-4" d="M1578,1006.32c2,7.76,8.86,11.19,16.82,8.74,5-1.53,8.63-5.07,13-7.49l0,.06c-2.16,5.17-5.07,10.06-5.24,15.92-.22,7.48,4.53,12.72,12.15,13.14,7.46.41,12.7-4,13.33-11.32a29.63,29.63,0,0,0-4.72-18.57,16.77,16.77,0,0,1-13.4-1.24l-2.12,2.09,2.12-2.09a8.08,8.08,0,0,1-.6-.57c-4.31-3.55-5.65-8.29-5.44-13.65-5.19-1.31-10.39-2.09-15.76-.92C1580.06,992.17,1576,998.44,1578,1006.32Z"/>
          <path class="cls-4" d="M1605.55,994l-2.63-1.39,2.63,1.39a7.29,7.29,0,0,1,.37-.74c2.09-5.18,6.2-7.88,11.37-9.29-.3-5.35-1.13-10.54-3.85-15.31-4.11-7.21-11.31-9.21-18.22-4.9s-8,11.81-3.28,18.67c3,4.26,7.43,6.7,11,10.14l0,0"/>
        </g>
        <circle class="cls-5" cx="1616.63" cy="998" r="13.68"/>
      </g>
      <path class="cls-6" d="M1598.34,1043.9c-4.12-4-19-8.24-21.12-6.05s2.41,17,6.53,21,10.91,6.94,16.35,1.38S1602.46,1047.93,1598.34,1043.9Z"/>
    </g>
  </g>
</svg>
