<svg id="Layer_7" data-name="Layer 7" xmlns="http://www.w3.org/2000/svg" xmlns:xlink="http://www.w3.org/1999/xlink" viewBox="0 0 1920 1080">
  <defs>
    <style>
      .cls-1, .cls-3 {
        fill: none;
      }

      .cls-2 {
        clip-path: url(#clip-path);
      }

      .cls-3 {
        stroke: #2bb673;
        stroke-linecap: round;
        stroke-linejoin: round;
        stroke-width: 3.94px;
      }

      .cls-4 {
        fill: #faaf40;
      }

      .cls-5 {
        fill: #f7ea23;
      }

      .cls-6 {
        fill: #2bb673;
      }
    </style>
    <clipPath id="clip-path">
      <rect class="cls-1" width="1920" height="1080"/>
    </clipPath>
  </defs>
  <title>OrangeFlower-head_spins-5</title>
  <g class="cls-2">
    <g>
      <path class="cls-3" d="M1621.91,1000.67s-41.42,21.11-5.69,104.75"/>
      <g>
        <path class="cls-4" d="M1634.39,962.83c-7.1-3.71-14.24-.91-17.75,6.65-2.18,4.7-2,9.8-3.13,14.66l0,0c-2.4-5.06-4.08-10.5-8.33-14.55-5.41-5.17-12.48-5.14-17.89.23s-5.54,12.11-.51,17.49a29.67,29.67,0,0,0,17,8.91,16.76,16.76,0,0,1,9.89-9.12c0-1-.09-2-.14-3,0,1,.09,2,.14,3a7.35,7.35,0,0,1,.82-.07c5.53-.82,9.94,1.35,13.78,5.09,4.46-3,8.51-6.32,11.24-11.09C1643.54,973.81,1641.61,966.59,1634.39,962.83Z"/>
        <path class="cls-4" d="M1623,1036.6c7.91-1.29,12-7.81,10.22-16-1.07-5.07-4.27-9-6.28-13.62h0c5,2.61,9.57,6,15.39,6.65,7.43.89,13.08-3.37,14.18-10.91s-2.83-13-10.07-14.3a29.66,29.66,0,0,0-18.92,3,16.77,16.77,0,0,1-2.44,13.23l1.89,2.3-1.89-2.3c-.2.19-.41.37-.63.55-3.92,4-8.76,4.88-14.08,4.19-1.78,5-3,10.15-2.34,15.61C1609.07,1033.3,1614.94,1037.92,1623,1036.6Z"/>
        <path class="cls-4" d="M1613.17,1008.07l-1.62,2.5,1.62-2.5a7.45,7.45,0,0,1-.71-.43c-5-2.55-7.29-6.89-8.23-12.17-5.35-.18-10.59.18-15.59,2.46-7.56,3.45-10.19,10.44-6.52,17.71s11,9,18.29,4.94c4.52-2.54,7.35-6.79,11.1-10.09a.13.13,0,0,0,0,0"/>
        <circle class="cls-5" cx="1616.63" cy="998" r="13.68"/>
      </g>
      <path class="cls-6" d="M1598.34,1043.9c-4.12-4-19-8.24-21.12-6.05s2.41,17,6.53,21,10.91,6.94,16.35,1.38S1602.46,1047.93,1598.34,1043.9Z"/>
    </g>
  </g>
</svg>
