<svg id="Layer_1" data-name="Layer 1" xmlns="http://www.w3.org/2000/svg" width="330" height="250" viewBox="0 0 330 250">
  <defs>
    <style>
      .cls-1 {
        fill: #729e00;
      }

      .cls-2 {
        fill: #5f8400;
      }

      .cls-3 {
        fill: #628602;
      }

      .cls-4 {
        fill: #5f8300;
      }

      .cls-5 {
        fill: #506f00;
      }

      .cls-6 {
        fill: #fefefe;
      }

      .cls-7 {
        fill: #262626;
      }

      .cls-8 {
        fill: #fdfdfd;
      }

      .cls-9 {
        fill: #739f00;
      }
    </style>
  </defs>
  <title>16_sad_face_on_the_little_fish</title>
  <g>
    <g>
      <g>
        <path class="cls-1" d="M226.37,138.15c-2.15.17-4.31.32-6.45.52-1.66.16-3.32.15-5,.14-1.3,0-2.6,0-3.91,0A73.24,73.24,0,0,1,196.55,137a71.89,71.89,0,0,1-10.8-3.05A82.87,82.87,0,0,1,178,130.6a74,74,0,0,1-6.73-3.69,47.11,47.11,0,0,0-4.85-2.67c-2-1-4-1.86-6.05-2.74-3.77-1.63-7.57-3.19-11.43-4.57A87.4,87.4,0,0,0,138,113.52a18.33,18.33,0,0,0-5.7-.84,4.59,4.59,0,0,0-1.69.36c-.71.36-.33,1-.36,1.5a100.74,100.74,0,0,1-2.69,16.9,77.3,77.3,0,0,1-5,14.72c-.85,1.75-1.72,3.49-2.71,5.17a55.64,55.64,0,0,1-3.19,4.84c-1,1.33-2.14,2.53-3.19,3.8-1.93,2.33-4.44,4-6.76,5.8-3.21,2.55-6.58,4.9-9.8,7.44-2.27,1.79-4.53,3.62-6.8,5.42s-4.48,3.91-6.83,5.73a3.72,3.72,0,0,0-1.36,3.22,76.67,76.67,0,0,1-1.34,14.92,7.16,7.16,0,0,0-.26,2.13c0,.74-.52,1.41-.28,2.18-.09.4.14.91-.39,1.16.32.39,0,.73-.07,1.1s-.11.48-.23.7c-.72,2.62-1.43,5.25-2.16,7.87-.47,1.7-1.24,3.31-1.61,5a1.09,1.09,0,0,1-.39.9c-1,2.34-1.9,4.7-2.94,7a26.74,26.74,0,0,1-3.87,6.6,23,23,0,0,1-1.28-3c-1-2.12-1.4-4.41-2.35-6.54a11.87,11.87,0,0,1-.48-2.66,40.27,40.27,0,0,1-1.05-5.77c-.08-2.18-.14-4.38,0-6.58a69.3,69.3,0,0,1,1.23-9.2,58.64,58.64,0,0,1,2-7.93c.9-2.7,1.87-5.37,3-8s1.91-5.73,3.8-8.07a52.08,52.08,0,0,0,5.24-8,50.81,50.81,0,0,0,6.42-21.11,48.29,48.29,0,0,0,.11-8.58c-.15-1.65-.34-3.3-.53-4.95-.08-.74-.21-1.12-1.18-.67-1.45.68-3.1.48-4.68.53a.79.79,0,0,1-.89,0,35.28,35.28,0,0,1-9.22-2.65,47.08,47.08,0,0,1-8.76-5.26,52.15,52.15,0,0,1-5.27-4.38c-2.36-2.16-4.67-4.36-6.88-6.69a77.8,77.8,0,0,1-8.61-10.8,62,62,0,0,1-4.65-8.62c-1.64-3.64-2.38-7.54-3.54-11.31a14,14,0,0,0-3.2-5,27.86,27.86,0,0,0-5.14-4.49,44.65,44.65,0,0,0-6.16-3.55,46.15,46.15,0,0,0-5.3-2.38c-.31-.1-.55-.43-.89-.71,2.11-.66,4.14-.3,6.14-.06a41.91,41.91,0,0,1,5.24,1,43.6,43.6,0,0,1,8.35,3.13,36.09,36.09,0,0,1,5.82,3.56,26.81,26.81,0,0,1,4.4,4,2.05,2.05,0,0,0,2.37.79,47,47,0,0,1,6.81-1c3.13-.34,6.26-.16,9.39-.19s6.43.5,9.64.75a120,120,0,0,1,12,2c3.28.59,6.55,1.32,9.82,2,5,1,9.89,2.42,14.8,3.75,4.13,1.12,8.14,2.64,12.18,4a19.67,19.67,0,0,1,1.9.78.74.74,0,0,0,1.16-.55,56.1,56.1,0,0,1,3.6-9.61c.73-1.63,1.65-3.17,2.37-4.79s1.82-3,2.55-4.62A12.61,12.61,0,0,1,130.37,73c1.08-1.33,2-2.76,3.08-4.1s2.09-2.48,3.15-3.69a69.74,69.74,0,0,1,5.27-5.47c2.29-2.1,4.53-4.26,7-6.22s4.87-3.93,7.42-5.74A44.67,44.67,0,0,1,162,44.14c.78-.39.71-1,.51-1.66a22.1,22.1,0,0,0-3.66-6.63,39.49,39.49,0,0,0-5.41-5.8,51.38,51.38,0,0,0-6.53-4.78,42.09,42.09,0,0,0-6.38-3.42,47.67,47.67,0,0,0-7.34-2.79c-.37-.09-.83-.21-.85-.53s.42-.58.81-.76c3.94-1.8,8.16-2.47,12.38-3.13,2.72-.43,5.44-.92,8.19-1.13,2.08-.16,4.17-.28,6.26-.36,1.91-.07,3.83,0,5.74-.2a54.85,54.85,0,0,1,6.65-.09c4.61.16,9.23.31,13.83.78a93.86,93.86,0,0,1,13.52,2.1,40.44,40.44,0,0,1,11.76,4.74,22.07,22.07,0,0,1,5.46,4.65,2.51,2.51,0,0,0,2.38,1.07c2.87-.35,5.74-.67,8.63-.86s5.81-.32,8.71-.25A95.29,95.29,0,0,1,268,31.31a110.58,110.58,0,0,1,13.8,6.38c2,1.12,4.05,2.17,6,3.43s3.7,2.36,5.5,3.63c2.41,1.7,4.71,3.53,7,5.35,1.14.9,2.16,1.95,3.25,2.9a11.42,11.42,0,0,0,3.37,1.75,28.82,28.82,0,0,1,5.81,2.87c2.94,2.07,4.51,4.88,4,8.65-.17,1.23-.68,2.37-.76,3.61a5.25,5.25,0,0,0-1.92.48A32.28,32.28,0,0,1,301.76,72a20.69,20.69,0,0,0,7.65-.29,29.83,29.83,0,0,0,6-1.46.54.54,0,0,1,.62.11c.93.68,1.9,1.3,2.77,2,1.3,1.11,1.49,3.55.81,5.24-1,2.6-3.27,3.86-5.45,5.22-2.59,1.62-5.2,3.21-7.78,4.84a12.81,12.81,0,0,0-2.47,2.62c-2,2.31-4.06,4.64-6.13,6.93-2.23,2.47-4.61,4.79-7,7.13a94.94,94.94,0,0,1-7.57,6.76c-2.66,2.13-5.29,4.3-8.1,6.23l-4.42,3.08c-.34.67-1.07.8-1.63,1.18a1.51,1.51,0,0,0-.87.36,101.09,101.09,0,0,1-11.84,6.51c-4.52,2.1-9,4.37-13.77,5.85a106.34,106.34,0,0,1-12.3,3.06C229,137.63,227.69,137.9,226.37,138.15Z"/>
        <path class="cls-2" d="M316.05,70.34a31,31,0,0,1-6.8,1.7,18.81,18.81,0,0,1-8,.09.58.58,0,0,1-.48-.36c2.35-.1,4.68,0,7-.29a22,22,0,0,0,7.32-1.86c.49-.24.66,0,.91.28C316.31,70,316,70.2,316.05,70.34Z"/>
        <path class="cls-3" d="M182.65,121.87a19.87,19.87,0,0,1-.08-8.49c.5-2.15,2-3.66,3.57-5.11A81.55,81.55,0,0,1,202.63,96a38.47,38.47,0,0,1,11.57-4.24,11.58,11.58,0,0,1,6.6,1.08c3,1.19,4.07,2.8,4.18,6a25.57,25.57,0,0,1-3.64,13.37c-2.29,4.14-5.8,7.15-9.73,9.71a58.24,58.24,0,0,1-11.15,5.34c-2.86,1.09-5.8,1.84-8.74,2.64-1.1.3-2.18.64-3.29.9a1.53,1.53,0,0,1-1.81-.6c-.34-.48-.7-.95-1.06-1.42.21-.5.71-.51,1.12-.61a58.85,58.85,0,0,0,15.25-6.07,42.6,42.6,0,0,0,13.56-11.68,32.49,32.49,0,0,0,3.6-6.11,42.25,42.25,0,0,1-7.93,9.47,55.29,55.29,0,0,1-17.77,11,56.2,56.2,0,0,1-7.76,2.37,1.54,1.54,0,0,1-1,.06c-.36-.84-.68-1.7-1.1-2.52a2.24,2.24,0,0,1-.24-1.05,10,10,0,0,1,3.46-.66,27.11,27.11,0,0,0,7.43-2.22,31.4,31.4,0,0,0,8.92-5.79,32.5,32.5,0,0,0,4.75-5.57,26.29,26.29,0,0,0,2.05-3.22,28,28,0,0,1-3.39,3.77,57.3,57.3,0,0,1-10.12,8.16c-3.86,2.33-7.93,4-12.57,3.88A4.31,4.31,0,0,1,182.65,121.87Z"/>
        <path class="cls-4" d="M264,48.45c8.69-.4,15.13,6.93,15.32,14.32A15,15,0,1,1,264,48.45Z"/>
        <path class="cls-4" d="M249.41,89.39a22.19,22.19,0,0,1-5-2.49c-1.06-.71-2.14-1.38-3.16-2.14-1.24-.92-2.46-1.88-3.63-2.89a49.66,49.66,0,0,1-6.3-6.57,37.43,37.43,0,0,1-4.85-8.15,31.78,31.78,0,0,1-2.21-6.57,17.45,17.45,0,0,1,.16-6.52,30.58,30.58,0,0,1,5.44-12.74,27.14,27.14,0,0,1,6.29-6.44c.71-.5,1.13-.27,1.41.46,0,.07,0,.15,0,.22.61,1.18.23,1.87-.85,2.66a23.07,23.07,0,0,0-7.9,10,20.17,20.17,0,0,0-.66,13.26A35.08,35.08,0,0,0,233.25,72,82.53,82.53,0,0,0,240,80.77a76.73,76.73,0,0,0,6.67,6.29C247.57,87.86,248.5,88.62,249.41,89.39Z"/>
        <path class="cls-5" d="M184.67,127.22a12.79,12.79,0,0,1,2.76-.81,53.59,53.59,0,0,0,14.36-6,51.86,51.86,0,0,0,10.8-8.44,56,56,0,0,0,6.35-7.8,4.76,4.76,0,0,1,.68-.84,17.89,17.89,0,0,1-2.72,5.59,40.1,40.1,0,0,1-4.09,5.15A49.22,49.22,0,0,1,207,119.2,57.12,57.12,0,0,1,194.41,126a60.34,60.34,0,0,1-8.84,2.73A2.91,2.91,0,0,1,184.67,127.22Z"/>
        <path class="cls-5" d="M182.65,121.87c.35-.45.87-.19,1.24-.17a19.37,19.37,0,0,0,8.89-2,42.43,42.43,0,0,0,9.5-6.31,77.63,77.63,0,0,0,8-8c-3.14,8.35-14.33,17.85-27,18.21A2,2,0,0,1,182.65,121.87Z"/>
        <path class="cls-6" d="M276.71,63.52c-.31,7-5.64,12-12.33,11.85a12.08,12.08,0,1,1,.74-24.14A12,12,0,0,1,276.71,63.52Z"/>
        <path class="cls-7" d="M264.54,73.45a10.19,10.19,0,0,1-10.1-9.63A10.08,10.08,0,0,1,264.81,53.1a10,10,0,0,1,10,9.82A10.06,10.06,0,0,1,264.54,73.45Z"/>
        <path class="cls-8" d="M265.11,60.62A2.65,2.65,0,0,1,267.94,58a2.8,2.8,0,0,1,2.58,2.8,2.7,2.7,0,0,1-2.64,2.62A2.57,2.57,0,0,1,265.11,60.62Z"/>
      </g>
      <path class="cls-2" d="M314.95,69.34a80.93,80.93,0,0,0-28,6.73c-1,.45-.14,2,.88,1.51a78.33,78.33,0,0,1,27.14-6.49c1.12-.06,1.13-1.81,0-1.75Z"/>
      <path class="cls-2" d="M285.38,74.63a15.17,15.17,0,0,0,1.95,4.06c.63.92,2.15.05,1.51-.88a13.55,13.55,0,0,1-1.77-3.64c-.33-1.07-2-.61-1.69.46Z"/>
    </g>
    <path class="cls-9" d="M279,61.86s-16-4.9-29.92,2.58c0,0-1.68-13.86,12.55-16S279,61.86,279,61.86Z"/>
  </g>
</svg>
