<svg id="Layer_1" data-name="Layer 1" xmlns="http://www.w3.org/2000/svg" width="330" height="250" viewBox="0 0 330 250">
  <defs>
    <style>
      .cls-1 {
        fill: #729e00;
      }

      .cls-2 {
        fill: #5f8400;
      }

      .cls-3 {
        fill: #628602;
      }

      .cls-4 {
        fill: #5f8300;
      }

      .cls-5 {
        fill: #506f00;
      }

      .cls-6 {
        fill: #fefefe;
      }

      .cls-7 {
        fill: #262626;
      }

      .cls-8 {
        fill: #fdfdfd;
      }

      .cls-9 {
        fill: #739f00;
      }
    </style>
  </defs>
  <title>16_sad_face_on_the_little_fish</title>
  <g>
    <g>
      <g>
        <path class="cls-1" d="M213.39,228.13c-1.94-.94-3.88-1.9-5.83-2.81-1.51-.7-2.94-1.55-4.37-2.4-1.12-.66-2.25-1.31-3.35-2a73.24,73.24,0,0,1-11.59-8.85,71.89,71.89,0,0,1-7.77-8.09,82.87,82.87,0,0,1-5-6.82,74,74,0,0,1-3.94-6.59,47.11,47.11,0,0,0-2.84-4.76c-1.2-1.86-2.53-3.64-3.84-5.42-2.43-3.31-4.91-6.58-7.55-9.73a87.4,87.4,0,0,0-7.66-8.44c-1.41-1.29-19.73-20.47-20.08-22.42a4.59,4.59,0,0,0-.5-1.66c-.41-.68-1-.25-1.52-.25a100.74,100.74,0,0,1-17.06-1.35,77.3,77.3,0,0,1-15.07-3.86c-1.81-.71-3.61-1.44-5.36-2.3a55.64,55.64,0,0,1-5.08-2.8c-1.41-.88-2.69-1.93-4-2.88-2.48-1.74-4.29-4.11-6.31-6.28-2.79-3-5.4-6.17-8.19-9.18-2-2.13-4-4.23-5.94-6.35s-4.25-4.16-6.25-6.36a3.72,3.72,0,0,0-3.32-1.1,76.67,76.67,0,0,1-15-.16,7.16,7.16,0,0,0-2.14-.09c-.74.05-1.45-.41-2.2-.11-.41-.06-.9.21-1.19-.3-.36.35-.73,0-1.1,0a1,1,0,0,1-.72-.17l-8-1.53c-1.73-.34-3.39-1-5.15-1.21a1.09,1.09,0,0,1-.93-.32c-2.41-.79-4.84-1.53-7.22-2.38A26.74,26.74,0,0,1,.39,85.84a23,23,0,0,1,2.89-1.52c2-1.12,4.29-1.74,6.33-2.86a11.87,11.87,0,0,1,2.61-.69,40.27,40.27,0,0,1,5.67-1.51c2.17-.25,4.35-.49,6.56-.55a69.3,69.3,0,0,1,9.27.5,58.64,58.64,0,0,1,8.06,1.33c2.76.68,5.5,1.44,8.21,2.31S55.86,84.3,58.34,86a52.08,52.08,0,0,0,8.42,4.59,50.81,50.81,0,0,0,21.55,4.74,48.29,48.29,0,0,0,8.56-.57c1.64-.28,3.26-.6,4.89-.92.73-.14,1.1-.3.57-1.23-.8-1.39-.72-3.05-.9-4.62a.79.79,0,0,1,0-.89,35.28,35.28,0,0,1,1.92-9.4,47.08,47.08,0,0,1,4.56-9.15,52.15,52.15,0,0,1,4-5.6c2-2.52,4-5,6.12-7.39A77.8,77.8,0,0,1,128,46.14a62,62,0,0,1,8.22-5.32c3.5-1.93,7.33-3,11-4.42A14,14,0,0,0,152,32.82a27.86,27.86,0,0,0,4.07-5.48,44.65,44.65,0,0,0,3.05-6.42,46.15,46.15,0,0,0,2-5.48,3.54,3.54,0,0,1,.64-.94c.82,2.05.63,4.1.54,6.12a41.91,41.91,0,0,1-.61,5.31,43.6,43.6,0,0,1-2.46,8.58,36.09,36.09,0,0,1-3.09,6.09,26.81,26.81,0,0,1-3.62,4.7,2.05,2.05,0,0,0-.6,2.43,47,47,0,0,1,1.51,6.72c.58,3.09.65,6.23.93,9.34s0,6.45,0,9.67a120,120,0,0,1-1,12.1c-.33,3.32-.8,6.63-1.19,9.94-.61,5.06-1.63,10-2.57,15-.79,4.21-2,8.32-3.07,12.46a19.67,19.67,0,0,1-.63,2,.74.74,0,0,0,.64,1.11c3.4.55,2.25,6.3,5,4.31,1.45-1,3-1.9,4.47-2.93s3.09-1.67,4.53-2.69a12.61,12.61,0,0,1,2.92-1.34c1.6-.6,3.13-1.36,4.73-2s3.06-1.08,4.59-1.59a69.74,69.74,0,0,1,7.32-2.06c3-.66,6.06-1.38,9.15-1.84s6.19-.92,9.31-1.2a44.67,44.67,0,0,1,6.8-.28c.87.06,1.11-.49,1.28-1.17a22.1,22.1,0,0,0,.2-7.57A39.49,39.49,0,0,0,205.11,98a51.38,51.38,0,0,0-3.22-7.42,42.09,42.09,0,0,0-3.77-6.18,47.67,47.67,0,0,0-4.92-6.12c-.28-.27-.61-.6-.46-.88s.65-.29,1.08-.25c4.31.43,8.29,2,12.26,3.56,2.56,1,5.16,2,7.63,3.17,1.88.91,3.74,1.87,5.58,2.86,1.68.91,3.32,1.91,5.05,2.73a54.85,54.85,0,0,1,5.78,3.28c3.9,2.47,7.8,4.94,11.54,7.67a93.86,93.86,0,0,1,10.6,8.65,40.44,40.44,0,0,1,7.75,10,22.07,22.07,0,0,1,2.36,6.77,2.51,2.51,0,0,0,1.51,2.12c2.65,1.15,5.29,2.32,7.87,3.62s5.17,2.66,7.64,4.19A95.29,95.29,0,0,1,303.33,157,110.58,110.58,0,0,1,312,169.49c1.17,2,2.4,3.92,3.41,6s2,3.91,2.91,5.92c1.22,2.68,2.28,5.42,3.35,8.16.53,1.35.88,2.77,1.34,4.15a11.42,11.42,0,0,0,2,3.22,28.82,28.82,0,0,1,3.56,5.41c1.49,3.28,1.43,6.49-.92,9.49-.77,1-1.78,1.71-2.48,2.73a5.25,5.25,0,0,0-1.9-.56,32.28,32.28,0,0,1-11.43-4.84,20.69,20.69,0,0,0,6.74,3.62,29.83,29.83,0,0,0,5.94,1.79.54.54,0,0,1,.48.4c.46,1.05,1,2.08,1.35,3.16.56,1.62-.51,3.81-2,4.93-2.22,1.72-4.78,1.68-7.34,1.75-3.05.09-6.11.13-9.16.24a12.81,12.81,0,0,0-3.45,1c-2.93,1-5.85,2-8.8,2.88-3.18,1-6.4,1.8-9.62,2.62a94.94,94.94,0,0,1-10,2c-3.37.49-6.74,1-10.14,1.28l-5.37.42c-.63.41-1.33.15-2,.2a1.51,1.51,0,0,0-.94-.13,101.09,101.09,0,0,1-13.51-.37c-5-.47-10-.77-14.84-1.92a106.34,106.34,0,0,1-12.16-3.58C215.91,229,214.65,228.58,213.39,228.13Z"/>
        <path class="cls-2" d="M325,215a31,31,0,0,1-6.72-2,18.81,18.81,0,0,1-6.94-4,.58.58,0,0,1-.24-.55c2.08,1.11,4.05,2.33,6.18,3.28a22,22,0,0,0,7.26,2.1c.54,0,.57.34.64.7C325.44,214.81,325,214.81,325,215Z"/>
        <path class="cls-3" d="M183.9,192a19.87,19.87,0,0,1,4.22-7.37c1.52-1.6,3.61-2.13,5.66-2.6a81.55,81.55,0,0,1,20.44-2.26,38.47,38.47,0,0,1,12.13,2.19,11.58,11.58,0,0,1,5.15,4.27c2,2.53,2.09,4.47.57,7.29a25.57,25.57,0,0,1-9.9,9.7c-4.07,2.42-8.62,3.24-13.3,3.45a58.24,58.24,0,0,1-12.32-1c-3-.5-5.94-1.35-8.87-2.14-1.1-.3-2.2-.54-3.29-.89a1.53,1.53,0,0,1-1.26-1.43c-.05-.59-.13-1.17-.19-1.76.44-.32.87-.08,1.28,0a58.85,58.85,0,0,0,16.23,2.47A42.6,42.6,0,0,0,218,198.7a32.49,32.49,0,0,0,6.19-3.45,42.25,42.25,0,0,1-11.63,4.16,55.29,55.29,0,0,1-20.9.52,56.2,56.2,0,0,1-7.89-1.88,1.54,1.54,0,0,1-.88-.44c.11-.91.27-1.82.32-2.73a2.24,2.24,0,0,1,.32-1,10,10,0,0,1,3.32,1.18,27.11,27.11,0,0,0,7.53,1.84,31.4,31.4,0,0,0,10.62-.48A32.5,32.5,0,0,0,212,194a26.29,26.29,0,0,0,3.4-1.74,28,28,0,0,1-4.83,1.54,57.3,57.3,0,0,1-12.85,1.93c-4.51.06-8.88-.54-12.8-3A4.31,4.31,0,0,1,183.9,192Z"/>
        <path class="cls-4" d="M291.23,169.78c7.71,4,9.55,13.63,6,20.1a15,15,0,1,1-6-20.1Z"/>
        <path class="cls-4" d="M257.92,197.71a22.19,22.19,0,0,1-3.08-4.69c-.56-1.14-1.15-2.27-1.65-3.44-.6-1.42-1.17-2.87-1.67-4.33a49.66,49.66,0,0,1-2.11-8.86,37.43,37.43,0,0,1-.07-9.48,31.78,31.78,0,0,1,1.42-6.78,17.45,17.45,0,0,1,3.43-5.54,30.58,30.58,0,0,1,11.14-8.24A27.14,27.14,0,0,1,274,144c.87-.08,1.11.33,1,1.11,0,.07-.07.14-.07.21-.07,1.32-.75,1.73-2.08,1.86A23.07,23.07,0,0,0,261,151.78a20.17,20.17,0,0,0-7.27,11.1,35.08,35.08,0,0,0-1,11.69,82.53,82.53,0,0,0,1.4,10.94,76.73,76.73,0,0,0,2.58,8.8C257.1,195.46,257.52,196.58,257.92,197.71Z"/>
        <path class="cls-5" d="M182.93,197.61a12.79,12.79,0,0,1,2.79.7,53.59,53.59,0,0,0,15.43,2.07,51.86,51.86,0,0,0,13.58-1.82,56,56,0,0,0,9.42-3.52,4.76,4.76,0,0,1,1-.38,17.89,17.89,0,0,1-5.18,3.44,40.1,40.1,0,0,1-6.14,2.38,49.22,49.22,0,0,1-7.63,1.47,57.12,57.12,0,0,1-14.28-.45,60.34,60.34,0,0,1-9-2.11A2.91,2.91,0,0,1,182.93,197.61Z"/>
        <path class="cls-5" d="M183.9,192c.53-.21.84.28,1.15.48a19.37,19.37,0,0,0,8.68,2.78,42.43,42.43,0,0,0,11.38-.64,77.63,77.63,0,0,0,11-2.8c-6.93,5.62-21.39,8.15-32.49,2.06A2,2,0,0,1,183.9,192Z"/>
        <path class="cls-6" d="M294.55,189.19c-3.82,5.9-11,7.53-16.63,4a12.08,12.08,0,1,1,12.84-20.45A12,12,0,0,1,294.55,189.19Z"/>
        <path class="cls-7" d="M279,191.61a10.19,10.19,0,0,1-3.84-13.41,10.08,10.08,0,0,1,14.36-4,10,10,0,0,1,3.64,13.52A10.06,10.06,0,0,1,279,191.61Z"/>
        <path class="cls-8" d="M286,180.83a2.65,2.65,0,0,1,3.78-.84,2.8,2.8,0,0,1,.82,3.72,2.7,2.7,0,0,1-3.6.92A2.57,2.57,0,0,1,286,180.83Z"/>
      </g>
      <path class="cls-2" d="M325.32,214.42c-9.77-5.17-19.09-9.42-30-4.75-1,.44-.14,1.95.88,1.51,10.29-4.43,19.08-.07,28.19,4.75,1,.53,1.88-1,.88-1.51Z"/>
      <path class="cls-2" d="M294.4,208.39a15.29,15.29,0,0,0,.32,4.5c.24,1.1,1.93.63,1.69-.46a13.67,13.67,0,0,1-.26-4c.09-1.12-1.66-1.12-1.75,0Z"/>
    </g>
    <path class="cls-9" d="M297.41,188.94s-11.31-12.3-27.11-12.9c0,0,5.56-12.81,18.91-7.45S297.41,188.94,297.41,188.94Z"/>
  </g>
</svg>
