<svg id="Layer_1" data-name="Layer 1" xmlns="http://www.w3.org/2000/svg" width="330" height="250" viewBox="0 0 330 250">
  <defs>
    <style>
      .cls-1 {
        fill: #729e00;
      }

      .cls-2 {
        fill: #5f8400;
      }

      .cls-3 {
        fill: #628602;
      }

      .cls-4 {
        fill: #5f8300;
      }

      .cls-5 {
        fill: #506f00;
      }

      .cls-6 {
        fill: #fefefe;
      }

      .cls-7 {
        fill: #262626;
      }

      .cls-8 {
        fill: #fdfdfd;
      }

      .cls-9 {
        fill: #739f00;
      }
    </style>
  </defs>
  <title>16_sad_face_on_the_little_fish</title>
  <g>
    <g>
      <g>
        <path class="cls-1" d="M232.59,129.64c-2.15.17-4.31.32-6.45.52-1.66.16-3.32.15-5,.14-1.3,0-2.6,0-3.91,0a73.24,73.24,0,0,1-14.48-1.77,71.89,71.89,0,0,1-10.8-3.05,82.87,82.87,0,0,1-7.76-3.36,74,74,0,0,1-6.73-3.69,47.11,47.11,0,0,0-4.85-2.67c-2-1-4-1.86-6.05-2.74-3.77-1.63-7.57-3.19-11.43-4.57A87.4,87.4,0,0,0,144.27,105c-1.87-.4-9.71,3.63-11.58,4.3a4.59,4.59,0,0,0-1.55.77c-.6.52-.07,1,0,1.54a100.74,100.74,0,0,1,1.54,17,77.3,77.3,0,0,1-1.27,15.51c-.39,1.91-.81,3.8-1.36,5.67a55.64,55.64,0,0,1-1.91,5.48c-.63,1.53-1.45,3-2.16,4.47-1.29,2.73-3.33,4.92-5.13,7.28-2.49,3.26-5.18,6.37-7.68,9.62-1.76,2.3-3.51,4.62-5.26,6.92s-3.38,4.89-5.22,7.23a3.72,3.72,0,0,0-.53,3.45,76.67,76.67,0,0,1,2.36,14.79,7.16,7.16,0,0,0,.27,2.13c.17.72-.16,1.5.26,2.18,0,.41.36.85-.09,1.22.4.3.14.72.2,1.08a1,1,0,0,1,0,.74c-.05,2.72-.1,5.44-.16,8.16,0,1.76-.4,3.51-.33,5.28a1.09,1.09,0,0,1-.16,1c-.37,2.51-.69,5-1.13,7.52a26.74,26.74,0,0,1-2.13,7.35,23,23,0,0,1-2-2.6c-1.45-1.81-2.44-3.94-3.89-5.76a11.87,11.87,0,0,1-1.12-2.46,40.27,40.27,0,0,1-2.44-5.34c-.62-2.09-1.21-4.21-1.65-6.37A69.3,69.3,0,0,1,89.09,214a58.64,58.64,0,0,1,0-8.17c.21-2.83.49-5.67.9-8.48s.44-6,1.7-8.75a52.08,52.08,0,0,0,3.11-9.07,50.81,50.81,0,0,0,1-22,48.29,48.29,0,0,0-2-8.35c-.55-1.57-1.14-3.12-1.73-4.67-.26-.7-.48-1-1.31-.36-1.24,1-2.89,1.22-4.4,1.66a.79.79,0,0,1-.87.19,35.28,35.28,0,0,1-9.59-.31,47.08,47.08,0,0,1-9.78-3,52.15,52.15,0,0,1-6.18-3c-2.81-1.52-5.6-3.08-8.31-4.79a77.8,77.8,0,0,1-11-8.36A62,62,0,0,1,34,119.33c-2.49-3.13-4.15-6.72-6.21-10.1a14,14,0,0,0-4.34-4.1A27.86,27.86,0,0,0,17.37,102a44.65,44.65,0,0,0-6.84-1.93,46.15,46.15,0,0,0-5.73-1,3.54,3.54,0,0,1-1-.47c1.88-1.16,3.94-1.31,5.94-1.56A41.91,41.91,0,0,1,15,96.78a43.6,43.6,0,0,1,8.87,1,36.09,36.09,0,0,1,6.52,2,26.81,26.81,0,0,1,5.25,2.78,2.05,2.05,0,0,0,2.49.18,47,47,0,0,1,6.37-2.61c3-1.09,6-1.69,9.06-2.49s6.36-1.09,9.53-1.64a120,120,0,0,1,12.1-1c3.33-.23,6.67-.33,10-.49,5.09-.25,10.18-.08,15.27,0,4.28.07,8.53.56,12.8.93a19.67,19.67,0,0,1,2,.29.74.74,0,0,0,1-.82c0-3.45,9.78-10.22,10.37-13.59.31-1.76,4.78-7.91,5.51-9.52s1.82-3,2.55-4.62a12.61,12.61,0,0,1,1.84-2.63c1.08-1.33,2-2.76,3.08-4.1s2.09-2.48,3.15-3.69a69.74,69.74,0,0,1,5.27-5.47c2.29-2.1,4.53-4.26,7-6.22s4.87-3.93,7.42-5.74a44.67,44.67,0,0,1,5.73-3.68c.78-.39.71-1,.51-1.66a22.1,22.1,0,0,0-3.66-6.63,39.49,39.49,0,0,0-5.41-5.8,51.38,51.38,0,0,0-6.53-4.78,42.09,42.09,0,0,0-6.38-3.42,47.67,47.67,0,0,0-7.34-2.79c-.37-.09-.83-.21-.85-.53s.42-.58.81-.76c3.94-1.8,8.16-2.47,12.38-3.13,2.72-.43,5.44-.92,8.19-1.13,2.08-.16,4.17-.28,6.26-.36,1.91-.07,3.83,0,5.74-.2a54.85,54.85,0,0,1,6.65-.09c4.61.16,9.23.31,13.83.78a93.86,93.86,0,0,1,13.52,2.1A40.44,40.44,0,0,1,217.67,12a22.07,22.07,0,0,1,5.46,4.65,2.51,2.51,0,0,0,2.38,1.07c2.87-.35,5.74-.67,8.63-.86s5.81-.32,8.71-.25a95.29,95.29,0,0,1,31.39,6.21A110.58,110.58,0,0,1,288,29.18c2,1.12,4.05,2.17,6,3.43s3.7,2.36,5.5,3.63c2.41,1.7,4.71,3.53,7,5.35,1.14.9,2.16,1.95,3.25,2.9a11.42,11.42,0,0,0,3.37,1.75A28.82,28.82,0,0,1,319,49.12c2.94,2.07,4.51,4.88,4,8.65-.17,1.23-.68,2.37-.76,3.61a5.25,5.25,0,0,0-1.92.48A32.28,32.28,0,0,1,308,63.46a20.69,20.69,0,0,0,7.65-.29,29.83,29.83,0,0,0,6-1.46.54.54,0,0,1,.62.11c.93.68,1.9,1.3,2.77,2,1.3,1.11,1.49,3.55.81,5.24-1,2.6-3.27,3.86-5.45,5.22-2.59,1.62-5.2,3.21-7.78,4.84a12.81,12.81,0,0,0-2.47,2.62c-2,2.31-4.06,4.64-6.13,6.93-2.23,2.47-4.61,4.79-7,7.13a94.94,94.94,0,0,1-7.57,6.76c-2.66,2.13-5.29,4.3-8.1,6.23l-4.42,3.08c-.34.67-1.07.8-1.63,1.18a1.51,1.51,0,0,0-.87.36A101.09,101.09,0,0,1,262.61,120c-4.52,2.1-9,4.37-13.77,5.85a106.34,106.34,0,0,1-12.3,3.06C235.22,129.12,233.91,129.38,232.59,129.64Z"/>
        <path class="cls-2" d="M322.27,61.82a31,31,0,0,1-6.8,1.7,18.81,18.81,0,0,1-8,.09.58.58,0,0,1-.48-.36c2.35-.1,4.68,0,7-.29a22,22,0,0,0,7.32-1.86c.49-.24.66,0,.91.28C322.53,61.48,322.18,61.68,322.27,61.82Z"/>
        <path class="cls-3" d="M188.87,113.36a19.87,19.87,0,0,1-.08-8.49c.5-2.15,2-3.66,3.57-5.11a81.55,81.55,0,0,1,16.49-12.28,38.47,38.47,0,0,1,11.57-4.24,11.58,11.58,0,0,1,6.6,1.08c3,1.19,4.07,2.8,4.18,6a25.57,25.57,0,0,1-3.64,13.37c-2.29,4.14-5.8,7.15-9.73,9.71a58.24,58.24,0,0,1-11.15,5.34c-2.86,1.09-5.8,1.84-8.74,2.64-1.1.3-2.18.64-3.29.9a1.53,1.53,0,0,1-1.81-.6c-.34-.48-.7-.95-1.06-1.42.21-.5.71-.51,1.12-.61a58.85,58.85,0,0,0,15.25-6.07,42.6,42.6,0,0,0,13.56-11.68,32.49,32.49,0,0,0,3.6-6.11,42.25,42.25,0,0,1-7.93,9.47,55.29,55.29,0,0,1-17.77,11,56.2,56.2,0,0,1-7.76,2.37,1.54,1.54,0,0,1-1,.06c-.36-.84-.68-1.7-1.1-2.52a2.24,2.24,0,0,1-.24-1.05,10,10,0,0,1,3.46-.66,27.11,27.11,0,0,0,7.43-2.22,31.4,31.4,0,0,0,8.92-5.79,32.5,32.5,0,0,0,4.75-5.57,26.29,26.29,0,0,0,2.05-3.22,28,28,0,0,1-3.39,3.77,57.3,57.3,0,0,1-10.12,8.16c-3.86,2.33-7.93,4-12.57,3.88A4.31,4.31,0,0,1,188.87,113.36Z"/>
        <path class="cls-4" d="M270.25,39.93c8.69-.4,15.13,6.93,15.32,14.32a15,15,0,1,1-15.32-14.32Z"/>
        <path class="cls-4" d="M255.63,80.87a22.19,22.19,0,0,1-5-2.49c-1.06-.71-2.14-1.38-3.16-2.14-1.24-.92-2.46-1.88-3.63-2.89a49.66,49.66,0,0,1-6.3-6.57,37.43,37.43,0,0,1-4.85-8.15,31.78,31.78,0,0,1-2.21-6.57,17.45,17.45,0,0,1,.16-6.52,30.58,30.58,0,0,1,5.44-12.74,27.14,27.14,0,0,1,6.29-6.44c.71-.5,1.13-.27,1.41.46,0,.07,0,.15,0,.22.61,1.18.23,1.87-.85,2.66a23.07,23.07,0,0,0-7.9,10A20.17,20.17,0,0,0,234.38,53a35.08,35.08,0,0,0,5.09,10.57,82.53,82.53,0,0,0,6.74,8.73,76.73,76.73,0,0,0,6.67,6.29C253.79,79.34,254.72,80.1,255.63,80.87Z"/>
        <path class="cls-5" d="M190.89,118.71a12.79,12.79,0,0,1,2.76-.81,53.59,53.59,0,0,0,14.36-6,51.86,51.86,0,0,0,10.8-8.44,56,56,0,0,0,6.35-7.8,4.76,4.76,0,0,1,.68-.84,17.89,17.89,0,0,1-2.72,5.59,40.1,40.1,0,0,1-4.09,5.15,49.22,49.22,0,0,1-5.84,5.13,57.12,57.12,0,0,1-12.55,6.84,60.34,60.34,0,0,1-8.84,2.73A2.91,2.91,0,0,1,190.89,118.71Z"/>
        <path class="cls-5" d="M188.87,113.36c.35-.45.87-.19,1.24-.17a19.37,19.37,0,0,0,8.89-2,42.43,42.43,0,0,0,9.5-6.31,77.63,77.63,0,0,0,8-8c-3.14,8.35-14.33,17.85-27,18.21A2,2,0,0,1,188.87,113.36Z"/>
        <path class="cls-6" d="M282.93,55c-.31,7-5.64,12-12.33,11.85a12.08,12.08,0,1,1,.74-24.14A12,12,0,0,1,282.93,55Z"/>
        <path class="cls-7" d="M270.76,64.93a10.19,10.19,0,0,1-10.1-9.63A10.08,10.08,0,0,1,271,44.59a10,10,0,0,1,10,9.82A10.06,10.06,0,0,1,270.76,64.93Z"/>
        <path class="cls-8" d="M271.33,52.11a2.65,2.65,0,0,1,2.83-2.64,2.8,2.8,0,0,1,2.58,2.8,2.7,2.7,0,0,1-2.64,2.62A2.57,2.57,0,0,1,271.33,52.11Z"/>
      </g>
      <path class="cls-2" d="M321.16,60.82a80.93,80.93,0,0,0-28,6.73c-1,.45-.14,2,.88,1.51a78.33,78.33,0,0,1,27.14-6.49c1.12-.06,1.13-1.81,0-1.75Z"/>
      <path class="cls-2" d="M291.6,66.11a15.17,15.17,0,0,0,1.95,4.06c.63.92,2.15.05,1.51-.88a13.55,13.55,0,0,1-1.77-3.64c-.33-1.07-2-.61-1.69.46Z"/>
    </g>
    <path class="cls-9" d="M285.26,53.34s-16-4.9-29.92,2.58c0,0-1.68-13.86,12.55-16S285.26,53.34,285.26,53.34Z"/>
  </g>
</svg>
