<svg id="Layer_7" data-name="Layer 7" xmlns="http://www.w3.org/2000/svg" xmlns:xlink="http://www.w3.org/1999/xlink" viewBox="0 0 1920 1080">
  <defs>
    <style>
      .cls-1 {
        fill: none;
      }

      .cls-2 {
        clip-path: url(#clip-path);
      }

      .cls-3 {
        fill: #9b977c;
      }

      .cls-4 {
        fill: #99d7f2;
      }

      .cls-5 {
        opacity: 0.4;
      }

      .cls-6 {
        fill: #a9efff;
      }
    </style>
    <clipPath id="clip-path">
      <rect class="cls-1" width="1920" height="1080"/>
    </clipPath>
  </defs>
  <title>River-flowing-6</title>
  <g class="cls-2">
    <path class="cls-3" d="M264.9,1312.62c27.39-30.33,50.12-62.15,77.94-89.61,7.77-7.68,15.31-15.64,23.54-22.79,15.78-13.69,33.72-29.61,44.83-47.53,10.1-16.31,15.08-39.82,19.47-58.83,14.33-62.11-17.23-131.93-73.33-162.2-15-8.06-31.16-13.47-47.27-18.83l-45.55-15.16c77.07-9.81,158,34.5,191.3,104.7,14.12,29.79,19.85,65.53,6.36,95.6-7.82,17.44-21.14,29.06-33.54,43-10.76,12.07-19.7,25.19-31.83,36.44-30.76,28.5-61.07,57.54-84.32,93.2-7.46,11.44-15.9,22.62-24.43,33.51-7.53,9.63-7.58,9.59-23.17,8.54"/>
    <path class="cls-3" d="M1457.86,1305.49c-31.57-26.78-62.49-54.38-94.93-80.06-36.33-28.77-73.66-56.87-115.1-77.66-50-25.12-98.85-52.26-146.82-81-18.76-11.24-38.5-22.16-51.12-40.38-14.17-20.47-34.1-32.58-54.34-45.3-31.47-19.79-68.14-26.63-101.37-42.29-24.56-11.57-48.84-25-73.42-36-22.06-9.83-45-17.41-67.72-25.56-19.24-6.9-36-9.51-56.17-12.09-12.24-1.56-24.83-1.38-37.26-2.14-13.22-.82-27.78,1.37-40.72,4-8.92,1.85-14.71,9.13-23.74,10.31q31.54-.4,63.08-.89a235.59,235.59,0,0,1,51.48,4.94c15.81,3.22,30.64,8.29,47,8.66,13,.3,27.72,9.07,39.81,13.74,16,5.34,33.83,11.24,47.49,20.84,15.05,10.59,34.69,16.82,52.15,22.06,60.2,18.06,108.22,54.65,153.43,96,22.49,20.55,43.57,42.94,69.58,59,41.09,25.41,82.56,50.3,124.81,73.72,65.59,36.36,126.2,78.92,177.16,134.4,1.58,1.72,3,3.39,5.73,3.37,12.34-.07,24.69,0,39.24,0-4-3.73-6.07-5.78-8.27-7.65"/>
    <path class="cls-4" d="M111.7,854.83C143.33,856.55,188.24,858,196,858c51.18-.17,92.77-1.37,144.19-1.5q109.16-.27,218.16,6.68c66.6,4.25,138.89,1.2,202.79,22.19,54.76,18,102.45,48.62,155.7,68.61,36,13.51,71.29,28.51,101.84,52.63a156.72,156.72,0,0,1,27,27.48c24.82,32.19,56.47,56.49,91,77.35,45,27.22,92.52,50.06,137.37,77.6a1166,1166,0,0,1,145.83,106.12c5.79,4.93,11.39,10.06,17,15.16.37.34.3,1.16.49,2-3,1.85-6.36.85-9.48.85-249.8.06-887.51.06-1137.3,0-3.37,0-8.09,2.12-9.93-1.73-1.42-3,2.22-5.84,4-8.57,27.53-43.2,60.53-81.72,98.32-116.33,17.54-16.06,36.11-32,47.27-53.24,13.8-26.27,24-53.11,18.3-85C439.9,999.6,422.52,968.59,380,941.76c-38.38-24.21-82.86-36.52-126.19-48.53-46.42-12.87-93.66-23.94-142.1-24.13-.12,0-124.93-.49-213.33-1.93-48.37,0-96.67-.9-145,.39-59,1.57-117.29,5.83-175.55,14.13-26.5,3.77-53.57,7.54-79.88,2.61-9.38-1.76-18.68-4.62-28.23-4.46,16.2-6.55,31.83-4.73,48.85-4.73,11.83,0,23.67-.2,35.49-.86,11.32-.63,22.63-1.67,33.86-3.31,23-3.38,44.68-7.76,67.83-7,12.11.4,24.95-2.11,37.08-2.86,13-.8,25.9-1.43,38.85-2,72-3.35,144-4.66,216-7q14.13-.46,28.25-1a1079.35,1079.35,0,0,1,135.86,3.8"/>
  </g>
  <g class="cls-5">
    <path class="cls-6" d="M467,1015.5c29.63,21.46,71.76,19.77,100.33-2.57l-6.5.84c36.81,24.36,87.43,24.33,124.21-.1h-5.42a144.2,144.2,0,0,0,75.47,21.2c20.77-.1,45.06-5.82,53.46-27.15l-7.88,3.2a156.63,156.63,0,0,0,67.78,22.49c10.81,1,23.7,2,33.85-2.53,9.66-4.35,15-15,10.32-24.93l-7.34,7.34a163.84,163.84,0,0,0,30.15,14.24c9.77,3.44,21.12,7.28,31.63,6.4,8.61-.72,16.43-5.11,18.75-13.86,2.06-7.8-1.16-15.37-8.67-18.39-6.4-2.59-9.19,7.79-2.85,10.34,3.91,1.58.08,8.35-2.06,9.62-5.68,3.35-13.55,1.3-19.47-.15A150.42,150.42,0,0,1,910.73,1004c-4.92-3-9.5,2.75-7.34,7.34,1.7,3.62-1.43,7.5-4.39,9.23-3.91,2.29-8.82,2.5-13.23,2.64a138.42,138.42,0,0,1-27.87-2,146.73,146.73,0,0,1-51.78-19.63c-3.22-2-6.66.1-7.89,3.2-7.05,17.91-32,19.75-48.27,19.21a133.39,133.39,0,0,1-64.89-19.66,5.32,5.32,0,0,0-5.42,0c-33.8,22.45-79.54,22.49-113.38.1-2.16-1.43-4.67-.59-6.5.84-25,19.52-61.92,19.28-87.33.88-5.6-4.05-11,5.25-5.41,9.27Z"/>
  </g>
</svg>
