<svg id="Layer_5" data-name="Layer 5" xmlns="http://www.w3.org/2000/svg" xmlns:xlink="http://www.w3.org/1999/xlink" viewBox="0 0 1920 1080">
  <defs>
    <style>
      .cls-1 {
        fill: none;
      }

      .cls-2 {
        clip-path: url(#clip-path);
      }

      .cls-3 {
        fill: #9b977c;
      }

      .cls-4 {
        fill: #99d7f2;
      }

      .cls-5 {
        opacity: 0.5;
      }

      .cls-6 {
        fill: #a9efff;
      }
    </style>
    <clipPath id="clip-path">
      <rect class="cls-1" width="1920" height="1080"/>
    </clipPath>
  </defs>
  <title>River-flowing-4</title>
  <g class="cls-2">
    <path class="cls-3" d="M264.9,1312.62c27.39-30.33,50.12-62.15,77.94-89.61,7.77-7.68,15.31-15.64,23.54-22.79,15.78-13.69,33.72-29.61,44.83-47.53,10.1-16.31,15.08-39.82,19.47-58.83,14.33-62.11-17.23-131.93-73.33-162.2-15-8.06-31.16-13.47-47.27-18.83l-45.55-15.16c77.07-9.81,158,34.5,191.3,104.7,14.12,29.79,19.85,65.53,6.36,95.6-7.82,17.44-21.14,29.06-33.54,43-10.76,12.07-19.7,25.19-31.83,36.44-30.76,28.5-61.07,57.54-84.32,93.2-7.46,11.44-15.9,22.62-24.43,33.51-7.53,9.63-7.58,9.59-23.17,8.54"/>
    <path class="cls-3" d="M1457.86,1305.49c-31.57-26.78-62.49-54.38-94.93-80.06-36.33-28.77-73.66-56.87-115.1-77.66-50-25.12-98.85-52.26-146.82-81-18.76-11.24-38.5-22.16-51.12-40.38-14.17-20.47-34.1-32.58-54.34-45.3-31.47-19.79-68.14-26.63-101.37-42.29-24.56-11.57-48.84-25-73.42-36-22.06-9.83-45-17.41-67.72-25.56-19.24-6.9-36-9.51-56.17-12.09-12.24-1.56-24.83-1.38-37.26-2.14-13.22-.82-27.78,1.37-40.72,4-8.92,1.85-14.71,9.13-23.74,10.31q31.54-.4,63.08-.89a235.59,235.59,0,0,1,51.48,4.94c15.81,3.22,30.64,8.29,47,8.66,13,.3,27.72,9.07,39.81,13.74,16,5.34,33.83,11.24,47.49,20.84,15.05,10.59,34.69,16.82,52.15,22.06,60.2,18.06,108.22,54.65,153.43,96,22.49,20.55,43.57,42.94,69.58,59,41.09,25.41,82.56,50.3,124.81,73.72,65.59,36.36,126.2,78.92,177.16,134.4,1.58,1.72,3,3.39,5.73,3.37,12.34-.07,24.69,0,39.24,0-4-3.73-6.07-5.78-8.27-7.65"/>
    <path class="cls-4" d="M111.7,854.83C143.33,856.55,188.24,858,196,858c51.18-.17,92.77-1.37,144.19-1.5q109.16-.27,218.16,6.68c66.6,4.25,138.89,1.2,202.79,22.19,54.76,18,102.45,48.62,155.7,68.61,36,13.51,71.29,28.51,101.84,52.63a156.72,156.72,0,0,1,27,27.48c24.82,32.19,56.47,56.49,91,77.35,45,27.22,92.52,50.06,137.37,77.6a1166,1166,0,0,1,145.83,106.12c5.79,4.93,11.39,10.06,17,15.16.37.34.3,1.16.49,2-3,1.85-6.36.85-9.48.85-249.8.06-887.51.06-1137.3,0-3.37,0-8.09,2.12-9.93-1.73-1.42-3,2.22-5.84,4-8.57,27.53-43.2,60.53-81.72,98.32-116.33,17.54-16.06,36.11-32,47.27-53.24,13.8-26.27,24-53.11,18.3-85C439.9,999.6,422.52,968.59,380,941.76c-38.38-24.21-82.86-36.52-126.19-48.53-46.42-12.87-93.66-23.94-142.1-24.13-.12,0-124.93-.49-213.33-1.93-48.37,0-96.67-.9-145,.39-59,1.57-117.29,5.83-175.55,14.13-26.5,3.77-53.57,7.54-79.88,2.61-9.38-1.76-18.68-4.62-28.23-4.46,16.2-6.55,31.83-4.73,48.85-4.73,11.83,0,23.67-.2,35.49-.86,11.32-.63,22.63-1.67,33.86-3.31,23-3.38,44.68-7.76,67.83-7,12.11.4,24.95-2.11,37.08-2.86,13-.8,25.9-1.43,38.85-2,72-3.35,144-4.66,216-7q14.13-.46,28.25-1a1079.35,1079.35,0,0,1,135.86,3.8"/>
  </g>
  <g class="cls-5">
    <path class="cls-6" d="M503.71,1017.11c32.5,30.74,88.77,29.27,119.4-3.47h-5.73a159.57,159.57,0,0,0,79.25,38.14c25.36,4.23,53,2.8,75.64-10.52A60.62,60.62,0,0,0,798.14,1012l-6.76,1.79c15.22,12.53,31.89,26.13,52.29,28.06,16.17,1.53,34.13-5.11,41.52-20.37l-5.54,1.45c19,13.75,42.38,25,66.49,21.51,19.69-2.89,38.45-16.23,43.35-36.17,1.25-5.06-6.56-7.22-7.8-2.15-4.37,17.73-21.83,29.09-39.39,30.68-21.46,1.94-41.71-8.69-58.57-20.86a4.07,4.07,0,0,0-5.54,1.45c-6.4,13.23-22.1,18.17-36,16.18-17.44-2.5-32-14.69-45.14-25.51-2.52-2.07-5.55-1.14-6.77,1.79-11.36,27.46-45.1,36.73-72.22,36a150.91,150.91,0,0,1-95-37.91,4.12,4.12,0,0,0-5.73,0c-27.58,29.47-78.55,31.27-107.94,3.47-3.79-3.58-9.52,2.13-5.73,5.72Z"/>
  </g>
  <path class="cls-6" d="M443.11,937A73.16,73.16,0,0,0,495,965.83c21.17,1.8,42.5-6.77,57.22-21.89H546.8c23.35,27,65.41,27.6,89.69,1.51h-5.38c22.77,18.43,57.79,17,78.7-3.7h-5.38C719,953.62,736.05,967.49,756,966.58c15.09-.69,31.12-9.88,33.77-25.78l-7,.91c8.05,12.21,20.9,25,36.91,22C833.84,961,844,946.32,835.43,933.1c-2.66-4.09-9.25-.28-6.57,3.84,6.61,10.18-3.78,19.68-14.05,19.61-11.17-.08-19.81-10.16-25.43-18.68-1.62-2.46-6.38-2.56-7,.91-2.25,13.5-16.26,20.56-29,20.22-16.78-.45-31.25-12.55-43.59-22.63a3.89,3.89,0,0,0-5.38,0c-17.75,17.6-48.39,19.52-67.94,3.7-1.55-1.26-3.86-1.63-5.38,0a52.86,52.86,0,0,1-78.93-1.52,3.84,3.84,0,0,0-5.38,0c-27.08,27.81-73.4,25.67-97.12-5.42-2.93-3.84-9.54-.06-6.57,3.84Z"/>
  <path class="cls-6" d="M353.82,891.75c21.16,15.2,50.75,14,71.16-1.81l-4.61.59c26.25,17.25,61.87,17.22,88.09-.07h-3.84a102.55,102.55,0,0,0,54.35,15c14.63-.2,31.09-4.46,37.09-19.25l-5.59,2.27a111.29,111.29,0,0,0,50.7,16.15c7.65.51,17.14,1.15,23.84-3.33A13,13,0,0,0,669.87,885l-5.2,5.21A116.15,116.15,0,0,0,688,900.94c6.78,2.24,14.43,4.68,21.65,3.76,5.48-.69,10.5-3.79,12.08-9.32,1.42-5-.11-10.85-5.14-13-4.45-2-8.33,4.61-3.84,6.57,3.95,1.72,1.18,6.56-1.79,7.71-4.42,1.71-9.79.12-14.16-1a107.46,107.46,0,0,1-28.24-12c-3.55-2.12-6.65,2-5.21,5.21,3.29,7.41-10.19,8.4-14.25,8.45a99,99,0,0,1-19-1.61,104.58,104.58,0,0,1-35.69-13.73c-2.3-1.41-4.7.08-5.59,2.27-5.23,12.89-23.12,14.09-34.91,13.6a95.12,95.12,0,0,1-45.35-13.92,3.77,3.77,0,0,0-3.84,0,73.82,73.82,0,0,1-80.41.07c-1.55-1-3.31-.42-4.61.6-17.84,13.82-43.8,13.65-61.94.62-4-2.86-7.79,3.74-3.84,6.57Z"/>
</svg>
