<svg id="Layer_6" data-name="Layer 6" xmlns="http://www.w3.org/2000/svg" xmlns:xlink="http://www.w3.org/1999/xlink" viewBox="0 0 1920 1080">
  <defs>
    <style>
      .cls-1 {
        fill: none;
      }

      .cls-2 {
        clip-path: url(#clip-path);
      }

      .cls-3 {
        fill: #9b977c;
      }

      .cls-4 {
        fill: #99d7f2;
      }

      .cls-5 {
        opacity: 0.4;
      }

      .cls-6 {
        fill: #a9efff;
      }
    </style>
    <clipPath id="clip-path">
      <rect class="cls-1" width="1920" height="1080"/>
    </clipPath>
  </defs>
  <title>River-flowing-5</title>
  <g class="cls-2">
    <path class="cls-3" d="M264.9,1312.62c27.39-30.33,50.12-62.15,77.94-89.61,7.77-7.68,15.31-15.64,23.54-22.79,15.78-13.69,33.72-29.61,44.83-47.53,10.1-16.31,15.08-39.82,19.47-58.83,14.33-62.11-17.23-131.93-73.33-162.2-15-8.06-31.16-13.47-47.27-18.83l-45.55-15.16c77.07-9.81,158,34.5,191.3,104.7,14.12,29.79,19.85,65.53,6.36,95.6-7.82,17.44-21.14,29.06-33.54,43-10.76,12.07-19.7,25.19-31.83,36.44-30.76,28.5-61.07,57.54-84.32,93.2-7.46,11.44-15.9,22.62-24.43,33.51-7.53,9.63-7.58,9.59-23.17,8.54"/>
    <path class="cls-3" d="M1457.86,1305.49c-31.57-26.78-62.49-54.38-94.93-80.06-36.33-28.77-73.66-56.87-115.1-77.66-50-25.12-98.85-52.26-146.82-81-18.76-11.24-38.5-22.16-51.12-40.38-14.17-20.47-34.1-32.58-54.34-45.3-31.47-19.79-68.14-26.63-101.37-42.29-24.56-11.57-48.84-25-73.42-36-22.06-9.83-45-17.41-67.72-25.56-19.24-6.9-36-9.51-56.17-12.09-12.24-1.56-24.83-1.38-37.26-2.14-13.22-.82-27.78,1.37-40.72,4-8.92,1.85-14.71,9.13-23.74,10.31q31.54-.4,63.08-.89a235.59,235.59,0,0,1,51.48,4.94c15.81,3.22,30.64,8.29,47,8.66,13,.3,27.72,9.07,39.81,13.74,16,5.34,33.83,11.24,47.49,20.84,15.05,10.59,34.69,16.82,52.15,22.06,60.2,18.06,108.22,54.65,153.43,96,22.49,20.55,43.57,42.94,69.58,59,41.09,25.41,82.56,50.3,124.81,73.72,65.59,36.36,126.2,78.92,177.16,134.4,1.58,1.72,3,3.39,5.73,3.37,12.34-.07,24.69,0,39.24,0-4-3.73-6.07-5.78-8.27-7.65"/>
    <path class="cls-4" d="M111.7,854.83C143.33,856.55,188.24,858,196,858c51.18-.17,92.77-1.37,144.19-1.5q109.16-.27,218.16,6.68c66.6,4.25,138.89,1.2,202.79,22.19,54.76,18,102.45,48.62,155.7,68.61,36,13.51,71.29,28.51,101.84,52.63a156.72,156.72,0,0,1,27,27.48c24.82,32.19,56.47,56.49,91,77.35,45,27.22,92.52,50.06,137.37,77.6a1166,1166,0,0,1,145.83,106.12c5.79,4.93,11.39,10.06,17,15.16.37.34.3,1.16.49,2-3,1.85-6.36.85-9.48.85-249.8.06-887.51.06-1137.3,0-3.37,0-8.09,2.12-9.93-1.73-1.42-3,2.22-5.84,4-8.57,27.53-43.2,60.53-81.72,98.32-116.33,17.54-16.06,36.11-32,47.27-53.24,13.8-26.27,24-53.11,18.3-85C439.9,999.6,422.52,968.59,380,941.76c-38.38-24.21-82.86-36.52-126.19-48.53-46.42-12.87-93.66-23.94-142.1-24.13-.12,0-124.93-.49-213.33-1.93-48.37,0-96.67-.9-145,.39-59,1.57-117.29,5.83-175.55,14.13-26.5,3.77-53.57,7.54-79.88,2.61-9.38-1.76-18.68-4.62-28.23-4.46,16.2-6.55,31.83-4.73,48.85-4.73,11.83,0,23.67-.2,35.49-.86,11.32-.63,22.63-1.67,33.86-3.31,23-3.38,44.68-7.76,67.83-7,12.11.4,24.95-2.11,37.08-2.86,13-.8,25.9-1.43,38.85-2,72-3.35,144-4.66,216-7q14.13-.46,28.25-1a1079.35,1079.35,0,0,1,135.86,3.8"/>
  </g>
  <g class="cls-5">
    <path class="cls-6" d="M463.05,1002.14c16.55,21.82,41.61,36.07,69,38.19,27.8,2.16,55.85-9,75.16-29h-7.11A80.36,80.36,0,0,0,659,1039.19c22.46.42,44.55-9.4,59.74-25.84h-7.12c29.94,24.41,76.58,22.55,104-4.89h-7.11c19,15.54,41.18,33.55,67.2,32.87,20.14-.53,42.19-12.78,45.61-34.13l-9.19,1.2c10.65,16.24,27.71,33,48.91,29,18.41-3.47,32.27-23.14,20.65-40.41-3.6-5.34-12.31-.31-8.69,5.08,8.64,12.82-4.1,25.17-17.11,25.89-15.35.85-27.47-13.07-35.08-24.67-2.12-3.24-8.46-3.39-9.19,1.2-2.87,17.93-21.69,27.19-38.51,26.73-22.11-.6-41.23-16.63-57.49-29.91-2.1-1.72-5-2.08-7.11,0-23.32,23.28-64.12,25.84-89.82,4.89-2-1.67-5.12-2.16-7.12,0A70.42,70.42,0,0,1,659,1029.13c-20-.36-38.79-9.85-51.72-24.89-1.75-2-5.33-1.84-7.11,0a86.1,86.1,0,0,1-66.5,26.14c-24.1-1.43-47.35-14.12-61.9-33.32-3.86-5.09-12.6-.08-8.69,5.08Z"/>
  </g>
  <path class="cls-6" d="M418.09,944.16c23.57,17,56.72,15.64,79.44-2l-5.15.66c29.25,19.27,69.13,19.24,98.34-.08h-4.28a114.31,114.31,0,0,0,60.22,16.78c16.4-.15,35.15-4.79,41.85-21.49l-6.23,2.54a124.3,124.3,0,0,0,55.94,18c8.5.6,19,1.38,26.59-3.27,6.54-4,9.28-11.66,6.1-18.66l-5.81,5.81a129.79,129.79,0,0,0,25.32,11.78c7.62,2.57,16.32,5.38,24.46,4.47,6.46-.72,12.22-4.27,14-10.81,1.45-5.43-.36-11.89-5.84-14.21-5-2.1-9.31,5.21-4.29,7.34,3.74,1.58,2,6.56-.88,8.19-4.6,2.55-11,.77-15.71-.41a119.6,119.6,0,0,1-32.74-13.68c-3.93-2.36-7.46,2.17-5.81,5.81,3.41,7.51-9.66,9.25-14,9.39a108.56,108.56,0,0,1-22.48-1.61,117,117,0,0,1-40.59-15.47c-2.56-1.57-5.25.09-6.24,2.54-5.76,14.36-25.77,15.69-38.82,15.18a105.89,105.89,0,0,1-50.78-15.54,4.18,4.18,0,0,0-4.28,0,82.4,82.4,0,0,1-89.77.08c-1.72-1.14-3.7-.47-5.15.66-19.85,15.44-48.94,15.25-69.14.7-4.44-3.2-8.69,4.17-4.29,7.34Z"/>
</svg>
