<svg id="Layer_1" data-name="Layer 1" xmlns="http://www.w3.org/2000/svg" viewBox="0 0 2005.7 156.8">
  <defs>
    <style>
      .cls-1 {
        fill: #9b977c;
      }

      .cls-2 {
        fill: #99d7f2;
      }
    </style>
  </defs>
  <title>River</title>
  <path class="cls-1" d="M1947.12,951.14c-38.48-20.34-114.27-7.22-144.93-11.15-42-5.37-83.38-11.25-125.07-19.69-106.1-21.48-215.26-33.46-322.68-20.14-41.77,5.17-83,14.14-125,17.62-66.69,5.54-133.63-2.88-200.45-6.38-84.4-4.43-168.91-1-253.3,1.94-56.06,1.94-105.55,8.06-161.41,1.17-61.71-7.61-123.63-14.39-185.87-14.9q-139.14-1.12-278.21,5.32c-42.76,2-91.71,21.67-134.86,29.28-13.78,2.43-32.74,6.4-37.83,21.72-4.89,14.69,9.66,27.12,8,40.3,19.54,0,39.08-.06,58.62-.06H1712c84.37,0,174.49,8.46,258.09-.8C1972.1,973,1962.65,959.34,1947.12,951.14Z" transform="translate(35.34 -894.57)"/>
  <path class="cls-2" d="M1938.9,971.49A99.84,99.84,0,0,0,1895,951.65c-25.87-4.53-52.38-1.09-78.64-1.22-74.25-.39-145.35-29.25-219.07-38-32.44-3.85-66,3.66-97.94-1.16-28-4.23-52.59-11.14-82.06-10.14-44.07,1.48-87.43,10.88-131,17.37-95.35,14.17-183.17,6.92-278-1.31-95.31-8.27-191-.6-286.31,4.17-34.78,1.74-69.77,3.1-104.34-1.17C449.5,899.4,263.17,899.06,97,932.82c-31.46,6.39-80.27,5.07-107.87,22.31C-19,960.21-34.54,976-35.34,985.79c0-.35,18.21,63.47,11.75,62,.8.18,55.89,0,58.79,0H1703.08c84.37,0,174.49,8.46,258.09-.79C1962.84,1028.51,1953.05,982.9,1938.9,971.49Z" transform="translate(35.34 -894.57)"/>
</svg>
