<svg id="Layer_1" data-name="Layer 1" xmlns="http://www.w3.org/2000/svg" viewBox="0 0 1996.47 463.31">
  <defs>
    <style>
      .cls-1 {
        fill: #9b977c;
      }

      .cls-2 {
        fill: #99d7f2;
      }
    </style>
  </defs>
  <title>River-flowing-1</title>
  <g>
    <path class="cls-1" d="M264.9,1312.62c27.39-30.33,50.12-62.15,77.94-89.61,7.77-7.68,15.31-15.64,23.54-22.79,15.78-13.69,33.72-29.61,44.83-47.53,10.1-16.31,15.08-39.82,19.47-58.83,14.33-62.11-17.23-131.93-73.33-162.2-15-8.06-31.16-13.47-47.27-18.83l-45.55-15.16c77.07-9.81,158,34.5,191.3,104.7,14.12,29.79,19.85,65.53,6.36,95.6-7.82,17.43-21.14,29.06-33.54,43-10.76,12.07-19.7,25.19-31.83,36.44-30.76,28.5-61.07,57.54-84.32,93.2-7.46,11.44-15.9,22.62-24.43,33.51C280.54,1313.71,280.49,1313.67,264.9,1312.62Z" transform="translate(530.33 -850.34)"/>
    <path class="cls-1" d="M1457.86,1305.49c-31.57-26.78-62.49-54.38-94.93-80.06-36.33-28.77-73.66-56.87-115.1-77.66-50-25.12-98.85-52.26-146.82-81-18.76-11.24-38.5-22.16-51.12-40.38-14.17-20.47-34.1-32.58-54.34-45.3-31.47-19.79-68.14-26.63-101.37-42.29-24.55-11.57-48.84-25-73.42-36-22.06-9.83-45-17.41-67.72-25.56-19.24-6.9-36-9.51-56.17-12.09-12.24-1.56-24.83-1.38-37.26-2.15-13.22-.81-27.79,1.38-40.72,4.06-8.92,1.85-14.71,9.13-23.74,10.31q31.54-.4,63.08-.89a236.2,236.2,0,0,1,51.48,4.94c15.81,3.22,30.64,8.29,47,8.66,13,.3,27.72,9.07,39.81,13.74,16,5.34,33.83,11.24,47.49,20.84,15.06,10.59,34.69,16.82,52.15,22.06,60.2,18.06,108.22,54.65,153.42,96,22.5,20.55,43.58,42.94,69.59,59,41.09,25.41,82.56,50.3,124.81,73.72,65.59,36.36,126.2,78.92,177.16,134.4,1.58,1.72,3,3.39,5.73,3.37,12.34-.07,24.69,0,39.25,0C1462.11,1309.41,1460.06,1307.36,1457.86,1305.49Z" transform="translate(530.33 -850.34)"/>
    <path class="cls-2" d="M111.7,854.83C143.33,856.55,188.24,858,196,858c51.18-.17,92.77-1.37,144.19-1.5q109.16-.27,218.16,6.68c66.6,4.25,138.89,1.2,202.79,22.19,54.76,18,102.45,48.63,155.7,68.61,36,13.51,71.29,28.51,101.84,52.63a156.72,156.72,0,0,1,27,27.48c24.82,32.19,56.47,56.49,91,77.35,45,27.22,92.52,50.06,137.37,77.6a1167,1167,0,0,1,145.83,106.12c5.79,4.92,11.39,10.06,17,15.16.37.34.3,1.16.49,2-3,1.85-6.36.85-9.48.85-249.8.06-887.51.06-1137.3,0-3.37,0-8.09,2.12-9.93-1.73-1.42-3,2.22-5.84,4-8.57,27.53-43.2,60.53-81.72,98.32-116.33,17.54-16.06,36.11-32,47.27-53.24,13.8-26.27,24-53.11,18.3-85C439.9,999.6,422.52,968.59,380,941.76c-38.38-24.21-82.86-36.52-126.19-48.53-46.42-12.87-93.66-23.94-142.1-24.13-.12,0-124.93-.49-213.33-1.93-48.37,0-96.67-.9-145,.39-59,1.57-117.29,5.83-175.55,14.13-26.5,3.77-53.57,7.54-79.88,2.61-9.38-1.76-18.68-4.62-28.23-4.46,16.2-6.54,31.83-4.73,48.85-4.73,11.83,0,23.67-.2,35.49-.86,11.32-.63,22.63-1.67,33.86-3.32,23-3.37,44.68-7.75,67.83-7,12.11.4,24.95-2.11,37.08-2.86,13-.8,25.9-1.43,38.85-2,72-3.35,144-4.66,216-7q14.13-.45,28.25-1A1079.35,1079.35,0,0,1,111.7,854.83Z" transform="translate(530.33 -850.34)"/>
  </g>
</svg>
