<svg id="Layer_1" data-name="Layer 1" xmlns="http://www.w3.org/2000/svg" xmlns:xlink="http://www.w3.org/1999/xlink" viewBox="0 0 1024 600"><defs><style>.cls-1{fill:none;}.cls-2{clip-path:url(#clip-path);}.cls-3{fill:#38a4fc;}.cls-4{fill:#73c9fe;}</style><clipPath id="clip-path"><rect id="SVGID" class="cls-1" width="1024" height="600"/></clipPath></defs><title>15_water_wave</title><g class="cls-2"><rect class="cls-3" x="-26" y="225" width="1098" height="322"/><path class="cls-4" d="M1192.85,584.19c-88.41,22.3-92.74-12.57-183.93-12.57s-91.18,12.76-182.36,12.76-91.18-12.76-182.37-12.76S553,584.38,461.83,584.38s-91.19-12.76-182.37-12.76-91.19,12.76-182.38,12.76S4.69,594.11-83.73,571.81C-106,566.19-91.67,555-91.67,532s12.76-23,12.76-46-12.76-23-12.76-46,12.76-23,12.76-46-12.76-23-12.76-46,12.76-23,12.76-46-30.25-46.56-7.94-52.19c88.41-22.3,92.74,12.57,183.93,12.57s91.18-12.76,182.36-12.76,91.18,12.76,182.37,12.76S553,249.62,644.17,249.62s91.19,12.76,182.37,12.76,91.19-12.76,182.38-12.76,92.39-9.73,180.81,12.57c22.3,5.62,7.94,16.81,7.94,39.81s-12.76,23-12.76,46,12.76,23,12.76,46-12.76,23-12.76,46,12.76,23,12.76,46-18.3,25.33-12.56,47.6C1192.41,561.9,1215.16,578.56,1192.85,584.19Z"/><path class="cls-3" d="M1054.78,644.38c-68.77,17.35-74-25.15-145-25.15S838.9,644.77,768,644.77s-70.92-25.54-141.84-25.54-70.92,25.54-141.84,25.54-70.92-25.54-141.84-25.54-70.92,25.54-141.85,25.54-70.92-25.54-141.84-25.54-70.92,25.54-141.85,25.54S-153,637-221.8,619.62c-17.35-4.37-15.89-5.51-15.89-23.4s25.53-17.88,25.53-35.77-25.53-17.89-25.53-35.77,25.53-17.89,25.53-35.78-25.53-17.89-25.53-35.78,25.53-17.89,25.53-35.78-25.53-17.88-25.53-35.77,25.53-17.9,25.53-35.79S-245.4,302-228,297.62c68.77-17.35,74,25.15,145,25.15s70.91-25.54,141.83-25.54,70.92,25.54,141.84,25.54,70.92-25.54,141.84-25.54,70.92,25.54,141.84,25.54,70.93-25.54,141.85-25.54S697,322.77,768,322.77s70.92-25.54,141.85-25.54,70,7.8,138.73,25.15c17.34,4.37,15.88,5.51,15.88,23.4s-25.53,17.88-25.53,35.77,25.53,17.89,25.53,35.77-25.53,17.89-25.53,35.78,25.53,17.89,25.53,35.78-25.53,17.89-25.53,35.78,25.53,17.88,25.53,35.77-29.58,21.64-25.13,39C1045.88,625,1072.13,640,1054.78,644.38Z"/><path class="cls-4" d="M1236.79,708.38c-61.89,15.61-67-25.15-130.78-25.15s-63.83,25.54-127.66,25.54-63.83-25.54-127.65-25.54S786.87,708.77,723,708.77s-63.83-25.54-127.66-25.54-63.82,25.54-127.65,25.54-63.83-25.54-127.66-25.54-63.83,25.54-127.66,25.54-63.83-25.54-127.66-25.54S15.85,724-46,708.38c-15.61-3.94,15.89-28.48,15.89-44.58s-25.53-16.1-25.53-32.2,25.53-16.1,25.53-32.19-25.53-16.1-25.53-32.2,25.53-16.1,25.53-32.2-25.53-16.1-25.53-32.2,25.53-16.1,25.53-32.2-25.53-16.1-25.53-32.2,25.53-16.1,25.53-32.21S-61.65,365.56-46,361.62c61.89-15.61,67,25.15,130.78,25.15s63.83-25.54,127.66-25.54,63.82,25.54,127.65,25.54,63.83-25.54,127.66-25.54,63.82,25.54,127.65,25.54S659.19,361.23,723,361.23s63.83,25.54,127.66,25.54,63.83-25.54,127.66-25.54,63.83,25.54,127.66,25.54,68.89-40.76,130.79-25.15c15.61,3.94-15.89,28.48-15.89,44.58s25.53,16.1,25.53,32.2-25.53,16.1-25.53,32.19,25.53,16.1,25.53,32.2-25.53,16.1-25.53,32.2,25.53,16.1,25.53,32.2-25.53,16.1-25.53,32.2,25.53,16.1,25.53,32.2-29.14,19.79-25.13,35.38C1227.38,690.6,1252.4,704.44,1236.79,708.38Z"/></g></svg>