<svg id="Layer_1" data-name="Layer 1" xmlns="http://www.w3.org/2000/svg" xmlns:xlink="http://www.w3.org/1999/xlink" viewBox="0 0 118.29 93.04"><defs><style>.cls-1{fill:#1daded;}.cls-2{fill:none;}.cls-3{fill:#27c5f4;}.cls-4{clip-path:url(#clip-path);}.cls-5{fill:#ffcb33;}.cls-6{fill:#1bb3ef;}.cls-7{fill:#f7f6da;}.cls-8{fill:#fff;}.cls-9{fill:#8b5e3c;}.cls-10{fill:#603913;}.cls-11{clip-path:url(#clip-path-2);}</style><clipPath id="clip-path"><path id="SVGID" class="cls-1" d="M43.7,42.16S32.6,67.62,4.07,81.64c0,0,19.78,9.18,34.77-6.79S43.7,42.16,43.7,42.16Z"/></clipPath><clipPath id="clip-path-2"><path id="SVGID-2" data-name="SVGID" class="cls-2" d="M48.33,49.15S39,75.31,11.48,91.24c0,0,20.36,7.81,34.23-9.13S48.33,49.15,48.33,49.15Z"/></clipPath></defs><title>03_a_small_bird_flapping</title><path class="cls-3" d="M43.7,42.16S32.6,67.62,4.07,81.64c0,0,19.78,9.18,34.77-6.79S43.7,42.16,43.7,42.16Z"/><path id="SVGID-3" data-name="SVGID" class="cls-1" d="M43.7,42.16S32.6,67.62,4.07,81.64c0,0,19.78,9.18,34.77-6.79S43.7,42.16,43.7,42.16Z"/><g class="cls-4"><circle class="cls-5" cx="48.16" cy="46.9" r="6.41" transform="translate(-0.05 93.75) rotate(-88.42)"/><circle class="cls-5" cx="47.16" cy="57.21" r="6.41" transform="translate(-11.34 102.77) rotate(-88.42)"/><circle class="cls-5" cx="43.42" cy="68.17" r="6.41" transform="translate(-25.92 109.69) rotate(-88.42)"/><circle class="cls-5" cx="35.86" cy="76.38" r="6.41" transform="translate(-41.48 110.11) rotate(-88.42)"/><circle class="cls-5" cx="27.31" cy="82.62" r="6.41" transform="translate(-56.03 107.64) rotate(-88.42)"/><circle class="cls-5" cx="16.46" cy="86.36" r="6.41" transform="translate(-70.32 100.42) rotate(-88.42)"/><circle class="cls-5" cx="6.17" cy="87.49" r="6.41" transform="translate(-81.45 91.24) rotate(-88.42)"/></g><path class="cls-5" d="M84.56,30.35s21.45,3.11,27.18,5c5,1.63,8.05,4.62,5.8,15.06a2.09,2.09,0,0,1-3.57,1c-1.83-2-5-4.14-10.65-5.22-11.49-2.21-20.87-3.51-20.87-3.51S84.7,29.61,84.56,30.35Z"/><path class="cls-6" d="M75.13.38C68-1,48.15.41,43.86,20.47S30.21,66.57,0,60.76c0,0,16.76,35,61.69,25.35S114.57,8,75.13.38Z"/><path class="cls-7" d="M90.29,67.1a47,47,0,0,1-28.6,19,72.22,72.22,0,0,1-14.81,1.68,26.47,26.47,0,0,1,.45-6.18,26.06,26.06,0,0,1,43-14.51Z"/><circle class="cls-8" cx="79.16" cy="33.03" r="17.08" transform="translate(-5 16.47) rotate(-11.52)"/><circle class="cls-9" cx="76.06" cy="33.73" r="8.09" transform="translate(-4.76 13.98) rotate(-10.18)"/><circle class="cls-10" cx="75.81" cy="33.86" r="4.42" transform="translate(-4.79 13.94) rotate(-10.18)"/><circle class="cls-8" cx="74.37" cy="28.91" r="2.83" transform="translate(-3.94 13.6) rotate(-10.18)"/><path class="cls-1" d="M48.33,49.15S39,75.31,11.48,91.24c0,0,20.36,7.81,34.23-9.13S48.33,49.15,48.33,49.15Z"/><g class="cls-11"><circle class="cls-5" cx="53.11" cy="53.58" r="6.41" transform="translate(-2.12 2.19) rotate(-2.32)"/><circle class="cls-5" cx="52.8" cy="63.94" r="6.41" transform="translate(-2.54 2.19) rotate(-2.32)"/><circle class="cls-5" cx="49.82" cy="75.12" r="6.41" transform="translate(-3 2.08) rotate(-2.32)"/><circle class="cls-5" cx="42.84" cy="83.83" r="6.41" transform="translate(-3.36 1.8) rotate(-2.32)"/><circle class="cls-5" cx="34.74" cy="90.64" r="6.41" transform="translate(-3.64 1.48) rotate(-2.32)"/><circle class="cls-5" cx="24.16" cy="95.1" r="6.41" transform="translate(-3.83 1.06) rotate(-2.32)"/><circle class="cls-5" cx="13.98" cy="96.93" r="6.41" transform="translate(-3.91 0.64) rotate(-2.32)"/></g></svg>