<svg id="Layer_1" data-name="Layer 1" xmlns="http://www.w3.org/2000/svg" xmlns:xlink="http://www.w3.org/1999/xlink" viewBox="0 0 123.84 87.79"><defs><style>.cls-1{fill:none;}.cls-2{fill:#27c5f4;}.cls-3{clip-path:url(#clip-path);}.cls-4{fill:#ffcb33;}.cls-5{fill:#f7f6da;}.cls-6{fill:#fff;}.cls-7{fill:#8b5e3c;}.cls-8{fill:#603913;}.cls-9{clip-path:url(#clip-path-2);}</style><clipPath id="clip-path"><path id="SVGID" class="cls-1" d="M62.81,44.35s-27.56,3.41-54.15-14c0,0,2.16,21.7,23.53,26.49S62.81,44.35,62.81,44.35Z"/></clipPath><clipPath id="clip-path-2"><path id="SVGID-2" data-name="SVGID" class="cls-1" d="M54.15,50.35S26.58,53.75,0,36.32c0,0,2.16,21.7,23.53,26.49S54.15,50.35,54.15,50.35Z"/></clipPath></defs><title>03_a_small_bird_flapping</title><path class="cls-2" d="M62.81,44.35s-27.56,3.41-54.15-14c0,0,2.16,21.7,23.53,26.49S62.81,44.35,62.81,44.35Z"/><g class="cls-3"><circle class="cls-4" cx="61" cy="50.61" r="6.41" transform="translate(-6.4 8.9) rotate(-7.93)"/><circle class="cls-4" cx="51.61" cy="54.98" r="6.41" transform="translate(-7.09 7.65) rotate(-7.93)"/><circle class="cls-4" cx="40.28" cy="57.34" r="6.41" transform="translate(-7.52 6.11) rotate(-7.93)"/><circle class="cls-4" cx="29.37" cy="55.01" r="6.41" transform="translate(-7.31 4.58) rotate(-7.93)"/><circle class="cls-4" cx="19.64" cy="50.83" r="6.41" transform="translate(-6.82 3.2) rotate(-7.93)"/><circle class="cls-4" cx="10.91" cy="43.39" r="6.41" transform="translate(-5.88 1.92) rotate(-7.93)"/><circle class="cls-4" cx="4.7" cy="35.11" r="6.41" transform="translate(-4.8 0.98) rotate(-7.93)"/></g><path class="cls-4" d="M90.1,30.35s21.45,3.11,27.18,5c5,1.63,8.05,4.62,5.8,15.06a2.08,2.08,0,0,1-3.57,1c-1.83-2-5-4.14-10.65-5.22C97.38,43.91,88,42.61,88,42.61S90.24,29.61,90.1,30.35Z"/><path class="cls-2" d="M80.68.38C73.55-1,53.7.41,49.4,20.47S35.75,66.57,5.54,60.76c0,0,16.76,35,61.69,25.35S120.11,8,80.68.38Z"/><path class="cls-5" d="M95.83,67.1a47,47,0,0,1-28.6,19,72.1,72.1,0,0,1-14.8,1.68A26.07,26.07,0,0,1,95.83,67.1Z"/><circle class="cls-6" cx="84.7" cy="33.03" r="17.08" transform="translate(36.26 109.97) rotate(-79.11)"/><circle class="cls-7" cx="81.6" cy="33.73" r="8.09" transform="matrix(0.19, -0.98, 0.98, 0.19, 33.07, 107.49)"/><circle class="cls-8" cx="81.35" cy="33.86" r="4.42" transform="translate(32.74 107.35) rotate(-79.11)"/><circle class="cls-6" cx="79.91" cy="28.91" r="2.83" transform="translate(36.42 101.93) rotate(-79.11)"/><path class="cls-2" d="M54.15,50.35S26.58,53.75,0,36.32c0,0,2.16,21.7,23.53,26.49S54.15,50.35,54.15,50.35Z"/><g class="cls-9"><circle class="cls-4" cx="52.34" cy="56.61" r="6.41" transform="translate(-7.31 7.76) rotate(-7.93)"/><circle class="cls-4" cx="42.95" cy="60.98" r="6.41" transform="translate(-8 6.51) rotate(-7.93)"/><circle class="cls-4" cx="31.62" cy="63.34" r="6.41" transform="translate(-8.44 4.97) rotate(-7.93)"/><circle class="cls-4" cx="20.7" cy="61.01" r="6.41" transform="translate(-8.22 3.44) rotate(-7.93)"/><circle class="cls-4" cx="10.98" cy="56.83" r="6.41" transform="translate(-7.73 2.06) rotate(-7.93)"/><circle class="cls-4" cx="2.24" cy="49.39" r="6.41" transform="translate(-6.79 0.78) rotate(-7.93)"/><circle class="cls-4" cx="-3.97" cy="41.11" r="6.41" transform="translate(-5.71 -0.15) rotate(-7.93)"/></g></svg>