<svg id="Layer_1" data-name="Layer 1" xmlns="http://www.w3.org/2000/svg" xmlns:xlink="http://www.w3.org/1999/xlink" viewBox="0 0 123.84 87.79"><defs><style>.cls-1{fill:none;}.cls-2{fill:#27c5f4;}.cls-3{clip-path:url(#clip-path);}.cls-4{fill:#ffcb33;}.cls-5{fill:#f7f6da;}.cls-6{fill:#fff;}.cls-7{fill:#8b5e3c;}.cls-8{fill:#603913;}.cls-9{clip-path:url(#clip-path-2);}</style><clipPath id="clip-path"><path id="SVGID" class="cls-1" d="M64.21,48.74S40.9,33.62,31.75,3.18c0,0-12.3,18,1,35.42S64.21,48.74,64.21,48.74Z"/></clipPath><clipPath id="clip-path-2"><path id="SVGID-2" data-name="SVGID" class="cls-1" d="M55.21,50.4S31.9,35.29,22.75,4.85c0,0-12.3,18,1,35.42S55.21,50.4,55.21,50.4Z"/></clipPath></defs><title>03_a_small_bird_flapping</title><path class="cls-2" d="M64.21,48.74S40.9,33.62,31.75,3.18c0,0-12.3,18,1,35.42S64.21,48.74,64.21,48.74Z"/><g class="cls-3"><circle class="cls-4" cx="58.79" cy="52.37" r="6.41" transform="translate(-16.81 74.36) rotate(-57.91)"/><circle class="cls-4" cx="48.79" cy="49.68" r="6.41" transform="translate(-19.22 64.63) rotate(-57.91)"/><circle class="cls-4" cx="38.59" cy="44.21" r="6.41" transform="translate(-19.36 53.42) rotate(-57.91)"/><circle class="cls-4" cx="31.73" cy="35.4" r="6.41" transform="translate(-15.12 43.48) rotate(-57.91)"/><circle class="cls-4" cx="26.97" cy="25.95" r="6.41" transform="translate(-9.34 35.02) rotate(-57.91)"/><circle class="cls-4" cx="25.07" cy="14.63" r="6.41" transform="translate(-0.64 28.1) rotate(-57.91)"/><circle class="cls-4" cx="25.64" cy="4.29" r="6.41" transform="translate(8.38 23.74) rotate(-57.91)"/></g><path class="cls-4" d="M90.1,30.35s21.45,3.11,27.18,5c5,1.63,8.05,4.62,5.8,15.06a2.08,2.08,0,0,1-3.57,1c-1.83-2-5-4.14-10.65-5.22C97.38,43.91,88,42.61,88,42.61S90.24,29.61,90.1,30.35Z"/><path class="cls-2" d="M80.68.38C73.55-1,53.7.41,49.4,20.47S35.75,66.57,5.54,60.76c0,0,16.76,35,61.69,25.35S120.11,8,80.68.38Z"/><path class="cls-5" d="M95.83,67.1a47,47,0,0,1-28.6,19,72.1,72.1,0,0,1-14.8,1.68A26.07,26.07,0,0,1,95.83,67.1Z"/><circle class="cls-6" cx="84.7" cy="33.03" r="17.08" transform="translate(36.26 109.97) rotate(-79.11)"/><circle class="cls-7" cx="81.6" cy="33.73" r="8.09" transform="matrix(0.19, -0.98, 0.98, 0.19, 33.07, 107.49)"/><circle class="cls-8" cx="81.35" cy="33.86" r="4.42" transform="matrix(0.19, -0.98, 0.98, 0.19, 32.74, 107.35)"/><circle class="cls-6" cx="79.91" cy="28.91" r="2.83" transform="translate(36.42 101.93) rotate(-79.11)"/><path class="cls-2" d="M55.21,50.4S31.9,35.29,22.75,4.85c0,0-12.3,18,1,35.42S55.21,50.4,55.21,50.4Z"/><g class="cls-9"><circle class="cls-4" cx="49.79" cy="54.04" r="6.41" transform="translate(-22.44 67.52) rotate(-57.91)"/><circle class="cls-4" cx="39.79" cy="51.35" r="6.41" transform="translate(-24.85 57.78) rotate(-57.91)"/><circle class="cls-4" cx="29.59" cy="45.87" r="6.41" transform="translate(-24.99 46.58) rotate(-57.91)"/><circle class="cls-4" cx="22.73" cy="37.07" r="6.41" transform="translate(-20.75 36.64) rotate(-57.91)"/><circle class="cls-4" cx="17.97" cy="27.61" r="6.41" transform="translate(-14.97 28.17) rotate(-57.91)"/><circle class="cls-4" cx="16.07" cy="16.29" r="6.41" transform="translate(-6.27 21.25) rotate(-57.91)"/><circle class="cls-4" cx="16.64" cy="5.96" r="6.41" transform="translate(2.75 16.89) rotate(-57.91)"/></g></svg>