<svg id="Layer_1" data-name="Layer 1" xmlns="http://www.w3.org/2000/svg" width="330" height="250" viewBox="0 0 330 250">
  <defs>
    <style>
      .cls-1 {
        fill: #729e00;
      }

      .cls-2 {
        fill: #5f8400;
      }

      .cls-3 {
        fill: #628602;
      }

      .cls-4 {
        fill: #5f8300;
      }

      .cls-5 {
        fill: #506f00;
      }

      .cls-6 {
        fill: #fefefe;
      }

      .cls-7 {
        fill: #262626;
      }

      .cls-8 {
        fill: #fdfdfd;
      }

      .cls-9 {
        fill: #739f00;
      }
    </style>
  </defs>
  <title>16_sad_face_on_the_little_fish</title>
  <g>
    <g>
      <g>
        <path class="cls-1" d="M180.36,182.84c-1.64-1.4-3.27-2.82-4.93-4.2-1.29-1.06-2.45-2.25-3.63-3.42-.92-.92-1.84-1.84-2.74-2.78a73.24,73.24,0,0,1-9-11.49,71.89,71.89,0,0,1-5.48-9.79,82.87,82.87,0,0,1-3.12-7.87,74,74,0,0,1-2.15-7.37,47.11,47.11,0,0,0-1.54-5.32c-.69-2.1-1.53-4.16-2.34-6.22-1.51-3.82-3.09-7.61-4.85-11.32a87.4,87.4,0,0,0-5.28-10.1,15.3,15.3,0,0,0-3.61-3.79c-.46-.38-2.58,2.52-2.69,3a100.74,100.74,0,0,1-5.08,16.34,77.3,77.3,0,0,1-7.09,13.85c-1.09,1.61-2.2,3.21-3.42,4.73a55.64,55.64,0,0,1-3.85,4.33c-1.17,1.18-2.48,2.2-3.7,3.31-2.24,2-5,3.28-7.52,4.77-3.54,2.06-7.21,3.91-10.76,6-2.51,1.45-5,2.93-7.5,4.39s-5,3.23-7.58,4.69a3.72,3.72,0,0,0-1.8,3,76.67,76.67,0,0,1-3.46,14.58,7.16,7.16,0,0,0-.56,2.07c-.11.73-.72,1.32-.59,2.12-.15.38,0,.92-.55,1.1.26.43-.15.72-.23,1.08s-.17.46-.33.66c-1.09,2.49-2.17,5-3.26,7.48-.71,1.62-1.7,3.09-2.32,4.76a1.09,1.09,0,0,1-.52.84c-1.3,2.18-2.55,4.38-3.91,6.52a26.74,26.74,0,0,1-4.77,6,23,23,0,0,1-.84-3.16c-.65-2.23-.75-4.57-1.4-6.8a11.87,11.87,0,0,1-.1-2.7,40.27,40.27,0,0,1-.22-5.87c.23-2.17.48-4.35.91-6.52a69.3,69.3,0,0,1,2.53-8.93,58.64,58.64,0,0,1,3.08-7.57c1.27-2.54,2.62-5.05,4.07-7.5s2.7-5.4,4.91-7.44a52.08,52.08,0,0,0,6.34-7.2,50.81,50.81,0,0,0,9.37-20,48.29,48.29,0,0,0,1.33-8.48c.09-1.66.13-3.32.18-5,0-.75-.05-1.14-1.07-.83-1.54.47-3.14,0-4.7-.14a.79.79,0,0,1-.87-.16A35.28,35.28,0,0,1,65,112.54a47.08,47.08,0,0,1-7.92-6.46A52.15,52.15,0,0,1,52.48,101c-2-2.48-4-5-5.86-7.6a77.8,77.8,0,0,1-7-11.92,62,62,0,0,1-3.37-9.19c-1.11-3.84-1.28-7.8-1.89-11.7a14,14,0,0,0-2.44-5.44,27.86,27.86,0,0,0-4.45-5.18,44.65,44.65,0,0,0-5.59-4.39A46.15,46.15,0,0,0,17,42.43c-.3-.15-.48-.5-.78-.83,2.18-.35,4.14.3,6.08.82a41.91,41.91,0,0,1,5,1.76,43.6,43.6,0,0,1,7.82,4.29,36.09,36.09,0,0,1,5.26,4.36,26.81,26.81,0,0,1,3.79,4.57,2.05,2.05,0,0,0,2.24,1.12,47,47,0,0,1,6.88,0c3.15.12,6.22.74,9.32,1.15s6.29,1.42,9.44,2.12a120,120,0,0,1,11.57,3.67c3.17,1.06,6.29,2.24,9.44,3.36,4.8,1.71,9.44,3.81,14.11,5.83,3.93,1.7,7.68,3.77,11.47,5.74a19.67,19.67,0,0,1,1.77,1c.59.39,15.9-6.6,24.75-8.81,1.67-.63,3.41-1.08,5.06-1.71s3.41-.84,5.07-1.46a12.61,12.61,0,0,1,3.16-.56c1.7-.17,3.37-.53,5.08-.72s3.23-.28,4.84-.39a69.74,69.74,0,0,1,7.6-.14c3.11.13,6.22.19,9.32.53s6.22.67,9.31,1.19a44.67,44.67,0,0,1,6.65,1.44c.82.27,1.2-.19,1.53-.81a22.1,22.1,0,0,0,2.1-7.27,39.49,39.49,0,0,0,.27-7.93,51.38,51.38,0,0,0-1.24-8,42.09,42.09,0,0,0-2.09-6.93,47.67,47.67,0,0,0-3.22-7.17c-.2-.33-.44-.74-.23-1s.71-.12,1.11,0c4.06,1.51,7.52,4,11,6.54,2.23,1.62,4.5,3.2,6.59,5,1.58,1.36,3.15,2.75,4.68,4.18s2.73,2.69,4.2,3.92A54.85,54.85,0,0,1,230.73,56c3.15,3.37,6.3,6.75,9.23,10.33a93.86,93.86,0,0,1,8.07,11,40.44,40.44,0,0,1,5,11.67,22.07,22.07,0,0,1,.57,7.15,2.51,2.51,0,0,0,.93,2.43c2.27,1.78,4.54,3.59,6.7,5.49s4.33,3.88,6.33,6a95.29,95.29,0,0,1,17.8,26.59A110.58,110.58,0,0,1,290.59,151c.63,2.21,1.33,4.4,1.79,6.65s.95,4.29,1.32,6.46c.5,2.9.84,5.82,1.18,8.75.17,1.44.15,2.9.25,4.35a11.42,11.42,0,0,0,1.15,3.62,28.82,28.82,0,0,1,2.08,6.14c.61,3.54-.26,6.64-3.28,8.95-1,.75-2.16,1.2-3.09,2a5.25,5.25,0,0,0-1.7-1,32.28,32.28,0,0,1-9.84-7.57,20.69,20.69,0,0,0,5.61,5.2,29.83,29.83,0,0,0,5.3,3.23.54.54,0,0,1,.36.51c.18,1.13.42,2.26.51,3.4.14,1.71-1.45,3.56-3.13,4.28-2.58,1.1-5,.42-7.54-.16-3-.69-5.95-1.41-8.93-2.08a12.81,12.81,0,0,0-3.6.11c-3.08.18-6.16.41-9.24.57-3.33.17-6.65.13-10,.11a94.94,94.94,0,0,1-10.13-.57c-3.39-.38-6.78-.7-10.14-1.32l-5.3-1c-.72.24-1.33-.19-2-.32a1.51,1.51,0,0,0-.87-.36,101.09,101.09,0,0,1-13-3.77c-4.68-1.71-9.44-3.25-13.87-5.6a106.34,106.34,0,0,1-10.86-6.53C182.58,184.33,181.47,183.59,180.36,182.84Z"/>
        <path class="cls-2" d="M291.72,198.28a31,31,0,0,1-6-3.61,18.81,18.81,0,0,1-5.72-5.59.58.58,0,0,1-.09-.59c1.73,1.6,3.33,3.28,5.15,4.73a22,22,0,0,0,6.49,3.86c.51.18.47.47.44.84C292.14,198.22,291.76,198.12,291.72,198.28Z"/>
        <path class="cls-3" d="M160.95,140.41a19.87,19.87,0,0,1,5.95-6.06c1.88-1.17,4-1.15,6.13-1.09a81.55,81.55,0,0,1,20.35,3,38.47,38.47,0,0,1,11.18,5.18,11.58,11.58,0,0,1,3.9,5.43c1.26,2.94.9,4.85-1.29,7.2a25.57,25.57,0,0,1-12,6.89c-4.55,1.31-9.16,1-13.74,0a58.24,58.24,0,0,1-11.66-4.1c-2.79-1.25-5.4-2.8-8-4.32-1-.56-2-1.08-3-1.69a1.53,1.53,0,0,1-.85-1.71c.1-.58.17-1.17.26-1.75.5-.2.86.14,1.22.36a58.85,58.85,0,0,0,15.08,6.49,42.6,42.6,0,0,0,17.85,1.33,32.49,32.49,0,0,0,6.87-1.78,42.25,42.25,0,0,1-12.31,1.09,55.29,55.29,0,0,1-20.36-4.77,56.2,56.2,0,0,1-7.16-3.81c-.28-.18-.6-.31-.74-.65.34-.85.72-1.69,1-2.56a2.24,2.24,0,0,1,.57-.92,10,10,0,0,1,2.91,2,27.11,27.11,0,0,0,6.82,3.68A31.4,31.4,0,0,0,180.3,150a32.5,32.5,0,0,0,7.3-.58,26.29,26.29,0,0,0,3.73-.83,28,28,0,0,1-5.06.27,57.3,57.3,0,0,1-12.92-1.38c-4.38-1.08-8.45-2.77-11.63-6.14A4.31,4.31,0,0,1,160.95,140.41Z"/>
        <path class="cls-4" d="M270.41,146c6.43,5.86,5.8,15.6.71,21a15,15,0,1,1-.71-21Z"/>
        <path class="cls-4" d="M231.13,164.64a22.19,22.19,0,0,1-1.8-5.31c-.25-1.25-.54-2.49-.73-3.75-.23-1.53-.41-3.07-.52-4.61a49.66,49.66,0,0,1,.19-9.1,37.43,37.43,0,0,1,2.33-9.19,31.78,31.78,0,0,1,3.08-6.2,17.45,17.45,0,0,1,4.72-4.5,30.58,30.58,0,0,1,12.86-5.16,27.14,27.14,0,0,1,9-.11c.86.15,1,.6.67,1.32,0,.07-.1.12-.12.18-.4,1.26-1.16,1.48-2.48,1.28A23.07,23.07,0,0,0,245.68,121a20.17,20.17,0,0,0-9.84,8.91A35.08,35.08,0,0,0,232,140.95a82.53,82.53,0,0,0-1.41,10.94,76.73,76.73,0,0,0,.27,9.17C230.91,162.25,231,163.45,231.13,164.64Z"/>
        <path class="cls-5" d="M158.59,145.62a12.79,12.79,0,0,1,2.52,1.38,53.59,53.59,0,0,0,14.4,5.9,51.86,51.86,0,0,0,13.6,1.67,56,56,0,0,0,10-1,4.76,4.76,0,0,1,1.07-.11,17.89,17.89,0,0,1-5.88,2,40.1,40.1,0,0,1-6.54.75,49.22,49.22,0,0,1-7.76-.5,57.12,57.12,0,0,1-13.71-4,60.34,60.34,0,0,1-8.18-4.32A2.91,2.91,0,0,1,158.59,145.62Z"/>
        <path class="cls-5" d="M160.95,140.41c.56-.07.74.48,1,.75a19.37,19.37,0,0,0,7.69,4.88,42.43,42.43,0,0,0,11.18,2.25,77.63,77.63,0,0,0,11.3.05c-8.12,3.69-22.75,2.49-32-6.2A2,2,0,0,1,160.95,140.41Z"/>
        <path class="cls-6" d="M268.72,165.64c-5.18,4.74-12.5,4.52-17.1-.34a12.08,12.08,0,1,1,17.59-16.55A12,12,0,0,1,268.72,165.64Z"/>
        <path class="cls-7" d="M253.1,164.07a10.19,10.19,0,0,1-.33-13.95,10.08,10.08,0,0,1,14.9-.26,10,10,0,0,1,.11,14A10.06,10.06,0,0,1,253.1,164.07Z"/>
        <path class="cls-8" d="M262.57,155.4a2.65,2.65,0,0,1,3.87.14,2.8,2.8,0,0,1-.15,3.8,2.7,2.7,0,0,1-3.72,0A2.57,2.57,0,0,1,262.57,155.4Z"/>
      </g>
      <path class="cls-2" d="M291.95,197.69c-3.05-2.26-5.66-5.07-8.74-7.28a22.54,22.54,0,0,0-10.29-3.72c-1.1-.16-1.58,1.52-.46,1.69,4.08.6,7.69,1.71,10.91,4.35,2.6,2.13,5,4.46,7.71,6.47.9.67,1.78-.85.88-1.51Z"/>
    </g>
    <path class="cls-9" d="M275.93,152.49s-13.21,7.74-27.86-5.51a14.41,14.41,0,0,1,16-7.89C275.88,141.17,275.93,152.49,275.93,152.49Z"/>
  </g>
</svg>
