<svg id="Layer_1" data-name="Layer 1" xmlns="http://www.w3.org/2000/svg" xmlns:xlink="http://www.w3.org/1999/xlink" viewBox="0 0 260 168"><defs><style>.cls-1{fill:#a05415;}.cls-2{fill:none;}.cls-3{fill:#729111;}.cls-4{fill:#667c08;}.cls-5{fill:#844012;}.cls-6{clip-path:url(#clip-path);}.cls-7{fill:#a35b21;}.cls-8{fill:#fcd212;}.cls-9{fill:#f6b019;}.cls-10{fill:#bc6828;}.cls-11{fill:#43720c;}.cls-12{clip-path:url(#clip-path-2);}.cls-13{clip-path:url(#clip-path-3);}.cls-14{fill:#b26022;}</style><clipPath id="clip-path"><path class="cls-1" d="M169.8-16.42s6.36,19.6,6.36,24.62c0,0-1,1.57-.32,4.89a36.81,36.81,0,0,0,2.25,6.83s2.4-.11,2.4,7.19c0,0-1.51,52-3.8,77.52,0,0-7.09,22.32-13,28.71,0,0-6.51,7.87,3.09,5.82s18.85-3.77,26-1.71,13.92,1.86,19.86-.42,17.28,2.57,12.07-2.22c0,0-17.63-7-22.53-38.9-7-45.34.23-72.91.23-72.91s18.86-26,33.94-36.61c0,0,8.28-5.34,12.7-4.73L248-23.21s-16.43-2-34.94,15.07c0,0,4.47-30,4.93-45.48l-10.51.45s-1.37,33.31-8.23,47.45-14.62,4.11-18.74-10-12.19-31.07-12.19-31.07L161-42.33l6.14,17.94Z"/></clipPath><clipPath id="clip-path-2"><path class="cls-2" d="M143.93,4.41a4.79,4.79,0,0,1,1.59-2.69s1.71,3.64-1.1,5.18a3.61,3.61,0,0,1-.49-2.49"/></clipPath><clipPath id="clip-path-3"><path class="cls-2" d="M219.3,24.92A5.35,5.35,0,0,0,217,22.34s-1,4.36,2.37,5.4a4,4,0,0,0,0-2.82"/></clipPath></defs><path class="cls-3" d="M101.84-24.75a17.08,17.08,0,0,1,11.32-14.4,12.27,12.27,0,0,1,0-4.48,13.52,13.52,0,0,1,13.68-10.62,15.35,15.35,0,0,1-.37-15.7A15.27,15.27,0,0,1,135-76.67a2.85,2.85,0,0,1,0-.29,10.92,10.92,0,0,1,4.72-7.57,13.52,13.52,0,0,1,2.57-5C145-93,149-95.08,153-96.8c5.43-2.32,11.81-4,17.07-1.35a14.55,14.55,0,0,0,3,1.4,23,23,0,0,1,10.54-5.73,42,42,0,0,1,12.81-.87,42,42,0,0,1,12.81.87,23.09,23.09,0,0,1,10.54,5.73,14.55,14.55,0,0,0,3-1.4l.47-.22a10.19,10.19,0,0,1,2.17-1.54,5.21,5.21,0,0,1,4.48,0,2.59,2.59,0,0,0,.87.34,2.44,2.44,0,0,0,.88-.13A9,9,0,0,1,241-96.28h0a7.59,7.59,0,0,1,6.51.75,7.57,7.57,0,0,1,3.4,5.63l-.32.34a13.57,13.57,0,0,1,2.55,5A11,11,0,0,1,257.93-77l0,.29a15.27,15.27,0,0,1,8.51,6.72,15.35,15.35,0,0,1-.37,15.7,13.52,13.52,0,0,1,13.68,10.62,12,12,0,0,1,0,4.48,17.07,17.07,0,0,1,11.33,14.4c.36,4.59-2.36,10.11-7,10.12,1.93,4.05,3.9,8.37,3.41,12.82S283,7,278.61,6.16c2.13,4.82-.11,10.8-4.28,14s-9.77,4.06-15,3.52c-1.44,5.69-6.68,10-12.43,11.16a20.73,20.73,0,0,1-8.23,0A14.52,14.52,0,0,1,234,36.12a29.91,29.91,0,0,1-11.41-1,8.34,8.34,0,0,1-.85-.07l-.47-.1a13.78,13.78,0,0,1-17.62,1.58,29.28,29.28,0,0,1-7.22-1.75,29.39,29.39,0,0,1-7.22,1.75A13.78,13.78,0,0,1,171.62,35l-.48.1a7.93,7.93,0,0,1-.84.07,30,30,0,0,1-11.42,1,14.6,14.6,0,0,1-4.64-1.31,20.68,20.68,0,0,1-8.22,0c-5.75-1.18-11-5.47-12.43-11.16-5.24.54-10.84-.29-15-3.52s-6.4-9.2-4.28-14c-4.39.87-8.41-3.51-8.9-8s1.48-8.77,3.41-12.82C104.2-14.64,101.47-20.16,101.84-24.75Z"/><path class="cls-4" d="M256.83-16c2.51,1.48,4.6,4,4.87,6.86s-1.81,6-4.71,6.31a6.34,6.34,0,0,1-1.8,6.32,14.17,14.17,0,0,1-6.05,3.21,37.84,37.84,0,0,1-13.63,1.52c0,1.91-1.95,3.18-3.74,3.85a25.43,25.43,0,0,1-17.62,0C209.57,15.9,203,16.11,197,16.14c-4.55,0-9.85-.35-12.41-4.11a26.42,26.42,0,0,1-11.87,1.79,14.72,14.72,0,0,1-10.33-5.61c-3.84.49-7.82,1-11.53-.16s-7.09-4.29-7.17-8.16c-3.93.42-8.13-.24-11.31-2.6s-5.08-6.64-3.95-10.43c-2.82-.93-3.36-5.08-1.63-7.5s4.82-3.42,7.73-4a8.36,8.36,0,0,1,4.87-6.25,19.37,19.37,0,0,1,8-1.56,11.26,11.26,0,0,0,3.89-.51c1.33-.53,2.4-1.59,3.74-2.08a9.49,9.49,0,0,1,3.72-.3l12.73.63a13.58,13.58,0,0,1,14.83-5.19,5,5,0,0,0,1.89.37,4.86,4.86,0,0,0,2.2-1.19,12.83,12.83,0,0,1,9.46-2.36,16.38,16.38,0,0,0,3.18.4c.92,0,1.81-.34,2.72-.48a8.06,8.06,0,0,1,8,3.83,9.62,9.62,0,0,1,8.76.89,9.58,9.58,0,0,1,4.22,7.73c2.18-.4,4.08,1.66,4.73,3.77s.57,4.41,1.35,6.48a8.37,8.37,0,0,0,6.88,5.28c3.56.34,5.27-2.29,8.36-3.08C250.78-19,254.52-17.4,256.83-16Z"/><path class="cls-5" d="M197.93,49.72a17.24,17.24,0,0,1,11.24-2.31c6.28,1,15.37-.33,19.34-2.31l2.31,3.47s-5.62,3.63-21,3.47c0,0-9.26.66-10.41,13.06C199.42,65.1,196.61,55.84,197.93,49.72Z"/><path class="cls-3" d="M226.14,41.28a5.43,5.43,0,0,0-5.79.59,4.75,4.75,0,0,0-1.25,5.58,4.26,4.26,0,0,0,5.23,2c-1.49,1.29-.34,4,1.51,4.65s3.9,0,5.74-.72a6.7,6.7,0,0,0,10.9-.1,5.64,5.64,0,0,0,5.09,1.26,4.58,4.58,0,0,0,3.34-3.88,3.86,3.86,0,0,0-2.94-4c2-.3,3-2.9,2.13-4.73a6,6,0,0,0-4.84-3.11,5.2,5.2,0,0,0-4.06.89,7.2,7.2,0,0,0-10.41.59,2.75,2.75,0,0,0-4.75.53"/><path class="cls-1" d="M169.8-16.42s6.36,19.6,6.36,24.62c0,0-1,1.57-.32,4.89a36.81,36.81,0,0,0,2.25,6.83s2.4-.11,2.4,7.19c0,0-1.51,52-3.8,77.52,0,0-7.09,22.32-13,28.71,0,0-6.51,7.87,3.09,5.82s18.85-3.77,26-1.71,13.92,1.86,19.86-.42,17.28,2.57,12.07-2.22c0,0-17.63-7-22.53-38.9-7-45.34.23-72.91.23-72.91s18.86-26,33.94-36.61c0,0,8.28-5.34,12.7-4.73L248-23.21s-16.43-2-34.94,15.07c0,0,4.47-30,4.93-45.48l-10.51.45s-1.37,33.31-8.23,47.45-14.62,4.11-18.74-10-12.19-31.07-12.19-31.07L161-42.33l6.14,17.94Z"/><g class="cls-6"><path class="cls-5" d="M206.93-57.42s-.45,58.55-16,61.89c0,0-14.68-2.43-8.07-62.65Z"/><path class="cls-5" d="M166.1,140.9a17.73,17.73,0,0,0,13.24-9.12c4.56-8.44,14.37,8.21,14.37,8.21s4,46.83,1.51,46.6-29.2.68-29.2.68l.72-48.11"/><path class="cls-5" d="M222.91,139.31s-7.53-2.74-10-8.22a32,32,0,0,0-6.84-9.35s8.21,12.78,3.42,18.71l9.12,1.14,5.71-2.74"/><path class="cls-5" d="M157.58,16.18,172,21.89,174.64,20s5.19.57,6.15-.92a8,8,0,0,0,0,4.68,33,33,0,0,1,1.37,10.21c-.23,3.54,3.16,49.27-2.09,64.55s-19.62,19.85-19.62,19.85L155.53,62Z"/><path class="cls-5" d="M254.08-25.56,232.64-25,214.69-11.65l-1.64,3.51S207.88-1.95,203.55,3s11.06-37.52,43.11-37.64Z"/><path class="cls-7" d="M202.42,23s-4,8.13-3.55,14.06S203,54.28,202.3,61.24a42.94,42.94,0,0,0,1.14,13.68s9.92-1.25,9.69-2.16,9.58-29.09,9.47-29.89S202.42,23,202.42,23"/></g><path class="cls-8" d="M145.15,4.88a5.93,5.93,0,0,0-4.85,5.18c-.56,3.75,3.22,8.85,9,10.15a8.51,8.51,0,0,0,5-.38,4.44,4.44,0,0,0,3.15-3.67v0c0-1.27-1.62-1.34-2.37-2.21C152.74,11.16,151.77,3.72,145.15,4.88Z"/><path class="cls-9" d="M145.1,6.47s-.4.64-1.6.47"/><path class="cls-10" d="M144.15,6.8a7.43,7.43,0,0,1-1.63-4.68.35.35,0,0,1,.33-.33h0a.36.36,0,0,1,.36.38,6.56,6.56,0,0,0,1.17,4.45.14.14,0,0,1-.08.23h0A.13.13,0,0,1,144.15,6.8Z"/><path class="cls-11" d="M144.4,6.76s-1.76-2.42,1.12-5C145.52,1.72,147.22,5.26,144.4,6.76Z"/><g class="cls-12"><polygon class="cls-2" points="145.52 1.72 144.4 6.76 143.66 6.24 143.82 3 145.52 1.72"/></g><path class="cls-8" d="M218.07,25.71a6.59,6.59,0,0,1,6.46,4.54C226,34.2,223,40.63,217,43.34a9.46,9.46,0,0,1-5.57.73c-2.06-.36-3.67-1.37-4.27-3.29v0c-.31-1.38,1.46-1.83,2.08-3C211.23,34.27,210.59,25.94,218.07,25.71Z"/><path class="cls-9" d="M218.48,27.42a1.72,1.72,0,0,0,1.85.15"/><path class="cls-10" d="M219.59,27.57a8.25,8.25,0,0,0,.73-5.47.39.39,0,0,0-.44-.28h0a.38.38,0,0,0-.3.49,7.38,7.38,0,0,1-.28,5.12.17.17,0,0,0,.14.23h0A.15.15,0,0,0,219.59,27.57Z"/><path class="cls-11" d="M219.31,27.58s1.37-3-2.36-5.24C217,22.34,215.91,26.58,219.31,27.58Z"/><g class="cls-13"><polygon class="cls-2" points="216.95 22.34 219.31 27.58 220.01 26.84 219.09 23.36 216.95 22.34"/></g><path class="cls-14" d="M199.17,26.64s2.33,19.54,1.61,24.55-2,19.18-1.61,24.2.89,17.38.18,22.22-3.41-16.13-2.87-21.69,1.79-15.41,1.07-24S197.37,16.25,199.17,26.64Z"/><rect class="cls-2" x="86.81" y="-29.13" width="174.02" height="169.23"/></svg>