<svg id="Layer_1" data-name="Layer 1" xmlns="http://www.w3.org/2000/svg" xmlns:xlink="http://www.w3.org/1999/xlink" viewBox="0 0 260 168"><defs><style>.cls-1{fill:#a05415;}.cls-2{fill:none;}.cls-3{fill:#729111;}.cls-4{fill:#667c08;}.cls-5{fill:#844012;}.cls-6{clip-path:url(#clip-path);}.cls-7{fill:#a35b21;}.cls-8{fill:#fcd212;}.cls-9{fill:#f6b019;}.cls-10{fill:#bc6828;}.cls-11{fill:#43720c;}.cls-12{clip-path:url(#clip-path-2);}.cls-13{clip-path:url(#clip-path-3);}.cls-14{fill:#b26022;}</style><clipPath id="clip-path"><path class="cls-1" d="M118.4-14.51S125.71,8,125.71,13.81c0,0-1.14,1.8-.37,5.62a42.39,42.39,0,0,0,2.59,7.86s2.76-.13,2.76,8.27c0,0-1.74,59.79-4.36,89.17,0,0-8.17,25.68-15,33,0,0-7.5,9.05,3.54,6.69s21.69-4.33,30-2,16,2.14,22.84-.48,19.88,2.95,13.89-2.55c0,0-20.28-8-25.92-44.74-8-52.16.27-83.88.27-83.88S177.61.92,195-11.28c0,0,9.52-6.14,14.61-5.44l-1.23-5.6S189.44-24.66,168.14-5c0,0,5.15-34.48,5.68-52.32l-12.1.52s-1.57,38.31-9.46,54.58S135.44,2.53,130.7-13.74s-14-35.74-14-35.74l-8.41,5.16,7.07,20.64Z"/></clipPath><clipPath id="clip-path-2"><path class="cls-2" d="M175.33,33a6.11,6.11,0,0,0-2.7-3s-1.19,5,2.73,6.2a4.56,4.56,0,0,0,0-3.24"/></clipPath><clipPath id="clip-path-3"><path class="cls-2" d="M85,8.13A5.56,5.56,0,0,1,86.79,5s2,4.19-1.27,6A4.15,4.15,0,0,1,85,8.13"/></clipPath></defs><path class="cls-3" d="M40.22-24.09a19.6,19.6,0,0,1,13-16.56,14,14,0,0,1,0-5.16A15.56,15.56,0,0,1,69-58a17.63,17.63,0,0,1-.42-18,17.64,17.64,0,0,1,9.78-7.74c0-.11,0-.22,0-.33a12.61,12.61,0,0,1,5.43-8.71,15.56,15.56,0,0,1,3-5.81c3.16-3.89,7.76-6.32,12.38-8.3,6.24-2.66,13.59-4.64,19.63-1.55a17.1,17.1,0,0,0,3.45,1.61,26.52,26.52,0,0,1,12.13-6.59,48.49,48.49,0,0,1,14.73-1,48.49,48.49,0,0,1,14.73,1,26.52,26.52,0,0,1,12.13,6.59,17.1,17.1,0,0,0,3.45-1.61c.18-.1.36-.17.54-.25a12,12,0,0,1,2.5-1.78,6,6,0,0,1,5.15,0,3.06,3.06,0,0,0,1,.39,2.7,2.7,0,0,0,1-.15,10.36,10.36,0,0,1,10.76,3.88l0,0a8.72,8.72,0,0,1,7.49.86A8.74,8.74,0,0,1,211.78-99l-.37.4a15.7,15.7,0,0,1,2.93,5.77,12.61,12.61,0,0,1,5.43,8.71c0,.11,0,.22,0,.33a17.64,17.64,0,0,1,9.78,7.74,17.63,17.63,0,0,1-.42,18A15.56,15.56,0,0,1,244.9-45.81a14,14,0,0,1,0,5.16,19.6,19.6,0,0,1,13,16.56c.42,5.28-2.71,11.63-8,11.64,2.21,4.66,4.48,9.62,3.92,14.75s-5.19,10.16-10.25,9.16c2.45,5.54-.13,12.42-4.92,16.13s-11.24,4.68-17.26,4.05c-1.65,6.55-7.68,11.47-14.3,12.83a23.55,23.55,0,0,1-9.46-.06,16.77,16.77,0,0,1-5.34,1.52,34.66,34.66,0,0,1-13.13-1.11c-.32,0-.65,0-1-.09l-.54-.11a15.87,15.87,0,0,1-20.28,1.81,33,33,0,0,1-8.3-2,33,33,0,0,1-8.3,2,15.87,15.87,0,0,1-20.28-1.81l-.54.11c-.32.05-.65.07-1,.09a34.66,34.66,0,0,1-13.13,1.11,16.77,16.77,0,0,1-5.34-1.52,23.55,23.55,0,0,1-9.46.06c-6.62-1.36-12.65-6.28-14.3-12.83-6,.63-12.47-.34-17.26-4.05S52.11,17,54.56,11.46c-5.06,1-9.69-4-10.25-9.16S46-7.79,48.23-12.45C42.93-12.46,39.8-18.81,40.22-24.09Z"/><path class="cls-4" d="M218.5-14.08c2.89,1.69,5.3,4.55,5.6,7.89s-2.07,7-5.41,7.26c.87,2.51-.2,5.38-2.07,7.26a16.24,16.24,0,0,1-7,3.7A43.51,43.51,0,0,1,194,13.77c0,2.2-2.24,3.66-4.3,4.43a29.26,29.26,0,0,1-20.27,0c-5.27,4.49-12.83,4.73-19.76,4.76-5.23,0-11.34-.4-14.28-4.72a30.29,30.29,0,0,1-13.65,2.06,16.9,16.9,0,0,1-11.88-6.46c-4.42.56-9,1.11-13.26-.18S88.42,8.7,88.33,4.25c-4.53.48-9.35-.28-13-3s-5.84-7.63-4.54-12c-3.26-1.07-3.88-5.84-1.88-8.62S74.44-23.3,77.79-24c.35-3.15,2.75-5.8,5.6-7.19A22.31,22.31,0,0,1,92.66-33a12.83,12.83,0,0,0,4.46-.59c1.53-.61,2.76-1.83,4.31-2.39a11,11,0,0,1,4.28-.35l14.64.73a15.62,15.62,0,0,1,17.06-6,5.48,5.48,0,0,0,2.17.42,5.51,5.51,0,0,0,2.54-1.37A14.81,14.81,0,0,1,153-45.2a19,19,0,0,0,3.66.46c1.05,0,2.07-.4,3.12-.55a9.24,9.24,0,0,1,9.17,4.4,11.09,11.09,0,0,1,10.08,1A11,11,0,0,1,183.88-31c2.5-.46,4.69,1.91,5.44,4.34s.66,5.07,1.55,7.45a9.65,9.65,0,0,0,7.92,6.07c4.09.4,6.07-2.63,9.62-3.54C211.54-17.45,215.85-15.63,218.5-14.08Z"/><path class="cls-5" d="M150.75,61.58a19.77,19.77,0,0,1,12.93-2.67c7.23,1.14,17.68-.38,22.25-2.66l2.66,4s-6.47,4.19-24.15,4c0,0-10.65.76-12,15C152.46,79.26,149.23,68.61,150.75,61.58Z"/><path class="cls-3" d="M183.21,51.86a6.25,6.25,0,0,0-6.67.68A5.47,5.47,0,0,0,175.11,59a4.87,4.87,0,0,0,6,2.33c-1.7,1.49-.39,4.6,1.75,5.35s4.48,0,6.6-.83A7.71,7.71,0,0,0,202,65.7a6.49,6.49,0,0,0,5.85,1.45,5.27,5.27,0,0,0,3.85-4.46,4.43,4.43,0,0,0-3.39-4.62c2.28-.35,3.41-3.35,2.46-5.45s-3.29-3.27-5.58-3.58a6,6,0,0,0-4.67,1,8.27,8.27,0,0,0-12,.68c-1.15-2-4.78-1.61-5.46.61"/><path class="cls-1" d="M118.4-14.51S125.71,8,125.71,13.81c0,0-1.14,1.8-.37,5.62a42.39,42.39,0,0,0,2.59,7.86s2.76-.13,2.76,8.27c0,0-1.74,59.79-4.36,89.17,0,0-8.17,25.68-15,33,0,0-7.5,9.05,3.54,6.69s21.69-4.33,30-2,16,2.14,22.84-.48,19.88,2.95,13.89-2.55c0,0-20.28-8-25.92-44.74-8-52.16.27-83.88.27-83.88S177.61.92,195-11.28c0,0,9.52-6.14,14.61-5.44l-1.23-5.6S189.44-24.66,168.14-5c0,0,5.15-34.48,5.68-52.32l-12.1.52s-1.57,38.31-9.46,54.58S135.44,2.53,130.7-13.74s-14-35.74-14-35.74l-8.41,5.16,7.07,20.64Z"/><g class="cls-6"><path class="cls-5" d="M161.11-61.68s-.53,67.35-18.37,71.2c0,0-16.88-2.8-9.27-72.07Z"/><path class="cls-5" d="M114.14,166.46A20.38,20.38,0,0,0,129.36,156c5.25-9.71,16.54,9.45,16.54,9.45s4.63,53.86,1.74,53.6-33.59.79-33.59.79l.82-55.35"/><path class="cls-5" d="M179.48,164.62s-8.66-3.15-11.54-9.45a36.81,36.81,0,0,0-7.88-10.75s9.45,14.69,3.94,21.51l10.5,1.31,6.56-3.14"/><path class="cls-5" d="M104.34,23l16.53,6.56L124,27.32s6,.66,7.08-1.05a9.15,9.15,0,0,0-.06,5.38,37.91,37.91,0,0,1,1.57,11.75c-.26,4.06,3.64,56.67-2.4,74.25s-22.57,22.83-22.57,22.83L102,75.74Z"/><path class="cls-5" d="M215.34-25l-24.67.62L170-9l-1.89,4S162.2,2.13,157.22,7.77s12.72-43.16,49.59-43.29Z"/><path class="cls-7" d="M155.92,30.83s-4.61,9.35-4.08,16.17,4.72,19.82,3.93,27.82a49.77,49.77,0,0,0,1.32,15.74s11.41-1.44,11.15-2.49,11-33.46,10.89-34.38-23.21-22.86-23.21-22.86"/></g><path class="cls-8" d="M173.92,34a7.58,7.58,0,0,1,7.43,5.22c1.68,4.55-1.73,11.94-8.62,15.06a10.87,10.87,0,0,1-6.41.84c-2.36-.42-4.21-1.57-4.9-3.78v0c-.35-1.6,1.69-2.11,2.39-3.4C166.05,43.8,165.32,34.22,173.92,34Z"/><path class="cls-9" d="M174.39,35.92a2,2,0,0,0,2.13.18"/><path class="cls-10" d="M175.67,36.09a9.43,9.43,0,0,0,.83-6.29.43.43,0,0,0-.5-.32h0a.44.44,0,0,0-.35.56,8.41,8.41,0,0,1-.31,5.89.18.18,0,0,0,.16.26h0A.16.16,0,0,0,175.67,36.09Z"/><path class="cls-11" d="M175.35,36.11s1.58-3.5-2.72-6C172.63,30.08,171.43,35,175.35,36.11Z"/><g class="cls-12"><polygon class="cls-2" points="172.63 30.08 175.35 36.11 176.15 35.26 175.1 31.25 172.63 30.08"/></g><path class="cls-8" d="M86.36,8.67a6.81,6.81,0,0,0-5.58,5.95c-.65,4.32,3.7,10.19,10.33,11.68a9.79,9.79,0,0,0,5.79-.43c2-.8,3.42-2.16,3.63-4.23v0c0-1.46-1.87-1.54-2.73-2.55C95.09,15.9,94,7.33,86.36,8.67Z"/><path class="cls-9" d="M86.3,10.49s-.46.74-1.84.55"/><path class="cls-10" d="M85.21,10.88a8.55,8.55,0,0,1-1.88-5.39.39.39,0,0,1,.39-.37h0a.4.4,0,0,1,.4.43,7.53,7.53,0,0,0,1.36,5.12.17.17,0,0,1-.1.26h0A.16.16,0,0,1,85.21,10.88Z"/><path class="cls-11" d="M85.5,10.83s-2-2.78,1.29-5.8C86.79,5,88.74,9.1,85.5,10.83Z"/><g class="cls-13"><polygon class="cls-2" points="86.79 5.03 85.5 10.83 84.64 10.23 84.83 6.51 86.79 5.03"/></g><path class="cls-14" d="M152.17,35s2.68,22.47,1.86,28.25-2.27,22-1.86,27.82,1,20,.21,25.57-3.92-18.56-3.3-25,2.06-17.73,1.24-27.62S150.11,23.07,152.17,35Z"/></svg>