<svg id="Layer_1" data-name="Layer 1" xmlns="http://www.w3.org/2000/svg" xmlns:xlink="http://www.w3.org/1999/xlink" viewBox="0 0 30.49 382.43"><defs><style>.cls-1,.cls-4{fill:none;}.cls-2{fill:#8b5e3c;}.cls-3{clip-path:url(#clip-path);}.cls-4{stroke:#a97c50;stroke-linecap:round;stroke-linejoin:round;stroke-width:1.33px;}</style><clipPath id="clip-path"><path class="cls-1" d="M28,2.58A2.75,2.75,0,0,0,25.71,0C23.61-.1,20.55,0,20.5,2c-.07,2.86,10.77,61.43-6.8,111.32.15-5.9.26-13,.3-21.28.12-27.35.63-41.08-2.26-48.62a1.46,1.46,0,0,0-1.89-1l-3.3,1.35a2.08,2.08,0,0,0-.95,2.58c.8,2.31,2,7.06,2.25,15.72.41,12-1.72,52.44.17,71.46-2.72,16.2-3.24,33-3.5,49.49-.27,17.55,1.94,36.18-.31,53.51-.82,6.31-2.37,12.46-3,18.79-1.41,13.23,2.07,24.58,3.34,37.4.91,9.13-1.27,20.13-1.71,29.46Q1.48,350,0,377.79c-.12,2.36,1.35,4.37,3.24,4.44l5.31.2c1.78.07,3.3-1.61,3.45-3.82.48-7,1.3-26.08,1.67-76.7.8-110.2-9.47-125.35,7.11-186.74C35.35,61.28,29.64,13.46,28,2.58Z"/></clipPath></defs><title>11_long_stick</title><path class="cls-2" d="M28,2.58A2.75,2.75,0,0,0,25.71,0C23.61-.1,20.55,0,20.5,2c-.07,2.86,10.77,61.43-6.8,111.32.15-5.9.26-13,.3-21.28.12-27.35.63-41.08-2.26-48.62a1.46,1.46,0,0,0-1.89-1l-3.3,1.35a2.08,2.08,0,0,0-.95,2.58c.8,2.31,2,7.06,2.25,15.72.41,12-1.72,52.44.17,71.46-2.72,16.2-3.24,33-3.5,49.49-.27,17.55,1.94,36.18-.31,53.51-.82,6.31-2.37,12.46-3,18.79-1.41,13.23,2.07,24.58,3.34,37.4.91,9.13-1.27,20.13-1.71,29.46Q1.48,350,0,377.79c-.12,2.36,1.35,4.37,3.24,4.44l5.31.2c1.78.07,3.3-1.61,3.45-3.82.48-7,1.3-26.08,1.67-76.7.8-110.2-9.47-125.35,7.11-186.74C35.35,61.28,29.64,13.46,28,2.58Z"/><g class="cls-3"><path class="cls-4" d="M6.52,237.63a36.41,36.41,0,0,1,2.24,8.8c1.66,13.14-3.57,26.83-.77,39.67"/><path class="cls-4" d="M5.28,248.7,3.58,268.2a43.24,43.24,0,0,1-1.34-9.83c.06-3.34,1-6.8,3-9"/><path class="cls-4" d="M9.88,297.62c.48,13.26-2.28,26.33-4.21,39.4s-3,26.9.74,39.33"/><path class="cls-4" d="M25.32,4c3.59,22.08,2.4,44.9,1.19,67.39a205.78,205.78,0,0,1-2.2,23.78c-2.4,14-7.66,27.07-9.27,41.21-1,8.48-.57,17.09-.83,25.65-.48,16.1-3.23,32-4,48.07-.56,11.79-.05,23.61.45,35.4l2,47.09"/><path class="cls-4" d="M9.1,43.53c4.46,18.89.06,39.19,1.32,58.82.4,6.27,1.38,12.47,1.56,18.76.2,7.14-.64,14.25-1.35,21.34q-2.52,25.05-3,50.33c-.35,19.71,0,40.65-8.19,57.53"/><path class="cls-4" d="M6.84,78.16a261.24,261.24,0,0,0,1.1,41.33C8.42,124,9,128.42,9.16,132.92a135.69,135.69,0,0,1-1.4,20.45l-5.14,43"/><path class="cls-4" d="M14.56,290.94c-2,22.89-4,45.82-4.17,68.84-.07,10,.22,20-.72,29.92"/></g></svg>