<svg id="Layer_1" data-name="Layer 1" xmlns="http://www.w3.org/2000/svg" xmlns:xlink="http://www.w3.org/1999/xlink" viewBox="0 0 40.69 130.32"><defs><style>.cls-1,.cls-4{fill:none;}.cls-2{fill:#8b5e3c;}.cls-3{clip-path:url(#clip-path);}.cls-4{stroke:#a97c50;stroke-linecap:round;stroke-linejoin:round;stroke-width:0.99px;}</style><clipPath id="clip-path"><path class="cls-1" d="M35.6,2.78c-.37-.56-1.93-1.22-3.76-1.61-3.35-.7-8.21-1.6-8.23-.94,0,1,18.95,24.88-7.53,36.93.06-2,0-4.48-.16-7.37-.62-9.56-.21-14.21-5-17.75a7.33,7.33,0,0,0-3-.94l-5.22-.55c-1.36-.14-2,.14-1.43.61a11.19,11.19,0,0,1,4,6.21c1,4.33-1.19,17.86,2.39,25.12C3.8,47.33,3.47,53.06,3.54,58.76c.08,6.07,4.16,13.29,1.09,18.67-1.12,2-3.4,3.63-4.28,5.65-1.85,4.21,4,9.26,6.42,14.15,1.71,3.48-1.42,6.67-1.85,9.8q-1.28,9.35-2.8,18.65c-.13.79,2.27,1.95,5.29,2.56L15.86,130c2.83.57,5.19.46,5.37-.27.56-2.31,1.3-8.74.38-26.38-2-38.4-18.76-46.9,5.8-63.29C49,25.64,38.49,7.1,35.6,2.78Z"/></clipPath></defs><title>11_short_stick</title><path class="cls-2" d="M35.6,2.78c-.37-.56-1.93-1.22-3.76-1.61-3.35-.7-8.21-1.6-8.23-.94,0,1,18.95,24.88-7.53,36.93.06-2,0-4.48-.16-7.37-.62-9.56-.21-14.21-5-17.75a7.33,7.33,0,0,0-3-.94l-5.22-.55c-1.36-.14-2,.14-1.43.61a11.19,11.19,0,0,1,4,6.21c1,4.33-1.19,17.86,2.39,25.12C3.8,47.33,3.47,53.06,3.54,58.76c.08,6.07,4.16,13.29,1.09,18.67-1.12,2-3.4,3.63-4.28,5.65-1.85,4.21,4,9.26,6.42,14.15,1.71,3.48-1.42,6.67-1.85,9.8q-1.28,9.35-2.8,18.65c-.13.79,2.27,1.95,5.29,2.56L15.86,130c2.83.57,5.19.46,5.37-.27.56-2.31,1.3-8.74.38-26.38-2-38.4-18.76-46.9,5.8-63.29C49,25.64,38.49,7.1,35.6,2.78Z"/><g class="cls-3"><path class="cls-4" d="M8.34,78.54a13.64,13.64,0,0,1,3.82,3.78c3,5.12-4.88,8.3,0,13.67"/><path class="cls-4" d="M6.69,82,4.57,88.36C3.37,87,2.15,85.64,2.15,84.49s1.36-2.08,4.56-2.2"/><path class="cls-4" d="M15.46,100.63c1.16,4.8-2.85,8.53-5.53,12.51s-4,8.51,2.34,14"/><path class="cls-4" d="M31.34,2.44c6.36,8.86,5.14,16.49,3.88,24-.45,2.66-.9,5.33-2.8,7.66C29,38.25,21,41.22,18.9,45.68c-1.28,2.68-.41,5.82-.56,8.74-.28,5.5-4.19,10.22-4.93,15.62-.55,4,.61,8.26,1.77,12.56l4.62,17.14"/><path class="cls-4" d="M6.7,11.27c7.65,8,1.26,13.76,3.84,21,.83,2.32,2.57,4.8,3,7.06.53,2.57-.59,4.8-1.52,7.06A43.36,43.36,0,0,0,8.84,63.17C8.87,70,10.06,77.43-2.49,80.8"/><path class="cls-4" d="M4.14,22.72c-.75,4.61.25,9.59,3,14.84a23.81,23.81,0,0,1,2.33,5.09c.56,2.47-.53,4.61-1.62,6.74L.92,62.87"/><path class="cls-4" d="M22.7,99.74c-2.52,7.4-5,14.82-4.6,22.85.19,3.48.94,7.08-.27,10.27"/></g></svg>