<svg id="Layer_1" data-name="Layer 1" xmlns="http://www.w3.org/2000/svg" viewBox="0 0 175.85 162.44"><defs><style>.cls-1{fill:#955333;}.cls-2{fill:#a86240;}.cls-3{fill:#904e2b;}.cls-4{fill:#965633;}.cls-5{fill:#fbbc86;}.cls-6{fill:#9a5a36;}.cls-7{fill:#fcbd87;}.cls-8{fill:#fff;}.cls-9{fill:#231f20;}.cls-10{fill:#753313;}.cls-11{fill:#562810;}</style></defs><title>11_big_small_monkey</title><path class="cls-1" d="M75,100.92a2.24,2.24,0,0,1,2.6-3.62c.73.43,17.33,10,37.89-1.24a35.3,35.3,0,0,0,6.29-4.47c7.26-6.32,25.74-20.36,40.44-14.33,10.89,4.46,14.62,14.57,13.47,22.08-1.1,7.21-6.14,12.07-13.16,12.67a13.35,13.35,0,0,1-12.82-6.25c-2.52-4.11-2.69-9.12-.43-12.77,1.31-2.1,4.59-5.54,11.86-4.88a2.23,2.23,0,1,1-.4,4.45c-3.67-.33-6.32.64-7.65,2.79s-1.19,5.43.43,8.07a8.85,8.85,0,0,0,8.63,4.13c4.92-.42,8.33-3.75,9.12-8.89.89-5.83-2.09-13.71-10.75-17.26-12.74-5.22-30.62,9.06-35.8,13.57a40.46,40.46,0,0,1-7.08,5c-22.9,12.54-41.56,1.62-42.35,1.14A1.94,1.94,0,0,1,75,100.92Z"/><path class="cls-2" d="M42.39,19.87c-1.91-.87-1.34-3,.24-3.72a6.87,6.87,0,0,1,4.54.08,8.27,8.27,0,0,1,5.11,4,8.4,8.4,0,0,1-2.42,10.31,13.21,13.21,0,0,1-3.39,1.67,8.24,8.24,0,0,1-3.16.62,3.3,3.3,0,0,1-2.72-1.5,2.09,2.09,0,0,1,.66-2.82c-1.07.36-2.22-.81-2.11-1.94a2.9,2.9,0,0,1,2.2-2.32,2.3,2.3,0,0,1,1-4.41Z"/><path class="cls-3" d="M85,48.07c-.36,0-2.9-4.46-3.17-4.85A67.15,67.15,0,0,0,72.73,33a47.29,47.29,0,0,0-9.26-6.7A34.87,34.87,0,0,0,58,23.81c-.86-.29-1.94-.39-2.74-.76-1.17-.53-2.12-1.82-3.08-2.65a6.27,6.27,0,0,0-3.79-1.8,14,14,0,0,1,2.25,2.31,10.66,10.66,0,0,0-2.89.67,5.75,5.75,0,0,1,2.2,2A15.71,15.71,0,0,0,46.36,26l3.44.42-3.8,3a13.54,13.54,0,0,0,3.77-.73L47.6,32l4-1.7a3.77,3.77,0,0,1,3.51-.1c1,.43,2,.83,3,1.29a45.08,45.08,0,0,1,6.76,3.84c4.69,3.24,8.84,7.73,10,13.46Z"/><path class="cls-2" d="M122.42,116.29c.23,2.08,2.4,2.19,3.61.93,1-1.08,1.29-2.9,1.36-4.33a8.31,8.31,0,0,0-2.21-6.12,8.42,8.42,0,0,0-10.55-1,13.35,13.35,0,0,0-2.66,2.7,8.2,8.2,0,0,0-1.58,2.8,3.29,3.29,0,0,0,.56,3.05,2.09,2.09,0,0,0,2.89.26,1.8,1.8,0,0,0,1.17,2.62,2.92,2.92,0,0,0,2.9-1.36,2.3,2.3,0,0,0,4.51.4Z"/><path class="cls-3" d="M109.08,67c-.13.33,3.32,4.15,3.6,4.54a67.09,67.09,0,0,1,6.88,11.86A47.77,47.77,0,0,1,123,94.26a36.84,36.84,0,0,1,.58,6c0,.91-.24,2-.15,2.84.14,1.28,1.07,2.59,1.56,3.76a6.29,6.29,0,0,1,.51,4.16,14.91,14.91,0,0,0-1.48-2.86,10.74,10.74,0,0,1-1.55,2.53,5.83,5.83,0,0,0-1.16-2.7,15.57,15.57,0,0,1-3.44,2.6l.69-3.4-4.08,2.64a13.59,13.59,0,0,1,1.88-3.34l-3.78,1,2.86-3.26a3.71,3.71,0,0,0,1.2-3.3c-.09-1.09-.15-2.17-.27-3.26a46.19,46.19,0,0,0-1.51-7.63c-1.61-5.46-4.56-10.82-9.62-13.77Z"/><circle class="cls-4" cx="80.19" cy="20.7" r="7.21"/><circle class="cls-5" cx="82.32" cy="21.7" r="4.64"/><path class="cls-2" d="M19.3,111.18s9.2,6.43,6.61,11.87-10.33.77-14.48-.84-12.32-4.54-11.35-7,4.54-.63,4.54-.63-3.37-1.78-2.27-4S6,110.43,6,110.43s-2-1.12-1.25-3,3,.22,3,.22-2.43-1.73-1.19-3.09C8.48,102.5,19.3,111.18,19.3,111.18Z"/><path class="cls-1" d="M57.72,82.17a13.13,13.13,0,0,0-2.48.47,48.08,48.08,0,0,0-6.56,2.08A57.84,57.84,0,0,0,29.29,97.46a62.53,62.53,0,0,0-5.36,6c-1.48,1.9-2.81,5.47-5.63,5.2a11.85,11.85,0,0,0-3.49-.3,6.51,6.51,0,0,1,2.07,2c-1.42-.08-2.46.43-4,1.21,1.26.38,2,1.55,3.25,1.66A20,20,0,0,0,13.42,117a13.68,13.68,0,0,1,3.35-.82,26,26,0,0,0-1.62,3.8A13.72,13.72,0,0,0,20.76,118,34.28,34.28,0,0,1,23,122.6a26.26,26.26,0,0,0,1.6-3.18,4,4,0,0,1,1.73,2.36,13,13,0,0,1,.09-3.84,16.36,16.36,0,0,1,.68-3.87,20,20,0,0,1,3-5.17,50.94,50.94,0,0,1,7.51-8.62,40.89,40.89,0,0,1,23.6-10.6Z"/><path class="cls-2" d="M99.13,146s-11.18-1-12.71,4.8,7.39,7.25,11.59,8.7,12.34,4.49,13.21,2-3.06-3.41-3.06-3.41,3.72.82,4.31-1.57-2.7-2.47-2.7-2.47,2.23.42,2.88-1.47-2.44-1.79-2.44-1.79,3,.25,2.9-1.58C113,146.37,99.13,146,99.13,146Z"/><path class="cls-1" d="M88.52,99.05a12.79,12.79,0,0,1,1.59,2,47.59,47.59,0,0,1,3.67,5.83,57.89,57.89,0,0,1,6.58,22.24,62.29,62.29,0,0,1,.19,8.08c-.1,2.41-1.38,6,.94,7.61a12,12,0,0,1,2.86,2,6.51,6.51,0,0,0-2.87.2c1.14.86,1.59,1.92,2.3,3.54-1.2-.52-2.53-.1-3.55-.83a20,20,0,0,1-.33,4.52,13.53,13.53,0,0,0-2-2.78,26,26,0,0,1-1.21,3.94,13.58,13.58,0,0,1-3-5.1,33.74,33.74,0,0,0-4.68,2.09,27.79,27.79,0,0,1,.83-3.47,4,4,0,0,0-2.84.69,13,13,0,0,0,2.41-3,17.25,17.25,0,0,0,2-3.4,20.15,20.15,0,0,0,1.07-5.87,51.4,51.4,0,0,0-.18-11.43A40.9,40.9,0,0,0,81,102.55Z"/><ellipse class="cls-6" cx="84.19" cy="73.93" rx="31.49" ry="27.64" transform="translate(-26.62 90.48) rotate(-49.78)"/><ellipse class="cls-7" cx="81.59" cy="77" rx="22.11" ry="19.4" transform="translate(-29.89 89.59) rotate(-49.78)"/><circle class="cls-4" cx="136.46" cy="63.46" r="7.21"/><circle class="cls-5" cx="135.12" cy="61.54" r="4.64"/><ellipse class="cls-6" cx="115.78" cy="32.52" rx="31.47" ry="33.94" transform="translate(16.19 99.93) rotate(-49.78)"/><path class="cls-5" d="M137.46,49.69a15,15,0,0,0-16.19-24,15,15,0,1,0-29.51,1.2,10,10,0,0,0-2.9,2.32c-5.37,6.35-1.81,18.19,8,26.45s22,9.8,27.4,3.45A10.4,10.4,0,0,0,126.31,55,15,15,0,0,0,137.46,49.69Z"/><circle class="cls-8" cx="98.82" cy="31.37" r="6.73"/><circle class="cls-9" cx="98.82" cy="31.37" r="4.53"/><circle class="cls-8" cx="101.79" cy="30.65" r="1.65"/><circle class="cls-8" cx="120.11" cy="49.37" r="6.73"/><circle class="cls-9" cx="120.11" cy="49.37" r="4.53"/><circle class="cls-8" cx="123.08" cy="48.65" r="1.65"/><path class="cls-10" d="M104.76,45.29a.35.35,0,0,0,.57-.21c.14-.85.25-2.36-.58-2.84-1.19-.69-2.75.4-2.27,1A30.44,30.44,0,0,0,104.76,45.29Z"/><path class="cls-10" d="M106.23,46.54a.35.35,0,0,1,.11-.6c.82-.28,2.29-.65,2.9.1.87,1.06.06,2.78-.58,2.4C108.2,48.16,106.92,47.11,106.23,46.54Z"/><circle class="cls-11" cx="104.17" cy="52.96" r="2.46"/></svg>