<svg id="Layer_1" data-name="Layer 1" xmlns="http://www.w3.org/2000/svg" xmlns:xlink="http://www.w3.org/1999/xlink" viewBox="0 0 123.84 87.79"><defs><style>.cls-1{fill:none;}.cls-2{fill:#1daded;}.cls-3{clip-path:url(#clip-path);}.cls-4{fill:#ffcb33;}.cls-5{fill:#1bb3ef;}.cls-6{fill:#f7f6da;}.cls-7{fill:#fff;}.cls-8{fill:#8b5e3c;}.cls-9{fill:#603913;}.cls-10{clip-path:url(#clip-path-2);}</style><clipPath id="clip-path"><path id="SVGID" class="cls-1" d="M62.81,44.35s-27.56,3.4-54.14-14c0,0,2.16,21.7,23.53,26.49S62.81,44.35,62.81,44.35Z"/></clipPath><clipPath id="clip-path-2"><path id="SVGID-2" data-name="SVGID" class="cls-1" d="M54.15,50.35S26.58,53.75,0,36.32c0,0,2.16,21.7,23.53,26.49S54.15,50.35,54.15,50.35Z"/></clipPath></defs><title>03_a_small_bird_flapping</title><path class="cls-2" d="M62.81,44.35s-27.56,3.4-54.14-14c0,0,2.16,21.7,23.53,26.49S62.81,44.35,62.81,44.35Z"/><g class="cls-3"><circle class="cls-4" cx="61" cy="50.61" r="6.41" transform="translate(-16.89 35.92) rotate(-29)"/><circle class="cls-4" cx="51.61" cy="54.98" r="6.41" transform="translate(-20.18 31.92) rotate(-29)"/><circle class="cls-4" cx="40.28" cy="57.34" r="6.41" transform="translate(-22.75 26.72) rotate(-29)"/><circle class="cls-4" cx="29.37" cy="55.01" r="6.41" transform="translate(-22.99 21.14) rotate(-29)"/><circle class="cls-4" cx="19.64" cy="50.83" r="6.41" transform="translate(-22.18 15.9) rotate(-29)"/><circle class="cls-4" cx="10.91" cy="43.39" r="6.41" transform="translate(-19.67 10.73) rotate(-29)"/><circle class="cls-4" cx="4.7" cy="35.11" r="6.41" transform="translate(-16.43 6.68) rotate(-29)"/></g><path class="cls-4" d="M90.1,30.35s21.46,3.11,27.18,5c5,1.63,8,4.62,5.8,15.06a2.08,2.08,0,0,1-3.56,1c-1.83-2-5-4.14-10.65-5.22C97.38,43.91,88,42.61,88,42.61S90.24,29.61,90.1,30.35Z"/><path class="cls-5" d="M80.68.38C73.55-1,53.7.41,49.4,20.47S35.75,66.57,5.54,60.76c0,0,16.77,35,61.69,25.35S120.11,8,80.68.38Z"/><path class="cls-6" d="M95.83,67.1a46.93,46.93,0,0,1-28.6,19,72.13,72.13,0,0,1-14.8,1.68A26.06,26.06,0,0,1,95.83,67.1Z"/><circle class="cls-7" cx="84.7" cy="33.03" r="17.08" transform="translate(-4.89 17.58) rotate(-11.52)"/><circle class="cls-8" cx="81.6" cy="33.73" r="8.09" transform="translate(-4.68 14.96) rotate(-10.18)"/><circle class="cls-9" cx="81.35" cy="33.86" r="4.42" transform="translate(-4.7 14.92) rotate(-10.18)"/><circle class="cls-7" cx="79.91" cy="28.91" r="2.83" transform="translate(-3.85 14.58) rotate(-10.18)"/><path class="cls-2" d="M54.15,50.35S26.58,53.75,0,36.32c0,0,2.16,21.7,23.53,26.49S54.15,50.35,54.15,50.35Z"/><g class="cls-10"><circle class="cls-4" cx="52.34" cy="56.61" r="6.41" transform="translate(-20.88 32.47) rotate(-29)"/><circle class="cls-4" cx="42.95" cy="60.98" r="6.41" transform="translate(-24.18 28.47) rotate(-29)"/><circle class="cls-4" cx="31.62" cy="63.34" r="6.41" transform="translate(-26.74 23.27) rotate(-29)"/><circle class="cls-4" cx="20.7" cy="61.01" r="6.41" transform="matrix(0.87, -0.48, 0.48, 0.87, -26.98, 17.69)"/><circle class="cls-4" cx="10.98" cy="56.83" r="6.41" transform="translate(-26.18 12.45) rotate(-29)"/><circle class="cls-4" cx="2.24" cy="49.39" r="6.41" transform="translate(-23.66 7.28) rotate(-29)"/><circle class="cls-4" cx="-3.97" cy="41.11" r="6.41" transform="translate(-20.43 3.23) rotate(-29)"/></g></svg>