<svg id="Layer_1" data-name="Layer 1" xmlns="http://www.w3.org/2000/svg" xmlns:xlink="http://www.w3.org/1999/xlink" viewBox="0 0 123.84 87.79"><defs><style>.cls-1{fill:none;}.cls-2{fill:#1daded;}.cls-3{clip-path:url(#clip-path);}.cls-4{fill:#ffcb33;}.cls-5{fill:#1bb3ef;}.cls-6{fill:#f7f6da;}.cls-7{fill:#fff;}.cls-8{fill:#8b5e3c;}.cls-9{fill:#603913;}.cls-10{clip-path:url(#clip-path-2);}</style><clipPath id="clip-path"><path id="SVGID" class="cls-1" d="M64.21,48.74S40.9,33.62,31.75,3.18c0,0-12.29,18,1,35.41S64.21,48.74,64.21,48.74Z"/></clipPath><clipPath id="clip-path-2"><path id="SVGID-2" data-name="SVGID" class="cls-1" d="M55.21,50.4S31.9,35.29,22.75,4.85c0,0-12.29,18,1,35.41S55.21,50.4,55.21,50.4Z"/></clipPath></defs><title>03_a_small_bird_flapping</title><path class="cls-2" d="M64.21,48.74S40.9,33.62,31.75,3.18c0,0-12.29,18,1,35.41S64.21,48.74,64.21,48.74Z"/><g class="cls-3"><circle class="cls-4" cx="58.79" cy="52.37" r="6.41" transform="translate(-3.85 100.07) rotate(-78.98)"/><circle class="cls-4" cx="48.79" cy="49.68" r="6.41" transform="translate(-9.3 88.08) rotate(-78.98)"/><circle class="cls-4" cx="38.59" cy="44.21" r="6.41" transform="translate(-12.17 73.64) rotate(-78.98)"/><circle class="cls-4" cx="31.73" cy="35.4" r="6.41" transform="translate(-9.08 59.79) rotate(-78.98)"/><circle class="cls-4" cx="26.97" cy="25.95" r="6.41" transform="translate(-3.65 47.46) rotate(-78.98)"/><circle class="cls-4" cx="25.07" cy="14.63" r="6.41" transform="translate(5.92 36.44) rotate(-78.98)"/><circle class="cls-4" cx="25.64" cy="4.29" r="6.41" transform="translate(16.52 28.64) rotate(-78.98)"/></g><path class="cls-4" d="M90.1,30.35s21.46,3.11,27.18,5c5,1.63,8,4.62,5.8,15.06a2.08,2.08,0,0,1-3.56,1c-1.83-2-5-4.14-10.65-5.22C97.38,43.91,88,42.61,88,42.61S90.24,29.61,90.1,30.35Z"/><path class="cls-5" d="M80.68.38C73.55-1,53.7.41,49.4,20.47S35.75,66.57,5.54,60.76c0,0,16.77,35,61.69,25.35S120.11,8,80.68.38Z"/><path class="cls-6" d="M95.83,67.1a46.93,46.93,0,0,1-28.6,19,72.13,72.13,0,0,1-14.8,1.68A26.06,26.06,0,0,1,95.83,67.1Z"/><circle class="cls-7" cx="84.7" cy="33.03" r="17.08" transform="translate(-4.89 17.58) rotate(-11.52)"/><circle class="cls-8" cx="81.6" cy="33.73" r="8.09" transform="translate(-4.68 14.96) rotate(-10.18)"/><circle class="cls-9" cx="81.35" cy="33.86" r="4.42" transform="translate(-4.7 14.92) rotate(-10.18)"/><circle class="cls-7" cx="79.91" cy="28.91" r="2.83" transform="translate(-3.85 14.58) rotate(-10.18)"/><path class="cls-2" d="M55.21,50.4S31.9,35.29,22.75,4.85c0,0-12.29,18,1,35.41S55.21,50.4,55.21,50.4Z"/><g class="cls-10"><circle class="cls-4" cx="49.79" cy="54.04" r="6.41" transform="translate(-12.76 92.59) rotate(-78.98)"/><circle class="cls-4" cx="39.79" cy="51.35" r="6.41" transform="translate(-18.22 80.59) rotate(-78.98)"/><circle class="cls-4" cx="29.59" cy="45.87" r="6.41" transform="translate(-21.09 66.15) rotate(-78.98)"/><circle class="cls-4" cx="22.73" cy="37.07" r="6.41" transform="translate(-18 52.3) rotate(-78.98)"/><circle class="cls-4" cx="17.97" cy="27.61" r="6.41" transform="translate(-12.57 39.98) rotate(-78.98)"/><circle class="cls-4" cx="16.07" cy="16.29" r="6.41" transform="translate(-3 28.95) rotate(-78.98)"/><circle class="cls-4" cx="16.64" cy="5.96" r="6.41" transform="translate(7.61 21.15) rotate(-78.98)"/></g></svg>