<svg id="Layer_1" data-name="Layer 1" xmlns="http://www.w3.org/2000/svg" xmlns:xlink="http://www.w3.org/1999/xlink" viewBox="0 0 303.4 187.58"><defs><style>.cls-1{fill:none;}.cls-2{fill:#522717;}.cls-3{fill:#6b3217;}.cls-4{fill:#572610;}.cls-5{fill:#d98f38;}.cls-6{fill:#b87127;}.cls-7{fill:#dba158;}.cls-8{fill:#c77a2a;}.cls-9{fill:#368622;}.cls-10{fill:#3b6420;}.cls-11{fill:#f5fe7f;}.cls-12{fill:#854e30;}.cls-13{fill:#a36445;}.cls-14{fill:#d8e3e7;}.cls-15{fill:#f7931e;}.cls-16,.cls-18{fill:#9de5e1;}.cls-16{opacity:0.65;}.cls-17{fill:#d7e0e5;opacity:0.5;}.cls-19{fill:#fe8e00;}.cls-20{fill:#fce5a1;}.cls-21{clip-path:url(#clip-path);}.cls-22{fill:#fab832;}.cls-23{fill:#fff;opacity:0.51;}.cls-24{fill:#fcdd11;}.cls-25{fill:#ffcb33;}.cls-26{fill:#d8a413;}</style><clipPath id="clip-path"><path class="cls-1" d="M69.86,12.28l35.33,43.35A28,28,0,0,0,69.86,12.28Z"/></clipPath></defs><title>20_food</title><ellipse class="cls-2" cx="205.91" cy="144.71" rx="97.49" ry="33.65"/><ellipse class="cls-3" cx="205.19" cy="142.59" rx="85.21" ry="29.42"/><path class="cls-4" d="M195.41,168.25a88.12,88.12,0,0,1-21.52-1.71c-6.7-1.3-13.42-1.68-20-3.82-1.71-.56-3.65-1.47-3.79-3-.08-.93.54-1.85.38-2.78-.48-2.79-5.6-3.91-8-4.7-1.31-.43-2.42-1.83-1.58-2.8.29-.33.76-.55.92-.93.81-1.87-7.17-2.54-5.47-6.49-.72,1.68-4.07,1.38-4.84-.29s.65-3.63,2.58-4.33c-1.09,1-3.29.18-3.75-1.15s.27-2.73,1.14-3.9c1.17-1.57,3.37-3.52,5.79-2.95-1.44.26-2.08-1.39-2-2.37.36-4.67,9.47-3.08,13.38-3.57,6.55-.83,116.91-6.54,119-2.57,2.23-.42,4.86,0,6.14,1.82a3.77,3.77,0,0,1-1.49,5.4c2.7-.45,5.65,1.18,6.28,3.49.83,3.07-3.81,4.13-3.53,7,.24,2.46,2.53,2.74,0,5.16-1.83,1.74-4.89,2.13-7.4,2.66.16,1.7-.21,3.71-2.19,4.6-1.65.73-3.12.05-4.76.32-1.24.2-2.27,1-3.44,1.46-2.55,1-5.39,1.11-8,1.85a1.57,1.57,0,0,1,2.19,1.46c-.13,1-1.15,1.71-2.18,2.18a12.59,12.59,0,0,1-10.15-.06c1.84,2.14.34,5.51-2.45,6.68-4.23,1.77-8.22-1.17-12.6-.47l-8.95,1.43A184.86,184.86,0,0,1,195.41,168.25Z"/><path class="cls-5" d="M195.41,163.73A88.12,88.12,0,0,1,173.89,162c-6.7-1.3-13.42-1.68-20-3.82-1.71-.56-3.65-1.47-3.79-3-.08-.93.54-1.85.38-2.78-.48-2.79-5.6-3.91-8-4.7-1.31-.43-2.42-1.83-1.58-2.8.29-.33.76-.55.92-.93.81-1.87-7.17-2.54-5.47-6.49-.72,1.68-4.07,1.38-4.84-.29s.65-3.63,2.58-4.33c-1.09,1-3.29.18-3.75-1.15s.27-2.73,1.14-3.9c1.17-1.57,3.37-3.52,5.79-2.95-1.44.26-2.08-1.39-2-2.37a5.56,5.56,0,0,1,2.41-3.55,10,10,0,0,1,7.51-2c-6.27-1-1.56-3.9,2.55-4-8.53.11,2-7.37,6.13-7.61-1.13,1.45-4.13-.06-3.91-1.79s2.24-2.86,4.18-3.37,4.06-.69,5.71-1.7c-2,.57-4.27-1.18-3.85-2.93.34-1.4,2-2.32,3.67-2.46a13.63,13.63,0,0,1,4.86.75c-2.19-.07-2.17-3.3-.2-4.13s4.29-.05,6.28.73c-1.82-.71-1.44-3.55-.09-4.46,3.13-2.1,3.41,2.27,6,1.23,1.36-.54,1.28-3.27,2.77-3.65,2-.52,4.38,2.5,5,3.84,0-2.15,1.06-5.09,3.52-4.74,2.25.32,2.44,3,2,4.95,1.29-1.87,2.87-3.93,5.35-4.35s5.27,2.28,3.55,3.88a17.67,17.67,0,0,1,5.48-3.44,4.86,4.86,0,0,1,3.43-.35c1.08.41,1.56,1.9.56,2.46,3.26-1.8,11.49-4,9.25,2.18,1.71-1.11,3.63-2.29,5.76-2.14s4,2.44,2.65,3.87a7.55,7.55,0,0,1,5.6-1.87c2,.3,3.72,2.36,2.74,3.93.66-1.06-.05-4,1.25-4.71,2.93-1.49,4,5.67,4.3,6.92-1.08-5.27,9.93-7.07,7.07,2.07.39-1.26,3.18-3.13,4.88-2.55,2.45.83,1.29,4,.44,5.52,1.19-1.83,4.47-2.3,6.28-.91a3.35,3.35,0,0,1-.35,5.47c2.25-1.32,5.61-1.44,7.51.24a3.27,3.27,0,0,1-1.5,5.61c2.15-.73,4.87.27,5.75,2.11a3.78,3.78,0,0,1-2.39,5,5.55,5.55,0,0,1,6.25,1.63,3.77,3.77,0,0,1-1.49,5.4c2.7-.45,5.65,1.18,6.28,3.49.83,3.07-3.81,4.13-3.53,7,.24,2.46,2.53,2.74,0,5.16-1.83,1.74-4.89,2.13-7.4,2.66.16,1.7-.21,3.71-2.19,4.6-1.6.71-3.53.45-5.31.17a11.89,11.89,0,0,0-3.35-.21,2.41,2.41,0,0,1,2.34.88l-9.89,2.79a1.57,1.57,0,0,1,2.19,1.46c-.13,1-1.15,1.71-2.18,2.18a12.59,12.59,0,0,1-10.15-.06c1.84,2.14.34,5.51-2.45,6.68-4.23,1.77-8.22-1.17-12.6-.47l-8.95,1.43A184.86,184.86,0,0,1,195.41,163.73Z"/><ellipse class="cls-6" cx="160.03" cy="151.03" rx="2.49" ry="4.99" transform="translate(-58.69 175.13) rotate(-49.63)"/><ellipse class="cls-6" cx="146.42" cy="123.29" rx="2.49" ry="5.44" transform="translate(-2.78 3.38) rotate(-1.31)"/><ellipse class="cls-6" cx="198.32" cy="94.18" rx="4.66" ry="2.49" transform="translate(-0.36 187.61) rotate(-50.59)"/><ellipse class="cls-6" cx="234.91" cy="137.1" rx="5.32" ry="2.49" transform="translate(-20.16 231.55) rotate(-50.59)"/><ellipse class="cls-6" cx="226.47" cy="106.96" rx="4.88" ry="1.83" transform="translate(0.05 214.02) rotate(-50.59)"/><ellipse class="cls-6" cx="194.73" cy="130.14" rx="2.95" ry="1.83" transform="translate(-29.45 197.97) rotate(-50.59)"/><ellipse class="cls-6" cx="208.29" cy="133.3" rx="2.49" ry="6.64" transform="translate(-31.06 71.13) rotate(-18.06)"/><ellipse class="cls-6" cx="195.39" cy="159.17" rx="2.49" ry="4.86" transform="matrix(0.95, -0.31, 0.31, 0.95, -39.71, 68.4)"/><ellipse class="cls-6" cx="246.39" cy="144.01" rx="2.49" ry="3.95" transform="translate(47.34 348.53) rotate(-76.08)"/><ellipse class="cls-6" cx="258.13" cy="123.77" rx="2.49" ry="4.86" transform="translate(75.91 344.56) rotate(-76.08)"/><ellipse class="cls-6" cx="247.46" cy="117.6" rx="4.83" ry="2.49" transform="translate(-26.46 123.6) rotate(-26.67)"/><ellipse class="cls-6" cx="233.38" cy="95.39" rx="2.49" ry="5.58" transform="translate(84.65 298.98) rotate(-76.08)"/><ellipse class="cls-6" cx="257.15" cy="109.26" rx="2.49" ry="3.77" transform="translate(89.25 332.58) rotate(-76.08)"/><ellipse class="cls-6" cx="219.63" cy="95.9" rx="2.49" ry="5.47" transform="translate(73.72 286.02) rotate(-76.08)"/><ellipse class="cls-6" cx="156.64" cy="109.5" rx="2.49" ry="4.9" transform="translate(12.68 235.21) rotate(-76.08)"/><ellipse class="cls-6" cx="173.88" cy="113.85" rx="2.49" ry="4.95" transform="translate(21.55 255.24) rotate(-76.08)"/><ellipse class="cls-6" cx="192.13" cy="123.68" rx="2.49" ry="4.74" transform="translate(25.87 280.43) rotate(-76.08)"/><ellipse class="cls-6" cx="170.46" cy="122.57" rx="2.49" ry="4.74" transform="translate(10.49 258.54) rotate(-76.08)"/><ellipse class="cls-6" cx="204.14" cy="158.81" rx="2.49" ry="4.65" transform="translate(0.89 318.75) rotate(-76.08)"/><ellipse class="cls-6" cx="224.98" cy="128.73" rx="2.49" ry="5.09" transform="translate(45.91 316.14) rotate(-76.08)"/><ellipse class="cls-6" cx="210.16" cy="110.28" rx="2.49" ry="5.29" transform="translate(52.57 287.74) rotate(-76.08)"/><ellipse class="cls-6" cx="198.5" cy="105.14" rx="4.86" ry="2.49" transform="translate(55.85 278.66) rotate(-78.49)"/><ellipse class="cls-6" cx="192.06" cy="113.11" rx="5.47" ry="2.49" transform="translate(42.89 278.73) rotate(-78.49)"/><ellipse class="cls-6" cx="169.76" cy="145.69" rx="4.46" ry="2.49" transform="translate(-6.89 282.95) rotate(-78.49)"/><ellipse class="cls-6" cx="198.85" cy="132.69" rx="4.46" ry="2.49" transform="translate(29.14 301.06) rotate(-78.49)"/><ellipse class="cls-6" cx="186.85" cy="156.81" rx="6.64" ry="2.49" transform="translate(-4.11 308.6) rotate(-78.49)"/><ellipse class="cls-6" cx="231.24" cy="118.12" rx="4.03" ry="2.49" transform="translate(69.33 321.13) rotate(-78.49)"/><ellipse class="cls-6" cx="171.48" cy="98.67" rx="4.76" ry="2.49" transform="translate(40.57 247) rotate(-78.49)"/><ellipse class="cls-6" cx="220.49" cy="140.41" rx="4.4" ry="2.49" transform="translate(38.89 328.43) rotate(-78.49)"/><ellipse class="cls-6" cx="173.09" cy="132.57" rx="4" ry="2.49" transform="translate(8.63 275.72) rotate(-78.49)"/><ellipse class="cls-6" cx="210.44" cy="149.6" rx="5.03" ry="2.49" transform="translate(21.85 325.95) rotate(-78.49)"/><ellipse class="cls-6" cx="229.32" cy="147.43" rx="3.8" ry="2.49" transform="translate(39.09 342.71) rotate(-78.49)"/><ellipse class="cls-6" cx="202.3" cy="118.14" rx="4.26" ry="2.49" transform="translate(46.16 292.79) rotate(-78.49)"/><ellipse class="cls-6" cx="178.84" cy="92.63" rx="2.49" ry="4.18" transform="translate(-1.77 181.76) rotate(-53.65)"/><ellipse class="cls-6" cx="160.86" cy="124.19" rx="2.49" ry="4.83" transform="translate(-28.41 50.19) rotate(-16.32)"/><ellipse class="cls-6" cx="185.65" cy="114.01" rx="2.49" ry="5.01" transform="translate(-24.55 56.75) rotate(-16.32)"/><ellipse class="cls-6" cx="176.05" cy="146.31" rx="2.49" ry="4.76" transform="translate(-34.01 55.35) rotate(-16.32)"/><ellipse class="cls-7" cx="176.36" cy="122.57" rx="1.75" ry="4.68" transform="translate(-31.25 177.55) rotate(-49.63)"/><ellipse class="cls-6" cx="164.83" cy="140.77" rx="4" ry="2.49" transform="translate(-6 274.19) rotate(-78.49)"/><ellipse class="cls-6" cx="143.93" cy="137.1" rx="4" ry="2.49" transform="translate(-19.14 250.77) rotate(-78.49)"/><ellipse class="cls-6" cx="159.92" cy="134.48" rx="2.49" ry="4.83" transform="matrix(0.96, -0.28, 0.28, 0.96, -31.34, 50.35)"/><ellipse class="cls-7" cx="164.83" cy="136.53" rx="1.75" ry="4.68" transform="translate(-9.26 12.02) rotate(-4.06)"/><ellipse class="cls-7" cx="185.33" cy="128.19" rx="1.75" ry="4.68" transform="translate(-32.37 186.36) rotate(-49.63)"/><ellipse class="cls-7" cx="220.61" cy="109.41" rx="1.75" ry="3.4" transform="translate(-5.64 206.62) rotate(-49.63)"/><ellipse class="cls-7" cx="226.47" cy="123.29" rx="3.4" ry="1.75" transform="translate(-29.55 154.02) rotate(-35.41)"/><ellipse class="cls-7" cx="203.52" cy="141.68" rx="1.75" ry="3.77" transform="translate(-36.25 204.97) rotate(-49.63)"/><ellipse class="cls-7" cx="182.58" cy="141.23" rx="1.75" ry="4.68" transform="translate(-43.28 188.86) rotate(-49.63)"/><ellipse class="cls-7" cx="208.72" cy="93.11" rx="1.75" ry="4.68" transform="translate(-11.31 31.32) rotate(-8.35)"/><ellipse class="cls-7" cx="233.6" cy="157.82" rx="1.75" ry="4.68" transform="translate(-20.45 35.62) rotate(-8.35)"/><ellipse class="cls-7" cx="241.06" cy="97.63" rx="1.75" ry="4.68" transform="translate(-11.63 36.06) rotate(-8.35)"/><ellipse class="cls-8" cx="152.71" cy="143.67" rx="6.64" ry="2.49" transform="translate(-11.91 273.52) rotate(-81.52)"/><ellipse class="cls-8" cx="154.01" cy="121.51" rx="4.44" ry="2.49" transform="translate(-21.8 208.54) rotate(-64.61)"/><ellipse class="cls-7" cx="159.69" cy="128.01" rx="1.75" ry="4.68" transform="translate(-41.27 166.76) rotate(-49.63)"/><ellipse class="cls-7" cx="148.91" cy="130.51" rx="4.68" ry="1.75" transform="translate(-49.07 133.56) rotate(-42.11)"/><ellipse class="cls-8" cx="137.33" cy="126.95" rx="4.44" ry="2.49" transform="translate(-36.25 196.58) rotate(-64.61)"/><ellipse class="cls-8" cx="192.13" cy="105.14" rx="4.44" ry="2.49" transform="translate(14.76 233.63) rotate(-64.61)"/><ellipse class="cls-8" cx="185.33" cy="98.65" rx="4.44" ry="2.49" transform="translate(16.74 223.78) rotate(-64.61)"/><ellipse class="cls-8" cx="176.39" cy="104.69" rx="2.49" ry="5.18" transform="translate(-18.44 168.83) rotate(-48.91)"/><ellipse class="cls-8" cx="236.81" cy="106.35" rx="2.49" ry="3.35" transform="translate(1.02 214.93) rotate(-48.91)"/><ellipse class="cls-8" cx="223.06" cy="115.56" rx="2.49" ry="5.87" transform="translate(-10.64 207.73) rotate(-48.91)"/><ellipse class="cls-6" cx="212.24" cy="118.23" rx="1.83" ry="3.47" transform="translate(-24.68 172.03) rotate(-41.92)"/><ellipse class="cls-7" cx="212.83" cy="123.35" rx="3.4" ry="1.75" transform="translate(-28.75 169.71) rotate(-40.96)"/><ellipse class="cls-8" cx="217.89" cy="123.03" rx="4.04" ry="2.49" transform="translate(-27.92 169.86) rotate(-40.24)"/><ellipse class="cls-6" cx="237.26" cy="148.86" rx="4.03" ry="2.49" transform="translate(44.03 351.63) rotate(-78.49)"/><ellipse class="cls-7" cx="226.63" cy="140.14" rx="1.75" ry="3.4" transform="translate(-26.94 222.04) rotate(-49.63)"/><ellipse class="cls-7" cx="218.85" cy="154.09" rx="3.4" ry="1.75" transform="translate(-47.43 181.19) rotate(-40.96)"/><ellipse class="cls-8" cx="223.91" cy="153.77" rx="4.04" ry="2.49" transform="translate(-46.35 181.03) rotate(-40.24)"/><ellipse class="cls-8" cx="241.18" cy="122.4" rx="2.49" ry="5.38" transform="translate(-9.59 223.72) rotate(-48.91)"/><ellipse class="cls-8" cx="265.07" cy="130.14" rx="3.92" ry="2.49" transform="translate(59.7 342.32) rotate(-72.08)"/><ellipse class="cls-8" cx="225.65" cy="137.1" rx="2.49" ry="5.03" transform="translate(-37.14 111.47) rotate(-25.71)"/><ellipse class="cls-6" cx="257.69" cy="134.62" rx="4.4" ry="2.49" transform="translate(74.34 360.26) rotate(-78.49)"/><ellipse class="cls-7" cx="263.67" cy="117.51" rx="3.4" ry="1.75" transform="translate(-19.32 174.51) rotate(-35.41)"/><ellipse class="cls-8" cx="262.85" cy="131.32" rx="2.49" ry="5.03" transform="translate(-30.95 127.04) rotate(-25.71)"/><ellipse class="cls-8" cx="237.69" cy="128.73" rx="2.49" ry="5.03" transform="translate(-32.32 115.87) rotate(-25.71)"/><ellipse class="cls-8" cx="165.19" cy="105.01" rx="2.49" ry="6.64" transform="translate(-22.52 160.5) rotate(-48.91)"/><ellipse class="cls-8" cx="211.76" cy="131.16" rx="1.74" ry="4.65" transform="translate(-26.27 204.56) rotate(-48.91)"/><ellipse class="cls-6" cx="180.95" cy="134.7" rx="4.26" ry="2.49" transform="translate(12.84 285.12) rotate(-78.49)"/><ellipse class="cls-7" cx="191.48" cy="139.91" rx="3.4" ry="1.75" transform="translate(-44.83 159.77) rotate(-40.96)"/><ellipse class="cls-8" cx="190.41" cy="147.71" rx="1.74" ry="4.65" transform="translate(-46.06 194.14) rotate(-48.91)"/><ellipse class="cls-8" cx="199.58" cy="154.5" rx="1.74" ry="4.65" transform="translate(-48.04 203.38) rotate(-48.91)"/><ellipse class="cls-8" cx="205.13" cy="100.46" rx="1.74" ry="4.65" transform="translate(-5.41 189.04) rotate(-48.91)"/><ellipse class="cls-8" cx="215.95" cy="101.36" rx="1.74" ry="4.65" transform="matrix(0.66, -0.75, 0.75, 0.66, -2.38, 197.5)"/><ellipse class="cls-8" cx="242.72" cy="105.92" rx="1.74" ry="4.65" transform="translate(3.36 219.24) rotate(-48.91)"/><ellipse class="cls-8" cx="251.84" cy="131.64" rx="4.65" ry="1.74" transform="translate(92.97 367.25) rotate(-83.61)"/><path class="cls-9" d="M172.22,103.45c-2.83,1.24-20.92,9.22-36.28,15.59s-42.43,30.25-15.06,56.53,48.69,4.11,56.94-16.18S191.4,131.56,196,120.15a13.38,13.38,0,0,0-5.14-15.76C185,100.66,179.84,100.11,172.22,103.45Z"/><path class="cls-10" d="M177.82,159.4c8.25-20.3,13.58-27.83,18.13-39.25a13.57,13.57,0,0,0-.79-11.05,12.92,12.92,0,0,1-.68,6.54c-4.55,11.41-9.88,18.95-18.13,39.25s-29.56,42.46-56.94,16.18a40.73,40.73,0,0,1-9.63-13.27c1.3,5.67,4.72,11.66,11.1,17.78C148.26,201.86,169.57,179.7,177.82,159.4Z"/><path class="cls-11" d="M165.17,111.9c-2.2,1-16.25,7.16-28.17,12.11s-32.95,23.49-11.69,43.9,37.81,3.19,44.21-12.56,10.55-21.61,14.08-30.47a10.39,10.39,0,0,0-4-12.24C175.08,109.73,171.09,109.31,165.17,111.9Z"/><circle class="cls-12" cx="141.26" cy="150.69" r="19.94" transform="translate(-57.06 208.38) rotate(-63.07)"/><path class="cls-13" d="M123.49,141.66a19.84,19.84,0,0,0-2.11,10.51,19.94,19.94,0,0,0,35.38-14,19.94,19.94,0,0,0-33.27,3.52Z"/><path class="cls-14" d="M70.72,32.71c-15.82,0-28.65,3.48-28.65,7.78V176.31c0,4.3,12.83,7.78,28.65,7.78s28.65-3.48,28.65-7.78V40.49C99.37,36.19,86.54,32.71,70.72,32.71Z"/><path class="cls-15" d="M70.72,53.69c-14.17,0-25.65,3.12-25.65,7V165.72c0,3.85,11.48,7,25.65,7s25.65-3.12,25.65-7V60.65C96.37,56.81,84.88,53.69,70.72,53.69Z"/><path class="cls-16" d="M22,10.59,45.36.26a3,3,0,0,1,3.55.81L53.4,6.34a3,3,0,0,1,.73,2V162.14H48.2V10.47a3,3,0,0,0-.34-1.39l-.72-1.4a3,3,0,0,0-4-1.38L23.89,15a1.05,1.05,0,0,1-1.41-.56l-1-2.44A1.05,1.05,0,0,1,22,10.59Z"/><ellipse class="cls-17" cx="71.13" cy="61.73" rx="28.65" ry="7.78"/><path class="cls-18" d="M48.2,45V10.47a3,3,0,0,0-.34-1.39l-.72-1.4a3,3,0,0,0-4-1.38L23.89,15a1.05,1.05,0,0,1-1.41-.56l-1-2.44A1.05,1.05,0,0,1,22,10.59L45.36.26a3,3,0,0,1,3.55.81L53.4,6.34a3,3,0,0,1,.73,2V46.87"/><path class="cls-19" d="M69.67,12.18,105.2,55.76A28.12,28.12,0,0,0,69.67,12.18Z"/><path class="cls-20" d="M71.49,14.28l32.09,39.37A25.4,25.4,0,0,0,71.49,14.28Z"/><g class="cls-21"><path class="cls-22" d="M89,34.42l17.12,4.9a3.89,3.89,0,0,0,5-3.71l0-2.69a3.89,3.89,0,0,0-4.94-3.78L89,33.95A.25.25,0,0,0,89,34.42Z"/><path class="cls-22" d="M87.86,35,98.35,49.41a3.89,3.89,0,0,0,6.19.13l1.67-2.11a3.89,3.89,0,0,0-1.57-6l-16.5-6.76A.25.25,0,0,0,87.86,35Z"/><path class="cls-22" d="M87.11,32.87,83.42,15.45a3.89,3.89,0,0,0-5.6-2.65L75.43,14a3.89,3.89,0,0,0-1,6.14L86.7,33.09A.25.25,0,0,0,87.11,32.87Z"/><path class="cls-22" d="M87.94,33,95.61,17a3.89,3.89,0,0,0-2.83-5.51L90.13,11a3.89,3.89,0,0,0-4.55,4.25l1.89,17.73A.25.25,0,0,0,87.94,33Z"/><path class="cls-22" d="M88.52,33.69l16.18-7.44a3.89,3.89,0,0,0,1.35-6l-1.73-2.06a3.89,3.89,0,0,0-6.21.35L88.21,33.33A.25.25,0,0,0,88.52,33.69Z"/></g><path class="cls-23" d="M87,53.56v109.7a2.08,2.08,0,0,0,2.27,2.07h0a2.08,2.08,0,0,0,1.89-2.07V53.56a2.08,2.08,0,0,0-2.45-2h0A2.08,2.08,0,0,0,87,53.56Z"/><path class="cls-24" d="M6.3,142.73c-1.61-.87-2.88,1.71-4.43,3.41S-.7,149.09.58,150.92s.65,5.94,4.22,12.32,29.79,33.51,74,20.71,53.87-37.94,50.82-57.69c-1.06-4.25-3.34-7.65-5.13-11.31a22.8,22.8,0,0,1-2.21-7.5,7.43,7.43,0,0,1,1.3-5,2.73,2.73,0,0,0-1.14-3.86,8.66,8.66,0,0,0-4.44-.44c-6.76.69-10.37,1.42-8.32,7.68s1.35,6.1-.36,9.82S99.51,144,69.36,150.81c-27.81,6.26-33.82-4-53.2-5.58C13.44,144.92,10.69,145.11,6.3,142.73Z"/><path class="cls-25" d="M1.87,146.14C.31,147.85-.7,149.09.58,150.92s.65,5.94,4.22,12.32,29.79,33.51,74,20.71,53.87-37.94,50.82-57.69c-1.06-4.25-3.34-7.65-5.13-11.31a22.8,22.8,0,0,1-2.21-7.5,7.43,7.43,0,0,1,1.3-5,2.73,2.73,0,0,0-1.14-3.86,8.66,8.66,0,0,0-4.44-.44c-6.76.69-2.43,1.22-2.2,7.8.49,14-10.05,48.35-44.37,54.65C28.47,168.46,3.42,144.44,1.87,146.14Z"/><path class="cls-26" d="M.81,149.85c-1.63-.68-.21-2.43,1-3.78s2.24-3.39,3.51-2.7c0,0,.66.33,0,1.31S1.58,150.17.81,149.85Z"/><path class="cls-26" d="M121.29,102.13a1.6,1.6,0,0,0,1.38-1.75,2.24,2.24,0,0,0-1.28-1.74,7.44,7.44,0,0,0-3.81-.38c-4.35.45-7.19.91-7.59,3.38,0,0-.69,1.93,4.84,1.38C116.78,102.83,119.72,102.38,121.29,102.13Z"/></svg>