<svg id="Layer_2" data-name="Layer 2" xmlns="http://www.w3.org/2000/svg" xmlns:xlink="http://www.w3.org/1999/xlink" viewBox="0 0 260 168"><defs><style>.cls-1{fill:#ffba1f;}.cls-2{fill:#4c4c4c;}.cls-3{fill:#dd9912;}.cls-4{fill:#b27202;}.cls-5{clip-path:url(#clip-path);}.cls-6{fill:#ffd522;}.cls-7{clip-path:url(#clip-path-2);}.cls-8{fill:#4c4c4b;}.cls-9{fill:#ffc91d;}.cls-10{fill:#ffb41f;}.cls-11{clip-path:url(#clip-path-3);}.cls-12{fill:#303030;}.cls-13{fill:#b5611c;}.cls-14{fill:#5b460b;}.cls-15{fill:#f9ba20;}.cls-16{clip-path:url(#clip-path-4);}</style><clipPath id="clip-path"><path class="cls-1" d="M81.72,77.76a2.15,2.15,0,0,0-2.14-2H49.13a2.14,2.14,0,0,0-2.13,2l-2,24.36a2.13,2.13,0,0,0,2.13,2.31H81.55a2.14,2.14,0,0,0,2.14-2.31Z"/></clipPath><clipPath id="clip-path-2"><path d="M80.35,79.88a1.68,1.68,0,0,0-1.67-1.53H50a1.66,1.66,0,0,0-1.66,1.53l-1.85,21.68a1.66,1.66,0,0,0,1.66,1.81H80.53a1.67,1.67,0,0,0,1.67-1.81Z"/></clipPath><clipPath id="clip-path-3"><rect class="cls-2" x="41.2" y="120.82" width="46.31" height="5.82" rx="1.94"/></clipPath><clipPath id="clip-path-4"><rect class="cls-1" x="37.67" y="67.59" width="53.37" height="4.37" rx="1.89"/></clipPath></defs><rect class="cls-3" x="39.75" y="71.96" width="49.21" height="45.47"/><rect class="cls-4" x="41.2" y="71.96" width="46.31" height="45.47"/><path class="cls-1" d="M81.72,77.76a2.15,2.15,0,0,0-2.14-2H49.13a2.14,2.14,0,0,0-2.13,2l-2,24.36a2.13,2.13,0,0,0,2.13,2.31H81.55a2.14,2.14,0,0,0,2.14-2.31Z"/><g class="cls-5"><rect class="cls-6" x="44.2" y="75.01" width="42.76" height="1.93"/></g><path d="M80.35,79.88a1.68,1.68,0,0,0-1.67-1.53H50a1.66,1.66,0,0,0-1.66,1.53l-1.85,21.68a1.66,1.66,0,0,0,1.66,1.81H80.53a1.67,1.67,0,0,0,1.67-1.81Z"/><g class="cls-7"><path class="cls-8" d="M54.23,85.05c-.18.29-.34.7-.09.92a.76.76,0,0,0,.51.13,6.66,6.66,0,0,1,1.18.13.52.52,0,0,1,.34.18.5.5,0,0,1-.08.49c-2.08,3.7-4.88,7-6.58,10.88a16,16,0,0,0,1.94.57,1.25,1.25,0,0,0,.69,0,1.23,1.23,0,0,0,.52-.49q3.44-4.68,6.6-9.54c.44-.67.85-1.65.25-2.19-.3-.27-.75-.3-1.06-.56-.66-.56-.22-1.63.25-2.35,1.21-1.84,2.59-3.66,3.65-5.58-1.62-1-3-.19-4,1.16C56.82,80.79,55.54,83,54.23,85.05Z"/><path class="cls-8" d="M69.08,83.93c-.18.29-.35.71-.09.93a.74.74,0,0,0,.51.12,7.62,7.62,0,0,1,1.17.13.51.51,0,0,1,.35.19c.09.15,0,.34-.08.49-2.09,3.69-4.89,7-6.58,10.87a13.07,13.07,0,0,0,1.94.57,1.25,1.25,0,0,0,.69,0,1.26,1.26,0,0,0,.52-.48c2.28-3.12,4.48-6.31,6.6-9.54.44-.68.84-1.66.24-2.19-.29-.27-.75-.31-1.06-.57-.66-.56-.22-1.62.26-2.35,1.21-1.84,2.59-3.65,3.65-5.58-1.63-1-3-.19-4,1.17C71.67,79.67,70.39,81.84,69.08,83.93Z"/></g><path class="cls-9" d="M45.94,92.41H82.77a4.74,4.74,0,0,1,4.74,4.74V121.3a0,0,0,0,1,0,0H41.2a0,0,0,0,1,0,0V97.15A4.74,4.74,0,0,1,45.94,92.41Z"/><rect x="81.26" y="115.38" width="9.83" height="19.1" rx="2.16"/><rect x="37.62" y="115.38" width="9.83" height="19.1" rx="2.16"/><rect class="cls-10" x="36.83" y="103.16" width="25.81" height="19.1" rx="3.5"/><rect class="cls-10" x="66.07" y="103.16" width="25.81" height="19.1" rx="3.5"/><rect class="cls-2" x="41.2" y="120.82" width="46.31" height="5.82" rx="1.94"/><g class="cls-11"><rect class="cls-12" x="35.46" y="118.93" width="56.04" height="4.81"/></g><rect class="cls-9" x="41.19" y="103.16" width="46.31" height="19.1"/><rect class="cls-13" x="39.17" y="115.5" width="50.49" height="6.86" rx="1.94"/><rect class="cls-14" x="44.98" y="95.06" width="38.76" height="18.81" rx="1.98"/><rect class="cls-9" x="49.74" y="94.09" width="1.02" height="20.41"/><rect class="cls-9" x="54.39" y="94.09" width="1.02" height="20.41"/><rect class="cls-9" x="59.05" y="94.09" width="1.02" height="20.41"/><rect class="cls-9" x="63.7" y="94.09" width="1.02" height="20.41"/><rect class="cls-9" x="68.36" y="94.09" width="1.02" height="20.41"/><rect class="cls-9" x="73.01" y="94.09" width="1.02" height="20.41"/><rect class="cls-9" x="77.66" y="94.09" width="1.02" height="20.41"/><rect class="cls-9" x="44.03" y="97.38" width="40.67" height="0.5"/><rect class="cls-9" x="44.03" y="99.96" width="40.67" height="0.5"/><rect class="cls-9" x="44.03" y="102.54" width="40.67" height="0.5"/><rect class="cls-9" x="44.03" y="105.11" width="40.67" height="0.5"/><rect class="cls-9" x="44.03" y="107.69" width="40.67" height="0.5"/><rect class="cls-9" x="44.03" y="110.27" width="40.67" height="0.5"/><rect class="cls-9" x="44.03" y="112.85" width="40.67" height="0.5"/><rect class="cls-15" x="42.64" y="89.51" width="4.23" height="1.36"/><rect class="cls-6" x="35.2" y="87.49" width="8.82" height="4.73" rx="1.85"/><rect class="cls-15" x="81.84" y="89.51" width="4.23" height="1.36" transform="translate(167.91 180.37) rotate(-180)"/><rect class="cls-6" x="84.69" y="87.49" width="8.82" height="4.73" rx="1.85" transform="translate(178.2 179.71) rotate(-180)"/><rect class="cls-1" x="37.67" y="67.59" width="53.37" height="4.37" rx="1.89"/><g class="cls-16"><rect class="cls-6" x="32.93" y="65.44" width="61.87" height="3.58"/></g><polygon class="cls-6" points="39.56 67.59 42.64 63.53 86.17 63.53 89.15 67.59 39.56 67.59"/></svg>