<svg id="Layer_4" data-name="Layer 4" xmlns="http://www.w3.org/2000/svg" xmlns:xlink="http://www.w3.org/1999/xlink" viewBox="0 0 260 168"><defs><style>.cls-1{fill:#ffba1f;}.cls-2{fill:#4c4c4c;}.cls-3{fill:#dd9912;}.cls-4{fill:#b27202;}.cls-5{clip-path:url(#clip-path);}.cls-6{fill:#ffd522;}.cls-7{clip-path:url(#clip-path-2);}.cls-8{fill:#4c4c4b;}.cls-9{fill:#ffc91d;}.cls-10{fill:#ffb41f;}.cls-11{clip-path:url(#clip-path-3);}.cls-12{fill:#303030;}.cls-13{fill:#b5611c;}.cls-14{fill:#5b460b;}.cls-15{fill:#f9ba20;}.cls-16{clip-path:url(#clip-path-4);}</style><clipPath id="clip-path"><path class="cls-1" d="M93,51.55a3.54,3.54,0,0,0-3.53-3.25H39.2a3.53,3.53,0,0,0-3.52,3.25L32.43,91.79A3.53,3.53,0,0,0,36,95.61H92.76a3.54,3.54,0,0,0,3.53-3.82Z"/></clipPath><clipPath id="clip-path-2"><path d="M90.77,55.05A2.76,2.76,0,0,0,88,52.52H40.69a2.76,2.76,0,0,0-2.75,2.53l-3,35.82a2.76,2.76,0,0,0,2.75,3H91.08a2.77,2.77,0,0,0,2.75-3Z"/></clipPath><clipPath id="clip-path-3"><rect class="cls-2" x="26.11" y="122.69" width="76.5" height="9.62" rx="3.2"/></clipPath><clipPath id="clip-path-4"><rect class="cls-1" x="20.28" y="34.75" width="88.16" height="7.23" rx="3.12"/></clipPath></defs><rect class="cls-3" x="23.71" y="41.98" width="81.29" height="75.11"/><rect class="cls-4" x="26.11" y="41.98" width="76.5" height="75.11"/><path class="cls-1" d="M93,51.55a3.54,3.54,0,0,0-3.53-3.25H39.2a3.53,3.53,0,0,0-3.52,3.25L32.43,91.79A3.53,3.53,0,0,0,36,95.61H92.76a3.54,3.54,0,0,0,3.53-3.82Z"/><g class="cls-5"><rect class="cls-6" x="31.07" y="47.01" width="70.64" height="3.19"/></g><path d="M90.77,55.05A2.76,2.76,0,0,0,88,52.52H40.69a2.76,2.76,0,0,0-2.75,2.53l-3,35.82a2.76,2.76,0,0,0,2.75,3H91.08a2.77,2.77,0,0,0,2.75-3Z"/><g class="cls-7"><path class="cls-8" d="M47.63,63.59c-.3.48-.57,1.16-.15,1.53a1.28,1.28,0,0,0,.84.21,10.38,10.38,0,0,1,1.94.21.82.82,0,0,1,.57.3.85.85,0,0,1-.13.82c-3.44,6.1-8.07,11.54-10.87,18a24.36,24.36,0,0,0,3.2.94,1.56,1.56,0,0,0,2-.78Q50.7,77,55.94,69c.72-1.12,1.39-2.73.41-3.62-.5-.45-1.25-.5-1.75-.93-1.1-.93-.37-2.69.42-3.89,2-3,4.28-6,6-9.22-2.69-1.69-5-.31-6.69,1.93C51.91,56.56,49.79,60.13,47.63,63.59Z"/><path class="cls-8" d="M72.15,61.75c-.29.48-.57,1.16-.15,1.53a1.31,1.31,0,0,0,.85.21,10.57,10.57,0,0,1,1.94.21.63.63,0,0,1,.43,1.11c-3.44,6.11-8.06,11.55-10.86,18a23.5,23.5,0,0,0,3.2.94,2.11,2.11,0,0,0,1.14,0,2.13,2.13,0,0,0,.86-.8q5.66-7.74,10.9-15.76c.73-1.12,1.4-2.73.41-3.62-.49-.45-1.24-.5-1.75-.93-1.09-.93-.37-2.69.42-3.89,2-3,4.28-6,6-9.22-2.68-1.69-5-.31-6.68,1.93C76.44,54.72,74.32,58.29,72.15,61.75Z"/></g><path class="cls-9" d="M33.94,75.75H94.77a7.83,7.83,0,0,1,7.83,7.83v39.89a0,0,0,0,1,0,0H26.11a0,0,0,0,1,0,0V83.58A7.83,7.83,0,0,1,33.94,75.75Z"/><rect x="92.27" y="113.7" width="16.25" height="31.54" rx="3.57"/><rect x="20.19" y="113.7" width="16.25" height="31.54" rx="3.57"/><rect class="cls-10" x="18.89" y="93.52" width="42.64" height="31.54" rx="5.79"/><rect class="cls-10" x="67.19" y="93.52" width="42.64" height="31.54" rx="5.79"/><rect class="cls-2" x="26.11" y="122.69" width="76.5" height="9.62" rx="3.2"/><g class="cls-11"><rect class="cls-12" x="16.63" y="119.56" width="92.58" height="7.94"/></g><rect class="cls-9" x="26.08" y="93.52" width="76.5" height="31.54"/><rect class="cls-13" x="22.74" y="113.89" width="83.4" height="11.33" rx="3.21"/><rect class="cls-14" x="32.34" y="80.14" width="64.04" height="31.07" rx="3.27"/><rect class="cls-9" x="40.21" y="78.52" width="1.69" height="33.71"/><rect class="cls-9" x="47.9" y="78.52" width="1.69" height="33.71"/><rect class="cls-9" x="55.58" y="78.52" width="1.69" height="33.71"/><rect class="cls-9" x="63.27" y="78.52" width="1.69" height="33.71"/><rect class="cls-9" x="70.96" y="78.52" width="1.69" height="33.71"/><rect class="cls-9" x="78.65" y="78.52" width="1.69" height="33.71"/><rect class="cls-9" x="86.34" y="78.52" width="1.69" height="33.71"/><rect class="cls-9" x="30.78" y="83.96" width="67.19" height="0.83"/><rect class="cls-9" x="30.78" y="88.22" width="67.19" height="0.83"/><rect class="cls-9" x="30.78" y="92.48" width="67.19" height="0.83"/><rect class="cls-9" x="30.78" y="96.74" width="67.19" height="0.83"/><rect class="cls-9" x="30.78" y="101" width="67.19" height="0.83"/><rect class="cls-9" x="30.78" y="105.26" width="67.19" height="0.83"/><rect class="cls-9" x="30.78" y="109.52" width="67.19" height="0.83"/><rect class="cls-15" x="28.49" y="70.96" width="6.99" height="2.24"/><rect class="cls-6" x="16.2" y="67.62" width="14.57" height="7.81" rx="3.06"/><rect class="cls-15" x="93.24" y="70.96" width="6.99" height="2.24" transform="translate(193.46 144.15) rotate(-180)"/><rect class="cls-6" x="97.95" y="67.62" width="14.57" height="7.81" rx="3.06" transform="translate(210.47 143.06) rotate(-180)"/><rect class="cls-1" x="20.28" y="34.75" width="88.16" height="7.23" rx="3.12"/><g class="cls-16"><rect class="cls-6" x="12.44" y="31.21" width="102.21" height="5.91"/></g><polygon class="cls-6" points="23.4 34.75 28.48 28.05 100.4 28.05 105.32 34.75 23.4 34.75"/></svg>