<svg id="Layer_1" data-name="Layer 1" xmlns="http://www.w3.org/2000/svg" xmlns:xlink="http://www.w3.org/1999/xlink" viewBox="0 0 260 168"><defs><style>.cls-1{fill:none;}.cls-2{fill:#2b1bc1;}.cls-3{clip-path:url(#clip-path);}.cls-4{fill:#5b2e0c;}.cls-5{fill:#273cff;}.cls-6{clip-path:url(#clip-path-2);}.cls-7{fill:#d3b38c;}.cls-8{fill:#c19b72;}</style><clipPath id="clip-path"><rect class="cls-1" width="102.14" height="168"/></clipPath><clipPath id="clip-path-2"><ellipse class="cls-2" cx="-43.36" cy="119.01" rx="107.45" ry="24.06"/></clipPath></defs><g class="cls-3"><ellipse class="cls-4" cx="-43.36" cy="137.7" rx="114.22" ry="25.58"/><path class="cls-5" d="M31.57,118.66c-19.36-4.22-45.79-6.82-74.93-6.82s-55.58,2.6-74.93,6.82h-32.53v17.57h0C-150,149.36-102.22,160-43.36,160s106.65-10.6,107.43-23.73h0V118.66Z"/><ellipse class="cls-2" cx="-43.36" cy="119.01" rx="107.45" ry="24.06"/><g class="cls-6"><ellipse class="cls-7" cx="-43.6" cy="127.88" rx="107.69" ry="25.34"/><path class="cls-7" d="M39,108.5a42.49,42.49,0,0,0-7.91-3.63,43.19,43.19,0,0,0-10.64-1.39L10.85,103c-9.09-.42-18.46-.79-27,2.39a1.77,1.77,0,0,0-.94.6c-.6.88.55,1.9,1.52,2.34,14.43,6.46,31,6.6,45.68,12.44,5.17,2,15.91,7.82,20,1.12C54.38,114.8,43.68,111,39,108.5Z"/><path class="cls-8" d="M47.38,128c-6.66,2.83-14.08,3.13-21.31,3.39,3.41-3.36,9-2.82,13.3-5a1.38,1.38,0,0,1-1.28-1.59c-.06.29,5.86-1.37,6.5-1.89,1.59-1.29,2.27-4.46,4.82-4C55.54,120.08,50.19,126.85,47.38,128Z"/></g></g></svg>