<svg id="Layer_1" data-name="Layer 1" xmlns="http://www.w3.org/2000/svg" xmlns:xlink="http://www.w3.org/1999/xlink" viewBox="0 0 260 168"><defs><style>.cls-1{fill:none;}.cls-2{fill:#2b1bc1;}.cls-3{clip-path:url(#clip-path);}.cls-4{fill:#5e870f;}.cls-5{fill:#77b219;}.cls-6{fill:#774013;}.cls-7{fill:#96cc2f;}.cls-8{fill:#5b2e0c;}.cls-9{fill:#273cff;}.cls-10{clip-path:url(#clip-path-2);}.cls-11{fill:#d3b38c;}.cls-12{fill:#c19b72;}</style><clipPath id="clip-path"><rect class="cls-1" width="260" height="168"/></clipPath><clipPath id="clip-path-2"><ellipse class="cls-2" cx="128.43" cy="134.37" rx="205.93" ry="46.11"/></clipPath></defs><g class="cls-3"><path class="cls-4" d="M296.43,115.37s22.83,6.09,14.84-8.37-16.22-1-16.22-1,8.06-9.07.62-15.28S281,89,283.43,99.78c0,0-6-17.78-16.89-6.26-6.14,6.5,7.24,11.12,7.24,11.12s-15.36-5.89-16.09,6.64,27.49,4.12,27.49,4.12Z"/><path class="cls-5" d="M-119.15,110s21.87-3,42.63-.29c0,0,32.61-3.67,38.78,1.47,0,0,129,4.11,23.56,9.25S-72,130.29-72,130.29s14,3,4.49,6.34c0,0,6.73,7-19.07,6.65,0,0-1.68,7.55-32.53,7.25Z"/><path class="cls-5" d="M379.13,110s-21.88-3-42.63-.29c0,0-32.62-3.67-38.79,1.47,0,0-129,4.11-23.55,9.25S332,130.29,332,130.29s-14,3-4.49,6.34c0,0-6.73,7,19.07,6.65,0,0,1.69,7.55,32.54,7.25Z"/><rect class="cls-5" x="-119.15" y="111.84" width="498.28" height="45.07"/><path class="cls-6" d="M360.19,126.94c-5.22-2.54-14.93-4.26-26.07-4.26a93.55,93.55,0,0,0-15.47,1.22c-5.53-1.8-13.66-3-22.74-3-12.37,0-23,2.12-27.64,5.14-2.38-.17-4.86-.27-7.43-.27a94.8,94.8,0,0,0-14.9,1.12H-20.67a94.61,94.61,0,0,0-14.9-1.12,94.57,94.57,0,0,0-14.89,1.12h-.46c-5.07-2.69-15.08-4.53-26.61-4.53s-21.54,1.84-26.61,4.53h-15V228.27H379.13V126.94Z"/><ellipse class="cls-7" cx="258.96" cy="114.96" rx="24.45" ry="1.49"/><ellipse class="cls-8" cx="128.43" cy="170.2" rx="218.9" ry="49.01"/><path class="cls-9" d="M272,133.7c-37.09-8.08-87.74-13.06-143.6-13.06s-106.51,5-143.6,13.06H-77.5v33.68h0c1.51,25.17,93.11,45.48,205.9,45.48s204.39-20.31,205.9-45.48h0V133.7Z"/><ellipse class="cls-2" cx="128.43" cy="134.37" rx="205.93" ry="46.11"/><g class="cls-10"><ellipse class="cls-11" cx="127.97" cy="151.39" rx="206.39" ry="48.57"/><path class="cls-11" d="M1.53,106.05c7.46-2.51,13.86-8.31,21.71-8.94,7.19-.58,14.36,3.35,21.44,1.91,2.7-.55,5.22-1.87,8-2.23,3.76-.49,7.49.85,11.26,1.15,7.4.58,15-2.85,22.1-.57s12.37,9.82,19.65,8.94c-8.11,9.24-21.32,12.14-33.61,12.33s-24.68-1.75-36.84.09c-9.31,1.41-18.17,5-27.45,6.64-9.72,1.7-19.68,1.32-29.37,3.36-5.53,1.16-15.52,6.3-15.46-2.86C-37,108.47-9,109.59,1.53,106.05Z"/><path class="cls-11" d="M286.35,114.24c-4.89-2.66-9.83-5.34-15.15-7-6.58-2-13.54-2.34-20.41-2.66l-18.47-.85c-17.41-.8-35.38-1.52-51.71,4.58a3.47,3.47,0,0,0-1.79,1.15c-1.15,1.69,1,3.65,2.91,4.49,27.66,12.38,59.39,12.64,87.55,23.84,9.9,3.93,30.49,15,38.23,2.16C315.75,126.32,295.24,119.07,286.35,114.24Z"/></g><ellipse class="cls-12" cx="129.51" cy="150.47" rx="27.62" ry="3.7"/><ellipse class="cls-12" cx="128.28" cy="135.4" rx="30.65" ry="7.65"/><ellipse class="cls-12" cx="75.56" cy="148.87" rx="42.8" ry="5.3"/><ellipse class="cls-12" cx="173.62" cy="147.17" rx="25.4" ry="3.6"/></g></svg>