<svg xmlns="http://www.w3.org/2000/svg" viewBox="0 0 183.16 252.12">
  <defs>
    <style>
      .cls-1 {
        fill: #c17148;
      }

      .cls-2 {
        fill: #e59573;
      }
    </style>
  </defs>
  <title>p09</title>
  <g id="character">
    <g>
      <polygon class="cls-1" points="166.51 151.08 118.77 137.2 7.37 149.39 12.78 156.5 119.11 143.97 162.78 156.84 166.51 151.08"/>
      <polygon class="cls-1" points="14.88 113.8 45.32 110.47 26.77 13.94 14.88 113.8"/>
      <polygon class="cls-1" points="107.74 203.99 115.64 205.07 142.94 4.67 134.68 3.95 107.74 203.99"/>
      <polygon class="cls-2" points="23.34 1.08 149.4 0 183.16 227.34 176.34 228.06 158.02 110.97 49.2 122.11 68.96 250.68 59.98 252.12 23.34 1.08"/>
      <polygon class="cls-2" points="23.34 1.08 0 221.95 3.23 223.39 6.82 222.31 29.81 1.8 23.34 1.08"/>
      <polygon class="cls-2" points="11.13 147.61 62.13 165.92 170.59 149.04 171.67 157.66 54.23 173.47 9.7 155.87 11.13 147.61"/>
    </g>
  </g>
</svg>
