<svg id="Layer_1" data-name="Layer 1" xmlns="http://www.w3.org/2000/svg" xmlns:xlink="http://www.w3.org/1999/xlink" viewBox="0 0 260 168"><defs><style>.cls-1{fill:none;}.cls-2{fill:#f27341;}.cls-3{fill:#fbe831;}.cls-4{fill:#f27342;}.cls-5{fill:#fff;}.cls-6{clip-path:url(#clip-path);}.cls-7{fill:#ec764b;}.cls-8{fill:#ed2d24;}.cls-9{clip-path:url(#clip-path-2);}</style><clipPath id="clip-path"><ellipse id="SVGID" class="cls-1" cx="130.58" cy="36.75" rx="2.01" ry="2.01" transform="translate(82.65 163.65) rotate(-85.03)"/></clipPath><clipPath id="clip-path-2"><ellipse id="SVGID-2" data-name="SVGID" class="cls-1" cx="136.65" cy="37.19" rx="2.01" ry="2.01" transform="translate(87.75 170.1) rotate(-85.03)"/></clipPath></defs><polygon class="cls-2" points="137.21 49.53 138.19 44.85 133.64 46.34 137.21 49.53"/><polygon class="cls-2" points="129.87 27.21 133.44 30.4 128.89 31.9 129.87 27.21"/><polygon class="cls-2" points="128.02 48.74 127.86 43.96 132.08 46.21 128.02 48.74"/><polygon class="cls-2" points="139.06 28 135 30.54 139.23 32.79 139.06 28"/><polygon class="cls-2" points="143.97 43.77 141.39 39.74 139.19 43.99 143.97 43.77"/><polygon class="cls-2" points="123.11 32.97 127.89 32.75 125.69 37 123.11 32.97"/><polygon class="cls-2" points="122.34 41.91 125.57 38.38 127.01 42.94 122.34 41.91"/><polygon class="cls-2" points="144.74 34.84 140.07 33.8 141.51 38.37 144.74 34.84"/><polygon class="cls-2" points="124.55 45.94 126.18 41.44 129.26 45.1 124.55 45.94"/><polygon class="cls-2" points="142.53 30.81 137.82 31.65 140.9 35.31 142.53 30.81"/><polygon class="cls-2" points="141.1 47.36 140.27 42.65 136.6 45.73 141.1 47.36"/><polygon class="cls-2" points="125.98 29.38 130.48 31.01 126.81 34.1 125.98 29.38"/><polygon class="cls-2" points="134.55 26.67 131.81 30.59 136.58 31 134.55 26.67"/><polygon class="cls-2" points="132.53 50.08 130.5 45.74 135.27 46.15 132.53 50.08"/><polygon class="cls-2" points="145.25 39.38 141.32 36.64 140.91 41.41 145.25 39.38"/><polygon class="cls-2" points="121.84 37.36 126.17 35.34 125.76 40.1 121.84 37.36"/><ellipse class="cls-3" cx="133.61" cy="38.26" rx="8.7" ry="8.72" transform="translate(83.91 168.06) rotate(-85.03)"/><path class="cls-2" d="M128.59,34.64s2.48-1.91,3.64,0c0,0,.17-1.66-1.14-1.65S128.59,34.64,128.59,34.64Z"/><path class="cls-2" d="M138.63,35.39s-2.13-2.31-3.6-.6c0,0,.12-1.66,1.41-1.43S138.63,35.39,138.63,35.39Z"/><path class="cls-4" d="M129.76,40.18s1.66,2.91,4.6,2.47a4.53,4.53,0,0,0,2.77-2.42S134.65,42.84,129.76,40.18Z"/><ellipse class="cls-5" cx="130.57" cy="36.75" rx="2.01" ry="2.01" transform="matrix(0.09, -1, 1, 0.09, 82.64, 163.64)"/><g class="cls-6"><circle class="cls-7" cx="130.54" cy="36.86" r="1.27" transform="translate(82.88 163.86) rotate(-85.2)"/><circle class="cls-8" cx="130.57" cy="36.87" r="0.86" transform="translate(82.89 163.89) rotate(-85.2)"/><circle class="cls-5" cx="130.17" cy="36.22" r="0.4" transform="translate(83.17 162.9) rotate(-85.2)"/></g><ellipse class="cls-5" cx="136.65" cy="37.19" rx="2.01" ry="2.01" transform="translate(87.75 170.1) rotate(-85.03)"/><g class="cls-9"><circle class="cls-7" cx="136.72" cy="37.32" r="1.27" transform="translate(87.68 170.29) rotate(-85.03)"/><circle class="cls-8" cx="136.74" cy="37.33" r="0.86" transform="translate(87.7 170.32) rotate(-85.03)"/><circle class="cls-5" cx="136.19" cy="36.8" r="0.4" transform="translate(87.72 169.29) rotate(-85.03)"/></g><circle class="cls-4" cx="133.8" cy="39.1" r="1.03" transform="matrix(0.09, -1, 1, 0.09, 83.25, 169.01)"/></svg>