<svg xmlns="http://www.w3.org/2000/svg" viewBox="0 0 233.82 243.92">
  <defs>
    <style>
      .cls-1 {
        fill: #bea05c;
      }

      .cls-2 {
        fill: #dfbc6d;
      }

      .cls-3 {
        fill: #987647;
      }

      .cls-4 {
        fill: #dfbc6c;
      }

      .cls-5 {
        fill: #2c2c79;
      }

      .cls-6 {
        fill: #fff;
      }

      .cls-7 {
        fill: #2db24c;
      }

      .cls-8 {
        fill: #f16838;
      }

      .cls-9 {
        fill: #4b8fcc;
      }

      .cls-10 {
        fill: #b6b081;
      }

      .cls-11 {
        fill: #d5b367;
      }

      .cls-12 {
        fill: #a56737;
      }

      .cls-13 {
        fill: #4c3421;
      }

      .cls-14 {
        fill: #030202;
      }

      .cls-15 {
        fill: #ffe5bb;
      }

      .cls-16 {
        fill: #4e2a21;
      }

      .cls-17 {
        fill: #600b0c;
      }

      .cls-18 {
        fill: #d42027;
      }
    </style>
  </defs>
  <title>p05</title>
  <g id="character">
    <g>
      <path class="cls-1" d="M66,98.84c-.48-.08-1.26.83-1.69,1.06-4.15,2.3-7.37,5.49-7.81,10.21-.42,4.39,1.81,8.1,3.4,12.21,1.39,3.6,2.49,7,2,10.85-.3,2.16-1.48,4.69-1.87,6.84A118.15,118.15,0,0,0,58,153.29c-.54,8.32-1.12,15.31,2.41,24.73,4,10.66,7.86,15.36,15.65,18.34,7.57,2.89,16.25,2.84,25.71.48a4.44,4.44,0,0,0,3.42-4.4c0-1.53-1.58-2.67-3.11-2.81s-2.59.48-4,1c-4.75,1.59-10.54,2.51-15.48,1.69a20,20,0,0,1-12.49-7.51c-2.2-2.87-4.92-6-6.11-9.39-1.57-4.48-2-9.66-2.09-14.4a43.51,43.51,0,0,1,1.23-10.84c1.21-5.3,2.45-9.5,6.65-14.88,1.14-1.45,2.07-4.25,3-6.43,1.27-2.84,1.81-8.54,1.67-11.65-.32-7.2-3-11.79-7.24-17.64A1.79,1.79,0,0,0,66,98.84Z"/>
      <path class="cls-2" d="M107.08,198.34S76.88,194,77.36,164.53c-.18-16.48,9-37.3,9.93-39.72s4.93-13.64,5.46-15.52,4.39-12.89,8-16.34,12.85-15.68,31.3-11.08,23.81,21.32,24.92,25.42c4.35,8.17-.05,34.38-1.63,42.27s-.58,49.58-30.85,49.54C115.12,201,112,199.28,107.08,198.34Z"/>
      <path class="cls-2" d="M103,98.78s-5.82-9-8.31-11.78S75.9,65.76,71.45,62.56C61.78,52.34,53.83,51.94,51.07,51.72c0,0-9.51-.93-5.77-9.65,1.18-1.68,2.26-1.51,1-4s.39-5.28,1.88-6.14,2.66-1.05,3.15-2.75a5.91,5.91,0,0,1,5.83-3.66c2.88.24,3.08,1,3.3,1.21s.6,1.25,2.85-.26c3.34-1.34,5.94,1.34,6.56,3.09s2.22,8,2.7,9.49,1.26,4.82,3.42,7,20,25.81,23.44,28.53S111.38,86.7,115.62,89,119.26,111.45,103,98.78Z"/>
      <path class="cls-3" d="M61.78,50.2a3.1,3.1,0,0,1-1.86.25A2.62,2.62,0,0,1,58.54,50a2.36,2.36,0,0,1-.77-1.37A13.51,13.51,0,0,1,57.51,47l-.39-3.49a5.18,5.18,0,0,1,.47-3.57,3.8,3.8,0,0,1,3.32-1.34,14,14,0,0,1,4.59,1.22c.71.28,1.41.55,2.09.88a3,3,0,0,1,1.33,1,2.54,2.54,0,0,1-.81,3.12,26.15,26.15,0,0,1-3,1.8,6.71,6.71,0,0,0-2,2A4.66,4.66,0,0,1,61.78,50.2Z"/>
      <path class="cls-3" d="M63.57,30.65a2.51,2.51,0,0,1,2.36-1.51,2.12,2.12,0,0,1,1.54,1.19,4.21,4.21,0,0,1,.39,2,4.35,4.35,0,0,1-.55,2.32,2.22,2.22,0,0,1-2,1.09,3.24,3.24,0,0,1-1.12-.42,1.48,1.48,0,0,1-.4-.27,1.6,1.6,0,0,1-.28-.43A4.53,4.53,0,0,1,63.57,30.65Z"/>
      <path class="cls-3" d="M55.09,30.44a1.66,1.66,0,0,1,.63-.48,3,3,0,0,1,3.12.49,4.15,4.15,0,0,1,1.37,2.94,2.08,2.08,0,0,1-.58,1.76,1.55,1.55,0,0,1-.64.32,3,3,0,0,1-2.66-.73,5,5,0,0,1-1.4-2.47A2.12,2.12,0,0,1,55.09,30.44Z"/>
      <path class="cls-3" d="M53.2,40.31a3.79,3.79,0,0,1-2.69-.73,4.1,4.1,0,0,1-1.66-2.34,2,2,0,0,1,0-1A1.78,1.78,0,0,1,50,35.08,3.61,3.61,0,0,1,51.72,35a5,5,0,0,1,2.52,1.12,3.06,3.06,0,0,1,1.07,2.48,1.61,1.61,0,0,1-.23.72,1.82,1.82,0,0,1-.55.48A3.48,3.48,0,0,1,53.2,40.31Z"/>
      <path class="cls-3" d="M50.15,48.51a3.25,3.25,0,0,1-1.7-.83,2,2,0,0,1-.58-1.75,2.79,2.79,0,0,1,.88-1.35,2,2,0,0,1,.48-.38,1.89,1.89,0,0,1,.63-.16A4.56,4.56,0,0,1,54,45.28a1.77,1.77,0,0,1,.46,1.28A2,2,0,0,1,53.42,48,4.77,4.77,0,0,1,50.15,48.51Z"/>
      <path class="cls-2" d="M155.64,110.12s9-5.81,12.42-7.32,25.86-11.62,31.24-12.71c13-5.33,20.42-2.42,23-1.49,0,0,9.06,3.07,9.24-6.42-.38-2-1.44-2.3.68-4s1.81-5,.81-6.36-2-2.05-1.74-3.8a5.93,5.93,0,0,0-3.81-5.75c-2.72-1-3.23-.32-3.5-.25s-1.06.89-2.49-1.41c-2.5-2.59-6-1.22-7.26.12S209,67,207.89,68.24s-3.13,3.87-6,4.94S173,88.45,168.8,89.53,153,95.65,148.16,96,135.6,115,155.64,110.12Z"/>
      <path class="cls-3" d="M213.19,82.81a3,3,0,0,0,1.6,1,2.62,2.62,0,0,0,1.43.18,2.37,2.37,0,0,0,1.26-.93,13.55,13.55,0,0,0,.94-1.43l1.78-3a5.16,5.16,0,0,0,1.05-3.45,3.81,3.81,0,0,0-2.47-2.59,14,14,0,0,0-4.69-.78c-.76,0-1.51-.07-2.27-.06a3.06,3.06,0,0,0-1.63.37,2.56,2.56,0,0,0-.54,3.18,28.16,28.16,0,0,0,2,2.88,6.79,6.79,0,0,1,1,2.58A4.7,4.7,0,0,0,213.19,82.81Z"/>
      <path class="cls-3" d="M219.61,64.26a2.5,2.5,0,0,0-1.53-2.35,2.13,2.13,0,0,0-1.9.45,5.16,5.16,0,0,0-1.62,4A2.23,2.23,0,0,0,216,68.17a3.45,3.45,0,0,0,1.2.08,1.85,1.85,0,0,0,.47-.08,1.52,1.52,0,0,0,.43-.28A4.53,4.53,0,0,0,219.61,64.26Z"/>
      <path class="cls-3" d="M227.42,67.56a1.58,1.58,0,0,0-.37-.7A3,3,0,0,0,224,66a4.12,4.12,0,0,0-2.46,2.12,2.09,2.09,0,0,0-.2,1.84,1.63,1.63,0,0,0,.46.55,2.93,2.93,0,0,0,2.72.43,5.06,5.06,0,0,0,2.29-1.67A2.13,2.13,0,0,0,227.42,67.56Z"/>
      <path class="cls-3" d="M225.08,77.32a3.77,3.77,0,0,0,2.75.45,4.16,4.16,0,0,0,2.49-1.45,2,2,0,0,0,.42-.87,1.78,1.78,0,0,0-.58-1.57,3.58,3.58,0,0,0-1.54-.78,5,5,0,0,0-2.76,0,3.08,3.08,0,0,0-2,1.82,1.48,1.48,0,0,0-.08.75,1.75,1.75,0,0,0,.3.67A3.53,3.53,0,0,0,225.08,77.32Z"/>
      <path class="cls-3" d="M224.49,86.05a3.29,3.29,0,0,0,1.89,0,2,2,0,0,0,1.25-1.36,2.85,2.85,0,0,0-.25-1.59,1.85,1.85,0,0,0-.28-.54,2,2,0,0,0-.51-.41,4.57,4.57,0,0,0-4.32-.59,1.82,1.82,0,0,0-1,1,2,2,0,0,0,.41,1.71A4.71,4.71,0,0,0,224.49,86.05Z"/>
      <g>
        <path class="cls-4" d="M179.62,226.5c-7.71,4-11.85,2.72-15-3.27S154.83,205.13,139,197c-5.28-2.6-13.43-10.18-7.5-21.28s13.16-8.59,15.22-7.81a23,23,0,0,1,7.33,4.76c1.81,1.73,11.51,10.19,12.44,11,2.77,2.34,9.2,11.63,10.33,13.47C177.59,198.36,190,221.12,179.62,226.5Z"/>
        <path class="cls-5" d="M170.54,240.73a66.08,66.08,0,0,0,24.37-5.27,40.94,40.94,0,0,0,11.66-7.23c2.9-2.6,4.87-5.7,4.58-9.9a8.4,8.4,0,0,1,1.6,8.92c-1.29,3.15-3.77,5.23-6.54,7A62.2,62.2,0,0,1,192,240.49a85.81,85.81,0,0,1-18.54,3.41,1.16,1.16,0,0,1-1.29-.55A17.94,17.94,0,0,1,170.54,240.73Z"/>
        <path id="Foot_L" data-name="Foot L" class="cls-6" d="M170.54,240.73s-6.26-8.57-5-16c0,0,2.27,2.62,6.18.85s4.29-4,4.29-4,.52-1-.64-3.45.38-5,.38-5,3.38-3.81,5.2-4.58l.66-1.06s6,.81,9.27,3.4c0,0,10.23,1,13.28,2.28s4.84.94,7,5.18c0,0,1.37,7.41-9.15,13.56S180.72,241.15,170.54,240.73Z"/>
        <path class="cls-7" d="M186.89,222.77a9.72,9.72,0,0,1-2.85,1c-.75.09-1.56.09-1.82-.83a1.6,1.6,0,0,1,.84-2,23.74,23.74,0,0,0,4.83-3.7c1.63-1.67,3-3.48,3.13-5.93,0-.52.23-.65.72-.6,1.12.1,2.25.19,3.37.22.77,0,1,.36.9,1.05a5.42,5.42,0,0,1-.8,2.18C193.05,217.77,189.86,220.29,186.89,222.77Z"/>
        <path class="cls-8" d="M194.91,223a6.86,6.86,0,0,1-4.09,1c-.42-.05-.88-.12-1.08-.59s.27-.77.57-1a35.29,35.29,0,0,0,4.93-4.77,12.76,12.76,0,0,0,2.7-5.4c.14-.69.43-.83,1-.68.29.07.6.06.9.12,3,.51,3.27.44,1.94,3.6C200.4,218.66,197.57,220.89,194.91,223Z"/>
        <path class="cls-9" d="M202.26,224a3.76,3.76,0,0,1-3.35.56c-1.1-.38-1.25-1.24-.41-2s1.73-1.57,2.54-2.41a10.85,10.85,0,0,0,3.16-6.39c.09-.75.38-.83,1-.64,2.51.71,3.26,2.07,2.24,4.43A15.43,15.43,0,0,1,202.26,224Z"/>
      </g>
      <g>
        <path class="cls-4" d="M23.92,167.1c2.2,8.39,5.84,10.6,12.41,8.94s20.06-4.81,36.75,1.49c5.46,2.19,16.55,3.17,20.83-8.66s-2.42-15.53-4.38-16.54a22,22,0,0,0-8.35-2.56c-2.42-.18-14.05-1.4-16.28-1.7-4-.53-12.42.45-15.34.6C48.05,148.75,21,155.77,23.92,167.1Z"/>
        <path class="cls-5" d="M19.42,183.38A66.27,66.27,0,0,1,7,161.73,40.77,40.77,0,0,1,4.6,148.24c0-3.9,1-7.44,4.29-10A8.4,8.4,0,0,0,1.19,143c-1.48,3.07-1.36,6.31-.81,9.53a62.33,62.33,0,0,0,4.86,14.76,85.47,85.47,0,0,0,9.88,16.06,1.15,1.15,0,0,0,1.27.59A18.45,18.45,0,0,0,19.42,183.38Z"/>
        <path id="Foot_L-2" data-name="Foot L" class="cls-6" d="M19.42,183.38s10.56-1.09,15.24-7c0,0-3.46.06-4.77-4s.09-5.85.09-5.85.41-1.08,3-1.83S36.47,161,36.47,161s.58-5.06-.08-6.93c0,0,.2-.67.35-1.19,0,0-4.62-3.94-8.73-4.62,0,0-7.57-6.95-10.58-8.34s-3.94-3-8.54-1.75c0,0-6.42,4-3.95,15.87S12.3,176.09,19.42,183.38Z"/>
        <path class="cls-7" d="M21.82,159.21A10,10,0,0,0,23,162c.43.62,1,1.22,1.82.79a1.6,1.6,0,0,0,.9-1.93,23.72,23.72,0,0,1-.48-6.06c.15-2.33.58-4.56,2.32-6.3.36-.37.32-.61,0-.94-.83-.76-1.65-1.54-2.42-2.36-.53-.55-.93-.49-1.39,0a5.64,5.64,0,0,0-1.09,2.05C21.42,151.28,21.68,155.34,21.82,159.21Z"/>
        <path class="cls-8" d="M16.26,153.43a7,7,0,0,0,2,3.7,1.14,1.14,0,0,0,1.16.4c.59-.2.39-.72.38-1.11a34.88,34.88,0,0,1,.25-6.85,12.67,12.67,0,0,1,2.2-5.61c.42-.57.33-.88-.19-1.23-.25-.17-.45-.41-.69-.6-2.4-1.9-2.51-2.13-4,1C15.85,146.42,16.08,150,16.26,153.43Z"/>
        <path class="cls-9" d="M10.65,148.58a3.81,3.81,0,0,0,1.83,2.86c1,.57,1.77.1,1.79-1.06s0-2.33.1-3.49A10.84,10.84,0,0,1,17,140.26c.49-.57.36-.84-.2-1.19-2.22-1.39-3.73-1-4.8,1.31A15.49,15.49,0,0,0,10.65,148.58Z"/>
      </g>
      <path class="cls-10" d="M92.56,146.62s-1.41-23,7.27-33.19S117.51,99,129.1,101.92s21.16,8.17,22.73,18.84c3,15.36-9.43,39.71-15,47.73s-12,17.36-25.49,14.82S90.08,170.26,92.56,146.62Z"/>
      <path class="cls-11" d="M111.57,96.24A145,145,0,0,1,99.76,82.92a60.72,60.72,0,0,0-7-7.23c-5.3-4.62-7.35-10.53-7.16-17.39a1.46,1.46,0,0,0-.18-.46c.18-1.54.31-3.08.55-4.6a41.24,41.24,0,0,1,2.56-8.5c.17,0,.39,0,.49-.12a49.45,49.45,0,0,1,7.08-5.38,6.64,6.64,0,0,0,2.91-5,28.74,28.74,0,0,0-.07-3.34c0-.14.08-.29-.16-.3v0c.26-.54,0-1-.22-1.49A10.64,10.64,0,0,0,88.71,22c-1.88-.09-1.88-.09-2.55.22,2.63.65,5.39,1.12,8,3-3,.18-5.24,1.13-6.89,3.29h0c-.27,0-.3.26-.34.47-2.89,3.65-4.08,7.59-2,12.07a.56.56,0,0,1,0,.61,16.78,16.78,0,0,1-6.42-10.36C77.18,24.09,79.6,18,84.55,13c2.8-2.85,6.94-3.06,11.14-1a13.45,13.45,0,0,1,4.13,3.08,14.26,14.26,0,0,0,8,4.29,2.66,2.66,0,0,0,1.73-.41c8.06-3.68,16.43-6.28,25.35-6.69a3.22,3.22,0,0,0,3.18-1.89,16.31,16.31,0,0,1,6.69-6.73c.38-.2.83-.53,1.21-.3s0,.77,0,1.16a14.22,14.22,0,0,0,1.31,8c.16.34.33.72.78.81a.36.36,0,0,0,0,.11h.08l-.12-.11a21.83,21.83,0,0,1,2.6-7A34.69,34.69,0,0,0,153.45,0a12.55,12.55,0,0,1,1.83,5.45c.34,2.55.49,5.12.74,7.67a8.85,8.85,0,0,0,.46,2.1c.12.37.23.84.64.91s.76-.35,1-.69A8.89,8.89,0,0,0,159.28,13a12.72,12.72,0,0,1,2.28-4.47,3.89,3.89,0,0,1,1.92-1.45V7c-.22,1-.46,2-.64,3.05a5,5,0,0,0,.64,3.63,7,7,0,0,1,1,4.72,1.58,1.58,0,0,0,.88,1.79A125.16,125.16,0,0,1,190.33,38.8a8.49,8.49,0,0,0,7.93,2.11A38.28,38.28,0,0,0,203.64,39c5.34-1.91,13,.91,13.63,8.86.74,9-3.58,15.73-12.69,19.4a23.47,23.47,0,0,1-6.73,1.86,11.78,11.78,0,0,0,4.23-7.47c.22-1.45-.13-2.85,0-4.27l-.13-.25,0,0c-.26-2.89-1.9-4.88-4.49-6.58,3.14-.3,5.8.5,8.47,1.23a10.8,10.8,0,0,0-3.49-1.9c-4.37-1.63-9.61-.11-11.93,3.45-2.62,3.07-3.16,6.33-1,9.9.64,1.07,1.1,2.25,1.67,3.37s.81,2.64,1.56,3.82A26.09,26.09,0,0,1,190.6,80a27.11,27.11,0,0,1-6.82,8.34c-3.86,3-8,5.54-12.92,6.48s-9.23,3.07-13.59,5.27c-3.07,1.55-5.79,3.38-9.14,4.29-1.91,7.41-8.9,11.79-20.63,9C113.51,110.1,111,104.08,111.57,96.24ZM168.8,53.12a20.42,20.42,0,0,0-2.19-.26,11.71,11.71,0,0,0-11.18,9,12.48,12.48,0,0,0,12.63,15.77c4.32-.15,8-1.77,9.86-5.83C181.26,64.59,178.09,55.32,168.8,53.12ZM110.38,63c5.63,1.47,13.58-1.32,14.09-9.62a13.35,13.35,0,0,0-3.94-10.87c-3.73-3.65-9.32-3.89-14.37-.7-3,1.87-5.25,4.35-5.59,8A12.09,12.09,0,0,0,110.38,63Zm68.76-6.55a15.44,15.44,0,0,0-3.94-10.13c-2-2.23-4.52-2.69-7.47-1.48a16.6,16.6,0,0,0-7.28,6.06c-.13.2-.39.41-.27.76C167.52,46.81,174.38,47.35,179.14,56.46ZM125.68,42.63c.32-2.87-1.46-7.7-3.6-10.08a6.29,6.29,0,0,0-7.52-1.83,16.67,16.67,0,0,0-7.39,5.92.86.86,0,0,0-.2.83c3.28-2,6.66-3.52,10.63-2.57C121.72,35.9,123.68,39.19,125.68,42.63Z"/>
      <path class="cls-12" d="M84.87,41.57a.56.56,0,0,0,0-.61c-2-4.48-.86-8.42,2-12.07a.56.56,0,0,0,.34-.47h0c.6.12,1-.33,1.38-.59a6.52,6.52,0,0,1,9.2,1.81c.27.38.45.85,1,1v0l.16.3A28.74,28.74,0,0,1,99,34.27a6.64,6.64,0,0,1-2.91,5A49.45,49.45,0,0,0,89,44.62c-.1.1-.32.08-.49.12a19.21,19.21,0,0,1-3.39-2.84c0-.2,0-.31-.22-.33Z"/>
      <path class="cls-12" d="M202.08,57.37c-.13,1.42.22,2.82,0,4.27a11.78,11.78,0,0,1-4.23,7.47h0l-.35.12a11.56,11.56,0,0,1-4.75,1.21c-.75-1.18-.92-2.6-1.56-3.82s-1-2.3-1.67-3.37c-2.14-3.57-1.6-6.83,1-9.9a7.58,7.58,0,0,0,2.15-.82,6.49,6.49,0,0,1,8,2.42c.48.71.89,1.46,1.33,2.2l0,0C202,57.2,202,57.29,202.08,57.37Z"/>
      <path class="cls-6" d="M168.8,53.12c9.29,2.2,12.46,11.47,9.12,18.69-1.88,4.06-5.54,5.68-9.86,5.83a12.48,12.48,0,0,1-12.63-15.77,11.71,11.71,0,0,1,11.18-9A20.42,20.42,0,0,1,168.8,53.12Zm-11.11,10.2a9.8,9.8,0,0,0,7.52,11.77,9.91,9.91,0,1,0-7.52-11.77Z"/>
      <path class="cls-6" d="M110.38,63a12.09,12.09,0,0,1-9.81-13.18c.34-3.66,2.61-6.14,5.59-8,5-3.19,10.64-3,14.37.7a13.35,13.35,0,0,1,3.94,10.87C124,61.69,116,64.48,110.38,63Zm.21-1.81a9.78,9.78,0,0,0,11.74-7.56,9.91,9.91,0,1,0-11.74,7.56Z"/>
      <path class="cls-13" d="M179.14,56.46c-4.76-9.11-11.62-9.65-19-4.79-.12-.35.14-.56.27-.76a16.6,16.6,0,0,1,7.28-6.06c3-1.21,5.42-.75,7.47,1.48A15.44,15.44,0,0,1,179.14,56.46Z"/>
      <path class="cls-13" d="M125.68,42.63c-2-3.44-4-6.73-8.08-7.73-4-.95-7.35.57-10.63,2.57a.86.86,0,0,1,.2-.83,16.67,16.67,0,0,1,7.39-5.92,6.29,6.29,0,0,1,7.52,1.83C124.22,34.93,126,39.76,125.68,42.63Z"/>
      <path class="cls-13" d="M98.77,30.65c-.51-.15-.69-.62-1-1a6.52,6.52,0,0,0-9.2-1.81c-.43.26-.78.71-1.38.59,1.65-2.16,3.92-3.11,6.89-3.29-2.57-1.84-5.33-2.31-8-3,.67-.31.67-.31,2.55-.22a10.64,10.64,0,0,1,9.84,7.2C98.72,29.63,99,30.11,98.77,30.65Z"/>
      <path class="cls-13" d="M202,57.15c-.44-.74-.85-1.49-1.33-2.2a6.49,6.49,0,0,0-8-2.42,7.58,7.58,0,0,1-2.15.82c2.32-3.56,7.56-5.08,11.93-3.45A10.8,10.8,0,0,1,206,51.8c-2.67-.73-5.33-1.53-8.47-1.23C200.07,52.27,201.71,54.26,202,57.15Z"/>
      <path class="cls-6" d="M148,13.31l.12.11h-.08a.36.36,0,0,1,0-.11Z"/>
      <path class="cls-13" d="M98.92,30.93l-.16-.3C99,30.64,99,30.79,98.92,30.93Z"/>
      <path class="cls-13" d="M157.69,63.32a9.92,9.92,0,1,1,7.52,11.77A9.89,9.89,0,0,1,157.69,63.32Zm16.05,2.35c1.65-1.36,2-2.84,1-4.24s-2.44-1.6-4.22-.64a.6.6,0,0,0-.33-.63,5.35,5.35,0,0,0-3.49-.61,6.34,6.34,0,0,0-5.61,6.73A6.42,6.42,0,0,0,168,72C171.31,71.67,173.23,69.62,173.74,65.67Z"/>
      <path class="cls-13" d="M110.59,61.2a9.91,9.91,0,1,1,11.74-7.56A9.88,9.88,0,0,1,110.59,61.2ZM107,49.45c-.27.12-.34.36-.42.62A6.28,6.28,0,0,0,111.87,58a6.15,6.15,0,0,0,7-7.06c-.54-3.82-3.54-5.81-7.39-5.3-1.62-1.27-3-1.36-4.2-.3S106,47.77,107,49.45Z"/>
      <path class="cls-14" d="M173.74,65.67c-.51,4-2.43,6-5.76,6.35a6.42,6.42,0,0,1-6.84-5.74,6.34,6.34,0,0,1,5.61-6.73,5.35,5.35,0,0,1,3.49.61.6.6,0,0,1,.33.63,4.73,4.73,0,0,0-.84,1.28,2.83,2.83,0,0,0,.58,2.89A3,3,0,0,0,173.74,65.67Z"/>
      <path class="cls-6" d="M173.74,65.67a3,3,0,0,1-3.43-.71,2.83,2.83,0,0,1-.58-2.89,4.73,4.73,0,0,1,.84-1.28c1.78-1,3.28-.73,4.22.64S175.39,64.31,173.74,65.67Z"/>
      <path class="cls-14" d="M111.44,45.65c3.85-.51,6.85,1.48,7.39,5.3a6.15,6.15,0,0,1-7,7.06,6.28,6.28,0,0,1-5.32-7.94c.08-.26.15-.5.42-.62a3.57,3.57,0,0,0,2.19.91C111,50.3,113,48.39,111.44,45.65Z"/>
      <path class="cls-6" d="M111.44,45.65c1.52,2.74-.46,4.65-2.28,4.71a3.57,3.57,0,0,1-2.19-.91c-1-1.68-.87-3.09.27-4.1S109.82,44.38,111.44,45.65Z"/>
      <path class="cls-15" d="M142.67,112.38a12.53,12.53,0,0,1-5.91,1.89,33.05,33.05,0,0,1-5.45-.07,42.1,42.1,0,0,1-6.37-1.4,34.23,34.23,0,0,1-6.62-2.33,12,12,0,0,1-5.12-4.66,16.46,16.46,0,0,1-1.53-7.29,89,89,0,0,1,.69-15,10.57,10.57,0,0,1,.67-2.89,11.28,11.28,0,0,1,1.87-2.74,34.55,34.55,0,0,1,2.76-3,18.94,18.94,0,0,1,12.58-5,21.69,21.69,0,0,1,13,4.19,17.66,17.66,0,0,1,2.33,2,20.85,20.85,0,0,1,2.23,2.81c3.23,4.71,5.45,10.56,4.07,16.09a27.58,27.58,0,0,1-.92,2.79,61.63,61.63,0,0,1-2.39,6.55C146.9,107.49,145.06,110.83,142.67,112.38Z"/>
      <path class="cls-16" d="M146,76.31c.1,1.66-1.32,3.42-2.64,4.43a11.72,11.72,0,0,1-10.08,2.13,13.35,13.35,0,0,1-8.53-7,5,5,0,0,1-.51-3.52,3.7,3.7,0,0,1,1.92-2.39,11,11,0,0,1,3.45-.38,24.13,24.13,0,0,1,7.45,1c.75.17,3.2.66,3.91.94a13.81,13.81,0,0,1,2.87,1.45A4.67,4.67,0,0,1,146,76.31Z"/>
      <path id="_2" data-name="2" class="cls-17" d="M112.87,82.18s1.11,4.81,8.59,6.1,11-.76,12.51-5.16c0,0-1.73,7.81,7.48,10.82,0,0,6.53,1.17,10.65-1.91,0,0,.48.57-.74,1.89-1.83,1.34-7.21,13.73-16.28,14s-14.26-3.4-16.23-5.32a16.73,16.73,0,0,1-4.68-10.82c-.3-5.11-.77-7.68-1.41-8.62S112.87,82.18,112.87,82.18Z"/>
      <path class="cls-18" d="M120.25,101.42a3.82,3.82,0,0,1,2.54-1.13,10.77,10.77,0,0,1,2.83.25,5.44,5.44,0,0,1,2.38,1c.45.37.73.83,1.28,1,1.11.39,1.58-.17,3,0a8.86,8.86,0,0,1,5.29,2.45,2.06,2.06,0,0,1,.41.6c.29.68-.18.83-.71,1.34s-1.39.08-2,.45c-.45.27-.94-.26-1.43-.07a5.06,5.06,0,0,1-2.29.2,14.6,14.6,0,0,1-7-2.4C122.46,103.64,121.06,103.78,120.25,101.42Z"/>
      <path class="cls-16" d="M152.1,92c-4.12,3.08-10.65,1.91-10.65,1.91-9.21-3-7.48-10.82-7.48-10.82-1.51,4.4-5,6.44-12.51,5.16s-8.59-6.1-8.59-6.1-.75,0-.11.95,1.11,3.51,1.41,8.62a16.73,16.73,0,0,0,4.68,10.82c2,1.92,7.16,5.56,16.23,5.32s14.45-12.63,16.28-14C152.58,92.6,152.1,92,152.1,92Zm-13.61,12.86c-5.59,1.88-14.54-1.26-16.91-3.27s-6.88-5.17-7.13-14.85c0,0,3.5,3.51,7.72,4.09s8.23,0,10.37-2.81c0,0,2.27,5.49,7.05,6.94s8.5.66,10.81-.52C150.4,94.47,144.08,103,138.49,104.89Z"/>
    </g>
  </g>
</svg>
