<svg xmlns="http://www.w3.org/2000/svg" viewBox="0 0 124.21 158.89">
  <defs>
    <style>
      .cls-1 {
        fill: #bea05c;
      }

      .cls-2 {
        fill: #dfbc6d;
      }

      .cls-3 {
        fill: #987647;
      }

      .cls-4 {
        fill: #dfbc6c;
      }

      .cls-5 {
        fill: #2c2c79;
      }

      .cls-6 {
        fill: #fff;
      }

      .cls-7 {
        fill: #2db24c;
      }

      .cls-8 {
        fill: #f16838;
      }

      .cls-9 {
        fill: #4b8fcc;
      }

      .cls-10 {
        fill: #b6b081;
      }

      .cls-11 {
        fill: #d5b367;
      }

      .cls-12 {
        fill: #a56737;
      }

      .cls-13 {
        fill: #4c3421;
      }

      .cls-14 {
        fill: #030202;
      }

      .cls-15 {
        fill: #ffe5bb;
      }

      .cls-16 {
        fill: #4e2a21;
      }

      .cls-17 {
        fill: #600b0c;
      }

      .cls-18 {
        fill: #d42027;
      }
    </style>
  </defs>
  <title>p06</title>
  <g id="character">
    <g>
      <path class="cls-1" d="M.07,119.34c-.19.24.07,1,.07,1.28,0,3.06.79,5.87,3.31,7.61,2.34,1.6,5.13,1.51,7.94,1.91a13.68,13.68,0,0,1,6.73,2.29c1.12.84,2.18,2.3,3.27,3.2a75.92,75.92,0,0,0,6.88,5.25c4.51,2.91,8.27,5.43,14.68,6.39,7.26,1.09,11.12.38,15.24-3.08s6.69-8.26,8.32-14.33a2.85,2.85,0,0,0-1.4-3.31,2.1,2.1,0,0,0-2.56.87,6,6,0,0,0-.72,2.59,21.85,21.85,0,0,1-3.89,9.25,12.92,12.92,0,0,1-8.15,4.68c-2.31.34-4.91.9-7.21.5a31.12,31.12,0,0,1-8.77-3.33A28,28,0,0,1,28.09,137a21.44,21.44,0,0,1-6.3-8.41,24.42,24.42,0,0,0-2.67-3.73,21,21,0,0,0-6-4.59c-4.16-2.07-7.6-2-12.21-1.44A1.13,1.13,0,0,0,.07,119.34Z"/>
      <path class="cls-2" d="M67.93,131.32s-19.58,1.91-23.82-16.58c-2.67-10.29-.11-24.74.08-26.4s1-9.3,1-10.56S46,69,47.7,66.32s5.62-11.8,17.87-11.77,18.2,9.67,19.53,12.07c4,4.44,5.28,21.53,5.51,26.71s7.29,31.13-11.67,35.77C73.36,131.7,71.15,131.14,67.93,131.32Z"/>
      <g>
        <path class="cls-2" d="M80,68.85s19.16,9.45,21.14,17.81c-.55,9-3.41,8.86-4.68,10.11,0,0-4.32,4.4,1.15,7.16,1.27.35,1.74-.18,2.15,1.53a3.25,3.25,0,0,0,3.47,2.25c1.09-.19,1.74-.58,2.69.06a3.83,3.83,0,0,0,4.4-.61c1.32-1.31,1.09-1.79,1.13-2s-.22-.87,1.52-1.06a3.31,3.31,0,0,0,2-4.24c-.42-1.12-2.2-4.85-2.6-5.8a16,16,0,0,1-1.19-4.86C110,69.47,87.55,63.09,86,60.43S71.38,58.73,80,68.85Z"/>
        <path class="cls-3" d="M101.92,93.59a2,2,0,0,0-1,.7,1.64,1.64,0,0,0-.47.8,1.55,1.55,0,0,0,.23,1,8.63,8.63,0,0,0,.61.92l1.34,1.83a3.38,3.38,0,0,0,1.78,1.5,2.48,2.48,0,0,0,2.16-.81,9.21,9.21,0,0,0,1.65-2.59c.21-.44.43-.87.61-1.32a2,2,0,0,0,.2-1.06,1.65,1.65,0,0,0-1.75-1.13,17.16,17.16,0,0,0-2.22.46,4.28,4.28,0,0,1-1.78-.08A3.09,3.09,0,0,0,101.92,93.59Z"/>
        <path class="cls-3" d="M111.29,102.1a1.6,1.6,0,0,0,1.78-.31,1.4,1.4,0,0,0,.22-1.24,2.85,2.85,0,0,0-.68-1.11,2.8,2.8,0,0,0-1.28-.86,1.44,1.44,0,0,0-1.43.36,2.25,2.25,0,0,0-.35.69,1.09,1.09,0,0,0-.07.3,1,1,0,0,0,0,.33A2.9,2.9,0,0,0,111.29,102.1Z"/>
        <path class="cls-3" d="M107.35,105.9a1.1,1.1,0,0,0,.51-.05,1.91,1.91,0,0,0,1.27-1.59,2.68,2.68,0,0,0-.63-2,1.35,1.35,0,0,0-1-.58,1.07,1.07,0,0,0-.44.13,1.89,1.89,0,0,0-1,1.5,3.17,3.17,0,0,0,.41,1.78A1.39,1.39,0,0,0,107.35,105.9Z"/>
        <path class="cls-3" d="M102.16,102a2.44,2.44,0,0,0-1,1.52,2.72,2.72,0,0,0,.23,1.84,1.44,1.44,0,0,0,.41.47,1.15,1.15,0,0,0,1.08,0,2.33,2.33,0,0,0,.85-.71,3.13,3.13,0,0,0,.72-1.63,2,2,0,0,0-.58-1.65,1,1,0,0,0-.42-.24,1.24,1.24,0,0,0-.47,0A2.34,2.34,0,0,0,102.16,102Z"/>
        <path class="cls-3" d="M97.13,99.47a2.06,2.06,0,0,0-.44,1.13,1.23,1.23,0,0,0,.48,1.08,1.78,1.78,0,0,0,1,.26,1,1,0,0,0,.39,0,1.18,1.18,0,0,0,.37-.19,3,3,0,0,0,1.45-2.42,1.19,1.19,0,0,0-.34-.81,1.3,1.3,0,0,0-1.12-.19A3,3,0,0,0,97.13,99.47Z"/>
      </g>
      <g>
        <path class="cls-2" d="M53.92,69.82S34.76,79.26,32.78,87.63c.55,9.05,3.41,8.86,4.68,10.11,0,0,4.32,4.4-1.15,7.16-1.27.35-1.74-.19-2.15,1.52a3.24,3.24,0,0,1-3.47,2.26c-1.09-.2-1.74-.58-2.69,0a3.81,3.81,0,0,1-4.4-.6c-1.32-1.31-1.09-1.79-1.13-2s.22-.87-1.52-1.06a3.31,3.31,0,0,1-2-4.24c.42-1.13,2.2-4.85,2.6-5.81a16,16,0,0,0,1.2-4.86C24,70.44,46.38,64.06,48,61.4S62.54,59.7,53.92,69.82Z"/>
        <path class="cls-3" d="M32,94.56a2,2,0,0,1,1,.69,1.72,1.72,0,0,1,.47.81,1.55,1.55,0,0,1-.23,1,9.16,9.16,0,0,1-.61.92l-1.34,1.83a3.31,3.31,0,0,1-1.78,1.49,2.43,2.43,0,0,1-2.16-.81,9.16,9.16,0,0,1-1.65-2.58c-.21-.44-.43-.88-.61-1.33a1.86,1.86,0,0,1-.19-1.06,1.63,1.63,0,0,1,1.74-1.12,17.16,17.16,0,0,1,2.22.46,4.28,4.28,0,0,0,1.78-.08A3.11,3.11,0,0,1,32,94.56Z"/>
        <path class="cls-3" d="M22.63,103.07a1.62,1.62,0,0,1-1.78-.31,1.36,1.36,0,0,1-.21-1.24,2.76,2.76,0,0,1,.67-1.11,2.86,2.86,0,0,1,1.28-.86,1.41,1.41,0,0,1,1.43.36,2,2,0,0,1,.35.69.82.82,0,0,1,.07.3,1,1,0,0,1-.05.33A2.9,2.9,0,0,1,22.63,103.07Z"/>
        <path class="cls-3" d="M26.57,106.87a1.1,1.1,0,0,1-.51-.05,1.91,1.91,0,0,1-1.27-1.59,2.7,2.7,0,0,1,.63-2,1.35,1.35,0,0,1,1-.58,1.08,1.08,0,0,1,.43.13,1.89,1.89,0,0,1,1,1.5,3.18,3.18,0,0,1-.41,1.78A1.42,1.42,0,0,1,26.57,106.87Z"/>
        <path class="cls-3" d="M31.76,103a2.44,2.44,0,0,1,1,1.52,2.73,2.73,0,0,1-.23,1.84,1.24,1.24,0,0,1-.41.47,1.15,1.15,0,0,1-1.08,0,2.33,2.33,0,0,1-.85-.71,3.17,3.17,0,0,1-.72-1.63,2,2,0,0,1,.58-1.65,1,1,0,0,1,.42-.24,1.06,1.06,0,0,1,.47,0A2.34,2.34,0,0,1,31.76,103Z"/>
        <path class="cls-3" d="M36.79,100.43a2.18,2.18,0,0,1,.45,1.14,1.28,1.28,0,0,1-.49,1.08,1.84,1.84,0,0,1-1,.26,1.29,1.29,0,0,1-.39,0,1.33,1.33,0,0,1-.37-.2,2.94,2.94,0,0,1-1.45-2.41,1.19,1.19,0,0,1,.34-.81A1.3,1.3,0,0,1,35,99.27,3.08,3.08,0,0,1,36.79,100.43Z"/>
      </g>
      <g>
        <path class="cls-4" d="M39,147.7c5.54.76,7.76-.86,8.38-5.18s-3.05-13.75,8.33-15.44c3.76-.48,10.31-3.4,9-11.41s-6.24-8-7.66-7.94a14.13,14.13,0,0,0-5.5,1.17c-1.43.66-10.32,4.88-13.78,9.7C33.46,124.6,31.51,146.67,39,147.7Z"/>
        <path class="cls-5" d="M47.58,154.4a42.54,42.54,0,0,1-15.95,2A26.25,26.25,0,0,1,23,154.55a7.61,7.61,0,0,1-4.91-5,5.42,5.42,0,0,0,.94,5.77,9.9,9.9,0,0,0,5.48,2.84,40.32,40.32,0,0,0,10,.75,56.13,56.13,0,0,0,12-1.92.73.73,0,0,0,.66-.61A11,11,0,0,0,47.58,154.4Z"/>
        <path id="Foot_L" data-name="Foot L" class="cls-6" d="M47.58,154.4s2-6.56-.39-10.8a3.36,3.36,0,0,1-3.57,1.85c-2.76-.24-3.47-1.5-3.47-1.5s-.54-.51-.35-2.24a3.82,3.82,0,0,0-1.32-3s-2.87-1.59-4.14-1.66l-.63-.5s-3.48,1.78-4.9,4.06c0,0-6,2.79-7.59,4.24s-2.74,1.61-3.14,4.65c0,0,.76,4.8,8.47,6.28S41.48,156.84,47.58,154.4Z"/>
        <path class="cls-7" d="M33.78,147a6.08,6.08,0,0,0,1.95,0c.48-.1,1-.28.93-.89a1,1,0,0,0-.93-1A15.21,15.21,0,0,1,32,143.9,5.94,5.94,0,0,1,28.82,141c-.13-.31-.28-.34-.57-.21-.66.31-1.32.61-2,.86-.46.18-.52.44-.32.84a3.34,3.34,0,0,0,1,1.15A23.42,23.42,0,0,0,33.78,147Z"/>
        <path class="cls-8" d="M29,148.89a4.55,4.55,0,0,0,2.7-.28c.25-.12.51-.27.53-.6s-.33-.4-.57-.49a22.11,22.11,0,0,1-4-1.84,8.22,8.22,0,0,1-2.8-2.7c-.23-.39-.44-.41-.78-.19a5,5,0,0,1-.52.26c-1.73,1-1.89,1-.4,2.61S26.88,148.15,29,148.89Z"/>
        <path class="cls-9" d="M24.69,151a2.47,2.47,0,0,0,2.16-.38c.59-.47.49-1-.19-1.33s-1.39-.59-2.06-.92a7,7,0,0,1-3.3-3.21c-.21-.43-.41-.42-.75-.17-1.38,1-1.54,2-.41,3.18A10,10,0,0,0,24.69,151Z"/>
      </g>
      <g>
        <path class="cls-4" d="M102.84,147.7c-5.55.76-7.76-.86-8.39-5.18s3-13.75-8.33-15.44c-3.76-.48-10.31-3.4-9-11.41s6.23-8,7.65-7.94a14.17,14.17,0,0,1,5.51,1.17c1.42.66,11.16,6.4,13.78,9.7C108.82,124.6,110.32,146.67,102.84,147.7Z"/>
        <path class="cls-5" d="M94.25,154.4a42.57,42.57,0,0,0,16,2,26.19,26.19,0,0,0,8.64-1.88,7.63,7.63,0,0,0,4.92-5,5.42,5.42,0,0,1-1,5.77,9.91,9.91,0,0,1-5.47,2.84,40.36,40.36,0,0,1-10,.75,56.12,56.12,0,0,1-12-1.92.75.75,0,0,1-.66-.61A12,12,0,0,1,94.25,154.4Z"/>
        <path id="Foot_L-2" data-name="Foot L" class="cls-6" d="M94.25,154.4s-2-6.56.39-10.8a3.37,3.37,0,0,0,3.58,1.85c2.75-.24,3.46-1.5,3.46-1.5s.54-.51.35-2.24a3.82,3.82,0,0,1,1.32-3s2.87-1.59,4.15-1.66l.62-.5s3.49,1.78,4.91,4.06c0,0,6,2.79,7.58,4.24s2.74,1.61,3.15,4.65c0,0-.77,4.8-8.48,6.28S100.35,156.84,94.25,154.4Z"/>
        <path class="cls-7" d="M108.05,147a6.08,6.08,0,0,1-2,0c-.48-.1-1-.28-.93-.89a1,1,0,0,1,.93-1,15.21,15.21,0,0,0,3.73-1.21A5.94,5.94,0,0,0,113,141c.13-.31.28-.34.57-.21.66.31,1.32.61,2,.86.46.18.52.44.32.84a3.43,3.43,0,0,1-1,1.15A23.59,23.59,0,0,1,108.05,147Z"/>
        <path class="cls-8" d="M112.87,148.89a4.55,4.55,0,0,1-2.7-.28c-.24-.12-.5-.27-.52-.6s.33-.4.56-.49a22.11,22.11,0,0,0,4-1.84A8.13,8.13,0,0,0,117,143c.24-.39.44-.41.78-.19a5,5,0,0,0,.52.26c1.73,1,1.89,1,.41,2.61S115,148.15,112.87,148.89Z"/>
        <path class="cls-9" d="M117.14,151a2.46,2.46,0,0,1-2.15-.38c-.59-.47-.5-1,.19-1.33s1.38-.59,2-.92a7,7,0,0,0,3.3-3.21c.22-.43.41-.42.76-.17,1.37,1,1.53,2,.41,3.18A10.07,10.07,0,0,1,117.14,151Z"/>
      </g>
      <path class="cls-10" d="M50.85,101.18S46.43,87,50.28,79.28s8.85-11.73,16.54-11.72S81.33,69.4,84,75.85c4.28,9.14.23,26.31-2,32.19s-4.81,12.71-13.67,13.21S53,116.36,50.85,101.18Z"/>
      <path class="cls-11" d="M55,66.71a94.26,94.26,0,0,1-9.45-6.51A39,39,0,0,0,40,56.76,13.55,13.55,0,0,1,32.85,47c0-.09-.12-.17-.19-.26-.12-1-.27-2-.36-3A26.71,26.71,0,0,1,32.59,38c.1-.05.24-.07.29-.15a32.08,32.08,0,0,1,3.6-4.46,4.28,4.28,0,0,0,1.06-3.56A17.88,17.88,0,0,0,37,27.78c0-.09,0-.2-.14-.16h0c.08-.38-.19-.63-.37-.9a6.87,6.87,0,0,0-7.27-3C28,24,28,24,27.64,24.27a13.61,13.61,0,0,1,5.43.63A5.6,5.6,0,0,0,29.27,28h0c-.16.07-.15.21-.14.35-1.24,2.73-1.38,5.38.59,7.87a.36.36,0,0,1,.09.38,10.82,10.82,0,0,1-5.62-5.5c-1.89-4.25-1.31-8.42,1-12.34,1.31-2.22,3.87-3,6.82-2.33a8.41,8.41,0,0,1,3.06,1.29,9.25,9.25,0,0,0,5.67,1.45,1.66,1.66,0,0,0,1-.53,44.14,44.14,0,0,1,14.84-8.1,2.07,2.07,0,0,0,1.7-1.67,10.6,10.6,0,0,1,3.15-5.25c.2-.18.44-.46.71-.37s.13.48.16.73a9.13,9.13,0,0,0,2,4.79c.16.18.32.4.61.38a.25.25,0,0,0,0,.07h0L65,9.17a14.05,14.05,0,0,1,.55-4.78A22.79,22.79,0,0,0,66.34,0a8.19,8.19,0,0,1,2,3.13c.61,1.54,1.1,3.13,1.65,4.69a5.71,5.71,0,0,0,.61,1.24c.13.21.28.49.54.47s.43-.34.53-.59A5.84,5.84,0,0,0,72,7.23a8.21,8.21,0,0,1,.74-3.16,2.54,2.54,0,0,1,1-1.2h0c0,.67,0,1.34.07,2a3.24,3.24,0,0,0,1,2.18A4.54,4.54,0,0,1,76.1,9.83a1,1,0,0,0,.83,1A80.52,80.52,0,0,1,95.41,18.6a5.5,5.5,0,0,0,5.29.09,24,24,0,0,0,3.07-2,6.54,6.54,0,0,1,9.9,3.44c1.86,5.55.19,10.4-5,14.1a15.16,15.16,0,0,1-3.92,2.21,7.59,7.59,0,0,0,1.49-5.33c-.08-.94-.52-1.77-.66-2.67l-.12-.14h0a5.54,5.54,0,0,0-3.82-3.42,14.52,14.52,0,0,1,5.49-.54,7,7,0,0,0-2.48-.65,6.66,6.66,0,0,0-6.94,4A5,5,0,0,0,98.67,34c.57.57,1,1.24,1.57,1.84s.91,1.53,1.56,2.16a16.59,16.59,0,0,1,.14,6.32,17.36,17.36,0,0,1-3,6.27,19.58,19.58,0,0,1-7.09,6.06,33.39,33.39,0,0,0-7.69,5.39,31.63,31.63,0,0,1-5.06,4.1C79.07,71.1,75.37,74.92,67.6,75,58.33,75.08,55.82,71.71,55,66.71ZM84.14,30.89a11.08,11.08,0,0,0-1.41.17,7.54,7.54,0,0,0-5.6,7.37,8,8,0,0,0,10.33,7.91c2.69-.75,4.73-2.33,5.28-5.17A8.49,8.49,0,0,0,84.14,30.89Zm-35,15.2c3.75.06,8.3-2.92,7.34-8.2a8.61,8.61,0,0,0-4.15-6.19c-2.9-1.71-6.43-1-9.1,1.78a6.85,6.85,0,0,0-2.27,5.88A7.82,7.82,0,0,0,49.1,46.09Z"/>
      <path class="cls-12" d="M29.79,36.64a.36.36,0,0,0-.1-.39c-2-2.54-1.87-5.24-.6-8a.37.37,0,0,0,.14-.35h0c.4,0,.56-.37.79-.6A4.28,4.28,0,0,1,36.17,27c.24.2.42.47.77.49h0l.15.16a18.56,18.56,0,0,1,.58,2.12,4.37,4.37,0,0,1-1.08,3.63,33.53,33.53,0,0,0-3.68,4.56c0,.08-.19.1-.29.15A12.64,12.64,0,0,1,30,36.81c0-.13-.06-.2-.2-.17Z"/>
      <path class="cls-12" d="M105.93,28.61c.11.95.52,1.82.56,2.8a7.81,7.81,0,0,1-1.79,5.45h0l-.22.12a7.62,7.62,0,0,1-3,1.42c-.65-.67-.94-1.58-1.52-2.3s-1-1.37-1.54-2a5.22,5.22,0,0,1-.63-6.63,4.87,4.87,0,0,0,1.29-.82,4.34,4.34,0,0,1,5.54.55c.41.39.78.84,1.16,1.26l0,0Z"/>
      <path class="cls-6" d="M84.14,30.89a8.49,8.49,0,0,1,8.6,10.28c-.55,2.84-2.59,4.42-5.28,5.17a8,8,0,0,1-10.33-7.91,7.54,7.54,0,0,1,5.6-7.37A11.08,11.08,0,0,1,84.14,30.89ZM78.76,39a6.39,6.39,0,0,0,12.78-.29A6.39,6.39,0,1,0,78.76,39Z"/>
      <path class="cls-6" d="M49.1,46.09a7.82,7.82,0,0,1-8.18-6.73,6.85,6.85,0,0,1,2.27-5.88c2.67-2.78,6.2-3.49,9.1-1.78a8.61,8.61,0,0,1,4.15,6.19C57.4,43.17,52.85,46.15,49.1,46.09ZM49,44.93a6.32,6.32,0,0,0,6.19-6.55A6.39,6.39,0,1,0,49,44.93Z"/>
      <path class="cls-13" d="M90.94,30.87c-4.63-4.73-9-3.78-12.59.59-.14-.19,0-.37,0-.51a10.56,10.56,0,0,1,3.36-5.1,3.93,3.93,0,0,1,4.88-.49A10,10,0,0,1,90.94,30.87Z"/>
      <path class="cls-13" d="M55.21,31.06c-1.8-1.83-3.54-3.57-6.28-3.53s-4.5,1.53-6.23,3.3a.59.59,0,0,1,0-.55,10.79,10.79,0,0,1,3.68-4.88,4.05,4.05,0,0,1,5-.06A10.24,10.24,0,0,1,55.21,31.06Z"/>
      <path class="cls-13" d="M37,27.73c-.36,0-.55-.29-.8-.49a4.41,4.41,0,0,0-6.36.36c-.24.24-.4.6-.81.61a5.9,5.9,0,0,1,4-3.32,14.4,14.4,0,0,0-5.74-.61c.39-.32.39-.32,1.64-.58a7.25,7.25,0,0,1,7.7,3.09C36.79,27.07,37.07,27.33,37,27.73Z"/>
      <path class="cls-13" d="M105.83,28.48c-.38-.42-.75-.87-1.16-1.26a4.34,4.34,0,0,0-5.54-.55,4.87,4.87,0,0,1-1.29.82,6.86,6.86,0,0,1,7.36-3.82,7.21,7.21,0,0,1,2.54.78,15.05,15.05,0,0,0-5.71.31A5.75,5.75,0,0,1,105.83,28.48Z"/>
      <path class="cls-6" d="M64.48,9.18l.09.05h0s0-.05,0-.07Z"/>
      <path class="cls-13" d="M36.63,28l-.15-.17C36.63,27.83,36.62,27.94,36.63,28Z"/>
      <path class="cls-13" d="M78.76,39a6.39,6.39,0,1,1,6.53,6.21A6.38,6.38,0,0,1,78.76,39Zm10.42-1c.81-1.1.81-2.08,0-2.81s-1.77-.62-2.73.25a.4.4,0,0,0-.31-.34,3.51,3.51,0,0,0-2.28.15,4.09,4.09,0,0,0-2.47,5.08,4.14,4.14,0,0,0,5.17,2.54C88.58,42.1,89.46,40.53,89.18,38Z"/>
      <path class="cls-13" d="M49,44.93a6.39,6.39,0,1,1,6.19-6.55A6.37,6.37,0,0,1,49,44.93Zm-4.08-6.8a.54.54,0,0,0-.16.45,4,4,0,0,0,4.55,4.15,4,4,0,1,0-2.18-7.67c-1.21-.54-2.08-.39-2.67.46A1.94,1.94,0,0,0,44.87,38.13Z"/>
      <path class="cls-14" d="M89.18,38c.28,2.56-.6,4.13-2.63,4.87a4.14,4.14,0,0,1-5.17-2.54,4.09,4.09,0,0,1,2.47-5.08,3.51,3.51,0,0,1,2.28-.15.4.4,0,0,1,.31.34,2.8,2.8,0,0,0-.33.93,1.82,1.82,0,0,0,.81,1.72A2,2,0,0,0,89.18,38Z"/>
      <path class="cls-6" d="M89.18,38a2,2,0,0,1-2.26.09,1.82,1.82,0,0,1-.81-1.72,2.8,2.8,0,0,1,.33-.93c1-.87,1.94-1,2.73-.25S90,36.87,89.18,38Z"/>
      <path class="cls-14" d="M47.08,35.06a4,4,0,1,1,2.18,7.67,4,4,0,0,1-4.55-4.15.54.54,0,0,1,.16-.45,2.28,2.28,0,0,0,1.52.23A1.9,1.9,0,0,0,47.08,35.06Z"/>
      <path class="cls-6" d="M47.08,35.06a1.9,1.9,0,0,1-.69,3.3,2.28,2.28,0,0,1-1.52-.23,1.94,1.94,0,0,1-.46-2.61C45,34.67,45.87,34.52,47.08,35.06Z"/>
      <path class="cls-15" d="M76.93,72a8,8,0,0,1-3.41,2.1,20.71,20.71,0,0,1-3.42.79,28,28,0,0,1-4.2.12,23.35,23.35,0,0,1-4.5-.44,7.68,7.68,0,0,1-3.92-2.13,10.53,10.53,0,0,1-2.09-4.33,57.71,57.71,0,0,1-1.88-9.47,7.19,7.19,0,0,1,0-1.91,7.43,7.43,0,0,1,.76-2,21.79,21.79,0,0,1,1.25-2.33,12.27,12.27,0,0,1,7.1-5.08,14,14,0,0,1,8.76.63,10.81,10.81,0,0,1,1.77.88A14.61,14.61,0,0,1,75,50.24c2.74,2.45,5,5.77,5,9.45a16.81,16.81,0,0,1-.14,1.88,41.74,41.74,0,0,1-.49,4.48C78.83,68.3,78.19,70.68,76.93,72Z"/>
      <path class="cls-16" d="M73.42,48.93a3.87,3.87,0,0,1-1,3.18,7.56,7.56,0,0,1-6,2.89,8.62,8.62,0,0,1-6.42-3.08,3.19,3.19,0,0,1-.86-2.13A2.38,2.38,0,0,1,60,48a7,7,0,0,1,2.1-.77,15.54,15.54,0,0,1,4.81-.55c.49,0,2.11-.08,2.59,0a8.61,8.61,0,0,1,2,.47A3,3,0,0,1,73.42,48.93Z"/>
      <path id="_2" data-name="2" class="cls-17" d="M53.62,57.71s1.44,2.84,6.32,2.49S66.71,58,67,55c0,0,.13,5.15,6.36,5.62,0,0,4.26-.28,6.36-2.84,0,0,.4.28-.16,1.3-.94,1.11-2.4,9.7-8,11.25s-9.45.08-11-.82a10.83,10.83,0,0,1-4.6-6c-1-3.15-1.67-4.69-2.21-5.18S53.62,57.71,53.62,57.71Z"/>
      <path class="cls-18" d="M61.21,68.61a2.49,2.49,0,0,1,1.42-1.1,7.35,7.35,0,0,1,1.81-.28,3.51,3.51,0,0,1,1.64.24,2.74,2.74,0,0,0,1,.44c.76.08,1-.35,1.87-.49a5.69,5.69,0,0,1,3.69.71,1.56,1.56,0,0,1,.36.32c.28.38,0,.55-.25.94s-.85.27-1.19.6-.63,0-.91.17a3.21,3.21,0,0,1-1.4.49,9.36,9.36,0,0,1-4.75-.43C62.94,69.66,62.08,70,61.21,68.61Z"/>
      <path class="cls-16" d="M79.69,57.82c-2.1,2.56-6.36,2.84-6.36,2.84C67.1,60.19,67,55,67,55c-.26,3-2.15,4.81-7,5.16s-6.32-2.49-6.32-2.49-.47.13.08.61,1.23,2,2.21,5.18a10.83,10.83,0,0,0,4.6,6c1.53.9,5.34,2.38,11,.82s7.1-10.14,8-11.25C80.09,58.1,79.69,57.82,79.69,57.82ZM73.16,68c-3.21,2-9.3,1.45-11.09.56s-5.1-2.17-6.75-8.19a10.17,10.17,0,0,0,5.46,1.37c2.73-.29,5.14-1.31,6.06-3.37,0,0,2.27,3.09,5.48,3.26a9.25,9.25,0,0,0,6.69-2S76.37,65.93,73.16,68Z"/>
    </g>
  </g>
</svg>
