<svg xmlns="http://www.w3.org/2000/svg" viewBox="0 0 137.77 130.06">
  <defs>
    <style>
      .cls-1 {
        fill: #bea05c;
      }

      .cls-2 {
        fill: #dfbc6d;
      }

      .cls-3 {
        fill: #987647;
      }

      .cls-4 {
        fill: #dfbc6c;
      }

      .cls-5 {
        fill: #2c2c79;
      }

      .cls-6 {
        fill: #fff;
      }

      .cls-7 {
        fill: #2db24c;
      }

      .cls-8 {
        fill: #f16838;
      }

      .cls-9 {
        fill: #4b8fcc;
      }

      .cls-10 {
        fill: #b6b081;
      }

      .cls-11 {
        fill: #d5b367;
      }

      .cls-12 {
        fill: #a56737;
      }

      .cls-13 {
        fill: #4c3421;
      }

      .cls-14 {
        fill: #030202;
      }

      .cls-15 {
        fill: #ffe5bb;
      }

      .cls-16 {
        fill: #4e2a21;
      }

      .cls-17 {
        fill: #600b0c;
      }

      .cls-18 {
        fill: #d42027;
      }
    </style>
  </defs>
  <title>p24</title>
  <g id="character">
    <g>
      <path class="cls-1" d="M28.49,73.84c-.26.1-.38.77-.52,1-1.35,2.34-2,4.83-.83,7.27,1.08,2.27,3.25,3.43,5.23,5a12.13,12.13,0,0,1,4.13,4.73c.48,1.14.65,2.72,1.08,3.89a66.4,66.4,0,0,0,2.94,7.05c2.16,4.22,3.92,7.8,8.4,11.37,5.07,4,8.33,5.21,13,4.39s8.77-3.36,12.7-7.28a2.53,2.53,0,0,0,.39-3.15,1.86,1.86,0,0,0-2.35-.46A5.31,5.31,0,0,0,71,109.28a19.16,19.16,0,0,1-7.06,5.35,11.38,11.38,0,0,1-8.3,0c-1.91-.76-4.15-1.48-5.73-2.8a27.76,27.76,0,0,1-5.23-6.42,24.89,24.89,0,0,1-2.56-5.66A18.87,18.87,0,0,1,41,90.52a20.91,20.91,0,0,0-.39-4A18.61,18.61,0,0,0,38,80.31c-2.26-3.42-4.93-4.86-8.7-6.49A1,1,0,0,0,28.49,73.84Z"/>
      <path class="cls-2" d="M77.64,110.43s-16,6.68-24.4-7.83c-4.91-8-6.49-20.86-6.76-22.3s-1.57-8.11-1.86-9.18S43,63.54,43.75,60.8s1.7-11.41,12-14.56,17.86,3.46,19.6,5.14C79.91,54.1,85.42,68.19,87,72.5s14.2,24.39-.6,33.22C82.33,109.35,80.31,109.45,77.64,110.43Z"/>
      <path class="cls-2" d="M46.55,63s-5.48-2.7-7.5-3.33-15.38-4.89-18.49-5.15c-7.71-2.16-11.71,0-13.12.66,0,0-4.92,2.33-5.64-3,.08-1.16.66-1.4-.65-2.23a2.87,2.87,0,0,1-.87-3.55c.48-.86,1-1.29.73-2.26a3.39,3.39,0,0,1,1.78-3.5c1.48-.72,1.81-.39,2-.37s.66.44,1.32-1a2.92,2.92,0,0,1,4.11-.4c.82.67,3.41,3.23,4.09,3.84A9.26,9.26,0,0,0,18,45.13c1.67.42,17.33,6.75,19.79,7.08s9.35,2.43,12.09,2.31S58.2,64.43,46.55,63Z"/>
      <path class="cls-3" d="M12.22,51.31a1.7,1.7,0,0,1-.83.66,1.54,1.54,0,0,1-.8.2,1.36,1.36,0,0,1-.77-.45A7.57,7.57,0,0,1,9.19,51L8,49.38a2.94,2.94,0,0,1-.81-1.88A2.17,2.17,0,0,1,8.4,45.87a8.19,8.19,0,0,1,2.6-.74c.42-.07.85-.14,1.27-.18a1.8,1.8,0,0,1,1,.1,1.45,1.45,0,0,1,.51,1.76,14.93,14.93,0,0,1-1,1.76,3.88,3.88,0,0,0-.38,1.53A2.59,2.59,0,0,1,12.22,51.31Z"/>
      <path class="cls-3" d="M7.39,41.24a1.43,1.43,0,0,1,.71-1.43,1.23,1.23,0,0,1,1.1.13,2.42,2.42,0,0,1,.77.85,2.51,2.51,0,0,1,.4,1.3,1.25,1.25,0,0,1-.66,1.12,1.89,1.89,0,0,1-.67.12.81.81,0,0,1-.27,0,1.13,1.13,0,0,1-.27-.13A2.56,2.56,0,0,1,7.39,41.24Z"/>
      <path class="cls-3" d="M3.18,43.61a1,1,0,0,1,.17-.42A1.72,1.72,0,0,1,5,42.52a2.37,2.37,0,0,1,1.53,1,1.21,1.21,0,0,1,.23,1,1.24,1.24,0,0,1-.22.34,1.69,1.69,0,0,1-1.51.42,2.89,2.89,0,0,1-1.41-.8A1.21,1.21,0,0,1,3.18,43.61Z"/>
      <path class="cls-3" d="M5.14,49a2.06,2.06,0,0,1-1.52.43,2.36,2.36,0,0,1-1.5-.65,1.18,1.18,0,0,1-.3-.47,1,1,0,0,1,.23-.92,2,2,0,0,1,.82-.55,2.88,2.88,0,0,1,1.56-.19,1.75,1.75,0,0,1,1.24.9.79.79,0,0,1,.1.42,1,1,0,0,1-.12.4A2.08,2.08,0,0,1,5.14,49Z"/>
      <path class="cls-3" d="M6.05,53.88A1.87,1.87,0,0,1,5,54a1.13,1.13,0,0,1-.8-.68,1.61,1.61,0,0,1,0-.92,1.24,1.24,0,0,1,.12-.32,1.11,1.11,0,0,1,.26-.27A2.59,2.59,0,0,1,7,51.17a1,1,0,0,1,.6.49,1.16,1.16,0,0,1-.12,1A2.72,2.72,0,0,1,6.05,53.88Z"/>
      <path class="cls-2" d="M75.58,53.15s2.7-5.47,3.92-7.2,9.24-13.24,11.55-15.34c4.8-6.4,9.27-7.15,10.81-7.46,0,0,5.32-1.14,2.64-5.83-.78-.87-1.38-.71-.85-2.17a2.86,2.86,0,0,0-1.46-3.34c-.9-.39-1.57-.42-2-1.35a3.37,3.37,0,0,0-3.54-1.69c-1.61.32-1.67.78-1.78.89s-.26.75-1.63.05a2.91,2.91,0,0,0-3.51,2.17c-.24,1-.73,4.64-.9,5.54a9.52,9.52,0,0,1-1.48,4.17c-1.08,1.35-9.66,15.9-11.4,17.66s-5.95,7.62-8.2,9.18S67.2,61.37,75.58,53.15Z"/>
      <path class="cls-3" d="M95.71,23a1.77,1.77,0,0,0,1.07,0,1.55,1.55,0,0,0,.75-.33,1.29,1.29,0,0,0,.34-.82,5.32,5.32,0,0,0,0-1v-2a3,3,0,0,0-.49-2,2.18,2.18,0,0,0-2-.55,8.25,8.25,0,0,0-2.52,1c-.37.2-.75.4-1.12.63a1.8,1.8,0,0,0-.69.65,1.46,1.46,0,0,0,.67,1.71,14.88,14.88,0,0,0,1.82.82,3.79,3.79,0,0,1,1.23,1A2.77,2.77,0,0,0,95.71,23Z"/>
      <path class="cls-3" d="M93.42,12.06a1.42,1.42,0,0,0-1.43-.7,1.23,1.23,0,0,0-.8.77,2.58,2.58,0,0,0-.09,1.14,2.52,2.52,0,0,0,.47,1.28,1.23,1.23,0,0,0,1.21.48,1.68,1.68,0,0,0,.61-.31.82.82,0,0,0,.2-.17.71.71,0,0,0,.13-.26A2.55,2.55,0,0,0,93.42,12.06Z"/>
      <path class="cls-3" d="M98.21,11.38a1,1,0,0,0-.39-.23,1.73,1.73,0,0,0-1.74.48,2.4,2.4,0,0,0-.58,1.76,1.22,1.22,0,0,0,.44,1,1.06,1.06,0,0,0,.39.13,1.69,1.69,0,0,0,1.45-.58,2.89,2.89,0,0,0,.63-1.49A1.27,1.27,0,0,0,98.21,11.38Z"/>
      <path class="cls-3" d="M99.91,16.84a2.16,2.16,0,0,0,1.48-.58,2.44,2.44,0,0,0,.79-1.44,1.14,1.14,0,0,0-.05-.55,1,1,0,0,0-.74-.59,1.93,1.93,0,0,0-1,.06,2.85,2.85,0,0,0-1.36.8A1.77,1.77,0,0,0,98.61,16a.78.78,0,0,0,.18.39.92.92,0,0,0,.34.24A2,2,0,0,0,99.91,16.84Z"/>
      <path class="cls-3" d="M102.17,21.28a1.86,1.86,0,0,0,.91-.58,1.14,1.14,0,0,0,.22-1,1.59,1.59,0,0,0-.59-.7.91.91,0,0,0-.29-.19,1.18,1.18,0,0,0-.37-.05,2.57,2.57,0,0,0-2.28,1,1,1,0,0,0-.18.75,1.11,1.11,0,0,0,.7.72A2.71,2.71,0,0,0,102.17,21.28Z"/>
      <g>
        <path class="cls-4" d="M121.3,103c-2.61,4.19-5,4.79-8.29,2.79a33.17,33.17,0,0,0-20.2-5.35c-3.34.28-9.53-1.05-9.88-8.2s3.91-8,5.15-8.26a13,13,0,0,1,5,.18c1.39.32,8.6,1.61,9.29,1.73,2,.33,7.89,3,9,3.56C112.08,89.84,124.81,97.32,121.3,103Z"/>
        <path class="cls-5" d="M121,112.6a37.62,37.62,0,0,0,10.36-9.7A23.26,23.26,0,0,0,135,96a6.74,6.74,0,0,0-.66-6.18,4.79,4.79,0,0,1,3.39,3.89A8.78,8.78,0,0,1,136.55,99a35.73,35.73,0,0,1-5.12,7.21,48.93,48.93,0,0,1-8.06,7.08.67.67,0,0,1-.79.11A10.5,10.5,0,0,1,121,112.6Z"/>
        <path id="Foot_L" data-name="Foot L" class="cls-6" d="M121,112.6s-5.56-2.36-7.12-6.35a3,3,0,0,0,3.26-1.39c1.4-2,.94-3.2.94-3.2s0-.65-1.33-1.5a3.37,3.37,0,0,1-1.28-2.58,13.8,13.8,0,0,1,1.2-3.75s0-.4,0-.71c0,0,3.17-1.36,5.52-1.05,0,0,5.29-2.51,7.16-2.77s2.63-1,4.93.48c0,0,2.84,3.22-.51,9.3S126.12,109.82,121,112.6Z"/>
        <path class="cls-7" d="M123.76,99.05a5.51,5.51,0,0,1-1.09,1.33c-.34.27-.74.5-1.13.13a.91.91,0,0,1-.16-1.2,14.23,14.23,0,0,0,1.28-3.22,5.28,5.28,0,0,0-.21-3.81c-.14-.27-.08-.39.18-.51.57-.28,1.15-.56,1.71-.88.38-.21.59-.11.75.26a3,3,0,0,1,.24,1.3A20.57,20.57,0,0,1,123.76,99.05Z"/>
        <path class="cls-8" d="M127.76,96.83a4,4,0,0,1-1.71,1.68.64.64,0,0,1-.7,0c-.29-.2-.09-.45,0-.66a19.61,19.61,0,0,0,1-3.77,7.08,7.08,0,0,0-.26-3.42c-.13-.38,0-.53.31-.64a4.84,4.84,0,0,0,.47-.21c1.63-.63,1.73-.74,2,1.2A12,12,0,0,1,127.76,96.83Z"/>
        <path class="cls-9" d="M131.62,95.13a2.14,2.14,0,0,1-1.48,1.25c-.65.14-1-.24-.79-.87s.38-1.27.53-1.92a6.2,6.2,0,0,0-.32-4c-.17-.39-.06-.51.31-.61,1.43-.38,2.2.06,2.39,1.52A8.84,8.84,0,0,1,131.62,95.13Z"/>
      </g>
      <g>
        <path class="cls-4" d="M27.89,119.47c3.53,3.46,6,3.47,8.67.74A33.38,33.38,0,0,1,55,110.2c3.31-.53,9-3.29,7.64-10.31s-5.71-6.88-7-6.81a12.54,12.54,0,0,0-4.82,1.19c-1.24.62-7.28,3.43-8.45,3.93-2.09.9-5.94,3.85-7.32,4.78C34.31,103.45,23.13,114.8,27.89,119.47Z"/>
        <path class="cls-5" d="M30.45,128.74a37.6,37.6,0,0,1-12.38-7,23.29,23.29,0,0,1-5.13-5.88,6.72,6.72,0,0,1-.83-6.15,4.76,4.76,0,0,0-2.37,4.58,8.84,8.84,0,0,0,2.39,4.9A35.15,35.15,0,0,0,18.82,125a48.58,48.58,0,0,0,9.51,5,.66.66,0,0,0,.8-.09A10.42,10.42,0,0,0,30.45,128.74Z"/>
        <path id="Foot_L-2" data-name="Foot L" class="cls-6" d="M30.45,128.74s4.84-3.62,5.4-7.86a3,3,0,0,1-3.5-.58c-1.83-1.61-1.67-2.88-1.67-2.88s-.11-.65.93-1.77a3.37,3.37,0,0,0,.64-2.81,13.78,13.78,0,0,0-2.07-3.36s-.09-.39-.18-.69c0,0-3.4-.57-5.61.3,0,0-5.73-1.18-7.6-1s-2.8-.3-4.68,1.65c0,0-2,3.8,2.7,8.9S24.84,127.26,30.45,128.74Z"/>
        <path class="cls-7" d="M24.56,116.23a5.56,5.56,0,0,0,1.38,1c.39.17.83.31,1.12-.15a.91.91,0,0,0-.12-1.21,13,13,0,0,1-2-2.82,5.2,5.2,0,0,1-.71-3.75c.07-.29,0-.39-.29-.45-.63-.13-1.26-.27-1.87-.44-.42-.12-.6,0-.67.42a3.09,3.09,0,0,0,.07,1.32A20.8,20.8,0,0,0,24.56,116.23Z"/>
        <path class="cls-8" d="M20.15,115a3.94,3.94,0,0,0,2.06,1.22.65.65,0,0,0,.69-.14c.23-.27,0-.46-.14-.65A19,19,0,0,1,20.88,112a7.17,7.17,0,0,1-.57-3.39c0-.4-.09-.52-.45-.54-.17,0-.34-.07-.51-.09-1.73-.23-1.85-.31-1.66,1.63A12,12,0,0,0,20.15,115Z"/>
        <path class="cls-9" d="M16,114.3a2.13,2.13,0,0,0,1.73.86c.66,0,.89-.46.56-1s-.67-1.14-1-1.73a6.2,6.2,0,0,1-.66-4c.08-.42-.06-.51-.44-.52-1.49,0-2.12.58-2,2A8.77,8.77,0,0,0,16,114.3Z"/>
      </g>
      <path class="cls-10" d="M55.43,89.41S48,78.6,49.29,71.07,53.72,58.88,60.22,56.9s12.72-2.2,16.61,2.56c6,6.61,7,22.15,6.61,27.7s-.77,12-8.12,14.69S61.13,101.68,55.43,89.41Z"/>
      <path class="cls-11" d="M50,59.25a81.46,81.46,0,0,1-9.66-3.06,34.57,34.57,0,0,0-5.54-1.48,12,12,0,0,1-8.59-6.4c0-.08-.14-.12-.22-.17-.36-.81-.74-1.6-1.07-2.41a23.77,23.77,0,0,1-1.23-4.9c.07-.07.18-.12.2-.2a28.45,28.45,0,0,1,1.88-4.7,3.77,3.77,0,0,0,0-3.28,16,16,0,0,0-1-1.6c0-.08,0-.18-.16-.1h0c0-.34-.32-.48-.54-.66a6.07,6.07,0,0,0-6.91-.65c-.95.51-.95.51-1.18.86a11.9,11.9,0,0,1,4.75-.88,4.9,4.9,0,0,0-2.4,3.62h0c-.12.1-.07.21,0,.33-.34,2.62.23,4.9,2.54,6.49a.31.31,0,0,1,.17.29,9.51,9.51,0,0,1-6.16-3.18,11.39,11.39,0,0,1-2.35-10.68C13,24.27,15,23,17.63,22.75a7.59,7.59,0,0,1,2.91.29,8.08,8.08,0,0,0,5.16-.24c.37-.12.53-.42.73-.7A39,39,0,0,1,36.85,11.42a1.84,1.84,0,0,0,1-1.85,9.22,9.22,0,0,1,1.3-5.24c.12-.21.25-.5.5-.5s.23.37.33.57a8,8,0,0,0,3,3.51.66.66,0,0,0,.62.17l0,.05,0,0-.1,0a12.38,12.38,0,0,1-.77-4.18A19.43,19.43,0,0,0,42.33,0a7.18,7.18,0,0,1,2.49,2.13c.91,1.14,1.73,2.35,2.6,3.53a5.06,5.06,0,0,0,.84.89c.16.15.36.34.58.26s.27-.4.29-.64A4.67,4.67,0,0,0,49,4.64a7.41,7.41,0,0,1-.19-2.85A2.21,2.21,0,0,1,49.3.52h0c.19.56.37,1.12.58,1.68a2.81,2.81,0,0,0,1.37,1.58,4,4,0,0,1,1.89,2,.89.89,0,0,0,1,.62A71,71,0,0,1,71.69,8.18a4.83,4.83,0,0,0,4.48-1.29,20.75,20.75,0,0,0,2.07-2.51,5.78,5.78,0,0,1,9.25.35c3,4.2,2.84,8.73-.53,13.18a13.14,13.14,0,0,1-2.75,2.87,6.64,6.64,0,0,0-.12-4.88c-.31-.77-.89-1.35-1.24-2.09l-.14-.08h0a4.88,4.88,0,0,0-4.11-1.9A13,13,0,0,1,83.11,10a6.35,6.35,0,0,0-2.26.09A5.88,5.88,0,0,0,76,15.23a4.44,4.44,0,0,0,2.4,5.13c.62.34,1.19.78,1.8,1.15s1.17,1.06,1.87,1.42a14.62,14.62,0,0,1,1.76,5.3,15.23,15.23,0,0,1-.9,6.06,17.16,17.16,0,0,1-4.42,7,29.41,29.41,0,0,0-5.09,6.54,28.45,28.45,0,0,1-3.21,4.77c1.23,4.17-.9,8.36-7.45,10.43C55,65.45,52,63.25,50,59.25ZM65.35,21.47a9,9,0,0,0-1.14.51,6.64,6.64,0,0,0-2.83,7.66,7.1,7.1,0,0,0,10.77,4c2.07-1.34,3.39-3.2,3.12-5.73A7.49,7.49,0,0,0,65.35,21.47ZM39.7,43.36c3.19-.92,6.25-4.61,4.08-8.81a7.62,7.62,0,0,0-5.1-4.16c-2.89-.69-5.69.82-7.23,3.86a6,6,0,0,0-.39,5.54A6.88,6.88,0,0,0,39.7,43.36ZM71.38,20.07a8.8,8.8,0,0,0-4.89-3.79,3.46,3.46,0,0,0-4.08,1.46,9.48,9.48,0,0,0-1.78,5.08c0,.14-.08.32.08.45C62.88,18.75,66.39,17,71.38,20.07ZM41.22,28.94a9,9,0,0,0-4.7-3.87,3.58,3.58,0,0,0-4.21,1.3,9.52,9.52,0,0,0-1.88,5.05.52.52,0,0,0,.15.47c1-1.94,2.22-3.67,4.44-4.36S39.24,27.84,41.22,28.94Z"/>
      <path class="cls-12" d="M21,40.34a.31.31,0,0,0-.17-.29c-2.31-1.59-2.88-3.87-2.54-6.49a.31.31,0,0,0,0-.33h0c.32-.12.36-.44.49-.69a3.71,3.71,0,0,1,5-1.81c.24.11.47.29.76.21h0l.16.1a16,16,0,0,1,1,1.6,3.77,3.77,0,0,1,0,3.28,28.45,28.45,0,0,0-1.88,4.7c0,.08-.13.13-.2.2a10.44,10.44,0,0,1-2.49-.4c0-.11-.1-.15-.21-.09Z"/>
      <path class="cls-12" d="M82.85,13.81c.35.74.93,1.32,1.24,2.09a6.64,6.64,0,0,1,.12,4.88h0l-.14.16a6.64,6.64,0,0,1-2,2c-.7-.36-1.2-1-1.87-1.42s-1.18-.81-1.8-1.15A4.44,4.44,0,0,1,76,15.23a4.24,4.24,0,0,0,.81-1,3.69,3.69,0,0,1,4.6-1.14c.44.2.86.45,1.29.68h0Z"/>
      <path class="cls-6" d="M65.35,21.47a7.49,7.49,0,0,1,9.92,6.46c.27,2.53-1,4.39-3.12,5.73a7.1,7.1,0,0,1-10.77-4A6.64,6.64,0,0,1,64.21,22,9,9,0,0,1,65.35,21.47ZM62.9,29.69a5.65,5.65,0,0,0,10.72-3.55A5.65,5.65,0,1,0,62.9,29.69Z"/>
      <path class="cls-6" d="M39.7,43.36a6.88,6.88,0,0,1-8.64-3.57,6,6,0,0,1,.39-5.54c1.54-3,4.34-4.55,7.23-3.86a7.62,7.62,0,0,1,5.1,4.16C46,38.75,42.89,42.44,39.7,43.36Zm-.42-.94a5.57,5.57,0,0,0,3.53-7.12,5.64,5.64,0,1,0-3.53,7.12Z"/>
      <path class="cls-13" d="M71.38,20.07c-5-3.06-8.5-1.32-10.67,3.2-.16-.13-.09-.31-.08-.45a9.48,9.48,0,0,1,1.78-5.08,3.46,3.46,0,0,1,4.08-1.46A8.8,8.8,0,0,1,71.38,20.07Z"/>
      <path class="cls-13" d="M41.22,28.94c-2-1.1-3.9-2.13-6.2-1.41S31.6,30,30.58,31.89a.52.52,0,0,1-.15-.47,9.52,9.52,0,0,1,1.88-5.05,3.58,3.58,0,0,1,4.21-1.3A9,9,0,0,1,41.22,28.94Z"/>
      <path class="cls-13" d="M24.58,31c-.29.08-.52-.1-.76-.21a3.71,3.71,0,0,0-5,1.81c-.13.25-.17.57-.49.69a4.9,4.9,0,0,1,2.4-3.62A11.9,11.9,0,0,0,16,30.5c.23-.35.23-.35,1.18-.86a6.07,6.07,0,0,1,6.91.65C24.26,30.47,24.55,30.61,24.58,31Z"/>
      <path class="cls-13" d="M82.73,13.74c-.43-.23-.85-.48-1.29-.68a3.69,3.69,0,0,0-4.6,1.14,4.24,4.24,0,0,1-.81,1,5.88,5.88,0,0,1,4.82-5.18A6.35,6.35,0,0,1,83.11,10a13,13,0,0,0-4.49,1.88A4.88,4.88,0,0,1,82.73,13.74Z"/>
      <path class="cls-6" d="M43.56,8.09l.1,0,0,0,0-.05Z"/>
      <path class="cls-13" d="M24.73,31.05l-.16-.1C24.69,30.87,24.71,31,24.73,31.05Z"/>
      <path class="cls-13" d="M62.9,29.69A5.65,5.65,0,1,1,70,33.24,5.63,5.63,0,0,1,62.9,29.69Zm8.53-3.54c.41-1.15.16-2-.73-2.38s-1.66-.07-2.24.92a.35.35,0,0,0-.35-.21,3.09,3.09,0,0,0-1.88.72,3.62,3.62,0,0,0-.78,4.93,3.67,3.67,0,0,0,5,.81C72,29.79,72.33,28.23,71.43,26.15Z"/>
      <path class="cls-13" d="M39.28,42.42a5.64,5.64,0,1,1,3.53-7.12A5.57,5.57,0,0,1,39.28,42.42Zm-5.2-4.68a.44.44,0,0,0,0,.42A3.57,3.57,0,0,0,39,40.49,3.51,3.51,0,0,0,40.31,35a3.46,3.46,0,0,0-5.16-.43c-1.16-.14-1.86.21-2.14,1.09S33.12,37.2,34.08,37.74Z"/>
      <path class="cls-14" d="M71.43,26.15c.9,2.08.56,3.64-1,4.79a3.67,3.67,0,0,1-5-.81,3.62,3.62,0,0,1,.78-4.93,3.09,3.09,0,0,1,1.88-.72.35.35,0,0,1,.35.21,2.54,2.54,0,0,0,0,.87,1.58,1.58,0,0,0,1.13,1.24A1.72,1.72,0,0,0,71.43,26.15Z"/>
      <path class="cls-6" d="M71.43,26.15a1.72,1.72,0,0,1-1.88.65,1.58,1.58,0,0,1-1.13-1.24,2.54,2.54,0,0,1,0-.87c.58-1,1.38-1.32,2.24-.92S71.84,25,71.43,26.15Z"/>
      <path class="cls-14" d="M35.15,34.57a3.46,3.46,0,0,1,5.16.43A3.51,3.51,0,0,1,39,40.49a3.57,3.57,0,0,1-4.91-2.33.44.44,0,0,1,0-.42,2,2,0,0,0,1.34-.2A1.68,1.68,0,0,0,35.15,34.57Z"/>
      <path class="cls-6" d="M35.15,34.57a1.68,1.68,0,0,1,.27,3,2,2,0,0,1-1.34.2c-1-.54-1.33-1.26-1.07-2.08S34,34.43,35.15,34.57Z"/>
      <path class="cls-15" d="M69.9,58a7,7,0,0,1-2.33,2.65,18,18,0,0,1-2.68,1.56,24.25,24.25,0,0,1-3.52,1.18,19.63,19.63,0,0,1-3.92.8,6.77,6.77,0,0,1-3.86-.79,9.34,9.34,0,0,1-2.88-3.11,50.66,50.66,0,0,1-4-7.51,5.66,5.66,0,0,1-.52-1.6,6.68,6.68,0,0,1,.11-1.89A22.09,22.09,0,0,1,46.73,47a10.83,10.83,0,0,1,4.68-6.13A12.44,12.44,0,0,1,59,39.17a10.91,10.91,0,0,1,1.71.29,13,13,0,0,1,1.92.72c2.95,1.36,5.75,3.57,6.69,6.68a15.12,15.12,0,0,1,.36,1.62,35.27,35.27,0,0,1,.75,3.9C70.54,54.42,70.62,56.59,69.9,58Z"/>
      <path class="cls-16" d="M61,39.47a3.41,3.41,0,0,1,0,2.93,6.65,6.65,0,0,1-4.3,4,7.63,7.63,0,0,1-6.22-.94,2.84,2.84,0,0,1-1.27-1.57,2.09,2.09,0,0,1,.23-1.73A6.19,6.19,0,0,1,51,41a13.76,13.76,0,0,1,3.92-1.72c.41-.13,1.75-.61,2.18-.68a8.58,8.58,0,0,1,1.82-.13A2.67,2.67,0,0,1,61,39.47Z"/>
      <path id="_2" data-name="2" class="cls-17" d="M46.52,52s1.95,2,6,.47,5.15-3.59,4.61-6.18c0,0,1.43,4.32,6.81,3.1,0,0,3.53-1.33,4.64-4,0,0,.4.13.2,1.14-.51,1.19.49,8.81-3.87,11.58s-8,2.51-9.49,2.14A9.54,9.54,0,0,1,50,56.3c-1.64-2.41-2.63-3.53-3.21-3.8S46.52,52,46.52,52Z"/>
      <path class="cls-18" d="M55.75,59.24a2.22,2.22,0,0,1,.91-1.3,6.34,6.34,0,0,1,1.46-.7A3.11,3.11,0,0,1,59.56,57a2.7,2.7,0,0,0,.92.13c.66-.14.72-.55,1.45-.91a5.09,5.09,0,0,1,3.3-.35,1,1,0,0,1,.38.18c.34.25.16.46,0,.86s-.65.44-.85.81-.53.14-.72.38a2.86,2.86,0,0,1-1,.77,8.23,8.23,0,0,1-4.13.87C57.48,59.68,56.84,60.16,55.75,59.24Z"/>
      <path class="cls-16" d="M68.56,45.35c-1.11,2.71-4.64,4-4.64,4-5.38,1.22-6.81-3.1-6.81-3.1.54,2.59-.58,4.62-4.61,6.18s-6-.47-6-.47-.36.23.23.5,1.57,1.39,3.21,3.8a9.54,9.54,0,0,0,5.44,3.91c1.53.37,5.13.63,9.49-2.14s3.36-10.39,3.87-11.58C69,45.48,68.56,45.35,68.56,45.35ZM65.67,55.61c-2.18,2.55-7.47,3.63-9.21,3.34s-4.87-.52-7.82-5.17a8.91,8.91,0,0,0,5-.26c2.23-1,4-2.43,4.24-4.4,0,0,2.72,2,5.48,1.33A8.19,8.19,0,0,0,68.45,47S67.85,53.05,65.67,55.61Z"/>
    </g>
  </g>
</svg>
