<svg id="Layer_1" data-name="Layer 1" xmlns="http://www.w3.org/2000/svg" viewBox="0 0 1024 600"><defs><style>.cls-1{fill:#ffde17;}</style></defs><title>1_stars</title><path class="cls-1" d="M101,35.46l7.94,16.1a1.11,1.11,0,0,0,.84.61l17.76,2.58a1.11,1.11,0,0,1,.62,1.9L115.31,69.18a1.11,1.11,0,0,0-.32,1l3,17.69A1.11,1.11,0,0,1,116.41,89l-15.89-8.35a1.11,1.11,0,0,0-1,0L83.59,89A1.11,1.11,0,0,1,82,87.86l3-17.69a1.11,1.11,0,0,0-.32-1L71.84,56.65a1.11,1.11,0,0,1,.62-1.9l17.76-2.58a1.11,1.11,0,0,0,.84-.61L99,35.46A1.11,1.11,0,0,1,101,35.46Z"/><path class="cls-1" d="M163.84,188.79l6.65,13.47a.93.93,0,0,0,.7.51l14.87,2.16a.93.93,0,0,1,.52,1.59L175.81,217a.93.93,0,0,0-.27.82l2.54,14.81a.93.93,0,0,1-1.35,1l-13.3-7a.93.93,0,0,0-.87,0l-13.3,7a.93.93,0,0,1-1.35-1l2.54-14.81a.93.93,0,0,0-.27-.82l-10.76-10.49a.93.93,0,0,1,.52-1.59l14.87-2.16a.93.93,0,0,0,.7-.51l6.65-13.47A.93.93,0,0,1,163.84,188.79Z"/><path class="cls-1" d="M884.84,377.79l6.65,13.47a.93.93,0,0,0,.7.51l14.87,2.16a.93.93,0,0,1,.52,1.59L896.81,406a.93.93,0,0,0-.27.82l2.54,14.81a.93.93,0,0,1-1.35,1l-13.3-7a.93.93,0,0,0-.87,0l-13.3,7a.93.93,0,0,1-1.35-1l2.54-14.81a.93.93,0,0,0-.27-.82l-10.76-10.49a.93.93,0,0,1,.52-1.59l14.87-2.16a.93.93,0,0,0,.7-.51l6.65-13.47A.93.93,0,0,1,884.84,377.79Z"/><path class="cls-1" d="M643,53.34l7.68,15.57a1.08,1.08,0,0,0,.81.59L668.64,72a1.08,1.08,0,0,1,.6,1.84L656.8,85.94a1.08,1.08,0,0,0-.31,1L659.43,104a1.08,1.08,0,0,1-1.56,1.13L642.5,97.06a1.08,1.08,0,0,0-1,0l-15.36,8.08a1.08,1.08,0,0,1-1.56-1.13l2.93-17.11a1.08,1.08,0,0,0-.31-1L614.77,73.82a1.08,1.08,0,0,1,.6-1.84l17.18-2.5a1.08,1.08,0,0,0,.81-.59L641,53.34A1.08,1.08,0,0,1,643,53.34Z"/><path class="cls-1" d="M580,345.34l7.68,15.57a1.08,1.08,0,0,0,.81.59l17.18,2.5a1.08,1.08,0,0,1,.6,1.84L593.8,377.94a1.08,1.08,0,0,0-.31,1L596.43,396a1.08,1.08,0,0,1-1.56,1.13l-15.36-8.08a1.08,1.08,0,0,0-1,0l-15.36,8.08a1.08,1.08,0,0,1-1.56-1.13l2.93-17.11a1.08,1.08,0,0,0-.31-1l-12.43-12.12a1.08,1.08,0,0,1,.6-1.84l17.18-2.5a1.08,1.08,0,0,0,.81-.59L578,345.34A1.08,1.08,0,0,1,580,345.34Z"/><path class="cls-1" d="M370.84,76.79l6.65,13.47a.93.93,0,0,0,.7.51l14.87,2.16a.93.93,0,0,1,.52,1.59L382.81,105a.93.93,0,0,0-.27.82l2.54,14.81a.93.93,0,0,1-1.35,1l-13.3-7a.93.93,0,0,0-.87,0l-13.3,7a.93.93,0,0,1-1.35-1l2.54-14.81a.93.93,0,0,0-.27-.82L346.43,94.52a.93.93,0,0,1,.52-1.59l14.87-2.16a.93.93,0,0,0,.7-.51l6.65-13.47A.93.93,0,0,1,370.84,76.79Z"/><path class="cls-1" d="M710,190.49l4.75,9.63a.67.67,0,0,0,.5.36L725.92,202a.67.67,0,0,1,.37,1.14l-7.69,7.5a.67.67,0,0,0-.19.59l1.82,10.59a.67.67,0,0,1-1,.7l-9.51-5a.67.67,0,0,0-.62,0l-9.51,5a.67.67,0,0,1-1-.7l1.82-10.59a.67.67,0,0,0-.19-.59l-7.69-7.5A.67.67,0,0,1,693,202l10.63-1.54a.67.67,0,0,0,.5-.36l4.75-9.63A.67.67,0,0,1,710,190.49Z"/><path class="cls-1" d="M142.84,439.79l6.65,13.47a.93.93,0,0,0,.7.51l14.87,2.16a.93.93,0,0,1,.52,1.59L154.81,468a.93.93,0,0,0-.27.82l2.54,14.81a.93.93,0,0,1-1.35,1l-13.3-7a.93.93,0,0,0-.87,0l-13.3,7a.93.93,0,0,1-1.35-1l2.54-14.81a.93.93,0,0,0-.27-.82l-10.76-10.49a.93.93,0,0,1,.52-1.59l14.87-2.16a.93.93,0,0,0,.7-.51l6.65-13.47A.93.93,0,0,1,142.84,439.79Z"/><path class="cls-1" d="M396.62,342.46l4.95,10a.69.69,0,0,0,.52.38l11.07,1.61a.69.69,0,0,1,.38,1.18l-8,7.81a.69.69,0,0,0-.2.61l1.89,11a.69.69,0,0,1-1,.73l-9.9-5.2a.69.69,0,0,0-.65,0l-9.9,5.2a.69.69,0,0,1-1-.73l1.89-11a.69.69,0,0,0-.2-.61l-8-7.81a.69.69,0,0,1,.38-1.18l11.07-1.61a.69.69,0,0,0,.52-.38l4.95-10A.69.69,0,0,1,396.62,342.46Z"/><path class="cls-1" d="M712.62,489.46l4.95,10a.69.69,0,0,0,.52.38l11.07,1.61a.69.69,0,0,1,.38,1.18l-8,7.81a.69.69,0,0,0-.2.61l1.89,11a.69.69,0,0,1-1,.73l-9.9-5.2a.69.69,0,0,0-.65,0l-9.9,5.2a.69.69,0,0,1-1-.73l1.89-11a.69.69,0,0,0-.2-.61l-8-7.81a.69.69,0,0,1,.38-1.18l11.07-1.61a.69.69,0,0,0,.52-.38l4.95-10A.69.69,0,0,1,712.62,489.46Z"/><path class="cls-1" d="M425.42,509.81l3.35,6.79a.47.47,0,0,0,.35.26l7.49,1.09a.47.47,0,0,1,.26.8L431.45,524a.47.47,0,0,0-.13.42l1.28,7.46a.47.47,0,0,1-.68.49l-6.7-3.52a.47.47,0,0,0-.44,0l-6.7,3.52a.47.47,0,0,1-.68-.49l1.28-7.46a.47.47,0,0,0-.13-.42l-5.42-5.28a.47.47,0,0,1,.26-.8l7.49-1.09a.47.47,0,0,0,.35-.26l3.35-6.79A.47.47,0,0,1,425.42,509.81Z"/><path class="cls-1" d="M479.1,208.37l3.35,6.79a.47.47,0,0,0,.35.26l7.49,1.09a.47.47,0,0,1,.26.8l-5.42,5.28a.47.47,0,0,0-.13.42l1.28,7.46a.47.47,0,0,1-.68.49l-6.7-3.52a.47.47,0,0,0-.44,0l-6.7,3.52a.47.47,0,0,1-.68-.49l1.28-7.46a.47.47,0,0,0-.13-.42l-5.42-5.28a.47.47,0,0,1,.26-.8l7.49-1.09a.47.47,0,0,0,.35-.26l3.35-6.79A.47.47,0,0,1,479.1,208.37Z"/><path class="cls-1" d="M926.1,257.37l3.35,6.79a.47.47,0,0,0,.35.26l7.49,1.09a.47.47,0,0,1,.26.8l-5.42,5.28a.47.47,0,0,0-.13.42l1.28,7.46a.47.47,0,0,1-.68.49l-6.7-3.52a.47.47,0,0,0-.44,0l-6.7,3.52a.47.47,0,0,1-.68-.49l1.28-7.46a.47.47,0,0,0-.13-.42l-5.42-5.28a.47.47,0,0,1,.26-.8l7.49-1.09a.47.47,0,0,0,.35-.26l3.35-6.79A.47.47,0,0,1,926.1,257.37Z"/><path class="cls-1" d="M939.62,82.46l4.95,10a.69.69,0,0,0,.52.38l11.07,1.61a.69.69,0,0,1,.38,1.18l-8,7.81a.69.69,0,0,0-.2.61l1.89,11a.69.69,0,0,1-1,.73l-9.9-5.2a.69.69,0,0,0-.65,0l-9.9,5.2a.69.69,0,0,1-1-.73l1.89-11a.69.69,0,0,0-.2-.61l-8-7.81a.69.69,0,0,1,.38-1.18l11.07-1.61a.69.69,0,0,0,.52-.38l4.95-10A.69.69,0,0,1,939.62,82.46Z"/></svg>