<svg id="boat01" xmlns="http://www.w3.org/2000/svg" width="234" height="294" viewBox="0 0 234 294">
  <defs>
    <style>
      .cls-1 {
        fill: #ffde17;
      }
    </style>
  </defs>
  <title>06_star_twinkles</title>
  <g>
    <path class="cls-1" d="M112.29,114l10.66,21.6a1.49,1.49,0,0,0,1.12.82l23.84,3.46a1.49,1.49,0,0,1,.83,2.55l-17.25,16.81a1.49,1.49,0,0,0-.43,1.32l4.07,23.74a1.49,1.49,0,0,1-2.17,1.57l-21.32-11.21a1.49,1.49,0,0,0-1.39,0L88.93,185.92a1.49,1.49,0,0,1-2.17-1.57l4.07-23.74a1.49,1.49,0,0,0-.43-1.32L73.16,142.47a1.49,1.49,0,0,1,.83-2.55l23.84-3.46a1.49,1.49,0,0,0,1.12-.82L109.61,114A1.49,1.49,0,0,1,112.29,114Z"/>
    <g>
      <path class="cls-1" d="M135.78,120s.29-1.07.86-2.9,1.42-4.45,2.54-7.53c.55-1.55,1.15-3.22,1.84-5s1.37-3.61,2.14-5.51c1.53-3.8,3.24-7.82,5-11.81.9-2,1.79-4,2.71-5.93s1.82-3.86,2.72-5.7,1.8-3.6,2.66-5.28,1.68-3.25,2.47-4.69c1.55-2.9,2.92-5.27,3.91-6.93s1.58-2.58,1.58-2.58-.28,1.07-.86,2.9-1.42,4.45-2.53,7.54c-.55,1.55-1.15,3.22-1.84,5s-1.37,3.61-2.14,5.51S155.26,81,154.42,83s-1.72,4-2.6,6c-1.78,4-3.63,7.94-5.43,11.62-.89,1.84-1.8,3.6-2.66,5.28s-1.69,3.25-2.47,4.69c-1.55,2.9-2.92,5.27-3.9,6.93S135.78,120,135.78,120Z"/>
      <path class="cls-1" d="M54.21,215.7s.25-.57.75-1.52,1.24-2.28,2.19-3.82a99,99,0,0,1,7.76-10.67A98,98,0,0,1,74,190.1c1.34-1.22,2.51-2.19,3.36-2.85s1.36-1,1.36-1-.25.57-.75,1.52-1.24,2.28-2.19,3.82A98,98,0,0,1,68,202.25a99,99,0,0,1-9.06,9.59c-1.34,1.22-2.51,2.19-3.36,2.85S54.21,215.7,54.21,215.7Z"/>
      <path class="cls-1" d="M154,137.35s.5-.53,1.43-1.38,2.26-2.05,3.92-3.39A134.45,134.45,0,0,1,172,123.46a133,133,0,0,1,13.59-7.67c1.92-.95,3.57-1.65,4.73-2.13s1.86-.71,1.86-.71-.5.53-1.43,1.38-2.26,2.05-3.92,3.4a133,133,0,0,1-12.67,9.11,134.45,134.45,0,0,1-13.59,7.67c-1.92.95-3.56,1.66-4.73,2.13S154,137.35,154,137.35Z"/>
      <path class="cls-1" d="M93.71,111.88s-.19-.63-.44-1.74-.57-2.69-.87-4.59a111.67,111.67,0,0,1-1.19-14,110.51,110.51,0,0,1,.5-14c.21-1.91.45-3.51.65-4.63s.35-1.76.35-1.76.19.63.44,1.74.57,2.69.87,4.59a110.51,110.51,0,0,1,1.18,14,111.66,111.66,0,0,1-.5,14c-.21,1.91-.44,3.51-.64,4.63S93.71,111.88,93.71,111.88Z"/>
      <path class="cls-1" d="M108.2,271.18s-.2-.89-.46-2.46-.61-3.8-.91-6.49c-.67-5.37-1.16-12.55-1.35-19.73s0-14.37.36-19.77c.17-2.7.4-5,.59-6.53s.34-2.48.34-2.48.2.89.46,2.46.61,3.8.91,6.49c.67,5.37,1.16,12.55,1.34,19.73s0,14.37-.36,19.77c-.17,2.7-.4,4.95-.59,6.53S108.2,271.18,108.2,271.18Z"/>
      <path class="cls-1" d="M71.57,141.52s-.84-.36-2.27-1-3.45-1.7-5.82-3c-4.77-2.57-10.9-6.31-16.87-10.31s-11.74-8.28-15.91-11.73c-2.1-1.7-3.8-3.19-5-4.26s-1.83-1.71-1.83-1.71.84.36,2.27,1,3.45,1.7,5.82,3c4.77,2.56,10.9,6.31,16.86,10.32s11.74,8.29,15.91,11.73c2.1,1.7,3.8,3.19,5,4.25S71.57,141.52,71.57,141.52Z"/>
      <path class="cls-1" d="M151.13,232.41s-.4-.34-1-1-1.52-1.55-2.51-2.7a68.71,68.71,0,0,1-6.36-9,68,68,0,0,1-4.92-9.82c-.55-1.41-1-2.62-1.21-3.49s-.36-1.38-.36-1.38.41.34,1,1,1.52,1.55,2.51,2.7a68,68,0,0,1,6.36,9,68.72,68.72,0,0,1,4.91,9.82c.55,1.41,1,2.62,1.21,3.48S151.13,232.41,151.13,232.41Z"/>
      <path class="cls-1" d="M192.28,212.45s-.84-.36-2.27-1-3.45-1.7-5.82-3c-4.77-2.57-10.9-6.31-16.87-10.31s-11.74-8.28-15.91-11.73c-2.1-1.7-3.8-3.19-5-4.26s-1.83-1.71-1.83-1.71.84.36,2.27,1,3.45,1.7,5.82,3c4.77,2.56,10.9,6.31,16.86,10.32s11.74,8.29,15.91,11.73c2.1,1.7,3.8,3.19,5,4.25S192.28,212.45,192.28,212.45Z"/>
    </g>
  </g>
</svg>
