<svg id="boat01" xmlns="http://www.w3.org/2000/svg" viewBox="0 0 168.39 254.53"><defs><style>.cls-1{fill:#ffde17;}</style></defs><title>06_star_twinkles</title><path class="cls-1" d="M111.89,103.38l.39-1.2c.26-.78.61-1.94,1.11-3.39,1-2.91,2.4-7.06,4.21-12,.9-2.47,1.87-5.15,3-8S122.73,73,124,70s2.42-6.22,3.75-9.41l4-9.67,4.09-9.62c1.33-3.18,2.75-6.26,4.06-9.27s2.65-5.89,3.9-8.63,2.46-5.32,3.59-7.69C149.55,11,151.51,7,152.9,4.29S155.13,0,155.13,0s-.51,1.68-1.49,4.6-2.4,7.06-4.21,12c-.9,2.47-1.87,5.15-3,8s-2.18,5.79-3.4,8.84-2.42,6.22-3.75,9.4l-4,9.67-4.1,9.61c-1.34,3.18-2.75,6.26-4.06,9.27s-2.65,5.89-3.9,8.63-2.46,5.32-3.59,7.69c-2.24,4.76-4.2,8.68-5.59,11.42-.68,1.37-1.26,2.44-1.64,3.17Z"/><path class="cls-1" d="M.31,235.67s.72-1.14,2-3.09,3.22-4.71,5.59-8c1.18-1.63,2.46-3.39,3.86-5.22s2.84-3.79,4.39-5.75,3.12-4,4.79-6.08l5-6.21,5.13-6.12c1.68-2,3.42-4,5.05-5.86s3.27-3.7,4.81-5.41,3-3.31,4.39-4.78c2.74-2.95,5.09-5.34,6.75-7s2.65-2.59,2.65-2.59-.72,1.14-2,3.09-3.22,4.72-5.59,8C46,182.27,44.7,184,43.3,185.86s-2.84,3.79-4.4,5.75-3.11,4-4.79,6.08l-5,6.21L24,210c-1.68,2-3.42,4-5.05,5.86s-3.27,3.7-4.81,5.41-3,3.31-4.39,4.78C7,229,4.62,231.42,3,233.08S.31,235.67.31,235.67Z"/><path class="cls-1" d="M130.11,120.7s.5-.53,1.43-1.38,2.26-2.05,3.92-3.39a134.44,134.44,0,0,1,12.67-9.11,133,133,0,0,1,13.59-7.67c1.92-.95,3.57-1.65,4.73-2.13s1.86-.71,1.86-.71-.5.53-1.43,1.38-2.26,2.05-3.92,3.4a133,133,0,0,1-12.67,9.11,134.46,134.46,0,0,1-13.59,7.67c-1.92.95-3.56,1.66-4.73,2.13S130.11,120.7,130.11,120.7Z"/><path class="cls-1" d="M69.82,95.23s-.21-.89-.49-2.45-.67-3.79-1-6.47c-.75-5.36-1.35-12.53-1.65-19.7s-.26-14.37.06-19.77c.13-2.7.33-5,.49-6.53s.3-2.48.3-2.48.21.89.5,2.45.67,3.79,1,6.47c.75,5.36,1.35,12.53,1.64,19.7s.25,14.37-.06,19.77c-.13,2.7-.33,5-.49,6.53S69.82,95.23,69.82,95.23Z"/><path class="cls-1" d="M84.31,254.53s-.2-.89-.46-2.46-.61-3.8-.91-6.49c-.67-5.37-1.16-12.55-1.35-19.73s0-14.37.36-19.77c.17-2.7.4-5,.59-6.53s.34-2.48.34-2.48.2.89.46,2.46.61,3.8.91,6.49c.67,5.37,1.16,12.55,1.34,19.73s0,14.37-.36,19.77c-.17,2.7-.4,5-.59,6.53S84.31,254.53,84.31,254.53Z"/><path class="cls-1" d="M47.68,124.87s-.84-.36-2.27-1-3.45-1.7-5.82-3c-4.77-2.57-10.9-6.31-16.87-10.31S11,102.21,6.81,98.76c-2.1-1.7-3.8-3.19-5-4.26S0,92.8,0,92.8s.84.36,2.27,1,3.45,1.7,5.82,3C12.86,99.42,19,103.17,25,107.17s11.74,8.29,15.91,11.73c2.1,1.7,3.8,3.19,5,4.25S47.68,124.87,47.68,124.87Z"/><path class="cls-1" d="M127.24,215.76s-.4-.34-1-1-1.52-1.55-2.51-2.7a68.71,68.71,0,0,1-6.36-9,68,68,0,0,1-4.92-9.82c-.55-1.41-1-2.62-1.21-3.49s-.36-1.38-.36-1.38.41.34,1,1,1.52,1.55,2.51,2.7a68,68,0,0,1,6.36,9,68.71,68.71,0,0,1,4.91,9.82c.55,1.41,1,2.62,1.21,3.48S127.24,215.76,127.24,215.76Z"/><path class="cls-1" d="M168.39,195.8s-.84-.36-2.27-1-3.45-1.7-5.82-3c-4.77-2.57-10.9-6.31-16.87-10.31s-11.74-8.28-15.91-11.73c-2.1-1.7-3.8-3.19-5-4.26s-1.83-1.71-1.83-1.71.84.36,2.27,1,3.45,1.7,5.82,3c4.77,2.56,10.9,6.31,16.86,10.32s11.74,8.29,15.91,11.73c2.1,1.7,3.8,3.19,5,4.25S168.39,195.8,168.39,195.8Z"/></svg>