<svg id="Layer_1" data-name="Layer 1" xmlns="http://www.w3.org/2000/svg" xmlns:xlink="http://www.w3.org/1999/xlink" viewBox="0 0 260 168"><defs><style>.cls-1{fill:none;}.cls-2{fill:#7e7c7b;stroke:#58595b;stroke-miterlimit:10;stroke-width:0.24px;}.cls-3{clip-path:url(#clip-path);}.cls-4{fill:#706f6e;}.cls-5{fill:#fff3ce;}.cls-6{fill:#adaba9;}</style><clipPath id="clip-path"><path class="cls-1" d="M145.57,111.5c.88.55,4,2.53,5.63,1.13s.05-1.81-.25-3.74-1.11-3.28-1.23-11.71c-.31-5.79-4.2-12.65-11.37-14.66-3.57-1.43-10.72-3.68-12.83,6.61-1,7.79,5.14,13.63,10.26,15.7C139.45,107,142.74,109.73,145.57,111.5Z"/></clipPath></defs><path class="cls-2" d="M145.57,111.5c.88.55,4,2.53,5.63,1.13s.05-1.81-.25-3.74-1.11-3.28-1.23-11.71c-.31-5.79-4.2-12.65-11.37-14.66-3.57-1.43-10.72-3.68-12.83,6.61-1,7.79,5.14,13.63,10.26,15.7C139.45,107,142.74,109.73,145.57,111.5Z"/><g class="cls-3"><path class="cls-4" d="M150.38,110.59c-.68-1.45-1.62-2.78-2.3-4.23-1.31-2.8-1.61-5.94-2.16-9s-1.44-6.18-3.6-8.38-5-3.08-7.46-4.77a3.49,3.49,0,0,1-1.79-2.55,2.51,2.51,0,0,1,1.31-2.11,5.45,5.45,0,0,1,2.49-.64,16.75,16.75,0,0,1,8.76,2.12,32.87,32.87,0,0,1,7.22,5.54c3.66,3.57,7,8,7.17,13.11a14.64,14.64,0,0,1-1.72,7c-.62,1.21-1.67,2.14-2.31,3.32a12,12,0,0,1-2.27,3.59C151.35,115.75,151,111.92,150.38,110.59Z"/></g><path class="cls-5" d="M130.33,98.73c1.82.44,3.11,1.23,5.95.26s5.37-2.47,6.62-5.93.29-7.07-2.14-8.71-7.82-4.17-10.53-2.06-4.62,5.46-4.13,11.16C126.54,95.65,128.69,98.33,130.33,98.73Z"/><path class="cls-4" d="M142.72,100.06c-1.38,1.13-4.3,3.11-7.42,2.78a.11.11,0,0,1,0-.21,60.35,60.35,0,0,0,7.33-2.74A.1.1,0,0,1,142.72,100.06Z"/><path class="cls-4" d="M146.3,104.52a8,8,0,0,1-6.24,2.15.08.08,0,0,1,0-.16,41.93,41.93,0,0,0,6.15-2.13A.09.09,0,0,1,146.3,104.52Z"/><path class="cls-4" d="M147.43,109l-.3.07a.56.56,0,0,0-.2.11.41.41,0,0,0-.15.17.36.36,0,0,0-.07.22.39.39,0,0,0,0,.24l.06.14a.56.56,0,0,0,.21.22l.14.06a.58.58,0,0,0,.32,0l.3-.08a.35.35,0,0,0,.2-.1.52.52,0,0,0,.16-.17.44.44,0,0,0,.07-.22.49.49,0,0,0,0-.24l-.06-.15a.63.63,0,0,0-.22-.21l-.14-.06a.58.58,0,0,0-.32,0Z"/><path class="cls-4" d="M144.64,101.15a.6.6,0,0,0,0-1.2.6.6,0,0,0,0,1.2Z"/><path class="cls-4" d="M144,96a.6.6,0,0,0,0-1.19A.6.6,0,0,0,144,96Z"/><path class="cls-6" d="M142.3,103.09l-.46.12a.27.27,0,0,0-.14.07.43.43,0,0,0-.11.12.38.38,0,0,0-.05.15.33.33,0,0,0,0,.17.47.47,0,0,0,.19.25l.1,0a.41.41,0,0,0,.22,0l.46-.12a.37.37,0,0,0,.14-.07.43.43,0,0,0,.11-.12.28.28,0,0,0,0-.15.33.33,0,0,0,0-.17.48.48,0,0,0-.19-.25l-.1,0a.41.41,0,0,0-.22,0Z"/><path class="cls-4" d="M139.43,98.11l-.74.19a.56.56,0,0,0-.2.11.44.44,0,0,0-.16.17.57.57,0,0,0-.07.22.65.65,0,0,0,0,.24.6.6,0,0,0,.74.42l.74-.19a.53.53,0,0,0,.21-.11.5.5,0,0,0,.15-.17.44.44,0,0,0,.07-.22.39.39,0,0,0,0-.24.59.59,0,0,0-.74-.42Z"/><path class="cls-4" d="M146.16,107.41l-.22-.26a.44.44,0,0,0-.19-.12.4.4,0,0,0-.24,0,.39.39,0,0,0-.23,0,.44.44,0,0,0-.19.12l-.09.12a.58.58,0,0,0-.08.31l0,.16a.61.61,0,0,0,.15.26l.23.26a.39.39,0,0,0,.19.12.55.55,0,0,0,.46,0,.35.35,0,0,0,.19-.12l.1-.12a.68.68,0,0,0,.08-.31l0-.16a.54.54,0,0,0-.16-.26Z"/><path class="cls-6" d="M135.48,100.33l-.42-.06a.5.5,0,0,0-.24.06.44.44,0,0,0-.19.12.39.39,0,0,0-.12.19.37.37,0,0,0,0,.23l0,.16a.65.65,0,0,0,.15.27l.12.09a.58.58,0,0,0,.31.08l.42.06a.64.64,0,0,0,.24,0,.59.59,0,0,0,.19-.13.39.39,0,0,0,.12-.19.37.37,0,0,0,.05-.23l0-.16a.72.72,0,0,0-.15-.27l-.12-.09a.68.68,0,0,0-.31-.08Z"/></svg>