<svg id="Layer_1" data-name="Layer 1" xmlns="http://www.w3.org/2000/svg" viewBox="0 0 356.15 226.54"><defs><style>.cls-1{fill:#db9a00;}.cls-2{fill:#262626;}.cls-3{fill:#00a6b2;}.cls-4{fill:#da9b03;}.cls-5{fill:#2a2825;}.cls-6{fill:#d79d0b;}.cls-7{fill:#bda93c;}.cls-8{fill:#fefefe;}.cls-9{fill:#ae9f2b;}.cls-10{fill:#17595e;}.cls-11{fill:#fdfdfd;}</style></defs><title>16_the_happy_fish_dances</title><path class="cls-1" d="M229.94,67.34a16.46,16.46,0,0,0,2.35,2c.74.33,1.12,1.13,1.88,1.42.31.28.25,1,.93.84a4.12,4.12,0,0,0,1.6,1.44c.56,1.22,1.75,1.86,2.63,2.79a104.57,104.57,0,0,1,9.62,11.26c.23,2.43,1,4.76,1.18,7.21.08,1.28.16,1.34,1.34.75,4.81-2.39,9.72-4.59,14.62-6.77C275.68,84,285.35,80,295.17,76.2c8.57-3.28,17.22-6.34,26-9q7-2.11,14.19-3.72a140.63,140.63,0,0,1,14-2.38,11.49,11.49,0,0,1,5.61.32,72.34,72.34,0,0,1-2.34,9.32,79.07,79.07,0,0,1-5.39,12.91c-.24.31-.26.73-.55,1l-4.74,8c-2.85,0-5.67-.52-8.53-.44-4.64.14-9.29.17-13.93.39-4,.18-8,.56-11.94.77-5.36.28-10.7.94-16,1.5-3.07.32-6.17.43-9.22.95-4.64.79-9.34,1-14,1.75-3.94.61-7.9,1.1-11.83,1.77-2,.34-4,.64-6,1.15a1.47,1.47,0,0,0-1.24,1.33c-.52,3-.58,3,2,4.6,3.8,2.26,7.61,4.5,11.45,6.69,3.67,2.09,7.26,4.33,11,6.38,4.11,2.29,8.21,4.59,12.33,6.87s8.36,4.52,12.58,6.68c4.61,2.35,9.25,4.69,14.06,6.61a24.74,24.74,0,0,0,6.54,2,1.77,1.77,0,0,1,1.07.36c.64,4.51,1,9.06,1.38,13.6.15,1.63,0,3.28.33,4.9.12.47.17.95.26,1.42a16.64,16.64,0,0,0,.25,4.43,2,2,0,0,0,.05,1.21l.05,3.89a13.36,13.36,0,0,0,.2,1.36c-.18,4.14.14,8.28.15,12.43a83.74,83.74,0,0,1-1.84,17.08c-.22,1.06-.63,2.07-.95,3.1-1.07-.14-1.54-1.06-2.13-1.75-4.72-5.53-9.6-10.93-14.31-16.48-4.19-4.93-8.2-10-12.34-15-3.23-3.88-6.31-7.87-9.33-11.89-3.77-5-7.52-10.06-11.11-15.21-4.27-6.13-8.4-12.35-12.29-18.72-1.53-2.51-3-5.09-4.46-7.62-2-3.47-4.43-6.72-6.59-10.42-.48,1.72-1.34,3-1.73,4.47-.16.59-.31,1.24-1.15,1.23a2.43,2.43,0,0,0-3.39-1,60.31,60.31,0,0,0-11.77,7.45c-2.25,1.78-4.59,3.44-6.81,5.25-1.81,1.48-3.49,3.12-5.23,4.68-2.61,2.35-5.32,4.6-7.8,7.09-2.86,2.86-6,5.5-8.3,8.87a62.06,62.06,0,0,1-4.18,4.91,7.63,7.63,0,0,1-1.54,1.64c-1.95,1.91-3.63,4.09-5.73,5.84-3,2.53-6,5.22-9.21,7.47-3,2.06-6,4.17-9.14,5.92s-6.66,3.4-10.1,4.91a119.21,119.21,0,0,1-14.21,5.05c-2.61.77-5.24,1.39-7.9,1.91a5,5,0,0,0-1,.28l-5.44.84c-.43.18-.93.1-1.34.34-3.23.31-6.46.73-9.7.92a119.8,119.8,0,0,1-15-.32A136.1,136.1,0,0,1,89.15,184c-4.29-.86-8.63-1.56-12.84-2.82-1.69-.5-3.4-.9-5.11-1.35a3.48,3.48,0,0,0-.83-.34A174.52,174.52,0,0,1,45.13,170c-.28-.41-.78-.41-1.16-.64l-1.54-.64c-.27-.42-.8-.4-1.16-.66a94.83,94.83,0,0,1-8.62-4.41c-2.91-1.61-5.79-3.26-8.69-4.89a4,4,0,0,0-1.35-.58c-2.82-.53-5.7-.87-8.46-1.65s-6-.82-8.63-2.32C1.4,151.92-.86,148,2.67,143.67a4.7,4.7,0,0,0,1.1-2.09.68.68,0,0,1,.51-.21c2.78.21,5.47-.43,8.19-.83a29.55,29.55,0,0,0,8.89-2.79,53.5,53.5,0,0,1-13.13,3.17,19.83,19.83,0,0,1-4.53-.2c-3.58-3.39-5-9.81-2.23-14.07.46-.7,1-1.37,1.39-2.12s1.14-1,1.4-1.81l.9-1c.51-.18.68-.76,1.16-1,1.67-1.68,3.75-3,5-5.05,1-1.71,1.84-3.54,2.87-5.24a136.83,136.83,0,0,1,9.32-13.87c.27-.54.87-.84,1.07-1.44l.67-.82c.13-.52.72-.73.83-1.26,3.28-3.64,6.41-7.43,9.9-10.85a110,110,0,0,1,8.54-7.88,8.52,8.52,0,0,0,.91-1c.4-.13.62-.51,1-.7,2.83-2,5.43-4.32,8.34-6.22s5.61-3.67,8.55-5.27c2.16-1.17,4.25-2.47,6.46-3.53,2.55-1.23,5.19-2.29,7.8-3.41a123.07,123.07,0,0,1,13.93-4.67c2.74-.81,5.52-1.46,8.3-2.09a4.52,4.52,0,0,0,2.56-1.33A3.24,3.24,0,0,1,104,44.68,81,81,0,0,1,118.14,39a151.82,151.82,0,0,1,17.5-4.57,184.4,184.4,0,0,1,19.15-2.73,131.88,131.88,0,0,1,17.08-.38c1.33,0,2.65.29,4,.4.37,0,.77.06,1,.49a37.35,37.35,0,0,0-1.65,10.07c0,.92.17,1.42,1.3,1.65a106.29,106.29,0,0,1,12.76,3.26,144.11,144.11,0,0,1,16.18,6.28c2.33,1.11,4.72,2.11,7,3.27,3.23,1.62,6.53,3.15,9.56,5.08,2.28,1.45,4.52,3,6.69,4.67C229.21,66.64,229.41,67.25,229.94,67.34Z"/><path class="cls-2" d="M320.23,142c-2.89.17-5.42-1.17-8-2.1s-4.78-2.14-7.14-3.27c-3.16-1.5-6.31-3-9.38-4.69-2.58-1.41-5.24-2.68-7.81-4.12-4-2.21-7.94-4.35-11.89-6.58s-8-4.56-12-6.87c-5.08-3-10.14-5.95-15.22-8.92a.9.9,0,0,1-.49-1.27,6.35,6.35,0,0,0,.52-2.34c-.07-1.2.48-1.51,1.51-1.7,4.45-.84,8.91-1.59,13.4-2.22,5.24-.73,10.48-1.36,15.72-2s10.61-1.2,15.92-1.74q9.3-.95,18.62-1.56c5.85-.38,11.7-.67,17.57-.72,2.83,0,5.64.09,8.45.31.64.05,1.35-.06,1.89.46-2.55,4.08-5.69,7.72-8.47,11.63-.2.81-1.12,1.11-1.35,1.91-2.71,2.95-4.82,6.38-7.57,9.29a4.36,4.36,0,0,1-1.32,1.48,35.52,35.52,0,0,1-3.06,3.25,4.51,4.51,0,0,0-1.59,4.46c.24,1.79.29,3.61.43,5.41.11.46.13.94.27,1.4-.32,2.07.57,4,.67,6,.21.45.09,1,.3,1.41C320.09,140,321.29,141,320.23,142Z"/><path class="cls-3" d="M244.67,114.05a2.28,2.28,0,0,0,.79-1.11c.53-1.55,1.12-3.09,1.7-4.62.07-.19,0-.5.34-.55s.33.27.44.45c1.74,3.08,3.74,6,5.65,9s3.64,6.13,5.48,9.19c3.24,5.39,6.73,10.61,10.28,15.81,3.88,5.69,8,11.22,12.1,16.73s8.33,10.84,12.64,16.15,8.81,10.73,13.37,16c4.2,4.82,8.44,9.6,12.66,14.4-.88,7.4-3.39,14.07-8.67,19.51-.54.08-.64.73-1.13.88-.92.51-1.84,1.38-2.73,0-.77-.42-1.21-1.26-2.05-1.59a97.08,97.08,0,0,1-9.29-9.7c-4.63-5.5-9-11.21-13.22-17.05-3.46-4.81-6.81-9.69-10.19-14.56-2.82-4.06-5.46-8.23-8.43-12.19a70,70,0,0,1-6.46-10.92,129.45,129.45,0,0,1-7-16.68c-.7-2.1-1.37-4.23-1.89-6.4-.41-1.73-1-3.43-1.36-5.19-.17-.28-.1-.64-.32-.9-.49-2.38-.94-4.78-1.47-7.15-.59-2.62-.8-5.28-1.32-7.89A6.15,6.15,0,0,1,244.67,114.05Z"/><path class="cls-3" d="M355,61.44c-5.67-.31-11.18.72-16.7,1.82q-5.81,1.16-11.51,2.73c-4.06,1.11-8.1,2.29-12.07,3.71-3,1.09-6.15,2-9.19,3.07q-6.19,2.2-12.32,4.56-5.07,1.95-10.07,4.06-7.29,3.07-14.53,6.24c-4.39,1.93-8.75,3.91-13.11,5.9-1.82.83-3.62,1.71-5.53,2.62a38.72,38.72,0,0,0-1.21-7.55c-.15-.57.19-1,.23-1.48,1.19-.36,1.82-1.47,2.7-2.21a243,243,0,0,1,21.62-16.45,218.24,218.24,0,0,1,22.06-13.25c.45-.23.69-.82,1.31-.76a10.5,10.5,0,0,0,1.16-.67,98.66,98.66,0,0,1,12.66-6c4.28-1.79,8.66-3.28,13.07-4.71,1-.34,2.13-.46,3.13-.89a134.46,134.46,0,0,1,13.64-2.82c3.78-.54,7.55-.65,11.34-.84a2.22,2.22,0,0,1,1.91.76,8.59,8.59,0,0,1,.84,1.48,25.15,25.15,0,0,1,1.51,6.85c.12.47.16.94.26,1.41-.14,3-.1,6-.44,9A20.05,20.05,0,0,1,355,61.44Z"/><path class="cls-3" d="M189.45,11.53l-2.84,3.08A79.33,79.33,0,0,0,174.18,16c-5.23.87-10.46,1.8-15.61,3.08s-10.48,2.67-15.63,4.32a145.11,145.11,0,0,0-19.59,7.71,84.85,84.85,0,0,0-13.53,8.12,62.86,62.86,0,0,0-6.07,5.58c-.38.36-.69.81-1.31.71a20.54,20.54,0,0,1,3.24-6.42c3.45-5.18,8.25-9,13.24-12.52.64-.46,1.52-.56,1.94-1.33.44,0,.59-.52,1-.6,1.82-.69,3.34-1.93,5.09-2.79,3-1.46,5.88-3,8.87-4.35,3.64-1.69,7.3-3.32,11-4.74,3.51-1.33,7-2.68,10.57-3.92,3.39-1.18,6.81-2.27,10.25-3.31,2.51-.76,5.05-1.42,7.6-2,3.15-.74,6.32-1.38,9.48-2.07a4.51,4.51,0,0,0,1-.29l2.22-.27c.45-.16.95-.14,1.4-.3A73.26,73.26,0,0,1,198.09,0a11.87,11.87,0,0,1,1.5.12,1.16,1.16,0,0,1,1.05.76c.15.54-.39.66-.77.94a51.27,51.27,0,0,0-8.81,7.91A5,5,0,0,0,189.45,11.53Z"/><path class="cls-2" d="M102.44,45.54c1.15-.43,1.66-1.55,2.45-2.36a61.07,61.07,0,0,1,15.7-11.11,130,130,0,0,1,16-6.87c5.58-2,11.28-3.72,17-5.23,4.1-1.08,8.24-2,12.42-2.8C172,16,178.12,15,184.25,14.37a3.49,3.49,0,0,1,2.36.24c-4,5.26-7.49,10.82-9.43,17.22,0,.16-.24.28-.36.42A92.76,92.76,0,0,0,155.88,32c-3.2.29-6.4.56-9.59,1-4.95.71-9.84,1.66-14.72,2.77-2.84.65-5.65,1.38-8.46,2.16a119.69,119.69,0,0,0-13.68,4.64,34.77,34.77,0,0,0-7.1,3.6C102.11,45.91,102.53,45.77,102.44,45.54Z"/><path class="cls-4" d="M353.31,39.4a3.19,3.19,0,0,0-2.09-.53,80.88,80.88,0,0,0-13,1.06,62.69,62.69,0,0,0-9.36,2,18.31,18.31,0,0,1-2.24.41c-.18.08-.36.13-.5,0s0-.24.12-.29c3.46-1.15,7-1.84,10.57-2.73.45-.2,1-.15,1.41-.32l1.8-.26c.43-.18.93-.1,1.34-.34,2.53-.27,5.05-.6,7.59-.79a22,22,0,0,1,3.4.18c1.14.09,1.72.68,1.53,1.88C353.67,39.71,353.54,39.43,353.31,39.4Z"/><path class="cls-5" d="M3.7,140.71c.37-.33.79-.2,1.22-.17,4.35.29,8.49-.69,12.61-1.92,1.57-.47,3.11-1,4.67-1.57-.66,2.31-12.75,5.25-18.43,4.53Z"/><path class="cls-6" d="M326.29,42c-.07.33.23.24.38.33-1.86.6-3.72,1.19-5.57,1.8A131.74,131.74,0,0,0,307,49.58c-3.09,1.43-6.17,2.88-9.25,4.32l-.11-.12a33.68,33.68,0,0,1,7-3.8,132.94,132.94,0,0,1,13.83-5.56A56.89,56.89,0,0,1,326.29,42Z"/><path class="cls-7" d="M353.31,39.4l.62.24c.54.21.52.64.45,1.1C353.78,40.49,353.77,39.77,353.31,39.4Z"/><path class="cls-8" d="M305.53,224.18c1,.18,1.36,1.07,2.05,1.59C306.68,225.53,306.22,224.7,305.53,224.18Z"/><path class="cls-8" d="M195.65,152.95l1.54-1.64A2.59,2.59,0,0,1,195.65,152.95Z"/><path class="cls-8" d="M323.24,117l1.32-1.48A1.91,1.91,0,0,1,323.24,117Z"/><path class="cls-8" d="M320.26,139c-.46-.39-.31-.92-.3-1.41A1.3,1.3,0,0,1,320.26,139Z"/><path class="cls-8" d="M322.5,167.56c-.23-.39-.49-.79-.05-1.21A1.73,1.73,0,0,1,322.5,167.56Z"/><path class="cls-8" d="M322.76,172.81a1.46,1.46,0,0,1-.2-1.36A1.33,1.33,0,0,1,322.76,172.81Z"/><path class="cls-8" d="M319.29,131.53a2.14,2.14,0,0,1-.27-1.4A1.37,1.37,0,0,1,319.29,131.53Z"/><path class="cls-8" d="M322.2,161.92c-.4-.42-.28-.93-.26-1.42A1.29,1.29,0,0,1,322.2,161.92Z"/><path class="cls-8" d="M310.31,225.81c.4-.26.5-.91,1.13-.88C311.08,225.24,310.9,225.79,310.31,225.81Z"/><path class="cls-8" d="M247.4,130.59a.75.75,0,0,1,.32.9C247.06,131.39,247.51,130.89,247.4,130.59Z"/><path class="cls-9" d="M297.63,53.78l.11.12a1.08,1.08,0,0,1-1.11.56A1.31,1.31,0,0,1,297.63,53.78Z"/><path class="cls-3" d="M184.76,155.16c.1,1.2-.74,2.1-1,3.17-.12.45-.56.43-.95.46-2.35.24-4.69.58-7,.73-8.18.55-16.35.68-24.42-1.1a38.2,38.2,0,0,1-14.56-6.2,35,35,0,0,1-11.2-13.82,16.19,16.19,0,0,1-1.28-5.84,5.25,5.25,0,0,1,2.36-4.57c1.51-1.22,3-2.45,4.65-3.52a8.68,8.68,0,0,1,3.45-1.06,49.46,49.46,0,0,1,19.14.62,96.31,96.31,0,0,1,11.92,3.26c4.66,1.66,9.41,3.18,13.61,5.95,2.58,1.7,3.56,4.38,4.57,7a18.38,18.38,0,0,1,1.36,5.28,7.81,7.81,0,0,1-3.74,1.66,32.3,32.3,0,0,1-14.81-.12,85.91,85.91,0,0,1-12.17-4c-2.69-1.09-5.23-2.48-7.83-3.76a2.64,2.64,0,0,1-.7-.56,42.8,42.8,0,0,0,7.69,5.52,41.23,41.23,0,0,0,22.2,5.2,29.4,29.4,0,0,0,7.55-1.23,2.4,2.4,0,0,1,1.8-.12c.48,1.65-.05,3.26-.21,4.89a28.26,28.26,0,0,1-6.31.75,76.11,76.11,0,0,1-13.62-.65,65.75,65.75,0,0,1-22.85-7.48,43.47,43.47,0,0,1-8.23-5.28c-.32-.29-.57-.63-.89-.9-.16-.21-.41-.34-.47-.45a3.14,3.14,0,0,1,.37.37,50,50,0,0,0,10.57,8.35c8,4.59,16.68,6.68,25.79,7.37a67.92,67.92,0,0,0,14.07-.19A1.37,1.37,0,0,1,184.76,155.16Z"/><path class="cls-2" d="M48.63,98.27a18.92,18.92,0,0,1,26.93-.91c7.8,7.56,8.11,19.13.66,26.89s-18.87,8.19-27,.45A18.88,18.88,0,0,1,48.63,98.27Z"/><path class="cls-2" d="M100.18,163.31c1.51-2.62,2.93-5,4.3-7.45a106.64,106.64,0,0,0,7.4-15.36,82.55,82.55,0,0,0,4-16.38A74.1,74.1,0,0,0,116.8,113a48.73,48.73,0,0,0-5.29-23A40.09,40.09,0,0,0,99.6,76.22,41.42,41.42,0,0,0,84.54,69.1c-1.88-.45-2.54-1.66-1.92-3.49a1.08,1.08,0,0,1,1.53-.78,48.09,48.09,0,0,1,17.74,9.31,46.74,46.74,0,0,1,12.25,16.49,49.88,49.88,0,0,1,4.61,18.1,79.53,79.53,0,0,1-.9,14.85,83.65,83.65,0,0,1-2.19,11.22,74.4,74.4,0,0,1-6.28,15.94,48.81,48.81,0,0,1-6.47,9.76C102.06,161.41,101.48,162.57,100.18,163.31Z"/><path class="cls-2" d="M133.25,139.32a55.54,55.54,0,0,0,11.35,7.13,68.32,68.32,0,0,0,28.15,7,77.43,77.43,0,0,0,10.83-.43c.51,0,1,0,1.55,0a2.57,2.57,0,0,1-.37,2.13,67.84,67.84,0,0,1-16.36.32,63.69,63.69,0,0,1-14.31-2.81,52.18,52.18,0,0,1-8.36-3.36,43.78,43.78,0,0,1-7.61-4.88A36.32,36.32,0,0,1,133,139.5Q133,139.22,133.25,139.32Z"/><path class="cls-2" d="M185.33,148.14c-15.14,4.69-31.42-.74-40-10,1.65.85,3.35,1.62,5,2.47a69.48,69.48,0,0,0,8.62,3.74,49.79,49.79,0,0,0,12.8,3.16c4.48.36,8.91.13,13.06-1.88a2.12,2.12,0,0,1,.55-.1C185.41,146.42,185.91,147.28,185.33,148.14Z"/><path class="cls-10" d="M133.25,139.32l-.27.18c-.2-.43-.94-.43-.93-1.14A3.2,3.2,0,0,1,133.25,139.32Z"/><path class="cls-8" d="M73.6,121.47a15.32,15.32,0,1,1-1-21.6A15.28,15.28,0,0,1,73.6,121.47Z"/><path class="cls-2" d="M52,103.42a12.89,12.89,0,1,1,19.93,16.31A12.89,12.89,0,0,1,52,103.42Z"/><path class="cls-11" d="M60.08,111.56c-1.14,1.45-3.58,1.84-4.85.63-1.64-1.54-1.85-3.17-.41-5.11.89-1.2,3.5-1.41,4.67-.47A3.58,3.58,0,0,1,60.08,111.56Z"/><path d="M2.19,139.71s.45,0,1.32,0,2.09-.07,3.56-.18a65.73,65.73,0,0,0,10.74-1.65c1-.25,1.91-.51,2.84-.81s1.83-.62,2.68-1a23.78,23.78,0,0,0,4.47-2.39,15,15,0,0,0,1.6-1.26,13.38,13.38,0,0,0,1.12-1.11c.3-.32.49-.61.65-.79l.22-.29-.19.31c-.13.2-.29.51-.55.87a13.71,13.71,0,0,1-1,1.26,15.44,15.44,0,0,1-1.47,1.49,24.71,24.71,0,0,1-4.29,3c-.84.49-1.73.93-2.65,1.36s-1.87.82-2.83,1.2a68.41,68.41,0,0,1-10.89,3.09c-1.52.3-2.79.52-3.69.65s-1.44.19-1.44.19Z"/></svg>