<svg id="bg" xmlns="http://www.w3.org/2000/svg" xmlns:xlink="http://www.w3.org/1999/xlink" viewBox="0 0 1024 600"><defs><style>.cls-1{fill:none;}.cls-2{clip-path:url(#clip-path);}.cls-3{fill:#e1bd6c;}.cls-4{clip-path:url(#clip-path-2);}.cls-5{fill:url(#linear-gradient);}.cls-6{fill:#637332;}.cls-7{fill:#4b3320;}.cls-8{fill:#647432;}.cls-9{fill:#37461e;}.cls-10{fill:#38471e;}.cls-11{fill:#dcd9cf;}.cls-12{fill:#5e4b34;}.cls-13{fill:#fff;}.cls-14{clip-path:url(#clip-path-3);}.cls-15{fill:#9c865f;}.cls-16{fill:#bca37a;}.cls-17{fill:#ffe6bc;}.cls-18{fill:#6a503c;}.cls-19{fill:#944a11;}</style><clipPath id="clip-path"><rect id="SVGID" class="cls-1" width="1024" height="600"/></clipPath><clipPath id="clip-path-2"><polygon id="SVGID-2" data-name="SVGID" class="cls-1" points="139.51 177.59 -108.08 177.59 -108.08 -51.16 135.31 -54.28 139.51 177.59"/></clipPath><linearGradient id="linear-gradient" x1="291" y1="427.13" x2="291" y2="-337.02" gradientUnits="userSpaceOnUse"><stop offset="0" stop-color="#f15a24"/><stop offset="0.03" stop-color="#e65a2a"/><stop offset="0.18" stop-color="#aa5b4b"/><stop offset="0.33" stop-color="#765b68"/><stop offset="0.48" stop-color="#4c5b7f"/><stop offset="0.63" stop-color="#2b5c91"/><stop offset="0.76" stop-color="#135c9e"/><stop offset="0.89" stop-color="#055ca6"/><stop offset="1" stop-color="#005ca9"/></linearGradient><clipPath id="clip-path-3"><rect id="SVGID-3" data-name="SVGID" class="cls-1" x="-248.68" y="-109.07" width="1383.37" height="778.14"/></clipPath></defs><title>20_Akili&amp;apos;s_house_bg</title><g class="cls-2"><path class="cls-3" d="M-248.68-109.07V669.07H1134.68V-109.07Z"/><g class="cls-4"><rect class="cls-5" x="-221" y="-250" width="1024" height="600"/><path class="cls-6" d="M228.12,87.58c-1-.43-1.94-.87-2.91-1.29a13.39,13.39,0,0,1-3.09-1.71,6.29,6.29,0,0,0,4.54,4.71l1.06.51V90h-2.1c-1.44-.17-2.87-.37-4.32-.51a6.16,6.16,0,0,1-2.17-.67c-1.42-.69-2.14-.17-2.08,1.45,0,.39.05.79.05,1.18,0,.18,0,.41-.25.49s-.36-.11-.49-.25a6.9,6.9,0,0,1-1.53-2.84c-.13-.55-.41-.65-.87-.6a2.34,2.34,0,0,0-2,1.37,5,5,0,0,1-3.78,2.64c-.66.14-.93-.19-.7-.89.3-.9.71-1.76,1.05-2.64a12.84,12.84,0,0,0,.52-1.59c.11-.47-.09-.79-.61-.7a2.49,2.49,0,0,1-1.84-.49c-.92-.6-1.65.08-2.41.5a20.57,20.57,0,0,1-3.81,1.69,14.68,14.68,0,0,1-1.44.29c-.32,0-.8.22-.95-.2s.29-.55.52-.77.56-.45.8-.71c.52-.56.44-1-.24-1.29-.24-.12-.51-.19-.76-.3s-.54-.11-.52-.44.31-.36.53-.46a23.61,23.61,0,0,1,3-.86,2.49,2.49,0,0,0,.91-.33,1.71,1.71,0,0,0,.4,0c.3-.1.71-.15.71-.55s-.41-.42-.73-.46c-1.35-.64-2.75-.32-4.13-.25a5,5,0,0,0-.56.1,9.3,9.3,0,0,0-2.63.52c-2.44.95-4.78.42-7.13-.35-.18-.61.36-.56.62-.62,1.08-.23,2.17-.39,3.26-.58.18,0,.37,0,.49-.16h0c.57,0,1.21.06,1.46-.71-.05-.06-.09-.15-.15-.19-1.06-.85-1.06-1.27.07-2a9,9,0,0,1,3.48-1.43,7.1,7.1,0,0,0,2.95-1.19c.72-.52.72-.82.11-1.46a3.73,3.73,0,0,1-.47-.58,1.41,1.41,0,0,1-.13-1.51,1.26,1.26,0,0,1,1.4-.47,8,8,0,0,1,2,.7,9.62,9.62,0,0,0,4,1c.35,0,.75,0,.92-.41a.82.82,0,0,0-.31-.89,69.65,69.65,0,0,0-5.41-4.91,2.23,2.23,0,0,0-2.42-.13c-1,.47-1.31.36-2-.58-.42-.58-.77-1.25-1.57-1.38a1.91,1.91,0,0,0-1.71,0,2.81,2.81,0,0,0-1.42.34,4.56,4.56,0,0,1-5-.85,3.62,3.62,0,0,0-4.06-.79,11.11,11.11,0,0,1-7.48-.11,2,2,0,0,0-1.35-.22,5.84,5.84,0,0,0-2.69-.56c-1.34-.06-2.56.09-3.34,1.45-.37.64-1,.57-1.62.3-.74-.35-1.46-.76-2.18-1.16a2,2,0,0,0-2.7.26,7.45,7.45,0,0,1-2.13,1.41c-.25.11-.57.38-.82.08s0-.58.16-.85c.28-.61.63-1.18.87-1.81a1.28,1.28,0,0,0-.06-1.36,1.09,1.09,0,0,0-1.31-.15,1.24,1.24,0,0,1-1.63-.55c-1.07-1.47-2.07-1.21-3.34-.39-.53.34-.6.72-.23,1.26a8.74,8.74,0,0,1,1.37,4.43c0,.3.08.67-.25.83s-.58-.09-.82-.27a21.26,21.26,0,0,1-2.18-2.17,3.7,3.7,0,0,0-2-1.18c-.95-.53-1.41-.37-1.76.67a1.15,1.15,0,0,1-.6.74c-.29.16-.85,0-.86.46s.43.67.84.8A12.34,12.34,0,0,0,150,66.55a6.91,6.91,0,0,1,1,1,1.09,1.09,0,0,1,0,.85c-1,.52-2.05.16-3.08.16a6.93,6.93,0,0,1-3.54-2.82c-.28-.4-.59-1-1.22-.69a1.52,1.52,0,0,0-.74,1.65,3.19,3.19,0,0,0,1.46,2c.28.21.68.26.85.83a27.3,27.3,0,0,1-6.35-.55,6.69,6.69,0,0,0-2.26-1.1.8.8,0,0,0-.93.36c-.38.61-.6.29-.73-.16-.28-.94-.49-1.9-.78-2.83-.12-.4-.23-1-.8-.9s-.71.63-.77,1.16a9,9,0,0,0,.25,2.59c.44,2.36,0,2.87-2.29,2.94h-.17c-2,0-2.52-.73-1.77-2.65a20.56,20.56,0,0,0,1.29-4c.05-.28.11-.58-.14-.78s-.53,0-.73.18c-2.35,1.86-4,4.05-3.46,7.37.3,1.79-.09,2.35-1.8,2.87-.29.09-.58.16-.87.24h-1.79c-.22,0-.47,0-.58-.21s.12-.39.25-.55a3.3,3.3,0,0,0,.87-1.84,1.23,1.23,0,0,0-.54-1.78,6.07,6.07,0,0,0-1.77-.5A18,18,0,0,0,116,68.3a2.08,2.08,0,0,0-2.59,1.07,5.7,5.7,0,0,0-.89,1.88c-.51.19-.64.73-.93,1.12a28.68,28.68,0,0,1-2.27,2.52c-.93.36-.94.35-1-.64a3.2,3.2,0,0,0-4.35-2.71,5.65,5.65,0,0,0-2.26,1.76c-.46.53-.88,1.08-1.31,1.63a2.43,2.43,0,0,1-3,.92,1.77,1.77,0,0,0-2.39.62,3.29,3.29,0,0,0-1.15,1.33c-.47.14-.74.56-1.12.83a2.25,2.25,0,0,1-3.36-.35,11.42,11.42,0,0,1-1.87-2.85,1.44,1.44,0,0,0-1.57-.91c-.79,0-1.58.06-2.37.11a5.29,5.29,0,0,1-3.56-1,5.06,5.06,0,0,0-3-1l-.9,0a37.46,37.46,0,0,1-9-.36c-.75-.14-1.49-.34-2.23-.51a6.39,6.39,0,0,1-2.63-2.18,2.7,2.7,0,0,0-1.65-1,8,8,0,0,0-3.67-.07,2.7,2.7,0,0,1-2.73-.95,6.53,6.53,0,0,1-1.36-2.28A2.13,2.13,0,0,1,53,62.93c-3.84,1-7.5,1.93-11.16,2.85a13.33,13.33,0,0,1-4.43.74c-1.77-.15-2.51-1.43-1.77-3.08a3.47,3.47,0,0,1,.46-.79A7,7,0,0,0,37.5,58.5c.11-2.61-1.34-4.13-3.88-4.12a9.37,9.37,0,0,0-4,1.11,17.79,17.79,0,0,1-2.55,1.16,1.29,1.29,0,0,1-1.25-.17,11,11,0,0,1-3.75-5.3,1.69,1.69,0,0,1,1.17-2.25,4,4,0,0,1,1.37-.28c1.64,0,3.28,0,4.92.1a29.26,29.26,0,0,0,6.48.08A4,4,0,0,0,39.66,46a4.07,4.07,0,0,1,3.06-2.88c1.43-.4,2.94-.37,4.36-.77a45.39,45.39,0,0,1,7.66-1.45,11.56,11.56,0,0,0,9-5.63,10.54,10.54,0,0,1,.85-1.14A1.84,1.84,0,0,1,67,33.5,13.68,13.68,0,0,1,69.38,35a15.24,15.24,0,0,0,6.09,2.8c2.52.43,4.58-.1,5.64-2.92a4.94,4.94,0,0,1,3-2.86,11.62,11.62,0,0,1,2.77-.76c2.32-.31,4.31-1.58,6.47-2.33A72.1,72.1,0,0,0,101,26.07a4.92,4.92,0,0,0,2.83-2.49c.59,5,5,6.4,9.07,5.39a3.69,3.69,0,0,0-.6-1,16.25,16.25,0,0,1-1-1.62c-.54-1.08-.23-1.71.94-1.93a5.17,5.17,0,0,1,1.88,0,3.12,3.12,0,0,1,2.27,2.11,3.07,3.07,0,0,0,2.37,2.09,23.69,23.69,0,0,0,8.1-.1,3,3,0,0,0,2.53-2.32,7.45,7.45,0,0,1,.81-1.93c.69-1.16,1.5-1.3,2.48-.37a10.63,10.63,0,0,1,1.19,1.39A23.35,23.35,0,0,0,136.93,29a3.07,3.07,0,0,0,4.27.2,8.46,8.46,0,0,0,1.58-1.47c.44-.5.85-1,1.31-1.51,1.6-1.66,3.44-1.63,5,0,.51.55,1,1.14,1.5,1.68a3.87,3.87,0,0,0,2.8,1.2,7,7,0,0,0,5.13-1.85A4.15,4.15,0,0,1,162.69,26c-.68.13-1.45.07-1.63.83s.44,1.16.9,1.58a14,14,0,0,0,3.51,2.31c2.09.94,3.23.29,3.62-2,0-.19,0-.39.06-.59.06-1,.09-2,.2-3,0-.4,0-.92.47-1.1s.76.23,1.06.49a11.77,11.77,0,0,1,2.51,3.41,2.57,2.57,0,0,0,3.08,1.49,10.43,10.43,0,0,0,4-1.45c.92-.55,1.82-1.15,2.75-1.67,1.77-1,2.77-.59,3.5,1.35a6.4,6.4,0,0,1,.34,1.21c.13.89.23,1.78.33,2.67.21,1.76.82,2.25,2.51,2,.21,0,.43-.07.64-.11,2.41-.52,4.77-1.24,7.12-2a.81.81,0,0,1,.66,0c-.35.24-.62.41-.88.62s-.87.55-.67,1.12.72.54,1.18.57a15.82,15.82,0,0,0,3.36-.27c1-.15,2.11-.29,3.17-.4.51-.05.66.18.37.66a8.45,8.45,0,0,0-.56,1c-.53,1.14-.22,1.81,1,2.12.47.13,1,.18,1.45.29s.59.31.34.79c-.47.9-.34,1.25.53,1.73a4.35,4.35,0,0,0,1.31.46c1,.17,2,.31,2.92.5a1.68,1.68,0,0,1,1.5,1.43,3.8,3.8,0,0,0,1,1.92c.57.61.94.55,1.28-.21a7.17,7.17,0,0,1,1.06-1.89c.3-.34.57-.32.69.17s.13.72.25,1.06c.22.64.43,1.36,1.22,1.42s.88-.73,1.13-1.26a9,9,0,0,1,1.38-2.47c.37-.4.84-.69,1.28-.23a5.91,5.91,0,0,0,3.09,1.43c.46.11.9.24,1.35.38.11,0,.27.08.28.26s-.15.23-.26.28c-.4.19-.82.32-1.21.52-.6.3-1.51.42-1.51,1.22s.88.8,1.43,1.08c.24.12.58.17.61.51s-.3.5-.57.63a13.48,13.48,0,0,1-3.29,1c-1,.22-1.19.72-.48,1.57a2.44,2.44,0,0,0,1.33.77,7.62,7.62,0,0,0,2,.18,26.35,26.35,0,0,1,4.35.18c.24,0,.54,0,.62.31s-.23.4-.41.55c-.81.63-.78,1.27.08,1.85a3.82,3.82,0,0,0,1.3.5,10.2,10.2,0,0,0,5.07-.61,18.88,18.88,0,0,1,2.85-.81c.46-.07.8.07.62.63a1,1,0,0,0,.62,1.29c.58.3,1.2.54,1.8.82.28.13.76.13.73.53s-.5.36-.8.47c-.76.29-1.55.54-2.32.82-.27.11-.6.25-.62.6s.31.52.57.66a18.49,18.49,0,0,0,3.56,1.49A13.67,13.67,0,0,1,246,60.78c.38.22.52.46.15.84a11.14,11.14,0,0,1-3.44,2.93c-1.12.49-1.11.78-.26,1.66.11.12.29.21.26.4s-.27.24-.46.28a11.06,11.06,0,0,1-2.37.14,35.14,35.14,0,0,0-4.59.13c-.2,0-.49,0-.51.3s.2.31.36.42a18.09,18.09,0,0,0,5,2.32,3.94,3.94,0,0,0,3.6-.57,9.91,9.91,0,0,1,1.65-.94,3.33,3.33,0,0,1,3.72.23,4,4,0,0,0,2,.7,13.52,13.52,0,0,0,3.9-.5c.28-.06.63-.2.86,0s0,.58-.11.85-.23.57-.32.87c-.34,1.1,0,1.73,1.17,1.89.62.09,1.26.12,1.88.18a11.81,11.81,0,0,1,3.09.42c1.62.62,2.68,1.77,1.51,3.68a9.25,9.25,0,0,0-.47.88c-.66,1.32-.46,1.82.9,2.22a24.73,24.73,0,0,1,4.9,1.9,5.25,5.25,0,0,1,1.53,1.12,1.14,1.14,0,0,1-.24,1.91,3,3,0,0,1-2.46.25c-.67-.13-1.32-.35-2-.51-1.05-.24-1.43.08-1.4,1.2a15.5,15.5,0,0,0,.18,1.67c.35,2.2-.21,3-2.37,3.3a41.52,41.52,0,0,1-4.59.35c-2.69.09-5.28.52-7.47,2.35a4.47,4.47,0,0,1-2.18.91,2.71,2.71,0,0,1-3.25-2,7.89,7.89,0,0,1-.08-3.42,5.06,5.06,0,0,0,.16-1.82c-.92,1.62-1.74,3.26-2.6,4.88a12.64,12.64,0,0,1-2.23,3.21c-.91.88-2,.79-3.16-.22-.7-.62-.65-1.38.14-2.45a18.22,18.22,0,0,1,2-2.08c1-1,.87-1.78-.41-2.37a13.64,13.64,0,0,0-3.34-.9,8.81,8.81,0,0,1,1,2c.18.71,0,1-.73.87a6.92,6.92,0,0,1-1.69-.64c-.57-.22-1.06-.7-1.73-.63A10,10,0,0,0,228.12,87.58ZM180.87,55.52a10.45,10.45,0,0,1-2.85,0c-.83-.1-1.14-.42-1.17-1.3,0-1.32.43-2.6.33-3.92a5.08,5.08,0,0,0,0-.68c-.2-1.11-1-1.58-2.25-1.28-1.69.42-3.33,1.06-5.06,1.34a7.49,7.49,0,0,1-3.49-.21,1.74,1.74,0,0,1-1.24-2.41,10,10,0,0,1,1.57-2.94c.14-.2.3-.4.43-.61s.64-.73.4-1.1-.86-.27-1.29-.15a26.78,26.78,0,0,0-7.61,4c-1.15.82-2.08,1.9-3.17,2.79a6.87,6.87,0,0,1-2.15,1.19,7.75,7.75,0,0,0-4.06,3.12,2.34,2.34,0,0,0-.24.44A1.19,1.19,0,0,0,149,55c.26.37.71.26,1.07.15a6.2,6.2,0,0,1,1.6-.3,3,3,0,0,1,2.16.67c1.82,1.7,3.92,1.48,6.1,1.13a8.91,8.91,0,0,1,3.67.08,1.24,1.24,0,0,1,1,.89c.62,2.6,3.63,3.12,5.66,1.86a7.47,7.47,0,0,1,8.64.18,4.23,4.23,0,0,0,3.93.31,27.11,27.11,0,0,0,3.59-1.43,5.21,5.21,0,0,1,5.17.2,7.19,7.19,0,0,0,4.53,1.18c1.89-.27,3.76-.63,5.64-1,.24,0,.51-.1.55-.41s-.19-.45-.39-.6a10.11,10.11,0,0,0-2.82-1.33A27.93,27.93,0,0,0,193.53,55c-1.34-.17-2.68,0-4-.11A50,50,0,0,0,180.87,55.52Zm-97.08-8c-.41,1.39.07,2.24,1.47,2.33a8.53,8.53,0,0,0,6.58-2,4.77,4.77,0,0,0,1.63-3.3c.17-2.54,1.45-3.84,3.94-3.79A33.2,33.2,0,0,1,106.7,42c.79.25,1.18-.07,1.06-.92-.18-1.27-.39-2.54-.66-3.79-.15-.69-.82-.67-1.33-.76-1.86-.36-3.77-.06-5.64-.35s-3,.64-4,2a9.27,9.27,0,0,1-2.15,2.18,5,5,0,0,1-4.09.59c-1.3-.29-2.6-.62-3.91-.87a4.49,4.49,0,0,0-3.55.95c-1.08.76-2.15,1.54-3.24,2.28A4.35,4.35,0,0,0,77.21,47c-.06,1.47-.46,1.74-1.92,1.53a7.73,7.73,0,0,1-4.79-2.31,11.89,11.89,0,0,1-1.44-2.13,7.31,7.31,0,0,0-.69-1c-.55-.67-.85-.63-1.27.16a19.11,19.11,0,0,0-1.74,6.34,2,2,0,0,0,1.18,2.13c1.35.8,2.74,1.51,4.1,2.29a16.51,16.51,0,0,1,1.94,1.26c2.08,1.6,5.11,1.19,7.07-.24a3.08,3.08,0,0,0,1.53-2.75,10.06,10.06,0,0,1,2.7-5.49C84,47,83.86,47.24,83.79,47.48Zm23.54,2.59c3.06-.16,6.12-.25,9,1a7.66,7.66,0,0,1,2.88,2.8,21,21,0,0,0,2.19,2.5c.94.86,1.8.74,2.17-.43.61-1.89,2-2.54,3.72-2.84,2.66-.48,5.36-.56,8-.87a39.69,39.69,0,0,0,8.07-1.7,4.56,4.56,0,0,0,.67-.32c1.44-.73,1.65-1.38.95-2.81-.07-.16-.16-.3-.22-.46-.93-2.44-2.09-2.17-4-1.52a22,22,0,0,0-4.09,2.12,5.57,5.57,0,0,1-2.34,1,2.34,2.34,0,0,1-2.29-1.17,20.93,20.93,0,0,1-1.72-3.72c-.94-2.26-2.25-2.68-4.46-1.77-2,.85-3.22,2.51-4.45,4.19-.1.13-.18.28-.29.41-.8.94-1.36.93-2.09-.08-.28-.38-.54-.78-.78-1.18a1.17,1.17,0,0,0-1.51-.51,3.69,3.69,0,0,0-2.12,1.89c-.81,1.78-1.37,2.14-3.32,1.73a30.42,30.42,0,0,0-7.11-1,6.23,6.23,0,0,1-2.69-.68,3.24,3.24,0,0,0-3.63.17c-1.32,1-1.28,2.42.18,3.28a5.94,5.94,0,0,0,3.18.65C103.51,50.73,105.39,50.18,107.33,50.07ZM87.05,68.38a2.14,2.14,0,0,1,.59.57c1.45,2.21,3.69,2.34,5.76,2a2.53,2.53,0,0,0,1.8-1.2c1.26-2,3.21-2.18,5.23-2,1,.08,2,.09,3,.08a1.14,1.14,0,0,0,1.13-.7,1.28,1.28,0,0,0-.39-1.37,3.54,3.54,0,0,0-2.65-1.3,5.8,5.8,0,0,1-2.47-.83,2.55,2.55,0,0,0-2.78,0c-.84.53-1.54.25-2-.71a6.31,6.31,0,0,1-.12-5.51,6.18,6.18,0,0,0,.36-1c.24-1.14-.36-1.75-1.46-1.43a5,5,0,0,0-2,1.3c-1.85,1.79-3.24,4-5.13,5.79a4.5,4.5,0,0,1-.89.73c-.83.43-1.22.19-1.29-.76-.08-1.18.23-2.34.17-3.52,0-.24.12-.57-.17-.68s-.45.25-.59.47A50.15,50.15,0,0,0,81,63a1.88,1.88,0,0,1-2.57,1.24,15.94,15.94,0,0,1-3.84-1.66,17,17,0,0,0-5.44-2,13.12,13.12,0,0,0-2.87,0c-.48,0-.7.28-.24.74a19.08,19.08,0,0,0,3.09,2.35c1.77,1.21,3.49,2.49,5.15,3.87a5.18,5.18,0,0,0,5.88.91,8.19,8.19,0,0,1,3.93-.65A4.6,4.6,0,0,1,87.05,68.38ZM247.22,80.5a2,2,0,0,1-2.09.13c-1.55-.77-2-.63-2.92.89-.36.6-.7,1.21-1.07,1.8-.63,1-1.22,1-1.89,0a17.4,17.4,0,0,1-1.75-3.88c-.36-1-.71-1.94-1.07-2.9-.28-.72-.73-1.2-1.55-1.09-.56.07-1.07.88-1.13,1.68a7.26,7.26,0,0,0,.64,3.68,6.67,6.67,0,0,1,.49,1.51c.14.72-.2,1-.89.81a9.33,9.33,0,0,1-1.81-.78,19.4,19.4,0,0,0-4-1.93c-1.41-.37-2.31.49-2,1.94.43,1.69.81,2.72,3.22,2.71a26.79,26.79,0,0,0,4.38-.47,2.12,2.12,0,0,1,2.23.69c.63.77,1.3,1.51,2,2.22.86.89,1.48.8,2.12-.28a1.84,1.84,0,0,1,2.45-.91c.6.18,1.17.47,1.78.63a1.73,1.73,0,0,0,2.18-.58,2.21,2.21,0,0,1,2.79-.36A4,4,0,0,1,251,87.51,2.29,2.29,0,0,0,253,88.74a13.59,13.59,0,0,0,4.4-.26c.44-.1.43-.26.15-.53a3,3,0,0,1-.8-1.16,1.71,1.71,0,0,1,.6-2.14c.88-.67,1.05-1.14.44-2.05-1-1.45-2.12-2.3-3.78-1.74-2.45.82-4.24-1.08-4.67-3C248.57,78.83,248.18,79.88,247.22,80.5ZM46.91,60.94a21.51,21.51,0,0,0,2.54,0,4.39,4.39,0,0,0,2.48-1,6.07,6.07,0,0,1,3.12-1.39,2.81,2.81,0,0,1,1.87.5,7,7,0,0,0,4.79,1,2.89,2.89,0,0,0,1.75-.86,1.82,1.82,0,0,0,.06-2.62,7.51,7.51,0,0,0-3.06-1.75,33.53,33.53,0,0,0-5.85-1.52,5.75,5.75,0,0,1-4.21-3.18,8.81,8.81,0,0,0-1.68-2.66,2.68,2.68,0,0,0-3-.5,8.65,8.65,0,0,0-2.43,1.82c-1.4,1.38-2.94,2.6-4.41,3.89a6.09,6.09,0,0,0-1.23,1.35c-.34.53-.18.78.4.81a11.12,11.12,0,0,0,2.74-.44A14.74,14.74,0,0,1,46.65,54a3.71,3.71,0,0,1,1.35.58,1.37,1.37,0,0,1,.61,1.81,8.86,8.86,0,0,1-2,3.07,3.16,3.16,0,0,1-2.11.79c-.4,0-.81,0-1.22,0A12,12,0,0,0,46.91,60.94ZM171.76,36a8.85,8.85,0,0,1,3.64.84,2.19,2.19,0,0,1,1.19,2.87,17.74,17.74,0,0,1-.66,1.71c-.65,1.57,0,2.42,1.92,2.24,2.1-.19,4.06-1,6.14-1.38,1.88-.33,3.5.34,4,2.09.61,2.31,1.81,2.48,3.61,2.53a10.59,10.59,0,0,0,5.53-1.29c.35-.2.8-.34.8-.86s-.46-.64-.81-.84l-.3-.14c-1.57-.57-1.39-1.51-.18-2.57A17.15,17.15,0,0,0,200,38a1.38,1.38,0,0,0,.29-1.33c-.22-.51-.74-.47-1.21-.49a8.35,8.35,0,0,0-5,1.37,2,2,0,0,0-.66.61,3.3,3.3,0,0,1-3.14,1.58,27.08,27.08,0,0,0-5.73.86,2.33,2.33,0,0,1-.31.11c-1.36.09-2,.3-2.21-1.55a6.65,6.65,0,0,0-5.92-5.66,1.47,1.47,0,0,0-1.11.21c-1.29,1.18-3,1.05-4.49,1.64a3.08,3.08,0,0,0-1.31.67C170.2,36,171,36,171.76,36Zm63.06,22.3c-.88,1.61-2,2.21-3.56.87a2.09,2.09,0,0,0-2.12-.07,40.65,40.65,0,0,0-3.85,2.06,2.23,2.23,0,0,1-2.91-.47c-1-1-1.84-2.21-2.77-3.31a7.73,7.73,0,0,0-1.9-1.58,1.83,1.83,0,0,0-1.43-.21c-.8.22-1,.74-.58,1.46.75,1.3,1.48,2.61,2.3,4.07a10.63,10.63,0,0,0-5.94,1.69,11.58,11.58,0,0,0-1.52,1,.92.92,0,0,0,.21,1.7A5.63,5.63,0,0,0,213,66a18.35,18.35,0,0,0,5.38-.27,4.47,4.47,0,0,0,1.24-.44c2.07-1.26,3.19-.38,4.41,1.2a6.87,6.87,0,0,1,1.18,2.74c.1.43.23.85.66,1s.81-.19,1.12-.51a34.42,34.42,0,0,0,3.3-4.81c.43-.64.85-1.3,1.28-2a4,4,0,0,1,3.17-2c.31,0,.62-.1.49-.47-.31-.87.07-1.71,0-2.74A5.17,5.17,0,0,0,234.82,58.31Zm-81.49-24c-1.27-.06-1.51-.34-1.32-1.61.14-1-.5-1.59-1.59-1.4a12.4,12.4,0,0,0-2.54.62,22.84,22.84,0,0,1-9.39,1.55h-1.58a34.59,34.59,0,0,1,1.3,4.06,4.48,4.48,0,0,0,5.15,2.58A2.8,2.8,0,0,0,145,38.59c.3-.6.61-1.19.94-1.77a1.82,1.82,0,0,1,2.6-1,23.69,23.69,0,0,1,3,1.5,9.57,9.57,0,0,0,4.5,1.39,2.31,2.31,0,0,0,2.23-1.41,20.43,20.43,0,0,1,2.43-3.67A29.66,29.66,0,0,1,153.33,34.32Zm-16.67-1.24a1.7,1.7,0,0,0-1.08-.95.64.64,0,0,0-.8.41c-.13.43.22.59.53.69a9.63,9.63,0,0,0,1.1.23C136.6,33.46,136.83,33.35,136.66,33.08ZM237,62.08a.25.25,0,0,0,.31-.2.4.4,0,0,0-.15-.26,2.54,2.54,0,0,0-1.74-.6C235.72,61.83,236.36,62,237,62.08Z"/><path class="cls-7" d="M100.59,81.6c.69.64,1.36,1.3,2,2a11.82,11.82,0,0,1,3.86,8.35,5.41,5.41,0,0,0,4.36,5.48,16.18,16.18,0,0,0,1.65.46,5.24,5.24,0,0,1,2.66,1.42,55.1,55.1,0,0,1,6.43,7.53c1.92,2.52,3.77,5.1,5.74,7.58,1.19,1.48,1.19,1.83,2.5-.19a4.84,4.84,0,0,0,0-5.6,5.38,5.38,0,0,0-1.36-1.56c-2.24-1.61-2.79-4-2.86-6.56a44.93,44.93,0,0,1,.57-6.45,14.76,14.76,0,0,0,.09-2.1c0-.61-.37-.87-.87-.56-1.48.9-2.92.49-4.32-.13a25.78,25.78,0,0,1-7.06-5c-.32-.31-.61-.65-1-.94a10.36,10.36,0,0,1-3.58-8.15c0-.76-.11-1.51-.17-2.27a28.68,28.68,0,0,0,2.27-2.52c.29-.39.42-.93.93-1.12.14,2.23,0,4.49.4,6.71A14.31,14.31,0,0,0,115.63,85a5.69,5.69,0,0,0,5.22,2.42c1.94-.22,2.53-1.58,1.42-3.23a21.8,21.8,0,0,1-3-8.29,27,27,0,0,1-.46-6.53,6.07,6.07,0,0,1,1.77.5l.54,1.78a3.3,3.3,0,0,1-.87,1.84c-.13.16-.39.29-.25.55s.36.21.58.21h1.79a53.78,53.78,0,0,0,3.51,5.77,15.94,15.94,0,0,1,3,9.23,12.78,12.78,0,0,1-.76,4.11,4.17,4.17,0,0,0,0,3,24.34,24.34,0,0,0,7.49,10.24,5.19,5.19,0,0,0,.77.48c1.17.59,1.65.41,2.14-.83a5,5,0,0,1,2.05-2.45,20.47,20.47,0,0,1,2.37-1.33c3.55-1.57,5-4.44,4.84-8.26A22.69,22.69,0,0,0,146,85.58a11.77,11.77,0,0,0-1.58-2.64,4.52,4.52,0,0,0-2-1.5c-5.38-2-7.17-6.32-6.54-11.65.07-.64.2-1.27.3-1.9a6.69,6.69,0,0,1,2.26,1.1,6.18,6.18,0,0,0,5.5,6.29,2.62,2.62,0,0,0,2.57-1.47,11.46,11.46,0,0,0,1.29-4.12c.07-.38.12-.77.18-1.16,1,0,2.08.36,3.08-.16A17.49,17.49,0,0,1,149.28,75a18.5,18.5,0,0,0-1.53,3.43,11.5,11.5,0,0,0,.58,6.59,33,33,0,0,0,4.42,7.84l2.38,3.33a1.38,1.38,0,0,0,2.18.42,3.53,3.53,0,0,0,.75-.64,11.92,11.92,0,0,0,3.14-8.42,33.29,33.29,0,0,0-.85-4,38.52,38.52,0,0,1-.59-11,5.11,5.11,0,0,1,1.92-3.58,19.64,19.64,0,0,1,3.57-2.21c2.61-1.29,4.95-3,7.52-4.41a5.84,5.84,0,0,1,2.69.56c-.67,3.71-2.87,5.76-7,6.5a12.15,12.15,0,0,0-2.83.79,7.25,7.25,0,0,0-4.36,7.55c.17,1.7.31,2.2.86,2.89.43-1.73,1.79-2.21,3.18-2.82,2.71-1.18,5.59-.89,8.38-1.3a9.87,9.87,0,0,0,3.06-.88,3.39,3.39,0,0,0,2-2.59,3.22,3.22,0,0,1,1.81-2.45,11.24,11.24,0,0,1,4.58-1.16c2.81-.2,5.63-.32,8.44-.53,1.75-.12,2.24-.88,1.75-2.64-.17-.59-.41-1.15-.62-1.73a1.91,1.91,0,0,1,1.71,0,47.32,47.32,0,0,1,1.95,4.72c.57,1.71.09,2.56-1.62,2.89a17.85,17.85,0,0,1-5.16-.11,47.4,47.4,0,0,0-6.3-.43,7.36,7.36,0,0,0-1.86.29A2.44,2.44,0,0,0,181.59,74c-.43,2.74-2.3,4.31-5.27,4.64a47,47,0,0,1-5.17.15,3.66,3.66,0,0,0-2.5.89,15.33,15.33,0,0,0-4.45,7.69,2.32,2.32,0,0,0,0,.59c0,.5.2.6.6.32a36.65,36.65,0,0,1,8.48-4.15A27,27,0,0,1,181.71,82a6.71,6.71,0,0,1,1.78.2,8.73,8.73,0,0,0,4.62-.19c2.35.77,4.69,1.3,7.13.35a9.3,9.3,0,0,1,2.63-.52,10.57,10.57,0,0,1-5.27,2.33,31,31,0,0,1-9.71.56,14.94,14.94,0,0,0-6.19,1,24.55,24.55,0,0,0-7.18,3.59,5.32,5.32,0,0,0-1.58,1.69c-.56,1-.23,1.74.92,1.9a11.76,11.76,0,0,0,3.19-.07c1.65-.24,3.3-.52,4.95-.73.43-.06,1.15-.28,1.27.15s-.52.83-1,1c-2.59,1.24-5.27,2.28-7.93,3.39a4,4,0,0,0-.73.39c.87.13,1.74,0,2.6.16a11.28,11.28,0,0,1,5.62,2.16c4.64,3.62,9.53,1.36,12.29-2a5.55,5.55,0,0,1,3.05-2c1.77-.47,3.55-.9,5.32-1.35.45-.12.89-.28,1.32-.44.65-.25,1-.57.78-1.45a5.71,5.71,0,0,1,.35-2.72c.11-.49.26-1,.39-1.45a20.57,20.57,0,0,0,3.81-1.69,19.52,19.52,0,0,0-1,4.91,9.72,9.72,0,0,0,0,1.43,1.73,1.73,0,0,0,.92,1.5,51.26,51.26,0,0,0,7.25,2.86,7.06,7.06,0,0,0,1.29.2,2,2,0,0,0,1.76-.71,18.08,18.08,0,0,1,9.74-6,3.14,3.14,0,0,0,1.48-.65h2.1v-.2l-1.06-.51,1.46-1.71a10,10,0,0,1,3.36,1.47c-.85.52-1.67,1.08-2.54,1.55A38.72,38.72,0,0,0,222,95.34a51.21,51.21,0,0,1-7.79,5.43,3.71,3.71,0,0,1-3.88,0c-1.29-.68-2.5-1.48-3.75-2.23A15.28,15.28,0,0,0,199.91,96c-3-.23-5.69.49-7.62,3.11-.06,0-.15,0-.09.14s.13,0,.19,0c1.66-.16,2.93.74,4.2,1.63,2.95,2.06,3.94,6.33,3.39,9.11a43.48,43.48,0,0,0-3.17-5.74,4.13,4.13,0,0,0-3.54-1.92,14.87,14.87,0,0,0-5.86,1,29,29,0,0,1-5.13,1.43,2.86,2.86,0,0,1-2.38-.24c-1.24-.92-2.52-1.79-3.79-2.67-.47-.32-1-.91-1.45-.86s-.53.93-.85,1.41c-.07.12-.13.25-.21.36-.36.51-.6,1.33-1.33,1.19s-.68-1-.8-1.61c-.07-.39-.14-.55-.57-.55a44.83,44.83,0,0,0-11.26,1,16,16,0,0,0-6.47,2.93,26.2,26.2,0,0,0-2,2.24c-1.11,1.09-1.68,1-2.29-.43,0,0-.06,0-.09-.08-1.81,3.2-4.68,5-7.86,6.47s-2,4.23-2.54,7.68a44,44,0,0,0,0,4.45c-.52,9.6-.69,19.21-.78,28.82-.1,10.57-.37,41.72-.14,52.28a4.6,4.6,0,0,0,1.83,3.61c1,.81-.7,1,.51,1.41-.1.2-.2.17-.35.15a25.84,25.84,0,0,0-3.93-.24c-.6,0-1,.07-.65.92a3.7,3.7,0,0,1-.75,3.91,7.85,7.85,0,0,0-2.22-2.08c-2.23-1.7-2.24-1.68-4.51-.05-.87.62-1.77,1.22-2.67,1.81-.14.09-.35.23-.53.09s-.06-.35,0-.54a6.32,6.32,0,0,0,.26-1.74c0-1.41,0-1.41-1.34-1.15-.24.05-.48.11-.72.14a6.76,6.76,0,0,1-3.72-.11c2.36-1,3.32-2.93,3.92-5.11,1-3.62,1.63-27.92,1.55-31.63-.06-2.92-.33-5.83-.26-8.76a143.18,143.18,0,0,1,2.21-19.38,81.63,81.63,0,0,0,.39-20.24c-.33-3.84-2.53-5.66-6.3-5.49-5.15.23-10.26.93-15.39,1.28-2.35.16-4.7.36-6.94-.68a10.23,10.23,0,0,0-2.05-.58c-6.29-1.44-12.67-1.4-19-1.1-5.1.23-10.19.51-15.25-.42a20.24,20.24,0,0,1-9.28-4,14.09,14.09,0,0,0-3.16-1.93,63.4,63.4,0,0,0-9.19-3c-3.19-.87-6.39-1.7-9.59-2.54a2.52,2.52,0,0,1,1-1.27,1.4,1.4,0,0,1,2.33,1c.13.59.35.53.7.2a6.71,6.71,0,0,0,1.38-2,2.21,2.21,0,0,1,.57-.81L38,107l.55.18c1.23.34,1.36.62.74,1.74-.3.53-.18.66.38.65,1.32,0,1.66-.43,1.68-2.18l1.16.17c.55.56,1.24.26,1.88.33a28.58,28.58,0,0,1,8.36,4.68A25.88,25.88,0,0,0,64.64,117a101.77,101.77,0,0,0,17.44,1,61.8,61.8,0,0,0,6.91-.59,12.09,12.09,0,0,0-2.82-.94c-4.12-1.07-8.3-2-11.94-4.43a83.34,83.34,0,0,1-8.16-6.23c-.67-.58-1.31-1.19-2-1.79a2.59,2.59,0,0,1,.63.09,6.46,6.46,0,0,0,3.43.2,107,107,0,0,0,17.38,9.2,82.79,82.79,0,0,0,17.12,4.79,25.33,25.33,0,0,0,8.81-.25c3.28-.6,6.6-1,9.83-1.89,2.12-.58,2.11-.61.77-2.33a72,72,0,0,0-5.35-6c-1.86-1.91-3.73-3.8-5.45-5.84-1.54-1.82-3.71-2.51-5.9-3.1a61.85,61.85,0,0,0-9.47-1.52c-2.94-.31-5.74-.9-7.9-3.2a71.52,71.52,0,0,1-4.63-5.93c-1.12-1.44-2.24-1.57-3.65-.43-.71.57-1.34,1.23-2,1.85-.56-.29-1.12,0-1.66,0a11.65,11.65,0,0,1-1.56.08c-.22,0-.56,0-.52-.27.16-1-.47-.42-.76-.4-.48,0-.91.38-1.43.32L69.64,88c-.24-.75-.28-1.6-1-2.06a2.14,2.14,0,0,0,0-1.94,12.69,12.69,0,0,0-1.45-2.43c-1.39-1.88-2.79-3.74-4.2-5.6a5.77,5.77,0,0,1-1.13-3.19,11.31,11.31,0,0,1,.36-3.17,6.39,6.39,0,0,0,2.63,2.18A54.09,54.09,0,0,0,75.45,84a4.84,4.84,0,0,0,1.48.88c.41.15.65,0,.62-.47a2.3,2.3,0,0,0-.12-.74,22.43,22.43,0,0,1-1.39-11l.9,0a13.89,13.89,0,0,0,2.46,5.26A70.6,70.6,0,0,0,89.51,89.1c1.67,1.58,3.38,3.1,5.06,4.67a3.4,3.4,0,0,0,1.84.85,5.46,5.46,0,0,0,6-3.66,4.47,4.47,0,0,0-.34-3,23.29,23.29,0,0,0-3.82-5.44c-1.41-1.64-3-3.15-4.48-4.68a3.26,3.26,0,0,1,1.15-1.34C96.72,78.29,98.72,79.87,100.59,81.6Zm67.72,15.76s.08,0,.12-.06-.08-.06-.12,0-.09,0-.13.06S168.27,97.37,168.31,97.36Z"/><path class="cls-8" d="M77.48,90.11c-.43.8-.32,1.08.55,1.31.35.1.82,0,.49.7-.15.3.15.51.4.64A3,3,0,0,0,80,93c.77.08,1.44.28,1.59,1.24,0,.3.24.64.54.68s.34-.41.5-.65.2-.46.49-.61c.25.26.19.66.35,1s.22.4.48.4.32-.2.4-.38.18-.46.29-.69c.44-1,.55-1,1.45-.47.55.32,1.24.25,1.74.67a4.91,4.91,0,0,1-.5.28c-1.09.52-1.1.53-.18,1.22.34.25.22.42,0,.53-.46.19-.93.33-1.4.48-.17.06-.41,0-.46.26a.67.67,0,0,0,.25.59,1.76,1.76,0,0,0,1.23.36,7.05,7.05,0,0,1,2.42.2c0,.39-.66.5-.35,1a1.3,1.3,0,0,0,1.06.53,7.13,7.13,0,0,0,2.8-.58c.41-.13.76-.36.87.43.09.62.94.57,1.43,1-.39.38-.9.39-1.32.6s-.49.51,0,.73c.77.37,1.56.69,2.34,1,.52.22.63.46.18.9a7.52,7.52,0,0,1-1,.92c-.38.25-1.12.33-.47,1.12.2.24-.25.26-.43.27-.82,0-1.64,0-2.46,0-.29,0-.84-.08-.36.55.19.26-.07.47-.27.62a10.68,10.68,0,0,1-3.09,1.32c-.4.12-.39-.38-.7-.45-1.09-.24-2.18-.52-3.27-.78-.24-.06-.42.1-.61.18a9.87,9.87,0,0,1-2.37.68,3.21,3.21,0,0,1-3.28-1A14.66,14.66,0,0,0,76.76,106a1.09,1.09,0,0,0-1.29-.26.68.68,0,0,1-1-.34,1.22,1.22,0,0,0-1.7-.55,2.42,2.42,0,0,1-2.94-.51,1.17,1.17,0,0,0-1.64,0,6.46,6.46,0,0,1-3.43-.2,2.59,2.59,0,0,0-.63-.09c-1-.31-1.91-.6-2.65.48-.18.27-.48.22-.74.09s-.62-.36-.93-.54a.91.91,0,0,0-1.26.13,2.71,2.71,0,0,1-.46.36c-.25.16-.55.5-.78.32s.08-.54.19-.79c.42-1,.34-1.14-.62-1.14a.81.81,0,0,1-.65-.44c-.39-.52-.83-.43-1.31-.15s-.19.66,0,1a5.41,5.41,0,0,1,.44,1.78.49.49,0,0,1-.1.37c-.15.13-.31,0-.43-.1-.39-.39-.76-.82-1.16-1.19s-.75-.62-1.17-.45-.48.75-.92,1c-.11.06.12.27.24.36.33.26.67.49,1,.76s.5.38.38.69-.49.31-.79.29a2.71,2.71,0,0,1-2-1c-.22-.27-.33-1.08-.9-.59s-.2,1,.22,1.46a7.29,7.29,0,0,0,.65.54,6.36,6.36,0,0,1-3.28-.4c-.36-.19-.7-.55-1.18-.14-.27.23-.28-.15-.32-.29-.12-.37-.18-.76-.3-1.14-.06-.2-.13-.49-.4-.44s-.32.32-.32.53c0,.51.08,1,.14,1.51s.08.79-.28,1.07c-.64-.07-1.33.23-1.88-.33.1-.9.58-1.68.75-2.56,0-.19.13-.44,0-.56s-.4.08-.54.22a3.26,3.26,0,0,0-1.35,2.73c0,1.75-.36,2.18-1.68,2.18-.56,0-.68-.12-.38-.65.62-1.12.49-1.4-.74-1.74L38,107c-.55-.3-1.09-.77-1.72-.15a2.21,2.21,0,0,0-.57.81,6.71,6.71,0,0,1-1.38,2c-.35.33-.57.39-.7-.2a1.4,1.4,0,0,0-2.33-1,2.52,2.52,0,0,0-1,1.27c-.51.51-1,.89-1.81.54-.43-.19-.75.15-1,.48-1.49,1.68-2,1.64-3.1-.37a1.06,1.06,0,0,0-1.22-.68,2.92,2.92,0,0,1-2.29-.44,2.82,2.82,0,0,0-1.93-.53c-1,0-2,0-3,0s-2.1-.1-2.73-.94a2.63,2.63,0,0,0-2.58-1.07,1.92,1.92,0,0,1-2.21-2c0-.64-.17-.58-.63-.46-1.82.51-3.65,1-5.48,1.45-.58.14-1.2.19-1.57-.39s-.05-1.07.26-1.55a3.35,3.35,0,0,0,.47-2.58A1.46,1.46,0,0,0-.09,99.9a4.45,4.45,0,0,0-2.33.7c-1.14.6-1.28.57-2.08-.41a6.7,6.7,0,0,1-.45-.6c-.39-.59-.83-1.25-.49-1.94s1.13-.57,1.78-.57c1.37,0,2.73.24,4.1.15a2,2,0,0,0,2.05-1.47,1.85,1.85,0,0,1,1.43-1.37c1.42-.32,2.83-.69,4.26-.87,2.12-.27,4-.81,5.21-2.85.77-1.29,1.09-1.3,2.29-.42a8.61,8.61,0,0,0,2.73,1.51,2.08,2.08,0,0,0,2.91-1.35,2.57,2.57,0,0,1,1.85-1.53c2.21-.48,4.19-1.6,6.32-2.31a3.83,3.83,0,0,0,2.09-1.39c.94,2.25,2.33,3,4.13,2.33-.22-.39-.48-.75-.67-1.15-.27-.57-.09-.91.55-1a1.47,1.47,0,0,1,1.72,1,1.5,1.5,0,0,0,1.22,1.11,18.34,18.34,0,0,0,2.46.1,2.32,2.32,0,0,0,2.49-1.82c.3-1.11.89-1.14,1.6-.22a18.62,18.62,0,0,0,1.53,2,1.4,1.4,0,0,0,2.18.08,12,12,0,0,0,1.06-1.18c.87-1,1.68-1,2.55,0,1.34,1.58,2.65,1.67,4.21.27a1.79,1.79,0,0,1,1.57-.56c-.73.31-.55.7-.17,1.08a5.6,5.6,0,0,0,1.83,1.26c.82.33,1.21.1,1.44-.79a9.4,9.4,0,0,0,.15-1.75c0-.28,0-.62.28-.73s.43.19.6.36a5.59,5.59,0,0,1,.9,1.3c.51.94.86,1.09,1.88.83A5,5,0,0,0,66.65,87a8.58,8.58,0,0,1,1.94-1.08c.77.46.81,1.31,1,2.06a.25.25,0,0,0,0,.08c0,1.83.5,2.16,2.16,1.42.52.06.95-.27,1.43-.32.29,0,.92-.62.76.4,0,.23.3.28.52.27a11.65,11.65,0,0,0,1.56-.08c.54-.08,1.1-.34,1.66,0ZM7.1,100.44a14.28,14.28,0,0,0,4.13-.26,19.89,19.89,0,0,1,6.84.13c1.71.34,2.7,1.61,3.66,2.92a11,11,0,0,0,1.34,1.47c.54.51,1.27.44,1.48-.24.59-1.92,2.16-2.13,3.71-2.34,3.21-.43,6.47-.49,9.62-1.36a12,12,0,0,0,1.86-.63A1.39,1.39,0,0,0,40.49,98c-.14-.31-.29-.61-.45-.91a1.48,1.48,0,0,0-1.79-.81,15.74,15.74,0,0,0-4.22,2c-1.76,1-2.62.73-3.56-1.1a24.91,24.91,0,0,0-1.23-2.74,1.75,1.75,0,0,0-2.12-.78,6.21,6.21,0,0,0-3.61,2.73,1.67,1.67,0,0,1-.18.28c-1.34,1.51-1.38,1.66-2.42,0-.52-.85-1-.92-1.84-.33a2.36,2.36,0,0,0-1.14,1.45,1.23,1.23,0,0,1-1.28,1,7.71,7.71,0,0,1-2.19-.29,16.16,16.16,0,0,0-4.21-.55,9.78,9.78,0,0,1-2.75-.76A2,2,0,0,0,5,98.83C5,99.64,5.89,100.26,7.1,100.44Zm61-4.39a5.75,5.75,0,0,1-1.61-.24A1.79,1.79,0,0,1,65,94.19c-.16-1.34-.94-1.74-2.26-1.44a25.66,25.66,0,0,0-3.26,1.13c-2,.76-4,.52-6.08.38a52.83,52.83,0,0,0-5.85-.39l2.63,1.19a3.51,3.51,0,0,1,2.26,2.85,3.1,3.1,0,0,0,.64,1.45c1,1.26,2.14,1.42,3.61.42A17.65,17.65,0,0,0,58.91,98a2.9,2.9,0,0,1,3.69-.38c1.28.64,2.54,1.31,3.82,2a5.27,5.27,0,0,0,2.45.58,1.35,1.35,0,0,0,1.34-.77c.77-1.63,2.27-2.37,3.64-3.27a4.06,4.06,0,0,0,1-.74A30.53,30.53,0,0,1,68.09,96.05Z"/><path class="cls-6" d="M198.43,31.17a.36.36,0,0,0,.08.09s.05,0,.08,0,.08-.08,0-.09A.44.44,0,0,0,198.43,31.17Z"/><path class="cls-9" d="M189.51,54.88a50,50,0,0,0-8.64.64,10.45,10.45,0,0,1-2.85,0c-.83-.1-1.14-.42-1.17-1.3,0-1.32.43-2.6.33-3.92a5.08,5.08,0,0,0,0-.68c-.2-1.11-1-1.58-2.25-1.28-1.69.42-3.33,1.06-5.06,1.34a7.49,7.49,0,0,1-3.49-.21,1.74,1.74,0,0,1-1.24-2.41,10,10,0,0,1,1.57-2.94c.14-.2.3-.4.43-.61s.64-.73.4-1.1-.86-.27-1.29-.15a26.78,26.78,0,0,0-7.61,4c-1.15.82-2.08,1.9-3.17,2.79a6.87,6.87,0,0,1-2.15,1.19,7.75,7.75,0,0,0-4.06,3.12,2.34,2.34,0,0,0-.24.44A1.19,1.19,0,0,0,149,55c.26.37.71.26,1.07.15a6.2,6.2,0,0,1,1.6-.3,3,3,0,0,1,2.16.67c1.82,1.7,3.92,1.48,6.1,1.13a8.91,8.91,0,0,1,3.67.08,1.24,1.24,0,0,1,1,.89c.62,2.6,3.63,3.12,5.66,1.86a7.47,7.47,0,0,1,8.64.18,4.23,4.23,0,0,0,3.93.31,27.11,27.11,0,0,0,3.59-1.43,5.21,5.21,0,0,1,5.17.2,7.19,7.19,0,0,0,4.53,1.18c1.89-.27,3.76-.63,5.64-1,.24,0,.51-.1.55-.41s-.19-.45-.39-.6a10.11,10.11,0,0,0-2.82-1.33A27.93,27.93,0,0,0,193.53,55C192.19,54.82,190.85,55,189.51,54.88Z"/><path class="cls-9" d="M83.88,46.76c.14.26,0,.48-.09.72-.41,1.39.07,2.24,1.47,2.33a8.53,8.53,0,0,0,6.58-2,4.77,4.77,0,0,0,1.63-3.3c.17-2.54,1.45-3.84,3.94-3.79A33.2,33.2,0,0,1,106.7,42c.79.25,1.18-.07,1.06-.92-.18-1.27-.39-2.54-.66-3.79-.15-.69-.82-.67-1.33-.76-1.86-.36-3.77-.06-5.64-.35s-3,.64-4,2a9.27,9.27,0,0,1-2.15,2.18,5,5,0,0,1-4.09.59c-1.3-.29-2.6-.62-3.91-.87a4.49,4.49,0,0,0-3.55.95c-1.08.76-2.15,1.54-3.24,2.28A4.35,4.35,0,0,0,77.21,47c-.06,1.47-.46,1.74-1.92,1.53a7.73,7.73,0,0,1-4.79-2.31,11.89,11.89,0,0,1-1.44-2.13,7.31,7.31,0,0,0-.69-1c-.55-.67-.85-.63-1.27.16a19.11,19.11,0,0,0-1.74,6.34,2,2,0,0,0,1.18,2.13c1.35.8,2.74,1.51,4.1,2.29a16.51,16.51,0,0,1,1.94,1.26c2.08,1.6,5.11,1.19,7.07-.24a3.08,3.08,0,0,0,1.53-2.75A10.06,10.06,0,0,1,83.88,46.76Z"/><path class="cls-9" d="M101.32,50.68c2.19,0,4.07-.5,6-.61,3.06-.16,6.12-.25,9,1a7.66,7.66,0,0,1,2.88,2.8,21,21,0,0,0,2.19,2.5c.94.86,1.8.74,2.17-.43.61-1.89,2-2.54,3.72-2.84,2.66-.48,5.36-.56,8-.87a39.69,39.69,0,0,0,8.07-1.7,4.56,4.56,0,0,0,.67-.32c1.44-.73,1.65-1.38.95-2.81-.07-.16-.16-.3-.22-.46-.93-2.44-2.09-2.17-4-1.52a22,22,0,0,0-4.09,2.12,5.57,5.57,0,0,1-2.34,1,2.34,2.34,0,0,1-2.29-1.17,20.93,20.93,0,0,1-1.72-3.72c-.94-2.26-2.25-2.68-4.46-1.77-2,.85-3.22,2.51-4.45,4.19-.1.13-.18.28-.29.41-.8.94-1.36.93-2.09-.08-.28-.38-.54-.78-.78-1.18a1.17,1.17,0,0,0-1.51-.51,3.69,3.69,0,0,0-2.12,1.89c-.81,1.78-1.37,2.14-3.32,1.73a30.42,30.42,0,0,0-7.11-1,6.23,6.23,0,0,1-2.69-.68,3.24,3.24,0,0,0-3.63.17c-1.32,1-1.28,2.42.18,3.28A5.94,5.94,0,0,0,101.32,50.68Z"/><path class="cls-9" d="M84.07,67.71a4.6,4.6,0,0,1,3,.67,2.14,2.14,0,0,1,.59.57c1.45,2.21,3.69,2.34,5.76,2a2.53,2.53,0,0,0,1.8-1.2c1.26-2,3.21-2.18,5.23-2,1,.08,2,.09,3,.08a1.14,1.14,0,0,0,1.13-.7,1.28,1.28,0,0,0-.39-1.37,3.54,3.54,0,0,0-2.65-1.3,5.8,5.8,0,0,1-2.47-.83,2.55,2.55,0,0,0-2.78,0c-.84.53-1.54.25-2-.71a6.31,6.31,0,0,1-.12-5.51,6.18,6.18,0,0,0,.36-1c.24-1.14-.36-1.75-1.46-1.43a5,5,0,0,0-2,1.3c-1.85,1.79-3.24,4-5.13,5.79a4.5,4.5,0,0,1-.89.73c-.83.43-1.22.19-1.29-.76-.08-1.18.23-2.34.17-3.52,0-.24.12-.57-.17-.68s-.45.25-.59.47A50.15,50.15,0,0,0,81,63a1.88,1.88,0,0,1-2.57,1.24,15.94,15.94,0,0,1-3.84-1.66,17,17,0,0,0-5.44-2,13.12,13.12,0,0,0-2.87,0c-.48,0-.7.28-.24.74a19.08,19.08,0,0,0,3.09,2.35c1.77,1.21,3.49,2.49,5.15,3.87a5.18,5.18,0,0,0,5.88.91A8.19,8.19,0,0,1,84.07,67.71Z"/><path class="cls-9" d="M249.3,77.91c-.73.92-1.12,2-2.08,2.59a2,2,0,0,1-2.09.13c-1.55-.77-2-.63-2.92.89-.36.6-.7,1.21-1.07,1.8-.63,1-1.22,1-1.89,0a17.4,17.4,0,0,1-1.75-3.88c-.36-1-.71-1.94-1.07-2.9-.28-.72-.73-1.2-1.55-1.09-.56.07-1.07.88-1.13,1.68a7.26,7.26,0,0,0,.64,3.68,6.67,6.67,0,0,1,.49,1.51c.14.72-.2,1-.89.81a9.33,9.33,0,0,1-1.81-.78,19.4,19.4,0,0,0-4-1.93c-1.41-.37-2.31.49-2,1.94.43,1.69.81,2.72,3.22,2.71a26.79,26.79,0,0,0,4.38-.47,2.12,2.12,0,0,1,2.23.69c.63.77,1.3,1.51,2,2.22.86.89,1.48.8,2.12-.28a1.84,1.84,0,0,1,2.45-.91c.6.18,1.17.47,1.78.63a1.73,1.73,0,0,0,2.18-.58,2.21,2.21,0,0,1,2.79-.36A4,4,0,0,1,251,87.51,2.29,2.29,0,0,0,253,88.74a13.59,13.59,0,0,0,4.4-.26c.44-.1.43-.26.15-.53a3,3,0,0,1-.8-1.16,1.71,1.71,0,0,1,.6-2.14c.88-.67,1.05-1.14.44-2.05-1-1.45-2.12-2.3-3.78-1.74C251.52,81.68,249.73,79.78,249.3,77.91Z"/><path class="cls-9" d="M43.32,60.29a12,12,0,0,0,3.59.65,21.51,21.51,0,0,0,2.54,0,4.39,4.39,0,0,0,2.48-1,6.07,6.07,0,0,1,3.12-1.39,2.81,2.81,0,0,1,1.87.5,7,7,0,0,0,4.79,1,2.89,2.89,0,0,0,1.75-.86,1.82,1.82,0,0,0,.06-2.62,7.51,7.51,0,0,0-3.06-1.75,33.53,33.53,0,0,0-5.85-1.52,5.75,5.75,0,0,1-4.21-3.18,8.81,8.81,0,0,0-1.68-2.66,2.68,2.68,0,0,0-3-.5,8.65,8.65,0,0,0-2.43,1.82c-1.4,1.38-2.94,2.6-4.41,3.89a6.09,6.09,0,0,0-1.23,1.35c-.34.53-.18.78.4.81a11.12,11.12,0,0,0,2.74-.44A14.74,14.74,0,0,1,46.65,54a3.71,3.71,0,0,1,1.35.58,1.37,1.37,0,0,1,.61,1.81,8.86,8.86,0,0,1-2,3.07,3.16,3.16,0,0,1-2.11.79C44.14,60.31,43.73,60.29,43.32,60.29Z"/><path class="cls-10" d="M169.23,36c1,0,1.75,0,2.53,0a8.85,8.85,0,0,1,3.64.84,2.19,2.19,0,0,1,1.19,2.87,17.74,17.74,0,0,1-.66,1.71c-.65,1.57,0,2.42,1.92,2.24,2.1-.19,4.06-1,6.14-1.38,1.88-.33,3.5.34,4,2.09.61,2.31,1.81,2.48,3.61,2.53a10.59,10.59,0,0,0,5.53-1.29c.35-.2.8-.34.8-.86s-.46-.64-.81-.84l-.3-.14c-1.57-.57-1.39-1.51-.18-2.57A17.15,17.15,0,0,0,200,38a1.38,1.38,0,0,0,.29-1.33c-.22-.51-.74-.47-1.21-.49a8.35,8.35,0,0,0-5,1.37,2,2,0,0,0-.66.61,3.3,3.3,0,0,1-3.14,1.58,27.08,27.08,0,0,0-5.73.86,2.33,2.33,0,0,1-.31.11c-1.36.09-2,.3-2.21-1.55a6.65,6.65,0,0,0-5.92-5.66,1.47,1.47,0,0,0-1.11.21c-1.29,1.18-3,1.05-4.49,1.64A3.08,3.08,0,0,0,169.23,36Z"/><path class="cls-9" d="M235.22,57.76a5.17,5.17,0,0,0-.4.55c-.88,1.61-2,2.21-3.56.87a2.09,2.09,0,0,0-2.12-.07,40.65,40.65,0,0,0-3.85,2.06,2.23,2.23,0,0,1-2.91-.47c-1-1-1.84-2.21-2.77-3.31a7.73,7.73,0,0,0-1.9-1.58,1.83,1.83,0,0,0-1.43-.21c-.8.22-1,.74-.58,1.46.75,1.3,1.48,2.61,2.3,4.07a10.63,10.63,0,0,0-5.94,1.69,11.58,11.58,0,0,0-1.52,1,.92.92,0,0,0,.21,1.7A5.63,5.63,0,0,0,213,66a18.35,18.35,0,0,0,5.38-.27,4.47,4.47,0,0,0,1.24-.44c2.07-1.26,3.19-.38,4.41,1.2a6.87,6.87,0,0,1,1.18,2.74c.1.43.23.85.66,1s.81-.19,1.12-.51a34.42,34.42,0,0,0,3.3-4.81c.43-.64.85-1.3,1.28-2a4,4,0,0,1,3.17-2c.31,0,.62-.1.49-.47C234.9,59.63,235.28,58.79,235.22,57.76Z"/><path class="cls-10" d="M160.74,33.62a29.66,29.66,0,0,1-7.41.7c-1.27-.06-1.51-.34-1.32-1.61.14-1-.5-1.59-1.59-1.4a12.4,12.4,0,0,0-2.54.62,22.84,22.84,0,0,1-9.39,1.55h-1.58a34.59,34.59,0,0,1,1.3,4.06,4.48,4.48,0,0,0,5.15,2.58A2.8,2.8,0,0,0,145,38.59c.3-.6.61-1.19.94-1.77a1.82,1.82,0,0,1,2.6-1,23.69,23.69,0,0,1,3,1.5,9.57,9.57,0,0,0,4.5,1.39,2.31,2.31,0,0,0,2.23-1.41A20.43,20.43,0,0,1,160.74,33.62Z"/><path class="cls-7" d="M151,67.52a17.64,17.64,0,0,0-.47-5.07c-.95-.53-1.41-.37-1.76.67a1.15,1.15,0,0,1-.6.74c0,.42,0,.84,0,1.26A12.34,12.34,0,0,0,150,66.55,6.91,6.91,0,0,1,151,67.52Z"/><path class="cls-10" d="M136.41,33.46c.19,0,.42-.11.25-.38a1.7,1.7,0,0,0-1.08-.95.64.64,0,0,0-.8.41c-.13.43.22.59.53.69A9.63,9.63,0,0,0,136.41,33.46Z"/><path class="cls-10" d="M235.41,61c.31.81,1,.93,1.58,1.06a.25.25,0,0,0,.31-.2.4.4,0,0,0-.15-.26A2.54,2.54,0,0,0,235.41,61Z"/><path class="cls-11" d="M148.16,65.12c0-.42,0-.84,0-1.26-.29.16-.85,0-.86.46S147.75,65,148.16,65.12Z"/><path class="cls-7" d="M202.56,82l-.38,1a1.71,1.71,0,0,0,.4,0c.3-.1.71-.15.71-.55S202.88,82.07,202.56,82Z"/><path class="cls-11" d="M120.63,69.91l.54,1.78A1.23,1.23,0,0,0,120.63,69.91Z"/><path class="cls-12" d="M193.94,80a5,5,0,0,0-1.46.71C193.05,80.66,193.69,80.76,193.94,80Z"/><path class="cls-12" d="M192.48,80.69c-.13.17-.38-.07-.49.16C192.17,80.85,192.36,80.88,192.48,80.69Z"/><path class="cls-13" d="M192.29,99.06c-.06,0-.15,0-.09.14s.13,0,.19,0A.64.64,0,0,0,192.29,99.06Z"/><path class="cls-10" d="M5,98.83c0,.81.89,1.43,2.1,1.61a14.28,14.28,0,0,0,4.13-.26,19.89,19.89,0,0,1,6.84.13c1.71.34,2.7,1.61,3.66,2.92a11,11,0,0,0,1.34,1.47c.54.51,1.27.44,1.48-.24.59-1.92,2.16-2.13,3.71-2.34,3.21-.43,6.47-.49,9.62-1.36a12,12,0,0,0,1.86-.63A1.39,1.39,0,0,0,40.49,98c-.14-.31-.29-.61-.45-.91a1.48,1.48,0,0,0-1.79-.81,15.74,15.74,0,0,0-4.22,2c-1.76,1-2.62.73-3.56-1.1a24.91,24.91,0,0,0-1.23-2.74,1.75,1.75,0,0,0-2.12-.78,6.21,6.21,0,0,0-3.61,2.73,1.67,1.67,0,0,1-.18.28c-1.34,1.51-1.38,1.66-2.42,0-.52-.85-1-.92-1.84-.33a2.36,2.36,0,0,0-1.14,1.45,1.23,1.23,0,0,1-1.28,1,7.71,7.71,0,0,1-2.19-.29,16.16,16.16,0,0,0-4.21-.55,9.78,9.78,0,0,1-2.75-.76A2,2,0,0,0,5,98.83Z"/><path class="cls-10" d="M74.87,95.34a30.53,30.53,0,0,1-6.78.71,5.75,5.75,0,0,1-1.61-.24A1.79,1.79,0,0,1,65,94.19c-.16-1.34-.94-1.74-2.26-1.44a25.66,25.66,0,0,0-3.26,1.13c-2,.76-4,.52-6.08.38a52.83,52.83,0,0,0-5.85-.39l2.63,1.19a3.51,3.51,0,0,1,2.26,2.85,3.1,3.1,0,0,0,.64,1.45c1,1.26,2.14,1.42,3.61.42A17.65,17.65,0,0,0,58.91,98a2.9,2.9,0,0,1,3.69-.38c1.28.64,2.54,1.31,3.82,2a5.27,5.27,0,0,0,2.45.58,1.35,1.35,0,0,0,1.34-.77c.77-1.63,2.27-2.37,3.64-3.27A4.06,4.06,0,0,0,74.87,95.34Z"/><path class="cls-7" d="M55.44,114.58c.35-.22,1.4.31,1.74.47a13.59,13.59,0,0,0,2.37.9c.71.19,1.64.57,1.46,1.5-.22,1.19-2.51,2.39-2.55,2.41-.73.38-2-.17-2.67-.49-.84-.39-3.28-1.27-2.92-2.43S54.54,115.16,55.44,114.58Z"/></g><g class="cls-14"><ellipse class="cls-15" cx="441.25" cy="597.24" rx="1256.55" ry="124.44"/><polygon class="cls-16" points="-308.67 512.89 1096.57 512.89 1346.67 641.65 -563.01 641.65 -308.67 512.89"/><polygon class="cls-17" points="458.33 512.89 485.35 512.89 515.16 640.45 479 640.45 458.33 512.89"/><polygon class="cls-17" points="501.25 512.89 525.89 512.89 570 640.45 538.21 640.45 501.25 512.89"/><polygon class="cls-17" points="570 512.89 596.23 512.89 666.17 640.45 627.37 641 570 512.89"/><polygon class="cls-17" points="614.11 512.89 637.96 512.89 719.83 640.45 686.44 640.45 614.11 512.89"/><polygon class="cls-17" points="682.47 512.89 708.3 512.89 814.41 641 779.04 641 682.47 512.89"/><polygon class="cls-17" points="726.58 512.89 748.44 512.89 869.65 641 836.66 641 726.58 512.89"/><polygon class="cls-17" points="795.73 512.89 818.78 512.89 959.86 641 927.27 641 795.73 512.89"/><polygon class="cls-17" points="836.27 512.89 858.92 512.89 1015.89 641 983.31 641 836.27 512.89"/><polygon class="cls-17" points="903.43 512.89 929.66 512.89 1110.88 641 1073.52 641 903.43 512.89"/><polygon class="cls-17" points="947.54 512.89 971.38 512.89 1166.12 640.45 1133.13 640.45 947.54 512.89"/><polygon class="cls-17" points="1015.89 512.89 1038.94 512.89 1255.93 640.45 1220.56 640.45 1015.89 512.89"/><polygon class="cls-17" points="389.98 512.89 413.42 512.89 420.58 640.45 387.19 640.45 389.98 512.89"/><polygon class="cls-17" points="349.04 512.89 372.09 512.89 364.94 641 331.95 641 349.04 512.89"/><polygon class="cls-17" points="280.69 512.89 305.33 512.89 274.33 640.45 240.95 640.45 280.69 512.89"/><polygon class="cls-17" points="236.18 512.89 262.8 512.89 218.69 641 180.54 641 236.18 512.89"/><polygon class="cls-17" points="168.62 512.89 193.26 512.89 124.9 640.45 91.92 640.45 168.62 512.89"/><polygon class="cls-17" points="126.89 512.89 151.53 512.89 68.87 641 35.49 641 126.89 512.89"/><polygon class="cls-17" points="59.33 512.89 85.16 512.89 -20.95 641 -53.93 641 59.33 512.89"/><polygon class="cls-17" points="44.23 512.89 -76.19 641 -112.75 641 15.62 512.89 44.23 512.89"/></g><path class="cls-18" d="M-104.88,45s52.33,9.72,120.18-9c0,0,97.61-7,123.4,24.31v24.3S94,63.75,15.3,71.39c0,0-109.59,3.47-120.18,2.08Z"/><path class="cls-18" d="M.68-54.29s8.85,166-4.34,216.65l28.82,3.47S48.77,107.5,35.4,28.33c0,0-6.77-77.38,0-87.65Z"/><path class="cls-19" d="M148.77-76.11S165.59,45.76,165.51,80.14c0,0-7.37,87.49-16.74,131.24,0,0-18.75,12.5-28.12-4.17,0,0,11.45-241.65,0-283.32C120.65-76.11,138.35-90.69,148.77-76.11Z"/><path class="cls-19" d="M-132.13,201.25s191.66-14.89,293.52-3.51c0,0,13.87-22.75-5.57-28.84,0,0-83.32-30.61-246.75-1.91l-35.82-.46S-142.32,176.71-132.13,201.25Z"/></g></svg>