<svg id="Layer_1" data-name="Layer 1" xmlns="http://www.w3.org/2000/svg" viewBox="0 0 641.5 396.05"><defs><style>.cls-1{fill:#368424;}.cls-2{fill:#49301d;}.cls-3{fill:#4a331f;}.cls-4{fill:#51462a;}.cls-5{fill:#4c3d24;}.cls-6{fill:#97bf8e;}.cls-7{fill:#827164;}.cls-8{fill:#cfc9c4;}.cls-9{fill:#71b34d;}.cls-10{fill:#49311d;}.cls-11{fill:#49331e;}.cls-12{fill:#6eb14b;}.cls-13{fill:#f5f6f4;}.cls-14{fill:#6db04a;}.cls-15{fill:#dfe3da;}.cls-16{fill:#4b3821;}.cls-17{fill:#f3f4f1;}.cls-18{fill:#d8dfd3;}.cls-19{fill:#61a742;}.cls-20{fill:#554a30;}.cls-21{fill:#d9e8d6;}.cls-22{fill:#4a321e;}.cls-23{fill:#4a361f;}.cls-24{fill:#6fb24c;}.cls-25{fill:#5c4635;}.cls-26{fill:#725e50;}.cls-27{fill:#c1d9bb;}</style></defs><title>9_all_the_forest_trees</title><path class="cls-1" d="M543.81,99.19a8.55,8.55,0,0,1,5.69,5.07c1.42,3.25,4.06,4.62,7.63,4.12a24.16,24.16,0,0,0,9.89-4.06c1.18-.78,2.33-1.61,3.58-2.27,2.17-1.15,3.31-.87,4.85,1a10,10,0,0,1,.69.92c3.73,6.06,9.39,8.61,16.26,9.17,5.64.46,11,2.33,16.64,3.11a5.75,5.75,0,0,1,4.84,4.22c1,3.25,3.35,4.35,6.37,4.6a56.44,56.44,0,0,0,9.64-.19,49.5,49.5,0,0,1,7.7-.13c3.74.26,4.83,2.29,3.12,5.64a21.42,21.42,0,0,1-4.5,5.74,2.65,2.65,0,0,1-3.18.57c-1.28-.59-2.57-1.16-3.84-1.76a13.56,13.56,0,0,0-6.71-1.44,5,5,0,0,0-5,4.44,10.27,10.27,0,0,0,1.7,7.71,11.6,11.6,0,0,1,.94,1.45c1.22,2.49.28,4.3-2.45,4.76a11,11,0,0,1-4.38-.4l-18.69-4.6c-.37-.09-.75-.13-1.31-.23,1.32,2.31.08,4.08-1,5.76s-2.66,3-5.14,2.51a17.63,17.63,0,0,0-4.42-.1,4.63,4.63,0,0,0-3.77,1.67c-2.42,3.63-6.21,4-10,4.51a62.69,62.69,0,0,1-11.94.22,8.55,8.55,0,0,0-5.69,1.37,9.21,9.21,0,0,1-7.14,1.61c-2.59-.45-4.29.17-5.74,2.72-3.24,5.68-5.56,5.8-9.88.91-1.45-1.64-2.91-2.35-5.06-1.58a3.63,3.63,0,0,1-4.25-1.43,24.31,24.31,0,0,0-3.91-4.26c-3.57-2.71-7.83-1.09-8.51,3.33-.29,1.84-1.14,1-1.78.49a22.24,22.24,0,0,1-5.28-6.57c-2.07-3.6-3.13-4-7-2.52-1.32.5-2.64,1-4,1.4-2.21.62-2.85,1.7-2,3.81a30.91,30.91,0,0,0,1.77,3.11,9.57,9.57,0,0,1-7.09-1c-1.34-.76-1.24-2.06-1-3.25,1.06-4.92-1.4-8.25-4.9-11.14-.43-.36-.92-.94-1.5-.59s-.32,1.06-.22,1.6a37.61,37.61,0,0,0,2.06,6c.93,2.46.24,3.48-2.41,3.58h-.38c-4,0-4.48-.52-3.93-4.47.22-1.62.92-3.26,0-4.89-1.34-.6-1.68.56-2.26,1.28-.37,1.22-.71,2.45-1.1,3.66-.16.51-.4,1.09-1,.34-1-1.26-2.11-.61-3.08,0-3.52,2.05-7.41,1.72-11.22,1.87-.17,0-.34-.14-.63-.27,1.14-1.14,2.85-1.66,3.24-3.39-.55-2.69-.55-2.69-2.46-2.34-1.82,2.07-3.57,4.23-6.59,4.52-1.43.13-3.35.81-4-.73s1.27-2.09,2.28-2.89,2-1.4,2.93-2.15c.44-.34.77-.92-.1-1.08-1.37-.25-1.61-1.46-2.25-2.34a5.66,5.66,0,0,0-4.64,1.8c-1,.93-2,2-3,2.94-.67.59-1.4,1.31-2.37.81s-.93-1.62-.78-2.56a15,15,0,0,1,1.65-5.08c.37-.67.85-1.34.08-2.06-2-1.17-2.65-1.17-4.22.3a4.06,4.06,0,0,1-3.24,1.27c-1.57-.1-1.88.44-1.35,2,.41,1.2,1.27,2.21,1.46,3.51a1.1,1.1,0,0,1-1,.9,8.42,8.42,0,0,1-4-2.14,3.58,3.58,0,0,0-4.43-.39l-1.5.85c-2.52,1.42-3.07,1.4-5.22-.58-1.84-1.69-4-1.45-6.16-1.14-3.24.47-6.3,1.73-9.56,2.1a22.53,22.53,0,0,1-7.55-1.12,3.74,3.74,0,0,0-4.13.7c-3,2.63-6.36,3-10.06,1.63-2.24-.84-4.28-.6-5.76,1.61a2.93,2.93,0,0,1-3.73,1.16,4.09,4.09,0,0,0-4.29.87,16.64,16.64,0,0,0-2.77,2.38c-3.65,4.6-8.52,4.94-13.78,4.11-1.3-.2-2.57-1-3.93-.26-1.29-.12-1.82-1.48-3.09-1.8a3.43,3.43,0,0,0-2.67,0c-4,.38-8.06.77-11.62,3a2.67,2.67,0,0,1-2.24.17,35.85,35.85,0,0,1-9-3.44c-1.13-.65-2.23-1.36-1.92-3,.23-1.25-.75-.94-1.37-1-2.57-.13-5.14.2-7.7-.26-1.36-.25-2.71-.37-1.73-2.36.37-.73-.25-1.21-.84-1.51-2.22-1.14-3.83-3-5.54-4.74a1.39,1.39,0,0,1,.5-1.58c2.44-1.62,5.39-2,8-3.33.75-.38,2.05-.43,2-1.47-.06-.86-1.29-.87-2-1.2-1-.47-2.28-.48-3.09-1.44,0-1,.78-1.36,1.53-1.7,1.48-.69,3.1-1.16,3.42-3.18.11-.7.85-.86,1.55-.74a20.72,20.72,0,0,1,2.58.65,47.56,47.56,0,0,0,6.36,1.55,7.46,7.46,0,0,0,3.05-.17c2.29-.61,2.45-.88,1.67-3-.51-1.42.5-1.73,1.48-1.87a36.06,36.06,0,0,1,5.2-.1,12,12,0,0,0,4.38-.53c.73-.28,1.53-.64,1.51-1.54s-1-.89-1.6-1.08a20.18,20.18,0,0,1-4-1.27c-1.55-.86-1.57-1.68-.12-2.69.55-.39,1.49-.54,1.31-1.44s-1-.92-1.63-1.22c-.29-.14-.59-.25-.88-.39-.53-.26-1.11-.56-1.1-1.22,0-.81.74-1,1.34-1.17,2-.58,4.08-1,5.85-2.37,1.14-.86,2.2-.07,3,.89a17.65,17.65,0,0,1,2,3.53c.26.52.51,1.12,1.2,1.13s1-.66,1.3-1.24c.45-.86.26-2.34,1.58-2.37s1.64,1.28,2.2,2.2c.35.59.63,1.46,1.55.8s1.34-1.34.51-2.26c-1.31-1.46-1.3-3.14-.95-4.9,1.45-7.25-2.21-12.19-7.46-16.4-.34-.28-.76-.59-1.22-.36s-.38.9-.3,1.38a37.42,37.42,0,0,0,2.46,7.5,14.46,14.46,0,0,1,1.16,3.47c.27,2.09-.48,3.27-2.49,4-2.51.85-5,.38-7.41-.24-1.34-.34-1.8-1.53-1.92-2.85a21.67,21.67,0,0,1,.52-5.74,14.05,14.05,0,0,0,.15-4c-.08-.79-.31-1.64-1.22-1.75s-1.12.75-1.37,1.39c-.71,1.8-1,3.73-1.55,5.57-.68,2.25-1.11,2.41-3.16,1.22a2.67,2.67,0,0,0-1.48-.36c-1.9.35-3.47,1.45-5.18,2.23a10.36,10.36,0,0,1-3.72.94c-3.14.25-6.26.62-9.41.6-.76,0-1.7,0-2-.85s.67-1.27,1.27-1.69a8.93,8.93,0,0,0,3.2-3.26,3.54,3.54,0,0,0,.41-2.6c-.25-.81-.55-1.65-1.46-1.9s-1.28.45-1.78.93c-1.14,1.13-2.05,2.47-3.2,3.6a11,11,0,0,1-5.82,3.19c-2.52.55-5,1.25-7.42-.44a2.19,2.19,0,0,1-.3-1.81,6.14,6.14,0,0,1,2.79-3.23c1.31-.89,2.63-1.76,3.93-2.66l.31-.2c.5-.36,1.22-.65,1.2-1.31,0-.89-1-.71-1.54-1.07a3.2,3.2,0,0,1-1.42-1.51c-1.18-2.27-1.18-2.27-3.62-1.69-2.76.87-4.66,2.88-6.6,4.86a16.47,16.47,0,0,1-3.41,3.1c-1.77,1-2.94.41-2.92-1.63a19.56,19.56,0,0,1,2.75-9.9c1.14-1.91.95-2.54-1.08-3.57-2.2-1.1-3.69-1-5.36.86s-3.08,2.7-5.55,2c-1.67-.51-2.52.55-2.15,2.33s1.33,3,2,4.57c.33.76.87,1.57.19,2.33s-1.68.29-2.48,0A18.18,18.18,0,0,1,252,91.6a4.65,4.65,0,0,0-5.68-.69c-1.5.75-2.88,1.7-4.4,2.4-2.64,1.2-4,.92-5.9-1.29s-4.21-2.53-6.83-2.15A14.17,14.17,0,0,0,223,91a15.69,15.69,0,0,0-4,.77,26.93,26.93,0,0,1-16.09.32c-.56-.16-1.14-.22-1.68-.43a7.68,7.68,0,0,0-8.37,1.65c-3.8,3.32-8.12,3.82-12.78,2.18-.91-.32-1.84-.58-2.78-.81a6.51,6.51,0,0,0-3.76,0c-1.57.35-2.46,1.54-3.39,2.7-2,2.53-2.77,2.79-5.76,1.68a5.77,5.77,0,0,0-5.78,1c-3,2.19-5.45,5.06-8.35,7.41a16.17,16.17,0,0,0-3.13,2.83c-.38.52-.87,1.06-.58,1.74s1.06.61,1.69.64c3.43.13,6.57-1,9.63-2.37a17.52,17.52,0,0,1,4.21-1.35,3.32,3.32,0,0,1,3.47,1.15,3.43,3.43,0,0,1,.17,3.49,5.46,5.46,0,0,1-1.22,1.94c-1.16,1.14-.77,2,.39,2.82a16.74,16.74,0,0,0,6.23,2.46,23.65,23.65,0,0,1,8,3.12c3.06,1.94,3.25,3.27.85,5.82.65,1.33,1.93.92,3,1.1,2.7.74,5.53.82,8.22,1.6,1.08.31,2.34.59,1.94,2.24-2.77,1.43-5.83,1.7-8.84,2.17a13.51,13.51,0,0,1-6.39-.59,31.64,31.64,0,0,0-7.85-1.59,26.13,26.13,0,0,0-10.57,0c-.5.22-1.17.11-1.51.83a4,4,0,0,0,2.3,1.13c2.43.6,4.88,1.16,7.29,1.84a7.21,7.21,0,0,1,1.76.76c1.46.9,1.45,1.88,0,2.72a11.28,11.28,0,0,1-1.06.46c-2.09.9-2.22,1.79-.37,3.24a41.68,41.68,0,0,0,4.28,3c2.24,1.37,4.64,2.41,6.86,3.86,2.44,1.61,5.48,1.68,8.37,1.87,1.28.09,2.57,0,3.85,0,1.66.06,3.1,0,4-1.85.59-1.16,2.09-1.25,3.29-1.18a46.37,46.37,0,0,1,8.78,1.11c.94.24,2,.55,2.12,1.68s-.86,1.62-1.71,2.05a40.63,40.63,0,0,1-7.44,2.64c-1.62.46-1.67.67-.72,2.07.29.42.64.8.92,1.23a3.24,3.24,0,0,1-1,4.84c-2.09,1.44-4.52,1.76-7,1.94-1.22.09-2.44,0-3.66,0a33.58,33.58,0,0,0-8.73-.15c-.77.07-1.51-.1-2.26-.08-1.8-.35-3.37.47-5,.95-.74.22-1.46,1.08-2.26.23s-1.4-1.7-.91-2.93a3.16,3.16,0,0,0,.08-.76c.22-1.57,1.54-2.5,2.24-3.79a18.72,18.72,0,0,0,1.35-1.6c1.89-2.7,1.32-4.24-1.94-5a28.69,28.69,0,0,0-5.85-.78c-1.95-.72-2-.73-.72-2.26,1.26-2.23.78-4-1.28-4.83a56.49,56.49,0,0,1-8.27-2.45c-.8-.41-1.45-1.06-2.28-1.44a3.41,3.41,0,0,0-2.61-.37,15.75,15.75,0,0,1-5.31,1.53c-1,0-.83,1-.66,1.68a22.86,22.86,0,0,0,1.6,4.14,24.73,24.73,0,0,1,1.68,4.3c.57,2.28-.52,3.46-2.76,2.89-3.6-.91-6.73-2.56-8.5-6.07a4.82,4.82,0,0,0-2.06-2.22c-2.14-1.12-3.2-.73-4.16,1.48a14.94,14.94,0,0,1-3.38,5.33c-.48.43-1,.92-1.7.62a1.84,1.84,0,0,1-.94-1.59,16.23,16.23,0,0,1,.2-2.87c0-2.48-1.36-3.64-3.57-2.62-5.25,2.42-10.9,2.21-16.42,2.92-1.13,0-2.26,0-3.39,0-.55,0-1.27,0-1.41-.68s.51-.92,1-1.17a6.52,6.52,0,0,1,1.24-.44,15.54,15.54,0,0,0,10.49-9.57c-4.13,2.9-9,4.24-13.59,6.28-2.64.84-5,2.32-7.8,2.82-2.07.3-3.75,1.59-5.66,2.3-1.24.46-2.72,1.48-3.76.41s.13-2.61.68-3.86a28,28,0,0,1,1.42-2.44c-3.28.63-6.35,1-9,2.72-1.63,1-1.85,2.42-.59,3.9a42.11,42.11,0,0,0,3.19,3.07,15.52,15.52,0,0,1,3.47,4.34,3,3,0,0,1-1,4.06c-3.32,2.49-5.49,2.3-8.17-.84-2.94-3.46-4.9-7.52-7-11.51-1-2-2.05-4-3.27-5.9-.42,1.45.12,2.81.32,4.18a17.68,17.68,0,0,1-.19,7.83A6.32,6.32,0,0,1,54,163.11,10.9,10.9,0,0,1,48.64,161c-5.08-4.13-11.07-5.16-17.34-5.36a95.68,95.68,0,0,1-11-.8,13.74,13.74,0,0,1-3-.78,3.79,3.79,0,0,1-2.77-4.33c.14-2,.52-3.95.66-5.93.2-2.82-.81-3.65-3.56-3-1.5.35-3,.76-4.48,1.13a9.5,9.5,0,0,1-3.64.19,3.83,3.83,0,0,1-3.44-2.42c-.56-1.62.59-2.68,1.74-3.54,3.7-2.79,8.06-4.17,12.4-5.58.85-.27,1.73-.48,2.58-.78C19,129,19.49,128,18.6,125.94c-.56-1.29-1.31-2.49-1.92-3.76-1.42-2.93-1-4.53,1.62-6.49a10.63,10.63,0,0,1,5.62-1.77c2.75-.24,5.51-.39,8.25-.74s3.69-1.85,2.74-4.63c0-.06,0-.11-.07-.17-.26-1.16-1.6-2.45-.82-3.35.95-1.08,2.53,0,3.81.2a27,27,0,0,0,7.44.73,9.7,9.7,0,0,0,4.67-1.65,7.84,7.84,0,0,1,8.22-.66,23.17,23.17,0,0,1,4.21,2.3c2.76,2,5.69,2.12,8.81,1.26A44.08,44.08,0,0,0,82.51,102c.43-.27,1-.5.91-1.1s-.81-.58-1.29-.65c-3.45-.48-6.93-.15-10.4-.23A31.87,31.87,0,0,1,66,99.71c-.44-.09-1-.07-1.13-.56s.36-.75.68-1.05c1.89-1.83,1.91-2.6-.43-3.62-3.43-1.5-5.81-4.14-8.28-6.76-.92-1-.6-1.49.38-2a32.8,32.8,0,0,1,6-2.58,46,46,0,0,0,8.38-3.37c.61-.34,1.36-.7,1.38-1.48,0-.94-.84-1.26-1.54-1.51-2.05-.76-4.12-1.43-6.18-2.14-.47-.16-1.12-.22-1.08-.88s.58-.63,1-.8c1.59-.68,3.22-1.27,4.77-2,1.26-.63,2.23-1.51,1.63-3.22-.36-1,.33-1.36,1.26-1.32a16.47,16.47,0,0,1,4.11,1,56.58,56.58,0,0,0,9.5,2.43,12.4,12.4,0,0,0,8-1.2c2.26-1.29,2.33-2.85.28-4.44-.38-.31-1.06-.49-.86-1.12s.89-.67,1.44-.75a68.16,68.16,0,0,1,10.2-.42,17.74,17.74,0,0,0,4.6-.38,5.93,5.93,0,0,0,3.26-1.92c1.54-1.9,1.15-3-1.2-3.47a33.1,33.1,0,0,1-7.73-2.31c-.62-.3-1.42-.55-1.35-1.43s.87-.84,1.4-1.15l.18-.08c1.28-.63,3.29-.88,3.21-2.57s-2-2-3.34-2.56c-.87-.41-1.78-.73-2.67-1.1-.4-.17-1-.28-1-.79s.59-.62,1-.73c1.42-.4,2.86-.75,4.29-1.11a11,11,0,0,0,5.6-2.78c1.11-1.14,2.24-.56,3.17.43a20.92,20.92,0,0,1,3.23,5.66c.58,1.22.84,3,2.68,2.85s2.34-1.81,2.86-3.25c.28-.78.37-1.63.58-2.44.3-1.15.92-1.11,1.61-.34a17,17,0,0,1,2.47,4.33c.77,1.65,1.61,1.83,2.89.56a8.53,8.53,0,0,0,2.44-4.52,3.89,3.89,0,0,1,3.54-3.27c2.27-.43,4.56-.77,6.84-1.15a9.73,9.73,0,0,0,3.09-1c2-1.1,2.32-1.93,1.21-4-.6-1.12-.13-1.54.83-1.77,1.3-.32,2.66-.48,3.94-.88,2.23-.69,2.84-2,2-4.13a16,16,0,0,0-1.46-2.7c-.84-1.31-.35-1.81,1-1.66,3.25.38,6.49.84,9.74,1.29a26.42,26.42,0,0,0,6,.18c.9-.08,1.87-.29,2.21-1.27s-.47-1.67-1.18-2.21-1.67-1.14-2.55-1.74c.7-.49,1.3.05,1.88.23a149,149,0,0,0,17.87,4.66c3.93.67,5.45-.58,5.92-4.54.25-2.1.47-4.21.82-6.3a12.11,12.11,0,0,1,1.86-4.82,4.15,4.15,0,0,1,5.15-1.9,23.61,23.61,0,0,1,5.79,3c3.74,2.3,7.49,4.45,12,5,4.09.55,5.87-.17,7.92-3.81a25.21,25.21,0,0,1,5.87-7.57c2-1.62,2.89-1.33,3.22,1.24s.4,5,.59,7.49a11.18,11.18,0,0,0,.11,1.15c.85,5.24,3.62,6.79,8.49,4.65a32.5,32.5,0,0,0,8.39-5.42c3.08-2.73,2.84-4.08-1-5.57a10.18,10.18,0,0,1,8.8,3,16.22,16.22,0,0,0,11.6,4.37,9.65,9.65,0,0,0,7.43-3.07c1.24-1.3,2.38-2.71,3.66-4,3.36-3.3,7.55-3.3,11,0,.7.66,1.3,1.42,2,2.12,1.19,1.27,2.3,2.62,3.58,3.78,4.56,4.13,8.43,4,12.83-.23A71.07,71.07,0,0,0,321,4.05a15.38,15.38,0,0,1,3-3.2c1.87-1.35,3.45-1.09,4.79.79a18,18,0,0,1,2.45,5.42,6.65,6.65,0,0,0,5.12,4.69c4.92,1.32,9.93,1.16,14.94.91.65,0,1.29-.17,1.93-.15,4.12.12,6.87-1.72,8.65-5.48,1.93-4.09,4.88-5.36,9.35-4.49,2.84.55,3.6,2,2.26,4.53A45.82,45.82,0,0,1,371,10.93c-.45.68-1.11,1.24-1.21,2.13,9.36,1.88,19.11-.43,21.34-11.85,2.68,4,6.95,5.42,11.05,7,5.1,1.93,10.4,3.35,15.41,5.46a93.16,93.16,0,0,0,17,5.42,13.56,13.56,0,0,1,10.32,8.62c1.95,4.8,6.62,6.66,12.63,5.47a38.18,38.18,0,0,0,14.13-6.35,35.6,35.6,0,0,1,5.23-3.24c2.87-1.28,4.45-1,6.44,1.46q1.71,2.08,3.29,4.28A24.26,24.26,0,0,0,503.75,39.7c7.65,1,15.19,2.5,22.71,4.17,2.69.6,5.49.64,8.15,1.41,3,.86,5.6,2.5,6.47,5.54,1.8,6.32,6.54,7.67,12.16,7.9a112.59,112.59,0,0,0,12.32-.5c3.67-.26,7.33-.32,11-.23a12.15,12.15,0,0,1,2.47.35c3.43.78,4.75,2.82,3.62,6.08-1.63,4.68-4.84,8.27-8.59,11.41a3.1,3.1,0,0,1-2.93.43,35.69,35.69,0,0,1-5.8-2.55,22.72,22.72,0,0,0-9.57-2.63c-6,0-9.38,3.38-9.16,9.37A15.39,15.39,0,0,0,549.8,90a8.53,8.53,0,0,1,1,1.63c2,3.93.21,7-4.17,7.27-.95.07-1.92,0-2.88.05-.23-.07-.44-.16-.67-.22A4.23,4.23,0,0,1,543.81,99.19Z"/><path class="cls-1" d="M378.6,176.1a11.42,11.42,0,0,1,6.28,6.35c1.06,2.51,4,3.54,7.08,3.11a24.14,24.14,0,0,0,9.9-4.06c1.18-.78,2.33-1.61,3.57-2.27,2.18-1.16,3.32-.88,4.86,1a9,9,0,0,1,.69.93c3.73,6.06,9.38,8.62,16.26,9.17,5.64.46,11,2.34,16.64,3.11a5.74,5.74,0,0,1,4.84,4.21c1,3.26,3.35,4.37,6.37,4.62a58.56,58.56,0,0,0,9.64-.19,50.91,50.91,0,0,1,7.71-.14c3.73.26,4.82,2.29,3.12,5.64a21.42,21.42,0,0,1-4.5,5.74,2.65,2.65,0,0,1-3.18.58c-1.28-.59-2.57-1.16-3.84-1.76a13.44,13.44,0,0,0-6.7-1.44,5,5,0,0,0-5,4.43,10.32,10.32,0,0,0,1.7,7.71,10.25,10.25,0,0,1,.94,1.45c1.23,2.49.29,4.31-2.44,4.76a10.81,10.81,0,0,1-4.38-.4c-6.23-1.52-12.46-3.07-18.69-4.6-.37-.09-.75-.13-1.3-.22,1.3,2.31.07,4.07-1.06,5.75s-2.65,3-5.14,2.52a12.26,12.26,0,0,0-5.74.14,4.16,4.16,0,0,0-2.47,1.41c-2.31,3.6-6.06,4-9.75,4.51a59.94,59.94,0,0,1-11.75.25,9.77,9.77,0,0,0-6.58,1.65,8.62,8.62,0,0,1-5.87,1.41c-1.09-.08-2.18-.11-3.27-.19a2.16,2.16,0,0,0-2.28,1.37,19.22,19.22,0,0,1-2.9,4.3c-1.7,1.82-3.24,2-5.29.57A14.41,14.41,0,0,1,363,244.6a3.54,3.54,0,0,0-4.28-1.25,3.92,3.92,0,0,1-4.76-1.49,22.24,22.24,0,0,0-3.77-4.1c-3.57-2.71-7.81-1.09-8.51,3.33-.2,1.23-.66,1.27-1.48.71s-1.39-1.11-2.08-1.67c-2-1.13-2.89-3.2-4-5-1.8-2.95-2.67-3.37-6-2.27-1.4.47-2.75,1.06-4.17,1.49-1.92.58-2.38,1.57-1.67,3.48a8.8,8.8,0,0,0,.73,1.35c.86,1.52.47,2.47-1.19,2.39s-3.67.31-4.95-1.41c-1.51-.73-1.83-2-1.58-3.51a10.73,10.73,0,0,0,.05-4.55,5.94,5.94,0,0,0-2.34-3.58,20,20,0,0,0-3.64-3.77c-1.44.29-.72,1.39-.56,2a55.75,55.75,0,0,0,1.84,5.27c1.15,3,.45,4-2.8,4-.51,0-1,0-1.54-.07-2-.16-2.71-.94-2.46-3,.15-1.21.43-2.41.59-3.61a4.57,4.57,0,0,0-.14-2.29c-.21-.54-.48-1.13-1.16-1.14s-.86.53-1,1c-.45,1.47-.84,3-1.29,4.43-.23.77-.49,1.37-1.34.38s-1.95-.36-2.8.14c-3.52,2.08-7.43,1.74-11.25,1.91a1.85,1.85,0,0,1-.55-.22c.28-.77,1.07-.87,1.57-1.32a4.59,4.59,0,0,0,1.86-2.82,2.29,2.29,0,0,0-1.13-2.47c-1-.54-1.52.45-2,1.06a9.18,9.18,0,0,1-7.88,4.43c-1,0-2.16.16-2.5-.94s.71-1.58,1.41-2.11c1.13-.86,2.31-1.63,3.46-2.46.86-.63,1.45-1.28-.14-1.73a1.43,1.43,0,0,1-1.13-.95c-.48-2.14-1.85-1.67-3.27-1.19-1.93.65-3.05,2.29-4.47,3.57-.86.77-1.68,2.37-2.89,1.7-1-.56-.26-2.11-.07-3.22a13.24,13.24,0,0,1,1.28-3.82c.39-.78,1.57-1.54.41-2.47s-2.47-1.69-4.07-.94a.46.46,0,0,0-.16.11c-1.3,1.52-2.65,2.61-4.93,1.92-.91-.27-1.31.79-1.14,1.77a11.23,11.23,0,0,0,1.47,3.32c.25.45.61,1,.15,1.4s-.89,0-1.23-.21a20.53,20.53,0,0,1-3.22-2.11,3.43,3.43,0,0,0-4.26-.37c-1,.54-2,1.15-3,1.65-1.23.58-2.35.58-3.17-.76a4.08,4.08,0,0,0-3.63-1.8,22.61,22.61,0,0,0-8,1.29,18.4,18.4,0,0,1-11.91-.11,4.81,4.81,0,0,0-5.18,1c-2.68,2.41-5.64,2.71-9,1.46s-5.32-.69-6.83,2a2.21,2.21,0,0,1-3.19.78c-2-1-3.61-.36-5.12,1a25.89,25.89,0,0,0-3,2.74c-3.24,3.89-7.48,4.43-12.09,3.72a31.47,31.47,0,0,1-8.49-2.42,2.36,2.36,0,0,0-1.64-.22c-3.26.71-6.54,1.32-9.78,2.12-.95.24-2.24.15-2.62,1.57-.11.39-.69.21-1,.12a37.11,37.11,0,0,1-10-3.79c-1.08-.65-2.65-1.34-.81-3,.7-.62-.17-.8-.63-.84-1.08-.1-2.18-.13-3.27-.15-2,0-4,0-6-.11-1-.07-3.36.4-1.14-1.91.79-.81-.23-1.39-.9-1.69a17.35,17.35,0,0,1-5-3.88c-1.31-1.31-.87-1.86.52-2.4,2.15-.83,4.32-1.6,6.45-2.51,1.18-.5,3.14-.66,3-2.14-.08-1.26-2-1.25-3.18-1.73a8.85,8.85,0,0,1-2.57-1c.88-1.06,2.26-1.1,3.32-1.7s1.95-.9,1.7-2.4.89-.93,1.56-.78c2.88.64,5.61,1.83,8.57,2.17a8.68,8.68,0,0,0,4.71-.64c1.76-.8,2-1.78.55-3.11-1-1-.25-1.22.48-1.27,2.12-.15,4.24-.21,6.36-.24a13.51,13.51,0,0,0,3.81-.42,3.21,3.21,0,0,0,2-1.47c.56-1,.67-1.74-.87-2a18.85,18.85,0,0,1-5.34-1.57c-.39-.19-.86-.4-.8-1s.5-.54.84-.72c.87-.46,2.3-.58,2.25-1.76s-1.53-1.37-2.46-1.87c-.67-.35-1.49-.41-2.1-1.08.5-.71,1.31-.68,2-.88,1.84-.53,3.79-.76,5.23-2.25.9-.93,1.63,0,2.4.34,1.28.81,1.59,2.25,2.28,3.45.32.61.51,1.45,1.38,1.4s1.13-.93,1.41-1.64c.13-.36.19-.75.35-1.1.55-1.22,1.21-1.33,2.18-.35a8.4,8.4,0,0,1,1.13,1.78c.71,1.2,1.23,1.21,2.11.09a5.75,5.75,0,0,0,.91-1.9,3.7,3.7,0,0,1,3-2.61,41.82,41.82,0,0,0,4.73-.85c1.34-.45,2.52-.92,2-2.83-.36-1.33.91-1.43,1.81-1.73,1.09-.35,2.6-.16,2.59-2a6.83,6.83,0,0,0-.71-2c-.59-1.43,0-2.25,1.53-2.1,2.09.19,4.15.62,6.24.83,1.54.16,3.16.6,4.58-.49.09-.83-.69-1-1.11-1.43-.21-.22-.57-.42-.45-.76s.58-.45,1-.45a5.42,5.42,0,0,1,1.49.31,62.47,62.47,0,0,0,8.2,2c.43.13.82.35,1.25.47,3.14.91,4.17.24,4.62-3,.35-2,.35-4.1,1.34-6,1.24-2.39,3.14-3.11,5.59-1.92,1.62.78,3.1,1.82,4.67,2.69a13.9,13.9,0,0,0,5.89,2.15c2.14.31,3.78-.38,4.58-2.54a4.51,4.51,0,0,1,.48-.72,24,24,0,0,1,3.15-3.89,2.14,2.14,0,0,1,2.27-.65c.85.34,1,1.12,1.09,1.9.28,1.59.31,3.2.48,4.79.37,3.47,1.87,4.38,5.07,3.12a19.21,19.21,0,0,0,5.33-3.43c1-.81,1.38-1.75,0-2.61-.26-.16-.61-.36-.47-.74s.58-.49.95-.5a7.74,7.74,0,0,1,5.57,2.28,9.88,9.88,0,0,0,4.94,2.42,7.41,7.41,0,0,0,8-2.92,8.56,8.56,0,0,1,2.73-2.39,5.18,5.18,0,0,1,6.08.69c1.1,1,2.05,2.13,3.21,3.06.62.56,1.09,1.26,1.75,1.79a4.68,4.68,0,0,0,5.88.16,22.6,22.6,0,0,0,4.3-4.65,27,27,0,0,1,2.5-2.94c2.22-2.05,3.91-1.74,5.3,1a20,20,0,0,1,1.1,2.67,3.81,3.81,0,0,0,2.84,2.63,32.17,32.17,0,0,0,13.57.22,3.42,3.42,0,0,0,2.49-2.24c1.19-2.76,3.39-4.07,6.21-4.59,3.94,2.06,4.07,2.49,1.79,6.15-.89,1.44-.8,1.63.84,1.88a5.88,5.88,0,0,0,2.47-.15c4.23-.36,7-2.51,8.25-6.61.26-.87.65-1.77,1.67-.7,2,2.12,4.69,3.1,7.33,4.05,3.25,1.16,6.53,2.28,9.83,3.32a31.84,31.84,0,0,0,9.24,3.18A4.1,4.1,0,0,1,378.6,176.1Z"/><path class="cls-2" d="M316.91,240.13c1.44.83,3.09.7,4.64,1a2,2,0,0,0,1.59-.47c.47-.5-.33-.82-.54-1.23a12.29,12.29,0,0,1-1-2.05c-.59-2,0-2.9,2-3.5s4.11-1.36,6.18-2a3.14,3.14,0,0,1,4,1.7,65,65,0,0,0,4.32,6.55,160.78,160.78,0,0,0-.79,35.76c.7,7.49,2.08,14.88,3.23,22.29,2.58,16.55,4,33.13,2.8,49.91A84.88,84.88,0,0,0,345,374.15c1.68,7.1,3.4,9.52,9.32,13.5-2.64,1-5.22.46-7.78.18a24.19,24.19,0,0,1-2.65-.49c-2.8-.62-2.82-.62-2.86,2.23a15.07,15.07,0,0,0,.6,4.37c.11.4.56.85.11,1.24s-1,.07-1.4-.2c-1.78-1.14-3.55-2.31-5.31-3.48-7.85-5.22-4.93-4.82-12.27.19a15.68,15.68,0,0,0-4.6,4.36,9.45,9.45,0,0,1-1.37-9.37c.6-1.55,0-1.78-1.21-1.88-3.29-.27-6.54.24-9.81.45-.38.17-.45,0-.38-.34a23.47,23.47,0,0,0,7.39-3.63,10.54,10.54,0,0,0,4.51-8.34c.6-23.9,1.33-47.8,1.16-71.71C318.26,280.85,317.81,260.48,316.91,240.13Z"/><path class="cls-2" d="M378.6,176.1c-4.17-.77-8.37-1.45-12-3.86.36-1.26,1.48-1.5,2.52-1.77q3.45-.87,6.82-2a11.31,11.31,0,0,0,7.8-8.29,24.6,24.6,0,0,0,.9-6.44A16.81,16.81,0,0,1,386,148a2,2,0,0,1,1.1-1.26,30.75,30.75,0,0,0,7.86,1.17c.38.78,0,1.51-.17,2.24-.87,4.37.54,8.21,4.41,10.39,6.21,3.5,10.86,3,15.19-1.42,2.82-2.89,6-5.34,9-8.12a6.33,6.33,0,0,1,2.38-1.58l.73-.61c.12-1.08,1-1.64,1.68-2.24,2-1.74,3.78-3.78,6-5.24,1.36.55,1,1.42.39,2.29a13.93,13.93,0,0,0-1.87,5.58c-.12.65-.33,1.54.43,1.93s1.32-.28,1.81-.74c1.12-1.06,2.13-2.22,3.29-3.23,1.37-1.21,2.87-2.17,4.83-1.29a6.42,6.42,0,0,0-4.21,2.8c-1.86,2.45-3.8,4.86-5.52,7.4-5.83,8.58-13.86,12.86-24.23,13.51a109.61,109.61,0,0,0-23.13,3.72A42.86,42.86,0,0,0,378.6,176.1Z"/><path class="cls-2" d="M102.35,151c-.65.73-1.85.43-2.7,1.6h5.1c4.72,1.24,9.44,2.39,13.78,4.76A43.16,43.16,0,0,1,131.12,167a5.26,5.26,0,0,0,5.33,1.82c4.74-.79,9.06-2.79,13.44-4.62,1.36-.56,2.7-1.19,4.08-1.72a4.5,4.5,0,0,0,3-4.45,31.89,31.89,0,0,0-1.42-10.63c-.21-.72-.61-1.44-.14-2.22.1-.07.24-.24.29-.21,2.55,1.19,5.38,1.51,8,2.55a6,6,0,0,1,1.56,5.34c-.69.72-1.47,1.46.36,1.59a3.35,3.35,0,0,1,.77,3.23c-.46,1.89.47,2.68,2,3.29,1.28.49,2.79.52,3.78,1.67a14.57,14.57,0,0,1-2.41,3.47c-6.55-.62-12.38,1.55-17.93,4.71-3.34,1.9-6.64,3.86-9.93,5.85a10,10,0,0,1-11.35,0,134.18,134.18,0,0,1-17.09-11.77,94.58,94.58,0,0,0-17.11-11.34,28.88,28.88,0,0,1-5.38-3.3,35.84,35.84,0,0,1,7.89-3.22A6.88,6.88,0,0,1,102.35,151Z"/><path class="cls-2" d="M203.45,178c-.29,1.17-1.26,1.09-2.14,1.14-3.09.16-6.08-.61-9.11-1-.58-.07-1.19-.3-1.61.2s.29,1,.43,1.5c.19.68,1.09,1.2.48,2.07-.78.62-1.6.26-2.39.06a28.9,28.9,0,0,0-9.17-.74,8.53,8.53,0,0,0-6.74,3.54c-1.69,2.35-3.11,4.86-4.62,7.32-.35.57-.53,1.36-1.43,1.36l-2-3.51c1.89-9.4,10.05-16.78,18.17-16.26a16.14,16.14,0,0,0-5.44-5.07c3.74-1.06,7.52-.79,11.3-.27,1.44.59,2.08,2,3.19,3,2.8,2.36,5.65,4.61,9.27,5.61A3.22,3.22,0,0,1,203.45,178Z"/><path class="cls-3" d="M450.76,150.54c.41-.52.74-1.38,1.6-.81a2.29,2.29,0,0,1,.86,3.15Z"/><path class="cls-4" d="M309.4,224.72c1.61.87,3.21,1.75,3.64,3.77A11.31,11.31,0,0,1,309.4,224.72Z"/><path class="cls-5" d="M467,150.71c.55-2.24.92-2.45,2.26-1.28Z"/><path class="cls-6" d="M543.81,99.19l-1.89-.5c.78-.25,1.36-.4,1.84.21A.41.41,0,0,1,543.81,99.19Z"/><path class="cls-7" d="M305.34,384.91l.38.34a2.81,2.81,0,0,1-2,.3c-.15-.08-.2-.15-.15-.22a.22.22,0,0,1,.16-.1Z"/><path class="cls-8" d="M303.78,385.23a.44.44,0,0,0,0,.32,1.67,1.67,0,0,1-1.81.18Z"/><path class="cls-2" d="M288.34,170.31a9.73,9.73,0,0,1-2.49-2.38c-2.52-3.07-6.22-2.29-8.44.39-4.08,4.91-9.3,5.31-14.17,1a7.91,7.91,0,0,0-5.88-2.12c.63.7,1.93.57,1.94,1.68a2.88,2.88,0,0,1-1.4,2.21c-2.09,1.6-4.16,3.21-6.79,3.91-2.11.55-3.47-.18-4.08-2.29s-.31-4.46-.75-6.67c-.12-.56,0-1.21-.67-1.48s-1.2.09-1.73.53c-1.36,1.12-2.18,2.67-3.28,4a2.83,2.83,0,0,1-1.77-.64A53.66,53.66,0,0,0,227,162.41c-.64-.22-1.65-.42-1.53-1.19.16-.93,1.23-.7,2-.73,1.48-.06,2.95,0,4.43,0a19.56,19.56,0,0,0,5.69-.9c3.37-1,3.85-2.86,1.54-5.49a23.62,23.62,0,0,0-6.35-5,66.58,66.58,0,0,0-22-7.83,25.85,25.85,0,0,0-6.15-.12,70.6,70.6,0,0,1-28.15-3,20.83,20.83,0,0,1-4.85-2.33c-.64-.41-1.34-.8-1.42-1.7a19.5,19.5,0,0,1,7.44,1.42c3.59,1.35,7,.61,10.54.09,1.65-.25,3.12-1.2,4.83-1.05,1.39-.78,2.82-.16,4.15.06a15.14,15.14,0,0,0,6.3-.3,21.27,21.27,0,0,1,9.94,0,116.31,116.31,0,0,1,33.36,12.8c.53.3,1.05,1.06,1.67.64s.38-1.32.2-2a37.13,37.13,0,0,0-6.43-12.65,20.48,20.48,0,0,0-3-3.28,9.71,9.71,0,0,0-6.73-2.4,60.44,60.44,0,0,1-13.63-.77c-5.87-1.18-9.78-4.41-10.83-10.52a5.67,5.67,0,0,0-5-4.9,41.39,41.39,0,0,0-10.95-.19c-5.44.42-10.84,1.27-16.31,1.36a15.76,15.76,0,0,1-4.38-.61c-2.87-.77-4.14-2.43-3.5-5.47a38.47,38.47,0,0,1,4.71-11.55,2.42,2.42,0,0,1,.69-.66,4.59,4.59,0,0,1,3.95,0c.41.65.07,1.24-.14,1.84s-.51,1.45-.73,2.19c-1.07,3.75-.17,5.09,3.76,5.49,4.6.47,9.22.58,13.84.78s9.48.47,14.07,1.93c3.94,1.24,6.86,3.37,7.73,7.72a7.07,7.07,0,0,0,4.06,4.86,24.78,24.78,0,0,0,8.7,2.34,30.85,30.85,0,0,0,5.56.43c5.41-.4,10.22,1.61,15.13,3.31,2.3.79,3.8,2.53,5.19,4.83a16.35,16.35,0,0,0,1.3-7.12c-.21-8.36-4.94-14.14-13.07-16.21-3.42-.87-7-1.27-10.22-2.75a16.25,16.25,0,0,1-9.34-10.42c-.27-.89-.73-1.83,0-2.76a7.46,7.46,0,0,1,6.15-1.12,5,5,0,0,1,3.75,1.15c6.06,4,12.54,7.29,18.9,10.79a26.82,26.82,0,0,1,4,2.72,10.6,10.6,0,0,1,4,6.4,56.53,56.53,0,0,1,.65,14.18,115.44,115.44,0,0,1-3.38,20.49c-1.11,4.27.26,8.41,1.86,12.38a29.61,29.61,0,0,0,4.71,7.71,7.5,7.5,0,0,0,2.55,2,2.86,2.86,0,0,0,3.8-.82c5.09-7.16,10.75-13.95,14.57-22a34.66,34.66,0,0,0,3.51-12.94A20.07,20.07,0,0,0,285,120.51a37.59,37.59,0,0,1-5-15.65c-.06-.61-.35-1.28.32-1.76a10.69,10.69,0,0,0,7.25.09,6.59,6.59,0,0,1,.9,3.11,24.49,24.49,0,0,0,2.8,8.77c1.88,3.08,4.32,4,7.71,2.85a20.72,20.72,0,0,0,7-4,10.25,10.25,0,0,0,3.47-7.29,4.64,4.64,0,0,1,.45-2.24,27.93,27.93,0,0,1,5.22-2.31c1.13,1.24,1.14,2.84,1.32,4.34.81,6.75.18,13.26-4.06,18.89-1.84,2.44-3.82,4.86-7,5.65-.69-.14-1.38-.24-2.06-.42-1.07-.28-1.91-.48-1.68,1.21.13,1-1,1.21-1.6,1.69-1.11.81-2.8.67-3.48,2.16.16.81-.45,1.28-.84,1.82-1.35,1.9-2.44,4-3.8,5.85-.48.25-.58.73-.71,1.19.5.84,0,1.61-.21,2.38a54.6,54.6,0,0,0-2.81,16.56,48,48,0,0,0,.53,5C288.69,169,288.91,169.7,288.34,170.31Z"/><path class="cls-9" d="M190.31,72.24a122.32,122.32,0,0,1,19.93,1.45,25.28,25.28,0,0,0,6.68.15,2.72,2.72,0,0,0,2.72-3c.05-3-.89-5.81-.82-8.79.11-4.08,1.5-5.25,5.55-4.47s7.7,2.38,11.73,2.93a18.49,18.49,0,0,0,8.17-.5c2.75-.87,3.73-2.75,2.91-5.53a23,23,0,0,0-3.7-6.72c-.33-.46-.72-.9-1-1.39-.48-.8-1.52-1.66-.93-2.53s2-.59,3-.31c5.18,1.44,9.78,4.12,14.35,6.87,4.1,2.47,7.46,5.84,11.1,8.88a14.45,14.45,0,0,0,4.71,2.54,18,18,0,0,1,9.7,7.19,5.36,5.36,0,0,1,.63,1.18c.73,2.16-.33,3.52-2.44,2.77a10.61,10.61,0,0,0-11,2.09c-2.64,2.17-5.66,2.28-8.74,1.78a50.85,50.85,0,0,0-10.15-.66c-2.27.08-3.93.85-4.81,3.31-1.68,4.7-7.94,6.39-12.73,3.47-7.09-4.33-14-3.92-20.78.51-2.79,1.82-5.79,1.5-8.71.58a61,61,0,0,1-8.82-3.28,12.79,12.79,0,0,0-12.5.48c-3.4,1.87-6.93,3.17-10.85,2.61-4.24-.6-8.45-1.39-12.67-2.14-.59-.1-1.37-.2-1.43-1s.58-1.08,1.11-1.44a22.13,22.13,0,0,1,5.22-2.43C178.36,72.33,177.5,72.15,190.31,72.24Z"/><path class="cls-9" d="M437.49,53.61c.19.73.38,1.46.56,2.2.68,2.77-.09,4.26-2.91,4.7-5.54.85-14.61-.87-18.27-7.25a11.26,11.26,0,0,1-1.62-5.06c-.29-5.38-3.36-8.37-8.78-8.34a88.31,88.31,0,0,0-22.23,2.8c-2,.53-2.81-.14-2.5-2.16.44-2.84,1-5.66,1.51-8.49a1.75,1.75,0,0,1,1.66-1.38,46.64,46.64,0,0,1,5.5-.77c3.13-.17,6.28,0,9.41-.42,4.06-.59,6.87,1.46,9.19,4.48a23.21,23.21,0,0,0,5,5c2.95,2,6.3,2.25,9.75,1.45,2.74-.64,5.48-1.26,8.24-1.83a11.84,11.84,0,0,1,9.44,2.15c2.39,1.61,4.73,3.3,7.17,4.85a10.28,10.28,0,0,1,4.83,8.7c.17,3.39,1.05,3.95,4.53,3.46,4.25-.61,8.08-2,11.1-5.16a28.69,28.69,0,0,0,3.51-5,17.82,17.82,0,0,1,1.48-2.25c1.33-1.65,2.09-1.57,3.11.29,2,3.71,2.9,7.78,3.68,11.88.09.44.11.89.22,1.32a5,5,0,0,1-2.49,6.07c-3.39,2-6.89,3.71-10.32,5.6a23.09,23.09,0,0,0-3.39,2.19c-5.81,4.61-13.76,3-18.74-1.38a6.14,6.14,0,0,1-2-4.4c-.45-5.21-3.13-9.46-6.17-13.48Z"/><path class="cls-9" d="M396.56,62.63c-4.6.15-8.84-1.08-13.19-1.35-7.06-.43-14.08-.59-20.92,1.74-3.57,1.23-5.59,4.17-7.77,6.94a39.82,39.82,0,0,1-5.16,5.69c-2.2,1.89-4.16,1.49-5.06-1.23-1.17-3.57-3.78-5.17-7.13-6a76.32,76.32,0,0,0-12-1.56c-9.5-.84-19-1.72-28.05-5a8.83,8.83,0,0,1-2.95-1.77,3,3,0,0,1-.72-3.83c.72-1.58,1.49-3.14,2.32-4.66a4.56,4.56,0,0,1,4.84-2c4.39.78,8.12,3.06,11.91,5.22a26.32,26.32,0,0,0,5,2.45A5.6,5.6,0,0,0,324.48,55c1.87-2.65,2.9-5.71,4.14-8.66,2.17-5.14,5.31-6.1,10.49-4,4.78,2,7.57,5.76,10.44,9.62.27.35.52.73.83,1.06,1.8,1.92,2.83,1.91,4.51-.15a26.19,26.19,0,0,0,2-2.85,2.87,2.87,0,0,1,3.7-1.22,8.77,8.77,0,0,1,4.85,4.2c2.1,4.22,2.74,5,7.35,4.06a139,139,0,0,1,19.16-2.62c2.33-.14,4.39-1.37,6.59-2.05a6.64,6.64,0,0,1,7.17,2c2.21,2.32,1.63,4.93-1.31,6.63C402.45,62.2,400.19,62.63,396.56,62.63Z"/><path class="cls-9" d="M414.86,84a11.25,11.25,0,0,0-1.42-6.45,2.21,2.21,0,0,1-.16-.35c-.48-1.51-1.39-3.17.22-4.43s3-.4,4.46.45c3.5,2.08,5.93,5.26,8.46,8.32a80.45,80.45,0,0,0,7.34,7.88,6.29,6.29,0,0,0,1.6,1c1.64.79,2.57.21,2.67-1.64a45.55,45.55,0,0,0-.37-7.29,12.62,12.62,0,0,1,0-1.74c0-.39,0-.85.42-1s.8.31,1,.69c.93,1.68,1.87,3.36,2.71,5.09,1,2.14,1.91,4.35,2.92,6.49,1.18,2.52,2.88,3.27,5.63,2.66a31.87,31.87,0,0,0,7.83-3.15c4.56-2.4,9.16-4.64,14.33-5.39A36.64,36.64,0,0,1,479,85a1.65,1.65,0,0,1,1.17.55c.34.56-.28.91-.62,1.25-2.14,2.18-4.77,3.68-7.27,5.36-4.15,2.78-8.16,5.73-12.07,8.87s-8.52,4.21-13.66,2A22.77,22.77,0,0,0,433,102a6.55,6.55,0,0,0-4.35,2.89c-3.38,5.07-11.64,5.42-15.32,3.49a7.77,7.77,0,0,1-2.53-2.57c-3.11-4.2-7.65-4.32-12.17-4-2.24.14-4.48.23-6.72.18a2.73,2.73,0,0,1-2.77-1.71,2.87,2.87,0,0,1,.92-3,8.41,8.41,0,0,1,6.2-3,13.14,13.14,0,0,0,5.81-1.87,6.17,6.17,0,0,1,6.54-.13c2,1.13,3.5.57,4.7-1.41A10.88,10.88,0,0,0,414.86,84Z"/><path class="cls-9" d="M49.23,124.86c1.58,2.21,2.66,4.5,4.84,5.94a4.63,4.63,0,0,0,4.9.37c3.73-1.79,4.76-1.48,6.88,2,.88,1.42,1.7,2.87,2.63,4.26,1.38,2.09,2.69,2.16,4.19.16,2-2.71,3-5.92,4.24-9,.85-2.22,1.66-4.45,2.53-6.65.64-1.63,1.68-2.78,3.62-2.53,1.31.16,2.53,2,2.68,3.84a16.56,16.56,0,0,1-1.5,8.43,16.13,16.13,0,0,0-1.18,3.64c-.27,1.45.55,2.1,1.93,1.73a21.06,21.06,0,0,0,4.44-1.82c3-1.64,6-3.57,9.37-4.43s5.26,1.06,4.48,4.44c-1.16,5-2.61,6.1-7.72,6.19a55.86,55.86,0,0,1-9.92-1.06c-2.11-.35-3.91-.14-5.39,1.61s-3.06,3.47-4.69,5.1c-2,2-3.47,1.73-4.87-.63s-2.9-3-5.66-2.22a34.55,34.55,0,0,0-3.47,1.18c-2.31.92-4.33,1.16-6.14-1.2-1.29-1.68-4.35-1.79-6.42-.58A9.72,9.72,0,0,0,45.14,147c-1.23,2.18-3.32,2.7-5.56,2.83a35.24,35.24,0,0,1-10.51-1c1-1.13,2.14-2,2.67-3.32.85-2.11.48-3.84-1.24-5.13-2.15-1.63-2.54-2.94-.95-5,2.62-3.42,4.94-5,8.84-3.66C44,133.55,48.17,129.14,49.23,124.86Z"/><path class="cls-9" d="M460.08,137.27c1.54-1.6,3-2.93,3.08-5.16a3.32,3.32,0,0,0-1.61-3.26c-2.73-1.56-2.14-3.58-.89-5.16,2.78-3.53,4.88-4.83,8.89-3.53,5.45,1.77,9.68-2.64,10.67-6.82.9,1.28,1.7,2.44,2.52,3.58,2.12,2.93,5,4.23,8.27,2.22,2.27-1.4,4.07-.64,5.47,1.71,1,1.65,1.94,3.33,3,4.94,1.41,2.16,2.78,2.2,4.31.08,2-2.74,3-5.94,4.2-9.05.84-2.22,1.66-4.45,2.54-6.65.62-1.57,1.7-2.72,3.51-2.38s2.48,2,2.68,3.59a15.5,15.5,0,0,1-1.44,8.62,15.1,15.1,0,0,0-1.17,3.45c-.34,1.66.43,2.36,2,1.92a20.25,20.25,0,0,0,4.26-1.76c3-1.61,5.86-3.49,9.19-4.37,3.65-1,5.51.88,4.65,4.5-1.15,4.88-2.6,6-7.62,6.06a54.94,54.94,0,0,1-9.92-1.06c-2.2-.37-4-.1-5.54,1.71s-2.88,3.28-4.41,4.83c-2.13,2.17-3.55,2-5.1-.59-1.35-2.23-2.9-2.85-5.56-2.1-1.42.4-2.79,1-4.18,1.46-2.17.8-3.67.46-5.13-1.2a5.51,5.51,0,0,0-6.73-.88,9.71,9.71,0,0,0-3.87,3.38c-1.26,2.24-3.41,2.75-5.72,2.87A36.81,36.81,0,0,1,460.08,137.27Z"/><path class="cls-9" d="M533.5,84.81c-5.94,1.16-11.35,1.86-16.86,1a7.16,7.16,0,0,1-2.95-1.32,29.42,29.42,0,0,0-5.14-3c-2.5-1.06-5-1.25-7.36.3-3.39,2.24-7.14,2.68-11.05,2.44A7,7,0,0,1,486,82.44a4.07,4.07,0,0,1-.07-6.51c3.25-3,7.44-3.94,11.47-5.18a72.92,72.92,0,0,1,8.79-2,13.75,13.75,0,0,0,10.48-7.88c.43-.87.83-1.75,1.31-2.58,3.12-5.35,7.73-6.24,12.49-2.27s9.44,8.09,14.1,12.2c1,.9,2.7,2,2.05,3.35s-2.5.62-3.87.35c-4.89-1-9.73-2.23-14.79-2a15.47,15.47,0,0,0-4.69.89c-2.68,1-3.68,3.16-2.38,5.66,1.71,3.28,3.25,6.79,7.37,7.89C529.78,84.79,531.37,84.38,533.5,84.81Z"/><path class="cls-9" d="M237.42,28.93c-3.22.29-6.09-.08-8.93.44a19.09,19.09,0,0,0-5.31,1.55c-3.08,1.56-4,3.71-2.83,7,.44,1.27,1,2.49,1.51,3.75,1.39,3.6-.4,5.25-4.43,4.93-3.65-.28-7.12-1.48-10.66-2.37a25.38,25.38,0,0,0-6.44-.94c-3.61.05-6.28,1.52-7.17,5-1.35,5.18-4,5.62-8.49,5.74a25.08,25.08,0,0,1-12.79-2.9c-.89-.49-2-.8-2-2.08s1.14-1.43,2-1.87a6.22,6.22,0,0,1,.69-.33c3.75-1.38,3.09-3.54.48-5.77-2.24-1.92-4.69-3.59-6.74-5.73a10.23,10.23,0,0,1-1.91-2.63c-.88-1.8-.19-3.1,1.79-3.24a19.8,19.8,0,0,1,12.47,3,4.84,4.84,0,0,1,1.7,1.53c1.52,2.73,4.07,3.34,6.84,3.51a77.68,77.68,0,0,1,13.66,1.88,28.05,28.05,0,0,0,3,.53c2.16.31,3.21-.57,3.44-2.76.2-1.9.27-3.88,1.25-5.58,2.9-5.1,7.7-7.26,13.18-8.31a2.7,2.7,0,0,1,2.21.5c3,2.66,7,2.35,10.35,3.7A8.48,8.48,0,0,1,237.42,28.93Z"/><path class="cls-9" d="M412.46,120.1c-3.86,0-7.46-.17-11,.76a15.85,15.85,0,0,0-1.67.46c-4.65,1.67-5.83,4.56-3.75,9.05.36.75.65,1.54,1,2.31,1.36,3.41-.07,5.36-4.53,5-3.66-.32-7.12-1.53-10.66-2.39a24.8,24.8,0,0,0-6.06-.9c-3.48,0-6.19,1.51-7,4.89-1.15,4.74-4.48,5.88-8.46,5.83A27.25,27.25,0,0,1,347.16,142c-.78-.43-1.71-.78-1.72-1.87s1-1.41,1.74-1.83a10.9,10.9,0,0,1,1-.49c3.66-1.42,2.89-3.5.55-5.56s-4.76-3.68-6.88-5.84a9.85,9.85,0,0,1-2-2.79c-.78-1.72-.09-3,1.78-3.12a19.92,19.92,0,0,1,12.66,3.09,5.11,5.11,0,0,1,1.67,1.56c1.48,2.67,4,3.22,6.69,3.41a68,68,0,0,1,13.46,1.91,19.16,19.16,0,0,0,2.64.46c2.56.36,3.46-.41,3.71-3a20.69,20.69,0,0,1,.54-3.41,10.39,10.39,0,0,1,4.2-6,23.67,23.67,0,0,1,8.47-4,4.49,4.49,0,0,1,4.44,1.11,4,4,0,0,0,2,1c2.61.64,5.22,1.3,7.8,2A3.53,3.53,0,0,1,412.46,120.1Z"/><path class="cls-9" d="M81.88,86.15c1.21-2.25.49-4.62.28-7.55,1,1.4,1.56,2.36,2.24,3.24,1.53,2,3.72,2.66,5.52,1.17,3.39-2.79,6.44-1.43,9.58.23,2,1.06,3.9,2.24,5.89,3.27,3,1.54,4.9,1.26,7.23-1.23,2.15-2.28,4.22-4.66,6.17-7.12a17.56,17.56,0,0,1,4.38-3.7,4.42,4.42,0,0,1,3.53-.58c1.9.48,2.35,1.69,1.38,3.34-1.79,3-3.54,6.08-5.43,9.34,6.57-.35,11.83,2.45,16.95,5.67.94.6,1.91,1.24,1.68,2.55a2.59,2.59,0,0,1-2.36,2c-7.27,1.44-14.48,1.93-21.42-1.48-2.66-1.31-5.76-.45-7.88,2.09a18.86,18.86,0,0,0-3.83,7.68c-.68,2.67-2.12,3.09-4,1.18C98.54,103,96.51,99,94,95.27c-.9-1.33-1.77-2.68-2.64-4-2.22-3.45-5.25-5.38-9.47-5.1Z"/><path class="cls-9" d="M596.61,129a39.18,39.18,0,0,0-2.72,8.19c-1.2,4.94-7.4,8.47-12.27,7.09a6.34,6.34,0,0,1-4-3.41c-.75-1.42-1.5-2.84-2.3-4.23-1.55-2.69-3.13-3.32-6.11-2.27s-5.88,2.88-8.85,4.27c-2.8,1.3-5.66,2.41-8.83,2.33a5.44,5.44,0,0,1-5.22-3.25,44.14,44.14,0,0,0-5.69-8.35,70.53,70.53,0,0,0,16.88,1.59,9.44,9.44,0,0,0,2.28-.29,2,2,0,0,0,1.55-2.75c-.7-2.9.63-4.31,3.58-3.84a27.7,27.7,0,0,1,6,1.43A54.92,54.92,0,0,0,593,129c1.22,0,2.44,0,3.66,0Z"/><path class="cls-9" d="M313.38,23.24a39.18,39.18,0,0,0-2.72,8.19c-1.2,4.94-7.4,8.47-12.27,7.09a6.39,6.39,0,0,1-4-3.41c-.75-1.42-1.5-2.84-2.3-4.23-1.55-2.69-3.13-3.32-6.11-2.27s-5.88,2.88-8.84,4.27-5.67,2.41-8.84,2.33A5.44,5.44,0,0,1,263.12,32a48,48,0,0,0-5.64-8.34,69.87,69.87,0,0,0,16.83,1.58,9.88,9.88,0,0,0,2.28-.28,2,2,0,0,0,1.55-2.75c-.7-2.9.63-4.32,3.58-3.84a27.9,27.9,0,0,1,6,1.42,54.85,54.85,0,0,0,22,3.52c1.22,0,2.44,0,3.66,0Z"/><path class="cls-10" d="M334.53,164.13c.08-2.36-1.33-4.37-1.53-6.66.08-.52.44-.7.91-.78,1.16-.19,4,1.5,4.43,2.63.4,4.28,1.25,8.51,1.39,12.82-1.54,1-3.1.17-4.63,0-.73-.09-.24-.67,0-1,.59-.91,1.25-1.77,1.79-2.71.93-1.64.6-2.5-1.13-3.2C335.22,165,334.65,164.81,334.53,164.13Z"/><path class="cls-2" d="M280.26,101.14c-.41-4,.54-7.89,1-11.81,2.87-.65,2.88-.65,4.26,2.12a2.76,2.76,0,0,0,1.31,1.3,2.68,2.68,0,0,1,0,3,13.47,13.47,0,0,1-3.37,2.48A12.17,12.17,0,0,0,280.26,101.14Z"/><path class="cls-11" d="M355.53,106.29c-.25.2-.48.54-.74.57-1.5.18-2.84.22-1.8,2.47.43.92-.79,1.55-1.72,1.93-.78.31-.89-.1-.88-.71a5.17,5.17,0,0,1,1.14-3.93,16.08,16.08,0,0,1,4-1.15A.66.66,0,0,1,355.53,106.29Z"/><path class="cls-12" d="M313.39,23.26a7,7,0,0,1,2.12-2.69,1.92,1.92,0,0,1,2.33-.1c.43.23.81.61.71,1a1.86,1.86,0,0,1-1.76,1.27,12.35,12.35,0,0,1-3.41.46Z"/><path class="cls-12" d="M596.62,129a6.91,6.91,0,0,1,2.12-2.69,1.92,1.92,0,0,1,2.33-.1c.43.22.81.6.71,1a1.86,1.86,0,0,1-1.77,1.27,12.23,12.23,0,0,1-3.4.46Z"/><path class="cls-13" d="M165.26,152.86l-1.56-5.34a1.58,1.58,0,0,1,2.09,1.14C166.16,150.09,166.67,151.62,165.26,152.86Z"/><path class="cls-14" d="M81.86,86.14c-.45,2-2.11,2.18-3.66,2.55a.84.84,0,0,1-.67-.24c-.27-.34.06-.58.29-.78a7.46,7.46,0,0,1,4.06-1.52Z"/><path class="cls-15" d="M286.87,95.71c0-1,0-2,0-3a4.92,4.92,0,0,1,.55.14c.56.24,1.43.15,1.56.87s-.63,1-1.1,1.44A5.22,5.22,0,0,1,286.87,95.71Z"/><path class="cls-16" d="M158.88,134.34c.34.89.69,1.77,1,2.66-.41-.16-.85-.28-1.25-.48-.59-.28-1.59-.25-1.46-1.21S158.18,134.43,158.88,134.34Z"/><path class="cls-17" d="M351.53,106.62l-1.14,3.93C349.4,108.84,349.88,107.56,351.53,106.62Z"/><path class="cls-18" d="M355.53,106.29l0-.82a3.06,3.06,0,0,1,1.85-.57C357.15,106,356.81,106.74,355.53,106.29Z"/><path class="cls-19" d="M479.77,112.14,478.19,109A3.14,3.14,0,0,1,479.77,112.14Z"/><path class="cls-19" d="M47.19,120.56a3.09,3.09,0,0,1,1.55,3.17Z"/><path class="cls-20" d="M179.14,129.69l3.57,1.59C181.34,131.14,179.8,131.41,179.14,129.69Z"/><path class="cls-21" d="M510.27,91c1.33-.08,1.76,0,1.75.37a.79.79,0,0,1-.36.6C510.78,92.3,510.87,91.27,510.27,91Z"/><path class="cls-9" d="M278.84,178.94c.87,1.28,1.66,2.51,2.54,3.68,2.08,2.77,4.82,4.14,8.14,2.15,2.32-1.41,4.11-.7,5.5,1.62,1,1.6,1.86,3.22,2.86,4.79,1.57,2.45,3,2.46,4.65,0,1.85-2.67,2.85-5.73,4-8.73.84-2.22,1.66-4.44,2.53-6.65.65-1.64,1.78-2.85,3.66-2.42s2.4,2,2.58,3.69a15.46,15.46,0,0,1-1.43,8.43,16.38,16.38,0,0,0-1.19,3.45c-.37,1.74.43,2.45,2.16,2a21.52,21.52,0,0,0,4.24-1.78c3.05-1.62,6-3.57,9.38-4.42s5.17,1.1,4.45,4.36c-1.11,5-2.68,6.21-7.84,6.3a54.54,54.54,0,0,1-9.72-1c-2.19-.35-4-.16-5.57,1.65s-3,3.37-4.54,5c-2.05,2.06-3.51,1.84-5-.62s-3-2.88-5.89-2.09c-1.91.52-3.64,1.64-5.68,1.74a3.51,3.51,0,0,1-3.32-1.47c-1.42-1.89-4.42-2.29-6.67-1a9.43,9.43,0,0,0-3.89,3.36c-1.3,2.29-3.5,2.82-5.89,2.93a37.43,37.43,0,0,1-10-.9c.08-.77.79-1.07,1.22-1.54,2.34-2.56,2.14-5.25-.58-7.32-1.5-1.14-1.82-2.54-.54-4.41,2.27-3.31,5-5.27,8.89-4C273.53,187.61,277.68,183.31,278.84,178.94Z"/><path class="cls-9" d="M244.79,195.48c-3.66.25-7.26.08-10.77,1-.56.15-1.13.27-1.67.46-4.65,1.68-5.83,4.57-3.74,9.06.38.81.69,1.65,1,2.49,1.36,3.61-.68,5.12-4.41,4.82s-7.13-1.48-10.67-2.37a25.2,25.2,0,0,0-6.24-.95,7.08,7.08,0,0,0-7.1,4.88c-1.77,4.47-4.35,6.21-9.31,5.87-4.34-.3-8.67-.9-12.57-3.1-.78-.44-1.71-.78-1.74-1.87s.95-1.42,1.73-1.83c.4-.21.82-.38,1.22-.58,3-1.48,3.13-3.28.42-5.49a64.57,64.57,0,0,1-6.75-5.7c-1.31-1.38-3.16-2.86-2.24-4.93s3.1-1.24,4.72-1.1c4.72.44,9.27,1.39,12.24,5.72,1.2,1.75,3.23,2.19,5.12,2.26a111.4,111.4,0,0,1,17.45,2.45c2.2.43,3.45-.49,3.47-2.65.1-9.08,8-12.58,14-13.94a3.15,3.15,0,0,1,2.92.64c1.66,1.74,3.9,1.8,5.95,2.41C240.19,193.74,242.64,194.16,244.79,195.48Z"/><path class="cls-9" d="M365.08,210.77a39.34,39.34,0,0,0-2.71,8.19c-1.2,4.94-7.4,8.47-12.28,7.09a6.32,6.32,0,0,1-3.95-3.41c-.75-1.41-1.5-2.83-2.3-4.22-1.56-2.7-3.13-3.33-6.11-2.27s-5.88,2.88-8.85,4.26a19.6,19.6,0,0,1-8.83,2.33,5.42,5.42,0,0,1-5.22-3.25,48.59,48.59,0,0,0-5.64-8.34A69.87,69.87,0,0,0,326,212.73a9.28,9.28,0,0,0,2.27-.28,2,2,0,0,0,1.56-2.75c-.7-2.9.62-4.32,3.58-3.84a27.25,27.25,0,0,1,6,1.43,55,55,0,0,0,22,3.52c1.22,0,2.45,0,3.67,0Z"/><path class="cls-9" d="M377.41,187.62c2.37,1.32,4.4,2.5,6.47,3.6a51.67,51.67,0,0,0,8.43,3.75,10.12,10.12,0,0,0,2.26.41c1.66.14,2.56-.21,2.68-2.21.14-2.44,1.89-3.17,4.36-2.12a21,21,0,0,1,6.24,4.11c5.14,4.89,11.41,7.77,17.89,10.27,3.91,1.5,3.93,1.4,1.33,4.53a38.32,38.32,0,0,0-2.27,3.09,10.66,10.66,0,0,1-13.11,3.65,6.54,6.54,0,0,1-3.77-5.43c-.24-1.83-.46-3.67-.79-5.49-.4-2.26-1.81-3.38-4.14-3.49-4.06-.2-8,.85-12,1-3.08.08-6.13-.08-8.86-1.82a4.3,4.3,0,0,1-2.13-3A57.18,57.18,0,0,0,377.41,187.62Z"/><path class="cls-22" d="M229.13,170.17a22.69,22.69,0,0,1,11-.57c-.71,2.3-1.7,3.06-4.17,3A10.56,10.56,0,0,1,229.13,170.17Z"/><path class="cls-23" d="M211.89,178.15a22.91,22.91,0,0,0,6.2-2.84C218,179.05,215.89,180,211.89,178.15Z"/><path class="cls-12" d="M365.1,210.79a6.89,6.89,0,0,1,2.12-2.69,1.94,1.94,0,0,1,2.33-.1c.43.23.81.61.71,1.05a1.89,1.89,0,0,1-1.77,1.27,11.88,11.88,0,0,1-3.41.45Z"/><path class="cls-24" d="M430,207a6.33,6.33,0,0,1,2.74-1.83,1.76,1.76,0,0,1,2.08.57,1.24,1.24,0,0,1,.34,1.41c-.43.79-1.24.64-1.9.55C432.25,207.52,431.21,207.22,430,207Z"/><path class="cls-19" d="M278.52,177.72a5.92,5.92,0,0,1-1.23-2.12c-.18-.35-.59-.69-.33-1.2C278.26,175.89,278.26,175.89,278.52,177.72Z"/><path class="cls-25" d="M219.88,160.68c-.77-.05-1.54-.07-2.31-.16-.61-.08-1.22-.26-2.39-.52a17.19,17.19,0,0,1,6.35.28C221.18,161.25,220.46,160.69,219.88,160.68Z"/><path class="cls-26" d="M219.88,160.68c.53-.2,1.2.14,1.65-.4l2.12.41A6.14,6.14,0,0,1,219.88,160.68Z"/><path class="cls-27" d="M200.59,175.29c-.39.24-.7,0-1-.12,0-.09.08-.25.11-.25C200,174.92,200.44,174.74,200.59,175.29Z"/></svg>