<svg id="Layer_1" data-name="Layer 1" xmlns="http://www.w3.org/2000/svg" viewBox="0 0 371.88 293.32"><defs><style>.cls-1{fill:#368424;}.cls-2{fill:#71a865;}.cls-3{fill:#4e2921;}.cls-4{fill:#4a903a;}.cls-5{fill:#368524;}.cls-6{fill:#4f9440;}.cls-7{fill:#6fa762;}.cls-8{fill:#c4dbbf;}.cls-9{fill:#539644;}.cls-10{fill:#cfe2cb;}.cls-11{fill:#846b65;}.cls-12{fill:#8f7873;}.cls-13{fill:#73a967;}.cls-14{fill:#f6f9f5;}.cls-15{fill:#b6d2b0;}.cls-16{fill:#a2c69a;}.cls-17{fill:#539745;}.cls-18{fill:#519542;}.cls-19{fill:#5b9b4d;}</style></defs><title>9_all_the_forest_trees</title><path class="cls-1" d="M48.92,128.42a40.47,40.47,0,0,1-10.08,0,25.87,25.87,0,0,1-7.63-2.06,6.34,6.34,0,0,1-3.76-4.43c-.11-.57-.36-.6-.85-.42a12.64,12.64,0,0,1-8.66-.17A23.31,23.31,0,0,1,6,112.6a9.84,9.84,0,0,1-2.14-6.52A5.27,5.27,0,0,1,5,103c.68-.8.38-1.09-.36-1.52A14.06,14.06,0,0,1,1.1,98.69,3.21,3.21,0,0,1,1,93.93a.93.93,0,0,1,.19-.21c6.44-4.8,9.94-12.08,15.07-18,2.6-3,5.06-6.14,7.69-9.12,4.23-4.8,9.71-7.14,16-7.79,7.76-.81,15.16.78,22.37,3.48a2.14,2.14,0,0,0,2.17-.2C71.07,58,78.11,55.28,86,55.45a32,32,0,0,1,20.72,8.09,1.37,1.37,0,0,0,2.16,0,31.5,31.5,0,0,1,6.94-4.08A5.49,5.49,0,0,0,114,58c-2.87-2-5.78-4-8.64-6a17.12,17.12,0,0,1-2.51-2.23c-2.5-2.62-2.36-4.95.54-7.07,1-.71,1.36-1.12.58-2.31-1-1.44-.57-3.05.18-4.54a14.14,14.14,0,0,1,4.48-5,39.32,39.32,0,0,1,20.84-7.8,13.83,13.83,0,0,1,5.67.7c.45.17.82.44,1-.35.64-3.57,3-6,5.76-8,5.18-3.76,11.12-5.87,17.18-7.68,9-2.69,18.29-3.74,27.62-4.52A120.2,120.2,0,0,1,206,3a49.4,49.4,0,0,1,13.18,2.5,16.67,16.67,0,0,1,6,3.48c.63.61.86.3,1.27-.19a28.54,28.54,0,0,1,7.59-6.6c6.06-3.48,11.72-2.74,16.48,2.39a5.66,5.66,0,0,0,3.86,1.79c8.78,1,17.31,2.93,25.13,7.27a23.63,23.63,0,0,1,9.75,9.23,19.73,19.73,0,0,1,1.58,4c.92-.63,1.77-1.26,2.68-1.8a13.87,13.87,0,0,1,2.27-1.08c3.32-1.21,5.78-.18,7.23,3s1.53,6.34,1.57,9.62a2.34,2.34,0,0,0,1.26,2.21c4.42,2.82,7.68,6.52,8.54,11.91a14.36,14.36,0,0,1-.78,7.18A22,22,0,0,1,307,67.77c-7.47,6.19-15.89,9.52-25.72,8.75a33.67,33.67,0,0,1-6.74-1.27,1.3,1.3,0,0,0-1.32,0,48.43,48.43,0,0,1-7.35,4.34c-2.53,1.21-5.15,2.15-7.83,3.21,2.13.22,4.27.47,6.4.64a178.69,178.69,0,0,0,19.22.61c1.87-.06,3.73-.2,5.6-.33a7.66,7.66,0,0,0,2.93-.85,48.2,48.2,0,0,1,25.85-4.82,67.71,67.71,0,0,1,22.86,5.73,2.27,2.27,0,0,0,1.74-.08A23.77,23.77,0,0,1,354,82.81a16.89,16.89,0,0,1,12,8.63c1.18,2.06,2.38,4.12,3.5,6.22,2.11,4,3.11,8.12,1.75,12.56a16.61,16.61,0,0,1-7.35,9.25,2.56,2.56,0,0,0-1.34,2.58,22.27,22.27,0,0,1-1,6.63c-1.53,5.15-5.94,7.9-11.47,7.26a31.07,31.07,0,0,1-5.73-1.29c-.27-.58,0-1.1.18-1.63a53.06,53.06,0,0,0,2-13.14c.07-2.15.28-2.33,2.43-2.49a38.52,38.52,0,0,0,11.74-2.56,9.25,9.25,0,0,0,3.17-2c1.55-1.59,1.84-3,.93-5a8.18,8.18,0,0,0-3.1-3.71c-8.38-5.27-17.25-9.39-27-11.22a33,33,0,0,0-12.41-.09,4.75,4.75,0,0,1-2.22.07c-8.45-2.22-16.59-1-24.52,2.31a43.89,43.89,0,0,0-6.57,3.48c-1.52,1-1.76.87-3.15-.34-6.87-6-14.61-10.12-23.81-11a27.81,27.81,0,0,0-15.62,3.07,4.31,4.31,0,0,1-3.34.25c-6.67-1.76-13.37-2.21-20,0a17.87,17.87,0,0,0-7.69,4.73,4.57,4.57,0,0,1-3.47,1.45c-4.9.21-9.77.76-14.64,1.44s-6.94,3.7-8.07,7.94c-1.08,4,.31,7.14,3.45,9.64a15.64,15.64,0,0,0,1.71,1.22c2.19,1.34,2.2,1.38.66,3.44-.77.39-1.21-.23-1.7-.59a16.49,16.49,0,0,1-5.92-7.91,15.5,15.5,0,0,1-.21-8.67,11,11,0,0,0,.36-1.24c.24-.7.48-1.4.71-2.1a2,2,0,0,0,.12-1.5,2.35,2.35,0,0,1,1.5-3,14.09,14.09,0,0,0,4.23-3.1,5.17,5.17,0,0,1,1.32-1,65.38,65.38,0,0,1,13.85-3.94A4.62,4.62,0,0,0,212.49,85a30.19,30.19,0,0,1-15.6-.44,2.44,2.44,0,0,1-1.17-1.34,15.33,15.33,0,0,0-5.92-6.94c-.56-.34-1.52-.65-1.22-1.47s1.26-.86,2.07-.88a3.7,3.7,0,0,1,1.6.47,42.73,42.73,0,0,0,13.45,3.78c7.37.68,14.39-.51,20.77-4.42a3.35,3.35,0,0,1,3.85-.07,30.8,30.8,0,0,0,12,3.54c8.07.76,15.6-1.19,22.85-4.49a5.87,5.87,0,0,1,3.67-.41,35.81,35.81,0,0,0,23.94-3.66C299.76,65,303,59,303.83,51.38c.49-4.29-.61-8.36-1.4-12.48a5.5,5.5,0,0,0-3.63-4.16,21.61,21.61,0,0,0-9.23-1.23,86.74,86.74,0,0,0-17.39,3q-1.37.34-2.7.78c-1,.34-1.75.08-2.06-1-1.44-4.91-2.24-9.88-.68-14.91a1.69,1.69,0,0,0-.95-2.38,16.19,16.19,0,0,0-6.62-1.66c-5.59-.22-11,1-16.31,2.47A121.87,121.87,0,0,0,226,26c-2.33,1-2.77.95-4.51-.91-3.55-3.81-3.95-8.38-1.11-12.7.89-1.35.86-1.49-.77-1.84a27.39,27.39,0,0,0-8.38-.36c-11.63,1.1-22.56,4.81-33.41,8.86-2.23.83-4.39,1.91-6.65,2.62a12.5,12.5,0,0,0-6.9,5.83,23.57,23.57,0,0,0-3.39,8.27c-.16.89-.47,1.47-1.56,1.28-4.91-.87-9.7-.05-14.45,1.06a43.23,43.23,0,0,0-12.57,4.72,11.18,11.18,0,0,0-2.19,1.74,2.08,2.08,0,0,0-.62,2.53,1.23,1.23,0,0,1-.6,1.76,8.5,8.5,0,0,0-1.17.78,3.13,3.13,0,0,0-1.11,3.75,7.25,7.25,0,0,0,1.72,2.7,92.7,92.7,0,0,0,7.16,6.72,4.75,4.75,0,0,1,.93.85c1.89,2.9,5,3.65,8,4.43a48.69,48.69,0,0,0,4.8,1,4.45,4.45,0,0,1,.82.19c.32.11.74.23.75.56,0,.48-.49.49-.85.55a38.68,38.68,0,0,0-8.75,2.49,45.55,45.55,0,0,0-7,3.63c-2,1.24-1.95,1.26-3.78-.09a55.09,55.09,0,0,0-19.32-9.38,34.58,34.58,0,0,0-19.92.55,29.85,29.85,0,0,0-3.42,1.64,3.33,3.33,0,0,1-2.29.34,130.62,130.62,0,0,0-16.79-2.44C61,66.54,53.31,66.61,45.82,69a16.38,16.38,0,0,0-6.61,3.86A5.31,5.31,0,0,1,36,74.08c-5.82.93-11.66,1.79-17.28,3.68a11.71,11.71,0,0,0-2.19.93,3,3,0,0,0-1.12,4.66,11,11,0,0,0,2.85,2.88,74.74,74.74,0,0,0,13.3,7.51c1.7.79,3.38,1.62,5.05,2.45,1.49.75,1.53,1,.56,2.45A15.4,15.4,0,0,0,35.42,113c1,3,2.57,3.92,5.73,3.82.53,0,1.06-.07,1.35.49,1.38,2.64,3.89,3.16,6.5,3.49,6.45.83,12.77-.3,19.11-1.23,1.39-.21,2.78-.44,4.14-.78a2.74,2.74,0,0,1,3,1c4.22,4.47,8.75,8.58,14.33,11.36a16.15,16.15,0,0,0,2.61,1,5.29,5.29,0,0,1,2.32.9c-.06.49-.37.4-.69.29-6.15-.34-12.06-1.91-18-3.49-3.29-.87-6.32-2.4-9.53-3.47a3.78,3.78,0,0,0-2-.17Q58,127.34,51.75,128a2,2,0,0,1-1.24.23C50,128.23,49.4,128,48.92,128.42Z"/><path class="cls-2" d="M194.64,120.6a2.08,2.08,0,0,0,.11-.41c.1-.7,1.23-1.07.83-1.75-.3-.52-1.15-.72-1.74-1.1-2.76-1.77-5-4-5.48-7.39-.34-2.27.48-4.29,1.19-6.37,1.31-3.79,4.27-5.15,7.9-5.72a116.55,116.55,0,0,1,15.15-1.4,2.23,2.23,0,0,0,1.72-.73c4.55-4.81,10.32-6.65,16.76-6.87a38.18,38.18,0,0,1,13,1.72,1.75,1.75,0,0,0,1.45-.19c8.77-4.62,17.73-4.52,26.76-.91a44.07,44.07,0,0,1,14.31,9.15c.76.74,1.26.3,1.81-.07a42.73,42.73,0,0,1,11.5-5.4,35.71,35.71,0,0,1,20.25-.62c1.07.3,2-.17,3-.31a39.3,39.3,0,0,1,15.78,1.23,80.47,80.47,0,0,1,23.58,10.81,7.23,7.23,0,0,1,3.14,5.11c.32,2.3-1.18,3.75-3,4.85a25.23,25.23,0,0,1-9.12,3,25.86,25.86,0,0,1-5.55.61c-1.11-.06-1.13.65-1.13,1.47a52.49,52.49,0,0,1-1.69,12.84c-.22.86-.55,1.69-.83,2.53a32,32,0,0,1-4,8,2.68,2.68,0,0,0-.39.58c-1.31,3.67-4.33,4.63-7.77,4.88-4,.29-7.89-.63-11.77-1.45-3.72-.42-7.1-1.94-10.58-3.17-2.12-.75-4.16-1.68-6.23-2.56a1.63,1.63,0,0,0-1.93.26c-4.3,3.81-10.1,3.65-14.95.52a29.7,29.7,0,0,1-6-4.84,1.25,1.25,0,0,0-1.93-.24c-4.88,3.59-10.52,5.21-16.39,6.17a38.37,38.37,0,0,1-7.26.65,13.19,13.19,0,0,0-3.38.18,24.92,24.92,0,0,1-7.61,2.06,4.22,4.22,0,0,0-1.5.15,11.49,11.49,0,0,1-10.11-4.06,12.69,12.69,0,0,0-3.8-2.57,40.33,40.33,0,0,1-8.31-6.16,14.42,14.42,0,0,1-4-6.64c-.23-.87-.61-1.13-1.5-.85a15.27,15.27,0,0,1-5.11.76h-3.53a20.39,20.39,0,0,1-8.71-1.79,5.5,5.5,0,0,1-3.18-2.81A1.13,1.13,0,0,1,194.64,120.6Z"/><path class="cls-3" d="M194.64,120.6l.12,1.14a2.49,2.49,0,0,1,0,1.38c-1.34,3.66,0,6.74,2.12,9.64a19.59,19.59,0,0,0,5,4.82,3.45,3.45,0,0,1,1.17,1.17c1.76,5,3.39,10.08,5.47,15a20.64,20.64,0,0,0,2.12,4.39c1-2,1.91-3.78,2.92-5.53s2-3.56,3.11-5.31c.29-.47.53-1,1.12-1.2.74.17,1.08.86,1.6,1.3a18.59,18.59,0,0,0,8.8,3.77c.71.14,1.65-.06,2,.93a186.3,186.3,0,0,0-12,23.4,72.74,72.74,0,0,0-5.08,16.7,18.39,18.39,0,0,0,.71,9.38c2.26,6.07,1.7,12.22.14,18.35-1.38,5.42-3.37,10.68-4.51,16.17-2.09,10-.57,19.26,6.11,27.28C220,268.74,226,272,232.4,274.52s13.2,4,19.85,5.85a33.15,33.15,0,0,1,5,1.72c0,.53-.3.39-.59.29a88.92,88.92,0,0,0-15.82-.32,52.7,52.7,0,0,1-7.83.49,15.63,15.63,0,0,1-6.9-2.12c-.66-.38-.95-.37-1.3.42a5.61,5.61,0,0,0,0,4.74,21.64,21.64,0,0,0,3.24,4.89c0,.53-.28.44-.61.33-5-1.05-8.74-4.07-11.68-8.13-.87-1.2-1.6-2.51-2.45-3.85a19.31,19.31,0,0,0-4.71,5.63,5.89,5.89,0,0,0,1.27,7.41,7.83,7.83,0,0,1,1.3,1.45c-6.65-2.54-12.51-6-15.51-13-3.15,3.85-3.51,8.18-1.71,13a9.31,9.31,0,0,1-7.16-3,11.7,11.7,0,0,1-2.45-3.9c-.24-.63-.36-.87-1.14-.52a31.58,31.58,0,0,1-15.61,2.55c-4.95-.38-9.89-.84-14.8.36a2.72,2.72,0,0,1-.74,0c17.37-8.93,26.69-23.92,31.86-42a99.2,99.2,0,0,0,3.6-20.82c.78-11.9-3.19-22-11.26-30.64-7.31-7.83-14.74-15.55-20.66-24.57-4.2-6.41-8.6-12.69-13-19-5.26-7.5-10.62-14.94-15.93-22.41-.32-.44-.8-.81-.81-1.43.89-.76,2-.61,3-.74,2.49-.29,5-.71,7.44-1.12A3.55,3.55,0,0,1,138,126a3.11,3.11,0,0,1,1.23,1.31c6.66,9.6,13.87,18.8,21,28.07,0,0,.07,0,.24.11-.21-1.86-.61-3.63-.94-5.4-1.81-9.65-3.34-19.34-4.73-29.05a2.45,2.45,0,0,1,0-1.11c.43-.93,1.4-1.33,2.07-2,1.05-1.11,2.15-2.18,3.1-3.39a20.86,20.86,0,0,1,4.18-2.33c1.66.43,3.38.71,4.64,2,.25,2.32.27,4.66.36,7a189.54,189.54,0,0,0,3.73,32.4c1.17,5.4,2.91,10.54,6.92,14.63,1.73,1.77,3.2,3.78,4.78,5.69A17.17,17.17,0,0,1,189,185.19a5.46,5.46,0,0,1,0,.7,1.19,1.19,0,0,1-.14.4c2.69-8.13,2.91-16.54,2.53-24.94a277.15,277.15,0,0,0-6-44.14c-.13-.59-.25-1.19-.36-1.79-.34-1.93.51-3,2.57-3.29A17.33,17.33,0,0,0,194.64,120.6Z"/><path class="cls-4" d="M230.14,152.07c-1.42-.75-3-.67-4.56-1.12a15.85,15.85,0,0,1-7.87-4.76c-1.33-.71-1.55-2.1-2-3.34-.52-1.58-.47-1.59-2.14-1.22a5.8,5.8,0,0,1-1.1.13c-.59,0-1.18,0-1.76,0a12.31,12.31,0,0,1-7.93-2.89,53.45,53.45,0,0,1-4.86-4.17c-2.35-2.69-4.19-5.57-4.14-9.34,0-1.3.74-2.39.94-3.63,1.15,1.9,3.07,2.61,5,3.2a18.49,18.49,0,0,0,6.4,1,12.27,12.27,0,0,0,3.92,0,17.06,17.06,0,0,0,5.48-.94c.47-.15.86-.34,1,.41,1.24,6,5.84,9.23,10.51,12.38,1.72,1.16,3.93,1.65,5.26,3.28a12.2,12.2,0,0,0,10.3,4.48c.44-.27,1,.08,1.42-.24,2.66-.1,5.08-1.15,7.55-2,1.21-.35,2.47.11,3.67-.25,7-.28,13.8-1.45,20.08-4.74a16.5,16.5,0,0,0,3.41-2.18c.92-.82,1.37-.48,2,.22a27.44,27.44,0,0,0,8.25,6.15A10.91,10.91,0,0,0,301.35,141a2.15,2.15,0,0,1,2.71-.27,132.64,132.64,0,0,0,16.39,6l-2.13.11a59,59,0,0,1-6.91,0l-2.44-.09c-.66-.27-1.38,0-2-.21a21.53,21.53,0,0,1-4.81-.5c-.56-.11-.67.18-.94.5a20.22,20.22,0,0,1-11.69,7,7.93,7.93,0,0,1-1,.06c-.56.25-1.19-.06-1.74.21h-2.25c-.46-.25-1,0-1.47-.2-4-.17-7.59-1.63-11.14-3.26a1.33,1.33,0,0,0-1.45,0,35.71,35.71,0,0,1-14.23,4.14c-.66.24-1.38-.07-2,.2h-5.61c-.56-.28-1.19,0-1.76-.21a37.81,37.81,0,0,1-10.28-1.86c-1.62-.48-3.22-.24-4.81-.47a2.56,2.56,0,0,0-1.4,0A.18.18,0,0,1,230.14,152.07Z"/><path class="cls-5" d="M160.12,114.71a18.62,18.62,0,0,1-5.12,5.12,2.87,2.87,0,0,1-1.51,1.38,53.23,53.23,0,0,1-14.43,5.09,1,1,0,0,1-.93-.09c-4.07.66-8.13,1.34-12.24,1.71l-.29,0a1.53,1.53,0,0,1-1,.24c-.61.06-1.25-.17-1.81.24-2.94.19-5.88.39-8.82.32a2.18,2.18,0,0,0-1.62.61,17.42,17.42,0,0,1-10.55,3.92c-.36.09-.75.29-1-.24a1.41,1.41,0,0,1,1-.64c6.14-1.52,10.92-5.38,15.66-9.25a3.34,3.34,0,0,1,3.57-.68,23.49,23.49,0,0,0,15.93.16A19.2,19.2,0,0,0,143,119a4.55,4.55,0,0,1,2.66-1.06,49.33,49.33,0,0,0,13.05-3.07C159.14,114.68,159.59,114.33,160.12,114.71Z"/><path class="cls-6" d="M100.89,133c.23.31.59.19.89.29a26.49,26.49,0,0,1-8,0l.62-.29a1.12,1.12,0,0,1,1-.26,25.21,25.21,0,0,0,4.43,0A1.12,1.12,0,0,1,100.89,133Z"/><path class="cls-2" d="M311.41,146.77h6.91A25.38,25.38,0,0,1,311.41,146.77Z"/><path class="cls-7" d="M122.77,128.42c.37-.9,1.12-.43,1.73-.49.13.19.14.36-.1.48Z"/><path class="cls-8" d="M50.4,127.94h1.35c-.27.82-.92.47-1.46.48C50.17,128.23,50.16,128.06,50.4,127.94Z"/><path class="cls-9" d="M50.4,127.94l-.11.49H48.92C49.19,127.57,49.86,128,50.4,127.94Z"/><path class="cls-10" d="M124.4,128.41l.1-.48h1.1C125.42,128.66,124.88,128.45,124.4,128.41Z"/><path class="cls-2" d="M254.2,154.54a3.25,3.25,0,0,1,2-.2A4.05,4.05,0,0,1,254.2,154.54Z"/><path class="cls-2" d="M306.94,146.47a3.23,3.23,0,0,1,2,.21A4.12,4.12,0,0,1,306.94,146.47Z"/><path class="cls-2" d="M286.78,153.7c.54-.41,1.15-.23,1.74-.21A3.25,3.25,0,0,1,286.78,153.7Z"/><path class="cls-2" d="M246.83,154.34c.6,0,1.22-.21,1.76.21A3.65,3.65,0,0,1,246.83,154.34Z"/><path class="cls-11" d="M256.69,282.38l.59-.29a.74.74,0,0,1,.72.48A1.66,1.66,0,0,1,256.69,282.38Z"/><path class="cls-2" d="M230.34,152a1.1,1.1,0,0,1,1.4,0Z"/><path class="cls-2" d="M283.06,153.5c.51-.05,1-.2,1.47.2A2.75,2.75,0,0,1,283.06,153.5Z"/><path class="cls-12" d="M227.49,290.81c.22-.09.51,0,.61-.33.23.08.48.34.34.46S227.78,291.07,227.49,290.81Z"/><path class="cls-13" d="M100.89,133a19.11,19.11,0,0,1-6.49,0,24.05,24.05,0,0,1-10.69-5.12,49.88,49.88,0,0,1-8.14-7.26c-1.31-1.59-2.5-1.63-4.31-1.27A88.08,88.08,0,0,1,51.7,121.4,16.49,16.49,0,0,1,44.62,120a4.82,4.82,0,0,1-2.33-2.34c-.14-.31-.12-.75-.72-.58-3.77,1.07-6-1.58-6.86-4.91-1.34-5.06-.8-9.93,2.5-14.21.6-.79.28-1-.37-1.27-3.12-1.49-6.25-3-9.34-4.52a58.34,58.34,0,0,1-9.72-5.83,11.53,11.53,0,0,1-2.72-2.81c-1.37-2.16-.89-4.14,1.41-5.25,3.56-1.72,7.42-2.45,11.27-3.18,3.21-.6,6.42-1.13,9.64-1.65a2,2,0,0,0,1.23-.55c3.08-3.16,7-4.52,11.2-5.37a56,56,0,0,1,13.36-1.09,118.08,118.08,0,0,1,21.6,2.64,5.47,5.47,0,0,0,4.06-.77A24.65,24.65,0,0,1,99,65.59c10-.71,19,2.51,27.45,7.7a42.56,42.56,0,0,1,4.72,3.26c.92.75,1.5.58,2.38,0a41.48,41.48,0,0,1,13.79-6c1-.23,2.08-.52,3.2-.7-1.76-.39-3.51-.82-5.28-1.14a33.75,33.75,0,0,1-5.23-1.54,6.61,6.61,0,0,1-3.1-2.3,34.28,34.28,0,0,0-4.4-4.1,35.84,35.84,0,0,1-5.46-5.62c-1.93-2.77-1.45-4.8,1.46-6.47.7-.4,1.13-.64.52-1.54s-.21-1.76.48-2.53a13.88,13.88,0,0,1,4.94-3.38c7.18-3.11,14.63-5.05,22.53-4.85.28,0,.57,0,.84,0,.82.08,1.78.74,2.37.25s.41-1.47.59-2.23a26.26,26.26,0,0,1,5.4-10.19A7.9,7.9,0,0,1,169.54,22a195.35,195.35,0,0,1,30.88-10.41,60.46,60.46,0,0,1,15.5-1.87,21.89,21.89,0,0,1,4.69.71c1.12.28,1.35.56.56,1.61-2.45,3.28-3.22,6.81-1.08,10.58a12.6,12.6,0,0,0,.81,1.15c2.32,3.11,2.33,3,5.9,1.49,8.2-3.54,16.59-6.56,25.46-7.88,4.11-.62,8.28-.89,12.31.7.34.13.7.26,1,.42,2,1,2,1.05,1.42,3.21-1.41,5.05-.62,10,.86,14.86.22.7.6.7,1.17.52a95.13,95.13,0,0,1,14.7-3.37c4.53-.65,9.07-1.08,13.6.11,3.68,1,5.22,2.87,5.76,6.65.34,2.38,1,4.71,1.15,7.16a25.62,25.62,0,0,1-1.92,11.31c-3.07,7.47-9.32,10.91-16.54,13a34.49,34.49,0,0,1-11.34,1.43,16.2,16.2,0,0,1-3.89-.35c-2.53-.76-4.71-.22-7.07.86a44,44,0,0,1-15.11,3.78,34.27,34.27,0,0,1-16.76-2.85,2,2,0,0,1-.39-.15c-2-1.71-3.7-1.12-5.8.11-5.87,3.42-12.38,4.39-19.06,3.9a40,40,0,0,1-14.35-4,3.47,3.47,0,0,0-3.51.27c.73.51,1.36,1,2,1.4a14.38,14.38,0,0,1,5.56,6.85,2.44,2.44,0,0,0,.84,1.06,8.88,8.88,0,0,1-.4,5.55,5.71,5.71,0,0,1-1.31,1.91,21.89,21.89,0,0,1-6.1,4.53c-1.12.52-.48,1.54-.61,2.34.06.48-.29.93-.07,1.42l-.76,2c-.29.28-.21.73-.45,1-.61,1.6-2,2.48-3.29,3.37-4.2,1.4-8.3.63-12.33-.72-1.17-.39-1.76-.2-2.23,1-.84,2.14-2.54,3.65-4.17,5.19a3.31,3.31,0,0,1-1.14.49l-4,2.3a44.73,44.73,0,0,1-13.62,3.48,8.22,8.22,0,0,0-4.5,2.09c-4.63,3.55-9.94,4.51-15.63,3.81a25.88,25.88,0,0,1-6.36-1.58c-.93-.37-1.36.24-1.94.69-3.67,2.85-7.15,6-11.48,7.88A32.59,32.59,0,0,1,100.89,133Z"/><path class="cls-14" d="M226.05,77.85c1.94-1.73,1.94-1.73,3.58-.26A9.08,9.08,0,0,1,226.05,77.85Z"/><path class="cls-15" d="M188.45,100.05a1,1,0,0,1,.07-1.42C189.2,99.14,188.37,99.57,188.45,100.05Z"/><path class="cls-16" d="M187.39,103.2l-.27-.24c.11-.35.18-.72.57-.9C187.65,102.46,187.74,102.89,187.39,103.2Z"/><path class="cls-17" d="M210.11,126a6.26,6.26,0,0,1-3.92,0Z"/><path class="cls-18" d="M255.32,143.08c-1.19.57-2.44.13-3.67.25C252.85,142.77,254.1,143.19,255.32,143.08Z"/><path class="cls-19" d="M244.1,145.32c-.41.44-.94.22-1.42.24C243.09,145.16,243.62,145.36,244.1,145.32Z"/><path class="cls-5" d="M184,106.31c-.86,6.06-5.21,9.37-11.24,8.52-1.43-.2-2.84-.5-4.25-.75l-4.46-1.67c2.25-1.91,4.44-3.88,5.39-6.81.28-.83.76-.71,1.42-.48a28,28,0,0,0,8.16,1.72,13.18,13.18,0,0,0,4-.56C183.36,106.2,183.71,105.83,184,106.31Z"/><path class="cls-2" d="M212.7,141.42a2.9,2.9,0,0,1-2.11,0Z"/></svg>