<svg id="bg" xmlns="http://www.w3.org/2000/svg" viewBox="0 0 53.53 48.1">
  <defs>
    <style>
      .cls-1 {
        fill: none;
      }

      .cls-2 {
        fill: #e7f0e5;
      }

      .cls-3 {
        fill: #388440;
      }

      .cls-4 {
        fill: #fee5bb;
      }

      .cls-5 {
        fill: #c39e6a;
      }

      .cls-6 {
        fill: #fde500;
      }

      .cls-7 {
        fill: #f16635;
      }

      .cls-8 {
        fill: #7ea944;
      }

      .cls-9 {
        fill: #9db949;
      }

      .cls-10 {
        fill: #fefefe;
      }
    </style>
  </defs>
  <title>p02</title>
  <rect class="cls-1" x="-543.54" y="-319" width="808" height="454.5"/>
  <g>
    <path class="cls-2" d="M48.54,13.65A53.9,53.9,0,0,1,52.68,18c.21.55-4.84,6.44-6.74,2.23S48.54,13.65,48.54,13.65Z"/>
    <g>
      <path class="cls-3" d="M21.81,27.07c-1.27-.13-2.55-.24-3.82-.42a48.93,48.93,0,0,1-15.61-4.5A21,21,0,0,1,.43,21a.68.68,0,0,1-.31-.44,5.73,5.73,0,0,1,.29-3.25,13.75,13.75,0,0,1,2.45-4,36.6,36.6,0,0,1,7.57-6.7,1.29,1.29,0,0,1,.28.48,3.05,3.05,0,0,0,4.9.82A3.28,3.28,0,0,0,16.21,4c-.11-.23-.26-.42-.38-.63.06-.13.2-.15.31-.2A32.64,32.64,0,0,1,23.41.4a11.42,11.42,0,0,1,4-.34c.06,0,.12,0,.15.05a.34.34,0,0,1-.09.15A3.24,3.24,0,0,0,29.28,5a3,3,0,0,0,3.94-2.61c0-.12,0-.25.1-.33a33.08,33.08,0,0,1,3.77,2.2,79.37,79.37,0,0,1,9.92,8c.52.47,1,1,1.53,1.44-1.73,1-2.38,2.2-2.09,3.83a3.27,3.27,0,0,0,2.67,2.59,3.2,3.2,0,0,0,3.51-2.23,1.9,1.9,0,0,1,.27,3,7.8,7.8,0,0,1-2.23,1.64,32.91,32.91,0,0,1-6.25,2.4A78,78,0,0,1,35.62,27a25.43,25.43,0,0,1-2.63.2.25.25,0,0,1-.24.09c-.4,0-.8.07-1.21.07-1.35,0-2.7.08-4.05.06s-3-.07-4.46-.17c-.3,0-.61,0-.91-.06A.57.57,0,0,1,21.81,27.07Z"/>
      <path class="cls-4" d="M33.77,29.08a2.35,2.35,0,0,1,.35.71c.78,1.7,1.72,3.32,2.65,4.94s2.06,3.48,2.92,5.31a10.29,10.29,0,0,1,1,3,3.11,3.11,0,0,1-1.17,3,9.11,9.11,0,0,1-4.24,1.73,32.91,32.91,0,0,1-7.08.4c-.85,0-1.71-.12-2.55-.21s-1.76-.18-2.63-.32a10,10,0,0,1-4.38-1.47,3.11,3.11,0,0,1-1.4-2.38,5.34,5.34,0,0,1,.6-2.69,32.77,32.77,0,0,1,2.52-4.17,11.19,11.19,0,0,0,1.58-4.22A20.61,20.61,0,0,0,22.11,29c.09,0,.15,0,.19.09a2.84,2.84,0,0,0,1.31.77,13.19,13.19,0,0,0,2.84.54,18.28,18.28,0,0,0,2.34,0,10.82,10.82,0,0,0,3.64-.68,4,4,0,0,0,1-.55C33.53,29.16,33.62,29.06,33.77,29.08Z"/>
      <path class="cls-5" d="M33.77,29.08a6.32,6.32,0,0,1-3.24,1.3,15.55,15.55,0,0,1-3.54.17,11.89,11.89,0,0,1-3.72-.7A2.47,2.47,0,0,1,22.11,29c-.11-.65-.15-1.32-.3-2,1.45.07,2.89.16,4.34.21.92,0,1.85,0,2.77,0L33,27.18c.21.51.43,1,.64,1.51A1.12,1.12,0,0,1,33.77,29.08Z"/>
      <path class="cls-6" d="M33.32,2a3.1,3.1,0,0,1-2.5,3.09A3.2,3.2,0,0,1,27,2.53,3.31,3.31,0,0,1,27.44.17a2,2,0,0,1,.59,0h.17c.09.06.21,0,.31,0A13.44,13.44,0,0,1,33.15,1.9,1.77,1.77,0,0,1,33.32,2Z"/>
      <path class="cls-7" d="M15.83,3.37A.21.21,0,0,1,16,3.5a3.38,3.38,0,0,1-2,5.3,3.18,3.18,0,0,1-3.63-2.22A37.67,37.67,0,0,1,15.83,3.37Z"/>
      <path class="cls-8" d="M28,.18h-.59c0-.05.07-.05.11-.06S27.89,0,28,.18Z"/>
      <path class="cls-9" d="M28.51.24c-.11,0-.22,0-.31,0A.37.37,0,0,1,28.51.24Z"/>
      <path class="cls-7" d="M16.65,24.48a3.3,3.3,0,1,1,3.2-3.3A3.23,3.23,0,0,1,16.65,24.48Z"/>
      <path class="cls-7" d="M38.8,13.58a3.22,3.22,0,0,1-3.19-3.3,3.2,3.2,0,1,1,6.39,0A3.24,3.24,0,0,1,38.8,13.58Z"/>
      <path class="cls-10" d="M29.07,23.89a3.3,3.3,0,1,1,3.22-3.29A3.23,3.23,0,0,1,29.07,23.89Z"/>
      <path class="cls-6" d="M23.88,14.65a3.23,3.23,0,0,1-3.19-3.31,3.19,3.19,0,1,1,6.38,0A3.23,3.23,0,0,1,23.88,14.65Z"/>
      <path class="cls-6" d="M7.28,20a3.3,3.3,0,0,1,0-6.59,3.3,3.3,0,0,1,0,6.59Z"/>
      <path class="cls-6" d="M40,23.77a3.3,3.3,0,1,1,3.2-3.27A3.23,3.23,0,0,1,40,23.77Z"/>
    </g>
  </g>
</svg>
