<svg id="Layer_1" data-name="Layer 1" xmlns="http://www.w3.org/2000/svg" xmlns:xlink="http://www.w3.org/1999/xlink" viewBox="0 0 260 168"><defs><style>.cls-1{fill:#132a7a;}.cls-2{fill:#ff7029;}.cls-3{clip-path:url(#clip-path);}.cls-4{fill:#0c2466;}.cls-5{fill:#f7aa54;}.cls-6{fill:none;stroke:#132a7a;stroke-linecap:round;stroke-linejoin:round;stroke-width:0.43px;}.cls-7{fill:#ce4515;}.cls-8{fill:#ea5418;}.cls-9{fill:#f4601e;}.cls-10{fill:#460f0b;}.cls-11{fill:#931818;}.cls-12{fill:#fff;}.cls-13{fill:#572517;}.cls-14{fill:#130402;}.cls-15{fill:#572417;}.cls-16{clip-path:url(#clip-path-2);}.cls-17{fill:#cc4e17;}</style><clipPath id="clip-path"><path class="cls-1" d="M167.93,111.36s-10.34,30.19,9.94,28.18,34.5-5.79,38.31-9.29,11.34-17.86-11.88-17C204.3,113.29,182.38,116.8,167.93,111.36Z"/></clipPath><clipPath id="clip-path-2"><path class="cls-2" d="M166.08,70.3c1.54-7-1.26-17-1-21.5s2-15.24,22.43-15.24c15.38,0,23,6.88,22.17,21.62,0,0-15-3-19.12,4.56,0,0-1.13,15.24,12.28,20.15,0,0,1.32-1.59,3.53,8.91,1.64,7.83,2.39,13.5,3.45,17.68s-3.77,5.12-18.87,7.13c0,0-6.64-4.63-6.23-16.56s-9.49-13.66-13-9.33-2.42,14.34-5.26,17.58-6.5-4.6-5.28-13.52S166.08,70.3,166.08,70.3Z"/></clipPath></defs><ellipse class="cls-1" cx="182.45" cy="117.4" rx="13.98" ry="4.7"/><path class="cls-1" d="M167.93,111.36s-10.34,30.19,9.94,28.18,34.5-5.79,38.31-9.29,11.34-17.86-11.88-17C204.3,113.29,182.38,116.8,167.93,111.36Z"/><g class="cls-3"><path class="cls-4" d="M163.29,125.36c-.09,3.1,2.47,5.63,5.09,7.31a17.25,17.25,0,0,0,5.28,2.39,19.94,19.94,0,0,0,9.17-.42,50.58,50.58,0,0,0,9.29-3.15,16.14,16.14,0,0,1,4.85-1.67c2.19-.23,4.34.58,6.53.82,5.54.61,12.94-2.33,17.55-5.46,1.63,2-.63,4.79-1,7.38a14.05,14.05,0,0,1-2,6.18c-1.47,2.15-3.87,3.46-6.26,4.46-9.05,3.81-19.09,4.36-28.9,4.68-8.45.27-17,.38-25.21-1.78a3.91,3.91,0,0,1-2.13-1.1,3.49,3.49,0,0,1-.64-1.78,12.43,12.43,0,0,1,1.23-7.22c1.7-3.32,4.94-6,5.15-9.76"/><path class="cls-5" d="M198.43,115.47c3,1.32,6.46.72,9.71.29a23.79,23.79,0,0,1,7.67-.07c4.07.8,7.81,3.43,11.95,3.19a7.33,7.33,0,0,0,.31-4,12,12,0,0,0-9.14-9.52c-2.7-.56-5.49-.16-8.24.08-3.91.34-7.85.36-11.74.94-2,.3-5.62.88-5.13,3.62A8.07,8.07,0,0,0,198.43,115.47Z"/><path class="cls-6" d="M218.13,115.39c-3.82-1.26-8.06.17-12-.64"/><path class="cls-6" d="M211,113.89q-7.35,0-14.68-.17"/></g><path class="cls-7" d="M197.52,111.62a4.68,4.68,0,0,1,.23,2.84,2.07,2.07,0,0,1-.6.83,6.13,6.13,0,0,1-5.71,1.13c-2-.43-3.9-1.34-5.87-1.67-5-.83-9.71,2-14.63,2.62a3.1,3.1,0,0,1-1.65-.13,4.68,4.68,0,0,1-2.09-2.85c-1.17-3.52-.43-7.54.33-11.13,1-4.79.39-10.55,1.41-15.34.34-1.61.08-4,.76-5.41,1.15-2.3,5.33-1.75,7.26-2.45a14.61,14.61,0,0,1,9.4-.18,9,9,0,0,1,5.73,4.64c1.07,2.27.38,4.08.61,6.52C193.33,97.87,195.6,105.25,197.52,111.62Z"/><path class="cls-8" d="M186.58,82s-1,10.64-2.28,16.33-11.15,6-12.27.55,3.08-15,2.66-18.23,2.73-6.23,7.56-5.93S186.58,82,186.58,82Z"/><path class="cls-9" d="M205.38,73.17s1,11.74-1,17.84-23.22-9.86-23.22-9.86V75.46Z"/><path class="cls-9" d="M206.39,58.66s.66,18.24-5.22,26.18L179.22,74.06l6.71-18.88Z"/><path class="cls-10" d="M204.18,71.42s-1.08,2.2-.31,3.25c0,0-4.34-1.42-4.14-3.54Z"/><ellipse class="cls-11" cx="201.96" cy="74.67" rx="1.74" ry="2.76" transform="translate(86.98 256.72) rotate(-78.02)"/><path class="cls-12" d="M200,70.88c-.17.56.93,1.39,2.46,1.85s2.85.35,3.07-.19c.83-2-.93-1.38-2.46-1.84S200.2,70.32,200,70.88Z"/><path class="cls-13" d="M206.39,42.14c4.89,9.37,2.29,17.5.81,23.34,0,0,.41,4-.26,5.28,0,0-.33,3.09-6.56.37a6.55,6.55,0,0,0,4.69,3.4s.64.2-.11,2.3-.66,5.53-17.88,3.89C176.74,79.73,170.71,70,169.76,67s-2.39-17.82,3.91-28.08"/><path class="cls-14" d="M207.21,58.51a8.76,8.76,0,0,0-7.42-1S204.6,51.32,207.21,58.51Z"/><ellipse class="cls-15" cx="206.39" cy="66.14" rx="2.43" ry="1.24" transform="translate(-1.96 6.47) rotate(-1.79)"/><path d="M200.69,59.68a2.85,2.85,0,0,1-2.36-.25s-.23,1.21.79,1.52Z"/><path d="M200.39,60.81a2.85,2.85,0,0,1-2.36-.25s-.23,1.2.79,1.51Z"/><ellipse class="cls-12" cx="201.9" cy="63.62" rx="4.22" ry="3.68" transform="translate(117.3 257.67) rotate(-83.94)"/><ellipse cx="201.9" cy="63.62" rx="2.64" ry="2.3" transform="translate(117.3 257.67) rotate(-83.94)"/><ellipse class="cls-12" cx="203.76" cy="62.53" rx="0.96" ry="1.08"/><path class="cls-2" d="M166.08,70.3c1.54-7-1.26-17-1-21.5s2-15.24,22.43-15.24c15.38,0,23,6.88,22.17,21.62,0,0-15-3-19.12,4.56,0,0-1.13,15.24,12.28,20.15,0,0,1.32-1.59,3.53,8.91,1.64,7.83,2.39,13.5,3.45,17.68s-3.77,5.12-18.87,7.13c0,0-6.64-4.63-6.23-16.56s-9.49-13.66-13-9.33-2.42,14.34-5.26,17.58-6.5-4.6-5.28-13.52S166.08,70.3,166.08,70.3Z"/><g class="cls-16"><path class="cls-9" d="M158.67,56.42s19.43,2.88,32-5.62,22.58-6.6,22.58-6.6l-3.22-2s-9.42-.84-16.24,3.63-12.7,7.82-20.39,8.76S158.67,56.42,158.67,56.42Z"/><path class="cls-9" d="M187.53,57.7s-.62,1.66,2.46,8.79,9.67,25.92,14.41,16.6,6.75-27.91,6.75-27.91S199.16,45.08,187.53,57.7Z"/></g><path class="cls-9" d="M175.26,71.05c2.65,3.91,6.92,6.36,11,8.68a10.32,10.32,0,0,1-9.91-1.6,12.19,12.19,0,0,1-3.94-6.28c-.26-.95-1.44-5.19,0-5.7C173,65.94,174.72,70.26,175.26,71.05Z"/><ellipse class="cls-17" cx="205.58" cy="134.36" rx="13.76" ry="7" transform="translate(-9.84 16.41) rotate(-4.47)"/><path class="cls-13" d="M195,103.41a9.1,9.1,0,0,0,3.39-1.2c1-.81,3.58-1.75,3.29-.76a7.47,7.47,0,0,1-1.82,2.37l2.17.82s.88,1.45-.6,3.67a5.18,5.18,0,0,1-3.05,2.46s-4.23-.92-5.13-2.64S193.21,103.37,195,103.41Z"/><path class="cls-13" d="M204.16,106.24c-3.82.1-3.54-.62-3.51-1.16s1.64-.9,3.61-.8,3.53.62,3.5,1.17S206.12,106.19,204.16,106.24Z"/><path class="cls-13" d="M203.91,108.73c-3.79-.43-3.41-1.1-3.31-1.64s1.75-.67,3.68-.3,3.42,1.1,3.32,1.64S205.87,109,203.91,108.73Z"/><path class="cls-13" d="M202.35,111c-3.43-1.67-2.85-2.18-2.57-2.65s1.87,0,3.57,1,2.85,2.18,2.57,2.65S204.12,111.84,202.35,111Z"/><path class="cls-13" d="M199.75,112.16c-3.24-2-2.61-2.46-2.29-2.9s1.87.15,3.46,1.31,2.61,2.46,2.29,2.9S201.43,113.2,199.75,112.16Z"/><path class="cls-8" d="M181.06,93.08s9,3.81,13.63,6.53,2.16,11.41-2.92,10.86-12.27-6.86-15.19-7.38S171.9,99,173.5,94.84,181.06,93.08,181.06,93.08Z"/></svg>