<svg id="Layer_6" data-name="Layer 6" xmlns="http://www.w3.org/2000/svg" xmlns:xlink="http://www.w3.org/1999/xlink" viewBox="0 0 260 168"><defs><style>.cls-1{fill:#2e29ff;}.cls-14,.cls-2{fill:#112a7a;}.cls-3{fill:#572517;}.cls-4{fill:#460f0b;}.cls-5{fill:#ff7029;}.cls-6{fill:#fff;}.cls-7{fill:#ea5418;}.cls-8{clip-path:url(#clip-path);}.cls-9{fill:#2c82ff;}.cls-10{clip-path:url(#clip-path-2);}.cls-11{fill:#f7aa54;}.cls-12{fill:none;stroke:#132a7a;stroke-linecap:round;stroke-linejoin:round;stroke-width:0.27px;}.cls-13{fill:#0c2668;opacity:0.41;}.cls-14{opacity:0.21;}.cls-15{clip-path:url(#clip-path-3);}.cls-16{fill:#431a11;}.cls-17{fill:#130402;}.cls-18{fill:#3a150e;}.cls-19{clip-path:url(#clip-path-4);}.cls-20{clip-path:url(#clip-path-5);}.cls-21{fill:#f4601e;}.cls-22{clip-path:url(#clip-path-6);}.cls-23{fill:#351406;}.cls-24{clip-path:url(#clip-path-7);}.cls-25{clip-path:url(#clip-path-8);}</style><clipPath id="clip-path"><path class="cls-1" d="M174.94,132c-1.58-.25-3.86-.45-6.38-.78-9.62-1.27-8.62.58-8.63,1.42s.52,2.48,8.59,1.65c2.53-.27,4.82-.41,6.4-.62a4.1,4.1,0,0,0,3.91,2.27c2.26,0,4.11-1.32,4.13-3C183,133,182.19,132.36,174.94,132Z"/></clipPath><clipPath id="clip-path-2"><path class="cls-2" d="M114.47,132.21s-9.08-5.5-11.12,6,5.32,17.35,22.31,18.91,13.7-.31,16.67,0,13.15.94,18.16-3.91,8.45-14.64,5.17-19.37-11.71-5.94-19-3S114.47,132.21,114.47,132.21Z"/></clipPath><clipPath id="clip-path-3"><path class="cls-3" d="M132.84,63.86a14.45,14.45,0,0,0-12.61,7.71c-4.17,8-.91,19.54,0,22.08s5.93,9,13.44,9,11.85-7.77,12.53-10,3-15.17-1.59-22.59A13.38,13.38,0,0,0,132.84,63.86Z"/></clipPath><clipPath id="clip-path-4"><path class="cls-4" d="M128.82,96.07a28.79,28.79,0,0,0,4.22.54,13.69,13.69,0,0,0,4.17-.74,4.18,4.18,0,0,1-4.14,3.21C129.62,99.08,129.15,97.11,128.82,96.07Z"/></clipPath><clipPath id="clip-path-5"><path class="cls-5" d="M117.53,82.45s2.79-6,15.24-6,15,6.39,15,6.39S151.14,61,132.77,61C113.68,61,117.53,82.45,117.53,82.45Z"/></clipPath><clipPath id="clip-path-6"><path class="cls-5" d="M118.24,80.61s-1.23,26.23,15.33,26.23c16.89,0,13.29-28.34,13.29-28.34s.6.16,1.07,3.78,7.17,31.4,11.56,40.23-.59,9.35-11.44,11.56-20.36,3.24-26.93.91-11.83-4.29-10.4-13,6.61-32.86,6.64-40.31C117.36,81.68,118.16,77.65,118.24,80.61Z"/></clipPath><clipPath id="clip-path-7"><ellipse class="cls-6" cx="140.35" cy="87.93" rx="3.63" ry="4.16" transform="translate(-1.94 3.17) rotate(-1.29)"/></clipPath><clipPath id="clip-path-8"><ellipse class="cls-6" cx="125.68" cy="87.93" rx="4.16" ry="3.63" transform="translate(34.95 211.6) rotate(-88.71)"/></clipPath></defs><path class="cls-3" d="M103.89,127.74a8.76,8.76,0,0,1-2.92,1.75c-1.18.21-3.43,1.55-2.54,1.94a7.24,7.24,0,0,0,2.83.09l-.72,2.08s.53,1.53,3,1.78a4.88,4.88,0,0,0,3.64-.74s1.88-3.64,1.17-5.33S104.92,126.43,103.89,127.74Z"/><path class="cls-3" d="M100.41,136.14c2.38-2.72,1.68-2.95,1.27-3.26s-1.65.66-2.76,2.15-1.68,3-1.27,3.26S99.19,137.55,100.41,136.14Z"/><path class="cls-3" d="M102.37,137.47c2-3,1.26-3.16.81-3.41s-1.55.88-2.44,2.51-1.26,3.15-.81,3.4S101.35,139,102.37,137.47Z"/><path class="cls-3" d="M105,137.69c.85-3.51.13-3.4-.38-3.48s-1.16,1.34-1.46,3.18-.13,3.39.37,3.47S104.52,139.5,105,137.69Z"/><path class="cls-3" d="M107.38,136.51c.49-3.58-.21-3.39-.73-3.42s-1,1.45-1.13,3.3.22,3.39.73,3.42S107.13,138.35,107.38,136.51Z"/><path class="cls-7" d="M103.2,127.1s3.76,2.89,6.49,3.26,9.43-11.19,8.37-15.78-6.88-2.7-8.33-.85S103.31,125.84,103.2,127.1Z"/><path class="cls-7" d="M109.44,114.28s3.63,3,6.34,3.53,6.92-10.07,6.06-14.7-3.77-3.7-5.3-1.91S109.6,113,109.44,114.28Z"/><path class="cls-3" d="M165.06,127.74a8.76,8.76,0,0,0,2.92,1.75c1.18.21,3.44,1.55,2.54,1.94a7.19,7.19,0,0,1-2.82.09l.71,2.08s-.53,1.53-3,1.78a4.88,4.88,0,0,1-3.64-.74s-1.87-3.64-1.16-5.33S164,126.43,165.06,127.74Z"/><path class="cls-1" d="M174.94,132c-1.58-.25-3.86-.45-6.38-.78-9.62-1.27-8.62.58-8.63,1.42s.52,2.48,8.59,1.65c2.53-.27,4.82-.41,6.4-.62a4.1,4.1,0,0,0,3.91,2.27c2.26,0,4.11-1.32,4.13-3C183,133,182.19,132.36,174.94,132Z"/><g class="cls-8"><path class="cls-9" d="M158.89,130.8a3.93,3.93,0,0,0,3.82,3.13c3.29.13,12.3-.66,12.3-.66a4.22,4.22,0,0,0,4.42,2.32c3.43-.21,4.21-3.88,4.21-3.88l-.07,5.39-25.18-.31Z"/></g><path class="cls-7" d="M165.75,127.1s-3.75,2.89-6.48,3.26-9.43-11.19-8.37-15.78,6.88-2.7,8.32-.85S165.65,125.84,165.75,127.1Z"/><path class="cls-7" d="M159.51,114.28s-3.63,3-6.34,3.53-6.92-10.07-6-14.7,3.76-3.7,5.29-1.91S159.35,113,159.51,114.28Z"/><ellipse class="cls-3" cx="162.12" cy="134.64" rx="1.03" ry="1.81" transform="translate(-47.35 111.59) rotate(-33.43)"/><ellipse class="cls-3" cx="164.25" cy="134.64" rx="1.03" ry="1.81" transform="translate(-47 112.76) rotate(-33.43)"/><ellipse class="cls-3" cx="166.29" cy="134.64" rx="1.03" ry="1.81" transform="translate(-46.66 113.89) rotate(-33.43)"/><ellipse class="cls-3" cx="168.27" cy="134.21" rx="1.03" ry="1.81" transform="translate(-46.1 114.91) rotate(-33.43)"/><path class="cls-2" d="M114.47,132.21s-9.08-5.5-11.12,6,5.32,17.35,22.31,18.91,13.7-.31,16.67,0,13.15.94,18.16-3.91,8.45-14.64,5.17-19.37-11.71-5.94-19-3S114.47,132.21,114.47,132.21Z"/><g class="cls-10"><path class="cls-11" d="M125.1,130.32a18.68,18.68,0,0,0-8,1.19,7.2,7.2,0,0,0-3.39,2.29,3.31,3.31,0,0,0-.18,3.86c.74,1,2.15,1.36,2.63,2.49a5.3,5.3,0,0,1,.26,1.55,9.23,9.23,0,0,0,3.55,6.05,23.91,23.91,0,0,0,6.3,3.43,118.06,118.06,0,0,0,14.08,4.71,4.85,4.85,0,0,1,2.49,1.2c.9,1,.77,2.54.59,3.88a1.47,1.47,0,0,1-1.54,1.55q-6.82,1.14-13.74,1.61a18.19,18.19,0,0,1-5-.16,15,15,0,0,1-7.48-4.72,30.72,30.72,0,0,1-6.61-10.79,21.76,21.76,0,0,0-1.88-4.57,16.39,16.39,0,0,1-1.33-2.09,7.1,7.1,0,0,1-.41-3.18,7.73,7.73,0,0,1,1.38-4.69,7.89,7.89,0,0,1,3.18-2,42.13,42.13,0,0,1,6.76-2.14c.52-.12,1.3,0,1.28.51L117,131.39"/><path class="cls-12" d="M143.37,163.2c-2.47-4.91-8.05-7.29-13.28-9s-10.88-3.32-14.37-7.56a26.46,26.46,0,0,1-3.31-5.81,10.47,10.47,0,0,1-1.16-3.57,3.61,3.61,0,0,1,1.39-3.32"/><path class="cls-12" d="M137.79,161.18a20,20,0,0,0-8.41-5.71c-3.18-1.27-6.52-2.07-9.78-3.14a13.34,13.34,0,0,1-5.41-2.87,14.81,14.81,0,0,1-2.36-3.39l-2.07-3.65"/><path class="cls-12" d="M113.69,131.35a1.75,1.75,0,0,0-1,.06,9.32,9.32,0,0,0-2.74,1.1,5.17,5.17,0,0,0-1.69,6.39"/><path class="cls-12" d="M128.71,159.66c-1.58-2.19-4.22-3.35-6.81-4.13s-5.29-1.31-7.63-2.67a12,12,0,0,1-5.09-6"/><path class="cls-13" d="M121.06,137.5c4.57,1.28,9.42,1,14.16.65l9.12-.62a12.94,12.94,0,0,0,4.29-.79c1.33-.58,2.43-1.6,3.78-2.11a15.15,15.15,0,0,1,3.15-.62,24,24,0,0,0,4.35-1c1.55-.53,3.28-1.58,3.26-3.21a2.88,2.88,0,0,0-1.54-2.32,8.06,8.06,0,0,0-2.78-.82,181.53,181.53,0,0,0-18.63-1.81q-8.67-.53-17.33-.91a21,21,0,0,0-2.86,0c-3.15.3-10.58,2-8.49,6.38C113.32,134,117.23,136.43,121.06,137.5Z"/><path class="cls-14" d="M102,146.33c3.49-.2,6.55,2.1,9.58,3.82a32.27,32.27,0,0,0,8,3.2,5.16,5.16,0,0,0,2.91.11,24.15,24.15,0,0,0,2.15-1.22,6.67,6.67,0,0,1,4.35-.14c4.24.94,8.45,2.91,12.72,2.16a44.07,44.07,0,0,0,5.75-1.92c5.32-1.75,11.28-1.19,16.39-3.49,1.47-.67,2.93-1.57,4.54-1.48,2.36.14,4,2.39,4.91,4.59a6.81,6.81,0,0,1,.36,5.08,7.31,7.31,0,0,1-2.25,2.67,34.19,34.19,0,0,1-15,6.63A78.11,78.11,0,0,1,140,167.46a217.27,217.27,0,0,1-36.16-3.64c-2.16-.4-4.59-1-5.62-3a7.39,7.39,0,0,1-.59-3.62c0-4,.19-8.28,2.22-11.77"/></g><ellipse class="cls-7" cx="132.79" cy="87.37" rx="14.59" ry="23.5"/><path class="cls-3" d="M132.84,63.86a14.45,14.45,0,0,0-12.61,7.71c-4.17,8-.91,19.54,0,22.08s5.93,9,13.44,9,11.85-7.77,12.53-10,3-15.17-1.59-22.59A13.38,13.38,0,0,0,132.84,63.86Z"/><g class="cls-15"><path class="cls-16" d="M117.18,85.36s2.1-7.68,5.06-9.57,6.55-2.21,10.88-2.21,8.94.7,10.25,1.7,4.73,6.24,4.9,9.89l1.54-22.29L126.4,60.23s-7.52,2-7.69,2-3.76,5-3.76,5Z"/></g><path class="cls-17" d="M121.12,81.7a15.64,15.64,0,0,1,8.69,0S125.27,76.81,121.12,81.7Z"/><path class="cls-17" d="M135.78,81.7a15.65,15.65,0,0,1,8.69,0S139.94,76.81,135.78,81.7Z"/><path class="cls-18" d="M133,95.33a5.59,5.59,0,0,0-2.75,0,7,7,0,0,1-2.15.36s.18,4.64,4.93,4.64,4.88-4.8,4.88-4.8a14,14,0,0,1-2.33-.3A5,5,0,0,0,133,95.33Z"/><path class="cls-4" d="M128.82,96.07a28.79,28.79,0,0,0,4.22.54,13.69,13.69,0,0,0,4.17-.74,4.18,4.18,0,0,1-4.14,3.21C129.62,99.08,129.15,97.11,128.82,96.07Z"/><g class="cls-19"><ellipse class="cls-6" cx="132.89" cy="95.56" rx="3.87" ry="1.84"/></g><path class="cls-5" d="M117.53,82.45s2.79-6,15.24-6,15,6.39,15,6.39S151.14,61,132.77,61C113.68,61,117.53,82.45,117.53,82.45Z"/><g class="cls-20"><path class="cls-21" d="M113.79,79.52c.33,0,14.79-14.75,34.26-9.59l-3.64-6.08s-17.11-4.46-29.63,12.89Z"/></g><path class="cls-5" d="M118.24,80.61s-1.23,26.23,15.33,26.23c16.89,0,13.29-28.34,13.29-28.34s.6.16,1.07,3.78,7.17,31.4,11.56,40.23-.59,9.35-11.44,11.56-20.36,3.24-26.93.91-11.83-4.29-10.4-13,6.61-32.86,6.64-40.31C117.36,81.68,118.16,77.65,118.24,80.61Z"/><g class="cls-22"><path class="cls-21" d="M164.68,131.57c-1.72,1.28-4,.87-5.76-.38a18.14,18.14,0,0,1-4.22-5.11,19,19,0,0,0-4.19-5.15,2.4,2.4,0,0,0-2.67-.48c-.83.56-1.06,1.82-1.27,2.93C145,131.32,139.3,138,132.5,139.3a10.73,10.73,0,0,1-4.15,0c-4.5-.92-8-5.41-9.71-10.41s-1.92-10.52-2.12-15.91a3.42,3.42,0,0,0-1.83,2.35,11.94,11.94,0,0,0-.29,3.28c0,5,.28,10.06-1,14.8-.5,1.81-1.2,3.85-.42,5.52a4.83,4.83,0,0,0,3.31,2.29c9.65,2.86,19.74,2.57,29.69,2.27,6.66-.2,13.39-.42,19.83-2.47a2.1,2.1,0,0,0,1.16-.7,2.39,2.39,0,0,0,.33-1.36,5.09,5.09,0,0,0-1.24-3.32"/><path class="cls-21" d="M145.14,98.29c-.17.37-.38.77-.73.87q-.51-6.52-.48-13.09a11.83,11.83,0,0,1,.7-4.73c.38-.85,1.45-2.17,2.23-1.15s.65,2.83.73,3.94a30.21,30.21,0,0,1-.76,9.2A27.87,27.87,0,0,1,145.14,98.29Z"/></g><path class="cls-21" d="M122.91,100.69s10.15,10.77,21.5-.88C144.41,99.81,135.1,119.59,122.91,100.69Z"/><path class="cls-21" d="M119.94,101.73a10,10,0,0,1,.8,2.82c0,.4,0,.9-.42,1s-.8-.27-1-.65c-1.12-1.86-2.25-4.57-2.06-6.8.09-1,.67-1.2,1.18-.33A29.62,29.62,0,0,1,119.94,101.73Z"/><path class="cls-21" d="M122.1,130.26s12.42,4.83,18.68,0C140.78,130.26,133.4,139,122.1,130.26Z"/><path class="cls-23" d="M131.13,92.47a1.18,1.18,0,0,0,.68,1,3.08,3.08,0,0,0,1.19.23,2.07,2.07,0,0,0,1.13-.25,1.91,1.91,0,0,0,.75-1,1.55,1.55,0,0,1-.48,1.34,2,2,0,0,1-1.42.48,2.62,2.62,0,0,1-1.41-.43A1.17,1.17,0,0,1,131.13,92.47Z"/><path class="cls-23" d="M131.38,93.62a2.07,2.07,0,0,1-.76-.16.82.82,0,0,1-.49-.66,2.1,2.1,0,0,1,.46-1.33,2.07,2.07,0,0,0-.19,1.27c.12.37.55.38.95.31Z"/><path class="cls-23" d="M134.43,93.3c.38.13.8.19,1-.16a2.09,2.09,0,0,0,0-1.29,2.18,2.18,0,0,1,.24,1.39.78.78,0,0,1-.58.57,1.94,1.94,0,0,1-.79,0Z"/><path class="cls-23" d="M131.59,90.55a2.27,2.27,0,0,1,1.54-.46,2.15,2.15,0,0,1,.8.21,1.86,1.86,0,0,1,.65.49,3.79,3.79,0,0,0-1.47-.42,3.14,3.14,0,0,0-.75,0A5.27,5.27,0,0,0,131.59,90.55Z"/><path d="M141.86,84.16a2.85,2.85,0,0,0,2.34,0s.13,1.2-.9,1.42Z"/><path d="M142.07,85.29a2.83,2.83,0,0,0,2.33-.05s.13,1.2-.9,1.41Z"/><ellipse class="cls-6" cx="140.35" cy="87.93" rx="3.63" ry="4.16" transform="translate(-1.94 3.17) rotate(-1.29)"/><g class="cls-24"><path d="M141.18,87.7a2,2,0,0,1,1.21.44,1.06,1.06,0,0,0-.47,1,1,1,0,0,0,1,1,.77.77,0,0,0,.41-.16,2.26,2.26,0,1,1-2.18-2.27Z"/></g><path d="M124.17,84.16a2.85,2.85,0,0,1-2.34,0s-.13,1.2.9,1.42Z"/><path d="M124,85.29a2.83,2.83,0,0,1-2.33-.05s-.13,1.2.9,1.41Z"/><ellipse class="cls-6" cx="125.68" cy="87.93" rx="4.16" ry="3.63" transform="translate(34.95 211.6) rotate(-88.71)"/><g class="cls-25"><path d="M128.44,89.83A1,1,0,0,1,128,90a1,1,0,0,1-1-1,1.07,1.07,0,0,1,.47-1,2,2,0,0,0-1.21-.44,2.63,2.63,0,1,0,2.2,2.65A2.23,2.23,0,0,0,128.44,89.83Z"/></g></svg>