<svg xmlns="http://www.w3.org/2000/svg" xmlns:xlink="http://www.w3.org/1999/xlink" viewBox="0 0 260 168"><defs><style>.cls-1{fill:#112a7a;}.cls-2{fill:#572517;}.cls-3{fill:#edc596;}.cls-4{fill:#60300f;}.cls-5{fill:#ffdea4;}.cls-6{fill:#460f0b;}.cls-7{fill:#ff7029;}.cls-8{fill:#fff;}.cls-9{fill:#ea5418;}.cls-10{fill:#ce9a67;}.cls-11{clip-path:url(#clip-path);}.cls-12{fill:#f7aa54;}.cls-13,.cls-36{fill:none;}.cls-13{stroke:#132a7a;stroke-linecap:round;stroke-linejoin:round;stroke-width:0.17px;}.cls-14{fill:#0c2668;opacity:0.41;}.cls-15{clip-path:url(#clip-path-2);}.cls-16{fill:#431a11;}.cls-17{fill:#130402;}.cls-18{fill:#3a150e;}.cls-19{clip-path:url(#clip-path-3);}.cls-20{clip-path:url(#clip-path-4);}.cls-21{fill:#f4601e;}.cls-22{clip-path:url(#clip-path-5);}.cls-23{fill:#351406;}.cls-24{clip-path:url(#clip-path-6);}.cls-25{clip-path:url(#clip-path-7);}.cls-26{clip-path:url(#clip-path-8);}.cls-27{fill:#cc3e0d;}.cls-28{clip-path:url(#clip-path-9);}.cls-29{fill:#020202;}.cls-30{fill:#e0e0e0;}.cls-31{clip-path:url(#clip-path-10);}.cls-32{fill:#c68d59;}.cls-33{clip-path:url(#clip-path-11);}.cls-34{fill:#bc8e61;}.cls-35{opacity:0.24;}.cls-36{stroke:#ddb083;stroke-miterlimit:10;stroke-width:0.1px;}.cls-37{clip-path:url(#clip-path-12);}.cls-38{fill:#3f1d06;}.cls-39{clip-path:url(#clip-path-13);}.cls-40{fill:#e28f9b;}.cls-41{fill:#602406;}.cls-42{fill:#f2c783;}</style><clipPath id="clip-path"><path class="cls-1" d="M140.17,112.41s-3.87,10.68-.83,13.36,7.3,1.92,13.29,1.61,11.25.55,12.32-2.79-2.66-15.18-2.66-15.18S145.94,106.71,140.17,112.41Z"/></clipPath><clipPath id="clip-path-2"><path class="cls-2" d="M152.12,73.38a9.33,9.33,0,0,0-8.14,5c-2.7,5.16-.59,12.61,0,14.25s3.82,5.8,8.67,5.8,7.65-5,8.09-6.43,1.91-9.79-1-14.58A8.61,8.61,0,0,0,152.12,73.38Z"/></clipPath><clipPath id="clip-path-3"><path class="cls-6" d="M149.52,94.16a17.77,17.77,0,0,0,2.72.35,8.84,8.84,0,0,0,2.7-.48,2.7,2.7,0,0,1-2.67,2.08C150,96.11,149.74,94.84,149.52,94.16Z"/></clipPath><clipPath id="clip-path-4"><path class="cls-7" d="M142.23,85.37s1.81-3.89,9.84-3.89,9.71,4.12,9.71,4.12,2.15-14.1-9.71-14.1C139.75,71.5,142.23,85.37,142.23,85.37Z"/></clipPath><clipPath id="clip-path-5"><path class="cls-7" d="M161.86,85.26c-.4-2.32-.69-2.43-.69-2.43s2.32,18.28-8.58,18.28c-10.69,0-9.9-16.92-9.9-16.92-.05-1.91-.56.68-.56.68S141,95,140.14,99s1,6.9.13,8.38-3.19,1.61-3.27,4.08,6.19,5.47,13.16,5.7,14.52-1,16.25-3.7,3.38-3.51,1.65-5-5.83-5.94-5.63-10.86A82.92,82.92,0,0,0,161.86,85.26Z"/></clipPath><clipPath id="clip-path-6"><ellipse class="cls-8" cx="156.97" cy="88.91" rx="2.34" ry="2.69" transform="translate(-1.95 3.54) rotate(-1.29)"/></clipPath><clipPath id="clip-path-7"><ellipse class="cls-8" cx="147.49" cy="88.91" rx="2.69" ry="2.34" transform="translate(55.3 234.37) rotate(-88.71)"/></clipPath><clipPath id="clip-path-8"><path class="cls-9" d="M140.48,97s-3.06,4.23-3.19,7.46,1.54,8.67,2.84,10.48,4.34.84,4.76-2.43-3.5-9.86-3.8-12.19A21.62,21.62,0,0,0,140.48,97Z"/></clipPath><clipPath id="clip-path-9"><path class="cls-9" d="M162.46,96.58s3.61,4,3.79,7.14-.87,9.15-3.38,9.73-4.24-1.06-3.42-3.63,1.08-5.88,2.05-7.76S162.46,96.58,162.46,96.58Z"/></clipPath><clipPath id="clip-path-10"><path class="cls-10" d="M141.23,126.57s-.42,3.3-.67,4.33,2.57,2.83,7.39,3.19a52.84,52.84,0,0,0,8.27,0,18.31,18.31,0,0,0,5.42-.52c2.54-.72,3.38-.48,3.42-.92s-1.14-6.08-1.14-6.08Z"/></clipPath><clipPath id="clip-path-11"><ellipse class="cls-3" cx="152.58" cy="126.57" rx="11.34" ry="2.71"/></clipPath><clipPath id="clip-path-12"><path class="cls-4" d="M147,120.52c-.73.12-1.13,1.34-1.45,2a3.45,3.45,0,0,1-.24.47c-.24.32-.69.44-.88.79a1.36,1.36,0,0,0,.05,1.08,2.12,2.12,0,0,0,.3.67,3.06,3.06,0,0,0,.46.42,7.43,7.43,0,0,0,2.63,1.49,8.59,8.59,0,0,0,1.34.15,16.41,16.41,0,0,0,3.64-.09c.41-.07.9-.27.93-.68a.85.85,0,0,0-.25-.58c-.79-1-2.13-1.34-3-2.25a1.4,1.4,0,0,1-.45-1c0-.62.6-1.43-.33-1.62C149,121.25,147.74,120.4,147,120.52Z"/></clipPath><clipPath id="clip-path-13"><path class="cls-5" d="M150.12,119.74a11.47,11.47,0,0,1,2,1.37,13.94,13.94,0,0,0,5.05,1.88c.81.19,1.77.53,1.94,1.34a1.56,1.56,0,0,1-.18,1c-.6,1.15-2,1.6-3.26,1.84a14.28,14.28,0,0,1-4.12.3,7.35,7.35,0,0,1-3.83-1.42,3.61,3.61,0,0,1-1-1.13,5.3,5.3,0,0,1-.43-1.33,4.54,4.54,0,0,1-.13-2.25c.27-.95.9-1,1.67-1.27S149.17,119.33,150.12,119.74Z"/></clipPath></defs><g id="Layer_3" data-name="Layer 3"><path class="cls-1" d="M140.17,112.41s-3.87,10.68-.83,13.36,7.3,1.92,13.29,1.61,11.25.55,12.32-2.79-2.66-15.18-2.66-15.18S145.94,106.71,140.17,112.41Z"/><g class="cls-11"><path class="cls-12" d="M140.54,128.58a1.47,1.47,0,0,0,.35.78,1.58,1.58,0,0,0,.85.35,43,43,0,0,0,4.94.63,22.17,22.17,0,0,1,1.42-17.56c-1.41-.4-3.06-1-4.27,0s-1.91,3.2-2.42,4.52A19.49,19.49,0,0,0,140.54,128.58Z"/><path class="cls-13" d="M146.2,130.51a10.82,10.82,0,0,1-1.77-9.91"/><path class="cls-13" d="M144.12,132.33c-1.24-1.93-1.34-4.37-1.27-6.66a56.64,56.64,0,0,1,.73-7.35"/><path class="cls-13" d="M141.32,132.26a71.28,71.28,0,0,1,1-14"/><path class="cls-14" d="M155.77,119c3-.22,6.17-.48,8.87-1.89a5.66,5.66,0,0,0,3.14-3.54c.51-2.35-1.42-4.67-3.69-5.45s-4.75-.44-7.13-.08l-9.46,1.43c-2.7.41-6.47.32-8.93,1.58-2.12,1.08-.92,3.12.41,4.4a14.46,14.46,0,0,0,7.28,3.44A36.91,36.91,0,0,0,155.77,119Z"/></g><path class="cls-14" d="M150.52,115.3a5.93,5.93,0,0,0,4.44.7,15.22,15.22,0,0,0,5.37-2,8.8,8.8,0,0,1,2.1-1c-.32-.34-1.78.09-2.21.18-.79.16-1.56.38-2.33.61a44,44,0,0,1-4.66,1.28A11.18,11.18,0,0,1,150.52,115.3Z"/><ellipse class="cls-9" cx="152.08" cy="88.55" rx="9.42" ry="15.17"/><path class="cls-2" d="M152.12,73.38a9.33,9.33,0,0,0-8.14,5c-2.7,5.16-.59,12.61,0,14.25s3.82,5.8,8.67,5.8,7.65-5,8.09-6.43,1.91-9.79-1-14.58A8.61,8.61,0,0,0,152.12,73.38Z"/><g class="cls-15"><path class="cls-16" d="M142,87.25s1.36-5,3.27-6.18,4.23-1.42,7-1.42,5.77.45,6.62,1.1,3.05,4,3.16,6.38l1-14.39L148,71s-4.85,1.26-5,1.3-2.43,3.26-2.43,3.26Z"/></g><path class="cls-17" d="M144.55,84.89a10.07,10.07,0,0,1,5.61,0S147.23,81.73,144.55,84.89Z"/><path class="cls-17" d="M154,84.89a10.06,10.06,0,0,1,5.61,0S156.7,81.73,154,84.89Z"/><path class="cls-18" d="M152.23,93.69a3.6,3.6,0,0,0-1.78,0,4.34,4.34,0,0,1-1.38.23,3.09,3.09,0,0,0,3.17,3,3.12,3.12,0,0,0,3.15-3.1,10.33,10.33,0,0,1-1.5-.2A3.22,3.22,0,0,0,152.23,93.69Z"/><path class="cls-6" d="M149.52,94.16a17.77,17.77,0,0,0,2.72.35,8.84,8.84,0,0,0,2.7-.48,2.7,2.7,0,0,1-2.67,2.08C150,96.11,149.74,94.84,149.52,94.16Z"/><g class="cls-19"><ellipse class="cls-8" cx="152.15" cy="93.83" rx="2.5" ry="1.19"/></g><path class="cls-7" d="M142.23,85.37s1.81-3.89,9.84-3.89,9.71,4.12,9.71,4.12,2.15-14.1-9.71-14.1C139.75,71.5,142.23,85.37,142.23,85.37Z"/><g class="cls-20"><path class="cls-21" d="M139.82,83.48c.21,0,9.55-9.52,22.11-6.19l-2.34-3.92s-11.05-2.88-19.13,8.32Z"/></g><path class="cls-7" d="M161.86,85.26c-.4-2.32-.69-2.43-.69-2.43s2.32,18.28-8.58,18.28c-10.69,0-9.9-16.92-9.9-16.92-.05-1.91-.56.68-.56.68S141,95,140.14,99s1,6.9.13,8.38-3.19,1.61-3.27,4.08,6.19,5.47,13.16,5.7,14.52-1,16.25-3.7,3.38-3.51,1.65-5-5.83-5.94-5.63-10.86A82.92,82.92,0,0,0,161.86,85.26Z"/><g class="cls-22"><path class="cls-21" d="M172.67,117.08a3.15,3.15,0,0,1-3.72-.25,11.43,11.43,0,0,1-2.72-3.29,12.21,12.21,0,0,0-2.71-3.33,1.55,1.55,0,0,0-1.72-.31c-.54.36-.68,1.18-.82,1.89-1,5.13-4.69,9.43-9.08,10.28a6.91,6.91,0,0,1-2.68,0c-2.91-.59-5.17-3.49-6.27-6.72s-1.24-6.79-1.37-10.27a2.22,2.22,0,0,0-1.18,1.52,7.87,7.87,0,0,0-.19,2.12c0,3.21.18,6.49-.65,9.55-.32,1.17-.77,2.49-.27,3.57a3.08,3.08,0,0,0,2.14,1.47c6.23,1.85,12.74,1.66,19.16,1.47,4.3-.13,8.65-.27,12.8-1.6a1.28,1.28,0,0,0,.75-.45,1.54,1.54,0,0,0,.21-.88,3.28,3.28,0,0,0-.8-2.14"/><path class="cls-21" d="M160.05,95.6a.89.89,0,0,1-.47.56q-.33-4.22-.3-8.45a7.47,7.47,0,0,1,.45-3.06c.24-.54.93-1.39,1.43-.73a5.49,5.49,0,0,1,.48,2.54,19.75,19.75,0,0,1-.49,5.94A17.52,17.52,0,0,1,160.05,95.6Z"/></g><path class="cls-21" d="M145.71,97.15s6.55,6.95,13.88-.57C159.59,96.58,153.58,109.35,145.71,97.15Z"/><path class="cls-21" d="M143.79,97.82a6.5,6.5,0,0,1,.51,1.82c0,.26,0,.58-.27.66s-.51-.17-.66-.42A8.16,8.16,0,0,1,142,95.5c.06-.64.44-.78.76-.22A18.57,18.57,0,0,1,143.79,97.82Z"/><path class="cls-21" d="M145.28,112.41s8,3.12,12.06,0C157.34,112.41,152.57,118.07,145.28,112.41Z"/><path class="cls-23" d="M151,91.84a.78.78,0,0,0,.44.63,2,2,0,0,0,.77.15,1.16,1.16,0,0,0,1.22-.81,1,1,0,0,1-.32.87,1.27,1.27,0,0,1-.91.3,1.68,1.68,0,0,1-.91-.28A.75.75,0,0,1,151,91.84Z"/><path class="cls-23" d="M151.18,92.58a1.27,1.27,0,0,1-.5-.1.53.53,0,0,1-.32-.42,1.38,1.38,0,0,1,.3-.86,1.33,1.33,0,0,0-.12.82c.08.24.35.24.61.2Z"/><path class="cls-23" d="M153.14,92.38c.25.08.52.12.63-.11a1.3,1.3,0,0,0,0-.83,1.43,1.43,0,0,1,.16.9.54.54,0,0,1-.38.37,1.27,1.27,0,0,1-.51,0Z"/><path class="cls-23" d="M151.31,90.6a1.64,1.64,0,0,1,1-.3,1.41,1.41,0,0,1,.93.46,2,2,0,0,0-1-.27A2.37,2.37,0,0,0,151.31,90.6Z"/><path d="M157.94,86.48a1.83,1.83,0,0,0,1.51,0s.08.78-.58.92Z"/><path d="M158.07,87.21a1.83,1.83,0,0,0,1.51,0s.08.78-.58.92Z"/><ellipse class="cls-8" cx="156.97" cy="88.91" rx="2.34" ry="2.69" transform="translate(-1.95 3.54) rotate(-1.29)"/><g class="cls-24"><path d="M157.07,88.76a1.32,1.32,0,0,1,.79.29.7.7,0,0,0-.31.65.65.65,0,0,0,.67.63.59.59,0,0,0,.26-.1,1.94,1.94,0,0,1,0,.24,1.47,1.47,0,1,1-1.43-1.71Z"/></g><path d="M146.52,86.48a1.83,1.83,0,0,1-1.51,0s-.08.78.58.92Z"/><path d="M146.39,87.21a1.83,1.83,0,0,1-1.51,0s-.08.78.58.92Z"/><ellipse class="cls-8" cx="147.49" cy="88.91" rx="2.69" ry="2.34" transform="translate(55.3 234.37) rotate(-88.71)"/><g class="cls-25"><path d="M148.85,90.14a.59.59,0,0,1-.26.1.66.66,0,0,1-.67-.64.72.72,0,0,1,.31-.65,1.31,1.31,0,0,0-.79-.28,1.69,1.69,0,1,0,1.43,1.71A1.79,1.79,0,0,0,148.85,90.14Z"/></g><path class="cls-9" d="M140.48,97s-3.06,4.23-3.19,7.46,1.54,8.67,2.84,10.48,4.34.84,4.76-2.43-3.5-9.86-3.8-12.19A21.62,21.62,0,0,0,140.48,97Z"/><g class="cls-26"><path class="cls-27" d="M141.48,119s4.37-3.58,3.37-6.29-5.51.56-4,3.38S141.48,119,141.48,119Z"/></g><path class="cls-2" d="M143.14,112.25a5.32,5.32,0,0,0,2,.67c.73,0,2.23.5,1.75.84a4.39,4.39,0,0,1-1.67.41l.69,1.15s-.13,1-1.59,1.44a3,3,0,0,1-2.26,0s-1.57-1.93-1.36-3S142.36,111.6,143.14,112.25Z"/><path class="cls-2" d="M146.26,116.81c-1.75-1.32-1.37-1.54-1.16-1.78s1.06.19,1.91.94,1.37,1.54,1.16,1.78S147.16,117.5,146.26,116.81Z"/><path class="cls-2" d="M145.26,117.85c-1.55-1.55-1.14-1.72-.9-1.93s1,.33,1.76,1.19,1.14,1.72.91,1.92S146.06,118.64,145.26,117.85Z"/><path class="cls-2" d="M143.75,118.3c-.95-2-.5-2-.21-2.12s.86.66,1.27,1.71.5,2,.21,2.12S144.24,119.32,143.75,118.3Z"/><path class="cls-2" d="M142.16,117.9c-.74-2.06-.3-2,0-2.12s.79.73,1.09,1.82.3,2.05,0,2.13S142.54,119,142.16,117.9Z"/><path class="cls-9" d="M162.46,96.58s3.61,4,3.79,7.14-.87,9.15-3.38,9.73-4.24-1.06-3.42-3.63,1.08-5.88,2.05-7.76S162.46,96.58,162.46,96.58Z"/><g class="cls-28"><path class="cls-27" d="M158.07,114.72l5.68,1.45s.46-4-.23-5.3-4.18-.91-5.74,1.8l.29,2.25"/></g><path class="cls-2" d="M160.74,110.31a7.54,7.54,0,0,0-2.34,2.48,2.31,2.31,0,0,0,.13,2.57c.27.53,3.84,2.32,5-2S160.74,110.31,160.74,110.31Z"/><rect class="cls-29" x="159.66" y="112" width="1.05" height="3.57" rx="0.42" transform="translate(77.46 -64.44) rotate(29.71)"/><path class="cls-30" d="M160.51,112.7s-4.28,6.46-5.84,9.11l5.51-7.3S161.54,112.41,160.51,112.7Z"/><path class="cls-10" d="M141.23,126.57s-.42,3.3-.67,4.33,2.57,2.83,7.39,3.19a52.84,52.84,0,0,0,8.27,0,18.31,18.31,0,0,0,5.42-.52c2.54-.72,3.38-.48,3.42-.92s-1.14-6.08-1.14-6.08Z"/><g class="cls-31"><path class="cls-32" d="M162.63,129.08a2,2,0,0,0,0,1.43c.27,1.54-.08,3.13.14,4.68a.26.26,0,0,0,.07.17.26.26,0,0,0,.21,0c.52-.09,3.08-.09,2.44-1a8.9,8.9,0,0,0-1-1,4.15,4.15,0,0,1-.86-1.55l-.49-1.38C163.05,130.28,162.54,129.22,162.63,129.08Z"/><path class="cls-32" d="M140.75,133.1a15.3,15.3,0,0,1,1.48-3.8,3.48,3.48,0,0,1-.12.84c-.37,2,.12,4.17-.68,6.05a2.38,2.38,0,0,1-1.76-1.78"/><path class="cls-32" d="M144.54,135.41a46.92,46.92,0,0,1,1.39-5.85,21.33,21.33,0,0,1-.06,3,5.35,5.35,0,0,0,0,1.13,7.35,7.35,0,0,0,.66,1.8,3.07,3.07,0,0,1,.14,2.3.57.57,0,0,1-.27.32.67.67,0,0,1-.39,0,3.58,3.58,0,0,1-1.09-.49,1.26,1.26,0,0,1-.55-1"/><path class="cls-32" d="M160.06,135.3c-.91-1.39-.71-3.24-1.35-4.77a2.28,2.28,0,0,0,.11,1.45,6.79,6.79,0,0,1-.16,2.76.56.56,0,0,1-.54.58,5.94,5.94,0,0,1-1.46.15.32.32,0,0,1-.21-.06.37.37,0,0,1-.09-.2l-.78-4.27c-.45,1.33.41,2.95-.38,4.1a.94.94,0,0,1-.55.43.51.51,0,0,1-.59-.29,1,1,0,0,1,0-.43,5.4,5.4,0,0,0-.24-1.3c-.16-.83,0-1.71-.19-2.54a7.92,7.92,0,0,0-.61,3.4,1.39,1.39,0,0,1,0,.41.75.75,0,0,1-.38.44,2.28,2.28,0,0,1-1.91-.18l-.7-.28a.55.55,0,0,1-.22-.14.45.45,0,0,1-.07-.28,31.57,31.57,0,0,1,0-3.64,4.73,4.73,0,0,0-.46,1.64c-.07.64,0,1.37-.51,1.81a6.27,6.27,0,0,1-.89.55,2.91,2.91,0,0,0-.92,1.71c4.26,1.35,8.8,1.49,13.27,1.5a3.41,3.41,0,0,0,1.65-.28.2.2,0,0,0,.08-.08.18.18,0,0,0,0-.12,3,3,0,0,0-1.2-1.31"/></g><ellipse class="cls-3" cx="152.58" cy="126.57" rx="11.34" ry="2.71"/><g class="cls-33"><ellipse class="cls-34" cx="151.06" cy="126.29" rx="6.72" ry="1.59"/><g class="cls-35"><path class="cls-36" d="M159.79,124.8a5.07,5.07,0,0,1,1.42.48c.43.23.88.64.77,1.11a1.13,1.13,0,0,1-.56.64,10.29,10.29,0,0,1-4.84,1.23,55.57,55.57,0,0,1-7.3,0,15.87,15.87,0,0,1-5.95-1.28.78.78,0,0,1-.4-.31.56.56,0,0,1,.14-.62,1.59,1.59,0,0,1,.58-.33,13.35,13.35,0,0,1,1.32-.41"/><path class="cls-36" d="M160.19,125.3a.68.68,0,0,1,.39.33.75.75,0,0,1-.2.78,2.92,2.92,0,0,1-1.59.7l-1.76.37"/><path class="cls-36" d="M162.51,125.7a.83.83,0,0,1,.2.89,2.25,2.25,0,0,1-.56.78,3.11,3.11,0,0,1-.58.45,3,3,0,0,1-.93.25,41.7,41.7,0,0,1-6.49.71,21.28,21.28,0,0,1-3.09-.19"/></g></g><path class="cls-4" d="M147,120.52c-.73.12-1.13,1.34-1.45,2a3.45,3.45,0,0,1-.24.47c-.24.32-.69.44-.88.79a1.36,1.36,0,0,0,.05,1.08,2.12,2.12,0,0,0,.3.67,3.06,3.06,0,0,0,.46.42,7.43,7.43,0,0,0,2.63,1.49,8.59,8.59,0,0,0,1.34.15,16.41,16.41,0,0,0,3.64-.09c.41-.07.9-.27.93-.68a.85.85,0,0,0-.25-.58c-.79-1-2.13-1.34-3-2.25a1.4,1.4,0,0,1-.45-1c0-.62.6-1.43-.33-1.62C149,121.25,147.74,120.4,147,120.52Z"/><g class="cls-37"><path class="cls-38" d="M149.91,127.79a5.39,5.39,0,0,1-2.77-1.61,1.09,1.09,0,0,0-.41-.33.26.26,0,0,0-.15,0,.25.25,0,0,0-.16.27.92.92,0,0,0,.14.32,1.39,1.39,0,0,1,.21,1,.54.54,0,0,0,0,.25.36.36,0,0,0,.19.21,2.75,2.75,0,0,0,.57.2,7,7,0,0,0,1.77.22,2,2,0,0,0,.6-.07.74.74,0,0,0,.45-.38,1.82,1.82,0,0,0-.69-.23"/></g><path class="cls-5" d="M150.12,119.74a11.47,11.47,0,0,1,2,1.37,13.94,13.94,0,0,0,5.05,1.88c.81.19,1.77.53,1.94,1.34a1.56,1.56,0,0,1-.18,1c-.6,1.15-2,1.6-3.26,1.84a14.28,14.28,0,0,1-4.12.3,7.35,7.35,0,0,1-3.83-1.42,3.61,3.61,0,0,1-1-1.13,5.3,5.3,0,0,1-.43-1.33,4.54,4.54,0,0,1-.13-2.25c.27-.95.9-1,1.67-1.27S149.17,119.33,150.12,119.74Z"/><g class="cls-39"><path class="cls-40" d="M151.18,120.43a1.7,1.7,0,0,0-1.26-.63,3.52,3.52,0,0,0-1.43.26,2.67,2.67,0,0,0-1.86,1.6,2.42,2.42,0,0,0,.25,1.64,5.8,5.8,0,0,0,2.63,2.73,6.91,6.91,0,0,0,3.76.64,10.58,10.58,0,0,0,3.67-1.13,2.19,2.19,0,0,0,1.12-1c.09-.2.13-.42.23-.61a1.28,1.28,0,0,1,1.75-.35,2.68,2.68,0,0,1,1.07,1.64,6.32,6.32,0,0,1,.24,2,3.09,3.09,0,0,1-.29,1.24,3.35,3.35,0,0,1-1.23,1.19,15.09,15.09,0,0,1-7.43,2,13.52,13.52,0,0,1-2.62-.09,18.53,18.53,0,0,1-5.67-2.23.54.54,0,0,1-.23-.19.57.57,0,0,1,0-.52,8.72,8.72,0,0,0,.56-2.37c.23-2.63-.84-5.19-1.18-7.81a1.84,1.84,0,0,1,.2-1.37,1.91,1.91,0,0,1,1.45-.53,15.92,15.92,0,0,1,5.24.5,2.1,2.1,0,0,1,1.25.73,2,2,0,0,1-.13,2"/><path class="cls-41" d="M147.76,120a2.56,2.56,0,0,0-1.33,1.26,2.71,2.71,0,0,0,.28,2.28,6.29,6.29,0,0,0,4,3,9.35,9.35,0,0,0,5-.19,6.65,6.65,0,0,0,2-.91,2.3,2.3,0,0,0,.75-.8c.1-.2.15-.41.24-.62a2.11,2.11,0,0,1,.48-.67.39.39,0,0,1,.25-.12.37.37,0,0,1,.24.15,3,3,0,0,1,.52,1.84,2.57,2.57,0,0,1-.27,1.48,2.76,2.76,0,0,1-1.27,1,21.82,21.82,0,0,1-10,2.1,7,7,0,0,1-3.36-.82,2.47,2.47,0,0,1-.73-.63,2.6,2.6,0,0,1-.35-.78,7.88,7.88,0,0,1-.09-3.74,7.27,7.27,0,0,1,.65-1.94,11,11,0,0,1,.85-1.29,5.79,5.79,0,0,1,1.19-1.28,2.84,2.84,0,0,1,2.5-.33c.11,0,.48.14.48.3s-.43.26-.56.3A9.39,9.39,0,0,0,147.76,120Z"/></g><path class="cls-42" d="M150.05,120.45a2.84,2.84,0,0,1,.81.42l2.23,1.47a.31.31,0,0,1,.11.09.29.29,0,0,1,0,.36.65.65,0,0,1-.34.17,2.07,2.07,0,0,1-1.18,0c-.33-.11-.64-.31-1-.41s-.81-.11-1.2-.23a1,1,0,0,1-.77-.83A1,1,0,0,1,150.05,120.45Z"/><path class="cls-42" d="M148.53,122.23a7.89,7.89,0,0,0,1.05.63.4.4,0,0,1,.23.23c.07.2-.12.39-.29.51a1.59,1.59,0,0,1-.76.37,1.46,1.46,0,0,1-.92-.33,1.83,1.83,0,0,1-.87-1.1c-.06-.33.23-1.54.69-1.5S148.26,122,148.53,122.23Z"/><path class="cls-42" d="M155.17,122.89a15,15,0,0,1,2.12.79c.27.11.59.31.54.6s-.44.38-.72.52-.64.63-1.07.74a1.56,1.56,0,0,1-.57,0,1.91,1.91,0,0,1-.58-.15.61.61,0,0,1-.37-.44c0-.19,0-.41-.05-.57s-.41-.17-.64-.14-.54,0-.6-.24.17-.38.37-.45C154.28,123.29,154.32,122.66,155.17,122.89Z"/><path class="cls-42" d="M152.45,123.51a.25.25,0,0,1,.19.14.24.24,0,0,1,0,.2c-.19.35-.66.41-1.06.44a1.46,1.46,0,0,1-.88-.13.36.36,0,0,1-.17-.2.38.38,0,0,1,.17-.36A1.89,1.89,0,0,1,152.45,123.51Z"/><path class="cls-42" d="M151.16,126a10,10,0,0,0,2,.29.94.94,0,0,0,.53-.07.6.6,0,0,0,.1-.86,1.43,1.43,0,0,0-.83-.46,4.41,4.41,0,0,0-1-.1c-.3,0-.6,0-.9,0a2.73,2.73,0,0,1-.93-.21,1.81,1.81,0,0,0-.5-.2c-.66-.1-.56.5-.19.76A5.94,5.94,0,0,0,151.16,126Z"/></g></svg>