<svg id="_1" data-name="1" xmlns="http://www.w3.org/2000/svg" xmlns:xlink="http://www.w3.org/1999/xlink" viewBox="0 0 260 168"><defs><style>.cls-1{fill:#112a7a;}.cls-2{fill:#f7aa54;}.cls-3{fill:#572517;}.cls-4{fill:#460f0b;}.cls-5{fill:#ff7029;}.cls-6{fill:#fff;}.cls-7{fill:#cc4e17;}.cls-8{fill:#f6702a;}.cls-9{clip-path:url(#clip-path);}.cls-10{clip-path:url(#clip-path-2);}.cls-11,.cls-28{fill:none;stroke-miterlimit:10;}.cls-11{stroke:#1e0059;stroke-width:0.22px;}.cls-12,.cls-13{fill:#102866;}.cls-13{opacity:0.23;}.cls-14{fill:#ea5418;}.cls-15{clip-path:url(#clip-path-3);}.cls-16{fill:#431a11;}.cls-17{fill:#130402;}.cls-18{fill:#3a150e;}.cls-19{clip-path:url(#clip-path-4);}.cls-20{clip-path:url(#clip-path-5);}.cls-21{fill:#f4601e;}.cls-22{clip-path:url(#clip-path-6);}.cls-23{fill:#351406;}.cls-24{clip-path:url(#clip-path-7);}.cls-25{clip-path:url(#clip-path-8);}.cls-26{fill:#ffedcf;opacity:0.5;}.cls-27{fill:#024168;}.cls-28{stroke:#024066;stroke-width:0.2px;}.cls-29{fill:#034a7f;}.cls-30{fill:#146393;}.cls-31{fill:#10669b;}</style><clipPath id="clip-path"><path class="cls-1" d="M163,115.33c-.39-6.73-5.05-21-5.49-24.88a38.69,38.69,0,0,0-.66-7.94c-.54-1.67,0-7.49.08-8s-1.66-1.16-3.55-1.18c0,0-8.57.38-9.25-.32a16.69,16.69,0,0,0-4,.93c-1.33.64-.15,2-.69,7-.47,4.39-1.63,6.92-1.32,9.29-.21,1.26-1.64,9.61-2.08,13.7-.48,4.43-1.37,11.22-1,13.87s.54,3,6.22,2.61a11.93,11.93,0,0,0,5.89.07c3.09-.81,5.31.59,7.86.59S163.37,122.27,163,115.33Z"/></clipPath><clipPath id="clip-path-2"><path class="cls-2" d="M140.15,67.91a42.52,42.52,0,0,1,1.5,16.44C140.6,93,136,105,137.58,111.77s3.28,12.93,0,16.7,10.44,0,10.44,0a65.9,65.9,0,0,0-.53-16.7c-1.49-8.53-.28-16.2,1.78-20.88s-2.42-25.24-2.42-25.24l-6.7,2.26"/></clipPath><clipPath id="clip-path-3"><path class="cls-3" d="M147.53,50.88a8.56,8.56,0,0,0-7.46,4.57c-2.47,4.73-.54,11.56,0,13.06s3.5,5.32,8,5.32,7-4.6,7.42-5.9,1.76-9-.94-13.37A7.91,7.91,0,0,0,147.53,50.88Z"/></clipPath><clipPath id="clip-path-4"><path class="cls-4" d="M145.15,69.94a15.64,15.64,0,0,0,2.5.32,8.24,8.24,0,0,0,2.47-.43,2.47,2.47,0,0,1-2.45,1.9C145.62,71.73,145.35,70.56,145.15,69.94Z"/></clipPath><clipPath id="clip-path-5"><path class="cls-5" d="M138.47,61.88s1.65-3.57,9-3.57,8.9,3.78,8.9,3.78,2-12.93-8.9-12.93C136.19,49.16,138.47,61.88,138.47,61.88Z"/></clipPath><clipPath id="clip-path-6"><path class="cls-5" d="M138.89,60.79s-.73,15.53,9.07,15.53c10,0,7.87-16.77,7.87-16.77s.35.09.64,2.23,4.24,18.59,6.84,23.82-.35,5.53-6.78,6.84-12.05,1.92-15.93.53-7-2.53-6.16-7.68,3.91-19.45,3.93-23.86C138.37,61.43,138.84,59,138.89,60.79Z"/></clipPath><clipPath id="clip-path-7"><ellipse class="cls-6" cx="152.16" cy="65.36" rx="2.18" ry="2.5" transform="translate(-1.43 3.43) rotate(-1.29)"/></clipPath><clipPath id="clip-path-8"><ellipse class="cls-6" cx="143.35" cy="65.36" rx="2.5" ry="2.18" transform="translate(74.79 207.21) rotate(-88.71)"/></clipPath></defs><path class="cls-3" d="M155.45,79.37l3.08,6.18a1.73,1.73,0,0,0,2.18.67c1.34-.65,1.12-1.46.51-2.49S158.65,78,158.65,78s-.83-1.23-2.65-.33S155.45,79.37,155.45,79.37Z"/><path class="cls-3" d="M158.35,85.21l3.16,9.11,2.44-1-2.47-8.92a1.94,1.94,0,0,0-2.36-.47C157.6,84.53,158.35,85.21,158.35,85.21Z"/><path class="cls-3" d="M161.51,94.32a4.75,4.75,0,0,1-.55,1.81c-.4.54-.83,1.93-.31,1.76a4.06,4.06,0,0,0,1.2-1l.49,1.13a1.87,1.87,0,0,0,1.92-.41,2.69,2.69,0,0,0,1.21-1.68s-.59-2.2-1.52-2.63S161.44,93.39,161.51,94.32Z"/><path class="cls-3" d="M141,79l-3.35,6a1.74,1.74,0,0,1-2.21.56c-1.31-.71-1.05-1.51-.4-2.51s2.83-5.65,2.83-5.65.89-1.2,2.67-.22S141,79,141,79Z"/><path class="cls-3" d="M137.83,84.65l-3.57,8.95-2.39-1.15,2.88-8.8a1.91,1.91,0,0,1,2.37-.36C138.61,84,137.83,84.65,137.83,84.65Z"/><path class="cls-3" d="M134.26,93.6a4.83,4.83,0,0,0,.46,1.84c.38.55.74,2,.24,1.77a4,4,0,0,1-1.16-1.08l-.53,1.1a1.85,1.85,0,0,1-1.9-.5A2.69,2.69,0,0,1,130.23,95s.69-2.18,1.64-2.56S134.37,92.68,134.26,93.6Z"/><path class="cls-3" d="M132.31,98.28c.14-2,.51-1.82.79-1.78s.39.91.24,1.94-.5,1.82-.79,1.78S132.24,99.32,132.31,98.28Z"/><path class="cls-3" d="M131,98c.42-2,.75-1.74,1-1.66s.26,1,0,1.95-.75,1.74-1,1.66S130.81,99.05,131,98Z"/><path class="cls-3" d="M129.92,97.1c1-1.72,1.28-1.39,1.52-1.22s-.07,1-.68,1.83-1.29,1.39-1.52,1.22S129.38,98,129.92,97.1Z"/><path class="cls-3" d="M129.43,95.68c1.21-1.61,1.42-1.25,1.63-1.06s-.17,1-.86,1.75-1.42,1.25-1.63,1.06S128.8,96.5,129.43,95.68Z"/><path class="cls-7" d="M150,121.49v.88a2.62,2.62,0,0,0,1.77,1.4,9.79,9.79,0,0,1,2.8,1.51,4.63,4.63,0,0,0,4,1.09c2.18-.52,1.33-2.72,1.33-2.72L153.5,121Z"/><path class="cls-8" d="M150.29,121.15a.43.43,0,0,0-.17.75,5.58,5.58,0,0,0,2.32,1.47,6.59,6.59,0,0,1,2,1.22c.21.18,2.45,1.76,4,1.42a1.74,1.74,0,0,0,.52-3.28c-1.65-.75-6.24-2.68-6.24-2.68Z"/><path class="cls-3" d="M150.3,117.78s0,2.1,0,2.68-.58,1.79,1.44,2.34a5.94,5.94,0,0,1,3.11,1.79,6,6,0,0,0,2.92,1c1.1,0,1-.73,1-.73a.65.65,0,0,0,.45-.72.85.85,0,0,0,.06-.55s.11-.14,0-.44a.48.48,0,0,0-.22-.54,18.29,18.29,0,0,0-2.06-1.11c-.95-.46-2.9-1.7-3-3.53S150.35,117,150.3,117.78Z"/><path class="cls-8" d="M156.13,125.24a1.62,1.62,0,0,1,.49-.45,1.49,1.49,0,0,1,.72-.16c.4,0,1.08,0,1.2.45a.27.27,0,0,0,.52-.14,1.11,1.11,0,0,0-.6-.69,2.4,2.4,0,0,0-1.07-.15,2,2,0,0,0-1,.21,2.39,2.39,0,0,0-.72.66.27.27,0,1,0,.46.27Z"/><path class="cls-8" d="M157.86,124.43a3.48,3.48,0,0,1,.35-1.09,1.5,1.5,0,0,1,.67-.65.26.26,0,0,0,.09-.36.27.27,0,0,0-.36-.1,2.68,2.68,0,0,0-1.26,2.06.28.28,0,0,0,.18.33.28.28,0,0,0,.33-.19Z"/><path class="cls-7" d="M145.79,121.49v.88a2.62,2.62,0,0,1-1.76,1.4,9.74,9.74,0,0,0-2.81,1.51,4.62,4.62,0,0,1-4,1.09c-2.18-.52-1.33-2.72-1.33-2.72l6.36-2.62Z"/><path class="cls-8" d="M145.47,121.15a.43.43,0,0,1,.16.75,5.58,5.58,0,0,1-2.32,1.47,6.73,6.73,0,0,0-2,1.22c-.21.18-2.45,1.76-4,1.42a1.75,1.75,0,0,1-.52-3.28c1.65-.75,6.24-2.68,6.24-2.68Z"/><path class="cls-3" d="M145.45,117.78s0,2.1,0,2.68.59,1.79-1.44,2.34a5.94,5.94,0,0,0-3.11,1.79,6,6,0,0,1-2.92,1c-1.1,0-1-.73-1-.73a.65.65,0,0,1-.45-.72.85.85,0,0,1-.06-.55s-.1-.14,0-.44a.48.48,0,0,1,.23-.54,17.9,17.9,0,0,1,2.05-1.11c.95-.46,2.9-1.7,3-3.53S145.4,117,145.45,117.78Z"/><path class="cls-8" d="M140.08,125a2.18,2.18,0,0,0-.7-.65,2,2,0,0,0-1-.22,2.48,2.48,0,0,0-1.05.14,1.11,1.11,0,0,0-.61.7.26.26,0,0,0,.51.14c.13-.5.8-.46,1.2-.45a1.46,1.46,0,0,1,.72.16,1.51,1.51,0,0,1,.49.45.29.29,0,0,0,.37.1.27.27,0,0,0,.09-.37Z"/><path class="cls-8" d="M138.4,124.29a2.68,2.68,0,0,0-1.26-2.06.27.27,0,0,0-.36.1.26.26,0,0,0,.09.36,1.45,1.45,0,0,1,.67.65,3.48,3.48,0,0,1,.35,1.09.28.28,0,0,0,.33.19.27.27,0,0,0,.18-.33Z"/><path class="cls-1" d="M163,115.33c-.39-6.73-5.05-21-5.49-24.88a38.69,38.69,0,0,0-.66-7.94c-.54-1.67,0-7.49.08-8s-1.66-1.16-3.55-1.18c0,0-8.57.38-9.25-.32a16.69,16.69,0,0,0-4,.93c-1.33.64-.15,2-.69,7-.47,4.39-1.63,6.92-1.32,9.29-.21,1.26-1.64,9.61-2.08,13.7-.48,4.43-1.37,11.22-1,13.87s.54,3,6.22,2.61a11.93,11.93,0,0,0,5.89.07c3.09-.81,5.31.59,7.86.59S163.37,122.27,163,115.33Z"/><g class="cls-9"><path class="cls-2" d="M140.15,67.91a42.52,42.52,0,0,1,1.5,16.44C140.6,93,136,105,137.58,111.77s3.28,12.93,0,16.7,10.44,0,10.44,0a65.9,65.9,0,0,0-.53-16.7c-1.49-8.53-.28-16.2,1.78-20.88s-2.42-25.24-2.42-25.24l-6.7,2.26"/><g class="cls-10"><path class="cls-11" d="M146.07,123.38c2.37-7.71-1.71-16.09-.3-24,.41-2.31,1.28-4.51,1.85-6.79A27.07,27.07,0,0,0,145,72.94"/><path class="cls-11" d="M145.58,92.47a18.12,18.12,0,0,1-.84,5.71c-.63,2-1.63,3.95-1.7,6.06a17.81,17.81,0,0,0,.66,4.33,37.44,37.44,0,0,1,.88,8.51,13.58,13.58,0,0,1-1.6,7"/><path class="cls-11" d="M144.38,92.1c.83,4.76-3.88,9-3.6,13.84a19.26,19.26,0,0,0,.64,3.18,26.49,26.49,0,0,1-2.33,18.29c-.21-.08-.13-.47.1-.46"/><path class="cls-11" d="M143.31,82.53c-.17,3.16.23,6.37-.38,9.48-.71,3.61-2.74,6.86-3.5,10.47-1.52,7.25,2.3,14.7,1.42,22.06a35.19,35.19,0,0,1-2.28,8c0,.1-.11.22-.22.2s0-.23.05-.13"/></g><path class="cls-12" d="M159.17,117.17c-.17-.31-.39-.65-.75-.71a1,1,0,0,0-.67.16c-1.47.83-1.84,2.74-2.79,4.13a7.51,7.51,0,0,1-4,2.72,45.59,45.59,0,0,1-4.8,1.06,3.67,3.67,0,0,0-2.6,1.44.5.5,0,0,0,0,.5.61.61,0,0,0,.28.16,26.32,26.32,0,0,0,14.77.22c1.7-.48,4.82-1.79,4.25-4.1-.25-1-1.31-1.69-1.93-2.48A21.77,21.77,0,0,1,159.17,117.17Z"/><path class="cls-13" d="M145.86,96.05c4.08-.23,8-1.48,12.13-1.74,1.87-.12,4-.15,5.21-1.59a3.87,3.87,0,0,0,.56-3.55,7.82,7.82,0,0,0-2-3.11,10.78,10.78,0,0,0-3.19-2.3,12.41,12.41,0,0,0-5.61-.76,45.29,45.29,0,0,0-8.4,1.37,20.85,20.85,0,0,0-6.37,2.38,8.28,8.28,0,0,0-3.4,3.68c-.56,1.53.63,2.36,1.76,3.23A14.06,14.06,0,0,0,145.86,96.05Z"/></g><ellipse class="cls-14" cx="147.5" cy="64.79" rx="8.64" ry="13.91"/><path class="cls-14" d="M136.3,79.45s-4,10.1-5.48,12.62,6.26,6,7.85-2.86S136.3,79.45,136.3,79.45Z"/><path class="cls-14" d="M162.17,85.5s2,4.84,2.88,7.6-5.87,4.43-7.32-4.41S162.17,85.5,162.17,85.5Z"/><path class="cls-3" d="M147.53,50.88a8.56,8.56,0,0,0-7.46,4.57c-2.47,4.73-.54,11.56,0,13.06s3.5,5.32,8,5.32,7-4.6,7.42-5.9,1.76-9-.94-13.37A7.91,7.91,0,0,0,147.53,50.88Z"/><g class="cls-15"><path class="cls-16" d="M138.26,63.6s1.25-4.54,3-5.66,3.88-1.31,6.44-1.31,5.29.41,6.07,1a11.06,11.06,0,0,1,2.9,5.85l.91-13.19-13.86-1.57s-4.45,1.16-4.55,1.2-2.23,3-2.23,3Z"/></g><path class="cls-17" d="M140.59,61.44a9.31,9.31,0,0,1,5.15,0S143.05,58.54,140.59,61.44Z"/><path class="cls-17" d="M149.27,61.44a9.31,9.31,0,0,1,5.15,0S151.73,58.54,149.27,61.44Z"/><path class="cls-18" d="M147.63,69.51a3.24,3.24,0,0,0-1.62,0,4,4,0,0,1-1.28.21,2.91,2.91,0,0,0,5.81-.09,9.74,9.74,0,0,1-1.38-.18A2.94,2.94,0,0,0,147.63,69.51Z"/><path class="cls-4" d="M145.15,69.94a15.64,15.64,0,0,0,2.5.32,8.24,8.24,0,0,0,2.47-.43,2.47,2.47,0,0,1-2.45,1.9C145.62,71.73,145.35,70.56,145.15,69.94Z"/><g class="cls-19"><ellipse class="cls-6" cx="147.56" cy="69.64" rx="2.29" ry="1.09"/></g><path class="cls-5" d="M138.47,61.88s1.65-3.57,9-3.57,8.9,3.78,8.9,3.78,2-12.93-8.9-12.93C136.19,49.16,138.47,61.88,138.47,61.88Z"/><g class="cls-20"><path class="cls-21" d="M136.26,60.15c.19,0,8.75-8.73,20.27-5.68l-2.15-3.6s-10.13-2.64-17.54,7.64Z"/></g><path class="cls-5" d="M138.89,60.79s-.73,15.53,9.07,15.53c10,0,7.87-16.77,7.87-16.77s.35.09.64,2.23,4.24,18.59,6.84,23.82-.35,5.53-6.78,6.84-12.05,1.92-15.93.53-7-2.53-6.16-7.68,3.91-19.45,3.93-23.86C138.37,61.43,138.84,59,138.89,60.79Z"/><g class="cls-22"><path class="cls-21" d="M166.38,91a2.9,2.9,0,0,1-3.41-.23,10.6,10.6,0,0,1-2.5-3,11.32,11.32,0,0,0-2.48-3,1.42,1.42,0,0,0-1.58-.28c-.49.32-.62,1.08-.75,1.73-.9,4.7-4.3,8.65-8.33,9.42a6.37,6.37,0,0,1-2.46,0c-2.66-.55-4.74-3.2-5.74-6.17A33.09,33.09,0,0,1,137.87,80a2,2,0,0,0-1.08,1.39,6.62,6.62,0,0,0-.17,1.94c0,2.94.16,6-.6,8.76-.3,1.07-.71,2.28-.25,3.27a2.82,2.82,0,0,0,2,1.35c5.71,1.7,11.68,1.53,17.57,1.35,3.94-.12,7.93-.25,11.74-1.46a1.25,1.25,0,0,0,.69-.42,1.44,1.44,0,0,0,.19-.8,3.06,3.06,0,0,0-.73-2"/><path class="cls-21" d="M154.81,71.26c-.1.22-.23.45-.43.51-.2-2.57-.3-5.16-.28-7.74a6.93,6.93,0,0,1,.41-2.81c.23-.5.86-1.28,1.32-.67a5,5,0,0,1,.43,2.33,17.84,17.84,0,0,1-.45,5.45A16.32,16.32,0,0,1,154.81,71.26Z"/></g><path class="cls-21" d="M141.65,72.68s6,6.37,12.73-.52C154.38,72.16,148.87,83.87,141.65,72.68Z"/><path class="cls-21" d="M139.89,73.29a6,6,0,0,1,.48,1.68c0,.23,0,.52-.25.6s-.47-.16-.61-.38a7.5,7.5,0,0,1-1.22-4c.05-.59.4-.72.7-.2A17.13,17.13,0,0,1,139.89,73.29Z"/><path class="cls-21" d="M141.17,90.18s7.36,2.86,11.06,0C152.23,90.18,147.86,95.37,141.17,90.18Z"/><path class="cls-23" d="M146.52,67.82a.69.69,0,0,0,.4.57,1.65,1.65,0,0,0,.7.13,1,1,0,0,0,1.12-.73.93.93,0,0,1-.28.79,1.26,1.26,0,0,1-.84.28,1.6,1.6,0,0,1-.84-.26A.67.67,0,0,1,146.52,67.82Z"/><path class="cls-23" d="M146.67,68.5a1.59,1.59,0,0,1-.46-.1.49.49,0,0,1-.29-.39,1.27,1.27,0,0,1,.28-.79,1.22,1.22,0,0,0-.11.76c.07.21.32.22.56.18Z"/><path class="cls-23" d="M148.47,68.3c.23.08.48.12.58-.09a1.23,1.23,0,0,0,0-.76,1.26,1.26,0,0,1,.15.82.5.5,0,0,1-.35.34,1,1,0,0,1-.46,0Z"/><path class="cls-23" d="M146.79,66.68a1.47,1.47,0,0,1,.91-.28,1.33,1.33,0,0,1,.86.42,2,2,0,0,0-.87-.25A2.17,2.17,0,0,0,146.79,66.68Z"/><path d="M153.07,63.1a1.68,1.68,0,0,0,1.4,0s.08.72-.54.85Z"/><path d="M153.19,63.78a1.7,1.7,0,0,0,1.4,0s.08.72-.54.86Z"/><ellipse class="cls-6" cx="152.16" cy="65.36" rx="2.18" ry="2.5" transform="translate(-1.43 3.43) rotate(-1.29)"/><g class="cls-24"><path d="M152.26,63.84a1.28,1.28,0,0,1,.73.27.63.63,0,0,0-.28.61.61.61,0,0,0,.62.59.51.51,0,0,0,.24-.1,1.8,1.8,0,0,1,0,.22,1.37,1.37,0,1,1-1.33-1.59Z"/></g><path d="M142.44,63.1a1.68,1.68,0,0,1-1.4,0s-.08.72.54.85Z"/><path d="M142.32,63.78a1.7,1.7,0,0,1-1.4,0s-.08.72.54.86Z"/><ellipse class="cls-6" cx="143.35" cy="65.36" rx="2.5" ry="2.18" transform="translate(74.79 207.21) rotate(-88.71)"/><g class="cls-25"><path d="M144.61,65.12a.51.51,0,0,1-.24.1.61.61,0,0,1-.63-.59A.65.65,0,0,1,144,64a1.2,1.2,0,0,0-.73-.26,1.58,1.58,0,0,0-.07,3.12,1.48,1.48,0,0,0,1.4-1.53A1.79,1.79,0,0,0,144.61,65.12Z"/></g><path class="cls-6" d="M163.8,119.82h0Z"/><path class="cls-26" d="M167.38,107.86l-4.69-.82-2.09.7s-2.73,6.54-.49,10.15a4.6,4.6,0,0,0,7.4.13C169.88,114.49,167.38,107.86,167.38,107.86Z"/><path class="cls-6" d="M163.8,120h0Z"/><path class="cls-26" d="M168.21,108.07l-5.84-.83-2.6.69s-3.36,6.5-.56,10.1a6.65,6.65,0,0,0,9.2.16C171.34,114.69,168.21,108.07,168.21,108.07Z"/><path class="cls-27" d="M160.28,101.93a4.57,4.57,0,0,0-2.64,2.41l-2.12,14.08s-.72,1.91,3.43,3.61l1.78-1.24s-3.55-1.15-3.53-2.26l1.78-14s1-1.46,1.73-1.58Z"/><path class="cls-27" d="M167.89,102.06a4.57,4.57,0,0,1,2.55,2.5l1.63,14.15s.65,1.93-3.55,3.49l-1.74-1.31s3.59-1,3.6-2.13l-1.29-14.08s-.91-1.48-1.67-1.63Z"/><path class="cls-28" d="M157.49,111.56s17,5,8.21,7.85"/><path class="cls-28" d="M161.73,119.34s-2.55-2.89,8.77-7.12"/><path class="cls-29" d="M161.48,120.9s0-1.83.48-1.82l3.74,0s.31.26.28,1.83Z"/><path class="cls-29" d="M168.4,121.48c0,.49-2.1.85-4.67.8-2.41,0-4.39-.42-4.62-.87a.29.29,0,0,1,0-.09c0-.49,2.1-.85,4.67-.81S168.41,121,168.4,121.48Z"/><polygon class="cls-29" points="157.87 124.59 159.13 121.22 168.39 121.38 169.57 124.73 157.87 124.59"/><ellipse class="cls-29" cx="163.74" cy="124.69" rx="0.88" ry="5.87" transform="translate(36.22 286.23) rotate(-89)"/><path class="cls-29" d="M168.49,107.76l-.93-1,0-1.41a.6.6,0,0,0,.51-.59l0-2.2a.6.6,0,0,0-.35-.56v-.07l0-1.35a.6.6,0,0,0-.13-.38,2.72,2.72,0,0,0,1-.13c0-1.25-4.54-1.32-4.54-1.32-3.7-.06-4.46,1-4.53,1.15h0a2.31,2.31,0,0,0,.91.16.56.56,0,0,0-.14.38l0,1.35v0a.61.61,0,0,0-.47.58l0,2.2a.61.61,0,0,0,.57.61l0,1.4v.13l-1,.92a.38.38,0,0,0-.13.12.16.16,0,0,0,0,.09c0,.46,2.12.86,4.76.91s4.77-.29,4.78-.74C168.74,107.93,168.65,107.84,168.49,107.76Zm-1.91-5.86-1.68,0a.6.6,0,0,0,.07-.27l0-1.35v0c.63,0,1.22,0,1.72,0a.65.65,0,0,0-.1.34l0,1.35Zm-3.39-1.73v0l0,1.35a.49.49,0,0,0,.06.27l-1.69,0v0l0-1.35a.65.65,0,0,0-.1-.34Z"/><rect class="cls-27" x="160.39" y="105.39" width="7.18" height="0.32" transform="translate(1.86 -2.84) rotate(1)"/><path class="cls-27" d="M160.52,100l.95.07a.68.68,0,0,1,.1.26l0,1.45-1.09,0-.11,0,0-1.43A.59.59,0,0,1,160.52,100Z"/><path class="cls-27" d="M167.67,100.16l-.95,0a.75.75,0,0,0-.11.25l0,1.46,1.09,0s.09,0,.11,0l0-1.43A.56.56,0,0,0,167.67,100.16Z"/><path class="cls-27" d="M163.18,100.17l1.81,0,0,1.45s0,.22-.09.22l-1.65,0a.69.69,0,0,1-.07-.25Z"/><ellipse class="cls-30" cx="163.63" cy="99.09" rx="0.14" ry="1.47" transform="translate(61.71 260.97) rotate(-89)"/><path class="cls-30" d="M159.35,102.6a6.91,6.91,0,0,0-1.38,1.61C157.61,105,159.24,103.17,159.35,102.6Z"/><rect class="cls-30" x="156.74" y="104.57" width="0.35" height="14.47" rx="0.18" transform="translate(18.3 -22.01) rotate(8.52)"/><circle class="cls-26" cx="160.23" cy="109.55" r="0.6"/><path class="cls-26" d="M158.62,114.31a4.9,4.9,0,0,0,2.52,4.73,5.71,5.71,0,0,1-1.34-4.71S159.1,115.35,158.62,114.31Z"/><ellipse class="cls-31" cx="160.86" cy="121.07" rx="0.18" ry="0.87" transform="translate(37.01 279.8) rotate(-89)"/><path class="cls-29" d="M168.11,99.64h-1a3,3,0,0,0-6-.11h-1a4,4,0,0,1,8,.13Z"/><path class="cls-3" d="M161.63,96a3.28,3.28,0,0,0,.58,1.94,1.12,1.12,0,0,0,.47.42.49.49,0,0,0,.58-.12,1,1,0,0,0,1.27-.59.71.71,0,0,0,.87-.46.17.17,0,0,0,.22-.06.45.45,0,0,0,.06-.24,2.79,2.79,0,0,0-.05-.91,1.08,1.08,0,0,0-.53-.7,1.27,1.27,0,0,0-.92,0c-.3.1-.58.25-.88.33a8,8,0,0,0-1.55.31"/></svg>