<svg xmlns="http://www.w3.org/2000/svg" xmlns:xlink="http://www.w3.org/1999/xlink" viewBox="0 0 260 168"><defs><style>.cls-1{fill:#112a7a;}.cls-2{fill:#f7aa54;}.cls-3{fill:#ff7029;}.cls-4{fill:#572517;}.cls-5{fill:#ea5418;}.cls-6{fill:#cc4e17;}.cls-7{fill:#f6702a;}.cls-8{fill:#491c12;}.cls-9{clip-path:url(#clip-path);}.cls-10{clip-path:url(#clip-path-2);}.cls-11,.cls-17{fill:none;stroke-miterlimit:10;}.cls-11{stroke:#1e0059;stroke-width:0.15px;}.cls-12{fill:#102866;opacity:0.23;}.cls-13{fill:#ce4515;}.cls-14{fill:#fff;}.cls-15{fill:#ffedcf;opacity:0.5;}.cls-16{fill:#024168;}.cls-17{stroke:#024066;stroke-width:0.2px;}.cls-18{fill:#034a7f;}.cls-19{fill:#146393;}.cls-20{fill:#10669b;}.cls-21{fill:#4f1e13;}.cls-22{fill:#f4601e;}.cls-23{fill:#460f0b;}.cls-24{fill:#931818;}.cls-25{fill:#130402;}.cls-26{fill:#572417;}.cls-27{clip-path:url(#clip-path-3);}</style><clipPath id="clip-path"><path class="cls-1" d="M219.34,88.68s-2.11,27-2.42,31.9-.62,8.43,2.51,9.11,9,.19,14.56.36,8.1-1.35,7.38-7.27-3.66-25.46-4.72-39S224,71.53,221.75,76.52,219.34,88.68,219.34,88.68Z"/></clipPath><clipPath id="clip-path-2"><path class="cls-2" d="M222.09,62.43a178.23,178.23,0,0,1-.34,20.75c-.86,10.83-3.19,25.79-3,34.42s.5,16.39-.92,21.05,3.85.3,3.85.3.8-10.27.72-21.06a158,158,0,0,1,1.8-26.26c1-5.84.48-31.87.48-31.87l-2.59,2.67"/></clipPath><clipPath id="clip-path-3"><path class="cls-3" d="M238.49,70.53c-1-4.36.78-10.54.6-13.36s-1.25-9.48-13.94-9.48c-9.56,0-14.28,4.28-13.78,13.44,0,0,9.32-1.89,11.89,2.84,0,0,.7,9.47-7.64,12.53,0,0-.82-1-2.19,5.54-1,4.87-1.49,8.39-2.15,11s2.34,3.18,11.73,4.43c0,0,4.13-2.88,3.87-10.29s5.9-8.5,8.08-5.81,1.51,8.92,3.27,10.93,4-2.85,3.28-8.4A115.32,115.32,0,0,0,238.49,70.53Z"/></clipPath></defs><g id="Layer_3" data-name="Layer 3"><path class="cls-4" d="M209.85,95.37a6,6,0,0,1-2.37.36c-.82-.17-2.65.1-2.17.59a5.07,5.07,0,0,0,1.82.82l-1,1.16s0,1.14,1.51,2a3.44,3.44,0,0,0,2.57.49s2.2-1.87,2.19-3.16S210.88,94.8,209.85,95.37Z"/><path class="cls-5" d="M221.69,90.76s-6.36,1.47-9.69,2.73-2.72,7.24.68,7.46,8.84-3.1,10.81-3.11,3.55-2.17,3-5.07S221.69,90.76,221.69,90.76Z"/><path class="cls-6" d="M230.93,135.21l0,1.14a20.33,20.33,0,0,1-8.48,1.34c-4.73-.28-7.11-.68-7.78-.94s-.21-1.24-.21-1.24l5.55-1.08Z"/><path class="cls-7" d="M229.06,134.32s3.88.68.59,1.4a46.54,46.54,0,0,1-14.24.16c-4.59-.71,8.57-2.26,8.57-2.26Z"/><path class="cls-8" d="M229.38,126.15s0,4.78.26,6.16.49,3.23-3,3.39-8.8.79-10.67-.54c-2.27-1.62,4-3.59,6.35-4.23s1.83-5.13,1.83-5.13S227.18,119.06,229.38,126.15Z"/><path class="cls-7" d="M219.75,135.65a5.92,5.92,0,0,0-1.16-2.1,2.36,2.36,0,0,0-2.06-.75.28.28,0,0,0-.19.33.29.29,0,0,0,.33.19,1.83,1.83,0,0,1,1.6.67,5.81,5.81,0,0,1,1,1.8.26.26,0,1,0,.51-.14Z"/><path class="cls-6" d="M241.1,133.2l.24,1.12a20.42,20.42,0,0,1-7.94,3.27c-4.66.82-7.08,1-7.79.89s-.49-1.15-.49-1.15l5.15-2.34Z"/><path class="cls-7" d="M239.06,132.77s3.94-.24.91,1.22a46.61,46.61,0,0,1-13.82,3.47c-4.63.37,7.82-4.19,7.82-4.19Z"/><path class="cls-4" d="M237.49,124.75s1.12,4.65,1.67,5.93,1.23,3-2.12,4-8.38,2.81-10.51,1.95c-2.59-1,3.06-4.42,5.19-5.59s.6-5.41.6-5.41S233.7,118.36,237.49,124.75Z"/><path class="cls-7" d="M230.32,136.22a6.11,6.11,0,0,0-1.6-1.76,2.37,2.37,0,0,0-2.2-.26.27.27,0,0,0,.27.47,1.85,1.85,0,0,1,1.75.32,5.75,5.75,0,0,1,1.32,1.5c.19.28.66,0,.46-.27Z"/><path class="cls-1" d="M219.34,88.68s-2.11,27-2.42,31.9-.62,8.43,2.51,9.11,9,.19,14.56.36,8.1-1.35,7.38-7.27-3.66-25.46-4.72-39S224,71.53,221.75,76.52,219.34,88.68,219.34,88.68Z"/><g class="cls-9"><path class="cls-2" d="M222.09,62.43a178.23,178.23,0,0,1-.34,20.75c-.86,10.83-3.19,25.79-3,34.42s.5,16.39-.92,21.05,3.85.3,3.85.3.8-10.27.72-21.06a158,158,0,0,1,1.8-26.26c1-5.84.48-31.87.48-31.87l-2.59,2.67"/><g class="cls-10"><path class="cls-11" d="M221.24,132.48c1.29-9.65.25-20.33,1.2-30.29.28-2.9.72-5.66,1.05-8.51a110.51,110.51,0,0,0,.1-24.78"/><path class="cls-11" d="M222.75,93.52c-.1,2.44-.31,4.87-.62,7.18-.35,2.51-.82,4.93-1,7.57-.1,1.85,0,3.67,0,5.48.07,3.54,0,7.15-.15,10.75a53.35,53.35,0,0,1-1,8.81"/><path class="cls-11" d="M222.33,93c0,6-1.92,11.24-2.08,17.33,0,1.36,0,2.69.06,4a108.17,108.17,0,0,1-1.86,23c-.07-.11,0-.6.06-.59"/><path class="cls-11" d="M222.46,80.93c-.24,4-.27,8-.66,11.93-.46,4.54-1.39,8.57-1.86,13.09-1,9.1,0,18.6-.69,27.84-.27,3.47-.77,6.77-1.27,10,0,.13-.06.28-.09.25s0-.29,0-.16"/></g><path class="cls-12" d="M216.91,96.4c4,1.51,8.32-.33,12.52-.8,2.86-.32,5.74,0,8.61-.08a5.47,5.47,0,0,0,4.1-1.42,7.62,7.62,0,0,0,1.47-3.81,30.5,30.5,0,0,0,.41-5.15,8,8,0,0,0-.47-3A6,6,0,0,0,241,79.41a15,15,0,0,0-3.61-1.63,19.33,19.33,0,0,0-4.38-.7,32.13,32.13,0,0,0-16.52,3.57,7.56,7.56,0,0,0-2.64,2,7.79,7.79,0,0,0-1,6.08c.37,1.92,1.31,3.37,2,5.11C215.35,95.18,215.56,95.9,216.91,96.4Z"/></g><path class="cls-13" d="M217.57,98.72c-.14.6.91,1.4,1.17,1.92a1.46,1.46,0,0,0,.45.5,4.31,4.31,0,0,0,3.91.45c1.31-.37,2.57-1,3.89-1.35,3.31-.77,6.66.84,10,1a2.2,2.2,0,0,0,1.1-.17,2.93,2.93,0,0,0,1.27-1.92c.62-2.31-.09-4.85-.78-7.11l-2.79-9a12.46,12.46,0,0,0-1.16-2.9,5.76,5.76,0,0,0-3.6-2.45,10.34,10.34,0,0,0-6.36.33,6,6,0,0,0-3.64,3.25c-.61,1.5-2.12,2.24-2.15,3.81A68.89,68.89,0,0,1,217.57,98.72Z"/><path class="cls-14" d="M206.84,121.62h0Z"/><path class="cls-15" d="M210.7,109.75l-4.67-.93-2.11.65s-2.88,6.47-.73,10.14a4.61,4.61,0,0,0,7.4.3C213,116.44,210.7,109.75,210.7,109.75Z"/><path class="cls-14" d="M206.83,121.77h0Z"/><path class="cls-15" d="M211.52,110l-5.81-1-2.62.62s-3.52,6.42-.8,10.09a6.65,6.65,0,0,0,9.2.38C214.49,116.67,211.52,110,211.52,110Z"/><path class="cls-16" d="M203.74,103.65A4.62,4.62,0,0,0,201,106l-2.46,14s-.75,1.89,3.35,3.7l1.81-1.21s-3.52-1.23-3.47-2.34l2.12-14s1-1.43,1.76-1.53Z"/><path class="cls-16" d="M211.34,104a4.63,4.63,0,0,1,2.5,2.57l1.29,14.18s.6,1.94-3.64,3.4l-1.7-1.35s3.61-.94,3.65-2l-.95-14.1s-.88-1.51-1.64-1.68Z"/><path class="cls-17" d="M200.73,113.21s16.84,5.38,8,8.05"/><path class="cls-17" d="M204.78,121.1s-2.49-3,8.93-6.92"/><path class="cls-18" d="M204.49,122.65s0-1.83.52-1.81l3.74.13s.3.26.24,1.84Z"/><path class="cls-18" d="M211.4,123.39c0,.49-2.12.8-4.69.69-2.41-.1-4.38-.53-4.6-1a.29.29,0,0,1,0-.09c0-.49,2.12-.8,4.69-.7S211.42,122.9,211.4,123.39Z"/><polygon class="cls-18" points="200.79 126.24 202.13 122.91 211.39 123.29 212.49 126.67 200.79 126.24"/><ellipse class="cls-18" cx="206.66" cy="126.49" rx="0.88" ry="5.87" transform="translate(71.72 327.73) rotate(-87.63)"/><path class="cls-18" d="M211.82,109.67l-.92-1,.06-1.41a.59.59,0,0,0,.53-.57l.09-2.2a.61.61,0,0,0-.34-.57s0,0,0-.07l.05-1.35a.6.6,0,0,0-.12-.39c.63,0,1,0,1-.1,0-1.25-4.5-1.42-4.5-1.42-3.7-.16-4.48.9-4.56,1h0c0,.06.34.12.91.18a.58.58,0,0,0-.15.38l-.06,1.35v0a.63.63,0,0,0-.49.57l-.09,2.2a.6.6,0,0,0,.55.62l-.05,1.4v.13l-1,.9a.58.58,0,0,0-.14.12.13.13,0,0,0,0,.08c0,.46,2.1.92,4.73,1s4.78-.18,4.8-.63C212.06,109.86,212,109.76,211.82,109.67Zm-1.77-5.89-1.69-.07a.65.65,0,0,0,.08-.28l.05-1.35s0,0,0,0l1.73,0a.63.63,0,0,0-.12.33l0,1.35ZM206.7,102s0,0,0,.05l-.05,1.35a.54.54,0,0,0,.05.28l-1.68-.07v0l.06-1.35a.67.67,0,0,0-.09-.34C205.48,101.89,206.06,101.93,206.7,102Z"/><rect class="cls-16" x="203.77" y="107.2" width="7.18" height="0.32" transform="matrix(1, 0.04, -0.04, 1, 4.62, -8.49)"/><path class="cls-16" d="M204,101.76l.94.09a.68.68,0,0,1,.1.26l-.06,1.45-1.1,0h-.1l.06-1.43A.55.55,0,0,1,204,101.76Z"/><path class="cls-16" d="M211.18,102.06h-1a.57.57,0,0,0-.12.25l-.06,1.45,1.1,0,.1,0,.06-1.43A.59.59,0,0,0,211.18,102.06Z"/><path class="cls-16" d="M206.69,102l1.8.07-.06,1.45s0,.23-.09.23l-1.64-.07a.78.78,0,0,1-.07-.26Z"/><ellipse class="cls-19" cx="207.16" cy="100.89" rx="0.14" ry="1.47" transform="translate(97.78 303.7) rotate(-87.63)"/><path class="cls-19" d="M202.8,104.3a6.8,6.8,0,0,0-1.42,1.58C201,106.61,202.67,104.86,202.8,104.3Z"/><rect class="cls-19" x="199.97" y="106.21" width="0.35" height="14.47" rx="0.18" transform="translate(22.47 -32.7) rotate(9.89)"/><circle class="cls-15" cx="203.51" cy="111.27" r="0.6"/><path class="cls-15" d="M201.79,116a4.9,4.9,0,0,0,2.4,4.79A5.73,5.73,0,0,1,203,116S202.24,117,201.79,116Z"/><ellipse class="cls-20" cx="203.87" cy="122.8" rx="0.18" ry="0.87" transform="translate(72.73 321.41) rotate(-87.63)"/><path class="cls-18" d="M211.63,101.28l-1,0a3,3,0,1,0-5.95-.24l-1,0a4,4,0,0,1,7.95.33Z"/><ellipse class="cls-21" cx="206.82" cy="97.92" rx="1.72" ry="0.74" transform="matrix(0.56, -0.83, 0.83, 0.56, 9.48, 213.77)"/><ellipse class="cls-21" cx="207.85" cy="98.62" rx="1.72" ry="0.74" transform="translate(9.35 214.93) rotate(-55.75)"/><ellipse class="cls-21" cx="208.94" cy="98.98" rx="1.66" ry="0.71" transform="matrix(0.56, -0.83, 0.83, 0.56, 9.53, 215.98)"/><ellipse class="cls-21" cx="210.06" cy="99.33" rx="1.51" ry="0.65" transform="translate(9.73 217.06) rotate(-55.75)"/><path class="cls-22" d="M214.05,72.32s-.61,7.3.61,11.09,14.44-6.13,14.44-6.13V73.74Z"/><path class="cls-22" d="M213.43,63.3s-.41,11.33,3.24,16.27l13.64-6.7-4.17-11.74Z"/><path class="cls-23" d="M214.8,71.23s.67,1.37.19,2c0,0,2.7-.88,2.58-2.2Z"/><ellipse class="cls-24" cx="216.18" cy="73.25" rx="1.72" ry="1.08" transform="translate(-10.5 46.48) rotate(-11.98)"/><path class="cls-14" d="M217.38,70.89c.1.35-.58.87-1.53,1.15s-1.77.22-1.91-.11c-.51-1.22.58-.86,1.53-1.15S217.27,70.55,217.38,70.89Z"/><path class="cls-4" d="M213.43,53c-3.05,5.82-1.43,10.88-.51,14.51a9.45,9.45,0,0,0,.16,3.28s.21,1.92,4.08.23a4,4,0,0,1-2.92,2.11s-.39.13.07,1.44S214.72,78,225.43,77c6.43-.61,10.18-6.67,10.76-8.55s1.49-11.08-2.42-17.46"/><path class="cls-25" d="M212.92,63.2a5.44,5.44,0,0,1,4.61-.65S214.54,58.74,212.92,63.2Z"/><ellipse class="cls-26" cx="213.43" cy="67.95" rx="0.77" ry="1.51" transform="translate(138.86 279.15) rotate(-88.21)"/><path d="M217,63.93a1.76,1.76,0,0,0,1.47-.15s.14.75-.5.94Z"/><path d="M217.16,64.63a1.78,1.78,0,0,0,1.46-.15s.15.75-.49.94Z"/><ellipse class="cls-14" cx="216.22" cy="66.38" rx="2.29" ry="2.63" transform="translate(-5.8 23.21) rotate(-6.06)"/><ellipse cx="216.22" cy="66.38" rx="1.43" ry="1.64" transform="translate(-5.8 23.21) rotate(-6.06)"/><ellipse class="cls-14" cx="215.06" cy="65.71" rx="0.6" ry="0.67"/><path class="cls-3" d="M238.49,70.53c-1-4.36.78-10.54.6-13.36s-1.25-9.48-13.94-9.48c-9.56,0-14.28,4.28-13.78,13.44,0,0,9.32-1.89,11.89,2.84,0,0,.7,9.47-7.64,12.53,0,0-.82-1-2.19,5.54-1,4.87-1.49,8.39-2.15,11s2.34,3.18,11.73,4.43c0,0,4.13-2.88,3.87-10.29s5.9-8.5,8.08-5.81,1.51,8.92,3.27,10.93,4-2.85,3.28-8.4A115.32,115.32,0,0,0,238.49,70.53Z"/><g class="cls-27"><path class="cls-22" d="M243.09,61.9S231,63.7,223.23,58.41s-14-4.1-14-4.1l2-1.27s5.86-.52,10.1,2.26,7.89,4.86,12.68,5.44S243.09,61.9,243.09,61.9Z"/><path class="cls-22" d="M225.15,62.7s.38,1-1.53,5.46-6,16.12-9,10.32-4.19-17.35-4.19-17.35S217.92,54.86,225.15,62.7Z"/></g><path class="cls-22" d="M232.78,71c-1.65,2.43-4.31,4-6.87,5.39a6.41,6.41,0,0,0,6.17-1,7.57,7.57,0,0,0,2.44-3.9c.16-.6.9-3.23,0-3.55C234.16,67.82,233.11,70.51,232.78,71Z"/><path class="cls-5" d="M229,79.43a100.32,100.32,0,0,0-9.91,1.79c-3.44.93-3.4,7,0,7.49s9.09-2.24,11.06-2.06,3.74-1.82,3.44-4.76S229,79.43,229,79.43Z"/><path class="cls-4" d="M207.6,82.83A6.13,6.13,0,0,1,206,81.09c-.33-.78-1.59-2.13-1.72-1.46a5,5,0,0,0,.36,2l-1.54-.18a2.35,2.35,0,0,0-.76,2.36,3.41,3.41,0,0,0,1.06,2.39s2.78.74,3.84,0S208.65,83.34,207.6,82.83Z"/><path class="cls-4" d="M201.29,81.71c2.23,1.22,2.29.71,2.44.38s-.7-1-1.9-1.58-2.28-.71-2.43-.37S200.15,81.08,201.29,81.71Z"/><path class="cls-4" d="M200.68,83.25c2.38.91,2.36.39,2.46,0s-.83-.92-2.09-1.3-2.36-.38-2.46,0S199.46,82.79,200.68,83.25Z"/><path class="cls-4" d="M200.92,85.06c2.54.06,2.35-.42,2.33-.78s-1.09-.6-2.4-.53-2.36.43-2.34.79S199.61,85,200.92,85.06Z"/><path class="cls-4" d="M202.1,86.56c2.53-.21,2.3-.66,2.24-1s-1.15-.48-2.45-.28-2.29.66-2.24,1S200.79,86.66,202.1,86.56Z"/><path class="cls-5" d="M219,81s-6.51-.49-10.06-.29-4.76,6.11-1.59,7.33,9.36-.32,11.25.26,4-1,4.34-4S219,81,219,81Z"/></g></svg>