<svg id="Layer_1" data-name="Layer 1" xmlns="http://www.w3.org/2000/svg" xmlns:xlink="http://www.w3.org/1999/xlink" viewBox="0 0 260 168"><defs><style>.cls-1{fill:#132a7a;}.cls-2{fill:#ff7029;}.cls-3{clip-path:url(#clip-path);}.cls-4{fill:#0c2466;}.cls-5{fill:#f7aa54;}.cls-6{fill:none;stroke:#132a7a;stroke-linecap:round;stroke-linejoin:round;stroke-width:0.23px;}.cls-7{fill:#ce4515;}.cls-8{fill:#ea5418;}.cls-9{fill:#f4601e;}.cls-10{fill:#460f0b;}.cls-11{fill:#931818;}.cls-12{fill:#fff;}.cls-13{fill:#572517;}.cls-14{fill:#130402;}.cls-15{fill:#572417;}.cls-16{clip-path:url(#clip-path-2);}</style><clipPath id="clip-path"><path class="cls-1" d="M168.43,129.3s5.49,16-5.28,15-18.34-3.07-20.36-4.94-6-9.48,6.31-9C149.1,130.33,160.75,132.19,168.43,129.3Z"/></clipPath><clipPath id="clip-path-2"><path class="cls-2" d="M169.41,107.48c-.81-3.73.67-9,.52-11.43S168.86,88,158,88c-8.17,0-12.2,3.65-11.78,11.48,0,0,8-1.61,10.16,2.43,0,0,.6,8.1-6.52,10.71,0,0-.71-.85-1.88,4.73-.87,4.16-1.27,7.17-1.83,9.4s2,2.72,10,3.79c0,0,3.52-2.47,3.3-8.8s5-7.26,6.91-5,1.29,7.61,2.8,9.34,3.45-2.44,2.8-7.19A99.69,99.69,0,0,0,169.41,107.48Z"/></clipPath></defs><ellipse class="cls-1" cx="160.71" cy="132.51" rx="7.43" ry="2.5"/><path class="cls-1" d="M168.43,129.3s5.49,16-5.28,15-18.34-3.07-20.36-4.94-6-9.48,6.31-9C149.1,130.33,160.75,132.19,168.43,129.3Z"/><g class="cls-3"><path class="cls-4" d="M170.89,136.74c.05,1.65-1.31,3-2.7,3.88a9.14,9.14,0,0,1-2.81,1.27,10.45,10.45,0,0,1-4.87-.22,27.62,27.62,0,0,1-4.94-1.67,8.36,8.36,0,0,0-2.57-.89,16.58,16.58,0,0,0-3.48.44c-2.94.32-6.87-1.24-9.32-2.9-.87,1.08.34,2.54.52,3.91a7.53,7.53,0,0,0,1.07,3.29,7.22,7.22,0,0,0,3.33,2.37c4.8,2,10.14,2.32,15.35,2.48,4.49.15,9.06.21,13.4-.94a2.08,2.08,0,0,0,1.13-.58,1.79,1.79,0,0,0,.34-1,6.62,6.62,0,0,0-.65-3.84c-.9-1.76-2.63-3.21-2.74-5.18"/><path class="cls-5" d="M152.22,131.48c-1.6.7-3.43.39-5.16.16a12.7,12.7,0,0,0-4.08,0c-2.16.42-4.14,1.82-6.34,1.7a3.79,3.79,0,0,1-.17-2.11,6.37,6.37,0,0,1,4.85-5.06,15,15,0,0,1,4.38,0c2.08.18,4.18.19,6.24.5,1.06.16,3,.47,2.73,1.92A4.28,4.28,0,0,1,152.22,131.48Z"/><path class="cls-6" d="M141.75,131.44c2-.67,4.29.09,6.38-.34"/><path class="cls-6" d="M145.53,130.65q3.9,0,7.8-.1"/></g><path class="cls-7" d="M152.71,129.44a2.48,2.48,0,0,0-.13,1.51,1.12,1.12,0,0,0,.32.44,3.27,3.27,0,0,0,3,.6c1-.23,2.08-.72,3.13-.89,2.63-.44,5.15,1.08,7.77,1.39a1.52,1.52,0,0,0,.87-.07,2.4,2.4,0,0,0,1.11-1.51c.63-1.87.23-4-.17-5.92-.54-2.54-.21-5.6-.75-8.15a14.29,14.29,0,0,0-.4-2.87c-.61-1.22-2.83-.93-3.86-1.3a7.71,7.71,0,0,0-5-.1,4.74,4.74,0,0,0-3,2.47c-.57,1.2-.2,2.16-.32,3.46A59.64,59.64,0,0,1,152.71,129.44Z"/><path class="cls-8" d="M158.52,113.68s.52,5.66,1.21,8.68,5.93,3.19,6.52.29-1.64-8-1.41-9.69-1.46-3.31-4-3.15S158.52,113.68,158.52,113.68Z"/><path class="cls-9" d="M148.52,109s-.52,6.23.53,9.47,12.34-5.24,12.34-5.24v-3Z"/><path class="cls-9" d="M148,101.29s-.35,9.69,2.77,13.91l11.67-5.72-3.57-10Z"/><path class="cls-10" d="M149.16,108.07s.58,1.17.17,1.73c0,0,2.3-.75,2.2-1.88Z"/><ellipse class="cls-11" cx="150.34" cy="109.8" rx="1.47" ry="0.93" transform="translate(-19.52 33.61) rotate(-11.98)"/><path class="cls-12" d="M151.37,107.79c.09.3-.5.74-1.31,1s-1.51.19-1.63-.1c-.44-1,.5-.74,1.31-1S151.28,107.49,151.37,107.79Z"/><path class="cls-13" d="M148,92.52c-2.6,5-1.22,9.3-.43,12.4a7.84,7.84,0,0,0,.14,2.8s.17,1.65,3.48.2a3.47,3.47,0,0,1-2.49,1.81s-.34.11.06,1.22.35,2.94,9.5,2.07c5.5-.53,8.7-5.71,9.2-7.31s1.27-9.48-2.07-14.92"/><path class="cls-14" d="M147.56,101.21a4.62,4.62,0,0,1,3.94-.55S148.94,97.4,147.56,101.21Z"/><ellipse class="cls-15" cx="147.99" cy="105.27" rx="0.66" ry="1.29" transform="translate(38.16 249.91) rotate(-88.21)"/><path d="M151,101.84a1.51,1.51,0,0,0,1.25-.13s.13.63-.42.8Z"/><path d="M151.18,102.44a1.49,1.49,0,0,0,1.25-.14s.13.64-.42.81Z"/><ellipse class="cls-12" cx="150.38" cy="103.93" rx="1.96" ry="2.25" transform="translate(-10.14 16.47) rotate(-6.06)"/><ellipse cx="150.38" cy="103.93" rx="1.22" ry="1.4" transform="translate(-10.14 16.47) rotate(-6.06)"/><ellipse class="cls-12" cx="149.39" cy="103.35" rx="0.51" ry="0.57"/><path class="cls-2" d="M169.41,107.48c-.81-3.73.67-9,.52-11.43S168.86,88,158,88c-8.17,0-12.2,3.65-11.78,11.48,0,0,8-1.61,10.16,2.43,0,0,.6,8.1-6.52,10.71,0,0-.71-.85-1.88,4.73-.87,4.16-1.27,7.17-1.83,9.4s2,2.72,10,3.79c0,0,3.52-2.47,3.3-8.8s5-7.26,6.91-5,1.29,7.61,2.8,9.34,3.45-2.44,2.8-7.19A99.69,99.69,0,0,0,169.41,107.48Z"/><g class="cls-16"><path class="cls-9" d="M173.35,100.1s-10.33,1.53-17-3-12-3.51-12-3.51l1.71-1.08s5-.45,8.63,1.93,6.75,4.15,10.84,4.65S173.35,100.1,173.35,100.1Z"/><path class="cls-9" d="M158,100.78s.33.88-1.3,4.67-5.14,13.78-7.66,8.82-3.59-14.83-3.59-14.83S151.83,94.08,158,100.78Z"/></g><path class="cls-9" d="M164.53,107.88c-1.41,2.08-3.68,3.38-5.86,4.61a5.48,5.48,0,0,0,5.26-.85A6.44,6.44,0,0,0,166,108.3c.14-.5.77-2.75,0-3C165.71,105.16,164.82,107.46,164.53,107.88Z"/><path class="cls-13" d="M154.06,125.08a4.93,4.93,0,0,1-1.8-.64c-.52-.44-1.9-.93-1.75-.41a3.93,3.93,0,0,0,1,1.26l-1.16.44a1.85,1.85,0,0,0,.32,2,2.75,2.75,0,0,0,1.62,1.31s2.25-.49,2.73-1.41S155,125.05,154.06,125.08Z"/><path class="cls-13" d="M149.18,126.58c2,0,1.88-.33,1.86-.62s-.87-.48-1.92-.42-1.87.33-1.86.62S148.13,126.55,149.18,126.58Z"/><path class="cls-13" d="M149.31,127.9c2-.23,1.81-.59,1.76-.87s-.93-.35-2-.16-1.81.59-1.76.87S148.27,128,149.31,127.9Z"/><path class="cls-13" d="M150.14,129.1c1.82-.89,1.51-1.16,1.37-1.41s-1,0-1.9.5-1.52,1.16-1.37,1.41S149.2,129.55,150.14,129.1Z"/><path class="cls-13" d="M151.52,129.72c1.72-1.06,1.39-1.3,1.21-1.54s-1,.08-1.83.7-1.39,1.31-1.22,1.54S150.63,130.28,151.52,129.72Z"/><path class="cls-8" d="M161.45,119.58s-4.8,2-7.24,3.47-1.15,6.07,1.55,5.78,6.52-3.65,8.07-3.92,2.49-2.19,1.64-4.39S161.45,119.58,161.45,119.58Z"/><path class="cls-13" d="M144.13,141.49c0,2.81,2.47,3.16,5.68,3.29s5.87-1.13,5.94-2.82-2.48-3.16-5.69-3.29S144.09,137.52,144.13,141.49Z"/><ellipse class="cls-13" cx="144.93" cy="139.15" rx="1.36" ry="0.77" transform="translate(-5.06 5.46) rotate(-2.12)"/><ellipse class="cls-13" cx="144.24" cy="140.41" rx="0.65" ry="0.93" transform="translate(1.05 281.89) rotate(-88.88)"/><ellipse class="cls-13" cx="144.2" cy="141.45" rx="0.57" ry="0.83" transform="translate(-0.03 282.86) rotate(-88.88)"/><ellipse class="cls-13" cx="144.51" cy="142.38" rx="0.57" ry="0.83" transform="translate(-0.66 284.09) rotate(-88.88)"/><ellipse class="cls-13" cx="144.83" cy="143.18" rx="0.57" ry="0.83" transform="translate(-1.15 285.19) rotate(-88.88)"/></svg>