<svg id="_2" data-name="2" xmlns="http://www.w3.org/2000/svg" xmlns:xlink="http://www.w3.org/1999/xlink" viewBox="0 0 260 168"><defs><style>.cls-1,.cls-11{fill:#112a7a;}.cls-2{fill:#572517;}.cls-3{fill:#460f0b;}.cls-4{fill:#ff7029;}.cls-5{fill:#fff;}.cls-6{fill:#ea5418;}.cls-7{clip-path:url(#clip-path);}.cls-8{fill:#f7aa54;}.cls-25,.cls-9{fill:none;}.cls-9{stroke:#132a7a;stroke-linecap:round;stroke-linejoin:round;stroke-width:0.16px;}.cls-10{fill:#0c2668;opacity:0.41;}.cls-11{opacity:0.21;}.cls-12{clip-path:url(#clip-path-2);}.cls-13{fill:#431a11;}.cls-14{fill:#130402;}.cls-15{fill:#3a150e;}.cls-16{clip-path:url(#clip-path-3);}.cls-17{clip-path:url(#clip-path-4);}.cls-18{fill:#f4601e;}.cls-19{clip-path:url(#clip-path-5);}.cls-20{fill:#351406;}.cls-21{clip-path:url(#clip-path-6);}.cls-22{clip-path:url(#clip-path-7);}.cls-23{fill:#ffedcf;opacity:0.5;}.cls-24{fill:#024168;}.cls-25{stroke:#024066;stroke-miterlimit:10;stroke-width:0.2px;}.cls-26{fill:#034a7f;}.cls-27{fill:#146393;}.cls-28{fill:#10669b;}</style><clipPath id="clip-path"><path class="cls-1" d="M136.61,109s-5.45-3.31-6.67,3.64S133.13,123,143.34,124s8.23-.18,10,0,7.9.57,10.91-2.35,5.08-8.79,3.1-11.63-7-3.57-11.41-1.8S136.61,109,136.61,109Z"/></clipPath><clipPath id="clip-path-2"><path class="cls-2" d="M147.65,67.94a8.67,8.67,0,0,0-7.57,4.63c-2.51,4.8-.55,11.73,0,13.26a9.39,9.39,0,0,0,8.07,5.39c4.52,0,7.12-4.66,7.53-6s1.78-9.11-1-13.57A8,8,0,0,0,147.65,67.94Z"/></clipPath><clipPath id="clip-path-3"><path class="cls-3" d="M145.23,87.28a17.11,17.11,0,0,0,2.54.33,8.17,8.17,0,0,0,2.51-.45,2.51,2.51,0,0,1-2.49,1.93C145.71,89.09,145.44,87.91,145.23,87.28Z"/></clipPath><clipPath id="clip-path-4"><path class="cls-4" d="M138.45,79.1s1.68-3.62,9.16-3.62,9,3.83,9,3.83,2-13.12-9-13.12C136.14,66.19,138.45,79.1,138.45,79.1Z"/></clipPath><clipPath id="clip-path-5"><path class="cls-4" d="M138.88,78s-.74,15.75,9.21,15.75c10.14,0,8-17,8-17s.36.1.65,2.27,4.3,18.86,6.94,24.17-.36,5.61-6.88,6.94-12.22,2-16.17.54-7.11-2.57-6.25-7.8,4-19.73,4-24.21C138.35,78.64,138.83,76.22,138.88,78Z"/></clipPath><clipPath id="clip-path-6"><ellipse class="cls-5" cx="152.16" cy="82.39" rx="2.18" ry="2.5" transform="translate(-1.81 3.43) rotate(-1.29)"/></clipPath><clipPath id="clip-path-7"><ellipse class="cls-5" cx="143.35" cy="82.39" rx="2.5" ry="2.18" transform="translate(57.76 223.86) rotate(-88.71)"/></clipPath></defs><path class="cls-2" d="M167.94,95.43a.73.73,0,0,1,.21-.64.55.55,0,0,1,.68.09,1.42,1.42,0,0,1,.33.66,8.27,8.27,0,0,1,.3,1.56c.2-.11.28-.37.47-.5.34-.24.81.05,1,.38a4.35,4.35,0,0,1,.39,3.44,2.15,2.15,0,0,1-.27.76.79.79,0,0,1-.66.39c-.46,0-.71-.53-.86-1C169,99,168,97.16,167.94,95.43Z"/><path class="cls-6" d="M159.63,95.07s2.89,4.7,4.68,6,4-3.86,4-3.86,2,.74,1.23,5.17-2.86,6.5-6.53,4.55-9.42-10.69-3.73-12"/><path class="cls-2" d="M141,93.41l-3.41,6.13a1.75,1.75,0,0,1-2.24.57c-1.33-.72-1.06-1.53-.4-2.54s2.87-5.74,2.87-5.74.9-1.21,2.71-.22S141,93.41,141,93.41Z"/><path class="cls-2" d="M137.74,99.2l-3.62,9.08-2.43-1.17,2.92-8.92a2,2,0,0,1,2.41-.37C138.53,98.55,137.74,99.2,137.74,99.2Z"/><path class="cls-2" d="M134.12,108.28a4.86,4.86,0,0,0,.47,1.87c.38.56.75,2,.23,1.79a4,4,0,0,1-1.16-1.09l-.55,1.12a1.9,1.9,0,0,1-1.93-.51,2.75,2.75,0,0,1-1.15-1.75s.7-2.2,1.66-2.6S134.23,107.35,134.12,108.28Z"/><path class="cls-2" d="M132.14,113c.15-2,.51-1.86.8-1.81s.4.92.25,2-.52,1.85-.8,1.81S132.07,114.09,132.14,113Z"/><path class="cls-2" d="M130.83,112.78c.42-2,.76-1.76,1-1.68s.27,1,0,2-.76,1.76-1,1.68S130.62,113.81,130.83,112.78Z"/><path class="cls-2" d="M129.71,111.83c1.06-1.74,1.31-1.41,1.54-1.23s-.07,1-.68,1.85-1.31,1.41-1.55,1.24S129.16,112.73,129.71,111.83Z"/><path class="cls-2" d="M129.21,110.39c1.24-1.63,1.45-1.27,1.66-1.08s-.17,1-.87,1.78-1.44,1.27-1.66,1.07S128.58,111.23,129.21,110.39Z"/><path class="cls-6" d="M136.19,93.93s-4.1,10.24-5.56,12.8,6.35,6.11,8-2.9S136.19,93.93,136.19,93.93Z"/><path class="cls-1" d="M136.61,109s-5.45-3.31-6.67,3.64S133.13,123,143.34,124s8.23-.18,10,0,7.9.57,10.91-2.35,5.08-8.79,3.1-11.63-7-3.57-11.41-1.8S136.61,109,136.61,109Z"/><g class="cls-7"><path class="cls-8" d="M143,107.86a11.19,11.19,0,0,0-4.79.71,4.4,4.4,0,0,0-2,1.37,2,2,0,0,0-.11,2.32c.44.58,1.29.82,1.58,1.5a3.18,3.18,0,0,1,.15.93,5.59,5.59,0,0,0,2.14,3.64,14.41,14.41,0,0,0,3.78,2,68.27,68.27,0,0,0,8.46,2.83,2.94,2.94,0,0,1,1.49.72,2.88,2.88,0,0,1,.36,2.33,1.17,1.17,0,0,1-.22.64,1.13,1.13,0,0,1-.71.29,81.4,81.4,0,0,1-8.25,1,10.76,10.76,0,0,1-3-.09,8.93,8.93,0,0,1-4.49-2.84,18.22,18.22,0,0,1-4-6.48,13.74,13.74,0,0,0-1.13-2.74,8.36,8.36,0,0,1-.8-1.26,4.24,4.24,0,0,1-.25-1.91,3.74,3.74,0,0,1,2.74-4,24.9,24.9,0,0,1,4.06-1.29c.31-.07.78,0,.77.31l-.64.68"/><path class="cls-9" d="M154,127.6c-1.49-2.95-4.84-4.37-8-5.39s-6.54-2-8.63-4.55a15.61,15.61,0,0,1-2-3.49,6.34,6.34,0,0,1-.7-2.14,2.16,2.16,0,0,1,.84-2"/><path class="cls-9" d="M150.62,126.39a12,12,0,0,0-5.05-3.43c-1.91-.76-3.92-1.24-5.87-1.88a8.11,8.11,0,0,1-3.25-1.73,9,9,0,0,1-1.42-2l-1.24-2.19"/><path class="cls-9" d="M136.15,108.47a1.16,1.16,0,0,0-.61,0,5.33,5.33,0,0,0-1.64.66,3.1,3.1,0,0,0-1,3.84"/><path class="cls-9" d="M145.17,125.48a7.51,7.51,0,0,0-4.09-2.48,20.75,20.75,0,0,1-4.58-1.61,7.17,7.17,0,0,1-3.06-3.59"/><path class="cls-10" d="M140.57,112.17a25.55,25.55,0,0,0,8.51.39l5.48-.37a7.81,7.81,0,0,0,2.58-.48c.79-.35,1.45-1,2.27-1.27a9.17,9.17,0,0,1,1.89-.37,13.77,13.77,0,0,0,2.61-.62c.93-.32,2-1,2-1.93a1.72,1.72,0,0,0-.93-1.39,4.77,4.77,0,0,0-1.66-.5,110.52,110.52,0,0,0-11.2-1.08q-5.21-.31-10.41-.55a12.2,12.2,0,0,0-1.71,0c-1.9.18-6.36,1.21-5.1,3.83A8.93,8.93,0,0,0,140.57,112.17Z"/><path class="cls-11" d="M129.15,117.47c2.1-.12,3.93,1.26,5.76,2.3a19.52,19.52,0,0,0,4.79,1.92,3,3,0,0,0,1.74.06,13.89,13.89,0,0,0,1.3-.73,4,4,0,0,1,2.61-.08c2.54.56,5.07,1.75,7.64,1.29a24.93,24.93,0,0,0,3.45-1.15c3.2-1,6.78-.72,9.85-2.1a6.1,6.1,0,0,1,2.72-.88c1.42.08,2.43,1.43,3,2.75a4.06,4.06,0,0,1,.22,3.05,4.28,4.28,0,0,1-1.35,1.61,20.54,20.54,0,0,1-9,4,46.76,46.76,0,0,1-9.89.67A130.86,130.86,0,0,1,130.23,128c-1.3-.24-2.75-.62-3.38-1.78a4.6,4.6,0,0,1-.35-2.18c0-2.43.12-5,1.34-7.07"/></g><ellipse class="cls-6" cx="147.62" cy="82.06" rx="8.77" ry="14.12"/><path class="cls-2" d="M147.65,67.94a8.67,8.67,0,0,0-7.57,4.63c-2.51,4.8-.55,11.73,0,13.26a9.39,9.39,0,0,0,8.07,5.39c4.52,0,7.12-4.66,7.53-6s1.78-9.11-1-13.57A8,8,0,0,0,147.65,67.94Z"/><g class="cls-12"><path class="cls-13" d="M138.24,80.85s1.27-4.61,3-5.75,3.93-1.32,6.53-1.32,5.37.41,6.16,1a11.17,11.17,0,0,1,2.94,5.94l.92-13.39-14.06-1.59s-4.51,1.17-4.62,1.21-2.25,3-2.25,3Z"/></g><path class="cls-14" d="M140.61,78.65a9.45,9.45,0,0,1,5.22,0S143.11,75.71,140.61,78.65Z"/><path class="cls-14" d="M149.42,78.65a9.45,9.45,0,0,1,5.22,0S151.91,75.71,149.42,78.65Z"/><path class="cls-15" d="M147.76,86.84a3.4,3.4,0,0,0-1.66,0,4.28,4.28,0,0,1-1.29.22,2.88,2.88,0,0,0,3,2.78A2.9,2.9,0,0,0,150.7,87a8.42,8.42,0,0,1-1.4-.18A3,3,0,0,0,147.76,86.84Z"/><path class="cls-3" d="M145.23,87.28a17.11,17.11,0,0,0,2.54.33,8.17,8.17,0,0,0,2.51-.45,2.51,2.51,0,0,1-2.49,1.93C145.71,89.09,145.44,87.91,145.23,87.28Z"/><g class="cls-16"><ellipse class="cls-5" cx="147.68" cy="86.98" rx="2.32" ry="1.1"/></g><path class="cls-4" d="M138.45,79.1s1.68-3.62,9.16-3.62,9,3.83,9,3.83,2-13.12-9-13.12C136.14,66.19,138.45,79.1,138.45,79.1Z"/><g class="cls-17"><path class="cls-18" d="M136.21,77.34c.2,0,8.88-8.86,20.57-5.76l-2.18-3.65s-10.28-2.68-17.8,7.74Z"/></g><path class="cls-4" d="M138.88,78s-.74,15.75,9.21,15.75c10.14,0,8-17,8-17s.36.1.65,2.27,4.3,18.86,6.94,24.17-.36,5.61-6.88,6.94-12.22,2-16.17.54-7.11-2.57-6.25-7.8,4-19.73,4-24.21C138.35,78.64,138.83,76.22,138.88,78Z"/><g class="cls-19"><path class="cls-18" d="M166.77,108.61a2.94,2.94,0,0,1-3.46-.23,10.94,10.94,0,0,1-2.53-3.07,11.33,11.33,0,0,0-2.52-3.09,1.42,1.42,0,0,0-1.6-.29c-.5.33-.63,1.09-.76,1.75-.92,4.77-4.37,8.78-8.45,9.57a6.38,6.38,0,0,1-2.5,0c-2.7-.55-4.81-3.25-5.83-6.25a33.42,33.42,0,0,1-1.27-9.56,2.06,2.06,0,0,0-1.1,1.41,7.2,7.2,0,0,0-.18,2c0,3,.17,6-.6,8.89-.3,1.09-.72,2.32-.25,3.32a2.9,2.9,0,0,0,2,1.38c5.8,1.71,11.86,1.54,17.83,1.36,4-.12,8.05-.25,11.92-1.48a1.3,1.3,0,0,0,.7-.43,1.45,1.45,0,0,0,.19-.81,3,3,0,0,0-.75-2"/><path class="cls-18" d="M155,88.62c-.1.22-.23.46-.44.52-.21-2.61-.3-5.24-.29-7.86a7.31,7.31,0,0,1,.42-2.85c.23-.51.87-1.3,1.34-.68a5.29,5.29,0,0,1,.44,2.36,18,18,0,0,1-.46,5.53A16.09,16.09,0,0,1,155,88.62Z"/></g><path class="cls-18" d="M141.69,90.06s6.09,6.47,12.91-.53C154.6,89.53,149,101.41,141.69,90.06Z"/><path class="cls-18" d="M139.9,90.68a6,6,0,0,1,.48,1.7c0,.24,0,.53-.25.61s-.48-.16-.62-.39a7.51,7.51,0,0,1-1.23-4.08c.05-.59.4-.72.7-.2A16.48,16.48,0,0,1,139.9,90.68Z"/><path class="cls-18" d="M141.2,107.82s7.46,2.9,11.22,0C152.42,107.82,148,113.08,141.2,107.82Z"/><path class="cls-20" d="M146.62,85.12a.72.72,0,0,0,.41.58,1.56,1.56,0,0,0,.71.14,1.07,1.07,0,0,0,1.14-.75,1,1,0,0,1-.29.81,1.21,1.21,0,0,1-.85.28,1.57,1.57,0,0,1-.85-.26A.7.7,0,0,1,146.62,85.12Z"/><path class="cls-20" d="M146.78,85.81a1.14,1.14,0,0,1-.47-.1.49.49,0,0,1-.29-.39,1.29,1.29,0,0,1,.28-.8,1.25,1.25,0,0,0-.11.77c.07.22.32.22.56.18Z"/><path class="cls-20" d="M148.6,85.62c.23.08.49.11.59-.1a1.13,1.13,0,0,0,0-.77,1.3,1.3,0,0,1,.15.83.5.5,0,0,1-.35.35,1.26,1.26,0,0,1-.47,0Z"/><path class="cls-20" d="M146.9,84a1.51,1.51,0,0,1,.93-.28,1.36,1.36,0,0,1,.87.42,2.1,2.1,0,0,0-.89-.25A2.21,2.21,0,0,0,146.9,84Z"/><path class="cls-10" d="M146.16,114.63a5.57,5.57,0,0,0,4.13.65,14.32,14.32,0,0,0,5-1.82,8.39,8.39,0,0,1,2-.93c-.3-.32-1.65.08-2.06.17-.73.15-1.45.35-2.16.56a38.71,38.71,0,0,1-4.34,1.19A10.75,10.75,0,0,1,146.16,114.63Z"/><path d="M153.07,80.13a1.68,1.68,0,0,0,1.4,0s.08.72-.54.85Z"/><path d="M153.19,80.81a1.68,1.68,0,0,0,1.4,0s.08.72-.54.85Z"/><ellipse class="cls-5" cx="152.16" cy="82.39" rx="2.18" ry="2.5" transform="translate(-1.81 3.43) rotate(-1.29)"/><g class="cls-21"><path d="M152.66,82.25a1.28,1.28,0,0,1,.73.27.65.65,0,0,0-.29.61.62.62,0,0,0,.62.59.55.55,0,0,0,.25-.1.89.89,0,0,1,0,.23,1.37,1.37,0,1,1-1.32-1.6Z"/></g><path d="M142.44,80.13a1.68,1.68,0,0,1-1.4,0s-.08.72.54.85Z"/><path d="M142.32,80.81a1.68,1.68,0,0,1-1.4,0s-.08.72.54.85Z"/><ellipse class="cls-5" cx="143.35" cy="82.39" rx="2.5" ry="2.18" transform="translate(57.76 223.86) rotate(-88.71)"/><g class="cls-22"><path d="M145,83.53a.6.6,0,0,1-.25.1.61.61,0,0,1-.62-.59.65.65,0,0,1,.29-.61,1.2,1.2,0,0,0-.73-.26A1.58,1.58,0,1,0,145,83.76,1.77,1.77,0,0,0,145,83.53Z"/></g><path class="cls-5" d="M162.81,105.8h0Z"/><path class="cls-23" d="M166.39,93.84,161.7,93l-2.1.7s-2.72,6.54-.48,10.15a4.6,4.6,0,0,0,7.4.13C168.89,100.47,166.39,93.84,166.39,93.84Z"/><path class="cls-5" d="M162.81,105.94h0Z"/><path class="cls-23" d="M167.22,94.05l-5.84-.84-2.61.69s-3.36,6.5-.55,10.11a6.65,6.65,0,0,0,9.2.16C170.35,100.66,167.22,94.05,167.22,94.05Z"/><path class="cls-24" d="M159.29,87.9a4.62,4.62,0,0,0-2.64,2.41l-2.13,14.09s-.71,1.9,3.43,3.61l1.79-1.25s-3.55-1.15-3.53-2.25l1.78-14s1-1.45,1.73-1.57Z"/><path class="cls-24" d="M166.89,88a4.64,4.64,0,0,1,2.56,2.51l1.63,14.15s.65,1.92-3.55,3.49l-1.74-1.31s3.59-1,3.6-2.13L168.1,90.66s-.91-1.49-1.67-1.63Z"/><path class="cls-25" d="M156.5,97.53s17,5,8.21,7.86"/><path class="cls-25" d="M160.74,105.32s-2.56-2.9,8.77-7.12"/><path class="cls-26" d="M160.48,106.88s0-1.83.49-1.82l3.74,0s.31.25.28,1.83Z"/><path class="cls-26" d="M167.41,107.46c0,.48-2.1.84-4.67.8-2.41,0-4.39-.42-4.62-.88a.29.29,0,0,1,0-.09c0-.48,2.1-.84,4.67-.8S167.42,107,167.41,107.46Z"/><polygon class="cls-26" points="156.87 110.56 158.14 107.2 167.4 107.36 168.58 110.71 156.87 110.56"/><ellipse class="cls-26" cx="162.75" cy="110.66" rx="0.88" ry="5.87" transform="translate(49.26 271.46) rotate(-89)"/><path class="cls-26" d="M167.5,93.73l-.93-1,0-1.41a.59.59,0,0,0,.51-.58l0-2.2a.61.61,0,0,0-.35-.56v-.07l0-1.36a.65.65,0,0,0-.13-.38c.62,0,1-.07,1-.13,0-1.25-4.53-1.31-4.53-1.31-3.7-.07-4.46,1-4.54,1.14h0c0,.06.34.11.91.16a.64.64,0,0,0-.15.38l0,1.36v0a.6.6,0,0,0-.47.57l0,2.21a.61.61,0,0,0,.57.61l0,1.4v.12l-1,.93a.58.58,0,0,0-.14.12.31.31,0,0,0,0,.08c0,.46,2.12.87,4.75.91s4.78-.28,4.79-.74C167.75,93.91,167.66,93.82,167.5,93.73Zm-1.91-5.85-1.69,0a.65.65,0,0,0,.08-.27l0-1.36v0h1.72a.76.76,0,0,0-.11.33l0,1.35Zm-3.39-1.73v0l0,1.35a.64.64,0,0,0,.07.28l-1.69,0v0l0-1.36a.53.53,0,0,0-.09-.33Z"/><rect class="cls-24" x="159.4" y="91.37" width="7.18" height="0.32" transform="translate(1.62 -2.83) rotate(1)"/><path class="cls-24" d="M159.53,86l.94.06a.65.65,0,0,1,.11.26l0,1.46-1.1,0s-.08,0-.1,0l0-1.44A.55.55,0,0,1,159.53,86Z"/><path class="cls-24" d="M166.68,86.13l-1,0a.59.59,0,0,0-.11.25l0,1.46h1.09a.3.3,0,0,1,.11,0l0-1.44A.58.58,0,0,0,166.68,86.13Z"/><path class="cls-24" d="M162.19,86.14l1.81,0,0,1.45s0,.23-.08.23l-1.65,0a.69.69,0,0,1-.07-.25Z"/><ellipse class="cls-27" cx="162.64" cy="85.06" rx="0.14" ry="1.47" transform="translate(74.75 246.19) rotate(-89)"/><path class="cls-27" d="M158.36,88.58A6.91,6.91,0,0,0,157,90.19C156.61,90.93,158.25,89.14,158.36,88.58Z"/><rect class="cls-27" x="155.75" y="90.55" width="0.35" height="14.47" rx="0.18" transform="translate(16.21 -22.02) rotate(8.52)"/><circle class="cls-23" cx="159.24" cy="95.52" r="0.6"/><path class="cls-23" d="M157.63,100.29a4.9,4.9,0,0,0,2.52,4.73,5.73,5.73,0,0,1-1.35-4.71S158.1,101.33,157.63,100.29Z"/><ellipse class="cls-28" cx="159.87" cy="107.05" rx="0.18" ry="0.87" transform="translate(50.05 265.03) rotate(-89)"/><path class="cls-26" d="M167.12,85.58l-1,0a3,3,0,0,0-6-.11h-1a4,4,0,0,1,8,.14Z"/><ellipse class="cls-2" cx="169.87" cy="97.13" rx="1.42" ry="0.63"/><ellipse class="cls-2" cx="170.04" cy="98.2" rx="1.42" ry="0.63"/><ellipse class="cls-2" cx="170.04" cy="99.33" rx="1.42" ry="0.63"/><ellipse class="cls-2" cx="169.95" cy="100.41" rx="1.42" ry="0.63"/><path class="cls-2" d="M171.78,98.31a4,4,0,0,1-.3,2.12,1.46,1.46,0,0,1-.39.56c-.21-1.18-.42-2.35-.52-3.54a.76.76,0,0,1,.13-.59c.17-.17.34-.09.49.06A2.52,2.52,0,0,1,171.78,98.31Z"/></svg>