<svg id="Layer_1" data-name="Layer 1" xmlns="http://www.w3.org/2000/svg" xmlns:xlink="http://www.w3.org/1999/xlink" viewBox="0 0 260 168"><defs><style>.cls-1{fill:url(#linear-gradient);}.cls-2{clip-path:url(#clip-path);}.cls-3,.cls-4{opacity:0.81;}.cls-3{fill:url(#linear-gradient-3);}.cls-4{fill:url(#linear-gradient-4);}.cls-5{opacity:0.69;fill:url(#linear-gradient-5);}</style><linearGradient id="linear-gradient" x1="-990.01" y1="64.67" x2="-990.01" y2="120.2" gradientTransform="matrix(1, 0, 0, -1, 1120.03, 168)" gradientUnits="userSpaceOnUse"><stop offset="0" stop-color="#65d8f1"/><stop offset="0.58" stop-color="#aeeaf8"/><stop offset="1" stop-color="#dff6fc"/></linearGradient><clipPath id="clip-path"><rect class="cls-1" width="260.03" height="168" transform="translate(260.03 168) rotate(180)"/></clipPath><linearGradient id="linear-gradient-3" x1="1854.33" y1="190.58" x2="1854.33" y2="91.25" gradientTransform="translate(-1829.81)" gradientUnits="userSpaceOnUse"><stop offset="0" stop-color="#e6f5fc"/><stop offset="0.48" stop-color="#eff8fc"/><stop offset="0.54" stop-color="#f1f9fc"/><stop offset="0.99" stop-color="#fff"/></linearGradient><linearGradient id="linear-gradient-4" x1="987.17" y1="201.7" x2="987.17" y2="102.37" gradientTransform="matrix(-1, 0, 0, 1, 1264.57, 0)" xlink:href="#linear-gradient-3"/><linearGradient id="linear-gradient-5" x1="5244.88" y1="201.48" x2="5244.88" y2="139.57" gradientTransform="translate(-5185.11)" xlink:href="#linear-gradient-3"/></defs><rect class="cls-1" width="260.03" height="168" transform="translate(260.03 168) rotate(180)"/><g class="cls-2"><path class="cls-3" d="M131.88,149.3c-1.63-2.34-3.35-1.92-3.35-1.92-1.71.08-1.53-.75-1.53-.75-1-3.27-5.51-1-5.51-1-2-3.18-5.87-1.42-5.87-1.42,1-1.42-1.81-1.59-1.81-1.59a1.56,1.56,0,0,0,1.27-2.26,3.2,3.2,0,0,0,1.11-3.56c-1.84-5.31-10-2.46-10-2.46-6.35-3.8-8.19,2.08-8.19,2.08a8,8,0,0,0-7.78,6.07C86.09,141.72,81,145,81,145s12.64-8.16,5.44-10.55c0,0,4.8-6.15-1.29-6.15,0,0,4.06-7.34-2.39-8.88,0,0-.74-4.27-5.72-2.22,0,0,3.87-4.44,0-7.86s-4.06,0-4.06,0a3.33,3.33,0,0,0-4.79.68s-.93-3.24-3.51-.51a6.73,6.73,0,0,0-2.76-7s-2.59-5.3-7.2,0c0,0-2.39-2-4.42,3.76,0,0-4.43-3.76-6.09,2,0,0-3-4.62-5,.85,0,0-5.35-6.32-10.69-2.39,0,0-2,3.76,1.84,4.78,0,0-5,.34-1.11,7.18,0,0-1.66-.52-1.47,1.53l-.58-.39c.4-1.79-.16-3.47-3.71-3.47,0,0,5-9.1-3-11,0,0-.91-5.29-7.08-2.75,0,0,4.8-5.51,0-9.74s-5,0-5,0a4.13,4.13,0,0,0-5.94.85s-1.15-4-4.34-.64c0,0,1.37-5.49-3.43-8.67,0,0-3.2-6.55-8.91,0,0,0-3-2.54-5.48,4.66,0,0-5.48-4.66-7.54,2.53,0,0-3.65-5.71-6.16,1.06,0,0-6.63-7.83-13.25-3,0,0-2.51,4.65,2.28,5.92,0,0-6.16.43-1.37,8.89,0,0-2.05-.64-1.82,1.9,0,0-12.34-9.09-12.34,3.81,0,0-6.17.85-1.37,8a5,5,0,0,0,3,6.35s-7.08,4.86,4.8,7.19c0,0-4.12,2.75,7.76,5.5a3.67,3.67,0,0,0,.92,4.23s-6.63-2.75-8,2.54c0,0-2.28-2.11-4.11.85,0,0-2.09-4.45-6.17-1.48,0,0-1.06-4.45-4.07-3.39,0,0,5.44-3-3.24-4.44,0,0-5.59-4.22-8.33,1.13,0,0-5.47,1.27-3.8,5.92v35.46H114.72c1.8-1.22.27-2.38.27-2.38.45-1.34-1.36-1.51-1.36-1.51-1.26-2.67-4.24-1-4.24-1-.37-.92-1.81-1-1.81-1,1.26-.34.63-1.26.63-1.26,1.36-2.09-1.78-2.84-1.78-2.84-.52-2-3.82-.92-3.82-.92-1.89-1.18-3.34.92-3.34.92-2.71-2.35-5.69.41-5.69.41C93,167,90.42,167,90.42,167c-1.36-1.51-3.07,0-3.07,0-.63-1.34-4-1.59-4-1.59l2.26-.76c2.71-.77,1.72-1.42,1.72-1.42a2.35,2.35,0,0,0,1.17-1.92,3.58,3.58,0,0,0,3.25,2.76c2.71.17,2.89-.67,2.89-.67a6,6,0,0,0,5.78.84c.82-.5-.36-1.84-.36-1.84,4.43,2.34,5.24-.09,5.24-.09,1.18.59,1.63-.06,1.63-.06,4.6,1.52,3.16,0,3.16,0,1.26-.29.34-.56.2-.6a13,13,0,0,0,4.5.41c4.33.42,5.78,0,5.78,0a9.49,9.49,0,0,0-3.26-2.09s4.07.84,3.62-1.59a2.65,2.65,0,0,0-2.62-2.34c-2.89-2.76-4.88-.75-4.88-.75-1.44-.76-1.9.25-1.9.25a5.37,5.37,0,0,0-6,.92c-.27-1.34-2.62-.92-2.62-.92a2.46,2.46,0,0,0-3.79-1.17c-.9-1.51-3.7-1.26-3.7-1.26,4.78-.67,5.33-3.93,5.33-3.93a3.38,3.38,0,0,0,3.07,2.59c2.62.25,3-.58,3-.58,6.5,3.09,5.06-1.26,5.06-1.26,3.79,2.09,5.87-.11,5.87-.11,4.06,1.23,4.42,0,4.42,0,.45-.78,1.63-.37,1.63-.37,4.15.94,5.6-.19,5.6-.19C132.15,149.72,131.88,149.3,131.88,149.3Z"/><path class="cls-4" d="M170,160.43c1.63-2.35,3.34-1.93,3.34-1.93,1.72.08,1.54-.75,1.54-.75,1-3.26,5.51-1,5.51-1,2-3.17,5.87-1.42,5.87-1.42-1-1.42,1.81-1.59,1.81-1.59a1.56,1.56,0,0,1-1.27-2.26,3.19,3.19,0,0,1-1.12-3.56c1.85-5.31,10-2.46,10-2.46,6.35-3.8,8.19,2.08,8.19,2.08a8,8,0,0,1,7.78,6.07c4.1-.75,9.22,2.47,9.22,2.47s-12.64-8.16-5.45-10.55c0,0-4.79-6.15,1.29-6.15,0,0-4-7.34,2.4-8.88,0,0,.74-4.27,5.72-2.22,0,0-3.87-4.44,0-7.86s4.06,0,4.06,0a3.33,3.33,0,0,1,4.79.69s.92-3.25,3.5-.52a6.74,6.74,0,0,1,2.77-7s2.58-5.29,7.19,0c0,0,2.4-2,4.43,3.76,0,0,4.43-3.76,6.09,2,0,0,2.95-4.61,5,.85,0,0,5.34-6.32,10.69-2.39,0,0,2,3.76-1.84,4.78,0,0,5,.34,1.1,7.18,0,0,1.66-.52,1.48,1.53l.58-.39c-.4-1.78.16-3.47,3.71-3.47,0,0-5-9.1,3-11,0,0,.91-5.29,7.08-2.75,0,0-4.8-5.5,0-9.73s5,0,5,0a4.14,4.14,0,0,1,5.94.84s1.14-4,4.34-.63c0,0-1.37-5.5,3.43-8.68,0,0,3.19-6.55,8.9,0,0,0,3-2.54,5.49,4.66,0,0,5.48-4.66,7.53,2.54,0,0,3.66-5.72,6.17,1,0,0,6.63-7.82,13.25-3,0,0,2.51,4.66-2.28,5.93,0,0,6.16.42,1.37,8.88,0,0,2.05-.63,1.82,1.91,0,0,12.34-9.1,12.34,3.8,0,0,6.16.85,1.37,8a5,5,0,0,1-3,6.35s7.08,4.87-4.8,7.19c0,0,4.11,2.75-7.76,5.5a3.67,3.67,0,0,1-.92,4.23s6.63-2.75,8,2.54c0,0,2.28-2.11,4.11.85,0,0,2.09-4.44,6.16-1.48,0,0,1.07-4.44,4.08-3.39,0,0-5.45-3,3.23-4.44,0,0,5.6-4.22,8.33,1.13,0,0,5.48,1.27,3.8,5.92v35.46H187.2c-1.8-1.21-.27-2.38-.27-2.38-.45-1.34,1.36-1.5,1.36-1.5,1.26-2.68,4.24-1,4.24-1,.36-.92,1.81-1,1.81-1-1.27-.34-.63-1.26-.63-1.26-1.36-2.09,1.78-2.84,1.78-2.84.52-2,3.82-.92,3.82-.92,1.89-1.17,3.34.92,3.34.92,2.71-2.34,5.69.42,5.69.42.63-1.51,3.16-1.51,3.16-1.51,1.35-1.51,3.07,0,3.07,0,.63-1.34,4-1.59,4-1.59l-2.25-.76c-2.71-.76-1.72-1.41-1.72-1.41a2.36,2.36,0,0,1-1.17-1.93,3.59,3.59,0,0,1-3.26,2.76c-2.71.17-2.89-.67-2.89-.67a6,6,0,0,1-5.78.84c-.81-.5.36-1.84.36-1.84-4.42,2.34-5.23-.08-5.23-.08-1.18.58-1.63-.07-1.63-.07-4.61,1.53-3.16,0-3.16,0-1.26-.29-.34-.56-.2-.6a13,13,0,0,1-4.5.41c-4.33.42-5.78,0-5.78,0a9.39,9.39,0,0,1,3.25-2.09s-4.06.84-3.61-1.59a2.65,2.65,0,0,1,2.62-2.34c2.89-2.76,4.88-.75,4.88-.75,1.44-.75,1.89.25,1.89.25a5.36,5.36,0,0,1,6,.92c.28-1.34,2.62-.92,2.62-.92a2.48,2.48,0,0,1,3.8-1.17c.9-1.51,3.7-1.26,3.7-1.26-4.79-.67-5.33-3.93-5.33-3.93a3.38,3.38,0,0,1-3.07,2.59c-2.62.26-3-.58-3-.58-6.5,3.09-5.06-1.26-5.06-1.26-3.79,2.1-5.87-.1-5.87-.1-4.06,1.22-4.42,0-4.42,0-.46-.78-1.63-.38-1.63-.38-4.16.94-5.6-.18-5.6-.18C169.77,160.84,170,160.43,170,160.43Z"/><path class="cls-5" d="M126.69,175.75c-1-1.46-2.08-1.19-2.08-1.19-1.07.05-1-.47-1-.47-.62-2-3.43-.63-3.43-.63-1.24-2-3.66-.89-3.66-.89.62-.88-1.13-1-1.13-1a1,1,0,0,0,.79-1.41,2,2,0,0,0,.69-2.21c-1.14-3.31-6.25-1.54-6.25-1.54-4-2.37-5.11,1.3-5.11,1.3a5,5,0,0,0-4.85,3.78C98.15,171,95,173,95,173s7.88-5.08,3.39-6.57c0,0,3-3.84-.8-3.84,0,0,2.53-4.58-1.5-5.53,0,0-.46-2.67-3.56-1.39,0,0,2.41-2.77,0-4.9s-2.53,0-2.53,0a2.09,2.09,0,0,0-3,.43s-.57-2-2.18-.32a4.18,4.18,0,0,0-1.73-4.36s-1.61-3.3-4.48,0c0,0-1.49-1.28-2.76,2.34,0,0-2.76-2.35-3.79,1.27,0,0-1.84-2.87-3.11.54,0,0-3.33-3.94-6.66-1.49,0,0-1.27,2.34,1.15,3,0,0-3.11.21-.69,4.47,0,0-1-.32-.92,1l-.36-.25c.25-1.11-.1-2.16-2.32-2.16,0,0,3.14-5.67-1.85-6.86,0,0-.57-3.3-4.41-1.71,0,0,3-3.43,0-6.07s-3.13,0-3.13,0a2.58,2.58,0,0,0-3.7.53s-.72-2.51-2.71-.4a5.18,5.18,0,0,0-2.13-5.4s-2-4.09-5.56,0c0,0-1.85-1.59-3.41,2.9,0,0-3.42-2.9-4.7,1.58,0,0-2.28-3.56-3.85.66,0,0-4.13-4.88-8.25-1.85,0,0-1.57,2.9,1.42,3.69,0,0-3.84.27-.86,5.54,0,0-1.28-.39-1.13,1.19,0,0-7.69-5.67-7.69,2.37,0,0-3.85.53-.86,5a3.14,3.14,0,0,0,1.85,4s-4.41,3,3,4.48c0,0-2.56,1.72,4.84,3.43a2.3,2.3,0,0,0,.57,2.64s-4.12-1.71-5,1.58A1.58,1.58,0,0,0,9,173a2.43,2.43,0,0,0-3.85-.92S4.5,169.33,2.63,170c0,0,3.39-1.85-2-2.77,0,0-3.49-2.63-5.19.71,0,0-3.41.79-2.37,3.68v22.11H116c1.13-.76.17-1.49.17-1.49.28-.83-.84-.94-.84-.94-.79-1.66-2.65-.62-2.65-.62-.22-.58-1.12-.63-1.12-.63.78-.21.39-.78.39-.78.84-1.3-1.11-1.77-1.11-1.77-.33-1.25-2.38-.58-2.38-.58-1.18-.73-2.08.58-2.08.58-1.69-1.46-3.55.26-3.55.26-.4-.94-2-.94-2-.94-.85-.94-1.92,0-1.92,0-.39-.84-2.47-1-2.47-1l1.4-.48c1.69-.47,1.07-.88,1.07-.88a1.46,1.46,0,0,0,.74-1.2,2.22,2.22,0,0,0,2,1.72c1.69.11,1.8-.41,1.8-.41a3.75,3.75,0,0,0,3.61.52c.5-.31-.23-1.15-.23-1.15,2.76,1.46,3.27-.05,3.27-.05.73.36,1,0,1,0,2.87,1,2,0,2,0,.79-.18.21-.35.13-.38a7.9,7.9,0,0,0,2.8.26,11.45,11.45,0,0,0,3.6,0,5.8,5.8,0,0,0-2-1.3s2.53.52,2.25-1a1.65,1.65,0,0,0-1.64-1.46c-1.8-1.72-3-.47-3-.47-.9-.47-1.18.16-1.18.16a3.34,3.34,0,0,0-3.71.57c-.17-.84-1.64-.57-1.64-.57a1.53,1.53,0,0,0-2.36-.73c-.56-.94-2.31-.79-2.31-.79,3-.41,3.32-2.45,3.32-2.45a2.12,2.12,0,0,0,1.92,1.62c1.63.16,1.85-.37,1.85-.37,4.06,1.93,3.16-.78,3.16-.78,2.36,1.31,3.66-.07,3.66-.07,2.53.77,2.76,0,2.76,0,.28-.48,1-.23,1-.23,2.59.59,3.49-.12,3.49-.12C126.86,176,126.69,175.75,126.69,175.75Z"/></g></svg>