<svg xmlns="http://www.w3.org/2000/svg" xmlns:xlink="http://www.w3.org/1999/xlink" viewBox="0 0 260 168"><defs><style>.cls-1,.cls-7{fill:none;}.cls-2{fill:#a97c50;}.cls-3{clip-path:url(#clip-path);}.cls-4{fill:#946d46;}.cls-5{clip-path:url(#clip-path-2);}.cls-6{fill:#3f2215;}.cls-7{stroke:#594a42;stroke-linecap:round;stroke-linejoin:round;stroke-width:1.8px;}.cls-8{fill:#f2f3c9;}</style><clipPath id="clip-path"><rect class="cls-1" x="131.22" y="13.46" width="128.78" height="154.54"/></clipPath><clipPath id="clip-path-2"><path class="cls-2" d="M229.86,148c-12.72,2.22-26.48-.64-42.48-14.28s-5.83-19-5.83-19c22.72-14.81,15.59-22.14,15.59-22.14C181,49.52,221.7,32.85,221.7,32.85s37.7-22.22,67.71,17c0,0,29.32,37.79,2.42,65.28C291.83,115.13,266.32,141.58,229.86,148Z"/></clipPath></defs><g id="Layer_5" data-name="Layer 5"><g class="cls-3"><path class="cls-4" d="M284.52,104.33s1.82,18.4,26.87,11.49,30.13-14.35,52.54-14.43,32,9,36.45,16.12c3.81,6,6.38,19.18,6.41,27.83s-4.7,24.4-30.35,26.85-52.65-4.53-78.31-1.3-45.69-6.52-39.79-59.23C258.34,111.66,270.78,96.2,284.52,104.33Z"/><path class="cls-2" d="M229.86,148c-12.72,2.22-26.48-.64-42.48-14.28s-5.83-19-5.83-19c22.72-14.81,15.59-22.14,15.59-22.14C181,49.52,221.7,32.85,221.7,32.85s37.7-22.22,67.71,17c0,0,29.32,37.79,2.42,65.28C291.83,115.13,266.32,141.58,229.86,148Z"/><g class="cls-5"><path class="cls-6" d="M192.12,133.19c11.46-4.75,17.87-13.86,15.15-18.91s-11.73-5-25.05,1.54-15.23,12.32-11.84,16.1C173.53,135.42,184.93,136.17,192.12,133.19Z"/><path class="cls-7" d="M209.31,143.92A12.5,12.5,0,0,0,217,134"/><path class="cls-7" d="M196.35,141.69a12.49,12.49,0,0,0,13,2.23"/></g><ellipse class="cls-8" cx="221.37" cy="87.16" rx="19.37" ry="21.38" transform="translate(-16.53 89.17) rotate(-21.98)"/><path d="M229.39,82.94c-5.27-6.66-13.43-9-18.22-5.19a8.71,8.71,0,0,0-3,4.85,7.09,7.09,0,0,1,3.68,4.05c1.24,3,.78,6-1,6.78a2.1,2.1,0,0,1-.78.17,20.81,20.81,0,0,0,2,3.08c5.27,6.66,13.43,9,18.22,5.18S234.66,89.59,229.39,82.94Z"/><path class="cls-6" d="M240.41,35.08s-6.57,6.61,4,21.11,25,36.74,31,37.45,17.08,1.2,36.77-22S254.18,10.51,240.41,35.08Z"/></g></g></svg>