<svg xmlns="http://www.w3.org/2000/svg" xmlns:xlink="http://www.w3.org/1999/xlink" viewBox="0 0 260 168"><defs><style>.cls-1,.cls-8{fill:none;}.cls-2{fill:#a97c50;}.cls-3{clip-path:url(#clip-path);}.cls-4{fill:#60432e;}.cls-5{fill:#946d46;}.cls-6{clip-path:url(#clip-path-2);}.cls-7{fill:#3f2215;}.cls-8{stroke:#594a42;stroke-linecap:round;stroke-linejoin:round;stroke-width:1.8px;}.cls-9{fill:#f2f3c9;}.cls-10{fill:#7f5b3b;}</style><clipPath id="clip-path"><rect class="cls-1" x="131.22" y="13.46" width="128.78" height="154.54"/></clipPath><clipPath id="clip-path-2"><path class="cls-2" d="M190.18,143.93c-12.91.06-26-5.08-39.49-21.2s-2.56-19.68-2.56-19.68C173,92.26,167.22,83.83,167.22,83.83c-8.68-45.14,34.24-54.74,34.24-54.74s40.89-15.59,63.89,28.12c0,0,22.56,42.17-8.57,64.76C256.78,122,227.19,143.76,190.18,143.93Z"/></clipPath></defs><g id="Layer_9" data-name="Layer 9"><g class="cls-3"><path class="cls-4" d="M235.6,168.21s-1.31,3.67,1.72,27c0,0-3.7.52-4,2.89s-.8,3.82,8,6.07,9.13-3.69,9.13-3.69,5.19-16.69,2.84-28.83c-2.09-10.87-8.72-10.84-8.72-10.84S237.2,159.27,235.6,168.21Z"/><path class="cls-5" d="M250.12,109.31S252,127.71,277,120.8s30.12-14.34,52.53-14.42,32,9,36.45,16.11c3.82,6,6.39,19.18,6.42,27.83s-4.7,24.4-30.36,26.85-52.65-4.53-78.3-1.29-45.7-6.53-39.8-59.24C223.94,116.64,236.39,101.18,250.12,109.31Z"/><path class="cls-2" d="M190.18,143.93c-12.91.06-26-5.08-39.49-21.2s-2.56-19.68-2.56-19.68C173,92.26,167.22,83.83,167.22,83.83c-8.68-45.14,34.24-54.74,34.24-54.74s40.89-15.59,63.89,28.12c0,0,22.56,42.17-8.57,64.76C256.78,122,227.19,143.76,190.18,143.93Z"/><g class="cls-6"><path class="cls-7" d="M155.45,123c12.09-2.76,20-10.66,18.11-16.09s-10.73-6.88-24.95-2.69-17.09,9.59-14.38,13.88C136.75,122.12,147.86,124.77,155.45,123Z"/><path class="cls-8" d="M170.6,136.5a12.51,12.51,0,0,0,9.26-8.45"/><path class="cls-8" d="M158.19,132.13a12.51,12.51,0,0,0,12.41,4.37"/></g><ellipse class="cls-9" cx="192.02" cy="82.57" rx="19.37" ry="21.38" transform="translate(-13.19 42.84) rotate(-12.31)"/><path d="M200.63,79.75c-4.08-7.45-11.73-11.1-17.1-8.17a8.79,8.79,0,0,0-3.78,4.28,7,7,0,0,1,2.95,4.6c.72,3.16-.25,6.08-2.16,6.52a2.16,2.16,0,0,1-.8,0,20.63,20.63,0,0,0,1.47,3.37c4.08,7.45,11.73,11.11,17.09,8.17S204.7,87.2,200.63,79.75Z"/><path class="cls-7" d="M219.53,34.42s-7.59,5.42.37,21.48S238.35,96.31,244.21,98s16.63,4,39.94-15.5S237.22,12.51,219.53,34.42Z"/><path class="cls-10" d="M244.46,171.86s1,4.58,18.67,26.54c0,0-3.47,2.85-2.25,5.44s1.57,4.41,12,1.18,7-9.5,7-9.5-5.14-20.33-15.15-31.3c-9-9.81-15.73-5.63-15.73-5.63S240.5,161.71,244.46,171.86Z"/></g></g></svg>