<svg id="Layer_1" data-name="Layer 1" xmlns="http://www.w3.org/2000/svg" xmlns:xlink="http://www.w3.org/1999/xlink" viewBox="0 0 260 168"><defs><style>.cls-1{fill:none;}.cls-2{clip-path:url(#clip-path);}.cls-3{clip-path:url(#clip-path-2);}.cls-4{fill:#8a5d3b;}.cls-5{fill:#a87c4f;}.cls-6{fill:#754c28;}.cls-7{clip-path:url(#clip-path-3);}.cls-8{clip-path:url(#clip-path-4);}.cls-9{fill:#5e870f;}.cls-10{fill:#77b219;}.cls-11{fill:#eac78f;}.cls-12{fill:#ffdeae;}.cls-13{fill:#98d12c;}</style><clipPath id="clip-path"><rect class="cls-1" y="6.45" width="260" height="133.02"/></clipPath><clipPath id="clip-path-2"><rect class="cls-1" x="-17.96" y="53.89" width="115.75" height="55.29"/></clipPath><clipPath id="clip-path-3"><rect class="cls-1" x="80.27" y="53.89" width="115.75" height="55.29"/></clipPath><clipPath id="clip-path-4"><rect class="cls-1" x="150.42" y="53.89" width="115.75" height="55.29"/></clipPath></defs><g class="cls-2"><g class="cls-3"><polygon class="cls-4" points="90.67 118.29 84.83 118.06 83.53 66.72 94.75 67.17 90.67 118.29"/><polygon class="cls-4" points="4.29 115.19 -1.43 116.35 -14.93 66.81 -3.92 64.56 4.29 115.19"/><polygon class="cls-4" points="4.03 110.92 9.87 110.8 12.18 59.49 0.94 59.72 4.03 110.92"/><polygon class="cls-4" points="49.38 113.89 55.22 113.77 57.53 62.47 46.3 62.7 49.38 113.89"/><polygon class="cls-4" points="55.64 124.34 61.46 124.77 68.57 73.91 57.36 73.09 55.64 124.34"/><polygon class="cls-5" points="2.77 115.97 -6.8 67.27 -8.21 67.53 2.77 115.97"/><polygon class="cls-5" points="47.57 65.01 51.06 114.52 52.49 114.44 47.57 65.01"/><polygon class="cls-5" points="57.53 123.69 62.69 74.33 61.27 74.17 57.53 123.69"/><rect class="cls-5" x="11.73" y="67.8" width="8.12" height="48.56"/><rect class="cls-4" x="20.3" y="62.47" width="8.12" height="53.89"/><rect class="cls-5" x="29.3" y="76.3" width="8.12" height="40.06"/><rect class="cls-5" x="38.18" y="69.56" width="8.12" height="46.79"/><polygon class="cls-4" points="17.83 69.16 16.18 118.76 17.61 118.83 17.83 69.16"/><rect class="cls-5" x="75.21" y="74.95" width="8.12" height="48.56" transform="translate(156.59 199.98) rotate(-178.88)"/><rect class="cls-6" x="66.7" y="69.45" width="8.12" height="53.89" transform="translate(139.63 194.15) rotate(-178.88)"/><polygon class="cls-4" points="77.68 76.27 78.37 125.9 76.94 125.94 77.68 76.27"/><polygon class="cls-4" points="35.59 125.95 35.99 76.33 34.56 76.3 35.59 125.95"/><polygon class="cls-5" points="69.87 127.73 70.08 78.1 68.65 78.08 69.87 127.73"/><polygon class="cls-5" points="90.11 92.73 91.98 67.22 90.56 67.13 90.11 92.73"/><polygon class="cls-5" points="6.16 119.71 8.66 82.11 7.23 82.01 6.16 119.71"/></g><g class="cls-7"><polygon class="cls-4" points="188.89 118.29 183.06 118.06 181.75 66.72 192.98 67.17 188.89 118.29"/><polygon class="cls-4" points="102.52 115.19 96.8 116.35 83.3 66.81 94.31 64.56 102.52 115.19"/><polygon class="cls-4" points="102.26 110.92 108.09 110.8 110.41 59.49 99.17 59.72 102.26 110.92"/><polygon class="cls-4" points="147.61 113.89 153.45 113.77 155.76 62.47 144.53 62.7 147.61 113.89"/><polygon class="cls-4" points="153.86 124.34 159.68 124.77 166.79 73.91 155.59 73.09 153.86 124.34"/><polygon class="cls-5" points="101 115.97 91.42 67.27 90.02 67.53 101 115.97"/><polygon class="cls-5" points="145.8 65.01 149.29 114.52 150.72 114.44 145.8 65.01"/><polygon class="cls-5" points="155.76 123.69 160.91 74.33 159.49 74.17 155.76 123.69"/><rect class="cls-5" x="109.96" y="67.8" width="8.12" height="48.56"/><rect class="cls-4" x="118.52" y="62.47" width="8.12" height="53.89"/><rect class="cls-5" x="127.53" y="76.3" width="8.12" height="40.06"/><rect class="cls-5" x="136.41" y="69.56" width="8.12" height="46.79"/><polygon class="cls-4" points="116.06 69.16 114.4 118.76 115.83 118.83 116.06 69.16"/><rect class="cls-5" x="173.44" y="74.95" width="8.12" height="48.56" transform="translate(353.03 201.9) rotate(-178.88)"/><rect class="cls-6" x="164.93" y="69.45" width="8.12" height="53.89" transform="translate(336.07 196.07) rotate(-178.88)"/><polygon class="cls-4" points="175.91 76.27 176.6 125.9 175.17 125.94 175.91 76.27"/><polygon class="cls-4" points="133.81 125.95 134.22 76.33 132.79 76.3 133.81 125.95"/><polygon class="cls-5" points="168.1 127.73 168.31 78.1 166.88 78.08 168.1 127.73"/><polygon class="cls-5" points="188.34 92.73 190.21 67.22 188.78 67.13 188.34 92.73"/><polygon class="cls-5" points="104.38 119.71 106.89 82.11 105.46 82.01 104.38 119.71"/></g><g class="cls-8"><polygon class="cls-4" points="259.04 118.29 253.21 118.06 251.9 66.72 263.13 67.17 259.04 118.29"/><polygon class="cls-4" points="172.67 115.19 166.95 116.35 153.44 66.81 164.45 64.56 172.67 115.19"/><polygon class="cls-4" points="172.4 110.92 178.24 110.8 180.55 59.49 169.32 59.72 172.4 110.92"/><polygon class="cls-4" points="217.76 113.89 223.59 113.77 225.91 62.47 214.67 62.7 217.76 113.89"/><polygon class="cls-4" points="224.01 124.34 229.83 124.77 236.94 73.91 225.74 73.09 224.01 124.34"/><polygon class="cls-5" points="171.14 115.97 161.57 67.27 160.16 67.53 171.14 115.97"/><polygon class="cls-5" points="215.94 65.01 219.44 114.52 220.86 114.44 215.94 65.01"/><polygon class="cls-5" points="225.91 123.69 231.06 74.33 229.64 74.17 225.91 123.69"/><rect class="cls-5" x="180.11" y="67.8" width="8.12" height="48.56"/><rect class="cls-4" x="188.67" y="62.47" width="8.12" height="53.89"/><rect class="cls-5" x="197.68" y="76.3" width="8.12" height="40.06"/><rect class="cls-5" x="206.55" y="69.56" width="8.12" height="46.79"/><polygon class="cls-4" points="186.21 69.16 184.55 118.76 185.98 118.83 186.21 69.16"/><rect class="cls-5" x="243.59" y="74.95" width="8.12" height="48.56" transform="translate(493.31 203.27) rotate(-178.88)"/><rect class="cls-6" x="235.08" y="69.45" width="8.12" height="53.89" transform="translate(476.35 197.44) rotate(-178.88)"/><polygon class="cls-4" points="246.06 76.27 246.74 125.9 245.31 125.94 246.06 76.27"/><polygon class="cls-4" points="203.96 125.95 204.36 76.33 202.93 76.3 203.96 125.95"/><polygon class="cls-5" points="238.25 127.73 238.46 78.1 237.03 78.08 238.25 127.73"/><polygon class="cls-5" points="258.49 92.73 260.36 67.22 258.93 67.13 258.49 92.73"/><polygon class="cls-5" points="174.53 119.71 177.03 82.11 175.61 82.01 174.53 119.71"/></g></g><path class="cls-9" d="M248.5,109.85s11.57,3.31,7.64-4.12-8.26-.67-8.26-.67,4.19-4.55.46-7.78-7.47-1-6.32,4.51c0,0-2.9-9.11-8.54-3.34-3.19,3.25,3.58,5.73,3.58,5.73s-7.77-3.14-8.25,3.23,14,2.35,14,2.35Z"/><path class="cls-9" d="M160.2,110.81s11.57,3.31,7.64-4.12-8.26-.67-8.26-.67,4.19-4.54.46-7.78-7.47-1-6.32,4.51c0,0-2.9-9.11-8.54-3.34-3.19,3.26,3.58,5.73,3.58,5.73s-7.77-3.14-8.25,3.24,14,2.35,14,2.35Z"/><rect class="cls-10" x="-0.02" y="107.66" width="260" height="60.36"/><rect class="cls-11" x="-0.02" y="113.85" width="260" height="7.2"/><rect class="cls-12" x="-0.02" y="107.13" width="260" height="7.2"/><ellipse class="cls-13" cx="231.85" cy="161.66" rx="13.12" ry="2.05"/><ellipse class="cls-13" cx="89.4" cy="148.17" rx="8.49" ry="1.32"/></svg>