<svg id="Layer_1" data-name="Layer 1" xmlns="http://www.w3.org/2000/svg" xmlns:xlink="http://www.w3.org/1999/xlink" viewBox="0 0 260 168"><defs><style>.cls-1{fill:none;}.cls-2{fill:#c61056;}.cls-3{fill:#00fcc0;}.cls-4{fill:#ed6e06;}.cls-5{fill:#08c48a;}.cls-6{clip-path:url(#clip-path);}.cls-7{fill:#8a5d3b;}.cls-8{fill:#a87c4f;}.cls-9{fill:#754c28;}.cls-10{clip-path:url(#clip-path-2);}.cls-11{fill:#ff3e7e;}.cls-12{fill:#fc5193;}.cls-13{clip-path:url(#clip-path-3);}.cls-14{fill:#d32d6c;}.cls-15{clip-path:url(#clip-path-4);}.cls-16{clip-path:url(#clip-path-5);}.cls-17{clip-path:url(#clip-path-6);}.cls-18{fill:#d11c62;}.cls-19{clip-path:url(#clip-path-7);}.cls-20{fill:#02ce99;opacity:0.42;}.cls-21{opacity:0.54;}.cls-22{fill:#05e2a8;}.cls-23{clip-path:url(#clip-path-8);}.cls-24{fill:#ff8e39;}.cls-25{fill:#08bc88;}.cls-26{fill:#7bffcc;}.cls-27{clip-path:url(#clip-path-9);}.cls-28{fill:#16d394;}.cls-29{clip-path:url(#clip-path-10);}.cls-30{clip-path:url(#clip-path-11);}.cls-31{clip-path:url(#clip-path-12);}.cls-32{clip-path:url(#clip-path-13);}.cls-33{clip-path:url(#clip-path-14);}.cls-34{clip-path:url(#clip-path-15);}.cls-35{fill:#77b219;}.cls-36{fill:#5e870f;}.cls-37{fill:#ffdeae;}.cls-38{fill:#eac78f;}.cls-39{fill:#98d12c;}</style><clipPath id="clip-path"><rect class="cls-1" x="37.3" y="50.81" width="57.27" height="27.35"/></clipPath><clipPath id="clip-path-2"><rect class="cls-1" width="260" height="88.91"/></clipPath><clipPath id="clip-path-3"><rect class="cls-2" x="-3.06" y="6.8" width="12.24" height="9.95" rx="2.55" transform="translate(-0.11 0.03) rotate(-0.52)"/></clipPath><clipPath id="clip-path-4"><rect class="cls-2" x="-2.92" y="22.34" width="12.24" height="9.95" rx="2.55" transform="translate(-0.25 0.03) rotate(-0.52)"/></clipPath><clipPath id="clip-path-5"><rect class="cls-2" x="-2.77" y="37.87" width="12.24" height="9.95" rx="2.55" transform="matrix(1, -0.01, 0.01, 1, -0.39, 0.03)"/></clipPath><clipPath id="clip-path-6"><rect class="cls-2" x="-2.63" y="53.41" width="12.24" height="9.95" rx="2.55" transform="matrix(1, -0.01, 0.01, 1, -0.53, 0.03)"/></clipPath><clipPath id="clip-path-7"><rect class="cls-3" x="230.83" y="23.33" width="48.56" height="53.2" transform="translate(-0.1 0.52) rotate(-0.12)"/></clipPath><clipPath id="clip-path-8"><polygon class="cls-4" points="286.12 27.15 271.47 27.18 256.97 27.21 241.73 27.24 224.53 27.27 238.13 14.07 270.6 14 286.12 27.15"/></clipPath><clipPath id="clip-path-9"><path class="cls-5" d="M243.63,29.8h0a7.06,7.06,0,0,1,7.06,7.06v7.06a0,0,0,0,1,0,0H236.57a0,0,0,0,1,0,0V36.86a7.06,7.06,0,0,1,7.06-7.06Z" transform="translate(-0.08 0.5) rotate(-0.12)"/></clipPath><clipPath id="clip-path-10"><path class="cls-5" d="M243.66,45.53h0a7.06,7.06,0,0,1,7.06,7.06v7.06a0,0,0,0,1,0,0H236.6a0,0,0,0,1,0,0V52.58a7.06,7.06,0,0,1,7.06-7.06Z" transform="translate(-0.11 0.5) rotate(-0.12)"/></clipPath><clipPath id="clip-path-11"><rect class="cls-1" x="114.35" y="50.81" width="57.27" height="27.35"/></clipPath><clipPath id="clip-path-12"><rect class="cls-1" x="159.35" y="50.81" width="57.27" height="27.35"/></clipPath><clipPath id="clip-path-13"><rect class="cls-1" x="80.54" y="50.81" width="57.27" height="27.35"/></clipPath><clipPath id="clip-path-14"><rect class="cls-1" x="201.59" y="50.81" width="57.27" height="27.35"/></clipPath><clipPath id="clip-path-15"><rect class="cls-1" x="0.38" y="50.81" width="57.27" height="27.35"/></clipPath></defs><g class="cls-6"><polygon class="cls-7" points="91.05 82.67 88.16 82.55 87.52 57.15 93.07 57.37 91.05 82.67"/><polygon class="cls-7" points="48.31 81.13 45.48 81.71 38.8 57.19 44.25 56.09 48.31 81.13"/><polygon class="cls-7" points="48.18 79.02 51.07 78.96 52.21 53.58 46.66 53.69 48.18 79.02"/><polygon class="cls-7" points="70.62 80.49 73.51 80.43 74.65 55.05 69.1 55.16 70.62 80.49"/><polygon class="cls-7" points="73.72 85.66 76.6 85.88 80.11 60.71 74.57 60.3 73.72 85.66"/><polygon class="cls-8" points="47.56 81.52 42.82 57.42 42.13 57.55 47.56 81.52"/><polygon class="cls-8" points="69.72 56.31 71.45 80.8 72.16 80.76 69.72 56.31"/><polygon class="cls-8" points="74.65 85.34 77.2 60.92 76.5 60.84 74.65 85.34"/><rect class="cls-8" x="51.99" y="57.68" width="4.02" height="24.02"/><rect class="cls-7" x="56.23" y="55.05" width="4.02" height="26.66"/><rect class="cls-8" x="60.69" y="61.89" width="4.02" height="19.82"/><rect class="cls-8" x="65.08" y="58.56" width="4.02" height="23.15"/><polygon class="cls-7" points="55.01 58.36 54.19 82.9 54.9 82.93 55.01 58.36"/><rect class="cls-8" x="83.4" y="61.22" width="4.02" height="24.02" transform="translate(169.37 148.12) rotate(-178.88)"/><rect class="cls-9" x="79.19" y="58.5" width="4.02" height="26.66" transform="translate(160.98 145.24) rotate(-178.88)"/><polygon class="cls-7" points="84.62 61.88 84.96 86.43 84.26 86.45 84.62 61.88"/><polygon class="cls-7" points="63.8 86.46 64 61.9 63.29 61.89 63.8 86.46"/><polygon class="cls-8" points="80.76 87.34 80.86 62.78 80.16 62.77 80.76 87.34"/><polygon class="cls-8" points="90.77 70.02 91.7 57.4 90.99 57.35 90.77 70.02"/><polygon class="cls-8" points="49.23 83.37 50.47 64.77 49.77 64.72 49.23 83.37"/></g><g class="cls-10"><rect class="cls-11" x="-23.3" y="2.59" width="37.32" height="74.75" transform="translate(-0.36 -0.04) rotate(-0.52)"/><rect class="cls-12" x="-3.05" y="7.7" width="12.24" height="9.95" rx="2.55" transform="matrix(1, -0.01, 0.01, 1, -0.11, 0.03)"/><rect class="cls-2" x="-3.06" y="6.8" width="12.24" height="9.95" rx="2.55" transform="translate(-0.11 0.03) rotate(-0.52)"/><g class="cls-13"><path class="cls-14" d="M2.44,5.78a11.5,11.5,0,0,0-2,4.16c-.13.51-.19,1.16.23,1.49.27.21.65.22.92.42.54.39.37,1.23.13,1.86A39.54,39.54,0,0,1-.56,18.56a3.5,3.5,0,0,0,3.4-.18,4,4,0,0,0,1.05-1.74c.28-.78.53-1.57.73-2.37.29-1.13.44-2.49-.4-3.3-.27-.26-.65-.48-.73-.85a1.28,1.28,0,0,1,.11-.69l.94-2.51a2.27,2.27,0,0,0,.2-1,1.15,1.15,0,0,0-.88-1,1.17,1.17,0,0,0-1.2.54"/></g><rect class="cls-12" x="-2.91" y="23.23" width="12.24" height="9.95" rx="2.55" transform="translate(-0.25 0.03) rotate(-0.52)"/><rect class="cls-2" x="-2.92" y="22.34" width="12.24" height="9.95" rx="2.55" transform="translate(-0.25 0.03) rotate(-0.52)"/><g class="cls-15"><path class="cls-14" d="M2.58,21.32a11.54,11.54,0,0,0-2,4.15C.43,26,.37,26.63.79,27s.65.22.92.42c.54.4.37,1.24.13,1.86A39.67,39.67,0,0,1-.42,34.1,3.5,3.5,0,0,0,3,33.91,3.78,3.78,0,0,0,4,32.17a23.87,23.87,0,0,0,.73-2.36c.29-1.13.44-2.49-.4-3.3-.27-.27-.65-.48-.73-.85a1.31,1.31,0,0,1,.11-.7l.94-2.51a2.2,2.2,0,0,0,.2-1,1.14,1.14,0,0,0-.88-1A1.15,1.15,0,0,0,2.8,21"/></g><rect class="cls-12" x="-2.77" y="38.77" width="12.24" height="9.95" rx="2.55" transform="translate(-0.4 0.03) rotate(-0.52)"/><rect class="cls-2" x="-2.77" y="37.87" width="12.24" height="9.95" rx="2.55" transform="matrix(1, -0.01, 0.01, 1, -0.39, 0.03)"/><g class="cls-16"><path class="cls-14" d="M2.72,36.85A11.75,11.75,0,0,0,.7,41c-.13.52-.19,1.16.23,1.49.27.21.65.22.92.42.54.4.37,1.23.13,1.86A39.67,39.67,0,0,1-.28,49.64a3.5,3.5,0,0,0,3.4-.19,3.84,3.84,0,0,0,1-1.74,22.15,22.15,0,0,0,.73-2.36c.29-1.13.44-2.49-.4-3.3-.27-.27-.65-.48-.73-.86a1.28,1.28,0,0,1,.11-.69L4.82,38A2.25,2.25,0,0,0,5,37a1.12,1.12,0,0,0-2.08-.43"/></g><rect class="cls-12" x="-2.63" y="54.31" width="12.24" height="9.95" rx="2.55" transform="translate(-0.54 0.03) rotate(-0.52)"/><rect class="cls-2" x="-2.63" y="53.41" width="12.24" height="9.95" rx="2.55" transform="matrix(1, -0.01, 0.01, 1, -0.53, 0.03)"/><g class="cls-17"><path class="cls-14" d="M2.86,52.39a11.67,11.67,0,0,0-2,4.16c-.13.51-.19,1.16.23,1.49.27.21.65.22.92.42.54.39.37,1.23.13,1.86A39.54,39.54,0,0,1-.14,65.17,3.5,3.5,0,0,0,3.26,65a3.89,3.89,0,0,0,1-1.74A22.32,22.32,0,0,0,5,60.88c.29-1.12.44-2.49-.4-3.3-.27-.26-.65-.47-.73-.85A1.2,1.2,0,0,1,4,56L5,53.53a2.27,2.27,0,0,0,.2-1,1.15,1.15,0,0,0-.88-1,1.17,1.17,0,0,0-1.2.54"/></g><rect class="cls-18" x="-19.07" y="68.43" width="29.46" height="8.91" transform="translate(-0.66 -0.04) rotate(-0.52)"/><rect class="cls-3" x="230.83" y="23.33" width="48.56" height="53.2" transform="translate(-0.1 0.52) rotate(-0.12)"/><g class="cls-19"><rect class="cls-20" x="223.68" y="25.16" width="60.59" height="4.12" transform="translate(-0.06 0.52) rotate(-0.12)"/></g><g class="cls-21"><rect class="cls-22" x="231.23" y="46.19" width="4.13" height="2.3" transform="translate(-0.1 0.48) rotate(-0.12)"/><rect class="cls-22" x="232.79" y="43.24" width="4.13" height="2.3" transform="translate(-0.09 0.48) rotate(-0.12)"/><rect class="cls-22" x="252.26" y="30.94" width="3.38" height="2.3" transform="translate(-0.07 0.52) rotate(-0.12)"/><rect class="cls-22" x="234.04" y="73.6" width="2.94" height="1.77" transform="translate(-0.15 0.48) rotate(-0.12)"/><rect class="cls-22" x="236.64" y="71.45" width="2.94" height="1.77" transform="translate(-0.15 0.49) rotate(-0.12)"/><rect class="cls-22" x="237.3" y="73.59" width="2.94" height="1.77" transform="translate(-0.15 0.49) rotate(-0.12)"/></g><polygon class="cls-4" points="286.12 27.15 271.47 27.18 256.97 27.21 241.73 27.24 224.53 27.27 238.13 14.07 270.6 14 286.12 27.15"/><g class="cls-23"><rect class="cls-24" x="228.92" y="2.84" width="0.37" height="39.79" transform="translate(-0.05 0.47) rotate(-0.12)"/><rect class="cls-24" x="232.45" y="2.84" width="0.37" height="39.79" transform="translate(-0.05 0.48) rotate(-0.12)"/><rect class="cls-24" x="235.98" y="2.83" width="0.37" height="39.79" transform="translate(-0.05 0.49) rotate(-0.12)"/><rect class="cls-24" x="239.51" y="2.82" width="0.37" height="39.79" transform="translate(-0.05 0.49) rotate(-0.12)"/><rect class="cls-24" x="243.04" y="2.82" width="0.37" height="39.79" transform="translate(-0.05 0.5) rotate(-0.12)"/><rect class="cls-24" x="246.57" y="2.81" width="0.37" height="39.79" transform="translate(-0.05 0.51) rotate(-0.12)"/><rect class="cls-24" x="250.1" y="2.8" width="0.37" height="39.79" transform="translate(-0.05 0.51) rotate(-0.12)"/><rect class="cls-24" x="253.62" y="2.79" width="0.37" height="39.79" transform="translate(-0.05 0.52) rotate(-0.12)"/><rect class="cls-24" x="257.15" y="2.79" width="0.37" height="39.79" transform="translate(-0.05 0.53) rotate(-0.12)"/></g><path class="cls-22" d="M252.39,62.16h8.75a5.66,5.66,0,0,1,5.66,5.66v8.67a0,0,0,0,1,0,0H246.73a0,0,0,0,1,0,0V67.82A5.66,5.66,0,0,1,252.39,62.16Z" transform="translate(-0.14 0.53) rotate(-0.12)"/><path class="cls-25" d="M253.1,63.32h7.33a4.74,4.74,0,0,1,4.74,4.74v7.26a0,0,0,0,1,0,0H248.36a0,0,0,0,1,0,0V68.06a4.74,4.74,0,0,1,4.74-4.74Z" transform="translate(-0.14 0.53) rotate(-0.12)"/><path class="cls-26" d="M243.63,31h0A7.06,7.06,0,0,1,250.69,38v7.06a0,0,0,0,1,0,0H236.57a0,0,0,0,1,0,0V38A7.06,7.06,0,0,1,243.63,31Z" transform="matrix(1, 0, 0, 1, -0.08, 0.5)"/><path class="cls-5" d="M243.63,29.8h0a7.06,7.06,0,0,1,7.06,7.06v7.06a0,0,0,0,1,0,0H236.57a0,0,0,0,1,0,0V36.86a7.06,7.06,0,0,1,7.06-7.06Z" transform="translate(-0.08 0.5) rotate(-0.12)"/><g class="cls-27"><path class="cls-28" d="M244,28.3a19,19,0,0,0-2.52,4.88,2.37,2.37,0,0,0-.16,1.48c.17.56.7.94,1,1.44.73,1.15.19,2.65-.39,3.88-1,2.2-2.18,4.36-3.41,6.46.81,0,1.53.59,2.34.54s1.56-1,2-1.81a46.28,46.28,0,0,0,2.44-5.25,6.27,6.27,0,0,0,.59-2.9c-.13-1.08-.77-2.05-.81-3.14-.06-1.73,1.41-3.21,1.48-4.94a1.69,1.69,0,0,0-.54-1.45c-.68-.53-1.68-.14-2.45.27"/></g><path class="cls-26" d="M243.66,46.68h0a7.06,7.06,0,0,1,7.06,7.06v7.06a0,0,0,0,1,0,0H236.61a0,0,0,0,1,0,0V53.73A7.06,7.06,0,0,1,243.66,46.68Z" transform="translate(-0.11 0.5) rotate(-0.12)"/><path class="cls-5" d="M243.66,45.53h0a7.06,7.06,0,0,1,7.06,7.06v7.06a0,0,0,0,1,0,0H236.6a0,0,0,0,1,0,0V52.58a7.06,7.06,0,0,1,7.06-7.06Z" transform="translate(-0.11 0.5) rotate(-0.12)"/><g class="cls-29"><path class="cls-28" d="M244,44a19,19,0,0,0-2.52,4.88,2.45,2.45,0,0,0-.16,1.48c.17.57.71.94,1,1.44.73,1.15.19,2.65-.39,3.88-1,2.2-2.17,4.36-3.41,6.46.81,0,1.54.59,2.34.54s1.57-1,2-1.81a46.21,46.21,0,0,0,2.43-5.25,6.27,6.27,0,0,0,.59-2.9c-.12-1.07-.76-2.05-.81-3.13-.06-1.74,1.41-3.21,1.49-5a1.71,1.71,0,0,0-.54-1.44c-.69-.54-1.68-.15-2.45.26"/></g></g><g class="cls-30"><polygon class="cls-7" points="168.09 82.67 165.21 82.55 164.56 57.15 170.11 57.37 168.09 82.67"/><polygon class="cls-7" points="125.36 81.13 122.53 81.71 115.84 57.19 121.29 56.09 125.36 81.13"/><polygon class="cls-7" points="125.23 79.02 128.11 78.96 129.26 53.58 123.7 53.69 125.23 79.02"/><polygon class="cls-7" points="147.67 80.49 150.55 80.43 151.7 55.05 146.14 55.16 147.67 80.49"/><polygon class="cls-7" points="150.76 85.66 153.64 85.88 157.16 60.71 151.62 60.3 150.76 85.66"/><polygon class="cls-8" points="124.6 81.52 119.87 57.42 119.17 57.55 124.6 81.52"/><polygon class="cls-8" points="146.77 56.31 148.5 80.8 149.2 80.76 146.77 56.31"/><polygon class="cls-8" points="151.7 85.34 154.25 60.92 153.54 60.84 151.7 85.34"/><rect class="cls-8" x="129.04" y="57.68" width="4.02" height="24.02"/><rect class="cls-7" x="133.28" y="55.05" width="4.02" height="26.66"/><rect class="cls-8" x="137.73" y="61.89" width="4.02" height="19.82"/><rect class="cls-8" x="142.12" y="58.56" width="4.02" height="23.15"/><polygon class="cls-7" points="132.06 58.36 131.24 82.9 131.94 82.93 132.06 58.36"/><rect class="cls-8" x="160.45" y="61.22" width="4.02" height="24.02" transform="translate(323.45 149.63) rotate(-178.88)"/><rect class="cls-9" x="156.24" y="58.5" width="4.02" height="26.66" transform="translate(315.06 146.75) rotate(-178.88)"/><polygon class="cls-7" points="161.67 61.88 162.01 86.43 161.3 86.45 161.67 61.88"/><polygon class="cls-7" points="140.84 86.46 141.04 61.9 140.33 61.89 140.84 86.46"/><polygon class="cls-8" points="157.8 87.34 157.91 62.78 157.2 62.77 157.8 87.34"/><polygon class="cls-8" points="167.82 70.02 168.75 57.4 168.04 57.35 167.82 70.02"/><polygon class="cls-8" points="126.28 83.37 127.52 64.77 126.81 64.72 126.28 83.37"/></g><g class="cls-31"><polygon class="cls-7" points="213.09 82.67 210.21 82.55 209.56 57.15 215.11 57.37 213.09 82.67"/><polygon class="cls-7" points="170.36 81.13 167.53 81.71 160.84 57.19 166.29 56.09 170.36 81.13"/><polygon class="cls-7" points="170.23 79.02 173.11 78.96 174.26 53.58 168.7 53.69 170.23 79.02"/><polygon class="cls-7" points="192.67 80.49 195.55 80.43 196.7 55.05 191.14 55.16 192.67 80.49"/><polygon class="cls-7" points="195.76 85.66 198.64 85.88 202.16 60.71 196.61 60.3 195.76 85.66"/><polygon class="cls-8" points="169.6 81.52 164.87 57.42 164.17 57.55 169.6 81.52"/><polygon class="cls-8" points="191.77 56.31 193.5 80.8 194.2 80.76 191.77 56.31"/><polygon class="cls-8" points="196.7 85.34 199.25 60.92 198.54 60.84 196.7 85.34"/><rect class="cls-8" x="174.04" y="57.68" width="4.02" height="24.02"/><rect class="cls-7" x="178.28" y="55.05" width="4.02" height="26.66"/><rect class="cls-8" x="182.73" y="61.89" width="4.02" height="19.82"/><rect class="cls-8" x="187.12" y="58.56" width="4.02" height="23.15"/><polygon class="cls-7" points="177.06 58.36 176.24 82.9 176.94 82.93 177.06 58.36"/><rect class="cls-8" x="205.45" y="61.22" width="4.02" height="24.02" transform="translate(413.44 150.51) rotate(-178.88)"/><rect class="cls-9" x="201.24" y="58.5" width="4.02" height="26.66" transform="translate(405.05 147.63) rotate(-178.88)"/><polygon class="cls-7" points="206.67 61.88 207.01 86.43 206.3 86.45 206.67 61.88"/><polygon class="cls-7" points="185.84 86.46 186.04 61.9 185.33 61.89 185.84 86.46"/><polygon class="cls-8" points="202.8 87.34 202.91 62.78 202.2 62.77 202.8 87.34"/><polygon class="cls-8" points="212.82 70.02 213.75 57.4 213.04 57.35 212.82 70.02"/><polygon class="cls-8" points="171.28 83.37 172.52 64.77 171.81 64.72 171.28 83.37"/></g><g class="cls-32"><polygon class="cls-7" points="134.29 82.67 131.4 82.55 130.75 57.15 136.31 57.37 134.29 82.67"/><polygon class="cls-7" points="91.55 81.13 88.72 81.71 82.04 57.19 87.49 56.09 91.55 81.13"/><polygon class="cls-7" points="91.42 79.02 94.31 78.96 95.45 53.58 89.9 53.69 91.42 79.02"/><polygon class="cls-7" points="113.86 80.49 116.75 80.43 117.89 55.05 112.34 55.16 113.86 80.49"/><polygon class="cls-7" points="116.95 85.66 119.83 85.88 123.35 60.71 117.81 60.3 116.95 85.66"/><polygon class="cls-8" points="90.8 81.52 86.06 57.42 85.37 57.55 90.8 81.52"/><polygon class="cls-8" points="112.97 56.31 114.69 80.8 115.4 80.76 112.97 56.31"/><polygon class="cls-8" points="117.89 85.34 120.44 60.92 119.74 60.84 117.89 85.34"/><rect class="cls-8" x="95.23" y="57.68" width="4.02" height="24.02"/><rect class="cls-7" x="99.47" y="55.05" width="4.02" height="26.66"/><rect class="cls-8" x="103.93" y="61.89" width="4.02" height="19.82"/><rect class="cls-8" x="108.32" y="58.56" width="4.02" height="23.15"/><polygon class="cls-7" points="98.25 58.36 97.43 82.9 98.14 82.93 98.25 58.36"/><rect class="cls-8" x="126.64" y="61.22" width="4.02" height="24.02" transform="translate(255.84 148.97) rotate(-178.88)"/><rect class="cls-9" x="122.43" y="58.5" width="4.02" height="26.66" transform="translate(247.45 146.09) rotate(-178.88)"/><polygon class="cls-7" points="127.86 61.88 128.2 86.43 127.5 86.45 127.86 61.88"/><polygon class="cls-7" points="107.03 86.46 107.23 61.9 106.53 61.89 107.03 86.46"/><polygon class="cls-8" points="124 87.34 124.1 62.78 123.4 62.77 124 87.34"/><polygon class="cls-8" points="134.01 70.02 134.94 57.4 134.23 57.35 134.01 70.02"/><polygon class="cls-8" points="92.47 83.37 93.71 64.77 93.01 64.72 92.47 83.37"/></g><g class="cls-33"><polygon class="cls-7" points="255.34 82.67 252.45 82.55 251.81 57.15 257.36 57.37 255.34 82.67"/><polygon class="cls-7" points="212.6 81.13 209.77 81.71 203.09 57.19 208.54 56.09 212.6 81.13"/><polygon class="cls-7" points="212.47 79.02 215.36 78.96 216.5 53.58 210.95 53.69 212.47 79.02"/><polygon class="cls-7" points="234.91 80.49 237.8 80.43 238.94 55.05 233.39 55.16 234.91 80.49"/><polygon class="cls-7" points="238.01 85.66 240.88 85.88 244.4 60.71 238.86 60.3 238.01 85.66"/><polygon class="cls-8" points="211.85 81.52 207.11 57.42 206.42 57.55 211.85 81.52"/><polygon class="cls-8" points="234.01 56.31 235.74 80.8 236.45 80.76 234.01 56.31"/><polygon class="cls-8" points="238.94 85.34 241.49 60.92 240.79 60.84 238.94 85.34"/><rect class="cls-8" x="216.28" y="57.68" width="4.02" height="24.02"/><rect class="cls-7" x="220.52" y="55.05" width="4.02" height="26.66"/><rect class="cls-8" x="224.98" y="61.89" width="4.02" height="19.82"/><rect class="cls-8" x="229.37" y="58.56" width="4.02" height="23.15"/><polygon class="cls-7" points="219.3 58.36 218.48 82.9 219.19 82.93 219.3 58.36"/><rect class="cls-8" x="247.69" y="61.22" width="4.02" height="24.02" transform="translate(497.92 151.34) rotate(-178.88)"/><rect class="cls-9" x="243.48" y="58.5" width="4.02" height="26.66" transform="translate(489.53 148.45) rotate(-178.88)"/><polygon class="cls-7" points="248.91 61.88 249.25 86.43 248.55 86.45 248.91 61.88"/><polygon class="cls-7" points="228.09 86.46 228.28 61.9 227.58 61.89 228.09 86.46"/><polygon class="cls-8" points="245.05 87.34 245.15 62.78 244.45 62.77 245.05 87.34"/><polygon class="cls-8" points="255.06 70.02 255.99 57.4 255.28 57.35 255.06 70.02"/><polygon class="cls-8" points="213.52 83.37 214.76 64.77 214.06 64.72 213.52 83.37"/></g><g class="cls-34"><polygon class="cls-7" points="54.13 82.67 51.24 82.55 50.59 57.15 56.15 57.37 54.13 82.67"/><polygon class="cls-7" points="11.39 81.13 8.56 81.71 1.88 57.19 7.33 56.09 11.39 81.13"/><polygon class="cls-7" points="11.26 79.02 14.15 78.96 15.29 53.58 9.73 53.69 11.26 79.02"/><polygon class="cls-7" points="33.7 80.49 36.59 80.43 37.73 55.05 32.17 55.16 33.7 80.49"/><polygon class="cls-7" points="36.79 85.66 39.67 85.88 43.19 60.71 37.65 60.3 36.79 85.66"/><polygon class="cls-8" points="10.64 81.52 5.9 57.42 5.2 57.55 10.64 81.52"/><polygon class="cls-8" points="32.8 56.31 34.53 80.8 35.24 80.76 32.8 56.31"/><polygon class="cls-8" points="37.73 85.34 40.28 60.92 39.58 60.84 37.73 85.34"/><rect class="cls-8" x="15.07" y="57.68" width="4.02" height="24.02"/><rect class="cls-7" x="19.31" y="55.05" width="4.02" height="26.66"/><rect class="cls-8" x="23.76" y="61.89" width="4.02" height="19.82"/><rect class="cls-8" x="28.16" y="58.56" width="4.02" height="23.15"/><polygon class="cls-7" points="18.09 58.36 17.27 82.9 17.98 82.93 18.09 58.36"/><rect class="cls-8" x="46.48" y="61.22" width="4.02" height="24.02" transform="translate(95.54 147.4) rotate(-178.88)"/><rect class="cls-9" x="42.27" y="58.5" width="4.02" height="26.66" transform="translate(87.14 144.52) rotate(-178.88)"/><polygon class="cls-7" points="47.7 61.88 48.04 86.43 47.33 86.45 47.7 61.88"/><polygon class="cls-7" points="26.87 86.46 27.07 61.9 26.37 61.89 26.87 86.46"/><polygon class="cls-8" points="43.84 87.34 43.94 62.78 43.23 62.77 43.84 87.34"/><polygon class="cls-8" points="53.85 70.02 54.78 57.4 54.07 57.35 53.85 70.02"/><polygon class="cls-8" points="12.31 83.37 13.55 64.77 12.85 64.72 12.31 83.37"/></g><rect class="cls-35" y="82.24" width="260" height="85.76"/><path class="cls-36" d="M242.18,78.72s8,2.31,5.31-2.87-5.74-.46-5.74-.46,2.91-3.17.32-5.42-5.2-.7-4.4,3.14c0,0-2-6.34-5.95-2.33-2.22,2.27,2.5,4,2.5,4s-5.41-2.18-5.75,2.26,9.72,1.63,9.72,1.63Z"/><path class="cls-36" d="M16,78.72S24,81,21.29,75.85s-5.74-.46-5.74-.46,2.91-3.17.31-5.42-5.19-.7-4.39,3.14c0,0-2-6.34-6-2.33-2.22,2.27,2.5,4,2.5,4S2.61,72.59,2.27,77,12,78.66,12,78.66Z"/><path class="cls-36" d="M27.76,78.91s5.38,1.54,3.55-1.92-3.84-.31-3.84-.31,2-2.11.21-3.61-3.47-.47-2.93,2.09c0,0-1.35-4.23-4-1.55-1.49,1.51,1.66,2.66,1.66,2.66s-3.61-1.46-3.83,1.51,6.49,1.09,6.49,1.09Z"/><rect class="cls-37" y="76.35" width="260" height="3.48"/><rect class="cls-38" y="79.63" width="260" height="2.61"/><ellipse class="cls-39" cx="27.73" cy="87.76" rx="15.67" ry="1.76"/><ellipse class="cls-39" cx="234.47" cy="89.23" rx="11.88" ry="1.33"/><ellipse class="cls-39" cx="53.62" cy="101.01" rx="16.31" ry="1.1"/><ellipse class="cls-39" cx="128.03" cy="94.17" rx="5.94" ry="0.88"/></svg>