<svg id="Layer_1" data-name="Layer 1" xmlns="http://www.w3.org/2000/svg" xmlns:xlink="http://www.w3.org/1999/xlink" viewBox="0 0 260 168"><defs><style>.cls-1{fill:#fff;}.cls-2{fill:#c61056;}.cls-3,.cls-72{fill:none;}.cls-4{fill:#e2bf71;}.cls-5{fill:#c7ffe8;}.cls-54,.cls-6{fill:#8e5628;}.cls-7{fill:#685f5a;}.cls-8{fill:#c6c6c6;}.cls-9{fill:#c1c1c1;}.cls-10{fill:#a8692f;}.cls-11{clip-path:url(#clip-path);}.cls-12{fill:#ff3e7e;}.cls-13{fill:#fc5193;}.cls-14{clip-path:url(#clip-path-2);}.cls-15{fill:#d32d6c;}.cls-16{clip-path:url(#clip-path-3);}.cls-17{clip-path:url(#clip-path-4);}.cls-18{clip-path:url(#clip-path-5);}.cls-19{clip-path:url(#clip-path-6);}.cls-20{clip-path:url(#clip-path-7);}.cls-21{clip-path:url(#clip-path-8);}.cls-22{clip-path:url(#clip-path-9);}.cls-23{fill:#d11c62;}.cls-24{clip-path:url(#clip-path-10);}.cls-25{clip-path:url(#clip-path-11);}.cls-26{clip-path:url(#clip-path-12);}.cls-27{clip-path:url(#clip-path-13);}.cls-28{clip-path:url(#clip-path-14);}.cls-29{clip-path:url(#clip-path-15);}.cls-30{clip-path:url(#clip-path-16);}.cls-31{clip-path:url(#clip-path-17);}.cls-32{clip-path:url(#clip-path-18);}.cls-33{fill:#8a5d3b;}.cls-34{fill:#a87c4f;}.cls-35{fill:#754c28;}.cls-36{clip-path:url(#clip-path-19);}.cls-37{clip-path:url(#clip-path-20);}.cls-38{clip-path:url(#clip-path-21);}.cls-39{clip-path:url(#clip-path-22);}.cls-40{clip-path:url(#clip-path-23);}.cls-41{clip-path:url(#clip-path-24);}.cls-42{fill:#5e870f;}.cls-43{fill:#77b219;}.cls-44{fill:#eac78f;}.cls-45{fill:#ffdeae;}.cls-46{fill:#98d12c;}.cls-47{fill:#fff8c7;}.cls-48{fill:#f2e6b1;}.cls-49{clip-path:url(#clip-path-25);}.cls-50{clip-path:url(#clip-path-26);}.cls-51{fill:#b0edd3;}.cls-52{clip-path:url(#clip-path-27);}.cls-53{opacity:0.32;}.cls-54{opacity:0.53;}.cls-55{fill:#9b5b26;}.cls-56{clip-path:url(#clip-path-28);}.cls-57{fill:#4f3629;opacity:0.48;}.cls-58{fill:#827670;}.cls-59{clip-path:url(#clip-path-29);}.cls-60{clip-path:url(#clip-path-30);}.cls-61{fill:#564133;}.cls-61,.cls-62{opacity:0.14;}.cls-62{fill:#664f42;}.cls-63{fill:#e2e2e2;}.cls-64{clip-path:url(#clip-path-31);}.cls-65{clip-path:url(#clip-path-32);}.cls-66{clip-path:url(#clip-path-33);}.cls-67{clip-path:url(#clip-path-34);}.cls-68{clip-path:url(#clip-path-35);}.cls-69{clip-path:url(#clip-path-36);}.cls-70{fill:#774d2d;}.cls-71{clip-path:url(#clip-path-37);}.cls-72{stroke:#fff;stroke-miterlimit:10;stroke-width:0.23px;opacity:0.61;}.cls-73{clip-path:url(#clip-path-38);}</style><clipPath id="clip-path"><rect class="cls-1" width="260" height="168"/></clipPath><clipPath id="clip-path-2"><rect class="cls-2" x="214.51" y="39.2" width="14.4" height="11.71" rx="3" transform="translate(-0.4 2.01) rotate(-0.52)"/></clipPath><clipPath id="clip-path-3"><rect class="cls-2" x="233.23" y="39.03" width="14.4" height="11.71" rx="3" transform="matrix(1, -0.01, 0.01, 1, -0.4, 2.18)"/></clipPath><clipPath id="clip-path-4"><rect class="cls-2" x="214.68" y="57.48" width="14.4" height="11.71" rx="3" transform="translate(-0.56 2.01) rotate(-0.52)"/></clipPath><clipPath id="clip-path-5"><rect class="cls-2" x="233.4" y="57.31" width="14.4" height="11.71" rx="3" transform="translate(-0.56 2.18) rotate(-0.52)"/></clipPath><clipPath id="clip-path-6"><rect class="cls-2" x="214.84" y="75.76" width="14.4" height="11.71" rx="3" transform="matrix(1, -0.01, 0.01, 1, -0.73, 2.01)"/></clipPath><clipPath id="clip-path-7"><rect class="cls-2" x="233.56" y="75.59" width="14.4" height="11.71" rx="3" transform="translate(-0.73 2.18) rotate(-0.52)"/></clipPath><clipPath id="clip-path-8"><rect class="cls-2" x="215.01" y="94.04" width="14.4" height="11.71" rx="3" transform="translate(-0.89 2.01) rotate(-0.52)"/></clipPath><clipPath id="clip-path-9"><rect class="cls-2" x="233.73" y="93.87" width="14.4" height="11.71" rx="3" transform="translate(-0.89 2.18) rotate(-0.52)"/></clipPath><clipPath id="clip-path-10"><rect class="cls-2" x="-9.13" y="39.2" width="14.4" height="11.71" rx="3" transform="matrix(1, -0.01, 0.01, 1, -0.41, -0.02)"/></clipPath><clipPath id="clip-path-11"><rect class="cls-2" x="9.59" y="39.03" width="14.4" height="11.71" rx="3" transform="matrix(1, -0.01, 0.01, 1, -0.41, 0.15)"/></clipPath><clipPath id="clip-path-12"><rect class="cls-2" x="-8.96" y="57.48" width="14.4" height="11.71" rx="3" transform="translate(-0.57 -0.01) rotate(-0.52)"/></clipPath><clipPath id="clip-path-13"><rect class="cls-2" x="9.76" y="57.31" width="14.4" height="11.71" rx="3" transform="translate(-0.57 0.16) rotate(-0.52)"/></clipPath><clipPath id="clip-path-14"><rect class="cls-2" x="-8.8" y="75.76" width="14.4" height="11.71" rx="3" transform="translate(-0.74 -0.01) rotate(-0.52)"/></clipPath><clipPath id="clip-path-15"><rect class="cls-2" x="9.92" y="75.59" width="14.4" height="11.71" rx="3" transform="translate(-0.74 0.16) rotate(-0.52)"/></clipPath><clipPath id="clip-path-16"><rect class="cls-2" x="-8.63" y="94.04" width="14.4" height="11.71" rx="3" transform="translate(-0.9 -0.01) rotate(-0.52)"/></clipPath><clipPath id="clip-path-17"><rect class="cls-2" x="10.09" y="93.87" width="14.4" height="11.71" rx="3" transform="translate(-0.9 0.16) rotate(-0.52)"/></clipPath><clipPath id="clip-path-18"><rect class="cls-3" x="14.95" y="101.21" width="49.52" height="23.65"/></clipPath><clipPath id="clip-path-19"><rect class="cls-3" x="-27.62" y="101.21" width="49.52" height="23.65"/></clipPath><clipPath id="clip-path-20"><rect class="cls-3" x="56.97" y="101.21" width="49.52" height="23.65"/></clipPath><clipPath id="clip-path-21"><rect class="cls-3" x="86.99" y="101.21" width="49.52" height="23.65"/></clipPath><clipPath id="clip-path-22"><rect class="cls-3" x="132.58" y="101.21" width="49.52" height="23.65"/></clipPath><clipPath id="clip-path-23"><rect class="cls-3" x="178.91" y="101.21" width="49.52" height="23.65"/></clipPath><clipPath id="clip-path-24"><rect class="cls-3" x="224.41" y="101.21" width="49.52" height="23.65"/></clipPath><clipPath id="clip-path-25"><path class="cls-4" d="M181.74,132.45a16.86,16.86,0,0,1,5.47-3.07c2.52-.61,53.76-1.1,58.48-1s15.36,4.07,15.36,4.07Z"/></clipPath><clipPath id="clip-path-26"><rect class="cls-5" x="178.45" y="124.74" width="84.22" height="14.21"/></clipPath><clipPath id="clip-path-27"><rect class="cls-6" x="183.42" y="83.83" width="75.66" height="2.26" transform="translate(442.5 169.91) rotate(-180)"/></clipPath><clipPath id="clip-path-28"><path class="cls-7" d="M233.79,69.46a1,1,0,0,0-1.27-.22,1.36,1.36,0,0,0-1.27-.27,1.4,1.4,0,0,0-1.3,0,1,1,0,0,0-1.25-.09,1.2,1.2,0,0,0-.65-.29,1.08,1.08,0,0,0-.69.13,1,1,0,0,0-1.25-.21,1.34,1.34,0,0,0-1.34-.24l-1,7.65h0V76h0l-.89,7.65a1.33,1.33,0,0,0,1.36.09,1,1,0,0,0,1.25.1,1.2,1.2,0,0,0,1.35.16,1,1,0,0,0,1.24.21,1.37,1.37,0,0,0,1.27.26,1.4,1.4,0,0,0,1.3,0,1,1,0,0,0,1.28.07,1.1,1.1,0,0,0,1.35.17l.91-7.5v-.13l.91-7.5A1.08,1.08,0,0,0,233.79,69.46Z"/></clipPath><clipPath id="clip-path-29"><polygon id="SVGID" class="cls-3" points="241.55 74.55 252.26 82.08 252.03 84.34 241.65 84.42 241.55 74.55"/></clipPath><clipPath id="clip-path-30"><path class="cls-8" d="M249.81,70.35a.84.84,0,0,0-1.13-.07,6.55,6.55,0,0,0-2.28,0,.84.84,0,0,0-1.11,0,1,1,0,0,0-1.19,0,.84.84,0,0,0-1.11,0,1.18,1.18,0,0,0-1.2-.07l0,6.8h0v.11h0l0,6.79a1.2,1.2,0,0,0,1.2-.06.84.84,0,0,0,1.11,0,1.07,1.07,0,0,0,1.19,0,.84.84,0,0,0,1.11,0,7.26,7.26,0,0,0,2.28,0,.84.84,0,0,0,1.13-.07,1,1,0,0,0,1.2,0V70.35A1,1,0,0,0,249.81,70.35Z"/></clipPath><clipPath id="clip-path-31"><polyline id="SVGID-2" data-name="SVGID" class="cls-3" points="202.29 74.64 208.89 70.02 213.54 70.21 214.17 84.59 203.51 85.33 203.05 77.4"/></clipPath><clipPath id="clip-path-32"><path class="cls-8" d="M212.14,70.82a.84.84,0,0,0-1.13,0,6.88,6.88,0,0,0-2.28.11.85.85,0,0,0-1.11.11,1,1,0,0,0-.6-.16,1,1,0,0,0-.59.21.84.84,0,0,0-1.11,0,1.17,1.17,0,0,0-1.2,0l.3,6.79h0V78h0l.36,6.78a1.19,1.19,0,0,0,1.2-.12.84.84,0,0,0,1.1-.1,1.07,1.07,0,0,0,1.19-.06.84.84,0,0,0,1.11,0,1.2,1.2,0,0,0,1.15,0,1.17,1.17,0,0,0,1.13-.15.83.83,0,0,0,1.12-.12,1,1,0,0,0,1.2-.06l-.32-6.65v-.11l-.33-6.65A1,1,0,0,0,212.14,70.82Z"/></clipPath><clipPath id="clip-path-33"><polyline id="SVGID-3" data-name="SVGID" class="cls-3" points="212.87 68.74 219.85 63.26 224.48 64.09 223.8 83.75 213.12 83.45 213.38 72.58"/></clipPath><clipPath id="clip-path-34"><path class="cls-8" d="M223,64.75a.69.69,0,0,0-1.13-.15.93.93,0,0,0-1.13-.2.92.92,0,0,0-1.14.07.69.69,0,0,0-1.11,0,.82.82,0,0,0-1.19-.07.69.69,0,0,0-1.11-.13.92.92,0,0,0-1.19-.16l-.32,9.28h0v.16h0l-.25,9.28a.91.91,0,0,0,1.2,0,.69.69,0,0,0,1.11,0,.88.88,0,0,0,.58.29.85.85,0,0,0,.61-.23.68.68,0,0,0,1.1.13.94.94,0,0,0,1.14.2.92.92,0,0,0,1.14-.07.69.69,0,0,0,1.13,0,.79.79,0,0,0,1.2.06l.28-9.1v-.15l.28-9.1A.78.78,0,0,0,223,64.75Z"/></clipPath><clipPath id="clip-path-35"><polygon id="SVGID-4" data-name="SVGID" class="cls-3" points="200.78 75.36 183.95 85.02 199.88 84.68 200.73 84 200.78 75.36"/></clipPath><clipPath id="clip-path-36"><path class="cls-7" d="M198.44,68.82a1,1,0,0,0-1.29,0,7.64,7.64,0,0,0-2.58.1,1,1,0,0,0-1.26.1,1.18,1.18,0,0,0-.68-.18,1.1,1.1,0,0,0-.67.24,1,1,0,0,0-1.26,0,1.34,1.34,0,0,0-1.36,0l.27,7.7h0v.13h0l.35,7.7a1.33,1.33,0,0,0,1.35-.13,1,1,0,0,0,1.26-.1,1.18,1.18,0,0,0,.68.18,1.1,1.1,0,0,0,.67-.24,1,1,0,0,0,1.26,0,1.35,1.35,0,0,0,1.29.06,1.38,1.38,0,0,0,1.29-.16,1,1,0,0,0,1.28-.13,1.11,1.11,0,0,0,1.36,0l-.3-7.55v-.13l-.29-7.55A1.1,1.1,0,0,0,198.44,68.82Z"/></clipPath><clipPath id="clip-path-37"><polygon class="cls-9" points="179.97 88.14 222.9 63.33 220.37 62.58 177.37 87.38 179.97 88.14"/></clipPath><clipPath id="clip-path-38"><polygon class="cls-10" points="262.19 88.17 220.07 62.75 221.97 61.66 264.81 87.45 262.19 88.17"/></clipPath></defs><rect class="cls-1" width="260" height="168"/><g class="cls-11"><rect class="cls-12" x="209.41" y="34.08" width="43.92" height="87.95" transform="translate(-0.7 2.1) rotate(-0.52)"/><rect class="cls-13" x="214.52" y="40.25" width="14.4" height="11.71" rx="3" transform="matrix(1, -0.01, 0.01, 1, -0.41, 2.01)"/><rect class="cls-2" x="214.51" y="39.2" width="14.4" height="11.71" rx="3" transform="translate(-0.4 2.01) rotate(-0.52)"/><g class="cls-14"><path class="cls-15" d="M221,38a13.5,13.5,0,0,0-2.38,4.89c-.15.61-.22,1.36.27,1.75.32.25.76.26,1.08.49.64.47.44,1.46.16,2.19A48.63,48.63,0,0,1,217.45,53c1.31.48,2.92.67,4-.22a4.52,4.52,0,0,0,1.23-2,27.11,27.11,0,0,0,.87-2.78c.33-1.33.51-2.93-.47-3.88-.33-.32-.78-.57-.87-1a1.44,1.44,0,0,1,.14-.81l1.09-3a2.6,2.6,0,0,0,.25-1.19,1.38,1.38,0,0,0-1-1.14,1.35,1.35,0,0,0-1.41.64"/></g><rect class="cls-13" x="233.24" y="40.08" width="14.4" height="11.71" rx="3" transform="translate(-0.41 2.18) rotate(-0.52)"/><rect class="cls-2" x="233.23" y="39.03" width="14.4" height="11.71" rx="3" transform="matrix(1, -0.01, 0.01, 1, -0.4, 2.18)"/><g class="cls-16"><path class="cls-15" d="M239.7,37.83a13.66,13.66,0,0,0-2.38,4.89c-.15.61-.22,1.36.28,1.75.31.25.76.26,1.08.49.64.47.44,1.46.15,2.19a46.38,46.38,0,0,1-2.66,5.72c1.32.48,2.92.67,4-.22a4.54,4.54,0,0,0,1.24-2c.33-.91.62-1.84.86-2.78.34-1.33.51-2.93-.47-3.88-.33-.32-.77-.57-.87-1a1.44,1.44,0,0,1,.14-.81l1.1-3a2.73,2.73,0,0,0,.24-1.19,1.31,1.31,0,0,0-2.45-.5"/></g><rect class="cls-13" x="214.69" y="58.53" width="14.4" height="11.71" rx="3" transform="matrix(1, -0.01, 0.01, 1, -0.57, 2.01)"/><rect class="cls-2" x="214.68" y="57.48" width="14.4" height="11.71" rx="3" transform="translate(-0.56 2.01) rotate(-0.52)"/><g class="cls-17"><path class="cls-15" d="M221.14,56.28a13.48,13.48,0,0,0-2.37,4.89,1.67,1.67,0,0,0,.27,1.75c.31.25.76.26,1.08.49.64.47.44,1.46.15,2.19a47,47,0,0,1-2.65,5.72c1.31.48,2.92.67,4-.22a4.61,4.61,0,0,0,1.23-2c.33-.91.62-1.84.86-2.78.34-1.33.51-2.93-.47-3.88-.32-.32-.77-.57-.87-1a1.64,1.64,0,0,1,.14-.81l1.1-3a2.59,2.59,0,0,0,.24-1.19,1.31,1.31,0,0,0-2.45-.5"/></g><rect class="cls-13" x="233.41" y="58.36" width="14.4" height="11.71" rx="3" transform="translate(-0.57 2.18) rotate(-0.52)"/><rect class="cls-2" x="233.4" y="57.31" width="14.4" height="11.71" rx="3" transform="translate(-0.56 2.18) rotate(-0.52)"/><g class="cls-18"><path class="cls-15" d="M239.86,56.11A13.56,13.56,0,0,0,237.49,61a1.67,1.67,0,0,0,.27,1.75c.31.25.76.26,1.08.49.64.47.44,1.46.16,2.19a47.17,47.17,0,0,1-2.66,5.72c1.31.48,2.92.67,4-.22a4.61,4.61,0,0,0,1.23-2.05,27.06,27.06,0,0,0,.86-2.78c.34-1.33.51-2.93-.47-3.88-.32-.32-.77-.57-.86-1a1.53,1.53,0,0,1,.13-.81l1.1-3a2.59,2.59,0,0,0,.24-1.19,1.31,1.31,0,0,0-2.45-.5"/></g><rect class="cls-13" x="214.85" y="76.81" width="14.4" height="11.71" rx="3" transform="translate(-0.74 2.01) rotate(-0.52)"/><rect class="cls-2" x="214.84" y="75.76" width="14.4" height="11.71" rx="3" transform="matrix(1, -0.01, 0.01, 1, -0.73, 2.01)"/><g class="cls-19"><path class="cls-15" d="M221.31,74.56a13.5,13.5,0,0,0-2.38,4.89c-.15.61-.22,1.36.27,1.75.32.25.76.26,1.09.49.63.47.43,1.46.15,2.19a47.17,47.17,0,0,1-2.66,5.72c1.31.48,2.92.67,4-.22a4.44,4.44,0,0,0,1.23-2,27.11,27.11,0,0,0,.87-2.78c.34-1.33.51-2.93-.47-3.88-.33-.32-.78-.57-.87-1a1.44,1.44,0,0,1,.14-.81l1.09-3A2.6,2.6,0,0,0,224,74.7a1.31,1.31,0,0,0-2.45-.5"/></g><rect class="cls-13" x="233.57" y="76.65" width="14.4" height="11.71" rx="3" transform="translate(-0.74 2.18) rotate(-0.52)"/><rect class="cls-2" x="233.56" y="75.59" width="14.4" height="11.71" rx="3" transform="translate(-0.73 2.18) rotate(-0.52)"/><g class="cls-20"><path class="cls-15" d="M240,74.39a13.74,13.74,0,0,0-2.38,4.89c-.15.61-.22,1.36.28,1.75.31.25.76.26,1.08.5.64.46.44,1.45.15,2.19a46.24,46.24,0,0,1-2.66,5.71c1.32.48,2.92.67,4-.22a4.54,4.54,0,0,0,1.24-2c.33-.91.62-1.84.86-2.78.34-1.33.51-2.93-.47-3.88-.32-.32-.77-.56-.87-1a1.44,1.44,0,0,1,.14-.81l1.1-3a2.73,2.73,0,0,0,.24-1.19,1.31,1.31,0,0,0-2.45-.5"/></g><rect class="cls-13" x="215.02" y="95.09" width="14.4" height="11.71" rx="3" transform="translate(-0.9 2.01) rotate(-0.52)"/><rect class="cls-2" x="215.01" y="94.04" width="14.4" height="11.71" rx="3" transform="translate(-0.89 2.01) rotate(-0.52)"/><g class="cls-21"><path class="cls-15" d="M221.47,92.84a13.56,13.56,0,0,0-2.37,4.89,1.67,1.67,0,0,0,.27,1.75c.31.25.76.26,1.08.5.64.46.44,1.45.15,2.19a46.18,46.18,0,0,1-2.65,5.71c1.31.48,2.92.67,4-.22a4.61,4.61,0,0,0,1.23-2c.33-.91.62-1.84.86-2.78.34-1.33.51-2.93-.47-3.88-.32-.32-.77-.56-.86-1a1.53,1.53,0,0,1,.13-.81l1.1-3a2.59,2.59,0,0,0,.24-1.19,1.31,1.31,0,0,0-2.45-.5"/></g><rect class="cls-13" x="233.74" y="94.93" width="14.4" height="11.71" rx="3" transform="matrix(1, -0.01, 0.01, 1, -0.9, 2.18)"/><rect class="cls-2" x="233.73" y="93.87" width="14.4" height="11.71" rx="3" transform="translate(-0.89 2.18) rotate(-0.52)"/><g class="cls-22"><path class="cls-15" d="M240.19,92.67a13.56,13.56,0,0,0-2.37,4.89c-.15.61-.22,1.36.27,1.75.31.25.76.26,1.08.5.64.46.44,1.45.16,2.19a47.75,47.75,0,0,1-2.66,5.71c1.31.48,2.92.67,4-.22a4.61,4.61,0,0,0,1.23-2,27.06,27.06,0,0,0,.86-2.78c.34-1.33.51-2.93-.47-3.88-.32-.31-.77-.56-.86-1a1.55,1.55,0,0,1,.13-.82l1.1-2.95a2.66,2.66,0,0,0,.24-1.2,1.35,1.35,0,0,0-1-1.14,1.34,1.34,0,0,0-1.4.64"/></g><rect class="cls-23" x="214.39" y="111.54" width="34.66" height="10.49" transform="translate(-1.05 2.1) rotate(-0.52)"/><rect class="cls-12" x="-14.23" y="34.08" width="43.92" height="87.95" transform="translate(-0.71 0.07) rotate(-0.52)"/><rect class="cls-13" x="-9.12" y="40.25" width="14.4" height="11.71" rx="3" transform="matrix(1, -0.01, 0.01, 1, -0.42, -0.02)"/><rect class="cls-2" x="-9.13" y="39.2" width="14.4" height="11.71" rx="3" transform="matrix(1, -0.01, 0.01, 1, -0.41, -0.02)"/><g class="cls-24"><path class="cls-15" d="M-2.66,38A13.34,13.34,0,0,0-5,42.89c-.15.61-.22,1.36.27,1.75.31.25.76.26,1.08.49.64.47.44,1.46.16,2.19A48.63,48.63,0,0,1-6.19,53c1.31.48,2.92.67,4-.22a4.52,4.52,0,0,0,1.23-2c.34-.91.62-1.84.87-2.78.33-1.33.51-2.93-.48-3.88-.32-.32-.77-.57-.86-1a1.44,1.44,0,0,1,.14-.81l1.09-3A2.47,2.47,0,0,0,0,38.14,1.35,1.35,0,0,0-1,37a1.35,1.35,0,0,0-1.4.64"/></g><rect class="cls-13" x="9.6" y="40.08" width="14.4" height="11.71" rx="3" transform="matrix(1, -0.01, 0.01, 1, -0.41, 0.15)"/><rect class="cls-2" x="9.59" y="39.03" width="14.4" height="11.71" rx="3" transform="matrix(1, -0.01, 0.01, 1, -0.41, 0.15)"/><g class="cls-25"><path class="cls-15" d="M16.06,37.83a13.5,13.5,0,0,0-2.38,4.89c-.15.61-.22,1.36.27,1.75.32.25.76.26,1.09.49.63.47.43,1.46.15,2.19a47.89,47.89,0,0,1-2.66,5.72c1.31.48,2.92.67,4-.22a4.44,4.44,0,0,0,1.23-2,27.11,27.11,0,0,0,.87-2.78c.34-1.33.51-2.93-.47-3.88-.33-.32-.78-.57-.87-1a1.44,1.44,0,0,1,.14-.81l1.09-3A2.6,2.6,0,0,0,18.77,38a1.31,1.31,0,0,0-2.45-.5"/></g><rect class="cls-13" x="-8.95" y="58.53" width="14.4" height="11.71" rx="3" transform="matrix(1, -0.01, 0.01, 1, -0.58, -0.01)"/><rect class="cls-2" x="-8.96" y="57.48" width="14.4" height="11.71" rx="3" transform="translate(-0.57 -0.01) rotate(-0.52)"/><g class="cls-26"><path class="cls-15" d="M-2.5,56.28a13.48,13.48,0,0,0-2.37,4.89,1.67,1.67,0,0,0,.27,1.75c.31.25.76.26,1.08.49.64.47.44,1.46.15,2.19A47,47,0,0,1-6,71.32c1.31.48,2.91.67,4-.22a4.61,4.61,0,0,0,1.23-2c.33-.91.62-1.84.86-2.78.34-1.33.51-2.93-.47-3.88-.32-.32-.77-.57-.87-1a1.53,1.53,0,0,1,.14-.81l1.1-3a2.59,2.59,0,0,0,.24-1.19,1.35,1.35,0,0,0-1-1.14,1.35,1.35,0,0,0-1.41.64"/></g><rect class="cls-13" x="9.77" y="58.36" width="14.4" height="11.71" rx="3" transform="translate(-0.58 0.16) rotate(-0.52)"/><rect class="cls-2" x="9.76" y="57.31" width="14.4" height="11.71" rx="3" transform="translate(-0.57 0.16) rotate(-0.52)"/><g class="cls-27"><path class="cls-15" d="M16.22,56.11A13.56,13.56,0,0,0,13.85,61a1.67,1.67,0,0,0,.27,1.75c.31.25.76.26,1.08.49.64.47.44,1.46.16,2.19a47.17,47.17,0,0,1-2.66,5.72c1.31.48,2.92.67,4-.22a4.61,4.61,0,0,0,1.23-2.05c.33-.91.62-1.84.86-2.78.34-1.33.51-2.93-.47-3.88-.32-.32-.77-.57-.86-1a1.53,1.53,0,0,1,.13-.81l1.1-3a2.59,2.59,0,0,0,.24-1.19,1.31,1.31,0,0,0-2.45-.5"/></g><rect class="cls-13" x="-8.79" y="76.81" width="14.4" height="11.71" rx="3" transform="translate(-0.75 -0.01) rotate(-0.52)"/><rect class="cls-2" x="-8.8" y="75.76" width="14.4" height="11.71" rx="3" transform="translate(-0.74 -0.01) rotate(-0.52)"/><g class="cls-28"><path class="cls-15" d="M-2.33,74.56a13.5,13.5,0,0,0-2.38,4.89c-.15.61-.22,1.36.27,1.75.31.25.76.26,1.08.49.64.47.44,1.46.16,2.19A47.17,47.17,0,0,1-5.86,89.6c1.31.48,2.92.67,4-.22a4.52,4.52,0,0,0,1.23-2,27.11,27.11,0,0,0,.87-2.78c.33-1.33.51-2.93-.47-3.88-.33-.32-.78-.57-.87-1A1.44,1.44,0,0,1-1,78.85l1.09-3A2.6,2.6,0,0,0,.38,74.7a1.38,1.38,0,0,0-1-1.14,1.35,1.35,0,0,0-1.4.64"/></g><rect class="cls-13" x="9.93" y="76.65" width="14.4" height="11.71" rx="3" transform="translate(-0.75 0.16) rotate(-0.52)"/><rect class="cls-2" x="9.92" y="75.59" width="14.4" height="11.71" rx="3" transform="translate(-0.74 0.16) rotate(-0.52)"/><g class="cls-29"><path class="cls-15" d="M16.39,74.39A13.58,13.58,0,0,0,14,79.28c-.15.61-.22,1.36.27,1.75.32.25.76.26,1.09.5.63.46.43,1.45.15,2.19a46.24,46.24,0,0,1-2.66,5.71c1.31.48,2.92.67,4-.22a4.54,4.54,0,0,0,1.24-2c.33-.91.62-1.84.86-2.78.34-1.33.51-2.93-.47-3.88-.33-.32-.78-.56-.87-1a1.44,1.44,0,0,1,.14-.81l1.1-3a2.73,2.73,0,0,0,.24-1.19,1.31,1.31,0,0,0-2.45-.5"/></g><rect class="cls-13" x="-8.62" y="95.09" width="14.4" height="11.71" rx="3" transform="translate(-0.91 -0.01) rotate(-0.52)"/><rect class="cls-2" x="-8.63" y="94.04" width="14.4" height="11.71" rx="3" transform="translate(-0.9 -0.01) rotate(-0.52)"/><g class="cls-30"><path class="cls-15" d="M-2.17,92.84a13.56,13.56,0,0,0-2.37,4.89,1.67,1.67,0,0,0,.27,1.75c.31.25.76.26,1.08.5.64.46.44,1.45.15,2.19a46.18,46.18,0,0,1-2.65,5.71c1.31.48,2.91.67,4-.22a4.61,4.61,0,0,0,1.23-2c.33-.91.62-1.84.86-2.78C.74,101.5.91,99.9-.07,99c-.32-.32-.77-.56-.87-1a1.53,1.53,0,0,1,.14-.81l1.1-3A2.59,2.59,0,0,0,.54,93a1.35,1.35,0,0,0-1-1.14,1.36,1.36,0,0,0-1.41.64"/></g><rect class="cls-13" x="10.1" y="94.93" width="14.4" height="11.71" rx="3" transform="translate(-0.91 0.16) rotate(-0.52)"/><rect class="cls-2" x="10.09" y="93.87" width="14.4" height="11.71" rx="3" transform="translate(-0.9 0.16) rotate(-0.52)"/><g class="cls-31"><path class="cls-15" d="M16.55,92.67a13.56,13.56,0,0,0-2.37,4.89,1.67,1.67,0,0,0,.27,1.75c.31.25.76.26,1.08.5.64.46.44,1.45.16,2.19A47.75,47.75,0,0,1,13,107.71c1.31.48,2.92.67,4-.22a4.61,4.61,0,0,0,1.23-2c.33-.91.62-1.84.86-2.78.34-1.33.51-2.93-.47-3.88-.32-.31-.77-.56-.86-1a1.55,1.55,0,0,1,.13-.82L19,94a2.66,2.66,0,0,0,.24-1.2,1.31,1.31,0,0,0-2.45-.5"/></g><rect class="cls-23" x="-9.25" y="111.54" width="34.66" height="10.49" transform="translate(-1.06 0.08) rotate(-0.52)"/><g class="cls-32"><polygon class="cls-33" points="61.42 128.76 58.93 128.66 58.37 106.69 63.17 106.89 61.42 128.76"/><polygon class="cls-33" points="24.46 127.43 22.02 127.93 16.24 106.73 20.95 105.77 24.46 127.43"/><polygon class="cls-33" points="24.35 125.6 26.85 125.55 27.84 103.6 23.03 103.7 24.35 125.6"/><polygon class="cls-33" points="43.76 126.88 46.25 126.82 47.24 104.87 42.44 104.97 43.76 126.88"/><polygon class="cls-33" points="46.43 131.35 48.92 131.53 51.97 109.77 47.17 109.42 46.43 131.35"/><polygon class="cls-34" points="23.81 127.76 19.72 106.93 19.12 107.04 23.81 127.76"/><polygon class="cls-34" points="42.98 105.96 44.48 127.15 45.09 127.11 42.98 105.96"/><polygon class="cls-34" points="47.24 131.07 49.45 109.95 48.84 109.88 47.24 131.07"/><rect class="cls-34" x="27.65" y="107.15" width="3.47" height="20.77"/><rect class="cls-33" x="31.31" y="104.87" width="3.47" height="23.06"/><rect class="cls-34" x="35.17" y="110.79" width="3.47" height="17.14"/><rect class="cls-34" x="38.96" y="107.91" width="3.47" height="20.02"/><polygon class="cls-33" points="30.26 107.74 29.55 128.96 30.16 128.99 30.26 107.74"/><rect class="cls-34" x="54.81" y="110.21" width="3.47" height="20.77" transform="translate(110.72 242.28) rotate(-178.88)"/><rect class="cls-35" x="51.17" y="107.86" width="3.47" height="23.06" transform="translate(103.47 239.79) rotate(-178.88)"/><polygon class="cls-33" points="55.87 110.78 56.16 132.01 55.55 132.03 55.87 110.78"/><polygon class="cls-33" points="37.85 132.04 38.03 110.8 37.41 110.79 37.85 132.04"/><polygon class="cls-34" points="52.52 132.8 52.62 111.56 52 111.55 52.52 132.8"/><polygon class="cls-34" points="61.18 117.82 61.98 106.91 61.37 106.87 61.18 117.82"/><polygon class="cls-34" points="25.26 129.37 26.33 113.28 25.72 113.24 25.26 129.37"/></g><g class="cls-36"><polygon class="cls-33" points="18.85 128.76 16.36 128.66 15.8 106.69 20.6 106.89 18.85 128.76"/><polygon class="cls-33" points="1.19 126.88 3.69 126.82 4.68 104.87 -0.13 104.97 1.19 126.88"/><polygon class="cls-33" points="3.87 131.35 6.36 131.53 9.4 109.77 4.6 109.42 3.87 131.35"/><polygon class="cls-34" points="0.41 105.96 1.91 127.15 2.52 127.11 0.41 105.96"/><polygon class="cls-34" points="4.68 131.07 6.88 109.95 6.27 109.88 4.68 131.07"/><rect class="cls-34" x="12.24" y="110.21" width="3.47" height="20.77" transform="translate(25.6 241.45) rotate(-178.88)"/><rect class="cls-35" x="8.6" y="107.86" width="3.47" height="23.06" transform="translate(18.34 238.96) rotate(-178.88)"/><polygon class="cls-33" points="13.3 110.78 13.59 132.01 12.98 132.03 13.3 110.78"/><polygon class="cls-34" points="9.96 132.8 10.05 111.56 9.44 111.55 9.96 132.8"/><polygon class="cls-34" points="18.62 117.82 19.42 106.91 18.81 106.87 18.62 117.82"/></g><g class="cls-37"><polygon class="cls-33" points="103.45 128.76 100.95 128.66 100.39 106.69 105.2 106.89 103.45 128.76"/><polygon class="cls-33" points="66.49 127.43 64.05 127.93 58.27 106.73 62.98 105.77 66.49 127.43"/><polygon class="cls-33" points="66.38 125.6 68.88 125.55 69.87 103.6 65.06 103.7 66.38 125.6"/><polygon class="cls-33" points="85.78 126.88 88.28 126.82 89.27 104.87 84.47 104.97 85.78 126.88"/><polygon class="cls-33" points="88.46 131.35 90.95 131.53 93.99 109.77 89.2 109.42 88.46 131.35"/><polygon class="cls-34" points="65.84 127.76 61.74 106.93 61.14 107.04 65.84 127.76"/><polygon class="cls-34" points="85.01 105.96 86.5 127.15 87.11 127.11 85.01 105.96"/><polygon class="cls-34" points="89.27 131.07 91.48 109.95 90.87 109.88 89.27 131.07"/><rect class="cls-34" x="69.68" y="107.15" width="3.47" height="20.77"/><rect class="cls-33" x="73.34" y="104.87" width="3.47" height="23.06"/><rect class="cls-34" x="77.19" y="110.79" width="3.47" height="17.14"/><rect class="cls-34" x="80.99" y="107.91" width="3.47" height="20.02"/><polygon class="cls-33" points="72.28 107.74 71.58 128.96 72.19 128.99 72.28 107.74"/><rect class="cls-34" x="96.84" y="110.21" width="3.47" height="20.77" transform="translate(194.77 243.11) rotate(-178.88)"/><rect class="cls-35" x="93.2" y="107.86" width="3.47" height="23.06" transform="translate(187.51 240.61) rotate(-178.88)"/><polygon class="cls-33" points="97.89 110.78 98.19 132.01 97.58 132.03 97.89 110.78"/><polygon class="cls-33" points="79.88 132.04 80.05 110.8 79.44 110.79 79.88 132.04"/><polygon class="cls-34" points="94.55 132.8 94.64 111.56 94.03 111.55 94.55 132.8"/><polygon class="cls-34" points="103.21 117.82 104.01 106.91 103.4 106.87 103.21 117.82"/><polygon class="cls-34" points="67.29 129.37 68.36 113.28 67.75 113.24 67.29 129.37"/></g><g class="cls-38"><polygon class="cls-33" points="133.46 128.76 130.97 128.66 130.41 106.69 135.21 106.89 133.46 128.76"/><polygon class="cls-33" points="96.5 127.43 94.06 127.93 88.28 106.73 92.99 105.77 96.5 127.43"/><polygon class="cls-33" points="96.39 125.6 98.89 125.55 99.88 103.6 95.07 103.7 96.39 125.6"/><polygon class="cls-33" points="115.8 126.88 118.29 126.82 119.28 104.87 114.48 104.97 115.8 126.88"/><polygon class="cls-33" points="118.47 131.35 120.96 131.53 124 109.77 119.21 109.42 118.47 131.35"/><polygon class="cls-34" points="95.85 127.76 91.76 106.93 91.16 107.04 95.85 127.76"/><polygon class="cls-34" points="115.02 105.96 116.52 127.15 117.13 127.11 115.02 105.96"/><polygon class="cls-34" points="119.28 131.07 121.49 109.95 120.88 109.88 119.28 131.07"/><rect class="cls-34" x="99.69" y="107.15" width="3.47" height="20.77"/><rect class="cls-33" x="103.35" y="104.87" width="3.47" height="23.06"/><rect class="cls-34" x="107.21" y="110.79" width="3.47" height="17.14"/><rect class="cls-34" x="111" y="107.91" width="3.47" height="20.02"/><polygon class="cls-33" points="102.3 107.74 101.59 128.96 102.2 128.99 102.3 107.74"/><rect class="cls-34" x="126.85" y="110.21" width="3.47" height="20.77" transform="matrix(-1, -0.02, 0.02, -1, 254.79, 243.69)"/><rect class="cls-35" x="123.21" y="107.86" width="3.47" height="23.06" transform="translate(247.53 241.2) rotate(-178.88)"/><polygon class="cls-33" points="127.91 110.78 128.2 132.01 127.59 132.03 127.91 110.78"/><polygon class="cls-33" points="109.89 132.04 110.07 110.8 109.45 110.79 109.89 132.04"/><polygon class="cls-34" points="124.56 132.8 124.65 111.56 124.04 111.55 124.56 132.8"/><polygon class="cls-34" points="133.22 117.82 134.03 106.91 133.41 106.87 133.22 117.82"/><polygon class="cls-34" points="97.3 129.37 98.37 113.28 97.76 113.24 97.3 129.37"/></g><g class="cls-39"><polygon class="cls-33" points="179.05 128.76 176.56 128.66 176 106.69 180.8 106.89 179.05 128.76"/><polygon class="cls-33" points="142.1 127.43 139.65 127.93 133.87 106.73 138.58 105.77 142.1 127.43"/><polygon class="cls-33" points="141.98 125.6 144.48 125.55 145.47 103.6 140.66 103.7 141.98 125.6"/><polygon class="cls-33" points="161.39 126.88 163.88 126.82 164.88 104.87 160.07 104.97 161.39 126.88"/><polygon class="cls-33" points="164.06 131.35 166.55 131.53 169.6 109.77 164.8 109.42 164.06 131.35"/><polygon class="cls-34" points="141.44 127.76 137.35 106.93 136.75 107.04 141.44 127.76"/><polygon class="cls-34" points="160.61 105.96 162.11 127.15 162.72 127.11 160.61 105.96"/><polygon class="cls-34" points="164.88 131.07 167.08 109.95 166.47 109.88 164.88 131.07"/><rect class="cls-34" x="145.28" y="107.15" width="3.47" height="20.77"/><rect class="cls-33" x="148.94" y="104.87" width="3.47" height="23.06"/><rect class="cls-34" x="152.8" y="110.79" width="3.47" height="17.14"/><rect class="cls-34" x="156.59" y="107.91" width="3.47" height="20.02"/><polygon class="cls-33" points="147.89 107.74 147.18 128.96 147.79 128.99 147.89 107.74"/><rect class="cls-34" x="172.44" y="110.21" width="3.47" height="20.77" transform="translate(345.96 244.58) rotate(-178.88)"/><rect class="cls-35" x="168.8" y="107.86" width="3.47" height="23.06" transform="translate(338.71 242.09) rotate(-178.88)"/><polygon class="cls-33" points="173.5 110.78 173.79 132.01 173.18 132.03 173.5 110.78"/><polygon class="cls-33" points="155.49 132.04 155.66 110.8 155.05 110.79 155.49 132.04"/><polygon class="cls-34" points="170.15 132.8 170.25 111.56 169.63 111.55 170.15 132.8"/><polygon class="cls-34" points="178.81 117.82 179.62 106.91 179 106.87 178.81 117.82"/><polygon class="cls-34" points="142.89 129.37 143.97 113.28 143.35 113.24 142.89 129.37"/></g><g class="cls-40"><polygon class="cls-33" points="225.38 128.76 222.89 128.66 222.33 106.69 227.13 106.89 225.38 128.76"/><polygon class="cls-33" points="188.43 127.43 185.98 127.93 180.2 106.73 184.91 105.77 188.43 127.43"/><polygon class="cls-33" points="188.32 125.6 190.81 125.55 191.8 103.6 187 103.7 188.32 125.6"/><polygon class="cls-33" points="207.72 126.88 210.22 126.82 211.21 104.87 206.4 104.97 207.72 126.88"/><polygon class="cls-33" points="210.4 131.35 212.89 131.53 215.93 109.77 211.14 109.42 210.4 131.35"/><polygon class="cls-34" points="187.78 127.76 183.68 106.93 183.08 107.04 187.78 127.76"/><polygon class="cls-34" points="206.95 105.96 208.44 127.15 209.05 127.11 206.95 105.96"/><polygon class="cls-34" points="211.21 131.07 213.41 109.95 212.81 109.88 211.21 131.07"/><rect class="cls-34" x="191.61" y="107.15" width="3.47" height="20.77"/><rect class="cls-33" x="195.28" y="104.87" width="3.47" height="23.06"/><rect class="cls-34" x="199.13" y="110.79" width="3.47" height="17.14"/><rect class="cls-34" x="202.93" y="107.91" width="3.47" height="20.02"/><polygon class="cls-33" points="194.22 107.74 193.51 128.96 194.13 128.99 194.22 107.74"/><rect class="cls-34" x="218.77" y="110.21" width="3.47" height="20.77" transform="translate(438.62 245.49) rotate(-178.88)"/><rect class="cls-35" x="215.13" y="107.86" width="3.47" height="23.06" transform="translate(431.36 243) rotate(-178.88)"/><polygon class="cls-33" points="219.83 110.78 220.12 132.01 219.51 132.03 219.83 110.78"/><polygon class="cls-33" points="201.82 132.04 201.99 110.8 201.38 110.79 201.82 132.04"/><polygon class="cls-34" points="216.49 132.8 216.58 111.56 215.97 111.55 216.49 132.8"/><polygon class="cls-34" points="225.15 117.82 225.95 106.91 225.34 106.87 225.15 117.82"/><polygon class="cls-34" points="189.23 129.37 190.3 113.28 189.69 113.24 189.23 129.37"/></g><g class="cls-41"><polygon class="cls-33" points="233.93 127.43 231.48 127.93 225.7 106.73 230.41 105.77 233.93 127.43"/><polygon class="cls-33" points="233.81 125.6 236.31 125.55 237.3 103.6 232.5 103.7 233.81 125.6"/><polygon class="cls-33" points="253.22 126.88 255.72 126.82 256.71 104.87 251.9 104.97 253.22 126.88"/><polygon class="cls-33" points="255.9 131.35 258.39 131.53 261.43 109.77 256.63 109.42 255.9 131.35"/><polygon class="cls-34" points="233.28 127.76 229.18 106.93 228.58 107.04 233.28 127.76"/><polygon class="cls-34" points="252.44 105.96 253.94 127.15 254.55 127.11 252.44 105.96"/><polygon class="cls-34" points="256.71 131.07 258.91 109.95 258.3 109.88 256.71 131.07"/><rect class="cls-34" x="237.11" y="107.15" width="3.47" height="20.77"/><rect class="cls-33" x="240.78" y="104.87" width="3.47" height="23.06"/><rect class="cls-34" x="244.63" y="110.79" width="3.47" height="17.14"/><rect class="cls-34" x="248.43" y="107.91" width="3.47" height="20.02"/><polygon class="cls-33" points="239.72 107.74 239.01 128.96 239.62 128.99 239.72 107.74"/><polygon class="cls-33" points="247.32 132.04 247.49 110.8 246.88 110.79 247.32 132.04"/><polygon class="cls-34" points="234.72 129.37 235.8 113.28 235.19 113.24 234.72 129.37"/></g><path class="cls-42" d="M129,123.28s4.95,1.42,3.27-1.76-3.53-.29-3.53-.29,1.79-1.94.19-3.32-3.19-.43-2.7,1.92c0,0-1.24-3.89-3.66-1.43-1.36,1.4,1.54,2.46,1.54,2.46s-3.33-1.35-3.54,1.38,6,1,6,1Z"/><path class="cls-42" d="M31.66,123.69s4.95,1.42,3.27-1.76-3.53-.29-3.53-.29,1.79-1.94.19-3.32-3.19-.43-2.7,1.93c0,0-1.24-3.9-3.65-1.43-1.37,1.39,1.53,2.45,1.53,2.45s-3.32-1.35-3.53,1.38,6,1,6,1Z"/><rect class="cls-43" x="-53.17" y="126.49" width="407.04" height="72.62"/><rect class="cls-44" x="-53.17" y="124.99" width="407.04" height="3.08"/><rect class="cls-45" x="-53.17" y="122.12" width="407.04" height="3.08"/><ellipse class="cls-46" cx="122.21" cy="161.8" rx="5.61" ry="0.88"/><ellipse class="cls-46" cx="60.89" cy="152.77" rx="3.63" ry="0.57"/><ellipse class="cls-46" cx="115.71" cy="130.91" rx="15.89" ry="1.18"/><rect class="cls-47" x="182.44" y="85.65" width="78.87" height="46.67"/><polygon class="cls-48" points="187.63 85.44 187.63 130.1 181.74 132.45 181.86 85.95 187.63 85.44"/><polygon class="cls-48" points="246.28 85.44 246.28 129.09 260.22 132.48 262.13 132.48 262.04 86.37 257.32 84.35 246.28 85.44"/><path class="cls-4" d="M181.74,132.45a16.86,16.86,0,0,1,5.47-3.07c2.52-.61,53.76-1.1,58.48-1s15.36,4.07,15.36,4.07Z"/><g class="cls-49"><rect class="cls-5" x="178.45" y="124.74" width="84.22" height="14.21"/><g class="cls-50"><rect class="cls-51" x="220.28" y="121.46" width="0.55" height="18.67"/><polygon class="cls-51" points="202.97 139.9 202.43 139.86 216.14 121.69 216.68 121.73 202.97 139.9"/><polygon class="cls-51" points="185.41 139.36 184.91 139.29 208.96 122.23 209.46 122.3 185.41 139.36"/><polygon class="cls-51" points="162.05 138.34 161.61 138.23 197 123.26 197.44 123.36 162.05 138.34"/><polygon class="cls-51" points="239.45 139.9 239.99 139.86 226.28 121.69 225.74 121.73 239.45 139.9"/><polygon class="cls-51" points="257 139.36 257.5 139.29 233.46 122.23 232.96 122.3 257 139.36"/><polygon class="cls-51" points="281.04 138.34 281.48 138.23 246.09 123.26 245.65 123.36 281.04 138.34"/><rect class="cls-51" x="168.68" y="129.51" width="100.11" height="0.46"/></g></g><rect class="cls-6" x="183.42" y="83.83" width="75.66" height="2.26" transform="translate(442.5 169.91) rotate(-180)"/><g class="cls-52"><g class="cls-53"><path class="cls-54" d="M189.07,86.28c.38,0,.6-.23.89-.35a11.6,11.6,0,0,1,2.12-.22c.42-.08.75-.26,1.14-.37,1.17-.33,2.6,0,3.9-.11a6.54,6.54,0,0,1,1.32-.11,6.34,6.34,0,0,1,.78.18,5,5,0,0,0,2.11,0"/><path class="cls-54" d="M185.33,83.29a8.35,8.35,0,0,0,3,.64,14.33,14.33,0,0,1,1.47.07c.36.06.7.16,1.07.22a9.67,9.67,0,0,0,2.15,0,9.47,9.47,0,0,1,1.92,0,9.07,9.07,0,0,0,1.64.2,4,4,0,0,0,1.06-.24l2.35-.77"/><path class="cls-54" d="M202.64,83.67c.42.07.89.18,1,.42,0,.08,0,.17.07.25a.77.77,0,0,0,.57.31,2.89,2.89,0,0,0,.83,0,2.12,2.12,0,0,1,.43,0,4.23,4.23,0,0,1,.8.29,3.27,3.27,0,0,0,1,0,14.42,14.42,0,0,1,2.18,0,.62.62,0,0,0,.24,0,.12.12,0,0,0,.06-.08l.1-.28"/><path class="cls-54" d="M201.13,84.9a1.26,1.26,0,0,0,.62-.15c.15-.12.07-.29-.11-.39a2.06,2.06,0,0,0-.69-.19,3.37,3.37,0,0,0-1,0c-.34,0-.63.23-.59.43l0,.06a.44.44,0,0,0,.21,0H200a.85.85,0,0,0,.37,0c.1-.05.09-.16,0-.18"/><path class="cls-54" d="M185.86,83.7l1,.31a1.34,1.34,0,0,1,.3.12,1.59,1.59,0,0,1,.24.2,3.08,3.08,0,0,0,1.63.44"/><path class="cls-54" d="M205,86.11c.4-.06.79-.13,1.2-.18a23.59,23.59,0,0,1,5.38-.1,1.3,1.3,0,0,1,.41.08l.21.12a1.72,1.72,0,0,0,.47.07"/><path class="cls-54" d="M210.72,83.79l.58.49a2.55,2.55,0,0,0,.91.49,1.81,1.81,0,0,0,1.2,0c.23-.13.31-.32.56-.43a2.67,2.67,0,0,1,.4-.13,2.68,2.68,0,0,0,1-.49"/><path class="cls-54" d="M214.47,86.15a2.07,2.07,0,0,1,.65-.52,1.35,1.35,0,0,1,.89-.18c.1,0,.19.06.29.09a2.73,2.73,0,0,0,1.43-.19,3,3,0,0,1,1.78,0c.09,0,.17.08.27.11.4.11.94,0,1.33.08s.35.27.51.41a1.73,1.73,0,0,0,1,.35"/><path class="cls-54" d="M214.86,84.94a34.7,34.7,0,0,1,6-.22c1.76,0,3.52,0,5.28,0"/><path class="cls-54" d="M216.08,84.27c3.36-.38,6.84.3,10.25.1a13.2,13.2,0,0,1,3.5,0"/><path class="cls-54" d="M223.26,86.06a2.75,2.75,0,0,0,1.45-.25.93.93,0,0,1,.2-.09.68.68,0,0,1,.25,0c1,0,1.75.57,2.7.47"/><path class="cls-54" d="M231.09,85.75a5.7,5.7,0,0,1-1.65,0,1.84,1.84,0,0,1-.45-.13c-.13-.07-.21-.16-.17-.26s.34-.22.6-.26a8.84,8.84,0,0,1,2.41,0,.82.82,0,0,1,.4.11c.1.06.1.18,0,.22l-.14,0a6.51,6.51,0,0,1-1.4-.09"/><path class="cls-54" d="M230.71,83.72a2.17,2.17,0,0,0,1.3.45,8.13,8.13,0,0,0,1.56-.21,12.15,12.15,0,0,1,2.34-.06,3.23,3.23,0,0,1,1.15.17,5.72,5.72,0,0,0,.74.38,2.6,2.6,0,0,0,.84,0"/><path class="cls-54" d="M233.76,85.69a10.15,10.15,0,0,1,2.4-.26c.85,0,1.65.26,2.5.27a9.21,9.21,0,0,1,2.78,0c.19.06.35.15.55.2a8.17,8.17,0,0,0,1.49,0,5.27,5.27,0,0,1,1.82.51,3.41,3.41,0,0,0,1.92.26"/><path class="cls-54" d="M233.19,84.79a9.91,9.91,0,0,1,1.89-.15,14.53,14.53,0,0,1,2.11.37,5.21,5.21,0,0,0,2.15.07c.29-.07.53-.18.81-.25a3.75,3.75,0,0,1,1.42-.1"/><path class="cls-54" d="M241.84,85.19a21.06,21.06,0,0,0,4,0,5.45,5.45,0,0,1,1.07,0c1.24.11,1.85,1.06,3.11,1.12"/><path class="cls-54" d="M257.52,85.7a7.07,7.07,0,0,1-2.3-.11c-.65-.13-1.22-.35-1.85-.51a4.56,4.56,0,0,0-2-.11"/><path class="cls-54" d="M255.2,86.4a11.8,11.8,0,0,1-2.57-.37,6.26,6.26,0,0,0-1.89-.35"/><path class="cls-54" d="M259.5,84.49c-1.93.13-3.86-.25-5.8-.25a6.77,6.77,0,0,0-1.44.13c-.39.09-.74.23-1.14.29-1.14.16-2.36-.36-3.46-.12"/><path class="cls-54" d="M239.81,83.63c1.69-.07,3.23.63,4.93.65a11.68,11.68,0,0,0,2.85-.42l1.89-.44"/><path class="cls-54" d="M246,84.77a20.17,20.17,0,0,1-2.58,0"/><path class="cls-54" d="M201,86.17a4.92,4.92,0,0,0,1,0,5.56,5.56,0,0,0,.95-.31,7.59,7.59,0,0,1,1.72-.39"/><path class="cls-54" d="M186.84,86.37a.51.51,0,0,0,.44-.21.47.47,0,0,0-.11-.69,3.72,3.72,0,0,0-1.79-.53"/></g></g><rect class="cls-55" x="185" y="83.06" width="72.24" height="2.26"/><rect class="cls-6" x="159.15" y="108.21" width="46.27" height="2.26" transform="translate(291.63 -72.95) rotate(90)"/><rect class="cls-6" x="201.76" y="73.27" width="38.82" height="1.28"/><path class="cls-7" d="M233.79,69.46a1,1,0,0,0-1.27-.22,1.36,1.36,0,0,0-1.27-.27,1.4,1.4,0,0,0-1.3,0,1,1,0,0,0-1.25-.09,1.2,1.2,0,0,0-.65-.29,1.08,1.08,0,0,0-.69.13,1,1,0,0,0-1.25-.21,1.34,1.34,0,0,0-1.34-.24l-1,7.65h0V76h0l-.89,7.65a1.33,1.33,0,0,0,1.36.09,1,1,0,0,0,1.25.1,1.2,1.2,0,0,0,1.35.16,1,1,0,0,0,1.24.21,1.37,1.37,0,0,0,1.27.26,1.4,1.4,0,0,0,1.3,0,1,1,0,0,0,1.28.07,1.1,1.1,0,0,0,1.35.17l.91-7.5v-.13l.91-7.5A1.08,1.08,0,0,0,233.79,69.46Z"/><g class="cls-56"><path class="cls-57" d="M231.12,80a.66.66,0,0,0,.39-.59c0-.14,0-.29,0-.4s.29-.17.37-.31,0-.28,0-.42.14-.4.2-.6a.8.8,0,0,0-.3-.87.75.75,0,0,1-.18-.13c-.11-.12-.09-.31-.17-.45a.66.66,0,0,0-.33-.26l-.82-.41a.2.2,0,0,1-.1-.08s0-.07,0-.1-.09,0-.14-.07-.19-.28-.2-.46v-.54a.36.36,0,0,0-.07-.22c-.06-.06-.16,0-.24-.1s-.11-.3-.12-.47a.63.63,0,0,0-1-.44.67.67,0,0,1-.2.12c-.13,0-.26-.07-.4-.09a.47.47,0,0,0-.43.26c-.1.14-.16.31-.26.46a.43.43,0,0,1-.12.11.59.59,0,0,1-.19,0l-.41,0a.65.65,0,0,0-.5.09,1.36,1.36,0,0,0-.21.37,2.28,2.28,0,0,1-.29.33.4.4,0,0,0-.1.41c.06.14.24.2.29.35s-.08.31-.21.42-.28.24-.26.41a.35.35,0,0,0,.31.28c.15,0,.3,0,.45,0l.1,0c.09.09,0,.25-.1.29s-.24,0-.35.1a.72.72,0,0,0-.28.62.11.11,0,0,0,0,.11l.06,0c.08.06,0,.19,0,.27a1.36,1.36,0,0,0-.24.5.58.58,0,0,0,.14.52.69.69,0,0,0,.56.14c.2,0,.4-.09.6-.1a1.1,1.1,0,0,1,.74.26c.13.11.23.25.36.35a.49.49,0,0,0,.47.12c.15,0,.25-.2.4-.23.33-.08.57.38.91.36l.27-.06c.25,0,.45.23.69.24a1,1,0,0,0,.41-.11.43.43,0,0,1,.41,0"/><rect class="cls-58" x="225.05" y="67.08" width="0.23" height="17.86" transform="translate(10.75 -26.47) rotate(6.89)"/><rect class="cls-58" x="226.33" y="67.24" width="0.23" height="17.86" transform="translate(10.78 -26.62) rotate(6.89)"/><rect class="cls-58" x="227.66" y="67.4" width="0.23" height="17.86" transform="translate(10.81 -26.78) rotate(6.89)"/><rect class="cls-58" x="228.91" y="67.55" width="0.23" height="17.86" transform="translate(10.83 -26.93) rotate(6.89)"/><rect class="cls-58" x="230.19" y="67.7" width="0.23" height="17.86" transform="translate(10.86 -27.08) rotate(6.89)"/><rect class="cls-58" x="231.46" y="67.86" width="0.23" height="17.86" transform="translate(10.89 -27.23) rotate(6.89)"/><rect class="cls-58" x="232.77" y="68.02" width="0.23" height="17.86" transform="translate(10.92 -27.39) rotate(6.89)"/></g><g class="cls-59"><path class="cls-8" d="M249.81,70.35a.84.84,0,0,0-1.13-.07,6.55,6.55,0,0,0-2.28,0,.84.84,0,0,0-1.11,0,1,1,0,0,0-1.19,0,.84.84,0,0,0-1.11,0,1.18,1.18,0,0,0-1.2-.07l0,6.8h0v.11h0l0,6.79a1.2,1.2,0,0,0,1.2-.06.84.84,0,0,0,1.11,0,1.07,1.07,0,0,0,1.19,0,.84.84,0,0,0,1.11,0,7.26,7.26,0,0,0,2.28,0,.84.84,0,0,0,1.13-.07,1,1,0,0,0,1.2,0V70.35A1,1,0,0,0,249.81,70.35Z"/><g class="cls-60"><path class="cls-61" d="M250.26,77.59a.49.49,0,0,0-.47-.26c-.11,0-.22,0-.31,0s-.15-.22-.26-.26-.21,0-.32,0a1.31,1.31,0,0,1-.47-.12.61.61,0,0,0-.65.28.67.67,0,0,1-.09.14c-.09.09-.24.08-.34.15a.56.56,0,0,0-.18.27l-.27.65a.16.16,0,0,1-.06.08l-.08,0s0,.07,0,.11-.2.16-.34.17l-.41,0a.32.32,0,0,0-.17.06c0,.06,0,.13-.07.19s-.22.1-.35.12a.5.5,0,0,0-.37.31.49.49,0,0,0,.08.48.49.49,0,0,1,.11.14c0,.11,0,.21,0,.32a.36.36,0,0,0,.22.31c.12.07.25.1.37.17s.07,0,.08.09a.22.22,0,0,1,0,.14v.32a.45.45,0,0,0,.1.38,1.12,1.12,0,0,0,.29.14c.1,0,.17.14.27.2a.32.32,0,0,0,.32.06c.1-.06.14-.2.25-.24s.24,0,.33.14.2.2.33.18a.32.32,0,0,0,.2-.26c0-.11,0-.23,0-.34a.32.32,0,0,1,0-.09c.06-.07.19,0,.23.07a2.67,2.67,0,0,0,.09.26c.09.16.31.18.49.18a.11.11,0,0,0,.08,0s0,0,0,0,.14,0,.21,0a1.09,1.09,0,0,0,.4.16.5.5,0,0,0,.39-.13.52.52,0,0,0,.07-.44c0-.16-.08-.3-.1-.45a.79.79,0,0,1,.16-.58c.07-.11.17-.19.25-.3a.39.39,0,0,0,.07-.36c-.05-.11-.17-.18-.21-.3s.27-.45.23-.71c0-.07,0-.13-.05-.2s.15-.35.14-.54a.87.87,0,0,0-.1-.31.31.31,0,0,1,0-.31"/><path class="cls-62" d="M246.74,77.75a.44.44,0,0,0,.32-.36.49.49,0,0,1,.06-.27c.07-.09.21-.09.28-.18s0-.19,0-.29.13-.25.2-.39a.55.55,0,0,0-.12-.62.38.38,0,0,1-.11-.11c-.06-.09,0-.22-.07-.33a.5.5,0,0,0-.2-.21l-.52-.36s-.05,0-.06-.07v-.07s-.06,0-.09-.06-.1-.21-.09-.33l.05-.37a.23.23,0,0,0,0-.16s-.1,0-.15-.09,0-.22,0-.33a.43.43,0,0,0-.2-.39.44.44,0,0,0-.43,0,.47.47,0,0,1-.15.06c-.1,0-.18-.08-.27-.1a.34.34,0,0,0-.32.13c-.08.09-.14.2-.22.29a.21.21,0,0,1-.1.06.3.3,0,0,1-.13,0l-.28-.07a.47.47,0,0,0-.35,0c-.08.06-.11.16-.17.23a2.31,2.31,0,0,1-.24.2.27.27,0,0,0-.11.27c0,.1.15.16.16.27s-.09.21-.19.27-.21.13-.22.25a.25.25,0,0,0,.19.22c.1,0,.2.05.3.08l.07,0c0,.07,0,.17-.1.19s-.17,0-.25,0-.22.24-.26.39,0,.06,0,.08l0,0s0,.13-.05.18a.87.87,0,0,0-.22.32.38.38,0,0,0,0,.36.43.43,0,0,0,.37.16c.14,0,.28,0,.42,0a.8.8,0,0,1,.48.25c.08.09.13.2.21.28a.36.36,0,0,0,.31.14c.11,0,.19-.12.3-.13s.35.32.58.34a1.34,1.34,0,0,0,.2,0c.17,0,.28.2.44.23a.7.7,0,0,0,.29,0,.3.3,0,0,1,.28,0"/><rect class="cls-63" x="242.86" y="69.12" width="0.2" height="15.74"/><rect class="cls-63" x="243.99" y="69.12" width="0.2" height="15.74"/><rect class="cls-63" x="245.18" y="69.12" width="0.2" height="15.74"/><rect class="cls-63" x="246.29" y="69.12" width="0.2" height="15.74"/><rect class="cls-63" x="247.42" y="69.12" width="0.2" height="15.74"/><rect class="cls-63" x="248.55" y="69.12" width="0.2" height="15.74"/><rect class="cls-63" x="249.72" y="69.12" width="0.2" height="15.74"/></g></g><g class="cls-64"><path class="cls-8" d="M212.14,70.82a.84.84,0,0,0-1.13,0,6.88,6.88,0,0,0-2.28.11.85.85,0,0,0-1.11.11,1,1,0,0,0-.6-.16,1,1,0,0,0-.59.21.84.84,0,0,0-1.11,0,1.17,1.17,0,0,0-1.2,0l.3,6.79h0V78h0l.36,6.78a1.19,1.19,0,0,0,1.2-.12.84.84,0,0,0,1.1-.1,1.07,1.07,0,0,0,1.19-.06.84.84,0,0,0,1.11,0,1.2,1.2,0,0,0,1.15,0,1.17,1.17,0,0,0,1.13-.15.83.83,0,0,0,1.12-.12,1,1,0,0,0,1.2-.06l-.32-6.65v-.11l-.33-6.65A1,1,0,0,0,212.14,70.82Z"/><g class="cls-65"><path class="cls-61" d="M212.94,78a.51.51,0,0,0-.48-.24c-.11,0-.22.07-.31,0s-.16-.2-.27-.25-.21,0-.32,0-.32-.08-.48-.1a.6.6,0,0,0-.63.3s0,.11-.08.15-.24.09-.34.17a.53.53,0,0,0-.17.28l-.23.66a.16.16,0,0,1-.06.08s0,0-.07,0,0,.06,0,.1-.2.18-.33.2l-.41.06c-.06,0-.13,0-.16.07s0,.13-.06.19-.22.11-.35.14a.47.47,0,0,0-.35.32.5.5,0,0,0,.1.47.67.67,0,0,1,.11.14c0,.1,0,.21,0,.32a.37.37,0,0,0,.24.3c.12.06.25.09.37.16a.18.18,0,0,1,.09.08.22.22,0,0,1,0,.14v.32a.45.45,0,0,0,.12.37.93.93,0,0,0,.29.12,1.42,1.42,0,0,1,.28.2.32.32,0,0,0,.32,0c.1-.07.14-.21.24-.26s.25,0,.35.13.2.19.33.16a.3.3,0,0,0,.19-.27c0-.11,0-.23,0-.34s0-.06,0-.08.18,0,.23,0,0,.18.1.26.32.16.5.15a.11.11,0,0,0,.08,0s0,0,0,0,.14,0,.21,0a1.11,1.11,0,0,0,.4.13.42.42,0,0,0,.38-.15.49.49,0,0,0,.06-.44c0-.15-.1-.29-.13-.44a.86.86,0,0,1,.13-.59c.07-.11.17-.2.24-.31a.37.37,0,0,0,0-.36c0-.11-.17-.17-.22-.29s.24-.46.2-.72c0-.07-.06-.13-.07-.2s.13-.36.12-.55a.86.86,0,0,0-.12-.3.31.31,0,0,1,0-.31"/><path class="cls-62" d="M209.43,78.37a.45.45,0,0,0,.31-.38.45.45,0,0,1,0-.28c.07-.08.21-.09.27-.18s0-.19,0-.29a1.2,1.2,0,0,1,.18-.4.56.56,0,0,0-.15-.62.52.52,0,0,1-.11-.1c-.07-.09,0-.22-.09-.32a.53.53,0,0,0-.21-.21l-.54-.33s0,0-.06-.07a.2.2,0,0,0,0-.07s-.05,0-.08-.05-.12-.21-.11-.33l0-.37a.21.21,0,0,0,0-.16s-.12,0-.16-.09-.06-.21-.06-.33a.42.42,0,0,0-.21-.37.43.43,0,0,0-.44,0,.69.69,0,0,1-.15.07c-.09,0-.17-.07-.27-.09a.31.31,0,0,0-.31.15c-.08.09-.13.2-.21.3a.47.47,0,0,1-.09.06.29.29,0,0,1-.13,0l-.29-.06a.47.47,0,0,0-.35,0,1.43,1.43,0,0,0-.16.24,1.55,1.55,0,0,1-.23.21.26.26,0,0,0-.09.27c0,.1.15.16.17.26s-.08.21-.17.28-.21.15-.21.26a.25.25,0,0,0,.2.22c.1,0,.2,0,.3.06l.07,0c.06.06,0,.17-.09.19s-.17,0-.25,0-.2.25-.23.41a.11.11,0,0,0,0,.08l0,0s0,.13,0,.18a1.12,1.12,0,0,0-.2.33.44.44,0,0,0,.06.37.47.47,0,0,0,.38.13c.14,0,.28,0,.42,0a.76.76,0,0,1,.49.22c.08.09.14.19.22.27a.37.37,0,0,0,.32.12c.1,0,.18-.12.29-.14s.37.3.6.31a1.23,1.23,0,0,0,.19,0c.17,0,.29.19.46.21a.73.73,0,0,0,.29,0,.28.28,0,0,1,.28,0"/><rect class="cls-63" x="205.53" y="69.92" width="0.2" height="15.74" transform="translate(-3.54 10.1) rotate(-2.79)"/><rect class="cls-63" x="206.66" y="69.87" width="0.2" height="15.74" transform="translate(-3.54 10.16) rotate(-2.79)"/><rect class="cls-63" x="207.84" y="69.81" width="0.2" height="15.74" transform="translate(-3.54 10.22) rotate(-2.79)"/><rect class="cls-63" x="208.95" y="69.75" width="0.2" height="15.74" transform="translate(-3.53 10.27) rotate(-2.79)"/><rect class="cls-63" x="210.08" y="69.7" width="0.2" height="15.74" transform="translate(-3.53 10.33) rotate(-2.79)"/><rect class="cls-63" x="211.21" y="69.64" width="0.2" height="15.74" transform="translate(-3.52 10.38) rotate(-2.79)"/><rect class="cls-63" x="212.37" y="69.59" width="0.2" height="15.74" transform="translate(-3.52 10.44) rotate(-2.79)"/></g></g><g class="cls-66"><path class="cls-8" d="M223,64.75a.69.69,0,0,0-1.13-.15.93.93,0,0,0-1.13-.2.92.92,0,0,0-1.14.07.69.69,0,0,0-1.11,0,.82.82,0,0,0-1.19-.07.69.69,0,0,0-1.11-.13.92.92,0,0,0-1.19-.16l-.32,9.28h0v.16h0l-.25,9.28a.91.91,0,0,0,1.2,0,.69.69,0,0,0,1.11,0,.88.88,0,0,0,.58.29.85.85,0,0,0,.61-.23.68.68,0,0,0,1.1.13.94.94,0,0,0,1.14.2.92.92,0,0,0,1.14-.07.69.69,0,0,0,1.13,0,.79.79,0,0,0,1.2.06l.28-9.1v-.15l.28-9.1A.78.78,0,0,0,223,64.75Z"/><g class="cls-67"><polygon class="cls-63" points="215.68 84.19 215.48 84.18 216.13 62.68 216.33 62.69 215.68 84.19"/><polygon class="cls-63" points="216.81 84.26 216.61 84.25 217.26 62.74 217.46 62.75 216.81 84.26"/><polygon class="cls-63" points="217.99 84.33 217.79 84.31 218.44 62.81 218.64 62.82 217.99 84.33"/><polygon class="cls-63" points="219.1 84.39 218.9 84.38 219.56 62.87 219.76 62.88 219.1 84.39"/><polygon class="cls-63" points="220.23 84.45 220.03 84.44 220.69 62.94 220.89 62.95 220.23 84.45"/><polygon class="cls-63" points="221.36 84.52 221.16 84.5 221.82 63 222.02 63.01 221.36 84.52"/><polygon class="cls-63" points="222.53 84.58 222.33 84.57 222.98 63.07 223.18 63.08 222.53 84.58"/></g></g><g class="cls-68"><path class="cls-7" d="M198.44,68.82a1,1,0,0,0-1.29,0,7.64,7.64,0,0,0-2.58.1,1,1,0,0,0-1.26.1,1.18,1.18,0,0,0-.68-.18,1.1,1.1,0,0,0-.67.24,1,1,0,0,0-1.26,0,1.34,1.34,0,0,0-1.36,0l.27,7.7h0v.13h0l.35,7.7a1.33,1.33,0,0,0,1.35-.13,1,1,0,0,0,1.26-.1,1.18,1.18,0,0,0,.68.18,1.1,1.1,0,0,0,.67-.24,1,1,0,0,0,1.26,0,1.35,1.35,0,0,0,1.29.06,1.38,1.38,0,0,0,1.29-.16,1,1,0,0,0,1.28-.13,1.11,1.11,0,0,0,1.36,0l-.3-7.55v-.13l-.29-7.55A1.1,1.1,0,0,0,198.44,68.82Z"/><g class="cls-69"><path class="cls-57" d="M197.49,79.62a.65.65,0,0,0,.28-.64c0-.14-.09-.28,0-.41s.26-.21.31-.36,0-.27-.07-.41a2,2,0,0,1,.1-.63.79.79,0,0,0-.44-.81.87.87,0,0,1-.19-.1c-.13-.1-.14-.29-.24-.42a.71.71,0,0,0-.37-.2l-.88-.27a.19.19,0,0,1-.11-.07s0-.07,0-.09a.27.27,0,0,0-.15,0c-.17,0-.24-.24-.27-.42l-.1-.53a.32.32,0,0,0-.1-.2c-.07-.05-.17,0-.25-.07s-.16-.28-.2-.44a.63.63,0,0,0-1.06-.28.61.61,0,0,1-.17.15c-.13.06-.28,0-.42,0a.47.47,0,0,0-.38.32c-.07.16-.1.34-.18.49a.45.45,0,0,1-.1.13.39.39,0,0,1-.18,0l-.42,0a.66.66,0,0,0-.48.17,1.3,1.3,0,0,0-.14.39,3,3,0,0,1-.24.38.38.38,0,0,0,0,.42c.08.13.27.16.34.3s0,.32-.14.45-.24.28-.2.44a.38.38,0,0,0,.36.23c.15,0,.3,0,.45,0a.2.2,0,0,1,.11,0c.1.06,0,.23-.06.3s-.23.08-.33.15-.19.42-.18.65a.21.21,0,0,0,0,.11l.07,0c.09,0,.06.18,0,.27a1.28,1.28,0,0,0-.15.53.56.56,0,0,0,.21.49.68.68,0,0,0,.59,0c.19,0,.37-.15.57-.19a1.1,1.1,0,0,1,.77.14c.15.08.27.2.41.29a.53.53,0,0,0,.49,0c.13-.07.21-.23.35-.29.31-.14.63.28.95.21.1,0,.18-.08.27-.1.24-.06.47.15.72.12a.93.93,0,0,0,.38-.17.43.43,0,0,1,.41,0"/><rect class="cls-58" x="190.86" y="67.73" width="0.23" height="17.86" transform="translate(-2.87 7.59) rotate(-2.26)"/><rect class="cls-58" x="192.14" y="67.68" width="0.23" height="17.86" transform="translate(-2.87 7.64) rotate(-2.26)"/><rect class="cls-58" x="193.48" y="67.62" width="0.23" height="17.86" transform="translate(-2.87 7.69) rotate(-2.26)"/><rect class="cls-58" x="194.75" y="67.58" width="0.23" height="17.86" transform="translate(-2.86 7.74) rotate(-2.26)"/><rect class="cls-58" x="196.03" y="67.52" width="0.23" height="17.86" transform="translate(-2.86 7.79) rotate(-2.26)"/><rect class="cls-58" x="197.31" y="67.47" width="0.23" height="17.86" transform="translate(-2.86 7.84) rotate(-2.26)"/><rect class="cls-58" x="198.63" y="67.42" width="0.23" height="17.86" transform="matrix(1, -0.04, 0.04, 1, -2.85, 7.89)"/></g></g><polygon class="cls-70" points="216.03 66.74 227.8 66.74 221.47 62.48 216.03 66.74"/><polygon class="cls-9" points="179.97 88.14 222.9 63.33 220.37 62.58 177.37 87.38 179.97 88.14"/><g class="cls-71"><line class="cls-72" x1="178.1" y1="88.4" x2="223.92" y2="62.33"/><line class="cls-72" x1="177.52" y1="87.88" x2="223.34" y2="61.81"/><polyline class="cls-10" points="219.93 61.86 194.6 75.67 200.17 77.21 224.65 62.49 221.73 60.98"/></g><polygon class="cls-10" points="262.19 88.17 220.07 62.75 221.97 61.66 264.81 87.45 262.19 88.17"/><g class="cls-73"><polygon class="cls-70" points="228.78 64.08 226 64.85 238.49 72.36 240.27 71.87 228.78 64.08"/></g></g></svg>