<svg id="Layer_1" data-name="Layer 1" xmlns="http://www.w3.org/2000/svg" xmlns:xlink="http://www.w3.org/1999/xlink" viewBox="0 0 260 168"><defs><style>.cls-1{fill:#ffecd7;}.cls-2{fill:#ffdeb6;}.cls-3{fill:#fcd2a4;}.cls-4{clip-path:url(#clip-path);}.cls-5{fill:url(#linear-gradient);}.cls-6{opacity:0.4;}.cls-7{fill:#fff;}.cls-8{opacity:0.26;}.cls-10,.cls-9{opacity:0.81;}.cls-9{fill:url(#linear-gradient-2);}.cls-10{fill:url(#linear-gradient-3);}.cls-11{fill:#637332;}.cls-12{fill:#4b3320;}.cls-13{fill:#647432;}.cls-14{fill:#37461e;}.cls-15{fill:#38471e;}.cls-16{fill:#f4d6ba;opacity:0.21;}.cls-17{fill:#e5ac7a;}</style><clipPath id="clip-path"><rect class="cls-1" x="166.46" y="39.48" width="66.91" height="49.44" rx="5.82"/></clipPath><linearGradient id="linear-gradient" x1="182.75" y1="-29.08" x2="182.75" y2="128.5" gradientTransform="translate(365.51 156.32) rotate(-180)" gradientUnits="userSpaceOnUse"><stop offset="0.03" stop-color="#00aeef"/><stop offset="0.4" stop-color="#f7941d"/><stop offset="0.54" stop-color="#f8b625"/><stop offset="0.69" stop-color="#f8d42c"/><stop offset="0.81" stop-color="#f9e630"/><stop offset="0.91" stop-color="#f9ed32"/></linearGradient><linearGradient id="linear-gradient-2" x1="1995.61" y1="102.88" x2="1995.61" y2="64.89" gradientTransform="translate(-1829.81)" gradientUnits="userSpaceOnUse"><stop offset="0" stop-color="#e6f5fc"/><stop offset="0.48" stop-color="#eff8fc"/><stop offset="0.54" stop-color="#f1f9fc"/><stop offset="0.99" stop-color="#fff"/></linearGradient><linearGradient id="linear-gradient-3" x1="1034.19" y1="103.74" x2="1034.19" y2="65.74" gradientTransform="matrix(-1, 0, 0, 1, 1264.57, 0)" xlink:href="#linear-gradient-2"/></defs><rect class="cls-1" x="0.01" width="260" height="168"/><path class="cls-2" d="M260,168H0V136.76q61.23-1.31,124.64-1.39,69-.06,135.39,1.39Z"/><ellipse class="cls-3" cx="249.84" cy="161.75" rx="9" ry="1.87"/><ellipse class="cls-3" cx="227.22" cy="160.53" rx="9" ry="1.87"/><ellipse class="cls-3" cx="13.65" cy="161.75" rx="7.47" ry="1.87"/><rect class="cls-1" x="166.46" y="39.48" width="66.91" height="49.44" rx="5.82"/><g class="cls-4"><rect class="cls-5" x="20.85" y="-12.52" width="323.81" height="181.37" transform="translate(365.51 156.32) rotate(180)"/><g class="cls-6"><circle class="cls-7" cx="165.41" cy="45.14" r="0.09"/><circle class="cls-7" cx="176.4" cy="49.01" r="0.38"/><circle class="cls-7" cx="183.07" cy="47.98" r="0.07"/><circle class="cls-7" cx="165.74" cy="32.43" r="0.4"/><circle class="cls-7" cx="174.67" cy="37.7" r="0.34"/><circle class="cls-7" cx="182.44" cy="36.75" r="0.23"/><circle class="cls-7" cx="188.56" cy="35.03" r="0.26"/><circle class="cls-7" cx="194.91" cy="37.68" r="0.41"/><circle class="cls-7" cx="202.71" cy="20.51" r="0.25"/><circle class="cls-7" cx="195.84" cy="23.65" r="0.29"/><circle class="cls-7" cx="191.06" cy="20.64" r="0.3"/><circle class="cls-7" cx="180.86" cy="20" r="0.41"/><circle class="cls-7" cx="171.39" cy="13.6" r="0.16"/><circle class="cls-7" cx="184.67" cy="42.13" r="0.28"/><circle class="cls-7" cx="196.11" cy="45.45" r="0.12"/><circle class="cls-7" cx="181.79" cy="39.71" r="0.07"/><circle class="cls-7" cx="190.22" cy="38.91" r="0.05"/><circle class="cls-7" cx="170.63" cy="3.82" r="0.09"/><circle class="cls-7" cx="165.74" cy="2.77" r="0.12"/><circle class="cls-7" cx="154.91" cy="8.21" r="0.34"/><circle class="cls-7" cx="196.68" cy="5.82" r="0.27"/><circle class="cls-7" cx="186.6" cy="6.43" r="0.04"/><circle class="cls-7" cx="183.07" cy="11.27" r="0.28"/><circle class="cls-7" cx="174.55" cy="10.65" r="0.08"/><circle class="cls-7" cx="184.59" cy="20.99" r="0.19"/><circle class="cls-7" cx="173.56" cy="14.36" r="0.09"/><circle class="cls-7" cx="165.29" cy="19.15" r="0.3"/><circle class="cls-7" cx="179.1" cy="30.12" r="0.25"/><circle class="cls-7" cx="173.94" cy="27.98" r="0.26"/><circle class="cls-7" cx="167.17" cy="26.86" r="0.4"/><circle class="cls-7" cx="163.08" cy="31.21" r="0.22"/><circle class="cls-7" cx="155.53" cy="34.78" r="0.31"/><circle class="cls-7" cx="151.23" cy="31.26" r="0.15"/><circle class="cls-7" cx="194.31" cy="25.4" r="0.35"/><circle class="cls-7" cx="185.04" cy="32.05" r="0.33"/><circle class="cls-7" cx="171.24" cy="27.57" r="0.35"/><circle class="cls-7" cx="169.83" cy="34.33" r="0.03"/><circle class="cls-7" cx="168.11" cy="30.39" r="0.32"/><circle class="cls-7" cx="170.04" cy="19.72" r="0.1"/><circle class="cls-7" cx="172.61" cy="23.74" r="0.27"/><circle class="cls-7" cx="154.65" cy="29.54" r="0.13"/><circle class="cls-7" cx="162.18" cy="32.63" r="0.12"/></g><g class="cls-6"><circle class="cls-7" cx="210.92" cy="43.8" r="0.36"/><circle class="cls-7" cx="219.68" cy="43.05" r="0.33"/><circle class="cls-7" cx="227" cy="43.04" r="0.36"/><circle class="cls-7" cx="214.2" cy="26.56" r="0.21"/><circle class="cls-7" cx="225.66" cy="33.46" r="0.36"/><circle class="cls-7" cx="238.5" cy="30.18" r="0.37"/><circle class="cls-7" cx="246.37" cy="18.6" r="0.09"/><circle class="cls-7" cx="235.43" cy="17.67" r="0.22"/><circle class="cls-7" cx="231.44" cy="10.64" r="0.1"/><circle class="cls-7" cx="224.11" cy="9.75" r="0.11"/><circle class="cls-7" cx="214.94" cy="9.66" r="0.23"/><circle class="cls-7" cx="227.82" cy="37.5" r="0.24"/><circle class="cls-7" cx="240.09" cy="38.97" r="0.4"/><circle class="cls-7" cx="221.03" cy="32.31" r="0.05"/><circle class="cls-7" cx="228.27" cy="34.75" r="0.41"/><circle class="cls-7" cx="232.55" cy="37.06" r="0.03"/><circle class="cls-7" cx="200.32" cy="7.42" r="0.1"/><circle class="cls-7" cx="242.21" cy="5.77" r="0.24"/><circle class="cls-7" cx="232.85" cy="6.64" r="0.14"/><circle class="cls-7" cx="225.12" cy="5.6" r="0.16"/><circle class="cls-7" cx="219.16" cy="9.2" r="0.28"/><circle class="cls-7" cx="227.9" cy="10.09" r="0.06"/><circle class="cls-7" cx="218.97" cy="11.83" r="0.15"/><circle class="cls-7" cx="209.48" cy="13.12" r="0.41"/><circle class="cls-7" cx="222.87" cy="26.67" r="0.13"/><circle class="cls-7" cx="210.6" cy="23.15" r="0.11"/><circle class="cls-7" cx="200.4" cy="25.09" r="0.38"/><circle class="cls-7" cx="195.05" cy="23.32" r="0.42"/><circle class="cls-7" cx="234.75" cy="24.35" r="0.27"/><circle class="cls-7" cx="229.6" cy="28.38" r="0.23"/><circle class="cls-7" cx="213.96" cy="20.86" r="0.1"/><circle class="cls-7" cx="216.06" cy="27.67" r="0.23"/><circle class="cls-7" cx="208.68" cy="27.91" r="0.13"/><circle class="cls-7" cx="214.63" cy="19.11" r="0.11"/><circle class="cls-7" cx="198.28" cy="23.87" r="0.18"/><circle class="cls-7" cx="205.74" cy="28.29" r="0.42"/></g><g class="cls-6"><circle class="cls-7" cx="259.86" cy="41.89" r="0.4"/><circle class="cls-7" cx="252.62" cy="30.38" r="0.11"/><circle class="cls-7" cx="260.05" cy="30.06" r="0.08"/><circle class="cls-7" cx="258.24" cy="5.74" r="0.38"/><circle class="cls-7" cx="256.94" cy="3.5" r="0.11"/><circle class="cls-7" cx="251.33" cy="2.73" r="0.17"/><circle class="cls-7" cx="242.43" cy="9.83" r="0.36"/><circle class="cls-7" cx="260.05" cy="7.16" r="0.39"/><circle class="cls-7" cx="256.65" cy="17.83" r="0.17"/><circle class="cls-7" cx="251.39" cy="12.1" r="0.11"/><circle class="cls-7" cx="251.42" cy="30.59" r="0.24"/><circle class="cls-7" cx="246.31" cy="30.24" r="0.32"/><circle class="cls-7" cx="236.69" cy="30.83" r="0.35"/><circle class="cls-7" cx="250.88" cy="25.63" r="0.27"/><circle class="cls-7" cx="259.81" cy="26.64" r="0.09"/><circle class="cls-7" cx="248.3" cy="29.97" r="0.13"/><circle class="cls-7" cx="255.87" cy="19.87" r="0.37"/><circle class="cls-7" cx="237.91" cy="22.56" r="0.41"/><circle class="cls-7" cx="247.68" cy="28.36" r="0.12"/></g><g class="cls-6"><circle class="cls-7" cx="120.61" cy="40.17" r="0.36"/><circle class="cls-7" cx="131.05" cy="40.89" r="0.17"/><circle class="cls-7" cx="136.48" cy="45.08" r="0.23"/><circle class="cls-7" cx="124.21" cy="31.01" r="0.04"/><circle class="cls-7" cx="131.39" cy="28.65" r="0.28"/><circle class="cls-7" cx="140.36" cy="28.29" r="0.12"/><circle class="cls-7" cx="148.04" cy="27.74" r="0.35"/><circle class="cls-7" cx="153.88" cy="21.83" r="0.08"/><circle class="cls-7" cx="149.78" cy="16.09" r="0.38"/><circle class="cls-7" cx="138.57" cy="14.85" r="0.35"/><circle class="cls-7" cx="132.46" cy="10.14" r="0.22"/><circle class="cls-7" cx="125.46" cy="8.82" r="0.12"/><circle class="cls-7" cx="132.71" cy="43.51" r="0.21"/><circle class="cls-7" cx="140.32" cy="41.26" r="0.29"/><circle class="cls-7" cx="149.64" cy="46.49" r="0.33"/><circle class="cls-7" cx="136.35" cy="29.73" r="0.23"/><circle class="cls-7" cx="144.17" cy="34.54" r="0.28"/><circle class="cls-7" cx="116.77" cy="0.95" r="0.22"/><circle class="cls-7" cx="109.27" cy="5.6" r="0.06"/><circle class="cls-7" cx="138.28" cy="2.45" r="0.39"/><circle class="cls-7" cx="128.36" cy="6.63" r="0.33"/><circle class="cls-7" cx="144.63" cy="14.91" r="0.38"/><circle class="cls-7" cx="135.23" cy="12.24" r="0.2"/><circle class="cls-7" cx="128.21" cy="11.67" r="0.39"/><circle class="cls-7" cx="120.41" cy="9.74" r="0.33"/><circle class="cls-7" cx="131.51" cy="29.79" r="0.04"/><circle class="cls-7" cx="121.8" cy="29.46" r="0.36"/><circle class="cls-7" cx="109.3" cy="26.99" r="0.12"/><circle class="cls-7" cx="104.95" cy="24.04" r="0.33"/><circle class="cls-7" cx="147.39" cy="23.31" r="0.39"/><circle class="cls-7" cx="137.82" cy="26.14" r="0.04"/><circle class="cls-7" cx="123.4" cy="25.84" r="0.26"/><circle class="cls-7" cx="128.62" cy="26.35" r="0.04"/><circle class="cls-7" cx="118.58" cy="28.66" r="0.38"/><circle class="cls-7" cx="123.43" cy="19.96" r="0.16"/><circle class="cls-7" cx="111.42" cy="22.72" r="0.14"/><circle class="cls-7" cx="115.45" cy="29.32" r="0.29"/></g><g class="cls-6"><circle class="cls-7" cx="74.82" cy="41.02" r="0.38"/><circle class="cls-7" cx="80.83" cy="45.96" r="0.18"/><circle class="cls-7" cx="88.7" cy="47.99" r="0.05"/><circle class="cls-7" cx="72.45" cy="30.76" r="0.19"/><circle class="cls-7" cx="83.67" cy="31.69" r="0.22"/><circle class="cls-7" cx="88.43" cy="33.74" r="0.18"/><circle class="cls-7" cx="101.38" cy="29.01" r="0.26"/><circle class="cls-7" cx="104.99" cy="21.33" r="0.3"/><circle class="cls-7" cx="98.84" cy="17.57" r="0.38"/><circle class="cls-7" cx="89.89" cy="9.87" r="0.19"/><circle class="cls-7" cx="78.89" cy="8.22" r="0.29"/><circle class="cls-7" cx="88.87" cy="44.87" r="0.15"/><circle class="cls-7" cx="93.75" cy="42.67" r="0.32"/><circle class="cls-7" cx="102.86" cy="46" r="0.33"/><circle class="cls-7" cx="84.64" cy="29.8" r="0.22"/><circle class="cls-7" cx="92.59" cy="34.03" r="0.32"/><circle class="cls-7" cx="97.38" cy="34.51" r="0.39"/><circle class="cls-7" cx="80.38" cy="-0.08" r="0.18"/><circle class="cls-7" cx="71.53" cy="4.65" r="0.05"/><circle class="cls-7" cx="62.66" cy="6.15" r="0.13"/><circle class="cls-7" cx="105.52" cy="6.27" r="0.03"/><circle class="cls-7" cx="93.91" cy="8" r="0.37"/><circle class="cls-7" cx="86.77" cy="7.15" r="0.15"/><circle class="cls-7" cx="81.87" cy="8.11" r="0.1"/><circle class="cls-7" cx="94.48" cy="9.58" r="0.17"/><circle class="cls-7" cx="89.56" cy="11.08" r="0.4"/><circle class="cls-7" cx="81.14" cy="10.9" r="0.22"/><circle class="cls-7" cx="72.59" cy="13.8" r="0.32"/><circle class="cls-7" cx="86.94" cy="27.97" r="0.26"/><circle class="cls-7" cx="81.65" cy="28.99" r="0.38"/><circle class="cls-7" cx="75.22" cy="25.88" r="0.28"/><circle class="cls-7" cx="69.65" cy="23.38" r="0.21"/><circle class="cls-7" cx="64.34" cy="24.98" r="0.35"/><circle class="cls-7" cx="58.29" cy="30.2" r="0.38"/><circle class="cls-7" cx="103.34" cy="16.93" r="0.3"/><circle class="cls-7" cx="94.18" cy="21.67" r="0.34"/><circle class="cls-7" cx="89.13" cy="22.8" r="0.4"/><circle class="cls-7" cx="77.24" cy="29.91" r="0.37"/><circle class="cls-7" cx="71.83" cy="28.62" r="0.19"/><circle class="cls-7" cx="80.35" cy="19.58" r="0.41"/><circle class="cls-7" cx="58.26" cy="24.88" r="0.08"/><circle class="cls-7" cx="67.26" cy="31.36" r="0.23"/></g><g class="cls-8"><path class="cls-9" d="M206.87,87.09c-.63-.89-1.28-.73-1.28-.73-.66,0-.59-.29-.59-.29-.38-1.25-2.11-.39-2.11-.39a1.8,1.8,0,0,0-2.24-.54c.38-.54-.69-.61-.69-.61a.59.59,0,0,0,.48-.86,1.21,1.21,0,0,0,.43-1.36c-.71-2-3.84-1-3.84-1-2.43-1.45-3.13.8-3.13.8a3.06,3.06,0,0,0-3,2.32,6.06,6.06,0,0,0-3.53,1s4.84-3.12,2.09-4c0,0,1.83-2.35-.5-2.35,0,0,1.55-2.81-.91-3.4,0,0-.29-1.63-2.19-.85,0,0,1.48-1.7,0-3s-1.55,0-1.55,0a1.28,1.28,0,0,0-1.84.26s-.35-1.24-1.34-.2a2.58,2.58,0,0,0-1.06-2.68s-1-2-2.75,0c0,0-.92-.78-1.69,1.44a1.34,1.34,0,0,0-2.33.78s-1.13-1.76-1.9.33c0,0-2-2.42-4.1-.91,0,0-.77,1.43.71,1.82,0,0-1.91.14-.42,2.75,0,0-.64-.2-.57.59l-.22-.15c.15-.69-.06-1.33-1.42-1.33,0,0,1.92-3.48-1.13-4.21,0,0-.35-2-2.71-1,0,0,1.83-2.11,0-3.72s-1.93,0-1.93,0a1.57,1.57,0,0,0-2.27.32s-.43-1.54-1.66-.24a3.18,3.18,0,0,0-1.31-3.32s-1.22-2.51-3.41,0c0,0-1.13-1-2.09,1.78A1.66,1.66,0,0,0,146,65s-1.39-2.19-2.36.4c0,0-2.53-3-5.06-1.13,0,0-1,1.78.87,2.27,0,0-2.36.16-.52,3.4,0,0-.79-.25-.7.72,0,0-4.72-3.48-4.72,1.46,0,0-2.36.33-.53,3.08a1.91,1.91,0,0,0,1.14,2.42s-2.71,1.87,1.84,2.76c0,0-1.58,1,3,2.1a1.4,1.4,0,0,0,.35,1.62s-2.54-1.05-3.06,1a1,1,0,0,0-1.58.32,1.48,1.48,0,0,0-2.35-.56s-.41-1.7-1.56-1.3c0,0,2.08-1.13-1.24-1.7,0,0-2.14-1.61-3.19.44,0,0-2.09.48-1.45,2.26V98.12H200.3c.69-.47.11-.92.11-.92.17-.51-.52-.57-.52-.57-.49-1-1.63-.39-1.63-.39-.13-.35-.69-.38-.69-.38.49-.13.24-.48.24-.48.52-.8-.68-1.09-.68-1.09-.2-.77-1.46-.35-1.46-.35-.72-.45-1.28.35-1.28.35a1.68,1.68,0,0,0-2.17.16c-.24-.57-1.21-.57-1.21-.57-.52-.58-1.18,0-1.18,0-.24-.52-1.52-.61-1.52-.61l.87-.29c1-.3.65-.54.65-.54a.91.91,0,0,0,.45-.74,1.39,1.39,0,0,0,1.25,1.06c1,.06,1.1-.26,1.1-.26a2.29,2.29,0,0,0,2.21.32c.31-.19-.14-.7-.14-.7,1.7.89,2,0,2,0,.45.23.62,0,.62,0,1.76.58,1.21,0,1.21,0,.48-.11.13-.22.08-.23a5.09,5.09,0,0,0,1.72.16,7,7,0,0,0,2.21,0,3.61,3.61,0,0,0-1.25-.8s1.56.32,1.39-.61a1,1,0,0,0-1-.9c-1.1-1.05-1.86-.28-1.86-.28-.55-.29-.73.09-.73.09a2.07,2.07,0,0,0-2.28.35c-.1-.51-1-.35-1-.35a.94.94,0,0,0-1.45-.45c-.35-.57-1.42-.48-1.42-.48,1.83-.25,2-1.5,2-1.5a1.29,1.29,0,0,0,1.18,1c1,.1,1.14-.22,1.14-.22,2.48,1.18,1.93-.48,1.93-.48a1.81,1.81,0,0,0,2.25,0c1.55.47,1.69,0,1.69,0,.17-.3.62-.15.62-.15,1.59.36,2.14-.07,2.14-.07C207,87.25,206.87,87.09,206.87,87.09Z"/><path class="cls-10" d="M189.31,88c.62-.9,1.28-.74,1.28-.74.65,0,.58-.28.58-.28.38-1.25,2.11-.39,2.11-.39a1.82,1.82,0,0,1,2.25-.54c-.38-.55.69-.61.69-.61a.59.59,0,0,1-.49-.86,1.24,1.24,0,0,1-.42-1.37c.7-2,3.84-.94,3.84-.94,2.42-1.45,3.13.8,3.13.8a3.06,3.06,0,0,1,3,2.32,6.07,6.07,0,0,1,3.52.94s-4.83-3.12-2.08-4c0,0-1.84-2.35.49-2.35,0,0-1.55-2.81.92-3.4,0,0,.28-1.64,2.19-.85,0,0-1.48-1.7,0-3s1.55,0,1.55,0a1.28,1.28,0,0,1,1.83.26s.36-1.24,1.34-.19A2.58,2.58,0,0,1,216.08,70s1-2,2.75,0c0,0,.92-.79,1.7,1.44a1.33,1.33,0,0,1,2.32.78s1.13-1.76,1.91.33c0,0,2.05-2.42,4.09-.92,0,0,.78,1.44-.7,1.83,0,0,1.9.13.42,2.75,0,0,.63-.2.56.58l.22-.15c-.15-.68.07-1.32,1.42-1.32,0,0-1.92-3.48,1.14-4.21,0,0,.35-2,2.71-1,0,0-1.84-2.11,0-3.73s1.92,0,1.92,0a1.58,1.58,0,0,1,2.27.33s.44-1.54,1.66-.25a3.19,3.19,0,0,1,1.31-3.31s1.23-2.51,3.41,0c0,0,1.14-1,2.1,1.78a1.65,1.65,0,0,1,2.88,1s1.4-2.19,2.36.4c0,0,2.53-3,5.07-1.13,0,0,1,1.78-.88,2.26,0,0,2.36.17.53,3.4,0,0,.78-.24.7.73,0,0,4.72-3.48,4.72,1.46,0,0,2.35.32.52,3.07a1.92,1.92,0,0,1-1.14,2.43s2.71,1.86-1.83,2.75c0,0,1.57,1.06-3,2.11A1.4,1.4,0,0,1,256.9,85s2.53-1.06,3.06,1a1,1,0,0,1,1.57.32,1.49,1.49,0,0,1,2.36-.57s.41-1.69,1.56-1.29c0,0-2.09-1.13,1.24-1.7,0,0,2.13-1.61,3.18.43,0,0,2.09.49,1.46,2.27V99H195.87c-.69-.46-.1-.91-.1-.91-.17-.51.52-.57.52-.57.48-1,1.62-.39,1.62-.39.14-.35.69-.38.69-.38-.48-.13-.24-.48-.24-.48-.52-.8.68-1.09.68-1.09.2-.77,1.46-.35,1.46-.35.73-.45,1.28.35,1.28.35a1.68,1.68,0,0,1,2.18.16c.24-.58,1.21-.58,1.21-.58a.84.84,0,0,1,1.17,0c.24-.51,1.52-.6,1.52-.6l-.86-.3c-1-.29-.66-.54-.66-.54a.89.89,0,0,1-.45-.73,1.35,1.35,0,0,1-1.24,1c-1,.07-1.11-.25-1.11-.25a2.29,2.29,0,0,1-2.21.32c-.31-.19.14-.71.14-.71-1.69.9-2,0-2,0-.45.23-.63,0-.63,0-1.76.58-1.21,0-1.21,0-.48-.12-.12-.22-.07-.23a5.09,5.09,0,0,1-1.72.16,7,7,0,0,1-2.21,0,3.52,3.52,0,0,1,1.24-.8s-1.55.32-1.38-.61a1,1,0,0,1,1-.9c1.11-1.05,1.87-.29,1.87-.29.55-.28.72.1.72.1a2,2,0,0,1,2.28.35c.11-.51,1-.35,1-.35a1,1,0,0,1,1.46-.45c.34-.57,1.41-.48,1.41-.48-1.83-.25-2-1.5-2-1.5a1.29,1.29,0,0,1-1.17,1c-1,.1-1.14-.22-1.14-.22-2.49,1.18-1.94-.48-1.94-.48a1.79,1.79,0,0,1-2.24,0c-1.56.47-1.7,0-1.7,0-.17-.29-.62-.14-.62-.14-1.59.36-2.14-.07-2.14-.07C189.2,88.11,189.31,88,189.31,88Z"/></g><path class="cls-11" d="M332.18,33.17l-1.92-.83a8.68,8.68,0,0,1-2-1.12,4.16,4.16,0,0,0,3,3.08l.7.33v.13h-1.37c-1-.11-1.89-.23-2.84-.32a4,4,0,0,1-1.43-.43c-.94-.45-1.41-.1-1.36,1,0,.26,0,.51,0,.77s0,.28-.16.32-.24-.06-.32-.16a4.4,4.4,0,0,1-1-1.86c-.09-.36-.28-.42-.58-.39a1.54,1.54,0,0,0-1.32.91,3.28,3.28,0,0,1-2.47,1.75c-.44.09-.61-.13-.46-.58s.46-1.16.68-1.74a7.53,7.53,0,0,0,.33-1c.07-.31-.06-.52-.4-.46a1.63,1.63,0,0,1-1.22-.31c-.6-.39-1.08.06-1.57.34a14.36,14.36,0,0,1-2.5,1.12c-.31.07-.63.16-.94.2s-.53.14-.63-.13.19-.36.34-.51a5.8,5.8,0,0,0,.52-.47c.34-.37.29-.63-.16-.84-.16-.08-.33-.12-.5-.2s-.35-.07-.34-.28.2-.25.35-.31a14.53,14.53,0,0,1,1.95-.57,1.7,1.7,0,0,0,.6-.23.76.76,0,0,0,.26,0c.19-.06.47-.1.46-.36s-.27-.27-.48-.3a5.31,5.31,0,0,0-2.71-.15c-.13,0-.25.05-.37.07a6.19,6.19,0,0,0-1.72.35,6.76,6.76,0,0,1-4.69-.2c-.12-.4.24-.37.41-.41.7-.16,1.42-.27,2.13-.4.12,0,.25,0,.33-.1h0c.38,0,.8,0,1-.48a.38.38,0,0,0-.1-.12c-.7-.56-.7-.83,0-1.34a5.74,5.74,0,0,1,2.28-1,4.62,4.62,0,0,0,1.93-.8c.47-.34.47-.53.07-1a2.85,2.85,0,0,1-.31-.38.92.92,0,0,1-.09-1,.83.83,0,0,1,.92-.32,5.72,5.72,0,0,1,1.32.45,6.15,6.15,0,0,0,2.65.64c.24,0,.5,0,.61-.27a.55.55,0,0,0-.21-.59,43.16,43.16,0,0,0-3.57-3.2,1.47,1.47,0,0,0-1.59-.08c-.68.31-.85.25-1.31-.37-.28-.38-.52-.82-1-.9a1.23,1.23,0,0,0-1.12,0,1.78,1.78,0,0,0-.93.22,3,3,0,0,1-3.27-.54,2.4,2.4,0,0,0-2.68-.5,7.27,7.27,0,0,1-4.91,0,1.34,1.34,0,0,0-.88-.14,3.91,3.91,0,0,0-1.78-.35,2.07,2.07,0,0,0-2.18,1c-.24.42-.68.38-1.06.2s-1-.49-1.44-.75a1.34,1.34,0,0,0-1.77.18,4.84,4.84,0,0,1-1.39.93c-.17.08-.38.25-.54.06s0-.38.1-.56c.18-.4.41-.78.56-1.19a.84.84,0,0,0,0-.89.7.7,0,0,0-.86-.09.83.83,0,0,1-1.08-.36c-.7-1-1.36-.79-2.19-.25a.51.51,0,0,0-.14.83,5.83,5.83,0,0,1,.91,2.9c0,.2.06.44-.16.55s-.38,0-.54-.17a16.08,16.08,0,0,1-1.44-1.42,2.41,2.41,0,0,0-1.33-.77c-.62-.35-.93-.24-1.15.45a.84.84,0,0,1-.39.49c-.2.1-.57,0-.57.3s.29.44.56.53a9.23,9.23,0,0,0,1.23.93,3.88,3.88,0,0,1,.65.63.68.68,0,0,1,0,.56,4.18,4.18,0,0,1-2,.12,4.61,4.61,0,0,1-2.33-1.85c-.19-.26-.39-.67-.81-.45a1,1,0,0,0-.47,1.09,2.06,2.06,0,0,0,1,1.34c.18.13.45.17.56.54a18,18,0,0,1-4.17-.34,4.57,4.57,0,0,0-1.49-.72.54.54,0,0,0-.61.25c-.25.4-.39.19-.48-.11-.18-.61-.33-1.24-.52-1.85-.08-.27-.16-.65-.53-.59s-.47.42-.5.76a6.07,6.07,0,0,0,.17,1.7c.3,1.55,0,1.89-1.49,1.94h-.11c-1.34,0-1.66-.46-1.17-1.73a13.1,13.1,0,0,0,.83-2.62c0-.18.07-.38-.1-.51s-.35,0-.48.12c-1.53,1.23-2.62,2.68-2.24,4.86.2,1.17,0,1.53-1.17,1.88l-.57.16h-1.18c-.14,0-.3,0-.38-.14s.08-.26.16-.36a2.2,2.2,0,0,0,.57-1.21.81.81,0,0,0-.36-1.17,4.34,4.34,0,0,0-1.17-.33,11.85,11.85,0,0,0-1.91-.71,1.37,1.37,0,0,0-1.7.71,3.71,3.71,0,0,0-.58,1.24c-.33.13-.41.48-.6.74a18,18,0,0,1-1.49,1.66c-.6.24-.61.24-.65-.42a2.1,2.1,0,0,0-2.87-1.76,3.72,3.72,0,0,0-1.47,1.17c-.3.34-.58.71-.86,1.07a1.6,1.6,0,0,1-2,.62,1.16,1.16,0,0,0-1.57.41,2.21,2.21,0,0,0-.75.88c-.31.09-.48.37-.73.55a1.48,1.48,0,0,1-2.2-.22,7.55,7.55,0,0,1-1.25-1.87.94.94,0,0,0-1-.59c-.52,0-1,.05-1.56.09a3.52,3.52,0,0,1-2.34-.66,3.33,3.33,0,0,0-2-.66l-.59,0a24.6,24.6,0,0,1-5.94-.21c-.5-.08-1-.21-1.47-.32A4.19,4.19,0,0,1,223.12,22a1.84,1.84,0,0,0-1.09-.66,5.17,5.17,0,0,0-2.41,0,1.77,1.77,0,0,1-1.79-.62,4.31,4.31,0,0,1-.91-1.49,1.41,1.41,0,0,1,.18-1.53l-7.32,1.91a8.73,8.73,0,0,1-2.91.5,1.3,1.3,0,0,1-1.17-2,2.43,2.43,0,0,1,.3-.52,4.54,4.54,0,0,0,.9-2.73,2.34,2.34,0,0,0-2.56-2.69,6.08,6.08,0,0,0-2.63.74,12.06,12.06,0,0,1-1.67.77.85.85,0,0,1-.82-.11A7.25,7.25,0,0,1,196.74,10a1.12,1.12,0,0,1,.76-1.48,2.77,2.77,0,0,1,.89-.18c1.08,0,2.16,0,3.24.05a20.22,20.22,0,0,0,4.26,0,2.62,2.62,0,0,0,2.38-1.91,2.69,2.69,0,0,1,2-1.91c.94-.26,1.93-.25,2.86-.51a30.74,30.74,0,0,1,5-1A7.56,7.56,0,0,0,224-.62a5.75,5.75,0,0,1,.56-.74,1.21,1.21,0,0,1,1.59-.4,9.1,9.1,0,0,1,1.57,1,9.92,9.92,0,0,0,4,1.81c1.65.28,3-.08,3.69-1.94a3.25,3.25,0,0,1,1.94-1.88,7.62,7.62,0,0,1,1.81-.51,21.44,21.44,0,0,0,4.25-1.56,45.6,45.6,0,0,0,5-1.89,3.16,3.16,0,0,0,1.85-1.64c.41,3.24,3.29,4.18,6,3.5a2.65,2.65,0,0,0-.4-.64,10.76,10.76,0,0,1-.68-1.07c-.35-.7-.15-1.12.61-1.27a3.45,3.45,0,0,1,1.24,0,2.06,2.06,0,0,1,1.5,1.37,2,2,0,0,0,1.57,1.37,15.28,15.28,0,0,0,5.31-.1,2,2,0,0,0,1.66-1.53A5,5,0,0,1,267.6-8c.45-.76,1-.86,1.63-.25a6.8,6.8,0,0,1,.78.91A16.37,16.37,0,0,0,272.08-5a2,2,0,0,0,2.81.12,6,6,0,0,0,1-1c.28-.33.55-.68.85-1a2.06,2.06,0,0,1,3.3,0c.34.36.65.75,1,1.09a2.51,2.51,0,0,0,1.84.79,4.63,4.63,0,0,0,3.36-1.24A2.73,2.73,0,0,1,289-7c-.44.09-.94,0-1.06.55s.29.76.6,1a9,9,0,0,0,2.31,1.51c1.37.61,2.12.18,2.37-1.34a2.56,2.56,0,0,0,0-.39c0-.66.06-1.32.12-2,0-.26,0-.6.31-.72s.5.14.7.31A8,8,0,0,1,296-5.84a1.69,1.69,0,0,0,2,1,6.66,6.66,0,0,0,2.61-1c.6-.36,1.19-.76,1.8-1.11,1.16-.65,1.82-.39,2.31.88a4.42,4.42,0,0,1,.22.79c.09.59.16,1.17.23,1.76.14,1.15.54,1.47,1.65,1.32l.43-.08c1.58-.35,3.12-.84,4.66-1.33a.52.52,0,0,1,.43,0c-.22.16-.4.27-.57.41s-.57.36-.44.73.48.36.78.37a10.77,10.77,0,0,0,2.2-.18c.7-.11,1.39-.2,2.09-.28.33,0,.43.12.24.43a5.51,5.51,0,0,0-.36.68c-.34.75-.14,1.19.65,1.39.31.08.64.11.95.18s.39.2.23.51c-.31.6-.22.83.35,1.14a2.9,2.9,0,0,0,.87.3l1.91.31a1.1,1.1,0,0,1,1,.94,2.49,2.49,0,0,0,.66,1.25c.37.41.62.36.84-.13a4.73,4.73,0,0,1,.68-1.25c.2-.22.37-.22.46.11s.09.47.16.69c.15.42.29.9.81.93s.58-.48.74-.83a5.9,5.9,0,0,1,.9-1.63c.24-.26.55-.45.84-.15a3.85,3.85,0,0,0,2,.92l.89.25c.07,0,.18,0,.18.17s-.09.15-.17.19c-.26.12-.53.21-.79.34s-1,.28-1,.81.57.52.94.7c.15.08.38.11.4.33s-.2.33-.37.42a9,9,0,0,1-2.16.67c-.68.15-.78.48-.31,1a1.55,1.55,0,0,0,.88.51,5,5,0,0,0,1.29.11,18.11,18.11,0,0,1,2.85.1c.16,0,.36,0,.41.21s-.15.26-.27.35c-.52.42-.51.84.06,1.22a2.56,2.56,0,0,0,.86.33,6.78,6.78,0,0,0,3.33-.43A13.61,13.61,0,0,1,339.3,10c.31-.05.53,0,.42.41a.65.65,0,0,0,.41.85c.38.2.79.35,1.18.53.18.08.5.09.48.35s-.33.23-.52.31c-.5.19-1,.35-1.52.55-.18.07-.4.16-.41.39s.2.34.38.44a12.52,12.52,0,0,0,2.34,1,8.54,8.54,0,0,1,1.73.75c.25.14.34.3.11.55A7.52,7.52,0,0,1,341.64,18c-.73.32-.72.51-.16,1.09.07.07.19.13.17.26s-.18.16-.29.19a8.18,8.18,0,0,1-1.56.1,25.33,25.33,0,0,0-3,.09c-.13,0-.32,0-.33.21s.13.2.24.27A12.06,12.06,0,0,0,340,21.72a2.6,2.6,0,0,0,2.36-.39,6.76,6.76,0,0,1,1.07-.62,2.19,2.19,0,0,1,2.45.14,2.56,2.56,0,0,0,1.31.44,8.87,8.87,0,0,0,2.56-.33c.19,0,.41-.14.56,0s0,.38-.06.56-.15.37-.21.57c-.22.72,0,1.13.77,1.24.41,0,.83.07,1.24.11a7.69,7.69,0,0,1,2,.26c1.06.41,1.76,1.16,1,2.41-.11.19-.21.39-.3.58-.43.87-.3,1.2.6,1.46a15.5,15.5,0,0,1,3.22,1.23,3.3,3.3,0,0,1,1,.73.75.75,0,0,1-.15,1.25,2,2,0,0,1-1.61.18c-.44-.09-.87-.23-1.31-.33-.69-.16-.94.05-.92.79a8.25,8.25,0,0,0,.13,1.1c.23,1.44-.13,2-1.55,2.17a25.26,25.26,0,0,1-3,.24,7.61,7.61,0,0,0-4.89,1.58,3,3,0,0,1-1.44.6,1.77,1.77,0,0,1-2.14-1.3,5.17,5.17,0,0,1-.06-2.25,3.17,3.17,0,0,0,.09-1.19c-.59,1.07-1.13,2.15-1.69,3.22a8.09,8.09,0,0,1-1.45,2.11,1.39,1.39,0,0,1-2.07-.13c-.46-.41-.44-.91.08-1.61a12.39,12.39,0,0,1,1.33-1.38c.66-.65.57-1.17-.27-1.55a8.88,8.88,0,0,0-2.2-.58,5.49,5.49,0,0,1,.66,1.33c.12.46,0,.62-.48.57a4.31,4.31,0,0,1-1.1-.42c-.38-.14-.7-.45-1.15-.4A6.44,6.44,0,0,0,332.18,33.17ZM301,12.29a6.87,6.87,0,0,1-1.87.05c-.55-.07-.75-.28-.77-.86,0-.86.27-1.7.2-2.57a3.17,3.17,0,0,0,0-.44c-.14-.74-.68-1-1.48-.84-1.11.28-2.19.71-3.33.9a4.76,4.76,0,0,1-2.28-.13,1.13,1.13,0,0,1-.83-1.57,6.67,6.67,0,0,1,1-1.94c.09-.14.2-.26.28-.4s.42-.48.26-.73-.57-.17-.85-.09a17.39,17.39,0,0,0-5,2.68c-.75.54-1.36,1.26-2.07,1.84a4.59,4.59,0,0,1-1.41.8,5,5,0,0,0-2.65,2.06,1.56,1.56,0,0,0-.16.28.8.8,0,0,0,0,.75c.17.24.47.16.7.1a3.77,3.77,0,0,1,1.05-.21,2,2,0,0,1,1.42.43c1.21,1.11,2.58,1,4,.73a5.93,5.93,0,0,1,2.41,0,.82.82,0,0,1,.66.59,2.4,2.4,0,0,0,3.72,1.19,4.91,4.91,0,0,1,5.68.09,2.79,2.79,0,0,0,2.58.19,17.76,17.76,0,0,0,2.35-1,3.44,3.44,0,0,1,3.4.11,4.74,4.74,0,0,0,3,.76c1.24-.19,2.47-.43,3.7-.65.15,0,.33-.07.36-.28s-.13-.29-.26-.38A6.58,6.58,0,0,0,313,13a18.79,18.79,0,0,0-3.67-1.06c-.88-.11-1.76,0-2.63-.06A32.72,32.72,0,0,0,301,12.29ZM237.26,7.36c-.27.92.05,1.47,1,1.53a5.65,5.65,0,0,0,4.31-1.32,3.14,3.14,0,0,0,1.06-2.18,2.31,2.31,0,0,1,2.58-2.5,21.71,21.71,0,0,1,6.1.8c.52.15.77-.06.69-.62-.12-.83-.27-1.66-.45-2.48-.09-.45-.54-.44-.87-.5-1.23-.23-2.48,0-3.7-.2a2.65,2.65,0,0,0-2.65,1.34,6.42,6.42,0,0,1-1.41,1.44,3.29,3.29,0,0,1-2.68.4c-.86-.19-1.71-.4-2.57-.56a2.92,2.92,0,0,0-2.33.64c-.7.5-1.4,1-2.12,1.5a2.88,2.88,0,0,0-1.26,2.43c0,1-.29,1.15-1.25,1a5.11,5.11,0,0,1-3.16-1.5,7.5,7.5,0,0,1-1-1.4,6.15,6.15,0,0,0-.45-.68c-.37-.44-.57-.41-.84.1a12.41,12.41,0,0,0-1.12,4.18,1.35,1.35,0,0,0,.78,1.39c.89.52,1.81,1,2.71,1.49a11.44,11.44,0,0,1,1.27.82,4,4,0,0,0,4.64-.18,2,2,0,0,0,1-1.81,6.65,6.65,0,0,1,1.75-3.62C237.4,7.06,237.3,7.21,237.26,7.36ZM252.72,9a13.16,13.16,0,0,1,5.94.6,5,5,0,0,1,1.9,1.83A14.07,14.07,0,0,0,262,13c.62.56,1.18.48,1.43-.29a2.72,2.72,0,0,1,2.43-1.88c1.74-.33,3.52-.39,5.27-.6a26.12,26.12,0,0,0,5.3-1.15,2.93,2.93,0,0,0,.44-.21c.93-.48,1.07-.91.61-1.85a2.8,2.8,0,0,1-.15-.3c-.62-1.59-1.38-1.42-2.63-1A13.93,13.93,0,0,0,272,7.19a3.78,3.78,0,0,1-1.53.65A1.55,1.55,0,0,1,269,7.08a12.94,12.94,0,0,1-1.15-2.44c-.62-1.48-1.49-1.75-2.93-1.14A7.17,7.17,0,0,0,262,6.26a2.61,2.61,0,0,1-.19.27c-.52.62-.89.61-1.37,0-.19-.25-.35-.51-.52-.78a.76.76,0,0,0-1-.32,2.41,2.41,0,0,0-1.38,1.24c-.53,1.17-.9,1.41-2.18,1.16a19.4,19.4,0,0,0-4.67-.64,4.17,4.17,0,0,1-1.77-.44,2.13,2.13,0,0,0-2.38.12A1.18,1.18,0,0,0,246.69,9a3.77,3.77,0,0,0,2.09.42C250.21,9.43,251.45,9.06,252.72,9Zm-13.25,12.1a1.26,1.26,0,0,1,.39.37c1,1.44,2.43,1.52,3.79,1.33a1.69,1.69,0,0,0,1.18-.8c.82-1.29,2.1-1.44,3.42-1.34.67,0,1.33,0,2,0a.74.74,0,0,0,.74-.46.84.84,0,0,0-.26-.9,2.31,2.31,0,0,0-1.74-.84,3.79,3.79,0,0,1-1.63-.54,1.67,1.67,0,0,0-1.82,0c-.55.35-1,.17-1.34-.46a4.18,4.18,0,0,1-.1-3.62,4.08,4.08,0,0,0,.23-.67c.16-.75-.24-1.15-1-.93a3.26,3.26,0,0,0-1.29.86c-1.21,1.18-2.12,2.65-3.35,3.81a2.48,2.48,0,0,1-.58.49c-.55.28-.8.13-.85-.49-.06-.78.14-1.54.1-2.32,0-.15.07-.37-.12-.44s-.29.16-.38.31c-.58,1-.95,2.06-1.43,3.09a1.22,1.22,0,0,1-1.68.82,10.17,10.17,0,0,1-2.52-1.07A11.32,11.32,0,0,0,227.67,16a9.08,9.08,0,0,0-1.88,0c-.32,0-.46.18-.16.49a13.75,13.75,0,0,0,2,1.53c1.17.79,2.3,1.62,3.4,2.52a3.41,3.41,0,0,0,3.86.58,5.26,5.26,0,0,1,2.58-.44A2.94,2.94,0,0,1,239.47,21.08Zm105.22,7.37a1.29,1.29,0,0,1-1.37.1c-1-.5-1.32-.41-1.92.59-.23.4-.45.8-.69,1.19-.41.65-.8.66-1.24,0a11.22,11.22,0,0,1-1.16-2.54l-.72-1.91c-.18-.47-.48-.79-1-.71-.37.05-.7.58-.74,1.11a4.8,4.8,0,0,0,.44,2.42,4.71,4.71,0,0,1,.33,1c.09.48-.13.68-.59.54a7.7,7.7,0,0,1-1.19-.5,12.46,12.46,0,0,0-2.63-1.26c-.93-.24-1.52.33-1.27,1.28.28,1.11.53,1.78,2.12,1.77a16.51,16.51,0,0,0,2.88-.33,1.39,1.39,0,0,1,1.46.45c.42.5.86,1,1.32,1.45s1,.52,1.39-.19a1.21,1.21,0,0,1,1.6-.61c.4.12.77.3,1.17.41a1.13,1.13,0,0,0,1.43-.39,1.44,1.44,0,0,1,1.83-.24,2.47,2.47,0,0,1,1.09,1,1.51,1.51,0,0,0,1.28.79,8.79,8.79,0,0,0,2.89-.18c.29-.07.28-.17.09-.35a1.91,1.91,0,0,1-.52-.76,1.12,1.12,0,0,1,.38-1.41c.58-.44.68-.75.29-1.35-.64-.94-1.41-1.5-2.49-1.12a2.4,2.4,0,0,1-3.08-1.92C345.57,27.35,345.32,28.05,344.69,28.45ZM213.08,16.34a15.51,15.51,0,0,0,1.67,0,2.92,2.92,0,0,0,1.63-.65,4.1,4.1,0,0,1,2-.93,1.9,1.9,0,0,1,1.23.32,4.55,4.55,0,0,0,3.15.65,1.88,1.88,0,0,0,1.15-.56,1.2,1.2,0,0,0,0-1.73,4.9,4.9,0,0,0-2-1.13,22.18,22.18,0,0,0-3.85-1,3.74,3.74,0,0,1-2.77-2.07,5.87,5.87,0,0,0-1.12-1.75,1.77,1.77,0,0,0-2-.31,5.68,5.68,0,0,0-1.59,1.21c-.92.91-1.92,1.71-2.88,2.56a4.22,4.22,0,0,0-.8.89c-.22.36-.12.52.26.54a6.93,6.93,0,0,0,1.8-.31,9.77,9.77,0,0,1,3.88-.29,2.53,2.53,0,0,1,.89.38.89.89,0,0,1,.4,1.18,5.8,5.8,0,0,1-1.27,2,2.08,2.08,0,0,1-1.38.52c-.27,0-.54,0-.8,0A7.91,7.91,0,0,0,213.08,16.34ZM295-.49a5.83,5.83,0,0,1,2.39.54,1.44,1.44,0,0,1,.8,1.88,11,11,0,0,1-.44,1.13c-.41,1,0,1.58,1.27,1.46s2.67-.68,4-.93A2.06,2.06,0,0,1,305.64,5c.41,1.52,1.2,1.62,2.38,1.65a6.9,6.9,0,0,0,3.62-.87c.23-.13.53-.22.53-.56s-.3-.43-.54-.55l-.19-.1c-1-.36-.92-1-.13-1.68A11.25,11.25,0,0,0,313.54.71a.91.91,0,0,0,.19-.88c-.15-.34-.49-.31-.8-.32a5.53,5.53,0,0,0-3.27.92,1.3,1.3,0,0,0-.43.41,2.17,2.17,0,0,1-2.06,1,17.74,17.74,0,0,0-3.76.59,1.59,1.59,0,0,1-.2.07c-.89.06-1.33.2-1.45-1a4.37,4.37,0,0,0-3.92-3.69.92.92,0,0,0-.72.14c-.85.78-2,.7-2.94,1.09a1.94,1.94,0,0,0-.86.45C294-.49,294.47-.52,295-.49Zm41.49,14.41c-.57,1.07-1.29,1.46-2.34.59a1.36,1.36,0,0,0-1.39,0,24.48,24.48,0,0,0-2.52,1.36,1.45,1.45,0,0,1-1.91-.3,27.1,27.1,0,0,1-1.83-2.16,5.32,5.32,0,0,0-1.25-1,1.19,1.19,0,0,0-.94-.13c-.53.14-.65.49-.38,1,.5.85,1,1.71,1.53,2.66a7,7,0,0,0-3.9,1.13,8.15,8.15,0,0,0-1,.65c-.47.37-.4.86.15,1.12a3.9,3.9,0,0,0,1.46.31,12.39,12.39,0,0,0,3.54-.2,2.93,2.93,0,0,0,.81-.3c1.35-.83,2.09-.25,2.9.77a4.7,4.7,0,0,1,.79,1.8c.06.28.14.55.43.66s.53-.13.73-.35a22.55,22.55,0,0,0,2.15-3.16c.29-.43.56-.86.84-1.29a2.64,2.64,0,0,1,2.07-1.31c.21,0,.41-.06.32-.3-.2-.57,0-1.13,0-1.81A4.33,4.33,0,0,0,336.47,13.92ZM282.87-1.53c-.83,0-1-.22-.87-1.06.09-.65-.34-1-1.05-.9a8.15,8.15,0,0,0-1.67.41A14.91,14.91,0,0,1,273.12-2c-.32,0-.64,0-1,0A22.77,22.77,0,0,1,273,.64a2.93,2.93,0,0,0,3.39,1.67,1.79,1.79,0,0,0,1.08-1c.2-.39.4-.78.61-1.16a1.2,1.2,0,0,1,1.71-.67,16.62,16.62,0,0,1,2,1,6.36,6.36,0,0,0,3,.9A1.52,1.52,0,0,0,286.15.4,14.08,14.08,0,0,1,287.73-2,19.48,19.48,0,0,1,282.87-1.53Zm-10.95-.76c-.17-.27-.36-.56-.71-.61s-.45,0-.53.27.15.39.35.45.46.09.72.15S272-2.1,271.92-2.29Zm66,18.69a.18.18,0,0,0,.21-.13c0-.05-.05-.13-.1-.18a1.67,1.67,0,0,0-1.14-.38C337.07,16.23,337.49,16.31,337.9,16.4Z"/><path class="cls-12" d="M248.41,29.71c.45.42.9.85,1.34,1.29a7.72,7.72,0,0,1,2.56,5.46,3.56,3.56,0,0,0,2.89,3.59c.36.09.72.23,1.09.29a3.51,3.51,0,0,1,1.74.92,36.34,36.34,0,0,1,4.25,4.93c1.27,1.64,2.5,3.33,3.8,5,.79,1,.79,1.2,1.64-.13a3.19,3.19,0,0,0,0-3.68,3.67,3.67,0,0,0-.9-1,5,5,0,0,1-1.9-4.3,28.5,28.5,0,0,1,.34-4.23,7.11,7.11,0,0,0,0-1.38c0-.4-.24-.57-.57-.37a2.86,2.86,0,0,1-2.83-.06,17.48,17.48,0,0,1-4.66-3.26c-.21-.2-.4-.42-.62-.61a6.83,6.83,0,0,1-2.39-5.34c0-.5-.07-1-.12-1.49a18,18,0,0,0,1.49-1.66c.19-.26.27-.61.6-.74.1,1.47.05,2.94.29,4.41a9.36,9.36,0,0,0,1.84,4.63,3.72,3.72,0,0,0,3.44,1.57c1.27-.15,1.65-1,.92-2.12a14.25,14.25,0,0,1-2-5.44,17.6,17.6,0,0,1-.33-4.29,4.34,4.34,0,0,1,1.17.33l.36,1.17a2.2,2.2,0,0,1-.57,1.21c-.08.1-.25.19-.16.36s.24.14.38.14h1.18A34.79,34.79,0,0,0,265,28.61a10.43,10.43,0,0,1,2,6,8.22,8.22,0,0,1-.49,2.7,2.81,2.81,0,0,0,0,2,15.94,15.94,0,0,0,5,6.69,2.89,2.89,0,0,0,.51.31c.76.38,1.08.26,1.39-.55a3.32,3.32,0,0,1,1.34-1.61,11.94,11.94,0,0,1,1.55-.89,5.18,5.18,0,0,0,3.15-5.44,14.78,14.78,0,0,0-1.3-5.71,7.61,7.61,0,0,0-1.05-1.73,3,3,0,0,0-1.33-1c-3.54-1.29-4.73-4.12-4.34-7.62,0-.42.13-.84.19-1.26a4.57,4.57,0,0,1,1.49.72,4.06,4.06,0,0,0,3.63,4.11,1.72,1.72,0,0,0,1.68-1,7.58,7.58,0,0,0,.84-2.71c0-.26.08-.51.11-.76a4.18,4.18,0,0,0,2-.12,11.54,11.54,0,0,1-1.1,4.33,11.65,11.65,0,0,0-1,2.26,7.54,7.54,0,0,0,.4,4.33,21.91,21.91,0,0,0,2.93,5.13l1.58,2.17a.9.9,0,0,0,1.43.27,2.47,2.47,0,0,0,.49-.42,7.81,7.81,0,0,0,2-5.54,22,22,0,0,0-.57-2.63,25.63,25.63,0,0,1-.43-7.21,3.34,3.34,0,0,1,1.25-2.36,12.9,12.9,0,0,1,2.34-1.46c1.7-.86,3.24-2,4.91-2.92a3.91,3.91,0,0,1,1.78.35c-.43,2.44-1.87,3.8-4.55,4.3a7.47,7.47,0,0,0-1.86.53,4.76,4.76,0,0,0-2.84,5c.12,1.11.21,1.45.57,1.89.28-1.13,1.17-1.45,2.09-1.86,1.77-.78,3.66-.61,5.49-.88a6.65,6.65,0,0,0,2-.59,2.24,2.24,0,0,0,1.31-1.71,2.08,2.08,0,0,1,1.18-1.61,7.3,7.3,0,0,1,3-.78c1.85-.15,3.7-.24,5.54-.38,1.15-.09,1.47-.59,1.14-1.74-.11-.39-.27-.76-.41-1.13a1.23,1.23,0,0,1,1.12,0,31,31,0,0,1,1.3,3.09c.38,1.12.07,1.68-1.06,1.91a12,12,0,0,1-3.38-.06,30.18,30.18,0,0,0-4.14-.26,5,5,0,0,0-1.22.2,1.6,1.6,0,0,0-1.23,1.43,3.5,3.5,0,0,1-3.44,3.06,27.6,27.6,0,0,1-3.4.12,2.32,2.32,0,0,0-1.63.6,10,10,0,0,0-2.9,5.06,1.71,1.71,0,0,0,0,.39q0,.49.39.21a24.44,24.44,0,0,1,5.56-2.76,18.09,18.09,0,0,1,5.56-1.43,4.62,4.62,0,0,1,1.17.13,5.78,5.78,0,0,0,3-.14,6.76,6.76,0,0,0,4.69.2,6.19,6.19,0,0,1,1.72-.35,7,7,0,0,1-3.45,1.55,20.4,20.4,0,0,1-6.38.4,9.88,9.88,0,0,0-4,.71,16.08,16.08,0,0,0-4.71,2.38,3.68,3.68,0,0,0-1,1.12c-.37.68-.15,1.15.61,1.24a7.39,7.39,0,0,0,2.1,0c1.08-.17,2.16-.36,3.25-.5.28,0,.75-.18.83.09s-.34.55-.64.69c-1.7.83-3.46,1.52-5.2,2.26a1.84,1.84,0,0,0-.47.26c.57.08,1.14,0,1.7.09a7.38,7.38,0,0,1,3.7,1.4c3.06,2.36,6.26.86,8.06-1.35a3.71,3.71,0,0,1,2-1.3c1.16-.31,2.33-.59,3.49-.9a7.47,7.47,0,0,0,.87-.3c.42-.16.67-.37.5-.95a3.79,3.79,0,0,1,.22-1.78c.07-.33.17-.64.25-1a14.36,14.36,0,0,0,2.5-1.12,12.72,12.72,0,0,0-.66,3.22,5.83,5.83,0,0,0,0,.94,1.14,1.14,0,0,0,.61,1,33.62,33.62,0,0,0,4.77,1.85,6.24,6.24,0,0,0,.85.13,1.35,1.35,0,0,0,1.15-.48,11.87,11.87,0,0,1,6.38-4,2.12,2.12,0,0,0,1-.43h1.37v-.13l-.7-.33,1-1.13a6.44,6.44,0,0,1,2.2,1c-.55.34-1.09.71-1.66,1a26.44,26.44,0,0,0-4.54,3.14,32.89,32.89,0,0,1-5.09,3.59,2.42,2.42,0,0,1-2.55,0c-.85-.44-1.65-1-2.47-1.45a10.1,10.1,0,0,0-4.39-1.71,5.23,5.23,0,0,0-5,2.07s-.1,0-.06.09.08,0,.13,0a4.07,4.07,0,0,1,2.76,1,6.29,6.29,0,0,1,2.26,6,29.14,29.14,0,0,0-2.11-3.76,2.71,2.71,0,0,0-2.33-1.25,9.73,9.73,0,0,0-3.84.71,19,19,0,0,1-3.37,1,1.91,1.91,0,0,1-1.56-.15c-.81-.6-1.66-1.17-2.5-1.74-.31-.21-.66-.59-.95-.56s-.35.61-.55.93c-.05.07-.09.16-.14.24-.23.33-.39.87-.87.78s-.45-.66-.53-1-.1-.36-.38-.36a29.15,29.15,0,0,0-7.39.71A10.7,10.7,0,0,0,283,45.35a18.37,18.37,0,0,0-1.29,1.49c-.72.71-1.09.65-1.5-.28a.18.18,0,0,0-.07-.05A10.31,10.31,0,0,1,275,50.78c-2.06.94-1.31,2.79-1.64,5.06-.14,1,.06,1.94,0,2.92-.31,6.31-.38,12.62-.41,18.93,0,6.94-.09,27.39.1,34.33a3,3,0,0,0,1.21,2.36c.66.53-.45.66.34.92-.06.13-.13.12-.23.11a15.89,15.89,0,0,0-2.58-.15c-.39,0-.65,0-.42.61a2.44,2.44,0,0,1-.48,2.57,5.15,5.15,0,0,0-1.47-1.36c-1.47-1.11-1.47-1.1-3,0-.57.42-1.15.81-1.74,1.2-.1.06-.23.15-.35.06s0-.23,0-.35a4,4,0,0,0,.16-1.14c0-.93,0-.93-.88-.75-.16,0-.32.07-.48.09a4.42,4.42,0,0,1-2.44-.06,4.52,4.52,0,0,0,2.56-3.37c.63-2.38,1-18.34.9-20.77-.05-1.92-.24-3.83-.2-5.76a93.84,93.84,0,0,1,1.38-12.73,53.74,53.74,0,0,0,.18-13.29c-.23-2.52-1.68-3.71-4.16-3.59-3.37.18-6.73.66-10.1.9a8.86,8.86,0,0,1-4.56-.42,6.73,6.73,0,0,0-1.35-.37,46,46,0,0,0-12.51-.66,43.54,43.54,0,0,1-10-.22,13.16,13.16,0,0,1-6.11-2.57A9.87,9.87,0,0,0,214.71,52a41.84,41.84,0,0,0-6.05-2c-2.09-.56-4.2-1.09-6.3-1.63a1.6,1.6,0,0,1,.65-.84.92.92,0,0,1,1.53.62c.09.39.23.35.46.13a4.56,4.56,0,0,0,.9-1.28,1.45,1.45,0,0,1,.37-.54l1.13.1.36.11c.81.22.9.4.49,1.14-.19.35-.11.43.26.43.86,0,1.09-.29,1.09-1.44l.76.11c.37.36.82.16,1.24.2a19.09,19.09,0,0,1,5.51,3.05,16.88,16.88,0,0,0,7.82,2.87,66.56,66.56,0,0,0,11.46.59,41.61,41.61,0,0,0,4.53-.41,7.81,7.81,0,0,0-1.85-.61c-2.71-.69-5.46-1.26-7.86-2.87a55.73,55.73,0,0,1-5.38-4.06c-.44-.38-.87-.78-1.3-1.17a1.93,1.93,0,0,1,.42.06,4.2,4.2,0,0,0,2.25.12,70.43,70.43,0,0,0,11.45,6,54.9,54.9,0,0,0,11.26,3.08,16.52,16.52,0,0,0,5.78-.2c2.15-.4,4.33-.67,6.45-1.27,1.39-.39,1.39-.41.5-1.54a48.17,48.17,0,0,0-3.54-3.88c-1.22-1.25-2.46-2.49-3.6-3.82a7,7,0,0,0-3.88-2,39.75,39.75,0,0,0-6.23-1c-1.93-.2-3.77-.58-5.2-2.08a45.63,45.63,0,0,1-3.05-3.88,1.47,1.47,0,0,0-2.41-.26c-.46.37-.87.81-1.31,1.21-.37-.18-.73,0-1.09,0a8.72,8.72,0,0,1-1,.06c-.15,0-.37,0-.35-.18.1-.67-.31-.28-.49-.26s-.6.25-.94.21l-1.42-1c-.16-.49-.19-1-.7-1.35a1.39,1.39,0,0,0,0-1.27,8,8,0,0,0-.95-1.6q-1.38-1.84-2.79-3.66a3.85,3.85,0,0,1-.75-2.09,7.3,7.3,0,0,1,.23-2.08,4.19,4.19,0,0,0,1.73,1.42,35.69,35.69,0,0,0,7.06,8,3.29,3.29,0,0,0,1,.58c.27.09.43,0,.41-.32a1.56,1.56,0,0,0-.08-.48,14.68,14.68,0,0,1-1-7.24l.59,0a9.15,9.15,0,0,0,1.63,3.45,45.67,45.67,0,0,0,6.68,7.34c1.1,1,2.23,2,3.34,3a2.17,2.17,0,0,0,1.21.55,3.59,3.59,0,0,0,3.94-2.43,3,3,0,0,0-.24-2,15.15,15.15,0,0,0-2.53-3.56c-.93-1.07-1.95-2.06-3-3.06a2.21,2.21,0,0,1,.75-.88C245.86,27.55,247.18,28.58,248.41,29.71Zm44.52,10.1a.18.18,0,0,0,.09,0l-.09,0s-.05,0-.08,0S292.91,39.82,292.93,39.81Z"/><path class="cls-13" d="M233.26,35.38c-.27.52-.2.71.37.86.23.06.54,0,.33.45-.1.2.09.34.26.42a1.78,1.78,0,0,0,.72.18c.51.05.95.18,1.05.81a.51.51,0,0,0,.36.45c.26,0,.22-.28.32-.43s.13-.3.32-.4c.17.17.13.43.24.62s.14.27.32.26.2-.13.26-.24.11-.31.18-.46c.29-.63.36-.66,1-.31.36.21.81.16,1.14.43a2.17,2.17,0,0,1-.33.19c-.71.34-.72.35-.11.8.22.16.14.27,0,.35s-.61.22-.92.32c-.11,0-.27,0-.3.17a.42.42,0,0,0,.17.39,1.16,1.16,0,0,0,.81.23,4.68,4.68,0,0,1,1.58.12c0,.26-.43.33-.23.63a.9.9,0,0,0,.71.35,4.64,4.64,0,0,0,1.83-.4c.27-.08.5-.23.58.29s.61.37.94.63c-.26.26-.59.26-.87.4s-.32.34,0,.48c.5.24,1,.45,1.54.66.34.14.41.3.12.59a4.47,4.47,0,0,1-.63.6c-.24.17-.72.22-.3.74.13.16-.16.17-.28.18-.54,0-1.08,0-1.62,0-.19,0-.55-.05-.23.36.13.17,0,.31-.18.41a6.83,6.83,0,0,1-2,.87c-.26.09-.26-.24-.46-.29-.72-.15-1.43-.33-2.15-.5-.16,0-.27.07-.4.13a7,7,0,0,1-1.55.45,2.12,2.12,0,0,1-2.16-.67,10.21,10.21,0,0,0-.74-.73.72.72,0,0,0-.85-.16.46.46,0,0,1-.67-.22.81.81,0,0,0-1.12-.36,1.58,1.58,0,0,1-1.93-.32.77.77,0,0,0-1.08,0A4.2,4.2,0,0,1,225,44.6a1.93,1.93,0,0,0-.42-.06c-.63-.19-1.25-.38-1.73.32-.12.19-.32.15-.49.07s-.41-.23-.61-.35a.6.6,0,0,0-.83.09,2.43,2.43,0,0,1-.3.24c-.16.1-.36.33-.51.21s.05-.35.12-.52c.28-.64.22-.75-.41-.75a.54.54,0,0,1-.43-.28c-.26-.34-.54-.28-.86-.09s-.12.43,0,.65a3.37,3.37,0,0,1,.3,1.17.31.31,0,0,1-.06.24c-.1.08-.21,0-.29-.06-.25-.26-.49-.54-.76-.78s-.5-.4-.77-.29-.31.49-.6.65c-.07,0,.08.17.16.23s.44.32.64.5.33.24.25.44-.32.21-.51.2a1.79,1.79,0,0,1-1.3-.68c-.15-.18-.23-.71-.6-.38s-.13.67.15,1c.1.1.22.19.43.36a4.3,4.3,0,0,1-2.16-.26c-.23-.12-.46-.36-.77-.08s-.19-.1-.22-.19c-.08-.25-.12-.5-.19-.75s-.09-.32-.27-.29-.21.21-.2.35c0,.33.05.66.09,1s.06.52-.18.7c-.42,0-.87.16-1.24-.2.06-.59.38-1.11.49-1.69,0-.12.08-.29,0-.36s-.26.05-.35.14a2.17,2.17,0,0,0-.88,1.8c0,1.15-.23,1.43-1.09,1.44-.37,0-.45-.08-.26-.43.41-.74.32-.92-.49-1.14l-.36-.11c-.36-.2-.72-.51-1.13-.1a1.45,1.45,0,0,0-.37.54,4.56,4.56,0,0,1-.9,1.28c-.23.22-.37.26-.46-.13a.92.92,0,0,0-1.53-.62,1.6,1.6,0,0,0-.65.84c-.34.33-.67.58-1.19.36-.29-.13-.49.1-.68.32-1,1.11-1.33,1.08-2-.24a.71.71,0,0,0-.81-.44,2,2,0,0,1-1.5-.27,1.84,1.84,0,0,0-1.27-.35,18.87,18.87,0,0,1-2,0,2.33,2.33,0,0,1-1.8-.6,1.71,1.71,0,0,0-1.7-.7,1.27,1.27,0,0,1-1.46-1.27c0-.42-.11-.38-.41-.3-1.2.34-2.4.65-3.6,1a.85.85,0,0,1-1-.25c-.23-.35,0-.7.17-1a2.19,2.19,0,0,0,.3-1.69,1,1,0,0,0-1-.84,2.87,2.87,0,0,0-1.53.47c-.74.39-.83.37-1.36-.26a3.79,3.79,0,0,1-.3-.4c-.25-.38-.55-.81-.33-1.27s.74-.38,1.17-.38c.9,0,1.79.15,2.69.09a1.32,1.32,0,0,0,1.35-1,1.19,1.19,0,0,1,.93-.9c.93-.22,1.85-.46,2.79-.59A4.11,4.11,0,0,0,191.18,36c.5-.85.71-.86,1.5-.28a5.74,5.74,0,0,0,1.8,1,1.37,1.37,0,0,0,1.91-.9,1.66,1.66,0,0,1,1.21-1,40.3,40.3,0,0,0,4.14-1.54,2.51,2.51,0,0,0,1.37-.92c.62,1.48,1.54,2,2.72,1.51-.15-.25-.32-.49-.45-.75s-.06-.59.36-.64a1,1,0,0,1,1.13.61,1,1,0,0,0,.81.73,12.47,12.47,0,0,0,1.62,0,1.51,1.51,0,0,0,1.62-1.2c.2-.73.59-.75,1.05-.15a10.71,10.71,0,0,0,1,1.29.91.91,0,0,0,1.43.05,10.38,10.38,0,0,0,.69-.78c.57-.65,1.1-.65,1.67,0a1.68,1.68,0,0,0,2.77.16,1.14,1.14,0,0,1,1-.37c-.48.2-.36.46-.11.7a3.73,3.73,0,0,0,1.21.83c.54.21.79.06.94-.52a6.48,6.48,0,0,0,.09-1.16c0-.18,0-.41.18-.48s.29.13.4.24a3.59,3.59,0,0,1,.59.85c.34.61.57.71,1.24.54a3.41,3.41,0,0,0,1-.48,5.49,5.49,0,0,1,1.27-.71c.51.3.54.86.7,1.35a.43.43,0,0,0,0,0c0,1.2.34,1.41,1.43.92.34,0,.62-.18.94-.21s.59-.41.49.26c0,.15.2.18.35.18a8.72,8.72,0,0,0,1-.06c.36-.06.72-.23,1.09,0Zm-46.17,7a9.48,9.48,0,0,0,2.71-.19,13.28,13.28,0,0,1,4.49.06,4.06,4.06,0,0,1,2.41,1.91,7.34,7.34,0,0,0,.89,1c.36.33.84.28,1-.17.38-1.26,1.41-1.4,2.43-1.54a48.24,48.24,0,0,0,6.31-.93,10.33,10.33,0,0,0,1.22-.42.92.92,0,0,0,.48-1.4c-.09-.2-.19-.4-.29-.59a1,1,0,0,0-1.18-.53,10.56,10.56,0,0,0-2.77,1.33c-1.15.67-1.71.5-2.34-.7a14.61,14.61,0,0,0-.82-1.8,1.15,1.15,0,0,0-1.39-.51,4.07,4.07,0,0,0-2.36,1.81,1.22,1.22,0,0,1-.12.19c-.87,1-.9,1.09-1.59,0-.34-.55-.66-.59-1.2-.2a1.54,1.54,0,0,0-.75,1,.81.81,0,0,1-.84.64,5,5,0,0,1-1.44-.18,10.7,10.7,0,0,0-2.76-.34,6.31,6.31,0,0,1-1.81-.49,1.28,1.28,0,0,0-1.64,1.11C185.71,41.9,186.29,42.3,187.09,42.42Zm40-3.1a4.18,4.18,0,0,1-1.06-.16,1.19,1.19,0,0,1-1-1.06c-.1-.87-.62-1.13-1.48-.93a16,16,0,0,0-2.14.75,9.14,9.14,0,0,1-4,.27,33,33,0,0,0-3.84-.23l1.72.77a2.3,2.3,0,0,1,1.5,1.86,2.14,2.14,0,0,0,.42.95,1.55,1.55,0,0,0,2.38.27,12,12,0,0,0,1.47-1.2,1.92,1.92,0,0,1,2.42-.27c.84.42,1.67.86,2.51,1.27a3.6,3.6,0,0,0,1.61.38.91.91,0,0,0,.89-.52,5.73,5.73,0,0,1,2.37-2.16,2.27,2.27,0,0,0,.67-.49A20.17,20.17,0,0,1,227.12,39.32Z"/><path class="cls-14" d="M237.31,6.89c.09.17,0,.32-.05.47-.27.92.05,1.47,1,1.53a5.65,5.65,0,0,0,4.31-1.32,3.14,3.14,0,0,0,1.06-2.18,2.31,2.31,0,0,1,2.58-2.5,21.71,21.71,0,0,1,6.1.8c.52.15.77-.06.69-.62-.12-.83-.27-1.66-.45-2.48-.09-.45-.54-.44-.87-.5-1.23-.23-2.48,0-3.7-.2a2.65,2.65,0,0,0-2.65,1.34,6.42,6.42,0,0,1-1.41,1.44,3.29,3.29,0,0,1-2.68.4c-.86-.19-1.71-.4-2.57-.56a2.92,2.92,0,0,0-2.33.64c-.7.5-1.4,1-2.12,1.5a2.88,2.88,0,0,0-1.26,2.43c0,1-.29,1.15-1.25,1a5.11,5.11,0,0,1-3.16-1.5,7.5,7.5,0,0,1-1-1.4,6.15,6.15,0,0,0-.45-.68c-.37-.44-.57-.41-.84.1a12.41,12.41,0,0,0-1.12,4.18,1.35,1.35,0,0,0,.78,1.39c.89.52,1.81,1,2.71,1.49a11.44,11.44,0,0,1,1.27.82,4,4,0,0,0,4.64-.18,2,2,0,0,0,1-1.81A6.65,6.65,0,0,1,237.31,6.89Z"/><path class="cls-14" d="M248.78,9.4c1.43,0,2.67-.34,3.94-.42a13.16,13.16,0,0,1,5.94.6,5,5,0,0,1,1.9,1.83A14.07,14.07,0,0,0,262,13c.62.56,1.18.48,1.43-.29a2.72,2.72,0,0,1,2.43-1.88c1.74-.33,3.52-.39,5.27-.6a26.12,26.12,0,0,0,5.3-1.15,2.93,2.93,0,0,0,.44-.21c.93-.48,1.07-.91.61-1.85a2.8,2.8,0,0,1-.15-.3c-.62-1.59-1.38-1.42-2.63-1A13.93,13.93,0,0,0,272,7.19a3.78,3.78,0,0,1-1.53.65A1.55,1.55,0,0,1,269,7.08a12.94,12.94,0,0,1-1.15-2.44c-.62-1.48-1.49-1.75-2.93-1.14A7.17,7.17,0,0,0,262,6.26a2.61,2.61,0,0,1-.19.27c-.52.62-.89.61-1.37,0-.19-.25-.35-.51-.52-.78a.76.76,0,0,0-1-.32,2.41,2.41,0,0,0-1.38,1.24c-.53,1.17-.9,1.41-2.18,1.16a19.4,19.4,0,0,0-4.67-.64,4.17,4.17,0,0,1-1.77-.44,2.13,2.13,0,0,0-2.38.12A1.18,1.18,0,0,0,246.69,9,3.77,3.77,0,0,0,248.78,9.4Z"/><path class="cls-14" d="M237.51,20.65a2.94,2.94,0,0,1,2,.43,1.26,1.26,0,0,1,.39.37c1,1.44,2.43,1.52,3.79,1.33a1.69,1.69,0,0,0,1.18-.8c.82-1.29,2.1-1.44,3.42-1.34.67,0,1.33,0,2,0a.74.74,0,0,0,.74-.46.84.84,0,0,0-.26-.9,2.31,2.31,0,0,0-1.74-.84,3.79,3.79,0,0,1-1.63-.54,1.67,1.67,0,0,0-1.82,0c-.55.35-1,.17-1.34-.46a4.18,4.18,0,0,1-.1-3.62,4.08,4.08,0,0,0,.23-.67c.16-.75-.24-1.15-1-.93a3.26,3.26,0,0,0-1.29.86c-1.21,1.18-2.12,2.65-3.35,3.81a2.48,2.48,0,0,1-.58.49c-.55.28-.8.13-.85-.49-.06-.78.14-1.54.1-2.32,0-.15.07-.37-.12-.44s-.29.16-.38.31c-.58,1-.95,2.06-1.43,3.09a1.22,1.22,0,0,1-1.68.82,10.17,10.17,0,0,1-2.52-1.07A11.32,11.32,0,0,0,227.67,16a9.08,9.08,0,0,0-1.88,0c-.32,0-.46.18-.16.49a13.75,13.75,0,0,0,2,1.53c1.17.79,2.3,1.62,3.4,2.52a3.41,3.41,0,0,0,3.86.58A5.26,5.26,0,0,1,237.51,20.65Z"/><path class="cls-14" d="M210.73,15.92a7.91,7.91,0,0,0,2.35.42,15.51,15.51,0,0,0,1.67,0,2.92,2.92,0,0,0,1.63-.65,4.1,4.1,0,0,1,2-.93,1.9,1.9,0,0,1,1.23.32,4.55,4.55,0,0,0,3.15.65,1.88,1.88,0,0,0,1.15-.56,1.2,1.2,0,0,0,0-1.73,4.9,4.9,0,0,0-2-1.13,22.18,22.18,0,0,0-3.85-1,3.74,3.74,0,0,1-2.77-2.07,5.87,5.87,0,0,0-1.12-1.75,1.77,1.77,0,0,0-2-.31,5.68,5.68,0,0,0-1.59,1.21c-.92.91-1.92,1.71-2.88,2.56a4.22,4.22,0,0,0-.8.89c-.22.36-.12.52.26.54a6.93,6.93,0,0,0,1.8-.31,9.77,9.77,0,0,1,3.88-.29,2.53,2.53,0,0,1,.89.38.89.89,0,0,1,.4,1.18,5.8,5.8,0,0,1-1.27,2,2.08,2.08,0,0,1-1.38.52C211.26,15.93,211,15.92,210.73,15.92Z"/><path class="cls-15" d="M185.7,41.37c0,.53.59.93,1.39,1.05a9.48,9.48,0,0,0,2.71-.19,13.28,13.28,0,0,1,4.49.06,4.06,4.06,0,0,1,2.41,1.91,7.34,7.34,0,0,0,.89,1c.36.33.84.28,1-.17.38-1.26,1.41-1.4,2.43-1.54a48.24,48.24,0,0,0,6.31-.93,10.33,10.33,0,0,0,1.22-.42.92.92,0,0,0,.48-1.4c-.09-.2-.19-.4-.29-.59a1,1,0,0,0-1.18-.53,10.56,10.56,0,0,0-2.77,1.33c-1.15.67-1.71.5-2.34-.7a14.61,14.61,0,0,0-.82-1.8,1.15,1.15,0,0,0-1.39-.51,4.07,4.07,0,0,0-2.36,1.81,1.22,1.22,0,0,1-.12.19c-.87,1-.9,1.09-1.59,0-.34-.55-.66-.59-1.2-.2a1.54,1.54,0,0,0-.75,1,.81.81,0,0,1-.84.64,5,5,0,0,1-1.44-.18,10.7,10.7,0,0,0-2.76-.34,6.31,6.31,0,0,1-1.81-.49A1.28,1.28,0,0,0,185.7,41.37Z"/><path class="cls-15" d="M231.57,38.82a20.17,20.17,0,0,1-4.45.5,4.18,4.18,0,0,1-1.06-.16,1.19,1.19,0,0,1-1-1.06c-.1-.87-.62-1.13-1.48-.93a16,16,0,0,0-2.14.75,9.14,9.14,0,0,1-4,.27,33,33,0,0,0-3.84-.23l1.72.77a2.3,2.3,0,0,1,1.5,1.86,2.14,2.14,0,0,0,.42.95,1.55,1.55,0,0,0,2.38.27,12,12,0,0,0,1.47-1.2,1.92,1.92,0,0,1,2.42-.27c.84.42,1.67.86,2.51,1.27a3.6,3.6,0,0,0,1.61.38.91.91,0,0,0,.89-.52,5.73,5.73,0,0,1,2.37-2.16A2.27,2.27,0,0,0,231.57,38.82Z"/><path class="cls-12" d="M218.88,51.53c.23-.15.92.2,1.15.3a8.6,8.6,0,0,0,1.56.58c.46.13,1.07.37,1,1-.14.79-1.64,1.58-1.67,1.59-.48.25-1.31-.1-1.76-.31s-2.15-.82-1.92-1.58S218.29,51.91,218.88,51.53Z"/></g><rect class="cls-16" x="10.35" y="10.84" width="20.2" height="9.66" rx="4.53"/><rect class="cls-16" x="24.36" y="71.86" width="20.2" height="9.66" rx="4.53"/><rect class="cls-16" x="25.53" y="21.63" width="20.2" height="9.66" rx="4.53"/><rect class="cls-16" x="236.22" y="106.04" width="20.2" height="9.66" rx="4.53"/><rect class="cls-16" x="228.61" y="94.25" width="20.2" height="9.66" rx="4.53"/><rect class="cls-16" x="116.06" y="52.34" width="20.2" height="9.66" rx="4.53"/><rect class="cls-16" x="233.72" y="5.3" width="20.2" height="9.66" rx="4.53"/><path class="cls-17" d="M241.11,78c.08-1.92.76-3.8.72-5.72-.08-3.12-2-6-1.73-9.15.15-1.61.9-3.13,1-4.74A20.37,20.37,0,0,0,240.3,54c-.8-4.31.8-8.77.12-13.1a4.79,4.79,0,0,0-1.2-2.75,19.63,19.63,0,0,0-1.85-1.28c-.78-.6-1.32-1.45-2.05-2.1a8.43,8.43,0,0,0-6-1.7c-2.15.08-4.28.53-6.43.43-2.57-.12-5.09-1-7.66-.85-2.1.15-4.09,1-6.18,1.3-3.73.45-7.44-1.13-11.19-1-2.76.08-5.43,1.05-8.18,1.13-3.07.09-6.09-.94-9.16-.87-3.41.09-6.75,1.54-10.14,1.15-1.39-.16-2.73-.62-4.12-.83-2.36-.36-5.26.45-5.43,3.29a9.26,9.26,0,0,0,.53,2.27,12.57,12.57,0,0,1-.09,3.62c-.57,6,.71,12.06,0,18.08-.21,1.86-.62,3.69-.68,5.56-.08,2.75.6,5.48.65,8.24.07,3.31-.75,6.68,0,9.9.4,1.69,1.23,3.3,1.27,5a10.65,10.65,0,0,0,.07,2.33c.53,2.13,3.2,2.78,5.39,3l9.54,1.1c3.69.43,7.44.85,11.11.2a26.67,26.67,0,0,1,5-.77c1.79,0,3.51.68,5.28.77,2.54.13,5-.85,7.56-.89,3.46,0,6.84,1.66,10.27,1.19,2-.27,3.88-1.26,5.89-1.25,2.64,0,5.49,1.74,7.73.34a5.72,5.72,0,0,1,1.53-.92,3.79,3.79,0,0,1,1.72.22,7.47,7.47,0,0,0,8.68-5.27C243.18,85.78,240.93,81.89,241.11,78Zm-8.82,5.51a5.65,5.65,0,0,1-6.57,4,2.87,2.87,0,0,0-1.29-.16,4,4,0,0,0-1.16.7c-1.69,1-3.85-.25-5.84-.26-1.52,0-2.94.74-4.45.94-2.59.35-5.15-.94-7.76-.9-1.92,0-3.79.77-5.71.67-1.34-.07-2.64-.55-4-.58a19.68,19.68,0,0,0-3.78.59,29.52,29.52,0,0,1-8.39-.16l-7.21-.83c-1.65-.19-3.67-.68-4.07-2.29a7.94,7.94,0,0,1,0-1.76,19.08,19.08,0,0,0-1-3.8c-.58-2.43,0-5,0-7.48,0-2.08-.55-4.15-.49-6.23.05-1.41.35-2.79.52-4.19.53-4.55-.44-9.12,0-13.67a9.27,9.27,0,0,0,.06-2.73,6.71,6.71,0,0,1-.39-1.72c.12-2.14,2.31-2.76,4.1-2.49,1,.16,2.06.52,3.11.64,2.56.29,5.08-.81,7.66-.87,2.32-.06,4.6.72,6.92.65,2.08-.06,4.1-.8,6.18-.85,2.84-.08,5.64,1.12,8.46.77,1.58-.19,3.08-.86,4.67-1,1.94-.14,3.84.55,5.79.65,1.62.07,3.23-.27,4.85-.33a6.38,6.38,0,0,1,4.57,1.28c.55.5,1,1.14,1.55,1.59a15.15,15.15,0,0,1,1.4,1,3.62,3.62,0,0,1,.91,2.08c.51,3.27-.69,6.64-.09,9.89a15.54,15.54,0,0,1,.57,3.29c0,1.21-.61,2.36-.73,3.57-.22,2.35,1.26,4.56,1.31,6.92,0,1.45-.48,2.87-.54,4.32C231.29,77.66,233,80.6,232.29,83.48Z"/></svg>