<svg id="Layer_1" data-name="Layer 1" xmlns="http://www.w3.org/2000/svg" xmlns:xlink="http://www.w3.org/1999/xlink" viewBox="0 0 260 168"><defs><style>.cls-1,.cls-13,.cls-34,.cls-4,.cls-49{fill:none;}.cls-2{fill:#b0cc5a;}.cls-3{fill:#9cb240;}.cls-13,.cls-4{stroke:#a5854c;}.cls-13,.cls-34,.cls-4,.cls-49{stroke-miterlimit:10;}.cls-4{stroke-width:0.11px;}.cls-5{fill:#8a9931;}.cls-6{fill:#754a1f;}.cls-7{fill:#00fcc0;}.cls-8{fill:#3b145e;}.cls-9{fill:#f7931e;}.cls-10{fill:#432059;}.cls-11{fill:#472608;}.cls-12{fill:#d16720;}.cls-13{stroke-width:0.19px;}.cls-14{clip-path:url(#clip-path);}.cls-15{clip-path:url(#clip-path-2);}.cls-16{fill:#aeeaf8;}.cls-17{clip-path:url(#clip-path-3);}.cls-18{fill:#6b411b;}.cls-19{clip-path:url(#clip-path-4);}.cls-20{fill:#6b3910;}.cls-21{fill:#633913;}.cls-22{fill:#4f2a0c;}.cls-23{fill:#845123;}.cls-24{clip-path:url(#clip-path-5);}.cls-25{fill:#c45d18;}.cls-26{clip-path:url(#clip-path-6);}.cls-27{clip-path:url(#clip-path-7);}.cls-28{fill:#8a5d3b;}.cls-29{fill:#a87c4f;}.cls-30{fill:#754c28;}.cls-31{fill:#a5854c;}.cls-32{fill:url(#linear-gradient);}.cls-33{clip-path:url(#clip-path-8);}.cls-34,.cls-49{stroke:#8c6f41;}.cls-34{stroke-width:0.8px;}.cls-35{fill:#5b5220;}.cls-36{fill:#4c441c;}.cls-37{fill:#6d6235;}.cls-38{clip-path:url(#clip-path-9);}.cls-39{fill:#717a1e;}.cls-40{clip-path:url(#clip-path-10);}.cls-41{fill:#a4b751;}.cls-42{fill:#c6e065;}.cls-43{clip-path:url(#clip-path-11);}.cls-44{clip-path:url(#clip-path-12);}.cls-45{clip-path:url(#clip-path-13);}.cls-46{fill:#8a9331;}.cls-47{fill:url(#linear-gradient-2);}.cls-48{clip-path:url(#clip-path-14);}.cls-49{stroke-width:0.48px;}.cls-50{clip-path:url(#clip-path-15);}.cls-51{fill:#808e2f;}.cls-52{clip-path:url(#clip-path-16);}.cls-53{clip-path:url(#clip-path-17);}.cls-54{clip-path:url(#clip-path-18);}.cls-55{clip-path:url(#clip-path-19);}.cls-56{clip-path:url(#clip-path-20);}.cls-57{clip-path:url(#clip-path-21);}.cls-58{clip-path:url(#clip-path-22);}.cls-59{clip-path:url(#clip-path-23);}.cls-60{fill:#5fc11f;}.cls-61{clip-path:url(#clip-path-24);}.cls-62{fill:#02ce99;opacity:0.42;}.cls-63{fill:#ed6e06;}.cls-64{fill:#e8811a;}.cls-65{clip-path:url(#clip-path-25);}.cls-66{fill:#5f2c93;}.cls-67{clip-path:url(#clip-path-26);}.cls-68{fill:#e57d15;}.cls-69{clip-path:url(#clip-path-27);}.cls-70{fill:#cc6a11;}.cls-71{fill:#ffa852;}.cls-72{clip-path:url(#clip-path-28);}.cls-73{fill:#4c2766;}.cls-74{fill:#ffdeae;}.cls-75{fill:#eac78f;}.cls-76{fill:#512e04;}</style><clipPath id="clip-path"><rect class="cls-1" width="260" height="168"/></clipPath><clipPath id="clip-path-2"><rect class="cls-1" x="-55.39" y="-51.21" width="370.77" height="239.58"/></clipPath><clipPath id="clip-path-3"><rect class="cls-6" x="180.45" y="68.29" width="139.14" height="57.62" transform="translate(500.03 194.2) rotate(-180)"/></clipPath><clipPath id="clip-path-4"><polygon class="cls-11" points="171.02 72.11 329.17 72.11 305.11 50.22 197.43 50.22 171.02 72.11"/></clipPath><clipPath id="clip-path-5"><polygon class="cls-12" points="237.88 97.55 227.73 97.55 221.56 97.55 211.41 97.55 207.77 103.94 221.56 103.94 227.73 103.94 241.52 103.94 237.88 97.55"/></clipPath><clipPath id="clip-path-6"><polygon class="cls-12" points="287.9 97.55 277.75 97.55 271.59 97.55 261.44 97.55 257.8 103.94 271.59 103.94 277.75 103.94 291.54 103.94 287.9 97.55"/></clipPath><clipPath id="clip-path-7"><rect class="cls-1" x="127.8" y="97.54" width="59.42" height="28.38"/></clipPath><linearGradient id="linear-gradient" x1="19914.51" y1="598.37" x2="19953.62" y2="640.09" gradientTransform="matrix(0.59, -0.06, 0.09, 1, -11606.29, 538.7)" gradientUnits="userSpaceOnUse"><stop offset="0" stop-color="#d9e021"/><stop offset="1" stop-color="#39b54a" stop-opacity="0"/></linearGradient><clipPath id="clip-path-8"><path class="cls-13" d="M250.66-2.89c.08,2.85,2,16.77,2,16.77,12.21,96.44,1.12,105.7,1.12,105.7,2.32,3,7.31,1.76,7.31,1.76,5.49-.52,6-3,6-3,1.71-45.1-9.17-104.47-9.17-104.47S255-1,254.6-2.9Z"/></clipPath><clipPath id="clip-path-9"><path class="cls-5" d="M258.05-20.44c.35-.08.24,5.52,1.4,8.28s1.34,4.81.36,7.23a6.27,6.27,0,0,1-4,3.8c-1.46.6-6-.46-6-.46S248.24-4,247.41-4.3a5.17,5.17,0,0,1-2.35-3.08c-.51-1.47-1.62-3.37-1.44-4.36s5.59-6,5.59-6l-3.29-4.56"/></clipPath><clipPath id="clip-path-10"><path class="cls-2" d="M231.87,32.38s5.41-8.83,7.5-10.12l-2.59-4.88,3.27,2.79s4.66-4.53,4.89-8.51l-3.78-3.75,3.9,1.76.79-1.42-3.16-4.2,3.92,2.56a17.56,17.56,0,0,0,3.56-10.13l-3-2.38,3.18,1s.29-7.59.87-9c0,0-12.29,8.64-16.16,17.66l2.76-.13L234.62,5S227.1,16.4,231.87,32.38Z"/></clipPath><clipPath id="clip-path-11"><path class="cls-2" d="M291.86,15.16s-9.25-4.65-11.72-4.64L279.77,5l-1.3,4.1s-6.35-1.39-8.65-4.65l1.24-5.18-2.39,3.55L267.25,2l.48-5.24-2,4.25a17.61,17.61,0,0,1-8.37-6.73l1.27-3.59-2.2,2.49s-4.26-6.29-5.47-7.16c0,0,15,.86,23,6.48L271.6-6.11l3.48-.54S287.48-.93,291.86,15.16Z"/></clipPath><clipPath id="clip-path-12"><path class="cls-2" d="M272.21,30.12s-6-8.47-8.14-9.63l2.28-5-3.08,3s-4.94-4.22-5.42-8.19l3.54-4-3.79,2-.88-1.36,2.9-4.39-3.76,2.8a17.62,17.62,0,0,1-4.2-9.88l2.81-2.56L251.36-6s-.78-7.56-1.44-8.9c0,0,12.82,7.85,17.25,16.61l-2.76,0L267.73,3S276,13.87,272.21,30.12Z"/></clipPath><clipPath id="clip-path-13"><path class="cls-3" d="M251.38-12.49s-8.06-.61-13.7,5l-1.53-3.11L236-6.67S227.91-1,226,3.4l-3.66-.33,1.87,2.25-4.51.61,2.21,2s-3.93,5-4.25,7.18c0,0-4.26-10.31,3.27-22.52l3.13-.56-2.22-.51S233.32-21.08,251.38-12.49Z"/></clipPath><linearGradient id="linear-gradient-2" x1="31673.12" y1="1304.09" x2="31696.53" y2="1329.06" gradientTransform="matrix(-0.59, -0.06, -0.09, 1, 18901.72, 538.7)" xlink:href="#linear-gradient"/><clipPath id="clip-path-14"><path class="cls-4" d="M34.73,48.58c0,1.71-1.23,10-1.23,10-7.3,57.73-.66,63.27-.66,63.27-1.39,1.78-4.38,1-4.38,1-3.29-.31-3.58-1.81-3.58-1.81-1-27,5.49-62.52,5.49-62.52s1.76-8.88,2-10Z"/></clipPath><clipPath id="clip-path-15"><path class="cls-5" d="M30.3,38.08c-.2,0-.14,3.3-.84,5a5.19,5.19,0,0,0-.21,4.34,3.72,3.72,0,0,0,2.37,2.27c.87.36,3.58-.27,3.58-.27s1-1.45,1.47-1.63a3.12,3.12,0,0,0,1.41-1.84c.3-.88,1-2,.86-2.61s-3.35-3.58-3.35-3.58l2-2.74"/></clipPath><clipPath id="clip-path-16"><path class="cls-2" d="M46,69.7s-3.24-5.29-4.49-6.06L43,60.72l-2,1.67s-2.79-2.71-2.93-5.1l2.26-2.24L38.08,56.1l-.48-.85,1.9-2.51-2.35,1.53A10.46,10.46,0,0,1,35,48.21l1.77-1.43-1.9.57A36.82,36.82,0,0,0,34.37,42S41.72,47.16,44,52.56l-1.65-.08,1.94.83A20.6,20.6,0,0,1,46,69.7Z"/></clipPath><clipPath id="clip-path-17"><path class="cls-2" d="M10.06,59.39s5.55-2.78,7-2.78l.22-3.3.78,2.45s3.8-.83,5.18-2.78l-.75-3.1L23.94,52l.86-.46-.29-3.14,1.19,2.54a10.48,10.48,0,0,0,5-4L30,44.77l1.32,1.49A37.21,37.21,0,0,1,34.54,42s-9,.52-13.79,3.88l1.44.81-2.08-.33A20.67,20.67,0,0,0,10.06,59.39Z"/></clipPath><clipPath id="clip-path-18"><path class="cls-2" d="M21.83,68.34s3.57-5.07,4.87-5.76l-1.37-3,1.85,1.79s3-2.53,3.25-4.9l-2.12-2.38,2.26,1.19.53-.81-1.73-2.63,2.24,1.68a10.5,10.5,0,0,0,2.52-5.92l-1.69-1.53,1.87.69a35.87,35.87,0,0,1,.86-5.33s-7.67,4.7-10.33,9.95l1.66,0-2,.7A20.64,20.64,0,0,0,21.83,68.34Z"/></clipPath><clipPath id="clip-path-19"><path class="cls-3" d="M34.38,42.9a12.08,12.08,0,0,0-8.13-4.37l.83-2-1.91,1.58s-6.07-1.47-9-.5l-1.38-1.87-.28,1.82-2.19-1.87,0,1.89s-4,.26-5.18,1c0,0,3.08-6.35,12-7.92l1.58,1.25-.69-1.27S30.86,30.75,34.38,42.9Z"/></clipPath><clipPath id="clip-path-20"><path class="cls-3" d="M34.3,42.84a11.4,11.4,0,0,1,8.2,3L43.41,44l.08,2.34s4.85,3.38,6,6l2.19-.2L50.55,53.5l2.7.37-1.33,1.2s2.35,3,2.54,4.3c0,0,2.56-6.17-2-13.48l-1.87-.33L52,45.25S45.1,37.7,34.3,42.84Z"/></clipPath><clipPath id="clip-path-21"><path class="cls-2" d="M26.89,18.55s.76,5.15.37,6.32l2.58,1-2.16,0s-.34,3.25.86,4.86L31.2,31l-2.06.58.15.81,2.57.59-2.34.28a8.84,8.84,0,0,0,1.9,5.05l1.91,0-1.53.66a31.75,31.75,0,0,1,2.56,3.73s1.94-7.29.52-12l-1,.94.8-1.58A17.31,17.31,0,0,0,26.89,18.55Z"/></clipPath><clipPath id="clip-path-22"><path class="cls-2" d="M49.63,26.64s-3.11,2.54-4,2.75l.33,2.12-.85-1.44s-2.28,1.07-2.87,2.5l.91,1.85L41.9,33.28l-.47.42.62,1.94-1.11-1.43a6.77,6.77,0,0,0-2.6,3.26l.79,1.25L38.08,38a23,23,0,0,1-1.46,3.18s5.61-1.6,8.18-4.42l-1-.3,1.36-.09A13.4,13.4,0,0,0,49.63,26.64Z"/></clipPath><clipPath id="clip-path-23"><path class="cls-2" d="M41.24,16s-2.15,5.35-3.18,6.26l1.88,2.43-2-1.22S35.75,26.36,36,28.56l2.42,1.7-2.3-.59-.3.85,2.13,2-2.4-1a9.78,9.78,0,0,0-1,5.89l1.85,1-1.83-.23a33.5,33.5,0,0,1,.36,5s5.94-5.89,7.22-11.2l-1.5.33,1.65-1.06A19.22,19.22,0,0,0,41.24,16Z"/></clipPath><clipPath id="clip-path-24"><rect class="cls-7" x="272.73" y="-11.89" width="125.62" height="137.61"/></clipPath><clipPath id="clip-path-25"><polygon class="cls-8" points="36.81 69.68 23.11 69.68 4.21 69.68 -9.49 69.68 -22.02 88.81 4.21 88.81 23.11 88.81 49.33 88.81 36.81 69.68"/></clipPath><clipPath id="clip-path-26"><polygon class="cls-9" points="-5.26 125.74 -49.34 125.74 -52.34 26.98 -2.26 26.98 -5.26 125.74"/></clipPath><clipPath id="clip-path-27"><polygon class="cls-8" points="-4.15 9.27 -17.85 9.27 -36.75 9.27 -50.45 9.27 -62.98 28.4 -36.75 28.4 -17.85 28.4 8.37 28.4 -4.15 9.27"/></clipPath><clipPath id="clip-path-28"><circle class="cls-10" cx="15.81" cy="104.51" r="7.8"/></clipPath></defs><g class="cls-14"><g class="cls-15"><polygon class="cls-16" points="-94.76 124.9 -94.76 53.87 -57.33 53.87 -57.33 96.52 23.36 96.52 23.36 24.4 66 24.4 66 96.76 91.96 96.76 91.96 57.01 122.46 57.01 122.46 106.68 156.18 106.68 156.18 74.49 193.62 74.49 193.62 110.33 230.57 110.33 230.57 52.77 250.48 52.77 250.48 110.33 303.48 110.33 303.48 46.61 372.53 46.61 372.53 76.26 402.71 76.26 402.71 17.16 442.64 17.16 442.64 126.06 -94.76 126.06 -94.76 124.9"/><rect class="cls-6" x="180.45" y="68.29" width="139.14" height="57.62" transform="translate(500.03 194.2) rotate(-180)"/><g class="cls-17"><rect class="cls-18" x="167.87" y="59.1" width="156.29" height="15.46"/></g><polygon class="cls-11" points="171.02 72.11 329.17 72.11 305.11 50.22 197.43 50.22 171.02 72.11"/><g class="cls-19"><rect class="cls-20" x="188.72" y="21.97" width="1.17" height="84.87" transform="translate(111.58 -119.83) rotate(48.33)"/><rect class="cls-20" x="200.84" y="21.97" width="1.17" height="84.87" transform="translate(115.64 -128.88) rotate(48.33)"/><rect class="cls-20" x="212.95" y="21.97" width="1.17" height="84.87" transform="translate(119.7 -137.93) rotate(48.33)"/><rect class="cls-20" x="225.07" y="21.97" width="1.17" height="84.87" transform="translate(123.76 -146.98) rotate(48.33)"/><rect class="cls-20" x="237.19" y="21.97" width="1.17" height="84.87" transform="translate(127.82 -156.04) rotate(48.33)"/><rect class="cls-20" x="249.3" y="21.97" width="1.17" height="84.87" transform="translate(131.88 -165.09) rotate(48.33)"/><rect class="cls-20" x="261.42" y="21.97" width="1.17" height="84.87" transform="translate(135.94 -174.14) rotate(48.33)"/><rect class="cls-20" x="273.53" y="21.97" width="1.17" height="84.87" transform="translate(140.01 -183.19) rotate(48.33)"/><rect class="cls-20" x="285.65" y="21.97" width="1.17" height="84.87" transform="translate(144.07 -192.24) rotate(48.33)"/></g><rect class="cls-21" x="187.65" y="75.82" width="24.59" height="18.26" rx="1.01" transform="translate(399.89 169.9) rotate(-180)"/><rect class="cls-22" x="188.94" y="76.96" width="21.64" height="15.65" rx="1.04" transform="translate(399.52 169.58) rotate(-180)"/><rect class="cls-21" x="199.12" y="76.03" width="1.02" height="17.51" transform="translate(399.26 169.58) rotate(-180)"/><rect class="cls-21" x="188.41" y="80.01" width="23.07" height="0.97" transform="translate(399.89 160.98) rotate(-180)"/><rect class="cls-21" x="212.66" y="102.6" width="24.59" height="18.26" rx="1.01" transform="translate(449.92 223.45) rotate(-180)"/><rect class="cls-22" x="213.95" y="103.74" width="21.64" height="15.65" rx="1.04" transform="translate(449.54 223.13) rotate(-180)"/><rect class="cls-21" x="224.13" y="102.81" width="1.02" height="17.51" transform="translate(449.29 223.13) rotate(-180)"/><rect class="cls-21" x="213.43" y="106.79" width="23.07" height="0.97" transform="translate(449.92 214.54) rotate(-180)"/><rect class="cls-21" x="236.61" y="75.82" width="24.59" height="18.26" rx="1.01" transform="translate(497.81 169.9) rotate(-180)"/><rect class="cls-22" x="237.9" y="76.96" width="21.64" height="15.65" rx="1.04" transform="translate(497.44 169.58) rotate(-180)"/><rect class="cls-21" x="248.08" y="76.03" width="1.02" height="17.51" transform="translate(497.18 169.58) rotate(-180)"/><rect class="cls-21" x="237.37" y="80.01" width="23.07" height="0.97" transform="translate(497.81 160.98) rotate(-180)"/><rect class="cls-23" x="188.54" y="109.2" width="7.7" height="3.98" rx="1.27" transform="translate(384.78 222.39) rotate(-180)"/><rect class="cls-23" x="184.69" y="113.6" width="7.7" height="3.98" rx="1.27" transform="translate(377.08 231.18) rotate(-180)"/><rect class="cls-23" x="192.94" y="113.6" width="7.7" height="3.98" rx="1.27" transform="translate(393.59 231.18) rotate(-180)"/><polygon class="cls-12" points="237.88 97.55 227.73 97.55 221.56 97.55 211.41 97.55 207.77 103.94 221.56 103.94 227.73 103.94 241.52 103.94 237.88 97.55"/><g class="cls-24"><rect class="cls-25" x="213.93" y="90.37" width="2.05" height="19.74"/><rect class="cls-25" x="219.79" y="90.37" width="2.05" height="19.74"/><rect class="cls-25" x="225.65" y="90.37" width="2.05" height="19.74"/><rect class="cls-25" x="231.51" y="90.37" width="2.05" height="19.74"/><rect class="cls-25" x="237.38" y="90.37" width="2.05" height="19.74"/><rect class="cls-25" x="207.77" y="90.37" width="2.05" height="19.74"/></g><polygon class="cls-12" points="287.9 97.55 277.75 97.55 271.59 97.55 261.44 97.55 257.8 103.94 271.59 103.94 277.75 103.94 291.54 103.94 287.9 97.55"/><g class="cls-26"><rect class="cls-25" x="257.8" y="90.37" width="2.05" height="19.74"/></g><g class="cls-27"><polygon class="cls-28" points="183.56 130.6 180.57 130.48 179.9 104.12 185.66 104.35 183.56 130.6"/><polygon class="cls-28" points="139.22 129 136.29 129.6 129.35 104.16 135.01 103.01 139.22 129"/><polygon class="cls-28" points="139.09 126.81 142.08 126.75 143.27 100.41 137.5 100.53 139.09 126.81"/><polygon class="cls-28" points="162.37 128.34 165.37 128.28 166.56 101.94 160.79 102.06 162.37 128.34"/><polygon class="cls-28" points="165.58 133.7 168.57 133.92 172.22 107.81 166.47 107.39 165.58 133.7"/><polygon class="cls-29" points="138.44 129.4 133.53 104.4 132.81 104.53 138.44 129.4"/><polygon class="cls-29" points="161.44 103.25 163.23 128.66 163.97 128.62 161.44 103.25"/><polygon class="cls-29" points="166.56 133.37 169.2 108.03 168.47 107.94 166.56 133.37"/><rect class="cls-29" x="143.04" y="104.67" width="4.17" height="24.93"/><rect class="cls-28" x="147.44" y="101.94" width="4.17" height="27.66"/><rect class="cls-29" x="152.06" y="109.04" width="4.17" height="20.56"/><rect class="cls-29" x="156.62" y="105.58" width="4.17" height="24.02"/><polygon class="cls-28" points="146.17 105.37 145.32 130.84 146.06 130.87 146.17 105.37"/><rect class="cls-29" x="175.63" y="108.34" width="4.17" height="24.93" transform="translate(353.04 245.07) rotate(-178.88)"/><rect class="cls-30" x="171.26" y="105.52" width="4.17" height="27.66" transform="translate(344.33 242.07) rotate(-178.88)"/><polygon class="cls-28" points="176.9 109.02 177.25 134.5 176.52 134.52 176.9 109.02"/><polygon class="cls-28" points="155.29 134.53 155.5 109.05 154.76 109.04 155.29 134.53"/><polygon class="cls-29" points="172.89 135.44 173 109.96 172.26 109.95 172.89 135.44"/><polygon class="cls-29" points="183.28 117.47 184.24 104.38 183.51 104.33 183.28 117.47"/><polygon class="cls-29" points="140.18 131.32 141.47 112.02 140.73 111.97 140.18 131.32"/></g><path class="cls-31" d="M250.66-2.89c.08,2.85,2,16.77,2,16.77,12.21,96.44,1.12,105.7,1.12,105.7,2.32,3,7.31,1.76,7.31,1.76,5.49-.52,6-3,6-3,1.71-45.1-9.17-104.47-9.17-104.47S255-1,254.6-2.9Z"/><path class="cls-32" d="M250.66-2.89c.08,2.85,2,16.77,2,16.77,12.21,96.44,1.12,105.7,1.12,105.7,2.32,3,7.31,1.76,7.31,1.76,5.49-.52,6-3,6-3,1.71-45.1-9.17-104.47-9.17-104.47S255-1,254.6-2.9Z"/><g class="cls-33"><path class="cls-34" d="M255.12,102.54s9.33-1.32,13.66,2.32"/><path class="cls-34" d="M257.49,82.26s7.26-2.67,11.65,1.65"/><path class="cls-34" d="M256.82,61.24a7.73,7.73,0,0,1,8.45.15"/><path class="cls-34" d="M255.21,43s3.66-3.1,7.83-.86"/><path class="cls-34" d="M253.38,25.85s3.39-3.76,7.23-.68"/><path class="cls-34" d="M251.48,9.4s3.17-3.29,6.3-.37"/></g><path class="cls-13" d="M250.66-2.89c.08,2.85,2,16.77,2,16.77,12.21,96.44,1.12,105.7,1.12,105.7,2.32,3,7.31,1.76,7.31,1.76,5.49-.52,6-3,6-3,1.71-45.1-9.17-104.47-9.17-104.47S255-1,254.6-2.9Z"/><ellipse class="cls-35" cx="246.99" cy="2.46" rx="5.65" ry="4.71" transform="translate(216.5 247.57) rotate(-83.48)"/><ellipse class="cls-36" cx="255.2" cy="0.68" rx="4.71" ry="5.65" transform="translate(20 99.73) rotate(-22.99)"/><ellipse class="cls-37" cx="254.58" cy="8.82" rx="4.71" ry="5.65" transform="translate(2.4 44.8) rotate(-10.1)"/><path class="cls-5" d="M258.05-20.44c.35-.08.24,5.52,1.4,8.28s1.34,4.81.36,7.23a6.27,6.27,0,0,1-4,3.8c-1.46.6-6-.46-6-.46S248.24-4,247.41-4.3a5.17,5.17,0,0,1-2.35-3.08c-.51-1.47-1.62-3.37-1.44-4.36s5.59-6,5.59-6l-3.29-4.56"/><g class="cls-38"><path class="cls-39" d="M243-7.16s3.12-6.22,9.76-3.7,7.72-3.65,7.72-3.65,6.21,9.2,5.21,12.28-5.65,5.87-8.07,5.93-12.79-.57-14.74-1.32-3-3.61-3.13-4.12"/></g><path class="cls-2" d="M231.87,32.38s5.41-8.83,7.5-10.12l-2.59-4.88,3.27,2.79s4.66-4.53,4.89-8.51l-3.78-3.75,3.9,1.76.79-1.42-3.16-4.2,3.92,2.56a17.56,17.56,0,0,0,3.56-10.13l-3-2.38,3.18,1s.29-7.59.87-9c0,0-12.29,8.64-16.16,17.66l2.76-.13L234.62,5S227.1,16.4,231.87,32.38Z"/><g class="cls-40"><path class="cls-41" d="M231,35.36s-1.5-25.93,20.85-49.19c0,0,3.94-7.5-5.53-5.32s-20.57,5.81-24.76,10.46-5.57,4.77-5.67,13-1.39,21.9.45,26.57,4.07,7,5.15,7.82,4.88.79,6,.72"/></g><path class="cls-42" d="M251.37-13.86a107.62,107.62,0,0,0-7.61,10.42A92.91,92.91,0,0,0,237.5,7.81c-.9,1.94-1.74,3.92-2.48,5.93s-1.33,4.08-1.87,6.16a45.31,45.31,0,0,0-1.34,12.77,38.81,38.81,0,0,1-.12-6.47,49.69,49.69,0,0,1,.95-6.42,61.76,61.76,0,0,1,4.24-12.26,86.3,86.3,0,0,1,6.44-11.25A80.44,80.44,0,0,1,251.37-13.86Z"/><path class="cls-2" d="M291.86,15.16s-9.25-4.65-11.72-4.64L279.77,5l-1.3,4.1s-6.35-1.39-8.65-4.65l1.24-5.18-2.39,3.55L267.25,2l.48-5.24-2,4.25a17.61,17.61,0,0,1-8.37-6.73l1.27-3.59-2.2,2.49s-4.26-6.29-5.47-7.16c0,0,15,.86,23,6.48L271.6-6.11l3.48-.54S287.48-.93,291.86,15.16Z"/><g class="cls-43"><path class="cls-41" d="M294.18,17.23s-12.4-22.82-43.66-30.79c0,0-7.31-4.29,1.89-7.44S273-26.91,279-25.17s7.25,1.11,11.69,8.06S303.37.76,304.28,5.7s.21,8.06-.25,9.36-3.73,3.25-4.75,3.78"/></g><path class="cls-42" d="M250.9-13.84a81.44,81.44,0,0,1,12.18,4.36,86,86,0,0,1,11.41,6.17,61.73,61.73,0,0,1,10.07,8.17,50.74,50.74,0,0,1,4.19,5,39.63,39.63,0,0,1,3.32,5.56,45.71,45.71,0,0,0-7.88-10.14C282.63,3.75,281,2.32,279.35,1s-3.44-2.56-5.24-3.73A92.16,92.16,0,0,0,262.86-9,106.81,106.81,0,0,0,250.9-13.84Z"/><path class="cls-2" d="M272.21,30.12s-6-8.47-8.14-9.63l2.28-5-3.08,3s-4.94-4.22-5.42-8.19l3.54-4-3.79,2-.88-1.36,2.9-4.39-3.76,2.8a17.62,17.62,0,0,1-4.2-9.88l2.81-2.56L251.36-6s-.78-7.56-1.44-8.9c0,0,12.82,7.85,17.25,16.61l-2.76,0L267.73,3S276,13.87,272.21,30.12Z"/><g class="cls-44"><path class="cls-41" d="M273.27,33s-.14-26-23.93-47.76c0,0-4.41-7.24,5.19-5.66s20.89,4.49,25.37,8.86,5.86,4.41,6.49,12.63,2.77,21.77,1.23,26.55S284,34.85,283,35.77s-4.83,1.11-6,1.1"/></g><path class="cls-42" d="M249.81-14.8a81.34,81.34,0,0,1,8.67,9.6,86.51,86.51,0,0,1,7.15,10.82,62.48,62.48,0,0,1,5,12A50.72,50.72,0,0,1,272,23.93a41.23,41.23,0,0,1,.29,6.47,45.65,45.65,0,0,0-2.15-12.66c-.68-2-1.4-4.06-2.26-6S266.06,7.83,265,6a94,94,0,0,0-7-10.83A107.21,107.21,0,0,0,249.81-14.8Z"/><path class="cls-3" d="M251.38-12.49s-8.06-.61-13.7,5l-1.53-3.11L236-6.67S227.91-1,226,3.4l-3.66-.33,1.87,2.25-4.51.61,2.21,2s-3.93,5-4.25,7.18c0,0-4.26-10.31,3.27-22.52l3.13-.56-2.22-.51S233.32-21.08,251.38-12.49Z"/><g class="cls-45"><path class="cls-46" d="M252.86-12.26s-37.47-9.72-35,27.87c0,0-16.2,1.29-17.29-10.68s6.18-26.77,10.9-32,15.46-13.8,24.08-13.72,18.86,4.76,22.3,9S262.32-22,262-20.52"/></g><path class="cls-42" d="M251.35-12.59a40.85,40.85,0,0,0-6.52-.68,38.39,38.39,0,0,0-6.52.3,24.74,24.74,0,0,0-12,4.59,20.46,20.46,0,0,0-7.1,10.58,32.09,32.09,0,0,0-1.29,6.38c-.11,1.09-.16,2.18-.24,3.27v3.28l-.14-3.28c0-1.1,0-2.2.09-3.29a32.67,32.67,0,0,1,1.14-6.5A20.78,20.78,0,0,1,226-8.87a24.88,24.88,0,0,1,12.3-4.56A39.23,39.23,0,0,1,251.35-12.59Z"/><path class="cls-31" d="M34.73,48.58c0,1.71-1.23,10-1.23,10-7.3,57.73-.66,63.27-.66,63.27-1.39,1.78-4.38,1-4.38,1-3.29-.31-3.58-1.81-3.58-1.81-1-27,5.49-62.52,5.49-62.52s1.76-8.88,2-10Z"/><path class="cls-47" d="M34.73,48.58c0,1.71-1.23,10-1.23,10-7.3,57.73-.66,63.27-.66,63.27-1.39,1.78-4.38,1-4.38,1-3.29-.31-3.58-1.81-3.58-1.81-1-27,5.49-62.52,5.49-62.52s1.76-8.88,2-10Z"/><g class="cls-48"><path class="cls-49" d="M32.06,111.69s-5.59-.79-8.18,1.39"/><path class="cls-49" d="M30.64,99.55s-4.35-1.59-7,1"/><path class="cls-49" d="M31,87a4.64,4.64,0,0,0-5.06.09"/><path class="cls-49" d="M32,76.06a4.36,4.36,0,0,0-4.68-.52"/><path class="cls-49" d="M33.1,65.79a3.15,3.15,0,0,0-4.33-.41"/><path class="cls-49" d="M34.24,55.94s-1.9-2-3.78-.22"/></g><path class="cls-4" d="M34.73,48.58c0,1.71-1.23,10-1.23,10-7.3,57.73-.66,63.27-.66,63.27-1.39,1.78-4.38,1-4.38,1-3.29-.31-3.58-1.81-3.58-1.81-1-27,5.49-62.52,5.49-62.52s1.76-8.88,2-10Z"/><ellipse class="cls-35" cx="36.92" cy="51.79" rx="2.82" ry="3.38" transform="translate(-5.64 4.53) rotate(-6.52)"/><ellipse class="cls-36" cx="32.01" cy="50.72" rx="3.38" ry="2.82" transform="translate(-27.19 60.38) rotate(-67.01)"/><ellipse class="cls-37" cx="32.38" cy="55.6" rx="3.38" ry="2.82" transform="translate(-28.04 77.72) rotate(-79.9)"/><path class="cls-5" d="M30.3,38.08c-.2,0-.14,3.3-.84,5a5.19,5.19,0,0,0-.21,4.34,3.72,3.72,0,0,0,2.37,2.27c.87.36,3.58-.27,3.58-.27s1-1.45,1.47-1.63a3.12,3.12,0,0,0,1.41-1.84c.3-.88,1-2,.86-2.61s-3.35-3.58-3.35-3.58l2-2.74"/><g class="cls-50"><path class="cls-39" d="M39.31,46a4.63,4.63,0,0,0-5.84-2.21c-4,1.51-4.63-2.19-4.63-2.19S25.13,47.14,25.72,49s3.39,3.51,4.84,3.55,7.65-.34,8.82-.79a4,4,0,0,0,1.87-2.47"/></g><path class="cls-51" d="M34.73,42.41s-8-1.06-10,0l-1-1.55-.11,1.44s-6.13.46-8.24,2.38V43.45l-.61,1.47a29.55,29.55,0,0,0-4.83,2.22,12.85,12.85,0,0,1,10.2-7.47l-.19.52,1.67-.89A23.91,23.91,0,0,1,34.73,42.41Z"/><path class="cls-42" d="M34.69,42.41a21.84,21.84,0,0,0-3.26-1.08,27.61,27.61,0,0,0-3.34-.72,23.85,23.85,0,0,0-6.8-.12,16.48,16.48,0,0,0-6.39,2.19c-.48.3-1,.58-1.44.91L12.15,44.7a7.63,7.63,0,0,0-1.21,1.2L9.79,47.18a17.27,17.27,0,0,1,4.94-4.77,16.27,16.27,0,0,1,6.5-2.32,23.2,23.2,0,0,1,6.91.21A25.33,25.33,0,0,1,34.69,42.41Z"/><path class="cls-51" d="M35,43s7.17-3.6,9.44-3.31l.42-1.79.58,1.34s5.94-1.57,8.56-.44l-.38-1.14,1.06,1.2a29.72,29.72,0,0,1,5.29.52,12.84,12.84,0,0,0-12.08-3.73l.35.43-1.87-.3A23.88,23.88,0,0,0,35,43Z"/><path class="cls-42" d="M35.06,43a25.32,25.32,0,0,1,5.51-4.12A22.64,22.64,0,0,1,47,36.41a16.38,16.38,0,0,1,6.9.07,17.26,17.26,0,0,1,6.23,2.9l-1.5-.84a8.08,8.08,0,0,0-1.54-.74l-1.59-.62c-.55-.15-1.11-.26-1.66-.39a16.73,16.73,0,0,0-6.76,0,23.62,23.62,0,0,0-6.38,2.33,27.27,27.27,0,0,0-2.94,1.77A23.86,23.86,0,0,0,35.06,43Z"/><path class="cls-2" d="M46,69.7s-3.24-5.29-4.49-6.06L43,60.72l-2,1.67s-2.79-2.71-2.93-5.1l2.26-2.24L38.08,56.1l-.48-.85,1.9-2.51-2.35,1.53A10.46,10.46,0,0,1,35,48.21l1.77-1.43-1.9.57A36.82,36.82,0,0,0,34.37,42S41.72,47.16,44,52.56l-1.65-.08,1.94.83A20.6,20.6,0,0,1,46,69.7Z"/><g class="cls-52"><path class="cls-41" d="M46.5,71.48S47.4,56,34,42c0,0-2.36-4.49,3.31-3.18s12.31,3.47,14.82,6.25,3.33,2.86,3.4,7.79.82,13.11-.27,15.91a11.19,11.19,0,0,1-3.09,4.68c-.64.51-2.92.47-3.61.42"/></g><path class="cls-42" d="M34.3,42a49.21,49.21,0,0,1,4.81,6.06A54.11,54.11,0,0,1,43,54.82a39.75,39.75,0,0,1,2.54,7.33,26.38,26.38,0,0,1,.5,7.72,29.8,29.8,0,0,0-.81-7.65A43.3,43.3,0,0,0,42.6,55a57.44,57.44,0,0,0-3.75-6.73A61.79,61.79,0,0,0,34.3,42Z"/><path class="cls-2" d="M10.06,59.39s5.55-2.78,7-2.78l.22-3.3.78,2.45s3.8-.83,5.18-2.78l-.75-3.1L23.94,52l.86-.46-.29-3.14,1.19,2.54a10.48,10.48,0,0,0,5-4L30,44.77l1.32,1.49A37.21,37.21,0,0,1,34.54,42s-9,.52-13.79,3.88l1.44.81-2.08-.33A20.67,20.67,0,0,0,10.06,59.39Z"/><g class="cls-53"><path class="cls-41" d="M8.68,60.63S16.1,47,34.81,42.2c0,0,4.38-2.57-1.13-4.45s-12.29-3.54-15.89-2.5-4.34.66-7,4.82S3.17,50.77,2.63,53.73a11.25,11.25,0,0,0,.15,5.6c.28.77,2.24,1.94,2.84,2.26"/></g><path class="cls-42" d="M34.59,42a62.75,62.75,0,0,0-7.16,2.91,57.43,57.43,0,0,0-6.74,3.73,42.78,42.78,0,0,0-6,4.78,30,30,0,0,0-4.72,6.07,26.34,26.34,0,0,1,4.5-6.3,40.54,40.54,0,0,1,6-4.89,52.23,52.23,0,0,1,6.83-3.68A49.47,49.47,0,0,1,34.59,42Z"/><path class="cls-2" d="M21.83,68.34s3.57-5.07,4.87-5.76l-1.37-3,1.85,1.79s3-2.53,3.25-4.9l-2.12-2.38,2.26,1.19.53-.81-1.73-2.63,2.24,1.68a10.5,10.5,0,0,0,2.52-5.92l-1.69-1.53,1.87.69a35.87,35.87,0,0,1,.86-5.33s-7.67,4.7-10.33,9.95l1.66,0-2,.7A20.64,20.64,0,0,0,21.83,68.34Z"/><g class="cls-54"><path class="cls-41" d="M21.19,70.09s.09-15.55,14.32-28.59c0,0,2.64-4.34-3.1-3.39S19.9,40.8,17.22,43.42s-3.5,2.63-3.88,7.55-1.66,13-.74,15.89a11.23,11.23,0,0,0,2.78,4.87c.61.55,2.89.66,3.58.65"/></g><path class="cls-42" d="M35.24,41.46A62.22,62.22,0,0,0,30.3,47.4a57.16,57.16,0,0,0-4.17,6.48,42.8,42.8,0,0,0-3.06,7,30.39,30.39,0,0,0-1.29,7.58,26.24,26.24,0,0,1,1-7.67,40.46,40.46,0,0,1,3-7.16,51.74,51.74,0,0,1,4.28-6.47A48,48,0,0,1,35.24,41.46Z"/><path class="cls-3" d="M34.38,42.9a12.08,12.08,0,0,0-8.13-4.37l.83-2-1.91,1.58s-6.07-1.47-9-.5l-1.38-1.87-.28,1.82-2.19-1.87,0,1.89s-4,.26-5.18,1c0,0,3.08-6.35,12-7.92l1.58,1.25-.69-1.27S30.86,30.75,34.38,42.9Z"/><g class="cls-55"><path class="cls-46" d="M34.89,43.7S23.75,21.89,7,38.84c0,0-7.41-7.12-2.21-12.67S20.05,17.85,24.5,17.9s13,1.51,16.6,5.63,5.67,10.92,5.09,14.34-2.7,6.2-3.56,6.68"/></g><path class="cls-42" d="M34.41,42.84A25.05,25.05,0,0,0,32,39.48a23.71,23.71,0,0,0-2.88-3,15.66,15.66,0,0,0-7.21-3.75,13,13,0,0,0-8,1.08,25.44,25.44,0,0,0-6.76,4.71,23.24,23.24,0,0,1,6.64-5A13.12,13.12,0,0,1,22,32.39a15.67,15.67,0,0,1,7.33,3.91A24.68,24.68,0,0,1,34.41,42.84Z"/><path class="cls-3" d="M34.3,42.84a11.4,11.4,0,0,1,8.2,3L43.41,44l.08,2.34s4.85,3.38,6,6l2.19-.2L50.55,53.5l2.7.37-1.33,1.2s2.35,3,2.54,4.3c0,0,2.56-6.17-2-13.48l-1.87-.33L52,45.25S45.1,37.7,34.3,42.84Z"/><g class="cls-56"><path class="cls-46" d="M33.41,43s22.43-5.82,21,16.68c0,0,9.7.77,10.35-6.4s-3.69-16-6.52-19.13-9.25-8.27-14.41-8.22-11.29,2.85-13.35,5.41S27.75,37.13,28,38"/></g><path class="cls-42" d="M34.32,42.78a23.15,23.15,0,0,1,7.83-.5A14.86,14.86,0,0,1,49.52,45a12.44,12.44,0,0,1,4.3,6.54,22,22,0,0,1,.64,7.82,24,24,0,0,0-.91-7.74A12.31,12.31,0,0,0,49.3,45.3a14.85,14.85,0,0,0-7.18-2.75,26,26,0,0,0-7.8.23Z"/><path class="cls-2" d="M26.89,18.55s.76,5.15.37,6.32l2.58,1-2.16,0s-.34,3.25.86,4.86L31.2,31l-2.06.58.15.81,2.57.59-2.34.28a8.84,8.84,0,0,0,1.9,5.05l1.91,0-1.53.66a31.75,31.75,0,0,1,2.56,3.73s1.94-7.29.52-12l-1,.94.8-1.58A17.31,17.31,0,0,0,26.89,18.55Z"/><g class="cls-57"><path class="cls-41" d="M26.27,17.12s8.94,9.5,7.83,25.67c0,0,.91,4.16,3.85.26s6-8.87,6.16-12,.61-3.63-2-6.84-6.53-8.88-8.75-10.09a9.26,9.26,0,0,0-4.5-1.35c-.69,0-2.14,1.27-2.56,1.67"/></g><path class="cls-42" d="M34.3,42.65a53.64,53.64,0,0,0-.44-6.46,48.88,48.88,0,0,0-1.22-6.36,35.48,35.48,0,0,0-2.22-6.06,25,25,0,0,0-3.6-5.35,22,22,0,0,1,3.84,5.23A34.25,34.25,0,0,1,33,29.74,43.61,43.61,0,0,1,34.3,42.65Z"/><path class="cls-2" d="M49.63,26.64s-3.11,2.54-4,2.75l.33,2.12-.85-1.44s-2.28,1.07-2.87,2.5l.91,1.85L41.9,33.28l-.47.42.62,1.94-1.11-1.43a6.77,6.77,0,0,0-2.6,3.26l.79,1.25L38.08,38a23,23,0,0,1-1.46,3.18s5.61-1.6,8.18-4.42l-1-.3,1.36-.09A13.4,13.4,0,0,0,49.63,26.64Z"/><g class="cls-58"><path class="cls-41" d="M50.33,25.66S47.58,35.36,36.42,41c0,0-2.4,2.25,1.35,2.66s8.28.49,10.41-.68,2.65-1,3.74-4,3.3-7.85,3.22-9.8a7.33,7.33,0,0,0-.89-3.52,5.24,5.24,0,0,0-2.12-1"/></g><path class="cls-42" d="M36.59,41.1a41.24,41.24,0,0,0,4.11-2.85,38,38,0,0,0,3.73-3.32,28.49,28.49,0,0,0,3.14-3.88,19.38,19.38,0,0,0,2.12-4.51,17.07,17.07,0,0,1-1.95,4.62,25.81,25.81,0,0,1-3.12,3.95A33.31,33.31,0,0,1,36.59,41.1Z"/><path class="cls-2" d="M41.24,16s-2.15,5.35-3.18,6.26l1.88,2.43-2-1.22S35.75,26.36,36,28.56l2.42,1.7-2.3-.59-.3.85,2.13,2-2.4-1a9.78,9.78,0,0,0-1,5.89l1.85,1-1.83-.23a33.5,33.5,0,0,1,.36,5s5.94-5.89,7.22-11.2l-1.5.33,1.65-1.06A19.22,19.22,0,0,0,41.24,16Z"/><g class="cls-59"><path class="cls-41" d="M41.44,14.26s3.25,14.08-6.85,28.93c0,0-1.46,4.49,3.53,2.4s10.75-5.1,12.61-8.05,2.61-3.13,1.9-7.66S51.35,17.73,49.9,15.34a10.36,10.36,0,0,0-3.55-3.81c-.67-.37-2.75,0-3.38.17"/></g><path class="cls-42" d="M34.85,43.17a60.13,60.13,0,0,0,3.2-6.43A55.92,55.92,0,0,0,40.44,30a40,40,0,0,0,1.26-7,27.56,27.56,0,0,0-.46-7.13A24.21,24.21,0,0,1,42,23a38.08,38.08,0,0,1-1.18,7.12A47.86,47.86,0,0,1,34.85,43.17Z"/><path class="cls-60" d="M-31.21,137.16s-31.18,16.12-29.95-3S-31.21,128-31.21,128-58,115.62-42.3,107.79s21.54,14.41,21.54,14.41-10.45-20.29,7.83-20.29,5.17,24.15,5.17,24.15,11.1-26.94,24.2-12.4S-1.34,130-1.34,130s26.91-7.23,30.18,5.17S4,138.46,4,138.46s15,10.9,3.91,10.67-13.7,3-18.92-7.4c0,0-1.53,11.51-17.08,7.71S-35.12,139.12-31.21,137.16Z"/><path class="cls-60" d="M35.35,133.16s-20,10.32-19.17-1.94,19.17-3.9,19.17-3.9-17.13-7.94-7.1-12.95S42,123.59,42,123.59s-6.68-13,5-13,3.31,15.45,3.31,15.45,7.11-17.24,15.49-7.93S54.46,128.6,54.46,128.6s17.23-4.63,19.32,3.31S57.9,134,57.9,134s9.61,7,2.51,6.83-8.77,1.94-12.11-4.74c0,0-1,7.37-10.93,4.94S32.84,134.42,35.35,133.16Z"/><path class="cls-60" d="M186,133.16s-20,10.32-19.17-1.94,19.17-3.9,19.17-3.9-17.13-7.94-7.11-12.95,13.79,9.22,13.79,9.22-6.68-13,5-13S201,126.06,201,126.06s7.1-17.24,15.49-7.93-11.38,10.47-11.38,10.47,17.22-4.63,19.31,3.31S208.52,134,208.52,134s9.61,7,2.51,6.83-8.77,1.94-12.12-4.74c0,0-1,7.37-10.93,4.94S183.46,134.42,186,133.16Z"/><path class="cls-60" d="M273.57,130.22s-27,14-25.91-2.62,25.91-5.28,25.91-5.28-23.15-10.73-9.6-17.51,18.64,12.47,18.64,12.47-9-17.55,6.78-17.55,4.47,20.89,4.47,20.89,9.6-23.31,20.94-10.73-15.39,14.17-15.39,14.17,23.29-6.26,26.12,4.47-21.46,2.82-21.46,2.82,13,9.43,3.39,9.23-11.86,2.63-16.38-6.4c0,0-1.32,10-14.78,6.67S270.19,131.92,273.57,130.22Z"/><rect class="cls-7" x="272.73" y="-11.89" width="125.62" height="137.61"/><g class="cls-61"><rect class="cls-62" x="254.36" y="-7.17" width="156.73" height="10.66"/></g><polygon class="cls-63" points="415.87 -1.85 377.96 -1.85 340.47 -1.85 301.04 -1.85 256.55 -1.85 291.8 -35.93 375.8 -35.93 415.87 -1.85"/><rect class="cls-64" x="-11.2" y="83.33" width="48.47" height="42.3"/><polygon class="cls-8" points="36.81 69.68 23.11 69.68 4.21 69.68 -9.49 69.68 -22.02 88.81 4.21 88.81 23.11 88.81 49.33 88.81 36.81 69.68"/><g class="cls-65"><rect class="cls-66" x="-7.6" y="62.59" width="0.94" height="50.01" transform="translate(43.07 15.46) rotate(30.18)"/><rect class="cls-66" x="-0.04" y="62.59" width="0.94" height="50.01" transform="translate(44.09 11.66) rotate(30.18)"/><rect class="cls-66" x="7.52" y="62.59" width="0.94" height="50.01" transform="translate(45.11 7.86) rotate(30.18)"/><rect class="cls-66" x="15.08" y="62.59" width="0.94" height="50.01" transform="translate(46.14 4.06) rotate(30.18)"/><rect class="cls-66" x="22.64" y="62.59" width="0.94" height="50.01" transform="translate(47.16 0.26) rotate(30.18)"/><rect class="cls-66" x="30.19" y="62.59" width="0.94" height="50.01" transform="translate(48.19 -3.54) rotate(30.18)"/><rect class="cls-66" x="37.75" y="62.59" width="0.94" height="50.01" transform="translate(49.21 -7.34) rotate(30.18)"/><rect class="cls-66" x="45.31" y="62.59" width="0.94" height="50.01" transform="translate(50.24 -11.14) rotate(30.18)"/><rect class="cls-66" x="52.87" y="62.59" width="0.94" height="50.01" transform="translate(51.26 -14.94) rotate(30.18)"/></g><polygon class="cls-9" points="-5.26 125.74 -49.34 125.74 -52.34 26.98 -2.26 26.98 -5.26 125.74"/><g class="cls-67"><rect class="cls-68" x="-59.67" y="24.03" width="61.42" height="7.32"/></g><polygon class="cls-8" points="-4.15 9.27 -17.85 9.27 -36.75 9.27 -50.45 9.27 -62.98 28.4 -36.75 28.4 -17.85 28.4 8.37 28.4 -4.15 9.27"/><g class="cls-69"><rect class="cls-66" x="-10.76" y="2.18" width="0.94" height="50.01" transform="translate(12.27 8.86) rotate(30.18)"/><rect class="cls-66" x="-3.2" y="2.18" width="0.94" height="50.01" transform="matrix(0.86, 0.5, -0.5, 0.86, 13.29, 5.06)"/><rect class="cls-66" x="4.35" y="2.18" width="0.94" height="50.01" transform="translate(14.32 1.26) rotate(30.18)"/><rect class="cls-66" x="11.91" y="2.18" width="0.94" height="50.01" transform="translate(15.34 -2.54) rotate(30.18)"/></g><rect class="cls-70" x="23.65" y="122.17" width="4.84" height="2.36" rx="0.9"/><rect class="cls-70" x="26.49" y="119.41" width="4.84" height="2.36" rx="0.9"/><rect class="cls-70" x="28.92" y="122.06" width="4.84" height="2.36" rx="0.9"/><circle class="cls-71" cx="15.83" cy="105.69" r="8.22"/><circle class="cls-10" cx="15.81" cy="104.51" r="7.8"/><g class="cls-72"><path class="cls-73" d="M16.14,95.17a13.58,13.58,0,0,0-2.21,3.43,4.88,4.88,0,0,0,0,4,4.84,4.84,0,0,1,.75,1.53,3.28,3.28,0,0,1-.78,2.12,20.07,20.07,0,0,0-2.35,5.11,2,2,0,0,0,.07,1.78,1.52,1.52,0,0,0,.87.51,3.68,3.68,0,0,0,3.69-1.76,10.1,10.1,0,0,0,1.29-4.12,7.19,7.19,0,0,0-.15-4,13.12,13.12,0,0,1-.63-1.31,4.14,4.14,0,0,1,.69-3.15,8.47,8.47,0,0,0,1.36-3,.94.94,0,0,0,0-.41c-.13-.37-.61-.45-1-.4a2.1,2.1,0,0,1-1.14,0"/></g></g><rect class="cls-74" x="-55.39" y="120.31" width="370.81" height="40.31"/><rect class="cls-74" x="-55.39" y="148.04" width="370.81" height="40.31"/><rect class="cls-75" x="-55.39" y="131.99" width="370.81" height="32.21"/><rect class="cls-76" x="-55.39" y="138.92" width="370.81" height="32.21"/></g></svg>