<svg id="Layer_1" data-name="Layer 1" xmlns="http://www.w3.org/2000/svg" viewBox="0 0 759.79 1107.08">
  <defs>
    <style>
      .cls-1 {
        fill: #0c0807;
      }

      .cls-2 {
        fill: #a56737;
      }

      .cls-3 {
        fill: #488dcb;
      }

      .cls-4 {
        fill: #a46636;
      }

      .cls-5 {
        fill: #d42027;
      }

      .cls-6 {
        fill: #21b14b;
      }

      .cls-7 {
        fill: #fde500;
      }

      .cls-8 {
        fill: #9a5b2a;
      }

      .cls-9 {
        fill: #6c401d;
      }

      .cls-10 {
        fill: #faf8f7;
      }

      .cls-11 {
        fill: #522f27;
      }

      .cls-12 {
        fill: #060504;
      }

      .cls-13 {
        fill: #600b0c;
      }

      .cls-14 {
        fill: #f2ecec;
      }

      .cls-15 {
        fill: #fff;
      }

      .cls-16 {
        fill: #734725;
      }
    </style>
  </defs>
  <title>AkiliWaving</title>
  <g>
    <path class="cls-1" d="M1479.07,1325.43c.37,0,.85,0,1.1.15,15.76,11.89,35.6,15.72,52,26.37,4.72,3.07,9.4,6.2,14.1,9.29,19.56,12.86,19.19,42.4,9.26,54.68-7.78,9.62-18.19,13.56-29.72,15.4-26.71,4.25-52.34.65-76.64-11.37-2.59-1.28-5-1.15-7.6-.84-14.87,1.77-28.86-1.29-36-15.16-8.48-16.53-13.79-34.46-7.85-53.55,7.67,9.23,17.37,15.75,28,21.13,3.08,1.56,5,1.32,6.78-1.92,7.69-13.85,18.88-24.47,31.42-33.9C1468.79,1332,1474.64,1329.78,1479.07,1325.43Zm6,63.56a40.69,40.69,0,0,0,18.69-5.72c11.32-6.38,16.55-17.59,7.57-30.07-4-5.61-9.44-9.56-14.55-14-2.47-2.12-4.71-2.13-7.68-.9-18.83,7.81-29.44,23.67-39.65,40-1.11,1.77-.49,2.83,1.3,3.36C1462,1385,1472.89,1389.91,1485,1389Z" transform="translate(-901.88 -325.95)"/>
    <path class="cls-2" d="M1479.07,1325.43c-4.43,4.35-10.28,6.59-15.18,10.28-12.54,9.43-23.73,20-31.42,33.9-1.79,3.24-3.7,3.48-6.78,1.92-10.6-5.38-20.3-11.9-28-21.13,1.53-16.85-4.42-32.47-7.93-48.49-2-9.32-4-18.65-6-28,22.93,0,45.52-2.26,67.26-10.18,6.25,16.07,11.23,32.63,19.24,48C1472.81,1316.62,1476.2,1320.84,1479.07,1325.43Z" transform="translate(-901.88 -325.95)"/>
    <g>
      <path class="cls-1" d="M1265.28,1341.89c2.27-.4,2.41,1.37,2.57,2.76,1.82,15.81.49,31.15-8,45-8.81,14.33-22.5,18.06-38.09,15.84a34.93,34.93,0,0,0-18.41,2.06c-20.27,7.75-41.23,7.22-62.16,3-11-2.26-22-5-31.39-11.77-22.59-16.36-16-45.49-1.94-57.38,9.21-7.8,20.28-12.15,31.39-16.23a238.93,238.93,0,0,1,26.34-8.22c7.59-1.82,14.45-5.07,21.34-8.43,16.66,12.56,30.76,27.3,39.73,46.43,3.27,7,3.36,7.15,10.29,4.21C1247.2,1354.82,1257.86,1351,1265.28,1341.89Zm-94.35,28.37c9.31,2.51,17.1,1.07,24.87-.28,4.79-.84,11.81.06,13.75-3.24,2.31-3.92-2.65-9.13-4.87-13.5-6.69-13.17-14.73-25.34-28-33.07-2.38-1.38-4.52-2.44-7.3-.87-5.91,3.33-11.76,6.71-16.58,11.57-9.35,9.41-9.49,19.05-.4,28.69C1157.9,1365.37,1165.08,1368.11,1170.93,1370.26Z" transform="translate(-901.88 -325.95)"/>
      <path class="cls-2" d="M1265.28,1341.89c-7.42,9.09-18.08,12.93-28.37,17.27-6.93,2.94-7,2.78-10.29-4.21-9-19.13-23.07-33.87-39.73-46.43,9.51-7.47,14-18.37,19.42-28.63,7-13.45,13.78-27.08,20.64-40.63,10.74,3.61,21,8.54,32.27,10.71,10.23,2,20.43,4.07,30.65,6.12-6.79,19.68-14.25,39.14-19.61,59.3A149.18,149.18,0,0,0,1265.28,1341.89Z" transform="translate(-901.88 -325.95)"/>
      <path class="cls-2" d="M1170.93,1370.26c-5.85-2.15-13-4.89-18.49-10.7-9.09-9.64-9-19.28.4-28.69,4.82-4.86,10.67-8.24,16.58-11.57,2.78-1.57,4.92-.51,7.3.87,13.23,7.73,21.27,19.9,28,33.07,2.22,4.37,7.18,9.58,4.87,13.5-1.94,3.3-9,2.4-13.75,3.24C1188,1371.33,1180.24,1372.77,1170.93,1370.26Z" transform="translate(-901.88 -325.95)"/>
    </g>
    <path class="cls-2" d="M1485,1389c-12.13.92-23.06-4-34.32-7.3-1.79-.53-2.41-1.59-1.3-3.36,10.21-16.31,20.82-32.17,39.65-40,3-1.23,5.21-1.22,7.68.9,5.11,4.39,10.51,8.34,14.55,14,9,12.48,3.75,23.69-7.57,30.07A40.69,40.69,0,0,1,1485,1389Z" transform="translate(-901.88 -325.95)"/>
    <path d="M1309.69,769.13s51.16,39.6,66.86,74.27c0,0-1.65-66.89,1.36-85.88,0,0,36.26,61.68,85.45,69.59,0,0-43.69-32.58-33.27-92.7,0,0,85.83-34.75,124.33-112.7,0,0-34.23-81.84-46.09-96,0,0,23.13-65.1.44-97.55,0,0-68.44-39.62-110.3-31.56,0,0-29.54-51.22-89.51-70.61,0,0-93.23,17.24-117,64.79,0,0-95.88,19.84-110.12,24.91,0,0-30.7,61.8-13,104.08,0,0-36.91,55.34-33.92,83,0,0,41.64,70,90.92,91.52s-9.51,130.44-9.51,130.44,52.15-47.18,83.44-56.85c0,0-11.8,34-16.54,67.23C1183.21,835,1245,753.7,1309.69,769.13Z" transform="translate(-901.88 -325.95)"/>
    <path class="cls-3" d="M1197.45,1270s33.67,8.22,68.34,1.46,44.87-5,51.52-4.2,57.73,10.09,82.36,7,56.43-3.63,73.57-23.61a731.44,731.44,0,0,1-20.11-95c-7.39-52.26-24.16-115.74-36.31-148.86s-19.88-121.68-19.88-121.68,3.17-52.39-9.35-69.74c-13.56-18.79-80.19-22.77-95.18-24.86-39.59-5.55-78.23,18.16-88.54,22.61s-8.84,103.64-8.32,123.67,9.44,103,9,131-4.51,87.32-2.8,116.23S1197.45,1270,1197.45,1270Z" transform="translate(-901.88 -325.95)"/>
    <g>
      <path class="cls-4" d="M933,620.94c13.48,11,23.12,24.35,36.43,40.13.73.86,2.35.37,2.19-.74-1.58-11-10.54-32.31-6.56-46.76a5.64,5.64,0,0,1,4.87-3.88c4-.42,6.65,4.75,8.72,8.76l13.9,43.2c1.38,3.15,1.39,5.27,3.3,4.82s0-3.77.23-5.25c1.08-8.57,1.62-9.69,1.74-18.33a32.4,32.4,0,0,1,2.91-7.91c2.58-3.16,7.1-2,8.84,1.27,3.43,6.38,4.4,13.75,5.32,20.94,1.4,11,2.48,22.39,3.88,33.41.73,5.79.46,10.51,4.69,15.36,5.29,6.08,12.35,14.6,18.13,20.23,29.42,28.67,52.39,48.55,88,70.66,6.84,4.25,16.3,8.69,16.58,16.74a16.46,16.46,0,0,1-2.28,8.46c-3.11,5.69-7.39,9.92-13.62,11.74-12.84,3.75-25.52-4.18-38-10.89a858.47,858.47,0,0,1-104.55-66.25c-6.11-4.52-11.35-10.62-18.84-11.86-15.12-2.51-32.11-4.49-46.43-11.65a7.49,7.49,0,0,1-3.73-9.62c1.57-3.45,5-5.17,8.74-6a123.09,123.09,0,0,0,17.19-5.2c3.54-2.81-3-8.6-7.75-11.26-10.43-5.88-19.48-13.51-27.84-22.09-4.1-4.2-9.62-9.3-6-13.93,2-2.54,7-1.86,10.1-1s8.86,3.68,11.71,5.15c10.07,5.23,14.9,7.8,24.77,11.82,2.6-.78-6.65-14.05-16.5-31.88-.68-1.22-15.61-26.71-10.09-30.63C925.48,616.7,930.69,619,933,620.94Z" transform="translate(-901.88 -325.95)"/>
      <path class="cls-3" d="M1169.3,868.1a29.06,29.06,0,0,1-9-4.15c-5.7-3.74-2.89,1.23-8.49-3.84-7.4-6.71-16.35-11.4-25.76-14.75-1.94-.7-4-1.43-5.36-3-1-1.12-1.36-4.43-1.37-5.93-.11-11,3.08-18.74,9-27.51,3.45-5.14,7.37-9.57,11.1-14.5,1.83-2.4,3.53-4.41,6.53-4.67,1.65-.15,5.79.92,7.36,1.45,9.62,3.24,17.68,3.77,27.78,4.81,11.12,1.14,19.49,3.8,27.13,10.48,5.18,4.53,8.84,10.54,11.74,16.78,3.56,7.67,1.91,3.82,1.72,12.28s-3.39,17.09-9.78,22.63c-3.6,3.13-8,5.15-12.36,7.12-4.79,2.18-9.7,4.39-15,4.85S1174.29,869.37,1169.3,868.1Z" transform="translate(-901.88 -325.95)"/>
    </g>
    <g>
      <path class="cls-4" d="M1656.29,1026.26c-14.39-9.8-29.91-15.27-48.81-23.55-1-.45-1-2.15.09-2.31,11-1.61,34,.94,46.69-7a5.62,5.62,0,0,0,2.34-5.77c-.72-3.94-6.44-5-10.87-5.87l-45.37-1.08c-3.41-.43-5.45.16-5.55-1.79s3.6-1.12,5-1.71c7.92-3.47,8.83-4.3,17.09-6.87a33.19,33.19,0,0,0,6.76-5c2.3-3.38-.13-7.37-3.73-8.12-7.09-1.48-14.44-.32-21.59.84-11,1.78-22.18,4-33.14,5.75-5.76.94-10.2,2.54-16.05-.14-7.34-3.35-17.51-7.7-24.54-11.65-35.85-20.07-61.42-36.46-92.72-64.33-6-5.36-13-13.17-20.76-11.15a16.57,16.57,0,0,0-7.47,4.58c-4.57,4.61-7.42,9.91-7.39,16.4,0,13.37,11.25,23.28,21.22,33.34a858,858,0,0,0,93.19,81.47c6.06,4.57,13.4,7.87,16.71,14.71,6.7,13.78,13.42,29.51,24.34,41.21a7.48,7.48,0,0,0,10.28.85c2.87-2.49,3.54-6.29,3.29-10.09a122.9,122.9,0,0,1,.11-18c1.69-4.19,9.11.48,13,4.24,8.6,8.33,18.49,14.85,29.08,20.44,5.2,2.73,11.66,6.58,15.07,1.8,1.87-2.61-.2-7.23-1.86-10s-6-7.45-8.26-9.76c-7.87-8.18-11.7-12.08-18.36-20.4,0-2.72,15.36,2.38,35.25,6.78,1.36.3,30,7.38,32.23,1C1662.49,1032.27,1658.77,1028,1656.29,1026.26Z" transform="translate(-901.88 -325.95)"/>
      <path class="cls-3" d="M1339.39,869.22a29.09,29.09,0,0,0,6.53,7.46c5.22,4.41,12.52,3.69,19,7.61,8.53,5.2,15.56,12.45,21.45,20.52,1.21,1.67,2.49,3.42,4.36,4.3,1.36.64,4.64,0,6.08-.36,10.59-3,17.09-8.27,23.84-16.39,4-4.76,7.09-9.78,10.75-14.76,1.79-2.43,3.24-4.63,2.63-7.58-.33-1.63-2.53-5.29-3.48-6.65-5.84-8.31-8.62-15.89-12.49-25.28-4.25-10.33-9.17-17.61-17.75-23-5.81-3.68-12.61-5.49-19.41-6.49-8.37-1.25-17.08-1.33-25.13,1.26s-15.43,8.1-18.93,15.8c-2,4.34-2.66,9.14-3.33,13.87-.73,5.21-1.45,10.55-.4,15.71S1336.76,864.79,1339.39,869.22Z" transform="translate(-901.88 -325.95)"/>
    </g>
    <polygon class="cls-5" points="467.19 475.27 445.62 472.36 320.72 477.89 308.82 482.59 318.63 546.97 461.01 537.12 467.19 475.27"/>
    <path class="cls-6" d="M1353.3,798.68l-17-3.52-100.48,3.13c-2.22.34-13.44,5.62-13.44,5.62l9.94,52.42,117.07-9.05Z" transform="translate(-901.88 -325.95)"/>
    <polygon class="cls-7" points="435.44 469.11 412.7 464.7 345.95 467.61 333.94 472.44 342.65 515.61 434.04 508.3 435.44 469.11"/>
    <path class="cls-4" d="M1256.71,828.86l-7.57-31.12s10.39-2.38,13.2-11.64,6.55-20.93,29.73-22.22c22.38-1.23,17.72,9.16,19.15,13.24a102.53,102.53,0,0,1,2.71,10.3s.6,6.35,8.34,7.69c5.78,1-1.22,26-1.22,26Z" transform="translate(-901.88 -325.95)"/>
    <path class="cls-8" d="M1485.64,593.22l-4.74-41.42s.64-5.48,4-8,17.37-14,17.37-14-18.13,1.36-24.5,5.6c-2.35.23-3.18,2.13-5.42-1.36S1443,491.66,1443,491.66s-49.64-26.41-56.28-31.31-8.25-6.36-6.33-14.79,7.75-28.7,9.1-32.37c0,0-19.63,33.54-21.66,38.17s-7.21,1.62-8.48,1.06-61.59-20.84-61.59-20.84-2-1.13-7.93-.2-56,11.17-64.81,15.85c-3.14.89-4.52,0-5.42-1.36s-22.3-23-26.7-32.44c0,0,10.58,29.17,10.76,34.51,1.51,5.17-2.26,4-3.44,5s-40.29,22.28-40.29,22.28L1135,525.52s-37.89-10.25-51.44-3.88c0,0,22.08-.65,41.25,11.72,0,0-10.13,22.65-8.77,32.77-10.24,63.7-2.59,103.63,6.36,129.09,19.39,44,73.69,82.75,106.54,97.08,50.2,18.9,75,17.67,126.13,3.87,16.38-13.41,75.38-22.27,114.44-113Z" transform="translate(-901.88 -325.95)"/>
    <path class="cls-8" d="M1481.14,683.74c-3.45.56-8.56.43-10.38-.77-2.68-1.75-4-5.73-5.3-8.64-6-13.24-2.86-28.61.37-42.78q1.49-6.45,3-12.9c1.31-5.76,2.65-11.57,5.26-16.87s6.9-10.4,12.31-12.76,9.07-2,15.05-1.33c5.24.63,13.1,2.73,17,6.28a25.27,25.27,0,0,1,7.74,13.72,76.05,76.05,0,0,1,1.23,23.47c-.66,7.22-4.18,14.7-7.37,21.22a66.37,66.37,0,0,1-17.2,22.2C1495.34,680.9,1489.58,682.35,1481.14,683.74Z" transform="translate(-901.88 -325.95)"/>
    <path class="cls-9" d="M1500.71,601.46c-2.31-.14-5-.49-7.16.35a47.11,47.11,0,0,0-9.83,4.73c-.09-2.67,2-4.57,4.67-7.64a15,15,0,0,1,4.62-3.59,16.87,16.87,0,0,1,8.62-1.38c9.17.73,16.32,7.55,19.32,16.25s-.71,18.43-4,27c-7.83,20.52-18.82,31.64-29.75,36.9-.48.23-10.22,6.19-14.25,2.71a7.91,7.91,0,0,1-1.24-1.69c-.86-1.76-2.24-5.12-1.1-8.38a7,7,0,0,1,7.09-5.06c-1.28,2.93-1.35,6.24,1.2,8.17a5.18,5.18,0,0,0,2.71.68c.93.07,5.19-2.25,6-2.63,5-2.26,7-4.66,10.33-9a68.64,68.64,0,0,0,6.09-9.37c3.56-6.72,8.25-15.46,10.15-23.82,2-8.57-1.3-19.42-9.29-23.09A11.77,11.77,0,0,0,1500.71,601.46Z" transform="translate(-901.88 -325.95)"/>
    <path class="cls-8" d="M1105.83,657.3c3.37.88,8.29,3.23,10.22,2.21,2.82-1.49,4.49-5.33,6.07-8.11,7.19-12.62,5.5-28.22,3.59-42.63L1124,595.65c-.77-5.85-1.56-11.77-3.67-17.28s-3.11-10.45-8.28-13.3-13.65-5.91-19.67-5.75c-5.27.14-12.8.49-17,3.67-4.47,3.37-5.71,11.11-7.45,16.43-2.41,7.36-2.13,15.07-2.14,22.81,0,7.26,3.37,15.35,6,22.14,3.47,9.15,10.46,14.09,17.31,21.08S1097.55,655.13,1105.83,657.3Z" transform="translate(-901.88 -325.95)"/>
    <path class="cls-9" d="M1094.81,571.9c2.32.07,5,0,7.1,1a47.36,47.36,0,0,1,9.35,5.62c.34-2.65-1.59-4.74-3.94-8a15.08,15.08,0,0,0-4.26-4c-2.26-1.49-5.76-2.13-8.46-2.17-9.2-.12-16.95,6-20.74,14.4s-1.11,23.11,1.35,32c5.89,21.16,16.46,32,26.87,38.28.45.28,9.6,7.12,13.93,4a7.71,7.71,0,0,0,1.39-1.57c1-1.67,2.71-4.89,1.88-8.24a7,7,0,0,0-6.59-5.69c1,3,.76,6.33-2,8a5.24,5.24,0,0,1-2.76.43c-.93,0-5-2.72-5.76-3.18-4.78-2.72-8.34-7.11-11.25-11.77a70.2,70.2,0,0,1-5.2-9.9c-2.92-7-6.77-16.15-7.9-24.66-1.15-8.71,4.35-20.87,12.64-23.78A11.78,11.78,0,0,1,1094.81,571.9Z" transform="translate(-901.88 -325.95)"/>
    <path class="cls-10" d="M1316.38,638.61c-1.16-16.13,5.54-29.08,19-37.75,17.27-11.08,36.5-14.67,56.66-11.19,19.8,3.42,37.24,22.68,37.62,42.52.3,15.79-8,35.38-29.91,42.74a86.22,86.22,0,0,1-54.3-.06C1326.36,666.9,1317.58,655.27,1316.38,638.61Z" transform="translate(-901.88 -325.95)"/>
    <path class="cls-10" d="M1165,629.62c.32-15.74,11.52-31.38,27.87-36.9,22.19-7.48,44-5,64.09,6.7,13,7.6,19.11,20.06,18,35.23-1.2,16.05-6.71,30.1-23,36.36a86.82,86.82,0,0,1-57.33,1.9C1173.36,663.81,1164.58,649.59,1165,629.62Z" transform="translate(-901.88 -325.95)"/>
    <g>
      <path class="cls-11" d="M1345,623.79a31,31,0,1,1,16,40.61A31.05,31.05,0,0,1,1345,623.79Zm52.06-.49c-3-4.39-7.34-5.19-13.8-2.51-4.26-4.07-14.59-4.57-20.25-1-8.45,5.34-12.37,15.74-9.36,24.84,3.09,9.37,11.49,14.65,21.92,13.76,9.1-.77,16.76-8.55,18.23-18.53.14-.93.3-1.85.45-2.77C1399.1,632,1400,627.66,1397,623.3Z" transform="translate(-901.88 -325.95)"/>
      <path class="cls-12" d="M1383.24,620.79c-4.26-4.07-14.59-4.57-20.25-1-8.45,5.34-12.37,15.74-9.36,24.84,3.09,9.37,11.49,14.65,21.92,13.76,9.1-.77,16.76-8.55,18.23-18.53.14-.93.3-1.85.45-2.77-5,1.51-9.71,1.77-12.91-3.2C1378.24,629.12,1379.48,624.71,1383.24,620.79Z" transform="translate(-901.88 -325.95)"/>
      <path class="cls-10" d="M1383.24,620.79c-3.76,3.92-5,8.33-1.92,13.12,3.2,5,8,4.71,12.91,3.2,4.87-5.15,5.74-9.45,2.81-13.81S1389.7,618.11,1383.24,620.79Z" transform="translate(-901.88 -325.95)"/>
    </g>
    <g>
      <path class="cls-11" d="M1232,664.68a30.95,30.95,0,1,1,17.45-40A30.81,30.81,0,0,1,1232,664.68Zm-32.24-28.46c.12.92.24,1.85.35,2.77,1.11,10,8.49,18.09,17.56,19.18,10.38,1.26,19-3.71,22.4-13,3.32-9-.22-19.52-8.47-25.17-5.53-3.78-15.87-3.65-20.27.26-6.36-2.91-10.78-2.27-13.89,2S1195,630.89,1199.71,636.22Z" transform="translate(-901.88 -325.95)"/>
      <path class="cls-12" d="M1211.28,620.3c4.4-3.91,14.74-4,20.27-.26,8.25,5.65,11.79,16.18,8.47,25.17-3.43,9.25-12,14.22-22.4,13-9.07-1.09-16.45-9.15-17.56-19.18-.11-.92-.23-1.85-.35-2.78,4.89,1.69,9.64,2.12,13-2.73C1216,628.81,1214.9,624.35,1211.28,620.3Z" transform="translate(-901.88 -325.95)"/>
      <path class="cls-10" d="M1211.28,620.3c3.62,4.05,4.69,8.51,1.44,13.18-3.37,4.85-8.12,4.42-13,2.73-4.68-5.32-5.4-9.65-2.32-13.9S1204.92,617.39,1211.28,620.3Z" transform="translate(-901.88 -325.95)"/>
    </g>
    <g>
      <path class="cls-13" d="M1335.15,737.23s3.74-3.07-1.45-1.43-18.31,4-31,3.12a98.48,98.48,0,0,1-31-6.91,52.43,52.43,0,0,1-8.86-4.38c-.87-.34-1.3.47,0,1.43s13.21,8.43,16,13.6,8.81,6.18,10.13,6.63,13.84,2.89,22.23.88C1319.38,747.13,1320,741.45,1335.15,737.23Z" transform="translate(-901.88 -325.95)"/>
      <path class="cls-14" d="M1336.58,734.09s-1.69,4.83-18,7-33-1.06-41.65-4.31a43.84,43.84,0,0,1-14.77-9.65Z" transform="translate(-901.88 -325.95)"/>
      <path class="cls-15" d="M1315,748s-14.75.27-17.73,0-15.69-2.84-20.15-1.33S1306.8,760.32,1315,748Z" transform="translate(-901.88 -325.95)"/>
      <path class="cls-16" d="M1248.4,722.2c4,3.88,10.72,7.21,14.66,14.43,1.2,2.19,2.69,6.67,4.21,8.66,1.19,1.55,2.4,5,4,6.18a49.54,49.54,0,0,0,17.68,8.24c4.87,1.23,10,1.06,14.94,1.57a31.21,31.21,0,0,0,16.13-2.54,11,11,0,0,0,3-1.84,17.68,17.68,0,0,0,3.19-4.69,44.26,44.26,0,0,1,20-18.9.52.52,0,0,0-.26-1c-1.79.11-3.51.21-7.25.47a16.43,16.43,0,0,1-3.64-.16,70.49,70.49,0,0,1-8.42-1.73,81.11,81.11,0,0,0-11.75-2.42c-5.46-.71-16.09-1.5-21.58-1.84C1275.9,725.58,1261.7,725.84,1248.4,722.2Zm14.43,5.43a52.43,52.43,0,0,0,8.86,4.38,98.48,98.48,0,0,0,31,6.91c12.72.85,25.85-1.48,31-3.12s1.45,1.43,1.45,1.43c-15.19,4.22-15.77,9.9-23.93,12.94-8.39,2-20.91-.43-22.23-.88s-7.3-1.46-10.13-6.63-14.72-12.63-16-13.6S1262,727.29,1262.83,727.63Z" transform="translate(-901.88 -325.95)"/>
    </g>
    <path class="cls-11" d="M1284.88,697.77c15.73,8.26,34.17-.46,43-11.6,3.71-4.67,2.21-8.21-3.62-9.06a25.1,25.1,0,0,0-5.61-.23,260.79,260.79,0,0,1-42.2-.08c-2.8-.22-6-.62-7.65,2.24-1.83,3.14.38,5.72,2.15,8.14A29.44,29.44,0,0,0,1284.88,697.77Z" transform="translate(-901.88 -325.95)"/>
    <path class="cls-1" d="M1398.87,551.66c-14.45-5.15-30-8-46.17-2.35a34.21,34.21,0,0,0-4.1,1.84c-1.79.9-3.27,2.39-3,4.37.32,2.48,2.7,2.18,4.51,2.22,6,.13,12,.19,18,.22,21.16.09,38,9.78,53,23.67a37.72,37.72,0,0,0,5.27,4.17c1.32.83,2.9,2.31,4.55.85,1.45-1.28.84-3.17.46-4.78-1.27-5.32-4.8-9.37-8.32-13.19C1416.53,561.58,1408.56,556.32,1398.87,551.66Z" transform="translate(-901.88 -325.95)"/>
    <path class="cls-1" d="M1167,577.46c-1.65,3.85-3.83,7.71-1,9.74,3.15,2.25,5.55-1.87,7.74-3.87,5.4-5,10.57-10.13,16.45-14.54,12.86-9.66,27.6-13.24,43.36-13.72,3.94-.12,7.89-.33,11.82-.64,1.66-.13,3.64-.41,4.07-2.4.49-2.27-1.34-3.25-3-4.17a33.21,33.21,0,0,0-15.15-3.92c-25.83-.64-46.82,8.95-62.24,30A26.18,26.18,0,0,0,1167,577.46Z" transform="translate(-901.88 -325.95)"/>
  </g>
</svg>
