<svg id="Layer_2" data-name="Layer 2" xmlns="http://www.w3.org/2000/svg" xmlns:xlink="http://www.w3.org/1999/xlink" viewBox="0 0 260 168"><defs><style>.cls-1{fill:#e2bf71;}.cls-2{fill:#c7ffe8;}.cls-3{fill:#c6c6c6;}.cls-37,.cls-4{fill:none;}.cls-5{fill:#685f5a;}.cls-6{fill:#c1c1c1;}.cls-7{fill:#a8692f;}.cls-8{fill:#f2a64c;}.cls-9{fill:#ffba5f;}.cls-10,.cls-19{fill:#8e5628;}.cls-11{fill:#f4a64a;}.cls-12{fill:#fff8c7;}.cls-13{fill:#f2e6b1;}.cls-14{clip-path:url(#clip-path);}.cls-15{clip-path:url(#clip-path-2);}.cls-16{fill:#b0edd3;}.cls-17{clip-path:url(#clip-path-3);}.cls-18{opacity:0.32;}.cls-19{opacity:0.53;}.cls-20{fill:#9b5b26;}.cls-21{clip-path:url(#clip-path-4);}.cls-22{fill:#4f3629;opacity:0.48;}.cls-23{fill:#827670;}.cls-24{clip-path:url(#clip-path-5);}.cls-25{clip-path:url(#clip-path-6);}.cls-26{fill:#564133;}.cls-26,.cls-27{opacity:0.14;}.cls-27{fill:#664f42;}.cls-28{fill:#e2e2e2;}.cls-29{clip-path:url(#clip-path-7);}.cls-30{clip-path:url(#clip-path-8);}.cls-31{clip-path:url(#clip-path-9);}.cls-32{clip-path:url(#clip-path-10);}.cls-33{clip-path:url(#clip-path-11);}.cls-34{clip-path:url(#clip-path-12);}.cls-35{fill:#774d2d;}.cls-36{clip-path:url(#clip-path-13);}.cls-37{stroke:#fff;stroke-miterlimit:10;stroke-width:0.23px;opacity:0.61;}.cls-38{clip-path:url(#clip-path-14);}.cls-39{fill:#c97523;}.cls-40{clip-path:url(#clip-path-15);}.cls-41{fill:#dd8b31;}.cls-42,.cls-44{fill:#f9e295;}.cls-43{clip-path:url(#clip-path-16);}.cls-44{opacity:0.29;}.cls-45{clip-path:url(#clip-path-17);}.cls-46{clip-path:url(#clip-path-18);}.cls-47{fill:#0400b5;}.cls-48{fill:#1800ff;}.cls-49{fill:#0500cc;}.cls-50{fill:red;}.cls-51{fill:#0068ff;}.cls-52{fill:#bfb5a5;}.cls-53{fill:#fff;}.cls-54{fill:#382304;}</style><clipPath id="clip-path"><path class="cls-1" d="M181.74,132.45a16.86,16.86,0,0,1,5.47-3.07c2.52-.61,53.76-1.1,58.48-1s15.36,4.07,15.36,4.07Z"/></clipPath><clipPath id="clip-path-2"><rect class="cls-2" x="178.45" y="124.74" width="84.22" height="14.21"/></clipPath><clipPath id="clip-path-3"><rect class="cls-10" x="183.42" y="83.83" width="75.66" height="2.26" transform="translate(442.5 169.91) rotate(-180)"/></clipPath><clipPath id="clip-path-4"><path class="cls-5" d="M233.79,69.46a1,1,0,0,0-1.27-.22,1.36,1.36,0,0,0-1.27-.27,1.4,1.4,0,0,0-1.3,0,1,1,0,0,0-1.25-.09,1.2,1.2,0,0,0-.65-.29,1.08,1.08,0,0,0-.69.13,1,1,0,0,0-1.25-.21,1.34,1.34,0,0,0-1.34-.24l-1,7.65h0V76h0l-.89,7.65a1.33,1.33,0,0,0,1.36.09,1,1,0,0,0,1.25.1,1.2,1.2,0,0,0,1.35.16,1,1,0,0,0,1.24.21,1.37,1.37,0,0,0,1.27.26,1.4,1.4,0,0,0,1.3,0,1,1,0,0,0,1.28.07,1.1,1.1,0,0,0,1.35.17l.91-7.5v-.13l.91-7.5A1.08,1.08,0,0,0,233.79,69.46Z"/></clipPath><clipPath id="clip-path-5"><polygon id="SVGID" class="cls-4" points="241.55 74.55 252.26 82.08 252.03 84.34 241.65 84.42 241.55 74.55"/></clipPath><clipPath id="clip-path-6"><path class="cls-3" d="M249.81,70.35a.84.84,0,0,0-1.13-.07,6.55,6.55,0,0,0-2.28,0,.84.84,0,0,0-1.11,0,1,1,0,0,0-1.19,0,.84.84,0,0,0-1.11,0,1.18,1.18,0,0,0-1.2-.07l0,6.8h0v.11h0l0,6.79a1.2,1.2,0,0,0,1.2-.06.84.84,0,0,0,1.11,0,1.07,1.07,0,0,0,1.19,0,.84.84,0,0,0,1.11,0,7.26,7.26,0,0,0,2.28,0,.84.84,0,0,0,1.13-.07,1,1,0,0,0,1.2,0V70.35A1,1,0,0,0,249.81,70.35Z"/></clipPath><clipPath id="clip-path-7"><polyline id="SVGID-2" data-name="SVGID" class="cls-4" points="202.29 74.64 208.89 70.02 213.54 70.21 214.17 84.59 203.51 85.33 203.05 77.4"/></clipPath><clipPath id="clip-path-8"><path class="cls-3" d="M212.14,70.82a.84.84,0,0,0-1.13,0,6.88,6.88,0,0,0-2.28.11.85.85,0,0,0-1.11.11,1,1,0,0,0-.6-.16,1,1,0,0,0-.59.21.84.84,0,0,0-1.11,0,1.17,1.17,0,0,0-1.2,0l.3,6.79h0V78h0l.36,6.78a1.19,1.19,0,0,0,1.2-.12.84.84,0,0,0,1.1-.1,1.07,1.07,0,0,0,1.19-.06.84.84,0,0,0,1.11,0,1.2,1.2,0,0,0,1.15,0,1.17,1.17,0,0,0,1.13-.15.83.83,0,0,0,1.12-.12,1,1,0,0,0,1.2-.06l-.32-6.65v-.11l-.33-6.65A1,1,0,0,0,212.14,70.82Z"/></clipPath><clipPath id="clip-path-9"><polyline id="SVGID-3" data-name="SVGID" class="cls-4" points="212.87 68.74 219.85 63.26 224.48 64.09 223.8 83.75 213.12 83.45 213.38 72.58"/></clipPath><clipPath id="clip-path-10"><path class="cls-3" d="M223,64.75a.69.69,0,0,0-1.13-.15.93.93,0,0,0-1.13-.2.92.92,0,0,0-1.14.07.69.69,0,0,0-1.11,0,.82.82,0,0,0-1.19-.07.69.69,0,0,0-1.11-.13.92.92,0,0,0-1.19-.16l-.32,9.28h0v.16h0l-.25,9.28a.91.91,0,0,0,1.2,0,.69.69,0,0,0,1.11,0,.88.88,0,0,0,.58.29.85.85,0,0,0,.61-.23.68.68,0,0,0,1.1.13.94.94,0,0,0,1.14.2.92.92,0,0,0,1.14-.07.69.69,0,0,0,1.13,0,.79.79,0,0,0,1.2.06l.28-9.1v-.15l.28-9.1A.78.78,0,0,0,223,64.75Z"/></clipPath><clipPath id="clip-path-11"><polygon id="SVGID-4" data-name="SVGID" class="cls-4" points="200.78 75.36 183.95 85.02 199.88 84.68 200.73 84 200.78 75.36"/></clipPath><clipPath id="clip-path-12"><path class="cls-5" d="M198.44,68.82a1,1,0,0,0-1.29,0,7.64,7.64,0,0,0-2.58.1,1,1,0,0,0-1.26.1,1.18,1.18,0,0,0-.68-.18,1.1,1.1,0,0,0-.67.24,1,1,0,0,0-1.26,0,1.34,1.34,0,0,0-1.36,0l.27,7.7h0v.13h0l.35,7.7a1.33,1.33,0,0,0,1.35-.13,1,1,0,0,0,1.26-.1,1.18,1.18,0,0,0,.68.18,1.1,1.1,0,0,0,.67-.24,1,1,0,0,0,1.26,0,1.35,1.35,0,0,0,1.29.06,1.38,1.38,0,0,0,1.29-.16,1,1,0,0,0,1.28-.13,1.11,1.11,0,0,0,1.36,0l-.3-7.55v-.13l-.29-7.55A1.1,1.1,0,0,0,198.44,68.82Z"/></clipPath><clipPath id="clip-path-13"><polygon class="cls-6" points="179.97 88.14 222.9 63.33 220.37 62.58 177.37 87.38 179.97 88.14"/></clipPath><clipPath id="clip-path-14"><polygon class="cls-7" points="262.19 88.17 220.07 62.75 221.97 61.66 264.81 87.45 262.19 88.17"/></clipPath><clipPath id="clip-path-15"><path class="cls-8" d="M189.89,126.72a2.82,2.82,0,0,1,.64,3.09h-.1a.7.7,0,1,0,.27,1.37.79.79,0,0,0,.57-.49,4.82,4.82,0,0,0,0-4.26c-1.12-2.85.22-3.45.22-3.45l-3,.19A4.21,4.21,0,0,0,189.89,126.72Z"/></clipPath><clipPath id="clip-path-16"><path class="cls-8" d="M201.94,126.72a2.84,2.84,0,0,0-.64,3.09h.11a.7.7,0,1,1-.28,1.37.76.76,0,0,1-.56-.49,4.78,4.78,0,0,1,0-4.26c1.11-2.85-.22-3.45-.22-3.45l3,.19A4.2,4.2,0,0,1,201.94,126.72Z"/></clipPath><clipPath id="clip-path-17"><path class="cls-9" d="M203.63,123.56a4.86,4.86,0,0,0-3.86-2.87l-7.64.17s-2.86.89-3.83,2.65a.73.73,0,0,0-.22.51v.22a.72.72,0,0,0,.37.63.28.28,0,0,0,0,.09c0,.37.84.67,1.88.67a4.62,4.62,0,0,0,1-.1,19.21,19.21,0,0,0,9.29,0,4.77,4.77,0,0,0,1,.1c1,0,1.88-.3,1.88-.67,0,0,0,0,0-.08a.72.72,0,0,0,.39-.64V124A.76.76,0,0,0,203.63,123.56Z"/></clipPath><clipPath id="clip-path-18"><path class="cls-11" d="M187.31,123.13s0,1.72,8.7,1.72,9.6-2.37,9.6-2.37l.07,2.37-1.26,2.23-11.79,0-4.58-.17Z"/></clipPath></defs><rect class="cls-12" x="182.44" y="85.65" width="78.87" height="46.67"/><polygon class="cls-13" points="187.63 85.44 187.63 130.1 181.74 132.45 181.86 85.95 187.63 85.44"/><polygon class="cls-13" points="246.28 85.44 246.28 129.09 260.22 132.48 262.13 132.48 262.04 86.37 257.32 84.35 246.28 85.44"/><path class="cls-1" d="M181.74,132.45a16.86,16.86,0,0,1,5.47-3.07c2.52-.61,53.76-1.1,58.48-1s15.36,4.07,15.36,4.07Z"/><g class="cls-14"><rect class="cls-2" x="178.45" y="124.74" width="84.22" height="14.21"/><g class="cls-15"><rect class="cls-16" x="220.28" y="121.46" width="0.55" height="18.67"/><polygon class="cls-16" points="202.97 139.9 202.43 139.86 216.14 121.69 216.68 121.73 202.97 139.9"/><polygon class="cls-16" points="185.41 139.36 184.91 139.29 208.96 122.23 209.46 122.3 185.41 139.36"/><polygon class="cls-16" points="162.05 138.34 161.61 138.23 197 123.26 197.44 123.36 162.05 138.34"/><polygon class="cls-16" points="239.45 139.9 239.99 139.86 226.28 121.69 225.74 121.73 239.45 139.9"/><polygon class="cls-16" points="257 139.36 257.5 139.29 233.46 122.23 232.96 122.3 257 139.36"/><polygon class="cls-16" points="281.04 138.34 281.48 138.23 246.09 123.26 245.65 123.36 281.04 138.34"/><rect class="cls-16" x="168.68" y="129.51" width="100.11" height="0.46"/></g></g><rect class="cls-10" x="183.42" y="83.83" width="75.66" height="2.26" transform="translate(442.5 169.91) rotate(-180)"/><g class="cls-17"><g class="cls-18"><path class="cls-19" d="M189.07,86.28c.38,0,.6-.23.89-.35a11.6,11.6,0,0,1,2.12-.22c.42-.08.75-.26,1.14-.37,1.17-.33,2.6,0,3.9-.11a6.54,6.54,0,0,1,1.32-.11,6.34,6.34,0,0,1,.78.18,5,5,0,0,0,2.11,0"/><path class="cls-19" d="M185.33,83.29a8.35,8.35,0,0,0,3,.64,14.33,14.33,0,0,1,1.47.07c.36.06.7.16,1.07.22a9.67,9.67,0,0,0,2.15,0,9.47,9.47,0,0,1,1.92,0,9.07,9.07,0,0,0,1.64.2,4,4,0,0,0,1.06-.24l2.35-.77"/><path class="cls-19" d="M202.64,83.67c.42.07.89.18,1,.42,0,.08,0,.17.07.25a.77.77,0,0,0,.57.31,2.89,2.89,0,0,0,.83,0,2.12,2.12,0,0,1,.43,0,4.23,4.23,0,0,1,.8.29,3.27,3.27,0,0,0,1,0,14.42,14.42,0,0,1,2.18,0,.62.62,0,0,0,.24,0,.12.12,0,0,0,.06-.08l.1-.28"/><path class="cls-19" d="M201.13,84.9a1.26,1.26,0,0,0,.62-.15c.15-.12.07-.29-.11-.39a2.06,2.06,0,0,0-.69-.19,3.37,3.37,0,0,0-1,0c-.34,0-.63.23-.59.43l0,.06a.44.44,0,0,0,.21,0H200a.85.85,0,0,0,.37,0c.1-.05.09-.16,0-.18"/><path class="cls-19" d="M185.86,83.7l1,.31a1.34,1.34,0,0,1,.3.12,1.59,1.59,0,0,1,.24.2,3.08,3.08,0,0,0,1.63.44"/><path class="cls-19" d="M205,86.11c.4-.06.79-.13,1.2-.18a23.59,23.59,0,0,1,5.38-.1,1.3,1.3,0,0,1,.41.08l.21.12a1.72,1.72,0,0,0,.47.07"/><path class="cls-19" d="M210.72,83.79l.58.49a2.55,2.55,0,0,0,.91.49,1.81,1.81,0,0,0,1.2,0c.23-.13.31-.32.56-.43a2.67,2.67,0,0,1,.4-.13,2.68,2.68,0,0,0,1-.49"/><path class="cls-19" d="M214.47,86.15a2.07,2.07,0,0,1,.65-.52,1.35,1.35,0,0,1,.89-.18c.1,0,.19.06.29.09a2.73,2.73,0,0,0,1.43-.19,3,3,0,0,1,1.78,0c.09,0,.17.08.27.11.4.11.94,0,1.33.08s.35.27.51.41a1.73,1.73,0,0,0,1,.35"/><path class="cls-19" d="M214.86,84.94a34.7,34.7,0,0,1,6-.22c1.76,0,3.52,0,5.28,0"/><path class="cls-19" d="M216.08,84.27c3.36-.38,6.84.3,10.25.1a13.2,13.2,0,0,1,3.5,0"/><path class="cls-19" d="M223.26,86.06a2.75,2.75,0,0,0,1.45-.25.93.93,0,0,1,.2-.09.68.68,0,0,1,.25,0c1,0,1.75.57,2.7.47"/><path class="cls-19" d="M231.09,85.75a5.7,5.7,0,0,1-1.65,0,1.84,1.84,0,0,1-.45-.13c-.13-.07-.21-.16-.17-.26s.34-.22.6-.26a8.84,8.84,0,0,1,2.41,0,.82.82,0,0,1,.4.11c.1.06.1.18,0,.22l-.14,0a6.51,6.51,0,0,1-1.4-.09"/><path class="cls-19" d="M230.71,83.72a2.17,2.17,0,0,0,1.3.45,8.13,8.13,0,0,0,1.56-.21,12.15,12.15,0,0,1,2.34-.06,3.23,3.23,0,0,1,1.15.17,5.72,5.72,0,0,0,.74.38,2.6,2.6,0,0,0,.84,0"/><path class="cls-19" d="M233.76,85.69a10.15,10.15,0,0,1,2.4-.26c.85,0,1.65.26,2.5.27a9.21,9.21,0,0,1,2.78,0c.19.06.35.15.55.2a8.17,8.17,0,0,0,1.49,0,5.27,5.27,0,0,1,1.82.51,3.41,3.41,0,0,0,1.92.26"/><path class="cls-19" d="M233.19,84.79a9.91,9.91,0,0,1,1.89-.15,14.53,14.53,0,0,1,2.11.37,5.21,5.21,0,0,0,2.15.07c.29-.07.53-.18.81-.25a3.75,3.75,0,0,1,1.42-.1"/><path class="cls-19" d="M241.84,85.19a21.06,21.06,0,0,0,4,0,5.45,5.45,0,0,1,1.07,0c1.24.11,1.85,1.06,3.11,1.12"/><path class="cls-19" d="M257.52,85.7a7.07,7.07,0,0,1-2.3-.11c-.65-.13-1.22-.35-1.85-.51a4.56,4.56,0,0,0-2-.11"/><path class="cls-19" d="M255.2,86.4a11.8,11.8,0,0,1-2.57-.37,6.26,6.26,0,0,0-1.89-.35"/><path class="cls-19" d="M259.5,84.49c-1.93.13-3.86-.25-5.8-.25a6.77,6.77,0,0,0-1.44.13c-.39.09-.74.23-1.14.29-1.14.16-2.36-.36-3.46-.12"/><path class="cls-19" d="M239.81,83.63c1.69-.07,3.23.63,4.93.65a11.68,11.68,0,0,0,2.85-.42l1.89-.44"/><path class="cls-19" d="M246,84.77a20.17,20.17,0,0,1-2.58,0"/><path class="cls-19" d="M201,86.17a4.92,4.92,0,0,0,1,0,5.56,5.56,0,0,0,.95-.31,7.59,7.59,0,0,1,1.72-.39"/><path class="cls-19" d="M186.84,86.37a.51.51,0,0,0,.44-.21.47.47,0,0,0-.11-.69,3.72,3.72,0,0,0-1.79-.53"/></g></g><rect class="cls-20" x="185" y="83.06" width="72.24" height="2.26"/><rect class="cls-10" x="159.15" y="108.21" width="46.27" height="2.26" transform="translate(291.63 -72.95) rotate(90)"/><rect class="cls-10" x="201.76" y="73.27" width="38.82" height="1.28"/><path class="cls-5" d="M233.79,69.46a1,1,0,0,0-1.27-.22,1.36,1.36,0,0,0-1.27-.27,1.4,1.4,0,0,0-1.3,0,1,1,0,0,0-1.25-.09,1.2,1.2,0,0,0-.65-.29,1.08,1.08,0,0,0-.69.13,1,1,0,0,0-1.25-.21,1.34,1.34,0,0,0-1.34-.24l-1,7.65h0V76h0l-.89,7.65a1.33,1.33,0,0,0,1.36.09,1,1,0,0,0,1.25.1,1.2,1.2,0,0,0,1.35.16,1,1,0,0,0,1.24.21,1.37,1.37,0,0,0,1.27.26,1.4,1.4,0,0,0,1.3,0,1,1,0,0,0,1.28.07,1.1,1.1,0,0,0,1.35.17l.91-7.5v-.13l.91-7.5A1.08,1.08,0,0,0,233.79,69.46Z"/><g class="cls-21"><path class="cls-22" d="M231.12,80a.66.66,0,0,0,.39-.59c0-.14,0-.29,0-.4s.29-.17.37-.31,0-.28,0-.42.14-.4.2-.6a.8.8,0,0,0-.3-.87.75.75,0,0,1-.18-.13c-.11-.12-.09-.31-.17-.45a.66.66,0,0,0-.33-.26l-.82-.41a.2.2,0,0,1-.1-.08s0-.07,0-.1-.09,0-.14-.07-.19-.28-.2-.46v-.54a.36.36,0,0,0-.07-.22c-.06-.06-.16,0-.24-.1s-.11-.3-.12-.47a.63.63,0,0,0-1-.44.67.67,0,0,1-.2.12c-.13,0-.26-.07-.4-.09a.47.47,0,0,0-.43.26c-.1.14-.16.31-.26.46a.43.43,0,0,1-.12.11.59.59,0,0,1-.19,0l-.41,0a.65.65,0,0,0-.5.09,1.36,1.36,0,0,0-.21.37,2.28,2.28,0,0,1-.29.33.4.4,0,0,0-.1.41c.06.14.24.2.29.35s-.08.31-.21.42-.28.24-.26.41a.35.35,0,0,0,.31.28c.15,0,.3,0,.45,0l.1,0c.09.09,0,.25-.1.29s-.24,0-.35.1a.72.72,0,0,0-.28.62.11.11,0,0,0,0,.11l.06,0c.08.06,0,.19,0,.27a1.36,1.36,0,0,0-.24.5.58.58,0,0,0,.14.52.69.69,0,0,0,.56.14c.2,0,.4-.09.6-.1a1.1,1.1,0,0,1,.74.26c.13.11.23.25.36.35a.49.49,0,0,0,.47.12c.15,0,.25-.2.4-.23.33-.08.57.38.91.36l.27-.06c.25,0,.45.23.69.24a1,1,0,0,0,.41-.11.43.43,0,0,1,.41,0"/><rect class="cls-23" x="225.05" y="67.08" width="0.23" height="17.86" transform="translate(10.75 -26.47) rotate(6.89)"/><rect class="cls-23" x="226.33" y="67.24" width="0.23" height="17.86" transform="translate(10.78 -26.62) rotate(6.89)"/><rect class="cls-23" x="227.66" y="67.4" width="0.23" height="17.86" transform="translate(10.81 -26.78) rotate(6.89)"/><rect class="cls-23" x="228.91" y="67.55" width="0.23" height="17.86" transform="translate(10.83 -26.93) rotate(6.89)"/><rect class="cls-23" x="230.19" y="67.7" width="0.23" height="17.86" transform="translate(10.86 -27.08) rotate(6.89)"/><rect class="cls-23" x="231.46" y="67.86" width="0.23" height="17.86" transform="translate(10.89 -27.23) rotate(6.89)"/><rect class="cls-23" x="232.77" y="68.02" width="0.23" height="17.86" transform="translate(10.92 -27.39) rotate(6.89)"/></g><g class="cls-24"><path class="cls-3" d="M249.81,70.35a.84.84,0,0,0-1.13-.07,6.55,6.55,0,0,0-2.28,0,.84.84,0,0,0-1.11,0,1,1,0,0,0-1.19,0,.84.84,0,0,0-1.11,0,1.18,1.18,0,0,0-1.2-.07l0,6.8h0v.11h0l0,6.79a1.2,1.2,0,0,0,1.2-.06.84.84,0,0,0,1.11,0,1.07,1.07,0,0,0,1.19,0,.84.84,0,0,0,1.11,0,7.26,7.26,0,0,0,2.28,0,.84.84,0,0,0,1.13-.07,1,1,0,0,0,1.2,0V70.35A1,1,0,0,0,249.81,70.35Z"/><g class="cls-25"><path class="cls-26" d="M250.26,77.59a.49.49,0,0,0-.47-.26c-.11,0-.22,0-.31,0s-.15-.22-.26-.26-.21,0-.32,0a1.31,1.31,0,0,1-.47-.12.61.61,0,0,0-.65.28.67.67,0,0,1-.09.14c-.09.09-.24.08-.34.15a.56.56,0,0,0-.18.27l-.27.65a.16.16,0,0,1-.06.08l-.08,0s0,.07,0,.11-.2.16-.34.17l-.41,0a.32.32,0,0,0-.17.06c0,.06,0,.13-.07.19s-.22.1-.35.12a.5.5,0,0,0-.37.31.49.49,0,0,0,.08.48.49.49,0,0,1,.11.14c0,.11,0,.21,0,.32a.36.36,0,0,0,.22.31c.12.07.25.1.37.17s.07,0,.08.09a.22.22,0,0,1,0,.14v.32a.45.45,0,0,0,.1.38,1.12,1.12,0,0,0,.29.14c.1,0,.17.14.27.2a.32.32,0,0,0,.32.06c.1-.06.14-.2.25-.24s.24,0,.33.14.2.2.33.18a.32.32,0,0,0,.2-.26c0-.11,0-.23,0-.34a.32.32,0,0,1,0-.09c.06-.07.19,0,.23.07a2.67,2.67,0,0,0,.09.26c.09.16.31.18.49.18a.11.11,0,0,0,.08,0s0,0,0,0,.14,0,.21,0a1.09,1.09,0,0,0,.4.16.5.5,0,0,0,.39-.13.52.52,0,0,0,.07-.44c0-.16-.08-.3-.1-.45a.79.79,0,0,1,.16-.58c.07-.11.17-.19.25-.3a.39.39,0,0,0,.07-.36c-.05-.11-.17-.18-.21-.3s.27-.45.23-.71c0-.07,0-.13-.05-.2s.15-.35.14-.54a.87.87,0,0,0-.1-.31.31.31,0,0,1,0-.31"/><path class="cls-27" d="M246.74,77.75a.44.44,0,0,0,.32-.36.49.49,0,0,1,.06-.27c.07-.09.21-.09.28-.18s0-.19,0-.29.13-.25.2-.39a.55.55,0,0,0-.12-.62.38.38,0,0,1-.11-.11c-.06-.09,0-.22-.07-.33a.5.5,0,0,0-.2-.21l-.52-.36s-.05,0-.06-.07v-.07s-.06,0-.09-.06-.1-.21-.09-.33l.05-.37a.23.23,0,0,0,0-.16s-.1,0-.15-.09,0-.22,0-.33a.43.43,0,0,0-.2-.39.44.44,0,0,0-.43,0,.47.47,0,0,1-.15.06c-.1,0-.18-.08-.27-.1a.34.34,0,0,0-.32.13c-.08.09-.14.2-.22.29a.21.21,0,0,1-.1.06.3.3,0,0,1-.13,0l-.28-.07a.47.47,0,0,0-.35,0c-.08.06-.11.16-.17.23a2.31,2.31,0,0,1-.24.2.27.27,0,0,0-.11.27c0,.1.15.16.16.27s-.09.21-.19.27-.21.13-.22.25a.25.25,0,0,0,.19.22c.1,0,.2.05.3.08l.07,0c0,.07,0,.17-.1.19s-.17,0-.25,0-.22.24-.26.39,0,.06,0,.08l0,0s0,.13-.05.18a.87.87,0,0,0-.22.32.38.38,0,0,0,0,.36.43.43,0,0,0,.37.16c.14,0,.28,0,.42,0a.8.8,0,0,1,.48.25c.08.09.13.2.21.28a.36.36,0,0,0,.31.14c.11,0,.19-.12.3-.13s.35.32.58.34a1.34,1.34,0,0,0,.2,0c.17,0,.28.2.44.23a.7.7,0,0,0,.29,0,.3.3,0,0,1,.28,0"/><rect class="cls-28" x="242.86" y="69.12" width="0.2" height="15.74"/><rect class="cls-28" x="243.99" y="69.12" width="0.2" height="15.74"/><rect class="cls-28" x="245.18" y="69.12" width="0.2" height="15.74"/><rect class="cls-28" x="246.29" y="69.12" width="0.2" height="15.74"/><rect class="cls-28" x="247.42" y="69.12" width="0.2" height="15.74"/><rect class="cls-28" x="248.55" y="69.12" width="0.2" height="15.74"/><rect class="cls-28" x="249.72" y="69.12" width="0.2" height="15.74"/></g></g><g class="cls-29"><path class="cls-3" d="M212.14,70.82a.84.84,0,0,0-1.13,0,6.88,6.88,0,0,0-2.28.11.85.85,0,0,0-1.11.11,1,1,0,0,0-.6-.16,1,1,0,0,0-.59.21.84.84,0,0,0-1.11,0,1.17,1.17,0,0,0-1.2,0l.3,6.79h0V78h0l.36,6.78a1.19,1.19,0,0,0,1.2-.12.84.84,0,0,0,1.1-.1,1.07,1.07,0,0,0,1.19-.06.84.84,0,0,0,1.11,0,1.2,1.2,0,0,0,1.15,0,1.17,1.17,0,0,0,1.13-.15.83.83,0,0,0,1.12-.12,1,1,0,0,0,1.2-.06l-.32-6.65v-.11l-.33-6.65A1,1,0,0,0,212.14,70.82Z"/><g class="cls-30"><path class="cls-26" d="M212.94,78a.51.51,0,0,0-.48-.24c-.11,0-.22.07-.31,0s-.16-.2-.27-.25-.21,0-.32,0-.32-.08-.48-.1a.6.6,0,0,0-.63.3s0,.11-.08.15-.24.09-.34.17a.53.53,0,0,0-.17.28l-.23.66a.16.16,0,0,1-.06.08s0,0-.07,0,0,.06,0,.1-.2.18-.33.2l-.41.06c-.06,0-.13,0-.16.07s0,.13-.06.19-.22.11-.35.14a.47.47,0,0,0-.35.32.5.5,0,0,0,.1.47.67.67,0,0,1,.11.14c0,.1,0,.21,0,.32a.37.37,0,0,0,.24.3c.12.06.25.09.37.16a.18.18,0,0,1,.09.08.22.22,0,0,1,0,.14v.32a.45.45,0,0,0,.12.37.93.93,0,0,0,.29.12,1.42,1.42,0,0,1,.28.2.32.32,0,0,0,.32,0c.1-.07.14-.21.24-.26s.25,0,.35.13.2.19.33.16a.3.3,0,0,0,.19-.27c0-.11,0-.23,0-.34s0-.06,0-.08.18,0,.23,0,0,.18.1.26.32.16.5.15a.11.11,0,0,0,.08,0s0,0,0,0,.14,0,.21,0a1.11,1.11,0,0,0,.4.13.42.42,0,0,0,.38-.15.49.49,0,0,0,.06-.44c0-.15-.1-.29-.13-.44a.86.86,0,0,1,.13-.59c.07-.11.17-.2.24-.31a.37.37,0,0,0,0-.36c0-.11-.17-.17-.22-.29s.24-.46.2-.72c0-.07-.06-.13-.07-.2s.13-.36.12-.55a.86.86,0,0,0-.12-.3.31.31,0,0,1,0-.31"/><path class="cls-27" d="M209.43,78.37a.45.45,0,0,0,.31-.38.45.45,0,0,1,0-.28c.07-.08.21-.09.27-.18s0-.19,0-.29a1.2,1.2,0,0,1,.18-.4.56.56,0,0,0-.15-.62.52.52,0,0,1-.11-.1c-.07-.09,0-.22-.09-.32a.53.53,0,0,0-.21-.21l-.54-.33s0,0-.06-.07a.2.2,0,0,0,0-.07s-.05,0-.08-.05-.12-.21-.11-.33l0-.37a.21.21,0,0,0,0-.16s-.12,0-.16-.09-.06-.21-.06-.33a.42.42,0,0,0-.21-.37.43.43,0,0,0-.44,0,.69.69,0,0,1-.15.07c-.09,0-.17-.07-.27-.09a.31.31,0,0,0-.31.15c-.08.09-.13.2-.21.3a.47.47,0,0,1-.09.06.29.29,0,0,1-.13,0l-.29-.06a.47.47,0,0,0-.35,0,1.43,1.43,0,0,0-.16.24,1.55,1.55,0,0,1-.23.21.26.26,0,0,0-.09.27c0,.1.15.16.17.26s-.08.21-.17.28-.21.15-.21.26a.25.25,0,0,0,.2.22c.1,0,.2,0,.3.06l.07,0c.06.06,0,.17-.09.19s-.17,0-.25,0-.2.25-.23.41a.11.11,0,0,0,0,.08l0,0s0,.13,0,.18a1.12,1.12,0,0,0-.2.33.44.44,0,0,0,.06.37.47.47,0,0,0,.38.13c.14,0,.28,0,.42,0a.76.76,0,0,1,.49.22c.08.09.14.19.22.27a.37.37,0,0,0,.32.12c.1,0,.18-.12.29-.14s.37.3.6.31a1.23,1.23,0,0,0,.19,0c.17,0,.29.19.46.21a.73.73,0,0,0,.29,0,.28.28,0,0,1,.28,0"/><rect class="cls-28" x="205.53" y="69.92" width="0.2" height="15.74" transform="translate(-3.54 10.1) rotate(-2.79)"/><rect class="cls-28" x="206.66" y="69.87" width="0.2" height="15.74" transform="translate(-3.54 10.16) rotate(-2.79)"/><rect class="cls-28" x="207.84" y="69.81" width="0.2" height="15.74" transform="translate(-3.54 10.22) rotate(-2.79)"/><rect class="cls-28" x="208.95" y="69.75" width="0.2" height="15.74" transform="translate(-3.53 10.27) rotate(-2.79)"/><rect class="cls-28" x="210.08" y="69.7" width="0.2" height="15.74" transform="translate(-3.53 10.33) rotate(-2.79)"/><rect class="cls-28" x="211.21" y="69.64" width="0.2" height="15.74" transform="translate(-3.52 10.38) rotate(-2.79)"/><rect class="cls-28" x="212.37" y="69.59" width="0.2" height="15.74" transform="translate(-3.52 10.44) rotate(-2.79)"/></g></g><g class="cls-31"><path class="cls-3" d="M223,64.75a.69.69,0,0,0-1.13-.15.93.93,0,0,0-1.13-.2.92.92,0,0,0-1.14.07.69.69,0,0,0-1.11,0,.82.82,0,0,0-1.19-.07.69.69,0,0,0-1.11-.13.92.92,0,0,0-1.19-.16l-.32,9.28h0v.16h0l-.25,9.28a.91.91,0,0,0,1.2,0,.69.69,0,0,0,1.11,0,.88.88,0,0,0,.58.29.85.85,0,0,0,.61-.23.68.68,0,0,0,1.1.13.94.94,0,0,0,1.14.2.92.92,0,0,0,1.14-.07.69.69,0,0,0,1.13,0,.79.79,0,0,0,1.2.06l.28-9.1v-.15l.28-9.1A.78.78,0,0,0,223,64.75Z"/><g class="cls-32"><polygon class="cls-28" points="215.68 84.19 215.48 84.18 216.13 62.68 216.33 62.69 215.68 84.19"/><polygon class="cls-28" points="216.81 84.26 216.61 84.25 217.26 62.74 217.46 62.75 216.81 84.26"/><polygon class="cls-28" points="217.99 84.33 217.79 84.31 218.44 62.81 218.64 62.82 217.99 84.33"/><polygon class="cls-28" points="219.1 84.39 218.9 84.38 219.56 62.87 219.76 62.88 219.1 84.39"/><polygon class="cls-28" points="220.23 84.45 220.03 84.44 220.69 62.94 220.89 62.95 220.23 84.45"/><polygon class="cls-28" points="221.36 84.52 221.16 84.5 221.82 63 222.02 63.01 221.36 84.52"/><polygon class="cls-28" points="222.53 84.58 222.33 84.57 222.98 63.07 223.18 63.08 222.53 84.58"/></g></g><g class="cls-33"><path class="cls-5" d="M198.44,68.82a1,1,0,0,0-1.29,0,7.64,7.64,0,0,0-2.58.1,1,1,0,0,0-1.26.1,1.18,1.18,0,0,0-.68-.18,1.1,1.1,0,0,0-.67.24,1,1,0,0,0-1.26,0,1.34,1.34,0,0,0-1.36,0l.27,7.7h0v.13h0l.35,7.7a1.33,1.33,0,0,0,1.35-.13,1,1,0,0,0,1.26-.1,1.18,1.18,0,0,0,.68.18,1.1,1.1,0,0,0,.67-.24,1,1,0,0,0,1.26,0,1.35,1.35,0,0,0,1.29.06,1.38,1.38,0,0,0,1.29-.16,1,1,0,0,0,1.28-.13,1.11,1.11,0,0,0,1.36,0l-.3-7.55v-.13l-.29-7.55A1.1,1.1,0,0,0,198.44,68.82Z"/><g class="cls-34"><path class="cls-22" d="M197.49,79.62a.65.65,0,0,0,.28-.64c0-.14-.09-.28,0-.41s.26-.21.31-.36,0-.27-.07-.41a2,2,0,0,1,.1-.63.79.79,0,0,0-.44-.81.87.87,0,0,1-.19-.1c-.13-.1-.14-.29-.24-.42a.71.71,0,0,0-.37-.2l-.88-.27a.19.19,0,0,1-.11-.07s0-.07,0-.09a.27.27,0,0,0-.15,0c-.17,0-.24-.24-.27-.42l-.1-.53a.32.32,0,0,0-.1-.2c-.07-.05-.17,0-.25-.07s-.16-.28-.2-.44a.63.63,0,0,0-1.06-.28.61.61,0,0,1-.17.15c-.13.06-.28,0-.42,0a.47.47,0,0,0-.38.32c-.07.16-.1.34-.18.49a.45.45,0,0,1-.1.13.39.39,0,0,1-.18,0l-.42,0a.66.66,0,0,0-.48.17,1.3,1.3,0,0,0-.14.39,3,3,0,0,1-.24.38.38.38,0,0,0,0,.42c.08.13.27.16.34.3s0,.32-.14.45-.24.28-.2.44a.38.38,0,0,0,.36.23c.15,0,.3,0,.45,0a.2.2,0,0,1,.11,0c.1.06,0,.23-.06.3s-.23.08-.33.15-.19.42-.18.65a.21.21,0,0,0,0,.11l.07,0c.09,0,.06.18,0,.27a1.28,1.28,0,0,0-.15.53.56.56,0,0,0,.21.49.68.68,0,0,0,.59,0c.19,0,.37-.15.57-.19a1.1,1.1,0,0,1,.77.14c.15.08.27.2.41.29a.53.53,0,0,0,.49,0c.13-.07.21-.23.35-.29.31-.14.63.28.95.21.1,0,.18-.08.27-.1.24-.06.47.15.72.12a.93.93,0,0,0,.38-.17.43.43,0,0,1,.41,0"/><rect class="cls-23" x="190.86" y="67.73" width="0.23" height="17.86" transform="translate(-2.87 7.59) rotate(-2.26)"/><rect class="cls-23" x="192.14" y="67.68" width="0.23" height="17.86" transform="translate(-2.87 7.64) rotate(-2.26)"/><rect class="cls-23" x="193.48" y="67.62" width="0.23" height="17.86" transform="translate(-2.87 7.69) rotate(-2.26)"/><rect class="cls-23" x="194.75" y="67.58" width="0.23" height="17.86" transform="translate(-2.86 7.74) rotate(-2.26)"/><rect class="cls-23" x="196.03" y="67.52" width="0.23" height="17.86" transform="translate(-2.86 7.79) rotate(-2.26)"/><rect class="cls-23" x="197.31" y="67.47" width="0.23" height="17.86" transform="translate(-2.86 7.84) rotate(-2.26)"/><rect class="cls-23" x="198.63" y="67.42" width="0.23" height="17.86" transform="matrix(1, -0.04, 0.04, 1, -2.85, 7.89)"/></g></g><polygon class="cls-35" points="216.03 66.74 227.8 66.74 221.47 62.48 216.03 66.74"/><polygon class="cls-6" points="179.97 88.14 222.9 63.33 220.37 62.58 177.37 87.38 179.97 88.14"/><g class="cls-36"><line class="cls-37" x1="178.1" y1="88.4" x2="223.92" y2="62.33"/><line class="cls-37" x1="177.52" y1="87.88" x2="223.34" y2="61.81"/><polyline class="cls-7" points="219.93 61.86 194.6 75.67 200.17 77.21 224.65 62.49 221.73 60.98"/></g><polygon class="cls-7" points="262.19 88.17 220.07 62.75 221.97 61.66 264.81 87.45 262.19 88.17"/><g class="cls-38"><polygon class="cls-35" points="228.78 64.08 226 64.85 238.49 72.36 240.27 71.87 228.78 64.08"/></g><path class="cls-39" d="M191.75,122a9.41,9.41,0,0,0,.24,3.56,6.37,6.37,0,0,1,.35,3.22c-.11.54.49.88.92.19s.14-2.81,0-4a9.89,9.89,0,0,1,.3-2.94Z"/><path class="cls-39" d="M200.14,122a9.41,9.41,0,0,1-.24,3.56,6.37,6.37,0,0,0-.35,3.22c.11.54-.49.88-.92.19s-.14-2.81,0-4a9.89,9.89,0,0,0-.3-2.94Z"/><path class="cls-8" d="M189.89,126.72a2.82,2.82,0,0,1,.64,3.09h-.1a.7.7,0,1,0,.27,1.37.79.79,0,0,0,.57-.49,4.82,4.82,0,0,0,0-4.26c-1.12-2.85.22-3.45.22-3.45l-3,.19A4.21,4.21,0,0,0,189.89,126.72Z"/><g class="cls-40"><path class="cls-41" d="M190.59,122.36a6.58,6.58,0,0,0,.3,4c.86,2.29.76,2.92.29,3.92a.73.73,0,0,0-.39-.34s.48.56-.3.89-.69-.32-.71-.48l-.13.8.37.64,2.4-.12,2.23-2.44-2.56-6.49Z"/><path class="cls-42" d="M188.82,122.53a6.68,6.68,0,0,0,1.17,3.85c1.22,1.52,1,2.51.59,3.44a2.12,2.12,0,0,0-.28,0c-.06,0-2.62-5.76-2.62-5.76Z"/></g><ellipse class="cls-42" cx="190.29" cy="130.13" rx="0.24" ry="0.16" transform="translate(-21.84 39.87) rotate(-11.32)"/><path class="cls-8" d="M201.94,126.72a2.84,2.84,0,0,0-.64,3.09h.11a.7.7,0,1,1-.28,1.37.76.76,0,0,1-.56-.49,4.78,4.78,0,0,1,0-4.26c1.11-2.85-.22-3.45-.22-3.45l3,.19A4.2,4.2,0,0,1,201.94,126.72Z"/><g class="cls-43"><path class="cls-41" d="M201.24,122.36a6.49,6.49,0,0,1-.3,4c-.86,2.29-.75,2.92-.28,3.92a.69.69,0,0,1,.38-.34s-.48.56.3.89.69-.32.72-.48l.13.8-.38.64-2.39-.12-2.23-2.44,2.56-6.49Z"/><path class="cls-44" d="M203,122.53a6.77,6.77,0,0,1-1.17,3.85c-1.23,1.52-1,2.51-.6,3.44a2.5,2.5,0,0,1,.28,0c.07,0,2.63-5.76,2.63-5.76Z"/></g><ellipse class="cls-42" cx="201.55" cy="130.13" rx="0.16" ry="0.24" transform="translate(34.4 302.22) rotate(-78.68)"/><path class="cls-9" d="M203.63,123.56a4.86,4.86,0,0,0-3.86-2.87l-7.64.17s-2.86.89-3.83,2.65a.73.73,0,0,0-.22.51v.22a.72.72,0,0,0,.37.63.28.28,0,0,0,0,.09c0,.37.84.67,1.88.67a4.62,4.62,0,0,0,1-.1,19.21,19.21,0,0,0,9.29,0,4.77,4.77,0,0,0,1,.1c1,0,1.88-.3,1.88-.67,0,0,0,0,0-.08a.72.72,0,0,0,.39-.64V124A.76.76,0,0,0,203.63,123.56Z"/><g class="cls-45"><path class="cls-11" d="M187.31,123.13s0,1.72,8.7,1.72,9.6-2.37,9.6-2.37l.07,2.37-1.26,2.23-11.79,0-4.58-.17Z"/><g class="cls-46"><path class="cls-42" d="M187.83,123.59s.34.1.36.65.62.62.62.62-.48,0-.11.68l-1,0Z"/></g></g><path class="cls-47" d="M202.27,124.1a58.89,58.89,0,0,1-6.41.32,59.49,59.49,0,0,1-6.15-.32.7.7,0,0,1-.44-.15.49.49,0,0,1-.19-.38v-1.08a.26.26,0,0,1,.28-.24h13.32a.2.2,0,0,1,.22.18v1.14A.59.59,0,0,1,202.27,124.1Z"/><path class="cls-48" d="M202.74,122.41H189.39c-.31,0-.26-.16-.15-.27a3.61,3.61,0,0,1,1-.72,5.22,5.22,0,0,1,1.38-.47l0,0,.17-.06a.76.76,0,0,1,.21,0c1.2-.09,2.54-.14,4-.15s2.89-.06,4.16,0l.16,0a5.36,5.36,0,0,1,1.59.7,3.42,3.42,0,0,1,.93.79A.11.11,0,0,1,202.74,122.41Z"/><ellipse class="cls-48" cx="191.21" cy="122.41" rx="2.13" ry="0.38"/><ellipse class="cls-48" cx="195.39" cy="122.41" rx="2.13" ry="0.38"/><ellipse class="cls-48" cx="199.41" cy="122.41" rx="2.13" ry="0.38"/><ellipse class="cls-48" cx="200.76" cy="122.41" rx="2.13" ry="0.38"/><ellipse class="cls-49" cx="192.94" cy="121.41" rx="0.81" ry="0.14"/><ellipse class="cls-49" cx="195.99" cy="121.41" rx="0.81" ry="0.14"/><ellipse class="cls-49" cx="198.96" cy="121.41" rx="0.81" ry="0.14"/><path class="cls-50" d="M189.11,122.34a.1.1,0,0,0,0,.09l0,0,.09,0a.11.11,0,0,0,.08,0,.08.08,0,0,0,0,0,.17.17,0,0,0,0-.12.05.05,0,0,0,0,0l-.05,0c-.05,0-.07,0-.09,0S189.13,122.31,189.11,122.34Z"/><ellipse class="cls-51" cx="200.85" cy="122.4" rx="1.58" ry="0.13"/><ellipse class="cls-51" cx="198.17" cy="122.18" rx="0.79" ry="0.07"/><polygon class="cls-52" points="193.55 119.65 192.9 121.57 194.15 121.53 193.55 119.65"/><polygon class="cls-53" points="200.22 121.77 199.63 119.65 193.55 119.65 193.94 121.77 200.22 121.77"/><path class="cls-54" d="M194.59,121.44l-.17-.81,0,.06,0,.06-.13-.14,0,0,0,0,.06-.07,0-.07h.17l.22,1Z"/><path class="cls-54" d="M195.71,120.9a.66.66,0,0,1,0,.43.25.25,0,0,1-.26.13.4.4,0,0,1-.31-.13.83.83,0,0,1-.19-.41.77.77,0,0,1,0-.41.27.27,0,0,1,.26-.13C195.47,120.38,195.64,120.55,195.71,120.9Zm-.23,0a.55.55,0,0,0-.09-.25.16.16,0,0,0-.13-.08.09.09,0,0,0-.1.09.54.54,0,0,0,0,.27.76.76,0,0,0,.08.23.15.15,0,0,0,.14.08.09.09,0,0,0,.1-.08A.63.63,0,0,0,195.48,120.91Z"/><path class="cls-54" d="M196.53,120.9a.66.66,0,0,1,0,.43.25.25,0,0,1-.26.13.39.39,0,0,1-.31-.13.83.83,0,0,1-.19-.41.68.68,0,0,1,0-.41.26.26,0,0,1,.26-.13C196.29,120.38,196.46,120.55,196.53,120.9Zm-.23,0a.55.55,0,0,0-.09-.25.17.17,0,0,0-.13-.08.09.09,0,0,0-.1.09.54.54,0,0,0,0,.27.76.76,0,0,0,.08.23.15.15,0,0,0,.14.08c.05,0,.08,0,.1-.08A.63.63,0,0,0,196.3,120.91Z"/><path class="cls-54" d="M197.48,120.57l.18.87h-.23l-.19-.87H197l0-.17h.78l0,.17Z"/><path class="cls-54" d="M198,121.44l0-.09.38-.79h-.51l0-.16h.84l0,.1-.38.77h.55l0,.17Z"/><path class="cls-54" d="M199.39,120.65a.54.54,0,0,0-.27-.09.12.12,0,0,0-.09,0s0,0,0,.08a.1.1,0,0,0,0,.07l.13.08.15.09a.52.52,0,0,1,.11.07l.07.09a.29.29,0,0,1,0,.1.21.21,0,0,1,0,.21.35.35,0,0,1-.26.08h-.08l-.1,0-.11,0-.1-.05,0-.17.19.09.14,0a.11.11,0,0,0,.08,0,.08.08,0,0,0,0-.07.1.1,0,0,0,0-.07l-.1-.07L199,121l-.11-.09a.35.35,0,0,1-.08-.1.3.3,0,0,1,0-.1.21.21,0,0,1,.05-.21.34.34,0,0,1,.25-.08h.16l.09,0,.1,0Z"/><path class="cls-54" d="M200,121.35a.11.11,0,0,1,0,.08.11.11,0,0,1-.08,0,.14.14,0,0,1-.14-.12.08.08,0,0,1,0-.08.08.08,0,0,1,.07,0h.05l0,0,0,0S200,121.33,200,121.35Z"/></svg>