<svg xmlns="http://www.w3.org/2000/svg" xmlns:xlink="http://www.w3.org/1999/xlink" viewBox="0 0 377.5 343.69"><defs><style>.cls-1,.cls-18{fill:none;}.cls-2{fill:#f7931e;}.cls-3{clip-path:url(#clip-path);}.cls-4{fill:#f15a24;}.cls-5{fill:#d4555e;}.cls-6{fill:#510706;}.cls-7{clip-path:url(#clip-path-2);}.cls-8{clip-path:url(#clip-path-3);}.cls-9{clip-path:url(#clip-path-4);}.cls-10{clip-path:url(#clip-path-5);}.cls-11{clip-path:url(#clip-path-6);}.cls-12{clip-path:url(#clip-path-7);}.cls-13{clip-path:url(#clip-path-8);}.cls-14,.cls-17{fill:#a81307;}.cls-15{fill:#fff;}.cls-16{fill:#231f20;}.cls-17,.cls-18{stroke:#a81307;stroke-linecap:round;stroke-linejoin:round;}.cls-17{stroke-width:0.63px;}.cls-18{stroke-width:1.71px;}.cls-19{clip-path:url(#clip-path-9);}.cls-20{fill:#fa4316;}</style><clipPath id="clip-path"><path class="cls-1" d="M358.48,205.82c2.22-2.27,1.31-6.57-2-7.22s-.41-6.2,7.11-4.64,23.33,12.6,6.24,27.44-56.33-2.94-69-11.95c-8.24-5-67.88,6.23-62.77-16.41,0,0,10.68-17.53,28.91-14.19"/></clipPath><clipPath id="clip-path-2"><path class="cls-1" d="M331,249.48c2.76-1.56,3.09-5.94.12-7.49s1.34-6.07,8.12-2.48,18.88,18.61-1.66,28.09-53.28-18.54-62.94-30.73c-6.52-7.1-66.92-13-55.7-33.27,0,0,15.15-13.85,31.72-5.56"/></clipPath><clipPath id="clip-path-3"><path class="cls-1" d="M293.21,287.65c3.1-.67,4.71-4.76,2.32-7.12s3.07-5.41,8.49,0,12.55,23.35-9.88,26.35S248.71,273.47,243.07,259c-4.14-8.71-60.12-32.13-43.4-48.23,0,0,18.56-8.77,31.95,4.05"/></clipPath><clipPath id="clip-path-4"><path class="cls-1" d="M235.47,322.32c3,1,6.48-1.68,5.65-4.92s5.41-3.07,7.27,4.38-1.2,26.49-22,17.55-21.85-52-19.26-67.34c.92-9.6-35.13-58.41-12.52-63.66,0,0,20.43,2,25.35,19.86"/></clipPath><clipPath id="clip-path-5"><path class="cls-1" d="M19.08,202.09c-2.17-2.32-1.16-6.6,2.14-7.17s.55-6.19-7-4.81S-9.39,202.17,7.35,217.4,63.74,215.76,76.62,207c8.36-4.81,67.72,7.79,63.13-15,0,0-10.27-17.77-28.57-14.85"/></clipPath><clipPath id="clip-path-6"><path class="cls-1" d="M48.21,252.55c-2.81-1.46-3.28-5.84-.37-7.48s-1.54-6-8.2-2.21-18.26,19.22,2.59,28,52.64-20.28,61.9-32.78c6.28-7.31,66.46-15.15,54.58-35.09,0,0-15.59-13.35-31.88-4.51"/></clipPath><clipPath id="clip-path-7"><path class="cls-1" d="M85.27,288.58c-3.11-.63-4.77-4.7-2.42-7.08s-3.14-5.36-8.49.15S62.13,305.16,84.6,307.85s45-34.05,50.42-48.63c4-8.77,59.68-32.94,42.74-48.81,0,0-18.68-8.51-31.89,4.48"/></clipPath><clipPath id="clip-path-8"><path class="cls-1" d="M150,324.3c-2.93,1.21-6.58-1.24-6-4.53s-5.6-2.7-7,4.86,3,26.35,23.12,16,18.32-53.35,14.7-68.48c-1.56-9.52,31.14-60.63,8.23-64.36,0,0-20.25,3.36-24,21.51"/></clipPath><clipPath id="clip-path-9"><path class="cls-1" d="M154.23,165s31.95,20.59,69.57,0C223.81,165,189,225.33,154.23,165Z"/></clipPath></defs><title>17_small_octopus_move_flap_legs</title><g id="character"><path class="cls-2" d="M238.06,193s10.68-17.53,28.91-14.19,18.78.21,33.83,4.72c17.62,5.29,37.2,33.76,57.68,22.25,2.22-2.27,1.31-6.57-2-7.22s-.41-6.2,7.11-4.64,23.33,12.6,6.24,27.44-56.33-2.94-69-11.95C292.59,204.45,233,215.68,238.06,193Z"/><g class="cls-3"><path class="cls-4" d="M383.25,208.23s-7.74,18.71-38.08,11.18-61-40.14-111.27-12c0,0,54.68,10,57.7,9.39S366.95,256.6,383.25,208.23Z"/></g><circle class="cls-5" cx="364.82" cy="224.57" r="4.31" transform="translate(-63.33 210.06) rotate(-29.67)"/><circle class="cls-6" cx="363.48" cy="225.18" r="2.64" transform="translate(-63.81 209.48) rotate(-29.67)"/><circle class="cls-5" cx="340.32" cy="225.8" r="4.31" transform="translate(-67.16 198.1) rotate(-29.67)"/><circle class="cls-6" cx="338.98" cy="226.41" r="2.64" transform="translate(-67.63 197.51) rotate(-29.67)"/><circle class="cls-5" cx="313.97" cy="217.21" r="4.31" transform="translate(-66.36 183.92) rotate(-29.67)"/><circle class="cls-6" cx="312.62" cy="217.82" r="2.64" transform="translate(-66.84 183.34) rotate(-29.67)"/><circle class="cls-5" cx="292.63" cy="208.39" r="4.31" transform="translate(-64.79 172.2) rotate(-29.67)"/><circle class="cls-6" cx="291.28" cy="209" r="2.64" transform="translate(-65.27 171.61) rotate(-29.67)"/><circle class="cls-5" cx="269.89" cy="207.86" r="4.31" transform="translate(-67.51 160.88) rotate(-29.67)"/><circle class="cls-6" cx="268.55" cy="208.47" r="2.64" transform="translate(-67.99 160.29) rotate(-29.67)"/><path class="cls-2" d="M219,203.61s15.15-13.85,31.72-5.56,18,5.44,31.17,14c15.45,10,26.3,42.8,49.18,37.46,2.76-1.56,3.09-5.94.12-7.49s1.34-6.07,8.12-2.48,18.88,18.61-1.66,28.09-53.28-18.54-62.94-30.73C268.15,229.78,207.75,223.93,219,203.61Z"/><g class="cls-7"><path class="cls-4" d="M354.15,258.71s-12.65,15.8-39.69.11S267.05,203.25,211,216.24c0,0,49.72,24.89,52.78,25.12S325,300.61,354.15,258.71Z"/></g><circle class="cls-5" cx="331.9" cy="269.26" r="4.31" transform="translate(-53.6 84.74) rotate(-13.47)"/><circle class="cls-6" cx="330.44" cy="269.47" r="2.64" transform="translate(-53.69 84.41) rotate(-13.47)"/><circle class="cls-5" cx="308.03" cy="263.61" r="4.31" transform="translate(-52.94 79.03) rotate(-13.47)"/><circle class="cls-6" cx="306.57" cy="263.82" r="2.64" transform="translate(-53.03 78.69) rotate(-13.47)"/><circle class="cls-5" cx="285.12" cy="248" r="4.31" transform="translate(-49.94 73.26) rotate(-13.47)"/><circle class="cls-6" cx="283.66" cy="248.21" r="2.64" transform="translate(-50.03 72.92) rotate(-13.47)"/><circle class="cls-5" cx="267.08" cy="233.57" r="4.31" transform="translate(-47.07 68.66) rotate(-13.47)"/><circle class="cls-6" cx="265.62" cy="233.79" r="2.64" transform="translate(-47.16 68.32) rotate(-13.47)"/><circle class="cls-5" cx="245.4" cy="226.73" r="4.31" transform="translate(-46.07 63.42) rotate(-13.47)"/><circle class="cls-6" cx="243.94" cy="226.94" r="2.64" transform="translate(-46.16 63.08) rotate(-13.47)"/><path class="cls-2" d="M199.67,210.75s18.56-8.77,31.95,4.05,15.57,10.5,25.65,22.55c11.81,14.11,12.5,48.65,35.94,50.3,3.1-.67,4.71-4.76,2.32-7.12s3.07-5.41,8.49,0,12.55,23.35-9.88,26.35S248.71,273.47,243.07,259C238.93,250.27,183,226.85,199.67,210.75Z"/><g class="cls-8"><path class="cls-4" d="M312.57,303.29s-16.75,11.37-38-11.61-28.9-67.09-86.32-71.23c0,0,40.16,38.45,43,39.58S272.35,334.72,312.57,303.29Z"/></g><circle class="cls-5" cx="288.19" cy="306.8" r="4.31" transform="translate(-36.53 574.64) rotate(-86.31)"/><circle class="cls-6" cx="286.73" cy="306.57" r="2.64" transform="translate(-37.67 572.97) rotate(-86.31)"/><circle class="cls-5" cx="267.06" cy="294.36" r="4.31" transform="translate(-43.89 541.91) rotate(-86.31)"/><circle class="cls-6" cx="265.6" cy="294.13" r="2.64" transform="translate(-45.02 540.24) rotate(-86.31)"/><circle class="cls-5" cx="249.77" cy="272.68" r="4.31" transform="translate(-38.43 504.38) rotate(-86.31)"/><circle class="cls-6" cx="248.31" cy="272.46" r="2.64" transform="translate(-39.57 502.71) rotate(-86.31)"/><circle class="cls-5" cx="236.8" cy="253.58" r="4.31" transform="translate(-31.5 473.56) rotate(-86.31)"/><circle class="cls-6" cx="235.34" cy="253.35" r="2.64" transform="translate(-32.64 471.89) rotate(-86.31)"/><circle class="cls-5" cx="218.1" cy="240.64" r="4.31" transform="matrix(0.06, -1, 1, 0.06, -36.08, 442.79)"/><circle class="cls-6" cx="216.65" cy="240.41" r="2.64" transform="translate(-37.21 441.13) rotate(-86.31)"/><path class="cls-2" d="M194.61,208.33s20.43,2,25.35,19.86,8,17,10.46,32.51c2.9,18.17-14.22,48.18,5.05,61.62,3,1,6.48-1.68,5.65-4.92s5.41-3.07,7.27,4.38-1.2,26.49-22,17.55-21.85-52-19.26-67.34C208.05,262.39,172,213.57,194.61,208.33Z"/><g class="cls-9"><path class="cls-4" d="M244.07,345.67s-20.21,1.17-26.63-29.43,9.6-72.42-37.57-105.42c0,0,14.75,53.6,16.63,56S193.42,352,244.07,345.67Z"/></g><circle class="cls-5" cx="221.34" cy="336.18" r="4.31" transform="translate(-181.08 327.86) rotate(-55.45)"/><circle class="cls-6" cx="220.21" cy="335.24" r="2.64" transform="matrix(0.57, -0.82, 0.82, 0.57, -180.79, 326.51)"/><circle class="cls-5" cx="209.58" cy="314.66" r="4.31" transform="translate(-168.44 308.85) rotate(-55.45)"/><circle class="cls-6" cx="208.45" cy="313.72" r="2.64" transform="translate(-168.16 307.51) rotate(-55.45)"/><circle class="cls-5" cx="205.85" cy="287.19" r="4.31" transform="translate(-147.43 293.89) rotate(-55.45)"/><circle class="cls-6" cx="204.72" cy="286.25" r="2.64" transform="translate(-147.14 292.55) rotate(-55.45)"/><circle class="cls-5" cx="204.52" cy="264.13" r="4.31" transform="translate(-129.02 282.81) rotate(-55.45)"/><circle class="cls-6" cx="203.38" cy="263.19" r="2.64" transform="matrix(0.57, -0.82, 0.82, 0.57, -128.73, 281.46)"/><circle class="cls-5" cx="195.11" cy="243.44" r="4.31" transform="translate(-116.04 266.09) rotate(-55.45)"/><circle class="cls-6" cx="193.97" cy="242.49" r="2.64" transform="translate(-115.76 264.75) rotate(-55.45)"/><path class="cls-2" d="M139.76,192.08s-10.27-17.77-28.57-14.85S92.4,177,77.26,181.18c-17.74,4.88-38,32.89-58.18,20.91-2.17-2.32-1.16-6.6,2.14-7.17s.55-6.19-7-4.81S-9.39,202.17,7.35,217.4,63.74,215.76,76.62,207C85,202.24,144.34,214.84,139.76,192.08Z"/><g class="cls-10"><path class="cls-4" d="M-5.74,203.94S1.56,222.81,32.07,216,94,177.26,143.58,206.53c0,0-54.9,8.77-57.9,8.06S9.44,252.67-5.74,203.94Z"/></g><circle class="cls-5" cx="12.31" cy="220.69" r="4.31" transform="translate(-183.22 117.6) rotate(-59.01)"/><circle class="cls-6" cx="13.63" cy="221.34" r="2.64" transform="translate(-183.12 119.05) rotate(-59.01)"/><circle class="cls-5" cx="36.77" cy="222.49" r="4.31" transform="translate(-172.89 139.44) rotate(-59.01)"/><circle class="cls-6" cx="38.09" cy="223.13" r="2.64" transform="translate(-172.8 140.89) rotate(-59.01)"/><circle class="cls-5" cx="63.31" cy="214.5" r="4.31" transform="translate(-153.17 158.33) rotate(-59.01)"/><circle class="cls-6" cx="64.64" cy="215.15" r="2.64" transform="translate(-153.07 159.78) rotate(-59.01)"/><circle class="cls-5" cx="84.85" cy="206.17" r="4.31" transform="translate(-135.58 172.75) rotate(-59.01)"/><circle class="cls-6" cx="86.18" cy="206.82" r="2.64" transform="translate(-135.49 174.2) rotate(-59.01)"/><circle class="cls-5" cx="107.59" cy="206.17" r="4.31" transform="translate(-124.55 192.24) rotate(-59.01)"/><circle class="cls-6" cx="108.92" cy="206.81" r="2.64" transform="translate(-124.45 193.69) rotate(-59.01)"/><path class="cls-2" d="M158.71,203s-15.59-13.35-31.88-4.51-17.79,6-30.69,15C81,224,71.26,257.14,48.21,252.55c-2.81-1.46-3.28-5.84-.37-7.48s-1.54-6-8.2-2.21-18.26,19.22,2.59,28,52.64-20.28,61.9-32.78C110.42,230.79,170.6,223,158.71,203Z"/><g class="cls-11"><path class="cls-4" d="M25.42,262.54s13.16,15.38,39.67-1.19,45.56-57.11,102-46c0,0-48.87,26.51-51.93,26.84S55.93,303.46,25.42,262.54Z"/></g><circle class="cls-5" cx="48.01" cy="272.35" r="4.31" transform="translate(-228.43 264.66) rotate(-78.41)"/><circle class="cls-6" cx="49.47" cy="272.51" r="2.64" transform="translate(-227.42 266.23) rotate(-78.41)"/><circle class="cls-5" cx="71.67" cy="265.91" r="4.31" transform="translate(-203.22 282.71) rotate(-78.41)"/><circle class="cls-6" cx="73.14" cy="266.08" r="2.64" transform="translate(-202.21 284.28) rotate(-78.41)"/><circle class="cls-5" cx="94.06" cy="249.56" r="4.31" transform="translate(-169.31 291.57) rotate(-78.41)"/><circle class="cls-6" cx="95.53" cy="249.73" r="2.64" transform="translate(-168.3 293.14) rotate(-78.41)"/><circle class="cls-5" cx="111.61" cy="234.55" r="4.31" transform="translate(-140.58 296.77) rotate(-78.41)"/><circle class="cls-6" cx="113.08" cy="234.72" r="2.64" transform="translate(-139.57 298.33) rotate(-78.41)"/><circle class="cls-5" cx="133.05" cy="226.99" r="4.31" transform="translate(-116.04 311.73) rotate(-78.41)"/><circle class="cls-6" cx="134.52" cy="227.16" r="2.64" transform="translate(-115.03 313.3) rotate(-78.41)"/><path class="cls-2" d="M177.75,210.41s-18.68-8.51-31.89,4.48-15.43,10.71-25.34,22.9c-11.62,14.27-11.84,48.82-35.25,50.79-3.11-.63-4.77-4.7-2.42-7.08s-3.14-5.36-8.49.15S62.13,305.16,84.6,307.85s45-34.05,50.42-48.63C139,250.46,194.69,226.29,177.75,210.41Z"/><g class="cls-12"><path class="cls-4" d="M66.12,304.48s16.9,11.14,37.79-12.12,28-67.48,85.34-72.4c0,0-39.63,39-42.48,40.16S106.76,335.36,66.12,304.48Z"/></g><circle class="cls-5" cx="90.54" cy="307.65" r="4.31" transform="translate(-23.7 7.99) rotate(-4.47)"/><circle class="cls-6" cx="92" cy="307.41" r="2.64" transform="translate(-23.67 8.1) rotate(-4.47)"/><circle class="cls-5" cx="111.51" cy="294.93" r="4.31" transform="translate(-22.64 9.59) rotate(-4.47)"/><circle class="cls-6" cx="112.96" cy="294.68" r="2.64" transform="translate(-22.62 9.7) rotate(-4.47)"/><circle class="cls-5" cx="128.5" cy="273.02" r="4.31" transform="translate(-20.88 10.84) rotate(-4.47)"/><circle class="cls-6" cx="129.95" cy="272.77" r="2.64" transform="translate(-20.86 10.95) rotate(-4.47)"/><circle class="cls-5" cx="141.21" cy="253.74" r="4.31" transform="translate(-19.34 11.77) rotate(-4.47)"/><circle class="cls-6" cx="142.66" cy="253.49" r="2.64" transform="translate(-19.32 11.89) rotate(-4.47)"/><circle class="cls-5" cx="159.73" cy="240.55" r="4.31" transform="matrix(1, -0.08, 0.08, 1, -18.26, 13.18)"/><circle class="cls-6" cx="161.18" cy="240.3" r="2.64" transform="translate(-18.23 13.29) rotate(-4.47)"/><path class="cls-2" d="M183.11,207.83s-20.25,3.36-24,21.51-6.82,17.5-8.26,33.14c-1.68,18.32,17.42,47.12-.92,61.82-2.93,1.21-6.58-1.24-6-4.53s-5.6-2.7-7,4.86,3,26.35,23.12,16,18.32-53.35,14.7-68.48C173.32,262.67,206,211.56,183.11,207.83Z"/><g class="cls-13"><path class="cls-4" d="M143,348.18S163.2,348,167.56,317,153.13,245.42,198,209.34c0,0-11.13,54.47-12.84,57S193.92,351.13,143,348.18Z"/></g><circle class="cls-5" cx="165" cy="337.19" r="4.31" transform="translate(-173.72 175.35) rotate(-38.39)"/><circle class="cls-6" cx="166.07" cy="336.18" r="2.64" transform="translate(-172.86 175.79) rotate(-38.39)"/><circle class="cls-5" cx="175.3" cy="314.93" r="4.31" transform="translate(-157.67 176.93) rotate(-38.39)"/><circle class="cls-6" cx="176.36" cy="313.91" r="2.64" transform="translate(-156.81 177.37) rotate(-38.39)"/><circle class="cls-5" cx="177.17" cy="287.27" r="4.31" transform="translate(-140.09 172.12) rotate(-38.39)"/><circle class="cls-6" cx="178.24" cy="286.26" r="2.64" transform="translate(-139.23 172.56) rotate(-38.39)"/><circle class="cls-5" cx="176.96" cy="264.18" r="4.31" transform="translate(-125.79 166.99) rotate(-38.39)"/><circle class="cls-6" cx="178.03" cy="263.16" r="2.64" transform="translate(-124.93 167.44) rotate(-38.39)"/><circle class="cls-5" cx="184.97" cy="242.9" r="4.31" transform="translate(-110.85 167.36) rotate(-38.39)"/><circle class="cls-6" cx="186.03" cy="241.88" r="2.64" transform="translate(-109.99 167.81) rotate(-38.39)"/><path class="cls-2" d="M200.43.59a140.64,140.64,0,0,0-25.69,0C87,7.22,81.09,99.7,94,125.93a235.6,235.6,0,0,0,15.39,26.59,22.37,22.37,0,0,0,11,36.58c1.75,16.15,35.89,21.16,59.83,22,2.14.09,4.62.14,7.34.14s5.19,0,7.34-.14c23.71-.84,57.41-5.77,59.77-21.54a22.37,22.37,0,0,0,11.46-38.91c4.45-6.88,9.72-14.6,15-24.73C294.7,100.1,288,9.84,200.43.59Z"/><circle class="cls-14" cx="158.11" cy="122.65" r="26.41"/><circle class="cls-15" cx="158.11" cy="124.71" r="23.25"/><circle class="cls-16" cx="158.11" cy="124.71" r="18.34"/><circle class="cls-15" cx="165.92" cy="116.4" r="6.92"/><circle class="cls-14" cx="221.67" cy="122.65" r="26.41"/><circle class="cls-15" cx="221.67" cy="124.71" r="23.25"/><circle class="cls-16" cx="221.67" cy="124.71" r="18.34"/><circle class="cls-15" cx="229.48" cy="116.4" r="6.92"/><path class="cls-17" d="M154.23,165s31.95,20.59,69.57,0C223.81,165,189,225.33,154.23,165Z"/><path class="cls-18" d="M147.57,165.55a8.68,8.68,0,0,0,11-5.1"/><path class="cls-18" d="M231.25,165.55a8.68,8.68,0,0,1-11-5.1"/><g class="cls-19"><path class="cls-20" d="M175.82,192.49s-.56-8.43,5.38-8.43,6.82,3.37,6.82,3.37.88-3.85,7.38-3.85,5.54,12.36,5.54,12.36Z"/></g><path class="cls-17" d="M142.2,79.42h28.4S156.4,68.06,142.2,79.42Z"/><path class="cls-17" d="M208.46,79.42h28.4S222.66,68.06,208.46,79.42Z"/></g></svg>