<svg xmlns="http://www.w3.org/2000/svg" xmlns:xlink="http://www.w3.org/1999/xlink" viewBox="0 0 289.72 345.87"><defs><style>.cls-1,.cls-18{fill:none;}.cls-2{fill:#f7931e;}.cls-3{clip-path:url(#clip-path);}.cls-4{fill:#f15a24;}.cls-5{fill:#d4555e;}.cls-6{fill:#510706;}.cls-7{clip-path:url(#clip-path-2);}.cls-8{clip-path:url(#clip-path-3);}.cls-9{clip-path:url(#clip-path-4);}.cls-10{clip-path:url(#clip-path-5);}.cls-11{clip-path:url(#clip-path-6);}.cls-12{clip-path:url(#clip-path-7);}.cls-13{clip-path:url(#clip-path-8);}.cls-14,.cls-17{fill:#a81307;}.cls-15{fill:#fff;}.cls-16{fill:#231f20;}.cls-17,.cls-18{stroke:#a81307;stroke-linecap:round;stroke-linejoin:round;}.cls-17{stroke-width:0.63px;}.cls-18{stroke-width:1.71px;}.cls-19{clip-path:url(#clip-path-9);}.cls-20{fill:#fa4316;}</style><clipPath id="clip-path"><path class="cls-1" d="M274.07,279.6c3.15-.32,5.21-4.21,3.1-6.81s3.65-5,8.43,1,9.86,24.61-12.76,25.08-41.41-38.31-45.39-53.34c-3.14-9.12-56.15-38.64-37.74-52.78,0,0,19.42-6.64,31.29,7.6"/></clipPath><clipPath id="clip-path-2"><path class="cls-1" d="M248.15,297.64c3.17-.07,5.53-3.78,3.63-6.55s4-4.72,8.33,1.64,7.88,25.31-14.71,24-38.25-41.47-41-56.77c-2.4-9.34-52.92-43-33.44-55.6,0,0,19.89-5.08,30.59,10"/></clipPath><clipPath id="clip-path-3"><path class="cls-1" d="M215.12,308.9c3.14.46,6.08-2.81,4.67-5.85s4.77-4,7.94,3,3.58,26.27-18.48,21.22-30.84-47.23-31-62.79c-.82-9.61-45.06-51.15-23.76-60.37,0,0,20.45-1.71,28.5,15"/></clipPath><clipPath id="clip-path-4"><path class="cls-1" d="M170.58,325.84c2.79,1.51,6.67-.55,6.4-3.89s5.85-2.1,6.42,5.55-5.69,25.9-24.66,13.56-12.69-55-7.53-69.64c2.54-9.3-24.69-63.53-1.52-64.86,0,0,19.79,5.44,21.6,23.88"/></clipPath><clipPath id="clip-path-5"><path class="cls-1" d="M14.92,287.93c-3.17.05-5.67-3.56-3.89-6.4s-4.22-4.56-8.26,2-6.88,25.6,15.64,23.39S55,263.95,57.17,248.54c2-9.42,51.18-45,31.22-56.87,0,0-20.07-4.29-30.17,11.25"/></clipPath><clipPath id="clip-path-6"><path class="cls-1" d="M41.71,302.68c-3.16.22-5.85-3.25-4.23-6.18s-4.46-4.33-8.14,2.41-5.49,25.94,16.88,22.52,34.22-44.85,35.56-60.35c1.52-9.52,48.68-47.71,28.12-58.47,0,0-20.27-3.2-29.52,12.85"/></clipPath><clipPath id="clip-path-7"><path class="cls-1" d="M72.75,317.33c-3.1.68-6.27-2.36-5.09-5.49s-5-3.63-7.7,3.58-1.64,26.46,20,19.81,27.3-49.37,26.36-64.89c.12-9.64,41.19-54.31,19.27-62,0,0-20.53-.21-27.33,17"/></clipPath><clipPath id="clip-path-8"><path class="cls-1" d="M110.81,326.48c-2.82,1.44-6.66-.7-6.31-4s-5.8-2.24-6.55,5.4,5.09,26,24.34,14.12,14-54.66,9.13-69.45c-2.32-9.36,26.15-62.95,3-64.81,0,0-19.91,5-22.15,23.38"/></clipPath><clipPath id="clip-path-9"><path class="cls-1" d="M105.45,165s31.95,20.59,69.57,0C175,165,140.24,225.33,105.45,165Z"/></clipPath></defs><title>17_small_octopus_move_flap_legs</title><g id="character"><path class="cls-2" d="M189.72,192.72s19.42-6.64,31.29,7.6,14.3,12.18,23,25.28c10.16,15.34,7,49.74,30.09,54,3.15-.32,5.21-4.21,3.1-6.81s3.65-5,8.43,1,9.86,24.61-12.76,25.08-41.41-38.31-45.39-53.34C224.32,236.38,171.3,206.85,189.72,192.72Z"/><g class="cls-3"><path class="cls-4" d="M291.56,297.3s-17.91,9.43-36.42-15.78-21.22-69.9-77.82-80.44c0,0,35.61,42.7,38.33,44.14S248.08,324,291.56,297.3Z"/></g><circle class="cls-5" cx="266.95" cy="298.06" r="4.31" transform="translate(-73.35 508.55) rotate(-79.89)"/><circle class="cls-6" cx="265.52" cy="297.68" r="2.64" transform="matrix(0.18, -0.98, 0.98, 0.18, -74.14, 506.83)"/><circle class="cls-5" cx="247.33" cy="283.34" r="4.31" transform="translate(-75.02 477.1) rotate(-79.89)"/><circle class="cls-6" cx="245.91" cy="282.95" r="2.64" transform="translate(-75.81 475.38) rotate(-79.89)"/><circle class="cls-5" cx="232.58" cy="259.87" r="4.31" transform="translate(-64.08 443.22) rotate(-79.89)"/><circle class="cls-6" cx="231.16" cy="259.48" r="2.64" transform="translate(-64.87 441.5) rotate(-79.89)"/><circle class="cls-5" cx="221.82" cy="239.43" r="4.31" transform="translate(-52.83 415.79) rotate(-79.89)"/><circle class="cls-6" cx="220.4" cy="239.04" r="2.64" transform="matrix(0.18, -0.98, 0.98, 0.18, -53.62, 414.06)"/><circle class="cls-5" cx="204.69" cy="224.48" r="4.31" transform="translate(-52.23 386.59) rotate(-79.89)"/><circle class="cls-6" cx="203.27" cy="224.09" r="2.64" transform="translate(-53.02 384.87) rotate(-79.89)"/><path class="cls-2" d="M170.94,204.35s19.89-5.08,30.59,10,13.29,13.27,20.9,27c8.91,16.1,3,50.14,25.72,56.22,3.17-.07,5.53-3.78,3.63-6.55s4-4.72,8.33,1.64,7.88,25.31-14.71,24-38.25-41.47-41-56.77C202,250.62,151.46,217,170.94,204.35Z"/><g class="cls-7"><path class="cls-4" d="M264.18,316.67s-18.6,8-35.05-18.61-15.62-71.36-71.2-86.34c0,0,32.11,45.38,34.71,47S218.72,339.88,264.18,316.67Z"/></g><circle class="cls-5" cx="239.58" cy="315.48" r="4.31" transform="translate(-126.24 467.49) rotate(-75.35)"/><circle class="cls-6" cx="238.2" cy="314.98" r="2.64" transform="translate(-126.79 465.77) rotate(-75.35)"/><circle class="cls-5" cx="221.2" cy="299.25" r="4.31" transform="translate(-124.27 437.57) rotate(-75.35)"/><circle class="cls-6" cx="219.81" cy="298.75" r="2.64" transform="translate(-124.82 435.85) rotate(-75.35)"/><circle class="cls-5" cx="208.35" cy="274.68" r="4.31" transform="matrix(0.25, -0.97, 0.97, 0.25, -110.1, 406.79)"/><circle class="cls-6" cx="206.96" cy="274.18" r="2.64" transform="matrix(0.25, -0.97, 0.97, 0.25, -110.65, 405.07)"/><circle class="cls-5" cx="199.24" cy="253.46" r="4.31" transform="translate(-96.37 382.12) rotate(-75.35)"/><circle class="cls-6" cx="197.86" cy="252.96" r="2.64" transform="translate(-96.92 380.41) rotate(-75.35)"/><circle class="cls-5" cx="183.35" cy="237.2" r="4.31" transform="matrix(0.25, -0.97, 0.97, 0.25, -92.51, 354.6)"/><circle class="cls-6" cx="181.96" cy="236.7" r="2.64" transform="translate(-93.06 352.88) rotate(-75.35)"/><path class="cls-2" d="M154.45,204.11s20.45-1.71,28.5,15,10.91,15.29,16.13,30.11c6.12,17.35-5.33,49.95,16,59.7,3.14.46,6.08-2.81,4.67-5.85s4.77-4,7.94,3,3.58,26.27-18.48,21.22-30.84-47.23-31-62.79C177.38,254.88,133.15,213.34,154.45,204.11Z"/><g class="cls-8"><path class="cls-4" d="M227.78,330.33s-19.67,4.78-31.48-24.16-3.57-73-55.9-97c0,0,24.15,50.08,26.43,52.14S179.1,345.69,227.78,330.33Z"/></g><circle class="cls-5" cx="203.72" cy="325.08" r="4.31" transform="translate(-176.3 377.69) rotate(-65.81)"/><circle class="cls-6" cx="202.44" cy="324.36" r="2.64" transform="translate(-176.4 376.09) rotate(-65.81)"/><circle class="cls-5" cx="188.28" cy="306.03" r="4.31" transform="translate(-168.03 352.36) rotate(-65.81)"/><circle class="cls-6" cx="187" cy="305.3" r="2.64" transform="translate(-168.12 350.76) rotate(-65.81)"/><circle class="cls-5" cx="179.68" cy="279.67" r="4.31" transform="translate(-149.06 328.96) rotate(-65.81)"/><circle class="cls-6" cx="178.4" cy="278.95" r="2.64" transform="translate(-149.16 327.36) rotate(-65.81)"/><circle class="cls-5" cx="174.22" cy="257.23" r="4.31" transform="translate(-131.82 310.74) rotate(-65.81)"/><circle class="cls-6" cx="172.94" cy="256.51" r="2.64" transform="translate(-131.91 309.14) rotate(-65.81)"/><circle class="cls-5" cx="161.24" cy="238.56" r="4.31" transform="translate(-122.45 287.88) rotate(-65.81)"/><circle class="cls-6" cx="159.96" cy="237.84" r="2.64" transform="translate(-122.54 286.28) rotate(-65.81)"/><path class="cls-2" d="M149.69,206.56s19.79,5.44,21.6,23.88,5,18.11,4.78,33.82c-.23,18.4-22.21,45.06-5.5,61.58,2.79,1.51,6.67-.55,6.4-3.89s5.85-2.1,6.42,5.55-5.69,25.9-24.66,13.56-12.69-55-7.53-69.64C153.75,262.12,126.52,207.89,149.69,206.56Z"/><g class="cls-9"><path class="cls-4" d="M175.08,350.31S155,348,153.85,316.79s21.77-69.73-19.1-110.27c0,0,5.42,55.33,6.86,58.05S124.09,348,175.08,350.31Z"/></g><circle class="cls-5" cx="154.3" cy="337.1" r="4.31" transform="translate(-194.65 211.88) rotate(-45.66)"/><circle class="cls-6" cx="153.34" cy="335.98" r="2.64" transform="translate(-194.13 210.86) rotate(-45.66)"/><circle class="cls-5" cx="146.37" cy="313.89" r="4.31" transform="translate(-180.44 199.22) rotate(-45.66)"/><circle class="cls-6" cx="145.41" cy="312.77" r="2.64" transform="translate(-179.92 198.2) rotate(-45.66)"/><circle class="cls-5" cx="147.37" cy="286.19" r="4.31" transform="translate(-160.32 191.59) rotate(-45.66)"/><circle class="cls-6" cx="146.41" cy="285.06" r="2.64" transform="translate(-159.81 190.57) rotate(-45.66)"/><circle class="cls-5" cx="149.97" cy="263.24" r="4.31" transform="translate(-143.12 186.54) rotate(-45.66)"/><circle class="cls-6" cx="149.01" cy="262.12" r="2.64" transform="translate(-142.61 185.52) rotate(-45.66)"/><circle class="cls-5" cx="144.21" cy="241.24" r="4.31" transform="translate(-129.12 175.8) rotate(-45.66)"/><circle class="cls-6" cx="143.26" cy="240.12" r="2.64" transform="translate(-128.61 174.78) rotate(-45.66)"/><path class="cls-2" d="M88.39,191.67s-20.07-4.29-30.17,11.25S45.46,216.7,38.4,230.74c-8.27,16.44-1,50.22-23.48,57.19-3.17.05-5.67-3.56-3.89-6.4s-4.22-4.56-8.26,2-6.88,25.6,15.64,23.39S55,263.95,57.17,248.54C59.2,239.12,108.35,203.52,88.39,191.67Z"/><g class="cls-10"><path class="cls-4" d="M-.36,307.58s18.9,7.24,34.29-20,12.79-71.92,67.74-89.08c0,0-30.3,46.61-32.83,48.37S46,329-.36,307.58Z"/></g><circle class="cls-5" cx="24.18" cy="305.42" r="4.31" transform="translate(-87.79 20.24) rotate(-16.91)"/><circle class="cls-6" cx="25.54" cy="304.86" r="2.64" transform="translate(-87.57 20.61) rotate(-16.91)"/><circle class="cls-5" cx="41.91" cy="288.47" r="4.31" transform="translate(-82.1 24.66) rotate(-16.91)"/><circle class="cls-6" cx="43.27" cy="287.92" r="2.64" transform="translate(-81.87 25.04) rotate(-16.91)"/><circle class="cls-5" cx="53.78" cy="263.42" r="4.31" transform="translate(-74.3 27.03) rotate(-16.91)"/><circle class="cls-6" cx="55.15" cy="262.87" r="2.64" transform="translate(-74.07 27.41) rotate(-16.91)"/><circle class="cls-5" cx="62.04" cy="241.85" r="4.31" transform="translate(-67.67 28.5) rotate(-16.91)"/><circle class="cls-6" cx="63.4" cy="241.3" r="2.64" transform="translate(-67.44 28.88) rotate(-16.91)"/><circle class="cls-5" cx="77.28" cy="224.98" r="4.31" transform="translate(-62.1 32.21) rotate(-16.91)"/><circle class="cls-6" cx="78.64" cy="224.43" r="2.64" transform="translate(-61.88 32.58) rotate(-16.91)"/><path class="cls-2" d="M109.9,202.61s-20.27-3.2-29.52,12.85-12,14.45-18.29,28.84c-7.37,16.86,1.66,50.2-20.37,58.37-3.16.22-5.85-3.25-4.23-6.18s-4.46-4.33-8.14,2.41-5.49,25.94,16.88,22.52,34.22-44.85,35.56-60.35C83.3,251.56,130.46,213.38,109.9,202.61Z"/><g class="cls-11"><path class="cls-4" d="M27.51,323.13s19.27,6.21,33.17-21.79,8.91-72.51,62.85-92.6c0,0-27.75,48.18-30.18,50.06S74.94,342,27.51,323.13Z"/></g><circle class="cls-5" cx="51.89" cy="319.65" r="4.31" transform="translate(-106.17 37.01) rotate(-19.99)"/><circle class="cls-6" cx="53.23" cy="319.02" r="2.64" transform="translate(-105.87 37.43) rotate(-19.99)"/><circle class="cls-5" cx="68.69" cy="301.78" r="4.31" transform="translate(-99.04 41.67) rotate(-19.99)"/><circle class="cls-6" cx="70.02" cy="301.15" r="2.64" transform="translate(-98.75 42.09) rotate(-19.99)"/><circle class="cls-5" cx="79.2" cy="276.12" r="4.31" transform="translate(-89.64 43.72) rotate(-19.99)"/><circle class="cls-6" cx="80.53" cy="275.49" r="2.64" transform="translate(-89.34 44.14) rotate(-19.99)"/><circle class="cls-5" cx="86.28" cy="254.14" r="4.31" transform="translate(-81.69 44.82) rotate(-19.99)"/><circle class="cls-6" cx="87.62" cy="253.51" r="2.64" transform="translate(-81.4 45.24) rotate(-19.99)"/><circle class="cls-5" cx="100.59" cy="236.47" r="4.31" transform="translate(-74.79 48.65) rotate(-19.99)"/><circle class="cls-6" cx="101.93" cy="235.85" r="2.64" transform="translate(-74.5 49.06) rotate(-19.99)"/><path class="cls-2" d="M125.58,208.37s-20.53-.21-27.33,17-9.76,16-13.88,31.21c-4.83,17.75,9,49.42-11.62,60.72-3.1.68-6.27-2.36-5.09-5.49s-5-3.63-7.7,3.58-1.64,26.46,20,19.81,27.3-49.37,26.36-64.89C106.43,260.68,147.5,216,125.58,208.37Z"/><g class="cls-12"><path class="cls-4" d="M61.69,339.62s20,3.33,29.63-26.41-1.79-73,48.64-100.79c0,0-20.41,51.72-22.54,53.94S111.37,351.37,61.69,339.62Z"/></g><circle class="cls-5" cx="85.31" cy="332.62" r="4.31" transform="translate(-147.93 80.6) rotate(-28.4)"/><circle class="cls-6" cx="86.53" cy="331.81" r="2.64" transform="translate(-147.39 81.08) rotate(-28.4)"/><circle class="cls-5" cx="99.31" cy="312.49" r="4.31" transform="translate(-136.67 84.83) rotate(-28.4)"/><circle class="cls-6" cx="100.53" cy="311.67" r="2.64" transform="translate(-136.13 85.32) rotate(-28.4)"/><circle class="cls-5" cx="105.95" cy="285.57" r="4.31" transform="translate(-123.07 84.75) rotate(-28.4)"/><circle class="cls-6" cx="107.18" cy="284.76" r="2.64" transform="translate(-122.53 85.24) rotate(-28.4)"/><circle class="cls-5" cx="109.75" cy="262.79" r="4.31" transform="translate(-111.78 83.82) rotate(-28.4)"/><circle class="cls-6" cx="110.98" cy="261.98" r="2.64" transform="translate(-111.24 84.31) rotate(-28.4)"/><circle class="cls-5" cx="121.32" cy="243.22" r="4.31" transform="translate(-101.08 86.97) rotate(-28.4)"/><circle class="cls-6" cx="122.55" cy="242.41" r="2.64" transform="translate(-100.54 87.46) rotate(-28.4)"/><path class="cls-2" d="M134.44,207.71s-19.91,5-22.15,23.38-5.39,18-5.56,33.7c-.19,18.4,21.16,45.56,4.07,61.69-2.82,1.44-6.66-.7-6.31-4s-5.8-2.24-6.55,5.4,5.09,26,24.34,14.12,14-54.66,9.13-69.45C129.1,263.16,157.57,209.57,134.44,207.71Z"/><g class="cls-13"><path class="cls-4" d="M105.74,350.84s20.16-1.82,22-33S107.59,247.6,149.38,208c0,0-6.7,55.19-8.2,57.88S156.77,349.67,105.74,350.84Z"/></g><circle class="cls-5" cx="126.82" cy="338.11" r="4.31" transform="translate(-196.56 177.4) rotate(-43.01)"/><circle class="cls-6" cx="127.81" cy="337.01" r="2.64" transform="translate(-195.55 177.78) rotate(-43.01)"/><circle class="cls-5" cx="135.29" cy="315.09" r="4.31" transform="translate(-178.58 176.99) rotate(-43.01)"/><circle class="cls-6" cx="136.27" cy="313.99" r="2.64" transform="translate(-177.57 177.37) rotate(-43.01)"/><circle class="cls-5" cx="134.93" cy="287.37" r="4.31" transform="translate(-159.77 169.29) rotate(-43.01)"/><circle class="cls-6" cx="135.91" cy="286.27" r="2.64" transform="translate(-158.75 169.67) rotate(-43.01)"/><circle class="cls-5" cx="132.85" cy="264.37" r="4.31" transform="translate(-144.63 161.7) rotate(-43.01)"/><circle class="cls-6" cx="133.84" cy="263.27" r="2.64" transform="translate(-143.62 162.07) rotate(-43.01)"/><circle class="cls-5" cx="139.11" cy="242.51" r="4.31" transform="translate(-128.04 160.09) rotate(-43.01)"/><circle class="cls-6" cx="140.1" cy="241.41" r="2.64" transform="translate(-127.03 160.47) rotate(-43.01)"/><path class="cls-2" d="M151.65.59A140.64,140.64,0,0,0,126,.59C38.19,7.22,32.31,99.7,45.21,125.93A235.6,235.6,0,0,0,60.6,152.52a22.37,22.37,0,0,0,11,36.58c1.75,16.15,35.89,21.16,59.83,22,2.14.09,4.62.14,7.34.14s5.19,0,7.34-.14c23.71-.84,57.41-5.77,59.77-21.54a22.37,22.37,0,0,0,11.46-38.91c4.45-6.88,9.72-14.6,15-24.73C245.91,100.1,239.22,9.84,151.65.59Z"/><circle class="cls-14" cx="109.33" cy="122.65" r="26.41"/><circle class="cls-15" cx="109.33" cy="124.71" r="23.25"/><circle class="cls-16" cx="109.33" cy="124.71" r="18.34"/><circle class="cls-15" cx="117.13" cy="116.4" r="6.92"/><circle class="cls-14" cx="172.89" cy="122.65" r="26.41"/><circle class="cls-15" cx="172.89" cy="124.71" r="23.25"/><circle class="cls-16" cx="172.89" cy="124.71" r="18.34"/><circle class="cls-15" cx="180.7" cy="116.4" r="6.92"/><path class="cls-17" d="M105.45,165s31.95,20.59,69.57,0C175,165,140.24,225.33,105.45,165Z"/><path class="cls-18" d="M98.79,165.55a8.68,8.68,0,0,0,11-5.1"/><path class="cls-18" d="M182.47,165.55a8.68,8.68,0,0,1-11-5.1"/><g class="cls-19"><path class="cls-20" d="M127,192.49s-.56-8.43,5.38-8.43,6.82,3.37,6.82,3.37.88-3.85,7.38-3.85,5.54,12.36,5.54,12.36Z"/></g><path class="cls-17" d="M93.41,79.42h28.4S107.61,68.06,93.41,79.42Z"/><path class="cls-17" d="M159.68,79.42h28.4S173.88,68.06,159.68,79.42Z"/></g></svg>