<svg id="Layer_1" data-name="Layer 1" xmlns="http://www.w3.org/2000/svg" xmlns:xlink="http://www.w3.org/1999/xlink" viewBox="0 0 260 168"><defs><style>.cls-1{fill:#ff4343;}.cls-2{fill:#ef3535;}.cls-3{fill:#e22929;opacity:0.57;}.cls-4{fill:#e82e2f;}.cls-5{fill:#2ca0ff;}.cls-6{fill:#f43a3a;}.cls-7{fill:#d81d1d;}.cls-8{clip-path:url(#clip-path);}.cls-9{fill:#ea2f2f;}.cls-10,.cls-12{fill:none;stroke-miterlimit:10;}.cls-10{stroke:#ea2f2f;stroke-width:0.23px;}.cls-11{clip-path:url(#clip-path-2);}.cls-12{stroke:#e53333;stroke-width:0.16px;}.cls-13{clip-path:url(#clip-path-3);}.cls-14{opacity:0.43;}.cls-15{fill:#d12020;}.cls-16{opacity:0.68;}.cls-17{clip-path:url(#clip-path-4);}.cls-18{fill:#d82b2b;}.cls-19{clip-path:url(#clip-path-5);}.cls-20{fill:#e02d36;}.cls-21,.cls-26{fill:#cc2939;}.cls-21{opacity:0.18;}.cls-22{clip-path:url(#clip-path-6);}.cls-23{fill:#5fbeff;}.cls-24{fill:#0740a5;}.cls-25{fill:#5c27ff;}.cls-26{opacity:0.64;}.cls-27{clip-path:url(#clip-path-7);}.cls-28{clip-path:url(#clip-path-8);}.cls-29{opacity:0.34;}</style><clipPath id="clip-path"><path class="cls-1" d="M196.7,98.25c.11-.32.44-.52.56-.84s.07-.42.21-.57a.74.74,0,0,1,.33-.17,2.7,2.7,0,0,1,.41-.07,4.25,4.25,0,0,1,.57-.46,1,1,0,0,1,.31-.35c.28-.18.66-.15.95-.33s.31-.29.51-.32a.68.68,0,0,1,.37.06l.27.13h.26a4.92,4.92,0,0,1,1.39.21.27.27,0,0,1,.12,0,.32.32,0,0,1,.14,0,1.5,1.5,0,0,1,1,.39c.26.21.46.5.74.7s.82.36,1,.73.1.68.25,1,.27.34.29.54a.64.64,0,0,1-.1.35.56.56,0,0,1-.09.17h0a1.55,1.55,0,0,1,.17,1.14c-.07.34-.23.64-.28,1s.06.9-.18,1.25-.55.4-.75.68-.17.39-.34.5a.61.61,0,0,1-.27.08,1.49,1.49,0,0,1-.83.55c-.32.1-.67.11-1,.23s-.75.49-1.18.45-.62-.29-1-.32-.43,0-.61-.06a.69.69,0,0,1-.24-.27l0,0a4.77,4.77,0,0,1-3-4.44,4.63,4.63,0,0,1,.09-.92A1.66,1.66,0,0,1,196.7,98.25Z"/></clipPath><clipPath id="clip-path-2"><path class="cls-2" d="M202.31,95.2a2.15,2.15,0,0,1-1,1.45c-.49.36-1.05.6-1.55.94a9.43,9.43,0,0,0-1.31,1.22,7,7,0,0,0-1.17,1.5c-.27.52-.4,1.09-.62,1.63a.56.56,0,0,1-.17.25.36.36,0,0,1-.27,0,1.27,1.27,0,0,1-.87-.78,6.49,6.49,0,0,1-.48-1.61,22.39,22.39,0,0,1-.35-3.27,9.67,9.67,0,0,1,.1-1.94,2,2,0,0,1,.35-.95,1.87,1.87,0,0,1,.66-.49,5.36,5.36,0,0,1,5.39.32c.2.13.4.29.61.42a1.83,1.83,0,0,1,.46.28A1.43,1.43,0,0,1,202.31,95.2Z"/></clipPath><clipPath id="clip-path-3"><path class="cls-3" d="M197,97.21a1,1,0,0,1,.26.27,1.25,1.25,0,0,1,.12.34,6,6,0,0,0,.82,1.66,3.15,3.15,0,0,0,.5.64,8.19,8.19,0,0,0,1,.59.36.36,0,0,1,.16.14.39.39,0,0,1,0,.3,1.85,1.85,0,0,1-.91,1.16,6.4,6.4,0,0,1-1.42.54,5.38,5.38,0,0,1-1.3.27,1.62,1.62,0,0,1-1.22-.44,2.23,2.23,0,0,1-.32-.48l-1.18-2.14a5.76,5.76,0,0,1-.55-1.18,5.5,5.5,0,0,1-.12-2.1,2.18,2.18,0,0,1,.29-1.12.54.54,0,0,1,.62-.16,6.09,6.09,0,0,1,2.11.91C196.33,96.66,196.69,96.93,197,97.21Z"/></clipPath><clipPath id="clip-path-4"><path class="cls-2" d="M206.32,104.26s-4.81-.13-6.84-3.43a6.48,6.48,0,0,1,2.89-2.39c2.14-1,3.81-4.54,3.81-4.54l1.13,6.8Z"/></clipPath><clipPath id="clip-path-5"><path class="cls-4" d="M205.3,105l-.69-1a7.71,7.71,0,0,1-5.13-3.15,4.56,4.56,0,0,0-.46,3.47h0l2.33,1.73,2.72-.06Z"/></clipPath><clipPath id="clip-path-6"><path class="cls-5" d="M203.63,106.8h0c-.11,0-.26-.58-.27-.63l-1.53-13.32.38,0,1.54,13.32C203.75,106.18,203.73,106.79,203.63,106.8Z"/></clipPath><clipPath id="clip-path-7"><path class="cls-5" d="M198.5,105.9h0c-.09-.06.17-.62.2-.66L206,94l.33.21L199,105.46C199,105.51,198.59,106,198.5,105.9Z"/></clipPath><clipPath id="clip-path-8"><path class="cls-6" d="M203,99.07c.14.3.25.61.39.92a4.17,4.17,0,0,1,.31.68,3.3,3.3,0,0,1,.11,1.21,3.4,3.4,0,0,1-.09.64,1,1,0,0,1-.36.52,1.71,1.71,0,0,1-.39.17.84.84,0,0,1-.27,0,.67.67,0,0,1-.44-.34c-.46-.68-.7-1.47-1.09-2.19a4,4,0,0,1-.45-1,.25.25,0,0,1,0-.12s-.05-.11,0-.13a9.52,9.52,0,0,1,1.33-.92c.22-.15.35-.3.57-.08A2.33,2.33,0,0,1,203,99.07Z"/></clipPath></defs><path class="cls-7" d="M200.85,105.11h.2a.76.76,0,0,0,.39-.08.34.34,0,0,0,.17-.41.1.1,0,0,0-.13-.06.1.1,0,0,0,0,.13.16.16,0,0,1-.09.17.68.68,0,0,1-.29.06,8.87,8.87,0,0,1-2.28-.4l-.33-.09a6.38,6.38,0,0,0-2.7-.25l-.45.11a4.19,4.19,0,0,1-.51.11,1.45,1.45,0,0,1-.9-.09.09.09,0,0,0-.13,0,.1.1,0,0,0,0,.13,1.63,1.63,0,0,0,1,.12l.52-.12a3.13,3.13,0,0,1,.44-.1,6,6,0,0,1,2.61.24l.33.09A10.14,10.14,0,0,0,200.85,105.11Z"/><path class="cls-1" d="M200.64,105.2h.21a.76.76,0,0,0,.38-.09.35.35,0,0,0,.16-.42c0-.05-.08-.08-.13-.05a.08.08,0,0,0,0,.12.17.17,0,0,1-.08.18.56.56,0,0,1-.29.06,8.56,8.56,0,0,1-2.3-.31l-.33-.07a6.28,6.28,0,0,0-2.71-.15l-.44.13c-.17,0-.34.1-.5.13a1.5,1.5,0,0,1-.91-.06.11.11,0,0,0-.13,0,.11.11,0,0,0,0,.14,1.56,1.56,0,0,0,1,.07,3.18,3.18,0,0,0,.53-.14l.43-.11a5.9,5.9,0,0,1,2.62.14l.33.08A10.34,10.34,0,0,0,200.64,105.2Z"/><path class="cls-1" d="M196.7,98.25c.11-.32.44-.52.56-.84s.07-.42.21-.57a.74.74,0,0,1,.33-.17,2.7,2.7,0,0,1,.41-.07,4.25,4.25,0,0,1,.57-.46,1,1,0,0,1,.31-.35c.28-.18.66-.15.95-.33s.31-.29.51-.32a.68.68,0,0,1,.37.06l.27.13h.26a4.92,4.92,0,0,1,1.39.21.27.27,0,0,1,.12,0,.32.32,0,0,1,.14,0,1.5,1.5,0,0,1,1,.39c.26.21.46.5.74.7s.82.36,1,.73.1.68.25,1,.27.34.29.54a.64.64,0,0,1-.1.35.56.56,0,0,1-.09.17h0a1.55,1.55,0,0,1,.17,1.14c-.07.34-.23.64-.28,1s.06.9-.18,1.25-.55.4-.75.68-.17.39-.34.5a.61.61,0,0,1-.27.08,1.49,1.49,0,0,1-.83.55c-.32.1-.67.11-1,.23s-.75.49-1.18.45-.62-.29-1-.32-.43,0-.61-.06a.69.69,0,0,1-.24-.27l0,0a4.77,4.77,0,0,1-3-4.44,4.63,4.63,0,0,1,.09-.92A1.66,1.66,0,0,1,196.7,98.25Z"/><g class="cls-8"><path class="cls-9" d="M204.52,94.45c.31.69-.52,1.85-1,2.29a10,10,0,0,1-1.76,1.05,7.94,7.94,0,0,0-2.6,2.22,4.77,4.77,0,0,0-.81,3.32c.14,1.39.51,3.7-1.4,4-.1,0-.06.18,0,.16a2.31,2.31,0,0,0,1.67-2.53c0-.85-.23-1.68-.19-2.53a4.54,4.54,0,0,1,1.08-2.69,7.7,7.7,0,0,1,1.84-1.57c.62-.39,1.31-.67,1.91-1.08s1.78-1.82,1.36-2.75c0-.1-.18,0-.14.08Z"/><path class="cls-9" d="M204,94.64c-.59,2.54-3.68,3-5.21,4.78a4.14,4.14,0,0,0-1.06,2.61,3.43,3.43,0,0,0,.29,1.48,8.49,8.49,0,0,1,.78,1.64.08.08,0,0,0,.16-.05,4.6,4.6,0,0,0-.61-1.31,3.33,3.33,0,0,1-.45-1.85,4.36,4.36,0,0,1,1.87-3.2c1.58-1.19,3.89-1.9,4.39-4.06,0-.1-.14-.14-.16,0Z"/><path class="cls-9" d="M203,95.22c-.89,1.9-3.12,2.45-4.5,3.89a5.08,5.08,0,0,0-1.21,4.72c0,.1.19.06.16,0a4.92,4.92,0,0,1,1.69-5c1.37-1.12,3.21-1.76,4-3.45,0-.1-.1-.18-.14-.08Z"/><path class="cls-10" d="M202.55,94.58s.46,1.12-2,2.5-4.23,3.76-3.59,6.29"/><path class="cls-2" d="M202.31,95.2a2.15,2.15,0,0,1-1,1.45c-.49.36-1.05.6-1.55.94a9.43,9.43,0,0,0-1.31,1.22,7,7,0,0,0-1.17,1.5c-.27.52-.4,1.09-.62,1.63a.56.56,0,0,1-.17.25.36.36,0,0,1-.27,0,1.27,1.27,0,0,1-.87-.78,6.49,6.49,0,0,1-.48-1.61,22.39,22.39,0,0,1-.35-3.27,9.67,9.67,0,0,1,.1-1.94,2,2,0,0,1,.35-.95,1.87,1.87,0,0,1,.66-.49,5.36,5.36,0,0,1,5.39.32c.2.13.4.29.61.42a1.83,1.83,0,0,1,.46.28A1.43,1.43,0,0,1,202.31,95.2Z"/><g class="cls-11"><path class="cls-12" d="M202.12,92.19A4.66,4.66,0,0,0,201.6,96c.14.47.36.91.53,1.36a10.69,10.69,0,0,1,.36,1.09"/><path class="cls-12" d="M201.58,92.27a4.66,4.66,0,0,0-.52,3.83c.14.46.36.9.54,1.36a8.14,8.14,0,0,1,.35,1.09"/><path class="cls-12" d="M201.22,89.55c-.79,1.07-1.1,5.36-.8,6.66.11.47.29.92.44,1.39a10,10,0,0,1,.28,1.11"/><path class="cls-12" d="M200.34,90c-.74,1.11-.83,5.41-.47,6.68.14.47.34.92.51,1.38a6.85,6.85,0,0,1,.33,1.09"/><path class="cls-12" d="M199.75,90.17c-.74,1.11-.84,5.41-.47,6.69.13.47.34.91.51,1.37a10.51,10.51,0,0,1,.33,1.09"/><path class="cls-12" d="M198.58,90.78c-.6,1.18-.21,5.46.3,6.69.19.45.44.87.67,1.3a9.75,9.75,0,0,1,.45,1"/><path class="cls-12" d="M198,91c-.61,1.18-.21,5.46.3,6.69.19.45.44.87.66,1.3a8.15,8.15,0,0,1,.46,1"/><path class="cls-12" d="M196.79,91.32c-.48,1.24.36,5.46,1,6.63.24.43.54.82.8,1.23a8.09,8.09,0,0,1,.56,1"/><path class="cls-12" d="M196.54,91.5c-.48,1.24.36,5.45,1,6.62.23.43.53.82.79,1.23a8.09,8.09,0,0,1,.56,1"/><path class="cls-12" d="M202.65,91.89a4.67,4.67,0,0,0-.52,3.82c.15.47.36.91.54,1.36a8.63,8.63,0,0,1,.35,1.09"/><path class="cls-3" d="M197,97.21a1,1,0,0,1,.26.27,1.25,1.25,0,0,1,.12.34,6,6,0,0,0,.82,1.66,3.15,3.15,0,0,0,.5.64,8.19,8.19,0,0,0,1,.59.36.36,0,0,1,.16.14.39.39,0,0,1,0,.3,1.85,1.85,0,0,1-.91,1.16,6.4,6.4,0,0,1-1.42.54,5.38,5.38,0,0,1-1.3.27,1.62,1.62,0,0,1-1.22-.44,2.23,2.23,0,0,1-.32-.48l-1.18-2.14a5.76,5.76,0,0,1-.55-1.18,5.5,5.5,0,0,1-.12-2.1,2.18,2.18,0,0,1,.29-1.12.54.54,0,0,1,.62-.16,6.09,6.09,0,0,1,2.11.91C196.33,96.66,196.69,96.93,197,97.21Z"/><g class="cls-13"><g class="cls-14"><path class="cls-15" d="M194.13,101.16a2.43,2.43,0,0,0,1.05-.26l1.18-.56a5.18,5.18,0,0,0,1.9-1.17c.06-.08,0-.19-.12-.11a4.72,4.72,0,0,1-1.79,1.1l-1.09.52a2.63,2.63,0,0,1-1.13.32.08.08,0,0,0,0,.16Z"/></g><g class="cls-14"><path class="cls-15" d="M195,100a8.55,8.55,0,0,0,3-1.46c.08-.07,0-.18-.11-.12a8.36,8.36,0,0,1-2.94,1.42.08.08,0,0,0,0,.16Z"/></g><g class="cls-14"><path class="cls-15" d="M195.4,99a5.78,5.78,0,0,0,2.21-1.15.09.09,0,0,0-.12-.12,5.55,5.55,0,0,1-2.14,1.11c-.09,0,0,.19.05.16Z"/></g><g class="cls-14"><path class="cls-15" d="M196.38,100.64c.39-.18.79-.35,1.17-.54a2.54,2.54,0,0,0,.9-.65c.07-.08,0-.2-.11-.12a2.6,2.6,0,0,1-.9.64c-.38.19-.76.35-1.14.52-.1.05,0,.19.08.15Z"/></g><g class="cls-14"><path class="cls-15" d="M196.42,101l1-.34c.24-.08.59-.14.71-.4.05-.09-.09-.18-.14-.08a.44.44,0,0,1-.27.21l-.44.14-.94.31a.08.08,0,0,0,0,.16Z"/></g><g class="cls-14"><path class="cls-15" d="M198.35,98.85a12.93,12.93,0,0,1-2.57.93c-.1,0-.06.18.05.15a13.47,13.47,0,0,0,2.6-.94c.09,0,0-.18-.08-.14Z"/></g><g class="cls-14"><path class="cls-15" d="M197.73,98.11a10.37,10.37,0,0,1-1.8,1c-.09,0-.05.2,0,.16a10.69,10.69,0,0,0,1.83-1c.09-.06,0-.2-.08-.15Z"/></g></g></g><path class="cls-10" d="M205.14,94.67s.37,1.84-3,3.82-3.42,3.85-3.25,6"/><g class="cls-16"><path class="cls-2" d="M206.32,104.26s-4.81-.13-6.84-3.43a6.48,6.48,0,0,1,2.89-2.39c2.14-1,3.81-4.54,3.81-4.54l1.13,6.8Z"/><g class="cls-17"><path class="cls-18" d="M201.34,94.86c-.35.61.18,1.72.44,2.29a14.46,14.46,0,0,0,1.64,2.72,18.91,18.91,0,0,0,2,2.14,2.41,2.41,0,0,1,.66,3.11c-.06.09.08.17.14.08a2.37,2.37,0,0,0,.19-2.15,8.12,8.12,0,0,0-1.85-2.12,15.37,15.37,0,0,1-1.94-2.61,11,11,0,0,1-.76-1.49c-.2-.46-.61-1.41-.34-1.88.05-.09-.09-.18-.14-.09Z"/><path class="cls-18" d="M200.47,94.66a18.14,18.14,0,0,0,2,5.24c1,1.55,2.56,2.65,3.44,4.28,0,.1.19,0,.14-.08-.85-1.59-2.36-2.66-3.35-4.15a17.55,17.55,0,0,1-2.1-5.33.08.08,0,0,0-.15,0Z"/><path class="cls-18" d="M199.89,94.92a26,26,0,0,0,1.64,5.39c.79,1.72,2,3.21,2.86,4.89,0,.09.19,0,.14-.09-.84-1.62-2-3.06-2.78-4.71A25.87,25.87,0,0,1,200,94.87c0-.1-.18-.06-.15,0Z"/><path class="cls-18" d="M200,95.16c2,3.13,2.87,6.82,4.88,9.93A.09.09,0,0,0,205,105l-.07-.14c0-.1-.19,0-.15.08l.07.15L205,105c-2-3.11-2.9-6.79-4.89-9.92-.06-.09-.2,0-.14.08Z"/><path class="cls-18" d="M205.69,103.55a6.77,6.77,0,0,1-2.33-2.18,4.31,4.31,0,0,0-.62-.85c-.08-.07-.19,0-.12.12a4.34,4.34,0,0,1,.67.92,5.63,5.63,0,0,0,.65.81,6.9,6.9,0,0,0,1.67,1.32c.09,0,.18-.09.08-.14Z"/><path class="cls-18" d="M200.45,99a35.58,35.58,0,0,0,3.43,6.63c.05.07.19,0,.15-.06l-.07-.17c0-.1-.2-.06-.16,0l.07.17.15-.06A34.87,34.87,0,0,1,200.61,99c0-.1-.2-.06-.16,0Z"/><path class="cls-18" d="M199.33,99.61a7.32,7.32,0,0,0,1.95,1.26c.1,0,.18-.1.08-.14a7.34,7.34,0,0,1-1.92-1.24c-.07-.07-.19.05-.11.12Z"/><path class="cls-18" d="M198.23,100.05a21,21,0,0,0,3.34,1.43c.1,0,.14-.13,0-.16a20,20,0,0,1-3.3-1.42c-.09-.05-.17.1-.08.15Z"/><path class="cls-18" d="M198.74,101.05c1,.34,2,.66,3.06,1,.1,0,.14-.13,0-.16-1-.31-2-.63-3.06-1-.1,0-.14.12,0,.16Z"/><path class="cls-18" d="M199.17,101.75a6.73,6.73,0,0,0,2.93.9.09.09,0,0,0,0-.17,6.41,6.41,0,0,1-2.85-.87.08.08,0,0,0-.08.14Z"/><path class="cls-18" d="M201.05,103.11a4.6,4.6,0,0,0,1.28-.12.08.08,0,0,0,0-.16,4.35,4.35,0,0,1-1.24.12c-.11,0-.11.16,0,.16Z"/><path class="cls-18" d="M199.92,99.46l.85.44c.1,0,.18-.09.09-.14l-.86-.44a.08.08,0,0,0-.08.14Z"/><path class="cls-18" d="M206.18,96.93a9.52,9.52,0,0,1-3.52-.39c-.1,0-.14.13,0,.16a9.74,9.74,0,0,0,3.56.4c.11,0,.11-.18,0-.17Z"/><path class="cls-18" d="M206.55,97.44a11.7,11.7,0,0,1-3.59-.31c-.1,0-.15.13,0,.15a11.37,11.37,0,0,0,3.63.32c.1,0,.1-.17,0-.16Z"/><path class="cls-18" d="M206.77,98.11a18.72,18.72,0,0,1-4.25-.84c-.1,0-.14.13,0,.16a18.42,18.42,0,0,0,4.29.84c.11,0,.11-.15,0-.16Z"/><path class="cls-18" d="M207.14,98.85A11.18,11.18,0,0,1,202,97.62c-.09,0-.14.12,0,.16A11.19,11.19,0,0,0,207.14,99c.11,0,.11-.17,0-.16Z"/><path class="cls-18" d="M206.41,99.35a7.34,7.34,0,0,1-4-1.11c-.09,0-.17.09-.09.14a7.61,7.61,0,0,0,4.07,1.14.09.09,0,0,0,0-.17Z"/><path class="cls-18" d="M206.85,100a6.46,6.46,0,0,1-3.81-.93c-.09-.06-.17.08-.08.14a6.56,6.56,0,0,0,3.89,1c.11,0,.11-.17,0-.16Z"/><path class="cls-18" d="M206.93,100.81a9,9,0,0,1-3.25-.9c-.1,0-.18.1-.08.15a9.39,9.39,0,0,0,3.33.92c.1,0,.1-.16,0-.17Z"/><path class="cls-18" d="M206.86,101.38a16,16,0,0,1-2.57-.72c-.1,0-.14.12,0,.16a15.56,15.56,0,0,0,2.57.71c.11,0,.15-.13.05-.15Z"/><path class="cls-18" d="M206.59,101.79a14.13,14.13,0,0,1-1.56-.37.08.08,0,0,0,0,.16c.51.15,1,.27,1.55.37.11,0,.15-.14.05-.16Z"/></g></g><path class="cls-4" d="M205.3,105l-.69-1a7.71,7.71,0,0,1-5.13-3.15,4.56,4.56,0,0,0-.46,3.47h0l2.33,1.73,2.72-.06Z"/><g class="cls-19"><path class="cls-20" d="M200.48,100.64a1.36,1.36,0,0,1-.49.36l-.57.29a2.57,2.57,0,0,1-1.23.38c-.1,0-.1.15,0,.16a2.68,2.68,0,0,0,1.31-.4c.22-.1.44-.21.65-.33a1.34,1.34,0,0,0,.47-.38c.07-.08-.08-.16-.14-.08Z"/><path class="cls-20" d="M200.29,101.28a2.63,2.63,0,0,1-1,.7,12,12,0,0,1-1.32.43c-.1,0-.06.18,0,.15a4.63,4.63,0,0,0,2.4-1.16c.06-.08,0-.2-.12-.12Z"/><path class="cls-20" d="M200.67,101.43a7.47,7.47,0,0,1-3.59,2.29c-.1,0-.06.19,0,.16a7.73,7.73,0,0,0,3.67-2.33c.07-.08,0-.19-.12-.12Z"/><path class="cls-20" d="M200.94,101.79a8.16,8.16,0,0,1-3.23,3c-.1,0,0,.18.08.14a8.26,8.26,0,0,0,3.29-3c.06-.09-.08-.17-.14-.08Z"/><path class="cls-20" d="M201,102.08a6.05,6.05,0,0,1-1.8,2.7c-.09.07,0,.18.11.12a6.18,6.18,0,0,0,1.85-2.78c0-.1-.13-.14-.16,0Z"/><path class="cls-20" d="M201.19,102.21a12.89,12.89,0,0,1-1.35,3.69c-.05.09.1.17.15.08a13.73,13.73,0,0,0,1.36-3.72c0-.11-.14-.15-.16-.05Z"/><path class="cls-20" d="M201.56,102.29a8.78,8.78,0,0,1-.82,3.69c0,.1.12.14.15,0a8.78,8.78,0,0,0,.83-3.73c0-.11-.17-.11-.16,0Z"/><path class="cls-20" d="M201.84,102.77a20.61,20.61,0,0,1-.19,3.14c0,.1.14.14.16,0a21.13,21.13,0,0,0,.19-3.18.08.08,0,1,0-.16,0Z"/><path class="cls-20" d="M202.3,103c0,.54,0,1.07,0,1.61,0,.25,0,.51,0,.77l0,.38c0,.08,0,.15,0,.23s0,.18,0,.21h.08l0,.07v0l-.06.08h0c.11,0,.06-.18,0-.16h0a.08.08,0,0,0-.06.08.1.1,0,0,0,.05.1.09.09,0,0,0,.1,0c.07-.06.06-.16.06-.24s0-.3,0-.45,0-.57,0-.86c0-.59,0-1.18,0-1.77,0-.1-.17-.1-.16,0Z"/><path class="cls-20" d="M202.67,103.09a11.72,11.72,0,0,1,.2,2.21.09.09,0,0,0,.17,0v-.06c0-.1-.16-.1-.17,0v.06H203a12.16,12.16,0,0,0-.21-2.25c0-.1-.18-.06-.16,0Z"/><path class="cls-20" d="M203.28,103.59a6.21,6.21,0,0,0,.51,1.58c0,.09.18,0,.14-.08a6.45,6.45,0,0,1-.5-1.54c0-.1-.17-.06-.15,0Z"/><path class="cls-20" d="M203.67,103.64c.37.32.76.63,1.17.92.08.06.17-.08.08-.14q-.58-.42-1.14-.9c-.07-.07-.19,0-.11.12Z"/><path class="cls-21" d="M205.86,104a5.29,5.29,0,0,1-3.72-.51,6.71,6.71,0,0,1-3.22-3.13l2.15-.67Z"/></g></g><path class="cls-5" d="M203.63,106.8h0c-.11,0-.26-.58-.27-.63l-1.53-13.32.38,0,1.54,13.32C203.75,106.18,203.73,106.79,203.63,106.8Z"/><g class="cls-22"><rect class="cls-23" x="202.85" y="92.21" width="0.23" height="14.9" transform="translate(415.98 175.5) rotate(173.45)"/></g><path class="cls-24" d="M201.54,93h0l0-.18,1-.11,0,.18h0c0,.07-.2.15-.47.18s-.49,0-.51-.06h0Z"/><ellipse class="cls-25" cx="202.01" cy="92.74" rx="0.49" ry="0.13" transform="translate(-9.26 23.66) rotate(-6.55)"/><path class="cls-26" d="M200.84,100.42,202,102.7a1.27,1.27,0,0,0,.18.29,1.44,1.44,0,0,0,.49.3,8.46,8.46,0,0,0-.66-1.47c-.32-.61-.65-1.21-1-1.8-.06-.09-.27-.54-.4-.35S200.76,100.28,200.84,100.42Z"/><path class="cls-5" d="M198.5,105.9h0c-.09-.06.17-.62.2-.66L206,94l.33.21L199,105.46C199,105.51,198.59,106,198.5,105.9Z"/><g class="cls-27"><rect class="cls-23" x="202.42" y="92.52" width="0.23" height="14.9" transform="translate(318.2 293.98) rotate(-147.07)"/></g><path class="cls-24" d="M205.68,93.92h0l.1-.16.83.54-.1.15h0c0,.06-.26,0-.49-.16s-.38-.31-.34-.37Z"/><ellipse class="cls-25" cx="206.19" cy="94.03" rx="0.13" ry="0.49" transform="translate(15.19 215.99) rotate(-57.07)"/><path class="cls-6" d="M203,99.07c.14.3.25.61.39.92a4.17,4.17,0,0,1,.31.68,3.3,3.3,0,0,1,.11,1.21,3.4,3.4,0,0,1-.09.64,1,1,0,0,1-.36.52,1.71,1.71,0,0,1-.39.17.84.84,0,0,1-.27,0,.67.67,0,0,1-.44-.34c-.46-.68-.7-1.47-1.09-2.19a4,4,0,0,1-.45-1,.25.25,0,0,1,0-.12s-.05-.11,0-.13a9.52,9.52,0,0,1,1.33-.92c.22-.15.35-.3.57-.08A2.33,2.33,0,0,1,203,99.07Z"/><g class="cls-28"><g class="cls-29"><path class="cls-18" d="M202.17,98.38a1.47,1.47,0,0,1,.54.38,2.46,2.46,0,0,1,.33.62.94.94,0,0,0,.35.48,2.91,2.91,0,0,1,.49.27A.08.08,0,1,0,204,100a2,2,0,0,0-.48-.27,1,1,0,0,1-.37-.53,2.13,2.13,0,0,0-.33-.59,1.55,1.55,0,0,0-.56-.38.08.08,0,0,0-.08.14Z"/><path class="cls-18" d="M201.65,98.5c.39.6.8,1.2,1.22,1.78.2.28.42.56.63.84a2.61,2.61,0,0,0,.61.67c.09.06.17-.08.08-.14a3,3,0,0,1-.64-.73l-.62-.83c-.39-.55-.77-1.1-1.14-1.67,0-.09-.2,0-.14.08Z"/><path class="cls-18" d="M201.18,98.82a8.38,8.38,0,0,0,1.16,1.78c.48.58,1,1.14,1.5,1.69.07.08.18,0,.11-.12-.49-.53-1-1.08-1.45-1.64a8.16,8.16,0,0,1-1.18-1.79c0-.09-.18,0-.14.08Z"/><path class="cls-18" d="M202.56,100.92a3.25,3.25,0,0,1,.61,1l.58,1.17c.05.09.19,0,.14-.09l-.6-1.21a3.32,3.32,0,0,0-.61-1c-.08-.07-.19,0-.12.12Z"/><path class="cls-18" d="M201.15,98.87a11.23,11.23,0,0,0,.92,2.14c.4.74.8,1.47,1.19,2.21l.1-.12-.08,0c-.11,0-.15.14-.05.16l.08,0a.09.09,0,0,0,.1-.12L202.25,101a11,11,0,0,1-.94-2.17c0-.1-.19-.06-.16,0Z"/><path class="cls-18" d="M200.88,99.17a25.25,25.25,0,0,0,1.71,4.34c0,.09.2,0,.15-.08a24.6,24.6,0,0,1-1.7-4.31.08.08,0,0,0-.16,0Z"/><path class="cls-18" d="M200.65,99.19a2.32,2.32,0,0,1,.15.94l0,.48a1.51,1.51,0,0,1-.09.48c-.05.1.09.18.14.09a1.24,1.24,0,0,0,.1-.47,4.9,4.9,0,0,0,0-.54,2.58,2.58,0,0,0-.15-1c0-.09-.2,0-.16,0Z"/></g></g></svg>