<svg id="character" xmlns="http://www.w3.org/2000/svg" viewBox="0 0 115.25 87.87">
  <defs>
    <style>
      .cls-1 {
        fill: #fef8dd;
      }

      .cls-2 {
        fill: #f0e6bf;
      }

      .cls-3 {
        fill: #fef5cb;
      }

      .cls-4 {
        fill: #d6cdaa;
      }

      .cls-5 {
        fill: #ee8d07;
      }

      .cls-6 {
        fill: #e18a19;
      }

      .cls-7 {
        fill: #754c28;
      }
    </style>
  </defs>
  <title>p03</title>
  <g>
    <g>
      <path class="cls-1" d="M10.84.9S21.45,12.93,24,16.34s3.66,4.73,3.66,4.73l-19,1.08Z"/>
      <path class="cls-2" d="M15.58.15S15.32,17.12,9,21l6.32,14.86L33.2,33.64S26.1,10.81,15.58.15Z"/>
      <path class="cls-3" d="M23.21,0S18.47,15.47,9,21l7.37,18,25-3.61S33.47,12.47,23.21,0Z"/>
      <path class="cls-2" d="M9,21s43-10,76.24-8.74l30,57.13s-12.83-.91-45.12,3.8S9,21,9,21Z"/>
      <path class="cls-1" d="M9,21S17.42,11.86,10.84.9L4,2.7S8.48,17,4.53,20.88,3,26.43,8,25.38a33.72,33.72,0,0,0,7.89-2.55l62.35-3.16,5.52-4.8S44.52,13.82,9,21Z"/>
      <path class="cls-4" d="M78.19,19.67l28.18,55.11s6.93-3.49,6.93-3.94-29.59-56-29.59-56Z"/>
    </g>
    <g>
      <path class="cls-5" d="M83.83,18.48l-68.59,3.6a16.2,16.2,0,0,1-7.68,2c-1.59,0-2.72-.89-2.18-1.75a5.77,5.77,0,0,1,2.24-1.73S10.93,6.57,4.31.7L0,1.84S7.9,11.48,4.92,20c0,0-6.29,3.64-1.94,5.87,0,0,30.29,61,31.29,61.18s5.3,2.27,11.93-1,35-10.48,63.47-11.23l3.32-1Z"/>
      <path class="cls-6" d="M83.83,18.48l-4.74-.16a344.3,344.3,0,0,0-61,3.34l-2.87.42a16.2,16.2,0,0,1-7.68,2c-1.59,0-2.72-.89-2.18-1.75a5.77,5.77,0,0,1,2.24-1.73S10.93,6.57,4.31.7L0,1.84S7.9,11.48,4.92,20c0,0-6.17,3.64-1.94,5.87A18.61,18.61,0,0,0,15.69,24c.74-.42,38.77-6.15,65.71-3.28,4.85,7.19,22.27,41.49,28.27,54.18l3.32-1Z"/>
      <path class="cls-7" d="M47.21,85.62S15.69,24,15.69,24A18.61,18.61,0,0,1,3,25.86S33.27,86.85,34.27,87s5.3,2.27,11.93-1C46.5,85.94,46.85,85.79,47.21,85.62Z"/>
    </g>
  </g>
</svg>
