<svg id="Layer_1" data-name="Layer 1" xmlns="http://www.w3.org/2000/svg" viewBox="0 0 954.72 298.38"><defs><style>.cls-1{fill:#955333;}.cls-2{fill:#a86240;}.cls-3{fill:#904e2b;}.cls-4{fill:#965633;}.cls-5{fill:#fbbc86;}.cls-6{fill:#9a5a36;}.cls-7{fill:#fcbd87;}.cls-8{fill:#fff;}.cls-9{fill:#231f20;}.cls-10{fill:#753313;}.cls-11{fill:#562810;}</style></defs><title>10_small_monkeys</title><path class="cls-1" d="M152.33,195.56a3.38,3.38,0,0,0-3.92-5.48c-1.1.65-26.17,15.13-57.21-1.86a53.93,53.93,0,0,1-9.5-6.76c-11-9.54-38.86-30.74-61.06-21.63C4.2,166.57-1.43,181.83.3,193.16,2,204.05,9.58,211.39,20.17,212.3a20.15,20.15,0,0,0,19.36-9.44c3.81-6.2,4.06-13.77.64-19.28-2-3.18-6.92-8.37-17.9-7.38a3.38,3.38,0,0,0,.61,6.73c5.54-.5,9.53,1,11.55,4.21s1.79,8.2-.66,12.18a13.35,13.35,0,0,1-13,6.25c-7.44-.64-12.58-5.66-13.77-13.43-1.34-8.8,3.16-20.7,16.22-26.06,19.25-7.89,46.24,13.68,54.06,20.48a60.64,60.64,0,0,0,10.69,7.59c34.58,18.93,62.75,2.44,63.94,1.73A3.38,3.38,0,0,0,152.33,195.56Z"/><path class="cls-2" d="M201.51,73.19c2.87-1.32,2-4.48-.37-5.62-2-1-4.77-.47-6.86.11a12.5,12.5,0,0,0-7.71,6.08,12.69,12.69,0,0,0,3.65,15.57,19.9,19.9,0,0,0,5.13,2.52,12.4,12.4,0,0,0,4.77.94,5,5,0,0,0,4.11-2.26,3.17,3.17,0,0,0-1-4.27c1.62.55,3.36-1.22,3.2-2.92a4.42,4.42,0,0,0-3.34-3.51,3.47,3.47,0,0,0-1.57-6.65Z"/><path class="cls-3" d="M137.18,115.75c.54,0,4.38-6.74,4.8-7.31a101.16,101.16,0,0,1,13.72-15.5,71.93,71.93,0,0,1,14-10.12A54.17,54.17,0,0,1,178,79.13c1.3-.44,2.93-.59,4.14-1.14,1.77-.8,3.21-2.75,4.65-4a9.43,9.43,0,0,1,5.72-2.71,21.48,21.48,0,0,0-3.4,3.48,16.45,16.45,0,0,1,4.37,1,8.68,8.68,0,0,0-3.32,3,23.41,23.41,0,0,1,5.35,3.68l-5.19.63,5.73,4.6a20.93,20.93,0,0,1-5.69-1.1l3.27,4.93-6-2.56c-2.11-.89-3.26-1-5.29-.15-1.51.65-3,1.25-4.53,1.94a68.75,68.75,0,0,0-10.22,5.79c-7.07,4.9-13.35,11.68-15.16,20.33Z"/><path class="cls-2" d="M80.67,218.75c-.34,3.14-3.62,3.32-5.45,1.42-1.57-1.63-2-4.38-2.05-6.55a12.5,12.5,0,0,1,3.34-9.23A12.69,12.69,0,0,1,92.44,203a19.9,19.9,0,0,1,4,4.07,12.4,12.4,0,0,1,2.39,4.23,5,5,0,0,1-.85,4.61,3.17,3.17,0,0,1-4.37.39c1,1.37-.1,3.57-1.77,4a4.42,4.42,0,0,1-4.38-2.06,3.47,3.47,0,0,1-6.81.6Z"/><path class="cls-3" d="M100.81,144.29c.21.5-5,6.28-5.43,6.86A101.16,101.16,0,0,0,85,169a71.93,71.93,0,0,0-5.21,16.45,54.17,54.17,0,0,0-.88,9.07c0,1.37.36,3,.22,4.29-.2,1.93-1.6,3.91-2.34,5.68a9.43,9.43,0,0,0-.77,6.28,21.48,21.48,0,0,1,2.23-4.32,16.45,16.45,0,0,0,2.34,3.83,8.68,8.68,0,0,1,1.76-4.08,23.41,23.41,0,0,0,5.18,3.91l-1-5.12,6.17,4a20.93,20.93,0,0,0-2.84-5l5.71,1.55-4.33-4.93c-1.51-1.72-2-2.77-1.81-5,.14-1.64.23-3.28.41-4.91a68.75,68.75,0,0,1,2.28-11.52c2.42-8.25,6.88-16.35,14.52-20.79Z"/><circle class="cls-4" cx="144.43" cy="74.43" r="10.89" transform="translate(-13.92 110.85) rotate(-40.22)"/><circle class="cls-5" cx="141.22" cy="75.94" r="7" transform="translate(-15.65 109.14) rotate(-40.22)"/><path class="cls-2" d="M236.37,211s-13.89,9.71-10,17.93,15.59,1.16,21.85-1.27,18.6-6.86,17.15-10.62-6.85-.94-6.85-.94,5.08-2.69,3.43-6-5.51-.21-5.51-.21,3-1.69,1.88-4.51-4.56.33-4.56.33,3.67-2.62,1.8-4.66C252.71,197.94,236.37,211,236.37,211Z"/><path class="cls-1" d="M178.36,167.24c.1-.22,3.52.67,3.75.72a71.69,71.69,0,0,1,9.91,3.13,87.39,87.39,0,0,1,29.27,19.24,94.7,94.7,0,0,1,8.09,9.12c2.23,2.87,4.24,8.25,8.5,7.85,1.76-.16,3.53-.82,5.26-.46-1.67,1-1.87,1.54-3.11,3,2.14-.12,3.7.66,6.1,1.83-1.9.58-3,2.35-4.9,2.52,1.43,2,3,3.32,4,5.54a20.49,20.49,0,0,0-5.06-1.23,41,41,0,0,1,2.45,5.73,20.66,20.66,0,0,1-8.47-2.92,50.6,50.6,0,0,0-3.35,7,39.24,39.24,0,0,1-2.43-4.81,6,6,0,0,0-2.6,3.57c.43-1.66,0-4.1-.14-5.8a25.57,25.57,0,0,0-1-5.85c-.92-2.87-2.78-5.35-4.49-7.8a76.94,76.94,0,0,0-11.34-13,61.75,61.75,0,0,0-35.64-16Z"/><path class="cls-2" d="M115.83,263.63s16.88-1.55,19.2,7.24-11.15,11-17.51,13.14-18.63,6.78-19.95,3,4.62-5.15,4.62-5.15-5.62,1.23-6.51-2.38,4.07-3.72,4.07-3.72-3.36.63-4.35-2.23,3.69-2.69,3.69-2.69-4.49.37-4.38-2.4C94.89,264.18,115.83,263.63,115.83,263.63Z"/><path class="cls-1" d="M131.85,192.73c-.22-.1-2.26,2.78-2.4,3a71.69,71.69,0,0,0-5.54,8.79A87.39,87.39,0,0,0,114,238.08a94.7,94.7,0,0,0-.29,12.19c.15,3.63,2.09,9-1.42,11.48-1.45,1-3.23,1.65-4.32,3,1.92-.32,2.42,0,4.34.31-1.71,1.29-2.4,2.89-3.48,5.33,1.82-.78,3.82-.15,5.37-1.24.17,2.42-.18,4.5.5,6.82a20.49,20.49,0,0,1,3.07-4.21,41,41,0,0,0,1.83,6,20.66,20.66,0,0,0,4.58-7.7,50.6,50.6,0,0,1,7.05,3.15A39.24,39.24,0,0,0,130,268a6,6,0,0,1,4.29,1c-1.4-1-2.64-3.13-3.64-4.51a25.57,25.57,0,0,1-3-5.14c-1.16-2.79-1.33-5.88-1.61-8.86a76.94,76.94,0,0,1,.26-17.25A61.75,61.75,0,0,1,143.15,198Z"/><ellipse class="cls-6" cx="138.39" cy="154.81" rx="41.73" ry="47.54" transform="translate(-67.24 125.95) rotate(-40.22)"/><ellipse class="cls-7" cx="142.31" cy="159.44" rx="29.29" ry="33.38" transform="translate(-69.31 129.58) rotate(-40.22)"/><circle class="cls-4" cx="59.47" cy="139" r="10.89" transform="translate(-75.69 71.26) rotate(-40.22)"/><circle class="cls-5" cx="61.49" cy="136.09" r="7" transform="matrix(0.76, -0.65, 0.65, 0.76, -73.33, 71.88)"/><ellipse class="cls-6" cx="90.7" cy="92.28" rx="51.24" ry="47.51" transform="translate(-38.14 80.38) rotate(-40.22)"/><path class="cls-5" d="M58,118.2A22.72,22.72,0,0,1,82.4,81.94,22.72,22.72,0,1,1,127,83.75a15.33,15.33,0,0,1,4.37,3.51c8.11,9.59,2.73,27.47-12,39.93S86.07,142,78,132.39a15.57,15.57,0,0,1-3.16-6.17A22.66,22.66,0,0,1,58,118.2Z"/><circle class="cls-8" cx="116.3" cy="90.54" r="10.16" transform="translate(-30.96 96.5) rotate(-40.22)"/><circle class="cls-9" cx="116.3" cy="90.54" r="6.84" transform="translate(-30.96 96.5) rotate(-40.22)"/><circle class="cls-8" cx="111.82" cy="89.45" r="2.49" transform="translate(-31.33 93.35) rotate(-40.22)"/><circle class="cls-8" cx="84.16" cy="117.72" r="10.16" transform="translate(-56.12 82.17) rotate(-40.22)"/><circle class="cls-9" cx="84.16" cy="117.72" r="6.84" transform="translate(-56.12 82.17) rotate(-40.22)"/><circle class="cls-8" cx="79.67" cy="116.64" r="2.49" transform="translate(-56.48 79.02) rotate(-40.22)"/><path class="cls-10" d="M107.34,111.57a.53.53,0,0,1-.86-.32c-.21-1.29-.38-3.57.88-4.29,1.79-1,4.15.61,3.42,1.47C110.26,109,108.37,110.68,107.34,111.57Z"/><path class="cls-10" d="M105.12,113.44a.53.53,0,0,0-.18-.91c-1.23-.42-3.45-1-4.38.16-1.32,1.6-.09,4.2.88,3.62C102.14,115.9,104.08,114.31,105.12,113.44Z"/><circle class="cls-11" cx="108.22" cy="123.14" r="3.71" transform="translate(-53.93 98.99) rotate(-40.22)"/><path class="cls-1" d="M843.51,193.85a4,4,0,0,0-6.63-4.25c-.91,1.18-21.88,27.75-62.95,22.72a63,63,0,0,1-13.24-3.23c-16-5.62-55.5-16.58-75.68,2.91-14.94,14.43-14.45,33.44-7.67,45,6.52,11.11,18,15.79,29.86,12.2,9.06-2.73,15.39-9.7,16.95-18.63,1.46-8.38-1.54-16.71-7.64-21.22-3.52-2.6-11.13-6.1-22.63-.27a4,4,0,0,0,3.57,7c5.8-2.94,10.77-3.08,14.36-.42s5.49,8.13,4.55,13.51c-1,6-5.21,10.54-11.44,12.41-8.35,2.52-16.12-.71-20.76-8.63-5.26-9-5.52-23.85,6.35-35.32,17.49-16.89,56.15-5.14,67.58-1.13A70.89,70.89,0,0,0,773,220.16c45.75,5.6,69.22-24.49,70.19-25.77A4,4,0,0,0,843.51,193.85Z"/><path class="cls-2" d="M708.17,105.43c-3.69-.06-4.26-3.85-2.24-6.19,1.73-2,4.89-2.75,7.39-3.1A14.61,14.61,0,0,1,724.44,99a14.84,14.84,0,0,1,3.41,18.39,23.26,23.26,0,0,1-4.3,5.11,14.5,14.5,0,0,1-4.66,3.25,5.83,5.83,0,0,1-5.46-.49,3.71,3.71,0,0,1-.93-5c-1.48,1.35-4.17.28-4.8-1.62a5.16,5.16,0,0,1,1.92-5.32,4.06,4.06,0,0,1-1.45-7.86Z"/><path class="cls-3" d="M797.05,120.73c-.56.3-7.86-5.15-8.58-5.57a118.27,118.27,0,0,0-22-10.13,84.1,84.1,0,0,0-19.72-4.26,63.34,63.34,0,0,0-10.66,0c-1.6.13-3.41.74-5,.73-2.27,0-4.73-1.44-6.86-2.11-2.4-.75-5.07-1.17-7.39-.21a25.12,25.12,0,0,1,5.27,2.13,19.24,19.24,0,0,0-4.2,3.14,10.15,10.15,0,0,1,4.94,1.6,27.36,27.36,0,0,0-4,6.46l5.85-1.77-4,7.62a24.46,24.46,0,0,0,5.57-3.86l-1.18,6.81,5.26-5.58c1.84-2,3-2.63,5.6-2.65,1.92,0,3.84-.09,5.76-.05a80.38,80.38,0,0,1,13.66,1.39c9.87,1.92,19.78,6.22,25.79,14.63Z"/><path class="cls-2" d="M930.22,117c3.41,1.41,5.44-1.84,4.52-4.79-.79-2.53-3.39-4.46-5.55-5.78a14.61,14.61,0,0,0-11.34-1.77,14.84,14.84,0,0,0-10.43,15.52,23.26,23.26,0,0,0,1.92,6.4,14.5,14.5,0,0,0,3,4.83,5.83,5.83,0,0,0,5.2,1.72,3.71,3.71,0,0,0,2.85-4.26c.82,1.83,3.72,1.91,5,.42a5.16,5.16,0,0,0,.35-5.65,4.06,4.06,0,0,0,4.45-6.64Z"/><path class="cls-3" d="M842.57,95.75c.4.5,9.26-1.61,10.08-1.71a118.27,118.27,0,0,1,24.19-.58,84.1,84.1,0,0,1,19.79,3.92,63.34,63.34,0,0,1,9.79,4.2c1.41.76,2.83,2,4.27,2.64,2.09.88,4.91.56,7.14.79,2.5.26,5.11.94,6.87,2.74a25.12,25.12,0,0,0-5.69-.14,19.24,19.24,0,0,1,2.61,4.55,10.15,10.15,0,0,0-5.17-.49,27.36,27.36,0,0,1,1.1,7.51l-4.67-3.95.62,8.57a24.46,24.46,0,0,1-3.58-5.75l-1.62,6.72-2.61-7.21c-.91-2.52-1.72-3.61-4.08-4.65-1.76-.78-3.49-1.61-5.27-2.34a80.38,80.38,0,0,0-13.09-4.15c-9.82-2.16-20.62-2.14-29.48,3.19Z"/><circle class="cls-4" cx="785.55" cy="78.02" r="12.73"/><circle class="cls-5" cx="789.56" cy="76.94" r="8.19"/><path class="cls-2" d="M806.59,269.37s19.73-1.81,22.45,8.47-13,12.8-20.47,15.36-21.78,7.92-23.32,3.46,5.41-6,5.41-6-6.57,1.43-7.61-2.78,4.76-4.35,4.76-4.35-3.93.74-5.08-2.6,4.32-3.15,4.32-3.15-5.25.43-5.12-2.81C782.12,270,806.59,269.37,806.59,269.37Z"/><path class="cls-1" d="M825.32,186.48c-.25-.12-2.64,3.25-2.8,3.47A83.81,83.81,0,0,0,816,200.23a102.17,102.17,0,0,0-11.61,39.27,110.72,110.72,0,0,0-.34,14.26c.17,4.25,2.44,10.56-1.66,13.43-1.7,1.18-3.77,1.93-5,3.56,2.24-.37,2.83,0,5.07.36-2,1.51-2.81,3.38-4.07,6.24,2.13-.92,4.47-.18,6.27-1.45.2,2.83-.21,5.26.59,8a24,24,0,0,1,3.59-4.92,48,48,0,0,0,2.14,7,24.16,24.16,0,0,0,5.36-9,59.16,59.16,0,0,1,8.25,3.68,45.87,45.87,0,0,0-1.46-6.12,7.06,7.06,0,0,1,5,1.22c-1.63-1.16-3.09-3.66-4.25-5.28a29.9,29.9,0,0,1-3.49-6c-1.35-3.26-1.55-6.88-1.88-10.36a90,90,0,0,1,.3-20.17,72.19,72.19,0,0,1,19.73-41.2Z"/><path class="cls-2" d="M925,237.54s-19.07,5.39-17.91,16,16.76,7.27,24.62,7,23.18-.42,23-5.13-7.2-3.68-7.2-3.68,6.65-1,6.1-5.32-6-2.35-6-2.35,3.93-.72,3.81-4.25-5.16-1.39-5.16-1.39,5.05-1.48,3.77-4.46C948.08,229.35,925,237.54,925,237.54Z"/><path class="cls-1" d="M877.78,166.88c.19-.2,3.63,2.09,3.86,2.24a83.81,83.81,0,0,1,9.73,7.27,102.17,102.17,0,0,1,24.93,32.49,110.72,110.72,0,0,1,5.43,13.19c1.36,4,1.51,10.74,6.37,11.94,2,.5,4.21.45,6,1.51-2.23.46-2.66,1-4.6,2.15,2.41.69,3.83,2.15,6,4.36-2.32-.09-4.23,1.44-6.38.9.83,2.71,2.08,4.83,2.31,7.66a24,24,0,0,0-5.11-3.3,48,48,0,0,1,.5,7.26,24.16,24.16,0,0,1-8.23-6.48,59.16,59.16,0,0,0-6.38,6.4,45.87,45.87,0,0,1-.83-6.24,7.06,7.06,0,0,0-4.24,2.94c1.11-1.67,1.57-4.53,2.08-6.45a29.9,29.9,0,0,0,1.1-6.86c.09-3.53-1-7-2-10.34a90,90,0,0,0-7.52-18.72,72.19,72.19,0,0,0-33.2-31.38Z"/><ellipse class="cls-6" cx="832.21" cy="140.18" rx="48.78" ry="55.58" transform="translate(5.11 307.92) rotate(-21.03)"/><ellipse class="cls-7" cx="834.76" cy="146.81" rx="34.25" ry="39.02" transform="translate(2.91 309.28) rotate(-21.03)"/><circle class="cls-4" cx="860.4" cy="50.41" r="12.73" transform="translate(39.2 312.06) rotate(-21.03)"/><circle class="cls-5" cx="856.28" cy="50.84" r="8.19" transform="translate(38.77 310.61) rotate(-21.03)"/><ellipse class="cls-6" cx="794.95" cy="56.14" rx="59.91" ry="55.54" transform="translate(32.79 288.96) rotate(-21.03)"/><path class="cls-5" d="M839.93,37.16A26.56,26.56,0,0,0,789,41.81a26.56,26.56,0,1,0-23.21,46.69A17.92,17.92,0,0,0,766.95,95c5.27,13.7,26.61,18.25,47.68,10.15s33.87-25.77,28.61-39.47a18.2,18.2,0,0,0-4.54-6.71A26.49,26.49,0,0,0,839.93,37.16Z"/><circle class="cls-8" cx="778.76" cy="81.4" r="11.87" transform="translate(22.65 284.83) rotate(-21.03)"/><circle class="cls-9" cx="778.76" cy="81.4" r="7.99" transform="translate(22.65 284.83) rotate(-21.03)"/><circle class="cls-8" cx="780.18" cy="76.19" r="2.91" transform="translate(24.61 284.99) rotate(-21.03)"/><circle class="cls-8" cx="824.7" cy="63.74" r="11.87" transform="translate(32.04 300.14) rotate(-21.03)"/><circle class="cls-9" cx="824.7" cy="63.74" r="7.99" transform="translate(32.04 300.14) rotate(-21.03)"/><circle class="cls-8" cx="826.12" cy="58.53" r="2.91" transform="translate(34 300.3) rotate(-21.03)"/><path class="cls-10" d="M805.36,84a.62.62,0,0,0,.15-1.07c-1.2-.94-3.44-2.4-4.9-1.51-2.07,1.26-1.71,4.6-.42,4.34C801.12,85.61,803.88,84.59,805.36,84Z"/><path class="cls-10" d="M808.53,82.82a.62.62,0,0,1-.83-.69c.26-1.5.95-4.08,2.62-4.4,2.38-.45,4.35,2.27,3.22,2.94C812.73,81.15,810,82.24,808.53,82.82Z"/><circle class="cls-11" cx="816.73" cy="91.46" r="4.34" transform="translate(21.57 299.12) rotate(-21.03)"/></svg>