<svg id="Layer_1" data-name="Layer 1" xmlns="http://www.w3.org/2000/svg" xmlns:xlink="http://www.w3.org/1999/xlink" width="400" height="180" viewBox="0 0 400 180">
  <defs>
    <style>
      .cls-1, .cls-2, .cls-21, .cls-8 {
        fill: none;
      }

      .cls-14, .cls-15, .cls-16, .cls-2 {
        stroke: #dbdbdb;
      }

      .cls-2, .cls-6, .cls-7 {
        stroke-miterlimit: 10;
      }

      .cls-12, .cls-14, .cls-15, .cls-16, .cls-17, .cls-2, .cls-6, .cls-7, .cls-8 {
        stroke-width: 0.68px;
      }

      .cls-3 {
        clip-path: url(#clip-path);
      }

      .cls-4 {
        fill: #dbdbdb;
      }

      .cls-5 {
        fill: #f2f2f2;
      }

      .cls-6, .cls-9 {
        fill: #dd4e36;
      }

      .cls-21, .cls-6, .cls-7 {
        stroke: #e6e6e6;
      }

      .cls-11, .cls-7 {
        fill: #ccc;
      }

      .cls-8 {
        stroke: #fff;
      }

      .cls-12, .cls-14, .cls-15, .cls-16, .cls-17, .cls-21, .cls-8 {
        stroke-linecap: round;
        stroke-linejoin: round;
      }

      .cls-10 {
        fill: #e6e6e6;
      }

      .cls-12, .cls-14 {
        fill: #03d6fc;
      }

      .cls-12 {
        stroke: #03d6fc;
      }

      .cls-13 {
        clip-path: url(#clip-path-2);
      }

      .cls-15, .cls-17 {
        fill: #49e1fc;
      }

      .cls-16 {
        fill: #7ee9fc;
      }

      .cls-17 {
        stroke: #49e1fc;
      }

      .cls-18 {
        clip-path: url(#clip-path-3);
      }

      .cls-19 {
        clip-path: url(#clip-path-4);
      }

      .cls-20 {
        clip-path: url(#clip-path-5);
      }

      .cls-21 {
        stroke-width: 1.31px;
      }
    </style>
    <clipPath id="clip-path">
      <path id="SVGID" class="cls-1" d="M279.85,78.89S184,74.07,171.68,85.44c-.58.53.62,3.74-2.72,4.82-1.83.59-10.69.08-13.15.79C128.55,99,70.1,112.61,68.9,115.26c-1.51,3.32,9.55,13.89,12.35,18.18s18.27,26.47,21.31,27.64,187.07.88,226.89-4.13c6-.78-4.75-27.28-6.3-27.41s-26.79-9.61-27-11.19l-.19-1.58s10.93.23,11.75-2.21-.54-9.12-6-11.11S277.12,97.77,278,90.33c10,.16,27.54,0,27.54,0l.22-2.8Z"/>
    </clipPath>
    <clipPath id="clip-path-2">
      <path id="SVGID-2" data-name="SVGID" class="cls-2" d="M171.68,85.44s-1.55,5.26,33.73,6.87c31.49,1.44,50.44,1.44,54.15,1.43a.88.88,0,0,1,.86.65l2,7.23a.88.88,0,0,1-.84,1.13c-8.45,0-60.75.16-83.61-2.63C160.38,98,152,97.09,171.68,85.44Z"/>
    </clipPath>
    <clipPath id="clip-path-3">
      <path id="SVGID-3" data-name="SVGID" class="cls-2" d="M117,129c0-2.15,0-2.59,17.77-5.32,3.88-.6,126.11-1.77,138.84-1.89a1.45,1.45,0,0,1,1.4,1l1.75,5.41a1.46,1.46,0,0,1-1.36,1.91l-115.87,2a5.68,5.68,0,0,1-3.35-1l-.83-.58a5.67,5.67,0,0,0-3.33-1c-3.57,0-11.8.18-19.4.46C124.42,130.25,117,130.61,117,129Z"/>
    </clipPath>
    <clipPath id="clip-path-4">
      <path id="SVGID-4" data-name="SVGID" class="cls-1" d="M274.95,92.88s1.12,6.94,3.28,9.6l-5.54-.43-4.1-9Z"/>
    </clipPath>
    <clipPath id="clip-path-5">
      <path id="SVGID-5" data-name="SVGID" class="cls-1" d="M282,120.34s1.26,6.34,3.35,8.09l-6.92-.54L275,119.83Z"/>
    </clipPath>
  </defs>
  <title>14_big_boat_moves_fast</title>
  <g>
    <g class="cls-3">
      <g>
        <polygon class="cls-4" points="308.07 85.37 211.57 84.61 70.4 126.5 104.22 171.9 335.86 164.28 326.99 118.56 308.07 85.37"/>
        <path class="cls-5" d="M74.47,127.74s2.94-2.47,6-2.56,36.54-5,55.06-10.25,52.61-14.25,59.69-15.51c0,0,11.15-10.25,37.84-10.75s72.73-1.17,72.73-1.17L275,74.36l-102.55,1L61.13,106.51Z"/>
      </g>
      <path class="cls-6" d="M78.33,135.19S98,143,151.76,142.59,329.67,139,329.67,139l6.2,21.92L94.18,164.46Z"/>
      <path class="cls-7" d="M278.12,90.38a.8.8,0,0,0-.22-.08,10.85,10.85,0,0,0-1.17-.12c-.75-.05-1.65,0-1.69.45-.08,1,1.8,15.95,10,15.21,1.11-.05.35.86.6,3s-1.64,4.81,12.08,4c2.14-.36,2.34-.5,2.42-6a.86.86,0,0,1,.83-.85c1.65-.06,3.15-.31,3.54-.76S279.92,91.34,278.12,90.38Z"/>
      <path class="cls-7" d="M297,116.83s-13-.6-14.29.13.59,13.77,8.08,13.67l36.23-.49Z"/>
    </g>
    <g>
      <g>
        <path class="cls-7" d="M106.37,105.72a2.48,2.48,0,0,0-1.23-.06c-5.08,1.31-31.89,8.26-33.21,9.84-1.46,1.74,5.6,9.71,8.52,9.68,2,0,21.74-2.9,33.47-5,5-.9,8.57-1.67,8.68-2,.36-1.16-4.9-3.43-4.1-3.5s3-1.09,2.15-2.08-3.83-.17-5.2.39c-1.09.44-5.31-3.68-7-5.35a.5.5,0,0,1,.25-.83c.86-.19,2-.59,2-1.34C110.71,104.38,107.62,106,106.37,105.72Z"/>
        <path class="cls-8" d="M113.21,120.24s-27.8-2-29.15-2.71S72.56,107,74.51,106.83s26.43,0,26.43,0"/>
        <path class="cls-8" d="M104.15,121.85c-8.52-.67-20.31-1.67-21.14-2.12-1.35-.72-11.5-10.49-9.55-10.69,1.21-.12,11.31-.06,18.79,0"/>
        <path class="cls-8" d="M91.08,123.79a65.63,65.63,0,0,1-8.75-1.12C81,122,70.84,112.18,72.79,112c.74-.08,4.75-.08,9.46-.06"/>
        <path class="cls-8" d="M81.4,125.16C80,124.44,70,114.84,72,114.64c.26,0,.95,0,1.93-.06"/>
        <g>
          <line class="cls-8" x1="74.94" y1="108.65" x2="73.84" y2="117.77"/>
          <line class="cls-8" x1="76.92" y1="110.96" x2="75.81" y2="120.08"/>
          <line class="cls-8" x1="78.9" y1="113.1" x2="77.8" y2="122.23"/>
          <line class="cls-8" x1="80.93" y1="114.8" x2="79.82" y2="123.93"/>
        </g>
      </g>
      <g>
        <rect class="cls-9" x="203.72" y="46.79" width="0.95" height="15.63" rx="0.47" ry="0.47" transform="translate(4.89 -15.78) rotate(4.48)"/>
        <rect class="cls-9" x="205.07" y="18.28" width="0.39" height="45.23" rx="0.2" ry="0.2" transform="translate(3.82 -15.91) rotate(4.48)"/>
        <rect class="cls-10" x="202.68" y="48.66" width="1.73" height="28.53" rx="0.86" ry="0.86" transform="matrix(1, 0.08, -0.08, 1, 5.54, -15.7)"/>
        <path class="cls-11" d="M194.77,84.43l8.72-.53a.68.68,0,0,0,.64-.64l.36-7a.68.68,0,0,0-.62-.71l-2.46-.19a.68.68,0,0,0-.57.23l-6.63,7.69A.68.68,0,0,0,194.77,84.43Z"/>
      </g>
      <g>
        <g>
          <path class="cls-12" d="M171.68,85.44s-1.55,5.26,33.73,6.87c31.49,1.44,50.44,1.44,54.15,1.43a.88.88,0,0,1,.86.65l2,7.23a.88.88,0,0,1-.84,1.13c-8.45,0-60.75.16-83.61-2.63C160.38,98,152,97.09,171.68,85.44Z"/>
          <g>
            <g class="cls-13">
              <g>
                <polygon class="cls-14" points="175.99 86.47 157.69 98.51 155.2 94.62 172.92 83.64 175.99 86.47"/>
                <polygon class="cls-15" points="179.25 89.12 161.33 101.71 158.72 97.91 176.1 86.38 179.25 89.12"/>
                <polygon class="cls-16" points="185.59 89.82 167.87 102.69 165.2 98.92 182.39 87.13 185.59 89.82"/>
              </g>
            </g>
            <path id="SVGID-6" data-name="SVGID" class="cls-2" d="M171.68,85.44s-1.55,5.26,33.73,6.87c31.49,1.44,50.44,1.44,54.15,1.43a.88.88,0,0,1,.86.65l2,7.23a.88.88,0,0,1-.84,1.13c-8.45,0-60.75.16-83.61-2.63C160.38,98,152,97.09,171.68,85.44Z"/>
          </g>
        </g>
        <polygon class="cls-7" points="148.96 111.36 274.71 110.81 273.5 107.43 160.89 107.97 148.96 111.36"/>
        <path class="cls-7" d="M163.29,138l123.37-2.47-1.27-3.36-112.54,2.31h-.09l-9.57,2.88A.32.32,0,0,0,163.29,138Z"/>
        <g>
          <path class="cls-17" d="M117,129c0-2.15,0-2.59,17.77-5.32,3.88-.6,126.11-1.77,138.84-1.89a1.45,1.45,0,0,1,1.4,1l1.75,5.41a1.46,1.46,0,0,1-1.36,1.91l-115.87,2a5.68,5.68,0,0,1-3.35-1l-.83-.58a5.67,5.67,0,0,0-3.33-1c-3.57,0-11.8.18-19.4.46C124.42,130.25,117,130.61,117,129Z"/>
          <g>
            <g class="cls-18">
              <g>
                <rect class="cls-14" x="115.07" y="117.54" width="17.75" height="19.18" transform="translate(-1.6 1.58) rotate(-0.73)"/>
                <rect class="cls-14" x="133.18" y="117.31" width="17.75" height="19.18" transform="translate(-1.6 1.81) rotate(-0.73)"/>
                <rect class="cls-14" x="151.28" y="117.08" width="17.75" height="19.18" transform="translate(-1.6 2.04) rotate(-0.73)"/>
                <rect class="cls-14" x="169.39" y="116.85" width="17.75" height="19.18" transform="translate(-1.59 2.27) rotate(-0.73)"/>
                <rect class="cls-14" x="187.49" y="116.62" width="17.75" height="19.18" transform="translate(-1.59 2.5) rotate(-0.73)"/>
                <rect class="cls-14" x="205.6" y="116.39" width="17.75" height="19.18" transform="translate(-1.58 2.73) rotate(-0.73)"/>
                <rect class="cls-14" x="223.71" y="116.16" width="17.75" height="19.18" transform="translate(-1.58 2.96) rotate(-0.73)"/>
                <rect class="cls-14" x="241.81" y="115.93" width="17.75" height="19.18" transform="translate(-1.57 3.19) rotate(-0.73)"/>
                <rect class="cls-14" x="259.92" y="115.7" width="17.75" height="19.18" transform="translate(-1.57 3.42) rotate(-0.73)"/>
              </g>
            </g>
            <path id="SVGID-7" data-name="SVGID" class="cls-2" d="M117,129c0-2.15,0-2.59,17.77-5.32,3.88-.6,126.11-1.77,138.84-1.89a1.45,1.45,0,0,1,1.4,1l1.75,5.41a1.46,1.46,0,0,1-1.36,1.91l-115.87,2a5.68,5.68,0,0,1-3.35-1l-.83-.58a5.67,5.67,0,0,0-3.33-1c-3.57,0-11.8.18-19.4.46C124.42,130.25,117,130.61,117,129Z"/>
          </g>
        </g>
      </g>
      <g>
        <g class="cls-19">
          <g>
            <polygon class="cls-9" points="276.38 94.36 269.72 93.84 271.52 95.94 276.79 96.36 276.38 94.36"/>
            <polygon class="cls-9" points="277.36 97.03 270.7 96.51 272.5 98.61 277.77 99.03 277.36 97.03"/>
            <polygon class="cls-9" points="278.55 99.83 271.88 99.31 273.68 101.41 278.96 101.82 278.55 99.83"/>
          </g>
        </g>
        <g class="cls-20">
          <g>
            <polygon class="cls-9" points="282.45 120.76 275.79 120.24 277.59 122.34 282.87 122.75 282.45 120.76"/>
            <polygon class="cls-9" points="283.54 123.44 276.88 122.92 278.67 125.02 283.95 125.43 283.54 123.44"/>
            <polygon class="cls-9" points="284.87 126.24 278.2 125.72 280 127.82 285.28 128.24 284.87 126.24"/>
          </g>
        </g>
      </g>
    </g>
    <line class="cls-21" x1="286.08" y1="106.22" x2="299.88" y2="106.27"/>
    <line class="cls-21" x1="286.05" y1="109.2" x2="299.71" y2="109.24"/>
  </g>
</svg>
