<svg id="Layer_1" data-name="Layer 1" xmlns="http://www.w3.org/2000/svg" xmlns:xlink="http://www.w3.org/1999/xlink" viewBox="0 0 181.76 191.19"><defs><style>.cls-1{fill:#1daded;}.cls-2{fill:none;}.cls-3{fill:#ff6801;}.cls-4{fill:#ffeff7;}.cls-5{fill:#1ebde2;}.cls-6{clip-path:url(#clip-path);}.cls-7{fill:#edb220;}.cls-8{fill:#ffcb33;}.cls-9{fill:#1bb3ef;}.cls-10{fill:#f7f6da;}.cls-11{fill:#fff;}.cls-12{fill:#8b5e3c;}.cls-13{fill:#603913;}.cls-14{clip-path:url(#clip-path-2);}</style><clipPath id="clip-path"><path id="SVGID" class="cls-1" d="M60.38,161.79s-27.77-.4-51.72-21.31c0,0-.83,21.79,19.68,29.46S60.38,161.79,60.38,161.79Z"/></clipPath><clipPath id="clip-path-2"><path id="SVGID-2" data-name="SVGID" class="cls-2" d="M54.61,159.78s-27.67,2.39-53.6-16c0,0,1.36,21.77,22.55,27.34S54.61,159.78,54.61,159.78Z"/></clipPath></defs><title>04_a_small_singing_bird</title><polygon class="cls-3" points="130.4 114.93 125.64 129.46 124.29 133.21 126.97 134.41 133.58 116.21 130.4 114.93"/><path class="cls-3" d="M126.41,135.61c-1.82,2.88-5.4,3.44-8.65,1.39s-5.24-6.47-3.42-9.35,6.23-3,9.48-1S128.23,132.73,126.41,135.61Z"/><path class="cls-4" d="M115.33,128.62c.38,1.1,2.89-.05,2.2-1.26-.57-1-1.76-.23-2.11.54A1,1,0,0,0,115.33,128.62Z"/><path class="cls-4" d="M123.66,129.67c.48-.25.6-.87,0-1.77a3.84,3.84,0,0,0-3.23-1.46,1.77,1.77,0,0,0-1.17.44,1,1,0,0,0-.2,1.18,1.57,1.57,0,0,0,.71.49l2.21,1A2,2,0,0,0,123.66,129.67Z"/><path class="cls-5" d="M60.38,161.79s-27.77-.4-51.72-21.31c0,0-.83,21.79,19.68,29.46S60.38,161.79,60.38,161.79Z"/><path id="SVGID-3" data-name="SVGID" class="cls-1" d="M60.38,161.79s-27.77-.4-51.72-21.31c0,0-.83,21.79,19.68,29.46S60.38,161.79,60.38,161.79Z"/><g class="cls-6"><circle class="cls-7" cx="57.73" cy="167.75" r="6.41" transform="translate(-56.57 32.07) rotate(-21.12)"/><circle class="cls-7" cx="47.83" cy="170.8" r="6.41" transform="translate(-58.34 28.71) rotate(-21.12)"/><circle class="cls-7" cx="36.28" cy="171.58" r="6.41" transform="translate(-59.4 24.6) rotate(-21.12)"/><circle class="cls-7" cx="25.79" cy="167.78" r="6.41" transform="translate(-58.73 20.57) rotate(-21.12)"/><circle class="cls-7" cx="16.73" cy="162.3" r="6.41" transform="matrix(0.93, -0.36, 0.36, 0.93, -57.37, 16.93)"/><circle class="cls-7" cx="9.09" cy="153.73" r="6.41" transform="translate(-54.79 13.61) rotate(-21.12)"/><circle class="cls-7" cx="4.08" cy="144.68" r="6.41" transform="translate(-51.86 11.19) rotate(-21.12)"/></g><path class="cls-8" d="M84.56,133.75s21.45,3.11,27.18,5c5,1.63,8.05,4.62,5.8,15.06a2.09,2.09,0,0,1-3.57,1c-1.83-2-5-4.14-10.65-5.22C91.83,147.31,82.45,146,82.45,146S84.7,133,84.56,133.75Z"/><path class="cls-9" d="M75.13,103.78c-7.13-1.37-27,0-31.27,20.09S30.21,170,0,164.16c0,0,16.76,35,61.69,25.35S114.57,111.37,75.13,103.78Z"/><path class="cls-10" d="M90.29,170.5a47,47,0,0,1-28.6,19,72.22,72.22,0,0,1-14.81,1.68,26.47,26.47,0,0,1,.45-6.18,26.06,26.06,0,0,1,43-14.51Z"/><circle class="cls-11" cx="79.16" cy="136.43" r="17.08" transform="translate(-25.65 18.55) rotate(-11.52)"/><circle class="cls-12" cx="76.06" cy="137.13" r="8.09" transform="translate(-23.05 15.61) rotate(-10.18)"/><circle class="cls-13" cx="75.81" cy="137.26" r="4.42" transform="translate(-23.07 15.56) rotate(-10.18)"/><circle class="cls-11" cx="74.37" cy="132.32" r="2.83" transform="translate(-22.22 15.23) rotate(-10.18)"/><path class="cls-1" d="M54.61,159.78s-27.67,2.39-53.6-16c0,0,1.36,21.77,22.55,27.34S54.61,159.78,54.61,159.78Z"/><g class="cls-14"><circle class="cls-8" cx="52.57" cy="165.97" r="6.41" transform="translate(-69.39 41.73) rotate(-26.89)"/><circle class="cls-8" cx="43.03" cy="170" r="6.41" transform="translate(-72.24 37.85) rotate(-26.89)"/><circle class="cls-8" cx="31.62" cy="171.94" r="6.41" transform="translate(-74.36 32.9) rotate(-26.89)"/><circle class="cls-8" cx="20.8" cy="169.21" r="6.41" transform="translate(-74.29 27.71) rotate(-26.89)"/><circle class="cls-8" cx="11.23" cy="164.68" r="6.41" transform="translate(-73.27 22.89) rotate(-26.89)"/><circle class="cls-8" cx="2.77" cy="156.91" r="6.41" transform="translate(-70.68 18.22) rotate(-26.89)"/><circle class="cls-8" cx="-3.13" cy="148.41" r="6.41" transform="translate(-67.47 14.64) rotate(-26.89)"/></g></svg>