<svg xmlns="http://www.w3.org/2000/svg" viewBox="0 0 268.72 95.33">
  <defs>
    <style>
      .cls-1 {
        fill: #ad6a00;
        opacity: 0.12;
      }
    </style>
  </defs>
  <title>p11</title>
  <g id="character">
    <g>
      <g>
        <path class="cls-1" d="M177.64,19.25a99.8,99.8,0,0,0-16.13,2.21,91.6,91.6,0,0,0-12,3.36,142.59,142.59,0,0,0-23,10,124.46,124.46,0,0,0-10.87,6.37,52.79,52.79,0,0,0-6.59,5.05,21.08,21.08,0,0,0-5.37,8.07,17.11,17.11,0,0,0-.89,8.59A19.9,19.9,0,0,0,107.57,72c6.16,6.83,15.59,8.47,24.27,9.52a182.87,182.87,0,0,0,22.69,1,185.08,185.08,0,0,0,20.53-.86,65.92,65.92,0,0,0,16.13-3.56,57.84,57.84,0,0,0,13.25-7.35,124.53,124.53,0,0,0,9.9-7.82,23.83,23.83,0,0,0,5.75-7c1.37-2.74,1.59-6.09,2-9.09.4-2.55.69-5.1.88-7.67a27.76,27.76,0,0,0-.56-7.66c0-.12-3.07,2.06-3,2-.26.2-2.79,1.74-2.74,2.36a21.53,21.53,0,0,1,.09,6.51,48.36,48.36,0,0,1-.77,4.92,37.64,37.64,0,0,1-1.91,7.78c-1.09,2.55-3.6,4.69-5.75,6.38-3,2.39-6.16,4.69-9.35,6.86a43.92,43.92,0,0,1-5.84,3.61,20.1,20.1,0,0,1-6.51,2.64,72,72,0,0,1-15.39,3c-5.39.48-10.83.57-16.24.6a166,166,0,0,1-25-1.52c-6.89-1-14.82-2.76-18.92-9-1.46-2.22-2.75-4.64-2.54-7.43a15.41,15.41,0,0,1,2-6.16,18,18,0,0,1,5.64-6,110.68,110.68,0,0,1,13.59-8.27,147.79,147.79,0,0,1,22.44-9.66A126.69,126.69,0,0,1,167.91,26a84.37,84.37,0,0,1,15.61-1.54,1.25,1.25,0,0,0-.5-.68c-.75-.72-1.51-1.42-2.29-2.1C180.33,21.35,178.43,19.18,177.64,19.25Z"/>
        <path class="cls-1" d="M178.35,20.79a95.18,95.18,0,0,0-16.12,2.14,91.7,91.7,0,0,0-12,3.35,142.17,142.17,0,0,0-23,9.95,120.63,120.63,0,0,0-10.89,6.34,52.21,52.21,0,0,0-6.62,5,21.63,21.63,0,0,0-5.48,8,17.14,17.14,0,0,0-1,8.65A19.87,19.87,0,0,0,108,73.44c6.19,6.84,15.75,8.44,24.44,9.49a183.43,183.43,0,0,0,22.72,1,180.87,180.87,0,0,0,20.56-.84,65.64,65.64,0,0,0,16.15-3.57,58.48,58.48,0,0,0,13.26-7.4,126.38,126.38,0,0,0,9.9-7.86,23.46,23.46,0,0,0,5.72-7.05c1.34-2.75,1.5-6.09,1.9-9.08.39-2.54.67-5.09.86-7.65a27.85,27.85,0,0,0-.6-7.62,31.45,31.45,0,0,0-2.79,1.86c-.28.21-2.55,1.59-2.52,2.2a23.29,23.29,0,0,1-.06,6.67q-.34,2.51-.93,5a35.45,35.45,0,0,1-2.27,7.78,5,5,0,0,1-2,2.61,24.74,24.74,0,0,1-4,3.65c-3.09,2.32-6.25,4.58-9.47,6.7A43.44,43.44,0,0,1,193,72.82a20.37,20.37,0,0,1-6.52,2.52,73.92,73.92,0,0,1-15.33,2.88c-5.37.44-10.77.51-16.15.52a166,166,0,0,1-24.71-1.59c-6.62-1-14.31-2.55-18.62-8.2-1.63-2.13-3.07-4.45-3.08-7.25a14.44,14.44,0,0,1,1.61-6.35,16.88,16.88,0,0,1,5.4-6.23,100.26,100.26,0,0,1,13.53-8.48,147,147,0,0,1,22.44-9.88,126.92,126.92,0,0,1,15.71-4.25,84,84,0,0,1,15.65-1.65s-2.14-2.2-2.14-2.2C180.42,22.33,179,20.73,178.35,20.79Z"/>
        <path class="cls-1" d="M177.38,18.1a98.66,98.66,0,0,0-16.14,2.2,93.41,93.41,0,0,0-12,3.38,142,142,0,0,0-23,10c-6,3.25-12.56,6.57-17.47,11.45a21.4,21.4,0,0,0-5.43,8.12,18.24,18.24,0,0,0-1,8.66A20.68,20.68,0,0,0,107,71.33c6.2,7.11,16,8.82,24.84,9.8a189.31,189.31,0,0,0,22.84.92,184,184,0,0,0,20.6-1,66.59,66.59,0,0,0,16.15-3.65A57.67,57.67,0,0,0,204.71,70a125.35,125.35,0,0,0,9.89-7.9,24,24,0,0,0,5.72-7c1.4-2.8,1.62-6.21,2-9.27q.57-3.84.84-7.71a28.11,28.11,0,0,0-.59-7.71,26.64,26.64,0,0,0-2.6,1.8c-.25.2-2.4,1.57-2.33,2.14A22.48,22.48,0,0,1,218,41c-.12,1.69-.33,3.38-.61,5.05a44.94,44.94,0,0,1-1.64,8.31c-1,2.69-3.43,5-5.58,6.77-3,2.54-6.13,4.95-9.32,7.25a47.37,47.37,0,0,1-5.91,3.88,21,21,0,0,1-6.57,2.89,70.77,70.77,0,0,1-15.57,3.35c-5.46.58-11,.74-16.46.85a179.54,179.54,0,0,1-25.71-1.09c-7.66-1-17-2.76-21.35-10-1.5-2.51-3-5.64-2.61-8.64a18.1,18.1,0,0,1,2.43-6.69A19,19,0,0,1,115,46.69a118.45,118.45,0,0,1,13.78-8.37,149.42,149.42,0,0,1,22.6-9.72,129.74,129.74,0,0,1,15.77-4.16,81.79,81.79,0,0,1,15.61-1.53,1,1,0,0,0-.45-.63c-.68-.66-1.39-1.31-2.1-1.94C179.84,20,178.12,18,177.38,18.1Z"/>
        <path class="cls-1" d="M177.33,22.29a102.88,102.88,0,0,0-16,2.2,91.88,91.88,0,0,0-12,3.36,141.85,141.85,0,0,0-23,10,118.91,118.91,0,0,0-10.91,6.37,53.39,53.39,0,0,0-6.65,5.05,22.2,22.2,0,0,0-5.53,8.11,17.39,17.39,0,0,0-1,8.83A19.73,19.73,0,0,0,107,75.6c6.33,7,16,8.51,24.88,9.54a184.59,184.59,0,0,0,22.8,1,181.36,181.36,0,0,0,20.58-.9,65.65,65.65,0,0,0,16.15-3.64,58.64,58.64,0,0,0,13.25-7.46c3.37-2.47,6.78-5.11,9.9-7.91a23.76,23.76,0,0,0,5.68-7c1.37-2.76,1.61-6.17,2-9.2q.57-3.82.85-7.69a28.37,28.37,0,0,0-.57-7.69c0-.21-1.75,1.18-1.69,1.13-.27.23-1.44,1-1.41,1.46a27.35,27.35,0,0,1-.06,7.23L218.8,48a38.57,38.57,0,0,1-3.19,10.4c-1.15,2.29-3.38,4.08-5.37,5.67-2.9,2.31-6,4.39-9.1,6.44-1.92,1.31-3.9,2.55-5.92,3.71a27.15,27.15,0,0,1-8.81,3.55,77.4,77.4,0,0,1-15.57,2.79,196.66,196.66,0,0,1-37.74-.77,56.86,56.86,0,0,1-13.32-3,23.08,23.08,0,0,1-7.5-4.29c-3.69-3.44-5.84-8.15-4.61-13.16a18.06,18.06,0,0,1,3.25-6.73,66.08,66.08,0,0,1,5.6-4.68l3.26-2.18a139.48,139.48,0,0,1,25.58-12.92,100.21,100.21,0,0,1,11.59-4,96,96,0,0,1,23.54-3.79,17.59,17.59,0,0,0-1.43-1.58C178.73,23.25,177.88,22.23,177.33,22.29Z"/>
        <path class="cls-1" d="M177.93,21.37a97.41,97.41,0,0,0-16.12,2.15,92.1,92.1,0,0,0-12,3.34,143,143,0,0,0-23,9.93,124.67,124.67,0,0,0-10.9,6.34,53,53,0,0,0-6.63,5,21.8,21.8,0,0,0-5.5,8,17,17,0,0,0-1,8.68A19.76,19.76,0,0,0,107.53,74c6.2,6.8,15.76,8.36,24.43,9.4a182.71,182.71,0,0,0,22.68,1,180.35,180.35,0,0,0,20.53-.85A65.4,65.4,0,0,0,191.3,80a58.49,58.49,0,0,0,13.21-7.39c3.36-2.45,6.76-5.07,9.87-7.85a23.33,23.33,0,0,0,5.68-7c1.33-2.72,1.49-6,1.89-9q.59-3.8.87-7.62a27.68,27.68,0,0,0-.58-7.59,30.61,30.61,0,0,0-2.75,1.84c-.28.22-2.51,1.57-2.48,2.18a23.3,23.3,0,0,1-.12,6.67,49.59,49.59,0,0,1-1,5,33.9,33.9,0,0,1-2.4,7.7,4.94,4.94,0,0,1-2.07,2.55A23.45,23.45,0,0,1,207.39,63c-3.11,2.28-6.29,4.5-9.54,6.57A43.75,43.75,0,0,1,192,73a20.1,20.1,0,0,1-6.52,2.41,75.23,75.23,0,0,1-15.33,2.72c-5.35.4-10.75.43-16.12.39a154.14,154.14,0,0,1-24.47-1.88c-6.27-1.05-13.31-2.75-17.37-8.06-1.55-2-2.84-4-2.86-6.7a13.71,13.71,0,0,1,1.51-6,16.1,16.1,0,0,1,5.24-6,100.22,100.22,0,0,1,13.4-8.38,145.17,145.17,0,0,1,22.3-9.82,126.45,126.45,0,0,1,15.65-4.24,84.25,84.25,0,0,1,15.6-1.6s-2.37-2.4-2.39-2.41C180.23,23.13,178.65,21.31,177.93,21.37Z"/>
        <path class="cls-1" d="M178,20a98.53,98.53,0,0,0-16.12,2.18,93.15,93.15,0,0,0-12,3.35,142.06,142.06,0,0,0-23,10A124.43,124.43,0,0,0,116,41.82a52.81,52.81,0,0,0-6.6,5,21.3,21.3,0,0,0-5.41,8,17,17,0,0,0-.93,8.6,19.84,19.84,0,0,0,4.74,9C114,79.31,123.4,80.92,132,82a180.56,180.56,0,0,0,22.67,1,182.77,182.77,0,0,0,20.53-.84,66,66,0,0,0,16.13-3.54,58.4,58.4,0,0,0,13.25-7.34c3.37-2.44,6.78-5.06,9.9-7.83a23.4,23.4,0,0,0,5.74-7c1.36-2.74,1.57-6.07,2-9.06.39-2.54.69-5.09.88-7.65a27.56,27.56,0,0,0-.58-7.63c0-.12-3.16,2.12-3.09,2.07-.28.21-2.88,1.79-2.84,2.42a21.79,21.79,0,0,1,0,6.5,47.48,47.48,0,0,1-.87,4.88,35.08,35.08,0,0,1-2.08,7.62c-1.15,2.48-3.71,4.57-5.85,6.2-3.06,2.33-6.18,4.58-9.38,6.71a43,43,0,0,1-5.82,3.5,20.09,20.09,0,0,1-6.49,2.53,73.1,73.1,0,0,1-15.31,2.89c-5.37.45-10.78.51-16.16.52a162.21,162.21,0,0,1-24.72-1.65c-6.59-1-14.13-2.69-18.19-8.51-1.49-2.13-2.78-4.38-2.65-7.11a14.79,14.79,0,0,1,1.87-6,17.28,17.28,0,0,1,5.51-5.93A108.21,108.21,0,0,1,130,40.43a147.38,147.38,0,0,1,22.39-9.69,127,127,0,0,1,15.68-4.16A84.18,84.18,0,0,1,183.66,25a1.21,1.21,0,0,0-.48-.66c-.73-.7-1.46-1.38-2.22-2C180.57,22,178.74,19.9,178,20Z"/>
        <path class="cls-1" d="M177.47,21.77a98.13,98.13,0,0,0-16.1,2.17,92.28,92.28,0,0,0-12,3.35,142.47,142.47,0,0,0-23,10,119.9,119.9,0,0,0-10.9,6.35,51.56,51.56,0,0,0-6.64,5,21.87,21.87,0,0,0-5.52,8.07,17.21,17.21,0,0,0-1,8.78,19.75,19.75,0,0,0,4.81,9.27c6.28,6.87,15.92,8.4,24.68,9.44a183.72,183.72,0,0,0,22.74,1,180.62,180.62,0,0,0,20.55-.88,65.45,65.45,0,0,0,16.13-3.61,58.39,58.39,0,0,0,13.23-7.43c3.36-2.46,6.77-5.09,9.88-7.87a23.76,23.76,0,0,0,5.69-7c1.36-2.74,1.52-6.11,1.92-9.1.4-2.54.69-5.1.89-7.66a27.6,27.6,0,0,0-.58-7.64c0-.2-2.11,1.39-2.05,1.34-.26.21-1.81,1.15-1.78,1.68a25.25,25.25,0,0,1,0,7,51.54,51.54,0,0,1-1,5.22,36.41,36.41,0,0,1-2.5,8.27,5.29,5.29,0,0,1-2.15,2.78A25.86,25.86,0,0,1,208.58,64c-3.17,2.36-6.41,4.65-9.73,6.78a45.73,45.73,0,0,1-6,3.49,20.81,20.81,0,0,1-6.67,2.52,76.41,76.41,0,0,1-15.51,2.81c-5.4.42-10.84.45-16.26.43a161.15,161.15,0,0,1-24.83-1.8c-6.61-1.06-14-2.84-18.4-8.36-1.66-2.11-3.07-4.27-3.21-7.08a14.15,14.15,0,0,1,1.31-6.35,16,16,0,0,1,5.15-6.35,91.71,91.71,0,0,1,13.39-8.62,145.7,145.7,0,0,1,22.33-10,121.68,121.68,0,0,1,15.67-4.35,84.22,84.22,0,0,1,15.66-1.76c.06,0-1.87-2-1.85-1.94C179.26,23.08,178.1,21.71,177.47,21.77Z"/>
        <path class="cls-1" d="M178.12,19.3A96.92,96.92,0,0,0,162,21.47a91.88,91.88,0,0,0-12,3.36,143.35,143.35,0,0,0-23,10c-6,3.24-12.57,6.56-17.52,11.41a22,22,0,0,0-5.5,8.09A17.11,17.11,0,0,0,103,63a20.3,20.3,0,0,0,4.73,9.39c6.22,7,16,8.64,24.78,9.63a192.68,192.68,0,0,0,22.79.95,184,184,0,0,0,20.6-.92A66.22,66.22,0,0,0,192,78.44,58.23,58.23,0,0,0,205.31,71c3.38-2.46,6.81-5.1,9.93-7.89A23.77,23.77,0,0,0,221,56.08c1.38-2.79,1.58-6.17,2-9.22q.58-3.82.85-7.7a28,28,0,0,0-.6-7.69,25.48,25.48,0,0,0-2.6,1.8c-.27.21-2.38,1.55-2.33,2.14a23.28,23.28,0,0,1,.13,6.72,51.08,51.08,0,0,1-.77,5.06,40.73,40.73,0,0,1-2,8.17c-1.07,2.61-3.63,4.82-5.79,6.57-3,2.45-6.19,4.81-9.39,7a45.59,45.59,0,0,1-5.91,3.74A20.29,20.29,0,0,1,188,75.45a73,73,0,0,1-15.48,3.19c-5.42.54-10.89.69-16.33.78a180.45,180.45,0,0,1-25.36-1.16c-7.37-.91-16.29-2.5-20.82-9.14-1.64-2.41-3.22-5.35-3.08-8.37a16.54,16.54,0,0,1,2-6.8,18.5,18.5,0,0,1,5.78-6.44A106.63,106.63,0,0,1,128.54,39a147.82,147.82,0,0,1,22.61-9.87,128.56,128.56,0,0,1,15.79-4.24,82.11,82.11,0,0,1,15.64-1.62s-2.09-2.15-2.08-2.15C180.13,20.79,178.79,19.23,178.12,19.3Z"/>
        <path class="cls-1" d="M177.82,20.66a99.59,99.59,0,0,0-16.12,2.16,93.75,93.75,0,0,0-12,3.35,143,143,0,0,0-23,9.95,120.72,120.72,0,0,0-10.89,6.35,52.21,52.21,0,0,0-6.62,5,21.62,21.62,0,0,0-5.46,8,17,17,0,0,0-1,8.65,19.85,19.85,0,0,0,4.77,9.07c6.18,6.77,15.67,8.34,24.31,9.4a182.39,182.39,0,0,0,22.66,1,182.67,182.67,0,0,0,20.53-.84,66,66,0,0,0,16.13-3.56,58.17,58.17,0,0,0,13.23-7.36c3.36-2.43,6.77-5.06,9.88-7.82a23.7,23.7,0,0,0,5.71-7c1.35-2.72,1.53-6.05,1.94-9,.39-2.53.68-5.08.87-7.63a27.8,27.8,0,0,0-.58-7.61c0-.13-3,2-2.89,1.94-.28.21-2.67,1.66-2.63,2.28a22.67,22.67,0,0,1-.06,6.58,45.71,45.71,0,0,1-.92,4.94,34.6,34.6,0,0,1-2.23,7.67,4.89,4.89,0,0,1-2,2.56,23.68,23.68,0,0,1-4,3.62c-3.09,2.3-6.25,4.54-9.47,6.64a43.24,43.24,0,0,1-5.87,3.46A20,20,0,0,1,185.66,75a74.55,74.55,0,0,1-15.33,2.79c-5.36.42-10.77.46-16.15.44a155.91,155.91,0,0,1-24.61-1.8c-6.41-1-13.63-2.77-17.66-8.33-1.5-2.07-2.76-4.16-2.69-6.85a14.14,14.14,0,0,1,1.69-6,16.57,16.57,0,0,1,5.37-5.92A106.73,106.73,0,0,1,129.73,41a147.59,147.59,0,0,1,22.34-9.73,125.78,125.78,0,0,1,15.65-4.19,84.11,84.11,0,0,1,15.59-1.57,1.12,1.12,0,0,0-.46-.64c-.7-.67-1.41-1.33-2.14-2C180.32,22.6,178.58,20.59,177.82,20.66Z"/>
        <path class="cls-1" d="M178.28,21.5a97.89,97.89,0,0,0-16.08,2.17,91.23,91.23,0,0,0-12,3.34,142.82,142.82,0,0,0-23,10,120.89,120.89,0,0,0-10.9,6.35,53,53,0,0,0-6.63,5,21.6,21.6,0,0,0-5.5,8,17.26,17.26,0,0,0-1,8.71,19.89,19.89,0,0,0,4.76,9.24c6.24,6.89,15.86,8.48,24.6,9.52a185.88,185.88,0,0,0,22.75,1A183.3,183.3,0,0,0,175.83,84,65.66,65.66,0,0,0,192,80.41,59.17,59.17,0,0,0,205.24,73c3.36-2.46,6.77-5.1,9.87-7.89A23.17,23.17,0,0,0,220.8,58c1.33-2.74,1.47-6.09,1.86-9.07q.57-3.81.85-7.65a27.42,27.42,0,0,0-.6-7.61,20.46,20.46,0,0,0-2.48,1.64c-.28.22-2.24,1.41-2.21,2a24,24,0,0,1-.11,6.83,48.29,48.29,0,0,1-1,5.07,34.73,34.73,0,0,1-2.46,7.93,5,5,0,0,1-2.09,2.65,24.48,24.48,0,0,1-4.08,3.66c-3.12,2.31-6.31,4.56-9.58,6.67A43.68,43.68,0,0,1,193,73.58a20.53,20.53,0,0,1-6.57,2.49,75,75,0,0,1-15.37,2.82c-5.36.43-10.77.49-16.14.48a163.91,163.91,0,0,1-24.66-1.64c-6.56-1-14.15-2.55-18.58-8-1.71-2.09-3.21-4.36-3.35-7.18a14.3,14.3,0,0,1,1.37-6.45,16.47,16.47,0,0,1,5.24-6.41,93.92,93.92,0,0,1,13.48-8.61,145.62,145.62,0,0,1,22.42-10,125.46,125.46,0,0,1,15.71-4.32A84.2,84.2,0,0,1,182.21,25c.07,0-1.84-1.94-1.82-1.92C180.05,22.78,178.9,21.44,178.28,21.5Z"/>
        <path class="cls-1" d="M178,22.1q-4,.24-7.94.75a83,83,0,0,0-12.11,2.46,129.67,129.67,0,0,0-27.31,10.34c-6.19,3.19-12.46,6.53-18,10.76a25.8,25.8,0,0,0-7.52,8.08,20.51,20.51,0,0,0-2.41,8.44c-.24,4.06,1.52,7.82,3.91,11,5.29,7,13.83,9.36,22.12,10.61A159.3,159.3,0,0,0,151.6,86c6.27,0,12.55-.09,18.81-.45a77.58,77.58,0,0,0,19.08-3.26,53.42,53.42,0,0,0,15.89-8.32c3.38-2.52,6.76-5.1,9.89-7.92A22.06,22.06,0,0,0,221,59c1.26-2.85,1.49-6.1,1.89-9.15q.57-3.82.87-7.68a28,28,0,0,0-.55-7.69c0-.19-2,1.38-1.95,1.33-.28.24-1.7,1.13-1.67,1.67a26.61,26.61,0,0,1-.15,7.13l-.65,3.52a49.63,49.63,0,0,1-2.49,8.86,6.93,6.93,0,0,1-2.85,4l-2,2a73.45,73.45,0,0,1-8.21,6,73.63,73.63,0,0,1-11.87,7.07q-4.76,1.54-9.61,2.75l-5.18.9a126.43,126.43,0,0,1-16,1,211.79,211.79,0,0,1-23.23-.75c-8.08-.71-16.85-1.67-23.64-6.55-4-2.85-7.12-8-6.08-13a18.93,18.93,0,0,1,2.83-6.85c1.93-2.88,5.15-5,8-6.89A140.6,140.6,0,0,1,138.13,35.7,103.79,103.79,0,0,1,149.53,31a108,108,0,0,1,31.41-6.27c.15,0-1.38-1.53-1.33-1.49C179.29,23,178.51,22,178,22.1Z"/>
      </g>
      <g>
        <path class="cls-1" d="M131.55,15.2a8.53,8.53,0,0,0-2.46-3,19.83,19.83,0,0,0-5.35-2.51c-3.35-1.15-7.5-2-8.44-6.15l.71,7q0-3.9-.3-7.79a.67.67,0,0,0-.07-.42c-.22-.13-.23.47-.25.72-.14,1.35-.13,2.72-.17,4.07,0,2.33-.15,3.12,1.69,5.47a13.56,13.56,0,0,0,2.23,2.25c1,.83,2.23,1.3,3.28,2.08s1.83,1.26,2.78,1.88a5.56,5.56,0,0,1,2.39,3.45,1.3,1.3,0,0,0,.57-.65c.55-.91,1.08-1.84,1.6-2.77C129.91,18.55,131.86,15.75,131.55,15.2Z"/>
        <path class="cls-1" d="M131.93,16.78a8.11,8.11,0,0,0-2.42-2.94,20.35,20.35,0,0,0-5.21-2.45c-3.38-1.22-7.37-2.08-8.45-6.18l.52,6c0-.29.82-8.17.78-8.18-.21,0,0-.26-.29.2a6.94,6.94,0,0,0-.49,2q-.16.72-.3,1.44-.51,2.79,0-2.72c-.53.56-.33,2.53-.36,3.14,0,.76-.36,2.42.08,3.16a15.14,15.14,0,0,0,2.46,3.48c1.28,1.27,2.76,1.83,4.23,2.79l1.13.81a10.48,10.48,0,0,0,2.49,1.68,6.58,6.58,0,0,1,2.55,3.68s1.83-2.82,1.83-2.81C130.64,19.53,132.22,17.29,131.93,16.78Z"/>
        <path class="cls-1" d="M131.61,14a8.53,8.53,0,0,0-2.46-3,20.15,20.15,0,0,0-5.42-2.53c-3.26-1.12-6.41-1.85-8.32-5l.48,1.83-.67-3L116,8.9l-.27-7.18-.24,6.57,1-6.31c-.12.7.28-2.08.15-2L115.1,2.06c-.5.68.1,3.22.17,3.85.08.86,0,3,.6,3.81a16.38,16.38,0,0,0,3.26,3.44c1.1.78,2.35,1.27,3.42,2.06.36.25.7.52,1,.8a5.35,5.35,0,0,0,1.86,1.12,5.68,5.68,0,0,1,2.47,3.44,1.14,1.14,0,0,0,.54-.6c.52-.85,1-1.72,1.5-2.59C130.11,17.11,131.92,14.53,131.61,14Z"/>
        <path class="cls-1" d="M131.49,18.19l-.9-1.59a7.91,7.91,0,0,0-2.5-2,32.37,32.37,0,0,0-5.28-2.34c-2.94-1.09-5.5-2.07-7.39-4.69l.27.81-.42-1.68.22,2.74.07-3.85-.22,2.71.54-1.64a8,8,0,0,0,.58-2.08c0-.08,0-.59-.19-.34a5.4,5.4,0,0,0,.77,7.84c1.91,1.58,4.18,2.39,6.32,3.57A31.63,31.63,0,0,1,127.2,18a7.4,7.4,0,0,1,2.5,3.39c.08.19,1.12-1.55,1.08-1.49C130.93,19.63,131.71,18.58,131.49,18.19Z"/>
        <path class="cls-1" d="M131.33,17.48A8.33,8.33,0,0,0,129,14.55a20,20,0,0,0-5.14-2.47c-3.34-1.23-7.32-2.12-8.43-6.17l.54,6q.43-4,.69-8a.61.61,0,0,0,0-.44c-.14,0-.28.56-.31.62-1.17,3.17-1.52,6.85.91,9.58,1.56,1.75,3.54,2.6,5.43,3.9,1,.69,2,1.31,3,2a6.16,6.16,0,0,1,2.53,3.59s1.8-2.76,1.79-2.75C130.08,20.17,131.62,18,131.33,17.48Z"/>
        <path class="cls-1" d="M131.64,15.93A8.41,8.41,0,0,0,129.21,13a20.05,20.05,0,0,0-5.28-2.47c-3.36-1.17-7.42-2-8.42-6.14l.69,6.71q0-3.79-.31-7.56a.75.75,0,0,0-.12-.51c-.14,0-.19.74-.2.8a45.88,45.88,0,0,0-.19,4.83,4.25,4.25,0,0,0,.88,3.15,12.9,12.9,0,0,0,3.08,3.54c1.06.78,2.26,1.31,3.29,2.1s1.83,1.29,2.77,1.93a5.65,5.65,0,0,1,2.36,3.5,1.3,1.3,0,0,0,.56-.64c.54-.9,1.07-1.8,1.57-2.72C130.05,19.23,132,16.48,131.64,15.93Z"/>
        <path class="cls-1" d="M131.21,17.8a8.34,8.34,0,0,0-2.39-3,20.62,20.62,0,0,0-5.17-2.51c-3.06-1.14-7.51-2.21-8.46-5.85l.29,3.65,0-4.8L115.21,9l1-3.92c-.06.24.41-1.63,0-1.15q-2.85,5.4.4,8.44A8.26,8.26,0,0,0,118.47,14c1,.7,2.14,1.16,3.24,1.76a46.28,46.28,0,0,1,4.23,2.42,7.32,7.32,0,0,1,3,3.75A15.31,15.31,0,0,0,130.25,20C130.4,19.69,131.46,18.24,131.21,17.8Z"/>
        <path class="cls-1" d="M132.15,15.2a8.32,8.32,0,0,0-2.45-3,20.34,20.34,0,0,0-5.33-2.46c-3.41-1.2-7.49-2-8.5-6.21l.63,5.68-.2-6.32a.83.83,0,0,0-.1-.6c-.2-.2-.24.52-.25.59a22.36,22.36,0,0,0-.14,2.59c0,.68,0,1.36,0,2.05q0,3.14,0-4.15c-.44.68,0,2.64.11,3.29.08.8,0,2.54.54,3.25a21.85,21.85,0,0,0,2,2.32c1.31,1.28,2.82,1.77,4.31,2.77l1.1.82a8.94,8.94,0,0,0,2.48,1.69,6.33,6.33,0,0,1,2.54,3.64s1.86-2.88,1.86-2.88C130.82,18,132.44,15.72,132.15,15.2Z"/>
        <path class="cls-1" d="M131.34,16.74a8.5,8.5,0,0,0-2.4-2.93,20.05,20.05,0,0,0-5.2-2.48c-3.34-1.2-7.36-2.08-8.41-6.15l.63,6.13a65.33,65.33,0,0,0-.28-7,.65.65,0,0,0-.12-.47c-.14,0-.19.67-.2.73a29.54,29.54,0,0,0-.2,4.41,7.06,7.06,0,0,0,2.11,4.77c1.5,1.72,3.41,2.54,5.22,3.84,1,.68,1.91,1.28,2.88,1.93A5.88,5.88,0,0,1,127.82,23a1.1,1.1,0,0,0,.52-.58c.49-.81,1-1.63,1.43-2.46C129.92,19.72,131.64,17.27,131.34,16.74Z"/>
        <path class="cls-1" d="M131.92,17.58a8.26,8.26,0,0,0-2.39-3,21,21,0,0,0-5.16-2.47c-3.36-1.25-7.44-2.28-8.51-6.22l.44,4.51-.09-5.26L116,9.31l1-4.33c-.06.25.45-1.83,0-1.32l-.86,1c-.41.47-.29,1.41-.33,2,0,.8-.46,2.34-.07,3.09.94,1.8,1.06,2.34,2.44,3.59a16.21,16.21,0,0,0,3.61,2.4c1.43.71,2.63,1.74,4,2.55a7.09,7.09,0,0,1,3.46,4.22c0,.08,1.58-2.38,1.56-2.34C130.9,19.86,132.19,18.05,131.92,17.58Z"/>
        <path class="cls-1" d="M132.12,18.06a8.39,8.39,0,0,0-2.43-3,21.41,21.41,0,0,0-5.17-2.48,51.07,51.07,0,0,1-4.71-2,8.63,8.63,0,0,1-3.72-3.14l.28.86-.44-1.69.24,2.91,0-4L116,8.48l.52-1.63a8.61,8.61,0,0,0,.61-2.29c0-.08.06-.62-.19-.36-1.37,1.49-1.14,3.4-.8,5.08a3.82,3.82,0,0,0,1.63,2.89c2.25,2,5.18,3.06,7.71,4.6a12,12,0,0,1,2.94,2,5.9,5.9,0,0,1,1.71,2.89c.07.16,1.23-1.75,1.2-1.69C131.45,19.69,132.35,18.47,132.12,18.06Z"/>
      </g>
      <g>
        <path class="cls-1" d="M102.67,26.42l-5.73-1.36A65.84,65.84,0,0,1,88.74,22c-7-3-13.9-6.31-20.82-9.43a1.37,1.37,0,0,0,.29.83c.52.94,1.05,1.88,1.61,2.8.42.71,1.36,3,2.28,3.41,7.06,3.09,14.08,6.3,21.27,9.08,1.83.74,3.69,1.42,5.56,2A45.8,45.8,0,0,0,107.38,33a1.29,1.29,0,0,0-.35-.79c-.59-.89-1.2-1.76-1.83-2.62C104.81,29,103.54,26.63,102.67,26.42Z"/>
        <path class="cls-1" d="M103.37,28.05A46.35,46.35,0,0,1,89.53,23.3Q78.94,19,68.61,14.15a.87.87,0,0,0,.18.65Q69.39,15.9,70,17c.37.61,1,2.25,1.8,2.58,7,3.1,14,6.33,21.18,9.15,1.82.76,3.66,1.45,5.54,2A46.2,46.2,0,0,0,107,33.08a.83.83,0,0,0-.24-.63c-.44-.69-.91-1.36-1.39-2C105,30,104.1,28.22,103.37,28.05Z"/>
        <path class="cls-1" d="M102.44,25.22,96.7,23.85a66.36,66.36,0,0,1-8.19-3.12c-7-3-13.88-6.32-20.8-9.45a1.14,1.14,0,0,0,.27.78c.49.9,1,1.78,1.54,2.66.42.69,1.31,2.82,2.19,3.21,7.05,3.09,14,6.3,21.21,9.09q2.73,1.11,5.53,2a46.19,46.19,0,0,0,8.41,2.33,1.11,1.11,0,0,0-.32-.74c-.55-.84-1.13-1.66-1.71-2.47C104.44,27.64,103.27,25.42,102.44,25.22Z"/>
        <path class="cls-1" d="M102.56,29.48l-5.69-1.35A65,65,0,0,1,88.72,25c-7-3-13.9-6.3-20.81-9.42-.51-.24.28,1.06.21,1,.3.54.88,2,1.49,2.25,7,3.15,14,6.43,21.07,9.36a57.35,57.35,0,0,0,5.51,2.11,44,44,0,0,0,8.38,2.36c.52.13-.33-1-.31-.95C104,31.24,103.16,29.63,102.56,29.48Z"/>
        <path class="cls-1" d="M102.94,28.67,97.22,27.3A70.5,70.5,0,0,1,89,24.19c-7-3-13.91-6.28-20.83-9.4a.92.92,0,0,0,.2.69c.42.77.85,1.53,1.31,2.28s1.09,2.39,1.88,2.74c7.06,3.11,14.07,6.35,21.24,9.18q2.75,1.14,5.56,2.06a45.51,45.51,0,0,0,8.44,2.34.93.93,0,0,0-.27-.66c-.48-.74-1-1.46-1.49-2.17C104.7,30.74,103.71,28.85,102.94,28.67Z"/>
        <path class="cls-1" d="M103,27.19l-5.72-1.36a68.24,68.24,0,0,1-8.21-3.11c-7-3-13.9-6.29-20.83-9.41a1.3,1.3,0,0,0,.27.79c.5.91,1,1.8,1.55,2.68.41.69,1.3,2.87,2.19,3.26,7.06,3.09,14.08,6.3,21.27,9.09,1.82.75,3.68,1.43,5.56,2a46.27,46.27,0,0,0,8.44,2.33,1.22,1.22,0,0,0-.33-.76c-.57-.85-1.15-1.69-1.75-2.52C105,29.68,103.83,27.39,103,27.19Z"/>
        <path class="cls-1" d="M102.52,29a74.34,74.34,0,0,1-16.43-5.56q-9-4.23-18.13-8.25c-.58-.26.42,1.33.35,1.2q.59,1,1.2,2a4.15,4.15,0,0,0,.71,1C78,22.87,86.07,26.85,94.15,29.81a102,102,0,0,0,11.34,3.37S104.18,31,104.18,31C103.86,30.52,103.17,29.16,102.52,29Z"/>
        <path class="cls-1" d="M103.2,26.5a45.41,45.41,0,0,1-13.82-4.75q-10.59-4.29-20.91-9.17a.93.93,0,0,0,.2.67c.41.74.83,1.47,1.27,2.18s1.07,2.29,1.84,2.63c7,3.09,14,6.31,21.14,9.12q2.72,1.13,5.51,2a45,45,0,0,0,8.39,2.34.83.83,0,0,0-.24-.63c-.45-.69-.91-1.37-1.39-2C104.84,28.41,103.94,26.68,103.2,26.5Z"/>
        <path class="cls-1" d="M102.84,27.93l-5.72-1.36a69.82,69.82,0,0,1-8.2-3.11c-7-3-13.91-6.28-20.83-9.4a1.16,1.16,0,0,0,.24.75c.46.85,1,1.69,1.44,2.52.4.66,1.22,2.67,2.07,3,7.06,3.1,14.08,6.32,21.27,9.13,1.82.76,3.68,1.44,5.56,2.05a46.33,46.33,0,0,0,8.44,2.35,1.07,1.07,0,0,0-.31-.73c-.53-.81-1.08-1.6-1.65-2.39C104.78,30.26,103.66,28.12,102.84,27.93Z"/>
        <path class="cls-1" d="M103.32,28.75A74.49,74.49,0,0,1,86.89,23.2Q77.88,19,68.76,15c-.59-.26.45,1.37.38,1.24.4.71.82,1.41,1.24,2.09a5.15,5.15,0,0,0,.74,1C78.91,22.77,87,26.71,95,29.65A101.7,101.7,0,0,0,106.35,33S105,30.74,105,30.74C104.69,30.29,104,28.91,103.32,28.75Z"/>
        <path class="cls-1" d="M103.21,29.29l-5.68-1.35a67.46,67.46,0,0,1-8.16-3.1c-7-3-13.89-6.29-20.81-9.41-.5-.23.27,1.05.21.93.3.54.86,1.94,1.47,2.22,7,3.13,13.94,6.4,21,9.31q2.7,1.18,5.5,2.1a44,44,0,0,0,8.38,2.36c.51.13-.32-1-.29-.93C104.57,31,103.79,29.43,103.21,29.29Z"/>
      </g>
      <g>
        <path class="cls-1" d="M76.68,55.68A93.56,93.56,0,0,0,63.33,57.5a97.58,97.58,0,0,0-13.27,3.12A133.68,133.68,0,0,0,24.57,71l-8,4.56C14.45,77,12.32,78.3,10.16,79.6L6.91,81.32a20.21,20.21,0,0,1-6.67,2,1.17,1.17,0,0,0,.71.39c.94.33,1.88.64,2.83.93s2.65,1.12,3.67.9a15.49,15.49,0,0,0,4.92-1.38,31.43,31.43,0,0,0,4.88-2.29C22,79.39,26.6,76.6,31.42,74.31a144.06,144.06,0,0,1,25.16-9.42l8.74-2.07a103.12,103.12,0,0,1,17.33-2,1.25,1.25,0,0,0-.51-.67c-.76-.7-1.54-1.38-2.33-2C79.39,57.7,77.46,55.59,76.68,55.68Z"/>
        <path class="cls-1" d="M77.38,57.21A89.11,89.11,0,0,0,64.05,59a99.31,99.31,0,0,0-13.29,3.1,150.07,150.07,0,0,0-21.36,8.3A160.94,160.94,0,0,0,14,79L10.8,81a26.52,26.52,0,0,1-9.7,3.64c-.72.15,1.59.82,1.34.74.91.29,1.82.57,2.74.84a6.58,6.58,0,0,0,1.46.33,31.62,31.62,0,0,0,6.77-2.09c4.61-2,9-4.87,13.38-7.25A140,140,0,0,1,51.63,66.77a108.33,108.33,0,0,1,13-3.45A104.66,104.66,0,0,1,82,61.17L79.85,59C79.48,58.7,78.06,57.13,77.38,57.21Z"/>
        <path class="cls-1" d="M76.41,54.54c-9.06,1-17.88,2.25-26.63,4.94a148.14,148.14,0,0,0-21.35,8.36,157.91,157.91,0,0,0-15.37,8.69l-3.2,2A26,26,0,0,1,.14,82.15c-.76.15,1.75.83,1.47.75,1,.3,2,.59,3,.87a8.68,8.68,0,0,0,1.59.35A32.35,32.35,0,0,0,12.91,82c4.65-2,9.08-4.78,13.57-7.14a142,142,0,0,1,25-10.26,108.56,108.56,0,0,1,13.07-3.39,100.09,100.09,0,0,1,17.34-2,1.06,1.06,0,0,0-.46-.62c-.7-.65-1.41-1.27-2.14-1.88C78.89,56.36,77.15,54.45,76.41,54.54Z"/>
        <path class="cls-1" d="M76.36,58.72c-9,1-17.82,2.27-26.53,4.94A149.27,149.27,0,0,0,28.45,72,161.52,161.52,0,0,0,13,80.64l-3.22,2A22.06,22.06,0,0,1,.13,86.27c-.64.13,1.29.7,1,.62.84.27,2.41,1,3.32.85a29.23,29.23,0,0,0,6.73-2.09c3.24-1.48,6.24-3.55,9.31-5.34A138.69,138.69,0,0,1,45,68.76L53.54,66a117.84,117.84,0,0,1,26.07-4.51,16.59,16.59,0,0,0-1.48-1.55C77.79,59.65,76.91,58.65,76.36,58.72Z"/>
        <path class="cls-1" d="M77,57.79c-9,1-17.86,2.2-26.61,4.87A148.51,148.51,0,0,0,29,71a162.23,162.23,0,0,0-15.4,8.61C9.43,82.14,5.65,84.17.7,85.18c-.19,0-.27.06-.06.19A9.31,9.31,0,0,0,3,86.22c1.13.36,3,1.33,4.21,1.07a14.59,14.59,0,0,0,4.94-1.36A31.43,31.43,0,0,0,17,83.62c4.7-2.49,9.21-5.33,14-7.65a140.27,140.27,0,0,1,25.05-9.56L64.8,64.3a103.08,103.08,0,0,1,17.33-2.11s-2.43-2.36-2.44-2.37C79.3,59.49,77.68,57.71,77,57.79Z"/>
        <path class="cls-1" d="M77,56.39A92,92,0,0,0,63.67,58.2a98,98,0,0,0-13.28,3.1A134.76,134.76,0,0,0,24.9,71.62l-8,4.56q-3.15,2.1-6.4,4L7.23,81.94a20.23,20.23,0,0,1-6.66,2,1.16,1.16,0,0,0,.7.4c.92.32,1.86.63,2.8.91s2.61,1.11,3.62.89a15.29,15.29,0,0,0,4.93-1.38,31.87,31.87,0,0,0,4.88-2.29c4.72-2.46,9.31-5.26,14.11-7.54a142.29,142.29,0,0,1,25.13-9.45l8.73-2.08a104,104,0,0,1,17.32-2,1.13,1.13,0,0,0-.49-.65c-.74-.68-1.49-1.34-2.26-2C79.63,58.34,77.78,56.31,77,56.39Z"/>
        <path class="cls-1" d="M76.5,58.19c-9,1-17.86,2.23-26.6,4.9a148.77,148.77,0,0,0-21.38,8.32A161.26,161.26,0,0,0,13.11,80L9.89,82A26.67,26.67,0,0,1,.2,85.66c-.7.14,1.5.79,1.25.71.86.27,1.72.54,2.58.79a6,6,0,0,0,1.37.31,30.37,30.37,0,0,0,6.79-2.09c4.59-2,8.87-5,13.27-7.37A138.16,138.16,0,0,1,50.21,67.44a105.84,105.84,0,0,1,13-3.52,104.79,104.79,0,0,1,17.37-2.24c.06,0-1.93-1.93-1.9-1.91C78.33,59.46,77.13,58.12,76.5,58.19Z"/>
        <path class="cls-1" d="M77.15,55.72c-9.05,1-17.86,2.24-26.6,4.91A148.86,148.86,0,0,0,29.17,69a159,159,0,0,0-15.39,8.64l-3.21,2A26.09,26.09,0,0,1,.85,83.23c-.7.14,1.5.76,1.24.67.84.26,1.69.51,2.54.73A5.69,5.69,0,0,0,6,84.91a30.88,30.88,0,0,0,6.7-2.1c4.65-2.06,9.05-4.88,13.54-7.27a141.66,141.66,0,0,1,25-10.41A107.18,107.18,0,0,1,64.32,61.7a101.32,101.32,0,0,1,17.35-2.13s-2.13-2.1-2.12-2.09C79.18,57.16,77.82,55.65,77.15,55.72Z"/>
        <path class="cls-1" d="M76.85,57.08a92,92,0,0,0-13.33,1.79A99.53,99.53,0,0,0,50.24,62,134,134,0,0,0,24.73,72.28l-8,4.54c-2.11,1.4-4.24,2.75-6.41,4.05L7,82.58a20.14,20.14,0,0,1-6.64,2,1.12,1.12,0,0,0,.69.39c.92.33,1.85.63,2.79.91s2.6,1.1,3.61.89a15,15,0,0,0,4.94-1.37,31.38,31.38,0,0,0,4.87-2.3C22,80.61,26.54,77.8,31.34,75.5A141.84,141.84,0,0,1,56.42,66l8.71-2.09a103,103,0,0,1,17.32-2.07,1.13,1.13,0,0,0-.47-.63c-.72-.66-1.44-1.3-2.19-1.92C79.39,59,77.61,57,76.85,57.08Z"/>
        <path class="cls-1" d="M77.31,57.92c-9,1-17.85,2.23-26.58,4.89a149.78,149.78,0,0,0-21.37,8.31A161.1,161.1,0,0,0,14,79.74l-3.21,2a26.42,26.42,0,0,1-9.7,3.65c-.69.14,1.42.77,1.18.68.81.27,1.63.52,2.45.75a5.31,5.31,0,0,0,1.3.29A30.15,30.15,0,0,0,12.74,85c4.61-2,8.92-5,13.35-7.36A138.28,138.28,0,0,1,50.91,67.08a104.92,104.92,0,0,1,13-3.5,105.85,105.85,0,0,1,17.38-2.24c.06,0-1.89-1.89-1.87-1.87C79.11,59.16,77.94,57.85,77.31,57.92Z"/>
        <path class="cls-1" d="M77,58.52c-7.89.89-9.84.91-17.69,2.65a131.82,131.82,0,0,0-26.06,8.61A167.46,167.46,0,0,0,13.69,80.44l-3.21,2A22.21,22.21,0,0,1,.79,86.06c-.62.13,1.16.67.93.59.78.25,2.19.93,3,.76a28.31,28.31,0,0,0,6.69-2.1c3.27-1.49,6.28-3.56,9.37-5.36a138.48,138.48,0,0,1,24.5-11.57l8.6-2.76A118.37,118.37,0,0,1,80,61.11a12.59,12.59,0,0,0-1.38-1.46C78.34,59.37,77.54,58.46,77,58.52Z"/>
      </g>
      <g>
        <path class="cls-1" d="M217.8,77.38l8.75,14.06s.67-2.72.67-2.73c.09-.58.6-2.19.23-2.8L219,72s-.84,2.67-.83,2.66C218.09,75.12,217.45,76.82,217.8,77.38Z"/>
        <path class="cls-1" d="M218.29,78.84l8.76,14.1a.92.92,0,0,0,.29-.65c.18-.85.33-1.71.47-2.57.11-.62.74-2.62.33-3.29l-8.39-14s-.94,3.12-.95,3.14C218.68,76.13,217.9,78.22,218.29,78.84Z"/>
        <path class="cls-1" d="M217.53,76.85l8.71,14c.27.44.44-.85.43-.8.09-.52.56-2,.25-2.5l-8.45-14c-.26-.43-.49.77-.49.77C217.86,74.83,217.25,76.4,217.53,76.85Z"/>
        <path class="cls-1" d="M217.49,81.22l8.8,14.11a1.14,1.14,0,0,0,.3-.75c.19-1,.36-1.93.51-2.9.1-.67.81-3,.37-3.71l-8.33-14a1.11,1.11,0,0,0-.34.72c-.25.94-.49,1.89-.7,2.84C218,78.12,217.07,80.55,217.49,81.22Z"/>
        <path class="cls-1" d="M217.77,79.46l8.79,14.09a1.26,1.26,0,0,0,.31-.79c.21-1,.4-2.06.57-3.1.11-.68.9-3.19.44-4l-8.34-14a1.29,1.29,0,0,0-.36.77c-.27,1-.51,2-.74,3C218.31,76.12,217.33,78.76,217.77,79.46Z"/>
        <path class="cls-1" d="M218,77.88,226.76,92a.91.91,0,0,0,.28-.64c.18-.84.33-1.68.46-2.52.11-.62.72-2.57.32-3.24l-8.38-14s-.93,3.07-.93,3.08C218.39,75.22,217.62,77.26,218,77.88Z"/>
        <path class="cls-1" d="M217.45,80.3l8.8,14.1a1.07,1.07,0,0,0,.3-.73c.2-1,.37-1.91.53-2.87.11-.65.83-3,.39-3.68l-8.39-14a1.16,1.16,0,0,0-.34.71q-.37,1.41-.69,2.82C217.92,77.23,217,79.64,217.45,80.3Z"/>
        <path class="cls-1" d="M218.24,77.94l8.67,13.86c.29.47.47-1.06.46-1,.11-.6.7-2.48.35-3.06l-8.51-14a20,20,0,0,0-.7,2.06C218.41,76.24,217.94,77.46,218.24,77.94Z"/>
        <path class="cls-1" d="M217.77,78.63l8.77,14.09a1.07,1.07,0,0,0,.3-.72c.19-.94.37-1.89.52-2.83.11-.65.82-2.9.38-3.63l-8.36-14a1.11,1.11,0,0,0-.34.7c-.24.92-.47,1.84-.68,2.77C218.24,75.6,217.36,78,217.77,78.63Z"/>
        <path class="cls-1" d="M218.25,79.83,227,93.93a1.06,1.06,0,0,0,.29-.71q.28-1.38.51-2.76c.11-.65.8-2.84.37-3.55l-8.39-14a1,1,0,0,0-.33.68c-.24.9-.47,1.8-.67,2.71C218.7,76.88,217.84,79.18,218.25,79.83Z"/>
        <path class="cls-1" d="M218.17,81,227,95.05a1.06,1.06,0,0,0,.29-.71c.18-.92.35-1.85.49-2.78.1-.66.78-2.84.35-3.56l-8.34-14a1.07,1.07,0,0,0-.33.69c-.25.9-.47,1.8-.67,2.72C218.62,78,217.76,80.3,218.17,81Z"/>
      </g>
      <g>
        <path class="cls-1" d="M226.88,57A4.74,4.74,0,0,0,228.63,60a13.92,13.92,0,0,0,3.71,2.29,67.7,67.7,0,0,0,10.2,3.12A119.43,119.43,0,0,0,257.42,68a29.88,29.88,0,0,1,5.29,1,7.8,7.8,0,0,1,5.15,3.81c.44.58-.36-1.7-.22-1.34-.37-1-.79-2.81-1.58-3.54a14.92,14.92,0,0,0-6.18-3.62A38.42,38.42,0,0,0,255,63.21a56.83,56.83,0,0,1-7.52-1.6,101.57,101.57,0,0,1-12-3.25,7.48,7.48,0,0,1-1.89-1.43,6.13,6.13,0,0,1-2.12-1.73,3.79,3.79,0,0,1-.73-2.57c0-.05-2.11,2.08-2.09,2C228.46,54.9,226.71,56.52,226.88,57Z"/>
        <path class="cls-1" d="M227.31,58.47a4.88,4.88,0,0,0,1.76,3,14.51,14.51,0,0,0,3.78,2.35,71,71,0,0,0,10.29,3.09,119.83,119.83,0,0,0,14.91,2.6,29.88,29.88,0,0,1,5.29,1,7.51,7.51,0,0,1,5.09,3.82c.49.66-.5-2-.34-1.61-.38-1-.78-1.92-1.19-2.87a7.84,7.84,0,0,0-.72-1.45A15.14,15.14,0,0,0,260,64.75a39,39,0,0,0-4.78-1.11A58.47,58.47,0,0,1,247.8,62a95.26,95.26,0,0,1-11.64-3.16,5.94,5.94,0,0,1-1.76-1.21,5.8,5.8,0,0,1-2.16-1.53,3.22,3.22,0,0,1-.75-2.42S229.22,56,229.24,56C229.05,56.16,227.13,58,227.31,58.47Z"/>
        <path class="cls-1" d="M226.45,56.46a4.84,4.84,0,0,0,1.77,3l1.72,1.27c2.73,1.81,6.17,2.57,9.27,3.42A98.45,98.45,0,0,0,256,67.49a40.75,40.75,0,0,1,6.68,1.06A8.72,8.72,0,0,1,268,72.42c.34.45-.12-1.14,0-.89a6.31,6.31,0,0,0-1-2.21,9.76,9.76,0,0,0-3.59-2.81,16.2,16.2,0,0,0-4.76-1.4c-1.81-.34-3.58-.47-5.4-.75q-4.25-.86-8.48-1.82a42.34,42.34,0,0,1-12.2-4.2,6.55,6.55,0,0,1-3.42-4.88c0-.18-1.53,1.41-1.48,1.36C227.41,55,226.3,56,226.45,56.46Z"/>
        <path class="cls-1" d="M226.3,60.68a4.87,4.87,0,0,0,1.81,3L229.93,65c2.8,1.82,6.41,2.43,9.57,3.29a93.19,93.19,0,0,0,16.62,3.24c4.5.39,8.85.77,11.82,5,.48.69-.57-2.11-.39-1.67q-.62-1.52-1.29-3a8.54,8.54,0,0,0-.76-1.51,14.8,14.8,0,0,0-6.16-3.49,40.29,40.29,0,0,0-4.85-1.17A55.53,55.53,0,0,1,247.07,64a95.1,95.1,0,0,1-11.7-3.33,5.91,5.91,0,0,1-1.62-1.32,5.56,5.56,0,0,1-2.12-1.52,3,3,0,0,1-.69-2.38,1,1,0,0,0-.61.44c-.64.67-1.27,1.36-1.87,2C228.27,58.11,226.11,60.13,226.3,60.68Z"/>
        <path class="cls-1" d="M226.76,59.06a4.86,4.86,0,0,0,1.8,3l1.77,1.29c2.73,1.78,6.26,2.39,9.35,3.24a93.35,93.35,0,0,0,16.48,3.27c4.47.42,8.78.83,11.78,5,.53.73-.63-2.3-.44-1.84-.45-1.1-.91-2.2-1.39-3.3a11.24,11.24,0,0,0-.82-1.67A15.82,15.82,0,0,0,259,64.43c-3.88-1.24-8-1.92-11.93-3a87.73,87.73,0,0,1-11.21-3.29A4.62,4.62,0,0,1,234.46,57a4.89,4.89,0,0,1-2-1.46,3.07,3.07,0,0,1-.6-2.34,1.29,1.29,0,0,0-.67.49c-.7.75-1.39,1.51-2.06,2.29C229,56.2,226.55,58.49,226.76,59.06Z"/>
        <path class="cls-1" d="M227.09,57.58a4.81,4.81,0,0,0,1.76,2.94,14.36,14.36,0,0,0,3.73,2.31,70.49,70.49,0,0,0,10.19,3.07,120.66,120.66,0,0,0,14.84,2.62,29.33,29.33,0,0,1,5.27,1A7.69,7.69,0,0,1,268,73.32c.48.64-.48-2-.32-1.55-.37-.93-.75-1.85-1.15-2.77a7.24,7.24,0,0,0-.7-1.39A15.44,15.44,0,0,0,259.61,64a37.26,37.26,0,0,0-4.78-1.12,59.63,59.63,0,0,1-7.38-1.65A93.78,93.78,0,0,1,235.81,58a5.89,5.89,0,0,1-1.68-1.29,5.49,5.49,0,0,1-2-1.59,3.38,3.38,0,0,1-.68-2.45L229.09,55C228.9,55.19,226.91,57.05,227.09,57.58Z"/>
        <path class="cls-1" d="M226.32,59.84a4.86,4.86,0,0,0,1.82,3,14.57,14.57,0,0,0,3.91,2.36,80.14,80.14,0,0,0,10.42,3,114.62,114.62,0,0,0,14.93,2.52,27.26,27.26,0,0,1,5.29,1,7.42,7.42,0,0,1,5.09,3.88c.49.68-.53-2.1-.36-1.67-.4-1-.81-2-1.24-3a8.75,8.75,0,0,0-.75-1.5,15,15,0,0,0-6.15-3.54,39.7,39.7,0,0,0-4.81-1.18A61.1,61.1,0,0,1,247,63a94.07,94.07,0,0,1-11.52-3.31,6,6,0,0,1-1.66-1.31,5.59,5.59,0,0,1-2.11-1.56,3.13,3.13,0,0,1-.68-2.41,1,1,0,0,0-.63.45c-.66.68-1.29,1.38-1.91,2.1C228.34,57.2,226.12,59.29,226.32,59.84Z"/>
        <path class="cls-1" d="M227.1,57.5a4.81,4.81,0,0,0,1.78,3l1.74,1.25c2.74,1.78,6.19,2.52,9.28,3.36a99.34,99.34,0,0,0,16.74,3.3c1.41.12,2.8.29,4.2.52a9.77,9.77,0,0,1,7.7,4.41c.39.51-.26-1.43-.14-1.12a8.61,8.61,0,0,0-1.33-2.9A13.75,13.75,0,0,0,261,65.64a37.66,37.66,0,0,0-5-1,49.26,49.26,0,0,1-7.68-1.45,108.66,108.66,0,0,1-12.59-3.12,9.85,9.85,0,0,1-2.3-1.46,7.3,7.3,0,0,1-2.43-1.8,3.93,3.93,0,0,1-1-2.62c0-.16-1.65,1.55-1.61,1.5C228.19,55.93,226.94,57.06,227.1,57.5Z"/>
        <path class="cls-1" d="M226.81,58.3a4.85,4.85,0,0,0,1.78,3,14.87,14.87,0,0,0,3.79,2.31,77.63,77.63,0,0,0,10.23,3,120.91,120.91,0,0,0,14.84,2.59,27.83,27.83,0,0,1,5.27,1A7.57,7.57,0,0,1,267.84,74c.5.68-.55-2.14-.38-1.7-.41-1-.83-2-1.27-3a8.39,8.39,0,0,0-.76-1.53,15.72,15.72,0,0,0-6.25-3.58c-3.92-1.23-8.07-1.87-12.05-2.88a90.52,90.52,0,0,1-11.4-3.3,5.22,5.22,0,0,1-1.52-1.25,5.18,5.18,0,0,1-2-1.53,3.23,3.23,0,0,1-.62-2.4,1.07,1.07,0,0,0-.63.46c-.66.69-1.31,1.4-1.94,2.13C228.87,55.63,226.61,57.75,226.81,58.3Z"/>
        <path class="cls-1" d="M227.22,59.36a5,5,0,0,0,1.78,3,14.52,14.52,0,0,0,3.83,2.4,75.11,75.11,0,0,0,10.38,3.09,122.43,122.43,0,0,0,14.94,2.57,28,28,0,0,1,5.3,1,7.38,7.38,0,0,1,5.07,3.84c.5.7-.56-2.16-.38-1.71-.41-1-.84-2.05-1.28-3.07a9,9,0,0,0-.77-1.55,15,15,0,0,0-6.21-3.59,36.85,36.85,0,0,0-4.75-1.13,61.55,61.55,0,0,1-7.36-1.63,93.48,93.48,0,0,1-11.52-3.17,5.61,5.61,0,0,1-1.72-1.16,5.71,5.71,0,0,1-2.18-1.48,3.06,3.06,0,0,1-.76-2.37l-2.35,2.34C229.06,56.94,227,58.83,227.22,59.36Z"/>
        <path class="cls-1" d="M227,60.4a5,5,0,0,0,1.78,3,14.52,14.52,0,0,0,3.9,2.41A73.42,73.42,0,0,0,243.2,69a118.08,118.08,0,0,0,15,2.55,27.56,27.56,0,0,1,5.32,1,7.29,7.29,0,0,1,5,3.85c.49.7-.57-2.14-.39-1.7-.42-1-.86-2-1.3-3a8.47,8.47,0,0,0-.78-1.53,14.54,14.54,0,0,0-6.19-3.53,36.25,36.25,0,0,0-4.82-1.13,53.19,53.19,0,0,1-7.38-1.66A97.07,97.07,0,0,1,236,60.58a6,6,0,0,1-1.71-1.21,5.89,5.89,0,0,1-2.21-1.46,3,3,0,0,1-.76-2.34S229,57.86,229,57.84C228.81,58.06,226.86,59.87,227,60.4Z"/>
      </g>
    </g>
  </g>
</svg>
