<svg id="Layer_1" data-name="Layer 1" xmlns="http://www.w3.org/2000/svg" xmlns:xlink="http://www.w3.org/1999/xlink" viewBox="0 0 1024 600"><defs><style>.cls-1,.cls-2,.cls-22,.cls-37,.cls-44,.cls-57{fill:none;}.cls-2,.cls-50,.cls-51,.cls-52{stroke:#dbdbdb;}.cls-2,.cls-42,.cls-43{stroke-miterlimit:10;}.cls-2,.cls-42,.cls-43,.cls-44,.cls-48,.cls-50,.cls-51,.cls-52,.cls-53{stroke-width:0.87px;}.cls-3{clip-path:url(#clip-path);}.cls-4{fill:#38a4fc;}.cls-5{fill:#73c9fe;}.cls-6{fill:#f7931e;}.cls-7{clip-path:url(#clip-path-2);}.cls-8{fill:#f15a24;}.cls-9{fill:#d4555e;}.cls-10{fill:#510706;}.cls-11{clip-path:url(#clip-path-3);}.cls-12{clip-path:url(#clip-path-4);}.cls-13{clip-path:url(#clip-path-5);}.cls-14{clip-path:url(#clip-path-6);}.cls-15{clip-path:url(#clip-path-7);}.cls-16{clip-path:url(#clip-path-8);}.cls-17{clip-path:url(#clip-path-9);}.cls-18,.cls-21{fill:#a81307;}.cls-19{fill:#fff;}.cls-20{fill:#231f20;}.cls-21,.cls-22,.cls-36,.cls-37{stroke:#a81307;}.cls-21,.cls-22,.cls-36,.cls-37,.cls-44,.cls-48,.cls-50,.cls-51,.cls-52,.cls-53,.cls-57{stroke-linecap:round;stroke-linejoin:round;}.cls-21{stroke-width:0.21px;}.cls-22{stroke-width:0.57px;}.cls-23{clip-path:url(#clip-path-10);}.cls-24{fill:#fa4316;}.cls-25{fill:#93278f;}.cls-26{clip-path:url(#clip-path-11);}.cls-27{fill:#fc9a8d;}.cls-28{clip-path:url(#clip-path-12);}.cls-29{clip-path:url(#clip-path-13);}.cls-30{clip-path:url(#clip-path-14);}.cls-31{clip-path:url(#clip-path-15);}.cls-32{clip-path:url(#clip-path-16);}.cls-33{clip-path:url(#clip-path-17);}.cls-34{clip-path:url(#clip-path-18);}.cls-35,.cls-36{fill:#2f009a;}.cls-36{stroke-width:0.35px;}.cls-37{stroke-width:0.69px;}.cls-38{clip-path:url(#clip-path-19);}.cls-39{clip-path:url(#clip-path-20);}.cls-40{fill:#dbdbdb;}.cls-41{fill:#f2f2f2;}.cls-42,.cls-45{fill:#dd4e36;}.cls-42,.cls-43,.cls-57{stroke:#e6e6e6;}.cls-43,.cls-47{fill:#ccc;}.cls-44{stroke:#fff;}.cls-46{fill:#e6e6e6;}.cls-48,.cls-50{fill:#03d6fc;}.cls-48{stroke:#03d6fc;}.cls-49{clip-path:url(#clip-path-21);}.cls-51,.cls-53{fill:#49e1fc;}.cls-52{fill:#7ee9fc;}.cls-53{stroke:#49e1fc;}.cls-54{clip-path:url(#clip-path-22);}.cls-55{clip-path:url(#clip-path-23);}.cls-56{clip-path:url(#clip-path-24);}.cls-57{stroke-width:1.67px;}.cls-58{fill:#5ea8ff;}.cls-59{clip-path:url(#clip-path-25);}.cls-60{fill:#e61e0c;}.cls-61{fill:#a31508;}.cls-62{fill:#fcee21;}.cls-63{fill:#c61a0a;}.cls-64{fill:#ff2127;}.cls-65{fill:#2674cf;}.cls-66{fill:#d3b05f;}.cls-67{fill:#2c2e7a;}.cls-68{fill:#2fb34c;}.cls-69{fill:#f16939;}.cls-70{fill:#4c90cd;}.cls-71{fill:#c6a459;}.cls-72{fill:#8b683d;}.cls-73{fill:#dfbc6d;}.cls-74{fill:#b8b282;}.cls-75{fill:#4c3422;}.cls-76{fill:#cca348;}.cls-77{clip-path:url(#clip-path-26);}.cls-78{fill:#d3b266;}.cls-79{fill:#040404;}.cls-80{fill:#fde3ba;}.cls-81{fill:#600b0c;}.cls-82{fill:#d42027;}.cls-83{fill:#4e2a21;}.cls-84{fill:#bc9c39;}.cls-85{fill:#729e00;}.cls-86{fill:#5f8400;}.cls-87{fill:#5f8300;}.cls-88{fill:#fefefe;}.cls-89{fill:#262626;}.cls-90{fill:#fdfdfd;}.cls-91{fill:#628602;}.cls-92{fill:#506f00;}.cls-93{fill:#739f00;}.cls-94{fill:#db9a00;}.cls-95{fill:#00a6b2;}.cls-96{fill:#da9b03;}.cls-97{fill:#2a2825;}.cls-98{fill:#d79d0b;}.cls-99{fill:#bda93c;}.cls-100{fill:#ae9f2b;}.cls-101{fill:#17595e;}</style><clipPath id="clip-path"><rect id="SVGID" class="cls-1" width="1024" height="600"/></clipPath><clipPath id="clip-path-2"><path id="SVGID-2" data-name="SVGID" class="cls-1" d="M906.8,488.83a1.44,1.44,0,0,0-.79-2.37c-1.1-.16-.25-2,2.28-1.67s8,3.76,2.57,9-18.77,0-23.15-2.71c-2.83-1.51-22.45,3.31-21.16-4.31,0,0,3.23-6,9.35-5.24"/></clipPath><clipPath id="clip-path-3"><path id="SVGID-3" data-name="SVGID" class="cls-1" d="M894.67,507.74a1.44,1.44,0,0,0,.32-2.47c-.93-.62.66-2,2.77-.53s5.57,6.84-1.57,9.23-17-8.07-19.71-12.45c-1.9-2.59-21.67-6.72-17.21-13,0,0,5.51-4,10.69-.68"/></clipPath><clipPath id="clip-path-4"><path id="SVGID-4" data-name="SVGID" class="cls-1" d="M878.45,520a1.45,1.45,0,0,0,1.2-2.19c-.64-.91,1.33-1.58,2.77.53s2.67,8.42-4.85,8-12.8-13.73-13.76-18.82c-.81-3.11-17.69-14.21-11.23-18.45,0,0,6.61-1.72,10.2,3.29"/></clipPath><clipPath id="clip-path-5"><path id="SVGID-5" data-name="SVGID" class="cls-1" d="M856.58,527.78a1.44,1.44,0,0,0,2.17-1.21c0-1.12,2-.63,2.07,1.92s-2.21,8.55-8.37,4.21-3.54-18.44-1.64-23.26c1-3.06-7.44-21.43.29-21.59,0,0,6.51,2,6.89,8.21"/></clipPath><clipPath id="clip-path-6"><path id="SVGID-6" data-name="SVGID" class="cls-1" d="M798.82,459.57a1.44,1.44,0,0,1,1.87-1.64c1,.42,1.25-1.65-1.12-2.6s-8.79-.78-6.77,6.48,16.19,9.52,21.36,9.35c3.21.12,17.7,14.18,20.44,7,0,0,.25-6.83-5.42-9.24"/></clipPath><clipPath id="clip-path-7"><path id="SVGID-7" data-name="SVGID" class="cls-1" d="M799.74,482a1.44,1.44,0,0,1,1-2.29c1.11-.07.42-2-2.13-1.86s-8.27,3.1-3.31,8.77,18.71,1.58,23.3-.81c2.95-1.27,22.1,5.14,21.44-2.56,0,0-2.72-6.26-8.88-6"/></clipPath><clipPath id="clip-path-8"><path id="SVGID-8" data-name="SVGID" class="cls-1" d="M807.54,500.83a1.44,1.44,0,0,1,.06-2.49c1-.48-.35-2-2.66-.95s-6.55,5.92.14,9.37,18-5.39,21.38-9.3c2.27-2.27,22.44-3.33,19-10.25,0,0-4.84-4.83-10.47-2.31"/></clipPath><clipPath id="clip-path-9"><path id="SVGID-9" data-name="SVGID" class="cls-1" d="M822.51,518.55a1.44,1.44,0,0,1-1.27-2.14c.61-.94-1.38-1.54-2.75.61s-2.41,8.49,5.1,7.86,12.36-14.13,13.16-19.24c.72-3.13,17.23-14.76,10.65-18.79,0,0-6.67-1.52-10.1,3.61"/></clipPath><clipPath id="clip-path-10"><path id="SVGID-10" data-name="SVGID" class="cls-1" d="M841.87,470.52a23.55,23.55,0,0,0,22.35,6.05S847.8,492.93,841.87,470.52Z"/></clipPath><clipPath id="clip-path-11"><path id="SVGID-11" data-name="SVGID" class="cls-1" d="M98,475.83a2.54,2.54,0,0,1,1.65-4.06c2-.16.67-3.59-3.81-3.2s-14.45,5.72-5.54,15.54,53.41.54,61.42-3.83c5.14-2.34,54.17,11.34,52.77-2.2,0,0-7.81-15.78-18.65-15.09"/></clipPath><clipPath id="clip-path-12"><path id="SVGID-12" data-name="SVGID" class="cls-1" d="M111.05,513.55a2.55,2.55,0,0,1,.18-4.39c1.79-.8-.58-3.59-4.67-1.71s-11.67,10.26,0,16.49,50.44-17.55,56.5-24.37c4.06-3.94,54.82-7.65,48.92-19.91,0,0-12.68-12.21-22.65-7.9"/></clipPath><clipPath id="clip-path-13"><path id="SVGID-13" data-name="SVGID" class="cls-1" d="M145.7,555.18a2.55,2.55,0,0,1-2-3.91c1.16-1.58-2.28-2.84-4.91.82s-5.07,14.69,8.19,14.32,35.19-40.17,37.1-49.09c1.57-5.43,43.89-33.72,32.7-41.47,0,0-17.05-4.35-23.6,4.32"/></clipPath><clipPath id="clip-path-14"><path id="SVGID-14" data-name="SVGID" class="cls-1" d="M335,427.58a2.54,2.54,0,0,0-3.11-3.1c-1.86.62-2-3,2.27-4.44s15.53-.39,11.17,12.14-48.94,21.38-58,20.5c-5.65-.14-45.42,31.62-49.43,18.61,0,0,1-17.57,11.26-21.18"/></clipPath><clipPath id="clip-path-15"><path id="SVGID-15" data-name="SVGID" class="cls-1" d="M337.72,467.38a2.54,2.54,0,0,0-1.87-4c-2,0-.88-3.54,3.62-3.41s14.76,4.89,6.41,15.2-53.29,3.58-61.53-.32c-5.27-2.05-53.44,14.4-52.81.8,0,0,6.9-16.19,17.76-16.13"/></clipPath><clipPath id="clip-path-16"><path id="SVGID-16" data-name="SVGID" class="cls-1" d="M322.12,519.24a2.54,2.54,0,0,0,.32-4.38c-1.68-1,1-3.5,4.84-1.17s10.42,11.54-1.93,16.38-48.11-23.2-53.35-30.66c-3.57-4.38-53.58-13.87-46.32-25.37,0,0,14-10.68,23.41-5.26"/></clipPath><clipPath id="clip-path-17"><path id="SVGID-17" data-name="SVGID" class="cls-1" d="M204.67,563.23a2.55,2.55,0,0,1-3.74-2.3c.17-2-3.42-1.26-3.79,3.23s3.25,15.2,14.41,8,7.49-48.41,4.52-57c-.62-5.46,15.18-40.92.56-41.79,0,0-11.62,3.12-12.74,13.92"/></clipPath><clipPath id="clip-path-18"><path id="SVGID-18" data-name="SVGID" class="cls-1" d="M270.24,549.87a2.54,2.54,0,0,0,2.54-3.58c-.92-1.73,2.66-2.49,4.75,1.5s3,15.25-10.12,13S241.58,519.19,241,510.09c-1.57-5.26-30-31.72-16.87-38.24,0,0,11.91-1.67,17.17,7.83"/></clipPath><clipPath id="clip-path-19"><path id="SVGID-19" data-name="SVGID" class="cls-1" d="M203.35,460A28.69,28.69,0,0,0,231,454.42S222,481.19,203.35,460Z"/></clipPath><clipPath id="clip-path-20"><path id="SVGID-20" data-name="SVGID" class="cls-1" d="M811.92,241.44s-122.55-6.17-138.35,8.38c-.74.67.8,4.78-3.47,6.16-2.34.76-13.68.1-16.83,1-34.87,10.17-109.63,27.57-111.17,31-1.94,4.25,12.21,17.77,15.79,23.25s23.36,33.86,27.25,35.36,239.27,1.13,290.21-5.29c7.68-1-6.07-34.9-8.06-35S833,293.93,832.78,291.91l-.24-2s14,.29,15-2.83-.68-11.66-7.69-14.21-31.45-7.27-30.31-16.78c12.8.2,35.23-.05,35.23-.05l.28-3.58Z"/></clipPath><clipPath id="clip-path-21"><path id="SVGID-21" data-name="SVGID" class="cls-2" d="M673.57,249.82s-2,6.72,43.15,8.79c40.28,1.84,64.52,1.85,69.26,1.83a1.11,1.11,0,0,1,1.09.82l2.62,9.25a1.14,1.14,0,0,1-1.08,1.45c-10.81,0-77.7.2-107-3.37C659.11,265.85,648.4,264.71,673.57,249.82Z"/></clipPath><clipPath id="clip-path-22"><path id="SVGID-22" data-name="SVGID" class="cls-2" d="M603.64,305.54c0-2.74,0-3.3,22.73-6.8,5-.77,161.31-2.26,177.59-2.42a1.86,1.86,0,0,1,1.79,1.3l2.24,6.91a1.88,1.88,0,0,1-1.75,2.45L658,309.52a7.31,7.31,0,0,1-4.29-1.31l-1.06-.74a7.26,7.26,0,0,0-4.25-1.31c-4.57.06-15.1.23-24.81.58C613.12,307.13,603.62,307.59,603.64,305.54Z"/></clipPath><clipPath id="clip-path-23"><path id="SVGID-23" data-name="SVGID" class="cls-1" d="M805.65,259.33s1.43,8.88,4.2,12.29l-7.08-.56-5.25-11.46Z"/></clipPath><clipPath id="clip-path-24"><path id="SVGID-24" data-name="SVGID" class="cls-1" d="M814.74,294.46s1.61,8.11,4.28,10.34l-8.85-.69-4.43-10.31Z"/></clipPath><clipPath id="clip-path-25"><path id="SVGID-25" data-name="SVGID" class="cls-1" d="M369.68,323.93h0a1.33,1.33,0,0,1,1.3-1.36l3-.07a1.37,1.37,0,0,1,.77.23l6.56,4.44a1.33,1.33,0,0,1,.45,1.69l-7.56,15.05a1.31,1.31,0,0,1-1,.72c-7,1.07-66.09,9.93-88.83,3.15-21-6.27-23.3-28.66-23.54-34.4a1.33,1.33,0,0,1,1.29-1.38l4.11-.09a1.31,1.31,0,0,1,1.35,1.29l.05,1.82a1.32,1.32,0,0,0,1.38,1.3l85.55-3.88a1.28,1.28,0,0,1,.61.12l5.78,2.62a1.35,1.35,0,0,1,.78,1.18l.11,5.11a1.34,1.34,0,0,0,.74,1.16l5.16,2.52A1.33,1.33,0,0,0,369.68,323.93Z"/></clipPath><clipPath id="clip-path-26"><path id="SVGID-26" data-name="SVGID" class="cls-1" d="M324.67,282.48a3.73,3.73,0,0,1-.64.73,21.41,21.41,0,0,0-1.76,2.48,18.13,18.13,0,0,1-1.8,2.38,4.62,4.62,0,0,0-1.09,2.06c0,.16,0,.34-.18.44-1.51-1.43-2.65-3.08-2.52-5.26a5.55,5.55,0,0,1,2.9-4.81,3.13,3.13,0,0,1,4,.72C324,281.63,324.31,282.06,324.67,282.48Z"/></clipPath></defs><title>20_bobbing_togethe</title><g class="cls-3"><rect class="cls-4" x="-26" y="249" width="1098" height="322"/><path class="cls-5" d="M1077.85,608.19c-88.41,22.3-92.74-12.57-183.93-12.57s-91.18,12.76-182.36,12.76-91.18-12.76-182.37-12.76S438,608.38,346.83,608.38s-91.19-12.76-182.37-12.76S73.27,608.38-17.92,608.38s-92.39,9.73-180.81-12.57c-22.3-5.62-7.94-16.81-7.94-39.81s12.76-23,12.76-46-12.76-23-12.76-46,12.76-23,12.76-46-12.76-23-12.76-46,12.76-23,12.76-46-30.25-46.56-7.94-52.19c88.41-22.3,92.74,12.57,183.93,12.57s91.18-12.76,182.36-12.76,91.18,12.76,182.37,12.76S438,273.62,529.17,273.62s91.19,12.76,182.37,12.76,91.19-12.76,182.38-12.76,92.39-9.73,180.81,12.57c22.3,5.62,7.94,16.81,7.94,39.81s-12.76,23-12.76,46,12.76,23,12.76,46-12.76,23-12.76,46,12.76,23,12.76,46-18.3,25.33-12.56,47.6C1077.41,585.9,1100.16,602.56,1077.85,608.19Z"/><path class="cls-4" d="M1215.78,668.38c-68.77,17.35-74-25.15-145-25.15S999.9,668.77,929,668.77s-70.92-25.54-141.84-25.54-70.92,25.54-141.84,25.54-70.92-25.54-141.84-25.54-70.92,25.54-141.85,25.54-70.92-25.54-141.84-25.54-70.92,25.54-141.85,25.54S8,661-60.8,643.62c-17.35-4.37-15.89-5.51-15.89-23.4s25.53-17.88,25.53-35.77-25.53-17.89-25.53-35.77,25.53-17.89,25.53-35.78S-76.69,495-76.69,477.12s25.53-17.89,25.53-35.78-25.53-17.88-25.53-35.77,25.53-17.9,25.53-35.79S-84.4,326-67,321.62c68.77-17.35,74,25.15,145,25.15s70.91-25.54,141.83-25.54,70.92,25.54,141.84,25.54,70.92-25.54,141.84-25.54,70.92,25.54,141.84,25.54,70.93-25.54,141.85-25.54S858,346.77,929,346.77s70.92-25.54,141.85-25.54,70,7.8,138.73,25.15c17.34,4.37,15.88,5.51,15.88,23.4s-25.53,17.88-25.53,35.77,25.53,17.89,25.53,35.77-25.53,17.89-25.53,35.78,25.53,17.89,25.53,35.78-25.53,17.89-25.53,35.78,25.53,17.88,25.53,35.77-29.58,21.64-25.13,39C1206.88,649,1233.13,664,1215.78,668.38Z"/><path class="cls-5" d="M1121.77,725.38c-61.89,15.61-67-25.15-130.78-25.15s-63.83,25.54-127.66,25.54-63.83-25.54-127.65-25.54S671.85,725.77,608,725.77s-63.83-25.54-127.66-25.54-63.83,25.54-127.65,25.54-63.83-25.54-127.66-25.54-63.83,25.54-127.66,25.54S33.56,700.23-30.28,700.23-99.17,741-161.06,725.38c-15.61-3.94,15.89-28.48,15.89-44.58s-25.54-16.1-25.54-32.2,25.54-16.1,25.54-32.19-25.54-16.1-25.54-32.2,25.54-16.1,25.54-32.2-25.54-16.1-25.54-32.2,25.54-16.1,25.54-32.2-25.54-16.1-25.54-32.2,25.54-16.1,25.54-32.21-31.51-40.64-15.89-44.58c61.89-15.61,67,25.15,130.78,25.15s63.83-25.54,127.65-25.54S161.2,403.77,225,403.77s63.83-25.54,127.65-25.54,63.83,25.54,127.66,25.54S544.17,378.23,608,378.23s63.83,25.54,127.66,25.54,63.83-25.54,127.66-25.54S927.15,403.77,991,403.77s68.89-40.76,130.79-25.15c15.61,3.94-15.89,28.48-15.89,44.58s25.53,16.1,25.53,32.2-25.53,16.1-25.53,32.19,25.53,16.1,25.53,32.2-25.53,16.1-25.53,32.2,25.53,16.1,25.53,32.2-25.53,16.1-25.53,32.2,25.53,16.1,25.53,32.2-29.14,19.79-25.13,35.38C1112.36,707.6,1137.38,721.44,1121.77,725.38Z"/></g><path class="cls-6" d="M866.55,486.77s3.23-6,9.35-5.24,6.24-.27,11.32,1c6,1.44,13,10.55,19.58,6.35a1.44,1.44,0,0,0-.79-2.37c-1.1-.16-.25-2,2.28-1.67s8,3.76,2.57,9-18.77,0-23.15-2.71C884.88,489.57,865.26,494.39,866.55,486.77Z"/><g class="cls-7"><path class="cls-8" d="M915.08,489.17s-2.23,6.36-12.45,4.42-21-12.23-37.2-2c0,0,18.35,2.34,19.34,2.07S910.54,505.55,915.08,489.17Z"/></g><circle class="cls-9" cx="909.25" cy="494.94" r="1.44"/><circle class="cls-10" cx="908.82" cy="495.17" r="0.88"/><circle class="cls-9" cx="901.13" cy="495.8" r="1.44"/><circle class="cls-10" cx="900.7" cy="496.03" r="0.88"/><circle class="cls-9" cx="892.22" cy="493.42" r="1.44"/><circle class="cls-10" cx="891.78" cy="493.65" r="0.88"/><circle class="cls-9" cx="884.96" cy="490.88" r="1.44"/><circle class="cls-10" cx="884.53" cy="491.11" r="0.88"/><circle class="cls-9" cx="877.4" cy="491.12" r="1.44"/><circle class="cls-10" cx="876.96" cy="491.35" r="0.88"/><path class="cls-6" d="M859.27,488.48s5.51-4,10.69-.68,5.75,2.45,9.8,5.76c4.75,3.87,7.15,15.11,14.91,14.18a1.44,1.44,0,0,0,.32-2.47c-.93-.62.66-2,2.77-.53s5.57,6.84-1.57,9.23-17-8.07-19.71-12.45C874.58,498.93,854.81,494.8,859.27,488.48Z"/><g class="cls-11"><path class="cls-8" d="M902,511.63s-4.76,4.77-13.14-1.41-13.66-20.11-32.69-17.85c0,0,15.54,10,16.55,10.23S890.82,524.43,902,511.63Z"/></g><circle class="cls-9" cx="894.24" cy="514.31" r="1.44"/><circle class="cls-10" cx="893.75" cy="514.33" r="0.88"/><circle class="cls-9" cx="886.55" cy="511.57" r="1.44"/><circle class="cls-10" cx="886.06" cy="511.59" r="0.88"/><circle class="cls-9" cx="879.54" cy="505.58" r="1.44"/><circle class="cls-10" cx="879.05" cy="505.59" r="0.88"/><circle class="cls-9" cx="874.09" cy="500.15" r="1.44"/><circle class="cls-10" cx="873.6" cy="500.16" r="0.88"/><circle class="cls-9" cx="867.17" cy="497.09" r="1.44"/><circle class="cls-10" cx="866.68" cy="497.11" r="0.88"/><path class="cls-6" d="M852.58,489.13s6.61-1.72,10.2,3.29,4.45,4.39,7,8.95c3,5.35,1.09,16.69,8.66,18.67a1.45,1.45,0,0,0,1.2-2.19c-.64-.91,1.33-1.58,2.77.53s2.67,8.42-4.85,8-12.8-13.73-13.76-18.82C863,504.47,846.12,493.37,852.58,489.13Z"/><g class="cls-12"><path class="cls-8" d="M883.82,526.34s-6.17,2.69-11.7-6.13-5.33-23.72-23.85-28.6c0,0,10.77,15,11.63,15.59S868.74,534.15,883.82,526.34Z"/></g><circle class="cls-9" cx="875.63" cy="525.99" r="1.44"/><circle class="cls-10" cx="875.17" cy="525.83" r="0.88"/><circle class="cls-9" cx="869.48" cy="520.62" r="1.44"/><circle class="cls-10" cx="869.02" cy="520.46" r="0.88"/><circle class="cls-9" cx="865.16" cy="512.47" r="1.44"/><circle class="cls-10" cx="864.7" cy="512.31" r="0.88"/><circle class="cls-9" cx="862.09" cy="505.42" r="1.44"/><circle class="cls-10" cx="861.63" cy="505.26" r="0.88"/><circle class="cls-9" cx="856.77" cy="500.04" r="1.44"/><circle class="cls-10" cx="856.31" cy="499.88" r="0.88"/><path class="cls-6" d="M851.1,487.85s6.51,2,6.89,8.21,1.43,6.08,1.17,11.31c-.3,6.11-7.94,14.71-2.58,20.41a1.44,1.44,0,0,0,2.17-1.21c0-1.12,2-.63,2.07,1.92s-2.21,8.55-8.37,4.21-3.54-18.44-1.64-23.26C851.76,506.38,843.37,488,851.1,487.85Z"/><g class="cls-13"><path class="cls-8" d="M857.78,536s-6.67-1-6.66-11.41,8.1-22.93-5-36.92c0,0,1.12,18.47,1.57,19.4S840.85,534.57,857.78,536Z"/></g><circle class="cls-9" cx="851.03" cy="531.33" r="1.44"/><circle class="cls-10" cx="850.72" cy="530.94" r="0.88"/><circle class="cls-9" cx="848.67" cy="523.51" r="1.44"/><circle class="cls-10" cx="848.37" cy="523.13" r="0.88"/><circle class="cls-9" cx="849.35" cy="514.31" r="1.44"/><circle class="cls-10" cx="849.04" cy="513.92" r="0.88"/><circle class="cls-9" cx="850.49" cy="506.71" r="1.44"/><circle class="cls-10" cx="850.19" cy="506.32" r="0.88"/><circle class="cls-9" cx="848.85" cy="499.32" r="1.44"/><circle class="cls-10" cx="848.54" cy="498.94" r="0.88"/><path class="cls-6" d="M834.6,478.12s.25-6.83-5.42-9.24-5.25-3.39-10.26-4.9c-5.87-1.77-16.53,2.55-20.1-4.41a1.44,1.44,0,0,1,1.87-1.64c1,.42,1.25-1.65-1.12-2.6s-8.79-.78-6.77,6.48,16.19,9.52,21.36,9.35C817.37,471.28,831.86,485.34,834.6,478.12Z"/><g class="cls-14"><path class="cls-8" d="M791.5,455.69s-1.29,6.62,8.52,10.1,24.31,0,33.1,17.08c0,0-17-7.25-17.74-8S787.15,472.12,791.5,455.69Z"/></g><circle class="cls-9" cx="793.62" cy="463.61" r="1.44"/><circle class="cls-10" cx="793.88" cy="464.03" r="0.88"/><circle class="cls-9" cx="800.19" cy="468.45" r="1.44"/><circle class="cls-10" cx="800.45" cy="468.87" r="0.88"/><circle class="cls-9" cx="809.09" cy="470.9" r="1.44"/><circle class="cls-10" cx="809.35" cy="471.32" r="0.88"/><circle class="cls-9" cx="816.63" cy="472.37" r="1.44"/><circle class="cls-10" cx="816.89" cy="472.78" r="0.88"/><circle class="cls-9" cx="823.04" cy="476.39" r="1.44"/><circle class="cls-10" cx="823.3" cy="476.81" r="0.88"/><path class="cls-6" d="M840,483.27s-2.72-6.26-8.88-6-6.2-.78-11.37,0c-6,.95-13.8,9.44-20,4.72a1.44,1.44,0,0,1,1-2.29c1.11-.07.42-2-2.13-1.86s-8.27,3.1-3.31,8.77,18.71,1.58,23.3-.81C821.53,484.56,840.68,491,840,483.27Z"/><g class="cls-15"><path class="cls-8" d="M791.46,481.69s1.7,6.52,12,5.41,22-10.46,37.23,1.09c0,0-18.48.83-19.45.48S794.64,498.38,791.46,481.69Z"/></g><circle class="cls-9" cx="796.8" cy="487.91" r="1.44"/><circle class="cls-10" cx="797.21" cy="488.17" r="0.88"/><circle class="cls-9" cx="804.82" cy="489.43" r="1.44"/><circle class="cls-10" cx="805.23" cy="489.69" r="0.88"/><circle class="cls-9" cx="813.9" cy="487.79" r="1.44"/><circle class="cls-10" cx="814.31" cy="488.06" r="0.88"/><circle class="cls-9" cx="821.34" cy="485.85" r="1.44"/><circle class="cls-10" cx="821.75" cy="486.12" r="0.88"/><circle class="cls-9" cx="828.86" cy="486.71" r="1.44"/><circle class="cls-10" cx="829.27" cy="486.98" r="0.88"/><path class="cls-6" d="M845.47,487.21s-4.84-4.83-10.47-2.31-6,1.54-10.56,4.19c-5.29,3.1-9.37,13.84-16.9,11.74a1.44,1.44,0,0,1,.06-2.49c1-.48-.35-2-2.66-.95s-6.55,5.92.14,9.37,18-5.39,21.38-9.3C828.73,495.19,848.9,494.13,845.47,487.21Z"/><g class="cls-16"><path class="cls-8" d="M799.71,503.56s4,5.44,13.2.61,16.58-17.79,35-12.65c0,0-16.89,7.55-17.91,7.58S808.8,517.92,799.71,503.56Z"/></g><circle class="cls-9" cx="806.96" cy="507.39" r="1.44"/><circle class="cls-10" cx="807.44" cy="507.48" r="0.88"/><circle class="cls-9" cx="814.98" cy="505.86" r="1.44"/><circle class="cls-10" cx="815.46" cy="505.95" r="0.88"/><circle class="cls-9" cx="822.83" cy="501" r="1.44"/><circle class="cls-10" cx="823.31" cy="501.09" r="0.88"/><circle class="cls-9" cx="829.03" cy="496.47" r="1.44"/><circle class="cls-10" cx="829.52" cy="496.56" r="0.88"/><circle class="cls-9" cx="836.34" cy="494.51" r="1.44"/><circle class="cls-10" cx="836.82" cy="494.6" r="0.88"/><path class="cls-6" d="M847.4,486.85s-6.67-1.52-10.1,3.61-4.3,4.53-6.72,9.16c-2.82,5.44-.57,16.71-8.07,18.93a1.44,1.44,0,0,1-1.27-2.14c.61-.94-1.38-1.54-2.75.61s-2.41,8.49,5.1,7.86,12.36-14.13,13.16-19.24C837.47,502.51,854,490.88,847.4,486.85Z"/><g class="cls-17"><path class="cls-8" d="M817.34,525s6.26,2.5,11.5-6.49,4.58-23.88,22.95-29.34c0,0-10.3,15.37-11.15,15.95S832.66,532.35,817.34,525Z"/></g><circle class="cls-9" cx="825.51" cy="524.42" r="1.44"/><circle class="cls-10" cx="825.97" cy="524.24" r="0.88"/><circle class="cls-9" cx="831.49" cy="518.86" r="1.44"/><circle class="cls-10" cx="831.95" cy="518.68" r="0.88"/><circle class="cls-9" cx="835.55" cy="510.57" r="1.44"/><circle class="cls-10" cx="836.01" cy="510.39" r="0.88"/><circle class="cls-9" cx="838.4" cy="503.43" r="1.44"/><circle class="cls-10" cx="838.86" cy="503.25" r="0.88"/><circle class="cls-9" cx="843.55" cy="497.88" r="1.44"/><circle class="cls-10" cx="844" cy="497.71" r="0.88"/><path class="cls-6" d="M871,421.73a46.55,46.55,0,0,0-8.25-2.24C834,414,824.06,443.18,825.92,452.73a79.66,79.66,0,0,0,2.63,9.88,7.45,7.45,0,0,0,.36,12.71c-.84,5.34,9.69,9.92,17.31,12.28.68.21,1.47.45,2.34.68s1.67.44,2.37.6c7.69,1.79,18.94,3.14,21.08-1.72a7.45,7.45,0,0,0,7.06-11.51,94.6,94.6,0,0,0,7-6.63C892.64,461.9,898.35,432.32,871,421.73Z"/><circle class="cls-18" cx="846.8" cy="457.26" r="8.79" transform="translate(-1.24 912.21) rotate(-56.58)"/><circle class="cls-19" cx="846.62" cy="457.91" r="7.74" transform="translate(-1.87 912.36) rotate(-56.58)"/><circle class="cls-20" cx="846.62" cy="457.91" r="6.11" transform="translate(-1.87 912.36) rotate(-56.58)"/><circle class="cls-19" cx="849.86" cy="455.93" r="2.3"/><circle class="cls-18" cx="867.22" cy="462.79" r="8.79" transform="translate(3.32 931.74) rotate(-56.58)"/><circle class="cls-19" cx="867.04" cy="463.45" r="7.74" transform="translate(2.69 931.89) rotate(-56.58)"/><circle class="cls-20" cx="867.04" cy="463.45" r="6.11" transform="translate(2.69 931.89) rotate(-56.58)"/><circle class="cls-19" cx="870.28" cy="461.46" r="2.3"/><path class="cls-21" d="M841.87,470.52a23.55,23.55,0,0,0,22.35,6.05S847.8,492.93,841.87,470.52Z"/><path class="cls-22" d="M839.68,470.12a2.9,2.9,0,0,0,4-.69"/><path class="cls-22" d="M866.57,477.4a2.9,2.9,0,0,1-3.09-2.6"/><g class="cls-23"><path class="cls-24" d="M846.41,481.23s.56-2.75,2.46-2.24,1.9,1.68,1.9,1.68.62-1.16,2.71-.6.7,4.46.7,4.46Z"/></g><path class="cls-21" d="M845.45,442l9.13,2.47S851,439.57,845.45,442Z"/><path class="cls-21" d="M866.74,447.75l9.12,2.47S872.29,445.34,866.74,447.75Z"/><path class="cls-25" d="M201.71,473.25s-5-10.95-15.84-10.26-24.43,1.17-33.5,2.76c-10.62,1.86-42.93,17.89-54.05,9.77a2.54,2.54,0,0,1,1.65-4.07c2-.15.66-3.58-3.82-3.2S81.7,474,90.62,483.79s51.93,1.38,59.94-3C155.7,478.47,203.11,486.78,201.71,473.25Z"/><g class="cls-26"><path class="cls-27" d="M87.48,479.17s11,9.14,37.61,3.92c18-3.52,25.69-12.95,73.68-4.11,0,0-28.16,5-29.87,4.38S93.62,508.46,87.48,479.17Z"/></g><circle class="cls-9" cx="109.61" cy="488.33" r="2.53"/><circle class="cls-10" cx="110.35" cy="488.78" r="1.55"/><circle class="cls-9" cx="97.35" cy="487.36" r="1.93"/><circle class="cls-10" cx="97.91" cy="487.71" r="1.18"/><circle class="cls-9" cx="124.4" cy="487.04" r="2.53"/><circle class="cls-10" cx="125.14" cy="487.49" r="1.55"/><circle class="cls-9" cx="137.75" cy="484.46" r="2.53"/><circle class="cls-10" cx="138.49" cy="484.91" r="1.55"/><circle class="cls-9" cx="153.05" cy="480.38" r="2.53"/><circle class="cls-10" cx="153.79" cy="480.83" r="1.55"/><circle class="cls-9" cx="168.76" cy="481.04" r="2.53"/><circle class="cls-10" cx="169.5" cy="481.49" r="1.55"/><path class="cls-25" d="M207.75,476.06s-8.41-8.61-18.38-4.3-22.59,9.36-30.59,13.92c-9.37,5.35-34.35,31.35-47.57,27.47a2.54,2.54,0,0,1,.18-4.38c1.79-.81-.58-3.6-4.67-1.72s-11.67,10.27,0,16.5,49.34-16.27,55.4-23.08C166.21,496.53,213.64,488.32,207.75,476.06Z"/><g class="cls-28"><path class="cls-27" d="M102.25,520.26s13.4,4.89,36.72-9c15.73-9.4,19.8-20.88,67.95-28.79,0,0-24.83,14.2-26.63,14.23S117.93,545.74,102.25,520.26Z"/></g><circle class="cls-9" cx="126.17" cy="521.4" r="2.53"/><circle class="cls-10" cx="127.02" cy="521.57" r="1.55"/><circle class="cls-9" cx="114.31" cy="524.63" r="1.93"/><circle class="cls-10" cx="114.95" cy="524.76" r="1.18"/><circle class="cls-9" cx="139.66" cy="515.18" r="2.53"/><circle class="cls-10" cx="140.5" cy="515.35" r="1.55"/><circle class="cls-9" cx="151.35" cy="508.24" r="2.53"/><circle class="cls-10" cx="152.19" cy="508.41" r="1.55"/><circle class="cls-9" cx="164.36" cy="499.23" r="2.53"/><circle class="cls-10" cx="165.21" cy="499.4" r="1.55"/><circle class="cls-9" cx="179.38" cy="494.53" r="2.53"/><circle class="cls-10" cx="180.22" cy="494.71" r="1.55"/><path class="cls-25" d="M211.28,474.83s-11.56-3.33-18.11,5.34-15,19.29-19.72,27.21c-5.52,9.27-14.39,44.22-27.8,47.37a2.54,2.54,0,0,1-2-3.9c1.16-1.58-2.28-2.84-4.91.82s-5.07,14.69,8.19,14.32,34.87-38.51,36.78-47.43C185.27,513.14,222.46,482.58,211.28,474.83Z"/><g class="cls-29"><path class="cls-27" d="M141.36,565.36s14.08-2.36,27.47-26c9-16,6.91-27.94,44.88-58.59,0,0-14.58,24.6-16.13,25.52S167.58,579.78,141.36,565.36Z"/></g><circle class="cls-9" cx="162.73" cy="554.54" r="2.53"/><circle class="cls-10" cx="163.55" cy="554.27" r="1.55"/><circle class="cls-9" cx="154.01" cy="563.2" r="1.93"/><circle class="cls-10" cx="154.63" cy="563" r="1.18"/><circle class="cls-9" cx="171.38" cy="542.47" r="2.53"/><circle class="cls-10" cx="172.2" cy="542.2" r="1.55"/><circle class="cls-9" cx="178.12" cy="530.66" r="2.53"/><circle class="cls-10" cx="178.94" cy="530.4" r="1.55"/><circle class="cls-9" cx="184.99" cy="516.4" r="2.53"/><circle class="cls-10" cx="185.81" cy="516.13" r="1.55"/><circle class="cls-9" cx="195.73" cy="504.9" r="2.53"/><circle class="cls-10" cx="196.55" cy="504.64" r="1.55"/><path class="cls-25" d="M238.53,465.75s.32-12,10.56-15.64S272,441.63,281,439.55c10.51-2.45,46.5-.33,53.57-12.16a2.54,2.54,0,0,0-3.11-3.09c-1.86.62-2-3,2.26-4.44s15.54-.39,11.17,12.14-47.25,21.58-56.33,20.7C282.91,452.55,242.53,478.76,238.53,465.75Z"/><g class="cls-30"><path class="cls-27" d="M346,426.52s-6.51,12.7-33.08,18.32c-17.93,3.79-28.71-1.87-69.42,25,0,0,27.86-6.44,29.21-7.65S351.78,455.87,346,426.52Z"/></g><circle class="cls-9" cx="329.19" cy="443.61" r="2.53"/><circle class="cls-10" cx="328.69" cy="444.31" r="1.55"/><circle class="cls-9" cx="340.09" cy="437.92" r="1.93"/><circle class="cls-10" cx="339.71" cy="438.45" r="1.18"/><circle class="cls-9" cx="315.07" cy="448.2" r="2.53"/><circle class="cls-10" cx="314.56" cy="448.9" r="1.55"/><circle class="cls-9" cx="301.78" cy="451.05" r="2.53"/><circle class="cls-10" cx="301.27" cy="451.75" r="1.55"/><circle class="cls-9" cx="286.1" cy="453.28" r="2.53"/><circle class="cls-10" cx="285.6" cy="453.98" r="1.55"/><circle class="cls-9" cx="271.9" cy="460.03" r="2.53"/><circle class="cls-10" cx="271.39" cy="460.74" r="1.55"/><path class="cls-25" d="M234.07,470.7s4.37-11.21,15.23-11.15,24.45-.22,33.6.85c10.71,1.25,43.88,15.42,54.52,6.68a2.54,2.54,0,0,0-1.87-4c-2,0-.88-3.54,3.62-3.41s14.76,4.89,6.41,15.2-51.77,4.33-60,.43C280.3,473.29,233.44,484.29,234.07,470.7Z"/><g class="cls-31"><path class="cls-27" d="M348.45,470.11s-10.42,9.75-37.32,6.05c-18.16-2.49-26.39-11.47-73.8.09,0,0,28.4,3.35,30.07,2.68S344,499.7,348.45,470.11Z"/></g><circle class="cls-9" cx="326.88" cy="480.52" r="2.53"/><circle class="cls-10" cx="326.17" cy="481.01" r="1.55"/><circle class="cls-9" cx="339.06" cy="478.85" r="1.93"/><circle class="cls-10" cx="338.52" cy="479.22" r="1.18"/><circle class="cls-9" cx="312.03" cy="480.06" r="2.53"/><circle class="cls-10" cx="311.32" cy="480.55" r="1.55"/><circle class="cls-9" cx="298.56" cy="478.25" r="2.53"/><circle class="cls-10" cx="297.85" cy="478.74" r="1.55"/><circle class="cls-9" cx="283.06" cy="475.05" r="2.53"/><circle class="cls-10" cx="282.34" cy="475.54" r="1.55"/><circle class="cls-9" cx="267.41" cy="476.6" r="2.53"/><circle class="cls-10" cx="266.69" cy="477.09" r="1.55"/><path class="cls-25" d="M230.34,471s9.33-7.59,18.75-2.17,21.37,11.88,28.8,17.32c8.7,6.38,30.54,35.07,44.11,32.73a2.54,2.54,0,0,0,.33-4.38c-1.69-1,1-3.5,4.84-1.17s10.41,11.54-1.94,16.38-47.15-21.79-52.39-29.25C269.26,496,223.08,482.46,230.34,471Z"/><g class="cls-32"><path class="cls-27" d="M330.1,526.91s-13.88,3.33-35.45-13.16c-14.56-11.14-17.29-23-64.22-36.36,0,0,23,16.93,24.83,17.17S311.61,550.44,330.1,526.91Z"/></g><circle class="cls-9" cx="306.2" cy="525.31" r="2.53"/><circle class="cls-10" cx="305.34" cy="525.39" r="1.55"/><circle class="cls-9" cx="317.62" cy="529.88" r="1.93"/><circle class="cls-10" cx="316.96" cy="529.93" r="1.18"/><circle class="cls-9" cx="293.51" cy="517.59" r="2.53"/><circle class="cls-10" cx="292.65" cy="517.66" r="1.55"/><circle class="cls-9" cx="282.69" cy="509.36" r="2.53"/><circle class="cls-10" cx="281.83" cy="509.44" r="1.55"/><circle class="cls-9" cx="270.79" cy="498.92" r="2.53"/><circle class="cls-10" cx="269.93" cy="498.99" r="1.55"/><circle class="cls-9" cx="256.41" cy="492.54" r="2.53"/><circle class="cls-10" cx="255.55" cy="492.62" r="1.55"/><path class="cls-25" d="M216.63,473.37s-11.62,3.12-12.74,13.92-2.57,15.09-2.5,24.3c.07,10.79,13.23,41.85,3.38,51.48a2.55,2.55,0,0,1-3.74-2.3c.18-2-3.42-1.26-3.78,3.23s3.24,15.2,14.41,8,7.25-47.54,4.28-56.16C214.48,510.41,230.22,474.23,216.63,473.37Z"/><g class="cls-33"><path class="cls-27" d="M208.12,576.34s11.27-12.38,7.58-38.63c-2.56-18.15-8.71-40.69,9.7-64.32,0,0-3.37,32.42-4.23,34S238,575.14,208.12,576.34Z"/></g><circle class="cls-9" cx="218.83" cy="553.75" r="1.98"/><circle class="cls-10" cx="219.27" cy="553.24" r="1.21"/><circle class="cls-9" cx="218.22" cy="536.3" r="2.53"/><circle class="cls-10" cx="218.78" cy="535.64" r="1.55"/><circle class="cls-9" cx="217.73" cy="520.05" r="2.53"/><circle class="cls-10" cx="218.29" cy="519.4" r="1.55"/><circle class="cls-9" cx="216.28" cy="506.59" r="2.53"/><circle class="cls-10" cx="216.84" cy="505.94" r="1.55"/><circle class="cls-9" cx="219.73" cy="493.72" r="2.53"/><circle class="cls-10" cx="220.29" cy="493.07" r="1.55"/><path class="cls-25" d="M224.08,471.85s11.91-1.67,17.17,7.83,8.26,12.88,11.81,21.38c4.15,10,4.19,43.7,17,48.7a2.54,2.54,0,0,0,2.54-3.58c-.92-1.73,2.66-2.49,4.75,1.5s3,15.26-10.12,13-25.27-40.91-25.9-50C240.55,505.1,211.91,478,224.08,471.85Z"/><g class="cls-34"><path class="cls-27" d="M272.19,563.29s-15.21-7-22.08-32.59c-4.75-17.7-7.91-40.86-34.09-55.4,0,0,15.78,28.52,17.19,29.65S244.2,573.88,272.19,563.29Z"/></g><circle class="cls-9" cx="253.5" cy="546.69" r="1.98"/><circle class="cls-10" cx="252.89" cy="546.39" r="1.21"/><circle class="cls-9" cx="247.24" cy="530.39" r="2.53"/><circle class="cls-10" cx="246.46" cy="530.01" r="1.55"/><circle class="cls-9" cx="241.33" cy="515.25" r="2.53"/><circle class="cls-10" cx="240.56" cy="514.86" r="1.55"/><circle class="cls-9" cx="237.4" cy="502.29" r="2.53"/><circle class="cls-10" cx="236.62" cy="501.91" r="1.55"/><circle class="cls-9" cx="229.19" cy="491.79" r="2.53"/><circle class="cls-10" cx="228.41" cy="491.41" r="1.55"/><path class="cls-25" d="M208.39,391a56.29,56.29,0,0,0-10.2,2.08C163.87,402.83,169,440,176.26,449.4a94,94,0,0,0,8.27,9.32,9.06,9.06,0,0,0,7.34,13.63c2,6.27,16,5.5,25.54,3.9.86-.13,1.84-.31,2.92-.53s2.06-.44,2.91-.65c9.34-2.26,22.33-6.94,22-13.39a9.07,9.07,0,0,0,1.4-16.38c1.21-3.09,2.68-6.59,4-11C253.88,422.91,243.92,387.61,208.39,391Z"/><circle class="cls-35" cx="201.46" cy="442.92" r="10.71"/><circle class="cls-19" cx="201.63" cy="443.73" r="9.42"/><circle class="cls-20" cx="201.63" cy="443.73" r="7.43"/><circle class="cls-19" cx="204.06" cy="439.8" r="2.8"/><circle class="cls-35" cx="226.7" cy="437.77" r="10.71"/><circle class="cls-19" cx="226.87" cy="438.59" r="9.42"/><circle class="cls-20" cx="226.87" cy="438.59" r="7.43"/><circle class="cls-19" cx="229.3" cy="434.66" r="2.8"/><path class="cls-36" d="M203.35,460A28.69,28.69,0,0,0,231,454.42S222,481.19,203.35,460Z"/><path class="cls-37" d="M200.75,460.8a3.52,3.52,0,0,0,3.95-2.91"/><path class="cls-37" d="M234,454a3.52,3.52,0,0,1-4.78-1.13"/><g class="cls-38"><path class="cls-24" d="M214.14,469.22s-.9-3.3,1.46-3.78,3,.78,3,.78,0-1.6,2.62-2.12,3.2,4.46,3.2,4.46Z"/></g><path class="cls-36" d="M191.64,427l11.28-2.3S196.36,421.38,191.64,427Z"/><path class="cls-36" d="M218,421.68l11.28-2.3S222.68,416,218,421.68Z"/><g class="cls-39"><polygon class="cls-40" points="848.01 249.72 724.59 248.75 544.02 302.33 587.27 360.4 883.57 350.66 872.21 292.18 848.01 249.72"/><path class="cls-41" d="M549.23,303.92s3.75-3.16,7.63-3.28,46.74-6.37,70.43-13.11,67.29-18.23,76.36-19.84c0,0,14.26-13.11,48.4-13.75s93-1.5,93-1.5l-39.3-16.79L674.61,237,532.16,276.76Z"/><path class="cls-42" d="M554.16,313.45s25.12,10,93.92,9.47,227.56-4.54,227.56-4.54l7.93,28-309.14,4.47Z"/><path class="cls-43" d="M809.7,256.14a1.36,1.36,0,0,0-.28-.11,14.69,14.69,0,0,0-1.49-.15c-1-.06-2.11-.06-2.16.57-.1,1.24,2.3,20.4,12.84,19.45,1.43-.06.45,1.1.77,3.79s-2.09,6.15,15.45,5.09c2.75-.47,3-.65,3.09-7.71A1.11,1.11,0,0,1,839,276c2.11-.07,4-.4,4.53-1S812,257.36,809.7,256.14Z"/><path class="cls-43" d="M833.83,290s-16.61-.77-18.28.17.75,17.61,10.33,17.48l46.34-.63Z"/></g><path class="cls-43" d="M590,275.75a3.14,3.14,0,0,0-1.58-.07c-6.5,1.67-40.79,10.57-42.48,12.58-1.87,2.23,7.16,12.43,10.89,12.38,2.62,0,27.81-3.7,42.82-6.41,6.41-1.16,11-2.14,11.1-2.59.45-1.48-6.27-4.38-5.24-4.47s3.83-1.4,2.75-2.67-4.9-.21-6.65.5c-1.4.57-6.79-4.71-8.89-6.84a.64.64,0,0,1,.32-1.07c1.1-.24,2.58-.75,2.55-1.71C595.57,274,591.63,276.16,590,275.75Z"/><path class="cls-44" d="M598.77,294.32s-35.55-2.54-37.28-3.46-14.71-13.43-12.21-13.68,33.81.06,33.81.06"/><path class="cls-44" d="M587.19,296.39c-10.91-.86-26-2.14-27.05-2.71-1.72-.93-14.7-13.43-12.21-13.68,1.55-.16,14.47-.08,24,0"/><path class="cls-44" d="M570.47,298.87c-5.87-.54-10.6-1.12-11.18-1.43-1.73-.93-14.71-13.42-12.22-13.68.95-.1,6.07-.1,12.1-.08"/><path class="cls-44" d="M558.09,300.62c-1.73-.92-14.57-13.2-12.07-13.45.34,0,1.21-.06,2.47-.07"/><line class="cls-44" x1="549.83" y1="279.5" x2="548.41" y2="291.17"/><line class="cls-44" x1="552.35" y1="282.46" x2="550.94" y2="294.13"/><line class="cls-44" x1="554.9" y1="285.2" x2="553.48" y2="296.87"/><line class="cls-44" x1="557.48" y1="287.37" x2="556.07" y2="299.04"/><rect class="cls-45" x="714.55" y="200.37" width="1.21" height="20" rx="0.61" transform="translate(18.61 -55.21) rotate(4.48)"/><rect class="cls-45" x="716.28" y="163.91" width="0.5" height="57.86" rx="0.25" transform="translate(17.25 -55.37) rotate(4.48)"/><rect class="cls-46" x="713.22" y="202.77" width="2.21" height="36.5" rx="1.11" transform="translate(19.44 -55.11) rotate(4.48)"/><path class="cls-47" d="M703.09,248.53l11.16-.68a.86.86,0,0,0,.81-.82l.46-8.92a.86.86,0,0,0-.79-.91l-3.15-.24a.84.84,0,0,0-.72.3l-8.48,9.84A.87.87,0,0,0,703.09,248.53Z"/><path class="cls-48" d="M673.57,249.82s-2,6.72,43.15,8.79c40.28,1.84,64.52,1.85,69.26,1.83a1.11,1.11,0,0,1,1.09.82l2.62,9.25a1.14,1.14,0,0,1-1.08,1.45c-10.81,0-77.7.2-107-3.37C659.11,265.85,648.4,264.71,673.57,249.82Z"/><g class="cls-49"><polygon class="cls-50" points="679.08 251.13 655.67 266.53 652.48 261.56 675.15 247.51 679.08 251.13"/><polygon class="cls-51" points="683.25 254.52 660.33 270.63 656.99 265.76 679.21 251.02 683.25 254.52"/><polygon class="cls-52" points="691.36 255.41 668.69 271.88 665.28 267.06 687.27 251.97 691.36 255.41"/></g><path id="SVGID-27" data-name="SVGID" class="cls-2" d="M673.57,249.82s-2,6.72,43.15,8.79c40.28,1.84,64.52,1.85,69.26,1.83a1.11,1.11,0,0,1,1.09.82l2.62,9.25a1.14,1.14,0,0,1-1.08,1.45c-10.81,0-77.7.2-107-3.37C659.11,265.85,648.4,264.71,673.57,249.82Z"/><polygon class="cls-43" points="644.5 282.97 805.35 282.26 803.8 277.94 659.76 278.64 644.5 282.97"/><path class="cls-43" d="M662.83,317l157.8-3.15-1.62-4.3-144,2.95H675l-12.24,3.68A.41.41,0,0,0,662.83,317Z"/><path class="cls-53" d="M603.64,305.54c0-2.74,0-3.3,22.73-6.8,5-.77,161.31-2.26,177.59-2.42a1.86,1.86,0,0,1,1.79,1.3l2.24,6.91a1.88,1.88,0,0,1-1.75,2.45L658,309.52a7.31,7.31,0,0,1-4.29-1.31l-1.06-.74a7.26,7.26,0,0,0-4.25-1.31c-4.57.06-15.1.23-24.81.58C613.12,307.13,603.62,307.59,603.64,305.54Z"/><g class="cls-54"><rect class="cls-50" x="601.16" y="290.87" width="22.7" height="24.54" transform="translate(-3.8 7.8) rotate(-0.73)"/><rect class="cls-50" x="624.32" y="290.58" width="22.7" height="24.54" transform="translate(-3.79 8.1) rotate(-0.73)"/><rect class="cls-50" x="647.48" y="290.28" width="22.7" height="24.54" transform="translate(-3.79 8.39) rotate(-0.73)"/><rect class="cls-50" x="670.63" y="289.99" width="22.7" height="24.54" transform="translate(-3.78 8.69) rotate(-0.73)"/><rect class="cls-50" x="693.79" y="289.69" width="22.7" height="24.54" transform="translate(-3.78 8.98) rotate(-0.73)"/><rect class="cls-50" x="716.95" y="289.4" width="22.7" height="24.54" transform="translate(-3.77 9.27) rotate(-0.73)"/><rect class="cls-50" x="740.11" y="289.11" width="22.7" height="24.54" transform="translate(-3.77 9.57) rotate(-0.73)"/><rect class="cls-50" x="763.27" y="288.81" width="22.7" height="24.54" transform="translate(-3.76 9.86) rotate(-0.73)"/><rect class="cls-50" x="786.43" y="288.52" width="22.7" height="24.54" transform="translate(-3.76 10.16) rotate(-0.73)"/></g><path id="SVGID-28" data-name="SVGID" class="cls-2" d="M603.64,305.54c0-2.74,0-3.3,22.73-6.8,5-.77,161.31-2.26,177.59-2.42a1.86,1.86,0,0,1,1.79,1.3l2.24,6.91a1.88,1.88,0,0,1-1.75,2.45L658,309.52a7.31,7.31,0,0,1-4.29-1.31l-1.06-.74a7.26,7.26,0,0,0-4.25-1.31c-4.57.06-15.1.23-24.81.58C613.12,307.13,603.62,307.59,603.64,305.54Z"/><g class="cls-55"><polygon class="cls-45" points="807.49 261.23 798.97 260.56 801.26 263.25 808.01 263.78 807.49 261.23"/><polygon class="cls-45" points="808.74 264.64 800.22 263.98 802.51 266.66 809.27 267.19 808.74 264.64"/><polygon class="cls-45" points="810.25 268.22 801.74 267.55 804.03 270.24 810.78 270.76 810.25 268.22"/></g><g class="cls-56"><polygon class="cls-45" points="815.25 294.99 806.73 294.32 809.03 297.01 815.78 297.54 815.25 294.99"/><polygon class="cls-45" points="816.64 298.42 808.12 297.75 810.42 300.44 817.17 300.96 816.64 298.42"/><polygon class="cls-45" points="818.34 302 809.82 301.34 812.12 304.02 818.87 304.55 818.34 302"/></g><line class="cls-57" x1="819.89" y1="276.4" x2="837.54" y2="276.46"/><line class="cls-57" x1="819.85" y1="280.21" x2="837.32" y2="280.26"/><path class="cls-58" d="M261.58,319.72s4.48,31.08,12.4,31.59,17.25-2.91,9.85-5.38S265.21,333.39,261.58,319.72Z"/><g class="cls-59"><rect class="cls-60" x="255.36" y="308.88" width="14.02" height="29.69" transform="translate(531.92 641.48) rotate(178.72)"/><rect class="cls-61" x="352.59" y="310.24" width="28.92" height="29.69" transform="translate(741.29 641.87) rotate(178.72)"/><polygon class="cls-62" points="253.5 316.58 271.29 316.18 281.75 286.25 252.84 286.89 253.5 316.58"/><polygon class="cls-60" points="268.99 343.38 355.05 340.94 354.41 312.18 267.86 315.34 268.99 343.38"/><rect class="cls-63" x="259.63" y="313.96" width="104.92" height="2.54" transform="translate(637.3 616.89) rotate(177.56)"/><polygon class="cls-63" points="328.76 351.04 355.51 350.44 356.34 331.66 335.04 318.05 328.05 319.35 328.76 351.04"/><polygon class="cls-64" points="362.3 341.31 370.48 339.47 335.03 318.06 327.98 319.28 362.3 341.31"/><polygon class="cls-63" points="295.41 351.79 322.17 351.19 323 332.4 301.69 318.8 294.7 320.09 295.41 351.79"/><polygon class="cls-64" points="328.95 342.05 337.14 340.22 301.69 318.8 294.63 320.02 328.95 342.05"/><path class="cls-63" d="M383.72,325.43S309,342.12,271.23,323.92c-9.09-4.79-10.17-7.69-11.07-8.34.11,4.66,8.4,19.07,8.4,19.07l5.43,5.87,108.91-2.44Z"/><path class="cls-65" d="M389.27,327.16s-50.76,12.65-91.68,6.31-49.82-23.9-49.82-23.9l14.49,44,122.28-2.74Z"/></g><path class="cls-66" d="M348.59,318.6a11,11,0,0,0,.11-2.92,16.39,16.39,0,0,0-1.27-5,8.24,8.24,0,0,0-.85-1.16,5.69,5.69,0,0,1-.7-4.84,9.12,9.12,0,0,1,1.53-3c.08-.11.14-.22.31-.07a8.74,8.74,0,0,1,1.83,2,3.55,3.55,0,0,1,.34,3.24c-.19.55-.4,1.09-.57,1.65a3,3,0,0,0,0,1.72,21.25,21.25,0,0,1,.48,8.44,2.78,2.78,0,0,1-.11.46,16,16,0,0,1-2.63,5.44c-1.23,1.81-3.57,1.72-5.65,1.24a12.36,12.36,0,0,1-2-.64l.73-1.1a.61.61,0,0,0,.16.12,8.76,8.76,0,0,0,3.79.53A2.5,2.5,0,0,0,346,324,12.7,12.7,0,0,0,348.59,318.6Z"/><path class="cls-19" d="M313.75,318s-.6-.17-1.4-2.18c-.49-1.12-1.23-2.85-2.81-3.06s-2.22,2-2.26,3.07.35,5.69,1.21,6.16a7.08,7.08,0,0,0,2.95-.06C311.91,321.75,314.22,318.57,313.75,318Z"/><path class="cls-66" d="M323.54,317c.39,0,.78,0,1.16.06a14.28,14.28,0,0,1,2.84.47c1,.31,1.06,1.6.91,2.48a2.62,2.62,0,0,1-.6,1.2c-.43.56-1.27,1-1.56,1.6A14.22,14.22,0,0,0,326,325a3.32,3.32,0,0,1-2,2.46,1.51,1.51,0,0,1-.94,0,1.89,1.89,0,0,1-1-1.35,3.76,3.76,0,0,0-.61-1.58c-.8-.93-2-.49-3-.49a17.59,17.59,0,0,1-4-.66,8.83,8.83,0,0,1-2.94-1.47c-.13-.09-.1-.26-.15-.39a2.21,2.21,0,0,1-.11-1.54c.17-.54.29-.62.84-.67a1.25,1.25,0,0,0,1.34-1.13c.07-.27.16-.33.44-.28,2,.33,3.26-.12,5.16-.5A20.65,20.65,0,0,1,323.54,317Z"/><path class="cls-67" d="M309.54,312.74a2.82,2.82,0,0,0-.86.55,3.93,3.93,0,0,0-.87,1.95,12.16,12.16,0,0,0,.66,6.62s0,.06,0,.11a4.09,4.09,0,0,1-.69-.17c-.11,0-.13-.11-.15-.2a15.33,15.33,0,0,1-.73-6.27,4,4,0,0,1,.55-1.81A1.75,1.75,0,0,1,309.54,312.74Z"/><path class="cls-68" d="M310.48,317.73a6.25,6.25,0,0,1,1-2.42,1.21,1.21,0,0,1,.24-.21c.14-.1.26-.11.32.09,0,0,0,.05,0,.08a1.78,1.78,0,0,1,.24.53c0,.23-.27.22-.4.36a3.28,3.28,0,0,0-.76,1.55,2.93,2.93,0,0,0-.07.41.33.33,0,0,1-.3.29c-.17,0-.24-.12-.28-.25A2.62,2.62,0,0,1,310.48,317.73Z"/><path class="cls-69" d="M309.85,316.26A3.92,3.92,0,0,1,311,314c.19-.15.33-.14.45.08l.05.07c.26.4.26.4-.09.71a3.92,3.92,0,0,0-1,1.81c-.05.13,0,.36-.22.34s-.21-.22-.26-.37A1.42,1.42,0,0,1,309.85,316.26Z"/><path class="cls-70" d="M309.12,314.92a2.9,2.9,0,0,1,1.11-1.74c.2-.14.7.12.77.36s-.05.12-.1.16a2.58,2.58,0,0,0-1.14,1.54c0,.13,0,.35-.27.32s-.27-.18-.31-.35S309.14,315,309.12,314.92Z"/><path class="cls-71" d="M319.9,298.23c.4,1.17-.21,1.3.55,2.27.48.6-.39,1,0,1.67.08.11.19.22.16.38-.84-.45-1.68-.9-2.52-1.33-1.8-.91-6.7-3.18-8.57-3.92a6.79,6.79,0,0,0-2.17-.31,3.54,3.54,0,0,0-1.6.27,1.71,1.71,0,0,1-1.16.07,1.62,1.62,0,0,1-1-2.32c.06-.15.11-.24-.05-.39a1.31,1.31,0,0,1,0-2.15.71.71,0,0,0,.26-.61,1.6,1.6,0,0,1,2.16-1.47c.12.05.18.05.27-.06a1.47,1.47,0,0,1,2.54.27c.46.8,1,1.5,1.54,2.25a2.59,2.59,0,0,0,1.15.89,19.2,19.2,0,0,1,2.59,1.6C314.12,295.42,319.77,298.15,319.9,298.23Zm-13.62-4.07a7.51,7.51,0,0,0,.73,1.68c.14.23.33.43.6.38s.67-.19.74-.56a2.9,2.9,0,0,1,.79-1.47.77.77,0,0,0,.11-.89c-.13-.28-.42-.26-.68-.27s-.77.07-1.17,0A1.15,1.15,0,0,0,306.28,294.16Zm-1.54.25c.48,0,.83-.24.82-.57a.94.94,0,0,0-.86-.8.79.79,0,0,0-.85.69C303.86,294.11,304.24,294.4,304.74,294.41Zm3.4-3a1.23,1.23,0,0,0-.36-.84.52.52,0,0,0-.88.21,1,1,0,0,0,.14,1c.16.24.37.44.67.36S308.12,291.77,308.14,291.45Zm-3.05,5.13a1,1,0,0,0,.83-.39.5.5,0,0,0-.27-.86,1.07,1.07,0,0,0-.87.16.65.65,0,0,0-.38.7C304.44,296.46,304.68,296.59,305.09,296.58Zm.58-3.88c.59,0,.82-.32.65-.74a1.17,1.17,0,0,0-1-.64.52.52,0,0,0-.49.77A1,1,0,0,0,305.67,292.7Z"/><path class="cls-72" d="M306.28,294.16a1.15,1.15,0,0,1,1.12-1.11c.4.05.78,0,1.17,0s.55,0,.68.27a.77.77,0,0,1-.11.89,2.9,2.9,0,0,0-.79,1.47c-.07.37-.41.51-.74.56s-.46-.15-.6-.38A7.51,7.51,0,0,1,306.28,294.16Z"/><path class="cls-72" d="M304.74,294.41c-.5,0-.88-.3-.89-.68a.79.79,0,0,1,.85-.69.94.94,0,0,1,.86.8C305.57,294.17,305.22,294.41,304.74,294.41Z"/><path class="cls-72" d="M308.14,291.45c0,.32-.1.6-.43.69s-.51-.12-.67-.36a1,1,0,0,1-.14-1,.52.52,0,0,1,.88-.21A1.23,1.23,0,0,1,308.14,291.45Z"/><path class="cls-72" d="M305.09,296.58c-.41,0-.65-.12-.69-.39a.65.65,0,0,1,.38-.7,1.07,1.07,0,0,1,.87-.16.5.5,0,0,1,.27.86A1,1,0,0,1,305.09,296.58Z"/><path class="cls-72" d="M305.67,292.7a1,1,0,0,1-.84-.61.52.52,0,0,1,.49-.77,1.17,1.17,0,0,1,1,.64C306.49,292.38,306.26,292.7,305.67,292.7Z"/><path class="cls-73" d="M340,327.27l.1-.13a5,5,0,0,0,.77-1.5,5.75,5.75,0,0,0,.13-1.17c0-.28.06-.56.07-.85a13.93,13.93,0,0,0-.47-4.16c-.35-1.35-.85-2.66-1.15-4-.57-2.58-.83-5.22-1.36-7.81a13.43,13.43,0,0,0-1.19-3.3c-.24-.48-.28-.77-.78-1.06a5,5,0,0,0-1.86-.65,6.67,6.67,0,0,0-2-.13,7.27,7.27,0,0,1-1.68.19c-1.9-.08-3.8-.23-5.71-.34l-2.13-.13c-.14,0-.62-.12-.75,0a20.6,20.6,0,0,0-.78,2.76,73.61,73.61,0,0,0-1.13,11.2,37.48,37.48,0,0,0,1.34,8.16,7.11,7.11,0,0,0,.75,1.88c.06.09.11.18.17.26a5.92,5.92,0,0,0,2.78,1.95,13.58,13.58,0,0,0,3.79.76,5.54,5.54,0,0,1,.57.07l1.1.06h1c.59,0,1.2,0,1.79,0a7.06,7.06,0,0,0,1.1-.27c.43-.11.87-.25,1.32-.32a2.7,2.7,0,0,1,.85,0,4.16,4.16,0,0,0,2.36-.55A4,4,0,0,0,340,327.27Z"/><path class="cls-74" d="M322.59,304.48c.89.82,1.73.15,2.72.09,4.76-.29,7.32,5.35,6.8,9.39-.45,3.49-1.22,8.69-4.75,10.53-3.21,1.67-6-2.82-6.56-5.51a20.38,20.38,0,0,1,0-6.09c.25-2.58.38-5.69,1.56-8A.72.72,0,0,1,322.59,304.48Z"/><path class="cls-19" d="M338.19,300c0,.07-.11.06-.17.07S338.12,300,338.19,300Z"/><path class="cls-19" d="M338.25,299.94c0,.06,0,.06-.06.07S338.21,299.94,338.25,299.94Z"/><path class="cls-75" d="M339.9,289.4l0,.05Z"/><path class="cls-76" d="M324.67,282.48a3.73,3.73,0,0,1-.64.73,21.41,21.41,0,0,0-1.76,2.48,18.13,18.13,0,0,1-1.8,2.38,4.62,4.62,0,0,0-1.09,2.06c0,.16,0,.34-.18.44-1.51-1.43-2.65-3.08-2.52-5.26a5.55,5.55,0,0,1,2.9-4.81,3.13,3.13,0,0,1,4,.72C324,281.63,324.31,282.06,324.67,282.48Z"/><path class="cls-75" d="M319.51,287.05l.07-.11C319.49,286.94,319.51,287,319.51,287.05Z"/><g class="cls-77"><path class="cls-72" d="M319.51,287.05a5.08,5.08,0,0,0-.55,1.18,2.77,2.77,0,0,0,.6,2.75s0,.06,0,.09h0a.12.12,0,0,1,.12.08l.7.44a17.76,17.76,0,0,1,2-1.81,2,2,0,0,0,.63-2,.83.83,0,0,1,0-.38l0-.06h0c-.18-.08-.26-.25-.39-.38a1.77,1.77,0,0,0-2.16-.48,9.67,9.67,0,0,0-.83.51h0Z"/><path class="cls-75" d="M319.57,286.94a9.67,9.67,0,0,1,.83-.51,1.77,1.77,0,0,1,2.16.48c.13.13.21.3.39.38a2.71,2.71,0,0,0-1.21-1.75,3.45,3.45,0,0,0-2.71-.4,6.53,6.53,0,0,1,2.42.64A2.45,2.45,0,0,0,319.57,286.94Z"/></g><path class="cls-75" d="M345.88,292.67c-.21-.25-.3-.57-.53-.82a1.78,1.78,0,0,0-2.16-.48,1.55,1.55,0,0,1-.51.18,2.65,2.65,0,0,1,1.84-1.07,3.49,3.49,0,0,1,2.61.78,6.6,6.6,0,0,0-2.45-.44A2.45,2.45,0,0,1,345.88,292.67Z"/><path class="cls-72" d="M345.89,292.79a5.22,5.22,0,0,1,0,1.31,2.76,2.76,0,0,1-1.72,2.23.22.22,0,0,0-.06.07h0a.4.4,0,0,1-.15,0l-.82.09a17.07,17.07,0,0,0-1-2.47,2,2,0,0,1,.3-2.12,1,1,0,0,0,.21-.33l.05,0h0a1.55,1.55,0,0,0,.51-.18,1.78,1.78,0,0,1,2.16.48c.23.25.32.57.53.82h0Z"/><path class="cls-78" d="M350.61,288.64a3.19,3.19,0,0,0-2.94-1.83,5.41,5.41,0,0,0-1.81.45,3.32,3.32,0,0,1-1.9.15,3.39,3.39,0,0,1-1.49-.91,28.52,28.52,0,0,0-5.14-3.68.39.39,0,0,1-.24-.44,2,2,0,0,0-.19-1.28,1.91,1.91,0,0,1-.1-1.74c0-.1.07-.21.13-.37a2.41,2.41,0,0,0-.69.5,4.86,4.86,0,0,0-.77,1.14,2.35,2.35,0,0,1-.56.76c-.14.11-.23.1-.27-.09a2,2,0,0,1,0-.85,7.67,7.67,0,0,0,.19-1.79,3.09,3.09,0,0,0-.56-1.66,2.73,2.73,0,0,1-.44,1.19,8.92,8.92,0,0,1-.9,1.13,2.44,2.44,0,0,0-.75,1.28,2.25,2.25,0,0,1-.41-1.38,4.59,4.59,0,0,1,.22-1.4,1.58,1.58,0,0,0-.68.25,5.21,5.21,0,0,0-1.83,1.93.88.88,0,0,1-.57.45,19.44,19.44,0,0,0-3.23,1.37c-3.62,2-7,6.37-6.55,10.67,0,.34.09.67.15,1h0a11.06,11.06,0,0,1,.16,4.18,12.42,12.42,0,0,0,1.18,5.55,9.57,9.57,0,0,0,5.1,2.42,6.5,6.5,0,0,0,4.56-1.23,15.43,15.43,0,0,1,6-2,10.63,10.63,0,0,0,4.44-1.62c.87-.67,2.77-3.14,2.46-4.28a17.07,17.07,0,0,0-1-2.47,2,2,0,0,1,.3-2.12,1,1,0,0,0,.21-.33l.05,0h0a2.65,2.65,0,0,1,1.84-1.07,3.49,3.49,0,0,1,2.61.78,6.6,6.6,0,0,0-2.45-.44,2.45,2.45,0,0,1,1.2,1.85c0,.06,0,.09,0,.12a5.22,5.22,0,0,1,0,1.31,2.76,2.76,0,0,1-1.72,2.23.22.22,0,0,0-.06.07,5,5,0,0,0,1.34,0,8.11,8.11,0,0,0,3.62-1.18A5.19,5.19,0,0,0,350.61,288.64Z"/><polygon class="cls-78" points="345.88 292.67 345.88 292.67 345.87 292.67 345.88 292.67"/><path class="cls-75" d="M336,291.92c-.46-1-.91-1.94-2-2.29a3.68,3.68,0,0,0-3,.65,3.45,3.45,0,0,1,.87-1,4.19,4.19,0,0,1,1.69-.93,1.52,1.52,0,0,1,1.58.47A4.28,4.28,0,0,1,336,291.92Z"/><path class="cls-75" d="M325.3,289c-.46-.8-.89-1.6-1.87-1.85a3.12,3.12,0,0,0-2.55.65,3.52,3.52,0,0,1,2.49-1.82,1.14,1.14,0,0,1,.78.23A3.55,3.55,0,0,1,325.3,289Z"/><path class="cls-71" d="M328.81,291.65a4.89,4.89,0,0,1-5.19,2.3,5,5,0,0,0,2.64,2.48A7.82,7.82,0,0,0,328.81,291.65Z"/><path class="cls-19" d="M335.42,294.15a2.41,2.41,0,0,1-2.55,2.22,3.9,3.9,0,0,1-1.36-.19,2.45,2.45,0,0,1-1.79-2.38,3.19,3.19,0,0,1,2.37-3.16,2.88,2.88,0,0,1,3.36,2.69A3.66,3.66,0,0,1,335.42,294.15Z"/><path class="cls-75" d="M331.83,295.71a2.27,2.27,0,1,1,.57-4.5,2.27,2.27,0,0,1-.57,4.5Zm-1-2.68a.46.46,0,0,0-.2.46A1.47,1.47,0,0,0,332,295a1.5,1.5,0,0,0,1.53-1,1.44,1.44,0,0,0-.72-1.73,2.76,2.76,0,0,0-1-.18c-.36-.36-.74-.4-1-.11A.68.68,0,0,0,330.84,293Z"/><path class="cls-79" d="M331.77,292.11a2.76,2.76,0,0,1,1,.18,1.44,1.44,0,0,1,.72,1.73,1.5,1.5,0,0,1-1.53,1,1.47,1.47,0,0,1-1.31-1.5.46.46,0,0,1,.2-.46.71.71,0,0,0,.82-.1A.7.7,0,0,0,331.77,292.11Z"/><path class="cls-19" d="M331.77,292.11a.7.7,0,0,1-.11.82.71.71,0,0,1-.82.1.68.68,0,0,1-.1-1C331,291.71,331.41,291.75,331.77,292.11Z"/><path class="cls-19" d="M324.64,291.25a2.17,2.17,0,0,1-2.44,1.92,3,3,0,0,1-1.46-.4,1.89,1.89,0,0,1-.95-1.86,4.57,4.57,0,0,1,.53-1.75,2.23,2.23,0,0,1,2.46-.93A2.54,2.54,0,0,1,324.64,291.25Z"/><path class="cls-75" d="M320,290.37a2,2,0,0,1,2.32-1.76,2.05,2.05,0,1,1-2.32,1.76Zm.86,0c-.16,0-.15.14-.15.24a1.93,1.93,0,0,0,.06.41,1.3,1.3,0,0,0,2.15.66,1.34,1.34,0,0,0,.21-1.7,1.31,1.31,0,0,0-1.46-.52c-.38-.25-.66-.24-.89,0S320.54,290,320.83,290.37Z"/><path class="cls-79" d="M321.64,289.46a1.31,1.31,0,0,1,1.46.52,1.34,1.34,0,0,1-.21,1.7,1.3,1.3,0,0,1-2.15-.66,1.93,1.93,0,0,1-.06-.41c0-.1,0-.24.15-.24a.78.78,0,0,0,.45.09C321.75,290.37,321.9,290,321.64,289.46Z"/><path class="cls-19" d="M321.64,289.46c.26.49.11.91-.36,1a.78.78,0,0,1-.45-.09c-.29-.33-.31-.62-.08-.89S321.26,289.21,321.64,289.46Z"/><path class="cls-80" d="M329.22,304.08c-.09.33,0-.15-.06.18a2.5,2.5,0,0,1-1.06,1.19,4.56,4.56,0,0,1-3.57.07c-.67-.23-1.33-.49-2-.69a3,3,0,0,1-2.33-1.94,8.12,8.12,0,0,1-.45-1.56c0-.78,0-1.55.05-2.32a7,7,0,0,1,.07-1.12,1.76,1.76,0,0,1,.17.55c.07.63.12,1.25.22,1.88a3.42,3.42,0,0,0,1.95,2.73,9.15,9.15,0,0,0,3.5.93,3.62,3.62,0,0,0,3.83-2.34,2.75,2.75,0,0,1,.48-.85,17,17,0,0,1-.66,2.8A3.92,3.92,0,0,0,329.22,304.08Z"/><path class="cls-75" d="M330,300.79a2.75,2.75,0,0,0-.48.85A3.62,3.62,0,0,1,325.7,304a9.15,9.15,0,0,1-3.5-.93,3.42,3.42,0,0,1-1.95-2.73c-.1-.63-.15-1.25-.22-1.88a1.76,1.76,0,0,0-.17-.55c0-.12-.09-.24,0-.36a5,5,0,0,0,.87,1,1.91,1.91,0,0,0,2.78-.32,3.14,3.14,0,0,0,.39-.69c0-.1,0-.49.07-.61s.19,0,.22,0a.35.35,0,0,0,0,.27,1.94,1.94,0,0,1,0,.35,4.26,4.26,0,0,0,.16.79,2.61,2.61,0,0,0,.82,1.29,4.72,4.72,0,0,0,4.72.91.66.66,0,0,0,.31-.21A.75.75,0,0,1,330,300.79Zm-7.85,1.37a10.45,10.45,0,0,0,3.06,1,2.93,2.93,0,0,0,1.25.08,3.91,3.91,0,0,0,3.15-2.16c0-.05.06-.11,0-.16s-.14,0-.22,0a4.33,4.33,0,0,1-1.72.2,4.73,4.73,0,0,1-2.74-1.23,4.17,4.17,0,0,1-1.07-1.48,2.41,2.41,0,0,1-3.53.41l0,0,0,0A3.66,3.66,0,0,0,322.16,302.16Z"/><path class="cls-80" d="M330.19,300.36a.66.66,0,0,1-.31.21,4.72,4.72,0,0,1-4.72-.91,3.35,3.35,0,0,1-1-2.53c0-.08,0-.2.13-.17a2.58,2.58,0,0,0,2.57-1.19l0,0c.36.39.85.64,1.24,1a6,6,0,0,1,2,2.95C330.14,299.93,330.16,300.14,330.19,300.36Z"/><path class="cls-80" d="M322,294.39c.05.21.09.42.16.63a2.72,2.72,0,0,0,1.71,1.83c.18.07.23.13.17.31a4.14,4.14,0,0,1-.54,1.07,1.91,1.91,0,0,1-2.78.32,5,5,0,0,1-.87-1h0a.14.14,0,0,0,0-.15v0l0,0a1.21,1.21,0,0,1,.34-.8C320.77,295.82,321.36,295.07,322,294.39Z"/><path class="cls-75" d="M319.83,297.39a.14.14,0,0,1,0,.15C319.76,297.51,319.84,297.44,319.83,297.39Z"/><path class="cls-81" d="M320.36,298.85a2.41,2.41,0,0,0,3.53-.41,4.17,4.17,0,0,0,1.07,1.48,4.73,4.73,0,0,0,2.74,1.23,4.33,4.33,0,0,0,1.72-.2c.08,0,.16-.07.22,0s0,.11,0,.16a3.91,3.91,0,0,1-3.15,2.16,2,2,0,0,0-1.05-.46,4,4,0,0,1-1.8-.56,1.35,1.35,0,0,0-1.46-.1,3.66,3.66,0,0,1-1.8-3.31Z"/><path class="cls-82" d="M322.16,302.16a1.35,1.35,0,0,1,1.46.1,4,4,0,0,0,1.8.56,2,2,0,0,1,1.05.46,2.93,2.93,0,0,1-1.25-.08A10.45,10.45,0,0,1,322.16,302.16Z"/><path class="cls-83" d="M326.9,295.42a1.31,1.31,0,0,1-.61,1,2.72,2.72,0,0,1-2.34.46,3.16,3.16,0,0,1-2-1.62,1.15,1.15,0,0,1-.11-.81.87.87,0,0,1,.45-.54,2.59,2.59,0,0,1,.79-.07,6,6,0,0,1,1.73.23,9.12,9.12,0,0,1,.9.23,3.25,3.25,0,0,1,.67.34A1,1,0,0,1,326.9,295.42Z"/><path class="cls-19" d="M324,327.14a7.67,7.67,0,0,1-2.63-2.2c-.39-.33-2.2-2.1-4-1.52s-1.27,3.74-.21,6,2.7,4.34,3.27,4.19a14.21,14.21,0,0,0,3.26-1.49C324.18,331,326.13,328.24,324,327.14Z"/><path class="cls-67" d="M317.43,323.42a3,3,0,0,0-.77,2.92,13.71,13.71,0,0,0,3.63,7c.07.07.17.12.2.24a2.89,2.89,0,0,1-.77.13.26.26,0,0,1-.26-.11,17.81,17.81,0,0,1-3.63-6.35,5.08,5.08,0,0,1-.26-1.82,2.07,2.07,0,0,1,1.54-2A.43.43,0,0,1,317.43,323.42Z"/><path class="cls-68" d="M320.66,328.18a7.37,7.37,0,0,1,0-3,.82.82,0,0,1,.18-.33c.1-.13.19-.15.31,0l.05,0c.18.16.44.3.54.5s-.19.39-.27.6a3.63,3.63,0,0,0-.1,1.85,5.78,5.78,0,0,0,.12.57.37.37,0,0,1-.2.43c-.15.09-.29,0-.38-.14S320.76,328.34,320.66,328.18Z"/><path class="cls-69" d="M319.32,326.84a4.45,4.45,0,0,1,.2-2.64c.19-.41.27-.42.63-.18s.46.31.23.81a4.7,4.7,0,0,0-.27,2.35c0,.15.16.37-.06.45s-.33-.13-.46-.27A1.93,1.93,0,0,1,319.32,326.84Z"/><path class="cls-70" d="M318,325.8a3.39,3.39,0,0,1,.34-2.21.77.77,0,0,1,1,0c0,.09,0,.13,0,.18a3.07,3.07,0,0,0-.51,2.24c0,.15.07.31-.12.38a.39.39,0,0,1-.43-.13A1,1,0,0,1,318,325.8Z"/><path class="cls-73" d="M331.18,322.63a.34.34,0,0,1-.14.44c-.43.31-.87.62-1.29.95a5.59,5.59,0,0,0-.83.7,7.14,7.14,0,0,1-1.76,1.18,6,6,0,0,1-1.09.57c-.62.21-1.23.44-1.85.61-.26.07-.32.15-.28.41a1.41,1.41,0,0,1-.63,1.56,4.2,4.2,0,0,1-.52.26.51.51,0,0,0-.34.47,2.81,2.81,0,0,0,0,.58,2.67,2.67,0,0,0,.9,1.6c.26.27.58.08.87.1h.1a9.42,9.42,0,0,0,3.95-.33l.69-.16.87-.29a14,14,0,0,0,2.3-1,20.12,20.12,0,0,1,2.9-1.61S336.85,323.47,331.18,322.63Z"/><path class="cls-84" d="M319.79,338.2,307,285.43a1.81,1.81,0,1,0-3.51.85l12.84,52.77a12.82,12.82,0,0,0-1.41,8.38L320,368.31s1.49,1.76,5.51.78,4.52-3.23,4.52-3.23L324.9,345A12.74,12.74,0,0,0,319.79,338.2Z"/><path class="cls-73" d="M332.12,304.59c-.38.28-3.83,2.56-4.59,2.92h0a59,59,0,0,1-10.95,3.9,3.45,3.45,0,0,1-2.39.07,1.21,1.21,0,0,0-.33-.07,4.74,4.74,0,0,1-1.88-.68,1.77,1.77,0,0,0-2.14-.07,1.71,1.71,0,0,0-.65,1.88c0,.14,0,.24-.14.3a1.43,1.43,0,0,0-.51,2.28.51.51,0,0,1,.08.53,1.7,1.7,0,0,0,1.76,2.08.3.3,0,0,1,.41.2,1.22,1.22,0,0,0,1.16.8,2,2,0,0,0,1.44-.62,17.65,17.65,0,0,1,2.07-1.89A1,1,0,0,1,316,316a5.77,5.77,0,0,0,1.36-.34c3-1.13,5.92-2.37,8.78-3.78.19-.09.36-.25.59-.23h0c0-.06,0-.07.07-.08h0c0-.08.11-.08.18-.08.73-.5,1.55-.85,2.31-1.33s5.41-3.53,5.41-3.87Z"/><path class="cls-85" d="M697,502.23l-2.43-.18c-.63,0-1.25-.14-1.87-.23s-1-.15-1.45-.24a27.66,27.66,0,0,1-5.28-1.5,27.22,27.22,0,0,1-3.84-1.77,28.22,28.22,0,0,1-2.69-1.7,26.23,26.23,0,0,1-2.29-1.76,20.22,20.22,0,0,0-1.65-1.28c-.68-.48-1.39-.92-2.09-1.37-1.31-.82-2.63-1.62-4-2.36a34.24,34.24,0,0,0-3.84-1.9,6.88,6.88,0,0,0-2.08-.64,1.79,1.79,0,0,0-.65,0c-.28.09-.18.35-.22.53a38.45,38.45,0,0,1-2,6.13,29.11,29.11,0,0,1-2.73,5.18c-.42.61-.84,1.2-1.31,1.77s-1,1.1-1.47,1.61-.94.82-1.41,1.23a15.52,15.52,0,0,1-2.85,1.76c-1.34.76-2.73,1.44-4.08,2.2L644,509.37c-1,.55-1.89,1.2-2.87,1.73a1.42,1.42,0,0,0-.69,1.12,29.4,29.4,0,0,1-1.37,5.47,2.67,2.67,0,0,0-.22.78c-.05.28-.28.5-.23.8-.06.14,0,.34-.21.41.09.16-.06.27-.1.4s-.06.17-.12.25l-1.26,2.8c-.28.61-.66,1.16-.89,1.78a.42.42,0,0,1-.2.31c-.5.82-1,1.64-1.5,2.44a9.93,9.93,0,0,1-1.83,2.23,9.43,9.43,0,0,1-.3-1.19c-.23-.84-.26-1.72-.49-2.57a4.22,4.22,0,0,1,0-1,14.89,14.89,0,0,1,0-2.21c.09-.82.2-1.64.37-2.45a24.3,24.3,0,0,1,1-3.35,21.53,21.53,0,0,1,1.19-2.84c.49-.95,1-1.89,1.56-2.8a11.59,11.59,0,0,1,1.88-2.79A19.21,19.21,0,0,0,640,506a18.81,18.81,0,0,0,3.61-7.48,18.07,18.07,0,0,0,.54-3.18c0-.62.07-1.25.09-1.87,0-.28,0-.43-.4-.32a4.24,4.24,0,0,1-1.77-.08.28.28,0,0,1-.33-.06,13.15,13.15,0,0,1-3.27-1.52,17.49,17.49,0,0,1-3-2.47,19.65,19.65,0,0,1-1.71-1.93c-.75-.94-1.48-1.9-2.17-2.89a29.71,29.71,0,0,1-2.57-4.52,23.44,23.44,0,0,1-1.23-3.47,35.19,35.19,0,0,1-.66-4.42,5.26,5.26,0,0,0-.9-2.06,10.46,10.46,0,0,0-1.65-2,16.9,16.9,0,0,0-2.08-1.67,17.07,17.07,0,0,0-1.84-1.2c-.11-.05-.18-.19-.29-.31a5.32,5.32,0,0,1,2.29.33,14.78,14.78,0,0,1,1.89.69,16.13,16.13,0,0,1,2.92,1.65,13.55,13.55,0,0,1,2,1.66,9.77,9.77,0,0,1,1.41,1.74.78.78,0,0,0,.84.43,17.24,17.24,0,0,1,2.59,0c1.18.06,2.34.31,3.5.48s2.36.56,3.54.84a44.23,44.23,0,0,1,4.35,1.43c1.18.41,2.35.87,3.53,1.31,1.8.66,3.54,1.47,5.29,2.25,1.47.66,2.87,1.45,4.29,2.21.23.12.45.26.67.4a.28.28,0,0,0,.46-.14,21.1,21.1,0,0,1,1.9-3.37c.36-.56.79-1.08,1.16-1.64s.85-1,1.21-1.57a4.93,4.93,0,0,1,.84-.87c.48-.43.91-.91,1.39-1.34s.92-.8,1.38-1.19a23.57,23.57,0,0,1,2.28-1.73c1-.65,1.93-1.32,3-1.91s2-1.18,3.1-1.71a16.28,16.28,0,0,1,2.34-1c.31-.1.32-.33.29-.59a8.55,8.55,0,0,0-1-2.68,14.54,14.54,0,0,0-1.68-2.47,18.19,18.19,0,0,0-2.15-2.15,15.71,15.71,0,0,0-2.17-1.65,17.17,17.17,0,0,0-2.57-1.46c-.13-.06-.3-.13-.29-.25s.19-.19.35-.24a17.5,17.5,0,0,1,4.78-.44c1,0,2.08,0,3.12.06.78.06,1.56.13,2.35.23s1.42.21,2.14.26a18.74,18.74,0,0,1,2.48.35c1.71.32,3.41.65,5.1,1.09a34.93,34.93,0,0,1,4.9,1.57,14.94,14.94,0,0,1,4.1,2.44,8.18,8.18,0,0,1,1.76,2,1,1,0,0,0,.83.53c1.08,0,2.17.09,3.25.19s2.18.22,3.26.41a34.18,34.18,0,0,1,5.34,1.42,34.54,34.54,0,0,1,6,2.72,41.87,41.87,0,0,1,4.76,3.17c.68.53,1.38,1,2,1.62s1.24,1.1,1.84,1.67c.79.78,1.54,1.59,2.3,2.4.37.4.69.85,1,1.27a4.19,4.19,0,0,0,1.15.85,11.21,11.21,0,0,1,2,1.4,3.24,3.24,0,0,1,1,3.45c-.13.45-.39.85-.49,1.3a2.07,2.07,0,0,0-.74.07,12.13,12.13,0,0,1-4.67-.12,7.6,7.6,0,0,0,2.86.34,10.74,10.74,0,0,0,2.33-.2.2.2,0,0,1,.22.08c.3.31.63.59.91.92a1.87,1.87,0,0,1,0,2,4.44,4.44,0,0,1-2.33,1.62c-1.06.45-2.12.89-3.18,1.35a5,5,0,0,0-1.07.83c-.89.74-1.78,1.49-2.68,2.22s-2,1.52-3,2.25a35.93,35.93,0,0,1-3.21,2.08c-1.11.63-2.22,1.29-3.37,1.84l-1.83.89c-.16.23-.44.24-.67.34a.63.63,0,0,0-.35.09,38.38,38.38,0,0,1-4.78,1.73,40.78,40.78,0,0,1-5.46,1.38,39.9,39.9,0,0,1-4.75.42Z"/><path class="cls-86" d="M734.31,482.22a12.21,12.21,0,0,1-2.63.24,7.23,7.23,0,0,1-3-.43c-.06,0-.13,0-.16-.16.88.1,1.74.25,2.62.29a8.17,8.17,0,0,0,2.83-.27c.2-.06.25,0,.32.16S734.28,482.16,734.31,482.22Z"/><path class="cls-87" d="M716.23,471.06a5.61,5.61,0,1,1-6.27,4.61A5.6,5.6,0,0,1,716.23,471.06Z"/><path class="cls-87" d="M708.42,485.44a8.43,8.43,0,0,1-1.73-1.22c-.35-.32-.71-.64-1.05-1s-.8-.84-1.18-1.28a18.71,18.71,0,0,1-2-2.82,13.42,13.42,0,0,1-1.33-3.31,11.25,11.25,0,0,1-.44-2.57,6.46,6.46,0,0,1,.43-2.41,11.47,11.47,0,0,1,2.77-4.42,10,10,0,0,1,2.71-2c.29-.15.43,0,.5.25,0,0,0,.06,0,.08.16.47,0,.71-.47.94a8.77,8.77,0,0,0-3.52,3.26,7.57,7.57,0,0,0-1,4.89,13.35,13.35,0,0,0,1.27,4.23,32.79,32.79,0,0,0,2,3.63,29.7,29.7,0,0,0,2.12,2.73C707.82,484.76,708.12,485.1,708.42,485.44Z"/><path class="cls-88" d="M720.07,477.4a4.49,4.49,0,0,1-5.27,3.69,4.55,4.55,0,1,1,1.67-8.94A4.52,4.52,0,0,1,720.07,477.4Z"/><path class="cls-89" d="M715,480.39a3.85,3.85,0,0,1-3.2-4.17,3.8,3.8,0,0,1,4.48-3.39,3.76,3.76,0,0,1,3.14,4.24A3.79,3.79,0,0,1,715,480.39Z"/><path class="cls-90" d="M715.93,475.65a1,1,0,0,1,1.2-.82,1.05,1.05,0,0,1,.8,1.19,1,1,0,0,1-1.13.82A1,1,0,0,1,715.93,475.65Z"/><path class="cls-86" d="M734.28,482c-4.1-.46-7.94-.67-11.07,2.44a.33.33,0,0,0,.46.47c3-3,6.73-2.69,10.61-2.25.42,0,.42-.62,0-.66Z"/><path class="cls-86" d="M722.66,484.11a5.79,5.79,0,0,0,.72,1.53c.23.35.8,0,.57-.33a5.32,5.32,0,0,1-.66-1.38c-.12-.4-.76-.23-.63.18Z"/><path class="cls-91" d="M681.71,478.59a7.59,7.59,0,0,1,2.68-1.75,4,4,0,0,1,2.34.1,30.73,30.73,0,0,1,7.24,2.73,14.48,14.48,0,0,1,3.7,2.81,4.37,4.37,0,0,1,1,2.31,2.16,2.16,0,0,1-1,2.54,9.69,9.69,0,0,1-5,1.57,10.54,10.54,0,0,1-5-1.12,21.24,21.24,0,0,1-4-2.45c-.93-.68-1.76-1.47-2.61-2.23-.32-.29-.65-.56-1-.87a.57.57,0,0,1-.18-.69l.24-.62c.2,0,.3.12.42.23a22.26,22.26,0,0,0,5,3.6,16.09,16.09,0,0,0,6.46,1.93,12,12,0,0,0,2.66-.1,16,16,0,0,1-4.61-.59,21.29,21.29,0,0,1-9.43-5.38.51.51,0,0,1-.21-.29c.19-.29.4-.57.57-.86a.78.78,0,0,1,.28-.29,3.61,3.61,0,0,1,.91,1,10.59,10.59,0,0,0,2.22,1.9,11.89,11.89,0,0,0,3.64,1.66,12.55,12.55,0,0,0,2.73.37,9.84,9.84,0,0,0,1.44,0,11,11,0,0,1-1.88-.31,21.63,21.63,0,0,1-4.64-1.55,8.53,8.53,0,0,1-3.78-3.2A1.59,1.59,0,0,1,681.71,478.59Z"/><path class="cls-92" d="M680.43,480.32a4.53,4.53,0,0,1,.81.71,20.43,20.43,0,0,0,4.82,3.33,19.31,19.31,0,0,0,4.87,1.71,20.63,20.63,0,0,0,3.76.43,1.37,1.37,0,0,1,.4.05,7,7,0,0,1-2.32.27,15.79,15.79,0,0,1-2.47-.25,18.77,18.77,0,0,1-2.81-.82,21.18,21.18,0,0,1-4.71-2.59,21.9,21.9,0,0,1-2.66-2.24A1,1,0,0,1,680.43,480.32Z"/><path class="cls-92" d="M681.71,478.59c.22,0,.24.24.31.36a7.27,7.27,0,0,0,2.43,2.41,15.32,15.32,0,0,0,3.93,1.73,29.64,29.64,0,0,0,4.15.94c-3.28.7-8.57-.93-11.25-4.86C681.3,478.88,681.51,478.74,681.71,478.59Z"/><path class="cls-93" d="M719.79,472.88s-6.08,1.63-9,6.8c0,0-3.31-4.08.81-7.61S719.79,472.88,719.79,472.88Z"/><path class="cls-94" d="M510.21,477a6.24,6.24,0,0,0,.68.94c.25.18.32.51.57.68.09.13,0,.38.27.39a1.55,1.55,0,0,0,.47.66,4.2,4.2,0,0,0,.72,1.25,38.7,38.7,0,0,1,2.57,4.95c-.12.91,0,1.83-.18,2.74-.08.48,0,.51.43.39,2-.47,4-.86,5.94-1.24,3.88-.75,7.77-1.42,11.69-2,3.42-.47,6.85-.86,10.3-1.08,1.83-.12,3.68-.17,5.52-.16s3.56.13,5.34.32a4.35,4.35,0,0,1,2,.6,28.82,28.82,0,0,1-1.66,3.22,29.22,29.22,0,0,1-3.07,4.27c-.11.1-.16.25-.29.33l-2.42,2.53c-1-.26-2-.68-3.09-.89-1.71-.34-3.42-.73-5.14-1-1.48-.27-3-.47-4.44-.73-2-.35-4-.57-6-.82-1.16-.14-2.3-.36-3.46-.43-1.77-.11-3.52-.42-5.28-.55-1.5-.11-3-.27-4.49-.36-.76,0-1.53-.1-2.3-.09a.56.56,0,0,0-.57.39c-.45,1.05-.47,1.06.36,1.86,1.2,1.15,2.4,2.29,3.63,3.42s2.29,2.21,3.47,3.28,2.62,2.38,3.94,3.56,2.68,2.37,4,3.52,3,2.51,4.6,3.62a9.3,9.3,0,0,0,2.23,1.28.63.63,0,0,1,.36.22c-.15,1.71-.42,3.4-.65,5.1-.09.61-.27,1.21-.3,1.83,0,.18,0,.36,0,.54a6.07,6.07,0,0,0-.29,1.64.71.71,0,0,0-.08.45l-.31,1.43a4.36,4.36,0,0,0-.05.52c-.41,1.5-.65,3-1,4.57a31,31,0,0,1-2.13,6.11c-.17.36-.4.7-.61,1-.38-.14-.47-.52-.63-.82-1.26-2.43-2.59-4.83-3.85-7.26-1.12-2.16-2.16-4.36-3.25-6.54-.85-1.69-1.64-3.42-2.41-5.15-1-2.16-1.91-4.33-2.78-6.52-1.05-2.61-2-5.25-2.92-7.92-.35-1-.65-2.11-1-3.17-.46-1.45-1.06-2.84-1.54-4.38-.32.59-.74,1-1,1.49-.11.2-.22.43-.53.35a.91.91,0,0,0-1.15-.66,22.71,22.71,0,0,0-5,1.73c-1,.47-2,.88-2.95,1.35-.79.39-1.54.85-2.31,1.28-1.16.64-2.35,1.23-3.47,1.93a25.38,25.38,0,0,0-3.79,2.55,22.79,22.79,0,0,1-1.95,1.44,2.58,2.58,0,0,1-.71.47c-.87.54-1.68,1.19-2.6,1.66-1.33.67-2.62,1.4-4,1.95s-2.55,1-3.86,1.4-2.73.68-4.12.94a44.45,44.45,0,0,1-5.64.64q-1.53.09-3.06,0a2.48,2.48,0,0,0-.38,0l-2.06-.15c-.17,0-.35,0-.52,0-1.21-.16-2.43-.28-3.64-.49a45.34,45.34,0,0,1-5.48-1.39,51.76,51.76,0,0,1-6.32-2.29c-1.51-.68-3-1.31-4.47-2.13-.58-.33-1.17-.62-1.76-.93a1.38,1.38,0,0,0-.28-.19,66.93,66.93,0,0,1-8.45-5.61c-.07-.17-.25-.22-.37-.33l-.51-.37c-.07-.18-.26-.21-.37-.34a35,35,0,0,1-2.79-2.35L426.89,493a1.41,1.41,0,0,0-.44-.33c-1-.43-2-.8-3-1.32a14.37,14.37,0,0,1-3-1.59c-1.32-1.2-1.81-2.83-.15-4.12A1.78,1.78,0,0,0,421,485a.23.23,0,0,1,.21,0,14.42,14.42,0,0,0,3.07.39,11.41,11.41,0,0,0,3.5-.27,20.16,20.16,0,0,1-5.09,0,8,8,0,0,1-1.64-.45,4.42,4.42,0,0,1,.38-5.36,8.43,8.43,0,0,0,.69-.65c.2-.21.5-.29.67-.55l.41-.28c.2,0,.31-.22.51-.25a10.65,10.65,0,0,0,2.26-1.43c.51-.54,1-1.14,1.49-1.68a51.79,51.79,0,0,1,4.6-4.29c.15-.18.39-.24.52-.44l.31-.24c.09-.18.33-.21.41-.4,1.52-1.05,3-2.18,4.55-3.13a42,42,0,0,1,3.81-2.17,3.32,3.32,0,0,0,.41-.28c.16,0,.27-.13.42-.17,1.21-.49,2.36-1.12,3.59-1.57s2.36-.87,3.58-1.21c.89-.25,1.77-.54,2.67-.75s2.1-.39,3.15-.58a46.28,46.28,0,0,1,5.51-.53c1.07-.06,2.14-.07,3.22-.06a1.68,1.68,0,0,0,1-.27,1.21,1.21,0,0,1,.73-.4,31.09,31.09,0,0,1,5.67-.87,57.37,57.37,0,0,1,6.81-.18,70.85,70.85,0,0,1,7.26.62,51.63,51.63,0,0,1,6.29,1.31c.49.14.95.34,1.43.49.13,0,.27.09.31.26a13.92,13.92,0,0,0-1.46,3.55c-.08.34-.06.54.33.72a38.94,38.94,0,0,1,4.4,2.28,54.8,54.8,0,0,1,5.41,3.68c.75.6,1.55,1.17,2.29,1.79a39.41,39.41,0,0,1,3.08,2.68c.71.73,1.4,1.5,2.06,2.28C510,476.68,510,476.92,510.21,477Z"/><path class="cls-89" d="M537,512.06a7.7,7.7,0,0,1-2.76-1.45c-.82-.54-1.57-1.19-2.34-1.81-1-.82-2.06-1.64-3-2.52-.83-.73-1.7-1.42-2.52-2.17-1.26-1.15-2.54-2.27-3.8-3.42s-2.54-2.35-3.8-3.54l-4.82-4.56a.34.34,0,0,1-.07-.51,2.42,2.42,0,0,0,.39-.81c.07-.45.3-.52.7-.5,1.7.07,3.4.17,5.1.32,2,.18,4,.4,5.94.6s4,.47,6,.72c2.33.3,4.65.63,7,1s4.34.75,6.5,1.23c1,.24,2.06.52,3.07.84.23.07.5.09.65.33-1.28,1.28-2.74,2.35-4.09,3.54-.15.28-.51.32-.66.59-1.24.85-2.31,1.93-3.56,2.76a1.62,1.62,0,0,1-.61.43,13.58,13.58,0,0,1-1.4.93,1.72,1.72,0,0,0-1,1.51c-.06.67-.2,1.34-.3,2,0,.18,0,.35,0,.53a10.82,10.82,0,0,0-.26,2.27c0,.18,0,.36,0,.54C537.09,511.3,537.44,511.78,537,512.06Z"/><path class="cls-95" d="M511.63,495.38A.86.86,0,0,0,512,495c.32-.53.67-1,1-1.55.05-.07.05-.19.18-.17s.09.12.12.2c.37,1.28.86,2.51,1.31,3.77s.81,2.55,1.22,3.83c.73,2.25,1.57,4.47,2.43,6.67.94,2.42,2,4.79,3,7.16s2.14,4.69,3.27,7,2.32,4.69,3.54,7c1.13,2.13,2.28,4.24,3.42,6.36a12.22,12.22,0,0,1-4.84,6.42c-.2,0-.29.21-.49.23-.38.11-.79.34-1-.25-.25-.22-.34-.57-.62-.76a36.67,36.67,0,0,1-2.59-4.35c-1.23-2.41-2.35-4.87-3.39-7.37-.86-2.06-1.68-4.14-2.5-6.21-.69-1.73-1.3-3.48-2.06-5.19a26.45,26.45,0,0,1-1.44-4.55,49.21,49.21,0,0,1-1.13-6.71c-.08-.83-.15-1.67-.15-2.51,0-.67-.08-1.34-.06-2,0-.11,0-.24,0-.35,0-.92.06-1.84.07-2.75s.15-2,.18-3A2.72,2.72,0,0,1,511.63,495.38Z"/><path class="cls-95" d="M556.56,485.47a25.11,25.11,0,0,0-6.28-.76c-1.49,0-3,0-4.46,0s-3.16.15-4.74.33c-1.21.14-2.42.21-3.63.34-1.64.19-3.27.4-4.91.63-1.35.19-2.69.4-4,.63q-2.93.51-5.85,1.05c-1.78.34-3.54.7-5.31,1-.74.15-1.47.32-2.25.49a14.68,14.68,0,0,0,.19-2.87c0-.22.16-.34.21-.52.47,0,.79-.38,1.18-.58A91.65,91.65,0,0,1,526,481.1a81.77,81.77,0,0,1,9.21-3c.19,0,.33-.24.55-.17a4.34,4.34,0,0,0,.48-.14,36.4,36.4,0,0,1,5.15-1.13c1.72-.29,3.46-.47,5.19-.62.41,0,.82,0,1.23-.06a50.92,50.92,0,0,1,5.24.12c1.43.13,2.82.41,4.23.66a.84.84,0,0,1,.64.44,3.17,3.17,0,0,1,.18.62,9.34,9.34,0,0,1,0,2.64c0,.18,0,.36,0,.54-.31,1.09-.55,2.2-.93,3.27A8.1,8.1,0,0,1,556.56,485.47Z"/><path class="cls-95" d="M500.1,453.09l-1.3.88a30.78,30.78,0,0,0-4.68-.54c-2-.13-4-.23-6-.2s-4.07.09-6.1.26a53.14,53.14,0,0,0-7.84,1.16,32,32,0,0,0-5.66,1.83,22.53,22.53,0,0,0-2.7,1.53c-.17.1-.32.24-.54.15a7.75,7.75,0,0,1,1.74-2.08,18.58,18.58,0,0,1,5.92-3.47c.27-.11.6-.07.82-.32.17,0,.26-.14.42-.14.72-.1,1.39-.42,2.1-.59,1.2-.28,2.41-.59,3.62-.84,1.48-.31,3-.6,4.45-.8s2.81-.39,4.21-.54,2.69-.26,4-.34c1-.07,2-.09,3-.1,1.22,0,2.44,0,3.65.05a2.55,2.55,0,0,0,.39,0l.84.09c.18,0,.35,0,.53,0a27.7,27.7,0,0,1,3.26.54,3.74,3.74,0,0,1,.54.17.43.43,0,0,1,.32.37c0,.21-.2.21-.36.27a18.81,18.81,0,0,0-3.9,2.16A1.79,1.79,0,0,0,500.1,453.09Z"/><path class="cls-89" d="M465.3,458.16c.46-.06.74-.43,1.1-.66a23.31,23.31,0,0,1,6.7-2.74,50.23,50.23,0,0,1,6.44-1.16c2.22-.27,4.45-.4,6.68-.47,1.6,0,3.2,0,4.79,0,2.33.08,4.64.25,6.94.53a1.34,1.34,0,0,1,.85.28,20.62,20.62,0,0,0-4.93,5.52c0,.05-.11.08-.16.12a35.44,35.44,0,0,0-7.66-1.88c-1.2-.16-2.39-.34-3.6-.44-1.87-.16-3.75-.23-5.63-.24-1.1,0-2.19,0-3.29.08a44.63,44.63,0,0,0-5.41.53,13.77,13.77,0,0,0-2.91.72C465.15,458.27,465.32,458.25,465.3,458.16Z"/><path class="cls-96" d="M557.82,477.24a1.14,1.14,0,0,0-.72-.37,30.37,30.37,0,0,0-4.84-.71,24,24,0,0,0-3.6-.06,6.19,6.19,0,0,1-.86,0c-.07,0-.14,0-.18-.05a.07.07,0,0,1,.07-.1c1.37-.13,2.74-.08,4.11-.1a4.86,4.86,0,0,1,.54,0l.69.06c.17,0,.34,0,.52,0,1,.11,1.9.2,2.85.35a8.16,8.16,0,0,1,1.23.36.54.54,0,0,1,.4.81C557.93,477.39,557.9,477.27,557.82,477.24Z"/><path class="cls-97" d="M421,484.67c.16-.1.31,0,.46,0a13.55,13.55,0,0,0,4.79.36c.61,0,1.22-.1,1.85-.17-.44.79-5.12.84-7.15.09Z"/><path class="cls-98" d="M547.69,475.91c-.05.12.07.11.11.15l-2.19.19A48.73,48.73,0,0,0,540,477l-3.76.8,0-.06a12.58,12.58,0,0,1,2.88-.8,49.43,49.43,0,0,1,5.54-.86A21.3,21.3,0,0,1,547.69,475.91Z"/><path class="cls-99" d="M557.82,477.24l.21.14c.18.13.14.28.07.45C557.9,477.68,558,477.42,557.82,477.24Z"/><path class="cls-88" d="M524.59,540.94c.33.15.41.51.62.76C524.89,541.53,524.8,541.19,524.59,540.94Z"/><path class="cls-88" d="M490.35,505.47l.71-.47A.93.93,0,0,1,490.35,505.47Z"/><path class="cls-88" d="M540.2,503.14l.61-.43A.72.72,0,0,1,540.2,503.14Z"/><path class="cls-88" d="M537.24,510.94c-.14-.18,0-.36,0-.54A.48.48,0,0,1,537.24,510.94Z"/><path class="cls-88" d="M535.63,521.62c-.06-.16-.12-.33.08-.45A.64.64,0,0,1,535.63,521.62Z"/><path class="cls-88" d="M535.27,523.57a.54.54,0,0,1,.05-.52A.51.51,0,0,1,535.27,523.57Z"/><path class="cls-88" d="M537.51,508.13a.8.8,0,0,1,0-.53A.49.49,0,0,1,537.51,508.13Z"/><path class="cls-88" d="M536,519.53a.64.64,0,0,1,0-.54A.48.48,0,0,1,536,519.53Z"/><path class="cls-88" d="M526.2,542c.17-.07.26-.29.49-.23C526.53,541.8,526.42,542,526.2,542Z"/><path class="cls-88" d="M511.23,501.68a.27.27,0,0,1,0,.35C511,501.94,511.25,501.79,511.23,501.68Z"/><path class="cls-100" d="M536.18,477.78l0,.06a.38.38,0,0,1-.45.1A.5.5,0,0,1,536.18,477.78Z"/><path class="cls-95" d="M486.17,505.36c-.07.45-.45.71-.65,1.07-.08.16-.24.11-.39.09-.88-.11-1.76-.18-2.64-.33a32,32,0,0,1-8.86-2.48,14.22,14.22,0,0,1-4.81-3.51,13.18,13.18,0,0,1-2.94-6,6.31,6.31,0,0,1,0-2.25,2,2,0,0,1,1.26-1.47c.65-.32,1.31-.64,2-.9a3.51,3.51,0,0,1,1.36-.09,18.37,18.37,0,0,1,7,1.86,36.66,36.66,0,0,1,4.1,2.2,23.21,23.21,0,0,1,4.48,3.34,4.94,4.94,0,0,1,1.08,3,7,7,0,0,1,.05,2.05,2.84,2.84,0,0,1-1.51.29,12.2,12.2,0,0,1-5.43-1.3,33.31,33.31,0,0,1-4.12-2.51c-.89-.63-1.7-1.36-2.55-2.05a.89.89,0,0,1-.21-.26,16.66,16.66,0,0,0,2.35,2.68,15.47,15.47,0,0,0,7.7,3.79,11,11,0,0,0,2.87.2.9.9,0,0,1,.68.1,4.79,4.79,0,0,1-.5,1.78,11.1,11.1,0,0,1-2.37-.26,29,29,0,0,1-4.94-1.4,24.87,24.87,0,0,1-7.75-4.68,16.89,16.89,0,0,1-2.57-2.64c-.09-.13-.15-.28-.25-.41s-.12-.16-.13-.2a.93.93,0,0,1,.1.17,18.89,18.89,0,0,0,3.17,4,22.47,22.47,0,0,0,8.83,4.89,25.38,25.38,0,0,0,5.17,1.13A.54.54,0,0,1,486.17,505.36Z"/><path class="cls-89" d="M441.09,472.92a7.11,7.11,0,0,1,10,2,7.14,7.14,0,1,1-12,7.78A7.1,7.1,0,0,1,441.09,472.92Z"/><path class="cls-89" d="M454.46,501.16l2.21-2.37a39.46,39.46,0,0,0,4-5,31.12,31.12,0,0,0,2.87-5.67,27.06,27.06,0,0,0,1.27-4,18.28,18.28,0,0,0,0-8.88,15,15,0,0,0-3.2-6.06,15.43,15.43,0,0,0-4.92-3.89.91.91,0,0,1-.4-1.45.4.4,0,0,1,.62-.16,18,18,0,0,1,5.72,4.93,17.69,17.69,0,0,1,3.09,7.08,18.89,18.89,0,0,1,.15,7,29.36,29.36,0,0,1-1.6,5.37,31.42,31.42,0,0,1-1.76,3.93,27.65,27.65,0,0,1-3.65,5.31,18.36,18.36,0,0,1-3.2,3A4.44,4.44,0,0,1,454.46,501.16Z"/><path class="cls-89" d="M468.63,495.17a20.74,20.74,0,0,0,3.55,3.58,25.79,25.79,0,0,0,9.73,5,30,30,0,0,0,4,.76c.2,0,.38.09.57.13a1,1,0,0,1-.31.75,25.32,25.32,0,0,1-6-1.28,23.83,23.83,0,0,1-5-2.24,19.5,19.5,0,0,1-2.78-1.95,16.57,16.57,0,0,1-2.38-2.43,13.39,13.39,0,0,1-1.47-2.25C468.53,495.15,468.57,495.13,468.63,495.17Z"/><path class="cls-89" d="M487,502.83a15.16,15.16,0,0,1-13.83-7.06c.54.46,1.09.88,1.62,1.34a26.34,26.34,0,0,0,2.84,2.1,18.86,18.86,0,0,0,4.43,2.25,9.27,9.27,0,0,0,4.95.42,1.55,1.55,0,0,1,.21,0C487.15,502.21,487.26,502.57,487,502.83Z"/><path class="cls-101" d="M468.63,495.17l-.12,0c0-.17-.31-.24-.24-.49A1.11,1.11,0,0,1,468.63,495.17Z"/><path class="cls-88" d="M448.27,483.55a5.77,5.77,0,1,1,1.48-8A5.75,5.75,0,0,1,448.27,483.55Z"/><path class="cls-89" d="M441.88,475.1a4.85,4.85,0,1,1,5.93,7.67,4.85,4.85,0,0,1-5.93-7.67Z"/><path class="cls-90" d="M444.15,478.77a1.32,1.32,0,0,1-1.83-.18,1.28,1.28,0,0,1,.28-1.91,1.44,1.44,0,0,1,1.76.22A1.34,1.34,0,0,1,444.15,478.77Z"/><path d="M420.54,484.17a24.88,24.88,0,0,0,2.91.49,22.65,22.65,0,0,0,3,.16,12.73,12.73,0,0,0,2.95-.35,6.67,6.67,0,0,0,2.68-1.29,6.74,6.74,0,0,1-2.57,1.64,12.93,12.93,0,0,1-3,.75,24.56,24.56,0,0,1-3.09.22,27.35,27.35,0,0,1-3.12-.14Z"/></svg>