<svg id="Layer_2" data-name="Layer 2" xmlns="http://www.w3.org/2000/svg" xmlns:xlink="http://www.w3.org/1999/xlink" viewBox="0 0 1920 1080">
  <defs>
    <style>
      .cls-1, .cls-3 {
        fill: none;
      }

      .cls-2 {
        clip-path: url(#clip-path);
      }

      .cls-3 {
        stroke: #2bb673;
        stroke-linecap: round;
        stroke-linejoin: round;
        stroke-width: 4.51px;
      }

      .cls-4 {
        fill: #3ce7ee;
      }

      .cls-5 {
        fill: #fff200;
      }

      .cls-6 {
        fill: #2bb673;
      }
    </style>
    <clipPath id="clip-path">
      <rect class="cls-1" width="1920" height="1080"/>
    </clipPath>
  </defs>
  <title>BlueFlower-head_spins-2</title>
  <g class="cls-2">
    <g>
      <path class="cls-3" d="M1466.71,1006.28s13.76,15.88,12.35,81.85"/>
      <g>
        <path class="cls-4" d="M1462.87,1019.06c-3.27,5.77-6.43,7.71-11.23,7a9.75,9.75,0,0,1-8-7.39c-1-4.46.79-7.25,7.51-11.92-9.72-5.07-12-8.85-8.57-15.08a8.84,8.84,0,0,1,8.41-4.88c3.61.06,6.14,2.52,9.13,4.81-.07-5.88.53-11.1,6.94-12.92a9.39,9.39,0,0,1,10.41,4.07c3.18,4.63,1.23,8.94-1.44,13.07,7.27-3,11.57-2.68,14.71,1a10.12,10.12,0,0,1,.86,11.43c-2.45,4-6.86,5.19-13.69,3.58,2.59,2.49,4.48,5.18,4.87,8.47a8.61,8.61,0,0,1-3.88,8.38,9.46,9.46,0,0,1-10.9.31C1464.46,1026.7,1464.09,1022.79,1462.87,1019.06Zm-4-4.5c5.32,3.68,13,2.41,16.41-2.66a12.28,12.28,0,0,0-2.8-16.86,11.78,11.78,0,0,0-16.45,2.71,3,3,0,0,0-.2.29,11.54,11.54,0,0,0,2.49,16.14C1458.52,1014.31,1458.7,1014.44,1458.89,1014.56Z"/>
        <path class="cls-5" d="M1458.89,1014.56a11.55,11.55,0,0,1-3.34-16l.34-.5a11.8,11.8,0,0,1,16.37-3.2l.29.2a12.3,12.3,0,0,1,2.8,16.87C1471.94,1017,1464.22,1018.24,1458.89,1014.56Z"/>
      </g>
      <path class="cls-6" d="M1480,1033.4c3.39-3.31,15.61-6.78,17.37-5s-2,13.94-5.37,17.25-9,5.71-13.44,1.14S1476.62,1036.71,1480,1033.4Z"/>
    </g>
  </g>
</svg>
