<svg id="Layer_1" data-name="Layer 1" xmlns="http://www.w3.org/2000/svg" viewBox="0 0 92.12 174.83">
  <defs>
    <style>
      .cls-1 {
        fill: none;
        stroke: #2bb673;
        stroke-linecap: round;
        stroke-linejoin: round;
        stroke-width: 7.07px;
      }

      .cls-2 {
        fill: #3ce7ee;
      }

      .cls-3 {
        fill: #fff200;
      }

      .cls-4 {
        fill: #2bb673;
      }
    </style>
  </defs>
  <title>BlueFlower</title>
  <g>
    <path class="cls-1" d="M184.31,952.83s21.55,24.86,19.34,128.17" transform="translate(-140.91 -909.7)"/>
    <path class="cls-2" d="M191.58,970.59c.92,10.35-1.44,15.6-8.25,19a15.22,15.22,0,0,1-16.93-2.37c-5.21-4.89-5.43-10-.93-22-17,2.12-23.3-.77-24.46-11.8a13.94,13.94,0,0,1,6.5-13.79c4.73-3.1,10.16-2.2,16.05-1.91-5.33-7.52-9.19-14.77-2.56-22.82,4-4.83,10.61-6.51,17-4,8.23,3.21,9.54,10.43,9.77,18.11,6.72-10.31,12.47-13.74,19.83-11.81a15.87,15.87,0,0,1,11.28,14c.39,7.31-4.23,12.8-14.46,16.78,5.54.91,10.38,2.7,13.81,6.6a13.54,13.54,0,0,1,2.47,14.25A14.85,14.85,0,0,1,207,978.82C200.39,979,196.47,974.24,191.58,970.59Zm-9.14-2.27c10.14,0,19-8.49,18.82-18a19.24,19.24,0,0,0-18.63-19.23,18.45,18.45,0,0,0-18.71,18.67A18.07,18.07,0,0,0,182.44,968.32Z" transform="translate(-140.91 -909.7)"/>
    <path class="cls-3" d="M182.44,968.32a18.07,18.07,0,0,1-18.52-18.58,18.45,18.45,0,0,1,18.71-18.67,19.24,19.24,0,0,1,18.63,19.23C201.41,959.83,192.58,968.34,182.44,968.32Z" transform="translate(-140.91 -909.7)"/>
    <path class="cls-4" d="M205.14,995.29c5.3-5.18,24.44-10.6,27.19-7.79s-3.1,21.82-8.41,27-14,8.94-21,1.78S199.83,1000.48,205.14,995.29Z" transform="translate(-140.91 -909.7)"/>
  </g>
</svg>
