<svg id="Layer_7" data-name="Layer 7" xmlns="http://www.w3.org/2000/svg" xmlns:xlink="http://www.w3.org/1999/xlink" viewBox="0 0 1920 1080">
  <defs>
    <style>
      .cls-1, .cls-3 {
        fill: none;
      }

      .cls-2 {
        clip-path: url(#clip-path);
      }

      .cls-3 {
        stroke: #2bb673;
        stroke-linecap: round;
        stroke-linejoin: round;
        stroke-width: 4.51px;
      }

      .cls-4 {
        fill: #3ce7ee;
      }

      .cls-5 {
        fill: #fff200;
      }

      .cls-6 {
        fill: #2bb673;
      }
    </style>
    <clipPath id="clip-path">
      <rect class="cls-1" width="1920" height="1080"/>
    </clipPath>
  </defs>
  <title>BlueFlower-head_spins-6</title>
  <g class="cls-2">
    <g>
      <path class="cls-3" d="M1466.71,1006.28s13.76,15.88,12.35,81.85"/>
      <g>
        <path class="cls-4" d="M1460.39,991c.46-6.62,2.48-9.73,7.12-11.16A9.75,9.75,0,0,1,1478,983c2.79,3.61,2.41,6.88-1.65,14,11,.4,14.61,2.85,14.22,9.93a8.87,8.87,0,0,1-5.49,8c-3.28,1.49-6.63.36-10.32-.42,2.6,5.28,4.3,10.25-.7,14.65a9.4,9.4,0,0,1-11.15.8c-4.86-2.81-4.95-7.54-4.32-12.41-5.27,5.82-9.29,7.4-13.7,5.44a10.1,10.1,0,0,1-5.69-9.94c.49-4.65,4-7.64,10.81-9.12-3.4-1.14-6.27-2.75-8-5.56a8.6,8.6,0,0,1-.1-9.23,9.45,9.45,0,0,1,9.71-5C1455.66,984.76,1457.68,988.12,1460.39,991Zm5.52,2.34c-6.38-1-12.81,3.44-13.67,9.46a12.29,12.29,0,0,0,9.79,14,11.79,11.79,0,0,0,13.68-9.53l.06-.34a11.55,11.55,0,0,0-9.19-13.5Z"/>
        <path class="cls-5" d="M1465.91,993.31a11.57,11.57,0,0,1,9.9,13c0,.2-.06.4-.1.6a11.79,11.79,0,0,1-13.39,9.93l-.35-.06a12.29,12.29,0,0,1-9.79-14C1453.1,996.75,1459.52,992.28,1465.91,993.31Z"/>
      </g>
      <path class="cls-6" d="M1480,1033.4c3.39-3.31,15.61-6.78,17.37-5s-2,13.94-5.37,17.25-9,5.71-13.44,1.14S1476.62,1036.71,1480,1033.4Z"/>
    </g>
  </g>
</svg>
