<svg id="Layer_1" data-name="Layer 1" xmlns="http://www.w3.org/2000/svg" viewBox="0 0 58.83 111.65">
  <defs>
    <style>
      .cls-1 {
        fill: none;
        stroke: #2bb673;
        stroke-linecap: round;
        stroke-linejoin: round;
        stroke-width: 4.51px;
      }

      .cls-2 {
        fill: #3ce7ee;
      }

      .cls-3 {
        fill: #fff200;
      }

      .cls-4 {
        fill: #2bb673;
      }
    </style>
  </defs>
  <title>BlueFlower-head_spins-1</title>
  <g>
    <path class="cls-1" d="M1466.71,1006.28s13.76,15.88,12.35,81.85" transform="translate(-1438.99 -978.74)"/>
    <path class="cls-2" d="M1471.35,1017.62c.59,6.61-.91,10-5.26,12.14a9.74,9.74,0,0,1-10.82-1.52c-3.33-3.12-3.47-6.41-.59-14.07-10.88,1.35-14.88-.49-15.62-7.54a8.87,8.87,0,0,1,4.15-8.8c3-2,6.49-1.41,10.25-1.23-3.4-4.8-5.87-9.43-1.63-14.57a9.39,9.39,0,0,1,10.88-2.56c5.25,2,6.09,6.66,6.24,11.57,4.28-6.59,8-8.78,12.66-7.55a10.12,10.12,0,0,1,7.2,8.92c.25,4.67-2.7,8.17-9.23,10.72,3.54.58,6.63,1.72,8.82,4.21a8.63,8.63,0,0,1,1.57,9.1,9.47,9.47,0,0,1-8.8,6.44C1477,1023,1474.47,1020,1471.35,1017.62Zm-5.83-1.44c6.47,0,12.11-5.43,12-11.51a12.29,12.29,0,0,0-11.89-12.29,11.79,11.79,0,0,0-12,11.93A11.55,11.55,0,0,0,1465.52,1016.18Z" transform="translate(-1438.99 -978.74)"/>
    <path class="cls-3" d="M1465.52,1016.18a11.55,11.55,0,0,1-11.83-11.87,11.79,11.79,0,0,1,12-11.93,12.29,12.29,0,0,1,11.89,12.29C1477.63,1010.75,1472,1016.18,1465.52,1016.18Z" transform="translate(-1438.99 -978.74)"/>
    <path class="cls-4" d="M1480,1033.4c3.39-3.31,15.61-6.78,17.37-5s-2,13.94-5.37,17.25-9,5.71-13.44,1.14S1476.62,1036.71,1480,1033.4Z" transform="translate(-1438.99 -978.74)"/>
  </g>
</svg>
