<svg id="Layer_4" data-name="Layer 4" xmlns="http://www.w3.org/2000/svg" xmlns:xlink="http://www.w3.org/1999/xlink" viewBox="0 0 1920 1080">
  <defs>
    <style>
      .cls-1, .cls-3 {
        fill: none;
      }

      .cls-2 {
        clip-path: url(#clip-path);
      }

      .cls-3 {
        stroke: #2bb673;
        stroke-linecap: round;
        stroke-linejoin: round;
        stroke-width: 4.51px;
      }

      .cls-4 {
        fill: #3ce7ee;
      }

      .cls-5 {
        fill: #fff200;
      }

      .cls-6 {
        fill: #2bb673;
      }
    </style>
    <clipPath id="clip-path">
      <rect class="cls-1" width="1920" height="1080"/>
    </clipPath>
  </defs>
  <title>BlueFlower-head_spins-4</title>
  <g class="cls-2">
    <g>
      <path class="cls-3" d="M1466.71,1006.28s13.76,15.88,12.35,81.85"/>
      <g>
        <path class="cls-4" d="M1450.41,1006.11c-6.36-1.86-9-4.5-9.37-9.33a9.73,9.73,0,0,1,5.36-9.51c4.12-2,7.24-.89,13.32,4.59,2.71-10.62,5.89-13.67,12.72-11.79a8.87,8.87,0,0,1,6.68,7.08c.76,3.53-1.06,6.56-2.6,10,5.71-1.41,10.92-2,14.15,3.81a9.38,9.38,0,0,1-1.59,11.06c-3.78,4.16-8.42,3.24-13,1.58,4.57,6.4,5.25,10.66,2.4,14.55a10.11,10.11,0,0,1-10.93,3.44c-4.44-1.47-6.62-5.5-6.61-12.51-1.83,3.08-4,5.54-7.14,6.67a8.62,8.62,0,0,1-9-1.86,9.49,9.49,0,0,1-2.78-10.55C1443.34,1009.41,1447.06,1008.15,1450.41,1006.11Zm3.47-4.9c-2.36,6,.63,13.26,6.33,15.38A12.29,12.29,0,0,0,1476,1010a11.8,11.8,0,0,0-6.4-15.4l-.32-.13a11.56,11.56,0,0,0-15.15,6.11C1454,1000.8,1454,1001,1453.88,1001.21Z"/>
        <path class="cls-5" d="M1453.88,1001.21a11.55,11.55,0,0,1,14.81-6.89l.56.22a11.79,11.79,0,0,1,6.85,15.2c0,.11-.08.22-.13.33a12.3,12.3,0,0,1-15.78,6.58C1454.51,1014.47,1451.52,1007.25,1453.88,1001.21Z"/>
      </g>
      <path class="cls-6" d="M1480,1033.4c3.39-3.31,15.61-6.78,17.37-5s-2,13.94-5.37,17.25-9,5.71-13.44,1.14S1476.62,1036.71,1480,1033.4Z"/>
    </g>
  </g>
</svg>
