<svg id="Layer_5" data-name="Layer 5" xmlns="http://www.w3.org/2000/svg" xmlns:xlink="http://www.w3.org/1999/xlink" viewBox="0 0 1920 1080">
  <defs>
    <style>
      .cls-1, .cls-3 {
        fill: none;
      }

      .cls-2 {
        clip-path: url(#clip-path);
      }

      .cls-3 {
        stroke: #2bb673;
        stroke-linecap: round;
        stroke-linejoin: round;
        stroke-width: 4.51px;
      }

      .cls-4 {
        fill: #3ce7ee;
      }

      .cls-5 {
        fill: #fff200;
      }

      .cls-6 {
        fill: #2bb673;
      }
    </style>
    <clipPath id="clip-path">
      <rect class="cls-1" width="1920" height="1080"/>
    </clipPath>
  </defs>
  <title>BlueFlower-head_spins-5</title>
  <g class="cls-2">
    <g>
      <path class="cls-3" d="M1466.71,1006.28s13.76,15.88,12.35,81.85"/>
      <g>
        <path class="cls-4" d="M1452.87,996.58c-3.7-5.51-4-9.21-1.23-13.17a9.75,9.75,0,0,1,10.22-3.88c4.42,1.14,6.12,4,7.28,12.06,8.89-6.42,13.28-6.73,17.32-.91a8.86,8.86,0,0,1,.59,9.71c-1.66,3.2-5,4.36-8.39,6,5.29,2.58,9.68,5.45,8.43,12a9.38,9.38,0,0,1-8.3,7.48c-5.57.77-8.54-2.91-11-7.14-.58,7.83-2.79,11.54-7.46,12.71a10.13,10.13,0,0,1-10.61-4.36c-2.46-4-1.56-8.46,2.94-13.84-3.38,1.19-6.64,1.68-9.76.55a8.62,8.62,0,0,1-5.75-7.22,9.48,9.48,0,0,1,4.62-9.88C1445.33,994.58,1449,996,1452.87,996.58Zm5.8-1.54c-5.67,3.11-8,10.58-5,15.86A12.28,12.28,0,0,0,1470,1016a11.8,11.8,0,0,0,5-15.93l-.17-.31a11.56,11.56,0,0,0-15.54-5C1459.06,994.82,1458.86,994.92,1458.67,995Z"/>
        <path class="cls-5" d="M1458.67,995a11.55,11.55,0,0,1,15.79,4.18c.1.18.2.35.29.53a11.8,11.8,0,0,1-4.47,16.07l-.31.16a12.29,12.29,0,0,1-16.34-5.05C1450.67,1005.62,1453,998.15,1458.67,995Z"/>
      </g>
      <path class="cls-6" d="M1480,1033.4c3.39-3.31,15.61-6.78,17.37-5s-2,13.94-5.37,17.25-9,5.71-13.44,1.14S1476.62,1036.71,1480,1033.4Z"/>
    </g>
  </g>
</svg>
