<svg id="Layer_3" data-name="Layer 3" xmlns="http://www.w3.org/2000/svg" xmlns:xlink="http://www.w3.org/1999/xlink" viewBox="0 0 1920 1080">
  <defs>
    <style>
      .cls-1, .cls-3 {
        fill: none;
      }

      .cls-2 {
        clip-path: url(#clip-path);
      }

      .cls-3 {
        stroke: #2bb673;
        stroke-linecap: round;
        stroke-linejoin: round;
        stroke-width: 4.51px;
      }

      .cls-4 {
        fill: #3ce7ee;
      }

      .cls-5 {
        fill: #fff200;
      }

      .cls-6 {
        fill: #2bb673;
      }
    </style>
    <clipPath id="clip-path">
      <rect class="cls-1" width="1920" height="1080"/>
    </clipPath>
  </defs>
  <title>BlueFlower-head_spins-3</title>
  <g class="cls-2">
    <g>
      <path class="cls-3" d="M1466.71,1006.28s13.76,15.88,12.35,81.85"/>
      <g>
        <path class="cls-4" d="M1456.26,1016.39c-5.63,3.52-9.33,3.71-13.21.79a9.74,9.74,0,0,1-3.53-10.34c1.28-4.38,4.15-6,12.29-6.88-6.12-9.09-6.29-13.49-.33-17.34a8.88,8.88,0,0,1,9.73-.27c3.14,1.77,4.19,5.15,5.72,8.59,2.75-5.2,5.76-9.5,12.27-8a9.38,9.38,0,0,1,7.19,8.55c.59,5.59-3.19,8.45-7.5,10.8,7.81.84,11.45,3.17,12.45,7.88a10.13,10.13,0,0,1-4.7,10.46c-4.06,2.33-8.51,1.28-13.74-3.4,1.09,3.42,1.46,6.69.23,9.77a8.61,8.61,0,0,1-7.41,5.51,9.46,9.46,0,0,1-9.72-4.94C1454,1023.86,1455.55,1020.25,1456.26,1016.39Zm-1.35-5.85c2.92,5.77,10.32,8.35,15.69,5.51a12.28,12.28,0,0,0,5.59-16.16,11.79,11.79,0,0,0-15.74-5.48l-.32.16a11.55,11.55,0,0,0-5.52,15.37A5.59,5.59,0,0,0,1454.91,1010.54Z"/>
        <path class="cls-5" d="M1454.91,1010.54a11.55,11.55,0,0,1,4.71-15.64,4.53,4.53,0,0,1,.54-.27,11.79,11.79,0,0,1,15.9,5c.06.1.11.21.16.31a12.29,12.29,0,0,1-5.59,16.16C1465.23,1018.89,1457.84,1016.32,1454.91,1010.54Z"/>
      </g>
      <path class="cls-6" d="M1480,1033.4c3.39-3.31,15.61-6.78,17.37-5s-2,13.94-5.37,17.25-9,5.71-13.44,1.14S1476.62,1036.71,1480,1033.4Z"/>
    </g>
  </g>
</svg>
