<svg xmlns="http://www.w3.org/2000/svg" xmlns:xlink="http://www.w3.org/1999/xlink" viewBox="0 0 260 168"><defs><style>.cls-1{fill:#ff761a;}.cls-2{fill:#ededed;}.cls-3{fill:#ff6700;}.cls-4{clip-path:url(#clip-path);}.cls-5{fill:#ed6306;}.cls-6{clip-path:url(#clip-path-2);}.cls-7{fill:#dbdbdb;}.cls-8{fill:#f4f4f4;}.cls-9{clip-path:url(#clip-path-3);}.cls-10{fill:#c44f00;}</style><clipPath id="clip-path"><path class="cls-1" d="M8.84,42s.89,6.53-2.67,8.61S-6.29,55.15-18.6,54.41s-37.09-8.6-39.76-11.12-3.41-7.12-3.41-10.83l61,1.33Z"/></clipPath><clipPath id="clip-path-2"><path class="cls-2" d="M-63.2,30.43l.1,3.76S-51.53,41.31-29,44.77,5.33,42.69,5.33,42.69s.2.55,1.63.25,4.5-1.68,4.25-3.11c0,0,1.67-.55,1.93-1.51V37.24s-.48-1.59-2.93-1.59c0,0,.15-4.71-1.67-7.27S1.79,23.93.79,23.82a3.44,3.44,0,0,0-2.15,1.74,1,1,0,0,1-.7.08l-9-2-.63-1.74s1.08-.89-.15-3-4.22-3-9.79-3.64l-1.15-2.67s.89-.7.34-1.44-1.26-2.08-7.08-2.56l-.26-2.93S-30,4.16-32.17,4s-3.53,1-3.6,2.11,0,3.56,0,3.56a30.58,30.58,0,0,0-3,1.08,2.27,2.27,0,0,0-1.19,1.85s-2.55.86-2.67,2.49-.89,5.23-.89,5.23l-.42.37S-53.16,25-54.45,25.59s-8.11,3.75-8.11,3.75S-63.15,29.44-63.2,30.43Z"/></clipPath><clipPath id="clip-path-3"><path class="cls-3" d="M10.22,35.63s2.7,0,2.92,1.61a1.89,1.89,0,0,1-.49,1.8,16.13,16.13,0,0,1-3,1.63,3.08,3.08,0,0,1-2.22-.05c-1.12-.5-2.67-1.28-2.67-1.28s-.09-1.08.39-1.26S10.66,38.15,10.22,35.63Z"/></clipPath></defs><g id="Layer_3" data-name="Layer 3"><path class="cls-1" d="M8.84,42s.89,6.53-2.67,8.61S-6.29,55.15-18.6,54.41s-37.09-8.6-39.76-11.12-3.41-7.12-3.41-10.83l61,1.33Z"/><g class="cls-4"><path class="cls-5" d="M-31.85,46.31c6.17.58,12.42.43,18.54,1.41.58.09,1.31.34,1.34.94a1.16,1.16,0,0,1-.28.74c-.53.75-1.23,1.38-1.72,2.15a2.65,2.65,0,0,0-.29,2.62,3.36,3.36,0,0,0,1.59,1.2A28.58,28.58,0,0,0,5.91,57.14a5.41,5.41,0,0,0,2.57-1.2,5.91,5.91,0,0,0,1.2-2.15c1.77-4.63,3.58-9.55,2.66-14.42a3.27,3.27,0,0,0-.7-1.69,3.69,3.69,0,0,0-1.83-.88c-15.4-4.1-31.69-2.75-47.49-4.87a109.6,109.6,0,0,1-18.93-4.27c-2.7-.87-5.88-1.78-8.18-.13a6.25,6.25,0,0,0-1.77,2.15c-2.92,5.51,3.37,6.93,7,8.73a79.28,79.28,0,0,0,17.31,6.21A77.86,77.86,0,0,0-31.85,46.31Z"/></g><path class="cls-2" d="M-63.2,30.43l.1,3.76S-51.53,41.31-29,44.77,5.33,42.69,5.33,42.69s.2.55,1.63.25,4.5-1.68,4.25-3.11c0,0,1.67-.55,1.93-1.51V37.24s-.48-1.59-2.93-1.59c0,0,.15-4.71-1.67-7.27S1.79,23.93.79,23.82a3.44,3.44,0,0,0-2.15,1.74,1,1,0,0,1-.7.08l-9-2-.63-1.74s1.08-.89-.15-3-4.22-3-9.79-3.64l-1.15-2.67s.89-.7.34-1.44-1.26-2.08-7.08-2.56l-.26-2.93S-30,4.16-32.17,4s-3.53,1-3.6,2.11,0,3.56,0,3.56a30.58,30.58,0,0,0-3,1.08,2.27,2.27,0,0,0-1.19,1.85s-2.55.86-2.67,2.49-.89,5.23-.89,5.23l-.42.37S-53.16,25-54.45,25.59s-8.11,3.75-8.11,3.75S-63.15,29.44-63.2,30.43Z"/><g class="cls-6"><path class="cls-7" d="M7.17,46a12.88,12.88,0,0,0-.09-4.59,2,2,0,0,0-.3-.87A.73.73,0,0,0,6,40.2a1.05,1.05,0,0,0-.48.64,8.69,8.69,0,0,0-.42,4.49,2,2,0,0,0,.54,1.21,1.32,1.32,0,0,0,1.6,0,1.7,1.7,0,0,0,.65-1.51"/><path class="cls-7" d="M9,40.41a.82.82,0,0,1-.79,0c-.12-.11-.18-.3-.33-.37s-.47.12-.5.36a1.5,1.5,0,0,0,.15.68,8,8,0,0,1,.39,2.35,7.65,7.65,0,0,0,2.28-.22,3.3,3.3,0,0,0,1.18-.52,2.19,2.19,0,0,0,.65-2.6C11.42,39.11,9.79,40.18,9,40.41Z"/></g><path class="cls-8" d="M-1.15,25.54S3.8,26.87,5,29.15,6.22,32.76,2.61,34A80.85,80.85,0,0,1-8.07,36.27s-.4.34,1.68.24,10.73-1.58,13-3.7-.65-6.33-4.41-7.92L.1,24.25S-1.1,24.87-1.15,25.54Z"/><path class="cls-7" d="M-20.83,38.84s23.51.22,29-6.16c0,0,1.19-2.89-.44-4.67,0,0,2,1,2.15,7.49v2.65l-4,1.58a2.4,2.4,0,0,0-.79,2l.1.7a83,83,0,0,1-8.85,2c-2.27.2.1-3.56,1.58-4.54C-2.09,39.93-15.54,41.51-20.83,38.84Z"/><path class="cls-3" d="M10.22,35.63s2.7,0,2.92,1.61a1.89,1.89,0,0,1-.49,1.8,16.13,16.13,0,0,1-3,1.63,3.08,3.08,0,0,1-2.22-.05c-1.12-.5-2.67-1.28-2.67-1.28s-.09-1.08.39-1.26S10.66,38.15,10.22,35.63Z"/><g class="cls-9"><path class="cls-10" d="M12.87,35a2.24,2.24,0,0,1-1.14,3.46c-2.67,1.26-3.19,1.16-3.19,1.16L2.76,37.33l.48,3.32,5.9,1.6,7.3-2.71Z"/></g></g></svg>