<svg xmlns="http://www.w3.org/2000/svg" viewBox="0 0 190.56 311.4"><defs><style>.cls-1{fill:#0c0807;}.cls-2{fill:#a56737;}.cls-3{fill:#a46636;}.cls-4{fill:#488dcb;}.cls-5{fill:#d42027;}.cls-6{fill:#21b14b;}.cls-7{fill:#fde500;}.cls-8{fill:#9a5b2a;}.cls-9{fill:#6c401d;}.cls-10{fill:#faf8f7;}.cls-11{fill:#522f27;}.cls-12{fill:#060504;}.cls-13{fill:#600b0c;}.cls-14{fill:#f2ecec;}.cls-15{fill:#fff;}.cls-16{fill:#734725;}</style></defs><title>22</title><g id="Layer_2" data-name="Layer 2"><path class="cls-1" d="M77.66,288.79c.65-.14.71.37.77.77.69,4.53.47,9-1.84,13.06s-6.29,5.44-10.8,5a10.19,10.19,0,0,0-5.28.79c-5.76,2.45-11.8,2.52-17.87,1.51-3.2-.53-6.39-1.19-9.17-3.05-6.68-4.47-5.08-12.93-1.17-16.5,2.57-2.35,5.71-3.72,8.87-5a66.77,66.77,0,0,1,7.5-2.65A30.37,30.37,0,0,0,54.73,280,36.07,36.07,0,0,1,66.66,293c1,2,1,2,3,1.11C72.59,292.7,75.62,291.49,77.66,288.79ZM50.79,298a15.4,15.4,0,0,0,7.15-.34c1.38-.29,3.41-.11,3.93-1.08.62-1.15-.86-2.6-1.55-3.84-2.06-3.72-4.51-7.14-8.4-9.22a1.89,1.89,0,0,0-2.11-.18,21.05,21.05,0,0,0-4.65,3.51c-2.6,2.81-2.53,5.59.19,8.27A13.11,13.11,0,0,0,50.79,298Z"/><path class="cls-2" d="M77.66,288.79c-2,2.7-5.07,3.91-8,5.28-2,.91-2,.87-3-1.11A36.07,36.07,0,0,0,54.73,280c2.66-2.25,3.85-5.44,5.28-8.45,1.89-3.95,11.35-32.46,13.19-36.44,3.13.93,6.15,2.24,9.4,2.74,3,.46,5.93,1,8.9,1.44-1.75,5.74-11.36,35.94-12.69,41.8A42.63,42.63,0,0,0,77.66,288.79Z"/><path class="cls-2" d="M50.79,298a13.11,13.11,0,0,1-5.44-2.88c-2.72-2.68-2.79-5.46-.19-8.27a21.05,21.05,0,0,1,4.65-3.51,1.89,1.89,0,0,1,2.11.18c3.89,2.08,6.34,5.5,8.4,9.22.69,1.24,2.17,2.69,1.55,3.84-.52,1-2.55.79-3.93,1.08A15.4,15.4,0,0,1,50.79,298Z"/><path class="cls-1" d="M144.27,281c.11,0,.24,0,.32,0,4.79,3.06,10.58,3.71,15.53,6.4l4.26,2.35c5.91,3.25,6.47,11.75,3.89,15.5-2,2.94-4.91,4.31-8.19,5.1a35.93,35.93,0,0,1-22.27-1.54,3.6,3.6,0,0,0-2.2-.06c-4.24.84-8.32.28-10.68-3.55-2.82-4.55-4.74-9.59-3.47-15.21A24.58,24.58,0,0,0,130,295.4c.92.38,1.47.27,1.91-.7a31.55,31.55,0,0,1,8.26-10.45C141.46,283.08,143.09,282.3,144.27,281Zm3.14,18.13a11.71,11.71,0,0,0,5.24-2.07c3.11-2.08,4.36-5.42,1.5-8.81a24.38,24.38,0,0,0-4.5-3.68,1.87,1.87,0,0,0-2.22-.08c-5.24,2.67-7.93,7.47-10.49,12.38-.28.54-.08.83.45.94C140.7,298.45,144,299.62,147.41,299.08Z"/><path class="cls-2" d="M144.27,281c-1.18,1.35-2.81,2.13-4.13,3.3a31.55,31.55,0,0,0-8.26,10.45c-.44,1-1,1.08-1.91.7a24.58,24.58,0,0,1-8.51-5.44c.06-4.87-2-9.22-3.37-13.75-.8-2.63-1.58-5.27-2.36-7.9,6.58-.53,13-1.68,19.09-4.44,2.16,4.47,4,9.12,6.61,13.36C142.27,278.56,143.34,279.7,144.27,281Z"/><path class="cls-2" d="M147.41,299.08c-3.46.54-6.71-.63-10-1.32-.53-.11-.73-.4-.45-.94,2.56-4.91,5.25-9.71,10.49-12.38a1.87,1.87,0,0,1,2.22.08,24.38,24.38,0,0,1,4.5,3.68c2.86,3.39,1.61,6.73-1.5,8.81A11.71,11.71,0,0,1,147.41,299.08Z"/><path class="cls-3" d="M188.64,214.4c-3.63-3.47-7.78-5.76-12.76-9-.27-.17-.19-.65.14-.65,3.2.06,9.61,1.88,13.6.23a1.63,1.63,0,0,0,.94-1.53c0-1.16-1.59-1.73-2.81-2.18L174.9,198.8c-1-.28-1.56-.21-1.49-.77s1.07-.15,1.49-.25a34,34,0,0,1,5.18-1.15,9.4,9.4,0,0,0,2.16-1.11,1.54,1.54,0,0,0-.67-2.48,17.13,17.13,0,0,0-6.18-.79c-3.2,0-6.49.08-9.69.07-1.69,0-3,.24-4.56-.8-1.93-1.3-4.61-3-6.43-4.47-9.24-7.41-15.73-13.28-23.31-22.68-1.45-1.81-3.06-4.36-5.37-4.16a4.91,4.91,0,0,0-2.34.95,6.55,6.55,0,0,0-2.88,4.31c-.62,3.81,2.1,7.16,4.46,10.49a246.94,246.94,0,0,0,22.63,27.57c1.51,1.59,3.43,2.87,4,5,1.25,4.24,2.42,9,5,12.87a2.16,2.16,0,0,0,2.88.73,3.34,3.34,0,0,0,1.41-2.71,36.49,36.49,0,0,1,.89-5.1c.68-1.11,2.56.57,3.49,1.82a35.74,35.74,0,0,0,7.3,7.18c1.35,1,3,2.43,4.2,1.23.65-.65.28-2.06-.06-2.92a20.72,20.72,0,0,0-1.89-3.17,73.33,73.33,0,0,1-4.25-6.67c.13-.77,4.25,1.41,9.7,3.6.37.15,8.19,3.52,9.12,1.8C190.12,216.4,189.27,215,188.64,214.4Z"/><path class="cls-4" d="M109.62,155.52a8.39,8.39,0,0,0,1.51,2.43c1.27,1.5-.25.87,1.4,2.29a21.86,21.86,0,0,1,5.12,6.85,3.65,3.65,0,0,0,1,1.43,3.54,3.54,0,0,0,1.75.18,12.89,12.89,0,0,0,7.55-3.53c1.35-1.16,2.48-2.44,3.75-3.68a2.68,2.68,0,0,0,1.11-2,8.42,8.42,0,0,0-.67-2.06,34.14,34.14,0,0,1-2.36-7.78c-.72-3.13-1.77-5.44-3.95-7.39a14.38,14.38,0,0,0-5.21-2.76c-2.32-.75-1.16-.42-3.58-.06A8.92,8.92,0,0,0,111,143a14.94,14.94,0,0,0-1.6,3.79,13.62,13.62,0,0,0-.86,4.44A13.69,13.69,0,0,0,109.62,155.52Z"/><path class="cls-3" d="M2.08,215.67c3.57-3.52,7.69-5.87,12.63-9.19.26-.19.17-.66-.15-.65-3.2.11-9.58,2-13.6.42a1.62,1.62,0,0,1-1-1.51c0-1.16,1.57-1.76,2.78-2.23l12.81-2.64c.94-.3,1.55-.24,1.48-.8s-1.08-.13-1.49-.22a33.33,33.33,0,0,0-5.2-1.07A9.63,9.63,0,0,1,8.2,196.7a1.54,1.54,0,0,1,.64-2.49,17.07,17.07,0,0,1,6.17-.88c3.2-.06,6.49,0,9.69-.07,1.68,0,3,.19,4.54-.87,1.91-1.33,4.57-3.09,6.36-4.57,9.13-7.54,15.54-13.5,23-23,1.43-1.83,3-4.4,5.31-4.23a4.75,4.75,0,0,1,2.35.92,6.47,6.47,0,0,1,2.94,4.26c.68,3.8-2,7.19-4.3,10.55a247.61,247.61,0,0,1-22.22,27.9c-1.49,1.61-3.4,2.93-4,5-1.19,4.26-2.29,9.07-4.78,13a2.15,2.15,0,0,1-2.87.76,3.37,3.37,0,0,1-1.46-2.68,35.21,35.21,0,0,0-.95-5.09c-.7-1.1-2.56.6-3.47,1.87A36,36,0,0,1,18,224.33c-1.33,1-3,2.47-4.18,1.29-.66-.64-.31-2.06,0-2.93a22.54,22.54,0,0,1,1.84-3.19,72.68,72.68,0,0,0,4.16-6.73c-.15-.77-4.23,1.47-9.65,3.74-.37.15-8.13,3.64-9.09,1.94C.63,217.69,1.46,216.28,2.08,215.67Z"/><path class="cls-4" d="M83.84,154.81a8.3,8.3,0,0,1-1.46,2.46c-1.25,1.51-3.36,1.68-5,3.13a21.81,21.81,0,0,0-5,6.92,3.68,3.68,0,0,1-1,1.45,3.5,3.5,0,0,1-1.74.21A13,13,0,0,1,62,165.56c-1.36-1.15-2.51-2.41-3.81-3.63a2.68,2.68,0,0,1-1.13-2,7.94,7.94,0,0,1,.64-2.06A33.92,33.92,0,0,0,59.94,150c.67-3.15,1.69-5.47,3.85-7.45A14.29,14.29,0,0,1,69,139.75a16.07,16.07,0,0,1,7.19-.94,8.88,8.88,0,0,1,6.18,3.51A14.41,14.41,0,0,1,84,146.08a13.59,13.59,0,0,1,.92,4.43A13.19,13.19,0,0,1,83.84,154.81Z"/><path class="cls-4" d="M60.51,269.28l.13,0c1,.31,2.11.47,3.17.68l3.62.71a28.16,28.16,0,0,0,5.18.44c3,0,6.1.24,9.15.31a12,12,0,0,1,2.32.16,3.28,3.28,0,0,0,.7.1c1.66,0,3.31-.2,5-.17a29.72,29.72,0,0,1,4.89.52c1.89.35,16.39,4.07,23.53,3.69s16.3.09,21.63-5.31a210,210,0,0,1-3.87-27.72,246.06,246.06,0,0,0-7.44-43.52c-2.83-9.77-3.27-35.39-3.27-35.39s2.46-18.38-.79-23.62c-3.52-5.67-15.84-6.06-27.36-5.68a100.49,100.49,0,0,0-25.91,4.72c-3,1.07-4.62,29.62-4.88,35.39s.64,29.79,0,37.85c-.31,3.62-.71,7.22-1.13,10.83a19.67,19.67,0,0,0-.31,3.9,12.81,12.81,0,0,1-.45,3.53c-.32,1.68-.76,3.33-1.18,5a40.53,40.53,0,0,1-1.55,5.32,36,36,0,0,1-1.78,4.48,36.19,36.19,0,0,1-2.56,4.8,20.19,20.19,0,0,0-1.37,2.16,19.64,19.64,0,0,1-1.37,1.88c-.52.7-.88,1.48-1.42,2.17-.84,1.06-1.82,2.09-2.69,3.13s-1.59,1.76-2.36,2.65a1.53,1.53,0,0,0-.34,1.93c1,1.58,3.64,1.66,5.2,2.17s3.19,1.15,4.79,1.7a6.74,6.74,0,0,1,1.58.62A4.17,4.17,0,0,0,60.51,269.28Z"/><polygon class="cls-5" points="118.89 139.15 112.75 137.88 76.72 137.65 73.22 138.06 74.74 156.77 115.87 156.8 118.89 139.15"/><path class="cls-6" d="M114.41,138.1l-4.82-1.36-28.86-.25c-.65,0-1.9.71-2,.64l-2,.38,1.69,14.73,33.84-.25Z"/><polygon class="cls-7" points="109.89 136.74 103.44 135.01 84.27 135.21 80.73 136.35 82.28 148.24 108.7 147.98 109.89 136.74"/><path class="cls-3" d="M86,144.83l-1.55-9.1s3-.47,4-3.08,2.31-5.89,9-5.79c6.46.1,4.91,3,5.24,4.19a28.62,28.62,0,0,1,.57,3,2.67,2.67,0,0,0,2.24,2.38c1.64.4-.87,7.45-.87,7.45Z"/><path d="M90.79,127.26S75.15,137.4,69.8,147c0,0,2.09-19.17,1.68-24.69,0,0-11.9,16.84-26.21,17.93A28.11,28.11,0,0,0,57,114.4S33.23,102.35,24,79c0,0,11.8-22.68,15.55-26.47,0,0-5.08-19.25,2.22-28,0,0,20.6-9.73,32.43-6.41,0,0,9.72-14,27.41-18.13,0,0,26.36,7.19,32,21.41,0,0,27.06,8,31,9.81,0,0,7.33,18.48,1.25,30.2,0,0,9.27,16.78,7.74,24.64,0,0-13.64,19.11-28.31,24.1s-.4,37.69-.4,37.69-13.84-14.8-22.59-18.33a119.71,119.71,0,0,1,3.13,19.7S109.74,124.38,90.79,127.26Z"/><path class="cls-8" d="M44.48,72.51l2.36-11.78a3.81,3.81,0,0,0-1-2.4c-.9-.81-4.65-4.43-4.65-4.43s5.18.83,6.9,2.2c.67.12.86.68,1.59-.26s9.46-11.47,9.46-11.47S74.07,38,76.09,36.73s2.53-1.63,2.18-4.1-1.54-8.42-1.84-9.51c0,0,4.83,10.1,5.3,11.48s2,.64,2.41.51,18.19-4.5,18.19-4.5a3.94,3.94,0,0,1,2.28.13c1.68.41,15.82,4.55,18.24,6.11.88.33,1.29.12,1.58-.26s7-6.07,8.45-8.68c0,0-3.74,8.13-3.92,9.65-.55,1.45.55,1.22.87,1.53s11,7.36,11,7.36l5.95,15s11.13-2,14.87.12A23.2,23.2,0,0,0,149.56,64s2.36,6.75,1.73,9.62c1.41,18.54-1.75,29.82-4.93,36.92-6.63,12.18-23.15,22-32.93,25.32-14.87,4.23-22,3.28-36.31-1.91C72.73,129.69,56,125.73,47,98.73Z"/><path class="cls-8" d="M43.6,98.62a5.64,5.64,0,0,0,3,0,5.7,5.7,0,0,0,1.73-2.36c2-3.66,1.51-8.15.92-12.29l-.54-3.78a21.54,21.54,0,0,0-1.1-5,7.67,7.67,0,0,0-3.23-4,7.1,7.1,0,0,0-4.29-.74,10,10,0,0,0-5,1.39,7.32,7.32,0,0,0-2.56,3.75,22.12,22.12,0,0,0-.91,6.72,18.48,18.48,0,0,0,1.6,6.27,19.33,19.33,0,0,0,4.41,6.79A11.13,11.13,0,0,0,43.6,98.62Z"/><path class="cls-9" d="M40,74.52a5,5,0,0,1,2,.27,13.15,13.15,0,0,1,2.71,1.6c.09-.77-.47-1.37-1.15-2.31a4.54,4.54,0,0,0-1.24-1.15,4.93,4.93,0,0,0-2.44-.6,6.62,6.62,0,0,0-5.94,4.21c-1.07,2.42-.24,5.31.49,7.85,1.75,6.08,4.64,9.54,7.66,11.32.13.07,2.78,2,4,1.12a2.21,2.21,0,0,0,.4-.46A3.22,3.22,0,0,0,47,94a2,2,0,0,0-1.92-1.62,1.88,1.88,0,0,1-.54,2.32,1.61,1.61,0,0,1-.79.13,9.07,9.07,0,0,1-1.67-.91,6.85,6.85,0,0,1-2.75-2.84,20.33,20.33,0,0,1-1.53-2.83,30.11,30.11,0,0,1-2.34-7.09c-.35-2.51.84-5.55,3.23-6.41A3.45,3.45,0,0,1,40,74.52Z"/><path class="cls-8" d="M152,100c-1,.17-2.46.73-3,.39A5.66,5.66,0,0,1,147.49,98c-1.77-3.79-.91-8.23,0-12.32l.81-3.73A22.34,22.34,0,0,1,149.76,77c.74-1.53,1.15-2.92,2.7-3.62a13.1,13.1,0,0,1,5.79-1.18c1.51.17,3.66.45,4.8,1.47s1.37,3.33,1.74,4.89a20.92,20.92,0,0,1,.07,6.61c-.17,2.08-1.34,4.32-2.24,6.21-1.22,2.54-3.35,3.8-5.48,5.64S154.45,99.62,152,100Z"/><path class="cls-9" d="M157.24,75.78a4.91,4.91,0,0,0-2.06.12,13.28,13.28,0,0,0-2.83,1.39c0-.77.57-1.33,1.33-2.22A4.51,4.51,0,0,1,155,74a5,5,0,0,1,2.48-.42,6.63,6.63,0,0,1,5.61,4.64c.89,2.49-.23,6.66-1.16,9.15-2.19,5.93-5.49,8.8-8.63,10.34-.14.07-2.93,1.82-4.1.82a2.15,2.15,0,0,1-.36-.48,3.24,3.24,0,0,1-.34-2.41,2,2,0,0,1,2-1.48,1.88,1.88,0,0,0,.37,2.35,1.37,1.37,0,0,0,.78.19,9.15,9.15,0,0,0,1.73-.77,9.65,9.65,0,0,0,3.52-3.11,20.84,20.84,0,0,0,1.73-2.72,30.48,30.48,0,0,0,2.86-6.89c.54-2.48-.75-6.1-3.06-7.14A3.49,3.49,0,0,0,157.24,75.78Z"/><path class="cls-10" d="M82.77,99.33A24.84,24.84,0,0,1,67.18,98a12.55,12.55,0,0,1-7.57-13c.59-5.69,6.06-10.8,11.83-11.31a22.39,22.39,0,0,1,16,4.58A11.31,11.31,0,0,1,92,89.61C91.26,94.37,88.46,97.5,82.77,99.33Z"/><path class="cls-10" d="M126.17,102.39a25,25,0,0,1-16.42-1.92c-4.54-2.19-5.79-6.36-5.75-11a10.22,10.22,0,0,1,6-9.68,21.69,21.69,0,0,1,18.57-.39,11.88,11.88,0,0,1,7.12,11.27C135.33,96.41,132.47,100.29,126.17,102.39Z"/><path class="cls-11" d="M78.16,96.43a8.92,8.92,0,1,1,5.57-11.27A8.88,8.88,0,0,1,78.16,96.43ZM69.27,87.8l.06.8a6.11,6.11,0,0,0,4.79,5.77,5.8,5.8,0,0,0,6.63-3.43,6.28,6.28,0,0,0-2.1-7.36c-1.53-1.17-4.51-1.27-5.83-.2-1.79-.93-3.07-.81-4,.38S68,86.2,69.27,87.8Z"/><path class="cls-12" d="M72.82,83.38c1.32-1.07,4.3-1,5.83.2a6.28,6.28,0,0,1,2.1,7.36,5.8,5.8,0,0,1-6.63,3.43,6.11,6.11,0,0,1-4.79-5.77l-.06-.8c1.38.55,2.74.74,3.78-.61A2.82,2.82,0,0,0,72.82,83.38Z"/><path class="cls-10" d="M72.82,83.38a2.82,2.82,0,0,1,.23,3.81c-1,1.35-2.4,1.16-3.78.61-1.27-1.6-1.42-2.85-.48-4S71,82.45,72.82,83.38Z"/><path class="cls-11" d="M118.5,99.79A8.94,8.94,0,1,1,128,91.54,8.93,8.93,0,0,1,118.5,99.79ZM113.36,85.7c-.91,1.22-.7,2.49.65,4-.7,1.55.16,4.4,1.68,5.59a6.26,6.26,0,0,0,7.65.16A5.81,5.81,0,0,0,125,88.16,6.1,6.1,0,0,0,118.18,85l-.8.15C115.52,84.31,114.26,84.48,113.36,85.7Z"/><path class="cls-12" d="M114,89.69c-.7,1.55.16,4.4,1.68,5.59a6.26,6.26,0,0,0,7.65.16A5.81,5.81,0,0,0,125,88.16,6.1,6.1,0,0,0,118.18,85l-.8.15c.89,1.19,1.42,2.46.37,3.81A2.81,2.81,0,0,1,114,89.69Z"/><path class="cls-10" d="M114,89.69a2.81,2.81,0,0,0,3.74-.74c1-1.35.52-2.62-.37-3.81-1.86-.83-3.12-.66-4,.56S112.66,88.19,114,89.69Z"/><path class="cls-13" d="M84.08,116.25s-.92-1,.47-.33a28.64,28.64,0,0,0,17.81,1.88,16,16,0,0,0,2.73-.82c.26-.06.35.19-.07.4s-4.16,1.77-5.21,3.1a4.38,4.38,0,0,1-3.19,1.4,16.5,16.5,0,0,1-6.36-.81C88.09,119.82,88.19,118.18,84.08,116.25Z"/><path class="cls-14" d="M83.82,115.29s.25,1.46,4.78,2.85a27.11,27.11,0,0,0,12,.77,12.65,12.65,0,0,0,4.66-2Z"/><path class="cls-15" d="M89.29,120.28s4.18.79,5,.84,4.6-.06,5.79.59S91,124.17,89.29,120.28Z"/><path class="cls-16" d="M96.5,115.25c-1.58-.17-4.64-.45-6.23-.51a23.37,23.37,0,0,0-3.45.13,20.34,20.34,0,0,1-2.48.09,5.19,5.19,0,0,1-1-.13c-1-.25-1.53-.37-2-.48a.15.15,0,0,0-.12.26,12.81,12.81,0,0,1,4.78,6.33,4.92,4.92,0,0,0,.68,1.49,3.63,3.63,0,0,0,.75.66,9.05,9.05,0,0,0,4.47,1.49,31.13,31.13,0,0,0,4.32.27,14.25,14.25,0,0,0,5.42-1.5c.5-.25,1-1.18,1.42-1.57a21.46,21.46,0,0,0,1.61-2.26c1.47-1.86,3.53-2.49,4.86-3.4C105.5,116.52,101.47,115.77,96.5,115.25Zm8.52,2.13c-.42.22-4.16,1.77-5.21,3.1a4.38,4.38,0,0,1-3.19,1.4,16.5,16.5,0,0,1-6.36-.81c-2.17-1.25-2.07-2.89-6.18-4.82,0,0-.92-1,.47-.33a28.64,28.64,0,0,0,17.81,1.88,16,16,0,0,0,2.73-.82C105.35,116.92,105.44,117.17,105,117.38Z"/><path class="cls-11" d="M99.63,107.36c-4.72,2-9.8-1-12.08-4.36-1-1.43-.44-2.42,1.26-2.52a7.31,7.31,0,0,1,1.62.07,75.64,75.64,0,0,0,12.12,1c.81,0,1.73,0,2.14.83s-.25,1.63-.81,2.28A8.52,8.52,0,0,1,99.63,107.36Z"/><path class="cls-1" d="M70.4,62.66c4.27-1.13,8.82-1.58,13.32.44a8.91,8.91,0,0,1,1.13.62,1.31,1.31,0,0,1,.76,1.33c-.15.7-.83.56-1.35.53-1.72-.11-3.44-.23-5.16-.37-6.08-.48-11.16,1.9-15.8,5.52a10.09,10.09,0,0,1-1.62,1.07c-.39.21-.89.6-1.32.14s-.17-.93,0-1.38A8.68,8.68,0,0,1,63.05,67,22.3,22.3,0,0,1,70.4,62.66Z"/><path class="cls-1" d="M136.39,75.64c.38,1.15.91,2.31.05,2.82s-1.55-.67-2.13-1.29c-1.43-1.55-2.8-3.17-4.38-4.58a21.2,21.2,0,0,0-12.12-5c-1.13-.13-2.26-.28-3.38-.47-.47-.07-1-.2-1.11-.78s.46-.9,1-1.13a9.59,9.59,0,0,1,4.45-.76c7.43.44,13.23,3.7,17.15,10.11A9.53,9.53,0,0,1,136.39,75.64Z"/></g></svg>