<svg xmlns="http://www.w3.org/2000/svg" viewBox="0 0 214.58 309.76"><defs><style>.cls-1{fill:#0c0807;}.cls-2{fill:#a56737;}.cls-3{fill:#a46636;}.cls-4{fill:#488dcb;}.cls-5{fill:#d42027;}.cls-6{fill:#21b14b;}.cls-7{fill:#fde500;}.cls-8{fill:#9a5b2a;}.cls-9{fill:#6c401d;}.cls-10{fill:#faf8f7;}.cls-11{fill:#522f27;}.cls-12{fill:#060504;}.cls-13{fill:#600b0c;}.cls-14{fill:#f2ecec;}.cls-15{fill:#fff;}.cls-16{fill:#734725;}</style></defs><title>22</title><g id="Layer_2" data-name="Layer 2"><path class="cls-1" d="M63.28,281c.66-.09.68.42.7.83.32,4.57-.27,9-2.91,12.86s-6.72,4.9-11.18,4.06a10,10,0,0,0-5.32.34c-5.94,2-12,1.54-17.93,0-3.15-.79-6.27-1.72-8.89-3.8-6.28-5-4-13.31.2-16.55a28.86,28.86,0,0,1,9.26-4.25,67.93,67.93,0,0,1,7.69-2,30.17,30.17,0,0,0,6.25-2.15c4.63,3.84,8.5,8.27,10.83,13.9.85,2.05.87,2.1,2.9,1.35C57.9,284.49,61,283.53,63.28,281Zm-27.54,6.92a15.51,15.51,0,0,0,7.16.24c1.39-.17,3.4.18,4-.74.71-1.1-.65-2.67-1.23-4-1.75-3.88-3.9-7.49-7.61-9.89a1.89,1.89,0,0,0-2.09-.34,21.13,21.13,0,0,0-4.93,3.11c-2.81,2.58-3,5.36-.49,8.25A13.25,13.25,0,0,0,35.74,287.93Z"/><path class="cls-2" d="M63.28,281c-2.26,2.52-5.38,3.48-8.4,4.6-2,.75-2.05.7-2.9-1.35-2.33-5.63-6.2-10.06-10.83-13.9,2.84-2,4.29-5.1,6-8,2.21-3.78,14-31.41,16.16-35.22,3,1.18,5.94,2.73,9.14,3.5,2.92.71,5.83,1.45,8.75,2.17-2.22,5.58-14.3,34.88-16.11,40.61A43.6,43.6,0,0,0,63.28,281Z"/><path class="cls-2" d="M35.74,287.93a13.25,13.25,0,0,1-5.18-3.33c-2.49-2.89-2.32-5.67.49-8.25A21.13,21.13,0,0,1,36,273.24a1.89,1.89,0,0,1,2.09.34c3.71,2.4,5.86,6,7.61,9.89.58,1.29,1.94,2.86,1.23,4-.61.92-2.62.57-4,.74A15.51,15.51,0,0,1,35.74,287.93Z"/><path class="cls-1" d="M130.31,278.71c.11,0,.24,0,.32.05,4.52,3.44,10.24,4.57,14.94,7.66,1.36.89,2.7,1.8,4.06,2.7,5.62,3.73,5.47,12.24,2.59,15.77-2.25,2.76-5.25,3.88-8.58,4.4a35.92,35.92,0,0,1-22.07-3.38,3.7,3.7,0,0,0-2.19-.25c-4.29.49-8.32-.4-10.35-4.41-2.43-4.77-3.93-9.95-2.2-15.44a24.6,24.6,0,0,0,8,6.12c.88.46,1.43.39,2-.54a31.52,31.52,0,0,1,9.09-9.73C127.34,280.6,129,280,130.31,278.71ZM132,297a11.7,11.7,0,0,0,5.39-1.63c3.27-1.82,4.79-5,2.22-8.65a23.84,23.84,0,0,0-4.18-4,1.87,1.87,0,0,0-2.21-.27c-5.44,2.23-8.51,6.78-11.48,11.47-.32.51-.14.82.37,1C125.3,295.86,128.45,297.29,132,297Z"/><path class="cls-2" d="M130.31,278.71c-1.28,1.25-3,1.89-4.39,3a31.52,31.52,0,0,0-9.09,9.73c-.53.93-1.08,1-2,.54a24.6,24.6,0,0,1-8-6.12c.47-4.86-1.23-9.37-2.22-14-.57-2.69-1.13-5.38-1.7-8.07,6.61,0,13.13-.59,19.4-2.84,1.78,4.63,3.2,9.41,5.49,13.86C128.52,276.17,129.49,277.39,130.31,278.71Z"/><path class="cls-2" d="M132,297c-3.5.25-6.65-1.18-9.89-2.15-.51-.15-.69-.46-.37-1,3-4.69,6-9.24,11.48-11.47a1.87,1.87,0,0,1,2.21.27,23.84,23.84,0,0,1,4.18,4c2.57,3.61,1.05,6.83-2.22,8.65A11.7,11.7,0,0,1,132,297Z"/><path class="cls-3" d="M210.91,115.11c-4.75,1.59-8.71,4.21-13.91,7.1-.28.16-.67-.14-.51-.42,1.55-2.81,6.13-7.64,6.53-11.94a1.63,1.63,0,0,0-.92-1.54c-1-.52-2.27.6-3.24,1.47L190.71,120c-.69.7-.91,1.27-1.38,1s.37-1,.47-1.44a35.86,35.86,0,0,1,1.4-5.12,9.41,9.41,0,0,0,0-2.43,1.55,1.55,0,0,0-2.52-.56,17,17,0,0,0-3.56,5.11c-1.5,2.83-3,5.78-4.45,8.61-.79,1.49-1.2,2.78-2.83,3.66-2.05,1.1-4.82,2.68-7,3.61-10.85,4.73-19.07,7.75-30.92,10.09-2.28.44-5.28.68-6.18,2.82a4.77,4.77,0,0,0-.24,2.51,6.54,6.54,0,0,0,2.47,4.56c3.08,2.31,7.31,1.47,11.36.93a247.42,247.42,0,0,0,34.93-7.21c2.11-.6,4.14-1.71,6.29-1.28,4.33.86,9.11,2.06,13.7,1.59a2.16,2.16,0,0,0,2-2.21,3.36,3.36,0,0,0-1.75-2.51,36.48,36.48,0,0,1-4.1-3.16c-.67-1.12,1.69-2,3.23-2.24a36.22,36.22,0,0,0,9.76-3.12c1.53-.72,3.54-1.53,3-3.15-.27-.88-1.7-1.21-2.62-1.31a21.63,21.63,0,0,0-3.68.2,73.44,73.44,0,0,1-7.88.66c-.62-.47,3.22-3.11,7.7-6.91.3-.26,6.92-5.61,5.84-7.23C213.37,114.73,211.73,114.83,210.91,115.11Z"/><path class="cls-4" d="M122,157.67a8.31,8.31,0,0,0,2.85-.2c1.92-.43.65.62,2.68-.17a21.84,21.84,0,0,1,8.44-1.36,3.45,3.45,0,0,0,1.75-.25,3.56,3.56,0,0,0,1-1.46,12.88,12.88,0,0,0,.38-8.33c-.4-1.73-1-3.33-1.51-5a2.68,2.68,0,0,0-1.28-1.92,8.13,8.13,0,0,0-2.14-.36,34.74,34.74,0,0,1-8-1.53,13,13,0,0,0-8.38.06,14.29,14.29,0,0,0-4.87,3.33c-1.74,1.7-.91.83-1.72,3.13a8.94,8.94,0,0,0,.33,7.1,14.7,14.7,0,0,0,2.61,3.18,13.58,13.58,0,0,0,3.54,2.83A13.47,13.47,0,0,0,122,157.67Z"/><path class="cls-3" d="M2,207c3.59-3.5,7.72-5.82,12.68-9.12.27-.18.18-.66-.15-.65-3.2.09-9.59,2-13.6.35A1.62,1.62,0,0,1,0,196c0-1.16,1.58-1.75,2.79-2.21l12.83-2.57c.94-.29,1.55-.23,1.48-.79s-1.07-.13-1.49-.23a34.23,34.23,0,0,0-5.19-1.1A9.59,9.59,0,0,1,8.25,188a1.54,1.54,0,0,1,.65-2.49,17.07,17.07,0,0,1,6.17-.84c3.2,0,6.49,0,9.69,0,1.69,0,3,.21,4.55-.84,1.92-1.32,4.59-3.06,6.39-4.53,9.17-7.49,15.61-13.42,23.11-22.89,1.44-1.82,3-4.39,5.33-4.2a4.67,4.67,0,0,1,2.35.93,6.53,6.53,0,0,1,2.92,4.28c.65,3.8-2,7.17-4.36,10.52a247.1,247.1,0,0,1-22.39,27.78c-1.49,1.6-3.41,2.9-4,5-1.21,4.24-2.33,9-4.85,12.91a2.15,2.15,0,0,1-2.88.75,3.35,3.35,0,0,1-1.43-2.7,37,37,0,0,0-.93-5.09c-.69-1.1-2.56.59-3.48,1.85a35.48,35.48,0,0,1-7.23,7.25c-1.34,1-3,2.46-4.19,1.27-.66-.65-.3-2.06,0-2.93a21.64,21.64,0,0,1,1.86-3.18,71.57,71.57,0,0,0,4.19-6.71c-.14-.77-4.24,1.45-9.67,3.69-.37.15-8.15,3.59-9.1,1.88C.56,209,1.4,207.56,2,207Z"/><path class="cls-4" d="M84.13,146.56A8.4,8.4,0,0,1,82.65,149c-1.26,1.51-3.37,1.67-5,3.1a22.12,22.12,0,0,0-5.06,6.9,3.71,3.71,0,0,1-1,1.44,3.55,3.55,0,0,1-1.75.2,12.93,12.93,0,0,1-7.58-3.47c-1.36-1.15-2.5-2.42-3.79-3.65a2.68,2.68,0,0,1-1.13-2,8.39,8.39,0,0,1,.66-2.06,34.28,34.28,0,0,0,2.28-7.8,13,13,0,0,1,3.89-7.42,14.34,14.34,0,0,1,5.19-2.82,16.06,16.06,0,0,1,7.19-.89,8.91,8.91,0,0,1,6.17,3.54,14.39,14.39,0,0,1,1.63,3.77,13.36,13.36,0,0,1,.9,4.44A13.42,13.42,0,0,1,84.13,146.56Z"/><path class="cls-4" d="M47.81,260.15l.12.05c1,.39,2.06.64,3.1.94l3.56,1a28.67,28.67,0,0,0,5.12.86c3,.28,6.06.75,9.09,1.07a12.65,12.65,0,0,1,2.3.35,3.29,3.29,0,0,0,.69.16c1.65.14,3.31.08,5,.24a28.11,28.11,0,0,1,4.82.93c1.87.5,16,5.4,23.16,5.62s16.23,1.44,22-3.5a212.5,212.5,0,0,1-1.56-27.95,244.59,244.59,0,0,0-3.81-44c-2-10-.32-35.53-.32-35.53s4-18.12,1.17-23.61c-3-5.94-15.29-7.35-26.8-7.92a99.89,99.89,0,0,0-26.21,2.56c-3.13.81-7.07,29.13-7.8,34.86S59.57,196,58.21,204c-.61,3.57-1.31,7.13-2,10.69a19.67,19.67,0,0,0-.64,3.87,12.56,12.56,0,0,1-.73,3.47c-.47,1.65-1,3.26-1.6,4.88a40.25,40.25,0,0,1-2,5.17,36.13,36.13,0,0,1-2.14,4.32,37.1,37.1,0,0,1-3,4.57,20.78,20.78,0,0,0-1.55,2,21.06,21.06,0,0,1-1.52,1.76c-.57.65-1,1.4-1.6,2-.92,1-2,1.94-2.93,2.91s-1.73,1.61-2.58,2.44a1.53,1.53,0,0,0-.49,1.9c.83,1.65,3.48,1.95,5,2.59s3.08,1.41,4.63,2.09a6.52,6.52,0,0,1,1.52.75A4.48,4.48,0,0,0,47.81,260.15Z"/><polygon class="cls-5" points="116.76 135.29 110.75 133.52 74.86 130.31 71.33 130.43 71.31 149.2 112.29 152.64 116.76 135.29"/><path class="cls-6" d="M112.39,133.88l-4.69-1.75L79,129.48c-.65,0-2,.55-2,.48l-2,.22L75.4,145l33.74,2.56Z"/><polygon class="cls-7" points="107.99 132.15 101.71 129.89 82.59 128.5 78.96 129.35 79.52 141.32 105.87 143.25 107.99 132.15"/><path class="cls-3" d="M83.55,138.24l-.79-9.2A5.47,5.47,0,0,0,87,126.3c1.2-2.51,2.78-5.67,9.44-5,6.43.63,4.65,3.39,4.87,4.61a28.34,28.34,0,0,1,.32,3,2.69,2.69,0,0,0,2,2.56c1.6.54-1.49,7.36-1.49,7.36Z"/><path d="M91.32,120.6s-17.67,6-25.22,13.9c0,0,6.77-18,7.75-23.51,0,0-15.7,13.37-29.84,10.87A28.09,28.09,0,0,0,61.82,99.77S41.74,82.2,38.62,57.34c0,0,17.06-19.05,21.63-21.8,0,0-.15-19.91,9.1-26.6,0,0,22.38-4.32,33,1.84,0,0,12.88-11.16,31-10.77,0,0,23.76,13.5,25.73,28.69,0,0,24.22,14.47,27.62,17.19,0,0,2.52,19.73-6.28,29.57,0,0,4.82,18.55,1.4,25.79,0,0-18,15.14-33.41,16.33S138.73,154,138.73,154s-9.74-17.77-17.35-23.36a118.92,118.92,0,0,1-1.85,19.86S110.4,122.51,91.32,120.6Z"/><path class="cls-8" d="M60,56.08l5.21-10.83a3.86,3.86,0,0,0-.33-2.56c-.68-1-3.41-5.45-3.41-5.45s4.81,2.09,6.14,3.84c.62.29.66.88,1.6.14s12-8.76,12-8.76,16-2.5,18.28-3.2,2.85-1,3.12-3.43.6-8.55.58-9.68c0,0,2.18,11,2.29,12.44s1.81,1.12,2.21,1.09,18.74.15,18.74.15a4,4,0,0,1,2.18.69c1.52.82,14.19,8.34,16.14,10.44.77.54,1.23.44,1.61.15s8.24-4.16,10.33-6.31c0,0-5.64,6.94-6.19,8.38-.9,1.26.23,1.31.46,1.69s8.87,9.87,8.87,9.87l2,16.05s11.29.78,14.38,3.8A23.22,23.22,0,0,0,164,73.88s.61,7.13-.71,9.75c-3.23,18.31-9.09,28.46-13.93,34.55-9.44,10.16-27.89,15.57-38.18,16.36C95.67,135,89,132.26,76.42,123.68,73.23,118.48,58,110.49,55.94,82.1Z"/><path class="cls-8" d="M52.72,81.15a5.57,5.57,0,0,0,2.89.77c.9-.22,1.63-1.18,2.26-1.85,2.88-3,3.48-7.52,3.94-11.68l.42-3.79a21.7,21.7,0,0,0,.16-5.09,7.65,7.65,0,0,0-2.14-4.64,7.14,7.14,0,0,0-4-1.79,10,10,0,0,0-5.22.11,7.24,7.24,0,0,0-3.4,3,21.83,21.83,0,0,0-2.55,6.27,18.32,18.32,0,0,0,0,6.48,19.18,19.18,0,0,0,2.58,7.67A11.08,11.08,0,0,0,52.72,81.15Z"/><path class="cls-9" d="M55.16,56.9a5.14,5.14,0,0,1,1.92.77,13.77,13.77,0,0,1,2.23,2.22c.27-.72-.12-1.44-.55-2.52A4.45,4.45,0,0,0,57.84,56a5,5,0,0,0-2.22-1.19,6.62,6.62,0,0,0-6.79,2.6c-1.64,2.08-1.55,5.09-1.47,7.74C47.55,71.42,49.49,75.49,52,78c.11.11,2.2,2.66,3.62,2.09a2.15,2.15,0,0,0,.5-.35,3.22,3.22,0,0,0,1.09-2.17,2,2,0,0,0-1.45-2,1.87,1.87,0,0,1-1.1,2.11,1.47,1.47,0,0,1-.8-.07,9.39,9.39,0,0,1-1.4-1.29,6.9,6.9,0,0,1-2-3.43,18.85,18.85,0,0,1-.78-3.13,30,30,0,0,1-.51-7.44c.28-2.52,2.19-5.17,4.71-5.41A3.57,3.57,0,0,1,55.16,56.9Z"/><path class="cls-8" d="M157.4,109.42c-1-.08-2.57.09-3-.36a5.82,5.82,0,0,1-.88-2.79c-.77-4.11,1.17-8.2,3-11.94l1.71-3.41a21.89,21.89,0,0,1,2.63-4.36c1.1-1.3,1.84-2.55,3.52-2.84a13,13,0,0,1,5.89.29c1.43.54,3.44,1.35,4.29,2.61s.51,3.57.48,5.18a20.92,20.92,0,0,1-1.58,6.41c-.68,2-2.37,3.86-3.71,5.47-1.81,2.16-4.18,2.85-6.7,4.1S159.85,109.61,157.4,109.42Z"/><path class="cls-9" d="M168.46,87.21a5.09,5.09,0,0,0-2-.4,14,14,0,0,0-3.08.65c.16-.75.88-1.14,1.83-1.82a4.56,4.56,0,0,1,1.54-.69,5,5,0,0,1,2.51.21A6.63,6.63,0,0,1,173.53,91c.24,2.64-1.89,6.4-3.39,8.58-3.61,5.2-7.51,7.16-10.94,7.88-.15,0-3.28,1-4.17-.22a2.28,2.28,0,0,1-.23-.56,3.25,3.25,0,0,1,.27-2.42,2,2,0,0,1,2.33-.93,1.89,1.89,0,0,0-.23,2.37,1.57,1.57,0,0,0,.72.38,10.87,10.87,0,0,0,6-2.46,19.64,19.64,0,0,0,2.35-2.21,29.59,29.59,0,0,0,4.48-6c1.14-2.27.79-6.1-1.19-7.67A3.18,3.18,0,0,0,168.46,87.21Z"/><path class="cls-10" d="M90.49,91.55A24.8,24.8,0,0,1,75.7,86.44,12.53,12.53,0,0,1,71.59,72c2-5.37,8.55-9,14.26-8a22.33,22.33,0,0,1,14.37,8.4,11.31,11.31,0,0,1,1.62,12.07C99.94,88.86,96.45,91.19,90.49,91.55Z"/><path class="cls-10" d="M131.76,105.28a25,25,0,0,1-15.42-5.93c-3.86-3.25-4-7.6-2.84-12.08a10.22,10.22,0,0,1,8.22-7.89,21.66,21.66,0,0,1,18.08,4.23,11.86,11.86,0,0,1,4.1,12.68C142.13,101.77,138.39,104.81,131.76,105.28Z"/><path class="cls-11" d="M86.73,87.61a8.92,8.92,0,1,1,8.2-9.55A8.87,8.87,0,0,1,86.73,87.61ZM80.26,77c0,.26-.09.53-.14.79a6.1,6.1,0,0,0,3.22,6.77,5.78,5.78,0,0,0,7.26-1.68,6.25,6.25,0,0,0-.2-7.64c-1.2-1.51-4.06-2.35-5.6-1.65-1.51-1.34-2.78-1.54-4-.62S79.42,75.17,80.26,77Z"/><path class="cls-12" d="M84.8,73.63c1.54-.7,4.4.14,5.6,1.65a6.25,6.25,0,0,1,.2,7.64,5.78,5.78,0,0,1-7.26,1.68,6.1,6.1,0,0,1-3.22-6.77c0-.26.1-.53.14-.79,1.21.88,2.48,1.39,3.82.34A2.82,2.82,0,0,0,84.8,73.63Z"/><path class="cls-10" d="M84.8,73.63a2.82,2.82,0,0,1-.72,3.75c-1.34,1.05-2.61.54-3.82-.34-.84-1.87-.67-3.12.54-4S83.29,72.29,84.8,73.63Z"/><path class="cls-11" d="M125,100.87a8.94,8.94,0,1,1,11.24-5.64A9,9,0,0,1,125,100.87ZM123.5,85.94c-1.19,1-1.3,2.24-.37,4-1,1.33-.93,4.31.24,5.84a6.29,6.29,0,0,0,7.38,2,5.8,5.8,0,0,0,3.38-6.65,6.11,6.11,0,0,0-5.79-4.76l-.81,0C125.93,85.12,124.67,85,123.5,85.94Z"/><path class="cls-12" d="M123.13,90c-1,1.33-.93,4.31.24,5.84a6.29,6.29,0,0,0,7.38,2,5.8,5.8,0,0,0,3.38-6.65,6.11,6.11,0,0,0-5.79-4.76l-.81,0c.57,1.38.76,2.74-.58,3.79A2.83,2.83,0,0,1,123.13,90Z"/><path class="cls-10" d="M123.13,90a2.83,2.83,0,0,0,3.82.22c1.34-1.05,1.15-2.41.58-3.79-1.6-1.27-2.86-1.41-4-.45S122.2,88.18,123.13,90Z"/><path class="cls-13" d="M87.55,108.27s-.63-1.24.55-.2a28.55,28.55,0,0,0,16.78,6.24,17,17,0,0,0,2.85-.12c.26,0,.29.27-.17.37s-4.47.68-5.81,1.71a4.45,4.45,0,0,1-3.45.57,16.65,16.65,0,0,1-6-2.36C90.55,112.72,91.06,111.16,87.55,108.27Z"/><path class="cls-14" d="M87.54,107.28s-.12,1.47,3.92,4A27.3,27.3,0,0,0,102.94,115a12.64,12.64,0,0,0,5-.82Z"/><path class="cls-15" d="M91.6,113.47s3.86,1.8,4.68,2.06,4.46,1.09,5.46,2S92.33,117.67,91.6,113.47Z"/><path class="cls-16" d="M99.83,110.38c-1.49-.55-4.38-1.59-5.9-2a22.89,22.89,0,0,0-3.38-.74,19.44,19.44,0,0,1-2.42-.53,4.85,4.85,0,0,1-1-.38l-1.85-1a.15.15,0,0,0-.19.23,12.7,12.7,0,0,1,3.06,7.31,5.1,5.1,0,0,0,.29,1.61,3.4,3.4,0,0,0,.57.83,9,9,0,0,0,4,2.55,30,30,0,0,0,4.12,1.33,14.42,14.42,0,0,0,5.63-.1c.55-.12,1.27-.9,1.76-1.17a22.55,22.55,0,0,0,2.12-1.79c1.89-1.44,4-1.54,5.55-2.09C108.23,113.85,104.52,112.12,99.83,110.38Zm7.73,4.18c-.46.11-4.47.68-5.81,1.71a4.45,4.45,0,0,1-3.45.57,16.65,16.65,0,0,1-6-2.36c-1.79-1.76-1.28-3.32-4.79-6.21,0,0-.63-1.24.55-.2a28.55,28.55,0,0,0,16.78,6.24,17,17,0,0,0,2.85-.12C108,114.2,108,114.46,107.56,114.56Z"/><path class="cls-11" d="M104.82,103.52c-5.06.76-9.26-3.36-10.61-7.23-.57-1.62.17-2.44,1.84-2.12a7.1,7.1,0,0,1,1.55.47,76.44,76.44,0,0,0,11.49,4c.79.21,1.69.4,1.87,1.33s-.64,1.53-1.35,2A8.5,8.5,0,0,1,104.82,103.52Z"/><path class="cls-1" d="M87.59,53c4.42,0,8.94.66,12.8,3.73a9.82,9.82,0,0,1,.94.89,1.29,1.29,0,0,1,.41,1.47c-.32.65-.94.34-1.44.18q-2.46-.79-4.92-1.64c-5.77-2-11.27-.93-16.67,1.43a10.73,10.73,0,0,1-1.83.64c-.44.1-1,.36-1.32-.2s.07-.94.33-1.34a8.81,8.81,0,0,1,3.51-2.81A22.51,22.51,0,0,1,87.59,53Z"/><path class="cls-1" d="M148.3,81.9c.08,1.21.31,2.46-.65,2.75s-1.34-1-1.74-1.78c-1-1.86-1.92-3.76-3.11-5.52a21.18,21.18,0,0,0-10.51-7.83q-1.59-.61-3.15-1.29c-.45-.2-1-.46-.89-1s.68-.76,1.23-.85a9.48,9.48,0,0,1,4.49.37c7.09,2.26,11.9,6.86,14.11,14A7.49,7.49,0,0,1,148.3,81.9Z"/></g></svg>