<svg xmlns="http://www.w3.org/2000/svg" viewBox="0 0 149.92 392.67"><defs><style>.cls-1{fill:#ec008c;}.cls-2{fill:#0c0807;}.cls-3{fill:#a56737;}.cls-4{fill:#488dcb;}.cls-5{fill:#9b5c31;}.cls-6{fill:#a46636;}.cls-7{fill:#d42027;}.cls-8{fill:#21b14b;}.cls-9{fill:#fde500;}.cls-10{fill:#9a5b2a;}.cls-11{fill:#6c401d;}.cls-12{fill:#faf8f7;}.cls-13{fill:#522f27;}.cls-14{fill:#060504;}.cls-15{fill:#600b0c;}.cls-16{fill:#f2ecec;}.cls-17{fill:#fff;}.cls-18{fill:#734725;}</style></defs><title>22</title><g id="Layer_2" data-name="Layer 2"><path class="cls-1" d="M76.78,74.73c-2.66-5.4-6.74-9-11.39-12.23-7.16-4.89-14.8-9.08-21.45-14.7-8.67-7.33-14.17-16.2-12.62-28.09,1.12-8.52,5.27-15.1,13.47-18.3,8.36-3.26,15.65-.58,22,5.11,4.33,3.87,7.27,8.79,9.72,14.15,2.22-3.48,4.09-6.94,6.47-10C90.8.58,101.56-2.58,110.83,2.25c9.44,4.91,14,17.5,10.54,28.94-2.09,6.89-6.44,12.19-11.87,16.7-5.89,4.9-12.52,8.72-18.89,12.92C85.11,64.44,79.81,68.31,76.78,74.73Z"/><path class="cls-2" d="M56.93,370.44c.65-.15.71.36.77.76.72,4.53.52,9-1.77,13.07s-6.25,5.47-10.77,5a10.11,10.11,0,0,0-5.28.82c-5.74,2.47-11.78,2.58-17.86,1.6-3.2-.51-6.39-1.16-9.18-3-6.7-4.43-5.15-12.9-1.25-16.49,2.55-2.36,5.69-3.75,8.84-5.06a68.66,68.66,0,0,1,7.48-2.68,30.05,30.05,0,0,0,6-2.69,36,36,0,0,1,12,12.89c1,2,1,2,3,1.08C51.88,374.38,54.9,373.14,56.93,370.44Zm-26.82,9.31a15.5,15.5,0,0,0,7.15-.38c1.37-.3,3.41-.13,3.93-1.1.61-1.16-.88-2.6-1.57-3.83-2.09-3.71-4.55-7.12-8.45-9.18a1.91,1.91,0,0,0-2.12-.16,21,21,0,0,0-4.63,3.53c-2.58,2.82-2.5,5.6.23,8.26A13.24,13.24,0,0,0,30.11,379.75Z"/><path class="cls-3" d="M56.93,370.44c-2,2.7-5,3.94-8,5.31-2,.93-2,.89-3-1.08a36,36,0,0,0-12-12.89c2.65-2.27,3.83-5.46,5.25-8.48,1.86-4,11.18-32.52,13-36.51,3.14.91,6.17,2.2,9.42,2.69,3,.45,5.94.93,8.9,1.39-1.71,5.75-11.17,36-12.47,41.87A43.45,43.45,0,0,0,56.93,370.44Z"/><path class="cls-3" d="M30.11,379.75a13.24,13.24,0,0,1-5.46-2.86c-2.73-2.66-2.81-5.44-.23-8.26a21,21,0,0,1,4.63-3.53,1.91,1.91,0,0,1,2.12.16c3.9,2.06,6.36,5.47,8.45,9.18.69,1.23,2.18,2.67,1.57,3.83-.52,1-2.56.8-3.93,1.1A15.5,15.5,0,0,1,30.11,379.75Z"/><path class="cls-2" d="M123.5,362.26c.11,0,.24,0,.32,0,4.81,3,10.6,3.66,15.56,6.32l4.28,2.33c5.92,3.22,6.53,11.72,4,15.48-2,3-4.89,4.34-8.16,5.14a36,36,0,0,1-22.29-1.42,3.6,3.6,0,0,0-2.2-.06c-4.23.87-8.32.33-10.7-3.48-2.83-4.55-4.79-9.57-3.54-15.2a24.69,24.69,0,0,0,8.54,5.4c.92.37,1.46.26,1.9-.71a31.59,31.59,0,0,1,8.21-10.5C120.71,364.39,122.33,363.61,123.5,362.26Zm3.24,18.11a11.71,11.71,0,0,0,5.23-2.1c3.1-2.1,4.33-5.45,1.45-8.81a24.26,24.26,0,0,0-4.51-3.66,1.88,1.88,0,0,0-2.23-.07c-5.22,2.69-7.89,7.5-10.43,12.43-.27.54-.07.83.46.93C120,379.77,123.28,380.92,126.74,380.37Z"/><path class="cls-3" d="M123.5,362.26c-1.17,1.35-2.79,2.13-4.11,3.31a31.59,31.59,0,0,0-8.21,10.5c-.44,1-1,1.08-1.9.71a24.69,24.69,0,0,1-8.54-5.4c0-4.87-2-9.21-3.45-13.73-.81-2.63-1.6-5.26-2.39-7.89,6.58-.56,13-1.74,19.07-4.54,2.18,4.46,4,9.1,6.68,13.32C121.49,359.88,122.57,361,123.5,362.26Z"/><path class="cls-3" d="M126.74,380.37c-3.46.55-6.72-.6-10-1.28-.53-.1-.73-.39-.46-.93,2.54-4.93,5.21-9.74,10.43-12.43a1.88,1.88,0,0,1,2.23.07,24.26,24.26,0,0,1,4.51,3.66c2.88,3.36,1.65,6.71-1.45,8.81A11.71,11.71,0,0,1,126.74,380.37Z"/><path class="cls-4" d="M39.68,351l.13,0c1,.3,2.11.46,3.18.66s2.41.47,3.63.69a28.86,28.86,0,0,0,5.17.42c3.05,0,6.1.21,9.15.25a13.78,13.78,0,0,1,2.32.15,2.83,2.83,0,0,0,.71.1c1.65,0,3.3-.21,5-.19a28.54,28.54,0,0,1,4.89.49c1.9.34,16.42,4,23.56,3.57s16.29,0,21.6-5.42a211.71,211.71,0,0,1-4-27.7,245.46,245.46,0,0,0-7.66-43.49c-2.88-9.75-3.45-35.36-3.45-35.36s2.37-18.4-.91-23.62c-3.55-5.66-15.88-6-27.39-5.54a100.9,100.9,0,0,0-25.89,4.85c-3,1.09-4.47,29.65-4.69,35.42s.79,29.78.14,37.85c-.29,3.62-.68,7.22-1.07,10.83a19.75,19.75,0,0,0-.29,3.91,12.76,12.76,0,0,1-.43,3.52c-.32,1.69-.75,3.34-1.16,5a40.13,40.13,0,0,1-1.52,5.33,36,36,0,0,1-1.76,4.49,35.52,35.52,0,0,1-2.53,4.81A20.24,20.24,0,0,0,35,334.25a18.18,18.18,0,0,1-1.37,1.89c-.51.7-.87,1.49-1.41,2.17-.83,1.07-1.8,2.1-2.66,3.15s-1.58,1.76-2.36,2.66a1.54,1.54,0,0,0-.32,1.94c1,1.56,3.64,1.64,5.21,2.13s3.2,1.14,4.79,1.68a6.63,6.63,0,0,1,1.59.61A4.17,4.17,0,0,0,39.68,351Z"/><path class="cls-5" d="M57.42,253.78c4.16,2.8,8.64,4.35,14.1,6.71.3.13.3.62,0,.67-3.17.48-9.79-.22-13.45,2.08a1.63,1.63,0,0,0-.66,1.67c.22,1.14,1.86,1.44,3.14,1.68l13.08.23c1,.12,1.57-.06,1.6.51s-1,.33-1.42.5a35,35,0,0,1-4.92,2,9.49,9.49,0,0,0-1.94,1.46A1.54,1.54,0,0,0,68,273.63a17,17,0,0,0,6.22-.28c3.16-.53,6.39-1.18,9.54-1.71,1.66-.28,2.94-.75,4.63,0,2.12,1,5.06,2.2,7.09,3.32,10.37,5.73,17.75-16.38,13.92-27.84-.73-2.2-1.34-5.15-3.58-5.76a4.73,4.73,0,0,0-2.53.07,6.52,6.52,0,0,0-4.2,3,11,11,0,0,0,.52,11.38c1.2,1.7-.22,1.71-.22,1.71s-3.87-2.25-4.84-4.21c-1.95-4-3.91-8.49-7.08-11.84a2.17,2.17,0,0,0-3-.23,3.42,3.42,0,0,0-.93,2.91,34.41,34.41,0,0,1,0,5.18c-.48,1.21-2.62-.12-3.75-1.2a35.76,35.76,0,0,0-8.41-5.84c-1.51-.78-3.37-1.88-4.35-.49-.53.75.07,2.08.55,2.87a22,22,0,0,0,2.4,2.8,73.28,73.28,0,0,1,5.33,5.85c0,.78-4.43-.66-10.17-1.9-.4-.08-8.67-2.08-9.3-.23C55.62,252.06,56.7,253.3,57.42,253.78Z"/><path class="cls-6" d="M94.05,253.05c-3.62,3.48-7.76,5.78-12.73,9.05-.27.18-.19.66.14.65,3.2-.07,9.6-1.91,13.6-.27A1.64,1.64,0,0,1,96,264c0,1.16-1.59,1.74-2.81,2.2l-12.84,2.5c-1,.29-1.55.22-1.49.78s1.08.14,1.49.24a34.32,34.32,0,0,0,5.19,1.13,9.43,9.43,0,0,1,2.17,1.1,1.55,1.55,0,0,1-.67,2.49,17.11,17.11,0,0,1-6.18.8c-3.2,0-6.49-.05-9.69,0-1.68,0-3-.22-4.55.82-1.92,1.31-4.6,3-6.41,4.49-9.21,7.44-29.54,9-19.84-32.9.52-2.26.83-5.26,3-6.09a4.69,4.69,0,0,1,2.52-.18,6.47,6.47,0,0,1,4.48,2.6c2.24,3.14,1.28,7.34.63,11.37-1.89,11.78-5.85,17.42,2.34,8.74,1.51-1.59,3.43-2.88,4-5,1.24-4.24,2.38-9,4.92-12.89a2.16,2.16,0,0,1,2.88-.74,3.38,3.38,0,0,1,1.42,2.71,36.84,36.84,0,0,0,.9,5.1c.69,1.11,2.57-.58,3.49-1.84a36,36,0,0,1,7.27-7.21c1.35-1,3-2.43,4.2-1.24.65.65.29,2.06,0,2.93a22.53,22.53,0,0,1-1.87,3.17,73.14,73.14,0,0,0-4.23,6.68c.13.77,4.25-1.42,9.68-3.63.38-.15,8.18-3.55,9.11-1.84C95.52,251,94.67,252.45,94.05,253.05Z"/><path class="cls-4" d="M60,231.79a8.53,8.53,0,0,1-.28,2.84c-.48,1.91-2.32,3-3.17,5a22.11,22.11,0,0,0-1.58,8.4,3.53,3.53,0,0,1-.3,1.74,3.52,3.52,0,0,1-1.48.94,13,13,0,0,1-8.34.16c-1.72-.45-3.3-1.1-5-1.65a2.65,2.65,0,0,1-1.88-1.34,7.63,7.63,0,0,1-.3-2.14,34.37,34.37,0,0,0-1.32-8c-.74-3.13-.81-5.66.29-8.37a14.06,14.06,0,0,1,3.46-4.78,16,16,0,0,1,6.1-3.93,8.9,8.9,0,0,1,7.08.53,14.2,14.2,0,0,1,3.11,2.69,13.44,13.44,0,0,1,2.73,3.61A13.38,13.38,0,0,1,60,231.79Z"/><path class="cls-4" d="M88.21,237a8.34,8.34,0,0,0,1.52,2.43c1.28,1.49-.25.87,1.41,2.28a22,22,0,0,1,5.16,6.82,3.65,3.65,0,0,0,1,1.43,3.54,3.54,0,0,0,1.75.17,12.92,12.92,0,0,0,7.53-3.57c1.34-1.17,2.47-2.45,3.74-3.7a2.7,2.7,0,0,0,1.1-2,8,8,0,0,0-.69-2,34.13,34.13,0,0,1-2.39-7.77c-.74-3.13-1.8-5.43-4-7.37a14.25,14.25,0,0,0-5.23-2.73c-2.33-.74-1.16-.41-3.57-.05a8.94,8.94,0,0,0-6.12,3.63,14.54,14.54,0,0,0-1.58,3.79,13.43,13.43,0,0,0-.83,4.45A13.14,13.14,0,0,0,88.21,237Z"/><polygon class="cls-7" points="97.39 220.58 91.25 219.34 55.21 219.3 51.71 219.74 53.34 238.43 94.47 238.26 97.39 220.58"/><path class="cls-8" d="M92.91,219.56l-4.83-1.33-28.86-.11a17.21,17.21,0,0,0-2,.66l-2,.39L57,233.88l33.84-.42Z"/><polygon class="cls-9" points="88.38 218.22 81.92 216.53 62.75 216.82 59.21 217.99 60.83 229.86 87.25 229.47 88.38 218.22"/><path class="cls-6" d="M64.57,226.44l-1.6-9.1a5.44,5.44,0,0,0,4-3.1c1-2.61,2.28-5.89,9-5.83,6.46.06,4.92,3,5.26,4.16a29.32,29.32,0,0,1,.58,3A2.68,2.68,0,0,0,84.05,218c1.64.4-.83,7.46-.83,7.46Z"/><path d="M68.55,209s-15.24,10.74-20.21,20.52c0,0,1.34-19.23.72-24.74,0,0-11.24,17.29-25.5,18.93a28.12,28.12,0,0,0,10.78-26.26S10.08,186.33,0,163.39c0,0,10.92-23.12,14.51-27.06,0,0-5.81-19,1.14-28.09,0,0,20.21-10.52,32.16-7.66,0,0,9.17-14.36,26.69-19.17,0,0,26.61,6.17,32.83,20.17,0,0,27.35,7,31.38,8.59,0,0,8,18.19,2.42,30.14,0,0,9.91,16.41,8.69,24.32,0,0-12.9,19.62-27.36,25.17s1.05,37.68,1.05,37.68-14.4-14.26-23.29-17.45a119.43,119.43,0,0,1,3.89,19.57S87.38,205.39,68.55,209Z"/><path class="cls-10" d="M20.17,156.07l1.9-11.86A3.79,3.79,0,0,0,21,141.85c-.93-.78-4.82-4.25-4.82-4.25s5.21.63,7,1.93c.68.1.89.65,1.58-.32s9-11.82,9-11.82,14.63-7,16.61-8.29,2.46-1.72,2-4.18-1.86-8.36-2.2-9.43c0,0,5.22,9.91,5.74,11.27s2.06.55,2.43.41,18-5.2,18-5.2a4,4,0,0,1,2.29,0c1.69.35,16,3.94,18.45,5.41.89.29,1.3.06,1.58-.33s6.72-6.33,8.11-9c0,0-3.43,8.26-3.55,9.8-.5,1.46.6,1.18.93,1.48s11.31,6.94,11.31,6.94l6.53,14.8s11-2.46,14.86-.45a23.07,23.07,0,0,0-12,2.84s2.62,6.65,2.1,9.54c2.12,18.48-.6,29.87-3.5,37.09-6.15,12.43-22.29,22.87-31.93,26.57-14.7,4.79-21.82,4.12-36.36-.52-4.54-4.07-21.42-7.38-31.49-34Z"/><path class="cls-10" d="M20.3,182.19a5.58,5.58,0,0,0,3-.08,5.74,5.74,0,0,0,1.63-2.42c1.9-3.74,1.2-8.2.45-12.32l-.68-3.76a22.45,22.45,0,0,0-1.3-4.92A7.59,7.59,0,0,0,20,154.86a7.09,7.09,0,0,0-4.32-.58,10,10,0,0,0-5,1.59,7.3,7.3,0,0,0-2.41,3.84,21.89,21.89,0,0,0-.65,6.75,18.54,18.54,0,0,0,1.84,6.2,19,19,0,0,0,4.67,6.61A11,11,0,0,0,20.3,182.19Z"/><path class="cls-11" d="M15.73,158.25a5.22,5.22,0,0,1,2.05.19,13.92,13.92,0,0,1,2.77,1.49c.06-.76-.52-1.34-1.24-2.26A4.51,4.51,0,0,0,18,156.58a4.81,4.81,0,0,0-2.46-.51,6.62,6.62,0,0,0-5.77,4.43c-1,2.46,0,5.32.79,7.83,2,6,5,9.36,8.09,11,.14.07,2.86,1.92,4.07,1a2.51,2.51,0,0,0,.38-.48,3.19,3.19,0,0,0,.42-2.39,2,2,0,0,0-2-1.55,1.89,1.89,0,0,1-.45,2.34,1.63,1.63,0,0,1-.79.16,10,10,0,0,1-1.71-.84,6.87,6.87,0,0,1-2.85-2.73A19.89,19.89,0,0,1,14.13,172a30,30,0,0,1-2.61-7c-.45-2.49.63-5.57,3-6.53A3.54,3.54,0,0,1,15.73,158.25Z"/><path class="cls-10" d="M128.69,179.43c-1,.22-2.43.83-3,.51a5.73,5.73,0,0,1-1.64-2.41c-1.91-3.73-1.22-8.2-.49-12.32l.67-3.76a22,22,0,0,1,1.29-4.93c.68-1.56,1-3,2.55-3.72a13,13,0,0,1,5.74-1.4c1.52.11,3.68.31,4.85,1.28s1.5,3.27,1.94,4.82a21.13,21.13,0,0,1,.31,6.6c-.09,2.09-1.16,4.37-2,6.3-1.12,2.58-3.2,3.92-5.26,5.84S131.1,178.92,128.69,179.43Z"/><path class="cls-11" d="M133,155a5.07,5.07,0,0,0-2.06.2,13.17,13.17,0,0,0-2.76,1.5c-.07-.77.52-1.35,1.23-2.27a4.51,4.51,0,0,1,1.28-1.1,4.87,4.87,0,0,1,2.47-.51,6.61,6.61,0,0,1,5.78,4.41c1,2.46,0,6.67-.8,9.19-2,6-5.15,9-8.23,10.67-.14.08-2.86,1.93-4.06,1a1.91,1.91,0,0,1-.38-.47,3.21,3.21,0,0,1-.44-2.4,2,2,0,0,1,2-1.55,1.9,1.9,0,0,0,.46,2.34,1.51,1.51,0,0,0,.79.15,8.66,8.66,0,0,0,1.7-.84,9.56,9.56,0,0,0,3.39-3.24,19.43,19.43,0,0,0,1.63-2.78,30,30,0,0,0,2.59-7c.45-2.49-1-6.06-3.33-7A3.48,3.48,0,0,0,133,155Z"/><path class="cls-12" d="M59.47,181.39a24.84,24.84,0,0,1-15.64-.68A12.54,12.54,0,0,1,35.77,168c.37-5.71,5.64-11,11.38-11.76a22.37,22.37,0,0,1,16.17,4,11.32,11.32,0,0,1,5,11.11C67.76,176.11,65.08,179.35,59.47,181.39Z"/><path class="cls-12" d="M103,182.78a25,25,0,0,1-16.48-1.29c-4.63-2-6-6.13-6.17-10.76a10.23,10.23,0,0,1,5.63-9.91,21.69,21.69,0,0,1,18.54-1.1,11.86,11.86,0,0,1,7.55,11C111.88,176.46,109.16,180.44,103,182.78Z"/><path class="cls-13" d="M54.74,178.68a8.92,8.92,0,1,1,5.14-11.48A8.87,8.87,0,0,1,54.74,178.68Zm-9.21-8.29.09.81a6.1,6.1,0,0,0,5,5.57,5.79,5.79,0,0,0,6.49-3.68,6.28,6.28,0,0,0-2.38-7.28c-1.58-1.1-4.56-1.09-5.84,0-1.82-.86-3.1-.69-4,.54S44.19,168.85,45.53,170.39Z"/><path class="cls-14" d="M48.9,165.84c1.28-1.12,4.26-1.13,5.84,0a6.28,6.28,0,0,1,2.38,7.28,5.79,5.79,0,0,1-6.49,3.68,6.1,6.1,0,0,1-5-5.57l-.09-.81c1.4.5,2.77.64,3.75-.75A2.82,2.82,0,0,0,48.9,165.84Z"/><path class="cls-12" d="M48.9,165.84a2.82,2.82,0,0,1,.38,3.8c-1,1.39-2.35,1.25-3.75.75-1.34-1.54-1.53-2.79-.63-4S47.08,165,48.9,165.84Z"/><path class="cls-13" d="M95.19,180.48a8.94,8.94,0,1,1,9.16-8.61A8.94,8.94,0,0,1,95.19,180.48Zm-5.68-13.89c-.87,1.26-.61,2.52.79,4-.63,1.57.34,4.39,1.9,5.52a6.27,6.27,0,0,0,7.65-.13,5.79,5.79,0,0,0,1.35-7.34,6.1,6.1,0,0,0-6.91-2.91l-.79.18C91.61,165.12,90.36,165.35,89.51,166.59Z"/><path class="cls-14" d="M90.3,170.56c-.63,1.57.34,4.39,1.9,5.52a6.27,6.27,0,0,0,7.65-.13,5.79,5.79,0,0,0,1.35-7.34,6.1,6.1,0,0,0-6.91-2.91l-.79.18c.94,1.16,1.51,2.41.52,3.79A2.82,2.82,0,0,1,90.3,170.56Z"/><path class="cls-12" d="M90.3,170.56a2.82,2.82,0,0,0,3.72-.89c1-1.38.42-2.63-.52-3.79-1.89-.76-3.14-.53-4,.71S88.9,169.11,90.3,170.56Z"/><path class="cls-15" d="M61.42,198.26s-1-1,.47-.36a28.55,28.55,0,0,0,17.86,1.2,15.73,15.73,0,0,0,2.7-.93c.26-.07.35.18-.06.41s-4.08,1.92-5.08,3.3a4.44,4.44,0,0,1-3.14,1.52,16.57,16.57,0,0,1-6.38-.56C65.56,201.67,65.61,200,61.42,198.26Z"/><path class="cls-16" d="M61.13,197.31s.3,1.44,4.88,2.66a27.21,27.21,0,0,0,12.07.3,12.63,12.63,0,0,0,4.57-2.22Z"/><path class="cls-17" d="M66.79,202.08s4.21.62,5.07.65,4.59-.24,5.81.36S68.68,205.9,66.79,202.08Z"/><path class="cls-18" d="M73.79,196.77c-1.58-.1-4.65-.27-6.23-.26a23.36,23.36,0,0,0-3.45.25,19.92,19.92,0,0,1-2.47.19,4.61,4.61,0,0,1-1-.09l-2.05-.4a.15.15,0,0,0-.11.27,12.79,12.79,0,0,1,5,6.14,5.42,5.42,0,0,0,.74,1.46A3.42,3.42,0,0,0,65,205a9,9,0,0,0,4.52,1.32,29.69,29.69,0,0,0,4.32.1,14.39,14.39,0,0,0,5.36-1.7c.5-.28,1-1.23,1.37-1.63a25.06,25.06,0,0,0,1.52-2.32c1.39-1.91,3.42-2.62,4.72-3.58C82.83,197.7,78.78,197.1,73.79,196.77Zm8.6,1.81c-.41.23-4.08,1.92-5.08,3.3a4.44,4.44,0,0,1-3.14,1.52,16.57,16.57,0,0,1-6.38-.56c-2.23-1.17-2.18-2.82-6.37-4.58,0,0-1-1,.47-.36a28.55,28.55,0,0,0,17.86,1.2,15.73,15.73,0,0,0,2.7-.93C82.71,198.1,82.8,198.35,82.39,198.58Z"/><path class="cls-13" d="M76.62,188.77c-4.64,2.18-9.83-.57-12.24-3.89-1-1.4-.53-2.4,1.16-2.57a7.31,7.31,0,0,1,1.62,0,74.79,74.79,0,0,0,12.15.52c.81,0,1.73-.1,2.17.75s-.18,1.64-.72,2.31A8.49,8.49,0,0,1,76.62,188.77Z"/><path class="cls-2" d="M45.69,145.23c4.23-1.3,8.76-1.92,13.32-.08a9.65,9.65,0,0,1,1.16.58A1.31,1.31,0,0,1,61,147c-.12.71-.8.59-1.32.58-1.73,0-3.46-.1-5.18-.17-6.1-.24-11.08,2.33-15.58,6.13a10.24,10.24,0,0,1-1.57,1.13c-.39.23-.86.63-1.32.19s-.2-.92-.07-1.38a8.64,8.64,0,0,1,2.57-3.69A22.24,22.24,0,0,1,45.69,145.23Z"/><path class="cls-2" d="M112.13,155.66c.42,1.13,1,2.27.16,2.81s-1.58-.6-2.18-1.21c-1.49-1.49-2.91-3-4.55-4.4a21.14,21.14,0,0,0-12.3-4.51c-1.14-.09-2.27-.19-3.4-.34-.48-.06-1-.16-1.14-.74s.43-.92.93-1.16a9.49,9.49,0,0,1,4.41-.93c7.45.15,13.36,3.18,17.53,9.43A7.58,7.58,0,0,1,112.13,155.66Z"/></g></svg>