<svg xmlns="http://www.w3.org/2000/svg" xmlns:xlink="http://www.w3.org/1999/xlink" viewBox="0 0 489.26 394.36"><defs><style>.cls-1,.cls-18{fill:none;}.cls-2{fill:#93278f;}.cls-3{clip-path:url(#clip-path);}.cls-4{fill:#fc9a8d;}.cls-5{fill:#d4555e;}.cls-6{fill:#510706;}.cls-7{clip-path:url(#clip-path-2);}.cls-8{clip-path:url(#clip-path-3);}.cls-9{clip-path:url(#clip-path-4);}.cls-10{clip-path:url(#clip-path-5);}.cls-11{clip-path:url(#clip-path-6);}.cls-12{clip-path:url(#clip-path-7);}.cls-13{clip-path:url(#clip-path-8);}.cls-14,.cls-17{fill:#2f009a;}.cls-15{fill:#fff;}.cls-16{fill:#231f20;}.cls-17,.cls-18{stroke:#a81307;stroke-linecap:round;stroke-linejoin:round;}.cls-17{stroke-width:0.85px;}.cls-18{stroke-width:1.71px;}.cls-19{clip-path:url(#clip-path-9);}.cls-20{fill:#fa4316;}</style><clipPath id="clip-path"><path id="SVGID" class="cls-1" d="M460.72,234.26c3.57-2.88,3-9.21-1.62-10.71s.45-9,11-5.48,31.4,22,4.35,40.47S394,244.86,377.29,229.79c-11-8.57-98.56-2.45-87.42-34.12,0,0,18.29-23.39,43.91-15.52"/></clipPath><clipPath id="clip-path-2"><path id="SVGID-2" data-name="SVGID" class="cls-1" d="M433.69,278.9c4.07-2.1,4.78-8.42.57-10.81s2.25-8.71,11.87-3.15,26.32,27.9-3.89,40.52-76-29.61-89.36-47.74c-9.05-10.61-96.05-22.25-78.76-51,0,0,22.62-19.23,46.14-6.36"/></clipPath><clipPath id="clip-path-3"><path id="SVGID-3" data-name="SVGID" class="cls-1" d="M389.25,326.62c4.53-.69,7.22-6.45,4-10.06s4.92-7.53,12.25.81,16,34.85-16.64,37.14-62.57-52.37-69.4-73.81c-5.18-12.95-83.89-51.8-58.3-73.54,0,0,27.59-11,45.75,8.73"/></clipPath><clipPath id="clip-path-4"><path id="SVGID-4" data-name="SVGID" class="cls-1" d="M314.26,368.39c4.36,1.42,9.36-2.51,8.1-7.19s7.78-4.51,10.58,6.24-1.4,38.32-31.59,25.67S269.07,318.17,272.62,296c1.2-13.89-51.57-84-18.94-91.92,0,0,29.57,2.62,36.92,28.4"/></clipPath><clipPath id="clip-path-5"><path id="SVGID-5" data-name="SVGID" class="cls-1" d="M25.67,216.79c-3.27-3.21-2.08-9.46,2.65-10.5s.42-9-10.41-6.51-33.37,18.89-8.23,39.86,81.38-5.87,99.47-19.26c11.78-7.47,98.34,7.07,90.31-25.53,0,0-15.95-25-42.21-19.69"/></clipPath><clipPath id="clip-path-6"><path id="SVGID-6" data-name="SVGID" class="cls-1" d="M53,272c-4-2.27-4.43-8.61-.12-10.83s-1.89-8.79-11.73-3.64-27.45,26.78,2.21,40.64,77.19-26.44,91.27-44c9.48-10.23,96.89-18.25,80.81-47.72,0,0-21.81-20.15-45.84-8.27"/></clipPath><clipPath id="clip-path-7"><path id="SVGID-7" data-name="SVGID" class="cls-1" d="M100.56,326.31c-4.53-.69-7.23-6.45-4-10.06s-4.92-7.52-12.25.82-16,34.86,16.67,37.13,62.53-52.43,69.34-73.87c5.17-13,83.85-51.87,58.24-73.59,0,0-27.59-11-45.74,8.77"/></clipPath><clipPath id="clip-path-8"><path id="SVGID-8" data-name="SVGID" class="cls-1" d="M178.4,369.45c-4.32,1.53-9.41-2.29-8.27-7s-7.88-4.32-10.43,6.49,2.29,38.28,32.18,24.93,30.53-75.67,26.46-97.8c-1.53-13.86,49.6-85.21,16.79-92.33,0,0-29.51,3.31-36.25,29.25"/></clipPath><clipPath id="clip-path-9"><path id="SVGID-9" data-name="SVGID" class="cls-1" d="M209.69,165s31.95,20.59,69.57,0C279.26,165,244.48,225.33,209.69,165Z"/></clipPath></defs><title>17_big_octopus_move_flap_legs</title><g id="character"><path class="cls-2" d="M289.87,195.66s18.29-23.39,43.91-15.52,26.95,3.45,47.8,12.47c24.43,10.56,47.76,54.75,79.13,41.65,3.57-2.88,3-9.21-1.62-10.71s.45-9,11-5.48,31.4,22,4.35,40.47S394,244.86,377.29,229.79C366.29,221.22,278.73,227.34,289.87,195.66Z"/><g class="cls-3"><path class="cls-4" d="M495.9,241.89s-14.26,25.57-56.58,9.66-80.95-67.92-157.83-36c0,0,76.88,23.6,81.31,23.19S464.35,308.64,495.9,241.89Z"/></g><circle class="cls-5" cx="466.68" cy="262.27" r="6.24" transform="translate(-65.38 203.22) rotate(-23)"/><circle class="cls-6" cx="464.65" cy="262.92" r="3.82" transform="translate(-65.8 202.48) rotate(-23)"/><circle class="cls-5" cx="431.28" cy="259.92" r="6.24" transform="translate(-67.28 189.2) rotate(-23)"/><circle class="cls-6" cx="429.25" cy="260.57" r="3.82" transform="translate(-67.69 188.46) rotate(-23)"/><circle class="cls-5" cx="394.86" cy="243.15" r="6.24" transform="translate(-63.62 173.63) rotate(-23)"/><circle class="cls-6" cx="392.82" cy="243.8" r="3.82" transform="translate(-64.04 172.89) rotate(-23)"/><circle class="cls-5" cx="365.68" cy="226.88" r="6.24" transform="translate(-59.58 160.94) rotate(-23)"/><circle class="cls-6" cx="363.65" cy="227.54" r="3.82" transform="translate(-60 160.2) rotate(-23)"/><circle class="cls-5" cx="333.11" cy="222.31" r="6.24" transform="translate(-60.39 147.85) rotate(-23)"/><circle class="cls-6" cx="331.08" cy="222.96" r="3.82" transform="translate(-60.8 147.11) rotate(-23)"/><path class="cls-2" d="M274.12,206.68s22.62-19.23,46.14-6.36,25.7,8.81,44.31,21.84c21.8,15.27,35.76,63.25,69.12,56.74,4.07-2.1,4.78-8.42.57-10.81s2.25-8.71,11.87-3.15,26.32,27.9-3.89,40.52-76-29.61-89.36-47.74C343.83,247.11,256.83,235.46,274.12,206.68Z"/><g class="cls-7"><path class="cls-4" d="M466.62,293.46s-19.11,22.18-57.37-1.93-65.61-82.84-147.36-67c0,0,70.55,38.6,75,39.09S422.27,352.49,466.62,293.46Z"/></g><circle class="cls-5" cx="433.89" cy="307.54" r="6.24" transform="translate(-52.16 91.69) rotate(-11.38)"/><circle class="cls-6" cx="431.77" cy="307.77" r="3.82" transform="translate(-52.25 91.27) rotate(-11.38)"/><circle class="cls-5" cx="399.69" cy="298.11" r="6.24" transform="translate(-50.98 84.75) rotate(-11.38)"/><circle class="cls-6" cx="397.57" cy="298.34" r="3.82" transform="translate(-51.06 84.34) rotate(-11.38)"/><circle class="cls-5" cx="367.39" cy="274.34" r="6.24" transform="translate(-46.92 77.91) rotate(-11.38)"/><circle class="cls-6" cx="365.27" cy="274.57" r="3.82" transform="translate(-47.01 77.5) rotate(-11.38)"/><circle class="cls-5" cx="342.09" cy="252.53" r="6.24" transform="translate(-43.11 72.49) rotate(-11.38)"/><circle class="cls-6" cx="339.97" cy="252.76" r="3.82" transform="translate(-43.2 72.07) rotate(-11.38)"/><circle class="cls-5" cx="311.11" cy="241.49" r="6.24" transform="translate(-41.54 66.16) rotate(-11.38)"/><circle class="cls-6" cx="308.99" cy="241.72" r="3.82" transform="translate(-41.63 65.74) rotate(-11.38)"/><path class="cls-2" d="M261.16,207.15s27.59-11,45.75,8.73,21.53,16.57,35,34.87c15.77,21.44,13.65,71.36,47.34,75.86,4.53-.69,7.22-6.45,4-10.06s4.92-7.53,12.25.81,16,34.85-16.64,37.14-62.57-52.37-69.4-73.81C314.27,267.75,235.57,228.89,261.16,207.15Z"/><g class="cls-8"><path class="cls-4" d="M415.79,350.94s-25.2,14.9-53.74-20.18-35.67-99.47-118.18-110.63c0,0,54.5,59.13,58.53,61S354.89,392.68,415.79,350.94Z"/></g><circle class="cls-5" cx="380.28" cy="353.81" r="6.24" transform="translate(-18.8 686.26) rotate(-82.73)"/><circle class="cls-6" cx="378.2" cy="353.35" r="3.82" transform="translate(-20.16 683.79) rotate(-82.73)"/><circle class="cls-5" cx="350.89" cy="333.93" r="6.24" transform="translate(-24.76 639.75) rotate(-82.73)"/><circle class="cls-6" cx="348.81" cy="333.47" r="3.82" transform="translate(-26.12 637.28) rotate(-82.73)"/><circle class="cls-5" cx="327.89" cy="301.09" r="6.24" transform="translate(-12.26 588.25) rotate(-82.73)"/><circle class="cls-6" cx="325.81" cy="300.63" r="3.82" transform="translate(-13.63 585.78) rotate(-82.73)"/><circle class="cls-5" cx="310.89" cy="272.33" r="6.24" transform="translate(1.41 546.27) rotate(-82.73)"/><circle class="cls-6" cx="308.81" cy="271.87" r="3.82" transform="translate(0.05 543.8) rotate(-82.73)"/><circle class="cls-5" cx="285.07" cy="251.96" r="6.24" transform="translate(-0.94 502.86) rotate(-82.73)"/><circle class="cls-6" cx="282.99" cy="251.5" r="3.82" transform="matrix(0.13, -0.99, 0.99, 0.13, -2.3, 500.39)"/><path class="cls-2" d="M253.69,204s29.57,2.62,36.92,28.4,11.76,24.49,15.55,46.89c4.43,26.24-19.95,69.87,8.11,89.06,4.36,1.42,9.36-2.51,8.1-7.19s7.78-4.51,10.58,6.24-1.4,38.32-31.59,25.67S269.07,318.17,272.62,296C273.82,282.06,221,211.93,253.69,204Z"/><g class="cls-9"><path class="cls-4" d="M327,402.06s-29.21,2-38.89-42.22,12.95-104.87-55.7-152c0,0,22,77.34,24.78,80.84S253.83,411.9,327,402.06Z"/></g><circle class="cls-5" cx="294.01" cy="388.62" r="6.24" transform="translate(-192.6 414.77) rotate(-55.97)"/><circle class="cls-6" cx="292.35" cy="387.28" r="3.82" transform="translate(-192.21 412.81) rotate(-55.97)"/><circle class="cls-5" cx="276.71" cy="357.65" r="6.24" transform="matrix(0.56, -0.83, 0.83, 0.56, -174.54, 386.8)"/><circle class="cls-6" cx="275.06" cy="356.3" r="3.82" transform="translate(-174.15 384.84) rotate(-55.97)"/><circle class="cls-5" cx="270.97" cy="317.96" r="6.24" transform="translate(-144.18 364.56) rotate(-55.97)"/><circle class="cls-6" cx="269.32" cy="316.61" r="3.82" transform="translate(-143.79 362.6) rotate(-55.97)"/><circle class="cls-5" cx="268.74" cy="284.63" r="6.24" transform="translate(-117.55 348.04) rotate(-55.97)"/><circle class="cls-6" cx="267.09" cy="283.28" r="3.82" transform="translate(-117.16 346.08) rotate(-55.97)"/><circle class="cls-5" cx="254.86" cy="254.82" r="6.24" transform="matrix(0.56, -0.83, 0.83, 0.56, -98.95, 323.41)"/><circle class="cls-6" cx="253.21" cy="253.47" r="3.82" transform="translate(-98.56 321.44) rotate(-55.97)"/><path class="cls-2" d="M199.45,194.84s-15.95-25-42.21-19.69-27.15.84-48.78,7.8c-25.33,8.16-52.82,49.89-82.78,33.83-3.27-3.21-2.08-9.46,2.65-10.5s.42-9-10.41-6.51-33.37,18.89-8.23,39.86,81.38-5.87,99.47-19.26C120.92,212.91,207.48,227.44,199.45,194.84Z"/><g class="cls-10"><path class="cls-4" d="M-10.08,221s11.72,26.83,55.39,15.07,87.12-59.8,160.57-20.57c0,0-78.8,16.07-83.17,15.24S14.88,290.47-10.08,221Z"/></g><circle class="cls-5" cx="17.04" cy="244.08" r="6.24" transform="translate(-205.53 142.45) rotate(-61.46)"/><circle class="cls-6" cx="19" cy="244.93" r="3.82" transform="translate(-205.25 144.61) rotate(-61.46)"/><circle class="cls-5" cx="52.5" cy="245.16" r="6.24" transform="translate(-187.96 174.16) rotate(-61.46)"/><circle class="cls-6" cx="54.46" cy="246.01" r="3.82" transform="translate(-187.68 176.32) rotate(-61.46)"/><circle class="cls-5" cx="90.37" cy="231.98" r="6.24" transform="translate(-156.6 200.54) rotate(-61.46)"/><circle class="cls-6" cx="92.33" cy="232.82" r="3.82" transform="translate(-156.32 202.71) rotate(-61.46)"/><circle class="cls-5" cx="120.98" cy="218.61" r="6.24" transform="translate(-128.86 220.45) rotate(-61.46)"/><circle class="cls-6" cx="122.94" cy="219.45" r="3.82" transform="translate(-128.58 222.61) rotate(-61.46)"/><circle class="cls-5" cx="153.83" cy="217.19" r="6.24" transform="translate(-110.46 248.58) rotate(-61.46)"/><circle class="cls-6" cx="155.79" cy="218.04" r="3.82" transform="translate(-110.18 250.74) rotate(-61.46)"/><path class="cls-2" d="M215.46,206.47s-21.81-20.15-45.84-8.27-26,7.74-45.18,20C102,232.54,86.09,279.9,53,272c-4-2.27-4.43-8.61-.12-10.83s-1.89-8.79-11.73-3.64-27.45,26.78,2.21,40.64,77.19-26.44,91.27-44C144.14,244,231.54,235.94,215.46,206.47Z"/><g class="cls-11"><path class="cls-4" d="M19.53,285.19s18.18,23,57.4.45,69-80,150-60.85c0,0-72.09,35.64-76.53,36S61.39,346,19.53,285.19Z"/></g><circle class="cls-5" cx="51.65" cy="300.61" r="6.24" transform="translate(-252.62 279.28) rotate(-76.24)"/><circle class="cls-6" cx="53.76" cy="300.93" r="3.82" transform="translate(-251.32 281.57) rotate(-76.24)"/><circle class="cls-5" cx="86.21" cy="292.61" r="6.24" transform="translate(-218.51 306.75) rotate(-76.24)"/><circle class="cls-6" cx="88.32" cy="292.93" r="3.82" transform="translate(-217.21 309.04) rotate(-76.24)"/><circle class="cls-5" cx="119.46" cy="270.2" r="6.24" transform="translate(-171.4 321.97) rotate(-76.24)"/><circle class="cls-6" cx="121.57" cy="270.52" r="3.82" transform="translate(-170.1 324.26) rotate(-76.24)"/><circle class="cls-5" cx="145.65" cy="249.46" r="6.24" transform="translate(-131.3 331.6) rotate(-76.24)"/><circle class="cls-6" cx="147.76" cy="249.78" r="3.82" transform="translate(-130 333.89) rotate(-76.24)"/><circle class="cls-5" cx="177.06" cy="239.71" r="6.24" transform="translate(-97.89 354.68) rotate(-76.24)"/><circle class="cls-6" cx="179.17" cy="240.03" r="3.82" transform="translate(-96.59 356.97) rotate(-76.24)"/><path class="cls-2" d="M228.55,206.74s-27.59-11-45.74,8.77-21.52,16.58-35,34.9c-15.75,21.45-13.59,71.37-47.28,75.9-4.53-.69-7.23-6.45-4-10.06s-4.92-7.52-12.25.82-16,34.86,16.67,37.13,62.53-52.43,69.34-73.87C175.48,267.38,254.16,228.46,228.55,206.74Z"/><g class="cls-12"><path class="cls-4" d="M74,350.65s25.22,14.88,53.72-20.22,35.59-99.5,118.09-110.72c0,0-54.45,59.18-58.48,61.06S135,392.35,74,350.65Z"/></g><circle class="cls-5" cx="109.55" cy="353.49" r="6.24" transform="translate(-44.12 16.83) rotate(-7.32)"/><circle class="cls-6" cx="111.63" cy="353.03" r="3.82" transform="translate(-44.04 17.09) rotate(-7.32)"/><circle class="cls-5" cx="138.92" cy="333.59" r="6.24" transform="translate(-41.35 20.4) rotate(-7.32)"/><circle class="cls-6" cx="141" cy="333.13" r="3.82" transform="translate(-41.27 20.67) rotate(-7.32)"/><circle class="cls-5" cx="161.89" cy="300.73" r="6.24" transform="translate(-36.97 23.06) rotate(-7.32)"/><circle class="cls-6" cx="163.97" cy="300.27" r="3.82" transform="translate(-36.9 23.32) rotate(-7.32)"/><circle class="cls-5" cx="178.87" cy="271.96" r="6.24" transform="translate(-33.17 24.99) rotate(-7.32)"/><circle class="cls-6" cx="180.95" cy="271.5" r="3.82" transform="translate(-33.1 25.25) rotate(-7.32)"/><circle class="cls-5" cx="204.67" cy="251.57" r="6.24" transform="translate(-30.37 28.11) rotate(-7.32)"/><circle class="cls-6" cx="206.76" cy="251.11" r="3.82" transform="translate(-30.29 28.37) rotate(-7.32)"/><path class="cls-2" d="M235.13,203.74S205.63,207,198.88,233s-11.19,24.75-14.45,47.24c-3.82,26.34,21.57,69.38-6,89.22-4.32,1.53-9.41-2.29-8.27-7s-7.88-4.32-10.43,6.49,2.29,38.28,32.18,24.93,30.53-75.67,26.46-97.8C216.81,282.21,267.94,210.86,235.13,203.74Z"/><g class="cls-13"><path class="cls-4" d="M166.44,403.41s29.25,1.27,37.9-43.11S189,255.75,256.5,207c0,0-20.23,77.83-22.9,81.39S239.83,411.55,166.44,403.41Z"/></g><circle class="cls-5" cx="199.12" cy="389.21" r="6.24" transform="translate(-188.54 187.07) rotate(-35.37)"/><circle class="cls-6" cx="200.74" cy="387.83" r="3.82" transform="translate(-187.43 187.76) rotate(-35.37)"/><circle class="cls-5" cx="215.68" cy="357.84" r="6.24" transform="translate(-167.32 190.87) rotate(-35.37)"/><circle class="cls-6" cx="217.3" cy="356.46" r="3.82" transform="translate(-166.22 191.56) rotate(-35.37)"/><circle class="cls-5" cx="220.5" cy="318.03" r="6.24" transform="translate(-143.39 186.32) rotate(-35.37)"/><circle class="cls-6" cx="222.12" cy="316.65" r="3.82" transform="translate(-142.29 187) rotate(-35.37)"/><circle class="cls-5" cx="221.96" cy="284.66" r="6.24" transform="translate(-123.81 181) rotate(-35.37)"/><circle class="cls-6" cx="223.58" cy="283.27" r="3.82" transform="translate(-122.7 181.68) rotate(-35.37)"/><circle class="cls-5" cx="235.14" cy="254.53" r="6.24" transform="translate(-103.93 183.07) rotate(-35.37)"/><circle class="cls-6" cx="236.76" cy="253.15" r="3.82" transform="translate(-102.83 183.75) rotate(-35.37)"/><path class="cls-2" d="M255.89.59a140.64,140.64,0,0,0-25.69,0c-87.77,6.62-93.65,99.11-80.74,125.34a235.6,235.6,0,0,0,15.39,26.59,22.37,22.37,0,0,0,11,36.58c1.75,16.15,35.89,21.16,59.83,22,2.14.09,4.62.14,7.34.14s5.19,0,7.34-.14c23.71-.84,57.41-5.77,59.77-21.54a22.37,22.37,0,0,0,11.46-38.91c4.45-6.88,9.72-14.6,15-24.73C350.15,100.1,343.46,9.84,255.89.59Z"/><circle class="cls-14" cx="213.57" cy="122.65" r="26.41"/><circle class="cls-15" cx="213.57" cy="124.71" r="23.25"/><circle class="cls-16" cx="213.57" cy="124.71" r="18.34"/><circle class="cls-15" cx="221.38" cy="116.4" r="6.92"/><circle class="cls-14" cx="277.13" cy="122.65" r="26.41"/><circle class="cls-15" cx="277.13" cy="124.71" r="23.25"/><circle class="cls-16" cx="277.13" cy="124.71" r="18.34"/><circle class="cls-15" cx="284.94" cy="116.4" r="6.92"/><path class="cls-17" d="M209.69,165s31.95,20.59,69.57,0C279.26,165,244.48,225.33,209.69,165Z"/><path class="cls-18" d="M203,165.55a8.68,8.68,0,0,0,11-5.1"/><path class="cls-18" d="M286.71,165.55a8.68,8.68,0,0,1-11-5.1"/><g class="cls-19"><path class="cls-20" d="M231.27,192.49s-.56-8.43,5.38-8.43,6.82,3.37,6.82,3.37.88-3.85,7.38-3.85,5.54,12.36,5.54,12.36Z"/></g><path class="cls-17" d="M197.65,79.42h28.4S211.85,68.06,197.65,79.42Z"/><path class="cls-17" d="M263.92,79.42h28.4S278.12,68.06,263.92,79.42Z"/></g></svg>