<svg xmlns="http://www.w3.org/2000/svg" xmlns:xlink="http://www.w3.org/1999/xlink" viewBox="0 0 489.26 394.36"><defs><style>.cls-1,.cls-18{fill:none;}.cls-2{fill:#93278f;}.cls-3{clip-path:url(#clip-path);}.cls-4{fill:#fc9a8d;}.cls-5{fill:#d4555e;}.cls-6{fill:#510706;}.cls-7{clip-path:url(#clip-path-2);}.cls-8{clip-path:url(#clip-path-3);}.cls-9{clip-path:url(#clip-path-4);}.cls-10{clip-path:url(#clip-path-5);}.cls-11{clip-path:url(#clip-path-6);}.cls-12{clip-path:url(#clip-path-7);}.cls-13{clip-path:url(#clip-path-8);}.cls-14,.cls-17{fill:#2f009a;}.cls-15{fill:#fff;}.cls-16{fill:#231f20;}.cls-17,.cls-18{stroke:#a81307;stroke-linecap:round;stroke-linejoin:round;}.cls-17{stroke-width:0.85px;}.cls-18{stroke-width:1.71px;}.cls-19{clip-path:url(#clip-path-9);}.cls-20{fill:#fa4316;}</style><clipPath id="clip-path"><path id="SVGID" class="cls-1" d="M443.28,112c.77-4.52-3.86-8.88-8.3-7s-5.6-7,4.62-11.38,38.11-4.26,30,27.46-69.37,43-91.87,42.71c-13.92.86-75.53,63.38-88.13,32.26,0,0-1.76-29.64,22.66-40.7"/></clipPath><clipPath id="clip-path-2"><path id="SVGID-2" data-name="SVGID" class="cls-1" d="M448.31,206.74c2.85-3.6.89-9.65-3.94-10.09s-1.53-8.86,9.52-7.76,35.47,14.58,13.15,38.52-81.48,4.33-101.09-6.69c-12.62-5.94-96.69,19.29-92.79-14.06,0,0,12.7-26.84,39.43-24.8"/></clipPath><clipPath id="clip-path-3"><path id="SVGID-3" data-name="SVGID" class="cls-1" d="M416,289.08c4.2-1.85,5.29-8.11,1.24-10.76s2.79-8.55,12-2.41,24.53,29.48-6.4,40.2-74-34.28-86.23-53.2c-8.38-11.15-94.48-28.17-75.44-55.82,0,0,23.77-17.78,46.45-3.48"/></clipPath><clipPath id="clip-path-4"><path id="SVGID-4" data-name="SVGID" class="cls-1" d="M338.08,354.78c4.54.62,8.75-4.15,6.68-8.52s6.85-5.83,11.53,4.24,5.51,38-26.46,30.93S284.61,313.5,284.11,291c-1.31-13.88-65.84-73.39-35.15-87,0,0,29.56-2.74,41.42,21.3"/></clipPath><clipPath id="clip-path-5"><path id="SVGID-5" data-name="SVGID" class="cls-1" d="M39.35,123.28c-1.09-4.45,3.21-9.14,7.78-7.54s5.08-7.42-5.43-11-38.32-1.49-28,29.56,72.3,37.83,94.72,36c13.95-.15,79.91,57.75,90.23,25.8,0,0-.38-29.69-25.54-39"/></clipPath><clipPath id="clip-path-6"><path id="SVGID-6" data-name="SVGID" class="cls-1" d="M40.45,208.65c-2.88-3.57-1-9.64,3.84-10.12s1.45-8.88-9.59-7.67S-.63,205.76,21.92,229.5s81.52,3.57,101-7.64c12.56-6.06,96.87,18.38,92.65-14.93,0,0-12.95-26.72-39.65-24.43"/></clipPath><clipPath id="clip-path-7"><path id="SVGID-7" data-name="SVGID" class="cls-1" d="M70.35,283.43c-4.13-2-5-8.3-.84-10.8S67,264,57.57,269.78,32,298.33,62.47,310.19s75.27-31.51,88.14-50c8.78-10.83,95.46-24.65,77.45-53,0,0-23.1-18.65-46.29-5.2"/></clipPath><clipPath id="clip-path-8"><path id="SVGID-8" data-name="SVGID" class="cls-1" d="M141.9,351.79c-4.56.49-8.64-4.39-6.44-8.7s-6.68-6-11.64,3.92-6.55,37.79,25.6,31.64S196.48,312,197.6,289.52c1.69-13.84,67.82-71.56,37.52-86,0,0-29.48-3.55-42,20.16"/></clipPath><clipPath id="clip-path-9"><path id="SVGID-9" data-name="SVGID" class="cls-1" d="M209.69,165s31.95,20.59,69.57,0C279.26,165,244.48,225.33,209.69,165Z"/></clipPath></defs><title>17_big_octopus_move_flap_legs</title><g id="character"><path class="cls-2" d="M289.63,196.13s-1.76-29.64,22.66-40.7,22.49-15.24,44.09-22.28c25.3-8.24,72,9.45,86.89-21.12.77-4.52-3.86-8.88-8.3-7s-5.6-7,4.62-11.38,38.11-4.26,30,27.46-69.37,43-91.87,42.71C363.84,164.72,302.23,227.25,289.63,196.13Z"/><g class="cls-3"><path class="cls-4" d="M474.7,94.47s6.23,28.61-36,44.68S333,141.78,296.53,216.62c0,0,73.26-33.17,76.31-36.41S495.21,165.39,474.7,94.47Z"/></g><circle class="cls-5" cx="466.27" cy="129.08" r="6.24" transform="translate(148.58 493.97) rotate(-64.43)"/><circle class="cls-6" cx="465.18" cy="130.91" r="3.82" transform="translate(146.31 494.03) rotate(-64.43)"/><circle class="cls-5" cx="438.18" cy="150.74" r="6.24" transform="translate(113.07 480.94) rotate(-64.43)"/><circle class="cls-6" cx="437.09" cy="152.58" r="3.82" transform="translate(110.8 481) rotate(-64.43)"/><circle class="cls-5" cx="399.77" cy="162.26" r="6.24" transform="translate(80.85 452.84) rotate(-64.43)"/><circle class="cls-6" cx="398.68" cy="164.1" r="3.82" transform="translate(78.57 452.9) rotate(-64.43)"/><circle class="cls-5" cx="367.13" cy="169.38" r="6.24" transform="translate(55.88 427.44) rotate(-64.43)"/><circle class="cls-6" cx="366.04" cy="171.21" r="3.82" transform="translate(53.61 427.5) rotate(-64.43)"/><circle class="cls-5" cx="339.68" cy="187.49" r="6.24" transform="translate(23.94 412.98) rotate(-64.43)"/><circle class="cls-6" cx="338.59" cy="189.33" r="3.82" transform="translate(21.67 413.04) rotate(-64.43)"/><path class="cls-2" d="M273.15,206.65s12.7-26.84,39.43-24.8,27-2.56,49.38,1.65c26.15,4.93,58.64,42.9,86.35,23.23,2.85-3.6.89-9.65-3.94-10.09s-1.53-8.86,9.52-7.76,35.47,14.58,13.15,38.52-81.48,4.33-101.09-6.69C353.32,214.78,269.25,240,273.15,206.65Z"/><g class="cls-7"><path class="cls-4" d="M484.3,206.44s-8.28,28.08-53.07,21.87-93.9-48.46-161.88-.37c0,0,80.19,6.11,84.42,4.74S468.21,278.5,484.3,206.44Z"/></g><circle class="cls-5" cx="460.28" cy="232.74" r="6.24" transform="translate(-49.31 312.39) rotate(-35.71)"/><circle class="cls-6" cx="458.44" cy="233.83" r="3.82" transform="translate(-50.29 311.52) rotate(-35.71)"/><circle class="cls-5" cx="425.23" cy="238.24" r="6.24" transform="translate(-59.11 292.97) rotate(-35.71)"/><circle class="cls-6" cx="423.39" cy="239.32" r="3.82" transform="translate(-60.09 292.1) rotate(-35.71)"/><circle class="cls-5" cx="386.01" cy="229.88" r="6.24" transform="translate(-61.6 268.51) rotate(-35.71)"/><circle class="cls-6" cx="384.17" cy="230.97" r="3.82" transform="translate(-62.58 267.64) rotate(-35.71)"/><circle class="cls-5" cx="353.97" cy="220.44" r="6.24" transform="translate(-62.11 248.03) rotate(-35.71)"/><circle class="cls-6" cx="352.13" cy="221.52" r="3.82" transform="translate(-63.09 247.16) rotate(-35.71)"/><circle class="cls-5" cx="321.2" cy="223.13" r="6.24" transform="translate(-69.85 229.41) rotate(-35.71)"/><circle class="cls-6" cx="319.36" cy="224.22" r="3.82" transform="translate(-70.83 228.54) rotate(-35.71)"/><path class="cls-2" d="M261.17,207.09s23.77-17.78,46.45-3.48,25.1,10.39,42.87,24.55c20.81,16.59,31.76,65.35,65.46,60.92,4.2-1.85,5.29-8.11,1.24-10.76s2.79-8.55,12-2.41,24.53,29.48-6.4,40.2-74-34.28-86.23-53.2C328.24,251.77,242.13,234.74,261.17,207.09Z"/><g class="cls-8"><path class="cls-4" d="M447.91,305.66s-20.46,20.95-57.14-5.49-60.34-86.75-142.91-76c0,0,68,42.9,72.4,43.67S400,361.82,447.91,305.66Z"/></g><circle class="cls-5" cx="414.37" cy="317.67" r="6.24" transform="translate(-39.38 59.36) rotate(-7.82)"/><circle class="cls-6" cx="412.24" cy="317.77" r="3.82" transform="translate(-39.42 59.07) rotate(-7.82)"/><circle class="cls-5" cx="380.82" cy="306.14" r="6.24" transform="translate(-38.13 54.68) rotate(-7.82)"/><circle class="cls-6" cx="378.69" cy="306.23" r="3.82" transform="translate(-38.16 54.4) rotate(-7.82)"/><circle class="cls-5" cx="350.07" cy="280.41" r="6.24" transform="translate(-34.91 50.26) rotate(-7.82)"/><circle class="cls-6" cx="347.93" cy="280.51" r="3.82" transform="translate(-34.94 49.97) rotate(-7.82)"/><circle class="cls-5" cx="326.16" cy="257.08" r="6.24" transform="translate(-31.96 46.79) rotate(-7.82)"/><circle class="cls-6" cx="324.03" cy="257.17" r="3.82" transform="matrix(0.99, -0.14, 0.14, 0.99, -31.99, 46.5)"/><circle class="cls-5" cx="295.93" cy="244.13" r="6.24" transform="translate(-30.48 42.55) rotate(-7.82)"/><circle class="cls-6" cx="293.8" cy="244.23" r="3.82" transform="translate(-30.51 42.26) rotate(-7.82)"/><path class="cls-2" d="M249,204s29.56-2.74,41.42,21.3,16,22,23.72,43.34c9.07,25-7.07,72.31,24,86.15,4.54.62,8.75-4.15,6.68-8.52s6.85-5.83,11.53,4.24,5.51,38-26.46,30.93S284.61,313.5,284.11,291C282.79,277.13,218.27,217.62,249,204Z"/><g class="cls-9"><path class="cls-4" d="M356.67,385.61s-28.39,7.17-45.85-34.54-6.11-105.49-82.11-139.51c0,0,35.57,72.12,38.91,75.07S286.46,408.45,356.67,385.61Z"/></g><circle class="cls-5" cx="321.8" cy="378.33" r="6.24" transform="translate(-153.92 521.08) rotate(-66.32)"/><circle class="cls-6" cx="319.93" cy="377.3" r="3.82" transform="translate(-154.09 518.75) rotate(-66.32)"/><circle class="cls-5" cx="299.22" cy="350.96" r="6.24" transform="translate(-142.37 484.03) rotate(-66.32)"/><circle class="cls-6" cx="297.35" cy="349.93" r="3.82" transform="translate(-142.54 481.7) rotate(-66.32)"/><circle class="cls-5" cx="286.44" cy="312.96" r="6.24" transform="translate(-115.21 449.58) rotate(-66.32)"/><circle class="cls-6" cx="284.57" cy="311.92" r="3.82" transform="translate(-115.38 447.26) rotate(-66.32)"/><circle class="cls-5" cx="278.25" cy="280.57" r="6.24" transform="translate(-90.45 422.71) rotate(-66.32)"/><circle class="cls-6" cx="276.39" cy="279.54" r="3.82" transform="translate(-90.62 420.38) rotate(-66.32)"/><circle class="cls-5" cx="259.24" cy="253.74" r="6.24" transform="translate(-77.25 389.24) rotate(-66.32)"/><circle class="cls-6" cx="257.37" cy="252.71" r="3.82" transform="translate(-77.42 386.91) rotate(-66.32)"/><path class="cls-2" d="M198.67,196.05s-.38-29.69-25.54-39-23.53-13.57-45.59-19c-25.83-6.39-71.17,14.63-88.19-14.79-1.09-4.45,3.21-9.14,7.78-7.54s5.08-7.42-5.43-11-38.32-1.49-28,29.56,72.3,37.83,94.72,36C122.39,170.1,188.35,228,198.67,196.05Z"/><g class="cls-10"><path class="cls-4" d="M6.74,108s-4.15,29,39.17,42,105.55-5,147.37,67c0,0-75.46-27.79-78.74-30.8S-8.59,180.26,6.74,108Z"/></g><circle class="cls-5" cx="17.65" cy="141.95" r="6.24" transform="translate(-68.04 27.42) rotate(-29.72)"/><circle class="cls-6" cx="18.87" cy="143.7" r="3.82" transform="translate(-68.75 28.25) rotate(-29.72)"/><circle class="cls-5" cx="47.24" cy="161.53" r="6.24" transform="translate(-73.86 44.66) rotate(-29.72)"/><circle class="cls-6" cx="48.46" cy="163.28" r="3.82" transform="translate(-74.56 45.49) rotate(-29.72)"/><circle class="cls-5" cx="86.38" cy="170.24" r="6.24" transform="translate(-73.03 65.2) rotate(-29.72)"/><circle class="cls-6" cx="87.6" cy="171.99" r="3.82" transform="translate(-73.74 66.04) rotate(-29.72)"/><circle class="cls-5" cx="119.44" cy="174.98" r="6.24" transform="translate(-71.03 82.22) rotate(-29.72)"/><circle class="cls-6" cx="120.66" cy="176.73" r="3.82" transform="translate(-71.73 83.05) rotate(-29.72)"/><circle class="cls-5" cx="148.13" cy="191.06" r="6.24" transform="translate(-75.23 98.55) rotate(-29.72)"/><circle class="cls-6" cx="149.35" cy="192.81" r="3.82" transform="translate(-75.94 99.39) rotate(-29.72)"/><path class="cls-2" d="M215.6,206.93s-12.95-26.72-39.65-24.43-27.07-2.31-49.36,2.11c-26.11,5.18-58.23,43.45-86.13,24-2.88-3.57-1-9.64,3.84-10.12s1.45-8.88-9.59-7.67S-.63,205.76,21.92,229.5s81.52,3.57,101-7.64C135.51,215.8,219.81,240.24,215.6,206.93Z"/><g class="cls-11"><path class="cls-4" d="M4.45,208.69s8.54,28,53.28,21.37,93.45-49.33,161.87-1.88c0,0-80.12,6.86-84.37,5.53S21.22,280.59,4.45,208.69Z"/></g><circle class="cls-5" cx="28.72" cy="234.77" r="6.24" transform="translate(-179.73 123.01) rotate(-54.83)"/><circle class="cls-6" cx="30.57" cy="235.83" r="3.82" transform="translate(-179.82 124.97) rotate(-54.83)"/><circle class="cls-5" cx="63.82" cy="239.94" r="6.24" transform="translate(-169.07 153.89) rotate(-54.83)"/><circle class="cls-6" cx="65.67" cy="241" r="3.82" transform="matrix(0.58, -0.82, 0.82, 0.58, -169.16, 155.85)"/><circle class="cls-5" cx="102.96" cy="231.22" r="6.24" transform="translate(-145.35 182.19) rotate(-54.83)"/><circle class="cls-6" cx="104.81" cy="232.28" r="3.82" transform="translate(-145.44 184.15) rotate(-54.83)"/><circle class="cls-5" cx="134.91" cy="221.47" r="6.24" transform="translate(-123.84 204.17) rotate(-54.83)"/><circle class="cls-6" cx="136.76" cy="222.54" r="3.82" transform="translate(-123.93 206.13) rotate(-54.83)"/><circle class="cls-5" cx="167.71" cy="223.86" r="6.24" transform="translate(-111.89 232) rotate(-54.83)"/><circle class="cls-6" cx="169.56" cy="224.93" r="3.82" transform="translate(-111.98 233.96) rotate(-54.83)"/><path class="cls-2" d="M228.06,207.23S205,188.58,181.78,202,156.31,211.48,138,225c-21.41,15.81-34.16,64.12-67.67,58.45-4.13-2-5-8.3-.84-10.8S67,264,57.57,269.78,32,298.33,62.47,310.19s75.27-31.51,88.14-50C159.39,249.39,246.07,235.57,228.06,207.23Z"/><g class="cls-12"><path class="cls-4" d="M37.8,298.81s19.67,21.69,57.3-3.37S158.61,211,240.74,224.75c0,0-69.56,40.36-74,41S83.62,356.71,37.8,298.81Z"/></g><circle class="cls-5" cx="70.87" cy="312.06" r="6.24" transform="translate(-248.74 327.97) rotate(-80.05)"/><circle class="cls-6" cx="73" cy="312.24" r="3.82" transform="translate(-247.15 330.21) rotate(-80.05)"/><circle class="cls-5" cx="104.83" cy="301.78" r="6.24" transform="translate(-210.52 352.91) rotate(-80.05)"/><circle class="cls-6" cx="106.95" cy="301.95" r="3.82" transform="translate(-208.94 355.15) rotate(-80.05)"/><circle class="cls-5" cx="136.52" cy="277.21" r="6.24" transform="translate(-160.1 363.79) rotate(-80.05)"/><circle class="cls-6" cx="138.64" cy="277.38" r="3.82" transform="translate(-158.52 366.03) rotate(-80.05)"/><circle class="cls-5" cx="161.27" cy="254.77" r="6.24" transform="translate(-117.53 369.61) rotate(-80.05)"/><circle class="cls-6" cx="163.39" cy="254.95" r="3.82" transform="translate(-115.95 371.85) rotate(-80.05)"/><circle class="cls-5" cx="191.96" cy="242.96" r="6.24" transform="translate(-80.5 390.07) rotate(-80.05)"/><circle class="cls-6" cx="194.08" cy="243.13" r="3.82" transform="translate(-78.92 392.31) rotate(-80.05)"/><path class="cls-2" d="M235.11,203.5s-29.48-3.55-42,20.16-16.57,21.53-24.9,42.67c-9.75,24.76,5.08,72.48-26.33,85.46-4.56.49-8.64-4.39-6.44-8.7s-6.68-6-11.64,3.92-6.55,37.79,25.6,31.64S196.48,312,197.6,289.52C199.29,275.68,265.42,218,235.11,203.5Z"/><g class="cls-13"><path class="cls-4" d="M122.47,382.1s28.18,7.95,46.78-33.27,9-105.28,85.9-137.21c0,0-37.53,71.12-40.95,74S192,406.86,122.47,382.1Z"/></g><circle class="cls-5" cx="157.53" cy="375.78" r="6.24" transform="translate(-129.86 86.93) rotate(-22.11)"/><circle class="cls-6" cx="159.43" cy="374.8" r="3.82" transform="translate(-129.35 87.58) rotate(-22.11)"/><circle class="cls-5" cx="180.85" cy="349.04" r="6.24" transform="translate(-118.08 93.75) rotate(-22.11)"/><circle class="cls-6" cx="182.74" cy="348.06" r="3.82" transform="translate(-117.58 94.39) rotate(-22.11)"/><circle class="cls-5" cx="194.67" cy="311.4" r="6.24" transform="translate(-102.9 96.18) rotate(-22.11)"/><circle class="cls-6" cx="196.56" cy="310.42" r="3.82" transform="translate(-102.39 96.82) rotate(-22.11)"/><circle class="cls-5" cx="203.74" cy="279.25" r="6.24" transform="translate(-90.13 97.23) rotate(-22.11)"/><circle class="cls-6" cx="205.63" cy="278.27" r="3.82" transform="translate(-89.62 97.87) rotate(-22.11)"/><circle class="cls-5" cx="223.47" cy="252.94" r="6.24" transform="translate(-78.78 102.72) rotate(-22.11)"/><circle class="cls-6" cx="225.37" cy="251.97" r="3.82" transform="matrix(0.93, -0.38, 0.38, 0.93, -78.27, 103.36)"/><path class="cls-2" d="M255.89.59a140.64,140.64,0,0,0-25.69,0c-87.77,6.62-93.65,99.11-80.74,125.34a235.6,235.6,0,0,0,15.39,26.59,22.37,22.37,0,0,0,11,36.58c1.75,16.15,35.89,21.16,59.83,22,2.14.09,4.62.14,7.34.14s5.19,0,7.34-.14c23.71-.84,57.41-5.77,59.77-21.54a22.37,22.37,0,0,0,11.46-38.91c4.45-6.88,9.72-14.6,15-24.73C350.15,100.1,343.46,9.84,255.89.59Z"/><circle class="cls-14" cx="213.57" cy="122.65" r="26.41"/><circle class="cls-15" cx="213.57" cy="124.71" r="23.25"/><circle class="cls-16" cx="213.57" cy="124.71" r="18.34"/><circle class="cls-15" cx="221.38" cy="116.4" r="6.92"/><circle class="cls-14" cx="277.13" cy="122.65" r="26.41"/><circle class="cls-15" cx="277.13" cy="124.71" r="23.25"/><circle class="cls-16" cx="277.13" cy="124.71" r="18.34"/><circle class="cls-15" cx="284.94" cy="116.4" r="6.92"/><path class="cls-17" d="M209.69,165s31.95,20.59,69.57,0C279.26,165,244.48,225.33,209.69,165Z"/><path class="cls-18" d="M203,165.55a8.68,8.68,0,0,0,11-5.1"/><path class="cls-18" d="M286.71,165.55a8.68,8.68,0,0,1-11-5.1"/><g class="cls-19"><path class="cls-20" d="M231.27,192.49s-.56-8.43,5.38-8.43,6.82,3.37,6.82,3.37.88-3.85,7.38-3.85,5.54,12.36,5.54,12.36Z"/></g><path class="cls-17" d="M197.65,79.42h28.4S211.85,68.06,197.65,79.42Z"/><path class="cls-17" d="M263.92,79.42h28.4S278.12,68.06,263.92,79.42Z"/></g></svg>