<svg xmlns="http://www.w3.org/2000/svg" viewBox="0 0 90.1 85.26">
  <defs>
    <style>
      .cls-1 {
        fill: #f15a24;
      }

      .cls-1, .cls-2 {
        opacity: 0.14;
      }

      .cls-2 {
        fill: #ed1c24;
      }
    </style>
  </defs>
  <title>p11</title>
  <g id="character">
    <g>
      <g>
        <path class="cls-1" d="M36.24,31.7,24,40.27c-.3.21.7.28.67.27a5.47,5.47,0,0,0,2,.13l15.47-4-.24-.24L28.75,43.48l1,.11L42.62,32.75c.31-.21-.56-.1-.71,0a70,70,0,0,0-9.73,7.12c-.28.22.34.21.45.16q7.82-3.63,15.93-6.57l-.49-.24a39.47,39.47,0,0,1-7.27,8.62,44.43,44.43,0,0,1-8.31,7.54c-.41.32.83,0,.95-.06q15.21-12,8,3.45c-.07.08-.06.32.11.25l12.57-5.4L54,47.36a22.66,22.66,0,0,1-4.59,4.48c-.09.08-.24.39,0,.3a60.63,60.63,0,0,1,14-3.74l-.9-.41A84.79,84.79,0,0,1,51,61.8c-.06.06-.43.64,0,.5a44.54,44.54,0,0,0,8.85-3.84l-.59-.35A12.3,12.3,0,0,1,52.09,63l.35.17a18.94,18.94,0,0,0,5-2.78,17.2,17.2,0,0,0,4.45-3.89c.2-.2-.11-.22-.23-.19-3.85.84-7.85,1.7-11.77,2.18a33.87,33.87,0,0,1-6,.09,14.42,14.42,0,0,0-3.08.1c-1.62.26-.85.09-2.85,1.13-.08,0,.7.43.77.46.26.1,1,.56,1.3.42a64.92,64.92,0,0,0,8-4.15,54,54,0,0,0,7.68-5s.58-.63.2-.49a155.19,155.19,0,0,1-25.24,8.27l1.11.57a16.91,16.91,0,0,1,4.56-3l2.87-1a22.06,22.06,0,0,0,6.06-2.31,31.42,31.42,0,0,0,5.94-3.15A91.08,91.08,0,0,0,64,40.68c.13-.12-1.47-.17-1.77,0A106.84,106.84,0,0,1,42.52,49.2q-7,2.28-14.12,4.42l1,.44c5.65-2.65,11.47-4.84,17.15-7.43a50.1,50.1,0,0,0,7.08-3.69,41.51,41.51,0,0,0,8-6.17c.15-.13-1.33-.11-1.53,0C49.05,41.6,37.86,47.37,25.48,47.13l1.59.69A68,68,0,0,1,38.69,40,120.41,120.41,0,0,1,52.46,32.7c.41-.21-.18-.25-.4-.14q-9.23,4.24-18,9.33-4.36,2.47-8.57,5.24c-.25.15,1.27.74,1.53.74a38.1,38.1,0,0,0,8.53-1.23c8.91-2.3,17.49-6.32,26-9.81l-1.54,0a58.19,58.19,0,0,1-11.71,8.48A172.69,172.69,0,0,1,28.4,53.62c-.21.07.8.53,1,.44,5.66-1.91,11.32-3.79,16.92-5.87C52.37,46,58.14,43.4,64,40.68H62.18c-6.36,5.7-12.88,11.2-21.12,14.18L36.38,56.4a23.16,23.16,0,0,0-5.75,2.84c-.27.16.84.68,1.05.62A109.48,109.48,0,0,0,44.05,56q5.84-2,11.51-4.45l.21-.49A36.39,36.39,0,0,1,47.52,56,46.07,46.07,0,0,1,38,59.73l2.07.88a12.59,12.59,0,0,1,6-1.3,20.58,20.58,0,0,0,4.61-.44L54.42,58l3.43-.69q2.25,1.88-.57,2.73a18.15,18.15,0,0,1-5.44,3c-.32.16-.3.38.09.26a17.88,17.88,0,0,0,3.18-1.19,18.17,18.17,0,0,0,4.67-3.67c.22-.22-.38-.49-.54-.4a32.15,32.15,0,0,1-8.18,3.66l-.05.5a146.86,146.86,0,0,0,12.4-13.87c.15-.18-.81-.43-.9-.41A126.51,126.51,0,0,0,49.89,51.5l0,.3a21.25,21.25,0,0,0,4.28-4.22c.1-.11,0-.33-.17-.26l.22-8.16c.09-.09,0-.31-.12-.23Q43.41,44.38,32.49,49.39l.95-.06A66.82,66.82,0,0,0,41.37,42a94.35,94.35,0,0,0,7.24-8.6c.19-.24-.39-.28-.49-.24q-8,3.12-15.86,6.65l.37.2a49.41,49.41,0,0,1,10-7.29h-.71A129.48,129.48,0,0,0,28.66,43.53c-.19.18.87.18,1,.11l12.51-7c.23-.13-.15-.26-.24-.24q-9,1.74-18,3.88l2.68.4L39,32.2a11.46,11.46,0,0,0-1.37-.39C37.36,31.76,36.55,31.49,36.24,31.7Z"/>
        <path class="cls-1" d="M36.8,32.56,24.47,41.17s1.16.26,1.34.28a6,6,0,0,0,2.1.15q7.89-2.22,15.84-4.15l-1.12-.17L29.44,44.34l2,0a50.72,50.72,0,0,1,11-10.57c.48-.4-1.23.23-1.44.39a85.1,85.1,0,0,0-8.3,6.74c-.25.21.6.49.76.41a81.1,81.1,0,0,1,14.93-7.19l-1.62-.25a24.14,24.14,0,0,1-5.69,8.29,33.35,33.35,0,0,1-7.85,7.92c-.22.18.38.07.4.07a5.78,5.78,0,0,0,1.5-.51q9.74-4.91,19.33-10.08L54,38.71l-11.59,14c0,.05-.57.82-.33.71L54.46,47.9l-.35-1.18-4.17,5.63s-.19.32,0,.24a39.78,39.78,0,0,1,13.22-3.76l-2-1.12A151.79,151.79,0,0,1,52,61.46s-.85,1.31-.56,1.2a38,38,0,0,0,8.32-4l-1.34-1.36a8.91,8.91,0,0,1-5.6,6.09l.6,0a16.38,16.38,0,0,0,4.61-2.73,12.16,12.16,0,0,0,3.76-3.66c.16-.19-1.44-.08-1.61,0a27.26,27.26,0,0,1-6,1.93,30.83,30.83,0,0,1-9.68.51,10.93,10.93,0,0,0-4,.26,6.31,6.31,0,0,0-1.93,1,11.21,11.21,0,0,0,1.34.68c.29.11,1.08.56,1.44.4a62.68,62.68,0,0,0,7.73-3.65,14.76,14.76,0,0,0,6.32-4.94c.06-.06.87-1.11.62-1a76.2,76.2,0,0,1-12,4.53,126.47,126.47,0,0,1-12.67,3.52l1.87.9a8.35,8.35,0,0,1,5.06-3.6C39.5,57,40.74,56.47,42,55.91a74.57,74.57,0,0,0,11.75-6.39,76.92,76.92,0,0,0,10-8c.31-.26-.87-.15-.8-.15a6.14,6.14,0,0,0-2.3.23q-5.71,3-11.58,5.71a135.37,135.37,0,0,1-20,7.28l1.86.68c5.92-3,12-5.83,17.84-9a58.55,58.55,0,0,0,8.84-5.46l3.79-3.26c.3-.26-.86-.14-.77-.14a6.48,6.48,0,0,0-2.2.25q-5.19,2.22-10.29,4.6c-3.46,1.66-7,3.16-10.57,4.53l-4,.84a23.69,23.69,0,0,1-7.51.44l2.28,1,10.69-7.16q6.39-4.41,13.2-8.19c.51-.3-1,.16-1.12.24-8.51,4.55-16.84,9.26-25.13,14.18.05,0,2,1,2.28,1a13.64,13.64,0,0,0,5.05-.46,34.31,34.31,0,0,0,5.17-1.39l6.64-3.12Q53.38,41,61.45,37.57l-3,.11A80.43,80.43,0,0,1,51,43.56q-3.15,1.83-6.13,3.9c-4.86,3.27-10.27,5-15.71,7.1a3.77,3.77,0,0,0,1.86.68c4.41-1.5,8.6-3.05,12.91-4.89q10-4.27,19.87-8.86l-3.1.08a81.88,81.88,0,0,1-9.67,8,66.52,66.52,0,0,1-8.4,5.08,32.88,32.88,0,0,1-6,2.89,18.84,18.84,0,0,0-5.38,2.78s1.54,1,1.87.9q6-1.45,11.89-3.45a40.52,40.52,0,0,0,10-4.28l.82-1.2a41.39,41.39,0,0,1-17.23,8.43l2.68,1.11c3.47-1.69,6.71-1,10.39-1.43a7.59,7.59,0,0,0,3.15-.6,47.9,47.9,0,0,1,6.83-2.63L60,57.19l-7.5,6.42c-.25.15-.16.31.11.21A12.18,12.18,0,0,0,56.41,62,23.88,23.88,0,0,0,59.8,58.7c.16-.17-1.13-1.52-1.34-1.36a23.1,23.1,0,0,1-6.11,3.78l-.75,1.44q6-6.7,11.65-13.76c.12-.14-1.81-1.14-2-1.12a9,9,0,0,0-4.82,1.06,34.34,34.34,0,0,0-5.34,2.54l-.07.41a22.26,22.26,0,0,0,3.48-3.84c.1-.12-.17-1.27-.34-1.18L43,52.25l-.32.7L54.5,39.55c.1-.11-.24-1-.41-.89L33.37,50l1.9-.44A166,166,0,0,0,48.43,34.1a4.59,4.59,0,0,0-1.62-.25q-6.93,3.81-14.12,7.09l.76.41a34.8,34.8,0,0,1,9-7.54L41,34.2a53.4,53.4,0,0,1-5,4.26,51.5,51.5,0,0,0-6.56,5.88,4.27,4.27,0,0,0,2,0l12.45-7c.19-.11-1-.19-1.13-.17Q33.61,39,24.57,41.11l3.44.43,12.26-8.37s-1.72-.45-1.71-.44C38.24,32.67,37.16,32.32,36.8,32.56Z"/>
        <path class="cls-1" d="M36,31l-12.4,8.6c-.28.19.55.26.52.25a3.83,3.83,0,0,0,1.58.06,152.93,152.93,0,0,1,16.52-3.88L42,35.83,28.28,43l.43.24a51.52,51.52,0,0,1,6.9-6.14A47.6,47.6,0,0,1,43,32c.13-.09,0-.37-.16-.26a78.77,78.77,0,0,0-10.93,7.65s-.09.32,0,.27q6.24-5.92,12.88-2.3A88.7,88.7,0,0,1,32,49c-.27.21.33.19.41.16q16.88-13,8.7,3.3c-.08.1.07.28.18.23L51.7,49.34l-2.84,2.2c-.13.11,0,.33.13.27a98.26,98.26,0,0,1,14.77-4l-.25-.34q-6.23,7.32-13,14.17c-.1.1,0,.35.14.28a47.27,47.27,0,0,0,9.46-4.11l-.21-.23A17.09,17.09,0,0,1,56,60.66a17.54,17.54,0,0,1-4.66,1.86l-.08.35a34.08,34.08,0,0,0,8.41-4.4,10.76,10.76,0,0,0,2.63-2.94c.12-.13.07-.32-.13-.28-5.32,1.2-11,3-16.53,2.77a32.46,32.46,0,0,0-4.18-.25A6.31,6.31,0,0,0,37.75,59c-.19.1,1.24.85,1.54.72a71.58,71.58,0,0,0,8.76-4.15,45.72,45.72,0,0,0,8.26-5.17c.15-.1-.06-.28-.17-.23a161.45,161.45,0,0,1-25.78,8.33L31,59,36.75,56l3.1-.86a33.75,33.75,0,0,0,6-2.33,70.4,70.4,0,0,0,8.51-4.78,97.14,97.14,0,0,0,10-8c.2-.17-.9-.2-1-.14a120.87,120.87,0,0,1-14,6.27q-10.5,3.63-21.17,6.76l.45.39c6.11-2.44,12.33-4.6,18.33-7.31A47.82,47.82,0,0,0,54,42.36a38.06,38.06,0,0,0,8.07-6.28c.22-.2-.78-.23-.87-.19L53.1,39.36a81.82,81.82,0,0,1-14.29,4.93,25.63,25.63,0,0,1-8,2,21,21,0,0,1-5.54.17l.87.59A147.23,147.23,0,0,1,52.76,32c.16-.08,0-.34-.12-.27q-9.42,4.32-18.49,9.3-4.54,2.64-9,5.39c-.28.17.76.6.87.6a46.17,46.17,0,0,0,10.65-1.53c8.69-2.31,17-6,25.33-9.39l-.87-.19a34.38,34.38,0,0,1-7.57,6.13,44,44,0,0,1-6.85,3.7c-6,2.81-12.27,4.94-18.55,7.18-.36.13.28.45.45.39,6.92-2.27,14-4.4,20.82-6.88A145.47,145.47,0,0,0,64.22,40.1l-1-.14a48.85,48.85,0,0,1-9.78,7.69A40.44,40.44,0,0,1,39.8,54.88l-3.23.9a23.31,23.31,0,0,0-6.21,2.75c-.27.15.53.47.68.43a138.6,138.6,0,0,0,16.43-5.19q4.44-1.6,8.84-3.34l-.17-.23a34.3,34.3,0,0,1-8.51,5A51.23,51.23,0,0,1,37.75,59l1.54.72a6.59,6.59,0,0,1,3.33-1.22A40.88,40.88,0,0,0,48,58.31c4.8-.42,9.59-1.73,14.29-2.78l-.13-.28a24.59,24.59,0,0,1-10.83,7.27c-.18.08-.44.46-.08.35a16.54,16.54,0,0,0,8.9-5.11c.13-.11-.08-.28-.21-.22a43.32,43.32,0,0,1-9.4,4.07l.14.28Q57.47,55,63.81,47.77c.12-.14-.09-.37-.24-.34A139.83,139.83,0,0,0,48.93,51.5l.12.26A27,27,0,0,0,54.44,47c.15-.14-.14-.18-.23-.14l-13,5.55.17.23L54.51,38.56c.1-.11-.18-.17-.24-.14q-11,5.47-22.14,10.49l.4.16c2.17-1.74,4.28-3.43,6.3-5.33a113.64,113.64,0,0,0,10-10.92c.07-.08.09-.31-.09-.24a11.9,11.9,0,0,1-9.9,3.05l-1.57-.14L43,32l-.16-.26q-3.66,2.43-7.17,5.09A54.34,54.34,0,0,0,28.28,43c-.26.24.28.32.43.24L42.33,36c.29-.14-.24-.24-.31-.23q-9.26,1.62-18.38,3.83l2.1.31,12.34-8.41C38.19,31.45,36.4,30.78,36,31Z"/>
        <path class="cls-1" d="M36.84,33.72l-12.4,8.61a16.22,16.22,0,0,1,2,.38,9,9,0,0,0,3.13.3q8.42-2.44,17-4.4L43,38.39l-13.27,7,4,0a25.06,25.06,0,0,1,11.63-7.69l-1.85-2.55a69.76,69.76,0,0,0-10.38,7.54c.16-.12,2.63,2.29,3.22,2a28.84,28.84,0,0,1,14.49-5.56l-1.6-3a62.5,62.5,0,0,1-7.14,8.51,55.85,55.85,0,0,1-8.5,6.41c-.44.31,1.33-.09,1.08,0a10.26,10.26,0,0,0,3-.77Q46.29,45.07,55,40l1.7-2.73L43.92,51.72a11.56,11.56,0,0,0-1.64,1.92c0,.07-.36.49-.06.35l12.26-5.74.81-3.65L53,49,54,47.33,50.38,52.1c.1-.14-1,1.12-.49.94a37.64,37.64,0,0,1,6.79-2.5,33.42,33.42,0,0,1,6.18-1.44l-2.67-3.49a47.57,47.57,0,0,0-8,13.86A22.69,22.69,0,0,0,51.28,62,7.88,7.88,0,0,0,51,63.1a39.3,39.3,0,0,0,8.39-4l-1.6-3.87a8.79,8.79,0,0,1-3.07,5.92,23.62,23.62,0,0,0-2.16,2.42c0,.06-.73.87-.34.68a22.34,22.34,0,0,0,5.85-3.15,8.61,8.61,0,0,0,4-4.2c.26-.35-.73-3.33-.86-3.29q-3.1,1.05-6.29,1.85-3.93,2.61-8,5l2.88-.2c-2,.07-4,.11-6,.22a10.86,10.86,0,0,0-5.05,1.62s2,1,2,1c.37.15,1.62.86,2.11.68a64.3,64.3,0,0,0,8-3.08A11.84,11.84,0,0,0,56,57.42c.51-.41-.05-3.37.12-3.44a79.9,79.9,0,0,1-12.33,4.53A93.39,93.39,0,0,1,31.37,61.7l3.39,1.74,1.38-1,1.79-.54c1.55-.8,5-4.19,5.5-4.59a28.9,28.9,0,0,1,6.55-5l2.86-1.81A110.42,110.42,0,0,0,63,42.48a12.73,12.73,0,0,1-1.8-.06,7.84,7.84,0,0,0-2.74.2,91.43,91.43,0,0,1-13.17,5.71,102.41,102.41,0,0,0-16.92,8.46c-.28.13,1.32,3.61,1.48,3.54,2.26-1.17,4.55-2.26,6.89-3.26a22.79,22.79,0,0,0,11.17-9.18l4.53-2.83a90.91,90.91,0,0,0,8.22-6.53,14,14,0,0,1-1.76-.07,8.33,8.33,0,0,0-2.69.19Q50.57,41.2,44.8,43.44a87.39,87.39,0,0,0-11.65,5.32c-3.85,1.5-3.88,1.62-7.39,1.32l2.79,3A100.45,100.45,0,0,1,40,45.28a32.52,32.52,0,0,0,9.53-7.64,19.75,19.75,0,0,0,1.83-1.83s.6-.73.28-.55q-6.27,3.59-12.65,7a117.54,117.54,0,0,0-13.23,7.86.51.51,0,0,0,.21.38l2.84,3.4.08.09a23.35,23.35,0,0,1,15-8.76q8.46-3,16.66-6.59l-4.45.12a74.73,74.73,0,0,0-7.79,6.76A27.61,27.61,0,0,0,42.1,52l1.44-1.67a35,35,0,0,1-7.11,3.36c-2.68,1.06-5.36,2.09-8.06,3.1l1.48,3.54,4.29-6.17L32,55.93a71.83,71.83,0,0,1,16.29-7.21,110.8,110.8,0,0,0,14.55-6.17l-4.54.14c-4,3.51-8.21,6.74-12.48,10-4.55,3.43-2.18,1.19-6.53,8l2.48-2.83q-2.43.75-4.9,1.38a18.53,18.53,0,0,0-5.54,2.48,16.93,16.93,0,0,0,1.63,1c.38.2,1.26.83,1.76.74a80.93,80.93,0,0,0,10.92-2.1A32.16,32.16,0,0,0,56,57.42L56.14,54a36,36,0,0,1-7.93,4.5,45.7,45.7,0,0,1-9.49,3.6l4.12,1.64,1.79-1.29a27,27,0,0,1,5.08-1.75c2-.52,1-.19,3.18-2.5l-2.54,1.6a109.05,109.05,0,0,1,11.72-2.92l-.91-3.18-1.42,6.13,1.41-3A25.51,25.51,0,0,1,55,60.87l-2.77,3.34a18,18,0,0,0,7.17-5.15c.46-.51-1.76-3.73-1.6-3.87a21.62,21.62,0,0,1-5.4,3.9L51.14,63Q57.05,56.1,62.86,49.1c.18-.21-2.25-3.56-2.67-3.49-2.86.46-5.53,2.6-7.88,4.14L49.89,53a27,27,0,0,0,4.68-4.87,5.94,5.94,0,0,0,.6-2.18c0-.18.19-1.46.21-1.47L44.61,51,42.9,53.31,55.21,39.83a14,14,0,0,0,1.52-2.14s.49-.81.18-.59L33.6,51.1l4.09-.8A51.48,51.48,0,0,0,46,46a37.09,37.09,0,0,0,4.82-6.83c.21-.32-1.37-3-1.6-3a85.91,85.91,0,0,0-16.11,6.53l3.22,2a56.89,56.89,0,0,1,9-7c.15-.11-1.58-2.7-1.85-2.55a29,29,0,0,0-7,4.42,59.08,59.08,0,0,0-6.92,5.92c.07,0,1.37.11,1.59.11a6.32,6.32,0,0,0,2.42-.14l12.94-6.87c.41-.21-1.07-.23-.91-.22a10.76,10.76,0,0,0-2.66,0Q33.74,40,24.59,42.28l5.15.68,12.32-8.32c-.07,0-2.54-.6-2.58-.6C39.09,34,37.3,33.41,36.84,33.72Z"/>
        <path class="cls-1" d="M36.65,32.9,24.27,41.5c.08,0,1.38.29,1.61.32a7.58,7.58,0,0,0,2.5.19q8-2.28,16-4.21l-1.75-.2-13.23,7,2.65,0q5.11-5.1,10.19-10.28c.39-.4-.31-.09-.42,0a59.59,59.59,0,0,0-9.51,7.3c-.19.16.5,1.16.71,1.05q7.55-3.84,14.93-8l-2,.11A24.72,24.72,0,0,1,42.3,39.9q-4.45,5.31-9.18,10.4c-.24.22.49,0,.51,0a9.58,9.58,0,0,0,1.91-.78c10-5,8.5-4.27,18.9-9.92V38.05L42.77,52.16c-.08.1-1.05,1.5-.82,1.39l12.31-5.61-.15-1.89-4.34,6.34s-.24.37,0,.28a36.6,36.6,0,0,1,6.77-2.47,25.06,25.06,0,0,1,6.36-1.3l-2.35-1.59q-4.41,6.81-8.6,13.75c-.08.12-1,1.77-.69,1.65a36.5,36.5,0,0,0,8.24-3.94l-1.44-2a8.9,8.9,0,0,1-5.29,6.57l-.26.48A37.51,37.51,0,0,0,58,60.77C60.45,59,59.33,60,61.66,57a4.61,4.61,0,0,0-1.79-.52A21.76,21.76,0,0,1,50,59.88a16.63,16.63,0,0,1-5.63,0,11.28,11.28,0,0,0-4,.23,4.73,4.73,0,0,0-2,.93c-.05,0,1.62.78,1.59.77.32.12,1.3.67,1.7.5a61.84,61.84,0,0,0,7.69-3.49,10.92,10.92,0,0,0,5.6-4.5c.16-.17.94-1.69.77-1.62a113.11,113.11,0,0,1-24.53,7.9l2.33,1.13a8.58,8.58,0,0,1,2.87-2.52l1.73-.72q2.44-1.31,4.86-2.69a122.29,122.29,0,0,0,12.9-7.9c4.23-3.1,2.13-1.5,7.54-6.19,0,0-1.16-.06-1.35-.05A5.73,5.73,0,0,0,60,41.9c-4.88,2.43-9.89,4.56-14.73,7-5.19,2.65-10.69,4.28-16.26,6l2.36.82q4-2,8.08-3.66,4.42-2.75,8.9-5.4a58.63,58.63,0,0,0,8.87-5.56A46.62,46.62,0,0,0,61,37.89c.32-.27-.92-.14-.83-.14A7.08,7.08,0,0,0,57.8,38C52,40.53,46.15,43,40.39,45.69a17.4,17.4,0,0,1-7,2.36,21.15,21.15,0,0,1-7.35.42l2.72,1.14c7.8-5,15.45-10.22,23.13-15.43.62-.42-.86.18-.89.2C42.54,39,34.19,43.64,25.91,48.5c.12-.07,2.34,1.14,2.72,1.14l3.37,0a23,23,0,0,0,4.3-1.32c3.05-1.11,6.05-2.38,9-3.78Q53.1,41.07,61,37.89L57.8,38a138.37,138.37,0,0,1-11.92,8.82l-6.6,4.32c-3.43,1.25-6.84,2.52-10.26,3.79-.34.13.62.4.56.38.38.13,1.38.58,1.8.44l6.7-2.33a40.47,40.47,0,0,1,8-4.16c2.18-1,4.39-1.91,6.64-2.75a100.14,100.14,0,0,0,10.67-4.7L59.92,42l-9.64,7.88a92.42,92.42,0,0,1-9.58,5.8,23.08,23.08,0,0,1-5.58,2.88,13.72,13.72,0,0,0-4,2.14c.13-.08,1.91,1.22,2.33,1.12q4.19-.84,8.25-2.06a44.65,44.65,0,0,0,13.15-5.27l.89-1.73a26.73,26.73,0,0,1-7.8,4.75,45.4,45.4,0,0,1-9.55,3.59l3.29,1.27c3-1.4,4.3-.82,7.23-1.13,4.38-.47,8.63-2.94,12.69-4.19L59.8,56.5l-.35,3,.36-1.16-5.92,4.28a7.21,7.21,0,0,0-1.51,1.06s-.35.38-.09.28A15.1,15.1,0,0,0,57,61.3a15.32,15.32,0,0,0,2.46-2.53c.22-.24-1.3-2.1-1.44-2a21.27,21.27,0,0,1-5.76,3.78l-.9,2q5.88-6.72,11.5-13.66c.13-.16-2-1.61-2.25-1.6a8.23,8.23,0,0,0-5.91,1.57,33.16,33.16,0,0,0-3.36,1.84l-1.43,1.83a25.46,25.46,0,0,0,4.38-4.66A5,5,0,0,0,54.18,46l-11,5.77L42.1,53.44,54.44,39.61c.19-.21.21-1.71,0-1.56L33.32,50.17l2.41-.77c3.86-5.1,8.21-9.72,12.19-14.72.13-.16-1.7-.06-2,.11a75.84,75.84,0,0,1-13.63,6.83L33,42.67l9-8.13-.93.33-5,3.91a53,53,0,0,0-6.66,5.87c-.26.25.7.18.66.18A4.59,4.59,0,0,0,32,44.68l12.56-6.92a6.2,6.2,0,0,0-1.75-.2q-9.23,1.71-18.37,3.89l4.11.5,12.28-8.32-2-.51C38.39,33.06,37,32.62,36.65,32.9Z"/>
        <path class="cls-1" d="M36.46,32.08,24.11,40.69s1.06.25,1.21.27a5.5,5.5,0,0,0,1.89.12q7.71-2.23,15.5-4.11l-.54-.21L29,43.88l1.45,0a28.27,28.27,0,0,1,5.36-5.67,39.12,39.12,0,0,1,6.7-5.08c.39-.28-.84,0-1,.13a78.09,78.09,0,0,0-9,6.93c-.34.28.51.25.64.19a112,112,0,0,1,15.29-6.64l-.84-.27A28.73,28.73,0,0,1,41,42.06a40,40,0,0,1-8.23,7.69,5.75,5.75,0,0,0,1.39-.25q10.07-4.95,20.05-10l-.29-.4L41.78,53c-.08.09-.19.4.06.29l12.39-5.46-.39-.43-4.27,4.81c-.14.14,0,.25.14.19A38.65,38.65,0,0,1,56.53,50a38.23,38.23,0,0,1,6.69-1.39L61.85,48,51.43,61.74s-.6.87-.31.76a40.21,40.21,0,0,0,8.56-3.87L58.75,58c-1.7,2.92-2.89,3.8-6.37,5.29l1.08-.12q1.34-.72,2.64-1.47a26,26,0,0,0,5.71-4.91c.21-.21-.45-.08-.39-.09a45.06,45.06,0,0,1-12.3,1.89,36.47,36.47,0,0,1-7.08.3,8.81,8.81,0,0,0-3.85,1.29c-.1,0,1.21.63,1.17.61.27.11,1,.5,1.28.35a50.48,50.48,0,0,0,5.18-2.51,38.1,38.1,0,0,0,9.82-6.69s.61-.65.17-.47A93,93,0,0,1,43.73,56a121.55,121.55,0,0,1-12.82,3.65l1.45.72a8.71,8.71,0,0,1,3.82-3A36.25,36.25,0,0,0,42,55.31,60,60,0,0,0,53.8,49.05a76.4,76.4,0,0,0,10-8,6.74,6.74,0,0,0-2.33,0,134.85,134.85,0,0,1-15.22,7.23C40.49,50.45,34.59,52.22,28.69,54l1.4.54c5.37-2.78,10.94-5,16.4-7.6a61.73,61.73,0,0,0,7-3.69,43.59,43.59,0,0,0,8-6.16,6.8,6.8,0,0,0-2.2.08q-7,3.09-14,6.21a44.1,44.1,0,0,1-19.59,4.14l1.91.81a116,116,0,0,1,11.13-7.64,99.56,99.56,0,0,1,13.49-7.57c.65-.34-.32-.21-.57-.08-8.93,4.53-17.47,9.33-26,14.52a14.33,14.33,0,0,0,1.9.82,35.81,35.81,0,0,0,10.3-1.78l7.58-3q8.06-3.21,16-6.56l-2.2.08a69.5,69.5,0,0,1-11.76,8.47A147,147,0,0,1,28.69,54c-.16.06,1.09.65,1.4.54,5.57-1.9,11.14-3.76,16.56-6,5.77-2.43,11.49-4.83,17.17-7.49l-2.33,0c-4.62,4.13-9.45,8.44-15,11.36L36.37,56.85a21.43,21.43,0,0,0-5.46,2.82c-.24.15,1.11.84,1.38.76a112.64,112.64,0,0,0,12.2-3.81,79.21,79.21,0,0,0,10.8-4.42l.37-.64a52.25,52.25,0,0,1-17.39,8.58l2.37,1c3.41-1.76,6.91-1.12,10.56-1.69,3.26-.51,6.49-1.48,9.68-2.29l-.39-.09a17.61,17.61,0,0,1-8.37,6.33c-.54.28.7,0,.72,0a16.55,16.55,0,0,0,6.9-4.83c.13-.14-.79-.71-.93-.63a27.53,27.53,0,0,1-7.16,3.61l-.31.75A148.45,148.45,0,0,0,63.28,48.59c.13-.16-1.24-.62-1.37-.6l-3.7.72a15.15,15.15,0,0,1-5,1.41q-1.46.54-1,.09c.71-.81,1.41-1.64,2.1-2.47.11-.14-.24-.5-.39-.43L42.24,52.56l.06.29,12-13.43c.11-.13-.15-.48-.3-.4q-10.38,5.65-21.1,10.65l1.4-.26a80.07,80.07,0,0,0,7.62-7.35c2.34-2.68,4.47-5.49,6.62-8.31.2-.26-.73-.31-.83-.27Q40,36.63,32.49,40.24l.7.14a39.69,39.69,0,0,1,9.3-7.2l-1,.13A153,153,0,0,0,29,43.88c-.17.16,1.22.18,1.45,0l12.28-7c.34-.19-.36-.25-.43-.23q-9.08,1.77-18.08,3.9l3.1.38,12.28-8.39a15.69,15.69,0,0,0-1.53-.42C37.73,32.15,36.79,31.85,36.46,32.08Z"/>
        <path class="cls-1" d="M36.58,33.25,24.2,41.86A14.45,14.45,0,0,1,26,42.2a8.43,8.43,0,0,0,2.82.23Q37,40.09,45.21,38.15L42.66,38,29.41,45l3.21,0q4.37-4.39,9-8.46l.78-1.81a65.64,65.64,0,0,0-10.1,7.61c-.19.16,1.07,2.07,1.3,2a50.41,50.41,0,0,0,13.73-8.32l-1.61.86A185.49,185.49,0,0,1,33.11,50.72c-.34.3,1-.07.84,0A9.14,9.14,0,0,0,36.23,50l18.33-10.2.67-2.15L43.09,52A12.54,12.54,0,0,0,42,53.45c0,.06-.24.4,0,.29l12.27-5.67.15-2.57-4.63,7s-.29.42,0,.32a37.31,37.31,0,0,1,6.76-2.49A26,26,0,0,1,62.7,49l-2.57-2.2a101.24,101.24,0,0,0-8,13.44,17.6,17.6,0,0,0-.86,1.81,5.19,5.19,0,0,0-.24.83,37.28,37.28,0,0,0,8.32-4L57.8,56.24a8.13,8.13,0,0,1-3.81,6,14.26,14.26,0,0,0-1.71,1.49s-.39.46-.1.32a27.08,27.08,0,0,0,7.42-4.33L61.67,57c.14-.19-1.38-1.55-1.67-1.44-5.24,2.13-10.88,4.59-16.61,4.61a9.69,9.69,0,0,0-5.06,1.35s1.82.86,1.8.85c.34.13,1.47.75,1.9.58a63,63,0,0,0,7.74-3.32,9.35,9.35,0,0,0,5.19-4c.25-.26.68-2.25.8-2.3a77.72,77.72,0,0,1-12.14,4.52,104.27,104.27,0,0,1-12.43,3.28l2.73,1.34a5.3,5.3,0,0,1,2.74-2.17,23.88,23.88,0,0,0,10.73-6.66,78,78,0,0,0,10.79-7.21,53,53,0,0,0,5-4.28,13.17,13.17,0,0,1-1.49,0,6.37,6.37,0,0,0-2.27.22l-6.07,3a79,79,0,0,0-9.19,4q-2.77,1.38-5.59,2.69A36.06,36.06,0,0,1,29,55.35l2.88.93c2-.92,4.12-1.77,6.22-2.54a23.19,23.19,0,0,0,10-6.46l4.56-2.73a60.47,60.47,0,0,0,8.12-6.4c-.07.06-1.23,0-1.45,0a7.43,7.43,0,0,0-2.21.24q-7.28,3.16-14.59,6.19A26.23,26.23,0,0,1,26,48.92L29,50.34q5.24-3.2,10.31-6.63a118.88,118.88,0,0,0,12.23-9c.27-.21.15-.35-.13-.19C42.88,39.3,34.32,44,25.87,49a9.56,9.56,0,0,0,1.16.66,7.38,7.38,0,0,0,1.9.75,5.47,5.47,0,0,0,3.19.4A23.18,23.18,0,0,0,35,49a26.66,26.66,0,0,1,9.26-4.23q8.31-3,16.44-6.51L57,38.42C53.16,41.57,49.5,45.23,45.32,48l-6,3.61L29,55.35c-.37.13.73.44.66.41.43.15,1.66.74,2.13.57a25.39,25.39,0,0,0,6-2.21,12,12,0,0,0,3.91-3.24l6.94-2.63A119.63,119.63,0,0,0,63,42.16l-3.76.18A77.15,77.15,0,0,1,46.9,52a54.47,54.47,0,0,0-8.23,6.21l2.5-1.25c-2,.64-4,1.33-6,2.09a13.68,13.68,0,0,0-4.06,2.07,6.58,6.58,0,0,0,1,.63c.39.19,1.26.8,1.71.7a90.36,90.36,0,0,0,11.26-2.68A30.85,30.85,0,0,0,55,55.56l.71-2.26a27.34,27.34,0,0,1-7.75,4.61,45.3,45.3,0,0,1-9.59,3.56L42,62.9a6.32,6.32,0,0,1,3.58-1.38,18.73,18.73,0,0,1,3.93-.63l.1,0a57.87,57.87,0,0,1,12-3.89L60,55.51l-.51,4,.73-1.75a23.09,23.09,0,0,1-5.77,4.12l-2.27,2.18a17.3,17.3,0,0,0,7.15-5.16c.3-.33-1.49-2.7-1.53-2.66a21.11,21.11,0,0,1-5.54,3.81l-1.15,2.8Q57,56,62.7,49a7.68,7.68,0,0,0-2.57-2.2,4.23,4.23,0,0,0-3.57.78,30,30,0,0,0-4.93,2.72L49.9,52.66A25.78,25.78,0,0,0,54.29,48c.25-.3.05-2.52.15-2.57l-10.85,6-1.46,2.12L54.56,39.78a7,7,0,0,0,.67-2.15L33.11,50.72l3.18-.83C39.66,44.76,44,40.25,47.85,35.5c.18-.22-.35,0-.27,0Q40,38.92,32.34,42.29l1.3,2,8-7.75a3.3,3.3,0,0,0,.73-1.27c0,.1.34-.73,0-.54-2.17,1.44-4.24,2.85-6.29,4.45-3.8,3-1.83,1.37-6.83,5.94,0,0,1.11.1,1.27.1A5.08,5.08,0,0,0,32.54,45l12.67-6.87c.28-.15-.39-.2-.43-.21a5.33,5.33,0,0,0-1.91,0q-9.33,1.7-18.54,3.9l4.64.57,12.29-8.3S39,33.53,39,33.52C38.58,33.46,37,33,36.58,33.25Z"/>
        <path class="cls-1" d="M37.26,33.62l-12.41,8.6a14.53,14.53,0,0,1,1.81.35,8.22,8.22,0,0,0,2.82.26Q38,40.42,46.55,38.47l-3.23-.2L30.06,45.33l3.66,0a25.3,25.3,0,0,1,11.73-7.67l-1.62-2.57a68.44,68.44,0,0,0-10.36,7.55c.11-.08,2.41,2.2,3,1.91a28.25,28.25,0,0,1,14.36-5.45l-1.27-3a64.69,64.69,0,0,1-7.1,8.58A54.66,54.66,0,0,1,34,51c-.42.28,1.23-.06,1,0a9.56,9.56,0,0,0,2.76-.69Q46.46,45,55.34,40l1.52-2.62L44.14,51.77a17.33,17.33,0,0,0-1.51,1.8c0,.06-.33.47-.05.34l12.26-5.73.71-3.48-4.83,7.37c.1-.13-.89,1.06-.44.88A37,37,0,0,1,57,50.47,34,34,0,0,1,63.26,49l-2.69-3.37a53.85,53.85,0,0,0-8,14A19.75,19.75,0,0,0,51.67,62,6.75,6.75,0,0,0,51.44,63a39.7,39.7,0,0,0,8.39-4l-1.6-3.75A9.28,9.28,0,0,1,55,61.34a22.94,22.94,0,0,0-2,2.16s-.68.8-.32.62A21.8,21.8,0,0,0,58.47,61a8.63,8.63,0,0,0,4-4.19c.25-.34-.81-3.19-1-3.14q-3.14,1.09-6.34,1.93Q51.24,58,47.26,60.36L49,60.25c-.43,0-4.91,0-6,.17a10.68,10.68,0,0,0-4,1.54s1.85.9,1.82.89c.36.15,1.47.79,1.94.63a64.76,64.76,0,0,0,8.08-3.11,12.37,12.37,0,0,0,5.31-3.23c.32-.25.25-1.35.27-1.65a7.18,7.18,0,0,0,0-1.67,79.07,79.07,0,0,1-12.31,4.54,97.31,97.31,0,0,1-12.46,3.2l3.15,1.59a5.72,5.72,0,0,1,3.22-1.49c.63-.43,1.24-.87,1.83-1.35a66.76,66.76,0,0,1,13.42-9.92,78.15,78.15,0,0,0,10.11-8,12.14,12.14,0,0,1-1.86-.06,7.93,7.93,0,0,0-2.84.21l-6.23,3q-5.15,1.91-10.12,4.18a23.56,23.56,0,0,0-5.61,2.86,37.41,37.41,0,0,1-7.86,4c-.1,0,1.5,3.16,1.83,3l4.51-2.05a22.85,22.85,0,0,0,11.11-7.22c4.89-4,9.92-7.8,14.73-11.88a11.63,11.63,0,0,1-1.81-.07,8.26,8.26,0,0,0-2.77.2c-6.31,2.75-12.76,5.18-18.93,8.22a23.9,23.9,0,0,1-6.13,2.63,6.3,6.3,0,0,1-5.25.44L29,52.35a100,100,0,0,1,11.27-7.42A32.71,32.71,0,0,0,50,37.42a18,18,0,0,0,1.82-1.78s.6-.71.28-.54q-6.28,3.59-12.69,7a120.57,120.57,0,0,0-13.14,7.77c-.13.08.86,1,.66.78l2.85,2.73.08.07a23.18,23.18,0,0,1,14.5-8.33q8.46-3,16.68-6.6l-4.58.13-3.7,3a32.33,32.33,0,0,1-10.55,9.26,16.18,16.18,0,0,1-5.22,2.6l-8,3.07,1.83,3,3.81-5.34L33,55.75a61.17,61.17,0,0,1,15.75-7.14,113,113,0,0,0,14.56-6.18l-4.69.15c-4,3.51-8.15,6.74-12.41,10-4.53,3.41-2.15,1.19-6.65,7.89l2.6-2.76q-2.45.78-4.94,1.41a17.48,17.48,0,0,0-5.51,2.49,12.16,12.16,0,0,0,1.51.92c.37.19,1.16.75,1.64.67a96.5,96.5,0,0,0,11-2.15,32,32,0,0,0,10.32-3.86l.26-3.32a35.35,35.35,0,0,1-7.94,4.53A47.78,47.78,0,0,1,39.08,62l3.76,1.52,1.79-1.22a27.23,27.23,0,0,1,5.11-1.59c2-.45,1-.17,3.26-2.39L50.69,59.7a109.28,109.28,0,0,1,11.74-2.89l-1-3-1.33,6,1.31-2.85a26.86,26.86,0,0,1-6.13,4.22l-2.6,3A18.72,18.72,0,0,0,59.83,59c.45-.49-1.75-3.62-1.6-3.75a22.49,22.49,0,0,1-5.45,4l-1.25,3.65Q57.44,56,63.26,49c.17-.2-2.27-3.45-2.69-3.37-3,.54-5.6,2.64-8,4.25l-2.24,3a27.68,27.68,0,0,0,4.65-4.84A5.48,5.48,0,0,0,55.47,46c0-.16.16-1.39.16-1.4L44.78,51.14l-1.56,2.13L55.53,39.75a9.06,9.06,0,0,0,1.37-2s.45-.78.15-.57L34,51l3.75-.7A50.26,50.26,0,0,0,46,46.06a38.17,38.17,0,0,0,4.83-7c.21-.34-1.06-3.06-1.27-3a84.7,84.7,0,0,0-16.05,6.53l3,1.91a56.49,56.49,0,0,1,9-6.89,6.32,6.32,0,0,0-1.62-2.57,29.35,29.35,0,0,0-7,4.42A57.08,57.08,0,0,0,30,45.4c.05,0,1.26.11,1.45.1a5.51,5.51,0,0,0,2.22-.13l12.92-6.9c.39-.2-1-.23-.82-.22a9.72,9.72,0,0,0-2.41,0Q34.1,39.92,25,42.17l4.63.61,12.32-8.34s-2.29-.55-2.31-.56C39.25,33.82,37.68,33.32,37.26,33.62Z"/>
        <path class="cls-1" d="M36.42,32.43,24.06,41c.05,0,1.23.27,1.42.3a6.62,6.62,0,0,0,2.21.15q7.77-2.24,15.6-4.17l-1.07-.17L29,44.21l1.95,0a28.61,28.61,0,0,1,5-5.57,47.38,47.38,0,0,1,6.14-5.07c.45-.36-1.09.12-1.28.27a93.07,93.07,0,0,0-8.52,6.84c-.23.2.72.34.87.26a77.11,77.11,0,0,1,14.91-6.93l-1.35-.22a24.46,24.46,0,0,1-5.94,8.33,35.56,35.56,0,0,1-8,7.85c-.22.17.37.07.39.07a6,6,0,0,0,1.48-.49q9.72-4.94,19.37-10l-.45-.66L41.8,53c0-.05-.35.51-.08.39l12.35-5.53L53.69,47,49.55,52.3s-.19.31,0,.23a39.1,39.1,0,0,1,6.86-2.42,27.23,27.23,0,0,1,6.46-1.3l-1.76-.88a103.33,103.33,0,0,1-9.52,13.6s-.8,1.19-.51,1.08a37.62,37.62,0,0,0,8.38-3.91l-1.23-1c-1.33,3.12-2.31,4-5.76,5.73l1.37-.34a9.13,9.13,0,0,0,2.34-1.27A20,20,0,0,0,61.51,57c.17-.19-1.35.06-1.47.1a45,45,0,0,1-6.15,1.66,31.54,31.54,0,0,1-9.79.56,10.67,10.67,0,0,0-4,.26,6.12,6.12,0,0,0-1.93,1,12.84,12.84,0,0,0,1.39.69c.28.11,1.13.59,1.48.42a62.66,62.66,0,0,0,7.62-3.76,16.64,16.64,0,0,0,6.44-5.1s.82-1,.58-.87a80.33,80.33,0,0,1-12,4.57,126.54,126.54,0,0,1-12.7,3.57l1.85.89a9.15,9.15,0,0,1,5.49-3.89c1.16-.41,2.3-.86,3.42-1.38a66.4,66.4,0,0,0,11.78-6.32,76.84,76.84,0,0,0,10-8c.28-.25-.76-.16-.69-.16a5.22,5.22,0,0,0-2,.21c-4.89,2.49-9.74,5-14.8,7.13-5.63,2.37-11.49,4.07-17.33,5.87l1.82.67c5.14-2.75,10.42-5.18,15.65-7.76,2.38-1.13,4.71-2.37,7-3.73a44.37,44.37,0,0,0,8-6.14c.29-.25-.74-.15-.66-.15a5.4,5.4,0,0,0-1.88.24l-6.9,3a56,56,0,0,1-12.65,5,22.71,22.71,0,0,1-7.78,2.16,17.94,17.94,0,0,1-5.57.18l2.28,1a281,281,0,0,1,24-15.41c.45-.26-.82,0-1,.12C42.47,38.19,34.05,43,25.66,48c.06,0,2,1,2.28,1a14.24,14.24,0,0,0,5-.48,35.48,35.48,0,0,0,5.23-1.42L45,44q8.13-3.16,16.17-6.53l-2.54.09a64.86,64.86,0,0,1-7.55,5.86q-3.16,1.91-6.31,3.84c-5.08,3.09-10.54,5-16.07,7.17a3.65,3.65,0,0,0,1.82.67c4.4-1.52,8.83-3,13.09-4.86l5.78-2.72q7.2-2.71,14.1-6.14l-2.66.05A85.42,85.42,0,0,1,42.66,54.36a52.31,52.31,0,0,1-6.36,3,20.08,20.08,0,0,0-5.46,2.82c.05,0,1.52,1,1.85.89a118,118,0,0,0,11.93-3.63A48.4,48.4,0,0,0,54.9,53l.64-1a41.36,41.36,0,0,1-17.39,8.57L41,61.68c2.94-1.49,5.66-1.22,8.78-1.44a20.15,20.15,0,0,0,4.87-.74q3.31-1.34,6.72-2.4l-1.47.1a11.14,11.14,0,0,1-7.76,6.35c-.24.14-.17.31.1.21a16.14,16.14,0,0,0,7.21-5.06c.14-.15-1-1.19-1.23-1a23.14,23.14,0,0,1-6.35,3.58l-.69,1.29Q57.37,55.89,63,48.77c.12-.14-1.59-.89-1.75-.88A11.54,11.54,0,0,0,56.07,49a33.25,33.25,0,0,0-5.4,2.37l-.07.39a23.69,23.69,0,0,0,3.53-3.89c.09-.11-.2-1-.39-.91L42.42,52.39l0,.34L54.11,39.52c.1-.11-.27-.77-.45-.67L33,49.91l1.87-.42A135,135,0,0,0,48.13,34.05c.2-.27-1.11-.38-1.31-.28q-7.24,3.43-14.47,6.95l.87.26a34.67,34.67,0,0,1,8.93-7.37l-1.28.27q-2.59,2.28-5.31,4.44A57.69,57.69,0,0,0,29,44.21a4,4,0,0,0,1.95,0l12.4-7c.2-.11-1-.19-1.07-.17Q33.2,38.86,24.17,41l3.63.45,12.27-8.37s-1.81-.46-1.8-.46C37.94,32.55,36.78,32.18,36.42,32.43Z"/>
      </g>
      <g>
        <path class="cls-2" d="M36.9,25.55c-5.45,2.51-10.71,5.25-14.15,10.36a17.59,17.59,0,0,0-2,16.39c2.36,6.27,7.65,10.79,13.63,13.45a44.11,44.11,0,0,0,10.56,3.07A27.44,27.44,0,0,0,55,68.94a14.61,14.61,0,0,0,7.25-3.81,19.63,19.63,0,0,0,4.47-7.21,29.68,29.68,0,0,0,1.39-10C68,44,67.72,40,66.2,36.38A19.64,19.64,0,0,0,55.83,25.55C50,23,44,25.72,38.27,27.12a9,9,0,0,0,.84.68c.34.21,1,.83,1.46.79,4.33-.42,8.39-2.1,12.79-1.16,4.67,1,8.4,5,10.36,9.1,2.44,5.13,2.85,11.12,2.1,16.7-.72,5.33-3.43,11.53-8.93,13.47-5.24,1.84-11.22,1-16.46-.4-6.1-1.68-11.56-4.73-15.34-9.88a16.36,16.36,0,0,1-2.32-15.34c3-7.61,9.53-11.36,16.9-14.48.06,0-1.36-.67-1.33-.66C38.05,25.83,37.25,25.39,36.9,25.55Z"/>
        <path class="cls-2" d="M37.45,26.45C32,29,26.78,31.66,23.36,36.74a17.15,17.15,0,0,0-2,16.13C23.73,59,28.92,63.39,34.77,66a43.93,43.93,0,0,0,10.36,3.06,27,27,0,0,0,9.89.21,14.14,14.14,0,0,0,7.13-3.67,18.93,18.93,0,0,0,4.39-7A29.75,29.75,0,0,0,68,48.81c0-3.82-.3-7.84-1.78-11.4A19.35,19.35,0,0,0,56.1,26.65c-5.77-2.49-11.62.12-17.3,1.45,0,0,.86.72,1,.8.38.25,1.18,1,1.66,1a9.53,9.53,0,0,0,3.36-.42,32.71,32.71,0,0,1,3.92-.77,13.18,13.18,0,0,1,6.09.8c4.48,1.81,7.54,5.83,9,10.36,2.93,9,1,25.13-10.73,26.44-5.5.62-11.16-.7-16.27-2.69-5.59-2.19-11-6.7-12.79-12.66a14.6,14.6,0,0,1-.52-6.69A17.65,17.65,0,0,1,26,38.11C29.3,32.77,35.21,30,40.74,27.7c0,0-1.6-.76-1.59-.76C38.84,26.83,37.83,26.28,37.45,26.45Z"/>
        <path class="cls-2" d="M36.73,24.85C31.82,27.08,26.61,29.57,23.29,34a18.71,18.71,0,0,0-3.79,14.9c1.25,6.88,6.76,12.79,12.91,15.78,6.39,3.12,14.1,4.91,21.21,4.12a16.55,16.55,0,0,0,7.91-3c2.52-1.79,4.71-5.66,5.57-8.57A35.41,35.41,0,0,0,67,37.52c-1.73-5.61-5.5-10.55-11.1-12.76a15.88,15.88,0,0,0-9-.74c-2.93.61-5.78,1.6-8.69,2.32-.09,0,1.45,1.3,1.92,1.23,4.46-.62,8.73-2.24,13.27-1.29,4.79,1,8.77,4.94,10.87,9.16,2.58,5.18,3.14,11.27,2.58,17s-3.14,12-8.79,14.3c-5.41,2.18-11.63,1.47-17.15.1-6.33-1.58-12-4.57-16.24-9.64a17.67,17.67,0,0,1-3.71-8.78,15.91,15.91,0,0,1,.83-7.76,18.82,18.82,0,0,1,3.78-6.39l7.54-5.87c1.87-1,3.77-1.82,5.72-2.6C38.91,25.74,37.16,24.65,36.73,24.85Z"/>
        <path class="cls-2" d="M37.5,27.71c-5.45,2.46-10.71,5.13-14.16,10.2a16.91,16.91,0,0,0-2,16c2.3,6,7.44,10.4,13.22,13a43.53,43.53,0,0,0,10.26,3,26.48,26.48,0,0,0,9.76.17,13.51,13.51,0,0,0,7-3.69,19,19,0,0,0,4.12-6.86A30.32,30.32,0,0,0,67.08,50c0-3.76-.21-7.69-1.64-11.21A18.76,18.76,0,0,0,55.6,28.25c-5.67-2.47-11.33.1-17,1.32,0,0,1.64,1.43,1.63,1.41.35.27,1.26,1.2,1.79,1.18a6.23,6.23,0,0,0,3-.36,27,27,0,0,1,3.56-.8,11.57,11.57,0,0,1,5.56.68c4.23,1.72,6.94,5.69,8.14,10a24.65,24.65,0,0,1-1.08,15.7,15.4,15.4,0,0,1-3.17,5.06,10.15,10.15,0,0,1-6.56,2.49A33.12,33.12,0,0,1,37,61.75c-4.77-2.06-9.32-5.81-11-10.91-1.33-4.1-.39-7.8,1.77-11.4,3.13-5.21,9.09-7.76,14.45-9.94-.08,0-2.28-1-2.32-1C39.56,28.33,38,27.49,37.5,27.71Z"/>
        <path class="cls-2" d="M37.29,26.81C31.85,29.29,26.6,32,23.18,37.07a17,17,0,0,0-1.95,16.06c2.34,6.06,7.49,10.44,13.29,13.05a44,44,0,0,0,10.31,3.06,27.08,27.08,0,0,0,9.83.21,14.1,14.1,0,0,0,7.1-3.63,19.07,19.07,0,0,0,4.37-6.91,29.57,29.57,0,0,0,1.5-9.75c0-3.8-.29-7.81-1.75-11.36A19.2,19.2,0,0,0,55.81,27.08c-5.75-2.49-11.56.11-17.22,1.43,0,0,1.46,1.14,1.44,1.13.36.24,1.1.91,1.6.89a7.65,7.65,0,0,0,3.15-.4,30.5,30.5,0,0,1,3.8-.79,12.77,12.77,0,0,1,5.94.72C59,31.82,62,35.83,63.38,40.3c2.82,9,.68,24.67-11,25.66-5.38.46-10.86-.92-15.81-3C31.3,60.8,26.2,56.48,24.53,50.77a13.93,13.93,0,0,1-.46-6.38,17,17,0,0,1,2.46-5.92c3.23-5.28,9.14-7.94,14.62-10.19l-1.88-.87C38.94,27.29,37.71,26.62,37.29,26.81Z"/>
        <path class="cls-2" d="M37.12,25.94C31.68,28.45,26.42,31.18,23,36.27a17.35,17.35,0,0,0-2,16.26c2.35,6.19,7.59,10.64,13.5,13.28A44.12,44.12,0,0,0,45,68.88a27.57,27.57,0,0,0,10,.16,14.44,14.44,0,0,0,7.19-3.72,19.25,19.25,0,0,0,4.44-7.09A29.31,29.31,0,0,0,68,48.3c0-3.84-.34-7.89-1.84-11.47A19.48,19.48,0,0,0,55.93,26c-5.82-2.5-11.74.15-17.45,1.52,0,0,.81.67.91.73.36.24,1.11.93,1.56.89a10.41,10.41,0,0,0,3.42-.48,34.34,34.34,0,0,1,4-.82,14,14,0,0,1,6.25.71A16.66,16.66,0,0,1,64.17,38.9C67.5,48.3,65.92,65.32,53.57,67c-5.73.75-11.68-.55-17-2.59C30.66,62.11,24.88,57.25,23.16,51a15.56,15.56,0,0,1-.48-7,18.14,18.14,0,0,1,2.62-6.31c3.33-5.38,9.25-8.18,14.84-10.55,0,0-1.48-.72-1.46-.71C38.39,26.27,37.48,25.77,37.12,25.94Z"/>
        <path class="cls-2" d="M37.22,27.19c-5.43,2.47-10.69,5.16-14.12,10.24a17,17,0,0,0-2,16c2.33,6,7.47,10.41,13.26,13a43.73,43.73,0,0,0,10.28,3,26.69,26.69,0,0,0,9.8.21,13.79,13.79,0,0,0,7.06-3.63,19.24,19.24,0,0,0,4.25-6.88,29.84,29.84,0,0,0,1.56-9.66,29.78,29.78,0,0,0-1.71-11.32,19.12,19.12,0,0,0-10-10.68c-5.73-2.48-11.49.1-17.13,1.4,0,0,1.56,1.24,1.54,1.23.37.25,1.19,1,1.71,1a6.8,6.8,0,0,0,3.07-.38A29.19,29.19,0,0,1,48.55,30a12.28,12.28,0,0,1,5.82.69c4.39,1.73,7.3,5.75,8.63,10.18,2.66,8.78.27,24.06-11.08,24.78-5.25.34-10.54-1.08-15.34-3.14C31.5,60.31,26.68,56.19,25,50.72a13.17,13.17,0,0,1-.42-6.11A16.54,16.54,0,0,1,27,38.85c3.19-5.23,9.1-7.82,14.52-10-.05,0-2.08-.94-2.11-.95C39.09,27.74,37.67,27,37.22,27.19Z"/>
        <path class="cls-2" d="M37.85,27.58c-5.42,2.47-10.67,5.15-14.11,10.21a16.91,16.91,0,0,0-2,15.94c2.3,6,7.42,10.41,13.18,13a43.35,43.35,0,0,0,10.27,3A26.64,26.64,0,0,0,55,70a13.53,13.53,0,0,0,7-3.69,19,19,0,0,0,4.15-6.89,30.26,30.26,0,0,0,1.38-9.55c0-3.76-.23-7.69-1.67-11.21A18.88,18.88,0,0,0,56,28.11c-5.67-2.47-11.34.12-17,1.31,0,0,1.55,1.33,1.53,1.31.35.26,1.18,1.1,1.7,1.09a7.07,7.07,0,0,0,3.1-.33A26.4,26.4,0,0,1,49,30.75a11.55,11.55,0,0,1,5.61.79c4.19,1.8,6.86,5.79,8,10.09a24.9,24.9,0,0,1-1,15.6,15.76,15.76,0,0,1-3.09,5.08,10.12,10.12,0,0,1-6.5,2.6c-5,.33-10.07-1-14.68-2.95-4.9-2-9.64-5.82-11.37-11-1.39-4.19-.51-8,1.71-11.66C30.8,34,36.75,31.43,42.14,29.21c0,0-2.07-.94-2.09-.95C39.71,28.13,38.31,27.38,37.85,27.58Z"/>
        <path class="cls-2" d="M37.06,26.31c-5.43,2.5-10.68,5.22-14.1,10.31A17.17,17.17,0,0,0,21,52.78c2.34,6.12,7.53,10.53,13.39,13.15A43.5,43.5,0,0,0,44.78,69a27,27,0,0,0,9.9.2,14.26,14.26,0,0,0,7.16-3.66,19.15,19.15,0,0,0,4.42-7,29.4,29.4,0,0,0,1.49-9.86c0-3.82-.31-7.86-1.8-11.43A19.34,19.34,0,0,0,55.76,26.47C50,24,44.1,26.61,38.4,28c0,0,.88.74,1,.82.39.25,1.21,1,1.7,1a9,9,0,0,0,3.34-.45,32.76,32.76,0,0,1,3.91-.83,13.53,13.53,0,0,1,6.12.67A16.29,16.29,0,0,1,63.8,39.43C67,48.69,65.12,65.28,53,66.59c-5.59.61-11.36-.75-16.53-2.83-5.63-2.25-11.08-6.89-12.75-12.94a14.65,14.65,0,0,1-.43-6.71A17.65,17.65,0,0,1,25.81,38c3.28-5.32,9.2-8.06,14.73-10.37l-1.69-.79C38.54,26.72,37.46,26.13,37.06,26.31Z"/>
      </g>
      <g>
        <path class="cls-1" d="M20.4,21A28.84,28.84,0,0,1,10,12.57c-.31-.35.14,1.06.07.85a6.69,6.69,0,0,0,.86,2.28,30.75,30.75,0,0,0,6.62,6.11q2,1.25,4,2.37s-.42-1.63-.42-1.63C21,22.2,20.78,21.24,20.4,21Z"/>
        <path class="cls-1" d="M20.78,22.07a29,29,0,0,1-10.43-8.43c-.33-.36.17,1.13.1.92A7.3,7.3,0,0,0,11.38,17,30.65,30.65,0,0,0,18,23.13a33.65,33.65,0,0,0,4,2.37s-.47-1.75-.48-1.76C21.4,23.37,21.19,22.3,20.78,22.07Z"/>
        <path class="cls-1" d="M20.29,20.26a21.24,21.24,0,0,1-5.66-3.69,21.49,21.49,0,0,1-4.76-4.76c-.3-.33.12,1,.06.79a5.86,5.86,0,0,0,.82,2.09,23.09,23.09,0,0,0,4.8,4.67,23.74,23.74,0,0,0,5.67,3.72c.3.17-.13-1-.16-1.1C20.91,21.55,20.73,20.52,20.29,20.26Z"/>
        <path class="cls-1" d="M20.54,23.58,10.08,15.14c-.36-.39.2,1.28.13,1.06.24.77.46,2.25,1,2.87a18.32,18.32,0,0,0,3.19,3.39A33.36,33.36,0,0,0,22,27.63s-.57-2-.59-2.07C21.26,25.17,21,23.84,20.54,23.58Z"/>
        <path class="cls-1" d="M20.53,22.48a28.81,28.81,0,0,1-10.44-8.42c-.33-.38.19,1.18.12,1a7.75,7.75,0,0,0,1,2.62,30.56,30.56,0,0,0,6.62,6.12,25.36,25.36,0,0,0,4,2.39s-.5-1.86-.51-1.88C21.18,23.89,21,22.73,20.53,22.48Z"/>
        <path class="cls-1" d="M20.54,21.47A28.76,28.76,0,0,1,10.1,13c-.32-.35.16,1.1.09.89a7.07,7.07,0,0,0,.9,2.38,30.7,30.7,0,0,0,6.61,6.11,45.05,45.05,0,0,0,4,2.37s-.45-1.69-.45-1.7C21.14,22.72,20.94,21.7,20.54,21.47Z"/>
        <path class="cls-1" d="M20.41,22.93A28.69,28.69,0,0,1,10,14.51c-.34-.38.2,1.22.13,1a8.06,8.06,0,0,0,1,2.71,30.7,30.7,0,0,0,6.63,6.14,20.81,20.81,0,0,0,4,2.39s-.53-1.93-.54-2C21.09,24.41,20.84,23.18,20.41,22.93Z"/>
        <path class="cls-1" d="M20.92,23.44A29.07,29.07,0,0,1,10.45,15c-.34-.38.2,1.25.13,1a8,8,0,0,0,1,2.79,44.2,44.2,0,0,0,4.93,4.75c2.91,2.31,1.35,1.17,5.79,3.78,0,0-.54-2-.56-2C21.62,25,21.36,23.7,20.92,23.44Z"/>
        <path class="cls-1" d="M20.41,21.9A29,29,0,0,1,10,13.47c-.33-.37.17,1.14.1.92A7.42,7.42,0,0,0,11,16.88,30.61,30.61,0,0,0,17.63,23a32.43,32.43,0,0,0,4,2.38s-.47-1.78-.48-1.79C21,23.23,20.82,22.14,20.41,21.9Z"/>
      </g>
      <g>
        <path class="cls-1" d="M9,36.19.15,34.62S1.08,36,1.08,36c.24.29.73,1.11,1.16,1.2l8.58,1.67S10,37.43,10,37.45C9.82,37.19,9.35,36.27,9,36.19Z"/>
        <path class="cls-1" d="M9.39,37.21.62,35.64l1,1.5c.25.3.79,1.22,1.26,1.32l8.54,1.69s-.92-1.56-.91-1.55C10.35,38.33,9.82,37.29,9.39,37.21Z"/>
        <path class="cls-1" d="M8.8,35.46.11,33.9c-.37-.07.33.72.3.68.25.34,1,1.48,1.4,1.57l8.65,1.7a13.38,13.38,0,0,0-.71-1.28C9.57,36.31,9.18,35.53,8.8,35.46Z"/>
        <path class="cls-1" d="M9.27,38.68.47,37.07c.06,0,1.27,1.83,1.29,1.86.26.34,1,1.58,1.51,1.68l8.56,1.73s-1.15-1.9-1.16-1.91C10.46,40.13,9.75,38.77,9.27,38.68Z"/>
        <path class="cls-1" d="M9.17,37.62.39,36s1.13,1.63,1.14,1.64c.26.32.88,1.37,1.37,1.46l8.53,1.72-1-1.7C10.22,38.87,9.62,37.7,9.17,37.62Z"/>
        <path class="cls-1" d="M9.12,36.64.33,35.06s1,1.45,1,1.45c.24.3.76,1.17,1.21,1.26l8.56,1.69S10.22,38,10.23,38C10,37.7,9.54,36.71,9.12,36.64Z"/>
        <path class="cls-1" d="M9.08,38.07.3,36.46s1.2,1.72,1.22,1.74c.26.33.93,1.45,1.44,1.56l8.52,1.73s-1.07-1.78-1.08-1.79C10.2,39.41,9.55,38.15,9.08,38.07Z"/>
        <path class="cls-1" d="M9.64,38.54.84,36.93S2,38.66,2.05,38.68c.25.32.92,1.47,1.43,1.57L12,42S11,40.18,11,40.17C10.75,39.88,10.1,38.62,9.64,38.54Z"/>
        <path class="cls-1" d="M9,37.06.23,35.47S1.29,37,1.3,37c.25.3.82,1.27,1.29,1.37l8.55,1.7s-1-1.61-.94-1.6C10,38.22,9.45,37.13,9,37.06Z"/>
      </g>
      <g>
        <path class="cls-1" d="M16.3,66.89A109.72,109.72,0,0,1,6.83,79.7l0,.08a6.84,6.84,0,0,0,5,2.16c.17,0,.16-1.52-.13-1.52a2,2,0,0,1-1.93-.55,157.6,157.6,0,0,1,9-13.43c.2-.29-.69,0-.66,0C17.73,66.45,16.52,66.57,16.3,66.89Z"/>
        <path class="cls-1" d="M16.8,67.72,7.49,80.41l-.08.09a6.68,6.68,0,0,0,4.9,1.92c.35,0,0-2.76,0-2.74q-5.71,1.42,3.47-6.4c1.57-2.08,3.07-4.22,4.5-6.4l-1.76.28C18.15,67.24,17.05,67.35,16.8,67.72Z"/>
        <path class="cls-1" d="M15.86,66.4A105.1,105.1,0,0,1,6.45,79.18l0,.08a7.7,7.7,0,0,0,5.22,2.54c.2,0,.16-.77-.08-.82A3.71,3.71,0,0,1,9,79.86a88.07,88.07,0,0,1,8.58-13.72C17.63,66,16.06,66.1,15.86,66.4Z"/>
        <path class="cls-1" d="M16.74,68.72l-4.46,6.6Q3.93,79.39,8,82.13a7.18,7.18,0,0,0,4.48,1.48c.39,0,1.2-2.72,1.25-2.85a8.71,8.71,0,0,0,.53-1.51c0-.14.15-.44-.08-.24l-2.83,1.22,1.54-.29Q18,73.88,22.4,67.34a25.92,25.92,0,0,1-2.87.55C19.09,68,17.08,68.21,16.74,68.72Z"/>
        <path class="cls-1" d="M16.64,68l-4.45,6.57q-8.35,4.07-4.27,6.8a6.53,6.53,0,0,0,4.32,1.34c.51,0,.15-3.3.3-3.4q-3.4,1.08,1.38-2.91a116.16,116.16,0,0,0,7-9.43s-2.12.36-2.15.37C18.34,67.44,16.92,67.58,16.64,68Z"/>
        <path class="cls-1" d="M16.45,67.3A99.25,99.25,0,0,1,7.11,80l-.06.09a6.69,6.69,0,0,0,4.92,2c.24,0,.18-2,0-2a1.51,1.51,0,0,1-1.66-.23q4.44-6.73,9.12-13.29s-1.52.22-1.51.21C17.56,66.88,16.68,67,16.45,67.3Z"/>
        <path class="cls-1" d="M16.57,68.32,12.1,74.9q-8.34,4-4.26,6.81a6.74,6.74,0,0,0,4.41,1.39c.26,0,.55-1.93.56-2s.23-2,.28-2q-3.24,2,1.4-2.57,3.71-4.55,7-9.42c-.06.09-2.42.44-2.48.46C18.58,67.68,16.89,67.86,16.57,68.32Z"/>
        <path class="cls-1" d="M17.2,68.6l-4.48,6.58Q4.43,79.2,8.44,82a7.05,7.05,0,0,0,4.39,1.51c.29,0,.86-2.12.88-2.17a19.39,19.39,0,0,1,.59-2.27q3.69-6,8-11.7c-.07.09-2.5.46-2.57.48C19.28,67.94,17.52,68.12,17.2,68.6Z"/>
        <path class="cls-1" d="M16.41,67.6q-16,8.46-8,14a5.67,5.67,0,0,0,3.57.77c.36,0,.12-2.62.07-2.6l-1.33.09Q10,77.61,13,76.23c3.88-4.93,2.06-2.55,7-9.5L18.17,67C17.81,67.11,16.67,67.22,16.41,67.6Z"/>
      </g>
      <g>
        <path class="cls-1" d="M46.09,76.88a30.63,30.63,0,0,0-2.47,6.66,4.18,4.18,0,0,0,.93-.29c.28-.13,1.19-.39,1.3-.71l2.64-6.42a6.26,6.26,0,0,0-1.25.24C47,76.44,46.22,76.57,46.09,76.88Z"/>
        <path class="cls-1" d="M46.78,77.56a30.44,30.44,0,0,0-2.52,6.66S46,83.58,46,83.59c.3-.14,1.43-.49,1.58-.9a30.54,30.54,0,0,1,2.65-6.2s-1.77.41-1.74.4C48.15,77,47,77.19,46.78,77.56Z"/>
        <path class="cls-1" d="M45.82,76.3A30.86,30.86,0,0,0,43.24,83c-.06.19,1.43-.31,1.54-.63a31.51,31.51,0,0,1,2.63-6.42C47.5,75.74,46,76,45.82,76.3Z"/>
        <path class="cls-1" d="M46.69,78.55a31.22,31.22,0,0,0-2.58,6.71c0-.07,2.78-1.06,2.8-1.06.37-.17,2.48-.79,2.69-1.34a31.16,31.16,0,0,1,2.73-6.1c0,.1-2.82.74-2.86.76C49.12,77.63,46.92,78.05,46.69,78.55Z"/>
        <path class="cls-1" d="M46.61,77.83a31.45,31.45,0,0,0-2.56,6.68l2.08-.8c.33-.15,1.79-.6,2-1.06a31.38,31.38,0,0,1,2.7-6.14L48.66,77C48.35,77.13,46.8,77.41,46.61,77.83Z"/>
        <path class="cls-1" d="M46.43,77.15a30.66,30.66,0,0,0-2.54,6.68,11.16,11.16,0,0,0,1.43-.52c.28-.13,1.16-.41,1.3-.78a31.28,31.28,0,0,1,2.67-6.28,12.83,12.83,0,0,0-1.47.31C47.55,76.65,46.58,76.81,46.43,77.15Z"/>
        <path class="cls-1" d="M46.54,78.15A30.86,30.86,0,0,0,44,84.84s2.41-.93,2.41-.94c.36-.16,2.1-.69,2.29-1.2a30.81,30.81,0,0,1,2.73-6.09s-2.44.62-2.46.63C48.6,77.34,46.75,77.69,46.54,78.15Z"/>
        <path class="cls-1" d="M47.16,78.42a30.81,30.81,0,0,0-2.6,6.7s2.52-1,2.52-1c.35-.15,2.21-.7,2.41-1.21a30.5,30.5,0,0,1,2.71-6.13c0,.06-2.54.65-2.57.66C49.3,77.58,47.37,78,47.16,78.42Z"/>
        <path class="cls-1" d="M46.39,77.44a30.63,30.63,0,0,0-2.53,6.68s1.77-.67,1.74-.66c.31-.14,1.48-.5,1.63-.92a30.62,30.62,0,0,1,2.67-6.2s-1.82.42-1.8.41C47.82,76.84,46.56,77.06,46.39,77.44Z"/>
      </g>
      <g>
        <path class="cls-1" d="M71.32,76.18c1.53,2.63,3.27,3.79,6.1,4.87,0,0,.37-1.79,0-2a10,10,0,0,1-5.2-4.8C72.28,74.42,71.05,75.7,71.32,76.18Z"/>
        <path class="cls-1" d="M71.81,76.59c1.49,2.6,3.2,3.72,6,4.76-.17-.06.65-3.45.06-3.72a8,8,0,0,1-4.48-4.43s-.93,1.67-.91,1.64C72.36,75.05,71.62,76.26,71.81,76.59Z"/>
        <path class="cls-1" d="M71,76a11.2,11.2,0,0,0,1.78,2.31A12.67,12.67,0,0,0,77.56,81c.19.07.47-1,.23-1.07a11.47,11.47,0,0,1-6.19-4.83C71.42,74.81,70.89,75.86,71,76Z"/>
        <path class="cls-1" d="M71.45,77.6c1.5,2.62,3.24,3.74,6,4.78a29,29,0,0,0,.4-3.28c0-.11.46-3.12.11-3.29a6.78,6.78,0,0,1-3.77-4.3,29.83,29.83,0,0,1-1.53,3C72.6,74.75,71.19,77.15,71.45,77.6Z"/>
        <path class="cls-1" d="M71.56,76.8c1.48,2.61,3.19,3.73,6,4.78a13.41,13.41,0,0,0,.22-2.26c0-.14.24-2.11-.07-2.26a7.63,7.63,0,0,1-4.2-4.43l-1.09,2C72.28,74.88,71.35,76.43,71.56,76.8Z"/>
        <path class="cls-1" d="M71.53,76.31c1.5,2.62,3.23,3.75,6,4.81-.06,0,.47-2.48,0-2.71a9,9,0,0,1-4.84-4.66c0-.1-.74,1.26-.72,1.22C71.89,75.18,71.36,76,71.53,76.31Z"/>
        <path class="cls-1" d="M71.42,77.1c1.48,2.61,3.19,3.73,6,4.78a20.5,20.5,0,0,0,.27-2.66c0-.14.31-2.51,0-2.68a7.21,7.21,0,0,1-4-4.39c0,.07-1.26,2.39-1.27,2.41C72.32,74.8,71.2,76.69,71.42,77.1Z"/>
        <path class="cls-1" d="M71.88,77.4c1.49,2.61,3.22,3.75,6,4.82a25.66,25.66,0,0,0,.37-3.1c0-.1.42-3,.09-3.12a6.73,6.73,0,0,1-3.88-4.23c0,.11-1.41,2.7-1.43,2.75C72.93,74.77,71.63,77,71.88,77.4Z"/>
        <path class="cls-1" d="M71.43,76.51c1.49,2.6,3.2,3.72,6,4.76-.14,0,.6-3.19,0-3.46a8.43,8.43,0,0,1-4.54-4.55c0-.06-.89,1.59-.88,1.56C71.94,75,71.24,76.18,71.43,76.51Z"/>
      </g>
      <g>
        <path class="cls-1" d="M79,50a45.35,45.35,0,0,1,10.8-3.33c.35-.09-.56-.43-.48-.39a3.63,3.63,0,0,0-1.61-.49A48,48,0,0,0,76.86,49C76.79,49.06,78.49,50.13,79,50Z"/>
        <path class="cls-1" d="M79,50.6a44.84,44.84,0,0,1,10.78-3.37c-.11,0-1.78-.79-1.88-.82-.46-.17-1.43-.69-2-.56A49.27,49.27,0,0,0,75.2,49.19S77,50,77.05,50C77.42,50.17,78.54,50.77,79,50.6Z"/>
        <path class="cls-1" d="M79.33,49.52A45.62,45.62,0,0,1,90.09,46.2a2.5,2.5,0,0,0-1.36-.59A46.46,46.46,0,0,0,78,48.89C77.81,49,79,49.64,79.33,49.52Z"/>
        <path class="cls-1" d="M78.29,51.56A44.93,44.93,0,0,1,89.1,48.19a1,1,0,0,0-.52-.32c-.7-.28-1.41-.55-2.12-.81-.55-.2-2.06-1-2.74-.86A50.69,50.69,0,0,0,73,49.59a27.69,27.69,0,0,1,2.61,1.12C76,50.87,77.71,51.78,78.29,51.56Z"/>
        <path class="cls-1" d="M78.62,50.87a45.19,45.19,0,0,1,10.77-3.36c-.13,0-1.9-.84-2-.88-.48-.17-1.54-.75-2.11-.6a49.18,49.18,0,0,0-10.72,3.34s2,.88,2,.89C76.91,50.4,78.13,51.06,78.62,50.87Z"/>
        <path class="cls-1" d="M79,50.2l10.65-3.32c.4-.1-.74-.49-.63-.44-.46-.19-1.57-.8-2.09-.67-7.23,1.78-3.86.75-10.83,3.36,0,0,1.41.68,1.4.67C77.82,49.93,78.6,50.35,79,50.2Z"/>
        <path class="cls-1" d="M78.37,51.18a44.37,44.37,0,0,1,10.78-3.36,19.67,19.67,0,0,1-2.21-1c-.51-.18-1.71-.83-2.32-.68a49.85,49.85,0,0,0-10.71,3.35c.08,0,2.13.95,2.18,1C76.49,50.64,77.86,51.38,78.37,51.18Z"/>
        <path class="cls-1" d="M78.77,51.49a44.72,44.72,0,0,1,10.82-3.38,1.06,1.06,0,0,0-.55-.32c-.73-.3-1.46-.58-2.2-.85-.56-.21-2.14-1.08-2.85-.9a50.15,50.15,0,0,0-10.75,3.4A28.48,28.48,0,0,1,76,50.6C76.4,50.76,78.18,51.71,78.77,51.49Z"/>
        <path class="cls-1" d="M78.72,50.49l10.63-3.33c.42-.11-.84-.52-.73-.48-.52-.2-1.78-.91-2.36-.76-7.19,1.79-3.87.75-10.81,3.37L77,50C77.38,50.16,78.3,50.66,78.72,50.49Z"/>
      </g>
      <g>
        <path class="cls-1" d="M76.31,25.9a37.68,37.68,0,0,0,6.06-8.35,6.7,6.7,0,0,0-1.34,0c-.28,0-1.12,0-1.31.34a38.27,38.27,0,0,1-6.08,8,7.34,7.34,0,0,0,1.34.12C75.25,26.06,76.09,26.16,76.31,25.9Z"/>
        <path class="cls-1" d="M76.29,26.71a37.14,37.14,0,0,0,6.07-8.33s-2.07.13-2,.13c-.31,0-1.76,0-2,.42a38.23,38.23,0,0,1-6.07,7.85s2,.11,2,.11C74.57,26.89,76,27.05,76.29,26.71Z"/>
        <path class="cls-1" d="M76.53,25.38C80.91,20.16,79,22.8,82.6,17c.11-.17-1.67-.15-1.87.16l-6,8.09C74.59,25.43,76.31,25.65,76.53,25.38Z"/>
        <path class="cls-1" d="M75.47,27.8a36.76,36.76,0,0,0,6.08-8.31s-2.59.17-2.57.16c-.34,0-2.26,0-2.55.46a38.77,38.77,0,0,1-6.14,7.78s2.58.1,2.59.1C73.21,28,75.15,28.19,75.47,27.8Z"/>
        <path class="cls-1" d="M75.9,27A37.82,37.82,0,0,0,82,18.71s-2.13.14-2.11.13c-.31.05-1.81.06-2.06.43a38.43,38.43,0,0,1-6.08,7.83s2.11.11,2.1.11C74.11,27.2,75.61,27.36,75.9,27Z"/>
        <path class="cls-1" d="M76.29,26.25a37.58,37.58,0,0,0,6-8.34,12.88,12.88,0,0,0-1.64.09c-.29,0-1.39,0-1.6.37a38.2,38.2,0,0,1-6,7.94,14.35,14.35,0,0,0,1.61.11C75,26.42,76,26.55,76.29,26.25Z"/>
        <path class="cls-1" d="M75.63,27.37a36.9,36.9,0,0,0,6.06-8.31s-2.25.16-2.23.15c-.32,0-1.93.06-2.19.44a38.7,38.7,0,0,1-6.1,7.8l2.23.1C73.72,27.55,75.34,27.72,75.63,27.37Z"/>
        <path class="cls-1" d="M76,27.69A37,37,0,0,0,82,19.37l-2.72.17c-.34.05-2.39,0-2.69.47a38.43,38.43,0,0,1-6.14,7.77s2.72.1,2.74.1C73.56,27.88,75.62,28.09,76,27.69Z"/>
        <path class="cls-1" d="M76,26.58a36.83,36.83,0,0,0,6-8.32c0-.06-1.8.1-1.76.09-.3,0-1.51,0-1.73.39a38.05,38.05,0,0,1-6,7.9c0,.05,1.78.12,1.75.12C74.55,26.75,75.75,26.89,76,26.58Z"/>
      </g>
      <g>
        <path class="cls-1" d="M51.69,16a23.1,23.1,0,0,0,4.73-6.79,28.91,28.91,0,0,0,2-8.63c0-.12-1.31.62-1.27.59-.24.15-1.05.49-1.12.84A34.85,34.85,0,0,1,54.5,8.17a17.71,17.71,0,0,1-5.44,7.73,6.89,6.89,0,0,0,1.31.22C50.63,16.13,51.46,16.29,51.69,16Z"/>
        <path class="cls-1" d="M51.68,16.83a23.12,23.12,0,0,0,4.72-6.76,28.42,28.42,0,0,0,2-8.56c0-.07-1.86.87-1.82.85-.3.16-1.58.66-1.69,1.1a34,34,0,0,1-2.51,7.21,21.87,21.87,0,0,1-4.73,6s2,.25,2,.25C49.94,16.89,51.39,17.15,51.68,16.83Z"/>
        <path class="cls-1" d="M52,15.54c2-2.15,2.63-2.57,4-5.21C57.74,7,58.25,3.65,58.63,0c0,.17-1.72.63-1.79,1.1-.93,5.79-2,9.39-6.62,14.22C50.07,15.47,51.72,15.79,52,15.54Z"/>
        <path class="cls-1" d="M50.88,17.9a23.22,23.22,0,0,0,4.72-6.74,28.62,28.62,0,0,0,2-8.45c0-.06-2.31,1-2.27.94-.32.16-2,.73-2.15,1.21a33.62,33.62,0,0,1-2.7,6.94,23.64,23.64,0,0,1-4.85,5.81s2.6.29,2.63.29C48.55,17.91,50.54,18.26,50.88,17.9Z"/>
        <path class="cls-1" d="M51.29,17.14A23.1,23.1,0,0,0,56,10.4a28.49,28.49,0,0,0,2-8.52c0-.07-1.91.89-1.87.87-.3.16-1.61.66-1.73,1.11A34.25,34.25,0,0,1,51.84,11a22.51,22.51,0,0,1-4.76,5.9s2.11.26,2.1.26C49.47,17.19,51,17.46,51.29,17.14Z"/>
        <path class="cls-1" d="M51.68,16.38a23.36,23.36,0,0,0,4.68-6.77,28.32,28.32,0,0,0,2-8.59,10.85,10.85,0,0,0-1.51.7c-.26.15-1.27.56-1.36,1a32.93,32.93,0,0,1-2.35,7.43,21.57,21.57,0,0,1-4.66,6.1,12.18,12.18,0,0,0,1.59.23C50.34,16.46,51.42,16.66,51.68,16.38Z"/>
        <path class="cls-1" d="M51,17.48a23.05,23.05,0,0,0,4.7-6.73,28.87,28.87,0,0,0,2-8.47c0-.07-2,.91-2,.89-.31.17-1.69.7-1.83,1.16a34.9,34.9,0,0,1-2.64,7.06,22.51,22.51,0,0,1-4.78,5.84s2.24.27,2.25.27C49.07,17.51,50.72,17.81,51,17.48Z"/>
        <path class="cls-1" d="M51.37,17.79A22.74,22.74,0,0,0,56.07,11a27.87,27.87,0,0,0,2-8.48s-2.44,1-2.4,1c-.32.16-2.11.76-2.27,1.26a34.08,34.08,0,0,1-2.7,6.9,23.36,23.36,0,0,1-4.85,5.79c.06,0,2.74.29,2.77.29C48.9,17.8,51,18.17,51.37,17.79Z"/>
        <path class="cls-1" d="M51.4,16.71A23.45,23.45,0,0,0,56.08,10a28.15,28.15,0,0,0,2-8.55,15.46,15.46,0,0,0-1.6.74c-.27.16-1.36.59-1.46,1a32.84,32.84,0,0,1-2.43,7.35,22,22,0,0,1-4.69,6s1.77.24,1.74.24C49.93,16.78,51.13,17,51.4,16.71Z"/>
      </g>
    </g>
  </g>
</svg>
