<svg id="Layer_1" data-name="Layer 1" xmlns="http://www.w3.org/2000/svg" xmlns:xlink="http://www.w3.org/1999/xlink" width="1024" height="600" viewBox="0 0 1024 600">
  <defs>
    <style>
      .cls-1, .cls-15, .cls-17 {
        fill: none;
      }

      .cls-2 {
        fill: #955333;
      }

      .cls-3 {
        fill: #a86240;
      }

      .cls-4 {
        fill: #904e2b;
      }

      .cls-5 {
        fill: #965633;
      }

      .cls-6 {
        fill: #fbbc86;
      }

      .cls-7 {
        fill: #9a5a36;
      }

      .cls-8 {
        fill: #fcbd87;
      }

      .cls-9 {
        fill: #fff;
      }

      .cls-10 {
        fill: #231f20;
      }

      .cls-11 {
        fill: #753313;
      }

      .cls-12 {
        fill: #562810;
      }

      .cls-13 {
        fill: #8b5e3c;
      }

      .cls-14 {
        clip-path: url(#clip-path);
      }

      .cls-15, .cls-17 {
        stroke: #a97c50;
        stroke-linecap: round;
        stroke-linejoin: round;
      }

      .cls-15 {
        stroke-width: 0.99px;
      }

      .cls-16 {
        clip-path: url(#clip-path-2);
      }

      .cls-17 {
        stroke-width: 1.33px;
      }

      .cls-18 {
        clip-path: url(#clip-path-3);
      }
    </style>
    <clipPath id="clip-path">
      <path id="SVGID" class="cls-1" d="M991.56,316.37c-.37-.56-1.93-1.22-3.76-1.61-3.35-.7-8.21-1.6-8.23-.94,0,1,18.95,24.88-7.53,36.93.06-2,0-4.48-.16-7.37-.62-9.56-.21-14.21-5-17.75a7.33,7.33,0,0,0-3-.94l-5.22-.55c-1.36-.14-2,.14-1.43.61a11.19,11.19,0,0,1,4,6.21c1,4.33-1.19,17.86,2.39,25.12-3.85,4.84-4.19,10.56-4.11,16.27.08,6.07,4.16,13.29,1.09,18.67-1.12,2-3.4,3.63-4.28,5.65-1.85,4.21,4,9.26,6.42,14.15,1.71,3.48-1.42,6.67-1.85,9.8q-1.28,9.35-2.8,18.65c-.13.79,2.27,1.95,5.29,2.56l8.46,1.72c2.83.57,5.19.46,5.37-.27.56-2.31,1.3-8.74.38-26.38-2-38.4-18.76-46.9,5.8-63.29C1004.93,339.22,994.45,320.69,991.56,316.37Z"/>
    </clipPath>
    <clipPath id="clip-path-2">
      <path id="SVGID-2" data-name="SVGID" class="cls-1" d="M332.72,146a2.75,2.75,0,0,1,2.39-2.47c2.11-.08,5.16.14,5.15,2.07,0,2.86-12.54,61.09,3.58,111.47,0-5.91.12-13,.32-21.28.67-27.35.55-41.08,3.66-48.53a1.46,1.46,0,0,1,1.92-.95l3.26,1.45a2.08,2.08,0,0,1,.87,2.61c-.87,2.29-2.16,7-2.7,15.65-.75,12,.2,52.46-2.24,71.43,2.26,16.28,2.29,33.07,2.07,49.57-.23,17.55-3,36.11-1.24,53.5.64,6.33,2,12.52,2.5,18.87,1,13.27-2.78,24.51-4.42,37.28-1.17,9.1.68,20.16.86,29.5q.52,27.85,1.19,55.7c.06,2.36-1.47,4.32-3.37,4.34l-5.32,0c-1.78,0-3.25-1.7-3.34-3.91-.28-7-.55-26.1.55-76.72,2.38-110.17,13.08-125-1.72-186.87C323.71,204.42,330.79,156.79,332.72,146Z"/>
    </clipPath>
    <clipPath id="clip-path-3">
      <path id="SVGID-3" data-name="SVGID" class="cls-1" d="M633.13,546.72a2.75,2.75,0,0,1-2.17,2.67c-2.09.26-5.15.3-5.31-1.62-.24-2.85,7.24-61.94-13.17-110.74.48,5.89,1,13,1.51,21.23,1.68,27.3,3,41,.53,48.67A1.46,1.46,0,0,1,612.7,508l-3.38-1.16a2.08,2.08,0,0,1-1.09-2.53c.67-2.36,1.55-7.16,1.34-15.82-.28-12-4.72-52.25-3.92-71.36-3.65-16-5.13-32.75-6.33-49.21-1.28-17.51-.13-36.23-3.37-53.41-1.18-6.25-3.08-12.3-4.11-18.59-2.16-13.13.66-24.66,1.19-37.53.38-9.17-2.42-20-3.4-29.31q-2.91-27.7-6-55.39c-.26-2.35,1.09-4.44,3-4.61l5.29-.5c1.77-.17,3.38,1.42,3.66,3.61.88,7,2.79,26,6.06,76.48,7.11,110-2.27,125.69,17.8,186C637.07,487.7,634.12,535.76,633.13,546.72Z"/>
    </clipPath>
  </defs>
  <title>10_monkeys_playing_passing_the_sticks</title>
  <g>
    <path class="cls-2" d="M139.74,488.72a3.38,3.38,0,0,0-1.58-6.55c-1.26.19-29.93,4.21-52.34-23.18a53.93,53.93,0,0,1-6.27-9.83c-6.59-13-24.5-43.06-48.49-42.95-17.76.08-28.7,12.12-31.35,23.28C-2.83,440.21,1.47,449.87,11,454.68a20.15,20.15,0,0,0,21.49-1.49c5.85-4.32,8.93-11.24,7.82-17.63C39.63,431.87,37,425.21,26.43,422a3.38,3.38,0,0,0-2,6.47c5.32,1.61,8.48,4.46,9.13,8.23s-1.42,8.27-5.17,11a13.35,13.35,0,0,1-14.41.91c-6.65-3.38-9.54-10-7.73-17.61C8.34,422.39,17,413,31.09,413c20.8-.1,37.74,30,42.44,39.26a60.64,60.64,0,0,0,7.06,11c25,30.51,57.26,25.79,58.62,25.57A3.38,3.38,0,0,0,139.74,488.72Z"/>
    <g>
      <path class="cls-3" d="M216.82,456c2.12,2.35,4.88.58,5.25-2,.32-2.24-1-4.7-2.16-6.51a12.5,12.5,0,0,0-8.11-5.54A12.69,12.69,0,0,0,198,450a19.9,19.9,0,0,0-.87,5.65,12.4,12.4,0,0,0,.53,4.83,5,5,0,0,0,3.39,3.24,3.17,3.17,0,0,0,3.77-2.24c0,1.71,2.17,2.84,3.75,2.18a4.42,4.42,0,0,0,2.35-4.23,3.47,3.47,0,0,0,5.88-3.49Z"/>
      <path class="cls-4" d="M156.94,407.33c.13.53,7.74,2.16,8.42,2.39a101.16,101.16,0,0,1,18.89,8.45,71.93,71.93,0,0,1,13.84,10.3,54.17,54.17,0,0,1,6,6.85c.81,1.11,1.44,2.61,2.33,3.61,1.29,1.45,3.59,2.24,5.22,3.24a9.43,9.43,0,0,1,4.3,4.64,21.48,21.48,0,0,0-4.34-2.2,16.45,16.45,0,0,1,.34,4.47,8.68,8.68,0,0,0-3.81-2.28,23.41,23.41,0,0,1-1.91,6.2l-2.15-4.77-2.67,6.84a20.93,20.93,0,0,1-.65-5.76l-3.72,4.6.63-6.53c.22-2.28,0-3.42-1.44-5.1-1.07-1.25-2.1-2.53-3.21-3.74a68.75,68.75,0,0,0-8.58-8c-6.79-5.28-15.14-9.24-23.94-8.38Z"/>
    </g>
    <g>
      <path class="cls-3" d="M64.62,483.35c-1.5,2.78-4.6,1.72-5.58-.73-.84-2.1-.17-4.79.55-6.84a12.5,12.5,0,0,1,6.56-7.31,12.69,12.69,0,0,1,15.31,4.64,19.9,19.9,0,0,1,2.19,5.28,12.4,12.4,0,0,1,.63,4.82,5,5,0,0,1-2.52,4,3.17,3.17,0,0,1-4.19-1.28c.45,1.66-1.43,3.28-3.12,3a4.42,4.42,0,0,1-3.29-3.55,3.47,3.47,0,0,1-6.54-2Z"/>
      <path class="cls-4" d="M111.21,421.87c0,.55-7,3.94-7.61,4.32a101.16,101.16,0,0,0-16.34,12.7,71.93,71.93,0,0,0-11,13.3A54.17,54.17,0,0,0,72,460.27c-.53,1.27-.78,2.88-1.4,4.06-.91,1.72-3,3-4.3,4.38a9.43,9.43,0,0,0-3.07,5.53A21.48,21.48,0,0,1,67,471.08a16.45,16.45,0,0,0,.73,4.42,8.68,8.68,0,0,1,3.16-3.12A23.41,23.41,0,0,0,74.19,478l1-5.14,4.22,6a20.93,20.93,0,0,0-.74-5.74l4.71,3.58-2.17-6.19c-.76-2.16-.81-3.32.19-5.29.74-1.47,1.44-3,2.23-4.4A68.75,68.75,0,0,1,90,450.95c5.34-6.74,12.51-12.57,21.26-13.83Z"/>
    </g>
    <g>
      <circle class="cls-5" cx="177.84" cy="373.46" r="10.89" transform="translate(-107.73 74.21) rotate(-18.2)"/>
      <circle class="cls-6" cx="174.3" cy="373.66" r="7" transform="matrix(0.95, -0.31, 0.31, 0.95, -107.97, 73.12)"/>
    </g>
    <g>
      <path class="cls-3" d="M197.69,541.89s-16.95.27-18.31,9.26,12.26,9.69,18.81,11.19,19.25,4.74,20.15.81-5.15-4.62-5.15-4.62,5.72.62,6.21-3.06S215,552.2,215,552.2s3.41.27,4.08-2.68-4-2.28-4-2.28,4.5-.11,4.1-2.86C218.56,540.19,197.69,541.89,197.69,541.89Z"/>
      <path class="cls-2" d="M174.16,473.11c.2-.12,2.54,2.52,2.7,2.7a71.69,71.69,0,0,1,6.45,8.15,87.39,87.39,0,0,1,13.47,32.33,94.7,94.7,0,0,1,1.59,12.09c.24,3.63-1.11,9.21,2.65,11.27,1.55.85,3.38,1.29,4.62,2.56-1.94-.11-2.41.23-4.28.77,1.84,1.1,2.7,2.62,4,4.93-1.89-.58-3.81.26-5.47-.66.09,2.42.66,4.45.23,6.84a20.49,20.49,0,0,0-3.5-3.85,41,41,0,0,1-1.18,6.11,20.66,20.66,0,0,1-5.38-7.16,50.6,50.6,0,0,0-6.68,3.89,39.24,39.24,0,0,1,.68-5.34,6,6,0,0,0-4.15,1.5c1.28-1.13,2.29-3.4,3.13-4.88a25.57,25.57,0,0,0,2.42-5.43c.85-2.89.69-6,.65-9A76.94,76.94,0,0,0,184,512.81a61.75,61.75,0,0,0-20.55-33.23Z"/>
    </g>
    <g>
      <path class="cls-3" d="M90.77,544.73s16.83,2,17.25,11.11-13.2,8.37-19.87,9.18S68.51,567.73,68,563.73s5.6-4.06,5.6-4.06-5.75,0-5.86-3.69,4.76-2.78,4.76-2.78-3.42-.09-3.78-3.09,4.17-1.86,4.17-1.86-4.47-.58-3.78-3.27C70.19,540.87,90.77,544.73,90.77,544.73Z"/>
      <path class="cls-2" d="M121.3,478.76c-.19-.14-2.79,2.25-3,2.4a71.69,71.69,0,0,0-7.26,7.43,87.39,87.39,0,0,0-16.76,30.76,94.7,94.7,0,0,0-2.84,11.86c-.62,3.58.15,9.27-3.8,10.93-1.63.69-3.5.94-4.86,2.07,1.94.09,2.37.47,4.17,1.21-1.95.9-3,2.32-4.52,4.49,1.95-.39,3.77.65,5.51-.09-.34,2.4-1.12,4.36-.94,6.78a20.49,20.49,0,0,1,3.88-3.47,41,41,0,0,0,.54,6.2,20.66,20.66,0,0,0,6.1-6.57,50.6,50.6,0,0,1,6.24,4.56,39.24,39.24,0,0,0-.13-5.38,6,6,0,0,1,4,1.92c-1.16-1.26-1.92-3.62-2.61-5.18A25.57,25.57,0,0,1,103.2,543c-.55-3-.07-6,.28-9a76.94,76.94,0,0,1,3.87-16.81,61.75,61.75,0,0,1,23.89-30.92Z"/>
    </g>
    <ellipse class="cls-7" cx="142.11" cy="445.71" rx="41.73" ry="47.54" transform="translate(-132.08 66.67) rotate(-18.2)"/>
    <ellipse class="cls-8" cx="144" cy="451.47" rx="29.29" ry="33.38" transform="translate(-133.79 67.55) rotate(-18.2)"/>
    <g>
      <circle class="cls-5" cx="74.87" cy="401.47" r="10.89" transform="translate(-121.63 43.46) rotate(-18.2)"/>
      <circle class="cls-6" cx="77.84" cy="399.53" r="7" transform="translate(-120.87 44.29) rotate(-18.2)"/>
    </g>
    <ellipse class="cls-7" cx="121.34" cy="369.86" rx="51.24" ry="47.51" transform="translate(-109.44 56.39) rotate(-18.2)"/>
    <path class="cls-6" d="M81.26,381.62a22.72,22.72,0,0,1,36.26-24.45,22.72,22.72,0,1,1,40.63,18.39,15.33,15.33,0,0,1,2.74,4.89c3.92,11.93-7.77,26.49-26.1,32.51s-36.38,1.24-40.3-10.68a15.57,15.57,0,0,1-.62-6.9A22.66,22.66,0,0,1,81.26,381.62Z"/>
    <g>
      <circle class="cls-9" cx="145.73" cy="377.85" r="10.16" transform="translate(-110.71 64.41) rotate(-18.2)"/>
      <circle class="cls-10" cx="145.73" cy="377.85" r="6.84" transform="translate(-110.71 64.41) rotate(-18.2)"/>
      <circle class="cls-9" cx="141.98" cy="375.16" r="2.49" transform="translate(-110.06 63.1) rotate(-18.2)"/>
    </g>
    <g>
      <circle class="cls-9" cx="105.74" cy="390.99" r="10.16" transform="translate(-116.81 52.57) rotate(-18.2)"/>
      <circle class="cls-10" cx="105.74" cy="390.99" r="6.84" transform="translate(-116.81 52.57) rotate(-18.2)"/>
      <circle class="cls-9" cx="101.98" cy="388.31" r="2.49" transform="translate(-116.16 51.27) rotate(-18.2)"/>
    </g>
    <path class="cls-11" d="M129.53,394a.53.53,0,0,1-.68-.62c.29-1.27,1-3.45,2.43-3.65,2.05-.28,3.62,2.12,2.62,2.65C133.19,392.73,130.82,393.55,129.53,394Z"/>
    <path class="cls-11" d="M126.77,394.89a.53.53,0,0,0,.18-.91c-1-.85-2.84-2.19-4.12-1.5-1.82,1-1.66,3.86-.54,3.69C123.08,396,125.48,395.3,126.77,394.89Z"/>
    <circle class="cls-12" cx="126.01" cy="405.05" r="3.71" transform="translate(-120.19 59.61) rotate(-18.2)"/>
  </g>
  <g>
    <path class="cls-2" d="M872.14,478.68a4,4,0,0,0-4.95-6.13c-1.24.84-29.53,19.41-66.9,1.67A63,63,0,0,1,788.76,467c-13.44-10.39-47.42-33.26-72.72-21.15-18.73,9-24.27,27.16-21.49,40.27,2.67,12.6,12.05,20.65,24.48,21,9.46.27,17.67-4.34,22-12.32,4-7.49,3.81-16.34-.55-22.54-2.51-3.58-8.64-9.3-21.39-7.41a4,4,0,0,0,1.16,7.81c6.43-1,11.19.47,13.76,4.13s2.64,9.45.05,14.26c-2.89,5.37-8.28,8.35-14.78,8.16-8.72-.25-15.07-5.76-17-14.75-2.16-10.18,2.29-24.37,17.18-31.5,21.93-10.5,54.89,12.86,64.47,20.27a70.89,70.89,0,0,0,13,8.14c41.63,19.77,73.41-1.37,74.74-2.28A4,4,0,0,0,872.14,478.68Z"/>
    <g>
      <path class="cls-3" d="M773.84,421.55c-3.13,2-5.67-.9-5.25-4,.36-2.62,2.6-5,4.51-6.63A14.61,14.61,0,0,1,784,407.31a14.84,14.84,0,0,1,12.88,13.55,23.26,23.26,0,0,1-.82,6.63,14.5,14.5,0,0,1-2.14,5.26,5.83,5.83,0,0,1-4.84,2.57,3.71,3.71,0,0,1-3.52-3.72c-.5,1.94-3.34,2.51-4.91,1.26a5.16,5.16,0,0,1-1.29-5.51,4.06,4.06,0,0,1-5.5-5.8Z"/>
      <path class="cls-4" d="M856.69,385.93c-.31.56-9.39,0-10.23,0a118.27,118.27,0,0,0-23.94,3.48,84.1,84.1,0,0,0-18.86,7.18,63.34,63.34,0,0,0-9,5.78c-1.27,1-2.45,2.48-3.77,3.32-1.92,1.22-4.75,1.37-6.9,2-2.42.68-4.88,1.78-6.31,3.86a25.12,25.12,0,0,1,5.58-1.09,19.24,19.24,0,0,0-1.81,4.92,10.15,10.15,0,0,1,5-1.35,27.36,27.36,0,0,0,.18,7.59l3.94-4.67.82,8.55A24.46,24.46,0,0,0,794,419.2l2.72,6.36L798.1,418c.48-2.64,1.09-3.84,3.25-5.27,1.6-1.06,3.17-2.17,4.8-3.19a80.38,80.38,0,0,1,12.21-6.28c9.32-3.77,20-5.57,29.59-1.8Z"/>
    </g>
    <g>
      <path class="cls-3" d="M978.69,433.14c2.79,2.42,5.74,0,5.8-3.11,0-2.65-1.81-5.31-3.44-7.24a14.61,14.61,0,0,0-10.2-5.26A14.84,14.84,0,0,0,956,428.95a23.26,23.26,0,0,0-.2,6.68,14.5,14.5,0,0,0,1.31,5.53,5.83,5.83,0,0,0,4.39,3.28,3.71,3.71,0,0,0,4.05-3.14c.2,2,2.92,3,4.66,2a5.16,5.16,0,0,0,2.12-5.25,4.06,4.06,0,0,0,6.32-4.89Z"/>
      <path class="cls-4" d="M902.24,385.3c.22.6,9.29,1.4,10.11,1.56A118.27,118.27,0,0,1,935.48,394a84.1,84.1,0,0,1,17.54,10,63.34,63.34,0,0,1,8,7.08c1.1,1.17,2,2.83,3.22,3.85,1.71,1.5,4.48,2.08,6.52,3,2.29,1,4.55,2.51,5.65,4.77a25.12,25.12,0,0,0-5.35-1.93,19.24,19.24,0,0,1,1,5.14,10.15,10.15,0,0,0-4.75-2.1,27.36,27.36,0,0,1-1.33,7.47L962.81,426l-2.12,8.32a24.46,24.46,0,0,1-1.58-6.58l-3.66,5.87-.2-7.67c-.07-2.68-.49-4-2.41-5.7-1.42-1.29-2.8-2.63-4.26-3.88a80.38,80.38,0,0,0-11.11-8.07c-8.64-5.15-18.89-8.55-29-6.29Z"/>
    </g>
    <g>
      <path class="cls-3" d="M813.26,538.67s19.3,4.51,18.62,15.13-16.42,8-24.27,8.11-23.17.63-23.22-4.08,7-4,7-4-6.69-.72-6.34-5,5.89-2.62,5.89-2.62-4-.54-4-4.07,5.09-1.62,5.09-1.62-5.12-1.25-4-4.28C789.84,531.55,813.26,538.67,813.26,538.67Z"/>
      <path class="cls-2" d="M857.21,465.94c-.2-.19-3.53,2.25-3.75,2.41a83.81,83.81,0,0,0-9.39,7.7,102.17,102.17,0,0,0-23.42,33.59,110.72,110.72,0,0,0-4.82,13.42c-1.18,4.08-1,10.79-5.82,12.21-2,.59-4.19.64-5.91,1.78,2.25.36,2.7.86,4.7,1.94-2.38.8-3.73,2.32-5.83,4.63,2.31-.2,4.29,1.24,6.41.6-.7,2.75-1.86,4.92-2,7.75a24,24,0,0,1,5-3.53,48,48,0,0,0-.17,7.28,24.16,24.16,0,0,0,7.93-6.85,59.16,59.16,0,0,1,6.66,6.1,45.87,45.87,0,0,0,.55-6.27,7.06,7.06,0,0,1,4.37,2.74c-1.18-1.61-1.77-4.45-2.37-6.35a29.9,29.9,0,0,1-1.41-6.81c-.25-3.52.7-7,1.49-10.42a90,90,0,0,1,6.66-19A72.19,72.19,0,0,1,867.8,476Z"/>
    </g>
    <g>
      <path class="cls-3" d="M949,538.93s-19.65,2.56-20,13.19,15.53,9.63,23.34,10.5,23,3,23.51-1.73-6.59-4.69-6.59-4.69,6.72,0,6.81-4.38-5.6-3.2-5.6-3.2,4-.14,4.39-3.65-4.9-2.13-4.9-2.13,5.21-.73,4.38-3.86C973,534.18,949,538.93,949,538.93Z"/>
      <path class="cls-2" d="M912.56,462.16c.22-.17,3.29,2.59,3.49,2.77a83.81,83.81,0,0,1,8.57,8.61,102.17,102.17,0,0,1,19.94,35.77A110.72,110.72,0,0,1,948,523.14c.77,4.18-.07,10.84,4.57,12.73,1.92.78,4.1,1.05,5.7,2.37-2.27.13-2.77.58-4.87,1.46,2.29,1,3.48,2.68,5.33,5.19-2.28-.43-4.4.81-6.44,0,.43,2.8,1.36,5.08,1.17,7.91a24,24,0,0,0-4.58-4,48,48,0,0,1-.56,7.26,24.16,24.16,0,0,1-7.2-7.61,59.16,59.16,0,0,0-7.24,5.4,45.87,45.87,0,0,1,.08-6.29,7.06,7.06,0,0,0-4.62,2.29c1.34-1.49,2.21-4.25,3-6.08a29.9,29.9,0,0,0,2.09-6.63c.61-3.48,0-7-.44-10.52A90,90,0,0,0,929.31,507,72.19,72.19,0,0,0,901,471.09Z"/>
    </g>
    <ellipse class="cls-7" cx="878.37" cy="424.19" rx="48.78" ry="55.58" transform="translate(-18.42 40.47) rotate(-2.61)"/>
    <ellipse class="cls-8" cx="878.7" cy="431.28" rx="34.25" ry="39.02" transform="translate(-18.74 40.49) rotate(-2.61)"/>
    <g>
      <circle class="cls-5" cx="933.48" cy="347.91" r="12.73" transform="translate(-14.88 42.9) rotate(-2.61)"/>
      <circle class="cls-6" cx="929.43" cy="347.02" r="8.19" transform="translate(-14.85 42.71) rotate(-2.61)"/>
    </g>
    <g>
      <circle class="cls-5" cx="806.31" cy="347.91" r="12.73"/>
      <circle class="cls-6" cx="810.31" cy="346.84" r="8.19"/>
    </g>
    <ellipse class="cls-7" cx="869.57" cy="332.68" rx="59.91" ry="55.54" transform="translate(-14.26 39.97) rotate(-2.61)"/>
    <path class="cls-6" d="M918.25,328.87a26.56,26.56,0,0,0-49.78-11.66,26.56,26.56,0,1,0-36.77,37,17.92,17.92,0,0,0-1,6.48c.67,14.66,19.49,25.72,42,24.69s40.28-13.75,39.61-28.42a18.2,18.2,0,0,0-2.19-7.8A26.49,26.49,0,0,0,918.25,328.87Z"/>
    <g>
      <circle class="cls-9" cx="846.23" cy="351.53" r="11.87" transform="translate(-15.14 38.93) rotate(-2.61)"/>
      <circle class="cls-10" cx="846.23" cy="351.53" r="7.99" transform="translate(-15.14 38.93) rotate(-2.61)"/>
      <circle class="cls-9" cx="849.22" cy="347.04" r="2.91" transform="translate(-14.93 39.06) rotate(-2.61)"/>
    </g>
    <g>
      <circle class="cls-9" cx="895.4" cy="349.29" r="11.87" transform="translate(-14.99 41.17) rotate(-2.61)"/>
      <circle class="cls-10" cx="895.4" cy="349.29" r="7.99" transform="translate(-14.99 41.17) rotate(-2.61)"/>
      <circle class="cls-9" cx="898.38" cy="344.79" r="2.91" transform="translate(-14.78 41.3) rotate(-2.61)"/>
    </g>
    <path class="cls-11" d="M870.63,362.44a.62.62,0,0,0,.48-1c-.84-1.27-2.51-3.36-4.17-3-2.36.54-3.08,3.82-1.77,4C866.12,362.58,869,362.49,870.63,362.44Z"/>
    <path class="cls-11" d="M874,362.28a.62.62,0,0,1-.57-.92c.72-1.34,2.19-3.58,3.88-3.35,2.4.32,3.41,3.53,2.12,3.8C878.54,362,875.61,362.2,874,362.28Z"/>
    <circle class="cls-12" cx="879.08" cy="373.07" r="4.34" transform="translate(-16.09 40.45) rotate(-2.61)"/>
  </g>
  <g>
    <path class="cls-13" d="M991.56,316.37c-.37-.56-1.93-1.22-3.76-1.61-3.35-.7-8.21-1.6-8.23-.94,0,1,18.95,24.88-7.53,36.93.06-2,0-4.48-.16-7.37-.62-9.56-.21-14.21-5-17.75a7.33,7.33,0,0,0-3-.94l-5.22-.55c-1.36-.14-2,.14-1.43.61a11.19,11.19,0,0,1,4,6.21c1,4.33-1.19,17.86,2.39,25.12-3.85,4.84-4.19,10.56-4.11,16.27.08,6.07,4.16,13.29,1.09,18.67-1.12,2-3.4,3.63-4.28,5.65-1.85,4.21,4,9.26,6.42,14.15,1.71,3.48-1.42,6.67-1.85,9.8q-1.28,9.35-2.8,18.65c-.13.79,2.27,1.95,5.29,2.56l8.46,1.72c2.83.57,5.19.46,5.37-.27.56-2.31,1.3-8.74.38-26.38-2-38.4-18.76-46.9,5.8-63.29C1004.93,339.22,994.45,320.69,991.56,316.37Z"/>
    <g class="cls-14">
      <g>
        <path class="cls-15" d="M964.3,392.13a13.64,13.64,0,0,1,3.82,3.78c3,5.12-4.88,8.3,0,13.67"/>
        <path class="cls-15" d="M962.65,395.63l-2.13,6.31c-1.2-1.35-2.41-2.71-2.42-3.86s1.36-2.08,4.56-2.2"/>
        <path class="cls-15" d="M971.42,414.21c1.16,4.8-2.85,8.53-5.53,12.51s-4,8.51,2.34,14"/>
        <path class="cls-15" d="M987.29,316c6.36,8.86,5.14,16.49,3.88,24-.45,2.66-.9,5.33-2.8,7.66-3.4,4.15-11.39,7.12-13.52,11.58-1.28,2.68-.41,5.82-.56,8.74-.28,5.5-4.19,10.22-4.93,15.62-.55,4,.61,8.26,1.77,12.56l4.62,17.14"/>
        <path class="cls-15" d="M962.66,324.86c7.65,8,1.26,13.76,3.84,21,.83,2.32,2.57,4.8,3,7.06.53,2.57-.59,4.8-1.52,7.06a43.36,43.36,0,0,0-3.22,16.73c0,6.81,1.22,14.26-11.33,17.64"/>
        <path class="cls-15" d="M960.1,336.3c-.75,4.61.25,9.59,3,14.84a23.81,23.81,0,0,1,2.33,5.09c.56,2.47-.53,4.61-1.62,6.74l-6.9,13.49"/>
        <path class="cls-15" d="M978.65,413.32c-2.52,7.4-5,14.82-4.6,22.85.19,3.48.94,7.08-.27,10.27"/>
      </g>
    </g>
  </g>
  <g>
    <path class="cls-2" d="M486.66,444.38a5,5,0,0,1,5.27-8.52c1.7.86,40.37,19.81,84.72-8.54a80.22,80.22,0,0,0,13.41-11c15.31-15.26,54.57-49.54,88.44-38.27,25.07,8.34,35,30.43,33.54,47.42-1.37,16.33-11.93,28-27.56,30.41-11.9,1.85-23-2.66-29.69-12.06-6.28-8.82-7.42-20-2.9-28.54,2.61-4.92,9.42-13.12,25.82-12.75a5,5,0,0,1-.22,10c-8.27-.18-14,2.38-16.71,7.41S659,432.34,663,438c4.5,6.32,11.78,9.22,20,8,11-1.7,18.11-9.67,19.08-21.31,1.11-13.19-6.77-30.41-26.7-37-29.36-9.77-67.25,25-78.17,35.85a90.2,90.2,0,0,1-15.1,12.34c-49.42,31.58-92.89,10-94.72,9A5,5,0,0,1,486.66,444.38Z"/>
    <g>
      <path class="cls-3" d="M332.62,394.82c-3.52,3.11-7.3,0-7.41-3.89-.09-3.37,2.24-6.78,4.29-9.26a18.59,18.59,0,0,1,12.92-6.82,18.88,18.88,0,0,1,19,14.36,29.6,29.6,0,0,1,.33,8.49,18.44,18.44,0,0,1-1.6,7,7.42,7.42,0,0,1-5.55,4.22c-2.41.24-5-1.52-5.19-3.94-.23,2.54-3.68,3.84-5.9,2.59s-3.11-4.13-2.76-6.65a5.16,5.16,0,0,1-8.09-6.15Z"/>
      <path class="cls-4" d="M429.31,333c-.28.76-11.8,1.89-12.84,2.11a150.48,150.48,0,0,0-29.35,9.31,107,107,0,0,0-22.2,12.9,80.59,80.59,0,0,0-10,9.1c-1.39,1.5-2.57,3.62-4.05,4.94-2.15,1.92-5.68,2.7-8.26,3.9-2.9,1.35-5.76,3.25-7.13,6.14a32,32,0,0,1,6.78-2.52,24.48,24.48,0,0,0-1.26,6.55,12.92,12.92,0,0,1,6-2.73,34.82,34.82,0,0,0,1.78,9.49l4-6.68,2.8,10.57a31.13,31.13,0,0,0,1.93-8.4l4.73,7.42.17-9.76c.06-3.41.58-5.05,3-7.29,1.79-1.66,3.53-3.38,5.37-5a102.27,102.27,0,0,1,14-10.4c10.93-6.65,23.93-11.1,36.79-8.35Z"/>
    </g>
    <g>
      <path class="cls-3" d="M611.24,338.4c4.66.65,6.11-4,4-7.34-1.78-2.86-5.61-4.41-8.69-5.35A18.59,18.59,0,0,0,592,327.16a18.88,18.88,0,0,0-7.89,22.45,29.6,29.6,0,0,0,4.41,7.26,18.44,18.44,0,0,0,5.22,5,7.42,7.42,0,0,0,7,.46c2.15-1.13,3.35-4,2.15-6.16,1.6,2,5.19,1.17,6.35-1.1s.31-5.15-1.37-7.07a5.16,5.16,0,0,0,3.35-9.6Z"/>
      <path class="cls-4" d="M496.5,340.26c.65.48,10.89-4.94,11.87-5.33A150.48,150.48,0,0,1,538,326.49a107,107,0,0,1,25.63-1.5,80.59,80.59,0,0,1,13.4,2c2,.48,4.14,1.6,6.11,1.88,2.86.42,6.23-.89,9-1.31,3.17-.47,6.6-.48,9.34,1.18a32,32,0,0,0-7,1.64,24.48,24.48,0,0,1,4.66,4.77,12.92,12.92,0,0,0-6.52,1,34.82,34.82,0,0,1,3.75,8.9l-7-3.37,3.5,10.35a31.13,31.13,0,0,1-6.24-5.94l.16,8.8-5.52-8c-1.93-2.81-3.27-3.89-6.52-4.42-2.41-.4-4.81-.87-7.24-1.2A102.27,102.27,0,0,0,550,340.4c-12.79.48-26.08,4-35.29,13.35Z"/>
    </g>
    <g>
      <circle class="cls-5" cx="386.92" cy="294.02" r="16.2" transform="translate(79.13 670.07) rotate(-87.93)"/>
      <circle class="cls-6" cx="392.06" cy="292.84" r="10.41" transform="translate(85.27 674.07) rotate(-87.93)"/>
    </g>
    <g>
      <path class="cls-3" d="M395.44,536.75s25.2.89,27,14.31-18.52,14.06-28.31,16.09-28.77,6.48-30,.61S371.9,561,371.9,561s-8.52.75-9.15-4.74,6.71-4.72,6.71-4.72-5.08.3-6-4.1,6-3.28,6-3.28-6.69-.3-6-4.37C364.45,533.61,395.44,536.75,395.44,536.75Z"/>
      <path class="cls-2" d="M432.45,435.15c-.3-.19-3.85,3.68-4.1,3.93A106.64,106.64,0,0,0,418.53,451a130,130,0,0,0-21,47.69,140.87,140.87,0,0,0-2.73,17.94c-.47,5.39,1.38,13.73-4.27,16.68-2.33,1.22-5.07,1.83-6.94,3.68,2.89-.11,3.58.41,6.34,1.27-2.77,1.58-4.09,3.81-6.14,7.21,2.84-.81,5.67.5,8.15-.82-.2,3.6-1.11,6.6-.54,10.16a30.48,30.48,0,0,1,5.32-5.63,61,61,0,0,0,1.58,9.13,30.74,30.74,0,0,0,8.22-10.49,75.27,75.27,0,0,1,9.82,6,58.37,58.37,0,0,0-.86-8,9,9,0,0,1,6.13,2.35c-1.87-1.73-3.3-5.12-4.52-7.35a38,38,0,0,1-3.44-8.15c-1.18-4.33-.85-8.93-.7-13.38a114.46,114.46,0,0,1,3.64-25.41,91.86,91.86,0,0,1,31.55-48.82Z"/>
    </g>
    <g>
      <path class="cls-3" d="M539.62,533.79s-25.21-.57-27.75,12.72,17.67,15.11,27.33,17.71,28.35,8.15,29.91,2.35-7.39-7.16-7.39-7.16,8.47,1.24,9.41-4.2-6.43-5.11-6.43-5.11,5.05.59,6.22-3.75-5.76-3.62-5.76-3.62,6.7.09,6.26-4C570.74,532.45,539.62,533.79,539.62,533.79Z"/>
      <path class="cls-2" d="M508.58,430.2c.31-.17,3.63,3.9,3.86,4.16a106.64,106.64,0,0,1,9.12,12.48,130,130,0,0,1,18.18,48.83,140.87,140.87,0,0,1,1.68,18.07c.16,5.41-2.18,13.62,3.29,16.9,2.26,1.35,5,2.12,6.72,4.08-2.88-.28-3.6.2-6.4.9,2.68,1.74,3.86,4,5.71,7.56-2.78-1-5.69.17-8.09-1.29,0,3.61.72,6.65,0,10.18a30.48,30.48,0,0,0-5-5.93,61,61,0,0,1-2.11,9,30.74,30.74,0,0,1-7.59-11,75.27,75.27,0,0,0-10.15,5.4,58.37,58.37,0,0,1,1.32-7.9,9,9,0,0,0-6.26,2c2-1.61,3.6-4.92,4.94-7.07a38,38,0,0,0,3.9-7.94c1.43-4.25,1.37-8.86,1.48-13.31A114.46,114.46,0,0,0,521,489.79a91.86,91.86,0,0,0-28.65-50.57Z"/>
    </g>
    <ellipse class="cls-7" cx="467.83" cy="382.49" rx="70.72" ry="62.07" transform="translate(68.7 836.22) rotate(-87.93)"/>
    <ellipse class="cls-8" cx="467.51" cy="391.52" rx="49.65" ry="43.58" transform="translate(59.37 844.59) rotate(-87.93)"/>
    <g>
      <circle class="cls-5" cx="545.64" cy="291.49" r="16.2" transform="translate(234.65 826.25) rotate(-87.93)"/>
      <circle class="cls-6" cx="540.59" cy="289.94" r="10.41" transform="translate(231.34 819.71) rotate(-87.93)"/>
    </g>
    <ellipse class="cls-7" cx="466.17" cy="265.53" rx="70.67" ry="76.23" transform="matrix(0.04, -1, 1, 0.04, 183.99, 721.81)"/>
    <path class="cls-6" d="M528.29,265.76a33.8,33.8,0,0,0-61.92-20,33.79,33.79,0,1,0-50.47,43.07A22.8,22.8,0,0,0,414,297c-.67,18.67,22,34.64,50.74,35.68s52.51-13.26,53.18-31.92a23.16,23.16,0,0,0-2-10.12A33.71,33.71,0,0,0,528.29,265.76Z"/>
    <g>
      <circle class="cls-9" cx="434.61" cy="287.02" r="15.11" transform="translate(132.1 710.99) rotate(-87.93)"/>
      <circle class="cls-10" cx="434.61" cy="287.02" r="10.17" transform="translate(132.1 710.99) rotate(-87.93)"/>
      <circle class="cls-9" cx="438.87" cy="281.63" r="3.7" transform="translate(141.59 710.04) rotate(-87.93)"/>
    </g>
    <g>
      <circle class="cls-9" cx="497.2" cy="289.28" r="15.11" transform="matrix(0.04, -1, 1, 0.04, 190.17, 775.71)"/>
      <circle class="cls-10" cx="497.2" cy="289.28" r="10.17" transform="translate(190.17 775.71) rotate(-87.93)"/>
      <circle class="cls-9" cx="501.45" cy="283.89" r="3.7" transform="translate(199.65 774.76) rotate(-87.93)"/>
    </g>
    <path class="cls-11" d="M464.43,303.38a.78.78,0,0,0,.71-1.17c-.93-1.7-2.83-4.52-5-4.21-3,.44-4.3,4.53-2.66,4.86C458.69,303.1,462.41,303.29,464.43,303.38Z"/>
    <path class="cls-11" d="M468.75,303.53a.78.78,0,0,1-.63-1.22c1.05-1.63,3.15-4.31,5.27-3.84,3,.66,4,4.83,2.3,5C474.49,303.67,470.77,303.59,468.75,303.53Z"/>
    <circle class="cls-12" cx="474.03" cy="317.73" r="5.52" transform="translate(139.4 779.99) rotate(-87.93)"/>
  </g>
  <g>
    <path class="cls-13" d="M332.72,146a2.75,2.75,0,0,1,2.39-2.47c2.11-.08,5.16.14,5.15,2.07,0,2.86-12.54,61.09,3.58,111.47,0-5.91.12-13,.32-21.28.67-27.35.55-41.08,3.66-48.53a1.46,1.46,0,0,1,1.92-.95l3.26,1.45a2.08,2.08,0,0,1,.87,2.61c-.87,2.29-2.16,7-2.7,15.65-.75,12,.2,52.46-2.24,71.43,2.26,16.28,2.29,33.07,2.07,49.57-.23,17.55-3,36.11-1.24,53.5.64,6.33,2,12.52,2.5,18.87,1,13.27-2.78,24.51-4.42,37.28-1.17,9.1.68,20.16.86,29.5q.52,27.85,1.19,55.7c.06,2.36-1.47,4.32-3.37,4.34l-5.32,0c-1.78,0-3.25-1.7-3.34-3.91-.28-7-.55-26.1.55-76.72,2.38-110.17,13.08-125-1.72-186.87C323.71,204.42,330.79,156.79,332.72,146Z"/>
    <g class="cls-16">
      <g>
        <path class="cls-17" d="M347.43,381.52a36.41,36.41,0,0,0-2.49,8.73c-2,13.09,2.79,26.92-.38,39.67"/>
        <path class="cls-17" d="M348.35,392.63l1.14,19.55a43.24,43.24,0,0,0,1.62-9.79c0-3.34-.78-6.83-2.78-9"/>
        <path class="cls-17" d="M342.34,441.39c-.86,13.25,1.52,26.39,3.07,39.5s2.21,27-1.88,39.29"/>
        <path class="cls-17" d="M335.39,147.46c-4.23,22-3.69,44.81-3.13,67.33a205.78,205.78,0,0,0,1.51,23.83c2,14,6.88,27.28,8.07,41.46.72,8.5.08,17.1.09,25.66,0,16.11,2.3,32.07,2.61,48.16.22,11.8-.63,23.6-1.48,35.37l-3.39,47"/>
        <path class="cls-17" d="M350.47,187.43c-5,18.75-1.19,39.17-3,58.76-.58,6.25-1.74,12.43-2.1,18.7-.41,7.13.23,14.26.73,21.37,1.2,16.74,1.7,33.57,1.51,50.39-.22,19.71-1.19,40.63,6.53,57.74"/>
        <path class="cls-17" d="M351.72,222.11a261.24,261.24,0,0,1-2.3,41.28c-.6,4.45-1.33,8.89-1.6,13.39a135.69,135.69,0,0,0,.81,20.48l3.89,43.14"/>
        <path class="cls-17" d="M337.86,434.59c1.35,22.94,2.69,45.92,2.18,68.93-.22,10-.79,20-.14,29.93"/>
      </g>
    </g>
  </g>
  <g>
    <path class="cls-13" d="M633.13,546.72a2.75,2.75,0,0,1-2.17,2.67c-2.09.26-5.15.3-5.31-1.62-.24-2.85,7.24-61.94-13.17-110.74.48,5.89,1,13,1.51,21.23,1.68,27.3,3,41,.53,48.67A1.46,1.46,0,0,1,612.7,508l-3.38-1.16a2.08,2.08,0,0,1-1.09-2.53c.67-2.36,1.55-7.16,1.34-15.82-.28-12-4.72-52.25-3.92-71.36-3.65-16-5.13-32.75-6.33-49.21-1.28-17.51-.13-36.23-3.37-53.41-1.18-6.25-3.08-12.3-4.11-18.59-2.16-13.13.66-24.66,1.19-37.53.38-9.17-2.42-20-3.4-29.31q-2.91-27.7-6-55.39c-.26-2.35,1.09-4.44,3-4.61l5.29-.5c1.77-.17,3.38,1.42,3.66,3.61.88,7,2.79,26,6.06,76.48,7.11,110-2.27,125.69,17.8,186C637.07,487.7,634.12,535.76,633.13,546.72Z"/>
    <g class="cls-18">
      <g>
        <path class="cls-17" d="M598.19,313.29a36.41,36.41,0,0,0,1.73-8.91c.9-13.21-5.1-26.58-3-39.56"/>
        <path class="cls-17" d="M596.32,302.31l-2.81-19.38a43.24,43.24,0,0,0-.77,9.89c.25,3.33,1.37,6.74,3.54,8.76"/>
        <path class="cls-17" d="M598.11,253.2c-.28-13.27-3.78-26.16-6.46-39.09s-4.52-26.68-1.51-39.31"/>
        <path class="cls-17" d="M630.35,545.44c2.32-22.25-.18-45-2.68-67.35a205.78,205.78,0,0,0-3.56-23.61c-3.2-13.8-9.2-26.59-11.61-40.61-1.44-8.41-1.55-17-2.29-25.56-1.4-16-5.06-31.75-6.74-47.76-1.24-11.74-1.41-23.57-1.58-35.37l-.67-47.13"/>
        <path class="cls-17" d="M611.88,506.92c3.37-19.11-2.18-39.13-2-58.8,0-6.28.67-12.53.49-18.81-.21-7.14-1.45-14.19-2.57-21.22q-3.95-24.86-5.84-50.08c-1.47-19.66-2.32-40.58-11.47-57"/>
        <path class="cls-17" d="M607.65,472.48a261.24,261.24,0,0,1-1.27-41.33c.22-4.49.56-9,.44-13.48a135.69,135.69,0,0,0-2.57-20.34l-7.59-42.64"/>
        <path class="cls-17" d="M603.16,259.6c-3.32-22.74-6.64-45.52-8.11-68.49-.64-10-.93-20-2.44-29.83"/>
      </g>
    </g>
  </g>
</svg>
