<svg xmlns="http://www.w3.org/2000/svg" viewBox="0 0 260 168"><defs><style>.cls-1{fill:#d8b555;}.cls-2{fill:#f4a947;}</style></defs><g id="Layer_1" data-name="Layer 1"><ellipse class="cls-1" cx="116.22" cy="133.65" rx="1.12" ry="0.33"/><ellipse class="cls-1" cx="110.46" cy="134.35" rx="1.12" ry="0.33"/><ellipse class="cls-1" cx="114.95" cy="134.93" rx="1.12" ry="0.33"/><ellipse class="cls-1" cx="122.64" cy="134.37" rx="1.12" ry="0.33"/><ellipse class="cls-1" cx="119.81" cy="133.3" rx="1.12" ry="0.33"/><ellipse class="cls-1" cx="119.03" cy="134.56" rx="1.12" ry="0.33"/><ellipse class="cls-1" cx="112.79" cy="133.01" rx="1.12" ry="0.33"/><ellipse class="cls-1" cx="106.23" cy="135.13" rx="1.12" ry="0.33"/><ellipse class="cls-1" cx="128.09" cy="137.71" rx="1.12" ry="0.33"/><ellipse class="cls-1" cx="122.82" cy="137.27" rx="1.12" ry="0.33"/><path class="cls-2" d="M133.17,138.25a7.49,7.49,0,0,0-6.25-4.88c-.61-.05-2-.2-1.18.56a10.4,10.4,0,0,0,2.46,1.12,26.88,26.88,0,0,1,2.54,1.5C131.23,136.88,133,137.71,133.17,138.25Z"/><path class="cls-2" d="M100.64,134.87a7,7,0,0,1,3.87-3,8.94,8.94,0,0,1,4.89-.19,15.2,15.2,0,0,1-3.77,1.43c-.84.25-1.68.53-2.51.82C102.65,134.12,100.88,134.47,100.64,134.87Z"/><path class="cls-2" d="M92.16,134A7,7,0,0,1,96.65,132a8.82,8.82,0,0,1,4.78,1,15.42,15.42,0,0,1-4,.44c-.88,0-1.76.09-2.64.17C94.3,133.72,92.49,133.62,92.16,134Z"/><path class="cls-2" d="M115.68,139.09a21.92,21.92,0,0,0-2.75.33,19.49,19.49,0,0,1-2.86-.09,17.15,17.15,0,0,1-5.49-1.44c-.87-.42-2.44-1.69-.53-1.22,1.57.39,3.1.94,4.69,1.3A52.25,52.25,0,0,0,115.68,139.09Z"/></g></svg>