<svg id="Layer_5" data-name="Layer 5" xmlns="http://www.w3.org/2000/svg" xmlns:xlink="http://www.w3.org/1999/xlink" viewBox="0 0 260 168"><defs><style>.cls-1{fill:#d8d8d8;}.cls-2{fill:#cbcccd;}.cls-3{fill:#5c1c09;}.cls-4{fill:#591f12;}.cls-5{fill:#0466af;}.cls-6{fill:#0083c4;}.cls-7{fill:#813a24;}.cls-8{fill:#cccdce;}.cls-9{clip-path:url(#clip-path);}.cls-10,.cls-11,.cls-15{fill:none;}.cls-10{stroke:red;stroke-width:0.91px;}.cls-10,.cls-11{stroke-miterlimit:10;}.cls-11{stroke:#1d94dc;stroke-width:0.7px;}.cls-12{fill:#1d94dc;}.cls-13{fill:#190000;}.cls-14{fill:#fff;}.cls-15{stroke:#461c11;stroke-linecap:round;stroke-linejoin:round;stroke-width:1.24px;}.cls-16{clip-path:url(#clip-path-2);}.cls-17{fill:#eaeaea;}.cls-18{clip-path:url(#clip-path-3);}.cls-19{fill:#ff4a4a;}</style><clipPath id="clip-path"><path class="cls-1" d="M96.14,74.22s-4.58.91-6.35,5-3.71,28.53-4.3,30.66,24.22,2.76,27.32,1.24c0,0-1.59-22.45-6.47-30.83l-3.1-4.42S104.57,80.47,96.14,74.22Z"/></clipPath><clipPath id="clip-path-2"><path class="cls-2" d="M107.94,24.86s15.14,1.8,18.1,12.52a22.72,22.72,0,0,1-1,9.74,90.53,90.53,0,0,0-19.61-4.39,120.36,120.36,0,0,0-19.61-.5S82.09,23.66,107.94,24.86Z"/></clipPath><clipPath id="clip-path-3"><path class="cls-3" d="M118.17,68.09s-.44,5.16-4.66,4.19-2.37-5.42-2.37-5.42c3.5,3.55,6.78,1.46,6.78,1.46A.92.92,0,0,0,118.17,68.09Z"/></clipPath></defs><rect class="cls-4" x="82.87" y="133.1" width="6.72" height="8.51" transform="translate(89.11 299.51) rotate(-148.9)"/><rect class="cls-4" x="108.95" y="135.78" width="6.72" height="8.51" transform="translate(282.83 196.13) rotate(146.94)"/><rect class="cls-5" x="98.36" y="111.03" width="14.9" height="30.89" rx="1.75" transform="translate(262.53 177.74) rotate(148.03)"/><path d="M111.06,144.83s1.11-1,2.15-1.82c0,0-.66-3,1.66-4.36s3.69-1.27,5.06.16c0,0,3.57-1.7,5.32.56s-1.08,4.71-3.86,6.42-8,3-8.64,2.47S110.7,145.62,111.06,144.83Z"/><path class="cls-6" d="M82.55,135.62l9.65,6.08a1.75,1.75,0,0,0,2.41-.55L109.21,118a1.75,1.75,0,0,0-.55-2.41L99,109.48c-.82-.51-4.34-1.83-4.86-1L82,133.21A1.74,1.74,0,0,0,82.55,135.62Z"/><path d="M81.38,138.32s1.35.58,2.57,1.14c0,0,2.42-1.91,4.64-.41s2.76,2.77,2.07,4.63c0,0,3.09,2.47,1.81,5S87.76,149.79,85,148s-6.16-5.87-6-6.69S80.5,138.34,81.38,138.32Z"/><path class="cls-7" d="M86.42,109.67l-1.89,3.83c-.2.41-.49.89-1,.91-.69,0-1-.88-1-1.57a18.88,18.88,0,0,1,.21-2.61c-.62-.18-1.18.41-1.56.94L77.79,116a1.05,1.05,0,0,1-.84-.88,3.28,3.28,0,0,1,.11-1.28L78.19,109a18.71,18.71,0,0,1,.82-2.86,9.39,9.39,0,0,1,1.77-2.82A4.41,4.41,0,0,1,83,101.83a3.4,3.4,0,0,1,3.12,1.1C87.85,104.85,87.48,107.52,86.42,109.67Z"/><ellipse class="cls-7" cx="80" cy="112.24" rx="4.53" ry="1.52" transform="translate(-57.8 109.33) rotate(-53.31)"/><ellipse class="cls-7" cx="78.59" cy="111.19" rx="3.88" ry="1.3" transform="translate(-57.03 123.28) rotate(-59.84)"/><ellipse class="cls-7" cx="78.56" cy="110.01" rx="3.88" ry="1.3" transform="translate(-56.03 122.68) rotate(-59.84)"/><ellipse class="cls-7" cx="79.32" cy="107.43" rx="3.88" ry="1.3" transform="matrix(0.5, -0.86, 0.86, 0.5, -53.42, 122.05)"/><path class="cls-8" d="M103.38,76.6s2.34,3.05.21,8.06-10,18.6-12.56,21.46c0,0-2.66,3.28-10.37-2.53,0,0-1.44-1.44.28-3.4S91.78,85.41,95.14,81,101.93,74.57,103.38,76.6Z"/><polygon class="cls-7" points="96.24 79.74 103.21 79.74 103.21 70.89 96.24 69.69 96.24 79.74"/><path class="cls-1" d="M112.26,108.13s5.11,19.92,4.49,22.59-5.21,7.74-12.62,5.27c0,0-8.69-16.8-8.89-20.3s-12.41,16.13-12.41,16.13-.19,1.35-1.42-1.54,4.08-22.7,4.08-22.7S88.65,101.4,112.26,108.13Z"/><path class="cls-1" d="M96.14,74.22s-4.58.91-6.35,5-3.71,28.53-4.3,30.66,24.22,2.76,27.32,1.24c0,0-1.59-22.45-6.47-30.83l-3.1-4.42S104.57,80.47,96.14,74.22Z"/><g class="cls-9"><path class="cls-2" d="M92.08,71.75s3.43,7.41,10.3,7.82c0,0,4.66,4,6.17,21.56l3.57-.14-4-29.52Z"/><path class="cls-10" d="M90.57,75s7.41,3.57,8.92,7.55,2.89,20.18,4.12,22.65,10.85,1.24,10.85,1.24"/><path class="cls-11" d="M92.48,75c1.85-.16,3.09,1.85,4.79,2.58.57.24,1.25.37,1.59.89.23.35.24.8.45,1.15a3.76,3.76,0,0,0,1.12.93,3.25,3.25,0,0,1,1.13,3.54A2.29,2.29,0,0,1,103.29,86a6.62,6.62,0,0,1-.24,2.72,2.34,2.34,0,0,1,.57,4.26,3.91,3.91,0,0,1,.77,5,5.2,5.2,0,0,1,1.32,4.64,1.8,1.8,0,0,1,2.05,1.45,1.62,1.62,0,0,1,2.77.35,2.22,2.22,0,0,1,3.77,0"/><path class="cls-12" d="M89.53,76.92A9.62,9.62,0,0,1,94,80.38c1,1.51,1.26,3.23,2,4.85a7.19,7.19,0,0,1,.64,1.45,10.17,10.17,0,0,1,0,1.83,4.82,4.82,0,0,0,.66,2.19,5.74,5.74,0,0,1,.82,3,8,8,0,0,0,.33,2.89,13.62,13.62,0,0,1,.88,2.85c.12,1,.11,1.93.32,2.88a17.72,17.72,0,0,0,2.34,5.12c.81,1.32,1.48,2.12,3.07,2,.82-.06,1.3.37,2.08.48s1-.35,1.65-.6c.91-.38,1.8.3,2.74,0s1.24-1.28,2.29-1.35c1.37-.1,3,.52,3.59-1.25.22-.72-.91-1-1.13-.31-.27.89-1.85.39-2.46.38a2.42,2.42,0,0,0-1.62.52c-.41.33-.48.57-1,.73a2.18,2.18,0,0,1-1.29-.07,2.46,2.46,0,0,0-1.7.3,1.61,1.61,0,0,1-1.37.25c-.24-.07-.46-.24-.7-.31-.81-.24-1.55.26-2.33-.27a7.21,7.21,0,0,1-1.43-2.24,15.14,15.14,0,0,1-1.29-2.73c-.6-1.77-.35-3.66-1-5.42a9.65,9.65,0,0,1-.81-2.78,20.36,20.36,0,0,0,0-2.59,6.77,6.77,0,0,0-.83-2,6.37,6.37,0,0,1-.57-3.1,4.64,4.64,0,0,0-.5-1.85,21.28,21.28,0,0,1-1-2.8,10.82,10.82,0,0,0-6.49-6.74c-.71-.27-1,.87-.31,1.13Z"/></g><path class="cls-7" d="M115.4,105.21l2.87,3.16c.31.34.64.78.5,1.22-.22.66-1.17.57-1.82.32a18.91,18.91,0,0,1-2.35-1.15c-.39.51,0,1.25.31,1.79l3.2,5A1.08,1.08,0,0,1,117,116a3.26,3.26,0,0,1-1.15-.57l-4.12-2.83a19,19,0,0,1-2.36-1.82,9.52,9.52,0,0,1-2-2.68,4.32,4.32,0,0,1-.53-2.55,3.39,3.39,0,0,1,2.17-2.5C111.44,102.11,113.79,103.44,115.4,105.21Z"/><ellipse class="cls-7" cx="115.44" cy="112.12" rx="1.52" ry="4.53" transform="translate(-41.77 77.72) rotate(-31.82)"/><ellipse class="cls-7" cx="113.94" cy="113.06" rx="1.3" ry="3.88" transform="translate(-45.56 95.1) rotate(-38.35)"/><ellipse class="cls-7" cx="112.84" cy="112.65" rx="1.3" ry="3.88" transform="translate(-45.55 94.33) rotate(-38.35)"/><ellipse class="cls-7" cx="110.71" cy="111" rx="1.3" ry="3.88" transform="translate(-44.99 92.65) rotate(-38.35)"/><path class="cls-1" d="M90.84,77.31s3.69-1,7.57,2.76,13.67,16.08,15.37,19.55c0,0,2.08,3.68-6.15,8.72,0,0-1.86.82-3.06-1.5s-9.78-15.5-12.66-20.25S88.42,77.92,90.84,77.31Z"/><path class="cls-13" d="M125.09,49.69a5.59,5.59,0,0,1-1.75,2.62,2.13,2.13,0,0,0-.3.3,1.36,1.36,0,0,0-.14.77,2.19,2.19,0,0,1-.45,1.44,1.73,1.73,0,0,1-2.34-.06,3.73,3.73,0,0,1-1-2.33A8.12,8.12,0,0,1,120.16,47a3.36,3.36,0,0,1,2.71-1.78C124.84,45.3,125.56,48.13,125.09,49.69Z"/><ellipse class="cls-7" cx="105.71" cy="65.89" rx="9.18" ry="15.01" transform="matrix(0.19, -0.98, 0.98, 0.19, 20.83, 157.07)"/><path class="cls-7" d="M88.67,52.94c-1.13,10.86,4,20.16,13.9,21.19s17.05-7.19,18.82-18c3-18.26,10.5-16.21-14.7-21.35C96.94,32.82,89.81,42.08,88.67,52.94Z"/><ellipse class="cls-14" cx="114.38" cy="57.53" rx="5.75" ry="3.82" transform="translate(36.04 158.81) rotate(-78.98)"/><path d="M112.46,57.78a1.41,1.41,0,0,0,2.74-.13,1.4,1.4,0,0,0-.23-1.08,3.15,3.15,0,0,1,.43,0A2.93,2.93,0,1,1,112,58.94,2.83,2.83,0,0,1,112.46,57.78Z"/><path class="cls-15" d="M111.42,50.06s5.38-4.13,8.89,1.08"/><ellipse class="cls-7" cx="119.5" cy="62.72" rx="2.27" ry="2.68" transform="translate(35.1 168.02) rotate(-78.98)"/><path class="cls-13" d="M122.43,49a7.1,7.1,0,0,1-3.62-1.39A4.62,4.62,0,0,1,114,46.3a9.21,9.21,0,0,1-7.38-.25,3.05,3.05,0,0,1-1.22,2.65,3.5,3.5,0,0,1-3,.5,2,2,0,0,1,.17,2.19,2.18,2.18,0,0,1-2.07,1,2.39,2.39,0,0,1-.23,2.92,2.76,2.76,0,0,1-3,.55,3.23,3.23,0,0,1-4.76,1,6.75,6.75,0,0,1-3.19-.23,2.84,2.84,0,0,1-1.91-2.29A2.92,2.92,0,0,1,84.67,53a2.49,2.49,0,0,1,.19-2.8,2.3,2.3,0,0,1-1.15-2.36A4.79,4.79,0,0,1,85,45.44a3.85,3.85,0,0,1,2.24-3.86A12.67,12.67,0,0,1,92,40.44l8.93-.95c5.86-.61,12.12-1.17,17.46,1.36a32.39,32.39,0,0,1,3.89,2.31c1.12.75,2.83,2,2.87,3.43A2.71,2.71,0,0,1,122.43,49Z"/><path class="cls-2" d="M107.94,24.86s15.14,1.8,18.1,12.52a22.72,22.72,0,0,1-1,9.74,90.53,90.53,0,0,0-19.61-4.39,120.36,120.36,0,0,0-19.61-.5S82.09,23.66,107.94,24.86Z"/><g class="cls-16"><path class="cls-17" d="M128.12,45.15s-3.78-3.76-22.72-5.77-25,1.81-25,1.81l2.09,7.34L128.21,53Z"/></g><path class="cls-13" d="M98.58,60.12a8,8,0,0,1-5.25,1,6.87,6.87,0,0,1-2.83-.7A2.84,2.84,0,0,1,89,58.07a3.14,3.14,0,0,1-3-1.56A4.34,4.34,0,0,1,85.6,53a6.34,6.34,0,0,1,5.05-4.13,8.94,8.94,0,0,1,6.48,1.71C99.68,52.41,101.77,57.89,98.58,60.12Z"/><ellipse class="cls-7" cx="99.86" cy="56.54" rx="4.93" ry="3.88" transform="translate(25.28 143.76) rotate(-78.98)"/><path class="cls-3" d="M118.17,68.09s-.44,5.16-4.66,4.19-2.37-5.42-2.37-5.42c3.5,3.55,6.78,1.46,6.78,1.46A.92.92,0,0,0,118.17,68.09Z"/><g class="cls-18"><ellipse class="cls-19" cx="110.56" cy="73.07" rx="3.33" ry="4.08" transform="translate(17.7 167.63) rotate(-78.98)"/><ellipse class="cls-14" cx="114.97" cy="66.59" rx="3.33" ry="4.08" transform="translate(27.63 166.71) rotate(-78.98)"/></g><path class="cls-13" d="M90.72,62.24a2.37,2.37,0,0,1-2-1.64,2.91,2.91,0,0,1-2-3.46,3.44,3.44,0,0,1,3.36-2.43,2.81,2.81,0,0,1,1.33.35,3.91,3.91,0,0,1,1.3,1.54,7.24,7.24,0,0,1,.83,2.2,15.84,15.84,0,0,1,.4,1.69C94,61.83,91.76,62.4,90.72,62.24Z"/></svg>