<svg xmlns="http://www.w3.org/2000/svg" xmlns:xlink="http://www.w3.org/1999/xlink" viewBox="0 0 260 168"><defs><style>.cls-1{fill:#f4a947;}.cls-2{fill:#cbcccd;}.cls-3{fill:#5c1c09;}.cls-4{fill:#ff1515;}.cls-5{fill:#fff;}.cls-6{fill:#0083c4;}.cls-7{fill:#d8d8d8;}.cls-8{clip-path:url(#clip-path);}.cls-9{fill:#f98e0d;}.cls-10{fill:#ffe38a;}.cls-11{clip-path:url(#clip-path-2);}.cls-12{fill:#e51a1a;}.cls-13{clip-path:url(#clip-path-3);}.cls-14{fill:#af0c0c;}.cls-15{clip-path:url(#clip-path-4);}.cls-16{clip-path:url(#clip-path-5);}.cls-17{fill:#f7b03e;}.cls-18{fill:#f9cc3d;}.cls-19{clip-path:url(#clip-path-6);}.cls-20{clip-path:url(#clip-path-7);}.cls-21{fill:#0061c1;}.cls-22{fill:#591f12;}.cls-23{fill:#813a24;}.cls-24{fill:#c5c8c9;}.cls-25{clip-path:url(#clip-path-8);}.cls-26{fill:#007cad;}.cls-27{clip-path:url(#clip-path-9);}.cls-28,.cls-29,.cls-33,.cls-41{fill:none;}.cls-28{stroke:red;stroke-width:0.95px;}.cls-28,.cls-29{stroke-miterlimit:10;}.cls-29{stroke:#1d94dc;stroke-width:0.73px;}.cls-30{fill:#1d94dc;}.cls-31{fill:#190000;}.cls-32{clip-path:url(#clip-path-10);}.cls-33{stroke:#461c11;stroke-linecap:round;stroke-linejoin:round;stroke-width:1.3px;}.cls-34{clip-path:url(#clip-path-11);}.cls-35{fill:#eaeaea;}.cls-36{clip-path:url(#clip-path-12);}.cls-37{fill:#ff4a4a;}.cls-38{fill:#d1d1d1;}.cls-39{fill:#914030;}.cls-40{fill:#a04d37;}</style><clipPath id="clip-path"><path class="cls-1" d="M144.4,139.25a42.45,42.45,0,0,0-10.61-.95,23.69,23.69,0,0,1,10.7-2.87,20.69,20.69,0,0,0-6.31-2,20.39,20.39,0,0,1,9.83-.81c-.61-1-1.23-2-1.85-3.06a18.25,18.25,0,0,1,4.29,1.57,7.76,7.76,0,0,1,5.9-4.26c-.39.82-.78,1.65-1.16,2.47a14.09,14.09,0,0,1,13.57-1.65l-2.7,2.22a11.37,11.37,0,0,1,7.49,3.22l-1.44,1a10.22,10.22,0,0,1,8.9,5.05,10.8,10.8,0,0,0-5.33-.74,5.6,5.6,0,0,1,3.86,3.51,9.68,9.68,0,0,0-5.1-.15,9.69,9.69,0,0,1,2.29,1.63,43.66,43.66,0,0,0-6.46-.45,6.32,6.32,0,0,1,1.07,1.57l-2.77-.6a.74.74,0,0,0-.51,0c-.15.09-.19.35,0,.42l-3.25-.23a3.58,3.58,0,0,0,.08,1.75c-1.44-.43-2.89-.8-4.36-1.1l.19,1.23-2.07-1.19c-.86.14-1.73.28-2.61.44s-2.52-.19-2.22-1.16a17.52,17.52,0,0,1-4.18.84,2.11,2.11,0,0,1,.78-1.4,26.3,26.3,0,0,0-7.61.5l2.19-1.52a51.69,51.69,0,0,0-9.71.47Z"/></clipPath><clipPath id="clip-path-2"><path class="cls-1" d="M114.16,128.06a60.66,60.66,0,0,0-15.38-1.37,34.45,34.45,0,0,1,15.5-4.17,30.63,30.63,0,0,0-9.14-2.93,29.71,29.71,0,0,1,14.25-1.17L116.7,114a27,27,0,0,1,6.23,2.27,11.24,11.24,0,0,1,8.54-6.17l-1.68,3.58a20.41,20.41,0,0,1,19.67-2.39l-3.91,3.22a16.43,16.43,0,0,1,10.85,4.67l-2.09,1.42a14.84,14.84,0,0,1,12.9,7.32,15.79,15.79,0,0,0-7.72-1.07,8.17,8.17,0,0,1,5.6,5.09,14.05,14.05,0,0,0-7.4-.21,13.73,13.73,0,0,1,3.31,2.36,62.31,62.31,0,0,0-9.36-.65,9.08,9.08,0,0,1,1.56,2.27l-4-.86a1,1,0,0,0-.74,0c-.22.12-.28.51,0,.61l-4.71-.34a5.2,5.2,0,0,0,.12,2.54q-3.12-.94-6.32-1.59l.27,1.78-3-1.72c-1.25.2-2.51.4-3.78.63-1.45.25-3.65-.28-3.23-1.68a25.56,25.56,0,0,1-6.06,1.22,3.08,3.08,0,0,1,1.14-2,38.18,38.18,0,0,0-11,.72l3.17-2.21a76.12,76.12,0,0,0-14.07.7Z"/></clipPath><clipPath id="clip-path-3"><path class="cls-4" d="M144.28,128.28c0,9.43-5.9,11.38-12.7,11.38s-11.94-1.95-11.94-11.38,5.14-22.77,11.94-22.77S144.28,118.85,144.28,128.28Z"/></clipPath><clipPath id="clip-path-4"><ellipse class="cls-5" cx="124.65" cy="98.38" rx="3.06" ry="4.35"/></clipPath><clipPath id="clip-path-5"><ellipse class="cls-5" cx="138.66" cy="98.38" rx="3.06" ry="4.35"/></clipPath><clipPath id="clip-path-6"><path class="cls-1" d="M125,140.51a53.65,53.65,0,0,1,13.55-1.2,30.38,30.38,0,0,0-13.66-3.68,26.94,26.94,0,0,1,8.06-2.58,26.13,26.13,0,0,0-12.56-1l2.37-3.91a23.92,23.92,0,0,0-5.49,2,9.94,9.94,0,0,0-7.53-5.44c.5,1,1,2.11,1.49,3.16a18,18,0,0,0-17.34-2.11l3.44,2.84a14.49,14.49,0,0,0-9.56,4.11l1.85,1.26a13.06,13.06,0,0,0-11.37,6.45,13.86,13.86,0,0,1,6.8-.94,7.15,7.15,0,0,0-4.93,4.48,12.51,12.51,0,0,1,6.52-.19,12.36,12.36,0,0,0-2.93,2.09,55.67,55.67,0,0,1,8.26-.58,8.11,8.11,0,0,0-1.38,2l3.53-.76a1,1,0,0,1,.66,0c.19.11.25.45,0,.54l4.16-.29a4.56,4.56,0,0,1-.11,2.23q2.74-.82,5.57-1.4l-.24,1.57,2.64-1.52,3.33.56c1.27.22,3.22-.25,2.84-1.48a22.71,22.71,0,0,0,5.34,1.08,2.73,2.73,0,0,0-1-1.8,33.76,33.76,0,0,1,9.72.64l-2.79-1.95a66.68,66.68,0,0,1,12.39.62Z"/></clipPath><clipPath id="clip-path-7"><path class="cls-1" d="M130,143a38,38,0,0,0-9.63-.85,21.53,21.53,0,0,1,9.7-2.61,19.15,19.15,0,0,0-5.72-1.84,18.63,18.63,0,0,1,8.92-.73l-1.68-2.77a16.34,16.34,0,0,1,3.89,1.42,7.08,7.08,0,0,1,5.35-3.87L139.78,134a12.78,12.78,0,0,1,12.31-1.5l-2.45,2a10.27,10.27,0,0,1,6.8,2.93l-1.31.89a9.27,9.27,0,0,1,8.07,4.58,9.85,9.85,0,0,0-4.83-.67,5.11,5.11,0,0,1,3.5,3.19,8.85,8.85,0,0,0-4.63-.14,8.78,8.78,0,0,1,2.08,1.48,39.62,39.62,0,0,0-5.86-.41,5.76,5.76,0,0,1,1,1.42l-2.51-.54a.66.66,0,0,0-.46,0c-.14.08-.18.32,0,.38l-3-.21a3.29,3.29,0,0,0,.07,1.59c-1.3-.39-2.62-.73-4-1l.17,1.11-1.87-1.07c-.79.12-1.57.25-2.37.39s-2.29-.17-2-1.05a15.85,15.85,0,0,1-3.79.77,1.92,1.92,0,0,1,.71-1.27,23.5,23.5,0,0,0-6.9.45l2-1.38a47.08,47.08,0,0,0-8.8.43Z"/></clipPath><clipPath id="clip-path-8"><path class="cls-6" d="M85.71,135.1s15.59,10.32,12.38,15.36-23.84,2.07-29.8.23c0,0-1.84-3.21-.69-9.4,0,0-8-5.73-6.42-10.54S79.29,124.33,85.71,135.1Z"/></clipPath><clipPath id="clip-path-9"><path class="cls-7" d="M89.57,89.46s-4.76-1.07-8.2,2.1S65.71,117.2,64.24,119s21.93,12.92,25.54,12.79c0,0,8-22.1,6.92-32.17l-1.08-5.53S95,99,89.57,89.46Z"/></clipPath><clipPath id="clip-path-10"><ellipse class="cls-5" cx="114.06" cy="79.34" rx="6" ry="3.99" transform="translate(5.24 165.72) rotate(-73.26)"/></clipPath><clipPath id="clip-path-11"><path class="cls-2" d="M110.78,44.72s15.54,3.44,17.5,14.88a23.8,23.8,0,0,1-2.09,10A94.77,94.77,0,0,0,106.26,63a125.58,125.58,0,0,0-20.32-2.55S84,40.78,110.78,44.72Z"/></clipPath><clipPath id="clip-path-12"><path class="cls-3" d="M116.91,90.7s-1,5.31-5.29,3.88-1.89-5.89-1.89-5.89c3.27,4,6.89,2.22,6.89,2.22A1,1,0,0,0,116.91,90.7Z"/></clipPath></defs><g id="Layer_4" data-name="Layer 4"><path class="cls-1" d="M144.4,139.25a42.45,42.45,0,0,0-10.61-.95,23.69,23.69,0,0,1,10.7-2.87,20.69,20.69,0,0,0-6.31-2,20.39,20.39,0,0,1,9.83-.81c-.61-1-1.23-2-1.85-3.06a18.25,18.25,0,0,1,4.29,1.57,7.76,7.76,0,0,1,5.9-4.26c-.39.82-.78,1.65-1.16,2.47a14.09,14.09,0,0,1,13.57-1.65l-2.7,2.22a11.37,11.37,0,0,1,7.49,3.22l-1.44,1a10.22,10.22,0,0,1,8.9,5.05,10.8,10.8,0,0,0-5.33-.74,5.6,5.6,0,0,1,3.86,3.51,9.68,9.68,0,0,0-5.1-.15,9.69,9.69,0,0,1,2.29,1.63,43.66,43.66,0,0,0-6.46-.45,6.32,6.32,0,0,1,1.07,1.57l-2.77-.6a.74.74,0,0,0-.51,0c-.15.09-.19.35,0,.42l-3.25-.23a3.58,3.58,0,0,0,.08,1.75c-1.44-.43-2.89-.8-4.36-1.1l.19,1.23-2.07-1.19c-.86.14-1.73.28-2.61.44s-2.52-.19-2.22-1.16a17.52,17.52,0,0,1-4.18.84,2.11,2.11,0,0,1,.78-1.4,26.3,26.3,0,0,0-7.61.5l2.19-1.52a51.69,51.69,0,0,0-9.71.47Z"/><g class="cls-8"><path class="cls-9" d="M181.93,139.5a46,46,0,0,0-8.28-2.92,12.92,12.92,0,0,1,3.47,3.78,17.29,17.29,0,0,1-4.05-.52l.79,1.48-3-.92L172,142A19.61,19.61,0,0,1,167,140.7a5.49,5.49,0,0,1,1.9,2.26,10,10,0,0,0-5.33-1.15,11,11,0,0,1,2.26,1.36,16.73,16.73,0,0,0-3.71-.75,2.4,2.4,0,0,1,.5,1.63,2.32,2.32,0,0,0-1.94-1.09l.15,1.11a4.61,4.61,0,0,0-2-1.33,4.78,4.78,0,0,1-4.26,1.16,2.19,2.19,0,0,1,1.33-1.62q-2.76.21-5.48.69l2.76-1.7-6.31.63a11.81,11.81,0,0,1,4-1.65c-6.26-.91-12.55.94-18.61,2.76l10.49,6.22c2.3,1.36,4.68,2.75,7.34,3.09a19.93,19.93,0,0,0,6.19-.53,152.72,152.72,0,0,1,15.91-2.42c4.93-.42,10.27-.53,14.16-3.58a1.75,1.75,0,0,0,.55-.63,1.72,1.72,0,0,0,0-.93c-.21-1.4-.71-3.12-2.11-3.35"/><path class="cls-10" d="M169.8,127.28c-1.49,0-3,0-4.46.08a12.68,12.68,0,0,0-2.94.45,14.83,14.83,0,0,0-4,2.24,15,15,0,0,0-2.81,2.33,5.31,5.31,0,0,1,.39-2.64l-3.19,1.79,1-2.05a8.36,8.36,0,0,0-3.67,2.9,7.89,7.89,0,0,0-2.73-1.66,16.86,16.86,0,0,1,2.36,3.14,34.4,34.4,0,0,0-14.6.41c1-3,3.68-5.12,6.48-6.59a52.16,52.16,0,0,1,7.5-3.1,32.06,32.06,0,0,1,6.71-1.76,33.09,33.09,0,0,1,7.7.27,53,53,0,0,1,5.62.9,7.19,7.19,0,0,1,3.57,1.66"/></g><path class="cls-1" d="M114.16,128.06a60.66,60.66,0,0,0-15.38-1.37,34.45,34.45,0,0,1,15.5-4.17,30.63,30.63,0,0,0-9.14-2.93,29.71,29.71,0,0,1,14.25-1.17L116.7,114a27,27,0,0,1,6.23,2.27,11.24,11.24,0,0,1,8.54-6.17l-1.68,3.58a20.41,20.41,0,0,1,19.67-2.39l-3.91,3.22a16.43,16.43,0,0,1,10.85,4.67l-2.09,1.42a14.84,14.84,0,0,1,12.9,7.32,15.79,15.79,0,0,0-7.72-1.07,8.17,8.17,0,0,1,5.6,5.09,14.05,14.05,0,0,0-7.4-.21,13.73,13.73,0,0,1,3.31,2.36,62.31,62.31,0,0,0-9.36-.65,9.08,9.08,0,0,1,1.56,2.27l-4-.86a1,1,0,0,0-.74,0c-.22.12-.28.51,0,.61l-4.71-.34a5.2,5.2,0,0,0,.12,2.54q-3.12-.94-6.32-1.59l.27,1.78-3-1.72c-1.25.2-2.51.4-3.78.63-1.45.25-3.65-.28-3.23-1.68a25.56,25.56,0,0,1-6.06,1.22,3.08,3.08,0,0,1,1.14-2,38.18,38.18,0,0,0-11,.72l3.17-2.21a76.12,76.12,0,0,0-14.07.7Z"/><g class="cls-11"><path class="cls-9" d="M168.55,128.42a66.08,66.08,0,0,0-12-4.22,18.5,18.5,0,0,1,5,5.47,25.23,25.23,0,0,1-5.86-.75l1.15,2.15-4.33-1.34,1.59,2.28a27.83,27.83,0,0,1-7.17-1.85,8,8,0,0,1,2.76,3.27,14.51,14.51,0,0,0-7.73-1.66,16.09,16.09,0,0,1,3.28,2,23.47,23.47,0,0,0-5.38-1.09,3.41,3.41,0,0,1,.72,2.36,3.28,3.28,0,0,0-2.81-1.57l.22,1.6a6.65,6.65,0,0,0-2.87-1.93A6.88,6.88,0,0,1,129,134.8a3.19,3.19,0,0,1,1.92-2.35q-4,.31-7.94,1l4-2.46-9.15.91a16.91,16.91,0,0,1,5.79-2.39c-9.07-1.31-18.19,1.36-27,4l15.19,9c3.34,2,6.79,4,10.64,4.49a28.71,28.71,0,0,0,9-.77,221.86,221.86,0,0,1,23.05-3.51c7.14-.6,14.89-.76,20.52-5.19a2.36,2.36,0,0,0,.8-.92,2.53,2.53,0,0,0,0-1.34c-.31-2-1-4.52-3.07-4.85"/><path class="cls-10" d="M151,110.71q-3.24-.09-6.46.12a18.09,18.09,0,0,0-4.27.66,21.44,21.44,0,0,0-5.86,3.24,22.78,22.78,0,0,0-4.07,3.38,7.83,7.83,0,0,1,.56-3.83l-4.61,2.6,1.49-3a12.06,12.06,0,0,0-5.32,4.21,11.42,11.42,0,0,0-4-2.42,24.85,24.85,0,0,1,3.42,4.55,50.17,50.17,0,0,0-21.16.6c1.39-4.37,5.34-7.41,9.39-9.55a78.21,78.21,0,0,1,10.87-4.5,46.29,46.29,0,0,1,9.73-2.53,47.44,47.44,0,0,1,11.16.38A77.06,77.06,0,0,1,150,106a10.48,10.48,0,0,1,5.17,2.4"/></g><path class="cls-12" d="M141.14,112.45s10.34,3,12.58,16.41-7.11,2-7.11,2-2.4,8.18-7.24.49S133,110.93,141.14,112.45Z"/><path class="cls-12" d="M124.06,112.24S114,116,112.79,129.58s7.24,1.47,7.24,1.47,3,8,7.26-.07S132,110.09,124.06,112.24Z"/><path class="cls-4" d="M144.28,128.28c0,9.43-5.9,11.38-12.7,11.38s-11.94-1.95-11.94-11.38,5.14-22.77,11.94-22.77S144.28,118.85,144.28,128.28Z"/><g class="cls-13"><circle class="cls-12" cx="131.49" cy="103.17" r="11.01"/></g><path class="cls-14" d="M127.21,84.39a2.84,2.84,0,0,1,1.65-3,5.07,5.07,0,0,1,3.66-.07,5.62,5.62,0,0,1,2.3,1.31,3.33,3.33,0,0,1,1,2.38,5.7,5.7,0,0,1-.56,2l-.93,2.17a1.48,1.48,0,0,1-.3.5,1.27,1.27,0,0,1-.54.28c-1.36.43-4.26.59-4.37-1.36a3.17,3.17,0,0,0-.64-2A6.13,6.13,0,0,1,127.21,84.39Z"/><path class="cls-4" d="M143.57,98.58A11.62,11.62,0,0,0,132,87h0A11.62,11.62,0,0,0,120.3,98.58c0,.55,0,1.09,0,1.61-.06,5.61.08,9.93,11.34,10h.57c11.26-.08,11.4-4.4,11.34-10C143.56,99.67,143.57,99.13,143.57,98.58Z"/><ellipse class="cls-5" cx="124.65" cy="98.38" rx="3.06" ry="4.35"/><g class="cls-15"><path d="M123.15,94.67a2.12,2.12,0,0,0-.44,0,1.47,1.47,0,0,1,.74,1.27,1.47,1.47,0,0,1-2.9.39,2.84,2.84,0,1,0,2.6-1.71Z"/></g><ellipse class="cls-5" cx="138.66" cy="98.38" rx="3.06" ry="4.35"/><g class="cls-16"><path d="M137.16,94.67a2.12,2.12,0,0,0-.44,0,1.47,1.47,0,0,1,.74,1.27,1.47,1.47,0,0,1-2.9.39,2.83,2.83,0,1,0,2.6-1.71Z"/></g><path class="cls-14" d="M135.53,111.7c-.48-1.12-1-2.34-1.54-3.42-.44-.88-1.45-.53-2.17,0-.72-.48-1.72-.83-2.17,0-.55,1.08-1.06,2.3-1.54,3.42a4.69,4.69,0,0,0-.21,3.85,3.23,3.23,0,0,0,1,1.12,3.86,3.86,0,0,0,2.63.92l.27,0,.28,0a3.83,3.83,0,0,0,2.62-.92,3,3,0,0,0,1-1.12A4.65,4.65,0,0,0,135.53,111.7Z"/><path class="cls-17" d="M127.08,106.59s-.63,3.61,4.84,3.61,4.4-3.94,4.4-3.94l-4.6-2.53Z"/><path class="cls-18" d="M136.8,106.24c-.09-.87-.52-5.31-5.12-5.31h0c-4.61,0-5,4.44-5.13,5.31,0,0,0,1.44,1.39.38s3.13-1.49,3.89-1.06c0,0,1.13-.65,3.79.73,0,0,1,.93,1.13.26Z"/><path class="cls-1" d="M125,140.51a53.65,53.65,0,0,1,13.55-1.2,30.38,30.38,0,0,0-13.66-3.68,26.94,26.94,0,0,1,8.06-2.58,26.13,26.13,0,0,0-12.56-1l2.37-3.91a23.92,23.92,0,0,0-5.49,2,9.94,9.94,0,0,0-7.53-5.44c.5,1,1,2.11,1.49,3.16a18,18,0,0,0-17.34-2.11l3.44,2.84a14.49,14.49,0,0,0-9.56,4.11l1.85,1.26a13.06,13.06,0,0,0-11.37,6.45,13.86,13.86,0,0,1,6.8-.94,7.15,7.15,0,0,0-4.93,4.48,12.51,12.51,0,0,1,6.52-.19,12.36,12.36,0,0,0-2.93,2.09,55.67,55.67,0,0,1,8.26-.58,8.11,8.11,0,0,0-1.38,2l3.53-.76a1,1,0,0,1,.66,0c.19.11.25.45,0,.54l4.16-.29a4.56,4.56,0,0,1-.11,2.23q2.74-.82,5.57-1.4l-.24,1.57,2.64-1.52,3.33.56c1.27.22,3.22-.25,2.84-1.48a22.71,22.71,0,0,0,5.34,1.08,2.73,2.73,0,0,0-1-1.8,33.76,33.76,0,0,1,9.72.64l-2.79-1.95a66.68,66.68,0,0,1,12.39.62Z"/><g class="cls-19"><path class="cls-9" d="M77,140.83a58.37,58.37,0,0,1,10.59-3.72,16.23,16.23,0,0,0-4.44,4.82,22.54,22.54,0,0,0,5.17-.66l-1,1.89L91.14,142l-1.4,2a25,25,0,0,0,6.32-1.64,7.1,7.1,0,0,0-2.43,2.89,12.78,12.78,0,0,1,6.81-1.47,14.6,14.6,0,0,0-2.89,1.74,20.76,20.76,0,0,1,4.74-1,3.05,3.05,0,0,0-.64,2.08,2.92,2.92,0,0,1,2.49-1.39l-.2,1.41a5.86,5.86,0,0,1,2.53-1.7,6.06,6.06,0,0,0,5.44,1.48,2.85,2.85,0,0,0-1.69-2.07c2.34.18,4.67.48,7,.88l-3.53-2.16,8.07.8a15.16,15.16,0,0,0-5.11-2.11c8-1.16,16,1.2,23.76,3.52L127,153.26c-2.94,1.74-6,3.52-9.37,4a25.55,25.55,0,0,1-7.92-.68,193.87,193.87,0,0,0-20.32-3.09c-6.29-.53-13.11-.67-18.08-4.57a2.17,2.17,0,0,1-.7-.81,2.25,2.25,0,0,1,0-1.18c.27-1.79.91-4,2.7-4.28"/><path class="cls-10" d="M92.52,125.22c1.9,0,3.8,0,5.69.11a16.53,16.53,0,0,1,3.77.57,18.84,18.84,0,0,1,5.16,2.87,19.3,19.3,0,0,1,3.58,3,6.71,6.71,0,0,0-.49-3.37l4.06,2.28L113,128a10.67,10.67,0,0,1,4.69,3.71,10,10,0,0,1,3.49-2.13,22.18,22.18,0,0,0-3,4,44.26,44.26,0,0,1,18.65.53c-1.22-3.85-4.7-6.53-8.28-8.42a68.48,68.48,0,0,0-9.58-4,41.13,41.13,0,0,0-8.57-2.24,42.14,42.14,0,0,0-9.84.35A64.42,64.42,0,0,0,93.35,121a9.27,9.27,0,0,0-4.56,2.13"/></g><path class="cls-1" d="M130,143a38,38,0,0,0-9.63-.85,21.53,21.53,0,0,1,9.7-2.61,19.15,19.15,0,0,0-5.72-1.84,18.63,18.63,0,0,1,8.92-.73l-1.68-2.77a16.34,16.34,0,0,1,3.89,1.42,7.08,7.08,0,0,1,5.35-3.87L139.78,134a12.78,12.78,0,0,1,12.31-1.5l-2.45,2a10.27,10.27,0,0,1,6.8,2.93l-1.31.89a9.27,9.27,0,0,1,8.07,4.58,9.85,9.85,0,0,0-4.83-.67,5.11,5.11,0,0,1,3.5,3.19,8.85,8.85,0,0,0-4.63-.14,8.78,8.78,0,0,1,2.08,1.48,39.62,39.62,0,0,0-5.86-.41,5.76,5.76,0,0,1,1,1.42l-2.51-.54a.66.66,0,0,0-.46,0c-.14.08-.18.32,0,.38l-3-.21a3.29,3.29,0,0,0,.07,1.59c-1.3-.39-2.62-.73-4-1l.17,1.11-1.87-1.07c-.79.12-1.57.25-2.37.39s-2.29-.17-2-1.05a15.85,15.85,0,0,1-3.79.77,1.92,1.92,0,0,1,.71-1.27,23.5,23.5,0,0,0-6.9.45l2-1.38a47.08,47.08,0,0,0-8.8.43Z"/><g class="cls-20"><path class="cls-9" d="M164,143.22a40.66,40.66,0,0,0-7.52-2.64,11.43,11.43,0,0,1,3.15,3.42,15.71,15.71,0,0,1-3.67-.47l.72,1.35L154,144l1,1.43a17.88,17.88,0,0,1-4.49-1.16,5,5,0,0,1,1.73,2.05,9.06,9.06,0,0,0-4.84-1.05,10.54,10.54,0,0,1,2.06,1.24,15.59,15.59,0,0,0-3.38-.68,2.16,2.16,0,0,1,.46,1.48,2.1,2.1,0,0,0-1.76-1l.13,1a4.17,4.17,0,0,0-1.79-1.21,4.32,4.32,0,0,1-3.87,1.05,2,2,0,0,1,1.21-1.47c-1.67.13-3.32.34-5,.63l2.51-1.54-5.73.57a10.62,10.62,0,0,1,3.63-1.5c-5.68-.82-11.39.85-16.88,2.5l9.51,5.64a17.77,17.77,0,0,0,6.66,2.81,17.83,17.83,0,0,0,5.62-.48,140.78,140.78,0,0,1,14.43-2.2c4.47-.37,9.31-.47,12.84-3.24a1.47,1.47,0,0,0,.5-.58,1.59,1.59,0,0,0,0-.84c-.2-1.27-.65-2.83-1.92-3"/><path class="cls-10" d="M153,132.13c-1.35,0-2.7,0-4,.08a11.43,11.43,0,0,0-2.67.41,13.61,13.61,0,0,0-3.67,2,14,14,0,0,0-2.54,2.11,4.77,4.77,0,0,1,.35-2.39L137.57,136l.94-1.86a7.43,7.43,0,0,0-3.33,2.63,7.26,7.26,0,0,0-2.48-1.51,15.62,15.62,0,0,1,2.14,2.85,31.5,31.5,0,0,0-13.25.37c.87-2.73,3.35-4.64,5.88-6a49.32,49.32,0,0,1,6.81-2.82,29.2,29.2,0,0,1,6.09-1.59,29.69,29.69,0,0,1,7,.25,46.25,46.25,0,0,1,5.1.81,6.61,6.61,0,0,1,3.24,1.51"/></g><path class="cls-4" d="M121,97.29s5.24.07,6.7-3l-1.75-2.84-4.08,2.69Z"/><path class="cls-4" d="M142.18,97.29s-5.25.07-6.71-3l1.75-2.84,4.08,2.69Z"/><path class="cls-21" d="M102.72,146.55a4.21,4.21,0,0,1-3,2.94,7.45,7.45,0,0,1-1.57.08l-2.8,0a4.68,4.68,0,0,1-1.4-.17,3.33,3.33,0,0,1-1.83-1.8,6.07,6.07,0,0,1,1.53-7.14A8,8,0,0,1,96,139.1a5.16,5.16,0,0,1,1.72-.34,4,4,0,0,1,2.57,1.18C102.09,141.62,103.47,144,102.72,146.55Z"/><path d="M62.73,150.23a6.31,6.31,0,0,0-.87-.14,4.48,4.48,0,0,0-1,.14,12.6,12.6,0,0,1-5.76-.22,4.58,4.58,0,0,1-2.73-1.72,3.71,3.71,0,0,1-.5-2,7.21,7.21,0,0,1,4-5.84,18.71,18.71,0,0,1,7.18-1.74,10.45,10.45,0,0,1,2.68,0,5.67,5.67,0,0,1,4.55,4.79C70.74,147.31,66.47,150.91,62.73,150.23Z"/><path class="cls-22" d="M65,146.18a4,4,0,0,0-1.82-2.39A4.31,4.31,0,0,1,65,141a3.27,3.27,0,0,1,2-.18,5.43,5.43,0,0,1,3,1.51,4.18,4.18,0,0,1,1.25,3,5.63,5.63,0,0,1-.19,1.23c-.4,1.55-1.06,3.26-2.82,3a6.88,6.88,0,0,1-2.37-.7C65.38,148.48,65.23,146.78,65,146.18Z"/><path class="cls-23" d="M120.39,100.79a4,4,0,0,0,2-1.57,21.73,21.73,0,0,1,1.52-2c.74-.77,1.75-1.33,2.17-2.32a1,1,0,0,0-.22-1.28,1.06,1.06,0,0,0-1.2.23,3.74,3.74,0,0,1-1.05.77l3-4.12a3.67,3.67,0,0,0,.9-2,1.23,1.23,0,0,0-.38-1c-.61-.51-1.52-.06-2.17.4a49.53,49.53,0,0,0-5,4.17,10.14,10.14,0,0,0-2.78,3.79C116.44,97.86,117.56,101.62,120.39,100.79Z"/><path class="cls-24" d="M103.47,107.44a6.39,6.39,0,0,0,6.21,1.69,18.79,18.79,0,0,0,6.06-2.93c2.71-1.74,3-2.86,5.76-4.6-1.7-2.83-2.13-5.09-3.83-7.92-4.21,2.7-6.6,4.32-9.49,6.12C105.07,101.73,100.16,103.56,103.47,107.44Z"/><path class="cls-6" d="M85.71,135.1s15.59,10.32,12.38,15.36-23.84,2.07-29.8.23c0,0-1.84-3.21-.69-9.4,0,0-8-5.73-6.42-10.54S79.29,124.33,85.71,135.1Z"/><g class="cls-25"><path class="cls-26" d="M82.92,141.71a37.75,37.75,0,0,0,7.26,4.06,15.08,15.08,0,0,0,8.17,1,4.65,4.65,0,0,0,1.23-.39,3.7,3.7,0,0,0,1.65-2.12c.84-2.47-.21-5.28-2-7.19a20.13,20.13,0,0,0-6.59-4.17A61.45,61.45,0,0,0,78.51,128c-2-.37-3.93-.58-5.9-.79s-12.26-.28-7,3.34c3.62,2.47,7.59,4.48,11.22,7C78.88,138.92,80.88,140.34,82.92,141.71Z"/></g><path class="cls-26" d="M81,142.39a7.61,7.61,0,0,0-3.57-2.15,20,20,0,0,0-4.8-1.07,32.69,32.69,0,0,1-4.09-.33,8.07,8.07,0,0,1-6.16-6.93,2.9,2.9,0,0,0-.61,2.78,7.12,7.12,0,0,0,1.49,2.56c.9,1.1,2.4,3.26,3.83,3.68a2.2,2.2,0,0,0,1.42-.23,10.1,10.1,0,0,1,2.44-.39,19.83,19.83,0,0,1,5.16.37,19,19,0,0,1,2.58.72A6.3,6.3,0,0,1,81,142.39Z"/><path class="cls-24" d="M110.65,105.48c.12-2.23,1-3.26-.67-4.94-4.84-1.29-11.37-4.17-14-4.55-5.63-.8-8.07,2.38-8.07,2.38-1.66,2,1.3,4.93,6.66,7.13,2.84,1.17,7.12,2.11,12.3,3.72C108.19,107.74,110.54,107.64,110.65,105.48Z"/><polygon class="cls-23" points="87.31 94.78 93.96 97.74 97.72 89.29 91.58 85.18 87.31 94.78"/><path class="cls-7" d="M89.57,89.46s-4.76-1.07-8.2,2.1S65.71,117.2,64.24,119s21.93,12.92,25.54,12.79c0,0,8-22.1,6.92-32.17l-1.08-5.53S95,99,89.57,89.46Z"/><g class="cls-27"><path class="cls-2" d="M86.74,85.38s.13,8.53,6.5,11.84c0,0,2.76,5.78-3.26,23.19l3.46,1.38,8.74-29.85Z"/><path class="cls-28" d="M83.9,87.88s5.56,6.56,5.31,11-5.83,20.47-5.7,23.36S93.33,128,93.33,128"/><path class="cls-29" d="M85.73,88.67c1.83.63,2.16,3.08,3.48,4.49.44.48,1,.9,1.13,1.54.07.42-.11.86,0,1.28A3.84,3.84,0,0,0,91,97.34a3.41,3.41,0,0,1-.43,3.86,2.39,2.39,0,0,1,.84,2.56A7,7,0,0,1,90,106.25a2.45,2.45,0,0,1-1.26,4.31,4.07,4.07,0,0,1-1.41,5.1,5.4,5.4,0,0,1-.71,5A1.89,1.89,0,0,1,88,122.9a1.69,1.69,0,0,1,2.49,1.52A2.31,2.31,0,0,1,94,126"/><path class="cls-30" d="M82.06,89.19a10.17,10.17,0,0,1,2.82,5.2c.41,2.1-.16,4.16-.1,6.26a7.2,7.2,0,0,1-.86,2.85,6.21,6.21,0,0,0-.18,2.78c.15,2.1-1.35,3.75-1.49,5.84a11.64,11.64,0,0,1-.4,2.94,19.59,19.59,0,0,0-.92,3.09A19.73,19.73,0,0,0,81.1,124c.2,1.45.6,2.4,2,2.84.85.26,1,.83,1.7,1.29a2.25,2.25,0,0,0,1.65.23c1.23-.11,1.49.72,2.51,1.07s1.5-.25,2.35-.31c1.54-.1,3.16,2.18,4.66.46.52-.59-.34-1.46-.86-.87-.7.8-1.92-.35-2.57-.63a2.5,2.5,0,0,0-1.86-.17c-.49.16-.91.48-1.45.29a4.27,4.27,0,0,1-.89-.64,2.32,2.32,0,0,0-1.62-.49c-.93.07-1.09.21-1.73-.5a2.88,2.88,0,0,0-1.39-.89c-.64-.22-1-.37-1.17-1a8.27,8.27,0,0,1-.22-1.32,26.78,26.78,0,0,1-.24-3.1,10.4,10.4,0,0,1,.39-3.09c.26-.88.68-1.71.87-2.62a16.76,16.76,0,0,0,.21-2.45,9.65,9.65,0,0,1,1.07-3.21c.78-1.81-.07-3.72.74-5.48a6.86,6.86,0,0,0,.67-1.78c.17-1.06,0-2.14.12-3.21a11.5,11.5,0,0,0-3.14-10.11c-.56-.56-1.43.31-.87.86Z"/></g><path class="cls-31" d="M126,72.3a5.9,5.9,0,0,1-2.09,2.55,1.3,1.3,0,0,0-.34.28,1.38,1.38,0,0,0-.23.78,2.31,2.31,0,0,1-.62,1.45,1.8,1.8,0,0,1-2.42-.31,3.88,3.88,0,0,1-.83-2.52A8.52,8.52,0,0,1,121.16,69a3.49,3.49,0,0,1,3-1.57C126.21,67.71,126.67,70.73,126,72.3Z"/><ellipse class="cls-23" cx="104.19" cy="87.12" rx="9.58" ry="15.68" transform="translate(-9.25 161.81) rotate(-73.26)"/><path class="cls-23" d="M87.83,71.89c-2.31,11.16,2.06,21.36,12.24,23.47s18.46-5.71,21.42-16.72c5-18.66,12.6-15.75-13-23.72C98.51,51.84,90.14,60.72,87.83,71.89Z"/><ellipse class="cls-5" cx="114.06" cy="79.34" rx="6" ry="3.99" transform="translate(5.24 165.72) rotate(-73.26)"/><g class="cls-32"><path d="M112.18,80.66a1.51,1.51,0,0,0,1,1.14,1.48,1.48,0,0,0,1.72-2.14,3.93,3.93,0,0,1,.44.1,3.06,3.06,0,1,1-3.18.9Z"/></g><path class="cls-33" d="M111.77,71.26s6-3.73,9.13,2"/><ellipse class="cls-23" cx="118.84" cy="85.26" rx="2.37" ry="2.8" transform="translate(2.98 174.52) rotate(-73.26)"/><path class="cls-31" d="M123.32,71.31a7.44,7.44,0,0,1-3.62-1.83,4.8,4.8,0,0,1-4.9-1.86,9.63,9.63,0,0,1-7.65-1,3.14,3.14,0,0,1-1.53,2.62,3.63,3.63,0,0,1-3.2.21,2.07,2.07,0,0,1,0,2.3,2.28,2.28,0,0,1-2.25.8,2.5,2.5,0,0,1-.54,3,2.88,2.88,0,0,1-3.22.26,3.39,3.39,0,0,1-5.06.6A6.91,6.91,0,0,1,88,75.81a2.93,2.93,0,0,1-1.75-2.58,3,3,0,0,1-2.61-1.68,2.59,2.59,0,0,1,.49-2.89,2.4,2.4,0,0,1-.94-2.58,5,5,0,0,1,1.56-2.37,4,4,0,0,1,2.73-3.78,13.41,13.41,0,0,1,5.11-.69l9.38-.05c6.16,0,12.72,0,18,3.23a31.59,31.59,0,0,1,3.8,2.81c1.09.89,2.74,2.35,2.63,3.86S124.69,71.45,123.32,71.31Z"/><path class="cls-2" d="M110.78,44.72s15.54,3.44,17.5,14.88a23.8,23.8,0,0,1-2.09,10A94.77,94.77,0,0,0,106.26,63a125.58,125.58,0,0,0-20.32-2.55S84,40.78,110.78,44.72Z"/><g class="cls-34"><path class="cls-35" d="M129.64,67.89s-3.55-4.29-23-8.35-26.14-.72-26.14-.72l1.42,7.85,47,9.43Z"/></g><path class="cls-31" d="M97.38,80.38a8.39,8.39,0,0,1-5.56.47,7.06,7.06,0,0,1-2.87-1,2.94,2.94,0,0,1-1.36-2.58,3.3,3.3,0,0,1-3-1.94,4.58,4.58,0,0,1,.06-3.68,6.64,6.64,0,0,1,5.68-3.77,9.3,9.3,0,0,1,6.55,2.46C99.33,72.49,100.93,78.39,97.38,80.38Z"/><ellipse class="cls-23" cx="99.08" cy="76.79" rx="5.15" ry="4.05" transform="translate(-2.99 149.57) rotate(-73.26)"/><path class="cls-3" d="M116.91,90.7s-1,5.31-5.29,3.88-1.89-5.89-1.89-5.89c3.27,4,6.89,2.22,6.89,2.22A1,1,0,0,0,116.91,90.7Z"/><g class="cls-36"><ellipse class="cls-37" cx="108.48" cy="95.09" rx="3.48" ry="4.27" transform="translate(-13.82 171.59) rotate(-73.26)"/><ellipse class="cls-5" cx="113.73" cy="88.81" rx="3.48" ry="4.27" transform="matrix(0.29, -0.96, 0.96, 0.29, -4.06, 172.15)"/></g><path class="cls-31" d="M89.49,75.73a2.5,2.5,0,0,1-1.18-2.39,3,3,0,0,1-.46-4.16,3.56,3.56,0,0,1,4.23-.9,2.91,2.91,0,0,1,1.12.9,4,4,0,0,1,.59,2,7.47,7.47,0,0,1-.15,2.45,14,14,0,0,1-.33,1.78C92.75,76.72,90.41,76.33,89.49,75.73Z"/><path class="cls-38" d="M84.55,119.2c2.16-.5,3-1.66,4.17-3.73-.08-5-1.25-15.78-1.62-18.44-.77-5.63-4.39-5-4.39-5-2.39-1-4.38,2.61-5,8.36-.34,3,1.67,13.08,1.17,18.48C80.57,119.92,82.44,119.69,84.55,119.2Z"/><path class="cls-7" d="M64.22,119.05s-7.2,10.09-2.54,17.2c0,0,.42-7.8,4.67-6.42s23.11,14.44,27.35,15.59,15.48,1.15,9.75-5.73-14.62-9.48-14.62-9.48Z"/><path class="cls-23" d="M88.35,134.81l4.38,2.61a3.73,3.73,0,0,0,2,.72,1.26,1.26,0,0,0,1-.47c.45-.65-.07-1.53-.6-2.13A47.25,47.25,0,0,0,90.54,131a10.17,10.17,0,0,0-4-2.43c-2.08-.52-5.72.93-4.64,3.67A4,4,0,0,0,83.61,134s1.08,1.29,4.63.78"/><path class="cls-39" d="M90.42,131.7a18.85,18.85,0,0,1,2.26,2,10.41,10.41,0,0,1,1,1.19,2.33,2.33,0,0,1,.36.76.72.72,0,0,1,0,.52,1.15,1.15,0,0,1-.26.4,1.69,1.69,0,0,1-1.69.19,6.28,6.28,0,0,1-1.38-.74c-.83-.56-1.67-1.12-2.48-1.73.92.42,1.81.9,2.7,1.39a7,7,0,0,0,1.31.61,1.22,1.22,0,0,0,1.18-.1.71.71,0,0,0,.15-.22.15.15,0,0,0,0-.1.23.23,0,0,0,0-.11,2.34,2.34,0,0,0-.29-.6,13.89,13.89,0,0,0-.87-1.19C91.75,133.21,91.08,132.46,90.42,131.7Z"/><path class="cls-39" d="M87.38,134.12a2.57,2.57,0,0,1-1.12.46,3.23,3.23,0,0,1-1.24,0,3.3,3.3,0,0,1-1.14-.44,3.21,3.21,0,0,1-.91-.81,9.3,9.3,0,0,0,2.15.74A7.09,7.09,0,0,0,87.38,134.12Z"/><path class="cls-38" d="M83.51,111.41a6.43,6.43,0,0,0-4.23,4.86,18.74,18.74,0,0,0,0,6.72c.38,3.2,1.25,4,1.63,7.19,3.29-.29,7.11.85,10.39.55-.59-5-1.46-8-1.81-11.35C89.1,115.74,88.45,110.12,83.51,111.41Z"/><ellipse class="cls-40" cx="125.22" cy="94.49" rx="0.47" ry="0.45" transform="translate(6.01 196.46) rotate(-77.58)"/><ellipse class="cls-40" cx="126.3" cy="88.13" rx="0.47" ry="0.45" transform="translate(13.08 192.52) rotate(-77.58)"/><rect class="cls-41" x="31.51" y="25.42" width="196.98" height="131.46"/></g></svg>