<svg xmlns="http://www.w3.org/2000/svg" xmlns:xlink="http://www.w3.org/1999/xlink" viewBox="0 0 260 168"><defs><style>.cls-1{fill:#0083c4;}.cls-2{fill:#d8d8d8;}.cls-3{fill:#cbcccd;}.cls-4{fill:#5c1c09;}.cls-5{fill:#aaa;}.cls-6{fill:#0061c1;}.cls-7{fill:#591f12;}.cls-8{clip-path:url(#clip-path);}.cls-9{fill:#007cad;}.cls-10{fill:#813a24;}.cls-11{fill:#c5c8c9;}.cls-12{clip-path:url(#clip-path-2);}.cls-13,.cls-14,.cls-18{fill:none;}.cls-13{stroke:red;stroke-width:0.79px;}.cls-13,.cls-14{stroke-miterlimit:10;}.cls-14{stroke:#1d94dc;stroke-width:0.61px;}.cls-15{fill:#1d94dc;}.cls-16{fill:#190000;}.cls-17{fill:#fff;}.cls-18{stroke:#461c11;stroke-linecap:round;stroke-linejoin:round;stroke-width:1.07px;}.cls-19{clip-path:url(#clip-path-3);}.cls-20{fill:#eaeaea;}.cls-21{clip-path:url(#clip-path-4);}.cls-22{fill:#ff4a4a;}.cls-23{fill:#914030;}.cls-24{fill:#a04d37;}</style><clipPath id="clip-path"><path class="cls-1" d="M64.89,131.66s12.93,8.56,10.27,12.75-19.79,1.71-24.73.19c0,0-1.53-2.66-.57-7.8,0,0-6.66-4.76-5.33-8.75S59.56,122.72,64.89,131.66Z"/></clipPath><clipPath id="clip-path-2"><path class="cls-2" d="M71.25,95.15a8.18,8.18,0,0,0-7,1c-3.12,2.31-15.23,19.74-16.6,21.08s16.92,12.64,19.91,12.86c0,0,8.61-17.51,8.62-25.91l-.37-4.47S74.82,103.51,71.25,95.15Z"/></clipPath><clipPath id="clip-path-3"><path class="cls-3" d="M85.1,57.84S98.25,59.12,101,68.36a19.59,19.59,0,0,1-.73,8.46,78.78,78.78,0,0,0-17.07-3.46,104.24,104.24,0,0,0-17-.08S62.68,57.26,85.1,57.84Z"/></clipPath><clipPath id="clip-path-4"><path class="cls-4" d="M94.74,95.11s-.3,4.48-4,3.72-2.15-4.66-2.15-4.66c3.1,3,5.9,1.14,5.9,1.14A.85.85,0,0,0,94.74,95.11Z"/></clipPath></defs><g id="Layer_4" data-name="Layer 4"><path class="cls-5" d="M75.57,99.48a.26.26,0,0,1,.24.15.58.58,0,0,1,.06.29,1.65,1.65,0,0,1-.8,1.34.6.6,0,0,1-.25.1.66.66,0,0,1-.33-.07,1.31,1.31,0,0,1-.43-.31.69.69,0,0,1-.19-.33,1.1,1.1,0,0,1,0-.26,1.2,1.2,0,0,1,1.79-.92.06.06,0,0,1-.06,0"/><path class="cls-6" d="M79,141.16a3.49,3.49,0,0,1-2.52,2.44,5.68,5.68,0,0,1-1.3.07l-2.33,0a4.1,4.1,0,0,1-1.16-.14,2.82,2.82,0,0,1-1.52-1.5,5,5,0,0,1,1.27-5.92,6.43,6.43,0,0,1,2-1.09,4.13,4.13,0,0,1,1.43-.28,3.3,3.3,0,0,1,2.12,1C78.48,137.07,79.62,139.08,79,141.16Z"/><path d="M45.82,144.22a5.85,5.85,0,0,0-.73-.12,3.56,3.56,0,0,0-.85.12,10.44,10.44,0,0,1-4.78-.19,3.76,3.76,0,0,1-2.27-1.42,3.12,3.12,0,0,1-.41-1.69,6,6,0,0,1,3.35-4.85,15.37,15.37,0,0,1,6-1.45,8.68,8.68,0,0,1,2.22,0,4.69,4.69,0,0,1,3.78,4C52.46,141.79,48.92,144.78,45.82,144.22Z"/><path class="cls-7" d="M47.7,140.86a3.32,3.32,0,0,0-1.51-2,3.53,3.53,0,0,1,1.47-2.29,2.7,2.7,0,0,1,1.64-.16,4.57,4.57,0,0,1,2.47,1.25,3.53,3.53,0,0,1,1,2.54,4.44,4.44,0,0,1-.17,1c-.32,1.29-.87,2.7-2.34,2.45a5.65,5.65,0,0,1-2-.58C48,142.76,47.89,141.35,47.7,140.86Z"/><path class="cls-1" d="M64.89,131.66s12.93,8.56,10.27,12.75-19.79,1.71-24.73.19c0,0-1.53-2.66-.57-7.8,0,0-6.66-4.76-5.33-8.75S59.56,122.72,64.89,131.66Z"/><g class="cls-8"><path class="cls-9" d="M62.57,137.15a31.29,31.29,0,0,0,6,3.37,12.43,12.43,0,0,0,6.78.8,3.52,3.52,0,0,0,1-.33,3,3,0,0,0,1.38-1.75,6.17,6.17,0,0,0-1.66-6,16.85,16.85,0,0,0-5.47-3.46,51.59,51.59,0,0,0-11.73-4.06c-1.62-.3-3.26-.48-4.9-.65s-10.17-.24-5.78,2.76c3,2.06,6.3,3.72,9.31,5.81C59.22,134.83,60.88,136,62.57,137.15Z"/></g><path class="cls-9" d="M61,137.71a6.34,6.34,0,0,0-3-1.79,16.48,16.48,0,0,0-4-.88,25.41,25.41,0,0,1-3.39-.28A6.69,6.69,0,0,1,45.53,129a2.38,2.38,0,0,0-.5,2.3,5.85,5.85,0,0,0,1.23,2.13c.75.91,2,2.7,3.18,3.05a1.87,1.87,0,0,0,1.18-.19,8.2,8.2,0,0,1,2-.33,16.64,16.64,0,0,1,4.28.31,15.79,15.79,0,0,1,2.14.6A5.42,5.42,0,0,1,61,137.71Z"/><path class="cls-10" d="M92,112.88a3.27,3.27,0,0,0,1.47-1.47,17.5,17.5,0,0,1,1.07-1.83c.54-.7,1.33-1.26,1.58-2.11a.87.87,0,0,0-.29-1,.89.89,0,0,0-1,.3,3.46,3.46,0,0,1-.8.73l2.1-3.67a3.08,3.08,0,0,0,.56-1.7,1,1,0,0,0-.4-.79c-.55-.37-1.27.08-1.75.52a39.25,39.25,0,0,0-3.74,3.89,8.35,8.35,0,0,0-2,3.38C88.45,110.82,89.71,113.82,92,112.88Z"/><path class="cls-11" d="M81.09,117a7.7,7.7,0,0,0,2.25-5.41c-2.31-3.46-4.75-6.87-6.2-8.57-3.07-3.58-6.33-2.94-6.33-2.94-2.14.34-1.89,3.78.23,8.09,1.13,2.29,3.47,6.75,5.55,10.74A6.49,6.49,0,0,0,81.09,117Z"/><polygon class="cls-10" points="68.68 98.49 73.04 102.67 78.35 97.13 74.71 92.2 68.68 98.49"/><path class="cls-2" d="M71.25,95.15a8.18,8.18,0,0,0-7,1c-3.12,2.31-15.23,19.74-16.6,21.08s16.92,12.64,19.91,12.86c0,0,8.61-17.51,8.62-25.91l-.37-4.47S74.82,103.51,71.25,95.15Z"/><g class="cls-12"><path class="cls-3" d="M69.28,91.53s-.66,7,4.3,10.35c0,0,1.75,5-4.79,18.84l2.73,1.45,9.91-23.84Z"/><path class="cls-13" d="M66.71,93.33s4,5.91,3.39,9.55-6.65,16.37-6.81,18.76,7.58,5.66,7.58,5.66"/><path class="cls-14" d="M68.16,94.15c1.45.69,1.49,2.74,2.46,4,.32.43.77.83.8,1.37,0,.36-.17.7-.17,1.06a3.38,3.38,0,0,0,.43,1.17,2.82,2.82,0,0,1-.7,3.15,2,2,0,0,1,.46,2.19A5.75,5.75,0,0,1,70.08,109a2,2,0,0,1-1.43,3.44A3.38,3.38,0,0,1,67,116.56a4.47,4.47,0,0,1-1,4,1.57,1.57,0,0,1,.91,2,1.4,1.4,0,0,1,1.92,1.48,1.92,1.92,0,0,1,2.82,1.64"/><path class="cls-15" d="M65.12,94.29a8.36,8.36,0,0,1,1.66,6.9c-.13.61-.34,1.21-.42,1.83a9.29,9.29,0,0,1-.19,1.67c-.29.89-1,1.52-1.17,2.46a12.07,12.07,0,0,0-.08,1.47,4.07,4.07,0,0,1-.69,2,7.4,7.4,0,0,0-1.08,2.63,10.17,10.17,0,0,1-.88,2.94,10.4,10.4,0,0,0-1,3,20.33,20.33,0,0,0-.15,3.31,4.76,4.76,0,0,0,.27,2c.41.85,1,.67,1.69,1.19s.61,1.17,1.53,1.34c.67.12.87-.2,1.56.29.24.17.41.43.65.61.61.44,1,.28,1.69.23a2.27,2.27,0,0,1,1.77.46,3.58,3.58,0,0,0,1,.58,1.66,1.66,0,0,0,1.68-.35c.51-.42-.22-1.13-.72-.72-.69.58-1.83-.78-2.41-1-.83-.31-1.75.35-2.52-.11-.51-.3-.75-.84-1.37-1s-.94.23-1.71-.45c-.17-.15-.26-.43-.43-.6s-.52-.23-.86-.45a1.64,1.64,0,0,1-.8-1.52,18.63,18.63,0,0,1,.08-3.17c.23-2.12,1.51-3.81,1.85-5.89a7.1,7.1,0,0,1,1-2.77,5.05,5.05,0,0,0,.8-2.07c0-.45,0-.9,0-1.34a4.74,4.74,0,0,1,.82-2,5.14,5.14,0,0,0,.55-2.19c.2-1.92.85-3.55.54-5.52a9.47,9.47,0,0,0-2-4.49c-.41-.51-1.13.22-.72.72Z"/></g><path class="cls-16" d="M100.4,79a4.87,4.87,0,0,1-1.46,2.31,1,1,0,0,0-.26.27,1.23,1.23,0,0,0-.11.66,1.89,1.89,0,0,1-.36,1.26,1.49,1.49,0,0,1-2,0,3.2,3.2,0,0,1-.93-2,7,7,0,0,1,.83-4.71,2.91,2.91,0,0,1,2.32-1.59C100.11,75.25,100.79,77.69,100.4,79Z"/><ellipse class="cls-10" cx="83.9" cy="93.43" rx="7.95" ry="13.01" transform="translate(-22.5 160.13) rotate(-80.16)"/><path class="cls-10" d="M68.9,82.51c-.79,9.43,3.83,17.4,12.43,18.12s14.64-6.54,16-15.91c2.27-15.87,8.81-14.23-13.11-18.24C75.71,64.93,69.7,73.08,68.9,82.51Z"/><ellipse class="cls-17" cx="91.26" cy="86.03" rx="4.98" ry="3.31" transform="translate(-9.11 161.24) rotate(-80.16)"/><path d="M89.61,86.28a1.21,1.21,0,0,0,1,.83,1.23,1.23,0,0,0,1.42-1,1.21,1.21,0,0,0-.22-.93,2.31,2.31,0,0,1,.37,0,2.54,2.54,0,1,1-2.94,2.07A2.46,2.46,0,0,1,89.61,86.28Z"/><path class="cls-18" d="M88.56,79.61s4.59-3.68,7.73.78"/><ellipse class="cls-10" cx="95.79" cy="90.43" rx="1.96" ry="2.32" transform="translate(-9.69 169.35) rotate(-80.16)"/><path class="cls-16" d="M98.09,78.5a6.12,6.12,0,0,1-3.17-1.15,4,4,0,0,1-4.22-1,8,8,0,0,1-6.4-.09,2.64,2.64,0,0,1-1,2.32,3.09,3.09,0,0,1-2.61.49,1.7,1.7,0,0,1,.19,1.89,1.87,1.87,0,0,1-1.78.88A2.09,2.09,0,0,1,79,84.34a2.4,2.4,0,0,1-2.63.53,2.81,2.81,0,0,1-4.11,1,5.72,5.72,0,0,1-2.76-.15,2.44,2.44,0,0,1-1.7-2,2.52,2.52,0,0,1-2.31-1.12,2.16,2.16,0,0,1,.11-2.43,2,2,0,0,1-1-2,4.1,4.1,0,0,1,1-2.11,3.34,3.34,0,0,1,1.87-3.39,11.32,11.32,0,0,1,4.15-1.08l7.71-1c5.08-.64,10.49-1.23,15.16.86a27.25,27.25,0,0,1,3.41,1.94c1,.62,2.49,1.67,2.55,2.92A2.35,2.35,0,0,1,98.09,78.5Z"/><path class="cls-3" d="M85.1,57.84S98.25,59.12,101,68.36a19.59,19.59,0,0,1-.73,8.46,78.78,78.78,0,0,0-17.07-3.46,104.24,104.24,0,0,0-17-.08S62.68,57.26,85.1,57.84Z"/><g class="cls-19"><path class="cls-20" d="M103,75.05s-3.34-3.18-19.79-4.59-21.6,2-21.6,2L63.5,78.8l39.67,3.09Z"/></g><path class="cls-16" d="M77.62,88.55a6.94,6.94,0,0,1-4.53,1,6,6,0,0,1-2.47-.56,2.43,2.43,0,0,1-1.38-2,2.74,2.74,0,0,1-2.68-1.29,3.82,3.82,0,0,1-.32-3A5.51,5.51,0,0,1,70.55,79a7.67,7.67,0,0,1,5.64,1.37C78.44,81.86,80.35,86.57,77.62,88.55Z"/><ellipse class="cls-10" cx="78.67" cy="85.43" rx="4.27" ry="3.36" transform="translate(-18.95 148.33) rotate(-80.16)"/><path class="cls-4" d="M94.74,95.11s-.3,4.48-4,3.72-2.15-4.66-2.15-4.66c3.1,3,5.9,1.14,5.9,1.14A.85.85,0,0,0,94.74,95.11Z"/><g class="cls-21"><ellipse class="cls-22" cx="88.23" cy="99.57" rx="2.89" ry="3.54" transform="translate(-24.96 169.48) rotate(-80.16)"/><ellipse class="cls-17" cx="91.93" cy="93.87" rx="2.89" ry="3.54" transform="matrix(0.17, -0.99, 0.99, 0.17, -16.27, 168.4)"/></g><path class="cls-16" d="M72.42,83.82a2.06,2.06,0,0,1-.75-2.08,2.52,2.52,0,0,1,0-3.48,3,3,0,0,1,3.57-.36,2.36,2.36,0,0,1,.84.85,3.31,3.31,0,0,1,.31,1.71,6.2,6.2,0,0,1-.35,2,11.08,11.08,0,0,1-.43,1.45C75,84.92,73.13,84.39,72.42,83.82Z"/><path class="cls-11" d="M78.23,117.92a5.34,5.34,0,0,0,5.1,1.61,15.63,15.63,0,0,0,5.11-2.24c2.31-1.35,2.62-2.27,4.93-3.63-1.32-2.4-1.72-5.68-3-8.08-3.58,2.1-5.57,3.75-8,5.15C79.66,112.23,75.61,114.6,78.23,117.92Z"/><path class="cls-10" d="M83.07,122.55a3.33,3.33,0,0,0,1.82-1,16.21,16.21,0,0,1,1.52-1.47c.71-.53,1.62-.86,2.1-1.61a.86.86,0,0,0,0-1.08.89.89,0,0,0-1,0,3.23,3.23,0,0,1-1,.49l3-3a3.08,3.08,0,0,0,1-1.48,1.06,1.06,0,0,0-.18-.88c-.42-.5-1.24-.26-1.83,0a38.62,38.62,0,0,0-4.64,2.73,8.38,8.38,0,0,0-2.8,2.72C80.24,119.61,80.65,122.84,83.07,122.55Z"/><path class="cls-23" d="M84.46,115.58a15.65,15.65,0,0,1,2.1-1.4,7.63,7.63,0,0,1,1.16-.53,2.05,2.05,0,0,1,.68-.14.65.65,0,0,1,.42.13,1,1,0,0,1,.26.29,1.36,1.36,0,0,1-.21,1.39,4.47,4.47,0,0,1-.87,1c-.62.56-1.25,1.11-1.91,1.63.53-.65,1.1-1.26,1.68-1.87a6,6,0,0,0,.77-.93,1,1,0,0,0,.16-1,.43.43,0,0,0-.15-.18c-.07,0-.06,0-.16,0a1.88,1.88,0,0,0-.54.1c-.39.12-.76.3-1.14.46C86,114.82,85.21,115.21,84.46,115.58Z"/><path class="cls-23" d="M85.77,118.53a2.58,2.58,0,0,1-.13,2,3.06,3.06,0,0,1-.59.83,2.63,2.63,0,0,1-.84.56,7.49,7.49,0,0,0,1-1.57A5.87,5.87,0,0,0,85.77,118.53Z"/><path class="cls-2" d="M72.39,115.58a7.66,7.66,0,0,0,2.9-5.08c-1.86-3.73-4.71-9-5.94-10.85-2.6-3.94-5.07-2.14-5.07-2.14-2.16.08-2.34,3.52-.77,8.06.84,2.41,2.61,7.13,4.17,11.35A6.53,6.53,0,0,0,72.39,115.58Z"/><path class="cls-2" d="M67.19,115.33A5.34,5.34,0,0,0,69.72,120a15.64,15.64,0,0,0,5.22,2c2.6.64,3.46.2,6.06.84.74-2.64,2.74-5.26,3.48-7.9-4-1-6.61-1.21-9.34-1.93C72.2,112.26,67.64,111.12,67.19,115.33Z"/><path class="cls-2" d="M47.06,118.34s-6,8.38-2.12,14.27c0,0,.36-6.46,3.88-5.32s19.18,12,22.7,12.93,12.84,1,8.09-4.75-12.13-7.87-12.13-7.87Z"/><ellipse class="cls-24" cx="95.49" cy="107.12" rx="0.39" ry="0.37" transform="translate(-21.38 190.39) rotate(-83.76)"/><ellipse class="cls-24" cx="95.81" cy="101.77" rx="0.39" ry="0.37" transform="translate(-15.77 185.95) rotate(-83.76)"/><path class="cls-2" d="M48.06,116.91a2.6,2.6,0,0,0-1.43,2.35,2,2,0,0,0,.12.93,2.28,2.28,0,0,0,.65.8,3.12,3.12,0,0,0,2.06,1.06,2.69,2.69,0,0,0,1.87-1.13,6.93,6.93,0,0,0,1.06-1.7,2,2,0,0,0,.23-1.18,2.07,2.07,0,0,0-1.21-1.25,3.67,3.67,0,0,0-1.54-.49,1.66,1.66,0,0,0-1.42.63"/></g></svg>