<svg id="Layer_1" data-name="Layer 1" xmlns="http://www.w3.org/2000/svg" xmlns:xlink="http://www.w3.org/1999/xlink" viewBox="0 0 260 168"><defs><style>.cls-1{fill:#d8d8d8;}.cls-2{fill:#cbcccd;}.cls-3{fill:#5c1b09;}.cls-4{fill:#f9cc3d;}.cls-5{fill:#cccdce;}.cls-6{fill:#027baa;}.cls-7{clip-path:url(#clip-path);}.cls-16,.cls-8{fill:none;}.cls-8{stroke:red;stroke-miterlimit:10;stroke-width:0.73px;}.cls-9{fill:#1d94dc;}.cls-10{fill:#813a24;}.cls-11{fill:#592415;}.cls-12{fill:#190000;}.cls-13{clip-path:url(#clip-path-2);}.cls-14{fill:#eaeaea;}.cls-15{fill:#fff;}.cls-16{stroke:#461c11;stroke-linecap:round;stroke-linejoin:round;stroke-width:1px;}.cls-17{clip-path:url(#clip-path-3);}.cls-18{fill:#ff4a4a;}.cls-19{fill:#0083c4;}.cls-20{fill:#893a04;}.cls-21{fill:#9e4407;}.cls-22{fill:#ff1515;}.cls-23{fill:#d60707;}.cls-24{fill:#ff6e6e;}.cls-25{fill:#af0c0c;}.cls-26{clip-path:url(#clip-path-4);}.cls-27{fill:#f7b03e;}</style><clipPath id="clip-path"><path class="cls-1" d="M142.42,97.61c-.12-1.09-1.26-10.56-1.11-13.62s0-5.39-1.1-6.19-7.57-1.59-7.77-1.58-6.4-.29-7.66-.06c0,0-6.16,1-7.25,2.15s-1.06,9.83-.84,13c0,0-.94,10.11-.79,12.49s4.16,2.07,9.5,2.07,12.77.15,14.7-.29S143.4,106.6,142.42,97.61Z"/></clipPath><clipPath id="clip-path-2"><path class="cls-2" d="M128.8,33.74s-13.2.15-16.73,8.45a16.81,16.81,0,0,0,0,7.87,84,84,0,0,1,17.29-1.85,92.35,92.35,0,0,1,16.16,1.32S151.18,35,128.8,33.74Z"/></clipPath><clipPath id="clip-path-3"><path class="cls-3" d="M123.83,67.06a24.09,24.09,0,0,0,9.5-.18S129.65,76.49,123.83,67.06Z"/></clipPath><clipPath id="clip-path-4"><path class="cls-4" d="M141.66,87.24a1.77,1.77,0,0,1-1.57-.81,1.86,1.86,0,0,0-.71-1.05s.62-.31.69-.59c0,0,1-2.1,2.46-2a3.4,3.4,0,0,1,2.1,3.2.8.8,0,0,0-.31,0S143.81,87.18,141.66,87.24Z"/></clipPath></defs><ellipse class="cls-5" cx="129.78" cy="115.83" rx="14.99" ry="2.12"/><path class="cls-6" d="M118.28,105.55s-2.82.15-3.12,4.6,6.38,6.38,17.52,6.83,13.06-2.82,10.69-7.72S130.9,104.06,118.28,105.55Z"/><path class="cls-2" d="M114.42,94.84a6.5,6.5,0,0,0,2.92.51c1.36-3.91,4.34-10.61,3.89-13.62s-1.76-5.65-3.7-3.37c0,0-4.68,4.76-5.92,9.86-.18.72-.42,1.55-.71,2.43A6.28,6.28,0,0,0,114.42,94.84Z"/><path class="cls-2" d="M144.11,92.8a7.14,7.14,0,0,0,2.63-1.61,6.87,6.87,0,0,0,.55-.66c-.27-.83-.5-1.62-.67-2.31-1.23-5.1-5.92-9.86-5.92-9.86-1.94-2.28-3.23.22-3.7,3.37-.39,2.63,1.83,8.08,3.31,12A14.61,14.61,0,0,0,144.11,92.8Z"/><path class="cls-1" d="M142.42,97.61c-.12-1.09-1.26-10.56-1.11-13.62s0-5.39-1.1-6.19-7.57-1.59-7.77-1.58-6.4-.29-7.66-.06c0,0-6.16,1-7.25,2.15s-1.06,9.83-.84,13c0,0-.94,10.11-.79,12.49s4.16,2.07,9.5,2.07,12.77.15,14.7-.29S143.4,106.6,142.42,97.61Z"/><g class="cls-7"><path class="cls-2" d="M122.35,76.09s1,4.46,5.08,5.19V98.61h2.77V81.33s5.92-1.31,5.1-5.75Z"/><path class="cls-8" d="M121.47,96c.31,1.9-.61,5.55,1.22,5.55,4.56.91,9.12,3.65,13.68-.91,1.82-8.21-3.65-20.07,4.55-24.93"/><path class="cls-8" d="M118.58,75.32c4.67,4.2,2.87,13,2.88,18.57"/><path class="cls-9" d="M122.59,95.18c-1.15,5.8,5.76,5.7,9.41,3.93l-.46-.06c.29.29.65.85,1,1,.84.31,2.11-.79,2.89-.88.26,0,.52-.32.33-.58-2.6-3.72-.2-8.67,0-12.74a2.35,2.35,0,0,0-.38-1.76,1.31,1.31,0,0,1-.28-1.44c.13-.53.32-1,.47-1.56.64-2.19,1.2-4.4,1.82-6.59a.38.38,0,0,0-.74-.21c-.66,2.33-1.25,4.67-1.94,7-.22.75-.8,1.72-.52,2.49.13.36.41.53.61.84a2.47,2.47,0,0,1,.16,1.62c-.33,4.11-2.54,9,.11,12.75l.33-.58c-.82.09-1.44.69-2.21.83-.47.08-.33.12-.71-.26l-.46-.46a.38.38,0,0,0-.46-.06c-3,1.44-9.29,2-8.29-3.07.09-.48-.65-.69-.74-.2Z"/><path class="cls-9" d="M120.67,75.65c3.55,5.25,3.33,11.74,2,17.69-.1.49.64.69.75.21,1.32-6.15,1.54-12.87-2.12-18.28-.28-.41-1,0-.67.38Z"/><path class="cls-9" d="M120.32,94.32a3.73,3.73,0,0,1-.55-3.13c.17-.7.75-1.36.44-2.09a3.05,3.05,0,0,0-.46-.61,1.38,1.38,0,0,1-.19-1.28,19,19,0,0,0,.32-2.25A12.15,12.15,0,0,0,117,75.82c-.32-.35-.83.17-.52.52A11.89,11.89,0,0,1,119,86.52a3.6,3.6,0,0,0-.18,1.83c.23.62.85.77.68,1.54a8.36,8.36,0,0,0-.52,2.72,3.91,3.91,0,0,0,.76,2.08c.28.37.91,0,.63-.37Z"/><path class="cls-9" d="M142.51,75.72c-6.21,6.39-3.19,15.79-3.67,23.68-.51,8.55-11.23,5.86-16.7,4.85a10.47,10.47,0,0,1-2.57-.52c-1.09-.52-1-1.63-.73-2.63.37-1.58,1.23-3.16,1-4.82-.07-.47-.77-.27-.7.19.35,2.29-3.1,6.89.46,8a40.94,40.94,0,0,0,4.94.92,46.39,46.39,0,0,0,5.49.74c2.92.17,6.32-.16,8.22-2.68a8.19,8.19,0,0,0,1.39-5c.07-2.3-.1-4.6-.23-6.9-.3-5.4-.4-11.23,3.64-15.38.33-.34-.19-.85-.51-.52Z"/></g><path class="cls-10" d="M126,73.4a3.44,3.44,0,0,1-.75,3,4,4,0,0,0,3.72,2.08,5.06,5.06,0,0,0,4-1.78s-1.39-.8-1.28-3.54Z"/><ellipse class="cls-11" cx="142.03" cy="61.16" rx="3.11" ry="3.95"/><ellipse class="cls-11" cx="115.52" cy="61.16" rx="3.11" ry="3.95"/><path class="cls-10" d="M115.16,57.63s.66,4.37.8,5.68-.75,11.09,12.89,11.14,12.31-7.72,12.75-10.34.22-4.81.58-5.75c0,0,3.25-14.76-14.22-14.76C111.11,43.6,115.16,57.63,115.16,57.63Z"/><path class="cls-12" d="M112.08,49.67s-.2,2.18.87,3.2c0,0,.39,4.18,2.21,4.76s1-4,1-4,1.45.34,1.45-2.87c0,0,1.61.34,2.09-.38,0,0,1.07,1.65,4-.15,0,0,1.7,2.38,5.58-.1,0,0,1.66,2.24,4.47.29,0,0,2,2,4.91-.34,0,0-.68,2.58,2.37,3.57,0,0-.49,3.72,1.36,4.49,0,0,.66-.17.71-1.48,0,0,1.72-.22,1.62-3.57a6.23,6.23,0,0,0,.73-3.93S128.78,46.71,112.08,49.67Z"/><path class="cls-2" d="M128.8,33.74s-13.2.15-16.73,8.45a16.81,16.81,0,0,0,0,7.87,84,84,0,0,1,17.29-1.85,92.35,92.35,0,0,1,16.16,1.32S151.18,35,128.8,33.74Z"/><g class="cls-13"><path class="cls-14" d="M109.55,48.21s3.61-2.67,20.1-2.67S151,49.11,151,49.11l-2.47,5.68-39.77-.29Z"/></g><ellipse class="cls-15" cx="121" cy="59.72" rx="3.07" ry="4.61"/><path d="M123.14,60.73A1.13,1.13,0,0,1,121,60.2a1.1,1.1,0,0,1,.35-.81,2.07,2.07,0,0,0-.35,0,2.36,2.36,0,1,0,2.36,2.36A2.32,2.32,0,0,0,123.14,60.73Z"/><ellipse class="cls-15" cx="136.39" cy="59.72" rx="3.07" ry="4.61"/><path d="M138.53,60.73a1.13,1.13,0,0,1-2.14-.53,1.1,1.1,0,0,1,.35-.81,2.07,2.07,0,0,0-.35,0,2.36,2.36,0,1,0,2.36,2.36A2.32,2.32,0,0,0,138.53,60.73Z"/><ellipse class="cls-11" cx="128.76" cy="62.97" rx="2.79" ry="1.48"/><path class="cls-16" d="M117.35,54.28s3.6-4.08,7.17-.51"/><path class="cls-16" d="M140,54.28s-3.6-4.08-7.17-.51"/><path class="cls-3" d="M123.83,67.06a24.09,24.09,0,0,0,9.5-.18S129.65,76.49,123.83,67.06Z"/><g class="cls-17"><ellipse class="cls-15" cx="128.58" cy="66.53" rx="4.14" ry="2.2"/><ellipse class="cls-18" cx="128.58" cy="71.88" rx="4.14" ry="2.2"/></g><circle class="cls-10" cx="121.17" cy="110.47" r="3.49"/><path class="cls-10" d="M117.84,110.62s1.52,11.81,1.91,14.66c0,0,2.63,2.24,7-.49,0,0-.23-8.19-2.53-14.28C124.21,110.51,120.19,106.82,117.84,110.62Z"/><path d="M127.59,126.07s-.16-3.21-4.44-2.48-3.82,3.38-3.82,3.38a5.8,5.8,0,0,0-2,5.64c.59,3.84,11.89,1.78,11.64-1.22S128.17,126.43,127.59,126.07Z"/><path class="cls-19" d="M118.58,122.33s1.33-3.66,2.37-6,4.31,3.94,5.64,5.21,2.82-.85,1.78-7.6-2.67-9-8-8.59-5.64,4.79-5.35,8.16S117.09,123.74,118.58,122.33Z"/><circle class="cls-10" cx="137.48" cy="110.17" r="3.49"/><path class="cls-10" d="M140.81,110.32S139.3,122.13,138.9,125c0,0-2.63,2.24-7-.49,0,0,.22-8.18,2.52-14.28C134.44,110.21,138.46,106.53,140.81,110.32Z"/><path d="M131.06,125.78s.16-3.21,4.44-2.48,3.82,3.37,3.82,3.37a5.8,5.8,0,0,1,2,5.64c-.59,3.85-11.89,1.79-11.63-1.21S130.48,126.13,131.06,125.78Z"/><path class="cls-19" d="M140.08,122s-1.34-3.66-2.38-6.06-4.3,3.94-5.64,5.21-2.82-.84-1.78-7.6,2.67-9,8-8.59,5.64,4.79,5.34,8.17S141.56,123.44,140.08,122Z"/><path class="cls-5" d="M114.72,105s2.67-1.63,12.32-1.63,15.14.45,16.77,3.56,1.49,7.57.6,7.87-1.34-7.57-3.12-8.46-8.76-.59-11.58,0-9.5-1-10.69-.45-5.79,1.19-3.41,10.4C115.61,116.24,110,113.56,114.72,105Z"/><path class="cls-20" d="M129.2,107.18s2.68-.3,3.72.26-3.82.2-3.82.2Z"/><path class="cls-21" d="M129.92,102.91l-1.45,4.25s-2.29.28-2.72.75c0,0-.26.34.87.23a17,17,0,0,1,3.56.08c1.13.14,2.42.54,3,.53s-.63-.64-1.37-.8l-.69-.17s1.68.24,2.21.29-.36-.86-3-.93l-.76,0s1.11-3,1.41-4.33S130.64,101.4,129.92,102.91Z"/><path class="cls-20" d="M127.55,107.62s2.66-.45,3.72,0-3.8.41-3.8.41Z"/><path class="cls-21" d="M128,103.31l-1.21,4.33s-2.28.41-2.68.89c0,0-.24.35.88.19a16.93,16.93,0,0,1,3.56-.11c1.14.07,2.45.4,3,.37s-.66-.62-1.42-.73l-.7-.13s1.7.15,2.23.17-.41-.84-3.09-.77l-.75.06s.93-3.09,1.17-4.4S128.67,101.77,128,103.31Z"/><path class="cls-22" d="M133.55,82.65c-.14,1.4-.14,2.61-.14,2.61.69,3.95-1.95,5.19-1.95,5.19-5.91-.53-9.32,1.28-9.32,1.28-1.92-3.3-2-.21-2-.21C116.38,87,117,90.24,117,90.24c-5.92-2.93-2.4,2.13-2.4,2.13-4.1-.05,2,4.58,2,4.58,1.49,5.44,8.32,5.49,8.32,5.49,3.89,3.79,7.07,0,7.07,0a14.51,14.51,0,0,0,5.34-2.07c6.51-4.27-.31-15.54-.31-15.54a10.11,10.11,0,0,0-1.31-2.18s.18-1.07-.82-1.19A1.26,1.26,0,0,0,133.55,82.65Z"/><path class="cls-23" d="M133.61,97.7s-3.18-4.61-11.32-3c0,0-1.2.66,0,1.62,0,0-5.57-1.44-3.53.71,0,0-1.44,2.4,3.41,2.76,0,0-1.56,2.69,2.64,2.09C124.81,101.89,138,102.91,133.61,97.7Z"/><ellipse class="cls-24" cx="125.79" cy="91.48" rx="0.9" ry="0.26"/><ellipse class="cls-24" cx="124.18" cy="91.96" rx="0.71" ry="0.2"/><path class="cls-23" d="M136.1,92.93c-.2.36-.41.82-.13,1.2a.86.86,0,0,0,.94.22l.12,0c.07,0,.06,0,0,0s.13.13.21.18a1.06,1.06,0,0,0,.52.19,1.1,1.1,0,0,0,1-.52l-.27,0a1,1,0,0,0,1.16.21.66.66,0,0,0,.24-.89c-.12-.18-.41,0-.29.18a.31.31,0,0,1-.16.44c-.23.12-.53,0-.71-.18a.18.18,0,0,0-.27,0,.72.72,0,0,1-.75.35.8.8,0,0,1-.4-.23.28.28,0,0,0-.26-.11,2.55,2.55,0,0,0-.33.11.59.59,0,0,1-.39,0c-.33-.2-.07-.66.06-.9a.17.17,0,0,0-.29-.17Z"/><path class="cls-25" d="M141.29,78.48s1.13-3.53-9.47-3.6c0,0-2.29.24-.6,2.22,0,0-4,2.54-1.69,4.26,0,0-1.55,3.58.62,2.41,0,0-1,3.08,2,1.07l5.38-3.45,1.86-2.1Z"/><path class="cls-22" d="M142.65,82c-.6,3.11,0,5.4-5.34,5.4A5.35,5.35,0,0,1,131.69,82a5.74,5.74,0,0,1,5.74-5.74C140.6,76.23,143.47,77.74,142.65,82Z"/><path class="cls-25" d="M139.74,85.93s-1.5,3.47,1.06,4.33,3.51-3.28.34-4.56A1.18,1.18,0,0,0,139.74,85.93Z"/><path class="cls-4" d="M141.66,87.24a1.77,1.77,0,0,1-1.57-.81,1.86,1.86,0,0,0-.71-1.05s.62-.31.69-.59c0,0,1-2.1,2.46-2a3.4,3.4,0,0,1,2.1,3.2.8.8,0,0,0-.31,0S143.81,87.18,141.66,87.24Z"/><g class="cls-26"><path class="cls-27" d="M138.67,85.21a6.29,6.29,0,0,0,3.28.46,4.38,4.38,0,0,1,2.92.52s-1.47,1.9-1.41,1.9l-4.08-.72Z"/></g><circle class="cls-15" cx="138.85" cy="81.53" r="2.11"/><path d="M139.15,80.24l-.21,0a.71.71,0,1,1-1.05.8,1.46,1.46,0,0,0-.11.55,1.37,1.37,0,1,0,1.37-1.37Z"/><path class="cls-10" d="M123.75,96a11,11,0,0,1,5.09.76c.21.1,1.23.24,1.43.37l5.84-.16s1.14,0,1.09.89c0,0,.16.64-2.29.88l-3.82.47-.68.12-.07.4,4.73.88s2.11,0,2.2,1c0,0,.29,1.2-2.68.84l-5.08-.53-.14,0s.25,1.46-1.56,1.57a1.78,1.78,0,0,1-1.88,1,9.09,9.09,0,0,1-4.71-1.7s-6.61-2.71-7.36-5,.56-3.37,2.38-3.21S123.75,96,123.75,96Z"/><path class="cls-10" d="M128.61,101.42l5.51,2.65s1.44.49.89,1.56c0,0-.44.69-2.26-.12l-5-2.11.3-1.28Z"/><path class="cls-10" d="M126.39,102.6l5.07,3.39s1.35.69.66,1.67c0,0-.53.63-2.21-.43l-4.64-2.77.47-1.23Z"/><path class="cls-10" d="M124.12,96.08a20.14,20.14,0,0,1,5.38-2.56s2.48.12-1.31,3.39l-3.28,1.31-.85-2"/><path class="cls-10" d="M131.68,89.41a11,11,0,0,0-5.13-.4c-.24,0-1.26,0-1.49,0l-5.65-1.46s-1.1-.3-1.26.62c0,0-.3.59,2,1.37l3.62,1.31.63.27,0,.4-4.81-.19s-2.06-.46-2.37.48c0,0-.54,1.11,2.43,1.42l5.07.62.13.07s-.57,1.36,1.16,1.88a1.78,1.78,0,0,0,1.61,1.4,9,9,0,0,0,5-.6s7-1.17,8.3-3.26.2-3.42-1.6-3.67S131.68,89.41,131.68,89.41Z"/><path class="cls-10" d="M125.73,93.59l-6,1.35s-1.51.16-1.21,1.32c0,0,.27.78,2.23.39l5.34-.94V94.4Z"/><path class="cls-10" d="M127.63,95.24l-5.7,2.17s-1.46.37-1,1.48c0,0,.37.73,2.25.07l5.14-1.67-.18-1.3Z"/><path class="cls-10" d="M131.31,89.38a20.69,20.69,0,0,0-4.68-3.7s-2.44-.43.52,3.6l2.91,2,1.26-1.71"/><path class="cls-2" d="M110.9,90.65s-1.35,3.86-.55,6.56,7.91,7.11,10.81,6.71,4.21-7.11,2.81-8.71-7.81-3.1-10.32-3.31C113.65,91.9,113.26,89.09,110.9,90.65Z"/><path class="cls-2" d="M146.17,87s2,3.64.72,6.14S136.28,98.93,133.51,98s-2.73-7.79-1-9.09,8.27-1.51,10.76-1.22C143.23,87.66,144.17,85,146.17,87Z"/></svg>