<svg id="Layer_2" data-name="Layer 2" xmlns="http://www.w3.org/2000/svg" xmlns:xlink="http://www.w3.org/1999/xlink" viewBox="0 0 260 168"><defs><style>.cls-1{fill:#d8d8d8;}.cls-2{fill:#cbcccd;}.cls-3{fill:#fff;}.cls-4{fill:#5c1b09;}.cls-5{fill:#f9cc3d;}.cls-6{fill:#cccdce;}.cls-7{fill:#027baa;}.cls-8{clip-path:url(#clip-path);}.cls-18,.cls-9{fill:none;}.cls-9{stroke:red;stroke-miterlimit:10;stroke-width:0.73px;}.cls-10{fill:#1d94dc;}.cls-11{fill:#813a24;}.cls-12{fill:#592415;}.cls-13{fill:#190000;}.cls-14{clip-path:url(#clip-path-2);}.cls-15{fill:#eaeaea;}.cls-16{clip-path:url(#clip-path-3);}.cls-17{clip-path:url(#clip-path-4);}.cls-18{stroke:#461c11;stroke-linecap:round;stroke-linejoin:round;stroke-width:1px;}.cls-19{clip-path:url(#clip-path-5);}.cls-20{fill:#ff4a4a;}.cls-21{fill:#0083c4;}.cls-22{fill:#893a04;}.cls-23{fill:#9e4407;}.cls-24{fill:#ff1515;}.cls-25{fill:#d60707;}.cls-26{fill:#ff6e6e;}.cls-27{fill:#af0c0c;}.cls-28{clip-path:url(#clip-path-6);}.cls-29{fill:#f7b03e;}</style><clipPath id="clip-path"><path class="cls-1" d="M142.38,97.48c-.12-1.09-1.26-10.56-1.12-13.61s0-5.39-1.09-6.19-7.57-1.6-7.77-1.58-6.41-.29-7.67-.06c0,0-6.15,1-7.24,2.15s-1.06,9.83-.84,13c0,0-.94,10.11-.79,12.49s4.16,2.08,9.5,2.08,12.77.15,14.7-.3S143.36,106.47,142.38,97.48Z"/></clipPath><clipPath id="clip-path-2"><path class="cls-2" d="M118,35.09s-12.69,3.64-13.89,12.59a16.86,16.86,0,0,0,2.09,7.58,84,84,0,0,1,16.18-6.36,92,92,0,0,1,15.93-3S139.87,30.35,118,35.09Z"/></clipPath><clipPath id="clip-path-3"><ellipse class="cls-3" cx="117.33" cy="62.2" rx="3.07" ry="4.61" transform="translate(-12.29 33.34) rotate(-15.38)"/></clipPath><clipPath id="clip-path-4"><ellipse class="cls-3" cx="132.17" cy="58.12" rx="3.07" ry="4.61" transform="translate(-10.68 37.13) rotate(-15.38)"/></clipPath><clipPath id="clip-path-5"><path class="cls-4" d="M122,68.54a24,24,0,0,0,9.1-2.7S130.13,76.08,122,68.54Z"/></clipPath><clipPath id="clip-path-6"><path class="cls-5" d="M142.29,84.69a1.78,1.78,0,0,1-1.69-.54,1.82,1.82,0,0,0-.87-.91s.56-.41.58-.69c0,0,.66-2.25,2.09-2.42a3.39,3.39,0,0,1,2.6,2.8.73.73,0,0,0-.31,0S144.39,84.27,142.29,84.69Z"/></clipPath></defs><ellipse class="cls-6" cx="129.74" cy="115.7" rx="14.99" ry="2.12"/><path class="cls-7" d="M118.24,105.42s-2.82.15-3.12,4.6,6.38,6.39,17.52,6.83,13.06-2.82,10.69-7.72S130.86,103.94,118.24,105.42Z"/><path class="cls-2" d="M114.38,94.71a6.34,6.34,0,0,0,2.92.51c1.36-3.91,4.34-10.61,3.89-13.61-.46-3.16-1.76-5.65-3.7-3.38,0,0-4.68,4.76-5.92,9.86-.18.72-.42,1.55-.71,2.43A6.23,6.23,0,0,0,114.38,94.71Z"/><path class="cls-2" d="M144.07,92.67a7.14,7.14,0,0,0,2.63-1.61,5.72,5.72,0,0,0,.55-.65c-.27-.84,0-2.6-.2-3.29-1.24-5.1-6.39-8.89-6.39-8.89-1.94-2.27-3.24.22-3.7,3.38-.39,2.62,1.83,8.07,3.3,12A14.29,14.29,0,0,0,144.07,92.67Z"/><path class="cls-1" d="M142.38,97.48c-.12-1.09-1.26-10.56-1.12-13.61s0-5.39-1.09-6.19-7.57-1.6-7.77-1.58-6.41-.29-7.67-.06c0,0-6.15,1-7.24,2.15s-1.06,9.83-.84,13c0,0-.94,10.11-.79,12.49s4.16,2.08,9.5,2.08,12.77.15,14.7-.3S143.36,106.47,142.38,97.48Z"/><g class="cls-8"><path class="cls-2" d="M122.31,76s1,4.47,5.08,5.19V98.49h2.77V81.2s5.92-1.31,5.1-5.75Z"/><path class="cls-9" d="M121.43,95.84c.3,1.9-.61,5.55,1.22,5.55,4.56.91,9.12,3.65,13.68-.91,1.82-8.21-3.65-20.07,4.55-24.93"/><path class="cls-9" d="M118.54,75.19c4.66,4.2,2.87,13,2.88,18.57"/><path class="cls-10" d="M122.54,95.05c-1.14,5.81,5.77,5.7,9.42,3.94l-.46-.06c.28.29.65.84,1,1,.84.32,2.1-.79,2.89-.88a.39.39,0,0,0,.33-.58c-2.61-3.71-.2-8.66,0-12.74A2.35,2.35,0,0,0,135.4,84a1.29,1.29,0,0,1-.29-1.44c.14-.52.32-1,.48-1.56.64-2.19,1.2-4.4,1.82-6.59a.38.38,0,0,0-.74-.2c-.66,2.32-1.25,4.67-1.94,7-.23.75-.8,1.72-.52,2.5.13.36.4.52.6.83A2.42,2.42,0,0,1,135,86.1c-.33,4.11-2.54,9,.1,12.75l.34-.58c-.83.09-1.44.7-2.21.83-.47.08-.33.12-.71-.26l-.46-.46a.41.41,0,0,0-.47-.06c-3,1.44-9.28,2-8.28-3.07.09-.48-.65-.69-.75-.2Z"/><path class="cls-10" d="M120.63,75.53c3.55,5.25,3.32,11.73,2,17.69-.1.48.64.69.74.2,1.33-6.14,1.55-12.86-2.12-18.28-.27-.41-.94,0-.66.39Z"/><path class="cls-10" d="M120.28,94.19a3.64,3.64,0,0,1-.55-3.12c.17-.71.75-1.36.43-2.09a3.07,3.07,0,0,0-.45-.62,1.35,1.35,0,0,1-.19-1.28,18.75,18.75,0,0,0,.32-2.25,12.09,12.09,0,0,0-2.9-9.13c-.31-.35-.82.16-.51.51a11.89,11.89,0,0,1,2.48,10.18,3.42,3.42,0,0,0-.18,1.84c.23.61.85.77.68,1.53a8.7,8.7,0,0,0-.53,2.72,3.92,3.92,0,0,0,.77,2.08c.28.38.91,0,.63-.37Z"/><path class="cls-10" d="M142.46,75.6c-6.2,6.38-3.18,15.78-3.66,23.67-.52,8.56-11.23,5.86-16.7,4.86a10.66,10.66,0,0,1-2.58-.53c-1.08-.52-1-1.63-.72-2.63.37-1.58,1.23-3.16,1-4.82-.07-.46-.77-.27-.7.19.35,2.29-3.1,6.9.46,8.06a38.73,38.73,0,0,0,4.94.91,45.84,45.84,0,0,0,5.49.74c2.91.17,6.32-.16,8.22-2.68a8.24,8.24,0,0,0,1.39-5c.07-2.3-.1-4.6-.23-6.89-.3-5.41-.4-11.23,3.64-15.39a.36.36,0,0,0-.52-.51Z"/></g><path class="cls-11" d="M125.92,73.27a3.46,3.46,0,0,1-.75,3.06,4,4,0,0,0,3.71,2.07,5.07,5.07,0,0,0,4.05-1.78s-1.39-.8-1.28-3.53Z"/><ellipse class="cls-12" cx="137.99" cy="58.02" rx="3.11" ry="3.95" transform="translate(-10.45 38.67) rotate(-15.38)"/><ellipse class="cls-12" cx="112.43" cy="65.05" rx="3.11" ry="3.95" transform="translate(-13.22 32.14) rotate(-15.38)"/><path class="cls-11" d="M111.15,61.74s1.79,4,2.28,5.27,2.21,10.89,15.38,7.32,9.82-10.71,9.55-13.35-1.07-4.69-1-5.7c0,0-.77-15.1-17.63-10.46C103.52,49.29,111.15,61.74,111.15,61.74Z"/><path class="cls-13" d="M106.07,54.88s.39,2.16,1.69,2.86c0,0,1.48,3.92,3.39,4s-.1-4.1-.1-4.1,1.5-.06.65-3.15c0,0,1.63-.1,1.91-.93,0,0,1.47,1.31,3.85-1.21,0,0,2.26,1.85,5.35-1.57,0,0,2.19,1.71,4.39-.91,0,0,2.49,1.38,4.63-1.62,0,0,0,2.66,3.25,2.81,0,0,.51,3.71,2.49,4,0,0,.59-.34.29-1.62,0,0,1.61-.67.62-3.87a6.19,6.19,0,0,0-.34-4S121.38,47.6,106.07,54.88Z"/><path class="cls-2" d="M118,35.09s-12.69,3.64-13.89,12.59a16.86,16.86,0,0,0,2.09,7.58,84,84,0,0,1,16.18-6.36,92,92,0,0,1,15.93-3S139.87,30.35,118,35.09Z"/><g class="cls-14"><path class="cls-15" d="M103.25,54.15s2.76-3.53,18.67-7.91S143.44,44,143.44,44l-.88,6.14L104.14,60.42Z"/></g><ellipse class="cls-3" cx="117.33" cy="62.2" rx="3.07" ry="4.61" transform="translate(-12.29 33.34) rotate(-15.38)"/><g class="cls-16"><path d="M119.72,63.8a1.13,1.13,0,0,1-2.15.45,1.11,1.11,0,0,1,0-.89l-.32.13a2.35,2.35,0,1,0,3.14,1.11A2.38,2.38,0,0,0,119.72,63.8Z"/></g><ellipse class="cls-3" cx="132.17" cy="58.12" rx="3.07" ry="4.61" transform="translate(-10.68 37.13) rotate(-15.38)"/><g class="cls-17"><path d="M134.81,59.92a1.13,1.13,0,0,1-.8.86,1.15,1.15,0,0,1-1.4-.79,1.16,1.16,0,0,1,.12-.88l-.34.06a2.36,2.36,0,1,0,2.9,1.65A2.3,2.3,0,0,0,134.81,59.92Z"/></g><ellipse class="cls-12" cx="125.67" cy="63.29" rx="2.79" ry="1.48" transform="translate(-12.28 35.59) rotate(-15.38)"/><path class="cls-18" d="M112.37,57.93s2.39-4.89,6.78-2.39"/><path class="cls-18" d="M134.19,51.93s-4.56-3-7,1.41"/><path class="cls-4" d="M122,68.54a24,24,0,0,0,9.1-2.7S130.13,76.08,122,68.54Z"/><g class="cls-19"><ellipse class="cls-3" cx="126.44" cy="66.76" rx="4.14" ry="2.2" transform="translate(-13.18 35.92) rotate(-15.38)"/><ellipse class="cls-20" cx="127.86" cy="71.92" rx="4.14" ry="2.2" transform="translate(-14.49 36.48) rotate(-15.38)"/></g><circle class="cls-11" cx="121.13" cy="110.34" r="3.49"/><path class="cls-11" d="M117.8,110.49s1.51,11.81,1.91,14.66c0,0,2.63,2.24,7-.49,0,0-.22-8.18-2.52-14.27C124.17,110.39,120.15,106.7,117.8,110.49Z"/><path d="M127.55,126s-.16-3.21-4.44-2.48-3.82,3.37-3.82,3.37a5.8,5.8,0,0,0-2,5.64c.59,3.85,11.89,1.79,11.63-1.21S128.13,126.3,127.55,126Z"/><path class="cls-21" d="M118.53,122.21s1.34-3.66,2.38-6.06,4.3,3.94,5.64,5.21,2.82-.84,1.78-7.6-2.67-9-8-8.59-5.64,4.79-5.34,8.17S117.05,123.61,118.53,122.21Z"/><circle class="cls-11" cx="137.44" cy="110.05" r="3.49"/><path class="cls-11" d="M140.77,110.2s-1.52,11.81-1.91,14.65c0,0-2.64,2.25-7-.48,0,0,.22-8.19,2.53-14.28C134.4,110.09,138.42,106.4,140.77,110.2Z"/><path d="M131,125.65s.16-3.21,4.44-2.48,3.82,3.37,3.82,3.37a5.81,5.81,0,0,1,1.95,5.64c-.59,3.85-11.89,1.79-11.64-1.21S130.44,126,131,125.65Z"/><path class="cls-21" d="M140,121.91s-1.33-3.66-2.37-6-4.31,3.94-5.64,5.2-2.82-.84-1.78-7.6,2.67-9,8-8.58,5.64,4.78,5.35,8.16S141.52,123.32,140,121.91Z"/><path class="cls-6" d="M114.67,104.83s2.68-1.64,12.33-1.64,15.14.45,16.77,3.57,1.49,7.57.59,7.86-1.33-7.57-3.11-8.46-8.76-.59-11.58,0-9.5-1-10.69-.44-5.79,1.18-3.42,10.39C115.56,116.11,109.92,113.44,114.67,104.83Z"/><path class="cls-22" d="M133.34,106.43s2.6-.74,3.71-.36-3.73.84-3.73.84Z"/><path class="cls-23" d="M133.33,102.1l-.71,4.44s-2.21.66-2.56,1.19c0,0-.2.38.9.09a16.62,16.62,0,0,1,3.52-.52c1.15-.06,2.48.13,3,0s-.72-.54-1.49-.56l-.7,0s1.69,0,2.22-.09-.49-.79-3.15-.41l-.74.14s.58-3.18.66-4.5S133.8,100.49,133.33,102.1Z"/><path class="cls-22" d="M131.79,107.14s2.55-.88,3.68-.56-3.68,1-3.68,1Z"/><path class="cls-23" d="M131.54,102.82l-.47,4.46s-2.18.79-2.49,1.34c0,0-.18.38.9,0a17.86,17.86,0,0,1,3.49-.71c1.14-.11,2.48,0,3-.13s-.76-.5-1.52-.48h-.71s1.69-.14,2.22-.21-.54-.76-3.17-.23l-.73.18s.4-3.21.42-4.53S131.92,101.19,131.54,102.82Z"/><path class="cls-24" d="M133.52,81.52c.1,1.41.3,2.6.3,2.6,1.34,3.78-1,5.44-1,5.44-5.92.47-9,2.83-9,2.83-2.44-2.94-2,.13-2,.13-4.44-3.84-3.31-.74-3.31-.74-6.33-1.9-2,2.51-2,2.51-4.06.63,2.71,4.19,2.71,4.19,2.38,5.1,9.12,4,9.12,4,4.47,3.08,7-1.18,7-1.18a14.65,14.65,0,0,0,4.92-3c5.7-5.29-2.91-15.26-2.91-15.26a10.35,10.35,0,0,0-1.66-1.93s0-1.08-1-1A1.26,1.26,0,0,0,133.52,81.52Z"/><path class="cls-25" d="M136.1,96.35s-3.9-4-11.66-1c0,0-1.07.85.27,1.59,0,0-5.73-.48-3.36,1.3,0,0-1,2.61,3.83,2.15,0,0-1.09,2.91,2.95,1.62C128.13,102,141.34,100.75,136.1,96.35Z"/><ellipse class="cls-26" cx="127.35" cy="91.53" rx="0.9" ry="0.26" transform="translate(-13.53 22.63) rotate(-9.64)"/><ellipse class="cls-26" cx="125.84" cy="92.27" rx="0.71" ry="0.2" transform="translate(-13.68 22.39) rotate(-9.64)"/><path class="cls-25" d="M137.75,91.25a1.13,1.13,0,0,0,0,1.14.83.83,0,0,0,1,.11l.12-.07c.06,0,0,0,.07,0s.17.1.26.14a1.18,1.18,0,0,0,.56,0,1.09,1.09,0,0,0,.79-.68l-.25.1a1,1,0,0,0,1.19,0,.65.65,0,0,0,.06-.9c-.15-.16-.39.08-.24.24a.33.33,0,0,1-.09.45.75.75,0,0,1-.75-.06.17.17,0,0,0-.25.1.72.72,0,0,1-.65.45.83.83,0,0,1-.43-.13c-.11-.07-.19-.14-.32-.09s-.21.13-.33.17a.49.49,0,0,1-.41,0c-.29-.18-.12-.63,0-.88s-.25-.29-.33-.09Z"/><path class="cls-27" d="M140.45,76.11s.52-3.67-9.94-2c0,0-2.22.62-.22,2.29,0,0-3.5,3.17-.95,4.48,0,0-.93,3.8,1,2.28,0,0-.5,3.21,2.19.72l4.72-4.31,1.49-2.38Z"/><path class="cls-24" d="M142.38,79.32c-.08,3.17.88,5.33-4.36,6.22a5.35,5.35,0,0,1-6.44-4.38,5.74,5.74,0,0,1,4.69-6.62C139.4,74,142.48,75,142.38,79.32Z"/><path class="cls-27" d="M140.18,83.72s-.91,3.67,1.76,4.09,2.91-3.82-.43-4.55A1.17,1.17,0,0,0,140.18,83.72Z"/><path class="cls-5" d="M142.29,84.69a1.78,1.78,0,0,1-1.69-.54,1.82,1.82,0,0,0-.87-.91s.56-.41.58-.69c0,0,.66-2.25,2.09-2.42a3.39,3.39,0,0,1,2.6,2.8.73.73,0,0,0-.31,0S144.39,84.27,142.29,84.69Z"/><g class="cls-28"><path class="cls-29" d="M139,83.19a6.29,6.29,0,0,0,3.31-.09,4.36,4.36,0,0,1,3,0s-1.14,2.12-1.08,2.11-4.14,0-4.14,0Z"/></g><circle class="cls-3" cx="138.56" cy="79.53" r="2.11"/><path d="M138.13,77.49l-.2.05a.72.72,0,0,1-.13,1.38.72.72,0,0,1-.77-.41,1.5,1.5,0,0,0,0,.56,1.36,1.36,0,0,0,1.58,1.12,1.37,1.37,0,1,0-.46-2.7Z"/><path class="cls-11" d="M124.27,94.67a10.94,10.94,0,0,1,5.14.28c.22.08,1.25.13,1.46.24l5.8-.71s1.13-.16,1.17.78c0,0,.22.62-2.2,1.09l-3.76.82-.66.19,0,.4,4.8.44s2.1-.19,2.28.79c0,0,.4,1.16-2.59,1.08l-5.11,0-.13,0s.39,1.43-1.4,1.71a1.79,1.79,0,0,1-1.78,1.18,9.11,9.11,0,0,1-4.85-1.24s-6.84-2.08-7.8-4.32.24-3.41,2.06-3.42S124.27,94.67,124.27,94.67Z"/><path class="cls-11" d="M129.62,99.59l5.74,2.12s1.47.35,1,1.46c0,0-.38.74-2.26.1L129,101.64l.18-1.3Z"/><path class="cls-11" d="M127.52,101l5.37,2.89s1.4.56.81,1.6c0,0-.47.68-2.24-.22l-4.88-2.32.35-1.27Z"/><path class="cls-11" d="M124.64,94.69a20.29,20.29,0,0,1,5.12-3s2.48-.11-1,3.5l-3.15,1.62-1-1.87"/><path class="cls-11" d="M132.36,86.34a10.87,10.87,0,0,0-4.94-1.45c-.24,0-1.22-.29-1.46-.26L120.73,82s-1-.52-1.37.35c0,0-.41.51,1.72,1.76l3.27,2,.56.4-.1.39-4.67-1.18s-1.92-.87-2.41,0c0,0-.76,1,2.08,1.88l4.84,1.65.1.09s-.83,1.22.76,2.08a1.79,1.79,0,0,0,1.28,1.71,9.17,9.17,0,0,0,5,.43s7.14.31,8.79-1.48.91-3.3-.81-3.92S132.36,86.34,132.36,86.34Z"/><path class="cls-11" d="M125.68,89.2l-6.12.1s-1.5-.16-1.45,1c0,0,.11.82,2.1.84l5.42.18.26-1.28Z"/><path class="cls-11" d="M127.2,91.21l-6,1s-1.5.06-1.29,1.24c0,0,.21.79,2.18.54l5.38-.58.09-1.32Z"/><path class="cls-11" d="M132,86.23a20.54,20.54,0,0,0-3.82-4.58s-2.3-.92-.23,3.63l2.43,2.57L132,86.44"/><path class="cls-2" d="M111,90.53s-1,4,.06,6.58,8.55,6.34,11.4,5.67,3.52-7.48,2-8.94-8.06-2.35-10.57-2.32C113.84,91.52,113.18,88.76,111,90.53Z"/><path class="cls-2" d="M147,86.93s1.24,4-.56,6.15-11.58,3.52-14.09,2-1.07-8.19.85-9.11,8.4.22,10.78,1C144,87,145.49,84.57,147,86.93Z"/></svg>