<svg id="Layer_4" data-name="Layer 4" xmlns="http://www.w3.org/2000/svg" xmlns:xlink="http://www.w3.org/1999/xlink" viewBox="0 0 260 168"><defs><style>.cls-1{fill:#d8d8d8;}.cls-2{fill:#cbcccd;}.cls-3{fill:#5c1c09;}.cls-4{fill:#591f12;}.cls-5{fill:#0466af;}.cls-6{fill:#0083c4;}.cls-7{fill:#813a24;}.cls-8{fill:#cccdce;}.cls-9{clip-path:url(#clip-path);}.cls-10,.cls-11,.cls-15{fill:none;}.cls-10{stroke:red;stroke-width:0.91px;}.cls-10,.cls-11{stroke-miterlimit:10;}.cls-11{stroke:#1d94dc;stroke-width:0.7px;}.cls-12{fill:#1d94dc;}.cls-13{fill:#190000;}.cls-14{fill:#fff;}.cls-15{stroke:#461c11;stroke-linecap:round;stroke-linejoin:round;stroke-width:1.24px;}.cls-16{clip-path:url(#clip-path-2);}.cls-17{fill:#eaeaea;}.cls-18{clip-path:url(#clip-path-3);}.cls-19{fill:#ff4a4a;}</style><clipPath id="clip-path"><path class="cls-1" d="M34.48,74.22s-4.58.91-6.35,5-3.71,28.53-4.3,30.66,24.22,2.76,27.32,1.24c0,0-1.59-22.45-6.47-30.83l-3.1-4.42S42.91,80.47,34.48,74.22Z"/></clipPath><clipPath id="clip-path-2"><path class="cls-2" d="M46.28,24.86s15.14,1.8,18.1,12.52a22.72,22.72,0,0,1-1,9.74,90.53,90.53,0,0,0-19.61-4.39,120.37,120.37,0,0,0-19.61-.5S20.43,23.66,46.28,24.86Z"/></clipPath><clipPath id="clip-path-3"><path class="cls-3" d="M56.51,68.09s-.44,5.16-4.66,4.19-2.37-5.42-2.37-5.42c3.5,3.55,6.78,1.46,6.78,1.46A.92.92,0,0,0,56.51,68.09Z"/></clipPath></defs><rect class="cls-4" x="21.21" y="133.1" width="6.72" height="8.51" transform="translate(-25.34 267.66) rotate(-148.9)"/><rect class="cls-4" x="47.29" y="135.78" width="6.72" height="8.51" transform="translate(169.5 229.77) rotate(146.94)"/><rect class="cls-5" x="36.7" y="111.03" width="14.9" height="30.89" rx="1.75" transform="translate(148.57 210.39) rotate(148.03)"/><path d="M49.41,144.83s1.11-1,2.15-1.82c0,0-.67-3,1.65-4.36s3.69-1.27,5.07.16c0,0,3.57-1.7,5.31.56s-1.08,4.71-3.86,6.42-8,3-8.64,2.47S49,145.62,49.41,144.83Z"/><path class="cls-6" d="M20.9,135.62l9.65,6.08a1.74,1.74,0,0,0,2.4-.55L47.55,118a1.74,1.74,0,0,0-.55-2.41l-9.65-6.08c-.81-.51-4.34-1.83-4.85-1L20.35,133.21A1.74,1.74,0,0,0,20.9,135.62Z"/><path d="M19.72,138.32s1.35.58,2.57,1.14c0,0,2.42-1.91,4.64-.41s2.76,2.77,2.07,4.63c0,0,3.09,2.47,1.81,5s-4.71,1.08-7.46-.68-6.16-5.87-6-6.69S18.85,138.34,19.72,138.32Z"/><path class="cls-7" d="M24.76,109.67l-1.89,3.83c-.2.41-.49.89-.95.91-.69,0-1-.88-1-1.57a17.44,17.44,0,0,1,.2-2.61c-.62-.18-1.18.41-1.56.94L16.14,116a1,1,0,0,1-.84-.88,2.94,2.94,0,0,1,.11-1.28L16.53,109a19.92,19.92,0,0,1,.82-2.86,9.39,9.39,0,0,1,1.77-2.82,4.41,4.41,0,0,1,2.18-1.44,3.43,3.43,0,0,1,3.13,1.1C26.2,104.85,25.82,107.52,24.76,109.67Z"/><ellipse class="cls-7" cx="18.35" cy="112.24" rx="4.53" ry="1.52" transform="translate(-82.62 59.89) rotate(-53.31)"/><ellipse class="cls-7" cx="16.93" cy="111.19" rx="3.88" ry="1.3" transform="translate(-87.72 69.97) rotate(-59.84)"/><ellipse class="cls-7" cx="16.9" cy="110.01" rx="3.88" ry="1.3" transform="translate(-86.71 69.36) rotate(-59.84)"/><ellipse class="cls-7" cx="17.66" cy="107.43" rx="3.88" ry="1.3" transform="matrix(0.5, -0.86, 0.86, 0.5, -84.11, 68.73)"/><path class="cls-8" d="M41.72,76.6s2.34,3.05.21,8.06S32,103.26,29.37,106.12c0,0-2.66,3.28-10.37-2.53,0,0-1.44-1.44.28-3.4S30.12,85.41,33.48,81,40.27,74.57,41.72,76.6Z"/><polygon class="cls-7" points="34.58 79.74 41.55 79.74 41.55 70.89 34.58 69.69 34.58 79.74"/><path class="cls-1" d="M50.6,108.13s5.11,19.92,4.49,22.59-5.21,7.74-12.62,5.27c0,0-8.69-16.8-8.89-20.3s-12.4,16.13-12.4,16.13-.19,1.35-1.43-1.54,4.08-22.7,4.08-22.7S27,101.4,50.6,108.13Z"/><path class="cls-1" d="M34.48,74.22s-4.58.91-6.35,5-3.71,28.53-4.3,30.66,24.22,2.76,27.32,1.24c0,0-1.59-22.45-6.47-30.83l-3.1-4.42S42.91,80.47,34.48,74.22Z"/><g class="cls-9"><path class="cls-2" d="M30.42,71.75s3.43,7.41,10.3,7.82c0,0,4.67,4,6.18,21.56l3.57-.14-4-29.52Z"/><path class="cls-10" d="M28.91,75s7.42,3.57,8.93,7.55,2.88,20.18,4.11,22.65,10.85,1.24,10.85,1.24"/><path class="cls-11" d="M30.82,75c1.85-.16,3.09,1.85,4.79,2.58.57.24,1.26.37,1.59.89.23.35.24.8.45,1.15a3.76,3.76,0,0,0,1.12.93,3.23,3.23,0,0,1,1.13,3.54A2.29,2.29,0,0,1,41.63,86a6.79,6.79,0,0,1-.23,2.72A2.34,2.34,0,0,1,42,93a3.89,3.89,0,0,1,.76,5,5.17,5.17,0,0,1,1.32,4.64,1.8,1.8,0,0,1,2.05,1.45,1.62,1.62,0,0,1,2.77.35,2.22,2.22,0,0,1,3.77,0"/><path class="cls-12" d="M27.87,76.92a9.57,9.57,0,0,1,4.45,3.46c1,1.51,1.26,3.23,2,4.85A7.19,7.19,0,0,1,35,86.68a10.17,10.17,0,0,1,0,1.83,5,5,0,0,0,.66,2.19,5.84,5.84,0,0,1,.83,3,7.82,7.82,0,0,0,.32,2.89,14.27,14.27,0,0,1,.89,2.85,27.85,27.85,0,0,0,.31,2.88,17.48,17.48,0,0,0,2.35,5.12c.8,1.32,1.47,2.12,3.06,2,.82-.06,1.3.37,2.08.48s1-.35,1.65-.6c.92-.38,1.81.3,2.75,0s1.23-1.28,2.28-1.35c1.37-.1,3,.52,3.59-1.25.23-.72-.9-1-1.13-.31-.27.89-1.85.39-2.46.38a2.42,2.42,0,0,0-1.62.52c-.4.33-.48.57-1,.73a2.15,2.15,0,0,1-1.28-.07,2.46,2.46,0,0,0-1.7.3,1.64,1.64,0,0,1-1.38.25c-.24-.07-.45-.24-.7-.31-.81-.24-1.55.26-2.33-.27a7.21,7.21,0,0,1-1.43-2.24A15.85,15.85,0,0,1,39.43,103c-.6-1.77-.35-3.66-1-5.42a10,10,0,0,1-.81-2.78,20.36,20.36,0,0,0,0-2.59,7,7,0,0,0-.82-2,6.27,6.27,0,0,1-.58-3.1,4.64,4.64,0,0,0-.5-1.85,21.28,21.28,0,0,1-1-2.8,10.8,10.8,0,0,0-6.49-6.74c-.7-.27-1,.87-.31,1.13Z"/></g><path class="cls-7" d="M53.74,105.21l2.87,3.16c.31.34.65.78.5,1.22-.22.66-1.17.57-1.81.32A18.25,18.25,0,0,1,53,108.76c-.4.51-.05,1.25.3,1.79l3.2,5a1.07,1.07,0,0,1-1.12.46,3.22,3.22,0,0,1-1.16-.57l-4.12-2.83a19,19,0,0,1-2.36-1.82,9.29,9.29,0,0,1-2-2.68,4.33,4.33,0,0,1-.54-2.55,3.39,3.39,0,0,1,2.17-2.5C49.78,102.11,52.13,103.44,53.74,105.21Z"/><ellipse class="cls-7" cx="53.78" cy="112.12" rx="1.52" ry="4.53" transform="translate(-51.03 45.21) rotate(-31.82)"/><ellipse class="cls-7" cx="52.29" cy="113.06" rx="1.3" ry="3.88" transform="translate(-58.87 56.84) rotate(-38.35)"/><ellipse class="cls-7" cx="51.18" cy="112.65" rx="1.3" ry="3.88" transform="translate(-58.86 56.07) rotate(-38.35)"/><ellipse class="cls-7" cx="49.06" cy="111" rx="1.3" ry="3.88" transform="translate(-58.29 54.4) rotate(-38.35)"/><path class="cls-1" d="M29.18,77.31s3.7-1,7.58,2.76S50.42,96.15,52.13,99.62c0,0,2.07,3.68-6.16,8.72,0,0-1.86.82-3.06-1.5s-9.78-15.5-12.65-20.25S26.76,77.92,29.18,77.31Z"/><path class="cls-13" d="M63.43,49.69a5.51,5.51,0,0,1-1.75,2.62,2.13,2.13,0,0,0-.3.3,1.45,1.45,0,0,0-.14.77,2.14,2.14,0,0,1-.45,1.44,1.73,1.73,0,0,1-2.34-.06,3.73,3.73,0,0,1-1-2.33A8.17,8.17,0,0,1,58.5,47a3.38,3.38,0,0,1,2.71-1.78C63.18,45.3,63.91,48.13,63.43,49.69Z"/><ellipse class="cls-7" cx="44.05" cy="65.89" rx="9.18" ry="15.01" transform="matrix(0.19, -0.98, 0.98, 0.19, -29.04, 96.54)"/><path class="cls-7" d="M27,52.94C25.88,63.8,31,73.1,40.92,74.13s17-7.19,18.81-18C62.73,37.9,70.23,40,45,34.81,35.28,32.82,28.15,42.08,27,52.94Z"/><ellipse class="cls-14" cx="52.72" cy="57.53" rx="5.75" ry="3.82" transform="translate(-13.83 98.29) rotate(-78.98)"/><path d="M50.81,57.78a1.39,1.39,0,0,0,1.08,1,1.41,1.41,0,0,0,1.43-2.19,3,3,0,0,1,.42,0,2.93,2.93,0,1,1-3.44,2.32A2.71,2.71,0,0,1,50.81,57.78Z"/><path class="cls-15" d="M49.76,50.06s5.38-4.13,8.9,1.08"/><ellipse class="cls-7" cx="57.84" cy="62.72" rx="2.27" ry="2.68" transform="translate(-14.78 107.5) rotate(-78.98)"/><path class="cls-13" d="M60.77,49a7.1,7.1,0,0,1-3.62-1.39,4.59,4.59,0,0,1-4.84-1.31,9.24,9.24,0,0,1-7.39-.25A3.05,3.05,0,0,1,43.7,48.7a3.5,3.5,0,0,1-3,.5,2,2,0,0,1,.17,2.19,2.17,2.17,0,0,1-2.06,1,2.42,2.42,0,0,1-.23,2.92,2.76,2.76,0,0,1-3,.55,3.24,3.24,0,0,1-4.77,1,6.7,6.7,0,0,1-3.18-.23,2.81,2.81,0,0,1-1.91-2.29A2.92,2.92,0,0,1,23,53a2.49,2.49,0,0,1,.19-2.8,2.28,2.28,0,0,1-1.14-2.36,4.86,4.86,0,0,1,1.26-2.41,3.85,3.85,0,0,1,2.24-3.86,12.76,12.76,0,0,1,4.81-1.14l8.92-.95c5.87-.61,12.13-1.17,17.46,1.36a31.62,31.62,0,0,1,3.89,2.31c1.13.75,2.83,2,2.87,3.43A2.7,2.7,0,0,1,60.77,49Z"/><path class="cls-2" d="M46.28,24.86s15.14,1.8,18.1,12.52a22.72,22.72,0,0,1-1,9.74,90.53,90.53,0,0,0-19.61-4.39,120.37,120.37,0,0,0-19.61-.5S20.43,23.66,46.28,24.86Z"/><g class="cls-16"><path class="cls-17" d="M66.47,45.15s-3.79-3.76-22.72-5.77-25,1.81-25,1.81l2.09,7.34L66.56,53Z"/></g><path class="cls-13" d="M36.92,60.12a8,8,0,0,1-5.25,1,6.91,6.91,0,0,1-2.83-.7,2.81,2.81,0,0,1-1.54-2.33,3.15,3.15,0,0,1-3.06-1.56,4.34,4.34,0,0,1-.3-3.51A6.34,6.34,0,0,1,29,48.87a8.92,8.92,0,0,1,6.47,1.71C38,52.41,40.12,57.89,36.92,60.12Z"/><ellipse class="cls-7" cx="38.21" cy="56.54" rx="4.93" ry="3.88" transform="translate(-24.59 83.24) rotate(-78.98)"/><path class="cls-3" d="M56.51,68.09s-.44,5.16-4.66,4.19-2.37-5.42-2.37-5.42c3.5,3.55,6.78,1.46,6.78,1.46A.92.92,0,0,0,56.51,68.09Z"/><g class="cls-18"><ellipse class="cls-19" cx="48.9" cy="73.07" rx="3.33" ry="4.08" transform="translate(-32.17 107.11) rotate(-78.98)"/><ellipse class="cls-14" cx="53.31" cy="66.59" rx="3.33" ry="4.08" transform="translate(-22.24 106.19) rotate(-78.98)"/></g><path class="cls-13" d="M29.07,62.24a2.38,2.38,0,0,1-2-1.64,2.9,2.9,0,0,1-2-3.46,3.42,3.42,0,0,1,3.35-2.43,2.81,2.81,0,0,1,1.33.35,3.75,3.75,0,0,1,1.3,1.54,7.24,7.24,0,0,1,.83,2.2,13.74,13.74,0,0,1,.4,1.69C32.3,61.83,30.1,62.4,29.07,62.24Z"/></svg>