<svg id="Layer_1" data-name="Layer 1" xmlns="http://www.w3.org/2000/svg" xmlns:xlink="http://www.w3.org/1999/xlink" viewBox="0 0 260 168"><defs><style>.cls-1{fill:#fff;}.cls-2{fill:none;}.cls-3{fill:#ff8585;}.cls-4{fill:red;}.cls-5{fill:#7f2828;stroke:#7f2828;stroke-miterlimit:10;stroke-width:0.11px;}.cls-6{clip-path:url(#clip-path);}.cls-7{clip-path:url(#clip-path-2);}.cls-8{fill:#870000;}</style><clipPath id="clip-path"><circle class="cls-1" cx="147.21" cy="112.05" r="3.67" transform="translate(-5.62 216.31) rotate(-71.58)"/></clipPath><clipPath id="clip-path-2"><ellipse class="cls-2" cx="161.3" cy="112.27" rx="19.15" ry="10.96" transform="translate(-4.24 6.35) rotate(-2.22)"/></clipPath></defs><path class="cls-3" d="M163,100.78a4.08,4.08,0,0,1-2.76-7.07c-.51.21-4.48,3.18-4.34,7.48s2.36,4.64,5,4.52a4.73,4.73,0,0,0,4.48-4.3,6,6,0,0,0-.2-1.26A4,4,0,0,1,163,100.78Z"/><path class="cls-3" d="M181,107.49c1.12-1.94,3.3-3.7,7.52-3a6.46,6.46,0,0,1-4.32,7.29,7,7,0,0,1,4.76,6.63,6.89,6.89,0,0,1-8.07-3.55A7.72,7.72,0,0,1,181,107.49Z"/><path class="cls-3" d="M166.72,116.08a4.75,4.75,0,0,0-6.72.28c-1.77,1.93-3,3.77.28,6.72s8.38,1.62,8.57,1.41S168.66,117.85,166.72,116.08Z"/><ellipse class="cls-4" cx="161.3" cy="112.27" rx="19.15" ry="10.96" transform="translate(-4.24 6.35) rotate(-2.22)"/><path class="cls-5" d="M149.78,109.4s1.05,0,1.23-.87a1.54,1.54,0,0,1-.65,1.58Z"/><path class="cls-5" d="M150.29,110.07a1.46,1.46,0,0,0,1.67-.49,1.78,1.78,0,0,1-1.31,1.48Z"/><circle class="cls-1" cx="147.21" cy="112.05" r="3.67" transform="translate(-5.62 216.31) rotate(-71.58)"/><g class="cls-6"><circle cx="146.37" cy="109.86" r="2.64" transform="translate(-4.12 214.01) rotate(-71.58)"/><circle class="cls-1" cx="147.2" cy="108.78" r="0.75" transform="translate(-2.53 214.06) rotate(-71.58)"/></g><g class="cls-7"><path class="cls-3" d="M156.34,104a2.59,2.59,0,0,1-2-.63,2.68,2.68,0,0,1-.15-3.87,2.57,2.57,0,0,1,1.91-.78,2.75,2.75,0,0,0-1.77.91,2.56,2.56,0,0,0-.65,1.83,2.61,2.61,0,0,0,.79,1.77A2.77,2.77,0,0,0,156.34,104Z"/><path class="cls-3" d="M156.55,109.25a2.54,2.54,0,0,1-2-.63,2.67,2.67,0,0,1-.16-3.87,2.59,2.59,0,0,1,1.91-.78,2.75,2.75,0,0,0-1.77.91,2.57,2.57,0,0,0-.64,1.83,2.6,2.6,0,0,0,.78,1.77A2.75,2.75,0,0,0,156.55,109.25Z"/><path class="cls-3" d="M156.75,114.53a2.55,2.55,0,0,1-2-.63,2.68,2.68,0,0,1-.15-3.87,2.57,2.57,0,0,1,1.91-.78,2.75,2.75,0,0,0-1.77.91,2.61,2.61,0,0,0,.14,3.6A2.69,2.69,0,0,0,156.75,114.53Z"/><path class="cls-3" d="M157,119.81a2.54,2.54,0,0,1-2-.63,2.66,2.66,0,0,1-.15-3.87,2.59,2.59,0,0,1,1.9-.78,2.75,2.75,0,0,0-1.77.91,2.64,2.64,0,0,0,.14,3.6A2.7,2.7,0,0,0,157,119.81Z"/><path class="cls-3" d="M157.16,125.1a2.6,2.6,0,0,1-2-.64,2.67,2.67,0,0,1-.15-3.86,2.58,2.58,0,0,1,1.91-.79,2.75,2.75,0,0,0-1.77.91,2.62,2.62,0,0,0,.14,3.61A2.79,2.79,0,0,0,157.16,125.1Z"/><path class="cls-3" d="M161,103.79a2.57,2.57,0,0,1-2-.63,2.66,2.66,0,0,1-.15-3.87,2.57,2.57,0,0,1,1.9-.78,2.7,2.7,0,0,0-1.76.91,2.52,2.52,0,0,0-.65,1.83,2.6,2.6,0,0,0,.78,1.77A2.75,2.75,0,0,0,161,103.79Z"/><path class="cls-3" d="M161.17,109.07a2.55,2.55,0,0,1-2-.63,2.7,2.7,0,0,1-.9-1.9,2.73,2.73,0,0,1,.75-2,2.57,2.57,0,0,1,1.91-.78,2.75,2.75,0,0,0-1.77.91,2.61,2.61,0,0,0,.14,3.6A2.74,2.74,0,0,0,161.17,109.07Z"/><path class="cls-3" d="M161.38,114.35a2.54,2.54,0,0,1-2-.63,2.66,2.66,0,0,1-.15-3.87,2.57,2.57,0,0,1,1.9-.78,2.7,2.7,0,0,0-1.76.91,2.58,2.58,0,0,0-.65,1.83,2.55,2.55,0,0,0,.79,1.77A2.66,2.66,0,0,0,161.38,114.35Z"/><path class="cls-3" d="M161.58,119.63a2.55,2.55,0,0,1-2-.63,2.7,2.7,0,0,1-.9-1.9,2.76,2.76,0,0,1,.75-2,2.61,2.61,0,0,1,1.91-.78,2.75,2.75,0,0,0-1.77.91,2.63,2.63,0,0,0-.65,1.83,2.59,2.59,0,0,0,.79,1.77A2.69,2.69,0,0,0,161.58,119.63Z"/><path class="cls-3" d="M161.79,124.92a2.58,2.58,0,0,1-2-.64,2.65,2.65,0,0,1-.15-3.86,2.58,2.58,0,0,1,1.9-.79,2.75,2.75,0,0,0-1.76.91,2.62,2.62,0,0,0,.14,3.61A2.77,2.77,0,0,0,161.79,124.92Z"/><path class="cls-3" d="M165.6,103.61a2.6,2.6,0,0,1-2-.63,2.7,2.7,0,0,1-.9-1.9,2.73,2.73,0,0,1,.75-2,2.59,2.59,0,0,1,1.91-.78,2.75,2.75,0,0,0-1.77.91,2.61,2.61,0,0,0,.14,3.6A2.75,2.75,0,0,0,165.6,103.61Z"/><path class="cls-3" d="M165.8,108.89a2.55,2.55,0,0,1-2-.63,2.75,2.75,0,0,1-.91-1.9,2.7,2.7,0,0,1,.76-2,2.57,2.57,0,0,1,1.91-.78,2.73,2.73,0,0,0-1.77.91,2.61,2.61,0,0,0,.14,3.6A2.72,2.72,0,0,0,165.8,108.89Z"/><path class="cls-3" d="M166,114.17a2.56,2.56,0,0,1-2-.63,2.7,2.7,0,0,1-.9-1.9,2.76,2.76,0,0,1,.75-2,2.59,2.59,0,0,1,1.91-.78,2.75,2.75,0,0,0-1.77.91,2.63,2.63,0,0,0-.65,1.83,2.59,2.59,0,0,0,.79,1.77A2.7,2.7,0,0,0,166,114.17Z"/><path class="cls-3" d="M166.21,119.45a2.55,2.55,0,0,1-2-.63,2.66,2.66,0,0,1-.15-3.87,2.61,2.61,0,0,1,1.91-.78,2.75,2.75,0,0,0-1.77.91,2.58,2.58,0,0,0-.65,1.83,2.55,2.55,0,0,0,.79,1.77A2.68,2.68,0,0,0,166.21,119.45Z"/><path class="cls-3" d="M166.42,124.74a2.61,2.61,0,0,1-2-.64,2.67,2.67,0,0,1-.15-3.86,2.6,2.6,0,0,1,1.91-.79,2.8,2.8,0,0,0-1.77.91,2.59,2.59,0,0,0-.64,1.83,2.56,2.56,0,0,0,.78,1.78A2.79,2.79,0,0,0,166.42,124.74Z"/><path class="cls-3" d="M170.22,103.43a2.59,2.59,0,0,1-2-.63,2.68,2.68,0,0,1-.15-3.87,2.57,2.57,0,0,1,1.91-.78,2.75,2.75,0,0,0-1.77.91,2.56,2.56,0,0,0-.65,1.83,2.61,2.61,0,0,0,.79,1.77A2.74,2.74,0,0,0,170.22,103.43Z"/><path class="cls-3" d="M170.43,108.71a2.54,2.54,0,0,1-2-.63,2.66,2.66,0,0,1-.15-3.87,2.55,2.55,0,0,1,1.9-.78,2.75,2.75,0,0,0-1.77.91,2.57,2.57,0,0,0-.64,1.83,2.6,2.6,0,0,0,.78,1.77A2.75,2.75,0,0,0,170.43,108.71Z"/><path class="cls-3" d="M170.63,114a2.55,2.55,0,0,1-2-.63,2.68,2.68,0,0,1-.15-3.87,2.57,2.57,0,0,1,1.91-.78,2.75,2.75,0,0,0-1.77.91,2.61,2.61,0,0,0,.14,3.6A2.69,2.69,0,0,0,170.63,114Z"/><path class="cls-3" d="M170.84,119.27a2.54,2.54,0,0,1-2-.63,2.66,2.66,0,0,1-.15-3.87,2.59,2.59,0,0,1,1.9-.78,2.75,2.75,0,0,0-1.77.91,2.64,2.64,0,0,0,.14,3.6A2.7,2.7,0,0,0,170.84,119.27Z"/><path class="cls-3" d="M171,124.56a2.6,2.6,0,0,1-2-.64,2.67,2.67,0,0,1-.15-3.86,2.58,2.58,0,0,1,1.91-.79,2.8,2.8,0,0,0-1.77.91,2.64,2.64,0,0,0-.65,1.83,2.61,2.61,0,0,0,.79,1.78A2.79,2.79,0,0,0,171,124.56Z"/><path class="cls-3" d="M174.85,103.25a2.57,2.57,0,0,1-2-.63,2.66,2.66,0,0,1-.15-3.87,2.57,2.57,0,0,1,1.9-.78,2.7,2.7,0,0,0-1.76.91,2.61,2.61,0,0,0,.14,3.6A2.72,2.72,0,0,0,174.85,103.25Z"/><path class="cls-3" d="M175.05,108.53a2.55,2.55,0,0,1-2-.63,2.7,2.7,0,0,1-.9-1.9,2.75,2.75,0,0,1,.75-2,2.57,2.57,0,0,1,1.91-.78,2.75,2.75,0,0,0-1.77.91,2.63,2.63,0,0,0-.65,1.83,2.59,2.59,0,0,0,.79,1.77A2.74,2.74,0,0,0,175.05,108.53Z"/><path class="cls-3" d="M175.26,113.81a2.55,2.55,0,0,1-2-.63,2.66,2.66,0,0,1-.15-3.87,2.57,2.57,0,0,1,1.9-.78,2.73,2.73,0,0,0-1.76.91,2.58,2.58,0,0,0-.65,1.83,2.55,2.55,0,0,0,.79,1.77A2.68,2.68,0,0,0,175.26,113.81Z"/><path class="cls-3" d="M175.46,119.1a2.6,2.6,0,0,1-2-.64,2.67,2.67,0,0,1-.15-3.86,2.58,2.58,0,0,1,1.91-.79,2.75,2.75,0,0,0-1.77.91,2.64,2.64,0,0,0-.65,1.83,2.57,2.57,0,0,0,.79,1.77A2.75,2.75,0,0,0,175.46,119.1Z"/><path class="cls-3" d="M175.67,124.38a2.6,2.6,0,0,1-2-.64,2.65,2.65,0,0,1-.15-3.86,2.53,2.53,0,0,1,1.9-.78,2.68,2.68,0,0,0-1.76.91,2.61,2.61,0,0,0,.14,3.6A2.77,2.77,0,0,0,175.67,124.38Z"/><path class="cls-3" d="M179.48,103.07a2.56,2.56,0,0,1-2-.63,2.7,2.7,0,0,1-.9-1.9,2.73,2.73,0,0,1,.75-2,2.59,2.59,0,0,1,1.91-.78,2.75,2.75,0,0,0-1.77.91,2.61,2.61,0,0,0,.14,3.6A2.75,2.75,0,0,0,179.48,103.07Z"/><path class="cls-3" d="M179.68,108.35a2.55,2.55,0,0,1-2-.63,2.75,2.75,0,0,1-.91-1.9,2.71,2.71,0,0,1,.76-2,2.57,2.57,0,0,1,1.91-.78,2.75,2.75,0,0,0-1.77.91,2.58,2.58,0,0,0-.65,1.83,2.55,2.55,0,0,0,.79,1.77A2.68,2.68,0,0,0,179.68,108.35Z"/><path class="cls-3" d="M179.89,113.63a2.56,2.56,0,0,1-2-.63,2.7,2.7,0,0,1-.9-1.9,2.76,2.76,0,0,1,.75-2,2.59,2.59,0,0,1,1.91-.78,2.75,2.75,0,0,0-1.77.91,2.57,2.57,0,0,0-.64,1.83,2.54,2.54,0,0,0,.78,1.77A2.7,2.7,0,0,0,179.89,113.63Z"/><path class="cls-3" d="M180.09,118.92a2.6,2.6,0,0,1-2-.64,2.75,2.75,0,0,1-.91-1.9,2.69,2.69,0,0,1,.76-2,2.58,2.58,0,0,1,1.91-.79,2.75,2.75,0,0,0-1.77.91,2.62,2.62,0,0,0,.14,3.61A2.77,2.77,0,0,0,180.09,118.92Z"/><path class="cls-3" d="M180.3,124.2a2.65,2.65,0,0,1-2-.63,2.76,2.76,0,0,1-.9-1.91,2.72,2.72,0,0,1,.75-2,2.55,2.55,0,0,1,1.91-.78,2.71,2.71,0,0,0-1.77.91,2.55,2.55,0,0,0-.64,1.82,2.6,2.6,0,0,0,.78,1.78A2.79,2.79,0,0,0,180.3,124.2Z"/></g><path class="cls-8" d="M144.93,118.08s1.55-.46,2.2.46S144.78,118.92,144.93,118.08Z"/></svg>