<svg id="Layer_1" data-name="Layer 1" xmlns="http://www.w3.org/2000/svg" xmlns:xlink="http://www.w3.org/1999/xlink" viewBox="0 0 260 168"><defs><style>.cls-1{fill:#bc6319;}.cls-2{fill:#994a0a;}.cls-3{fill:#7a3100;}.cls-4{fill:#a54c0a;}.cls-5{clip-path:url(#clip-path);}.cls-6{fill:#a04908;}.cls-7{clip-path:url(#clip-path-2);}.cls-8{clip-path:url(#clip-path-3);}.cls-9{fill:#b25712;}.cls-10{clip-path:url(#clip-path-4);}.cls-11{clip-path:url(#clip-path-5);}.cls-12{fill:#682c02;}.cls-13{fill:#c1671e;}.cls-14{fill:#d6752d;}.cls-15{fill:#c97523;}.cls-16{fill:#fff;}.cls-17{clip-path:url(#clip-path-6);}.cls-18{fill:#c41e1e;}.cls-19{fill:#f49547;}.cls-20{fill:#a8540e;}.cls-21{fill:#af5614;}</style><clipPath id="clip-path"><path class="cls-1" d="M60.15,145s-6.71,2-9,1.94c0,0-1.47-.31-.38,1.63,0,0-1.45,1.12,0,3.27a1.45,1.45,0,0,0,.62.53c1,.46,4.12,1.47,9.84.19C68.38,150.92,67.88,143.45,60.15,145Z"/></clipPath><clipPath id="clip-path-2"><path class="cls-1" d="M83.35,145.63s6.81,1.66,9.1,1.44c0,0,1.45-.39.48,1.61,0,0,1.5,1,.17,3.26a1.47,1.47,0,0,1-.59.57c-1,.51-4,1.69-9.81.74C75.46,152.06,75.55,144.57,83.35,145.63Z"/></clipPath><clipPath id="clip-path-3"><path class="cls-1" d="M89,139.74C89,152,81.53,153.2,72.28,153.2S55.52,152,55.52,139.74s7.5-22.21,16.76-22.21S89,127.47,89,139.74Z"/></clipPath><clipPath id="clip-path-4"><path class="cls-1" d="M57.42,148.51s2,6.71,1.95,9c0,0-.31,1.47,1.63.38,0,0,1.12,1.45,3.27,0a1.52,1.52,0,0,0,.53-.62c.45-1,1.46-4.13.19-9.84C63.39,140.28,55.92,140.79,57.42,148.51Z"/></clipPath><clipPath id="clip-path-5"><path class="cls-1" d="M84.33,133.15s5.18-4.72,6.27-6.75c0,0,.49-1.42,1.61.51,0,0,1.7-.68,2.8,1.67a1.5,1.5,0,0,1,.14.81c-.13,1.11-.85,4.29-4.86,8.56C85.26,143.28,79.1,139,84.33,133.15Z"/></clipPath><clipPath id="clip-path-6"><path class="cls-2" d="M63,128.69a16,16,0,0,0,14.85-3.88,7.68,7.68,0,0,1-6.13,7.64C64.78,134.06,63,128.69,63,128.69Z"/></clipPath></defs><path class="cls-3" d="M89.27,148.93a3.81,3.81,0,0,0,2.17,1,15.24,15.24,0,0,0,2.23.26.57.57,0,0,1-.41-.26,1,1,0,0,1,1.1.66,6.18,6.18,0,0,0-.34-3.78,3.59,3.59,0,0,0-3-2.12,2.1,2.1,0,0,0-1.43.46C88.77,145.87,88.52,148.12,89.27,148.93Z"/><path class="cls-4" d="M83.92,143.33s6.77,1,7,4.35c0,0-.69-.82-7-1.6S80.64,143.09,83.92,143.33Z"/><path class="cls-1" d="M60.15,145s-6.71,2-9,1.94c0,0-1.47-.31-.38,1.63,0,0-1.45,1.12,0,3.27a1.45,1.45,0,0,0,.62.53c1,.46,4.12,1.47,9.84.19C68.38,150.92,67.88,143.45,60.15,145Z"/><g class="cls-5"><path class="cls-6" d="M53.44,145.08c-.09.22-2.39,2.65-.67,9.1H48.84l.1-9.43,3.55-2Z"/></g><path class="cls-1" d="M83.35,145.63s6.81,1.66,9.1,1.44c0,0,1.45-.39.48,1.61,0,0,1.5,1,.17,3.26a1.47,1.47,0,0,1-.59.57c-1,.51-4,1.69-9.81.74C75.46,152.06,75.55,144.57,83.35,145.63Z"/><g class="cls-7"><path class="cls-6" d="M90.06,145.39c.1.21,2.54,2.52,1.18,9.05l3.92-.22-.63-9.41L90.88,143Z"/></g><path class="cls-1" d="M89,139.74C89,152,81.53,153.2,72.28,153.2S55.52,152,55.52,139.74s7.5-22.21,16.76-22.21S89,127.47,89,139.74Z"/><g class="cls-8"><ellipse class="cls-9" cx="70.83" cy="126.46" rx="17.56" ry="11.58" transform="translate(-13.49 8.56) rotate(-6.32)"/></g><path class="cls-1" d="M57.42,148.51s2,6.71,1.95,9c0,0-.31,1.47,1.63.38,0,0,1.12,1.45,3.27,0a1.52,1.52,0,0,0,.53-.62c.45-1,1.46-4.13.19-9.84C63.39,140.28,55.92,140.79,57.42,148.51Z"/><g class="cls-10"><path class="cls-6" d="M57.56,155.22c.21.1,2.65,2.4,9.1.67v3.93l-9.44-.1-2-3.54Z"/></g><path class="cls-1" d="M84.33,133.15s5.18-4.72,6.27-6.75c0,0,.49-1.42,1.61.51,0,0,1.7-.68,2.8,1.67a1.5,1.5,0,0,1,.14.81c-.13,1.11-.85,4.29-4.86,8.56C85.26,143.28,79.1,139,84.33,133.15Z"/><g class="cls-11"><path class="cls-6" d="M87.88,127.45c.23,0,3.5-.7,8.16,4.07l2-3.38-8.16-4.73-3.56,2Z"/></g><path class="cls-12" d="M52.78,103.17a7.18,7.18,0,0,0-.64,5.41,1.21,1.21,0,0,0,.31.59,1.29,1.29,0,0,0,.84.21,55.66,55.66,0,0,0,24.77-5.76,1.25,1.25,0,0,0,.75-.65,1.21,1.21,0,0,0-.23-1A12.7,12.7,0,0,0,76.83,99a10.61,10.61,0,0,0-3.34-2A12.79,12.79,0,0,0,67.94,96C63,96.53,55.57,98.22,52.78,103.17Z"/><path class="cls-13" d="M57.16,110.4c4.34,2.33.35,7.73-2.68,10.23s-8,1.47-11.17-2.33-3.24-8.9-.21-11.4S53.18,108.25,57.16,110.4Z"/><path class="cls-14" d="M53.83,111.21c2.92,1.28.63,5-1.19,6.74s-5.1,1.37-7.33-.91-2.55-5.57-.73-7.34S51.15,110,53.83,111.21Z"/><path class="cls-13" d="M75,106.25c-2.86,4,3.1,7.08,6.92,8s7.85-2.22,9-7-1-9.42-4.84-10.34S77.65,102.57,75,106.25Z"/><path class="cls-14" d="M78.37,105.51c-2.05,2.43,1.63,4.73,4,5.52s5.17-1,6.17-4-.16-6.12-2.58-6.91S80.26,103.27,78.37,105.51Z"/><ellipse class="cls-15" cx="69.93" cy="124.83" rx="23.59" ry="10.37" transform="translate(-26.44 19.07) rotate(-13.08)"/><ellipse class="cls-15" cx="68.22" cy="117.46" rx="20.85" ry="17.94" transform="translate(-24.82 18.49) rotate(-13.08)"/><circle class="cls-16" cx="55.14" cy="121.05" r="5.06"/><circle cx="55.14" cy="121.05" r="3.79"/><circle class="cls-16" cx="52.76" cy="119.16" r="1.37"/><circle class="cls-16" cx="81.53" cy="114.91" r="5.06"/><circle cx="81.53" cy="114.91" r="3.79"/><circle class="cls-16" cx="79.14" cy="113.03" r="1.37"/><path class="cls-2" d="M63,128.69a16,16,0,0,0,14.85-3.88,7.68,7.68,0,0,1-6.13,7.64C64.78,134.06,63,128.69,63,128.69Z"/><g class="cls-17"><ellipse class="cls-18" cx="72.06" cy="134" rx="5.14" ry="2.99" transform="translate(-28.46 19.79) rotate(-13.08)"/><ellipse class="cls-16" cx="70.55" cy="127.49" rx="5.26" ry="3.14" transform="translate(-27.03 19.28) rotate(-13.08)"/></g><path class="cls-16" d="M62.05,128.05s-1.68,1.34-2,1.73,2.09.71,4.22-.55Z"/><path class="cls-16" d="M78.42,124.24s2.1.47,2.6.66-1.57,1.56-4,1.37Z"/><path class="cls-19" d="M78.32,123.48c.58,2.47-2.66,5.33-7.22,6.39s-8.73-.08-9.3-2.55,2-8.28,6.54-9.34S77.75,121,78.32,123.48Z"/><ellipse class="cls-20" cx="65.49" cy="126.05" rx="1.08" ry="2" transform="matrix(0.97, -0.23, 0.23, 0.97, -26.83, 18.1)"/><ellipse class="cls-20" cx="74.45" cy="123.97" rx="1.08" ry="2" transform="translate(-26.13 20.07) rotate(-13.08)"/><ellipse class="cls-13" cx="50.13" cy="127.57" rx="2.02" ry="0.66" transform="translate(-27.58 14.66) rotate(-13.08)"/><ellipse class="cls-13" cx="88.37" cy="118.69" rx="2.02" ry="0.66" transform="translate(-24.57 23.08) rotate(-13.08)"/><path class="cls-3" d="M60.35,103.94a7.55,7.55,0,0,0,7,5.65s-1.5-6.44,1-7c0,0,.1,2.67,1.92,3.48a18.62,18.62,0,0,0,1.12-3.78l.48,2.09s3.72-2.33,2.72-4.8-5.21-5.41-11.8-3.88-8.8,6-8.29,8.47c0,0,.36,2.62,2.65,3.23l.09-2.23a3.66,3.66,0,0,0,3,3.07S59.67,104.67,60.35,103.94Z"/><ellipse class="cls-21" cx="56.83" cy="135.37" rx="1.21" ry="0.54" transform="translate(-83.96 176.97) rotate(-83.69)"/><ellipse class="cls-21" cx="57.38" cy="138.37" rx="1.03" ry="0.45" transform="translate(-86.47 180.19) rotate(-83.69)"/><ellipse class="cls-21" cx="87.65" cy="135.37" rx="0.45" ry="1.03" transform="translate(-12.24 8.76) rotate(-5.35)"/></svg>