<svg id="Layer_6" data-name="Layer 6" xmlns="http://www.w3.org/2000/svg" xmlns:xlink="http://www.w3.org/1999/xlink" viewBox="0 0 260 168"><defs><style>.cls-1{fill:#bc6319;}.cls-2{fill:#c97523;}.cls-3{fill:#994a0a;}.cls-4{clip-path:url(#clip-path);}.cls-5{fill:#a04908;}.cls-6{clip-path:url(#clip-path-2);}.cls-7{fill:#db853e;}.cls-8{clip-path:url(#clip-path-3);}.cls-9{fill:#c41e1e;}.cls-10{fill:#fff;}.cls-11{fill:#cc6b23;}.cls-12{fill:#f49547;}.cls-13{fill:#a8540e;}.cls-14{fill:#c1671e;}.cls-15{fill:#7a3100;}.cls-16{fill:#e5813e;}.cls-17{clip-path:url(#clip-path-4);}.cls-18{fill:none;stroke:#b75818;stroke-linecap:round;stroke-linejoin:round;stroke-width:0.37px;}</style><clipPath id="clip-path"><path class="cls-1" d="M3.32,144.86s-3.74,3-4.57,4.41c0,0-.39.95-1.08-.41,0,0-1.2.39-1.87-1.26a1.08,1.08,0,0,1-.06-.56c.13-.76.75-2.92,3.67-5.7C3.07,137.86,7.15,141,3.32,144.86Z"/></clipPath><clipPath id="clip-path-2"><path class="cls-2" d="M5.43,116.61s-27.9,1.79-29.52,17.83,33.62,8.61,40.66,6.49L2.93,134Z"/></clipPath><clipPath id="clip-path-3"><path class="cls-3" d="M18.78,136.86s-3.29.52-4.79-1.11c0,0,.77,3.56,3.88,2.94C17.87,138.69,18.94,138.38,18.78,136.86Z"/></clipPath><clipPath id="clip-path-4"><path class="cls-2" d="M3.48,142.15S5,146.75,5.92,148c0,0,.76.71-.77.86,0,0-.06,1.26-1.85,1.28a1.08,1.08,0,0,1-.55-.15c-.65-.39-2.45-1.75-4-5.48C-3.14,139.85,1.28,137.19,3.48,142.15Z"/></clipPath></defs><path class="cls-1" d="M3.32,144.86s-3.74,3-4.57,4.41c0,0-.39.95-1.08-.41,0,0-1.2.39-1.87-1.26a1.08,1.08,0,0,1-.06-.56c.13-.76.75-2.92,3.67-5.7C3.07,137.86,7.15,141,3.32,144.86Z"/><g class="cls-4"><path class="cls-5" d="M.67,148.64c-.16,0-2.44.36-5.46-3.11l-1.51,2.25,5.43,3.57,2.53-1.25Z"/></g><path class="cls-2" d="M18.84,121.8s1.78,5.65,7,5.77l-4.91,3.67-1.82-.35-1.24-6S16.57,121.07,18.84,121.8Z"/><path class="cls-2" d="M5.43,116.61s-27.9,1.79-29.52,17.83,33.62,8.61,40.66,6.49L2.93,134Z"/><g class="cls-6"><path class="cls-7" d="M-5.25,146.46S13.24,142.9,5,142.76s-10.26,1.29-20.41.74,5.76,2.8,5.76,2.8l4.06,0"/></g><ellipse class="cls-2" cx="16.32" cy="138.45" rx="3.57" ry="2.49" transform="translate(-14.18 2.42) rotate(-5.91)"/><path class="cls-2" d="M17.07,140.53c-5,1.51-13.72,2.75-20-.75L9.9,134.22l9.12,1,1.68.93"/><path class="cls-2" d="M-5.64,135.83c.41,3.93,5.64,6.47,13.76,5.63s14.36-4.7,14-8.62-7.31-6.43-15.42-5.59S-6,131.91-5.64,135.83Z"/><path class="cls-2" d="M-5.73,130.2c.37,7.5,4.48,12.23,12.37,11.42s14.61-6.71,13.91-13.5S16.63,116,8.7,116.11C-1.38,116.25-6.11,122.36-5.73,130.2Z"/><path class="cls-2" d="M25.85,127.57S22.62,127,21,129.19L20,137s3.57-.38,7.14-1.17Z"/><path class="cls-3" d="M18.78,136.86s-3.29.52-4.79-1.11c0,0,.77,3.56,3.88,2.94C17.87,138.69,18.94,138.38,18.78,136.86Z"/><g class="cls-8"><ellipse class="cls-9" cx="15.88" cy="139.65" rx="2.57" ry="2.04" transform="translate(-14.31 2.38) rotate(-5.91)"/><ellipse class="cls-10" cx="16.95" cy="135.39" rx="2.57" ry="2.04" transform="translate(-13.86 2.47) rotate(-5.91)"/></g><path class="cls-11" d="M26.07,136S19,138,15,136.44l-.18-.33s7,.37,10.66-.64Z"/><path class="cls-12" d="M23.17,132.94A3.16,3.16,0,0,0,26.43,136c1.74-.06,1.9-1.48,1.84-3.23s-.38-5.23-2.12-5.18S23.11,131.2,23.17,132.94Z"/><ellipse class="cls-13" cx="26.45" cy="132.56" rx="0.74" ry="1.38" transform="matrix(1, -0.03, 0.03, 1, -4.41, 0.96)"/><circle class="cls-10" cx="12.12" cy="128.99" r="3.49" transform="translate(-69.22 28.15) rotate(-33.52)"/><path d="M12.25,125.85a2.53,2.53,0,0,1,.87.07.93.93,0,0,0,.63,1.7.93.93,0,0,0,.82-.78,2.58,2.58,0,0,1,.54,1.33,2.61,2.61,0,1,1-2.86-2.32Z"/><ellipse class="cls-14" cx="9.02" cy="132.93" rx="1.39" ry="0.45" transform="translate(-13.65 1.64) rotate(-5.91)"/><path class="cls-15" d="M9.67,117.81a4.75,4.75,0,0,1,1.61-3,6.59,6.59,0,0,1,2.38-.18,5.84,5.84,0,0,1,4.31,2.6,5.48,5.48,0,0,1,.84,2.66,4.81,4.81,0,0,1-.07,1l-.43.8a5.58,5.58,0,0,1-1.66,1s-.47-4.53-2.24-4.35c0,0,.54,1.77-.47,2.7a12.7,12.7,0,0,1-1.58-2.21l.16,1.48S9.57,119.64,9.67,117.81Z"/><path class="cls-15" d="M7.28,117.69a5.43,5.43,0,0,1-.16.88,23.83,23.83,0,0,0-2.47-.69l.1.81a11.25,11.25,0,0,0-4.87-.79,5.06,5.06,0,0,1,1.82-1.77,16.79,16.79,0,0,1,6.11-2,15.69,15.69,0,0,1,5.33-.26,5.67,5.67,0,0,1,4.24,2.93l-3.92-.55a.44.44,0,0,0-.3,0,.47.47,0,0,0-.19.28l-.44,1.2a5.65,5.65,0,0,0-.8-.82c-.06,0-.12-.09-.19-.07s-.12.08-.16.14a7.29,7.29,0,0,1-.56.94c-.84-.52-.89,0-.82.74A2.85,2.85,0,0,1,7.28,117.69Z"/><path class="cls-15" d="M-2.76,116.61a8.66,8.66,0,0,1-1.07.5c-.47.16-1,.23-1.45.36a10.77,10.77,0,0,0-2.1.89L-12,120.68a2.68,2.68,0,0,0,3.05-.35,1.31,1.31,0,0,0,1.5.56A4.15,4.15,0,0,0-5.92,120a1.28,1.28,0,0,1,.87-.34,2,2,0,0,1,.51.19c1,.4,2.11-.5,2.88-1.32a1.65,1.65,0,0,0,1.7.11c.23-.12.43-.3.66-.41a4.24,4.24,0,0,1,1.55-.2,1.29,1.29,0,0,0,1.23-.79,1.56,1.56,0,0,0,1.66.45,4.63,4.63,0,0,0,1.58-.91l2.05-1.58c.94-.73.54-1.2-.41-1.17-1.23,0-2.49.24-3.71.41A24,24,0,0,0-2.76,116.61Z"/><path class="cls-2" d="M5.74,118.53s-3.63-3.22-7.2-1.46-4,5.89,4.74,11.71C3.28,128.78,7.31,122.06,5.74,118.53Z"/><path class="cls-16" d="M5.74,119.85s-2.59-2.3-5.14-1S-2.27,123,4,127.16C4,127.16,6.86,122.37,5.74,119.85Z"/><path class="cls-2" d="M3.48,142.15S5,146.75,5.92,148c0,0,.76.71-.77.86,0,0-.06,1.26-1.85,1.28a1.08,1.08,0,0,1-.55-.15c-.65-.39-2.45-1.75-4-5.48C-3.14,139.85,1.28,137.19,3.48,142.15Z"/><g class="cls-17"><path class="cls-5" d="M6,146c-.08.14-.56,2.39-4.88,4l1.55,2.22L8,148.41l-.24-2.81Z"/></g><path class="cls-10" d="M14.65,135.85s1.22.85,1.49,1.1-1.41.58-2.93-.19Z"/><ellipse class="cls-2" cx="13" cy="135.89" rx="1.74" ry="1.34" transform="translate(-13.93 2.06) rotate(-5.91)"/><path class="cls-18" d="M13.15,134.33s1.63.08,1.53,1.61-2.32,1.54-3.82.55"/></svg>