<svg id="Layer_1" data-name="Layer 1" xmlns="http://www.w3.org/2000/svg" xmlns:xlink="http://www.w3.org/1999/xlink" viewBox="0 0 260 168"><defs><style>.cls-1{fill:#bc6319;}.cls-2{fill:#994a0a;}.cls-3{fill:#7a3100;}.cls-4{fill:#a54c0a;}.cls-5{clip-path:url(#clip-path);}.cls-6{fill:#a04908;}.cls-7{clip-path:url(#clip-path-2);}.cls-8{clip-path:url(#clip-path-3);}.cls-9{fill:#b25712;}.cls-10{fill:#d67934;}.cls-11{clip-path:url(#clip-path-4);}.cls-12{clip-path:url(#clip-path-5);}.cls-13{fill:#682c02;}.cls-14{fill:#c1671e;}.cls-15{fill:#d6752d;}.cls-16{fill:#c97523;}.cls-17{fill:#fff;}.cls-18{clip-path:url(#clip-path-6);}.cls-19{fill:#c41e1e;}.cls-20{fill:#f49547;}.cls-21{fill:#a8540e;}.cls-22{fill:#af5614;}</style><clipPath id="clip-path"><path class="cls-1" d="M85.1,121.61a20.86,20.86,0,0,1,.88,4.07s-.13.67.74.18c0,0,.51.65,1.48,0a.65.65,0,0,0,.24-.28,7.22,7.22,0,0,0,.09-4.45C87.8,117.88,84.42,118.12,85.1,121.61Z"/></clipPath><clipPath id="clip-path-2"><path class="cls-1" d="M94.57,121.61a20.86,20.86,0,0,0-.88,4.07s.13.67-.74.18c0,0-.51.65-1.48,0a.72.72,0,0,1-.24-.28,7.22,7.22,0,0,1-.09-4.45C91.87,117.88,95.25,118.12,94.57,121.61Z"/></clipPath><clipPath id="clip-path-3"><path class="cls-1" d="M97.26,118.9c0,5.54-3.39,6.09-7.58,6.09s-7.58-.55-7.58-6.09,3.4-10.05,7.58-10.05S97.26,113.35,97.26,118.9Z"/></clipPath><clipPath id="clip-path-4"><path class="cls-1" d="M83,122.87a20.86,20.86,0,0,1,.88,4.07s-.13.66.74.17c0,0,.51.66,1.48,0a.65.65,0,0,0,.24-.28,7.22,7.22,0,0,0,.09-4.45C85.66,119.14,82.28,119.37,83,122.87Z"/></clipPath><clipPath id="clip-path-5"><path class="cls-1" d="M96.21,122.87a21.64,21.64,0,0,0-.88,4.07s.14.66-.74.17c0,0-.5.66-1.47,0a.65.65,0,0,1-.24-.28,7.13,7.13,0,0,1-.09-4.45C93.51,119.14,96.89,119.37,96.21,122.87Z"/></clipPath><clipPath id="clip-path-6"><path class="cls-2" d="M86.23,113a7.21,7.21,0,0,0,6.94-.19,3.48,3.48,0,0,1-3.49,2.74C86.47,115.57,86.23,113,86.23,113Z"/></clipPath></defs><path class="cls-3" d="M97.37,123.06a1.8,1.8,0,0,0,1,.44,8.44,8.44,0,0,0,1,.12.28.28,0,0,1-.19-.12.45.45,0,0,1,.5.29,2.74,2.74,0,0,0-.15-1.7,1.62,1.62,0,0,0-1.35-1,.9.9,0,0,0-.65.21A1.51,1.51,0,0,0,97.37,123.06Z"/><path class="cls-4" d="M95,120.52s3.06.48,3.15,2c0,0-.31-.37-3.15-.72S93.47,120.42,95,120.52Z"/><path class="cls-1" d="M85.1,121.61a20.86,20.86,0,0,1,.88,4.07s-.13.67.74.18c0,0,.51.65,1.48,0a.65.65,0,0,0,.24-.28,7.22,7.22,0,0,0,.09-4.45C87.8,117.88,84.42,118.12,85.1,121.61Z"/><g class="cls-5"><path class="cls-6" d="M85.17,124.64c.1,0,1.2,1.09,4.11.31v1.77l-4.26,0-.93-1.6Z"/></g><path class="cls-1" d="M94.57,121.61a20.86,20.86,0,0,0-.88,4.07s.13.67-.74.18c0,0-.51.65-1.48,0a.72.72,0,0,1-.24-.28,7.22,7.22,0,0,1-.09-4.45C91.87,117.88,95.25,118.12,94.57,121.61Z"/><g class="cls-7"><path class="cls-6" d="M94.5,124.64c-.09,0-1.2,1.09-4.11.31v1.77l4.27,0,.92-1.6Z"/></g><path class="cls-1" d="M97.26,118.9c0,5.54-3.39,6.09-7.58,6.09s-7.58-.55-7.58-6.09,3.4-10.05,7.58-10.05S97.26,113.35,97.26,118.9Z"/><g class="cls-8"><ellipse class="cls-9" cx="89.68" cy="112.82" rx="7.94" ry="5.24"/><ellipse class="cls-10" cx="89.68" cy="124.73" rx="4.34" ry="0.58"/></g><path class="cls-1" d="M83,122.87a20.86,20.86,0,0,1,.88,4.07s-.13.66.74.17c0,0,.51.66,1.48,0a.65.65,0,0,0,.24-.28,7.22,7.22,0,0,0,.09-4.45C85.66,119.14,82.28,119.37,83,122.87Z"/><g class="cls-11"><path class="cls-6" d="M83,125.9c.1,0,1.2,1.08,4.11.3V128l-4.26,0L82,126.33Z"/></g><path class="cls-1" d="M96.21,122.87a21.64,21.64,0,0,0-.88,4.07s.14.66-.74.17c0,0-.5.66-1.47,0a.65.65,0,0,1-.24-.28,7.13,7.13,0,0,1-.09-4.45C93.51,119.14,96.89,119.37,96.21,122.87Z"/><g class="cls-12"><path class="cls-6" d="M96.15,125.9c-.1,0-1.2,1.08-4.12.3V128l4.27,0,.92-1.61Z"/></g><path class="cls-13" d="M84.35,100.73a3.27,3.27,0,0,0-.84,2.32.64.64,0,0,0,.08.3.61.61,0,0,0,.35.17,25.1,25.1,0,0,0,11.5,0,.58.58,0,0,0,.4-.21.57.57,0,0,0,0-.46,5.6,5.6,0,0,0-.46-1.47,4.76,4.76,0,0,0-1.27-1.22,5.82,5.82,0,0,0-2.34-1C89.53,98.86,86.08,98.84,84.35,100.73Z"/><path class="cls-14" d="M85.54,104.37c1.67,1.47-.64,3.44-2.23,4.23s-3.69-.17-4.68-2.17-.52-4.25,1.07-5S84,103,85.54,104.37Z"/><path class="cls-15" d="M84,104.39c1.15.86-.24,2.25-1.22,2.84a2.67,2.67,0,0,1-2.7-4.46C81.05,102.17,82.93,103.6,84,104.39Z"/><path class="cls-14" d="M93.83,104.37c-1.67,1.47.64,3.44,2.23,4.23s3.69-.17,4.68-2.17.52-4.25-1.07-5S95.36,103,93.83,104.37Z"/><path class="cls-15" d="M95.38,104.39c-1.15.86.23,2.25,1.22,2.84a2.67,2.67,0,0,0,2.7-4.46C98.32,102.17,96.44,103.6,95.38,104.39Z"/><ellipse class="cls-16" cx="89.68" cy="112.03" rx="10.67" ry="4.69"/><ellipse class="cls-16" cx="89.68" cy="108.61" rx="9.43" ry="8.11"/><circle class="cls-17" cx="83.56" cy="108.85" r="2.29"/><circle cx="83.56" cy="108.85" r="1.71"/><circle class="cls-17" cx="82.7" cy="107.78" r="0.62"/><circle class="cls-17" cx="95.81" cy="108.85" r="2.29"/><circle cx="95.81" cy="108.85" r="1.71"/><circle class="cls-17" cx="94.95" cy="107.78" r="0.62"/><path class="cls-2" d="M86.23,113a7.21,7.21,0,0,0,6.94-.19,3.48,3.48,0,0,1-3.49,2.74C86.47,115.57,86.23,113,86.23,113Z"/><g class="cls-18"><ellipse class="cls-19" cx="89.68" cy="116.29" rx="2.32" ry="1.35"/><ellipse class="cls-17" cx="89.68" cy="113.27" rx="2.38" ry="1.42"/></g><path class="cls-17" d="M85.89,112.64s-.88.42-1.08.56.85.53,1.91.19Z"/><path class="cls-17" d="M93.48,112.64s.88.42,1.08.56-.85.53-1.91.19Z"/><path class="cls-20" d="M93.52,112.3c0,1.14-1.72,2.07-3.84,2.07s-3.83-.93-3.83-2.07a3.86,3.86,0,0,1,7.67,0Z"/><ellipse class="cls-21" cx="87.6" cy="112.12" rx="0.49" ry="0.9"/><ellipse class="cls-21" cx="91.76" cy="112.12" rx="0.49" ry="0.9"/><ellipse class="cls-14" cx="80.68" cy="111.21" rx="0.91" ry="0.3"/><ellipse class="cls-14" cx="98.44" cy="111.21" rx="0.91" ry="0.3"/><path class="cls-3" d="M87.6,101.85a3.43,3.43,0,0,0,2.51,3.21s0-3,1.17-3c0,0-.24,1.18.48,1.72a8.65,8.65,0,0,0,.89-1.54v1s1.87-.65,1.68-1.84-1.74-2.92-4.8-2.92S85,100.23,85,101.35a1.81,1.81,0,0,0,.84,1.69l.27-1a1.64,1.64,0,0,0,1,1.65S87.23,102.1,87.6,101.85Z"/><ellipse class="cls-22" cx="82.7" cy="116.92" rx="0.55" ry="0.24" transform="translate(-42.61 186.26) rotate(-83.69)"/><ellipse class="cls-22" cx="82.95" cy="118.28" rx="0.46" ry="0.21" transform="translate(-43.74 187.72) rotate(-83.69)"/><ellipse class="cls-22" cx="96.64" cy="116.92" rx="0.21" ry="0.46" transform="translate(-10.48 9.52) rotate(-5.35)"/></svg>