<svg xmlns="http://www.w3.org/2000/svg" xmlns:xlink="http://www.w3.org/1999/xlink" viewBox="0 0 260 168"><defs><style>.cls-1{fill:#dda854;}.cls-2{fill:#e8ba67;}.cls-3{fill:#bc6319;}.cls-4{fill:#994a0a;}.cls-5{fill:#471e00;}.cls-6{fill:#fff;}.cls-7{fill:#190e01;}.cls-8{clip-path:url(#clip-path);}.cls-9{fill:#f7d19a;}.cls-10{fill:#301c00;}.cls-11{fill:#d19846;}.cls-12{fill:#e2af5d;}.cls-13{clip-path:url(#clip-path-2);}.cls-14{fill:#a06f20;}.cls-15{fill:#d69936;}.cls-16{clip-path:url(#clip-path-3);}.cls-17{clip-path:url(#clip-path-4);}.cls-18{fill:#c41e1e;}.cls-19{fill:#ffd38d;}.cls-20{clip-path:url(#clip-path-5);}.cls-21{clip-path:url(#clip-path-6);}.cls-22{fill:#7a3100;}.cls-23{fill:#93621b;}.cls-24{fill:#7a4609;}.cls-25{fill:#f4b460;}.cls-26{fill:#a54c0a;}.cls-27{clip-path:url(#clip-path-7);}.cls-28{fill:#a04908;}.cls-29{clip-path:url(#clip-path-8);}.cls-30{clip-path:url(#clip-path-9);}.cls-31{fill:#b25712;}.cls-32{clip-path:url(#clip-path-10);}.cls-33{clip-path:url(#clip-path-11);}.cls-34{fill:#af5614;}.cls-35{fill:#682c02;}.cls-36{fill:#c1671e;}.cls-37{fill:#d6752d;}.cls-38{fill:#c97523;}.cls-39{clip-path:url(#clip-path-12);}.cls-40{fill:#f49547;}.cls-41{fill:#a8540e;}</style><clipPath id="clip-path"><path class="cls-1" d="M115.15,123.39s-.94,16.87-.9,26.49c0,8.43,29.24,6.77,29.09-5.9s-6-16-12.56-24.88C118.05,102,115.15,123.39,115.15,123.39Z"/></clipPath><clipPath id="clip-path-2"><path class="cls-2" d="M145.05,113.59c-.6,5.1-10.57,10.4-21.94,9s-19.81-8.84-19.2-14,10.31-8.14,21.67-6.79S145.66,108.48,145.05,113.59Z"/></clipPath><clipPath id="clip-path-3"><circle class="cls-2" cx="125.39" cy="103.51" r="18.31" transform="matrix(0.86, -0.51, 0.51, 0.86, -35.32, 78.84)"/></clipPath><clipPath id="clip-path-4"><path class="cls-5" d="M117.83,114.44a13,13,0,0,0,12.39,1.13,6.22,6.22,0,0,1-6.78,4.13C117.72,119,117.83,114.44,117.83,114.44Z"/></clipPath><clipPath id="clip-path-5"><ellipse class="cls-6" cx="113.13" cy="103.02" rx="5.35" ry="4.09" transform="translate(-2.53 203.19) rotate(-83.22)"/></clipPath><clipPath id="clip-path-6"><ellipse class="cls-6" cx="137.43" cy="105.91" rx="5.35" ry="4.09" transform="translate(16.03 229.87) rotate(-83.22)"/></clipPath><clipPath id="clip-path-7"><path class="cls-3" d="M60.15,145s-6.71,2-9,1.94c0,0-1.47-.31-.38,1.63,0,0-1.45,1.12,0,3.27a1.45,1.45,0,0,0,.62.53c1,.46,4.12,1.47,9.84.19C68.38,150.92,67.88,143.45,60.15,145Z"/></clipPath><clipPath id="clip-path-8"><path class="cls-3" d="M83.35,145.63s6.81,1.66,9.1,1.44c0,0,1.45-.39.48,1.61,0,0,1.5,1,.17,3.26a1.47,1.47,0,0,1-.59.57c-1,.51-4,1.69-9.81.74C75.46,152.06,75.55,144.57,83.35,145.63Z"/></clipPath><clipPath id="clip-path-9"><path class="cls-3" d="M91.79,144.21c-3,11.89-8.38,8.47-19.57,8.92-9.25.36-15.94-5.31-12.91-17.19S72.06,116.27,81,118.55,94.82,132.33,91.79,144.21Z"/></clipPath><clipPath id="clip-path-10"><path class="cls-3" d="M57.42,148.51s2,6.71,1.95,9c0,0-.31,1.47,1.63.38,0,0,1.12,1.45,3.27,0a1.52,1.52,0,0,0,.53-.62c.45-1,1.46-4.13.19-9.84C63.39,140.28,55.92,140.79,57.42,148.51Z"/></clipPath><clipPath id="clip-path-11"><path class="cls-3" d="M88.86,136.67s6.18-3.3,7.74-5c0,0,.82-1.25,1.43.89,0,0,1.81-.23,2.3,2.31a1.62,1.62,0,0,1-.06.82c-.4,1-1.88,3.95-6.83,7.1C87.26,146.72,82.34,141.07,88.86,136.67Z"/></clipPath><clipPath id="clip-path-12"><path class="cls-4" d="M68.13,128.34A16,16,0,0,0,83.3,126a7.67,7.67,0,0,1-6.88,7C69.37,133.87,68.13,128.34,68.13,128.34Z"/></clipPath></defs><g id="Layer_8" data-name="Layer 8"><path class="cls-1" d="M123.44,141.93s-9.42,4.86-10.77,5.67a3.08,3.08,0,0,0-1.08,3,2.11,2.11,0,0,0,2.14,1.77c2-.06,6.48-.2,7.61-.15,1.46.06,5.26-1.25,5.64-5S123.44,141.93,123.44,141.93Z"/><path class="cls-7" d="M112.67,147.6l-6.4.94a2.1,2.1,0,0,0-1.83-2.5c-2.29-.59-3,5.59-.67,7s3.14-.06,3.14-.06l6.56-.64S111.54,151.15,112.67,147.6Z"/><path class="cls-1" d="M138.5,141.73s9.52,5.06,10.87,5.87a3.08,3.08,0,0,1,1.08,3,2.11,2.11,0,0,1-2.14,1.77c-2-.06-6.48-.2-7.61-.15-1.46.06-5.26-1.25-5.64-5S138.5,141.73,138.5,141.73Z"/><path class="cls-7" d="M149.37,147.6l6.4.94a2.1,2.1,0,0,1,1.83-2.5c2.29-.59,3,5.59.67,7s-3.14-.06-3.14-.06l-6.56-.64S150.5,151.15,149.37,147.6Z"/><path class="cls-1" d="M115.15,123.39s-.94,16.87-.9,26.49c0,8.43,29.24,6.77,29.09-5.9s-6-16-12.56-24.88C118.05,102,115.15,123.39,115.15,123.39Z"/><g class="cls-8"><ellipse class="cls-9" cx="130.13" cy="148.92" rx="8.39" ry="13.1" transform="translate(-27 28.83) rotate(-11.46)"/><ellipse class="cls-10" cx="112.75" cy="131.69" rx="3.82" ry="1.95" transform="translate(-23.92 25.03) rotate(-11.46)"/><ellipse class="cls-10" cx="138.15" cy="126.54" rx="3.82" ry="1.95" transform="translate(-22.39 29.98) rotate(-11.46)"/><ellipse class="cls-10" cx="141.87" cy="129.62" rx="3.82" ry="1.95" transform="translate(-22.93 30.78) rotate(-11.46)"/><ellipse class="cls-10" cx="111.81" cy="136.65" rx="3.82" ry="1.95" transform="translate(-24.93 24.95) rotate(-11.46)"/><ellipse class="cls-11" cx="123.13" cy="115.18" rx="12.55" ry="9.43" transform="translate(-2.8 3.07) rotate(-1.41)"/></g><path class="cls-12" d="M115.08,90.11A13.89,13.89,0,0,0,106.85,82c-6.61-2.63-8.09.32-9,5.17s-1.54,18,14.15,16.38C112,103.52,118,94.76,115.08,90.11Z"/><path class="cls-9" d="M113.31,92.88a11.37,11.37,0,0,0-6.82-6.49c-5.45-2.11-6.66.22-7.41,4.07s-1.2,14.27,11.72,13C110.8,103.5,115.76,96.58,113.31,92.88Z"/><path class="cls-12" d="M138.55,92.9a14,14,0,0,1,9.92-6c7-1,7.79,2.21,7.56,7.14s-2.73,17.86-17.61,12.6C138.42,106.66,134.59,96.73,138.55,92.9Z"/><path class="cls-9" d="M139.63,96a11.33,11.33,0,0,1,8.15-4.71c5.79-.77,6.42,1.78,6.25,5.69s-2.18,14.16-14.45,9.93C139.58,106.92,136.38,99,139.63,96Z"/><path class="cls-2" d="M145.05,113.59c-.6,5.1-10.57,10.4-21.94,9s-19.81-8.84-19.2-14,10.31-8.14,21.67-6.79S145.66,108.48,145.05,113.59Z"/><g class="cls-13"><path class="cls-14" d="M138,115.25c.12,6.49-6.79,8.35-14.32,7.45s-14-4.13-13.07-10.64c.71-5,7.67-8.28,15.21-7.38S137.85,110.24,138,115.25Z"/></g><circle class="cls-15" cx="110.01" cy="95.51" r="4.5"/><circle class="cls-15" cx="141.18" cy="99.22" r="4.5"/><circle class="cls-2" cx="125.39" cy="103.51" r="18.31" transform="matrix(0.86, -0.51, 0.51, 0.86, -35.32, 78.84)"/><g class="cls-16"><ellipse class="cls-14" cx="124.17" cy="115.3" rx="8.11" ry="13.7" transform="translate(-4.98 224.98) rotate(-83.22)"/></g><path class="cls-5" d="M117.83,114.44a13,13,0,0,0,12.39,1.13,6.22,6.22,0,0,1-6.78,4.13C117.72,119,117.83,114.44,117.83,114.44Z"/><g class="cls-17"><ellipse class="cls-18" cx="123.29" cy="120.98" rx="2.42" ry="4.16" transform="translate(-11.41 229.12) rotate(-83.22)"/><ellipse class="cls-6" cx="123.93" cy="115.61" rx="2.54" ry="4.26" transform="translate(-5.5 225.01) rotate(-83.22)"/></g><ellipse class="cls-19" cx="113.34" cy="102.13" rx="6.26" ry="4.81" transform="translate(-1.46 202.61) rotate(-83.22)"/><ellipse class="cls-19" cx="137.54" cy="105" rx="6.26" ry="4.81" transform="translate(17.02 229.17) rotate(-83.22)"/><ellipse class="cls-6" cx="113.13" cy="103.02" rx="5.35" ry="4.09" transform="translate(-2.53 203.19) rotate(-83.22)"/><g class="cls-20"><path d="M112.68,100.71a2.41,2.41,0,0,0-1,.11A1.38,1.38,0,0,1,112,102a1.28,1.28,0,0,1-1.29,1.23,1.17,1.17,0,0,1-.92-.88,5.15,5.15,0,0,0-.72,2.06c-.26,2.23.91,4.21,2.62,4.41s3.31-1.44,3.57-3.68S114.39,100.91,112.68,100.71Z"/></g><ellipse class="cls-6" cx="137.43" cy="105.91" rx="5.35" ry="4.09" transform="translate(16.03 229.87) rotate(-83.22)"/><g class="cls-21"><path d="M136,103.21a2.38,2.38,0,0,0-1,.12,1.43,1.43,0,0,1,.38,1.16,1.27,1.27,0,0,1-1.3,1.22,1.13,1.13,0,0,1-.91-.88,4.86,4.86,0,0,0-.72,2.06c-.27,2.24.9,4.21,2.61,4.42s3.31-1.45,3.58-3.68S137.68,103.41,136,103.21Z"/></g><path class="cls-22" d="M134.55,87.65c.66,1.54-3.12-.37-3.12-.37a1.58,1.58,0,0,0,.53,2.45,3.15,3.15,0,0,1-3.39-2.33c-2.25,1.93-1.4,6.35-1.4,6.35-3.78-1.46-2.08-7.23-2.08-7.23-1.31.22-3.4,2.63-3.4,2.63a7.05,7.05,0,0,1,1.69-2.92l-1.81.52c-1.63.63-2.82.58-3-.54,0,0,1.39-2.9,8-2.43a3,3,0,0,0-.57-2.73s2.81.76,3,3C129,84.07,133.17,84.45,134.55,87.65Z"/><ellipse class="cls-23" cx="124.43" cy="111.61" rx="5.29" ry="8.84" transform="translate(-1.1 221.99) rotate(-83.22)"/><ellipse class="cls-10" cx="124.68" cy="109.52" rx="2.77" ry="5.37" transform="translate(1.2 220.39) rotate(-83.22)"/><ellipse class="cls-24" cx="123.26" cy="107.66" rx="0.64" ry="1.28" transform="translate(1.8 217.35) rotate(-83.22)"/><path class="cls-22" d="M111.1,96.78a2.65,2.65,0,0,1,1.28-1.3,3,3,0,0,1,1.91-.27,3.38,3.38,0,0,1,1.68.89,3.1,3.1,0,0,1,.93,1.53,5.67,5.67,0,0,1-.78-.39l-.71-.35a6.54,6.54,0,0,0-1.35-.46A6,6,0,0,0,111.1,96.78Z"/><path class="cls-22" d="M141,100.34a6,6,0,0,0-2.8-1,5.83,5.83,0,0,0-1.41.13l-.78.17a5.29,5.29,0,0,1-.85.2,4.75,4.75,0,0,1,.54-.73,5,5,0,0,1,.73-.55,3.38,3.38,0,0,1,1.84-.46,3.08,3.08,0,0,1,1.8.71A2.67,2.67,0,0,1,141,100.34Z"/><ellipse class="cls-15" cx="106.42" cy="108.37" rx="0.68" ry="1.32" transform="translate(-13.76 201.24) rotate(-83.22)"/><ellipse class="cls-15" cx="142.74" cy="112.69" rx="0.68" ry="1.32" transform="translate(13.98 241.11) rotate(-83.22)"/><path class="cls-1" d="M141.65,137s.26,10.26-.15,11.78a3.06,3.06,0,0,1-2.58,1.84,2.1,2.1,0,0,1-2.29-1.57c-.48-1.93-1.58-6.29-1.93-7.36-.45-1.39-.24-5.41,3.27-6.79S141.65,137,141.65,137Z"/><path class="cls-10" d="M141.5,148.75l.84,6.4a2.11,2.11,0,0,1,2.9,1.08c1.2,2.05-4.55,4.4-6.59,2.57s-.79-3-.79-3l-1.17-6.48S138.39,150.8,141.5,148.75Z"/><path class="cls-1" d="M116.22,125.08s-10.25.45-11.74,1a3.07,3.07,0,0,0-1.66,2.7,2.1,2.1,0,0,0,1.72,2.18c2,.35,6.39,1.14,7.48,1.42,1.42.35,5.41-.14,6.55-3.74S116.22,125.08,116.22,125.08Z"/><path class="cls-10" d="M104.48,126,98,125.65a2.1,2.1,0,0,0-1.28-2.82c-2.12-1-4.06,4.85-2.1,6.75s3.09.58,3.09.58l6.55.72S102.65,129.29,104.48,126Z"/><path class="cls-25" d="M117.62,127.41c-.14.58-.45,1.89.25,2.23s1.75-.61,2.23-1l-.64-.17a1.78,1.78,0,0,0,3.47-.37l-.72.19a1.91,1.91,0,0,0,3.46-.57l-.64.16a1.7,1.7,0,0,0,2.29.27c.2-.15.42-.65.65-.68a3.11,3.11,0,0,1,.63.21,2.43,2.43,0,0,0,.53.08,1.49,1.49,0,0,0,1-.29,1.15,1.15,0,0,0,.32-1.5l-.52.52c.75.44,2,.85,2.48-.17s-.66-1.38-1-2.07c-.22-.44-.88-.06-.66.38a4,4,0,0,0,.8.9c.26.26.25.59-.17.67a1.66,1.66,0,0,1-1.05-.37.39.39,0,0,0-.52.53c.26.42-.33.65-.64.64a2.85,2.85,0,0,1-.75-.19c-.34-.11-.64-.23-1,0s-.35.65-.72.82a.91.91,0,0,1-1.13-.28.39.39,0,0,0-.64.16,1.13,1.13,0,0,1-2.06.39.39.39,0,0,0-.71.2,1,1,0,0,1-2,.17.39.39,0,0,0-.64-.17c-.22.2-.8.79-1.13.78s-.13-1-.07-1.23c.11-.47-.63-.68-.74-.2Z"/></g><g id="Layer_3" data-name="Layer 3"><path class="cls-22" d="M89.27,148.93a3.81,3.81,0,0,0,2.17,1,15.24,15.24,0,0,0,2.23.26.57.57,0,0,1-.41-.26,1,1,0,0,1,1.1.66,6.18,6.18,0,0,0-.34-3.78,3.59,3.59,0,0,0-3-2.12,2.1,2.1,0,0,0-1.43.46C88.77,145.87,88.52,148.12,89.27,148.93Z"/><path class="cls-26" d="M83.92,143.33s6.77,1,7,4.35c0,0-.69-.82-7-1.6S80.64,143.09,83.92,143.33Z"/><path class="cls-3" d="M60.15,145s-6.71,2-9,1.94c0,0-1.47-.31-.38,1.63,0,0-1.45,1.12,0,3.27a1.45,1.45,0,0,0,.62.53c1,.46,4.12,1.47,9.84.19C68.38,150.92,67.88,143.45,60.15,145Z"/><g class="cls-27"><path class="cls-28" d="M53.44,145.08c-.09.22-2.39,2.65-.67,9.1H48.84l.1-9.43,3.55-2Z"/></g><path class="cls-3" d="M83.35,145.63s6.81,1.66,9.1,1.44c0,0,1.45-.39.48,1.61,0,0,1.5,1,.17,3.26a1.47,1.47,0,0,1-.59.57c-1,.51-4,1.69-9.81.74C75.46,152.06,75.55,144.57,83.35,145.63Z"/><g class="cls-29"><path class="cls-28" d="M90.06,145.39c.1.21,2.54,2.52,1.18,9.05l3.92-.22-.63-9.41L90.88,143Z"/></g><path class="cls-3" d="M91.79,144.21c-3,11.89-8.38,8.47-19.57,8.92-9.25.36-15.94-5.31-12.91-17.19S72.06,116.27,81,118.55,94.82,132.33,91.79,144.21Z"/><g class="cls-30"><ellipse class="cls-31" cx="77.42" cy="126.85" rx="11.58" ry="17.56" transform="translate(-58.94 185.94) rotate(-82.03)"/></g><path class="cls-3" d="M57.42,148.51s2,6.71,1.95,9c0,0-.31,1.47,1.63.38,0,0,1.12,1.45,3.27,0a1.52,1.52,0,0,0,.53-.62c.45-1,1.46-4.13.19-9.84C63.39,140.28,55.92,140.79,57.42,148.51Z"/><g class="cls-32"><path class="cls-28" d="M57.56,155.22c.21.1,2.65,2.4,9.1.67v3.93l-9.44-.1-2-3.54Z"/></g><path class="cls-3" d="M88.86,136.67s6.18-3.3,7.74-5c0,0,.82-1.25,1.43.89,0,0,1.81-.23,2.3,2.31a1.62,1.62,0,0,1-.06.82c-.4,1-1.88,3.95-6.83,7.1C87.26,146.72,82.34,141.07,88.86,136.67Z"/><g class="cls-33"><path class="cls-28" d="M93.7,132c.22.09,3.57.18,6.91,6l2.77-2.78-6.74-6.6-3.94,1.07Z"/></g><ellipse class="cls-34" cx="61.66" cy="132.03" rx="1.21" ry="0.54" transform="translate(-83.62 143.28) rotate(-69.4)"/><path class="cls-35" d="M60.6,101.91a7.11,7.11,0,0,0-1.19,5.31,1.17,1.17,0,0,0,.25.63,1.27,1.27,0,0,0,.81.29A55.75,55.75,0,0,0,85.7,105a1.29,1.29,0,0,0,.82-.57,1.25,1.25,0,0,0-.13-1c-.5-1-.68-2.24-1.44-3.1a10.49,10.49,0,0,0-3.12-2.33,12.86,12.86,0,0,0-5.41-1.65C71.45,96.36,63.88,97.28,60.6,101.91Z"/><path class="cls-36" d="M64.22,109.55c4.07,2.77-.45,7.72-3.72,9.91s-8.13.63-10.87-3.46-2.31-9.19,1-11.37S60.48,107,64.22,109.55Z"/><path class="cls-37" d="M60.82,110c2.77,1.57.12,5-1.88,6.58s-5.21.84-7.19-1.66-2-5.8,0-7.38S58.27,108.58,60.82,110Z"/><path class="cls-36" d="M82.41,107.25c-3.26,3.7,2.36,7.37,6.06,8.67s8-1.41,9.67-6.06,0-9.47-3.75-10.77S85.4,103.86,82.41,107.25Z"/><path class="cls-37" d="M85.82,106.86c-2.29,2.21,1.13,4.87,3.45,5.91s5.26-.49,6.56-3.4.46-6.11-1.86-7.14S87.93,104.83,85.82,106.86Z"/><ellipse class="cls-38" cx="75.44" cy="125.22" rx="23.59" ry="10.37" transform="translate(-15.1 10.45) rotate(-7.2)"/><ellipse class="cls-38" cx="74.49" cy="117.71" rx="20.85" ry="17.94" transform="translate(-14.17 10.27) rotate(-7.2)"/><circle class="cls-6" cx="61.12" cy="119.94" r="5.06"/><circle cx="62.21" cy="120.05" r="3.79"/><circle class="cls-6" cx="60.03" cy="117.93" r="1.37"/><circle class="cls-6" cx="88" cy="116.54" r="5.06"/><circle cx="89.09" cy="116.65" r="3.79"/><circle class="cls-6" cx="86.91" cy="114.53" r="1.37"/><path class="cls-4" d="M68.13,128.34A16,16,0,0,0,83.3,126a7.67,7.67,0,0,1-6.88,7C69.37,133.87,68.13,128.34,68.13,128.34Z"/><g class="cls-39"><ellipse class="cls-18" cx="76.62" cy="134.56" rx="5.14" ry="2.99" transform="translate(-16.27 10.67) rotate(-7.2)"/><ellipse class="cls-6" cx="75.78" cy="127.92" rx="5.26" ry="3.14" transform="translate(-15.44 10.51) rotate(-7.2)"/></g><path class="cls-6" d="M67.28,127.61s-1.81,1.16-2.22,1.51,2,.92,4.26-.11Z"/><path class="cls-6" d="M83.94,125.5s2,.68,2.53.92-1.73,1.39-4.16,1Z"/><path class="cls-40" d="M83.93,124.73c.31,2.51-3.19,5-7.84,5.62s-8.67-1-9-3.49,2.81-8,7.46-8.62S83.61,122.21,83.93,124.73Z"/><ellipse class="cls-41" cx="70.9" cy="125.97" rx="1.08" ry="2" transform="translate(-15.24 9.88) rotate(-7.2)"/><ellipse class="cls-41" cx="80.03" cy="124.82" rx="1.08" ry="2" transform="translate(-15.02 11.02) rotate(-7.2)"/><ellipse class="cls-36" cx="55.46" cy="125.91" rx="2.02" ry="0.66" transform="matrix(0.99, -0.13, 0.13, 0.99, -15.35, 7.95)"/><ellipse class="cls-36" cx="94.41" cy="120.99" rx="2.02" ry="0.66" transform="translate(-14.43 12.79) rotate(-7.2)"/><path class="cls-22" d="M68.05,103.45a7.54,7.54,0,0,0,6.38,6.34s-.82-6.56,1.74-6.88c0,0-.18,2.67,1.55,3.65a18.12,18.12,0,0,0,1.5-3.64l.27,2.14s3.94-2,3.19-4.5-4.62-5.92-11.34-5.07-9.37,5.12-9.11,7.57c0,0,.09,2.64,2.3,3.49l.32-2.21a3.65,3.65,0,0,0,2.66,3.35S67.3,104.11,68.05,103.45Z"/><ellipse class="cls-34" cx="91.53" cy="139.63" rx="1.03" ry="0.45" transform="translate(-60.63 208.35) rotate(-81.06)"/></g></svg>