<svg id="Layer_1" data-name="Layer 1" xmlns="http://www.w3.org/2000/svg" xmlns:xlink="http://www.w3.org/1999/xlink" viewBox="0 0 260 168"><defs><style>.cls-1{fill:#bc6319;}.cls-2{fill:#c97523;}.cls-3{fill:#994a0a;}.cls-4{fill:#7a3100;}.cls-5{fill:#c1681f;}.cls-6{clip-path:url(#clip-path);}.cls-7{fill:#a04908;}.cls-8{clip-path:url(#clip-path-2);}.cls-9{clip-path:url(#clip-path-3);}.cls-10{fill:#db853e;}.cls-11{clip-path:url(#clip-path-4);}.cls-12{fill:#c41e1e;}.cls-13{fill:#fff;}.cls-14{fill:#cc6b23;}.cls-15{fill:#f49547;}.cls-16{fill:#a8540e;}.cls-17{fill:#c1671e;}.cls-18{fill:#e5813e;}.cls-19{fill:#c66c22;}.cls-20{clip-path:url(#clip-path-5);}.cls-21{clip-path:url(#clip-path-6);}.cls-22{fill:none;stroke:#b75818;stroke-linecap:round;stroke-linejoin:round;stroke-width:0.37px;}</style><clipPath id="clip-path"><path class="cls-1" d="M187.3,150.85s1.4,4.57,1.33,6.14c0,0-.21,1,1.12.26,0,0,.76,1,2.22,0a.94.94,0,0,0,.36-.43c.32-.69,1-2.81.13-6.7C191.37,145.23,186.28,145.58,187.3,150.85Z"/></clipPath><clipPath id="clip-path-2"><path class="cls-1" d="M172.45,150.85s1.39,4.57,1.33,6.14c0,0-.21,1,1.11.26,0,0,.76,1,2.23,0a1.08,1.08,0,0,0,.36-.43c.31-.69,1-2.81.13-6.7C176.52,145.23,171.42,145.58,172.45,150.85Z"/></clipPath><clipPath id="clip-path-3"><path class="cls-2" d="M172.55,123.73s27.61,1.78,29.22,17.65-33.27,8.52-40.24,6.42L175,140.92Z"/></clipPath><clipPath id="clip-path-4"><path class="cls-3" d="M159.34,143.78s3.25.51,4.74-1.11c0,0-.76,3.53-3.83,2.92C160.25,145.59,159.19,145.28,159.34,143.78Z"/></clipPath><clipPath id="clip-path-5"><path class="cls-2" d="M176.13,150.85s1.39,4.57,1.33,6.14c0,0-.21,1,1.11.26,0,0,.77,1,2.23,0a1,1,0,0,0,.36-.43c.31-.69,1-2.81.13-6.7C180.2,145.23,175.11,145.58,176.13,150.85Z"/></clipPath><clipPath id="clip-path-6"><path class="cls-2" d="M191,150.85s1.39,4.57,1.32,6.14c0,0-.2,1,1.12.26,0,0,.76,1,2.23,0a1.08,1.08,0,0,0,.36-.43,14.35,14.35,0,0,0,.95-8.3C195.88,143.63,190,145.58,191,150.85Z"/></clipPath></defs><path class="cls-4" d="M203.12,150.35a2.6,2.6,0,0,0,1.47.67,11,11,0,0,0,1.52.17.38.38,0,0,1-.28-.18.69.69,0,0,1,.75.45,4.18,4.18,0,0,0-.23-2.57,2.44,2.44,0,0,0-2-1.44,1.42,1.42,0,0,0-1,.31A2.27,2.27,0,0,0,203.12,150.35Z"/><path class="cls-5" d="M199.47,146.53s4.61.72,4.75,3c0,0-.48-.57-4.75-1.1S197.23,146.37,199.47,146.53Z"/><path class="cls-1" d="M187.3,150.85s1.4,4.57,1.33,6.14c0,0-.21,1,1.12.26,0,0,.76,1,2.22,0a.94.94,0,0,0,.36-.43c.32-.69,1-2.81.13-6.7C191.37,145.23,186.28,145.58,187.3,150.85Z"/><g class="cls-6"><path class="cls-7" d="M187.4,155.42c.15.06,1.81,1.63,6.2.46v2.67l-6.43-.06-1.39-2.42Z"/></g><path class="cls-1" d="M172.45,150.85s1.39,4.57,1.33,6.14c0,0-.21,1,1.11.26,0,0,.76,1,2.23,0a1.08,1.08,0,0,0,.36-.43c.31-.69,1-2.81.13-6.7C176.52,145.23,171.42,145.58,172.45,150.85Z"/><g class="cls-8"><path class="cls-7" d="M172.54,155.42c.15.06,1.81,1.63,6.2.46v2.67l-6.43-.06-1.38-2.42Z"/></g><path class="cls-2" d="M159.28,128.87s-1.76,5.59-6.93,5.72l4.86,3.63,1.79-.35,1.24-5.94S161.53,128.15,159.28,128.87Z"/><path class="cls-2" d="M172.55,123.73s27.61,1.78,29.22,17.65-33.27,8.52-40.24,6.42L175,140.92Z"/><g class="cls-9"><path class="cls-10" d="M183.12,153.28s-18.3-3.52-10.15-3.66,10.15,1.27,20.19.73-5.7,2.77-5.7,2.77l-4,0"/></g><ellipse class="cls-2" cx="161.78" cy="145.35" rx="2.46" ry="3.53" transform="translate(0.53 291.29) rotate(-84.09)"/><path class="cls-2" d="M161,147.41c4.91,1.49,13.57,2.72,19.77-.75l-12.68-5.49-9,1-1.67.92"/><path class="cls-2" d="M183.51,142.76c-.4,3.88-5.59,6.4-13.61,5.57s-14.21-4.65-13.81-8.54,7.23-6.35,15.26-5.52S183.91,138.88,183.51,142.76Z"/><path class="cls-2" d="M183.59,137.19c-.36,7.42-4.42,12.1-12.23,11.29s-14.46-6.63-13.77-13.35,3.88-12,11.73-11.88C179.29,123.38,184,129.42,183.59,137.19Z"/><path class="cls-2" d="M152.35,134.59s3.19-.57,4.77,1.6l1,7.74a70.54,70.54,0,0,1-7.07-1.16Z"/><path class="cls-3" d="M159.34,143.78s3.25.51,4.74-1.11c0,0-.76,3.53-3.83,2.92C160.25,145.59,159.19,145.28,159.34,143.78Z"/><g class="cls-11"><ellipse class="cls-12" cx="162.21" cy="146.54" rx="2.02" ry="2.54" transform="translate(-0.26 292.79) rotate(-84.09)"/><ellipse class="cls-13" cx="161.16" cy="142.32" rx="2.02" ry="2.54" transform="translate(2.99 287.95) rotate(-84.09)"/></g><path class="cls-14" d="M152.13,143s7,1.92,11,.39l.18-.32s-6.93.36-10.55-.64Z"/><path class="cls-15" d="M155,139.9a3.12,3.12,0,0,1-3.22,3c-1.73-.06-1.88-1.46-1.82-3.19s.37-5.18,2.09-5.12S155.06,138.17,155,139.9Z"/><ellipse class="cls-16" cx="151.75" cy="139.52" rx="1.36" ry="0.73" transform="translate(7.25 286.53) rotate(-88.09)"/><circle class="cls-13" cx="165.93" cy="135.99" r="3.45" transform="translate(-39.08 199.22) rotate(-56.48)"/><path d="M165.81,132.88a2.53,2.53,0,0,0-.87.07.92.92,0,0,1-.62,1.68.91.91,0,0,1-.81-.77,2.55,2.55,0,0,0-.54,1.32,2.58,2.58,0,1,0,2.84-2.3Z"/><ellipse class="cls-17" cx="169" cy="139.89" rx="0.45" ry="1.37" transform="translate(12.44 293.58) rotate(-84.09)"/><path class="cls-4" d="M168.36,124.92a4.74,4.74,0,0,0-1.6-3,6.63,6.63,0,0,0-2.35-.18,5.82,5.82,0,0,0-4.27,2.58,5.47,5.47,0,0,0-.83,2.63,4.67,4.67,0,0,0,.08,1l.42.8a5.64,5.64,0,0,0,1.64,1s.47-4.48,2.22-4.3c0,0-.53,1.75.46,2.67a12.6,12.6,0,0,0,1.56-2.18l-.15,1.45S168.46,126.73,168.36,124.92Z"/><path class="cls-4" d="M170.73,124.8a4.17,4.17,0,0,0,.15.87,23.37,23.37,0,0,1,2.45-.67l-.1.8A11,11,0,0,1,178,125a5,5,0,0,0-1.79-1.76,16.51,16.51,0,0,0-6.05-1.93,15.11,15.11,0,0,0-5.27-.27,5.6,5.6,0,0,0-4.2,2.91l3.88-.55a.44.44,0,0,1,.3,0,.47.47,0,0,1,.19.28l.43,1.19a4.66,4.66,0,0,1,.79-.81.25.25,0,0,1,.19-.08c.07,0,.12.08.16.15a6.68,6.68,0,0,0,.55.93c.83-.52.88.05.82.73A2.86,2.86,0,0,0,170.73,124.8Z"/><path class="cls-4" d="M180.65,123.74a10.34,10.34,0,0,0,1.07.49c.47.16,1,.23,1.43.36a10.56,10.56,0,0,1,2.08.88l4.53,2.3a2.65,2.65,0,0,1-3-.36,1.3,1.3,0,0,1-1.48.57,4.45,4.45,0,0,1-1.47-.85,1.29,1.29,0,0,0-.87-.35,3.41,3.41,0,0,0-.5.19c-1,.4-2.09-.49-2.85-1.3a1.64,1.64,0,0,1-1.68.11c-.23-.13-.42-.3-.66-.41a4.57,4.57,0,0,0-1.53-.2c-.51,0-1.1-.28-1.21-.78a1.59,1.59,0,0,1-1.65.45,4.64,4.64,0,0,1-1.56-.91l-2-1.56c-.93-.72-.54-1.19.41-1.15a34.7,34.7,0,0,1,3.66.4A23.66,23.66,0,0,1,180.65,123.74Z"/><path class="cls-2" d="M172.25,125.64s3.59-3.19,7.12-1.45,4,5.83-4.69,11.59C174.68,135.78,170.69,129.13,172.25,125.64Z"/><path class="cls-18" d="M172.25,127s2.56-2.28,5.08-1,2.85,4.16-3.34,8.27C174,134.18,171.14,129.43,172.25,127Z"/><ellipse class="cls-19" cx="189.04" cy="130.75" rx="2.06" ry="0.65"/><ellipse class="cls-19" cx="192.89" cy="133.02" rx="2.06" ry="0.65"/><path class="cls-2" d="M176.13,150.85s1.39,4.57,1.33,6.14c0,0-.21,1,1.11.26,0,0,.77,1,2.23,0a1,1,0,0,0,.36-.43c.31-.69,1-2.81.13-6.7C180.2,145.23,175.11,145.58,176.13,150.85Z"/><g class="cls-20"><path class="cls-7" d="M176.23,155.42c.14.06,1.8,1.63,6.2.46v2.67l-6.43-.06-1.39-2.42Z"/></g><path class="cls-2" d="M191,150.85s1.39,4.57,1.32,6.14c0,0-.2,1,1.12.26,0,0,.76,1,2.23,0a1.08,1.08,0,0,0,.36-.43,14.35,14.35,0,0,0,.95-8.3C195.88,143.63,190,145.58,191,150.85Z"/><g class="cls-21"><path class="cls-7" d="M191.08,155.42c.15.06,1.81,1.63,6.2.46v2.67l-6.43-.06-1.39-2.42Z"/></g><path class="cls-13" d="M163.43,142.77s-1.2.85-1.47,1.1,1.39.57,2.9-.19Z"/><ellipse class="cls-2" cx="165.07" cy="142.81" rx="1.33" ry="1.72" transform="translate(6.01 292.28) rotate(-84.09)"/><path class="cls-22" d="M164.91,141.27s-1.61.09-1.51,1.59,2.3,1.53,3.78.55"/></svg>