<svg id="Layer_1" data-name="Layer 1" xmlns="http://www.w3.org/2000/svg" xmlns:xlink="http://www.w3.org/1999/xlink" viewBox="0 0 260 168"><defs><style>.cls-1{fill:#bc6319;}.cls-2{fill:#994a0a;}.cls-3{fill:#7a3100;}.cls-4{fill:#a54c0a;}.cls-5{clip-path:url(#clip-path);}.cls-6{fill:#a04908;}.cls-7{clip-path:url(#clip-path-2);}.cls-8{clip-path:url(#clip-path-3);}.cls-9{fill:#b25712;}.cls-10{clip-path:url(#clip-path-4);}.cls-11{clip-path:url(#clip-path-5);}.cls-12{fill:#af5614;}.cls-13{fill:#682c02;}.cls-14{fill:#c1671e;}.cls-15{fill:#d6752d;}.cls-16{fill:#c97523;}.cls-17{fill:#fff;}.cls-18{clip-path:url(#clip-path-6);}.cls-19{fill:#c41e1e;}.cls-20{fill:#f49547;}.cls-21{fill:#a8540e;}</style><clipPath id="clip-path"><path class="cls-1" d="M60.15,145s-6.71,2-9,1.94c0,0-1.47-.31-.38,1.63,0,0-1.45,1.12,0,3.27a1.45,1.45,0,0,0,.62.53c1,.46,4.12,1.47,9.84.19C68.38,150.92,67.88,143.45,60.15,145Z"/></clipPath><clipPath id="clip-path-2"><path class="cls-1" d="M83.35,145.63s6.81,1.66,9.1,1.44c0,0,1.45-.39.48,1.61,0,0,1.5,1,.17,3.26a1.47,1.47,0,0,1-.59.57c-1,.51-4,1.69-9.81.74C75.46,152.06,75.55,144.57,83.35,145.63Z"/></clipPath><clipPath id="clip-path-3"><path class="cls-1" d="M89,139.74C89,152,81.53,153.2,72.28,153.2S55.52,152,55.52,139.74s7.5-22.21,16.76-22.21S89,127.47,89,139.74Z"/></clipPath><clipPath id="clip-path-4"><path class="cls-1" d="M57.42,148.51s2,6.71,1.95,9c0,0-.31,1.47,1.63.38,0,0,1.12,1.45,3.27,0a1.52,1.52,0,0,0,.53-.62c.45-1,1.46-4.13.19-9.84C63.39,140.28,55.92,140.79,57.42,148.51Z"/></clipPath><clipPath id="clip-path-5"><path class="cls-1" d="M84.44,135.15s5.63-4.18,6.92-6.08c0,0,.63-1.37,1.54.66,0,0,1.76-.5,2.62,2a1.44,1.44,0,0,1,.06.82c-.24,1.09-1.27,4.18-5.69,8C84.35,145.33,78.64,140.48,84.44,135.15Z"/></clipPath><clipPath id="clip-path-6"><path class="cls-2" d="M63.05,128.58A16,16,0,0,0,78,124.88a7.69,7.69,0,0,1-6.23,7.56C64.79,134,63.05,128.58,63.05,128.58Z"/></clipPath></defs><path class="cls-3" d="M89.27,148.93a3.81,3.81,0,0,0,2.17,1,15.24,15.24,0,0,0,2.23.26.57.57,0,0,1-.41-.26,1,1,0,0,1,1.1.66,6.18,6.18,0,0,0-.34-3.78,3.59,3.59,0,0,0-3-2.12,2.1,2.1,0,0,0-1.43.46C88.77,145.87,88.52,148.12,89.27,148.93Z"/><path class="cls-4" d="M83.92,143.33s6.77,1,7,4.35c0,0-.69-.82-7-1.6S80.64,143.09,83.92,143.33Z"/><path class="cls-1" d="M60.15,145s-6.71,2-9,1.94c0,0-1.47-.31-.38,1.63,0,0-1.45,1.12,0,3.27a1.45,1.45,0,0,0,.62.53c1,.46,4.12,1.47,9.84.19C68.38,150.92,67.88,143.45,60.15,145Z"/><g class="cls-5"><path class="cls-6" d="M53.44,145.08c-.09.22-2.39,2.65-.67,9.1H48.84l.1-9.43,3.55-2Z"/></g><path class="cls-1" d="M83.35,145.63s6.81,1.66,9.1,1.44c0,0,1.45-.39.48,1.61,0,0,1.5,1,.17,3.26a1.47,1.47,0,0,1-.59.57c-1,.51-4,1.69-9.81.74C75.46,152.06,75.55,144.57,83.35,145.63Z"/><g class="cls-7"><path class="cls-6" d="M90.06,145.39c.1.21,2.54,2.52,1.18,9.05l3.92-.22-.63-9.41L90.88,143Z"/></g><path class="cls-1" d="M89,139.74C89,152,81.53,153.2,72.28,153.2S55.52,152,55.52,139.74s7.5-22.21,16.76-22.21S89,127.47,89,139.74Z"/><g class="cls-8"><ellipse class="cls-9" cx="72.26" cy="126.3" rx="17.56" ry="11.58"/></g><path class="cls-1" d="M57.42,148.51s2,6.71,1.95,9c0,0-.31,1.47,1.63.38,0,0,1.12,1.45,3.27,0a1.52,1.52,0,0,0,.53-.62c.45-1,1.46-4.13.19-9.84C63.39,140.28,55.92,140.79,57.42,148.51Z"/><g class="cls-10"><path class="cls-6" d="M57.56,155.22c.21.1,2.65,2.4,9.1.67v3.93l-9.44-.1-2-3.54Z"/></g><path class="cls-1" d="M84.44,135.15s5.63-4.18,6.92-6.08c0,0,.63-1.37,1.54.66,0,0,1.76-.5,2.62,2a1.44,1.44,0,0,1,.06.82c-.24,1.09-1.27,4.18-5.69,8C84.35,145.33,78.64,140.48,84.44,135.15Z"/><g class="cls-11"><path class="cls-6" d="M88.54,129.84c.23,0,3.56-.35,7.72,4.87l2.33-3.16L91,126l-3.75,1.64Z"/></g><ellipse class="cls-12" cx="56.83" cy="135.37" rx="1.21" ry="0.54" transform="translate(-83.96 176.97) rotate(-83.69)"/><path class="cls-13" d="M53.17,102.93a7.14,7.14,0,0,0-.71,5.4.95.95,0,0,0,1.14.82,55.8,55.8,0,0,0,24.84-5.45,1.33,1.33,0,0,0,.76-.65,1.24,1.24,0,0,0-.22-1c-.59-1-.88-2.17-1.72-3a10.29,10.29,0,0,0-3.31-2,12.79,12.79,0,0,0-5.54-1.15C63.46,96.43,56,98,53.17,102.93Z"/><path class="cls-14" d="M57.46,110.22c4.31,2.39.25,7.73-2.81,10.2s-8,1.37-11.13-2.46-3.14-8.94-.08-11.41S53.5,108,57.46,110.22Z"/><path class="cls-15" d="M54.12,111c2.9,1.32.57,5-1.28,6.73s-5.11,1.3-7.31-1-2.49-5.6-.65-7.36S51.45,109.79,54.12,111Z"/><path class="cls-14" d="M75.37,106.28c-2.91,4,3,7.13,6.82,8.09s7.88-2.13,9.08-6.91-.9-9.43-4.71-10.39S78,102.63,75.37,106.28Z"/><path class="cls-15" d="M78.73,105.58c-2.09,2.41,1.57,4.76,4,5.58s5.19-1,6.22-4-.08-6.12-2.49-7S80.64,103.37,78.73,105.58Z"/><ellipse class="cls-16" cx="70.05" cy="124.8" rx="23.59" ry="10.37" transform="translate(-25.15 17.94) rotate(-12.39)"/><ellipse class="cls-16" cx="68.43" cy="117.41" rx="20.85" ry="17.94" transform="translate(-23.6 17.42) rotate(-12.39)"/><circle class="cls-17" cx="55.31" cy="120.84" r="5.06"/><circle cx="56.65" cy="120.67" r="3.79"/><circle class="cls-17" cx="54.29" cy="118.76" r="1.37"/><circle class="cls-17" cx="81.77" cy="115.03" r="5.06"/><circle cx="83.11" cy="114.86" r="3.79"/><circle class="cls-17" cx="80.75" cy="112.95" r="1.37"/><path class="cls-2" d="M63.05,128.58A16,16,0,0,0,78,124.88a7.69,7.69,0,0,1-6.23,7.56C64.79,134,63.05,128.58,63.05,128.58Z"/><g class="cls-18"><ellipse class="cls-19" cx="72.07" cy="134" rx="5.14" ry="2.99" transform="translate(-27.08 18.59) rotate(-12.39)"/><ellipse class="cls-17" cx="70.64" cy="127.47" rx="5.26" ry="3.14" transform="translate(-25.71 18.13) rotate(-12.39)"/></g><path class="cls-17" d="M62.14,127.92s-1.7,1.33-2.07,1.72,2.09.73,4.23-.51Z"/><path class="cls-17" d="M78.54,124.32s2.1.49,2.6.69-1.59,1.54-4,1.31Z"/><path class="cls-20" d="M78.46,123.55c.54,2.48-2.72,5.3-7.3,6.3s-8.72-.18-9.27-2.66,2.08-8.25,6.65-9.26S77.92,121.08,78.46,123.55Z"/><ellipse class="cls-21" cx="65.6" cy="125.97" rx="1.08" ry="2" transform="translate(-25.5 17.01) rotate(-12.39)"/><ellipse class="cls-21" cx="74.58" cy="124" rx="1.08" ry="2" transform="translate(-24.87 18.89) rotate(-12.39)"/><ellipse class="cls-14" cx="50.22" cy="127.31" rx="2.02" ry="0.66" transform="translate(-26.15 13.74) rotate(-12.39)"/><ellipse class="cls-14" cx="88.56" cy="118.88" rx="2.02" ry="0.66" transform="translate(-23.45 21.77) rotate(-12.39)"/><path class="cls-3" d="M60.73,103.8a7.53,7.53,0,0,0,6.92,5.73s-1.41-6.45,1.11-7c0,0,.06,2.68,1.87,3.5a18.48,18.48,0,0,0,1.17-3.76l.46,2.1S76,102.07,75,99.59s-5.14-5.47-11.75-4-8.87,6-8.39,8.37c0,0,.33,2.62,2.61,3.26l.12-2.23a3.65,3.65,0,0,0,3,3.1S60,104.52,60.73,103.8Z"/><ellipse class="cls-12" cx="57.38" cy="138.37" rx="1.03" ry="0.45" transform="translate(-86.47 180.19) rotate(-83.69)"/></svg>