<svg id="Layer_9" data-name="Layer 9" xmlns="http://www.w3.org/2000/svg" xmlns:xlink="http://www.w3.org/1999/xlink" viewBox="0 0 260 168"><defs><style>.cls-1{fill:#bc6319;}.cls-2{fill:#c97523;}.cls-3{fill:#994a0a;}.cls-4{fill:#7a3100;}.cls-5{fill:#c1681f;}.cls-6{clip-path:url(#clip-path);}.cls-7{fill:#a04908;}.cls-8{clip-path:url(#clip-path-2);}.cls-9{clip-path:url(#clip-path-3);}.cls-10{fill:#db853e;}.cls-11{clip-path:url(#clip-path-4);}.cls-12{fill:#c41e1e;}.cls-13{fill:#fff;}.cls-14{fill:#cc6b23;}.cls-15{fill:#f49547;}.cls-16{fill:#a8540e;}.cls-17{fill:#c1671e;}.cls-18{fill:#e5813e;}.cls-19{fill:#c66c22;}.cls-20{clip-path:url(#clip-path-5);}.cls-21{clip-path:url(#clip-path-6);}.cls-22{fill:none;stroke:#b75818;stroke-linecap:round;stroke-linejoin:round;stroke-width:0.37px;}</style><clipPath id="clip-path"><path class="cls-1" d="M97.4,142.17s1.46,4.6,2.42,5.87c0,0,.75.71-.78.85,0,0-.07,1.26-1.85,1.28a1,1,0,0,1-.55-.15c-.66-.4-2.44-1.76-4-5.5C90.79,139.84,95.22,137.2,97.4,142.17Z"/></clipPath><clipPath id="clip-path-2"><path class="cls-1" d="M114.66,142.11s1.85,4.46,2.91,5.64c0,0,.81.64-.7.92,0,0,0,1.26-1.73,1.43a1.06,1.06,0,0,1-.56-.1c-.69-.34-2.59-1.55-4.42-5.14C107.87,140.36,112.06,137.35,114.66,142.11Z"/></clipPath><clipPath id="clip-path-3"><path class="cls-2" d="M112.62,116.61s-27.9,1.79-29.53,17.83,33.62,8.61,40.67,6.49l-13.64-7Z"/></clipPath><clipPath id="clip-path-4"><path class="cls-3" d="M126,136.86s-3.29.52-4.79-1.11c0,0,.77,3.56,3.87,2.94C125.05,138.69,126.12,138.38,126,136.86Z"/></clipPath><clipPath id="clip-path-5"><path class="cls-2" d="M108,144.27s-3.2,3.62-3.79,5.09c0,0-.23,1-1.14-.23,0,0-1.11.59-2-.93a1.07,1.07,0,0,1-.16-.55c0-.77.26-3,2.69-6.22C106.57,137.4,111.11,139.85,108,144.27Z"/></clipPath><clipPath id="clip-path-6"><path class="cls-2" d="M91.37,144.42s-3.62,3.2-4.4,4.58c0,0-.35,1-1.09-.37,0,0-1.18.45-1.92-1.18a1.08,1.08,0,0,1-.08-.56,14.48,14.48,0,0,1,3.59-7.65C91,135.62,95,140.43,91.37,144.42Z"/></clipPath></defs><path class="cls-4" d="M81.73,143.5a2.6,2.6,0,0,1-1.49.68,13.29,13.29,0,0,1-1.53.18.42.42,0,0,0,.28-.19.69.69,0,0,0-.76.46,4.28,4.28,0,0,1,.23-2.6,2.47,2.47,0,0,1,2.06-1.46,1.42,1.42,0,0,1,1,.31A2.3,2.3,0,0,1,81.73,143.5Z"/><path class="cls-5" d="M85.42,139.64s-4.66.73-4.8,3c0,0,.48-.57,4.8-1.1S87.68,139.48,85.42,139.64Z"/><path class="cls-1" d="M97.4,142.17s1.46,4.6,2.42,5.87c0,0,.75.71-.78.85,0,0-.07,1.26-1.85,1.28a1,1,0,0,1-.55-.15c-.66-.4-2.44-1.76-4-5.5C90.79,139.84,95.22,137.2,97.4,142.17Z"/><g class="cls-6"><path class="cls-7" d="M99.94,146c-.08.14-.56,2.39-4.89,3.94l1.53,2.22,5.31-3.74-.23-2.81Z"/></g><path class="cls-1" d="M114.66,142.11s1.85,4.46,2.91,5.64c0,0,.81.64-.7.92,0,0,0,1.26-1.73,1.43a1.06,1.06,0,0,1-.56-.1c-.69-.34-2.59-1.55-4.42-5.14C107.87,140.36,112.06,137.35,114.66,142.11Z"/><g class="cls-8"><path class="cls-7" d="M117.52,145.73c-.07.15-.35,2.44-4.53,4.35l1.72,2.09,5-4.19-.48-2.78Z"/></g><path class="cls-2" d="M126,121.8s1.78,5.65,7,5.77l-4.92,3.67-1.81-.35-1.25-6S123.76,121.07,126,121.8Z"/><path class="cls-2" d="M112.62,116.61s-27.9,1.79-29.53,17.83,33.62,8.61,40.67,6.49l-13.64-7Z"/><g class="cls-9"><path class="cls-10" d="M101.94,146.46s18.49-3.56,10.26-3.7-10.26,1.29-20.41.74,5.76,2.8,5.76,2.8l4.06,0"/></g><ellipse class="cls-2" cx="123.5" cy="138.45" rx="3.57" ry="2.49" transform="translate(-13.61 13.46) rotate(-5.91)"/><path class="cls-2" d="M124.25,140.53c-5,1.51-13.71,2.75-20-.75l12.82-5.56,9.11,1,1.69.93"/><path class="cls-2" d="M101.55,135.83c.4,3.93,5.64,6.47,13.75,5.63s14.36-4.7,14-8.62-7.31-6.43-15.42-5.59S101.14,131.91,101.55,135.83Z"/><path class="cls-2" d="M101.46,130.2c.36,7.5,4.47,12.23,12.36,11.42s14.62-6.71,13.92-13.5-3.92-12.11-11.86-12C105.81,116.25,101.08,122.36,101.46,130.2Z"/><path class="cls-2" d="M133,127.57s-3.24-.57-4.83,1.62l-1,7.83s3.58-.38,7.15-1.17Z"/><path class="cls-3" d="M126,136.86s-3.29.52-4.79-1.11c0,0,.77,3.56,3.87,2.94C125.05,138.69,126.12,138.38,126,136.86Z"/><g class="cls-11"><ellipse class="cls-12" cx="123.06" cy="139.65" rx="2.57" ry="2.04" transform="translate(-13.74 13.43) rotate(-5.91)"/><ellipse class="cls-13" cx="124.13" cy="135.39" rx="2.57" ry="2.04" transform="translate(-13.29 13.51) rotate(-5.91)"/></g><path class="cls-14" d="M133.25,136s-7,1.94-11.11.4l-.18-.33s7,.37,10.66-.64Z"/><path class="cls-15" d="M130.35,132.94a3.16,3.16,0,0,0,3.26,3.06c1.74-.06,1.9-1.48,1.84-3.23s-.38-5.23-2.12-5.18S130.29,131.2,130.35,132.94Z"/><ellipse class="cls-16" cx="133.63" cy="132.56" rx="0.74" ry="1.38" transform="translate(-4.35 4.54) rotate(-1.91)"/><circle class="cls-13" cx="119.31" cy="128.99" r="3.49" transform="translate(-51.4 87.34) rotate(-33.52)"/><path d="M119.44,125.85a2.53,2.53,0,0,1,.87.07.9.9,0,0,0-.41.86.93.93,0,0,0,1,.84.92.92,0,0,0,.82-.78,2.51,2.51,0,0,1,.55,1.33,2.61,2.61,0,1,1-2.86-2.32Z"/><ellipse class="cls-17" cx="116.21" cy="132.93" rx="1.39" ry="0.45" transform="translate(-13.08 12.68) rotate(-5.91)"/><path class="cls-4" d="M116.86,117.81a4.75,4.75,0,0,1,1.61-3,6.53,6.53,0,0,1,2.37-.18,5.84,5.84,0,0,1,4.32,2.6,5.48,5.48,0,0,1,.84,2.66,4.82,4.82,0,0,1-.08,1l-.43.8a5.4,5.4,0,0,1-1.65,1s-.48-4.53-2.25-4.35c0,0,.54,1.77-.46,2.7a12.7,12.7,0,0,1-1.58-2.21l.15,1.48S116.76,119.64,116.86,117.81Z"/><path class="cls-4" d="M114.46,117.69a3.88,3.88,0,0,1-.16.88,23.16,23.16,0,0,0-2.47-.69l.1.81a11.21,11.21,0,0,0-4.86-.79,5,5,0,0,1,1.81-1.77,16.85,16.85,0,0,1,6.11-2,15.69,15.69,0,0,1,5.33-.26,5.67,5.67,0,0,1,4.25,2.93l-3.93-.55a.44.44,0,0,0-.3,0,.47.47,0,0,0-.19.28l-.44,1.2a4.77,4.77,0,0,0-.8-.82.23.23,0,0,0-.19-.07c-.07,0-.12.08-.15.14a7.29,7.29,0,0,1-.56.94c-.84-.52-.9,0-.83.74A2.86,2.86,0,0,1,114.46,117.69Z"/><path class="cls-4" d="M104.43,116.61a8.15,8.15,0,0,1-1.08.5c-.47.16-1,.23-1.45.36a11,11,0,0,0-2.1.89l-4.57,2.32a2.68,2.68,0,0,0,3-.35,1.29,1.29,0,0,0,1.49.56,4.15,4.15,0,0,0,1.49-.86,1.3,1.3,0,0,1,.88-.34,1.91,1.91,0,0,1,.5.19c1,.4,2.12-.5,2.89-1.32a1.63,1.63,0,0,0,1.69.11c.23-.12.43-.3.67-.41a4.16,4.16,0,0,1,1.54-.2,1.29,1.29,0,0,0,1.23-.79,1.58,1.58,0,0,0,1.67.45,4.82,4.82,0,0,0,1.58-.91l2-1.58c1-.73.55-1.2-.41-1.17-1.22,0-2.49.24-3.7.41A24,24,0,0,0,104.43,116.61Z"/><path class="cls-2" d="M112.93,118.53s-3.64-3.22-7.2-1.46-4,5.89,4.73,11.71C110.46,128.78,114.5,122.06,112.93,118.53Z"/><path class="cls-18" d="M112.92,119.85s-2.59-2.3-5.13-1-2.88,4.2,3.38,8.35C111.17,127.16,114,122.37,112.92,119.85Z"/><ellipse class="cls-19" cx="95.96" cy="123.7" rx="2.08" ry="0.66"/><ellipse class="cls-19" cx="92.07" cy="125.99" rx="2.08" ry="0.66"/><path class="cls-2" d="M108,144.27s-3.2,3.62-3.79,5.09c0,0-.23,1-1.14-.23,0,0-1.11.59-2-.93a1.07,1.07,0,0,1-.16-.55c0-.77.26-3,2.69-6.22C106.57,137.4,111.11,139.85,108,144.27Z"/><g class="cls-20"><path class="cls-7" d="M106,148.43c-.17,0-2.35.75-5.9-2.17L99,148.72l5.94,2.63,2.29-1.64Z"/></g><path class="cls-2" d="M91.37,144.42s-3.62,3.2-4.4,4.58c0,0-.35,1-1.09-.37,0,0-1.18.45-1.92-1.18a1.08,1.08,0,0,1-.08-.56,14.48,14.48,0,0,1,3.59-7.65C91,135.62,95,140.43,91.37,144.42Z"/><g class="cls-21"><path class="cls-7" d="M88.86,148.3c-.16,0-2.42.45-5.57-2.89l-1.42,2.3,5.56,3.36,2.48-1.35Z"/></g><path class="cls-13" d="M121.84,135.85s1.21.85,1.48,1.1-1.41.58-2.93-.19Z"/><ellipse class="cls-2" cx="120.18" cy="135.89" rx="1.74" ry="1.34" transform="translate(-13.36 13.11) rotate(-5.91)"/><path class="cls-22" d="M120.34,134.33s1.63.08,1.53,1.61-2.33,1.54-3.83.55"/></svg>