<svg id="Layer_3" data-name="Layer 3" xmlns="http://www.w3.org/2000/svg" xmlns:xlink="http://www.w3.org/1999/xlink" viewBox="0 0 260 168"><defs><style>.cls-1{fill:#bc6319;}.cls-2{fill:#994a0a;}.cls-3{fill:#7a3100;}.cls-4{fill:#a54c0a;}.cls-5{clip-path:url(#clip-path);}.cls-6{fill:#a04908;}.cls-7{clip-path:url(#clip-path-2);}.cls-8{clip-path:url(#clip-path-3);}.cls-9{fill:#b25712;}.cls-10{clip-path:url(#clip-path-4);}.cls-11{clip-path:url(#clip-path-5);}.cls-12{fill:#af5614;}.cls-13{fill:#682c02;}.cls-14{fill:#c1671e;}.cls-15{fill:#d6752d;}.cls-16{fill:#c97523;}.cls-17{fill:#fff;}.cls-18{clip-path:url(#clip-path-6);}.cls-19{fill:#c41e1e;}.cls-20{fill:#f49547;}.cls-21{fill:#a8540e;}</style><clipPath id="clip-path"><path class="cls-1" d="M60.15,145s-6.71,2-9,1.94c0,0-1.47-.31-.38,1.63,0,0-1.45,1.12,0,3.27a1.45,1.45,0,0,0,.62.53c1,.46,4.12,1.47,9.84.19C68.38,150.92,67.88,143.45,60.15,145Z"/></clipPath><clipPath id="clip-path-2"><path class="cls-1" d="M83.35,145.63s6.81,1.66,9.1,1.44c0,0,1.45-.39.48,1.61,0,0,1.5,1,.17,3.26a1.47,1.47,0,0,1-.59.57c-1,.51-4,1.69-9.81.74C75.46,152.06,75.55,144.57,83.35,145.63Z"/></clipPath><clipPath id="clip-path-3"><path class="cls-1" d="M89,139.74C89,152,81.53,153.2,72.28,153.2S55.52,152,55.52,139.74s7.5-22.21,16.76-22.21S89,127.47,89,139.74Z"/></clipPath><clipPath id="clip-path-4"><path class="cls-1" d="M57.42,148.51s2,6.71,1.95,9c0,0-.31,1.47,1.63.38,0,0,1.12,1.45,3.27,0a1.52,1.52,0,0,0,.53-.62c.45-1,1.46-4.13.19-9.84C63.39,140.28,55.92,140.79,57.42,148.51Z"/></clipPath><clipPath id="clip-path-5"><path class="cls-1" d="M85.55,135.6s6.57-2.44,8.34-3.9c0,0,1-1.14,1.3,1.06,0,0,1.83,0,2,2.61a1.49,1.49,0,0,1-.18.8c-.53,1-2.39,3.66-7.71,6.11C82.61,145.34,78.49,139.09,85.55,135.6Z"/></clipPath><clipPath id="clip-path-6"><path class="cls-2" d="M63.54,127.91a16,16,0,0,0,15.13-2.59,7.68,7.68,0,0,1-6.76,7.09C64.87,133.42,63.54,127.91,63.54,127.91Z"/></clipPath></defs><path class="cls-3" d="M89.27,148.93a3.81,3.81,0,0,0,2.17,1,15.24,15.24,0,0,0,2.23.26.57.57,0,0,1-.41-.26,1,1,0,0,1,1.1.66,6.18,6.18,0,0,0-.34-3.78,3.59,3.59,0,0,0-3-2.12,2.1,2.1,0,0,0-1.43.46C88.77,145.87,88.52,148.12,89.27,148.93Z"/><path class="cls-4" d="M83.92,143.33s6.77,1,7,4.35c0,0-.69-.82-7-1.6S80.64,143.09,83.92,143.33Z"/><path class="cls-1" d="M60.15,145s-6.71,2-9,1.94c0,0-1.47-.31-.38,1.63,0,0-1.45,1.12,0,3.27a1.45,1.45,0,0,0,.62.53c1,.46,4.12,1.47,9.84.19C68.38,150.92,67.88,143.45,60.15,145Z"/><g class="cls-5"><path class="cls-6" d="M53.44,145.08c-.09.22-2.39,2.65-.67,9.1H48.84l.1-9.43,3.55-2Z"/></g><path class="cls-1" d="M83.35,145.63s6.81,1.66,9.1,1.44c0,0,1.45-.39.48,1.61,0,0,1.5,1,.17,3.26a1.47,1.47,0,0,1-.59.57c-1,.51-4,1.69-9.81.74C75.46,152.06,75.55,144.57,83.35,145.63Z"/><g class="cls-7"><path class="cls-6" d="M90.06,145.39c.1.21,2.54,2.52,1.18,9.05l3.92-.22-.63-9.41L90.88,143Z"/></g><path class="cls-1" d="M89,139.74C89,152,81.53,153.2,72.28,153.2S55.52,152,55.52,139.74s7.5-22.21,16.76-22.21S89,127.47,89,139.74Z"/><g class="cls-8"><ellipse class="cls-9" cx="72.26" cy="126.3" rx="17.56" ry="11.58"/></g><path class="cls-1" d="M57.42,148.51s2,6.71,1.95,9c0,0-.31,1.47,1.63.38,0,0,1.12,1.45,3.27,0a1.52,1.52,0,0,0,.53-.62c.45-1,1.46-4.13.19-9.84C63.39,140.28,55.92,140.79,57.42,148.51Z"/><g class="cls-10"><path class="cls-6" d="M57.56,155.22c.21.1,2.65,2.4,9.1.67v3.93l-9.44-.1-2-3.54Z"/></g><path class="cls-1" d="M85.55,135.6s6.57-2.44,8.34-3.9c0,0,1-1.14,1.3,1.06,0,0,1.83,0,2,2.61a1.49,1.49,0,0,1-.18.8c-.53,1-2.39,3.66-7.71,6.11C82.61,145.34,78.49,139.09,85.55,135.6Z"/><g class="cls-11"><path class="cls-6" d="M91,131.65c.21.11,3.51.66,6,6.83l3.13-2.38-5.79-7.44-4.06.52Z"/></g><ellipse class="cls-12" cx="56.83" cy="135.37" rx="1.21" ry="0.54" transform="translate(-83.96 176.97) rotate(-83.69)"/><path class="cls-13" d="M55.57,101.61a7.13,7.13,0,0,0-1.1,5.33,1.15,1.15,0,0,0,.26.62,1.31,1.31,0,0,0,.82.28,55.65,55.65,0,0,0,25.17-3.61,1.3,1.3,0,0,0,.81-.59,1.24,1.24,0,0,0-.15-1,12.72,12.72,0,0,0-1.49-3.08,10.51,10.51,0,0,0-3.16-2.28,12.74,12.74,0,0,0-5.43-1.55C66.32,95.88,58.78,96.92,55.57,101.61Z"/><path class="cls-14" d="M59.32,109.19c4.12,2.7-.32,7.73-3.55,10s-8.12.77-10.93-3.28-2.46-9.15.77-11.39S55.54,106.71,59.32,109.19Z"/><path class="cls-15" d="M55.93,109.71c2.79,1.53.2,5-1.77,6.62s-5.2.92-7.22-1.54-2.07-5.77-.1-7.38S53.36,108.32,55.93,109.71Z"/><path class="cls-14" d="M77.47,106.59c-3.2,3.74,2.48,7.32,6.21,8.56s8-1.54,9.56-6.21-.2-9.47-3.93-10.71S80.4,103.14,77.47,106.59Z"/><path class="cls-15" d="M80.87,106.14c-2.26,2.25,1.21,4.85,3.55,5.85s5.25-.57,6.5-3.51.36-6.11-2-7.11S82.94,104.07,80.87,106.14Z"/><ellipse class="cls-16" cx="70.8" cy="124.67" rx="23.59" ry="10.37" transform="translate(-16.98 11.31) rotate(-8.16)"/><ellipse class="cls-16" cx="69.72" cy="117.17" rx="20.85" ry="17.94" transform="translate(-15.92 11.08) rotate(-8.16)"/><circle class="cls-17" cx="56.39" cy="119.62" r="5.06"/><circle cx="57.74" cy="119.56" r="3.79"/><circle class="cls-17" cx="55.52" cy="117.48" r="1.37"/><circle class="cls-17" cx="83.21" cy="115.78" r="5.06"/><circle cx="84.56" cy="115.71" r="3.79"/><circle class="cls-17" cx="82.34" cy="113.63" r="1.37"/><path class="cls-2" d="M63.54,127.91a16,16,0,0,0,15.13-2.59,7.68,7.68,0,0,1-6.76,7.09C64.87,133.42,63.54,127.91,63.54,127.91Z"/><g class="cls-18"><ellipse class="cls-19" cx="72.13" cy="133.98" rx="5.14" ry="2.99" transform="translate(-18.29 11.59) rotate(-8.16)"/><ellipse class="cls-17" cx="71.19" cy="127.36" rx="5.26" ry="3.14" transform="translate(-17.36 11.39) rotate(-8.16)"/></g><path class="cls-17" d="M62.68,127.19s-1.79,1.2-2.19,1.56,2,.88,4.25-.19Z"/><path class="cls-17" d="M79.3,124.81s2.06.64,2.54.87-1.69,1.42-4.14,1Z"/><path class="cls-20" d="M79.28,124c.36,2.51-3.11,5.08-7.75,5.74s-8.68-.83-9-3.34,2.67-8.07,7.31-8.74S78.92,121.53,79.28,124Z"/><ellipse class="cls-21" cx="66.27" cy="125.5" rx="1.08" ry="2" transform="translate(-17.14 10.68) rotate(-8.16)"/><ellipse class="cls-21" cx="75.38" cy="124.19" rx="1.08" ry="2" transform="translate(-16.86 11.95) rotate(-8.16)"/><ellipse class="cls-14" cx="50.83" cy="125.7" rx="2.02" ry="0.66" transform="translate(-17.32 8.49) rotate(-8.16)"/><ellipse class="cls-14" cx="89.7" cy="120.12" rx="2.02" ry="0.66" transform="translate(-16.14 13.95) rotate(-8.16)"/><path class="cls-3" d="M63.05,103a7.54,7.54,0,0,0,6.48,6.23s-.93-6.55,1.63-6.91c0,0-.14,2.67,1.61,3.63a18.67,18.67,0,0,0,1.44-3.67l.3,2.13s3.91-2,3.12-4.55S72.9,94.05,66.2,95s-9.28,5.28-9,7.73c0,0,.13,2.63,2.36,3.44l.28-2.21a3.67,3.67,0,0,0,2.71,3.31S62.3,103.7,63.05,103Z"/><ellipse class="cls-12" cx="57.38" cy="138.37" rx="1.03" ry="0.45" transform="translate(-86.47 180.19) rotate(-83.69)"/></svg>