<svg id="Layer_3" data-name="Layer 3" xmlns="http://www.w3.org/2000/svg" xmlns:xlink="http://www.w3.org/1999/xlink" viewBox="0 0 260 168"><defs><style>.cls-1{fill:#bc6319;}.cls-2{fill:#c97523;}.cls-3{fill:#994a0a;}.cls-4{fill:#7a3100;}.cls-5{fill:#c1681f;}.cls-6{clip-path:url(#clip-path);}.cls-7{fill:#a04908;}.cls-8{clip-path:url(#clip-path-2);}.cls-9{clip-path:url(#clip-path-3);}.cls-10{fill:#db853e;}.cls-11{clip-path:url(#clip-path-4);}.cls-12{fill:#c41e1e;}.cls-13{fill:#fff;}.cls-14{fill:#cc6b23;}.cls-15{fill:#f49547;}.cls-16{fill:#a8540e;}.cls-17{fill:#c1671e;}.cls-18{fill:#e5813e;}.cls-19{fill:#c66c22;}.cls-20{clip-path:url(#clip-path-5);}.cls-21{clip-path:url(#clip-path-6);}.cls-22{fill:none;stroke:#b75818;stroke-linecap:round;stroke-linejoin:round;stroke-width:0.37px;}</style><clipPath id="clip-path"><path class="cls-1" d="M184.27,155.48s1.4,4.58,1.33,6.14c0,0-.21,1,1.12.26,0,0,.76,1,2.22,0a1.09,1.09,0,0,0,.37-.43c.31-.69,1-2.81.12-6.71C188.35,149.87,183.25,150.22,184.27,155.48Z"/></clipPath><clipPath id="clip-path-2"><path class="cls-1" d="M169.42,155.48s1.39,4.58,1.33,6.14c0,0-.21,1,1.11.26,0,0,.77,1,2.23,0a1.15,1.15,0,0,0,.36-.43c.31-.69,1-2.81.13-6.71C173.49,149.87,168.39,150.22,169.42,155.48Z"/></clipPath><clipPath id="clip-path-3"><path class="cls-2" d="M169.52,128.37s27.61,1.77,29.22,17.65-33.27,8.52-40.24,6.42L172,145.56Z"/></clipPath><clipPath id="clip-path-4"><path class="cls-3" d="M156.31,148.42s3.26.51,4.75-1.11c0,0-.77,3.53-3.84,2.91C157.22,150.22,156.16,149.92,156.31,148.42Z"/></clipPath><clipPath id="clip-path-5"><path class="cls-2" d="M173.1,155.48s1.39,4.58,1.33,6.14c0,0-.21,1,1.11.26,0,0,.77,1,2.23,0a1.07,1.07,0,0,0,.36-.43c.31-.69,1-2.81.13-6.71C177.17,149.87,172.08,150.22,173.1,155.48Z"/></clipPath><clipPath id="clip-path-6"><path class="cls-2" d="M188,155.48s1.39,4.58,1.33,6.14c0,0-.21,1,1.11.26,0,0,.77,1,2.23,0a1.15,1.15,0,0,0,.36-.43,14.37,14.37,0,0,0,.95-8.31C192.85,148.27,186.93,150.22,188,155.48Z"/></clipPath></defs><path class="cls-4" d="M200.09,155a2.66,2.66,0,0,0,1.47.67,11,11,0,0,0,1.52.17.38.38,0,0,1-.28-.18.68.68,0,0,1,.75.45,4.11,4.11,0,0,0-.23-2.57,2.45,2.45,0,0,0-2-1.45,1.42,1.42,0,0,0-1,.31A2.29,2.29,0,0,0,200.09,155Z"/><path class="cls-5" d="M196.44,151.17s4.61.72,4.75,3c0,0-.47-.56-4.75-1.09S194.2,151,196.44,151.17Z"/><path class="cls-1" d="M184.27,155.48s1.4,4.58,1.33,6.14c0,0-.21,1,1.12.26,0,0,.76,1,2.22,0a1.09,1.09,0,0,0,.37-.43c.31-.69,1-2.81.12-6.71C188.35,149.87,183.25,150.22,184.27,155.48Z"/><g class="cls-6"><path class="cls-7" d="M184.37,160.06c.15.06,1.81,1.63,6.2.45v2.68l-6.43-.07-1.39-2.41Z"/></g><path class="cls-1" d="M169.42,155.48s1.39,4.58,1.33,6.14c0,0-.21,1,1.11.26,0,0,.77,1,2.23,0a1.15,1.15,0,0,0,.36-.43c.31-.69,1-2.81.13-6.71C173.49,149.87,168.39,150.22,169.42,155.48Z"/><g class="cls-8"><path class="cls-7" d="M169.51,160.06c.15.06,1.81,1.63,6.21.45v2.68l-6.43-.07-1.39-2.41Z"/></g><path class="cls-2" d="M156.25,133.51s-1.76,5.59-6.93,5.71l4.86,3.63,1.8-.34,1.23-5.94S158.5,132.79,156.25,133.51Z"/><path class="cls-2" d="M169.52,128.37s27.61,1.77,29.22,17.65-33.27,8.52-40.24,6.42L172,145.56Z"/><g class="cls-9"><path class="cls-10" d="M180.09,157.92s-18.3-3.53-10.15-3.67,10.15,1.28,20.2.74-5.71,2.76-5.71,2.76l-4,.06"/></g><ellipse class="cls-2" cx="158.75" cy="149.99" rx="2.46" ry="3.53" transform="translate(-6.8 292.44) rotate(-84.09)"/><path class="cls-2" d="M158,152.05c4.91,1.49,13.57,2.72,19.78-.75l-12.69-5.5-9,1-1.67.92"/><path class="cls-2" d="M180.48,147.4c-.4,3.88-5.59,6.4-13.61,5.57s-14.21-4.66-13.81-8.54,7.24-6.36,15.26-5.52S180.88,143.51,180.48,147.4Z"/><path class="cls-2" d="M180.57,141.83c-.36,7.41-4.43,12.1-12.24,11.29s-14.46-6.64-13.77-13.35,3.88-12,11.73-11.89C176.26,128,180.94,134.06,180.57,141.83Z"/><path class="cls-2" d="M149.32,139.22s3.2-.57,4.77,1.6l1,7.75a70.54,70.54,0,0,1-7.07-1.16Z"/><path class="cls-3" d="M156.31,148.42s3.26.51,4.75-1.11c0,0-.77,3.53-3.84,2.91C157.22,150.22,156.16,149.92,156.31,148.42Z"/><g class="cls-11"><ellipse class="cls-12" cx="159.19" cy="151.18" rx="2.02" ry="2.54" transform="translate(-7.59 293.93) rotate(-84.09)"/><ellipse class="cls-13" cx="158.13" cy="146.96" rx="2.02" ry="2.54" transform="translate(-4.34 289.1) rotate(-84.09)"/></g><path class="cls-14" d="M149.1,147.6s7,1.92,11,.39l.18-.32s-6.93.37-10.55-.63Z"/><path class="cls-15" d="M152,144.54a3.12,3.12,0,0,1-3.22,3c-1.72-.06-1.88-1.47-1.82-3.19s.37-5.18,2.1-5.13S152,142.81,152,144.54Z"/><ellipse class="cls-16" cx="148.73" cy="144.16" rx="1.36" ry="0.73" transform="translate(-0.32 287.99) rotate(-88.09)"/><circle class="cls-13" cx="162.91" cy="140.63" r="3.45" transform="matrix(0.55, -0.83, 0.83, 0.55, -44.3, 198.77)"/><path d="M162.78,137.52a2.53,2.53,0,0,0-.87.06.93.93,0,0,1-.62,1.69.92.92,0,0,1-.81-.78,2.55,2.55,0,0,0-.54,1.33,2.58,2.58,0,1,0,2.84-2.3Z"/><ellipse class="cls-17" cx="165.97" cy="144.53" rx="0.45" ry="1.37" transform="translate(5.11 294.72) rotate(-84.09)"/><path class="cls-4" d="M165.33,129.56a4.67,4.67,0,0,0-1.6-3,6.37,6.37,0,0,0-2.34-.18,5.79,5.79,0,0,0-4.28,2.58,5.47,5.47,0,0,0-.83,2.63,4.73,4.73,0,0,0,.08,1l.42.79a5.45,5.45,0,0,0,1.64,1s.47-4.48,2.22-4.3c0,0-.53,1.75.46,2.67a12.81,12.81,0,0,0,1.57-2.19l-.16,1.46S165.43,131.37,165.33,129.56Z"/><path class="cls-4" d="M167.7,129.44a4.28,4.28,0,0,0,.15.87c.81-.27,1.62-.49,2.45-.68l-.1.8a11.15,11.15,0,0,1,4.81-.78,5,5,0,0,0-1.79-1.76,16.9,16.9,0,0,0-6.05-1.93,15.35,15.35,0,0,0-5.27-.26,5.62,5.62,0,0,0-4.2,2.9l3.88-.55a.51.51,0,0,1,.3,0,.48.48,0,0,1,.19.27l.43,1.19a4.71,4.71,0,0,1,.8-.81s.11-.09.18-.07.12.08.16.14a7.84,7.84,0,0,0,.55.93c.83-.51.88.05.82.73A2.83,2.83,0,0,0,167.7,129.44Z"/><path class="cls-4" d="M177.63,128.37a8.53,8.53,0,0,0,1.06.5c.47.16,1,.22,1.44.35a11.13,11.13,0,0,1,2.08.89l4.52,2.29a2.67,2.67,0,0,1-3-.35,1.28,1.28,0,0,1-1.48.56,4.12,4.12,0,0,1-1.47-.85,1.27,1.27,0,0,0-.86-.34,2,2,0,0,0-.51.19c-1,.4-2.09-.49-2.85-1.3a1.64,1.64,0,0,1-1.68.1c-.23-.12-.42-.3-.66-.41a4.32,4.32,0,0,0-1.53-.19c-.51,0-1.1-.28-1.21-.79a1.55,1.55,0,0,1-1.65.45,4.45,4.45,0,0,1-1.56-.9l-2-1.56c-.93-.73-.54-1.19.41-1.16a34.72,34.72,0,0,1,3.66.41A23.78,23.78,0,0,1,177.63,128.37Z"/><path class="cls-2" d="M169.22,130.28s3.59-3.2,7.12-1.45,4,5.83-4.68,11.59C171.66,140.42,167.66,133.76,169.22,130.28Z"/><path class="cls-18" d="M169.22,131.58s2.56-2.27,5.08-1,2.85,4.16-3.34,8.26C171,138.81,168.11,134.07,169.22,131.58Z"/><ellipse class="cls-19" cx="186.01" cy="135.39" rx="2.06" ry="0.65"/><ellipse class="cls-19" cx="189.86" cy="137.66" rx="2.06" ry="0.65"/><path class="cls-2" d="M173.1,155.48s1.39,4.58,1.33,6.14c0,0-.21,1,1.11.26,0,0,.77,1,2.23,0a1.07,1.07,0,0,0,.36-.43c.31-.69,1-2.81.13-6.71C177.17,149.87,172.08,150.22,173.1,155.48Z"/><g class="cls-20"><path class="cls-7" d="M173.2,160.06c.14.06,1.8,1.63,6.2.45v2.68l-6.43-.07-1.39-2.41Z"/></g><path class="cls-2" d="M188,155.48s1.39,4.58,1.33,6.14c0,0-.21,1,1.11.26,0,0,.77,1,2.23,0a1.15,1.15,0,0,0,.36-.43,14.37,14.37,0,0,0,.95-8.31C192.85,148.27,186.93,150.22,188,155.48Z"/><g class="cls-21"><path class="cls-7" d="M188.05,160.06c.15.06,1.81,1.63,6.21.45v2.68l-6.43-.07-1.39-2.41Z"/></g><path class="cls-13" d="M160.4,147.41s-1.2.84-1.47,1.09,1.4.58,2.9-.19Z"/><ellipse class="cls-2" cx="162.04" cy="147.45" rx="1.33" ry="1.72" transform="translate(-1.32 293.43) rotate(-84.09)"/><path class="cls-22" d="M161.88,145.91s-1.61.08-1.51,1.59,2.3,1.52,3.78.55"/></svg>