<svg id="Layer_1" data-name="Layer 1" xmlns="http://www.w3.org/2000/svg" xmlns:xlink="http://www.w3.org/1999/xlink" viewBox="0 0 260 168"><defs><style>.cls-1{fill:#bc6319;}.cls-2{fill:#994a0a;}.cls-3{fill:#7a3100;}.cls-4{fill:#a54c0a;}.cls-5{clip-path:url(#clip-path);}.cls-6{fill:#a04908;}.cls-7{clip-path:url(#clip-path-2);}.cls-8{clip-path:url(#clip-path-3);}.cls-9{fill:#b25712;}.cls-10{fill:#d67934;}.cls-11{clip-path:url(#clip-path-4);}.cls-12{clip-path:url(#clip-path-5);}.cls-13{fill:#682c02;}.cls-14{fill:#c1671e;}.cls-15{fill:#d6752d;}.cls-16{fill:#c97523;}.cls-17{fill:#fff;}.cls-18{clip-path:url(#clip-path-6);}.cls-19{fill:#c41e1e;}.cls-20{fill:#f49547;}.cls-21{fill:#a8540e;}.cls-22{fill:#af5614;}</style><clipPath id="clip-path"><path class="cls-1" d="M97.48,139.38s1.52,5,1.45,6.68c0,0-.23,1.09,1.21.29,0,0,.83,1.07,2.42,0a1.15,1.15,0,0,0,.39-.46c.34-.76,1.09-3.06.14-7.3C101.91,133.27,96.37,133.65,97.48,139.38Z"/></clipPath><clipPath id="clip-path-2"><path class="cls-1" d="M113,139.38s-1.52,5-1.45,6.68c0,0,.23,1.09-1.21.29,0,0-.83,1.07-2.42,0a1.15,1.15,0,0,1-.39-.46c-.34-.76-1.09-3.06-.14-7.3C108.57,133.27,114.11,133.65,113,139.38Z"/></clipPath><clipPath id="clip-path-3"><path class="cls-1" d="M117.42,134.93c0,9.1-5.56,10-12.43,10s-12.43-.89-12.43-10,5.57-16.46,12.43-16.46S117.42,125.84,117.42,134.93Z"/></clipPath><clipPath id="clip-path-4"><path class="cls-1" d="M94,141.44s1.52,5,1.45,6.68c0,0-.23,1.09,1.21.29,0,0,.83,1.07,2.42,0a1.15,1.15,0,0,0,.39-.46c.34-.76,1.09-3.06.14-7.3C98.4,135.33,92.86,135.71,94,141.44Z"/></clipPath><clipPath id="clip-path-5"><path class="cls-1" d="M115.7,141.44s-1.52,5-1.45,6.68c0,0,.23,1.09-1.21.29,0,0-.83,1.07-2.42,0a1.26,1.26,0,0,1-.4-.46c-.33-.76-1.08-3.06-.14-7.3C111.27,135.33,116.81,135.71,115.7,141.44Z"/></clipPath><clipPath id="clip-path-6"><path class="cls-2" d="M101.11,129.74a9,9,0,0,1,8.51-1.56,4.33,4.33,0,0,0-5-2.44C100.75,126.57,101.11,129.74,101.11,129.74Z"/></clipPath></defs><path class="cls-3" d="M117.6,141.75a2.82,2.82,0,0,0,1.6.73,10.29,10.29,0,0,0,1.66.19.43.43,0,0,1-.31-.19.75.75,0,0,1,.82.49,4.54,4.54,0,0,0-.25-2.8,2.66,2.66,0,0,0-2.22-1.57,1.5,1.5,0,0,0-1.06.33A2.48,2.48,0,0,0,117.6,141.75Z"/><path class="cls-4" d="M113.63,137.6s5,.78,5.16,3.23c0,0-.51-.62-5.16-1.19S111.19,137.42,113.63,137.6Z"/><path class="cls-1" d="M97.48,139.38s1.52,5,1.45,6.68c0,0-.23,1.09,1.21.29,0,0,.83,1.07,2.42,0a1.15,1.15,0,0,0,.39-.46c.34-.76,1.09-3.06.14-7.3C101.91,133.27,96.37,133.65,97.48,139.38Z"/><g class="cls-5"><path class="cls-6" d="M97.58,144.36c.17.07,2,1.77,6.75.49v2.92l-7-.07-1.51-2.63Z"/></g><path class="cls-1" d="M113,139.38s-1.52,5-1.45,6.68c0,0,.23,1.09-1.21.29,0,0-.83,1.07-2.42,0a1.15,1.15,0,0,1-.39-.46c-.34-.76-1.09-3.06-.14-7.3C108.57,133.27,114.11,133.65,113,139.38Z"/><g class="cls-7"><path class="cls-6" d="M112.9,144.36c-.17.07-2,1.77-6.75.49v2.92l7-.07,1.51-2.63Z"/></g><path class="cls-1" d="M117.42,134.93c0,9.1-5.56,10-12.43,10s-12.43-.89-12.43-10,5.57-16.46,12.43-16.46S117.42,125.84,117.42,134.93Z"/><g class="cls-8"><ellipse class="cls-9" cx="104.98" cy="124.97" rx="13.02" ry="8.59"/><ellipse class="cls-10" cx="104.99" cy="144.5" rx="7.12" ry="0.96"/></g><path class="cls-1" d="M94,141.44s1.52,5,1.45,6.68c0,0-.23,1.09,1.21.29,0,0,.83,1.07,2.42,0a1.15,1.15,0,0,0,.39-.46c.34-.76,1.09-3.06.14-7.3C98.4,135.33,92.86,135.71,94,141.44Z"/><g class="cls-11"><path class="cls-6" d="M94.08,146.42c.16.07,2,1.77,6.74.49v2.92l-7-.07-1.51-2.63Z"/></g><path class="cls-1" d="M115.7,141.44s-1.52,5-1.45,6.68c0,0,.23,1.09-1.21.29,0,0-.83,1.07-2.42,0a1.26,1.26,0,0,1-.4-.46c-.33-.76-1.08-3.06-.14-7.3C111.27,135.33,116.81,135.71,115.7,141.44Z"/><g class="cls-12"><path class="cls-6" d="M115.59,146.42c-.16.07-2,1.77-6.74.49v2.92l7-.07,1.51-2.63Z"/></g><path class="cls-13" d="M92.54,106.7a5.26,5.26,0,0,0-.81,4,.84.84,0,0,0,.2.46.91.91,0,0,0,.6.21,41.3,41.3,0,0,0,18.66-2.73,1,1,0,0,0,.6-.44.93.93,0,0,0-.11-.74,9.28,9.28,0,0,0-1.11-2.28,7.87,7.87,0,0,0-2.35-1.69,9.7,9.7,0,0,0-4-1.14C100.5,102.42,94.9,103.22,92.54,106.7Z"/><path class="cls-14" d="M95.33,112.31c3.06,2-.22,5.73-2.61,7.4s-6,.59-8.11-2.41-1.85-6.78.54-8.44S92.52,110.48,95.33,112.31Z"/><path class="cls-15" d="M92.82,112.71c2.08,1.12.16,3.71-1.3,4.91s-3.85.69-5.35-1.13-1.55-4.27-.1-5.47S90.91,111.68,92.82,112.71Z"/><path class="cls-14" d="M108.79,110.34c-2.37,2.79,1.85,5.43,4.62,6.34s5.94-1.16,7.08-4.63-.18-7-2.94-7.93S111,107.78,108.79,110.34Z"/><path class="cls-15" d="M111.31,110c-1.67,1.67.91,3.6,2.64,4.33s3.89-.43,4.81-2.61.26-4.54-1.48-5.27S112.84,108.47,111.31,110Z"/><ellipse class="cls-16" cx="103.88" cy="123.76" rx="17.5" ry="7.69" transform="translate(-16.83 16.35) rotate(-8.33)"/><ellipse class="cls-16" cx="103.07" cy="118.21" rx="15.46" ry="13.3" transform="translate(-16.03 16.17) rotate(-8.33)"/><circle class="cls-17" cx="93.18" cy="120.06" r="3.76"/><circle cx="93.18" cy="120.06" r="2.81"/><circle class="cls-17" cx="91.53" cy="118.52" r="1.02"/><circle class="cls-17" cx="113.06" cy="117.15" r="3.76"/><circle cx="113.06" cy="117.15" r="2.81"/><circle class="cls-17" cx="111.41" cy="115.61" r="1.02"/><path class="cls-2" d="M101.11,129.74a9,9,0,0,1,8.51-1.56,4.33,4.33,0,0,0-5-2.44C100.75,126.57,101.11,129.74,101.11,129.74Z"/><g class="cls-18"><ellipse class="cls-19" cx="105.36" cy="128.43" rx="2.89" ry="1.68" transform="translate(-24.26 24.53) rotate(-11.92)"/></g><path class="cls-17" d="M97.86,125.65s-1.32.89-1.62,1.16,1.5.65,3.16-.15Z"/><path class="cls-17" d="M110.19,123.85s1.52.47,1.88.64-1.25,1.06-3.07.77Z"/><path class="cls-20" d="M110.16,123.28c.28,1.86-2.29,3.77-5.73,4.28S98,127,97.72,125.1s2-6,5.4-6.5S109.89,121.42,110.16,123.28Z"/><ellipse class="cls-21" cx="100.52" cy="124.39" rx="0.8" ry="1.48" transform="translate(-16.95 15.87) rotate(-8.33)"/><ellipse class="cls-21" cx="107.27" cy="123.4" rx="0.8" ry="1.48" transform="translate(-16.74 16.84) rotate(-8.33)"/><ellipse class="cls-14" cx="89.07" cy="124.57" rx="1.5" ry="0.49" transform="translate(-17.1 14.21) rotate(-8.33)"/><ellipse class="cls-14" cx="117.88" cy="120.35" rx="1.5" ry="0.49" transform="matrix(0.99, -0.14, 0.14, 0.99, -16.19, 18.34)"/><path class="cls-3" d="M98.09,107.73a5.58,5.58,0,0,0,4.82,4.61s-.71-4.85,1.19-5.13c0,0-.1,2,1.2,2.69a13.85,13.85,0,0,0,1.06-2.72l.23,1.58s2.89-1.5,2.3-3.38-3.52-4.32-8.48-3.6-6.88,3.93-6.65,5.75a3,3,0,0,0,1.76,2.55l.2-1.64a2.72,2.72,0,0,0,2,2.45S97.53,108.23,98.09,107.73Z"/><ellipse class="cls-22" cx="93.54" cy="131.69" rx="0.9" ry="0.4" transform="translate(-47.64 210.18) rotate(-83.69)"/><ellipse class="cls-22" cx="93.94" cy="133.92" rx="0.76" ry="0.34" transform="translate(-49.5 212.57) rotate(-83.69)"/><ellipse class="cls-22" cx="116.39" cy="131.69" rx="0.34" ry="0.76" transform="translate(-11.77 11.43) rotate(-5.35)"/><path class="cls-16" d="M88.51,119.54s5.31-.28,6.77-3.75l-1.81-2.52-3.87,2.34Z"/><path class="cls-16" d="M109,114a11.07,11.07,0,0,0,8.91,1.11L114.5,111Z"/></svg>