<svg id="Layer_1" data-name="Layer 1" xmlns="http://www.w3.org/2000/svg" xmlns:xlink="http://www.w3.org/1999/xlink" viewBox="0 0 260 168"><defs><style>.cls-1{fill:#bc6319;}.cls-2{fill:#994a0a;}.cls-3{fill:#7a3100;}.cls-4{fill:#a54c0a;}.cls-5{clip-path:url(#clip-path);}.cls-6{fill:#a04908;}.cls-7{clip-path:url(#clip-path-2);}.cls-8{clip-path:url(#clip-path-3);}.cls-9{fill:#b25712;}.cls-10{clip-path:url(#clip-path-4);}.cls-11{clip-path:url(#clip-path-5);}.cls-12{fill:#682c02;}.cls-13{fill:#c1671e;}.cls-14{fill:#d6752d;}.cls-15{fill:#c97523;}.cls-16{fill:#fff;}.cls-17{clip-path:url(#clip-path-6);}.cls-18{fill:#c41e1e;}.cls-19{fill:#f49547;}.cls-20{fill:#a8540e;}.cls-21{fill:#af5614;}</style><clipPath id="clip-path"><path class="cls-1" d="M60.15,145s-6.71,2-9,1.94c0,0-1.47-.31-.38,1.63,0,0-1.45,1.12,0,3.27a1.45,1.45,0,0,0,.62.53c1,.46,4.12,1.47,9.84.19C68.38,150.92,67.88,143.45,60.15,145Z"/></clipPath><clipPath id="clip-path-2"><path class="cls-1" d="M83.35,145.63s6.81,1.66,9.1,1.44c0,0,1.45-.39.48,1.61,0,0,1.5,1,.17,3.26a1.47,1.47,0,0,1-.59.57c-1,.51-4,1.69-9.81.74C75.46,152.06,75.55,144.57,83.35,145.63Z"/></clipPath><clipPath id="clip-path-3"><path class="cls-1" d="M89,139.74C89,152,81.53,153.2,72.28,153.2S55.52,152,55.52,139.74s7.5-22.21,16.76-22.21S89,127.47,89,139.74Z"/></clipPath><clipPath id="clip-path-4"><path class="cls-1" d="M57.42,148.51s2,6.71,1.95,9c0,0-.31,1.47,1.63.38,0,0,1.12,1.45,3.27,0a1.52,1.52,0,0,0,.53-.62c.45-1,1.46-4.13.19-9.84C63.39,140.28,55.92,140.79,57.42,148.51Z"/></clipPath><clipPath id="clip-path-5"><path class="cls-1" d="M86.71,148.51s-2,6.71-1.95,9c0,0,.31,1.47-1.63.38,0,0-1.12,1.45-3.27,0a1.52,1.52,0,0,1-.53-.62c-.45-1-1.46-4.13-.19-9.84C80.74,140.28,88.21,140.79,86.71,148.51Z"/></clipPath><clipPath id="clip-path-6"><path class="cls-2" d="M64.63,126.75A16,16,0,0,0,80,126.33a7.69,7.69,0,0,1-7.7,6.06C65.17,132.39,64.63,126.75,64.63,126.75Z"/></clipPath></defs><path class="cls-3" d="M89.27,148.93a3.81,3.81,0,0,0,2.17,1,15.24,15.24,0,0,0,2.23.26.57.57,0,0,1-.41-.26,1,1,0,0,1,1.1.66,6.18,6.18,0,0,0-.34-3.78,3.59,3.59,0,0,0-3-2.12,2.1,2.1,0,0,0-1.43.46C88.77,145.87,88.52,148.12,89.27,148.93Z"/><path class="cls-4" d="M83.92,143.33s6.77,1,7,4.35c0,0-.69-.82-7-1.6S80.64,143.09,83.92,143.33Z"/><path class="cls-1" d="M60.15,145s-6.71,2-9,1.94c0,0-1.47-.31-.38,1.63,0,0-1.45,1.12,0,3.27a1.45,1.45,0,0,0,.62.53c1,.46,4.12,1.47,9.84.19C68.38,150.92,67.88,143.45,60.15,145Z"/><g class="cls-5"><path class="cls-6" d="M53.44,145.08c-.09.22-2.39,2.65-.67,9.1H48.84l.1-9.43,3.55-2Z"/></g><path class="cls-1" d="M83.35,145.63s6.81,1.66,9.1,1.44c0,0,1.45-.39.48,1.61,0,0,1.5,1,.17,3.26a1.47,1.47,0,0,1-.59.57c-1,.51-4,1.69-9.81.74C75.46,152.06,75.55,144.57,83.35,145.63Z"/><g class="cls-7"><path class="cls-6" d="M90.06,145.39c.1.21,2.54,2.52,1.18,9.05l3.92-.22-.63-9.41L90.88,143Z"/></g><path class="cls-1" d="M89,139.74C89,152,81.53,153.2,72.28,153.2S55.52,152,55.52,139.74s7.5-22.21,16.76-22.21S89,127.47,89,139.74Z"/><g class="cls-8"><ellipse class="cls-9" cx="72.26" cy="126.3" rx="17.56" ry="11.58"/></g><path class="cls-1" d="M57.42,148.51s2,6.71,1.95,9c0,0-.31,1.47,1.63.38,0,0,1.12,1.45,3.27,0a1.52,1.52,0,0,0,.53-.62c.45-1,1.46-4.13.19-9.84C63.39,140.28,55.92,140.79,57.42,148.51Z"/><g class="cls-10"><path class="cls-6" d="M57.56,155.22c.21.1,2.65,2.4,9.1.67v3.93l-9.44-.1-2-3.54Z"/></g><path class="cls-1" d="M86.71,148.51s-2,6.71-1.95,9c0,0,.31,1.47-1.63.38,0,0-1.12,1.45-3.27,0a1.52,1.52,0,0,1-.53-.62c-.45-1-1.46-4.13-.19-9.84C80.74,140.28,88.21,140.79,86.71,148.51Z"/><g class="cls-11"><path class="cls-6" d="M86.57,155.22c-.21.1-2.65,2.4-9.1.67v3.93l9.44-.1,2-3.54Z"/></g><path class="cls-12" d="M60.48,99.58a7.15,7.15,0,0,0-1.85,5.12,1.19,1.19,0,0,0,.17.65,1.26,1.26,0,0,0,.77.4,55.86,55.86,0,0,0,25.43,0,1.34,1.34,0,0,0,.88-.47,1.27,1.27,0,0,0,0-1,12.55,12.55,0,0,0-1-3.26A10.36,10.36,0,0,0,82,98.3,12.81,12.81,0,0,0,76.88,96C71.93,95.43,64.31,95.4,60.48,99.58Z"/><path class="cls-13" d="M63.11,107.61c3.69,3.26-1.42,7.61-4.93,9.37s-8.15-.4-10.35-4.8-1.14-9.4,2.37-11.16S59.72,104.62,63.11,107.61Z"/><path class="cls-14" d="M59.68,107.65c2.55,1.91-.52,5-2.69,6.3s-5.27.18-6.93-2.55-1.23-6,.95-7.32S57.33,105.9,59.68,107.65Z"/><path class="cls-13" d="M81.45,107.61c-3.7,3.26,1.41,7.61,4.92,9.37s8.15-.4,10.36-4.8,1.13-9.4-2.38-11.16S84.84,104.62,81.45,107.61Z"/><path class="cls-14" d="M84.88,107.65c-2.56,1.91.51,5,2.68,6.3s5.28.18,6.93-2.55,1.23-6-.94-7.32S87.22,105.9,84.88,107.65Z"/><ellipse class="cls-15" cx="72.28" cy="124.56" rx="23.59" ry="10.37"/><ellipse class="cls-15" cx="72.28" cy="116.99" rx="20.85" ry="17.94"/><circle class="cls-16" cx="58.73" cy="117.53" r="5.06"/><circle cx="58.73" cy="117.53" r="3.79"/><circle class="cls-16" cx="56.83" cy="115.15" r="1.37"/><circle class="cls-16" cx="85.82" cy="117.53" r="5.06"/><circle cx="85.82" cy="117.53" r="3.79"/><circle class="cls-16" cx="83.92" cy="115.15" r="1.37"/><path class="cls-2" d="M64.63,126.75A16,16,0,0,0,80,126.33a7.69,7.69,0,0,1-7.7,6.06C65.17,132.39,64.63,126.75,64.63,126.75Z"/><g class="cls-17"><ellipse class="cls-18" cx="72.28" cy="133.98" rx="5.14" ry="2.99"/><ellipse class="cls-16" cx="72.28" cy="127.29" rx="5.26" ry="3.14"/></g><path class="cls-16" d="M63.88,125.91s-1.94.93-2.39,1.23,1.88,1.16,4.24.42Z"/><path class="cls-16" d="M80.68,125.91s1.94.93,2.38,1.23-1.88,1.16-4.24.42Z"/><path class="cls-19" d="M80.76,125.14c0,2.54-3.8,4.59-8.48,4.59s-8.48-2-8.48-4.59,3.79-7.61,8.48-7.61S80.76,122.61,80.76,125.14Z"/><ellipse class="cls-20" cx="67.68" cy="124.75" rx="1.08" ry="2"/><ellipse class="cls-20" cx="76.88" cy="124.75" rx="1.08" ry="2"/><ellipse class="cls-13" cx="52.37" cy="122.75" rx="2.02" ry="0.66"/><ellipse class="cls-13" cx="91.63" cy="122.75" rx="2.02" ry="0.66"/><path class="cls-3" d="M67.68,102a7.54,7.54,0,0,0,5.53,7.09s0-6.61,2.59-6.61c0,0-.52,2.63,1.08,3.82a18.74,18.74,0,0,0,1.94-3.42v2.15S83,103.64,82.55,101s-3.84-6.45-10.61-6.45-9.94,3.9-10,6.37c0,0-.24,2.63,1.85,3.74l.59-2.15a3.66,3.66,0,0,0,2.21,3.66S66.84,102.6,67.68,102Z"/><ellipse class="cls-21" cx="56.83" cy="135.37" rx="1.21" ry="0.54" transform="translate(-83.96 176.97) rotate(-83.69)"/><ellipse class="cls-21" cx="57.38" cy="138.37" rx="1.03" ry="0.45" transform="translate(-86.47 180.19) rotate(-83.69)"/><ellipse class="cls-21" cx="87.65" cy="135.37" rx="0.45" ry="1.03" transform="translate(-12.24 8.76) rotate(-5.35)"/></svg>