<svg xmlns="http://www.w3.org/2000/svg" xmlns:xlink="http://www.w3.org/1999/xlink" viewBox="0 0 260 168"><defs><style>.cls-1{fill:#dda854;}.cls-2{fill:#e8ba67;}.cls-3{fill:#bc6319;}.cls-4{fill:#994a0a;}.cls-5{fill:#471e00;}.cls-6{fill:#fff;}.cls-7{fill:#190e01;}.cls-8{clip-path:url(#clip-path);}.cls-9{fill:#f7d19a;}.cls-10{fill:#301c00;}.cls-11{fill:#d19846;}.cls-12{fill:#e2af5d;}.cls-13{clip-path:url(#clip-path-2);}.cls-14{fill:#a06f20;}.cls-15{fill:#d69936;}.cls-16{clip-path:url(#clip-path-3);}.cls-17{clip-path:url(#clip-path-4);}.cls-18{fill:#c41e1e;}.cls-19{fill:#ffd38d;}.cls-20{clip-path:url(#clip-path-5);}.cls-21{clip-path:url(#clip-path-6);}.cls-22{fill:#7a3100;}.cls-23{fill:#93621b;}.cls-24{fill:#7a4609;}.cls-25{fill:#f4b460;}.cls-26{fill:#a54c0a;}.cls-27{clip-path:url(#clip-path-7);}.cls-28{fill:#a04908;}.cls-29{clip-path:url(#clip-path-8);}.cls-30{clip-path:url(#clip-path-9);}.cls-31{fill:#b25712;}.cls-32{clip-path:url(#clip-path-10);}.cls-33{clip-path:url(#clip-path-11);}.cls-34{fill:#682c02;}.cls-35{fill:#c1671e;}.cls-36{fill:#d6752d;}.cls-37{fill:#c97523;}.cls-38{clip-path:url(#clip-path-12);}.cls-39{fill:#f49547;}.cls-40{fill:#a8540e;}.cls-41{fill:#af5614;}</style><clipPath id="clip-path"><path class="cls-1" d="M121.7,120.86s-7.13,16.22-6.15,25.78,27.31,12.45,29.69,0-2.67-16.91-7.37-26.88C128.79,100.5,121.7,120.86,121.7,120.86Z"/></clipPath><clipPath id="clip-path-2"><path class="cls-2" d="M152.21,114.27c-1,5-11.32,9.59-22.55,7.41s-19.1-10.28-18.12-15.32,10.88-7.37,22.11-5.18S153.19,109.22,152.21,114.27Z"/></clipPath><clipPath id="clip-path-3"><circle class="cls-2" cx="133.34" cy="102.76" r="18.31" transform="translate(-22.34 38.71) rotate(-15.26)"/></clipPath><clipPath id="clip-path-4"><path class="cls-5" d="M125,113.11a12.92,12.92,0,0,0,12.26,2,6.21,6.21,0,0,1-7.06,3.62C124.55,117.67,125,113.11,125,113.11Z"/></clipPath><clipPath id="clip-path-5"><ellipse class="cls-6" cx="121.15" cy="101.37" rx="5.35" ry="4.09" transform="translate(-1.5 200.93) rotate(-78.99)"/></clipPath><clipPath id="clip-path-6"><ellipse class="cls-6" cx="145.17" cy="106.05" rx="5.35" ry="4.09" transform="translate(13.35 228.29) rotate(-78.99)"/></clipPath><clipPath id="clip-path-7"><path class="cls-3" d="M60.15,145s-6.71,2-9,1.94c0,0-1.47-.31-.38,1.63,0,0-1.45,1.12,0,3.27a1.45,1.45,0,0,0,.62.53c1,.46,4.12,1.47,9.84.19C68.38,150.92,67.88,143.45,60.15,145Z"/></clipPath><clipPath id="clip-path-8"><path class="cls-3" d="M83.35,145.63s6.81,1.66,9.1,1.44c0,0,1.45-.39.48,1.61,0,0,1.5,1,.17,3.26a1.47,1.47,0,0,1-.59.57c-1,.51-4,1.69-9.81.74C75.46,152.06,75.55,144.57,83.35,145.63Z"/></clipPath><clipPath id="clip-path-9"><path class="cls-3" d="M89,139.74C89,152,81.53,153.2,72.28,153.2S55.52,152,55.52,139.74s7.5-22.21,16.76-22.21S89,127.47,89,139.74Z"/></clipPath><clipPath id="clip-path-10"><path class="cls-3" d="M57.42,148.51s2,6.71,1.95,9c0,0-.31,1.47,1.63.38,0,0,1.12,1.45,3.27,0a1.52,1.52,0,0,0,.53-.62c.45-1,1.46-4.13.19-9.84C63.39,140.28,55.92,140.79,57.42,148.51Z"/></clipPath><clipPath id="clip-path-11"><path class="cls-3" d="M84.33,133.15s5.18-4.72,6.27-6.75c0,0,.49-1.42,1.61.51,0,0,1.7-.68,2.8,1.67a1.5,1.5,0,0,1,.14.81c-.13,1.11-.85,4.29-4.86,8.56C85.26,143.28,79.1,139,84.33,133.15Z"/></clipPath><clipPath id="clip-path-12"><path class="cls-4" d="M63,128.69a16,16,0,0,0,14.85-3.88,7.68,7.68,0,0,1-6.13,7.64C64.78,134.06,63,128.69,63,128.69Z"/></clipPath></defs><g id="Layer_10" data-name="Layer 10"><path class="cls-1" d="M123.44,141.93s-9.42,4.86-10.77,5.67a3.08,3.08,0,0,0-1.08,3,2.11,2.11,0,0,0,2.14,1.77c2-.06,6.48-.2,7.61-.15,1.46.06,5.26-1.25,5.64-5S123.44,141.93,123.44,141.93Z"/><path class="cls-7" d="M112.67,147.6l-6.4.94a2.1,2.1,0,0,0-1.83-2.5c-2.29-.59-3,5.59-.67,7s3.14-.06,3.14-.06l6.56-.64S111.54,151.15,112.67,147.6Z"/><path class="cls-1" d="M138.5,141.73s9.52,5.06,10.87,5.87a3.08,3.08,0,0,1,1.08,3,2.11,2.11,0,0,1-2.14,1.77c-2-.06-6.48-.2-7.61-.15-1.46.06-5.26-1.25-5.64-5S138.5,141.73,138.5,141.73Z"/><path class="cls-7" d="M149.37,147.6l6.4.94a2.1,2.1,0,0,1,1.83-2.5c2.29-.59,3,5.59.67,7s-3.14-.06-3.14-.06l-6.56-.64S150.5,151.15,149.37,147.6Z"/><path class="cls-1" d="M121.7,120.86s-7.13,16.22-6.15,25.78,27.31,12.45,29.69,0-2.67-16.91-7.37-26.88C128.79,100.5,121.7,120.86,121.7,120.86Z"/><g class="cls-8"><ellipse class="cls-9" cx="131.3" cy="148.86" rx="8.39" ry="13.1"/><ellipse class="cls-10" cx="117.7" cy="128.52" rx="3.82" ry="1.95"/><ellipse class="cls-10" cx="143.61" cy="128.52" rx="3.82" ry="1.95"/><ellipse class="cls-10" cx="146.65" cy="132.28" rx="3.82" ry="1.95"/><ellipse class="cls-10" cx="115.79" cy="133.19" rx="3.82" ry="1.95"/><ellipse class="cls-11" cx="131.15" cy="114.4" rx="9.43" ry="12.55" transform="translate(-4.39 223.57) rotate(-79.95)"/></g><path class="cls-12" d="M124.05,88.65a13.94,13.94,0,0,0-7.62-8.73c-6.39-3.11-8.09-.28-9.37,4.49s-2.87,17.84,12.91,17.38C120,101.79,126.65,93.5,124.05,88.65Z"/><path class="cls-9" d="M122.07,91.27a11.33,11.33,0,0,0-6.32-7c-5.28-2.5-6.66-.27-7.69,3.51s-2.25,14.14,10.73,13.87C118.79,101.68,124.24,95.14,122.07,91.27Z"/><path class="cls-12" d="M147.25,93.16a13.92,13.92,0,0,1,10.33-5.24c7.1-.48,7.6,2.78,7,7.68s-4,17.62-18.49,11.27C146.1,106.87,143,96.69,147.25,93.16Z"/><path class="cls-9" d="M148.1,96.34a11.34,11.34,0,0,1,8.47-4.1c5.83-.34,6.27,2.25,5.81,6.14s-3.22,14-15.15,8.84C147.23,107.22,144.63,99.11,148.1,96.34Z"/><path class="cls-2" d="M152.21,114.27c-1,5-11.32,9.59-22.55,7.41s-19.1-10.28-18.12-15.32,10.88-7.37,22.11-5.18S153.19,109.22,152.21,114.27Z"/><g class="cls-13"><path class="cls-14" d="M145,115.4c-.36,6.48-7.39,7.82-14.83,6.38s-13.65-5.16-12.25-11.58c1.08-4.89,8.26-7.69,15.71-6.24S145.27,110.4,145,115.4Z"/></g><circle class="cls-15" cx="118.59" cy="93.66" r="4.5"/><circle class="cls-15" cx="149.4" cy="99.65" r="4.5"/><circle class="cls-2" cx="133.34" cy="102.76" r="18.31" transform="translate(-22.34 38.71) rotate(-15.26)"/><g class="cls-16"><ellipse class="cls-14" cx="131.26" cy="114.43" rx="8.11" ry="13.7" transform="translate(-6.14 221.42) rotate(-78.99)"/></g><path class="cls-5" d="M125,113.11a12.92,12.92,0,0,0,12.26,2,6.21,6.21,0,0,1-7.06,3.62C124.55,117.67,125,113.11,125,113.11Z"/><g class="cls-17"><ellipse class="cls-18" cx="129.96" cy="120.04" rx="2.42" ry="4.16" transform="matrix(0.19, -0.98, 0.98, 0.19, -12.7, 224.68)"/><ellipse class="cls-6" cx="130.99" cy="114.72" rx="2.54" ry="4.26" transform="translate(-6.64 221.39) rotate(-78.99)"/></g><ellipse class="cls-19" cx="121.42" cy="100.5" rx="6.26" ry="4.81" transform="translate(-0.42 200.49) rotate(-78.99)"/><ellipse class="cls-19" cx="145.34" cy="105.15" rx="6.26" ry="4.81" transform="translate(14.37 227.74) rotate(-78.99)"/><ellipse class="cls-6" cx="121.15" cy="101.37" rx="5.35" ry="4.09" transform="translate(-1.5 200.93) rotate(-78.99)"/><g class="cls-20"><path d="M120.87,99a2.74,2.74,0,0,0-1,0,1.42,1.42,0,0,1,.29,1.19,1.26,1.26,0,0,1-1.38,1.12,1.12,1.12,0,0,1-.85-.94,5.06,5.06,0,0,0-.87,2c-.43,2.21.6,4.27,2.28,4.6s3.41-1.2,3.84-3.41S122.56,99.36,120.87,99Z"/></g><ellipse class="cls-6" cx="145.17" cy="106.05" rx="5.35" ry="4.09" transform="translate(13.35 228.29) rotate(-78.99)"/><g class="cls-21"><path d="M143.92,103.25a2.38,2.38,0,0,0-1,0,1.42,1.42,0,0,1,.29,1.19,1.27,1.27,0,0,1-1.38,1.12,1.15,1.15,0,0,1-.85-.95,5,5,0,0,0-.87,2c-.43,2.21.59,4.26,2.28,4.59s3.41-1.19,3.84-3.4S145.61,103.58,143.92,103.25Z"/></g><path class="cls-22" d="M143.64,87.63c.55,1.58-3.08-.6-3.08-.6a1.58,1.58,0,0,0,.35,2.48,3.15,3.15,0,0,1-3.21-2.58c-2.39,1.77-1.87,6.24-1.87,6.24-3.66-1.74-1.54-7.36-1.54-7.36-1.32.11-3.58,2.37-3.58,2.37a7,7,0,0,1,1.9-2.79l-1.84.38c-1.68.51-2.86.37-3-.76,0,0,1.6-2.79,8.17-1.83a3,3,0,0,0-.36-2.76s2.74,1,2.78,3.23C138.38,83.65,142.51,84.34,143.64,87.63Z"/><ellipse class="cls-23" cx="131.78" cy="110.78" rx="5.29" ry="8.84" transform="translate(-2.13 218.98) rotate(-78.99)"/><ellipse class="cls-10" cx="132.18" cy="108.71" rx="2.77" ry="5.37" transform="translate(0.23 217.7) rotate(-78.99)"/><ellipse class="cls-24" cx="130.91" cy="106.75" rx="0.64" ry="1.28" transform="translate(1.12 214.87) rotate(-78.99)"/><path class="cls-22" d="M119.58,95A2.66,2.66,0,0,1,121,93.8a3.1,3.1,0,0,1,1.93-.13,3.42,3.42,0,0,1,1.61,1,4.76,4.76,0,0,1,.53.74,5.44,5.44,0,0,1,.29.86,5.31,5.31,0,0,1-.75-.45l-.69-.4a5.82,5.82,0,0,0-1.31-.55A5.7,5.7,0,0,0,119.58,95Z"/><path class="cls-22" d="M149.18,100.76a5.86,5.86,0,0,0-2.71-1.23,5.65,5.65,0,0,0-1.42,0l-.79.12a7.08,7.08,0,0,1-.86.13,4.8,4.8,0,0,1,.59-.68,4.07,4.07,0,0,1,.77-.5,3.46,3.46,0,0,1,1.87-.33,3.05,3.05,0,0,1,1.74.85A2.6,2.6,0,0,1,149.18,100.76Z"/><ellipse class="cls-15" cx="114.06" cy="106.21" rx="0.68" ry="1.32" transform="translate(-11.98 197.89) rotate(-78.99)"/><ellipse class="cls-15" cx="149.96" cy="113.2" rx="0.68" ry="1.32" transform="translate(10.2 238.78) rotate(-78.99)"/><path class="cls-25" d="M123.33,125.27c-.25.54-.83,1.75-.23,2.24s1.85-.23,2.4-.55l-.58-.33a1.77,1.77,0,0,0,3.46.37h-.73a1.9,1.9,0,0,0,3.49.17h-.66a1.64,1.64,0,0,0,1.41.89,1.66,1.66,0,0,0,.73-.13c.21-.09.62-.58.82-.57s.41.25.5.29a2.55,2.55,0,0,0,.54.22,1.5,1.5,0,0,0,1,0,1.14,1.14,0,0,0,.73-1.43l-.63.37c.64.57,1.73,1.24,2.45.37s-.34-1.48-.55-2.25a.38.38,0,0,0-.74.21,4.36,4.36,0,0,0,.61,1c.17.28.21.57-.21.64s-.77-.32-1-.55-.78,0-.64.37-.33.6-.67.55a2.52,2.52,0,0,1-.78-.36c-.3-.17-.57-.35-.92-.2s-.48.58-.88.68a.93.93,0,0,1-1.05-.49.38.38,0,0,0-.66,0,1.14,1.14,0,0,1-2.1,0,.38.38,0,0,0-.73,0,1,1,0,0,1-2-.17.39.39,0,0,0-.57-.33c-.32.19-1,.64-1.36.57-.12.06-.15,0-.1-.12a1.59,1.59,0,0,1,.06-.3,4.11,4.11,0,0,1,.28-.79c.2-.45-.46-.83-.66-.39Z"/><path class="cls-1" d="M145.42,137.18s-1.79,10.1-2.49,11.51A3.08,3.08,0,0,1,140,150a2.1,2.1,0,0,1-1.93-2c-.09-2-.3-6.48-.43-7.6-.17-1.45.84-5.34,4.56-6S145.42,137.18,145.42,137.18Z"/><path class="cls-10" d="M142.93,148.69l-.45,6.45a2.11,2.11,0,0,1,2.63,1.63c.76,2.24-5.34,3.4-7,1.21s-.17-3.14-.17-3.14l.13-6.59S139.47,150.09,142.93,148.69Z"/><path class="cls-1" d="M118.9,127.47s-9.81,3-11.12,3.86a3.1,3.1,0,0,0-1,3,2.1,2.1,0,0,0,2.22,1.67c2-.15,6.47-.48,7.6-.49,1.46,0,5.2-1.48,5.41-5.25S118.9,127.47,118.9,127.47Z"/><path class="cls-10" d="M107.78,131.33l-6.35,1.23a2.1,2.1,0,0,0-1.94-2.41c-2.32-.49-2.73,5.71-.36,7.06s3.14-.21,3.14-.21l6.52-.93S106.81,134.94,107.78,131.33Z"/></g><g id="Layer_5" data-name="Layer 5"><path class="cls-22" d="M89.27,148.93a3.81,3.81,0,0,0,2.17,1,15.24,15.24,0,0,0,2.23.26.57.57,0,0,1-.41-.26,1,1,0,0,1,1.1.66,6.18,6.18,0,0,0-.34-3.78,3.59,3.59,0,0,0-3-2.12,2.1,2.1,0,0,0-1.43.46C88.77,145.87,88.52,148.12,89.27,148.93Z"/><path class="cls-26" d="M83.92,143.33s6.77,1,7,4.35c0,0-.69-.82-7-1.6S80.64,143.09,83.92,143.33Z"/><path class="cls-3" d="M60.15,145s-6.71,2-9,1.94c0,0-1.47-.31-.38,1.63,0,0-1.45,1.12,0,3.27a1.45,1.45,0,0,0,.62.53c1,.46,4.12,1.47,9.84.19C68.38,150.92,67.88,143.45,60.15,145Z"/><g class="cls-27"><path class="cls-28" d="M53.44,145.08c-.09.22-2.39,2.65-.67,9.1H48.84l.1-9.43,3.55-2Z"/></g><path class="cls-3" d="M83.35,145.63s6.81,1.66,9.1,1.44c0,0,1.45-.39.48,1.61,0,0,1.5,1,.17,3.26a1.47,1.47,0,0,1-.59.57c-1,.51-4,1.69-9.81.74C75.46,152.06,75.55,144.57,83.35,145.63Z"/><g class="cls-29"><path class="cls-28" d="M90.06,145.39c.1.21,2.54,2.52,1.18,9.05l3.92-.22-.63-9.41L90.88,143Z"/></g><path class="cls-3" d="M89,139.74C89,152,81.53,153.2,72.28,153.2S55.52,152,55.52,139.74s7.5-22.21,16.76-22.21S89,127.47,89,139.74Z"/><g class="cls-30"><ellipse class="cls-31" cx="70.83" cy="126.46" rx="17.56" ry="11.58" transform="translate(-13.49 8.56) rotate(-6.32)"/></g><path class="cls-3" d="M57.42,148.51s2,6.71,1.95,9c0,0-.31,1.47,1.63.38,0,0,1.12,1.45,3.27,0a1.52,1.52,0,0,0,.53-.62c.45-1,1.46-4.13.19-9.84C63.39,140.28,55.92,140.79,57.42,148.51Z"/><g class="cls-32"><path class="cls-28" d="M57.56,155.22c.21.1,2.65,2.4,9.1.67v3.93l-9.44-.1-2-3.54Z"/></g><path class="cls-3" d="M84.33,133.15s5.18-4.72,6.27-6.75c0,0,.49-1.42,1.61.51,0,0,1.7-.68,2.8,1.67a1.5,1.5,0,0,1,.14.81c-.13,1.11-.85,4.29-4.86,8.56C85.26,143.28,79.1,139,84.33,133.15Z"/><g class="cls-33"><path class="cls-28" d="M87.88,127.45c.23,0,3.5-.7,8.16,4.07l2-3.38-8.16-4.73-3.56,2Z"/></g><path class="cls-34" d="M52.78,103.17a7.18,7.18,0,0,0-.64,5.41,1.21,1.21,0,0,0,.31.59,1.29,1.29,0,0,0,.84.21,55.66,55.66,0,0,0,24.77-5.76,1.25,1.25,0,0,0,.75-.65,1.21,1.21,0,0,0-.23-1A12.7,12.7,0,0,0,76.83,99a10.61,10.61,0,0,0-3.34-2A12.79,12.79,0,0,0,67.94,96C63,96.53,55.57,98.22,52.78,103.17Z"/><path class="cls-35" d="M57.16,110.4c4.34,2.33.35,7.73-2.68,10.23s-8,1.47-11.17-2.33-3.24-8.9-.21-11.4S53.18,108.25,57.16,110.4Z"/><path class="cls-36" d="M53.83,111.21c2.92,1.28.63,5-1.19,6.74s-5.1,1.37-7.33-.91-2.55-5.57-.73-7.34S51.15,110,53.83,111.21Z"/><path class="cls-35" d="M75,106.25c-2.86,4,3.1,7.08,6.92,8s7.85-2.22,9-7-1-9.42-4.84-10.34S77.65,102.57,75,106.25Z"/><path class="cls-36" d="M78.37,105.51c-2.05,2.43,1.63,4.73,4,5.52s5.17-1,6.17-4-.16-6.12-2.58-6.91S80.26,103.27,78.37,105.51Z"/><ellipse class="cls-37" cx="69.93" cy="124.83" rx="23.59" ry="10.37" transform="translate(-26.44 19.07) rotate(-13.08)"/><ellipse class="cls-37" cx="68.22" cy="117.46" rx="20.85" ry="17.94" transform="translate(-24.82 18.49) rotate(-13.08)"/><circle class="cls-6" cx="55.14" cy="121.05" r="5.06"/><circle cx="55.14" cy="121.05" r="3.79"/><circle class="cls-6" cx="52.76" cy="119.16" r="1.37"/><circle class="cls-6" cx="81.53" cy="114.91" r="5.06"/><circle cx="81.53" cy="114.91" r="3.79"/><circle class="cls-6" cx="79.14" cy="113.03" r="1.37"/><path class="cls-4" d="M63,128.69a16,16,0,0,0,14.85-3.88,7.68,7.68,0,0,1-6.13,7.64C64.78,134.06,63,128.69,63,128.69Z"/><g class="cls-38"><ellipse class="cls-18" cx="72.06" cy="134" rx="5.14" ry="2.99" transform="translate(-28.46 19.79) rotate(-13.08)"/><ellipse class="cls-6" cx="70.55" cy="127.49" rx="5.26" ry="3.14" transform="translate(-27.03 19.28) rotate(-13.08)"/></g><path class="cls-6" d="M62.05,128.05s-1.68,1.34-2,1.73,2.09.71,4.22-.55Z"/><path class="cls-6" d="M78.42,124.24s2.1.47,2.6.66-1.57,1.56-4,1.37Z"/><path class="cls-39" d="M78.32,123.48c.58,2.47-2.66,5.33-7.22,6.39s-8.73-.08-9.3-2.55,2-8.28,6.54-9.34S77.75,121,78.32,123.48Z"/><ellipse class="cls-40" cx="65.49" cy="126.05" rx="1.08" ry="2" transform="matrix(0.97, -0.23, 0.23, 0.97, -26.83, 18.1)"/><ellipse class="cls-40" cx="74.45" cy="123.97" rx="1.08" ry="2" transform="translate(-26.13 20.07) rotate(-13.08)"/><ellipse class="cls-35" cx="50.13" cy="127.57" rx="2.02" ry="0.66" transform="translate(-27.58 14.66) rotate(-13.08)"/><ellipse class="cls-35" cx="88.37" cy="118.69" rx="2.02" ry="0.66" transform="translate(-24.57 23.08) rotate(-13.08)"/><path class="cls-22" d="M60.35,103.94a7.55,7.55,0,0,0,7,5.65s-1.5-6.44,1-7c0,0,.1,2.67,1.92,3.48a18.62,18.62,0,0,0,1.12-3.78l.48,2.09s3.72-2.33,2.72-4.8-5.21-5.41-11.8-3.88-8.8,6-8.29,8.47c0,0,.36,2.62,2.65,3.23l.09-2.23a3.66,3.66,0,0,0,3,3.07S59.67,104.67,60.35,103.94Z"/><ellipse class="cls-41" cx="57.38" cy="138.37" rx="1.03" ry="0.45" transform="translate(-86.47 180.19) rotate(-83.69)"/><ellipse class="cls-41" cx="87.65" cy="135.37" rx="0.45" ry="1.03" transform="translate(-12.24 8.76) rotate(-5.35)"/></g></svg>