<svg id="_1" data-name=" 1" xmlns="http://www.w3.org/2000/svg" xmlns:xlink="http://www.w3.org/1999/xlink" viewBox="0 0 260 168"><defs><style>.cls-1{fill:none;}.cls-2{fill:#7a3100;}.cls-3{fill:#c1681f;}.cls-4{fill:#bc6319;}.cls-5{clip-path:url(#clip-path);}.cls-6{fill:#a04908;}.cls-7{clip-path:url(#clip-path-2);}.cls-8{fill:#c97523;}.cls-9{clip-path:url(#clip-path-3);}.cls-10{fill:#db853e;}.cls-11{fill:#c66c22;}.cls-12{clip-path:url(#clip-path-4);}.cls-13{clip-path:url(#clip-path-5);}.cls-14{fill:#b55f18;}.cls-15{fill:#ba6219;}.cls-16{fill:#994a0a;}.cls-17{fill:#fff;}.cls-18{fill:#c1671e;}.cls-19{fill:#f49547;}.cls-20{fill:#a8540e;}.cls-21{fill:#e5813e;}</style><clipPath id="clip-path"><path class="cls-1" d="M184.27,155.48s1.4,4.58,1.33,6.14c0,0-.21,1,1.12.26,0,0,.76,1,2.22,0a1.09,1.09,0,0,0,.37-.43c.31-.69,1-2.81.12-6.71C188.35,149.87,183.25,150.22,184.27,155.48Z"/></clipPath><clipPath id="clip-path-2"><path class="cls-1" d="M169.42,155.48s1.39,4.58,1.33,6.14c0,0-.21,1,1.11.26,0,0,.77,1,2.23,0a1.15,1.15,0,0,0,.36-.43c.31-.69,1-2.81.13-6.71C173.49,149.87,168.39,150.22,169.42,155.48Z"/></clipPath><clipPath id="clip-path-3"><path class="cls-1" d="M169.52,128.37s27.61,1.77,29.22,17.65-33.27,8.52-40.24,6.42l13.5-6.88Z"/></clipPath><clipPath id="clip-path-4"><path class="cls-1" d="M173.1,155.48s1.39,4.58,1.33,6.14c0,0-.21,1,1.11.26,0,0,.77,1,2.23,0a1.07,1.07,0,0,0,.36-.43c.31-.69,1-2.81.13-6.71C177.17,149.87,172.08,150.22,173.1,155.48Z"/></clipPath><clipPath id="clip-path-5"><path class="cls-1" d="M188,155.48s1.39,4.58,1.33,6.14c0,0-.21,1,1.11.26,0,0,.77,1,2.23,0a1.15,1.15,0,0,0,.36-.43,14.43,14.43,0,0,0,.95-8.31C192.85,148.27,186.93,150.22,188,155.48Z"/></clipPath></defs><path class="cls-2" d="M200.09,155a2.69,2.69,0,0,0,1.47.67,11,11,0,0,0,1.52.17.36.36,0,0,1-.28-.18.68.68,0,0,1,.75.45,4.12,4.12,0,0,0-.23-2.57,2.46,2.46,0,0,0-2-1.45,1.39,1.39,0,0,0-1,.31A2.3,2.3,0,0,0,200.09,155Z"/><path class="cls-3" d="M196.44,151.17s4.61.72,4.75,3c0,0-.47-.56-4.75-1.09S194.2,151,196.44,151.17Z"/><path class="cls-4" d="M184.27,155.48s1.4,4.58,1.33,6.14c0,0-.21,1,1.12.26,0,0,.76,1,2.22,0a1.09,1.09,0,0,0,.37-.43c.31-.69,1-2.81.12-6.71C188.35,149.87,183.25,150.22,184.27,155.48Z"/><g class="cls-5"><path class="cls-6" d="M184.37,160.06c.15.06,1.81,1.63,6.2.45v2.68l-6.43-.07-1.39-2.41Z"/></g><path class="cls-4" d="M169.42,155.48s1.39,4.58,1.33,6.14c0,0-.21,1,1.11.26,0,0,.77,1,2.23,0a1.15,1.15,0,0,0,.36-.43c.31-.69,1-2.81.13-6.71C173.49,149.87,168.39,150.22,169.42,155.48Z"/><g class="cls-7"><path class="cls-6" d="M169.51,160.06c.15.06,1.81,1.63,6.21.45v2.68l-6.43-.07-1.39-2.41Z"/></g><path class="cls-8" d="M169.52,128.37s27.61,1.77,29.22,17.65-33.27,8.52-40.24,6.42l13.5-6.88Z"/><g class="cls-9"><path class="cls-10" d="M180.09,157.92s-18.3-3.53-10.15-3.67,10.15,1.28,20.2.74-5.71,2.76-5.71,2.76l-4,.06"/></g><path class="cls-2" d="M177.63,128.37a8.53,8.53,0,0,0,1.06.5c.47.16,1,.22,1.44.35a11.23,11.23,0,0,1,2.08.89l4.52,2.29a2.67,2.67,0,0,1-3-.35,1.27,1.27,0,0,1-1.48.56,4.25,4.25,0,0,1-1.47-.85,1.24,1.24,0,0,0-.86-.34,1.84,1.84,0,0,0-.51.19c-1,.4-2.09-.49-2.85-1.3a1.64,1.64,0,0,1-1.68.1c-.23-.12-.42-.3-.66-.41a4.38,4.38,0,0,0-1.53-.19,1.2,1.2,0,0,1-1.21-.79,1.55,1.55,0,0,1-1.65.45,4.43,4.43,0,0,1-1.56-.9l-2-1.56c-.93-.73-.54-1.19.41-1.16a34.43,34.43,0,0,1,3.66.41A23.76,23.76,0,0,1,177.63,128.37Z"/><ellipse class="cls-11" cx="186.01" cy="135.39" rx="2.06" ry="0.65"/><ellipse class="cls-11" cx="189.86" cy="137.66" rx="2.06" ry="0.65"/><path class="cls-8" d="M173.1,155.48s1.39,4.58,1.33,6.14c0,0-.21,1,1.11.26,0,0,.77,1,2.23,0a1.07,1.07,0,0,0,.36-.43c.31-.69,1-2.81.13-6.71C177.17,149.87,172.08,150.22,173.1,155.48Z"/><g class="cls-12"><path class="cls-6" d="M173.2,160.06c.14.06,1.8,1.63,6.2.45v2.68l-6.43-.07-1.39-2.41Z"/></g><path class="cls-8" d="M188,155.48s1.39,4.58,1.33,6.14c0,0-.21,1,1.11.26,0,0,.77,1,2.23,0a1.15,1.15,0,0,0,.36-.43,14.43,14.43,0,0,0,.95-8.31C192.85,148.27,186.93,150.22,188,155.48Z"/><g class="cls-13"><path class="cls-6" d="M188.05,160.06c.15.06,1.81,1.63,6.21.45v2.68l-6.43-.07-1.39-2.41Z"/></g><path class="cls-14" d="M160.38,130.24s-2.67-4.08-6.59-3.31-5.45,4.64,1.51,12.58C155.3,139.51,161,134.06,160.38,130.24Z"/><path class="cls-15" d="M153.17,147.34s1.53,9.52,15.9,2.88l1-9.79s-6-4.23-7.1-4.23S153.17,147.34,153.17,147.34Z"/><path class="cls-16" d="M154.79,146.08s1,9.53,10.9,2.88l.68-9.79S162.24,135,161.5,135,154.79,146.08,154.79,146.08Z"/><path class="cls-8" d="M151.27,137.82s-2.48-.5-3.32,3.45,2,6,6.76,7.34,22.77,6.54,21.61-6.7-5.09-15.12-10.33-16S154.23,127.76,151.27,137.82Z"/><path class="cls-17" d="M162,149a23.19,23.19,0,0,1-1.62,2.42,2.74,2.74,0,0,0,3-2.4,2.83,2.83,0,0,0,0-.29C163.5,145.81,162,149,162,149Z"/><path class="cls-17" d="M155.33,147.07a23.32,23.32,0,0,1-1.62,2.43,2.75,2.75,0,0,0,3-2.47,1.69,1.69,0,0,0,0-.23C156.85,143.93,155.33,147.07,155.33,147.07Z"/><path class="cls-8" d="M153.17,145.55s-.45,3,1.71,3.77,8.44,2.42,11-1.17-3.77-11-4.22-10.87S153.17,145.55,153.17,145.55Z"/><ellipse class="cls-18" cx="168.41" cy="144.17" rx="0.63" ry="1.98" transform="translate(-3.99 283.55) rotate(-79.52)"/><ellipse class="cls-18" cx="150.74" cy="140.34" rx="0.63" ry="1.98" transform="translate(-14.68 263.04) rotate(-79.52)"/><circle class="cls-17" cx="165.89" cy="139.74" r="3.5"/><path d="M165.77,136.6a2.62,2.62,0,0,0-.88.06.92.92,0,0,1,.41.87.94.94,0,0,1-1.86.06,2.61,2.61,0,1,0,2.33-1Z"/><ellipse class="cls-17" cx="154.91" cy="137.06" rx="2.96" ry="1.69" transform="translate(-17.58 251.2) rotate(-75)"/><path d="M155.35,134.43a.68.68,0,0,0-.42-.06,1,1,0,0,1,0,.76c-.14.42-.43.67-.66.56s-.27-.4-.21-.74a3.26,3.26,0,0,0-.55,1c-.38,1.15-.17,2.33.46,2.63s1.46-.39,1.84-1.54S156,134.73,155.35,134.43Z"/><path class="cls-19" d="M156.71,139.25c-.3,0-1.09.14-2.42,2.69s-1.65,4.44-.25,5.17,5.72,2.44,6.69.43S160.53,139,156.71,139.25Z"/><ellipse class="cls-20" cx="159.19" cy="145.61" rx="1.6" ry="0.8" transform="translate(-4.17 286.53) rotate(-83.23)"/><ellipse class="cls-20" cx="154.22" cy="144.4" rx="1.6" ry="0.51" transform="translate(-27.49 252.18) rotate(-73.79)"/><path class="cls-2" d="M172.79,128.31a19.81,19.81,0,0,0-8.51-2.84c-5.06-.4-8.91,2.74-9.41,4.76a2.24,2.24,0,0,0,.4,1.92c.71.81.41.21.41.21s-.31-1.72.6-2.33c0,0,.61,4.05,4.15,4.35,0,0-.7-3,.51-3.95l2.23,2.94s-.1-2.43.61-2.94l2,1.62.1-2.12s4,.91,3.85.6S172.79,128.31,172.79,128.31Z"/><path class="cls-8" d="M171,130.4s3.36-3.54,7.08-2.09,4.54,5.54-3.73,12.12C174.35,140.43,169.74,134.05,171,130.4Z"/><path class="cls-21" d="M171.12,131.71s2.39-2.52,5-1.48,3.24,4-2.65,8.64C173.51,138.87,170.22,134.32,171.12,131.71Z"/></svg>