<svg id="Layer_1" data-name="Layer 1" xmlns="http://www.w3.org/2000/svg" xmlns:xlink="http://www.w3.org/1999/xlink" viewBox="0 0 1024 600"><defs><style>.cls-1{fill:none;}.cls-2{clip-path:url(#clip-path);}.cls-3{fill:#38a4fc;}.cls-4{fill:#73c9fe;}</style><clipPath id="clip-path"><rect id="SVGID" class="cls-1" width="1024" height="600"/></clipPath></defs><title>16_water_wave</title><g class="cls-2"><rect class="cls-3" x="-26" y="225" width="1098" height="322"/><path class="cls-4" d="M1088.53,584.19c-88.41,22.3-92.74-12.57-183.93-12.57s-91.18,12.76-182.36,12.76-91.19-12.76-182.37-12.76-91.18,12.76-182.37,12.76-91.18-12.76-182.36-12.76S84,584.38-7.24,584.38-99.63,594.11-188,571.81C-210.35,566.19-196,555-196,532s12.77-23,12.77-46S-196,463-196,440s12.77-23,12.77-46S-196,371-196,348s12.77-23,12.77-46-30.25-46.56-8-52.19c88.42-22.3,92.75,12.57,183.93,12.57s91.19-12.76,182.37-12.76,91.18,12.76,182.36,12.76,91.19-12.76,182.37-12.76S631,262.38,722.22,262.38s91.19-12.76,182.37-12.76,92.4-9.73,180.82,12.57c22.3,5.62,7.94,16.81,7.94,39.81s-12.76,23-12.76,46,12.76,23,12.76,46-12.76,23-12.76,46,12.76,23,12.76,46-18.3,25.33-12.56,47.6C1088.09,561.9,1110.83,578.56,1088.53,584.19Z"/><path class="cls-3" d="M1226.72,644.38c-68.77,17.35-74-25.15-145-25.15s-70.92,25.54-141.83,25.54S869,619.23,798.07,619.23s-70.92,25.54-141.84,25.54-70.92-25.54-141.84-25.54-70.92,25.54-141.84,25.54-70.92-25.54-141.84-25.54-70.93,25.54-141.85,25.54-70-7.8-138.73-25.15c-17.34-4.37-15.89-5.51-15.89-23.4s25.54-17.88,25.54-35.77-25.54-17.89-25.54-35.77,25.54-17.89,25.54-35.78S-65.76,471-65.76,453.12s25.54-17.89,25.54-35.78-25.54-17.88-25.54-35.77,25.54-17.9,25.54-35.79S-73.46,302-56.11,297.62c68.76-17.35,74,25.15,145,25.15s70.92-25.54,141.84-25.54,70.92,25.54,141.84,25.54,70.92-25.54,141.84-25.54,70.92,25.54,141.84,25.54,70.92-25.54,141.84-25.54S869,322.77,939.9,322.77s70.92-25.54,141.84-25.54,70,7.8,138.73,25.15c17.35,4.37,15.89,5.51,15.89,23.4s-25.53,17.88-25.53,35.77,25.53,17.89,25.53,35.77-25.53,17.89-25.53,35.78,25.53,17.89,25.53,35.78-25.53,17.89-25.53,35.78,25.53,17.88,25.53,35.77-29.59,21.64-25.13,39C1217.82,625,1244.06,640,1226.72,644.38Z"/><path class="cls-4" d="M1132.44,711.38c-61.88,15.61-67-25.15-130.78-25.15S937.84,711.77,874,711.77s-63.83-25.54-127.66-25.54-63.82,25.54-127.65,25.54S554.87,686.23,491,686.23s-63.83,25.54-127.66,25.54-63.83-25.54-127.66-25.54-63.82,25.54-127.65,25.54S44.23,686.23-19.6,686.23-88.49,727-150.38,711.38C-166,707.44-134.5,682.9-134.5,666.8S-160,650.7-160,634.6s25.53-16.1,25.53-32.19S-160,586.31-160,570.21s25.53-16.1,25.53-32.2S-160,521.91-160,505.81s25.53-16.1,25.53-32.2S-160,457.51-160,441.41s25.53-16.1,25.53-32.21-31.5-40.64-15.88-44.58C-88.5,349-83.43,389.77-19.61,389.77s63.83-25.54,127.66-25.54,63.83,25.54,127.65,25.54,63.83-25.54,127.66-25.54S427.19,389.77,491,389.77s63.83-25.54,127.66-25.54,63.83,25.54,127.66,25.54S810.16,364.23,874,364.23s63.84,25.54,127.67,25.54,68.89-40.76,130.78-25.15c15.61,3.94-15.88,28.48-15.88,44.58s25.53,16.1,25.53,32.2-25.53,16.1-25.53,32.19,25.53,16.1,25.53,32.2-25.53,16.1-25.53,32.2,25.53,16.1,25.53,32.2-25.53,16.1-25.53,32.2,25.53,16.1,25.53,32.2S1113,654.38,1117,670C1123,693.6,1148.06,707.44,1132.44,711.38Z"/><path class="cls-3" d="M1226.72,788.38c-68.77,17.35-74-25.15-145-25.15s-70.92,25.54-141.83,25.54S869,763.23,798.07,763.23s-70.92,25.54-141.84,25.54-70.92-25.54-141.84-25.54-70.92,25.54-141.84,25.54-70.92-25.54-141.84-25.54-70.93,25.54-141.85,25.54-70-7.8-138.73-25.15c-17.34-4.37-15.89-5.51-15.89-23.4s25.54-17.88,25.54-35.77-25.54-17.89-25.54-35.77,25.54-17.89,25.54-35.78S-65.76,615-65.76,597.12s25.54-17.89,25.54-35.78-25.54-17.88-25.54-35.77,25.54-17.9,25.54-35.79S-73.46,446-56.11,441.62c68.76-17.35,74,25.15,145,25.15s70.92-25.54,141.84-25.54,70.92,25.54,141.84,25.54,70.92-25.54,141.84-25.54,70.92,25.54,141.84,25.54,70.92-25.54,141.84-25.54S869,466.77,939.9,466.77s70.92-25.54,141.84-25.54,70,7.8,138.73,25.15c17.35,4.37,15.89,5.51,15.89,23.4s-25.53,17.88-25.53,35.77,25.53,17.89,25.53,35.77-25.53,17.89-25.53,35.78,25.53,17.89,25.53,35.78-25.53,17.89-25.53,35.78,25.53,17.88,25.53,35.77-29.59,21.64-25.13,39C1217.82,769,1244.06,784,1226.72,788.38Z"/><path class="cls-4" d="M1132.44,870.38c-61.88,15.61-67-25.15-130.78-25.15S937.84,870.77,874,870.77s-63.83-25.54-127.66-25.54-63.82,25.54-127.65,25.54S554.87,845.23,491,845.23s-63.83,25.54-127.66,25.54-63.83-25.54-127.66-25.54-63.82,25.54-127.65,25.54S44.23,845.23-19.6,845.23-88.49,886-150.38,870.38C-166,866.44-134.5,841.9-134.5,825.8S-160,809.7-160,793.6s25.53-16.1,25.53-32.19S-160,745.31-160,729.21s25.53-16.1,25.53-32.2S-160,680.91-160,664.81s25.53-16.1,25.53-32.2S-160,616.51-160,600.41s25.53-16.1,25.53-32.21-31.5-40.64-15.88-44.58C-88.5,508-83.43,548.77-19.61,548.77s63.83-25.54,127.66-25.54,63.83,25.54,127.65,25.54,63.83-25.54,127.66-25.54S427.19,548.77,491,548.77s63.83-25.54,127.66-25.54,63.83,25.54,127.66,25.54S810.16,523.23,874,523.23s63.84,25.54,127.67,25.54,68.89-40.76,130.78-25.15c15.61,3.94-15.88,28.48-15.88,44.58s25.53,16.1,25.53,32.2-25.53,16.1-25.53,32.19,25.53,16.1,25.53,32.2-25.53,16.1-25.53,32.2,25.53,16.1,25.53,32.2-25.53,16.1-25.53,32.2,25.53,16.1,25.53,32.2S1113,813.38,1117,829C1123,852.6,1148.06,866.44,1132.44,870.38Z"/></g></svg>