<?xml version="1.0" encoding="utf-8"?>
<!-- Generator: Adobe Illustrator 23.0.1, SVG Export Plug-In . SVG Version: 6.00 Build 0)  -->
<svg version="1.1" id="Layer_1" xmlns="http://www.w3.org/2000/svg" xmlns:xlink="http://www.w3.org/1999/xlink" x="0px" y="0px"
	 viewBox="0 0 1024 600" style="enable-background:new 0 0 1024 600;" xml:space="preserve">
<style type="text/css">
	.st0{clip-path:url(#SVGID_2_);}
	.st1{fill:#38A4FC;}
	.st2{fill:#73C9FE;}
</style>
<title>16_water_wave</title>
<g>
	<defs>
		<rect id="SVGID_1_" width="1024" height="600"/>
	</defs>
	<clipPath id="SVGID_2_">
		<use xlink:href="#SVGID_1_"  style="overflow:visible;"/>
	</clipPath>
	<g class="st0">
		<rect x="-26" y="225" class="st1" width="1098" height="322"/>
		<path class="st2" d="M1162.8,584.2c-88.4,22.3-92.7-12.6-183.9-12.6s-91.2,12.8-182.4,12.8s-91.2-12.8-182.4-12.8
			s-91.2,12.8-182.4,12.8s-91.2-12.8-182.4-12.8s-91.2,12.8-182.4,12.8s-92.4,9.7-180.8-12.6c-22.3-5.6-7.9-16.8-7.9-39.8
			s12.8-23,12.8-46s-12.8-23-12.8-46s12.8-23,12.8-46s-12.8-23-12.8-46s12.8-23,12.8-46s-30.2-46.6-7.9-52.2
			c88.4-22.3,92.7,12.6,183.9,12.6s91.2-12.8,182.4-12.8s91.2,12.8,182.4,12.8s91.2-12.8,182.4-12.8s91.2,12.8,182.4,12.8
			s91.2-12.8,182.4-12.8s92.4-9.7,180.8,12.6c22.3,5.6,7.9,16.8,7.9,39.8s-12.8,23-12.8,46s12.8,23,12.8,46s-12.8,23-12.8,46
			s12.8,23,12.8,46s-18.3,25.3-12.6,47.6C1162.4,561.9,1185.2,578.6,1162.8,584.2z"/>
		<path class="st1" d="M1164.8,644.4c-68.8,17.3-74-25.1-145-25.1s-70.9,25.5-141.8,25.5s-70.9-25.5-141.8-25.5
			s-70.9,25.5-141.8,25.5s-70.9-25.5-141.8-25.5s-70.9,25.5-141.9,25.5s-70.9-25.5-141.8-25.5s-70.9,25.5-141.9,25.5
			S-43,637-111.8,619.6c-17.4-4.4-15.9-5.5-15.9-23.4s25.5-17.9,25.5-35.8c0-17.9-25.5-17.9-25.5-35.8c0-17.9,25.5-17.9,25.5-35.8
			s-25.5-17.9-25.5-35.8s25.5-17.9,25.5-35.8s-25.5-17.9-25.5-35.8s25.5-17.9,25.5-35.8s-33.2-43.8-15.8-48.2
			c68.8-17.4,74,25.1,145,25.1s70.9-25.5,141.8-25.5s70.9,25.5,141.8,25.5s70.9-25.5,141.8-25.5s70.9,25.5,141.8,25.5
			s70.9-25.5,141.8-25.5S807,322.8,878,322.8s70.9-25.5,141.8-25.5s70,7.8,138.7,25.1c17.3,4.4,15.9,5.5,15.9,23.4
			s-25.5,17.9-25.5,35.8s25.5,17.9,25.5,35.8s-25.5,17.9-25.5,35.8s25.5,17.9,25.5,35.8s-25.5,17.9-25.5,35.8s25.5,17.9,25.5,35.8
			c0,17.9-29.6,21.6-25.1,39C1155.9,625,1182.1,640,1164.8,644.4z"/>
		<path class="st2" d="M1206.8,711.4c-61.9,15.6-67-25.1-130.8-25.1s-63.8,25.5-127.7,25.5s-63.8-25.5-127.7-25.5
			s-63.8,25.5-127.7,25.5s-63.8-25.5-127.7-25.5s-63.8,25.5-127.6,25.5s-63.8-25.5-127.7-25.5s-63.8,25.5-127.7,25.5
			s-63.8-25.5-127.7-25.5S-14.2,727-76.1,711.4c-15.6-3.9,15.9-28.5,15.9-44.6s-25.5-16.1-25.5-32.2s25.5-16.1,25.5-32.2
			s-25.5-16.1-25.5-32.2s25.5-16.1,25.5-32.2s-25.5-16.1-25.5-32.2c0-16.1,25.5-16.1,25.5-32.2s-25.5-16.1-25.5-32.2
			s25.5-16.1,25.5-32.2s-31.5-40.6-15.9-44.6c61.9-15.6,67,25.1,130.8,25.1s63.8-25.5,127.6-25.5s63.8,25.5,127.6,25.5
			s63.8-25.5,127.6-25.5s63.8,25.5,127.7,25.5s63.9-25.5,127.7-25.5s63.8,25.5,127.7,25.5s63.8-25.5,127.7-25.5
			s63.8,25.5,127.7,25.5s68.9-40.8,130.8-25.1c15.6,3.9-15.9,28.5-15.9,44.6s25.5,16.1,25.5,32.2s-25.5,16.1-25.5,32.2
			s25.5,16.1,25.5,32.2c0,16.1-25.5,16.1-25.5,32.2s25.5,16.1,25.5,32.2s-25.5,16.1-25.5,32.2s25.5,16.1,25.5,32.2
			s-29.1,19.8-25.1,35.4C1197.4,693.6,1222.4,707.4,1206.8,711.4z"/>
		<path class="st1" d="M1164.8,788.4c-68.8,17.3-74-25.1-145-25.1s-70.9,25.5-141.8,25.5s-70.9-25.5-141.8-25.5
			s-70.9,25.5-141.8,25.5s-70.9-25.5-141.8-25.5s-70.9,25.5-141.9,25.5s-70.9-25.5-141.8-25.5s-70.9,25.5-141.9,25.5
			S-43,781-111.8,763.6c-17.4-4.4-15.9-5.5-15.9-23.4s25.5-17.9,25.5-35.8s-25.5-17.9-25.5-35.8s25.5-17.9,25.5-35.8
			s-25.5-17.9-25.5-35.8s25.5-17.9,25.5-35.8c0-17.9-25.5-17.9-25.5-35.8s25.5-17.9,25.5-35.8s-33.2-43.8-15.8-48.2
			c68.8-17.4,74,25.1,145,25.1s70.9-25.5,141.8-25.5s70.9,25.5,141.8,25.5s70.9-25.5,141.8-25.5s70.9,25.5,141.8,25.5
			s70.9-25.5,141.8-25.5S807,466.8,878,466.8s70.9-25.5,141.8-25.5s70,7.8,138.7,25.1c17.3,4.4,15.9,5.5,15.9,23.4
			s-25.5,17.9-25.5,35.8s25.5,17.9,25.5,35.8c0,17.9-25.5,17.9-25.5,35.8s25.5,17.9,25.5,35.8s-25.5,17.9-25.5,35.8
			s25.5,17.9,25.5,35.8s-29.6,21.6-25.1,39C1155.9,769,1182.1,784,1164.8,788.4z"/>
		<path class="st2" d="M1206.8,870.4c-61.9,15.6-67-25.1-130.8-25.1s-63.8,25.5-127.7,25.5s-63.8-25.5-127.7-25.5
			s-63.8,25.5-127.7,25.5s-63.8-25.5-127.7-25.5s-63.8,25.5-127.6,25.5s-63.8-25.5-127.7-25.5s-63.8,25.5-127.7,25.5
			s-63.8-25.5-127.7-25.5S-14.2,886-76.1,870.4c-15.6-3.9,15.9-28.5,15.9-44.6s-25.5-16.1-25.5-32.2s25.5-16.1,25.5-32.2
			s-25.5-16.1-25.5-32.2s25.5-16.1,25.5-32.2s-25.5-16.1-25.5-32.2s25.5-16.1,25.5-32.2s-25.5-16.1-25.5-32.2s25.5-16.1,25.5-32.2
			s-31.5-40.7-15.9-44.6c61.9-15.6,67,25.1,130.8,25.1s63.8-25.5,127.6-25.5s63.8,25.6,127.6,25.6s63.8-25.5,127.6-25.5
			s63.8,25.5,127.7,25.5s63.9-25.5,127.7-25.5s63.8,25.5,127.7,25.5s63.8-25.5,127.7-25.5s63.8,25.5,127.7,25.5
			s68.9-40.8,130.8-25.1c15.6,3.9-15.9,28.5-15.9,44.6s25.5,16.1,25.5,32.2s-25.5,16.1-25.5,32.2s25.5,16.1,25.5,32.2
			s-25.5,16.1-25.5,32.2s25.5,16.1,25.5,32.2s-25.5,16.1-25.5,32.2s25.5,16.1,25.5,32.2s-29.1,19.8-25.1,35.4
			C1197.4,852.6,1222.4,866.4,1206.8,870.4z"/>
	</g>
</g>
</svg>
