<svg xmlns="http://www.w3.org/2000/svg" xmlns:xlink="http://www.w3.org/1999/xlink" viewBox="0 0 260 168"><defs><style>.cls-1{fill:#7c460f;}.cls-2{fill:#aa6b27;}.cls-3{fill:#e0a75c;}.cls-4{fill:#c6813c;}.cls-5{fill:#fff;}.cls-6{fill:#8c5115;}.cls-7{clip-path:url(#clip-path);}.cls-8{fill:#703c0e;}.cls-9{fill:#7c4411;}.cls-10{clip-path:url(#clip-path-2);}.cls-11{fill:#9e5e1e;}.cls-12{fill:#93520c;}.cls-13{clip-path:url(#clip-path-3);}.cls-14{fill:none;stroke:#ce8936;stroke-miterlimit:10;stroke-width:0.89px;}.cls-15{fill:#c4813f;}.cls-16{clip-path:url(#clip-path-4);}.cls-17{fill:#ba7332;}.cls-18{fill:#db9658;}</style><clipPath id="clip-path"><path class="cls-1" d="M123.08,132.59c3.45-.22,6.63-1.88,9.68-3.5,0,2.27,2.82,3.67,5,3.15s3.87-2.3,5.4-4a7.15,7.15,0,0,0,11.71-.21,8.12,8.12,0,0,0,5.19,2.51,5,5,0,0,0,4.8-2.76c2.12,1.72,4.36,3.49,7,4s5.9-.73,6.65-3.36a19.2,19.2,0,0,0,9.93,2.36c3.43-.26,6.88-2.09,8.41-5.18a14.46,14.46,0,0,0,1.21-5.37,61.24,61.24,0,0,0-5.82-31.75c-2.32-4.72-5.45-9.25-10-12A31.88,31.88,0,0,0,172.17,73a133.51,133.51,0,0,0-21.75-2.46c-5.88-.22-11.85-.11-17.55,1.39a14.67,14.67,0,0,0-6,2.81,15.76,15.76,0,0,0-3.74,5.51,51.84,51.84,0,0,0-4.71,21.33,26.89,26.89,0,0,1-.48,7c-.77,2.81-2.64,5.19-3.7,7.9C111.49,123.52,114,133.17,123.08,132.59Z"/></clipPath><clipPath id="clip-path-2"><path class="cls-2" d="M236,132.16a4,4,0,0,0,1.89-.65c-2.62-6.39-9-10.14-15.27-13.27l-.75-.91,3.77-1.37a98,98,0,0,0-14.8-13.18c-.57-.81-1.15-1.63-1.72-2.46,1.15.21,2.57-.29,2.54-1.42a2.45,2.45,0,0,0-.47-1.19,49.59,49.59,0,0,0-12.49-13.3L197.23,82a4.12,4.12,0,0,1,2.55-1.4A154.11,154.11,0,0,0,189.5,69l-.38-.66c2.86,0,.95-4.53-2.73-4.91-2.34-4.27-3.68-7-3.69-7.15l-1.12-2.69L167,53.49v-.14l-15.3.07-15.3-.07v.14l-14.56.06-1.12,2.69c0,.2-1.35,2.88-3.69,7.15-3.68.38-5.59,5-2.73,4.91l-.38.66a154.11,154.11,0,0,0-10.28,11.68,4.15,4.15,0,0,1,2.55,1.4l-1.47,2.37a49.71,49.71,0,0,0-12.48,13.3,2.47,2.47,0,0,0-.48,1.19c0,1.13,1.4,1.63,2.54,1.42-.56.83-1.14,1.65-1.72,2.46A98.53,98.53,0,0,0,77.8,116l3.78,1.37-.75.91c-6.24,3.13-12.66,6.88-15.27,13.27a4,4,0,0,0,1.89.65,51.94,51.94,0,0,1-7.27,5.33s.66,3.11,8.63-2.08c0,0-1,6.92,8.65,1,0,0-.27,5.53,9.38.35,0,0,.31,4.49,8.6.69,0,0,.7,4.44,7.61,1.53,0,0,5.77,3.31,12.22-1.53,0,0,.57,5.19,10.26-.69,0,0,8.27-2.08,6-9.34,0,0,5-.61,2.05-7.57,0,0,1.56,0-.85-8,0,0,6.56-1,2.42-8,0,0,6.25-.5,1.23-7.86,0,0,4-1.28,0-7.78A4.83,4.83,0,0,0,138.87,83a4.28,4.28,0,0,0,2.1.31c1.57.75,3.55,1.33,4.91.42,2.59,3.09,5.1-.82,5.84-2.16.74,1.34,3.24,5.25,5.83,2.16,1.37.91,3.35.33,4.92-.42a4.3,4.3,0,0,0,2.1-.31A4.83,4.83,0,0,0,167,88.31c-4,6.5,0,7.78,0,7.78-5,7.36,1.23,7.86,1.23,7.86-4.14,6.92,2.42,8,2.42,8-2.41,8-.85,8-.85,8-2.91,7,2.05,7.57,2.05,7.57-2.24,7.26,6,9.34,6,9.34,9.68,5.88,10.26.69,10.26.69,6.45,4.84,12.22,1.53,12.22,1.53,6.91,2.91,7.6-1.53,7.6-1.53,8.3,3.8,8.61-.69,8.61-.69,9.65,5.18,9.37-.35,9.37-.35,9.68,5.88,8.66-1,8.66-1,8,5.19,8.63,2.08,8.63,2.08A51.94,51.94,0,0,1,236,132.16Z"/></clipPath><clipPath id="clip-path-3"><path class="cls-3" d="M188.24,57.55h0a2.1,2.1,0,0,0-.55-.37L151.86,32.82,115.74,57.35l-.07,0h0a.79.79,0,0,0-.39.57c0,2.17,16.38,3.93,36.59,3.93s36.59-1.76,36.59-3.93A.61.61,0,0,0,188.24,57.55Z"/></clipPath><clipPath id="clip-path-4"><path class="cls-4" d="M189.22,55.81c-.9-1.52-1.83-3-2.81-4.47l1.31.35a7.4,7.4,0,0,0-3.32-2.84L175.51,44l1.19-.12c.15-.6-.5-1.07-1-1.34a212,212,0,0,0-21.33-9.4c-2.71-1-4-.34-6,1-2,.17-10.79,5.31-12.16,6l1.07.47c.11.48-.45.81-.9,1l-9.85,3.67a1.58,1.58,0,0,0-.63.36c-.46.52,0,1.22.52,1.73l-1.49.8q-4.44,2.32-9,4.47a16.57,16.57,0,0,0-4.18,2.47,7.3,7.3,0,0,0,3.8.56L114.87,57a5.16,5.16,0,0,0,4-.47c0,.77-.07,1.54-.1,2.31a11.53,11.53,0,0,0,5.28-.89c-.39,1.09.82,2.21,2,2.21a5.52,5.52,0,0,0,3.1-1.44,1.88,1.88,0,0,0,2,1.87,3.94,3.94,0,0,0,2.66-1.45,2.8,2.8,0,0,0,5.54-.16,7.62,7.62,0,0,0,3.76,2.56c1.51.3,3.36-.67,3.38-2.21A11.49,11.49,0,0,0,151,61.72c1.68.3,3.66-.35,4.33-1.93a9.3,9.3,0,0,0,4.31,1.85c1.58.09,3.34-1,3.46-2.53A11.55,11.55,0,0,0,168.88,61c1.29.06,3-.58,2.81-1.85a9,9,0,0,0,3.81,1.34,3.08,3.08,0,0,0,3.16-2,6.56,6.56,0,0,0,3.58,1.37c1.29,0,2.62-1.25,2.28-2.5a7.69,7.69,0,0,0,3.84,1.12,1.64,1.64,0,0,0,1-.21C190.05,57.7,189.67,56.57,189.22,55.81Z"/></clipPath></defs><g id="Layer_3" data-name="Layer 3"><path class="cls-5" d="M14.15,153.66"/><path class="cls-5" d="M78,33.22c22.46,0,41.27,16.07,46.25,37.67a29.09,29.09,0,0,0,13,3.68,23.58,23.58,0,0,1-11.92,3.28c.13,1.46.2,2.94.2,4.43,0,27.1-21.29,49.07-47.55,49.07s-47.54-22-47.54-49.07S51.72,33.22,78,33.22Z"/><ellipse class="cls-5" cx="202.2" cy="55.37" rx="54.88" ry="36.88"/><ellipse class="cls-5" cx="157.31" cy="87.97" rx="7.79" ry="4.28"/><path class="cls-6" d="M123,137.06a2.9,2.9,0,0,0-1.16.62,1,1,0,0,0-.21,1.21,1.3,1.3,0,0,0,.86.47,6.19,6.19,0,0,0,4-.48.76.76,0,0,0,.12,1.17,2,2,0,0,0,1.32.25,13.48,13.48,0,0,0,3.91-.8c-.13.92,1.12,1.35,2.06,1.32a11.6,11.6,0,0,0,4.41-1,2.65,2.65,0,0,1,.94-.3,2.82,2.82,0,0,1,1.37.5,7.23,7.23,0,0,0,6.18.22,3.94,3.94,0,0,1,1.66-.53,4,4,0,0,1,1.25.38,7.7,7.7,0,0,0,3.77.51c.62-.06,1.4-.41,1.33-1a8.3,8.3,0,0,0,3.29,1.35,2.86,2.86,0,0,0,3-1.54,11.12,11.12,0,0,0,4.56,1.43,2.35,2.35,0,0,0,1.29-.17.94.94,0,0,0,.52-1.08,6.64,6.64,0,0,0,4.68,1.55,1.9,1.9,0,0,0,1.14-.35.86.86,0,0,0,.27-1.08,12.21,12.21,0,0,0,3.15,1.07,1.85,1.85,0,0,0,1.39-.11c.39-.27.47-1,0-1.17l3.36.67a1.54,1.54,0,0,0-.55-1.17,3.54,3.54,0,0,0,1.44.68,1.2,1.2,0,0,0,1.33-.67c.3-.88-.81-1.56-1.72-1.77-3-.7-6.16-.53-9.26-.54-5.37,0-10.72-.63-16.08-1.08q-13.5-1.14-27.08-1c-2.09,0-4.28.11-6.06,1.2"/><path class="cls-1" d="M123.08,132.59c3.45-.22,6.63-1.88,9.68-3.5,0,2.27,2.82,3.67,5,3.15s3.87-2.3,5.4-4a7.15,7.15,0,0,0,11.71-.21,8.12,8.12,0,0,0,5.19,2.51,5,5,0,0,0,4.8-2.76c2.12,1.72,4.36,3.49,7,4s5.9-.73,6.65-3.36a19.2,19.2,0,0,0,9.93,2.36c3.43-.26,6.88-2.09,8.41-5.18a14.46,14.46,0,0,0,1.21-5.37,61.24,61.24,0,0,0-5.82-31.75c-2.32-4.72-5.45-9.25-10-12A31.88,31.88,0,0,0,172.17,73a133.51,133.51,0,0,0-21.75-2.46c-5.88-.22-11.85-.11-17.55,1.39a14.67,14.67,0,0,0-6,2.81,15.76,15.76,0,0,0-3.74,5.51,51.84,51.84,0,0,0-4.71,21.33,26.89,26.89,0,0,1-.48,7c-.77,2.81-2.64,5.19-3.7,7.9C111.49,123.52,114,133.17,123.08,132.59Z"/><g class="cls-7"><path class="cls-8" d="M135.72,78.88c-.67.82-1.6,1.4-2.33,2.17a3,3,0,0,0-1,2.88,2.58,2.58,0,0,0,2.39,1.6,5.83,5.83,0,0,0,2.9-.86,3.79,3.79,0,0,0,.63,2.93,2.56,2.56,0,0,0,2.79.36,7.52,7.52,0,0,0,2.31-1.86c.09,1.38.36,3,1.63,3.57a2.59,2.59,0,0,0,2.76-.76,7.58,7.58,0,0,0,1.44-2.65,3.93,3.93,0,0,0,7.06-.41A4.86,4.86,0,0,0,158.9,89c1.32.45,3.11-.64,2.79-2,1.58,2.07,4.5,2.46,7.11,2.53,2.92.08,6.19-.19,8.15-2.37a9.69,9.69,0,0,0,2-4.84c.65-3.51.67-7.55-1.75-10.19a9.47,9.47,0,0,0-6-2.7,35.55,35.55,0,0,0-6.68.17c-5,.36-10,.28-15,1s-9.94,2.14-13.86,5.26a39,39,0,0,0-3.57,3.35"/></g><ellipse class="cls-6" cx="154.2" cy="131.99" rx="78.69" ry="6.48"/><path class="cls-9" d="M136.26,126c.29,0,.66.09.7.37s-.18.4-.37.52a10,10,0,0,1-2.67,1.18l1.78.88a11.93,11.93,0,0,1-3.42,1.52,3.68,3.68,0,0,1,1.28.56,1.22,1.22,0,0,1,.47,1.25,1.68,1.68,0,0,1-.89.85,14.1,14.1,0,0,1-2.33,1,2,2,0,0,1,1,.65c-.36.89-1.42,1.23-2.36,1.46-3.1.76-6.45,1.5-9.4.28a2,2,0,0,1-.88-3.43,9.91,9.91,0,0,1,3.88-3.05c1.48-.7,3-1,3.93-2.39s1.64-1.41,3.3-1.52C132.29,126,134.28,126,136.26,126Z"/><path class="cls-9" d="M169,126c-.29,0-.66.09-.7.37s.18.4.36.52a10.18,10.18,0,0,0,2.68,1.18l-1.78.88A11.93,11.93,0,0,0,173,130.5a3.6,3.6,0,0,0-1.28.56,1.22,1.22,0,0,0-.47,1.25,1.68,1.68,0,0,0,.89.85,14,14,0,0,0,2.32,1,2,2,0,0,0-1,.65c.36.89,1.42,1.23,2.36,1.46,3.1.76,6.45,1.5,9.4.28a2,2,0,0,0,.88-3.43,9.91,9.91,0,0,0-3.88-3.05c-1.48-.7-3-1-3.93-2.39s-1.64-1.41-3.3-1.52C173,126,171,126,169,126Z"/><path class="cls-6" d="M138.68,125.81a4.32,4.32,0,0,1-.43-1.13.58.58,0,0,1,0-.43c.13-.19.42-.17.64-.11a13.34,13.34,0,0,1,3.56,1.4l-.74-1.83a.37.37,0,0,1,0-.27c.08-.14.29-.09.43,0a25.86,25.86,0,0,1,2.56,1.45,4.88,4.88,0,0,1-.07-1.27.29.29,0,0,1,.09-.21c.07-.06.18,0,.27,0a3.52,3.52,0,0,1,1.77,1.61l.4-1.16c.06-.18.16-.39.35-.4s.25.11.34.22a4.88,4.88,0,0,1,.95,1.87,4.17,4.17,0,0,1,1.67-1.58.59.59,0,0,1,.51-.07.52.52,0,0,1,.22.26,3.27,3.27,0,0,1,.4,1.57,4.31,4.31,0,0,1,2.41-1.21l.32.93a1.83,1.83,0,0,1,2.81-.14c-.1-.83.82-1.5,1.65-1.44a3.39,3.39,0,0,1,2.1,1.24A4.31,4.31,0,0,1,161,123a5.88,5.88,0,0,1,3,2,3,3,0,0,1,0-1.36,1.26,1.26,0,0,1,.95-.89,2.94,2.94,0,0,1,.21,2.23,2.34,2.34,0,0,1,2-1.33c.58,1.26-.34,2.79-1.58,3.41a9.09,9.09,0,0,1-4.09.57c-2.56,0-5.11.17-7.66.27a132.08,132.08,0,0,1-16.88-.42l0-.91"/><path class="cls-2" d="M236,132.16a4,4,0,0,0,1.89-.65c-2.62-6.39-9-10.14-15.27-13.27l-.75-.91,3.77-1.37a98,98,0,0,0-14.8-13.18c-.57-.81-1.15-1.63-1.72-2.46,1.15.21,2.57-.29,2.54-1.42a2.45,2.45,0,0,0-.47-1.19,49.59,49.59,0,0,0-12.49-13.3L197.23,82a4.12,4.12,0,0,1,2.55-1.4A154.11,154.11,0,0,0,189.5,69l-.38-.66c2.86,0,.95-4.53-2.73-4.91-2.34-4.27-3.68-7-3.69-7.15l-1.12-2.69L167,53.49v-.14l-15.3.07-15.3-.07v.14l-14.56.06-1.12,2.69c0,.2-1.35,2.88-3.69,7.15-3.68.38-5.59,5-2.73,4.91l-.38.66a154.11,154.11,0,0,0-10.28,11.68,4.15,4.15,0,0,1,2.55,1.4l-1.47,2.37a49.71,49.71,0,0,0-12.48,13.3,2.47,2.47,0,0,0-.48,1.19c0,1.13,1.4,1.63,2.54,1.42-.56.83-1.14,1.65-1.72,2.46A98.53,98.53,0,0,0,77.8,116l3.78,1.37-.75.91c-6.24,3.13-12.66,6.88-15.27,13.27a4,4,0,0,0,1.89.65,51.94,51.94,0,0,1-7.27,5.33s.66,3.11,8.63-2.08c0,0-1,6.92,8.65,1,0,0-.27,5.53,9.38.35,0,0,.31,4.49,8.6.69,0,0,.7,4.44,7.61,1.53,0,0,5.77,3.31,12.22-1.53,0,0,.57,5.19,10.26-.69,0,0,8.27-2.08,6-9.34,0,0,5-.61,2.05-7.57,0,0,1.56,0-.85-8,0,0,6.56-1,2.42-8,0,0,6.25-.5,1.23-7.86,0,0,4-1.28,0-7.78A4.83,4.83,0,0,0,138.87,83a4.28,4.28,0,0,0,2.1.31c1.57.75,3.55,1.33,4.91.42,2.59,3.09,5.1-.82,5.84-2.16.74,1.34,3.24,5.25,5.83,2.16,1.37.91,3.35.33,4.92-.42a4.3,4.3,0,0,0,2.1-.31A4.83,4.83,0,0,0,167,88.31c-4,6.5,0,7.78,0,7.78-5,7.36,1.23,7.86,1.23,7.86-4.14,6.92,2.42,8,2.42,8-2.41,8-.85,8-.85,8-2.91,7,2.05,7.57,2.05,7.57-2.24,7.26,6,9.34,6,9.34,9.68,5.88,10.26.69,10.26.69,6.45,4.84,12.22,1.53,12.22,1.53,6.91,2.91,7.6-1.53,7.6-1.53,8.3,3.8,8.61-.69,8.61-.69,9.65,5.18,9.37-.35,9.37-.35,9.68,5.88,8.66-1,8.66-1,8,5.19,8.63,2.08,8.63,2.08A51.94,51.94,0,0,1,236,132.16Z"/><g class="cls-10"><path class="cls-11" d="M66.77,126.59a5.1,5.1,0,0,0,.06,6.49A4.18,4.18,0,0,0,73,132.8a2.21,2.21,0,0,0,1.26,3,4.5,4.5,0,0,0,3.6-.44,37.06,37.06,0,0,1,3.29-1.76,2,2,0,0,0,1.29,2.14,4.89,4.89,0,0,0,2.71.06,22,22,0,0,0,6.47-2.33,2.06,2.06,0,0,0,1.14,2.34,5,5,0,0,0,2.77.36,20.82,20.82,0,0,0,6.58-1.61,1.88,1.88,0,0,0,1,2.37,4.87,4.87,0,0,0,2.81.22,25.6,25.6,0,0,0,8.92-3,1.49,1.49,0,0,0,.7,2,4.2,4.2,0,0,0,2.31.31,18.71,18.71,0,0,0,5.26-.89,10.76,10.76,0,0,0,6.7-11.49c-.09.94,1.27,1.48,2.08,1a3,3,0,0,0,1.1-2.5,11.12,11.12,0,0,1,.14-2.83c2.78.47,5.8,1.07,7.64,3.21,1.59,1.84,1.94,4.43,2.06,6.87a61.12,61.12,0,0,1-3.05,22.57,8.68,8.68,0,0,1-1.76,3.38,8.52,8.52,0,0,1-3.08,1.84c-12,4.78-25.34,3.84-38.24,4-6.79.07-13.59.47-20.37,0s-13.6-1.75-19.63-4.88a6.79,6.79,0,0,1-1.94-1.36,7.5,7.5,0,0,1-1.42-3.45c-.75-3.36-1.5-6.8-1.08-10.22.35-2.84,1.49-5.51,2.22-8.27.53-2,.88-4.07,2.11-5.69s3.74-2.52,5.34-1.26"/><path class="cls-11" d="M231.05,121.34a16.27,16.27,0,0,1,5.14,4.46c1.23,1.92,1.51,4.66,0,6.39s-4.92,1.45-5.57-.74c2,1.71-.22,5.34-2.85,5.44s-4.86-1.83-6.78-3.64c-.27,1.81-2.42,2.85-4.23,2.52a8.68,8.68,0,0,1-4.51-3c0,2.37-2.85,3.91-5.17,3.39s-4.08-2.33-5.7-4.07c-2.89,5-11.39,5-14.3,0-1.41,2.83-5.46,3.41-8.31,2s-4.78-4.08-6.58-6.69a7.55,7.55,0,0,1-13.08-2.24q-3.4,7.26-7.09,14.37a18.06,18.06,0,0,1-4.22,6c-2,1.62-4.53,2.33-7,3l-19.72,5.34c7.5,3.93,16,5.53,24.33,6.94q38,6.42,76.48,9.21c14.56,1.05,29.22,1.71,43.74.16s29-5.39,41.53-12.82c-6.47-10.5-12.95-21-20.57-30.73-2.37-3-5.19-6.17-9-6.77-2.2-.34-4.43.23-6.61.68a66.75,66.75,0,0,1-30.15-.67"/><path class="cls-11" d="M138.48,80.44a2.23,2.23,0,0,1-.12-.92c.13-.92,1.37-1.28,2.24-.92a6.82,6.82,0,0,1,2.1,1.81,2.82,2.82,0,0,0,2.46,1c.88-.2,1.41-1.06,2-1.77s1.41-1.41,2.26-1.11,1,1.13,1.67,1.56a2.8,2.8,0,0,0,2.69-.08,9,9,0,0,1,2.6-1.07A2.9,2.9,0,0,1,159,80.11c.36.49.7,1.18,1.32,1.17A1.29,1.29,0,0,0,161,81c1.18-.75,2.63-1.78,3.82-1a3.3,3.3,0,0,1,1.11,1.8L167.66,87a3.35,3.35,0,0,1,.23,2,2.3,2.3,0,0,1-1.84,1.38,10.26,10.26,0,0,1-2.41-.06c-5.24-.41-10.56,2.07-15.66.79-1.8-.45-5.59-.58-6.85-1.91C139.51,87.49,139.12,82.68,138.48,80.44Z"/><path class="cls-11" d="M114,52.1a47.76,47.76,0,0,0-2.63,5.38c-.51,1.23-1,2.66-.39,3.86a4.35,4.35,0,0,0,3.17,2,13.6,13.6,0,0,0,6.79-.32c-.7.62-.22,1.89.63,2.26a4.2,4.2,0,0,0,2.75-.1l3.57-1c-.6.43-.36,1.45.26,1.84a3,3,0,0,0,2.13.18,18.21,18.21,0,0,0,5-1.64c0,1.58,1.84,2.64,3.39,2.36a8,8,0,0,0,3.9-2.56,6.14,6.14,0,0,0,8.51.9,5.63,5.63,0,0,0,7.85-.1,1.13,1.13,0,0,1,.52-.4c.35-.07.66.23.92.48a5.66,5.66,0,0,0,8.23-.91,7.76,7.76,0,0,0,5.25,2.27,4.22,4.22,0,0,0,4.13-3.44,4.33,4.33,0,0,0,6.64-.74c1.68,1.64,4.48,1.64,6.57.56A13.32,13.32,0,0,0,196,58c1.29-2.08,2.41-4.75,1.24-6.91a7.17,7.17,0,0,0-3.63-2.79,59.19,59.19,0,0,0-13.39-4.14c-7-1.34-14.21-1.61-21.36-1.85-10.56-.35-21.18-.63-31.61,1-5.37.85-10.8,2.27-15.17,5.48"/></g><path class="cls-12" d="M178.36,58a251.61,251.61,0,0,0-26.5-1.22A251.61,251.61,0,0,0,125.36,58H115.27v2.71c0,2.17,16.38,3.92,36.59,3.92s36.59-1.75,36.59-3.92V58Z"/><path class="cls-3" d="M188.24,57.55h0a2.1,2.1,0,0,0-.55-.37L151.86,32.82,115.74,57.35l-.07,0h0a.79.79,0,0,0-.39.57c0,2.17,16.38,3.93,36.59,3.93s36.59-1.76,36.59-3.93A.61.61,0,0,0,188.24,57.55Z"/><g class="cls-13"><path class="cls-14" d="M113.18,55.9s1.8,4.78,38.54,4.78S192.61,55,192.61,55"/><path class="cls-14" d="M113.18,54.8s1.8,4.78,38.54,4.78,40.89-5.65,40.89-5.65"/></g><path class="cls-15" d="M75.64,122.6c-3,1.64-6,3.54-7.58,6.49a2.47,2.47,0,0,0-.4,1.43,1,1,0,0,0,1,.91,71.76,71.76,0,0,0,10.7-7.88l-1.88,3.17c.41.44,1.14.11,1.62-.26a23,23,0,0,0,6-6.88,41.38,41.38,0,0,0-4,2.42,8.56,8.56,0,0,0,.77-1.8c-.24-.91-.87-.37-1.55-.08A52.67,52.67,0,0,0,75.64,122.6Z"/><path class="cls-15" d="M81.13,131.08a7,7,0,0,0-1,2.88c1.45.18,2.74-.86,3.83-1.84a5,5,0,0,0-.57,2.95,11.14,11.14,0,0,0,4-4,78,78,0,0,0,4.47-7.39c-2.59,1.89-4.06,5.19-7,6.55.32-.15,1-3.39,1.16-3.92.35-.9,1.14-2,1.18-2.93C84.4,123.27,82.13,129.14,81.13,131.08Z"/><path class="cls-15" d="M91.64,134.54c2,0,3.67-1.56,5.1-3l4.65-4.65a35.55,35.55,0,0,0-2,6.13c-.13.51-.16,1.2.32,1.42a1.19,1.19,0,0,0,1.09-.28,28.78,28.78,0,0,0,5.61-4.9,15.42,15.42,0,0,0-.55,3.94,1,1,0,0,0,.2.73c.28.27.72.13,1.07,0a16.64,16.64,0,0,0,6.26-5,20.61,20.61,0,0,0-.14,2.94,1.78,1.78,0,0,0,.46,1.39c.59.48,1.47.06,2.08-.4a16.22,16.22,0,0,0,3.37-3.5,19.53,19.53,0,0,0-.66,3.57,1.58,1.58,0,0,0,.11.94c.32.57,1.14.57,1.78.43a11.26,11.26,0,0,0,8.41-8.17.89.89,0,0,0-.1-.87c-.3-.3-.81-.06-1.15.2-2.05,1.59-3.75,3.8-6.23,4.56l-.5-4c0-.4-.18-.9-.58-1a1,1,0,0,0-.7.27,27.59,27.59,0,0,0-3.64,3.27,16,16,0,0,1-1.76-4l-5.18,4.4c-.23.19-.52.4-.81.3a.76.76,0,0,1-.4-.41,6.94,6.94,0,0,1-.83-2.47c0-.27-.08-.59-.33-.71s-.62.08-.86.31l-3.34,3.1-.07-4.73a28.69,28.69,0,0,0-6.15,3.87c.34-.28.52-2.19.67-2.66.3-.9.73-1.76,1-2.64-1.46.66-2.72,3.89-3.46,5.31A48.06,48.06,0,0,0,91.64,134.54Z"/><path class="cls-15" d="M83.78,114.49a1.45,1.45,0,0,0-.2.67c0,.64.81.93,1.46,1,2.74.13,5.22-1.49,7.48-3a6.56,6.56,0,0,0-1.07,3.8,1.19,1.19,0,0,0,.32.9,1.23,1.23,0,0,0,1.21,0,12.32,12.32,0,0,0,5.33-3.62,7.41,7.41,0,0,0-.44,3,1.41,1.41,0,0,0,.25.86c.46.53,1.32.22,1.9-.17a12.33,12.33,0,0,0,5.37-10,29.74,29.74,0,0,0-4.4,5.42c.05-1.07-.25-2.54-1.33-2.53a2,2,0,0,0-1.11.5l-3.9,2.85.34-4-5.54,2.58a17.4,17.4,0,0,0,1-2.61A12.51,12.51,0,0,1,92,107.75c.36-.42,1.9-1.51,1.76-2.06-.25-.93-1.59.13-2,.39A20.48,20.48,0,0,0,83.78,114.49Z"/><path class="cls-15" d="M107.55,117c-.07.65-.06,1.46.52,1.77a1.39,1.39,0,0,0,.83.11c1.55-.19,2.79-1.34,3.9-2.44a7.55,7.55,0,0,0-.07,2.76,2.57,2.57,0,0,0,1.74,2c1.2.28,2.35-.66,3.1-1.64s1.43-2.15,2.58-2.61a5.81,5.81,0,0,0,.94,3.13,3.14,3.14,0,0,0,2.85,1.38,2.18,2.18,0,0,0,1.91-2.29c.36,1.39,1,3,2.39,3.3a2.57,2.57,0,0,0,2.63-1.59,6.32,6.32,0,0,0,.32-3.26,26.07,26.07,0,0,0-1.38-6.15,3.07,3.07,0,0,0-1.7,2.83,12.94,12.94,0,0,1-.33,3.47l-1.63-2.27a1.13,1.13,0,0,0-.56-.5c-.5-.14-.9.43-1.12.9l-1.28,2.72L120,113.24c-.12-.21-.28-.44-.51-.47s-.54.24-.71.48l-2.69,3.93-.93-5a9.65,9.65,0,0,0-4.07,3c-.15.19-.33.41-.58.42s-.49-.28-.63-.54c-.59-1.15-.36-3.31-1.14-4.14A30.84,30.84,0,0,0,107.55,117Z"/><path class="cls-15" d="M97.17,97.54A2.09,2.09,0,0,0,97,99.71a1.89,1.89,0,0,0,.76.51,4.63,4.63,0,0,0,4.81-1,6.09,6.09,0,0,0-.51,2.28,2.12,2.12,0,0,0,1.14,1.92,2.79,2.79,0,0,0,1.52.08,10.8,10.8,0,0,0,4.36-1.76c.51,1.09.15,2.45.7,3.53a3,3,0,0,0,2.58,1.44,6,6,0,0,0,2.94-.88,13.13,13.13,0,0,0,5.24-5.36,7.94,7.94,0,0,0,.15,3.15,2.7,2.7,0,0,0,2.24,2c1.23.07,2.21-1,3-1.94.81,1.65,2.34,3.38,4.14,3s2.57-2.67,2.89-4.56c.29.75,1.52.63,2,0a3.12,3.12,0,0,0,.17-2.35,26.34,26.34,0,0,0-2.27-6.51c-1.93,2-.57,5.7-2.34,7.86l-1.41-1.91a5.1,5.1,0,0,0-1.61,3.72,4.48,4.48,0,0,0-2.3-2.87c-.53.74-1.1,1.46-1.69,2.15a28.69,28.69,0,0,0-1.18-3.72,1.74,1.74,0,0,0-.44-.74,1.29,1.29,0,0,0-1.48,0,4.94,4.94,0,0,0-1.08,1.15,12.48,12.48,0,0,1-4.65,3.68c-.48.23-1.11.4-1.51,0a1.36,1.36,0,0,1-.34-.7,11.09,11.09,0,0,1-.34-3.44c0-.7-.08-1.67-.77-1.69a1.1,1.1,0,0,0-.55.16l-5.09,2.36-.45-4.38c0-.4-.17-.91-.57-1a1,1,0,0,0-.59.16,19.82,19.82,0,0,0-1.7,1c.56-2.49,2.32-4.41,4-6.25.68-.74,4.26-4.42,1-3.46-2,.6-4.39,3.81-5.8,5.35A29.39,29.39,0,0,0,97.17,97.54Z"/><path class="cls-15" d="M109.23,79.69a4.33,4.33,0,0,0-.55,2,1.71,1.71,0,0,0,1.06,1.62,2.4,2.4,0,0,0,1.1,0,17.53,17.53,0,0,0,6.86-2.63,26.19,26.19,0,0,0-1.32,6.13,2.44,2.44,0,0,0,.41,1.93c.71.73,1.95.35,2.82-.17a14.63,14.63,0,0,0,5.27-5.44,9.25,9.25,0,0,0,.58,4.41c.66,1.35,2.24,2.37,3.65,1.87,1.72-.6,2.1-2.81,3.23-4.24a4.45,4.45,0,0,0,.4,1.67,1.49,1.49,0,0,0,1.4.84,1.75,1.75,0,0,0,1-.51,7.92,7.92,0,0,0,2.12-5.28,20.7,20.7,0,0,0-.16-4.85c-1.93,1.76-1.59,5-3.31,7L132,81.34c-.13-.2-.3-.43-.54-.44s-.45.25-.58.47l-2.7,4.37a6,6,0,0,1-1.26-3.08c-.12-1.18-.1-2.73-1.23-3.1a1.76,1.76,0,0,0-1.72.58,10.19,10.19,0,0,0-1.07,1.58,7.37,7.37,0,0,1-3.27,2.75l-.12-6c0-.62-.12-1.38-.7-1.6a1.58,1.58,0,0,0-1.22.23l-5.13,2.55c.13-.07.51-2.84.65-3.21.38-1,1-1.9,1.47-2.85C112.73,72.74,109.86,78.38,109.23,79.69Z"/><path class="cls-15" d="M227.93,122.6c2.95,1.64,5.95,3.54,7.58,6.49a2.39,2.39,0,0,1,.4,1.43,1,1,0,0,1-1,.91,71.76,71.76,0,0,1-10.7-7.88l1.88,3.17c-.41.44-1.14.11-1.62-.26a23,23,0,0,1-6-6.88,41.38,41.38,0,0,1,4,2.42,9.12,9.12,0,0,1-.77-1.8c.24-.91.88-.37,1.55-.08A51.33,51.33,0,0,1,227.93,122.6Z"/><path class="cls-15" d="M222.44,131.08a7,7,0,0,1,1,2.88c-1.45.18-2.74-.86-3.83-1.84a5,5,0,0,1,.58,2.95,11.09,11.09,0,0,1-4-4,80.15,80.15,0,0,1-4.47-7.39c2.59,1.89,4.07,5.19,7,6.55-.32-.15-1-3.39-1.16-3.92-.35-.9-1.13-2-1.17-2.93C219.17,123.27,221.44,129.14,222.44,131.08Z"/><path class="cls-15" d="M211.93,134.54c-2,0-3.67-1.56-5.1-3l-4.65-4.65a35.59,35.59,0,0,1,2,6.13c.12.51.15,1.2-.33,1.42a1.2,1.2,0,0,1-1.09-.28,28.78,28.78,0,0,1-5.61-4.9,15.42,15.42,0,0,1,.55,3.94.93.93,0,0,1-.2.73c-.28.27-.72.13-1.07,0a16.64,16.64,0,0,1-6.26-5,20.61,20.61,0,0,1,.14,2.94,1.81,1.81,0,0,1-.45,1.39c-.6.48-1.48.06-2.09-.4a15.94,15.94,0,0,1-3.36-3.5,20.4,20.4,0,0,1,.65,3.57,1.58,1.58,0,0,1-.11.94c-.32.57-1.14.57-1.78.43a11.27,11.27,0,0,1-8.41-8.17.91.91,0,0,1,.1-.87c.3-.3.81-.06,1.15.2,2.05,1.59,3.75,3.8,6.23,4.56l.5-4c.05-.4.18-.9.58-1a1,1,0,0,1,.7.27,28.32,28.32,0,0,1,3.65,3.27,16.34,16.34,0,0,0,1.75-4l5.18,4.4c.23.19.52.4.81.3a.82.82,0,0,0,.41-.41,6.93,6.93,0,0,0,.82-2.47c0-.27.08-.59.33-.71s.62.08.86.31l3.34,3.1.07-4.73a29,29,0,0,1,6.16,3.87c-.35-.28-.52-2.19-.68-2.66-.3-.9-.73-1.76-1-2.64,1.46.66,2.72,3.89,3.47,5.31A49.36,49.36,0,0,1,211.93,134.54Z"/><path class="cls-15" d="M219.79,114.49a1.45,1.45,0,0,1,.2.67c0,.64-.81.93-1.45,1-2.74.13-5.23-1.49-7.49-3a6.49,6.49,0,0,1,1.07,3.8,1.15,1.15,0,0,1-.32.9,1.23,1.23,0,0,1-1.21,0,12.44,12.44,0,0,1-5.33-3.62,7.41,7.41,0,0,1,.45,3,1.41,1.41,0,0,1-.26.86c-.45.53-1.32.22-1.9-.17a12.33,12.33,0,0,1-5.37-10,29.33,29.33,0,0,1,4.4,5.42c-.05-1.07.26-2.54,1.33-2.53a2,2,0,0,1,1.11.5l3.9,2.85-.34-4,5.54,2.58a16.41,16.41,0,0,1-1-2.61,13.08,13.08,0,0,0-1.56-2.32c-.36-.42-1.9-1.51-1.75-2.06.24-.93,1.58.13,2,.39A20.48,20.48,0,0,1,219.79,114.49Z"/><path class="cls-15" d="M196,117c.07.65.06,1.46-.51,1.77a1.41,1.41,0,0,1-.84.11c-1.55-.19-2.78-1.34-3.9-2.44a7.55,7.55,0,0,1,.07,2.76,2.56,2.56,0,0,1-1.74,2c-1.2.28-2.35-.66-3.1-1.64s-1.43-2.15-2.58-2.61a5.72,5.72,0,0,1-.94,3.13,3.14,3.14,0,0,1-2.85,1.38,2.18,2.18,0,0,1-1.91-2.29c-.36,1.39-1,3-2.39,3.3a2.57,2.57,0,0,1-2.63-1.59,6.53,6.53,0,0,1-.32-3.26,26.07,26.07,0,0,1,1.38-6.15,3.07,3.07,0,0,1,1.7,2.83,12.94,12.94,0,0,0,.33,3.47l1.63-2.27a1.13,1.13,0,0,1,.56-.5c.5-.14.9.43,1.12.9l1.28,2.72,3.22-5.37c.12-.21.28-.44.52-.47s.53.24.7.48l2.69,3.93.93-5a9.65,9.65,0,0,1,4.07,3c.15.19.33.41.58.42s.5-.28.63-.54c.6-1.15.37-3.31,1.14-4.14A30.84,30.84,0,0,1,196,117Z"/><path class="cls-15" d="M206.41,97.54a2.11,2.11,0,0,1,.16,2.17,1.89,1.89,0,0,1-.76.51,4.61,4.61,0,0,1-4.8-1,6.28,6.28,0,0,1,.5,2.28,2.11,2.11,0,0,1-1.13,1.92,2.8,2.8,0,0,1-1.52.08,10.78,10.78,0,0,1-4.37-1.76c-.51,1.09-.15,2.45-.7,3.53a3,3,0,0,1-2.58,1.44,6.07,6.07,0,0,1-2.94-.88A13.13,13.13,0,0,1,183,100.5a7.94,7.94,0,0,1-.15,3.15,2.7,2.7,0,0,1-2.23,2c-1.24.07-2.22-1-3-1.94-.81,1.65-2.34,3.38-4.14,3s-2.57-2.67-2.89-4.56c-.29.75-1.52.63-2,0a3.16,3.16,0,0,1-.17-2.35,26.34,26.34,0,0,1,2.27-6.51c1.93,2,.57,5.7,2.34,7.86l1.41-1.91a5.15,5.15,0,0,1,1.62,3.72,4.45,4.45,0,0,1,2.3-2.87c.52.74,1.09,1.46,1.68,2.15a28.69,28.69,0,0,1,1.18-3.72,1.74,1.74,0,0,1,.44-.74,1.29,1.29,0,0,1,1.48,0,4.94,4.94,0,0,1,1.08,1.15,12.56,12.56,0,0,0,4.65,3.68c.48.23,1.12.4,1.51,0a1.28,1.28,0,0,0,.34-.7,11.09,11.09,0,0,0,.34-3.44c0-.7.08-1.67.77-1.69a1.13,1.13,0,0,1,.56.16l5.09,2.36.44-4.38c0-.4.17-.91.58-1a1,1,0,0,1,.58.16,18.39,18.39,0,0,1,1.7,1c-.56-2.49-2.32-4.41-4-6.25-.67-.74-4.25-4.42-1-3.46,2.05.6,4.39,3.81,5.8,5.35A29.74,29.74,0,0,1,206.41,97.54Z"/><path class="cls-15" d="M194.34,79.69a4.33,4.33,0,0,1,.55,2,1.71,1.71,0,0,1-1.06,1.62,2.4,2.4,0,0,1-1.1,0,17.53,17.53,0,0,1-6.86-2.63,26.19,26.19,0,0,1,1.32,6.13,2.4,2.4,0,0,1-.41,1.93c-.71.73-1.95.35-2.82-.17a14.63,14.63,0,0,1-5.27-5.44,9.25,9.25,0,0,1-.58,4.41,3.18,3.18,0,0,1-3.65,1.87c-1.71-.6-2.1-2.81-3.23-4.24a4.45,4.45,0,0,1-.4,1.67,1.49,1.49,0,0,1-1.4.84,1.75,1.75,0,0,1-1-.51,7.86,7.86,0,0,1-2.11-5.28,20.7,20.7,0,0,1,.15-4.85c1.94,1.76,1.59,5,3.31,7l1.74-2.7c.13-.2.3-.43.54-.44s.45.25.59.47l2.69,4.37a6,6,0,0,0,1.26-3.08c.12-1.18.1-2.73,1.23-3.1a1.76,1.76,0,0,1,1.72.58,9.53,9.53,0,0,1,1.07,1.58,7.42,7.42,0,0,0,3.27,2.75l.13-6c0-.62.11-1.38.69-1.6a1.58,1.58,0,0,1,1.22.23l5.13,2.55c-.13-.07-.51-2.84-.65-3.21-.37-1-1-1.9-1.47-2.85C190.84,72.74,193.71,78.38,194.34,79.69Z"/><path class="cls-15" d="M117.76,68.35c-.19.35-.35.83-.06,1.11a.85.85,0,0,0,.62.19,5.29,5.29,0,0,0,3-.83,7.7,7.7,0,0,0-1.19,3.93,2,2,0,0,0,.33,1.35,2.22,2.22,0,0,0,2.27.35,15.15,15.15,0,0,0,6.14-3.23,5.82,5.82,0,0,0-.16,2.38,2,2,0,0,0,1.56,1.63,2.64,2.64,0,0,0,1.26-.25,14.83,14.83,0,0,0,4.73-3,3.69,3.69,0,0,0,7.25.39A5.87,5.87,0,0,0,148.65,76a4.31,4.31,0,0,0,4.29-4.17A10.45,10.45,0,0,0,157.5,75a5,5,0,0,0,3.72.13,2.6,2.6,0,0,0,1.53-3.11,9.84,9.84,0,0,0,5.1,2.82,5.69,5.69,0,0,0,3.82-.35,3.13,3.13,0,0,0,1.72-3.23c1.34,1.7,3.54,2.47,5.66,2.9a5.79,5.79,0,0,0,3.86-.21c1.16-.62,1.82-2.3,1-3.31A6.15,6.15,0,0,0,186.62,72a2.1,2.1,0,0,0,2.33-1.5,2.49,2.49,0,0,0-.27-1.36,6.39,6.39,0,0,0-2.88-3l.93,2.45a1.46,1.46,0,0,1,.14.65c-.09.77-1.24.82-1.92.43s-1.39-1-2.14-.77c-1.46.43-.92,3.23-2.39,3.6a2,2,0,0,1-1-.1,22.74,22.74,0,0,1-5.6-2.45c-.87-.53-1.94-1.13-2.84-.66s-1,2-1.73,2.86c-.87,1-2.51.92-3.71.34s-2.22-1.52-3.45-2-2.92-.39-3.6.76c-.35.6-.47,1.47-1.15,1.63a1.22,1.22,0,0,1-.79-.12c-1.19-.51-2.07-1.57-3.21-2.19s-2.89-.57-3.39.64a6.59,6.59,0,0,1-.39,1.26,1.58,1.58,0,0,1-2.18.14,12.19,12.19,0,0,1-1.64-1.79,2.07,2.07,0,0,0-2.16-.74c-1,.43-1.56,2.19-2.64,1.88a1.7,1.7,0,0,1-.75-.58l-1.3-1.47a2.9,2.9,0,0,0-1.13-.9c-1.12-.4-2.18.61-3.05,1.42s-2.36,1.44-3.11.52-.12-2-.67-2.83a23.28,23.28,0,0,1-4.42,2.64,2,2,0,0,1-1.75.19,1.74,1.74,0,0,1-.53-2,5.12,5.12,0,0,0,.38-2.12,12.84,12.84,0,0,0-3.69.61c.2-.92,1.45-3.4-.5-2.11A8.67,8.67,0,0,0,117.76,68.35Z"/><path class="cls-4" d="M189.22,55.81c-.9-1.52-1.83-3-2.81-4.47l1.31.35a7.4,7.4,0,0,0-3.32-2.84L175.51,44l1.19-.12c.15-.6-.5-1.07-1-1.34a212,212,0,0,0-21.33-9.4c-2.71-1-4-.34-6,1-2,.17-10.79,5.31-12.16,6l1.07.47c.11.48-.45.81-.9,1l-9.85,3.67a1.58,1.58,0,0,0-.63.36c-.46.52,0,1.22.52,1.73l-1.49.8q-4.44,2.32-9,4.47a16.57,16.57,0,0,0-4.18,2.47,7.3,7.3,0,0,0,3.8.56L114.87,57a5.16,5.16,0,0,0,4-.47c0,.77-.07,1.54-.1,2.31a11.53,11.53,0,0,0,5.28-.89c-.39,1.09.82,2.21,2,2.21a5.52,5.52,0,0,0,3.1-1.44,1.88,1.88,0,0,0,2,1.87,3.94,3.94,0,0,0,2.66-1.45,2.8,2.8,0,0,0,5.54-.16,7.62,7.62,0,0,0,3.76,2.56c1.51.3,3.36-.67,3.38-2.21A11.49,11.49,0,0,0,151,61.72c1.68.3,3.66-.35,4.33-1.93a9.3,9.3,0,0,0,4.31,1.85c1.58.09,3.34-1,3.46-2.53A11.55,11.55,0,0,0,168.88,61c1.29.06,3-.58,2.81-1.85a9,9,0,0,0,3.81,1.34,3.08,3.08,0,0,0,3.16-2,6.56,6.56,0,0,0,3.58,1.37c1.29,0,2.62-1.25,2.28-2.5a7.69,7.69,0,0,0,3.84,1.12,1.64,1.64,0,0,0,1-.21C190.05,57.7,189.67,56.57,189.22,55.81Z"/><g class="cls-16"><path class="cls-17" d="M116,51.61a1.87,1.87,0,0,0-1.49,2.56,1.83,1.83,0,0,0,2.92.34c-.45.8.32,1.85,1.23,2a4.5,4.5,0,0,0,2.65-.6c-.28.77.55,1.58,1.37,1.61a4,4,0,0,0,2.25-.92,2.38,2.38,0,0,0,4.13.75,2.74,2.74,0,0,0,4.4.51,2.41,2.41,0,0,0,4.12.07,3.45,3.45,0,0,0,5.54-.07c0,1.27,1.57,2.07,2.82,1.82a6.44,6.44,0,0,0,3.12-2.1c1.41,2.33,5.49,2.17,6.72-.27a3.46,3.46,0,0,0,5.09,0,5.09,5.09,0,0,0,7.36-.65,3.51,3.51,0,0,0,6.35-.77,2.9,2.9,0,0,0,4.81,0,3.34,3.34,0,0,0,5.35-.71,4,4,0,0,0,6.22-1.17c.27-.64.63-1.52,1.31-1.36a1.24,1.24,0,0,1,.56.39l6.39,6.5a17.66,17.66,0,0,1,3.43,4.33,5.88,5.88,0,0,1,.15,5.32c-1.3,2.34-4.33,2.94-7,3.27a359.64,359.64,0,0,1-84.62.48,1.58,1.58,0,0,1-.8-.23,1.63,1.63,0,0,1-.5-1c-1.27-6-2.33-12.24-.61-18.09a2.59,2.59,0,0,0,1.81-.7"/></g><path class="cls-18" d="M119.73,52.44c-.51.25-1.12.73-.9,1.26.16.37.64.47,1,.49a14.74,14.74,0,0,0,4.95-.52c-.7.41-.3,1.62.46,1.88a3.06,3.06,0,0,0,2.33-.45,3.55,3.55,0,0,1,2.32-.55,1.58,1.58,0,0,0,.65,2.33,3.91,3.91,0,0,0,2.76,0,17.21,17.21,0,0,0,3.6-1.43c-.29,1.21,1.28,2.17,2.47,1.82a5.33,5.33,0,0,0,2.65-2.49,6.78,6.78,0,0,0,4.09,2.43c1.61.13,3.39-1.27,3.07-2.85a8.49,8.49,0,0,0,4,2.23c1.55.22,3.37-.78,3.43-2.34,1.42,1,3,2.11,4.74,2.1s3.58-1.7,3-3.36a12.64,12.64,0,0,0,5.25,2.56,4.12,4.12,0,0,0,2.9-.17,1.81,1.81,0,0,0,.74-2.51,23.23,23.23,0,0,0,5.5,2.47c1.17.35,2.85.33,3.12-.86a2.42,2.42,0,0,0-.61-1.79,12.8,12.8,0,0,0,3.48,1.9,1.36,1.36,0,0,0,1,.09,1,1,0,0,0,.45-1.31,2.82,2.82,0,0,0-1-1.14,35.32,35.32,0,0,0-6.13-3.63,3.16,3.16,0,0,0,1.14,2.66l-1.62-.47a7.9,7.9,0,0,0,.06,3.14l-4.09-2.33c-.77-.44-1.82-.85-2.45-.23a4.56,4.56,0,0,0-.61,1.13,2.5,2.5,0,0,1-2.74.93A8.4,8.4,0,0,1,166,52a2.74,2.74,0,0,0-2.52-.64c-.91.4-1.16,1.61-2,2.2-1.24.92-3-.05-4.17-1a2,2,0,0,0-1.47-.6c-.76.14-1.08,1-1.72,1.47-.94.6-2.15,0-3.06-.65s-2-1.33-3-.87c-1.18.55-1.44,2.4-2.7,2.68a2.18,2.18,0,0,1-2.08-1.16c-.33-.49-.65-1.1-1.24-1.2a1.48,1.48,0,0,0-.8.12,4.6,4.6,0,0,0-1.82,1.23c-.23.26-.49.57-.84.55-.56-.05-.63-.85-1-1.32a1.66,1.66,0,0,0-2.1-.23c-.68.37-1.21,1-1.89,1.31a1.61,1.61,0,0,1-2.08-.28c-.36-.55-.22-1.44-.8-1.74a1.19,1.19,0,0,0-.83,0c-.84.26-1.56.83-2.41,1.06a1.83,1.83,0,0,1-2-.62c-.35-.62.53-1.68.16-2.11C125.17,49.54,120.54,52.06,119.73,52.44Z"/><path class="cls-18" d="M130.24,45.67c-.68.38-1.42,1.21-.92,1.8a1.31,1.31,0,0,0,.92.34,8.93,8.93,0,0,0,3.55-.51l0,1.67a.65.65,0,0,0,.15.51.61.61,0,0,0,.59,0,10.89,10.89,0,0,0,3.77-2.08c-.11,1.54,1.59,2.75,3.13,2.61a5.91,5.91,0,0,0,3.81-2.42,8.32,8.32,0,0,0,5.35,2.13,4.35,4.35,0,0,0,4.24-3.36,5.27,5.27,0,0,0,3.58,2.76A3.13,3.13,0,0,0,162,46.87a8.77,8.77,0,0,0,4,1.59,2.66,2.66,0,0,0,2-.35,1.17,1.17,0,0,0,.16-1.79A8,8,0,0,0,173.92,48a1.3,1.3,0,0,0,.64-.2c.73-.51.07-1.64-.64-2.17a14.7,14.7,0,0,0-3.41-1.93,3.62,3.62,0,0,0,.79,2.16c-.71.41-1.58-.16-2.23-.67s-1.61-1-2.23-.43-.57,2-1.45,2a1.28,1.28,0,0,1-.59-.24l-2.68-1.68a1.19,1.19,0,0,0-.68-.25c-.55,0-.75.72-1.06,1.17a2.23,2.23,0,0,1-2.44.71,5.22,5.22,0,0,1-2.19-1.54,2.87,2.87,0,0,0-.81-.67,2.09,2.09,0,0,0-2.18.63A9.59,9.59,0,0,1,151,46.5c-1.38.75-3.14,0-4.23-1.09-.35-.36-.72-.79-1.22-.82a1.36,1.36,0,0,0-.65.14,19.84,19.84,0,0,0-2.64,2c-.92.61-2.38.75-2.95-.2a5.13,5.13,0,0,0-.5-1c-.56-.59-1.55-.15-2.17.37s-1.41,1.15-2.15.82c-1.94-.85.63-2.54.94-3.17A16.55,16.55,0,0,0,130.24,45.67Z"/><path class="cls-18" d="M140.13,40.24c1.91.32,3.8-.49,5.57-1.28l-.85,2a14.3,14.3,0,0,0,5.55-3.1,4.52,4.52,0,0,0,1,2.6,3.61,3.61,0,0,0,.77-3.14A6.44,6.44,0,0,0,154.58,39a1.25,1.25,0,0,0,.6.13,1,1,0,0,0,.67-1.18,2.82,2.82,0,0,0-.86-1.25,32.22,32.22,0,0,0,8,3.8c.47-.61-.11-1.47-.7-2a18,18,0,0,0-9.37-4.28,1.85,1.85,0,0,0,.29,1.48c-.66-.75-1.58-1.42-2.34-1.17a13.28,13.28,0,0,0-1,.91,14.18,14.18,0,0,1-1.89.89Q144,38.23,140.13,40.24Z"/></g></svg>