<svg id="Layer_1" data-name="Layer 1" xmlns="http://www.w3.org/2000/svg" xmlns:xlink="http://www.w3.org/1999/xlink" width="450" height="600" viewBox="0 0 450 600">
  <defs>
    <style>
      .cls-1 {
        fill: none;
      }

      .cls-2 {
        clip-path: url(#clip-path);
      }

      .cls-3 {
        fill: #f9bc26;
      }

      .cls-4 {
        fill: #fbdb55;
      }

      .cls-5 {
        fill: #90684e;
      }

      .cls-6 {
        fill: #fbdc50;
      }

      .cls-7 {
        fill: #fcdc53;
      }

      .cls-8 {
        clip-path: url(#clip-path-2);
      }

      .cls-9 {
        fill: #ffffbf;
      }

      .cls-10 {
        fill: #7c2e18;
      }

      .cls-11 {
        fill: #fff;
      }

      .cls-12 {
        fill: #231f20;
      }

      .cls-13 {
        fill: #cf8a00;
      }
    </style>
    <clipPath id="clip-path">
      <rect class="cls-1" x="544" width="450" height="600"/>
    </clipPath>
    <clipPath id="clip-path-2">
      <rect class="cls-1" width="450" height="600"/>
    </clipPath>
  </defs>
  <title>9_giraffe_stand_up</title>
  <g class="cls-2">
    <g>
      <path class="cls-3" d="M324.2,596.49,227.71,710.57a21.66,21.66,0,0,1-15,7.62h0a21.66,21.66,0,0,1-23.16-21l0-.57a21.66,21.66,0,0,1,6.93-16.49L305.31,579.2S324.85,597.13,324.2,596.49Z"/>
      <path class="cls-4" d="M334.94,609.08l-78,127.44a21.66,21.66,0,0,1-13.7,9.82h0a21.66,21.66,0,0,1-26.08-17.23l-.1-.56a21.66,21.66,0,0,1,4.34-17.35l92.26-116.33S335.69,609.61,334.94,609.08Z"/>
      <g>
        <g>
          <path class="cls-5" d="M392.62,421.54s7-30.87-5.39-40.87c-5.85-.95,3.73,19-1.29,15.39s-8.46-17-13.3-11.75,9.4,11.12,9.29,14.3-15-10.83-18.66-5.82S385.77,414.44,392.62,421.54Z"/>
          <path class="cls-6" d="M404.37,462.64S404.29,431,394.08,415l-8.63,1.41s4,39.84-2.55,50.38Z"/>
        </g>
        <path class="cls-7" d="M732.7,349.7S607.14,484,544.28,571.25,461.68,701.9,420.45,681.81s-19.27-29.25-96.82-73.59c-51-25.21-28.77-53.38,2-90.76s45.76-68.84,88.3-61.24c17.43,3.11,39.18,19.08,56.76,33.21,23.71,19,43.32,44.2,55.85,34.47,21.81-16.94,166.05-201.16,206.53-220S768.33,321.58,732.7,349.7Z"/>
        <g>
          <path class="cls-3" d="M406.46,526.48c9.85-1,29.91,12.61,39.14,17.65,8.74,4.77,23.06,13.37,12.32,24-4.36,4.32-11.82,3.54-16.78,7.16-2.73,2-4.52,5.22-7.57,6.68a11.76,11.76,0,0,1-6.2.81c-11.31-1.09-20.05-10.32-26.27-19.83-4.06-6.21-7.64-13.2-7.43-20.63S399.07,527.21,406.46,526.48Z"/>
          <path class="cls-3" d="M363.66,621.1c3.08,2.71,5.18,6.47,8.87,3,2-1.82,2.61-5.85,3.22-8.34,1.44-5.83,1.34-12.73-4.09-16.61s-13.12-2.23-18.35-6.09c-3.64-2.69-5.35-7.55-9.27-9.81-5.66-3.27-14,2.11-13.39,8.61.54,5.64,6,9.3,10.74,12.36A186.66,186.66,0,0,1,363.66,621.1Z"/>
          <path class="cls-3" d="M357.44,496.08a49.27,49.27,0,0,0-3.06,5.65c-1.26,2.91-1.75,6.77.65,8.84,2.77,2.39,7.1.57,9.9-1.77a65.46,65.46,0,0,0,8.71-9.47l14.05-17.47c1.28-1.59,2.61-3.29,2.91-5.3a7.85,7.85,0,0,0-2.57-6.51c-4.5-4.43-9.54-3.46-14.12.56-2.78,2.44-4.81,5.59-6.8,8.7C363.68,484.68,360.74,490.57,357.44,496.08Z"/>
        </g>
      </g>
    </g>
  </g>
  <g class="cls-8">
    <g>
      <g>
        <g>
          <circle class="cls-5" cx="81.62" cy="417.59" r="22.95" transform="translate(-304.91 239.72) rotate(-54.23)"/>
          <circle class="cls-5" cx="55.85" cy="445.81" r="22.95" transform="translate(-338.51 230.54) rotate(-54.23)"/>
          <circle class="cls-5" cx="30.08" cy="474.03" r="22.95" transform="translate(-372.12 221.35) rotate(-54.23)"/>
          <circle class="cls-5" cx="4.31" cy="502.26" r="22.95" transform="translate(-405.73 212.17) rotate(-54.23)"/>
          <circle class="cls-5" cx="-21.47" cy="530.48" r="22.95" transform="translate(-439.33 202.98) rotate(-54.23)"/>
        </g>
        <g>
          <path class="cls-7" d="M111.7,434.7S-13.86,569-76.72,656.25s-82.6,130.66-123.83,110.56-19.27-29.25-96.82-73.59c-51-25.21-28.77-53.38,2-90.76s45.76-68.84,88.3-61.24c17.43,3.11,39.18,19.08,56.76,33.21,23.71,19,43.32,44.2,55.85,34.47,21.81-16.94,166.05-201.16,206.53-220S147.33,406.58,111.7,434.7Z"/>
          <g>
            <path class="cls-3" d="M65.12,448.37c3-6.31,8.77-17.38,16.37-19.31,5.34-1.36,10.74.61,9.27,7.72-1.44,6.95-11.37,15.46-15.63,20.91-1.88,2.41-4.32,5.07-7.36,4.74-2.79-.3-4.71-3.22-4.86-6S63.92,450.91,65.12,448.37Z"/>
            <path class="cls-3" d="M-12.17,557.28l-17.52,22.78c-1.23,1.6-2.53,3.51-2,5.47.6,2.41,3.74,3.39,6.09,2.58s4-2.81,5.62-4.72c8.71-10.59,18.32-20.88,26.34-32,.74-1,1.48-2.31,1-3.48-.57-1.36-2.39-1.58-3.87-1.48A31.59,31.59,0,0,0-.39,547a7.35,7.35,0,0,0-2.25.71A8.31,8.31,0,0,0-4.27,549C-7.1,551.69-9.84,554-12.17,557.28Z"/>
            <path class="cls-3" d="M4.59,510.73c-.16-4,2.67-13.86,5.29-16.83,1.72-1.94,4.79-3,7-1.55a9.37,9.37,0,0,0,1.57,1c1.54.6,3.13-.63,4.75-1a5,5,0,0,1,5.41,3.35c2,6-4.27,6.63-7.82,8.72-2.64,1.55-3.84,4.64-5.46,7.24s-4.57,5-7.46,4A5.47,5.47,0,0,1,4.59,510.73Z"/>
          </g>
        </g>
      </g>
      <g>
        <g>
          <path class="cls-7" d="M175.72,330.49s12-98.56,93.76-103.27a17.21,17.21,0,0,1,18.2,18.83C285.07,274.71,267.65,327.13,175.72,330.49Z"/>
          <path class="cls-9" d="M176.21,329.78s8-65.45,62.27-68.58a11.43,11.43,0,0,1,12.08,12.5C248.83,292.74,237.26,327.55,176.21,329.78Z"/>
        </g>
        <g>
          <path class="cls-7" d="M117.92,365.89S36.41,309.2-21.56,367.1a17.21,17.21,0,0,0,1.93,26.11C3.49,410.34,54.2,432.24,117.92,365.89Z"/>
          <path class="cls-9" d="M117.06,365.78s-54.13-37.64-92.62.8a11.43,11.43,0,0,0,1.28,17.34C41.07,395.3,74.74,409.84,117.06,365.78Z"/>
        </g>
        <g>
          <polygon class="cls-7" points="172.29 323.64 154.65 218.17 135.05 222.74 142.33 323.01 172.29 323.64"/>
          <circle class="cls-10" cx="141.98" cy="211.8" r="23.19" transform="translate(-111.02 243.56) rotate(-63.32)"/>
        </g>
        <g>
          <polygon class="cls-7" points="121.51 355.53 37.97 288.76 51.51 273.87 135.54 329.05 121.51 355.53"/>
          <circle class="cls-10" cx="38.58" cy="274.6" r="23.19" transform="translate(-237.42 301.39) rotate(-87.55)"/>
        </g>
        <path class="cls-7" d="M286.12,450.06S239.27,253.49,134.88,306.28s-12.45,171.1,21.44,221.3Z"/>
        <ellipse class="cls-9" cx="228.48" cy="499.68" rx="96.28" ry="66.29" transform="translate(-231.01 198.43) rotate(-32.18)"/>
        <g>
          <circle class="cls-11" cx="200.53" cy="375.58" r="24.12" transform="translate(-225.1 386.11) rotate(-63.32)"/>
          <circle class="cls-12" cx="200.53" cy="375.58" r="16.03" transform="translate(-225.1 386.11) rotate(-63.32)"/>
          <circle class="cls-13" cx="238.51" cy="472.96" r="12.84" transform="translate(-291.19 473.7) rotate(-63.32)"/>
          <circle class="cls-13" cx="200.06" cy="495.04" r="12.84" transform="translate(-332.1 451.5) rotate(-63.32)"/>
          <circle class="cls-11" cx="189.48" cy="374.26" r="5.14" transform="translate(-230 375.5) rotate(-63.32)"/>
        </g>
        <g>
          <circle class="cls-11" cx="144.16" cy="412.28" r="24.12" transform="translate(-288.95 355.96) rotate(-63.32)"/>
          <circle class="cls-12" cx="144.16" cy="412.28" r="16.03" transform="translate(-288.95 355.96) rotate(-63.32)"/>
          <circle class="cls-11" cx="133.11" cy="410.95" r="5.14" transform="translate(-293.85 345.35) rotate(-63.32)"/>
        </g>
        <path class="cls-3" d="M111.85,351.22c-16.65-10.43,21.82-39.95,31.09-41.14s18.66,3.58,9.9,12.89a15.19,15.19,0,0,0-3.11,15.34c1,2.74,2.87,5.31,2.79,8.24-.14,5.52-7,8.43-12.44,7.86s-10.73-3.18-16.25-2.91C119.75,351.69,115.3,353.38,111.85,351.22Z"/>
        <path class="cls-3" d="M206.86,327.82c2,2.68,5.11,5.08,8.34,4.29C236,327,190,304.76,206.86,327.82Z"/>
        <path class="cls-3" d="M175.67,325.49c-9.79,2.76-18.92-11-13.71-19.4,1.57-2.52,4.88-3.49,7.83-3.1,5.2.67,9.41,4.73,14,6.94,4.26,2,8.56,4.7,10.71,8.91a2.3,2.3,0,0,1,.34,1.36c-.19,1.23-1.84,1.45-3.08,1.41a26.65,26.65,0,0,0-10.7,1.61A54.51,54.51,0,0,1,175.67,325.49Z"/>
        <path class="cls-3" d="M115.23,432.09c-8,7-23.52-12-16.35-19.38,5.58-5.72,7.79,1.19,8.68,5.45S119.31,428.54,115.23,432.09Z"/>
        <path class="cls-3" d="M91.71,371c-3.34,10.28-1,24,8.17,27.66a5.09,5.09,0,0,0,7.33-3.95,15.81,15.81,0,0,0,0-5.51c-.76-6.1-1.82-12.48.29-18.26,1-2.69,2.62-5.14,3.19-7.95a3.13,3.13,0,0,0-.24-2.38,3.19,3.19,0,0,0-2-1.11C100,357.47,94.23,363.25,91.71,371Z"/>
        <path class="cls-13" d="M294.59,501.48c-5.51-6.95-30.7.91-56.27,17.55S196.48,554.79,202,561.74s30.7-.91,56.27-17.55S300.09,508.43,294.59,501.48Z"/>
      </g>
    </g>
  </g>
</svg>
