<svg id="Layer_1" data-name="Layer 1" xmlns="http://www.w3.org/2000/svg" xmlns:xlink="http://www.w3.org/1999/xlink" width="450" height="600" viewBox="0 0 450 600">
  <defs>
    <style>
      .cls-1 {
        fill: none;
      }

      .cls-2 {
        clip-path: url(#clip-path);
      }

      .cls-3 {
        fill: #90684e;
      }

      .cls-4 {
        fill: #fcdc53;
      }

      .cls-5 {
        fill: #f9bc26;
      }

      .cls-6 {
        fill: #ffffbf;
      }

      .cls-7 {
        fill: #7c2e18;
      }

      .cls-8 {
        fill: #fff;
      }

      .cls-9 {
        fill: #231f20;
      }

      .cls-10 {
        fill: #cf8a00;
      }
    </style>
    <clipPath id="clip-path">
      <rect class="cls-1" width="450" height="600"/>
    </clipPath>
  </defs>
  <title>9_giraffe_stand_up</title>
  <g class="cls-2">
    <g>
      <g>
        <g>
          <circle class="cls-3" cx="209.87" cy="275.84" r="22.95" transform="translate(-136.62 284.89) rotate(-54.23)"/>
          <circle class="cls-3" cx="184.1" cy="304.07" r="22.95" transform="translate(-170.22 275.7) rotate(-54.23)"/>
          <circle class="cls-3" cx="158.32" cy="332.29" r="22.95" transform="translate(-203.83 266.52) rotate(-54.23)"/>
          <circle class="cls-3" cx="132.55" cy="360.51" r="22.95" transform="translate(-237.44 257.33) rotate(-54.23)"/>
          <circle class="cls-3" cx="106.78" cy="388.73" r="22.95" transform="translate(-271.04 248.14) rotate(-54.23)"/>
          <circle class="cls-3" cx="81.01" cy="416.95" r="22.95" transform="translate(-304.65 238.96) rotate(-54.23)"/>
          <circle class="cls-3" cx="55.23" cy="445.18" r="22.95" transform="translate(-338.26 229.77) rotate(-54.23)"/>
          <circle class="cls-3" cx="29.46" cy="473.4" r="22.95" transform="translate(-371.86 220.59) rotate(-54.23)"/>
        </g>
        <g>
          <path class="cls-4" d="M239.95,293S114.39,427.24,51.53,514.5-31.08,645.16-72.31,625.06s-19.27-29.25-96.82-73.59c-51-25.21-28.77-53.38,2-90.76s45.76-68.84,88.3-61.24c17.43,3.11,39.18,19.08,56.76,33.21,23.71,19,43.32,44.2,55.85,34.47C55.59,450.2,199.83,266,240.31,247.12S275.57,264.83,239.95,293Z"/>
          <g>
            <path class="cls-5" d="M193.36,306.62c3-6.31,8.77-17.38,16.37-19.31,5.34-1.36,10.74.61,9.27,7.72-1.44,6.95-11.37,15.46-15.63,20.91-1.88,2.41-4.32,5.07-7.36,4.74-2.79-.3-4.71-3.22-4.86-6S192.16,309.17,193.36,306.62Z"/>
            <path class="cls-5" d="M116.08,415.53,98.56,438.32c-1.23,1.6-2.53,3.51-2,5.47.6,2.41,3.74,3.39,6.09,2.58s4-2.81,5.62-4.72c8.71-10.59,18.32-20.88,26.34-32,.74-1,1.48-2.31,1-3.48-.57-1.36-2.39-1.58-3.87-1.48a31.59,31.59,0,0,0-3.83.48,7.35,7.35,0,0,0-2.25.71,8.31,8.31,0,0,0-1.63,1.31C121.15,409.94,118.4,412.3,116.08,415.53Z"/>
            <path class="cls-5" d="M18.75,493.46c.56-4.95,4.17-7.85,6.6-11.87,2.29-3.78,3.81-8.08,7.2-11.09a21.93,21.93,0,0,1,4.22-2.81c2.72-1.46,5.69-2.72,8.77-2.57s6.26,2.09,7,5.09c1.14,5,.62,11-.58,15.9-.89,3.63-2.94,7.15-6.21,9-2.46,1.37-5.38,1.67-7.93,2.86-3,1.38-5.32,3.91-8.37,5.12s-7.45.26-8.06-3C18,499,18.36,497,18.75,493.46Z"/>
            <path class="cls-5" d="M132.83,369c-.16-4,2.67-13.86,5.29-16.83,1.72-1.94,4.79-3,7-1.55a9.37,9.37,0,0,0,1.57,1c1.54.6,3.13-.63,4.75-1a5,5,0,0,1,5.41,3.35c2,6-4.27,6.63-7.82,8.72-2.64,1.55-3.84,4.64-5.46,7.24s-4.57,5-7.46,4A5.47,5.47,0,0,1,132.83,369Z"/>
          </g>
        </g>
      </g>
      <g>
        <g>
          <path class="cls-4" d="M304,192.28S302.16,93,382.51,77a17.21,17.21,0,0,1,20.63,16.12C404.53,121.87,394.55,176.19,304,192.28Z"/>
          <path class="cls-6" d="M304.36,191.5s-1.2-65.92,52.15-76.55a11.43,11.43,0,0,1,13.7,10.7C371.14,144.75,364.51,180.82,304.36,191.5Z"/>
        </g>
        <g>
          <path class="cls-4" d="M246.16,224.14s-81.51-56.69-139.48,1.21a17.21,17.21,0,0,0,1.93,26.11C131.74,268.59,182.44,290.5,246.16,224.14Z"/>
          <path class="cls-6" d="M245.3,224s-54.13-37.64-92.62.8A11.43,11.43,0,0,0,154,242.18C169.32,253.56,203,268.1,245.3,224Z"/>
        </g>
        <g>
          <polygon class="cls-4" points="300.54 181.9 282.89 76.42 263.29 80.99 270.58 181.26 300.54 181.9"/>
          <circle class="cls-7" cx="270.23" cy="70.06" r="23.19" transform="translate(86.29 280.05) rotate(-63.32)"/>
        </g>
        <g>
          <polygon class="cls-4" points="249.76 213.78 166.22 147.02 179.75 132.12 263.79 187.31 249.76 213.78"/>
          <circle class="cls-7" cx="166.82" cy="132.86" r="23.19" transform="translate(26.95 293.84) rotate(-87.55)"/>
        </g>
        <path class="cls-4" d="M414.36,308.31S367.52,111.74,263.12,164.54s-12.45,171.1,21.44,221.3Z"/>
        <ellipse class="cls-6" cx="356.72" cy="357.93" rx="96.28" ry="66.29" transform="matrix(0.85, -0.53, 0.53, 0.85, -135.83, 244.96)"/>
        <g>
          <circle class="cls-8" cx="328.78" cy="233.84" r="24.12" transform="translate(-27.79 422.6) rotate(-63.32)"/>
          <circle class="cls-9" cx="328.78" cy="233.84" r="16.03" transform="translate(-27.79 422.6) rotate(-63.32)"/>
          <circle class="cls-10" cx="366.75" cy="331.22" r="12.84" transform="translate(-93.88 510.19) rotate(-63.32)"/>
          <circle class="cls-10" cx="328.3" cy="353.3" r="12.84" transform="translate(-134.79 487.99) rotate(-63.32)"/>
          <circle class="cls-8" cx="317.73" cy="232.51" r="5.14" transform="translate(-32.7 412) rotate(-63.32)"/>
        </g>
        <g>
          <circle class="cls-8" cx="272.4" cy="270.53" r="24.12" transform="translate(-91.64 392.45) rotate(-63.32)"/>
          <circle class="cls-9" cx="272.4" cy="270.53" r="16.03" transform="translate(-91.64 392.45) rotate(-63.32)"/>
          <circle class="cls-8" cx="261.35" cy="269.21" r="5.14" transform="translate(-96.54 381.84) rotate(-63.32)"/>
        </g>
        <path class="cls-5" d="M240.09,209.47c-16.65-10.43,21.82-39.95,31.09-41.14s18.66,3.58,9.9,12.89A15.19,15.19,0,0,0,278,196.56c1,2.74,2.87,5.31,2.79,8.24-.14,5.52-7,8.43-12.44,7.86s-10.73-3.18-16.25-2.91C248,209.94,243.55,211.64,240.09,209.47Z"/>
        <path class="cls-5" d="M335.1,186.07c2,2.68,5.11,5.08,8.34,4.29C364.29,185.28,318.23,163,335.1,186.07Z"/>
        <path class="cls-5" d="M303.91,183.75c-9.79,2.76-18.92-11-13.71-19.4,1.57-2.52,4.88-3.49,7.83-3.1,5.2.67,9.41,4.73,14,6.94,4.26,2,8.56,4.7,10.71,8.91a2.3,2.3,0,0,1,.34,1.36c-.19,1.23-1.84,1.45-3.08,1.41a26.65,26.65,0,0,0-10.7,1.61A54.51,54.51,0,0,1,303.91,183.75Z"/>
        <path class="cls-5" d="M243.48,290.35c-8,7-23.52-12-16.35-19.38,5.58-5.72,7.79,1.19,8.68,5.45S247.55,286.8,243.48,290.35Z"/>
        <path class="cls-5" d="M220,229.25c-3.34,10.28-1,24,8.17,27.66a5.09,5.09,0,0,0,7.33-3.95,15.81,15.81,0,0,0,0-5.51c-.76-6.1-1.82-12.48.29-18.26,1-2.69,2.62-5.14,3.19-7.95a3.13,3.13,0,0,0-.24-2.38,3.19,3.19,0,0,0-2-1.11C228.22,215.73,222.47,221.5,220,229.25Z"/>
        <path class="cls-10" d="M422.83,359.74c-5.51-6.95-30.7.91-56.27,17.55S324.73,413,330.23,420s30.7-.91,56.27-17.55S428.34,366.68,422.83,359.74Z"/>
      </g>
    </g>
  </g>
</svg>
