<svg id="Layer_1" data-name="Layer 1" xmlns="http://www.w3.org/2000/svg" xmlns:xlink="http://www.w3.org/1999/xlink" viewBox="0 0 260 168"><defs><style>.cls-1{fill:none;stroke:#48b5a2;stroke-miterlimit:10;stroke-width:0.92px;}.cls-2{clip-path:url(#clip-path);}.cls-3{fill:#b5895d;}.cls-4{fill:#48b5a2;opacity:0.12;}</style><clipPath id="clip-path"><path class="cls-1" d="M132.13,150.6c5.41,0,5.27-6.17,5.27-6.17v-5.15c0-.43-.73-.55-.73-.55.76,0,.74-.48.74-.48v-2.53c0-.47-.77-.55-.77-.55.73,0,.74-.39.74-.39v-2.33c0-.43-.8-.54-.8-.54.88.06.79-.57.79-.57v-2.46c0-.52-.71-.52-.71-.52a.66.66,0,0,0,.74-.75v-5c0-.59-.65-.63-.65-.63v-1.8c1.36-.79,1.11-3.25,1.11-3.25,0-3.46-5.55-10-5.55-10v-1c1-.51,0-.87,0-.87V102s0-.52-1.09-.52h-3.64s-1,0-1,.52v3.16s-1,.36,0,.87v1S121,113.52,121,117c0,0-.25,2.46,1.11,3.25V122s-.65,0-.65.63v5a.66.66,0,0,0,.74.75s-.71,0-.71.52v2.46s-.09.63.79.57c0,0-.8.11-.8.54v2.33s0,.39.74.39c0,0-.77.08-.77.55v2.53s0,.48.75.48c0,0-.74.12-.74.55v5.15s-.14,6.17,5.27,6.17Z"/></clipPath></defs><g class="cls-2"><path class="cls-3" d="M127.28,112a8.66,8.66,0,0,0,3.13.94c2-.11,3.83-2.51,5.77-3.52s4.14-.24,5.45,4.7c1.15,4.35,1.29,10.75,1.16,16.58-.12,5-.44,10.26-1.45,13.91s-2.66,5.13-4.18,6a12.22,12.22,0,0,1-12.63,0c-3.25-1.83-11.85-9.58-10.16-23.88C115.74,115.11,124.05,110.77,127.28,112Z"/><path class="cls-3" d="M128.43,101.44s1,4.48-1.62,7.67-.82,5.26-.82,5.26h5.53l1.26-1.73a11,11,0,0,1-1.6-5c-.36-3.35-.62-6.24-.62-6.24Z"/></g><path class="cls-1" d="M132.13,150.6c5.41,0,5.27-6.17,5.27-6.17v-5.15c0-.43-.73-.55-.73-.55.76,0,.74-.48.74-.48v-2.53c0-.47-.77-.55-.77-.55.73,0,.74-.39.74-.39v-2.33c0-.43-.8-.54-.8-.54.88.06.79-.57.79-.57v-2.46c0-.52-.71-.52-.71-.52a.66.66,0,0,0,.74-.75v-5c0-.59-.65-.63-.65-.63v-1.8c1.36-.79,1.11-3.25,1.11-3.25,0-3.46-5.55-10-5.55-10v-1c1-.51,0-.87,0-.87V102s0-.52-1.09-.52h-3.64s-1,0-1,.52v3.16s-1,.36,0,.87v1S121,113.52,121,117c0,0-.25,2.46,1.11,3.25V122s-.65,0-.65.63v5a.66.66,0,0,0,.74.75s-.71,0-.71.52v2.46s-.09.63.79.57c0,0-.8.11-.8.54v2.33s0,.39.74.39c0,0-.77.08-.77.55v2.53s0,.48.75.48c0,0-.74.12-.74.55v5.15s-.14,6.17,5.27,6.17Z"/><path class="cls-4" d="M131.52,150.6c4,0,3.93-6.17,3.93-6.17v-5.15c0-.43-.55-.55-.55-.55a.49.49,0,0,0,.56-.48v-2.53c0-.47-.58-.55-.58-.55.55,0,.56-.39.56-.39v-2.33c0-.43-.6-.54-.6-.54a.5.5,0,0,0,.59-.57v-2.46a.52.52,0,0,0-.53-.52c.62,0,.55-.75.55-.75v-5A.56.56,0,0,0,135,122v-1.8c1-.79.83-3.25.83-3.25,0-3.46-4.15-10-4.15-10v-1c.72-.51,0-.87,0-.87V102s0-.52-.81-.52h-2.72s-.77,0-.77.52v3.16s-.74.36,0,.87v1s-4.14,6.53-4.14,10c0,0-.19,2.46.83,3.25V122a.56.56,0,0,0-.48.63v5s-.08.75.55.75a.52.52,0,0,0-.53.52v2.46a.5.5,0,0,0,.59.57s-.6.11-.6.54v2.33s0,.39.56.39c0,0-.58.08-.58.55v2.53s0,.48.55.48c0,0-.54.12-.54.55v5.15s-.11,6.17,3.93,6.17Z"/></svg>