<svg id="Layer_1" data-name="Layer 1" xmlns="http://www.w3.org/2000/svg" xmlns:xlink="http://www.w3.org/1999/xlink" viewBox="0 0 260 168"><defs><style>.cls-1{fill:#c99343;}.cls-2{fill:#d7fff4;opacity:0.3;}.cls-3{fill:#3d3dfc;}.cls-4{fill:#dda854;}.cls-5{fill:#e8ba67;}.cls-32,.cls-6{fill:#fff;}.cls-7{fill:#471e00;}.cls-8{fill:#7a3100;}.cls-9{clip-path:url(#clip-path);}.cls-10{fill:#1e1101;}.cls-11{clip-path:url(#clip-path-2);}.cls-12{clip-path:url(#clip-path-3);}.cls-13{fill:#f7d19a;}.cls-14{fill:#301c00;}.cls-15{fill:#ce9849;}.cls-16{fill:#a06f20;}.cls-17{fill:#e2af5d;}.cls-18{fill:#d69936;}.cls-19{clip-path:url(#clip-path-4);}.cls-20{fill:#ffd38d;}.cls-21{clip-path:url(#clip-path-5);}.cls-22{clip-path:url(#clip-path-6);}.cls-23{clip-path:url(#clip-path-7);}.cls-24{fill:#c41e1e;}.cls-25{fill:#93621b;}.cls-26{fill:#7a4609;}.cls-27,.cls-34{fill:none;stroke-linecap:round;stroke-linejoin:round;}.cls-27{stroke:#d8a14a;stroke-width:0.4px;}.cls-28{clip-path:url(#clip-path-8);}.cls-29{clip-path:url(#clip-path-9);}.cls-30{fill:#f4b460;}.cls-31{clip-path:url(#clip-path-10);}.cls-32{opacity:0.21;}.cls-33{fill:#2e2eef;}.cls-34{stroke:#457fff;stroke-width:0.14px;}.cls-35{fill:#457fff;}.cls-36{clip-path:url(#clip-path-11);}.cls-37{clip-path:url(#clip-path-12);}.cls-38{fill:#2d2de8;}</style><clipPath id="clip-path"><path class="cls-1" d="M217.32,120.17c2.44-.77,5.07-1.55,7.51-.78s4.23,3,5.25,5.39a16.48,16.48,0,0,1-4.55,18.69,7.42,7.42,0,0,1,8.09,1.29c2,2.07,2.23,5.83.13,7.82a8.59,8.59,0,0,1-5,1.88,33.06,33.06,0,0,1-10.36-.41c-2.18-.43-4.44-1.17-5.84-2.88s-1.69-4-1.85-6.26c-.21-3-.28-6-.22-9,.12-5.38,1-11.36,5.19-14.71l-1.35,1.65"/></clipPath><clipPath id="clip-path-2"><path class="cls-1" d="M176.62,120.94c-2.47-.68-5.13-1.36-7.54-.5s-4.11,3.17-5,5.59a16.48,16.48,0,0,0,5.25,18.5,7.4,7.4,0,0,0-8,1.6c-2,2.14-2,5.9.17,7.82a8.67,8.67,0,0,0,5.1,1.69,33.31,33.31,0,0,0,10.34-.81c2.15-.51,4.39-1.33,5.73-3.09s1.54-4.12,1.61-6.33q.14-4.49-.13-9c-.31-5.36-1.41-11.3-5.73-14.5l1.41,1.6"/></clipPath><clipPath id="clip-path-3"><path class="cls-4" d="M221.62,117.32c-8.06-18.31-9.27-30.94-9.27-30.94h-.88l-15.08,3.42-15.26-6.55L180.32,87s-.75,12.67-8.1,31.27-1.53,33.47,25.18,33.09h.3C224.41,150.71,229.64,135.55,221.62,117.32Z"/></clipPath><clipPath id="clip-path-4"><path class="cls-5" d="M225.31,85.8a10,10,0,0,0,3-5.72c1-6.39-4.72-12.52-12.65-13.69-6.7-1-12.87,1.88-15.19,6.66l-1.06-.19q-.51-.08-1-.12C197.56,67.5,192.49,63,185.79,62c-7.93-1.17-15.13,3.06-16.07,9.45a10,10,0,0,0,1.06,6c.85,2.28,3,4.38,6,5.86a17.64,17.64,0,0,0,5.55,1.79l.25,0c.12,0,.22.05.33.06a21.53,21.53,0,0,0,3.88.23,19.94,19.94,0,0,0,21,3.1,22.21,22.21,0,0,0,3.78.91l.36,0,.27,0a17.41,17.41,0,0,0,6-.14A11.8,11.8,0,0,0,225.31,85.8Z"/></clipPath><clipPath id="clip-path-5"><ellipse class="cls-6" cx="216.3" cy="66.48" rx="6.89" ry="5.27" transform="translate(118.91 270.73) rotate(-81.59)"/></clipPath><clipPath id="clip-path-6"><ellipse class="cls-6" cx="185.12" cy="61.87" rx="6.89" ry="5.27" transform="translate(96.85 235.95) rotate(-81.59)"/></clipPath><clipPath id="clip-path-7"><path class="cls-7" d="M188.87,79a19.91,19.91,0,0,0,19,2.28,9.56,9.56,0,0,1-10.59,6C188.5,86,188.87,79,188.87,79Z"/></clipPath><clipPath id="clip-path-8"><path class="cls-4" d="M187.06,114.56a59.94,59.94,0,0,1,1.32,13.5,116.72,116.72,0,0,0,1.76,18c3.79,5,.16,8.58.16,8.58-5.83,8-18,4.3-17.46-2.33s6-4.81,6-4.81c-4.39-17.75-4.82-29.95-4.82-29.95Z"/></clipPath><clipPath id="clip-path-9"><path class="cls-4" d="M206.8,114.56a59.64,59.64,0,0,0-1.31,13.5,117.51,117.51,0,0,1-1.77,18c-3.79,5-.16,8.58-.16,8.58,5.83,8,17.95,4.3,17.46-2.33s-6-4.81-6-4.81c4.39-17.75,4.82-29.95,4.82-29.95Z"/></clipPath><clipPath id="clip-path-10"><circle class="cls-2" cx="185.67" cy="67.46" r="3.58" transform="translate(-11.88 67.99) rotate(-20.12)"/></clipPath><clipPath id="clip-path-11"><circle class="cls-2" cx="213.52" cy="71.36" r="3.58" transform="translate(-11.52 77.8) rotate(-20.12)"/></clipPath><clipPath id="clip-path-12"><path class="cls-3" d="M209.9,70.15a.62.62,0,0,1-.26-.09,24.78,24.78,0,0,0-19.8-2.79.68.68,0,0,1-.46-1.28,25.69,25.69,0,0,1,21,2.92.67.67,0,0,1-.44,1.24Z"/></clipPath></defs><path class="cls-8" d="M175.66,84.68a4.29,4.29,0,0,0,1.87,7.71,1.48,1.48,0,0,0,0,2.08,3.6,3.6,0,0,0,2.09.94,15,15,0,0,0,13-4,9.15,9.15,0,0,0,11.58.65c1.26,2.71,5.75,2.94,7.29.39a3.23,3.23,0,0,0,5.61-3c1.5-.27,2.09-2.15,2-3.68-.26-4.56-3.82-8.44-8-10.26s-8.92-1.91-13.48-1.6c-4.2.29-8.68,1-11.74,3.92-1.13,1.07-2.29,2.51-3.84,2.39a10,10,0,0,1-1.82-.54,4,4,0,0,0-4.71,5.56"/><path class="cls-1" d="M217.32,120.17c2.44-.77,5.07-1.55,7.51-.78s4.23,3,5.25,5.39a16.48,16.48,0,0,1-4.55,18.69,7.42,7.42,0,0,1,8.09,1.29c2,2.07,2.23,5.83.13,7.82a8.59,8.59,0,0,1-5,1.88,33.06,33.06,0,0,1-10.36-.41c-2.18-.43-4.44-1.17-5.84-2.88s-1.69-4-1.85-6.26c-.21-3-.28-6-.22-9,.12-5.38,1-11.36,5.19-14.71l-1.35,1.65"/><g class="cls-9"><path class="cls-10" d="M233.62,134.83a11.8,11.8,0,0,1-9.18.89,35.28,35.28,0,0,1-8.52-4.07c-4.13,2.2-8.3,4.44-11.78,7.57s-6.26,7.29-6.81,11.94c-.68,5.79,2.25,11.63,6.68,15.43s10.16,5.78,15.92,6.73c7.75,1.28,16.82.3,21.64-5.91a19,19,0,0,0,3.1-6.5,30.57,30.57,0,0,0-4.65-26,1.78,1.78,0,0,0-1.06-.84c-.45-.07-1,.43-.73.82"/></g><path class="cls-1" d="M176.62,120.94c-2.47-.68-5.13-1.36-7.54-.5s-4.11,3.17-5,5.59a16.48,16.48,0,0,0,5.25,18.5,7.4,7.4,0,0,0-8,1.6c-2,2.14-2,5.9.17,7.82a8.67,8.67,0,0,0,5.1,1.69,33.31,33.31,0,0,0,10.34-.81c2.15-.51,4.39-1.33,5.73-3.09s1.54-4.12,1.61-6.33q.14-4.49-.13-9c-.31-5.36-1.41-11.3-5.73-14.5l1.41,1.6"/><g class="cls-11"><path class="cls-10" d="M160.89,136.21a11.83,11.83,0,0,0,9.2.54,35.2,35.2,0,0,0,8.36-4.4c4.21,2.05,8.46,4.13,12.06,7.13s6.53,7.05,7.25,11.67c.91,5.77-1.81,11.71-6.09,15.67S181.73,173,176,174.15c-7.7,1.57-16.8.93-21.85-5.09a19.13,19.13,0,0,1-3.35-6.38,30.57,30.57,0,0,1,3.67-26.17,1.82,1.82,0,0,1,1-.88c.46-.08,1,.4.77.8"/></g><path class="cls-4" d="M221.62,117.32c-8.06-18.31-9.27-30.94-9.27-30.94h-.88l-15.08,3.42-15.26-6.55L180.32,87s-.75,12.67-8.1,31.27-1.53,33.47,25.18,33.09h.3C224.41,150.71,229.64,135.55,221.62,117.32Z"/><g class="cls-12"><ellipse class="cls-13" cx="197.53" cy="150.17" rx="17.56" ry="35.83" transform="translate(-2.8 3.75) rotate(-1.08)"/><ellipse class="cls-14" cx="175.85" cy="104.95" rx="7.72" ry="4.82" transform="translate(-1.95 3.34) rotate(-1.08)"/><ellipse class="cls-14" cx="217.71" cy="97.35" rx="7.72" ry="4.82" transform="translate(-1.8 4.12) rotate(-1.08)"/><ellipse class="cls-14" cx="173.75" cy="95.09" rx="7.72" ry="4.82" transform="translate(-1.76 3.29) rotate(-1.08)"/><ellipse class="cls-15" cx="196.26" cy="83.08" rx="21.94" ry="11.97" transform="translate(-1.53 3.72) rotate(-1.08)"/></g><ellipse class="cls-16" cx="197.15" cy="88.26" rx="4.86" ry="12.29" transform="translate(81.02 270.38) rotate(-81.59)"/><path class="cls-17" d="M224,48.28a17.94,17.94,0,0,1,14.84,1.5c8,4.41,6.32,8.3,2.27,13.2s-16.62,16.3-27.88-.62C213.2,62.36,216.92,49.16,224,48.28Z"/><path class="cls-13" d="M222.68,52.32s5.47-2.25,12,1.44,5.24,6.8,2,10.7-13.18,12.9-22.56-.94C214.19,63.52,217,52.92,222.68,52.32Z"/><circle class="cls-18" cx="221.52" cy="58.74" r="5.8" transform="translate(-4.05 18.24) rotate(-4.67)"/><path class="cls-17" d="M183,42.23a17.94,17.94,0,0,0-14.64-2.86c-9,1.9-8.45,6.12-6,12s11.19,20.41,26.87,7.48C189.28,58.83,189.53,45.12,183,42.23Z"/><path class="cls-13" d="M183.11,46.47s-4.59-3.73-11.94-2.1-7,5-5,9.65S175,70.18,188,59.65C188,59.65,188.37,48.69,183.11,46.47Z"/><circle class="cls-18" cx="182.36" cy="52.95" r="5.8" transform="translate(95.52 221.82) rotate(-78.98)"/><circle class="cls-5" cx="200.89" cy="62.95" r="23.58" transform="translate(-6.48 99.23) rotate(-27.32)"/><path class="cls-5" d="M225.31,85.8a10,10,0,0,0,3-5.72c1-6.39-4.72-12.52-12.65-13.69-6.7-1-12.87,1.88-15.19,6.66l-1.06-.19q-.51-.08-1-.12C197.56,67.5,192.49,63,185.79,62c-7.93-1.17-15.13,3.06-16.07,9.45a10,10,0,0,0,1.06,6c.85,2.28,3,4.38,6,5.86a17.64,17.64,0,0,0,5.55,1.79l.25,0c.12,0,.22.05.33.06a21.53,21.53,0,0,0,3.88.23,19.94,19.94,0,0,0,21,3.1,22.21,22.21,0,0,0,3.78.91l.36,0,.27,0a17.41,17.41,0,0,0,6-.14A11.8,11.8,0,0,0,225.31,85.8Z"/><g class="cls-19"><circle class="cls-16" cx="197.51" cy="85.84" r="19.07" transform="translate(-17.36 100.23) rotate(-27.32)"/></g><ellipse class="cls-16" cx="197.35" cy="86.88" rx="2.52" ry="18.86" transform="translate(82.55 269.41) rotate(-81.59)"/><ellipse class="cls-20" cx="185.42" cy="60.73" rx="8.07" ry="6.2" transform="translate(98.24 235.27) rotate(-81.59)"/><ellipse class="cls-20" cx="216.47" cy="65.32" rx="8.07" ry="6.2" transform="translate(120.21 269.91) rotate(-81.59)"/><path class="cls-8" d="M182.28,57.19a2.44,2.44,0,0,1-2.11-1.7,3.06,3.06,0,0,0,.56,3.08.75.75,0,0,0,.42.28.71.71,0,0,0,.64-.39,1.56,1.56,0,0,0,.16-1.23l-.21.32"/><path class="cls-8" d="M181.66,59.2a2.44,2.44,0,0,1-2.1-1.71,3.06,3.06,0,0,0,.55,3.08.73.73,0,0,0,.43.28.68.68,0,0,0,.63-.39,1.54,1.54,0,0,0,.16-1.22l-.21.32"/><path class="cls-8" d="M220.63,62.86a2.46,2.46,0,0,0,2.51-1,3.07,3.07,0,0,1-1.42,2.78.59.59,0,0,1-1-.41,1.59,1.59,0,0,1,.2-1.22l.11.37"/><path class="cls-8" d="M220.64,65a2.45,2.45,0,0,0,2.51-1,3.08,3.08,0,0,1-1.42,2.79.81.81,0,0,1-.49.15.7.7,0,0,1-.5-.56,1.59,1.59,0,0,1,.2-1.22l.11.37"/><ellipse class="cls-6" cx="216.3" cy="66.48" rx="6.89" ry="5.27" transform="translate(118.91 270.73) rotate(-81.59)"/><g class="cls-21"><ellipse cx="214.04" cy="68.22" rx="5.25" ry="4.01" transform="translate(115.26 269.99) rotate(-81.59)"/><ellipse class="cls-6" cx="212.48" cy="64.43" rx="1.76" ry="1.47" transform="translate(117.67 265.21) rotate(-81.59)"/></g><path class="cls-8" d="M182.73,53.77a3.36,3.36,0,0,1,1.69-1.63,3.83,3.83,0,0,1,2.48-.28,4.26,4.26,0,0,1,2.13,1.2,5.79,5.79,0,0,1,.72.93,5.93,5.93,0,0,1,.43,1.08,7.59,7.59,0,0,1-1-.53c-.33-.15-.62-.33-.91-.48a8.58,8.58,0,0,0-1.72-.63A7.49,7.49,0,0,0,182.73,53.77Z"/><path class="cls-8" d="M221.16,59.45A7.58,7.58,0,0,0,217.59,58a9,9,0,0,0-1.83.11c-.32.06-.65.15-1,.2a8.39,8.39,0,0,1-1.11.22,7.1,7.1,0,0,1,.73-.91,5.86,5.86,0,0,1,1-.68,4.42,4.42,0,0,1,2.39-.54,3.86,3.86,0,0,1,2.29,1A3.4,3.4,0,0,1,221.16,59.45Z"/><ellipse class="cls-6" cx="185.12" cy="61.87" rx="6.89" ry="5.27" transform="translate(96.85 235.95) rotate(-81.59)"/><g class="cls-22"><ellipse cx="182.69" cy="63.57" rx="5.25" ry="4.01" transform="translate(93.09 235) rotate(-81.59)"/><ellipse class="cls-6" cx="181.12" cy="59.79" rx="1.76" ry="1.47" transform="translate(95.5 230.22) rotate(-81.59)"/></g><path class="cls-5" d="M175.37,70.05c.41-2.8,3.78-4.62,7.53-4.06a7.86,7.86,0,0,1,5,2.71"/><path class="cls-5" d="M211.54,71.77a8.17,8.17,0,0,1,5.07-.8c3.74.55,6.45,3.27,6,6.07"/><path class="cls-7" d="M188.87,79a19.91,19.91,0,0,0,19,2.28,9.56,9.56,0,0,1-10.59,6C188.5,86,188.87,79,188.87,79Z"/><g class="cls-23"><ellipse class="cls-24" cx="196.96" cy="89.26" rx="3.72" ry="6.39" transform="translate(79.86 271.06) rotate(-81.59)"/><ellipse class="cls-6" cx="198.18" cy="81.02" rx="3.9" ry="6.54" transform="translate(89.05 265.23) rotate(-81.59)"/></g><ellipse class="cls-25" cx="199.12" cy="74.91" rx="8.13" ry="13.58" transform="matrix(0.15, -0.99, 0.99, 0.15, 95.9, 260.94)"/><ellipse class="cls-14" cx="199.59" cy="71.71" rx="4.26" ry="8.25" transform="translate(99.48 258.67) rotate(-81.59)"/><ellipse class="cls-26" cx="197.51" cy="68.79" rx="0.98" ry="1.96" transform="translate(100.57 254.12) rotate(-81.59)"/><path class="cls-8" d="M180.93,58.08s1.82-3.55,5.43-3c0,0,2.6.27,3.65,3.65,0,0-1.63-2.65-3.87-2.84s-5,1.46-6.16,4.68A6.59,6.59,0,0,1,180.93,58.08Z"/><path class="cls-8" d="M221.4,64.06s-.71-3.92-4.32-4.46c0,0-2.57-.49-4.55,2.44,0,0,2.33-2.07,4.53-1.6s4.39,2.85,4.53,6.26A6.64,6.64,0,0,0,221.4,64.06Z"/><path class="cls-27" d="M177.89,66.8s2.55,4.61,8.22,2.51"/><path class="cls-27" d="M221.79,73.29s-3.78,3.68-8.6,0"/><path class="cls-8" d="M220.84,47.3a16.69,16.69,0,0,0-5.62-8.23,2.56,2.56,0,0,0-.46-.57l-2.32-2.21c-.26-.25-.52-.5-.79-.74a2.88,2.88,0,0,0-.76-.59,7,7,0,0,1-1.21-.44,3.78,3.78,0,0,1-.78-1.07,2.51,2.51,0,0,0-4,.2,15.5,15.5,0,0,0-12,2.72l0,0a16.57,16.57,0,0,0-6.71,5.79,3.09,3.09,0,0,0-.64,2.73,3.19,3.19,0,0,0,2.21,1.53c1.17.36,2.7.51,3.36-.52a1.21,1.21,0,0,0,.65,1.47,2.89,2.89,0,0,0,1.75.14,9.76,9.76,0,0,0,4-1.68,1.56,1.56,0,0,0,.52.32c.95.32,1.94-.35,2.66-1.06a14.31,14.31,0,0,0,2.87-4.06,7.26,7.26,0,0,0,3.81,5.16,2.79,2.79,0,0,0,.71.22,10,10,0,0,0,4.12,3.87,2.88,2.88,0,0,0,1.71.37,1.21,1.21,0,0,0,1-1.22c.33,1.18,1.85,1.47,3.07,1.47a3.16,3.16,0,0,0,2.55-.82A3.07,3.07,0,0,0,220.84,47.3Z"/><path class="cls-27" d="M194.81,49.3a24.5,24.5,0,0,0,15.41,2.28"/><path class="cls-27" d="M197,51.79a16.56,16.56,0,0,0,10.42,1.54"/><path class="cls-4" d="M187.06,114.56a59.94,59.94,0,0,1,1.32,13.5,116.72,116.72,0,0,0,1.76,18c3.79,5,.16,8.58.16,8.58-5.83,8-18,4.3-17.46-2.33s6-4.81,6-4.81c-4.39-17.75-4.82-29.95-4.82-29.95Z"/><g class="cls-28"><path class="cls-14" d="M171.47,137.83a21.73,21.73,0,0,0,20.49-2,46.28,46.28,0,0,1,6.71,17.59c.84,5.21.48,11.26-3.5,14.72-2,1.74-4.64,2.54-7.2,3.26-4.52,1.26-9.49,2.37-13.78.45-3.74-1.67-6.18-5.35-7.9-9.07a27.07,27.07,0,0,1-2.88-12.6c.23-4.34,2.12-8.73,5.63-11.3l-1.15.95"/></g><path class="cls-4" d="M206.8,114.56a59.64,59.64,0,0,0-1.31,13.5,117.51,117.51,0,0,1-1.77,18c-3.79,5-.16,8.58-.16,8.58,5.83,8,17.95,4.3,17.46-2.33s-6-4.81-6-4.81c4.39-17.75,4.82-29.95,4.82-29.95Z"/><g class="cls-29"><path class="cls-14" d="M222.39,137.83a21.73,21.73,0,0,1-20.49-2,46.28,46.28,0,0,0-6.71,17.59c-.84,5.21-.48,11.26,3.5,14.72,2,1.74,4.64,2.54,7.2,3.26,4.52,1.26,9.5,2.37,13.78.45,3.74-1.67,6.18-5.35,7.9-9.07a27.07,27.07,0,0,0,2.88-12.6c-.23-4.34-2.11-8.73-5.62-11.3l1.14.95"/></g><path class="cls-30" d="M187.16,101.44c-.73,1.56-1.54,3.78-.16,5.24s3.61.7,5.14,0l-.55-.14a4.45,4.45,0,0,0,4.18,2.49,4.51,4.51,0,0,0,3.87-2.86l-.68.18a5.74,5.74,0,0,0,4.13,1.91A3.12,3.12,0,0,0,206,106l-.74.09a2.93,2.93,0,0,0,4.57.56c1.52-1.69.34-4.27-1.17-5.51-.39-.32-1,.24-.56.57,1.12.92,2.24,2.79,1.29,4.2a2.08,2.08,0,0,1-3.43-.22.41.41,0,0,0-.74.09,2.36,2.36,0,0,1-2.42,1.63,5.27,5.27,0,0,1-3.22-1.69.41.41,0,0,0-.67.18,3.65,3.65,0,0,1-3.26,2.28,3.69,3.69,0,0,1-3.31-2.11.42.42,0,0,0-.55-.14c-1.19.56-3.1,1.3-4.17.15s-.28-3.06.28-4.26c.22-.47-.47-.88-.69-.41Z"/><circle class="cls-2" cx="185.67" cy="67.46" r="3.58" transform="translate(-11.88 67.99) rotate(-20.12)"/><g class="cls-31"><path class="cls-32" d="M185.89,63c-.78,1-1.53,2.07-2.24,3.15-.13.19-.26.44-.12.63a1.51,1.51,0,0,0,.23.21.68.68,0,0,1,.06.68,4.69,4.69,0,0,1-.55.91c-.49.7-.93,1.44-1.36,2.18-.11.17-.2.41-.07.56a.34.34,0,0,0,.41,0,1,1,0,0,0,.29-.33l2-3.09a.8.8,0,0,0,.18-.71c0-.11-.12-.19-.16-.3a.76.76,0,0,1,.2-.63l2-2.71a.44.44,0,0,0,.12-.28c0-.21-.26-.3-.47-.33"/></g><path class="cls-33" d="M185.09,71.62A4.2,4.2,0,1,1,189.83,68,4.2,4.2,0,0,1,185.09,71.62Zm1.06-7.6a3.48,3.48,0,1,0,3,3.92A3.48,3.48,0,0,0,186.15,64Z"/><path class="cls-34" d="M181.76,66.92a4,4,0,0,1,4.46-3.37"/><path class="cls-34" d="M189.2,68.06a3.51,3.51,0,0,1-3.92,3"/><circle class="cls-35" cx="181.73" cy="67.24" r="0.1"/><circle class="cls-35" cx="189.24" cy="67.8" r="0.1"/><circle class="cls-2" cx="213.52" cy="71.36" r="3.58" transform="translate(-11.52 77.8) rotate(-20.12)"/><g class="cls-36"><path class="cls-32" d="M213.74,66.91q-1.17,1.55-2.25,3.15c-.12.19-.25.45-.12.64s.17.13.24.21a.66.66,0,0,1,0,.67,4,4,0,0,1-.54.92c-.5.7-.93,1.44-1.37,2.17-.1.18-.2.42-.06.57a.33.33,0,0,0,.41,0,.83.83,0,0,0,.28-.33l2-3.08a.85.85,0,0,0,.18-.72c0-.1-.13-.19-.16-.29s.07-.45.2-.64l2-2.7a.47.47,0,0,0,.12-.29c0-.2-.27-.29-.47-.32"/></g><path class="cls-33" d="M212.93,75.52a4.2,4.2,0,1,1,4.75-3.58A4.2,4.2,0,0,1,212.93,75.52ZM214,67.91a3.48,3.48,0,1,0,3,3.93A3.5,3.5,0,0,0,214,67.91Z"/><path class="cls-34" d="M209.61,70.81a3.94,3.94,0,0,1,4.45-3.36"/><path class="cls-34" d="M217.05,72a3.53,3.53,0,0,1-3.93,3"/><circle class="cls-35" cx="209.58" cy="71.13" r="0.1"/><circle class="cls-35" cx="217.09" cy="71.7" r="0.1"/><path class="cls-3" d="M209.9,70.15a.62.62,0,0,1-.26-.09,24.78,24.78,0,0,0-19.8-2.79.68.68,0,0,1-.46-1.28,25.69,25.69,0,0,1,21,2.92.67.67,0,0,1-.44,1.24Z"/><g class="cls-37"><path class="cls-38" d="M188,67.53s4.7-2.44,12.27-1.38a23.9,23.9,0,0,1,12.1,5.27l-4.3,1.93-18.36-2.79Z"/></g><ellipse class="cls-35" cx="196.71" cy="65.39" rx="0.22" ry="2.99" transform="translate(129.5 261.49) rotate(-89.47)"/><ellipse class="cls-35" cx="200.8" cy="65.65" rx="0.19" ry="0.82" transform="matrix(0.14, -0.99, 0.99, 0.14, 107.95, 255.42)"/></svg>