<svg id="Layer_1" data-name="Layer 1" xmlns="http://www.w3.org/2000/svg" xmlns:xlink="http://www.w3.org/1999/xlink" viewBox="0 0 260 168"><defs><style>.cls-1{fill:#c99343;}.cls-2{fill:#3d3dfc;}.cls-3{fill:#dda854;}.cls-4{fill:#e8ba67;}.cls-5{fill:#471e00;}.cls-6{fill:#d7fff4;opacity:0.3;}.cls-7{fill:#7a3100;}.cls-8{clip-path:url(#clip-path);}.cls-9{fill:#1e1101;}.cls-10{clip-path:url(#clip-path-2);}.cls-11{clip-path:url(#clip-path-3);}.cls-12{fill:#f7d19a;}.cls-13{fill:#301c00;}.cls-14{fill:#ce9849;}.cls-15{fill:#a06f20;}.cls-16{fill:#e2af5d;}.cls-17{fill:#d69936;}.cls-18{clip-path:url(#clip-path-4);}.cls-19{fill:#ffd38d;}.cls-20,.cls-30{fill:#fff;}.cls-21{clip-path:url(#clip-path-5);}.cls-22{fill:#c41e1e;}.cls-23{fill:#93621b;}.cls-24{fill:#7a4609;}.cls-25,.cls-32{fill:none;stroke-linecap:round;stroke-linejoin:round;}.cls-25{stroke:#d8a14a;stroke-width:0.4px;}.cls-26{clip-path:url(#clip-path-6);}.cls-27{clip-path:url(#clip-path-7);}.cls-28{fill:#f4b460;}.cls-29{clip-path:url(#clip-path-8);}.cls-30{opacity:0.21;}.cls-31{fill:#2e2eef;}.cls-32{stroke:#457fff;stroke-width:0.14px;}.cls-33{fill:#457fff;}.cls-34{clip-path:url(#clip-path-9);}.cls-35{clip-path:url(#clip-path-10);}.cls-36{fill:#2d2de8;}</style><clipPath id="clip-path"><path class="cls-1" d="M217.32,120.17c2.44-.77,5.07-1.55,7.51-.78s4.23,3,5.25,5.39a16.48,16.48,0,0,1-4.55,18.69,7.42,7.42,0,0,1,8.09,1.29c2,2.07,2.23,5.83.13,7.82a8.59,8.59,0,0,1-5,1.88,33.06,33.06,0,0,1-10.36-.41c-2.18-.43-4.44-1.17-5.84-2.88s-1.69-4-1.85-6.26c-.21-3-.28-6-.22-9,.12-5.38,1-11.36,5.19-14.71l-1.35,1.65"/></clipPath><clipPath id="clip-path-2"><path class="cls-1" d="M176.62,120.94c-2.47-.68-5.13-1.36-7.54-.5s-4.11,3.17-5,5.59a16.48,16.48,0,0,0,5.25,18.5,7.4,7.4,0,0,0-8,1.6c-2,2.14-2,5.9.17,7.82a8.67,8.67,0,0,0,5.1,1.69,33.31,33.31,0,0,0,10.34-.81c2.15-.51,4.39-1.33,5.73-3.09s1.54-4.12,1.61-6.33q.14-4.49-.13-9c-.31-5.36-1.41-11.3-5.73-14.5l1.41,1.6"/></clipPath><clipPath id="clip-path-3"><path class="cls-3" d="M221.62,117.32c-8.06-18.31-9.27-30.94-9.27-30.94h-.88l-15.08,3.42L181.19,87l-.87,0s-.75,12.67-8.1,31.27-1.53,33.47,25.18,33.09h.3C224.41,150.71,229.64,135.55,221.62,117.32Z"/></clipPath><clipPath id="clip-path-4"><path class="cls-4" d="M223.73,81a10.08,10.08,0,0,0,2-6.13C225.64,68.41,219,63.3,211,63.45c-6.78.13-12.38,4-13.88,9.07h-1.08c-.34,0-.69,0-1,0-1.69-5-7.44-8.67-14.21-8.54-8,.15-14.42,5.51-14.3,12a9.94,9.94,0,0,0,2,5.79c1.21,2.11,3.71,3.82,6.92,4.78a17.52,17.52,0,0,0,5.77.85h.59a20.94,20.94,0,0,0,3.87-.42,19.89,19.89,0,0,0,21.23-.4,21.24,21.24,0,0,0,3.88.27h.63a17.28,17.28,0,0,0,5.89-1.13A11.71,11.71,0,0,0,223.73,81Z"/></clipPath><clipPath id="clip-path-5"><path class="cls-5" d="M186.66,80.27a19.92,19.92,0,0,0,19.09-.87,9.57,9.57,0,0,1-9.45,7.71C187.46,87.28,186.66,80.27,186.66,80.27Z"/></clipPath><clipPath id="clip-path-6"><path class="cls-3" d="M187.06,114.56a59.94,59.94,0,0,1,1.32,13.5,116.72,116.72,0,0,0,1.76,18c3.79,5,.16,8.58.16,8.58-5.83,8-18,4.3-17.46-2.33s6-4.81,6-4.81c-4.39-17.75-4.82-29.95-4.82-29.95Z"/></clipPath><clipPath id="clip-path-7"><path class="cls-3" d="M206.8,114.56a59.64,59.64,0,0,0-1.31,13.5,117.51,117.51,0,0,1-1.77,18c-3.79,5-.16,8.58-.16,8.58,5.83,8,17.95,4.3,17.46-2.33s-6-4.81-6-4.81c4.39-17.75,4.82-29.95,4.82-29.95Z"/></clipPath><clipPath id="clip-path-8"><circle class="cls-6" cx="182" cy="68.76" r="3.58" transform="translate(-11.19 91.75) rotate(-27.48)"/></clipPath><clipPath id="clip-path-9"><circle class="cls-6" cx="210.12" cy="68.69" r="3.58" transform="translate(-7.99 104.72) rotate(-27.48)"/></clipPath><clipPath id="clip-path-10"><path class="cls-2" d="M206.36,68a.58.58,0,0,1-.26,0,24.8,24.8,0,0,0-20,0,.68.68,0,0,1-.91-.29.67.67,0,0,1,.28-.91,25.68,25.68,0,0,1,21.16-.07.67.67,0,0,1-.27,1.29Z"/></clipPath></defs><path class="cls-7" d="M175.66,84.68a4.29,4.29,0,0,0,1.87,7.71,1.48,1.48,0,0,0,0,2.08,3.6,3.6,0,0,0,2.09.94,15,15,0,0,0,13-4,9.15,9.15,0,0,0,11.58.65c1.26,2.71,5.75,2.94,7.29.39a3.23,3.23,0,0,0,5.61-3c1.5-.27,2.09-2.15,2-3.68-.26-4.56-3.82-8.44-8-10.26s-8.92-1.91-13.48-1.6c-4.2.29-8.68,1-11.74,3.92-1.13,1.07-2.29,2.51-3.84,2.39a10,10,0,0,1-1.82-.54,4,4,0,0,0-4.71,5.56"/><path class="cls-1" d="M217.32,120.17c2.44-.77,5.07-1.55,7.51-.78s4.23,3,5.25,5.39a16.48,16.48,0,0,1-4.55,18.69,7.42,7.42,0,0,1,8.09,1.29c2,2.07,2.23,5.83.13,7.82a8.59,8.59,0,0,1-5,1.88,33.06,33.06,0,0,1-10.36-.41c-2.18-.43-4.44-1.17-5.84-2.88s-1.69-4-1.85-6.26c-.21-3-.28-6-.22-9,.12-5.38,1-11.36,5.19-14.71l-1.35,1.65"/><g class="cls-8"><path class="cls-9" d="M233.62,134.83a11.8,11.8,0,0,1-9.18.89,35.28,35.28,0,0,1-8.52-4.07c-4.13,2.2-8.3,4.44-11.78,7.57s-6.26,7.29-6.81,11.94c-.68,5.79,2.25,11.63,6.68,15.43s10.16,5.78,15.92,6.73c7.75,1.28,16.82.3,21.64-5.91a19,19,0,0,0,3.1-6.5,30.57,30.57,0,0,0-4.65-26,1.78,1.78,0,0,0-1.06-.84c-.45-.07-1,.43-.73.82"/></g><path class="cls-1" d="M176.62,120.94c-2.47-.68-5.13-1.36-7.54-.5s-4.11,3.17-5,5.59a16.48,16.48,0,0,0,5.25,18.5,7.4,7.4,0,0,0-8,1.6c-2,2.14-2,5.9.17,7.82a8.67,8.67,0,0,0,5.1,1.69,33.31,33.31,0,0,0,10.34-.81c2.15-.51,4.39-1.33,5.73-3.09s1.54-4.12,1.61-6.33q.14-4.49-.13-9c-.31-5.36-1.41-11.3-5.73-14.5l1.41,1.6"/><g class="cls-10"><path class="cls-9" d="M160.89,136.21a11.83,11.83,0,0,0,9.2.54,35.2,35.2,0,0,0,8.36-4.4c4.21,2.05,8.46,4.13,12.06,7.13s6.53,7.05,7.25,11.67c.91,5.77-1.81,11.71-6.09,15.67S181.73,173,176,174.15c-7.7,1.57-16.8.93-21.85-5.09a19.13,19.13,0,0,1-3.35-6.38,30.57,30.57,0,0,1,3.67-26.17,1.82,1.82,0,0,1,1-.88c.46-.08,1,.4.77.8"/></g><path class="cls-3" d="M221.62,117.32c-8.06-18.31-9.27-30.94-9.27-30.94h-.88l-15.08,3.42L181.19,87l-.87,0s-.75,12.67-8.1,31.27-1.53,33.47,25.18,33.09h.3C224.41,150.71,229.64,135.55,221.62,117.32Z"/><g class="cls-11"><ellipse class="cls-12" cx="197.53" cy="150.17" rx="17.56" ry="35.83" transform="translate(-2.8 3.75) rotate(-1.08)"/><ellipse class="cls-13" cx="175.85" cy="104.95" rx="7.72" ry="4.82" transform="translate(-1.95 3.34) rotate(-1.08)"/><ellipse class="cls-13" cx="217.71" cy="97.35" rx="7.72" ry="4.82" transform="translate(-1.8 4.12) rotate(-1.08)"/><ellipse class="cls-13" cx="173.75" cy="95.09" rx="7.72" ry="4.82" transform="translate(-1.76 3.29) rotate(-1.08)"/><ellipse class="cls-14" cx="196.26" cy="83.08" rx="21.94" ry="11.97" transform="translate(-1.53 3.72) rotate(-1.08)"/></g><ellipse class="cls-15" cx="196.36" cy="88.07" rx="12.29" ry="4.86" transform="translate(-1.63 3.72) rotate(-1.08)"/><path class="cls-16" d="M216.22,44.22a18,18,0,0,1,14.89-1c8.64,3,7.59,7.15,4.41,12.65s-13.7,18.82-27.6,4C207.92,59.89,209.41,46.26,216.22,44.22Z"/><path class="cls-12" d="M215.61,48.42s5-3.12,12.11-.57S234,53.7,231.5,58.07s-10.88,14.9-22.42,2.8C209.08,60.87,210.1,50,215.61,48.42Z"/><circle class="cls-17" cx="215.53" cy="54.94" r="5.8" transform="translate(-6.01 35.19) rotate(-9.21)"/><path class="cls-16" d="M174.86,45a17.93,17.93,0,0,0-14.92-.4C151.41,48,152.62,52,156,57.4s14.4,18.29,27.73,2.94C183.74,60.34,181.73,46.78,174.86,45Z"/><path class="cls-12" d="M175.62,49.17s-5.14-2.92-12.12-.1-6.07,6.07-3.39,10.35,11.43,14.47,22.5,1.94C182.61,61.36,181.18,50.49,175.62,49.17Z"/><circle class="cls-17" cx="175.95" cy="55.69" r="5.8" transform="translate(104.34 225.78) rotate(-84.73)"/><circle class="cls-4" cx="195.87" cy="62.49" r="23.58" transform="translate(-5.82 22.59) rotate(-6.5)"/><path class="cls-4" d="M223.73,81a10.08,10.08,0,0,0,2-6.13C225.64,68.41,219,63.3,211,63.45c-6.78.13-12.38,4-13.88,9.07h-1.08c-.34,0-.69,0-1,0-1.69-5-7.44-8.67-14.21-8.54-8,.15-14.42,5.51-14.3,12a9.94,9.94,0,0,0,2,5.79c1.21,2.11,3.71,3.82,6.92,4.78a17.52,17.52,0,0,0,5.77.85h.59a20.94,20.94,0,0,0,3.87-.42,19.89,19.89,0,0,0,21.23-.4,21.24,21.24,0,0,0,3.88.27h.63a17.28,17.28,0,0,0,5.89-1.13A11.71,11.71,0,0,0,223.73,81Z"/><g class="cls-18"><circle class="cls-15" cx="196.31" cy="85.63" r="19.07" transform="translate(-8.43 22.79) rotate(-6.5)"/></g><ellipse class="cls-15" cx="196.33" cy="86.68" rx="18.86" ry="2.52" transform="matrix(1, -0.02, 0.02, 1, -1.6, 3.72)"/><ellipse class="cls-19" cx="180.25" cy="62.85" rx="6.2" ry="8.07" transform="translate(-1.15 3.41) rotate(-1.08)"/><ellipse class="cls-19" cx="211.63" cy="62.26" rx="6.2" ry="8.07" transform="translate(-1.14 4) rotate(-1.08)"/><path class="cls-7" d="M176.57,59.88a2.43,2.43,0,0,1-2.36-1.33,3.09,3.09,0,0,0,1,3,.73.73,0,0,0,.47.2.66.66,0,0,0,.56-.49,1.55,1.55,0,0,0,0-1.23l-.16.35"/><path class="cls-7" d="M176.29,62a2.45,2.45,0,0,1-2.36-1.33A3.05,3.05,0,0,0,175,63.57a.75.75,0,0,0,.46.21.68.68,0,0,0,.57-.49,1.55,1.55,0,0,0-.05-1.23l-.15.35"/><path class="cls-7" d="M215.33,59.15a2.41,2.41,0,0,0,2.3-1.42,3,3,0,0,1-.94,3,.7.7,0,0,1-.46.23.71.71,0,0,1-.58-.47,1.55,1.55,0,0,1,0-1.23l.17.34"/><path class="cls-7" d="M215.68,61.22A2.45,2.45,0,0,0,218,59.8a3.06,3.06,0,0,1-.94,3,.84.84,0,0,1-.46.23.7.7,0,0,1-.58-.47,1.62,1.62,0,0,1,0-1.24l.18.35"/><ellipse class="cls-20" cx="211.66" cy="63.44" rx="5.27" ry="6.89" transform="translate(-1.16 4) rotate(-1.08)"/><ellipse cx="211.66" cy="63.44" rx="4.01" ry="5.25" transform="translate(-1.16 4) rotate(-1.08)"/><ellipse class="cls-20" cx="209.49" cy="59.96" rx="1.47" ry="1.76" transform="translate(-1.09 3.96) rotate(-1.08)"/><path class="cls-7" d="M176.45,56.43a3.41,3.41,0,0,1,1.4-1.88,3.8,3.8,0,0,1,2.4-.69,4.45,4.45,0,0,1,2.3.83,6.57,6.57,0,0,1,.86.8,6.79,6.79,0,0,1,.6,1,6.92,6.92,0,0,1-1.06-.36c-.35-.1-.66-.23-1-.32a8.78,8.78,0,0,0-1.8-.35A7.73,7.73,0,0,0,176.45,56.43Z"/><path class="cls-7" d="M215.29,55.7a7.61,7.61,0,0,0-3.75-.83,9,9,0,0,0-1.79.41c-.31.11-.62.25-1,.36a8.52,8.52,0,0,1-1,.4,6,6,0,0,1,.56-1,6.51,6.51,0,0,1,.83-.83,4.37,4.37,0,0,1,2.27-.92,3.85,3.85,0,0,1,2.42.6A3.4,3.4,0,0,1,215.29,55.7Z"/><ellipse class="cls-20" cx="180.14" cy="64.03" rx="5.27" ry="6.89" transform="translate(-1.18 3.41) rotate(-1.08)"/><ellipse cx="180.14" cy="64.03" rx="4.01" ry="5.25" transform="translate(-1.18 3.41) rotate(-1.08)"/><ellipse class="cls-20" cx="177.97" cy="60.55" rx="1.47" ry="1.76" transform="matrix(1, -0.02, 0.02, 1, -1.11, 3.37)"/><path class="cls-4" d="M171.87,73.7c-.05-2.82,3-5.17,6.76-5.24a7.9,7.9,0,0,1,5.42,1.84"/><path class="cls-4" d="M207.83,69.44a8.17,8.17,0,0,1,4.87-1.63c3.79-.07,6.9,2.17,7,5"/><path class="cls-5" d="M186.66,80.27a19.92,19.92,0,0,0,19.09-.87,9.57,9.57,0,0,1-9.45,7.71C187.46,87.28,186.66,80.27,186.66,80.27Z"/><g class="cls-21"><ellipse class="cls-22" cx="196.34" cy="89.09" rx="6.39" ry="3.72" transform="translate(-1.65 3.72) rotate(-1.08)"/><ellipse class="cls-20" cx="196.18" cy="80.77" rx="6.54" ry="3.9" transform="translate(-1.49 3.72) rotate(-1.08)"/></g><ellipse class="cls-23" cx="196.1" cy="74.59" rx="13.58" ry="8.13" transform="translate(-1.37 3.71) rotate(-1.08)"/><ellipse class="cls-13" cx="196.04" cy="71.35" rx="8.25" ry="4.26" transform="translate(-1.31 3.71) rotate(-1.08)"/><ellipse class="cls-24" cx="193.5" cy="68.82" rx="1.96" ry="0.98" transform="matrix(1, -0.02, 0.02, 1, -1.26, 3.66)"/><path class="cls-7" d="M175.39,61s1.2-3.8,4.85-3.87c0,0,2.61-.16,4.2,3,0,0-2-2.35-4.28-2.17s-4.72,2.27-5.3,5.64A6.56,6.56,0,0,1,175.39,61Z"/><path class="cls-7" d="M216.29,60.21s-1.35-3.75-5-3.68c0,0-2.61-.07-4.08,3.15,0,0,1.95-2.43,4.2-2.33s4.8,2.09,5.5,5.43A6.49,6.49,0,0,0,216.29,60.21Z"/><path class="cls-25" d="M173.82,70.08s3.28,4.13,8.53,1.12"/><path class="cls-25" d="M218.19,69.24s-3.12,4.26-8.47,1.45"/><path class="cls-7" d="M213,43.78a16.58,16.58,0,0,0-6.89-7.2,2.59,2.59,0,0,0-.56-.49l-2.65-1.79-.89-.61a3.16,3.16,0,0,0-.85-.45,6.88,6.88,0,0,1-1.28-.24c-.39-.19-.63-.6-.94-.92a2.5,2.5,0,0,0-3.95.86,15.48,15.48,0,0,0-11.34,4.65l0,0A16.52,16.52,0,0,0,178,44.44a3.07,3.07,0,0,0-.19,2.8,3.19,3.19,0,0,0,2.43,1.14c1.21.16,2.75.06,3.23-1.07a1.21,1.21,0,0,0,.89,1.35,2.9,2.9,0,0,0,1.74-.16,9.56,9.56,0,0,0,3.7-2.32,1.56,1.56,0,0,0,.57.23c1,.16,1.86-.66,2.45-1.48A14.29,14.29,0,0,0,195,40.45a7.28,7.28,0,0,0,4.61,4.47,3.06,3.06,0,0,0,.73.1A10.06,10.06,0,0,0,205,48.15a2.88,2.88,0,0,0,1.74.08,1.2,1.2,0,0,0,.84-1.37c.52,1.11,2.06,1.15,3.27.94a3.15,3.15,0,0,0,2.38-1.23A3.07,3.07,0,0,0,213,43.78Z"/><path class="cls-25" d="M187.63,50a24.49,24.49,0,0,0,15.57-.3"/><path class="cls-25" d="M190.19,52.13a16.54,16.54,0,0,0,10.54-.2"/><path class="cls-3" d="M187.06,114.56a59.94,59.94,0,0,1,1.32,13.5,116.72,116.72,0,0,0,1.76,18c3.79,5,.16,8.58.16,8.58-5.83,8-18,4.3-17.46-2.33s6-4.81,6-4.81c-4.39-17.75-4.82-29.95-4.82-29.95Z"/><g class="cls-26"><path class="cls-13" d="M171.47,137.83a21.73,21.73,0,0,0,20.49-2,46.28,46.28,0,0,1,6.71,17.59c.84,5.21.48,11.26-3.5,14.72-2,1.74-4.64,2.54-7.2,3.26-4.52,1.26-9.49,2.37-13.78.45-3.74-1.67-6.18-5.35-7.9-9.07a27.07,27.07,0,0,1-2.88-12.6c.23-4.34,2.12-8.73,5.63-11.3l-1.15.95"/></g><path class="cls-3" d="M206.8,114.56a59.64,59.64,0,0,0-1.31,13.5,117.51,117.51,0,0,1-1.77,18c-3.79,5-.16,8.58-.16,8.58,5.83,8,17.95,4.3,17.46-2.33s-6-4.81-6-4.81c4.39-17.75,4.82-29.95,4.82-29.95Z"/><g class="cls-27"><path class="cls-13" d="M222.39,137.83a21.73,21.73,0,0,1-20.49-2,46.28,46.28,0,0,0-6.71,17.59c-.84,5.21-.48,11.26,3.5,14.72,2,1.74,4.64,2.54,7.2,3.26,4.52,1.26,9.5,2.37,13.78.45,3.74-1.67,6.18-5.35,7.9-9.07a27.07,27.07,0,0,0,2.88-12.6c-.23-4.34-2.11-8.73-5.62-11.3l1.14.95"/></g><path class="cls-28" d="M187.16,101.44c-.73,1.56-1.54,3.78-.16,5.24s3.61.7,5.14,0l-.55-.14a4.45,4.45,0,0,0,4.18,2.49,4.51,4.51,0,0,0,3.87-2.86l-.68.18a5.74,5.74,0,0,0,4.13,1.91A3.12,3.12,0,0,0,206,106l-.74.09a2.93,2.93,0,0,0,4.57.56c1.52-1.69.34-4.27-1.17-5.51-.39-.32-1,.24-.56.57,1.12.92,2.24,2.79,1.29,4.2a2.08,2.08,0,0,1-3.43-.22.41.41,0,0,0-.74.09,2.36,2.36,0,0,1-2.42,1.63,5.27,5.27,0,0,1-3.22-1.69.41.41,0,0,0-.67.18,3.65,3.65,0,0,1-3.26,2.28,3.69,3.69,0,0,1-3.31-2.11.42.42,0,0,0-.55-.14c-1.19.56-3.1,1.3-4.17.15s-.28-3.06.28-4.26c.22-.47-.47-.88-.69-.41Z"/><circle class="cls-6" cx="182" cy="68.76" r="3.58" transform="translate(-11.19 91.75) rotate(-27.48)"/><g class="cls-29"><path class="cls-30" d="M181.59,64.32c-.63,1.13-1.22,2.27-1.78,3.44-.1.21-.18.48,0,.65a2.46,2.46,0,0,0,.27.17.67.67,0,0,1,.14.66,4.06,4.06,0,0,1-.41,1c-.39.76-.71,1.55-1,2.34-.08.19-.14.44,0,.57a.33.33,0,0,0,.4,0,1,1,0,0,0,.24-.37l1.51-3.33a.86.86,0,0,0,.08-.74c-.06-.1-.15-.17-.2-.27a.71.71,0,0,1,.11-.65l1.56-3a.4.4,0,0,0,.07-.3c0-.2-.3-.25-.51-.25"/></g><path class="cls-31" d="M182,73a4.2,4.2,0,1,1,4.19-4.21A4.21,4.21,0,0,1,182,73Zm0-7.68a3.48,3.48,0,1,0,3.49,3.47A3.48,3.48,0,0,0,182,65.28Z"/><path class="cls-32" d="M178.05,68.77a4,4,0,0,1,3.94-4"/><path class="cls-32" d="M185.58,68.85a3.54,3.54,0,0,1-3.47,3.49"/><circle class="cls-33" cx="178.07" cy="69.09" r="0.1"/><circle class="cls-33" cx="185.58" cy="68.59" r="0.1"/><circle class="cls-6" cx="210.12" cy="68.69" r="3.58" transform="translate(-7.99 104.72) rotate(-27.48)"/><g class="cls-34"><path class="cls-30" d="M209.71,64.25c-.63,1.13-1.22,2.27-1.78,3.44-.1.21-.19.48,0,.65a1.78,1.78,0,0,0,.27.17.67.67,0,0,1,.14.66,4.06,4.06,0,0,1-.41,1c-.39.76-.71,1.55-1,2.34-.08.19-.14.44,0,.57a.33.33,0,0,0,.4,0,1,1,0,0,0,.24-.37L209,69.34a.86.86,0,0,0,.08-.74c-.06-.1-.15-.17-.2-.27a.71.71,0,0,1,.11-.65l1.55-3a.46.46,0,0,0,.08-.3c0-.2-.3-.25-.51-.25"/></g><path class="cls-31" d="M210.13,72.89a4.2,4.2,0,1,1,4.19-4.21A4.21,4.21,0,0,1,210.13,72.89Zm0-7.68a3.48,3.48,0,1,0,3.49,3.47A3.48,3.48,0,0,0,210.11,65.21Z"/><path class="cls-32" d="M206.17,68.7a4,4,0,0,1,3.94-4"/><path class="cls-32" d="M213.7,68.78a3.54,3.54,0,0,1-3.47,3.49"/><circle class="cls-33" cx="206.19" cy="69.02" r="0.1"/><circle class="cls-33" cx="213.7" cy="68.52" r="0.1"/><path class="cls-2" d="M206.36,68a.58.58,0,0,1-.26,0,24.8,24.8,0,0,0-20,0,.68.68,0,0,1-.91-.29.67.67,0,0,1,.28-.91,25.68,25.68,0,0,1,21.16-.07.67.67,0,0,1-.27,1.29Z"/><g class="cls-35"><path class="cls-36" d="M184.31,68.49s4.32-3.07,12-3.09A23.89,23.89,0,0,1,209,68.91l-4,2.52-18.57-.18Z"/></g><ellipse class="cls-33" cx="192.64" cy="65.15" rx="2.99" ry="0.22" transform="translate(-6.91 25.97) rotate(-7.58)"/><ellipse class="cls-33" cx="196.72" cy="64.83" rx="0.82" ry="0.19" transform="translate(-0.16 0.49) rotate(-0.14)"/></svg>