<svg id="Layer_1" data-name="Layer 1" xmlns="http://www.w3.org/2000/svg" xmlns:xlink="http://www.w3.org/1999/xlink" viewBox="0 0 260 168"><defs><style>.cls-1{fill:#c99343;}.cls-2{fill:#dda854;}.cls-3{fill:#e8ba67;}.cls-4{fill:#471e00;}.cls-5{fill:#d7fff4;opacity:0.3;}.cls-6{fill:#3d3dfc;}.cls-7{fill:#7a3100;}.cls-8{clip-path:url(#clip-path);}.cls-9{fill:#1e1101;}.cls-10{clip-path:url(#clip-path-2);}.cls-11{clip-path:url(#clip-path-3);}.cls-12{fill:#f7d19a;}.cls-13{fill:#301c00;}.cls-14{fill:#ce9849;}.cls-15{fill:#a06f20;}.cls-16{fill:#e2af5d;}.cls-17{fill:#d69936;}.cls-18{clip-path:url(#clip-path-4);}.cls-19{fill:#ffd38d;}.cls-20,.cls-30{fill:#fff;}.cls-21{clip-path:url(#clip-path-5);}.cls-22{fill:#c41e1e;}.cls-23{fill:#93621b;}.cls-24{fill:#7a4609;}.cls-25,.cls-32{fill:none;stroke-linecap:round;stroke-linejoin:round;}.cls-25{stroke:#d8a14a;stroke-width:0.27px;}.cls-26{clip-path:url(#clip-path-6);}.cls-27{fill:#f4b460;}.cls-28{fill:#db9f58;}.cls-29{clip-path:url(#clip-path-7);}.cls-30{opacity:0.21;}.cls-31{fill:#2e2eef;}.cls-32{stroke:#457fff;stroke-width:0.09px;}.cls-33{fill:#457fff;}.cls-34{clip-path:url(#clip-path-8);}.cls-35{clip-path:url(#clip-path-9);}.cls-36{fill:#2d2de8;}</style><clipPath id="clip-path"><path class="cls-1" d="M78.41,115.58c-1.63-.52-3.38-1-5-.52a6.11,6.11,0,0,0-3.5,3.59,11,11,0,0,0,3,12.46,4.93,4.93,0,0,0-5.39.86,3.81,3.81,0,0,0-.08,5.21,5.76,5.76,0,0,0,3.35,1.25,22.26,22.26,0,0,0,6.91-.27,6.51,6.51,0,0,0,3.89-1.92,7.18,7.18,0,0,0,1.23-4.17c.14-2,.19-4,.15-6-.08-3.58-.66-7.56-3.46-9.8l.9,1.1"/></clipPath><clipPath id="clip-path-2"><path class="cls-1" d="M105.53,116.09c1.64-.45,3.41-.9,5-.33a6.11,6.11,0,0,1,3.36,3.72,11,11,0,0,1-3.5,12.34,4.93,4.93,0,0,1,5.35,1.06,3.79,3.79,0,0,1-.11,5.21,5.7,5.7,0,0,1-3.4,1.12,22.19,22.19,0,0,1-6.89-.53,6.55,6.55,0,0,1-3.82-2.06,7.3,7.3,0,0,1-1.07-4.22c-.06-2,0-4,.08-6,.21-3.57.94-7.53,3.82-9.66l-.93,1.07"/></clipPath><clipPath id="clip-path-3"><path class="cls-2" d="M75.54,113.68c5.37-12.2,6.18-20.62,6.18-20.62h.58l10,2.28,10.13-1.89h.58s.5,8.44,5.4,20.83,1,22.31-16.78,22h-.2C73.68,135.93,70.2,125.83,75.54,113.68Z"/></clipPath><clipPath id="clip-path-4"><path class="cls-3" d="M74.14,89.48a6.73,6.73,0,0,1-1.36-4.09c.09-4.3,4.48-7.71,9.82-7.6,4.52.08,8.25,2.65,9.25,6,.24,0,.48,0,.72,0s.46,0,.69,0c1.12-3.35,4.95-5.78,9.47-5.7,5.34.11,9.6,3.68,9.52,8A6.55,6.55,0,0,1,110.89,90a7.74,7.74,0,0,1-4.61,3.19,11.7,11.7,0,0,1-3.84.57H102a15,15,0,0,1-2.57-.28,13.26,13.26,0,0,1-14.15-.27,15.47,15.47,0,0,1-2.59.19l-.24,0h-.18a11.58,11.58,0,0,1-3.92-.76A7.79,7.79,0,0,1,74.14,89.48Z"/></clipPath><clipPath id="clip-path-5"><path class="cls-4" d="M98.84,89a13.27,13.27,0,0,1-12.72-.59,6.37,6.37,0,0,0,6.29,5.14C98.31,93.66,98.84,89,98.84,89Z"/></clipPath><clipPath id="clip-path-6"><path class="cls-2" d="M100.43,115a39.89,39.89,0,0,0-.87,9,77.48,77.48,0,0,1-1.18,12c-2.53,3.35-.11,5.71-.11,5.71,3.89,5.32,12,2.87,11.64-1.55s-4-3.2-4-3.2a108.38,108.38,0,0,0,3.21-20Z"/></clipPath><clipPath id="clip-path-7"><circle class="cls-5" cx="101.02" cy="80.97" r="2.12"/></clipPath><clipPath id="clip-path-8"><circle class="cls-5" cx="84.39" cy="80.97" r="2.12"/></clipPath><clipPath id="clip-path-9"><path class="cls-6" d="M86.61,80.56a.29.29,0,0,0,.16,0,14.68,14.68,0,0,1,11.82,0A.4.4,0,0,0,99,79.8a15.21,15.21,0,0,0-12.52,0,.4.4,0,0,0-.2.53A.39.39,0,0,0,86.61,80.56Z"/></clipPath></defs><path class="cls-7" d="M106.17,91.93a2.86,2.86,0,0,1-1.25,5.14,1,1,0,0,1,0,1.39,2.37,2.37,0,0,1-1.39.62,10,10,0,0,1-8.65-2.69,6.1,6.1,0,0,1-7.71.44,2.91,2.91,0,0,1-4.86.25,2.21,2.21,0,0,1-2.67.55,2.24,2.24,0,0,1-1.07-2.51c-1-.19-1.39-1.43-1.33-2.45.17-3,2.54-5.63,5.34-6.84a19.34,19.34,0,0,1,9-1.07c2.8.2,5.78.69,7.82,2.62.76.71,1.53,1.67,2.56,1.59a7.31,7.31,0,0,0,1.21-.36,2.67,2.67,0,0,1,3.14,3.7"/><path class="cls-1" d="M78.41,115.58c-1.63-.52-3.38-1-5-.52a6.11,6.11,0,0,0-3.5,3.59,11,11,0,0,0,3,12.46,4.93,4.93,0,0,0-5.39.86,3.81,3.81,0,0,0-.08,5.21,5.76,5.76,0,0,0,3.35,1.25,22.26,22.26,0,0,0,6.91-.27,6.51,6.51,0,0,0,3.89-1.92,7.18,7.18,0,0,0,1.23-4.17c.14-2,.19-4,.15-6-.08-3.58-.66-7.56-3.46-9.8l.9,1.1"/><g class="cls-8"><path class="cls-9" d="M67.55,125.35a7.85,7.85,0,0,0,6.11.59,23.51,23.51,0,0,0,5.68-2.71,38.65,38.65,0,0,1,7.85,5,13.12,13.12,0,0,1,4.54,7.95,12.15,12.15,0,0,1-4.45,10.28A21.53,21.53,0,0,1,76.67,151c-5.17.85-11.21.19-14.42-3.94a12.61,12.61,0,0,1-2.07-4.34,20.34,20.34,0,0,1,3.1-17.33,1.18,1.18,0,0,1,.7-.55c.31,0,.65.28.49.55"/></g><path class="cls-1" d="M105.53,116.09c1.64-.45,3.41-.9,5-.33a6.11,6.11,0,0,1,3.36,3.72,11,11,0,0,1-3.5,12.34,4.93,4.93,0,0,1,5.35,1.06,3.79,3.79,0,0,1-.11,5.21,5.7,5.7,0,0,1-3.4,1.12,22.19,22.19,0,0,1-6.89-.53,6.55,6.55,0,0,1-3.82-2.06,7.3,7.3,0,0,1-1.07-4.22c-.06-2,0-4,.08-6,.21-3.57.94-7.53,3.82-9.66l-.93,1.07"/><g class="cls-10"><path class="cls-9" d="M116,126.27a7.89,7.89,0,0,1-6.13.36,23.36,23.36,0,0,1-5.57-2.93,38.41,38.41,0,0,0-8,4.75,13.05,13.05,0,0,0-4.83,7.78c-.6,3.84,1.2,7.79,4.06,10.44a21.52,21.52,0,0,0,10.43,4.88c5.13,1,11.19.62,14.56-3.39a12.78,12.78,0,0,0,2.23-4.26,20.37,20.37,0,0,0-2.45-17.43,1.14,1.14,0,0,0-.68-.58c-.3-.06-.66.26-.51.53"/></g><path class="cls-2" d="M75.54,113.68c5.37-12.2,6.18-20.62,6.18-20.62h.58l10,2.28,10.13-1.89h.58s.5,8.44,5.4,20.83,1,22.31-16.78,22h-.2C73.68,135.93,70.2,125.83,75.54,113.68Z"/><g class="cls-11"><ellipse class="cls-12" cx="91.59" cy="135.57" rx="23.88" ry="11.7" transform="translate(-45.68 224.59) rotate(-88.92)"/><ellipse class="cls-13" cx="106.04" cy="105.44" rx="3.21" ry="5.15" transform="translate(-1.39 209.47) rotate(-88.92)"/><ellipse class="cls-13" cx="78.15" cy="100.38" rx="3.21" ry="5.15" transform="matrix(0.02, -1, 1, 0.02, -23.69, 176.62)"/><ellipse class="cls-13" cx="107.44" cy="98.87" rx="3.21" ry="5.15" transform="translate(6.56 204.43) rotate(-88.92)"/><ellipse class="cls-14" cx="92.44" cy="90.87" rx="7.98" ry="14.62" transform="translate(-0.16 181.58) rotate(-88.92)"/></g><ellipse class="cls-15" cx="92.37" cy="94.19" rx="3.24" ry="8.19" transform="matrix(0.02, -1, 1, 0.02, -3.54, 184.77)"/><path class="cls-16" d="M79.14,65a11.93,11.93,0,0,0-9.92-.65c-5.76,2-5.06,4.76-2.94,8.43s9.13,12.53,18.39,2.65C84.67,75.41,83.68,66.33,79.14,65Z"/><path class="cls-12" d="M79.54,67.77a9.71,9.71,0,0,0-8.06-.37c-4.72,1.7-4.2,3.89-2.52,6.8s7.25,9.93,14.93,1.86C83.89,76.06,83.21,68.79,79.54,67.77Z"/><circle class="cls-17" cx="79.6" cy="72.12" r="3.86" transform="translate(-4.32 139.16) rotate(-80.79)"/><path class="cls-16" d="M106.7,65.5a12,12,0,0,1,9.94-.28c5.68,2.24,4.88,5,2.62,8.54s-9.6,12.18-18.48,2C100.78,75.72,102.12,66.68,106.7,65.5Z"/><path class="cls-12" d="M106.19,68.27a9.75,9.75,0,0,1,8.08-.07c4.65,1.88,4,4,2.26,6.9s-7.62,9.65-15,1.3C101.53,76.4,102.49,69.15,106.19,68.27Z"/><circle class="cls-17" cx="105.97" cy="72.61" r="3.86" transform="translate(-6.22 10.04) rotate(-5.27)"/><circle class="cls-3" cx="92.7" cy="77.15" r="15.71" transform="matrix(0.11, -0.99, 0.99, 0.11, 5.55, 160.51)"/><path class="cls-3" d="M74.14,89.48a6.73,6.73,0,0,1-1.36-4.09c.09-4.3,4.48-7.71,9.82-7.6,4.52.08,8.25,2.65,9.25,6,.24,0,.48,0,.72,0s.46,0,.69,0c1.12-3.35,4.95-5.78,9.47-5.7,5.34.11,9.6,3.68,9.52,8A6.55,6.55,0,0,1,110.89,90a7.74,7.74,0,0,1-4.61,3.19,11.7,11.7,0,0,1-3.84.57H102a15,15,0,0,1-2.57-.28,13.26,13.26,0,0,1-14.15-.27,15.47,15.47,0,0,1-2.59.19l-.24,0h-.18a11.58,11.58,0,0,1-3.92-.76A7.79,7.79,0,0,1,74.14,89.48Z"/><g class="cls-18"><circle class="cls-15" cx="92.41" cy="92.56" r="12.71"/></g><ellipse class="cls-15" cx="92.39" cy="93.26" rx="1.68" ry="12.57" transform="translate(-2.6 183.88) rotate(-88.92)"/><ellipse class="cls-19" cx="103.11" cy="77.39" rx="5.38" ry="4.13" transform="translate(23.79 179.02) rotate(-88.92)"/><ellipse class="cls-19" cx="82.2" cy="76.99" rx="5.38" ry="4.13" transform="translate(3.66 157.72) rotate(-88.92)"/><path class="cls-7" d="M105.56,75.41a1.62,1.62,0,0,0,1.57-.89,2,2,0,0,1-.7,2,.49.49,0,0,1-.31.14.46.46,0,0,1-.38-.32,1.09,1.09,0,0,1,0-.83l.11.24"/><path class="cls-7" d="M105.74,76.8a1.66,1.66,0,0,0,1.58-.89,2,2,0,0,1-.71,2,.52.52,0,0,1-.31.14.48.48,0,0,1-.37-.33,1,1,0,0,1,0-.82l.1.23"/><path class="cls-7" d="M79.73,74.92A1.6,1.6,0,0,1,78.2,74a2,2,0,0,0,.62,2,.48.48,0,0,0,.31.15.45.45,0,0,0,.39-.31,1.06,1.06,0,0,0,0-.82l-.11.23"/><path class="cls-7" d="M79.5,76.3a1.62,1.62,0,0,1-1.54-1,2,2,0,0,0,.63,2,.48.48,0,0,0,.3.15.46.46,0,0,0,.39-.31,1.06,1.06,0,0,0,0-.82l-.11.23"/><ellipse class="cls-20" cx="82.18" cy="77.78" rx="4.59" ry="3.51" transform="translate(2.87 158.48) rotate(-88.92)"/><ellipse cx="82.18" cy="77.78" rx="3.5" ry="2.67" transform="translate(2.87 158.48) rotate(-88.92)"/><ellipse class="cls-20" cx="83.63" cy="75.46" rx="1.17" ry="0.98" transform="translate(6.6 157.65) rotate(-88.92)"/><path class="cls-7" d="M105.64,73.11a5.13,5.13,0,0,0-2.48-.65,6,6,0,0,0-1.2.23l-.65.22a4.22,4.22,0,0,1-.71.24,4.56,4.56,0,0,1,.4-.67,4.2,4.2,0,0,1,.58-.53,2.86,2.86,0,0,1,1.53-.55A2.51,2.51,0,0,1,105.64,73.11Z"/><path class="cls-7" d="M79.76,72.62A2.51,2.51,0,0,1,82.35,71a2.83,2.83,0,0,1,1.51.61,4.08,4.08,0,0,1,.55.55,3.8,3.8,0,0,1,.38.68,5.69,5.69,0,0,1-.7-.26l-.64-.24a5.52,5.52,0,0,0-1.19-.28A5.13,5.13,0,0,0,79.76,72.62Z"/><ellipse class="cls-20" cx="103.18" cy="78.17" rx="4.59" ry="3.51" transform="translate(23.08 179.86) rotate(-88.92)"/><ellipse cx="103.18" cy="78.17" rx="3.5" ry="2.67" transform="translate(23.08 179.86) rotate(-88.92)"/><ellipse class="cls-20" cx="104.63" cy="75.86" rx="1.17" ry="0.98" transform="translate(26.81 179.03) rotate(-88.92)"/><path class="cls-3" d="M108.69,84.62c0-1.88-2-3.45-4.51-3.5a5.28,5.28,0,0,0-3.6,1.23"/><path class="cls-3" d="M84.73,81.78a5.46,5.46,0,0,0-3.25-1.09c-2.52,0-4.59,1.44-4.63,3.33"/><path class="cls-4" d="M98.84,89a13.27,13.27,0,0,1-12.72-.59,6.37,6.37,0,0,0,6.29,5.14C98.31,93.66,98.84,89,98.84,89Z"/><g class="cls-21"><ellipse class="cls-22" cx="92.39" cy="94.87" rx="2.48" ry="4.26" transform="translate(-4.21 185.45) rotate(-88.92)"/><ellipse class="cls-20" cx="92.49" cy="89.33" rx="2.6" ry="4.36" transform="translate(1.43 180.12) rotate(-88.92)"/></g><ellipse class="cls-23" cx="92.54" cy="85.21" rx="5.42" ry="9.05" transform="translate(5.61 176.13) rotate(-88.92)"/><ellipse class="cls-13" cx="92.59" cy="83.05" rx="2.84" ry="5.5" transform="translate(7.81 174.05) rotate(-88.92)"/><ellipse class="cls-24" cx="94.28" cy="81.36" rx="0.65" ry="1.31" transform="translate(11.15 174.09) rotate(-88.92)"/><path class="cls-7" d="M106.35,76.14s-.81-2.53-3.24-2.58a3.15,3.15,0,0,0-2.8,2s1.37-1.56,2.86-1.44a4.29,4.29,0,0,1,3.53,3.75A4.38,4.38,0,0,0,106.35,76.14Z"/><path class="cls-7" d="M79.09,75.63s.9-2.5,3.33-2.46a3.16,3.16,0,0,1,2.73,2.1s-1.31-1.61-2.8-1.55a4.31,4.31,0,0,0-3.67,3.62A4.27,4.27,0,0,1,79.09,75.63Z"/><path class="cls-25" d="M107.39,82.21a4.32,4.32,0,0,1-5.68.74"/><path class="cls-25" d="M77.82,81.65a4.32,4.32,0,0,0,5.65,1"/><path class="cls-7" d="M81.3,64.68a11.1,11.1,0,0,1,4.6-4.8,1.89,1.89,0,0,1,.37-.32L88,58.36l.6-.4a2.17,2.17,0,0,1,.56-.3A4.73,4.73,0,0,0,90,57.5c.27-.13.43-.41.63-.62a1.68,1.68,0,0,1,2.64.58,10.26,10.26,0,0,1,7.55,3.1h0a11.19,11.19,0,0,1,3.77,4.55,2.05,2.05,0,0,1,.12,1.86,2.12,2.12,0,0,1-1.62.77c-.81.1-1.83,0-2.15-.71a.8.8,0,0,1-.59.89,1.93,1.93,0,0,1-1.16-.1,6.59,6.59,0,0,1-2.47-1.55,1,1,0,0,1-.38.15c-.66.11-1.23-.44-1.63-1a9.51,9.51,0,0,1-1.44-3,4.81,4.81,0,0,1-3.07,3,2,2,0,0,1-.49.06,6.68,6.68,0,0,1-3.13,2.09,2,2,0,0,1-1.17.06.8.8,0,0,1-.55-.92c-.35.74-1.38.77-2.18.63a2.1,2.1,0,0,1-1.59-.82A2.07,2.07,0,0,1,81.3,64.68Z"/><path class="cls-25" d="M98.19,68.85a16.3,16.3,0,0,1-10.38-.2"/><path class="cls-25" d="M96.48,70.25a11,11,0,0,1-7-.14"/><path class="cls-2" d="M100.43,115a39.89,39.89,0,0,0-.87,9,77.48,77.48,0,0,1-1.18,12c-2.53,3.35-.11,5.71-.11,5.71,3.89,5.32,12,2.87,11.64-1.55s-4-3.2-4-3.2a108.38,108.38,0,0,0,3.21-20Z"/><g class="cls-26"><path class="cls-13" d="M110.82,130.48a14.51,14.51,0,0,1-13.66-1.35,31.16,31.16,0,0,0-4.47,11.73c-.55,3.47-.31,7.5,2.34,9.8a12,12,0,0,0,4.8,2.17c3,.85,6.32,1.59,9.18.31,2.49-1.12,4.11-3.57,5.26-6a18,18,0,0,0,1.92-8.39,9.94,9.94,0,0,0-3.75-7.53l.77.63"/></g><path class="cls-27" d="M98,103.37c.36.79.88,2,.24,2.78s-2,.34-2.83,0a.26.26,0,0,0-.36.1,2.4,2.4,0,0,1-4.38-.12.28.28,0,0,0-.45-.12,3.43,3.43,0,0,1-2.12,1.12A1.56,1.56,0,0,1,86.5,106,.27.27,0,0,0,86,106a1.38,1.38,0,0,1-2.33.08c-.55-1,.18-2.12.91-2.73.26-.22-.12-.6-.38-.38-1,.84-1.81,2.57-.76,3.69a2,2,0,0,0,3-.39l-.48-.06a2.06,2.06,0,0,0,1.83,1.46,3.81,3.81,0,0,0,2.82-1.27l-.45-.12a2.94,2.94,0,0,0,5.36.25l-.37.09c1,.49,2.53,1,3.45,0s.35-2.44-.13-3.47c-.14-.31-.6,0-.46.27Z"/><path class="cls-2" d="M70.43,110.41l4.4,5.64A8.92,8.92,0,0,0,77,118.21a2.94,2.94,0,0,0,2.89.25,2.86,2.86,0,0,0,1.32-2.06,6.6,6.6,0,0,0-.17-2.5,23,23,0,0,0-.82-2.92,6,6,0,0,0-1.94-3,3.46,3.46,0,0,0-3.59-.21,6.15,6.15,0,0,0-1.31,1A4.41,4.41,0,0,0,71.77,111a1.63,1.63,0,0,1-.83-.66.05.05,0,0,0,0,0"/><path class="cls-13" d="M74.77,113.15a4.2,4.2,0,0,0,3.87-2.57c.66-1.73.06-3.66,0-5.52,0-.93.06-1.87-.07-2.79A3.14,3.14,0,0,0,77.19,100a1.7,1.7,0,0,0-2.37.66A2.7,2.7,0,0,0,70,101.79a2.15,2.15,0,0,0-3,2.71,8.12,8.12,0,0,0,1.17,1.65,13.88,13.88,0,0,1,1.39,3.06,6.9,6.9,0,0,0,2,2.61A6.07,6.07,0,0,0,74.77,113.15Z"/><ellipse class="cls-28" cx="72.95" cy="103.2" rx="1.4" ry="1.81" transform="translate(-15.12 12.55) rotate(-8.92)"/><ellipse class="cls-28" cx="76.32" cy="103.07" rx="1.4" ry="1.81" transform="translate(-3.7 2.84) rotate(-2.08)"/><ellipse class="cls-28" cx="69.81" cy="104.83" rx="1.4" ry="1.81" transform="translate(-43.35 49.54) rotate(-30.3)"/><ellipse class="cls-28" cx="74.47" cy="108.9" rx="2.41" ry="2.29" transform="translate(-15.98 12.86) rotate(-8.92)"/><circle class="cls-5" cx="101.02" cy="80.97" r="2.12"/><g class="cls-29"><path class="cls-30" d="M101.25,78.35c.38.66.73,1.34,1.06,2,.06.13.11.29,0,.39s-.11.06-.15.1a.39.39,0,0,0-.09.39,2.45,2.45,0,0,0,.24.58,14.36,14.36,0,0,1,.62,1.39c0,.11.09.26,0,.33a.18.18,0,0,1-.24,0,.54.54,0,0,1-.15-.21l-.89-2c-.06-.14-.13-.3,0-.43s.09-.1.12-.16a.46.46,0,0,0-.07-.39l-.92-1.75a.26.26,0,0,1,0-.17c0-.12.18-.15.3-.16"/></g><path class="cls-31" d="M98.54,81A2.49,2.49,0,1,1,101,83.45,2.49,2.49,0,0,1,98.54,81ZM99,81a2.06,2.06,0,1,0,2-2.06A2.05,2.05,0,0,0,99,81Z"/><path class="cls-32" d="M103.36,81A2.34,2.34,0,0,0,101,78.63"/><path class="cls-32" d="M98.9,81a2.09,2.09,0,0,0,2.06,2"/><circle class="cls-33" cx="103.35" cy="81.16" r="0.06"/><circle class="cls-33" cx="98.9" cy="80.87" r="0.06"/><circle class="cls-5" cx="84.39" cy="80.97" r="2.12"/><g class="cls-34"><path class="cls-30" d="M84.63,78.35c.37.66.73,1.34,1.06,2,0,.13.11.29,0,.39s-.1.06-.15.1a.39.39,0,0,0-.09.39,2.48,2.48,0,0,0,.25.58c.23.45.42.92.62,1.39,0,.11.08.26,0,.33a.18.18,0,0,1-.24,0,.43.43,0,0,1-.14-.21l-.9-2a.51.51,0,0,1-.05-.43c0-.06.09-.1.12-.16a.43.43,0,0,0-.07-.39l-.92-1.75a.26.26,0,0,1-.05-.17c0-.12.18-.15.3-.16"/></g><path class="cls-31" d="M81.91,81a2.49,2.49,0,1,1,2.49,2.48A2.5,2.5,0,0,1,81.91,81Zm.43,0a2.06,2.06,0,1,0,2.06-2.06A2.05,2.05,0,0,0,82.34,81Z"/><path class="cls-32" d="M86.73,81a2.34,2.34,0,0,0-2.34-2.34"/><path class="cls-32" d="M82.28,81a2.07,2.07,0,0,0,2,2"/><circle class="cls-33" cx="86.72" cy="81.16" r="0.06"/><circle class="cls-33" cx="82.28" cy="80.87" r="0.06"/><path class="cls-6" d="M86.61,80.56a.29.29,0,0,0,.16,0,14.68,14.68,0,0,1,11.82,0A.4.4,0,0,0,99,79.8a15.21,15.21,0,0,0-12.52,0,.4.4,0,0,0-.2.53A.39.39,0,0,0,86.61,80.56Z"/><g class="cls-35"><path class="cls-36" d="M99.65,80.81A12.94,12.94,0,0,0,92.58,79a14.11,14.11,0,0,0-7.52,2.1l2.36,1.48,11-.13Z"/></g><ellipse class="cls-33" cx="94.72" cy="78.85" rx="0.13" ry="1.77" transform="matrix(0.13, -0.99, 0.99, 0.13, 4.28, 162.58)"/><ellipse class="cls-33" cx="92.31" cy="78.67" rx="0.49" ry="0.11"/></svg>