<svg id="Layer_1" data-name="Layer 1" xmlns="http://www.w3.org/2000/svg" xmlns:xlink="http://www.w3.org/1999/xlink" viewBox="0 0 260 168"><defs><style>.cls-1{fill:#c99343;}.cls-2{fill:#d7fff4;opacity:0.3;}.cls-3{fill:#3d3dfc;}.cls-4{fill:#dda854;}.cls-5{fill:#e8ba67;}.cls-42,.cls-6{fill:#fff;}.cls-7{fill:#471e00;}.cls-8{fill:#7a3100;}.cls-9{clip-path:url(#clip-path);}.cls-10{fill:#1e1101;}.cls-11{clip-path:url(#clip-path-2);}.cls-12{clip-path:url(#clip-path-3);}.cls-13{fill:#f7d19a;}.cls-14{fill:#301c00;}.cls-15{fill:#ce9849;}.cls-16{fill:#a06f20;}.cls-17{fill:#e2af5d;}.cls-18{fill:#d69936;}.cls-19{clip-path:url(#clip-path-4);}.cls-20{fill:#ffd38d;}.cls-21{clip-path:url(#clip-path-5);}.cls-22{clip-path:url(#clip-path-6);}.cls-23{clip-path:url(#clip-path-7);}.cls-24{fill:#c41e1e;}.cls-25{fill:#93621b;}.cls-26{fill:#7a4609;}.cls-27,.cls-39,.cls-44{fill:none;}.cls-27{stroke:#d8a14a;stroke-width:0.26px;}.cls-27,.cls-44{stroke-linecap:round;stroke-linejoin:round;}.cls-28{clip-path:url(#clip-path-8);}.cls-29{fill:#f4b460;}.cls-30{fill:#ddd;}.cls-31{fill:#bcbcbc;}.cls-32{fill:#919191;}.cls-33{fill:#f4f4f4;}.cls-34{fill:#d6d6d6;}.cls-35{fill:#d88f25;}.cls-36{fill:#bf7d26;}.cls-37{fill:#ce8421;}.cls-38{fill:#e89d43;}.cls-39{stroke:#fff;stroke-miterlimit:10;stroke-width:0.23px;}.cls-40{fill:#ffce61;}.cls-41{clip-path:url(#clip-path-9);}.cls-42{opacity:0.21;}.cls-43{fill:#2e2eef;}.cls-44{stroke:#457fff;stroke-width:0.09px;}.cls-45{fill:#457fff;}.cls-46{clip-path:url(#clip-path-10);}.cls-47{clip-path:url(#clip-path-11);}.cls-48{fill:#2d2de8;}</style><clipPath id="clip-path"><path class="cls-1" d="M98.91,88.46c1.57-.46,3.27-.93,4.83-.41a5.91,5.91,0,0,1,3.3,3.53,10.58,10.58,0,0,1-3.14,11.93,4.76,4.76,0,0,1,5.17.92,3.66,3.66,0,0,1,0,5,5.53,5.53,0,0,1-3.25,1.15,21.78,21.78,0,0,1-6.64-.39,6.33,6.33,0,0,1-3.71-1.92,6.94,6.94,0,0,1-1.11-4q-.15-2.88,0-5.76c.14-3.45.77-7.27,3.5-9.37l-.88,1"/></clipPath><clipPath id="clip-path-2"><path class="cls-1" d="M72.79,88.46c-1.57-.46-3.27-.93-4.82-.41a5.9,5.9,0,0,0-3.31,3.53,10.58,10.58,0,0,0,3.15,11.93,4.76,4.76,0,0,0-5.17.92,3.67,3.67,0,0,0,0,5,5.58,5.58,0,0,0,3.25,1.15,21.84,21.84,0,0,0,6.65-.39,6.36,6.36,0,0,0,3.71-1.92,7,7,0,0,0,1.11-4q.13-2.88,0-5.76c-.14-3.45-.77-7.27-3.51-9.37l.89,1"/></clipPath><clipPath id="clip-path-3"><path class="cls-4" d="M101.7,86.68A78.41,78.41,0,0,1,96,65l-1.14-.89-9,4.67-9.71-2h-.56S75,74.85,70,86.68s-1.38,21.46,15.75,21.53H86C103.09,108.14,106.62,98.48,101.7,86.68Z"/></clipPath><clipPath id="clip-path-4"><path class="cls-5" d="M102.18,60.22a6.42,6.42,0,0,0,.65-4.1c-.74-4.08-5.45-6.63-10.51-5.71-4.27.78-7.43,3.8-7.85,7.18l-.68.1-.65.14c-1.59-3-5.6-4.73-9.88-3.95-5.06.92-8.56,5-7.82,9a6.42,6.42,0,0,0,1.89,3.45,7.47,7.47,0,0,0,4.88,2.32A11.22,11.22,0,0,0,76,68.64l.16,0,.21,0a13.62,13.62,0,0,0,2.4-.66,12.82,12.82,0,0,0,13.41-2.44,13.39,13.39,0,0,0,2.48-.23l.23,0,.17,0a11,11,0,0,0,3.61-1.32A7.52,7.52,0,0,0,102.18,60.22Z"/></clipPath><clipPath id="clip-path-5"><ellipse class="cls-6" cx="92.72" cy="50.34" rx="3.38" ry="4.42" transform="translate(-7.52 17.43) rotate(-10.32)"/></clipPath><clipPath id="clip-path-6"><ellipse class="cls-6" cx="72.83" cy="53.96" rx="3.38" ry="4.42" transform="translate(-8.49 13.92) rotate(-10.32)"/></clipPath><clipPath id="clip-path-7"><path class="cls-7" d="M78.63,63.57a12.79,12.79,0,0,0,12-2.52,6.14,6.14,0,0,1-5.19,5.86C79.86,67.93,78.63,63.57,78.63,63.57Z"/></clipPath><clipPath id="clip-path-8"><path class="cls-4" d="M77.72,87.47a38.59,38.59,0,0,1,.68,8.68,74.17,74.17,0,0,0,.91,11.58c2.37,3.28,0,5.51,0,5.51-3.83,5-11.56,2.54-11.17-1.71s3.91-3,3.91-3a104.06,104.06,0,0,1-2.73-19.27Z"/></clipPath><clipPath id="clip-path-9"><circle class="cls-2" cx="75.08" cy="56.25" r="2.12" transform="translate(-17.4 40.48) rotate(-27.16)"/></clipPath><clipPath id="clip-path-10"><circle class="cls-2" cx="91.31" cy="52.65" r="2.12" transform="translate(-13.97 47.5) rotate(-27.16)"/></clipPath><clipPath id="clip-path-11"><path class="cls-3" d="M89.06,52.73a.43.43,0,0,1-.16,0,14.71,14.71,0,0,0-11.55,2.55.4.4,0,0,1-.56-.05.41.41,0,0,1,0-.56A15.18,15.18,0,0,1,89.05,52a.4.4,0,0,1,.32.47A.41.41,0,0,1,89.06,52.73Z"/></clipPath></defs><path class="cls-8" d="M72.62,65.2a2.75,2.75,0,0,0,1.11,5,.93.93,0,0,0,0,1.33,2.25,2.25,0,0,0,1.32.63A9.64,9.64,0,0,0,83.4,69.7a5.89,5.89,0,0,0,7.42.55,2.8,2.8,0,0,0,4.67.34,2.07,2.07,0,0,0,3.63-1.83c1-.15,1.36-1.35,1.33-2.33-.11-2.93-2.35-5.46-5-6.68a18.55,18.55,0,0,0-8.63-1.19c-2.7.14-5.58.56-7.58,2.37-.74.68-1.5,1.59-2.49,1.49a6,6,0,0,1-1.16-.37,2.57,2.57,0,0,0-3.09,3.51"/><path class="cls-1" d="M98.91,88.46c1.57-.46,3.27-.93,4.83-.41a5.91,5.91,0,0,1,3.3,3.53,10.58,10.58,0,0,1-3.14,11.93,4.76,4.76,0,0,1,5.17.92,3.66,3.66,0,0,1,0,5,5.53,5.53,0,0,1-3.25,1.15,21.78,21.78,0,0,1-6.64-.39,6.33,6.33,0,0,1-3.71-1.92,6.94,6.94,0,0,1-1.11-4q-.15-2.88,0-5.76c.14-3.45.77-7.27,3.5-9.37l-.88,1"/><g class="cls-9"><path class="cls-10" d="M109.18,98.07a7.56,7.56,0,0,1-5.89.45,22.18,22.18,0,0,1-5.42-2.71,37.47,37.47,0,0,0-7.65,4.71,12.66,12.66,0,0,0-4.51,7.58,11.68,11.68,0,0,0,4.1,10,20.53,20.53,0,0,0,10.13,4.51c5,.92,10.78.4,14-3.53a12.16,12.16,0,0,0,2.07-4.13,19.62,19.62,0,0,0-2.67-16.74,1.16,1.16,0,0,0-.67-.55c-.29,0-.62.27-.48.52"/></g><path class="cls-1" d="M72.79,88.46c-1.57-.46-3.27-.93-4.82-.41a5.9,5.9,0,0,0-3.31,3.53,10.58,10.58,0,0,0,3.15,11.93,4.76,4.76,0,0,0-5.17.92,3.67,3.67,0,0,0,0,5,5.58,5.58,0,0,0,3.25,1.15,21.84,21.84,0,0,0,6.65-.39,6.36,6.36,0,0,0,3.71-1.92,7,7,0,0,0,1.11-4q.13-2.88,0-5.76c-.14-3.45-.77-7.27-3.51-9.37l.89,1"/><g class="cls-11"><path class="cls-10" d="M62.52,98.07a7.57,7.57,0,0,0,5.89.45,22,22,0,0,0,5.42-2.71,37.2,37.2,0,0,1,7.65,4.71A12.66,12.66,0,0,1,86,108.1a11.65,11.65,0,0,1-4.1,10,20.5,20.5,0,0,1-10.12,4.51c-5,.92-10.79.4-14-3.53a12.14,12.14,0,0,1-2.06-4.13,19.59,19.59,0,0,1,2.67-16.74,1.15,1.15,0,0,1,.66-.55c.29,0,.63.27.48.52"/></g><path class="cls-4" d="M101.7,86.68A78.41,78.41,0,0,1,96,65l-1.14-.89-9,4.67-9.71-2h-.56S75,74.85,70,86.68s-1.38,21.46,15.75,21.53H86C103.09,108.14,106.62,98.48,101.7,86.68Z"/><g class="cls-12"><ellipse class="cls-13" cx="85.85" cy="107.47" rx="11.26" ry="22.99"/><ellipse class="cls-14" cx="72.5" cy="78.2" rx="4.95" ry="3.09"/><ellipse class="cls-14" cx="99.44" cy="73.83" rx="4.95" ry="3.09"/><ellipse class="cls-14" cx="71.27" cy="71.85" rx="4.95" ry="3.09"/><ellipse class="cls-15" cx="85.42" cy="63.51" rx="14.07" ry="7.68" transform="translate(-7.33 11.28) rotate(-7.25)"/></g><ellipse class="cls-16" cx="85.58" cy="67.51" rx="7.89" ry="3.12" transform="translate(-10.71 16.43) rotate(-10.32)"/><path class="cls-17" d="M93.63,37.7A11.54,11.54,0,0,1,103,35.55c5.79,1,5.55,3.74,4.1,7.56S100.32,56.43,90,48.47C90,48.47,89.53,39.69,93.63,37.7Z"/><path class="cls-13" d="M93.68,40.42a9.38,9.38,0,0,1,7.61-1.6c4.75.88,4.59,3,3.44,6.07S99.38,55.45,90.83,49C90.83,49,90.35,42,93.68,40.42Z"/><circle class="cls-18" cx="94.3" cy="44.56" r="3.72"/><path class="cls-17" d="M67.53,42.46A11.48,11.48,0,0,0,58,43.74c-5,3-3.87,5.45-1.17,8.51s11,10.09,17.86-1C74.73,51.25,72.06,42.87,67.53,42.46Z"/><path class="cls-13" d="M68.44,45a9.36,9.36,0,0,0-7.69,1.18c-4.13,2.5-3.21,4.47-1.08,6.9s8.73,8,14.45-1.08C74.12,52,72.1,45.28,68.44,45Z"/><circle class="cls-18" cx="69.32" cy="49.11" r="3.72" transform="translate(13.83 113.44) rotate(-84.54)"/><circle class="cls-5" cx="82.63" cy="51.36" r="15.13" transform="translate(-14.11 41.03) rotate(-25.77)"/><path class="cls-5" d="M102.18,60.22a6.42,6.42,0,0,0,.65-4.1c-.74-4.08-5.45-6.63-10.51-5.71-4.27.78-7.43,3.8-7.85,7.18l-.68.1-.65.14c-1.59-3-5.6-4.73-9.88-3.95-5.06.92-8.56,5-7.82,9a6.42,6.42,0,0,0,1.89,3.45,7.47,7.47,0,0,0,4.88,2.32A11.22,11.22,0,0,0,76,68.64l.16,0,.21,0a13.62,13.62,0,0,0,2.4-.66,12.82,12.82,0,0,0,13.41-2.44,13.39,13.39,0,0,0,2.48-.23l.23,0,.17,0a11,11,0,0,0,3.61-1.32A7.52,7.52,0,0,0,102.18,60.22Z"/><g class="cls-19"><circle class="cls-16" cx="85.29" cy="65.97" r="12.23" transform="translate(-20.2 43.64) rotate(-25.77)"/></g><ellipse class="cls-16" cx="85.42" cy="66.63" rx="12.1" ry="1.62" transform="translate(-10.56 16.38) rotate(-10.32)"/><ellipse class="cls-20" cx="72.78" cy="53.2" rx="3.98" ry="5.18" transform="translate(-8.36 13.9) rotate(-10.32)"/><ellipse class="cls-20" cx="92.59" cy="49.59" rx="3.98" ry="5.18" transform="translate(-7.39 17.39) rotate(-10.32)"/><path class="cls-8" d="M70.14,51.7a1.55,1.55,0,0,1-1.63-.6,2,2,0,0,0,1,1.76.53.53,0,0,0,.32.08.44.44,0,0,0,.31-.37,1,1,0,0,0-.16-.78l-.06.24"/><path class="cls-8" d="M70.18,53.05a1.58,1.58,0,0,1-1.63-.6,2,2,0,0,0,1,1.75.47.47,0,0,0,.32.08.42.42,0,0,0,.3-.36,1,1,0,0,0-.15-.78l-.06.24"/><path class="cls-8" d="M94.61,47.25a1.56,1.56,0,0,0,1.31-1.14,2,2,0,0,1-.29,2,.38.38,0,0,1-.68,0,1,1,0,0,1-.13-.78l.14.2"/><path class="cls-8" d="M95.05,48.52a1.56,1.56,0,0,0,1.31-1.14,2,2,0,0,1-.29,2,.52.52,0,0,1-.27.19.45.45,0,0,1-.41-.24,1,1,0,0,1-.13-.78l.14.2"/><ellipse class="cls-6" cx="92.72" cy="50.34" rx="3.38" ry="4.42" transform="translate(-7.52 17.43) rotate(-10.32)"/><g class="cls-21"><path d="M96.58,51.56c-.33-1.83-1.74-3.11-3.14-2.85a2.09,2.09,0,0,0-.78.34,1.16,1.16,0,0,1,.58.83,1,1,0,0,1-.72,1.27.93.93,0,0,1-.94-.47,4.16,4.16,0,0,0-.07,1.8c.34,1.83,1.74,3.11,3.14,2.86S96.91,53.39,96.58,51.56Z"/></g><path class="cls-8" d="M69.71,49.53a2.42,2.42,0,0,1,2.14-2,2.84,2.84,0,0,1,1.54.29,3.84,3.84,0,0,1,.63.42,3.23,3.23,0,0,1,.48.57,5,5,0,0,1-.71-.12l-.65-.11a5.15,5.15,0,0,0-1.17,0A5,5,0,0,0,69.71,49.53Z"/><path class="cls-8" d="M94.23,45.06a4.79,4.79,0,0,0-2.46-.13,5,5,0,0,0-1.09.44l-.57.33a6.15,6.15,0,0,1-.63.36,3.79,3.79,0,0,1,.26-.71,4.83,4.83,0,0,1,.43-.61,2.9,2.9,0,0,1,1.35-.81A2.41,2.41,0,0,1,94.23,45.06Z"/><ellipse class="cls-6" cx="72.83" cy="53.96" rx="3.38" ry="4.42" transform="translate(-8.49 13.92) rotate(-10.32)"/><g class="cls-22"><path d="M76.69,55.7c-.06-1.86-1.27-3.33-2.69-3.28a2.14,2.14,0,0,0-.82.23,1.13,1.13,0,0,1,.45.9,1,1,0,0,1-.9,1.16,1,1,0,0,1-.86-.6,4.05,4.05,0,0,0-.32,1.77c.06,1.86,1.27,3.33,2.69,3.28S76.76,57.56,76.69,55.7Z"/></g><path class="cls-5" d="M68.59,60.94c-.32-1.79,1.35-3.59,3.74-4a5.07,5.07,0,0,1,3.62.6"/><path class="cls-5" d="M90.92,54.53A5.25,5.25,0,0,1,93.84,53c2.39-.44,4.59.66,4.91,2.44"/><path class="cls-7" d="M78.63,63.57a12.79,12.79,0,0,0,12-2.52,6.14,6.14,0,0,1-5.19,5.86C79.86,67.93,78.63,63.57,78.63,63.57Z"/><g class="cls-23"><ellipse class="cls-24" cx="85.67" cy="68.16" rx="4.1" ry="2.38" transform="translate(-10.83 16.45) rotate(-10.32)"/><ellipse class="cls-6" cx="84.71" cy="62.9" rx="4.2" ry="2.5" transform="translate(-9.9 16.2) rotate(-10.32)"/></g><ellipse class="cls-25" cx="84.03" cy="59" rx="8.71" ry="5.21" transform="translate(-9.21 16.01) rotate(-10.32)"/><ellipse class="cls-14" cx="83.65" cy="56.95" rx="5.29" ry="2.73" transform="translate(-8.85 15.91) rotate(-10.32)"/><ellipse class="cls-26" cx="81.78" cy="55.61" rx="1.26" ry="0.63" transform="translate(-8.64 15.55) rotate(-10.32)"/><path class="cls-8" d="M69.51,52.52a3.59,3.59,0,0,1,2.67-3,3,3,0,0,1,3,1.46,4,4,0,0,0-2.94-.93,4.14,4.14,0,0,0-2.77,4.12A4.33,4.33,0,0,1,69.51,52.52Z"/><path class="cls-8" d="M95.32,47.82A3.58,3.58,0,0,0,91.78,46a3,3,0,0,0-2.26,2.42s1-1.74,2.42-1.91a4.14,4.14,0,0,1,4,2.87A4.2,4.2,0,0,0,95.32,47.82Z"/><path class="cls-27" d="M69.46,58.44A4.15,4.15,0,0,0,75,58.27"/><path class="cls-27" d="M97.46,53.34a4.17,4.17,0,0,1-5.22,1.79"/><path class="cls-8" d="M91.53,37.75a10.67,10.67,0,0,0-5.11-3.84,1.53,1.53,0,0,0-.4-.26l-1.86-.86-.63-.29a2.1,2.1,0,0,0-.58-.2,4.56,4.56,0,0,1-.83,0,2.23,2.23,0,0,1-.69-.49,1.62,1.62,0,0,0-2.42,1,9.94,9.94,0,0,0-6.7,4.11h0a10.67,10.67,0,0,0-2.87,4.9,2,2,0,0,0,.17,1.8,2,2,0,0,0,1.65.47c.79,0,1.75-.25,1.94-1a.77.77,0,0,0,.7.76A1.86,1.86,0,0,0,75,43.51a6.21,6.21,0,0,0,2.1-1.85,1,1,0,0,0,.38.09c.65,0,1.11-.61,1.4-1.19a9.16,9.16,0,0,0,.91-3.06,4.66,4.66,0,0,0,3.38,2.35,1.48,1.48,0,0,0,.47,0,6.4,6.4,0,0,0,3.3,1.5,1.79,1.79,0,0,0,1.12-.13.76.76,0,0,0,.38-1c.45.64,1.43.51,2.17.26a2,2,0,0,0,1.38-1A2,2,0,0,0,91.53,37.75Z"/><path class="cls-27" d="M76.13,44.33A15.71,15.71,0,0,0,86,42.54"/><path class="cls-27" d="M78,45.39a10.66,10.66,0,0,0,6.65-1.21"/><path class="cls-4" d="M77.72,87.47a38.59,38.59,0,0,1,.68,8.68,74.17,74.17,0,0,0,.91,11.58c2.37,3.28,0,5.51,0,5.51-3.83,5-11.56,2.54-11.17-1.71s3.91-3,3.91-3a104.06,104.06,0,0,1-2.73-19.27Z"/><g class="cls-28"><path class="cls-14" d="M67.44,102.21a14,14,0,0,0,13.17-1,29.79,29.79,0,0,1,4.09,11.36c.47,3.35.17,7.23-2.43,9.4a11.67,11.67,0,0,1-4.65,2c-2.92.76-6.12,1.41-8.85.13-2.38-1.12-3.9-3.51-5-5.92A17.33,17.33,0,0,1,62.12,110a9.59,9.59,0,0,1,3.74-7.18l-.74.59"/></g><path class="cls-29" d="M79.79,76.09c-.48,1-1,2.39-.18,3.33s2.31.52,3.32.07l-.35-.1a2.82,2.82,0,0,0,5.13-.08l-.4,0a3.66,3.66,0,0,0,2.63,1.27,2,2,0,0,0,1.85-1.38l-.47.06a1.88,1.88,0,0,0,2.9.43c1-1.07.28-2.74-.67-3.57-.25-.22-.61.15-.36.36.68.6,1.36,1.73.82,2.64a1.33,1.33,0,0,1-2.25-.12.26.26,0,0,0-.47.06,1.54,1.54,0,0,1-1.8,1A3.68,3.68,0,0,1,87.67,79a.25.25,0,0,0-.4,0,2.32,2.32,0,0,1-4.25.08.27.27,0,0,0-.35-.09c-.79.35-2.07.82-2.72,0s-.08-1.92.28-2.67c.15-.3-.3-.56-.44-.26Z"/><path class="cls-4" d="M106.89,87a5.69,5.69,0,0,1-2,.81A9.51,9.51,0,0,1,101,88a4.44,4.44,0,0,1-3.17-2.15,3,3,0,0,1,.61-3.6,5.05,5.05,0,0,1,2.12-.8c2.13-.43,5.82-1.67,7.77-.17S108.31,85.92,106.89,87Z"/><path class="cls-30" d="M107.71,80.32c-1.1-3.08-4.71-.88-4.71-.88l0,.63s2.91-1.75,3.8.71c0,0,.54,4.18-4.2,4.44l0,.59C108.38,85.49,107.71,80.32,107.71,80.32Z"/><path class="cls-31" d="M99.34,87.41,92.63,88l.1,1.1c0,.5,1.83,1.39,4.11,1.4s4.11-.84,4.12-1.35l.22-.91Z"/><path class="cls-32" d="M99.35,87l-6.72.56.1,1.1c0,.5,1.84,1.39,4.11,1.4S101,89.21,101,88.7l.22-.91Z"/><path class="cls-33" d="M104.61,77.14l-13.86-.52-1.5.42s.61,7.28,2.85,11.12c.31.63,2.3,1.74,4.71,1.76s4.4-1.08,4.72-1.7h0C103.87,84.41,104.61,77.14,104.61,77.14Z"/><ellipse class="cls-34" cx="96.93" cy="77.09" rx="2.06" ry="7.68" transform="translate(19.21 173.51) rotate(-89.62)"/><path class="cls-6" d="M104.61,77.33a1.15,1.15,0,0,1-.59.82,5.45,5.45,0,0,1-.94.46,11.72,11.72,0,0,1-2,.51,25.08,25.08,0,0,1-4.15.34,26.13,26.13,0,0,1-4.14-.39,13.86,13.86,0,0,1-2-.54,5.5,5.5,0,0,1-.94-.47,1.17,1.17,0,0,1-.57-.83,1.12,1.12,0,0,0,.61.78,4.39,4.39,0,0,0,.94.41,11.23,11.23,0,0,0,2,.49A29.41,29.41,0,0,0,101,79a12.37,12.37,0,0,0,2-.47,5.3,5.3,0,0,0,.95-.4A1.12,1.12,0,0,0,104.61,77.33Z"/><ellipse class="cls-35" cx="96.89" cy="77.28" rx="1.76" ry="7.46" transform="translate(18.97 173.66) rotate(-89.62)"/><path class="cls-36" d="M96.9,75.89c3.85,0,7,.73,7.4,1.62a.39.39,0,0,0,0-.18c0-1-3.32-1.79-7.44-1.81s-7.46.74-7.47,1.71a.72.72,0,0,0,0,.19C89.87,76.53,93.05,75.86,96.9,75.89Z"/><path class="cls-37" d="M102.6,77.32c0,.27-.27.44-.49.58a3.73,3.73,0,0,1-.71.31,10,10,0,0,1-1.53.36,20.21,20.21,0,0,1-6.21,0,11.65,11.65,0,0,1-1.52-.38,5,5,0,0,1-.71-.32c-.21-.14-.46-.32-.47-.59,0,.27.29.41.5.53a3.84,3.84,0,0,0,.72.25,11.2,11.2,0,0,0,1.51.3,26.4,26.4,0,0,0,3.08.2,24.1,24.1,0,0,0,3.07-.16,11.28,11.28,0,0,0,1.52-.28,4.34,4.34,0,0,0,.72-.24C102.3,77.73,102.56,77.58,102.6,77.32Z"/><path class="cls-38" d="M92,76.6a12.53,12.53,0,0,1,2.64-.49,11,11,0,0,1,2.69.07c-.9.11-1.78.16-2.66.25S92.87,76.59,92,76.6Z"/><path class="cls-38" d="M94,77a10.17,10.17,0,0,1,3-.43c.5,0,1,0,1.5.07a12.14,12.14,0,0,1,1.47.23A48.71,48.71,0,0,0,94,77Z"/><path class="cls-39" d="M92.05,81.17c-.24-2.53.3-2.68.3-2.68a1.06,1.06,0,0,1,1.08.14"/><rect class="cls-40" x="91.32" y="81.03" width="2.02" height="2.66" transform="translate(-18.15 26.66) rotate(-14.98)"/><rect class="cls-6" x="91.56" y="82.18" width="1.81" height="1.35" transform="translate(-18.27 26.71) rotate(-14.98)"/><path class="cls-35" d="M92.93,78.6a5.37,5.37,0,0,0,.66-.07l.09.15A.81.81,0,0,1,92.93,78.6Z"/><path class="cls-10" d="M104.2,79.15a1.78,1.78,0,0,0-.24,2,1.07,1.07,0,0,1,.24.49.93.93,0,0,1-.15.41,10.79,10.79,0,0,0-1.12,2.8,2.47,2.47,0,0,0,.14,2,2.68,2.68,0,0,0,2,.89,3.62,3.62,0,0,0,2.14-.21,3.71,3.71,0,0,0,1.39-1.72c1.12-2.22,1.86-4.65.32-6.88C107.89,77.35,105.32,77.76,104.2,79.15Z"/><circle class="cls-2" cx="75.08" cy="56.25" r="2.12" transform="translate(-17.4 40.48) rotate(-27.16)"/><g class="cls-41"><path class="cls-42" d="M74.29,53.74c-.23.73-.43,1.46-.6,2.21,0,.13,0,.3.07.37s.11,0,.17.07a.38.38,0,0,1,.17.36,2.68,2.68,0,0,1-.11.63c-.13.48-.22,1-.31,1.48,0,.12,0,.27.08.33a.19.19,0,0,0,.23-.07.44.44,0,0,0,.09-.24l.45-2.12a.49.49,0,0,0,0-.43s-.11-.08-.15-.13a.43.43,0,0,1,0-.4l.52-1.9a.23.23,0,0,0,0-.18c0-.12-.21-.11-.33-.09"/></g><path class="cls-43" d="M75.62,58.67a2.48,2.48,0,1,1,1.88-3A2.49,2.49,0,0,1,75.62,58.67Zm-1-4.43a2.06,2.06,0,1,0,2.46,1.56A2.06,2.06,0,0,0,74.63,54.24Z"/><path class="cls-44" d="M72.8,56.75A2.33,2.33,0,0,1,74.58,54"/><path class="cls-44" d="M77.16,55.85A2.08,2.08,0,0,1,75.6,58.3"/><circle class="cls-45" cx="72.85" cy="56.94" r="0.06"/><circle class="cls-45" cx="77.13" cy="55.7" r="0.06"/><circle class="cls-2" cx="91.31" cy="52.65" r="2.12" transform="translate(-13.97 47.5) rotate(-27.16)"/><g class="cls-46"><path class="cls-42" d="M90.52,50.14c-.22.73-.42,1.47-.59,2.21,0,.13-.05.3.06.38s.12,0,.17.07a.38.38,0,0,1,.17.36,2.6,2.6,0,0,1-.11.62c-.13.49-.22,1-.31,1.49,0,.12,0,.27.08.32a.21.21,0,0,0,.24-.07.63.63,0,0,0,.09-.24l.45-2.11a.51.51,0,0,0,0-.44s-.11-.08-.15-.13a.41.41,0,0,1,0-.39l.53-1.91a.28.28,0,0,0,0-.18c0-.11-.2-.1-.32-.08"/></g><path class="cls-43" d="M91.85,55.08a2.48,2.48,0,1,1,1.89-3A2.48,2.48,0,0,1,91.85,55.08Zm-1-4.43a2.05,2.05,0,1,0,2.45,1.56A2,2,0,0,0,90.87,50.65Z"/><path class="cls-44" d="M89,53.16a2.34,2.34,0,0,1,1.77-2.79"/><path class="cls-44" d="M93.39,52.25a2.09,2.09,0,0,1-1.56,2.46"/><circle class="cls-45" cx="89.09" cy="53.34" r="0.06"/><circle class="cls-45" cx="93.36" cy="52.1" r="0.06"/><path class="cls-3" d="M89.06,52.73a.43.43,0,0,1-.16,0,14.71,14.71,0,0,0-11.55,2.55.4.4,0,0,1-.56-.05.41.41,0,0,1,0-.56A15.18,15.18,0,0,1,89.05,52a.4.4,0,0,1,.32.47A.41.41,0,0,1,89.06,52.73Z"/><g class="cls-47"><path class="cls-48" d="M76.38,55.8a13,13,0,0,1,6.52-3.29,14.14,14.14,0,0,1,7.79.41l-2,2L78,57.13Z"/></g><ellipse class="cls-45" cx="80.77" cy="52.82" rx="1.77" ry="0.13" transform="translate(-13.16 30.68) rotate(-19.92)"/><ellipse class="cls-45" cx="83.09" cy="52.12" rx="0.49" ry="0.11" transform="translate(-9.3 19.19) rotate(-12.48)"/></svg>