<svg id="Layer_4" data-name="Layer 4" xmlns="http://www.w3.org/2000/svg" xmlns:xlink="http://www.w3.org/1999/xlink" viewBox="0 0 260 168"><defs><style>.cls-1,.cls-80,.cls-84{fill:none;}.cls-2{fill:#c7ffe8;}.cls-3{fill:#ffbd76;}.cls-4{fill:#f2a64c;}.cls-5{fill:#ffba5f;}.cls-6{fill:#f4a64a;}.cls-7{fill:#ce9645;}.cls-8{fill:#f4b10b;}.cls-9{fill:#ffc627;}.cls-10{fill:#f2a040;}.cls-11{fill:#7a3100;}.cls-12{fill:#dda854;}.cls-13{fill:#e8ba67;}.cls-14{fill:#d7fff4;opacity:0.41;}.cls-15{fill:#3d3dfc;}.cls-16{fill:red;}.cls-17{clip-path:url(#clip-path);}.cls-18{fill:#fff1d7;}.cls-19{fill:#966845;}.cls-20{fill:#7c522f;}.cls-21{clip-path:url(#clip-path-2);}.cls-22{fill:#b0edd3;}.cls-23{fill:#f7e4c4;}.cls-24{fill:#8fdbb9;opacity:0.44;}.cls-25{fill:#c97523;}.cls-26{clip-path:url(#clip-path-3);}.cls-27,.cls-31{fill:#f9e295;}.cls-28{clip-path:url(#clip-path-4);}.cls-29{fill:#dd8b31;}.cls-30{clip-path:url(#clip-path-5);}.cls-31{opacity:0.29;}.cls-32{clip-path:url(#clip-path-6);}.cls-33{clip-path:url(#clip-path-7);}.cls-34{fill:#e20000;}.cls-35{fill:#f40303;}.cls-36{clip-path:url(#clip-path-8);}.cls-37{clip-path:url(#clip-path-9);}.cls-38{fill:#e59135;}.cls-39{clip-path:url(#clip-path-10);}.cls-40{fill:#efa154;}.cls-41{clip-path:url(#clip-path-11);}.cls-42{fill:#db0000;}.cls-43,.cls-44{fill:#ff7676;}.cls-43{opacity:0.58;}.cls-45{fill:#bfb5a5;}.cls-46,.cls-82{fill:#fff;}.cls-47{fill:#382304;}.cls-48{clip-path:url(#clip-path-12);}.cls-49{clip-path:url(#clip-path-13);}.cls-50{clip-path:url(#clip-path-14);}.cls-51{clip-path:url(#clip-path-15);}.cls-52{fill:#0400b5;}.cls-53{fill:#1800ff;}.cls-54{fill:#0500cc;}.cls-55{fill:#0068ff;}.cls-56{clip-path:url(#clip-path-16);}.cls-57{fill:#301c00;}.cls-58{clip-path:url(#clip-path-17);}.cls-59{fill:#f2940c;}.cls-60{clip-path:url(#clip-path-18);}.cls-61{fill:#ffd364;}.cls-62{clip-path:url(#clip-path-19);}.cls-63{clip-path:url(#clip-path-20);}.cls-64{clip-path:url(#clip-path-21);}.cls-65{clip-path:url(#clip-path-22);}.cls-66{clip-path:url(#clip-path-23);}.cls-67{clip-path:url(#clip-path-24);}.cls-68{clip-path:url(#clip-path-25);}.cls-69{fill:#662a01;}.cls-70{clip-path:url(#clip-path-26);}.cls-71{fill:#f7d19a;}.cls-72{fill:#d19a4a;}.cls-73{fill:#682c02;}.cls-74{fill:#471e00;}.cls-75{fill:#c41e1e;}.cls-76{clip-path:url(#clip-path-27);}.cls-77{fill:#a06f20;}.cls-78{fill:#7a4609;}.cls-79{fill:#ffd38d;}.cls-80{stroke:#d8a14a;stroke-width:0.22px;}.cls-80,.cls-84{stroke-linecap:round;stroke-linejoin:round;}.cls-81{clip-path:url(#clip-path-28);}.cls-82{opacity:0.21;}.cls-83{fill:#2e2eef;}.cls-84{stroke:#457fff;stroke-width:0.08px;}.cls-85{clip-path:url(#clip-path-29);}.cls-86{fill:#2d2de8;}.cls-87{fill:#457fff;}.cls-88{clip-path:url(#clip-path-30);}.cls-89{fill:#c68f3e;}.cls-90{clip-path:url(#clip-path-31);}</style><clipPath id="clip-path"><path class="cls-1" d="M119.05,150.13c6.5,3.47,17.67,5.76,30.37,5.76,10.66,0,20.26-1.61,26.9-4.19a24.31,24.31,0,0,0,12.05,2.91c8.57,0,15.64-3.69,16.78-8.48h.18c12,0,21.76-9.11,21.76-20.34a19.66,19.66,0,0,0-6.74-14.71,17.63,17.63,0,0,0,6.74-13.74,17.14,17.14,0,0,0-2.53-9,17.81,17.81,0,0,0,8.22-14.82c0-9.08-7.14-16.6-16.47-17.93a14,14,0,0,0,.44-3.49c0-9.15-8.69-16.56-19.41-16.56A21.29,21.29,0,0,0,184.14,40c-6.57-3.61-16.41-5.9-27.41-5.9-9.32,0-17.8,1.64-24.16,4.33a23,23,0,0,0-12.5-3.71c-13.38,0-24.23,11.61-24.23,25.94a27.26,27.26,0,0,0,2.69,11.88A27.22,27.22,0,0,0,95,86.07a26.9,26.9,0,0,0,6.14,17.25A26.84,26.84,0,0,0,94.6,121a27.2,27.2,0,0,0,3.92,14.14,17.28,17.28,0,0,0-.24,2.81c0,8.24,5.9,14.92,13.17,14.92A12.11,12.11,0,0,0,119.05,150.13Zm66.11-15,.65-.33.15.26Z"/></clipPath><clipPath id="clip-path-2"><rect class="cls-2" x="57.86" y="115.1" width="193.86" height="51.6"/></clipPath><clipPath id="clip-path-3"><rect class="cls-10" x="127.18" y="87.02" width="28" height="7.72"/></clipPath><clipPath id="clip-path-4"><path class="cls-4" d="M121.8,109.44a9.05,9.05,0,0,1,2,9.87l-.33,0a2.23,2.23,0,1,0,.87,4.37,2.37,2.37,0,0,0,1.81-1.54c.88-1.5,3-6.22.07-13.63-3.57-9.09.71-11,.71-11l-9.52.6S116.29,103.81,121.8,109.44Z"/></clipPath><clipPath id="clip-path-5"><path class="cls-4" d="M160.27,109.44a9.05,9.05,0,0,0-2,9.87l.33,0a2.23,2.23,0,1,1-.87,4.37,2.39,2.39,0,0,1-1.81-1.54c-.88-1.5-3-6.22-.07-13.63,3.57-9.09-.7-11-.7-11l9.51.6S165.78,103.81,160.27,109.44Z"/></clipPath><clipPath id="clip-path-6"><path class="cls-5" d="M155.63,70.72c2.5-10.55,5.63-16.11-4.77-18.09a4.17,4.17,0,0,0-3.69-3C146.89,47,144.24,45,141,45s-5.87,2-6.16,4.64a4.17,4.17,0,0,0-3.72,3c-10.41,2-7.28,7.54-4.78,18.09s0,15,0,15c-1.43,4.4,14,3.83,14.64,3.81s16.08.59,14.64-3.81C155.63,85.7,153.14,81.28,155.63,70.72Z"/></clipPath><clipPath id="clip-path-7"><path class="cls-16" d="M149.68,54.76a6.7,6.7,0,0,0-8.67-1,6.7,6.7,0,0,0-8.67,1c-4.87.74-7.65,4.18-4.91,13.39a49,49,0,0,1,2,14.32A2.51,2.51,0,0,0,131,85l-.08,0S133.68,87,141,87c6.11,0,9.39-1.58,10.32-2.11a1.17,1.17,0,0,0,.28-.17h0a2.77,2.77,0,0,0,1-2.27,49,49,0,0,1,2-14.32C157.33,58.94,154.56,55.5,149.68,54.76Z"/></clipPath><clipPath id="clip-path-8"><path class="cls-5" d="M165.66,99.37a15.53,15.53,0,0,0-12.33-9.17L129,90.72s-9.15,2.87-12.23,8.48a2.29,2.29,0,0,0-.7,1.64v.71a2.28,2.28,0,0,0,1.18,2,.92.92,0,0,0,0,.28c0,1.18,2.68,2.13,6,2.13a15.54,15.54,0,0,0,3-.29c3,1.09,8.48,1.82,14.8,1.82s11.91-.74,14.86-1.84A14.91,14.91,0,0,0,159,106c3.32,0,6-1,6-2.13a.74.74,0,0,0-.05-.25,2.26,2.26,0,0,0,1.25-2v-.71A2.31,2.31,0,0,0,165.66,99.37Z"/></clipPath><clipPath id="clip-path-9"><path class="cls-6" d="M113.54,98s.11,5.47,27.8,5.47S172,95.92,172,95.92l.25,7.55-4.06,7.12-37.62.15-14.64-.55Z"/></clipPath><clipPath id="clip-path-10"><path class="cls-6" d="M116.72,99.2s2.13-8.07,0-13.13h2.94s1.8,8,0,13.4A3.16,3.16,0,0,1,116.72,99.2Z"/></clipPath><clipPath id="clip-path-11"><rect class="cls-3" x="114.37" y="84.81" width="5.55" height="2.52" rx="1.18"/></clipPath><clipPath id="clip-path-12"><path class="cls-4" d="M66.71,109.44a9.05,9.05,0,0,1,2,9.87l-.34,0a2.23,2.23,0,1,0,.88,4.37,2.39,2.39,0,0,0,1.81-1.54c.88-1.5,3-6.22.07-13.63-3.57-9.09.7-11,.7-11l-9.51.6S61.2,103.81,66.71,109.44Z"/></clipPath><clipPath id="clip-path-13"><path class="cls-4" d="M105.18,109.44a9.05,9.05,0,0,0-2,9.87l.33,0a2.23,2.23,0,1,1-.87,4.37,2.37,2.37,0,0,1-1.81-1.54c-.88-1.5-3-6.22-.07-13.63,3.57-9.09-.71-11-.71-11l9.52.6S110.69,103.81,105.18,109.44Z"/></clipPath><clipPath id="clip-path-14"><path class="cls-5" d="M110.56,99.37A15.5,15.5,0,0,0,98.23,90.2l-24.38.52s-9.14,2.87-12.22,8.48a2.29,2.29,0,0,0-.7,1.64v.71a2.28,2.28,0,0,0,1.18,2,.94.94,0,0,0-.06.28c0,1.18,2.69,2.13,6,2.13a15.57,15.57,0,0,0,3-.29c3,1.09,8.48,1.82,14.8,1.82s11.91-.74,14.86-1.84a14.84,14.84,0,0,0,3.14.31c3.31,0,6-1,6-2.13a1.09,1.09,0,0,0,0-.25,2.25,2.25,0,0,0,1.24-2v-.71A2.25,2.25,0,0,0,110.56,99.37Z"/></clipPath><clipPath id="clip-path-15"><path class="cls-6" d="M58.45,98s.1,5.47,27.8,5.47,30.64-7.55,30.64-7.55l.24,7.55-4,7.12-37.62.15-14.64-.55Z"/></clipPath><clipPath id="clip-path-16"><path class="cls-7" d="M191.15,96a6,6,0,0,0-4,3.11,19.09,19.09,0,0,0-1.68,4.94c-.06.24-.17.52-.41.54s-.43-.3-.5-.56a22.91,22.91,0,0,1-.72-4.88,3.76,3.76,0,0,0-.34-1.77,2.9,2.9,0,0,0-.78-.82,6.8,6.8,0,0,0-3.48-1.5,4.28,4.28,0,0,0-3.5,1.21,3.13,3.13,0,0,0-.52,3.55c.85,1.49,2.89,1.8,4.58,1.54a20,20,0,0,0,.5,4.76,6.64,6.64,0,0,0,2.61,3.9,5,5,0,0,0,4.9.27,8.76,8.76,0,0,0,2.74-2.48,31.81,31.81,0,0,0,2.71-4c1.09-1.88,2-4.15,1.25-6.19a2.37,2.37,0,0,0-1.22-1.44,1.29,1.29,0,0,0-1.67.52"/></clipPath><clipPath id="clip-path-17"><path class="cls-8" d="M180.87,97.86a4.6,4.6,0,0,0-2.78-.85l-.33-.1-.11.34h0c-.05.3.64.75,1.57,1s1.76.3,1.89,0h0l.1-.34Z"/></clipPath><clipPath id="clip-path-18"><ellipse class="cls-9" cx="179.48" cy="97.43" rx="0.56" ry="1.8" transform="translate(34.06 240.82) rotate(-73.09)"/></clipPath><clipPath id="clip-path-19"><path class="cls-8" d="M182,98.13a4.59,4.59,0,0,0-2.51-1.45l-.31-.18-.17.31h0c-.12.28.46.87,1.3,1.36s1.65.68,1.83.44h0l.18-.31Z"/></clipPath><clipPath id="clip-path-20"><ellipse class="cls-9" cx="180.74" cy="97.4" rx="0.56" ry="1.8" transform="translate(6.01 205.22) rotate(-60)"/></clipPath><clipPath id="clip-path-21"><path class="cls-8" d="M182.11,97.56a4.18,4.18,0,0,0-1.15-.92,4,4,0,0,0-1.37-.53l-.3-.17-.18.3v0c-.12.28.46.87,1.3,1.35s1.65.69,1.83.45h0l.18-.31Z"/></clipPath><clipPath id="clip-path-22"><ellipse class="cls-9" cx="180.85" cy="96.84" rx="0.56" ry="1.8" transform="translate(6.56 205.03) rotate(-60)"/></clipPath><clipPath id="clip-path-23"><path class="cls-8" d="M179.56,95.75a4.1,4.1,0,0,0-1.44.29,3.92,3.92,0,0,0-1.28.73l-.33.12.13.33v0c.14.27,1,.2,1.88-.14s1.57-.84,1.5-1.13h0l-.13-.33Z"/></clipPath><clipPath id="clip-path-24"><ellipse class="cls-9" cx="178.2" cy="96.26" rx="1.8" ry="0.56" transform="translate(-22.43 68.53) rotate(-20.51)"/></clipPath><clipPath id="clip-path-25"><path class="cls-11" d="M211.6,120.27a11.46,11.46,0,0,1,12.83-.55,2.67,2.67,0,0,0-1.77,1.24c1.37-.41,2.81.3,4.06,1l6.94,3.81a9.43,9.43,0,0,0-1.26.74,19.92,19.92,0,0,1-19.45,1,2.58,2.58,0,0,1,1,1.51,16.24,16.24,0,0,1-3.55-1.74,4.22,4.22,0,0,1-1.22-1.08,4.18,4.18,0,0,1-.23-3.5c.36-1.27,1.17-2.67,2.48-2.76"/></clipPath><clipPath id="clip-path-26"><path class="cls-12" d="M200,92.87c1.54.86,25.1,35.49,7.73,35.49-6.79,0-20.68-1.4-20.18-10S185.3,84.67,200,92.87Z"/></clipPath><clipPath id="clip-path-27"><path class="cls-13" d="M206.64,91.82a33.92,33.92,0,0,1-2.94,2.08c-8.55,6.06-16.27-.35-17.42-.78s-1.88-.24-4.95-.71-3.6-1.47-3.62-2.72c0-.69.75-.59.75-.59,3.9.75,4.89-1.69,5.51-2.08a28.79,28.79,0,0,0-3,0c-4.83-.43-4.95-2-4.95-2-.94-1.19-1.08-6.31,3.49-5.82,3.56.38,4-3,4.87-4.25,0,0,3-6.9,11.65-4.2s11.22,7.63,9.28,15.28c0,0,1.09,3.18,2,3.76l-.8.47.87.77Z"/></clipPath><clipPath id="clip-path-28"><ellipse class="cls-14" cx="186.47" cy="81.75" rx="2.38" ry="1.41" transform="translate(84.53 258) rotate(-83.63)"/></clipPath><clipPath id="clip-path-29"><path class="cls-15" d="M185.05,81.28s-1.33-2.23-3.22-2.66a.52.52,0,0,1,.2-.75,4.8,4.8,0,0,1,3.5,2.48s.29.48,0,.79S185.1,81.36,185.05,81.28Z"/></clipPath><clipPath id="clip-path-30"><path class="cls-12" d="M203.69,114.1s-7.48-1.84-7.66,5.41,6,8.34,6,8.34-4.24-1.59-5,3.19,11.64,2.59,10-2.45c-1.18-3.56-2.5-4.19-2.5-4.19s2.71,6.75,8.63,1.85"/></clipPath><clipPath id="clip-path-31"><path class="cls-12" d="M187.81,107.76s.78,10.35,1.3,14.42a14.9,14.9,0,0,1-.21,6.18s-3.17-1.93-3.34,1.87,5.62,3.89,7.74,2.17a3.08,3.08,0,0,0,1.08-4c-.23-.48.86-15.29.77-18"/></clipPath></defs><g class="cls-17"><rect class="cls-18" x="57.86" y="22.55" width="193.86" height="121.04"/><rect class="cls-19" x="57.86" y="107.28" width="193.86" height="32.71"/><rect class="cls-20" x="57.86" y="108.77" width="193.86" height="32.71"/><rect class="cls-2" x="57.86" y="115.1" width="193.86" height="51.6"/><g class="cls-21"><rect class="cls-22" x="154.16" y="107.55" width="1.26" height="51.1"/><polygon class="cls-22" points="114.3 158 113.07 157.9 144.62 108.19 145.85 108.3 114.3 158"/><polygon class="cls-22" points="73.89 156.54 72.74 156.35 128.08 109.65 129.24 109.84 73.89 156.54"/><polygon class="cls-22" points="20.11 153.73 19.1 153.45 100.56 112.46 101.57 112.74 20.11 153.73"/><polygon class="cls-22" points="198.28 158 199.51 157.9 167.95 108.19 166.72 108.3 198.28 158"/><polygon class="cls-22" points="238.68 156.54 239.83 156.35 184.49 109.65 183.34 109.84 238.68 156.54"/><polygon class="cls-22" points="294.01 153.73 295.03 153.45 213.57 112.46 212.55 112.74 294.01 153.73"/><rect class="cls-22" x="35.38" y="126.08" width="230.44" height="1.05"/></g><rect class="cls-23" x="70.61" y="40.05" width="10.97" height="5.2" rx="2.15"/><rect class="cls-23" x="76.09" y="46.61" width="10.97" height="5.2" rx="2.15"/><rect class="cls-23" x="233.76" y="28.07" width="10.97" height="5.2" rx="2.15"/><rect class="cls-23" x="229.23" y="35.02" width="10.97" height="5.2" rx="2.15"/><rect class="cls-23" x="197.86" y="73.89" width="10.97" height="5.2" rx="2.15"/><rect class="cls-23" x="149.31" y="57.67" width="10.97" height="5.2" rx="2.15"/><rect class="cls-23" x="157.72" y="50.51" width="10.97" height="5.2" rx="2.15"/><rect class="cls-23" x="206.02" y="79.84" width="10.97" height="5.2" rx="2.15"/><rect class="cls-23" x="75.66" y="98.18" width="10.97" height="5.2" rx="2.15"/><ellipse class="cls-24" cx="140.17" cy="120.72" rx="24.15" ry="4.41"/><path class="cls-25" d="M127.74,94.47s-.88,6.83.75,11.36a20.69,20.69,0,0,1,1.13,10.29c-.37,1.72,1.55,2.82,2.93.61s.46-9,0-12.76,1-9.41,1-9.41Z"/><path class="cls-25" d="M154.51,94.47s.88,6.83-.74,11.36a20.61,20.61,0,0,0-1.14,10.29c.37,1.72-1.55,2.82-2.92.61s-.47-9,0-12.76-1-9.41-1-9.41Z"/><rect class="cls-10" x="127.18" y="87.02" width="28" height="7.72"/><g class="cls-26"><rect class="cls-27" x="124.45" y="84.81" width="3.51" height="12.74"/></g><path class="cls-4" d="M121.8,109.44a9.05,9.05,0,0,1,2,9.87l-.33,0a2.23,2.23,0,1,0,.87,4.37,2.37,2.37,0,0,0,1.81-1.54c.88-1.5,3-6.22.07-13.63-3.57-9.09.71-11,.71-11l-9.52.6S116.29,103.81,121.8,109.44Z"/><g class="cls-28"><path class="cls-29" d="M124,95.53s-1.78,5.43,1,12.76,2.4,9.35.91,12.53a2.26,2.26,0,0,0-1.24-1.08s1.53,1.77-1,2.83-2.21-1-2.3-1.54l-.41,2.55,1.19,2,7.66-.38,7.13-7.79-8.18-20.71Z"/><path class="cls-27" d="M118.36,96.06s-.17,7.44,3.75,12.29,3.22,8,1.9,11a6.86,6.86,0,0,0-.91-.17c-.21,0-8.37-18.4-8.37-18.4Z"/></g><ellipse class="cls-27" cx="123.06" cy="120.34" rx="0.76" ry="0.51" transform="translate(-21.22 26.49) rotate(-11.32)"/><path class="cls-4" d="M160.27,109.44a9.05,9.05,0,0,0-2,9.87l.33,0a2.23,2.23,0,1,1-.87,4.37,2.39,2.39,0,0,1-1.81-1.54c-.88-1.5-3-6.22-.07-13.63,3.57-9.09-.7-11-.7-11l9.51.6S165.78,103.81,160.27,109.44Z"/><g class="cls-30"><path class="cls-29" d="M158,95.53s1.78,5.43-1,12.76-2.4,9.35-.91,12.53a2.27,2.27,0,0,1,1.23-1.08s-1.53,1.77.95,2.83,2.21-1,2.3-1.54l.41,2.55-1.19,2-7.66-.38-7.12-7.79,8.17-20.71Z"/><path class="cls-31" d="M163.71,96.06s.17,7.44-3.74,12.29-3.23,8-1.9,11a7,7,0,0,1,.9-.17c.21,0,8.38-18.4,8.38-18.4Z"/></g><ellipse class="cls-27" cx="159.02" cy="120.34" rx="0.51" ry="0.76" transform="translate(9.81 252.65) rotate(-78.68)"/><path class="cls-5" d="M155.63,70.72c2.5-10.55,5.63-16.11-4.77-18.09a4.17,4.17,0,0,0-3.69-3C146.89,47,144.24,45,141,45s-5.87,2-6.16,4.64a4.17,4.17,0,0,0-3.72,3c-10.41,2-7.28,7.54-4.78,18.09s0,15,0,15c-1.43,4.4,14,3.83,14.64,3.81s16.08.59,14.64-3.81C155.63,85.7,153.14,81.28,155.63,70.72Z"/><g class="cls-32"><path class="cls-27" d="M124.42,65.38s2.43,3.15,3.17,10.13a26.16,26.16,0,0,1-.48,10c0,.84-1.11,2.58,2.57,4.3l-.06,2L119,89.55l2-23.06Z"/></g><path class="cls-10" d="M154.27,70.61c2.27-9.73,5.11-14.85-4.33-16.67a3.81,3.81,0,0,0-3.34-2.76c-.26-2.4-2.66-4.28-5.59-4.28s-5.33,1.88-5.59,4.28a3.78,3.78,0,0,0-3.37,2.76c-9.44,1.82-6.6,6.94-4.34,16.67s0,13.79,0,13.79c-1.3,4,12.73,3.53,13.28,3.51s14.58.54,13.28-3.51C154.27,84.4,152,80.33,154.27,70.61Z"/><path class="cls-16" d="M149.68,54.76a6.7,6.7,0,0,0-8.67-1,6.7,6.7,0,0,0-8.67,1c-4.87.74-7.65,4.18-4.91,13.39a49,49,0,0,1,2,14.32A2.51,2.51,0,0,0,131,85l-.08,0S133.68,87,141,87c6.11,0,9.39-1.58,10.32-2.11a1.17,1.17,0,0,0,.28-.17h0a2.77,2.77,0,0,0,1-2.27,49,49,0,0,1,2-14.32C157.33,58.94,154.56,55.5,149.68,54.76Z"/><g class="cls-33"><path class="cls-34" d="M129.1,81.54a20,20,0,0,0,11,3.23c6.54,0,11.79-2.31,13.17-3.64l6.44-.09s3.13,10.73,0,10.73h-38.3l4.19-10.41Z"/><path class="cls-34" d="M125.45,70.85s-1-14.12,7-14.61c0,0,4.67-4,8.56-.86,0,0,4.33-3.07,8,.43,0,0,7.49.49,7.12,10.37l3.93-1.35-.8-13.63-29.52-1.9-11.3,9.33Z"/><path class="cls-34" d="M128.09,54.89a23.84,23.84,0,0,0,.18,13.26c2.15,7.61,2.38,11.89,2.36,14.31s-6,5.33-6,5.33l-1.9-31.18Z"/><path class="cls-34" d="M153.35,54.89a23.84,23.84,0,0,1-.18,13.26C151,75.76,150.79,80,150.81,82.46s6,5.33,6,5.33l1.9-31.18Z"/></g><ellipse class="cls-35" cx="135.86" cy="53.36" rx="0.84" ry="0.24" transform="translate(-6.18 19.74) rotate(-8.13)"/><ellipse class="cls-35" cx="134.54" cy="53.97" rx="0.59" ry="0.16" transform="translate(-9.57 38.26) rotate(-15.64)"/><path class="cls-34" d="M128.47,58.12s-1.21,1.41-1.12,4.91l-.63-3.92,1.18-1.6Z"/><path class="cls-34" d="M153.55,58s1,1.54.56,5l1.07-3.82-1-1.73Z"/><ellipse class="cls-34" cx="132.97" cy="63.76" rx="0.83" ry="2.36" transform="translate(-2.71 5.99) rotate(-2.56)"/><ellipse class="cls-34" cx="141.5" cy="63.76" rx="2.36" ry="0.83" transform="translate(75.53 204.24) rotate(-89.1)"/><ellipse class="cls-34" cx="150.01" cy="63.76" rx="2.36" ry="0.83" transform="translate(79.62 210.77) rotate(-87.44)"/><path class="cls-34" d="M132.73,66.6a.75.75,0,0,1,.52-.4h.16a.44.44,0,0,1,.16,0,.76.76,0,0,1,.31.16.21.21,0,0,0,.3-.3,1.22,1.22,0,0,0-1-.28,1.2,1.2,0,0,0-.8.6.21.21,0,0,0,.37.21Z"/><path class="cls-34" d="M131.92,61.25a1.24,1.24,0,0,0,1.89.07.21.21,0,0,0,0-.3.21.21,0,0,0-.29,0,.89.89,0,0,1-.68.28.92.92,0,0,1-.63-.35.21.21,0,0,0-.29,0,.22.22,0,0,0,0,.3Z"/><path class="cls-34" d="M140.79,61.06a.92.92,0,0,0,.83.54,2.08,2.08,0,0,0,1-.24.21.21,0,0,0,.07-.29.2.2,0,0,0-.28-.08,1.55,1.55,0,0,1-.69.19.7.7,0,0,1-.3-.06.43.43,0,0,1-.13-.09s0-.06,0,0,0-.07,0-.05a.21.21,0,0,0-.26-.14.21.21,0,0,0-.14.26Z"/><path class="cls-34" d="M140.84,66.42a.78.78,0,0,1,.69-.28,1.4,1.4,0,0,1,.78.38.22.22,0,0,0,.29,0,.21.21,0,0,0,0-.3,1.87,1.87,0,0,0-1.07-.5,1.2,1.2,0,0,0-1,.4.22.22,0,0,0,0,.3.21.21,0,0,0,.29,0Z"/><path class="cls-34" d="M149.39,61.3a1.88,1.88,0,0,0,1.53.41.19.19,0,0,0,.14-.25.21.21,0,0,0-.25-.15h-.31a1,1,0,0,1-.28,0,1.39,1.39,0,0,1-.27-.1l-.15-.08-.07-.05h0l0,0a.22.22,0,0,0-.3,0,.21.21,0,0,0,0,.29Z"/><path class="cls-34" d="M149.32,66.6a.72.72,0,0,1,.68-.3,1.23,1.23,0,0,1,.78.43c.19.19.49-.11.3-.3a1.69,1.69,0,0,0-1.11-.55,1.12,1.12,0,0,0-1,.5c-.15.23.21.44.36.22Z"/><ellipse class="cls-34" cx="141.5" cy="76.11" rx="2.36" ry="0.83" transform="translate(63.19 216.4) rotate(-89.1)"/><ellipse class="cls-34" cx="134.56" cy="75.25" rx="0.83" ry="2.36" transform="translate(-3.22 6.08) rotate(-2.56)"/><ellipse class="cls-34" cx="148.41" cy="75.25" rx="2.36" ry="0.83" transform="translate(66.62 220.16) rotate(-87.44)"/><path class="cls-34" d="M133.28,72.87a2.38,2.38,0,0,0,2.34,0,.22.22,0,0,0,.08-.29.21.21,0,0,0-.29-.07,2,2,0,0,1-2-.09.22.22,0,0,0-.26.15.22.22,0,0,0,.15.26Z"/><path class="cls-34" d="M134,78.29a.7.7,0,0,1,.63-.52,1.2,1.2,0,0,1,.95.43c.18.2.48-.1.29-.3a1.55,1.55,0,0,0-1.3-.54,1.11,1.11,0,0,0-1,.82.22.22,0,0,0,.15.26.2.2,0,0,0,.25-.15Z"/><path class="cls-34" d="M140.5,73.25a1.46,1.46,0,0,0,.95.65,1.43,1.43,0,0,0,1.15-.35.2.2,0,0,0,0-.29.21.21,0,0,0-.3,0,1,1,0,0,1-1.43-.23.22.22,0,0,0-.37.22Z"/><path class="cls-34" d="M141,78.85s0,0,0,0,0,0,0,0l0,0,0,0,0,0,0,0,0,0s0,0,0,0l.16-.1h.14s0,0,0,0a.67.67,0,0,1,.62.29.2.2,0,0,0,.28.08.21.21,0,0,0,.08-.29,1.07,1.07,0,0,0-1-.49,1.08,1.08,0,0,0-.89.69.21.21,0,0,0,.41.11Z"/><path class="cls-34" d="M147.8,78.11l0-.09s0,0,0,0l0,0,0,0s0,0,0,0l.06-.06s0,0,0,0l0,0h0l0,0h0l.09,0s-.05,0,0,0h.1s0,0,0,0l.08,0s0,0,0,0l0,0,0,0h0l.06.06h0l0,0a.05.05,0,0,0,0,0s0,0,0,0a.3.3,0,0,1,0,.1.22.22,0,0,0,.26.14.22.22,0,0,0,.15-.26.81.81,0,0,0-.77-.64.8.8,0,0,0-.77.64.22.22,0,0,0,.15.26.21.21,0,0,0,.25-.15Z"/><path class="cls-34" d="M147.67,72.31a.92.92,0,0,0,.73.73.93.93,0,0,0,1-.49.22.22,0,0,0-.07-.29.21.21,0,0,0-.29.08.41.41,0,0,1-.05.09h0l0,0,0,0h0l-.08,0-.05,0s0,0,0,0l-.09,0c-.05,0,0,0,0,0h-.11l-.09,0s-.05,0,0,0l0,0-.08,0s0,0,0,0l0,0,0,0h0l0-.09v0s0,0,0,0l0-.11a.21.21,0,0,0-.25-.14.22.22,0,0,0-.15.26Z"/><path class="cls-27" d="M130.55,53.1a11.32,11.32,0,0,0-3.39,1.2,5.07,5.07,0,0,0-1.37,1.1,7.59,7.59,0,0,0-.89,1.51,7,7,0,0,0-.47,3.49c.07,1.2.21,2.42.29,3.63a33.57,33.57,0,0,1-.61-3.61,7,7,0,0,1,.4-3.68,8,8,0,0,1,1-1.59A4.83,4.83,0,0,1,127,54,9.11,9.11,0,0,1,130.55,53.1Z"/><path class="cls-27" d="M131.77,52.79a2.6,2.6,0,0,1,.92-2.12,2.82,2.82,0,0,1,1.08-.54,3,3,0,0,1,1.16-.06,5.05,5.05,0,0,0-2,.92A4.07,4.07,0,0,0,131.77,52.79Z"/><ellipse class="cls-27" cx="141.01" cy="45.84" rx="1.77" ry="0.48"/><ellipse class="cls-27" cx="138.34" cy="46.61" rx="0.9" ry="0.29"/><path class="cls-5" d="M165.66,99.37a15.53,15.53,0,0,0-12.33-9.17L129,90.72s-9.15,2.87-12.23,8.48a2.29,2.29,0,0,0-.7,1.64v.71a2.28,2.28,0,0,0,1.18,2,.92.92,0,0,0,0,.28c0,1.18,2.68,2.13,6,2.13a15.54,15.54,0,0,0,3-.29c3,1.09,8.48,1.82,14.8,1.82s11.91-.74,14.86-1.84A14.91,14.91,0,0,0,159,106c3.32,0,6-1,6-2.13a.74.74,0,0,0-.05-.25,2.26,2.26,0,0,0,1.25-2v-.71A2.31,2.31,0,0,0,165.66,99.37Z"/><g class="cls-36"><path class="cls-6" d="M113.54,98s.11,5.47,27.8,5.47S172,95.92,172,95.92l.25,7.55-4.06,7.12-37.62.15-14.64-.55Z"/><g class="cls-37"><path class="cls-27" d="M115.2,99.47s1.1.32,1.15,2.07,2,2,2,2-1.53.09-.35,2.16l-3.29-.14Z"/></g></g><rect class="cls-38" x="122.87" y="83.92" width="3.16" height="10.55" transform="translate(-4.54 6.7) rotate(-3.03)"/><rect class="cls-6" x="122.87" y="83.95" width="2.09" height="10.55" transform="translate(-4.54 6.68) rotate(-3.03)"/><path class="cls-16" d="M115.75,82.85A13.73,13.73,0,0,1,125,81.13l-2.09,1.53-4.08.69Z"/><polygon class="cls-38" points="119.69 86.07 121.04 85.7 121.64 97.44 120.14 99.1 119.69 86.07"/><path class="cls-6" d="M116.72,99.2s2.13-8.07,0-13.13h2.94s1.8,8,0,13.4A3.16,3.16,0,0,1,116.72,99.2Z"/><g class="cls-39"><path class="cls-27" d="M116,84.64s2.76,2,2.31,7.42-1.89,7.91-1.89,7.91l-6.68-5.5Z"/></g><path class="cls-40" d="M119.2,87.24s6.24-2.14,6.83-2.69a1,1,0,0,0-.56-1.7,66.06,66.06,0,0,0-6.73,2Z"/><rect class="cls-3" x="114.37" y="84.81" width="5.55" height="2.52" rx="1.18"/><g class="cls-41"><path class="cls-27" d="M117.87,84.27c-.58.15-1.15.31-1.72.5a1.89,1.89,0,0,0-1.09.7,1.39,1.39,0,0,0-.13,1,2.42,2.42,0,0,0,.88,1.44l-1.93.81a18.45,18.45,0,0,1-.54-3,3.36,3.36,0,0,1,.32-2.15,1,1,0,0,1,.42-.41,1.48,1.48,0,0,1,.69-.11c.93,0,1.85,0,2.77.11"/></g><path class="cls-42" d="M120.09,82.66s3.26-1.82,4.87-1.53.58,2.42,0,2.79a16.14,16.14,0,0,1-5.25,1.25Z"/><rect class="cls-16" x="115.2" y="82.66" width="5.55" height="2.52" rx="1.18"/><rect class="cls-38" x="156.27" y="83.92" width="3.16" height="10.55" transform="translate(310.77 186.61) rotate(-176.97)"/><rect class="cls-6" x="157.34" y="83.95" width="2.09" height="10.55" transform="translate(311.83 186.69) rotate(-176.97)"/><path class="cls-16" d="M166.38,82.76a13.32,13.32,0,0,0-9-1.63l2.09,1.53,4.08.69Z"/><polygon class="cls-38" points="162.62 86.07 161.26 85.7 160.66 97.44 162.16 99.1 162.62 86.07"/><path class="cls-6" d="M165.58,99.2s-2.13-8.07,0-13.13h-2.94s-1.8,8,0,13.4A3.16,3.16,0,0,0,165.58,99.2Z"/><path class="cls-40" d="M163.1,87.24s-6.24-2.14-6.83-2.69a1,1,0,0,1,.56-1.7,66.06,66.06,0,0,1,6.73,2Z"/><rect class="cls-3" x="162.38" y="84.81" width="5.55" height="2.52" rx="1.18" transform="translate(330.31 172.14) rotate(180)"/><path class="cls-42" d="M162.21,82.66s-3.26-1.82-4.87-1.53-.58,2.42,0,2.79a16.14,16.14,0,0,0,5.25,1.25Z"/><rect class="cls-16" x="161.54" y="82.66" width="5.55" height="2.52" rx="1.18" transform="translate(328.64 167.84) rotate(180)"/><path class="cls-42" d="M161.32,101.09a195.8,195.8,0,0,1-20.46,1,194.88,194.88,0,0,1-19.64-1,2.28,2.28,0,0,1-1.42-.5,1.57,1.57,0,0,1-.59-1.19V95.93a.84.84,0,0,1,.9-.76h42.53a.64.64,0,0,1,.69.58V99.4A1.87,1.87,0,0,1,161.32,101.09Z"/><path class="cls-16" d="M162.82,95.68H120.19c-1,0-.81-.51-.49-.85a11.89,11.89,0,0,1,3.17-2.31,17,17,0,0,1,4.41-1.5.43.43,0,0,0,.12,0,2.28,2.28,0,0,1,.56-.21,2.44,2.44,0,0,1,.66-.09c3.84-.27,8.1-.46,12.71-.47,4.94,0,9.48.18,13.55.47h.05a16.28,16.28,0,0,1,5.29,1.94,10.46,10.46,0,0,1,2.94,2.52C163.34,95.37,163.15,95.68,162.82,95.68Z"/><ellipse class="cls-16" cx="126.03" cy="95.68" rx="6.81" ry="1.21"/><ellipse class="cls-16" cx="139.35" cy="95.68" rx="6.81" ry="1.21"/><ellipse class="cls-16" cx="152.18" cy="95.68" rx="6.81" ry="1.21"/><ellipse class="cls-16" cx="156.51" cy="95.68" rx="6.81" ry="1.21"/><ellipse class="cls-34" cx="131.53" cy="92.5" rx="2.58" ry="0.44"/><ellipse class="cls-34" cx="141.27" cy="92.5" rx="2.58" ry="0.44"/><ellipse class="cls-34" cx="150.75" cy="92.5" rx="2.58" ry="0.44"/><path class="cls-16" d="M119.31,95.47a.26.26,0,0,0,0,.27.39.39,0,0,0,.14.08,1.38,1.38,0,0,0,.27.08.42.42,0,0,0,.26-.07.28.28,0,0,0,.09-.18.81.81,0,0,0,0-.38.28.28,0,0,0-.13-.17.53.53,0,0,0-.18,0c-.15,0-.2,0-.28.08A2,2,0,0,0,119.31,95.47Z"/><ellipse class="cls-43" cx="156.78" cy="95.65" rx="5.03" ry="0.42"/><ellipse class="cls-43" cx="148.23" cy="94.96" rx="2.52" ry="0.21"/><ellipse class="cls-43" cx="141.22" cy="56.91" rx="4.94" ry="0.58"/><ellipse class="cls-44" cx="119.23" cy="82.08" rx="0.9" ry="0.29"/><polygon class="cls-45" points="131.7 86.86 129.63 93.01 133.63 92.89 131.7 86.86"/><polygon class="cls-46" points="152.99 93.63 151.1 86.86 131.7 86.86 132.93 93.63 152.99 93.63"/><path class="cls-47" d="M135,92.56l-.55-2.6-.14.2-.15.19-.41-.43.12-.13.11-.12.18-.22a.86.86,0,0,0,.15-.22h.57l.71,3.33Z"/><path class="cls-47" d="M138.61,91.52a.91.91,0,0,1-.13.82,1,1,0,0,1-.82.29,1.83,1.83,0,0,1-1.26-.46l.17-.46a1.61,1.61,0,0,0,.91.38.53.53,0,0,0,.39-.14.46.46,0,0,0,.08-.39.72.72,0,0,0-.23-.41.58.58,0,0,0-.42-.14.6.6,0,0,0-.24,0,1,1,0,0,0-.2.18L136.4,91l-.33-1.77H138l.12.56h-1.3l.14.75.11-.05.09,0h.24a1.16,1.16,0,0,1,.42.08,1.07,1.07,0,0,1,.37.22,1.31,1.31,0,0,1,.27.34A1.35,1.35,0,0,1,138.61,91.52Z"/><path class="cls-47" d="M141.21,90.84a2.14,2.14,0,0,1,0,1.36.85.85,0,0,1-.83.42,1.32,1.32,0,0,1-1-.42,2.67,2.67,0,0,1-.59-1.3,2.1,2.1,0,0,1,0-1.3.84.84,0,0,1,.84-.43C140.45,89.17,141,89.73,141.21,90.84Zm-.74,0a2.13,2.13,0,0,0-.28-.79.49.49,0,0,0-.43-.25.31.31,0,0,0-.32.27,2.31,2.31,0,0,0,.06.86,2.48,2.48,0,0,0,.28.76.51.51,0,0,0,.44.26.3.3,0,0,0,.31-.27A2,2,0,0,0,140.47,90.86Z"/><path class="cls-47" d="M144.23,89.77l.6,2.79h-.74l-.6-2.79h-.88l-.12-.53H145l.12.53Z"/><path class="cls-47" d="M145.77,92.56l-.06-.3,1.23-2.5h-1.65l-.12-.53h2.68l.07.32L146.71,92h1.74l.11.53Z"/><path class="cls-47" d="M150.36,90a1.94,1.94,0,0,0-.86-.27.49.49,0,0,0-.32.09.23.23,0,0,0-.06.26.38.38,0,0,0,.15.22l.41.25c.19.1.35.2.48.28a1.58,1.58,0,0,1,.34.25,1.32,1.32,0,0,1,.22.26,1.61,1.61,0,0,1,.12.33.7.7,0,0,1-.14.66,1.08,1.08,0,0,1-.83.25l-.27,0-.32-.06-.33-.1a3,3,0,0,1-.31-.15l.06-.55a2.56,2.56,0,0,0,.63.27,1.64,1.64,0,0,0,.44.07A.33.33,0,0,0,150,92a.25.25,0,0,0,0-.23.42.42,0,0,0-.13-.22,1.46,1.46,0,0,0-.32-.21,6.07,6.07,0,0,1-.54-.31,2.5,2.5,0,0,1-.38-.28,1.58,1.58,0,0,1-.24-.3,1.75,1.75,0,0,1-.12-.32.72.72,0,0,1,.15-.69,1.15,1.15,0,0,1,.79-.23h.28l.25,0,.27.09a2,2,0,0,1,.31.14Z"/><path class="cls-47" d="M152.14,92.28a.23.23,0,0,1,0,.24.28.28,0,0,1-.24.1.46.46,0,0,1-.29-.1.48.48,0,0,1-.16-.26.33.33,0,0,1,0-.26.26.26,0,0,1,.23-.1.4.4,0,0,1,.15,0A.32.32,0,0,1,152,92a.32.32,0,0,1,.11.12A.34.34,0,0,1,152.14,92.28Z"/><ellipse class="cls-24" cx="83.91" cy="120.72" rx="24.15" ry="4.41"/><path class="cls-25" d="M72.65,94.47s-.89,6.83.74,11.36a20.61,20.61,0,0,1,1.14,10.29c-.37,1.72,1.55,2.82,2.92.61s.47-9,0-12.76,1-9.41,1-9.41Z"/><path class="cls-25" d="M99.42,94.47s.88,6.83-.75,11.36a20.57,20.57,0,0,0-1.13,10.29c.36,1.72-1.55,2.82-2.93.61s-.46-9,0-12.76-1-9.41-1-9.41Z"/><path class="cls-4" d="M66.71,109.44a9.05,9.05,0,0,1,2,9.87l-.34,0a2.23,2.23,0,1,0,.88,4.37,2.39,2.39,0,0,0,1.81-1.54c.88-1.5,3-6.22.07-13.63-3.57-9.09.7-11,.7-11l-9.51.6S61.2,103.81,66.71,109.44Z"/><g class="cls-48"><path class="cls-29" d="M68.94,95.53s-1.78,5.43,1,12.76,2.4,9.35.91,12.53a2.27,2.27,0,0,0-1.23-1.08s1.53,1.77-1,2.83-2.21-1-2.3-1.54l-.41,2.55,1.19,2,7.66-.38,7.12-7.79L73.71,96.75Z"/><path class="cls-27" d="M63.27,96.06S63.1,103.5,67,108.35s3.23,8,1.9,11a7,7,0,0,0-.9-.17c-.21,0-8.38-18.4-8.38-18.4Z"/></g><ellipse class="cls-27" cx="67.96" cy="120.34" rx="0.76" ry="0.51" transform="translate(-22.29 15.68) rotate(-11.32)"/><path class="cls-4" d="M105.18,109.44a9.05,9.05,0,0,0-2,9.87l.33,0a2.23,2.23,0,1,1-.87,4.37,2.37,2.37,0,0,1-1.81-1.54c-.88-1.5-3-6.22-.07-13.63,3.57-9.09-.71-11-.71-11l9.52.6S110.69,103.81,105.18,109.44Z"/><g class="cls-49"><path class="cls-29" d="M102.94,95.53s1.78,5.43-1,12.76-2.4,9.35-.91,12.53a2.26,2.26,0,0,1,1.24-1.08s-1.53,1.77,1,2.83,2.21-1,2.3-1.54l.41,2.55-1.19,2-7.66-.38L90,117.46l8.18-20.71Z"/><path class="cls-31" d="M108.62,96.06s.17,7.44-3.75,12.29-3.23,8-1.9,11a7,7,0,0,1,.9-.17c.22,0,8.38-18.4,8.38-18.4Z"/></g><ellipse class="cls-27" cx="103.92" cy="120.34" rx="0.51" ry="0.76" transform="translate(-34.47 198.63) rotate(-78.68)"/><path class="cls-5" d="M110.56,99.37A15.5,15.5,0,0,0,98.23,90.2l-24.38.52s-9.14,2.87-12.22,8.48a2.29,2.29,0,0,0-.7,1.64v.71a2.28,2.28,0,0,0,1.18,2,.94.94,0,0,0-.06.28c0,1.18,2.69,2.13,6,2.13a15.57,15.57,0,0,0,3-.29c3,1.09,8.48,1.82,14.8,1.82s11.91-.74,14.86-1.84a14.84,14.84,0,0,0,3.14.31c3.31,0,6-1,6-2.13a1.09,1.09,0,0,0,0-.25,2.25,2.25,0,0,0,1.24-2v-.71A2.25,2.25,0,0,0,110.56,99.37Z"/><g class="cls-50"><path class="cls-6" d="M58.45,98s.1,5.47,27.8,5.47,30.64-7.55,30.64-7.55l.24,7.55-4,7.12-37.62.15-14.64-.55Z"/><g class="cls-51"><path class="cls-27" d="M60.11,99.47s1.1.32,1.14,2.07,2,2,2,2-1.52.09-.35,2.16l-3.28-.14Z"/></g></g><path class="cls-52" d="M106.22,101.09a195.66,195.66,0,0,1-20.46,1,194.67,194.67,0,0,1-19.63-1,2.25,2.25,0,0,1-1.42-.5,1.54,1.54,0,0,1-.59-1.19V95.93a.83.83,0,0,1,.89-.76h42.54a.64.64,0,0,1,.68.58V99.4A1.87,1.87,0,0,1,106.22,101.09Z"/><path class="cls-53" d="M107.73,95.68H65.09c-1,0-.81-.51-.48-.85a12,12,0,0,1,3.16-2.31A17.13,17.13,0,0,1,72.19,91l.12,0a2.13,2.13,0,0,1,.56-.21,2.39,2.39,0,0,1,.66-.09c3.84-.27,8.1-.46,12.71-.47,4.94,0,9.23-.21,13.29.08l.51.09a18.06,18.06,0,0,1,5.08,2.25,10.53,10.53,0,0,1,2.95,2.52C108.25,95.37,108.06,95.68,107.73,95.68Z"/><ellipse class="cls-53" cx="70.9" cy="95.68" rx="6.81" ry="1.21"/><ellipse class="cls-53" cx="84.25" cy="95.68" rx="6.81" ry="1.21"/><ellipse class="cls-53" cx="97.08" cy="95.68" rx="6.81" ry="1.21"/><ellipse class="cls-53" cx="101.42" cy="95.68" rx="6.81" ry="1.21"/><ellipse class="cls-54" cx="76.43" cy="92.5" rx="2.58" ry="0.44"/><ellipse class="cls-54" cx="86.18" cy="92.5" rx="2.58" ry="0.44"/><ellipse class="cls-54" cx="95.65" cy="92.5" rx="2.58" ry="0.44"/><path class="cls-16" d="M64.22,95.47a.26.26,0,0,0,0,.27.32.32,0,0,0,.14.08,1.38,1.38,0,0,0,.27.08.44.44,0,0,0,.26-.07.34.34,0,0,0,.09-.18.7.7,0,0,0,0-.38.25.25,0,0,0-.13-.17.47.47,0,0,0-.17,0c-.15,0-.21,0-.28.08A1.4,1.4,0,0,0,64.22,95.47Z"/><ellipse class="cls-55" cx="101.68" cy="95.65" rx="5.03" ry="0.42"/><ellipse class="cls-55" cx="93.14" cy="94.96" rx="2.52" ry="0.21"/><polygon class="cls-45" points="78.38 86.86 76.32 93.01 80.31 92.89 78.38 86.86"/><polygon class="cls-46" points="99.68 93.63 97.78 86.86 78.38 86.86 79.61 93.63 99.68 93.63"/><path class="cls-47" d="M81.7,92.56,81.15,90l-.14.2-.15.19-.41-.43a.74.74,0,0,0,.12-.13l.11-.12.19-.22a2.17,2.17,0,0,0,.15-.22h.56l.71,3.33Z"/><path class="cls-47" d="M85.28,90.84a2.14,2.14,0,0,1,0,1.36.86.86,0,0,1-.83.42,1.32,1.32,0,0,1-1-.42,2.67,2.67,0,0,1-.59-1.3,2.1,2.1,0,0,1,0-1.3.83.83,0,0,1,.83-.43C84.51,89.17,85,89.73,85.28,90.84Zm-.74,0a2.13,2.13,0,0,0-.28-.79.5.5,0,0,0-.43-.25.31.31,0,0,0-.32.27,2.31,2.31,0,0,0,.06.86,2.25,2.25,0,0,0,.28.76.51.51,0,0,0,.44.26.3.3,0,0,0,.31-.27A2.19,2.19,0,0,0,84.54,90.86Z"/><path class="cls-47" d="M87.89,90.84a2.14,2.14,0,0,1,0,1.36.85.85,0,0,1-.83.42,1.32,1.32,0,0,1-1-.42,2.67,2.67,0,0,1-.59-1.3,2.1,2.1,0,0,1,0-1.3.85.85,0,0,1,.84-.43C87.13,89.17,87.65,89.73,87.89,90.84Zm-.73,0a2.3,2.3,0,0,0-.29-.79.49.49,0,0,0-.43-.25.31.31,0,0,0-.32.27,2.31,2.31,0,0,0,.06.86,2.48,2.48,0,0,0,.28.76.51.51,0,0,0,.44.26.3.3,0,0,0,.31-.27A2,2,0,0,0,87.16,90.86Z"/><path class="cls-47" d="M90.92,89.77l.59,2.79h-.74l-.6-2.79h-.88l-.12-.53h2.5l.12.53Z"/><path class="cls-47" d="M92.45,92.56l-.06-.3,1.23-2.5H92l-.12-.53h2.68l.07.32L93.4,92h1.73l.11.53Z"/><path class="cls-47" d="M97,90a1.94,1.94,0,0,0-.86-.27.49.49,0,0,0-.32.09.25.25,0,0,0-.06.26.44.44,0,0,0,.15.22l.41.25c.19.1.35.2.48.28a1.58,1.58,0,0,1,.34.25,1.05,1.05,0,0,1,.22.26,1.61,1.61,0,0,1,.12.33.7.7,0,0,1-.14.66,1.08,1.08,0,0,1-.83.25l-.27,0L96,92.53l-.32-.1a2.37,2.37,0,0,1-.32-.15l.07-.55A2.37,2.37,0,0,0,96,92a1.64,1.64,0,0,0,.44.07A.33.33,0,0,0,96.7,92a.25.25,0,0,0,0-.23.42.42,0,0,0-.13-.22,1.46,1.46,0,0,0-.32-.21,6.07,6.07,0,0,1-.54-.31,2.5,2.5,0,0,1-.38-.28,1.58,1.58,0,0,1-.24-.3,1.75,1.75,0,0,1-.12-.32.72.72,0,0,1,.15-.69,1.15,1.15,0,0,1,.79-.23h.28l.25,0,.27.09a1.66,1.66,0,0,1,.31.14Z"/><path class="cls-47" d="M98.83,92.28a.26.26,0,0,1-.06.24.27.27,0,0,1-.24.1.42.42,0,0,1-.28-.1.44.44,0,0,1-.17-.26.33.33,0,0,1,0-.26.26.26,0,0,1,.23-.1.45.45,0,0,1,.16,0,.5.5,0,0,1,.14.08.4.4,0,0,1,.1.12A.52.52,0,0,1,98.83,92.28Z"/><ellipse class="cls-24" cx="203.37" cy="129.5" rx="23.29" ry="3.1"/><path class="cls-7" d="M191.15,96a6,6,0,0,0-4,3.11,19.09,19.09,0,0,0-1.68,4.94c-.06.24-.17.52-.41.54s-.43-.3-.5-.56a22.91,22.91,0,0,1-.72-4.88,3.76,3.76,0,0,0-.34-1.77,2.9,2.9,0,0,0-.78-.82,6.8,6.8,0,0,0-3.48-1.5,4.28,4.28,0,0,0-3.5,1.21,3.13,3.13,0,0,0-.52,3.55c.85,1.49,2.89,1.8,4.58,1.54a20,20,0,0,0,.5,4.76,6.64,6.64,0,0,0,2.61,3.9,5,5,0,0,0,4.9.27,8.76,8.76,0,0,0,2.74-2.48,31.81,31.81,0,0,0,2.71-4c1.09-1.88,2-4.15,1.25-6.19a2.37,2.37,0,0,0-1.22-1.44,1.29,1.29,0,0,0-1.67.52"/><g class="cls-56"><path class="cls-57" d="M186.21,96.49a10.62,10.62,0,0,1-2.38,7.06,9.8,9.8,0,0,1-6.54,3.51,7.08,7.08,0,0,1-2.93-.27,6.86,6.86,0,0,1-4.21-4.34,10,10,0,0,1,0-6.16,5.19,5.19,0,0,1,3.63-3.9,12,12,0,0,1,11,1.57,3.38,3.38,0,0,1,1.08,1.15,1.42,1.42,0,0,1-.06,1.5"/></g><path class="cls-8" d="M180.87,97.86a4.6,4.6,0,0,0-2.78-.85l-.33-.1-.11.34h0c-.05.3.64.75,1.57,1s1.76.3,1.89,0h0l.1-.34Z"/><g class="cls-58"><rect class="cls-59" x="177.7" y="96.51" width="0.04" height="1.78" transform="translate(36.01 -47.48) rotate(16.91)"/><rect class="cls-59" x="177.84" y="96.55" width="0.04" height="1.78" transform="translate(36.03 -47.52) rotate(16.91)"/><rect class="cls-59" x="177.99" y="96.6" width="0.04" height="1.78" transform="translate(36.05 -47.56) rotate(16.91)"/><rect class="cls-59" x="178.14" y="96.64" width="0.04" height="1.78" transform="translate(36.07 -47.6) rotate(16.91)"/><rect class="cls-59" x="178.29" y="96.69" width="0.04" height="1.78" transform="translate(36.09 -47.64) rotate(16.91)"/><rect class="cls-59" x="178.44" y="96.73" width="0.04" height="1.78" transform="translate(36.11 -47.69) rotate(16.91)"/><rect class="cls-59" x="178.59" y="96.78" width="0.04" height="1.78" transform="translate(36.13 -47.73) rotate(16.91)"/><rect class="cls-59" x="178.73" y="96.82" width="0.04" height="1.78" transform="translate(36.15 -47.77) rotate(16.91)"/><rect class="cls-59" x="178.88" y="96.87" width="0.04" height="1.78" transform="translate(36.17 -47.81) rotate(16.91)"/><rect class="cls-59" x="179.03" y="96.91" width="0.04" height="1.78" transform="translate(36.19 -47.85) rotate(16.91)"/><rect class="cls-59" x="179.18" y="96.96" width="0.04" height="1.78" transform="translate(36.21 -47.89) rotate(16.91)"/><rect class="cls-59" x="179.33" y="97" width="0.04" height="1.78" transform="translate(36.23 -47.93) rotate(16.91)"/><rect class="cls-59" x="179.48" y="97.05" width="0.04" height="1.78" transform="translate(36.25 -47.97) rotate(16.91)"/><rect class="cls-59" x="179.62" y="97.09" width="0.04" height="1.78" transform="translate(36.27 -48.02) rotate(16.91)"/><rect class="cls-59" x="179.77" y="97.14" width="0.04" height="1.78" transform="translate(36.29 -48.06) rotate(16.91)"/><rect class="cls-59" x="179.92" y="97.18" width="0.04" height="1.78" transform="translate(36.31 -48.1) rotate(16.91)"/><rect class="cls-59" x="180.07" y="97.23" width="0.04" height="1.78" transform="translate(36.33 -48.14) rotate(16.91)"/><rect class="cls-59" x="180.22" y="97.27" width="0.04" height="1.78" transform="translate(36.35 -48.18) rotate(16.91)"/><rect class="cls-59" x="180.37" y="97.32" width="0.04" height="1.78" transform="translate(36.36 -48.22) rotate(16.91)"/><rect class="cls-59" x="180.52" y="97.36" width="0.04" height="1.78" transform="translate(36.38 -48.26) rotate(16.91)"/><rect class="cls-59" x="180.66" y="97.41" width="0.04" height="1.78" transform="translate(36.4 -48.3) rotate(16.91)"/><rect class="cls-59" x="180.81" y="97.45" width="0.04" height="1.78" transform="translate(36.42 -48.35) rotate(16.91)"/><rect class="cls-59" x="180.96" y="97.5" width="0.04" height="1.78" transform="translate(36.44 -48.39) rotate(16.91)"/></g><ellipse class="cls-9" cx="179.48" cy="97.43" rx="0.56" ry="1.8" transform="translate(34.06 240.82) rotate(-73.09)"/><g class="cls-60"><rect class="cls-61" x="178.42" y="95.71" width="0.22" height="2.32" transform="translate(166.75 -105.9) rotate(58.19)"/><rect class="cls-61" x="178.84" y="95.95" width="0.22" height="2.32" transform="matrix(0.53, 0.85, -0.85, 0.53, 167.16, -106.15)"/><rect class="cls-61" x="180.4" y="96.58" width="0.22" height="2.32" transform="translate(168.43 -107.17) rotate(58.19)"/></g><path class="cls-8" d="M182,98.13a4.59,4.59,0,0,0-2.51-1.45l-.31-.18-.17.31h0c-.12.28.46.87,1.3,1.36s1.65.68,1.83.44h0l.18-.31Z"/><g class="cls-62"><rect class="cls-59" x="179" y="96.07" width="0.04" height="1.78" transform="translate(72.47 -76.52) rotate(30)"/><rect class="cls-59" x="179.14" y="96.15" width="0.04" height="1.78" transform="translate(72.53 -76.58) rotate(30)"/><rect class="cls-59" x="179.27" y="96.23" width="0.04" height="1.78" transform="translate(72.59 -76.64) rotate(30)"/><rect class="cls-59" x="179.41" y="96.31" width="0.04" height="1.78" transform="translate(72.64 -76.69) rotate(30)"/><rect class="cls-59" x="179.54" y="96.38" width="0.04" height="1.78" transform="translate(72.7 -76.75) rotate(30)"/><rect class="cls-59" x="179.68" y="96.46" width="0.04" height="1.78" transform="translate(72.76 -76.81) rotate(30)"/><rect class="cls-59" x="179.81" y="96.54" width="0.04" height="1.78" transform="matrix(0.87, 0.5, -0.5, 0.87, 72.81, -76.86)"/><rect class="cls-59" x="179.94" y="96.62" width="0.04" height="1.78" transform="translate(72.87 -76.92) rotate(30)"/><rect class="cls-59" x="180.08" y="96.69" width="0.04" height="1.78" transform="translate(72.93 -76.98) rotate(30)"/><rect class="cls-59" x="180.21" y="96.77" width="0.04" height="1.78" transform="translate(72.98 -77.03) rotate(30)"/><rect class="cls-59" x="180.35" y="96.85" width="0.04" height="1.78" transform="translate(73.04 -77.09) rotate(30)"/><rect class="cls-59" x="180.48" y="96.93" width="0.04" height="1.78" transform="translate(73.1 -77.15) rotate(30)"/><rect class="cls-59" x="180.62" y="97" width="0.04" height="1.78" transform="translate(73.15 -77.2) rotate(30)"/><rect class="cls-59" x="180.75" y="97.08" width="0.04" height="1.78" transform="translate(73.21 -77.26) rotate(30)"/><rect class="cls-59" x="180.88" y="97.16" width="0.04" height="1.78" transform="translate(73.27 -77.32) rotate(30)"/><rect class="cls-59" x="181.02" y="97.24" width="0.04" height="1.78" transform="translate(73.32 -77.37) rotate(30)"/><rect class="cls-59" x="181.15" y="97.31" width="0.04" height="1.78" transform="translate(73.38 -77.43) rotate(30)"/><rect class="cls-59" x="181.29" y="97.39" width="0.04" height="1.78" transform="translate(73.44 -77.49) rotate(30)"/><rect class="cls-59" x="181.42" y="97.47" width="0.04" height="1.78" transform="translate(73.49 -77.54) rotate(30)"/><rect class="cls-59" x="181.56" y="97.55" width="0.04" height="1.78" transform="translate(73.55 -77.6) rotate(30)"/><rect class="cls-59" x="181.69" y="97.62" width="0.04" height="1.78" transform="translate(73.61 -77.66) rotate(30)"/><rect class="cls-59" x="181.82" y="97.7" width="0.04" height="1.78" transform="translate(73.66 -77.72) rotate(30)"/><rect class="cls-59" x="181.96" y="97.78" width="0.04" height="1.78" transform="translate(73.72 -77.77) rotate(30)"/></g><ellipse class="cls-9" cx="180.74" cy="97.4" rx="0.56" ry="1.8" transform="translate(6.01 205.22) rotate(-60)"/><g class="cls-63"><rect class="cls-61" x="179.82" y="95.47" width="0.22" height="2.32" transform="translate(213.72 -104.79) rotate(71.29)"/><rect class="cls-61" x="180.18" y="95.8" width="0.22" height="2.32" transform="translate(214.28 -104.9) rotate(71.29)"/><rect class="cls-61" x="181.55" y="96.78" width="0.22" height="2.32" transform="translate(216.13 -105.54) rotate(71.29)"/></g><path class="cls-8" d="M182.11,97.56a4.18,4.18,0,0,0-1.15-.92,4,4,0,0,0-1.37-.53l-.3-.17-.18.3v0c-.12.28.46.87,1.3,1.35s1.65.69,1.83.45h0l.18-.31Z"/><g class="cls-64"><rect class="cls-59" x="179.12" y="95.51" width="0.04" height="1.78" transform="translate(72.2 -76.65) rotate(30)"/><rect class="cls-59" x="179.25" y="95.59" width="0.04" height="1.78" transform="matrix(0.87, 0.5, -0.5, 0.87, 72.26, -76.71)"/><rect class="cls-59" x="179.38" y="95.66" width="0.04" height="1.78" transform="translate(72.32 -76.77) rotate(30)"/><rect class="cls-59" x="179.52" y="95.74" width="0.04" height="1.78" transform="translate(72.38 -76.82) rotate(30)"/><rect class="cls-59" x="179.65" y="95.82" width="0.04" height="1.78" transform="translate(72.43 -76.88) rotate(30)"/><rect class="cls-59" x="179.79" y="95.9" width="0.04" height="1.78" transform="translate(72.49 -76.94) rotate(30)"/><rect class="cls-59" x="179.92" y="95.97" width="0.04" height="1.78" transform="translate(72.55 -77) rotate(30)"/><rect class="cls-59" x="180.06" y="96.05" width="0.04" height="1.78" transform="translate(72.6 -77.05) rotate(30)"/><rect class="cls-59" x="180.19" y="96.13" width="0.04" height="1.78" transform="translate(72.66 -77.11) rotate(30)"/><rect class="cls-59" x="180.32" y="96.21" width="0.04" height="1.78" transform="translate(72.72 -77.17) rotate(30)"/><rect class="cls-59" x="180.46" y="96.29" width="0.04" height="1.78" transform="translate(72.77 -77.22) rotate(30)"/><rect class="cls-59" x="180.59" y="96.36" width="0.04" height="1.78" transform="translate(72.83 -77.28) rotate(30)"/><rect class="cls-59" x="180.73" y="96.44" width="0.04" height="1.78" transform="translate(72.89 -77.34) rotate(30)"/><rect class="cls-59" x="180.86" y="96.52" width="0.04" height="1.78" transform="translate(72.94 -77.39) rotate(30)"/><rect class="cls-59" x="181" y="96.6" width="0.04" height="1.78" transform="translate(73 -77.45) rotate(30)"/><rect class="cls-59" x="181.13" y="96.67" width="0.04" height="1.78" transform="translate(73.06 -77.51) rotate(30)"/><rect class="cls-59" x="181.26" y="96.75" width="0.04" height="1.78" transform="translate(73.11 -77.56) rotate(30)"/><rect class="cls-59" x="181.4" y="96.83" width="0.04" height="1.78" transform="translate(73.17 -77.62) rotate(30)"/><rect class="cls-59" x="181.53" y="96.91" width="0.04" height="1.78" transform="translate(73.23 -77.68) rotate(30)"/><rect class="cls-59" x="181.67" y="96.98" width="0.04" height="1.78" transform="translate(73.28 -77.73) rotate(30)"/><rect class="cls-59" x="181.8" y="97.06" width="0.04" height="1.78" transform="translate(73.34 -77.79) rotate(30)"/><rect class="cls-59" x="181.94" y="97.14" width="0.04" height="1.78" transform="translate(73.4 -77.85) rotate(30)"/><rect class="cls-59" x="182.07" y="97.22" width="0.04" height="1.78" transform="translate(73.45 -77.9) rotate(30)"/></g><ellipse class="cls-9" cx="180.85" cy="96.84" rx="0.56" ry="1.8" transform="translate(6.56 205.03) rotate(-60)"/><g class="cls-65"><rect class="cls-61" x="179.93" y="94.91" width="0.22" height="2.32" transform="translate(213.27 -105.28) rotate(71.29)"/><rect class="cls-61" x="180.29" y="95.24" width="0.22" height="2.32" transform="translate(213.82 -105.39) rotate(71.29)"/><rect class="cls-61" x="181.67" y="96.21" width="0.22" height="2.32" transform="translate(215.68 -106.03) rotate(71.29)"/></g><path class="cls-8" d="M179.56,95.75a4.1,4.1,0,0,0-1.44.29,3.92,3.92,0,0,0-1.28.73l-.33.12.13.33v0c.14.27,1,.2,1.88-.14s1.57-.84,1.5-1.13h0l-.13-.33Z"/><g class="cls-66"><rect class="cls-59" x="176.76" y="96.41" width="0.04" height="1.78" transform="translate(-22.89 68.09) rotate(-20.51)"/><rect class="cls-59" x="176.9" y="96.36" width="0.04" height="1.78" transform="translate(-22.86 68.14) rotate(-20.51)"/><rect class="cls-59" x="177.05" y="96.31" width="0.04" height="1.78" transform="matrix(0.94, -0.35, 0.35, 0.94, -22.83, 68.19)"/><rect class="cls-59" x="177.19" y="96.25" width="0.04" height="1.78" transform="translate(-22.8 68.24) rotate(-20.51)"/><rect class="cls-59" x="177.34" y="96.2" width="0.04" height="1.78" transform="translate(-22.77 68.28) rotate(-20.51)"/><rect class="cls-59" x="177.48" y="96.14" width="0.04" height="1.78" transform="translate(-22.74 68.33) rotate(-20.51)"/><rect class="cls-59" x="177.63" y="96.09" width="0.04" height="1.78" transform="matrix(0.94, -0.35, 0.35, 0.94, -22.72, 68.38)"/><rect class="cls-59" x="177.77" y="96.03" width="0.04" height="1.78" transform="translate(-22.69 68.43) rotate(-20.51)"/><rect class="cls-59" x="177.92" y="95.98" width="0.04" height="1.78" transform="translate(-22.66 68.47) rotate(-20.51)"/><rect class="cls-59" x="178.07" y="95.92" width="0.04" height="1.78" transform="matrix(0.94, -0.35, 0.35, 0.94, -22.63, 68.52)"/><rect class="cls-59" x="178.21" y="95.87" width="0.04" height="1.78" transform="translate(-22.6 68.57) rotate(-20.51)"/><rect class="cls-59" x="178.36" y="95.82" width="0.04" height="1.78" transform="translate(-22.58 68.61) rotate(-20.51)"/><rect class="cls-59" x="178.5" y="95.76" width="0.04" height="1.78" transform="matrix(0.94, -0.35, 0.35, 0.94, -22.55, 68.66)"/><rect class="cls-59" x="178.65" y="95.71" width="0.04" height="1.78" transform="translate(-22.52 68.71) rotate(-20.51)"/><rect class="cls-59" x="178.79" y="95.65" width="0.04" height="1.78" transform="translate(-22.49 68.76) rotate(-20.51)"/><rect class="cls-59" x="178.94" y="95.6" width="0.04" height="1.78" transform="translate(-22.46 68.8) rotate(-20.51)"/><rect class="cls-59" x="179.08" y="95.54" width="0.04" height="1.78" transform="translate(-22.43 68.85) rotate(-20.51)"/><rect class="cls-59" x="179.23" y="95.49" width="0.04" height="1.78" transform="translate(-22.41 68.9) rotate(-20.51)"/><rect class="cls-59" x="179.37" y="95.44" width="0.04" height="1.78" transform="translate(-22.38 68.95) rotate(-20.51)"/><rect class="cls-59" x="179.52" y="95.38" width="0.04" height="1.78" transform="translate(-22.35 68.99) rotate(-20.51)"/><rect class="cls-59" x="179.66" y="95.33" width="0.04" height="1.78" transform="translate(-22.32 69.04) rotate(-20.51)"/><rect class="cls-59" x="179.81" y="95.27" width="0.04" height="1.78" transform="translate(-22.29 69.09) rotate(-20.51)"/><rect class="cls-59" x="179.95" y="95.22" width="0.04" height="1.78" transform="translate(-22.26 69.14) rotate(-20.51)"/></g><ellipse class="cls-9" cx="178.2" cy="96.26" rx="1.8" ry="0.56" transform="translate(-22.43 68.53) rotate(-20.51)"/><g class="cls-67"><rect class="cls-61" x="176.99" y="95.23" width="0.22" height="2.32" transform="translate(45.71 -56.55) rotate(20.78)"/><rect class="cls-61" x="177.47" y="95.17" width="0.22" height="2.32" transform="translate(45.72 -56.73) rotate(20.78)"/><rect class="cls-61" x="179.1" y="94.72" width="0.22" height="2.32" transform="translate(45.67 -57.33) rotate(20.78)"/></g><path class="cls-11" d="M211.6,120.27a11.46,11.46,0,0,1,12.83-.55,2.67,2.67,0,0,0-1.77,1.24c1.37-.41,2.81.3,4.06,1l6.94,3.81a9.43,9.43,0,0,0-1.26.74,19.92,19.92,0,0,1-19.45,1,2.58,2.58,0,0,1,1,1.51,16.24,16.24,0,0,1-3.55-1.74,4.22,4.22,0,0,1-1.22-1.08,4.18,4.18,0,0,1-.23-3.5c.36-1.27,1.17-2.67,2.48-2.76"/><g class="cls-68"><path class="cls-69" d="M208.34,123.11a8,8,0,0,0,5,3l-.52-1.51A21.84,21.84,0,0,0,226,127.72l-1.23-.83a17.29,17.29,0,0,0,5.48-.9,9.42,9.42,0,0,0-3.16-1.39,8.4,8.4,0,0,1,3,.38,11.35,11.35,0,0,0-3.36-1.62,14.21,14.21,0,0,1,9.1,3.67,5.48,5.48,0,0,1,1.53,4.74,3.41,3.41,0,0,1-1.13,1.94,5.52,5.52,0,0,1-2.92.86c-2.59.24-5.2.42-7.81.52a25.4,25.4,0,0,1-5.58-.21,22.59,22.59,0,0,1-6.36-2.45,27.63,27.63,0,0,1-5.32-3.5,6.86,6.86,0,0,1-2.08-2.73,3.1,3.1,0,0,1,.58-3.23c.1-.09.25-.18.36-.1s-.09.28-.13.15"/></g><path class="cls-12" d="M189.2,99.18c-.32-.2-.7.16-.88.49a24.33,24.33,0,0,0-2.07,4.88c-.09.29-.14.67.11.86a.8.8,0,0,0,.37.11,2,2,0,0,0,1.23-.28c-.06.58,0,1.31.53,1.53s1.22-.34,1.55-.87c.06-.09.14-.2.25-.22s.28.09.37.2l.53.57c.2,0,.2-.28.28-.46s.68-.2,1,0,.77.43,1,.16a.58.58,0,0,0,.12-.36,4.67,4.67,0,0,0-1-2.83,22.3,22.3,0,0,0-2.93-3.66l-.28.26Z"/><path class="cls-11" d="M198.61,70.86a12.58,12.58,0,0,1,8,3.3,10,10,0,0,1,3.12,8,10.08,10.08,0,0,0-.12,2c.06.51.24,1,.33,1.5a4.1,4.1,0,0,1-.82,3.17,5.69,5.69,0,0,1,1.07,3.83c-.11,1.25-1,2.67-2.24,2.5a6.72,6.72,0,0,1,.11,2.64,2.88,2.88,0,0,1-1.51,2.07,3.46,3.46,0,0,1-3-.34,7.69,7.69,0,0,1-2.85-2.64,3.21,3.21,0,0,1-2.26.62,2.27,2.27,0,0,1-1.52-2,9.83,9.83,0,0,1,.23-2.64c.77-5.33-1.68-10.93,0-16.06.37-1.14.94-2.32.67-3.48-.13-.55-.38-1.23.06-1.56.13-.1.35-.11.4,0s-.26.21-.22.06"/><path class="cls-12" d="M200,92.87c1.54.86,25.1,35.49,7.73,35.49-6.79,0-20.68-1.4-20.18-10S185.3,84.67,200,92.87Z"/><g class="cls-70"><path class="cls-71" d="M185.51,112.37a5.31,5.31,0,0,1,.74-2.46,2.29,2.29,0,0,1,2.36-1c1.23.35,1.57,1.81,1.63,3,.19,3.68-.06,7.68,2.25,10.66,2.2,2.82,6.21,4,9.95,4a11.39,11.39,0,0,1,4.45.44c1.37.57,2.38,2.2,1.6,3.39a3.75,3.75,0,0,1-2,1.25,29.24,29.24,0,0,1-8.82,1.86,16.09,16.09,0,0,1-8.68-2,13.31,13.31,0,0,1-6.06-8.55A17.75,17.75,0,0,1,184,112.59c.18-.46.52-1,1-1l-.47,1.19"/><ellipse class="cls-72" cx="193.53" cy="91.94" rx="8.24" ry="6.55"/></g><path class="cls-11" d="M206.67,74.87a2.49,2.49,0,0,0-1-2.53,4.69,4.69,0,0,0-2.7-.84c0-.3-.29-.51-.55-.67a6.44,6.44,0,0,0-2.17-1,2.21,2.21,0,0,0-2.19.68A.52.52,0,0,0,198,71a.62.62,0,0,0,.25.23,35.86,35.86,0,0,0,7.27,3.38,5.77,5.77,0,0,1,.81.34"/><path class="cls-73" d="M191.31,67.31a22.44,22.44,0,0,0-3,1.19,7.06,7.06,0,0,0-3.1,2.43,3,3,0,0,0,.22,3.69,3.54,3.54,0,0,0,1.29.74,7.4,7.4,0,0,0,7.65-1.73,3.81,3.81,0,0,0,1.23-3.07A4.35,4.35,0,0,0,193.91,68c-.72-.61-1.79-1.14-2.54-.59"/><path class="cls-74" d="M179.26,86.66a3.23,3.23,0,0,1-.55,2.82l1.3,1,5.8-.39.4-2.06-4.64-2Z"/><path class="cls-46" d="M185.22,87.27c-.09.71-1.76,1-3.76.84-2.81-.22-3.52-1-3.43-1.74s1.77-1.08,3.76-.84S185.31,86.56,185.22,87.27Z"/><ellipse class="cls-75" cx="182.84" cy="90.08" rx="1.3" ry="3.34" transform="translate(60.02 252.75) rotate(-79.17)"/><path class="cls-13" d="M206.64,91.82a33.92,33.92,0,0,1-2.94,2.08c-8.55,6.06-16.27-.35-17.42-.78s-1.88-.24-4.95-.71-3.6-1.47-3.62-2.72c0-.69.75-.59.75-.59,3.9.75,4.89-1.69,5.51-2.08a28.79,28.79,0,0,0-3,0c-4.83-.43-4.95-2-4.95-2-.94-1.19-1.08-6.31,3.49-5.82,3.56.38,4-3,4.87-4.25,0,0,3-6.9,11.65-4.2s11.22,7.63,9.28,15.28c0,0,1.09,3.18,2,3.76l-.8.47.87.77Z"/><g class="cls-76"><path class="cls-77" d="M191,89.92c-1.12,3.46-6.36,4.14-11.47,2.49s-8.35-5.79-7.23-9.25,5.5-6,10.61-4.36S192.15,86.45,191,89.92Z"/></g><path class="cls-57" d="M181.46,81.44c-.32,1-2.14,1.3-4.06.68s-2-1.53-1.68-2.52.91-1.69,2.84-1.07S181.78,80.45,181.46,81.44Z"/><ellipse class="cls-78" cx="178.1" cy="79.17" rx="0.43" ry="0.87" transform="translate(48.13 224.4) rotate(-72.14)"/><ellipse class="cls-57" cx="199.37" cy="90.8" rx="1.04" ry="0.66" transform="matrix(0.08, -1, 1, 0.08, 92.06, 281.79)"/><ellipse class="cls-57" cx="201.49" cy="92.39" rx="1.04" ry="0.66" transform="translate(4.42 193.86) rotate(-51.88)"/><path class="cls-13" d="M208,75.17a9.49,9.49,0,0,1,7.28,3c3.39,3.45,1.93,5.16-.87,7s-10.89,5.71-14-4.57C200.44,80.65,204.34,74.54,208,75.17Z"/><path class="cls-71" d="M206.77,77a7.75,7.75,0,0,1,5.87,2.56c2.76,2.87,1.61,4.24-.6,5.73s-8.64,4.51-11.28-3.92C200.76,81.39,203.8,76.45,206.77,77Z"/><path class="cls-13" d="M203.38,79.74a9.93,9.93,0,0,0,1.44-1.92,5.93,5.93,0,0,1-.68,3.45,3.78,3.78,0,0,1,1.25-.52,3.84,3.84,0,0,1-.85,1.37,5.17,5.17,0,0,1,1.31.85,9.47,9.47,0,0,1-1.49.53,3.73,3.73,0,0,1,.88,1h-1.09c0,1.09.09,2.17.19,3.25a38.47,38.47,0,0,0-6.13-4.47l1.36-3.91c.32-.92,1.25-3.44,2.55-3.15.53.12.82.94,1,1.41C203.21,78,203.67,79.43,203.38,79.74Z"/><ellipse class="cls-57" cx="201.67" cy="87.55" rx="1.51" ry="0.97" transform="translate(97.41 281.1) rotate(-85.16)"/><path class="cls-13" d="M186.05,81.43a9.05,9.05,0,0,0,.25,1.28,2.88,2.88,0,0,0,.6.91,4.74,4.74,0,0,0,4.7,1.26,6.18,6.18,0,0,0,4-4.31,4,4,0,0,0-.36-2.8,5.54,5.54,0,0,0-1.13-1.33,7.38,7.38,0,0,0-2.83-1.69,4.14,4.14,0,0,0-3.2.31,4.88,4.88,0,0,0-1.92,2.54,6.7,6.7,0,0,1-.5,1.53c-.32.39-.71.05-1.13.12A4,4,0,0,1,186.05,81.43Z"/><ellipse class="cls-79" cx="190.11" cy="79.94" rx="4.26" ry="3.28" transform="translate(55.71 236.37) rotate(-72.14)"/><path class="cls-11" d="M192.5,79.07a1.32,1.32,0,0,0,1.44-.35,1.71,1.71,0,0,1-1,1.41.4.4,0,0,1-.28,0,.38.38,0,0,1-.21-.35,1,1,0,0,1,.22-.65l0,.21"/><path class="cls-11" d="M192.31,80.22a1.3,1.3,0,0,0,1.44-.34,1.74,1.74,0,0,1-1,1.41.31.31,0,0,1-.49-.31.93.93,0,0,1,.22-.66l0,.22"/><ellipse class="cls-46" cx="189.92" cy="80.53" rx="3.64" ry="2.79" transform="translate(55.02 236.6) rotate(-72.14)"/><ellipse cx="189.92" cy="80.53" rx="2.77" ry="2.12" transform="translate(55.02 236.6) rotate(-72.14)"/><ellipse class="cls-46" cx="189.43" cy="78.42" rx="0.93" ry="0.78" transform="translate(56.69 234.67) rotate(-72.14)"/><path class="cls-11" d="M193.06,77.29a3.93,3.93,0,0,0-1.73-1.06,4.22,4.22,0,0,0-1-.1c-.35,0-.72,0-1.14,0a2.36,2.36,0,0,1,2.31-.76A2,2,0,0,1,193.06,77.29Z"/><path class="cls-11" d="M192.8,79.8A3.06,3.06,0,0,0,190.91,77a2.56,2.56,0,0,0-2.67.94,3.39,3.39,0,0,1,2.58-.49,3.55,3.55,0,0,1,1.84,3.85A3.67,3.67,0,0,0,192.8,79.8Z"/><path class="cls-13" d="M186.78,83.53a7.19,7.19,0,0,0,1.06.83,23,23,0,0,1,2.27,1.8,3.69,3.69,0,0,1,1,1.23,3.87,3.87,0,0,1-.12,2.53c-.12.41-.19.93.16,1.17a.75.75,0,0,0,.67,0,1.94,1.94,0,0,0,.55-.4,7.21,7.21,0,0,0,1.86-2.43,20,20,0,0,1-2.53-1.85,1.73,1.73,0,0,1-.45-.52c-.19-.43,0-.94-.12-1.39l-2.35-.35a2.56,2.56,0,0,1-1.53-.59c-.18-.2-.36-.82-.69-.81S186.64,83.37,186.78,83.53Z"/><path class="cls-13" d="M187,83.17a6.1,6.1,0,0,1,4.6,1.32l-1.79.58-2.15-1Z"/><path class="cls-80" d="M187.53,83.59s1.57,2.1,3.66,1"/><path class="cls-80" d="M186.56,72.86a3.4,3.4,0,0,0,2.64.84"/><path class="cls-80" d="M185.85,73.48a3.39,3.39,0,0,0,2.63.85"/><path class="cls-11" d="M190.71,69a7.51,7.51,0,0,0,5,7.49s2.95,5.6,7.73.44c0,0,2-.28,2.35-1.87s-2-5.41-6.25-6.64c0,0-2.44-2.82-4.76-1.08C194.75,67.34,190.16,65.71,190.71,69Z"/><ellipse class="cls-14" cx="186.47" cy="81.75" rx="2.38" ry="1.41" transform="translate(84.53 258) rotate(-83.63)"/><g class="cls-81"><path class="cls-82" d="M187.8,79.14l-.29.48-1.26,2.07a.32.32,0,0,0-.06.28c0,.06.09.09.13.14a.29.29,0,0,1,0,.27.89.89,0,0,1-.14.25,14.8,14.8,0,0,0-1.44,2.25l.52.06s.05,0,.08,0a.1.1,0,0,0,0-.06c.49-.86,1.1-1.65,1.51-2.55,0-.12.1-.26,0-.35s-.1,0-.12-.1a.12.12,0,0,1,0-.1c.37-.87,1.17-1.51,1.52-2.39l-.45-.15"/></g><path class="cls-83" d="M185.94,84.31c-.82-.26-1.28-1.44-1.09-2.8a3.61,3.61,0,0,1,.71-1.73,1.46,1.46,0,0,1,1.31-.64,1.44,1.44,0,0,1,1.08,1,3.54,3.54,0,0,1,.18,1.86h0c-.21,1.46-1.1,2.5-2,2.36A.47.47,0,0,1,185.94,84.31Zm1-4.67-.09,0a1,1,0,0,0-.88.47,3.09,3.09,0,0,0-.61,1.5c-.17,1.16.22,2.21.86,2.31s1.31-.81,1.48-2h0a3,3,0,0,0-.15-1.61A1.05,1.05,0,0,0,186.9,79.64Z"/><path class="cls-84" d="M186.14,84c-.79-.23-1.21-1.19-.92-2.76"/><path class="cls-84" d="M186.74,79.38s1.36,0,1.14,2.53"/><path class="cls-15" d="M185.05,81.28s-1.33-2.23-3.22-2.66a.52.52,0,0,1,.2-.75,4.8,4.8,0,0,1,3.5,2.48s.29.48,0,.79S185.1,81.36,185.05,81.28Z"/><g class="cls-85"><path class="cls-86" d="M181.61,78.67s.17-.39,1,0A6.66,6.66,0,0,1,185.12,81s.2.36.52.25l-.82.52-3.2-2Z"/><ellipse class="cls-87" cx="182.85" cy="78.23" rx="0.08" ry="0.76" transform="translate(41.36 218) rotate(-67.81)"/><ellipse class="cls-87" cx="183.8" cy="78.7" rx="0.06" ry="0.19" transform="matrix(0.53, -0.85, 0.85, 0.53, 20.18, 193.61)"/></g><path class="cls-12" d="M203.69,114.1s-7.48-1.84-7.66,5.41,6,8.34,6,8.34-4.24-1.59-5,3.19,11.64,2.59,10-2.45c-1.18-3.56-2.5-4.19-2.5-4.19s2.71,6.75,8.63,1.85"/><g class="cls-88"><path class="cls-57" d="M196.65,123.54c-.29-.37-1.06-.25-1.12.18a1,1,0,0,0,0,.38c.39,2-.62,3.84-1.46,5.63s-1.55,3.86-.58,5.71a5.87,5.87,0,0,0,3,2.5,11.7,11.7,0,0,0,4,.8A13.35,13.35,0,0,0,208,137.2a4.86,4.86,0,0,0,2-2,6,6,0,0,0,.31-2.92s-3.94-5.47-4-5.51-2.81-3.85-3.56-3.9S196.65,123.54,196.65,123.54Z"/></g><path class="cls-89" d="M206.64,113.33a9,9,0,0,0-5.16-1.08,5.89,5.89,0,0,0-4.26,2.72A8.75,8.75,0,0,0,196,120a10.69,10.69,0,0,0,.42,2.63,7,7,0,0,0,1.17,2.4,8.35,8.35,0,0,1-1.93-5,8.9,8.9,0,0,1,1.15-5.33,6.19,6.19,0,0,1,4.6-2.83A8.36,8.36,0,0,1,206.64,113.33Z"/><ellipse class="cls-57" cx="203.67" cy="114.65" rx="1.91" ry="0.77"/><ellipse class="cls-57" cx="207.21" cy="116.26" rx="0.77" ry="1.91" transform="translate(61.21 303.71) rotate(-81.38)"/><path class="cls-12" d="M187.81,107.76s.78,10.35,1.3,14.42a14.9,14.9,0,0,1-.21,6.18s-3.17-1.93-3.34,1.87,5.62,3.89,7.74,2.17a3.08,3.08,0,0,0,1.08-4c-.23-.48.86-15.29.77-18"/><g class="cls-90"><path class="cls-57" d="M187.57,121.9a12.89,12.89,0,0,0,8.11.57q.39,6.32.7,12.63a3.3,3.3,0,0,1-.11,1.36,3.25,3.25,0,0,1-2.38,1.7,15.74,15.74,0,0,1-10.09-.65,3.28,3.28,0,0,1-1.88-1.49,3.55,3.55,0,0,1-.19-1.59,24.8,24.8,0,0,1,2.21-8.87c.71-1.54,1.71-3.13,3.33-3.63l-.43,1.34"/></g><path class="cls-89" d="M194.57,122.7c0-2,.05-4,.12-6s.17-4,.17-6v-.12l.11,0a2.21,2.21,0,0,0,1-.79.63.63,0,0,0,0-.55,1.28,1.28,0,0,0-.38-.5l-.1-.1.11-.08a1.75,1.75,0,0,0,.67-.78,1,1,0,0,0-.25-1,1.11,1.11,0,0,1,.33.44.86.86,0,0,1,0,.57,2,2,0,0,1-.66.94v-.18a1.59,1.59,0,0,1,.48.57.91.91,0,0,1,0,.79,2.37,2.37,0,0,1-1.09,1l.11-.18c0,2,0,4-.15,6S194.81,120.72,194.57,122.7Z"/><ellipse class="cls-57" cx="206.26" cy="109.06" rx="0.86" ry="1.76" transform="translate(-23.47 68.3) rotate(-17.81)"/><ellipse class="cls-57" cx="205.01" cy="105.16" rx="0.53" ry="1.09" transform="translate(-22.34 67.72) rotate(-17.81)"/><ellipse class="cls-57" cx="203.81" cy="108.23" rx="0.84" ry="1.72" transform="translate(-23.33 67.5) rotate(-17.81)"/></g><ellipse class="cls-46" cx="68.64" cy="99.76" rx="5.62" ry="3.11"/><ellipse class="cls-46" cx="81.38" cy="91.18" rx="8.03" ry="4.44"/></svg>