<svg id="_1" data-name="1" xmlns="http://www.w3.org/2000/svg" xmlns:xlink="http://www.w3.org/1999/xlink" viewBox="0 0 260 168"><defs><style>.cls-1{fill:#c99343;}.cls-2{fill:#d7fff4;opacity:0.3;}.cls-3{fill:#3d3dfc;}.cls-4{fill:#dda854;}.cls-5{fill:#e8ba67;}.cls-32,.cls-6{fill:#fff;}.cls-7{fill:#471e00;}.cls-8{fill:#7a3100;}.cls-9{clip-path:url(#clip-path);}.cls-10{fill:#1e1101;}.cls-11{clip-path:url(#clip-path-2);}.cls-12{clip-path:url(#clip-path-3);}.cls-13{fill:#f7d19a;}.cls-14{fill:#301c00;}.cls-15{fill:#ce9849;}.cls-16{fill:#a06f20;}.cls-17{fill:#e2af5d;}.cls-18{fill:#d69936;}.cls-19{clip-path:url(#clip-path-4);}.cls-20{fill:#ffd38d;}.cls-21{clip-path:url(#clip-path-5);}.cls-22{clip-path:url(#clip-path-6);}.cls-23{clip-path:url(#clip-path-7);}.cls-24{fill:#c41e1e;}.cls-25{fill:#93621b;}.cls-26{fill:#7a4609;}.cls-27,.cls-34{fill:none;stroke-linecap:round;stroke-linejoin:round;}.cls-27{stroke:#d8a14a;stroke-width:0.07px;}.cls-28{clip-path:url(#clip-path-8);}.cls-29{clip-path:url(#clip-path-9);}.cls-30{fill:#f4b460;}.cls-31{clip-path:url(#clip-path-10);}.cls-32{opacity:0.21;}.cls-33{fill:#2e2eef;}.cls-34{stroke:#457fff;stroke-width:0.03px;}.cls-35{fill:#457fff;}.cls-36{clip-path:url(#clip-path-11);}.cls-37{clip-path:url(#clip-path-12);}.cls-38{fill:#2d2de8;}</style><clipPath id="clip-path"><path class="cls-1" d="M227.5,133.57a2.35,2.35,0,0,1,1.38-.12,1.69,1.69,0,0,1,1,1,3,3,0,0,1-.9,3.42,1.36,1.36,0,0,1,1.48.26,1.05,1.05,0,0,1,0,1.44,1.64,1.64,0,0,1-.93.33,6.07,6.07,0,0,1-1.9-.12,1.73,1.73,0,0,1-1.06-.54,2,2,0,0,1-.32-1.16c0-.55,0-1.1,0-1.65a3.41,3.41,0,0,1,1-2.68l-.26.3"/></clipPath><clipPath id="clip-path-2"><path class="cls-1" d="M220,133.57a2.34,2.34,0,0,0-1.38-.12,1.68,1.68,0,0,0-.94,1,3,3,0,0,0,.9,3.42,1.36,1.36,0,0,0-1.48.26,1.05,1.05,0,0,0,0,1.44,1.69,1.69,0,0,0,.93.33,6.05,6.05,0,0,0,1.9-.12,1.78,1.78,0,0,0,1.07-.54,2,2,0,0,0,.31-1.16c0-.55,0-1.1,0-1.65a3.44,3.44,0,0,0-1-2.68l.25.3"/></clipPath><clipPath id="clip-path-3"><path class="cls-4" d="M228.3,133.06a20.51,20.51,0,0,1-1.6-5.71h-.16l-2.78.57-2.27-1.31-.51-.18a26.61,26.61,0,0,1-1.75,6.63c-1.41,3.38-.4,6.14,4.5,6.16h.06C228.7,139.2,229.71,136.44,228.3,133.06Z"/></clipPath><clipPath id="clip-path-4"><path class="cls-5" d="M229.17,127.69a1.81,1.81,0,0,0,.65-1,2.44,2.44,0,0,0-2.06-2.73,2.64,2.64,0,0,0-2.9.94l-.19,0-.18,0a2.64,2.64,0,0,0-2.11-2.2,2.45,2.45,0,0,0-3.11,1.44,1.87,1.87,0,0,0,.09,1.12,2.11,2.11,0,0,0,1,1.18,3.16,3.16,0,0,0,1,.43h.1a4.58,4.58,0,0,0,.71.12,3.37,3.37,0,0,0,1.75,1,3.43,3.43,0,0,0,2-.07,4.39,4.39,0,0,0,.67.23h.07l.05,0a3.13,3.13,0,0,0,1.09.08A2.14,2.14,0,0,0,229.17,127.69Z"/></clipPath><clipPath id="clip-path-5"><ellipse class="cls-6" cx="227.87" cy="124" rx="1.27" ry="0.97" transform="translate(52.14 314.85) rotate(-75.91)"/></clipPath><clipPath id="clip-path-6"><ellipse class="cls-6" cx="222.26" cy="122.59" rx="1.27" ry="0.97" transform="translate(49.26 308.33) rotate(-75.91)"/></clipPath><clipPath id="clip-path-7"><path class="cls-7" d="M222.63,125.78a3.66,3.66,0,0,0,3.43.77,1.75,1.75,0,0,1-2,.91A1.57,1.57,0,0,1,222.63,125.78Z"/></clipPath><clipPath id="clip-path-8"><path class="cls-4" d="M221.71,131.57a11.12,11.12,0,0,1-2.47.29,21,21,0,0,0-3.31.38,1.16,1.16,0,0,1-1.57.06c-1.49-1-.85-3.28.37-3.21s.9,1.08.9,1.08a29.9,29.9,0,0,1,5.48-1Z"/></clipPath><clipPath id="clip-path-9"><path class="cls-4" d="M226,133.29a11.27,11.27,0,0,0-.2,2.48,21.35,21.35,0,0,1-.26,3.32,1.15,1.15,0,0,0,0,1.57c1.1,1.45,3.31.73,3.2-.49s-1.12-.86-1.12-.86a29,29,0,0,0,.78-5.51Z"/></clipPath><clipPath id="clip-path-10"><circle class="cls-2" cx="222.13" cy="123.36" r="0.7" transform="translate(-25.26 181.29) rotate(-42.23)"/></clipPath><clipPath id="clip-path-11"><circle class="cls-2" cx="227.45" cy="124.78" r="0.7" transform="translate(-24.83 185.24) rotate(-42.23)"/></clipPath><clipPath id="clip-path-12"><path class="cls-3" d="M226.78,124.46l-.05,0a4.86,4.86,0,0,0-3.79-1,.13.13,0,0,1-.05-.26,5,5,0,0,1,4,1.06.14.14,0,0,1-.11.24Z"/></clipPath></defs><path class="cls-8" d="M220,126.91a.81.81,0,0,0-.31.82.79.79,0,0,0,.63.6.28.28,0,0,0,0,.38.69.69,0,0,0,.38.19,2.78,2.78,0,0,0,2.4-.7,1.68,1.68,0,0,0,2.12.16.8.8,0,0,0,1.34.09.6.6,0,0,0,.73.17.61.61,0,0,0,.31-.69c.28,0,.39-.39.38-.67a2.34,2.34,0,0,0-1.43-1.91A5.33,5.33,0,0,0,224,125a3.41,3.41,0,0,0-2.17.68c-.21.19-.43.45-.72.43-.11,0-.22-.08-.33-.11a.74.74,0,0,0-.76.22.72.72,0,0,0-.12.78"/><path class="cls-1" d="M227.5,133.57a2.35,2.35,0,0,1,1.38-.12,1.69,1.69,0,0,1,1,1,3,3,0,0,1-.9,3.42,1.36,1.36,0,0,1,1.48.26,1.05,1.05,0,0,1,0,1.44,1.64,1.64,0,0,1-.93.33,6.07,6.07,0,0,1-1.9-.12,1.73,1.73,0,0,1-1.06-.54,2,2,0,0,1-.32-1.16c0-.55,0-1.1,0-1.65a3.41,3.41,0,0,1,1-2.68l-.26.3"/><g class="cls-9"><path class="cls-10" d="M230.44,136.32a2.2,2.2,0,0,1-1.69.13,6.44,6.44,0,0,1-1.55-.78A10.94,10.94,0,0,0,225,137a3.66,3.66,0,0,0-1.29,2.17,3.38,3.38,0,0,0,1.18,2.86,6,6,0,0,0,2.89,1.29c1.42.26,3.09.11,4-1a3.49,3.49,0,0,0,.59-1.19,5.62,5.62,0,0,0-.76-4.79.31.31,0,0,0-.19-.15c-.09,0-.18.07-.14.15"/></g><path class="cls-1" d="M220,133.57a2.34,2.34,0,0,0-1.38-.12,1.68,1.68,0,0,0-.94,1,3,3,0,0,0,.9,3.42,1.36,1.36,0,0,0-1.48.26,1.05,1.05,0,0,0,0,1.44,1.69,1.69,0,0,0,.93.33,6.05,6.05,0,0,0,1.9-.12,1.78,1.78,0,0,0,1.07-.54,2,2,0,0,0,.31-1.16c0-.55,0-1.1,0-1.65a3.44,3.44,0,0,0-1-2.68l.25.3"/><g class="cls-11"><path class="cls-10" d="M217.08,136.32a2.2,2.2,0,0,0,1.69.13,6.1,6.1,0,0,0,1.55-.78,10.66,10.66,0,0,1,2.19,1.35,3.66,3.66,0,0,1,1.29,2.17,3.35,3.35,0,0,1-1.17,2.86,6,6,0,0,1-2.9,1.29c-1.42.26-3.09.11-4-1a3.52,3.52,0,0,1-.6-1.19,5.62,5.62,0,0,1,.77-4.79.31.31,0,0,1,.19-.15c.08,0,.18.07.14.15"/></g><path class="cls-4" d="M228.3,133.06a20.51,20.51,0,0,1-1.6-5.71h-.16l-2.78.57-2.27-1.31-.51-.18a26.61,26.61,0,0,1-1.75,6.63c-1.41,3.38-.4,6.14,4.5,6.16h.06C228.7,139.2,229.71,136.44,228.3,133.06Z"/><g class="cls-12"><ellipse class="cls-13" cx="223.76" cy="139.01" rx="3.22" ry="6.58"/><ellipse class="cls-14" cx="219.94" cy="130.63" rx="1.42" ry="0.89"/><ellipse class="cls-14" cx="227.65" cy="129.38" rx="1.42" ry="0.89"/><ellipse class="cls-14" cx="219.59" cy="128.82" rx="1.42" ry="0.89"/><ellipse class="cls-15" cx="223.98" cy="126.4" rx="2.2" ry="4.03" transform="matrix(0.17, -0.99, 0.99, 0.17, 61.3, 325.59)"/></g><ellipse class="cls-16" cx="223.98" cy="127.63" rx="0.89" ry="2.26" transform="translate(45.67 313.82) rotate(-75.91)"/><path class="cls-17" d="M229.61,120.82a3.28,3.28,0,0,1,2.68.54c1.39,1,1,1.63.18,2.45s-3.34,2.68-5.09-.62C227.38,123.19,228.3,120.85,229.61,120.82Z"/><path class="cls-13" d="M229.3,121.53a2.69,2.69,0,0,1,2.17.48c1.13.79.83,1.34.18,2s-2.65,2.12-4.11-.58C227.54,123.42,228.25,121.54,229.3,121.53Z"/><circle class="cls-18" cx="228.97" cy="122.68" r="1.06"/><path class="cls-17" d="M222.24,119a3.27,3.27,0,0,0-2.63-.79c-1.67.18-1.65,1-1.31,2.08s1.68,3.93,4.78,1.85C223.08,122.11,223.37,119.61,222.24,119Z"/><path class="cls-13" d="M222.17,119.74a2.7,2.7,0,0,0-2.14-.6c-1.37.17-1.37.79-1.1,1.67s1.33,3.12,3.9,1.43C222.83,122.24,223.1,120.24,222.17,119.74Z"/><circle class="cls-18" cx="221.92" cy="120.91" r="1.06"/><circle class="cls-5" cx="225.12" cy="123.08" r="4.33"/><path class="cls-5" d="M229.17,127.69a1.81,1.81,0,0,0,.65-1,2.44,2.44,0,0,0-2.06-2.73,2.64,2.64,0,0,0-2.9.94l-.19,0-.18,0a2.64,2.64,0,0,0-2.11-2.2,2.45,2.45,0,0,0-3.11,1.44,1.87,1.87,0,0,0,.09,1.12,2.11,2.11,0,0,0,1,1.18,3.16,3.16,0,0,0,1,.43h.1a4.58,4.58,0,0,0,.71.12,3.37,3.37,0,0,0,1.75,1,3.43,3.43,0,0,0,2-.07,4.39,4.39,0,0,0,.67.23h.07l.05,0a3.13,3.13,0,0,0,1.09.08A2.14,2.14,0,0,0,229.17,127.69Z"/><g class="cls-19"><circle class="cls-16" cx="224.09" cy="127.2" r="3.5"/></g><ellipse class="cls-16" cx="224.04" cy="127.38" rx="0.46" ry="3.46" transform="translate(45.96 313.69) rotate(-75.91)"/><ellipse class="cls-20" cx="222.34" cy="122.39" rx="1.48" ry="1.14" transform="translate(49.52 308.25) rotate(-75.91)"/><ellipse class="cls-20" cx="227.93" cy="123.79" rx="1.48" ry="1.14" transform="translate(52.39 314.74) rotate(-75.91)"/><path class="cls-8" d="M221.83,121.69a.46.46,0,0,1-.36-.35.56.56,0,0,0,.05.57s0,0,.07.06a.12.12,0,0,0,.12-.06.3.3,0,0,0,.06-.22l-.05,0"/><path class="cls-8" d="M221.68,122a.46.46,0,0,1-.36-.35.56.56,0,0,0,.05.57s0,.06.07.06a.1.1,0,0,0,.12-.06.29.29,0,0,0,.06-.22l-.05.06"/><path class="cls-8" d="M228.73,123.42a.48.48,0,0,0,.48-.14.58.58,0,0,1-.31.48s-.06,0-.09,0a.11.11,0,0,1-.08-.11.28.28,0,0,1,.05-.22l0,.07"/><path class="cls-8" d="M228.69,123.8a.44.44,0,0,0,.48-.14.54.54,0,0,1-.31.48.1.1,0,0,1-.09,0c-.05,0-.07-.06-.08-.11a.29.29,0,0,1,.06-.22v.07"/><ellipse class="cls-6" cx="227.87" cy="124" rx="1.27" ry="0.97" transform="translate(52.14 314.85) rotate(-75.91)"/><g class="cls-21"><path d="M227.9,123.5a.7.7,0,0,0-.25,0,.34.34,0,0,1,.06.28.3.3,0,0,1-.34.25.25.25,0,0,1-.19-.23,1,1,0,0,0-.23.46.86.86,0,0,0,.48,1.11,1,1,0,0,0,.47-1.87Z"/></g><path class="cls-8" d="M222,121.07a.69.69,0,0,1,.8-.27.93.93,0,0,1,.36.25.87.87,0,0,1,.18.39,2.44,2.44,0,0,0-.63-.36.88.88,0,0,0-.33-.06A3.07,3.07,0,0,0,222,121.07Z"/><path class="cls-8" d="M228.89,122.8a1.75,1.75,0,0,0-.32-.21.61.61,0,0,0-.31-.11,2.54,2.54,0,0,0-.72,0,.93.93,0,0,1,.33-.26.85.85,0,0,1,.45,0A.7.7,0,0,1,228.89,122.8Z"/><ellipse class="cls-6" cx="222.26" cy="122.59" rx="1.27" ry="0.97" transform="translate(49.26 308.33) rotate(-75.91)"/><g class="cls-22"><path d="M222.38,122.11a.65.65,0,0,0-.24,0,.35.35,0,0,1,.05.29.29.29,0,0,1-.34.24.27.27,0,0,1-.19-.23,1.24,1.24,0,0,0-.23.46.76.76,0,1,0,1.43.36A.88.88,0,0,0,222.38,122.11Z"/></g><path class="cls-5" d="M220.33,123.91a1.15,1.15,0,0,1,1.45-.61,1.44,1.44,0,0,1,.87.59"/><path class="cls-5" d="M226.91,124.88a1.48,1.48,0,0,1,.94,0c.67.17,1.12.71,1,1.22"/><path class="cls-7" d="M222.63,125.78a3.66,3.66,0,0,0,3.43.77,1.75,1.75,0,0,1-2,.91A1.57,1.57,0,0,1,222.63,125.78Z"/><g class="cls-23"><ellipse class="cls-24" cx="223.93" cy="127.81" rx="0.68" ry="1.17" transform="translate(45.46 313.9) rotate(-75.91)"/><ellipse class="cls-6" cx="224.3" cy="126.33" rx="0.72" ry="1.2" transform="translate(47.18 313.14) rotate(-75.91)"/></g><ellipse class="cls-25" cx="224.58" cy="125.23" rx="1.49" ry="2.49" transform="translate(48.46 312.58) rotate(-75.91)"/><ellipse class="cls-14" cx="224.73" cy="124.65" rx="0.78" ry="1.52" transform="translate(49.13 312.29) rotate(-75.91)"/><ellipse class="cls-26" cx="224.4" cy="124.08" rx="0.18" ry="0.36" transform="translate(49.43 311.54) rotate(-75.91)"/><path class="cls-8" d="M221.56,121.82a1,1,0,0,1,1.05-.45.87.87,0,0,1,.6.73s-.25-.51-.65-.59a1.19,1.19,0,0,0-1.21.75A1.22,1.22,0,0,1,221.56,121.82Z"/><path class="cls-8" d="M228.85,123.65a1,1,0,0,0-.71-.89.85.85,0,0,0-.87.36,1.15,1.15,0,0,1,.85-.21,1.19,1.19,0,0,1,.72,1.23A1.3,1.3,0,0,0,228.85,123.65Z"/><path class="cls-27" d="M220.85,123.36a1.19,1.19,0,0,0,1.46.61"/><path class="cls-27" d="M228.75,125.34a1.18,1.18,0,0,1-1.57-.15"/><path class="cls-8" d="M229.05,120.58a3.11,3.11,0,0,0-.87-1.61.44.44,0,0,0-.08-.11l-.38-.44-.13-.16a.74.74,0,0,0-.13-.12,2.14,2.14,0,0,1-.22-.1.72.72,0,0,1-.12-.21.46.46,0,0,0-.74,0,2.9,2.9,0,0,0-2.23.28h0a3.12,3.12,0,0,0-1.33.94.57.57,0,0,0-.17.48.56.56,0,0,0,.38.32c.21.09.49.15.62,0a.22.22,0,0,0,.1.28.54.54,0,0,0,.31.06,1.74,1.74,0,0,0,.77-.24.28.28,0,0,0,.09.07.51.51,0,0,0,.5-.14,2.62,2.62,0,0,0,.6-.69,1.36,1.36,0,0,0,.61,1l.12,0a1.78,1.78,0,0,0,.68.78.52.52,0,0,0,.31.1c.11,0,.22-.09.21-.2,0,.22.31.3.54.32a.57.57,0,0,0,.48-.1A.54.54,0,0,0,229.05,120.58Z"/><path class="cls-27" d="M224.26,120.47a4.52,4.52,0,0,0,2.77.7"/><path class="cls-27" d="M224.61,121a3,3,0,0,0,1.88.47"/><path class="cls-4" d="M221.71,131.57a11.12,11.12,0,0,1-2.47.29,21,21,0,0,0-3.31.38,1.16,1.16,0,0,1-1.57.06c-1.49-1-.85-3.28.37-3.21s.9,1.08.9,1.08a29.9,29.9,0,0,1,5.48-1Z"/><g class="cls-28"><path class="cls-14" d="M217.39,128.79a4,4,0,0,0,.43,3.75,8.26,8.26,0,0,1-3.21,1.29,2.92,2.92,0,0,1-2.71-.59,3.38,3.38,0,0,1-.62-1.31,3.75,3.75,0,0,1-.13-2.53,3.21,3.21,0,0,1,1.64-1.48,4.9,4.9,0,0,1,2.3-.57,2.79,2.79,0,0,1,2.1,1l-.18-.2"/></g><path class="cls-4" d="M226,133.29a11.27,11.27,0,0,0-.2,2.48,21.35,21.35,0,0,1-.26,3.32,1.15,1.15,0,0,0,0,1.57c1.1,1.45,3.31.73,3.2-.49s-1.12-.86-1.12-.86a29,29,0,0,0,.78-5.51Z"/><g class="cls-29"><path class="cls-14" d="M229,137.51a4,4,0,0,1-3.77-.3,8.58,8.58,0,0,0-1.17,3.25,2.92,2.92,0,0,0,.7,2.69,3.3,3.3,0,0,0,1.33.57,3.73,3.73,0,0,0,2.53,0,3.17,3.17,0,0,0,1.42-1.69,5,5,0,0,0,.48-2.33,2.7,2.7,0,0,0-1.07-2.05l.22.17"/></g><path class="cls-30" d="M222,130c-.14.28-.3.68-.06.95s.66.15,1,0l-.11,0a.81.81,0,0,0,1.47,0l-.11,0a1.08,1.08,0,0,0,.77.36.57.57,0,0,0,.51-.4l-.13,0a.53.53,0,0,0,.83.12c.29-.3.08-.78-.19-1-.07-.06-.18,0-.11.11s.39.48.24.74a.38.38,0,0,1-.65,0,.07.07,0,0,0-.13,0,.45.45,0,0,1-.53.28,1,1,0,0,1-.51-.31.07.07,0,0,0-.11,0,.67.67,0,0,1-1.22,0s-.06,0-.1,0c-.23.11-.6.24-.78,0s0-.54.08-.76-.08-.16-.12-.07Z"/><circle class="cls-2" cx="222.13" cy="123.36" r="0.7" transform="translate(-25.26 181.29) rotate(-42.23)"/><g class="cls-31"><path class="cls-32" d="M222.28,122.5a6.77,6.77,0,0,0-.51.56s-.06.08,0,.12l0,0a.17.17,0,0,1,0,.14.65.65,0,0,1-.13.16l-.31.39s0,.08,0,.11a.06.06,0,0,0,.08,0,.1.1,0,0,0,.06,0l.46-.56a.15.15,0,0,0,.05-.13s0,0,0-.06a.13.13,0,0,1,.05-.12l.45-.48s0,0,0,0,0-.07-.09-.08"/></g><path class="cls-33" d="M221.92,124.15a.82.82,0,1,1,.42-1.59.82.82,0,0,1,.58,1A.81.81,0,0,1,221.92,124.15Zm.38-1.45a.68.68,0,0,0-.83.48.68.68,0,1,0,.83-.48Z"/><path class="cls-34" d="M221.38,123.16a.78.78,0,0,1,1-.55"/><path class="cls-34" d="M222.8,123.56a.68.68,0,0,1-.83.48"/><circle class="cls-35" cx="221.37" cy="123.22" r="0.02"/><circle class="cls-35" cx="222.81" cy="123.51" r="0.02"/><circle class="cls-2" cx="227.45" cy="124.78" r="0.7" transform="translate(-24.83 185.24) rotate(-42.23)"/><g class="cls-36"><path class="cls-32" d="M227.6,123.92a6.77,6.77,0,0,0-.51.56s-.06.08,0,.12,0,0,0,0a.14.14,0,0,1,0,.14c0,.06-.09.11-.13.16s-.22.26-.32.39,0,.08,0,.11a.06.06,0,0,0,.08,0,.18.18,0,0,0,.07,0l.45-.56s.07-.08,0-.13,0,0,0-.06a.13.13,0,0,1,0-.12l.45-.48s0,0,0,0,0-.07-.08-.08"/></g><path class="cls-33" d="M227.24,125.57a.82.82,0,0,1,.42-1.59.84.84,0,0,1,.59,1A.82.82,0,0,1,227.24,125.57Zm.39-1.45a.68.68,0,1,0,.48.83A.67.67,0,0,0,227.63,124.12Z"/><path class="cls-34" d="M226.7,124.58a.77.77,0,0,1,1-.55"/><path class="cls-34" d="M228.12,125a.68.68,0,0,1-.83.48"/><circle class="cls-35" cx="226.69" cy="124.64" r="0.02"/><circle class="cls-35" cx="228.14" cy="124.93" r="0.02"/><path class="cls-3" d="M226.78,124.46l-.05,0a4.86,4.86,0,0,0-3.79-1,.13.13,0,0,1-.05-.26,5,5,0,0,1,4,1.06.14.14,0,0,1-.11.24Z"/><g class="cls-37"><path class="cls-38" d="M222.58,123.42a4.29,4.29,0,0,1,2.42,0,4.63,4.63,0,0,1,2.23,1.31l-.89.27-3.5-1Z"/></g><ellipse class="cls-35" cx="224.32" cy="123.22" rx="0.04" ry="0.59" transform="translate(72.9 329.55) rotate(-82.5)"/><ellipse class="cls-35" cx="225.11" cy="123.36" rx="0.04" ry="0.16" transform="translate(47.92 309.1) rotate(-75.07)"/></svg>