<svg id="_1" data-name="1" xmlns="http://www.w3.org/2000/svg" xmlns:xlink="http://www.w3.org/1999/xlink" viewBox="0 0 260 168"><defs><style>.cls-1{fill:#c99343;}.cls-2{fill:#d7fff4;opacity:0.3;}.cls-3{fill:#3d3dfc;}.cls-4{fill:#dda854;}.cls-5{fill:#e8ba67;}.cls-32,.cls-6{fill:#fff;}.cls-7{fill:#471e00;}.cls-8{fill:#7a3100;}.cls-9{clip-path:url(#clip-path);}.cls-10{fill:#1e1101;}.cls-11{clip-path:url(#clip-path-2);}.cls-12{clip-path:url(#clip-path-3);}.cls-13{fill:#f7d19a;}.cls-14{fill:#301c00;}.cls-15{fill:#ce9849;}.cls-16{fill:#a06f20;}.cls-17{fill:#e2af5d;}.cls-18{fill:#d69936;}.cls-19{clip-path:url(#clip-path-4);}.cls-20{fill:#ffd38d;}.cls-21{clip-path:url(#clip-path-5);}.cls-22{clip-path:url(#clip-path-6);}.cls-23{clip-path:url(#clip-path-7);}.cls-24{fill:#c41e1e;}.cls-25{fill:#93621b;}.cls-26{fill:#7a4609;}.cls-27,.cls-34{fill:none;stroke-linecap:round;stroke-linejoin:round;}.cls-27{stroke:#d8a14a;stroke-width:0.19px;}.cls-28{clip-path:url(#clip-path-8);}.cls-29{clip-path:url(#clip-path-9);}.cls-30{fill:#f4b460;}.cls-31{clip-path:url(#clip-path-10);}.cls-32{opacity:0.21;}.cls-33{fill:#2e2eef;}.cls-34{stroke:#457fff;stroke-width:0.08px;}.cls-35{fill:#457fff;}.cls-36{clip-path:url(#clip-path-11);}.cls-37{clip-path:url(#clip-path-12);}.cls-38{fill:#2d2de8;}</style><clipPath id="clip-path"><path class="cls-1" d="M221.56,110.7a6,6,0,0,1,3.59-.31,4.4,4.4,0,0,1,2.46,2.62,7.87,7.87,0,0,1-2.34,8.88,3.54,3.54,0,0,1,3.85.69,2.72,2.72,0,0,1,0,3.73,4.15,4.15,0,0,1-2.42.85,16.05,16.05,0,0,1-4.94-.29,4.7,4.7,0,0,1-2.76-1.42,5.13,5.13,0,0,1-.83-3c-.07-1.43-.08-2.86,0-4.29.1-2.56.57-5.41,2.6-7l-.65.78"/></clipPath><clipPath id="clip-path-2"><path class="cls-1" d="M202.13,110.7a6,6,0,0,0-3.59-.31,4.35,4.35,0,0,0-2.45,2.62,7.86,7.86,0,0,0,2.34,8.88,3.53,3.53,0,0,0-3.85.69,2.72,2.72,0,0,0,0,3.73,4.1,4.1,0,0,0,2.42.85,16.07,16.07,0,0,0,4.94-.29,4.76,4.76,0,0,0,2.76-1.42,5.12,5.12,0,0,0,.82-3c.08-1.43.08-2.86,0-4.29-.11-2.56-.57-5.41-2.61-7l.66.78"/></clipPath><clipPath id="clip-path-3"><path class="cls-4" d="M223.64,109.37c-3.68-8.8-4.15-14.84-4.15-14.84h-.42L211.85,96,206,92.6l-1.33-.45a68.58,68.58,0,0,1-4.56,17.22c-3.66,8.77-1,16,11.71,16h.15C224.67,125.33,227.3,118.14,223.64,109.37Z"/></clipPath><clipPath id="clip-path-4"><path class="cls-5" d="M225.9,95.43a4.81,4.81,0,0,0,1.7-2.58c.75-3-1.65-6.17-5.36-7.1-3.14-.78-6.2.29-7.53,2.45l-.49-.14-.48-.11c-.15-2.52-2.34-4.92-5.48-5.71-3.71-.93-7.33.74-8.08,3.73a4.78,4.78,0,0,0,.22,2.92A5.54,5.54,0,0,0,203,92a8.51,8.51,0,0,0,2.55,1.11l.12,0,.16,0a9.94,9.94,0,0,0,1.83.29,8.69,8.69,0,0,0,4.56,2.65,8.59,8.59,0,0,0,5.27-.19,9.5,9.5,0,0,0,1.75.61l.17,0,.13,0a8.44,8.44,0,0,0,2.85.21A5.6,5.6,0,0,0,225.9,95.43Z"/></clipPath><clipPath id="clip-path-5"><ellipse class="cls-6" cx="222.53" cy="85.83" rx="3.29" ry="2.51" transform="translate(85.13 280.78) rotate(-75.91)"/></clipPath><clipPath id="clip-path-6"><ellipse class="cls-6" cx="207.94" cy="82.17" rx="3.29" ry="2.51" transform="translate(77.64 263.86) rotate(-75.91)"/></clipPath><clipPath id="clip-path-7"><path class="cls-7" d="M208.92,90.46a9.5,9.5,0,0,0,8.9,2,4.56,4.56,0,0,1-5.31,2.37C208.41,93.79,208.92,90.46,208.92,90.46Z"/></clipPath><clipPath id="clip-path-8"><path class="cls-4" d="M205.91,102.69a28,28,0,0,1-6.15-2,55.89,55.89,0,0,0-8.2-2.72c-2.93.68-3.77-1.59-3.77-1.59-2.35-4.09,1.6-8.66,4.4-7.17s.93,3.55.93,3.55a77.76,77.76,0,0,1,14,3.7Z"/></clipPath><clipPath id="clip-path-9"><path class="cls-4" d="M217.42,103.75a28.69,28.69,0,0,0,6.27-1.6,55.28,55.28,0,0,1,8.38-2.14c2.87.88,3.87-1.32,3.87-1.32,2.63-3.91-1-8.75-3.88-7.46s-1.18,3.47-1.18,3.47a77.38,77.38,0,0,0-14.22,2.71Z"/></clipPath><clipPath id="clip-path-10"><circle class="cls-2" cx="207.21" cy="84.49" r="1.94" transform="translate(-13.6 48.16) rotate(-12.84)"/></clipPath><clipPath id="clip-path-11"><circle class="cls-2" cx="221.89" cy="88.51" r="1.94" transform="translate(-14.12 51.53) rotate(-12.84)"/></clipPath><clipPath id="clip-path-12"><path class="cls-3" d="M220,87.61a.31.31,0,0,1-.13-.06,13.47,13.47,0,0,0-10.44-2.88.36.36,0,0,1-.43-.28.36.36,0,0,1,.28-.43,13.92,13.92,0,0,1,11.05,3,.36.36,0,0,1,0,.51A.35.35,0,0,1,220,87.61Z"/></clipPath></defs><path class="cls-8" d="M202,93.39a2.05,2.05,0,0,0,.83,3.7.7.7,0,0,0,0,1,1.8,1.8,0,0,0,1,.47A7.15,7.15,0,0,0,210,96.74a4.38,4.38,0,0,0,5.52.41,2.08,2.08,0,0,0,3.47.25,1.59,1.59,0,0,0,1.91.43,1.61,1.61,0,0,0,.8-1.79c.72-.11,1-1,1-1.73a6,6,0,0,0-3.72-5,13.83,13.83,0,0,0-6.42-.89c-2,.1-4.15.42-5.64,1.77-.55.5-1.11,1.18-1.85,1.1a4.51,4.51,0,0,1-.86-.27,1.91,1.91,0,0,0-2.3,2.61"/><path class="cls-1" d="M221.56,110.7a6,6,0,0,1,3.59-.31,4.4,4.4,0,0,1,2.46,2.62,7.87,7.87,0,0,1-2.34,8.88,3.54,3.54,0,0,1,3.85.69,2.72,2.72,0,0,1,0,3.73,4.15,4.15,0,0,1-2.42.85,16.05,16.05,0,0,1-4.94-.29,4.7,4.7,0,0,1-2.76-1.42,5.13,5.13,0,0,1-.83-3c-.07-1.43-.08-2.86,0-4.29.1-2.56.57-5.41,2.6-7l-.65.78"/><g class="cls-9"><path class="cls-10" d="M229.2,117.84a5.64,5.64,0,0,1-4.38.34,16.72,16.72,0,0,1-4-2,27.67,27.67,0,0,0-5.69,3.51,9.36,9.36,0,0,0-3.35,5.63,8.67,8.67,0,0,0,3,7.42,15.41,15.41,0,0,0,7.54,3.36c3.68.68,8,.29,10.38-2.63a8.94,8.94,0,0,0,1.53-3.07,14.56,14.56,0,0,0-2-12.45.87.87,0,0,0-.5-.41c-.21,0-.46.19-.36.39"/></g><path class="cls-1" d="M202.13,110.7a6,6,0,0,0-3.59-.31,4.35,4.35,0,0,0-2.45,2.62,7.86,7.86,0,0,0,2.34,8.88,3.53,3.53,0,0,0-3.85.69,2.72,2.72,0,0,0,0,3.73,4.1,4.1,0,0,0,2.42.85,16.07,16.07,0,0,0,4.94-.29,4.76,4.76,0,0,0,2.76-1.42,5.12,5.12,0,0,0,.82-3c.08-1.43.08-2.86,0-4.29-.11-2.56-.57-5.41-2.61-7l.66.78"/><g class="cls-11"><path class="cls-10" d="M194.49,117.84a5.66,5.66,0,0,0,4.39.34,17.09,17.09,0,0,0,4-2,27.67,27.67,0,0,1,5.69,3.51A9.41,9.41,0,0,1,212,125.3a8.68,8.68,0,0,1-3,7.42,15.33,15.33,0,0,1-7.53,3.36c-3.69.68-8,.29-10.38-2.63a9.15,9.15,0,0,1-1.54-3.07,14.6,14.6,0,0,1,2-12.45.89.89,0,0,1,.49-.41c.22,0,.47.19.36.39"/></g><path class="cls-4" d="M223.64,109.37c-3.68-8.8-4.15-14.84-4.15-14.84h-.42L211.85,96,206,92.6l-1.33-.45a68.58,68.58,0,0,1-4.56,17.22c-3.66,8.77-1,16,11.71,16h.15C224.67,125.33,227.3,118.14,223.64,109.37Z"/><g class="cls-12"><ellipse class="cls-13" cx="211.85" cy="124.83" rx="8.38" ry="17.1"/><ellipse class="cls-14" cx="201.91" cy="103.06" rx="3.69" ry="2.3"/><ellipse class="cls-14" cx="221.95" cy="99.81" rx="3.69" ry="2.3"/><ellipse class="cls-14" cx="201" cy="98.34" rx="3.69" ry="2.3"/><ellipse class="cls-15" cx="212.41" cy="92.05" rx="5.71" ry="10.47" transform="translate(85.55 285.69) rotate(-80.2)"/></g><ellipse class="cls-16" cx="212.41" cy="95.26" rx="2.32" ry="5.87" transform="translate(68.32 278.11) rotate(-75.91)"/><path class="cls-17" d="M227,77.55A8.58,8.58,0,0,1,234,79c3.61,2.47,2.61,4.24.45,6.38s-8.65,7-13.21-1.61C221.25,83.73,223.65,77.63,227,77.55Z"/><path class="cls-13" d="M226.23,79.4a7,7,0,0,1,5.65,1.26c2.94,2.06,2.17,3.47.46,5.17s-6.87,5.51-10.67-1.51C221.67,84.32,223.5,79.42,226.23,79.4Z"/><circle class="cls-18" cx="225.38" cy="82.4" r="2.77"/><path class="cls-17" d="M207.89,72.74a8.57,8.57,0,0,0-6.82-2c-4.35.48-4.3,2.51-3.41,5.41s4.35,10.22,12.4,4.82C210.06,80.92,210.83,74.42,207.89,72.74Z"/><path class="cls-13" d="M207.72,74.76a7,7,0,0,0-5.57-1.56c-3.57.42-3.55,2-2.85,4.34s3.45,8.1,10.12,3.71C209.42,81.25,210.11,76.06,207.72,74.76Z"/><circle class="cls-18" cx="207.06" cy="77.8" r="2.77"/><circle class="cls-5" cx="215.38" cy="83.42" r="11.25"/><path class="cls-5" d="M225.9,95.43a4.81,4.81,0,0,0,1.7-2.58c.75-3-1.65-6.17-5.36-7.1-3.14-.78-6.2.29-7.53,2.45l-.49-.14-.48-.11c-.15-2.52-2.34-4.92-5.48-5.71-3.71-.93-7.33.74-8.08,3.73a4.78,4.78,0,0,0,.22,2.92A5.54,5.54,0,0,0,203,92a8.51,8.51,0,0,0,2.55,1.11l.12,0,.16,0a9.94,9.94,0,0,0,1.83.29,8.69,8.69,0,0,0,4.56,2.65,8.59,8.59,0,0,0,5.27-.19,9.5,9.5,0,0,0,1.75.61l.17,0,.13,0a8.44,8.44,0,0,0,2.85.21A5.6,5.6,0,0,0,225.9,95.43Z"/><g class="cls-19"><circle class="cls-16" cx="212.7" cy="94.13" r="9.1"/></g><ellipse class="cls-16" cx="212.57" cy="94.62" rx="1.2" ry="9" transform="translate(69.07 277.77) rotate(-75.91)"/><ellipse class="cls-20" cx="208.14" cy="81.64" rx="3.85" ry="2.96" transform="translate(78.3 263.65) rotate(-75.91)"/><ellipse class="cls-20" cx="222.67" cy="85.28" rx="3.85" ry="2.96" transform="translate(85.76 280.5) rotate(-75.91)"/><path class="cls-8" d="M206.82,79.81a1.16,1.16,0,0,1-.92-.91,1.45,1.45,0,0,0,.12,1.49.29.29,0,0,0,.19.15.32.32,0,0,0,.32-.15.73.73,0,0,0,.13-.57l-.12.14"/><path class="cls-8" d="M206.43,80.73a1.17,1.17,0,0,1-.92-.9,1.44,1.44,0,0,0,.12,1.48.37.37,0,0,0,.19.16.34.34,0,0,0,.32-.16.72.72,0,0,0,.13-.57l-.11.14"/><path class="cls-8" d="M224.76,84.31A1.16,1.16,0,0,0,226,84a1.46,1.46,0,0,1-.81,1.25.34.34,0,0,1-.24,0,.32.32,0,0,1-.2-.29.73.73,0,0,1,.15-.57l0,.18"/><path class="cls-8" d="M224.67,85.31a1.17,1.17,0,0,0,1.24-.37,1.48,1.48,0,0,1-.81,1.26.41.41,0,0,1-.24,0,.33.33,0,0,1-.21-.28.78.78,0,0,1,.15-.57l0,.18"/><ellipse class="cls-6" cx="222.53" cy="85.83" rx="3.29" ry="2.51" transform="translate(85.13 280.78) rotate(-75.91)"/><g class="cls-21"><path d="M222.59,84.53a1.67,1.67,0,0,0-.63,0,.89.89,0,0,1,.14.74.79.79,0,0,1-.89.65.72.72,0,0,1-.49-.61,3,3,0,0,0-.6,1.2c-.33,1.34.22,2.64,1.25,2.89a2.6,2.6,0,0,0,1.22-4.86Z"/></g><path class="cls-8" d="M207.2,78.21a1.78,1.78,0,0,1,2.06-.71,2.07,2.07,0,0,1,1,.67,2.88,2.88,0,0,1,.3.47,5.44,5.44,0,0,1,.15.54l-.85-.57a3.85,3.85,0,0,0-.79-.39A3.62,3.62,0,0,0,207.2,78.21Z"/><path class="cls-8" d="M225.17,82.72a3.54,3.54,0,0,0-1.62-.85,4.2,4.2,0,0,0-.88,0l-1,.1a4.89,4.89,0,0,1,.39-.4,2.57,2.57,0,0,1,.49-.27,2.15,2.15,0,0,1,1.16-.15A1.81,1.81,0,0,1,225.17,82.72Z"/><ellipse class="cls-6" cx="207.94" cy="82.17" rx="3.29" ry="2.51" transform="translate(77.64 263.86) rotate(-75.91)"/><g class="cls-22"><path d="M208.25,80.93a1.34,1.34,0,0,0-.63,0,.87.87,0,0,1,.14.73.79.79,0,0,1-.88.65.69.69,0,0,1-.49-.61,3.08,3.08,0,0,0-.6,1.2,2,2,0,1,0,2.46-2Z"/></g><path class="cls-5" d="M202.93,85.59c.33-1.31,2-2,3.77-1.57A3.73,3.73,0,0,1,209,85.54"/><path class="cls-5" d="M220,88.11a3.94,3.94,0,0,1,2.45-.14c1.75.44,2.91,1.86,2.58,3.17"/><path class="cls-7" d="M208.92,90.46a9.5,9.5,0,0,0,8.9,2,4.56,4.56,0,0,1-5.31,2.37C208.41,93.79,208.92,90.46,208.92,90.46Z"/><g class="cls-23"><ellipse class="cls-24" cx="212.28" cy="95.73" rx="1.77" ry="3.05" transform="translate(67.76 278.33) rotate(-75.91)"/><ellipse class="cls-6" cx="213.24" cy="91.88" rx="1.86" ry="3.12" transform="translate(72.23 276.35) rotate(-75.91)"/></g><ellipse class="cls-25" cx="213.98" cy="89.02" rx="3.88" ry="6.48" transform="translate(75.56 274.9) rotate(-75.91)"/><ellipse class="cls-14" cx="214.35" cy="87.52" rx="2.03" ry="3.94" transform="translate(77.3 274.13) rotate(-75.91)"/><ellipse class="cls-26" cx="213.5" cy="86.04" rx="0.47" ry="0.94" transform="translate(78.09 272.18) rotate(-75.91)"/><path class="cls-8" d="M206.14,80.17A2.68,2.68,0,0,1,208.86,79a2.26,2.26,0,0,1,1.56,1.91s-.65-1.34-1.71-1.53a3.06,3.06,0,0,0-3.14,1.93A3.16,3.16,0,0,1,206.14,80.17Z"/><path class="cls-8" d="M225.07,84.92a2.66,2.66,0,0,0-1.84-2.32,2.25,2.25,0,0,0-2.28.94,3,3,0,0,1,2.23-.55A3.1,3.1,0,0,1,225,86.18,3.24,3.24,0,0,0,225.07,84.92Z"/><path class="cls-27" d="M204.28,84.16a3.09,3.09,0,0,0,3.79,1.59"/><path class="cls-27" d="M224.82,89.32a3.09,3.09,0,0,1-4.08-.39"/><path class="cls-8" d="M225.59,76.94a7.88,7.88,0,0,0-2.27-4.18,1.15,1.15,0,0,0-.2-.29l-1-1.16-.34-.39a1.38,1.38,0,0,0-.33-.31,4.15,4.15,0,0,1-.56-.27,1.77,1.77,0,0,1-.32-.55,1.2,1.2,0,0,0-1.93-.09,7.41,7.41,0,0,0-5.8.72v0a8,8,0,0,0-3.46,2.43,1.5,1.5,0,0,0-.43,1.27c.12.43.57.66,1,.83s1.26.37,1.62-.09a.58.58,0,0,0,.24.73,1.36,1.36,0,0,0,.82.15,4.53,4.53,0,0,0,2-.61.84.84,0,0,0,.24.18,1.34,1.34,0,0,0,1.31-.38,6.81,6.81,0,0,0,1.55-1.79,3.47,3.47,0,0,0,1.57,2.63,1.3,1.3,0,0,0,.32.14,4.79,4.79,0,0,0,1.78,2,1.36,1.36,0,0,0,.79.26.58.58,0,0,0,.56-.53c.1.57.81.78,1.39.84a1.54,1.54,0,0,0,1.25-.27A1.45,1.45,0,0,0,225.59,76.94Z"/><path class="cls-27" d="M213.14,76.66a11.75,11.75,0,0,0,7.21,1.81"/><path class="cls-27" d="M214.06,77.94a7.91,7.91,0,0,0,4.88,1.23"/><path class="cls-4" d="M205.91,102.69a28,28,0,0,1-6.15-2,55.89,55.89,0,0,0-8.2-2.72c-2.93.68-3.77-1.59-3.77-1.59-2.35-4.09,1.6-8.66,4.4-7.17s.93,3.55.93,3.55a77.76,77.76,0,0,1,14,3.7Z"/><g class="cls-28"><path class="cls-14" d="M198.78,91.39a10.34,10.34,0,0,0-3.09,9.32,22.11,22.11,0,0,1-9-.48c-2.43-.64-5-2-5.73-4.38a8.56,8.56,0,0,1,0-3.77c.32-2.22.8-4.6,2.47-6.1a8.33,8.33,0,0,1,5.49-1.68A12.8,12.8,0,0,1,195,85.48a7.15,7.15,0,0,1,3.84,4.64l-.19-.68"/></g><path class="cls-4" d="M217.42,103.75a28.69,28.69,0,0,0,6.27-1.6,55.28,55.28,0,0,1,8.38-2.14c2.87.88,3.87-1.32,3.87-1.32,2.63-3.91-1-8.75-3.88-7.46s-1.18,3.47-1.18,3.47a77.38,77.38,0,0,0-14.22,2.71Z"/><g class="cls-29"><path class="cls-14" d="M225.33,93a10.36,10.36,0,0,1,2.42,9.52,22.32,22.32,0,0,0,9,.15c2.47-.47,5.13-1.62,6-4a8.51,8.51,0,0,0,.29-3.76c-.16-2.24-.47-4.65-2-6.26a8.29,8.29,0,0,0-5.36-2.07,12.81,12.81,0,0,0-6.11.76,7.08,7.08,0,0,0-4.16,4.35l.24-.66"/></g><path class="cls-30" d="M207.34,101.49c-.35.73-.76,1.77-.14,2.48s1.72.38,2.47,0l-.26-.07a2.11,2.11,0,0,0,3.82-.06l-.3,0a2.71,2.71,0,0,0,2,1,1.47,1.47,0,0,0,1.33-1l-.35,0a1.41,1.41,0,0,0,2.16.32c.77-.8.21-2-.49-2.66-.19-.16-.46.11-.28.27.51.45,1,1.27.62,1.94a1,1,0,0,1-1.68-.07.2.2,0,0,0-.35,0,1.14,1.14,0,0,1-1.36.72,2.63,2.63,0,0,1-1.33-.81.2.2,0,0,0-.3,0,1.72,1.72,0,0,1-3.16.07.19.19,0,0,0-.26-.07c-.59.26-1.55.61-2,0s0-1.42.22-2c.1-.22-.23-.42-.33-.2Z"/><circle class="cls-2" cx="207.21" cy="84.49" r="1.94" transform="translate(-13.6 48.16) rotate(-12.84)"/><g class="cls-31"><path class="cls-32" d="M207.64,82.12c-.49.49-1,1-1.42,1.53-.09.1-.17.23-.11.34s.07.08.11.13a.36.36,0,0,1,0,.36,2.6,2.6,0,0,1-.36.46c-.31.34-.59.7-.88,1.07-.07.08-.14.21-.07.3a.18.18,0,0,0,.21,0,.46.46,0,0,0,.18-.16l1.27-1.52a.47.47,0,0,0,.15-.37,1.22,1.22,0,0,1-.07-.17.44.44,0,0,1,.15-.33L208,82.49a.29.29,0,0,0,.09-.15c0-.11-.13-.17-.23-.2"/></g><path class="cls-33" d="M206.61,86.68a2.27,2.27,0,1,1,2.79-1.59A2.27,2.27,0,0,1,206.61,86.68Zm1.1-4A1.89,1.89,0,1,0,209,85,1.89,1.89,0,0,0,207.71,82.67Z"/><path class="cls-34" d="M205.15,83.92a2.14,2.14,0,0,1,2.63-1.49"/><path class="cls-34" d="M209.07,85.05a1.9,1.9,0,0,1-2.32,1.32"/><circle class="cls-35" cx="205.11" cy="84.1" r="0.06"/><circle class="cls-35" cx="209.1" cy="84.92" r="0.05"/><circle class="cls-2" cx="221.89" cy="88.51" r="1.94" transform="translate(-14.12 51.53) rotate(-12.84)"/><g class="cls-36"><path class="cls-32" d="M222.32,86.14c-.49.5-1,1-1.43,1.54-.08.09-.16.22-.11.33a1.42,1.42,0,0,0,.12.13.36.36,0,0,1,0,.36,2,2,0,0,1-.36.46c-.31.34-.6.71-.88,1.07-.07.09-.14.21-.07.3a.17.17,0,0,0,.21,0,.44.44,0,0,0,.18-.15l1.27-1.52a.48.48,0,0,0,.15-.38,1.22,1.22,0,0,1-.07-.17c0-.12.07-.23.15-.32l1.24-1.32a.31.31,0,0,0,.09-.14c0-.12-.13-.18-.23-.21"/></g><path class="cls-33" d="M221.29,90.71a2.28,2.28,0,1,1,2.79-1.6A2.28,2.28,0,0,1,221.29,90.71Zm1.1-4A1.88,1.88,0,1,0,223.71,89,1.88,1.88,0,0,0,222.39,86.7Z"/><path class="cls-34" d="M219.83,88a2.14,2.14,0,0,1,2.62-1.5"/><path class="cls-34" d="M223.75,89.08a1.92,1.92,0,0,1-2.32,1.32"/><circle class="cls-35" cx="219.79" cy="88.12" r="0.06"/><circle class="cls-35" cx="223.78" cy="88.94" r="0.05"/><path class="cls-3" d="M220,87.61a.31.31,0,0,1-.13-.06,13.47,13.47,0,0,0-10.44-2.88.36.36,0,0,1-.43-.28.36.36,0,0,1,.28-.43,13.92,13.92,0,0,1,11.05,3,.36.36,0,0,1,0,.51A.35.35,0,0,1,220,87.61Z"/><g class="cls-37"><path class="cls-38" d="M208.46,84.69a11.87,11.87,0,0,1,6.68.11,12.9,12.9,0,0,1,6.13,3.67l-2.44.74-9.67-2.78Z"/></g><ellipse class="cls-35" cx="213.28" cy="84.14" rx="0.12" ry="1.62" transform="translate(100.63 283.84) rotate(-82.1)"/><ellipse class="cls-35" cx="215.46" cy="84.57" rx="0.1" ry="0.45" transform="translate(76.93 270) rotate(-74.67)"/></svg>