<svg id="Layer_1" data-name="Layer 1" xmlns="http://www.w3.org/2000/svg" xmlns:xlink="http://www.w3.org/1999/xlink" viewBox="0 0 260 168"><defs><style>.cls-1{fill:#ddab5b;}.cls-2{fill:#cc9648;}.cls-3{fill:#7a3100;}.cls-4{fill:#ce9d55;}.cls-5{clip-path:url(#clip-path);}.cls-6{fill:#301c00;}.cls-7{clip-path:url(#clip-path-2);}.cls-8{clip-path:url(#clip-path-3);}.cls-9{clip-path:url(#clip-path-4);}.cls-10{fill:#e8ba67;}.cls-11{clip-path:url(#clip-path-5);}.cls-12{fill:#662a01;}.cls-13{clip-path:url(#clip-path-6);}.cls-14{clip-path:url(#clip-path-7);}</style><clipPath id="clip-path"><path class="cls-1" d="M198.25,99.1c-.38.38-3.05,7.32,4.19,20.86s5.38,15.39,5.38,15.39a3.55,3.55,0,0,0-2.56,1.17c-1.14,1.23.44,8.47,7.41,7.5S216,133.65,214,128.2s1.51-6.87.61-15.11S209.47,88,198.25,99.1Z"/></clipPath><clipPath id="clip-path-2"><path class="cls-1" d="M178.29,104.71c-.38.39-2.95,7.37,4.49,20.79s5.62,15.31,5.62,15.31a3.62,3.62,0,0,0-2.55,1.21c-1.11,1.24.57,8.47,7.53,7.39s3.16-10.42,1.11-15.84,1.4-6.89.38-15.12S189.34,93.44,178.29,104.71Z"/></clipPath><clipPath id="clip-path-3"><path class="cls-2" d="M227,114.53c-.49.34-4.45,7,1.86,21.19s4,15.87,4,15.87a4.52,4.52,0,0,0-3.05.91c-1.45,1.11-.66,8.49,7.32,8.21s5.16-10,3.68-15.64,2.65-6.69,2.76-15S241.14,104.58,227,114.53Z"/></clipPath><clipPath id="clip-path-4"><path class="cls-1" d="M177.05,91.6s-3.35,11.69,0,17.94,2.14,7.3,14,16.62,22,18.23,34,17.78,23.95-11.38,17.79-25.61-26.66-26.84-37.48-29.61S180.16,81.56,177.05,91.6Z"/></clipPath><clipPath id="clip-path-5"><path class="cls-3" d="M186.65,43.37c8.37,0,13,6.61,13,6.61,7.17,2.07,7.5,11.71,7.5,11.71A17,17,0,0,1,214.9,78c7.82,13.87-5.76,13.32-5.76,13.32-7.54,9-21.28,2.58-21.28,2.58a17.37,17.37,0,0,1-13.76-3.22c-6.48-5-2.37-11.71-2.37-11.71-7.07-5.11-2-11.62-2-11.62-2.49-1.62-2.78-5,1-12.05C170.72,55.26,172.79,43.37,186.65,43.37Z"/></clipPath><clipPath id="clip-path-6"><path class="cls-4" d="M208.77,124.05c-.48.34-4.44,7,1.86,21.19s4,15.86,4,15.86a4.57,4.57,0,0,0-3.05.92c-1.44,1.11-.66,8.49,7.33,8.21s5.16-10,3.68-15.64,2.65-6.69,2.76-15S222.93,114.1,208.77,124.05Z"/></clipPath><clipPath id="clip-path-7"><path class="cls-3" d="M237.15,128c-1.61-1.14-3.94.54-4.28,2.48s.54,3.85,1.17,5.71c1,3.09,1.36,6.36,2.35,9.46s2.81,6.15,5.78,7.48l.23-1.13a38.83,38.83,0,0,0,18.71,13.08,18.5,18.5,0,0,0-5.62-21.68l5,1.62a22.1,22.1,0,0,0-10.76-9.09,10.27,10.27,0,0,1,4.13.19,36.53,36.53,0,0,0-15-7.39Z"/></clipPath></defs><path class="cls-1" d="M198.25,99.1c-.38.38-3.05,7.32,4.19,20.86s5.38,15.39,5.38,15.39a3.55,3.55,0,0,0-2.56,1.17c-1.14,1.23.44,8.47,7.41,7.5S216,133.65,214,128.2s1.51-6.87.61-15.11S209.47,88,198.25,99.1Z"/><g class="cls-5"><path class="cls-6" d="M201.26,121.16a1.94,1.94,0,0,0,.83,1.28A11.23,11.23,0,0,0,210,125.1a9.61,9.61,0,0,0,7.05-4.11,79.05,79.05,0,0,1,5.39,14.24c.84,3.1,1.5,6.41.76,9.45a6.48,6.48,0,0,1-1,2.34,7.17,7.17,0,0,1-1.64,1.52,23.48,23.48,0,0,1-5.67,3.08,9.73,9.73,0,0,1-3.59.74,11.9,11.9,0,0,1-3.35-.69,13.6,13.6,0,0,1-4.51-2.16c-2.15-1.72-3.4-4.51-4.4-7.23a30.91,30.91,0,0,1-2-7.9,13.66,13.66,0,0,1,1.37-7.76,15.31,15.31,0,0,1,2.78-3.45l-.47.69"/></g><path class="cls-1" d="M178.29,104.71c-.38.39-2.95,7.37,4.49,20.79s5.62,15.31,5.62,15.31a3.62,3.62,0,0,0-2.55,1.21c-1.11,1.24.57,8.47,7.53,7.39s3.16-10.42,1.11-15.84,1.4-6.89.38-15.12S189.34,93.44,178.29,104.71Z"/><g class="cls-7"><path class="cls-4" d="M183,111.19a70.29,70.29,0,0,0,8.6,19,4,4,0,0,0-1.15-.42,18,18,0,0,0,5,7.83c1.6,1.47,3.91,2.69,5.89,1.79,2.33-1,2.66-4.18,2.43-6.72-.54-6-2.3-11.81-4-17.58a5.18,5.18,0,0,0-.84-1.85,5,5,0,0,0-1.51-1.11,16.79,16.79,0,0,0-5.14-2.06,9.83,9.83,0,0,0-8.35,2.46"/><path class="cls-6" d="M181.62,126.72a1.94,1.94,0,0,0,.86,1.27,11.18,11.18,0,0,0,8,2.54,9.62,9.62,0,0,0,7-4.22A79.54,79.54,0,0,1,203,140.48c.89,3.08,1.6,6.38.91,9.44a6.5,6.5,0,0,1-1,2.34,7.21,7.21,0,0,1-1.61,1.56A23.84,23.84,0,0,1,195.7,157a9.66,9.66,0,0,1-3.58.8,11.61,11.61,0,0,1-3.36-.64,13.38,13.38,0,0,1-4.54-2.09c-2.17-1.69-3.47-4.46-4.51-7.17a30.7,30.7,0,0,1-2.08-7.87,13.81,13.81,0,0,1,1.24-7.78,16.08,16.08,0,0,1,2.73-3.49l-.46.7"/></g><path class="cls-2" d="M227,114.53c-.49.34-4.45,7,1.86,21.19s4,15.87,4,15.87a4.52,4.52,0,0,0-3.05.91c-1.45,1.11-.66,8.49,7.32,8.21s5.16-10,3.68-15.64,2.65-6.69,2.76-15S241.14,104.58,227,114.53Z"/><g class="cls-8"><path class="cls-6" d="M227.35,136.81a1.81,1.81,0,0,0,.77,1.35,13.12,13.12,0,0,0,8.55,3.43,11.86,11.86,0,0,0,8.51-3.4,70.44,70.44,0,0,1,4.11,14.72c.53,3.17.81,6.54-.43,9.5a6.75,6.75,0,0,1-1.46,2.22,8.6,8.6,0,0,1-2.05,1.36,29.69,29.69,0,0,1-6.82,2.5,12.36,12.36,0,0,1-4.14.39,14.39,14.39,0,0,1-3.68-1,15.23,15.23,0,0,1-4.79-2.59c-2.18-1.93-3.22-4.83-4-7.65a27.22,27.22,0,0,1-1.14-8.06,13,13,0,0,1,2.6-7.6A17.89,17.89,0,0,1,227,138.8l-.62.64"/></g><path class="cls-1" d="M177.05,91.6s-3.35,11.69,0,17.94,2.14,7.3,14,16.62,22,18.23,34,17.78,23.95-11.38,17.79-25.61-26.66-26.84-37.48-29.61S180.16,81.56,177.05,91.6Z"/><g class="cls-9"><path class="cls-4" d="M179.4,80.81C176,96.43,177,110.12,188.65,121c-5.6-3.53,3.38,3.68,3.36,4.2a2.08,2.08,0,0,0,.67,1.36,72.41,72.41,0,0,0,37.66,22.83c3.6.85,7.41,1.42,11,.45s6.85-3.83,7.29-7.51a13,13,0,0,0-.67-5.05,60.38,60.38,0,0,0-25.08-33.81l3.39.49c-4.71-5.56-12-8.1-17.65-12.73a54.14,54.14,0,0,1-8.43-9.38,32.59,32.59,0,0,0-5.87-6.52,10.29,10.29,0,0,0-8.22-2.28c-2.87.61-5.35,3.33-5.05,6.25"/></g><path class="cls-10" d="M166.65,74.6c-1.65,1-2.09,3.08-3.11,4.68a6.77,6.77,0,0,1-2.78,2.47,10,10,0,0,0,3.4,2.69,3.15,3.15,0,0,1-1.29.51,7.44,7.44,0,0,0,6.59,3.84,15.58,15.58,0,0,0,.55-4c.11-3.55-.49-7.44-3.09-9.86"/><path class="cls-10" d="M173.07,57.13c-4.06,1.64-5.38,6.66-5.89,11s-1,9.28-4.48,11.93a1.76,1.76,0,0,1,1.09,2.53,1.19,1.19,0,0,1,1,1.92c.93,0,1.15,1.25,1.41,2.14a5.83,5.83,0,0,0,2.55,3c5.27,3.47,12.14,3,18.38,2.07q5.7-.84,11.35-2a7.36,7.36,0,0,0,3.23-1.27c1.36-1.13,1.72-3,1.93-4.8a25.38,25.38,0,0,0-.19-8.61c-1.37-5.82-6-10.42-11.35-13.16s-11.27-3.88-17.14-5l.15,2.21"/><path class="cls-10" d="M176,55.26s-6.38-5.72-17.94-4.92c0,0-7.61,22.79,20.66,18C178.67,68.3,184.06,61,176,55.26Z"/><path class="cls-1" d="M172.54,54.36c-.19-.81-1-1.26-1.79-1.57a26.18,26.18,0,0,0-9.84-1.93,17.08,17.08,0,0,0,2.38,7.51,11.72,11.72,0,0,0,3.1,4.05c2,1.51,4.73,1.7,7.27,1.84a1.42,1.42,0,0,0,.74-.1,1.34,1.34,0,0,0,.51-.85,17.32,17.32,0,0,0,.47-7.16,4.79,4.79,0,0,0-.89-2.44,2.09,2.09,0,0,0-2.34-.74l-.06.48"/><path class="cls-10" d="M194,52.67s6.39-5.73,17.95-4.93c0,0,7.61,22.8-20.66,18C191.29,65.7,185.9,58.42,194,52.67Z"/><path class="cls-1" d="M196.92,53.43a3,3,0,0,1,1.79-2.07,20.53,20.53,0,0,1,9.82-2.49,27.77,27.77,0,0,1-2.33,10,15.48,15.48,0,0,1-3.07,5.35c-2,2-4.72,2.22-7.25,2.38a1,1,0,0,1-.74-.14,1.87,1.87,0,0,1-.52-1.13,30.28,30.28,0,0,1-.53-9.5,7.86,7.86,0,0,1,.88-3.23c.55-.9,1.53-1.43,2.33-1l.06.63"/><path class="cls-3" d="M186.65,43.37c8.37,0,13,6.61,13,6.61,7.17,2.07,7.5,11.71,7.5,11.71A17,17,0,0,1,214.9,78c7.82,13.87-5.76,13.32-5.76,13.32-7.54,9-21.28,2.58-21.28,2.58a17.37,17.37,0,0,1-13.76-3.22c-6.48-5-2.37-11.71-2.37-11.71-7.07-5.11-2-11.62-2-11.62-2.49-1.62-2.78-5,1-12.05C170.72,55.26,172.79,43.37,186.65,43.37Z"/><g class="cls-11"><path class="cls-12" d="M170.93,39.67S166.51,55,173.66,64.26c0,0-3.8,5.76,2.91,11.85,0,0-4.75,7.52,1.33,11.76a12.93,12.93,0,0,0,11.63,2s13.9,7,19-3.48c0,0,10.76,4,8.8-8.31l7,5.85s-8.45,23.1-8.45,22.11-50.48-3.73-50.48-3.73l-5.73-59Z"/></g><ellipse class="cls-6" cx="166.6" cy="81.21" rx="1.06" ry="2.27" transform="translate(-18.33 68.86) rotate(-22.17)"/><path class="cls-4" d="M208.77,124.05c-.48.34-4.44,7,1.86,21.19s4,15.86,4,15.86a4.57,4.57,0,0,0-3.05.92c-1.44,1.11-.66,8.49,7.33,8.21s5.16-10,3.68-15.64,2.65-6.69,2.76-15S222.93,114.1,208.77,124.05Z"/><g class="cls-13"><path class="cls-6" d="M209.14,146.32a1.81,1.81,0,0,0,.77,1.36,13.17,13.17,0,0,0,8.54,3.43,11.91,11.91,0,0,0,8.51-3.4,70.29,70.29,0,0,1,4.12,14.72c.53,3.17.81,6.53-.44,9.49a6.61,6.61,0,0,1-1.45,2.23,8.66,8.66,0,0,1-2.06,1.36,29.35,29.35,0,0,1-6.82,2.5,12.84,12.84,0,0,1-4.14.39,14.5,14.5,0,0,1-3.68-1,15.2,15.2,0,0,1-4.78-2.6c-2.19-1.93-3.22-4.82-4-7.64a27.59,27.59,0,0,1-1.13-8.06,12.84,12.84,0,0,1,2.6-7.6,17.29,17.29,0,0,1,3.61-3.16l-.63.64"/></g><path class="cls-3" d="M237.15,128c-1.61-1.14-3.94.54-4.28,2.48s.54,3.85,1.17,5.71c1,3.09,1.36,6.36,2.35,9.46s2.81,6.15,5.78,7.48l.23-1.13a38.83,38.83,0,0,0,18.71,13.08,18.5,18.5,0,0,0-5.62-21.68l5,1.62a22.1,22.1,0,0,0-10.76-9.09,10.27,10.27,0,0,1,4.13.19,36.53,36.53,0,0,0-15-7.39Z"/><g class="cls-14"><path class="cls-12" d="M230.9,129.88c2.08.38,3.65,2.18,4.5,4.12a44.08,44.08,0,0,1,1.69,6.13,23.7,23.7,0,0,0,4.1,8.26l.63-1.4a22.14,22.14,0,0,0,7.66,8.16l-.09-1.3a50.53,50.53,0,0,1,9.69,8.24L259,161a8.17,8.17,0,0,1,1.34,1.81A15.54,15.54,0,0,0,259,157.2a39.88,39.88,0,0,1,2.65,3.68l-1.68-5a4.42,4.42,0,0,1,1.76,2.17,61.93,61.93,0,0,0-2.37-10A73.33,73.33,0,0,1,266.5,159a24.48,24.48,0,0,1,2.88,12.53,9.82,9.82,0,0,1-2.18,6c-1.92,2.12-5,2.78-7.82,2.87a27.52,27.52,0,0,1-7.56-.8,21.09,21.09,0,0,1-4.1-1.47c-5.71-2.85-9.21-8.83-11.19-14.9s-2.75-12.47-4.79-18.51a11.76,11.76,0,0,0-3.11-5.33c-1.2-1-2.78-1.65-3.67-3a3.85,3.85,0,0,1,3.93-6l-.89,1.07"/></g><ellipse class="cls-6" cx="210.92" cy="119.77" rx="2.32" ry="3.82" transform="translate(19.65 268.93) rotate(-67.54)"/><ellipse class="cls-6" cx="212.01" cy="127.14" rx="1.44" ry="2.38" transform="translate(13.51 274.48) rotate(-67.54)"/><ellipse class="cls-6" cx="218.47" cy="125.5" rx="1.44" ry="2.38" transform="translate(19.02 279.44) rotate(-67.54)"/><ellipse class="cls-6" cx="199.88" cy="117.81" rx="1.44" ry="2.38" transform="translate(14.63 257.51) rotate(-67.54)"/></svg>