<svg id="Layer_1" data-name="Layer 1" xmlns="http://www.w3.org/2000/svg" viewBox="0 0 697.59 363.34">
  <defs>
    <style>
      .cls-1 {
        fill: #e9f6fe;
      }
    </style>
  </defs>
  <title>Cloud</title>
  <path class="cls-1" d="M1842.54,164.65c18.81-.89,36.62,4,54,10.26,7.28,2.64,12.68,1.45,18.45-3.27,36.83-30.15,79.7-42.76,126.52-39.44,33.32,2.36,63.21,16,89.43,36.92,9.8,7.82,19.43,15.66,27,26.18,6.42,9,17.13,4.46,26,4.07,57.77-2.51,112.47,4.43,154,50.57,13.71,15.21,20.33,32.21,15.49,54.22-12.52,57-50,90.39-107.49,96-16.95,1.65-33.29.85-49.94-.46-4.94-.39-10.74-1-12.36,5.72-6,24.74-24.48,38.1-44.74,50.06-25,14.79-51.09,29.26-79.31,34.43-71.14,13-137.16,3.43-187.38-55.92-3.27-3.87-6.06-3-9.9-1.89-22.59,6.36-45.61,11.66-69,12.4-46.09,1.45-86.75-11.28-117.34-48.77-37.66-46.16-14-102.63,34.84-131.17a110.42,110.42,0,0,1,16.93-8.44c8.43-3.14,12.06-9.31,14.55-17.49C1756.22,192.92,1796,161.93,1842.54,164.65Z" transform="translate(-1657.43 -131.68)"/>
</svg>
