<svg id="Layer_1" data-name="Layer 1" xmlns="http://www.w3.org/2000/svg" xmlns:xlink="http://www.w3.org/1999/xlink" viewBox="0 0 260 168"><defs><style>.cls-1{fill:none;}.cls-2{fill:#517209;}.cls-3{fill:#5e870f;}.cls-4{clip-path:url(#clip-path);}.cls-5{fill:#a7ce1b;}.cls-6{opacity:0.4;}.cls-7{fill:#37b34a;}</style><clipPath id="clip-path"><rect class="cls-1" y="68.97" width="260" height="99.03"/></clipPath></defs><path class="cls-2" d="M37.57,91s18.87,5.84,12.67-6.49-13.51-1.39-13.51-1.39,7-7.31,1-12.74-12.21-1.91-10.52,7.17c0,0-4.44-15-13.9-5.78C8,77,19,81.32,19,81.32s-12.64-5.43-13.66,5,22.82,4.34,22.82,4.34Z"/><path class="cls-3" d="M16,99.52s27.89,6.32,17.58-10.79-19.67-.5-19.67-.5S23.26,76.9,14,69.72-3.86,68.33-.41,81.26c0,0-8.08-21.23-20.71-6.81-7.13,8.15,9.26,13.12,9.26,13.12S-30.71,81.15-31,96.34s33.43,3.73,33.43,3.73Z"/><g class="cls-4"><path class="cls-5" d="M431.51,199.6H-134.37V89.78L18,90.91c6-.52,15.38-1.29,26.83-2,94-6.2,157-.25,218.77,2.44,39.05,1.7,96.51,2.92,167.93-.39Z"/></g><g class="cls-6"><path class="cls-7" d="M13.73,126s-2.28-.61-1.7-.72c0,0,1.63-.11,2.09.56a2.64,2.64,0,0,1,1.43-.72s1.18.11-.71.75c0,0,3.39-.28,3.19,0a22,22,0,0,0-3.13.23A1.08,1.08,0,0,1,13.73,126Z"/><path class="cls-7" d="M18.26,125s-2.28-.61-1.69-.72c0,0,1.63-.11,2.08.56a2.65,2.65,0,0,1,1.44-.72s1.17.11-.72.75c0,0,3.39-.27,3.2,0a23.51,23.51,0,0,0-3.13.23A1.1,1.1,0,0,1,18.26,125Z"/><path class="cls-7" d="M14.23,123.73s-2.28-.61-1.69-.72c0,0,1.63-.12,2.08.56a2.65,2.65,0,0,1,1.44-.72s1.17.11-.72.74c0,0,3.39-.27,3.2,0a23.18,23.18,0,0,0-3.13.22C14.82,124,14.56,124,14.23,123.73Z"/><path class="cls-7" d="M24.06,124.17s-2.28-.61-1.7-.73c0,0,1.63-.11,2.09.57a2.7,2.7,0,0,1,1.43-.73s1.18.12-.71.75c0,0,3.39-.27,3.19,0a23.62,23.62,0,0,0-3.13.23C24.65,124.46,24.38,124.42,24.06,124.17Z"/><path class="cls-7" d="M27.84,123s-2.28-.61-1.7-.72c0,0,1.63-.12,2.09.56a2.64,2.64,0,0,1,1.43-.72s1.18.11-.71.74c0,0,3.39-.27,3.19,0a23.28,23.28,0,0,0-3.13.22C28.42,123.32,28.16,123.28,27.84,123Z"/><path class="cls-7" d="M20.49,123.14s-2.28-.61-1.69-.72c0,0,1.63-.12,2.08.56a2.65,2.65,0,0,1,1.44-.72s1.17.11-.72.74c0,0,3.39-.27,3.2,0a23.18,23.18,0,0,0-3.13.22C21.08,123.43,20.82,123.39,20.49,123.14Z"/><path class="cls-7" d="M28.13,124.35s-2.64-.71-2-.84c0,0,1.89-.13,2.42.65a3.09,3.09,0,0,1,1.66-.84s1.36.13-.83.87c0,0,3.93-.32,3.7,0a27.12,27.12,0,0,0-3.62.27A1.28,1.28,0,0,1,28.13,124.35Z"/></g><g class="cls-6"><path class="cls-7" d="M242.88,133.11s2.29-.61,1.7-.72c0,0-1.63-.12-2.09.56a2.6,2.6,0,0,0-1.43-.72s-1.18.11.72.75c0,0-3.4-.28-3.2,0a23.28,23.28,0,0,1,3.13.22C242.3,133.41,242.56,133.36,242.88,133.11Z"/><path class="cls-7" d="M238.35,132.06s2.28-.61,1.69-.72c0,0-1.63-.11-2.08.56a2.65,2.65,0,0,0-1.44-.72s-1.17.11.72.75c0,0-3.39-.27-3.19,0a22,22,0,0,1,3.13.23A1.09,1.09,0,0,0,238.35,132.06Z"/><path class="cls-7" d="M242.38,130.84s2.28-.61,1.7-.73c0,0-1.63-.11-2.09.57a2.65,2.65,0,0,0-1.44-.72s-1.17.11.72.74c0,0-3.39-.27-3.19,0a23.28,23.28,0,0,1,3.13.22A1.09,1.09,0,0,0,242.38,130.84Z"/><path class="cls-7" d="M232.55,131.28s2.29-.62,1.7-.73c0,0-1.63-.11-2.09.57a2.66,2.66,0,0,0-1.43-.73s-1.18.12.72.75c0,0-3.4-.27-3.2,0a23.62,23.62,0,0,1,3.13.23A1.1,1.1,0,0,0,232.55,131.28Z"/><path class="cls-7" d="M228.77,130.14s2.29-.61,1.7-.73c0,0-1.63-.11-2.09.57a2.6,2.6,0,0,0-1.43-.72s-1.18.11.72.74c0,0-3.39-.27-3.2,0a23.28,23.28,0,0,1,3.13.22C228.19,130.43,228.45,130.39,228.77,130.14Z"/><path class="cls-7" d="M236.12,130.25s2.28-.61,1.7-.73c0,0-1.64-.11-2.09.57a2.65,2.65,0,0,0-1.44-.72s-1.17.11.72.74c0,0-3.39-.27-3.19,0a23.28,23.28,0,0,1,3.13.22A1.09,1.09,0,0,0,236.12,130.25Z"/><path class="cls-7" d="M228.48,131.45s2.65-.7,2-.83c0,0-1.89-.14-2.42.65a3.09,3.09,0,0,0-1.66-.84s-1.36.13.83.87c0,0-3.93-.32-3.7,0a27,27,0,0,1,3.62.27A1.26,1.26,0,0,0,228.48,131.45Z"/></g><g class="cls-6"><path class="cls-7" d="M204.19,150.91s2.94-.79,2.18-.93c0,0-2.1-.15-2.68.73a3.43,3.43,0,0,0-1.85-.94s-1.51.15.92,1c0,0-4.36-.35-4.11,0a29.08,29.08,0,0,1,4,.3A1.41,1.41,0,0,0,204.19,150.91Z"/><path class="cls-7" d="M198.35,149.56s2.94-.79,2.19-.93c0,0-2.1-.15-2.69.73a3.39,3.39,0,0,0-1.85-.94s-1.51.15.93,1c0,0-4.37-.35-4.11,0a29,29,0,0,1,4,.3A1.41,1.41,0,0,0,198.35,149.56Z"/><path class="cls-7" d="M203.54,148s2.94-.78,2.18-.93c0,0-2.09-.14-2.68.73a3.4,3.4,0,0,0-1.85-.93s-1.51.14.93,1c0,0-4.37-.35-4.12,0a30.4,30.4,0,0,1,4,.29A1.41,1.41,0,0,0,203.54,148Z"/><path class="cls-7" d="M190.9,148.55s2.93-.79,2.18-.93c0,0-2.1-.15-2.69.72a3.4,3.4,0,0,0-1.84-.93s-1.51.15.92,1c0,0-4.36-.35-4.11,0a30.51,30.51,0,0,1,4,.29A1.39,1.39,0,0,0,190.9,148.55Z"/><path class="cls-7" d="M186,147.08s2.94-.78,2.18-.93c0,0-2.09-.14-2.68.73a3.4,3.4,0,0,0-1.85-.93s-1.51.14.93,1c0,0-4.37-.35-4.12,0a30.4,30.4,0,0,1,4,.29A1.41,1.41,0,0,0,186,147.08Z"/><path class="cls-7" d="M195.49,147.23s2.93-.79,2.18-.94c0,0-2.1-.14-2.69.73a3.4,3.4,0,0,0-1.84-.93s-1.51.15.92,1c0,0-4.36-.35-4.11,0a30.51,30.51,0,0,1,4,.29C194.73,147.6,195.07,147.55,195.49,147.23Z"/><path class="cls-7" d="M185.66,148.78s3.4-.91,2.53-1.08c0,0-2.43-.17-3.11.84a4,4,0,0,0-2.14-1.08s-1.75.17,1.07,1.12c0,0-5.06-.41-4.76,0a34.65,34.65,0,0,1,4.66.34A1.63,1.63,0,0,0,185.66,148.78Z"/></g></svg>