<svg id="Layer_1" data-name="Layer 1" xmlns="http://www.w3.org/2000/svg" xmlns:xlink="http://www.w3.org/1999/xlink" viewBox="0 0 260 168"><defs><style>.cls-1{fill:none;}.cls-2{clip-path:url(#clip-path);}.cls-3{fill:#5e870f;}.cls-4{fill:#77b219;}.cls-5{fill:#774013;}.cls-6{fill:#5b2e0c;}.cls-7{fill:#96cc2f;}</style><clipPath id="clip-path"><rect class="cls-1" width="260" height="168"/></clipPath></defs><g class="cls-2"><path class="cls-3" d="M38.4,98.42s21.29,5.68,13.84-7.8-15.12-1-15.12-1,7.51-8.45.58-14.25S24,73.83,26.28,83.88c0,0-5.6-16.57-15.75-5.83-5.72,6.06,6.76,10.37,6.76,10.37S3,82.92,2.28,94.61s25.63,3.84,25.63,3.84Z"/><path class="cls-3" d="M74.1,101.37S95.39,107,88,93.57s-15.13-1-15.13-1,7.52-8.45.58-14.24S59.7,76.78,62,86.83c0,0-5.61-16.58-15.75-5.84C40.51,87.06,53,91.36,53,91.36s-14.33-5.49-15,6.2,25.64,3.84,25.64,3.84Z"/><path class="cls-4" d="M-.87,96.4s20.4-2.81,39.75-.28c0,0,30.41-3.42,36.16,1.37,0,0,120.29,3.84,22,8.63s-53.95,9.16-53.95,9.16,13.08,2.82,4.19,5.92c0,0,6.27,6.48-17.79,6.19,0,0-1.56,7-30.33,6.77Z"/><rect class="cls-4" x="-0.87" y="98.08" width="464.61" height="42.02"/><path class="cls-5" d="M446.08,112.16c-4.87-2.37-13.92-4-24.3-4a87,87,0,0,0-14.43,1.14c-5.16-1.68-12.73-2.74-21.2-2.74-11.54,0-21.44,2-25.78,4.79-2.22-.16-4.53-.26-6.92-.26a88.6,88.6,0,0,0-13.9,1H91a92.4,92.4,0,0,0-27.78,0h-.43c-4.73-2.51-14.06-4.23-24.81-4.23s-20.08,1.72-24.81,4.23h-14v94.48H463.74V112.16Z"/><ellipse class="cls-6" cx="15.69" cy="126.54" rx="8.83" ry="2.49"/><ellipse class="cls-6" cx="41.81" cy="121.58" rx="8.83" ry="2.49"/><ellipse class="cls-7" cx="18.43" cy="97.27" rx="9.61" ry="1.01"/></g></svg>