<svg id="Layer_1" data-name="Layer 1" xmlns="http://www.w3.org/2000/svg" xmlns:xlink="http://www.w3.org/1999/xlink" viewBox="0 0 260 168"><defs><style>.cls-1{fill:none;}.cls-2{clip-path:url(#clip-path);}.cls-3{fill:#5e870f;}.cls-4{fill:#77b219;}.cls-5{fill:#774013;}.cls-6{fill:#96cc2f;}.cls-7{fill:#5b2e0c;}</style><clipPath id="clip-path"><rect class="cls-1" width="260" height="168"/></clipPath></defs><g class="cls-2"><path class="cls-3" d="M296.43,115.37s22.83,6.09,14.84-8.37-16.22-1-16.22-1,8.06-9.07.62-15.28S281,89,283.43,99.78c0,0-6-17.78-16.89-6.26-6.14,6.5,7.24,11.12,7.24,11.12s-15.36-5.89-16.09,6.64,27.49,4.12,27.49,4.12Z"/><path class="cls-4" d="M-119.15,110s21.87-3,42.63-.29c0,0,32.61-3.67,38.78,1.47,0,0,129,4.11,23.56,9.25S-72,130.29-72,130.29s14,3,4.49,6.34c0,0,6.73,7-19.07,6.65,0,0-1.68,7.55-32.53,7.25Z"/><path class="cls-4" d="M379.13,110s-21.88-3-42.63-.29c0,0-32.62-3.67-38.79,1.47,0,0-129,4.11-23.55,9.25S332,130.29,332,130.29s-14,3-4.49,6.34c0,0-6.73,7,19.07,6.65,0,0,1.69,7.55,32.54,7.25Z"/><rect class="cls-4" x="-119.15" y="111.84" width="498.28" height="45.07"/><path class="cls-5" d="M360.19,126.94c-5.22-2.54-14.93-4.26-26.07-4.26a93.55,93.55,0,0,0-15.47,1.22c-5.53-1.8-13.66-3-22.74-3-12.37,0-23,2.12-27.64,5.14-2.38-.17-4.86-.27-7.43-.27a94.8,94.8,0,0,0-14.9,1.12H-20.67a94.61,94.61,0,0,0-14.9-1.12,94.57,94.57,0,0,0-14.89,1.12h-.46c-5.07-2.69-15.08-4.53-26.61-4.53s-21.54,1.84-26.61,4.53h-15V228.27H379.13V126.94Z"/><ellipse class="cls-6" cx="258.96" cy="114.96" rx="24.45" ry="1.49"/><ellipse class="cls-7" cx="128.43" cy="170.2" rx="218.9" ry="49.01"/></g></svg>