<svg id="Layer_1" data-name="Layer 1" xmlns="http://www.w3.org/2000/svg" width="1024" height="600" viewBox="0 0 1024 600">
  <defs>
    <style>
      .cls-1 {
        fill: #db9a00;
      }

      .cls-2 {
        fill: #262626;
      }

      .cls-3 {
        fill: #00a6b2;
      }

      .cls-4 {
        fill: #da9b03;
      }

      .cls-5 {
        fill: #2a2825;
      }

      .cls-6 {
        fill: #d79d0b;
      }

      .cls-7 {
        fill: #bda93c;
      }

      .cls-8 {
        fill: #fefefe;
      }

      .cls-9 {
        fill: #ae9f2b;
      }

      .cls-10 {
        fill: #17595e;
      }

      .cls-11 {
        fill: #fdfdfd;
      }

      .cls-12 {
        fill: #729e00;
      }

      .cls-13 {
        fill: #5f8400;
      }

      .cls-14 {
        fill: #5f8300;
      }

      .cls-15 {
        fill: #628602;
      }

      .cls-16 {
        fill: #506f00;
      }

      .cls-17 {
        fill: #739f00;
      }
    </style>
  </defs>
  <title>16_the_sad_fish_swimming</title>
  <g>
    <g>
      <path class="cls-1" d="M271.21,202.42A5,5,0,0,0,274.7,199v0c.45-.3.38-.94.81-1.25,1.32-2.38,2.72-4.73,4.22-7,2-3,4.39-5.73,6.68-8.52,1.64-2,3.42-3.88,5.09-5.84a149.85,149.85,0,0,1,12.91-12.92,100.38,100.38,0,0,1,9.67-7.55,1.36,1.36,0,0,0,.52-2,37.35,37.35,0,0,0-5.59-8.54c0-.46.35-.65.68-.83,1.17-.64,2.27-1.4,3.47-2a131.88,131.88,0,0,1,15.77-6.58,184.4,184.4,0,0,1,18.61-5.28,151.82,151.82,0,0,1,17.85-2.93,81,81,0,0,1,15.23-.6,3.24,3.24,0,0,1,2.1.69,4.52,4.52,0,0,0,2.88.18c2.8-.56,5.61-1.09,8.44-1.46a123.07,123.07,0,0,1,14.63-1.39c2.84,0,5.68-.15,8.51-.05,2.45.08,4.89.41,7.34.61,3.34.27,6.65.81,10,1.35s6.74,1.62,10.14,2.3c.4,0,.76.28,1.18.24a8.52,8.52,0,0,0,1.23.53,110,110,0,0,1,11,3.73c4.58,1.71,9,3.91,13.45,5.9.32.44.94.39,1.27.81l.94.48c.42.47,1.09.5,1.56.89a136.83,136.83,0,0,1,14.15,8.89c1.63,1.14,3.13,2.47,4.75,3.62,2,1.41,4.4,1.74,6.61,2.59.53,0,.92.46,1.45.41l1.22.52c.55.59,1.38.65,2,1.08s1.43.91,2.13,1.37c4.29,2.76,5.57,9.21,3.67,13.77a19.83,19.83,0,0,1-4.06,2,53.5,53.5,0,0,1-13.29,2.44,29.55,29.55,0,0,0,9.26-1.06c2.65-.74,5.37-1.24,7.82-2.56a.68.68,0,0,1,.55,0,4.7,4.7,0,0,0,1.85,1.46c5,2.52,4.52,7,1.69,10.82-1.82,2.44-4.66,3.71-7,5.62s-4.69,3.31-7.06,4.94a4,4,0,0,0-1,1.07c-2,2.67-3.95,5.35-6,8a94.83,94.83,0,0,1-6.08,7.53c-.23.38-.71.58-.79,1.07l-1.15,1.22c-.25.36-.71.57-.8,1.05a174.52,174.52,0,0,1-19.24,18.87,3.48,3.48,0,0,0-.62.65c-1.37,1.1-2.78,2.16-4.12,3.31a115,115,0,0,1-9.25,6.85,152.05,152.05,0,0,1-16.21,9.83,123.84,123.84,0,0,1-14.07,6.64c-3,1.14-6.16,2.07-9.24,3.1-.48-.06-.9.22-1.36.23l-5.31,1.44a5,5,0,0,0-1,.14c-2.64.6-5.3,1.11-8,1.46a119.21,119.21,0,0,1-15,1.15c-3.75,0-7.5-.06-11.22-.39s-7.19-1-10.76-1.7c-3.89-.73-7.65-2-11.45-3.08-2.64-.75-5.06-2.05-7.61-3a7.63,7.63,0,0,1-2.08-.88,62.06,62.06,0,0,1-5.82-2.79c-3.59-2.18-7.59-3.34-11.45-4.84q-3.66-1.43-7.44-2.5c-3-.86-6-2-9-2.86-2.76-.76-5.58-1.33-8.35-2-4.53-1.16-31.63-13.12-34.6-16.74a2.43,2.43,0,0,0-3.49-.55c-.76-.34-.62-1-.51-1.6.28-1.5.05-3,.35-4.78-3.54,2.41-7.1,4.33-10.43,6.58-2.44,1.65-4.84,3.36-7.3,5-6.25,4.08-12.65,7.93-19.14,11.63C216,250,210.36,253,204.7,256c-4.14,2.16-11,5.52-15.24,7.5-5.19,2.43-10.34,4.94-15.57,7.29-6.64,3-13.36,5.76-20,8.73-.83.37-1.65,1-2.68.66.15-1.07.22-2.17.48-3.21a83.74,83.74,0,0,1,5.68-16.22c1.79-3.74,3.85-7.34,5.48-11.15a13.36,13.36,0,0,0,.77-1.15l1.72-3.49a2,2,0,0,0,.57-1.07A16.64,16.64,0,0,0,168,240c.28-.39.53-.8.84-1.17,1-1.33,1.56-2.87,2.4-4.28,2.33-3.92,4.57-7.88,7.09-11.68a1.77,1.77,0,0,1,1.11.14,19.2,19.2,0,0,0,4.92.91c4.1.33,8.22.39,12.33.31,6.42-.12,12.84-.35,19.26-.74,4.69-.29,9.39-.6,14.08-.91,4-.26,8-.7,12-1,4.18-.32,8.36-.64,12.53-1,4.34-.43,4.19-.11,5.1-3.39a1.47,1.47,0,0,0-.55-1.74c-1.57-1.31-3.27-2.45-4.94-3.62-3.26-2.29-6.63-4.43-9.92-6.68-3.88-2.65-8-4.89-11.87-7.59-3-2.08-6.24-3.69-9.27-5.67q-5.84-3.82-12-7.12c-3.68-2-7.26-4.13-10.94-6.1-4.1-2.19-8.28-4.22-12.42-6.34-2.55-1.31-5.3-2.08-7.89-3.27l-.85-9.26c-.14-.38,0-.77-.06-1.15a79.07,79.07,0,0,1,.68-14,72.34,72.34,0,0,1,1.89-9.43,11.49,11.49,0,0,1,5.2,2.12,140.62,140.62,0,0,1,11.62,8.17q5.79,4.53,11.22,9.45c6.8,6.16,13.29,12.64,19.62,19.28,7.25,7.6,14.22,15.45,21.06,23.43,3.49,4.08,7,8.17,10.3,12.4.82,1,.91,1,1.53-.1,1.19-2.14,2.64-3.86,3.89-6Z"/>
      <path class="cls-2" d="M178.35,222.86c2.54,1.39,5.39,1.27,8.13,1.55s5.23.12,7.85.12c3.5,0,7,0,10.49-.2,2.94-.17,5.88-.17,8.82-.36,4.52-.3,9-.52,13.56-.83s9.17-.69,13.75-1.07c5.86-.49,11.72-1,17.57-1.51.61-.05.91-.27,1-.93a6.35,6.35,0,0,1,.54-2.34c.57-1.05.21-1.57-.64-2.19-3.66-2.67-7.36-5.27-11.15-7.76-4.41-2.91-8.88-5.73-13.33-8.58s-9.07-5.64-13.63-8.41q-8-4.85-16.15-9.41c-5.12-2.86-10.28-5.63-15.56-8.19-2.55-1.23-5.13-2.34-7.76-3.35-.6-.23-1.19-.64-1.91-.39.55,4.78,1.82,9.42,2.65,14.15-.16.82.54,1.49.39,2.3,1.18,3.82,1.61,7.83,2.84,11.64a4.36,4.36,0,0,0,.56,1.91,35.52,35.52,0,0,0,1.36,4.25,4.51,4.51,0,0,1-.48,4.72c-1,1.52-1.81,3.13-2.71,4.71-.29.37-.52.79-.85,1.14-.6,2-2.23,3.37-3.19,5.15-.38.31-.49.84-.88,1.14C179.35,221.09,177.82,221.5,178.35,222.86Z"/>
      <path class="cls-3" d="M258.6,230.08a2.28,2.28,0,0,1-.23-1.34c.19-1.63.32-3.27.45-4.91,0-.2.2-.46-.08-.64s-.41.1-.59.22c-2.89,2-5.95,3.81-9,5.67s-5.92,4-8.89,5.94c-5.24,3.47-10.64,6.69-16.08,9.86-6,3.47-12,6.7-18.11,9.9s-12.18,6.21-18.36,9.15-12.57,5.9-18.94,8.67c-5.86,2.55-11.74,5-17.62,7.57-2.38,7.06-3,14.16-.55,21.34.45.31.26.94.65,1.28.61.86,1.07,2,2.48,1.13.87-.05,1.64-.62,2.53-.55a97.08,97.08,0,0,0,12.56-4.76c6.55-3,13-6.25,19.27-9.72,5.19-2.85,10.32-5.83,15.46-8.77,4.29-2.45,8.46-5.09,12.85-7.38A70,70,0,0,0,227,265.66a129.45,129.45,0,0,0,13.45-12.07c1.54-1.6,3.06-3.23,4.46-5,1.12-1.38,2.38-2.67,3.46-4.1.27-.18.37-.53.68-.67,1.47-1.94,2.9-3.91,4.4-5.82,1.65-2.11,3-4.42,4.59-6.56A6.15,6.15,0,0,0,258.6,230.08Z"/>
      <path class="cls-3" d="M181.6,135.19c5.25,2.15,9.78,5.45,14.29,8.82q4.75,3.55,9.22,7.41c3.19,2.75,6.33,5.55,9.31,8.53,2.28,2.29,4.7,4.44,7,6.72q4.64,4.65,9.16,9.41,3.74,3.94,7.35,8,5.26,5.9,10.44,11.88c3.13,3.62,6.22,7.29,9.3,11,1.29,1.53,2.53,3.1,3.87,4.75a38.72,38.72,0,0,1,4.33-6.29c.38-.45.25-1,.43-1.44-.92-.84-1-2.11-1.48-3.15a243,243,0,0,0-12.46-24.14,218.24,218.24,0,0,0-14.23-21.44c-.31-.4-.27-1-.85-1.25a10.5,10.5,0,0,1-.75-1.1A98.66,98.66,0,0,0,227.67,142c-3.09-3.45-6.41-6.68-9.78-9.87-.79-.75-1.72-1.33-2.44-2.15a134.46,134.46,0,0,0-11.1-8.41c-3.18-2.11-6.54-3.83-9.88-5.63a2.22,2.22,0,0,0-2.05-.14,8.59,8.59,0,0,0-1.4,1,25.15,25.15,0,0,0-4.31,5.54c-.3.37-.55.78-.84,1.16-1.16,2.78-2.5,5.49-3.48,8.35A20.05,20.05,0,0,0,181.6,135.19Z"/>
      <path class="cls-3" d="M289.05,131.52l3.85,1.66a79.33,79.33,0,0,1,11.92-3.77c5.13-1.33,10.29-2.6,15.51-3.52s10.66-1.81,16-2.4a145.11,145.11,0,0,1,21-.91,84.85,84.85,0,0,1,15.66,1.93,62.86,62.86,0,0,1,7.82,2.64c.49.18,1,.46,1.48.12a20.54,20.54,0,0,0-5.57-4.56c-5.25-3.33-11.18-4.84-17.19-6.07-.77-.16-1.62.1-2.31-.43-.41.17-.75-.23-1.14-.15-1.95.11-3.84-.41-5.78-.49-3.29-.14-6.58-.32-9.87-.38-4-.07-8-.07-12,.15-3.75.21-7.51.4-11.25.71-3.58.3-7.15.69-10.71,1.14-2.6.33-5.19.75-7.77,1.24-3.18.6-6.33,1.3-9.5,2a4.51,4.51,0,0,1-1,.14l-2.14.65c-.48,0-.92.25-1.4.29a73.26,73.26,0,0,0-8.22,3,11.87,11.87,0,0,0-1.32.71,1.16,1.16,0,0,0-.65,1.12c.08.55.63.45,1.08.54a51.27,51.27,0,0,1,11.26,3.66A5,5,0,0,1,289.05,131.52Z"/>
      <path class="cls-2" d="M382.38,127.28c-1.23.07-2.15-.74-3.19-1.16a61.07,61.07,0,0,0-18.86-3.78,130,130,0,0,0-17.38.2c-5.93.4-11.81,1.18-17.67,2.13-4.18.68-8.34,1.53-12.48,2.48-6,1.38-12,3-17.84,4.85a3.49,3.49,0,0,0-2.06,1.18c5.82,3.17,11.24,6.85,15.61,11.91.11.13.33.16.5.23a92.75,92.75,0,0,1,19-8.74c3-1,6.08-2.08,9.17-3,4.81-1.36,9.67-2.48,14.57-3.44,2.86-.56,5.73-1,8.61-1.46a119.69,119.69,0,0,1,14.39-1.32,34.77,34.77,0,0,1,8,.41C382.83,127.49,382.39,127.53,382.38,127.28Z"/>
      <path class="cls-4" d="M192.56,116a3.19,3.19,0,0,1,2.12.42,80.88,80.88,0,0,1,11.25,6.53,62.69,62.69,0,0,1,7.58,5.84,18.31,18.31,0,0,0,1.84,1.33c.12.15.27.28.47.18s.14-.2,0-.32c-2.63-2.53-5.57-4.68-8.37-7-.32-.37-.8-.55-1.13-.9l-1.52-1c-.31-.35-.79-.49-1.07-.88-2.17-1.33-4.3-2.71-6.51-4a22,22,0,0,0-3.15-1.29,1.46,1.46,0,0,0-2.19,1C192.11,116.12,192.34,115.93,192.56,116Z"/>
      <path class="cls-5" d="M511.25,174.18c-.47-.16-.81.14-1.18.34-3.85,2-8,2.81-12.3,3.36-1.62.21-3.24.36-4.91.47,1.55,1.84,13.78-.38,18.68-3.34Z"/>
      <path class="cls-6" d="M215.83,130c-.08.33-.32.12-.49.14,1.42,1.34,2.85,2.67,4.26,4a131.74,131.74,0,0,1,10.41,11c2.18,2.62,4.33,5.25,6.49,7.88l.15-.07a33.68,33.68,0,0,0-4.65-6.42,132.94,132.94,0,0,0-10.1-11A56.89,56.89,0,0,0,215.83,130Z"/>
      <path class="cls-7" d="M192.56,116l-.66,0c-.58,0-.75.36-.88.8C191.67,116.78,192,116.13,192.56,116Z"/>
      <path class="cls-8" d="M156.32,303.38c-.94-.25-1.69.38-2.53.55C154.7,304.1,155.47,303.55,156.32,303.38Z"/>
      <path class="cls-8" d="M340.79,263.28l-2.08-.88A2.59,2.59,0,0,0,340.79,263.28Z"/>
      <path class="cls-8" d="M186.38,199l-.56-1.91A1.91,1.91,0,0,0,186.38,199Z"/>
      <path class="cls-8" d="M179.63,220.09c.58-.16.68-.69.88-1.14A1.3,1.3,0,0,0,179.63,220.09Z"/>
      <path class="cls-8" d="M165.32,245c.38-.26.78-.5.57-1.07A1.73,1.73,0,0,0,165.32,245Z"/>
      <path class="cls-8" d="M162.83,249.59c.51-.21.64-.68.77-1.15A1.33,1.33,0,0,0,162.83,249.59Z"/>
      <path class="cls-8" d="M183.71,213.8a2.14,2.14,0,0,0,.85-1.14A1.37,1.37,0,0,0,183.71,213.8Z"/>
      <path class="cls-8" d="M168,240c.54-.21.65-.71.84-1.17A1.29,1.29,0,0,0,168,240Z"/>
      <path class="cls-8" d="M151.3,302.8c-.25-.41-.06-1-.65-1.28C150.85,302,150.77,302.53,151.3,302.8Z"/>
      <path class="cls-8" d="M249,243.84a.75.75,0,0,0-.68.67C249,244.71,248.79,244.06,249,243.84Z"/>
      <path class="cls-9" d="M236.66,152.9l-.15.07a1.08,1.08,0,0,0,.77,1A1.31,1.31,0,0,0,236.66,152.9Z"/>
      <path class="cls-3" d="M351.65,260.88c.4,1.13,1.52,1.62,2.23,2.48.3.36.69.16,1.05,0,2.24-.73,4.52-1.38,6.73-2.19,7.7-2.82,15.22-6,21.87-10.92a38.2,38.2,0,0,0,10.79-11.57,35,35,0,0,0,4.62-17.17,16.19,16.19,0,0,0-1.2-5.86,5.25,5.25,0,0,0-4-3.22c-1.87-.5-3.75-1-5.68-1.33a8.68,8.68,0,0,0-3.58.44,49.46,49.46,0,0,0-17.24,8.34,96.31,96.31,0,0,0-9.57,7.82c-3.59,3.41-7.31,6.72-10,11-1.67,2.61-1.48,5.44-1.32,8.28a18.38,18.38,0,0,0,.9,5.38,7.81,7.81,0,0,0,4.09,0,32.3,32.3,0,0,0,13.49-6.12,85.91,85.91,0,0,0,9.49-8.62c2-2.09,3.77-4.39,5.63-6.61a2.64,2.64,0,0,0,.42-.79,42.8,42.8,0,0,1-4.79,8.17,41.23,41.23,0,0,1-18.18,13.76,29.4,29.4,0,0,1-7.4,1.94,2.4,2.4,0,0,0-1.7.62c.23,1.71,1.37,3,2.17,4.39a28.26,28.26,0,0,0,6.07-1.88,76.11,76.11,0,0,0,12.18-6.12A65.75,65.75,0,0,0,386.55,235a43.47,43.47,0,0,0,5.37-8.17c.18-.39.26-.81.45-1.19s.23-.48.25-.6a3.14,3.14,0,0,0-.19.49,50,50,0,0,1-6.27,11.92c-5.44,7.44-12.53,12.88-20.57,17.21a67.92,67.92,0,0,1-12.93,5.54A1.37,1.37,0,0,0,351.65,260.88Z"/>
      <path class="cls-2" d="M453,153.63a18.92,18.92,0,0,0-25,10.1c-4.06,10.07.35,20.78,10.31,24.84,9.8,4,20.57-.18,24.83-10.54A18.88,18.88,0,0,0,453,153.63Z"/>
      <path class="cls-2" d="M432.25,234c-2.45-1.78-4.72-3.4-7-5.06a106.64,106.64,0,0,1-13-11A82.55,82.55,0,0,1,402,204.55a74.1,74.1,0,0,1-5.33-9.81,48.73,48.73,0,0,1-4.5-23.17,40.09,40.09,0,0,1,5.3-17.41,41.42,41.42,0,0,1,10.87-12.62c1.54-1.17,1.65-2.54.34-4a1.08,1.08,0,0,0-1.72-.1,48.09,48.09,0,0,0-12.43,15.71,46.74,46.74,0,0,0-4.5,20,49.88,49.88,0,0,0,3.13,18.42,79.53,79.53,0,0,0,6.85,13.2,83.65,83.65,0,0,0,6.56,9.37,74.4,74.4,0,0,0,12.21,12,48.81,48.81,0,0,0,9.87,6.3C429.76,233,430.76,233.84,432.25,234Z"/>
      <path class="cls-2" d="M392.29,225.49a55.54,55.54,0,0,1-7.48,11.12,68.32,68.32,0,0,1-22.87,17.84,77.43,77.43,0,0,1-10.07,4c-.49.16-.95.41-1.42.62a2.57,2.57,0,0,0,1.2,1.8,67.84,67.84,0,0,0,15.08-6.35,63.69,63.69,0,0,0,11.94-8.38,52.18,52.18,0,0,0,6.28-6.47,43.78,43.78,0,0,0,5-7.55,36.32,36.32,0,0,0,2.69-6.59Q392.48,225.3,392.29,225.49Z"/>
      <path class="cls-2" d="M348.27,254.7c15.74-1.86,28.41-13.43,32.52-25.36-1.17,1.44-2.4,2.84-3.55,4.28a69.48,69.48,0,0,1-6.36,6.92,49.79,49.79,0,0,1-10.41,8.08c-4,2.15-8.09,3.74-12.7,3.59a2.12,2.12,0,0,0-.55.13C347.5,253.16,347.4,254.15,348.27,254.7Z"/>
      <path class="cls-10" d="M392.29,225.49l.32.06c0-.48.69-.78.39-1.42A3.2,3.2,0,0,0,392.29,225.49Z"/>
      <path class="cls-8" d="M439.56,185a15.32,15.32,0,1,0-7.89-20.13A15.28,15.28,0,0,0,439.56,185Z"/>
      <path class="cls-2" d="M452,159.71a12.89,12.89,0,1,0-11.59,23,12.89,12.89,0,0,0,11.59-23Z"/>
      <path class="cls-11" d="M447.89,170.42c1.63.86,4,.23,4.69-1.39.87-2.07.4-3.65-1.7-4.84-1.3-.74-3.77.13-4.46,1.46A3.58,3.58,0,0,0,447.89,170.42Z"/>
    </g>
    <path d="M513.65,176.38s-.53.17-1.4.41-2.13.57-3.64.91a68.39,68.39,0,0,1-11.2,1.6c-1,0-2.06.07-3.07,0s-2-.07-3-.17a24.71,24.71,0,0,1-5.16-1,15.44,15.44,0,0,1-2-.76,13.67,13.67,0,0,1-1.42-.75c-.39-.22-.66-.44-.86-.57l-.3-.21.32.17c.21.1.51.29.91.46a13.39,13.39,0,0,0,1.47.56,15,15,0,0,0,2,.5,23.78,23.78,0,0,0,5.05.37c.93,0,1.88-.09,2.85-.19s1.95-.25,2.92-.41a65.73,65.73,0,0,0,10.49-2.85c1.39-.5,2.54-1,3.33-1.28s1.21-.53,1.21-.53Z"/>
  </g>
  <g>
    <g>
      <g>
        <path class="cls-12" d="M637.46,472.07c2.15-.2,4.3-.43,6.45-.6,1.66-.13,3.3-.43,4.93-.72,1.28-.23,2.56-.45,3.84-.71a73.24,73.24,0,0,0,13.95-4.25,71.89,71.89,0,0,0,10.11-4.88,82.87,82.87,0,0,0,7.07-4.65,74,74,0,0,0,6-4.8,47.11,47.11,0,0,1,4.32-3.47c1.77-1.33,3.64-2.53,5.49-3.75,3.43-2.26,6.9-4.45,10.47-6.48a87.4,87.4,0,0,1,10.12-5.24c1.77-.72,21.54-7.79,22.84-9.29a4.59,4.59,0,0,1,1.27-1.18c.7-.38,1,.31,1.43.56a100.74,100.74,0,0,0,15.38,7.51A77.3,77.3,0,0,0,776,434.46c1.92.31,3.84.6,5.79.75a55.64,55.64,0,0,0,5.8.17c1.66,0,3.3-.3,4.94-.42,3-.24,5.79-1.36,8.63-2.2,3.93-1.16,7.79-2.57,11.72-3.74,2.78-.83,5.57-1.63,8.34-2.45s5.78-1.42,8.61-2.3a3.72,3.72,0,0,1,3.41.74,76.67,76.67,0,0,0,13,7.48,7.16,7.16,0,0,1,1.89,1c.61.42,1.45.39,1.95,1,.38.16.66.64,1.18.35.14.48.62.39.94.57s.46.19.71.22l7.68,2.76c1.66.59,3.42.88,5.05,1.58a1.09,1.09,0,0,0,1,.2c2.47.55,4.94,1.15,7.43,1.63a26.74,26.74,0,0,0,7.62.63,23,23,0,0,0-1.72-2.78c-1.18-2-2.81-3.68-4-5.68a11.87,11.87,0,0,0-1.9-1.92,40.27,40.27,0,0,0-4.12-4.18c-1.74-1.32-3.5-2.63-5.36-3.81a69.3,69.3,0,0,0-8.24-4.28,58.64,58.64,0,0,0-7.62-3c-2.72-.81-5.47-1.56-8.24-2.18s-5.78-1.73-8.78-1.53a52.08,52.08,0,0,1-9.58-.33,50.81,50.81,0,0,1-21-6.88,48.29,48.29,0,0,1-7.08-4.85c-1.27-1.07-2.5-2.18-3.75-3.28-.56-.49-.8-.82.13-1.35,1.39-.8,2.17-2.26,3.12-3.52a.79.79,0,0,0,.49-.74,35.28,35.28,0,0,0,3.12-9.07,47.08,47.08,0,0,0,.73-10.19,52.15,52.15,0,0,0-.56-6.83c-.42-3.17-.88-6.33-1.52-9.48a77.8,77.8,0,0,0-3.89-13.26,62,62,0,0,0-4.38-8.76c-2-3.44-4.8-6.28-7.22-9.4a14,14,0,0,1-2.29-5.51,27.86,27.86,0,0,1-.72-6.79,44.65,44.65,0,0,1,.64-7.08,46.15,46.15,0,0,1,1.1-5.71A3.54,3.54,0,0,0,779,299c-1.75,1.35-2.62,3.22-3.57,5a41.91,41.91,0,0,0-2.18,4.88,43.6,43.6,0,0,0-2.24,8.64,36.09,36.09,0,0,0-.43,6.81,26.81,26.81,0,0,0,.73,5.89,2.05,2.05,0,0,1-.72,2.4,47,47,0,0,0-4.71,5c-2.07,2.37-3.73,5-5.55,7.57s-3.28,5.55-4.93,8.32a120,120,0,0,0-5.27,10.94c-1.4,3-2.68,6.11-4,9.17-2,4.67-3.7,9.48-5.44,14.27-1.46,4-2.52,8.17-3.69,12.29a19.67,19.67,0,0,0-.46,2,.74.74,0,0,1-1.12.63c-3.21-1.26-4,2.06-5.91-.78-1-1.48-2.17-2.84-3.17-4.3s-2.32-2.64-3.31-4.1a12.61,12.61,0,0,0-2.27-2.27c-1.29-1.12-2.46-2.37-3.74-3.5s-2.49-2.08-3.74-3.09a69.74,69.74,0,0,0-6.14-4.48c-2.62-1.67-5.2-3.41-7.94-4.92s-5.48-3-8.3-4.37a44.67,44.67,0,0,0-6.28-2.64c-.83-.25-.87-.85-.79-1.54a22.1,22.1,0,0,1,2.45-7.16,39.49,39.49,0,0,1,4.33-6.65,51.38,51.38,0,0,1,5.6-5.84,42.09,42.09,0,0,1,5.69-4.48,47.67,47.67,0,0,1,6.75-4c.35-.15.79-.35.74-.67s-.51-.5-.92-.61c-4.19-1.1-8.46-1-12.74-.94-2.75,0-5.52,0-8.26.31-2.08.2-4.16.44-6.23.73-1.9.26-3.78.63-5.69.8a54.85,54.85,0,0,0-6.57,1.06c-4.52,1-9,1.91-13.49,3.16a93.86,93.86,0,0,0-12.95,4.41,40.44,40.44,0,0,0-10.76,6.71,22.07,22.07,0,0,0-4.57,5.52,2.51,2.51,0,0,1-2.16,1.46c-2.88.15-5.77.33-8.64.65s-5.78.69-8.62,1.27A95.29,95.29,0,0,0,578,374.06a110.58,110.58,0,0,0-12.49,8.67c-1.78,1.45-3.62,2.84-5.28,4.41s-3.24,3-4.79,4.53c-2.08,2.09-4,4.29-6,6.48-1,1.08-1.79,2.29-2.7,3.42a11.42,11.42,0,0,1-3,2.31,28.82,28.82,0,0,0-5.23,3.83c-2.54,2.55-3.6,5.59-2.45,9.21.38,1.19,1.08,2.22,1.37,3.43a5.25,5.25,0,0,1,2,.14,32.28,32.28,0,0,0,12.4-.55,20.69,20.69,0,0,1-7.58,1,29.83,29.83,0,0,1-6.19-.4.54.54,0,0,0-.59.21c-.79.83-1.64,1.61-2.37,2.49-1.09,1.32-.86,3.75.11,5.3,1.48,2.38,3.89,3.24,6.27,4.2,2.83,1.15,5.68,2.26,8.51,3.42a12.81,12.81,0,0,1,2.88,2.16c2.42,1.92,4.8,3.87,7.24,5.76,2.63,2,5.37,3.92,8.1,5.81a94.94,94.94,0,0,0,8.63,5.35c3,1.63,6,3.31,9.06,4.73l4.89,2.26c.45.61,1.2.6,1.81.88a1.51,1.51,0,0,1,.92.21,101.09,101.09,0,0,0,12.79,4.36c4.82,1.29,9.6,2.75,14.58,3.37a106.34,106.34,0,0,0,12.64.89C634.78,472,636.12,472,637.46,472.07Z"/>
        <path class="cls-13" d="M537.4,420.81a31,31,0,0,0,7,.5,18.81,18.81,0,0,0,7.89-1.3.58.58,0,0,0,.41-.44c-2.33.31-4.61.78-6.93.92a22,22,0,0,1-7.53-.57c-.52-.15-.65.11-.84.43C537.08,420.52,537.46,420.65,537.4,420.81Z"/>
        <path class="cls-14" d="M584.84,390.24c-8.63,1.11-13.7,9.45-12.61,16.75a15,15,0,1,0,12.61-16.75Z"/>
        <path class="cls-14" d="M606.32,428a22.19,22.19,0,0,0,4.52-3.32c.92-.88,1.87-1.73,2.75-2.65,1.06-1.12,2.09-2.28,3.07-3.47a49.66,49.66,0,0,0,5.06-7.57,37.43,37.43,0,0,0,3.37-8.86,31.78,31.78,0,0,0,1-6.85,17.45,17.45,0,0,0-1.28-6.39,30.58,30.58,0,0,0-7.56-11.61,27.14,27.14,0,0,0-7.31-5.25c-.79-.37-1.16-.07-1.3.69,0,.07,0,.15,0,.22-.4,1.27.1,1.88,1.3,2.47a23.07,23.07,0,0,1,9.51,8.47,20.17,20.17,0,0,1,2.95,12.94,35.08,35.08,0,0,1-3.18,11.29,82.53,82.53,0,0,1-5.13,9.77,76.73,76.73,0,0,1-5.48,7.35C607.88,426.21,607.09,427.11,606.32,428Z"/>
        <path class="cls-8" d="M575,407.28c1.52,6.86,7.64,10.88,14.2,9.53a12.08,12.08,0,1,0-4.9-23.65A12,12,0,0,0,575,407.28Z"/>
        <path class="cls-2" d="M588.66,415a10.19,10.19,0,0,0,8.28-11.23A10.08,10.08,0,0,0,584.88,395a10,10,0,0,0-8.13,11.4A10.06,10.06,0,0,0,588.66,415Z"/>
        <path class="cls-11" d="M585.89,402.42a2.65,2.65,0,0,0-3.25-2.11,2.8,2.8,0,0,0-2.06,3.2,2.7,2.7,0,0,0,3.05,2.12A2.57,2.57,0,0,0,585.89,402.42Z"/>
      </g>
      <path class="cls-13" d="M537.48,421.93c10.24-1.34,20.22-2.36,28.29,5.43.81.78,2-.45,1.24-1.24-8.41-8.12-18.7-7.36-29.52-5.94-1.1.14-1.11,1.89,0,1.75Z"/>
      <path class="cls-13" d="M566.75,424.78a13.53,13.53,0,0,1-1.67,3.69c-.61.95.9,1.83,1.51.88a15.19,15.19,0,0,0,1.85-4.1.87.87,0,0,0-1.69-.46Z"/>
    </g>
    <g>
      <path class="cls-15" d="M679.14,443.67a19.87,19.87,0,0,0-2.29-8.18c-1.08-1.93-3-2.95-4.85-3.91a81.55,81.55,0,0,0-19.26-7.2,38.47,38.47,0,0,0-12.3-.85,11.58,11.58,0,0,0-6,2.88c-2.52,2-3.13,3.82-2.34,6.93a25.57,25.57,0,0,0,7.22,11.83c3.35,3.34,7.56,5.25,12,6.61a58.24,58.24,0,0,0,12.19,2c3,.25,6.08.15,9.13.1,1.14,0,2.27,0,3.41-.06a1.53,1.53,0,0,0,1.57-1.08c.2-.56.41-1.11.62-1.66-.34-.42-.82-.29-1.25-.27a58.85,58.85,0,0,1-16.34-1.58,42.6,42.6,0,0,1-16.28-7.43,32.49,32.49,0,0,1-5.16-4.87,42.25,42.25,0,0,0,10.26,6.89,55.29,55.29,0,0,0,20.14,5.63,56.2,56.2,0,0,0,8.11.12,1.54,1.54,0,0,0,1-.21c.11-.91.18-1.83.36-2.72a2.24,2.24,0,0,0-.06-1.08,10,10,0,0,0-3.5.33,27.11,27.11,0,0,1-7.75-.06,31.4,31.4,0,0,1-10.18-3.07,32.5,32.5,0,0,1-6.12-4,26.29,26.29,0,0,1-2.87-2.52,28,28,0,0,0,4.3,2.68,57.3,57.3,0,0,0,12,5c4.36,1.17,8.74,1.65,13.15.22A4.31,4.31,0,0,0,679.14,443.67Z"/>
      <path class="cls-16" d="M678.7,449.38a12.79,12.79,0,0,0-2.88,0,53.59,53.59,0,0,1-15.46-1.77,51.86,51.86,0,0,1-12.72-5.09,56,56,0,0,1-8.27-5.72,4.76,4.76,0,0,0-.88-.61,17.89,17.89,0,0,0,4.17,4.61,40.1,40.1,0,0,0,5.37,3.81,49.22,49.22,0,0,0,7,3.3A57.12,57.12,0,0,0,669,451a60.34,60.34,0,0,0,9.25.16A2.91,2.91,0,0,0,678.7,449.38Z"/>
      <path class="cls-16" d="M679.14,443.67c-.46-.33-.88.06-1.24.18a19.37,19.37,0,0,1-9.09.57A42.43,42.43,0,0,1,657.94,441a77.63,77.63,0,0,1-9.93-5.4c5.34,7.14,18.74,13.14,31,10A2,2,0,0,0,679.14,443.67Z"/>
    </g>
    <path class="cls-17" d="M574.7,396.66s16.7.76,27.31,12.48c0,0,6.25-12.49-6.45-19.27S574.7,396.66,574.7,396.66Z"/>
  </g>
</svg>
