<svg id="Layer_1" data-name="Layer 1" xmlns="http://www.w3.org/2000/svg" width="1024" height="600" viewBox="0 0 1024 600">
  <defs>
    <style>
      .cls-1 {
        fill: #729e00;
      }

      .cls-2 {
        fill: #5f8400;
      }

      .cls-3 {
        fill: #5f8300;
      }

      .cls-4 {
        fill: #fefefe;
      }

      .cls-5 {
        fill: #262626;
      }

      .cls-6 {
        fill: #fdfdfd;
      }

      .cls-7 {
        fill: #739f00;
      }

      .cls-8 {
        fill: #628602;
      }

      .cls-9 {
        fill: #506f00;
      }

      .cls-10 {
        fill: #db9a00;
      }

      .cls-11 {
        fill: #00a6b2;
      }

      .cls-12 {
        fill: #da9b03;
      }

      .cls-13 {
        fill: #2a2825;
      }

      .cls-14 {
        fill: #d79d0b;
      }

      .cls-15 {
        fill: #bda93c;
      }

      .cls-16 {
        fill: #ae9f2b;
      }

      .cls-17 {
        fill: #17595e;
      }
    </style>
  </defs>
  <title>16_the_sad_fish_swimming</title>
  <g>
    <g>
      <g>
        <path class="cls-1" d="M281.56,461.23c-2.11-.44-4.22-.9-6.34-1.31-1.64-.31-3.23-.79-4.83-1.26-1.25-.37-2.5-.73-3.74-1.12a73.24,73.24,0,0,1-13.4-5.75,71.89,71.89,0,0,1-9.51-6,82.87,82.87,0,0,1-6.52-5.4,74,74,0,0,1-5.43-5.43,47.11,47.11,0,0,0-3.91-3.92c-1.62-1.51-3.34-2.91-5-4.32-3.16-2.62-6.37-5.18-9.7-7.59a87.4,87.4,0,0,0-9.49-6.31,18.33,18.33,0,0,0-5.24-2.4,4.59,4.59,0,0,0-1.73-.12c-.79.15-.59.87-.77,1.33a100.74,100.74,0,0,1-7.31,15.47,77.3,77.3,0,0,1-9,12.73c-1.3,1.45-2.63,2.87-4.05,4.2a55.64,55.64,0,0,1-4.42,3.75c-1.32,1-2.76,1.83-4.12,2.76-2.5,1.7-5.37,2.56-8.11,3.67-3.8,1.55-7.69,2.86-11.49,4.4-2.69,1.09-5.36,2.2-8,3.3s-5.39,2.5-8.16,3.59a3.72,3.72,0,0,0-2.2,2.71,76.67,76.67,0,0,1-5.46,13.95,7.16,7.16,0,0,0-.85,2c-.21.71-.89,1.21-.88,2-.2.36-.12.92-.7,1,.19.46-.24.69-.38,1s-.24.44-.42.61q-2.14,3.48-4.27,7c-.93,1.5-2.12,2.83-3,4.39a1.09,1.09,0,0,1-.63.76c-1.59,2-3.14,4-4.78,5.91a26.74,26.74,0,0,1-5.56,5.26,23,23,0,0,1-.39-3.24c-.33-2.3-.11-4.63-.43-6.93a11.87,11.87,0,0,1,.28-2.69,40.27,40.27,0,0,1,.6-5.84c.53-2.12,1.09-4.24,1.81-6.33a69.3,69.3,0,0,1,3.76-8.49,58.64,58.64,0,0,1,4.1-7.07c1.62-2.34,3.3-4.64,5.07-6.85s3.43-5,5.9-6.68a52.08,52.08,0,0,0,7.28-6.24,50.81,50.81,0,0,0,12.07-18.47,48.29,48.29,0,0,0,2.5-8.21c.32-1.63.59-3.27.88-4.9.13-.73.11-1.14-.95-1-1.59.25-3.11-.41-4.64-.8a.79.79,0,0,1-.84-.28,35.28,35.28,0,0,1-8.11-5.13,47.08,47.08,0,0,1-6.94-7.5,52.15,52.15,0,0,1-3.83-5.68c-1.66-2.74-3.27-5.49-4.74-8.35a77.8,77.8,0,0,1-5.24-12.78,62,62,0,0,1-2.06-9.57c-.56-4-.17-7.9-.23-11.85a14,14,0,0,0-1.66-5.73,27.86,27.86,0,0,0-3.68-5.75,44.65,44.65,0,0,0-4.92-5.13,46.15,46.15,0,0,0-4.43-3.77c-.27-.18-.41-.57-.66-.93,2.21,0,4.06.87,5.91,1.66a41.91,41.91,0,0,1,4.75,2.45,43.6,43.6,0,0,1,7.14,5.34,36.09,36.09,0,0,1,4.6,5,26.81,26.81,0,0,1,3.11,5.05,2.05,2.05,0,0,0,2.06,1.42,47,47,0,0,1,6.81,1c3.1.55,6.05,1.6,9.07,2.45s6,2.28,9,3.42A120,120,0,0,1,156.12,369c3,1.49,5.92,3.1,8.87,4.64,4.51,2.36,8.82,5.09,13.16,7.74,3.66,2.23,7.07,4.81,10.56,7.28a19.67,19.67,0,0,1,1.61,1.28.74.74,0,0,0,1.27-.21,56.1,56.1,0,0,1,6.14-8.22c1.16-1.36,2.47-2.58,3.62-3.93s2.59-2.37,3.74-3.72a12.61,12.61,0,0,1,2.5-2c1.41-1,2.7-2.09,4.1-3.07s2.7-1.8,4.06-2.67a69.74,69.74,0,0,1,6.59-3.78c2.79-1.38,5.54-2.82,8.43-4s5.78-2.41,8.73-3.43A44.67,44.67,0,0,1,246,353c.85-.16,1-.75,1-1.45a22.1,22.1,0,0,0-1.66-7.39,39.49,39.49,0,0,0-3.57-7.08,51.38,51.38,0,0,0-4.93-6.41,42.09,42.09,0,0,0-5.17-5.07,47.67,47.67,0,0,0-6.27-4.74c-.33-.19-.74-.43-.67-.74s.56-.44,1-.5c4.28-.63,8.52-.09,12.76.46,2.73.35,5.48.64,8.18,1.21,2,.43,4.09.9,6.11,1.41,1.86.47,3.69,1,5.57,1.41a54.85,54.85,0,0,1,6.41,1.77c4.39,1.44,8.77,2.88,13.06,4.62a93.86,93.86,0,0,1,12.39,5.8,40.44,40.44,0,0,1,10,7.84,22.07,22.07,0,0,1,3.94,6,2.51,2.51,0,0,0,2,1.69c2.85.47,5.7,1,8.52,1.59s5.66,1.32,8.43,2.2a95.29,95.29,0,0,1,28.4,14.75,110.58,110.58,0,0,1,11.46,10c1.61,1.63,3.29,3.22,4.77,5s2.89,3.31,4.27,5c1.84,2.3,3.54,4.7,5.24,7.1.84,1.18,1.53,2.47,2.31,3.7a11.42,11.42,0,0,0,2.75,2.63,28.82,28.82,0,0,1,4.78,4.38c2.24,2.81,3,5.95,1.43,9.43-.5,1.14-1.31,2.09-1.74,3.26a5.25,5.25,0,0,0-2-.08,32.28,32.28,0,0,1-12.27-1.9,20.69,20.69,0,0,0,7.42,1.86,29.83,29.83,0,0,0,6.2.28.54.54,0,0,1,.56.28c.7.91,1.46,1.78,2.08,2.73.94,1.43.44,3.82-.69,5.26-1.74,2.21-4.22,2.8-6.69,3.49-2.94.83-5.89,1.62-8.83,2.47a12.81,12.81,0,0,0-3.1,1.83c-2.61,1.64-5.2,3.32-7.83,4.94-2.84,1.74-5.77,3.31-8.68,4.89a94.94,94.94,0,0,1-9.16,4.37c-3.15,1.3-6.28,2.64-9.52,3.72l-5.11,1.72c-.51.55-1.25.47-1.89.68a1.51,1.51,0,0,0-.94.11,101.09,101.09,0,0,1-13.19,2.94c-4.93.76-9.84,1.69-14.86,1.76a106.34,106.34,0,0,1-12.66-.5C284.22,461.47,282.89,461.36,281.56,461.23Z"/>
        <path class="cls-2" d="M386.62,421.21a31,31,0,0,1-7-.27,18.81,18.81,0,0,1-7.7-2.15.58.58,0,0,1-.36-.48c2.29.57,4.5,1.27,6.79,1.67a22,22,0,0,0,7.55.26c.54-.09.64.18.79.52S386.58,421.05,386.62,421.21Z"/>
        <path class="cls-3" d="M342.8,385.64c8.46,2,12.58,10.89,10.71,18a15,15,0,1,1-10.71-18Z"/>
        <path class="cls-3" d="M317.32,420.86a22.19,22.19,0,0,1-4.13-3.79c-.82-1-1.67-1.92-2.44-2.94-.93-1.23-1.83-2.49-2.68-3.79a49.66,49.66,0,0,1-4.21-8.07,37.43,37.43,0,0,1-2.38-9.18,31.78,31.78,0,0,1-.28-6.92,17.45,17.45,0,0,1,2-6.21A30.58,30.58,0,0,1,312,369.25a27.14,27.14,0,0,1,7.84-4.42c.82-.29,1.16.05,1.22.83,0,.07,0,.15,0,.22.26,1.3-.3,1.86-1.56,2.31a23.07,23.07,0,0,0-10.38,7.38,20.17,20.17,0,0,0-4.34,12.54,35.08,35.08,0,0,0,1.93,11.57,82.53,82.53,0,0,0,4,10.27,76.73,76.73,0,0,0,4.65,7.91C316,418.88,316.65,419.86,317.32,420.86Z"/>
        <path class="cls-4" d="M350.76,403.66c-2.26,6.65-8.78,10-15.15,7.92a12.08,12.08,0,1,1,7.46-23A12,12,0,0,1,350.76,403.66Z"/>
        <path class="cls-5" d="M336.3,409.79a10.19,10.19,0,0,1-7-12.07,10.08,10.08,0,0,1,12.94-7.39,10,10,0,0,1,6.83,12.22A10.06,10.06,0,0,1,336.3,409.79Z"/>
        <path class="cls-6" d="M340.43,397.64a2.65,2.65,0,0,1,3.46-1.74,2.8,2.8,0,0,1,1.7,3.41,2.7,2.7,0,0,1-3.27,1.77A2.57,2.57,0,0,1,340.43,397.64Z"/>
      </g>
      <path class="cls-2" d="M386.74,420.61c-10.58-2.59-20.75-4.54-30,2.58-.88.68,0,2.19.88,1.51,8.89-6.83,18.6-4.87,28.68-2.4,1.09.27,1.56-1.42.46-1.69Z"/>
      <path class="cls-2" d="M355.31,422.33a15.19,15.19,0,0,0,1.41,4.27c.5,1,2,.12,1.51-.88a13.65,13.65,0,0,1-1.23-3.86c-.19-1.11-1.87-.64-1.69.46Z"/>
    </g>
    <path class="cls-7" d="M353.47,402.72s-14-9.17-29.44-5.89c0,0,2.26-13.78,16.52-11.84S353.47,402.72,353.47,402.72Z"/>
    <g>
      <path class="cls-8" d="M249.29,393.73a19.87,19.87,0,0,1,7.64-3.7c2.16-.46,4.18.28,6.14,1a81.55,81.55,0,0,1,18.15,9.67,38.47,38.47,0,0,1,8.77,8.66,11.58,11.58,0,0,1,1.84,6.43c.19,3.19-.79,4.87-3.65,6.34a25.57,25.57,0,0,1-13.65,2.42c-4.72-.3-8.94-2.19-12.93-4.66a58.24,58.24,0,0,1-9.59-7.8c-2.21-2.12-4.14-4.46-6.11-6.78-.74-.86-1.51-1.69-2.21-2.59a1.53,1.53,0,0,1-.23-1.89c.29-.52.56-1,.84-1.56.54,0,.76.42,1,.76a58.85,58.85,0,0,0,12,11.2,42.6,42.6,0,0,0,16.35,7.28,32.49,32.49,0,0,0,7.06.65,42.25,42.25,0,0,1-12-3.13,55.29,55.29,0,0,1-17.55-11.37,56.2,56.2,0,0,1-5.46-6,1.54,1.54,0,0,1-.48-.86c.61-.69,1.25-1.35,1.8-2.07a2.24,2.24,0,0,1,.85-.67,10,10,0,0,1,2.07,2.84,27.11,27.11,0,0,0,5.18,5.77,31.4,31.4,0,0,0,9,5.6,32.5,32.5,0,0,0,7.07,1.92,26.29,26.29,0,0,0,3.79.48,28,28,0,0,1-4.86-1.45,57.3,57.3,0,0,1-11.7-5.67c-3.76-2.49-7-5.46-8.87-9.71A4.31,4.31,0,0,1,249.29,393.73Z"/>
      <path class="cls-9" d="M245.31,397.84a12.79,12.79,0,0,1,1.91,2.15,53.59,53.59,0,0,0,11.56,10.42A51.86,51.86,0,0,0,271,416.58a56,56,0,0,0,9.77,2.41,4.76,4.76,0,0,1,1,.26,17.89,17.89,0,0,1-6.22-.08,40.1,40.1,0,0,1-6.41-1.5,49.22,49.22,0,0,1-7.13-3.09,57.12,57.12,0,0,1-11.54-8.43,60.34,60.34,0,0,1-6.24-6.83A2.91,2.91,0,0,1,245.31,397.84Z"/>
      <path class="cls-9" d="M249.29,393.73c.55.13.54.7.68,1a19.37,19.37,0,0,0,5.59,7.19,42.43,42.43,0,0,0,9.76,5.9,77.63,77.63,0,0,0,10.62,3.87c-8.89.73-22.26-5.35-28-16.63C248.1,394.35,248.7,394,249.29,393.73Z"/>
    </g>
  </g>
  <g>
    <g>
      <path class="cls-10" d="M807.29,188.95a16.46,16.46,0,0,0,2.05,2.32c.68.43,1,1.27,1.67,1.66.27.32.11,1,.81,1a4.12,4.12,0,0,0,1.39,1.64c.39,1.29,1.48,2.08,2.23,3.12a104.57,104.57,0,0,1,8,12.45c-.1,2.44.37,4.86.2,7.3-.09,1.28,0,1.35,1.23.92,5.09-1.72,10.24-3.24,15.4-4.74,10.08-2.93,20.22-5.69,30.44-8.08,8.93-2.09,17.92-4,27-5.4q7.23-1.15,14.56-1.77a140.63,140.63,0,0,1,14.19-.48,11.49,11.49,0,0,1,5.51,1.07,72.34,72.34,0,0,1-3.58,8.92,79.07,79.07,0,0,1-7.07,12.07c-.28.27-.36.69-.68.93l-5.78,7.29c-2.82-.42-5.55-1.28-8.4-1.58-4.62-.49-9.23-1.08-13.86-1.49-4-.35-8-.51-11.93-.84-5.35-.44-10.73-.51-16.09-.67-3.09-.09-6.18-.4-9.26-.3-4.7.16-9.39-.23-14.09-.14-4,.08-8,0-12,.16-2,.07-4.08.09-6.12.33a1.47,1.47,0,0,0-1.41,1.15c-.92,2.88-1,2.93,1.4,4.83,3.46,2.75,6.93,5.49,10.44,8.17,3.36,2.57,6.62,5.27,10,7.8,3.76,2.82,7.52,5.65,11.29,8.46s7.67,5.6,11.57,8.31c4.25,3,8.53,5.89,13,8.44a24.74,24.74,0,0,0,6.21,2.82,1.77,1.77,0,0,1,1,.5c0,4.56-.26,9.11-.46,13.66-.07,1.64-.41,3.26-.33,4.9.06.48,0,1,.07,1.44a16.64,16.64,0,0,0-.35,4.42,2,2,0,0,0-.11,1.21l-.47,3.86a13.36,13.36,0,0,0,0,1.38c-.73,4.08-1,8.23-1.52,12.33A83.74,83.74,0,0,1,879.42,335c-.36,1-.9,2-1.36,2.95-1-.29-1.39-1.26-1.88-2-3.94-6.12-8-12.13-12-18.25-3.49-5.45-6.78-11-10.21-16.5-2.67-4.27-5.19-8.64-7.65-13-3.07-5.48-6.1-11-9-16.57-3.41-6.64-6.66-13.37-9.65-20.21-1.18-2.69-2.25-5.44-3.39-8.15-1.56-3.71-3.48-7.26-5.13-11.22-.71,1.64-1.73,2.79-2.32,4.19-.23.56-.48,1.19-1.31,1.06a2.43,2.43,0,0,0-3.22-1.45,60.31,60.31,0,0,0-12.67,5.8c-2.47,1.46-5,2.79-7.45,4.29-2,1.23-3.88,2.62-5.81,3.94-2.9,2-5.89,3.85-8.68,6-3.22,2.45-6.64,4.65-9.41,7.67a62.06,62.06,0,0,1-4.8,4.3,7.63,7.63,0,0,1-1.75,1.42c-2.19,1.63-4.14,3.56-6.47,5-3.35,2.1-6.6,4.37-10.13,6.16-3.24,1.64-6.48,3.32-9.86,4.64s-7.06,2.47-10.66,3.5a119.21,119.21,0,0,1-14.76,3.1c-2.69.41-5.38.67-8.08.83a5,5,0,0,0-1,.15l-5.5.1c-.45.12-.93,0-1.37.16-3.25-.12-6.5-.15-9.74-.39a119.8,119.8,0,0,1-14.83-2.34,136.1,136.1,0,0,1-17.3-4.5c-4.14-1.43-8.34-2.71-12.34-4.52-1.6-.73-3.25-1.35-4.88-2a3.48,3.48,0,0,0-.78-.45,174.52,174.52,0,0,1-23.74-12.75c-.22-.44-.72-.51-1.06-.79l-1.44-.85c-.21-.45-.73-.5-1.06-.81a94.83,94.83,0,0,1-7.94-5.53c-2.67-2-5.3-4-7.95-6a4,4,0,0,0-1.26-.75c-2.73-.91-5.54-1.63-8.16-2.78s-5.81-1.62-8.24-3.46c-3.78-2.86-5.48-7.06-1.4-10.86a4.7,4.7,0,0,0,1.37-1.92.68.68,0,0,1,.54-.14c2.73.59,5.48.31,8.23.28a29.55,29.55,0,0,0,9.18-1.57A53.5,53.5,0,0,1,577.69,232a19.83,19.83,0,0,1-4.46-.81c-3.1-3.84-3.66-10.4-.32-14.25.55-.64,1.17-1.23,1.67-1.91s1.27-.88,1.63-1.6l1-.84c.53-.11.77-.66,1.28-.8,1.88-1.44,4.12-2.43,5.62-4.33,1.23-1.56,2.3-3.26,3.55-4.81a136.83,136.83,0,0,1,11.1-12.49c.34-.5,1-.72,1.25-1.29l.77-.73c.2-.5.81-.63,1-1.14,3.74-3.16,7.35-6.5,11.27-9.42a110,110,0,0,1,9.52-6.66,8.52,8.52,0,0,0,1-.85c.41-.08.68-.42,1.07-.56,3.08-1.6,6-3.55,9.1-5s6-2.88,9.19-4.08c2.29-.87,4.55-1.87,6.87-2.63,2.69-.88,5.45-1.57,8.19-2.33a123.07,123.07,0,0,1,14.43-2.75c2.82-.43,5.67-.7,8.51-.95a4.52,4.52,0,0,0,2.71-1,3.24,3.24,0,0,1,1.83-1.25,81,81,0,0,1,14.79-3.68,151.82,151.82,0,0,1,18-2.17,184.4,184.4,0,0,1,19.35-.13,131.88,131.88,0,0,1,17,1.92c1.31.23,2.58.65,3.88.94.37.08.76.16.89.61a37.35,37.35,0,0,0-3,9.76c-.13.91,0,1.43,1.06,1.81a106.29,106.29,0,0,1,12.21,4.95,144.11,144.11,0,0,1,15.19,8.4c2.16,1.41,4.39,2.72,6.52,4.18,3,2,6,4,8.79,6.32,2.07,1.75,4.07,3.61,6,5.53C806.65,188.15,806.77,188.78,807.29,188.95Z"/>
      <path class="cls-5" d="M886.71,275.08c-2.89-.22-5.21-1.88-7.65-3.16s-4.45-2.76-6.64-4.2c-2.93-1.92-5.85-3.83-8.67-5.91-2.37-1.75-4.83-3.36-7.19-5.13-3.62-2.72-7.28-5.38-10.89-8.12s-7.3-5.59-10.93-8.42c-4.64-3.61-9.25-7.26-13.88-10.88a.9.9,0,0,1-.31-1.32,6.35,6.35,0,0,0,.83-2.25c.1-1.2.68-1.43,1.73-1.48,4.52-.24,9-.38,13.58-.4,5.29,0,10.57.06,15.85.12s10.68.24,16,.42q9.34.31,18.66,1c5.85.41,11.68.91,17.51,1.66,2.81.36,5.57.85,8.33,1.44.63.14,1.35.12,1.81.71-3.07,3.7-6.68,6.89-10,10.39-.31.77-1.26,1-1.59,1.71-3.08,2.55-5.64,5.67-8.75,8.19a4.36,4.36,0,0,1-1.51,1.29,35.52,35.52,0,0,1-3.47,2.81,4.51,4.51,0,0,0-2.18,4.21c0,1.81-.2,3.61-.31,5.42,0,.47,0,.95.08,1.42-.59,2,0,4-.14,6.06.15.47,0,1,.11,1.44C886.84,273,887.89,274.23,886.71,275.08Z"/>
      <path class="cls-11" d="M815.59,237.21a2.28,2.28,0,0,0,.93-1c.74-1.47,1.52-2.91,2.31-4.35.1-.18.08-.5.41-.5s.29.31.37.51c1.31,3.28,2.9,6.44,4.39,9.64s2.78,6.57,4.19,9.84c2.49,5.78,5.24,11.42,8.06,17,3.08,6.16,6.39,12.19,9.74,18.2s6.8,11.86,10.36,17.7,7.29,11.82,11.1,17.62c3.51,5.34,7.07,10.65,10.61,16-1.87,7.21-5.25,13.49-11.22,18.17-.55,0-.73.64-1.24.72-1,.38-2,1.11-2.7-.41-.7-.52-1-1.41-1.82-1.85a97.08,97.08,0,0,1-7.91-10.86c-3.85-6.07-7.43-12.32-10.81-18.68-2.78-5.23-5.45-10.52-8.14-15.8-2.24-4.4-4.3-8.89-6.72-13.21a70,70,0,0,1-4.93-11.69,129.45,129.45,0,0,1-4.65-17.46c-.42-2.18-.79-4.37-1-6.6-.18-1.77-.53-3.54-.65-5.33-.13-.3,0-.65-.2-.93-.17-2.43-.29-4.86-.5-7.28-.23-2.67-.08-5.33-.25-8A6.15,6.15,0,0,1,815.59,237.21Z"/>
      <path class="cls-11" d="M932,199.93c-5.57-1.07-11.17-.79-16.79-.44q-5.91.37-11.78,1.16c-4.17.56-8.34,1.18-12.46,2-3.16.67-6.36,1.14-9.52,1.81q-6.43,1.35-12.82,2.86-5.28,1.25-10.53,2.67-7.63,2.06-15.24,4.23c-4.61,1.32-9.19,2.7-13.78,4.08-1.92.58-3.82,1.21-5.84,1.85a38.72,38.72,0,0,0-.18-7.64c-.07-.58.32-1,.42-1.44,1.23-.2,2-1.21,3-1.83a243,243,0,0,1,23.64-13.39,218.24,218.24,0,0,1,23.64-10.16c.48-.17.8-.72,1.4-.58a10.5,10.5,0,0,0,1.23-.51,98.66,98.66,0,0,1,13.35-4.25c4.48-1.2,9-2.08,13.59-2.91,1.07-.19,2.17-.17,3.22-.46a134.46,134.46,0,0,1,13.89-1c3.82,0,7.57.37,11.35.69a2.22,2.22,0,0,1,1.79,1,8.59,8.59,0,0,1,.64,1.58,25.15,25.15,0,0,1,.58,7c.05.48,0,1,.07,1.43-.55,3-.91,6-1.65,8.89A20.05,20.05,0,0,1,932,199.93Z"/>
      <path class="cls-11" d="M774.67,128.19l-3.23,2.67a79.33,79.33,0,0,0-12.5-.29c-5.3.15-10.6.38-15.88.95s-10.75,1.24-16.07,2.18a145.11,145.11,0,0,0-20.45,5,84.85,84.85,0,0,0-14.5,6.23,62.86,62.86,0,0,0-6.77,4.72c-.42.31-.79.71-1.39.53a20.54,20.54,0,0,1,4.07-5.93c4.11-4.66,9.38-7.77,14.81-10.63.7-.37,1.58-.35,2.1-1.06.44,0,.65-.43,1.06-.46,1.9-.44,3.57-1.46,5.42-2.08,3.12-1,6.23-2.15,9.37-3.12,3.83-1.19,7.68-2.31,11.58-3.22,3.66-.85,7.32-1.71,11-2.46,3.52-.71,7.05-1.34,10.6-1.9,2.59-.41,5.2-.73,7.81-1,3.22-.31,6.44-.52,9.67-.77a4.51,4.51,0,0,0,1-.15l2.24,0c.47-.1,1,0,1.43-.11a73.26,73.26,0,0,1,8.74.61,11.87,11.87,0,0,1,1.47.32,1.16,1.16,0,0,1,.94.9c.08.55-.48.6-.89.82a51.27,51.27,0,0,0-9.79,6.66A5,5,0,0,0,774.67,128.19Z"/>
      <path class="cls-5" d="M683.88,150.18c1.2-.27,1.85-1.31,2.74-2a61.07,61.07,0,0,1,17.05-8.9,130,130,0,0,1,16.74-4.66c5.81-1.27,11.67-2.17,17.56-2.89,4.21-.52,8.44-.86,12.68-1.1,6.16-.35,12.32-.49,18.48-.33a3.49,3.49,0,0,1,2.3.56c-4.7,4.67-8.88,9.72-11.66,15.8-.07.15-.27.24-.41.36a92.75,92.75,0,0,0-20.71-3.08c-3.21-.14-6.42-.3-9.64-.28-5,0-10,.32-15,.76-2.9.26-5.79.61-8.67,1a119.69,119.69,0,0,0-14.18,2.75,34.77,34.77,0,0,0-7.52,2.61C683.5,150.51,683.94,150.42,683.88,150.18Z"/>
      <path class="cls-12" d="M933.29,177.87a3.19,3.19,0,0,0-2-.81,80.88,80.88,0,0,0-13-.69,62.69,62.69,0,0,0-9.54.74,18.31,18.31,0,0,1-2.27.1c-.18.06-.38.08-.49-.11s0-.25.16-.27c3.58-.68,7.22-.87,10.84-1.28.47-.14,1,0,1.44-.13h1.82c.45-.12.93,0,1.38-.16,2.54.07,5.09.08,7.62.24a22,22,0,0,1,3.34.64,1.46,1.46,0,0,1,1.27,2.06C933.6,178.21,933.51,177.93,933.29,177.87Z"/>
      <path class="cls-13" d="M573.23,231.21c.41-.28.81-.09,1.23,0,4.27.87,8.5.46,12.75-.21,1.62-.25,3.21-.56,4.84-.92-1,2.2-13.34,3.48-18.87,2Z"/>
      <path class="cls-14" d="M906.16,176.83c-.11.32.2.27.33.38-1.92.34-3.84.68-5.76,1A131.74,131.74,0,0,0,886,181.71c-3.25,1-6.5,2-9.75,3l-.09-.14a33.68,33.68,0,0,1,7.41-2.83A132.94,132.94,0,0,1,898,178.14,56.89,56.89,0,0,1,906.16,176.83Z"/>
      <path class="cls-15" d="M933.29,177.87l.58.32c.51.28.43.71.3,1.15C933.61,179,933.7,178.29,933.29,177.87Z"/>
      <path class="cls-4" d="M861.08,354.53c.92.31,1.2,1.24,1.82,1.85C862,356,861.7,355.14,861.08,354.53Z"/>
      <path class="cls-4" d="M761.79,269.16l1.75-1.42A2.59,2.59,0,0,1,761.79,269.16Z"/>
      <path class="cls-4" d="M893,250.72l1.51-1.29A1.91,1.91,0,0,1,893,250.72Z"/>
      <path class="cls-4" d="M887.15,272.07c-.4-.45-.19-1-.11-1.44A1.3,1.3,0,0,1,887.15,272.07Z"/>
      <path class="cls-4" d="M885.52,300.71c-.18-.42-.38-.85.11-1.21A1.73,1.73,0,0,1,885.52,300.71Z"/>
      <path class="cls-4" d="M885.06,305.95a1.46,1.46,0,0,1,0-1.38A1.33,1.33,0,0,1,885.06,305.95Z"/>
      <path class="cls-4" d="M887.18,264.57a2.14,2.14,0,0,1-.08-1.42A1.37,1.37,0,0,1,887.18,264.57Z"/>
      <path class="cls-4" d="M886,295.09c-.34-.47-.16-1-.07-1.44A1.29,1.29,0,0,1,886,295.09Z"/>
      <path class="cls-4" d="M865.6,356.79c.43-.21.62-.83,1.24-.72C866.43,356.33,866.18,356.85,865.6,356.79Z"/>
      <path class="cls-4" d="M816.07,254a.75.75,0,0,1,.2.93C815.63,254.71,816.15,254.28,816.07,254Z"/>
      <path class="cls-16" d="M876.19,184.62l.09.14a1.08,1.08,0,0,1-1.18.4A1.31,1.31,0,0,1,876.19,184.62Z"/>
      <path class="cls-11" d="M750.7,269.89c-.07,1.2-1,2-1.45,3-.18.43-.62.35-1,.33-2.36-.07-4.72-.06-7.08-.22-8.18-.56-16.3-1.53-24-4.38a38.2,38.2,0,0,1-13.6-8.1,35,35,0,0,1-9.24-15.2,16.19,16.19,0,0,1-.48-6,5.25,5.25,0,0,1,3-4.21c1.66-1,3.32-2,5.08-2.86a8.68,8.68,0,0,1,3.56-.58,49.46,49.46,0,0,1,18.88,3.19,96.31,96.31,0,0,1,11.37,4.83c4.4,2.27,8.89,4.41,12.68,7.72,2.33,2,2.94,4.81,3.58,7.58a18.38,18.38,0,0,1,.64,5.41,7.81,7.81,0,0,1-3.93,1.14A32.3,32.3,0,0,1,734,259.49a85.91,85.91,0,0,1-11.52-5.63c-2.51-1.44-4.85-3.16-7.25-4.78a2.64,2.64,0,0,1-.62-.64,42.8,42.8,0,0,0,6.88,6.51,41.23,41.23,0,0,0,21.3,8.14,29.4,29.4,0,0,0,7.65-.2,2.4,2.4,0,0,1,1.8.12c.25,1.7-.49,3.23-.86,4.82a28.26,28.26,0,0,1-6.36-.1,76.11,76.11,0,0,1-13.41-2.47,65.75,65.75,0,0,1-21.64-10.49,43.47,43.47,0,0,1-7.44-6.34c-.28-.33-.48-.7-.76-1-.13-.23-.36-.39-.41-.5a3.14,3.14,0,0,1,.32.42A50,50,0,0,0,711,257c7.31,5.63,15.63,8.86,24.56,10.78a67.92,67.92,0,0,0,14,1.71A1.37,1.37,0,0,1,750.7,269.89Z"/>
      <path class="cls-5" d="M623.47,195.19a18.92,18.92,0,0,1,26.81,2.72c6.71,8.54,5.46,20-3,26.73s-19.8,5.57-26.79-3.19A18.88,18.88,0,0,1,623.47,195.19Z"/>
      <path class="cls-5" d="M665.79,266.58c1.85-2.39,3.58-4.58,5.27-6.81a106.64,106.64,0,0,0,9.4-14.23,82.55,82.55,0,0,0,6.19-15.69A74.1,74.1,0,0,0,689,218.94a48.73,48.73,0,0,0-2.14-23.5,40.09,40.09,0,0,0-9.95-15.24,41.42,41.42,0,0,0-14-9.08c-1.81-.7-2.29-2-1.44-3.72a1.08,1.08,0,0,1,1.62-.57,48.09,48.09,0,0,1,16.32,11.61,46.74,46.74,0,0,1,9.92,18A49.88,49.88,0,0,1,691.53,215a79.53,79.53,0,0,1-2.89,14.59,83.65,83.65,0,0,1-3.68,10.82,74.4,74.4,0,0,1-8.37,15,48.81,48.81,0,0,1-7.72,8.81C667.91,265,667.18,266,665.79,266.58Z"/>
      <path class="cls-5" d="M701.79,247.25a55.54,55.54,0,0,0,10.29,8.59A68.32,68.32,0,0,0,739,266.59a77.43,77.43,0,0,0,10.79,1c.52,0,1,.13,1.54.2a2.57,2.57,0,0,1-.65,2.06A67.84,67.84,0,0,1,734.45,268a63.69,63.69,0,0,1-13.8-4.72,52.18,52.18,0,0,1-7.83-4.46,43.78,43.78,0,0,1-6.89-5.86,36.32,36.32,0,0,1-4.43-5.57Q701.55,247.13,701.79,247.25Z"/>
      <path class="cls-5" d="M752.21,263c-15.63,2.61-31-5-38.31-15.27,1.52,1.06,3.1,2.06,4.61,3.12a69.48,69.48,0,0,0,8,4.87,49.79,49.79,0,0,0,12.26,4.85c4.39,1,8.81,1.33,13.2-.1a2.12,2.12,0,0,1,.56,0C752.52,261.32,752.89,262.24,752.21,263Z"/>
      <path class="cls-17" d="M701.79,247.25l-.29.14c-.14-.46-.88-.55-.77-1.25A3.2,3.2,0,0,1,701.79,247.25Z"/>
      <path class="cls-4" d="M645.08,221.55A15.32,15.32,0,1,1,647,200,15.28,15.28,0,0,1,645.08,221.55Z"/>
      <path class="cls-5" d="M626.11,200.76a12.89,12.89,0,1,1,17.55,18.84,12.89,12.89,0,0,1-17.55-18.84Z"/>
      <path class="cls-6" d="M633,209.91c-1.33,1.28-3.79,1.34-4.89,0-1.41-1.75-1.41-3.39.28-5.12,1-1.07,3.65-.92,4.69.16A3.58,3.58,0,0,1,633,209.91Z"/>
    </g>
    <path d="M571.87,230s.45.07,1.31.17,2.08.21,3.56.3a65.73,65.73,0,0,0,10.87-.19c1-.12,2-.25,2.92-.42s1.9-.37,2.79-.62a23.78,23.78,0,0,0,4.75-1.77,15,15,0,0,0,1.75-1,13.39,13.39,0,0,0,1.26-.95c.34-.27.57-.54.75-.69l.26-.25-.23.28c-.16.18-.35.47-.66.79a13.67,13.67,0,0,1-1.15,1.12,15.44,15.44,0,0,1-1.66,1.28,24.71,24.71,0,0,1-4.66,2.43c-.89.37-1.84.69-2.81,1s-2,.57-3,.81a68.4,68.4,0,0,1-11.2,1.59c-1.54.1-2.84.13-3.75.14s-1.46,0-1.46,0Z"/>
  </g>
</svg>
