<svg id="Layer_1" data-name="Layer 1" xmlns="http://www.w3.org/2000/svg" width="1024" height="600" viewBox="0 0 1024 600">
  <defs>
    <style>
      .cls-1 {
        fill: #db9a00;
      }

      .cls-2 {
        fill: #262626;
      }

      .cls-3 {
        fill: #00a6b2;
      }

      .cls-4 {
        fill: #da9b03;
      }

      .cls-5 {
        fill: #2a2825;
      }

      .cls-6 {
        fill: #d79d0b;
      }

      .cls-7 {
        fill: #bda93c;
      }

      .cls-8 {
        fill: #fefefe;
      }

      .cls-9 {
        fill: #ae9f2b;
      }

      .cls-10 {
        fill: #17595e;
      }

      .cls-11 {
        fill: #fdfdfd;
      }

      .cls-12 {
        fill: #729e00;
      }

      .cls-13 {
        fill: #5f8400;
      }

      .cls-14 {
        fill: #5f8300;
      }

      .cls-15 {
        fill: #739f00;
      }

      .cls-16 {
        fill: #628602;
      }

      .cls-17 {
        fill: #506f00;
      }
    </style>
  </defs>
  <title>16_the_sad_fish_swimming</title>
  <g>
    <g>
      <path class="cls-1" d="M706,175.37a16.46,16.46,0,0,1-2.27,2.11c-.72.36-1.07,1.17-1.82,1.49-.3.3-.21,1-.9.88a4.12,4.12,0,0,1-1.54,1.5c-.52,1.24-1.68,1.93-2.52,2.89a104.57,104.57,0,0,0-9.17,11.63c-.14,2.44-.83,4.8-.89,7.25,0,1.28-.11,1.34-1.31.8-4.9-2.2-9.89-4.21-14.87-6.2-9.75-3.89-19.58-7.6-29.53-11-8.69-2.94-17.45-5.67-26.33-8q-7.09-1.84-14.33-3.16a140.63,140.63,0,0,0-14.08-1.84,11.49,11.49,0,0,0-5.59.54,72.34,72.34,0,0,0,2.7,9.23,79.07,79.07,0,0,0,5.88,12.69c.25.3.29.72.58,1l5.05,7.81c2.84-.15,5.64-.74,8.51-.77,4.65,0,9.29-.19,13.94-.16,4,0,8,.25,12,.31,5.36.08,10.73.52,16.09.88,3.08.2,6.19.19,9.25.59,4.66.61,9.37.67,14,1.21,4,.46,7.93.79,11.89,1.31,2,.27,4.05.48,6.06.91a1.47,1.47,0,0,1,1.29,1.28c.64,3,.7,3-1.86,4.67-3.71,2.4-7.43,4.8-11.18,7.13-3.59,2.23-7.09,4.61-10.7,6.8-4,2.45-8,4.91-12.05,7.34s-8.18,4.84-12.32,7.16c-4.52,2.53-9.06,5-13.79,7.15a24.74,24.74,0,0,1-6.46,2.22,1.77,1.77,0,0,0-1.05.4c-.47,4.54-.61,9.09-.85,13.64-.09,1.64.1,3.28-.14,4.91-.1.47-.13,1-.2,1.43a16.64,16.64,0,0,1-.07,4.43,2,2,0,0,1,0,1.21l.1,3.88a13.36,13.36,0,0,1-.15,1.37c.34,4.13.18,8.28.33,12.42a83.74,83.74,0,0,0,2.51,17c.26,1,.71,2,1.07,3.06,1.06-.18,1.5-1.12,2.06-1.83,4.51-5.71,9.17-11.3,13.66-17,4-5.09,7.81-10.31,11.75-15.44,3.07-4,6-8.11,8.87-12.24,3.58-5.16,7.12-10.34,10.52-15.63,4-6.29,7.91-12.67,11.55-19.19,1.43-2.56,2.77-5.2,4.16-7.79,1.91-3.54,4.16-6.89,6.18-10.67.55,1.7,1.46,2.94,1.9,4.4.18.58.36,1.23,1.2,1.18a2.43,2.43,0,0,1,3.35-1.14,60.31,60.31,0,0,1,12.05,7c2.31,1.69,4.72,3.26,7,5,1.86,1.41,3.61,3,5.41,4.48,2.7,2.25,5.49,4.39,8.07,6.78,3,2.75,6.16,5.26,8.63,8.54A62.06,62.06,0,0,0,742,258a7.63,7.63,0,0,0,1.6,1.58c2,1.84,3.78,3.94,6,5.61,3.13,2.41,6.15,5,9.5,7.1,3.07,1.95,6.13,3.93,9.37,5.56s6.79,3.14,10.28,4.51a119.21,119.21,0,0,0,14.39,4.5c2.63.67,5.29,1.18,8,1.6a5,5,0,0,1,1,.24l5.47.63c.44.16.93.06,1.35.29,3.24.19,6.48.47,9.73.54a119.81,119.81,0,0,0,15-.91,136.1,136.1,0,0,0,17.65-2.81c4.26-1,8.56-1.89,12.72-3.32,1.66-.57,3.36-1,5-1.55a3.48,3.48,0,0,1,.82-.37A174.52,174.52,0,0,0,894.7,270.8c.26-.42.76-.44,1.13-.68l1.52-.7c.26-.43.78-.43,1.13-.7a94.83,94.83,0,0,0,8.44-4.74c2.84-1.72,5.66-3.48,8.49-5.23a4,4,0,0,1,1.32-.63c2.8-.64,5.67-1.09,8.39-2s5.94-1.05,8.54-2.65c4-2.48,6.14-6.5,2.44-10.68a4.7,4.7,0,0,1-1.18-2,.68.68,0,0,0-.52-.19c-2.77.32-5.48-.22-8.22-.51a29.55,29.55,0,0,1-9-2.44,53.5,53.5,0,0,0,13.25,2.65,19.83,19.83,0,0,0,4.52-.37c3.45-3.53,4.64-10,1.68-14.15-.49-.69-1-1.33-1.48-2.06s-1.18-1-1.47-1.75l-.94-.94c-.52-.16-.71-.73-1.2-.92-1.74-1.61-3.86-2.82-5.18-4.85-1.08-1.67-2-3.46-3.07-5.13a136.83,136.83,0,0,0-9.85-13.5c-.29-.53-.9-.81-1.12-1.4l-.7-.8c-.15-.51-.75-.7-.88-1.23-3.42-3.5-6.69-7.17-10.31-10.46a110,110,0,0,0-8.84-7.54,8.52,8.52,0,0,1-.95-.94c-.4-.12-.64-.49-1-.66-2.91-1.89-5.59-4.1-8.57-5.89s-5.74-3.45-8.75-4.94c-2.2-1.09-4.34-2.3-6.59-3.28-2.6-1.13-5.28-2.08-7.92-3.1a123.07,123.07,0,0,0-14.1-4.12c-2.77-.7-5.57-1.24-8.38-1.76a4.52,4.52,0,0,1-2.61-1.23,3.24,3.24,0,0,0-1.7-1.42,81,81,0,0,0-14.37-5.08A151.82,151.82,0,0,0,799,138.87a184.41,184.41,0,0,0-19.24-2,131.88,131.88,0,0,0-17.08.28c-1.33.1-2.63.4-4,.56-.37,0-.77.09-.94.52a37.35,37.35,0,0,1,2,10c0,.91-.12,1.43-1.23,1.7a106.29,106.29,0,0,0-12.62,3.75A144.11,144.11,0,0,0,730,160.6c-2.28,1.2-4.63,2.29-6.89,3.54-3.16,1.75-6.4,3.4-9.36,5.45-2.23,1.54-4.4,3.21-6.51,4.93C706.74,174.64,706.57,175.26,706,175.37Z"/>
      <path class="cls-2" d="M618.72,253.49c2.89.05,5.37-1.38,7.92-2.41s4.69-2.32,7-3.54c3.1-1.63,6.19-3.25,9.19-5.05,2.52-1.51,5.13-2.88,7.65-4.42,3.86-2.36,7.77-4.66,11.62-7s7.8-4.87,11.68-7.33c5-3.15,9.9-6.34,14.86-9.5a.9.9,0,0,0,.44-1.28,6.35,6.35,0,0,1-.61-2.32c0-1.2-.54-1.49-1.58-1.64-4.48-.67-9-1.25-13.48-1.7-5.26-.53-10.53-1-15.79-1.4s-10.65-.78-16-1.12q-9.33-.58-18.67-.83c-5.86-.16-11.72-.22-17.58,0-2.83.09-5.63.31-8.43.64-.64.07-1.35,0-1.87.54,2.7,4,6,7.5,8.92,11.3.23.8,1.17,1.07,1.42,1.86,2.82,2.84,5.07,6.18,7.92,9a4.36,4.36,0,0,0,1.38,1.43,35.52,35.52,0,0,0,3.18,3.13,4.51,4.51,0,0,1,1.77,4.4c-.17,1.8-.15,3.62-.22,5.43-.09.47-.1.94-.22,1.41.4,2.05-.41,4-.44,6-.19.45,0,1-.25,1.42C618.78,251.45,617.62,252.53,618.72,253.49Z"/>
      <path class="cls-3" d="M693.14,222.62a2.28,2.28,0,0,1-.83-1.08c-.59-1.53-1.23-3-1.88-4.56-.08-.19,0-.5-.36-.53s-.32.28-.42.47c-1.62,3.14-3.5,6.13-5.3,9.17s-3.4,6.27-5.12,9.39c-3,5.51-6.32,10.87-9.66,16.2-3.66,5.83-7.53,11.52-11.44,17.18s-7.9,11.16-12,16.63-8.39,11.07-12.74,16.48c-4,5-8.06,9.92-12.09,14.88,1.17,7.36,3.93,13.93,9.42,19.16.54.06.67.71,1.17.83.94.48,1.89,1.3,2.73-.15.75-.45,1.16-1.31,2-1.67A97.08,97.08,0,0,0,645.51,325c4.42-5.67,8.57-11.55,12.55-17.55,3.27-4.94,6.43-10,9.62-14.95,2.66-4.16,5.13-8.44,8-12.51a70,70,0,0,0,6-11.16A129.45,129.45,0,0,0,688,251.87c.62-2.13,1.21-4.28,1.64-6.47.35-1.75.87-3.47,1.16-5.24.16-.28.08-.64.29-.91.4-2.4.75-4.81,1.19-7.2.49-2.64.59-5.3,1-7.94A6.15,6.15,0,0,0,693.14,222.62Z"/>
      <path class="cls-3" d="M580.88,174.34c5.65-.53,11.2.28,16.76,1.17q5.85.93,11.61,2.28c4.1,1,8.19,2,12.21,3.23,3.08,1,6.22,1.75,9.3,2.71q6.27,2,12.49,4.08,5.14,1.75,10.22,3.67,7.4,2.78,14.76,5.67c4.46,1.75,8.89,3.57,13.33,5.38,1.85.76,3.68,1.57,5.63,2.4a38.72,38.72,0,0,1,.91-7.59c.13-.57-.23-1-.28-1.47-1.21-.32-1.87-1.39-2.78-2.1a243,243,0,0,0-22.24-15.59,218.25,218.25,0,0,0-22.56-12.38c-.46-.21-.72-.79-1.33-.71a10.5,10.5,0,0,1-1.18-.63A98.66,98.66,0,0,0,624.84,159c-4.34-1.62-8.78-2.94-13.24-4.2-1-.3-2.14-.38-3.16-.77a134.46,134.46,0,0,0-13.74-2.29c-3.8-.39-7.57-.36-11.36-.4a2.22,2.22,0,0,0-1.88.83,8.59,8.59,0,0,0-.79,1.51,25.15,25.15,0,0,0-1.25,6.91c-.1.47-.12.95-.21,1.42.26,3,.33,6,.79,9A20,20,0,0,0,580.88,174.34Z"/>
      <path class="cls-3" d="M744.33,118l3,3a79.33,79.33,0,0,1,12.47.91c5.26.66,10.52,1.39,15.72,2.47s10.58,2.26,15.79,3.71A145.12,145.12,0,0,1,811.14,135,84.85,84.85,0,0,1,825,142.62a62.86,62.86,0,0,1,6.29,5.34c.39.35.72.78,1.33.66a20.54,20.54,0,0,0-3.48-6.29c-3.65-5-8.59-8.63-13.72-12-.66-.43-1.54-.5-2-1.26-.44,0-.61-.49-1-.56-1.85-.62-3.42-1.8-5.19-2.59-3-1.34-6-2.73-9-4-3.7-1.55-7.42-3-11.22-4.31-3.56-1.2-7.12-2.41-10.71-3.51-3.43-1-6.89-2-10.37-2.91-2.54-.66-5.1-1.22-7.68-1.72-3.17-.62-6.37-1.14-9.55-1.7a4.51,4.51,0,0,1-1-.25l-2.23-.19c-.46-.15-1-.1-1.41-.25a73.26,73.26,0,0,0-8.76-.23,11.87,11.87,0,0,0-1.49.17,1.16,1.16,0,0,0-1,.8c-.13.54.42.65.81.91a51.27,51.27,0,0,1,9.11,7.56A5,5,0,0,1,744.33,118Z"/>
      <path class="cls-2" d="M832.6,148.63c-1.17-.39-1.72-1.49-2.54-2.26a61.07,61.07,0,0,0-16.12-10.49,130,130,0,0,0-16.22-6.24c-5.66-1.82-11.41-3.28-17.2-4.56-4.14-.92-8.32-1.66-12.51-2.31-6.1-.94-12.21-1.67-18.36-2.1a3.49,3.49,0,0,0-2.35.33c4.23,5.09,7.9,10.52,10.09,16.84.06.16.25.27.38.4a92.76,92.76,0,0,1,20.91-1.08c3.21.16,6.42.31,9.62.64,5,.51,9.9,1.28,14.81,2.2,2.86.54,5.7,1.16,8.54,1.83a119.69,119.69,0,0,1,13.85,4.1,34.77,34.77,0,0,1,7.23,3.32C832.94,149,832.52,148.86,832.6,148.63Z"/>
      <path class="cls-4" d="M581.67,152.25a3.19,3.19,0,0,1,2.07-.61,80.88,80.88,0,0,1,13,.56,62.69,62.69,0,0,1,9.43,1.66,18.31,18.31,0,0,0,2.25.32c.18.07.37.12.5-.06s0-.25-.13-.29c-3.5-1-7.11-1.56-10.66-2.32-.46-.18-1-.12-1.42-.27l-1.81-.19c-.44-.16-.93-.06-1.35-.29-2.54-.17-5.07-.4-7.61-.5a22,22,0,0,0-3.39.32c-1.14.14-1.69.75-1.46,1.93C581.33,152.57,581.45,152.29,581.67,152.25Z"/>
      <path class="cls-5" d="M935,239.9c-.38-.32-.8-.17-1.22-.13-4.33.46-8.51-.36-12.68-1.43-1.58-.41-3.15-.87-4.73-1.38.75,2.29,12.94,4.75,18.59,3.81Z"/>
      <path class="cls-6" d="M608.78,153.83c.08.33-.23.25-.37.35,1.88.53,3.76,1,5.63,1.58a131.74,131.74,0,0,1,14.31,4.86c3.14,1.31,6.27,2.64,9.41,4l.1-.13a33.68,33.68,0,0,0-7.1-3.52,132.94,132.94,0,0,0-14-5A56.89,56.89,0,0,0,608.78,153.83Z"/>
      <path class="cls-7" d="M581.67,152.25l-.61.26c-.53.23-.49.66-.4,1.12C581.25,153.36,581.23,152.63,581.67,152.25Z"/>
      <path class="cls-8" d="M636.6,335c-.95.22-1.32,1.12-2,1.67C635.51,336.42,635.93,335.58,636.6,335Z"/>
      <path class="cls-8" d="M743.63,259.58,742,258A2.59,2.59,0,0,0,743.63,259.58Z"/>
      <path class="cls-8" d="M614.74,228.63l-1.38-1.43A1.91,1.91,0,0,0,614.74,228.63Z"/>
      <path class="cls-8" d="M618.57,250.45c.44-.41.28-.93.25-1.42A1.3,1.3,0,0,0,618.57,250.45Z"/>
      <path class="cls-8" d="M617.44,279.12c.22-.4.46-.81,0-1.21A1.73,1.73,0,0,0,617.44,279.12Z"/>
      <path class="cls-8" d="M617.39,284.37a1.46,1.46,0,0,0,.15-1.37A1.33,1.33,0,0,0,617.39,284.37Z"/>
      <path class="cls-8" d="M619.25,243a2.14,2.14,0,0,0,.22-1.41A1.37,1.37,0,0,0,619.25,243Z"/>
      <path class="cls-8" d="M617.52,273.47c.38-.43.25-.94.2-1.43A1.29,1.29,0,0,0,617.52,273.47Z"/>
      <path class="cls-8" d="M631.89,336.85c-.41-.25-.54-.89-1.17-.83C631.1,336.31,631.3,336.85,631.89,336.85Z"/>
      <path class="cls-8" d="M691.05,239.25a.75.75,0,0,0-.29.91C691.42,240,690.95,239.55,691.05,239.25Z"/>
      <path class="cls-9" d="M637.87,164.45l-.1.13a1.08,1.08,0,0,0,1.14.51A1.31,1.31,0,0,0,637.87,164.45Z"/>
      <path class="cls-3" d="M754.6,261.37c0,1.2.82,2.07,1.15,3.13.14.45.58.4,1,.43,2.36.15,4.71.39,7.07.46,8.19.23,16.37,0,24.36-2.05a38.2,38.2,0,0,0,14.31-6.76,35,35,0,0,0,10.65-14.24,16.19,16.19,0,0,0,1-5.89,5.25,5.25,0,0,0-2.53-4.47c-1.56-1.16-3.11-2.33-4.79-3.34a8.68,8.68,0,0,0-3.49-.92,49.46,49.46,0,0,0-19.1,1.36,96.31,96.31,0,0,0-11.78,3.72c-4.6,1.84-9.28,3.54-13.37,6.47-2.52,1.8-3.39,4.51-4.29,7.21a18.38,18.38,0,0,0-1.15,5.33,7.81,7.81,0,0,0,3.8,1.52,32.3,32.3,0,0,0,14.79-.69,85.91,85.91,0,0,0,12-4.49c2.64-1.2,5.13-2.68,7.68-4.06a2.64,2.64,0,0,0,.68-.58,42.8,42.8,0,0,1-7.47,5.82,41.23,41.23,0,0,1-22,6.06,29.4,29.4,0,0,1-7.59-.93,2.4,2.4,0,0,0-1.81-.05c-.42,1.67.18,3.26.4,4.88a28.26,28.26,0,0,0,6.34.51,76.11,76.11,0,0,0,13.58-1.18,65.76,65.76,0,0,0,22.55-8.36,43.47,43.47,0,0,0,8-5.6c.31-.3.54-.65.86-.94.15-.22.39-.36.46-.46a3.14,3.14,0,0,0-.36.39,50,50,0,0,1-10.24,8.76c-7.81,4.9-16.41,7.32-25.48,8.37a67.92,67.92,0,0,1-14.07.36A1.37,1.37,0,0,0,754.6,261.37Z"/>
      <path class="cls-2" d="M888.41,199.23a18.92,18.92,0,0,0-26.95.14c-7.5,7.85-7.36,19.43.38,26.9s19.18,7.45,27-.6A18.88,18.88,0,0,0,888.41,199.23Z"/>
      <path class="cls-2" d="M839.43,266.23c-1.61-2.56-3.13-4.9-4.59-7.28a106.64,106.64,0,0,1-8-15.06,82.55,82.55,0,0,1-4.66-16.22,74.1,74.1,0,0,1-1.32-11.09,48.73,48.73,0,0,1,4.39-23.19,40.09,40.09,0,0,1,11.37-14.22,41.42,41.42,0,0,1,14.77-7.7c1.86-.52,2.47-1.75,1.79-3.56a1.08,1.08,0,0,0-1.56-.72,48.09,48.09,0,0,0-17.36,10,46.74,46.74,0,0,0-11.6,17,49.88,49.88,0,0,0-3.91,18.27,79.53,79.53,0,0,0,1.48,14.8,83.65,83.65,0,0,0,2.63,11.13A74.4,74.4,0,0,0,829.77,254a48.81,48.81,0,0,0,6.84,9.51C837.48,264.4,838.1,265.53,839.43,266.23Z"/>
      <path class="cls-2" d="M805.45,243.53a55.54,55.54,0,0,1-11.06,7.57,68.32,68.32,0,0,1-27.85,8.11,77.43,77.43,0,0,1-10.84,0c-.52,0-1,0-1.55.05a2.57,2.57,0,0,0,.45,2.11A67.85,67.85,0,0,0,771,261a63.69,63.69,0,0,0,14.19-3.37,52.18,52.18,0,0,0,8.22-3.68,43.78,43.78,0,0,0,7.42-5.17,36.32,36.32,0,0,0,4.94-5.12Q805.71,243.43,805.45,243.53Z"/>
      <path class="cls-2" d="M753.75,254.38c15.31,4.1,31.36-2,39.59-11.52-1.62.91-3.28,1.75-4.88,2.67A69.48,69.48,0,0,1,780,249.6a49.79,49.79,0,0,1-12.67,3.66c-4.47.53-8.89.48-13.13-1.37a2.12,2.12,0,0,0-.56-.08C753.61,252.66,753.15,253.54,753.75,254.38Z"/>
      <path class="cls-10" d="M805.45,243.53l.28.17c.19-.44.93-.47.88-1.18A3.2,3.2,0,0,0,805.45,243.53Z"/>
      <path class="cls-8" d="M864.37,223.39a15.32,15.32,0,1,0,.12-21.62A15.28,15.28,0,0,0,864.37,223.39Z"/>
      <path class="cls-2" d="M885.25,204.51A12.89,12.89,0,1,0,866,221.58a12.89,12.89,0,0,0,19.28-17.07Z"/>
      <path class="cls-11" d="M877.49,213c1.2,1.4,3.64,1.7,4.87.44,1.57-1.6,1.73-3.24.21-5.13-.94-1.17-3.55-1.27-4.68-.29A3.58,3.58,0,0,0,877.49,213Z"/>
    </g>
    <path d="M936.37,242.83s-.55,0-1.45-.14-2.19-.26-3.72-.5a68.4,68.4,0,0,1-11-2.66c-1-.34-1.94-.7-2.87-1.09s-1.84-.81-2.7-1.26a24.71,24.71,0,0,1-4.41-2.87,15.43,15.43,0,0,1-1.53-1.43,13.7,13.7,0,0,1-1-1.22c-.28-.35-.45-.66-.58-.85l-.2-.3.24.28c.16.17.36.46.68.76A13.4,13.4,0,0,0,909,232.6a15,15,0,0,0,1.65,1.2,23.79,23.79,0,0,0,4.55,2.22c.87.33,1.78.62,2.72.88s1.9.49,2.87.7a65.74,65.74,0,0,0,10.8,1.23c1.48.05,2.71.05,3.57,0s1.32,0,1.32,0Z"/>
  </g>
  <g>
    <g>
      <g>
        <path class="cls-12" d="M194.42,459.15c2.11-.44,4.22-.9,6.34-1.31,1.64-.31,3.23-.79,4.83-1.26,1.25-.37,2.5-.73,3.74-1.12a73.24,73.24,0,0,0,13.4-5.75,71.89,71.89,0,0,0,9.51-6,82.87,82.87,0,0,0,6.52-5.4,74,74,0,0,0,5.43-5.43A47.11,47.11,0,0,1,248.1,429c1.62-1.51,3.34-2.91,5-4.32,3.16-2.62,6.37-5.18,9.7-7.59a87.4,87.4,0,0,1,9.49-6.31,18.33,18.33,0,0,1,5.24-2.4,4.59,4.59,0,0,1,1.73-.12c.79.15.59.87.77,1.33a100.74,100.74,0,0,0,7.31,15.47,77.3,77.3,0,0,0,9,12.73c1.3,1.45,2.63,2.87,4.05,4.2a55.64,55.64,0,0,0,4.42,3.75c1.32,1,2.76,1.83,4.12,2.76,2.5,1.7,5.37,2.56,8.11,3.67,3.8,1.55,7.69,2.86,11.49,4.4,2.69,1.09,5.36,2.2,8,3.3s5.39,2.5,8.16,3.59a3.72,3.72,0,0,1,2.2,2.71,76.67,76.67,0,0,0,5.46,13.95,7.16,7.16,0,0,1,.85,2c.21.71.89,1.21.88,2,.2.36.12.92.7,1-.19.46.24.69.38,1s.24.44.42.61q2.14,3.48,4.27,7c.93,1.5,2.12,2.83,3,4.39a1.09,1.09,0,0,0,.63.76c1.59,2,3.14,4,4.78,5.91a26.74,26.74,0,0,0,5.56,5.26,23,23,0,0,0,.39-3.24c.33-2.3.11-4.63.43-6.93a11.87,11.87,0,0,0-.28-2.69,40.27,40.27,0,0,0-.6-5.84c-.53-2.12-1.09-4.24-1.81-6.33a69.3,69.3,0,0,0-3.76-8.49,58.64,58.64,0,0,0-4.1-7.07c-1.62-2.34-3.3-4.64-5.07-6.85s-3.43-5-5.9-6.68a52.08,52.08,0,0,1-7.28-6.24,50.81,50.81,0,0,1-12.07-18.47,48.29,48.29,0,0,1-2.5-8.21c-.32-1.63-.59-3.27-.88-4.9-.13-.73-.11-1.14.95-1,1.59.25,3.11-.41,4.64-.8a.79.79,0,0,0,.84-.28,35.28,35.28,0,0,0,8.11-5.13,47.08,47.08,0,0,0,6.94-7.5,52.15,52.15,0,0,0,3.83-5.68c1.66-2.74,3.27-5.49,4.74-8.35a77.8,77.8,0,0,0,5.24-12.78,62,62,0,0,0,2.06-9.57c.56-4,.17-7.9.23-11.85a14,14,0,0,1,1.66-5.73,27.86,27.86,0,0,1,3.68-5.75,44.65,44.65,0,0,1,4.92-5.13,46.15,46.15,0,0,1,4.43-3.77c.27-.18.41-.57.66-.93-2.21,0-4.06.87-5.91,1.66a41.91,41.91,0,0,0-4.75,2.45,43.6,43.6,0,0,0-7.14,5.34,36.09,36.09,0,0,0-4.6,5,26.81,26.81,0,0,0-3.11,5.05,2.05,2.05,0,0,1-2.06,1.42,47,47,0,0,0-6.81,1c-3.1.55-6.05,1.6-9.07,2.45s-6,2.28-9,3.42a120,120,0,0,0-10.95,5.25c-3,1.49-5.92,3.1-8.87,4.64-4.51,2.36-8.82,5.09-13.16,7.74-3.66,2.23-7.07,4.81-10.56,7.28a19.67,19.67,0,0,0-1.61,1.28.74.74,0,0,1-1.27-.21,56.1,56.1,0,0,0-6.14-8.22c-1.16-1.36-2.47-2.58-3.62-3.93s-2.59-2.37-3.74-3.72a12.61,12.61,0,0,0-2.5-2c-1.41-1-2.7-2.09-4.1-3.07s-2.7-1.8-4.06-2.67a69.74,69.74,0,0,0-6.59-3.78c-2.79-1.38-5.54-2.82-8.43-4s-5.78-2.41-8.73-3.43a44.67,44.67,0,0,0-6.53-1.93c-.85-.16-1-.75-1-1.45a22.1,22.1,0,0,1,1.66-7.39,39.49,39.49,0,0,1,3.57-7.08,51.38,51.38,0,0,1,4.93-6.41,42.09,42.09,0,0,1,5.17-5.07,47.67,47.67,0,0,1,6.27-4.74c.33-.19.74-.43.67-.74s-.56-.44-1-.5c-4.28-.63-8.52-.09-12.76.46-2.73.35-5.48.64-8.18,1.21-2,.43-4.09.9-6.11,1.41-1.86.47-3.69,1-5.57,1.41a54.85,54.85,0,0,0-6.41,1.77c-4.39,1.44-8.77,2.88-13.06,4.62a93.86,93.86,0,0,0-12.39,5.8,40.44,40.44,0,0,0-10,7.84,22.07,22.07,0,0,0-3.94,6,2.51,2.51,0,0,1-2,1.69c-2.85.47-5.7,1-8.52,1.59s-5.66,1.32-8.43,2.2a95.29,95.29,0,0,0-28.4,14.75,110.58,110.58,0,0,0-11.46,10c-1.61,1.63-3.29,3.22-4.77,5s-2.89,3.31-4.27,5c-1.84,2.3-3.54,4.7-5.24,7.1-.84,1.18-1.53,2.47-2.31,3.7a11.42,11.42,0,0,1-2.75,2.63A28.82,28.82,0,0,0,89,406c-2.24,2.81-3,5.95-1.43,9.43.5,1.14,1.31,2.09,1.74,3.26a5.25,5.25,0,0,1,2-.08,32.28,32.28,0,0,0,12.27-1.9,20.69,20.69,0,0,1-7.42,1.86,29.83,29.83,0,0,1-6.2.28.54.54,0,0,0-.56.28c-.7.91-1.46,1.78-2.08,2.73-.94,1.43-.44,3.82.69,5.26,1.74,2.21,4.22,2.8,6.69,3.49,2.94.83,5.89,1.62,8.83,2.47a12.81,12.81,0,0,1,3.1,1.83c2.61,1.64,5.2,3.32,7.83,4.94,2.84,1.74,5.77,3.31,8.68,4.89a94.94,94.94,0,0,0,9.16,4.37c3.15,1.3,6.28,2.64,9.52,3.72l5.11,1.72c.51.55,1.25.47,1.89.68a1.51,1.51,0,0,1,.94.11,101.09,101.09,0,0,0,13.19,2.94c4.93.76,9.84,1.69,14.86,1.76a106.34,106.34,0,0,0,12.66-.5C191.75,459.38,193.09,459.27,194.42,459.15Z"/>
        <path class="cls-13" d="M89.35,419.12a31,31,0,0,0,7-.27,18.81,18.81,0,0,0,7.7-2.15.58.58,0,0,0,.36-.48c-2.29.57-4.5,1.27-6.79,1.67a22,22,0,0,1-7.55.26c-.54-.09-.64.18-.79.52S89.4,419,89.35,419.12Z"/>
        <path class="cls-14" d="M133.18,383.55c-8.46,2-12.58,10.89-10.71,18a15,15,0,1,0,10.71-18Z"/>
        <path class="cls-14" d="M158.66,418.78a22.19,22.19,0,0,0,4.13-3.79c.82-1,1.67-1.92,2.44-2.94.93-1.23,1.83-2.49,2.68-3.79a49.66,49.66,0,0,0,4.21-8.07A37.43,37.43,0,0,0,174.5,391a31.78,31.78,0,0,0,.28-6.92,17.45,17.45,0,0,0-2-6.21A30.58,30.58,0,0,0,164,367.16a27.14,27.14,0,0,0-7.84-4.42c-.82-.29-1.16.05-1.22.83,0,.07,0,.15,0,.22-.26,1.3.3,1.86,1.56,2.31a23.07,23.07,0,0,1,10.38,7.38A20.17,20.17,0,0,1,171.25,386a35.08,35.08,0,0,1-1.93,11.57,82.53,82.53,0,0,1-4,10.27,76.73,76.73,0,0,1-4.65,7.91C160,416.79,159.32,417.78,158.66,418.78Z"/>
        <path class="cls-8" d="M125.22,401.57c2.26,6.65,8.78,10,15.15,7.92a12.08,12.08,0,1,0-7.46-23A12,12,0,0,0,125.22,401.57Z"/>
        <path class="cls-2" d="M139.68,407.7a10.19,10.19,0,0,0,7-12.07,10.08,10.08,0,0,0-12.94-7.39,10,10,0,0,0-6.83,12.22A10.06,10.06,0,0,0,139.68,407.7Z"/>
        <path class="cls-11" d="M135.55,395.55a2.65,2.65,0,0,0-3.46-1.74,2.8,2.8,0,0,0-1.7,3.41,2.7,2.7,0,0,0,3.27,1.77A2.57,2.57,0,0,0,135.55,395.55Z"/>
      </g>
      <path class="cls-13" d="M89.7,420.21c10.1-2.47,19.78-4.43,28.68,2.4.89.68,1.76-.83.88-1.51-9.27-7.12-19.45-5.16-30-2.58-1.09.27-.63,2,.46,1.69Z"/>
      <path class="cls-13" d="M119,419.78a13.65,13.65,0,0,1-1.23,3.86c-.5,1,1,1.89,1.51.88a15.19,15.19,0,0,0,1.41-4.27c.19-1.1-1.5-1.57-1.69-.46Z"/>
    </g>
    <path class="cls-15" d="M122.51,400.63s14-9.17,29.44-5.89c0,0-2.26-13.78-16.52-11.84S122.51,400.63,122.51,400.63Z"/>
    <g>
      <path class="cls-16" d="M226.68,391.65a19.87,19.87,0,0,0-7.64-3.7c-2.16-.46-4.18.28-6.14,1a81.55,81.55,0,0,0-18.15,9.67,38.47,38.47,0,0,0-8.77,8.66,11.58,11.58,0,0,0-1.84,6.43c-.19,3.19.79,4.87,3.65,6.34a25.57,25.57,0,0,0,13.65,2.42c4.72-.3,8.94-2.19,12.93-4.66a58.24,58.24,0,0,0,9.59-7.8c2.21-2.12,4.14-4.46,6.11-6.78.74-.86,1.51-1.69,2.21-2.59a1.53,1.53,0,0,0,.23-1.89c-.29-.52-.56-1-.84-1.56-.54,0-.76.42-1,.76a58.85,58.85,0,0,1-12,11.2,42.6,42.6,0,0,1-16.35,7.28,32.49,32.49,0,0,1-7.06.65,42.25,42.25,0,0,0,12-3.13,55.29,55.29,0,0,0,17.55-11.37,56.2,56.2,0,0,0,5.46-6,1.54,1.54,0,0,0,.48-.86c-.61-.69-1.25-1.35-1.8-2.07A2.24,2.24,0,0,0,228,393a10,10,0,0,0-2.07,2.84,27.11,27.11,0,0,1-5.18,5.77,31.4,31.4,0,0,1-9,5.6,32.5,32.5,0,0,1-7.07,1.92,26.29,26.29,0,0,1-3.79.48,28,28,0,0,0,4.86-1.45,57.3,57.3,0,0,0,11.7-5.67c3.76-2.49,7-5.46,8.87-9.71A4.31,4.31,0,0,0,226.68,391.65Z"/>
      <path class="cls-17" d="M230.66,395.75a12.79,12.79,0,0,0-1.91,2.15,53.59,53.59,0,0,1-11.56,10.42A51.86,51.86,0,0,1,205,414.49a56,56,0,0,1-9.77,2.41,4.76,4.76,0,0,0-1,.26,17.89,17.89,0,0,0,6.22-.08,40.1,40.1,0,0,0,6.41-1.5,49.22,49.22,0,0,0,7.13-3.09,57.12,57.12,0,0,0,11.54-8.43,60.34,60.34,0,0,0,6.24-6.83A2.91,2.91,0,0,0,230.66,395.75Z"/>
      <path class="cls-17" d="M226.68,391.65c-.55.13-.54.7-.68,1a19.37,19.37,0,0,1-5.59,7.19,42.43,42.43,0,0,1-9.76,5.9A77.63,77.63,0,0,1,200,409.65c8.89.73,22.26-5.35,28-16.63C227.88,392.26,227.28,392,226.68,391.65Z"/>
    </g>
  </g>
</svg>
