<svg id="Layer_3" data-name="Layer 3" xmlns="http://www.w3.org/2000/svg" xmlns:xlink="http://www.w3.org/1999/xlink" viewBox="0 0 1920 1080">
  <defs>
    <style>
      .cls-1, .cls-3 {
        fill: none;
      }

      .cls-2 {
        clip-path: url(#clip-path);
      }

      .cls-3 {
        stroke: #2bb673;
        stroke-linecap: round;
        stroke-linejoin: round;
        stroke-width: 4.51px;
      }

      .cls-4 {
        fill: #f8af3c;
      }

      .cls-5 {
        fill: #ee2a7b;
      }

      .cls-6 {
        fill: #fff200;
      }

      .cls-7 {
        fill: #2bb673;
      }
    </style>
    <clipPath id="clip-path">
      <rect class="cls-1" width="1920" height="1080"/>
    </clipPath>
  </defs>
  <title>PinkFlower-head_spins-3</title>
  <g class="cls-2">
    <g>
      <path class="cls-3" d="M1544.15,940.56s-45.79,25.69-25.69,150.8"/>
      <g>
        <path class="cls-4" d="M1521.54,930.15c0-11.88,10.62-22.23,22.77-22.14,11.9.09,21.56,10.14,21.57,22.42A21.51,21.51,0,0,1,1544,952.29C1531.4,952.26,1521.57,942.57,1521.54,930.15Zm4.49.65a17.75,17.75,0,0,0,18.36,17.79,18.33,18.33,0,0,0,17.75-18.74c-.22-9.25-8.87-18.74-18.8-17.43C1532.58,912.45,1526,919.46,1526,930.8Z"/>
        <path class="cls-5" d="M1497.72,918c2.62-6,7.13-9.58,13.9-9.41,2.51.07,3.48-.48,2.86-3.11-2.71-11.49-2.14-12.81,8.17-20,8.32-2.14,15.21-.48,19.72,8.27,2.66-5,4.38-9.79,10.26-10.9,7.26-1.37,14,1.62,19.43,9.38,1,4.75.89,9.31-2.83,13.42,3.18-.62,5.73-2.26,8.82-2.31,3.31,0,5.82,1.54,8.16,3.25,2.6,1.9,3.9,4.93,4.87,8,3,9.57-.19,15.41-10.74,18.84,2.41,2.85,5.72,4.76,7.14,8.19,1.87,8.42-.59,15.24-7.24,19.62-7,4.6-12.51,1.42-17.77-4.33,1.69,12.1-2.1,18.57-11.41,20.41a15.73,15.73,0,0,1-13.71-3.34c-3.93-3.3-3.77-8.35-4.3-13.26-8.3,7.75-14.75,8.65-21.84,3.24a16.29,16.29,0,0,1-5.84-9.35c-1.62-6.56,2-11.16,6.94-15.3-2.89-1.06-4.88-1.27-6.94-.79C1496.46,930.68,1494.44,925.49,1497.72,918Zm60.41,27.12c8.45-7.92,9.14-21.05,1.53-29.29-7.77-8.42-21.75-9.07-29.91-1.39a20.84,20.84,0,0,0-.75,29.74A20.29,20.29,0,0,0,1558.13,945.09Z"/>
        <path class="cls-6" d="M1543.34,912.42c-10.76,0-17.36,7-17.31,18.38a17.75,17.75,0,0,0,18.36,17.79,18.33,18.33,0,0,0,17.75-18.74C1561.92,920.6,1553.27,911.11,1543.34,912.42Z"/>
      </g>
      <path class="cls-7" d="M1509.19,987.54c-6.88-6.73-31.71-13.77-35.28-10.11s4,28.32,10.91,35.05,18.23,11.59,27.31,2.31S1516.08,994.27,1509.19,987.54Z"/>
      <path class="cls-7" d="M1518,1004.36c4.72-4.61,21.73-9.43,24.18-6.93s-2.76,19.41-7.48,24-12.49,7.94-18.71,1.58S1513.27,1009,1518,1004.36Z"/>
    </g>
  </g>
</svg>
