<svg id="Layer_2" data-name="Layer 2" xmlns="http://www.w3.org/2000/svg" xmlns:xlink="http://www.w3.org/1999/xlink" viewBox="0 0 1920 1080">
  <defs>
    <style>
      .cls-1, .cls-3 {
        fill: none;
      }

      .cls-2 {
        clip-path: url(#clip-path);
      }

      .cls-3 {
        stroke: #2bb673;
        stroke-linecap: round;
        stroke-linejoin: round;
        stroke-width: 4.51px;
      }

      .cls-4 {
        fill: #f8af3c;
      }

      .cls-5 {
        fill: #ee2a7b;
      }

      .cls-6 {
        fill: #fff200;
      }

      .cls-7 {
        fill: #2bb673;
      }
    </style>
    <clipPath id="clip-path">
      <rect class="cls-1" width="1920" height="1080"/>
    </clipPath>
  </defs>
  <title>PinkFlower-head_spins-2</title>
  <g class="cls-2">
    <g>
      <path class="cls-3" d="M1544.15,940.56s-45.79,25.69-25.69,150.8"/>
      <g>
        <path class="cls-4" d="M1521.91,930.15c0-11.69,10.44-21.86,22.39-21.77,11.7.08,21.21,10,21.21,22a21.17,21.17,0,0,1-21.49,21.5C1531.6,951.89,1521.93,942.37,1521.91,930.15Zm4.12.65a17.75,17.75,0,0,0,18.36,17.79,18.33,18.33,0,0,0,17.75-18.74c-.22-9.25-8.87-18.74-18.8-17.43C1532.58,912.45,1526,919.46,1526,930.8Z"/>
        <path class="cls-5" d="M1496.91,938.82c-.12-6.53,2.48-11.68,8.71-14.35,2.31-1,3-1.89,1.29-4-7.25-9.31-7.29-10.75-.93-21.61,6.67-5.42,13.62-6.78,21.37-.71.34-5.63-.11-10.74,4.77-14.2,6-4.27,13.37-4.35,21.58.42,2.84,3.93,4.69,8.09,3,13.38,2.63-1.89,4.27-4.45,7.06-5.78,3-1.43,5.93-1,8.77-.45,3.16.63,5.6,2.84,7.77,5.23,6.74,7.44,6.25,14.08-1.9,21.6,3.37,1.59,7.18,1.94,9.9,4.46,5.22,6.87,5.83,14.1,1.61,20.86-4.42,7.09-10.77,6.51-18,3.48,6.59,10.29,5.85,17.76-1.84,23.31a15.74,15.74,0,0,1-13.85,2.69c-5-1.36-6.92-6-9.45-10.25-4.31,10.5-9.8,14-18.49,12a16.26,16.26,0,0,1-9.21-6c-4.21-5.29-2.86-11-.08-16.81-3.06.25-5,.88-6.63,2.18C1501.06,950.9,1497.07,947,1496.91,938.82Zm66.22-.57c4.37-10.71-.49-22.93-10.84-27.25-10.57-4.41-23.55.84-27.76,11.22a20.84,20.84,0,0,0,11.73,27.34A20.3,20.3,0,0,0,1563.13,938.25Z"/>
        <path class="cls-6" d="M1543.34,912.42c-10.76,0-17.36,7-17.31,18.38a17.75,17.75,0,0,0,18.36,17.79,18.33,18.33,0,0,0,17.75-18.74C1561.92,920.6,1553.27,911.11,1543.34,912.42Z"/>
      </g>
      <path class="cls-7" d="M1509.19,987.54c-6.88-6.73-31.71-13.77-35.28-10.11s4,28.32,10.91,35.05,18.23,11.59,27.31,2.31S1516.08,994.27,1509.19,987.54Z"/>
      <path class="cls-7" d="M1518,1004.36c4.72-4.61,21.73-9.43,24.18-6.93s-2.76,19.41-7.48,24-12.49,7.94-18.71,1.58S1513.27,1009,1518,1004.36Z"/>
    </g>
  </g>
</svg>
