<svg id="Layer_6" data-name="Layer 6" xmlns="http://www.w3.org/2000/svg" xmlns:xlink="http://www.w3.org/1999/xlink" viewBox="0 0 1920 1080">
  <defs>
    <style>
      .cls-1, .cls-3 {
        fill: none;
      }

      .cls-2 {
        clip-path: url(#clip-path);
      }

      .cls-3 {
        stroke: #2bb673;
        stroke-linecap: round;
        stroke-linejoin: round;
        stroke-width: 4.51px;
      }

      .cls-4 {
        fill: #ee2a7b;
      }

      .cls-5 {
        fill: #f8af3c;
      }

      .cls-6 {
        fill: #fff200;
      }

      .cls-7 {
        fill: #2bb673;
      }
    </style>
    <clipPath id="clip-path">
      <rect class="cls-1" width="1920" height="1080"/>
    </clipPath>
  </defs>
  <title>PinkFlower-head_spins-4</title>
  <g class="cls-2">
    <g>
      <path class="cls-3" d="M1544.15,940.56s-45.79,25.69-25.69,150.8"/>
      <g>
        <path class="cls-4" d="M1547.69,882.15c6.37,1.49,10.71,5.28,11.77,12,.39,2.49,1.1,3.33,3.57,2.25,10.81-4.74,12.22-4.42,21.18,4.43,3.61,7.79,3.21,14.87-4.58,20.88,5.37,1.72,10.43,2.54,12.58,8.12,2.66,6.9.93,14-5.72,20.81-4.51,1.79-9,2.55-13.71-.37,1.18,3,3.25,5.23,3.86,8.27.65,3.24-.46,6-1.72,8.61-1.4,2.9-4.14,4.73-7,6.23-8.87,4.71-15.19,2.6-20.47-7.16-2.37,2.88-3.65,6.48-6.76,8.5-8,3.36-15.1,2.17-20.61-3.58-5.78-6-3.66-12.05,1.05-18.26-11.59,3.85-18.65,1.29-22.14-7.54a15.75,15.75,0,0,1,.81-14.09c2.54-4.46,7.53-5.21,12.27-6.62-9.12-6.76-11.17-13-7.13-20.9a16.33,16.33,0,0,1,8.14-7.43c6.16-2.77,11.34-.06,16.31,4.06.52-3,.37-5-.48-7C1535,883.2,1539.7,880.28,1547.69,882.15Zm-15.77,64.31c9.31,6.88,22.35,5.19,29.09-3.78,6.87-9.16,5-23-4-29.67-9.43-7-22.28-4.92-29.39,4.63A20.29,20.29,0,0,0,1531.92,946.46Z"/>
        <path class="cls-5" d="M1540.09,908.23c11.45-2.12,23.3,6.3,25.35,18,2,11.47-6,22.56-17.78,24.73a21.07,21.07,0,0,1-24.92-17.18C1520.55,921.63,1528.14,910.45,1540.09,908.23Zm.09,4.08A17.74,17.74,0,0,0,1526,933.57a18.34,18.34,0,0,0,21.64,14.09c9-1.89,16.82-12.11,13.74-21.64C1559.42,915.44,1551.33,910.21,1540.18,912.31Z"/>
        <path class="cls-6" d="M1561.38,926c-2-10.58-10.05-15.81-21.2-13.71A17.74,17.74,0,0,0,1526,933.57a18.34,18.34,0,0,0,21.64,14.09C1556.69,945.77,1564.46,935.55,1561.38,926Z"/>
      </g>
      <path class="cls-7" d="M1509.19,987.54c-6.88-6.73-31.71-13.77-35.28-10.11s4,28.32,10.91,35.05,18.23,11.59,27.31,2.31S1516.08,994.27,1509.19,987.54Z"/>
      <path class="cls-7" d="M1518,1004.36c4.72-4.61,21.73-9.43,24.18-6.93s-2.76,19.41-7.48,24-12.49,7.94-18.71,1.58S1513.27,1009,1518,1004.36Z"/>
    </g>
  </g>
</svg>
