<svg id="Layer_1" data-name="Layer 1" xmlns="http://www.w3.org/2000/svg" viewBox="0 0 153.75 273.77">
  <defs>
    <style>
      .cls-1 {
        fill: none;
        stroke: #2bb673;
        stroke-linecap: round;
        stroke-linejoin: round;
        stroke-width: 9.11px;
      }

      .cls-2 {
        fill: #ee2a7b;
      }

      .cls-3 {
        fill: #f8af3c;
      }

      .cls-4 {
        fill: #fff200;
      }

      .cls-5 {
        fill: #2bb673;
      }
    </style>
  </defs>
  <title>PinkFlower</title>
  <g>
    <path class="cls-1" d="M1723.62,981.47s59.29,33.26,33.26,195.21" transform="translate(-1661.99 -907.47)"/>
    <g>
      <path class="cls-2" d="M1750.1,1012.32c-1.36-2.37-3.33-4.07-6.88-5.86.47,8.35-.69,15.82-8.32,20.11a21.08,21.08,0,0,1-14,2.75c-11.38-1.91-16.24-8.81-16.27-23.5-5.11,3.85-9.73,8.47-16.33,7.67a20.37,20.37,0,0,1-15.29-10c-6.5-10.43-3.74-19.74,9.19-28.85-10.09.12-18-2.3-19.82-12.95-1.75-10.17,2.52-18.53,12.13-24.22,4.5-1.69,9.23-.25,14-.5-6.09-13-3.42-21.2,8.3-26.82,3.76-1.8,7.77-3.25,11.86-2.48,3.69.7,7.42,1.66,10.29,4.84,2.7,3,3.41,6.83,5.64,10.38.58-7.15,4.83-11.24,10.16-14.55,12.17-1.71,20.93,2,26.07,10,4.15,6.53,1.12,12.43-1.23,19.34,12.26-3.48,19.93,1.55,25.27,11.31,2.31,16.13,1.56,17.84-11.69,25.45-3,1.74-2.7,3.14-.42,5.45,6.17,6.25,6.76,13.69,3.42,21.46C1772,1011.17,1765.35,1013.85,1750.1,1012.32ZM1723.81,995c15.41,0,27.42-11.86,27.44-27,0-14.51-13-27.14-27.79-27-14.51.11-26.31,12.38-26.32,27.37A26.25,26.25,0,0,0,1723.81,995Z" transform="translate(-1661.99 -907.47)"/>
      <path class="cls-3" d="M1723.81,995a26.25,26.25,0,0,1-26.67-26.68c0-15,11.81-27.26,26.32-27.37,14.83-.11,27.82,12.52,27.79,27C1751.23,983.16,1739.22,995,1723.81,995Zm.87-50c-12.86-1.7-24.06,10.59-24.35,22.55-.31,13.1,10.3,24.11,23,24.26,13.32.16,23.71-9.91,23.77-23C1747.15,954.16,1738.6,945.08,1724.68,945.05Z" transform="translate(-1661.99 -907.47)"/>
      <path class="cls-4" d="M1724.68,945.05c13.92,0,22.47,9.11,22.41,23.79-.06,13.11-10.45,23.18-23.77,23-12.69-.15-23.3-11.16-23-24.26C1700.62,955.64,1711.82,943.35,1724.68,945.05Z" transform="translate(-1661.99 -907.47)"/>
    </g>
    <path class="cls-5" d="M1768.88,1042.29c8.91-8.71,41-17.82,45.68-13.09s-5.21,36.66-14.13,45.37-23.6,15-35.35,3S1760,1051,1768.88,1042.29Z" transform="translate(-1661.99 -907.47)"/>
    <path class="cls-5" d="M1757.49,1064.07c-6.1-6-28.13-12.21-31.3-9s3.57,25.11,9.68,31.08,16.17,10.29,24.22,2S1763.6,1070,1757.49,1064.07Z" transform="translate(-1661.99 -907.47)"/>
  </g>
</svg>
