<svg id="Layer_1" data-name="Layer 1" xmlns="http://www.w3.org/2000/svg" viewBox="0 0 1024 600"><defs><style>.cls-1{fill:#cff6f9;}</style></defs><title>7_clouds</title><path class="cls-1" d="M926.5,156.5c0-1.21,0-2.43-.13-3.66a57.51,57.51,0,0,0-103.63-30.2,62.76,62.76,0,1,0-100.51,74.91,39,39,0,1,0,16.82,69.4,39,39,0,0,0,57.3,11.34A58.8,58.8,0,0,0,888.3,264.6a57.52,57.52,0,1,0,38.2-108.1Z"/><path class="cls-1" d="M381.13,146.64c0-1.6-.05-3.21-.17-4.84a76.05,76.05,0,0,0-137-39.94A83,83,0,1,0,111,200.93a51.6,51.6,0,1,0,22.25,91.78,51.58,51.58,0,0,0,75.78,15A77.77,77.77,0,0,0,330.6,289.6a76.07,76.07,0,1,0,50.52-143Z"/></svg>