<svg id="Layer_1" data-name="Layer 1" xmlns="http://www.w3.org/2000/svg" xmlns:xlink="http://www.w3.org/1999/xlink" viewBox="0 0 1024 600"><defs><style>.cls-1{fill:none;}.cls-2{clip-path:url(#clip-path);}.cls-3{fill:#d7f3ff;}.cls-4{fill:#00c200;}.cls-5{fill:#00b800;}.cls-6{fill:#00b100;}.cls-7{fill:#00cb00;}.cls-8{fill:#00a600;}.cls-9{fill:#29b473;}.cls-10{fill:#009345;}.cls-11{fill:#8bc53f;}.cls-12{fill:#aa7e52;}.cls-13{fill:#c69c6d;}.cls-14{fill:#9cce4d;}.cls-15{fill:#d0ba92;}.cls-16{fill:#e6d0a7;}.cls-17{fill:#cea174;}.cls-18{fill:#ba7a45;}.cls-19{fill:#dba77b;}.cls-20{fill:#0c0a0a;}.cls-21{fill:#995b29;}.cls-22{fill:#784c2b;}.cls-23{fill:#6f421d;}.cls-24{fill:#060505;}.cls-25{fill:#f8f6f3;}.cls-26{fill:#532f26;}.cls-27{fill:#080707;}.cls-28{fill:#f7f6f5;}.cls-29{fill:#a36737;}.cls-30{fill:#a26535;}.cls-31{fill:#a46838;}.cls-32{fill:#478cca;}.cls-33{fill:#488dcb;}.cls-34{fill:#d02228;}.cls-35{fill:#2eae4a;}.cls-36{fill:#f9e200;}.cls-37{fill:#489d1f;}.cls-38{fill:#219d1f;}.cls-39{fill:#15a813;}.cls-40{fill:#3b7e1c;}.cls-41{fill:#03b900;}.cls-42{fill:#338b31;}.cls-43{fill:#40a112;}.cls-44{fill:#549a32;}.cls-45{fill:#348c32;}.cls-46{fill:#5cce5c;}.cls-47{fill:#80b173;}.cls-48{fill:#7dbc66;}.cls-49{fill:#a6d6a1;}.cls-50{fill:#84bb72;}.cls-51{fill:#80ba80;}.cls-52{fill:#3fb53f;}.cls-53{fill:#83cf84;}</style><clipPath id="clip-path"><rect id="SVGID" class="cls-1" width="1024" height="600"/></clipPath></defs><title>8_Akili_3_way</title><g class="cls-2"><rect class="cls-3" width="1024" height="367.48"/><path class="cls-4" d="M464.44,146.94a7.17,7.17,0,0,0,1.8-1,17.45,17.45,0,0,1,13.26-3.66c.49.07.69-.05.85-.49a22.48,22.48,0,0,1,1.7-3.74c4.88-8.67,14.1-12,23.43-8.53a21.21,21.21,0,0,1,6.69,3.94,15,15,0,0,1,4.78,7.41,27.55,27.55,0,0,1,3.79-2.54c5.49-2.78,11-3,16,.84s6.38,9.23,5,15.3c-.22,1,0,1.08.88,1.09a27.57,27.57,0,0,1,10.5,2,16.94,16.94,0,0,1,10.17,18.91,24.51,24.51,0,0,1-4.38,10.4c-.46.62-.32.87.22,1.31,4.07,3.24,7,7.24,7.73,12.52a14.31,14.31,0,0,1-.3,6.07c-.38.12-.61-.13-.83-.34A9.31,9.31,0,0,0,557,204c-2.07.39-1.91.43-2.36-1.63-1.26-5.79-5.09-9.59-10.69-10.6a10.25,10.25,0,0,0-4.2.12,16.9,16.9,0,0,0-8.17,3.95,10.39,10.39,0,0,0-3,10.73c.44,1.78.46,1.8-1.11,2.6-5.13,2.62-7.42,7-7.77,12.55-.1,1.43-.07,1.49-1.38,1.83a18.33,18.33,0,0,0-8.55,5,1.4,1.4,0,0,1-2.15.22,29.76,29.76,0,0,1-12.32-11.37,19.72,19.72,0,0,1-1.93-4.45,1.17,1.17,0,0,0-1.55-.95,5.06,5.06,0,0,1-3.1-.13c-.07-.54.3-.92.54-1.34a9.72,9.72,0,0,0-1.45-11.79,16.87,16.87,0,0,0-2.65-2.41,8.34,8.34,0,0,0-10,.07c-.29.2-.57.41-.85.63a1,1,0,0,1-1.41-.09c-3.53-3.17-7.54-3.46-11.83-1.9a1.38,1.38,0,0,1-1.82-.51,14.88,14.88,0,0,0-11.67-5.64,2.27,2.27,0,0,1-1.33-.22c0-1.46-.65-2.79-.78-4.22a18.14,18.14,0,0,1,4.66-14.39,20.87,20.87,0,0,1,10.26-6.14c1.13-.32,1.13-.34.78-1.44a16,16,0,0,1-.54-8.91,13.54,13.54,0,0,1,3.13-5.79C464,147.52,464.36,147.32,464.44,146.94Z"/><path class="cls-5" d="M508.87,229a24.72,24.72,0,0,1,6-4.46,19.76,19.76,0,0,1,3.87-1.36.88.88,0,0,0,.77-1,15.39,15.39,0,0,1,3.11-9.41,14,14,0,0,1,5.19-4c.81-.37,1-.66.75-1.56a10.63,10.63,0,0,1,3.1-11.77,16.83,16.83,0,0,1,8.31-3.83A12.83,12.83,0,0,1,554.54,201a17.5,17.5,0,0,1,.57,2.24c.09.64.22.79.91.63a11,11,0,0,1,7.38.52,16.29,16.29,0,0,1,3.18,2.38,12.59,12.59,0,0,1,2.91,9.92c-.22,1.36.21,1.82,1.28,2.41,3.72,2,6.34,5,7.1,9.32,1.32,7.57-4.12,14.78-9.4,15.78-.77.14-.43.48-.2.85,1.73,2.82,2.62,5.83,1.79,9.15-1.38,5.56-7.09,8.64-12.83,7a2.64,2.64,0,0,1-.4-.12c-.71-.36-1-.27-1.07.65a17.83,17.83,0,0,1-1.3,5.41c-2.72,6.76-9.21,9.66-16.15,7.2a13.81,13.81,0,0,1-4.5-2.45c-.23-.21-.59,0-.79-.21-.84-.84-1.38-.3-2,.32-5.26,5.24-13,5.39-18.26.16a13,13,0,0,1-3.44-14c.11-.37.25-.73.37-1.1a14.94,14.94,0,0,1,1.79-3c.5-.6.45-1-.26-1.38a16.89,16.89,0,0,1-4.82-3.88,12.57,12.57,0,0,1-2.24-11.92A20,20,0,0,1,508,229.7,3.1,3.1,0,0,1,508.87,229Z"/><path class="cls-5" d="M464.44,146.94c.82.32,0,.55-.09.66a13.71,13.71,0,0,0-2.47,3.52,14,14,0,0,0-.79,9.81,7.29,7.29,0,0,0,.54,1.81c.54,1,.09,1.15-.75,1.36-5.51,1.4-10,4.34-12.82,9.35a16.77,16.77,0,0,0-1.48,14.17.78.78,0,0,1-.27,1c-.39.38-.92.33-1.39.42-4.85,1-7.73,4.09-8.25,9,0,.21,0,.42-.06.63-.17.94-.41,1.14-1.36.93a11.25,11.25,0,0,0-6.14.28,10.28,10.28,0,0,0-6.2,13c.19.51.57,1,.37,1.6a1.16,1.16,0,0,1-.9.22c-3.09-.24-6.05-.91-8.48-3a2.93,2.93,0,0,1-1-1.28c-3.84-4.34-4.4-9.26-2.59-14.59.2-.57.21-.82-.47-1-9.8-2.31-9.87-13-5.5-18.29a1.24,1.24,0,0,0,0-1.83c-2.76-4.22-3.74-8.7-1.57-13.49a14.79,14.79,0,0,1,13.51-8.51,20,20,0,0,1,2.55.44c-.25-5.56,1.19-10.28,6.9-12.33,4.61-1.66,8.45.08,11.69,3.62.38-.51.74-1,1.12-1.51,2.33-3,5.08-5.4,8.88-6.26a11.76,11.76,0,0,1,9.87,2.21,15.67,15.67,0,0,1,5.47,7.21C463.12,147,463.52,147.31,464.44,146.94Z"/><path class="cls-6" d="M412.85,210.35c.61.51,1.2,1.06,1.84,1.53a14.27,14.27,0,0,0,8.58,2.51c.46-.06.59.32.79.58a11.27,11.27,0,0,0,4.65,3.54c1.2.5,1.25.61,1,1.92A12.81,12.81,0,0,0,430,228a9.32,9.32,0,0,0,10.53,5.88c1-.16,1.93-.4,2.89-.61s1.17,0,1.31,1c.52,3.86,2.86,6.42,6.67,7,2.84.42,5.11-.87,7-2.89l.26-.34c1.27-1.65,1.6-1.62,2.66.26.58,3.74-1.51,6.82-4.76,8.93a7.11,7.11,0,0,1-2.41,1c-.71.14-.95.54-1,1.24a13.29,13.29,0,0,1-1.24,4.55c-1.86,3.94-6.49,5.9-10.3,5.66a1.21,1.21,0,0,1-.78-.27c-.95-.25-1.92-.45-2.84-.77a8.66,8.66,0,0,1-4.27-3.17c-.52.62-1,1.29-1.54,1.86-2.37,2.43-5.2,3.55-8.52,2.45s-5.07-3.64-5.44-7.1c-.07-.74-.32-.73-.93-.55a13.69,13.69,0,0,1-7.18.44,9.59,9.59,0,0,1-7.3-8.91,12.38,12.38,0,0,1,.47-4.81c.27-.82.12-1.12-.68-1.44a10,10,0,0,1-6.41-6.79,10.5,10.5,0,0,1,11.38-12.94c.79.11,1.79.62,2.31.31s.29-1.5.45-2.28A11.1,11.1,0,0,1,412.85,210.35Z"/><path class="cls-4" d="M440.8,259.41a12.75,12.75,0,0,0,6.82-1.38,9.84,9.84,0,0,0,5-7.25,1.61,1.61,0,0,0,0-.31c0-1.51.56-2.29,2.21-2.86a9.09,9.09,0,0,0,6.14-6.82,15.14,15.14,0,0,0,.1-2.52.69.69,0,0,1,.68.18,11.92,11.92,0,0,0,8,2,1.44,1.44,0,0,1,.62,0,1.14,1.14,0,0,1,.3.77c.87,6.05,6.81,9.45,12.62,7.92.58-.15,1.14-.35,1.72-.51a.76.76,0,0,1,1.08.66c0,.21.09.41.13.62.9,5.44,4.25,8.86,9.23,10.7s9.33.68,13.17-2.83c.37-.34.63-.89,1.28-.79a15.77,15.77,0,0,0-1.06,5.64,13.07,13.07,0,0,0,3.21,8.26,12.81,12.81,0,0,0,7.9,4.57,12.16,12.16,0,0,0,7.62-1.36,12.74,12.74,0,0,0,3.79-3c.49-.55.92-.76,1.4,0,.25.37.72.41,1,.7-.36-.16-.59.07-.84.26-5,3.76-10.64,5-16.71,4.72A26.83,26.83,0,0,1,502,272.32c-.41-.28-.81-.57-1.19-.88-1.45-1.16-1.44-1.15-3-.07-6.54,4.49-13.45,5.66-20.84,2.22-.73-.34-1.49-1.09-2.12-1s-.92,1.15-1.41,1.74c-3.22,3.92-7.22,6.34-12.43,6.36a16.59,16.59,0,0,1-6.17-1.26,26.46,26.46,0,0,1-8.48-5.25A17.37,17.37,0,0,1,440.8,259.41Z"/><path class="cls-7" d="M470.41,240.6a11.12,11.12,0,0,1-8.89-2l-.41-.31c-1.23-1.53-1.2-1.51-2.33,0-1.78,2.35-5.39,4-8.48,3.07a8,8,0,0,1-5.88-7.16c0-.7-.26-.82-.91-.65a14.65,14.65,0,0,1-6.74.55,9.43,9.43,0,0,1-7.58-7.65,14.48,14.48,0,0,1,.3-6.45c.15-.54.13-.82-.46-1a11.7,11.7,0,0,1-5.76-4.55,10.52,10.52,0,0,1,11.8-15.13c1.18.28,1.25.22,1.31-1.07a10,10,0,0,1,9.93-9.59,16.32,16.32,0,0,1,11.25,3.62,8.23,8.23,0,0,1,2.06,2.23c.45.76.89.52,1.47.3a11.45,11.45,0,0,1,9.58.23,8.13,8.13,0,0,1,2.48,1.76c.32.36.54.49,1,.09a9.71,9.71,0,0,1,5.9-2.44,6.83,6.83,0,0,1,3.65.77c3.67,2,6.47,4.74,7.13,9.07a10.15,10.15,0,0,1-2,7.62c-.37,1.35-1.56,2-2.55,2.69-.68.5-.7.79-.23,1.46a8,8,0,0,1-.93,10.65,10.32,10.32,0,0,1-4.87,3c-.69.18-.82.6-.88,1.23a10.67,10.67,0,0,1-4.39,8.18,10,10,0,0,1-3.43,1.59C471.15,240.74,470.76,240.9,470.41,240.6Z"/><path class="cls-8" d="M470.41,240.6a9.83,9.83,0,0,0,8.42-8.35c.24-1.64.51-2.71,2.46-3.35a8.68,8.68,0,0,0,5.88-6.62,7.61,7.61,0,0,0-1.68-6.59c-.44-.56-.34-.74.19-1.07a12.84,12.84,0,0,0,3.11-2.77,16,16,0,0,0,3.46-.19c.65-.16,1.09.06,1.31.82a24.39,24.39,0,0,0,8,11.84,31.84,31.84,0,0,0,6.45,4.31,9.4,9.4,0,0,0,.88.34,21,21,0,0,0-4.69,8.94c-1,5,.28,9.26,4.3,12.58a17.74,17.74,0,0,0,3.31,2.22c.63.31.67.63.24,1.11a17.43,17.43,0,0,0-2.1,3.26c-.82.55-1.45,1.32-2.21,1.94a13,13,0,0,1-15.16.64,13.71,13.71,0,0,1-6.38-8.39c-.2-.79.1-2-.64-2.28-.58-.25-1.5.33-2.28.52a10.3,10.3,0,0,1-11.36-4.16A8.69,8.69,0,0,1,470.41,240.6Z"/><path class="cls-4" d="M328,137.94a7.17,7.17,0,0,0,1.8-1A17.45,17.45,0,0,1,343,133.25c.49.07.69-.05.85-.49a22.48,22.48,0,0,1,1.7-3.74c4.88-8.67,14.1-12,23.43-8.53a21.4,21.4,0,0,1,6.69,3.94,15,15,0,0,1,4.78,7.41,27.55,27.55,0,0,1,3.79-2.54c5.49-2.78,10.95-3,16,.84s6.38,9.23,5,15.3c-.22,1,0,1.08.88,1.09a27.57,27.57,0,0,1,10.5,2,16.94,16.94,0,0,1,10.17,18.91,24.51,24.51,0,0,1-4.38,10.4c-.46.62-.32.87.22,1.31,4.07,3.24,7,7.24,7.73,12.52a14.31,14.31,0,0,1-.3,6.07c-.38.12-.61-.13-.83-.34A9.31,9.31,0,0,0,420.5,195c-2.07.39-1.91.43-2.36-1.63-1.26-5.79-5.09-9.59-10.69-10.6a10.25,10.25,0,0,0-4.2.12,16.9,16.9,0,0,0-8.17,3.95,10.39,10.39,0,0,0-3,10.73c.44,1.78.46,1.8-1.11,2.6-5.13,2.62-7.42,7-7.77,12.55-.1,1.43-.07,1.49-1.38,1.83a18.33,18.33,0,0,0-8.55,5,1.4,1.4,0,0,1-2.15.22,29.76,29.76,0,0,1-12.32-11.37,19.72,19.72,0,0,1-1.93-4.45,1.17,1.17,0,0,0-1.55-.95,5.06,5.06,0,0,1-3.1-.13c-.07-.54.3-.92.54-1.34a9.72,9.72,0,0,0-1.45-11.79,16.87,16.87,0,0,0-2.65-2.41,8.34,8.34,0,0,0-10,.07c-.29.2-.57.41-.85.63a1,1,0,0,1-1.41-.08c-3.53-3.18-7.54-3.47-11.83-1.91a1.38,1.38,0,0,1-1.82-.51,14.88,14.88,0,0,0-11.67-5.64,2.27,2.27,0,0,1-1.33-.22c0-1.46-.65-2.79-.78-4.22a18.14,18.14,0,0,1,4.66-14.39A20.88,20.88,0,0,1,324,154.91c1.14-.32,1.14-.34.79-1.43a16,16,0,0,1-.54-8.92,13.63,13.63,0,0,1,3.12-5.79C327.55,138.52,327.87,138.32,328,137.94Z"/><path class="cls-5" d="M372.38,220a24.72,24.72,0,0,1,5.95-4.46,19.76,19.76,0,0,1,3.87-1.36c.59-.15.75-.41.77-1a15.39,15.39,0,0,1,3.11-9.41,14,14,0,0,1,5.19-4c.81-.37,1-.66.75-1.56a10.63,10.63,0,0,1,3.1-11.77,16.83,16.83,0,0,1,8.31-3.83A12.83,12.83,0,0,1,418.05,192a17.94,17.94,0,0,1,.57,2.24c.09.64.22.79.91.63a11,11,0,0,1,7.38.52,16.7,16.7,0,0,1,3.18,2.38A12.59,12.59,0,0,1,433,207.7c-.22,1.37.21,1.82,1.28,2.41,3.72,2,6.34,5,7.1,9.32,1.32,7.57-4.12,14.78-9.4,15.78-.77.15-.43.48-.2.85,1.73,2.83,2.62,5.83,1.79,9.15-1.39,5.56-7.09,8.65-12.83,7a1.85,1.85,0,0,1-.4-.12c-.71-.36-1-.27-1.07.65a18.13,18.13,0,0,1-1.3,5.41c-2.72,6.76-9.21,9.66-16.15,7.2a13.81,13.81,0,0,1-4.5-2.45c-.23-.21-.59,0-.79-.21-.84-.84-1.38-.3-2,.32-5.26,5.24-13,5.39-18.26.16a13,13,0,0,1-3.44-14c.11-.37.25-.73.37-1.1a14.94,14.94,0,0,1,1.79-3c.5-.6.45-1-.26-1.38a16.89,16.89,0,0,1-4.82-3.88,12.57,12.57,0,0,1-2.24-11.92,20,20,0,0,1,3.83-7.21A3.1,3.1,0,0,1,372.38,220Z"/><path class="cls-5" d="M328,137.94c.82.32,0,.55-.09.66a13.71,13.71,0,0,0-2.47,3.52,14,14,0,0,0-.79,9.81,7.29,7.29,0,0,0,.54,1.81c.54,1,.09,1.15-.75,1.36-5.51,1.4-10,4.34-12.82,9.35a16.77,16.77,0,0,0-1.48,14.17.78.78,0,0,1-.27,1c-.39.38-.92.33-1.39.42-4.85,1-7.73,4.09-8.25,9,0,.21,0,.42-.06.63-.17.94-.41,1.14-1.36.93a11.25,11.25,0,0,0-6.14.28,10.28,10.28,0,0,0-6.2,13c.19.51.57,1,.37,1.6a1.16,1.16,0,0,1-.9.22c-3.09-.24-6.05-.91-8.48-3a2.87,2.87,0,0,1-1.05-1.28c-3.84-4.34-4.41-9.26-2.59-14.59.2-.57.21-.82-.47-1-9.8-2.31-9.87-13-5.5-18.29a1.24,1.24,0,0,0,0-1.83c-2.77-4.22-3.74-8.7-1.57-13.49a14.81,14.81,0,0,1,13.51-8.51,18.48,18.48,0,0,1,2.55.45c-.25-5.56,1.19-10.29,6.9-12.34,4.61-1.66,8.45.08,11.69,3.62.38-.51.74-1,1.12-1.51,2.33-3,5.08-5.4,8.88-6.26a11.76,11.76,0,0,1,9.87,2.21,15.67,15.67,0,0,1,5.47,7.21C326.63,138,327,138.31,328,137.94Z"/><path class="cls-6" d="M276.36,201.35c.61.51,1.2,1.06,1.84,1.54a14.33,14.33,0,0,0,8.58,2.5c.46-.06.59.32.79.58a11.27,11.27,0,0,0,4.65,3.54c1.2.5,1.25.61.95,1.92a12.81,12.81,0,0,0,.3,7.58A9.32,9.32,0,0,0,304,224.89c1-.16,1.93-.4,2.89-.61s1.17,0,1.31,1c.52,3.87,2.86,6.42,6.67,7,2.84.42,5.11-.87,7-2.89l.26-.34c1.27-1.65,1.6-1.61,2.66.26.58,3.74-1.51,6.83-4.76,8.93a7.11,7.11,0,0,1-2.41,1c-.71.14-.95.54-1,1.24a13.29,13.29,0,0,1-1.24,4.55c-1.86,3.94-6.49,5.9-10.3,5.66a1.21,1.21,0,0,1-.78-.27c-.95-.25-1.92-.45-2.84-.77a8.66,8.66,0,0,1-4.27-3.17c-.52.62-1,1.29-1.54,1.86-2.37,2.43-5.2,3.55-8.52,2.45s-5.07-3.64-5.44-7.1c-.08-.74-.32-.73-.93-.55a13.69,13.69,0,0,1-7.18.44,9.59,9.59,0,0,1-7.3-8.91,12.38,12.38,0,0,1,.47-4.81c.27-.81.12-1.12-.68-1.44a10,10,0,0,1-6.41-6.79,10.5,10.5,0,0,1,11.38-12.94c.79.11,1.79.62,2.31.31s.29-1.49.45-2.28A11.1,11.1,0,0,1,276.36,201.35Z"/><path class="cls-4" d="M304.31,250.41a12.75,12.75,0,0,0,6.82-1.38,9.84,9.84,0,0,0,5-7.25,1.61,1.61,0,0,0,0-.31c0-1.51.56-2.29,2.21-2.86a9.09,9.09,0,0,0,6.14-6.82,15.14,15.14,0,0,0,.1-2.52.69.69,0,0,1,.68.18,11.92,11.92,0,0,0,8,2,1.44,1.44,0,0,1,.62,0,1.16,1.16,0,0,1,.3.77c.87,6.05,6.81,9.45,12.62,7.92.58-.15,1.14-.35,1.72-.51a.75.75,0,0,1,1.07.66c.05.21.1.41.14.62.9,5.44,4.25,8.86,9.23,10.7s9.33.68,13.17-2.83c.37-.34.63-.88,1.28-.79a15.77,15.77,0,0,0-1.06,5.64,13.07,13.07,0,0,0,3.21,8.26,12.81,12.81,0,0,0,7.9,4.57,12.16,12.16,0,0,0,7.62-1.36,12.74,12.74,0,0,0,3.79-3c.49-.55.92-.76,1.4,0,.25.37.72.41,1,.7-.36-.16-.59.07-.84.26-5,3.76-10.64,5-16.71,4.72a26.83,26.83,0,0,1-14.29-4.54c-.41-.28-.81-.57-1.19-.88-1.45-1.16-1.44-1.15-3-.07-6.54,4.49-13.45,5.66-20.84,2.22-.73-.34-1.49-1.09-2.12-1s-.92,1.15-1.41,1.74c-3.22,3.92-7.22,6.34-12.43,6.36a16.59,16.59,0,0,1-6.17-1.26,26.46,26.46,0,0,1-8.48-5.25A17.37,17.37,0,0,1,304.31,250.41Z"/><path class="cls-7" d="M333.92,231.6a11.12,11.12,0,0,1-8.89-2c-.14-.1-.28-.2-.41-.31-1.23-1.53-1.2-1.51-2.33,0-1.78,2.35-5.39,4-8.48,3.07a8,8,0,0,1-5.88-7.16c0-.7-.26-.82-.91-.65a14.65,14.65,0,0,1-6.74.55,9.43,9.43,0,0,1-7.58-7.65A14.48,14.48,0,0,1,293,211c.15-.54.13-.82-.46-1a11.7,11.7,0,0,1-5.76-4.55,10.52,10.52,0,0,1,11.8-15.13c1.18.28,1.25.22,1.31-1.07a10,10,0,0,1,9.93-9.59,16.32,16.32,0,0,1,11.25,3.62,8.13,8.13,0,0,1,2.06,2.24c.45.75.89.51,1.47.29a11.45,11.45,0,0,1,9.58.23,8.13,8.13,0,0,1,2.48,1.76c.32.36.54.49,1,.09a9.71,9.71,0,0,1,5.9-2.44,6.83,6.83,0,0,1,3.65.77c3.67,2,6.47,4.74,7.13,9.07a10.15,10.15,0,0,1-2.05,7.62c-.37,1.35-1.56,2-2.55,2.69-.68.5-.7.79-.23,1.46a8,8,0,0,1-.93,10.65,10.32,10.32,0,0,1-4.87,3c-.69.18-.82.6-.88,1.23a10.67,10.67,0,0,1-4.39,8.18,10,10,0,0,1-3.43,1.59C334.66,231.74,334.27,231.9,333.92,231.6Z"/><path class="cls-8" d="M333.92,231.6a9.82,9.82,0,0,0,8.42-8.35c.24-1.64.51-2.7,2.46-3.35a8.68,8.68,0,0,0,5.88-6.62,7.61,7.61,0,0,0-1.68-6.59c-.44-.56-.34-.74.19-1.07a12.63,12.63,0,0,0,3.11-2.77,16,16,0,0,0,3.46-.19c.65-.16,1.09.06,1.31.82a24.39,24.39,0,0,0,8,11.84,31.84,31.84,0,0,0,6.45,4.31,9.4,9.4,0,0,0,.88.34,21,21,0,0,0-4.69,8.94c-1,5,.28,9.26,4.3,12.58a17.74,17.74,0,0,0,3.31,2.22c.63.31.67.63.24,1.11a17.43,17.43,0,0,0-2.1,3.26c-.82.55-1.45,1.32-2.21,1.94a13,13,0,0,1-15.16.64,13.71,13.71,0,0,1-6.38-8.39c-.2-.79.1-2-.64-2.28-.58-.25-1.5.33-2.28.53a10.32,10.32,0,0,1-11.36-4.17A8.69,8.69,0,0,1,333.92,231.6Z"/><path class="cls-9" d="M212.89,181.69s2-62-212.89-78.41V233.83s38.14-41.46,150.76-46.32Z"/><path class="cls-10" d="M388.39,208.11S271.1,113.08,0,115.35V250.9s161.6-44.73,388.39,15.52Z"/><rect class="cls-11" y="157" width="1024" height="443"/><path class="cls-12" d="M-18.88,430.58s162-21,294,4.5,574,144.5,574,144.5l10.5-36L161.11,366.09Z"/><path class="cls-9" d="M-100.74,314.18a187.32,187.32,0,0,1-.38-50.89c.68-5.29-1.68-11.49.75-16.27,1.66-3.28,6.53-12.55,10.49-13.27,1.87-.34,2.85,1.09,4.42,1.77,2.09.9,4.06.72,6.16,1.41s3.85,2.55,6,3.47c3.22,1.39,6.28,2.49,9.56,4.19A438.87,438.87,0,0,0,.58,271.42,687.05,687.05,0,0,0,68.36,289.8c12,2.66,24.08,5.08,36.17,7.35q8.23,1.55,16.48,3c1.73.3,12.08,3.32,13.17,2.28-5.29,5-13.23,5.6-20.5,5.92l-209.92,9.31c-1.22,0-2.59.06-3.47-.79A4.53,4.53,0,0,1-100.74,314.18Z"/><polygon class="cls-9" points="385 357 931 311 911.57 247.1 381.6 337.09 385 357"/><path class="cls-13" d="M927.12,296.3,892,169S401.37,256.72,223.61,289.09c-60.88,11.09-247.49,1.58-247.49,1.58V434.58S166.49,426.47,229.5,433c174.66,18.13,626,154.49,626,154.49L912,453,427.7,375.29C411.27,373,409.46,350,425.33,345.1Z"/><path class="cls-14" d="M285.26,172.83c-8.92,1.87-18,4.47-25.07,10.22s-11.69,15.34-9.2,24.11c1.65,5.82,6.15,10.48,11.25,13.73C275,229,291.33,229.35,306.31,227s29.6-7.08,44.73-8.1c22.8-1.53,45.24,5.41,68,7.6,8.18.79,17.8.35,22.7-6.25,3.91-5.27,3.2-12.94-.18-18.57s-8.94-9.57-14.59-12.92a129.56,129.56,0,0,0-27.35-12.18,35.21,35.21,0,0,0-11.18-2c-4.52,0-9,0-13.57,0a83,83,0,0,1-18.33-1.78c-2.16-.5-3.91-1.73-5.89-2.6-2.34-1-4.93-1.08-7.44-1.26a209.45,209.45,0,0,0-39,.83Q294.65,170.87,285.26,172.83Z"/><path class="cls-15" d="M430.62,174.61c.23.09.3.25.52.36a7.93,7.93,0,0,1,1,.43l.34.25.49.34a2.69,2.69,0,0,1,.66.8c.5.81,1.52,1.52,2.07,2.35s1.38,1.61,1.88,2.44c.31.5.95,1,1.3,1.47a18.47,18.47,0,0,1,1.78,2.52,3.34,3.34,0,0,1,.24,1.71,7.76,7.76,0,0,0,.31,2.29,14.83,14.83,0,0,0,1,2.36,6.5,6.5,0,0,1,.56,2.88,3.85,3.85,0,0,1-2.26,4.27,6.1,6.1,0,0,1-2.55.84c-1.16.16-2.36.23-3.53.38a27.47,27.47,0,0,1-4.88.23c-1.47-.07-2.9-.32-4.41-.32a20.31,20.31,0,0,0-3.49.16,25.24,25.24,0,0,1-7.05.11c-1.25-.15-3.77-.32-4.5-.93-.31-.24-.21-.63-.31-.9a2.29,2.29,0,0,1,0-1.37,9,9,0,0,0,0-1.27,18.63,18.63,0,0,1,.64-2.44,21.65,21.65,0,0,1,1.19-3.51,29.57,29.57,0,0,0,1.07-3c.24-.78.69-1.53.88-2.32A11.63,11.63,0,0,0,414,183a7.91,7.91,0,0,1,.88-3.67A14.47,14.47,0,0,1,416,178c.24-.31.65-.59.84-.9.06-.08.08-.16.14-.25a3.78,3.78,0,0,1,1.08-.74,15.37,15.37,0,0,1,2.06-1,19.61,19.61,0,0,1,2-.6,5.45,5.45,0,0,1,.89-.2h.74c.77,0,1.51-.11,2.29-.11s1.47,0,2.2.1A11.38,11.38,0,0,1,430.62,174.61Z"/><path class="cls-16" d="M425.92,174.83c.31,0,.61.06.91.06a4.18,4.18,0,0,1,1.21.28,6.14,6.14,0,0,1,2.33,1.9,15.46,15.46,0,0,1,1.34,2.06,29.11,29.11,0,0,0,1.94,2.59,17.46,17.46,0,0,1,2.26,3.9,8.54,8.54,0,0,1,.58,2.43,12.45,12.45,0,0,0,1.57,3.6,5.29,5.29,0,0,1,.9,2.68,4.5,4.5,0,0,1-1,1.85,10.45,10.45,0,0,1-1.71,2.14,6.71,6.71,0,0,1-1.47,1.06,8.75,8.75,0,0,1-2.07.59,12.54,12.54,0,0,1-2.37.25c-1,0-2-.05-2.94,0s-2,.14-2.88.17-1.79,0-2.65.05c-.55.07-1.05.2-1.59.28-.93.12-1.91.16-2.86.24a30.61,30.61,0,0,1-6.56-.05c-1.25-.16-3.77-.33-4.51-.94-.3-.23-.2-.62-.3-.89a2.17,2.17,0,0,1,0-1.38c0-.42,0-.84,0-1.27a18.45,18.45,0,0,1,.63-2.43,22.31,22.31,0,0,1,1.19-3.51c.43-1,.76-2,1.08-3,.23-.79.69-1.54.87-2.33a9.28,9.28,0,0,0,.38-1.72,8.11,8.11,0,0,1,.88-3.68,13.19,13.19,0,0,1,1.17-1.31c.24-.31.65-.59.85-.9.05-.08.07-.17.13-.25a3.78,3.78,0,0,1,1.08-.74,14.73,14.73,0,0,1,2.06-.95,17.34,17.34,0,0,1,2-.6,5.45,5.45,0,0,1,.89-.2H420c.77,0,1.55-.1,2.29-.11s1.47,0,2.2.08Z"/><path class="cls-15" d="M414.34,187.52c.11.06,0,.11.11.23s.29.26.32.31a1.38,1.38,0,0,1,.06.16c0,.06.11.14.11.21a.94.94,0,0,1,0,.47c-.14.46.11.91,0,1.39s0,.94-.12,1.41c-.08.29.06.58,0,.88a5.65,5.65,0,0,1-.19,1.47,2.7,2.7,0,0,1-.62.89,6.71,6.71,0,0,0-.84,1.19,9,9,0,0,0-.52,1.3,5.05,5.05,0,0,1-1,1.52,6,6,0,0,1-1.79,1.55,5.92,5.92,0,0,1-1.23.41,4.73,4.73,0,0,1-1.67.2c-.66,0-1.3-.12-2-.12a14.12,14.12,0,0,1-2.59-.33c-.73-.16-1.39-.41-2.12-.56a11.57,11.57,0,0,0-1.85-.24,11.84,11.84,0,0,1-3.64-.58c-.57-.19-1.78-.5-1.88-.88,0-.14.17-.34.23-.48a2.16,2.16,0,0,1,.6-.74c.22-.2.34-.43.55-.64a14.71,14.71,0,0,1,1.39-1.19c.66-.57,1.47-1.17,2.13-1.68s1.27-1,1.87-1.47,1-.71,1.47-1.1a10.64,10.64,0,0,0,.94-.84,10.15,10.15,0,0,1,2.07-1.8c.31-.21.91-.43,1.17-.57s.58-.24.82-.38l.18-.12a5.13,5.13,0,0,1,.87-.26,12,12,0,0,1,1.47-.3,7.37,7.37,0,0,1,1.26-.13h.54a2.53,2.53,0,0,0,.38.07c.4.06.81.09,1.21.15a9.77,9.77,0,0,1,1.07.25A4.28,4.28,0,0,1,414.34,187.52Z"/><path class="cls-16" d="M411.72,187.24l.43.12a1.14,1.14,0,0,1,.49.25,1.45,1.45,0,0,1,.36,1.18,5.14,5.14,0,0,1-.22,1.17,10.44,10.44,0,0,0-.14,1.47,7.71,7.71,0,0,1-.55,2.21,6.34,6.34,0,0,1-.74,1.29,6.24,6.24,0,0,0-.73,2,3.31,3.31,0,0,1-.74,1.47,6,6,0,0,1-1.3.86,14.57,14.57,0,0,1-1.8.93,10.46,10.46,0,0,1-1.19.41,8.69,8.69,0,0,1-2.63,0c-.48-.09-1-.2-1.47-.26s-1.08-.11-1.54-.19a8.65,8.65,0,0,0-1.38-.21h-.93c-.52,0-1-.1-1.56-.14a13.9,13.9,0,0,1-3.32-.62c-.57-.19-1.78-.51-1.88-.89,0-.14.16-.33.23-.48a1.93,1.93,0,0,1,.6-.73c.22-.21.34-.44.55-.65a14.29,14.29,0,0,1,1.38-1.18c.67-.58,1.48-1.18,2.14-1.68s1.26-1,1.87-1.47,1-.72,1.47-1.11a10.64,10.64,0,0,0,.94-.84,9.89,9.89,0,0,1,2.07-1.8c.31-.2.91-.43,1.16-.56s.59-.25.83-.39l.18-.11a4.39,4.39,0,0,1,.87-.27q.72-.18,1.47-.3a7.37,7.37,0,0,1,1.26-.12,2.44,2.44,0,0,1,.54,0c.13,0,.25.06.38.06.4.06.86.09,1.21.16s.73.15,1.08.24Z"/><ellipse class="cls-17" cx="463.01" cy="261.88" rx="19.09" ry="5.5"/><ellipse class="cls-18" cx="496.49" cy="275.43" rx="16.17" ry="4.65"/><ellipse class="cls-19" cx="437.51" cy="281.41" rx="16.17" ry="4.65"/><ellipse class="cls-17" cx="348.58" cy="389.71" rx="19.09" ry="5.5"/><ellipse class="cls-18" cx="315.1" cy="403.26" rx="16.17" ry="4.65"/><ellipse class="cls-19" cx="374.08" cy="409.24" rx="16.17" ry="4.65"/><path class="cls-4" d="M367.2,574.79a7.49,7.49,0,0,0,1.9-1.09,18.41,18.41,0,0,1,14-3.86c.52.07.73-.05.89-.52a23.74,23.74,0,0,1,1.8-3.94c5.15-9.15,14.88-12.69,24.72-9a22.5,22.5,0,0,1,7.06,4.16,15.83,15.83,0,0,1,5,7.81,27.58,27.58,0,0,1,4-2.67c5.79-2.94,11.55-3.21,16.87.87s6.73,9.74,5.3,16.15c-.23,1,0,1.14.93,1.15A29,29,0,0,1,460.77,586a17.85,17.85,0,0,1,10.73,19.94,25.77,25.77,0,0,1-4.62,11c-.49.66-.34.93.23,1.39,4.29,3.42,7.35,7.64,8.16,13.21a14.89,14.89,0,0,1-.33,6.4c-.39.13-.64-.13-.87-.36a9.77,9.77,0,0,0-9.23-2.59c-2.19.41-2,.45-2.49-1.72-1.33-6.11-5.38-10.12-11.29-11.18a10.8,10.8,0,0,0-4.42.12,17.89,17.89,0,0,0-8.63,4.17,11,11,0,0,0-3.12,11.32c.48,1.87.5,1.89-1.17,2.74-5.41,2.76-7.82,7.37-8.2,13.24-.09,1.51-.06,1.57-1.45,1.92a19.32,19.32,0,0,0-9,5.29,1.49,1.49,0,0,1-2.27.24,31.42,31.42,0,0,1-13-12,20.93,20.93,0,0,1-2-4.69,1.23,1.23,0,0,0-1.64-1,5.38,5.38,0,0,1-3.27-.14c-.07-.57.31-1,.57-1.41a10.26,10.26,0,0,0-1.53-12.44,17.8,17.8,0,0,0-2.8-2.54,8.78,8.78,0,0,0-10.51.07q-.46.31-.9.66a1,1,0,0,1-1.49-.09c-3.72-3.35-7.95-3.65-12.48-2a1.45,1.45,0,0,1-1.91-.53,15.74,15.74,0,0,0-12.32-6,2.28,2.28,0,0,1-1.4-.24c0-1.53-.68-2.93-.82-4.45a19.15,19.15,0,0,1,4.91-15.17A22,22,0,0,1,363,592.69c1.19-.34,1.2-.37.83-1.52a16.9,16.9,0,0,1-.57-9.4,14.21,14.21,0,0,1,3.3-6.1C366.79,575.39,367.12,575.18,367.2,574.79Z"/><path class="cls-5" d="M367.2,574.79c.87.33,0,.58-.09.69a14.25,14.25,0,0,0-3.44,14.07,8,8,0,0,0,.57,1.9c.57,1,.1,1.22-.79,1.44-5.82,1.48-10.52,4.57-13.52,9.86a17.74,17.74,0,0,0-1.57,15,.82.82,0,0,1-.28,1c-.41.4-1,.34-1.46.43-5.12,1-8.16,4.32-8.71,9.5,0,.23,0,.45-.06.67-.19,1-.43,1.2-1.44,1a11.87,11.87,0,0,0-6.47.29,10.84,10.84,0,0,0-6.54,13.68c.2.54.59,1.05.39,1.69a1.3,1.3,0,0,1-1,.24c-3.27-.26-6.38-1-8.94-3.2a3.1,3.1,0,0,1-1.12-1.36c-4-4.57-4.64-9.76-2.73-15.38.21-.61.22-.87-.5-1-10.33-2.44-10.4-13.68-5.8-19.3.65-.78.54-1.18.05-1.92-2.92-4.46-3.94-9.18-1.66-14.24a15.63,15.63,0,0,1,14.26-9,19.11,19.11,0,0,1,2.68.47c-.26-5.87,1.25-10.85,7.28-13,4.87-1.75,8.92.09,12.33,3.82.4-.54.78-1.08,1.19-1.6,2.45-3.15,5.35-5.69,9.36-6.6a12.38,12.38,0,0,1,10.41,2.33,16.61,16.61,0,0,1,5.78,7.61C365.81,574.85,366.23,575.18,367.2,574.79Z"/><path class="cls-4" d="M83.68,584.79a7.49,7.49,0,0,1-1.9-1.09,18.41,18.41,0,0,0-14-3.86c-.52.07-.73-.05-.9-.52a22.91,22.91,0,0,0-1.79-3.94c-5.15-9.15-14.88-12.69-24.72-9a22.5,22.5,0,0,0-7.06,4.16,15.83,15.83,0,0,0-5,7.81,27.58,27.58,0,0,0-4-2.67c-5.79-2.94-11.55-3.21-16.87.87s-6.73,9.74-5.3,16.15c.23,1,0,1.14-.93,1.15A29,29,0,0,0-9.9,596a17.85,17.85,0,0,0-10.72,19.94,25.77,25.77,0,0,0,4.62,11c.49.66.34.93-.23,1.39-4.29,3.42-7.35,7.64-8.16,13.21a15,15,0,0,0,.32,6.4c.4.13.65-.13.87-.36A9.8,9.8,0,0,1-14,645c2.19.41,2,.45,2.49-1.72,1.33-6.11,5.38-10.12,11.28-11.18a10.85,10.85,0,0,1,4.43.12,17.89,17.89,0,0,1,8.63,4.17A11,11,0,0,1,16,647.67c-.48,1.87-.5,1.89,1.17,2.74,5.41,2.76,7.82,7.37,8.2,13.24.09,1.51.06,1.57,1.45,1.92a19.32,19.32,0,0,1,9,5.29,2.06,2.06,0,0,0,.91.62,2,2,0,0,0,1.36-.38,31.42,31.42,0,0,0,13-12,20.93,20.93,0,0,0,2-4.69,1.23,1.23,0,0,1,1.64-1,5.38,5.38,0,0,0,3.27-.14c.07-.57-.32-1-.57-1.41A10.26,10.26,0,0,1,59,639.42a17.8,17.8,0,0,1,2.8-2.54A8.78,8.78,0,0,1,72.3,637q.47.31.9.66a1,1,0,0,0,1.49-.09c3.72-3.35,8-3.65,12.48-2a1.45,1.45,0,0,0,1.91-.53,15.73,15.73,0,0,1,12.31-6,2.3,2.3,0,0,0,1.41-.24c0-1.53.68-2.93.82-4.45a19.15,19.15,0,0,0-4.91-15.17,22,22,0,0,0-10.82-6.48c-1.2-.34-1.2-.37-.83-1.52a16.9,16.9,0,0,0,.57-9.4,14.21,14.21,0,0,0-3.3-6.1C84.09,585.39,83.76,585.18,83.68,584.79Z"/><path class="cls-5" d="M83.68,584.79c-.87.33,0,.58.09.69a14.51,14.51,0,0,1,2.6,3.71,14.72,14.72,0,0,1,.84,10.36,8,8,0,0,1-.57,1.9c-.57,1-.1,1.22.78,1.44,5.82,1.48,10.52,4.57,13.53,9.86a17.7,17.7,0,0,1,1.56,15,.83.83,0,0,0,.29,1c.41.4,1,.34,1.46.43,5.12,1,8.16,4.32,8.71,9.5,0,.23,0,.45.06.67.18,1,.43,1.2,1.44,1a11.87,11.87,0,0,1,6.47.29,10.84,10.84,0,0,1,6.54,13.68c-.2.54-.59,1.05-.39,1.69a1.3,1.3,0,0,0,.95.24c3.27-.26,6.38-1,8.94-3.2a3,3,0,0,0,1.11-1.36c4-4.57,4.65-9.76,2.74-15.38-.21-.61-.22-.87.5-1,10.33-2.44,10.4-13.68,5.8-19.3-.65-.78-.54-1.18,0-1.92,2.92-4.46,3.94-9.18,1.66-14.24a15.63,15.63,0,0,0-14.26-9,19.11,19.11,0,0,0-2.68.47c.26-5.87-1.26-10.85-7.28-13-4.87-1.75-8.92.09-12.33,3.82-.4-.54-.78-1.08-1.19-1.6-2.45-3.15-5.35-5.69-9.36-6.6a12.38,12.38,0,0,0-10.41,2.33,16.61,16.61,0,0,0-5.78,7.61C85.07,584.85,84.65,585.18,83.68,584.79Z"/></g><path class="cls-20" d="M276.6,396.27a13.86,13.86,0,0,0,7.49-3.56,16.55,16.55,0,0,0,4.36-6.15,2.29,2.29,0,0,1,1.36-1.54c6.67-2.47,11.45-7.29,15.64-12.8a44,44,0,0,0,5.3-8.37c1.27-2.83,1.93-5.77.31-8.66-2.32-4.17-7-7.08-13.25-4.55a93.7,93.7,0,0,0-17.5,9.92c-.79.54-1.85.8-2.15,1.89A18,18,0,0,0,279,376c.39.78-.06,1.13-.72,1.39-1.53.6-3,1.32-4.61,1.81-3.39,1.05-6.8,2.17-10.45,1.35a3,3,0,0,0,.48,2,39.79,39.79,0,0,0,7.82,10.32,4.1,4.1,0,0,1,.38.3"/><path class="cls-21" d="M236.3,355.27c1.93,1.53,20.26,15.92,22,17.66,2.23,2.18,3.4,5,4.9,7.61,3.65.82,7.06-.3,10.45-1.35,1.57-.49,3.08-1.21,4.61-1.81.66-.26,1.11-.61.72-1.39a18,18,0,0,1-.85-13.54,3.25,3.25,0,0,1-3.79-.94,59,59,0,0,1-4.77-5.7c-3.57-4.4-13.1-12.53-17.72-15.81C249.22,342.55,236.18,353.72,236.3,355.27Z"/><path class="cls-21" d="M289.84,370.51c2.4-2.83,3.87-5.47,4.3-8.59.54-4-2.41-6.22-6.11-4.64-1.33.56-2.57,1.31-3.86,2a1,1,0,0,0-.56.68,20.35,20.35,0,0,0,.77,13.07c.3.75.62,1,1.35.54C287.36,372.55,289.06,371.64,289.84,370.51Z"/><path class="cls-22" d="M272.77,183.46c-2.17-.32-4.08.62-5.88,1.52-4.06,2.06-8.13,4-12.71,4.62-.81.11-.8.6-.78,1.22.17,4,2.21,6.71,5.74,8.46a42.56,42.56,0,0,1,4.08,2.47c.43.29,1.09.5.93,1.26.63-.16.55,1.29,1.44.6s2.19-1.31,2.31-2.73c.07-.94-.74-1.25-1.45-1.6a37.67,37.67,0,0,0-7.3-2.57c-2.67-.69-4-2.15-4.29-4.65-.13-1.06.08-1.54,1.28-1.69a92.52,92.52,0,0,0,14.2-2.38C274,186.94,274,187,272.77,183.46Z"/><path class="cls-23" d="M196.93,185c2.5.82,3.6.5,4.76-1.43a1.94,1.94,0,0,0-.18-2.18,2.7,2.7,0,0,0-2-1.37c-.66-.08-.62.58-.78,1-.56,1.41-1.34,1.89-2.76,1.36a11.89,11.89,0,0,1-5.66-4.13,32.38,32.38,0,0,1-5.08-10.38c-2-7.34,3.82-10.46,9.05-9.64a13,13,0,0,1,4.53,1.81c.3.17.69.44,1,.18s0-.67-.13-1a6.17,6.17,0,0,0-3.59-3.26c-3.91-1.24-7.81-1.05-11.23,1.42a7.29,7.29,0,0,0-3.06,7.77c1.11,5.38,3,10.4,6.86,14.51A18.41,18.41,0,0,0,196.93,185Z"/><path class="cls-20" d="M260.78,127.08a9.32,9.32,0,0,0-7.13.33,19.44,19.44,0,0,0-11.22,13.4c-.16.59-.38,1.35.35,1.63s1-.47,1.31-.89c1.24-1.52,2.44-3.07,3.66-4.61A14.86,14.86,0,0,1,260.61,131a10.26,10.26,0,0,0,1.24,0c.74-.07,1.74.21,2-.76s-.4-1.56-1-2.13A5.25,5.25,0,0,0,260.78,127.08Z"/><path class="cls-24" d="M182.56,231.11a10.16,10.16,0,0,1-1.7,1.63,70.18,70.18,0,0,0,2.51-10.44,37.41,37.41,0,0,0-2.72-23,3,3,0,0,0-1.41-1.53,193.63,193.63,0,0,1-21.6-13.05,8,8,0,0,1-3.66-6.2c-.86-8.32.44-16.4,2.63-24.36a8.13,8.13,0,0,0-.15-5.14c-3.17-8.8-4.31-18-4.7-27.25a1.68,1.68,0,0,1,.5-1.37c5.31-5.57,11.33-10.13,18.6-12.85a8.09,8.09,0,0,0,2.74-1.66A101.77,101.77,0,0,1,204.69,86a12.69,12.69,0,0,1,5.74-1A53.44,53.44,0,0,1,222,87.19c11.34,3.46,21.63,9,31.37,15.71-.31.5-.86.53-1.35.67-7,2.05-14,4-21,6.28a4.34,4.34,0,0,1-2.29.19c-3.3-.65-6.58-1.34-9.89-1.89a105.25,105.25,0,0,0-30.28-.82,31.41,31.41,0,0,0-6.88,1.42,12.46,12.46,0,0,0,2.73,0c13.19-1.13,26.33-1,39.36,1.71a3.58,3.58,0,0,1,2.61,1.2,6.12,6.12,0,0,1-.65.29c-5.48,2-11,4.07-16.45,6.07a4.11,4.11,0,0,0-2.33,1.89,44.11,44.11,0,0,0-2.76,5.71,84.15,84.15,0,0,1-3.78,8.32,2.51,2.51,0,0,1-2.42,1.55c-2.63,0-5.27.2-7.9.45-7.26.72-14.36,2.1-20.78,5.82a16.28,16.28,0,0,0-5.88,4.93l-.46.54a2.73,2.73,0,0,0-.31.27s.07.1.11.16l.25-.35c.28,0,.39-.24.5-.46A37.45,37.45,0,0,1,179,139.63,59.19,59.19,0,0,1,198,138.36c.6.07,1.32-.06,1.09,1-1,4.82-.57,9.68-.28,14.52.1,1.5-.33,1.53-1.5,1.09a15.06,15.06,0,0,0-9.45-.48c-3.85,1.07-6.34,3.83-6.66,7.3a24.47,24.47,0,0,0,14.45,24.42c1.8.8,3.88,1.33,4.25,3.77a23.23,23.23,0,0,1,.38,3.54c0,3.45-1.08,6.71-1.67,10.06a38.31,38.31,0,0,1-3.67,10.22L189.25,223C187,225.69,184.8,228.41,182.56,231.11ZM181.2,108.89s0-.09-.08-.1a.34.34,0,0,0-.11,0l.07.1Zm-.8,0,0,.09.12,0Zm-.65.2V109l-.1,0Z"/><path class="cls-21" d="M236.85,226.13a26.25,26.25,0,0,1-11.72-4.07,2.89,2.89,0,0,1-.85-.74c-.72-1,.05-2.43-.05-3.68-.24-3-4.92-4.57-7.26-5.38a72.57,72.57,0,0,1-10.82-4.62l-7.57-4.07c.59-3.35,1.65-6.61,1.67-10.06a23.23,23.23,0,0,0-.38-3.54c-.37-2.44-2.45-3-4.25-3.77a24.47,24.47,0,0,1-14.45-24.42c.32-3.47,2.81-6.23,6.66-7.3a15.06,15.06,0,0,1,9.45.48c1.17.44,1.6.41,1.5-1.09-.29-4.84-.74-9.7.28-14.52.23-1-.49-.92-1.09-1A59.19,59.19,0,0,0,179,139.63a37.45,37.45,0,0,0-15.46,7.22l-.09-.16a16.28,16.28,0,0,1,5.88-4.93c6.42-3.72,13.52-5.1,20.78-5.82,2.63-.25,5.27-.41,7.9-.45a2.51,2.51,0,0,0,2.42-1.55,84.15,84.15,0,0,0,3.78-8.32,44.11,44.11,0,0,1,2.76-5.71,4.11,4.11,0,0,1,2.33-1.89c5.49-2,11-4,16.45-6.07a6.12,6.12,0,0,0,.65-.29,3.58,3.58,0,0,0-2.61-1.2c-13-2.68-26.17-2.84-39.36-1.71a12.46,12.46,0,0,1-2.73,0,31.41,31.41,0,0,1,6.88-1.42,105.25,105.25,0,0,1,30.28.82c3.31.55,6.59,1.24,9.89,1.89a4.34,4.34,0,0,0,2.29-.19c6.92-2.32,14-4.23,21-6.28.49-.14,1-.17,1.35-.67a16.4,16.4,0,0,0,1.37,1,30.86,30.86,0,0,1,11.5,11.9c5.2,9,6.22,18.69,4.76,28.82-1.19,8.2,1.36,15,8,20.07a12.14,12.14,0,0,1,3.61,4,5.55,5.55,0,0,1-1.87,7.51,13.42,13.42,0,0,1-4.79,2.13,1.8,1.8,0,0,0-1.52,1.14c-.5,1.36-1.13,2.67-1.7,4-2.17-.32-4.08.62-5.88,1.52-4.06,2.06-8.13,4-12.71,4.62-.81.11-.8.6-.78,1.22.17,4,2.21,6.71,5.74,8.46a42.56,42.56,0,0,1,4.08,2.47c.43.29,1.09.5.93,1.26a9.53,9.53,0,0,1-3.2,2.4q-5.92,3-11.91,6a24.48,24.48,0,0,1-6.46,2.12,2.32,2.32,0,0,0-1.9,1.52c-1.45,3.35-3.18,6.67-3.73,10.28C236.91,225.57,236.88,225.85,236.85,226.13Zm-35.16-42.57a1.94,1.94,0,0,0-.18-2.18,2.7,2.7,0,0,0-2-1.37c-.66-.08-.62.58-.78,1-.56,1.41-1.34,1.89-2.76,1.36a11.89,11.89,0,0,1-5.66-4.13,32.38,32.38,0,0,1-5.08-10.38c-2-7.34,3.82-10.46,9.05-9.64a13,13,0,0,1,4.53,1.81c.3.17.69.44,1,.18s0-.67-.13-1a6.17,6.17,0,0,0-3.59-3.26c-3.91-1.24-7.81-1.05-11.23,1.42a7.29,7.29,0,0,0-3.06,7.77c1.11,5.38,3,10.4,6.86,14.51a18.41,18.41,0,0,0,8.24,5.33C199.43,185.81,200.53,185.49,201.69,183.56Zm52-56.15a19.44,19.44,0,0,0-11.22,13.4c-.16.59-.38,1.35.35,1.63s1-.47,1.31-.89c1.24-1.52,2.44-3.07,3.66-4.61A14.86,14.86,0,0,1,260.61,131a10.26,10.26,0,0,0,1.24,0c.74-.07,1.74.21,2-.76s-.4-1.56-1-2.13a5.25,5.25,0,0,0-2.05-1A9.32,9.32,0,0,0,253.65,127.41Z"/><path class="cls-25" d="M265.85,153.9a11.92,11.92,0,0,0-1.33-6.31c-2-3.48-6.11-6.07-10.21-5.29a14.37,14.37,0,0,0-11.88,14.07c0,3.85,2.37,6.36,5.33,8.37a14.41,14.41,0,0,0,6.58,2.37c4.57.54,7.89-1.34,9.73-5.57A21.68,21.68,0,0,0,265.85,153.9Z"/><path class="cls-26" d="M255.11,163.65a8.17,8.17,0,1,1,10.21-5.35A8.13,8.13,0,0,1,255.11,163.65Zm-1.93-11.19-.39.63a5.59,5.59,0,0,0,.45,6.85,5.3,5.3,0,0,0,6.75,1,5.76,5.76,0,0,0,2.42-6.58c-.51-1.7-2.66-3.38-4.22-3.3-.83-1.65-1.84-2.25-3.19-1.88S253.1,150.59,253.18,152.46Z"/><path class="cls-27" d="M258.19,151.1c1.56-.08,3.71,1.6,4.22,3.3A5.76,5.76,0,0,1,260,161a5.3,5.3,0,0,1-6.75-1,5.59,5.59,0,0,1-.45-6.85l.39-.63c.73,1.16,1.64,2,3.13,1.59A2.58,2.58,0,0,0,258.19,151.1Z"/><path class="cls-28" d="M258.19,151.1a2.58,2.58,0,0,1-1.88,3c-1.49.44-2.4-.43-3.13-1.59-.08-1.87.48-2.88,1.82-3.24S257.36,149.45,258.19,151.1Z"/><path class="cls-20" d="M184.68,399.1c-2.36,5.19-9.58,7.07-14.11,3.66a13.58,13.58,0,0,1-3.5-4.11,56.88,56.88,0,0,1-4.3-9.27c-2.1-5.79-3.51-11.71-2.38-17.93a3.26,3.26,0,0,0-.62-2.7A15.81,15.81,0,0,1,156.93,356a5,5,0,0,1,3.47-4,38.69,38.69,0,0,1,11.7-2.24c1.93-.1,3.91-.32,5.79.45-3.11,4.33-4.15,9.36-4.86,14.5-.14,1,0,1.5,1.17,1.63a17,17,0,0,1,11.12,5.8,3.59,3.59,0,0,0,.48.37c.92,1.5.51,3.2.62,4.8a89.48,89.48,0,0,1-.25,15.61m-1.11-8.77a41.68,41.68,0,0,0,.34-4.62,1.21,1.21,0,0,0-.34-1,19.68,19.68,0,0,0-11.53-6.16.82.82,0,0,0-1.11.72c-1,4.43,2.78,12.27,6.86,14.19A4,4,0,0,0,185.06,384.14Z"/><path class="cls-29" d="M177.89,350.2c-3.11,4.33-4.15,9.36-4.86,14.5-.14,1,0,1.5,1.17,1.63a17,17,0,0,1,11.12,5.8,3.59,3.59,0,0,0,.48.37,3.27,3.27,0,0,1,2.94-2.75c5.34-1,10.79-1.47,16.07-2.83a.41.41,0,0,1,.15,0c1.44-.56,2.86-1.18,4.32-1.68,3.91-1.32,13.2-7.93,16.08-10.95-2.44-1.38-17.08-8.21-22.5-11.91-6.45,3.73-18.07,8.85-23.3,8.07C179,350.39,178.44,350.29,177.89,350.2Z"/><path class="cls-30" d="M179.28,387.31a4,4,0,0,0,5.78-3.17,41.68,41.68,0,0,0,.34-4.62,1.21,1.21,0,0,0-.34-1,19.68,19.68,0,0,0-11.53-6.16.82.82,0,0,0-1.11.72C171.41,377.55,175.2,385.39,179.28,387.31Z"/><path class="cls-31" d="M292.17,217.74a5.57,5.57,0,0,1,2.57-.53,92.42,92.42,0,0,0,14.69-.45,23.69,23.69,0,0,0,2.75-.61,1.63,1.63,0,0,0,1.38-1.38c.11-.88-.53-1.34-1.2-1.69a13.35,13.35,0,0,0-3.4-1,35.63,35.63,0,0,1-4.76-.9,6.35,6.35,0,0,1,2.7-.83A91.91,91.91,0,0,0,317.8,208a8.52,8.52,0,0,0,2.79-1.36c1.26-1,1.11-2.21-.38-2.85a9,9,0,0,0-3.5-.53,68.5,68.5,0,0,0-9.89.83c.29-.8.93-1,1.42-1.31,3.82-2.57,7.69-5.07,10.92-8.41.73-.75,1.87-1.6,1.2-2.76s-2-.65-3-.41c-4.09,1-7.77,3-11.55,4.68-1.17.53-2.35,1.06-3.53,1.57-.3.13-.69.37-.95,0s.07-.67.25-.94c1.2-1.88,2.45-3.73,3.65-5.61a18,18,0,0,0,2.31-4.64c.19-.69.31-1.41-.32-1.93a1.92,1.92,0,0,0-2-.15,12.18,12.18,0,0,0-4.18,3c-2.19,2.29-4.3,4.66-6.45,7-1.58,1.71-2.12,1.64-3.19-.45a37.94,37.94,0,0,0-2-4,3.43,3.43,0,0,0-2-1.64,2,2,0,0,0-2.66,1.5,19.43,19.43,0,0,0-.68,6.61c0,1.88.09,3.77.16,5.65a2.39,2.39,0,0,1-.9,2.21c-.72.57-1.45,1.14-2.19,1.69q-3.66,2.75-7.57,5.14c-2.58,1.57-5.25,3-8,4.32a86.88,86.88,0,0,1-8.4,3.49c-1.44.52-2.89,1-4.36,1.44q-1.09.33-2.22.63c-.32.09-1.74.58-2.08.75s-.48.15-.54.39a1.21,1.21,0,0,0,.13.67c1.27,3.33.61,6.75-.27,10.06a.83.83,0,0,0,0,.44c.11.39.66.4,1.07.31C263.92,230.2,278.3,224.27,292.17,217.74Z"/><path class="cls-32" d="M232,222.24a9.85,9.85,0,0,1,1.87-.71c2.11-.54,4.29-.61,6.43-1a24.2,24.2,0,0,0,4.38-1.38,3.39,3.39,0,0,1,1.51-.39,1.49,1.49,0,0,1,1,.47,11.9,11.9,0,0,1,3.62,7.45c.25,1.62.27,3.2.43,4.83a2.49,2.49,0,0,1-.44,2.09,7.41,7.41,0,0,1-1.71,1,31.69,31.69,0,0,0-6.3,4,12,12,0,0,1-7.13,2.81,12.47,12.47,0,0,1-5-.57,8,8,0,0,1-3.77-3.1C223.58,232.37,226.55,225,232,222.24Z"/><path class="cls-33" d="M201.44,220.12a14.2,14.2,0,0,0-2.47,2.82c-3.91,5.78-2.72,15.63-2.82,22.34-.13,9.05.81,18.07,1.37,27.09.74,11.68,1.43,23.35.17,35-.56,5.24-1.69,10.41-2,15.68q-.18,3.57-.25,7.13c-.05,2-.13,3.92-.26,5.87a20.4,20.4,0,0,1-.25,3.12,11.46,11.46,0,0,1-.49,1.39,11.8,11.8,0,0,1-2.25,3.23,7.52,7.52,0,0,1-1.73,1.59c-.5.34-1.42.61-1.79,1.05a4.08,4.08,0,0,0,1.12,1.07l2.84,2.24a58.18,58.18,0,0,0,5.09,3.77c3.39,2.14,6.91,4.25,11.05,4.44a10.94,10.94,0,0,0,3.56-.7,38,38,0,0,1,5.84-.82c1.47-.19,3-.38,4.44-.47s3,.06,4.44,0q.81,0,1.62,0c4.27.16,8.66,1.52,12.86.36,1.23-.35,2.29-1.1,3.51-1.48a26.34,26.34,0,0,1,6.34-1.22,5.78,5.78,0,0,0,3.05-1,15.49,15.49,0,0,0,3.67-3,22.54,22.54,0,0,0,1.41-2.18,17.8,17.8,0,0,1,2.4-2.95c.63-.69,1.48-1.38,1.33-2.42a10.7,10.7,0,0,0-1.11-2.47c-.53-1.26-.9-2.57-1.46-3.82q-1.47-2.61-2.81-5.28l-1.73-4.32a48,48,0,0,1-2.83-9.37,29.26,29.26,0,0,0-.57-4.2,10.05,10.05,0,0,1-.42-1.42c-.59-3.33-.72-6.81-1.11-10.17-.75-6.53-1.7-13-2.5-19.55a61.68,61.68,0,0,1-.78-8c-.61-3.75-.73-7.57-1.47-11.31-.56-2.82-1-5.65-1.56-8.48-1.08-2.49-1.36-5.19-1.89-7.81a133.22,133.22,0,0,1-2.5-13.57c.18,1.86-1,2.08-2.46,2.13-3.46.11-6.92.27-10.39.29a4.89,4.89,0,0,1-4-1.86c-4.29-4.81-7.4-10.38-10.59-15.93C208.65,216.49,204.6,217.36,201.44,220.12Z"/><path class="cls-34" d="M213.09,217c3.18,5.55,6.29,11.12,10.58,15.93a4.89,4.89,0,0,0,4,1.86c3.47,0,6.93-.18,10.39-.29,1.49-.05,2.64-.27,2.46-2.13-.16-.8,0-1.66-.4-2.42-4,.75-8,.52-12.06.38a2,2,0,0,1-1.57-.85A113.84,113.84,0,0,1,217.84,217Z"/><path class="cls-35" d="M217.84,217a113.84,113.84,0,0,0,8.66,12.45,2,2,0,0,0,1.57.85c4,.14,8.06.37,12.06-.38a5,5,0,0,0-.38-3.08c-3.62.28-7.24.17-10.86.11a1.19,1.19,0,0,1-1-.6,104.93,104.93,0,0,1-6.26-9.62Z"/><path class="cls-36" d="M221.61,216.73a104.93,104.93,0,0,0,6.26,9.62,1.19,1.19,0,0,0,1,.6c3.62.06,7.24.17,10.86-.11a14.82,14.82,0,0,0-.16-2.3c-.06-1.1-.6-1.39-1.56-1.28a55.4,55.4,0,0,1-7.72.61c-.64,0-.91-.35-1.2-.8-1.11-1.74-2.36-3.42-3.31-5.24a2.26,2.26,0,0,0-3.12-1.29A7.48,7.48,0,0,1,221.61,216.73Z"/><path class="cls-21" d="M158.14,155.06a2.47,2.47,0,0,0-.28.28s.08.11.12.16l.21-.37Z"/><path class="cls-21" d="M158.19,155.13c.28,0,.38-.27.47-.49l-.11-.15-.41.57Z"/><path class="cls-21" d="M172.88,115.72l.1-.07s0-.08-.08-.08-.07,0-.1.05Z"/><polygon class="cls-21" points="172.3 115.81 172.19 115.75 172.18 115.84 172.3 115.81"/><polygon class="cls-21" points="171.48 115.95 171.57 116 171.58 115.93 171.48 115.95"/><path class="cls-31" d="M148.14,250.38a5.85,5.85,0,0,1-2.59.89,94.82,94.82,0,0,0-15.16,2.44,27.68,27.68,0,0,0-2.77,1,1.71,1.71,0,0,0-1.25,1.62c0,.93.73,1.32,1.48,1.59a14.07,14.07,0,0,0,3.65.6,35.56,35.56,0,0,1,5.05.3,6.73,6.73,0,0,1-2.68,1.22,96.64,96.64,0,0,0-11,3.88,9.1,9.1,0,0,0-2.71,1.78c-1.17,1.22-.85,2.44.78,2.91a9.59,9.59,0,0,0,3.7.08,73.15,73.15,0,0,0,10.13-2.19c-.19.86-.84,1.14-1.29,1.54-3.62,3.18-7.3,6.29-10.19,10.18-.66.88-1.72,1.91-.88,3s2.14.42,3.17,0c4.1-1.55,7.64-4.11,11.34-6.39,1.14-.71,2.28-1.42,3.44-2.11.3-.17.67-.48,1-.16s0,.7-.13,1c-1,2.1-2,4.19-3,6.3a18.56,18.56,0,0,0-1.77,5.11c-.11.74-.14,1.51.59,2a2,2,0,0,0,2.07-.11,12.63,12.63,0,0,0,3.94-3.69c2-2.66,3.83-5.39,5.74-8.09,1.41-2,2-2,3.37,0A38.22,38.22,0,0,0,154.7,279a3.58,3.58,0,0,0,2.32,1.43,2.14,2.14,0,0,0,2.55-1.91,20.22,20.22,0,0,0-.18-6.94c-.26-1.95-.6-3.89-.92-5.83a2.5,2.5,0,0,1,.63-2.41c.67-.69,1.36-1.37,2.05-2,2.28-2.22,4.66-4.34,7.15-6.33a92.53,92.53,0,0,1,15.92-10.29q2.15-1.09,4.33-2.07c.73-.33,1.47-.65,2.21-1a22.24,22.24,0,0,0,2.06-1c.2-.14.48-.23.51-.47a1.34,1.34,0,0,0-.22-.69c-1.77-3.28-1.54-6.91-1.08-10.45a.89.89,0,0,0,0-.46c-.17-.4-.74-.33-1.15-.18C175.73,233.68,161.64,241.76,148.14,250.38Z"/><path class="cls-32" d="M209.9,237.65a10.26,10.26,0,0,1-1.84,1c-2.12.84-4.37,1.21-6.53,1.94a24.51,24.51,0,0,0-4.35,2,3.45,3.45,0,0,1-1.52.6,1.55,1.55,0,0,1-1-.35,12.45,12.45,0,0,1-4.75-7.24c-.47-1.65-.71-3.27-1.09-5a2.59,2.59,0,0,1,.18-2.22,7.4,7.4,0,0,1,1.63-1.3,33,33,0,0,0,6-5,12.6,12.6,0,0,1,7-3.87,13.1,13.1,0,0,1,5.29-.07,8.3,8.3,0,0,1,4.31,2.7C217.25,226,215.16,234.09,209.9,237.65Z"/><path class="cls-37" d="M209.3,533.66l-8.51,0c-.24,0-.3-.08-.33-.31-.38-4-1-8-1.7-12-.62-3.47-1.38-6.91-2.24-10.33a.64.64,0,0,0-.15-.37l-.36-1.37a13.24,13.24,0,0,0-.45-1.48h0c-.07,0-.08-.1-.09-.16-.16-.69-.39-1.36-.57-2a2.94,2.94,0,0,0-.3-.55.54.54,0,0,0,0-.51l-.46-1.47c-.26-.48-.3-1-.55-1.53l-.36-1.11c-.26-.45-.32-1-.55-1.44l-.37-1a10.24,10.24,0,0,1-.45-1.08l-.45-1.1c-.21-.34-.27-.74-.46-1.09l-.54-1.19c-.1-.21-.18-.43-.28-.63l-.55-1.19c-.24-.41-.42-.84-.63-1.26l-.29-.57c-.19-.24-.26-.56-.44-.81l-.47-.92a1.17,1.17,0,0,1-.31-.58c0-.09,0-.18.15-.15h.07a5.28,5.28,0,0,1,.93.9h0a1.73,1.73,0,0,1,.53.58c.12.14.17.35.36.43a3,3,0,0,1,.73.85c.05.08.07.2.18.25a1.21,1.21,0,0,1,.46.58l.45.6c.18.06.2.24.28.37h0c.09.13.23.23.27.4l.41.6a2.39,2.39,0,0,1,.5.76,1.16,1.16,0,0,0,.34.53c.18.11.22.3.3.47l.15.26c.18.1.21.31.31.47s.12.23.2.34a2.44,2.44,0,0,1,.43.75,7.14,7.14,0,0,0,.61,1.08,1.87,1.87,0,0,1,.4.73,2.16,2.16,0,0,0,.35.63,5.79,5.79,0,0,1,.56,1,1.9,1.9,0,0,0,.34.7,3.54,3.54,0,0,1,.57,1.11,3.33,3.33,0,0,0,.43.89,7.33,7.33,0,0,1,.57,1.2,2.3,2.3,0,0,0,.33.71,7.79,7.79,0,0,1,.59,1.28,2.39,2.39,0,0,0,.32.73,2.8,2.8,0,0,1,.4.92,5.11,5.11,0,0,0,.47,1.07c.08.19.3.28.34.49.21.73.55,1.41.83,2.12,1.77,4.34,3.37,8.74,4.88,13.18.94,2.77,1.8,5.57,2.65,8.37A1.34,1.34,0,0,1,209.3,533.66Z"/><path class="cls-38" d="M221.33,533.66h-8.84a.62.62,0,0,1-.07-.56c.25-2.07.49-4.15.64-6.23.05-.8.15-1.6.12-2.41.16-2.19.18-4.39.18-6.59a85,85,0,0,0-.54-9.3,20.34,20.34,0,0,0-.16-2.21,2,2,0,0,0-.12-.48l-.06-.45c-.23-.82-.33-1.67-.49-2.51a.28.28,0,0,0,0-.12l-.37-1.65c-.26-.61-.34-1.27-.54-1.89l-.38-1.21c-.24-.46-.31-1-.54-1.45l-.44-1.1c-.18-.35-.28-.73-.47-1.08s-.23-.66-.46-.92c0-.19-.35-.33-.08-.55l.19.18c.11.14.3.2.34.4a2.38,2.38,0,0,0,.52.62,1.79,1.79,0,0,1,.49.63l.26.36c.26.15.32.43.47.65l.6.91a2.54,2.54,0,0,1,.49.76,1.44,1.44,0,0,0,.34.6,3.57,3.57,0,0,1,.48.85,1.92,1.92,0,0,0,.35.7,7.82,7.82,0,0,1,.75,1.47,1.23,1.23,0,0,0,.23.54c.17.24.28.53.44.78a59.24,59.24,0,0,1,2.63,7.29c.06.2,0,.39.08.57l1,3.75c.17.14.13.36.23.54.46,1.85.84,3.72,1.18,5.59,0,.21.1.41.14.62.29,2.06.69,4.09.92,6.16s.49,4.18.66,6.27A.53.53,0,0,1,221.33,533.66Z"/><path class="cls-39" d="M221.33,533.66c-.09-1.21-.19-2.43-.34-3.64s-.24-2.33-.39-3.49-.4-2.59-.59-3.88a8.25,8.25,0,0,1-.23-1.91,1,1,0,0,1,.09-.75,42.28,42.28,0,0,1,3.73-7.76,6.48,6.48,0,0,1,.65-.93l.45-.68c.21-.21.3-.52.53-.72l.38-.55a5.29,5.29,0,0,1,.53-.64l.11-.18a1.68,1.68,0,0,1,.3-.35h0c.06-.21.26-.31.36-.48l.17-.19c.11-.16.26-.29.37-.45l.09-.09c.18-.27.46-.46.64-.73l.36-.37a21.52,21.52,0,0,1,1.92-1.9h0a.61.61,0,0,1,.27-.28l.09-.09c.23-.15.4-.38.62-.55l.2-.18c.21-.12.34-.33.54-.45l.37-.3c.09-.09.15-.21.29-.23h0c.15-.14.27-.32.48-.38l.32-.29a3.34,3.34,0,0,1,.76-.53l.33-.29a3.29,3.29,0,0,1,.68-.44l.87-.65c.31-.17.58-.39.89-.55l.39-.27c.11-.07.21-.18.36-.16a.2.2,0,0,1,.14.14,6,6,0,0,1-1.06,1.2c-.19.08-.22.3-.37.42a2,2,0,0,1-.55.67c-.15.06-.2.21-.26.34a3.5,3.5,0,0,1-.58.75c-.15.07-.14.24-.24.34a1,1,0,0,1-.3.39l-.16.24a1.27,1.27,0,0,1-.39.58.6.6,0,0,0-.24.36,2.69,2.69,0,0,1-.57.91,1.44,1.44,0,0,0-.35.61,4,4,0,0,1-.58,1,.53.53,0,0,0-.15.33c-.26.54-.5,1.08-.8,1.6a1.5,1.5,0,0,0-.29.61,9.82,9.82,0,0,1-.58,1.38,2.29,2.29,0,0,0-.33.88,12.48,12.48,0,0,1-.61,1.68,3.31,3.31,0,0,0-.3,1c-.23.73-.34,1.5-.62,2.22a4,4,0,0,0-.29,1.23c-.2.9-.37,1.8-.5,2.71a1,1,0,0,1-.12.34,5.91,5.91,0,0,0-.2,1.51c-.09.16,0,.35-.09.5l0,0,0,0c-.13,1.1-.26,2.2-.31,3.31,0,.16-.08.37.15.46a.37.37,0,0,1-.05.39,24.84,24.84,0,0,0-2.49,6.72.76.76,0,0,1-.21.44Z"/><path class="cls-40" d="M203.66,502.2v-.14c-.12-.21,0-.46-.09-.68a.72.72,0,0,0,0-.41c-.11-.19,0-.4-.09-.59v-.51c-.09-.15,0-.33-.08-.48l0-.52a4.61,4.61,0,0,1-.2-1.38c-.11-1-.23-1.94-.33-2.91h0c-.14-.21,0-.46-.1-.67l0,0,0,0c-.11-.14,0-.33-.09-.49v-.15c-.11-.14,0-.33-.09-.48l-.11-.88a6.8,6.8,0,0,1-.28-1.6c-.12-.7-.25-1.39-.34-2.09l-.29-1.69a17.11,17.11,0,0,1-.39-1.89c-.07-.24-.09-.49-.15-.74l-.37-1.83c-.28-.74-.32-1.53-.54-2.28l-.37-1.64c-.24-.61-.31-1.27-.49-1.9a2.7,2.7,0,0,1-.09-.48c0-.2.08-.24.23-.09l.23.2a2.45,2.45,0,0,1,.57.75.79.79,0,0,0,.24.35c.27.17.34.48.49.73l.49.8a3.09,3.09,0,0,1,.52.94,2,2,0,0,0,.4.79,9,9,0,0,1,.69,1.48.76.76,0,0,0,.19.44,10.72,10.72,0,0,1,.63,1.57,2.34,2.34,0,0,0,.29.8,9.67,9.67,0,0,1,.53,1.57,3.93,3.93,0,0,0,.37,1.16,19.3,19.3,0,0,1,.63,2.22,5.7,5.7,0,0,0,.29,1.15,16.38,16.38,0,0,1,.49,1.92,5.13,5.13,0,0,1,.13.66,8.63,8.63,0,0,0,.29,1.43,12,12,0,0,1,.4,1.87,5.29,5.29,0,0,1,.13.78h0c.13.14,0,.33.09.48a10.77,10.77,0,0,0,.29,1.79,7.07,7.07,0,0,1,.3,1.64c.12.77.22,1.54.32,2.32v.14c.11.15,0,.34.09.49a12,12,0,0,0,.2,1.88,2.68,2.68,0,0,1,.19,1.15c.1,1.05.24,2.09.31,3.15a10.46,10.46,0,0,0,.12,1.11.26.26,0,0,0,0,.24c.12.21,0,.45.09.67v.42c.09.16,0,.34.08.5l0,.69c.08.15,0,.33.07.48l0,.7c.22.55,0,1.14.21,1.69,0,.44.17.87,0,1.31-.24.27-.33,0-.43-.13q-.88-1.19-1.83-2.31a41.1,41.1,0,0,0-3.17-3.3.81.81,0,0,1-.34-.6c0-1.23,0-2.46-.07-3.68-.06-.74,0-1.48-.1-2.22s-.1-1.5-.14-2.26A10.85,10.85,0,0,0,203.66,502.2Z"/><path class="cls-41" d="M224.61,533.66a27.46,27.46,0,0,1,1.91-5.92c.25-.56.61-1.07.81-1.65a.09.09,0,0,1,0-.15h0a10.46,10.46,0,0,1,.64-1.19l.45-.74c.17-.23.28-.5.46-.72l.36-.54c.16-.21.29-.44.45-.64l.28-.37c.09-.13.19-.24.28-.36l.08-.1c.13-.14.19-.34.35-.45l.38-.47c.2-.19.3-.46.54-.62l.28-.31a2.76,2.76,0,0,1,.62-.7l.2-.2c.22-.25.46-.48.7-.71l.21-.2a6,6,0,0,1,.72-.71l.19-.18c.23-.22.48-.42.72-.64l.19-.17c.27-.22.52-.46.8-.65l.3-.27a8,8,0,0,1,.72-.55l.46-.36c.14-.07.23-.22.39-.25h0a2.21,2.21,0,0,1,.66-.47l.42-.3a2.14,2.14,0,0,1,.67-.43l.79-.56a7.84,7.84,0,0,1,.94-.53l.42-.29a7.32,7.32,0,0,1,1.13-.62l.51-.3a3.12,3.12,0,0,1,.82-.4c.12,0,.24-.17.36,0s0,.13-.08.18a.07.07,0,0,0,0,.06,1.1,1.1,0,0,1-.46.47,1.29,1.29,0,0,0-.45.45,4.27,4.27,0,0,1-.68.73.58.58,0,0,0-.24.25,1,1,0,0,1-.45.48c-.2.08-.22.31-.37.42a2.07,2.07,0,0,1-.58.67.53.53,0,0,0-.23.26c-.21.26-.34.58-.65.75-.11,0-.13.16-.18.25a5.56,5.56,0,0,1-.75.93l-.06.08a.92.92,0,0,1-.31.37l-.06.08a2.23,2.23,0,0,1-.49.65.93.93,0,0,0-.33.45,3.18,3.18,0,0,1-.58.83c-.3.23-.39.6-.61.88a1.25,1.25,0,0,1-.38.58c-.21.11-.21.36-.34.52a2.32,2.32,0,0,1-.47.75l-.36.61a1.47,1.47,0,0,1-.27.49h0a1.73,1.73,0,0,1-.38.64,1.11,1.11,0,0,0-.26.52,8.35,8.35,0,0,1-.64,1.22,4.28,4.28,0,0,0-.45,1,3.68,3.68,0,0,1-.47,1,.79.79,0,0,0-.16.44,2.82,2.82,0,0,1-.19.48h0a13.69,13.69,0,0,1-.54,1.47,1,1,0,0,0-.19.59c-.28.72-.37,1.5-.66,2.22a10.38,10.38,0,0,0-.43,2l-3.87,0Z"/><path class="cls-42" d="M204.2,511.9c0,.32.36.39.54.57a41.8,41.8,0,0,1,4.91,5.64s.07,0,.11.08.23.19.31.31a34.05,34.05,0,0,1,3.09,5.41c.08.19.06.39.15.56,0,1.63-.15,3.26-.35,4.88-.14,1.2-.25,2.4-.37,3.6a2.44,2.44,0,0,0-.1.71H209.3c-.51-1.66-1-3.32-1.54-5-.68-2.19-1.42-4.37-2.18-6.54-.51-1.46-1-2.91-1.56-4.36-1-2.65-2-5.29-3.09-7.9-.09-.22-.34-.43-.17-.73.24-.07.3.16.44.27l.15.12a1,1,0,0,1,.38.29h0a1.37,1.37,0,0,1,.47.39l.18.15a1,1,0,0,1,.36.31l.08.06a1.84,1.84,0,0,1,.56.48.57.57,0,0,0,.27.24A2.7,2.7,0,0,1,204.2,511.9Z"/><path class="cls-43" d="M224.25,511.3c0,.28-.2.43-.33.63a42.51,42.51,0,0,0-2.78,5.2c-.43,1-.82,2-1.21,3a5.29,5.29,0,0,0-.15.57,8.38,8.38,0,0,1-.44-2c-.34-1.4-.62-2.82-.92-4.23,0-.21-.07-.44.09-.63.12-1.13.24-2.26.37-3.38a70.58,70.58,0,0,1,1.47-8.44,44.27,44.27,0,0,1,3.35-9.47.25.25,0,0,0,0-.09,6.88,6.88,0,0,1,.62-1.13l.28-.55c.23-.32.4-.68.64-1l.36-.54c.17-.21.3-.44.47-.64l.35-.46a4.09,4.09,0,0,1,.39-.44h0a.55.55,0,0,1,.26-.3h0l.28-.36.63-.65a1.33,1.33,0,0,1,.36-.35l.28-.27c.16-.06.23-.31.46-.21l.08.1a5.62,5.62,0,0,1-.43.65,1.33,1.33,0,0,0-.3.59,12.79,12.79,0,0,1-.61,1.23,2,2,0,0,0-.3.71c-.21.55-.38,1.12-.62,1.66a3.64,3.64,0,0,0-.39,1.15,15.1,15.1,0,0,1-.52,1.86,6.1,6.1,0,0,0-.3,1.33c-.17,1-.41,1.94-.51,2.92a.76.76,0,0,1-.1.3,6.71,6.71,0,0,0-.21,1.61c-.08.15,0,.34-.09.49v.14c-.1.21.05.47-.09.68h0c-.11,1.33-.22,2.66-.32,4a28.34,28.34,0,0,1-.2,3.2c0,.93,0,1.86,0,2.79C224.13,511.15,224.11,511.26,224.25,511.3Z"/><path class="cls-44" d="M217.33,510.26c-.32-.72-.45-1.49-.7-2.23-.59-1.71-1.22-3.4-1.88-5.09-.07-.18-.26-.3-.25-.52.37-.45.38-1.05.65-1.55l.44-1.18a10.69,10.69,0,0,1,.54-1.36l.29-.79a13.33,13.33,0,0,1,.63-1.58l.27-.75c.1-.13.09-.31.2-.43h0a9.42,9.42,0,0,1,.36-.93l.36-.84a6.92,6.92,0,0,1,.39-.88h0a2.24,2.24,0,0,1,.25-.57l.47-1.1a8.83,8.83,0,0,1,.45-1l.46-1a6.87,6.87,0,0,1,.45-.9l.37-.82c.21-.28.25-.64.46-.92l.27-.54c.11-.14.16-.32.27-.46h0a3.66,3.66,0,0,1,.37-.74l.45-.82c.19-.29.33-.62.54-.91l.37-.63.46-.74.54-.82c.15-.17.23-.38.38-.54l.26-.37c.18-.24.35-.49.55-.73l.45-.55c.14-.2.33-.34.47-.54l.45-.44c.12.05.17.13.08.25a.11.11,0,0,0,0,.08,3.08,3.08,0,0,1-.47.83,2,2,0,0,0-.36.7c-.2.41-.39.83-.62,1.22a1.52,1.52,0,0,0-.29.6,9,9,0,0,1-.57,1.22,2,2,0,0,0-.33.72,8.28,8.28,0,0,1-.58,1.37,2.83,2.83,0,0,0-.34.89,1.42,1.42,0,0,1-.19.48h0a4.59,4.59,0,0,1-.39,1c-.86,2.16-1.54,4.39-2.19,6.62-1.1,3.81-2,7.66-2.74,11.55C218,506.45,217.68,508.36,217.33,510.26Z"/><path class="cls-44" d="M213.31,524.47a39.06,39.06,0,0,0-2.94-5.34c-.21-.3-.41-.63-.61-.94.07-.47-.14-.92-.08-1.39.21,0,.11-.28.27-.34l.17-.56a15.55,15.55,0,0,1,.54-1.63L211,513a15.38,15.38,0,0,1,.54-1.62l.37-1.2a14.75,14.75,0,0,1,.53-1.54l0,0a4.68,4.68,0,0,0,0-2.7c.12.11.19.27.22.67.13,1.63.36,3.26.48,4.91.07,1.16.11,2.32.18,3.48.14,2.14.09,4.28.05,6.41A20.33,20.33,0,0,1,213.31,524.47Z"/><path class="cls-45" d="M194.64,505.09c.37.2.39.58.48.92a6.77,6.77,0,0,1,.41,1.71c-.15,0-.17-.11-.26-.17l-.19-.2a2.87,2.87,0,0,1-.54-.56c-.16-.13-.2-.37-.4-.46a7.49,7.49,0,0,1-.69-.69l-.2-.21a7.82,7.82,0,0,1-.71-.7l-.21-.21c-.18-.15-.33-.33-.52-.46l-.37-.36c-.1-.09-.24-.14-.21-.31s.12-.13.21-.05.05,0,.07,0a1.13,1.13,0,0,1,.56.3.15.15,0,0,0,.17.07c.13.05.31.05.38.22s.37.31.63.33a6.36,6.36,0,0,1,1.19.67l.1.05S194.64,505,194.64,505.09Z"/><path class="cls-46" d="M244.75,510.09c.05-.43-.24,0-.29-.12a.05.05,0,0,1,0,0s0,0,0,0a2,2,0,0,1,.91-.35C245.07,509.76,245,510,244.75,510.09Z"/><path class="cls-47" d="M199.27,476.19l-.07,0a2.12,2.12,0,0,1-.16-.88.44.44,0,0,1,.34.34c-.1,0-.21-.08-.17.1S199.33,476,199.27,476.19Z"/><path class="cls-48" d="M187.63,487.48c-.1,0-.09.12-.1.19s-.06,0-.09,0a.5.5,0,0,1-.08-.12c0-.12-.26-.27-.08-.36S187.63,487.24,187.63,487.48Z"/><path class="cls-49" d="M218.51,513.91a.81.81,0,0,1-.09.63,1.1,1.1,0,0,1-.11-.53Z"/><path class="cls-50" d="M227.43,477.27l-.08-.25c0-.18.19-.18.38-.29A1.32,1.32,0,0,1,227.43,477.27Z"/><path class="cls-51" d="M191.44,503.34c-.08,0-.16,0-.19.1s-.18-.05-.26-.11-.12-.15,0-.17A.45.45,0,0,1,191.44,503.34Z"/><path class="cls-52" d="M238.28,498.33l-.27.19-.12-.12c0-.1.07-.13.14-.16l.16-.1c.07,0,.12.08.08.17Z"/><path class="cls-53" d="M238.27,498.31l-.08-.17c.06-.08.16-.11.21,0S238.35,498.26,238.27,498.31Z"/><path class="cls-37" d="M241.45,533.67h-6.3c-.18,0-.23-.06-.24-.23-.29-3-.73-5.91-1.26-8.85-.46-2.57-1-5.11-1.66-7.64a.4.4,0,0,0-.12-.27l-.26-1a8.07,8.07,0,0,0-.33-1.09h0c-.06,0-.06-.07-.08-.12-.11-.51-.28-1-.41-1.51a3.11,3.11,0,0,0-.22-.4.39.39,0,0,0,0-.38l-.34-1.09c-.19-.36-.22-.77-.4-1.14l-.27-.81c-.19-.34-.23-.73-.4-1.07l-.28-.75c-.15-.25-.2-.54-.33-.81l-.34-.81c-.15-.25-.19-.55-.33-.8l-.4-.89c-.08-.15-.14-.31-.21-.46l-.41-.89c-.18-.29-.31-.61-.47-.92l-.21-.43c-.14-.18-.19-.41-.33-.6l-.34-.68a.8.8,0,0,1-.23-.42c0-.08,0-.14.11-.12h.05a3.86,3.86,0,0,1,.68.66h0a1.16,1.16,0,0,1,.39.43c.09.1.13.25.27.31a2.51,2.51,0,0,1,.54.63c0,.06.05.15.13.18a1,1,0,0,1,.34.43l.33.45c.14,0,.15.17.21.27h0a.84.84,0,0,1,.2.29l.3.45a1.79,1.79,0,0,1,.38.56.78.78,0,0,0,.25.39c.13.08.16.22.22.35l.11.19c.13.08.15.23.23.35s.09.17.14.25a2,2,0,0,1,.33.56,5.27,5.27,0,0,0,.45.8c.17.13.2.35.3.53a1.42,1.42,0,0,0,.25.47,4.75,4.75,0,0,1,.41.77,1.59,1.59,0,0,0,.26.52,2.55,2.55,0,0,1,.42.82,2.24,2.24,0,0,0,.32.66,6,6,0,0,1,.42.89,1.83,1.83,0,0,0,.25.53,5.33,5.33,0,0,1,.43.94,1.54,1.54,0,0,0,.24.54,2.43,2.43,0,0,1,.3.68,3.16,3.16,0,0,0,.34.8c.06.14.22.2.25.36a16.33,16.33,0,0,0,.62,1.56c1.31,3.22,2.49,6.48,3.61,9.76.69,2.06,1.33,4.13,2,6.2A1,1,0,0,1,241.45,533.67Z"/><path class="cls-38" d="M250.35,533.67h-6.54a.48.48,0,0,1-.05-.42c.18-1.53.36-3.07.47-4.61a17.68,17.68,0,0,0,.09-1.78c.12-1.63.14-3.25.13-4.88a61.08,61.08,0,0,0-.4-6.89,12.64,12.64,0,0,0-.12-1.63,1.45,1.45,0,0,0-.08-.36l0-.33c-.17-.61-.24-1.24-.36-1.86a.16.16,0,0,0,0-.09l-.28-1.22c-.19-.45-.24-.94-.4-1.4l-.27-.89c-.18-.34-.24-.73-.4-1.08l-.33-.81c-.13-.26-.21-.54-.35-.8s-.17-.49-.34-.69c0-.13-.25-.23-.06-.4l.14.14c.09.09.23.14.26.29a1.67,1.67,0,0,0,.38.46,1.19,1.19,0,0,1,.36.47l.2.26c.19.11.23.32.34.48l.45.67a1.9,1.9,0,0,1,.36.57,1.06,1.06,0,0,0,.25.45,2.11,2.11,0,0,1,.35.62,1.52,1.52,0,0,0,.27.52,6.1,6.1,0,0,1,.55,1.08.88.88,0,0,0,.17.41,6.55,6.55,0,0,1,.32.58,42.92,42.92,0,0,1,2,5.4c0,.14,0,.28.06.41l.73,2.78c.12.1.1.27.17.4.34,1.37.62,2.75.87,4.14,0,.16.07.3.1.46.22,1.52.51,3,.69,4.55s.36,3.1.49,4.65A.41.41,0,0,1,250.35,533.67Z"/><path class="cls-39" d="M250.35,533.67c-.06-.9-.14-1.8-.25-2.7s-.18-1.72-.29-2.58-.29-1.92-.43-2.88a5.61,5.61,0,0,1-.17-1.41.7.7,0,0,1,.06-.55A32,32,0,0,1,252,517.8a5.53,5.53,0,0,1,.48-.68l.34-.51c.16-.16.22-.38.39-.54l.28-.4a4.42,4.42,0,0,1,.39-.47l.09-.14a1.38,1.38,0,0,1,.22-.26h0c0-.15.19-.23.27-.36l.12-.13c.09-.12.2-.22.28-.34l.06-.06c.13-.21.34-.34.48-.54l.26-.28a15.75,15.75,0,0,1,1.43-1.4h0a.45.45,0,0,1,.2-.21l.07-.07c.17-.11.29-.28.46-.4l.15-.14c.15-.09.25-.24.4-.34l.27-.21c.07-.07.11-.16.22-.18h0c.12-.1.2-.24.36-.28l.24-.21a2.73,2.73,0,0,1,.56-.4l.25-.21a2.41,2.41,0,0,1,.5-.33l.65-.48c.22-.12.42-.29.65-.4l.29-.2c.08,0,.15-.14.27-.12a.17.17,0,0,1,.1.1,4.46,4.46,0,0,1-.79.89c-.14.06-.16.22-.26.31a1.52,1.52,0,0,1-.42.49c-.11.05-.14.16-.19.26a2.27,2.27,0,0,1-.43.55c-.1.05-.1.18-.18.25a.58.58,0,0,1-.22.29l-.12.18a.85.85,0,0,1-.29.43.45.45,0,0,0-.17.27,2.44,2.44,0,0,1-.42.67,1,1,0,0,0-.26.45,3,3,0,0,1-.43.76c-.05.08-.12.15-.11.25-.19.4-.38.8-.59,1.18a1,1,0,0,0-.22.46,6.91,6.91,0,0,1-.43,1,1.71,1.71,0,0,0-.24.65,9.24,9.24,0,0,1-.46,1.24,3,3,0,0,0-.22.72c-.17.54-.25,1.11-.46,1.64a3.24,3.24,0,0,0-.21.92c-.15.66-.28,1.33-.37,2a1.06,1.06,0,0,1-.09.25,4.26,4.26,0,0,0-.15,1.12c-.06.12,0,.26-.07.37v0c-.09.81-.18,1.62-.22,2.44,0,.12-.06.28.11.35a.3.3,0,0,1,0,.29,18,18,0,0,0-1.84,5,.6.6,0,0,1-.16.33Z"/><path class="cls-40" d="M237.28,510.38v-.1c-.09-.16,0-.35-.07-.51a.51.51,0,0,0,0-.3c-.08-.14,0-.3-.06-.44v-.37c-.06-.12,0-.25-.06-.36v-.39a3.5,3.5,0,0,1-.15-1c-.08-.72-.17-1.43-.24-2.15h0c-.1-.15,0-.34-.07-.5l0,0h0c-.08-.11,0-.25-.06-.37v-.11c-.08-.1,0-.24-.06-.35l-.08-.66a4.8,4.8,0,0,1-.21-1.18c-.09-.52-.18-1-.25-1.55l-.22-1.25c-.16-.45-.17-.93-.29-1.39,0-.19-.07-.37-.11-.55l-.27-1.36c-.21-.55-.24-1.13-.4-1.69l-.28-1.21a13.87,13.87,0,0,1-.36-1.41c0-.12-.06-.23-.07-.35s.07-.19.18-.07l.16.15a1.75,1.75,0,0,1,.43.55.48.48,0,0,0,.18.26c.19.13.25.36.36.55l.36.59a2,2,0,0,1,.38.69,1.65,1.65,0,0,0,.3.59,6,6,0,0,1,.51,1.09.62.62,0,0,0,.14.32,8.41,8.41,0,0,1,.47,1.17,1.73,1.73,0,0,0,.21.59,6.92,6.92,0,0,1,.4,1.16,2.79,2.79,0,0,0,.27.86,15.37,15.37,0,0,1,.47,1.64,3.6,3.6,0,0,0,.21.86,11.35,11.35,0,0,1,.36,1.42,2.66,2.66,0,0,1,.1.49,6.66,6.66,0,0,0,.22,1.06,9.14,9.14,0,0,1,.29,1.38,5.4,5.4,0,0,1,.1.58h0c.1.11,0,.25.08.36a7.51,7.51,0,0,0,.21,1.33,5.49,5.49,0,0,1,.22,1.21c.09.57.16,1.14.24,1.72v.1c.09.11,0,.25.07.36a8.32,8.32,0,0,0,.15,1.4,1.91,1.91,0,0,1,.14.85c.08.77.18,1.55.23,2.33,0,.27,0,.55.09.82a.19.19,0,0,0,0,.18c.09.15,0,.33.06.49v.32c.07.11,0,.25.06.37v.5c.06.12,0,.25.06.36v.52c.17.4,0,.84.16,1.25,0,.33.13.64,0,1s-.24,0-.31-.1c-.44-.58-.89-1.15-1.36-1.7a31.82,31.82,0,0,0-2.34-2.45.57.57,0,0,1-.25-.45c0-.9,0-1.81-.06-2.72,0-.54,0-1.09-.07-1.64s-.07-1.11-.1-1.67A8.93,8.93,0,0,0,237.28,510.38Z"/><path class="cls-41" d="M252.78,533.67a21.2,21.2,0,0,1,1.41-4.39c.19-.41.45-.79.61-1.22,0,0,0-.08,0-.11h0a7.43,7.43,0,0,1,.47-.88l.34-.55A6,6,0,0,1,256,526l.26-.4.34-.48.2-.27.21-.27.06-.07c.1-.1.14-.25.26-.33l.28-.35c.15-.14.22-.34.4-.46l.21-.23a1.86,1.86,0,0,1,.46-.51l.14-.15c.17-.19.34-.36.52-.53l.16-.15a5.19,5.19,0,0,1,.53-.52l.14-.14.54-.47.14-.13c.19-.16.38-.33.59-.48l.22-.19a4.17,4.17,0,0,1,.53-.41l.34-.27c.11-.06.17-.17.29-.19h0a1.42,1.42,0,0,1,.49-.35l.3-.23a1.45,1.45,0,0,1,.5-.31l.58-.42a6,6,0,0,1,.7-.39l.31-.22a5.73,5.73,0,0,1,.84-.46l.38-.22a2.56,2.56,0,0,1,.6-.29c.09,0,.18-.13.27,0s0,.09-.06.12a.11.11,0,0,0,0,0,.77.77,0,0,1-.34.35,1,1,0,0,0-.33.33,3.2,3.2,0,0,1-.5.54.41.41,0,0,0-.18.19.7.7,0,0,1-.34.36c-.14.05-.16.22-.27.31a1.44,1.44,0,0,1-.43.49.44.44,0,0,0-.17.19,1.73,1.73,0,0,1-.48.56c-.08,0-.09.12-.13.18a4.12,4.12,0,0,1-.56.69l-.05.06a.74.74,0,0,1-.22.28l0,.06a2.12,2.12,0,0,1-.37.48.62.62,0,0,0-.24.33,2.21,2.21,0,0,1-.44.61c-.21.17-.28.44-.44.65a.92.92,0,0,1-.29.43c-.15.09-.15.27-.25.39a1.56,1.56,0,0,1-.35.56l-.26.45a1.27,1.27,0,0,1-.2.36h0a1.29,1.29,0,0,1-.28.48.76.76,0,0,0-.19.38,6,6,0,0,1-.48.9,3.13,3.13,0,0,0-.33.72,2.63,2.63,0,0,1-.35.76.66.66,0,0,0-.12.33,1.83,1.83,0,0,1-.14.35h0a10.12,10.12,0,0,1-.4,1.09.79.79,0,0,0-.14.44c-.21.54-.27,1.11-.49,1.65a8,8,0,0,0-.32,1.47l-2.86,0Z"/><path class="cls-42" d="M237.67,517.56c0,.23.27.29.41.42a32,32,0,0,1,3.63,4.17.24.24,0,0,0,.08.06c.12,0,.17.14.23.23a24.81,24.81,0,0,1,2.28,4c.07.14,0,.29.12.42,0,1.2-.12,2.4-.26,3.6-.11.89-.19,1.78-.28,2.67a1.83,1.83,0,0,0-.07.53h-2.36L240.31,530c-.51-1.62-1.05-3.24-1.61-4.84-.38-1.08-.77-2.16-1.16-3.23q-1.08-2.94-2.29-5.85c-.07-.16-.25-.32-.12-.54.18,0,.22.12.32.2l.12.09a1.14,1.14,0,0,1,.28.21h0a1.16,1.16,0,0,1,.34.28l.14.12a.82.82,0,0,1,.27.22l0,.05a1.46,1.46,0,0,1,.42.36.5.5,0,0,0,.2.18A1.86,1.86,0,0,1,237.67,517.56Z"/><path class="cls-43" d="M252.51,517.12c0,.2-.15.31-.24.46a30.84,30.84,0,0,0-2.05,3.85c-.33.74-.61,1.5-.9,2.25a2.88,2.88,0,0,0-.11.42,6.06,6.06,0,0,1-.33-1.46c-.25-1-.46-2.08-.68-3.13,0-.15,0-.32.07-.47.09-.83.17-1.67.27-2.5a52.53,52.53,0,0,1,1.09-6.24,32.12,32.12,0,0,1,2.48-7s0-.05,0-.07a4.53,4.53,0,0,1,.45-.84l.21-.4c.17-.24.3-.51.47-.74l.27-.41c.13-.15.22-.32.35-.47l.26-.34c.09-.12.19-.22.29-.33h0a.41.41,0,0,1,.19-.22h0l.21-.27.47-.48a1,1,0,0,1,.27-.26l.2-.2c.11,0,.17-.22.34-.15l.06.08a4.87,4.87,0,0,1-.32.47,1,1,0,0,0-.22.44,8.55,8.55,0,0,1-.45.91,1.3,1.3,0,0,0-.22.53c-.16.41-.28.83-.47,1.23a2.83,2.83,0,0,0-.28.85,10.68,10.68,0,0,1-.38,1.37,4.75,4.75,0,0,0-.23,1c-.12.72-.3,1.43-.37,2.16a.58.58,0,0,1-.08.22,4.79,4.79,0,0,0-.15,1.19c-.07.11,0,.26-.07.37v.1c-.07.16,0,.34-.07.5h0l-.24,3a20.8,20.8,0,0,1-.15,2.37c0,.69,0,1.38,0,2.06C252.42,517,252.41,517.08,252.51,517.12Z"/><path class="cls-44" d="M247.39,516.34c-.23-.53-.33-1.1-.52-1.65-.43-1.26-.9-2.52-1.38-3.76-.06-.14-.2-.23-.19-.39.27-.33.28-.78.48-1.14l.33-.88a6.24,6.24,0,0,1,.4-1l.21-.58a11.84,11.84,0,0,1,.46-1.17l.21-.56c.07-.09.06-.22.14-.32h0a5.74,5.74,0,0,1,.26-.69l.27-.62a5.37,5.37,0,0,1,.29-.65h0a1.46,1.46,0,0,1,.19-.42l.34-.82c.13-.23.18-.51.33-.73l.35-.75a5.21,5.21,0,0,1,.33-.67l.27-.61c.16-.2.19-.47.34-.67l.2-.4c.09-.11.12-.24.21-.34h0a2.1,2.1,0,0,1,.27-.54l.33-.61c.14-.22.25-.46.4-.67l.28-.47.33-.54.41-.61c.1-.13.17-.28.28-.41l.19-.27c.14-.18.26-.36.41-.54l.33-.4c.1-.15.25-.26.34-.41l.34-.32c.09,0,.13.09.06.19a0,0,0,0,0,0,.05,2.36,2.36,0,0,1-.35.62,1.45,1.45,0,0,0-.26.51c-.15.31-.29.62-.46.91a1.08,1.08,0,0,0-.22.44,5.68,5.68,0,0,1-.42.9,1.65,1.65,0,0,0-.25.54,6,6,0,0,1-.42,1,2,2,0,0,0-.25.66,2.24,2.24,0,0,1-.14.36h0a4,4,0,0,1-.29.75c-.64,1.6-1.14,3.25-1.62,4.9q-1.22,4.23-2,8.55C247.9,513.53,247.65,514.94,247.39,516.34Z"/><path class="cls-44" d="M244.42,526.87a29.88,29.88,0,0,0-2.18-4c-.16-.23-.3-.46-.45-.7.05-.34-.1-.68-.06-1,.15,0,.08-.21.2-.26l.13-.41a10.64,10.64,0,0,1,.39-1.21l.28-.95c.16-.39.21-.82.4-1.21l.28-.88a11.79,11.79,0,0,1,.39-1.14,0,0,0,0,0,0,0,3.41,3.41,0,0,0,0-2c.09.08.14.2.16.49.1,1.22.27,2.42.35,3.64.06.86.09,1.72.14,2.58.1,1.58.07,3.16,0,4.75A13.8,13.8,0,0,1,244.42,526.87Z"/><path class="cls-45" d="M230.6,512.52c.27.15.28.43.35.68a4.63,4.63,0,0,1,.3,1.26c-.1,0-.12-.08-.18-.12l-.15-.15a1.68,1.68,0,0,1-.39-.41c-.12-.1-.15-.28-.31-.34a6.14,6.14,0,0,1-.5-.52l-.16-.15c-.18-.16-.35-.34-.52-.52l-.16-.15a2.05,2.05,0,0,0-.38-.34l-.27-.27c-.07-.07-.18-.1-.16-.23s.09-.1.16,0h.05a.87.87,0,0,1,.42.23c0,.05.07.05.12.05s.23,0,.28.16.27.23.46.24a4.32,4.32,0,0,1,.89.5l.07,0S230.6,512.47,230.6,512.52Z"/><path class="cls-46" d="M267.69,516.21c0-.31-.18,0-.22-.08l0,0s0,0,0,0a1.54,1.54,0,0,1,.67-.25C267.93,516,267.88,516.16,267.69,516.21Z"/><path class="cls-47" d="M234,491.13l-.06,0a1.57,1.57,0,0,1-.12-.65.32.32,0,0,1,.26.25c-.08,0-.16-.06-.13.08A.57.57,0,0,1,234,491.13Z"/><path class="cls-48" d="M225.41,499.48c-.07,0-.07.09-.08.14s0,0-.06,0a.47.47,0,0,1-.06-.09c0-.09-.19-.2-.06-.27S225.4,499.3,225.41,499.48Z"/><path class="cls-49" d="M248.27,519a.63.63,0,0,1-.07.47.74.74,0,0,1-.08-.39Z"/><path class="cls-50" d="M254.87,491.93l-.06-.19c0-.14.14-.14.28-.22A1,1,0,0,1,254.87,491.93Z"/><path class="cls-51" d="M228.23,511.22c-.06,0-.12,0-.14.08a.25.25,0,0,1-.2-.09s-.08-.11,0-.12A.31.31,0,0,1,228.23,511.22Z"/><path class="cls-52" d="M262.9,507.52l-.2.14-.09-.1c0-.07.05-.09.11-.11l.11-.08c.06,0,.09.06.06.13Z"/><path class="cls-53" d="M262.89,507.5l-.06-.13c.05-.06.13-.08.16,0S263,507.46,262.89,507.5Z"/><path class="cls-37" d="M60,529.17H54.06c-.16,0-.21-.06-.23-.22-.27-2.79-.69-5.57-1.18-8.33-.44-2.42-1-4.82-1.57-7.2a.49.49,0,0,0-.1-.26l-.25-1c-.13-.34-.15-.7-.31-1h0c-.05,0-.05-.07-.07-.12-.1-.48-.26-.94-.39-1.42a2,2,0,0,0-.21-.38.38.38,0,0,0,0-.36l-.32-1c-.18-.34-.21-.73-.38-1.07l-.26-.77c-.18-.32-.21-.68-.38-1l-.25-.71a7,7,0,0,1-.32-.75l-.32-.77c-.14-.24-.18-.52-.31-.76l-.38-.83c-.07-.14-.12-.3-.2-.44l-.38-.83c-.17-.28-.29-.58-.44-.87l-.2-.4c-.13-.18-.18-.4-.31-.57l-.33-.64a.86.86,0,0,1-.21-.4c0-.07,0-.13.1-.11s0,0,0,0a4.31,4.31,0,0,1,.65.63h0a1.09,1.09,0,0,1,.37.4c.08.1.12.24.25.3a2.22,2.22,0,0,1,.51.59c0,.06,0,.14.12.17a.81.81,0,0,1,.32.41l.32.42c.12,0,.14.16.2.26h0a.77.77,0,0,1,.19.28l.29.42a1.75,1.75,0,0,1,.35.53.85.85,0,0,0,.23.37c.13.07.16.2.22.32l.1.18c.12.08.14.22.21.33s.09.16.14.24a1.76,1.76,0,0,1,.31.53,6.2,6.2,0,0,0,.42.75c.16.13.19.33.28.5a1.63,1.63,0,0,0,.24.45,3.35,3.35,0,0,1,.39.72,1.49,1.49,0,0,0,.24.49,2.57,2.57,0,0,1,.4.77,2.09,2.09,0,0,0,.3.62,6.46,6.46,0,0,1,.4.84,1.34,1.34,0,0,0,.23.5,5.53,5.53,0,0,1,.41.89,1.64,1.64,0,0,0,.22.51,2,2,0,0,1,.28.64,3.12,3.12,0,0,0,.33.75c.06.13.2.19.23.34.15.51.39,1,.58,1.47,1.24,3,2.35,6.1,3.4,9.2.66,1.93,1.26,3.88,1.86,5.83A1.07,1.07,0,0,1,60,529.17Z"/><path class="cls-38" d="M68.39,529.17H62.22c-.11-.12-.07-.26,0-.39.17-1.45.35-2.9.45-4.35a15.74,15.74,0,0,0,.08-1.68c.11-1.53.13-3.06.12-4.59a56.22,56.22,0,0,0-.37-6.49,13.13,13.13,0,0,0-.11-1.54,1.21,1.21,0,0,0-.09-.34l0-.31c-.16-.57-.23-1.17-.34-1.75a.11.11,0,0,0,0-.08l-.26-1.16c-.18-.42-.23-.88-.37-1.32l-.26-.84c-.17-.32-.22-.68-.38-1l-.31-.77c-.13-.24-.2-.51-.32-.75s-.17-.46-.33-.65-.24-.22-.06-.38l.14.13c.08.09.21.14.24.28a1.65,1.65,0,0,0,.36.43,1.22,1.22,0,0,1,.34.44l.18.25c.18.1.22.3.33.46l.42.63a1.72,1.72,0,0,1,.34.53,1,1,0,0,0,.23.42,2.16,2.16,0,0,1,.34.59,1.34,1.34,0,0,0,.25.49,6.11,6.11,0,0,1,.52,1,.86.86,0,0,0,.16.38c.12.17.19.37.3.55a41.61,41.61,0,0,1,1.84,5.08c0,.14,0,.27.06.4l.68,2.61c.12.1.09.26.16.38.32,1.29.59,2.59.82,3.9,0,.15.07.29.1.43.2,1.43.48,2.86.64,4.29s.34,2.92.47,4.38A.43.43,0,0,1,68.39,529.17Z"/><path class="cls-39" d="M68.39,529.17c-.07-.85-.14-1.7-.24-2.54s-.17-1.63-.28-2.44-.27-1.8-.4-2.7a5.53,5.53,0,0,1-.17-1.34.68.68,0,0,1,.07-.52,29.57,29.57,0,0,1,2.6-5.41,4.71,4.71,0,0,1,.45-.65l.32-.47c.14-.15.21-.37.37-.51l.26-.38a3.08,3.08,0,0,1,.37-.44l.08-.13a1.21,1.21,0,0,1,.21-.24h0c0-.14.18-.21.25-.33l.12-.13c.08-.11.18-.21.26-.32l.06-.06c.12-.19.32-.32.45-.51l.25-.26a13.91,13.91,0,0,1,1.34-1.32h0a.46.46,0,0,1,.19-.2l.06-.06c.17-.1.28-.27.44-.38l.14-.13c.14-.08.24-.23.37-.32l.26-.2c.06-.06.11-.15.21-.16h0c.11-.1.19-.22.34-.26l.22-.2a2.51,2.51,0,0,1,.54-.38l.23-.2a2.09,2.09,0,0,1,.47-.3l.61-.46c.21-.12.4-.27.62-.38l.27-.19c.08,0,.14-.12.25-.11a.17.17,0,0,1,.1.1,4.54,4.54,0,0,1-.75.83c-.13.06-.15.21-.25.3a1.33,1.33,0,0,1-.39.46c-.1,0-.13.15-.18.24a2.25,2.25,0,0,1-.4.52c-.1.05-.1.17-.17.24a.57.57,0,0,1-.21.27l-.11.17a.8.8,0,0,1-.27.4.46.46,0,0,0-.17.26,2,2,0,0,1-.39.63,1.1,1.1,0,0,0-.25.43,3.16,3.16,0,0,1-.4.72.38.38,0,0,0-.11.23c-.18.37-.35.75-.56,1.11a1.06,1.06,0,0,0-.2.43,5.77,5.77,0,0,1-.41,1,1.66,1.66,0,0,0-.22.61,8.8,8.8,0,0,1-.43,1.18,2.27,2.27,0,0,0-.21.67c-.16.51-.23,1.05-.43,1.55a2.84,2.84,0,0,0-.2.86c-.14.63-.26,1.26-.35,1.89a1.17,1.17,0,0,1-.09.24,4.65,4.65,0,0,0-.14,1c-.06.11,0,.24-.06.35h0v0c-.09.77-.18,1.54-.21,2.31,0,.11-.06.26.1.32a.24.24,0,0,1,0,.27,17.53,17.53,0,0,0-1.73,4.69.53.53,0,0,1-.15.31Z"/><path class="cls-40" d="M56.06,507.23v-.1c-.08-.15,0-.32-.06-.48a.53.53,0,0,0,0-.28c-.08-.13,0-.28-.06-.41v-.36c-.06-.1,0-.23-.06-.33v-.37a3.43,3.43,0,0,1-.14-1c-.08-.68-.16-1.35-.23-2h0c-.1-.15,0-.32-.07-.47v0c-.08-.1,0-.23-.06-.34V501c-.07-.11,0-.24-.06-.34l-.07-.62a4.71,4.71,0,0,1-.2-1.11c-.08-.49-.17-1-.24-1.46l-.2-1.18a9.82,9.82,0,0,1-.27-1.31,4.76,4.76,0,0,1-.1-.52L54,493.15c-.2-.51-.23-1.06-.38-1.59l-.26-1.14a12.35,12.35,0,0,1-.34-1.33,1.91,1.91,0,0,1-.06-.33c0-.14,0-.17.16-.06l.16.14a1.72,1.72,0,0,1,.4.52.51.51,0,0,0,.17.24c.18.12.23.34.34.51l.34.56a2.08,2.08,0,0,1,.36.65,1.35,1.35,0,0,0,.28.56,6.33,6.33,0,0,1,.48,1,.49.49,0,0,0,.13.31,7.42,7.42,0,0,1,.44,1.1,1.56,1.56,0,0,0,.2.56,6.09,6.09,0,0,1,.37,1.09,2.84,2.84,0,0,0,.26.81,13.71,13.71,0,0,1,.44,1.55,4.26,4.26,0,0,0,.2.8,10.52,10.52,0,0,1,.34,1.34c0,.15.07.31.1.46a5.54,5.54,0,0,0,.2,1,8.34,8.34,0,0,1,.27,1.3,4.86,4.86,0,0,1,.1.55h0c.09.1,0,.24.07.34a8.57,8.57,0,0,0,.2,1.25,4.49,4.49,0,0,1,.21,1.14c.09.54.15,1.08.23,1.62v.1c.08.1,0,.23.06.34a9.71,9.71,0,0,0,.14,1.31,1.73,1.73,0,0,1,.13.81c.08.73.17,1.45.22,2.19,0,.26,0,.52.08.78a.18.18,0,0,0,0,.16c.08.15,0,.32.06.47v.29c.07.11,0,.24.06.35v.48c.06.11,0,.23,0,.34l0,.49c.15.38,0,.79.14,1.18s.13.6,0,.9-.23,0-.3-.08c-.41-.55-.83-1.09-1.28-1.61a26.67,26.67,0,0,0-2.21-2.3.56.56,0,0,1-.23-.43c0-.85,0-1.71-.06-2.56,0-.51,0-1-.06-1.55s-.07-1-.1-1.57A6.35,6.35,0,0,0,56.06,507.23Z"/><path class="cls-41" d="M70.67,529.17A19.9,19.9,0,0,1,72,525c.18-.4.43-.75.57-1.15a.07.07,0,0,1,0-.11h0c.12-.29.3-.55.45-.83l.31-.51c.12-.16.2-.35.32-.51l.25-.37c.12-.15.21-.31.32-.45l.19-.26.2-.25.06-.07c.09-.09.13-.23.24-.31l.27-.33c.13-.13.2-.32.37-.43l.2-.22a1.79,1.79,0,0,1,.43-.48l.14-.14a5.78,5.78,0,0,1,.49-.5L77,518a3.37,3.37,0,0,1,.51-.49l.13-.13c.16-.16.34-.3.5-.45l.14-.12c.18-.15.35-.31.55-.45l.21-.18a4.78,4.78,0,0,1,.5-.39l.32-.25c.1,0,.16-.16.27-.18h0a1.5,1.5,0,0,1,.46-.33l.29-.21a1.3,1.3,0,0,1,.47-.3l.55-.39a6.11,6.11,0,0,1,.65-.38l.3-.2a5.05,5.05,0,0,1,.79-.43l.36-.21a2.44,2.44,0,0,1,.56-.28c.09,0,.17-.11.25,0s0,.09,0,.12a.09.09,0,0,0,0,0,.78.78,0,0,1-.32.33.84.84,0,0,0-.31.31,2.9,2.9,0,0,1-.48.51.37.37,0,0,0-.16.17.71.71,0,0,1-.32.34c-.14.05-.15.22-.26.3a1.46,1.46,0,0,1-.4.46.4.4,0,0,0-.16.18c-.14.18-.24.41-.45.52s-.09.11-.13.18a3.24,3.24,0,0,1-.52.64l0,.06a.67.67,0,0,1-.21.26l0,.06a1.67,1.67,0,0,1-.34.45.59.59,0,0,0-.23.31,2.17,2.17,0,0,1-.41.58c-.21.16-.27.42-.42.61a1,1,0,0,1-.27.41c-.15.08-.14.25-.24.37a1.44,1.44,0,0,1-.33.52l-.24.42a.9.9,0,0,1-.2.34h0a1.38,1.38,0,0,1-.27.45.66.66,0,0,0-.18.35,4.69,4.69,0,0,1-.45.86,3.14,3.14,0,0,0-.31.67,2.36,2.36,0,0,1-.33.72.58.58,0,0,0-.11.31,1.89,1.89,0,0,1-.13.33h0a9,9,0,0,1-.38,1,.69.69,0,0,0-.13.41c-.2.51-.26,1-.46,1.55a7.33,7.33,0,0,0-.3,1.39l-2.7,0Z"/><path class="cls-42" d="M56.44,514c0,.22.25.27.38.4a29.12,29.12,0,0,1,3.42,3.93.24.24,0,0,0,.08.06c.11,0,.16.13.22.21a24.72,24.72,0,0,1,2.15,3.78c.06.13,0,.27.1.39,0,1.14-.11,2.27-.24,3.4-.1.83-.18,1.67-.26,2.51a1.68,1.68,0,0,0-.07.5H60l-1.08-3.47c-.47-1.54-1-3.05-1.52-4.57-.35-1-.72-2-1.09-3-.68-1.85-1.39-3.69-2.15-5.51-.07-.15-.24-.3-.12-.51.17-.05.21.11.3.19l.11.08a.79.79,0,0,1,.27.21h0a.94.94,0,0,1,.32.27l.13.1a.78.78,0,0,1,.26.22l0,0a1.59,1.59,0,0,1,.39.34.39.39,0,0,0,.19.17A2.31,2.31,0,0,1,56.44,514Z"/><path class="cls-43" d="M70.42,513.57c0,.2-.14.3-.23.44a30.73,30.73,0,0,0-1.93,3.63c-.31.7-.58,1.41-.85,2.12,0,.12-.07.26-.11.39a5.78,5.78,0,0,1-.3-1.37c-.24-1-.43-2-.64-2.95,0-.14,0-.31.06-.44.08-.79.17-1.57.26-2.36a48.84,48.84,0,0,1,1-5.88A31.14,31.14,0,0,1,70,500.54s0,0,0-.06a4.34,4.34,0,0,1,.43-.79l.19-.38c.16-.22.28-.48.45-.7l.25-.38c.12-.14.21-.3.33-.44l.24-.32.27-.31h0c0-.1.1-.15.18-.21h0a2.43,2.43,0,0,1,.2-.25l.43-.46a1.18,1.18,0,0,1,.26-.24l.19-.19c.11,0,.16-.21.32-.14l.06.07c-.11.14-.18.31-.3.45a.91.91,0,0,0-.22.41,6.84,6.84,0,0,1-.42.86,1.43,1.43,0,0,0-.21.49c-.14.39-.26.79-.43,1.16a2.61,2.61,0,0,0-.27.8,11.34,11.34,0,0,1-.36,1.3,3.69,3.69,0,0,0-.21.93c-.12.68-.29,1.35-.36,2a.58.58,0,0,1-.07.21,4.63,4.63,0,0,0-.14,1.11c-.06.11,0,.24-.07.35V506c-.07.16,0,.33-.06.48h0c-.08.93-.16,1.86-.23,2.79a16.74,16.74,0,0,1-.14,2.24c0,.65,0,1.29,0,1.94C70.34,513.46,70.33,513.54,70.42,513.57Z"/><path class="cls-44" d="M65.6,512.85a14.11,14.11,0,0,1-.49-1.56c-.41-1.19-.85-2.37-1.31-3.55,0-.12-.18-.21-.18-.36.26-.31.27-.73.45-1.08l.31-.83a8.55,8.55,0,0,1,.38-1L65,504a10.67,10.67,0,0,1,.44-1.11l.19-.52c.07-.09.06-.21.14-.3h0c.07-.22.16-.43.25-.64l.26-.59a4.18,4.18,0,0,1,.27-.61h0a1.49,1.49,0,0,1,.17-.39l.33-.77c.12-.22.17-.48.31-.69l.32-.7a6.19,6.19,0,0,1,.32-.63l.26-.58c.15-.19.17-.44.32-.63l.18-.38c.08-.1.12-.22.2-.32h0a2.67,2.67,0,0,1,.25-.51l.32-.57c.13-.21.23-.44.37-.64l.26-.44c.11-.17.22-.34.32-.51l.38-.57c.1-.12.16-.27.26-.38l.19-.26c.12-.17.24-.34.38-.51l.31-.38c.1-.14.24-.24.33-.38l.31-.31c.09,0,.13.09.06.18a.06.06,0,0,0,0,.06,2.23,2.23,0,0,1-.33.58,1.3,1.3,0,0,0-.25.48c-.14.29-.27.58-.43.85a1,1,0,0,0-.2.42,8.26,8.26,0,0,1-.4.85,1.31,1.31,0,0,0-.23.51,6.59,6.59,0,0,1-.4,1,1.74,1.74,0,0,0-.24.62,1.4,1.4,0,0,1-.13.34h0a3.49,3.49,0,0,1-.27.7c-.6,1.51-1.07,3.06-1.52,4.62-.77,2.66-1.4,5.34-1.92,8.06C66.07,510.19,65.84,511.52,65.6,512.85Z"/><path class="cls-44" d="M62.79,522.76a26.39,26.39,0,0,0-2-3.72c-.15-.22-.28-.44-.42-.66,0-.33-.1-.65-.06-1,.14,0,.08-.2.19-.24l.12-.39a11.65,11.65,0,0,1,.37-1.14l.27-.89a10.84,10.84,0,0,1,.37-1.14l.26-.83a9.64,9.64,0,0,1,.37-1.07v0a3.21,3.21,0,0,0,0-1.89c.09.08.14.19.16.47.09,1.14.25,2.28.33,3.42,0,.81.08,1.62.13,2.43.1,1.49.07,3,0,4.47A13.22,13.22,0,0,1,62.79,522.76Z"/><path class="cls-45" d="M49.77,509.24c.26.14.27.4.33.64a4.48,4.48,0,0,1,.29,1.2c-.1,0-.12-.08-.18-.12l-.13-.15a1.71,1.71,0,0,1-.38-.38c-.11-.09-.14-.26-.28-.32s-.32-.32-.48-.49l-.14-.14a4.53,4.53,0,0,1-.49-.49l-.15-.15c-.12-.1-.23-.23-.36-.32l-.26-.25c-.07-.06-.17-.1-.15-.21s.08-.1.15,0h.05c.14.06.3.08.39.21s.07,0,.12,0,.21,0,.26.15.26.22.44.23a3.78,3.78,0,0,1,.83.47l.07,0S49.77,509.19,49.77,509.24Z"/><path class="cls-46" d="M84.72,512.72c0-.29-.17,0-.2-.07s0,0,0,0,0,0,0,0a1.41,1.41,0,0,1,.64-.24C84.94,512.49,84.9,512.67,84.72,512.72Z"/><path class="cls-47" d="M53,489.09l0,0a1.51,1.51,0,0,1-.11-.61.31.31,0,0,1,.24.24c-.07,0-.15-.06-.12.07A.57.57,0,0,1,53,489.09Z"/><path class="cls-48" d="M44.88,497c-.06,0-.06.08-.07.13s0,0-.06,0,0-.05,0-.08-.18-.2-.06-.26S44.88,496.79,44.88,497Z"/><path class="cls-49" d="M66.42,515.39a.57.57,0,0,1-.07.44.79.79,0,0,1-.07-.37Z"/><path class="cls-50" d="M72.64,489.84l-.06-.18c0-.12.14-.12.27-.2A1,1,0,0,1,72.64,489.84Z"/><path class="cls-51" d="M47.54,508s-.11,0-.13.07-.13,0-.18-.08-.09-.1,0-.12A.32.32,0,0,1,47.54,508Z"/><path class="cls-52" d="M80.21,504.53l-.19.13-.09-.09c0-.07,0-.08.1-.1l.11-.08s.09.06.06.12Z"/><path class="cls-53" d="M80.2,504.51l-.06-.12c0-.05.12-.07.15,0S80.26,504.48,80.2,504.51Z"/></svg>