<svg id="Layer_1" data-name="Layer 1" xmlns="http://www.w3.org/2000/svg" width="1024" height="600" viewBox="0 0 1024 600">
  <defs>
    <style>
      .cls-1 {
        fill: #cff6f9;
      }
    </style>
  </defs>
  <title>2_clouds_move_up_and_down</title>
  <path class="cls-1" d="M873.17,158.29c0-1.25,0-2.51-.13-3.77a59.3,59.3,0,0,0-106.86-31.14,64.72,64.72,0,1,0-103.64,77.25,40.23,40.23,0,1,0,17.35,71.57A40.22,40.22,0,0,0,739,283.88a60.64,60.64,0,0,0,94.8-14.12,59.32,59.32,0,1,0,39.39-111.47Z"/>
  <path class="cls-1" d="M414.86,108.26c0-1.63-.05-3.27-.17-4.92A77.45,77.45,0,0,0,275.14,62.66,84.52,84.52,0,1,0,139.79,163.54,52.54,52.54,0,1,0,162.44,257a52.53,52.53,0,0,0,77.17,15.27,79.19,79.19,0,0,0,123.8-18.44,77.46,77.46,0,1,0,51.45-145.58Z"/>
</svg>
