<svg id="Layer_1" data-name="Layer 1" xmlns="http://www.w3.org/2000/svg" xmlns:xlink="http://www.w3.org/1999/xlink" width="299.74" height="213.63" viewBox="0 0 299.74 213.63">
  <defs>
    <style>
      .cls-1 {
        fill: none;
      }

      .cls-2 {
        fill: #9e005d;
      }

      .cls-3 {
        fill: #870659;
      }

      .cls-4 {
        clip-path: url(#clip-path);
      }

      .cls-5 {
        fill: #ff960e;
      }

      .cls-6 {
        fill: #fff;
      }

      .cls-7 {
        fill: #8b5e3c;
      }

      .cls-8 {
        fill: #603913;
      }
    </style>
    <clipPath id="clip-path">
      <path id="SVGID" class="cls-1" d="M87.81,103.51c21.06-21.31,64.87-51.34,104.05-8.93s46.63,65.12,59.53,69.15c-8.65,20.76-54.69,64.71-125.49,44.77S54.24,137.48,87.81,103.51Z"/>
    </clipPath>
  </defs>
  <title>04_a_big_bird_flying</title>
  <g>
    <path class="cls-2" d="M299.74,185.35c0-4.51-3.55-8.26-8.34-9.37l.07-.07s-53-9.14-66-33.12-22.62-1.08-22.62-1.08-4.17,37.07,54.5,70.11l.1-.1a12.29,12.29,0,0,0,6.63,1.91c5.28,0,9.67-3.18,10.87-7.43a12.28,12.28,0,0,0,6.67,1.94c6.2,0,11.23-4.37,11.23-9.75a8.61,8.61,0,0,0-.89-3.8C296.48,193.3,299.75,189.68,299.74,185.35Z"/>
    <path class="cls-2" d="M159.5,130.3a19.61,19.61,0,0,0-2.33-2.38c-20.8-21.61-38-55.56-38-55.56-62.83,18-17.41,88.88-17.41,88.88h0c2.55,5.42,7.78,8.57,12.62,7.23,4.44-1.23,7.17-5.88,7.13-11.24,3.74,5.54,10,8.2,15.16,6,4.91-2.08,7.32-7.85,6.42-14,5.37,4.21,12.23,4.94,16.71,1.26C165.15,146.08,165,137,159.5,130.3Z"/>
    <g>
      <path class="cls-3" d="M87.81,103.51c21.06-21.31,64.87-51.34,104.05-8.93s46.63,65.12,59.53,69.15c-8.65,20.76-54.69,64.71-125.49,44.77S54.24,137.48,87.81,103.51Z"/>
      <g class="cls-4">
        <path class="cls-2" d="M170.1,155.16c32.3,15.6,47.77,46.39,34.55,68.78s-50.13,27.9-82.44,12.3-47.77-46.39-34.55-68.78S137.79,139.57,170.1,155.16Z"/>
      </g>
    </g>
    <path class="cls-2" d="M223.62,101a19.61,19.61,0,0,0-3.32-.31c-29.84-3.07-64.92-17.85-64.92-17.85C119,137.18,199.5,162,199.5,162h0c5.45,2.49,11.48,1.52,14.31-2.63,2.6-3.81,1.68-9.12-1.81-13.19,6.43,1.81,12.9-.17,15.45-5.21,2.41-4.76.52-10.72-4.14-14.83,6.82-.26,12.53-4.13,13.57-9.83C238.13,109.42,232.2,102.59,223.62,101Z"/>
    <g>
      <path class="cls-5" d="M25.7,124,11,154.89a3.58,3.58,0,0,0,4.91,4.69l11.53-6.13L29.31,165a3.58,3.58,0,0,0,6,2L59.69,143.4Z"/>
      <path class="cls-2" d="M131.72,7.52C113.15-18.39,33.78,31,33.78,31a67.51,67.51,0,1,0,97.88,37.37c5.17-.45,7.82-2.22,8.43-4.48,2.17-8.09-11.79-16.94-11.79-16.94s17.74,4.25,17.62-5.74c-.14-11.14-29.21-15.74-29.21-15.74S143.3,26.19,131.72,7.52Z"/>
      <circle class="cls-6" cx="52.65" cy="97.67" r="31.16" transform="translate(-41.78 39.39) rotate(-29.99)"/>
      <g>
        <circle class="cls-7" cx="51.99" cy="99.95" r="20.21" transform="translate(-57.24 127.52) rotate(-76.68)"/>
        <circle class="cls-8" cx="51.37" cy="100.25" r="11.02" transform="translate(-58.02 127.14) rotate(-76.68)"/>
        <circle class="cls-6" cx="48.29" cy="87.77" r="7.07" transform="translate(-48.24 114.55) rotate(-76.68)"/>
      </g>
    </g>
  </g>
</svg>
