<svg id="Layer_1" data-name="Layer 1" xmlns="http://www.w3.org/2000/svg" xmlns:xlink="http://www.w3.org/1999/xlink" width="294.23" height="215.26" viewBox="0 0 294.23 215.26">
  <defs>
    <style>
      .cls-1 {
        fill: none;
      }

      .cls-2 {
        fill: #9e005d;
      }

      .cls-3 {
        fill: #870659;
      }

      .cls-4 {
        clip-path: url(#clip-path);
      }

      .cls-5 {
        fill: #ff960e;
      }

      .cls-6 {
        fill: #fff;
      }

      .cls-7 {
        fill: #8b5e3c;
      }

      .cls-8 {
        fill: #603913;
      }
    </style>
    <clipPath id="clip-path">
      <path id="SVGID" class="cls-1" d="M83.37,105.21c21.06-21.31,64.87-51.34,104.05-8.93S234.06,161.4,247,165.43c-8.65,20.76-54.69,64.71-125.49,44.77S49.8,139.18,83.37,105.21Z"/>
    </clipPath>
  </defs>
  <title>04_a_big_bird_flying</title>
  <g>
    <path class="cls-2" d="M279.91,94.87c-4.1-1.88-9-.22-12,3.67l0-.09s-30.42,44.32-57.64,46.13-10.42,20.11-10.42,20.11,32,19.26,86.46-20.26l-.05-.13a12.29,12.29,0,0,0,4.51-5.23c2.2-4.8,1.15-10.12-2.22-13a12.28,12.28,0,0,0,4.55-5.25c2.59-5.64.72-12-4.18-14.27a8.61,8.61,0,0,0-3.83-.78C285.77,101.16,283.84,96.67,279.91,94.87Z"/>
    <path class="cls-2" d="M150.88,15.69a19.61,19.61,0,0,0-1.28,3.08c-11.77,27.59-36.28,56.72-36.28,56.72,41.1,50.82,88.62-18.7,88.62-18.7h0c4-4.47,4.85-10.51,1.72-14.45-2.87-3.61-8.22-4.3-13.14-2.18,3.64-5.6,3.66-12.38-.39-16.3-3.83-3.71-10.08-3.67-15.39-.44,1.78-6.59-.23-13.19-5.37-15.88C163.2,4.32,154.92,8,150.88,15.69Z"/>
    <g>
      <path class="cls-3" d="M83.37,105.21c21.06-21.31,64.87-51.34,104.05-8.93S234.06,161.4,247,165.43c-8.65,20.76-54.69,64.71-125.49,44.77S49.8,139.18,83.37,105.21Z"/>
      <g class="cls-4">
        <path class="cls-2" d="M165.66,156.86c32.3,15.6,47.77,46.39,34.55,68.78s-50.13,27.9-82.44,12.3S70,191.55,83.23,169.16,133.36,141.26,165.66,156.86Z"/>
      </g>
    </g>
    <path class="cls-2" d="M210.78,45.79a19.61,19.61,0,0,0-2.44,2.27c-22.18,20.2-56.58,36.5-56.58,36.5,16.25,63.3,88.37,19.84,88.37,19.84h0c5.49-2.4,8.79-7.54,7.57-12.42-1.11-4.48-5.68-7.33-11-7.44,5.64-3.58,8.47-9.73,6.42-15-1.94-5-7.64-7.53-13.81-6.8,4.36-5.25,5.27-12.09,1.72-16.67C226.7,40.57,217.66,40.44,210.78,45.79Z"/>
    <g>
      <path class="cls-5" d="M22.37,101.39.82,127.89a3.58,3.58,0,0,0,3.66,5.72l12.65-3.23L16.21,142a3.58,3.58,0,0,0,5.37,3.37l29.24-17.12Z"/>
      <path class="cls-2" d="M152.94,13.23C141-16.33,52.22,12.87,52.22,12.87a67.51,67.51,0,1,0,86.27,59.45c5.13.79,8.13-.31,9.25-2.36,4-7.35-7.45-19.25-7.45-19.25S156.54,59,158.77,49.3c2.49-10.86-24.66-22.2-24.66-22.2S159.77,34.11,152.94,13.23Z"/>
      <circle class="cls-6" cx="54.79" cy="82.14" r="31.16" transform="translate(-20.87 18.7) rotate(-16.32)"/>
      <g>
        <circle class="cls-7" cx="53.61" cy="84.19" r="20.21" transform="translate(-45.74 93.75) rotate(-63.01)"/>
        <circle class="cls-8" cx="52.94" cy="84.34" r="11.02" transform="translate(-46.24 93.23) rotate(-63.01)"/>
        <circle class="cls-6" cx="52.9" cy="71.49" r="7.07" transform="translate(-34.81 86.18) rotate(-63.01)"/>
      </g>
    </g>
  </g>
</svg>
