<svg id="Layer_1" data-name="Layer 1" xmlns="http://www.w3.org/2000/svg" xmlns:xlink="http://www.w3.org/1999/xlink" width="260" height="420" viewBox="0 0 260 420">
  <defs>
    <style>
      .cls-1 {
        fill: #a46838;
      }

      .cls-2 {
        clip-path: url(#clip-path);
      }

      .cls-3 {
        fill: none;
      }

      .cls-10, .cls-3 {
        stroke: #875330;
        stroke-miterlimit: 10;
        stroke-width: 1.15px;
      }

      .cls-4 {
        fill: gray;
      }

      .cls-5 {
        fill: #b3b3b3;
      }

      .cls-6 {
        fill: #d98f38;
      }

      .cls-7 {
        fill: #b87127;
      }

      .cls-8 {
        fill: #dba158;
      }

      .cls-9 {
        fill: #acc954;
      }

      .cls-10 {
        fill: #a46635;
      }

      .cls-11 {
        fill: #ba8365;
      }

      .cls-12 {
        fill: #478cca;
      }

      .cls-13 {
        fill: #9b5a2b;
      }

      .cls-14 {
        fill: #0a0807;
      }

      .cls-15 {
        fill: #9a5b2a;
      }

      .cls-16 {
        fill: #c67634;
      }

      .cls-17 {
        fill: #a35c28;
      }

      .cls-18 {
        fill: #a46737;
      }

      .cls-19 {
        fill: #a36535;
      }

      .cls-20 {
        fill: #498ecb;
      }

      .cls-21 {
        fill: #d12127;
      }

      .cls-22 {
        fill: #2daf4a;
      }

      .cls-23 {
        fill: #fbe400;
      }

      .cls-24 {
        fill: #a56636;
      }

      .cls-25 {
        fill: #6f421d;
      }

      .cls-26 {
        fill: #724625;
      }

      .cls-27 {
        fill: #f8f6f3;
      }

      .cls-28 {
        fill: #532f26;
      }

      .cls-29 {
        fill: #080707;
      }

      .cls-30 {
        fill: #f7f6f5;
      }

      .cls-31 {
        fill: #522717;
      }

      .cls-32 {
        fill: #6b3217;
      }

      .cls-33 {
        fill: #572610;
      }

      .cls-34 {
        fill: #c77a2a;
      }

      .cls-35 {
        fill: #368622;
      }

      .cls-36 {
        fill: #3b6420;
      }

      .cls-37 {
        fill: #f5fe7f;
      }

      .cls-38 {
        fill: #d2db4a;
      }

      .cls-39 {
        fill: #854e30;
      }

      .cls-40 {
        fill: #a36445;
      }

      .cls-41 {
        fill: #613721;
      }

      .cls-42 {
        fill: #fcdd11;
      }

      .cls-43 {
        fill: #ffcb33;
      }

      .cls-44 {
        fill: #d8a413;
      }
    </style>
    <clipPath id="clip-path">
      <path id="_Clipping_Path_" data-name="&lt;Clipping Path&gt;" class="cls-1" d="M135.1,199.21c4.1,4.67-3.2,12.7-3.2,12.7-70.89,1-43.78,44.84-51,53.5s-9.85,6-9.85,6c-6.52,4.88-9.42.06-9.42.06-7.85,5.55-9.66-1.3-9.66-1.3-7.37,4.92-9.35-1-9.35-1-1.5-3.16,2.88-15.25,2.88-15.25-5.32-5-3.28-12.08.19-15.94C50.47,232.73,61,226.54,61,226.54,94.66,195.74,129.49,192.82,135.1,199.21Z"/>
    </clipPath>
  </defs>
  <title>20_Akili_takes_food_and_eat</title>
  <g>
    <g>
      <g>
        <path id="_Clipping_Path_2" data-name="&lt;Clipping Path&gt;" class="cls-1" d="M135.1,199.21c4.1,4.67-3.2,12.7-3.2,12.7-70.89,1-43.78,44.84-51,53.5s-9.85,6-9.85,6c-6.52,4.88-9.42.06-9.42.06-7.85,5.55-9.66-1.3-9.66-1.3-7.37,4.92-9.35-1-9.35-1-1.5-3.16,2.88-15.25,2.88-15.25-5.32-5-3.28-12.08.19-15.94C50.47,232.73,61,226.54,61,226.54,94.66,195.74,129.49,192.82,135.1,199.21Z"/>
        <g class="cls-2">
          <path class="cls-3" d="M50.87,272.38s4.05-7.77,3.74-12.39"/>
          <path class="cls-3" d="M61.16,272.54s3-8.22,2.14-12.76"/>
          <path class="cls-3" d="M67.45,257.08s8.7-.89,2.93,15.79"/>
          <path class="cls-3" d="M71.68,258.9s6.68-6.44,5.92,5.66"/>
        </g>
      </g>
      <g>
        <path class="cls-4" d="M73.88,244.83c1.67,2.39-1.62,4.82-3.38,6a67.18,67.18,0,0,1-22,9.29c-1.67.37-3.88.54-4.87,2.14-1.11,1.8-1.35,4.14-2.21,6.07l-.08.17A7.22,7.22,0,0,1,38,271.91c-.76.37-1.4.91-2.12,1.35a14.49,14.49,0,0,1-2.52,1.48c-.55.19-1.16.29-1.72.46a31,31,0,0,1-3.63,1,13.61,13.61,0,0,1-3.27.09,16.08,16.08,0,0,1-3.21-.42c-.9-.24-1.79-.6-2.67-.92a5.48,5.48,0,0,1-2-1.13,3.93,3.93,0,0,0-.46-.34,10.49,10.49,0,0,1-2.13-1.84,21,21,0,0,1-3.16-5.26,8.32,8.32,0,0,1-.76-2.85,4.26,4.26,0,0,1,.14-1.8,9.13,9.13,0,0,1,.58-1.1,12.5,12.5,0,0,1,1.74-2.33A17.53,17.53,0,0,1,17.26,255a16.13,16.13,0,0,1,3.39-1.29c.57-.15,1.14-.2,1.7-.36s1.29-.34,1.94-.48c.38-.08.77-.2,1.15-.27a7.24,7.24,0,0,1,1.89,0c.55.07,1.08.14,1.62.24s.8.06,1.2.15a7.76,7.76,0,0,0,1.06.23,3.83,3.83,0,0,1,1.14.21l.83.29c.66.23,1.33.49,2,.7.2.06.41.1.6.18,1.06.39,2,1.17,3.14,1.11,3.75-.18,7-2,10-4.13,1.56-1.14,3-2.52,4.78-3.23a6.89,6.89,0,0,0,1.61-1c1.3-1,2.71-1.79,4.07-2.67a16.2,16.2,0,0,1,7.31-2.82,9.1,9.1,0,0,1,3.51.6,6.62,6.62,0,0,1,3.6,2.27Z"/>
        <g>
          <path class="cls-5" d="M17.47,258.36a3.88,3.88,0,0,0-.86.52,7,7,0,0,0-1.56,2,4.93,4.93,0,0,1-.38.69,1.35,1.35,0,0,0-.25.43,7.7,7.7,0,0,0-.37,1.71L14,265a3.12,3.12,0,0,0,.27,1,1.19,1.19,0,0,1,.1.3,6.54,6.54,0,0,0,.39.9,5.06,5.06,0,0,0,1.39,1.95c.53.4,1,.83,1.55,1.24a10.52,10.52,0,0,0,1.65,1.26,19.15,19.15,0,0,0,1.77.84,14.19,14.19,0,0,0,1.59.52c.28.07.58.11.85.2.11,0,.21.09.32.12a1.72,1.72,0,0,0,.76,0,15.68,15.68,0,0,0,3-.1c.55-.07,1.1-.09,1.65-.19a12.14,12.14,0,0,1,1.47-.28,4.66,4.66,0,0,0,.94-.08,6.06,6.06,0,0,0,1.39-.64,11.91,11.91,0,0,0,2.24-1.65,12.33,12.33,0,0,0,2.06-2.37,9.55,9.55,0,0,0,1-1.75,5.3,5.3,0,0,0,.23-1.83,5.83,5.83,0,0,0-.68-2.65c-.17-.34-.33-.67-.48-1a1.15,1.15,0,0,0-.22-.35,7.65,7.65,0,0,0-1.61-1c-.8-.5-1.62-1-2.47-1.39a14,14,0,0,0-1.53-.72,1.59,1.59,0,0,0-.56-.09,6,6,0,0,1-1.37-.29,11.67,11.67,0,0,0-2.28-.34,21.24,21.24,0,0,0-2.49,0c-1.15.09-2.28.36-3.44.44a6.37,6.37,0,0,0-1.74.26c-.54.2-1.07.44-1.6.67Z"/>
          <path class="cls-5" d="M17.47,258.36a3.88,3.88,0,0,0-.86.52,7,7,0,0,0-1.56,2,4.93,4.93,0,0,1-.38.69,1.35,1.35,0,0,0-.25.43,7.7,7.7,0,0,0-.37,1.71L14,265a3.12,3.12,0,0,0,.27,1,1.19,1.19,0,0,1,.1.3,6.54,6.54,0,0,0,.39.9,5.06,5.06,0,0,0,1.39,1.95c.53.4,1,.83,1.55,1.24a10.52,10.52,0,0,0,1.65,1.26,19.15,19.15,0,0,0,1.77.84,14.19,14.19,0,0,0,1.59.52c.28.07.58.11.85.2.11,0,.21.09.32.12a1.72,1.72,0,0,0,.76,0,15.68,15.68,0,0,0,3-.1c.55-.07,1.1-.09,1.65-.19a12.14,12.14,0,0,1,1.47-.28,4.66,4.66,0,0,0,.94-.08,6.06,6.06,0,0,0,1.39-.64,11.91,11.91,0,0,0,2.24-1.65,12.33,12.33,0,0,0,2.06-2.37,9.55,9.55,0,0,0,1-1.75,5.3,5.3,0,0,0,.23-1.83,5.83,5.83,0,0,0-.68-2.65c-.17-.34-.33-.67-.48-1a1.15,1.15,0,0,0-.22-.35,7.65,7.65,0,0,0-1.61-1c-.8-.5-1.62-1-2.47-1.39a14,14,0,0,0-1.53-.72,1.59,1.59,0,0,0-.56-.09,6,6,0,0,1-1.37-.29,11.67,11.67,0,0,0-2.28-.34,21.24,21.24,0,0,0-2.49,0c-1.15.09-2.28.36-3.44.44a6.37,6.37,0,0,0-1.74.26c-.54.2-1.07.44-1.6.67Z"/>
        </g>
        <g>
          <path class="cls-6" d="M26.07,272.54A10,10,0,0,0,33,268.75a.83.83,0,0,1,.47-.37.94.94,0,0,1,.58.2,3.31,3.31,0,0,0,4.05-1.07,6.25,6.25,0,0,0,1-4.35c-.12-1.52-.55-3-.75-4.51-.22-1.66-.19-3.41-.92-4.92s-2.61-2.66-4.09-1.88c-.78.41-1.4,1.3-2.28,1.24a2.47,2.47,0,0,0-4.73-1.42c-.92-1-2.07-2.1-3.42-1.93a3.07,3.07,0,0,0-2.28,2,13.62,13.62,0,0,0-.66,3.09,2.14,2.14,0,0,1-.4,1.08c-.6.69-1.78.46-2.5,1a2.45,2.45,0,0,0-.76,2.1,2.37,2.37,0,0,1,0,.85c-.08.31-.07.55-.35.74a5.17,5.17,0,0,0-.65.38,6.75,6.75,0,0,0-.94,1c-.15.2-.18.45-.34.65s-.36.2-.49.34a2.49,2.49,0,0,0-.47,1.09,2.24,2.24,0,0,0,.25,1.45,7.46,7.46,0,0,0,.85,1.48,9.82,9.82,0,0,0,1.32,1.6,4.08,4.08,0,0,0,.92.49,4,4,0,0,1,.73.43c.32.26.56.68.93.88s.83.27,1.22.5a6.77,6.77,0,0,0,2,.92c.61.13,1.22.18,1.82.36A7.43,7.43,0,0,0,26.07,272.54Z"/>
          <ellipse class="cls-7" cx="32.35" cy="257.95" rx="3.02" ry="1.62" transform="matrix(0.8, -0.6, 0.6, 0.8, -148.93, 71.61)"/>
          <ellipse class="cls-7" cx="28.02" cy="267.11" rx="3.02" ry="1.62" transform="translate(-155.33 70.85) rotate(-37.06)"/>
          <ellipse class="cls-7" cx="21.01" cy="259.38" rx="3.02" ry="1.62" transform="translate(-152.08 65.06) rotate(-37.06)"/>
          <ellipse class="cls-8" cx="27.03" cy="256.53" rx="3.32" ry="1.24" transform="translate(-230.9 260.33) rotate(-84.83)"/>
          <ellipse class="cls-8" cx="34.94" cy="262.68" rx="3.32" ry="1.24" transform="translate(-229.82 273.8) rotate(-84.83)"/>
          <ellipse class="cls-8" cx="20.98" cy="265.62" rx="3.32" ry="1.24" transform="translate(-245.45 262.59) rotate(-84.83)"/>
          <path class="cls-9" d="M28.83,264.11c-.34,1.26-1.47,2.83-2.94,2.8-4.77-.12-4.31-8.18.69-7A3.16,3.16,0,0,1,28.83,264.11Z"/>
        </g>
      </g>
      <path class="cls-10" d="M42.73,248.42s6.25,9.47,9,10.74,14.65,3.26,16.38-3.67-11.73-6.21-11.73-6.21a7,7,0,0,0,.21-2.77s13.15.08,15.66-6.86"/>
      <path class="cls-11" d="M67.23,267.27l.65-3.64a26.06,26.06,0,0,1,5.67-.59A6,6,0,0,1,67.23,267.27Z"/>
    </g>
    <path class="cls-12" d="M140.91,186.54a13.87,13.87,0,0,0-2.88.76c-3,1.17-5.73,3-8.69,4.29a34.32,34.32,0,0,1-6.49,2.12,5.14,5.14,0,0,0-2.17.85,2.28,2.28,0,0,0-.75,1.39c-.83,4.8,0,8.17,2.07,12.15,1.11,2.18,2.43,4.11,3.67,6.22.6,1,1.17,1.9,2.34,2.14a11,11,0,0,0,3-.22c3.93-.81,7.12-.63,11.13-.56,4.38.08,7.77-.55,11.05-2.76a18.48,18.48,0,0,0,5.58-5,11.87,11.87,0,0,0,1.88-7C159.83,191.52,149.84,185.14,140.91,186.54Z"/>
    <path class="cls-13" d="M162.11,186.71s4.16,10.37,7.36,21.94c0,0-28,8.49-28.68-15.62-.15-5.67,2.56-18.34,2.56-18.34s5.08,7.17,3.93,2.43l16.64,3.35Z"/>
    <g>
      <path class="cls-14" d="M68.51,380.8a19.19,19.19,0,0,1-11.12-1.47A22.91,22.91,0,0,1,49,373.14a3.18,3.18,0,0,0-2.47-1.43c-9.86-.34-18.25-4.59-26.17-10A60.34,60.34,0,0,1,9.71,353c-2.9-3.16-5.06-6.75-4.2-11.26C6.74,335.23,11.66,329.34,21,330s18.4,2.83,27.36,5.41c1.27.36,2.77.24,3.65,1.55,3.81,5.48,5.75,11.45,4.79,18.19-.17,1.19.57,1.47,1.55,1.52,2.29.12,4.58.41,6.86.36,4.93-.1,9.9-.11,14.34-2.78a4.21,4.21,0,0,1,.27,2.9,55.27,55.27,0,0,1-5.78,17Z"/>
      <path class="cls-15" d="M91.1,300.55c-1.09,5.68,8.45,3.13-1.62,25.4-1.88,2.86-5.26,13-6.83,16.1-2,3.85-2.29,8.06-3.12,12.17-4.44,2.66-9.41,2.68-14.34,2.78-2.28,0-4.57-.24-6.86-.36-1-.05-1.72-.33-1.55-1.52,1-6.74-1-12.71-4.79-18.19,2.25.19,3.6-1,4.57-2.89a83.42,83.42,0,0,0,3.79-9.59,85.75,85.75,0,0,1,11-20.59C76,306,86.7,297.92,91.1,300.55Z"/>
      <path class="cls-15" d="M40.13,352.62c-4.39-2.68-7.49-5.5-9.41-9.42-2.45-5,.45-9.24,6-8.78,2,.17,4,.61,5.94.92a1.35,1.35,0,0,1,1,.65,28.17,28.17,0,0,1,4.7,17.54c-.07,1.12-.38,1.58-1.54,1.31C44.28,354.23,41.65,353.77,40.13,352.62Z"/>
    </g>
    <g>
      <path class="cls-16" d="M48,355.55S9.56,379.71,21.64,390.92s38-26.74,38-26.74Z"/>
      <path class="cls-16" d="M112.63,370.29s-11.05,39.4,6.45,38.78,8.8-40.75,8.8-40.75Z"/>
      <path class="cls-16" d="M190.29,354.26s38.39,24.15,26.31,35.37-38-26.74-38-26.74Z"/>
      <path class="cls-17" d="M193.26,351.76c0,13.86-33.86,25.1-75.63,25.1S42,365.63,42,351.76s-11.38-31.47,75.63-31.47S193.26,337.9,193.26,351.76Z"/>
      <ellipse class="cls-16" cx="117.63" cy="338.92" rx="75.63" ry="25.1"/>
    </g>
    <g>
      <path class="cls-14" d="M39.35,389.07s14-4.17,21.11-5.4c2.19-.38,4.35-1.48,6.68-.73a4,4,0,0,0,.65.54,23.44,23.44,0,0,1,11.41,13.11c.56,1.51,1.28,1.56,2.59,1.05,6.7-2.63,13.14-5.65,18-11.25,1.65,2.29,2,5,2.48,7.66a53.78,53.78,0,0,1,.77,16.5,7,7,0,0,1-4.25,6,21.89,21.89,0,0,1-18.14.31,4.52,4.52,0,0,0-3.84,0c-8,3.54-16.45,3.56-24.95,2.6A79.28,79.28,0,0,1,38,416.66a18.78,18.78,0,0,1-6.69-3.39c-6.06-5-5.86-15.35.36-20.2"/>
      <path class="cls-18" d="M99.77,386.39c-4.84,5.6-11.27,8.62-18,11.25-1.31.51-2,.46-2.59-1.05A23.44,23.44,0,0,0,67.8,383.47a4,4,0,0,1-.65-.54c2.16-.91,2.84-2.72,2.75-4.85-.32-7.53-1.52-15-1.39-22.58a.58.58,0,0,0-.08-.2c.29-2.12.67-4.24.86-6.37a34.62,34.62,0,0,1,5.12-16c2.66,2.84,5.92-1.79,7.88,1.55,7.74-1.7,6.37-7.5,13.12-1.4-1.26,7,.71,44.28,3.46,51.09C99.16,384.94,99.47,385.66,99.77,386.39Z"/>
      <path class="cls-19" d="M49.29,396.53c-2.47-3.09-1.44-7.15,2.39-8.82a58.66,58.66,0,0,1,6.13-2,1.68,1.68,0,0,1,1.4.15c5.72,3,9.42,7.79,12,13.54a1.13,1.13,0,0,1-.61,1.73C65,404,53.19,401.42,49.29,396.53Z"/>
    </g>
    <path class="cls-20" d="M178.09,185.45c-5.3,7.1-10.52,14.25-17.23,20.16a6.77,6.77,0,0,1-5.82,1.89c-4.77-.61-9.51-1.42-14.26-2.14-2-.31-3.58-.81-3-3.34-1.4,6.25-3.69,12.21-5.71,18.26-1.18,3.52-2,7.18-3.92,10.44-1.18,3.81-2.32,7.63-3.56,11.41-.62,1.9-1.12,3.83-1.59,5.77-1.38,5.78-1.73,12.73-5,17.86-1,1.53-2.07,3-3.13,4.44-1.3,1.78-3.09,2.4-4.89,3.55-3.47,2.2-6.67,5-10.69,6.19-3.79,1.1-7.24,3.16-11.09,4.17-3.51.93-6.78,2.66-10.09,4.14a40.63,40.63,0,0,1-4.63,2c-.84.26-4.69.36-4.9.79-.1.2.39,1.36.43,1.64a19.18,19.18,0,0,1,0,2.63c-.11,8.36.65,16.7.63,25.07q0,10.91,0,21.81a14.4,14.4,0,0,0,.27,4.32c.35,1.12.53,2.27.82,3.41a7.44,7.44,0,0,0,4.1,5.39c4.9,2.12,9.4,4.83,14.55,6.36a12.53,12.53,0,0,0,4.3.67c2.11-.11,3.89-1.91,5.62-3.08.86-.58,2-1,2.74-1.68s.88-1.38,1.59-1.84a15.18,15.18,0,0,1,3.29-1.34,81.09,81.09,0,0,1,13.77-3.2,43.36,43.36,0,0,0,9.65-2.14,8.37,8.37,0,0,1,3.15-.28,9.53,9.53,0,0,0,4-1.33c2.76-1.48,5.85-1.73,8.82-2.62a41.52,41.52,0,0,0,9.24-4.55,46.35,46.35,0,0,0,9.24-6.75,7,7,0,0,0,1.43-1.68c.07-.28.2-.22.36-.35,0,0,.33-.12.28-.09a4.28,4.28,0,0,0,.94-1.13c2.36-3.15,6.06-5.51,8.29-8.84a26.63,26.63,0,0,1,1.74-2.86,7,7,0,0,0,1.64-2.32c.68-1.56,1.47-3,2.27-4.47,1-1.88,1.3-4.11,1.85-6.17a45.75,45.75,0,0,0,1.26-6c1.48-11.88,2-23.91,5.41-35.39,20.49-68.93.47-74.22-12.15-78.87"/>
    <path class="cls-21" d="M178.09,185.45c-5.3,7.1-10.52,14.25-17.23,20.16a6.77,6.77,0,0,1-5.82,1.89c-4.77-.61-9.51-1.42-14.26-2.14-2-.31-3.58-.81-3-3.34.35-1.07.22-2.29,1-3.26,5.38,1.69,11,2.05,16.54,2.54a2.72,2.72,0,0,0,2.3-.91,158.57,158.57,0,0,0,14-15.69Z"/>
    <path class="cls-22" d="M171.55,184.69a158.57,158.57,0,0,1-14,15.69,2.72,2.72,0,0,1-2.3.91c-5.57-.49-11.16-.85-16.54-2.54a7,7,0,0,1,1-4.18c4.93,1,9.94,1.44,14.94,2a1.65,1.65,0,0,0,1.5-.65,144.53,144.53,0,0,0,10.22-12.19Z"/>
    <path class="cls-23" d="M166.4,183.69a144.53,144.53,0,0,1-10.22,12.19,1.65,1.65,0,0,1-1.5.65c-5-.53-10-1-14.94-2a22.17,22.17,0,0,1,.6-3.14c.27-1.5,1.06-1.81,2.36-1.51a77.15,77.15,0,0,0,10.53,2.14,1.79,1.79,0,0,0,1.78-.9c1.82-2.22,3.82-4.31,5.44-6.67,1.28-1.85,2.62-2.14,4.5-1.25A10.32,10.32,0,0,0,166.4,183.69Z"/>
    <g>
      <path class="cls-24" d="M53.07,70.36s-14.62,25.92,7,54.26c0,0,15,15.56,10.52,29.2,0,0-6.33,12.59-.54,17.36,0,0,4.18,4.91,13.63.43l10.56,7.56s13.19-7,17.28-16.77c0,0-2.55,7.46-11.12,19.33,0,0,17,16.5,48.5,4,0,0,38.74-16.76,43-56.37l17-50.13L187.78,47.48,148.41,18.92,91,30.43Z"/>
      <path d="M53.4,70l32.67-8.94s23.05-25.83,58.36-38.79c0,0-34.09,14.69-53.55,38.36l26.67-6.89,18.95,14.15s31.44-20.56,54-12.51c0,0-21.39-6.44-50.21,16.62,0,0,10.09,9.93,13,18.33,0,0,8.92-12.1,18.1-9.22,0,0,14.27,4.31,12.57,26.63a31.68,31.68,0,0,1-7.83,20.16s12,30.15,53.47,37.8c0,0-26-21.34-24.43-38.73,0,0,18.37-34.36,17.54-38,0,0-8.73-23-25.64-33.21,0,0-5-25.62-15.26-39.17,0,0-21.42-5.18-33.41-.41,0,0-38.68-8.12-56.11,1.1C92.28,17.35,60.94,42.71,53.4,70Z"/>
      <path class="cls-25" d="M155.23,98.11s4.14-9.32,11.81-10.71c0,0,6.72-3.26,11,9.67,0,0,2.29,11.41.2,17.84,0,0-3.4,10.11-7.45,3.8,0,0-4.25,3.51-.29,5.68,0,0,4.71,4.64,10.36-8,0,0,7.29-19.91-5.51-32.2,0,0-6.53-4.59-15,2.09C160.28,86.31,152.57,90.91,155.23,98.11Z"/>
      <path d="M61.43,108.35s-2.13-3.94,2.77-7.89c0,0,6.53-5.32,16.84-2.53,0,0,9.2,2.43,12.72,8.19,0,0,1.72,2.22-3.91.23,0,0-11.3-5.39-18.13-2.67a60.84,60.84,0,0,0-8,4.6S61.78,109.44,61.43,108.35Z"/>
      <path class="cls-26" d="M90.17,176.24S109.11,164.87,111.8,159c0,0,6.14,13.11-9.67,24.16,0,0-4.57,1.77-5.16-3.06,0,0,10.56-9.26,14.57-17.67,0,0-.87,9.82-15.31,17.42C96.23,179.83,91,179.64,90.17,176.24Z"/>
      <g>
        <path class="cls-27" d="M75.18,132.08a15.94,15.94,0,0,1-1.56-8.51c.7-5.34,4.5-10.66,10-11.77a19.28,19.28,0,0,1,21.92,11.44c2,4.77.29,9.11-2.36,13.11a19.53,19.53,0,0,1-7,6.3c-5.41,3-10.49,2.34-14.93-2A29.15,29.15,0,0,1,75.18,132.08Z"/>
        <g>
          <path class="cls-28" d="M78.07,137.28a11,11,0,1,1,15.4,1.46A11,11,0,0,1,78.07,137.28Zm8.2-16.54c-1.86.23-2.82,1.49-3,4-2,.69-3.78,3.88-3.56,6.24a7.72,7.72,0,0,0,6.35,6.95,7.13,7.13,0,0,0,7.87-4.72A7.5,7.5,0,0,0,91,124.44l-.8-.58C89.34,121.49,88.12,120.52,86.27,120.75Z"/>
          <path class="cls-29" d="M83.26,124.71c-2,.69-3.78,3.88-3.56,6.24a7.72,7.72,0,0,0,6.35,6.95,7.13,7.13,0,0,0,7.87-4.72A7.5,7.5,0,0,0,91,124.44l-.8-.58c-.32,1.81-1,3.35-3.08,3.56S83.9,126.52,83.26,124.71Z"/>
          <path class="cls-30" d="M83.26,124.71c.63,1.82,1.83,2.92,3.84,2.71s2.77-1.76,3.08-3.56c-.85-2.37-2.07-3.33-3.91-3.11S83.45,122.23,83.26,124.71Z"/>
        </g>
      </g>
    </g>
    <g>
      <ellipse class="cls-31" cx="71.54" cy="298.92" rx="69.14" ry="23.87"/>
      <ellipse class="cls-32" cx="71.03" cy="297.42" rx="60.43" ry="20.87"/>
    </g>
    <path class="cls-33" d="M64.09,315.61a62.5,62.5,0,0,1-15.26-1.21c-4.75-.92-9.52-1.19-14.16-2.71-1.21-.4-2.59-1-2.69-2.16-.06-.66.38-1.31.27-2-.34-2-4-2.77-5.67-3.34-.93-.31-1.71-1.3-1.12-2,.2-.23.54-.39.65-.66.58-1.33-5.08-1.8-3.88-4.6-.51,1.19-2.89,1-3.43-.21s.46-2.57,1.83-3.07A1.82,1.82,0,0,1,18,292.9a3.12,3.12,0,0,1,.81-2.76c.83-1.11,2.39-2.49,4.11-2.09-1,.18-1.47-1-1.42-1.68.26-3.32,6.72-2.18,9.49-2.54,4.65-.59,82.91-4.64,84.41-1.82,1.58-.3,3.45,0,4.35,1.29a2.68,2.68,0,0,1-1.05,3.83,4,4,0,0,1,4.45,2.48c.59,2.18-2.7,2.93-2.5,5,.17,1.74,1.79,1.94,0,3.66-1.3,1.24-3.47,1.51-5.25,1.89a3,3,0,0,1-1.55,3.26c-1.17.52-2.21,0-3.37.23a13.74,13.74,0,0,0-2.44,1c-1.81.68-3.82.79-5.68,1.31a1.11,1.11,0,0,1,1.55,1c-.09.7-.82,1.22-1.54,1.54a8.93,8.93,0,0,1-7.2,0c1.3,1.52.24,3.91-1.74,4.74-3,1.26-5.83-.83-8.94-.33l-6.35,1A131.1,131.1,0,0,1,64.09,315.61Z"/>
    <path class="cls-6" d="M63.93,312.41a62.5,62.5,0,0,1-15.26-1.21c-4.75-.92-9.52-1.19-14.16-2.71-1.21-.4-2.59-1-2.69-2.16-.06-.66.38-1.31.27-2-.34-2-4-2.77-5.67-3.34-.93-.31-1.71-1.3-1.12-2,.2-.23.54-.39.65-.66.58-1.33-5.08-1.8-3.88-4.6-.51,1.19-2.89,1-3.43-.21s.46-2.57,1.83-3.07a1.82,1.82,0,0,1-2.66-.81,3.12,3.12,0,0,1,.81-2.76c.83-1.11,2.39-2.49,4.11-2.09-1,.18-1.47-1-1.42-1.68A3.94,3.94,0,0,1,23,280.64a7.12,7.12,0,0,1,5.32-1.42c-4.45-.7-1.1-2.76,1.8-2.8-.89,0-2.84-.12-2.14-1.49a8.07,8.07,0,0,1,3.42-2.83c.5-.27,1.06-.44,1.55-.73.12-.07.22-.19.35-.25a3.08,3.08,0,0,1,1.37-.11,2.31,2.31,0,0,1,1,.09,5,5,0,0,1,.68.52,3.28,3.28,0,0,1,1,1.39c.1.23.06.23.31.26a4.11,4.11,0,0,0,.63,0c1.13,0,1.27-1.43,2-2,.38-.27,1-.16,1.4-.16s.4.06.57.35.19.51.48.39a4.17,4.17,0,0,0,0-.87,4.08,4.08,0,0,1,.29-.8,12.29,12.29,0,0,1,1.28-2.91c.3-.49.45-.8,1.06-.8a2.32,2.32,0,0,1,1,.11c.41.19.61.65,1,.91a8.24,8.24,0,0,0,1.55.84,25.73,25.73,0,0,0-.25-2.58A2.2,2.2,0,0,1,49,264.4a3,3,0,0,1,.79-.87,3,3,0,0,1,2.1-.25,1.81,1.81,0,0,1,.77.38c.15.14.24.35.48.33.1-.27-.08-.49-.16-.74a3.86,3.86,0,0,1-.07-1.12.75.75,0,0,1,.34-.72,3.56,3.56,0,0,1,1-.72,4.46,4.46,0,0,1,1.23-.06,2.13,2.13,0,0,0,.75-.16c.3-.21.27-.75.27-1.07,0-.88,0-1.75,0-2.63,0-.58.31-.82.62-1.27s.73-.84,1.35-.62a2.1,2.1,0,0,1,1.21.72,3.77,3.77,0,0,1,.33,2.83c.92-1.33,2-2.79,3.79-3.09s3.74,1.62,2.52,2.75a12.53,12.53,0,0,1,3.89-2.44,3.44,3.44,0,0,1,2.43-.25c.77.29,1.1,1.35.4,1.74,2.31-1.28,8.15-2.84,6.56,1.54a6.9,6.9,0,0,1,4.09-1.52c1.52.1,2.85,1.73,1.88,2.74a5.35,5.35,0,0,1,4-1.33c1.45.22,2.64,1.68,1.94,2.79.47-.75,0-2.87.89-3.34,2.08-1.06,2.87,4,3.05,4.91-.77-3.74,7-5,5,1.47.28-.89,2.25-2.22,3.46-1.81,1.74.59.92,2.81.31,3.92a3.34,3.34,0,0,1,4.46-.64,2.37,2.37,0,0,1-.25,3.88c1.6-.93,4-1,5.32.17a2.32,2.32,0,0,1-1.06,4,3.48,3.48,0,0,1,4.07,1.5,2.68,2.68,0,0,1-1.69,3.52,3.93,3.93,0,0,1,4.43,1.16,2.68,2.68,0,0,1-1.05,3.83,4,4,0,0,1,4.45,2.48c.59,2.18-2.7,2.93-2.5,5,.17,1.74,1.79,1.94,0,3.66-1.3,1.24-3.47,1.51-5.25,1.89a3,3,0,0,1-1.55,3.26,6.81,6.81,0,0,1-3.77.12,8.43,8.43,0,0,0-2.37-.15,1.71,1.71,0,0,1,1.66.62l-7,2a1.11,1.11,0,0,1,1.55,1c-.09.7-.82,1.22-1.54,1.54a8.93,8.93,0,0,1-7.2,0c1.3,1.52.24,3.91-1.74,4.74-3,1.26-5.83-.83-8.94-.33l-6.35,1A131.1,131.1,0,0,1,63.93,312.41Z"/>
    <g>
      <g>
        <path class="cls-9" d="M39.77,291.44a3.74,3.74,0,0,1,.1,2.13c-1.22,2.78-7.16.16-5.72-2.78a7.13,7.13,0,0,1,.81-1.1c.55-.73.85-2,2-2.1S39.3,289.63,39.77,291.44Z"/>
        <path class="cls-9" d="M63.76,262.76a2.52,2.52,0,0,1-.22.93c-.55,1.24-3.81,3-5,2.23s-1.1-2.09-.87-3.21c.39-1.89-.15-3.5,2.41-3.5A3.81,3.81,0,0,1,63.76,262.76Z"/>
        <path class="cls-9" d="M67,296.8a3.55,3.55,0,0,1-3.55,3.55c-2.19,0-2.34-2.53-2.48-4.35-.1-1.34.43-2.48,1.85-2.7S67,295.53,67,296.8Z"/>
        <path class="cls-9" d="M29.26,290.66c0,1.46-1.54,2.65-3.44,2.65-2.13,0-2.27-1.89-2.41-3.25a1.76,1.76,0,0,1,1.79-2C26.54,287.88,29.26,289.71,29.26,290.66Z"/>
        <path class="cls-9" d="M79.83,281.92c0,1.3-.77,3.1-2.21,3.41-4.66,1-6.1-6.94-1-6.94A3.16,3.16,0,0,1,79.83,281.92Z"/>
        <path class="cls-9" d="M80.69,259.46c0,1.3-.77,3.1-2.21,3.41-4.66,1-6.1-6.94-1-6.94A3.16,3.16,0,0,1,80.69,259.46Z"/>
        <path class="cls-9" d="M88.34,312a2.83,2.83,0,0,1-.56,2.12c-2,2.53-5.74.71-5.74-2.24a3.58,3.58,0,0,1,2.21-3.29c1.84-.75,2.3.18,3.25,1.6a5.57,5.57,0,0,1,.75,1.41A2.66,2.66,0,0,1,88.34,312Z"/>
        <path class="cls-9" d="M113.39,293.7a2.6,2.6,0,0,1-1.4,3.22,3.69,3.69,0,0,1-1.61.27,3.32,3.32,0,0,1-2.07-5.68C110.44,289.48,112.86,291.51,113.39,293.7Z"/>
        <path class="cls-9" d="M47,307.27a2.6,2.6,0,0,1-1.4,3.22,3.69,3.69,0,0,1-1.61.27A3.32,3.32,0,0,1,42,305.08C44.09,303.05,46.51,305.08,47,307.27Z"/>
        <path class="cls-9" d="M103.36,267.74q0,.13,0,.25c.08,1.27-.31,2.8-1.69,3.14a8.1,8.1,0,0,1-3.38-.06,3,3,0,0,1-1.25-1.59,2.2,2.2,0,0,1-.27-1.13,2.32,2.32,0,0,1,.45-1l.88-1.32a3.9,3.9,0,0,1,1.64-1.62,2.46,2.46,0,0,1,2.66.81A4.46,4.46,0,0,1,103.36,267.74Z"/>
        <path class="cls-9" d="M115.42,280.22q0,.09,0,.19c.05.93-.22,2-1.2,2.29a5.56,5.56,0,0,1-2.39,0,2.2,2.2,0,0,1-.89-1.16,1.65,1.65,0,0,1-.19-.83,1.72,1.72,0,0,1,.32-.71l.62-1a2.81,2.81,0,0,1,1.16-1.19,1.71,1.71,0,0,1,1.88.59A3.32,3.32,0,0,1,115.42,280.22Z"/>
      </g>
      <g>
        <ellipse class="cls-7" cx="39" cy="303.4" rx="1.77" ry="3.54" transform="translate(-217.42 136.6) rotate(-49.63)"/>
        <ellipse class="cls-7" cx="29.35" cy="283.73" rx="1.77" ry="3.86" transform="translate(-6.47 0.74) rotate(-1.31)"/>
        <ellipse class="cls-7" cx="66.16" cy="263.08" rx="3.3" ry="1.77" transform="translate(-179.11 147.17) rotate(-50.59)"/>
        <ellipse class="cls-7" cx="92.11" cy="293.52" rx="3.78" ry="1.77" transform="translate(-193.15 178.33) rotate(-50.59)"/>
        <ellipse class="cls-7" cx="86.12" cy="272.15" rx="3.46" ry="1.3" transform="translate(-178.82 165.9) rotate(-50.59)"/>
        <ellipse class="cls-7" cx="63.61" cy="288.59" rx="2.09" ry="1.3" transform="translate(-199.74 154.51) rotate(-50.59)"/>
        <ellipse class="cls-7" cx="73.23" cy="290.83" rx="1.77" ry="4.71" transform="translate(-86.54 37.02) rotate(-18.06)"/>
        <ellipse class="cls-7" cx="64.08" cy="309.17" rx="1.77" ry="3.44" transform="translate(-92.67 35.09) rotate(-18.06)"/>
        <ellipse class="cls-7" cx="100.25" cy="298.42" rx="1.77" ry="2.8" transform="translate(-213.53 323.95) rotate(-76.08)"/>
        <ellipse class="cls-7" cx="108.58" cy="284.07" rx="1.77" ry="3.45" transform="translate(-193.27 321.13) rotate(-76.08)"/>
        <ellipse class="cls-7" cx="101.01" cy="279.69" rx="3.42" ry="1.77" transform="translate(-114.8 75.11) rotate(-26.67)"/>
        <ellipse class="cls-7" cx="91.02" cy="263.94" rx="1.77" ry="3.96" transform="translate(-187.07 288.81) rotate(-76.08)"/>
        <ellipse class="cls-7" cx="107.88" cy="273.78" rx="1.77" ry="2.67" transform="translate(-183.8 312.64) rotate(-76.08)"/>
        <ellipse class="cls-7" cx="81.27" cy="264.3" rx="1.77" ry="3.88" transform="translate(-194.82 279.62) rotate(-76.08)"/>
        <ellipse class="cls-7" cx="36.6" cy="273.95" rx="1.77" ry="3.47" transform="translate(-238.11 243.58) rotate(-76.08)"/>
        <ellipse class="cls-7" cx="48.82" cy="277.03" rx="1.77" ry="3.51" transform="translate(-231.82 257.79) rotate(-76.08)"/>
        <ellipse class="cls-7" cx="61.77" cy="284.01" rx="1.77" ry="3.36" transform="translate(-228.76 275.65) rotate(-76.08)"/>
        <ellipse class="cls-7" cx="46.4" cy="283.21" rx="1.77" ry="3.36" transform="translate(-239.66 260.13) rotate(-76.08)"/>
        <ellipse class="cls-7" cx="70.28" cy="308.92" rx="1.77" ry="3.3" transform="translate(-246.47 302.83) rotate(-76.08)"/>
        <ellipse class="cls-7" cx="85.06" cy="287.59" rx="1.77" ry="3.61" transform="translate(-214.54 300.98) rotate(-76.08)"/>
        <ellipse class="cls-7" cx="74.55" cy="274.5" rx="1.77" ry="3.75" transform="translate(-209.82 280.84) rotate(-76.08)"/>
        <ellipse class="cls-7" cx="66.28" cy="270.86" rx="3.44" ry="1.77" transform="translate(-212.36 281.74) rotate(-78.49)"/>
        <ellipse class="cls-7" cx="61.72" cy="276.51" rx="3.88" ry="1.77" transform="translate(-221.55 281.79) rotate(-78.49)"/>
        <ellipse class="cls-7" cx="45.9" cy="299.62" rx="3.16" ry="1.77" transform="translate(-256.85 284.79) rotate(-78.49)"/>
        <ellipse class="cls-7" cx="66.54" cy="290.4" rx="3.16" ry="1.77" transform="translate(-231.3 297.63) rotate(-78.49)"/>
        <ellipse class="cls-7" cx="58.02" cy="307.5" rx="4.71" ry="1.77" transform="translate(-254.88 302.98) rotate(-78.49)"/>
        <ellipse class="cls-7" cx="89.5" cy="280.06" rx="2.86" ry="1.77" transform="translate(-202.79 311.86) rotate(-78.49)"/>
        <ellipse class="cls-7" cx="47.12" cy="266.26" rx="3.38" ry="1.77" transform="translate(-223.19 259.29) rotate(-78.49)"/>
        <ellipse class="cls-7" cx="81.88" cy="295.87" rx="3.12" ry="1.77" transform="translate(-224.38 317.04) rotate(-78.49)"/>
        <ellipse class="cls-7" cx="48.26" cy="290.31" rx="2.84" ry="1.77" transform="translate(-245.84 279.65) rotate(-78.49)"/>
        <ellipse class="cls-7" cx="74.75" cy="302.38" rx="3.57" ry="1.77" transform="translate(-236.47 315.28) rotate(-78.49)"/>
        <ellipse class="cls-7" cx="88.14" cy="300.85" rx="2.7" ry="1.77" transform="matrix(0.2, -0.98, 0.98, 0.2, -224.24, 327.17)"/>
        <ellipse class="cls-7" cx="68.98" cy="280.08" rx="3.02" ry="1.77" transform="translate(-219.23 291.76) rotate(-78.49)"/>
        <ellipse class="cls-7" cx="52.34" cy="261.98" rx="1.77" ry="2.97" transform="translate(-189.68 148.85) rotate(-53.65)"/>
        <ellipse class="cls-7" cx="39.59" cy="284.37" rx="1.77" ry="3.42" transform="translate(-78.3 22.57) rotate(-16.32)"/>
        <ellipse class="cls-7" cx="57.17" cy="277.15" rx="1.77" ry="3.56" transform="translate(-75.56 27.22) rotate(-16.32)"/>
        <ellipse class="cls-7" cx="50.36" cy="300.05" rx="1.77" ry="3.37" transform="matrix(0.96, -0.28, 0.28, 0.96, -82.27, 26.23)"/>
        <ellipse class="cls-8" cx="50.58" cy="283.21" rx="1.24" ry="3.32" transform="translate(-197.96 138.31) rotate(-49.63)"/>
        <ellipse class="cls-7" cx="42.41" cy="296.12" rx="2.84" ry="1.77" transform="matrix(0.2, -0.98, 0.98, 0.2, -256.22, 278.57)"/>
        <ellipse class="cls-7" cx="27.58" cy="293.52" rx="2.84" ry="1.77" transform="matrix(0.2, -0.98, 0.98, 0.2, -265.54, 261.96)"/>
        <ellipse class="cls-7" cx="38.93" cy="291.67" rx="1.77" ry="3.42" transform="translate(-80.37 22.68) rotate(-16.32)"/>
        <ellipse class="cls-8" cx="42.41" cy="293.12" rx="1.24" ry="3.32" transform="translate(-20.66 3.74) rotate(-4.06)"/>
        <ellipse class="cls-8" cx="56.95" cy="287.2" rx="1.24" ry="3.32" transform="translate(-198.75 144.56) rotate(-49.63)"/>
        <ellipse class="cls-8" cx="81.96" cy="273.88" rx="1.24" ry="2.41" transform="translate(-179.79 158.93) rotate(-49.63)"/>
        <ellipse class="cls-8" cx="86.12" cy="283.73" rx="2.41" ry="1.24" transform="translate(-148.47 102.38) rotate(-35.41)"/>
        <ellipse class="cls-8" cx="69.84" cy="296.77" rx="1.24" ry="2.67" transform="translate(-201.5 157.76) rotate(-49.63)"/>
        <ellipse class="cls-8" cx="55" cy="296.45" rx="1.24" ry="3.32" transform="translate(-206.49 146.34) rotate(-49.63)"/>
        <ellipse class="cls-8" cx="73.53" cy="262.33" rx="1.24" ry="3.32" transform="translate(-37.34 13.47) rotate(-8.35)"/>
        <ellipse class="cls-8" cx="91.18" cy="308.22" rx="1.24" ry="3.32" transform="translate(-43.82 16.52) rotate(-8.35)"/>
        <ellipse class="cls-8" cx="96.47" cy="265.53" rx="1.24" ry="3.32" transform="translate(-37.56 16.83) rotate(-8.35)"/>
        <ellipse class="cls-34" cx="33.81" cy="298.18" rx="4.71" ry="1.77" transform="translate(-266.1 287.64) rotate(-81.52)"/>
        <ellipse class="cls-34" cx="34.73" cy="282.47" rx="3.15" ry="1.77" transform="translate(-235.34 192.72) rotate(-64.61)"/>
        <ellipse class="cls-8" cx="38.76" cy="287.07" rx="1.24" ry="3.32" transform="translate(-205.06 130.66) rotate(-49.63)"/>
        <ellipse class="cls-8" cx="31.11" cy="288.85" rx="3.32" ry="1.24" transform="translate(-185.67 95.45) rotate(-42.11)"/>
        <ellipse class="cls-34" cx="22.91" cy="286.33" rx="3.15" ry="1.77" transform="translate(-245.58 184.24) rotate(-64.61)"/>
        <ellipse class="cls-34" cx="61.77" cy="270.86" rx="3.15" ry="1.77" transform="translate(-209.41 210.51) rotate(-64.61)"/>
        <ellipse class="cls-34" cx="56.95" cy="266.25" rx="3.15" ry="1.77" transform="translate(-208.01 203.53) rotate(-64.61)"/>
        <ellipse class="cls-34" cx="50.6" cy="270.54" rx="1.77" ry="3.67" transform="translate(-186.55 130.87) rotate(-48.91)"/>
        <ellipse class="cls-34" cx="93.45" cy="271.71" rx="1.77" ry="2.38" transform="translate(-172.75 163.57) rotate(-48.91)"/>
        <ellipse class="cls-34" cx="83.7" cy="278.25" rx="1.77" ry="4.17" transform="translate(-181.02 158.46) rotate(-48.91)"/>
        <ellipse class="cls-7" cx="76.03" cy="280.14" rx="1.3" ry="2.46" transform="translate(-167.69 122.47) rotate(-41.92)"/>
        <ellipse class="cls-8" cx="76.45" cy="283.77" rx="2.41" ry="1.24" transform="translate(-167.3 119.59) rotate(-40.96)"/>
        <ellipse class="cls-34" cx="80.04" cy="283.55" rx="2.87" ry="1.77" transform="translate(-164.22 118.8) rotate(-40.24)"/>
        <ellipse class="cls-7" cx="93.77" cy="301.86" rx="2.86" ry="1.77" transform="matrix(0.2, -0.98, 0.98, 0.2, -220.74, 333.49)"/>
        <ellipse class="cls-8" cx="86.23" cy="295.68" rx="1.24" ry="2.41" transform="translate(-194.9 169.87) rotate(-49.63)"/>
        <ellipse class="cls-8" cx="80.72" cy="305.57" rx="2.41" ry="1.24" transform="translate(-180.54 127.72) rotate(-40.96)"/>
        <ellipse class="cls-34" cx="84.31" cy="305.35" rx="2.87" ry="1.77" transform="translate(-177.29 126.71) rotate(-40.24)"/>
        <ellipse class="cls-34" cx="96.55" cy="283.1" rx="1.77" ry="3.82" transform="translate(-180.27 169.8) rotate(-48.91)"/>
        <ellipse class="cls-34" cx="113.5" cy="288.59" rx="2.78" ry="1.77" transform="translate(-196.01 307.8) rotate(-72.08)"/>
        <ellipse class="cls-34" cx="85.54" cy="293.52" rx="1.77" ry="3.57" transform="translate(-118.87 66.17) rotate(-25.71)"/>
        <ellipse class="cls-7" cx="108.26" cy="291.77" rx="3.12" ry="1.77" transform="matrix(0.2, -0.98, 0.98, 0.2, -199.24, 339.61)"/>
        <ellipse class="cls-8" cx="112.5" cy="279.63" rx="2.41" ry="1.24" transform="translate(-141.21 116.91) rotate(-35.41)"/>
        <ellipse class="cls-34" cx="111.92" cy="289.42" rx="1.77" ry="3.57" transform="translate(-114.48 77.21) rotate(-25.71)"/>
        <ellipse class="cls-34" cx="94.08" cy="287.59" rx="1.77" ry="3.57" transform="translate(-115.45 69.29) rotate(-25.71)"/>
        <ellipse class="cls-34" cx="42.66" cy="270.77" rx="1.77" ry="4.71" transform="translate(-189.45 124.96) rotate(-48.91)"/>
        <ellipse class="cls-34" cx="75.69" cy="289.31" rx="1.24" ry="3.3" transform="translate(-192.1 156.21) rotate(-48.91)"/>
        <ellipse class="cls-7" cx="53.84" cy="291.82" rx="3.02" ry="1.77" transform="translate(-242.85 286.32) rotate(-78.49)"/>
        <ellipse class="cls-8" cx="61.31" cy="295.51" rx="2.41" ry="1.24" transform="translate(-178.7 112.53) rotate(-40.96)"/>
        <ellipse class="cls-34" cx="60.55" cy="301.05" rx="1.24" ry="3.3" transform="translate(-206.14 148.82) rotate(-48.91)"/>
        <ellipse class="cls-34" cx="67.05" cy="305.86" rx="1.24" ry="3.3" transform="translate(-207.54 155.37) rotate(-48.91)"/>
        <ellipse class="cls-34" cx="70.98" cy="267.54" rx="1.24" ry="3.3" transform="translate(-177.31 145.2) rotate(-48.91)"/>
        <ellipse class="cls-34" cx="78.66" cy="268.18" rx="1.24" ry="3.3" transform="translate(-175.16 151.2) rotate(-48.91)"/>
        <ellipse class="cls-34" cx="97.64" cy="271.41" rx="1.24" ry="3.3" transform="translate(-171.09 166.62) rotate(-48.91)"/>
        <ellipse class="cls-34" cx="104.11" cy="289.65" rx="3.3" ry="1.24" transform="translate(-195.33 360.86) rotate(-83.61)"/>
      </g>
      <g>
        <g>
          <path class="cls-35" d="M20.67,274c1.3.57,9.62,4.24,16.68,7.17s19.52,13.91,6.93,26S21.89,309,18.1,299.7s-6.25-12.8-8.34-18a6.15,6.15,0,0,1,2.36-7.25C14.81,272.68,17.17,272.43,20.67,274Z"/>
          <path class="cls-36" d="M18.1,299.7c-3.79-9.33-6.25-12.8-8.34-18a6.24,6.24,0,0,1,.36-5.08,5.94,5.94,0,0,0,.31,3c2.09,5.25,4.55,8.72,8.34,18s13.6,19.53,26.19,7.44a18.73,18.73,0,0,0,4.43-6.1,16.74,16.74,0,0,1-5.11,8.18C31.69,319.23,21.89,309,18.1,299.7Z"/>
        </g>
        <g>
          <path class="cls-37" d="M23.92,277.86c1,.44,7.47,3.29,13,5.57s15.15,10.8,5.38,20.19-17.39,1.47-20.33-5.78-4.85-9.94-6.48-14a4.78,4.78,0,0,1,1.84-5.63C19.36,276.86,21.19,276.66,23.92,277.86Z"/>
          <path class="cls-38" d="M21.91,297.84c-2.95-7.25-4.85-9.94-6.48-14a4.85,4.85,0,0,1,.33-4A4.59,4.59,0,0,0,16,282c1.62,4.08,3.53,6.77,6.48,14s10.56,15.16,20.33,5.78a14.63,14.63,0,0,0,3.4-4.66,12.92,12.92,0,0,1-4,6.44C32.47,313,24.86,305.08,21.91,297.84Z"/>
        </g>
        <g>
          <circle class="cls-39" cx="34.91" cy="295.69" r="9.17" transform="translate(-130.14 47.88) rotate(-26.93)"/>
          <path class="cls-40" d="M43.09,291.54a9.13,9.13,0,0,1,1,4.83,9.17,9.17,0,0,1-16.27-6.45,9.17,9.17,0,0,1,15.3,1.62Z"/>
          <path class="cls-41" d="M26.59,291.85A9.17,9.17,0,0,0,43.9,297.5a9.17,9.17,0,1,1-17.31-5.65Z"/>
        </g>
      </g>
      <g>
        <path class="cls-42" d="M43.34,287.11c-.91-.49-1.64,1-2.52,1.94s-1.46,1.68-.73,2.72.37,3.38,2.4,7,17,19.07,42.1,11.79,30.66-21.6,28.93-32.84c-.6-2.42-1.9-4.35-2.92-6.44a13,13,0,0,1-1.26-4.27,4.23,4.23,0,0,1,.74-2.85,1.55,1.55,0,0,0-.65-2.2,4.93,4.93,0,0,0-2.53-.25c-3.85.39-5.9.81-4.74,4.37s.77,3.47-.21,5.59-5.56,16.16-22.72,20C63.4,295.27,60,289.45,49,288.53A12.24,12.24,0,0,1,43.34,287.11Z"/>
        <path class="cls-43" d="M40.82,289.05c-.89,1-1.46,1.68-.73,2.72s.37,3.38,2.4,7,17,19.07,42.1,11.79,30.66-21.6,28.93-32.84c-.6-2.42-1.9-4.35-2.92-6.44a13,13,0,0,1-1.26-4.27,4.23,4.23,0,0,1,.74-2.85,1.55,1.55,0,0,0-.65-2.2,4.93,4.93,0,0,0-2.53-.25c-3.85.39-1.39.69-1.25,4.44.28,8-5.72,27.52-25.25,31.11C56,301.75,41.7,288.08,40.82,289.05Z"/>
        <path class="cls-44" d="M40.22,291.16c-.93-.39-.12-1.38.58-2.15s1.27-1.93,2-1.54c0,0,.38.19,0,.75S40.65,291.34,40.22,291.16Z"/>
        <path class="cls-44" d="M108.79,264a.91.91,0,0,0,.78-1,1.28,1.28,0,0,0-.73-1,4.23,4.23,0,0,0-2.17-.22c-2.48.25-4.09.52-4.32,1.92,0,0-.39,1.1,2.76.79C106.23,264.4,107.9,264.14,108.79,264Z"/>
      </g>
    </g>
    <path class="cls-1" d="M152,310.76c0-.07-.08.09-.11.15a2.66,2.66,0,0,1-.21.26,5.9,5.9,0,0,0-.35.58l-.54.8c-.28.4-.66.71-.92,1.13a4,4,0,0,1-.64.79,18,18,0,0,1-1.44,1.31,5.69,5.69,0,0,1-1.52.92,17.24,17.24,0,0,1-2.4.84,10.2,10.2,0,0,1-2.23.21h-1.46a5.07,5.07,0,0,0-1.3.06,3.36,3.36,0,0,1-.73.21c-.43,0-.83-.2-1.25-.2a.8.8,0,0,1-.31,0,.69.69,0,0,0-.18-.08h-.13a1.21,1.21,0,0,1-.31-.15c-.07,0-.15,0-.22-.07a1.91,1.91,0,0,0-.34-.14,1.38,1.38,0,0,1-.39-.19c-.08-.05-.09,0-.11-.1a.31.31,0,0,1,0-.19c0-.08.09-.08.16-.13s.09-.11.19-.14.26-.11.41-.17.34-.11.5-.19.27-.11.4-.17.16-.12.26-.17a7.9,7.9,0,0,0,.79-.45c.13-.09.24-.19.37-.27s.22-.09.33-.15a6.57,6.57,0,0,0,.68-.37c.22-.15.47-.26.68-.42a1.86,1.86,0,0,0,.35-.3c.14-.18.18-.36-.1-.36a1,1,0,0,0-.55.13c-.15.09-.27.22-.42.31-.4.26-.82.49-1.22.75-.55.37-1.1.75-1.68,1.08a21.35,21.35,0,0,1-3.41,1.6,13.8,13.8,0,0,1-1.58.46c-.73.16-1.45.46-2.18.66s-1.31.31-1.95.54a3.93,3.93,0,0,1-2.93-.22c-.75-.47-2-1.4-1.74-2.41.16-.73,1-1.25,1.58-1.64s1.3-.42,1.92-.77,1.16-.71,1.76-1a5.28,5.28,0,0,0,1.43-1.11,10.47,10.47,0,0,1,.75-1.06,4.92,4.92,0,0,0,.87-1.62q.86-2,1.69-3.92c.19-.45.54-1,0-1.42s-1,.11-1.4.38c-2.77,1.82-5.51,3.7-8.29,5.51a26.6,26.6,0,0,1-6.87,3.5c-1,.3-2.09.49-2.87-.45a2.82,2.82,0,0,1-.25-2.94,17.9,17.9,0,0,1,4.43-6.27c3.37-3.29,6.86-6.46,10.29-9.69,2.51-2.37,2.4-3.18-.72-4.74a54.82,54.82,0,0,1-6-2.86,5.07,5.07,0,0,1-2.47-3,3,3,0,0,1,2.19-4c3.65-1.31,7.48-1.07,11.26-1.12,2.28,0,4.55.07,6.83.17a3.64,3.64,0,0,0,3.41-1.36q1.27-1.63,2.49-3.29,4-5.48,7.53-11.33a133.67,133.67,0,0,0,6.32-11.93A131.66,131.66,0,0,0,163.23,238q1.12-3.22,2.07-6.5.48-1.65.91-3.31c.13-.49.84-2.6,1.08-3.1.15-.32.22-.73.57-.82a1.9,1.9,0,0,1,1,.18c5,1.85,10.05.81,15-.54a1.24,1.24,0,0,1,.65-.06c.59.16.6,1,.48,1.59-4.57,22.38-13.19,43.85-22.7,64.57a8.23,8.23,0,0,0-.75,3.83c.07,2.22.14,4.43.18,6.65,0,0,1.5,5.38-3.9,11.07a17.9,17.9,0,0,1-10.13,5.62.33.33,0,0,1-.28-.57C148.81,315.24,151.89,312.22,152,310.76Z"/>
    <path class="cls-12" d="M168.09,200.4a13.87,13.87,0,0,0-1,2.79c-.77,3.15-.86,6.4-1.47,9.58a34.32,34.32,0,0,1-2,6.53,5.14,5.14,0,0,0-.55,2.26,2.28,2.28,0,0,0,.71,1.42c3.46,3.43,6.71,4.65,11.14,5.28,2.42.34,4.76.36,7.2.56a3.67,3.67,0,0,0,3.1-.69,11,11,0,0,0,1.52-2.55c1.59-3.68,3.56-6.19,5.92-9.44,2.57-3.54,4-6.68,4.08-10.64a18.48,18.48,0,0,0-.93-7.46,11.87,11.87,0,0,0-4.65-5.56C183,187.76,172.07,192.28,168.09,200.4Z"/>
  </g>
</svg>
