<svg id="Layer_1" data-name="Layer 1" xmlns="http://www.w3.org/2000/svg" xmlns:xlink="http://www.w3.org/1999/xlink" viewBox="0 0 260 168"><defs><style>.cls-1{fill:#ff2c2c;}.cls-2{clip-path:url(#clip-path);}.cls-3{fill:#e02222;}.cls-4{clip-path:url(#clip-path-2);}.cls-5{clip-path:url(#clip-path-3);}.cls-6{fill:#ffb42e;}.cls-7{fill:#a30810;opacity:0.15;}.cls-8,.cls-9{fill:#ffe4b8;}.cls-8{opacity:0.42;}.cls-9{opacity:0.55;}</style><clipPath id="clip-path"><path class="cls-1" d="M109.17,87.7a1.06,1.06,0,0,0-.76,0,.74.74,0,0,0-.32.86,1.83,1.83,0,0,0,.59.79.81.81,0,0,0-.39.73.82.82,0,0,0,.44.7.71.71,0,0,0-.13,1,.9.9,0,0,0,.76.29,2.11,2.11,0,0,0,.8-.27,3.06,3.06,0,0,0,1.46-1.4,1.58,1.58,0,0,0-.4-1.85,4,4,0,0,0-.77-.31C110,88,109.6,87.84,109.17,87.7Z"/></clipPath><clipPath id="clip-path-2"><path class="cls-1" d="M121.27,87.7a1.06,1.06,0,0,1,.76,0,.72.72,0,0,1,.31.86,1.74,1.74,0,0,1-.58.79.83.83,0,0,1,.39.73.84.84,0,0,1-.44.7.71.71,0,0,1,.13,1,.9.9,0,0,1-.76.29,2.05,2.05,0,0,1-.8-.27,3.06,3.06,0,0,1-1.46-1.4,1.57,1.57,0,0,1,.39-1.85,4.27,4.27,0,0,1,.77-.31Q120.63,87.91,121.27,87.7Z"/></clipPath><clipPath id="clip-path-3"><ellipse class="cls-1" cx="115.07" cy="89.5" rx="4.48" ry="2.81"/></clipPath></defs><path class="cls-1" d="M109.17,87.7a1.06,1.06,0,0,0-.76,0,.74.74,0,0,0-.32.86,1.83,1.83,0,0,0,.59.79.81.81,0,0,0-.39.73.82.82,0,0,0,.44.7.71.71,0,0,0-.13,1,.9.9,0,0,0,.76.29,2.11,2.11,0,0,0,.8-.27,3.06,3.06,0,0,0,1.46-1.4,1.58,1.58,0,0,0-.4-1.85,4,4,0,0,0-.77-.31C110,88,109.6,87.84,109.17,87.7Z"/><g class="cls-2"><path class="cls-3" d="M111.93,89.55a1.75,1.75,0,0,0-.76-.63,3.45,3.45,0,0,0-1.12-.42.73.73,0,0,0-.36,0,.3.3,0,0,0-.17.3c0,.11.13.19.23.25l.43.27c-.2.25-.56.27-.83.41a.29.29,0,0,0-.12.1.23.23,0,0,0,.07.27.55.55,0,0,0,.28.09,2.1,2.1,0,0,0,.56,0,.62.62,0,0,1,.27,0,.19.19,0,0,1,.16.19.37.37,0,0,1-.09.16,1.41,1.41,0,0,0-.17.32c0,.06,0,.14,0,.18s.07,0,.1,0a3.22,3.22,0,0,0,1.66-.64,1.52,1.52,0,0,0,.39-.32.56.56,0,0,0,.13-.48.35.35,0,0,0-.36-.28"/></g><path class="cls-1" d="M121.27,87.7a1.06,1.06,0,0,1,.76,0,.72.72,0,0,1,.31.86,1.74,1.74,0,0,1-.58.79.83.83,0,0,1,.39.73.84.84,0,0,1-.44.7.71.71,0,0,1,.13,1,.9.9,0,0,1-.76.29,2.05,2.05,0,0,1-.8-.27,3.06,3.06,0,0,1-1.46-1.4,1.57,1.57,0,0,1,.39-1.85,4.27,4.27,0,0,1,.77-.31Q120.63,87.91,121.27,87.7Z"/><g class="cls-4"><path class="cls-3" d="M118.51,89.55a1.72,1.72,0,0,1,.75-.63,3.63,3.63,0,0,1,1.12-.42.77.77,0,0,1,.37,0,.3.3,0,0,1,.17.3.47.47,0,0,1-.23.25l-.43.27c.2.25.55.27.83.41,0,0,.09,0,.11.1s0,.2-.06.27a.58.58,0,0,1-.29.09,2,2,0,0,1-.55,0,.62.62,0,0,0-.27,0,.19.19,0,0,0-.16.19.48.48,0,0,0,.08.16,1.14,1.14,0,0,1,.18.32c0,.06,0,.14,0,.18a.2.2,0,0,1-.11,0,3.18,3.18,0,0,1-1.65-.64,1.52,1.52,0,0,1-.39-.32.6.6,0,0,1-.14-.48.36.36,0,0,1,.37-.28"/></g><ellipse class="cls-1" cx="115.07" cy="89.5" rx="4.48" ry="2.81"/><g class="cls-5"><path class="cls-6" d="M115.07,90.67a6.62,6.62,0,0,0-1.48,2.25l1.71.27a.42.42,0,0,0,.16,0c.07,0,.09-.11.12-.17a7.26,7.26,0,0,1,3.5-4c.53-.27,1.16-.53,1.39-1.09a.78.78,0,0,0,0-.54,1.18,1.18,0,0,0-1.49-.58c-.4.19-.51.73-.73,1.07C117.51,89.07,116.06,89.69,115.07,90.67Z"/><path class="cls-6" d="M115.34,88.78c-.6.6-1.31,1.09-2,1.65a4.57,4.57,0,0,0-1.47,2c0,.08,0,.17-.13.18l-.1,0-.8-.3A6.24,6.24,0,0,1,112.57,90a15.46,15.46,0,0,0,1.64-1.37,3.47,3.47,0,0,0,.86-2.24s1.41-.14,1.34.6A3.54,3.54,0,0,1,115.34,88.78Z"/><path class="cls-6" d="M112.91,87.77a8,8,0,0,1-1.59,1.43,5.4,5.4,0,0,0-.9.67,2,2,0,0,0-.53,1.45,2.44,2.44,0,0,1-.38-1.88,6.09,6.09,0,0,1,.73-1.82,2.59,2.59,0,0,1,.78-1,2.32,2.32,0,0,1,1.93-.17C113.69,86.71,113.28,87.33,112.91,87.77Z"/><path class="cls-7" d="M110.78,91c1-.17,2,.76,3.1.67.28,0,.56-.12.83-.17.79-.13,1.6.14,2.4,0a.75.75,0,0,0,.36-.13c.12-.1.18-.27.31-.36a.7.7,0,0,1,.32-.09l1.53-.19a1,1,0,0,1,.83.13.87.87,0,0,1,.24.65,4,4,0,0,1-.17,1.41,1.12,1.12,0,0,1-.36.6,1.17,1.17,0,0,1-.52.16,12.54,12.54,0,0,1-2.21,0c-1.17-.06-2.33-.15-3.49-.24l-3.31-.25a6.3,6.3,0,0,1-1.29-.2c-.07,0-.16-.06-.19-.14a.31.31,0,0,1,0-.26c.2-.42.42-.83.66-1.24"/></g><path class="cls-8" d="M115.82,87.06c.07,0,.15,0,.17.09s-.1.2-.22.23l-2.74.56c-.19,0-1.18.35-1.1-.06s.92-.49,1.15-.57A6.35,6.35,0,0,1,115.82,87.06Z"/><ellipse class="cls-9" cx="116.86" cy="87.31" rx="0.17" ry="0.39" transform="translate(16.89 193.54) rotate(-83.51)"/></svg>