<svg xmlns="http://www.w3.org/2000/svg" xmlns:xlink="http://www.w3.org/1999/xlink" viewBox="0 0 260 168"><defs><style>.cls-1{fill:#f4a947;}.cls-2{clip-path:url(#clip-path);}.cls-3{fill:#f98e0d;}.cls-4{fill:#ffe38a;}.cls-5{fill:#d87912;opacity:0.71;}.cls-6{fill:#d17109;}.cls-7{clip-path:url(#clip-path-2);}.cls-8{fill:#ffc988;}.cls-9{clip-path:url(#clip-path-3);}.cls-10{clip-path:url(#clip-path-4);}</style><clipPath id="clip-path"><path class="cls-1" d="M112.81,128.59a69.43,69.43,0,0,0-16.34-1.38,38.79,38.79,0,0,1,16.45-4.07,34.24,34.24,0,0,0-9.71-2.89,33.84,33.84,0,0,1,15.14-1.12l-2.87-4.36A30.56,30.56,0,0,1,122.1,117a11.87,11.87,0,0,1,9.06-6l-1.78,3.52a23.14,23.14,0,0,1,20.9-2.31l-4.15,3.16A18.21,18.21,0,0,1,157.67,120l-2.22,1.39a16.14,16.14,0,0,1,13.72,7.23,17.86,17.86,0,0,0-8.2-1.07,8.5,8.5,0,0,1,6,5,16.17,16.17,0,0,0-7.86-.23,14.9,14.9,0,0,1,3.53,2.33,72,72,0,0,0-9.95-.66,9,9,0,0,1,1.66,2.23l-4.26-.85a1.13,1.13,0,0,0-.79,0c-.23.12-.3.49,0,.6l-5-.35a4.83,4.83,0,0,0,.13,2.5q-3.32-.93-6.71-1.58l.29,1.75-3.18-1.7c-1.33.19-2.66.39-4,.61-1.53.24-3.88-.28-3.43-1.66a28.58,28.58,0,0,1-6.44,1.19,3,3,0,0,1,1.2-2,43.78,43.78,0,0,0-11.71.68l3.36-2.16a86.7,86.7,0,0,0-14.94.65Z"/></clipPath><clipPath id="clip-path-2"><path class="cls-1" d="M144.17,138.72a41.81,41.81,0,0,0-10.53-.93,23.64,23.64,0,0,1,10.62-2.86,21.32,21.32,0,0,0-6.26-2,20.45,20.45,0,0,1,9.76-.8l-1.85-3a18.49,18.49,0,0,1,4.27,1.55,7.68,7.68,0,0,1,5.85-4.22c-.38.81-.77,1.63-1.15,2.45a14,14,0,0,1,13.47-1.64l-2.68,2.2a11.27,11.27,0,0,1,7.43,3.2l-1.43,1a10.16,10.16,0,0,1,8.83,5,10.71,10.71,0,0,0-5.28-.73,5.59,5.59,0,0,1,3.83,3.48,9.67,9.67,0,0,0-5.07-.14,9.15,9.15,0,0,1,2.27,1.62,43,43,0,0,0-6.41-.45,6.39,6.39,0,0,1,1.07,1.55l-2.75-.59a.71.71,0,0,0-.5,0c-.15.08-.2.35,0,.42l-3.23-.23a3.62,3.62,0,0,0,.08,1.73q-2.13-.65-4.32-1.08l.18,1.21-2-1.18-2.59.43c-1,.18-2.5-.18-2.21-1.14a17.88,17.88,0,0,1-4.15.84,2.09,2.09,0,0,1,.78-1.4,26.2,26.2,0,0,0-7.55.5l2.16-1.51a50.89,50.89,0,0,0-9.63.47Z"/></clipPath><clipPath id="clip-path-3"><path class="cls-1" d="M124.88,140a53.29,53.29,0,0,1,13.45-1.2,30.22,30.22,0,0,0-13.56-3.65,26.54,26.54,0,0,1,8-2.56,25.88,25.88,0,0,0-12.47-1l2.35-3.88a23.48,23.48,0,0,0-5.44,2,9.86,9.86,0,0,0-7.48-5.39l1.48,3.13A17.86,17.86,0,0,0,94,125.3l3.42,2.81a14.35,14.35,0,0,0-9.49,4.09l1.83,1.25a12.93,12.93,0,0,0-11.28,6.4,13.78,13.78,0,0,1,6.75-.94,7.15,7.15,0,0,0-4.9,4.45,12.33,12.33,0,0,1,6.47-.18,11.77,11.77,0,0,0-2.9,2.07,54.74,54.74,0,0,1,8.19-.58,8,8,0,0,0-1.36,2l3.5-.76a1,1,0,0,1,.65,0c.19.11.25.45.05.54l4.12-.3a4.63,4.63,0,0,1-.1,2.22c1.81-.54,3.66-1,5.52-1.39l-.24,1.56,2.62-1.51,3.31.55c1.26.22,3.19-.24,2.82-1.47a21.8,21.8,0,0,0,5.3,1.08,2.69,2.69,0,0,0-1-1.78,33.2,33.2,0,0,1,9.64.63l-2.77-1.93a66.56,66.56,0,0,1,12.3.6Z"/></clipPath><clipPath id="clip-path-4"><path class="cls-1" d="M129.88,142.44a37.88,37.88,0,0,0-9.56-.85A21.39,21.39,0,0,1,130,139a18.87,18.87,0,0,0-5.68-1.82,18.51,18.51,0,0,1,8.86-.73l-1.68-2.75a16.45,16.45,0,0,1,3.87,1.41,7,7,0,0,1,5.31-3.84l-1,2.23A12.68,12.68,0,0,1,151.8,132l-2.42,2a10.23,10.23,0,0,1,6.73,2.9l-1.29.89a9.22,9.22,0,0,1,8,4.55,9.81,9.81,0,0,0-4.79-.67,5.07,5.07,0,0,1,3.47,3.16,8.81,8.81,0,0,0-4.59-.13,8.55,8.55,0,0,1,2.06,1.47,39.18,39.18,0,0,0-5.82-.41,5.9,5.9,0,0,1,1,1.41l-2.49-.53a.66.66,0,0,0-.46,0c-.14.08-.18.32,0,.38l-2.93-.21a3.25,3.25,0,0,0,.07,1.58c-1.29-.39-2.6-.72-3.92-1l.17,1.1-1.86-1.06-2.35.39c-.9.15-2.27-.17-2-1a16,16,0,0,1-3.76.76,2,2,0,0,1,.71-1.27,23.86,23.86,0,0,0-6.85.45l2-1.37a47.23,47.23,0,0,0-8.73.43Z"/></clipPath></defs><g id="Layer_1" data-name="Layer 1"><path class="cls-1" d="M112.81,128.59a69.43,69.43,0,0,0-16.34-1.38,38.79,38.79,0,0,1,16.45-4.07,34.24,34.24,0,0,0-9.71-2.89,33.84,33.84,0,0,1,15.14-1.12l-2.87-4.36A30.56,30.56,0,0,1,122.1,117a11.87,11.87,0,0,1,9.06-6l-1.78,3.52a23.14,23.14,0,0,1,20.9-2.31l-4.15,3.16A18.21,18.21,0,0,1,157.67,120l-2.22,1.39a16.14,16.14,0,0,1,13.72,7.23,17.86,17.86,0,0,0-8.2-1.07,8.5,8.5,0,0,1,6,5,16.17,16.17,0,0,0-7.86-.23,14.9,14.9,0,0,1,3.53,2.33,72,72,0,0,0-9.95-.66,9,9,0,0,1,1.66,2.23l-4.26-.85a1.13,1.13,0,0,0-.79,0c-.23.12-.3.49,0,.6l-5-.35a4.83,4.83,0,0,0,.13,2.5q-3.32-.93-6.71-1.58l.29,1.75-3.18-1.7c-1.33.19-2.66.39-4,.61-1.53.24-3.88-.28-3.43-1.66a28.58,28.58,0,0,1-6.44,1.19,3,3,0,0,1,1.2-2,43.78,43.78,0,0,0-11.71.68l3.36-2.16a86.7,86.7,0,0,0-14.94.65Z"/><g class="cls-2"><path class="cls-3" d="M170.61,129.07a74.61,74.61,0,0,0-12.78-4.18,18.84,18.84,0,0,1,5.36,5.39,28.39,28.39,0,0,1-6.23-.76l1.23,2.12-4.6-1.32,1.69,2.24a31.51,31.51,0,0,1-7.62-1.83,8,8,0,0,1,2.93,3.22,16.54,16.54,0,0,0-8.21-1.66,18.58,18.58,0,0,1,3.49,2,27,27,0,0,0-5.72-1.07,3.17,3.17,0,0,1,.77,2.32,3.6,3.6,0,0,0-3-1.56l.24,1.58a7.12,7.12,0,0,0-3-1.9,7.74,7.74,0,0,1-6.56,1.63,3.17,3.17,0,0,1,2-2.3c-2.83.19-5.64.52-8.43,1l4.24-2.4-9.72.87a18.53,18.53,0,0,1,6.16-2.33c-9.64-1.32-19.33,1.28-28.64,3.86l16.16,8.89c3.55,2,7.23,3.94,11.31,4.43a33,33,0,0,0,9.54-.73c8.12-1.42,16.26-2.78,24.49-3.4,7.59-.57,15.81-.71,21.79-5.05a2.36,2.36,0,0,0,.85-.9,2.24,2.24,0,0,0,0-1.31c-.32-2-1.11-4.45-3.26-4.78"/><path class="cls-4" d="M151.88,111.63q-3.44-.09-6.86.1a21.41,21.41,0,0,0-4.54.63,23.09,23.09,0,0,0-6.21,3.18,23.17,23.17,0,0,0-4.32,3.3,7,7,0,0,1,.59-3.75l-4.9,2.54,1.58-2.93a12.63,12.63,0,0,0-5.64,4.13,12.26,12.26,0,0,0-4.21-2.38,25.19,25.19,0,0,1,3.65,4.48,57.33,57.33,0,0,0-22.49.53c1.47-4.28,5.66-7.27,10-9.36A86.56,86.56,0,0,1,120,107.71a52.71,52.71,0,0,1,10.33-2.47,54.69,54.69,0,0,1,11.85.41,83.71,83.71,0,0,1,8.66,1.3,11.64,11.64,0,0,1,5.5,2.37"/><path class="cls-5" d="M166.43,109.62a24,24,0,0,0-13.12,2,71.24,71.24,0,0,0-11.58,6.8c1.5-1.53,2.93-3.13,4.27-4.8a35.82,35.82,0,0,0-18.22,8l-.65-2.36-3.27,1.59a4.13,4.13,0,0,0-1-2.1,3.12,3.12,0,0,1-4.92,1.56l-1.09,2.31a29.52,29.52,0,0,0-7-1.27,5.1,5.1,0,0,1,4.66,2.92,70.69,70.69,0,0,0-23.26,4.13,3.23,3.23,0,0,0-1.42.8,3.35,3.35,0,0,0-.4,2.8A55.55,55.55,0,0,0,93,144.29c1.24,3,2.86,6,5.54,7.85,3.57,2.42,8.23,2.26,12.54,2.09,15.16-.63,30.33-.4,45.51-.25,5.26.05,10.63.07,15.65-1.5a9.61,9.61,0,0,0,4.79-2.84,9.49,9.49,0,0,0,1.72-4.41,24.53,24.53,0,0,0-.51-10.51c-1.17-4.25-3.49-8.26-3.55-12.67a49.43,49.43,0,0,0,.11-5.16c-.19-1.71-1.09-3.51-2.73-4.06-.84-.29-2-.34-2.27-1.18"/></g><ellipse class="cls-6" cx="131.38" cy="137.41" rx="27.92" ry="6.68"/><path class="cls-1" d="M144.17,138.72a41.81,41.81,0,0,0-10.53-.93,23.64,23.64,0,0,1,10.62-2.86,21.32,21.32,0,0,0-6.26-2,20.45,20.45,0,0,1,9.76-.8l-1.85-3a18.49,18.49,0,0,1,4.27,1.55,7.68,7.68,0,0,1,5.85-4.22c-.38.81-.77,1.63-1.15,2.45a14,14,0,0,1,13.47-1.64l-2.68,2.2a11.27,11.27,0,0,1,7.43,3.2l-1.43,1a10.16,10.16,0,0,1,8.83,5,10.71,10.71,0,0,0-5.28-.73,5.59,5.59,0,0,1,3.83,3.48,9.67,9.67,0,0,0-5.07-.14,9.15,9.15,0,0,1,2.27,1.62,43,43,0,0,0-6.41-.45,6.39,6.39,0,0,1,1.07,1.55l-2.75-.59a.71.71,0,0,0-.5,0c-.15.08-.2.35,0,.42l-3.23-.23a3.62,3.62,0,0,0,.08,1.73q-2.13-.65-4.32-1.08l.18,1.21-2-1.18-2.59.43c-1,.18-2.5-.18-2.21-1.14a17.88,17.88,0,0,1-4.15.84,2.09,2.09,0,0,1,.78-1.4,26.2,26.2,0,0,0-7.55.5l2.16-1.51a50.89,50.89,0,0,0-9.63.47Z"/><g class="cls-7"><path class="cls-3" d="M181.42,139a45.32,45.32,0,0,0-8.22-2.89,12.8,12.8,0,0,1,3.44,3.74,17,17,0,0,1-4-.51l.78,1.47-3-.91,1.09,1.56a19,19,0,0,1-4.91-1.27,5.48,5.48,0,0,1,1.89,2.24,9.93,9.93,0,0,0-5.29-1.14,11.16,11.16,0,0,1,2.24,1.36,16.47,16.47,0,0,0-3.68-.75,2.32,2.32,0,0,1,.49,1.62,2.26,2.26,0,0,0-1.93-1.08l.15,1.1a4.55,4.55,0,0,0-2-1.32,4.74,4.74,0,0,1-4.23,1.15,2.2,2.2,0,0,1,1.32-1.61c-1.82.14-3.64.37-5.43.68l2.74-1.68-6.27.62a11.7,11.7,0,0,1,4-1.63c-6.21-.9-12.46.93-18.46,2.73l10.4,6.18c2.28,1.35,4.65,2.73,7.28,3.07a19.68,19.68,0,0,0,6.15-.53,150.42,150.42,0,0,1,15.79-2.4c4.89-.42,10.19-.52,14-3.56a1.64,1.64,0,0,0,.55-.62,1.79,1.79,0,0,0,0-.92c-.2-1.39-.7-3.1-2.09-3.32"/><path class="cls-8" d="M169.38,126.84c-1.48,0-2.95,0-4.42.08a13.15,13.15,0,0,0-2.93.45,22.11,22.11,0,0,0-6.79,4.54,5.22,5.22,0,0,1,.38-2.62l-3.16,1.77,1-2a8.26,8.26,0,0,0-3.64,2.89,7.9,7.9,0,0,0-2.71-1.66,17.3,17.3,0,0,1,2.34,3.12,34.22,34.22,0,0,0-14.49.41c1-3,3.66-5.08,6.43-6.54a52.62,52.62,0,0,1,7.45-3.08,32,32,0,0,1,6.66-1.74,32.6,32.6,0,0,1,7.64.27,50.22,50.22,0,0,1,5.58.89,7.25,7.25,0,0,1,3.54,1.65"/></g><path class="cls-1" d="M124.88,140a53.29,53.29,0,0,1,13.45-1.2,30.22,30.22,0,0,0-13.56-3.65,26.54,26.54,0,0,1,8-2.56,25.88,25.88,0,0,0-12.47-1l2.35-3.88a23.48,23.48,0,0,0-5.44,2,9.86,9.86,0,0,0-7.48-5.39l1.48,3.13A17.86,17.86,0,0,0,94,125.3l3.42,2.81a14.35,14.35,0,0,0-9.49,4.09l1.83,1.25a12.93,12.93,0,0,0-11.28,6.4,13.78,13.78,0,0,1,6.75-.94,7.15,7.15,0,0,0-4.9,4.45,12.33,12.33,0,0,1,6.47-.18,11.77,11.77,0,0,0-2.9,2.07,54.74,54.74,0,0,1,8.19-.58,8,8,0,0,0-1.36,2l3.5-.76a1,1,0,0,1,.65,0c.19.11.25.45.05.54l4.12-.3a4.63,4.63,0,0,1-.1,2.22c1.81-.54,3.66-1,5.52-1.39l-.24,1.56,2.62-1.51,3.31.55c1.26.22,3.19-.24,2.82-1.47a21.8,21.8,0,0,0,5.3,1.08,2.69,2.69,0,0,0-1-1.78,33.2,33.2,0,0,1,9.64.63l-2.77-1.93a66.56,66.56,0,0,1,12.3.6Z"/><g class="cls-9"><path class="cls-3" d="M77.3,140.29a58.25,58.25,0,0,1,10.51-3.69,16.36,16.36,0,0,0-4.41,4.78,21.1,21.1,0,0,0,5.13-.66l-1,1.89,3.78-1.17-1.39,2a24.22,24.22,0,0,0,6.27-1.62,7.14,7.14,0,0,0-2.41,2.87,12.71,12.71,0,0,1,6.76-1.46A14.22,14.22,0,0,0,97.67,145a20.51,20.51,0,0,1,4.71-.95,3,3,0,0,0-.63,2.07,2.86,2.86,0,0,1,2.46-1.38l-.19,1.4a5.69,5.69,0,0,1,2.5-1.68,6.05,6.05,0,0,0,5.41,1.46,2.8,2.8,0,0,0-1.69-2.05c2.33.18,4.65.47,6.94.87l-3.5-2.15,8,.79a14.82,14.82,0,0,0-5.07-2.08c7.93-1.15,15.91,1.18,23.58,3.49l-13.29,7.89c-2.92,1.73-5.94,3.49-9.3,3.92a25.49,25.49,0,0,1-7.86-.67,193.47,193.47,0,0,0-20.16-3.07c-6.25-.53-13-.67-18-4.54a2.15,2.15,0,0,1-.7-.8,2.21,2.21,0,0,1,0-1.17c.26-1.78.9-4,2.68-4.25"/></g><path class="cls-1" d="M129.88,142.44a37.88,37.88,0,0,0-9.56-.85A21.39,21.39,0,0,1,130,139a18.87,18.87,0,0,0-5.68-1.82,18.51,18.51,0,0,1,8.86-.73l-1.68-2.75a16.45,16.45,0,0,1,3.87,1.41,7,7,0,0,1,5.31-3.84l-1,2.23A12.68,12.68,0,0,1,151.8,132l-2.42,2a10.23,10.23,0,0,1,6.73,2.9l-1.29.89a9.22,9.22,0,0,1,8,4.55,9.81,9.81,0,0,0-4.79-.67,5.07,5.07,0,0,1,3.47,3.16,8.81,8.81,0,0,0-4.59-.13,8.55,8.55,0,0,1,2.06,1.47,39.18,39.18,0,0,0-5.82-.41,5.9,5.9,0,0,1,1,1.41l-2.49-.53a.66.66,0,0,0-.46,0c-.14.08-.18.32,0,.38l-2.93-.21a3.25,3.25,0,0,0,.07,1.58c-1.29-.39-2.6-.72-3.92-1l.17,1.1-1.86-1.06-2.35.39c-.9.15-2.27-.17-2-1a16,16,0,0,1-3.76.76,2,2,0,0,1,.71-1.27,23.86,23.86,0,0,0-6.85.45l2-1.37a47.23,47.23,0,0,0-8.73.43Z"/><g class="cls-10"><path class="cls-3" d="M163.67,142.66A41.12,41.12,0,0,0,156.2,140a11.55,11.55,0,0,1,3.13,3.4,15.39,15.39,0,0,1-3.64-.47l.71,1.34-2.69-.83,1,1.41a17.05,17.05,0,0,1-4.45-1.15,5,5,0,0,1,1.71,2,9,9,0,0,0-4.8-1,10.34,10.34,0,0,1,2,1.23,14.74,14.74,0,0,0-3.35-.67,2.1,2.1,0,0,1,.45,1.47,2,2,0,0,0-1.75-1l.14,1a4.2,4.2,0,0,0-1.78-1.2,4.28,4.28,0,0,1-3.84,1,2,2,0,0,1,1.2-1.46,48.11,48.11,0,0,0-4.93.62l2.48-1.53-5.68.56a10.71,10.71,0,0,1,3.6-1.48c-5.63-.82-11.3.84-16.75,2.48l9.44,5.6a17.67,17.67,0,0,0,6.61,2.79,18.17,18.17,0,0,0,5.58-.48,138.22,138.22,0,0,1,14.32-2.18c4.43-.37,9.24-.47,12.74-3.22a1.52,1.52,0,0,0,.5-.57,1.56,1.56,0,0,0,0-.83c-.19-1.27-.64-2.81-1.9-3"/><path class="cls-4" d="M152.74,131.66c-1.34,0-2.68,0-4,.08a11.33,11.33,0,0,0-2.66.4,20.14,20.14,0,0,0-6.16,4.12,4.73,4.73,0,0,1,.35-2.38l-2.87,1.61.93-1.85a7.44,7.44,0,0,0-3.3,2.62,6.94,6.94,0,0,0-2.46-1.5,15.65,15.65,0,0,1,2.12,2.82,31.3,31.3,0,0,0-13.14.37c.86-2.71,3.31-4.6,5.83-5.93a48.43,48.43,0,0,1,6.75-2.79,28.22,28.22,0,0,1,6-1.58,29.8,29.8,0,0,1,6.93.24,50.74,50.74,0,0,1,5.06.81,6.5,6.5,0,0,1,3.21,1.5"/></g></g></svg>