<svg id="Layer_1" data-name="Layer 1" xmlns="http://www.w3.org/2000/svg" xmlns:xlink="http://www.w3.org/1999/xlink" viewBox="0 0 260 168"><defs><style>.cls-1{fill:#353535;}.cls-2{clip-path:url(#clip-path);}.cls-3{fill:#212121;}.cls-4{fill:#1c1c1c;}.cls-5{fill:#515051;}</style><clipPath id="clip-path"><path class="cls-1" d="M149.42,109.26c-2.4-2.65,1.09-5.35,1.09-5.35H130.93s3.48,2.7,1.09,5.35-2.3,6.35,1.24,7.83h0c.56.41,3.69.72,7.47.72s7-.32,7.49-.74C151.72,115.58,151.8,111.9,149.42,109.26Z"/></clipPath></defs><path class="cls-1" d="M149.42,109.26c-2.4-2.65,1.09-5.35,1.09-5.35H130.93s3.48,2.7,1.09,5.35-2.3,6.35,1.24,7.83h0c.56.41,3.69.72,7.47.72s7-.32,7.49-.74C151.72,115.58,151.8,111.9,149.42,109.26Z"/><g class="cls-2"><ellipse class="cls-3" cx="140.21" cy="118.45" rx="8.34" ry="1.68"/></g><ellipse class="cls-4" cx="140.73" cy="103.91" rx="9.82" ry="1.11"/><ellipse cx="140.73" cy="103.75" rx="9.19" ry="0.88"/><path d="M133.72,103.13s-1.83-.92-2.85-.63-1.66.45-1.48.89,2.65,1,3.65,1.17c0,0,.5-.22-.61-.46s-2.39-.63-2.37-.82,1.15-.44,1.33-.46a4.18,4.18,0,0,1,1.65.46S133.63,103.41,133.72,103.13Z"/><path d="M147.85,103.13s1.82-.92,2.84-.63,1.66.45,1.48.89-2.65,1-3.65,1.17c0,0-.5-.22.61-.46s2.39-.63,2.37-.82-1.15-.44-1.33-.46a4.18,4.18,0,0,0-1.65.46S147.93,103.41,147.85,103.13Z"/><ellipse class="cls-5" cx="135" cy="110.26" rx="1.71" ry="0.56"/><ellipse class="cls-5" cx="133.22" cy="112.52" rx="1.29" ry="0.42"/></svg>