<svg id="bg" xmlns="http://www.w3.org/2000/svg" viewBox="0 0 66.19 58.89">
  <defs>
    <style>
      .cls-1 {
        fill: none;
      }

      .cls-2 {
        fill: #fefefe;
      }

      .cls-3 {
        fill: #0798ff;
      }

      .cls-4 {
        fill: #fee5bb;
      }

      .cls-5 {
        fill: #c39e6a;
      }

      .cls-6 {
        fill: #fde500;
      }

      .cls-7 {
        fill: #50b0bc;
      }

      .cls-8 {
        fill: #88c49e;
      }

      .cls-9 {
        fill: #3f96d1;
      }
    </style>
  </defs>
  <title>p02</title>
  <rect class="cls-1" x="-77.4" y="-303" width="808" height="454.5"/>
  <g>
    <path class="cls-2" d="M60,16.85l5.24,5.42s-5,8.29-7.86,3.59S58.26,16.37,60,16.85Z"/>
    <g>
      <path class="cls-3" d="M27,33.48c-1.36-.15-2.72-.28-4.07-.45a69.81,69.81,0,0,1-12.14-2.52A44,44,0,0,1,1.5,26.59a4.65,4.65,0,0,0-.56-.34A1.54,1.54,0,0,1,0,24.7a9,9,0,0,1,1.23-4.93,25.56,25.56,0,0,1,4.74-6,50.92,50.92,0,0,1,6.69-5.48,1.71,1.71,0,0,1,.23-.13c.15.09.17.26.24.4a3.7,3.7,0,0,0,2.48,2.16,3.82,3.82,0,0,0,4.8-3.22,4.35,4.35,0,0,0-.79-3.18c0-.06-.09-.11-.06-.19A40.78,40.78,0,0,1,28.92.5,14.14,14.14,0,0,1,34.14.1a.15.15,0,0,1-.08.14,3.17,3.17,0,0,0-.61,1.84,3.91,3.91,0,0,0,2.66,4,3.74,3.74,0,0,0,5-3.2c0-.14,0-.3.12-.41a43.6,43.6,0,0,1,5.45,3.26,93.1,93.1,0,0,1,9.91,7.91c1.07,1,2.11,2,3.16,2.93l.31.26a1,1,0,0,1-.42.25,4.07,4.07,0,0,0-2.22,4.11,4,4,0,0,0,3.27,3.6A3.92,3.92,0,0,0,65,22s.06,0,.09,0l.45.48A2.09,2.09,0,0,1,65.94,25a5,5,0,0,1-1.64,1.79,21.63,21.63,0,0,1-5.42,2.7,90.15,90.15,0,0,1-12,3.31,38.14,38.14,0,0,1-6.11.8c-.24.19-.54.12-.81.13-1.06.06-2.12.12-3.19.1a1.46,1.46,0,0,0-.46-.06h-3a1.48,1.48,0,0,0-.47.05c-1,.06-1.93,0-2.9-.07-.69,0-1.38-.06-2.07-.11A2.23,2.23,0,0,1,27,33.48Z"/>
      <path class="cls-4" d="M41.75,36a12.19,12.19,0,0,1,.85,1.92c.75,1.83,1.45,3.67,2,5.55a36.79,36.79,0,0,1,1.49,6.11,12.42,12.42,0,0,1,0,4,4.93,4.93,0,0,1-2.87,3.6A14.89,14.89,0,0,1,39,58.44c-1.12.18-2.25.3-3.39.38-1.7.11-3.39.08-5.08,0-1.29,0-2.57-.19-3.84-.33a36.08,36.08,0,0,1-4.39-.68,8.15,8.15,0,0,1-4-1.9C17,54.72,16.71,53.57,17.83,52a15,15,0,0,1,2.77-2.68c1.08-.86,2.16-1.73,3.23-2.61a9.05,9.05,0,0,0,2.54-3.82,14.2,14.2,0,0,0,.9-3.85c.11-1.06,0-2.12.06-3.18.12,0,.18,0,.25.12a3.43,3.43,0,0,0,1.62,1,15.43,15.43,0,0,0,3.51.66,21.3,21.3,0,0,0,2.88.05,13.28,13.28,0,0,0,4.5-.83,5.45,5.45,0,0,0,1.25-.69C41.46,36.06,41.57,35.93,41.75,36Z"/>
      <path class="cls-5" d="M41.75,36a7.94,7.94,0,0,1-4,1.61,19.39,19.39,0,0,1-4.37.2,14.46,14.46,0,0,1-4.6-.86,3.08,3.08,0,0,1-1.44-1c-.09-.67-.19-1.35-.29-2,0-.13,0-.26-.06-.39l2.83.15c1,0,2.06.08,3.1.12q1.94-.06,3.87,0c1.09,0,2.18,0,3.27-.12.24,0,.49,0,.73,0l.84,1.93A.83.83,0,0,1,41.75,36Z"/>
      <path class="cls-6" d="M41.19,2.49a3.86,3.86,0,0,1-2.86,3.78,4,4,0,0,1-4.92-3.22A4.31,4.31,0,0,1,33.78.47c.06-.13.1-.28.28-.31s.4,0,.6.06h.2c.12.08.27,0,.39.07a17.23,17.23,0,0,1,5.48,1.89C40.89,2.28,41,2.39,41.19,2.49Z"/>
      <path class="cls-2" d="M19.58,4.11A3.61,3.61,0,0,1,20.48,6a4.08,4.08,0,0,1-2.73,4.76,3.89,3.89,0,0,1-4.84-2.64c1.41-.93,2.82-1.85,4.28-2.71.72-.41,1.45-.8,2.18-1.2Z"/>
      <path class="cls-7" d="M34.66.22a1.7,1.7,0,0,1-.6-.06L34.14.1A1.17,1.17,0,0,1,34.66.22Z"/>
      <path class="cls-8" d="M35.25.3a.53.53,0,0,1-.39-.07C35,.23,35.13.19,35.25.3Z"/>
      <path class="cls-2" d="M47.93,16.79A4,4,0,0,1,44,12.67a3.95,3.95,0,1,1,3.9,4.12Z"/>
      <path class="cls-2" d="M35.94,29.53a4.07,4.07,0,1,1,4-4.06A4,4,0,0,1,35.94,29.53Z"/>
      <path class="cls-2" d="M20.55,30.26a4.07,4.07,0,0,1,.07-8.14,4.07,4.07,0,0,1-.07,8.14Z"/>
      <path class="cls-6" d="M29.53,18.11a4.08,4.08,0,0,1,0-8.15,4.08,4.08,0,0,1,0,8.15Z"/>
      <path class="cls-6" d="M9,24.7a4.08,4.08,0,0,1,0-8.15A4.06,4.06,0,0,1,13,20.66,4,4,0,0,1,9,24.7Z"/>
      <path class="cls-6" d="M49.45,29.38a4,4,0,0,1-4-4,4,4,0,1,1,4,4Z"/>
      <path class="cls-9" d="M36.78,33.75H32.91c.06-.07.15-.06.23-.06h3.4A.3.3,0,0,1,36.78,33.75Z"/>
    </g>
  </g>
</svg>
