<svg id="Layer_1" data-name="Layer 1" xmlns="http://www.w3.org/2000/svg" xmlns:xlink="http://www.w3.org/1999/xlink" viewBox="0 0 260 168"><defs><style>.cls-1{fill:#a59589;}.cls-2{fill:#826d5e;}.cls-3{fill:#66554a;}.cls-4{fill:#877669;}.cls-5{clip-path:url(#clip-path);}.cls-6{fill:#967e6e;}.cls-7{fill:#afa197;}.cls-8{fill:#b2a39a;}.cls-9{fill:#9b8b80;}.cls-10{fill:#a08f84;}.cls-11{fill:#9e8e83;}.cls-12{fill:#c1bcb9;opacity:0.17;}.cls-13{fill:#604c3e;}.cls-14{clip-path:url(#clip-path-2);}</style><clipPath id="clip-path"><path class="cls-1" d="M192.61,121a.75.75,0,0,0-.14-.41v-.06h-.07s0-.08-.09-.1a1.64,1.64,0,0,0-.38-.1,4.54,4.54,0,0,1-.61-.24,4.3,4.3,0,0,0-.69-.16,32,32,0,0,0-3.39-.41c-.24,0-.48,0-.72,0a3.2,3.2,0,0,1-1.34,0c-3.93-.1-7.86-.19-11.79-.1a21.3,21.3,0,0,0-4.91.54,1,1,0,0,0-.79.58l0,0v.09a25.81,25.81,0,0,1,.56,3.9,12.69,12.69,0,0,0,.13,2,6.41,6.41,0,0,0,.27,1l1.14,3.51a6.74,6.74,0,0,1,.26,1,7.36,7.36,0,0,0,.25,2.06,3.76,3.76,0,0,1,.37.82,3.06,3.06,0,0,1-.07.73,3.91,3.91,0,0,0,1.29,2.87l0,.22-.54,1.34a.09.09,0,0,0,0,.06c0,.05.06.1.14.16a.2.2,0,0,0,.05.19,2,2,0,0,0,1.34.54c.49,0,1,0,1.48,0l.34,0,.39,0c.56.09,1.12.23,1.68.32a4.4,4.4,0,0,0,1.62-.06c.56,0,1.15,0,1.74,0s1,0,1.45,0c1.2.1,2.42.08,3.63.06a2,2,0,0,0,.65-.09,5.05,5.05,0,0,0,.51-.28c.86-.42,2.1,0,2.72-.74a.65.65,0,0,0-.35-.59l-.4-1v0a1.31,1.31,0,0,0,.74-1.34,2.14,2.14,0,0,1-.06-.5,1.48,1.48,0,0,1,.17-.41c.42-.85.22-1.88.42-2.81a19,19,0,0,1,.94-2.31c.5-1.36.4-2.91,1-4.22a5.33,5.33,0,0,0,.58-1.38,9.73,9.73,0,0,0-.07-1.32,7,7,0,0,1,.26-1.63,6.37,6.37,0,0,0,.09-1.23A1.16,1.16,0,0,0,192.61,121Zm-7.91-.43h-.28a5.27,5.27,0,0,0,.43-.51A2.29,2.29,0,0,1,184.7,120.57Z"/></clipPath><clipPath id="clip-path-2"><ellipse class="cls-2" cx="180.12" cy="120.76" rx="12.36" ry="1.23"/></clipPath></defs><path class="cls-3" d="M193.12,118.79s-.46-.08-.51.26.31.45.62.43v.15l-.43.06-.35-.27-.05-.36.24-.45Z"/><path class="cls-4" d="M191.53,121.62a7.19,7.19,0,0,0,2.14-2.37,1,1,0,0,0-1.07-.89l-.8,2.14Zm1-2.76a.42.42,0,0,1,.58,0,.41.41,0,0,1,.13.57.45.45,0,0,1-.71-.53Z"/><path class="cls-1" d="M192.61,121a.75.75,0,0,0-.14-.41v-.06h-.07s0-.08-.09-.1a1.64,1.64,0,0,0-.38-.1,4.54,4.54,0,0,1-.61-.24,4.3,4.3,0,0,0-.69-.16,32,32,0,0,0-3.39-.41c-.24,0-.48,0-.72,0a3.2,3.2,0,0,1-1.34,0c-3.93-.1-7.86-.19-11.79-.1a21.3,21.3,0,0,0-4.91.54,1,1,0,0,0-.79.58l0,0v.09a25.81,25.81,0,0,1,.56,3.9,12.69,12.69,0,0,0,.13,2,6.41,6.41,0,0,0,.27,1l1.14,3.51a6.74,6.74,0,0,1,.26,1,7.36,7.36,0,0,0,.25,2.06,3.76,3.76,0,0,1,.37.82,3.06,3.06,0,0,1-.07.73,3.91,3.91,0,0,0,1.29,2.87l0,.22-.54,1.34a.09.09,0,0,0,0,.06c0,.05.06.1.14.16a.2.2,0,0,0,.05.19,2,2,0,0,0,1.34.54c.49,0,1,0,1.48,0l.34,0,.39,0c.56.09,1.12.23,1.68.32a4.4,4.4,0,0,0,1.62-.06c.56,0,1.15,0,1.74,0s1,0,1.45,0c1.2.1,2.42.08,3.63.06a2,2,0,0,0,.65-.09,5.05,5.05,0,0,0,.51-.28c.86-.42,2.1,0,2.72-.74a.65.65,0,0,0-.35-.59l-.4-1v0a1.31,1.31,0,0,0,.74-1.34,2.14,2.14,0,0,1-.06-.5,1.48,1.48,0,0,1,.17-.41c.42-.85.22-1.88.42-2.81a19,19,0,0,1,.94-2.31c.5-1.36.4-2.91,1-4.22a5.33,5.33,0,0,0,.58-1.38,9.73,9.73,0,0,0-.07-1.32,7,7,0,0,1,.26-1.63,6.37,6.37,0,0,0,.09-1.23A1.16,1.16,0,0,0,192.61,121Zm-7.91-.43h-.28a5.27,5.27,0,0,0,.43-.51A2.29,2.29,0,0,1,184.7,120.57Z"/><g class="cls-5"><path class="cls-6" d="M170.26,138.21a1.42,1.42,0,0,1,1.24,0c.4.16.76.4,1.16.54a15.83,15.83,0,0,0,2.76.26c1.26.22,2.42,1.1,3.68.89.41-.07.8-.25,1.21-.35,1.19-.27,2.42.27,3.64.17a7.59,7.59,0,0,0,1.39-.33,11.42,11.42,0,0,1,5.18-.75,9.68,9.68,0,0,0,1,3.33,38.12,38.12,0,0,1-10,2.05A15.05,15.05,0,0,1,176,144c-1.37-.36-2.65-1.11-4.06-1.12a6.41,6.41,0,0,1-1.91-.06.74.74,0,0,1-.43-.28.9.9,0,0,1-.13-.43,6.2,6.2,0,0,1,.77-3.81l-.19.34"/><path class="cls-7" d="M166.63,121.37A2.37,2.37,0,0,1,169,123a1.56,1.56,0,0,0,.38.83c.38.29,1,.06,1.32.44a1.85,1.85,0,0,0,.19.27.69.69,0,0,0,.45.1,2.65,2.65,0,0,1,.73.16.48.48,0,0,1,.24.18.45.45,0,0,1,0,.2l.08,1.13a2.29,2.29,0,0,1-1.63,0,1.31,1.31,0,0,0-.74-.16,1.09,1.09,0,0,0-.37.19l-.82.58c-.32.23-.69.56-.61,1a4.59,4.59,0,0,0-2-1.89,1,1,0,0,1-.37-.24.8.8,0,0,1-.1-.51,10,10,0,0,1,.43-1.69,5.58,5.58,0,0,0,.16-1.91"/><path class="cls-8" d="M193.07,124a2.26,2.26,0,0,0-2,.33,7.71,7.71,0,0,1-1.84,1c-.63.17-1.3.08-1.93.2s-1.37.58-2.1.7a4.55,4.55,0,0,0-1,.15.75.75,0,0,0-.56.72,18.27,18.27,0,0,1,3.84.22,10.58,10.58,0,0,0,1.23.22,3.16,3.16,0,0,0,1.36-.21,3,3,0,0,1,1.2-.35c.58,0,1.12.59,1.67.39a1.36,1.36,0,0,0,.64-.88l.38-1A.7.7,0,0,0,194,125a.64.64,0,0,0-.23-.26l-.57-.46"/><path class="cls-9" d="M172.48,133.23s0-.08,0-.09a.13.13,0,0,0-.1.06,1.22,1.22,0,0,0-.23,1,6.71,6.71,0,0,1,.16,1.08.91.91,0,0,0,0,.52,1,1,0,0,0,.49.26,4.49,4.49,0,0,1,1.2.8,1.24,1.24,0,0,0,.55.27.52.52,0,0,0,.55-.21c.15-.25,0-.59.08-.87s.15-.29.15-.44-.19-.38-.33-.55c-.4-.5-.37-1.28-.84-1.72a2.1,2.1,0,0,1-.42-.37c-.13-.21-.11-.51-.27-.7a.57.57,0,0,0-.8,0,1,1,0,0,0-.22.84"/><path class="cls-10" d="M185.61,134.69a4.07,4.07,0,0,1-1.8,1c-.53.15-1.16.23-1.47.69a2.46,2.46,0,0,1-.22.34c-.26.27-.74.2-1,.48-.07.08-.11.22,0,.29a.27.27,0,0,0,.17.06,43.24,43.24,0,0,0,4.69.16.67.67,0,0,0,.31-.05c.16-.07.25-.24.37-.36a7.66,7.66,0,0,1,.88-.61c.28-.23.41-.72.11-.92a.67.67,0,0,0-.64,0,1.65,1.65,0,0,1-.62.25c-.23,0-.48-.18-.42-.4a.72.72,0,0,1,.16-.24.63.63,0,0,0,.21-.58c-.06-.21-.4-.3-.5-.11"/><path class="cls-11" d="M167.27,118.92a.36.36,0,0,0-.26.42.91.91,0,0,0,.31.44,4.24,4.24,0,0,0,2.07,1c.49.09,1,.09,1.47.2a17.86,17.86,0,0,1,2.17.92c1.82.69,3.87.21,5.78.55,1.58.28,3.11,1.11,4.68.8.82-.15,1.55-.61,2.36-.84a4.33,4.33,0,0,1,1.56-.16,3.05,3.05,0,0,0,1.38,0,3.25,3.25,0,0,0,.68-.43,3.09,3.09,0,0,1,1.53-.5,10.28,10.28,0,0,0,1.11,0,4,4,0,0,0,1.71-.87.43.43,0,0,0,.17-.21.42.42,0,0,0,0-.22,2.41,2.41,0,0,0-.47-1,2.39,2.39,0,0,0-.95-.52,21.74,21.74,0,0,0-6-1.46c-4.13-.26-8.27,1.53-12.34.79a9.8,9.8,0,0,0-1.61-.25c-.55,0-1.1.11-1.65.15-.85.06-1.88,0-2.35.69-.14.22-.3.53-.55.47-.09,0-.18-.1-.26-.06s.07.18.06.09"/><path class="cls-12" d="M173.52,118.13c-.48,1.51-1,3.17-.39,4.65a9.56,9.56,0,0,1,.55,1.33,5.22,5.22,0,0,1,0,1.31c-.17,3.28,1.29,6.39,2.43,9.48a3.92,3.92,0,0,1,.28,1.12,4.33,4.33,0,0,1-.07.8l-.29,1.94a1.62,1.62,0,0,1-.24.72,1.77,1.77,0,0,1-.54.4,4.93,4.93,0,0,0-2.07,2.5,3.76,3.76,0,0,1,2.58.17,9.74,9.74,0,0,1,1.18-2.4,2.15,2.15,0,0,0,.46-.9,4,4,0,0,0-.06-.84,5.6,5.6,0,0,1,.24-1.51,5.27,5.27,0,0,0-.35-3.16,7,7,0,0,1-.47-1.14,8.19,8.19,0,0,1-.12-1,9.62,9.62,0,0,0-1.31-2.91,2.79,2.79,0,0,1-.44-1.6c.07-.65.51-1.29.27-1.89a2.13,2.13,0,0,1-.23-.59,2.8,2.8,0,0,1,.12-.56c0-.39-.26-.72-.4-1.09-.25-.71.14-1.51,0-2.24a4.08,4.08,0,0,1-.16-.6,2,2,0,0,1,.83-1.49,1.74,1.74,0,0,0-1.85-.4l.11.36"/></g><path class="cls-13" d="M167.15,118.79s.45-.08.5.26-.31.45-.62.43v.15l.43.06.35-.27.05-.36-.24-.45Z"/><path class="cls-1" d="M168.33,120.16l-.67-1.8a1,1,0,0,0-1.07.89s-.22.63,1.07,1.43Zm-.77-.73a.41.41,0,0,1-.58,0,.41.41,0,0,1,.13-.57.42.42,0,0,1,.58,0A.41.41,0,0,1,167.56,119.43Z"/><ellipse class="cls-2" cx="180.12" cy="120.76" rx="12.36" ry="1.23"/><g class="cls-14"><ellipse class="cls-13" cx="180.17" cy="121.35" rx="12.05" ry="1.4"/></g><path class="cls-13" d="M176.74,134.27c-4.25,0-7.24-1.07-8.87-3.17a7.55,7.55,0,0,1-1-6.48c1-3.73.18-5.38.17-5.4a.25.25,0,0,1,.11-.32.24.24,0,0,1,.32.11c0,.07.87,1.8-.14,5.73a7.07,7.07,0,0,0,.94,6.07c1.53,2,4.39,3,8.49,3,10.29,0,11.51-3.9,11.84-7.56a10.44,10.44,0,0,1,4.36-7.26.25.25,0,0,1,.34.07.24.24,0,0,1-.07.33,10.1,10.1,0,0,0-4.15,6.91c-.25,2.73-1.09,4.51-2.7,5.77C184.42,133.54,181.28,134.27,176.74,134.27Z"/></svg>