<?xml version="1.0" encoding="utf-8"?>
<!-- Generator: Adobe Illustrator 23.0.1, SVG Export Plug-In . SVG Version: 6.00 Build 0)  -->
<svg version="1.1" id="Layer_1" xmlns="http://www.w3.org/2000/svg" xmlns:xlink="http://www.w3.org/1999/xlink" x="0px" y="0px"
	 viewBox="0 0 500.9 273.4" style="enable-background:new 0 0 500.9 273.4;" xml:space="preserve">
<style type="text/css">
	.st0{clip-path:url(#SVGID_1_);}
	.st1{fill:#DBDBDB;}
	.st2{fill:#F2F2F2;}
	.st3{clip-path:url(#SVGID_1_);fill:#DD4E36;stroke:#E6E6E6;stroke-width:1.2946;stroke-miterlimit:10;}
	.st4{clip-path:url(#SVGID_1_);fill:#CCCCCC;stroke:#E6E6E6;stroke-width:1.2946;stroke-miterlimit:10;}
	.st5{fill:#CCCCCC;stroke:#E6E6E6;stroke-width:1.2946;stroke-miterlimit:10;}
	.st6{fill:none;stroke:#FFFFFF;stroke-width:1.2946;stroke-linecap:round;stroke-linejoin:round;stroke-miterlimit:10;}
	.st7{fill:#DD4E36;}
	.st8{fill:#E6E6E6;}
	.st9{fill:#CCCCCC;}
	.st10{fill:#03D6FC;stroke:#03D6FC;stroke-width:1.2946;stroke-linecap:round;stroke-linejoin:round;stroke-miterlimit:10;}
	.st11{clip-path:url(#SVGID_2_);}
	.st12{fill:#03D6FC;stroke:#DBDBDB;stroke-width:1.2946;stroke-linecap:round;stroke-linejoin:round;stroke-miterlimit:10;}
	.st13{fill:#49E1FC;stroke:#DBDBDB;stroke-width:1.2946;stroke-linecap:round;stroke-linejoin:round;stroke-miterlimit:10;}
	.st14{fill:#7EE9FC;stroke:#DBDBDB;stroke-width:1.2946;stroke-linecap:round;stroke-linejoin:round;stroke-miterlimit:10;}
	.st15{fill:#49E1FC;stroke:#49E1FC;stroke-width:1.2946;stroke-linecap:round;stroke-linejoin:round;stroke-miterlimit:10;}
	.st16{clip-path:url(#SVGID_3_);}
	.st17{clip-path:url(#SVGID_4_);}
	.st18{clip-path:url(#SVGID_5_);}
	.st19{fill:none;stroke:#E6E6E6;stroke-width:2.4928;stroke-linecap:round;stroke-linejoin:round;stroke-miterlimit:10;}
</style>
<title>16_big_boat</title>
<g>
	<g>
		<defs>
			<path id="SVGID_11_" d="M402.8,115.5c0,0-182.8-9.2-206.4,12.5c-1.1,1,1.2,7.1-5.2,9.2c-3.5,1.1-20.4,0.1-25.1,1.5
				c-52,15.2-163.6,41.1-165.9,46.2c-2.9,6.3,18.2,26.5,23.6,34.7s34.9,50.5,40.7,52.7c5.8,2.2,357,1.7,433-7.9
				c11.5-1.5-9.1-52.1-12-52.3s-51.1-18.3-51.5-21.3c-0.4-3-0.4-3-0.4-3s20.9,0.4,22.4-4.2s-1-17.4-11.5-21.2s-46.9-10.8-45.2-25
				c19.1,0.3,52.6-0.1,52.6-0.1l0.4-5.3L402.8,115.5z"/>
		</defs>
		<clipPath id="SVGID_1_">
			<use xlink:href="#SVGID_11_"  style="overflow:visible;"/>
		</clipPath>
		<g class="st0">
			<polygon class="st1" points="456.7,127.9 272.5,126.4 3.1,206.4 67.7,293 509.7,278.5 492.8,191.2 			"/>
			<path class="st2" d="M10.9,208.7c0,0,5.6-4.7,11.4-4.9s69.7-9.5,105.1-19.6c35.4-10.1,100.4-27.2,113.9-29.6
				c0,0,21.3-19.6,72.2-20.5s138.8-2.2,138.8-2.2l-58.6-25.1l-195.7,2l-212.5,59.4L10.9,208.7z"/>
		</g>
		<path class="st3" d="M18.3,223c0,0,37.5,14.9,140.1,14.1s339.5-6.8,339.5-6.8l11.8,41.8l-461.2,6.7L18.3,223z"/>
		<path class="st4" d="M399.5,137.5c-0.1-0.1-0.3-0.1-0.4-0.2c-0.4-0.1-1.2-0.2-2.2-0.2c-1.4-0.1-3.1-0.1-3.2,0.9
			c-0.1,1.8,3.4,30.4,19.2,29c2.1-0.1,0.7,1.6,1.1,5.6c0.5,4-3.1,9.2,23.1,7.6c4.1-0.7,4.5-1,4.6-11.5c0-0.9,0.7-1.6,1.6-1.6
			c3.1-0.1,6-0.6,6.8-1.4C450.8,164.7,402.9,139.3,399.5,137.5z"/>
		<path class="st4" d="M435.5,187.9c0,0-24.8-1.1-27.3,0.2c-2.5,1.4,1.1,26.3,15.4,26.1c14.3-0.2,69.1-0.9,69.1-0.9L435.5,187.9z"/>
	</g>
	<g>
		<g>
			<path class="st5" d="M71.8,166.7c-0.8-0.2-1.6-0.3-2.4-0.1c-9.7,2.5-60.9,15.8-63.4,18.8c-2.8,3.3,10.7,18.5,16.3,18.5
				c3.9,0,41.5-5.5,63.9-9.6c9.6-1.7,16.4-3.2,16.6-3.9c0.7-2.2-9.3-6.5-7.8-6.7c1.5-0.1,5.7-2.1,4.1-4c-1.6-1.9-7.3-0.3-9.9,0.7
				c-2.1,0.8-10.1-7-13.3-10.2c-0.5-0.5-0.3-1.4,0.5-1.6c1.6-0.4,3.9-1.1,3.8-2.6C80,164.2,74.2,167.3,71.8,166.7z"/>
			<path class="st6" d="M84.8,194.4c0,0-53-3.8-55.6-5.2c-2.6-1.4-21.9-20-18.2-20.4s50.4,0.1,50.4,0.1"/>
			<path class="st6" d="M67.5,197.5c-16.3-1.3-38.8-3.2-40.3-4c-2.6-1.4-21.9-20-18.2-20.4c2.3-0.2,21.6-0.1,35.9,0"/>
			<path class="st6" d="M42.6,201.2c-8.8-0.8-15.8-1.7-16.7-2.1c-2.6-1.4-21.9-20-18.2-20.4c1.4-0.1,9.1-0.2,18-0.1"/>
			<path class="st6" d="M24.1,203.8c-2.6-1.4-21.7-19.7-18-20.1c0.5-0.1,1.8-0.1,3.7-0.1"/>
			<g>
				<line class="st6" x1="11.8" y1="172.3" x2="9.7" y2="189.7"/>
				<line class="st6" x1="15.6" y1="176.7" x2="13.5" y2="194.1"/>
				<line class="st6" x1="19.4" y1="180.8" x2="17.3" y2="198.2"/>
				<line class="st6" x1="23.2" y1="184.1" x2="21.1" y2="201.5"/>
			</g>
		</g>
		<g>
			<path class="st7" d="M257.3,84L257.3,84c-0.5,0-0.9-0.5-0.8-1l2.2-27.9c0-0.5,0.5-0.9,1-0.8l0,0c0.5,0,0.9,0.5,0.8,1l-2.2,27.9
				C258.2,83.7,257.8,84.1,257.3,84z"/>
			<path class="st7" d="M263.9,0L263.9,0c-0.2,0-0.4,0.1-0.4,0.3l-6.7,85.3c0,0.2,0.1,0.4,0.3,0.4l0,0c0.2,0,0.4-0.1,0.4-0.3
				l6.7-85.3C264.2,0.2,264.1,0,263.9,0z"/>
			<path class="st8" d="M255.1,112.2L255.1,112.2c-0.9-0.1-1.6-0.9-1.5-1.8l4-51c0.1-0.9,0.9-1.6,1.8-1.5l0,0
				c0.9,0.1,1.6,0.9,1.5,1.8l-4,51C256.8,111.6,256,112.3,255.1,112.2z"/>
			<path class="st9" d="M240.5,126.1l16.6-1c0.7,0,1.2-0.6,1.2-1.2l0.7-13.3c0-0.7-0.5-1.3-1.2-1.4l-4.7-0.4c-0.4,0-0.8,0.1-1.1,0.4
				L239.4,124C238.6,124.8,239.3,126.2,240.5,126.1z"/>
		</g>
		<g>
			<g>
				<path class="st10" d="M196.4,128c0,0-3,10,64.4,13.1c60.1,2.8,96.3,2.8,103.3,2.7c0.8,0,1.4,0.5,1.6,1.2l3.9,13.8
					c0.3,1.1-0.5,2.2-1.6,2.2c-16.1,0.1-115.9,0.3-159.6-5C174.8,151.9,158.9,150.2,196.4,128z"/>
				<g>
					<defs>
						<path id="SVGID_13_" d="M196.4,128c0,0-3,10,64.4,13.1c60.1,2.8,96.3,2.8,103.3,2.7c0.8,0,1.4,0.5,1.6,1.2l3.9,13.8
							c0.3,1.1-0.5,2.2-1.6,2.2c-16.1,0.1-115.9,0.3-159.6-5C174.8,151.9,158.9,150.2,196.4,128z"/>
					</defs>
					<clipPath id="SVGID_2_">
						<use xlink:href="#SVGID_13_"  style="overflow:visible;"/>
					</clipPath>
					<g class="st11">
						<polygon class="st12" points="204.6,130 169.7,153 165,145.5 198.8,124.6 						"/>
						<polygon class="st13" points="210.9,135 176.7,159.1 171.7,151.8 204.8,129.8 						"/>
						<polygon class="st14" points="222.9,136.4 189.1,160.9 184,153.8 216.8,131.2 						"/>
					</g>
					<use xlink:href="#SVGID_13_"  style="overflow:visible;fill:none;stroke:#DBDBDB;stroke-width:1.2946;stroke-miterlimit:10;"/>
				</g>
			</g>
			<polygon class="st5" points="153,177.5 393,176.4 390.7,170 175.8,171 			"/>
			<path class="st5" d="M180.4,228.3l235.4-4.7l-2.4-6.4l-214.7,4.4c-0.1,0-0.1,0-0.2,0l-18.3,5.5
				C179.5,227.3,179.7,228.3,180.4,228.3z"/>
			<g>
				<path class="st15" d="M92.1,211.2c0-4.1,0-4.9,33.9-10.2c7.4-1.1,240.6-3.4,264.9-3.6c1.2,0,2.3,0.8,2.7,1.9l3.3,10.3
					c0.6,1.8-0.7,3.6-2.6,3.6l-221.1,3.8c-2.3,0-4.5-0.6-6.4-2l-1.6-1.1c-1.9-1.3-4.1-2-6.3-2c-6.8,0.1-22.5,0.3-37,0.9
					C106.2,213.5,92.1,214.2,92.1,211.2z"/>
				<g>
					<defs>
						<path id="SVGID_15_" d="M92.1,211.2c0-4.1,0-4.9,33.9-10.2c7.4-1.1,240.6-3.4,264.9-3.6c1.2,0,2.3,0.8,2.7,1.9l3.3,10.3
							c0.6,1.8-0.7,3.6-2.6,3.6l-221.1,3.8c-2.3,0-4.5-0.6-6.4-2l-1.6-1.1c-1.9-1.3-4.1-2-6.3-2c-6.8,0.1-22.5,0.3-37,0.9
							C106.2,213.5,92.1,214.2,92.1,211.2z"/>
					</defs>
					<clipPath id="SVGID_3_">
						<use xlink:href="#SVGID_15_"  style="overflow:visible;"/>
					</clipPath>
					<g class="st16">
						
							<rect x="88.4" y="189.3" transform="matrix(0.9999 -1.269976e-02 1.269976e-02 0.9999 -2.6276 1.3542)" class="st12" width="33.9" height="36.6"/>
						
							<rect x="122.9" y="188.8" transform="matrix(0.9999 -1.269976e-02 1.269976e-02 0.9999 -2.6193 1.793)" class="st12" width="33.9" height="36.6"/>
						
							<rect x="157.5" y="188.4" transform="matrix(0.9999 -1.269976e-02 1.269976e-02 0.9999 -2.6109 2.2317)" class="st12" width="33.9" height="36.6"/>
						
							<rect x="192" y="188" transform="matrix(0.9999 -1.269976e-02 1.269976e-02 0.9999 -2.6026 2.6704)" class="st12" width="33.9" height="36.6"/>
						
							<rect x="226.6" y="187.5" transform="matrix(0.9999 -1.269976e-02 1.269976e-02 0.9999 -2.5942 3.1092)" class="st12" width="33.9" height="36.6"/>
						
							<rect x="261.1" y="187.1" transform="matrix(0.9999 -1.269976e-02 1.269976e-02 0.9999 -2.5858 3.5479)" class="st12" width="33.9" height="36.6"/>
						
							<rect x="295.7" y="186.6" transform="matrix(0.9999 -1.269976e-02 1.269976e-02 0.9999 -2.5775 3.9866)" class="st12" width="33.9" height="36.6"/>
						
							<rect x="330.2" y="186.2" transform="matrix(0.9999 -1.269976e-02 1.269976e-02 0.9999 -2.5691 4.4253)" class="st12" width="33.9" height="36.6"/>
						
							<rect x="364.8" y="185.8" transform="matrix(0.9999 -1.269976e-02 1.269976e-02 0.9999 -2.5608 4.8641)" class="st12" width="33.9" height="36.6"/>
					</g>
					<use xlink:href="#SVGID_15_"  style="overflow:visible;fill:none;stroke:#DBDBDB;stroke-width:1.2946;stroke-miterlimit:10;"/>
				</g>
			</g>
		</g>
		<g>
			<g>
				<defs>
					<path id="SVGID_17_" d="M393.5,142.2c0,0,2.1,13.2,6.3,18.3l-10.6-0.8l-7.8-17.1L393.5,142.2z"/>
				</defs>
				<clipPath id="SVGID_4_">
					<use xlink:href="#SVGID_17_"  style="overflow:visible;"/>
				</clipPath>
				<g class="st17">
					<polygon class="st7" points="396.2,145 383.5,144.1 386.9,148.1 397,148.9 					"/>
					<polygon class="st7" points="398.1,150.1 385.4,149.1 388.8,153.2 398.9,153.9 					"/>
					<polygon class="st7" points="400.3,155.5 387.6,154.5 391,158.5 401.1,159.3 					"/>
				</g>
			</g>
			<g>
				<defs>
					<path id="SVGID_19_" d="M407,194.6c0,0,2.4,12.1,6.4,15.4l-13.2-1l-6.6-15.4L407,194.6z"/>
				</defs>
				<clipPath id="SVGID_5_">
					<use xlink:href="#SVGID_19_"  style="overflow:visible;"/>
				</clipPath>
				<g class="st18">
					<polygon class="st7" points="407.8,195.4 395.1,194.4 398.5,198.4 408.6,199.2 					"/>
					<polygon class="st7" points="409.8,200.5 397.1,199.5 400.6,203.5 410.6,204.3 					"/>
					<polygon class="st7" points="412.4,205.9 399.7,204.9 403.1,208.9 413.2,209.7 					"/>
				</g>
			</g>
		</g>
	</g>
	<line class="st19" x1="414.7" y1="167.7" x2="441" y2="167.8"/>
	<line class="st19" x1="414.6" y1="173.4" x2="440.7" y2="173.4"/>
</g>
</svg>
