<?xml version="1.0" encoding="utf-8"?>
<!-- Generator: Adobe Illustrator 23.0.1, SVG Export Plug-In . SVG Version: 6.00 Build 0)  -->
<svg version="1.1" id="Layer_1" xmlns="http://www.w3.org/2000/svg" xmlns:xlink="http://www.w3.org/1999/xlink" x="0px" y="0px"
	 viewBox="0 0 166.1 126.8" style="enable-background:new 0 0 166.1 126.8;" xml:space="preserve">
<style type="text/css">
	.st0{fill:#5EA8FF;}
	.st1{clip-path:url(#SVGID_1_);fill:#E61E0C;}
	.st2{clip-path:url(#SVGID_1_);fill:#A31508;}
	.st3{clip-path:url(#SVGID_1_);fill:#FCEE21;}
	.st4{clip-path:url(#SVGID_1_);fill:#C61A0A;}
	.st5{clip-path:url(#SVGID_1_);}
	.st6{fill:#C61A0A;}
	.st7{fill:#FF2127;}
	.st8{clip-path:url(#SVGID_1_);fill:#2674CF;}
	.st9{fill:#D3B05F;}
	.st10{fill:#FFFFFF;}
	.st11{fill:#2C2E7A;}
	.st12{fill:#2FB34C;}
	.st13{fill:#F16939;}
	.st14{fill:#4C90CD;}
	.st15{fill:#C6A459;}
	.st16{fill:#8B683D;}
	.st17{fill:#DFBC6D;}
	.st18{fill:#B8B282;}
	.st19{fill:#4C3422;}
	.st20{fill:#CCA348;}
	.st21{clip-path:url(#SVGID_2_);fill:#8B683D;}
	.st22{clip-path:url(#SVGID_2_);fill:#4C3422;}
	.st23{fill:#D3B266;}
	.st24{fill:#040404;}
	.st25{fill:#FDE3BA;}
	.st26{fill:#600B0C;}
	.st27{fill:#D42027;}
	.st28{fill:#4E2A21;}
	.st29{fill:#BC9C39;}
</style>
<title>16_small_boat</title>
<g>
	<g>
		<path class="st0" d="M1,58.6c0,0,6.1,42.6,17,43.3c10.9,0.7,23.7-4,13.5-7.4S6,77.4,1,58.6z"/>
		<g>
			<g>
				<defs>
					<path id="SVGID_6_" d="M149.3,64.4L149.3,64.4c0-1,0.8-1.8,1.8-1.9l4.1-0.1c0.4,0,0.7,0.1,1.1,0.3l9,6.1c0.8,0.5,1,1.5,0.6,2.3
						l-10.4,20.7c-0.3,0.5-0.8,0.9-1.3,1c-9.5,1.5-90.7,13.6-121.9,4.3C3.5,88.5,0.3,57.8,0,49.9c0-1,0.8-1.9,1.8-1.9l5.6-0.1
						c1,0,1.8,0.8,1.9,1.8l0.1,2.5c0,1,0.9,1.8,1.9,1.8l117.4-5.3c0.3,0,0.6,0,0.8,0.2l7.9,3.6c0.6,0.3,1.1,0.9,1.1,1.6l0.2,7
						c0,0.7,0.4,1.3,1,1.6l7.1,3.5C147.9,66.7,149.4,65.8,149.3,64.4z"/>
				</defs>
				<clipPath id="SVGID_1_">
					<use xlink:href="#SVGID_6_"  style="overflow:visible;"/>
				</clipPath>
				
					<rect x="-7.5" y="43.7" transform="matrix(-0.9997 2.241286e-02 -2.241286e-02 -0.9997 5.5806 128.1512)" class="st1" width="19.2" height="40.7"/>
				
					<rect x="125.9" y="45.6" transform="matrix(-0.9997 2.241286e-02 -2.241286e-02 -0.9997 292.8553 128.6837)" class="st2" width="39.7" height="40.7"/>
				<polygon class="st3" points="-10.1,54.3 14.3,53.8 28.7,12.7 -11,13.6 				"/>
				<polygon class="st1" points="11.2,91.1 129.2,87.7 128.4,48.3 9.6,52.6 				"/>
				
					<rect x="-1.7" y="50.7" transform="matrix(-0.9991 4.253776e-02 -4.253776e-02 -0.9991 142.7525 101.8675)" class="st4" width="144" height="3.5"/>
				<g class="st5">
					<polygon class="st6" points="93.2,101.6 129.9,100.8 131,75 101.8,56.3 92.2,58.1 					"/>
					<g>
						<polygon class="st7" points="139.2,88.2 150.4,85.7 101.8,56.3 92.1,58 						"/>
					</g>
				</g>
				<g class="st5">
					<polygon class="st6" points="47.4,102.6 84.1,101.8 85.3,76 56,57.3 46.4,59.1 					"/>
					<g>
						<polygon class="st7" points="93.4,89.3 104.7,86.7 56,57.4 46.3,59 						"/>
					</g>
				</g>
				<path class="st4" d="M168.6,66.4c0,0-102.5,22.9-154.3-2.1C1.8,57.8,0.3,53.8-1,52.9c0.1,6.4,11.5,26.2,11.5,26.2l7.4,8.1
					l149.4-3.4L168.6,66.4z"/>
				<path class="st8" d="M176.2,68.8c0,0-69.6,17.4-125.8,8.7S-18,44.7-18,44.7L1.9,105l167.8-3.8L176.2,68.8z"/>
			</g>
		</g>
	</g>
	<g>
		<path class="st9" d="M120.4,57.1c0.3-1.3,0.2-2.7,0.1-4c-0.2-2.4-0.8-4.6-1.7-6.8c-0.3-0.6-0.8-1-1.2-1.6c-1.4-2.1-1.6-4.3-1-6.6
			c0.4-1.5,1.2-2.8,2.1-4.1c0.1-0.2,0.2-0.3,0.4-0.1c1,0.8,1.8,1.7,2.5,2.7c0.9,1.4,1,2.9,0.5,4.4c-0.3,0.8-0.5,1.5-0.8,2.3
			c-0.2,0.8-0.2,1.6,0,2.4c1,3.8,1.2,7.7,0.7,11.6c0,0.2-0.1,0.4-0.2,0.6c-0.6,2.2-1.3,4.1-3.6,7.5c-1.7,2.5-4.9,2.4-7.8,1.7
			c-0.9-0.2-1.8-0.5-2.7-0.9c0.3-0.5,0.7-1,1-1.5c0.1,0.1,0.1,0.1,0.2,0.2c1.7,0.6,3.4,0.9,5.2,0.7c0.9-0.1,2-0.2,2.6-1
			C118.1,62.8,119.2,61.4,120.4,57.1z"/>
		<g>
			<path class="st10" d="M72.6,56.2c0,0-0.8-0.2-1.9-3C70,51.7,69,49.3,66.8,49c-2.2-0.3-3.1,2.7-3.1,4.2c0,1.5,0.5,7.8,1.7,8.5
				c1.3,0.3,3.4,0.2,4-0.1S73.2,57,72.6,56.2z"/>
			<path class="st9" d="M86,54.9c0.5,0,1.1,0,1.6,0.1c1.2,0.1,2.7,0.3,3.9,0.6c1.4,0.4,1.5,2.2,1.3,3.4c-0.1,0.6-0.4,1.2-0.8,1.6
				c-0.6,0.8-1.7,1.3-2.1,2.2c-0.4,0.8-0.2,2.1-0.5,3c-0.4,1.5-1.3,2.9-2.8,3.4c-0.4,0.1-0.9,0.1-1.3,0c-0.7-0.3-1.1-1.1-1.3-1.9
				c-0.2-0.8-0.3-1.6-0.8-2.2c-1.1-1.3-2.7-0.7-4.2-0.7c-1.7,0-3.8-0.5-5.5-0.9c-1.5-0.4-2.8-1.1-4-2c-0.2-0.1-0.1-0.4-0.2-0.5
				c-0.3-0.7-0.4-1.4-0.1-2.1c0.2-0.7,0.4-0.9,1.1-0.9c1.1-0.1,1.6-0.4,1.8-1.5c0.1-0.4,0.2-0.5,0.6-0.4c2.7,0.5,4.5-0.2,7.1-0.7
				C81.8,55,83.9,54.8,86,54.9z"/>
			<path class="st11" d="M66.8,49c-0.4,0.2-0.9,0.4-1.2,0.7c-0.7,0.8-1,1.7-1.2,2.7c-0.6,3.1-0.2,6.1,0.9,9.1c0,0,0,0.1,0,0.1
				c-0.3,0-0.6-0.1-1-0.2c-0.1,0-0.2-0.1-0.2-0.3c-0.9-2.8-1.3-5.7-1-8.6c0.1-0.9,0.3-1.7,0.8-2.5C64.6,49.1,65.6,48.7,66.8,49z"/>
			<path class="st12" d="M68.1,55.9c0.3-1.2,0.7-2.3,1.4-3.3c0.1-0.1,0.2-0.2,0.3-0.3c0.2-0.1,0.4-0.1,0.4,0.1c0,0,0,0.1,0.1,0.1
				c0.1,0.2,0.3,0.5,0.3,0.7c0,0.3-0.4,0.3-0.6,0.5c-0.6,0.6-0.8,1.3-1,2.1c0,0.2-0.1,0.4-0.1,0.6c0,0.2-0.2,0.4-0.4,0.4
				c-0.2,0-0.3-0.2-0.4-0.3C68.1,56.3,68.1,56.1,68.1,55.9z"/>
			<path class="st13" d="M67.2,53.9c0.3-1.1,0.6-2.2,1.6-3c0.3-0.2,0.5-0.2,0.6,0.1c0,0,0,0.1,0.1,0.1c0.4,0.6,0.4,0.5-0.1,1
				c-0.7,0.7-1.1,1.6-1.4,2.5c-0.1,0.2,0,0.5-0.3,0.5c-0.2,0-0.3-0.3-0.4-0.5C67.2,54.3,67.2,54.1,67.2,53.9z"/>
			<path class="st14" d="M66.2,52c0.3-0.9,0.7-1.8,1.5-2.4c0.3-0.2,1,0.2,1.1,0.5c0,0.1-0.1,0.2-0.1,0.2c-0.8,0.5-1.3,1.2-1.6,2.1
				c-0.1,0.2-0.1,0.5-0.4,0.4c-0.3,0-0.4-0.2-0.4-0.5C66.3,52.3,66.3,52.2,66.2,52z"/>
		</g>
		<g>
			<path class="st15" d="M81,29.1c0.6,1.6-0.3,1.8,0.8,3.1c0.6,0.8-0.5,1.4,0,2.3c0.1,0.2,0.3,0.3,0.2,0.5c-1.2-0.6-2.3-1.2-3.5-1.8
				c-2.5-1.3-9.2-4.4-11.8-5.4c-1-0.4-2-0.4-3-0.4c-0.8-0.1-1.5,0.1-2.2,0.4c-0.5,0.2-1.1,0.2-1.6,0.1c-1.6-0.4-1.9-1.9-1.4-3.2
				c0.1-0.2,0.2-0.3-0.1-0.5c-1-0.9-1.1-2-0.1-3c0.3-0.2,0.4-0.5,0.4-0.8c-0.1-1.5,1.6-2.6,3-2c0.2,0.1,0.2,0.1,0.4-0.1
				c1.1-1.2,2.7-1.1,3.5,0.4c0.6,1.1,1.4,2.1,2.1,3.1c0.4,0.6,0.9,0.9,1.6,1.2c1.3,0.6,2.4,1.5,3.6,2.2C73.1,25.3,80.8,29,81,29.1z
				 M62.3,23.5c0.2,0.7,0.5,1.5,1,2.3c0.2,0.3,0.4,0.6,0.8,0.5c0.5-0.1,0.9-0.3,1-0.8c0.2-0.8,0.5-1.4,1.1-2
				c0.3-0.3,0.4-0.8,0.2-1.2C66.2,22,65.8,22,65.5,22c-0.5,0-1.1,0.1-1.6,0C63.1,22,62.3,22.7,62.3,23.5z M60.2,23.9
				c0.7,0,1.1-0.3,1.1-0.8c0-0.5-0.6-1.1-1.2-1.1C59.5,22,59,22.4,59,23C59,23.5,59.5,23.9,60.2,23.9z M64.9,19.8
				c0-0.4-0.2-0.8-0.5-1.1c-0.4-0.4-1-0.3-1.2,0.3c-0.2,0.5-0.1,0.9,0.2,1.3c0.2,0.3,0.5,0.6,0.9,0.5C64.7,20.7,64.9,20.3,64.9,19.8
				z M60.7,26.9c0.5,0,0.8-0.2,1.1-0.5c0.4-0.5,0.2-1-0.4-1.2c-0.4-0.1-0.8,0-1.2,0.2c-0.4,0.2-0.6,0.5-0.5,1
				C59.8,26.7,60.1,26.9,60.7,26.9z M61.5,21.5c0.8,0,1.1-0.4,0.9-1c-0.2-0.5-0.8-0.9-1.4-0.9c-0.6,0-0.9,0.5-0.7,1.1
				C60.6,21.3,61.1,21.5,61.5,21.5z"/>
			<path class="st16" d="M62.3,23.5c0-0.8,0.8-1.6,1.5-1.5c0.5,0.1,1.1-0.1,1.6,0c0.4,0,0.8,0,0.9,0.4c0.2,0.4,0.2,0.9-0.2,1.2
				c-0.6,0.6-0.9,1.2-1.1,2c-0.1,0.5-0.6,0.7-1,0.8c-0.4,0.1-0.6-0.2-0.8-0.5C62.8,25.1,62.6,24.2,62.3,23.5z"/>
			<path class="st16" d="M60.2,23.9c-0.7,0-1.2-0.4-1.2-0.9c0-0.5,0.5-1,1.2-0.9c0.6,0,1.2,0.6,1.2,1.1
				C61.3,23.6,60.9,23.9,60.2,23.9z"/>
			<path class="st16" d="M64.9,19.8c0,0.4-0.1,0.8-0.6,0.9c-0.4,0.1-0.7-0.2-0.9-0.5c-0.3-0.4-0.4-0.8-0.2-1.3
				c0.2-0.5,0.8-0.7,1.2-0.3C64.7,19,64.9,19.4,64.9,19.8z"/>
			<path class="st16" d="M60.7,26.9c-0.6,0-0.9-0.2-1-0.5c-0.1-0.4,0.2-0.7,0.5-1c0.4-0.2,0.8-0.4,1.2-0.2c0.6,0.2,0.8,0.7,0.4,1.2
				C61.5,26.7,61.2,26.9,60.7,26.9z"/>
			<path class="st16" d="M61.5,21.5c-0.4,0-0.9-0.3-1.2-0.8c-0.3-0.6,0.1-1,0.7-1.1c0.5,0,1.2,0.4,1.4,0.9
				C62.6,21.1,62.3,21.5,61.5,21.5z"/>
		</g>
		<g>
			<path class="st17" d="M108.6,69c0.1-0.1,0.1-0.1,0.1-0.2c0.5-0.6,0.8-1.3,1.1-2.1c0.1-0.5,0.2-1.1,0.2-1.6c0-0.4,0.1-0.8,0.1-1.2
				c0.1-1.9-0.2-3.9-0.6-5.7c-0.5-1.9-1.2-3.6-1.6-5.5c-0.8-3.5-1.1-7.2-1.9-10.7c-0.3-1.6-0.9-3.1-1.6-4.5
				c-0.3-0.7-0.4-1.1-1.1-1.5c-0.8-0.5-1.7-0.8-2.6-0.9C99.8,35,98.9,34.8,98,35c-0.8,0.1-1.5,0.3-2.3,0.3c-2.6-0.1-5.2-0.3-7.8-0.5
				c-1-0.1-2-0.1-2.9-0.2c-0.2,0-0.9-0.2-1-0.1c-0.4,1.2-0.8,2.5-1.1,3.8c-0.5,2.4-1.1,6.4-1.5,15.4c-0.1,2.9,1.1,8.4,1.8,11.2
				c0.2,0.9,0.6,1.8,1,2.6c0.1,0.1,0.1,0.2,0.2,0.4c1,1.3,2.3,2.1,3.8,2.7c1.7,0.6,3.4,0.9,5.2,1c0.3,0,0.5,0.1,0.8,0.1
				c0.5,0,1,0.1,1.5,0.1c0.5,0,0.9,0,1.4,0c0.8,0,1.6,0,2.5,0c0.5,0,1-0.3,1.5-0.4c0.6-0.1,1.2-0.3,1.8-0.4c0.4-0.1,0.8,0,1.2,0
				c1.1,0.1,2.3-0.2,3.2-0.8C107.8,69.9,108.2,69.4,108.6,69z"/>
			<path class="st18" d="M84.7,37.7c1.2,1.1,2.4,0.2,3.7,0.1c6.5-0.4,10,7.3,9.3,12.9c-0.6,4.8-1.7,11.9-6.5,14.4
				c-4.4,2.3-8.2-3.9-9-7.6c-0.6-2.7-0.3-5.6,0-8.4c0.3-3.5,0.5-7.8,2.1-11C84.4,38,84.5,37.8,84.7,37.7z"/>
		</g>
		<path class="st10" d="M106.1,31.6c-0.1,0.1-0.1,0.1-0.2,0.1C105.9,31.6,106,31.5,106.1,31.6z"/>
		<path class="st10" d="M106.2,31.5C106.2,31.6,106.2,31.6,106.2,31.5C106.1,31.5,106.1,31.5,106.2,31.5z"/>
		<path class="st19" d="M108.5,17C108.4,17,108.4,17.1,108.5,17C108.4,17.1,108.4,17,108.5,17z"/>
		<g>
			<g>
				<path class="st20" d="M87.6,7.5c-0.2,0.4-0.6,0.7-0.9,1c-0.9,1.1-1.7,2.2-2.4,3.4c-0.7,1.1-1.6,2.2-2.5,3.3
					c-0.7,0.8-1.3,1.8-1.5,2.8c0,0.2,0,0.5-0.2,0.6c-2.1-2-3.6-4.2-3.5-7.2c0.2-2.8,1.4-5.2,4-6.6c1.9-1.1,4-0.6,5.5,1
					C86.6,6.4,87.1,6.9,87.6,7.5z"/>
				<path class="st19" d="M80.5,13.8c0,0,0.1-0.1,0.1-0.1C80.5,13.6,80.5,13.7,80.5,13.8z"/>
				<g>
					<defs>
						<path id="SVGID_5_" d="M87.6,7.5c-0.2,0.4-0.6,0.7-0.9,1c-0.9,1.1-1.7,2.2-2.4,3.4c-0.7,1.1-1.6,2.2-2.5,3.3
							c-0.7,0.8-1.3,1.8-1.5,2.8c0,0.2,0,0.5-0.2,0.6c-2.1-2-3.6-4.2-3.5-7.2c0.2-2.8,1.4-5.2,4-6.6c1.9-1.1,4-0.6,5.5,1
							C86.6,6.4,87.1,6.9,87.6,7.5z"/>
					</defs>
					<clipPath id="SVGID_2_">
						<use xlink:href="#SVGID_5_"  style="overflow:visible;"/>
					</clipPath>
					<path class="st21" d="M80.5,13.8c-0.3,0.5-0.6,1-0.8,1.6c-0.3,1.4-0.2,2.7,0.8,3.8c0,0,0,0.1,0,0.1l0,0c0.1,0,0.1,0,0.2,0.1
						c0.3,0.2,0.6,0.4,1,0.6c0.8-0.9,1.8-1.7,2.7-2.5c0.9-0.7,1.1-1.7,0.9-2.8c0-0.2-0.1-0.3-0.1-0.5c0,0,0-0.1,0-0.1l0,0
						c-0.2-0.1-0.4-0.4-0.5-0.5c-0.9-0.9-1.8-1.1-3-0.7c-0.4,0.2-0.7,0.5-1.1,0.7l0,0C80.5,13.7,80.5,13.7,80.5,13.8z"/>
					<path class="st22" d="M80.6,13.6c0.4-0.2,0.7-0.5,1.1-0.7c1.2-0.5,2-0.3,3,0.7c0.2,0.2,0.3,0.4,0.5,0.5c-0.2-1-0.8-1.8-1.7-2.4
						c-1-0.7-2.4-0.9-3.7-0.5c1.2,0.2,2.3,0.3,3.3,0.9C82,12.3,81.1,12.7,80.6,13.6z"/>
				</g>
			</g>
			<g>
				<path class="st19" d="M116.7,21.5c-0.3-0.3-0.4-0.8-0.7-1.1c-0.9-0.9-1.7-1.1-3-0.7c-0.2,0.1-0.4,0.2-0.7,0.3
					c0.6-0.8,1.5-1.3,2.5-1.5c1.2-0.2,2.5,0.2,3.6,1.1c-1.1-0.3-2.2-0.7-3.4-0.6C115.9,19.6,116.6,20.4,116.7,21.5z"/>
				<path class="st16" d="M116.7,21.7c0,0.6,0.1,1.2,0,1.8c-0.3,1.4-0.9,2.5-2.4,3.1c0,0-0.1,0.1-0.1,0.1l0,0c-0.1,0-0.1,0-0.2,0
					c-0.4,0-0.7,0.1-1.1,0.1c-0.3-1.2-0.9-2.3-1.4-3.4c-0.5-1-0.2-2,0.4-2.9c0.1-0.1,0.2-0.3,0.3-0.4c0,0,0,0,0.1-0.1l0,0
					c0.3,0,0.5-0.2,0.7-0.3c1.2-0.4,2.1-0.2,3,0.7c0.3,0.3,0.4,0.8,0.7,1.1l0,0C116.7,21.6,116.7,21.6,116.7,21.7z"/>
				<g>
					<path class="st23" d="M123.1,16c-0.9-1.6-2.2-2.5-4-2.5c-0.9,0-1.7,0.3-2.5,0.6c-0.9,0.3-1.7,0.4-2.6,0.2
						c-0.8-0.2-1.4-0.7-2-1.2c-2.1-2-4.5-3.6-7.1-5.1c-0.2-0.1-0.4-0.3-0.3-0.6c0.1-0.6,0.1-1.2-0.3-1.8c-0.5-0.8-0.4-1.6-0.1-2.4
						c0.1-0.1,0.1-0.3,0.2-0.5c-0.4,0.2-0.7,0.4-0.9,0.7c-0.5,0.5-0.8,1-1.1,1.6c-0.2,0.4-0.4,0.8-0.8,1c-0.2,0.2-0.3,0.1-0.4-0.1
						c-0.1-0.4-0.1-0.8,0-1.2c0.1-0.8,0.3-1.6,0.3-2.5c0-0.8-0.3-1.5-0.8-2.3c-0.1,0.7-0.3,1.2-0.6,1.6c-0.4,0.6-0.8,1.1-1.2,1.5
						c-0.4,0.5-0.9,1-1,1.8c-0.5-0.6-0.5-1.3-0.6-1.9c0-0.6,0.1-1.3,0.3-1.9c-0.4,0-0.7,0.2-0.9,0.3c-1.1,0.7-1.9,1.6-2.5,2.7
						c-0.2,0.3-0.4,0.5-0.8,0.6c-1.5,0.5-3,1.1-4.4,1.9c-5,2.7-9.7,8.7-9,14.6c0.1,0.5,0.1,0.9,0.2,1.4c0,0,0,0,0,0s0.6,1.7,0.2,5.7
						c-0.2,2.4,0.9,6.4,1.6,7.6c1.9,1.8,4.4,2.9,7,3.3c2.2,0.4,4.5-0.5,6.3-1.7c2.5-1.7,5.3-2.2,8.2-2.8c2.1-0.4,4.4-0.9,6.1-2.2
						c1.2-0.9,3.8-4.3,3.4-5.9c-0.3-1.2-0.9-2.3-1.4-3.4c-0.5-1-0.2-2,0.4-2.9c0.1-0.1,0.2-0.3,0.3-0.4c0,0,0,0,0.1-0.1l0,0
						c0.6-0.8,1.5-1.3,2.5-1.5c1.2-0.2,2.5,0.2,3.6,1.1c-1.1-0.3-2.2-0.7-3.4-0.6c0.9,0.7,1.6,1.4,1.6,2.5c0,0.1,0,0.1,0,0.2
						c0,0.6,0.1,1.2,0,1.8c-0.3,1.4-0.9,2.5-2.4,3.1c0,0-0.1,0.1-0.1,0.1c0.6,0.1,1.2,0,1.8-0.1c1.8-0.2,3.5-0.6,5-1.6
						C124.2,22.9,124.5,18.5,123.1,16z"/>
					<polygon class="st23" points="116.7,21.5 116.7,21.5 116.7,21.5 					"/>
				</g>
				<path class="st19" d="M103.1,20.5c-0.6-1.3-1.3-2.7-2.8-3.1c-1.5-0.5-2.8,0.1-4.2,0.9c0.3-0.6,0.8-1,1.2-1.4
					c0.7-0.6,1.4-1.1,2.3-1.3c0.8-0.2,1.6,0,2.2,0.6C102.9,17.4,103.2,18.9,103.1,20.5z"/>
				<path class="st19" d="M88.4,16.5c-0.6-1.1-1.2-2.2-2.6-2.5c-1.3-0.3-2.4,0.2-3.5,0.9c0.4-1.1,2.3-2.5,3.4-2.5
					c0.4,0,0.8,0.1,1.1,0.3C88.1,13.7,88.3,15,88.4,16.5z"/>
				<path class="st15" d="M93.2,20.1c0,0-2.1,4-7.1,3.2c0,0,1,2.4,3.6,3.4C91.3,25.3,93.2,22.4,93.2,20.1z"/>
				<g>
					<path class="st10" d="M102.3,23.5c-0.1,2-1.8,3-3.5,3.1c-0.6,0-1.3-0.1-1.9-0.3c-1.5-0.5-2.3-1.6-2.5-3.3
						c-0.1-1.9,1.5-4,3.2-4.3c2.3-0.4,4.4,1.3,4.6,3.7C102.4,22.8,102.4,23.2,102.3,23.5z"/>
					<path class="st19" d="M97.4,25.7c-1.7-0.2-2.9-1.7-2.7-3.5c0.2-1.7,1.8-2.9,3.5-2.7c1.7,0.2,2.9,1.8,2.7,3.5
						C100.7,24.7,99.1,25.9,97.4,25.7z M96,22c-0.2,0.1-0.3,0.4-0.3,0.6c0,1.1,0.7,1.9,1.8,2.1c0.8,0.1,1.8-0.5,2.1-1.3
						c0.3-0.9-0.1-1.9-1-2.4c-0.4-0.2-0.9-0.2-1.4-0.3c-0.5-0.5-1-0.5-1.4-0.1C95.5,21,95.5,21.5,96,22z"/>
					<path class="st24" d="M97.3,20.7c0.5,0.1,0.9,0,1.4,0.3c0.9,0.4,1.3,1.4,1,2.4c-0.3,0.9-1.3,1.4-2.1,1.3
						c-1.1-0.1-1.8-1-1.8-2.1c0-0.2,0-0.5,0.3-0.6c0.4,0.2,0.8,0.2,1.1-0.1C97.5,21.5,97.5,21.1,97.3,20.7z"/>
					<path class="st10" d="M97.3,20.7c0.2,0.4,0.2,0.8-0.2,1.1c-0.3,0.3-0.7,0.3-1.1,0.1c-0.5-0.5-0.5-1-0.1-1.4
						C96.3,20.2,96.8,20.2,97.3,20.7z"/>
				</g>
				<g>
					<path class="st10" d="M87.5,19.5c-0.2,1.9-1.9,2.7-3.4,2.6c-0.7,0-1.4-0.2-2-0.5c-0.9-0.6-1.4-1.4-1.3-2.6
						c0.1-0.9,0.3-1.7,0.7-2.4c0.5-1.1,2.2-1.6,3.4-1.3C86.9,16,87.8,17.5,87.5,19.5z"/>
					<path class="st19" d="M81.1,18.3c0.2-1.6,1.6-2.6,3.2-2.4c1.5,0.2,2.6,1.6,2.4,3.1c-0.2,1.6-1.6,2.6-3.2,2.4
						C82,21.3,80.9,19.9,81.1,18.3z M82.3,18.3c-0.2,0-0.2,0.2-0.2,0.3c0,0.2,0,0.4,0.1,0.6c0.2,0.7,0.6,1.1,1.3,1.3
						c0.6,0.2,1.2,0,1.7-0.4c0.7-0.6,0.7-1.5,0.3-2.3c-0.3-0.6-1.2-0.9-2-0.7c-0.5-0.3-0.9-0.3-1.2,0C81.9,17.5,81.9,17.9,82.3,18.3
						z"/>
					<path class="st24" d="M83.4,17.1c0.8-0.2,1.7,0.1,2,0.7c0.5,0.8,0.4,1.7-0.3,2.3c-0.5,0.4-1,0.6-1.7,0.4
						c-0.7-0.2-1.1-0.6-1.3-1.3c0-0.2-0.1-0.4-0.1-0.6c0-0.1,0-0.3,0.2-0.3c0.2,0.1,0.4,0.2,0.6,0.1C83.6,18.3,83.8,17.8,83.4,17.1z
						"/>
					<path class="st10" d="M83.4,17.1c0.4,0.7,0.1,1.3-0.5,1.4c-0.2,0-0.4-0.1-0.6-0.1c-0.4-0.4-0.4-0.8-0.1-1.2
						C82.5,16.8,82.9,16.8,83.4,17.1z"/>
				</g>
				<g>
					<g>
						<path class="st25" d="M93.8,37.2c-0.1,0.5,0-0.2-0.1,0.2c-0.3,0.7-0.7,1.3-1.5,1.6c-1.6,0.8-3.2,0.6-4.9,0.1
							c-0.9-0.3-1.8-0.7-2.8-0.9c-1.5-0.4-2.7-1.1-3.2-2.7c-0.3-1.1-0.5-1.1-0.6-2.1c0-1.1,0-2.1,0.1-3.2c0-0.5,0-1,0.1-1.5
							c0.1,0.2,0.2,0.5,0.2,0.8c0.1,0.9,0.2,1.7,0.3,2.6c0.3,1.7,1.1,3,2.7,3.8c1.5,0.7,3.1,1.2,4.8,1.3c2.5,0.1,4.2-0.9,5.3-3.2
							c0.2-0.4,0.3-0.8,0.7-1.2c-0.1,1.3-0.6,2.6-0.9,3.8C93.9,36.7,93.8,36.9,93.8,37.2z"/>
						<path class="st19" d="M94.9,32.6c-0.3,0.3-0.5,0.8-0.7,1.2c-1,2.3-2.7,3.3-5.3,3.2c-1.7-0.1-3.3-0.5-4.8-1.3
							c-1.6-0.8-2.4-2.1-2.7-3.8c-0.1-0.9-0.2-1.7-0.3-2.6c0-0.3-0.1-0.5-0.2-0.8c0.1-0.2-0.1-0.3,0-0.5c0.4,0.5,0.7,1,1.2,1.4
							c1.3,1,2.9,0.8,3.8-0.4c0.2-0.3,0.4-0.6,0.5-1c0.1-0.1,0-0.7,0.1-0.8c0,0,0.3,0,0.3,0c0,0.1-0.1,0.2,0,0.4c0,0.1,0,0.3,0,0.5
							c0,0.4,0.1,0.7,0.2,1.1c0.2,0.7,0.6,1.3,1.1,1.8c1.9,1.6,4.1,2,6.5,1.3c0.2-0.1,0.3-0.2,0.4-0.3C95.1,32.3,95,32.5,94.9,32.6z
							 M84.1,34.5c1.3,0.8,2.8,1.1,4.2,1.4c0.6,0.1,1.1,0.2,1.7,0.1c1.6,0.1,3.8-1.6,4.3-3c0-0.1,0.1-0.1,0-0.2
							c-0.1-0.1-0.2,0-0.3,0c-0.8,0.2-1.5,0.3-2.4,0.3C90.3,33,89,32.4,88,31.5c-0.6-0.6-1.1-1.2-1.5-2c-1.3,1.6-3.6,1.8-4.8,0.6
							c0,0,0,0,0,0c0,0,0,0,0,0C81.7,31.9,82.4,33.5,84.1,34.5z"/>
						<path class="st25" d="M95.1,32.1c-0.1,0.1-0.2,0.2-0.4,0.3c-2.4,0.8-4.6,0.3-6.5-1.3c-1.1-0.9-1.3-2.2-1.4-3.5
							c0-0.1,0-0.3,0.2-0.2c1.5,0.2,2.6-0.5,3.5-1.6c0,0,0,0,0,0c0.5,0.5,1.2,0.9,1.7,1.4c1.2,1.1,2.3,2.4,2.7,4.1
							C95.1,31.5,95.1,31.8,95.1,32.1z"/>
						<path class="st25" d="M83.9,23.9c0.1,0.3,0.1,0.6,0.2,0.9c0.4,1.2,1.1,2.1,2.4,2.5c0.2,0.1,0.3,0.2,0.2,0.4
							c-0.2,0.5-0.4,1-0.7,1.5c-0.9,1.2-2.5,1.4-3.8,0.4c-0.5-0.4-0.8-0.9-1.2-1.4l0,0c0-0.1,0-0.1-0.1-0.2l0,0c0,0,0,0,0-0.1
							c0-0.4,0.2-0.8,0.5-1.1C82.2,25.8,83,24.8,83.9,23.9z"/>
						<path class="st19" d="M80.9,28C81,28,81,28.1,81,28.2C80.8,28.1,80.9,28,80.9,28z"/>
						<path class="st26" d="M81.7,30c1.2,1.3,3.5,1,4.8-0.6c0.4,0.8,0.8,1.5,1.5,2c1.1,1,2.3,1.5,3.8,1.7c0.8,0.1,1.6,0,2.4-0.3
							c0.1,0,0.2-0.1,0.3,0c0.1,0.1,0,0.1,0,0.2c-0.5,1.3-2.8,3.1-4.3,3c-0.4-0.3-0.9-0.6-1.4-0.6c-0.9-0.1-1.7-0.3-2.5-0.8
							c-0.5-0.3-1.3-0.6-2-0.1C82.4,33.5,81.7,31.9,81.7,30L81.7,30z"/>
						<path class="st27" d="M84.1,34.5c0.7-0.4,1.4-0.2,2,0.1c0.8,0.5,1.6,0.7,2.5,0.8c0.5,0,1,0.3,1.4,0.6c-0.6,0.1-1.2,0-1.7-0.1
							C86.9,35.6,85.4,35.3,84.1,34.5z"/>
					</g>
					<path class="st28" d="M90.6,25.3c0,0.5-0.4,1.1-0.8,1.4c-0.9,0.7-2.1,0.9-3.2,0.6c-1.1-0.3-2.2-1.2-2.7-2.2
						c-0.2-0.3-0.3-0.8-0.2-1.1c0.1-0.3,0.3-0.6,0.6-0.7c0.3-0.1,0.8-0.1,1.1-0.1c1,0,1.4,0.1,2.4,0.3c0.2,0.1,1,0.2,1.2,0.3
						c0.3,0.1,0.7,0.3,0.9,0.5C90.3,24.5,90.6,24.8,90.6,25.3z"/>
				</g>
			</g>
		</g>
		<g>
			<path class="st10" d="M86.7,68.8c0,0-1.3-0.4-3.6-3c-0.5-0.5-3-2.9-5.5-2.1s-1.7,5.1-0.3,8.2c1.5,3.1,3.7,6,4.5,5.7
				c0.8-0.2,3.4-1.2,4.5-2C86.9,74.1,89.6,70.3,86.7,68.8z"/>
			<path class="st11" d="M77.6,63.7c-1.2,1.1-1.3,2.5-1.1,4c0.6,3.8,2.5,6.8,5,9.6c0.1,0.1,0.2,0.2,0.3,0.3c-0.3,0.1-0.7,0.1-1,0.2
				c-0.1,0-0.3,0-0.4-0.2c-2.2-2.6-4-5.4-5-8.7c-0.2-0.8-0.4-1.6-0.4-2.5c0.1-1.4,0.9-2.4,2.1-2.8C77.3,63.7,77.4,63.6,77.6,63.7z"
				/>
			<path class="st12" d="M82.1,70.2c-0.2-1.4-0.3-2.8,0.1-4.2c0-0.2,0.1-0.3,0.2-0.5c0.1-0.2,0.3-0.2,0.4,0c0,0,0,0,0.1,0.1
				c0.3,0.2,0.6,0.4,0.8,0.7c0.2,0.3-0.3,0.5-0.4,0.8c-0.3,0.8-0.3,1.7-0.1,2.5c0,0.3,0.1,0.5,0.2,0.8c0.1,0.3-0.1,0.5-0.3,0.6
				c-0.2,0.1-0.4,0-0.5-0.2C82.3,70.7,82.2,70.5,82.1,70.2z"/>
			<path class="st13" d="M80.2,68.4c-0.2-1.2-0.3-2.4,0.3-3.6c0.3-0.6,0.4-0.6,0.9-0.2c0.6,0.4,0.6,0.4,0.3,1.1
				c-0.5,1-0.4,2.1-0.4,3.2c0,0.2,0.2,0.5-0.1,0.6c-0.3,0.1-0.5-0.2-0.6-0.4C80.4,68.9,80.4,68.7,80.2,68.4z"/>
			<path class="st14" d="M78.4,67c-0.1-1.1-0.1-2.1,0.5-3c0.2-0.4,1.2-0.4,1.4,0c0.1,0.1,0,0.2,0,0.2c-0.7,0.9-0.8,2-0.7,3.1
				c0,0.2,0.1,0.4-0.2,0.5c-0.2,0.1-0.4,0-0.6-0.2C78.6,67.4,78.5,67.2,78.4,67z"/>
			<path class="st17" d="M96.5,62.6c0.1,0.3,0,0.4-0.2,0.6c-0.6,0.4-1.2,0.8-1.8,1.3c-0.4,0.3-0.8,0.6-1.1,1
				c-0.7,0.8-1.6,1.1-2.4,1.6c-0.5,0.3-1,0.6-1.5,0.8c-0.8,0.3-1.7,0.6-2.5,0.8c-0.4,0.1-0.4,0.2-0.4,0.6c0.1,0.9,0,1.7-0.9,2.2
				c-0.2,0.1-0.5,0.2-0.7,0.4c-0.3,0.1-0.5,0.3-0.5,0.6c0,0.3,0,0.5,0,0.8c0.1,0.9,0.6,1.6,1.2,2.2c0.4,0.4,0.8,0.1,1.2,0.1
				c0,0,0.1,0,0.1,0c1.8,0.3,3.6,0,5.4-0.5c0.3-0.1,0.8-0.2,1-0.2c0.4-0.1,0.8-0.3,1.2-0.4c1.1-0.4,2.2-0.8,3.2-1.4
				c1.3-0.7,2.6-1.7,4-2.2C101.8,70.9,104.3,63.8,96.5,62.6z"/>
		</g>
	</g>
	<path class="st29" d="M80.9,84L63.2,11.6c-0.3-1.3-1.7-2.1-3-1.8s-2.1,1.7-1.8,3l17.6,72.4c-1.3,2.3-2.7,6.1-1.9,11.5l7,28.6
		c0,0,2,2.4,7.6,1.1c5.5-1.3,6.2-4.4,6.2-4.4l-7-28.6C86.1,88.2,83.1,85.4,80.9,84z"/>
	<g>
		<path class="st17" d="M97.8,37.9c-0.5,0.4-5.2,3.5-6.3,4c0,0,0,0,0,0c-4.8,2.3-9.8,4.1-15,5.4c-1.1,0.3-2.2,0.6-3.3,0.1
			c-0.1-0.1-0.3-0.1-0.5-0.1c-0.9-0.2-1.8-0.4-2.6-0.9c-0.9-0.7-2-0.8-2.9-0.1c-0.9,0.6-1.1,1.6-0.9,2.6c0,0.2,0,0.3-0.2,0.4
			c-1.5,0.6-1.4,2.1-0.7,3.1c0.2,0.2,0.2,0.4,0.1,0.7c-0.4,1.4,1,3.1,2.4,2.8c0.3-0.1,0.4,0,0.6,0.3c0.3,0.7,0.8,1.1,1.6,1.1
			c0.8,0,1.5-0.3,2-0.9c0.9-0.9,1.8-1.8,2.8-2.6c0.2-0.2,0.4-0.3,0.7-0.3c0.6-0.1,1.3-0.2,1.9-0.5c4.1-1.5,8.1-3.2,12.1-5.2
			c0.3-0.1,0.5-0.3,0.8-0.3l0,0c0-0.1,0-0.1,0.1-0.1l0,0c0-0.1,0.1-0.1,0.2-0.1c1-0.7,2.1-1.2,3.2-1.8c1-0.6,7.4-4.8,7.4-5.3
			L97.8,37.9z"/>
	</g>
</g>
</svg>
