<svg id="Layer_1" data-name="Layer 1" xmlns="http://www.w3.org/2000/svg" xmlns:xlink="http://www.w3.org/1999/xlink" viewBox="0 0 260 168"><defs><style>.cls-1{fill:#b4e1e7;}.cls-2,.cls-42{fill:#60aeb2;}.cls-3{fill:#b5632c;}.cls-22,.cls-23,.cls-24,.cls-25,.cls-38,.cls-4,.cls-80{fill:none;}.cls-5{fill:#b76930;}.cls-6{fill:#dba58a;}.cls-7{fill:#3a3a3a;}.cls-8{fill:#474647;}.cls-9{fill:#231f20;}.cls-10{fill:#a55716;}.cls-11{fill:#9b4a0d;}.cls-12,.cls-44,.cls-51{fill:#6ab7be;}.cls-13{fill:#572517;}.cls-14{fill:#460f0b;}.cls-15{fill:#d5f5f7;}.cls-16{fill:#2a1107;}.cls-17{clip-path:url(#clip-path);}.cls-18{opacity:0.51;}.cls-19{fill:#c80752;}.cls-20{fill:#ff085f;}.cls-21{clip-path:url(#clip-path-2);}.cls-22{stroke:red;}.cls-22,.cls-23,.cls-24,.cls-25,.cls-38,.cls-80{stroke-linecap:round;stroke-linejoin:round;}.cls-22,.cls-23,.cls-24,.cls-25{stroke-width:0.1px;}.cls-23{stroke:#2d5b04;}.cls-24{stroke:#000dff;}.cls-25{stroke:#ffb600;}.cls-26{fill:#53a0a0;}.cls-26,.cls-42{opacity:0.37;}.cls-27{clip-path:url(#clip-path-3);}.cls-28,.cls-66{fill:#fff;}.cls-29{fill:#e2e2e2;}.cls-30{fill:#280f05;}.cls-31{fill:#461d13;}.cls-32{clip-path:url(#clip-path-4);}.cls-33{fill:#431a11;}.cls-34{fill:#1f0e07;}.cls-35{fill:#130402;}.cls-36{fill:#441a12;}.cls-37{clip-path:url(#clip-path-5);}.cls-38{stroke:#280f05;stroke-width:0.62px;}.cls-39{fill:#ff8c26;}.cls-40{fill:#ffe1bd;}.cls-41{fill:#96c5c7;}.cls-43{clip-path:url(#clip-path-6);}.cls-44{opacity:0.28;}.cls-45{clip-path:url(#clip-path-7);}.cls-46{fill:#ea6e27;}.cls-47{fill:#132995;}.cls-48{clip-path:url(#clip-path-8);}.cls-49{fill:#87c1c6;}.cls-50{clip-path:url(#clip-path-9);}.cls-51{opacity:0.53;}.cls-52{fill:#ccc;}.cls-53{fill:#0a0301;}.cls-54{clip-path:url(#clip-path-10);}.cls-55{fill:#d69163;}.cls-56{fill:#9e5726;}.cls-57{fill:#c6753e;}.cls-58{fill:#994f1d;}.cls-59{clip-path:url(#clip-path-11);}.cls-60{fill:#9b522a;}.cls-61{fill:#aa5d29;}.cls-62{fill:#db8449;}.cls-63{fill:#ce7234;}.cls-64{fill:#8c4d23;}.cls-65{clip-path:url(#clip-path-12);}.cls-66{opacity:0.14;}.cls-67{clip-path:url(#clip-path-13);}.cls-68{clip-path:url(#clip-path-14);}.cls-69{fill:#a55621;}.cls-70{fill:#e2ae91;}.cls-71{fill:#ce956f;}.cls-72{fill:#af612c;}.cls-73{fill:#c9804f;}.cls-74{fill:#d38957;}.cls-75,.cls-79{fill:#333;}.cls-76{fill:#2d2d2d;}.cls-77{clip-path:url(#clip-path-15);}.cls-78{clip-path:url(#clip-path-16);}.cls-79{opacity:0.3;}.cls-80{stroke:#727272;stroke-width:0.12px;}.cls-81{fill:#58990d;}.cls-82{fill:#9e5823;}.cls-83{clip-path:url(#clip-path-17);}.cls-84{fill:#6d3503;}.cls-85{fill:#7c3e0a;}.cls-86{fill:#602e05;}.cls-87{fill:#c96d28;}.cls-88{fill:#e0874b;}.cls-89{clip-path:url(#clip-path-18);}.cls-90{fill:#9b4a0e;}.cls-91{clip-path:url(#clip-path-19);}.cls-92{clip-path:url(#clip-path-20);}.cls-93{clip-path:url(#clip-path-21);}.cls-94{clip-path:url(#clip-path-22);}</style><clipPath id="clip-path"><path class="cls-1" d="M222.52,88.2s-1.28,1-2.77,5.51-3.74,5.93-3.69,7.42,2.83,3.83,6.21,2.34,3.12-12.38,2.19-14S223,87.8,222.52,88.2Z"/></clipPath><clipPath id="clip-path-2"><path class="cls-2" d="M221.53,102.06s-.82,5.47-1,8-.64,6.49-.37,8,.35,1.75,3.63,1.42a6.87,6.87,0,0,0,3.42,0c1.78-.51,3.08.27,4.56.24s4.85.54,4.52-3.46-3.39-12.54-3.54-14.47C232.71,101.8,223.56,99.45,221.53,102.06Z"/></clipPath><clipPath id="clip-path-3"><path class="cls-12" d="M224.89,87.57a6.11,6.11,0,0,0-2.09.46c-.68.38,0,1.28-.23,4.2s-.25,3.81.27,5.36c0,0,.81.75,4.08.62s4.86-.44,5-.85a16.05,16.05,0,0,0-.33-4.49,20.58,20.58,0,0,1-.06-4.61c.06-.28-.88-.64-1.86-.62C229.7,87.64,225.25,88,224.89,87.57Z"/></clipPath><clipPath id="clip-path-4"><path class="cls-13" d="M229,69.87a7.13,7.13,0,0,0-6.35,2.7c-2.34,3.23-1.3,8.37-1,9.51a7.52,7.52,0,0,0,6,4.53c3.58.37,6-2.77,6.41-3.68s2.09-6.38.25-9.8A6.69,6.69,0,0,0,229,69.87Z"/></clipPath><clipPath id="clip-path-5"><path class="cls-14" d="M225.5,83.1a14.82,14.82,0,0,0,2.24.52,7.57,7.57,0,0,0,2.29-.16s-.48,2.09-2.34,1.89A2.37,2.37,0,0,1,225.5,83.1Z"/></clipPath><clipPath id="clip-path-6"><path class="cls-15" d="M222.51,97.6a9.3,9.3,0,0,1,3,.41,7.37,7.37,0,0,0,3.69,0c.73-.17,2.76-.41,3.21.24a6.86,6.86,0,0,1,.61,3.68c-.25.77-1.23,1-2.35.79a20.7,20.7,0,0,0-4-.08,20.06,20.06,0,0,1-3.87.14c-1-.14-1.82,0-1.47-1.83S221.86,97.81,222.51,97.6Z"/></clipPath><clipPath id="clip-path-7"><path class="cls-16" d="M224.46,87.43c.11,0,.78.6.69,1.91s.13,1.65-.35,2.69,0,2-.24,2.7a6.86,6.86,0,0,1-2.21,2.86,18.33,18.33,0,0,1,.16-4.69c.42-1.84,1-3.82.29-4.87A5.41,5.41,0,0,1,224.46,87.43Z"/></clipPath><clipPath id="clip-path-8"><path class="cls-16" d="M230.15,87.43c-.11,0-.78.6-.69,1.91s-.13,1.65.34,2.69,0,2,.24,2.7a5.31,5.31,0,0,0,1.93,2.5,11.74,11.74,0,0,0,.13-4.33c-.42-1.84-1-3.82-.29-4.87A5.41,5.41,0,0,0,230.15,87.43Z"/></clipPath><clipPath id="clip-path-9"><path class="cls-1" d="M231.81,88s3.76,3.78,4,7.4-1.34,6.79-5.81,5.81a4.94,4.94,0,0,0-4.05-3.64c-3.27-.37,3.93-3.07,5.54-2.66C231.45,94.94,230.2,88.75,231.81,88Z"/></clipPath><clipPath id="clip-path-10"><path class="cls-3" d="M215,113.89c-.54-.12-8.45,1.32-8.45,1.32l-1,1-1.59.23-1.72,4.25-.42,3.73-1.72,1.7.64.82,5.89,1.17,5.78-4.48,3.44-3.72Z"/></clipPath><clipPath id="clip-path-11"><path class="cls-3" d="M215.68,125.51l17.39,1.27,3.39.43,2.6-1.07-3.42-8.3-3.73-.79-2.46-2.7-12.21-.29-4.65,3.14L211,122.84S209.45,126.25,215.68,125.51Z"/></clipPath><clipPath id="clip-path-12"><rect class="cls-4" x="215.04" y="64" width="34.17" height="62.29"/></clipPath><clipPath id="clip-path-13"><path class="cls-5" d="M208.36,117.82a18.92,18.92,0,0,1-2.71,4c-1.55,1.67-3.29,2-3.31,3.36s-.5,1.12,2,2.28,7.58,1.25,7.58,1.25,4.33,0,8-.07,7.18-.4,7.18-.4L229.8,127s-2.46-5.89-2.65-6.06-2.26-2.2-2.26-2.2l-2.71-1.68-11.08-.24Z"/></clipPath><clipPath id="clip-path-14"><path class="cls-6" d="M198.34,122.88c0,.14,9.14.34,9.14.34l17.85,2.06s3.24,4.28,2.82,4.39S198,128.43,198,128.43Z"/></clipPath><clipPath id="clip-path-15"><path class="cls-7" d="M206.92,109.5a2.88,2.88,0,0,1-1.15-1.47c-.21-.87.28-1.42,1.33-1.86a4.68,4.68,0,0,1,2.49-.34c.52.08,2.08.49,2.08.49l-1.22.63,0-.46a3.29,3.29,0,0,0-2-.35c-1.06.2-2,.72-2.05,1.08s.62,1,1,1.18Z"/></clipPath><clipPath id="clip-path-16"><path class="cls-8" d="M231.31,108.89c0-1.78-5.59-3.22-12.5-3.22s-12.5,1.44-12.5,3.22V109a11.32,11.32,0,0,0,1.52,4.52h0c.83,1.37,5.43,2.41,11,2.41s10.14-1,11-2.41h0A7.6,7.6,0,0,0,231.31,108.89Z"/></clipPath><clipPath id="clip-path-17"><ellipse class="cls-9" cx="218.81" cy="109.02" rx="11.9" ry="3.06"/></clipPath><clipPath id="clip-path-18"><path class="cls-10" d="M216.61,110.34a.9.9,0,0,0-.15.67c.1.31,2.59.4,2.78.36s.9-.25,1.08-.59-.17-.67-.17-.67l-2.2,0Z"/></clipPath><clipPath id="clip-path-19"><path class="cls-10" d="M211.38,109.62a8.13,8.13,0,0,0-.2,1c0,.38,1.5,1,1.9.93a6.3,6.3,0,0,0,2.32-.92c.34-.36-.39-1-.39-1l-2.8,0Z"/></clipPath><clipPath id="clip-path-20"><path class="cls-11" d="M224.31,107.86a4.74,4.74,0,0,0-.27.61c-.07.23,1,.65,1.77.63a1.16,1.16,0,0,0,1-.79c0-.06.1-.78-.07-.88l-1.73.41Z"/></clipPath><clipPath id="clip-path-21"><path class="cls-10" d="M219.18,108.55s-.2.51-.06.73,1.67.17,2,.19a2.85,2.85,0,0,0,1.52-.23c.38-.28.1-.84.1-.84l-3.16.09Z"/></clipPath><clipPath id="clip-path-22"><rect class="cls-4" x="200.44" y="64" width="45.72" height="50.64"/></clipPath></defs><path class="cls-13" d="M218.2,102.21a2.35,2.35,0,0,0-.28,1.25,2.88,2.88,0,0,0,.14,1.13,3.64,3.64,0,0,0,.57.89l.59.74c.07.09.17.19.28.17s.2-.27.18-.45l-.23-1.45c.23-.08.45.12.64.27s.49.27.64.08a.36.36,0,0,0,.08-.2,5,5,0,0,0,.09-1.73,1.29,1.29,0,0,0-.15-.54,1.14,1.14,0,0,0-.38-.34,2.7,2.7,0,0,0-1.2-.39,1,1,0,0,0-.51.06.47.47,0,0,0-.28.41"/><path class="cls-1" d="M222.52,88.2s-1.28,1-2.77,5.51-3.74,5.93-3.69,7.42,2.83,3.83,6.21,2.34,3.12-12.38,2.19-14S223,87.8,222.52,88.2Z"/><g class="cls-17"><g class="cls-18"><path class="cls-12" d="M222.22,87.77c-.27,1.56.38,3.09.11,4.66-.13.8-.41,1.57-.54,2.37a8.68,8.68,0,0,0,.05,2.16,11.75,11.75,0,0,1-1,4.91,7.21,7.21,0,0,0,.25,4.47.05.05,0,1,0,.1,0,10.61,10.61,0,0,1-.53-2.5,6.52,6.52,0,0,1,.47-2.46A10,10,0,0,0,222,97a7.74,7.74,0,0,1,0-2.45c.14-.73.38-1.43.49-2.16.24-1.53-.39-3-.13-4.55,0-.07-.09-.1-.1,0Z"/></g><g class="cls-18"><path class="cls-12" d="M221.29,88.75a10.19,10.19,0,0,1,0,4.66c-.29,1.41-.47,2.82-.65,4.24a30,30,0,0,1-.76,4.32,12.3,12.3,0,0,1-.72,2,8.39,8.39,0,0,1-.49.94c-.15.26-.49,1.09-.86.51,0-.06-.13,0-.09,0a1.09,1.09,0,0,0,.38.39s.06,0,.08,0c1.71-2.3,2.2-5.15,2.54-7.93.21-1.66.46-3.29.77-4.93a9.94,9.94,0,0,0-.09-4.24c0-.07-.12,0-.11,0Z"/></g><g class="cls-18"><path class="cls-12" d="M220.81,89.7a18.19,18.19,0,0,1-.3,4.23c-.26,1.3-.71,2.55-1,3.84s-.49,2.47-.79,3.69a18.63,18.63,0,0,1-.54,1.8,3.45,3.45,0,0,1-1.19,2c-.06,0,0,.12.05.09.92-.51,1.24-1.94,1.52-2.86.42-1.38.67-2.81,1-4.22s.76-2.75,1.06-4.15a18.41,18.41,0,0,0,.33-4.38.06.06,0,0,0-.11,0Z"/></g><g class="cls-18"><path class="cls-12" d="M219.73,92a18.86,18.86,0,0,1-1.3,6.89c-.42,1.08-.58,2.18-.91,3.27a16.76,16.76,0,0,1-1.51,3.31.06.06,0,0,0,.1.06,19.19,19.19,0,0,0,1.45-3.12c.37-1.16.53-2.35,1-3.49A18.82,18.82,0,0,0,219.84,92a.06.06,0,0,0-.11,0Z"/></g><g class="cls-18"><path class="cls-12" d="M218,95.09c.5,1.73-.18,3.44-.9,5-.3.66-.62,1.32-.86,2s-.33,1.6-.6,2.38c0,.06.09.09.11,0,.27-.8.33-1.66.62-2.46s.73-1.68,1.1-2.51a6.66,6.66,0,0,0,.63-4.48.05.05,0,0,0-.1,0Z"/></g><g class="cls-18"><path class="cls-12" d="M238.84,102.59v0a.05.05,0,0,0-.05,0,.06.06,0,0,0-.06,0v0a.06.06,0,0,0,.06,0,0,0,0,0,0,.05,0Z"/></g><g class="cls-18"><path class="cls-12" d="M218.44,109.26a.06.06,0,0,0,0-.11.06.06,0,0,0,0,.11Z"/></g></g><path class="cls-19" d="M224.8,121.91v.62a1.89,1.89,0,0,1-1.24,1,7.2,7.2,0,0,0-2,1,3.18,3.18,0,0,1-2.81.77,1.37,1.37,0,0,1-.93-1.91l4.46-1.83Z"/><path class="cls-20" d="M224.56,121.67a.31.31,0,0,1,.12.53,3.93,3.93,0,0,1-1.62,1,4.58,4.58,0,0,0-1.41.85c-.15.13-1.72,1.24-2.81,1a1.22,1.22,0,0,1-.36-2.3c1.15-.52,4.37-1.88,4.37-1.88Z"/><path class="cls-13" d="M224.56,119.31s0,1.47,0,1.88.4,1.26-1,1.64a4.21,4.21,0,0,0-2.18,1.25,4.09,4.09,0,0,1-2.05.7c-.77,0-.69-.51-.69-.51a.48.48,0,0,1-.32-.51.67.67,0,0,1,0-.39s-.07-.09,0-.3a.35.35,0,0,1,.16-.38,13.35,13.35,0,0,1,1.44-.78c.67-.32,2-1.19,2.08-2.47S224.52,118.79,224.56,119.31Z"/><path class="cls-20" d="M220.79,124.35a1.66,1.66,0,0,0-.49-.46,1.44,1.44,0,0,0-.71-.15,1.69,1.69,0,0,0-.74.1.75.75,0,0,0-.43.49.19.19,0,0,0,.36.1c.09-.35.56-.33.84-.32a1.12,1.12,0,0,1,.51.11,1.3,1.3,0,0,1,.34.32.2.2,0,0,0,.26.07.19.19,0,0,0,.06-.26Z"/><path class="cls-20" d="M219.62,123.87a1.88,1.88,0,0,0-.89-1.44.19.19,0,0,0-.25.07.18.18,0,0,0,.06.25,1,1,0,0,1,.47.46,2.52,2.52,0,0,1,.25.76.19.19,0,0,0,.23.13.19.19,0,0,0,.13-.23Z"/><path class="cls-19" d="M229.22,121.91v.62a1.85,1.85,0,0,0,1.24,1,6.92,6.92,0,0,1,2,1,3.19,3.19,0,0,0,2.81.77,1.36,1.36,0,0,0,.93-1.91l-4.46-1.83Z"/><path class="cls-20" d="M229.45,121.67a.31.31,0,0,0-.12.53,4,4,0,0,0,1.63,1,4.88,4.88,0,0,1,1.41.85c.14.13,1.71,1.24,2.81,1a1.22,1.22,0,0,0,.36-2.3c-1.16-.52-4.37-1.88-4.37-1.88Z"/><path class="cls-13" d="M229.46,119.31s0,1.47,0,1.88-.41,1.26,1,1.64a4.26,4.26,0,0,1,2.18,1.25,4,4,0,0,0,2,.7c.77,0,.7-.51.7-.51a.47.47,0,0,0,.31-.51.59.59,0,0,0,0-.39s.08-.09,0-.3a.35.35,0,0,0-.16-.38,13.35,13.35,0,0,0-1.44-.78c-.66-.32-2-1.19-2.07-2.47S229.49,118.79,229.46,119.31Z"/><path class="cls-20" d="M233.54,124.54a1.34,1.34,0,0,1,.35-.32,1,1,0,0,1,.5-.11c.28,0,.75,0,.84.32a.19.19,0,0,0,.36-.1.73.73,0,0,0-.41-.48,1.62,1.62,0,0,0-.75-.11,1.44,1.44,0,0,0-.71.15,1.69,1.69,0,0,0-.5.46.2.2,0,0,0,.07.26.19.19,0,0,0,.25-.07Z"/><path class="cls-20" d="M234.76,124a2.5,2.5,0,0,1,.24-.76,1.1,1.1,0,0,1,.47-.46.19.19,0,0,0,.07-.25.21.21,0,0,0-.26-.07,1.87,1.87,0,0,0-.88,1.44.18.18,0,0,0,.13.23.19.19,0,0,0,.23-.13Z"/><path class="cls-2" d="M221.53,102.06s-.82,5.47-1,8-.64,6.49-.37,8,.35,1.75,3.63,1.42a6.87,6.87,0,0,0,3.42,0c1.78-.51,3.08.27,4.56.24s4.85.54,4.52-3.46-3.39-12.54-3.54-14.47C232.71,101.8,223.56,99.45,221.53,102.06Z"/><g class="cls-21"><path class="cls-22" d="M226.88,111.64a2,2,0,0,0,2-1.71"/><path class="cls-23" d="M227,111.84s1.83,0,2-1.7"/><path class="cls-24" d="M227.15,112.05a2,2,0,0,0,2-1.71"/><path class="cls-25" d="M227.28,112.25s1.83,0,2-1.7"/><path class="cls-22" d="M221.79,104.39a2.05,2.05,0,0,0,2-1.71"/><path class="cls-23" d="M221.93,104.59s1.83,0,2-1.7"/><path class="cls-24" d="M222.06,104.8a2.05,2.05,0,0,0,2-1.71"/><path class="cls-25" d="M222.2,105s1.83,0,2-1.7"/><path class="cls-22" d="M228.7,105.19a2,2,0,0,0,2-1.71"/><path class="cls-23" d="M228.84,105.39a2,2,0,0,0,2-1.7"/><path class="cls-24" d="M229,105.6a2,2,0,0,0,2-1.71"/><path class="cls-25" d="M229.11,105.8a2,2,0,0,0,2-1.7"/><path class="cls-22" d="M222.71,107.76a2,2,0,0,0,2-1.71"/><path class="cls-23" d="M222.85,108s1.83,0,2-1.7"/><path class="cls-24" d="M223,108.17a2,2,0,0,0,2-1.71"/><path class="cls-25" d="M223.12,108.37s1.83,0,2-1.7"/><path class="cls-22" d="M225,105.48s1.83,0,2-1.7"/><path class="cls-23" d="M225.13,105.69s1.83,0,2-1.7"/><path class="cls-24" d="M225.26,105.89s1.83,0,2-1.7"/><path class="cls-25" d="M225.4,106.1s1.83,0,2-1.7"/><path class="cls-22" d="M222,114.7s1.83,0,2-1.7"/><path class="cls-23" d="M222.14,114.91a2.05,2.05,0,0,0,2-1.71"/><path class="cls-24" d="M222.28,115.11s1.83,0,2-1.7"/><path class="cls-25" d="M222.41,115.32a2.05,2.05,0,0,0,2-1.71"/><path class="cls-22" d="M227.66,118.28a2,2,0,0,0,2-1.71"/><path class="cls-23" d="M227.79,118.48a2,2,0,0,0,2-1.7"/><path class="cls-24" d="M227.93,118.69a2,2,0,0,0,2-1.71"/><path class="cls-25" d="M228.06,118.89a2,2,0,0,0,2-1.7"/><path class="cls-22" d="M231.9,112.78s1.83,0,2-1.7"/><path class="cls-23" d="M232,113a2,2,0,0,0,2-1.71"/><path class="cls-24" d="M232.17,113.19s1.83,0,2-1.7"/><path class="cls-25" d="M232.31,113.4a2,2,0,0,0,2-1.71"/><path class="cls-22" d="M230.18,107.76a2,2,0,0,0,2-1.71"/><path class="cls-23" d="M230.32,108s1.83,0,2-1.7"/><path class="cls-24" d="M230.45,108.17a2,2,0,0,0,2-1.71"/><path class="cls-25" d="M230.59,108.37s1.83,0,2-1.7"/><path class="cls-22" d="M221.14,111.62s1.83,0,2-1.7"/><path class="cls-23" d="M221.27,111.83a2.05,2.05,0,0,0,2-1.71"/><path class="cls-24" d="M221.41,112s1.83,0,2-1.7"/><path class="cls-25" d="M221.54,112.24a2.05,2.05,0,0,0,2-1.71"/><path class="cls-22" d="M232.67,118a2.05,2.05,0,0,0,2-1.71"/><path class="cls-23" d="M232.81,118.18s1.83,0,2-1.7"/><path class="cls-24" d="M232.94,118.39a2.05,2.05,0,0,0,2-1.71"/><path class="cls-25" d="M233.08,118.59s1.83,0,2-1.7"/><path class="cls-22" d="M225.58,116.36a2,2,0,0,0,2-1.71"/><path class="cls-23" d="M225.71,116.56s1.83,0,2-1.7"/><path class="cls-24" d="M225.85,116.77a2,2,0,0,0,2-1.71"/><path class="cls-25" d="M226,117s1.83,0,2-1.7"/><path class="cls-22" d="M219,119.56a2,2,0,0,0,2-1.71"/><path class="cls-23" d="M219.15,119.76s1.83,0,2-1.7"/><path class="cls-24" d="M219.28,120a2,2,0,0,0,2-1.71"/><path class="cls-25" d="M219.42,120.17s1.83,0,2-1.7"/><path class="cls-26" d="M231.32,120.6a18.94,18.94,0,0,1-2.38-3.5,4,4,0,0,0-.59-.91,1,1,0,0,0-1.68.35,5.31,5.31,0,0,0-.25,1,5.21,5.21,0,0,1-.71,1.66,11.19,11.19,0,0,0-.67,1,1.5,1.5,0,0,0-.13,1.17c.26.7,1.14.91,1.88,1a11.33,11.33,0,0,0,2.47-.18c.55-.1,1.18-.32,1.31-.86"/><path class="cls-26" d="M234.5,118.42l0-1.62a1.94,1.94,0,0,1,.07-.64.61.61,0,0,1,.47-.41c.36,0,.6.35.74.68.43,1,.79,2,1.15,3a1.41,1.41,0,0,1,.12.49,1,1,0,0,1-.72.83,3.28,3.28,0,0,1-1.36,0c-.29,0-.8,0-.93-.33s.14-.57.27-.81A2.32,2.32,0,0,0,234.5,118.42Z"/><path class="cls-26" d="M220.84,101.82a.73.73,0,0,0,.12.71,1.68,1.68,0,0,0,.59.47,4,4,0,0,0,2.13.45c1-.06,1.91-.47,2.89-.47.74,0,1.46.24,2.2.27a16.35,16.35,0,0,1,2,0,9.5,9.5,0,0,0,2.19.5,2.51,2.51,0,0,0,1.8-1.24,2,2,0,0,0,.37-1.23,1.57,1.57,0,0,0-.74-1.1,4,4,0,0,0-1.27-.48,26.79,26.79,0,0,0-8.71-.06,22.55,22.55,0,0,0-2.47.33,2.46,2.46,0,0,0-1.26.56"/></g><path class="cls-12" d="M224.89,87.57a6.11,6.11,0,0,0-2.09.46c-.68.38,0,1.28-.23,4.2s-.25,3.81.27,5.36c0,0,.81.75,4.08.62s4.86-.44,5-.85a16.05,16.05,0,0,0-.33-4.49,20.58,20.58,0,0,1-.06-4.61c.06-.28-.88-.64-1.86-.62C229.7,87.64,225.25,88,224.89,87.57Z"/><g class="cls-27"><path class="cls-22" d="M225.51,92.78a2.05,2.05,0,0,0,2-1.71"/><path class="cls-23" d="M225.65,93s1.83,0,2-1.7"/><path class="cls-24" d="M225.78,93.19a2.05,2.05,0,0,0,2-1.71"/><path class="cls-25" d="M225.92,93.39s1.83,0,2-1.7"/><path class="cls-22" d="M224,95.46a2,2,0,0,0,2-1.71"/><path class="cls-23" d="M224.08,95.66s1.83,0,2-1.7"/><path class="cls-24" d="M224.22,95.87a2,2,0,0,0,2-1.71"/><path class="cls-25" d="M224.35,96.07s1.83,0,2-1.7"/><path class="cls-22" d="M226.51,97.49s1.83,0,2-1.7"/><path class="cls-23" d="M226.65,97.7a2,2,0,0,0,2-1.71"/><path class="cls-24" d="M226.78,97.9a2,2,0,0,0,2-1.7"/><path class="cls-25" d="M226.92,98.11a2,2,0,0,0,2-1.71"/><path class="cls-22" d="M228.79,91s1.83,0,2-1.7"/><path class="cls-23" d="M228.93,91.23a2,2,0,0,0,2-1.71"/><path class="cls-24" d="M229.06,91.43s1.83,0,2-1.7"/><path class="cls-25" d="M229.2,91.64a2,2,0,0,0,2-1.71"/><path class="cls-22" d="M228.94,94.48s1.83,0,2-1.7"/><path class="cls-23" d="M229.08,94.69a2,2,0,0,0,2-1.71"/><path class="cls-24" d="M229.21,94.89s1.83,0,2-1.7"/><path class="cls-25" d="M229.35,95.1a2,2,0,0,0,2-1.71"/><path class="cls-28" d="M221.89,87.21a2.79,2.79,0,0,1,1.62,1.94,6,6,0,0,1,0,2.6,13.46,13.46,0,0,1-.37,1.52c-.1.33-.26.7-.59.78a20.56,20.56,0,0,1-.79-6.82c0-.13.15-.31.24-.2l-.07.23"/></g><path class="cls-13" d="M225.82,86.16v1.32s-.66.15-1,.2,1,3.09,2.56,3.09,2.53-2.54,2.64-3l-1.25-.35V86S226,85.37,225.82,86.16Z"/><path d="M225.6,87.47c.21.7,1,.87,1.66.88a2,2,0,0,0,1.77-.78c.14-.2-.18-.39-.32-.19a1.66,1.66,0,0,1-1.4.6c-.47,0-1.19-.07-1.35-.6-.07-.23-.43-.14-.36.09Z"/><circle class="cls-29" cx="227.32" cy="88.43" r="0.4"/><path class="cls-30" d="M222.17,75.5a1.73,1.73,0,0,0-2-1.23c-1.67.14-1.45,1.51-1.45,1.51s-2,0-2.1,1.71.94,1.77.94,1.77a1.57,1.57,0,0,0-.47,1.91c.47,1.27,1.19,1,1.19,1s.51,0,.42.93.6,1.26,2,1.15c0,0,2.64,1.14,3.43.44l.29-8Z"/><path class="cls-30" d="M234.86,76.81A1.72,1.72,0,0,1,237,76c1.62.48,1.12,1.78,1.12,1.78s1.94.35,1.71,2.1-1.29,1.55-1.29,1.55a1.58,1.58,0,0,1,.07,2c-.72,1.15-1.37.71-1.37.71s-.51,0-.6.83-.84,1.11-2.15.72c0,0-2.82.58-3.45-.27l1.35-7.9Z"/><circle class="cls-31" cx="221.22" cy="79.02" r="1.85"/><circle class="cls-31" cx="234.94" cy="80.44" r="1.85"/><path class="cls-13" d="M229,69.87a7.13,7.13,0,0,0-6.35,2.7c-2.34,3.23-1.3,8.37-1,9.51a7.52,7.52,0,0,0,6,4.53c3.58.37,6-2.77,6.41-3.68s2.09-6.38.25-9.8A6.69,6.69,0,0,0,229,69.87Z"/><g class="cls-32"><path class="cls-33" d="M220.62,78.36s1.35-3.21,2.84-3.88a10.28,10.28,0,0,1,5.28-.41c2.06.21,4.23.74,4.81,1.24a7.77,7.77,0,0,1,1.89,4.5l1.72-9.53-11-2.29-3.76.49c-.08,0-2,2-2,2Z"/></g><ellipse class="cls-30" cx="228.88" cy="71.53" rx="2.44" ry="0.57" transform="translate(134.18 291.83) rotate(-84.09)"/><path class="cls-34" d="M223.37,77.9a1.29,1.29,0,0,1-.84-.39,1,1,0,0,0,.36.82S223.47,78.4,223.37,77.9Z"/><path class="cls-34" d="M223.2,78.39a1.31,1.31,0,0,1-.84-.38,1,1,0,0,0,.36.81S223.3,78.9,223.2,78.39Z"/><circle class="cls-28" cx="224.34" cy="79.62" r="2.14"/><path d="M224.52,79.07a1.51,1.51,0,0,0-.37,0,.59.59,0,0,1,.3.59.61.61,0,0,1-.66.54.6.6,0,0,1-.54-.59,1.44,1.44,0,0,0-.28.7,1.41,1.41,0,1,0,1.55-1.26Z"/><path class="cls-34" d="M233.22,78.85a1.3,1.3,0,0,0,.9-.21,1,1,0,0,1-.52.73S233,79.32,233.22,78.85Z"/><path class="cls-34" d="M233.28,79.37a1.3,1.3,0,0,0,.9-.21,1,1,0,0,1-.51.73S233.09,79.84,233.28,79.37Z"/><circle class="cls-28" cx="231.83" cy="80.4" r="2.14"/><path d="M232,79.85a1.51,1.51,0,0,0-.37,0,.6.6,0,0,1,.3.59.6.6,0,0,1-1.2,0,1.37,1.37,0,0,0-.28.69A1.41,1.41,0,1,0,232,79.85Z"/><path class="cls-35" d="M222.81,76a6.81,6.81,0,0,1,3.74.39S224.82,74.12,222.81,76Z"/><path class="cls-35" d="M230.47,76.83a6.81,6.81,0,0,1,3.74.39S232.47,74.91,230.47,76.83Z"/><ellipse class="cls-31" cx="227.98" cy="81.27" rx="0.68" ry="1.05" transform="translate(123.68 299.68) rotate(-84.09)"/><path class="cls-36" d="M227.8,82.93a3.12,3.12,0,0,0-1.49-.15,3.6,3.6,0,0,1-1.17.08,2.65,2.65,0,0,0,5.28.46,8.19,8.19,0,0,1-1.23-.3A2.68,2.68,0,0,0,227.8,82.93Z"/><path class="cls-14" d="M225.5,83.1a14.82,14.82,0,0,0,2.24.52,7.57,7.57,0,0,0,2.29-.16s-.48,2.09-2.34,1.89A2.37,2.37,0,0,1,225.5,83.1Z"/><g class="cls-37"><ellipse class="cls-28" cx="227.72" cy="83.05" rx="1" ry="2.1" transform="translate(121.68 301.01) rotate(-84.09)"/></g><path class="cls-38" d="M227.68,73.25s-5-.38-6.17,2.07"/><path class="cls-38" d="M227.59,72.13s-4,0-5.57,1.31"/><path class="cls-38" d="M227.7,71.06a11.06,11.06,0,0,0-4.49.88"/><path class="cls-38" d="M228.15,70.07a7.5,7.5,0,0,0-3.51.54"/><path class="cls-38" d="M229.9,73.48s5,.65,5.62,3.29"/><path class="cls-38" d="M230.23,72.4s3.93.78,5.18,2.43"/><path class="cls-38" d="M230.34,71.33a11,11,0,0,1,4.21,1.79"/><path class="cls-38" d="M230.1,70.27a7.49,7.49,0,0,1,3.32,1.24"/><circle class="cls-39" cx="234.74" cy="84.33" r="1.07"/><circle class="cls-40" cx="234.79" cy="82.85" r="0.31"/><circle class="cls-39" cx="234.87" cy="82.03" r="0.31"/><circle class="cls-39" cx="220.73" cy="82.88" r="1.07"/><circle class="cls-40" cx="220.78" cy="81.4" r="0.31"/><circle class="cls-39" cx="220.86" cy="80.58" r="0.31"/><path class="cls-41" d="M224.73,89.07a2.65,2.65,0,0,0,2.5,1.79A3.07,3.07,0,0,0,230,89c.09-.22-.27-.31-.36-.1a2.67,2.67,0,0,1-2.38,1.6A2.25,2.25,0,0,1,225.09,89a.19.19,0,0,0-.36.1Z"/><path class="cls-41" d="M225.55,90.12a1.67,1.67,0,0,0-.38,1,1.46,1.46,0,0,0,.11.55c0,.1.1.19.08.3a1.08,1.08,0,0,1-.13.29,1.19,1.19,0,0,0-.13.53,1.09,1.09,0,0,0,0,.31,1.34,1.34,0,0,1,.07.27c0,.15-.14.28-.21.4a.73.73,0,0,0-.12.45c0,.14.2.27.32.13a1.6,1.6,0,0,0,.23-.4c.09-.23-.27-.32-.36-.1a1,1,0,0,1-.14.24l.32.13c0-.27.27-.49.32-.76a1.23,1.23,0,0,0-.07-.46.87.87,0,0,1,.09-.61,1.1,1.1,0,0,0,.16-.46,2.21,2.21,0,0,0-.15-.5,1.21,1.21,0,0,1,.23-1.07c.15-.19-.12-.45-.27-.27Z"/><path class="cls-41" d="M226.32,90.58a2.12,2.12,0,0,0-.39,1.27,2.09,2.09,0,0,0,.13.66A.41.41,0,0,1,226,93c-.06.11-.12.21-.17.32a1.11,1.11,0,0,0,0,.65,2.08,2.08,0,0,1,.19.73c0,.44-.36.79-.13,1.23A.17.17,0,0,0,226,96a.24.24,0,0,0,.23-.31c0-.24-.4-.14-.36.1v0l0-.14,0,0,.16-.09h0l.16.09c-.1-.19,0-.42.08-.6a1.35,1.35,0,0,0,.1-.56,2.54,2.54,0,0,0-.16-.6.81.81,0,0,1,.11-.75,1,1,0,0,0,.2-.5,4.71,4.71,0,0,0-.16-.62,1.78,1.78,0,0,1,.32-1.3c.14-.19-.18-.38-.32-.18Z"/><path class="cls-41" d="M226.88,90.81a1.29,1.29,0,0,0-.16.72,1.53,1.53,0,0,0,.07.36.44.44,0,0,1,.05.15.35.35,0,0,1-.06.14,1.18,1.18,0,0,0,.05,1.32.19.19,0,0,0,.34,0l0-.07a.19.19,0,0,0-.36-.1l0,.08.34,0a.87.87,0,0,1-.18-.53,1.66,1.66,0,0,1,.21-.56c.09-.23,0-.4-.08-.62a.89.89,0,0,1,.1-.6c.11-.21-.21-.4-.32-.19Z"/><path class="cls-41" d="M227.35,91a1.36,1.36,0,0,1,.38,1,3.66,3.66,0,0,0,0,1.19c.05.18.12.34.17.52a.9.9,0,0,1-.05.58,1.12,1.12,0,0,0-.08.51,2.57,2.57,0,0,1,.08.62c0,.23.32.33.36.09l0-.12c0-.23-.33-.33-.36-.1l0,.13.36.09a1.52,1.52,0,0,0,0-.56,1.21,1.21,0,0,1,.08-.68,1.94,1.94,0,0,0-.16-1.18c-.13-.44.06-.89,0-1.35a1.71,1.71,0,0,0-.48-1c-.16-.17-.42.09-.26.27Z"/><path class="cls-42" d="M225.91,97.6a3.14,3.14,0,0,0,.63.45,1.65,1.65,0,0,0,.73.15,2.12,2.12,0,0,0,1.38-.45,4,4,0,0,1,.63-.53,1.87,1.87,0,0,1,1-.1c.25,0,.54.06.66.28s-.11.63-.37.81a5.08,5.08,0,0,1-2.55.63,9.25,9.25,0,0,1-1.58,0c-.75-.1-2.12-.38-2.47-1.17-.18-.41.15-.59.54-.6A2.37,2.37,0,0,1,225.91,97.6Z"/><path class="cls-41" d="M228.13,90.69a2.26,2.26,0,0,1,.34,1.13,2.18,2.18,0,0,0,0,.57c0,.17.15.32.18.5a.94.94,0,0,1-.07.52,1,1,0,0,0-.15.51,1.89,1.89,0,0,0,.18.52c.05.13.08.29.2.36a.2.2,0,0,0,.23,0,.2.2,0,0,0,.07-.16c0-.08,0-.17-.14-.18h0c-.24,0-.34.32-.1.35h0l-.14-.18v0l.05-.14v0l.22,0s-.05-.17-.06-.2l-.1-.27a.35.35,0,0,1,0-.3l.09-.2a1.2,1.2,0,0,0,0-.93,1.26,1.26,0,0,1-.13-.54,5.42,5.42,0,0,0,0-.57,3.11,3.11,0,0,0-.38-1c-.11-.21-.43,0-.32.19Z"/><path class="cls-41" d="M228.73,90.36a2.14,2.14,0,0,1,.35.75c.06.29,0,.59.06.88.07.51.55,1,.35,1.55-.09.23.27.32.36.1.23-.61-.25-1.11-.34-1.69,0-.31,0-.63-.07-.94a2.65,2.65,0,0,0-.38-.84.19.19,0,0,0-.33.19Z"/><path class="cls-15" d="M222.51,97.6a9.3,9.3,0,0,1,3,.41,7.37,7.37,0,0,0,3.69,0c.73-.17,2.76-.41,3.21.24a6.86,6.86,0,0,1,.61,3.68c-.25.77-1.23,1-2.35.79a20.7,20.7,0,0,0-4-.08,20.06,20.06,0,0,1-3.87.14c-1-.14-1.82,0-1.47-1.83S221.86,97.81,222.51,97.6Z"/><g class="cls-43"><path class="cls-12" d="M223.67,97.26c-.32,1-1,1.86-1.23,2.9a5.83,5.83,0,0,0-.14,1.5,4.78,4.78,0,0,0,.07.65c0,.21.28.8.11,1s0,.12.07.07a.35.35,0,0,0,.1-.31c0-.25-.13-.51-.18-.77a5.4,5.4,0,0,1,0-1.88,27.1,27.1,0,0,1,1.28-3.11c0-.07-.08-.09-.11,0Z"/><path class="cls-12" d="M224.46,97.63a7.6,7.6,0,0,0-.93,5.51c0,.07.12,0,.1,0a7.51,7.51,0,0,1,.92-5.42c0-.06-.06-.11-.09-.06Z"/><path class="cls-12" d="M225.44,97.72a5.57,5.57,0,0,0-1,2.75,5.27,5.27,0,0,0,.07,1.43,6.31,6.31,0,0,0,.23.88c0,.15.07.43.22.5a.06.06,0,0,0,.07,0,.09.09,0,0,0,0-.1.07.07,0,0,0-.06,0h0c-.07,0-.07.12,0,.11l-.25-.88q-.09-.33-.15-.66a5.63,5.63,0,0,1,0-1.36,5.53,5.53,0,0,1,1-2.57s-.05-.11-.09,0Z"/><path class="cls-12" d="M226.08,97.87c-1.13,1.55-.5,3.63-.17,5.34,0,.07.11,0,.1,0-.32-1.68-.95-3.73.16-5.25.05-.06,0-.11-.09-.06Z"/><path class="cls-12" d="M226.66,97.93a20.81,20.81,0,0,0,.07,5l.11,0,0-.12c0-.07-.12,0-.11,0l0,.12c0,.07.12,0,.11,0a20.56,20.56,0,0,1-.07-5c0-.07-.1-.07-.11,0Z"/><path class="cls-12" d="M227.64,97.77l0,2.87v2.09c0,.07,0,.77,0,.76a.05.05,0,1,0,0-.1h0a.07.07,0,0,0,0,0s0,.06,0,.09a.06.06,0,0,0,.07,0c.08-.09,0-.23,0-.34v-.79l0-1.52,0-3.1a.06.06,0,0,0-.11,0Z"/><path class="cls-12" d="M228.37,97.93a11.34,11.34,0,0,0,.3,1.52,10.59,10.59,0,0,1,.23,1.77,11.51,11.51,0,0,1-.05,1.66s-.18.8.07.63a.05.05,0,0,0,0-.05v0c0-.07-.12-.07-.11,0a.44.44,0,0,0,.07-.24l0-.12,0-.31c0-.24,0-.48,0-.72a10.79,10.79,0,0,0-.24-2.68,8,8,0,0,1-.29-1.44c0-.07-.11-.07-.11,0Z"/><path class="cls-12" d="M229,97.6a9.74,9.74,0,0,1,.83,3,18.42,18.42,0,0,1-.06,3.15c0,.06.09.06.11,0l.06-.17a.05.05,0,1,0-.1,0l-.07.17.11,0a16.7,16.7,0,0,0,0-3.39,10.21,10.21,0,0,0-.81-2.8c0-.06-.12,0-.1.06Z"/><path class="cls-12" d="M230,97.24a8.66,8.66,0,0,1,1.1,3.34,16.24,16.24,0,0,1-.14,3.62h.11v-.29a.06.06,0,0,0-.11,0v.29c0,.07.1.07.11,0a15.13,15.13,0,0,0,.11-3.86,8.82,8.82,0,0,0-1.09-3.15c0-.06-.12,0-.09,0Z"/><path class="cls-12" d="M230.89,97.4a8.69,8.69,0,0,1,1.19,3.14,12,12,0,0,1,.13,1.7c0,.28,0,.56,0,.83a1.43,1.43,0,0,1-.12.85l.1,0-.06-.16a.05.05,0,0,0-.1,0l.05.16a.06.06,0,0,0,.1,0,.89.89,0,0,0,.14-.55c0-.32,0-.63,0-1a15.22,15.22,0,0,0-.11-1.79A8.76,8.76,0,0,0,231,97.35c0-.06-.12,0-.09.05Z"/><path class="cls-44" d="M228.3,102a8.85,8.85,0,0,0-1.76.35,18.68,18.68,0,0,0-2.44.77c-.18.08-.38.2-.38.39s.31.34.55.36a57.16,57.16,0,0,0,8,.3,1.44,1.44,0,0,0,.65-.11.58.58,0,0,0,.36-.52c0-.36-.56-.47-.83-.58-.45-.18-.9-.37-1.36-.52A7,7,0,0,0,228.3,102Z"/><path class="cls-44" d="M225.8,97.92a1.18,1.18,0,0,0,.64.54,4.29,4.29,0,0,0,4.53-.74,1.15,1.15,0,0,0-.72-.3,16.59,16.59,0,0,0-3.52-.11,2.37,2.37,0,0,0-1.54.52"/></g><path class="cls-16" d="M224.46,87.43c.11,0,.78.6.69,1.91s.13,1.65-.35,2.69,0,2-.24,2.7a6.86,6.86,0,0,1-2.21,2.86,18.33,18.33,0,0,1,.16-4.69c.42-1.84,1-3.82.29-4.87A5.41,5.41,0,0,1,224.46,87.43Z"/><g class="cls-45"><ellipse class="cls-46" cx="223.84" cy="91.59" rx="0.85" ry="0.21" transform="translate(-12.83 41.77) rotate(-10.36)"/><ellipse class="cls-46" cx="223.78" cy="96.03" rx="0.85" ry="0.21" transform="translate(-13.63 41.83) rotate(-10.36)"/><ellipse class="cls-47" cx="224.06" cy="89.24" rx="0.85" ry="0.21" transform="translate(-12.4 41.77) rotate(-10.36)"/><ellipse class="cls-47" cx="223.45" cy="93.88" rx="0.85" ry="0.21" transform="translate(-13.24 41.73) rotate(-10.36)"/><ellipse class="cls-46" cx="223.52" cy="90.16" rx="0.19" ry="0.27"/><ellipse class="cls-46" cx="223.45" cy="91.01" rx="0.27" ry="0.19" transform="translate(87.56 290.37) rotate(-77.88)"/><ellipse class="cls-46" cx="223.1" cy="94.67" rx="0.19" ry="0.27" transform="translate(-14.5 46.88) rotate(-11.62)"/><ellipse class="cls-46" cx="224.16" cy="94.4" rx="0.19" ry="0.27" transform="translate(-14.42 47.09) rotate(-11.62)"/><ellipse class="cls-46" cx="223.37" cy="95.54" rx="0.27" ry="0.19" transform="translate(115.8 313.37) rotate(-86.88)"/><ellipse class="cls-46" cx="224.33" cy="95.22" rx="0.27" ry="0.19" transform="translate(117.03 314.03) rotate(-86.88)"/><ellipse class="cls-47" cx="223.06" cy="92.41" rx="0.27" ry="0.19" transform="translate(114.63 308.15) rotate(-85.82)"/><ellipse class="cls-47" cx="223" cy="93.3" rx="0.27" ry="0.19" transform="translate(113.69 308.9) rotate(-85.82)"/><ellipse class="cls-47" cx="224.06" cy="93.09" rx="0.27" ry="0.19" transform="translate(114.88 309.77) rotate(-85.82)"/><ellipse class="cls-47" cx="224.25" cy="92.21" rx="0.27" ry="0.19" transform="translate(115.94 309.14) rotate(-85.82)"/><ellipse class="cls-46" cx="224.6" cy="90.78" rx="0.27" ry="0.19" transform="translate(88.7 291.32) rotate(-77.88)"/><ellipse class="cls-46" cx="224.73" cy="89.94" rx="0.27" ry="0.19" transform="translate(115.44 305.92) rotate(-84.97)"/><ellipse class="cls-47" cx="223.37" cy="88.67" rx="0.19" ry="0.27" transform="translate(-11.65 38.43) rotate(-9.59)"/><ellipse class="cls-47" cx="223.17" cy="87.97" rx="0.19" ry="0.27" transform="translate(-11.53 38.39) rotate(-9.59)"/><ellipse class="cls-47" cx="224.66" cy="88.49" rx="0.19" ry="0.27" transform="translate(-11.6 38.65) rotate(-9.59)"/><ellipse class="cls-47" cx="224.49" cy="87.69" rx="0.19" ry="0.27" transform="matrix(0.99, -0.17, 0.17, 0.99, -11.47, 38.61)"/></g><path class="cls-16" d="M230.15,87.43c-.11,0-.78.6-.69,1.91s-.13,1.65.34,2.69,0,2,.24,2.7a5.31,5.31,0,0,0,1.93,2.5,11.74,11.74,0,0,0,.13-4.33c-.42-1.84-1-3.82-.29-4.87A5.41,5.41,0,0,0,230.15,87.43Z"/><g class="cls-48"><ellipse class="cls-46" cx="230.77" cy="91.59" rx="0.21" ry="0.85" transform="translate(99.15 302.12) rotate(-79.64)"/><ellipse class="cls-46" cx="230.83" cy="96.03" rx="0.21" ry="0.85" transform="translate(94.84 305.82) rotate(-79.64)"/><ellipse class="cls-47" cx="230.55" cy="89.24" rx="0.21" ry="0.85" transform="translate(101.29 299.97) rotate(-79.64)"/><ellipse class="cls-47" cx="231.16" cy="93.88" rx="0.21" ry="0.85" transform="translate(97.22 304.38) rotate(-79.64)"/><ellipse class="cls-46" cx="231.09" cy="90.16" rx="0.19" ry="0.27"/><ellipse class="cls-46" cx="231.16" cy="91.01" rx="0.19" ry="0.27" transform="translate(-13.95 50.55) rotate(-12.12)"/><ellipse class="cls-46" cx="231.51" cy="94.67" rx="0.27" ry="0.19" transform="translate(92.14 302.36) rotate(-78.38)"/><ellipse class="cls-46" cx="230.45" cy="94.4" rx="0.27" ry="0.19" transform="translate(91.57 301.11) rotate(-78.38)"/><ellipse class="cls-46" cx="231.24" cy="95.54" rx="0.19" ry="0.27" transform="translate(-4.86 12.74) rotate(-3.12)"/><ellipse class="cls-46" cx="230.28" cy="95.22" rx="0.19" ry="0.27" transform="translate(-4.85 12.69) rotate(-3.12)"/><ellipse class="cls-47" cx="231.55" cy="92.41" rx="0.19" ry="0.27" transform="translate(-6.12 17.13) rotate(-4.18)"/><ellipse class="cls-47" cx="231.61" cy="93.3" rx="0.19" ry="0.27" transform="translate(-6.19 17.13) rotate(-4.18)"/><ellipse class="cls-47" cx="230.55" cy="93.09" rx="0.19" ry="0.27" transform="translate(-6.17 17.06) rotate(-4.18)"/><ellipse class="cls-47" cx="230.36" cy="92.21" rx="0.19" ry="0.27" transform="translate(-6.11 17.04) rotate(-4.18)"/><ellipse class="cls-46" cx="230.01" cy="90.78" rx="0.19" ry="0.27" transform="translate(-13.93 50.31) rotate(-12.12)"/><ellipse class="cls-46" cx="229.88" cy="89.94" rx="0.19" ry="0.27" transform="matrix(1, -0.09, 0.09, 1, -7, 20.49)"/><ellipse class="cls-47" cx="231.24" cy="88.67" rx="0.27" ry="0.19" transform="translate(105.3 301.92) rotate(-80.41)"/><ellipse class="cls-47" cx="231.44" cy="87.97" rx="0.27" ry="0.19" transform="translate(106.16 301.52) rotate(-80.41)"/><ellipse class="cls-47" cx="229.95" cy="88.49" rx="0.27" ry="0.19" transform="translate(104.4 300.5) rotate(-80.41)"/><ellipse class="cls-47" cx="230.12" cy="87.69" rx="0.27" ry="0.19" transform="translate(105.33 300) rotate(-80.41)"/></g><path class="cls-49" d="M225,97.28a2.27,2.27,0,0,0,1.13,1.9c.28.17.6.27.87.44a3.89,3.89,0,0,1,.88.93,3,3,0,0,0,.9.9,1.14,1.14,0,0,0,1.22,0,1.1,1.1,0,0,0,.39-.84,3.36,3.36,0,0,0-.15-.94L230,98.57a2.87,2.87,0,0,0-.35-.91,2.52,2.52,0,0,0-1.49-.87,3,3,0,0,0-2.88.44"/><path class="cls-13" d="M225.57,97.26a1.86,1.86,0,0,0-1.1,1.33,2.31,2.31,0,0,0,.08.74l.13.59a.77.77,0,0,0,.08.19.43.43,0,0,0,.17.13,2.34,2.34,0,0,0,2.08,0,2.31,2.31,0,0,0,1.21-1.68,1.53,1.53,0,0,0-.15-1,1.59,1.59,0,0,0-.59-.56,1,1,0,0,0-.84-.14c-.26.1-.45.4-.74.38a.43.43,0,0,0-.16,0c-.05,0-.08.1,0,.13"/><path class="cls-1" d="M231.81,88s3.76,3.78,4,7.4-1.34,6.79-5.81,5.81a4.94,4.94,0,0,0-4.05-3.64c-3.27-.37,3.93-3.07,5.54-2.66C231.45,94.94,230.2,88.75,231.81,88Z"/><g class="cls-50"><path class="cls-28" d="M233.42,86.64s-2.77,1.25-1.72,8.37l-1.58-.6.45-7.14Z"/><g class="cls-18"><path class="cls-12" d="M232.86,88a6.78,6.78,0,0,0-.73,3.7c.08,1.34,1.13,4.18-1,4.35-.65,0-1.29-.06-2,0a4.05,4.05,0,0,0-1.78.63,3.52,3.52,0,0,0-1.47,2.69c0,.07.1.07.11,0a3.39,3.39,0,0,1,2.68-3.13,11.11,11.11,0,0,1,2.23-.09,1.57,1.57,0,0,0,1.25-.49c.77-.92.24-2.27.12-3.31A7.06,7.06,0,0,1,233,88c0-.07-.06-.12-.09-.06Z"/></g><g class="cls-18"><path class="cls-12" d="M233,89a7.11,7.11,0,0,0-.11,3.91c.25,1.39.66,3.63-.84,4.51-1.13.66-2.56-.12-3.68.58a2.22,2.22,0,0,0-.88,1.06c-.08.2-.28.79-.12,1,0,0,.09,0,.09,0a.12.12,0,0,0-.05-.11s-.12,0-.07.08.18-.68.15-.57a2.26,2.26,0,0,1,.19-.49,2.09,2.09,0,0,1,.62-.73,3.21,3.21,0,0,1,2.09-.39,2.37,2.37,0,0,0,2.5-1.16,5.27,5.27,0,0,0,.21-3.19,8,8,0,0,1,0-4.41c0-.07-.08-.09-.11,0Z"/></g><g class="cls-18"><path class="cls-12" d="M233.71,89.21c-.79,1.14-.33,2.65-.06,3.89.36,1.62.74,3.56-.37,5a2.49,2.49,0,0,1-2.13,1,4.7,4.7,0,0,0-2.08,0,2.17,2.17,0,0,0-1.22,2.65.05.05,0,1,0,.1,0,2.08,2.08,0,0,1,1-2.44c.79-.41,1.59-.1,2.42-.12a2.76,2.76,0,0,0,2.33-1.6,5.61,5.61,0,0,0,.26-3.55c-.26-1.48-1.11-3.44-.16-4.82,0-.06-.05-.11-.09-.05Z"/></g><g class="cls-18"><path class="cls-12" d="M234.32,90.49c-.65,1.13-.3,2.38,0,3.56.44,1.57.72,3.38-.26,4.81s-2.53,1.44-4,1.34a2.08,2.08,0,0,0-1.39.23,1.68,1.68,0,0,0-.57,1.36.06.06,0,0,0,.11,0,1.44,1.44,0,0,1,.61-1.3,2,2,0,0,1,1.24-.18,7.67,7.67,0,0,0,1.66,0,3.35,3.35,0,0,0,2.6-1.68,5.09,5.09,0,0,0,.37-3.46c-.28-1.5-1.15-3.14-.31-4.61,0-.06,0-.11-.09-.05Z"/></g><g class="cls-18"><path class="cls-12" d="M235.19,92c-.44,1.33-.05,2.67.06,4a5.45,5.45,0,0,1-1.26,4.22,3.87,3.87,0,0,1-1.78,1.08c-.62.16-1.28.09-1.9.28a3.75,3.75,0,0,0-2.09,2.05c0,.06.07.11.1,0a4.23,4.23,0,0,1,1.23-1.58,4.28,4.28,0,0,1,2.22-.61,4,4,0,0,0,2.59-1.54,5.39,5.39,0,0,0,1-3.34c0-1.54-.59-3.07-.09-4.59a.05.05,0,1,0-.1,0Z"/></g><path class="cls-51" d="M229,95.11a5.39,5.39,0,0,1,4.72,1.43,4.89,4.89,0,0,0-4.42-1.9Z"/></g><rect class="cls-52" x="222.12" y="97.75" width="0.25" height="8" rx="0.13" transform="matrix(0.61, 0.79, -0.79, 0.61, 167.96, -136.58)"/><path d="M218.73,103.58c.2,0,1.5.16,2,.22a.09.09,0,0,1,.05.17l-1.53,1.22a.06.06,0,0,1-.07,0l-2.78-.28a.1.1,0,0,1,0-.18l2.3-1.16Z"/><path class="cls-53" d="M218.69,103.59a2.89,2.89,0,0,1,1.32-.29c.54.08.85.26.83.6Z"/><path class="cls-3" d="M215,113.89c-.54-.12-8.45,1.32-8.45,1.32l-1,1-1.59.23-1.72,4.25-.42,3.73-1.72,1.7.64.82,5.89,1.17,5.78-4.48,3.44-3.72Z"/><g class="cls-54"><path class="cls-55" d="M197.77,122.49l3.49-2.11,1.23.63,1.29.54,4-3.65s-6.27-6.07-6.5-6.07-3.61,4.41-3.61,4.41Z"/><path class="cls-56" d="M202.52,112.48s3.69,1.18,3.69,1.18l1.55,4.24-4,3.65-.77,3-2.3,2.4s-.69,4.72,0,4.63,9.94-.33,9.94-.33,4.2-15.66,4.55-15.65S202.52,112.48,202.52,112.48Z"/><path class="cls-57" d="M202.18,114.83c.13.25,2.32,2.35,2.32,2.35l3.26.72,2.13-.11-5.38-1.94Z"/><path class="cls-58" d="M205.42,112.26c0,.16.1,4,.1,4l5,2,4.16-1.16L205.4,112"/><polygon class="cls-55" points="200.79 123.42 202.54 125.09 200.18 127.58 198.58 125.56 200.79 123.42"/></g><path class="cls-3" d="M215.68,125.51l17.39,1.27,3.39.43,2.6-1.07-3.42-8.3-3.73-.79-2.46-2.7-12.21-.29-4.65,3.14L211,122.84S209.45,126.25,215.68,125.51Z"/><g class="cls-59"><polyline class="cls-60" points="224.67 112.4 228.82 118.1 222.41 121.11 218.2 114.15 224.67 112.4"/><path class="cls-61" d="M235.54,128c-.09-.26-2.47-8.78-2.47-8.78l4.35-2.17,5.77,7.85Z"/><path class="cls-62" d="M242.56,114.06c-.49.43-9.49,5.16-9.49,5.16l-4.25-1.12,5.26-2.09Z"/><path class="cls-63" d="M235.64,107.43a3,3,0,0,1-.09.36c-.58,1.84-3.64,9.26-3.64,9.26l-3.09,1-5.46-3.35"/><polygon class="cls-64" points="227.28 128.77 234.9 128.34 237.35 129.03 233.07 119.22 228.82 118.1 223.36 120.76 227.28 128.77"/></g><g class="cls-65"><path class="cls-66" d="M249,82c-.32-2.12-2.48-16.7-3.23-18.74a.55.55,0,0,0-.18-.29.81.81,0,0,0-.49-.1l-4.53.1c-.41,0-.9,0-1.1.36s1.4,13.17,1.56,13.47a12.34,12.34,0,0,1,.64,10.57c-1.72,4.28-5.86,7.93-5.89,12.45,0,3.11,2,6.11,1.48,9.19a7.41,7.41,0,0,1-5.7,5.64c-2.41.58-5,.16-7.47.14s-5.31.54-6.59,2.38l.12.22c-1.2,1.18-.74,3.12.51,4.27a11.9,11.9,0,0,0,4.77,2.2,7.39,7.39,0,0,0,3.28.43,17.72,17.72,0,0,0,2.19-.77c3.29-1.09,6.81.74,10.3,1.14a4.29,4.29,0,0,0,2.62-.35,1.3,1.3,0,0,0,.43-2c-.66-.59-1.78-.34-2.73-.3-1.51,0-2.93-.56-4.43-.7-2.72-.26-5.53,1-8.12.29a1.67,1.67,0,0,1-.67-.32c-.69-.59,0-1.69.94-1.9a6.18,6.18,0,0,1,2.84.36,13.29,13.29,0,0,0,9.34-1,8.38,8.38,0,0,0,4.65-6.92c0-1.77-.66-3.49-.78-5.26-.2-3,1.24-5.9,2.56-8.69C247.69,92.83,249.79,87.43,249,82Zm-18.18,36a6.4,6.4,0,0,0-.66-.23c-.33,0-.66,0-1,0-2.79-.06-5.5,1.3-8.24.87-.31,0-.7-.21-.64-.46s.38-.29.65-.32l2.32-.25a17.74,17.74,0,0,1,6.9.2,3.09,3.09,0,0,0,1.1-.16Zm12.13-22.86L239.43,102c-.4,0-.56-.44-.56-.77,0-3.69,3.1-6.84,4.56-10.33a12.18,12.18,0,0,0,.34-8.49l.38,0c0-.25.43-.39.69-.24a1,1,0,0,1,.42.67,14.22,14.22,0,0,1-.27,7.76A30.92,30.92,0,0,1,242.94,95.17Z"/></g><path class="cls-5" d="M208.36,117.82a18.92,18.92,0,0,1-2.71,4c-1.55,1.67-3.29,2-3.31,3.36s-.5,1.12,2,2.28,7.58,1.25,7.58,1.25,4.33,0,8-.07,7.18-.4,7.18-.4L229.8,127s-2.46-5.89-2.65-6.06-2.26-2.2-2.26-2.2l-2.71-1.68-11.08-.24Z"/><g class="cls-67"><path class="cls-6" d="M198.34,122.88c0,.14,9.14.34,9.14.34l17.85,2.06s3.24,4.28,2.82,4.39S198,128.43,198,128.43Z"/><g class="cls-68"><path class="cls-3" d="M226.62,119.11c-.89.44-6.9,6.2-6.9,6.2L215,128.7l16.31.88Z"/></g><path class="cls-69" d="M231.76,123.1c-.27,0-9.82-.32-9.82-.32l-2.22,2.53L224,127.1l10.76-.93Z"/><path class="cls-69" d="M198.28,122.58l5.49,2.44,1.28,1.55,5.61,1,3.62-.2.89.54,2.23-.32,6.61-.5s6.59,2.21,5.91,2.12-30.31.65-30.31.65Z"/><path class="cls-70" d="M201.31,120a24.33,24.33,0,0,0-.39,3.62,22.51,22.51,0,0,0,2.68,1.87l2.21-.89Z"/><path class="cls-71" d="M202.4,122.71c-.09,0,3.41,1.86,3.41,1.86l6.92.55,4.86.31,2.13-.12,2.22-2.53L220,113l-14.95.11Z"/><path class="cls-72" d="M231.63,120c-.45,0-1.61-.89-1.74-.88s-4.58,2.48-4.58,2.48l-1.13,1.4-1.38,1.59.89,2.4,3.74,1.66,4.67-.93Z"/><polygon class="cls-73" points="227.47 114.86 218.87 116.38 218.57 118.34 220.86 120.17 221.94 122.78 224.18 122.97 225.31 121.57 229.41 120.01 227.47 114.86"/><path class="cls-74" d="M206.6,117.41c.3-.16,6.48,1,6.48,1l3.2.09,2.29-.17,4.79-1.65-11-2.67Z"/></g><path class="cls-75" d="M232.54,109.05s.3-.07,0,.45a1.51,1.51,0,0,0,.41-.1c0-.05.2-.73.2-.73l-.57-.18Z"/><path class="cls-76" d="M206.41,107.49s.1-.52,1.09-.84a2.73,2.73,0,0,1,1.66-.22,6.9,6.9,0,0,1,.76.49l1.23-.47-2.09-.55-1.37.19-1.06.52-.5.52.14.37Z"/><path class="cls-7" d="M206.92,109.5a2.88,2.88,0,0,1-1.15-1.47c-.21-.87.28-1.42,1.33-1.86a4.68,4.68,0,0,1,2.49-.34c.52.08,2.08.49,2.08.49l-1.22.63,0-.46a3.29,3.29,0,0,0-2-.35c-1.06.2-2,.72-2.05,1.08s.62,1,1,1.18Z"/><g class="cls-77"><path class="cls-75" d="M205.62,106.78a2.78,2.78,0,0,0,1.7,2.53,4.29,4.29,0,0,1-.43.42s-1.06-.11-1.07-.13-.32-1.13-.31-1.21S205.62,106.78,205.62,106.78Z"/></g><path class="cls-8" d="M231.31,108.89c0-1.78-5.59-3.22-12.5-3.22s-12.5,1.44-12.5,3.22V109a11.32,11.32,0,0,0,1.52,4.52h0c.83,1.37,5.43,2.41,11,2.41s10.14-1,11-2.41h0A7.6,7.6,0,0,0,231.31,108.89Z"/><g class="cls-78"><path class="cls-79" d="M205.06,110.14s1.62,4.4,13.51,4.4,13-3.44,13-3.44l.23,5.06-21.11,1L203.94,114Z"/></g><ellipse class="cls-9" cx="218.81" cy="109.02" rx="11.9" ry="3.06"/><path class="cls-80" d="M207.46,107.71s2.37-1.55,8.23-1.82"/><path class="cls-80" d="M207.07,109.76s1.5,2.49,12.5,2.46"/><path class="cls-75" d="M231.32,108.8s1.33-.58,1.51-.13-.93,2-1.74,2.11-2.42.5-2.42.5a1.47,1.47,0,0,0,0,.92c.18.36,2-.23,2.92-.81a3.27,3.27,0,0,0,1.68-2.5C233.41,107.7,231.32,108.8,231.32,108.8Z"/><path class="cls-75" d="M231.32,108.8l0,.77s1.47-.86,1.8-.43C233.07,109.14,233.61,107.86,231.32,108.8Z"/><path class="cls-75" d="M228.67,111.28s.85-.45,1.1-.62a13.21,13.21,0,0,1,1.77-.32,1.44,1.44,0,0,0,1.13-1.28l.29-.15-.42,1.2-1.13,1-1.3.27Z"/><ellipse class="cls-4" cx="218.81" cy="109.02" rx="11.9" ry="3.06"/><ellipse class="cls-81" cx="217.72" cy="109.44" rx="0.28" ry="0.08"/><ellipse class="cls-82" cx="221" cy="111.71" rx="0.42" ry="0.07"/><ellipse class="cls-9" cx="218.81" cy="109.02" rx="11.9" ry="3.06"/><g class="cls-83"><path class="cls-84" d="M230.56,110l0-.1a.84.84,0,0,0-.49-.85,7.68,7.68,0,0,0-1-.34c-.81-.31-1.48-1.07-2.35-1.08-.27,0-.53.07-.79.09-1.1.11-2.15-.57-3.26-.59-.57,0-1.13.16-1.69.2l-.78,0a9.44,9.44,0,0,0-1.82-.23,7.14,7.14,0,0,0-1.19.23l-1.51.08c-.24,0-.48-.11-.72-.14a5.9,5.9,0,0,0-2.1.41c-1,.26-2.05.31-3.06.54a4.17,4.17,0,0,0-2.62,1.53l-.09.13,0,.06L207,110h0a1,1,0,0,0-.09.4c0,1.76,5.32,3.18,11.89,3.18s11.89-1.42,11.89-3.18A1,1,0,0,0,230.56,110Z"/><path class="cls-85" d="M211,108.11a.36.36,0,0,0-.18,0c-.06,0-.11.09-.08.14a.15.15,0,0,0,.07.05,1.89,1.89,0,0,0,.88.1,7.93,7.93,0,0,0,1.29-.24l1.6-.4a.68.68,0,0,0,.38-.18,1.11,1.11,0,0,0-.74-.11,3.86,3.86,0,0,0-.73.23,8.08,8.08,0,0,1-2.34.44Z"/><path class="cls-86" d="M221.26,107.63c-.31.09-.63,0-.95,0h-.05a.08.08,0,0,0,0,.12.5.5,0,0,0,.13,0,1,1,0,0,1,.38.1.92.92,0,0,0,.29.11.79.79,0,0,0,.55-.22l.22-.17,0,0a.07.07,0,0,0-.05-.1s-.08,0-.12,0a1.66,1.66,0,0,0-.37.14"/><path class="cls-86" d="M216.54,107.65a6.63,6.63,0,0,0,.89,0,.26.26,0,0,1,.15,0,.76.76,0,0,1-.54.21,1.7,1.7,0,0,1-.59-.1s-.06,0-.07-.05a0,0,0,0,1,0-.06,0,0,0,0,1,.07,0"/><path class="cls-86" d="M228.08,110.61a10.51,10.51,0,0,0-1.37.09,5.12,5.12,0,0,1-1.3-.06c0,.14.18.2.32.23a3.37,3.37,0,0,0,1.09.14c.21,0,.42-.07.64-.1s.4,0,.6,0a.88.88,0,0,0,.53-.27.47.47,0,0,0-.4,0"/><path class="cls-86" d="M228.12,108.68a5.58,5.58,0,0,0-.81.18.35.35,0,0,0-.14.06.13.13,0,0,0,0,.14c0,.06.07.09.13.11a3.24,3.24,0,0,0,1.28.09.49.49,0,0,0,.27-.06.17.17,0,0,0,.08-.23c0-.07-.14-.08-.23-.07a.65.65,0,0,1-.24,0,.19.19,0,0,1,.17-.17.33.33,0,0,0-.29-.06"/><path class="cls-85" d="M217.75,107.33a2.43,2.43,0,0,1,1.51,0,.84.84,0,0,1,.31.08.41.41,0,0,1,.2.23,2.57,2.57,0,0,1-.73,0,4.68,4.68,0,0,1-1.24-.07.2.2,0,0,1-.14-.1"/><path class="cls-85" d="M223.52,107.39a.7.7,0,0,0-.51-.09s-.09,0-.09.07a.08.08,0,0,0,0,0,.55.55,0,0,0,.32.16,3.87,3.87,0,0,0,1,.16.13.13,0,0,0,0-.12.28.28,0,0,0-.11-.08,1.73,1.73,0,0,0-.55-.15"/><path class="cls-85" d="M220.46,109.38l-.29-.22a.31.31,0,0,0-.1,0s-.08,0-.08.06,0,0,0,.06a1.13,1.13,0,0,0,.42.39s.13,0,.17,0a.19.19,0,0,0-.12-.24"/><path class="cls-10" d="M223,110.82a.43.43,0,0,0-.09.32,13.74,13.74,0,0,0,3.58,0c.82-.2,0-1.1,0-1.1l-2.55.54Z"/><path class="cls-87" d="M223.22,110.66a12.39,12.39,0,0,1,2.53-.73c.55,0,.87,0,.63.22a11,11,0,0,1-2.85.71C223,110.86,222.79,110.93,223.22,110.66Z"/><ellipse class="cls-88" cx="225.37" cy="110.13" rx="0.41" ry="0.11" transform="translate(-12.43 30.3) rotate(-7.49)"/><path class="cls-10" d="M216.61,110.34a.9.9,0,0,0-.15.67c.1.31,2.59.4,2.78.36s.9-.25,1.08-.59-.17-.67-.17-.67l-2.2,0Z"/><g class="cls-89"><path class="cls-90" d="M218.68,109.88s.9,1,.43,1.8l1.66-.14s-.3-1.4-.3-1.4l-.21-.25-1.76-.25.18.24"/></g><path class="cls-87" d="M218,109.83a9.76,9.76,0,0,1,2.11.23c.45.19-.61.57-1,.57s-2.83-.12-2.43-.32A4.58,4.58,0,0,1,218,109.83Z"/><path class="cls-10" d="M211.38,109.62a8.13,8.13,0,0,0-.2,1c0,.38,1.5,1,1.9.93a6.3,6.3,0,0,0,2.32-.92c.34-.36-.39-1-.39-1l-2.8,0Z"/><g class="cls-91"><path class="cls-11" d="M212.85,108.89a13.32,13.32,0,0,0,.14,1.43c.07.3.28,1.06.07,1.32l.85.2,2.06-.16-.37-2.4Z"/></g><path class="cls-87" d="M211.64,109.52s.94-.18,1.53-.31,1.35.3,1.79.39-1.57.69-2,.72S210.71,109.67,211.64,109.52Z"/><path class="cls-11" d="M224.31,107.86a4.74,4.74,0,0,0-.27.61c-.07.23,1,.65,1.77.63a1.16,1.16,0,0,0,1-.79c0-.06.1-.78-.07-.88l-1.73.41Z"/><g class="cls-92"><path class="cls-10" d="M223.9,107.23l-.2,1.63,2.25.6a1.48,1.48,0,0,0-.22-1.41,5.4,5.4,0,0,1-.83-1.15Z"/></g><path class="cls-87" d="M224.46,107.76a3.57,3.57,0,0,0,.86-.61s0-.06.2,0,1,.23,1.16.26a.11.11,0,0,1,.07.2s-.27.55-.58.71-.37.13-.81.06S223.92,108,224.46,107.76Z"/><ellipse class="cls-88" cx="225.75" cy="107.38" rx="0.11" ry="0.39" transform="translate(88.76 316.49) rotate(-82.21)"/><ellipse class="cls-88" cx="225.27" cy="107.56" rx="0.08" ry="0.27" transform="translate(88.18 316.17) rotate(-82.21)"/><path class="cls-10" d="M219.18,108.55s-.2.51-.06.73,1.67.17,2,.19a2.85,2.85,0,0,0,1.52-.23c.38-.28.1-.84.1-.84l-3.16.09Z"/><g class="cls-93"><path class="cls-11" d="M222.11,107.94s.88.93.22,1.77l.75-.34,0-1.32-.28-.26Z"/></g><path class="cls-87" d="M220.5,108.17a9.61,9.61,0,0,1,2.21.18c.25.2-.4.34-1.48.33s-2.52,0-1.92-.2A4.44,4.44,0,0,1,220.5,108.17Z"/><path class="cls-10" d="M214.54,107.72a2.74,2.74,0,0,0-.1.62c0,.21,1.11.26,1.7.28a4.48,4.48,0,0,0,1.62-.18c.17-.13-.13-.69-.13-.69s-1-.11-2-.14S214.54,107.72,214.54,107.72Z"/><path class="cls-87" d="M215.34,107.36a4.53,4.53,0,0,0-.8.36,11.91,11.91,0,0,0,3.09,0,1.6,1.6,0,0,0-.73-.34A12.84,12.84,0,0,0,215.34,107.36Z"/><ellipse class="cls-88" cx="215.67" cy="107.51" rx="0.2" ry="0.05"/><ellipse class="cls-88" cx="216.73" cy="107.63" rx="0.1" ry="0.41" transform="translate(103.15 321.3) rotate(-88.42)"/><path class="cls-10" d="M210.13,108.13a1.34,1.34,0,0,0-.08.64c.07.23.77.34,1.2.35a3.17,3.17,0,0,0,1.37-.25c.22-.16-.16-.77-.16-.77Z"/><path class="cls-87" d="M211.24,107.78a2.69,2.69,0,0,1,1.14.24c.45.26-1.2.4-1.52.36s-1.09-.1-.54-.38A1.53,1.53,0,0,1,211.24,107.78Z"/><path class="cls-84" d="M210.89,110.24s.24-.16.7.34.91.26,1.44.31.56.26,1,0,.34-.39.83-.54.51-.39.74-.26.46.67.36.76l-.46.4-1.67.46s-.54,0-.92,0-2-.29-2-.29a.45.45,0,0,1-.07-.33A8.47,8.47,0,0,0,210.89,110.24Z"/><path class="cls-84" d="M216.09,110.82a1.69,1.69,0,0,1,1,.16,2.49,2.49,0,0,0,1.62.21,5,5,0,0,1,1-.17.58.58,0,0,0,.49-.28c.11-.17.06-.29.21-.33s.43.23.43.23l-.23.57-1.21.33c-.09,0-.67,0-.87,0s-1.69,0-1.86,0-.37,0-.49-.05-.33-.23-.33-.28A5.18,5.18,0,0,1,216.09,110.82Z"/><path class="cls-84" d="M222.53,111.15a1.77,1.77,0,0,1,1,0,1.78,1.78,0,0,0,1.23,0,4.85,4.85,0,0,1,1.13-.21c.51,0,.83,0,.87,0a1.42,1.42,0,0,1,.3-.25c.06,0,.4.3.4.3s-.21.42-.53.49-3.32.18-3.32.18l-.7,0C222.7,111.54,222.53,111.15,222.53,111.15Z"/><path class="cls-84" d="M209.9,108.55a2.48,2.48,0,0,1,.6.19,1.33,1.33,0,0,0,1.07,0c.43-.12.49,0,.81,0s.15-.26.6-.2.86-.2,1.41-.32a2.32,2.32,0,0,1,1.25.15,1.13,1.13,0,0,0,.87,0,2.8,2.8,0,0,1,1.15-.12c.1,0,.17,0,.28,0s.78.24.73.45.31.44.31.44,0-.19.88,0a3.23,3.23,0,0,0,1.8.08,3.13,3.13,0,0,1,.91-.16c.08,0,.13-.28.39-.24a4.15,4.15,0,0,1,.62.17l.09-.59a1.63,1.63,0,0,1,1,.29,1.2,1.2,0,0,0,1.2.12c.17-.08.09-.19.4-.16s.31-.09.44-.32.12-.39.27-.31.15.5.14.53a5.3,5.3,0,0,1-.38.75c-.08.1-.33.2-.92.31l-.93.18-2.15.24-2.06,0c-.3,0-.87,0-1.41-.11l-1.29-.15-1-.14-2.73-.33-1.37,0-2,.19s-1-.18-1-.2-.45-.31-.45-.31Z"/><ellipse class="cls-82" cx="222.31" cy="110.2" rx="0.28" ry="0.05"/><ellipse class="cls-82" cx="223.64" cy="108.65" rx="0.28" ry="0.05"/><ellipse class="cls-82" cx="216.04" cy="109.07" rx="0.64" ry="0.08"/><ellipse class="cls-82" cx="228.23" cy="109.55" rx="0.64" ry="0.08"/><ellipse class="cls-82" cx="209.68" cy="109.61" rx="0.64" ry="0.08"/><path class="cls-81" d="M210.35,110.1l-.09,0a.18.18,0,0,0-.11,0s0,0,0,0l.08,0h-.12s-.07,0-.08,0,0,0,.08.06h.14s-.09,0-.07.08.05,0,.08,0,.16,0,.18-.06,0,0,0,0h.1l.1,0s0,0,0,0a.44.44,0,0,0,.2,0l.08,0s0-.06-.05-.07a.43.43,0,0,0-.16,0,.23.23,0,0,0,.11,0s0-.05,0-.07a.24.24,0,0,0-.12,0l-.11,0s0-.06,0-.07-.12,0-.12,0,0,0-.08,0-.08,0-.06,0"/><path class="cls-81" d="M215.18,110.68a.54.54,0,0,0-.19-.07c-.07,0-.17,0-.19,0s0,.06.06.08a.45.45,0,0,0,.16,0h-.22a.19.19,0,0,0-.16.07s.07.1.15.11a1.22,1.22,0,0,0,.27,0c-.08,0-.17.1-.13.16a.29.29,0,0,0,.14.05.4.4,0,0,0,.34-.11s0,.07.08.09a.39.39,0,0,0,.19,0,.38.38,0,0,0,.19,0s0-.08,0-.1a1,1,0,0,0,.38,0l.15,0s0-.12-.1-.14a.94.94,0,0,0-.29,0,.31.31,0,0,0,.19-.1s0-.11-.07-.13a.36.36,0,0,0-.23,0,.68.68,0,0,0-.2.07c.08,0,0-.12-.06-.14s-.21,0-.22.08-.06-.09-.15-.09-.15.07-.11.11"/><path class="cls-81" d="M213.81,108.25a.29.29,0,0,0-.1,0s-.09,0-.1,0,0,0,0,0l.09,0h-.12s-.08,0-.09,0,0,0,.08.06a.75.75,0,0,0,.15,0c-.05,0-.1,0-.07.07a.08.08,0,0,0,.07,0,.22.22,0,0,0,.19-.06s0,0,0,0h.1a.18.18,0,0,0,.1,0s0,0,0,0a.4.4,0,0,0,.19,0s.07,0,.09,0,0,0,0-.07h-.16a.12.12,0,0,0,.1,0s0,0,0-.06a.16.16,0,0,0-.12,0l-.1,0s0-.06,0-.07-.11,0-.12,0,0,0-.08,0-.08,0-.06.06"/><path class="cls-81" d="M218.81,107.9l-.1,0s-.09,0-.1,0,0,0,0,0l.09,0h-.12a.11.11,0,0,0-.09,0s0,0,.08,0a.75.75,0,0,0,.15,0c-.05,0-.1,0-.07.08l.07,0a.22.22,0,0,0,.18,0s0,0,0,0l.1,0a.35.35,0,0,0,.11,0s0,0,0,0a.64.64,0,0,0,.2,0l.08,0s0-.06-.05-.07a.38.38,0,0,0-.15,0l.1,0a.05.05,0,0,0,0-.07h-.12l-.11,0s0-.06,0-.07-.12,0-.12,0,0,0-.08,0-.08,0-.06.06"/><path class="cls-81" d="M224.86,109.23l-.15,0c-.06,0-.14,0-.15,0s0,0,.05,0h-.05c-.07,0-.12,0-.13,0s0,0,.12,0h.22c-.07,0-.15,0-.11,0l.12,0a.51.51,0,0,0,.28,0s0,0,.06,0h.31s0,0,0,0a1.37,1.37,0,0,0,.3,0l.13,0s0,0-.08,0h-.25a.28.28,0,0,0,.16,0s0,0-.06-.05h-.18l-.17,0c.07,0,0,0-.05,0a.26.26,0,0,0-.18,0s0,0-.12,0-.12,0-.09,0"/><path class="cls-81" d="M222.05,110.91l-.1,0s-.09,0-.1,0,0,0,0,0l.09,0h-.12s-.08,0-.08,0,0,.05.08.06H222s-.09,0-.07.08.05,0,.08,0a.24.24,0,0,0,.18-.06s0,0,0,0h.1l.1,0s0,0,0,0a.44.44,0,0,0,.2,0l.08,0s0-.06-.05-.07a.43.43,0,0,0-.16,0,.15.15,0,0,0,.1-.05s0,0,0-.07a.24.24,0,0,0-.12,0l-.1,0s0-.06,0-.07a.12.12,0,0,0-.12.05s0-.05-.07-.05-.08,0-.06.05"/></g><g class="cls-94"><path class="cls-66" d="M239.8,65.87c-.33-.87-.93-1.79-1.65-1.6-.87.23-1,1.76-.91,2.91.21,2,.66,4,.72,6.08s-.36,4.26-1.56,5.58A16.53,16.53,0,0,0,235,80.29a8,8,0,0,0-1,4.11c-.11,2.1-.21,4.2-.32,6.3-.06,1-.2,2.26-.9,2.75s-1.61-.09-2.43,0c-1.31.14-2.14,2-2.23,3.72s.29,3.42.3,5.13a4,4,0,0,1-1,3.08c-.83.65-2,.11-2.52-.93a5.6,5.6,0,0,1-.3-3.65c.18-.82.47-1.59.57-2.43.24-1.95-.55-4,0-5.86.84-2.92,4.2-3,5.62-5.46,1.13-2,.65-4.78.86-7.25.23-2.7,1.31-5.12,2.19-7.58s1.59-5.24,1-7.85c-1.39-.41-3-.75-4.1.43-1,1-1.15,2.78-1.21,4.39-.17,5,.4,10.38-1.25,15-.49,1.36-1.61,2.77-2.62,2.07-.68-.47-.85-1.61-.87-2.61a18.26,18.26,0,0,1,1-6.32,38,38,0,0,0,1.43-4.09,16.24,16.24,0,0,0,.26-3.82,10.29,10.29,0,0,0-.65-3.87c-.52-1.15-1.57-2-2.56-1.65a.91.91,0,0,0-.47.36,2.14,2.14,0,0,0,0,1.58,28.72,28.72,0,0,1,1,6.42,11.82,11.82,0,0,1-1.42,6.17,9.53,9.53,0,0,0-1.09,1.92c-.63,1.89.42,4,.37,6.06s-1.1,3.7-1.2,5.66.66,3.57,1,5.35a13.68,13.68,0,0,1-.06,6c-.18.73-.52,1.54-1.09,1.6a1.41,1.41,0,0,1-1-.48c-1.55-1.32-3.27-3-3.31-5.44,0-1.83.94-3.48.94-5.31a25.34,25.34,0,0,0-.49-3.24c-.43-3.32,1.17-6.41,2.36-9.38,1.94-4.83,3-10.68,1.43-15.76a2.93,2.93,0,0,0-.6-1.21,1.92,1.92,0,0,0-1.42-.42l-3.58,0a1.29,1.29,0,0,0-1.27.51,2.59,2.59,0,0,0,.08,2A41.09,41.09,0,0,1,216,73.51a18.26,18.26,0,0,1-.54,8.28,32.53,32.53,0,0,0-1.6,4.12c-.48,2.27.2,4.65.54,7a24,24,0,0,1-.51,9.41,3.67,3.67,0,0,1-.51,1.23c-.72,1-2.07.48-2.73-.57-1.19-1.87-.89-4.66-.34-7s1.29-4.77.78-7.12c-.25-1.16-.8-2.18-1.12-3.32-.79-2.78-.16-5.89.62-8.68s1.7-5.65,1.5-8.6a4.64,4.64,0,0,0-1.05-3,3.24,3.24,0,0,0-1.9-.74l-2.3-.35a1.57,1.57,0,0,0-1.56.36,2.36,2.36,0,0,0-.16,2.09c.23.68.62,1.24.88,1.9.74,1.83.41,4.08-.13,6a24.37,24.37,0,0,0-1.36,5.92c-.15,4.43,2.78,8,3.51,12.34.8,4.75-1.81,8.17-1.14,13l.05.43a4.78,4.78,0,0,0,.64,2.93,4.08,4.08,0,0,0,1.16,1.08c5.73,2.71,12,2.09,17.89.94a5.91,5.91,0,0,0,4-2.93c1.17-2.29.12-6.12,1.73-7.91,1.15-1.28,3.11-.91,4-2.47s0-4.09,0-6.23a12.18,12.18,0,0,1,.75-3.84,93.49,93.49,0,0,0,3.16-10.7A21.15,21.15,0,0,0,239.8,65.87Zm-9,5.26c.13-1.63-.19-3.39.38-4.85a1.8,1.8,0,0,1,.61-.86l.26.19a.4.4,0,0,1,.66-.06,1.17,1.17,0,0,1,.24.86,6.2,6.2,0,0,1-.83,2.11c-.76,1.79-.17,4.17-.89,6-.07.17-.17.34-.31.32s-.19-.19-.23-.34A10.31,10.31,0,0,1,230.78,71.13ZM229.34,85.9c0-.62.18-1.22.26-1.83.13-1,.06-2.1.09-3.15a6.27,6.27,0,0,1,.69-3l.19.38a20.4,20.4,0,0,1-.32,2.91c-.15,1.69.27,3.47-.15,5.08,0,.19-.13.4-.28.46s-.33-.07-.41-.26A1.48,1.48,0,0,1,229.34,85.9ZM225.06,66l.13.15a.46.46,0,0,1,.67.1,2.07,2.07,0,0,1,.4,1.37c0,.51-.1,1-.11,1.51,0,.89.16,1.77.13,2.66a4.85,4.85,0,0,1-.37,1.67c-.11.27-.34.55-.54.4a9,9,0,0,1,0-2,26.12,26.12,0,0,0-.32-4.59A2.67,2.67,0,0,1,225.06,66Zm-16.84,7.59a20.45,20.45,0,0,0,.55-6.35.61.61,0,0,0-.19-.42l-.12,0a.11.11,0,0,1,.12,0l.24-.06c0-.33.33-.57.55-.41a.78.78,0,0,1,.21.29c.78,1.49.54,3.49.26,5.26a15,15,0,0,1-1.12,4.35c-.4,0-.7-.57-.74-1.1A4.89,4.89,0,0,1,208.22,73.59Zm-.33,6c0-.4,0-.82.08-1.21s.28-.8.59-.84l.07.06,0-.06,0,.08,0,0v0c.17-.07.38-.09.48.09s0,.47-.07.69a4.07,4.07,0,0,0-.11.78,3.26,3.26,0,0,1-.12.77.84.84,0,0,1-.42.54.39.39,0,0,1-.51-.26A1.47,1.47,0,0,1,207.89,79.62Zm-1,4.39a.78.78,0,0,1-.43.54c-.23.06-.46-.13-.59-.37a3.32,3.32,0,0,1-.22-.85,13.14,13.14,0,0,1-.24-3.59c.08-.65.35-1.39.84-1.45l0,.1c-.05,0,0,.15,0,.2a1.3,1.3,0,0,0,.17.08c.21.09.29.42.27.71s-.13.54-.17.82C206.38,81.47,207.31,82.81,206.93,84Zm2.41,12a.43.43,0,0,1-.23.1c-.16,0-.29-.21-.31-.43a1.75,1.75,0,0,1,.07-.64,8.42,8.42,0,0,0,.11-3.6c-.32-1.47-1.2-2.67-1.39-4.17,0-.35,0-.79.25-.91l.08,0c0-.16.16-.27.27-.2.06.51.13,1,.19,1.53s.16,1.07.5,1.3a2.74,2.74,0,0,1-.1-1.45c.21,0,.4.19.49.45s.09.55.16.81c.14.49.46.85.62,1.33a3.85,3.85,0,0,1,.14,1.23,25,25,0,0,1-.17,2.88A3,3,0,0,1,209.34,96Zm6.72-29.46a2.15,2.15,0,0,1,.57-1.6l.29,0c.12-.27.44-.22.62,0a7.77,7.77,0,0,1,.4.76c.15.24.42.42.61.25a1.39,1.39,0,0,0,.15-.19.65.65,0,0,1,.83-.16,1.82,1.82,0,0,1,.65.76,9.32,9.32,0,0,1,.73,3.35,6.89,6.89,0,0,1-.18,3c-.1.26-.28.52-.5.48s-.28-.21-.35-.4c-.52-1.28.16-2.86,0-4.29a1.67,1.67,0,0,0-.39-.95.51.51,0,0,0-.77,0,1.22,1.22,0,0,0-.2.65c-.06.8.18,1.61.09,2.4,0,.33-.12.64-.17,1a16.87,16.87,0,0,0,.33,3.45,6.13,6.13,0,0,1-.37,2.5c-.14.36-.37.73-.68.71s-.4-.23-.49-.5a2.58,2.58,0,0,1-.1-.84c0-2.2.59-4.47,0-6.55C216.81,69,216.07,67.88,216.06,66.54Zm0,24.56a2.09,2.09,0,0,1-.46-1.57A13.91,13.91,0,0,1,216.7,84c.68-1.58,1.66-3,1.8-4.82l.26-.06c.21-.17.5.06.57.37a1.86,1.86,0,0,1-.1.93c-.73,2.33-2.12,4.31-2.47,6.78C216.58,88.51,216.69,90,216.08,91.1Zm6.69-10a1.42,1.42,0,0,1,.58-1h0c.1-.13.28-.07.36.08a1.06,1.06,0,0,1,.1.51,10.24,10.24,0,0,1-.05,1.66,1.75,1.75,0,0,1-.16.69c-.1.2-.3.35-.47.28s-.34-.53-.36-.88A4.94,4.94,0,0,1,222.77,81.13Zm1.1,16.9a1.11,1.11,0,0,1-.2.56,4.1,4.1,0,0,1-.16-.79c-.22-1.27-.75-2.41-1.08-3.64a5.29,5.29,0,0,1,.15-3.75l.08-.11c.29,0,.49.42.55.79a5.52,5.52,0,0,1,0,1.15C223.21,94.2,224.17,96.1,223.87,98Zm.15-9.14a.8.8,0,0,1,.19-.38,3,3,0,0,1,1.73-.86,2.17,2.17,0,0,0,1.6-1.16l-.06.15c.1-.1.26,0,.34.09a.94.94,0,0,1,.08.48,1.74,1.74,0,0,1-.52,1.16c-.5.45-1.17.35-1.73.66-.21.11-.4.29-.61.41a.77.77,0,0,1-.66.13A.66.66,0,0,1,224,88.89Zm5.82,9.48c-.4,1.77,0,3.68-.15,5.51,0,.2-.07.43-.22.49s-.37-.29-.41-.59a23.08,23.08,0,0,1-.37-3.42c0-.68.06-1.36.11-2,0-.45.12-1,.43-1.17l0,.34a2.68,2.68,0,0,0,.32-.52c.12-.16.34-.25.44-.07a.56.56,0,0,1,.05.29A7.71,7.71,0,0,1,229.84,98.37Zm5-3.63a1.18,1.18,0,0,1-.57.81,2.25,2.25,0,0,1-.84.24l-1.24.18c-.29,0-.65,0-.75-.33a.65.65,0,0,1,.39-.75,2.9,2.9,0,0,1,.78,0A1.74,1.74,0,0,0,234,93.21c.05-.58-.1-1.18,0-1.76a1,1,0,0,1,.41-.75l.15.43a.13.13,0,0,1,.2-.12.55.55,0,0,1,.1.34,4.48,4.48,0,0,1-.32,1.9,2.26,2.26,0,0,0-.24.72.26.26,0,0,0,0,.15c.07.17.28,0,.42.07S234.91,94.53,234.87,94.74Zm1.89-13.13.79-.47a.31.31,0,0,1,.16-.06c.18,0,.23.35.14.54a1.11,1.11,0,0,1-.43.38,3.77,3.77,0,0,0-1.31,2.26c-.24.93-.32,1.91-.53,2.84a1.47,1.47,0,0,1-.26.64.32.32,0,0,1-.51,0,.66.66,0,0,1-.09-.29,10,10,0,0,1,.33-2.86c.07-.63,0-1.28.09-1.91a3.37,3.37,0,0,1,.51-1.76,3.23,3.23,0,0,1,.69-.6c.4-.28.8-.56,1.21-.83l-.06.3a.32.32,0,0,1,.53-.1c-.06.45-.45.66-.77.85S236.59,81.2,236.76,81.61ZM240,70.17c0,.17-.19.32-.33.29s-.21-.17-.26-.32c-.14-.47-.06-1.18-.42-1.34-.13,2.14.65,4.34.19,6.4a1.4,1.4,0,0,1-.23.59.35.35,0,0,1-.47.11,21.83,21.83,0,0,0-.13-6.2,15.44,15.44,0,0,1-.39-3.17l.15-.21a.79.79,0,0,1,.22-.71c.13.56.25,1.12.38,1.68l0-1.53c0-.18.06-.44.19-.4s.1.1.13.18a14.74,14.74,0,0,1,1,4.06A1.56,1.56,0,0,1,240,70.17Z"/></g></svg>