<svg id="Layer_1" data-name="Layer 1" xmlns="http://www.w3.org/2000/svg" xmlns:xlink="http://www.w3.org/1999/xlink" viewBox="0 0 260 168"><defs><style>.cls-1,.cls-31{fill:#6ab7be;}.cls-2{fill:#572517;}.cls-3{fill:#9b4a0d;}.cls-4{fill:#a55716;}.cls-5{fill:#b4e1e7;}.cls-6{fill:#130402;}.cls-7{fill:#d5f5f7;}.cls-8{fill:#2a1107;}.cls-29,.cls-9{fill:#60aeb2;}.cls-10,.cls-12,.cls-13,.cls-14,.cls-15,.cls-23,.cls-62{fill:none;}.cls-11{clip-path:url(#clip-path);}.cls-12{stroke:red;}.cls-12,.cls-13,.cls-14,.cls-15,.cls-23{stroke-linecap:round;stroke-linejoin:round;}.cls-12,.cls-13,.cls-14,.cls-15{stroke-width:0.24px;}.cls-13{stroke:#2d5b04;}.cls-14{stroke:#000dff;}.cls-15{stroke:#ffb600;}.cls-16{fill:#fff;}.cls-17{fill:#e2e2e2;}.cls-18{fill:#280f05;}.cls-19{fill:#461d13;}.cls-20{clip-path:url(#clip-path-2);}.cls-21{fill:#431a11;}.cls-22{fill:#1f0e07;}.cls-23{stroke:#280f05;stroke-width:1.53px;}.cls-24{fill:#ff8c26;}.cls-25{fill:#ffe1bd;}.cls-26{fill:#441a12;}.cls-27{clip-path:url(#clip-path-3);}.cls-28{fill:#96c5c7;}.cls-29{opacity:0.37;}.cls-30{clip-path:url(#clip-path-4);}.cls-31{opacity:0.28;}.cls-32{clip-path:url(#clip-path-5);}.cls-33{fill:#ea6e27;}.cls-34{fill:#132995;}.cls-35{clip-path:url(#clip-path-6);}.cls-36{fill:#479e9e;}.cls-37{fill:#c80752;}.cls-38{fill:#ff085f;}.cls-39{clip-path:url(#clip-path-7);}.cls-40{fill:#87c1c6;}.cls-41{fill:#1632b7;}.cls-42{fill:#041e7f;}.cls-43{clip-path:url(#clip-path-8);}.cls-44{fill:#6d3503;}.cls-45{fill:#7c3e0a;}.cls-46{fill:#602e05;}.cls-47{fill:#c96d28;}.cls-48{fill:#e0874b;}.cls-49{clip-path:url(#clip-path-9);}.cls-50{fill:#9b4a0e;}.cls-51{clip-path:url(#clip-path-10);}.cls-52{clip-path:url(#clip-path-11);}.cls-53{clip-path:url(#clip-path-12);}.cls-54{fill:#9e5823;}.cls-55{fill:#58990d;}.cls-56{clip-path:url(#clip-path-13);}.cls-57,.cls-62{opacity:0.51;}.cls-58{fill:#6b2f20;}.cls-59{fill:#f71414;}.cls-60{fill:#d60707;}.cls-61{clip-path:url(#clip-path-14);}.cls-62{stroke:#6ab7be;stroke-miterlimit:10;stroke-width:0.19px;}.cls-63{fill:#fff1e1;}.cls-64{opacity:0.36;fill:url(#radial-gradient);}.cls-65{opacity:0.44;fill:url(#radial-gradient-2);}</style><clipPath id="clip-path"><path class="cls-1" d="M66.83,82.58s-3.47.17-5.15,1.12,0,3.16-.58,10.35-1,9.82-.37,13.7c0,0,3,1.33,11.09,1s12-1.08,12.36-2.08-.07-8.71-.81-11.06S83.11,85,83.24,84.29s-2.17-1.59-4.58-1.55C78.66,82.74,67.72,83.56,66.83,82.58Z"/></clipPath><clipPath id="clip-path-2"><path class="cls-2" d="M77,39s-9.85-1.32-15.62,6.64S58.2,66.26,59,69.06,65,79.29,73.76,80.2s14.73-6.79,15.77-9,5.13-15.72.61-24.13C86,39.32,77,39,77,39Z"/></clipPath><clipPath id="clip-path-3"><path class="cls-6" d="M68.88,73.59s1.19-1.7,5.5-1.13c2.79.37,4,1.2,4.66,1.79a.78.78,0,0,1-.3,1.3c-.57.17-.84.31-2.33-.23-3.23-1.15-4.53-.48-5.91-.44S68.14,74.84,68.88,73.59Z"/></clipPath><clipPath id="clip-path-4"><path class="cls-7" d="M60.63,107.07a27.67,27.67,0,0,1,7.76,1.18c3,1.14,7.25,0,9.07-.39s6.4-2.61,7.5-1,5,6.06,4.42,8-5.54,5.45-8.29,5a49.83,49.83,0,0,0-10-.2,49.29,49.29,0,0,1-9.5.33c-2.42-.33-6.83-.95-6-5.45S59,107.6,60.63,107.07Z"/></clipPath><clipPath id="clip-path-5"><path class="cls-8" d="M65.75,82.22c.28,0,1.93,1.48,1.7,4.7s.33,4.07-.84,6.62-.1,4.9-.59,6.66-3.84,6-5.8,7c0,0-.3-7,.74-11.56s2.51-9.38.72-12C61.68,83.7,64.81,82.08,65.75,82.22Z"/></clipPath><clipPath id="clip-path-6"><path class="cls-8" d="M79.77,82.22c-.27,0-1.92,1.48-1.7,4.7s-.33,4.07.84,6.62.1,4.9.59,6.66a13,13,0,0,0,4.74,6.13s1.37-6.14.33-10.65-2.52-9.38-.73-12C83.84,83.7,80.71,82.08,79.77,82.22Z"/></clipPath><clipPath id="clip-path-7"><path class="cls-9" d="M63.77,108.53c-3.08.7-6.11,2.37-7.51,5.21-1.89,3.88-.36,8.86,2.93,11.66A10.36,10.36,0,0,1,61,121.28c2-2.62,5.8-1.4,9-2.1,3.64-.79,6.27-2.29,9.78-1s7.39,3.29,7.26,7c2.27-1.64,2.53-4.88,2.47-7.68a12.28,12.28,0,0,0-.73-4.64c-1.34-3.11-4.89-4.7-8.25-5s-6.73.39-10.11.47c-.88,0-1.76,0-2.64,0A23.73,23.73,0,0,0,63.77,108.53Z"/></clipPath><clipPath id="clip-path-8"><path class="cls-10" d="M79.47,99.18c0,.65-4.06,1.17-8.51,1.17s-8.64-.52-8.64-1.17,3.76-4.29,8.21-4.29S79.47,98.54,79.47,99.18Z"/></clipPath><clipPath id="clip-path-9"><path class="cls-4" d="M68.86,100.65a.87.87,0,0,0-.13.62c.09.28,2.39.37,2.56.34a1.77,1.77,0,0,0,1-.55c.17-.31-.16-.62-.16-.62l-2,0Z"/></clipPath><clipPath id="clip-path-10"><path class="cls-4" d="M64.06,100a7.46,7.46,0,0,0-.19.89c0,.35,1.38.88,1.75.85a5.62,5.62,0,0,0,2.13-.84c.32-.33-.35-.9-.35-.9l-2.59,0Z"/></clipPath><clipPath id="clip-path-11"><path class="cls-3" d="M76,98.37a3.79,3.79,0,0,0-.25.56c-.07.22,1,.6,1.62.59a1.05,1.05,0,0,0,.92-.73c0-.06.1-.73-.06-.81l-1.59.38Z"/></clipPath><clipPath id="clip-path-12"><path class="cls-4" d="M71.23,99s-.18.46,0,.67,1.54.16,1.85.17a2.6,2.6,0,0,0,1.4-.21c.35-.26.09-.78.09-.78L71.61,99Z"/></clipPath><clipPath id="clip-path-13"><path class="cls-5" d="M61.84,83.56a3.72,3.72,0,0,0-1.78,1.64c-1.38,2.25-1.51,5-2.59,7.47a36.91,36.91,0,0,1-2.85,4.63,11.82,11.82,0,0,0-1.92,5,6.13,6.13,0,0,0,1.64,5,4.21,4.21,0,0,0,5,.66c1.55-1,2-3,2.24-4.85a33.76,33.76,0,0,0,.15-3.48,19.62,19.62,0,0,1,0-2.87,30.61,30.61,0,0,1,.81-3.27,15.8,15.8,0,0,0-.78-9.79"/></clipPath><clipPath id="clip-path-14"><path class="cls-5" d="M83.84,83.7s4.55,3.33,6.4,7,5.81-8.4,7.38-8.68,3.88,9.51,4.62,11.82-8.59,9.51-12.1,7.29-5.61-4.94-5.57-5.47S81.69,87.49,83.84,83.7Z"/></clipPath><radialGradient id="radial-gradient" cx="172.17" cy="42.36" r="1.93" gradientUnits="userSpaceOnUse"><stop offset="0.58" stop-color="#c49a6c" stop-opacity="0"/><stop offset="0.62" stop-color="#c89a6c" stop-opacity="0.06"/><stop offset="0.7" stop-color="#d1996c" stop-opacity="0.22"/><stop offset="0.81" stop-color="#e1976c" stop-opacity="0.47"/><stop offset="0.95" stop-color="#f6956c" stop-opacity="0.81"/><stop offset="1" stop-color="#ff946c" stop-opacity="0.95"/></radialGradient><radialGradient id="radial-gradient-2" cx="171.32" cy="41.47" r="0.47" gradientUnits="userSpaceOnUse"><stop offset="0.06" stop-color="#fff" stop-opacity="0"/><stop offset="0.14" stop-color="#fff" stop-opacity="0.06"/><stop offset="0.27" stop-color="#fff" stop-opacity="0.21"/><stop offset="0.46" stop-color="#fff" stop-opacity="0.46"/><stop offset="0.59" stop-color="#fff" stop-opacity="0.65"/><stop offset="0.61" stop-color="#fff" stop-opacity="0.67"/><stop offset="0.71" stop-color="#fff" stop-opacity="0.79"/><stop offset="0.81" stop-color="#fff" stop-opacity="0.88"/><stop offset="0.91" stop-color="#fff" stop-opacity="0.93"/><stop offset="1" stop-color="#fff" stop-opacity="0.95"/></radialGradient></defs><path class="cls-2" d="M98.51,79.32a1.35,1.35,0,0,1,.5-1.16c.28,0,.31.33.33.6.06.63.07,1.39.12,2l1-1.7a5.57,5.57,0,0,1,2.4,3.43,1.1,1.1,0,0,1,.05.47,1,1,0,0,1-.2.37,7,7,0,0,1-3.28,2.4c-1.61.55-2-1.16-1.6-2.38A14.44,14.44,0,0,0,98.51,79.32Z"/><path class="cls-1" d="M66.83,82.58s-3.47.17-5.15,1.12,0,3.16-.58,10.35-1,9.82-.37,13.7c0,0,3,1.33,11.09,1s12-1.08,12.36-2.08-.07-8.71-.81-11.06S83.11,85,83.24,84.29s-2.17-1.59-4.58-1.55C78.66,82.74,67.72,83.56,66.83,82.58Z"/><g class="cls-11"><path class="cls-12" d="M68.36,95.39s4.5-.09,5-4.2"/><path class="cls-13" d="M68.69,95.89s4.5-.09,5-4.19"/><path class="cls-14" d="M69,96.4s4.5-.09,5-4.2"/><path class="cls-15" d="M69.35,96.9s4.5-.09,5-4.19"/><path class="cls-12" d="M64.5,102s4.5-.09,5-4.19"/><path class="cls-13" d="M64.83,102.49s4.5-.09,5-4.2"/><path class="cls-14" d="M65.16,103s4.5-.09,5-4.19"/><path class="cls-15" d="M65.49,103.49s4.5-.08,5-4.19"/><path class="cls-12" d="M70.82,107s4.5-.08,5-4.19"/><path class="cls-13" d="M71.15,107.49s4.5-.09,4.95-4.19"/><path class="cls-14" d="M71.48,108s4.5-.08,5-4.19"/><path class="cls-15" d="M71.81,108.5s4.5-.09,5-4.2"/><path class="cls-12" d="M76.42,91.07s4.5-.08,5-4.19"/><path class="cls-13" d="M76.75,91.58s4.5-.09,5-4.2"/><path class="cls-14" d="M77.08,92.08s4.5-.08,5-4.19"/><path class="cls-15" d="M77.42,92.59s4.5-.09,5-4.2"/><path class="cls-12" d="M76.79,99.58s4.5-.09,4.95-4.2"/><path class="cls-13" d="M77.12,100.08s4.5-.08,4.95-4.19"/><path class="cls-14" d="M77.45,100.59s4.5-.09,5-4.2"/><path class="cls-15" d="M77.79,101.09s4.5-.09,4.95-4.19"/><path class="cls-16" d="M59.44,81.68a7,7,0,0,1,4,4.78,14.55,14.55,0,0,1,0,6.4,34.53,34.53,0,0,1-.91,3.74c-.25.8-.64,1.71-1.46,1.91C59.76,93,58.49,87.36,59.1,81.74c0-.33.37-.76.58-.5l-.18.58"/></g><path class="cls-2" d="M69.11,79.1v3.26s-1.61.36-2.51.49,2.37,7.6,6.31,7.6,6.21-6.26,6.48-7.51l-3.08-.85V78.68S69.6,77.17,69.11,79.1Z"/><path d="M68.56,82.34c.53,1.72,2.5,2.13,4.08,2.17A5.07,5.07,0,0,0,77,82.57c.34-.48-.46-.94-.8-.46a4.07,4.07,0,0,1-3.43,1.48c-1.15,0-2.93-.18-3.34-1.49-.17-.56-1-.32-.88.24Z"/><circle class="cls-17" cx="72.81" cy="84.69" r="0.98"/><path class="cls-18" d="M60.13,52.89s-.73-3.37-4.86-3-3.58,3.72-3.58,3.72-4.85-.14-5.18,4.19,2.32,4.37,2.32,4.37a3.9,3.9,0,0,0-1.16,4.7c1.16,3.13,2.94,2.4,2.94,2.4s1.26.12,1,2.29,1.47,3.1,4.83,2.82c0,0,6.5,2.81,8.43,1.09l.72-19.7Z"/><path class="cls-18" d="M91.34,56.11s1.41-3.14,5.38-2,2.74,4.37,2.74,4.37,4.77.86,4.21,5.16-3.16,3.81-3.16,3.81a3.89,3.89,0,0,1,.17,4.84c-1.77,2.82-3.37,1.74-3.37,1.74s-1.26-.14-1.48,2-2.07,2.74-5.3,1.78c0,0-6.93,1.41-8.47-.67l3.32-19.43Z"/><circle class="cls-19" cx="57.79" cy="61.53" r="4.56" transform="translate(-23.13 37.51) rotate(-30.26)"/><circle class="cls-19" cx="91.56" cy="65.02" r="4.56" transform="translate(-20.29 55) rotate(-30.26)"/><path class="cls-2" d="M77,39s-9.85-1.32-15.62,6.64S58.2,66.26,59,69.06,65,79.29,73.76,80.2s14.73-6.79,15.77-9,5.13-15.72.61-24.13C86,39.32,77,39,77,39Z"/><g class="cls-20"><path class="cls-21" d="M56.32,59.9s3.31-7.88,7-9.52,7.91-1.55,13-1,10.4,1.82,11.82,3S93,59.58,92.78,63.47L97,40,69.88,34.4s-9,1.16-9.22,1.2-5,4.88-5,4.88Z"/></g><ellipse class="cls-18" cx="76.63" cy="43.11" rx="6" ry="1.4" transform="translate(25.86 114.89) rotate(-84.09)"/><path class="cls-22" d="M63.08,58.78a3.17,3.17,0,0,1-2.06-1,2.41,2.41,0,0,0,.87,2S63.32,60,63.08,58.78Z"/><path class="cls-22" d="M62.66,60a3.15,3.15,0,0,1-2.06-1,2.42,2.42,0,0,0,.87,2S62.9,61.24,62.66,60Z"/><circle class="cls-16" cx="65.48" cy="63.03" r="5.26" transform="translate(-22.84 41.58) rotate(-30.26)"/><path d="M65.9,61.68a3.45,3.45,0,0,0-.91,0,1.52,1.52,0,0,1,.76,1.46,1.49,1.49,0,0,1-1.64,1.33,1.48,1.48,0,0,1-1.33-1.44,3.37,3.37,0,0,0-.68,1.71,3.46,3.46,0,1,0,3.8-3.08Z"/><path class="cls-22" d="M87.31,61.12a3.2,3.2,0,0,0,2.22-.52,2.42,2.42,0,0,1-1.27,1.79S86.82,62.28,87.31,61.12Z"/><path class="cls-22" d="M87.48,62.39a3.14,3.14,0,0,0,2.21-.51,2.42,2.42,0,0,1-1.27,1.79S87,63.56,87.48,62.39Z"/><circle class="cls-16" cx="83.91" cy="64.93" r="5.26" transform="translate(-21.29 51.13) rotate(-30.26)"/><path d="M84.33,63.58a3.44,3.44,0,0,0-.91,0A1.49,1.49,0,1,1,81.2,65a3.52,3.52,0,0,0-.67,1.72,3.46,3.46,0,1,0,3.8-3.09Z"/><path class="cls-6" d="M61.7,54.21a16.7,16.7,0,0,1,9.21.95S66.64,49.49,61.7,54.21Z"/><path class="cls-6" d="M80.54,56.16a16.7,16.7,0,0,1,9.21,1S85.48,51.44,80.54,56.16Z"/><ellipse class="cls-19" cx="74.43" cy="67.08" rx="1.68" ry="2.59" transform="translate(0.04 134.21) rotate(-84.09)"/><path class="cls-23" d="M73.69,47.34s-12.26-.94-15.18,5.1"/><path class="cls-23" d="M73.46,44.58s-9.87-.11-13.7,3.24"/><path class="cls-23" d="M73.73,42s-7.29,0-11.05,2.18"/><path class="cls-23" d="M74.84,39.52a18.53,18.53,0,0,0-8.62,1.32"/><path class="cls-23" d="M79.15,47.91S91.35,49.5,93,56"/><path class="cls-23" d="M80,45.25s9.68,1.91,12.74,6"/><path class="cls-23" d="M80.22,42.62s7.15,1.45,10.37,4.4"/><path class="cls-23" d="M79.64,40a18.55,18.55,0,0,1,8.17,3.06"/><circle class="cls-24" cx="91.05" cy="74.6" r="2.64" transform="translate(-25.19 56.05) rotate(-30.26)"/><circle class="cls-25" cx="91.17" cy="70.97" r="0.76"/><circle class="cls-24" cx="91.38" cy="68.95" r="0.76"/><circle class="cls-24" cx="56.59" cy="71.04" r="2.64" transform="translate(-28.09 38.19) rotate(-30.26)"/><circle class="cls-25" cx="56.7" cy="67.41" r="0.76"/><circle class="cls-24" cx="56.91" cy="65.38" r="0.76"/><path class="cls-26" d="M74.17,71.64s-2.65-1.2-4.37.46-2.16,2-2.46,2,.7,1.78,2.18,1.81a27.43,27.43,0,0,1,4.31.22,22.32,22.32,0,0,0,3.79.68,4,4,0,0,0,3.17-.93s-.68-1.07-1.76-3c-.65-1.15-1.47-1.33-3.2-1.14A4.11,4.11,0,0,1,74.17,71.64Z"/><path class="cls-6" d="M68.88,73.59s1.19-1.7,5.5-1.13c2.79.37,4,1.2,4.66,1.79a.78.78,0,0,1-.3,1.3c-.57.17-.84.31-2.33-.23-3.23-1.15-4.53-.48-5.91-.44S68.14,74.84,68.88,73.59Z"/><g class="cls-27"><ellipse class="cls-16" cx="74.62" cy="72.21" rx="1.32" ry="5.21" transform="translate(-7.66 135.54) rotate(-81.64)"/><ellipse class="cls-16" cx="73.95" cy="75.76" rx="1.32" ry="5.21" transform="translate(-11.75 137.92) rotate(-81.64)"/></g><path class="cls-28" d="M66.43,86.26c.67,2.63,3.52,4.37,6.14,4.4a7.53,7.53,0,0,0,6.75-4.61c.23-.54-.66-.78-.88-.24a6.58,6.58,0,0,1-5.87,3.93A5.54,5.54,0,0,1,67.31,86a.46.46,0,0,0-.88.24Z"/><path class="cls-28" d="M68.45,88.86a3.94,3.94,0,0,0-.93,2.52,3.72,3.72,0,0,0,.25,1.36,1.49,1.49,0,0,1,.22.74,2.83,2.83,0,0,1-.34.7,3.17,3.17,0,0,0-.32,1.32,2.81,2.81,0,0,0,.08.76,3,3,0,0,1,.16.66c0,.36-.33.69-.51,1a1.79,1.79,0,0,0-.3,1.09c0,.35.51.68.79.33a3.75,3.75,0,0,0,.57-1c.23-.55-.66-.79-.88-.25a2.45,2.45,0,0,1-.34.59l.78.32c-.08-.66.67-1.19.78-1.85A2.8,2.8,0,0,0,68.29,96a2.24,2.24,0,0,1,.22-1.5,2.44,2.44,0,0,0,.4-1.13,5,5,0,0,0-.37-1.24,3,3,0,0,1,.56-2.64c.37-.45-.28-1.1-.65-.64Z"/><path class="cls-28" d="M70.34,90a5.18,5.18,0,0,0-1,3.14,5.67,5.67,0,0,0,.31,1.63,1,1,0,0,1-.18,1.08,5,5,0,0,0-.42.79,2.52,2.52,0,0,0-.1,1.58,5.31,5.31,0,0,1,.46,1.81c-.1,1.08-.88,1.93-.32,3a.42.42,0,0,0,.39.23.59.59,0,0,0,.58-.77c-.12-.57-1-.33-.88.25l0,.09,0-.35-.06.08.4-.23h-.1l.4.23c-.24-.47,0-1,.19-1.48a3.26,3.26,0,0,0,.26-1.38A5.78,5.78,0,0,0,70,98.23a2,2,0,0,1,.28-1.86,2.34,2.34,0,0,0,.5-1.22,12.32,12.32,0,0,0-.4-1.53,4.33,4.33,0,0,1,.79-3.19c.35-.48-.45-.94-.79-.46Z"/><path class="cls-28" d="M71.72,90.54a3.23,3.23,0,0,0-.4,1.77,3.08,3.08,0,0,0,.19.9,1.18,1.18,0,0,1,.12.36,1,1,0,0,1-.16.36,2.9,2.9,0,0,0,.12,3.24.47.47,0,0,0,.84-.11l0-.2a.46.46,0,0,0-.89-.24l0,.19.84-.11a2,2,0,0,1-.44-1.32A3.89,3.89,0,0,1,72.45,94c.22-.57-.1-1-.2-1.54A2.31,2.31,0,0,1,72.51,91c.28-.52-.52-1-.79-.47Z"/><path class="cls-28" d="M72.88,91a3.46,3.46,0,0,1,.93,2.48,9,9,0,0,0,0,2.93c.12.43.31.84.42,1.27a2.11,2.11,0,0,1-.12,1.42,2.71,2.71,0,0,0-.19,1.26,6.59,6.59,0,0,1,.19,1.52c-.09.57.79.83.88.24l0-.3c.09-.57-.8-.82-.89-.24l0,.3.88.24a3.84,3.84,0,0,0-.09-1.39,3,3,0,0,1,.2-1.67c.34-1-.12-1.9-.41-2.9s.15-2.2,0-3.31a4.39,4.39,0,0,0-1.17-2.49c-.41-.44-1,.21-.65.64Z"/><path class="cls-29" d="M69.33,107.25a9.25,9.25,0,0,0,1.54,1.11,4.18,4.18,0,0,0,1.82.37,5.26,5.26,0,0,0,3.38-1.1,9.14,9.14,0,0,1,1.55-1.3,4.46,4.46,0,0,1,2.46-.26c.61.05,1.32.16,1.62.7.38.7-.25,1.53-.92,2-1.8,1.22-4.09,1.44-6.26,1.56a20.32,20.32,0,0,1-3.9-.07c-1.84-.26-5.19-.94-6.06-2.88-.45-1,.37-1.46,1.32-1.47A5.89,5.89,0,0,1,69.33,107.25Z"/><path class="cls-28" d="M74.8,90.24A5.53,5.53,0,0,1,75.62,93a6,6,0,0,0,0,1.4c.1.43.37.8.46,1.23A2.26,2.26,0,0,1,76,96.94a2.72,2.72,0,0,0-.38,1.26A5.49,5.49,0,0,0,76,99.49c.12.3.19.71.51.87a.45.45,0,0,0,.55-.07.47.47,0,0,0,.16-.4.46.46,0,0,0-.34-.44h0c-.57-.09-.82.79-.24.89h0l-.34-.44v0l.13-.33,0,0,.56-.07c.06,0-.12-.42-.15-.49s-.19-.43-.25-.65a.86.86,0,0,1,0-.75c.07-.17.15-.33.21-.5a2.87,2.87,0,0,0,0-2.28,2.91,2.91,0,0,1-.31-1.32,9.35,9.35,0,0,0,0-1.4,7.44,7.44,0,0,0-.91-2.4c-.28-.52-1.07-.06-.79.46Z"/><path class="cls-28" d="M76.28,89.43a6.17,6.17,0,0,1,.86,1.86c.14.71,0,1.44.14,2.15.18,1.26,1.34,2.54.85,3.83-.21.55.67.79.88.24.58-1.51-.61-2.73-.82-4.16-.12-.76,0-1.54-.17-2.3a6.76,6.76,0,0,0-1-2.08.46.46,0,0,0-.79.46Z"/><path class="cls-7" d="M60.63,107.07a27.67,27.67,0,0,1,7.76,1.18c3,1.14,7.25,0,9.07-.39s6.4-2.61,7.5-1,5,6.06,4.42,8-5.54,5.45-8.29,5a49.83,49.83,0,0,0-10-.2,49.29,49.29,0,0,1-9.5.33c-2.42-.33-6.83-.95-6-5.45S59,107.6,60.63,107.07Z"/><g class="cls-30"><path class="cls-1" d="M63.83,106.42c-.8,2.5-2.46,4.59-3,7.18a13.76,13.76,0,0,0-.33,3.62,13.13,13.13,0,0,0,.2,1.77c.08.5.66,1.85.23,2.25a.13.13,0,0,0,.19.19.86.86,0,0,0,.21-.89c-.12-.65-.33-1.28-.43-1.94a13.33,13.33,0,0,1,.1-4.5,14.72,14.72,0,0,1,1.43-3.95,24.85,24.85,0,0,0,1.71-3.66c0-.16-.21-.23-.26-.07Z"/><path class="cls-1" d="M65.75,107.34a18.67,18.67,0,0,0-2.28,13.54c0,.17.29.1.25-.07A18.44,18.44,0,0,1,66,107.47c.09-.14-.14-.28-.23-.13Z"/><path class="cls-1" d="M68.17,107.54a13.74,13.74,0,0,0-2.46,6.78,13.46,13.46,0,0,0,.17,3.53,18.87,18.87,0,0,0,.56,2.12c.11.37.17,1.07.55,1.26a.15.15,0,0,0,.16,0c.08-.1.1-.13.06-.25s-.07-.11-.13-.1h0c-.17,0-.17.29,0,.27,0,0-.52-1.84-.57-2a15,15,0,0,1-.39-1.74A13.12,13.12,0,0,1,66,114a13.44,13.44,0,0,1,2.4-6.33c.1-.14-.13-.27-.23-.14Z"/><path class="cls-1" d="M69.75,107.92c-2.78,3.82-1.23,8.94-.43,13.14,0,.17.29.1.26-.07-.8-4.14-2.33-9.18.4-12.93.1-.14-.13-.27-.23-.14Z"/><path class="cls-1" d="M71.17,108.06a50.77,50.77,0,0,0,.19,12.44l.26-.07-.06-.31c0-.17-.29-.1-.26.07l.06.31c0,.17.28.09.26-.07a50.2,50.2,0,0,1-.18-12.37c0-.17-.25-.17-.27,0Z"/><path class="cls-1" d="M73.59,107.67l.09,7.06,0,3.47,0,1.73c0,.15,0,1.83.09,1.82s.09-.31-.07-.26h0a.15.15,0,0,0-.1.13c0,.11,0,.15.12.2a.12.12,0,0,0,.16,0c.24-.25.12-.7.12-1l0-1.73,0-3.84-.09-7.55a.14.14,0,0,0-.27,0Z"/><path class="cls-1" d="M75.38,108.07a24.1,24.1,0,0,0,.74,3.67,26.08,26.08,0,0,1,.56,4.31,25.81,25.81,0,0,1-.11,4s-.46,2.15.17,1.71a.15.15,0,0,0,.07-.12v0c0-.17-.28-.18-.26,0a1.12,1.12,0,0,0,.18-.56l0-.27c0-.32.08-.63.11-1,0-.55.09-1.1.11-1.65a28.18,28.18,0,0,0-.11-3.44,29.17,29.17,0,0,0-.51-3.2,21.67,21.67,0,0,1-.7-3.48c0-.17-.28-.17-.27,0Z"/><path class="cls-1" d="M77,107.25a24.22,24.22,0,0,1,2,7.41,44.67,44.67,0,0,1-.14,7.67c0,.15.22.17.26,0l.15-.43c.06-.16-.2-.23-.25-.07l-.15.43.26,0a42.59,42.59,0,0,0,.09-8.14,25,25,0,0,0-2-7.08c-.07-.16-.3,0-.23.14Z"/><path class="cls-1" d="M79.47,106.38a21.39,21.39,0,0,1,2.7,8.15,39.63,39.63,0,0,1-.34,9h.27v-.73a.14.14,0,0,0-.27,0v.73c0,.17.25.16.27,0a38.59,38.59,0,0,0,.28-9.42,21.67,21.67,0,0,0-2.68-7.84.13.13,0,0,0-.23.14Z"/><path class="cls-1" d="M81.59,106.77a29.44,29.44,0,0,1,1.92,3.75,18.54,18.54,0,0,1,1,3.94,34.11,34.11,0,0,1,.31,4.17c0,.65,0,1.3,0,1.94a3.77,3.77,0,0,1-.31,2.24l.24,0-.13-.38c0-.16-.31-.09-.25.07l.13.38a.13.13,0,0,0,.24,0,2.46,2.46,0,0,0,.34-1.58q0-1.14,0-2.28a35.17,35.17,0,0,0-.28-4.35,18.24,18.24,0,0,0-1-4.18,26.73,26.73,0,0,0-2-3.92.13.13,0,1,0-.22.13Z"/><path class="cls-31" d="M75.21,118.1a23.71,23.71,0,0,0-4.33.86,44.53,44.53,0,0,0-6,1.91c-.44.18-.94.48-.94.95s.77.83,1.36.9a142.13,142.13,0,0,0,19.57.73,4.13,4.13,0,0,0,1.61-.27,1.46,1.46,0,0,0,.9-1.28c0-.89-1.4-1.15-2-1.42-1.11-.47-2.21-.92-3.34-1.3A17.45,17.45,0,0,0,75.21,118.1Z"/><path class="cls-31" d="M69.07,108a2.81,2.81,0,0,0,1.58,1.34c3.63,1.62,8.52-.22,11.45-2.92-.43-.49-1.45.46-2.1.37a40.43,40.43,0,0,0-8.66-.27,5.94,5.94,0,0,0-3.79,1.27"/></g><path class="cls-8" d="M65.75,82.22c.28,0,1.93,1.48,1.7,4.7s.33,4.07-.84,6.62-.1,4.9-.59,6.66-3.84,6-5.8,7c0,0-.3-7,.74-11.56s2.51-9.38.72-12C61.68,83.7,64.81,82.08,65.75,82.22Z"/><g class="cls-32"><ellipse class="cls-33" cx="64.24" cy="92.48" rx="2.1" ry="0.52" transform="translate(-15.59 13.07) rotate(-10.36)"/><ellipse class="cls-33" cx="64.08" cy="103.39" rx="2.1" ry="0.52" transform="translate(-17.56 13.22) rotate(-10.36)"/><ellipse class="cls-34" cx="64.77" cy="86.68" rx="2.1" ry="0.52" transform="translate(-14.54 13.07) rotate(-10.36)"/><ellipse class="cls-34" cx="63.27" cy="98.1" rx="2.1" ry="0.52" transform="translate(-16.62 12.98) rotate(-10.36)"/><ellipse class="cls-33" cx="63.44" cy="88.96" rx="0.48" ry="0.67"/><ellipse class="cls-33" cx="63.27" cy="91.04" rx="0.67" ry="0.48" transform="translate(-39.02 133.79) rotate(-77.88)"/><ellipse class="cls-33" cx="62.43" cy="100.04" rx="0.48" ry="0.67" transform="translate(-18.87 14.63) rotate(-11.62)"/><ellipse class="cls-33" cx="65.02" cy="99.37" rx="0.48" ry="0.67" transform="translate(-18.69 15.14) rotate(-11.62)"/><ellipse class="cls-33" cx="63.07" cy="102.19" rx="0.67" ry="0.48" transform="translate(-42.4 159.6) rotate(-86.88)"/><ellipse class="cls-33" cx="65.44" cy="101.4" rx="0.67" ry="0.48" transform="translate(-39.38 161.21) rotate(-86.88)"/><ellipse class="cls-34" cx="62.33" cy="94.49" rx="0.67" ry="0.48" transform="translate(-36.46 149.77) rotate(-85.82)"/><ellipse class="cls-34" cx="62.17" cy="96.66" rx="0.67" ry="0.48" transform="translate(-38.77 151.62) rotate(-85.82)"/><ellipse class="cls-34" cx="64.77" cy="96.16" rx="0.67" ry="0.48" transform="translate(-35.85 153.75) rotate(-85.82)"/><ellipse class="cls-34" cx="65.25" cy="94" rx="0.67" ry="0.48" transform="translate(-33.25 152.22) rotate(-85.82)"/><ellipse class="cls-33" cx="66.12" cy="90.47" rx="0.67" ry="0.48" transform="translate(-36.21 136.12) rotate(-77.88)"/><ellipse class="cls-33" cx="66.42" cy="88.4" rx="0.67" ry="0.48" transform="translate(-27.46 146.82) rotate(-84.97)"/><ellipse class="cls-34" cx="63.08" cy="85.28" rx="0.48" ry="0.67" transform="translate(-13.32 11.69) rotate(-9.59)"/><ellipse class="cls-34" cx="62.6" cy="83.55" rx="0.48" ry="0.67" transform="translate(-13.04 11.59) rotate(-9.59)"/><ellipse class="cls-34" cx="66.25" cy="84.85" rx="0.48" ry="0.67" transform="translate(-13.2 12.22) rotate(-9.59)"/><ellipse class="cls-34" cx="65.83" cy="82.88" rx="0.48" ry="0.67" transform="translate(-12.88 12.12) rotate(-9.59)"/></g><path class="cls-8" d="M79.77,82.22c-.27,0-1.92,1.48-1.7,4.7s-.33,4.07.84,6.62.1,4.9.59,6.66a13,13,0,0,0,4.74,6.13s1.37-6.14.33-10.65-2.52-9.38-.73-12C83.84,83.7,80.71,82.08,79.77,82.22Z"/><g class="cls-35"><ellipse class="cls-33" cx="81.29" cy="92.48" rx="0.52" ry="2.1" transform="translate(-24.31 155.8) rotate(-79.64)"/><ellipse class="cls-33" cx="81.44" cy="103.39" rx="0.52" ry="2.1" transform="matrix(0.18, -0.98, 0.98, 0.18, -34.91, 164.9)"/><ellipse class="cls-34" cx="80.75" cy="86.68" rx="0.52" ry="2.1" transform="translate(-19.04 150.51) rotate(-79.64)"/><ellipse class="cls-34" cx="82.25" cy="98.1" rx="0.52" ry="2.1" transform="translate(-29.05 161.36) rotate(-79.64)"/><ellipse class="cls-33" cx="82.08" cy="88.96" rx="0.48" ry="0.67"/><ellipse class="cls-33" cx="82.25" cy="91.04" rx="0.48" ry="0.67" transform="translate(-17.28 19.3) rotate(-12.12)"/><ellipse class="cls-33" cx="83.1" cy="100.04" rx="0.67" ry="0.48" transform="translate(-31.63 161.28) rotate(-78.38)"/><ellipse class="cls-33" cx="80.5" cy="99.37" rx="0.67" ry="0.48" transform="translate(-33.05 158.21) rotate(-78.38)"/><ellipse class="cls-33" cx="82.45" cy="102.19" rx="0.48" ry="0.67" transform="translate(-5.45 4.64) rotate(-3.12)"/><ellipse class="cls-33" cx="80.09" cy="101.4" rx="0.48" ry="0.67" transform="translate(-5.41 4.51) rotate(-3.12)"/><ellipse class="cls-34" cx="83.2" cy="94.49" rx="0.48" ry="0.67" transform="translate(-6.67 6.32) rotate(-4.18)"/><ellipse class="cls-34" cx="83.35" cy="96.66" rx="0.48" ry="0.67" transform="translate(-6.83 6.33) rotate(-4.18)"/><ellipse class="cls-34" cx="80.75" cy="96.16" rx="0.48" ry="0.67" transform="matrix(1, -0.07, 0.07, 1, -6.8, 6.14)"/><ellipse class="cls-34" cx="80.27" cy="94" rx="0.48" ry="0.67" transform="translate(-6.64 6.1) rotate(-4.18)"/><ellipse class="cls-33" cx="79.41" cy="90.47" rx="0.48" ry="0.67" transform="matrix(0.98, -0.21, 0.21, 0.98, -17.22, 18.69)"/><ellipse class="cls-33" cx="79.11" cy="88.4" rx="0.48" ry="0.67" transform="translate(-7.44 7.27) rotate(-5.03)"/><ellipse class="cls-34" cx="82.44" cy="85.28" rx="0.67" ry="0.48" transform="translate(-15.38 152.37) rotate(-80.41)"/><ellipse class="cls-34" cx="82.93" cy="83.55" rx="0.67" ry="0.48" transform="translate(-13.26 151.41) rotate(-80.41)"/><ellipse class="cls-34" cx="79.27" cy="84.85" rx="0.67" ry="0.48" transform="translate(-17.59 148.88) rotate(-80.41)"/><ellipse class="cls-34" cx="79.69" cy="82.88" rx="0.67" ry="0.48" transform="translate(-15.3 147.66) rotate(-80.41)"/></g><path class="cls-36" d="M58.67,124.86a4.14,4.14,0,0,0,3.27,1.1,13.51,13.51,0,0,0,3.45-.85c5.18-1.72,11-2.9,16-.89,1.66.66,4.16,2,5.67,1,1.14-.71.87-2.54,1.09-3.87.45-2.68.86-5.6-.47-8-1.17-2.1-3.46-3.31-5.72-4.12a17.49,17.49,0,0,0-5.19-1.14c-3.55-.17-7,1.15-10.2,2.7a16.32,16.32,0,0,0-4.07,2.55c-2.78,2.54-3.77,6.45-4.56,10.13l.79,0"/><path class="cls-37" d="M71.79,133.7l.46,1.45s0,1.65-2.18,3.22a16.9,16.9,0,0,0-3.82,3.93,7.87,7.87,0,0,1-6,3.88c-3.86.28-3.6-3.78-3.6-3.78l9.09-7.6Z"/><path class="cls-38" d="M71.07,133.32a.74.74,0,0,1,.67,1.14,9.57,9.57,0,0,1-3,3.62,11.38,11.38,0,0,0-2.67,3c-.25.41-3.12,4.18-5.85,4.43s-4.88-3-2.56-5.12,8.86-7.66,8.86-7.66Z"/><path class="cls-2" d="M69.3,127.78s1,3.47,1.39,4.41,1.89,2.64-1.15,4.59a10.39,10.39,0,0,0-4.18,4.56,10.26,10.26,0,0,1-4.29,3.15c-1.82.51-2-.68-2-.68a1.14,1.14,0,0,1-1.11-.95,1.53,1.53,0,0,1-.38-.88s-.25-.17-.2-.73a.83.83,0,0,1,.09-1,30.15,30.15,0,0,1,2.81-2.9c1.32-1.24,3.87-4.3,3-7.34S68.83,126.59,69.3,127.78Z"/><path class="cls-38" d="M64.14,142.34a3.81,3.81,0,0,0-1.53-.67,4.09,4.09,0,0,0-1.83.22c-1,.31-2.22,1-2.15,2.2,0,.59.95.59.92,0,0-.86,1-1.17,1.63-1.36a2.93,2.93,0,0,1,1.31-.16,3.13,3.13,0,0,1,1.18.56.46.46,0,0,0,.63-.16.47.47,0,0,0-.16-.63Z"/><path class="cls-38" d="M61.11,142.17A4.63,4.63,0,0,0,58,139.43a.48.48,0,0,0-.56.32.46.46,0,0,0,.32.56,3.63,3.63,0,0,1,.45.1,1.81,1.81,0,0,1,.35.16c.14.07.27.16.4.24l0,0h0l.09.08.17.15.34.36.24.33a9.52,9.52,0,0,1,.52.87.47.47,0,0,0,.63.17.48.48,0,0,0,.16-.63Z"/><path class="cls-2" d="M60.37,118c-.1.46,3.07,12.89,3.07,12.89l6.61-.65-3.6-15.45S61.34,113.19,60.37,118Z"/><path class="cls-37" d="M74.77,133.45l-.34,1.48s.15,1.64,2.41,3A16.73,16.73,0,0,1,81,141.61a7.89,7.89,0,0,0,6.3,3.41c3.86,0,3.3-4,3.3-4l-9.65-6.89Z"/><path class="cls-38" d="M75.46,133a.75.75,0,0,0-.58,1.2,9.48,9.48,0,0,0,3.32,3.37,11.53,11.53,0,0,1,2.89,2.84c.28.39,3.42,3.93,6.16,4s4.64-3.39,2.17-5.3-9.41-7-9.41-7Z"/><path class="cls-2" d="M76.81,127.36s-.76,3.54-1.06,4.5-1.68,2.78,1.5,4.49a10.45,10.45,0,0,1,4.52,4.23,10.11,10.11,0,0,0,4.5,2.82c1.86.37,2-.83,2-.83a1.15,1.15,0,0,0,1-1,1.53,1.53,0,0,0,.32-.9s.23-.19.14-.75a.82.82,0,0,0-.17-1,30.47,30.47,0,0,0-3-2.69c-1.41-1.13-4.19-4-3.58-7.08S77.19,126.14,76.81,127.36Z"/><path class="cls-38" d="M83.64,142.19a2.85,2.85,0,0,1,1-.58,2.53,2.53,0,0,1,1.31,0c.64.13,1.75.35,1.76,1.2a.46.46,0,0,0,.92,0,1.86,1.86,0,0,0-.72-1.4,3.83,3.83,0,0,0-1.64-.67,3.91,3.91,0,0,0-1.8-.08,3.84,3.84,0,0,0-1.53.84.46.46,0,1,0,.65.65Z"/><path class="cls-38" d="M86.87,141.52a7.69,7.69,0,0,1,.45-.91c.08-.14.17-.28.26-.41l.07-.1s.07-.08,0,0l.17-.2a3.14,3.14,0,0,1,.32-.31l.08-.07c.11-.09-.07,0,0,0l.18-.12a2.42,2.42,0,0,1,.39-.21l0,0,.1,0,.24-.06a.46.46,0,1,0-.25-.88,4.61,4.61,0,0,0-2.93,2.95.45.45,0,0,0,.16.62.47.47,0,0,0,.63-.16Z"/><path class="cls-2" d="M85,116.93c.13.46-2.09,13.08-2.09,13.08l-6.63-.14,2.41-15.68S83.64,112.21,85,116.93Z"/><path class="cls-9" d="M63.77,108.53c-3.08.7-6.11,2.37-7.51,5.21-1.89,3.88-.36,8.86,2.93,11.66A10.36,10.36,0,0,1,61,121.28c2-2.62,5.8-1.4,9-2.1,3.64-.79,6.27-2.29,9.78-1s7.39,3.29,7.26,7c2.27-1.64,2.53-4.88,2.47-7.68a12.28,12.28,0,0,0-.73-4.64c-1.34-3.11-4.89-4.7-8.25-5s-6.73.39-10.11.47c-.88,0-1.76,0-2.64,0A23.73,23.73,0,0,0,63.77,108.53Z"/><g class="cls-39"><path class="cls-12" d="M52.6,119.54s4.5-.09,4.95-4.2"/><path class="cls-13" d="M52.93,120s4.5-.09,5-4.19"/><path class="cls-14" d="M53.26,120.55s4.5-.09,5-4.2"/><path class="cls-15" d="M53.59,121.05s4.5-.09,4.95-4.19"/><path class="cls-12" d="M60.82,110.6S65,112.31,67,108.73"/><path class="cls-13" d="M60.93,111.19s4.16,1.72,6.21-1.87"/><path class="cls-14" d="M61,111.79s4.16,1.71,6.21-1.87"/><path class="cls-15" d="M61.13,112.38s4.16,1.72,6.22-1.87"/><path class="cls-12" d="M78,109.92s3.35,3,6.48.3"/><path class="cls-13" d="M77.91,110.51s3.35,3,6.48.3"/><path class="cls-14" d="M77.81,111.11s3.35,3,6.48.3"/><path class="cls-15" d="M77.71,111.7s3.35,3,6.48.3"/><path class="cls-12" d="M86.82,116.34s2.49,3.75,6.19,1.93"/><path class="cls-13" d="M86.57,116.89s2.49,3.75,6.19,1.93"/><path class="cls-14" d="M86.33,117.44s2.48,3.75,6.19,1.93"/><path class="cls-15" d="M86.08,118s2.48,3.75,6.19,1.93"/><path class="cls-12" d="M68,116.52s4.46.56,5.49-3.43"/><path class="cls-13" d="M68.24,117.07s4.47.56,5.5-3.44"/><path class="cls-14" d="M68.5,117.61s4.46.57,5.5-3.43"/><path class="cls-15" d="M68.75,118.16s4.47.57,5.5-3.43"/></g><path class="cls-40" d="M59.14,108.13a13.11,13.11,0,0,0,2.28-2.42A5.21,5.21,0,0,1,62,105c.43-.37,1-.52,1.41-.93a3.42,3.42,0,0,0,.68-2.16,3.59,3.59,0,0,0-.17-1.73,2.77,2.77,0,0,0-1.69-1.28c-.26-.09-.58-.22-.64-.52,0-.1,0-.23-.08-.31s-.35,0-.47.15A10.47,10.47,0,0,0,59.62,101c-.6,1.5-1.2,3-1.68,4.55a3.89,3.89,0,0,0-.25,1.47,1.36,1.36,0,0,0,.73,1.18,1.86,1.86,0,0,0,.41.08"/><ellipse class="cls-41" cx="70.89" cy="106.57" rx="5.84" ry="1.01"/><polygon class="cls-41" points="61.84 98.78 65.05 106.57 76.73 106.57 79.95 98.78 61.84 98.78"/><ellipse class="cls-42" cx="70.89" cy="98.78" rx="9.05" ry="1.57"/><g class="cls-43"><path class="cls-44" d="M81.71,100.31l0-.09a.78.78,0,0,0-.45-.78,8.88,8.88,0,0,0-.91-.32c-.75-.28-1.37-1-2.17-1a5.9,5.9,0,0,0-.72.09c-1,.1-2-.53-3-.55-.52,0-1,.15-1.55.19l-.72,0a8.69,8.69,0,0,0-1.68-.22,6.79,6.79,0,0,0-1.09.22c-.47,0-.94,0-1.39.08a5,5,0,0,0-.67-.13,5.42,5.42,0,0,0-1.93.37c-.92.24-1.89.29-2.82.49a3.87,3.87,0,0,0-2.41,1.42l-.08.11,0,.06-.1.14h0a1,1,0,0,0-.08.37c0,1.62,4.9,2.93,10.94,2.93s11-1.31,11-2.93A.85.85,0,0,0,81.71,100.31Z"/><path class="cls-45" d="M63.74,98.61a.22.22,0,0,0-.16,0c-.06,0-.11.08-.08.13a.12.12,0,0,0,.07,0,1.85,1.85,0,0,0,.81.09,7.91,7.91,0,0,0,1.18-.22L67,98.27a.74.74,0,0,0,.36-.16A1,1,0,0,0,66.7,98a4,4,0,0,0-.67.21,6.88,6.88,0,0,1-2.15.41Z"/><path class="cls-46" d="M73.15,98.16a4.35,4.35,0,0,1-.88,0h0a.07.07,0,0,0,0,.11.42.42,0,0,0,.12,0,1,1,0,0,1,.34.09,1,1,0,0,0,.27.1.72.72,0,0,0,.51-.2l.2-.16,0,0s0-.08,0-.09a.14.14,0,0,0-.11,0,1.45,1.45,0,0,0-.35.12"/><path class="cls-46" d="M68.8,98.18a5.63,5.63,0,0,0,.82,0,.23.23,0,0,1,.14,0,.69.69,0,0,1-.5.19,1.7,1.7,0,0,1-.54-.09s-.06,0-.07,0a.07.07,0,0,1,0-.06s0,0,0,0"/><path class="cls-46" d="M79.42,100.9a8.9,8.9,0,0,0-1.26.09,4.84,4.84,0,0,1-1.2-.06c0,.13.18.18.3.21a3.15,3.15,0,0,0,1,.13c.19,0,.39-.07.58-.09s.37,0,.56,0a.82.82,0,0,0,.49-.24.4.4,0,0,0-.37,0"/><path class="cls-46" d="M79.47,99.12a5.86,5.86,0,0,0-.75.17.52.52,0,0,0-.13.06.12.12,0,0,0,0,.12c0,.06.07.09.12.11a3.39,3.39,0,0,0,1.19.08.49.49,0,0,0,.24,0,.16.16,0,0,0,.07-.21.19.19,0,0,0-.2-.07.45.45,0,0,1-.23,0,.17.17,0,0,1,.16-.14.3.3,0,0,0-.27-.07"/><path class="cls-45" d="M69.92,97.89a2.27,2.27,0,0,1,1.39-.06,1.29,1.29,0,0,1,.28.08.31.31,0,0,1,.18.21,2.11,2.11,0,0,1-.66,0A4.33,4.33,0,0,1,70,98a.22.22,0,0,1-.13-.1"/><path class="cls-45" d="M75.23,97.94a.65.65,0,0,0-.47-.09s-.08,0-.08.07,0,0,0,0a.5.5,0,0,0,.29.14,3.23,3.23,0,0,0,.93.15.11.11,0,0,0,0-.11l-.1-.07a1.29,1.29,0,0,0-.51-.14"/><path class="cls-45" d="M72.41,99.77l-.26-.2-.09,0s-.08,0-.08.06,0,0,0,.06a1.16,1.16,0,0,0,.38.35c.05,0,.13,0,.16,0a.19.19,0,0,0-.11-.23"/><path class="cls-4" d="M74.76,101.09a.4.4,0,0,0-.08.3,12.42,12.42,0,0,0,3.29,0c.76-.18,0-1,0-1l-2.36.5Z"/><path class="cls-47" d="M75,100.94a12.71,12.71,0,0,1,2.33-.66c.5,0,.8,0,.58.2a9.83,9.83,0,0,1-2.63.66C74.79,101.14,74.55,101.2,75,100.94Z"/><ellipse class="cls-48" cx="76.93" cy="100.46" rx="0.38" ry="0.1" transform="translate(-12.43 10.88) rotate(-7.49)"/><path class="cls-4" d="M68.86,100.65a.87.87,0,0,0-.13.62c.09.28,2.39.37,2.56.34a1.77,1.77,0,0,0,1-.55c.17-.31-.16-.62-.16-.62l-2,0Z"/><g class="cls-49"><path class="cls-50" d="M70.77,100.23s.83.89.4,1.65l1.52-.12s-.27-1.29-.27-1.29l-.2-.23L70.61,100l.16.22"/></g><path class="cls-47" d="M70.11,100.18a9.19,9.19,0,0,1,1.94.21c.41.18-.56.53-.92.53s-2.6-.11-2.23-.29A4.58,4.58,0,0,1,70.11,100.18Z"/><path class="cls-4" d="M64.06,100a7.46,7.46,0,0,0-.19.89c0,.35,1.38.88,1.75.85a5.62,5.62,0,0,0,2.13-.84c.32-.33-.35-.9-.35-.9l-2.59,0Z"/><g class="cls-51"><path class="cls-3" d="M65.4,99.32s.06,1,.13,1.32.27,1,.07,1.21l.78.19,1.9-.15-.35-2.21Z"/></g><path class="cls-47" d="M64.29,99.9l1.41-.28c.54-.12,1.24.27,1.65.35s-1.45.64-1.82.67S63.44,100,64.29,99.9Z"/><path class="cls-3" d="M76,98.37a3.79,3.79,0,0,0-.25.56c-.07.22,1,.6,1.62.59a1.05,1.05,0,0,0,.92-.73c0-.06.1-.73-.06-.81l-1.59.38Z"/><g class="cls-52"><path class="cls-4" d="M75.57,97.79l-.18,1.5,2.07.55a1.35,1.35,0,0,0-.19-1.29,4.73,4.73,0,0,1-.77-1.06Z"/></g><path class="cls-47" d="M76.09,98.28a3.35,3.35,0,0,0,.8-.56s0-.06.18,0l1.06.24c.16,0,.1.15.07.18s-.25.51-.53.65-.34.13-.74.06S75.6,98.48,76.09,98.28Z"/><ellipse class="cls-48" cx="77.28" cy="97.93" rx="0.1" ry="0.36" transform="translate(-30.22 161.22) rotate(-82.21)"/><ellipse class="cls-48" cx="76.84" cy="98.09" rx="0.07" ry="0.25" transform="translate(-30.76 160.93) rotate(-82.21)"/><path class="cls-4" d="M71.23,99s-.18.46,0,.67,1.54.16,1.85.17a2.6,2.6,0,0,0,1.4-.21c.35-.26.09-.78.09-.78L71.61,99Z"/><g class="cls-53"><path class="cls-3" d="M73.93,98.45s.81.85.2,1.63l.7-.32V98.54l-.26-.24Z"/></g><path class="cls-47" d="M72.45,98.65a8.75,8.75,0,0,1,2,.18c.22.17-.38.31-1.37.3s-2.32,0-1.77-.19A4.39,4.39,0,0,1,72.45,98.65Z"/><path class="cls-4" d="M67,98.24a2.54,2.54,0,0,0-.09.57c0,.2,1,.24,1.56.27a4,4,0,0,0,1.49-.18c.17-.11-.11-.63-.11-.63s-.89-.1-1.89-.13S67,98.24,67,98.24Z"/><path class="cls-47" d="M67.7,97.92a4.47,4.47,0,0,0-.74.32,11,11,0,0,0,2.85,0,1.4,1.4,0,0,0-.68-.31A11.93,11.93,0,0,0,67.7,97.92Z"/><ellipse class="cls-48" cx="68" cy="98.05" rx="0.19" ry="0.05"/><ellipse class="cls-48" cx="68.97" cy="98.16" rx="0.09" ry="0.38" transform="translate(-31.05 164.4) rotate(-88.42)"/><path class="cls-4" d="M62.9,98.62a1.19,1.19,0,0,0-.07.59c.06.21.71.32,1.11.32a2.82,2.82,0,0,0,1.25-.23c.21-.14-.15-.71-.15-.71Z"/><path class="cls-47" d="M63.93,98.3a2.48,2.48,0,0,1,1.05.22c.41.24-1.11.37-1.4.33s-1-.09-.51-.35A1.4,1.4,0,0,1,63.93,98.3Z"/><path class="cls-44" d="M63.6,100.56s.22-.15.64.31.85.24,1.33.29.52.24,1,0,.32-.35.76-.5.48-.35.69-.23.42.62.33.7l-.42.36-1.54.43a6.76,6.76,0,0,1-.85,0c-.34,0-1.88-.26-1.88-.26a.4.4,0,0,1-.06-.3C63.58,101.19,63.6,100.56,63.6,100.56Z"/><path class="cls-44" d="M68.39,101.1a1.5,1.5,0,0,1,1,.14,2.29,2.29,0,0,0,1.49.2,4.8,4.8,0,0,1,.9-.16.52.52,0,0,0,.45-.26c.11-.16,0-.26.2-.3s.39.21.39.21l-.21.52-1.12.31c-.07,0-.61,0-.8,0s-1.55,0-1.71,0-.34,0-.45-.06-.3-.21-.3-.25A4.34,4.34,0,0,1,68.39,101.1Z"/><path class="cls-44" d="M74.31,101.4a1.69,1.69,0,0,1,.9,0,1.61,1.61,0,0,0,1.13,0,4.13,4.13,0,0,1,1-.2,7.84,7.84,0,0,0,.8,0,2,2,0,0,1,.28-.23c.05,0,.37.28.37.28s-.2.38-.49.45-3,.17-3,.17l-.65,0C74.47,101.76,74.31,101.4,74.31,101.4Z"/><path class="cls-44" d="M62.69,99a2.53,2.53,0,0,1,.55.17,1.22,1.22,0,0,0,1,0c.39-.11.45,0,.75,0s.14-.23.55-.17.79-.19,1.29-.3a2.13,2.13,0,0,1,1.16.14,1,1,0,0,0,.8,0,2.46,2.46,0,0,1,1-.11.3.3,0,0,0,.26,0c.1,0,.72.22.67.41s.29.41.29.41,0-.18.81,0a3,3,0,0,0,1.66.07,2.82,2.82,0,0,1,.84-.15c.07,0,.12-.26.35-.22a4.35,4.35,0,0,1,.58.16l.07-.54a1.49,1.49,0,0,1,.93.26,1.09,1.09,0,0,0,1.1.11c.16-.07.09-.17.37-.14s.29-.08.41-.3.11-.36.24-.29.14.47.13.5a5.41,5.41,0,0,1-.34.69c-.08.09-.31.18-.85.28l-.86.16-2,.23-1.89,0c-.28,0-.81,0-1.3-.1L70.13,100l-1-.13-2.51-.3-1.26,0-1.85.18-.92-.19c-.05,0-.42-.29-.42-.29Z"/><ellipse class="cls-54" cx="74.11" cy="100.53" rx="0.25" ry="0.04"/><ellipse class="cls-54" cx="75.34" cy="99.1" rx="0.25" ry="0.04"/><ellipse class="cls-54" cx="68.34" cy="99.48" rx="0.58" ry="0.07"/><ellipse class="cls-54" cx="79.57" cy="99.93" rx="0.58" ry="0.07"/><ellipse class="cls-54" cx="62.48" cy="99.98" rx="0.58" ry="0.07"/><path class="cls-55" d="M63.11,100.44l-.09,0s-.08,0-.09,0,0,0,0,0l.07,0h-.11s-.07,0-.07,0,0,0,.07,0h.13s-.08,0-.06.07l.07,0a.22.22,0,0,0,.17-.05s0,0,0,0h.1a.13.13,0,0,0,.09,0s0,0,0,0a.52.52,0,0,0,.18,0l.08,0s0,0-.05-.06a.38.38,0,0,0-.15,0,.19.19,0,0,0,.1,0s0,0,0-.06h-.11l-.1,0s0-.06,0-.07-.1,0-.11,0,0,0-.07,0-.07,0,0,.05"/><path class="cls-55" d="M67.55,101a.44.44,0,0,0-.17-.07c-.07,0-.16,0-.18,0s0,0,.06.07a.37.37,0,0,0,.15,0H67.2c-.06,0-.13,0-.14.07s.06.08.14.1a1,1,0,0,0,.24,0c-.07,0-.16.09-.12.14a.25.25,0,0,0,.13.05.39.39,0,0,0,.32-.11s0,.07.07.09a.47.47,0,0,0,.17,0,.31.31,0,0,0,.17,0s0-.07,0-.09a1,1,0,0,0,.34,0,.39.39,0,0,0,.14,0c.06,0,0-.11-.08-.13a.88.88,0,0,0-.28,0,.28.28,0,0,0,.18-.09s0-.1-.07-.12a.27.27,0,0,0-.2,0A.76.76,0,0,0,68,101c.06,0,0-.11-.06-.12s-.2,0-.21.07,0-.09-.13-.08-.14.06-.1.1"/><path class="cls-55" d="M66.29,98.73l-.09,0s-.08,0-.09,0,0,0,0,0l.07,0H66.1s-.07,0-.07,0,0,0,.07,0h.13s-.08,0-.06.07l.07,0a.22.22,0,0,0,.17,0s0,0,0,0h.1a.13.13,0,0,0,.09,0s0,0,0,0a.52.52,0,0,0,.18,0l.08,0s0,0,0-.06a.38.38,0,0,0-.15,0,.19.19,0,0,0,.1,0s0,0,0-.06h-.11l-.1,0s0-.06,0-.07-.1,0-.11,0,0,0-.07,0-.07,0,0,0"/><path class="cls-55" d="M70.89,98.41l-.09,0s-.08,0-.09,0,0,0,0,0l.08,0h-.11s-.08,0-.08,0,0,0,.07,0a.56.56,0,0,0,.13,0s-.08,0-.06.07l.07,0a.22.22,0,0,0,.17-.05s0,0,0,0a.16.16,0,0,0,.1,0,.13.13,0,0,0,.09,0s0,0,0,0a.52.52,0,0,0,.18,0l.08,0s0,0,0-.06a.38.38,0,0,0-.15,0,.19.19,0,0,0,.1,0s0,0,0-.06h-.11l-.09,0s0-.06,0-.07-.1,0-.11,0,0,0-.07,0-.07,0,0,.05"/><path class="cls-55" d="M76.47,99.63l-.14,0a.33.33,0,0,0-.15,0s0,0,0,0h0c-.05,0-.11,0-.12,0s0,0,.12,0a1.33,1.33,0,0,0,.2,0c-.06,0-.13,0-.1,0l.11,0a.56.56,0,0,0,.26,0s0,0,0,0H77s0,0,0,0a1.27,1.27,0,0,0,.28,0h.12s0,0-.07,0a.88.88,0,0,0-.23,0,.34.34,0,0,0,.15,0s0,0-.06,0a.48.48,0,0,0-.17,0l-.15,0c.06,0,0,0,0,0s-.17,0-.17,0,0,0-.12,0-.11,0-.08,0"/><path class="cls-55" d="M73.88,101.18l-.09,0s-.09,0-.1,0a.05.05,0,0,0,0,0h0s-.07,0-.07,0,0,0,.07,0a.29.29,0,0,0,.13,0s-.09,0-.06.07,0,0,.07,0,.14,0,.16-.06a.05.05,0,0,0,0,0h.09l.1,0s0,0,0,0a.52.52,0,0,0,.18,0l.07,0s0-.06,0-.07h-.15a.23.23,0,0,0,.1,0s0,0,0-.07h-.11l-.1,0s0,0,0-.06-.1,0-.11,0,0,0-.07,0-.07,0,0,0"/></g><path class="cls-5" d="M61.84,83.56a3.72,3.72,0,0,0-1.78,1.64c-1.38,2.25-1.51,5-2.59,7.47a36.91,36.91,0,0,1-2.85,4.63,11.82,11.82,0,0,0-1.92,5,6.13,6.13,0,0,0,1.64,5,4.21,4.21,0,0,0,5,.66c1.55-1,2-3,2.24-4.85a33.76,33.76,0,0,0,.15-3.48,19.62,19.62,0,0,1,0-2.87,30.61,30.61,0,0,1,.81-3.27,15.8,15.8,0,0,0-.78-9.79"/><g class="cls-56"><g class="cls-57"><path class="cls-1" d="M58.26,109.5a1.09,1.09,0,0,1-1.38.18,2.25,2.25,0,0,1-.89-1.42,10.52,10.52,0,0,1-.31-2.85,12.64,12.64,0,0,1,1.46-5.78,36.13,36.13,0,0,0,2.53-4.81c.64-1.82,1-3.74,1.47-5.6A11,11,0,0,1,64,83.89a.1.1,0,0,0-.14-.14c-3.15,3-3,7.66-4.51,11.44-.81,2.06-2.25,3.79-3,5.87a12.79,12.79,0,0,0-.68,6.25,3.54,3.54,0,0,0,1,2.45,1.3,1.3,0,0,0,1.76-.12c.08-.1-.06-.24-.14-.14Z"/></g><g class="cls-57"><path class="cls-1" d="M63.88,83.62a9.84,9.84,0,0,0-3.55,3.83c-1,1.94-1.29,4.17-2.19,6.16-1.69,3.75-4.49,7.49-3.94,11.83a8.78,8.78,0,0,0,2.66,5.19.1.1,0,0,0,.14-.14,8.45,8.45,0,0,1-2.56-4.79,11.24,11.24,0,0,1,.93-6c.79-1.93,1.87-3.71,2.75-5.59a21.51,21.51,0,0,0,1-2.55c.3-1,.52-2,.87-2.91a9.62,9.62,0,0,1,4-4.87.1.1,0,0,0-.1-.17Z"/></g><g class="cls-57"><path class="cls-1" d="M64.38,86C61.43,88.7,61,92.91,59.79,96.48c-1.15,3.39-2.68,7.1-1.3,10.66a4.7,4.7,0,0,0,1.39,2.15c.23.15.61.09.4-.25a.08.08,0,0,0-.08,0h-.07c-.12,0-.12.2,0,.19-.36,0-.81-.84-1-1.12a6,6,0,0,1-.61-1.34,8.68,8.68,0,0,1-.41-2.82,19.2,19.2,0,0,1,1.39-6.09c.71-2.06,1.25-4.15,1.89-6.23a11.83,11.83,0,0,1,3.09-5.42c.1-.08,0-.22-.13-.14Z"/></g><g class="cls-57"><path class="cls-1" d="M64.27,89.7a20.91,20.91,0,0,0-3,19.61c0,.12.23.07.19,0a20.74,20.74,0,0,1,3-19.47c.07-.1-.1-.19-.17-.09Z"/></g><path class="cls-16" d="M60.56,82.87c.08,3.17,2.34,6,2.11,9.21a15.6,15.6,0,0,0-.26,2.8c0,.32.23.72.55.66a.76.76,0,0,0,.32-.19,4.08,4.08,0,0,0,.83-1,3.74,3.74,0,0,0,.3-1.37c.1-1.13.17-2.26.21-3.4a15.42,15.42,0,0,0-.88-6.92,2.94,2.94,0,0,0-.76-1.1,1.25,1.25,0,0,0-1.25-.24c-.56.24-.75.93-.87,1.53"/></g><path class="cls-2" d="M61.78,101.24a.91.91,0,0,0-.55.5,1.28,1.28,0,0,0,.28,1.36,2.84,2.84,0,0,0,1.28.71,7,7,0,0,0,3.85,0c.23-.06.49-.17.56-.4A.5.5,0,0,0,67,103a1.3,1.3,0,0,0-.51-.22,7.18,7.18,0,0,0-1.6-.23,6.11,6.11,0,0,1-1.05-.05,4.26,4.26,0,0,1-1.94-1.06.3.3,0,0,1-.09-.1Z"/><path class="cls-58" d="M66.33,102.85l.09.82s0,0,0,0l0,0a.44.44,0,0,0,.47-.44c0-.24-.3-.52-.54-.46Z"/><path class="cls-2" d="M62,102.48a.9.9,0,0,0-.49.45,1.17,1.17,0,0,0,.25,1.23,2.6,2.6,0,0,0,1.15.63,6.26,6.26,0,0,0,3.46,0c.2,0,.44-.15.5-.36a.45.45,0,0,0-.17-.44,1.06,1.06,0,0,0-.46-.2,6.24,6.24,0,0,0-1.43-.2,6,6,0,0,1-.95,0,3.78,3.78,0,0,1-1.74-1l-.08-.09Z"/><path class="cls-58" d="M66.11,103.94l.08.73s0,0,0,0h0a.38.38,0,0,0,.42-.39c0-.22-.27-.47-.48-.41Z"/><path class="cls-2" d="M62.7,104.26a.65.65,0,0,0-.3.37.82.82,0,0,0,.31.84,1.78,1.78,0,0,0,.87.33,4.53,4.53,0,0,0,2.44-.32.49.49,0,0,0,.32-.31.32.32,0,0,0-.17-.29,1,1,0,0,0-.34-.1,4,4,0,0,0-1,0,5.21,5.21,0,0,1-.67.06,2.75,2.75,0,0,1-1.33-.5l-.06,0Z"/><path class="cls-58" d="M65.73,104.87l.14.51a0,0,0,0,0,0,0h0a.28.28,0,0,0,.26-.32c0-.16-.24-.31-.38-.24Z"/><path class="cls-2" d="M62.31,99.73a.93.93,0,0,0-.56.41,1.18,1.18,0,0,0,.12,1.28,2.57,2.57,0,0,0,1.1.79,6.54,6.54,0,0,0,3.55.46c.22,0,.47-.11.55-.31a.46.46,0,0,0-.12-.48,1.39,1.39,0,0,0-.44-.26,6.74,6.74,0,0,0-1.45-.38,6.13,6.13,0,0,1-1-.15,4,4,0,0,1-1.67-1.2.25.25,0,0,1-.07-.09Z"/><path class="cls-58" d="M66.34,101.71v.76a.07.07,0,0,0,0,0s0,0,0,0a.4.4,0,0,0,.48-.35c0-.23-.22-.51-.45-.48Z"/><path class="cls-59" d="M84.15,98.53,77,97.45a.17.17,0,0,0-.19.19h0a.19.19,0,0,0,.14.13l7.13,1.08"/><path class="cls-59" d="M71.62,96.7s-.25,1,1.17,1.64a5.13,5.13,0,0,0,2.68.4s1.43-.15,1.59-1.22Z"/><ellipse class="cls-60" cx="74.34" cy="97.11" rx="0.5" ry="2.75" transform="translate(-32.79 156.1) rotate(-81.4)"/><path class="cls-5" d="M83.84,83.7s4.55,3.33,6.4,7,5.81-8.4,7.38-8.68,3.88,9.51,4.62,11.82-8.59,9.51-12.1,7.29-5.61-4.94-5.57-5.47S81.69,87.49,83.84,83.7Z"/><g class="cls-61"><path class="cls-62" d="M82.16,84.9a12.85,12.85,0,0,1,4.53,4.17,15.07,15.07,0,0,0,2,2.81,3.91,3.91,0,0,0,4.56.69c1.32-.81,1.86-2.44,2.19-3.95s.59-3.14,1.64-4.28a4,4,0,0,1,3.13-1.26"/><path class="cls-62" d="M82.87,87.94A7.93,7.93,0,0,1,86,91.39a11.16,11.16,0,0,0,2.85,3.75,5,5,0,0,0,7.18-1.42,6.27,6.27,0,0,0,.86-2.49,15.11,15.11,0,0,1,.38-2.41,2.37,2.37,0,0,1,1.6-1.7c.51-.11,1.09,0,1.55-.23"/><path class="cls-62" d="M102.64,89.06a4,4,0,0,0-3.43,1.84,34.12,34.12,0,0,0-1.33,3.5,5.9,5.9,0,0,1-4.13,3.1,8,8,0,0,1-5.19-.84,9.57,9.57,0,0,1-3.72-3.45,8.81,8.81,0,0,0-.93-1.41,1.93,1.93,0,0,0-1.48-.71"/><path class="cls-62" d="M83.06,94.59a9.61,9.61,0,0,1,4.21,2.54,14.51,14.51,0,0,0,2.16,2.2,5.49,5.49,0,0,0,4.76.44,12.89,12.89,0,0,0,4.16-2.62,14.63,14.63,0,0,0,3.36-3.75,3.41,3.41,0,0,1,.87-1.17,1.92,1.92,0,0,1,1.54-.2,6.08,6.08,0,0,1,1.43.69"/><path class="cls-16" d="M86.36,83.7s-2.31,1.66-2.22,6.93a30.54,30.54,0,0,0,1,8.12L80.8,96.83l-.17-13.59.47-1.75,2.49-.37Z"/></g><path class="cls-2" d="M100,79.9a29.49,29.49,0,0,1,1.92-3.42c.36-.26.66,0,.37.77s-1.34,3-1.34,3l-.92.37Z"/><path class="cls-2" d="M100.83,80.4a27.55,27.55,0,0,1,2.25-3.2c.38-.23.66,0,.29.8s-1.62,2.81-1.62,2.81l-1,.27Z"/><path class="cls-2" d="M101.46,81.29a27.68,27.68,0,0,1,2.52-3c.39-.19.65.09.22.82s-1.86,2.66-1.86,2.66l-1,.2Z"/><path class="cls-2" d="M101.78,82.77a28.55,28.55,0,0,1,2.61-2.93c.4-.18.65.11.2.83s-1.94,2.6-1.94,2.6l-1,.16Z"/><circle class="cls-63" cx="172.17" cy="42.36" r="1.93"/><circle class="cls-64" cx="172.17" cy="42.36" r="1.93"/><circle class="cls-65" cx="171.32" cy="41.47" r="0.47"/></svg>