<svg id="Layer_4" data-name="Layer 4" xmlns="http://www.w3.org/2000/svg" xmlns:xlink="http://www.w3.org/1999/xlink" viewBox="0 0 260 168"><defs><style>.cls-1,.cls-31{fill:#6ab7be;}.cls-2{fill:#572517;}.cls-3{fill:#9b4a0d;}.cls-4{fill:#a55716;}.cls-5{fill:#b4e1e7;}.cls-6{fill:#130402;}.cls-7{fill:#d5f5f7;}.cls-8{fill:#2a1107;}.cls-29,.cls-9{fill:#60aeb2;}.cls-10,.cls-12,.cls-13,.cls-14,.cls-15,.cls-23,.cls-62{fill:none;}.cls-11{clip-path:url(#clip-path);}.cls-12{stroke:red;}.cls-12,.cls-13,.cls-14,.cls-15,.cls-23{stroke-linecap:round;stroke-linejoin:round;}.cls-12,.cls-13,.cls-14,.cls-15{stroke-width:0.28px;}.cls-13{stroke:#2d5b04;}.cls-14{stroke:#000dff;}.cls-15{stroke:#ffb600;}.cls-16{fill:#fff;}.cls-17{fill:#e2e2e2;}.cls-18{fill:#280f05;}.cls-19{fill:#461d13;}.cls-20{clip-path:url(#clip-path-2);}.cls-21{fill:#431a11;}.cls-22{fill:#1f0e07;}.cls-23{stroke:#280f05;stroke-width:1.82px;}.cls-24{fill:#ff8c26;}.cls-25{fill:#ffe1bd;}.cls-26{fill:#441a12;}.cls-27{clip-path:url(#clip-path-3);}.cls-28{fill:#96c5c7;}.cls-29{opacity:0.37;}.cls-30{clip-path:url(#clip-path-4);}.cls-31{opacity:0.28;}.cls-32{clip-path:url(#clip-path-5);}.cls-33{fill:#ea6e27;}.cls-34{fill:#132995;}.cls-35{clip-path:url(#clip-path-6);}.cls-36{fill:#479e9e;}.cls-37{fill:#c80752;}.cls-38{fill:#ff085f;}.cls-39{clip-path:url(#clip-path-7);}.cls-40{fill:#87c1c6;}.cls-41{fill:#1632b7;}.cls-42{fill:#041e7f;}.cls-43{clip-path:url(#clip-path-8);}.cls-44{fill:#6d3503;}.cls-45{fill:#7c3e0a;}.cls-46{fill:#602e05;}.cls-47{fill:#c96d28;}.cls-48{fill:#e0874b;}.cls-49{clip-path:url(#clip-path-9);}.cls-50{fill:#9b4a0e;}.cls-51{clip-path:url(#clip-path-10);}.cls-52{clip-path:url(#clip-path-11);}.cls-53{clip-path:url(#clip-path-12);}.cls-54{fill:#9e5823;}.cls-55{fill:#58990d;}.cls-56{clip-path:url(#clip-path-13);}.cls-57,.cls-62{opacity:0.51;}.cls-58{fill:#6b2f20;}.cls-59{fill:#f71414;}.cls-60{fill:#d60707;}.cls-61{clip-path:url(#clip-path-14);}.cls-62{stroke:#6ab7be;stroke-miterlimit:10;stroke-width:0.23px;}.cls-63{fill:#fff1e1;}.cls-64{opacity:0.36;fill:url(#radial-gradient);}.cls-65{opacity:0.44;fill:url(#radial-gradient-2);}</style><clipPath id="clip-path"><path class="cls-1" d="M63.92,70.08s-4.12.2-6.11,1.33-.05,3.76-.69,12.3S56,95.39,56.68,100c0,0,3.6,1.58,13.18,1.18s14.21-1.28,14.69-2.47-.08-10.35-1-13.15-.32-12.63-.16-13.45S80.86,70.23,78,70.27C78,70.27,65,71.24,63.92,70.08Z"/></clipPath><clipPath id="clip-path-2"><path class="cls-2" d="M76.05,18.31s-11.7-1.57-18.56,7.89S53.68,50.67,54.61,54s7.08,12.16,17.55,13.24,17.51-8.07,18.75-10.73,6.1-18.69.72-28.69C86.7,18.66,76.05,18.31,76.05,18.31Z"/></clipPath><clipPath id="clip-path-3"><path class="cls-6" d="M66.37,59.39s1.41-2,6.53-1.34c3.32.44,4.77,1.42,5.54,2.13a.92.92,0,0,1-.36,1.54c-.68.2-1,.36-2.77-.27-3.84-1.37-5.37-.58-7-.52S65.49,60.87,66.37,59.39Z"/></clipPath><clipPath id="clip-path-4"><path class="cls-7" d="M56.56,99.18s5.7.06,9.23,1.41,8.62,0,10.77-.46,7.61-3.11,8.92-1.2,6,7.21,5.25,9.46-6.58,6.47-9.85,6a59.91,59.91,0,0,0-11.83-.24,57.07,57.07,0,0,1-11.29.39c-2.87-.39-8.12-1.13-7.08-6.47S54.65,99.82,56.56,99.18Z"/></clipPath><clipPath id="clip-path-5"><path class="cls-8" d="M62.65,69.65c.33,0,2.28,1.76,2,5.59s.39,4.84-1,7.87S63.55,88.93,63,91s-4.56,7.09-6.9,8.37c0,0-.36-8.38.88-13.74s3-11.16.86-14.24C57.81,71.41,61.53,69.48,62.65,69.65Z"/></clipPath><clipPath id="clip-path-6"><path class="cls-8" d="M79.31,69.65c-.33,0-2.28,1.76-2,5.59s-.39,4.84,1,7.87.12,5.82.7,7.91,3.3,6,5.64,7.29c0,0,1.62-7.3.38-12.66s-3-11.16-.86-14.24C84.15,71.41,80.43,69.48,79.31,69.65Z"/></clipPath><clipPath id="clip-path-7"><path class="cls-9" d="M60.29,100.92c-3.66.83-7.26,2.82-8.92,6.2-2.25,4.6-.43,10.53,3.47,13.85A12.35,12.35,0,0,1,57,116.08c2.39-3.11,6.89-1.66,10.73-2.5,4.34-.94,7.45-2.72,11.63-1.23s8.78,3.92,8.63,8.35c2.7-2,3-5.8,2.94-9.13a14.66,14.66,0,0,0-.87-5.52c-1.59-3.69-5.81-5.58-9.81-6s-8,.47-12,.56c-1.05,0-2.1,0-3.14,0A29.11,29.11,0,0,0,60.29,100.92Z"/></clipPath><clipPath id="clip-path-8"><path class="cls-10" d="M79,89.81c0,.77-4.82,1.39-10.11,1.39s-10.27-.62-10.27-1.39S63,84.7,68.32,84.7,79,89,79,89.81Z"/></clipPath><clipPath id="clip-path-9"><path class="cls-4" d="M66.35,91.56a1,1,0,0,0-.16.73c.11.34,2.83.44,3,.4s1-.27,1.18-.64-.18-.74-.18-.74l-2.41,0Z"/></clipPath><clipPath id="clip-path-10"><path class="cls-4" d="M60.63,90.77a9.83,9.83,0,0,0-.22,1.06c0,.41,1.64,1,2.08,1a7,7,0,0,0,2.54-1c.37-.39-.43-1.07-.43-1.07l-3.07,0Z"/></clipPath><clipPath id="clip-path-11"><path class="cls-3" d="M74.78,88.85a5.31,5.31,0,0,0-.3.66c-.08.26,1.14.71,1.93.7a1.27,1.27,0,0,0,1.1-.87c0-.07.11-.86-.08-1l-1.89.45Z"/></clipPath><clipPath id="clip-path-12"><path class="cls-4" d="M69.16,89.6s-.21.56-.06.8,1.83.19,2.2.2A3,3,0,0,0,73,90.36c.42-.31.11-.93.11-.93l-3.46.11Z"/></clipPath><clipPath id="clip-path-13"><path class="cls-5" d="M58,71.25a4.27,4.27,0,0,0-2.11,1.94c-1.64,2.68-1.81,6-3.08,8.89a47.13,47.13,0,0,1-3.39,5.49,14,14,0,0,0-2.29,6,7.3,7.3,0,0,0,2,6,5,5,0,0,0,5.95.79c1.84-1.2,2.43-3.59,2.65-5.77a33.73,33.73,0,0,0,.18-4.14A25.88,25.88,0,0,1,57.94,87a37.24,37.24,0,0,1,1-3.88A18.73,18.73,0,0,0,58,71.48"/></clipPath><clipPath id="clip-path-14"><path class="cls-5" d="M84.15,71.41s5.41,4,7.6,8.34,6.92-10,8.78-10.32,4.61,11.31,5.49,14S95.81,94.79,91.64,92.15,85,86.28,85,85.65,81.6,75.91,84.15,71.41Z"/></clipPath><radialGradient id="radial-gradient" cx="150.18" cy="36.38" r="1.93" gradientUnits="userSpaceOnUse"><stop offset="0.58" stop-color="#c49a6c" stop-opacity="0"/><stop offset="0.62" stop-color="#c89a6c" stop-opacity="0.06"/><stop offset="0.7" stop-color="#d1996c" stop-opacity="0.22"/><stop offset="0.81" stop-color="#e1976c" stop-opacity="0.47"/><stop offset="0.95" stop-color="#f6956c" stop-opacity="0.81"/><stop offset="1" stop-color="#ff946c" stop-opacity="0.95"/></radialGradient><radialGradient id="radial-gradient-2" cx="149.34" cy="35.49" r="0.47" gradientUnits="userSpaceOnUse"><stop offset="0.06" stop-color="#fff" stop-opacity="0"/><stop offset="0.14" stop-color="#fff" stop-opacity="0.06"/><stop offset="0.27" stop-color="#fff" stop-opacity="0.21"/><stop offset="0.46" stop-color="#fff" stop-opacity="0.46"/><stop offset="0.59" stop-color="#fff" stop-opacity="0.65"/><stop offset="0.61" stop-color="#fff" stop-opacity="0.67"/><stop offset="0.71" stop-color="#fff" stop-opacity="0.79"/><stop offset="0.81" stop-color="#fff" stop-opacity="0.88"/><stop offset="0.91" stop-color="#fff" stop-opacity="0.93"/><stop offset="1" stop-color="#fff" stop-opacity="0.95"/></radialGradient></defs><path class="cls-2" d="M101.58,66.21a1.61,1.61,0,0,1,.6-1.39c.33,0,.37.4.4.72.06.74.07,1.64.14,2.39l1.17-2A6.54,6.54,0,0,1,106.74,70a1.16,1.16,0,0,1,.06.55,1.18,1.18,0,0,1-.24.44,8.23,8.23,0,0,1-3.9,2.85c-1.91.66-2.38-1.38-1.89-2.83A17.17,17.17,0,0,0,101.58,66.21Z"/><path class="cls-1" d="M63.92,70.08s-4.12.2-6.11,1.33-.05,3.76-.69,12.3S56,95.39,56.68,100c0,0,3.6,1.58,13.18,1.18s14.21-1.28,14.69-2.47-.08-10.35-1-13.15-.32-12.63-.16-13.45S80.86,70.23,78,70.27C78,70.27,65,71.24,63.92,70.08Z"/><g class="cls-11"><path class="cls-12" d="M65.74,85.3s5.35-.1,5.89-5"/><path class="cls-13" d="M66.14,85.9s5.35-.1,5.89-5"/><path class="cls-14" d="M66.53,86.5s5.35-.1,5.89-5"/><path class="cls-15" d="M66.93,87.1s5.35-.1,5.89-5"/><path class="cls-12" d="M61.16,93.14s5.35-.11,5.88-5"/><path class="cls-13" d="M61.55,93.74s5.35-.11,5.89-5"/><path class="cls-14" d="M62,94.34s5.35-.11,5.88-5"/><path class="cls-15" d="M62.34,94.94s5.35-.11,5.89-5"/><path class="cls-12" d="M68.67,99.09s5.35-.11,5.88-5"/><path class="cls-13" d="M69.06,99.69s5.35-.11,5.89-5"/><path class="cls-14" d="M69.46,100.29s5.34-.11,5.88-5"/><path class="cls-15" d="M69.85,100.89s5.35-.11,5.89-5"/><path class="cls-12" d="M75.33,80.17s5.35-.1,5.88-5"/><path class="cls-13" d="M75.72,80.77s5.35-.1,5.89-5"/><path class="cls-14" d="M76.12,81.37s5.35-.1,5.88-5"/><path class="cls-15" d="M76.51,82s5.35-.1,5.89-5"/><path class="cls-12" d="M75.77,90.28s5.35-.1,5.88-5"/><path class="cls-13" d="M76.16,90.88s5.35-.1,5.89-5"/><path class="cls-14" d="M76.56,91.48s5.35-.1,5.88-5"/><path class="cls-15" d="M77,92.08s5.35-.1,5.89-5"/><path class="cls-16" d="M55.14,69a8.2,8.2,0,0,1,4.73,5.68,17.15,17.15,0,0,1,0,7.61,39.89,39.89,0,0,1-1.08,4.44c-.29,1-.76,2-1.74,2.27-1.5-6.55-3-13.25-2.28-19.93,0-.39.44-.9.68-.6l-.21.7"/></g><path class="cls-2" d="M66.64,65.94v3.88s-1.92.42-3,.58,2.82,9,7.49,9,7.39-7.44,7.71-8.93l-3.67-1V65.44S67.22,63.65,66.64,65.94Z"/><path d="M66,69.79c.63,2,3,2.53,4.84,2.58A6,6,0,0,0,76,70.06c.41-.57-.53-1.11-.94-.55A4.83,4.83,0,0,1,71,71.28c-1.37,0-3.48-.22-4-1.78-.21-.66-1.26-.38-1.05.29Z"/><circle class="cls-17" cx="71.03" cy="72.58" r="1.17"/><path class="cls-18" d="M56,34.78s-.87-4-5.77-3.6-4.25,4.43-4.25,4.43-5.77-.17-6.16,5,2.75,5.2,2.75,5.2a4.64,4.64,0,0,0-1.38,5.59c1.38,3.71,3.5,2.85,3.5,2.85s1.5.15,1.23,2.72,1.74,3.69,5.73,3.36c0,0,7.73,3.33,10,1.29l.86-23.41Z"/><path class="cls-18" d="M93.07,38.62s1.67-3.74,6.39-2.34,3.25,5.2,3.25,5.2,5.68,1,5,6.13S104,52.14,104,52.14a4.63,4.63,0,0,1,.21,5.75c-2.11,3.35-4,2.07-4,2.07s-1.5-.16-1.76,2.41-2.46,3.26-6.3,2.12c0,0-8.24,1.68-10.07-.79l4-23.09Z"/><circle class="cls-19" cx="53.19" cy="45.06" r="5.42" transform="translate(-15.46 32.94) rotate(-30.26)"/><circle class="cls-19" cx="93.32" cy="49.21" r="5.42" transform="translate(-12.08 53.73) rotate(-30.26)"/><path class="cls-2" d="M76.05,18.31s-11.7-1.57-18.56,7.89S53.68,50.67,54.61,54s7.08,12.16,17.55,13.24,17.51-8.07,18.75-10.73,6.1-18.69.72-28.69C86.7,18.66,76.05,18.31,76.05,18.31Z"/><g class="cls-20"><path class="cls-21" d="M51.44,43.12s3.93-9.37,8.3-11.32S69.15,30,75.18,30.59s12.36,2.16,14.06,3.62S95,42.74,94.77,47.37l5-27.86-32.25-6.7s-10.72,1.37-11,1.43S50.7,20,50.7,20Z"/></g><ellipse class="cls-18" cx="75.57" cy="23.16" rx="7.13" ry="1.67" transform="translate(44.76 95.95) rotate(-84.09)"/><path class="cls-22" d="M59.47,41.79A3.76,3.76,0,0,1,57,40.66a2.86,2.86,0,0,0,1,2.39S59.76,43.26,59.47,41.79Z"/><path class="cls-22" d="M59,43.24a3.76,3.76,0,0,1-2.44-1.14,2.86,2.86,0,0,0,1,2.39S59.26,44.71,59,43.24Z"/><circle class="cls-16" cx="62.32" cy="46.84" r="6.25" transform="translate(-15.11 37.79) rotate(-30.26)"/><path d="M62.82,45.23a4.31,4.31,0,0,0-1.08,0,1.78,1.78,0,1,1-2.63,1.6,4.11,4.11,0,1,0,3.71-1.63Z"/><path class="cls-22" d="M88.28,44.56A3.72,3.72,0,0,0,90.91,44a2.85,2.85,0,0,1-1.51,2.13S87.69,46,88.28,44.56Z"/><path class="cls-22" d="M88.47,46.08a3.72,3.72,0,0,0,2.63-.61,2.87,2.87,0,0,1-1.51,2.13S87.88,47.46,88.47,46.08Z"/><circle class="cls-16" cx="84.23" cy="49.1" r="6.25" transform="translate(-13.27 49.13) rotate(-30.26)"/><path d="M84.73,47.5a3.89,3.89,0,0,0-1.08,0A1.77,1.77,0,1,1,81,49.13a4.05,4.05,0,0,0-.8,2,4.11,4.11,0,1,0,4.52-3.66Z"/><path class="cls-6" d="M57.83,36.36a19.85,19.85,0,0,1,10.94,1.13S63.7,30.74,57.83,36.36Z"/><path class="cls-6" d="M80.23,38.67a19.91,19.91,0,0,1,10.94,1.14S86.1,33.06,80.23,38.67Z"/><ellipse class="cls-19" cx="72.96" cy="51.66" rx="1.99" ry="3.08" transform="translate(14.07 118.91) rotate(-84.09)"/><path class="cls-23" d="M72.09,28.19S57.51,27.08,54,34.25"/><path class="cls-23" d="M71.8,24.91s-11.72-.13-16.27,3.85"/><path class="cls-23" d="M72.13,21.78S63.46,21.73,59,24.37"/><path class="cls-23" d="M73.45,18.89A22,22,0,0,0,63.2,20.46"/><path class="cls-23" d="M78.58,28.86s14.5,1.9,16.42,9.63"/><path class="cls-23" d="M79.53,25.71S91,28,94.67,32.81"/><path class="cls-23" d="M79.85,22.58s8.49,1.73,12.32,5.23"/><path class="cls-23" d="M79.15,19.48a22,22,0,0,1,9.71,3.64"/><circle class="cls-24" cx="92.72" cy="60.6" r="3.14" transform="translate(-17.9 54.98) rotate(-30.26)"/><circle class="cls-25" cx="92.86" cy="56.28" r="0.9"/><circle class="cls-24" cx="93.1" cy="53.88" r="0.9"/><circle class="cls-24" cx="51.75" cy="56.36" r="3.14" transform="translate(-21.35 33.76) rotate(-30.26)"/><circle class="cls-25" cx="51.89" cy="52.04" r="0.9"/><circle class="cls-24" cx="52.14" cy="49.64" r="0.9"/><path class="cls-26" d="M72.65,57.07s-3.14-1.43-5.19.55S64.9,60,64.53,60s.84,2.12,2.6,2.16a31.92,31.92,0,0,1,5.12.26,28.05,28.05,0,0,0,4.5.8,4.7,4.7,0,0,0,3.77-1.1s-.81-1.28-2.09-3.54c-.77-1.37-1.75-1.58-3.8-1.36A4.75,4.75,0,0,1,72.65,57.07Z"/><path class="cls-6" d="M66.37,59.39s1.41-2,6.53-1.34c3.32.44,4.77,1.42,5.54,2.13a.92.92,0,0,1-.36,1.54c-.68.2-1,.36-2.77-.27-3.84-1.37-5.37-.58-7-.52S65.49,60.87,66.37,59.39Z"/><g class="cls-27"><ellipse class="cls-16" cx="73.19" cy="57.75" rx="1.56" ry="6.19" transform="translate(5.42 121.77) rotate(-81.64)"/><ellipse class="cls-16" cx="72.4" cy="61.97" rx="1.56" ry="6.19" transform="matrix(0.15, -0.99, 0.99, 0.15, 0.56, 124.59)"/></g><path class="cls-28" d="M63.45,74.45c.8,3.13,4.19,5.2,7.31,5.23a9,9,0,0,0,8-5.47c.26-.65-.79-.93-1-.29a7.84,7.84,0,0,1-7,4.67c-2.64,0-5.58-1.77-6.26-4.43a.54.54,0,0,0-1,.29Z"/><path class="cls-28" d="M65.86,77.54a4.69,4.69,0,0,0-1.11,3,4.46,4.46,0,0,0,.3,1.61,1.75,1.75,0,0,1,.25.88,3.31,3.31,0,0,1-.39.83,3.79,3.79,0,0,0-.39,1.57,4,4,0,0,0,.09.91,3.09,3.09,0,0,1,.2.78c0,.43-.39.83-.61,1.18a2.15,2.15,0,0,0-.35,1.3c0,.4.6.8.93.39a5,5,0,0,0,.69-1.18c.26-.65-.79-.93-1-.29a3.29,3.29,0,0,1-.41.7l.93.38c-.09-.79.8-1.42.93-2.2a3.3,3.3,0,0,0-.21-1.35,2.7,2.7,0,0,1,.27-1.79,3,3,0,0,0,.47-1.34A5.59,5.59,0,0,0,66,81.44a3.5,3.5,0,0,1,.67-3.13c.44-.54-.33-1.32-.77-.77Z"/><path class="cls-28" d="M68.1,78.86A6.14,6.14,0,0,0,67,82.59a6.73,6.73,0,0,0,.37,1.94,1.22,1.22,0,0,1-.22,1.28,7.79,7.79,0,0,0-.5,1,2.92,2.92,0,0,0-.11,1.87A6.08,6.08,0,0,1,67,90.79c-.12,1.27-1,2.29-.38,3.58a.53.53,0,0,0,.47.27.71.71,0,0,0,.69-.92c-.14-.68-1.19-.39-1,.29l0,.11,0-.42-.07.1.47-.27-.11,0,.47.27c-.29-.57,0-1.22.23-1.76a4.07,4.07,0,0,0,.31-1.65,7,7,0,0,0-.49-1.73A2.4,2.4,0,0,1,68,86.47,2.84,2.84,0,0,0,68.58,85a15.28,15.28,0,0,0-.48-1.82A5.17,5.17,0,0,1,69,79.41c.41-.57-.53-1.12-.94-.55Z"/><path class="cls-28" d="M69.74,79.54a3.9,3.9,0,0,0-.48,2.11,3.87,3.87,0,0,0,.23,1.06,1.33,1.33,0,0,1,.14.44.86.86,0,0,1-.19.41,3.46,3.46,0,0,0,.14,3.85.55.55,0,0,0,1-.13l.06-.23a.54.54,0,0,0-1-.29l-.06.23,1-.13A2.4,2.4,0,0,1,70,85.3a4.74,4.74,0,0,1,.6-1.62c.27-.67-.11-1.17-.22-1.83a2.7,2.7,0,0,1,.3-1.76c.33-.61-.61-1.16-.94-.55Z"/><path class="cls-28" d="M71.12,80.09A4.1,4.1,0,0,1,72.23,83a10.7,10.7,0,0,0,0,3.48c.15.51.37,1,.51,1.51a2.53,2.53,0,0,1-.15,1.69,3.35,3.35,0,0,0-.23,1.5A7.94,7.94,0,0,1,72.57,93c-.1.68.94,1,1.05.29l0-.36c.11-.68-.94-1-1-.29l-.05.36,1.05.29a4.89,4.89,0,0,0-.11-1.66,3.45,3.45,0,0,1,.24-2c.4-1.24-.15-2.27-.49-3.45s.18-2.62,0-3.94a5.28,5.28,0,0,0-1.4-3c-.48-.52-1.25.26-.77.77Z"/><path class="cls-29" d="M66.9,99.41a10.71,10.71,0,0,0,1.83,1.31,5,5,0,0,0,2.16.44,6.23,6.23,0,0,0,4-1.31,11.28,11.28,0,0,1,1.84-1.55,5.47,5.47,0,0,1,2.93-.3c.73.06,1.57.19,1.92.83.45.84-.3,1.82-1.08,2.35-2.16,1.44-4.87,1.71-7.45,1.84a24.68,24.68,0,0,1-4.63-.08c-2.19-.3-6.18-1.11-7.21-3.42-.53-1.2.45-1.74,1.57-1.75A6.94,6.94,0,0,1,66.9,99.41Z"/><path class="cls-28" d="M73.4,79.19a6.49,6.49,0,0,1,1,3.31,6.6,6.6,0,0,0,.06,1.66c.11.51.43,1,.54,1.46a2.6,2.6,0,0,1-.21,1.53,3.23,3.23,0,0,0-.45,1.5,6.18,6.18,0,0,0,.53,1.53c.14.36.23.84.6,1a.56.56,0,0,0,.66-.08.53.53,0,0,0,.19-.48.53.53,0,0,0-.4-.52h0c-.69-.11-1,.94-.29,1h0l-.4-.53v.06l.16-.39,0,0,.66-.09c.07,0-.14-.5-.17-.58-.1-.25-.22-.51-.31-.77a1.05,1.05,0,0,1,0-.9c.08-.19.17-.38.25-.58a3.43,3.43,0,0,0,0-2.72,3.73,3.73,0,0,1-.37-1.57,10.22,10.22,0,0,0,0-1.66,8.91,8.91,0,0,0-1.09-2.85c-.33-.62-1.27-.07-.94.55Z"/><path class="cls-28" d="M75.16,78.22a7.05,7.05,0,0,1,1,2.21c.17.84,0,1.71.17,2.56.21,1.49,1.6,3,1,4.55-.25.65.8.93,1,.29.69-1.8-.72-3.25-1-5-.14-.91,0-1.83-.2-2.74a7.9,7.9,0,0,0-1.13-2.47.54.54,0,0,0-.94.55Z"/><path class="cls-7" d="M56.56,99.18s5.7.06,9.23,1.41,8.62,0,10.77-.46,7.61-3.11,8.92-1.2,6,7.21,5.25,9.46-6.58,6.47-9.85,6a59.91,59.91,0,0,0-11.83-.24,57.07,57.07,0,0,1-11.29.39c-2.87-.39-8.12-1.13-7.08-6.47S54.65,99.82,56.56,99.18Z"/><g class="cls-30"><path class="cls-1" d="M60.36,98.42a30,30,0,0,1-2,4.38,17.46,17.46,0,0,0-1.6,4.23,16.2,16.2,0,0,0-.36,4.39,15,15,0,0,0,.25,2.1,10.1,10.1,0,0,0,.24,1.06c.11.43.42,1.09,0,1.45-.15.14.07.36.22.22a1.11,1.11,0,0,0,.23-1.17c-.18-.77-.39-1.51-.5-2.29a15.62,15.62,0,0,1,.13-5.24,17.34,17.34,0,0,1,1.7-4.69,28.29,28.29,0,0,0,2-4.36c.06-.19-.25-.28-.31-.08Z"/><path class="cls-1" d="M62.65,99.51a22.15,22.15,0,0,0-2.72,16.1c0,.2.35.11.31-.09a21.79,21.79,0,0,1,2.68-15.85.16.16,0,0,0-.27-.16Z"/><path class="cls-1" d="M65.52,99.75a16.35,16.35,0,0,0-2.92,7.93,15.67,15.67,0,0,0,.18,4.16,19.42,19.42,0,0,0,.62,2.5c.14.46.25,1.44.72,1.67a.16.16,0,0,0,.19,0,.26.26,0,0,0,.07-.3.16.16,0,0,0-.16-.11h0c-.2,0-.2.35,0,.32,0,0-.64-2.22-.7-2.45a17.43,17.43,0,0,1-.44-2,15.48,15.48,0,0,1-.08-4.08,16,16,0,0,1,2.85-7.46c.11-.17-.16-.32-.28-.16Z"/><path class="cls-1" d="M67.4,100.2c-3.31,4.52-1.47,10.63-.51,15.62,0,.2.34.11.3-.09-.94-4.9-2.77-10.92.48-15.37.12-.16-.15-.32-.27-.16Z"/><path class="cls-1" d="M69.09,100.37a59.92,59.92,0,0,0,.22,14.78l.31-.09-.07-.37c0-.2-.34-.11-.3.09l.06.37c0,.2.34.11.31-.09a59.2,59.2,0,0,1-.21-14.69c0-.21-.29-.21-.32,0Z"/><path class="cls-1" d="M72,99.91l.1,8.36.05,4.12,0,2c0,.15,0,2.26.11,2.25s.11-.37-.09-.31h0a.19.19,0,0,0-.12.16.25.25,0,0,0,.14.24.18.18,0,0,0,.2,0c.29-.31.13-.94.13-1.33l0-2.12,0-4.49-.11-8.86a.16.16,0,1,0-.31,0Z"/><path class="cls-1" d="M74.09,100.38a27.66,27.66,0,0,0,.87,4.31,30.65,30.65,0,0,1,.67,5,33.5,33.5,0,0,1-.09,4.7q-.06.63-.15,1.26a2.85,2.85,0,0,0-.11.87c0,.23.23.34.43.2a.14.14,0,0,0,.08-.14v-.06c0-.2-.33-.21-.31,0,0-.13.17-.42.2-.57s0-.27,0-.39c0-.32.08-.63.11-.94.07-.7.12-1.4.14-2.11a31.36,31.36,0,0,0-.12-4.11,31.75,31.75,0,0,0-.58-3.75,25.59,25.59,0,0,1-.86-4.23c0-.2-.33-.21-.32,0Z"/><path class="cls-1" d="M76.07,99.4a29.1,29.1,0,0,1,2.41,8.77,53.77,53.77,0,0,1-.17,9.15c0,.19.26.2.31,0l.18-.51c.07-.19-.24-.27-.3-.08l-.18.51.31,0a50.8,50.8,0,0,0,.11-9.63,29.51,29.51,0,0,0-2.4-8.45c-.08-.19-.35,0-.27.16Z"/><path class="cls-1" d="M79,98.36a25.53,25.53,0,0,1,3.2,9.6,46.07,46.07,0,0,1-.39,10.75h.32v-.86a.16.16,0,0,0-.32,0v.86c0,.21.29.2.32,0a45.65,45.65,0,0,0,.33-11.2,25.76,25.76,0,0,0-3.19-9.31.16.16,0,0,0-.27.16Z"/><path class="cls-1" d="M81.47,98.83a32.69,32.69,0,0,1,2.35,4.65A22,22,0,0,1,85,108.15a40.23,40.23,0,0,1,.34,4.91c0,.83,0,1.66,0,2.5A3.9,3.9,0,0,1,85,117.9l.29,0-.16-.46c-.07-.19-.37-.1-.3.09L85,118a.16.16,0,0,0,.29,0,2.89,2.89,0,0,0,.41-1.83c0-.86,0-1.73,0-2.6a44.62,44.62,0,0,0-.33-5.3,22.35,22.35,0,0,0-1.15-4.83,32.58,32.58,0,0,0-2.43-4.83c-.1-.18-.37,0-.27.16Z"/><path class="cls-31" d="M73.88,112.3a28.35,28.35,0,0,0-5.14,1,53.26,53.26,0,0,0-7.13,2.27c-.52.21-1.11.57-1.11,1.13,0,.71.91,1,1.61,1.06a167.37,167.37,0,0,0,23.26.88,4.77,4.77,0,0,0,1.92-.33,1.71,1.71,0,0,0,1.06-1.51c0-1.06-1.66-1.37-2.43-1.7-1.32-.55-2.63-1.09-4-1.54A20.59,20.59,0,0,0,73.88,112.3Z"/><path class="cls-31" d="M66.59,100.33a3.32,3.32,0,0,0,1.87,1.59c4.33,1.92,10.14-.26,13.62-3.47-.51-.58-1.73.55-2.5.44a48.49,48.49,0,0,0-10.29-.32,7,7,0,0,0-4.5,1.51"/></g><path class="cls-8" d="M62.65,69.65c.33,0,2.28,1.76,2,5.59s.39,4.84-1,7.87S63.55,88.93,63,91s-4.56,7.09-6.9,8.37c0,0-.36-8.38.88-13.74s3-11.16.86-14.24C57.81,71.41,61.53,69.48,62.65,69.65Z"/><g class="cls-32"><ellipse class="cls-33" cx="60.85" cy="81.84" rx="2.49" ry="0.62" transform="translate(-13.73 12.28) rotate(-10.36)"/><ellipse class="cls-33" cx="60.66" cy="94.81" rx="2.49" ry="0.62" transform="translate(-16.07 12.46) rotate(-10.36)"/><ellipse class="cls-34" cx="61.48" cy="74.95" rx="2.49" ry="0.62" transform="translate(-12.48 12.29) rotate(-10.36)"/><ellipse class="cls-34" cx="59.7" cy="88.53" rx="2.49" ry="0.62" transform="translate(-14.95 12.19) rotate(-10.36)"/><ellipse class="cls-33" cx="59.9" cy="77.66" rx="0.57" ry="0.8"/><ellipse class="cls-33" cx="59.7" cy="80.13" rx="0.8" ry="0.57" transform="translate(-31.18 121.68) rotate(-77.88)"/><ellipse class="cls-33" cx="58.69" cy="90.83" rx="0.57" ry="0.8" transform="translate(-17.09 13.69) rotate(-11.62)"/><ellipse class="cls-33" cx="61.78" cy="90.04" rx="0.57" ry="0.8" transform="translate(-16.87 14.29) rotate(-11.62)"/><ellipse class="cls-33" cx="59.46" cy="93.39" rx="0.8" ry="0.57" transform="translate(-37.03 147.68) rotate(-86.88)"/><ellipse class="cls-33" cx="62.27" cy="92.45" rx="0.8" ry="0.57" transform="translate(-33.43 149.59) rotate(-86.88)"/><ellipse class="cls-34" cx="58.58" cy="84.24" rx="0.8" ry="0.57" transform="translate(-29.71 136.52) rotate(-85.82)"/><ellipse class="cls-34" cx="58.39" cy="86.82" rx="0.8" ry="0.57" transform="translate(-32.45 138.72) rotate(-85.82)"/><ellipse class="cls-34" cx="61.48" cy="86.22" rx="0.8" ry="0.57" transform="translate(-28.99 141.25) rotate(-85.82)"/><ellipse class="cls-34" cx="62.05" cy="83.65" rx="0.8" ry="0.57" transform="translate(-25.89 139.44) rotate(-85.82)"/><ellipse class="cls-33" cx="63.08" cy="79.45" rx="0.8" ry="0.57" transform="translate(-27.84 124.45) rotate(-77.88)"/><ellipse class="cls-33" cx="63.44" cy="77" rx="0.8" ry="0.57" transform="translate(-18.82 133.45) rotate(-84.97)"/><ellipse class="cls-34" cx="59.47" cy="73.29" rx="0.57" ry="0.8" transform="translate(-11.37 10.93) rotate(-9.59)"/><ellipse class="cls-34" cx="58.9" cy="71.23" rx="0.57" ry="0.8" transform="translate(-11.04 10.8) rotate(-9.59)"/><ellipse class="cls-34" cx="63.24" cy="72.77" rx="0.57" ry="0.8" transform="translate(-11.24 11.55) rotate(-9.59)"/><ellipse class="cls-34" cx="62.74" cy="70.43" rx="0.57" ry="0.8" transform="translate(-10.85 11.43) rotate(-9.59)"/></g><path class="cls-8" d="M79.31,69.65c-.33,0-2.28,1.76-2,5.59s-.39,4.84,1,7.87.12,5.82.7,7.91,3.3,6,5.64,7.29c0,0,1.62-7.3.38-12.66s-3-11.16-.86-14.24C84.15,71.41,80.43,69.48,79.31,69.65Z"/><g class="cls-35"><ellipse class="cls-33" cx="81.11" cy="81.84" rx="0.62" ry="2.49" transform="translate(-13.99 146.91) rotate(-79.64)"/><ellipse class="cls-33" cx="81.3" cy="94.81" rx="0.62" ry="2.49" transform="translate(-26.59 157.73) rotate(-79.64)"/><ellipse class="cls-34" cx="80.48" cy="74.95" rx="0.62" ry="2.49" transform="translate(-7.73 140.62) rotate(-79.64)"/><ellipse class="cls-34" cx="82.26" cy="88.53" rx="0.62" ry="2.49" transform="translate(-19.62 153.52) rotate(-79.64)"/><ellipse class="cls-33" cx="82.06" cy="77.66" rx="0.57" ry="0.8"/><ellipse class="cls-33" cx="82.26" cy="80.13" rx="0.57" ry="0.8" transform="translate(-14.99 19.05) rotate(-12.12)"/><ellipse class="cls-33" cx="83.27" cy="90.83" rx="0.8" ry="0.57" transform="translate(-22.48 154.09) rotate(-78.38)"/><ellipse class="cls-33" cx="80.18" cy="90.04" rx="0.8" ry="0.57" transform="translate(-24.16 150.44) rotate(-78.38)"/><ellipse class="cls-33" cx="82.5" cy="93.39" rx="0.57" ry="0.8" transform="translate(-4.97 4.63) rotate(-3.12)"/><ellipse class="cls-33" cx="79.69" cy="92.45" rx="0.57" ry="0.8" transform="translate(-4.92 4.48) rotate(-3.12)"/><ellipse class="cls-34" cx="83.38" cy="84.24" rx="0.57" ry="0.8" transform="translate(-5.92 6.3) rotate(-4.18)"/><ellipse class="cls-34" cx="83.57" cy="86.82" rx="0.57" ry="0.8" transform="translate(-6.11 6.32) rotate(-4.18)"/><ellipse class="cls-34" cx="80.48" cy="86.22" rx="0.57" ry="0.8" transform="translate(-6.07 6.1) rotate(-4.18)"/><ellipse class="cls-34" cx="79.91" cy="83.65" rx="0.57" ry="0.8" transform="translate(-5.89 6.05) rotate(-4.18)"/><ellipse class="cls-33" cx="78.88" cy="79.45" rx="0.57" ry="0.8" transform="translate(-14.92 18.33) rotate(-12.12)"/><ellipse class="cls-33" cx="78.52" cy="77" rx="0.57" ry="0.8" transform="translate(-6.45 7.18) rotate(-5.03)"/><ellipse class="cls-34" cx="82.49" cy="73.29" rx="0.8" ry="0.57" transform="translate(-3.52 142.42) rotate(-80.41)"/><ellipse class="cls-34" cx="83.06" cy="71.23" rx="0.8" ry="0.57" transform="translate(-1 141.27) rotate(-80.41)"/><ellipse class="cls-34" cx="78.72" cy="72.77" rx="0.8" ry="0.57" transform="translate(-6.15 138.27) rotate(-80.41)"/><ellipse class="cls-34" cx="79.22" cy="70.43" rx="0.8" ry="0.57" transform="translate(-3.43 136.82) rotate(-80.41)"/></g><path class="cls-36" d="M54.23,120.33a4.88,4.88,0,0,0,3.88,1.31,15.88,15.88,0,0,0,4.1-1c6.17-2,13-3.45,19.06-1.06,2,.78,4.94,2.35,6.74,1.23,1.35-.84,1-3,1.3-4.59.53-3.19,1-6.66-.56-9.48-1.39-2.5-4.11-3.94-6.8-4.91a21.51,21.51,0,0,0-6.17-1.35c-4.22-.2-8.32,1.36-12.12,3.2a19.86,19.86,0,0,0-4.84,3c-3.3,3-4.48,7.67-5.42,12l.93,0"/><path class="cls-37" d="M69.82,130.84l.55,1.72s0,2-2.59,3.83a20.45,20.45,0,0,0-4.55,4.67,9.31,9.31,0,0,1-7.15,4.61c-4.58.34-4.28-4.49-4.28-4.49l10.81-9Z"/><path class="cls-38" d="M69,130.38a.9.9,0,0,1,.8,1.37,11.61,11.61,0,0,1-3.63,4.3A13.3,13.3,0,0,0,63,139.67c-.29.49-3.7,5-7,5.27s-5.79-3.6-3-6.09,10.53-9.1,10.53-9.1Z"/><path class="cls-2" d="M66.86,123.8s1.22,4.13,1.66,5.25,2.25,3.13-1.37,5.45a12.36,12.36,0,0,0-5,5.42,12.18,12.18,0,0,1-5.09,3.75c-2.17.6-2.39-.82-2.39-.82a1.34,1.34,0,0,1-1.32-1.13,1.79,1.79,0,0,1-.46-1s-.29-.2-.23-.87a1,1,0,0,1,.11-1.18,35.2,35.2,0,0,1,3.33-3.46c1.57-1.47,4.6-5.11,3.59-8.72S66.3,122.39,66.86,123.8Z"/><path class="cls-38" d="M60.73,141.11a4.51,4.51,0,0,0-1.82-.8,4.74,4.74,0,0,0-2.17.27c-1.22.36-2.64,1.13-2.56,2.61,0,.7,1.13.71,1.09,0-.05-1,1.16-1.39,1.95-1.61a3.13,3.13,0,0,1,1.54-.19,3.56,3.56,0,0,1,1.42.66.55.55,0,0,0,.74-.19.56.56,0,0,0-.19-.75Z"/><path class="cls-38" d="M57.13,140.91c-.79-1.47-2-3-3.73-3.26a.56.56,0,0,0-.67.38.55.55,0,0,0,.38.67l.54.12a2.12,2.12,0,0,1,.42.18,4.53,4.53,0,0,1,.46.3l0,0h0l.1.09.21.18a5.22,5.22,0,0,1,.39.43l.29.39a9.84,9.84,0,0,1,.62,1,.54.54,0,0,0,.94-.55Z"/><path class="cls-2" d="M56.25,112.18c-.11.55,3.65,15.32,3.65,15.32l7.85-.77-4.27-18.37S57.4,106.47,56.25,112.18Z"/><path class="cls-37" d="M73.37,130.54,73,132.3s.18,2,2.87,3.63a20.08,20.08,0,0,1,4.88,4.31,9.37,9.37,0,0,0,7.49,4c4.59,0,3.92-4.79,3.92-4.79l-11.46-8.2Z"/><path class="cls-38" d="M74.18,130a.89.89,0,0,0-.68,1.43,11.55,11.55,0,0,0,3.94,4,13.43,13.43,0,0,1,3.44,3.37c.33.46,4.06,4.67,7.33,4.73s5.5-4,2.57-6.31S79.59,129,79.59,129Z"/><path class="cls-2" d="M75.79,123.3s-.91,4.21-1.26,5.36-2,3.3,1.78,5.33a12.43,12.43,0,0,1,5.37,5A12.15,12.15,0,0,0,87,142.37c2.21.44,2.32-1,2.32-1a1.35,1.35,0,0,0,1.23-1.23,1.86,1.86,0,0,0,.38-1.08s.27-.22.16-.88a1,1,0,0,0-.19-1.17,36,36,0,0,0-3.59-3.19c-1.67-1.35-5-4.75-4.24-8.43S76.24,121.85,75.79,123.3Z"/><path class="cls-38" d="M83.91,140.93a3.38,3.38,0,0,1,1.24-.69,3.17,3.17,0,0,1,1.56,0c.77.16,2.08.42,2.1,1.43a.55.55,0,0,0,1.09,0,2.2,2.2,0,0,0-.85-1.67,4.45,4.45,0,0,0-2-.79,3.89,3.89,0,0,0-4,.9.54.54,0,0,0,0,.77.56.56,0,0,0,.77,0Z"/><path class="cls-38" d="M87.75,140.13a9.89,9.89,0,0,1,.54-1.08,4.9,4.9,0,0,1,.31-.48l.08-.12,0,0,.19-.24c.12-.13.25-.25.38-.37l.1-.08c.13-.11-.08,0,0-.05l.22-.15a4,4,0,0,1,.46-.24l.06,0,.13,0,.28-.07a.54.54,0,0,0-.29-1c-1.76.38-2.81,2-3.5,3.5a.57.57,0,0,0,.2.75.56.56,0,0,0,.75-.2Z"/><path class="cls-2" d="M85.5,110.91c.15.54-2.49,15.55-2.49,15.55l-7.89-.17L78,107.65S83.91,105.3,85.5,110.91Z"/><path class="cls-9" d="M60.29,100.92c-3.66.83-7.26,2.82-8.92,6.2-2.25,4.6-.43,10.53,3.47,13.85A12.35,12.35,0,0,1,57,116.08c2.39-3.11,6.89-1.66,10.73-2.5,4.34-.94,7.45-2.72,11.63-1.23s8.78,3.92,8.63,8.35c2.7-2,3-5.8,2.94-9.13a14.66,14.66,0,0,0-.87-5.52c-1.59-3.69-5.81-5.58-9.81-6s-8,.47-12,.56c-1.05,0-2.1,0-3.14,0A29.11,29.11,0,0,0,60.29,100.92Z"/><g class="cls-39"><path class="cls-12" d="M47,114s5.35-.11,5.89-5"/><path class="cls-13" d="M47.41,114.61s5.34-.11,5.88-5"/><path class="cls-14" d="M47.8,115.2s5.35-.1,5.89-5"/><path class="cls-15" d="M48.19,115.8s5.35-.1,5.89-5"/><path class="cls-12" d="M56.79,103.38s4.94,2,7.38-2.22"/><path class="cls-13" d="M56.91,104.09s5,2,7.39-2.23"/><path class="cls-14" d="M57,104.8s4.95,2,7.39-2.23"/><path class="cls-15" d="M57.16,105.5s4.94,2,7.38-2.22"/><path class="cls-12" d="M77.22,102.57s4,3.57,7.7.36"/><path class="cls-13" d="M77.1,103.28s4,3.56,7.7.36"/><path class="cls-14" d="M77,104s4,3.56,7.7.35"/><path class="cls-15" d="M76.86,104.7s4,3.56,7.7.35"/><path class="cls-12" d="M87.69,110.2s3,4.46,7.36,2.29"/><path class="cls-13" d="M87.4,110.85s2.95,4.46,7.35,2.3"/><path class="cls-14" d="M87.1,111.51s3,4.46,7.36,2.29"/><path class="cls-15" d="M86.81,112.16s3,4.46,7.35,2.3"/><path class="cls-12" d="M65.3,110.42s5.31.67,6.54-4.08"/><path class="cls-13" d="M65.61,111.07s5.3.67,6.53-4.08"/><path class="cls-14" d="M65.91,111.72s5.31.67,6.54-4.08"/><path class="cls-15" d="M66.22,112.37s5.3.67,6.53-4.08"/></g><path class="cls-40" d="M54.79,100.45a16.05,16.05,0,0,0,2.71-2.87,4.63,4.63,0,0,1,.72-.86c.5-.45,1.19-.62,1.66-1.11A4,4,0,0,0,60.69,93a4,4,0,0,0-.2-2.05,3.23,3.23,0,0,0-2-1.52c-.32-.11-.69-.27-.77-.62,0-.13,0-.28-.09-.37s-.42,0-.56.17A12.51,12.51,0,0,0,55.36,92c-.71,1.78-1.43,3.57-2,5.41a4.72,4.72,0,0,0-.3,1.74,1.62,1.62,0,0,0,.87,1.4,2,2,0,0,0,.49.1"/><ellipse class="cls-41" cx="68.76" cy="98.6" rx="6.94" ry="1.21"/><polygon class="cls-41" points="58 89.33 61.81 98.6 75.7 98.6 79.52 89.33 58 89.33"/><ellipse class="cls-42" cx="68.76" cy="89.33" rx="10.76" ry="1.87"/><g class="cls-43"><path class="cls-44" d="M81.62,91.15l0-.1a.92.92,0,0,0-.53-.93A10,10,0,0,0,80,89.74c-.89-.34-1.62-1.17-2.58-1.18-.28,0-.57.08-.86.1C75.38,88.78,74.24,88,73,88c-.62,0-1.23.17-1.85.22l-.84,0a10.52,10.52,0,0,0-2-.25,6.51,6.51,0,0,0-1.3.26l-1.66.08c-.26-.05-.52-.12-.79-.15a6.55,6.55,0,0,0-2.29.44c-1.1.29-2.24.34-3.35.59a4.53,4.53,0,0,0-2.86,1.68L56,91l0,.06-.11.17h0a1,1,0,0,0-.1.44c0,1.92,5.82,3.48,13,3.48s13-1.56,13-3.48A1.07,1.07,0,0,0,81.62,91.15Z"/><path class="cls-45" d="M60.26,89.13a.28.28,0,0,0-.2,0,.11.11,0,0,0-.09.15.16.16,0,0,0,.08.06,2.13,2.13,0,0,0,1,.11,8.44,8.44,0,0,0,1.4-.27l1.75-.43a.82.82,0,0,0,.42-.2,1.2,1.2,0,0,0-.81-.12,5.31,5.31,0,0,0-.8.25,8.59,8.59,0,0,1-2.56.48Z"/><path class="cls-46" d="M71.44,88.6c-.34.1-.69-.06-1,0a.07.07,0,0,0-.06,0s0,.09,0,.12a.33.33,0,0,0,.14,0,1.17,1.17,0,0,1,.41.1,1.44,1.44,0,0,0,.32.13.83.83,0,0,0,.6-.25l.24-.18,0,0a.09.09,0,0,0,0-.11.22.22,0,0,0-.14,0,1.38,1.38,0,0,0-.4.15"/><path class="cls-46" d="M66.27,88.62a6.43,6.43,0,0,0,1,0,.22.22,0,0,1,.16,0,.89.89,0,0,1-.59.23,2,2,0,0,1-.64-.11.1.1,0,0,1-.08-.06.07.07,0,0,1,0-.07.06.06,0,0,1,.07,0"/><path class="cls-46" d="M78.9,91.86a9.45,9.45,0,0,0-1.5.1A5.2,5.2,0,0,1,76,91.88c0,.16.2.22.35.26a3.72,3.72,0,0,0,1.19.16c.24,0,.47-.09.7-.11s.44,0,.66,0a1,1,0,0,0,.58-.29.47.47,0,0,0-.43,0"/><path class="cls-46" d="M79,89.74a8.82,8.82,0,0,0-.89.2.52.52,0,0,0-.15.07.13.13,0,0,0-.06.15c0,.06.08.1.15.12a3.65,3.65,0,0,0,1.4.1.72.72,0,0,0,.29-.06.21.21,0,0,0,.09-.26.28.28,0,0,0-.25-.08.62.62,0,0,1-.27,0,.2.2,0,0,1,.19-.17.35.35,0,0,0-.32-.08"/><path class="cls-45" d="M67.6,88.27a2.68,2.68,0,0,1,1.66-.06,1.35,1.35,0,0,1,.33.09.42.42,0,0,1,.22.25,3,3,0,0,1-.79,0,5.57,5.57,0,0,1-1.36-.07.26.26,0,0,1-.16-.11"/><path class="cls-45" d="M73.91,88.33a.81.81,0,0,0-.55-.1s-.1,0-.1.08a.14.14,0,0,0,0,.06.61.61,0,0,0,.35.17,3.77,3.77,0,0,0,1.1.17.13.13,0,0,0,0-.13.32.32,0,0,0-.12-.08,1.85,1.85,0,0,0-.61-.17"/><path class="cls-45" d="M70.56,90.51l-.31-.24a.22.22,0,0,0-.11,0,.07.07,0,0,0-.09.06s0,0,0,.07a1.24,1.24,0,0,0,.46.42c.06,0,.15,0,.19,0a.21.21,0,0,0-.14-.27"/><path class="cls-4" d="M73.35,92.08a.45.45,0,0,0-.09.35,14.48,14.48,0,0,0,3.91,0c.9-.21,0-1.2,0-1.2l-2.8.59Z"/><path class="cls-47" d="M73.58,91.91a13.93,13.93,0,0,1,2.78-.8c.59,0,.94,0,.68.25a12,12,0,0,1-3.12.78C73.38,92.14,73.11,92.21,73.58,91.91Z"/><ellipse class="cls-48" cx="75.94" cy="91.33" rx="0.45" ry="0.12" transform="translate(-11.25 10.67) rotate(-7.49)"/><path class="cls-4" d="M66.35,91.56a1,1,0,0,0-.16.73c.11.34,2.83.44,3,.4s1-.27,1.18-.64-.18-.74-.18-.74l-2.41,0Z"/><g class="cls-49"><path class="cls-50" d="M68.61,91.06s1,1,.48,2c0,0,1.81-.13,1.81-.15s-.32-1.53-.32-1.53l-.24-.27-1.92-.28.19.27"/></g><path class="cls-47" d="M67.82,91a11.25,11.25,0,0,1,2.31.25c.5.21-.66.62-1.08.62s-3.1-.13-2.66-.34A5.19,5.19,0,0,1,67.82,91Z"/><path class="cls-4" d="M60.63,90.77a9.83,9.83,0,0,0-.22,1.06c0,.41,1.64,1,2.08,1a7,7,0,0,0,2.54-1c.37-.39-.43-1.07-.43-1.07l-3.07,0Z"/><g class="cls-51"><path class="cls-3" d="M62.23,90s.08,1.23.16,1.56.31,1.16.07,1.45l.93.21L65.66,93l-.42-2.63Z"/></g><path class="cls-47" d="M60.91,90.66l1.68-.33c.64-.14,1.47.32,2,.42s-1.73.76-2.16.79S59.9,90.83,60.91,90.66Z"/><path class="cls-3" d="M74.78,88.85a5.31,5.31,0,0,0-.3.66c-.08.26,1.14.71,1.93.7a1.27,1.27,0,0,0,1.1-.87c0-.07.11-.86-.08-1l-1.89.45Z"/><g class="cls-52"><path class="cls-4" d="M74.32,88.15l-.21,1.79,2.46.66a1.61,1.61,0,0,0-.24-1.54,6.16,6.16,0,0,1-.91-1.26Z"/></g><path class="cls-47" d="M74.94,88.74a4,4,0,0,0,1-.67s0-.07.21,0l1.27.29c.18,0,.11.17.07.21s-.29.61-.63.78-.41.14-.88.07S74.35,89,74.94,88.74Z"/><ellipse class="cls-48" cx="76.35" cy="88.32" rx="0.12" ry="0.43" transform="translate(-21.5 152) rotate(-82.21)"/><ellipse class="cls-48" cx="75.83" cy="88.52" rx="0.08" ry="0.29" transform="translate(-22.15 151.65) rotate(-82.21)"/><path class="cls-4" d="M69.16,89.6s-.21.56-.06.8,1.83.19,2.2.2A3,3,0,0,0,73,90.36c.42-.31.11-.93.11-.93l-3.46.11Z"/><g class="cls-53"><path class="cls-3" d="M72.37,88.94s1,1,.24,1.93l.83-.37V89.05l-.31-.28Z"/></g><path class="cls-47" d="M70.61,89.18a10.53,10.53,0,0,1,2.42.21c.27.21-.45.37-1.62.36s-2.77,0-2.11-.23A5.15,5.15,0,0,1,70.61,89.18Z"/><path class="cls-4" d="M64.08,88.7a2.6,2.6,0,0,0-.1.67c0,.24,1.22.29,1.85.31a4.71,4.71,0,0,0,1.77-.2c.2-.14-.13-.75-.13-.75s-1.06-.13-2.24-.16S64.08,88.7,64.08,88.7Z"/><path class="cls-47" d="M65,88.31a5,5,0,0,0-.89.39,13.26,13.26,0,0,0,3.39,0,1.65,1.65,0,0,0-.8-.37A13,13,0,0,0,65,88.31Z"/><ellipse class="cls-48" cx="65.32" cy="88.47" rx="0.22" ry="0.06"/><ellipse class="cls-48" cx="66.48" cy="88.6" rx="0.11" ry="0.45" transform="translate(-23.92 152.6) rotate(-88.42)"/><path class="cls-4" d="M59.26,89.14a1.58,1.58,0,0,0-.09.71c.08.25.85.37,1.32.38A3.51,3.51,0,0,0,62,90c.24-.18-.17-.85-.17-.85Z"/><path class="cls-47" d="M60.48,88.76a2.92,2.92,0,0,1,1.25.27c.48.28-1.32.43-1.67.39s-1.19-.11-.6-.42A1.79,1.79,0,0,1,60.48,88.76Z"/><path class="cls-44" d="M60.09,91.45s.26-.17.76.37,1,.28,1.58.35.61.28,1.13,0,.38-.42.91-.59.56-.43.81-.29.5.74.39.83l-.5.44-1.83.5a10,10,0,0,1-1,0c-.41,0-2.24-.31-2.24-.31a.53.53,0,0,1-.08-.36A8.1,8.1,0,0,0,60.09,91.45Z"/><path class="cls-44" d="M65.78,92.09a1.78,1.78,0,0,1,1.13.17,2.78,2.78,0,0,0,1.77.24,4.4,4.4,0,0,1,1.08-.19.68.68,0,0,0,.53-.31c.12-.19.06-.32.23-.36s.47.25.47.25l-.25.62s-1.23.35-1.33.36-.73.06-1,.06-1.85,0-2,0-.4,0-.53-.07-.36-.25-.36-.29A5.11,5.11,0,0,1,65.78,92.09Z"/><path class="cls-44" d="M72.82,92.45a2,2,0,0,1,1.07,0,2,2,0,0,0,1.34,0,5.41,5.41,0,0,1,1.24-.24c.56,0,.91,0,1,0a1.64,1.64,0,0,1,.32-.27c.07,0,.44.33.44.33s-.23.45-.58.53-3.63.2-3.63.2l-.76,0C73,92.87,72.82,92.45,72.82,92.45Z"/><path class="cls-44" d="M59,89.6a2.58,2.58,0,0,1,.66.21,1.44,1.44,0,0,0,1.17,0c.47-.13.54,0,.9,0s.16-.28.65-.21a4.82,4.82,0,0,0,1.54-.35,2.55,2.55,0,0,1,1.37.16,1.23,1.23,0,0,0,.95,0,3,3,0,0,1,1.26-.13.38.38,0,0,0,.31,0c.11,0,.85.26.79.49s.34.48.34.48,0-.21,1,0a3.55,3.55,0,0,0,2,.08,3.44,3.44,0,0,1,1-.17c.08,0,.14-.31.42-.26A5.56,5.56,0,0,1,74,90l.09-.65a1.79,1.79,0,0,1,1.11.32,1.3,1.3,0,0,0,1.3.13c.19-.09.1-.21.44-.18s.34-.09.49-.35.12-.42.29-.34.16.55.15.59a7.78,7.78,0,0,1-.41.82,2.19,2.19,0,0,1-1,.34c-.64.13-1,.19-1,.19l-2.35.27-2.25,0c-.33,0-1,0-1.55-.12l-1.41-.16-1.14-.15-3-.37-1.49,0L60,90.45s-1-.2-1.09-.23-.49-.34-.49-.34Z"/><ellipse class="cls-54" cx="72.58" cy="91.41" rx="0.3" ry="0.05"/><ellipse class="cls-54" cx="74.04" cy="89.72" rx="0.3" ry="0.05"/><ellipse class="cls-54" cx="65.73" cy="90.17" rx="0.69" ry="0.09"/><ellipse class="cls-54" cx="79.07" cy="90.7" rx="0.69" ry="0.09"/><ellipse class="cls-54" cx="58.76" cy="90.77" rx="0.69" ry="0.09"/><path class="cls-55" d="M59.51,91.3l-.11,0s-.1,0-.11,0,0,0,0,0l.1,0h-.13a.12.12,0,0,0-.1,0s0,0,.09.06a.43.43,0,0,0,.16,0s-.1.06-.08.09,0,0,.09,0,.17,0,.19-.06a.08.08,0,0,0,0,0h.11l.11,0s0-.05,0-.06a.71.71,0,0,0,.21,0,.12.12,0,0,0,.09,0s0-.06-.05-.07H60a.17.17,0,0,0,.12-.06s0,0-.05-.07a.28.28,0,0,0-.13,0,.35.35,0,0,0-.11,0s0-.06,0-.07-.13,0-.13,0,0,0-.09,0-.08,0-.06.06"/><path class="cls-55" d="M64.78,91.94a.44.44,0,0,0-.2-.08c-.08,0-.18,0-.21,0s0,.07.07.09l.18,0a1,1,0,0,0-.25,0c-.08,0-.16,0-.17.08s.07.1.16.12a1.51,1.51,0,0,0,.3,0c-.09,0-.2.11-.14.17a.21.21,0,0,0,.15,0,.41.41,0,0,0,.37-.12s0,.08.08.1a.49.49,0,0,0,.21,0,.35.35,0,0,0,.21,0s0-.09,0-.11a.93.93,0,0,0,.41.06.42.42,0,0,0,.17,0c.06,0,0-.12-.11-.15a1.14,1.14,0,0,0-.32,0,.35.35,0,0,0,.21-.11c0-.05,0-.11-.08-.14a.42.42,0,0,0-.25,0,.65.65,0,0,0-.21.07c.08,0,0-.13-.07-.15s-.24,0-.25.09-.06-.1-.16-.1-.16.07-.12.12"/><path class="cls-55" d="M63.29,89.28l-.11,0s-.1,0-.11,0,0,0,0,0l.1,0h-.13s-.09,0-.1.05,0,0,.09.06h.16s-.1.06-.08.09l.09,0c.08,0,.17,0,.19-.07s0,0,0,.06h.11l.11,0s0,0,0-.06a.71.71,0,0,0,.21,0s.07,0,.09,0,0-.06,0-.07a.54.54,0,0,0-.18,0,.2.2,0,0,0,.12-.06s0-.06,0-.07h-.13l-.11,0s0-.06,0-.07-.13,0-.13,0,0-.05-.09-.05-.08,0-.06.06"/><path class="cls-55" d="M68.76,88.89a.25.25,0,0,0-.11,0c-.05,0-.1,0-.11,0s0,0,0,0l.1,0h-.13c-.05,0-.09,0-.1,0s0,0,.09.06h.16s-.11.06-.08.09l.09,0a.21.21,0,0,0,.19-.06s0,0,0,0a.2.2,0,0,0,.11,0,.2.2,0,0,0,.11,0s0,0,0-.05a.71.71,0,0,0,.21,0s.07,0,.09,0,0-.06,0-.07a.37.37,0,0,0-.18,0,.2.2,0,0,0,.12-.06s0-.06,0-.07a.19.19,0,0,0-.13,0l-.11,0s0-.07,0-.08-.13,0-.13.05,0-.05-.09-.05-.08,0-.06.06"/><path class="cls-55" d="M75.38,90.34l-.16,0-.17,0s0,0,0,0h0c-.07,0-.14,0-.15,0s.06,0,.14,0h.24c-.08,0-.16,0-.12.06a.25.25,0,0,0,.13,0,.62.62,0,0,0,.31,0s0,0,.07,0h.16l.18,0s0,0,0,0l.33,0,.14,0c.05,0,0,0-.09,0H76.1a.37.37,0,0,0,.18,0s0,0-.07,0a.67.67,0,0,0-.2,0l-.18,0c.07,0,0,0,0,0a.35.35,0,0,0-.21,0s0,0-.13,0-.13,0-.1,0"/><path class="cls-55" d="M72.31,92.19a.25.25,0,0,0-.11,0s-.1,0-.11,0,0,0,0,0l.1,0h-.13s-.09,0-.1,0,0,.06.09.06a.43.43,0,0,0,.16,0s-.11,0-.08.09l.09,0a.21.21,0,0,0,.19-.06s0,0,0,.05l.11,0a.2.2,0,0,0,.11,0s0,0,0,0a.49.49,0,0,0,.21,0s.07,0,.09,0,0-.06,0-.07a.37.37,0,0,0-.18,0,.2.2,0,0,0,.12-.06s0-.06,0-.07a.19.19,0,0,0-.13,0l-.11,0s0-.07,0-.08-.13,0-.13,0,0,0-.09,0-.08,0-.06.06"/></g><path class="cls-5" d="M58,71.25a4.27,4.27,0,0,0-2.11,1.94c-1.64,2.68-1.81,6-3.08,8.89a47.13,47.13,0,0,1-3.39,5.49,14,14,0,0,0-2.29,6,7.3,7.3,0,0,0,2,6,5,5,0,0,0,5.95.79c1.84-1.2,2.43-3.59,2.65-5.77a33.73,33.73,0,0,0,.18-4.14A25.88,25.88,0,0,1,57.94,87a37.24,37.24,0,0,1,1-3.88A18.73,18.73,0,0,0,58,71.48"/><g class="cls-56"><g class="cls-57"><path class="cls-1" d="M53.74,102.07a1.26,1.26,0,0,1-1.61.23,2.51,2.51,0,0,1-1-1.52,12.06,12.06,0,0,1-.42-3.44,14.88,14.88,0,0,1,1.64-6.79,50.13,50.13,0,0,0,3.09-5.9c.77-2.15,1.14-4.41,1.74-6.61a13.25,13.25,0,0,1,3.38-6.41c.11-.1-.06-.27-.17-.16-3.7,3.46-3.6,9-5.29,13.44-.93,2.45-2.65,4.5-3.6,7a15.15,15.15,0,0,0-.9,7.45c.14,1,.33,2.36,1.22,3a1.55,1.55,0,0,0,2.13-.12c.1-.11-.07-.28-.17-.17Z"/></g><g class="cls-57"><path class="cls-1" d="M60.42,71.32A11.58,11.58,0,0,0,56.14,76a19.43,19.43,0,0,0-1.2,3.41,27.49,27.49,0,0,1-1.36,3.85c-2,4.43-5.31,8.87-4.66,14a10.36,10.36,0,0,0,3.16,6.18.12.12,0,0,0,.16-.17,10.08,10.08,0,0,1-3-5.65,13.19,13.19,0,0,1,1.1-7.16c.9-2.23,2.14-4.3,3.18-6.47a24.14,24.14,0,0,0,1.28-3.17c.37-1.15.63-2.33,1-3.47a11.43,11.43,0,0,1,4.73-5.81c.12-.08,0-.28-.12-.2Z"/></g><g class="cls-57"><path class="cls-1" d="M61,74.18c-3.47,3.13-4,8-5.4,12.25-1.34,4-3.19,8.37-1.68,12.62a7.52,7.52,0,0,0,1.53,2.58c.13.13.38.44.62.31s.15-.27.07-.41a.1.1,0,0,0-.1,0H56a.12.12,0,0,0,0,.23c-.33,0-.82-.81-1-1a6.74,6.74,0,0,1-.59-1,8.85,8.85,0,0,1-.71-2.47,14.23,14.23,0,0,1,.46-5.58c.52-2,1.27-3.84,1.88-5.77s1.08-4,1.78-6a12.75,12.75,0,0,1,3.35-5.45c.11-.1-.06-.27-.17-.17Z"/></g><g class="cls-57"><path class="cls-1" d="M60.88,78.54a24.83,24.83,0,0,0-3.58,23.31c.05.14.27.08.22-.06a24.63,24.63,0,0,1,3.56-23.14c.09-.12-.11-.23-.2-.11Z"/></g><path class="cls-16" d="M56.48,70.42c.1,3.77,2.78,7.19,2.5,11a18.65,18.65,0,0,0-.31,3.32c0,.39.27.86.65.8a.85.85,0,0,0,.38-.24,4.21,4.21,0,0,0,1-1.16,4.3,4.3,0,0,0,.36-1.63c.12-1.34.2-2.69.26-4,.11-2.79.07-5.68-1.06-8.23a3.39,3.39,0,0,0-.89-1.31,1.51,1.51,0,0,0-1.5-.29c-.66.29-.88,1.11-1,1.83"/></g><path class="cls-2" d="M57.92,92.25a1.16,1.16,0,0,0-.65.6,1.51,1.51,0,0,0,.34,1.62,3.25,3.25,0,0,0,1.52.84,8.26,8.26,0,0,0,4.57.06c.28-.08.59-.21.66-.48a.6.6,0,0,0-.22-.59,1.47,1.47,0,0,0-.6-.26,8.71,8.71,0,0,0-1.9-.27,8.79,8.79,0,0,1-1.26-.06,5,5,0,0,1-2.3-1.27.36.36,0,0,1-.11-.11Z"/><path class="cls-58" d="M63.34,94.18l.11,1a.07.07,0,0,0,0,.06l.05,0a.51.51,0,0,0,.56-.52c0-.29-.36-.62-.64-.55Z"/><path class="cls-2" d="M58.21,93.74a1,1,0,0,0-.58.53,1.35,1.35,0,0,0,.3,1.45,3,3,0,0,0,1.36.76,7.46,7.46,0,0,0,4.11,0c.25-.07.53-.18.6-.43a.55.55,0,0,0-.2-.53,1.52,1.52,0,0,0-.54-.23,7.12,7.12,0,0,0-1.71-.24A7.07,7.07,0,0,1,60.42,95a4.6,4.6,0,0,1-2.07-1.13l-.09-.11Z"/><path class="cls-58" d="M63.07,95.46l.1.87a.14.14,0,0,0,0,.06l.05,0a.46.46,0,0,0,.5-.47c0-.26-.32-.56-.57-.49Z"/><path class="cls-2" d="M59,95.85a.7.7,0,0,0-.35.44,1,1,0,0,0,.36,1,2.11,2.11,0,0,0,1,.4A5.38,5.38,0,0,0,63,97.29c.16-.07.35-.18.37-.36a.37.37,0,0,0-.19-.35,1,1,0,0,0-.41-.11,5.06,5.06,0,0,0-1.23,0,5.29,5.29,0,0,1-.8.08A3.39,3.39,0,0,1,59.14,96l-.08-.07Z"/><path class="cls-58" d="M62.63,96.57l.15.61s0,0,0,0h0a.34.34,0,0,0,.31-.38c0-.18-.29-.36-.46-.28Z"/><path class="cls-2" d="M58.56,90.47a1,1,0,0,0-.66.47A1.4,1.4,0,0,0,58,92.47a2.94,2.94,0,0,0,1.3.94,7.73,7.73,0,0,0,4.22.54.79.79,0,0,0,.66-.37.54.54,0,0,0-.15-.56,1.44,1.44,0,0,0-.52-.31,8,8,0,0,0-1.73-.45,7.66,7.66,0,0,1-1.15-.19,4.7,4.7,0,0,1-2-1.41,1.18,1.18,0,0,1-.08-.12Z"/><path class="cls-58" d="M63.35,92.82v.9s0,0,0,.06,0,0,0,0a.48.48,0,0,0,.57-.42c0-.27-.26-.61-.53-.57Z"/><path class="cls-59" d="M84.51,89,76,87.75a.19.19,0,0,0-.22.22h0a.19.19,0,0,0,.16.16l8.47,1.28"/><path class="cls-59" d="M69.63,86.86s-.31,1.2,1.38,2a6.11,6.11,0,0,0,3.19.48s1.7-.19,1.89-1.45Z"/><ellipse class="cls-60" cx="72.86" cy="87.35" rx="0.59" ry="3.27" transform="translate(-24.4 146.33) rotate(-81.4)"/><path class="cls-5" d="M84.15,71.41s5.41,4,7.6,8.34,6.92-10,8.78-10.32,4.61,11.31,5.49,14S95.81,94.79,91.64,92.15,85,86.28,85,85.65,81.6,75.91,84.15,71.41Z"/><g class="cls-61"><path class="cls-62" d="M82.15,72.83a15.27,15.27,0,0,1,5.38,5,17.91,17.91,0,0,0,2.35,3.34,4.62,4.62,0,0,0,5.41.81c1.57-1,2.21-2.89,2.6-4.69s.71-3.74,2-5.09a4.69,4.69,0,0,1,3.71-1.49"/><path class="cls-62" d="M83,76.45a9.52,9.52,0,0,1,3.73,4.1A13.24,13.24,0,0,0,90.12,85a6,6,0,0,0,8.54-1.68,7.75,7.75,0,0,0,1-3,18.11,18.11,0,0,1,.44-2.86,2.83,2.83,0,0,1,1.9-2c.61-.14,1.3,0,1.85-.28"/><path class="cls-62" d="M106.49,77.78A4.75,4.75,0,0,0,102.42,80c-.79,1.26-.94,2.82-1.58,4.16a7,7,0,0,1-4.92,3.68,9.44,9.44,0,0,1-6.16-1,11.4,11.4,0,0,1-4.42-4.1A10.62,10.62,0,0,0,84.23,81a2.26,2.26,0,0,0-1.76-.84"/><path class="cls-62" d="M83.22,84.36a11.26,11.26,0,0,1,5,3A17.62,17.62,0,0,0,90.8,90a6.51,6.51,0,0,0,5.65.52,15.38,15.38,0,0,0,5-3.11,17.87,17.87,0,0,0,4-4.47,4,4,0,0,1,1-1.38,2.23,2.23,0,0,1,1.82-.23,6.47,6.47,0,0,1,1.7.81"/><path class="cls-16" d="M87.14,71.41s-2.74,2-2.63,8.23a36.9,36.9,0,0,0,1.2,9.66L80.53,87l-.19-16.16.54-2.08,3-.44Z"/></g><path class="cls-2" d="M103.33,66.89a33.76,33.76,0,0,1,2.29-4.06c.42-.31.78,0,.44.92s-1.6,3.51-1.6,3.51l-1.09.44Z"/><path class="cls-2" d="M104.34,67.49A33.84,33.84,0,0,1,107,63.68c.45-.27.78,0,.34.95S105.43,68,105.43,68l-1.13.33Z"/><path class="cls-2" d="M105.09,68.54a33.83,33.83,0,0,1,3-3.57c.48-.23.78.1.27,1s-2.21,3.16-2.21,3.16l-1.16.23Z"/><path class="cls-2" d="M105.47,70.3a34.12,34.12,0,0,1,3.1-3.48c.48-.21.78.13.24,1s-2.31,3.09-2.31,3.09l-1.17.19Z"/><circle class="cls-63" cx="150.18" cy="36.38" r="1.93"/><circle class="cls-64" cx="150.18" cy="36.38" r="1.93"/><circle class="cls-65" cx="149.34" cy="35.49" r="0.47"/></svg>