<svg xmlns="http://www.w3.org/2000/svg" xmlns:xlink="http://www.w3.org/1999/xlink" viewBox="0 0 260 168"><defs><style>.cls-1,.cls-35{fill:#6ab7be;}.cls-2{fill:#572517;}.cls-3{fill:#9b4a0d;}.cls-4{fill:#a55716;}.cls-5{fill:#b4e1e7;}.cls-6{fill:#130402;}.cls-7{fill:#d5f5f7;}.cls-8{fill:#2a1107;}.cls-33,.cls-9{fill:#60aeb2;}.cls-10,.cls-15,.cls-16,.cls-17,.cls-18,.cls-26,.cls-65{fill:none;}.cls-11{fill:#fff1e1;}.cls-12{opacity:0.36;fill:url(#radial-gradient);}.cls-13{opacity:0.44;fill:url(#radial-gradient-2);}.cls-14{clip-path:url(#clip-path);}.cls-15{stroke:red;}.cls-15,.cls-16,.cls-17,.cls-18,.cls-26{stroke-linecap:round;stroke-linejoin:round;}.cls-15,.cls-16,.cls-17,.cls-18{stroke-width:0.46px;}.cls-16{stroke:#2d5b04;}.cls-17{stroke:#000dff;}.cls-18{stroke:#ffb600;}.cls-19{fill:#fff;}.cls-20{fill:#e2e2e2;}.cls-21{fill:#280f05;}.cls-22{fill:#461d13;}.cls-23{clip-path:url(#clip-path-2);}.cls-24{fill:#431a11;}.cls-25{fill:#1f0e07;}.cls-26{stroke:#280f05;stroke-width:2.95px;}.cls-27{fill:#ff8c26;}.cls-28{fill:#ffe1bd;}.cls-29{fill:#572417;}.cls-30{fill:#441a12;}.cls-31{clip-path:url(#clip-path-3);}.cls-32{fill:#96c5c7;}.cls-33{opacity:0.37;}.cls-34{clip-path:url(#clip-path-4);}.cls-35{opacity:0.28;}.cls-36{clip-path:url(#clip-path-5);}.cls-37{fill:#ea6e27;}.cls-38{fill:#132995;}.cls-39{clip-path:url(#clip-path-6);}.cls-40{fill:#479e9e;}.cls-41{clip-path:url(#clip-path-7);}.cls-42{fill:#87c1c6;}.cls-43{fill:#1632b7;}.cls-44{fill:#041e7f;}.cls-45{clip-path:url(#clip-path-8);}.cls-46{fill:#6d3503;}.cls-47{fill:#7c3e0a;}.cls-48{fill:#602e05;}.cls-49{fill:#c96d28;}.cls-50{fill:#e0874b;}.cls-51{clip-path:url(#clip-path-9);}.cls-52{fill:#9b4a0e;}.cls-53{clip-path:url(#clip-path-10);}.cls-54{clip-path:url(#clip-path-11);}.cls-55{clip-path:url(#clip-path-12);}.cls-56{fill:#9e5823;}.cls-57{fill:#58990d;}.cls-58{clip-path:url(#clip-path-13);}.cls-59{opacity:0.51;}.cls-60{fill:#6b2f20;}.cls-61{fill:#f71414;}.cls-62{fill:#d60707;}.cls-63{fill:#773f32;}.cls-64{clip-path:url(#clip-path-14);}.cls-65{stroke:#6ab7be;stroke-miterlimit:10;stroke-width:0.37px;}</style><radialGradient id="radial-gradient" cx="216.31" cy="31.79" r="1.93" gradientTransform="matrix(0.98, -0.21, 0.21, 0.98, -35.46, 95.54)" gradientUnits="userSpaceOnUse"><stop offset="0.58" stop-color="#c49a6c" stop-opacity="0"/><stop offset="0.62" stop-color="#c89a6c" stop-opacity="0.06"/><stop offset="0.7" stop-color="#d1996c" stop-opacity="0.22"/><stop offset="0.81" stop-color="#e1976c" stop-opacity="0.47"/><stop offset="0.95" stop-color="#f6956c" stop-opacity="0.81"/><stop offset="1" stop-color="#ff946c" stop-opacity="0.95"/></radialGradient><radialGradient id="radial-gradient-2" cx="215.47" cy="30.9" r="0.47" gradientTransform="matrix(0.98, -0.21, 0.21, 0.98, -35.46, 95.54)" gradientUnits="userSpaceOnUse"><stop offset="0.06" stop-color="#fff" stop-opacity="0"/><stop offset="0.14" stop-color="#fff" stop-opacity="0.06"/><stop offset="0.27" stop-color="#fff" stop-opacity="0.21"/><stop offset="0.46" stop-color="#fff" stop-opacity="0.46"/><stop offset="0.59" stop-color="#fff" stop-opacity="0.65"/><stop offset="0.61" stop-color="#fff" stop-opacity="0.67"/><stop offset="0.71" stop-color="#fff" stop-opacity="0.79"/><stop offset="0.81" stop-color="#fff" stop-opacity="0.88"/><stop offset="0.91" stop-color="#fff" stop-opacity="0.93"/><stop offset="1" stop-color="#fff" stop-opacity="0.95"/></radialGradient><clipPath id="clip-path"><path class="cls-1" d="M116.81,114.37s-6.7.32-9.94,2.16-.08,6.1-1.12,20-1.86,19-.72,26.5c0,0,5.85,2.56,21.44,1.92s23.11-2.08,23.88-4-.13-16.83-1.55-21.38-.52-20.54-.26-21.88-4.19-3.06-8.85-3C139.69,114.67,118.54,116.25,116.81,114.37Z"/></clipPath><clipPath id="clip-path-2"><path class="cls-2" d="M111,32S92.13,35.61,86.46,53.75s6.79,39.7,10,44.35,17.21,15.09,33.91,11.34,22.81-21.51,23.34-26.26-.26-32-13.74-44.59C127.59,27,111,32,111,32Z"/></clipPath><clipPath id="clip-path-3"><path class="cls-6" d="M117.87,98.46a4.81,4.81,0,0,0-.16,5.42c1.83,2.9,3.45-1.35,10.15-2.89s8.1-.66,9.7-.86,1.65-6.5-3.21-6.78A25.77,25.77,0,0,0,117.87,98.46Z"/></clipPath><clipPath id="clip-path-4"><path class="cls-7" d="M104.85,161.69s9.25.08,15,2.29,14,0,17.51-.76,12.37-5,14.5-1.94,9.71,11.73,8.54,15.38-10.69,10.53-16,9.75-15.78-.91-19.24-.39-13.7,1.29-18.36.65-13.2-1.85-11.51-10.54S101.74,162.72,104.85,161.69Z"/></clipPath><clipPath id="clip-path-5"><path class="cls-8" d="M114.74,113.66c.53.08,3.72,2.87,3.28,9.09s.64,7.87-1.62,12.79-.19,9.48-1.14,12.87S107.84,160,104,162c0,0-.58-13.62,1.43-22.34s4.86-18.14,1.4-23.15C106.87,116.53,112.92,113.39,114.74,113.66Z"/></clipPath><clipPath id="clip-path-6"><path class="cls-8" d="M141.84,113.66c-.54.08-3.72,2.87-3.29,9.09s-.64,7.87,1.63,12.79.19,9.48,1.14,12.87,5.36,9.78,9.16,11.86c0,0,2.63-11.87.62-20.59s-4.86-18.14-1.4-23.15C149.7,116.53,143.65,113.39,141.84,113.66Z"/></clipPath><clipPath id="clip-path-7"><path class="cls-9" d="M110.91,164.51c-6,1.36-11.82,4.59-14.51,10.08-3.66,7.49-.7,17.13,5.65,22.53a20,20,0,0,1,3.53-8c3.9-5.06,11.22-2.7,17.46-4.06,7-1.54,12.11-4.43,18.91-2s14.28,6.37,14,13.58c4.39-3.17,4.9-9.43,4.78-14.85-.07-3.05-.22-6.17-1.42-9-2.58-6-9.44-9.09-15.94-9.67s-13,.75-19.54.9c-1.7,0-3.41,0-5.11-.06A46.8,46.8,0,0,0,110.91,164.51Z"/></clipPath><clipPath id="clip-path-8"><path class="cls-10" d="M141.25,146.45c0,1.24-7.84,2.25-16.45,2.25s-16.7-1-16.7-2.25,7.27-8.31,15.87-8.31S141.25,145.2,141.25,146.45Z"/></clipPath><clipPath id="clip-path-9"><path class="cls-4" d="M120.75,149.29a1.64,1.64,0,0,0-.25,1.2c.17.54,4.6.7,4.94.64a3.37,3.37,0,0,0,1.93-1c.33-.6-.31-1.2-.31-1.2l-3.91.09Z"/></clipPath><clipPath id="clip-path-10"><path class="cls-4" d="M111.46,148a12.63,12.63,0,0,0-.35,1.72c-.07.67,2.65,1.7,3.38,1.65a11.3,11.3,0,0,0,4.11-1.64c.61-.63-.68-1.73-.68-1.73l-5,0Z"/></clipPath><clipPath id="clip-path-11"><path class="cls-3" d="M134.47,144.88A8.22,8.22,0,0,0,134,146c-.13.41,1.86,1.15,3.14,1.13a2.06,2.06,0,0,0,1.78-1.42c0-.11.18-1.39-.12-1.56l-3.07.73Z"/></clipPath><clipPath id="clip-path-12"><path class="cls-4" d="M125.34,146.11s-.36.9-.1,1.3,3,.3,3.56.33a5,5,0,0,0,2.71-.4c.68-.51.18-1.51.18-1.51l-5.63.18Z"/></clipPath><clipPath id="clip-path-13"><path class="cls-5" d="M107.19,116.26a7,7,0,0,0-3.44,3.15c-2.67,4.37-2.94,9.78-5,14.46-1.42,3.2-3.65,6-5.51,8.94a23,23,0,0,0-3.73,9.76,11.92,11.92,0,0,0,3.18,9.68c2.54,2.43,6.74,3.2,9.69,1.28s3.95-5.84,4.31-9.38a60.33,60.33,0,0,0,.3-6.72,38.07,38.07,0,0,1,.11-5.55,58.22,58.22,0,0,1,1.55-6.32,30.32,30.32,0,0,0-1.51-18.92"/></clipPath><clipPath id="clip-path-14"><path class="cls-5" d="M149,116.46s13.62,1.31,20.12.21,6.59-20.74,9.71-23.66,15,4.38,18.57,13.2-12.45,26.2-21.92,28.1-23.36,2.31-25.37.65S147.27,118.72,149,116.46Z"/></clipPath></defs><g id="Layer_1" data-name="Layer 1"><path class="cls-2" d="M181,84.49a3.41,3.41,0,0,1,.06-1.85c.25-.57,1-1,1.52-.6a1.6,1.6,0,0,1,.5,1l.86,3.74a2.41,2.41,0,0,0,.6,1.3,1.7,1.7,0,0,0,1.19.38A2.74,2.74,0,0,0,188,84.17c-1.06-1.58-3.54-1.78-4.48-3.44a1.15,1.15,0,0,1-.17-.86c.22-.73,1.29-.63,2-.32A14.55,14.55,0,0,1,191.62,85a9.87,9.87,0,0,1,1.66,4.73,6.08,6.08,0,0,1-1.64,4.65,7.13,7.13,0,0,1-2.06,1.37,7.79,7.79,0,0,1-6.59.4c-2.2-1.06-1.81-2.69-1.68-4.67A33.17,33.17,0,0,0,181,84.49Z"/><path class="cls-2" d="M188.52,81.57a3,3,0,0,0-1.6-.09,1.88,1.88,0,0,0-1.24,1,2.5,2.5,0,0,0-.21,1,17.37,17.37,0,0,0-.05,2c0,.53.15,1.17.65,1.36a.92.92,0,0,0,.86-.16,2,2,0,0,0,.56-.72,5.33,5.33,0,0,0,.6-1.91,3,3,0,0,0,.47,1.45,1.45,1.45,0,0,0,1.31.64,1.76,1.76,0,0,0,1.18-2.43A4.34,4.34,0,0,0,188.52,81.57Z"/><path class="cls-2" d="M190.76,83.16a3,3,0,0,0-1.49-.6,1.9,1.9,0,0,0-1.49.52,3.16,3.16,0,0,0-.51.87,17.45,17.45,0,0,0-.68,1.92c-.15.51-.24,1.16.18,1.49a.9.9,0,0,0,.87.12,2.1,2.1,0,0,0,.76-.5,5.55,5.55,0,0,0,1.17-1.62,3,3,0,0,0,0,1.52,1.45,1.45,0,0,0,1,1A1.74,1.74,0,0,0,192.48,86,4.31,4.31,0,0,0,190.76,83.16Z"/><path class="cls-2" d="M192.48,85.4a3,3,0,0,0-1.28-1,1.87,1.87,0,0,0-1.57.11,2.82,2.82,0,0,0-.72.7,14.73,14.73,0,0,0-1.17,1.67c-.28.45-.54,1-.23,1.49a1,1,0,0,0,.81.35,2,2,0,0,0,.86-.29,5.29,5.29,0,0,0,1.57-1.25,2.84,2.84,0,0,0-.42,1.46,1.44,1.44,0,0,0,.73,1.26,1.75,1.75,0,0,0,2.33-1.35A4.38,4.38,0,0,0,192.48,85.4Z"/><circle class="cls-11" cx="182.68" cy="80.88" r="1.93"/><circle class="cls-12" cx="182.68" cy="80.88" r="1.93"/><circle class="cls-13" cx="181.67" cy="80.19" r="0.47"/><path class="cls-1" d="M116.81,114.37s-6.7.32-9.94,2.16-.08,6.1-1.12,20-1.86,19-.72,26.5c0,0,5.85,2.56,21.44,1.92s23.11-2.08,23.88-4-.13-16.83-1.55-21.38-.52-20.54-.26-21.88-4.19-3.06-8.85-3C139.69,114.67,118.54,116.25,116.81,114.37Z"/><g class="cls-14"><path class="cls-15" d="M119.77,139.11s8.7-.17,9.58-8.1"/><path class="cls-16" d="M120.42,140.09s8.69-.17,9.57-8.11"/><path class="cls-17" d="M121.06,141.06s8.7-.17,9.57-8.1"/><path class="cls-18" d="M121.7,142s8.7-.17,9.57-8.11"/><path class="cls-15" d="M112.32,151.86s8.69-.17,9.57-8.11"/><path class="cls-16" d="M113,152.83s8.7-.17,9.57-8.1"/><path class="cls-17" d="M113.6,153.81s8.7-.17,9.57-8.11"/><path class="cls-18" d="M114.24,154.78s8.7-.17,9.57-8.1"/><path class="cls-15" d="M124.52,161.53s8.7-.17,9.58-8.11"/><path class="cls-16" d="M125.17,162.51s8.7-.18,9.57-8.11"/><path class="cls-17" d="M125.81,163.48s8.7-.17,9.57-8.11"/><path class="cls-18" d="M126.45,164.46s8.7-.17,9.57-8.11"/><path class="cls-15" d="M135.36,130.78s8.69-.17,9.57-8.11"/><path class="cls-16" d="M136,131.75s8.7-.17,9.57-8.1"/><path class="cls-17" d="M136.64,132.73s8.7-.17,9.57-8.11"/><path class="cls-18" d="M137.28,133.7s8.7-.17,9.57-8.1"/><path class="cls-15" d="M136.07,147.22s8.7-.17,9.58-8.11"/><path class="cls-16" d="M136.72,148.19s8.69-.17,9.57-8.11"/><path class="cls-17" d="M137.36,149.17s8.7-.17,9.57-8.11"/><path class="cls-18" d="M138,150.14s8.7-.17,9.57-8.11"/><path class="cls-19" d="M102.53,112.63c3.9,1.45,6.62,5.2,7.7,9.22s.72,8.29,0,12.38a66.06,66.06,0,0,1-1.76,7.22c-.48,1.56-1.24,3.32-2.82,3.7-2.45-10.65-4.91-21.55-3.72-32.42.07-.63.72-1.46,1.12-1l-.35,1.14"/></g><path class="cls-2" d="M121.22,107.62v6.31s-3.11.7-4.84.95,4.58,14.7,12.19,14.7,12-12.1,12.53-14.52l-6-1.65v-6.59S122.17,103.91,121.22,107.62Z"/><path d="M120.17,113.9c1,3.32,4.83,4.11,7.88,4.18a9.77,9.77,0,0,0,8.44-3.74c.66-.94-.88-1.82-1.53-.9-1.5,2.11-4.16,2.89-6.64,2.87-2.23,0-5.66-.35-6.45-2.88-.33-1.09-2-.63-1.7.47Z"/><circle class="cls-20" cx="128.37" cy="118.43" r="1.9"/><path class="cls-21" d="M88.54,67.77s-3.4-5.72-10.76-2.56-4.26,9-4.26,9-9,2.73-6.92,10.86,6.94,6.59,6.94,6.59S70.25,96,74.3,101s6.87,2.59,6.87,2.59,2.39-.56,3.3,3.56,4.6,4.79,10.58,2.2c0,0,13.63,1.15,16.11-3.2L100.37,69.62Z"/><path class="cls-21" d="M147.73,54.48s.64-6.62,8.64-6.91,7.71,6.33,7.71,6.33,9.28-1.38,10.9,6.85-3.46,8.93-3.46,8.93,4.82,2.49,3.3,8.76-5.11,5.27-5.11,5.27-2.39.52-1.46,4.62-2.11,6.3-8.62,6.52c0,0-11.83,6.87-15.93,4l-5.87-37.64Z"/><circle class="cls-22" cx="89.59" cy="85.04" r="8.82" transform="translate(-33.55 94.78) rotate(-48.03)"/><circle class="cls-22" cx="153.6" cy="70.67" r="8.82" transform="translate(-1.66 137.61) rotate(-48.03)"/><path class="cls-2" d="M111,32S92.13,35.61,86.46,53.75s6.79,39.7,10,44.35,17.21,15.09,33.91,11.34,22.81-21.51,23.34-26.26-.26-32-13.74-44.59C127.59,27,111,32,111,32Z"/><g class="cls-23"><path class="cls-24" d="M85.89,83s1.21-16.49,6.94-21.76,13.56-7.69,23.17-9.85,20.18-3.07,23.54-1.7,13.31,10.17,15.34,17.42l-6.64-45.55L95.05,27.89s-15.82,7.67-16.17,7.88-6.08,12-6.08,12Z"/></g><ellipse class="cls-21" cx="112.76" cy="39.7" rx="2.71" ry="11.59" transform="translate(-5.96 25.67) rotate(-12.65)"/><path class="cls-25" d="M97.58,76.76a6.11,6.11,0,0,1-4.36-.49,4.67,4.67,0,0,0,2.84,3.16S98.79,78.88,97.58,76.76Z"/><path class="cls-25" d="M97.57,79.24a6.09,6.09,0,0,1-4.36-.48A4.62,4.62,0,0,0,96,81.91S98.77,81.37,97.57,79.24Z"/><circle class="cls-19" cx="104.59" cy="83.06" r="10.17" transform="translate(-27.11 105.27) rotate(-48.03)"/><path d="M106.52,77.79a6.51,6.51,0,0,0-1.65.61,2.88,2.88,0,1,1-3.23,3.82,6.68,6.68,0,1,0,4.88-4.43Z"/><path class="cls-25" d="M143.43,66.12a6.1,6.1,0,0,0,3.73-2.3A4.65,4.65,0,0,1,146,67.88S143.24,68.55,143.43,66.12Z"/><path class="cls-25" d="M144.5,68.36a6.12,6.12,0,0,0,3.74-2.3A4.65,4.65,0,0,1,147,70.12S144.32,70.79,144.5,68.36Z"/><circle class="cls-19" cx="139.53" cy="75.21" r="10.17" transform="translate(-9.7 128.65) rotate(-48.03)"/><path d="M141.46,69.94a6.92,6.92,0,0,0-1.65.61,2.88,2.88,0,1,1-3.23,3.83,6.68,6.68,0,1,0,4.88-4.44Z"/><ellipse class="cls-22" cx="123.48" cy="84.98" rx="5.01" ry="3.24" transform="translate(-15.62 29.12) rotate(-12.66)"/><path class="cls-26" d="M110,49.26S86.94,55.09,85.31,68"/><path class="cls-26" d="M107.86,44.35s-18.15,5.87-23.1,14.36"/><path class="cls-26" d="M106.74,39.36s-13.39,4.41-18.9,10.79"/><path class="cls-26" d="M107.28,34.22a35.79,35.79,0,0,0-15,7.73"/><path class="cls-26" d="M120.35,46.94s23.33-4.59,30.3,6.34"/><path class="cls-26" d="M120.18,41.58s18.91-2.45,27,3.11"/><path class="cls-26" d="M119.06,36.6s14-1.74,21.7,1.67"/><path class="cls-26" d="M116.37,32.18a35.77,35.77,0,0,1,16.85.58"/><circle class="cls-27" cx="158.57" cy="88.54" r="5.1" transform="translate(-13.3 147.22) rotate(-48.03)"/><circle class="cls-28" cx="156.55" cy="81.81" r="1.47"/><circle class="cls-27" cx="155.69" cy="77.97" r="1.47"/><circle class="cls-27" cx="93.23" cy="103.21" r="5.1" transform="translate(-45.85 103.5) rotate(-48.03)"/><circle class="cls-28" cx="91.21" cy="96.48" r="1.47"/><circle class="cls-27" cx="90.34" cy="92.65" r="1.47"/><path class="cls-29" d="M96.26,75.91s11.75-2.74,19.1,6.48l-1.43-9.22L97.58,71.08Z"/><path class="cls-29" d="M130,79.53s4.72-13.94,14-14.27l-5.49-2.19-9.44,5.16-3,5.16Z"/><path class="cls-6" d="M126.82,67.26a32.28,32.28,0,0,0,13.8-11.39S139.83,69.57,126.82,67.26Z"/><path class="cls-6" d="M97.4,66.11a32.28,32.28,0,0,0,17.53,3.6S103.75,77.69,97.4,66.11Z"/><path class="cls-30" d="M125.13,93a7.52,7.52,0,0,0-8,4.46c-2.34,5.42-1.09,7-2.12,8.12,0,0,2.71,2.57,5.93,1.1s5.49-3,9-3.66,6.36-.44,8.78-.73,3.58-3.36,3.58-3.36a4.85,4.85,0,0,1-1.75-2.13c-.95-1.75-3.88-8-11-4.53A5.86,5.86,0,0,1,125.13,93Z"/><path class="cls-6" d="M117.87,98.46a4.81,4.81,0,0,0-.16,5.42c1.83,2.9,3.45-1.35,10.15-2.89s8.1-.66,9.7-.86,1.65-6.5-3.21-6.78A25.77,25.77,0,0,0,117.87,98.46Z"/><g class="cls-31"><ellipse class="cls-19" cx="126.13" cy="92.75" rx="11.63" ry="4.46" transform="translate(-16.93 29.15) rotate(-12.36)"/><ellipse class="cls-19" cx="128.31" cy="102.68" rx="11.63" ry="4.46" transform="translate(-19.01 29.84) rotate(-12.36)"/></g><path class="cls-2" d="M98.2,94.13s5.34-5.12,15.08-1.39l-4.91,5.71Z"/><path class="cls-32" d="M116.05,121.47c1.3,5.09,6.81,8.45,11.87,8.51a14.52,14.52,0,0,0,13-8.91c.44-1-1.27-1.51-1.7-.47a12.73,12.73,0,0,1-11.34,7.6c-4.29,0-9.06-2.88-10.17-7.2a.88.88,0,0,0-1.7.47Z"/><path class="cls-32" d="M120,126.49a7.7,7.7,0,0,0-1.79,4.88,7.11,7.11,0,0,0,.48,2.62,3,3,0,0,1,.42,1.43,5.15,5.15,0,0,1-.65,1.36,6.27,6.27,0,0,0-.63,2.55,6.67,6.67,0,0,0,.15,1.47,4.83,4.83,0,0,1,.32,1.27c0,.71-.64,1.35-1,1.92a3.41,3.41,0,0,0-.58,2.12c.08.65,1,1.3,1.52.62a7.45,7.45,0,0,0,1.11-1.91c.43-1.06-1.28-1.52-1.71-.47a4.29,4.29,0,0,1-.66,1.13l1.52.63c-.15-1.29,1.29-2.32,1.51-3.59a5.47,5.47,0,0,0-.34-2.19,4.41,4.41,0,0,1,.43-2.92,4.74,4.74,0,0,0,.78-2.17,9.36,9.36,0,0,0-.73-2.4,5.78,5.78,0,0,1,1.09-5.1c.71-.87-.53-2.13-1.26-1.25Z"/><path class="cls-32" d="M123.61,128.64a10.05,10.05,0,0,0-1.87,6.07,11.64,11.64,0,0,0,.61,3.15,2,2,0,0,1-.36,2.08,11.3,11.3,0,0,0-.81,1.54,4.69,4.69,0,0,0-.17,3.05c.29,1.16,1,2.27.88,3.5-.2,2.08-1.7,3.73-.63,5.82a.85.85,0,0,0,.77.44,1.14,1.14,0,0,0,1.11-1.48c-.22-1.12-1.93-.64-1.71.47l0,.18.09-.68-.12.16.77-.44-.18,0,.76.44c-.46-.91.07-2,.38-2.86a6.81,6.81,0,0,0,.5-2.67,11.18,11.18,0,0,0-.79-2.82,3.91,3.91,0,0,1,.54-3.6,4.54,4.54,0,0,0,1-2.36,26,26,0,0,0-.77-2.94,8.33,8.33,0,0,1,1.53-6.17c.66-.93-.87-1.82-1.53-.9Z"/><path class="cls-32" d="M126.26,129.75a6.29,6.29,0,0,0-.77,3.42,6.36,6.36,0,0,0,.37,1.73,2.27,2.27,0,0,1,.23.71,1.49,1.49,0,0,1-.3.68,5.6,5.6,0,0,0,.23,6.26.9.9,0,0,0,1.62-.21l.1-.38a.89.89,0,0,0-1.71-.47l-.1.38,1.62-.21a4,4,0,0,1-.85-2.55,7.35,7.35,0,0,1,1-2.63c.43-1.1-.19-1.91-.37-3a4.5,4.5,0,0,1,.48-2.86c.54-1-1-1.9-1.53-.9Z"/><path class="cls-32" d="M128.51,130.64a6.63,6.63,0,0,1,1.81,4.79c-.06,1.94-.58,3.73,0,5.66.24.83.6,1.62.82,2.45a4.14,4.14,0,0,1-.23,2.75,5.23,5.23,0,0,0-.38,2.44,12.19,12.19,0,0,1,.37,2.93c-.16,1.11,1.53,1.6,1.71.47l.09-.57c.17-1.12-1.54-1.6-1.71-.48l-.09.58,1.71.47a7.93,7.93,0,0,0-.17-2.7,5.6,5.6,0,0,1,.38-3.21c.65-2-.24-3.69-.79-5.6-.61-2.13.29-4.26,0-6.41a8.49,8.49,0,0,0-2.28-4.82c-.78-.84-2,.42-1.25,1.25Z"/><path class="cls-33" d="M121.65,162.05a17.67,17.67,0,0,0,3,2.14,8.12,8.12,0,0,0,3.51.72,10.17,10.17,0,0,0,6.53-2.13,18.31,18.31,0,0,1,3-2.52,8.72,8.72,0,0,1,4.76-.5c1.19.1,2.56.31,3.13,1.36.73,1.35-.49,2.95-1.77,3.81-3.49,2.35-7.9,2.78-12.11,3a39.34,39.34,0,0,1-7.52-.13c-3.57-.49-10-1.81-11.72-5.57-.87-1.95.72-2.82,2.55-2.84A11.35,11.35,0,0,1,121.65,162.05Z"/><path class="cls-32" d="M132.22,129.17a10.65,10.65,0,0,1,1.6,5.38,10.69,10.69,0,0,0,.09,2.71c.18.83.71,1.54.89,2.38a4.43,4.43,0,0,1-.35,2.48,5.17,5.17,0,0,0-.73,2.43,10.72,10.72,0,0,0,.86,2.5c.23.58.37,1.37,1,1.68a1,1,0,0,0,1.39-.91.92.92,0,0,0-.66-.86h-.06c-1.11-.18-1.59,1.53-.47,1.71h.06l-.65-.85v.09l.26-.63-.06.06,1.08-.14c.11.06-.24-.81-.29-.94-.16-.42-.36-.84-.49-1.27a1.64,1.64,0,0,1,.07-1.45c.14-.32.28-.63.41-.95a5.63,5.63,0,0,0,0-4.43,5.78,5.78,0,0,1-.6-2.54,17.52,17.52,0,0,0,0-2.71,14.42,14.42,0,0,0-1.77-4.63c-.53-1-2.06-.12-1.53.89Z"/><path class="cls-32" d="M135.08,127.6a11.58,11.58,0,0,1,1.67,3.6c.27,1.36.08,2.78.27,4.16.34,2.43,2.6,4.89,1.64,7.39-.41,1.06,1.3,1.53,1.71.47,1.12-2.92-1.18-5.28-1.6-8-.22-1.48,0-3-.32-4.45a13.14,13.14,0,0,0-1.84-4,.89.89,0,0,0-1.53.9Z"/><path class="cls-7" d="M104.85,161.69s9.25.08,15,2.29,14,0,17.51-.76,12.37-5,14.5-1.94,9.71,11.73,8.54,15.38-10.69,10.53-16,9.75-15.78-.91-19.24-.39-13.7,1.29-18.36.65-13.2-1.85-11.51-10.54S101.74,162.72,104.85,161.69Z"/><g class="cls-34"><path class="cls-1" d="M111,160.44c-1.2,3.84-3.65,7.12-5,10.89a26.09,26.09,0,0,0-.88,14.7c.18.79,1,2.43.19,3.06-.25.2.11.56.37.36a1.66,1.66,0,0,0,.42-1.69c-.18-.95-.5-1.87-.68-2.83a25.34,25.34,0,0,1-.41-6.15,26.37,26.37,0,0,1,1.1-6.17,34.14,34.14,0,0,1,2.55-5.81,37.56,37.56,0,0,0,2.85-6.22c.1-.32-.4-.45-.5-.14Z"/><path class="cls-1" d="M114.74,162.22a35.9,35.9,0,0,0-5.2,20.26,36.91,36.91,0,0,0,.78,5.92c.07.32.57.18.5-.14a35.38,35.38,0,0,1,4.36-25.79c.18-.28-.27-.54-.44-.25Z"/><path class="cls-1" d="M119.41,162.61a26.27,26.27,0,0,0-4.52,11.09,27.3,27.3,0,0,0,.94,12.18c.19.64.39,1.27.6,1.91.12.35.2,1,.54,1.2a.38.38,0,1,0,.48-.59.26.26,0,0,0-.31,0l-.06,0c-.28.18,0,.62.26.45l.06,0-.32,0a.47.47,0,0,0,0-.55l-.15-.45c-.09-.3-.19-.59-.29-.89q-.28-.9-.54-1.8a27.9,27.9,0,0,1-.78-3.49,25.76,25.76,0,0,1,4.51-18.71c.19-.27-.26-.53-.45-.26Z"/><path class="cls-1" d="M122.47,163.35c-2.45,3.3-3.19,7.49-3,11.52.18,4.67,1.32,9.29,2.19,13.87.06.32.56.18.5-.14-.85-4.45-2-8.95-2.17-13.49-.19-4,.51-8.2,3-11.5.2-.27-.25-.53-.44-.26Z"/><path class="cls-1" d="M125.22,163.61a96.71,96.71,0,0,0,.36,24l.49-.14-.1-.6c-.06-.33-.56-.19-.5.14l.11.6c0,.33.54.18.49-.14a97,97,0,0,1-.34-23.9c0-.33-.47-.33-.51,0Z"/><path class="cls-1" d="M129.89,162.86l.16,13.52.08,6.7,0,3.35,0,1.74c0,.27-.11,1.49.11,1.57l.18.18v0l-.25.19h.06c.33,0,.33-.53,0-.52h-.06a.27.27,0,0,0-.25.19.37.37,0,1,0,.69.25,3.65,3.65,0,0,0,.05-1.58l0-2-.1-7.81-.18-15.76a.26.26,0,0,0-.52,0Z"/><path class="cls-1" d="M133.35,163.63a28.56,28.56,0,0,0,1.1,5.64,53.05,53.05,0,0,1,1.11,6.12,51.29,51.29,0,0,1,0,12.07c-.07.6-.15,1.2-.24,1.81-.05.26-.14.6.06.83a.4.4,0,0,0,.69-.36.25.25,0,0,0-.49.14l0,.08.06-.25c.17,0,.22-.06.15-.31s0-.31.07-.47,0-.35.08-.53c.07-.55.14-1.1.19-1.65.11-1.1.19-2.21.23-3.31a52.07,52.07,0,0,0-1.19-13.15,38.93,38.93,0,0,1-1.35-6.66.26.26,0,0,0-.51,0Z"/><path class="cls-1" d="M136.56,162a47,47,0,0,1,3.9,14.08,85.24,85.24,0,0,1-.25,15.07c0,.3.42.33.51.07l.29-.83c.11-.32-.39-.45-.5-.14l-.29.83.51.07a83.39,83.39,0,0,0,.2-15.56A48.52,48.52,0,0,0,137,161.77c-.14-.3-.58,0-.45.26Z"/><path class="cls-1" d="M141.25,160.36a41.28,41.28,0,0,1,4.56,11.79,47.81,47.81,0,0,1,.78,13.4c-.17,2.64-.47,5.27-.77,7.89h.51V192a.25.25,0,1,0-.51,0v1.4c0,.34.47.32.51,0a92.31,92.31,0,0,0,.89-14.19,41.82,41.82,0,0,0-2.47-12.61,42.76,42.76,0,0,0-3.06-6.54.26.26,0,0,0-.44.26Z"/><path class="cls-1" d="M145.34,161.11a43.15,43.15,0,0,1,5.07,11.68,58.33,58.33,0,0,1,1.22,12.44q0,1.71,0,3.42c0,1.09.19,2.51-.55,3.42l.43.11-.26-.73c-.11-.31-.6-.18-.5.14l.26.73c.06.16.3.28.43.11a3.52,3.52,0,0,0,.69-2.18c0-1.06,0-2.13,0-3.2,0-2.24,0-4.48-.18-6.72a39.41,39.41,0,0,0-2.68-12.74,61.48,61.48,0,0,0-3.5-6.74.26.26,0,0,0-.45.26Z"/><path class="cls-35" d="M121.14,163.55a5.47,5.47,0,0,0,3.06,2.59c7,3.13,16.48-.43,22.14-5.64-.83-.95-2.81.89-4.06.71a78.75,78.75,0,0,0-16.74-.52c-2.62.19-5.44.62-7.32,2.46"/></g><path class="cls-8" d="M114.74,113.66c.53.08,3.72,2.87,3.28,9.09s.64,7.87-1.62,12.79-.19,9.48-1.14,12.87S107.84,160,104,162c0,0-.58-13.62,1.43-22.34s4.86-18.14,1.4-23.15C106.87,116.53,112.92,113.39,114.74,113.66Z"/><g class="cls-36"><ellipse class="cls-37" cx="111.81" cy="133.49" rx="4.05" ry="1" transform="translate(-22.19 22.29) rotate(-10.36)"/><ellipse class="cls-37" cx="111.51" cy="154.58" rx="4.05" ry="1" transform="translate(-25.99 22.58) rotate(-10.36)"/><ellipse class="cls-38" cx="112.85" cy="122.28" rx="4.05" ry="1" transform="translate(-20.16 22.3) rotate(-10.36)"/><ellipse class="cls-38" cx="109.94" cy="144.36" rx="4.05" ry="1" transform="translate(-24.18 22.14) rotate(-10.36)"/><ellipse class="cls-37" cx="110.27" cy="126.69" rx="0.92" ry="1.3"/><ellipse class="cls-37" cx="109.94" cy="130.7" rx="1.3" ry="0.92" transform="translate(-40.93 210.76) rotate(-77.88)"/><ellipse class="cls-37" cx="108.31" cy="148.11" rx="0.92" ry="1.3" transform="translate(-27.62 24.85) rotate(-11.62)"/><ellipse class="cls-37" cx="113.32" cy="146.82" rx="0.92" ry="1.3" transform="translate(-27.25 25.84) rotate(-11.62)"/><ellipse class="cls-37" cx="109.56" cy="152.27" rx="1.3" ry="0.92" transform="translate(-48.45 253.37) rotate(-86.88)"/><ellipse class="cls-37" cx="114.13" cy="150.73" rx="1.3" ry="0.92" transform="translate(-42.6 256.48) rotate(-86.88)"/><ellipse class="cls-38" cx="108.12" cy="137.38" rx="1.3" ry="0.92" transform="translate(-36.78 235.2) rotate(-85.82)"/><ellipse class="cls-38" cx="107.81" cy="141.58" rx="1.3" ry="0.92" transform="translate(-41.25 238.78) rotate(-85.82)"/><ellipse class="cls-38" cx="112.85" cy="140.6" rx="1.3" ry="0.92" transform="translate(-35.61 242.9) rotate(-85.82)"/><ellipse class="cls-38" cx="113.77" cy="136.42" rx="1.3" ry="0.92" transform="translate(-30.58 239.95) rotate(-85.82)"/><ellipse class="cls-37" cx="115.44" cy="129.6" rx="1.3" ry="0.92" transform="translate(-35.5 215.27) rotate(-77.88)"/><ellipse class="cls-37" cx="116.03" cy="125.61" rx="1.3" ry="0.92" transform="translate(-19.27 230.19) rotate(-84.97)"/><ellipse class="cls-38" cx="109.58" cy="119.58" rx="0.92" ry="1.3" transform="translate(-18.38 19.92) rotate(-9.59)"/><ellipse class="cls-38" cx="108.64" cy="116.23" rx="0.92" ry="1.3" transform="matrix(0.99, -0.17, 0.17, 0.99, -17.84, 19.71)"/><ellipse class="cls-38" cx="115.71" cy="118.74" rx="0.92" ry="1.3" transform="translate(-18.16 20.92) rotate(-9.59)"/><ellipse class="cls-38" cx="114.9" cy="114.94" rx="0.92" ry="1.3" transform="translate(-17.54 20.74) rotate(-9.59)"/></g><path class="cls-8" d="M141.84,113.66c-.54.08-3.72,2.87-3.29,9.09s-.64,7.87,1.63,12.79.19,9.48,1.14,12.87,5.36,9.78,9.16,11.86c0,0,2.63-11.87.62-20.59s-4.86-18.14-1.4-23.15C149.7,116.53,143.65,113.39,141.84,113.66Z"/><g class="cls-39"><ellipse class="cls-37" cx="144.77" cy="133.49" rx="1" ry="4.05" transform="translate(-12.59 251.88) rotate(-79.64)"/><ellipse class="cls-37" cx="145.07" cy="154.58" rx="1" ry="4.05" transform="translate(-33.09 269.47) rotate(-79.64)"/><ellipse class="cls-38" cx="143.73" cy="122.28" rx="1" ry="4.05" transform="translate(-2.41 241.66) rotate(-79.64)"/><ellipse class="cls-38" cx="146.63" cy="144.36" rx="1" ry="4.05" transform="translate(-21.76 262.63) rotate(-79.64)"/><ellipse class="cls-37" cx="146.31" cy="126.69" rx="0.92" ry="1.3"/><ellipse class="cls-37" cx="146.63" cy="130.7" rx="0.92" ry="1.3" transform="translate(-24.17 33.69) rotate(-12.12)"/><ellipse class="cls-37" cx="148.27" cy="148.11" rx="1.3" ry="0.92" transform="translate(-26.68 263.5) rotate(-78.38)"/><ellipse class="cls-37" cx="143.25" cy="146.82" rx="1.3" ry="0.92" transform="matrix(0.2, -0.98, 0.98, 0.2, -29.42, 257.56)"/><ellipse class="cls-37" cx="147.01" cy="152.27" rx="0.92" ry="1.3" transform="translate(-8.08 8.24) rotate(-3.12)"/><ellipse class="cls-37" cx="142.45" cy="150.73" rx="0.92" ry="1.3" transform="translate(-8 7.99) rotate(-3.12)"/><ellipse class="cls-38" cx="148.45" cy="137.38" rx="0.92" ry="1.3" transform="translate(-9.62 11.19) rotate(-4.18)"/><ellipse class="cls-38" cx="148.76" cy="141.58" rx="0.92" ry="1.3" transform="translate(-9.93 11.22) rotate(-4.18)"/><ellipse class="cls-38" cx="143.73" cy="140.6" rx="0.92" ry="1.3" transform="translate(-9.87 10.85) rotate(-4.18)"/><ellipse class="cls-38" cx="142.8" cy="136.42" rx="0.92" ry="1.3" transform="translate(-9.57 10.77) rotate(-4.18)"/><ellipse class="cls-37" cx="141.13" cy="129.6" rx="0.92" ry="1.3" transform="translate(-24.06 32.52) rotate(-12.12)"/><ellipse class="cls-37" cx="140.55" cy="125.61" rx="0.92" ry="1.3" transform="translate(-10.47 12.8) rotate(-5.03)"/><ellipse class="cls-38" cx="147" cy="119.58" rx="1.3" ry="0.92" transform="translate(4.61 244.62) rotate(-80.41)"/><ellipse class="cls-38" cx="147.94" cy="116.23" rx="1.3" ry="0.92" transform="matrix(0.17, -0.99, 0.99, 0.17, 8.69, 242.75)"/><ellipse class="cls-38" cx="140.87" cy="118.74" rx="1.3" ry="0.92" transform="translate(0.33 237.87) rotate(-80.41)"/><ellipse class="cls-38" cx="141.68" cy="114.94" rx="1.3" ry="0.92" transform="translate(4.75 235.5) rotate(-80.41)"/></g><path class="cls-40" d="M101.05,196.07a8,8,0,0,0,6.31,2.14,26.68,26.68,0,0,0,6.67-1.64c10-3.34,21.16-5.62,31-1.73,3.2,1.27,8,3.83,11,2,2.2-1.37,1.69-4.92,2.11-7.47.87-5.19,1.65-10.83-.9-15.42-2.27-4.06-6.69-6.4-11.06-8a34.73,34.73,0,0,0-10-2.2c-6.87-.33-13.54,2.22-19.72,5.21a32.22,32.22,0,0,0-7.87,4.94c-5.36,4.92-7.28,12.47-8.81,19.58l1.52.08"/><path class="cls-9" d="M110.91,164.51c-6,1.36-11.82,4.59-14.51,10.08-3.66,7.49-.7,17.13,5.65,22.53a20,20,0,0,1,3.53-8c3.9-5.06,11.22-2.7,17.46-4.06,7-1.54,12.11-4.43,18.91-2s14.28,6.37,14,13.58c4.39-3.17,4.9-9.43,4.78-14.85-.07-3.05-.22-6.17-1.42-9-2.58-6-9.44-9.09-15.94-9.67s-13,.75-19.54.9c-1.7,0-3.41,0-5.11-.06A46.8,46.8,0,0,0,110.91,164.51Z"/><g class="cls-41"><path class="cls-15" d="M105.21,168.51s8,3.32,12-3.61"/><path class="cls-16" d="M105.41,169.66s8,3.32,12-3.61"/><path class="cls-17" d="M105.61,170.81s8,3.32,12-3.61"/><path class="cls-15" d="M138.43,167.2s6.49,5.8,12.52.58"/></g><path class="cls-42" d="M102,163.75a26.15,26.15,0,0,0,4.41-4.68,8.23,8.23,0,0,1,1.16-1.39c.83-.72,1.94-1,2.71-1.8,1-1,1.21-2.67,1.32-4.17a6.73,6.73,0,0,0-.33-3.35,5.29,5.29,0,0,0-3.26-2.47c-.51-.18-1.11-.43-1.24-1a1.33,1.33,0,0,0-.15-.6c-.24-.3-.68,0-.92.29a20.72,20.72,0,0,0-2.78,5.37c-1.15,2.9-2.31,5.8-3.25,8.8a7.84,7.84,0,0,0-.48,2.83,2.61,2.61,0,0,0,1.42,2.28,3,3,0,0,0,.78.16"/><ellipse class="cls-43" cx="124.67" cy="160.73" rx="11.29" ry="1.96"/><polygon class="cls-43" points="107.17 145.66 113.38 160.73 135.97 160.73 142.18 145.66 107.17 145.66"/><ellipse class="cls-44" cx="124.67" cy="145.66" rx="17.5" ry="3.04"/><g class="cls-45"><path class="cls-46" d="M145.58,148.63l.06-.17a1.49,1.49,0,0,0-.87-1.51,13.56,13.56,0,0,0-1.76-.61c-1.46-.55-2.64-1.91-4.2-1.92a13.46,13.46,0,0,0-1.39.16c-2,.19-3.83-1-5.81-1.05-1,0-2,.29-3,.36l-1.37-.06a17.21,17.21,0,0,0-3.26-.41,11,11,0,0,0-2.1.42c-.92,0-1.82.08-2.7.14a11.56,11.56,0,0,0-1.28-.25,10.89,10.89,0,0,0-3.74.72c-1.78.47-3.64.56-5.44,1a7.45,7.45,0,0,0-4.66,2.73l-.16.22-.07.11-.19.27h0a1.61,1.61,0,0,0-.17.71c0,3.12,9.47,5.66,21.15,5.66s21.16-2.54,21.16-5.66A1.68,1.68,0,0,0,145.58,148.63Z"/><path class="cls-47" d="M110.85,145.33a.47.47,0,0,0-.31,0c-.12,0-.21.15-.15.25a.25.25,0,0,0,.13.09,3.44,3.44,0,0,0,1.56.18,13.62,13.62,0,0,0,2.29-.44l2.85-.7a1.3,1.3,0,0,0,.68-.32,1.94,1.94,0,0,0-1.32-.2,7.64,7.64,0,0,0-1.31.41,14,14,0,0,1-4.15.78Z"/><path class="cls-48" d="M129,144.48c-.54.16-1.12-.09-1.69,0a.16.16,0,0,0-.09,0c-.07,0,0,.15,0,.2a.46.46,0,0,0,.23.06,2.26,2.26,0,0,1,.68.17,2,2,0,0,0,.51.21,1.43,1.43,0,0,0,1-.4l.38-.3s.05,0,.06-.06a.14.14,0,0,0-.08-.18.33.33,0,0,0-.22,0,2.61,2.61,0,0,0-.66.24"/><path class="cls-48" d="M120.64,144.51a12,12,0,0,0,1.58-.07.49.49,0,0,1,.27.06,1.39,1.39,0,0,1-1,.39,3.13,3.13,0,0,1-1-.19c-.06,0-.11,0-.13-.09a.08.08,0,0,1,0-.11.09.09,0,0,1,.11,0"/><path class="cls-48" d="M141.16,149.77a18,18,0,0,0-2.43.17,9,9,0,0,1-2.32-.12c0,.25.33.36.58.42a6.13,6.13,0,0,0,1.94.25c.38,0,.75-.14,1.13-.18s.72,0,1.07-.08a1.52,1.52,0,0,0,1-.47.8.8,0,0,0-.71,0"/><path class="cls-48" d="M141.24,146.33a11.57,11.57,0,0,0-1.44.33.71.71,0,0,0-.25.11.26.26,0,0,0-.1.24c0,.11.14.16.25.2a6,6,0,0,0,2.28.16,1,1,0,0,0,.47-.1.31.31,0,0,0,.14-.41.39.39,0,0,0-.4-.13.94.94,0,0,1-.44,0,.33.33,0,0,1,.31-.28.57.57,0,0,0-.51-.13"/><path class="cls-47" d="M122.79,144a4.32,4.32,0,0,1,2.69-.11,1.87,1.87,0,0,1,.54.15.64.64,0,0,1,.36.41,4.32,4.32,0,0,1-1.29-.06,8.47,8.47,0,0,1-2.2-.11.36.36,0,0,1-.25-.18"/><path class="cls-47" d="M133.05,144a1.26,1.26,0,0,0-.89-.16c-.08,0-.17.05-.17.13a.18.18,0,0,0,0,.09,1,1,0,0,0,.56.28,6.49,6.49,0,0,0,1.79.28.21.21,0,0,0,0-.21.5.5,0,0,0-.19-.13,3,3,0,0,0-1-.28"/><path class="cls-47" d="M127.61,147.58l-.51-.38a.38.38,0,0,0-.18-.09.13.13,0,0,0-.15.1.28.28,0,0,0,0,.12,2.1,2.1,0,0,0,.74.68c.1.05.24.09.31,0a.34.34,0,0,0-.22-.43"/><path class="cls-4" d="M132.15,150.14a.76.76,0,0,0-.16.57c0,.22,4.9.3,6.36-.05s0-1.95,0-1.95l-4.55,1Z"/><path class="cls-49" d="M132.52,149.86a22,22,0,0,1,4.51-1.29c1,0,1.53,0,1.11.39a19.19,19.19,0,0,1-5.07,1.27C132.2,150.23,131.75,150.35,132.52,149.86Z"/><ellipse class="cls-50" cx="136.35" cy="148.92" rx="0.73" ry="0.19" transform="translate(-18.24 19.03) rotate(-7.49)"/><path class="cls-4" d="M120.75,149.29a1.64,1.64,0,0,0-.25,1.2c.17.54,4.6.7,4.94.64a3.37,3.37,0,0,0,1.93-1c.33-.6-.31-1.2-.31-1.2l-3.91.09Z"/><g class="cls-51"><path class="cls-52" d="M124.44,148.47s1.61,1.72.78,3.2c0,0,2.93-.22,2.93-.25s-.51-2.48-.51-2.48l-.39-.44-3.12-.46.31.43"/></g><path class="cls-49" d="M123.15,148.38a17.81,17.81,0,0,1,3.76.41c.8.34-1.08,1-1.77,1s-5-.21-4.32-.56A8.47,8.47,0,0,1,123.15,148.38Z"/><path class="cls-4" d="M111.46,148a12.63,12.63,0,0,0-.35,1.72c-.07.67,2.65,1.7,3.38,1.65a11.3,11.3,0,0,0,4.11-1.64c.61-.63-.68-1.73-.68-1.73l-5,0Z"/><g class="cls-53"><path class="cls-3" d="M114.07,146.72a24.48,24.48,0,0,0,.25,2.54c.13.54.5,1.88.12,2.35L116,152l3.68-.28-.67-4.27Z"/></g><path class="cls-49" d="M111.91,147.83s1.68-.32,2.73-.54,2.4.52,3.19.69-2.81,1.23-3.51,1.28S110.27,148.1,111.91,147.83Z"/><path class="cls-3" d="M134.47,144.88A8.22,8.22,0,0,0,134,146c-.13.41,1.86,1.15,3.14,1.13a2.06,2.06,0,0,0,1.78-1.42c0-.11.18-1.39-.12-1.56l-3.07.73Z"/><g class="cls-54"><path class="cls-4" d="M133.72,143.75l-.35,2.91,4,1.06a2.61,2.61,0,0,0-.39-2.49,10,10,0,0,1-1.49-2Z"/></g><path class="cls-49" d="M134.72,144.7a6.3,6.3,0,0,0,1.55-1.08s.06-.12.35,0,1.74.41,2,.47.19.29.13.35-.49,1-1,1.26-.66.24-1.43.12S133.77,145.09,134.72,144.7Z"/><ellipse class="cls-50" cx="137.02" cy="144.03" rx="0.2" ry="0.7" transform="translate(-24.25 260.26) rotate(-82.21)"/><ellipse class="cls-50" cx="136.18" cy="144.34" rx="0.14" ry="0.48" transform="translate(-25.29 259.7) rotate(-82.21)"/><path class="cls-4" d="M125.34,146.11s-.36.9-.1,1.3,3,.3,3.56.33a5,5,0,0,0,2.71-.4c.68-.51.18-1.51.18-1.51l-5.63.18Z"/><g class="cls-55"><path class="cls-3" d="M130.55,145s1.55,1.64.39,3.15l1.34-.62,0-2.35-.51-.46Z"/></g><path class="cls-49" d="M127.69,145.42s3.49,0,3.93.34-.72.6-2.63.59-4.5,0-3.43-.37A8.87,8.87,0,0,1,127.69,145.42Z"/><path class="cls-4" d="M117.07,144.64a4.75,4.75,0,0,0-.17,1.09c0,.39,2,.47,3,.51a8,8,0,0,0,2.88-.33c.32-.22-.22-1.22-.22-1.22s-1.72-.21-3.64-.26S117.07,144.64,117.07,144.64Z"/><path class="cls-49" d="M118.51,144a8.66,8.66,0,0,0-1.44.64,21.68,21.68,0,0,0,5.51.05,2.76,2.76,0,0,0-1.3-.61A22.45,22.45,0,0,0,118.51,144Z"/><ellipse class="cls-50" cx="119.09" cy="144.26" rx="0.36" ry="0.1"/><ellipse class="cls-50" cx="120.97" cy="144.48" rx="0.17" ry="0.73" transform="translate(-26.8 261.41) rotate(-88.42)"/><path class="cls-4" d="M109.23,145.36a2.36,2.36,0,0,0-.14,1.15c.12.41,1.37.6,2.14.62a5.49,5.49,0,0,0,2.43-.45c.39-.28-.29-1.37-.29-1.37Z"/><path class="cls-49" d="M111.21,144.74a4.74,4.74,0,0,1,2,.43c.79.46-2.14.71-2.7.64s-1.94-.18-1-.68A2.8,2.8,0,0,1,111.21,144.74Z"/><path class="cls-46" d="M110.57,149.11s.44-.28,1.25.61,1.63.46,2.57.56,1,.46,1.83-.08.61-.68,1.48-1,.92-.69,1.32-.46.82,1.19.64,1.35l-.82.71-3,.81a13,13,0,0,1-1.63.08c-.66,0-3.64-.51-3.64-.51a.8.8,0,0,1-.13-.58A12.85,12.85,0,0,0,110.57,149.11Z"/><path class="cls-46" d="M119.84,150.15a3,3,0,0,1,1.83.28,4.37,4.37,0,0,0,2.87.38,7.71,7.71,0,0,1,1.76-.3,1.07,1.07,0,0,0,.87-.51c.2-.31.1-.51.38-.59s.76.41.76.41l-.41,1s-2,.56-2.16.58-1.2.11-1.55.11-3,.07-3.31.05-.66,0-.87-.1-.58-.41-.58-.49S119.84,150.15,119.84,150.15Z"/><path class="cls-46" d="M131.29,150.74a3.24,3.24,0,0,1,1.73,0,3.2,3.2,0,0,0,2.19-.07,8.05,8.05,0,0,1,2-.38c.91-.08,1.47,0,1.55-.08a2.38,2.38,0,0,1,.53-.43c.1,0,.72.53.72.53s-.39.74-1,.87-5.9.33-5.9.33l-1.25-.08C131.59,151.42,131.29,150.74,131.29,150.74Z"/><path class="cls-46" d="M108.81,146.11a4.52,4.52,0,0,1,1.07.34,2.39,2.39,0,0,0,1.91-.06c.76-.21.88,0,1.45,0s.27-.46,1.07-.35,1.53-.36,2.5-.57a4.06,4.06,0,0,1,2.23.27,2.05,2.05,0,0,0,1.55,0,4.74,4.74,0,0,1,2-.21.56.56,0,0,0,.5,0c.19-.08,1.39.42,1.29.8s.56.78.56.78,0-.34,1.56,0a5.79,5.79,0,0,0,3.21.14,5.51,5.51,0,0,1,1.62-.29c.13,0,.23-.49.69-.42a8.81,8.81,0,0,1,1.1.31l.16-1.05a2.81,2.81,0,0,1,1.79.51,2.09,2.09,0,0,0,2.12.21c.3-.13.17-.34.72-.28s.56-.16.79-.58.21-.68.47-.55.27.9.25,1a10.34,10.34,0,0,1-.67,1.33c-.15.17-.59.34-1.64.55s-1.66.31-1.66.31l-3.81.44s-3.13,0-3.67-.06-1.56-.07-2.52-.19l-2.29-.27-1.85-.24-4.87-.6-2.42-.07-3.59.34s-1.68-.32-1.77-.36-.8-.56-.8-.56Z"/><ellipse class="cls-56" cx="130.9" cy="149.05" rx="0.49" ry="0.09"/><ellipse class="cls-56" cx="133.26" cy="146.29" rx="0.49" ry="0.09"/><ellipse class="cls-56" cx="119.75" cy="147.03" rx="1.13" ry="0.14"/><ellipse class="cls-56" cx="141.44" cy="147.89" rx="1.13" ry="0.14"/><ellipse class="cls-56" cx="108.42" cy="148" rx="1.13" ry="0.14"/><path class="cls-57" d="M109.63,148.87a.42.42,0,0,0-.18-.07c-.07,0-.16,0-.18,0s0,.05.06.07a.8.8,0,0,0,.15,0h-.21a.23.23,0,0,0-.15.07c0,.05.06.09.15.1a1,1,0,0,0,.25,0c-.08,0-.17.09-.12.14s.08,0,.13,0a.4.4,0,0,0,.32-.1s0,.06.08.08a.56.56,0,0,0,.36,0s0-.07,0-.09a.81.81,0,0,0,.35.05.47.47,0,0,0,.14,0c.06,0,0-.1-.09-.12a.66.66,0,0,0-.28,0c.08,0,.16-.05.18-.09s0-.1-.06-.12a.41.41,0,0,0-.22,0,1.06,1.06,0,0,0-.19.06c.07,0,0-.11-.06-.12s-.2,0-.21.07-.06-.08-.14-.08-.14.06-.1.1"/><path class="cls-57" d="M118.21,149.91a.82.82,0,0,0-.33-.13c-.13,0-.3,0-.33.08s0,.11.11.14a1.15,1.15,0,0,0,.28.07,1.79,1.79,0,0,0-.4,0c-.13,0-.25.07-.28.14s.11.16.27.19a2.58,2.58,0,0,0,.48,0c-.15.07-.32.17-.23.27a.39.39,0,0,0,.25.09.71.71,0,0,0,.6-.2c0,.06,0,.13.14.17a1.11,1.11,0,0,0,.33,0,.59.59,0,0,0,.34-.08c.07,0,.07-.14,0-.18a1.43,1.43,0,0,0,.66.09.67.67,0,0,0,.27-.07c.1-.08,0-.2-.17-.24a1.56,1.56,0,0,0-.53,0,.58.58,0,0,0,.35-.17c0-.09,0-.19-.13-.24a.94.94,0,0,0-.41,0,1.81,1.81,0,0,0-.35.13c.14-.07.07-.21-.11-.25s-.38.05-.39.15c0-.08-.11-.17-.27-.16s-.26.11-.19.19"/><path class="cls-57" d="M115.78,145.58a.76.76,0,0,0-.18-.06c-.07,0-.16,0-.18,0s0,.06.06.07l.15,0a.74.74,0,0,0-.21,0c-.07,0-.14,0-.15.07s.06.08.14.09a.76.76,0,0,0,.26,0c-.08,0-.17.09-.13.14a.26.26,0,0,0,.14,0,.38.38,0,0,0,.32-.1s0,.07.07.08a.57.57,0,0,0,.18,0,.44.44,0,0,0,.18,0s0-.08,0-.09a1,1,0,0,0,.36,0,.21.21,0,0,0,.14,0s0-.1-.09-.12a.88.88,0,0,0-.28,0,.34.34,0,0,0,.18-.09s0-.1-.07-.12a.49.49,0,0,0-.21,0l-.19.06c.07,0,0-.1-.06-.12s-.2,0-.21.08-.06-.09-.14-.09-.14.06-.11.1"/><path class="cls-57" d="M124.67,145a.42.42,0,0,0-.18-.07.23.23,0,0,0-.18,0s0,.06.06.08l.15,0a.74.74,0,0,0-.21,0c-.07,0-.13,0-.15.07s.06.08.15.1a1,1,0,0,0,.25,0c-.08,0-.17.09-.12.14a.22.22,0,0,0,.13,0,.34.34,0,0,0,.32-.1s0,.07.08.09a.5.5,0,0,0,.18,0,.37.37,0,0,0,.18,0s0-.07,0-.09a.81.81,0,0,0,.35,0,.29.29,0,0,0,.14,0c.06,0,0-.1-.09-.13a.88.88,0,0,0-.28,0c.08,0,.16,0,.18-.09s0-.09-.07-.12a.37.37,0,0,0-.21,0,.6.6,0,0,0-.19.06c.07,0,0-.11-.06-.13s-.2,0-.21.08-.06-.09-.14-.08-.14,0-.1.09"/><path class="cls-57" d="M135.45,147.32a1,1,0,0,0-.27,0,.54.54,0,0,0-.28,0s0,0,.09,0l.23,0a1.69,1.69,0,0,0-.32,0c-.11,0-.21,0-.23,0s.09.06.22.07h.39c-.12,0-.26.06-.19.1a.55.55,0,0,0,.21,0,1,1,0,0,0,.49-.07s0,0,.12.06a1.18,1.18,0,0,0,.27,0,1,1,0,0,0,.28,0c.06,0,.06,0,0-.07a3,3,0,0,0,.54,0l.22,0c.09,0,0-.08-.13-.09a2.16,2.16,0,0,0-.44,0,.84.84,0,0,0,.28-.07s0-.07-.1-.09a1.22,1.22,0,0,0-.33,0l-.29,0c.11,0,0-.08-.09-.09s-.32,0-.33.06-.09-.07-.22-.07-.21.05-.16.08"/><path class="cls-57" d="M130.44,150.31a.43.43,0,0,0-.17-.06c-.07,0-.16,0-.18,0s0,.05.06.07a.33.33,0,0,0,.15,0h-.21c-.07,0-.14,0-.15.07s.06.09.14.1a1,1,0,0,0,.25,0c-.08,0-.16.09-.12.14s.08,0,.14,0a.42.42,0,0,0,.32-.1s0,.06.07.08a.36.36,0,0,0,.18,0,.32.32,0,0,0,.18,0s0-.07,0-.09a.81.81,0,0,0,.35.05l.15,0s0-.1-.09-.12a.94.94,0,0,0-.29,0,.34.34,0,0,0,.19-.09c0-.05,0-.1-.07-.12a.54.54,0,0,0-.22,0,.76.76,0,0,0-.18.06c.07,0,0-.11-.06-.12s-.21,0-.22.07,0-.08-.14-.08-.14.06-.1.1"/></g><path class="cls-5" d="M107.19,116.26a7,7,0,0,0-3.44,3.15c-2.67,4.37-2.94,9.78-5,14.46-1.42,3.2-3.65,6-5.51,8.94a23,23,0,0,0-3.73,9.76,11.92,11.92,0,0,0,3.18,9.68c2.54,2.43,6.74,3.2,9.69,1.28s3.95-5.84,4.31-9.38a60.33,60.33,0,0,0,.3-6.72,38.07,38.07,0,0,1,.11-5.55,58.22,58.22,0,0,1,1.55-6.32,30.32,30.32,0,0,0-1.51-18.92"/><g class="cls-58"><g class="cls-59"><path class="cls-1" d="M100.25,166.39a1.92,1.92,0,0,1-2.14.57,3.13,3.13,0,0,1-1.83-1.79,14.53,14.53,0,0,1-1-5.5,24.08,24.08,0,0,1,2.25-11.21c1.61-3.42,3.94-6.43,5.28-10s2-7.48,3-11.21,2.53-7.64,5.47-10.37c.19-.17-.09-.44-.27-.27-5.91,5.48-5.88,14.31-8.45,21.43-1.45,4-4.19,7.34-5.82,11.26A24.62,24.62,0,0,0,95,161.1c.18,1.81.41,4,1.69,5.39a2.57,2.57,0,0,0,3.85.17c.15-.19-.12-.47-.28-.27Z"/></g><g class="cls-59"><path class="cls-1" d="M111.12,116.38a18.83,18.83,0,0,0-6.92,7.49,30,30,0,0,0-2,5.62,43.56,43.56,0,0,1-2.13,6.06c-3.22,7.2-8.6,14.35-7.7,22.66a16.78,16.78,0,0,0,5.18,10.36c.17.17.44-.09.26-.26a16.51,16.51,0,0,1-4.95-9.25c-.65-3.91.3-7.87,1.77-11.5s3.57-7.16,5.29-10.78A38.64,38.64,0,0,0,102,131.5c.6-1.93,1-3.91,1.77-5.8a18.46,18.46,0,0,1,7.52-9c.2-.13,0-.45-.19-.32Z"/></g><g class="cls-59"><path class="cls-1" d="M112.08,121c-5.61,5-6.47,13-8.73,19.74-2.17,6.51-5.17,13.48-2.89,20.39a12.31,12.31,0,0,0,2.47,4.37c.24.26.9,1,1.28.51a.39.39,0,0,0-.38-.62.19.19,0,0,0,.1.36c-.52.13-1.46-1.41-1.68-1.74a13,13,0,0,1-1-1.8,14.77,14.77,0,0,1-1.1-4.08,23.07,23.07,0,0,1,.8-8.86c.84-3.2,2.06-6.27,3.07-9.41s1.75-6.61,2.89-9.83a20.77,20.77,0,0,1,5.41-8.77c.18-.16-.08-.42-.26-.26Z"/></g><g class="cls-59"><path class="cls-1" d="M111.87,128.11a40.47,40.47,0,0,0-7.88,29.5A38.78,38.78,0,0,0,106,166c.08.22.44.13.36-.1a40.11,40.11,0,0,1,1.33-30.26,39.21,39.21,0,0,1,4.46-7.37c.15-.19-.17-.38-.32-.19Z"/></g><path class="cls-19" d="M104.71,114.92c.15,6.12,4.52,11.69,4.07,17.8-.14,1.81-.7,3.6-.51,5.41.07.62.45,1.39,1.06,1.29A1.24,1.24,0,0,0,110,139a5.32,5.32,0,0,0,2.19-4.53c.19-2.19.33-4.37.42-6.56.18-4.54.12-9.24-1.72-13.39a5.58,5.58,0,0,0-1.45-2.12A2.42,2.42,0,0,0,107,112c-1.08.47-1.44,1.8-1.68,3"/></g><path class="cls-2" d="M107.05,150.42a1.84,1.84,0,0,0-1.06,1,2.49,2.49,0,0,0,.55,2.63,5.39,5.39,0,0,0,2.47,1.37,13.44,13.44,0,0,0,7.44.09c.45-.12,1-.33,1.08-.78a1,1,0,0,0-.36-.95,2.47,2.47,0,0,0-1-.43,13.47,13.47,0,0,0-3.1-.43,13.94,13.94,0,0,1-2-.1,8.29,8.29,0,0,1-3.74-2.06.67.67,0,0,1-.17-.19Z"/><path class="cls-60" d="M115.86,153.55l.18,1.57a.2.2,0,0,0,0,.11.16.16,0,0,0,.09,0,.85.85,0,0,0,.91-.85c0-.48-.58-1-1-.88Z"/><path class="cls-2" d="M107.53,152.83a1.63,1.63,0,0,0-1,.87,2.2,2.2,0,0,0,.49,2.36,4.8,4.8,0,0,0,2.21,1.23,12.17,12.17,0,0,0,6.69.08c.4-.11.85-.3,1-.7a.86.86,0,0,0-.32-.85,2.33,2.33,0,0,0-.88-.39A12.42,12.42,0,0,0,113,155a12.4,12.4,0,0,1-1.83-.08,7.58,7.58,0,0,1-3.37-1.85l-.15-.17Z"/><path class="cls-60" d="M115.43,155.64l.16,1.41a.14.14,0,0,0,0,.09.11.11,0,0,0,.08,0,.76.76,0,0,0,.82-.76c0-.43-.53-.9-.94-.79Z"/><path class="cls-2" d="M108.84,156.27a1.18,1.18,0,0,0-.58.71,1.59,1.59,0,0,0,.59,1.62,3.49,3.49,0,0,0,1.69.64,8.6,8.6,0,0,0,4.72-.63c.27-.11.57-.29.6-.58a.58.58,0,0,0-.31-.57,1.63,1.63,0,0,0-.66-.19,8.92,8.92,0,0,0-2,0,9.39,9.39,0,0,1-1.3.13,5.33,5.33,0,0,1-2.56-1,.4.4,0,0,1-.12-.1Z"/><path class="cls-60" d="M114.7,157.45l.26,1s0,0,0,.06h.06a.54.54,0,0,0,.5-.62c-.07-.3-.46-.58-.74-.46Z"/><path class="cls-2" d="M108.09,147.51a1.75,1.75,0,0,0-1.08.78,2.31,2.31,0,0,0,.23,2.49,5,5,0,0,0,2.12,1.52,12.49,12.49,0,0,0,6.85.88,1.28,1.28,0,0,0,1.08-.6.88.88,0,0,0-.23-.91,2.32,2.32,0,0,0-.86-.5,12.3,12.3,0,0,0-2.8-.74,11.57,11.57,0,0,1-1.87-.3,7.78,7.78,0,0,1-3.24-2.31.62.62,0,0,1-.13-.19Z"/><path class="cls-60" d="M115.87,151.34v1.47a.18.18,0,0,0,0,.1.2.2,0,0,0,.08,0,.79.79,0,0,0,.93-.69c0-.44-.43-1-.87-.92Z"/><path class="cls-61" d="M147.31,144.24l-13.92.73a.33.33,0,0,0-.28.43h0a.31.31,0,0,0,.31.2l13.92-.73"/><path class="cls-61" d="M122.88,145.65s-.09,2,2.84,2.65A9.78,9.78,0,0,0,131,148s2.65-.84,2.54-2.93Z"/><ellipse class="cls-62" cx="128.19" cy="145.37" rx="5.32" ry="0.96" transform="translate(-7.46 6.93) rotate(-3.01)"/><ellipse class="cls-63" cx="188.22" cy="87.76" rx="0.35" ry="0.43" transform="translate(-14.66 132.11) rotate(-37.33)"/><ellipse class="cls-63" cx="187.08" cy="86.83" rx="0.35" ry="0.43" transform="translate(-14.33 131.23) rotate(-37.33)"/><ellipse class="cls-63" cx="186.09" cy="86.14" rx="0.35" ry="0.43" transform="translate(-14.12 130.49) rotate(-37.33)"/><path class="cls-5" d="M149,116.46s13.62,1.31,20.12.21,6.59-20.74,9.71-23.66,15,4.38,18.57,13.2-12.45,26.2-21.92,28.1-23.36,2.31-25.37.65S147.27,118.72,149,116.46Z"/><g class="cls-64"><path class="cls-65" d="M150,118.23l5.37.76a46.19,46.19,0,0,0,11.37.66c3.78-.42,7.59-1.88,10.08-4.76,2.33-2.69,3.28-6.28,4.15-9.73L183.54,95c.31-1.24.9-2.73,2.17-2.85"/><path class="cls-65" d="M194.81,91.88a12.43,12.43,0,0,0-7.22,6.37,29,29,0,0,0-1.73,5.64c-1.19,4.87-2.9,9.81-6.39,13.4-3.91,4-9.62,5.85-15.21,6.26a37.11,37.11,0,0,1-9.41-.51,26.55,26.55,0,0,0-6.49-.83"/><path class="cls-65" d="M148.14,125.56c4.7-1.89,9.93.31,15,.85a22.72,22.72,0,0,0,13.8-3,22.36,22.36,0,0,0,9.23-10.68c1.72-4.21,2.32-9.22,5.82-12.12a8.64,8.64,0,0,1,6.8-1.84"/><path class="cls-65" d="M199.66,105c-3.17-.63-6.33,1.41-8.28,4s-3,5.68-4.7,8.46a26.81,26.81,0,0,1-13.12,11A31.7,31.7,0,0,1,156.42,130c-2.95-.51-5.88-1.42-8.87-1.26"/><path class="cls-65" d="M150,132.47c4.43-1.27,9.15-.46,13.72.18s9.42,1.07,13.61-.85a23.82,23.82,0,0,0,6.33-4.76,97.72,97.72,0,0,0,10-11c1.23-1.6,2.56-3.37,4.52-3.87,2.37-.59,4.79.87,7.22.72"/><path class="cls-19" d="M151.77,115.19s-5.5,9.92.36,23.17L146.94,142,140,109.2Z"/></g></g></svg>