<svg id="Layer_1" data-name="Layer 1" xmlns="http://www.w3.org/2000/svg" xmlns:xlink="http://www.w3.org/1999/xlink" viewBox="0 0 260 168"><defs><style>.cls-1,.cls-36{fill:#6ab7be;}.cls-2{fill:#572517;}.cls-3{fill:#9b4a0d;}.cls-4{fill:#a55716;}.cls-5{fill:#b4e1e7;}.cls-6{fill:#330907;}.cls-7{fill:#d5f5f7;}.cls-8{fill:#2a1107;}.cls-34,.cls-9{fill:#60aeb2;}.cls-10,.cls-16,.cls-17,.cls-18,.cls-19,.cls-30,.cls-67{fill:none;}.cls-11{fill:#4f2804;}.cls-12{fill:#7f470a;}.cls-13{fill:#b76e1d;}.cls-14{fill:#935914;}.cls-15{clip-path:url(#clip-path);}.cls-16{stroke:red;}.cls-16,.cls-17,.cls-18,.cls-19,.cls-30{stroke-linecap:round;stroke-linejoin:round;}.cls-16,.cls-17,.cls-18,.cls-19{stroke-width:0.24px;}.cls-17{stroke:#2d5b04;}.cls-18{stroke:#000dff;}.cls-19{stroke:#ffb600;}.cls-20{fill:#fff;}.cls-21{fill:#e2e2e2;}.cls-22{fill:#280f05;}.cls-23{fill:#461d13;}.cls-24{clip-path:url(#clip-path-2);}.cls-25{fill:#431a11;}.cls-26{fill:#1f0e07;}.cls-27{fill:#130402;}.cls-28{fill:#441a12;}.cls-29{clip-path:url(#clip-path-3);}.cls-30{stroke:#280f05;stroke-width:1.53px;}.cls-31{fill:#ff8c26;}.cls-32{fill:#ffe1bd;}.cls-33{fill:#96c5c7;}.cls-34{opacity:0.37;}.cls-35{clip-path:url(#clip-path-4);}.cls-36{opacity:0.28;}.cls-37{clip-path:url(#clip-path-5);}.cls-38{fill:#ea6e27;}.cls-39{fill:#132995;}.cls-40{clip-path:url(#clip-path-6);}.cls-41{fill:#479e9e;}.cls-42{fill:#c80752;}.cls-43{fill:#ff085f;}.cls-44{clip-path:url(#clip-path-7);}.cls-45{fill:#87c1c6;}.cls-46{fill:#1632b7;}.cls-47{fill:#041e7f;}.cls-48{clip-path:url(#clip-path-8);}.cls-49{fill:#6d3503;}.cls-50{fill:#7c3e0a;}.cls-51{fill:#602e05;}.cls-52{fill:#c96d28;}.cls-53{fill:#e0874b;}.cls-54{clip-path:url(#clip-path-9);}.cls-55{fill:#9b4a0e;}.cls-56{clip-path:url(#clip-path-10);}.cls-57{clip-path:url(#clip-path-11);}.cls-58{clip-path:url(#clip-path-12);}.cls-59{fill:#9e5823;}.cls-60{fill:#58990d;}.cls-61{clip-path:url(#clip-path-13);}.cls-62{opacity:0.51;}.cls-63{fill:#6b2f20;}.cls-64{fill:#f71414;}.cls-65{fill:#d60707;}.cls-66{clip-path:url(#clip-path-14);}.cls-67{stroke:#6ab7be;stroke-miterlimit:10;stroke-width:0.21px;opacity:0.38;}</style><clipPath id="clip-path"><path class="cls-1" d="M67.22,82.4s-3.48.17-5.16,1.12,0,3.17-.58,10.38-1,9.85-.37,13.74c0,0,3,1.33,11.12,1s12-1.08,12.39-2.09-.07-8.73-.81-11.09-.27-10.65-.13-11.35-2.17-1.59-4.59-1.55C79.09,82.56,68.11,83.38,67.22,82.4Z"/></clipPath><clipPath id="clip-path-2"><path class="cls-2" d="M77.45,38.73s-9.87-1.33-15.66,6.66S58.57,66,59.36,68.84,65.34,79.1,74.17,80,88.94,73.2,90,71s5.15-15.76.61-24.2C86.43,39,77.45,38.73,77.45,38.73Z"/></clipPath><clipPath id="clip-path-3"><path class="cls-6" d="M68.71,71.37a39.77,39.77,0,0,0,5.53,1.29,18.24,18.24,0,0,0,5.65-.41s-1.17,5.16-5.76,4.68S69,72.79,68.71,71.37Z"/></clipPath><clipPath id="clip-path-4"><path class="cls-7" d="M61,107a28,28,0,0,1,7.78,1.19c3,1.14,7.27,0,9.09-.39s6.42-2.62,7.52-1,5,6.08,4.43,8-5.55,5.46-8.31,5.06a50.12,50.12,0,0,0-10-.2,47.91,47.91,0,0,1-9.52.33c-2.43-.33-6.85-1-6-5.46S59.4,107.49,61,107Z"/></clipPath><clipPath id="clip-path-5"><path class="cls-8" d="M66.14,82c.28,0,1.93,1.48,1.71,4.71s.33,4.08-.85,6.64-.1,4.92-.59,6.67-3.85,6-5.82,7.07c0,0-.3-7.07.74-11.59s2.52-9.41.73-12C62.06,83.52,65.2,81.9,66.14,82Z"/></clipPath><clipPath id="clip-path-6"><path class="cls-8" d="M80.2,82c-.28,0-1.93,1.48-1.7,4.71s-.34,4.08.84,6.64.1,4.92.59,6.67a13,13,0,0,0,4.75,6.16s1.37-6.16.33-10.68-2.52-9.41-.73-12C84.28,83.52,81.14,81.9,80.2,82Z"/></clipPath><clipPath id="clip-path-7"><path class="cls-9" d="M64.16,108.42c-3.1.7-6.14,2.38-7.53,5.23-1.9,3.88-.36,8.88,2.93,11.69a10.44,10.44,0,0,1,1.83-4.14c2-2.62,5.82-1.4,9.06-2.1,3.66-.8,6.28-2.3,9.81-1s7.4,3.31,7.28,7c2.28-1.65,2.54-4.9,2.48-7.71a12.37,12.37,0,0,0-.74-4.65c-1.34-3.11-4.9-4.72-8.27-5s-6.75.39-10.14.47c-.88,0-1.76,0-2.65,0A23.73,23.73,0,0,0,64.16,108.42Z"/></clipPath><clipPath id="clip-path-8"><path class="cls-10" d="M79.89,99.05c0,.64-4.06,1.17-8.53,1.17s-8.66-.53-8.66-1.17,3.77-4.31,8.23-4.31S79.89,98.4,79.89,99.05Z"/></clipPath><clipPath id="clip-path-9"><path class="cls-4" d="M69.26,100.52a.87.87,0,0,0-.13.62c.09.29,2.39.37,2.56.34s.83-.23,1-.55-.15-.62-.15-.62l-2,0Z"/></clipPath><clipPath id="clip-path-10"><path class="cls-4" d="M64.44,99.86a6.31,6.31,0,0,0-.18.89c0,.35,1.38.88,1.75.85a5.73,5.73,0,0,0,2.14-.84c.31-.33-.36-.9-.36-.9l-2.59,0Z"/></clipPath><clipPath id="clip-path-11"><path class="cls-3" d="M76.38,98.23a4.39,4.39,0,0,0-.26.57c-.06.21,1,.59,1.63.58a1.07,1.07,0,0,0,.93-.73c0-.06.09-.72-.07-.81L77,98.22Z"/></clipPath><clipPath id="clip-path-12"><path class="cls-4" d="M71.64,98.87s-.18.47,0,.68,1.53.15,1.85.17a2.6,2.6,0,0,0,1.4-.21c.36-.26.1-.78.1-.78L72,98.82Z"/></clipPath><clipPath id="clip-path-13"><path class="cls-5" d="M62.22,83.39A3.65,3.65,0,0,0,60.44,85c-1.39,2.26-1.52,5.08-2.6,7.5A38.32,38.32,0,0,1,55,97.16a12,12,0,0,0-1.93,5.06,6.18,6.18,0,0,0,1.65,5,4.2,4.2,0,0,0,5,.67c1.55-1,2.05-3,2.24-4.87a28.94,28.94,0,0,0,.15-3.48,21.24,21.24,0,0,1,.06-2.88A30.78,30.78,0,0,1,63,93.4a15.82,15.82,0,0,0-.78-9.82"/></clipPath><clipPath id="clip-path-14"><path class="cls-5" d="M82.74,87.07c.13,1.18-2.38,3.45-2.38,3.45a22.77,22.77,0,0,0,2.94,5.69c4.57,6.29,8.33,2,8.64-.19s-2.61-6.41-4-7.9c-1.11-1.2-3.77-4.53-3.77-4.53s-.77.67-.77,3.7Z"/></clipPath></defs><rect class="cls-11" x="24.79" y="125.49" width="4.31" height="23.37" rx="2.16"/><rect class="cls-11" x="35.01" y="119.74" width="4.31" height="23.37" rx="2.16"/><rect class="cls-11" x="116.03" y="119.74" width="4.31" height="23.37" rx="2.16"/><rect class="cls-11" x="124.66" y="125.49" width="4.31" height="23.37" rx="2.16"/><path class="cls-12" d="M22.83,123.85H130.22a0,0,0,0,1,0,0v3.85a1.8,1.8,0,0,1-1.8,1.8H24.63a1.8,1.8,0,0,1-1.8-1.8v-3.85A0,0,0,0,1,22.83,123.85Z"/><path class="cls-13" d="M21.78,119.5l11.77-3.87a1.7,1.7,0,0,1,.54-.09H122.8a1.19,1.19,0,0,1,.58.15l7.68,3.82S21.78,119.34,21.78,119.5Z"/><rect class="cls-14" x="19.63" y="119.46" width="113.46" height="5.11" rx="2.56"/><path class="cls-1" d="M67.22,82.4s-3.48.17-5.16,1.12,0,3.17-.58,10.38-1,9.85-.37,13.74c0,0,3,1.33,11.12,1s12-1.08,12.39-2.09-.07-8.73-.81-11.09-.27-10.65-.13-11.35-2.17-1.59-4.59-1.55C79.09,82.56,68.11,83.38,67.22,82.4Z"/><g class="cls-15"><path class="cls-16" d="M68.75,95.24s4.52-.09,5-4.2"/><path class="cls-17" d="M69.09,95.75s4.51-.09,5-4.21"/><path class="cls-18" d="M69.42,96.25s4.51-.08,5-4.2"/><path class="cls-19" d="M69.75,96.76s4.52-.09,5-4.21"/><path class="cls-16" d="M64.88,101.85s4.52-.09,5-4.2"/><path class="cls-17" d="M65.22,102.36s4.51-.09,5-4.21"/><path class="cls-18" d="M65.55,102.87s4.51-.09,5-4.21"/><path class="cls-19" d="M65.88,103.37s4.52-.09,5-4.2"/><path class="cls-16" d="M71.22,106.87s4.51-.09,5-4.21"/><path class="cls-17" d="M71.55,107.38s4.51-.09,5-4.21"/><path class="cls-18" d="M71.88,107.88s4.52-.09,5-4.2"/><path class="cls-19" d="M72.22,108.39s4.51-.09,5-4.21"/><path class="cls-16" d="M76.84,90.92s4.51-.09,5-4.21"/><path class="cls-17" d="M77.17,91.42s4.51-.09,5-4.2"/><path class="cls-18" d="M77.5,91.93s4.52-.09,5-4.21"/><path class="cls-19" d="M77.84,92.43s4.51-.08,5-4.2"/><path class="cls-16" d="M77.21,99.44s4.51-.08,5-4.2"/><path class="cls-17" d="M77.54,100s4.52-.09,5-4.21"/><path class="cls-18" d="M77.88,100.46s4.51-.09,5-4.21"/><path class="cls-19" d="M78.21,101s4.51-.09,5-4.2"/><path class="cls-20" d="M59.81,81.5a6.92,6.92,0,0,1,4,4.79,14.49,14.49,0,0,1,0,6.42,34.53,34.53,0,0,1-.91,3.74c-.25.81-.64,1.72-1.46,1.92-1.27-5.52-2.55-11.18-1.93-16.81,0-.33.37-.76.58-.51l-.18.59"/></g><path class="cls-2" d="M69.51,78.91v3.27s-1.62.36-2.52.49,2.38,7.63,6.33,7.63,6.23-6.28,6.5-7.54l-3.09-.85V78.49S70,77,69.51,78.91Z"/><path d="M69,82.16c.53,1.72,2.51,2.13,4.09,2.17a5.09,5.09,0,0,0,4.38-1.94c.34-.49-.46-1-.8-.47a4.08,4.08,0,0,1-3.44,1.49c-1.16,0-2.94-.18-3.35-1.49-.17-.57-1.06-.33-.88.24Z"/><circle class="cls-21" cx="73.21" cy="84.51" r="0.99"/><path class="cls-22" d="M60.5,52.62s-.73-3.37-4.87-3S52,53.32,52,53.32s-4.86-.14-5.19,4.2,2.32,4.39,2.32,4.39A3.9,3.9,0,0,0,48,66.62c1.16,3.13,3,2.4,3,2.4s1.27.13,1,2.3,1.48,3.11,4.84,2.83c0,0,6.52,2.81,8.45,1.09L66,55.49Z"/><path class="cls-22" d="M91.8,55.86s1.41-3.15,5.39-2,2.75,4.39,2.75,4.39,4.79.85,4.23,5.17S101,67.27,101,67.27a3.9,3.9,0,0,1,.18,4.85c-1.78,2.82-3.38,1.75-3.38,1.75s-1.27-.14-1.49,2S94.22,78.65,91,77.68c0,0-7,1.42-8.5-.66l3.33-19.48Z"/><circle class="cls-23" cx="58.16" cy="61.29" r="4.57" transform="translate(-22.96 37.66) rotate(-30.26)"/><circle class="cls-23" cx="92.02" cy="64.79" r="4.57" transform="translate(-20.11 55.2) rotate(-30.26)"/><path class="cls-2" d="M77.45,38.73s-9.87-1.33-15.66,6.66S58.57,66,59.36,68.84,65.34,79.1,74.17,80,88.94,73.2,90,71s5.15-15.76.61-24.2C86.43,39,77.45,38.73,77.45,38.73Z"/><g class="cls-24"><path class="cls-25" d="M56.68,59.66s3.32-7.9,7-9.55,7.94-1.55,13-1,10.43,1.82,11.86,3,4.87,7.2,4.67,11.1l4.26-23.5L70.29,34.09s-9.05,1.16-9.26,1.2-5,4.9-5,4.9Z"/></g><ellipse class="cls-22" cx="77.05" cy="42.82" rx="6.01" ry="1.41" transform="translate(26.53 115.05) rotate(-84.09)"/><path class="cls-26" d="M63.46,58.54a3.15,3.15,0,0,1-2.06-1,2.43,2.43,0,0,0,.87,2S63.71,59.78,63.46,58.54Z"/><path class="cls-26" d="M63,59.76a3.15,3.15,0,0,1-2.06-1,2.43,2.43,0,0,0,.87,2S63.29,61,63,59.76Z"/><circle class="cls-20" cx="65.87" cy="62.79" r="5.28" transform="translate(-22.67 41.75) rotate(-30.26)"/><path d="M66.29,61.44a3.44,3.44,0,0,0-.91,0,1.49,1.49,0,1,1-2.22,1.34,3.44,3.44,0,0,0-.68,1.72,3.47,3.47,0,1,0,3.81-3.09Z"/><path class="cls-26" d="M87.76,60.88A3.2,3.2,0,0,0,90,60.36a2.41,2.41,0,0,1-1.27,1.8S87.27,62,87.76,60.88Z"/><path class="cls-26" d="M87.92,62.16a3.2,3.2,0,0,0,2.22-.52,2.41,2.41,0,0,1-1.27,1.8S87.43,63.32,87.92,62.16Z"/><circle class="cls-20" cx="84.35" cy="64.7" r="5.28" transform="translate(-21.11 51.32) rotate(-30.26)"/><path d="M84.77,63.35a3.44,3.44,0,0,0-.91,0,1.49,1.49,0,1,1-2.22,1.34,3.47,3.47,0,1,0,3.13-1.37Z"/><path class="cls-27" d="M62.08,54a16.72,16.72,0,0,1,9.23,1S67,49.22,62.08,54Z"/><path class="cls-27" d="M81,55.91a16.77,16.77,0,0,1,9.23,1S85.92,51.17,81,55.91Z"/><ellipse class="cls-23" cx="74.84" cy="66.86" rx="1.68" ry="2.6" transform="translate(0.63 134.42) rotate(-84.09)"/><path class="cls-28" d="M74.38,71a7.47,7.47,0,0,0-3.65-.38,9.22,9.22,0,0,1-2.91.19s-.4,6.19,5.91,6.84,7.14-5.71,7.14-5.71a19.16,19.16,0,0,1-3.05-.72A6.59,6.59,0,0,0,74.38,71Z"/><path class="cls-6" d="M68.71,71.37a39.77,39.77,0,0,0,5.53,1.29,18.24,18.24,0,0,0,5.65-.41s-1.17,5.16-5.76,4.68S69,72.79,68.71,71.37Z"/><g class="cls-29"><ellipse class="cls-20" cx="74.19" cy="71.25" rx="2.46" ry="5.17" transform="translate(-4.32 137.71) rotate(-84.09)"/></g><path class="cls-30" d="M74.11,47.07s-12.3-.94-15.23,5.11"/><path class="cls-30" d="M73.87,44.3s-9.9-.11-13.73,3.24"/><path class="cls-30" d="M74.14,41.66s-7.31,0-11.08,2.18"/><path class="cls-30" d="M75.25,39.22a18.55,18.55,0,0,0-8.64,1.33"/><path class="cls-30" d="M79.58,47.63s12.23,1.6,13.86,8.12"/><path class="cls-30" d="M80.38,45s9.71,1.92,12.78,6"/><path class="cls-30" d="M80.65,42.33s7.17,1.46,10.4,4.41"/><path class="cls-30" d="M80.06,39.71a18.69,18.69,0,0,1,8.2,3.08"/><circle class="cls-31" cx="91.51" cy="74.4" r="2.65" transform="translate(-25.02 56.25) rotate(-30.26)"/><circle class="cls-32" cx="91.63" cy="70.76" r="0.76"/><circle class="cls-31" cx="91.84" cy="68.73" r="0.76"/><circle class="cls-31" cx="56.95" cy="70.83" r="2.65" transform="translate(-27.93 38.35) rotate(-30.26)"/><circle class="cls-32" cx="57.07" cy="67.19" r="0.76"/><circle class="cls-31" cx="57.28" cy="65.16" r="0.76"/><path class="cls-33" d="M66.82,86.09c.68,2.64,3.53,4.38,6.16,4.41a7.55,7.55,0,0,0,6.77-4.62c.22-.54-.67-.78-.89-.24A6.6,6.6,0,0,1,73,89.58c-2.22,0-4.7-1.49-5.27-3.73a.46.46,0,0,0-.89.24Z"/><path class="cls-33" d="M68.85,88.69a4,4,0,0,0-.93,2.53,3.49,3.49,0,0,0,.25,1.36,1.54,1.54,0,0,1,.21.74,2.7,2.7,0,0,1-.33.71,3.18,3.18,0,0,0-.33,1.32,2.84,2.84,0,0,0,.08.77,3.05,3.05,0,0,1,.17.66c0,.36-.34.69-.51,1a1.68,1.68,0,0,0-.3,1.1c0,.34.5.67.78.32a3.79,3.79,0,0,0,.58-1c.22-.55-.67-.79-.89-.24a2.11,2.11,0,0,1-.34.58l.79.33c-.08-.67.67-1.2.78-1.86a3,3,0,0,0-.17-1.14,2.2,2.2,0,0,1,.22-1.51,2.56,2.56,0,0,0,.4-1.13A4.56,4.56,0,0,0,68.93,92a3,3,0,0,1,.57-2.65c.37-.45-.28-1.11-.65-.65Z"/><path class="cls-33" d="M70.74,89.81a5.19,5.19,0,0,0-1,3.15,5.67,5.67,0,0,0,.31,1.63,1,1,0,0,1-.18,1.08,6.16,6.16,0,0,0-.43.8,2.45,2.45,0,0,0-.09,1.58,5.31,5.31,0,0,1,.46,1.82c-.1,1.08-.88,1.93-.32,3a.44.44,0,0,0,.39.23.59.59,0,0,0,.58-.77c-.11-.58-1-.34-.88.24v.1l.05-.36-.06.08.4-.22h-.1l.4.22c-.24-.47,0-1,.2-1.48a3.65,3.65,0,0,0,.26-1.39,6.74,6.74,0,0,0-.41-1.46,2,2,0,0,1,.27-1.86,2.29,2.29,0,0,0,.5-1.23,12.32,12.32,0,0,0-.4-1.53,4.31,4.31,0,0,1,.8-3.2c.34-.48-.46-.94-.8-.46Z"/><path class="cls-33" d="M72.12,90.39a3.21,3.21,0,0,0-.4,1.77,3.08,3.08,0,0,0,.19.9,1.18,1.18,0,0,1,.12.36.73.73,0,0,1-.16.36A2.9,2.9,0,0,0,72,97a.46.46,0,0,0,.84-.11l.06-.19a.46.46,0,0,0-.89-.25l0,.2.84-.11a2,2,0,0,1-.44-1.32,3.66,3.66,0,0,1,.5-1.36c.23-.57-.1-1-.19-1.55a2.37,2.37,0,0,1,.25-1.48c.28-.52-.51-1-.79-.46Z"/><path class="cls-33" d="M73.29,90.85a3.43,3.43,0,0,1,.93,2.48,9.06,9.06,0,0,0,0,2.94c.12.43.31.84.43,1.27A2.17,2.17,0,0,1,74.52,99a2.66,2.66,0,0,0-.2,1.27,6.52,6.52,0,0,1,.19,1.52c-.08.58.79.83.89.25l0-.3c.09-.58-.79-.83-.88-.25l0,.3.89.25a4.2,4.2,0,0,0-.09-1.41,3,3,0,0,1,.19-1.66c.34-1.05-.12-1.92-.4-2.91s.15-2.21,0-3.32a4.49,4.49,0,0,0-1.18-2.5c-.41-.44-1.06.21-.65.65Z"/><path class="cls-34" d="M69.73,107.14a9.25,9.25,0,0,0,1.54,1.11,4.24,4.24,0,0,0,1.82.37,5.25,5.25,0,0,0,3.39-1.1A9.19,9.19,0,0,1,78,106.21a4.48,4.48,0,0,1,2.47-.26c.61,0,1.33.17,1.62.71.38.7-.25,1.53-.92,2-1.81,1.21-4.1,1.44-6.28,1.55a20.32,20.32,0,0,1-3.9-.07c-1.85-.25-5.21-.93-6.08-2.89-.45-1,.37-1.46,1.32-1.47A5.84,5.84,0,0,1,69.73,107.14Z"/><path class="cls-33" d="M75.21,90.08A5.6,5.6,0,0,1,76,92.87a5.56,5.56,0,0,0,0,1.41c.09.43.37.8.46,1.23a2.38,2.38,0,0,1-.18,1.29A2.61,2.61,0,0,0,76,98.06a5.14,5.14,0,0,0,.45,1.3c.12.3.19.71.51.87a.47.47,0,0,0,.55-.07.48.48,0,0,0,.16-.4.47.47,0,0,0-.34-.45h0c-.58-.1-.83.79-.24.89h0l-.34-.44v0l.13-.32,0,0,.56-.07c.06,0-.12-.42-.15-.49-.08-.22-.19-.44-.26-.66a.89.89,0,0,1,0-.75c.07-.17.15-.33.21-.5a2.89,2.89,0,0,0,0-2.29,2.91,2.91,0,0,1-.31-1.32,9.5,9.5,0,0,0,0-1.41,7.46,7.46,0,0,0-.92-2.4c-.27-.52-1.07-.06-.79.46Z"/><path class="cls-33" d="M76.7,89.27a6.06,6.06,0,0,1,.86,1.86c.14.71,0,1.45.14,2.16.18,1.26,1.35,2.54.85,3.84-.21.55.68.79.89.24.58-1.51-.61-2.74-.83-4.17-.12-.77,0-1.55-.16-2.31a7.2,7.2,0,0,0-1-2.09.46.46,0,0,0-.79.47Z"/><path class="cls-7" d="M61,107a28,28,0,0,1,7.78,1.19c3,1.14,7.27,0,9.09-.39s6.42-2.62,7.52-1,5,6.08,4.43,8-5.55,5.46-8.31,5.06a50.12,50.12,0,0,0-10-.2,47.91,47.91,0,0,1-9.52.33c-2.43-.33-6.85-1-6-5.46S59.4,107.49,61,107Z"/><g class="cls-35"><path class="cls-1" d="M64.21,106.31c-.8,2.5-2.46,4.6-3,7.19a13.88,13.88,0,0,0-.33,3.63,13.27,13.27,0,0,0,.19,1.78c.09.5.67,1.86.24,2.26-.13.11.06.3.19.18a.89.89,0,0,0,.21-.89c-.12-.65-.33-1.28-.43-1.95a13.15,13.15,0,0,1,.1-4.51,14.79,14.79,0,0,1,1.43-4,23,23,0,0,0,1.71-3.66.13.13,0,0,0-.26-.07Z"/><path class="cls-1" d="M66.14,107.23a18.73,18.73,0,0,0-2.29,13.58c0,.17.29.09.26-.07a18.44,18.44,0,0,1,2.26-13.38.13.13,0,0,0-.23-.13Z"/><path class="cls-1" d="M68.57,107.43a13.75,13.75,0,0,0-2.47,6.77,13,13,0,0,0,.18,3.57,17.4,17.4,0,0,0,.51,2c.12.39.2,1.18.59,1.37a.14.14,0,0,0,.17,0,.21.21,0,0,0,0-.25.15.15,0,0,0-.13-.1h0c-.16,0-.17.29,0,.27s-.52-1.85-.57-2a14.6,14.6,0,0,1-.39-1.74,13.33,13.33,0,0,1,2.34-9.73c.1-.14-.13-.28-.23-.14Z"/><path class="cls-1" d="M70.15,107.81c-2.78,3.83-1.24,9-.43,13.17,0,.17.29.1.26-.07-.8-4.15-2.34-9.2.4-13,.1-.14-.13-.27-.23-.14Z"/><path class="cls-1" d="M71.58,108a51,51,0,0,0,.18,12.47l.26-.07,0-.31c0-.17-.29-.1-.26.07l.05.31c0,.17.28.1.26-.07a50.44,50.44,0,0,1-.17-12.4c0-.17-.25-.17-.27,0Z"/><path class="cls-1" d="M74,107.56l.09,7.08,0,3.47,0,1.74c0,.15,0,1.84.09,1.83s.09-.31-.07-.26h0a.15.15,0,0,0-.1.13.2.2,0,0,0,.12.2.14.14,0,0,0,.16,0c.24-.25.12-.71.12-1l0-1.74,0-3.85-.09-7.57a.14.14,0,0,0-.27,0Z"/><path class="cls-1" d="M75.8,108a22,22,0,0,0,.74,3.68A27.31,27.31,0,0,1,77.1,116a25.94,25.94,0,0,1-.11,4s-.47,2.16.17,1.71a.12.12,0,0,0,.07-.11v-.06c0-.17-.28-.17-.26,0a1.12,1.12,0,0,0,.18-.56l0-.27c0-.31.08-.63.11-.94,0-.56.09-1.11.11-1.67a26.31,26.31,0,0,0-.12-3.44,26.77,26.77,0,0,0-.5-3.21,23,23,0,0,1-.71-3.49c0-.17-.27-.17-.26,0Z"/><path class="cls-1" d="M77.46,107.13a24.42,24.42,0,0,1,2,7.44,45.81,45.81,0,0,1-.14,7.68c0,.16.21.17.26,0l.15-.43c.06-.17-.2-.23-.26-.07l-.15.43.26,0a42.79,42.79,0,0,0,.1-8.16,25,25,0,0,0-2-7.09c-.06-.16-.29,0-.23.13Z"/><path class="cls-1" d="M79.89,106.26a21.35,21.35,0,0,1,2.7,8.08,39,39,0,0,1-.33,9.09h.27v-.73a.13.13,0,0,0-.27,0v.73c0,.17.25.16.27,0a37.7,37.7,0,0,0,.28-9.43,21.52,21.52,0,0,0-2.69-7.87c-.08-.15-.31,0-.23.13Z"/><path class="cls-1" d="M82,106.65a29.69,29.69,0,0,1,1.92,3.77,17.84,17.84,0,0,1,1,3.94,34.59,34.59,0,0,1,.31,4.19c0,.65,0,1.3,0,2a3.78,3.78,0,0,1-.31,2.24l.25,0-.14-.38c0-.16-.31-.09-.25.07l.13.38a.13.13,0,0,0,.24,0,2.55,2.55,0,0,0,.35-1.58c0-.77,0-1.53,0-2.29a37.25,37.25,0,0,0-.27-4.36,19,19,0,0,0-1-4.2,27.86,27.86,0,0,0-2-3.93c-.09-.15-.32,0-.23.13Z"/><path class="cls-36" d="M75.62,118a24,24,0,0,0-4.34.86,46.78,46.78,0,0,0-6,1.91c-.43.18-.93.48-.93.95s.77.84,1.36.9a141.36,141.36,0,0,0,19.62.74,4.22,4.22,0,0,0,1.62-.27,1.44,1.44,0,0,0,.89-1.28c0-.89-1.4-1.16-2-1.43-1.11-.46-2.21-.92-3.35-1.3A17.34,17.34,0,0,0,75.62,118Z"/><path class="cls-36" d="M69.46,107.92a2.82,2.82,0,0,0,1.59,1.34c3.65,1.63,8.55-.22,11.49-2.92-.43-.5-1.46.46-2.11.37a41.31,41.31,0,0,0-8.68-.28,6,6,0,0,0-3.8,1.28"/></g><path class="cls-8" d="M66.14,82c.28,0,1.93,1.48,1.71,4.71s.33,4.08-.85,6.64-.1,4.92-.59,6.67-3.85,6-5.82,7.07c0,0-.3-7.07.74-11.59s2.52-9.41.73-12C62.06,83.52,65.2,81.9,66.14,82Z"/><g class="cls-37"><ellipse class="cls-38" cx="64.62" cy="92.33" rx="2.1" ry="0.52" transform="translate(-15.56 13.13) rotate(-10.36)"/><ellipse class="cls-38" cx="64.47" cy="103.27" rx="2.1" ry="0.52" transform="translate(-17.53 13.28) rotate(-10.36)"/><ellipse class="cls-39" cx="65.16" cy="86.51" rx="2.1" ry="0.52" transform="translate(-14.5 13.14) rotate(-10.36)"/><ellipse class="cls-39" cx="63.65" cy="97.96" rx="2.1" ry="0.52" transform="translate(-16.59 13.05) rotate(-10.36)"/><ellipse class="cls-38" cx="63.82" cy="88.8" rx="0.48" ry="0.68"/><ellipse class="cls-38" cx="63.65" cy="90.88" rx="0.68" ry="0.48" transform="translate(-38.56 134.04) rotate(-77.88)"/><ellipse class="cls-38" cx="62.81" cy="99.91" rx="0.48" ry="0.68" transform="translate(-18.84 14.7) rotate(-11.62)"/><ellipse class="cls-38" cx="65.41" cy="99.24" rx="0.48" ry="0.68" transform="translate(-18.65 15.21) rotate(-11.62)"/><ellipse class="cls-38" cx="63.46" cy="102.07" rx="0.68" ry="0.48" transform="translate(-41.92 159.87) rotate(-86.88)"/><ellipse class="cls-38" cx="65.82" cy="101.27" rx="0.68" ry="0.48" transform="translate(-38.88 161.48) rotate(-86.88)"/><ellipse class="cls-39" cx="62.71" cy="94.34" rx="0.68" ry="0.48" transform="translate(-35.96 150.01) rotate(-85.82)"/><ellipse class="cls-39" cx="62.55" cy="96.52" rx="0.68" ry="0.48" transform="translate(-38.27 151.87) rotate(-85.82)"/><ellipse class="cls-39" cx="65.16" cy="96.01" rx="0.68" ry="0.48" transform="translate(-35.35 154) rotate(-85.82)"/><ellipse class="cls-39" cx="65.64" cy="93.85" rx="0.68" ry="0.48" transform="translate(-32.74 152.47) rotate(-85.82)"/><ellipse class="cls-38" cx="66.51" cy="90.31" rx="0.68" ry="0.48" transform="translate(-35.75 136.37) rotate(-77.88)"/><ellipse class="cls-38" cx="66.81" cy="88.24" rx="0.68" ry="0.48" transform="translate(-26.94 147.06) rotate(-84.97)"/><ellipse class="cls-39" cx="63.46" cy="85.11" rx="0.48" ry="0.68" transform="translate(-13.29 11.76) rotate(-9.59)"/><ellipse class="cls-39" cx="62.98" cy="83.37" rx="0.48" ry="0.68" transform="translate(-13 11.65) rotate(-9.59)"/><ellipse class="cls-39" cx="66.64" cy="84.67" rx="0.48" ry="0.68" transform="translate(-13.17 12.28) rotate(-9.59)"/><ellipse class="cls-39" cx="66.22" cy="82.7" rx="0.48" ry="0.68" transform="translate(-12.85 12.18) rotate(-9.59)"/></g><path class="cls-8" d="M80.2,82c-.28,0-1.93,1.48-1.7,4.71s-.34,4.08.84,6.64.1,4.92.59,6.67a13,13,0,0,0,4.75,6.16s1.37-6.16.33-10.68-2.52-9.41-.73-12C84.28,83.52,81.14,81.9,80.2,82Z"/><g class="cls-40"><ellipse class="cls-38" cx="81.72" cy="92.33" rx="0.52" ry="2.1" transform="translate(-23.8 156.1) rotate(-79.64)"/><ellipse class="cls-38" cx="81.88" cy="103.27" rx="0.52" ry="2.1" transform="translate(-34.44 165.23) rotate(-79.64)"/><ellipse class="cls-39" cx="81.18" cy="86.51" rx="0.52" ry="2.1" transform="matrix(0.18, -0.98, 0.98, 0.18, -18.52, 150.8)"/><ellipse class="cls-39" cx="82.69" cy="97.96" rx="0.52" ry="2.1" transform="translate(-28.56 161.68) rotate(-79.64)"/><ellipse class="cls-38" cx="82.52" cy="88.8" rx="0.48" ry="0.68"/><ellipse class="cls-38" cx="82.69" cy="90.88" rx="0.48" ry="0.68" transform="translate(-17.24 19.38) rotate(-12.12)"/><ellipse class="cls-38" cx="83.54" cy="99.91" rx="0.68" ry="0.48" transform="translate(-31.15 161.61) rotate(-78.38)"/><ellipse class="cls-38" cx="80.93" cy="99.24" rx="0.68" ry="0.48" transform="translate(-32.58 158.52) rotate(-78.38)"/><ellipse class="cls-38" cx="82.88" cy="102.07" rx="0.48" ry="0.68" transform="translate(-5.44 4.67) rotate(-3.12)"/><ellipse class="cls-38" cx="80.52" cy="101.27" rx="0.48" ry="0.68" transform="translate(-5.4 4.54) rotate(-3.12)"/><ellipse class="cls-39" cx="83.63" cy="94.34" rx="0.48" ry="0.68" transform="translate(-6.66 6.35) rotate(-4.18)"/><ellipse class="cls-39" cx="83.79" cy="96.52" rx="0.48" ry="0.68" transform="translate(-6.81 6.37) rotate(-4.18)"/><ellipse class="cls-39" cx="81.18" cy="96.01" rx="0.48" ry="0.68" transform="translate(-6.78 6.17) rotate(-4.18)"/><ellipse class="cls-39" cx="80.7" cy="93.85" rx="0.48" ry="0.68" transform="translate(-6.63 6.13) rotate(-4.18)"/><ellipse class="cls-38" cx="79.83" cy="90.31" rx="0.48" ry="0.68" transform="translate(-17.18 18.77) rotate(-12.12)"/><ellipse class="cls-38" cx="79.53" cy="88.24" rx="0.48" ry="0.68" transform="translate(-7.43 7.31) rotate(-5.03)"/><ellipse class="cls-39" cx="82.88" cy="85.11" rx="0.68" ry="0.48" transform="translate(-14.84 152.66) rotate(-80.41)"/><ellipse class="cls-39" cx="83.36" cy="83.37" rx="0.68" ry="0.48" transform="translate(-12.73 151.69) rotate(-80.41)"/><ellipse class="cls-39" cx="79.7" cy="84.67" rx="0.68" ry="0.48" transform="translate(-17.06 149.16) rotate(-80.41)"/><ellipse class="cls-39" cx="80.12" cy="82.7" rx="0.68" ry="0.48" transform="translate(-14.77 147.93) rotate(-80.41)"/></g><path class="cls-41" d="M59,124.79a4.15,4.15,0,0,0,3.28,1.11,13.93,13.93,0,0,0,3.45-.85c5.2-1.73,11-2.91,16.08-.9,1.66.66,4.17,2,5.69,1,1.14-.71.87-2.55,1.09-3.87.45-2.69.86-5.62-.47-8-1.17-2.11-3.47-3.32-5.74-4.14a17.87,17.87,0,0,0-5.2-1.14c-3.56-.17-7,1.15-10.23,2.7a16.59,16.59,0,0,0-4.08,2.56c-2.78,2.56-3.78,6.47-4.57,10.16l.79,0"/><path class="cls-42" d="M72.19,133.66l.46,1.45s0,1.66-2.18,3.23a17,17,0,0,0-3.83,3.94,7.93,7.93,0,0,1-6,3.89c-3.86.28-3.61-3.78-3.61-3.78l9.12-7.63Z"/><path class="cls-43" d="M71.48,133.27a.75.75,0,0,1,.67,1.16,9.71,9.71,0,0,1-3.07,3.62,11.21,11.21,0,0,0-2.67,3.06c-.25.41-3.12,4.19-5.87,4.44s-4.88-3-2.56-5.14,8.88-7.67,8.88-7.67Z"/><path class="cls-2" d="M69.69,127.72s1,3.49,1.41,4.43,1.89,2.64-1.16,4.6a10.5,10.5,0,0,0-4.2,4.57,10.19,10.19,0,0,1-4.29,3.16c-1.83.51-2-.69-2-.69a1.14,1.14,0,0,1-1.12-.95,1.49,1.49,0,0,1-.38-.88s-.25-.17-.2-.74a.82.82,0,0,1,.09-1,30.84,30.84,0,0,1,2.81-2.92c1.33-1.24,3.88-4.31,3-7.35S69.22,126.53,69.69,127.72Z"/><path class="cls-43" d="M64.52,142.32a3.7,3.7,0,0,0-1.53-.67,4.07,4.07,0,0,0-1.83.22c-1,.31-2.23,1-2.16,2.21,0,.59,1,.59.92,0-.05-.86,1-1.17,1.64-1.36a2.67,2.67,0,0,1,1.31-.16,3.1,3.1,0,0,1,1.19.56.47.47,0,0,0,.63-.17.48.48,0,0,0-.17-.63Z"/><path class="cls-43" d="M61.49,142.15c-.67-1.24-1.65-2.54-3.15-2.75a.48.48,0,0,0-.56.32.46.46,0,0,0,.32.57,2.42,2.42,0,0,1,.45.1,1.36,1.36,0,0,1,.35.16,3.26,3.26,0,0,1,.4.24l0,0h0l.09.07.17.16.34.36.24.33c.19.28.36.57.53.87a.45.45,0,0,0,.62.17.47.47,0,0,0,.17-.63Z"/><path class="cls-2" d="M60.74,117.92c-.09.46,3.09,12.92,3.09,12.92l6.62-.65L66.84,114.7S61.72,113.1,60.74,117.92Z"/><path class="cls-42" d="M75.19,133.41l-.35,1.48s.15,1.65,2.42,3.06a17,17,0,0,1,4.12,3.64A7.92,7.92,0,0,0,87.69,145c3.88,0,3.31-4,3.31-4l-9.67-6.91Z"/><path class="cls-43" d="M75.87,133a.75.75,0,0,0-.58,1.2,9.61,9.61,0,0,0,3.33,3.38,11.42,11.42,0,0,1,2.9,2.85c.28.39,3.43,3.94,6.18,4s4.65-3.4,2.17-5.32-9.43-7-9.43-7Z"/><path class="cls-2" d="M77.23,127.3s-.77,3.55-1.06,4.52-1.69,2.78,1.5,4.5a10.43,10.43,0,0,1,4.53,4.24,10.15,10.15,0,0,0,4.52,2.82c1.86.37,2-.83,2-.83a1.12,1.12,0,0,0,1-1,1.54,1.54,0,0,0,.32-.91s.23-.18.14-.74a.83.83,0,0,0-.16-1,31.38,31.38,0,0,0-3-2.69c-1.41-1.14-4.19-4-3.58-7.11S77.61,126.08,77.23,127.3Z"/><path class="cls-43" d="M84.08,142.17a2.85,2.85,0,0,1,1-.58,2.53,2.53,0,0,1,1.31,0c.65.13,1.76.36,1.77,1.21a.46.46,0,0,0,.92,0,1.87,1.87,0,0,0-.72-1.41,3.71,3.71,0,0,0-1.64-.67,4,4,0,0,0-1.81-.08,3.77,3.77,0,0,0-1.53.84.46.46,0,0,0,0,.65.47.47,0,0,0,.65,0Z"/><path class="cls-43" d="M87.31,141.5a9.69,9.69,0,0,1,.46-.91c.08-.14.17-.28.26-.41a.86.86,0,0,1,.07-.1l0,0c.06-.07.11-.14.17-.2a3.22,3.22,0,0,1,.32-.32l.08-.07,0,0,.18-.12a2.42,2.42,0,0,1,.39-.21l.05,0,.11,0,.23-.07a.45.45,0,0,0,.32-.56.46.46,0,0,0-.56-.32,4.63,4.63,0,0,0-3,3,.46.46,0,0,0,.79.46Z"/><path class="cls-2" d="M85.42,116.85c.12.45-2.1,13.11-2.1,13.11l-6.65-.14,2.42-15.72S84.08,112.11,85.42,116.85Z"/><path class="cls-9" d="M64.16,108.42c-3.1.7-6.14,2.38-7.53,5.23-1.9,3.88-.36,8.88,2.93,11.69a10.44,10.44,0,0,1,1.83-4.14c2-2.62,5.82-1.4,9.06-2.1,3.66-.8,6.28-2.3,9.81-1s7.4,3.31,7.28,7c2.28-1.65,2.54-4.9,2.48-7.71a12.37,12.37,0,0,0-.74-4.65c-1.34-3.11-4.9-4.72-8.27-5s-6.75.39-10.14.47c-.88,0-1.76,0-2.65,0A23.73,23.73,0,0,0,64.16,108.42Z"/><g class="cls-44"><path class="cls-16" d="M53,119.46s4.51-.09,5-4.21"/><path class="cls-17" d="M53.28,120s4.52-.09,5-4.2"/><path class="cls-18" d="M53.62,120.47s4.51-.09,5-4.21"/><path class="cls-19" d="M54,121s4.51-.08,5-4.2"/><path class="cls-16" d="M61.2,110.49s4.17,1.72,6.23-1.87"/><path class="cls-17" d="M61.3,111.09s4.18,1.72,6.23-1.88"/><path class="cls-18" d="M61.41,111.69s4.17,1.72,6.23-1.88"/><path class="cls-19" d="M61.51,112.28s4.17,1.72,6.23-1.87"/><path class="cls-16" d="M78.43,109.81s3.37,3,6.5.3"/><path class="cls-17" d="M78.33,110.41s3.37,3,6.5.3"/><path class="cls-18" d="M78.23,111s3.37,3,6.5.3"/><path class="cls-19" d="M78.13,111.6s3.37,3,6.5.3"/><path class="cls-16" d="M87.27,116.25s2.49,3.76,6.2,1.93"/><path class="cls-17" d="M87,116.8s2.49,3.76,6.21,1.93"/><path class="cls-18" d="M86.77,117.35s2.49,3.76,6.21,1.94"/><path class="cls-19" d="M86.52,117.9s2.49,3.76,6.21,1.94"/><path class="cls-16" d="M68.38,116.43s4.48.57,5.52-3.44"/><path class="cls-17" d="M68.64,117s4.47.57,5.51-3.44"/><path class="cls-18" d="M68.89,117.53s4.48.56,5.52-3.44"/><path class="cls-19" d="M69.15,118.08s4.48.56,5.52-3.44"/></g><path class="cls-45" d="M59.51,108a13.85,13.85,0,0,0,2.29-2.42,4.76,4.76,0,0,1,.6-.73c.43-.37,1-.52,1.41-.93a3.41,3.41,0,0,0,.68-2.17,3.37,3.37,0,0,0-.17-1.73,2.74,2.74,0,0,0-1.69-1.28c-.26-.1-.58-.23-.64-.52,0-.11,0-.24-.08-.32s-.35,0-.48.15A11,11,0,0,0,60,100.86c-.6,1.5-1.2,3-1.68,4.56a3.92,3.92,0,0,0-.25,1.47,1.35,1.35,0,0,0,.73,1.18,1.87,1.87,0,0,0,.41.09"/><ellipse class="cls-46" cx="71.3" cy="106.46" rx="5.86" ry="1.02"/><polygon class="cls-46" points="62.22 98.64 65.44 106.46 77.15 106.46 80.38 98.64 62.22 98.64"/><ellipse class="cls-47" cx="71.3" cy="98.64" rx="9.08" ry="1.58"/><g class="cls-48"><path class="cls-49" d="M82.14,100.18l0-.09a.76.76,0,0,0-.45-.78,5.77,5.77,0,0,0-.91-.32c-.76-.29-1.37-1-2.18-1-.24,0-.48.07-.72.09-1,.1-2-.53-3-.55-.52,0-1,.15-1.56.19l-.71,0a8.06,8.06,0,0,0-1.69-.21,5.83,5.83,0,0,0-1.09.21c-.47,0-.94,0-1.4.08a5.13,5.13,0,0,0-.66-.13,5.47,5.47,0,0,0-1.94.37c-.93.25-1.89.29-2.83.5a3.86,3.86,0,0,0-2.41,1.41l-.08.12,0,0-.1.15h0a.81.81,0,0,0-.09.37c0,1.62,4.91,2.94,11,2.94s11-1.32,11-2.94A.85.85,0,0,0,82.14,100.18Z"/><path class="cls-50" d="M64.12,98.47a.18.18,0,0,0-.16,0,.09.09,0,0,0-.08.13l.07,0a1.73,1.73,0,0,0,.81.1A7.82,7.82,0,0,0,66,98.5l1.48-.37a.63.63,0,0,0,.35-.16.94.94,0,0,0-.68-.1,3.81,3.81,0,0,0-.68.2,6.89,6.89,0,0,1-2.16.41Z"/><path class="cls-51" d="M73.56,98c-.29.09-.59,0-.88,0h-.05a.08.08,0,0,0,0,.11.27.27,0,0,0,.12,0,1.06,1.06,0,0,1,.35.09,1.53,1.53,0,0,0,.27.11.77.77,0,0,0,.51-.21l.2-.16,0,0s0-.07,0-.09a.2.2,0,0,0-.11,0,1.14,1.14,0,0,0-.35.13"/><path class="cls-51" d="M69.2,98A4.51,4.51,0,0,0,70,98a.23.23,0,0,1,.14,0,.75.75,0,0,1-.5.2,1.66,1.66,0,0,1-.54-.1s-.06,0-.07,0a0,0,0,0,1,0,0,0,0,0,0,1,.06,0"/><path class="cls-51" d="M79.85,100.77a8.9,8.9,0,0,0-1.26.09,4.92,4.92,0,0,1-1.21-.06c0,.13.18.18.31.21a3.09,3.09,0,0,0,1,.13c.2,0,.39-.07.59-.09s.37,0,.56,0a.76.76,0,0,0,.48-.24.36.36,0,0,0-.36,0"/><path class="cls-51" d="M79.89,99a5.06,5.06,0,0,0-.75.17l-.13,0a.15.15,0,0,0-.05.13.22.22,0,0,0,.13.1,3.12,3.12,0,0,0,1.18.09.51.51,0,0,0,.25-.06.16.16,0,0,0,.07-.21.2.2,0,0,0-.21-.07.59.59,0,0,1-.23,0,.19.19,0,0,1,.16-.15.27.27,0,0,0-.26-.06"/><path class="cls-50" d="M70.32,97.75a2.3,2.3,0,0,1,1.4-.06,1.47,1.47,0,0,1,.28.08.37.37,0,0,1,.18.21,2.52,2.52,0,0,1-.67,0,4.79,4.79,0,0,1-1.14-.06.22.22,0,0,1-.13-.1"/><path class="cls-50" d="M75.64,97.8a.62.62,0,0,0-.46-.09s-.09,0-.09.07,0,0,0,0a.54.54,0,0,0,.3.15,3.6,3.6,0,0,0,.92.14.11.11,0,0,0,0-.11l-.1-.07a1.84,1.84,0,0,0-.51-.14"/><path class="cls-50" d="M72.82,99.64l-.26-.2a.19.19,0,0,0-.1,0,.09.09,0,0,0-.08,0,.09.09,0,0,0,0,.06.92.92,0,0,0,.38.35s.12.05.16,0a.18.18,0,0,0-.11-.22"/><path class="cls-4" d="M75.17,101a.4.4,0,0,0-.08.3,12.5,12.5,0,0,0,3.3,0c.76-.18,0-1,0-1l-2.36.5Z"/><path class="cls-52" d="M75.37,100.81a11.68,11.68,0,0,1,2.34-.66c.5,0,.79,0,.57.2a10.12,10.12,0,0,1-2.63.66C75.2,101,75,101.07,75.37,100.81Z"/><ellipse class="cls-53" cx="77.35" cy="100.33" rx="0.38" ry="0.1" transform="translate(-12.41 10.93) rotate(-7.49)"/><path class="cls-4" d="M69.26,100.52a.87.87,0,0,0-.13.62c.09.29,2.39.37,2.56.34s.83-.23,1-.55-.15-.62-.15-.62l-2,0Z"/><g class="cls-54"><path class="cls-55" d="M71.17,100.1s.84.89.41,1.66c0,0,1.52-.12,1.52-.13s-.27-1.29-.27-1.29l-.2-.23L71,99.87l.16.23"/></g><path class="cls-52" d="M70.51,100.05a9.33,9.33,0,0,1,1.95.21c.41.18-.56.53-.92.53s-2.61-.11-2.24-.29A4.25,4.25,0,0,1,70.51,100.05Z"/><path class="cls-4" d="M64.44,99.86a6.31,6.31,0,0,0-.18.89c0,.35,1.38.88,1.75.85a5.73,5.73,0,0,0,2.14-.84c.31-.33-.36-.9-.36-.9l-2.59,0Z"/><g class="cls-56"><path class="cls-3" d="M65.79,99.19s.06,1,.13,1.31.27,1,.06,1.22l.79.19,1.91-.15-.35-2.22Z"/></g><path class="cls-52" d="M64.68,99.76s.87-.16,1.41-.28a4.35,4.35,0,0,1,1.66.36c.41.09-1.46.64-1.83.66S63.82,99.9,64.68,99.76Z"/><path class="cls-3" d="M76.38,98.23a4.39,4.39,0,0,0-.26.57c-.06.21,1,.59,1.63.58a1.07,1.07,0,0,0,.93-.73c0-.06.09-.72-.07-.81L77,98.22Z"/><g class="cls-57"><path class="cls-4" d="M76,97.65l-.18,1.51,2.08.55a1.36,1.36,0,0,0-.2-1.3,5,5,0,0,1-.78-1.06Z"/></g><path class="cls-52" d="M76.51,98.14a3.35,3.35,0,0,0,.8-.56s0-.06.18,0l1.07.24c.16,0,.1.15.06.18a1.83,1.83,0,0,1-.53.66c-.28.14-.34.12-.74.06S76,98.34,76.51,98.14Z"/><ellipse class="cls-53" cx="77.7" cy="97.79" rx="0.1" ry="0.36" transform="translate(-29.72 161.52) rotate(-82.21)"/><ellipse class="cls-53" cx="77.26" cy="97.95" rx="0.07" ry="0.25" transform="translate(-30.26 161.23) rotate(-82.21)"/><path class="cls-4" d="M71.64,98.87s-.18.47,0,.68,1.53.15,1.85.17a2.6,2.6,0,0,0,1.4-.21c.36-.26.1-.78.1-.78L72,98.82Z"/><g class="cls-58"><path class="cls-3" d="M74.34,98.31s.81.85.21,1.63l.69-.32V98.41L75,98.17Z"/></g><path class="cls-52" d="M72.86,98.52a8.68,8.68,0,0,1,2,.17c.23.18-.38.31-1.37.31s-2.33,0-1.78-.2A4.34,4.34,0,0,1,72.86,98.52Z"/><path class="cls-4" d="M67.35,98.11a2.41,2.41,0,0,0-.09.56c0,.21,1,.25,1.57.27a4.24,4.24,0,0,0,1.49-.17c.17-.12-.11-.63-.11-.63S69.32,98,68.32,98,67.35,98.11,67.35,98.11Z"/><path class="cls-52" d="M68.1,97.78a4.66,4.66,0,0,0-.75.33,11.59,11.59,0,0,0,2.86,0,1.38,1.38,0,0,0-.68-.32A11.93,11.93,0,0,0,68.1,97.78Z"/><ellipse class="cls-53" cx="68.4" cy="97.91" rx="0.19" ry="0.05"/><ellipse class="cls-53" cx="69.37" cy="98.02" rx="0.09" ry="0.38" transform="translate(-30.53 164.66) rotate(-88.42)"/><path class="cls-4" d="M63.28,98.48a1.35,1.35,0,0,0-.07.6c.07.21.71.31,1.11.32a2.84,2.84,0,0,0,1.26-.23c.2-.15-.15-.71-.15-.71Z"/><path class="cls-52" d="M64.31,98.16a2.43,2.43,0,0,1,1.06.23c.4.23-1.11.36-1.41.32s-1-.09-.5-.35A1.47,1.47,0,0,1,64.31,98.16Z"/><path class="cls-49" d="M64,100.43s.23-.15.65.31.84.24,1.33.29.52.24,1,0,.32-.35.77-.5.47-.35.68-.23.43.62.33.7l-.42.36-1.54.43a8.27,8.27,0,0,1-.85,0c-.34,0-1.89-.27-1.89-.27a.4.4,0,0,1-.06-.3A6.85,6.85,0,0,0,64,100.43Z"/><path class="cls-49" d="M68.79,101a1.5,1.5,0,0,1,.95.14,2.29,2.29,0,0,0,1.49.2,4.73,4.73,0,0,1,.91-.16.53.53,0,0,0,.45-.26c.1-.16,0-.26.2-.3s.39.21.39.21l-.21.52s-1,.3-1.12.31-.62.05-.81.05-1.55,0-1.71,0-.35,0-.45-.06-.3-.21-.3-.25A4.34,4.34,0,0,1,68.79,101Z"/><path class="cls-49" d="M74.73,101.27a1.6,1.6,0,0,1,.89,0,1.69,1.69,0,0,0,1.14,0,4.13,4.13,0,0,1,1-.2c.48,0,.77,0,.81,0a1.56,1.56,0,0,1,.28-.23s.36.28.36.28-.19.38-.48.45-3.07.17-3.07.17l-.64,0C74.89,101.63,74.73,101.27,74.73,101.27Z"/><path class="cls-49" d="M63.07,98.87a2.21,2.21,0,0,1,.55.18,1.22,1.22,0,0,0,1,0c.4-.11.46,0,.75,0s.14-.24.56-.18.79-.19,1.3-.3a2.09,2.09,0,0,1,1.15.14,1.07,1.07,0,0,0,.81,0,2.49,2.49,0,0,1,1.06-.11.28.28,0,0,0,.25,0c.1,0,.73.22.68.42s.28.4.28.4,0-.17.81,0a3,3,0,0,0,1.67.07,3,3,0,0,1,.84-.14c.07,0,.12-.26.36-.22a4.52,4.52,0,0,1,.57.16l.08-.55a1.46,1.46,0,0,1,.93.27,1.09,1.09,0,0,0,1.1.11c.16-.07.09-.18.38-.15s.28-.08.4-.3.11-.35.25-.28.14.46.13.49a5.62,5.62,0,0,1-.35.69,1.82,1.82,0,0,1-.85.29l-.86.16-2,.23-1.9,0c-.28,0-.81,0-1.31-.1l-1.19-.14-1-.13-2.52-.31-1.26,0-1.86.18L63,99.39s-.42-.28-.42-.28Z"/><ellipse class="cls-59" cx="74.52" cy="100.4" rx="0.25" ry="0.04"/><ellipse class="cls-59" cx="75.75" cy="98.97" rx="0.25" ry="0.04"/><ellipse class="cls-59" cx="68.74" cy="99.35" rx="0.59" ry="0.07"/><ellipse class="cls-59" cx="80" cy="99.79" rx="0.59" ry="0.07"/><ellipse class="cls-59" cx="62.86" cy="99.85" rx="0.59" ry="0.07"/><path class="cls-60" d="M63.49,100.3a.19.19,0,0,0-.09,0s-.08,0-.09,0,0,0,0,0l.08,0h-.11s-.07,0-.08,0,0,0,.07.05h.14s-.09,0-.07.08l.07,0a.2.2,0,0,0,.17,0s0,0,0,0h.09a.13.13,0,0,0,.09,0s0,0,0,0l.18,0,.08,0s0,0,0-.06a.32.32,0,0,0-.14,0,.11.11,0,0,0,.09,0s0,0,0-.06a.17.17,0,0,0-.12,0l-.09,0s0,0,0-.06-.11,0-.11,0,0-.05-.08,0-.07,0-.05,0"/><path class="cls-60" d="M67.94,100.84a.44.44,0,0,0-.17-.07c-.07,0-.15,0-.17,0s0,.05.05.07a.4.4,0,0,0,.15,0,1.33,1.33,0,0,0-.2,0c-.07,0-.14,0-.15.07s.06.08.14.1a1,1,0,0,0,.25,0c-.08,0-.17.09-.12.14s.07,0,.13,0a.39.39,0,0,0,.31-.1s0,.06.07.08a.53.53,0,0,0,.35,0s0-.07,0-.09a.76.76,0,0,0,.34,0,.47.47,0,0,0,.14,0S69,101,69,101a.82.82,0,0,0-.27,0,.28.28,0,0,0,.18-.09s0-.1-.07-.12a.3.3,0,0,0-.21,0l-.18.06c.07,0,0-.11-.06-.12s-.19,0-.2.07-.06-.09-.14-.08-.13.06-.1.1"/><path class="cls-60" d="M66.68,98.6l-.09,0s-.08,0-.09,0,0,0,0,0l.07,0a.34.34,0,0,0-.1,0s-.08,0-.08,0,0,0,.07,0a.57.57,0,0,0,.13,0s-.08,0-.06.07l.07,0a.19.19,0,0,0,.17,0s0,0,0,0h.1l.09,0s0,0,0,0a.36.36,0,0,0,.18,0,.11.11,0,0,0,.08,0s0,0,0-.06h-.14a.15.15,0,0,0,.09,0s0,0,0-.06a.2.2,0,0,0-.11,0,.32.32,0,0,0-.09,0s0-.06,0-.07a.16.16,0,0,0-.11,0s0,0-.07,0-.07,0,0,0"/><path class="cls-60" d="M71.29,98.27a.19.19,0,0,0-.09,0s-.08,0-.09,0,0,0,0,0l.08,0a.4.4,0,0,0-.11,0s-.07,0-.08,0,0,0,.07,0a.66.66,0,0,0,.14,0s-.09,0-.07.07l.07,0c.07,0,.15,0,.17,0s0,0,0,0h.09l.09,0s0,0,0,0a.4.4,0,0,0,.19,0s.06,0,.07,0,0,0,0-.06a.38.38,0,0,0-.15,0,.15.15,0,0,0,.09,0s0,0,0-.06a.21.21,0,0,0-.11,0,.29.29,0,0,0-.1,0s0-.06,0-.07-.11,0-.11,0,0,0-.07,0-.08,0-.06.05"/><path class="cls-60" d="M76.89,99.5l-.14,0c-.06,0-.13,0-.15,0s0,0,.05,0h.12a1,1,0,0,0-.17,0l-.12,0s0,0,.11,0h.21c-.07,0-.14,0-.1,0l.11,0a.74.74,0,0,0,.26,0s0,0,.05,0h.15l.14,0s0,0,0,0l.29,0,.11,0s0,0-.07,0h-.23a.26.26,0,0,0,.15,0s0,0-.06,0h-.17l-.15,0c.06,0,0,0,0,0s-.17,0-.17,0,0,0-.12,0-.11,0-.08,0"/><path class="cls-60" d="M74.29,101.05a.32.32,0,0,0-.09,0s-.09,0-.1,0a.05.05,0,0,0,0,0h0s-.07,0-.07,0,0,0,.07,0a.29.29,0,0,0,.13,0s-.09,0-.06.07,0,0,.07,0a.26.26,0,0,0,.17,0s0,0,0,0h.1l.09,0s0,0,0,0a.52.52,0,0,0,.18,0l.08,0s0-.06,0-.07a.75.75,0,0,0-.15,0,.19.19,0,0,0,.1,0s0,0,0-.07a.2.2,0,0,0-.11,0l-.1,0s0,0,0-.06-.1,0-.11,0,0-.05-.07-.05-.07,0,0,.05"/></g><path class="cls-5" d="M62.22,83.39A3.65,3.65,0,0,0,60.44,85c-1.39,2.26-1.52,5.08-2.6,7.5A38.32,38.32,0,0,1,55,97.16a12,12,0,0,0-1.93,5.06,6.18,6.18,0,0,0,1.65,5,4.2,4.2,0,0,0,5,.67c1.55-1,2.05-3,2.24-4.87a28.94,28.94,0,0,0,.15-3.48,21.24,21.24,0,0,1,.06-2.88A30.78,30.78,0,0,1,63,93.4a15.82,15.82,0,0,0-.78-9.82"/><g class="cls-61"><g class="cls-62"><path class="cls-1" d="M58.63,109.39a1.07,1.07,0,0,1-1.38.18,2.22,2.22,0,0,1-.9-1.42,10.93,10.93,0,0,1-.31-2.9,12.53,12.53,0,0,1,1.47-5.75A36.39,36.39,0,0,0,60,94.71c.65-1.8,1-3.7,1.47-5.55a11.35,11.35,0,0,1,2.85-5.45c.1-.09,0-.23-.14-.14-3.13,3-3,7.62-4.48,11.4-.82,2.12-2.32,3.89-3.1,6a12.78,12.78,0,0,0-.66,6.19,3.59,3.59,0,0,0,1,2.46,1.29,1.29,0,0,0,1.77-.12c.08-.09-.06-.24-.14-.14Z"/></g><g class="cls-62"><path class="cls-1" d="M64.26,83.45a9.94,9.94,0,0,0-3.56,3.83c-1,2-1.29,4.18-2.19,6.18-1.69,3.76-4.5,7.51-3.95,11.86a8.79,8.79,0,0,0,2.67,5.21c.09.08.23-.06.14-.14a8.5,8.5,0,0,1-2.57-4.8,11.25,11.25,0,0,1,.94-6c.78-1.93,1.86-3.72,2.75-5.6a21,21,0,0,0,1-2.56c.3-1,.52-2,.87-2.91a9.73,9.73,0,0,1,4-4.89.09.09,0,1,0-.1-.16Z"/></g><g class="cls-62"><path class="cls-1" d="M64.76,85.86c-3,2.68-3.39,6.9-4.6,10.48-1.15,3.41-2.7,7.16-1.28,10.74a5.32,5.32,0,0,0,1.3,2c.22.18.72.19.48-.19a.11.11,0,0,0-.09,0h-.06c-.13,0-.13.2,0,.19-.37,0-.86-.91-1-1.17a6.18,6.18,0,0,1-.59-1.31,8.89,8.89,0,0,1-.4-2.85,19.63,19.63,0,0,1,1.39-6.07c.71-2.06,1.25-4.16,1.9-6.24A11.69,11.69,0,0,1,64.9,86c.09-.08-.05-.22-.14-.14Z"/></g><g class="cls-62"><path class="cls-1" d="M64.65,89.53a21,21,0,0,0-3,19.67c0,.12.23.07.18,0a20.81,20.81,0,0,1,3-19.52c.08-.1-.09-.19-.17-.1Z"/></g><path class="cls-20" d="M60.94,82.69c.08,3.18,2.35,6.07,2.11,9.24a15.6,15.6,0,0,0-.26,2.8c0,.32.23.72.55.67a.69.69,0,0,0,.32-.2,3.73,3.73,0,0,0,.83-1,3.56,3.56,0,0,0,.31-1.37c.09-1.14.16-2.27.21-3.41a15.64,15.64,0,0,0-.89-6.94,2.91,2.91,0,0,0-.75-1.1,1.25,1.25,0,0,0-1.26-.24c-.57.24-.75.93-.87,1.53"/></g><path class="cls-2" d="M62.15,101.11a.93.93,0,0,0-.55.5,1.3,1.3,0,0,0,.29,1.37,2.89,2.89,0,0,0,1.28.71,7,7,0,0,0,3.86,0c.23-.06.49-.17.56-.4a.47.47,0,0,0-.19-.49,1.27,1.27,0,0,0-.5-.23,7.34,7.34,0,0,0-1.61-.22,7.45,7.45,0,0,1-1.06,0,4.34,4.34,0,0,1-1.94-1.07.3.3,0,0,1-.09-.1Z"/><path class="cls-63" d="M66.72,102.73l.1.82a.07.07,0,0,0,0,0l0,0a.44.44,0,0,0,.47-.44c0-.25-.3-.53-.54-.46Z"/><path class="cls-2" d="M62.4,102.36a.78.78,0,0,0-.49.45,1.13,1.13,0,0,0,.25,1.22,2.52,2.52,0,0,0,1.15.64,6.3,6.3,0,0,0,3.47,0,.62.62,0,0,0,.5-.36.45.45,0,0,0-.17-.44,1.08,1.08,0,0,0-.45-.2,6,6,0,0,0-1.45-.2,6.11,6.11,0,0,1-.95-.05,3.85,3.85,0,0,1-1.74-1,.39.39,0,0,1-.08-.09Z"/><path class="cls-63" d="M66.5,103.81l.08.74s0,0,0,0h0a.39.39,0,0,0,.42-.4.46.46,0,0,0-.48-.41Z"/><path class="cls-2" d="M63.08,104.14a.65.65,0,0,0-.3.37.82.82,0,0,0,.31.84,1.78,1.78,0,0,0,.87.33,4.46,4.46,0,0,0,2.45-.32c.14-.06.3-.15.32-.31a.34.34,0,0,0-.17-.29,1,1,0,0,0-.34-.1,4,4,0,0,0-1,0,4.91,4.91,0,0,1-.67.06,2.75,2.75,0,0,1-1.33-.5l-.06,0Z"/><path class="cls-63" d="M66.12,104.75l.14.51s0,0,0,0h0a.28.28,0,0,0,.26-.32c0-.16-.24-.31-.38-.24Z"/><path class="cls-2" d="M62.69,99.6a.87.87,0,0,0-.56.4,1.19,1.19,0,0,0,.12,1.29,2.57,2.57,0,0,0,1.1.79,6.39,6.39,0,0,0,3.56.46c.22,0,.47-.1.55-.31a.48.48,0,0,0-.11-.48,1.43,1.43,0,0,0-.45-.26,6.68,6.68,0,0,0-1.46-.38,6.19,6.19,0,0,1-1-.15,4,4,0,0,1-1.68-1.2.32.32,0,0,1-.07-.1Z"/><path class="cls-63" d="M66.73,101.58v.77a.11.11,0,0,0,0,.05l0,0a.41.41,0,0,0,.48-.36c0-.23-.22-.51-.45-.48Z"/><path class="cls-64" d="M81,85.86H73.72a.16.16,0,0,0-.15.21h0a.15.15,0,0,0,.15.11H81"/><path class="cls-64" d="M68.26,85.92s-.1,1,1.4,1.45a5.09,5.09,0,0,0,2.72,0s1.4-.36,1.4-1.45Z"/><ellipse class="cls-65" cx="71.02" cy="85.92" rx="2.76" ry="0.5"/><path class="cls-2" d="M82.64,86.88A5.46,5.46,0,0,0,80.38,85a3.08,3.08,0,0,0-2.27.14.56.56,0,0,0-.29.23c-.14.29.24.57.55.68a5.55,5.55,0,0,1-2.43.16.53.53,0,0,0-.43.06.36.36,0,0,0-.09.26,2.61,2.61,0,0,0,1,1.87A7.61,7.61,0,0,0,78.49,90a7.47,7.47,0,0,0,1.87.49,5.26,5.26,0,0,0,1.58.1,1.86,1.86,0,0,0,1.34-.79,2.07,2.07,0,0,0,.23-1.23,3.87,3.87,0,0,0-.58-1.74"/><path class="cls-5" d="M82.74,87.07c.13,1.18-2.38,3.45-2.38,3.45a22.77,22.77,0,0,0,2.94,5.69c4.57,6.29,8.33,2,8.64-.19s-2.61-6.41-4-7.9c-1.11-1.2-3.77-4.53-3.77-4.53s-.77.67-.77,3.7Z"/><g class="cls-66"><path class="cls-67" d="M84.32,85a25.38,25.38,0,0,0,2.74,3.69,36.76,36.76,0,0,1,2.49,2.81A6.2,6.2,0,0,1,90.87,95a1,1,0,0,1-.36.94c-.38.24-.88,0-1.21-.32a12.1,12.1,0,0,1-1.74-2.27,22.49,22.49,0,0,0-6.63-6.44"/><path class="cls-67" d="M84.21,86c1,2.7,3.57,4.51,5.2,6.91a1.92,1.92,0,0,1,.44,1.47,5.12,5.12,0,0,1-2.33-2.19,20.44,20.44,0,0,0-6-5.54"/><path class="cls-67" d="M81.35,88.23a28,28,0,0,1,4.48,5.31,25.13,25.13,0,0,0,1.54,2.27,3.29,3.29,0,0,0,2.92,1.49,2.47,2.47,0,0,0,1.52-1,4.48,4.48,0,0,0,.68-1.73"/><path class="cls-67" d="M80.65,88.91a8.61,8.61,0,0,1,2.66,3.35A18.67,18.67,0,0,0,85.52,96a8.7,8.7,0,0,0,3.8,2.43,14.26,14.26,0,0,0,4.5.65.54.54,0,0,0,.33-.07.2.2,0,0,0,0-.3"/><path class="cls-67" d="M80,89.61c2.37,2.33,3.32,5.73,5.13,8.52a16.27,16.27,0,0,0,2.09,2.58A7.43,7.43,0,0,0,89,102.06a7.86,7.86,0,0,0,2.47.75,17.34,17.34,0,0,0,3,.25,4.11,4.11,0,0,0,2.32-.5"/><path class="cls-20" d="M86.57,82.78s-2.27,2.78-2.73,4.82l-.7-.51.56-6.16Z"/></g></svg>