<svg xmlns="http://www.w3.org/2000/svg" viewBox="0 0 317.57 291.85">
  <defs>
    <style>
      .cls-1 {
        fill: #955333;
      }

      .cls-2 {
        fill: #a86240;
      }

      .cls-3 {
        fill: #904e2b;
      }

      .cls-4 {
        fill: #965633;
      }

      .cls-5 {
        fill: #fbbc86;
      }

      .cls-6 {
        fill: #9a5a36;
      }

      .cls-7 {
        fill: #fcbd87;
      }

      .cls-8 {
        fill: #fff;
      }

      .cls-9 {
        fill: #231f20;
      }

      .cls-10 {
        fill: #753313;
      }

      .cls-11 {
        fill: #562810;
      }

      .cls-12 {
        fill: #a87c4f;
      }

      .cls-13 {
        fill: #d0ad80;
      }

      .cls-14 {
        fill: #c3996b;
      }
    </style>
  </defs>
  <title>Monkey-dancing-1</title>
  <g id="character">
    <g>
      <g>
        <path class="cls-1" d="M146.32,168.64a3.87,3.87,0,0,0,6,4.84c1-1,24.24-24.71,63.69-15.48a61.8,61.8,0,0,1,12.55,4.55c15,7.16,52.29,22,74,5.15,16.07-12.47,17.6-31,12.22-43-5.17-11.51-15.82-17.27-27.79-15-9.11,1.7-16,7.82-18.46,16.35-2.31,8-.27,16.43,5.19,21.46,3.15,2.91,10.2,7.12,22,2.66A3.87,3.87,0,1,0,293,142.9c-6,2.25-10.81,1.86-14-1.11s-4.48-8.49-3-13.63c1.65-5.74,6.19-9.71,12.45-10.88,8.41-1.58,15.62,2.38,19.31,10.59,4.18,9.3,2.86,23.81-9.91,33.72-18.81,14.6-55.21-.92-65.92-6a69.72,69.72,0,0,0-14.11-5.09c-44-10.28-70,16.54-71.07,17.69A2.93,2.93,0,0,0,146.32,168.64Z"/>
        <g>
          <path class="cls-2" d="M27.08,155.07c-2.63,2.49-5.62.22-5.81-2.79-.17-2.59,1.53-5.28,3-7.24a14.33,14.33,0,0,1,9.75-5.61,14.54,14.54,0,0,1,15,10.52,22.71,22.71,0,0,1,.49,6.53,14.06,14.06,0,0,1-1,5.46,5.7,5.7,0,0,1-4.15,3.41,3.64,3.64,0,0,1-4.11-2.89c-.1,2-2.72,3-4.47,2.15a5.05,5.05,0,0,1-2.3-5,4,4,0,0,1-6.4-4.5Z"/>
          <path class="cls-3" d="M99.74,104.85c-.19.59-9,1.78-9.82,2a115.37,115.37,0,0,0-22.31,8,82.36,82.36,0,0,0-16.72,10.54,62.73,62.73,0,0,0-7.48,7.28c-1,1.19-1.87,2.86-3,3.92-1.6,1.54-4.29,2.23-6.24,3.23-2.2,1.12-4.35,2.65-5.32,4.92A24.64,24.64,0,0,1,34,142.56a19,19,0,0,0-.79,5.08,9.88,9.88,0,0,1,4.56-2.27,26.65,26.65,0,0,0,1.63,7.25l2.88-5.25,2.44,8A24.14,24.14,0,0,0,46,148.91l3.84,5.58L49.69,147c0-2.63.31-3.91,2.1-5.69,1.34-1.33,2.62-2.7,4-4a78.6,78.6,0,0,1,10.51-8.39c8.22-5.42,18.1-9.21,28.07-7.45Z"/>
        </g>
        <g>
          <path class="cls-2" d="M232,76.89c2.62-2.49,5.61-.23,5.81,2.79.16,2.58-1.54,5.27-3,7.24a14.33,14.33,0,0,1-9.75,5.6,14.53,14.53,0,0,1-15-10.52,22.68,22.68,0,0,1-.49-6.53,14.07,14.07,0,0,1,1-5.46,5.72,5.72,0,0,1,4.15-3.41,3.64,3.64,0,0,1,4.1,2.89c.11-2,2.73-3,4.47-2.15a5,5,0,0,1,2.31,5,4,4,0,0,1,6.4,4.51Z"/>
          <path class="cls-3" d="M159.37,127.11c.19-.6,9-1.79,9.82-2a115.7,115.7,0,0,0,22.32-8,82.29,82.29,0,0,0,16.71-10.54,61.26,61.26,0,0,0,7.48-7.28c1-1.19,1.88-2.86,3-3.91,1.6-1.54,4.29-2.24,6.25-3.23,2.19-1.13,4.34-2.66,5.31-4.93a24.64,24.64,0,0,1-5.15,2.13,18.56,18.56,0,0,0,.79-5.07,10,10,0,0,1-4.55,2.27,27,27,0,0,0-1.64-7.26l-2.88,5.25-2.44-8a23.75,23.75,0,0,0-1.25,6.52l-3.84-5.58.14,7.51c.05,2.62-.31,3.9-2.1,5.69-1.33,1.33-2.62,2.69-4,4a78.76,78.76,0,0,1-10.51,8.39c-8.22,5.42-18.1,9.2-28.06,7.44Z"/>
        </g>
        <g>
          <circle class="cls-4" cx="60.51" cy="95.75" r="12.47"/>
          <circle class="cls-5" cx="63.94" cy="93.58" r="8.02"/>
        </g>
        <g>
          <path class="cls-2" d="M34.28,211.62s12.85,14.55,6.29,22.64-17.66-2.9-24-7.29S-2.28,214.33.36,210.54s7.88.79,7.88.79S3.31,207,6,203.71,12.23,205,12.23,205s-2.85-2.68-.88-5.52,5,1.59,5,1.59-3.38-3.9-.75-5.67C19.62,192.65,34.28,211.62,34.28,211.62Z"/>
          <path class="cls-1" d="M110.63,178.47c-.06-.27-4.1-.2-4.37-.21a82.7,82.7,0,0,0-11.87.83,100,100,0,0,0-37.75,13.54,108.07,108.07,0,0,0-11.46,8c-3.26,2.59-6.94,8-11.58,6.45-1.91-.66-3.7-1.87-5.73-1.93,1.59,1.56,1.67,2.21,2.65,4.21-2.35-.71-4.29-.26-7.28.4,2,1.15,2.73,3.42,4.78,4.12-2.12,1.79-4.28,2.87-6,5.08a23.31,23.31,0,0,1,6,0,47.59,47.59,0,0,0-4.26,5.71,23.54,23.54,0,0,0,10.21-1,56.69,56.69,0,0,1,1.86,8.65,44.91,44.91,0,0,0,4-4.7,6.92,6.92,0,0,1,1.93,4.67c0-2,1.11-4.55,1.71-6.41a29.61,29.61,0,0,1,2.73-6.24c1.79-2.95,4.54-5.2,7.1-7.48a87.91,87.91,0,0,1,16.12-11.42,70.64,70.64,0,0,1,44-8.24Z"/>
        </g>
        <g>
          <path class="cls-2" d="M181.37,263.44s-19.32-1.78-22,8.3,12.77,12.53,20.05,15,21.33,7.76,22.84,3.39-5.3-5.89-5.3-5.89,6.44,1.4,7.45-2.72-4.66-4.26-4.66-4.26,3.84.72,5-2.55-4.22-3.09-4.22-3.09,5.13.42,5-2.75C205.34,264.06,181.37,263.44,181.37,263.44Z"/>
          <path class="cls-1" d="M163,182.25c.25-.12,2.58,3.18,2.74,3.4a81.59,81.59,0,0,1,6.35,10.07,100,100,0,0,1,11.37,38.46,108.43,108.43,0,0,1,.33,14c-.17,4.16-2.39,10.35,1.63,13.15,1.66,1.16,3.69,1.89,4.94,3.49-2.2-.37-2.77,0-5,.35,2,1.47,2.75,3.31,4,6.1-2.08-.89-4.37-.17-6.14-1.42-.2,2.77.2,5.15-.58,7.81a23.63,23.63,0,0,0-3.51-4.81,47.44,47.44,0,0,1-2.1,6.81,23.75,23.75,0,0,1-5.25-8.81,56.6,56.6,0,0,0-8.07,3.61,44,44,0,0,1,1.43-6,6.9,6.9,0,0,0-4.91,1.2c1.6-1.14,3-3.59,4.16-5.17a28.63,28.63,0,0,0,3.42-5.89c1.33-3.19,1.52-6.73,1.85-10.14a88.23,88.23,0,0,0-.3-19.76,70.77,70.77,0,0,0-19.32-40.35Z"/>
        </g>
        <ellipse class="cls-6" cx="130.75" cy="141.83" rx="47.78" ry="54.44"/>
        <ellipse class="cls-7" cx="130.75" cy="148.78" rx="33.54" ry="38.22"/>
        <g>
          <circle class="cls-4" cx="175.1" cy="53.34" r="12.47"/>
          <circle class="cls-5" cx="171.04" cy="53.5" r="8.02"/>
        </g>
        <ellipse class="cls-6" cx="110.77" cy="54.81" rx="58.67" ry="54.4" transform="translate(-11.3 35.48) rotate(-17.33)"/>
        <path class="cls-5" d="M155.93,39.09a26,26,0,0,0-50.06,1.34A26,26,0,1,0,80.24,84.6a17.71,17.71,0,0,0,.7,6.39c4.29,13.72,24.86,19.51,46,12.93s34.74-23,30.46-36.78a17.9,17.9,0,0,0-4-6.84A26,26,0,0,0,155.93,39.09Z"/>
        <g>
          <circle class="cls-8" cx="93.35" cy="78.48" r="11.63"/>
          <circle class="cls-9" cx="93.35" cy="78.48" r="7.83"/>
          <circle class="cls-8" cx="95.06" cy="73.48" r="2.85"/>
        </g>
        <g>
          <circle class="cls-8" cx="139.37" cy="64.12" r="11.63"/>
          <circle class="cls-9" cx="139.37" cy="64.12" r="7.83"/>
          <circle class="cls-8" cx="141.08" cy="59.12" r="2.85"/>
        </g>
        <path class="cls-10" d="M118.74,83.53a.82.82,0,0,0,.3-1.4c-1.51-1.35-4.35-3.47-6.36-2.42-2.84,1.49-2.65,5.94-.92,5.7C113,85.24,116.73,84.14,118.74,83.53Z"/>
        <path class="cls-10" d="M123,82.18a.82.82,0,0,1-1-1c.47-2,1.61-5.32,3.85-5.6,3.19-.39,5.57,3.38,4,4.16C128.74,80.33,125.05,81.54,123,82.18Z"/>
        <circle class="cls-11" cx="129.82" cy="90.7" r="4.25"/>
      </g>
      <g>
        <path class="cls-12" d="M85.2,164.8s-30,33.56-30.28,51.21c.26,6.29,1.81-10,37.78-50.16Z"/>
        <path class="cls-12" d="M101.11,165.57s-6.52,50-2.45,71.58c0,0,9.89-59.26,13.19-70.51Z"/>
        <path class="cls-12" d="M94.26,165.85s-25.11,51.38-24.07,63.27c0,0-2.59-30.94,17.34-64.32Z"/>
        <path class="cls-13" d="M91.12,164.59s-24,44-26.37,61.47c0,0-8.53-21.93,22-62.7Z"/>
        <path class="cls-12" d="M111.34,167.11s-5.72,51.1-1.56,73.19c0,0,8.87-60.56,11.92-72Z"/>
        <path class="cls-12" d="M112.14,168.34s.26,51.25,7,73c0,0,1.78-60.84,3.48-72.45Z"/>
        <path class="cls-12" d="M101.76,167.94s-.06.17-.16.5c-1.86,5.61-18.69,57-17.95,68.37,0,0,.77-40.9,8.28-69.74"/>
        <path class="cls-14" d="M88.15,163.75S73,212.91,73,234.71c0,0,20-58.08,25.11-69Z"/>
        <path class="cls-13" d="M96.2,165s-6.53,50-2.46,71.59c0,0,9.9-59.27,13.19-70.52Z"/>
        <path class="cls-14" d="M105.13,166.93s-5.72,51.11-1.56,73.2c0,0,8.87-60.56,11.91-72Z"/>
        <path class="cls-14" d="M170.63,163.22s32.82,41.33,38.81,58.39c0,0,3.91-22.53-34.7-60Z"/>
        <path class="cls-12" d="M166.23,164.36s32.82,41.32,38.81,58.38c0,0,3.91-22.52-34.7-60Z"/>
        <path class="cls-12" d="M161.55,165.28s16.79,48.91,17.22,70.66c0,0-22-57.76-27.63-68.59Z"/>
        <path class="cls-12" d="M160.78,166.76l.27.47c3,5.38,30.26,54.65,31.89,66,0,0-9.21-40.43-22.6-68.27"/>
        <path class="cls-13" d="M173.39,161.32s25.12,47.25,29.63,68.84c0,0-31.77-55.62-39.11-65.94Z"/>
        <path class="cls-14" d="M165.69,163.36s16.79,48.9,17.22,70.66c0,0-22-57.76-27.63-68.59Z"/>
        <path class="cls-12" d="M148.58,166.2s11.71,46.17-.44,73.26c0,0-9.92-56-7.83-72.8Z"/>
        <path class="cls-12" d="M134.35,165.68s11.71,46.17-.44,73.25c0,0-9.93-56-7.83-72.79Z"/>
        <path class="cls-13" d="M122.18,165.85s11.71,46.17-.44,73.26c0,0-9.92-56-7.83-72.8Z"/>
        <path class="cls-12" d="M156,164.81s10.33,50.77,8.18,73c0,0-14.33-60.08-18.42-71.42Z"/>
        <path class="cls-13" d="M157.24,166.07s16.22,50.07,16.65,72.34c0,0-21.28-59.14-26.67-70.22Z"/>
        <path class="cls-14" d="M150.58,168.13s10.34,50.77,8.18,73c0,0-14.33-60.08-18.41-71.42Z"/>
        <path class="cls-14" d="M122.76,167.74s-8.2,46.52,6,73.15c0,0,5.67-56.26,2.3-73Z"/>
        <path class="cls-13" d="M141,167.7s12.49,46.12-1.66,73.32c0,0-10.32-56-7.69-72.8Z"/>
        <path class="cls-14" d="M86.88,156.58s.19,1,1.94,1.45,11.07,4.19,50.86,3.67c0,0,25.23-.4,35.32-3.81,0,0,.78-.52,1.75,1.18a51.42,51.42,0,0,1,2.91,5.51c-.39,1-.19,1.11-1.75,1.31,0,0-14.84,4-42.89,3.71s-47-2.92-50.08-3.84c-1.55-.46-1-3.74-.68-4.33S85.81,156.39,86.88,156.58Z"/>
      </g>
    </g>
  </g>
</svg>
