<svg xmlns="http://www.w3.org/2000/svg" viewBox="0 0 464.42 480.87">
  <defs>
    <style>
      .cls-1 {
        fill: #955333;
      }

      .cls-2 {
        fill: #a86240;
      }

      .cls-3 {
        fill: #904e2b;
      }

      .cls-4 {
        fill: #9a5a36;
      }

      .cls-5 {
        fill: #fcbd87;
      }

      .cls-6 {
        fill: #965633;
      }

      .cls-7 {
        fill: #fbbc86;
      }

      .cls-8 {
        fill: #fff;
      }

      .cls-9 {
        fill: #231f20;
      }

      .cls-10 {
        fill: #753313;
      }

      .cls-11 {
        fill: #562810;
      }
    </style>
  </defs>
  <title>Monkey-waving-1</title>
  <g id="character">
    <g>
      <path class="cls-1" d="M192.05,281.71a6.26,6.26,0,0,0,10.32,7c1.5-1.84,35.84-43,100.68-33.34a100.23,100.23,0,0,1,20.84,5.68c25.16,9.57,87.22,28.6,120-1.42,24.28-22.23,24.31-52.37,14.05-71-9.85-17.88-27.78-25.77-46.78-20.58-14.47,3.94-24.8,14.71-27.63,28.79-2.66,13.22,1.74,26.54,11.21,33.94,5.46,4.26,17.37,10.12,35.84,1.38a6.26,6.26,0,0,0-5.37-11.32c-9.31,4.41-17.18,4.44-22.76.07s-8.35-13.12-6.65-21.59c1.91-9.48,8.71-16.48,18.65-19.19C427.79,176.54,440,182,447,194.72c8,14.44,7.74,38-11.54,55.69-28.42,26-89.16,5.77-107.1-1A111.83,111.83,0,0,0,304.9,243c-72.23-10.8-110.68,35.88-112.28,37.87A6.54,6.54,0,0,0,192.05,281.71Z"/>
      <g>
        <path class="cls-2" d="M9.42,118.12c-4.25-4-9.09-.36-9.4,4.52-.27,4.18,2.48,8.53,4.93,11.71a23.14,23.14,0,0,0,15.77,9.07c10.7,1,21.6-6.6,24.25-17a36.58,36.58,0,0,0,.8-10.55A22.92,22.92,0,0,0,44.09,107c-1.27-2.74-3.72-5.1-6.72-5.5s-6.32,1.67-6.63,4.67c-.18-3.17-4.41-4.94-7.24-3.48s-4.05,5-3.73,8.15a6.62,6.62,0,0,0-8.23-.69A6.63,6.63,0,0,0,9.42,118.12Z"/>
        <path class="cls-3" d="M127,199.38c-.31-1-14.6-2.89-15.89-3.21A187.41,187.41,0,0,1,75,183.27a133.21,133.21,0,0,1-27-17.05,99.76,99.76,0,0,1-12.1-11.78c-1.66-1.93-3-4.62-4.82-6.34-2.59-2.49-7-3.61-10.11-5.22-3.55-1.82-7-4.3-8.6-8a39.11,39.11,0,0,0,8.33,3.44,30.42,30.42,0,0,1-1.27-8.2,16.17,16.17,0,0,0,7.36,3.67,43.39,43.39,0,0,1,2.65-11.74l4.66,8.5,4-13a38.66,38.66,0,0,1,2,10.54l6.22-9L46,131.21c-.08,4.25.5,6.32,3.4,9.21,2.16,2.15,4.24,4.36,6.46,6.45a127.74,127.74,0,0,0,17,13.58c13.3,8.77,29.29,14.89,45.41,12.05Z"/>
      </g>
      <g>
        <path class="cls-2" d="M328.79,119.69c4.25-4,9.09-.37,9.4,4.51.27,4.19-2.48,8.54-4.93,11.72A23.18,23.18,0,0,1,317.49,145c-10.7,1-21.6-6.61-24.25-17a37,37,0,0,1-.8-10.56,22.9,22.9,0,0,1,1.68-8.84c1.27-2.74,3.72-5.1,6.72-5.51s6.33,1.67,6.63,4.68c.18-3.17,4.41-4.94,7.24-3.49s4.05,5,3.73,8.16a6.43,6.43,0,0,1,10.35,7.29Z"/>
        <path class="cls-3" d="M211.22,201c.31-1,14.6-2.89,15.89-3.21a188.08,188.08,0,0,0,36.11-12.9,133.81,133.81,0,0,0,27-17.05A99.84,99.84,0,0,0,302.36,156c1.66-1.92,3-4.62,4.82-6.33,2.59-2.49,6.95-3.61,10.11-5.23,3.55-1.81,7-4.3,8.6-8a39.63,39.63,0,0,1-8.33,3.44,30,30,0,0,0,1.27-8.21,16,16,0,0,1-7.36,3.67,43.32,43.32,0,0,0-2.65-11.73l-4.66,8.49-4-13a38.59,38.59,0,0,0-2,10.53l-6.22-9,.24,12.15c.08,4.25-.5,6.31-3.4,9.2-2.16,2.16-4.24,4.37-6.46,6.46a126.87,126.87,0,0,1-17,13.57c-13.3,8.78-29.29,14.9-45.41,12.05Z"/>
      </g>
      <g>
        <path class="cls-2" d="M76.38,421.86s31.4.57,33.89,17.24S87.52,457,75.37,459.75s-35.69,8.7-37.33,1.41,9.55-8.54,9.55-8.54S37,453.74,36.1,446.92s8.25-6,8.25-6-6.32.48-7.55-5,7.34-4.22,7.34-4.22-8.34-.23-7.58-5.3C37.72,418.63,76.38,421.86,76.38,421.86Z"/>
        <path class="cls-1" d="M120.25,294.53c-.37-.23-4.71,4.67-5,5a133.78,133.78,0,0,0-12,15.06,162,162,0,0,0-25.09,59.85,174.15,174.15,0,0,0-3,22.4c-.47,6.72,2,17.06-5,20.86-2.88,1.57-6.28,2.38-8.57,4.73,3.6-.2,4.47.42,7.93,1.44-3.42,2-5,4.84-7.49,9.12,3.51-1.08,7.07.49,10.13-1.2C72,436.27,71,440,71.76,444.44a38.19,38.19,0,0,1,6.5-7.12,76.25,76.25,0,0,0,2.16,11.33,38.25,38.25,0,0,0,10-13.24,93.68,93.68,0,0,1,12.36,7.23,73.4,73.4,0,0,0-1.25-9.9,11.21,11.21,0,0,1,7.69,2.8c-2.37-2.11-4.23-6.31-5.79-9.05A47.72,47.72,0,0,1,99,416.41c-1.57-5.36-1.26-11.1-1.17-16.64a142.45,142.45,0,0,1,4-31.72A114.4,114.4,0,0,1,140,306.57Z"/>
      </g>
      <g>
        <path class="cls-2" d="M249.05,434.9s-31.28-2.87-35.57,13.43,20.66,20.28,32.43,24.34,34.52,12.55,37,5.49-8.57-9.54-8.57-9.54,10.41,2.28,12.05-4.4-7.54-6.9-7.54-6.9,6.22,1.18,8.05-4.12-6.84-5-6.84-5,8.31.68,8.12-4.45C287.83,435.91,249.05,434.9,249.05,434.9Z"/>
        <path class="cls-1" d="M219.37,303.54c.4-.19,4.18,5.15,4.44,5.5a132.2,132.2,0,0,1,10.26,16.28,161.91,161.91,0,0,1,18.4,62.24,175.61,175.61,0,0,1,.54,22.59c-.27,6.73-3.87,16.74,2.63,21.27,2.7,1.88,6,3.06,8,5.64-3.56-.59-4.48-.06-8,.57,3.17,2.39,4.44,5.36,6.44,9.88-3.37-1.45-7.08-.28-9.94-2.3-.32,4.48.33,8.33-.93,12.64a38.16,38.16,0,0,0-5.69-7.79,75.57,75.57,0,0,1-3.39,11,38.37,38.37,0,0,1-8.49-14.26,94.31,94.31,0,0,0-13.07,5.83,73.05,73.05,0,0,1,2.32-9.69,11.17,11.17,0,0,0-8,1.93c2.59-1.83,4.89-5.8,6.75-8.36a47.72,47.72,0,0,0,5.53-9.53c2.14-5.16,2.46-10.89,3-16.41a142.91,142.91,0,0,0-.48-32,114.4,114.4,0,0,0-31.27-65.3Z"/>
      </g>
      <ellipse class="cls-4" cx="167.14" cy="238.14" rx="77.31" ry="88.08"/>
      <ellipse class="cls-5" cx="167.14" cy="249.38" rx="54.27" ry="61.84"/>
      <g>
        <g>
          <circle class="cls-6" cx="72.46" cy="124.16" r="20.18" transform="translate(-11.5 7.47) rotate(-5.47)"/>
          <circle class="cls-7" cx="78.86" cy="122.64" r="12.97"/>
        </g>
        <g>
          <circle class="cls-6" cx="270.11" cy="119.71" r="20.18" transform="translate(-10.18 26.28) rotate(-5.47)"/>
          <circle class="cls-7" cx="263.82" cy="117.82" r="12.97"/>
        </g>
        <ellipse class="cls-4" cx="170.93" cy="88.03" rx="88.02" ry="94.94" transform="translate(77.89 256.28) rotate(-88.31)"/>
        <path class="cls-7" d="M248.3,87.81A42.09,42.09,0,0,0,171,63.46a42.09,42.09,0,1,0-62.51,54.05,28.47,28.47,0,0,0-2.29,10.13c-.69,23.25,27.74,43,63.49,44s65.28-16.94,66-40.19a28.79,28.79,0,0,0-2.53-12.59A42,42,0,0,0,248.3,87.81Z"/>
        <g>
          <circle class="cls-8" cx="131.81" cy="115.05" r="18.82" transform="translate(-10.36 13.08) rotate(-5.47)"/>
          <circle class="cls-9" cx="131.81" cy="115.05" r="12.67"/>
          <circle class="cls-8" cx="137.06" cy="108.3" r="4.61"/>
        </g>
        <g>
          <circle class="cls-8" cx="209.77" cy="117.35" r="18.82" transform="translate(-10.23 20.52) rotate(-5.47)"/>
          <circle class="cls-9" cx="209.77" cy="117.35" r="12.67"/>
          <circle class="cls-8" cx="215.02" cy="110.6" r="4.61"/>
        </g>
        <path class="cls-10" d="M168,136.16a1.32,1.32,0,0,0,1.19-2c-1.59-2.86-4.82-7.6-8.44-7.05-5.14.77-7.2,7.69-4.43,8.23C158.29,135.75,164.58,136,168,136.16Z"/>
        <path class="cls-10" d="M175.27,136.38a1.32,1.32,0,0,1-1.07-2c1.76-2.76,5.26-7.3,8.84-6.54,5.08,1.08,6.73,8.1,3.93,8.48C185,136.54,178.67,136.45,175.27,136.38Z"/>
        <circle class="cls-11" cx="181.15" cy="152.98" r="6.87"/>
      </g>
    </g>
  </g>
</svg>
