<svg xmlns="http://www.w3.org/2000/svg" viewBox="0 0 125.11 120.54">
  <defs>
    <style>
      .cls-1 {
        fill: #955333;
      }

      .cls-2 {
        fill: #a86240;
      }

      .cls-3 {
        fill: #904e2b;
      }

      .cls-4 {
        fill: #965633;
      }

      .cls-5 {
        fill: #fbbc86;
      }

      .cls-6 {
        fill: #9a5a36;
      }

      .cls-7 {
        fill: #fcbd87;
      }

      .cls-8 {
        fill: #fff;
      }

      .cls-9 {
        fill: #231f20;
      }

      .cls-10 {
        fill: #753313;
      }

      .cls-11 {
        fill: #562810;
      }
    </style>
  </defs>
  <title>p17</title>
  <g id="character">
    <g>
      <path class="cls-1" d="M58.79,77.78a1.6,1.6,0,0,1,2.87-1.38c.31.52,7.4,12.22,24.13,12.24A25.94,25.94,0,0,0,91.26,88c6.71-1.46,23.08-3.9,30.21,4.91,5.28,6.53,4.14,14.13.85,18.43-3.17,4.14-8,5.45-12.58,3.42a9.54,9.54,0,0,1-5.88-8.32A8.77,8.77,0,0,1,108,98.31c1.54-.87,4.76-1.89,9.09,1a1.59,1.59,0,1,1-1.78,2.64c-2.18-1.46-4.17-1.77-5.74-.88a5.65,5.65,0,0,0-2.5,5.2,6.29,6.29,0,0,0,4,5.54,7,7,0,0,0,8.75-2.43c2.56-3.34,3.4-9.29-.79-14.48-6.18-7.64-22.27-4.84-27.06-3.8a28.84,28.84,0,0,1-6.15.71C67.15,91.81,59.23,78.58,58.9,78A1.63,1.63,0,0,1,58.79,77.78Z"/>
      <g>
        <path class="cls-2" d="M21.47,27c-1.12-1-2.32,0-2.36,1.24a5,5,0,0,0,1.37,2.94,5.87,5.87,0,0,0,4.1,2.16,6,6,0,0,0,6-4.56,9.39,9.39,0,0,0,.1-2.7,6,6,0,0,0-.51-2.24,2.37,2.37,0,0,0-1.76-1.34,1.51,1.51,0,0,0-1.65,1.26,1.28,1.28,0,0,0-1.87-.83A2.1,2.1,0,0,0,24,25,1.64,1.64,0,0,0,21.47,27Z"/>
        <path class="cls-3" d="M52.19,46.6c-.09-.24-3.75-.6-4.08-.67a48.22,48.22,0,0,1-9.33-3,34,34,0,0,1-7-4.09A25.77,25.77,0,0,1,28.54,36c-.44-.47-.82-1.15-1.29-1.57a10.87,10.87,0,0,0-2.62-1.24,4.49,4.49,0,0,1-2.27-2,9.85,9.85,0,0,0,2.16.8,7.74,7.74,0,0,1-.4-2.08,4.12,4.12,0,0,0,1.91.87,11.05,11.05,0,0,1,.57-3l1.26,2.12.89-3.36a9.86,9.86,0,0,1,.61,2.67l1.5-2.36.06,3.1a2.68,2.68,0,0,0,.95,2.32c.57.52,1.12,1.07,1.7,1.58A32.52,32.52,0,0,0,38,37.17c3.48,2.12,7.61,3.53,11.69,2.66Z"/>
      </g>
      <g>
        <path class="cls-2" d="M110.77,53.67c1.43-.41,2.1,1,1.6,2.13a4.91,4.91,0,0,1-2.5,2.07,5.92,5.92,0,0,1-4.63.2,6,6,0,0,1-3.49-6.71,9.06,9.06,0,0,1,1.06-2.48,5.85,5.85,0,0,1,1.42-1.81,2.35,2.35,0,0,1,2.17-.45,1.51,1.51,0,0,1,.95,1.84,1.29,1.29,0,0,1,2.05.06,2.08,2.08,0,0,1-.12,2.28,1.64,1.64,0,0,1,1.49,2.87Z"/>
        <path class="cls-3" d="M74.6,58.23c.19-.18,3.65,1.07,4,1.15a47.19,47.19,0,0,0,9.69,1.32A33.52,33.52,0,0,0,96.39,60a25.83,25.83,0,0,0,4.13-1.24c.6-.24,1.23-.69,1.83-.87a10.44,10.44,0,0,1,2.9,0,4.48,4.48,0,0,0,2.89-.79,10.33,10.33,0,0,1-2.29-.2,8.07,8.07,0,0,0,1.25-1.71,4,4,0,0,1-2.1,0,10.78,10.78,0,0,0,.78-3l-2,1.37.64-3.41a9.54,9.54,0,0,0-1.7,2.15l-.35-2.78L101,52.33A2.66,2.66,0,0,1,99.1,54c-.75.24-1.48.49-2.23.7a32.53,32.53,0,0,1-5.44,1.08c-4,.42-8.38-.08-11.7-2.62Z"/>
      </g>
      <g>
        <circle class="cls-4" cx="44.37" cy="27.94" r="5.15"/>
        <circle class="cls-5" cx="46.04" cy="27.8" r="3.31"/>
      </g>
      <g>
        <path class="cls-2" d="M12.71,65.38s1.94,7.77-2,9.49-5.92-4.42-7.4-7.23S-1.19,59.42.5,58.53s2.73,1.79,2.73,1.79-1-2.53.65-3.21,2,1.64,2,1.64a1.82,1.82,0,0,1,.72-2.19c1.27-.67,1.53,1.53,1.53,1.53S7.66,56,9,55.87C11,55.64,12.71,65.38,12.71,65.38Z"/>
        <path class="cls-1" d="M47,67.77a10,10,0,0,0-1.56-.91,35.13,35.13,0,0,0-4.5-2,41.36,41.36,0,0,0-16.4-2.23,45.89,45.89,0,0,0-5.72.74c-1.69.33-4.07,1.63-5.47.16a8.41,8.41,0,0,0-1.73-1.79,4.53,4.53,0,0,1,.17,2A5.62,5.62,0,0,0,9,62.59c.5.8.35,1.78,1,2.42a13.76,13.76,0,0,0-3.15.73A9.6,9.6,0,0,1,9,66.87a19,19,0,0,0-2.65,1.28,9.8,9.8,0,0,0,3.93,1.59,25.5,25.5,0,0,1-1,3.52,20.11,20.11,0,0,0,2.36-1,2.85,2.85,0,0,1-.18,2.07,9.76,9.76,0,0,1,1.84-2,11.91,11.91,0,0,1,2.19-1.76,14.2,14.2,0,0,1,4-1.39,36.17,36.17,0,0,1,8.08-1.12,29.12,29.12,0,0,1,17.67,5.35Z"/>
      </g>
      <g>
        <path class="cls-2" d="M55.91,108.87s-8-.67-9,3.49,5.3,5.14,8.31,6.15,8.83,3.14,9.44,1.33-2.2-2.41-2.2-2.41,2.66.56,3.06-1.15-1.94-1.75-1.94-1.75,1.6.29,2.05-1.06-1.75-1.26-1.75-1.26,2.12.16,2.06-1.15C65.81,109.06,55.91,108.87,55.91,108.87Z"/>
        <path class="cls-1" d="M65.45,79.12a10.07,10.07,0,0,1,.36,1.77,34.94,34.94,0,0,1,.41,4.89A41.17,41.17,0,0,1,63.06,102a45.09,45.09,0,0,1-2.53,5.18c-.85,1.49-2.85,3.33-1.91,5.12a8.54,8.54,0,0,1,1.15,2.22,4.57,4.57,0,0,0-1.89-.81,5.52,5.52,0,0,1,.3,3c-.59-.73-1.57-.9-2-1.69a14,14,0,0,1-1.7,2.75,9.53,9.53,0,0,0-.37-2.43,19.45,19.45,0,0,1-2.06,2.1,9.91,9.91,0,0,1-.25-4.23,24.54,24.54,0,0,0-3.64-.22,19,19,0,0,1,1.67-1.92,2.87,2.87,0,0,0-2-.49,10,10,0,0,0,2.51-1.1A12.21,12.21,0,0,0,52.7,108a14.72,14.72,0,0,0,2.61-3.36A36.81,36.81,0,0,0,59,97.34a29.23,29.23,0,0,0,.6-18.46Z"/>
      </g>
      <ellipse class="cls-6" cx="61.32" cy="58.18" rx="22.47" ry="19.72" transform="translate(-18.58 85.77) rotate(-62.54)"/>
      <ellipse class="cls-7" cx="60" cy="60.73" rx="15.77" ry="13.84" transform="translate(-21.55 85.97) rotate(-62.54)"/>
      <g>
        <circle class="cls-4" cx="94.4" cy="34.21" r="5.15"/>
        <circle class="cls-5" cx="92.88" cy="33.5" r="3.31"/>
      </g>
      <ellipse class="cls-6" cx="70.56" cy="22.51" rx="22.45" ry="24.21" transform="translate(36 88.01) rotate(-79.87)"/>
      <path class="cls-5" d="M90.09,25.35a10.73,10.73,0,0,0-18.59-9A10.73,10.73,0,1,0,53.71,27.61a7.16,7.16,0,0,0-1,2.47c-1,5.85,5.39,11.88,14.37,13.48s17.1-1.83,18.14-7.67a7.38,7.38,0,0,0-.16-3.27A10.7,10.7,0,0,0,90.09,25.35Z"/>
      <g>
        <circle class="cls-8" cx="59.68" cy="27.86" r="4.8"/>
        <circle class="cls-9" cx="59.68" cy="27.86" r="3.23"/>
        <circle class="cls-8" cx="61.26" cy="26.36" r="1.18"/>
      </g>
      <g>
        <circle class="cls-8" cx="79.26" cy="31.36" r="4.8"/>
        <circle class="cls-9" cx="79.26" cy="31.36" r="3.23"/>
        <circle class="cls-8" cx="80.84" cy="29.86" r="1.18"/>
      </g>
      <path class="cls-10" d="M68.33,34.34A.25.25,0,0,0,68.6,34c-.21-.57-.68-1.55-1.37-1.55-1,0-1.56,1.24-1,1.42C66.53,34,67.7,34.22,68.33,34.34Z"/>
      <path class="cls-10" d="M69.68,34.58a.25.25,0,0,1-.14-.41c.4-.47,1.18-1.22,1.82-1,.92.34,1,1.7.5,1.69A21.39,21.39,0,0,1,69.68,34.58Z"/>
      <circle class="cls-11" cx="70.71" cy="39.28" r="1.75"/>
    </g>
  </g>
</svg>
