<svg id="Layer_2" data-name="Layer 2" xmlns="http://www.w3.org/2000/svg" viewBox="0 0 260 168"><defs><style>.cls-1{fill:#ddd;}.cls-2{fill:#bcbcbc;}.cls-3{fill:#919191;}.cls-4{fill:#f4f4f4;}.cls-5{fill:#d6d6d6;}.cls-6{fill:#fff;}.cls-7{fill:#d88f25;}.cls-8{fill:#bf7d26;}.cls-9{fill:#ce8421;}.cls-10{fill:#e89d43;}.cls-11{fill:none;stroke:#fff;stroke-miterlimit:10;stroke-width:0.23px;}.cls-12{fill:#ffce61;}</style></defs><path class="cls-1" d="M107.71,80.32c-1.1-3.08-4.71-.88-4.71-.88l0,.63s2.91-1.75,3.8.71c0,0,.54,4.18-4.2,4.44l0,.59C108.38,85.49,107.71,80.32,107.71,80.32Z"/><path class="cls-2" d="M99.34,87.41,92.63,88l.1,1.1c0,.5,1.83,1.39,4.11,1.4s4.11-.84,4.12-1.35l.22-.91Z"/><path class="cls-3" d="M99.35,87l-6.72.56.1,1.1c0,.5,1.84,1.39,4.11,1.4S101,89.21,101,88.7l.22-.91Z"/><path class="cls-4" d="M104.61,77.14l-13.86-.52-1.5.42s.61,7.28,2.85,11.12c.31.63,2.3,1.74,4.71,1.76s4.4-1.08,4.72-1.7h0C103.87,84.41,104.61,77.14,104.61,77.14Z"/><ellipse class="cls-5" cx="96.93" cy="77.09" rx="2.06" ry="7.68" transform="translate(19.21 173.51) rotate(-89.62)"/><path class="cls-6" d="M104.61,77.33a1.15,1.15,0,0,1-.59.82,5.45,5.45,0,0,1-.94.46,11.72,11.72,0,0,1-2,.51,25.08,25.08,0,0,1-4.15.34,26.13,26.13,0,0,1-4.14-.39,13.86,13.86,0,0,1-2-.54,5.5,5.5,0,0,1-.94-.47,1.17,1.17,0,0,1-.57-.83,1.12,1.12,0,0,0,.61.78,4.39,4.39,0,0,0,.94.41,11.23,11.23,0,0,0,2,.49A29.41,29.41,0,0,0,101,79a12.37,12.37,0,0,0,2-.47,5.3,5.3,0,0,0,.95-.4A1.12,1.12,0,0,0,104.61,77.33Z"/><ellipse class="cls-7" cx="96.89" cy="77.28" rx="1.76" ry="7.46" transform="translate(18.97 173.66) rotate(-89.62)"/><path class="cls-8" d="M96.9,75.89c3.85,0,7,.73,7.4,1.62a.39.39,0,0,0,0-.18c0-1-3.32-1.79-7.44-1.81s-7.46.74-7.47,1.71a.72.72,0,0,0,0,.19C89.87,76.53,93.05,75.86,96.9,75.89Z"/><path class="cls-9" d="M102.6,77.32c0,.27-.27.44-.49.58a3.73,3.73,0,0,1-.71.31,10,10,0,0,1-1.53.36,20.21,20.21,0,0,1-6.21,0,11.65,11.65,0,0,1-1.52-.38,5,5,0,0,1-.71-.32c-.21-.14-.46-.32-.47-.59,0,.27.29.41.5.53a3.84,3.84,0,0,0,.72.25,11.2,11.2,0,0,0,1.51.3,26.4,26.4,0,0,0,3.08.2,24.1,24.1,0,0,0,3.07-.16,11.28,11.28,0,0,0,1.52-.28,4.34,4.34,0,0,0,.72-.24C102.3,77.73,102.56,77.58,102.6,77.32Z"/><path class="cls-10" d="M92,76.6a12.53,12.53,0,0,1,2.64-.49,11,11,0,0,1,2.69.07c-.9.11-1.78.16-2.66.25S92.87,76.59,92,76.6Z"/><path class="cls-10" d="M94,77a10.17,10.17,0,0,1,3-.43c.5,0,1,0,1.5.07a12.14,12.14,0,0,1,1.47.23A48.71,48.71,0,0,0,94,77Z"/><path class="cls-11" d="M92.05,81.17c-.24-2.53.3-2.68.3-2.68a1.06,1.06,0,0,1,1.08.14"/><rect class="cls-12" x="91.32" y="81.03" width="2.02" height="2.66" transform="translate(-18.15 26.66) rotate(-14.98)"/><rect class="cls-6" x="91.56" y="82.18" width="1.81" height="1.35" transform="translate(-18.27 26.71) rotate(-14.98)"/><path class="cls-7" d="M92.93,78.6a5.37,5.37,0,0,0,.66-.07l.09.15A.81.81,0,0,1,92.93,78.6Z"/></svg>