<svg id="Layer_1" data-name="Layer 1" xmlns="http://www.w3.org/2000/svg" xmlns:xlink="http://www.w3.org/1999/xlink" viewBox="0 0 260 168"><defs><style>.cls-1{fill:none;}.cls-2{fill:#ff1515;}.cls-3{fill:#a46121;}.cls-4{clip-path:url(#clip-path);}.cls-5{fill:#c48b4d;}.cls-6{fill:#dfaa69;}.cls-7{fill:#905a27;}.cls-8{clip-path:url(#clip-path-2);}.cls-9{fill:#7b470f;}.cls-10{clip-path:url(#clip-path-3);}.cls-11{fill:#e00a0a;}.cls-12{fill:#00a01a;}.cls-13{fill:#f99;}.cls-14{clip-path:url(#clip-path-4);}.cls-15{clip-path:url(#clip-path-5);}.cls-16{clip-path:url(#clip-path-6);}.cls-17{clip-path:url(#clip-path-7);}.cls-18{clip-path:url(#clip-path-8);}.cls-19{clip-path:url(#clip-path-9);}.cls-20{clip-path:url(#clip-path-10);}.cls-21{clip-path:url(#clip-path-11);}.cls-22{clip-path:url(#clip-path-12);}.cls-23{clip-path:url(#clip-path-13);}.cls-24{clip-path:url(#clip-path-14);}.cls-25{clip-path:url(#clip-path-15);}.cls-26{clip-path:url(#clip-path-16);}.cls-27{clip-path:url(#clip-path-17);}.cls-28{clip-path:url(#clip-path-18);}.cls-29{clip-path:url(#clip-path-19);}.cls-30{clip-path:url(#clip-path-20);}.cls-31{clip-path:url(#clip-path-21);}.cls-32{clip-path:url(#clip-path-22);}.cls-33{clip-path:url(#clip-path-23);}.cls-34{clip-path:url(#clip-path-24);}.cls-35{clip-path:url(#clip-path-25);}.cls-36{clip-path:url(#clip-path-26);}.cls-37{clip-path:url(#clip-path-27);}.cls-38{clip-path:url(#clip-path-28);}.cls-39{clip-path:url(#clip-path-29);}.cls-40{clip-path:url(#clip-path-30);}.cls-41{clip-path:url(#clip-path-31);}.cls-42{clip-path:url(#clip-path-32);}.cls-43{clip-path:url(#clip-path-33);}.cls-44{clip-path:url(#clip-path-34);}.cls-45{clip-path:url(#clip-path-35);}.cls-46{clip-path:url(#clip-path-36);}.cls-47{clip-path:url(#clip-path-37);}.cls-48{clip-path:url(#clip-path-38);}.cls-49{clip-path:url(#clip-path-39);}</style><clipPath id="clip-path"><path id="SVGID" class="cls-1" d="M85.14,131.38c0,7,8.06,15,33,15,24.34,0,33-7.94,33-15S85.14,124.36,85.14,131.38Z"/></clipPath><clipPath id="clip-path-2"><ellipse id="SVGID-2" data-name="SVGID" class="cls-1" cx="118.23" cy="130.79" rx="29.33" ry="9.43"/></clipPath><clipPath id="clip-path-3"><path class="cls-2" d="M114.36,122.84s-.5-1.07-2-.5-2.91,1.37-4.43,1.88a6.34,6.34,0,0,1-3.51.37c-.78-.22.31.73.95,1a13.89,13.89,0,0,0,7.5-.5C115.27,124.1,114.36,122.84,114.36,122.84Z"/></clipPath><clipPath id="clip-path-4"><path class="cls-2" d="M121,123.26s-.5-1.07-2-.5-2.92,1.37-4.43,1.88A6.34,6.34,0,0,1,111,125c-.78-.23.31.72.95,1a13.89,13.89,0,0,0,7.5-.5C121.88,124.52,121,123.26,121,123.26Z"/></clipPath><clipPath id="clip-path-5"><path class="cls-2" d="M127.79,124s-.3-1.14-1.9-.86-3.11.83-4.69,1.06a6.33,6.33,0,0,1-3.53-.27c-.72-.36.18.77.77,1.12a13.81,13.81,0,0,0,7.46.85C128.46,125.41,127.79,124,127.79,124Z"/></clipPath><clipPath id="clip-path-6"><path class="cls-2" d="M137.65,125.85s-.5-1.07-2-.5-2.92,1.38-4.43,1.88a6.35,6.35,0,0,1-3.51.37c-.78-.22.3.73.95,1a13.86,13.86,0,0,0,7.49-.5C138.56,127.11,137.65,125.85,137.65,125.85Z"/></clipPath><clipPath id="clip-path-7"><path class="cls-2" d="M138.29,131s-.5-1.07-2-.5-2.91,1.37-4.43,1.88a6.34,6.34,0,0,1-3.51.37c-.78-.22.31.73,1,1a13.86,13.86,0,0,0,7.49-.5C139.2,132.26,138.29,131,138.29,131Z"/></clipPath><clipPath id="clip-path-8"><path class="cls-2" d="M132.38,124s-.5-1.07-2-.5-2.92,1.38-4.43,1.88a6.38,6.38,0,0,1-3.52.37c-.78-.22.31.73,1,1a13.75,13.75,0,0,0,7.49-.5C133.3,125.27,132.38,124,132.38,124Z"/></clipPath><clipPath id="clip-path-9"><path class="cls-2" d="M121,128.21s-.5-1.07-2-.5-2.92,1.38-4.43,1.89A6.45,6.45,0,0,1,111,130c-.78-.22.31.73,1,1a13.65,13.65,0,0,0,7.49-.5C121.88,129.47,121,128.21,121,128.21Z"/></clipPath><clipPath id="clip-path-10"><path class="cls-2" d="M130.59,130.93s-.5-1.07-2-.5-2.92,1.38-4.43,1.88a6.38,6.38,0,0,1-3.52.37c-.78-.22.31.73,1,1a13.75,13.75,0,0,0,7.49-.5C131.51,132.19,130.59,130.93,130.59,130.93Z"/></clipPath><clipPath id="clip-path-11"><path class="cls-2" d="M142.19,131.22s-.39-1.11-2-.7-3,1.07-4.6,1.42a6.35,6.35,0,0,1-3.53,0c-.75-.3.23.76.85,1.05a13.75,13.75,0,0,0,7.51.26C143,132.57,142.19,131.22,142.19,131.22Z"/></clipPath><clipPath id="clip-path-12"><path class="cls-2" d="M104,129.16s-.34-1.14-1.92-.8-3.09.93-4.66,1.21a6.27,6.27,0,0,1-3.53-.16c-.74-.33.2.77.8,1.09a13.78,13.78,0,0,0,7.49.62C104.67,130.54,104,129.16,104,129.16Z"/></clipPath><clipPath id="clip-path-13"><path class="cls-2" d="M112.55,130.2s-.33-1.13-1.92-.79-3.09.93-4.66,1.21a6.28,6.28,0,0,1-3.53-.16c-.73-.33.2.77.81,1.09a13.72,13.72,0,0,0,7.48.62C113.27,131.59,112.55,130.2,112.55,130.2Z"/></clipPath><clipPath id="clip-path-14"><path class="cls-2" d="M108.41,128.66s-.34-1.13-1.92-.79-3.09.93-4.66,1.21a6.45,6.45,0,0,1-3.53-.16c-.74-.34.19.76.8,1.09a13.69,13.69,0,0,0,7.49.61C109.12,130.05,108.41,128.66,108.41,128.66Z"/></clipPath><clipPath id="clip-path-15"><path class="cls-2" d="M107.3,136.1s-.14-1.17-1.76-1.11-3.2.39-4.8.39a6.26,6.26,0,0,1-3.45-.76c-.67-.45.07.79.61,1.22a13.88,13.88,0,0,0,7.27,1.88C107.77,137.59,107.3,136.1,107.3,136.1Z"/></clipPath><clipPath id="clip-path-16"><path class="cls-2" d="M110.85,136.16s.34-1.13,1.92-.79,3.09.93,4.66,1.21a6.45,6.45,0,0,0,3.53-.16c.74-.34-.19.76-.8,1.09a13.67,13.67,0,0,1-7.48.61C110.14,137.55,110.85,136.16,110.85,136.16Z"/></clipPath><clipPath id="clip-path-17"><path class="cls-2" d="M115.12,134.59s-.5-1.07-2-.5-2.91,1.38-4.43,1.88a6.34,6.34,0,0,1-3.51.37c-.78-.22.31.73,1,1a13.79,13.79,0,0,0,7.5-.5C116,135.85,115.12,134.59,115.12,134.59Z"/></clipPath><clipPath id="clip-path-18"><path class="cls-2" d="M130,135.35s-.5-1.07-2-.5-2.92,1.37-4.43,1.88a6.38,6.38,0,0,1-3.52.37c-.78-.22.31.73,1,1a13.86,13.86,0,0,0,7.49-.5C130.89,136.61,130,135.35,130,135.35Z"/></clipPath><clipPath id="clip-path-19"><path class="cls-2" d="M127.12,128.67s-.5-1.07-2-.5-2.91,1.38-4.43,1.88a6.34,6.34,0,0,1-3.51.37c-.78-.22.31.73,1,1a13.75,13.75,0,0,0,7.49-.5C128,129.93,127.12,128.67,127.12,128.67Z"/></clipPath><clipPath id="clip-path-20"><path class="cls-2" d="M115.61,130.24s-.5-1.07-2-.5-2.92,1.38-4.43,1.88a6.35,6.35,0,0,1-3.51.37c-.78-.22.3.73.95,1a13.79,13.79,0,0,0,7.5-.5C116.52,131.5,115.61,130.24,115.61,130.24Z"/></clipPath><clipPath id="clip-path-21"><path class="cls-2" d="M111.18,133.19s.5-1.07,2-.5,2.91,1.38,4.43,1.89a6.31,6.31,0,0,0,3.51.36c.78-.22-.31.73-1,1a13.69,13.69,0,0,1-7.5-.5C110.27,134.46,111.18,133.19,111.18,133.19Z"/></clipPath><clipPath id="clip-path-22"><path class="cls-2" d="M94.66,132.08s.5-1.07,2-.5,2.92,1.38,4.44,1.88a6.34,6.34,0,0,0,3.51.37c.78-.22-.31.73-1,1a13.75,13.75,0,0,1-7.49-.5C93.74,133.34,94.66,132.08,94.66,132.08Z"/></clipPath><clipPath id="clip-path-23"><path class="cls-2" d="M103.1,132.49s.5-1.07,2-.5,2.91,1.38,4.43,1.89a6.34,6.34,0,0,0,3.51.37c.78-.23-.31.72-1,1a13.79,13.79,0,0,1-7.49-.51C102.19,133.76,103.1,132.49,103.1,132.49Z"/></clipPath><clipPath id="clip-path-24"><path class="cls-2" d="M100.41,124.37s.5-1.07,2-.5,2.91,1.37,4.43,1.88a6.34,6.34,0,0,0,3.51.37c.78-.22-.31.73-1,1a13.86,13.86,0,0,1-7.49-.5C99.5,125.63,100.41,124.37,100.41,124.37Z"/></clipPath><clipPath id="clip-path-25"><path class="cls-2" d="M115.84,130.93s.5-1.07,2-.5,2.92,1.38,4.43,1.88a6.35,6.35,0,0,0,3.51.37c.78-.22-.3.73-1,1a13.75,13.75,0,0,1-7.49-.5C114.93,132.19,115.84,130.93,115.84,130.93Z"/></clipPath><clipPath id="clip-path-26"><path class="cls-2" d="M113.17,131.81s.5-1.07,2-.5,2.92,1.38,4.43,1.88a6.38,6.38,0,0,0,3.52.37c.77-.22-.31.73-1,1a13.75,13.75,0,0,1-7.49-.5C112.26,133.07,113.17,131.81,113.17,131.81Z"/></clipPath><clipPath id="clip-path-27"><path class="cls-2" d="M126.82,132.71s.5-1.07,2-.5,2.92,1.38,4.43,1.89a6.38,6.38,0,0,0,3.52.37c.77-.23-.31.72-1,1a13.79,13.79,0,0,1-7.49-.51C125.9,134,126.82,132.71,126.82,132.71Z"/></clipPath><clipPath id="clip-path-28"><path class="cls-2" d="M134,127.75s.5-1.07,2-.5,2.92,1.37,4.43,1.88a6.38,6.38,0,0,0,3.52.37c.77-.22-.31.73-1,1a13.86,13.86,0,0,1-7.49-.5C133.1,129,134,127.75,134,127.75Z"/></clipPath><clipPath id="clip-path-29"><path class="cls-2" d="M128.75,128.59s.5-1.07,2-.5,2.92,1.38,4.43,1.89a6.23,6.23,0,0,0,3.51.36c.78-.22-.3.73-1,1a13.69,13.69,0,0,1-7.5-.5C127.84,129.86,128.75,128.59,128.75,128.59Z"/></clipPath><clipPath id="clip-path-30"><path class="cls-2" d="M122.94,130.67s.29-1.15,1.89-.88,3.12.8,4.71,1a6.37,6.37,0,0,0,3.51-.31c.72-.37-.16.77-.75,1.12a13.77,13.77,0,0,1-7.45.94C122.29,132.08,122.94,130.67,122.94,130.67Z"/></clipPath><clipPath id="clip-path-31"><path class="cls-2" d="M120.14,134.88s.29-1.14,1.89-.87,3.12.79,4.71,1a6.28,6.28,0,0,0,3.51-.31c.73-.37-.16.77-.75,1.12a13.67,13.67,0,0,1-7.45.94C119.49,136.3,120.14,134.88,120.14,134.88Z"/></clipPath><clipPath id="clip-path-32"><path class="cls-2" d="M133.11,135.09s.19-1.17,1.81-1,3.18.54,4.77.62a6.31,6.31,0,0,0,3.49-.6c.68-.42-.1.79-.67,1.19a13.8,13.8,0,0,1-7.35,1.54C132.57,136.55,133.11,135.09,133.11,135.09Z"/></clipPath><clipPath id="clip-path-33"><path class="cls-2" d="M120.57,126.87s.29-1.14,1.89-.87,3.12.79,4.71,1a6.32,6.32,0,0,0,3.52-.31c.72-.37-.17.77-.76,1.13a13.8,13.8,0,0,1-7.45.93C119.92,128.29,120.57,126.87,120.57,126.87Z"/></clipPath><clipPath id="clip-path-34"><path class="cls-2" d="M113.14,127.66s0-1.18,1.64-1.26,3.22.08,4.82-.07a6.25,6.25,0,0,0,3.36-1.08c.62-.51,0,.8-.49,1.27a13.86,13.86,0,0,1-7.06,2.56C112.81,129.19,113.14,127.66,113.14,127.66Z"/></clipPath><clipPath id="clip-path-35"><path class="cls-2" d="M106.4,126.18s.2-1.17,1.82-1,3.17.58,4.76.68a6.27,6.27,0,0,0,3.49-.56c.7-.41-.11.79-.67,1.18a13.78,13.78,0,0,1-7.37,1.45C105.84,127.63,106.4,126.18,106.4,126.18Z"/></clipPath><clipPath id="clip-path-36"><path class="cls-2" d="M96.18,131.25s.2-1.16,1.82-1,3.17.57,4.76.67a6.38,6.38,0,0,0,3.49-.55c.7-.42-.11.78-.67,1.17A13.78,13.78,0,0,1,98.21,133C95.62,132.71,96.18,131.25,96.18,131.25Z"/></clipPath><clipPath id="clip-path-37"><path class="cls-2" d="M96.79,127.27s.21-1.16,1.82-1,3.17.58,4.77.68a6.36,6.36,0,0,0,3.48-.55c.7-.42-.1.78-.67,1.17A13.76,13.76,0,0,1,98.82,129C96.23,128.73,96.79,127.27,96.79,127.27Z"/></clipPath><clipPath id="clip-path-38"><path class="cls-2" d="M106,128.36s.2-1.16,1.82-1,3.17.57,4.76.67a6.38,6.38,0,0,0,3.49-.55c.7-.42-.11.78-.67,1.17a13.76,13.76,0,0,1-7.37,1.46C105.42,129.82,106,128.36,106,128.36Z"/></clipPath><clipPath id="clip-path-39"><path class="cls-2" d="M135.24,135.35s-.5-1.07-2-.5-2.92,1.37-4.43,1.88a6.35,6.35,0,0,1-3.51.37c-.78-.22.3.73,1,1a13.86,13.86,0,0,0,7.49-.5C136.15,136.61,135.24,135.35,135.24,135.35Z"/></clipPath></defs><path class="cls-3" d="M85.14,131.38c0,7,8.06,15,33,15,24.34,0,33-7.94,33-15S85.14,124.36,85.14,131.38Z"/><g class="cls-4"><path class="cls-5" d="M119,144a70.67,70.67,0,0,0,14.37-1.43,56.27,56.27,0,0,0,14.1-4.9,29.79,29.79,0,0,0,4.77-3l-.43-.52h0a29,29,0,0,1-4.69,2.9,54.91,54.91,0,0,1-13.93,4.83,74.31,74.31,0,0,1-23,.92,112,112,0,0,1-32-8.82l-.26.62a112.45,112.45,0,0,0,32.18,8.87A81.7,81.7,0,0,0,119,144Z"/><path class="cls-5" d="M119,145.85a70.67,70.67,0,0,0,14.37-1.43,55.86,55.86,0,0,0,14.1-4.9,29.79,29.79,0,0,0,4.77-3l-.43-.52h0a29,29,0,0,1-4.69,2.9,54.91,54.91,0,0,1-13.93,4.83,74,74,0,0,1-23,.92,112,112,0,0,1-32-8.82l-.26.62a112.45,112.45,0,0,0,32.18,8.87A81.7,81.7,0,0,0,119,145.85Z"/><path class="cls-5" d="M126.49,155.15a54.72,54.72,0,0,0,3.33-18.6,56.22,56.22,0,0,0-.49-8.71l-1,.16a56.8,56.8,0,0,1,.48,8.56,54.09,54.09,0,0,1-3.27,18.23Z"/><path class="cls-5" d="M131.5,155.28A59,59,0,0,0,134.34,128l-1,.16a57.87,57.87,0,0,1-2.78,26.78Z"/><path class="cls-5" d="M121.94,155.71a59,59,0,0,0,2.84-27.31l-1,.16A57.92,57.92,0,0,1,121,155.35Z"/><path class="cls-5" d="M124.07,155.46A54.43,54.43,0,0,0,127.38,137a55.75,55.75,0,0,0-.49-8.66l-.33.06a56.31,56.31,0,0,1,.49,8.6,54.19,54.19,0,0,1-3.3,18.36Z"/><path class="cls-5" d="M129,154.43A54.43,54.43,0,0,0,132.27,136a57,57,0,0,0-.49-8.65l-.34,0a54.78,54.78,0,0,1,.49,8.6,54.1,54.1,0,0,1-3.29,18.36Z"/><path class="cls-5" d="M136.39,155.41a59.41,59.41,0,0,0,2.84-27.32l-1,.16a57,57,0,0,1,.48,8.57A53.51,53.51,0,0,1,135.44,155Z"/><path class="cls-5" d="M133.84,154.56a58.49,58.49,0,0,0,2.82-27.14l-.33.06a58.39,58.39,0,0,1-2.8,27Z"/><path class="cls-5" d="M141.66,154.38a59,59,0,0,0,2.84-27.31l-1,.16A58.29,58.29,0,0,1,140.72,154Z"/><path class="cls-5" d="M139.11,153.53a54.48,54.48,0,0,0,3.32-18.48,57,57,0,0,0-.49-8.65l-.34,0a54.78,54.78,0,0,1,.49,8.6,54.1,54.1,0,0,1-3.29,18.36Z"/><path class="cls-5" d="M147.57,152.16a54.75,54.75,0,0,0,2-18.8,55.51,55.51,0,0,0-1.13-8.65l-1,.24a56,56,0,0,1,1.1,8.5,53.65,53.65,0,0,1-1.92,18.42Z"/><path class="cls-5" d="M145,151.5a54.23,54.23,0,0,0,2-18.67,55.18,55.18,0,0,0-1.13-8.6l-.32.08a57.32,57.32,0,0,1,1.11,8.54,53.93,53.93,0,0,1-1.94,18.55Z"/><path class="cls-5" d="M108.75,155.15l.94-.36A57.93,57.93,0,0,1,106.91,128l-1-.16a59,59,0,0,0,2.84,27.31Z"/><path class="cls-5" d="M103.73,155.28l1-.37a53.66,53.66,0,0,1-3.27-18.25,56.3,56.3,0,0,1,.48-8.53l-1-.16a56.22,56.22,0,0,0-.49,8.71A54.72,54.72,0,0,0,103.73,155.28Z"/><path class="cls-5" d="M112.54,155.89l1-.3a63.46,63.46,0,0,1-2.59-18.49,65.72,65.72,0,0,1,.53-8.54l-1-.16a66.84,66.84,0,0,0-.54,8.68A64.83,64.83,0,0,0,112.54,155.89Z"/><path class="cls-5" d="M111.17,155.46l.31-.12a58.4,58.4,0,0,1-2.8-27l-.34-.06a57.31,57.31,0,0,0-.49,8.66A54.23,54.23,0,0,0,111.17,155.46Z"/><path class="cls-5" d="M106.28,154.43l.31-.12a58.4,58.4,0,0,1-2.8-27l-.33,0a58.45,58.45,0,0,0,2.82,27.13Z"/><path class="cls-5" d="M98.85,155.41l.94-.37a54,54,0,0,1-3.27-18.22,54.57,54.57,0,0,1,.49-8.57l-1-.16a59,59,0,0,0,2.84,27.32Z"/><path class="cls-5" d="M101.39,154.56l.32-.12a54.19,54.19,0,0,1-3.3-18.36,56.31,56.31,0,0,1,.49-8.6l-.33-.06a57.31,57.31,0,0,0-.49,8.66A54.43,54.43,0,0,0,101.39,154.56Z"/><path class="cls-5" d="M93.57,154.38l1-.37a53.66,53.66,0,0,1-3.27-18.25,56.3,56.3,0,0,1,.48-8.53l-1-.16a56.22,56.22,0,0,0-.49,8.71A54.72,54.72,0,0,0,93.57,154.38Z"/><path class="cls-5" d="M96.12,153.53l.31-.12A54.44,54.44,0,0,1,93.14,135a56.24,56.24,0,0,1,.49-8.59l-.33,0a56,56,0,0,0-.5,8.65A54.72,54.72,0,0,0,96.12,153.53Z"/><path class="cls-5" d="M87.66,152.16l1-.29a54.08,54.08,0,0,1-1.93-18.45A54.84,54.84,0,0,1,87.81,125l-1-.24a55.51,55.51,0,0,0-1.13,8.65A54.75,54.75,0,0,0,87.66,152.16Z"/><path class="cls-5" d="M90.26,151.5l.32-.1a54.18,54.18,0,0,1-1.94-18.55,54.9,54.9,0,0,1,1.12-8.54l-.33-.08a56.69,56.69,0,0,0-1.13,8.6A54.73,54.73,0,0,0,90.26,151.5Z"/><path class="cls-5" d="M119.44,156c1.15-3.34,2.56-9.18,2.71-18a86.09,86.09,0,0,0-.32-9.25l-.34,0a82.56,82.56,0,0,1,.32,9.22c-.08,4.86-.62,11.92-2.69,17.93Z"/><path class="cls-5" d="M117.37,156.48c2.1-6.1,2.65-13.23,2.73-18.15a87.07,87.07,0,0,0-.32-9.29l-1,.11a81.8,81.8,0,0,1,.32,9.18c-.09,4.84-.62,11.85-2.68,17.82Z"/><path class="cls-5" d="M115.91,156.09c2-12.21,1.57-26.94,1.56-27.08h-.34c0,.14.39,14.84-1.56,27Z"/><path class="cls-5" d="M114.34,155.9l1-.16c-.89-5.55.56-26.56.58-26.77l-1-.08C114.85,129.76,113.43,150.23,114.34,155.9Z"/><path class="cls-5" d="M113.61,156.37l.32-.11c-.8-2.47-1.11-8-.9-16,.16-6,.57-11.43.58-11.48l-.34,0c0,.06-.41,5.44-.58,11.5C112.47,148.4,112.78,153.82,113.61,156.37Z"/></g><ellipse class="cls-6" cx="118.18" cy="131.22" rx="33" ry="10.57"/><ellipse class="cls-7" cx="118.23" cy="130.79" rx="29.33" ry="9.43"/><g class="cls-8"><ellipse class="cls-9" cx="118.23" cy="133.04" rx="29.33" ry="9.43"/></g><path class="cls-2" d="M114.36,122.84s-.5-1.07-2-.5-2.91,1.37-4.43,1.88a6.34,6.34,0,0,1-3.51.37c-.78-.22.31.73.95,1a13.89,13.89,0,0,0,7.5-.5C115.27,124.1,114.36,122.84,114.36,122.84Z"/><g class="cls-10"><path class="cls-11" d="M112.29,125.69c.43-.18.91-.23,1.35-.41a1.22,1.22,0,0,0,.82-1,.42.42,0,0,0-.22-.38.49.49,0,0,0-.24,0,4.72,4.72,0,0,0-1.42.62,10,10,0,0,1-4,.83l-1.23.09a5.28,5.28,0,0,1-2.41-.19,7,7,0,0,0-.94-.41.17.17,0,0,0-.1,0,.22.22,0,0,0-.15.11c-.17.3,0,.67.28.9a1.78,1.78,0,0,0,.53.38,2.73,2.73,0,0,0,.7.15,15.67,15.67,0,0,0,6.82-.29"/></g><path class="cls-12" d="M114.16,122.51a.21.21,0,0,0-.13,0,.15.15,0,0,0-.08.18.38.38,0,0,0,.12.16.36.36,0,0,0-.23.05.22.22,0,0,0,0,.33.35.35,0,0,0,.35.07.34.34,0,0,0-.08.32.19.19,0,0,0,0,.09.12.12,0,0,0,.15,0,.34.34,0,0,0,.09-.12.11.11,0,0,0,.06.14.17.17,0,0,0,.16-.06.22.22,0,0,0,.05-.16.45.45,0,0,0,0-.23.32.32,0,0,1,0-.09s0,0,0-.06a.12.12,0,0,0-.08-.12s0-.13,0-.14-.07-.06-.11-.09S114.26,122.57,114.16,122.51Z"/><ellipse class="cls-13" cx="113.13" cy="122.4" rx="0.13" ry="0.42" transform="translate(-11.57 232.99) rotate(-88.82)"/><ellipse class="cls-13" cx="112.34" cy="122.53" rx="0.22" ry="0.07" transform="translate(-30.56 37.6) rotate(-16.76)"/><path class="cls-2" d="M121,123.26s-.5-1.07-2-.5-2.92,1.37-4.43,1.88A6.34,6.34,0,0,1,111,125c-.78-.23.31.72.95,1a13.89,13.89,0,0,0,7.5-.5C121.88,124.52,121,123.26,121,123.26Z"/><g class="cls-14"><path class="cls-11" d="M118.9,126.11c.43-.18.91-.23,1.35-.41a1.22,1.22,0,0,0,.82-1,.44.44,0,0,0-.22-.38.42.42,0,0,0-.25,0,4.78,4.78,0,0,0-1.41.62,10,10,0,0,1-4,.83l-1.23.09a5.15,5.15,0,0,1-2.41-.2,7,7,0,0,0-.94-.4.17.17,0,0,0-.1,0,.19.19,0,0,0-.15.11c-.17.29,0,.67.28.9a2,2,0,0,0,.53.38,2.73,2.73,0,0,0,.7.15,15.67,15.67,0,0,0,6.82-.29"/></g><path class="cls-12" d="M120.77,122.93a.21.21,0,0,0-.13,0,.15.15,0,0,0-.08.18.45.45,0,0,0,.12.16.36.36,0,0,0-.23.05.22.22,0,0,0,0,.33.34.34,0,0,0,.35.07.34.34,0,0,0-.08.32.26.26,0,0,0,0,.09.14.14,0,0,0,.15,0A.34.34,0,0,0,121,124a.11.11,0,0,0,.06.14.17.17,0,0,0,.16-.06.22.22,0,0,0,.05-.16.45.45,0,0,0,0-.23.32.32,0,0,1,0-.09s0,0,0-.06a.11.11,0,0,0-.08-.12s0-.13,0-.14-.07-.06-.11-.09A1.61,1.61,0,0,0,120.77,122.93Z"/><ellipse class="cls-13" cx="119.74" cy="122.82" rx="0.13" ry="0.42" transform="translate(-5.51 240.01) rotate(-88.82)"/><ellipse class="cls-13" cx="118.95" cy="122.95" rx="0.22" ry="0.07" transform="translate(-30.4 39.53) rotate(-16.76)"/><path class="cls-2" d="M127.79,124s-.3-1.14-1.9-.86-3.11.83-4.69,1.06a6.33,6.33,0,0,1-3.53-.27c-.72-.36.18.77.77,1.12a13.81,13.81,0,0,0,7.46.85C128.46,125.41,127.79,124,127.79,124Z"/><g class="cls-15"><path class="cls-11" d="M125.24,126.44c.46-.1.94-.07,1.4-.17a1.2,1.2,0,0,0,1-.88.43.43,0,0,0-.15-.42.49.49,0,0,0-.24,0,4.64,4.64,0,0,0-1.5.36,10.36,10.36,0,0,1-4.08.1l-1.23-.13a5.29,5.29,0,0,1-2.33-.63,6.64,6.64,0,0,0-.85-.57.17.17,0,0,0-.1,0,.24.24,0,0,0-.17.09c-.22.25-.08.66.12.93a1.58,1.58,0,0,0,.46.47,3.11,3.11,0,0,0,.65.28,15.86,15.86,0,0,0,6.77.93"/></g><path class="cls-12" d="M127.65,123.64a.17.17,0,0,0-.13,0,.14.14,0,0,0-.1.16.38.38,0,0,0,.09.18.39.39,0,0,0-.24,0,.22.22,0,0,0-.08.32.24.24,0,1,1,.2.43.17.17,0,0,0,0,.1.16.16,0,0,0,.15,0c.05,0,.08-.07.12-.11a.1.1,0,0,0,0,.15.14.14,0,0,0,.16,0,.26.26,0,0,0,.09-.15.45.45,0,0,0,0-.23s0-.06,0-.09a.14.14,0,0,0,0-.06.11.11,0,0,0,0-.13.38.38,0,0,0,0-.15s-.06-.06-.09-.1A2.14,2.14,0,0,0,127.65,123.64Z"/><ellipse class="cls-13" cx="126.66" cy="123.35" rx="0.13" ry="0.42" transform="translate(-19.51 222.8) rotate(-78.47)"/><ellipse class="cls-13" cx="125.86" cy="123.33" rx="0.22" ry="0.07" transform="translate(-12.99 14.83) rotate(-6.41)"/><path class="cls-2" d="M137.65,125.85s-.5-1.07-2-.5-2.92,1.38-4.43,1.88a6.35,6.35,0,0,1-3.51.37c-.78-.22.3.73.95,1a13.86,13.86,0,0,0,7.49-.5C138.56,127.11,137.65,125.85,137.65,125.85Z"/><g class="cls-16"><path class="cls-11" d="M135.58,128.71c.43-.19.91-.24,1.35-.42a1.22,1.22,0,0,0,.82-1,.44.44,0,0,0-.22-.38.52.52,0,0,0-.25,0,5.05,5.05,0,0,0-1.41.62,10.19,10.19,0,0,1-4,.84l-1.23.09a5.43,5.43,0,0,1-2.41-.2,8.63,8.63,0,0,0-.94-.41.17.17,0,0,0-.1,0,.22.22,0,0,0-.15.11c-.17.3,0,.67.28.91a2,2,0,0,0,.53.37,2.74,2.74,0,0,0,.7.16,15.82,15.82,0,0,0,6.82-.3"/></g><path class="cls-12" d="M137.45,125.52a.21.21,0,0,0-.13,0,.15.15,0,0,0-.08.18.41.41,0,0,0,.12.17.34.34,0,0,0-.24,0,.23.23,0,0,0,0,.33.34.34,0,0,0,.35.07.35.35,0,0,0-.08.33.14.14,0,0,0,.05.08.14.14,0,0,0,.15,0,.38.38,0,0,0,.09-.13.11.11,0,0,0,.06.14.15.15,0,0,0,.16-.06.28.28,0,0,0,.05-.16.45.45,0,0,0,0-.23.32.32,0,0,1,0-.09s0,0,0-.06a.12.12,0,0,0-.08-.12s0-.13,0-.14-.07,0-.11-.08S137.55,125.58,137.45,125.52Z"/><ellipse class="cls-13" cx="136.42" cy="125.41" rx="0.13" ry="0.42" transform="translate(8.23 259.23) rotate(-88.82)"/><ellipse class="cls-13" cx="135.63" cy="125.54" rx="0.22" ry="0.07" transform="translate(-30.44 44.45) rotate(-16.76)"/><path class="cls-2" d="M138.29,131s-.5-1.07-2-.5-2.91,1.37-4.43,1.88a6.34,6.34,0,0,1-3.51.37c-.78-.22.31.73,1,1a13.86,13.86,0,0,0,7.49-.5C139.2,132.26,138.29,131,138.29,131Z"/><g class="cls-17"><path class="cls-11" d="M136.22,133.85c.43-.18.92-.23,1.35-.41a1.21,1.21,0,0,0,.82-1.05.4.4,0,0,0-.22-.38.48.48,0,0,0-.24,0,5,5,0,0,0-1.42.62,10,10,0,0,1-4,.83l-1.23.09a5.28,5.28,0,0,1-2.41-.19,6.41,6.41,0,0,0-.93-.41.21.21,0,0,0-.11,0,.27.27,0,0,0-.15.11c-.17.3,0,.67.28.9a1.83,1.83,0,0,0,.54.38,2.75,2.75,0,0,0,.69.15,15.72,15.72,0,0,0,6.83-.29"/></g><path class="cls-12" d="M138.09,130.67a.21.21,0,0,0-.13,0,.15.15,0,0,0-.08.18.38.38,0,0,0,.12.16.36.36,0,0,0-.23.05.24.24,0,0,0,0,.33.36.36,0,0,0,.36.07.34.34,0,0,0-.09.32.15.15,0,0,0,.06.09.11.11,0,0,0,.14,0,.58.58,0,0,0,.1-.12.1.1,0,0,0,.06.14.16.16,0,0,0,.15-.06.28.28,0,0,0,.06-.16.59.59,0,0,0,0-.23.29.29,0,0,1,0-.09.13.13,0,0,1,0-.06.13.13,0,0,0-.08-.12.39.39,0,0,0,0-.14s-.07-.06-.1-.09S138.19,130.73,138.09,130.67Z"/><ellipse class="cls-13" cx="137.07" cy="130.56" rx="0.13" ry="0.42" transform="translate(3.71 264.91) rotate(-88.82)"/><ellipse class="cls-13" cx="136.27" cy="130.69" rx="0.22" ry="0.07" transform="translate(-31.9 44.85) rotate(-16.76)"/><path class="cls-2" d="M132.38,124s-.5-1.07-2-.5-2.92,1.38-4.43,1.88a6.38,6.38,0,0,1-3.52.37c-.78-.22.31.73,1,1a13.75,13.75,0,0,0,7.49-.5C133.3,125.27,132.38,124,132.38,124Z"/><g class="cls-18"><path class="cls-11" d="M130.31,126.87c.44-.19.92-.24,1.35-.42a1.2,1.2,0,0,0,.83-1,.44.44,0,0,0-.22-.38.53.53,0,0,0-.25,0,4.81,4.81,0,0,0-1.41.63,10.4,10.4,0,0,1-4,.83l-1.24.09a5.3,5.3,0,0,1-2.41-.2A7.72,7.72,0,0,0,122,126a.19.19,0,0,0-.25.11c-.18.29,0,.66.27.9a2,2,0,0,0,.54.37,2.74,2.74,0,0,0,.7.16,15.84,15.84,0,0,0,6.82-.3"/></g><path class="cls-12" d="M132.18,123.68a.15.15,0,0,0-.13,0,.13.13,0,0,0-.07.17.13.13,0,1,1-.12.21.23.23,0,0,0,0,.33.32.32,0,0,0,.35.07.36.36,0,0,0-.08.33.12.12,0,0,0,.2.07.6.6,0,0,0,.09-.13.1.1,0,0,0,.06.14.13.13,0,0,0,.15-.06.28.28,0,0,0,.06-.16.59.59,0,0,0,0-.23.29.29,0,0,1,0-.09s0,0,0-.06a.13.13,0,0,0-.08-.12.78.78,0,0,0,0-.14s-.07,0-.11-.08S132.28,123.74,132.18,123.68Z"/><ellipse class="cls-13" cx="131.16" cy="123.57" rx="0.13" ry="0.42" transform="translate(4.91 252.16) rotate(-88.82)"/><ellipse class="cls-13" cx="130.37" cy="123.7" rx="0.22" ry="0.07" transform="translate(-30.13 42.85) rotate(-16.76)"/><path class="cls-2" d="M121,128.21s-.5-1.07-2-.5-2.92,1.38-4.43,1.89A6.45,6.45,0,0,1,111,130c-.78-.22.31.73,1,1a13.65,13.65,0,0,0,7.49-.5C121.88,129.47,121,128.21,121,128.21Z"/><g class="cls-19"><path class="cls-11" d="M118.89,131.07c.44-.18.92-.23,1.35-.42a1.19,1.19,0,0,0,.83-1,.41.41,0,0,0-.22-.38.43.43,0,0,0-.25,0,4.81,4.81,0,0,0-1.41.63,10.4,10.4,0,0,1-4,.83l-1.24.09a5.3,5.3,0,0,1-2.41-.2,7.72,7.72,0,0,0-.93-.41.19.19,0,0,0-.25.11c-.18.29,0,.66.28.9a1.8,1.8,0,0,0,.53.37,2.74,2.74,0,0,0,.7.16,15.84,15.84,0,0,0,6.82-.3"/></g><path class="cls-12" d="M120.76,127.89a.13.13,0,0,0-.13,0,.13.13,0,0,0-.07.17.33.33,0,0,0,.12.17.49.49,0,0,0-.24,0,.24.24,0,0,0,0,.34.34.34,0,0,0,.35.06.36.36,0,0,0-.08.33.12.12,0,0,0,.2.07.43.43,0,0,0,.09-.13.1.1,0,0,0,.06.14.14.14,0,0,0,.15-.05.35.35,0,0,0,.06-.17.59.59,0,0,0,0-.23.29.29,0,0,1,0-.09s0,0,0,0a.13.13,0,0,0-.08-.13.93.93,0,0,0,0-.14c0-.05-.07-.05-.11-.08S120.86,127.94,120.76,127.89Z"/><ellipse class="cls-13" cx="119.74" cy="127.77" rx="0.13" ry="0.42" transform="translate(-10.47 244.86) rotate(-88.82)"/><ellipse class="cls-13" cx="118.95" cy="127.9" rx="0.22" ry="0.07" transform="translate(-31.83 39.74) rotate(-16.76)"/><path class="cls-2" d="M130.59,130.93s-.5-1.07-2-.5-2.92,1.38-4.43,1.88a6.38,6.38,0,0,1-3.52.37c-.78-.22.31.73,1,1a13.75,13.75,0,0,0,7.49-.5C131.51,132.19,130.59,130.93,130.59,130.93Z"/><g class="cls-20"><path class="cls-11" d="M128.52,133.79c.44-.19.92-.24,1.35-.42a1.19,1.19,0,0,0,.83-1.05.44.44,0,0,0-.22-.38.53.53,0,0,0-.25,0,4.81,4.81,0,0,0-1.41.63,10.4,10.4,0,0,1-4,.83l-1.24.09a5.3,5.3,0,0,1-2.41-.2,7.72,7.72,0,0,0-.93-.41.19.19,0,0,0-.25.11c-.18.29,0,.66.27.9a2,2,0,0,0,.54.37,2.74,2.74,0,0,0,.7.16,15.84,15.84,0,0,0,6.82-.3"/></g><path class="cls-12" d="M130.39,130.6a.15.15,0,0,0-.13,0,.13.13,0,0,0-.07.17.33.33,0,0,0,.12.17.4.4,0,0,0-.24,0,.24.24,0,0,0,0,.34.34.34,0,0,0,.35.06.36.36,0,0,0-.08.33.12.12,0,0,0,.2.07.6.6,0,0,0,.09-.13.1.1,0,0,0,.06.14.13.13,0,0,0,.15-.06.28.28,0,0,0,.06-.16.59.59,0,0,0,0-.23.29.29,0,0,1,0-.09s0,0,0-.06a.13.13,0,0,0-.08-.12.93.93,0,0,0,0-.14s-.07,0-.11-.08S130.49,130.66,130.39,130.6Z"/><ellipse class="cls-13" cx="129.37" cy="130.49" rx="0.13" ry="0.42" transform="translate(-3.76 257.15) rotate(-88.82)"/><ellipse class="cls-13" cx="128.58" cy="130.62" rx="0.22" ry="0.07" transform="translate(-32.21 42.63) rotate(-16.76)"/><path class="cls-2" d="M142.19,131.22s-.39-1.11-2-.7-3,1.07-4.6,1.42a6.35,6.35,0,0,1-3.53,0c-.75-.3.23.76.85,1.05a13.75,13.75,0,0,0,7.51.26C143,132.57,142.19,131.22,142.19,131.22Z"/><g class="cls-21"><path class="cls-11" d="M139.83,133.85c.46-.14.94-.14,1.39-.28a1.21,1.21,0,0,0,.93-.95.44.44,0,0,0-.18-.4.43.43,0,0,0-.25,0,4.61,4.61,0,0,0-1.47.48,10.38,10.38,0,0,1-4.05.42L135,133a5.14,5.14,0,0,1-2.37-.44,7.78,7.78,0,0,0-.89-.5l-.11,0a.23.23,0,0,0-.16.1c-.2.27,0,.66.19.92a1.73,1.73,0,0,0,.5.43,2.94,2.94,0,0,0,.67.23,15.76,15.76,0,0,0,6.82.39"/></g><path class="cls-12" d="M142,130.88a.21.21,0,0,0-.13,0,.15.15,0,0,0-.09.17.46.46,0,0,0,.1.18.39.39,0,0,0-.24,0,.23.23,0,0,0,0,.33.33.33,0,0,0,.34.1.35.35,0,0,0-.12.32.14.14,0,0,0,0,.08.12.12,0,0,0,.14,0,.41.41,0,0,0,.11-.12.09.09,0,0,0,.05.14.14.14,0,0,0,.16,0,.33.33,0,0,0,.07-.16.49.49,0,0,0,0-.24s0,0,0-.08,0,0,0-.06a.11.11,0,0,0-.06-.13.86.86,0,0,0,0-.15.9.9,0,0,0-.1-.09C142.15,131,142.11,130.94,142,130.88Z"/><ellipse class="cls-13" cx="141.01" cy="130.66" rx="0.13" ry="0.42" transform="translate(-5.88 254.68) rotate(-82.99)"/><ellipse class="cls-13" cx="140.21" cy="130.71" rx="0.22" ry="0.07" transform="translate(-22.25 28.97) rotate(-10.93)"/><path class="cls-2" d="M104,129.16s-.34-1.14-1.92-.8-3.09.93-4.66,1.21a6.27,6.27,0,0,1-3.53-.16c-.74-.33.2.77.8,1.09a13.78,13.78,0,0,0,7.49.62C104.67,130.54,104,129.16,104,129.16Z"/><g class="cls-22"><path class="cls-11" d="M101.48,131.67c.46-.11.94-.09,1.4-.21a1.19,1.19,0,0,0,1-.91.4.4,0,0,0-.16-.41.47.47,0,0,0-.24,0,4.94,4.94,0,0,0-1.49.41,10.12,10.12,0,0,1-4.07.23l-1.23-.09a5.22,5.22,0,0,1-2.35-.56,8.47,8.47,0,0,0-.87-.54l-.1,0a.25.25,0,0,0-.16.1c-.22.26-.07.66.14.93a2,2,0,0,0,.47.45,3.21,3.21,0,0,0,.67.26,15.87,15.87,0,0,0,6.79.72"/></g><path class="cls-12" d="M103.8,128.8a.18.18,0,0,0-.13,0,.14.14,0,0,0-.1.16.4.4,0,0,0,.1.18.39.39,0,0,0-.24,0,.23.23,0,0,0-.06.33.34.34,0,0,0,.33.12.35.35,0,0,0-.13.3.3.3,0,0,0,0,.1.14.14,0,0,0,.15,0,.29.29,0,0,0,.11-.11.1.1,0,0,0,0,.15.16.16,0,0,0,.16,0,.31.31,0,0,0,.08-.15.49.49,0,0,0,0-.24.18.18,0,0,1,0-.15.14.14,0,0,0-.06-.13.35.35,0,0,0,0-.14s-.06-.07-.09-.1A2.26,2.26,0,0,0,103.8,128.8Z"/><ellipse class="cls-13" cx="102.8" cy="128.54" rx="0.13" ry="0.42" transform="translate(-41.22 208.22) rotate(-80.3)"/><ellipse class="cls-13" cx="102" cy="128.55" rx="0.22" ry="0.07" transform="translate(-17.37 15.95) rotate(-8.24)"/><path class="cls-2" d="M112.55,130.2s-.33-1.13-1.92-.79-3.09.93-4.66,1.21a6.28,6.28,0,0,1-3.53-.16c-.73-.33.2.77.81,1.09a13.72,13.72,0,0,0,7.48.62C113.27,131.59,112.55,130.2,112.55,130.2Z"/><g class="cls-23"><path class="cls-11" d="M110.08,132.72c.46-.11.94-.09,1.4-.21a1.2,1.2,0,0,0,1-.91.43.43,0,0,0-.16-.41.53.53,0,0,0-.25-.05,4.74,4.74,0,0,0-1.49.41,10.25,10.25,0,0,1-4.06.23l-1.24-.09a5.38,5.38,0,0,1-2.35-.56,8.47,8.47,0,0,0-.87-.54.29.29,0,0,0-.1,0,.23.23,0,0,0-.16.1c-.22.26-.07.66.14.93a2,2,0,0,0,.47.45,3.21,3.21,0,0,0,.67.26,15.73,15.73,0,0,0,6.79.71"/></g><path class="cls-12" d="M112.4,129.85a.14.14,0,0,0-.12,0c-.07,0-.11.09-.1.16a.38.38,0,0,0,.09.18.39.39,0,0,0-.24,0,.23.23,0,0,0-.06.33.33.33,0,0,0,.34.11.33.33,0,0,0-.13.31.1.1,0,0,0,0,.09.11.11,0,0,0,.14,0,.29.29,0,0,0,.11-.11.11.11,0,0,0,0,.15.16.16,0,0,0,.16,0,.25.25,0,0,0,.08-.16.45.45,0,0,0,0-.23.28.28,0,0,1,0-.09.14.14,0,0,1,0-.06.13.13,0,0,0-.06-.13.65.65,0,0,0,0-.14.32.32,0,0,0-.1-.1A2.26,2.26,0,0,0,112.4,129.85Z"/><ellipse class="cls-13" cx="111.4" cy="129.59" rx="0.13" ry="0.42" transform="translate(-35.1 217.57) rotate(-80.3)"/><ellipse class="cls-13" cx="110.6" cy="129.6" rx="0.22" ry="0.07" transform="translate(-17.43 17.19) rotate(-8.24)"/><path class="cls-2" d="M108.41,128.66s-.34-1.13-1.92-.79-3.09.93-4.66,1.21a6.45,6.45,0,0,1-3.53-.16c-.74-.34.19.76.8,1.09a13.69,13.69,0,0,0,7.49.61C109.12,130.05,108.41,128.66,108.41,128.66Z"/><g class="cls-24"><path class="cls-11" d="M105.94,131.18c.45-.12.94-.09,1.4-.21a1.2,1.2,0,0,0,1-.91.4.4,0,0,0-.16-.41.49.49,0,0,0-.24-.05,4.66,4.66,0,0,0-1.49.41,10.49,10.49,0,0,1-4.07.23l-1.23-.1a5.21,5.21,0,0,1-2.35-.55,8.91,8.91,0,0,0-.87-.54.19.19,0,0,0-.1,0,.22.22,0,0,0-.17.09c-.21.27-.06.67.15.94a1.79,1.79,0,0,0,.47.44,2.28,2.28,0,0,0,.67.26,15.7,15.7,0,0,0,6.79.72"/></g><path class="cls-12" d="M108.26,128.31a.21.21,0,0,0-.13-.05.14.14,0,0,0-.1.16.39.39,0,0,0,.1.19.33.33,0,0,0-.24,0,.22.22,0,0,0-.07.32.34.34,0,0,0,.34.12.36.36,0,0,0-.13.31.25.25,0,0,0,0,.09.12.12,0,0,0,.15,0l.11-.11a.09.09,0,0,0,0,.14.14.14,0,0,0,.16,0,.28.28,0,0,0,.08-.15.88.88,0,0,0,0-.23.14.14,0,0,1,0-.09s0,0,0-.06a.1.1,0,0,0-.06-.13s0-.13,0-.15-.06-.06-.09-.1S108.35,128.38,108.26,128.31Z"/><ellipse class="cls-13" cx="107.26" cy="128.05" rx="0.13" ry="0.42" transform="translate(-37.03 212.2) rotate(-80.3)"/><ellipse class="cls-13" cx="106.46" cy="128.06" rx="0.22" ry="0.07" transform="translate(-17.25 16.58) rotate(-8.24)"/><path class="cls-2" d="M107.3,136.1s-.14-1.17-1.76-1.11-3.2.39-4.8.39a6.26,6.26,0,0,1-3.45-.76c-.67-.45.07.79.61,1.22a13.88,13.88,0,0,0,7.27,1.88C107.77,137.59,107.3,136.1,107.3,136.1Z"/><g class="cls-25"><path class="cls-11" d="M104.43,138.16c.47,0,.95.07,1.42,0a1.21,1.21,0,0,0,1.11-.73.36.36,0,0,0-.32-.52,5,5,0,0,0-1.54.14,10.38,10.38,0,0,1-4-.46l-1.2-.31a5.14,5.14,0,0,1-2.22-.95,8.19,8.19,0,0,0-.76-.68.18.18,0,0,0-.1,0,.21.21,0,0,0-.17.06.78.78,0,0,0,0,.94,1.69,1.69,0,0,0,.39.53,2.68,2.68,0,0,0,.61.37,16,16,0,0,0,6.57,1.87"/></g><path class="cls-12" d="M107.21,135.73a.19.19,0,0,0-.12-.07.13.13,0,0,0-.12.14.36.36,0,0,0,.06.2.34.34,0,0,0-.24,0,.23.23,0,0,0-.12.31.36.36,0,0,0,.32.17.33.33,0,0,0-.18.29.15.15,0,0,0,0,.09.12.12,0,0,0,.14,0,.28.28,0,0,0,.13-.09.12.12,0,0,0,0,.16.17.17,0,0,0,.17,0,.26.26,0,0,0,.1-.13.51.51,0,0,0,0-.24.28.28,0,0,1,0-.09s0,0,0-.05a.12.12,0,0,0,0-.14s0-.13,0-.14,0-.07-.08-.12A1.91,1.91,0,0,0,107.21,135.73Z"/><ellipse class="cls-13" cx="106.27" cy="135.3" rx="0.13" ry="0.42" transform="translate(-56.8 190.16) rotate(-70.44)"/><ellipse class="cls-13" cx="105.48" cy="135.17" rx="0.07" ry="0.22" transform="translate(-32.61 236.8) rotate(-88.38)"/><path class="cls-2" d="M110.85,136.16s.34-1.13,1.92-.79,3.09.93,4.66,1.21a6.45,6.45,0,0,0,3.53-.16c.74-.34-.19.76-.8,1.09a13.67,13.67,0,0,1-7.48.61C110.14,137.55,110.85,136.16,110.85,136.16Z"/><g class="cls-26"><path class="cls-11" d="M113.32,138.68c-.45-.12-.94-.09-1.39-.21a1.2,1.2,0,0,1-1-.91.4.4,0,0,1,.16-.41.49.49,0,0,1,.24-.05,4.66,4.66,0,0,1,1.49.41,10.5,10.5,0,0,0,4.07.23l1.23-.1a5.28,5.28,0,0,0,2.36-.55,7.73,7.73,0,0,1,.86-.54.19.19,0,0,1,.1,0,.21.21,0,0,1,.17.1c.21.26.06.66-.15.93a1.83,1.83,0,0,1-.47.45,3,3,0,0,1-.67.26,15.85,15.85,0,0,1-6.79.71"/></g><path class="cls-12" d="M111,135.81a.21.21,0,0,1,.13-.05.14.14,0,0,1,.1.16.39.39,0,0,1-.1.19.33.33,0,0,1,.24,0,.22.22,0,0,1,.07.32.33.33,0,0,1-.34.12.37.37,0,0,1,.13.31.25.25,0,0,1,0,.09.12.12,0,0,1-.15,0,.57.57,0,0,1-.11-.11s0,.12,0,.15a.16.16,0,0,1-.16,0,.31.31,0,0,1-.08-.15.88.88,0,0,1,0-.23.14.14,0,0,0,0-.09s0,0,0-.06a.1.1,0,0,1,.06-.13s0-.13,0-.15.06-.06.09-.09S110.91,135.88,111,135.81Z"/><ellipse class="cls-13" cx="112" cy="135.55" rx="0.42" ry="0.13" transform="translate(-21.24 20.81) rotate(-9.7)"/><ellipse class="cls-13" cx="112.8" cy="135.56" rx="0.07" ry="0.22" transform="translate(-37.52 227.77) rotate(-81.76)"/><path class="cls-2" d="M115.12,134.59s-.5-1.07-2-.5-2.91,1.38-4.43,1.88a6.34,6.34,0,0,1-3.51.37c-.78-.22.31.73,1,1a13.79,13.79,0,0,0,7.5-.5C116,135.85,115.12,134.59,115.12,134.59Z"/><g class="cls-27"><path class="cls-11" d="M113.05,137.45c.43-.19.91-.24,1.35-.42a1.2,1.2,0,0,0,.82-1.05.42.42,0,0,0-.22-.38.49.49,0,0,0-.24,0,4.75,4.75,0,0,0-1.42.63,10.36,10.36,0,0,1-4,.83l-1.23.09a5.29,5.29,0,0,1-2.41-.2,7.86,7.86,0,0,0-.94-.41.17.17,0,0,0-.1,0,.2.2,0,0,0-.15.12c-.17.29,0,.66.28.9a1.85,1.85,0,0,0,.54.37,2.67,2.67,0,0,0,.69.16,15.82,15.82,0,0,0,6.82-.3"/></g><path class="cls-12" d="M114.92,134.26a.15.15,0,0,0-.13,0,.13.13,0,0,0-.08.17.41.41,0,0,0,.12.17.3.3,0,0,0-.23,0,.24.24,0,0,0,0,.34.34.34,0,0,0,.35.06.36.36,0,0,0-.08.33.22.22,0,0,0,.05.08.14.14,0,0,0,.15,0,.38.38,0,0,0,.09-.13.11.11,0,0,0,.06.14.15.15,0,0,0,.16-.06.22.22,0,0,0,0-.16.45.45,0,0,0,0-.23.32.32,0,0,1,0-.09s0,0,0-.06a.12.12,0,0,0-.08-.12s0-.13,0-.14-.07,0-.11-.08S115,134.32,114.92,134.26Z"/><ellipse class="cls-13" cx="113.89" cy="134.15" rx="0.13" ry="0.42" transform="translate(-22.57 245.26) rotate(-88.82)"/><ellipse class="cls-13" cx="113.1" cy="134.28" rx="0.22" ry="0.07" transform="translate(-33.92 38.32) rotate(-16.76)"/><path class="cls-2" d="M130,135.35s-.5-1.07-2-.5-2.92,1.37-4.43,1.88a6.38,6.38,0,0,1-3.52.37c-.78-.22.31.73,1,1a13.86,13.86,0,0,0,7.49-.5C130.89,136.61,130,135.35,130,135.35Z"/><g class="cls-28"><path class="cls-11" d="M127.9,138.21c.44-.19.92-.24,1.35-.42a1.22,1.22,0,0,0,.83-1,.44.44,0,0,0-.22-.38.53.53,0,0,0-.25,0,5.05,5.05,0,0,0-1.41.62,10.23,10.23,0,0,1-4,.84l-1.24.08a5.3,5.3,0,0,1-2.41-.19,6.41,6.41,0,0,0-.93-.41.21.21,0,0,0-.11,0,.27.27,0,0,0-.15.11c-.17.3,0,.67.28.9a1.83,1.83,0,0,0,.54.38,3.24,3.24,0,0,0,.7.16,15.84,15.84,0,0,0,6.82-.3"/></g><path class="cls-12" d="M129.77,135a.19.19,0,0,0-.13,0c-.07,0-.09.11-.07.18a.38.38,0,0,0,.12.17.33.33,0,0,0-.24,0,.23.23,0,0,0,0,.33.24.24,0,1,1,.27.39.13.13,0,0,0,0,.09.12.12,0,0,0,.15,0,.54.54,0,0,0,.09-.12.1.1,0,0,0,.06.14.13.13,0,0,0,.15-.06.28.28,0,0,0,.06-.16.59.59,0,0,0,0-.23.29.29,0,0,1,0-.09s0,0,0-.06a.13.13,0,0,0-.08-.12.78.78,0,0,0,0-.14c0-.05-.07-.06-.11-.09S129.87,135.08,129.77,135Z"/><ellipse class="cls-13" cx="128.75" cy="134.91" rx="0.13" ry="0.42" transform="translate(-8.78 260.86) rotate(-88.82)"/><ellipse class="cls-13" cx="127.96" cy="135.04" rx="0.22" ry="0.07" transform="translate(-33.51 42.64) rotate(-16.76)"/><path class="cls-2" d="M127.12,128.67s-.5-1.07-2-.5-2.91,1.38-4.43,1.88a6.34,6.34,0,0,1-3.51.37c-.78-.22.31.73,1,1a13.75,13.75,0,0,0,7.49-.5C128,129.93,127.12,128.67,127.12,128.67Z"/><g class="cls-29"><path class="cls-11" d="M125.05,131.53c.43-.19.92-.24,1.35-.42a1.18,1.18,0,0,0,.82-1.05.4.4,0,0,0-.22-.38.48.48,0,0,0-.24,0,4.75,4.75,0,0,0-1.42.63,10.36,10.36,0,0,1-4,.83l-1.23.09a5.29,5.29,0,0,1-2.41-.2,7.72,7.72,0,0,0-.93-.41.22.22,0,0,0-.11,0,.2.2,0,0,0-.15.12c-.17.29,0,.66.28.9a2,2,0,0,0,.54.37,2.77,2.77,0,0,0,.69.16,15.88,15.88,0,0,0,6.83-.3"/></g><path class="cls-12" d="M126.92,128.34a.15.15,0,0,0-.13,0,.13.13,0,0,0-.08.17.41.41,0,0,0,.12.17.3.3,0,0,0-.23,0,.24.24,0,0,0,0,.34.36.36,0,0,0,.36.06.36.36,0,0,0-.09.33.16.16,0,0,0,.06.08.12.12,0,0,0,.14,0,.38.38,0,0,0,.09-.13.1.1,0,0,0,.07.14.14.14,0,0,0,.15-.06.28.28,0,0,0,.06-.16.59.59,0,0,0,0-.23.29.29,0,0,1,0-.09v-.06a.11.11,0,0,0-.07-.12.39.39,0,0,0,0-.14c0-.05-.07-.05-.1-.08S127,128.4,126.92,128.34Z"/><ellipse class="cls-13" cx="125.89" cy="128.23" rx="0.13" ry="0.42" transform="translate(-4.9 251.46) rotate(-88.82)"/><ellipse class="cls-13" cx="125.1" cy="128.36" rx="0.22" ry="0.07" transform="translate(-31.7 41.53) rotate(-16.76)"/><path class="cls-2" d="M115.61,130.24s-.5-1.07-2-.5-2.92,1.38-4.43,1.88a6.35,6.35,0,0,1-3.51.37c-.78-.22.3.73.95,1a13.79,13.79,0,0,0,7.5-.5C116.52,131.5,115.61,130.24,115.61,130.24Z"/><g class="cls-30"><path class="cls-11" d="M113.54,133.1c.43-.19.91-.23,1.35-.42a1.2,1.2,0,0,0,.82-1.05.44.44,0,0,0-.22-.38.52.52,0,0,0-.25,0,4.81,4.81,0,0,0-1.41.63,10.36,10.36,0,0,1-4,.83l-1.23.09a5.29,5.29,0,0,1-2.41-.2,8.63,8.63,0,0,0-.94-.41.17.17,0,0,0-.1,0,.2.2,0,0,0-.15.12c-.17.29,0,.66.28.9a2,2,0,0,0,.53.37,2.74,2.74,0,0,0,.7.16,15.82,15.82,0,0,0,6.82-.3"/></g><path class="cls-12" d="M115.41,129.92a.13.13,0,0,0-.13,0,.13.13,0,0,0-.08.17.41.41,0,0,0,.12.17.4.4,0,0,0-.24,0,.24.24,0,0,0,0,.34.34.34,0,0,0,.35.06.36.36,0,0,0-.08.33.22.22,0,0,0,0,.08.14.14,0,0,0,.15,0,.38.38,0,0,0,.09-.13.11.11,0,0,0,.06.14.16.16,0,0,0,.16-.05.34.34,0,0,0,.05-.17.45.45,0,0,0,0-.23.32.32,0,0,1,0-.09s0,0,0-.06a.12.12,0,0,0-.08-.12s0-.13,0-.14-.07-.05-.11-.08S115.51,130,115.41,129.92Z"/><ellipse class="cls-13" cx="114.38" cy="129.8" rx="0.13" ry="0.42" transform="translate(-17.75 241.49) rotate(-88.82)"/><ellipse class="cls-13" cx="113.59" cy="129.93" rx="0.22" ry="0.07" transform="translate(-32.64 38.28) rotate(-16.76)"/><path class="cls-2" d="M111.18,133.19s.5-1.07,2-.5,2.91,1.38,4.43,1.89a6.31,6.31,0,0,0,3.51.36c.78-.22-.31.73-1,1a13.69,13.69,0,0,1-7.5-.5C110.27,134.46,111.18,133.19,111.18,133.19Z"/><g class="cls-31"><path class="cls-11" d="M113.25,136.05c-.43-.18-.91-.23-1.35-.42a1.2,1.2,0,0,1-.82-1,.4.4,0,0,1,.22-.38.49.49,0,0,1,.24,0,4.75,4.75,0,0,1,1.42.63,10.36,10.36,0,0,0,4,.83l1.23.09a5.29,5.29,0,0,0,2.41-.2,7.86,7.86,0,0,1,.94-.41h.1a.2.2,0,0,1,.15.12c.17.29,0,.66-.28.9a1.68,1.68,0,0,1-.54.37,2.31,2.31,0,0,1-.69.16,15.82,15.82,0,0,1-6.82-.3"/></g><path class="cls-12" d="M111.38,132.87a.13.13,0,0,1,.13,0,.13.13,0,0,1,.08.17.41.41,0,0,1-.12.17.43.43,0,0,1,.23,0,.24.24,0,0,1,0,.34.32.32,0,0,1-.35.06.37.37,0,0,1,.08.33.22.22,0,0,1,0,.08.14.14,0,0,1-.15,0,.3.3,0,0,1-.09-.13.11.11,0,0,1-.06.14.16.16,0,0,1-.16-.05.26.26,0,0,1,0-.17.47.47,0,0,1,0-.23s0-.05,0-.08,0,0,0-.06a.12.12,0,0,1,.08-.13s0-.13,0-.14.07,0,.11-.08A1.61,1.61,0,0,1,111.38,132.87Z"/><ellipse class="cls-13" cx="112.41" cy="132.76" rx="0.42" ry="0.13" transform="translate(-2.71 2.34) rotate(-1.18)"/><ellipse class="cls-13" cx="113.2" cy="132.88" rx="0.07" ry="0.22" transform="translate(-46.68 202.95) rotate(-73.24)"/><path class="cls-2" d="M94.66,132.08s.5-1.07,2-.5,2.92,1.38,4.44,1.88a6.34,6.34,0,0,0,3.51.37c.78-.22-.31.73-1,1a13.75,13.75,0,0,1-7.49-.5C93.74,133.34,94.66,132.08,94.66,132.08Z"/><g class="cls-32"><path class="cls-11" d="M96.73,134.94c-.44-.19-.92-.24-1.35-.42a1.17,1.17,0,0,1-.82-1.05.41.41,0,0,1,.21-.38.53.53,0,0,1,.25,0,4.81,4.81,0,0,1,1.41.63,10.4,10.4,0,0,0,4,.83l1.24.09a5.3,5.3,0,0,0,2.41-.2A7.72,7.72,0,0,1,105,134a.21.21,0,0,1,.11,0,.25.25,0,0,1,.15.12c.17.29,0,.66-.28.9a2,2,0,0,1-.54.37,2.74,2.74,0,0,1-.7.16,15.84,15.84,0,0,1-6.82-.3"/></g><path class="cls-12" d="M94.86,131.75a.15.15,0,0,1,.13,0,.14.14,0,0,1,.08.17.43.43,0,0,1-.13.17.33.33,0,0,1,.24,0,.24.24,0,0,1,0,.34.34.34,0,0,1-.35.06.36.36,0,0,1,.08.33.14.14,0,0,1,0,.08.12.12,0,0,1-.14,0,.41.41,0,0,1-.1-.13.1.1,0,0,1-.06.14.13.13,0,0,1-.15-.06.28.28,0,0,1-.06-.16.59.59,0,0,1,0-.23.29.29,0,0,0,0-.09s0,0,0-.06a.13.13,0,0,1,.08-.12.39.39,0,0,1,0-.14c0-.05.06-.05.1-.08S94.76,131.81,94.86,131.75Z"/><ellipse class="cls-13" cx="95.88" cy="131.64" rx="0.42" ry="0.13" transform="matrix(1, -0.02, 0.02, 1, -2.69, 2)"/><ellipse class="cls-13" cx="96.67" cy="131.77" rx="0.07" ry="0.22" transform="translate(-57.38 186.34) rotate(-73.24)"/><path class="cls-2" d="M103.1,132.49s.5-1.07,2-.5,2.91,1.38,4.43,1.89a6.34,6.34,0,0,0,3.51.37c.78-.23-.31.72-1,1a13.79,13.79,0,0,1-7.49-.51C102.19,133.76,103.1,132.49,103.1,132.49Z"/><g class="cls-33"><path class="cls-11" d="M105.17,135.35c-.43-.18-.92-.23-1.35-.42a1.18,1.18,0,0,1-.82-1,.36.36,0,0,1,.46-.39,4.48,4.48,0,0,1,1.42.62,10.32,10.32,0,0,0,4,.83l1.23.09a5.29,5.29,0,0,0,2.41-.2,7.72,7.72,0,0,1,.93-.41h.11a.25.25,0,0,1,.15.12c.17.29,0,.66-.28.9a1.79,1.79,0,0,1-.54.37,2.39,2.39,0,0,1-.69.16,15.87,15.87,0,0,1-6.83-.29"/></g><path class="cls-12" d="M103.3,132.17a.21.21,0,0,1,.13,0,.14.14,0,0,1,.08.17.41.41,0,0,1-.12.17.36.36,0,0,1,.23.05.24.24,0,0,1,0,.33.36.36,0,0,1-.36.07.34.34,0,0,1,.09.32s0,.07-.06.08a.11.11,0,0,1-.14,0,.45.45,0,0,1-.1-.13.1.1,0,0,1-.06.14.15.15,0,0,1-.15-.05.35.35,0,0,1-.06-.16.67.67,0,0,1,0-.24.19.19,0,0,0,0-.08.13.13,0,0,0,0-.06.14.14,0,0,1,.08-.13.5.5,0,0,1,0-.14s.07-.05.1-.08A2.5,2.5,0,0,1,103.3,132.17Z"/><ellipse class="cls-13" cx="104.32" cy="132.06" rx="0.42" ry="0.13" transform="translate(-2.69 2.17) rotate(-1.18)"/><ellipse class="cls-13" cx="105.12" cy="132.19" rx="0.07" ry="0.22" transform="translate(-51.77 194.72) rotate(-73.24)"/><path class="cls-2" d="M100.41,124.37s.5-1.07,2-.5,2.91,1.37,4.43,1.88a6.34,6.34,0,0,0,3.51.37c.78-.22-.31.73-1,1a13.86,13.86,0,0,1-7.49-.5C99.5,125.63,100.41,124.37,100.41,124.37Z"/><g class="cls-34"><path class="cls-11" d="M102.48,127.23c-.43-.19-.92-.24-1.35-.42a1.21,1.21,0,0,1-.82-1,.4.4,0,0,1,.22-.38.48.48,0,0,1,.24,0,5,5,0,0,1,1.42.62,10.15,10.15,0,0,0,4,.84l1.23.08a5.28,5.28,0,0,0,2.41-.19,6.41,6.41,0,0,1,.93-.41.22.22,0,0,1,.11,0,.24.24,0,0,1,.15.11c.17.3,0,.67-.28.9a1.83,1.83,0,0,1-.54.38,3.29,3.29,0,0,1-.69.16,15.88,15.88,0,0,1-6.83-.3"/></g><path class="cls-12" d="M100.61,124a.21.21,0,0,1,.13,0,.15.15,0,0,1,.08.18.48.48,0,0,1-.12.17.3.3,0,0,1,.23,0,.24.24,0,0,1,0,.33.36.36,0,0,1-.36.07.34.34,0,0,1,.09.32.15.15,0,0,1-.06.09.11.11,0,0,1-.14,0,.34.34,0,0,1-.09-.12.11.11,0,0,1-.07.14.14.14,0,0,1-.15-.06.28.28,0,0,1-.06-.16.59.59,0,0,1,0-.23.29.29,0,0,0,0-.09v-.06a.11.11,0,0,1,.07-.12.39.39,0,0,1,0-.14s.07,0,.1-.09S100.51,124.1,100.61,124Z"/><ellipse class="cls-13" cx="101.63" cy="123.93" rx="0.42" ry="0.13" transform="translate(-2.53 2.12) rotate(-1.18)"/><ellipse class="cls-13" cx="102.43" cy="124.06" rx="0.07" ry="0.22" transform="translate(-45.9 186.36) rotate(-73.24)"/><path class="cls-2" d="M115.84,130.93s.5-1.07,2-.5,2.92,1.38,4.43,1.88a6.35,6.35,0,0,0,3.51.37c.78-.22-.3.73-1,1a13.75,13.75,0,0,1-7.49-.5C114.93,132.19,115.84,130.93,115.84,130.93Z"/><g class="cls-35"><path class="cls-11" d="M117.92,133.79c-.44-.19-.92-.24-1.36-.42a1.2,1.2,0,0,1-.82-1.05.44.44,0,0,1,.22-.38.53.53,0,0,1,.25,0,4.81,4.81,0,0,1,1.41.63,10.4,10.4,0,0,0,4,.83l1.23.09a5.27,5.27,0,0,0,2.41-.2,8.63,8.63,0,0,1,.94-.41.2.2,0,0,1,.11,0,.21.21,0,0,1,.14.12c.17.29,0,.66-.28.9a1.8,1.8,0,0,1-.53.37,2.74,2.74,0,0,1-.7.16,15.83,15.83,0,0,1-6.82-.3"/></g><path class="cls-12" d="M116,130.6a.17.17,0,0,1,.14,0,.14.14,0,0,1,.07.17.41.41,0,0,1-.12.17.4.4,0,0,1,.24,0,.24.24,0,0,1,0,.34.34.34,0,0,1-.35.06.36.36,0,0,1,.08.33.12.12,0,0,1-.2.07.38.38,0,0,1-.09-.13.11.11,0,0,1-.06.14.15.15,0,0,1-.16-.06.28.28,0,0,1,0-.16.58.58,0,0,1,0-.23.16.16,0,0,0,0-.09s0,0,0-.06a.13.13,0,0,1,.08-.12s0-.13,0-.14.07,0,.11-.08S115.94,130.66,116,130.6Z"/><ellipse class="cls-13" cx="117.07" cy="130.49" rx="0.42" ry="0.13" transform="translate(-2.66 2.44) rotate(-1.18)"/><ellipse class="cls-13" cx="117.86" cy="130.62" rx="0.07" ry="0.22" transform="matrix(0.29, -0.96, 0.96, 0.29, -41.2, 205.81)"/><path class="cls-2" d="M113.17,131.81s.5-1.07,2-.5,2.92,1.38,4.43,1.88a6.38,6.38,0,0,0,3.52.37c.77-.22-.31.73-1,1a13.75,13.75,0,0,1-7.49-.5C112.26,133.07,113.17,131.81,113.17,131.81Z"/><g class="cls-36"><path class="cls-11" d="M115.25,134.67c-.44-.19-.92-.24-1.36-.42a1.21,1.21,0,0,1-.82-1.05.44.44,0,0,1,.22-.38.53.53,0,0,1,.25,0,5.05,5.05,0,0,1,1.41.62,10.23,10.23,0,0,0,4,.84l1.23.09a5.41,5.41,0,0,0,2.41-.2,8.63,8.63,0,0,1,.94-.41.2.2,0,0,1,.11,0,.22.22,0,0,1,.14.11c.18.3,0,.67-.28.91a1.8,1.8,0,0,1-.53.37,2.74,2.74,0,0,1-.7.16,15.84,15.84,0,0,1-6.82-.3"/></g><path class="cls-12" d="M113.37,131.48a.22.22,0,0,1,.14,0,.15.15,0,0,1,.07.18.41.41,0,0,1-.12.17.34.34,0,0,1,.24,0,.23.23,0,0,1,0,.33.32.32,0,0,1-.35.07.36.36,0,0,1,.08.33.12.12,0,0,1-.2.07.6.6,0,0,1-.09-.13.11.11,0,0,1-.06.14.15.15,0,0,1-.16-.06.28.28,0,0,1-.05-.16.45.45,0,0,1,0-.23.29.29,0,0,0,0-.09s0,0,0-.06a.13.13,0,0,1,.08-.12.78.78,0,0,1,0-.14s.07,0,.11-.08S113.27,131.54,113.37,131.48Z"/><ellipse class="cls-13" cx="114.4" cy="131.37" rx="0.42" ry="0.13" transform="translate(-2.68 2.38) rotate(-1.18)"/><ellipse class="cls-13" cx="115.19" cy="131.5" rx="0.07" ry="0.22" transform="translate(-43.94 203.88) rotate(-73.24)"/><path class="cls-2" d="M126.82,132.71s.5-1.07,2-.5,2.92,1.38,4.43,1.89a6.38,6.38,0,0,0,3.52.37c.77-.23-.31.72-1,1a13.79,13.79,0,0,1-7.49-.51C125.9,134,126.82,132.71,126.82,132.71Z"/><g class="cls-37"><path class="cls-11" d="M128.89,135.57c-.44-.18-.92-.23-1.36-.42a1.2,1.2,0,0,1-.82-1,.36.36,0,0,1,.47-.39,4.53,4.53,0,0,1,1.41.62,10.4,10.4,0,0,0,4,.83l1.24.09a5.24,5.24,0,0,0,2.4-.2,7,7,0,0,1,.94-.4l.11,0a.21.21,0,0,1,.14.12c.18.29,0,.67-.28.9a1.64,1.64,0,0,1-.53.37,2.38,2.38,0,0,1-.7.16,15.84,15.84,0,0,1-6.82-.29"/></g><path class="cls-12" d="M127,132.39a.22.22,0,0,1,.14,0,.14.14,0,0,1,.07.17.41.41,0,0,1-.12.17.4.4,0,0,1,.24.05.23.23,0,0,1,0,.33.34.34,0,0,1-.35.07.34.34,0,0,1,.08.32.16.16,0,0,1,0,.09s-.1,0-.15,0a.43.43,0,0,1-.09-.13.09.09,0,0,1-.06.14.14.14,0,0,1-.15-.05.27.27,0,0,1-.06-.16.67.67,0,0,1,0-.24.19.19,0,0,0,0-.08s0,0,0-.06a.14.14,0,0,1,.08-.13,1.15,1.15,0,0,1,0-.14s.07-.05.11-.08S126.91,132.45,127,132.39Z"/><ellipse class="cls-13" cx="128.04" cy="132.28" rx="0.42" ry="0.13" transform="translate(-2.69 2.66) rotate(-1.18)"/><ellipse class="cls-13" cx="128.83" cy="132.41" rx="0.07" ry="0.22" transform="translate(-35.1 217.58) rotate(-73.24)"/><path class="cls-2" d="M134,127.75s.5-1.07,2-.5,2.92,1.37,4.43,1.88a6.38,6.38,0,0,0,3.52.37c.77-.22-.31.73-1,1a13.86,13.86,0,0,1-7.49-.5C133.1,129,134,127.75,134,127.75Z"/><g class="cls-38"><path class="cls-11" d="M136.09,130.6c-.44-.18-.92-.23-1.35-.41a1.22,1.22,0,0,1-.83-1.05.44.44,0,0,1,.22-.38.53.53,0,0,1,.25,0,5.05,5.05,0,0,1,1.41.62,10,10,0,0,0,4,.83l1.24.09a5.24,5.24,0,0,0,2.4-.19,7,7,0,0,1,.94-.41.21.21,0,0,1,.11,0,.22.22,0,0,1,.14.11c.18.3,0,.67-.28.9a1.66,1.66,0,0,1-.53.38,2.73,2.73,0,0,1-.7.15,15.68,15.68,0,0,1-6.82-.29"/></g><path class="cls-12" d="M134.22,127.42a.19.19,0,0,1,.13,0c.07,0,.09.11.07.18a.38.38,0,0,1-.12.16.4.4,0,0,1,.24,0,.23.23,0,0,1,0,.33.34.34,0,0,1-.35.07.34.34,0,0,1,.08.32.13.13,0,0,1-.05.09.12.12,0,0,1-.15,0,.54.54,0,0,1-.09-.12.1.1,0,0,1-.06.14.15.15,0,0,1-.15-.06.23.23,0,0,1-.06-.16.59.59,0,0,1,0-.23.29.29,0,0,0,0-.09s0,0,0-.06a.13.13,0,0,1,.08-.12.78.78,0,0,1,0-.14s.07-.06.11-.09S134.12,127.48,134.22,127.42Z"/><ellipse class="cls-13" cx="135.24" cy="127.31" rx="0.42" ry="0.13" transform="translate(-2.59 2.81) rotate(-1.18)"/><ellipse class="cls-13" cx="136.03" cy="127.44" rx="0.07" ry="0.22" transform="translate(-25.22 220.94) rotate(-73.24)"/><path class="cls-2" d="M128.75,128.59s.5-1.07,2-.5,2.92,1.38,4.43,1.89a6.23,6.23,0,0,0,3.51.36c.78-.22-.3.73-1,1a13.69,13.69,0,0,1-7.5-.5C127.84,129.86,128.75,128.59,128.75,128.59Z"/><g class="cls-39"><path class="cls-11" d="M130.82,131.45c-.43-.18-.91-.23-1.35-.42a1.2,1.2,0,0,1-.82-1,.43.43,0,0,1,.22-.38.52.52,0,0,1,.25,0,4.81,4.81,0,0,1,1.41.63,10.36,10.36,0,0,0,4,.83l1.23.09a5.29,5.29,0,0,0,2.41-.2,8.63,8.63,0,0,1,.94-.41h.1a.2.2,0,0,1,.15.12c.17.29,0,.66-.28.9a1.75,1.75,0,0,1-.53.37,2.38,2.38,0,0,1-.7.16,15.67,15.67,0,0,1-6.82-.3"/></g><path class="cls-12" d="M129,128.27a.16.16,0,0,1,.13,0,.13.13,0,0,1,.08.17.41.41,0,0,1-.12.17.4.4,0,0,1,.24,0,.23.23,0,0,1,0,.33.32.32,0,0,1-.35.06.37.37,0,0,1,.08.33.22.22,0,0,1-.05.08.14.14,0,0,1-.15,0,.3.3,0,0,1-.09-.13.11.11,0,0,1-.06.14.16.16,0,0,1-.16-.05.33.33,0,0,1,0-.16.5.5,0,0,1,0-.24s0,0,0-.08,0,0,0-.06a.13.13,0,0,1,.08-.13s0-.12,0-.14.07,0,.11-.08A1.61,1.61,0,0,1,129,128.27Z"/><ellipse class="cls-13" cx="129.98" cy="128.16" rx="0.42" ry="0.13" transform="translate(-2.61 2.7) rotate(-1.18)"/><ellipse class="cls-13" cx="130.77" cy="128.28" rx="0.07" ry="0.22" transform="translate(-29.78 216.5) rotate(-73.24)"/><path class="cls-2" d="M122.94,130.67s.29-1.15,1.89-.88,3.12.8,4.71,1a6.37,6.37,0,0,0,3.51-.31c.72-.37-.16.77-.75,1.12a13.77,13.77,0,0,1-7.45.94C122.29,132.08,122.94,130.67,122.94,130.67Z"/><g class="cls-40"><path class="cls-11" d="M125.52,133.08c-.46-.1-.94-.05-1.41-.15a1.21,1.21,0,0,1-1-.87.41.41,0,0,1,.14-.42.65.65,0,0,1,.24-.06,4.74,4.74,0,0,1,1.51.35,10.32,10.32,0,0,0,4.07,0l1.23-.15a5.18,5.18,0,0,0,2.33-.65,7,7,0,0,1,.84-.58.17.17,0,0,1,.1,0,.3.3,0,0,1,.17.08.8.8,0,0,1-.11.94,1.68,1.68,0,0,1-.45.47,3,3,0,0,1-.66.29,15.79,15.79,0,0,1-6.75,1"/></g><path class="cls-12" d="M123.07,130.31a.17.17,0,0,1,.13-.05c.07,0,.11.08.11.15a.48.48,0,0,1-.09.19.39.39,0,0,1,.24,0,.23.23,0,0,1,.08.33.36.36,0,0,1-.34.13.33.33,0,0,1,.15.3s0,.07,0,.09a.12.12,0,0,1-.14,0,.43.43,0,0,1-.12-.11.1.1,0,0,1,0,.15.15.15,0,0,1-.16,0,.34.34,0,0,1-.09-.15.65.65,0,0,1,0-.24.28.28,0,0,0,0-.09l0,0a.13.13,0,0,1,0-.14.33.33,0,0,1,0-.14c0-.05.06-.07.09-.11S123,130.39,123.07,130.31Z"/><ellipse class="cls-13" cx="124.06" cy="130.01" rx="0.42" ry="0.13" transform="translate(-24.63 29.1) rotate(-12.18)"/><ellipse class="cls-13" cx="124.86" cy="129.98" rx="0.07" ry="0.22" transform="translate(-17 241.17) rotate(-84.24)"/><path class="cls-2" d="M120.14,134.88s.29-1.14,1.89-.87,3.12.79,4.71,1a6.28,6.28,0,0,0,3.51-.31c.73-.37-.16.77-.75,1.12a13.67,13.67,0,0,1-7.45.94C119.49,136.3,120.14,134.88,120.14,134.88Z"/><g class="cls-41"><path class="cls-11" d="M122.72,137.29c-.46-.1-.94,0-1.41-.15a1.19,1.19,0,0,1-1-.87.44.44,0,0,1,.14-.42.65.65,0,0,1,.24-.06,4.74,4.74,0,0,1,1.51.35,10.13,10.13,0,0,0,4.07.05l1.23-.14a5.32,5.32,0,0,0,2.33-.66,7,7,0,0,1,.84-.58.29.29,0,0,1,.1,0,.24.24,0,0,1,.17.09c.22.25.09.66-.11.93a1.68,1.68,0,0,1-.45.47,2.36,2.36,0,0,1-.65.29,15.85,15.85,0,0,1-6.76,1"/></g><path class="cls-12" d="M120.28,134.52a.17.17,0,0,1,.12-.05.15.15,0,0,1,.11.16.38.38,0,0,1-.09.18.49.49,0,0,1,.24,0,.23.23,0,0,1,.08.33.35.35,0,0,1-.33.13.36.36,0,0,1,.14.3.1.1,0,0,1,0,.09.12.12,0,0,1-.14,0c-.05,0-.08-.07-.12-.11a.1.1,0,0,1,0,.15.15.15,0,0,1-.16,0,.34.34,0,0,1-.09-.15.65.65,0,0,1,0-.24.14.14,0,0,0,0-.09s0,0,0-.05a.15.15,0,0,1,0-.14s0-.13,0-.14.06-.07.09-.1A1.65,1.65,0,0,1,120.28,134.52Z"/><ellipse class="cls-13" cx="121.26" cy="134.22" rx="0.42" ry="0.13" transform="translate(-25.59 28.6) rotate(-12.18)"/><ellipse class="cls-13" cx="122.06" cy="134.19" rx="0.07" ry="0.22" transform="translate(-23.7 242.17) rotate(-84.24)"/><path class="cls-2" d="M133.11,135.09s.19-1.17,1.81-1,3.18.54,4.77.62a6.31,6.31,0,0,0,3.49-.6c.68-.42-.1.79-.67,1.19a13.8,13.8,0,0,1-7.35,1.54C132.57,136.55,133.11,135.09,133.11,135.09Z"/><g class="cls-42"><path class="cls-11" d="M135.88,137.28c-.47-.06-.95,0-1.42,0a1.2,1.2,0,0,1-1.07-.78.45.45,0,0,1,.11-.43.45.45,0,0,1,.23-.08,5,5,0,0,1,1.53.22,10.39,10.39,0,0,0,4.07-.27l1.21-.25a5.29,5.29,0,0,0,2.27-.84,6.21,6.21,0,0,1,.79-.65l.1,0a.23.23,0,0,1,.17.07c.24.24.14.65,0,.95a1.8,1.8,0,0,1-.41.5,2.56,2.56,0,0,1-.63.34,15.78,15.78,0,0,1-6.65,1.56"/></g><path class="cls-12" d="M133.22,134.72a.17.17,0,0,1,.12-.06.13.13,0,0,1,.12.14.39.39,0,0,1-.08.2.34.34,0,0,1,.24,0,.22.22,0,0,1,.11.31.34.34,0,0,1-.32.16.35.35,0,0,1,.16.29.16.16,0,0,1,0,.1.14.14,0,0,1-.15,0,.27.27,0,0,1-.12-.09.11.11,0,0,1,0,.15.17.17,0,0,1-.17,0,.31.31,0,0,1-.09-.14.5.5,0,0,1,0-.24.27.27,0,0,0,0-.09l0-.05a.12.12,0,0,1,0-.14s0-.13,0-.14.05-.07.08-.11S133.13,134.8,133.22,134.72Z"/><ellipse class="cls-13" cx="134.17" cy="134.34" rx="0.42" ry="0.13" transform="translate(-33.17 44.64) rotate(-16.84)"/><ellipse class="cls-13" cx="134.97" cy="134.25" rx="0.07" ry="0.22" transform="translate(-1.83 266.62) rotate(-88.9)"/><path class="cls-2" d="M120.57,126.87s.29-1.14,1.89-.87,3.12.79,4.71,1a6.32,6.32,0,0,0,3.52-.31c.72-.37-.17.77-.76,1.13a13.8,13.8,0,0,1-7.45.93C119.92,128.29,120.57,126.87,120.57,126.87Z"/><g class="cls-43"><path class="cls-11" d="M123.15,129.28c-.46-.1-.94-.05-1.4-.15a1.19,1.19,0,0,1-1-.87.36.36,0,0,1,.38-.47,4.47,4.47,0,0,1,1.51.34,10.14,10.14,0,0,0,4.07.05l1.23-.14a5.32,5.32,0,0,0,2.33-.66,7,7,0,0,1,.84-.58l.1,0a.22.22,0,0,1,.17.09c.22.25.09.66-.1.94a2,2,0,0,1-.46.46,2.36,2.36,0,0,1-.65.29,15.7,15.7,0,0,1-6.76,1"/></g><path class="cls-12" d="M120.71,126.51a.18.18,0,0,1,.12-.05.14.14,0,0,1,.11.16.38.38,0,0,1-.09.18.49.49,0,0,1,.24,0,.23.23,0,0,1,.08.33.35.35,0,0,1-.33.13.36.36,0,0,1,.14.3.17.17,0,0,1,0,.1.16.16,0,0,1-.15,0s-.08-.07-.12-.11a.1.1,0,0,1,0,.15.14.14,0,0,1-.16,0,.29.29,0,0,1-.09-.15.65.65,0,0,1,0-.24.14.14,0,0,0,0-.09s0,0,0,0a.15.15,0,0,1,.05-.14s0-.13,0-.14.06-.07.09-.1A1.65,1.65,0,0,1,120.71,126.51Z"/><ellipse class="cls-13" cx="121.69" cy="126.21" rx="0.42" ry="0.13" transform="translate(-23.89 28.51) rotate(-12.18)"/><ellipse class="cls-13" cx="122.5" cy="126.18" rx="0.07" ry="0.22" transform="translate(-15.35 235.39) rotate(-84.24)"/><path class="cls-2" d="M113.14,127.66s0-1.18,1.64-1.26,3.22.08,4.82-.07a6.25,6.25,0,0,0,3.36-1.08c.62-.51,0,.8-.49,1.27a13.86,13.86,0,0,1-7.06,2.56C112.81,129.19,113.14,127.66,113.14,127.66Z"/><g class="cls-44"><path class="cls-11" d="M116.18,129.45c-.47,0-.93.15-1.4.16a1.23,1.23,0,0,1-1.18-.63.41.41,0,0,1,.05-.43.59.59,0,0,1,.22-.12,5,5,0,0,1,1.55,0,10.24,10.24,0,0,0,4-.85l1.17-.41a5.29,5.29,0,0,0,2.12-1.16,9.87,9.87,0,0,1,.7-.75.19.19,0,0,1,.09,0,.2.2,0,0,1,.18,0c.28.2.24.62.11.94a1.74,1.74,0,0,1-.34.55,2.73,2.73,0,0,1-.58.43,15.83,15.83,0,0,1-6.36,2.47"/></g><path class="cls-12" d="M113.19,127.29a.13.13,0,0,1,.11-.08c.07,0,.13.06.14.13a.39.39,0,0,1,0,.2.43.43,0,0,1,.24-.06.23.23,0,0,1,.14.3.34.34,0,0,1-.29.21.3.3,0,0,1,.2.26.12.12,0,0,1,0,.1.12.12,0,0,1-.14,0,.33.33,0,0,1-.13-.07.11.11,0,0,1,0,.15.15.15,0,0,1-.17,0,.24.24,0,0,1-.11-.13.43.43,0,0,1-.06-.22s0-.07,0-.09l0,0a.14.14,0,0,1,0-.15s0-.12,0-.14,0-.07.06-.12A1.85,1.85,0,0,1,113.19,127.29Z"/><ellipse class="cls-13" cx="114.08" cy="126.77" rx="0.42" ry="0.13" transform="translate(-42.81 59.91) rotate(-24.94)"/><ellipse class="cls-13" cx="114.86" cy="126.57" rx="0.22" ry="0.07" transform="matrix(0.99, -0.12, 0.12, 0.99, -14.56, 14.93)"/><path class="cls-2" d="M106.4,126.18s.2-1.17,1.82-1,3.17.58,4.76.68a6.27,6.27,0,0,0,3.49-.56c.7-.41-.11.79-.67,1.18a13.78,13.78,0,0,1-7.37,1.45C105.84,127.63,106.4,126.18,106.4,126.18Z"/><g class="cls-45"><path class="cls-11" d="M109.14,128.4c-.47-.06-1,0-1.42-.05a1.2,1.2,0,0,1-1.06-.8.42.42,0,0,1,.11-.42.49.49,0,0,1,.24-.08,4.69,4.69,0,0,1,1.52.24,10.19,10.19,0,0,0,4.07-.23l1.22-.23a5.13,5.13,0,0,0,2.27-.82,9.62,9.62,0,0,1,.8-.63.21.21,0,0,1,.1,0,.21.21,0,0,1,.17.07c.25.24.14.66,0,1a2,2,0,0,1-.42.49,2.62,2.62,0,0,1-.64.34,15.79,15.79,0,0,1-6.66,1.47"/></g><path class="cls-12" d="M106.5,125.81a.22.22,0,0,1,.13-.06c.07,0,.11.08.11.15a.34.34,0,0,1-.07.19.4.4,0,0,1,.24,0,.23.23,0,0,1,.1.32.34.34,0,0,1-.32.16.34.34,0,0,1,.16.29.14.14,0,0,1,0,.09.12.12,0,0,1-.14,0,.41.41,0,0,1-.13-.1.09.09,0,0,1,0,.15.15.15,0,0,1-.16,0,.31.31,0,0,1-.1-.15.58.58,0,0,1,0-.23.27.27,0,0,0,0-.09l0,0a.13.13,0,0,1,0-.14.61.61,0,0,1,0-.15s.06-.06.09-.1A1.56,1.56,0,0,1,106.5,125.81Z"/><ellipse class="cls-13" cx="107.47" cy="125.44" rx="0.42" ry="0.13" transform="translate(-30.66 34.86) rotate(-16.16)"/><ellipse class="cls-13" cx="108.27" cy="125.36" rx="0.07" ry="0.22" transform="translate(-20.4 229.67) rotate(-88.22)"/><path class="cls-2" d="M96.18,131.25s.2-1.16,1.82-1,3.17.57,4.76.67a6.38,6.38,0,0,0,3.49-.55c.7-.42-.11.78-.67,1.17A13.78,13.78,0,0,1,98.21,133C95.62,132.71,96.18,131.25,96.18,131.25Z"/><g class="cls-46"><path class="cls-11" d="M98.92,133.47c-.47-.06-1,0-1.42-.05a1.2,1.2,0,0,1-1.06-.8.42.42,0,0,1,.11-.42.49.49,0,0,1,.24-.08,4.79,4.79,0,0,1,1.53.24,10.15,10.15,0,0,0,4.06-.23l1.22-.23a5.25,5.25,0,0,0,2.27-.81,8,8,0,0,1,.8-.64l.1,0a.19.19,0,0,1,.17.08c.25.24.14.65,0,.94a1.83,1.83,0,0,1-.42.5,2.43,2.43,0,0,1-.64.33,15.8,15.8,0,0,1-6.66,1.48"/></g><path class="cls-12" d="M96.29,130.88a.17.17,0,0,1,.12-.06c.07,0,.12.08.12.15a.46.46,0,0,1-.08.19.39.39,0,0,1,.24,0,.22.22,0,0,1,.1.31.34.34,0,0,1-.32.16.35.35,0,0,1,.16.29.17.17,0,0,1,0,.1.12.12,0,0,1-.14,0,.29.29,0,0,1-.12-.1.1.1,0,0,1,0,.15.15.15,0,0,1-.16,0,.28.28,0,0,1-.1-.14.65.65,0,0,1,0-.24.27.27,0,0,0,0-.09s0,0,0,0a.12.12,0,0,1,0-.14s0-.13,0-.14,0-.07.08-.11A1.4,1.4,0,0,1,96.29,130.88Z"/><ellipse class="cls-13" cx="97.25" cy="130.51" rx="0.42" ry="0.13" transform="translate(-32.48 32.22) rotate(-16.16)"/><ellipse class="cls-13" cx="98.05" cy="130.43" rx="0.07" ry="0.22" transform="translate(-35.37 224.37) rotate(-88.22)"/><path class="cls-2" d="M96.79,127.27s.21-1.16,1.82-1,3.17.58,4.77.68a6.36,6.36,0,0,0,3.48-.55c.7-.42-.1.78-.67,1.17A13.76,13.76,0,0,1,98.82,129C96.23,128.73,96.79,127.27,96.79,127.27Z"/><g class="cls-47"><path class="cls-11" d="M99.53,129.49c-.47-.06-1,0-1.41-.05a1.21,1.21,0,0,1-1.07-.8.42.42,0,0,1,.11-.42.53.53,0,0,1,.24-.08,4.79,4.79,0,0,1,1.53.24,10.21,10.21,0,0,0,4.07-.23l1.21-.23a5.33,5.33,0,0,0,2.28-.81,7.9,7.9,0,0,1,.79-.64.25.25,0,0,1,.11,0,.21.21,0,0,1,.17.08c.24.23.13.65,0,.94a1.83,1.83,0,0,1-.42.5,2.91,2.91,0,0,1-.63.33,15.88,15.88,0,0,1-6.67,1.48"/></g><path class="cls-12" d="M96.9,126.9a.17.17,0,0,1,.12-.06c.07,0,.12.08.12.15a.36.36,0,0,1-.08.19.5.5,0,0,1,.24,0,.23.23,0,0,1,.1.32.24.24,0,1,0-.16.45.13.13,0,0,1,0,.1.12.12,0,0,1-.14,0A.29.29,0,0,1,97,128a.1.1,0,0,1,0,.15.16.16,0,0,1-.16,0,.24.24,0,0,1-.09-.14.5.5,0,0,1,0-.24.27.27,0,0,0,0-.09s0,0,0-.05a.12.12,0,0,1,0-.14s0-.13,0-.14,0-.07.08-.11A1.61,1.61,0,0,1,96.9,126.9Z"/><ellipse class="cls-13" cx="97.86" cy="126.53" rx="0.42" ry="0.13" transform="translate(-31.35 32.23) rotate(-16.16)"/><ellipse class="cls-13" cx="98.66" cy="126.45" rx="0.07" ry="0.22" transform="translate(-30.8 221.13) rotate(-88.22)"/><path class="cls-2" d="M106,128.36s.2-1.16,1.82-1,3.17.57,4.76.67a6.38,6.38,0,0,0,3.49-.55c.7-.42-.11.78-.67,1.17a13.76,13.76,0,0,1-7.37,1.46C105.42,129.82,106,128.36,106,128.36Z"/><g class="cls-48"><path class="cls-11" d="M108.72,130.59c-.47-.07-1,0-1.42-.06a1.19,1.19,0,0,1-1.06-.79.43.43,0,0,1,.11-.43.4.4,0,0,1,.24-.07,4.68,4.68,0,0,1,1.52.23,10.37,10.37,0,0,0,4.07-.22l1.22-.24a5.25,5.25,0,0,0,2.27-.81,8,8,0,0,1,.8-.64l.1,0a.21.21,0,0,1,.17.08c.25.24.14.65,0,.94a2,2,0,0,1-.42.5,2.43,2.43,0,0,1-.64.33,15.65,15.65,0,0,1-6.66,1.48"/></g><path class="cls-12" d="M106.09,128a.15.15,0,0,1,.12-.07.13.13,0,0,1,.11.15.37.37,0,0,1-.07.2.33.33,0,0,1,.24,0,.23.23,0,0,1,.1.32.34.34,0,0,1-.32.15.35.35,0,0,1,.16.29.17.17,0,0,1,0,.1.12.12,0,0,1-.14,0,.6.6,0,0,1-.13-.09c.05,0,0,.11,0,.15a.14.14,0,0,1-.16,0,.28.28,0,0,1-.1-.14.62.62,0,0,1,0-.23s0-.07,0-.09l0-.06a.15.15,0,0,1,0-.14s0-.13,0-.14,0-.07.08-.11A1.11,1.11,0,0,1,106.09,128Z"/><ellipse class="cls-13" cx="107.05" cy="127.62" rx="0.42" ry="0.13" transform="translate(-31.29 34.83) rotate(-16.16)"/><ellipse class="cls-13" cx="107.85" cy="127.54" rx="0.07" ry="0.22" transform="translate(-22.99 231.37) rotate(-88.22)"/><path class="cls-2" d="M135.24,135.35s-.5-1.07-2-.5-2.92,1.37-4.43,1.88a6.35,6.35,0,0,1-3.51.37c-.78-.22.3.73,1,1a13.86,13.86,0,0,0,7.49-.5C136.15,136.61,135.24,135.35,135.24,135.35Z"/><g class="cls-49"><path class="cls-11" d="M133.17,138.21c.43-.19.91-.24,1.35-.42a1.22,1.22,0,0,0,.82-1,.44.44,0,0,0-.22-.38.52.52,0,0,0-.25,0,5.05,5.05,0,0,0-1.41.62,10.19,10.19,0,0,1-4,.84l-1.23.08a5.28,5.28,0,0,1-2.41-.19,7,7,0,0,0-.94-.41.17.17,0,0,0-.1,0,.22.22,0,0,0-.15.11.78.78,0,0,0,.28.9,1.78,1.78,0,0,0,.53.38,3.24,3.24,0,0,0,.7.16,15.82,15.82,0,0,0,6.82-.3"/></g><path class="cls-12" d="M135,135a.22.22,0,0,0-.14,0,.15.15,0,0,0-.07.18.48.48,0,0,0,.12.17.34.34,0,0,0-.24,0,.23.23,0,0,0,0,.33.34.34,0,0,0,.35.07.34.34,0,0,0-.08.32.13.13,0,0,0,.05.09.12.12,0,0,0,.15,0,.34.34,0,0,0,.09-.12.11.11,0,0,0,.06.14.15.15,0,0,0,.16-.06.28.28,0,0,0,.05-.16.45.45,0,0,0,0-.23.32.32,0,0,1,0-.09s0,0,0-.06a.12.12,0,0,0-.08-.12s0-.13,0-.14-.07-.06-.11-.09S135.14,135.08,135,135Z"/><ellipse class="cls-13" cx="134.01" cy="134.91" rx="0.13" ry="0.42" transform="translate(-3.63 266.12) rotate(-88.82)"/><ellipse class="cls-13" cx="133.22" cy="135.04" rx="0.22" ry="0.07" transform="translate(-33.28 44.16) rotate(-16.76)"/></svg>