<svg id="Layer_1" data-name="Layer 1" xmlns="http://www.w3.org/2000/svg" viewBox="0 0 16.59 25.13"><defs><style>.cls-1{fill:#ff6801;}.cls-2{fill:#ffeff7;}</style></defs><title>04_a_small_singing_bird</title><polygon class="cls-1" points="0 2.11 10.21 13.5 12.78 16.54 15.17 14.82 2.7 0 0 2.11"/><path class="cls-1" d="M15.92,15.9c1.59,3,.28,6.4-3.12,8.19S4.58,25.4,3,22.38s.5-6.91,3.9-8.7S14.33,12.89,15.92,15.9Z"/><path class="cls-2" d="M4.33,22c1.15.22,1.41-2.53,0-2.54-1.16,0-1.09,1.41-.59,2.1A1,1,0,0,0,4.33,22Z"/><path class="cls-2" d="M9.41,15.32c0-.55-.46-1-1.55-.87A3.85,3.85,0,0,0,5,16.51a1.79,1.79,0,0,0-.2,1.24,1,1,0,0,0,.92.75,1.54,1.54,0,0,0,.78-.36l2-1.42A2,2,0,0,0,9.41,15.32Z"/></svg>