<svg id="Layer_1" data-name="Layer 1" xmlns="http://www.w3.org/2000/svg" xmlns:xlink="http://www.w3.org/1999/xlink" width="170" height="110" viewBox="0 0 170 110">
  <defs>
    <style>
      .cls-1 {
        fill: none;
      }

      .cls-2 {
        fill: #73c9fe;
      }

      .cls-3 {
        fill: #38a4fc;
      }

      .cls-4 {
        fill: #5ea8ff;
      }

      .cls-5 {
        clip-path: url(#clip-path);
      }

      .cls-6 {
        fill: #e61e0c;
      }

      .cls-7 {
        fill: #a31508;
      }

      .cls-8 {
        fill: #fcee21;
      }

      .cls-9 {
        fill: #c61a0a;
      }

      .cls-10 {
        fill: #ff2127;
      }

      .cls-11 {
        fill: #2674cf;
      }

      .cls-12 {
        fill: #d3b05f;
      }

      .cls-13 {
        fill: #fff;
      }

      .cls-14 {
        fill: #2c2e7a;
      }

      .cls-15 {
        fill: #2fb34c;
      }

      .cls-16 {
        fill: #f16939;
      }

      .cls-17 {
        fill: #4c90cd;
      }

      .cls-18 {
        fill: #c6a459;
      }

      .cls-19 {
        fill: #8b683d;
      }

      .cls-20 {
        fill: #dfbc6d;
      }

      .cls-21 {
        fill: #b8b282;
      }

      .cls-22 {
        fill: #4c3422;
      }

      .cls-23 {
        fill: #cca348;
      }

      .cls-24 {
        clip-path: url(#clip-path-2);
      }

      .cls-25 {
        fill: #d3b266;
      }

      .cls-26 {
        fill: #040404;
      }

      .cls-27 {
        fill: #fde3ba;
      }

      .cls-28 {
        fill: #600b0c;
      }

      .cls-29 {
        fill: #d42027;
      }

      .cls-30 {
        fill: #4e2a21;
      }

      .cls-31 {
        fill: #bc9c39;
      }
    </style>
    <clipPath id="clip-path">
      <path id="SVGID" class="cls-1" d="M142.16,62.66h0a1.53,1.53,0,0,1,1.6-1.47l3.47.15a1.53,1.53,0,0,1,.88.32l7.24,5.62a1.53,1.53,0,0,1,.38,2l-9.86,16.81a1.52,1.52,0,0,1-1.18.75c-8.1.72-77.07,6.49-102.82-3.06-23.81-8.83-24.75-34.86-24.6-41.5a1.53,1.53,0,0,1,1.6-1.49l4.75.2a1.53,1.53,0,0,1,1.47,1.6L25,44.68a1.53,1.53,0,0,0,1.5,1.6l99.1,2a1.53,1.53,0,0,1,.69.18l6.47,3.47a1.53,1.53,0,0,1,.81,1.42l-.25,5.91a1.53,1.53,0,0,0,.77,1.4l5.77,3.3A1.53,1.53,0,0,0,142.16,62.66Z"/>
    </clipPath>
    <clipPath id="clip-path-2">
      <path id="SVGID-2" data-name="SVGID" class="cls-1" d="M88.15,13.39a4.78,4.78,0,0,1-.61,1A24.22,24.22,0,0,0,86,17.49a21.47,21.47,0,0,1-1.63,3,5.2,5.2,0,0,0-.87,2.55c0,.18.05.39-.13.53-2-1.37-3.58-3.06-3.83-5.57A6.43,6.43,0,0,1,82,12a3.64,3.64,0,0,1,4.7.11C87.18,12.54,87.66,13,88.15,13.39Z"/>
    </clipPath>
  </defs>
  <title>14_small_boat_moves_slowly</title>
  <g>
    <path class="cls-2" d="M23.22,87.88s-6.59-4.92-6.56-1S23.22,87.88,23.22,87.88Z"/>
    <path class="cls-3" d="M15.93,82.8s-6.19-5.7-6.57-1.7S15.93,82.8,15.93,82.8Z"/>
    <path class="cls-2" d="M23.11,83.17s-4.67-6.55-5.82-2.89S23.11,83.17,23.11,83.17Z"/>
    <path class="cls-2" d="M15.28,75.28s-.57-7.75-3.36-5.3S15.28,75.28,15.28,75.28Z"/>
  </g>
  <g>
    <path class="cls-4" d="M17.63,49.65s2.83,36.23,11.94,37.41S49.7,85,41.35,81.6,20.79,65.71,17.63,49.65Z"/>
    <g class="cls-5">
      <rect class="cls-6" x="10.12" y="37.15" width="16.22" height="34.36" transform="translate(34.13 109.39) rotate(-177.55)"/>
      <rect class="cls-7" x="122.29" y="46.62" width="33.47" height="34.36" transform="translate(275.2 133.5) rotate(-177.55)"/>
      <polygon class="cls-8" points="8.54 45.41 29.11 46.29 43.45 12.51 10.01 11.08 8.54 45.41"/>
      <polygon class="cls-6" points="24.4 77.53 123.98 81.21 125.4 47.95 25.21 45.07 24.4 77.53"/>
      <rect class="cls-9" x="15.58" y="46.8" width="121.43" height="2.94" transform="translate(151.48 98.26) rotate(-178.7)"/>
      <g>
        <polygon class="cls-9" points="92.85 90.89 123.8 92.21 126.17 70.58 102.59 53.26 94.42 54.23 92.85 90.89"/>
        <polygon class="cls-10" points="132.32 82.18 141.91 80.67 102.58 53.27 94.35 54.14 132.32 82.18"/>
      </g>
      <g>
        <polygon class="cls-9" points="54.28 89.23 85.23 90.56 87.61 68.93 64.03 51.61 55.85 52.58 54.28 89.23"/>
        <polygon class="cls-10" points="93.75 80.52 103.34 79.02 64.02 51.62 55.78 52.49 93.75 80.52"/>
      </g>
      <path class="cls-9" d="M158.25,65.45S70.71,79.1,28.46,55.23C18.32,49,17.29,45.58,16.31,44.76c-.23,5.39,8.25,22.66,8.25,22.66l5.83,7.19,126,5.4Z"/>
      <path class="cls-11" d="M164.54,67.88S105,78.66,58.18,68.25,2.44,36.89,2.44,36.89L15.87,88.75,157.3,94.81Z"/>
    </g>
  </g>
  <g>
    <path class="cls-12" d="M119.87,60.6a12.53,12.53,0,0,0,1.9-2.8,18.58,18.58,0,0,0,1.82-5.66,8.74,8.74,0,0,0-.12-1.65,6.57,6.57,0,0,1,2.3-5.18,10.73,10.73,0,0,1,3.32-2c.15-.06.28-.13.36.12a10.32,10.32,0,0,1,.58,3.06,4.08,4.08,0,0,1-1.67,3.38c-.52.42-1.06.83-1.57,1.26a3.59,3.59,0,0,0-1.07,1.68A24.74,24.74,0,0,1,121,61.41a4.72,4.72,0,0,1-.39.39,18.47,18.47,0,0,1-5.93,3.7c-2.33,1-4.56-.52-6.3-2.27a13.77,13.77,0,0,1-1.54-1.85l1.39-.62a.81.81,0,0,0,.09.22,10.26,10.26,0,0,0,3.38,2.86,2.94,2.94,0,0,0,2.28.46A14.74,14.74,0,0,0,119.87,60.6Z"/>
    <g>
      <path class="cls-13" d="M78,51.58s-.68-.25-1.45-2.62c-.48-1.34-1.21-3.39-3-3.75s-2.72,2.12-2.84,3.37,0,6.6.94,7.2a8.26,8.26,0,0,0,3.41.16C75.6,55.79,78.51,52.3,78,51.58Z"/>
      <path class="cls-12" d="M89.39,51.19q.67.06,1.34.16A16.59,16.59,0,0,1,94,52.1c1.14.43,1.11,1.93.87,2.94a3.17,3.17,0,0,1-.78,1.34c-.55.61-1.54,1-1.93,1.73a17.14,17.14,0,0,0-.55,2.52A3.82,3.82,0,0,1,89,63.31,1.68,1.68,0,0,1,88,63.22a2.19,2.19,0,0,1-1-1.64,4.46,4.46,0,0,0-.59-1.87c-.85-1.14-2.27-.71-3.46-.79a20,20,0,0,1-4.58-1.07,10.2,10.2,0,0,1-3.28-1.91c-.15-.12-.1-.31-.15-.47a2.53,2.53,0,0,1,0-1.79c.24-.6.38-.7,1-.71a1.45,1.45,0,0,0,1.64-1.2c.1-.31.21-.37.53-.29,2.23.53,3.76.11,6-.18A24.06,24.06,0,0,1,89.39,51.19Z"/>
      <path class="cls-14" d="M73.54,45.21a3,3,0,0,0-1,.56A4.53,4.53,0,0,0,71.36,48a14,14,0,0,0,.27,7.7.87.87,0,0,1,0,.12,3.86,3.86,0,0,1-.79-.25c-.12,0-.14-.13-.16-.24a17.87,17.87,0,0,1-.37-7.3,4.74,4.74,0,0,1,.77-2A2,2,0,0,1,73.54,45.21Z"/>
      <path class="cls-15" d="M74.26,51a7.34,7.34,0,0,1,1.37-2.72,1.24,1.24,0,0,1,.3-.23c.16-.1.3-.1.36.13a.72.72,0,0,0,0,.1,2,2,0,0,1,.24.64c0,.27-.34.23-.5.38a3.75,3.75,0,0,0-1,1.73,3.84,3.84,0,0,0-.11.47.38.38,0,0,1-.36.31c-.2,0-.27-.15-.31-.31A3.23,3.23,0,0,1,74.26,51Z"/>
      <path class="cls-16" d="M73.63,49.3a4.56,4.56,0,0,1,1.5-2.47c.23-.17.39-.14.51.12l.05.09c.27.48.27.48-.16.82a4.66,4.66,0,0,0-1.33,2c-.06.14,0,.41-.27.37s-.23-.26-.27-.44A1.82,1.82,0,0,1,73.63,49.3Z"/>
      <path class="cls-17" d="M72.9,47.69a3.37,3.37,0,0,1,1.41-1.93c.24-.14.8.19.86.48,0,.12-.06.14-.13.17a3,3,0,0,0-1.42,1.69c-.07.15-.07.4-.34.36s-.3-.23-.34-.43S72.91,47.83,72.9,47.69Z"/>
    </g>
    <g>
      <path class="cls-18" d="M86.6,29.23c.38,1.38-.35,1.48.47,2.66.5.73-.53,1.16-.09,1.93.08.14.2.27.16.45-.94-.57-1.87-1.16-2.82-1.72-2-1.19-7.49-4.18-9.6-5.17a8.09,8.09,0,0,0-2.48-.53,4,4,0,0,0-1.87.2A2,2,0,0,1,69,27a1.88,1.88,0,0,1-1-2.76c.08-.17.15-.27,0-.45a1.53,1.53,0,0,1,.11-2.49.83.83,0,0,0,.34-.69A1.86,1.86,0,0,1,71,19.12c.14.07.2.07.31,0a1.71,1.71,0,0,1,2.92.5c.46,1,1.06,1.81,1.61,2.71a2.93,2.93,0,0,0,1.25,1.11,23.28,23.28,0,0,1,2.87,2C80.14,25.55,86.46,29.13,86.6,29.23ZM71.19,23.5a8.39,8.39,0,0,0,.71,2c.14.27.34.51.67.48a.89.89,0,0,0,.89-.59,3.32,3.32,0,0,1,1-1.64.9.9,0,0,0,.2-1c-.13-.34-.47-.34-.77-.37s-.9,0-1.35-.06A1.31,1.31,0,0,0,71.19,23.5Zm-1.8.17c.56,0,1-.21,1-.59a1.09,1.09,0,0,0-.94-1,.9.9,0,0,0-1,.73C68.38,23.26,68.8,23.63,69.39,23.67Zm4.14-3.16a1.35,1.35,0,0,0-.35-1,.59.59,0,0,0-1,.17,1.15,1.15,0,0,0,.09,1.12c.17.29.39.53.75.46S73.49,20.88,73.53,20.51Zm-3.9,5.7a1.12,1.12,0,0,0,1-.39.58.58,0,0,0-.24-1,1.26,1.26,0,0,0-1,.12.77.77,0,0,0-.5.78C68.88,26,69.15,26.18,69.63,26.21Zm1-4.44c.68,0,1-.32.8-.8a1.35,1.35,0,0,0-1.1-.82.59.59,0,0,0-.62.85A1.14,1.14,0,0,0,70.59,21.77Z"/>
      <path class="cls-19" d="M71.19,23.5a1.31,1.31,0,0,1,1.37-1.19c.46.08.91,0,1.35.06s.64,0,.77.37a.9.9,0,0,1-.2,1,3.32,3.32,0,0,0-1,1.64.89.89,0,0,1-.89.59c-.32,0-.52-.22-.67-.48A8.39,8.39,0,0,1,71.19,23.5Z"/>
      <path class="cls-19" d="M69.39,23.67c-.58,0-1-.41-1-.85a.9.9,0,0,1,1-.73,1.09,1.09,0,0,1,.94,1C70.36,23.46,69.94,23.71,69.39,23.67Z"/>
      <path class="cls-19" d="M73.53,20.51c0,.37-.16.69-.54.76s-.58-.17-.75-.46a1.15,1.15,0,0,1-.09-1.12.59.59,0,0,1,1-.17A1.35,1.35,0,0,1,73.53,20.51Z"/>
      <path class="cls-19" d="M69.63,26.21c-.48,0-.75-.2-.77-.51a.77.77,0,0,1,.5-.78,1.26,1.26,0,0,1,1-.12.58.58,0,0,1,.24,1A1.12,1.12,0,0,1,69.63,26.21Z"/>
      <path class="cls-19" d="M70.59,21.77a1.14,1.14,0,0,1-.92-.77.59.59,0,0,1,.62-.85,1.35,1.35,0,0,1,1.1.82C71.56,21.46,71.27,21.82,70.59,21.77Z"/>
    </g>
    <g>
      <path class="cls-20" d="M107.66,64.29l.13-.15a5.55,5.55,0,0,0,1-1.67,6.2,6.2,0,0,0,.24-1.34c0-.33.11-.65.15-1a16.26,16.26,0,0,0-.23-4.84c-.3-1.58-.78-3.13-1-4.73-.46-3-.57-6.09-1-9.12a15.46,15.46,0,0,0-1.12-3.9c-.24-.58-.27-.91-.83-1.28a5.75,5.75,0,0,0-2.1-.9,7.94,7.94,0,0,0-2.34-.29,8.77,8.77,0,0,1-2,.09c-2.19-.24-4.38-.55-6.56-.83L89.57,34c-.16,0-.71-.19-.86-.1a22.69,22.69,0,0,0-1.11,3.12,85.11,85.11,0,0,0-2.15,12.85c-.27,2.43.49,7.1.93,9.53a8.42,8.42,0,0,0,.73,2.22,2.82,2.82,0,0,0,.18.32,6.89,6.89,0,0,0,3.06,2.46,15.47,15.47,0,0,0,4.31,1.16c.22,0,.44.08.66.12l1.27.16,1.18.09c.69,0,1.38.11,2.07.1a8.56,8.56,0,0,0,1.29-.23c.51-.09,1-.22,1.55-.27a3.27,3.27,0,0,1,1,.09,4.79,4.79,0,0,0,2.78-.46A4.42,4.42,0,0,0,107.66,64.29Z"/>
      <path class="cls-21" d="M89.24,36.65c1,1,2,.31,3.14.31,5.52,0,8,6.72,7.14,11.36-.78,4-2.07,9.95-6.28,11.8-3.84,1.69-6.71-3.7-7.17-6.86a23.45,23.45,0,0,1,.42-7c.48-3,.87-6.55,2.4-9.17A.84.84,0,0,1,89.24,36.65Z"/>
    </g>
    <path class="cls-13" d="M107.59,32.66c0,.08-.13.07-.2.07S107.51,32.63,107.59,32.66Z"/>
    <path class="cls-13" d="M107.67,32.59c0,.07,0,.07-.09.08S107.62,32.58,107.67,32.59Z"/>
    <path class="cls-22" d="M110.37,20.54l-.05.06Z"/>
    <g>
      <g>
        <path class="cls-23" d="M88.15,13.39a4.78,4.78,0,0,1-.61,1A24.22,24.22,0,0,0,86,17.49a21.47,21.47,0,0,1-1.63,3,5.2,5.2,0,0,0-.87,2.55c0,.18.05.39-.13.53-2-1.37-3.58-3.06-3.83-5.57A6.43,6.43,0,0,1,82,12a3.64,3.64,0,0,1,4.7.11C87.18,12.54,87.66,13,88.15,13.39Z"/>
        <path class="cls-22" d="M83.06,19.53l.06-.13C83,19.41,83.06,19.47,83.06,19.53Z"/>
        <g class="cls-24">
          <path class="cls-19" d="M83.06,19.53A6.12,6.12,0,0,0,82.65,21a3.19,3.19,0,0,0,1.18,3s0,.06.05.1h0a.14.14,0,0,1,.16.07l.88.37a20,20,0,0,1,1.93-2.42,2.31,2.31,0,0,0,.35-2.45,1.06,1.06,0,0,1-.13-.43l0-.06h0a1.93,1.93,0,0,1-.51-.37A2.06,2.06,0,0,0,84,18.66c-.33.2-.54.52-.85.74h0Z"/>
          <path class="cls-22" d="M83.12,19.4c.31-.22.51-.54.85-.74a2.06,2.06,0,0,1,2.56.16,1.93,1.93,0,0,0,.51.37,3.13,3.13,0,0,0-1.7-1.8,4,4,0,0,0-3.16,0,7.73,7.73,0,0,1,2.87.3A2.83,2.83,0,0,0,83.12,19.4Z"/>
        </g>
      </g>
      <g>
        <path class="cls-22" d="M114.22,21.26c-.28-.25-.44-.6-.75-.84a2.06,2.06,0,0,0-2.56-.17,1.93,1.93,0,0,1-.56.3A3.13,3.13,0,0,1,112.28,19a4,4,0,0,1,3.13.44,7.73,7.73,0,0,0-2.89-.07A2.83,2.83,0,0,1,114.22,21.26Z"/>
        <path class="cls-19" d="M114.26,21.39a6.12,6.12,0,0,1,.22,1.5,3.19,3.19,0,0,1-1.57,2.86s0,.06-.06.09h0a.32.32,0,0,1-.17.05l-.92.26a20,20,0,0,0-1.6-2.65,2.31,2.31,0,0,1,0-2.48,1.06,1.06,0,0,0,.18-.41l.05-.06h0a1.93,1.93,0,0,0,.56-.3,2.06,2.06,0,0,1,2.56.17c.31.24.47.59.75.84h0Z"/>
        <g>
          <path class="cls-25" d="M118.91,15.8a3.7,3.7,0,0,0-3.68-1.56,6.27,6.27,0,0,0-2,.83,3.81,3.81,0,0,1-2.15.51,3.89,3.89,0,0,1-1.87-.77,33.12,33.12,0,0,0-6.54-3.3.45.45,0,0,1-.35-.46,2.25,2.25,0,0,0-.44-1.43,2.18,2.18,0,0,1-.42-2c0-.13,0-.25.08-.45a2.86,2.86,0,0,0-.7.7,5.62,5.62,0,0,0-.68,1.44,2.71,2.71,0,0,1-.51,1c-.14.15-.24.15-.33-.06a2.49,2.49,0,0,1-.15-1,9.11,9.11,0,0,0-.1-2.08,3.55,3.55,0,0,0-.94-1.8,3.16,3.16,0,0,1-.29,1.44A11.86,11.86,0,0,1,97,8.3a2.88,2.88,0,0,0-.63,1.6,2.62,2.62,0,0,1-.7-1.51,5,5,0,0,1,0-1.64,1.73,1.73,0,0,0-.74.4A6.11,6.11,0,0,0,93.21,9.7a1,1,0,0,1-.56.61,22,22,0,0,0-3.45,2.15c-3.8,2.9-6.91,8.54-5.59,13.37q.15.57.35,1.12h0a12.74,12.74,0,0,1,.93,4.76,14.41,14.41,0,0,0,2.34,6.14,11.18,11.18,0,0,0,6.26,1.86,7.57,7.57,0,0,0,5-2.22c1.88-1.75,4.12-2.51,6.47-3.37a12.24,12.24,0,0,0,4.79-2.65c.88-.92,2.61-4.08,2.05-5.32a20,20,0,0,0-1.6-2.65,2.31,2.31,0,0,1,0-2.48,1.06,1.06,0,0,0,.18-.41l.05-.06h0A3.13,3.13,0,0,1,112.28,19a4,4,0,0,1,3.13.44,7.73,7.73,0,0,0-2.89-.07,2.83,2.83,0,0,1,1.7,1.9.8.8,0,0,0,0,.14,6.12,6.12,0,0,1,.22,1.5,3.19,3.19,0,0,1-1.57,2.86s0,.06-.06.09a5.5,5.5,0,0,0,1.52-.29,9.51,9.51,0,0,0,3.93-2C120.68,21.44,120.36,17.72,118.91,15.8Z"/>
          <polygon class="cls-25" points="114.22 21.26 114.22 21.25 114.22 21.25 114.22 21.26"/>
        </g>
        <path class="cls-22" d="M102.82,22.15c-.7-1-1.39-2.05-2.73-2.25a4.22,4.22,0,0,0-3.36,1.28,3.94,3.94,0,0,1,.82-1.3,4.72,4.72,0,0,1,1.76-1.36,1.74,1.74,0,0,1,1.89.25A5,5,0,0,1,102.82,22.15Z"/>
        <path class="cls-22" d="M90,20.75a3.09,3.09,0,0,0-5.27-.58,4.08,4.08,0,0,1,2.53-2.53,1.35,1.35,0,0,1,.93.13A4.09,4.09,0,0,1,90,20.75Z"/>
        <path class="cls-18" d="M94.52,23.13A5.66,5.66,0,0,1,89,26.69a5.8,5.8,0,0,0,3.45,2.37A9.07,9.07,0,0,0,94.52,23.13Z"/>
        <g>
          <path class="cls-13" d="M102.52,24.81a2.79,2.79,0,0,1-2.52,3,4.62,4.62,0,0,1-1.59,0,2.82,2.82,0,0,1-2.47-2.4,3.69,3.69,0,0,1,2.14-4,3.33,3.33,0,0,1,4.32,2.48A3.88,3.88,0,0,1,102.52,24.81Z"/>
          <path class="cls-22" d="M98.7,27.23A2.62,2.62,0,1,1,98.55,22a2.62,2.62,0,0,1,.15,5.24Zm-1.61-2.88a.53.53,0,0,0-.14.56A1.71,1.71,0,0,0,98.7,26.4,1.75,1.75,0,0,0,100.28,25a1.67,1.67,0,0,0-1.13-1.85,3.35,3.35,0,0,0-1.17,0c-.48-.34-.92-.32-1.2.06A.79.79,0,0,0,97.09,24.35Z"/>
          <path class="cls-26" d="M98,23.13a3.35,3.35,0,0,1,1.17,0A1.67,1.67,0,0,1,100.28,25,1.75,1.75,0,0,1,98.7,26.4a1.71,1.71,0,0,1-1.76-1.49.53.53,0,0,1,.14-.56.81.81,0,0,0,.92-.26A.82.82,0,0,0,98,23.13Z"/>
          <path class="cls-13" d="M98,23.13a.82.82,0,0,1,0,1,.81.81,0,0,1-.92.26.79.79,0,0,1-.3-1.16C97.07,22.81,97.51,22.79,98,23.13Z"/>
        </g>
        <g>
          <path class="cls-13" d="M89.69,23.42A2.52,2.52,0,0,1,87.23,26a3.34,3.34,0,0,1-1.74-.19,2.19,2.19,0,0,1-1.41-2,5.25,5.25,0,0,1,.3-2.1A2.56,2.56,0,0,1,87,20.3,3,3,0,0,1,89.69,23.42Z"/>
          <path class="cls-22" d="M84.18,23.25a2.38,2.38,0,1,1,2.43,2.33A2.35,2.35,0,0,1,84.18,23.25Zm1-.16c-.19,0-.15.19-.13.3a2,2,0,0,0,.13.46,1.51,1.51,0,0,0,2.58.37,1.53,1.53,0,0,0-.06-2,1.51,1.51,0,0,0-1.76-.34c-.48-.21-.8-.16-1,.18S84.78,22.77,85.17,23.09Z"/>
          <path class="cls-26" d="M85.94,21.91a1.51,1.51,0,0,1,1.76.34,1.53,1.53,0,0,1,.06,2,1.51,1.51,0,0,1-2.58-.37,2,2,0,0,1-.13-.46c0-.12-.06-.26.13-.3a.88.88,0,0,0,.53,0C86.22,22.93,86.32,22.42,85.94,21.91Z"/>
          <path class="cls-13" d="M85.94,21.91c.38.52.28,1-.23,1.21a.88.88,0,0,1-.53,0q-.59-.48-.26-1C85.13,21.75,85.46,21.69,85.94,21.91Z"/>
        </g>
        <g>
          <g>
            <path class="cls-27" d="M97.2,37.28c0,.4,0-.18,0,.22a2.84,2.84,0,0,1-1,1.55,5.23,5.23,0,0,1-4.07.71c-.81-.14-1.61-.32-2.43-.43a3.53,3.53,0,0,1-3-1.8,10.15,10.15,0,0,1-.79-1.71c-.12-.89-.24-1.77-.35-2.66a8.51,8.51,0,0,1-.12-1.29,1.71,1.71,0,0,1,.29.6c.19.7.37,1.41.59,2.1A4,4,0,0,0,89,37.35a10.56,10.56,0,0,0,4.17.43,4.19,4.19,0,0,0,4-3.35,3.1,3.1,0,0,1,.4-1.05,19.9,19.9,0,0,1-.26,3.31C97.25,36.88,97.21,37.08,97.2,37.28Z"/>
            <path class="cls-22" d="M97.52,33.37a3.1,3.1,0,0,0-.4,1.05,4.19,4.19,0,0,1-4,3.35A10.56,10.56,0,0,1,89,37.35a4,4,0,0,1-2.72-2.78c-.22-.69-.4-1.4-.59-2.1a1.71,1.71,0,0,0-.29-.6c0-.14-.14-.26-.06-.41a6,6,0,0,0,1.18,1,2.21,2.21,0,0,0,3.12-.86,3.8,3.8,0,0,0,.33-.86c0-.12-.12-.55,0-.7s.21,0,.25,0a.44.44,0,0,0,0,.31,3.54,3.54,0,0,1,.09.41,5.45,5.45,0,0,0,.32.87,3.07,3.07,0,0,0,1.17,1.33,5.46,5.46,0,0,0,5.56.2.77.77,0,0,0,.31-.3A.86.86,0,0,1,97.52,33.37Zm-8.73,3a11.86,11.86,0,0,0,3.68.64,3.28,3.28,0,0,0,1.44-.13c1.33-.08,3-1.86,3.22-3,0-.06.05-.13,0-.19s-.17,0-.25,0a5.06,5.06,0,0,1-1.93.53,5.51,5.51,0,0,1-3.36-.91,4.93,4.93,0,0,1-1.48-1.5,2.78,2.78,0,0,1-4,1.09l0,0,0,0A4.23,4.23,0,0,0,88.8,36.34Z"/>
            <path class="cls-27" d="M97.65,32.85a.77.77,0,0,1-.31.3,5.46,5.46,0,0,1-5.56-.2,3.9,3.9,0,0,1-1.62-2.72c0-.09-.07-.21.12-.21A3,3,0,0,0,93,28.2l0,0c.49.38,1.08.58,1.6.93a6.87,6.87,0,0,1,2.79,3C97.52,32.36,97.58,32.61,97.65,32.85Z"/>
            <path class="cls-27" d="M87.25,27.48c.09.23.17.47.29.69A3.18,3.18,0,0,0,89.83,30c.22,0,.28.1.24.32a4.47,4.47,0,0,1-.43,1.32,2.21,2.21,0,0,1-3.12.86,6,6,0,0,1-1.18-1h0a.16.16,0,0,0-.07-.15l0,0a.1.1,0,0,0,0,0,1.41,1.41,0,0,1,.25-1C86.07,29.34,86.61,28.38,87.25,27.48Z"/>
            <path class="cls-22" d="M85.27,31.3a.16.16,0,0,1,.07.15C85.22,31.45,85.3,31.36,85.27,31.3Z"/>
            <path class="cls-28" d="M86.15,32.87a2.78,2.78,0,0,0,4-1.09,4.93,4.93,0,0,0,1.48,1.5,5.51,5.51,0,0,0,3.36.91,5.06,5.06,0,0,0,1.93-.53c.08,0,.16-.11.25,0s0,.12,0,.19c-.23,1.17-1.89,2.95-3.22,3a2.33,2.33,0,0,0-1.27-.34,4.64,4.64,0,0,1-2.17-.32,1.54,1.54,0,0,0-1.68.15,4.23,4.23,0,0,1-2.65-3.47Z"/>
            <path class="cls-29" d="M88.8,36.34a1.54,1.54,0,0,1,1.68-.15,4.64,4.64,0,0,0,2.17.32,2.33,2.33,0,0,1,1.27.34,3.28,3.28,0,0,1-1.44.13A11.86,11.86,0,0,1,88.8,36.34Z"/>
          </g>
          <path class="cls-30" d="M93,27.79A1.57,1.57,0,0,1,92.49,29,3.17,3.17,0,0,1,89.9,30a3.6,3.6,0,0,1-2.54-1.5,1.31,1.31,0,0,1-.27-.9,1,1,0,0,1,.41-.7,3,3,0,0,1,.9-.23,6.62,6.62,0,0,1,2,0c.2,0,.87.05,1.07.09a3.82,3.82,0,0,1,.82.27A1.23,1.23,0,0,1,93,27.79Z"/>
        </g>
      </g>
    </g>
    <g>
      <path class="cls-13" d="M89.21,62.93s-1-.42-2.88-2.74c-.42-.41-2.38-2.58-4.48-2.05s-1.75,4.22-.69,6.89,2.79,5.22,3.46,5.08a15.92,15.92,0,0,0,3.89-1.48C89.08,67.4,91.53,64.36,89.21,62.93Z"/>
      <path class="cls-14" d="M81.85,58.13a3.47,3.47,0,0,0-1.1,3.31,15.75,15.75,0,0,0,3.66,8.37c.07.09.18.15.21.29a3.72,3.72,0,0,1-.89.1.33.33,0,0,1-.3-.15,20.65,20.65,0,0,1-3.72-7.61,6.05,6.05,0,0,1-.16-2.12,2.42,2.42,0,0,1,1.94-2.21A.55.55,0,0,1,81.85,58.13Z"/>
      <path class="cls-15" d="M85.23,63.88a8.57,8.57,0,0,1,.27-3.5,1.09,1.09,0,0,1,.23-.37c.13-.14.24-.15.36,0l.05.06c.2.21.49.38.59.62s-.25.43-.36.67a4.2,4.2,0,0,0-.25,2.13,6.42,6.42,0,0,0,.1.66.42.42,0,0,1-.26.48c-.19.09-.33,0-.43-.19S85.33,64.07,85.23,63.88Z"/>
      <path class="cls-16" d="M83.77,62.22a5.24,5.24,0,0,1,.43-3c.25-.45.34-.46.74-.16s.51.39.2,1a5.37,5.37,0,0,0-.48,2.69c0,.18.15.44-.11.52s-.37-.18-.51-.35A2.19,2.19,0,0,1,83.77,62.22Z"/>
      <path class="cls-17" d="M82.31,60.92a3.87,3.87,0,0,1,.56-2.52.88.88,0,0,1,1.19.06c.06.1,0,.15-.05.2a3.56,3.56,0,0,0-.76,2.55c0,.17.05.36-.17.43a.46.46,0,0,1-.49-.19A1.13,1.13,0,0,1,82.31,60.92Z"/>
      <path class="cls-20" d="M97.79,58.26a.39.39,0,0,1-.19.5c-.53.32-1,.65-1.56,1a6.65,6.65,0,0,0-1,.75,8.11,8.11,0,0,1-2.12,1.23,7,7,0,0,1-1.31.58c-.73.19-1.45.41-2.18.56-.31.06-.37.15-.35.45a1.64,1.64,0,0,1-.85,1.76,5.39,5.39,0,0,1-.62.26.58.58,0,0,0-.43.51,4.41,4.41,0,0,0,0,.67A3.2,3.2,0,0,0,88,68.45c.29.33.66.14,1,.18l.12,0a10.82,10.82,0,0,0,4.58-.09c.22,0,.67-.1.81-.14l1-.26a16.23,16.23,0,0,0,2.74-1,24.23,24.23,0,0,1,3.46-1.64S104.27,59.66,97.79,58.26Z"/>
    </g>
  </g>
  <path class="cls-31" d="M100.49,68.94,69.87,14a2.09,2.09,0,0,0-3.65,2L96.84,71a14.78,14.78,0,0,0,1,9.78L110,102.47s2.21,1.5,6.38-.82,4.05-5,4.05-5L108.29,74.94A14.77,14.77,0,0,0,100.49,68.94Z"/>
  <g>
    <path class="cls-2" d="M125,98s6.6,1.77,5.37-1.25S125,98,125,98Z"/>
    <path class="cls-2" d="M137.67,97s4.15,2.81,4,.43S137.67,97,137.67,97Z"/>
    <path class="cls-3" d="M142.84,94.69s4.76,2.62,4.38.05S142.84,94.69,142.84,94.69Z"/>
    <path class="cls-2" d="M130.82,88.37s6.73-1.14,4.36-3.37S130.82,88.37,130.82,88.37Z"/>
    <path class="cls-3" d="M131.24,94.62s8.91,1.15,6.78-2.57S131.24,94.62,131.24,94.62Z"/>
    <path class="cls-2" d="M121,95.57s8.87-1.43,5.77-4.39S121,95.57,121,95.57Z"/>
    <path class="cls-2" d="M139.56,88.13s6.46.07,4.62-2.4S139.56,88.13,139.56,88.13Z"/>
  </g>
  <g>
    <path class="cls-2" d="M106.16,103.36s-5.16-2.75-4.72,0S106.16,103.36,106.16,103.36Z"/>
    <path class="cls-3" d="M97.44,100.43s-5.57-3.74-5.39-.55S97.44,100.43,97.44,100.43Z"/>
    <path class="cls-3" d="M113.27,103.14s-4.58-3.62-4.63-.83S113.27,103.14,113.27,103.14Z"/>
    <path class="cls-2" d="M106.2,98.3s-6.84-7-7.55-2.4S106.2,98.3,106.2,98.3Z"/>
    <path class="cls-2" d="M97.09,96.19s-2.87-6.44-4.49-3.5S97.09,96.19,97.09,96.19Z"/>
  </g>
  <g>
    <path class="cls-2" d="M149.29,86.06s5.57-3.13,5.16-.11S149.29,86.06,149.29,86.06Z"/>
    <path class="cls-3" d="M155.42,82.88s5.35-3.77,5.24-.65S155.42,82.88,155.42,82.88Z"/>
    <path class="cls-2" d="M149.85,82.44s4.26-4.58,4.78-1.64S149.85,82.44,149.85,82.44Z"/>
    <path class="cls-2" d="M156.68,77.15s1.22-5.92,3.12-3.75S156.68,77.15,156.68,77.15Z"/>
  </g>
  <path class="cls-20" d="M99.42,39.94c-.22.5-.91,1.63-.91,1.63C95.91,45.26,96,47,94.26,49.23a2.34,2.34,0,0,1-2.85.6,1.69,1.69,0,0,0-.37-.14,5.41,5.41,0,0,1-2-1.13,2,2,0,0,0-2.43-.49,2,2,0,0,0-1.1,2c0,.16,0,.27-.21.32a1.65,1.65,0,0,0-1,2.51.6.6,0,0,1,0,.62,2,2,0,0,0,1.61,2.7c.28,0,.36.08.43.31a1.42,1.42,0,0,0,1.18,1.14,2.26,2.26,0,0,0,1.76-.44A20.58,20.58,0,0,1,92,55.48a1.15,1.15,0,0,1,.63-.16c.54,0,1.19-1,1.73-1.11,3.62-.72,6.5-7.67,7.44-10.93.27-1,3.44-6.65,3.24-7Z"/>
</svg>
