<svg id="Layer_1" data-name="Layer 1" xmlns="http://www.w3.org/2000/svg" xmlns:xlink="http://www.w3.org/1999/xlink" viewBox="0 0 260 168"><defs><style>.cls-1{fill:#2d2d2d;}.cls-2{fill:#535454;}.cls-3{fill:#0c0c0c;}.cls-4{fill:#fff;}.cls-5{fill:#231f20;}.cls-11,.cls-6{fill:none;stroke:#3f3f3f;stroke-linecap:round;stroke-linejoin:round;}.cls-6{stroke-width:0.39px;}.cls-7{fill:#bc4b4b;}.cls-8{fill:#3a3a3a;}.cls-9{fill:#050505;}.cls-10{fill:#141414;}.cls-11{stroke-width:0.59px;}.cls-12{fill:#1e1e1e;}.cls-13{fill:#fff1e1;}.cls-14{opacity:0.36;fill:url(#radial-gradient);}.cls-15{opacity:0.44;fill:url(#radial-gradient-2);}</style><radialGradient id="radial-gradient" cx="151.36" cy="62.03" r="2.44" gradientUnits="userSpaceOnUse"><stop offset="0.58" stop-color="#c49a6c" stop-opacity="0"/><stop offset="0.62" stop-color="#c89a6c" stop-opacity="0.06"/><stop offset="0.7" stop-color="#d1996c" stop-opacity="0.22"/><stop offset="0.81" stop-color="#e1976c" stop-opacity="0.47"/><stop offset="0.95" stop-color="#f6956c" stop-opacity="0.81"/><stop offset="1" stop-color="#ff946c" stop-opacity="0.95"/></radialGradient><radialGradient id="radial-gradient-2" cx="150.3" cy="60.9" r="0.6" gradientUnits="userSpaceOnUse"><stop offset="0.06" stop-color="#fff" stop-opacity="0"/><stop offset="0.14" stop-color="#fff" stop-opacity="0.06"/><stop offset="0.27" stop-color="#fff" stop-opacity="0.21"/><stop offset="0.46" stop-color="#fff" stop-opacity="0.46"/><stop offset="0.59" stop-color="#fff" stop-opacity="0.65"/><stop offset="0.61" stop-color="#fff" stop-opacity="0.67"/><stop offset="0.71" stop-color="#fff" stop-opacity="0.79"/><stop offset="0.81" stop-color="#fff" stop-opacity="0.88"/><stop offset="0.91" stop-color="#fff" stop-opacity="0.93"/><stop offset="1" stop-color="#fff" stop-opacity="0.95"/></radialGradient></defs><path class="cls-1" d="M181.26,146.93s-5.55-.54-7-.44c0,0-.91-.05-1,.55-.2.86.35,1.31,1.19,1.48s8.39-.11,8.39-.11l.06-1.24Z"/><path class="cls-1" d="M187.68,147.55s1.64-.23,2.28.75a5,5,0,0,0-2.47.46S186.09,148.33,187.68,147.55Z"/><path class="cls-2" d="M189,130.48S181.2,147,181.2,147.71s.88,2.38,2.56,0c1.91-2.69,8.35-15.78,8.35-15.78S191,129.79,189,130.48Z"/><path class="cls-3" d="M178.44,122.79a72.48,72.48,0,0,0,8,11c4.19,4.48,6.6,2.19,5.84-3.64s-1.68-9.9-3.06-12.2-3.77-5.7-8-3.64C176,116.86,178.44,122.79,178.44,122.79Z"/><path class="cls-2" d="M186.12,149.21s-8,.11-11.61,1.1c0,0-2.77.84-3.14-.55s4.81-2.06,4.81-2.06,5.81-1.36,9.94-.47c0,0,1.67,0,1.59.6S188.09,149.46,186.12,149.21Z"/><path class="cls-1" d="M171.69,149.42s-1.6.47-1.78,1.62a5.09,5.09,0,0,1,2.44-.6S173.45,149.48,171.69,149.42Z"/><path class="cls-2" d="M181.2,149.24s-4.39,1.8-4.82,2.82-2.56.59-2.08-.61,1.21-2.56,5.24-3.31C179.54,148.14,181.4,147.51,181.2,149.24Z"/><path class="cls-1" d="M174.54,151.54s-1,1.3-.53,2.35a5,5,0,0,1,1.66-1.89S176,150.58,174.54,151.54Z"/><path class="cls-1" d="M174.33,146.87s-2-.21-2.33.53c0,0,1.76-.26,2.22.25C174.22,147.65,175.09,147.34,174.33,146.87Z"/><path class="cls-3" d="M166.26,58.85S169,42.34,181.77,52.1c13.77,10.53,12.6,36.68,14.64,39.05s22.07,21.06,8.15,36.68-42.12-2-41.78-24.11S170,78.55,166.26,58.85Z"/><circle class="cls-4" cx="173.64" cy="55.61" r="3.52" transform="matrix(0.98, -0.18, 0.18, 0.98, -7.2, 32.38)"/><path class="cls-5" d="M175.52,54.41a2.23,2.23,0,0,0-2.8-.84.9.9,0,0,1,.47.37.89.89,0,0,1-.27,1.23.9.9,0,0,1-1.24-.27,1.63,1.63,0,0,1-.09-.19,2.23,2.23,0,1,0,3.93-.3Z"/><path class="cls-3" d="M203.55,100.05l48.61,36.43s-5.24,3.69-13.79-3.32c0,0-.36,5.8-8.51-.21,0,0-1,6.18-21.8-6.62S203.55,100.05,203.55,100.05Z"/><path class="cls-6" d="M212.23,116.62s15.09,8.17,17.45,14.31"/><path class="cls-6" d="M221,116.62s15.1,8.17,17.45,14.31"/><path class="cls-7" d="M147,68.1s6.71-6,18.57-7.91l5.2,1.31-2,2.63A58.49,58.49,0,0,0,147,68.1Z"/><path class="cls-8" d="M147,68.1a11.51,11.51,0,0,0,3.77-.35c2.12-.54,10.94-3,15.3-2.7s4.49.23,4.81-1.9-.17-2.19-.63-2.62C170.22,60.53,150.48,64.89,147,68.1Z"/><path class="cls-2" d="M168.1,53.84s-5.47,3.23-11.06,2.95-11.22.41-11.85,2.88A64.15,64.15,0,0,1,168,61.59s4,1.19,2.23-1.89S168.21,56.36,168.1,53.84Z"/><ellipse class="cls-9" cx="166.57" cy="56.99" rx="0.31" ry="0.85" transform="translate(41.88 181.28) rotate(-63.8)"/><path class="cls-2" d="M197.86,133.11s-7.77,16.53-7.77,17.22.87,2.39,2.56,0c1.9-2.68,8.34-15.77,8.34-15.77S199.92,132.41,197.86,133.11Z"/><path class="cls-3" d="M187.33,125.42a72.48,72.48,0,0,0,8,11c4.18,4.48,6.59,2.19,5.83-3.65s-1.67-9.9-3-12.19-3.77-5.7-8-3.65C184.88,119.48,187.33,125.42,187.33,125.42Z"/><path class="cls-1" d="M190.15,149.55s-5.56-.54-7-.43c0,0-.91-.05-1.05.54-.2.86.35,1.31,1.19,1.48s8.38-.1,8.38-.1l.07-1.24Z"/><path class="cls-1" d="M196.56,150.18s1.65-.23,2.29.74a5.08,5.08,0,0,0-2.48.46S195,151,196.56,150.18Z"/><path class="cls-2" d="M195,151.84s-8,.1-11.61,1.1c0,0-2.77.83-3.14-.55s4.81-2.07,4.81-2.07,5.81-1.36,9.94-.47c0,0,1.67,0,1.59.6S197,152.09,195,151.84Z"/><path class="cls-1" d="M180.57,152.05s-1.59.47-1.77,1.62a5.09,5.09,0,0,1,2.44-.6S182.34,152.1,180.57,152.05Z"/><path class="cls-2" d="M190.09,151.87s-4.39,1.8-4.82,2.82-2.57.59-2.08-.62,1.21-2.56,5.23-3.3C188.42,150.77,190.29,150.14,190.09,151.87Z"/><path class="cls-1" d="M183.43,154.17s-1,1.3-.53,2.35a5,5,0,0,1,1.66-1.9S184.9,153.2,183.43,154.17Z"/><path class="cls-1" d="M183.22,149.5s-1.95-.22-2.34.53c0,0,1.77-.26,2.23.24C183.11,150.27,184,150,183.22,149.5Z"/><path class="cls-10" d="M178.38,88.18c-3.54,2.29-3.51,8-2.5,11.49,2.31,8.13,10.21,14.17,17.41,17.84a9.63,9.63,0,0,0,3.38,1.12,1.61,1.61,0,0,0,1.67-2.07,8.08,8.08,0,0,0-.58-1.43c2.35,2.71,4.9,5.56,8.43,6.45a1,1,0,0,0,.94-.21c.43-.4.23-.91,0-1.34l-1-2.07a15.23,15.23,0,0,0,6.82,5,5,5,0,0,0,2.35.34,1,1,0,0,0,.82-1.12,7,7,0,0,0-1.24-3.07,21.75,21.75,0,0,0,4,3.64,8.33,8.33,0,0,0,3.24,1.24,1.36,1.36,0,0,0,1.42-1.87,9.63,9.63,0,0,0-1.2-2.15,43.43,43.43,0,0,0,6.21,5,2.55,2.55,0,0,0,.95.39c1.55.28,2-1.15,1.57-2.13-1.41-3.44-4.17-7-6.25-10.15a116,116,0,0,0-8.84-11.72C207,90.91,192.39,79.12,178.38,88.18Z"/><path class="cls-11" d="M185.75,98s9.59,6.81,11.41,16.31"/><path class="cls-11" d="M191.82,96.6s11.81,10,13.89,20.47"/><path class="cls-11" d="M202.1,99.5s10.69,8.51,13,19.25"/><path class="cls-11" d="M211.81,103.62a36.68,36.68,0,0,1,10.68,15.68"/><path class="cls-12" d="M169.2,74l-1.06,4.67c-.09.38.49.54.58.16l1.06-4.67c.09-.38-.5-.54-.58-.16Z"/><path class="cls-12" d="M171,74.3l-.29,1.63a.31.31,0,0,0,.21.37.32.32,0,0,0,.38-.21l.29-1.63a.32.32,0,0,0-.22-.37.32.32,0,0,0-.37.21Z"/><path class="cls-12" d="M174,73.8c-.19,1.3-.35,2.6-.48,3.91a.3.3,0,0,0,.6,0c.13-1.25.28-2.5.46-3.74a.32.32,0,0,0-.21-.38.3.3,0,0,0-.37.21Z"/><path class="cls-12" d="M177.1,74l.14.92a.3.3,0,0,0,.37.21.3.3,0,0,0,.19-.14.37.37,0,0,0,0-.23l-.15-.92a.3.3,0,0,0-.13-.18.29.29,0,0,0-.24,0,.31.31,0,0,0-.18.14.35.35,0,0,0,0,.23Z"/><path class="cls-12" d="M179.71,72.27A29,29,0,0,1,181,80.74a.31.31,0,0,0,.61,0,29.73,29.73,0,0,0-1.29-8.63.3.3,0,0,0-.58.16Z"/><path class="cls-12" d="M183.27,72l1.27,3.61c.13.36.71.21.58-.16l-1.27-3.61c-.13-.36-.71-.21-.58.16Z"/><path class="cls-12" d="M187,71.07c.11.17.21.33.31.51l.12.25s0,.1.07.14,0,0,0,0v0l0,.07a.32.32,0,0,0,.14.18.27.27,0,0,0,.23,0,.29.29,0,0,0,.21-.37,5.28,5.28,0,0,0-.59-1.13.31.31,0,0,0-.18-.14.31.31,0,0,0-.23,0,.3.3,0,0,0-.11.41Z"/><path class="cls-12" d="M164.43,107.4a28.81,28.81,0,0,0,5.29,12.23c.23.3.75,0,.52-.31A28.42,28.42,0,0,1,165,107.24c-.07-.38-.65-.22-.58.16Z"/><path class="cls-12" d="M168.51,113.76a35.74,35.74,0,0,0,8.78,10.7c.3.24.73-.18.43-.43A35.2,35.2,0,0,1,169,113.46a.3.3,0,0,0-.52.3Z"/><path class="cls-12" d="M166.13,101.18a72.15,72.15,0,0,0,1.43,7.14.31.31,0,0,0,.59-.16,72.77,72.77,0,0,1-1.44-7.14c-.05-.38-.64-.22-.58.16Z"/><path class="cls-12" d="M172.21,113.07a34.65,34.65,0,0,0,6.65,5.61c.33.22.63-.31.31-.52a34.49,34.49,0,0,1-6.54-5.52c-.26-.28-.69.14-.42.43Z"/><path class="cls-12" d="M180.42,115.5l3.46,2a.3.3,0,0,0,.31-.52l-3.47-2a.3.3,0,0,0-.3.52Z"/><circle class="cls-13" cx="151.36" cy="62.03" r="2.44"/><circle class="cls-14" cx="151.36" cy="62.03" r="2.44"/><circle class="cls-15" cx="150.3" cy="60.9" r="0.6"/></svg>