<svg id="Layer_2" data-name="Layer 2" xmlns="http://www.w3.org/2000/svg" xmlns:xlink="http://www.w3.org/1999/xlink" viewBox="0 0 260 168"><defs><style>.cls-1{fill:#ea8313;}.cls-2{fill:#f9cc3d;}.cls-3{fill:#893a04;}.cls-4{fill:#893d0a;}.cls-5{fill:#d8730f;}.cls-6{fill:#9e4407;}.cls-7{clip-path:url(#clip-path);}.cls-8{fill:#a05000;}.cls-9{fill:#db7712;}.cls-10{fill:#ce6c0b;}.cls-11{fill:#ff9f2c;}.cls-12,.cls-27,.cls-35{fill:none;stroke-linecap:round;stroke-linejoin:round;}.cls-12{stroke:#f99a10;stroke-width:0.27px;}.cls-13{fill:#f99a10;}.cls-14{fill:#e51a1a;}.cls-15{fill:#561404;}.cls-16{fill:#fff;}.cls-17{clip-path:url(#clip-path-2);}.cls-18{fill:#f7b03e;}.cls-19{fill:#fcd875;}.cls-20{fill:#ffc931;}.cls-21{fill:#f78411;}.cls-22{fill:#f4912f;}.cls-23{fill:#2d2d2d;}.cls-24{fill:#535454;}.cls-25{fill:#0c0c0c;}.cls-26{fill:#231f20;}.cls-27,.cls-35{stroke:#3f3f3f;}.cls-27{stroke-width:0.21px;}.cls-28{fill:#bc4b4b;}.cls-29{fill:#3a3a3a;}.cls-30{fill:#050505;}.cls-31{fill:#fff1e1;}.cls-32{opacity:0.36;fill:url(#radial-gradient);}.cls-33{opacity:0.44;fill:url(#radial-gradient-2);}.cls-34{fill:#141414;}.cls-35{stroke-width:0.31px;}.cls-36{fill:#1e1e1e;}</style><clipPath id="clip-path"><path class="cls-1" d="M101.27,113.25c-1.84-.27-4.24-2.52-5.84-3.47-.54-.31-1.58,1.08-2.05.69-.33.22-1.66.78-1.66.78-11.39-1-17,4.65-17,4.65-3.7-6.36-3.9-.41-3.9-.41-7.19-8.72-6.06-2.46-6.06-2.46-11.39-5.65-4.62,4.1-4.62,4.1-7.9-.1,3.8,8.83,3.8,8.83,2.87,10.47,16.82,10.94,16.82,10.94,4.15,7.21,9.28.33,9.28.33,6.23-1.13,13.82-4.7,13.82-4.7,5.9-3.86,6.11-10.72,4.68-16.89C105.71,116.22,104.1,113.68,101.27,113.25Z"/></clipPath><clipPath id="clip-path-2"><path class="cls-2" d="M110.7,110.65a2.37,2.37,0,0,1-1.75-1.6,2.53,2.53,0,0,0-.54-1.61s.91-.18,1.09-.52c0,0,2.08-2.35,3.91-1.76,0,0,2.26,1.41,1.59,4.88a1.11,1.11,0,0,0-.4-.13S113.51,111.33,110.7,110.65Z"/></clipPath><radialGradient id="radial-gradient" cx="129.11" cy="102.24" r="1.28" gradientUnits="userSpaceOnUse"><stop offset="0.58" stop-color="#c49a6c" stop-opacity="0"/><stop offset="0.62" stop-color="#c89a6c" stop-opacity="0.06"/><stop offset="0.7" stop-color="#d1996c" stop-opacity="0.22"/><stop offset="0.81" stop-color="#e1976c" stop-opacity="0.47"/><stop offset="0.95" stop-color="#f6956c" stop-opacity="0.81"/><stop offset="1" stop-color="#ff946c" stop-opacity="0.95"/></radialGradient><radialGradient id="radial-gradient-2" cx="128.55" cy="101.65" r="0.32" gradientUnits="userSpaceOnUse"><stop offset="0.06" stop-color="#fff" stop-opacity="0"/><stop offset="0.14" stop-color="#fff" stop-opacity="0.06"/><stop offset="0.27" stop-color="#fff" stop-opacity="0.21"/><stop offset="0.46" stop-color="#fff" stop-opacity="0.46"/><stop offset="0.59" stop-color="#fff" stop-opacity="0.65"/><stop offset="0.61" stop-color="#fff" stop-opacity="0.67"/><stop offset="0.71" stop-color="#fff" stop-opacity="0.79"/><stop offset="0.81" stop-color="#fff" stop-opacity="0.88"/><stop offset="0.91" stop-color="#fff" stop-opacity="0.93"/><stop offset="1" stop-color="#fff" stop-opacity="0.95"/></radialGradient></defs><path class="cls-3" d="M86.36,146s5.31-.6,7.36.51-7.56.4-7.56.4Z"/><path class="cls-4" d="M87.77,137.52l-2.85,8.42s-4.55.56-5.41,1.48c0,0-.51.67,1.73.46a34.75,34.75,0,0,1,7.06.16c2.25.27,4.79,1.07,5.89,1.06s-1.25-1.29-2.73-1.59l-1.36-.33s3.33.47,4.38.57-.71-1.7-6-1.84l-1.49,0s2.18-6,2.79-8.58S89.21,134.53,87.77,137.52Z"/><path class="cls-5" d="M84.78,136.71c0,.63.62,1.08,1.15,1.44l1.58,1.1a2.5,2.5,0,0,0,.66.36,1.75,1.75,0,0,0,1.43-.38,4.77,4.77,0,0,0,1.76-4.07,28.68,28.68,0,0,0-6.93.12.51.51,0,0,0-.25.1c-.12.13,0,.34,0,.5l.56,1"/><path class="cls-3" d="M83.59,146.62s5.28-.88,7.38.11-7.53.82-7.53.82Z"/><path class="cls-6" d="M84.55,138.1l-2.4,8.56s-4.51.81-5.32,1.77c0,0-.47.7,1.75.37a34.69,34.69,0,0,1,7.06-.22c2.26.15,4.84.81,5.93.74s-1.31-1.22-2.8-1.44l-1.38-.26s3.35.29,4.4.33-.8-1.66-6.11-1.51l-1.49.11s1.85-6.13,2.33-8.71S85.82,135,84.55,138.1Z"/><path class="cls-1" d="M101.27,113.25c-1.84-.27-4.24-2.52-5.84-3.47-.54-.31-1.58,1.08-2.05.69-.33.22-1.66.78-1.66.78-11.39-1-17,4.65-17,4.65-3.7-6.36-3.9-.41-3.9-.41-7.19-8.72-6.06-2.46-6.06-2.46-11.39-5.65-4.62,4.1-4.62,4.1-7.9-.1,3.8,8.83,3.8,8.83,2.87,10.47,16.82,10.94,16.82,10.94,4.15,7.21,9.28.33,9.28.33,6.23-1.13,13.82-4.7,13.82-4.7,5.9-3.86,6.11-10.72,4.68-16.89C105.71,116.22,104.1,113.68,101.27,113.25Z"/><g class="cls-7"><path class="cls-8" d="M55.51,129.22a14,14,0,0,0,6.92-1.58.7.7,0,0,1,0-1.31,19.08,19.08,0,0,1-2.77-6.15,2.26,2.26,0,0,1-.06-1.18,1.57,1.57,0,0,1,1.5-1,4.59,4.59,0,0,1,1.84.46c-.44-.74-.86-1.49-1.25-2.25a3.85,3.85,0,0,1-.55-1.63,1.47,1.47,0,0,1,.78-1.42,2,2,0,0,1,1.71.32,12.09,12.09,0,0,1,2.7,2.08c-.09-.57-.45-1.06-.55-1.63s.23-1.3.8-1.24a1.26,1.26,0,0,1,.7.44l4.59,4.6a9.14,9.14,0,0,1-.13-2,2.07,2.07,0,0,1,.94-1.63,1.2,1.2,0,0,1,1.66.49,43.82,43.82,0,0,0-3.6-5.17,8,8,0,0,0-1.59-1.6c-1.57-1.09-3.63-1.05-5.53-1-2.41.09-4.93.22-7,1.45a9.13,9.13,0,0,0-4,5.86,17.74,17.74,0,0,0,0,7.22c.46,2.52,1.18,5.19.2,7.55a2.37,2.37,0,0,0,1.34.17l-1.2.43"/><path class="cls-9" d="M89.87,107.86c-.68.5-1.69.45-2.25,1.08a1.77,1.77,0,0,0,.29,2.33,5.09,5.09,0,0,0,2.32,1.09.82.82,0,0,0-.14,1.11,2,2,0,0,0,1,.68,7.48,7.48,0,0,0,2.15.44c-.16,1,1,1.62,1.92,1.83a9.69,9.69,0,0,0,2.58.22,1.31,1.31,0,0,0,.72,1.17,3.68,3.68,0,0,0,1.39.37l3.25.45a1.31,1.31,0,0,0,1.58,1,.83.83,0,0,0,.45.65c.11-.37.68-.31,1-.06s.53.63.91.69c.54.09.93-.49,1.15-1a14.88,14.88,0,0,0,1.48-6.88,8.16,8.16,0,0,0-3.12-6.12,12.27,12.27,0,0,0-3.5-1.57,40,40,0,0,0-5.68-1.43c-1.87-.31-4-.33-5.36,1-.85.86-1.19,2.11-2,3"/></g><ellipse class="cls-10" cx="80.58" cy="116.33" rx="1.73" ry="0.5"/><ellipse class="cls-10" cx="77.48" cy="117.25" rx="1.36" ry="0.39"/><path class="cls-11" d="M100.75,128.89a1.4,1.4,0,0,1-.6.78,4.73,4.73,0,0,1-.93.46,6.65,6.65,0,0,1-1.24.4,3.72,3.72,0,0,0,1.66,0,2.08,2.08,0,0,0,1.27-.94,1,1,0,0,0,0-1,.4.4,0,0,1-.09.2Z"/><path class="cls-11" d="M67.61,129.93a1.48,1.48,0,0,0,.61.79,5,5,0,0,0,.93.46,5.87,5.87,0,0,0,1.23.39,3.67,3.67,0,0,1-1.65,0,2.05,2.05,0,0,1-1.28-1,1,1,0,0,1,0-1,.25.25,0,0,0,.09.2Z"/><path class="cls-11" d="M71.29,133.16a1.39,1.39,0,0,0,.82.55,4.4,4.4,0,0,0,1,.13,6.28,6.28,0,0,0,1.3,0,3.72,3.72,0,0,1-1.58.51,2.07,2.07,0,0,1-1.51-.48,1,1,0,0,1-.31-1,.33.33,0,0,0,.15.16Z"/><path class="cls-11" d="M89.16,117.1a1.47,1.47,0,0,1-.81.58,5.06,5.06,0,0,1-1,.17,7.06,7.06,0,0,1-1.3,0,3.63,3.63,0,0,0,1.59.45,2.05,2.05,0,0,0,1.5-.53,1,1,0,0,0,.28-1,.38.38,0,0,1-.15.16Z"/><path class="cls-11" d="M92.89,117.1a1.49,1.49,0,0,1-.53.84,5,5,0,0,1-.89.54,7,7,0,0,1-1.19.51,3.8,3.8,0,0,0,1.64-.18,2.08,2.08,0,0,0,1.19-1.06,1,1,0,0,0-.12-1,.4.4,0,0,1-.07.21Z"/><path class="cls-11" d="M103.52,129.06a1.47,1.47,0,0,1-.45.89,4.58,4.58,0,0,1-.82.63,7,7,0,0,1-1.14.62,3.57,3.57,0,0,0,1.62-.34,2,2,0,0,0,1.07-1.17.93.93,0,0,0-.22-1,.33.33,0,0,1,0,.21Z"/><path class="cls-11" d="M106.21,128.1a1.41,1.41,0,0,1-.29,1,4.19,4.19,0,0,1-.71.75,5.28,5.28,0,0,1-1,.81,3.7,3.7,0,0,0,1.54-.61,2.05,2.05,0,0,0,.86-1.34,1,1,0,0,0-.39-1,.34.34,0,0,1,0,.22Z"/><path class="cls-11" d="M76.36,115.42s7-2.22,10.76-1.65Z"/><path class="cls-12" d="M100,120.9a2.23,2.23,0,0,1-2,1.37"/><path class="cls-13" d="M102.83,120.84a2.24,2.24,0,0,1-.73,1.62.15.15,0,0,0,0,.19.15.15,0,0,0,.2,0,2.48,2.48,0,0,0,.79-1.88.15.15,0,0,0-.17-.1.15.15,0,0,0-.09.17Z"/><path class="cls-13" d="M105.89,121.24l0,0,0,0,0,.09v0a.27.27,0,0,1,0,.09v0a.64.64,0,0,0,0,.07.17.17,0,0,0,0,.1.16.16,0,0,0,.08.06.14.14,0,0,0,.11,0,.16.16,0,0,0,.06-.08.43.43,0,0,0,0-.11.11.11,0,0,0,0-.08.38.38,0,0,0-.07-.21A.1.1,0,0,0,106,121a.12.12,0,0,0-.1,0s-.06,0-.06.08a.14.14,0,0,0,0,.11Z"/><path class="cls-13" d="M62,121a11.83,11.83,0,0,0,3,2.27c.15.09.28-.15.13-.24a11.46,11.46,0,0,1-2.91-2.22c-.12-.13-.31.06-.2.19Z"/><path class="cls-13" d="M63.51,120.85l.51.36a.12.12,0,0,0,.18,0,.14.14,0,0,0,0-.19l-.52-.37a.13.13,0,0,0-.18,0,.15.15,0,0,0,0,.19Z"/><path class="cls-13" d="M62.34,115a11,11,0,0,0,6.09,4.51.13.13,0,0,0,.07-.26,10.8,10.8,0,0,1-5.93-4.38c-.1-.15-.33,0-.23.13Z"/><path class="cls-13" d="M65.37,116.32a5.52,5.52,0,0,0,.77.48.14.14,0,0,0,.18,0,.13.13,0,0,0,0-.19,7.39,7.39,0,0,1-.76-.47.13.13,0,0,0-.19,0,.13.13,0,0,0,.05.18Z"/><path class="cls-13" d="M68.41,115.24l.47.4a.13.13,0,0,0,.1,0,.14.14,0,0,0,.1,0,.15.15,0,0,0,0-.19l-.48-.4a.18.18,0,0,0-.09,0,.12.12,0,0,0-.1,0,.13.13,0,0,0,0,.19Z"/><path class="cls-13" d="M73.15,115.12a5.72,5.72,0,0,0,.86,1.1c.12.12.31-.07.19-.19a5.94,5.94,0,0,1-.82-1,.13.13,0,0,0-.23.14Z"/><path class="cls-13" d="M65.92,124.46a3.45,3.45,0,0,0,.39,1.2c.08.15.32,0,.23-.14a2.87,2.87,0,0,1-.34-1.06.14.14,0,1,0-.28,0Z"/><path class="cls-13" d="M65.63,125.28l0,0a.18.18,0,0,0,.1,0,.15.15,0,0,0,.09,0,.13.13,0,0,0,0-.1.11.11,0,0,0,0-.09l0,0a.18.18,0,0,0-.1,0,.21.21,0,0,0-.1,0,.18.18,0,0,0,0,.1.25.25,0,0,0,0,.09Z"/><path class="cls-13" d="M86.29,115l1.13-.2a.14.14,0,0,0,.09-.17.14.14,0,0,0-.17-.1l-1.12.21a.13.13,0,0,0-.1.16.15.15,0,0,0,.17.1Z"/><path class="cls-13" d="M87.15,115.31l0,0a.18.18,0,0,0,0-.1.15.15,0,0,0,0-.09.1.1,0,0,0-.1,0,.1.1,0,0,0-.09,0l0,0a.13.13,0,0,0,0,.1.11.11,0,0,0,0,.09.09.09,0,0,0,.09,0,.13.13,0,0,0,.1,0Z"/><path class="cls-14" d="M112.93,100.35a6.69,6.69,0,0,0-.48-5.51c-1.56-3.26-2.73-1-2.68-.48,0,0-4-3.79-4.3-.55,0,0-4.74-1.22-2.41,2.25l2.66,1.6Z"/><path class="cls-11" d="M90.48,109s3.56-1.67,8.37-9.43,15.31-5,14.5,5.15-4.63,14.38-4.63,14.38-1.1,1.18-3.39-1.1c0,0-6.52,0-4.72-2.64,0,0-6.45.49-5.17-2.26,0,0-4-.25-2.6-1.3C92.84,111.78,86.72,110.26,90.48,109Z"/><path class="cls-14" d="M113.31,102.14s-1.08-3.44-4.57-3.13-4.48,6.2-1.31,7.7c0,0-2-1.24-3.34,1.41s3.53,4.72,7.79,3.12a1,1,0,0,0,.62-.63A20,20,0,0,0,113.31,102.14Z"/><path class="cls-15" d="M109.18,101.29a1.24,1.24,0,0,1-1.21-.46,1.34,1.34,0,0,0,.83.9Z"/><path class="cls-15" d="M108.85,101.64a.85.85,0,0,1-.85-.32s.14.53.58.63Z"/><ellipse class="cls-16" cx="109.85" cy="103.33" rx="2.58" ry="2.01" transform="translate(-22.2 176.18) rotate(-72.13)"/><path d="M111.31,103.22a.6.6,0,0,1-.58.11.6.6,0,0,1-.39-.77.58.58,0,0,1,.27-.34,1.35,1.35,0,0,0-.34-.17,1.57,1.57,0,1,0,1,2A1.46,1.46,0,0,0,111.31,103.22Z"/><path class="cls-15" d="M111.88,102.47s-.41-1.15-1.3-1.4a2.52,2.52,0,0,0-2.34,1,2.16,2.16,0,0,1,2.41-1.18A2,2,0,0,1,111.88,102.47Z"/><path class="cls-14" d="M109.55,110.82a4.52,4.52,0,0,0-2.34,4c-.08,3,6.36,5.42,5.18-4.07C112.39,110.77,110.83,109.18,109.55,110.82Z"/><path class="cls-2" d="M110.7,110.65a2.37,2.37,0,0,1-1.75-1.6,2.53,2.53,0,0,0-.54-1.61s.91-.18,1.09-.52c0,0,2.08-2.35,3.91-1.76,0,0,2.26,1.41,1.59,4.88a1.11,1.11,0,0,0-.4-.13S113.51,111.33,110.7,110.65Z"/><g class="cls-17"><path class="cls-18" d="M107.54,107a8.34,8.34,0,0,0,4.09,1.76,5.9,5.9,0,0,1,3.6,1.71s-2.58,1.94-2.5,2-5-2.38-5-2.38Z"/></g><ellipse class="cls-19" cx="113.56" cy="105.78" rx="0.18" ry="0.41" transform="translate(-40.97 120.12) rotate(-48.27)"/><ellipse class="cls-20" cx="110.35" cy="97.64" rx="0.17" ry="0.54" transform="translate(-29.5 144.04) rotate(-59.85)"/><ellipse class="cls-20" cx="109.85" cy="96.94" rx="0.11" ry="0.23" transform="translate(-16.12 171.75) rotate(-72.13)"/><path class="cls-21" d="M96.55,104a28,28,0,0,1-4.31,4.65c-.13.12.07.31.2.2a28.92,28.92,0,0,0,4.34-4.71c.11-.14-.13-.28-.23-.14Z"/><path class="cls-21" d="M96.34,105.48l-1,1.23a.13.13,0,1,0,.19.19l1-1.23a.15.15,0,0,0,0-.19.14.14,0,0,0-.2,0Z"/><path class="cls-21" d="M95.8,109.43a7.36,7.36,0,0,1-1.51,1.44.14.14,0,1,0,.14.24A8.1,8.1,0,0,0,96,109.63a.15.15,0,0,0,0-.2.15.15,0,0,0-.19,0Z"/><path class="cls-21" d="M102.57,111.37a12.6,12.6,0,0,1-1,1.81c-.09.15.14.28.24.13a14.82,14.82,0,0,0,1-1.8.14.14,0,1,0-.24-.14Z"/><path class="cls-22" d="M95.38,125c-2.24,7.21-10.1,6.19-16.93-.7s-1.17-7.72-1.17-7.72c-4.07-7.94.62-6.86.62-6.86C75.09,99,80,103.36,80,103.36c-2.55-10.63,2.47-8,10.76,5,7.39,11.63,5.14,15.47,5.14,15.47Z"/><path class="cls-1" d="M94.81,120.55c-.8.42-1.71,1-1.73,1.93a2.49,2.49,0,0,0,1.14,1.8,2,2,0,0,0-.94,2,2,2,0,0,0,1.51,1.58c-.57.2-.82.86-1,1.44a.89.89,0,0,0,0,.68.79.79,0,0,0,.84.22,3,3,0,0,0,2.07-1.57,4.7,4.7,0,0,0,.43-1.47,14.5,14.5,0,0,0,.2-2.79,6.33,6.33,0,0,0-.37-2.25,3.08,3.08,0,0,0-1.49-1.68l-.09.4"/><path class="cls-23" d="M144.71,146.59s-2.92-.28-3.67-.22c0,0-.48,0-.55.28-.11.46.18.69.63.78s4.41-.05,4.41-.05l0-.66Z"/><path class="cls-23" d="M148.09,146.92s.87-.12,1.21.4a2.64,2.64,0,0,0-1.3.24S147.26,147.33,148.09,146.92Z"/><path class="cls-24" d="M148.78,137.93s-4.1,8.71-4.1,9.08.46,1.25,1.35,0c1-1.42,4.4-8.32,4.4-8.32A1.41,1.41,0,0,0,148.78,137.93Z"/><path class="cls-25" d="M143.23,133.88a38.39,38.39,0,0,0,4.2,5.79c2.2,2.36,3.47,1.15,3.07-1.92s-.88-5.22-1.61-6.43-2-3-4.2-1.92C141.94,130.75,143.23,133.88,143.23,133.88Z"/><path class="cls-24" d="M147.27,147.8a35.12,35.12,0,0,0-6.11.58s-1.46.44-1.66-.29S142,147,142,147a14.57,14.57,0,0,1,5.23-.25s.89,0,.84.32S148.31,147.93,147.27,147.8Z"/><path class="cls-23" d="M139.67,147.91s-.84.25-.94.86a2.64,2.64,0,0,1,1.29-.32S140.6,147.94,139.67,147.91Z"/><path class="cls-24" d="M144.68,147.81s-2.31,1-2.54,1.49-1.35.31-1.09-.32.64-1.35,2.75-1.74C143.8,147.24,144.79,146.9,144.68,147.81Z"/><path class="cls-23" d="M141.17,149s-.55.68-.28,1.24a2.61,2.61,0,0,1,.88-1S142,148.52,141.17,149Z"/><path class="cls-23" d="M141.06,146.57s-1-.12-1.23.28c0,0,.93-.14,1.17.13C141,147,141.46,146.81,141.06,146.57Z"/><path class="cls-25" d="M136.81,100.17s1.45-8.7,8.17-3.56c7.26,5.55,6.64,19.34,7.72,20.59s11.63,11.1,4.29,19.33-22.19-1.07-22-12.71S138.77,110.56,136.81,100.17Z"/><circle class="cls-16" cx="140.69" cy="98.47" r="1.85"/><path class="cls-26" d="M141.69,97.83a1.18,1.18,0,0,0-1.48-.44.53.53,0,0,1,.25.19.48.48,0,0,1-.14.65.48.48,0,0,1-.66-.14l0-.1a1.19,1.19,0,0,0,.08,1.1,1.18,1.18,0,0,0,2-1.26Z"/><path class="cls-25" d="M156.46,121.89l25.62,19.2s-2.76,1.94-7.26-1.75c0,0-.19,3.06-4.49-.11,0,0-.54,3.26-11.49-3.49S156.46,121.89,156.46,121.89Z"/><path class="cls-27" d="M161,130.62s8,4.31,9.19,7.54"/><path class="cls-27" d="M165.63,130.62s8,4.31,9.2,7.54"/><path class="cls-28" d="M126.64,105.05a20.7,20.7,0,0,1,9.79-4.17l2.74.69-1,1.39A30.78,30.78,0,0,0,126.64,105.05Z"/><path class="cls-29" d="M126.64,105.05a6,6,0,0,0,2-.19c1.11-.28,5.76-1.58,8.06-1.42s2.37.12,2.54-1-.1-1.15-.33-1.38C138.9,101.06,128.49,103.36,126.64,105.05Z"/><path class="cls-24" d="M137.78,97.53A12,12,0,0,1,132,99.09c-2.95-.15-5.92.21-6.25,1.52a33.63,33.63,0,0,1,12,1s2.12.62,1.18-1S137.83,98.86,137.78,97.53Z"/><ellipse class="cls-30" cx="136.97" cy="99.19" rx="0.16" ry="0.45" transform="translate(-12.51 178.29) rotate(-63.8)"/><circle class="cls-31" cx="129.11" cy="102.24" r="1.28"/><circle class="cls-32" cx="129.11" cy="102.24" r="1.28"/><circle class="cls-33" cx="128.55" cy="101.65" r="0.32"/><path class="cls-24" d="M153.46,139.31s-4.09,8.71-4.09,9.08.46,1.26,1.35,0c1-1.42,4.39-8.31,4.39-8.31A1.41,1.41,0,0,0,153.46,139.31Z"/><path class="cls-25" d="M147.91,135.26a38.39,38.39,0,0,0,4.2,5.79c2.21,2.36,3.48,1.15,3.08-1.92s-.89-5.22-1.61-6.43-2-3-4.21-1.92C146.62,132.13,147.91,135.26,147.91,135.26Z"/><path class="cls-23" d="M149.4,148s-2.93-.29-3.68-.23c0,0-.48,0-.55.29s.19.69.63.78,4.42-.06,4.42-.06l0-.65Z"/><path class="cls-23" d="M152.78,148.31s.87-.12,1.2.39a2.64,2.64,0,0,0-1.3.24S151.94,148.72,152.78,148.31Z"/><path class="cls-24" d="M152,149.18a35.21,35.21,0,0,0-6.12.58s-1.46.44-1.65-.29,2.53-1.08,2.53-1.08a14.61,14.61,0,0,1,5.24-.25s.88,0,.84.31S153,149.32,152,149.18Z"/><path class="cls-23" d="M144.35,149.29s-.84.25-.94.86a2.64,2.64,0,0,1,1.29-.32S145.28,149.32,144.35,149.29Z"/><path class="cls-24" d="M149.37,149.2s-2.32,1-2.54,1.49-1.36.31-1.1-.33.64-1.35,2.76-1.74C148.49,148.62,149.47,148.29,149.37,149.2Z"/><path class="cls-23" d="M145.86,150.41s-.55.69-.28,1.24a2.72,2.72,0,0,1,.87-1S146.63,149.9,145.86,150.41Z"/><path class="cls-23" d="M145.75,148s-1-.11-1.24.28c0,0,.93-.14,1.18.13C145.69,148.36,146.15,148.2,145.75,148Z"/><path class="cls-34" d="M143.47,122.12c.29,2.2,3,3.46,4.9,3.78,4.4.74,9.06-1.66,12.43-4.25a5.09,5.09,0,0,0,1.3-1.36.84.84,0,0,0-.61-1.26,4.41,4.41,0,0,0-.81,0c1.83-.51,3.76-1.08,5-2.55a.57.57,0,0,0,.11-.5c-.09-.29-.38-.31-.63-.31h-1.21a8.06,8.06,0,0,0,3.93-2.12,2.57,2.57,0,0,0,.69-1,.52.52,0,0,0-.35-.64,3.66,3.66,0,0,0-1.74-.11,11.41,11.41,0,0,0,2.65-1.1,4.18,4.18,0,0,0,1.32-1.26.72.72,0,0,0-.57-1.1,4.65,4.65,0,0,0-1.29.09,22.79,22.79,0,0,0,3.79-1.83,1.16,1.16,0,0,0,.4-.36c.49-.67-.1-1.2-.66-1.23a34.84,34.84,0,0,0-6.24.68,60.64,60.64,0,0,0-7.58,1.56C151.24,109.09,142.32,113.39,143.47,122.12Z"/><path class="cls-35" d="M149.8,120.82s5.41-3,10.34-1.75"/><path class="cls-35" d="M150.52,117.62s7.43-3.36,12.88-2"/><path class="cls-35" d="M154.22,113.38s6.47-3.16,12.12-1.85"/><path class="cls-35" d="M158.38,109.69a19.29,19.29,0,0,1,9.88-1.54"/><path class="cls-36" d="M138.36,108.13l-.56,2.46c-.05.2.26.29.3.09l.56-2.46c.05-.2-.26-.29-.3-.09Z"/><path class="cls-36" d="M139.28,108.32l-.15.85a.16.16,0,0,0,.11.2.16.16,0,0,0,.2-.11l.15-.86a.16.16,0,0,0-.11-.19.16.16,0,0,0-.2.11Z"/><path class="cls-36" d="M140.87,108.06c-.1.68-.19,1.36-.25,2a.16.16,0,0,0,.16.16.16.16,0,0,0,.16-.16c.06-.66.14-1.32.24-2a.17.17,0,0,0-.11-.2.16.16,0,0,0-.2.12Z"/><path class="cls-36" d="M142.52,108.14l.08.49s0,.07.07.09a.16.16,0,0,0,.12,0,.2.2,0,0,0,.1-.08.16.16,0,0,0,0-.12l-.07-.48a.18.18,0,0,0-.07-.1.15.15,0,0,0-.13,0,.13.13,0,0,0-.09.07.17.17,0,0,0,0,.12Z"/><path class="cls-36" d="M143.9,107.25a15.34,15.34,0,0,1,.66,4.46.16.16,0,0,0,.32,0,15.63,15.63,0,0,0-.68-4.55.16.16,0,0,0-.3.09Z"/><path class="cls-36" d="M145.77,107.09l.67,1.91c.07.19.38.1.31-.09l-.67-1.9c-.07-.19-.38-.11-.31.08Z"/><path class="cls-36" d="M147.75,106.62a2.33,2.33,0,0,1,.17.26l.06.14,0,.07s0,0,0,0v.06a.18.18,0,0,0,.08.09.16.16,0,0,0,.12,0,.17.17,0,0,0,.11-.2,2.85,2.85,0,0,0-.31-.6.23.23,0,0,0-.1-.07.16.16,0,0,0-.12,0,.16.16,0,0,0-.06.22Z"/><path class="cls-36" d="M135.84,125.76a15.15,15.15,0,0,0,2.79,6.45c.12.16.4,0,.27-.17a15,15,0,0,1-2.75-6.36c0-.2-.34-.12-.31.08Z"/><path class="cls-36" d="M138,129.12a18.8,18.8,0,0,0,4.63,5.63c.16.13.39-.09.23-.22a18.49,18.49,0,0,1-4.58-5.57c-.1-.19-.38,0-.28.16Z"/><path class="cls-36" d="M136.74,122.49c.19,1.26.44,2.52.75,3.76,0,.19.36.11.31-.09a36.77,36.77,0,0,1-.75-3.76c0-.2-.34-.12-.31.09Z"/><path class="cls-36" d="M139.94,128.75a18.43,18.43,0,0,0,3.51,3c.17.11.33-.16.16-.28a18,18,0,0,1-3.44-2.91c-.14-.15-.37.08-.23.23Z"/><path class="cls-36" d="M144.27,130l1.83,1.08c.17.11.33-.17.16-.27l-1.83-1.08a.16.16,0,0,0-.16.27Z"/></svg>