<svg id="Layer_1" data-name="Layer 1" xmlns="http://www.w3.org/2000/svg" xmlns:xlink="http://www.w3.org/1999/xlink" viewBox="0 0 260 168"><defs><style>.cls-1{fill:#535454;}.cls-2{fill:#2d2d2d;}.cls-3{fill:#0c0c0c;}.cls-4{fill:#fff;}.cls-5{fill:#231f20;}.cls-6{fill:#3f3f3f;}.cls-7{clip-path:url(#clip-path);}.cls-8{fill:#6d6d6d;}.cls-9{fill:#050505;}.cls-10{fill:#141414;}.cls-11{fill:none;stroke:#3f3f3f;stroke-linecap:round;stroke-linejoin:round;stroke-width:0.61px;}.cls-12{fill:#1e1e1e;}</style><clipPath id="clip-path"><path class="cls-1" d="M129.56,55A14,14,0,0,0,126,59.66c-1.46,3-7.06,2.77-7.06,2.77s-.9.35-.23,1,4.86-.38,8.48,1.09a10,10,0,0,1,4.89,3.73h0a10,10,0,0,1,3.15-5.28c2.81-2.72,7.06-3.36,7.46-4.18s-.58-.8-.58-.8-5.11,2.29-7.57.06a14,14,0,0,0-5-3"/></clipPath></defs><path d="M118.2,99.8s-6.28,25.34-9.13,31.71-7.6,8.27-2.9-15.2l4.51-20.87,4.16-4.78Z"/><path d="M142.39,99.8s6.28,25.34,9.13,31.71,7.6,8.27,2.9-15.2l-4.51-20.87-4.16-4.78Z"/><path d="M118.24,117.28s-7.83,19.77-6.87,24.35c.75,3.59,5.19,3.37,9.52-3.57,0,0,.43,17.6,9.73,4.59,0,0,9.81,13.4,9.88-4.59,0,0,18.78,18.65,3.18-22.49Z"/><path class="cls-2" d="M118,152.06s-5.8-.56-7.28-.45c0,0-.95-.06-1.1.57-.2.89.37,1.36,1.25,1.54s8.75-.11,8.75-.11l.07-1.29Z"/><path class="cls-2" d="M124.72,152.71s1.72-.23,2.38.78a5.35,5.35,0,0,0-2.58.48S123.06,153.52,124.72,152.71Z"/><path class="cls-1" d="M120.51,133.87s-2.69,18.88-2.48,19.58,1.61,2.11,2.56-.79c1.07-3.26,3.5-18.3,3.5-18.3S122.36,132.55,120.51,133.87Z"/><path class="cls-3" d="M113.67,124.88a76,76,0,0,0,5,13.27c3,5.67,6,4,6.88-2.06s1-10.43.3-13.12-2.22-6.79-7-5.88C112.85,118.22,113.67,124.88,113.67,124.88Z"/><path class="cls-1" d="M123.09,154.45s-8.35.11-12.12,1.15c0,0-2.89.87-3.27-.58s5-2.15,5-2.15,6.06-1.42,10.37-.5c0,0,1.75,0,1.67.63S125.15,154.71,123.09,154.45Z"/><path class="cls-2" d="M108,154.67s-1.66.49-1.85,1.69a5.33,5.33,0,0,1,2.55-.63S109.87,154.72,108,154.67Z"/><path class="cls-1" d="M118,154.48s-4.59,1.88-5,3-2.67.61-2.17-.65,1.27-2.67,5.47-3.45C116.22,153.33,118.16,152.68,118,154.48Z"/><path class="cls-2" d="M111,156.88s-1.08,1.36-.55,2.45a5.33,5.33,0,0,1,1.73-2S112.54,155.87,111,156.88Z"/><path class="cls-2" d="M110.78,152s-2-.23-2.43.55c0,0,1.84-.27,2.32.25C110.67,152.81,111.58,152.49,110.78,152Z"/><path class="cls-2" d="M144.21,152.06s5.8-.56,7.28-.45c0,0,.95-.06,1.09.57.21.89-.37,1.36-1.25,1.54s-8.75-.11-8.75-.11l-.07-1.29Z"/><path class="cls-2" d="M137.51,152.71s-1.72-.23-2.39.78a5.38,5.38,0,0,1,2.59.48S139.17,153.52,137.51,152.71Z"/><path class="cls-1" d="M141.71,133.87s2.7,18.88,2.48,19.58-1.6,2.11-2.55-.79c-1.08-3.26-3.5-18.3-3.5-18.3S139.87,132.55,141.71,133.87Z"/><path class="cls-3" d="M148.56,124.88a76,76,0,0,1-5,13.27c-3,5.67-6,4-6.88-2.06s-1.06-10.43-.3-13.12,2.21-6.79,7-5.88C149.38,118.22,148.56,124.88,148.56,124.88Z"/><path class="cls-1" d="M139.13,154.45s8.36.11,12.13,1.15c0,0,2.89.87,3.27-.58s-5-2.15-5-2.15-6.06-1.42-10.38-.5c0,0-1.74,0-1.66.63S137.07,154.71,139.13,154.45Z"/><path class="cls-2" d="M154.2,154.67s1.67.49,1.86,1.69a5.33,5.33,0,0,0-2.55-.63S152.36,154.72,154.2,154.67Z"/><path class="cls-1" d="M144.27,154.48s4.58,1.88,5,3,2.68.61,2.17-.65-1.26-2.67-5.46-3.45C146,153.33,144.06,152.68,144.27,154.48Z"/><path class="cls-2" d="M151.22,156.88s1.09,1.36.56,2.45a5.3,5.3,0,0,0-1.74-2S149.68,155.87,151.22,156.88Z"/><path class="cls-2" d="M151.44,152s2-.23,2.44.55c0,0-1.84-.27-2.33.25C151.55,152.81,150.65,152.49,151.44,152Z"/><path class="cls-3" d="M151.08,103.21c-2.49-6.1-3.32-16.54-3.45-18.34-1.2-21.41-4.26-37.87-17-37.87-12.43,0-15.79,16.32-17,37.6h0s-.74,11.92-3.47,18.61c-4.91,12,.41,32.2,18.83,32.2v-.2a7.07,7.07,0,0,0,3.34,0v.2C150.67,135.41,156,115.24,151.08,103.21Z"/><ellipse class="cls-4" cx="123.22" cy="57.23" rx="2.3" ry="3.73" transform="translate(-8.63 24.44) rotate(-10.95)"/><ellipse class="cls-5" cx="123.22" cy="57.23" rx="1.45" ry="2.35" transform="translate(-8.63 24.44) rotate(-10.95)"/><ellipse class="cls-4" cx="123.73" cy="56.16" rx="0.43" ry="0.69" transform="translate(-8.41 24.52) rotate(-10.95)"/><ellipse class="cls-4" cx="136.33" cy="54.7" rx="2.3" ry="3.73" transform="translate(-7.91 26.88) rotate(-10.95)"/><ellipse class="cls-5" cx="136.33" cy="54.7" rx="1.45" ry="2.35" transform="translate(-7.91 26.88) rotate(-10.95)"/><ellipse class="cls-4" cx="135.42" cy="53.9" rx="0.43" ry="0.69" transform="translate(-7.77 26.7) rotate(-10.95)"/><path class="cls-6" d="M123.19,64.71c4.11.13,8.8,2.81,8.8,2.81l-1.3-6.71-11.94,2.58S119.09,64.59,123.19,64.71Z"/><path class="cls-6" d="M130.69,60.81l1.3,6.71s3.34-4.24,7.11-5.89,3.63-2.88,3.63-2.88Z"/><path class="cls-1" d="M129.56,55A14,14,0,0,0,126,59.66c-1.46,3-7.06,2.77-7.06,2.77s-.9.35-.23,1,4.86-.38,8.48,1.09a10,10,0,0,1,4.89,3.73h0a10,10,0,0,1,3.15-5.28c2.81-2.72,7.06-3.36,7.46-4.18s-.58-.8-.58-.8-5.11,2.29-7.57.06a14,14,0,0,0-5-3"/><g class="cls-7"><path class="cls-8" d="M126.09,54a2.41,2.41,0,0,0,.74,1.82,19.4,19.4,0,0,1,3.75,6.29,6.38,6.38,0,0,0,.7,1.87.32.32,0,0,0,.14.14c.15.07.31-.1.38-.25a3.7,3.7,0,0,0,.15-2,17.56,17.56,0,0,1-.31-5.25,12.22,12.22,0,0,0,.58-3.56.72.72,0,0,0-.11-.33.73.73,0,0,0-.38-.24,4.69,4.69,0,0,0-4.17.62,9.1,9.1,0,0,1-1.35,1"/></g><ellipse class="cls-9" cx="132.95" cy="57.2" rx="0.27" ry="0.61" transform="translate(7.01 128.53) rotate(-52.8)"/><ellipse class="cls-9" cx="127.43" cy="58.43" rx="0.61" ry="0.27" transform="translate(16.39 144) rotate(-62.25)"/><path class="cls-10" d="M101.93,100.38c5.78-17.72,12.91-15.72,12.91-15.72s9.27,2,4.36,13.34-27.71,49.9-17.27,15.28C101.93,113.28,91,133.86,101.93,100.38Z"/><path class="cls-11" d="M102.34,112.57s3.51-13.53,6.51-18.21"/><path class="cls-10" d="M158.57,100.38c-5.78-17.72-12.91-15.72-12.91-15.72s-9.27,2-4.36,13.34,27.71,49.9,17.27,15.28C158.57,113.28,169.5,133.86,158.57,100.38Z"/><path class="cls-11" d="M158.16,112.57S154.64,99,151.64,94.36"/><path class="cls-12" d="M135.12,79.92a.32.32,0,0,0,0-.64.32.32,0,0,0,0,.64Z"/><path class="cls-12" d="M142.6,72.92a25,25,0,0,1,1.45,7.79.32.32,0,0,0,.64,0,25.47,25.47,0,0,0-1.47-8c-.13-.39-.75-.22-.62.17Z"/><path class="cls-12" d="M140.6,76.62a14.42,14.42,0,0,1,.31,2.7.32.32,0,0,0,.64,0,15.39,15.39,0,0,0-.33-2.87.34.34,0,0,0-.4-.23.33.33,0,0,0-.22.4Z"/><path class="cls-12" d="M118.39,72.47c-.29,1.75-.51,3.51-.65,5.28,0,.41.61.41.65,0,.13-1.71.34-3.42.62-5.11.07-.4-.55-.58-.62-.17Z"/><path class="cls-12" d="M121.26,75c-.05,3.52,0,7,.28,10.56,0,.41.67.42.64,0-.24-3.51-.33-7-.27-10.56a.33.33,0,0,0-.65,0Z"/><path class="cls-12" d="M126,79v2.23a.32.32,0,0,0,.64,0V79a.32.32,0,0,0-.64,0Z"/><path class="cls-12" d="M113.68,115.48a35.15,35.15,0,0,0,3.95,10.24.32.32,0,0,0,.55-.32,34.77,34.77,0,0,1-3.88-10.09c-.09-.4-.71-.23-.62.17Z"/><path class="cls-12" d="M117.94,116.67a11,11,0,0,0,.68,1.84.32.32,0,0,0,.44.11.33.33,0,0,0,.11-.44c-.14-.29-.22-.49-.34-.8s-.19-.58-.27-.88a.32.32,0,0,0-.4-.22.31.31,0,0,0-.22.39Z"/><path class="cls-12" d="M123.26,108.71a51.67,51.67,0,0,0,2.41,11.93c.13.39.75.23.62-.17a50.22,50.22,0,0,1-2.38-11.76c0-.41-.68-.41-.65,0Z"/><path class="cls-12" d="M131.8,107.77a83.72,83.72,0,0,1,.39,16.14c0,.41.61.41.64,0a83.72,83.72,0,0,0-.39-16.14c-.05-.4-.69-.41-.64,0Z"/><path class="cls-12" d="M138.17,110.65a61.07,61.07,0,0,1-.59,10c-.06.4.56.58.62.17a62,62,0,0,0,.61-10.19.32.32,0,0,0-.64,0Z"/><path class="cls-12" d="M143,117.42l-.09.74a.37.37,0,0,0,.1.23.34.34,0,0,0,.22.09.32.32,0,0,0,.23-.09l.05-.07a.29.29,0,0,0,0-.16l.1-.74a.33.33,0,0,0-.1-.23.26.26,0,0,0-.22-.09.32.32,0,0,0-.23.09l-.05.07a.43.43,0,0,0,0,.16Z"/><path class="cls-12" d="M147,116.68a5.22,5.22,0,0,1-.63,2.92c-.37,1-.8,1.91-1.26,2.85-.87,1.76-1.84,3.47-2.82,5.17-.21.36.35.69.55.33,1.08-1.89,2.16-3.77,3.09-5.74.44-.92.85-1.87,1.21-2.83a5,5,0,0,0,.48-2.87c-.09-.41-.71-.24-.62.17Z"/><path class="cls-3" d="M120,56.16s3.55-.09,3.76-3.37l-1.2-.72-3.17,2.63Z"/><path class="cls-3" d="M137.93,51.87s-2.9,2.05-5-.46l.52-1.29,4.12.22Z"/></svg>