<svg id="Layer_1" data-name="Layer 1" xmlns="http://www.w3.org/2000/svg" viewBox="0 0 260 168"><defs><style>.cls-1{fill:#2d2d2d;}.cls-2{fill:#535454;}.cls-3{fill:#0c0c0c;}.cls-4{fill:#141414;}.cls-5{fill:none;stroke:#3f3f3f;stroke-linecap:round;stroke-linejoin:round;stroke-width:0.6px;}.cls-6{fill:#1e1e1e;}.cls-7{fill:#fff;}.cls-8{fill:#bc4b4b;}.cls-9{fill:#3a3a3a;}.cls-10{fill:#050505;}</style></defs><path d="M154.32,103.46s-5.42,24.81-8,31.08-7.16,8.25-3.24-14.7l3.81-20.42,3.92-4.76Z"/><path d="M177.83,102.79s6.82,24.47,9.76,30.58,7.62,7.83,2.4-14.86l-5-20.17-4.18-4.53Z"/><path d="M154.83,120.45s-7.06,19.44-6,23.87c.83,3.47,5.15,3.13,9.17-3.74,0,0,.9,17.11,9.58,4.2,0,0,9.91,12.76,9.48-4.74,0,0,18.77,17.62,2.48-21.95Z"/><path class="cls-1" d="M155.58,154.28s-5.66-.39-7.09-.24c0,0-.93,0-1.05.58-.18.88.39,1.32,1.25,1.47s8.51-.35,8.51-.35l0-1.26Z"/><path class="cls-1" d="M162.11,154.73s1.66-.28,2.34.69a5.06,5.06,0,0,0-2.5.54S160.52,155.56,162.11,154.73Z"/><path class="cls-2" d="M157.5,136.52s-2.1,18.43-1.87,19.1,1.62,2,2.46-.83c1-3.2,2.9-17.89,2.9-17.89S159.26,135.18,157.5,136.52Z"/><path class="cls-3" d="M150.6,128a73.4,73.4,0,0,0,5.22,12.77c3,5.43,6,3.75,6.63-2.19s.74-10.17-.07-12.76-2.34-6.54-7-5.53C149.62,121.51,150.6,128,150.6,128Z"/><path class="cls-2" d="M160.58,156.46s-8.12.34-11.76,1.45c0,0-2.79.93-3.2-.47s4.83-2.23,4.83-2.23,5.85-1.55,10.07-.77c0,0,1.7,0,1.64.57S162.59,156.66,160.58,156.46Z"/><path class="cls-1" d="M145.93,157.09s-1.61.52-1.76,1.69a5.23,5.23,0,0,1,2.47-.68S147.72,157.09,145.93,157.09Z"/><path class="cls-2" d="M155.59,156.63s-4.41,2-4.82,3-2.59.67-2.13-.56,1.16-2.64,5.22-3.51C153.86,155.56,155.74,154.87,155.59,156.63Z"/><path class="cls-1" d="M148.89,159.16s-1,1.35-.47,2.4a5.05,5.05,0,0,1,1.63-2S150.36,158.13,148.89,159.16Z"/><path class="cls-1" d="M148.54,154.42s-2-.16-2.35.61c0,0,1.78-.32,2.26.18C148.45,155.21,149.33,154.88,148.54,154.42Z"/><path class="cls-1" d="M181,153.56s5.63-.71,7.07-.65c0,0,.92-.07,1.08.53.23.86-.32,1.34-1.17,1.54s-8.51.13-8.51.13l-.11-1.26Z"/><path class="cls-1" d="M174.55,154.38s-1.68-.19-2.3.82a5.14,5.14,0,0,1,2.52.39S176.18,155.12,174.55,154.38Z"/><path class="cls-2" d="M178.12,135.94s3.13,18.28,2.95,19-1.5,2.1-2.51-.69c-1.14-3.14-3.9-17.7-3.9-17.7S176.28,134.7,178.12,135.94Z"/><path class="cls-3" d="M184.52,127A73.88,73.88,0,0,1,180,140.05c-2.73,5.59-5.75,4.08-6.75-1.82s-1.31-10.11-.65-12.74,2-6.66,6.66-5.91C185.14,120.51,184.52,127,184.52,127Z"/><path class="cls-2" d="M176.18,156s8.12-.13,11.81.78c0,0,2.84.77,3.17-.65s-4.94-2-4.94-2-5.93-1.21-10.1-.19c0,0-1.7.06-1.6.66S174.18,156.33,176.18,156Z"/><path class="cls-1" d="M190.83,155.82s1.64.43,1.86,1.59a5.17,5.17,0,0,0-2.5-.54S189,155.92,190.83,155.82Z"/><path class="cls-2" d="M181.17,155.9s4.51,1.71,5,2.73,2.62.52,2.09-.69-1.31-2.56-5.41-3.2C182.83,154.74,180.92,154.16,181.17,155.9Z"/><path class="cls-1" d="M188,158.05s1.09,1.29.6,2.37a5.09,5.09,0,0,0-1.74-1.88S186.47,157.11,188,158.05Z"/><path class="cls-1" d="M188.08,153.3s2-.27,2.38.47c0,0-1.8-.21-2.25.32C188.21,154.09,187.32,153.8,188.08,153.3Z"/><path class="cls-3" d="M149.82,87.89s-.83,12.53-3.3,19.1c-4.45,11.84,1.28,31.31,19.19,30.8v-.2a7,7,0,0,0,1.64.15,6.82,6.82,0,0,0,1.61-.24v.2c17.91-.51,22.53-20.27,17.42-31.83-2.59-5.86-3.89-17.08-4.06-18.82C182.32,87.05,162.34,89,149.82,87.89Z"/><path class="cls-4" d="M138.51,104.47c5.13-17.39,12.12-15.64,12.12-15.64s9.07,1.67,4.61,12.84S129.67,151,138.87,117C138.87,117,128.81,137.32,138.51,104.47Z"/><path class="cls-5" d="M139.24,116.31s3-13.25,5.84-17.89"/><path class="cls-6" d="M150.35,118.82a34.25,34.25,0,0,0,4.12,9.85.31.31,0,0,0,.54-.32,33.56,33.56,0,0,1-4.06-9.69.31.31,0,0,0-.6.16Z"/><path class="cls-6" d="M154.52,119.86a10.39,10.39,0,0,0,.71,1.77.31.31,0,1,0,.54-.32c-.07-.13-.13-.26-.19-.39l-.16-.38c-.11-.28-.21-.56-.3-.85a.31.31,0,0,0-.38-.21.31.31,0,0,0-.22.38Z"/><path class="cls-6" d="M159.49,112a49.72,49.72,0,0,0,2.66,11.54c.14.37.74.21.6-.17A49.31,49.31,0,0,1,160.11,112c0-.39-.67-.4-.62,0Z"/><path class="cls-6" d="M167.77,110.91a81.32,81.32,0,0,1,.81,15.59c0,.4.61.4.63,0a82.3,82.3,0,0,0-.84-15.76c-.06-.39-.66-.23-.6.17Z"/><path class="cls-6" d="M174,113.45a58.84,58.84,0,0,1-.31,9.84c0,.4.58.4.63,0a61.05,61.05,0,0,0,.31-9.84c0-.4-.65-.4-.63,0Z"/><path class="cls-6" d="M178.94,119.89l-.07.73a.31.31,0,0,0,.09.22.36.36,0,0,0,.22.09.29.29,0,0,0,.22-.09.33.33,0,0,0,.09-.22l.07-.73a.31.31,0,0,0-.09-.22.34.34,0,0,0-.22-.09.36.36,0,0,0-.22.09.39.39,0,0,0-.09.22Z"/><path class="cls-6" d="M182.82,119.06a5.24,5.24,0,0,1-.54,2.89q-.51,1.41-1.14,2.76c-.79,1.75-1.7,3.44-2.6,5.13-.19.35.35.67.54.31,1-1.87,2-3.74,2.85-5.68.4-.9.77-1.81,1.08-2.74a4.88,4.88,0,0,0,.41-2.83.31.31,0,0,0-.6.16Z"/><path class="cls-3" d="M183.71,91.78a7,7,0,0,1-3,1.14,6.79,6.79,0,0,1-4.59-.53.17.17,0,0,0-.25.07,4.6,4.6,0,0,1-2,1.92,5.09,5.09,0,0,1-2.19.38c-1.37,0-2.73-.33-4.1-.36a9.36,9.36,0,0,0-3.65.8,12.55,12.55,0,0,1-3.63,1.13,5.63,5.63,0,0,1-4.18-1.74.15.15,0,0,0-.2,0A6.21,6.21,0,0,1,153.37,96a5.53,5.53,0,0,1-2.36-.13c-.48-.13-1-.29-1.43-.46.76-6.52-1.89-30.34,10.15-42.12,12.33-12.06,17.43,5.19,17.43,5.19C176.09,74.68,180.23,80,183.71,91.78Z"/><circle class="cls-7" cx="168.87" cy="55.96" r="3.78" transform="translate(-4.84 94.32) rotate(-30.79)"/><path d="M168.09,54.17A2.4,2.4,0,0,1,171,52.91a1,1,0,0,0-.46.46,1,1,0,1,0,1.74.82,1.72,1.72,0,0,0,.07-.21,2.4,2.4,0,1,1-4.23.19Z"/><path class="cls-8" d="M198.24,63.06s-8.49-4.58-21.37-3.69L171.74,62l2.74,2.26A62.8,62.8,0,0,1,198.24,63.06Z"/><path class="cls-9" d="M198.24,63.06a12.58,12.58,0,0,1-4,.56c-2.35,0-12.19-.45-16.67.95s-4.64,1.35-5.5-.8-.36-2.32,0-2.89C172.05,60.88,193.78,60.57,198.24,63.06Z"/><path class="cls-2" d="M175.25,54.12s5.39,4.18,11.39,4.64,11.91,2,12.24,4.68a68.92,68.92,0,0,0-24.53-1s-4.44.72-2.12-2.32S174.79,56.79,175.25,54.12Z"/><ellipse class="cls-10" cx="176.46" cy="57.69" rx="0.91" ry="0.33" transform="translate(-9.17 60.43) rotate(-18.95)"/><path class="cls-6" d="M175.38,75.15,177.11,80c.15.39.77.22.63-.17L176,75c-.14-.39-.77-.22-.62.17Z"/><path class="cls-6" d="M173.55,75.75l.52,1.7a.34.34,0,0,0,.4.23.34.34,0,0,0,.23-.4l-.52-1.7a.34.34,0,0,0-.4-.23.33.33,0,0,0-.23.4Z"/><path class="cls-6" d="M170.27,75.61c.36,1.33.7,2.67,1,4,.09.41.71.23.62-.17-.3-1.35-.63-2.69-1-4a.32.32,0,0,0-.62.17Z"/><path class="cls-6" d="M166.92,75.94l0,1a.33.33,0,0,0,.33.32.32.32,0,0,0,.32-.32l0-1a.32.32,0,1,0-.64,0Z"/><path class="cls-6" d="M163.92,74.38a32.41,32.41,0,0,0-.26,9.38c.05.41.7.41.65,0a31.53,31.53,0,0,1,.24-9.2c.07-.41-.55-.59-.63-.18Z"/><path class="cls-6" d="M160.09,74.54l-.89,4c-.09.41.54.58.63.17l.88-4c.09-.41-.53-.58-.62-.17Z"/><path class="cls-6" d="M156,73.9a5.24,5.24,0,0,0-.5,1.28.33.33,0,0,0,.63.17,4.18,4.18,0,0,1,.19-.6l.06-.15v0l0-.08.14-.29a.32.32,0,0,0-.56-.32Z"/><path class="cls-4" d="M193.58,102.91c-6.1-17.07-13-14.93-13-14.93s-9,2.18-3.88,13.09,28.32,47.76,17.22,14.38C193.94,115.45,205.13,135.16,193.58,102.91Z"/><path class="cls-5" d="M193.52,114.77s-3.79-13.06-6.84-17.53"/></svg>