<svg id="Layer_1" data-name="Layer 1" xmlns="http://www.w3.org/2000/svg" xmlns:xlink="http://www.w3.org/1999/xlink" viewBox="0 0 260 168"><defs><style>.cls-1{fill:#fff;}.cls-2{fill:#535454;}.cls-3{fill:#0c0c0c;}.cls-4{fill:#2d2d2d;}.cls-5{fill:#141414;}.cls-6{fill:none;stroke:#3f3f3f;stroke-linecap:round;stroke-linejoin:round;stroke-width:0.57px;}.cls-7{fill:#1e1e1e;}.cls-8{clip-path:url(#clip-path);}.cls-9{fill:#231f20;}.cls-10{clip-path:url(#clip-path-2);}.cls-11{fill:#3f3f3f;}.cls-12{clip-path:url(#clip-path-3);}.cls-13{fill:#6d6d6d;}.cls-14{fill:#050505;}</style><clipPath id="clip-path"><ellipse class="cls-1" cx="154.91" cy="69.16" rx="2.14" ry="3.47" transform="matrix(0.99, -0.15, 0.15, 0.99, -8.42, 23.28)"/></clipPath><clipPath id="clip-path-2"><ellipse class="cls-1" cx="167.18" cy="67.35" rx="2.14" ry="3.47" transform="translate(-8.02 25.05) rotate(-8.37)"/></clipPath><clipPath id="clip-path-3"><path class="cls-2" d="M160.88,67.32a13,13,0,0,0-3.46,4.21c-1.48,2.71-6.67,2.27-6.67,2.27s-.85.29-.25.88,4.52-.14,7.82,1.37a9.33,9.33,0,0,1,4.39,3.67h0A9.27,9.27,0,0,1,165.85,75c2.72-2.41,6.7-2.83,7.1-3.57s-.5-.77-.5-.77-4.84,1.92-7-.26a12.77,12.77,0,0,0-4.53-3"/></clipPath></defs><path class="cls-3" d="M179.17,95.65c2-.12,3.16-2.16,3.78-4A19.9,19.9,0,0,0,183,79a15.83,15.83,0,0,0-8.45-9.28A5.28,5.28,0,0,1,172,68c-.57-.88-.08-2.42,1-2.33-1.1-.91-3-.73-3.75-1.95a2.29,2.29,0,0,1,1-3,5.53,5.53,0,0,1,3.37-.54,21.92,21.92,0,0,1,12.76,5.41,12.25,12.25,0,0,1-.32-2.89,5.33,5.33,0,0,1,3.89,1.36A21.4,21.4,0,0,1,196.73,74a39.93,39.93,0,0,1,2,12,1.9,1.9,0,0,1,2.79-.49A4.39,4.39,0,0,1,203,88.38a14.73,14.73,0,0,1-5.24,14.27c1.84-.09,3.21,2,3,3.8a7.23,7.23,0,0,1-2.95,4.49A18.7,18.7,0,0,1,185.16,115a9.06,9.06,0,0,1-2.37-.41,8.21,8.21,0,0,1-2.49-1.49,13.28,13.28,0,0,1-2.44-18"/><path d="M153.64,108.32S148.47,132,146,138s-6.85,7.89-3.1-14l3.65-19.51,3.74-4.55Z"/><path d="M154.13,124.56s-6.75,18.57-5.74,22.8c.79,3.32,4.91,3,8.76-3.57,0,0,.85,16.34,9.15,4,0,0,9.46,12.19,9.06-4.53,0,0,17.93,16.83,2.37-21Z"/><path class="cls-4" d="M154.85,156.87s-5.41-.37-6.78-.23c0,0-.89,0-1,.56-.17.84.38,1.26,1.2,1.4s8.12-.33,8.12-.33l0-1.21Z"/><path class="cls-4" d="M161.08,157.3s1.59-.26,2.24.66a5,5,0,0,0-2.39.51S159.56,158.1,161.08,157.3Z"/><path class="cls-2" d="M156.68,139.91s-2,17.61-1.79,18.25,1.55,1.92,2.36-.8c.91-3.06,2.76-17.09,2.76-17.09S158.36,138.63,156.68,139.91Z"/><path class="cls-3" d="M150.09,131.73a70.24,70.24,0,0,0,5,12.2c2.91,5.19,5.71,3.58,6.34-2.09s.7-9.72-.07-12.2-2.23-6.24-6.67-5.27C149.15,125.57,150.09,131.73,150.09,131.73Z"/><path class="cls-2" d="M159.62,159s-7.76.32-11.23,1.38c0,0-2.67.89-3.06-.45s4.61-2.13,4.61-2.13,5.59-1.48,9.62-.73c0,0,1.63,0,1.57.54S161.54,159.14,159.62,159Z"/><path class="cls-4" d="M145.63,159.56s-1.54.5-1.68,1.62a4.8,4.8,0,0,1,2.35-.65S147.34,159.56,145.63,159.56Z"/><path class="cls-2" d="M154.85,159.12s-4.21,1.87-4.6,2.87-2.47.64-2-.54,1.1-2.52,5-3.35C153.2,158.1,155,157.44,154.85,159.12Z"/><path class="cls-4" d="M148.45,161.53s-1,1.29-.45,2.3a5,5,0,0,1,1.56-1.89S149.86,160.56,148.45,161.53Z"/><path class="cls-4" d="M148.12,157s-1.9-.16-2.25.58c0,0,1.7-.3,2.17.17C148,157.76,148.87,157.44,148.12,157Z"/><path class="cls-4" d="M179.17,156.18s5.37-.67,6.75-.61c0,0,.88-.07,1,.5.22.83-.3,1.28-1.11,1.47s-8.14.12-8.14.12l-.1-1.2Z"/><path class="cls-4" d="M173,157s-1.61-.18-2.2.78a4.9,4.9,0,0,1,2.41.38S174.53,157.67,173,157Z"/><path class="cls-2" d="M176.38,139.35s3,17.47,2.81,18.12-1.43,2-2.39-.66c-1.09-3-3.73-16.91-3.73-16.91S174.63,138.17,176.38,139.35Z"/><path class="cls-3" d="M182.5,130.82a70.87,70.87,0,0,1-4.29,12.46c-2.61,5.34-5.49,3.9-6.44-1.73s-1.26-9.67-.63-12.18,1.88-6.37,6.37-5.65C183.08,124.61,182.5,130.82,182.5,130.82Z"/><path class="cls-2" d="M174.52,158.54s7.76-.12,11.29.74c0,0,2.71.74,3-.62s-4.72-1.87-4.72-1.87-5.67-1.16-9.65-.18c0,0-1.63.06-1.53.62S172.61,158.83,174.52,158.54Z"/><path class="cls-4" d="M188.53,158.34s1.56.41,1.76,1.53a4.82,4.82,0,0,0-2.38-.52S186.82,158.44,188.53,158.34Z"/><path class="cls-2" d="M179.29,158.43s4.31,1.62,4.76,2.6,2.5.5,2-.65-1.25-2.45-5.17-3.07C180.88,157.31,179.05,156.76,179.29,158.43Z"/><path class="cls-4" d="M185.82,160.48s1,1.23.57,2.26a4.85,4.85,0,0,0-1.66-1.79S184.36,159.58,185.82,160.48Z"/><path class="cls-4" d="M185.89,155.94s1.89-.26,2.28.45c0,0-1.72-.2-2.15.3C186,156.69,185.17,156.42,185.89,155.94Z"/><path class="cls-3" d="M184.27,109.3c-2.47-5.84-3.52-15.94-3.68-17.67v0a5.51,5.51,0,0,1-.7,0,5.71,5.71,0,0,1-3.64-1.32,4.27,4.27,0,0,1-4.59,1.62,7.72,7.72,0,0,1-1.36-.44,5.44,5.44,0,0,0-.86-.37c-.78-.21-1.54.37-2.14.82a2.57,2.57,0,0,1-1.26.56,3,3,0,0,1-1.38-.28c-.49-.2-1-.49-1.47-.66-.22-.08-.45-.12-.66-.22a2.49,2.49,0,0,0-.28-.15,1.15,1.15,0,0,0-.18,0,1.1,1.1,0,0,0-.65.24c-.36.26-.66.61-1,.84a5.4,5.4,0,0,1-2.1.61,3.76,3.76,0,0,1-3.73-1.43,5.64,5.64,0,0,1-3.83,1.28c-.66,0-1,2.06-1.51,1.6,0,.1-.28-2.12-.28-2h0s-.37,11.57-2.73,18.13c-4.25,11.79,1.22,31.2,18.33,30.69v-.2a5.82,5.82,0,0,0,1.56.15,6.18,6.18,0,0,0,1.54-.24v.2C184.74,140.52,189.15,120.82,184.27,109.3Z"/><path class="cls-5" d="M138.54,109.28c4.9-16.6,11.58-14.94,11.58-14.94s8.66,1.6,4.4,12.28-24.43,47.08-15.64,14.65C138.88,121.27,129.27,140.67,138.54,109.28Z"/><path class="cls-6" d="M139.24,120.6s2.91-12.66,5.57-17.09"/><path class="cls-7" d="M149.85,123a32.83,32.83,0,0,0,3.93,9.41c.2.32.72,0,.52-.3a32.16,32.16,0,0,1-3.88-9.27c-.09-.37-.66-.21-.57.16Z"/><path class="cls-7" d="M153.83,124a11.26,11.26,0,0,0,.68,1.69.31.31,0,0,0,.41.11.32.32,0,0,0,.11-.41l-.19-.38c-.07-.15-.09-.22-.15-.36s-.2-.53-.28-.81a.31.31,0,0,0-.37-.21.32.32,0,0,0-.21.37Z"/><path class="cls-7" d="M158.58,116.45a47.89,47.89,0,0,0,2.54,11c.13.36.71.2.58-.16a47.19,47.19,0,0,1-2.53-10.87c0-.37-.64-.38-.59,0Z"/><path class="cls-7" d="M166.49,115.44a77.37,77.37,0,0,1,.78,14.9c0,.38.58.38.6,0a79,79,0,0,0-.8-15.06c-.06-.38-.64-.22-.58.16Z"/><path class="cls-7" d="M172.47,117.87a57.89,57.89,0,0,1-.29,9.4c0,.38.55.38.6,0a57.89,57.89,0,0,0,.29-9.4.3.3,0,0,0-.6,0Z"/><path class="cls-7" d="M177.16,124l-.06.69a.29.29,0,0,0,.08.22.28.28,0,0,0,.21.08.3.3,0,0,0,.21-.08.36.36,0,0,0,.09-.22l.07-.69a.33.33,0,0,0-.09-.21.28.28,0,0,0-.21-.08.26.26,0,0,0-.21.08.33.33,0,0,0-.09.21Z"/><path class="cls-7" d="M180.86,123.23a4.83,4.83,0,0,1-.51,2.75c-.32.9-.69,1.78-1.08,2.65-.76,1.66-1.63,3.28-2.49,4.89-.18.34.33.64.51.3,1-1.78,1.92-3.57,2.73-5.43.38-.86.73-1.73,1-2.62a4.6,4.6,0,0,0,.39-2.7.3.3,0,0,0-.58.16Z"/><path class="cls-3" d="M149.45,95.81a2,2,0,0,0,1.7.64,5,5,0,0,0,3.5-1.75.35.35,0,0,1,.55,0c.91,1.55,3,1.3,4.44.7a3,3,0,0,0,.88-.51,11.89,11.89,0,0,1,.95-.93,1.49,1.49,0,0,1,1.45-.21c.4.15.87.16,1.28.29a10.14,10.14,0,0,0,1.33.39,1.67,1.67,0,0,0,1.46-.36c.3-.23.55-.53.86-.75a2.8,2.8,0,0,1,2-.58c.72.12,1.4.42,2.15.5,1.57.16,3.38-.43,3.91-2.06a.35.35,0,0,1,.54-.13,5.37,5.37,0,0,0,4.24.87c-3.94-19.17-9-33.52-20.6-31.82-11.17,1.62-12.57,15.86-11,35C149.07,95.12,149.4,95.74,149.45,95.81Z"/><ellipse class="cls-1" cx="154.91" cy="69.16" rx="2.14" ry="3.47" transform="matrix(0.99, -0.15, 0.15, 0.99, -8.42, 23.28)"/><g class="cls-8"><ellipse class="cls-9" cx="155.15" cy="71.26" rx="1.35" ry="2.19" transform="translate(-8.72 23.34) rotate(-8.37)"/><ellipse class="cls-1" cx="155.66" cy="70.28" rx="0.4" ry="0.64" transform="translate(-8.57 23.41) rotate(-8.37)"/></g><ellipse class="cls-1" cx="167.18" cy="67.35" rx="2.14" ry="3.47" transform="translate(-8.02 25.05) rotate(-8.37)"/><g class="cls-10"><ellipse class="cls-9" cx="167.39" cy="69.13" rx="1.35" ry="2.19" transform="translate(-8.28 25.1) rotate(-8.37)"/><ellipse class="cls-1" cx="166.57" cy="68.35" rx="0.4" ry="0.64" transform="translate(-8.17 24.97) rotate(-8.37)"/></g><path class="cls-11" d="M154.57,76.1c3.8.28,8,3,8,3l-.92-6.29L150.5,74.68S150.76,75.81,154.57,76.1Z"/><path class="cls-11" d="M161.69,72.79l.92,6.29s3.29-3.8,6.85-5.17S173,71.38,173,71.38Z"/><path class="cls-2" d="M160.88,67.32a13,13,0,0,0-3.46,4.21c-1.48,2.71-6.67,2.27-6.67,2.27s-.85.29-.25.88,4.52-.14,7.82,1.37a9.33,9.33,0,0,1,4.39,3.67h0A9.27,9.27,0,0,1,165.85,75c2.72-2.41,6.7-2.83,7.1-3.57s-.5-.77-.5-.77-4.84,1.92-7-.26a12.77,12.77,0,0,0-4.53-3"/><g class="cls-12"><path class="cls-13" d="M157.71,66.27a2.24,2.24,0,0,0,.6,1.72,17.91,17.91,0,0,1,3.22,6,6.32,6.32,0,0,0,.57,1.77.27.27,0,0,0,.13.13c.14.07.29-.08.36-.22a3.27,3.27,0,0,0,.22-1.86,16.31,16.31,0,0,1-.06-4.88,11.23,11.23,0,0,0,.68-3.29.79.79,0,0,0-.08-.3.71.71,0,0,0-.35-.24,4.38,4.38,0,0,0-3.9.4,9,9,0,0,1-1.29.85"/></g><ellipse class="cls-14" cx="163.94" cy="69.53" rx="0.25" ry="0.57" transform="translate(5.62 151.05) rotate(-50.23)"/><ellipse class="cls-14" cx="158.76" cy="70.44" rx="0.57" ry="0.25" transform="translate(17.8 171.91) rotate(-59.67)"/><path class="cls-3" d="M151.94,68s3.29.07,3.62-3l-1.08-.72-3,2.31Z"/><path class="cls-3" d="M168.78,64.8s-2.77,1.77-4.64-.64l.54-1.18,3.81.37Z"/></svg>