<svg id="Layer_2" data-name="Layer 2" xmlns="http://www.w3.org/2000/svg" viewBox="0 0 260 168"><defs><style>.cls-1{fill:#2d2d2d;}.cls-2{fill:#535454;}.cls-3{fill:#0c0c0c;}.cls-4{fill:#050505;}.cls-5{fill:#141414;}.cls-6{fill:none;stroke:#3f3f3f;stroke-linecap:round;stroke-linejoin:round;stroke-width:0.7px;}.cls-7{fill:#1e1e1e;}.cls-8{fill:#fff;}.cls-9{fill:#231f20;}.cls-10{fill:#bc4b4b;}.cls-11{fill:#3a3a3a;}</style></defs><path d="M115.79,88S108.64,116.8,105.4,124s-8.65,9.41-3.3-17.29L107.23,83,112,77.56Z"/><path d="M143.31,88S150.47,116.8,153.7,124s8.66,9.41,3.31-17.29L151.87,83l-4.73-5.44Z"/><path d="M115.83,107.85s-8.91,22.5-7.82,27.71c.86,4.09,5.92,3.83,10.85-4.07,0,0,.48,20,11.06,5.23,0,0,11.16,15.25,11.25-5.23,0,0,21.36,21.23,3.62-25.59Z"/><path class="cls-1" d="M115.59,147.43s-6.61-.64-8.29-.52c0,0-1.08-.06-1.25.65-.23,1,.42,1.56,1.42,1.76s10-.13,10-.13l.08-1.47Z"/><path class="cls-1" d="M123.2,148.17s2-.27,2.72.89a6,6,0,0,0-2.94.54S121.32,149.09,123.2,148.17Z"/><path class="cls-2" d="M118.42,126.73s-3.06,21.48-2.82,22.27,1.82,2.41,2.91-.89c1.22-3.71,4-20.83,4-20.83S120.52,125.22,118.42,126.73Z"/><path class="cls-3" d="M110.64,116.49a85.94,85.94,0,0,0,5.67,15.11c3.38,6.45,6.86,4.58,7.83-2.34s1.2-11.87.34-14.93-2.52-7.73-8-6.69C109.7,108.92,110.64,116.49,110.64,116.49Z"/><path class="cls-2" d="M121.36,150.15s-9.51.12-13.8,1.3c0,0-3.29,1-3.72-.65s5.71-2.46,5.71-2.46,6.9-1.61,11.81-.56c0,0,2,0,1.89.72S123.7,150.44,121.36,150.15Z"/><path class="cls-1" d="M104.21,150.39s-1.9.56-2.11,1.93a5.92,5.92,0,0,1,2.9-.71S106.31,150.46,104.21,150.39Z"/><path class="cls-2" d="M115.52,150.18s-5.22,2.14-5.74,3.35-3,.7-2.46-.73,1.44-3,6.21-3.93C113.53,148.87,115.75,148.13,115.52,150.18Z"/><path class="cls-1" d="M107.6,152.91s-1.23,1.55-.63,2.79a6.11,6.11,0,0,1,2-2.25S109.35,151.76,107.6,152.91Z"/><path class="cls-1" d="M107.35,147.37s-2.32-.26-2.77.62c0,0,2.09-.31,2.64.29C107.22,148.28,108.25,147.92,107.35,147.37Z"/><path class="cls-1" d="M145.38,147.43s6.6-.64,8.29-.52c0,0,1.08-.06,1.24.65.24,1-.42,1.56-1.42,1.76s-10-.13-10-.13l-.08-1.47Z"/><path class="cls-1" d="M137.76,148.17s-1.95-.27-2.72.89a6,6,0,0,1,3,.54S139.65,149.09,137.76,148.17Z"/><path class="cls-2" d="M142.55,126.73s3.06,21.48,2.82,22.27-1.83,2.41-2.91-.89c-1.23-3.71-4-20.83-4-20.83S140.44,125.22,142.55,126.73Z"/><path class="cls-3" d="M150.33,116.49a85.94,85.94,0,0,1-5.67,15.11c-3.38,6.45-6.87,4.58-7.83-2.34s-1.2-11.87-.34-14.93,2.52-7.73,8-6.69C151.27,108.92,150.33,116.49,150.33,116.49Z"/><path class="cls-2" d="M139.61,150.15s9.51.12,13.79,1.3c0,0,3.3,1,3.73-.65s-5.71-2.46-5.71-2.46-6.9-1.61-11.81-.56c0,0-2,0-1.89.72S137.27,150.44,139.61,150.15Z"/><path class="cls-1" d="M156.76,150.39s1.89.56,2.11,1.93a5.92,5.92,0,0,0-2.9-.71S154.66,150.46,156.76,150.39Z"/><path class="cls-2" d="M145.45,150.18s5.22,2.14,5.73,3.35,3,.7,2.47-.73-1.44-3-6.22-3.93C147.43,148.87,145.22,148.13,145.45,150.18Z"/><path class="cls-1" d="M153.37,152.91s1.23,1.55.63,2.79a6.08,6.08,0,0,0-2-2.25S151.61,151.76,153.37,152.91Z"/><path class="cls-1" d="M153.62,147.37s2.31-.26,2.77.62c0,0-2.1-.31-2.65.29C153.74,148.28,152.71,147.92,153.62,147.37Z"/><path class="cls-3" d="M153.2,91.84C150.37,84.9,149.43,73,149.28,71c-1.36-24.36-4.85-43.09-19.4-43.09-14.15,0-14.2,12.55-19.38,42.79h0s-.84,13.56-4,21.17C101,105.53,107,128.48,128,128.48v-.23a8,8,0,0,0,3.8,0v.23C152.74,128.48,158.79,105.53,153.2,91.84Z"/><ellipse class="cls-4" cx="132.58" cy="39.48" rx="0.31" ry="0.7" transform="translate(20.98 121.22) rotate(-52.8)"/><ellipse class="cls-4" cx="126.29" cy="40.88" rx="0.7" ry="0.31" transform="translate(31.31 133.62) rotate(-62.25)"/><path class="cls-5" d="M97.28,88.62C103.85,68.46,112,70.73,112,70.73s10.55,2.26,5,15.18S85.4,142.69,97.28,103.3C97.28,103.3,84.84,126.71,97.28,88.62Z"/><path class="cls-6" d="M97.74,102.49s4-15.4,7.42-20.72"/><path class="cls-5" d="M161.73,88.62C155.15,68.46,147,70.73,147,70.73s-10.55,2.26-5,15.18,31.53,56.78,19.66,17.39C161.73,103.3,174.16,126.71,161.73,88.62Z"/><path class="cls-6" d="M161.26,102.49s-4-15.4-7.41-20.72"/><path class="cls-7" d="M135,65.34a.37.37,0,0,0,0-.73.37.37,0,0,0,0,.73Z"/><path class="cls-7" d="M143.56,57.37a28.52,28.52,0,0,1,1.64,8.87c0,.47.75.47.73,0a29,29,0,0,0-1.67-9.07c-.15-.43-.86-.25-.7.2Z"/><path class="cls-7" d="M141.28,61.58a16.8,16.8,0,0,1,.35,3.08.37.37,0,0,0,.73,0,17.07,17.07,0,0,0-.38-3.27.37.37,0,0,0-.45-.26.37.37,0,0,0-.25.45Z"/><path class="cls-7" d="M116,56.86c-.34,2-.58,4-.74,6,0,.47.69.46.73,0q.23-2.92.71-5.81c.08-.46-.63-.66-.7-.2Z"/><path class="cls-7" d="M119.28,59.7q-.11,6,.31,12c0,.46.76.47.73,0q-.41-6-.31-12a.37.37,0,0,0-.73,0Z"/><path class="cls-7" d="M124.65,64.24v2.53a.37.37,0,0,0,.37.36.36.36,0,0,0,.36-.36V64.24a.37.37,0,0,0-.36-.37.38.38,0,0,0-.37.37Z"/><path class="cls-7" d="M110.64,105.81a40.12,40.12,0,0,0,4.5,11.65.37.37,0,0,0,.63-.37,39.21,39.21,0,0,1-4.42-11.48c-.1-.46-.8-.26-.71.2Z"/><path class="cls-7" d="M115.49,107.16a11.94,11.94,0,0,0,.78,2.09.36.36,0,0,0,.49.13.38.38,0,0,0,.14-.5,9.4,9.4,0,0,1-.39-.92c-.12-.32-.22-.66-.32-1a.37.37,0,0,0-.45-.25.38.38,0,0,0-.25.45Z"/><path class="cls-7" d="M121.55,98.1a58.88,58.88,0,0,0,2.74,13.58c.15.44.85.25.7-.2a57.69,57.69,0,0,1-2.71-13.38c0-.47-.77-.47-.73,0Z"/><path class="cls-7" d="M131.26,97a95.49,95.49,0,0,1,.45,18.36c0,.47.7.47.73,0A95.49,95.49,0,0,0,132,97c-.05-.46-.78-.46-.73,0Z"/><path class="cls-7" d="M138.51,100.31a69,69,0,0,1-.67,11.4c-.07.46.64.66.7.19a70.2,70.2,0,0,0,.7-11.59.37.37,0,0,0-.73,0Z"/><path class="cls-7" d="M144,108l-.11.84a.36.36,0,0,0,.11.26.41.41,0,0,0,.26.11.43.43,0,0,0,.26-.11l.05-.08a.27.27,0,0,0,0-.18l.11-.84a.36.36,0,0,0-.11-.26.41.41,0,0,0-.26-.11.43.43,0,0,0-.26.11l0,.07a.32.32,0,0,0-.05.19Z"/><path class="cls-7" d="M148.6,107.16c.26,1.1-.33,2.32-.72,3.33s-.92,2.18-1.44,3.24c-1,2-2.09,4-3.2,5.89a.37.37,0,0,0,.63.37c1.22-2.15,2.45-4.29,3.51-6.53.5-1,1-2.12,1.37-3.22a5.56,5.56,0,0,0,.55-3.27c-.1-.46-.81-.26-.7.19Z"/><circle class="cls-8" cx="124.98" cy="36.24" r="4.43" transform="translate(-4.88 44.59) rotate(-19.85)"/><path class="cls-9" d="M127,34.3a2.8,2.8,0,0,0-3.66-.36,1.11,1.11,0,0,1,.67.34,1.13,1.13,0,0,1,0,1.59,1.11,1.11,0,0,1-1.59,0,1,1,0,0,1-.15-.2A2.81,2.81,0,1,0,127,34.3Z"/><path class="cls-10" d="M94.76,54.78s7.82-8.19,22.52-11.84L124,44.06l-2.24,3.5A73.67,73.67,0,0,0,94.76,54.78Z"/><path class="cls-11" d="M94.76,54.78a14.75,14.75,0,0,0,4.7-.83c2.6-.89,13.44-4.9,19-5s5.67-.16,5.85-2.87-.44-2.73-1.05-3.23C123.21,42.89,98.84,50.39,94.76,54.78Z"/><path class="cls-2" d="M117.19,36.5s-4.51,6.61-11,9.29-12.58,6.49-12,9.64a80.69,80.69,0,0,1,27-10s5.22-.8,1.53-3.36S118.66,39.31,117.19,36.5Z"/><ellipse class="cls-4" cx="117.13" cy="40.91" rx="0.39" ry="1.07" transform="translate(74.11 157.29) rotate(-88.97)"/></svg>