<svg id="Layer_1" data-name="Layer 1" xmlns="http://www.w3.org/2000/svg" xmlns:xlink="http://www.w3.org/1999/xlink" viewBox="0 0 260 168"><defs><style>.cls-1{fill:#ff790b;}.cls-2{fill:#8ecf00;}.cls-3{fill:#fff;}.cls-4{fill:#457500;}.cls-5{fill:#aeaeaf;}.cls-6{clip-path:url(#clip-path);}.cls-7{fill:#e56200;}.cls-8{fill:#ff9c0d;}.cls-9{fill:#7ece00;}.cls-10{fill:#d3eb0b;}.cls-11{clip-path:url(#clip-path-2);}.cls-12{fill:#75b506;}.cls-13{fill:#b1e523;}.cls-14{fill:#113a00;}.cls-15{clip-path:url(#clip-path-3);}.cls-16{clip-path:url(#clip-path-4);}.cls-17{fill:#a50707;}.cls-18{clip-path:url(#clip-path-5);}.cls-19{fill:#f73434;}.cls-20{fill:#dbd5d7;}.cls-21{fill:#ededed;}.cls-22{fill:#e8254b;}.cls-23{fill:#ff4863;}.cls-24{clip-path:url(#clip-path-6);}.cls-25{fill:#ea395b;}</style><clipPath id="clip-path"><path class="cls-1" d="M98.72,48.61s-39.1,1.82-41.15,25.92,13.19,32.28,13.19,32.28h70.93s6.85-2.79,8.63-30.69C152.14,47.7,98.72,48.61,98.72,48.61Z"/></clipPath><clipPath id="clip-path-2"><path class="cls-2" d="M128.71,138.61c0,13.5-11,14.21-24.45,14.21s-24.44-.71-24.44-14.21,11-34.69,24.44-34.69S128.71,125.1,128.71,138.61Z"/></clipPath><clipPath id="clip-path-3"><circle class="cls-3" cx="85.7" cy="76.54" r="11.02"/></clipPath><clipPath id="clip-path-4"><circle class="cls-3" cx="122.83" cy="76.54" r="11.02"/></clipPath><clipPath id="clip-path-5"><path class="cls-4" d="M89.28,94.85s14.16,8.2,29.57,0c0,0-3.24,10.28-14.51,10.28S89.28,94.85,89.28,94.85Z"/></clipPath><clipPath id="clip-path-6"><rect class="cls-5" x="86.45" y="65.47" width="3.58" height="83.42" rx="1.79" transform="translate(-39.03 51.71) rotate(-26.98)"/></clipPath></defs><path class="cls-1" d="M98.72,48.61s-39.1,1.82-41.15,25.92,13.19,32.28,13.19,32.28h70.93s6.85-2.79,8.63-30.69C152.14,47.7,98.72,48.61,98.72,48.61Z"/><g class="cls-6"><path class="cls-7" d="M61.75,77.42c.9-4,2.37-8,5.34-10.74a21.29,21.29,0,0,1,4.71-3.12A70.15,70.15,0,0,1,132.67,62c6.12,2.81,12.33,7.2,13.74,13.78s-2.48,13.17-6.9,18.28A44.82,44.82,0,0,1,132.2,101c-5.85,4.28-13,6.49-20.19,7.42s-14.48.63-21.72.35l-13.13-.53a42.48,42.48,0,0,0-6.48,0,13.45,13.45,0,0,1-4.19.32c-2.81-.54-3.61-3.13-4.26-5.59a53.87,53.87,0,0,1-1.77-12A53.13,53.13,0,0,1,61.75,77.42Z"/><path class="cls-8" d="M98.08,50c11,3.78,22,7.59,33.53,9a17,17,0,0,1,5.44,1.23,11.72,11.72,0,0,1,3.23,2.51c2.14,2.26,4.12,5.15,7.2,5.63.53-.75,0-1.77-.63-2.46-3-3.39-7.43-5.12-11.67-6.73-3.3-1.25-6.81-2.3-10-3.85-2.13-1-3.76-2.36-6.12-3a83.27,83.27,0,0,0-10.54-1.72c-1.77-.2-3.55-.36-5.33-.47C101.91,50.1,99.21,50.54,98.08,50Z"/><path class="cls-8" d="M57.22,93.72a56.17,56.17,0,0,1,.43-15,28.67,28.67,0,0,1,6.18-13.58,44.91,44.91,0,0,0-4,25.37,11,11,0,0,1-7.34-1"/></g><path class="cls-9" d="M128.31,131.65s7.35-.7,7.52,6.83-7.17,8.57-7.17,8.57,7.7-1.4,6.82,2.62-18.19,3.33-17.67-2.8S118.34,131.65,128.31,131.65Z"/><ellipse class="cls-10" cx="129.23" cy="132.49" rx="0.75" ry="0.27"/><path class="cls-9" d="M79,131.65s-7.35-.7-7.52,6.83,7.17,8.57,7.17,8.57-7.7-1.4-6.82,2.62S90,153,89.46,146.87,88.93,131.65,79,131.65Z"/><ellipse class="cls-10" cx="75.99" cy="133.23" rx="1.62" ry="0.7"/><ellipse class="cls-10" cx="78.48" cy="132.57" rx="1" ry="0.43"/><path class="cls-2" d="M128.71,138.61c0,13.5-11,14.21-24.45,14.21s-24.44-.71-24.44-14.21,11-34.69,24.44-34.69S128.71,125.1,128.71,138.61Z"/><g class="cls-11"><ellipse class="cls-12" cx="103.91" cy="107.44" rx="23.36" ry="11.03"/><ellipse class="cls-13" cx="104.26" cy="143.72" rx="14.49" ry="19.07"/></g><path class="cls-1" d="M94.56,114.72s-7.54,2.45-3,7.45,11.87-7.35,11.87-7.35,5.93,11.12,12.9,7.25-3.58-8.19-3.58-8.19S98.71,112.56,94.56,114.72Z"/><path class="cls-8" d="M74.21,111.05s4,9.8,24.5,4Z"/><path class="cls-8" d="M137,109.83s-4.22,10.47-24.81,4.81Z"/><path class="cls-2" d="M143.46,96.8c0,17.19-17.55,18.16-39.2,18.16S65.07,114,65.07,96.8s17.55-22.88,39.19-22.88S143.46,79.61,143.46,96.8Z"/><circle class="cls-2" cx="86.16" cy="75.23" r="15.75"/><circle class="cls-2" cx="122.37" cy="75.23" r="15.75"/><ellipse class="cls-10" cx="72.62" cy="89.49" rx="3.63" ry="1.4"/><ellipse class="cls-10" cx="135.87" cy="89.49" rx="3.63" ry="1.4"/><ellipse class="cls-10" cx="70.71" cy="86.4" rx="2.11" ry="0.82"/><ellipse class="cls-10" cx="137.24" cy="85.61" rx="2.11" ry="0.82"/><ellipse class="cls-10" cx="104.07" cy="87.17" rx="7.17" ry="1.4"/><path class="cls-14" d="M78,69.32s-3.45.26-3.24-2.59c0,0-2,4.47,2.77,5.67Z"/><path class="cls-14" d="M77.56,72s-3.41.6-3.49-2.25c0,0-1.54,4.65,3.32,5.36Z"/><path class="cls-14" d="M130.86,69.32s3.45.26,3.24-2.59c0,0,2,4.47-2.76,5.67Z"/><path class="cls-14" d="M131.32,72s3.41.6,3.48-2.25c0,0,1.54,4.65-3.32,5.36Z"/><circle class="cls-3" cx="85.7" cy="76.54" r="11.02"/><g class="cls-15"><path d="M87.19,71.82a9.38,9.38,0,0,0-4,.9A2.82,2.82,0,1,1,79,76.52a9.31,9.31,0,0,0-1.29,4.75,9.45,9.45,0,1,0,9.45-9.45Z"/></g><circle class="cls-3" cx="122.83" cy="76.54" r="11.02"/><g class="cls-16"><path d="M123.08,71.45a9.42,9.42,0,0,0-4,.9,2.78,2.78,0,0,1,.78,1.93,2.82,2.82,0,0,1-4.94,1.86,9.45,9.45,0,1,0,8.16-4.69Z"/></g><path class="cls-17" d="M108.94,98.07a5.33,5.33,0,0,0-1.06-.7c-1.5-1.18-3.47-.18-3.85,0-.38-.21-2.35-1.21-3.85,0a5.33,5.33,0,0,0-1.06.7,10,10,0,0,0,9.82,0Z"/><ellipse class="cls-17" cx="103.96" cy="104.45" rx="3.53" ry="1.82"/><path class="cls-4" d="M89.28,94.85s14.16,8.2,29.57,0c0,0-3.24,10.28-14.51,10.28S89.28,94.85,89.28,94.85Z"/><g class="cls-18"><ellipse class="cls-19" cx="103.77" cy="108.24" rx="12.37" ry="6.69"/><ellipse class="cls-3" cx="103.77" cy="92.7" rx="12.37" ry="6.69"/></g><path class="cls-20" d="M106.34,148.22a12.86,12.86,0,0,0,2.09,5.61c.52.84,1.07,1.65,1.58,2.49.37.6,1.08,1.61.74,2.36a1.06,1.06,0,0,0,.36,1.4,1,1,0,0,0,1.4-.37c1-2.18-.59-4.21-1.72-6s-2.23-3.47-2.4-5.51a1.06,1.06,0,0,0-1-1,1,1,0,0,0-1,1Z"/><path class="cls-20" d="M108.14,148.42c2,3.69,4.24,7.53,8,9.73a1,1,0,0,0,1.4-1.39,2.9,2.9,0,0,0-.79-1,1,1,0,0,0-1.44,0,1,1,0,0,0,0,1.44,1.73,1.73,0,0,1,.47.57l1.39-1.4c-3.41-2-5.38-5.63-7.23-9-.64-1.15-2.4-.12-1.77,1Z"/><path class="cls-20" d="M110.27,148.84a14,14,0,0,1,5.07,4.76,8.2,8.2,0,0,0,2.6,2.8c1,.59,3.22,1,3.26-.77a1,1,0,0,0-2,0v.1l.14-.51-.05.07.37-.36s.11,0,.09,0a2.17,2.17,0,0,0-.3-.08,2.41,2.41,0,0,1-.56-.27,4.24,4.24,0,0,1-1-.91c-.68-.83-1.19-1.78-1.85-2.63a15.16,15.16,0,0,0-4.7-4c-1.16-.62-2.2,1.14-1,1.77Z"/><path class="cls-20" d="M111.43,147.16c2.32,1.9,4.61,3.84,7,5.71a5.94,5.94,0,0,0,3.53,1.61,1.57,1.57,0,0,0,1.58-1.13,1.35,1.35,0,0,0-1.26-1.63,1,1,0,0,0-1,1,1,1,0,0,0,1,1h.1l-.52-.14.08.05-.37-.37c.6-.62.68-.92.24-.89l-.21-.05a3,3,0,0,1-.53-.19,6.36,6.36,0,0,1-1.13-.72c-.74-.57-1.45-1.18-2.18-1.78l-4.84-4a1.05,1.05,0,0,0-1.45,0,1,1,0,0,0,0,1.44Z"/><path class="cls-20" d="M110.31,144.45l8.43,4.92a11.27,11.27,0,0,0,3.8,1.69,6.71,6.71,0,0,0,4-.62c1.19-.57.15-2.33-1-1.77-2.51,1.21-4.7-.44-6.81-1.67l-7.4-4.32a1,1,0,0,0-1,1.77Z"/><path class="cls-20" d="M101.81,149.17c-.25,2.49.8,4.87.63,7.35-.16,2.25-1.69,4.1-3.21,5.63a1,1,0,0,0,1.45,1.45,11.86,11.86,0,0,0,3.72-6.32c.4-2.74-.82-5.38-.54-8.11a1,1,0,0,0-1-1,1.05,1.05,0,0,0-1,1Z"/><path class="cls-21" d="M104.37,148c-1.34,2.31-.5,4.86.38,7.16.63,1.66,1.64,4.52-.31,5.74-1.11.7-.09,2.47,1,1.77,2.12-1.34,2.45-4,1.86-6.26s-2.54-5.05-1.2-7.37a1,1,0,0,0-1.76-1Z"/><path class="cls-21" d="M106.11,147.9a13.5,13.5,0,0,0,.46,6.76c.66,1.91,2.23,4,1.77,6.14l1.87-.24-.29-.43c-.74-1.07-2.52,0-1.77,1l.29.42a1,1,0,0,0,1.87-.24c.51-2.32-.57-4.33-1.45-6.41a11.57,11.57,0,0,1-.78-6.5,1.06,1.06,0,0,0-.71-1.26,1,1,0,0,0-1.26.72Z"/><path class="cls-20" d="M105.55,147.64a6.17,6.17,0,0,0-.69,4.29,6.87,6.87,0,0,0,1.87,3.31c.8.84,1.72,1.54,2.57,2.31a5.55,5.55,0,0,1,1.92,2.5l.1-.79,0,.1,1.16-.47h-.06l.61.47,0-.06-.16,1.24,0,0c1-.86-.45-2.3-1.44-1.44l0,0a1.06,1.06,0,0,0-.16,1.24,1,1,0,0,0,.7.53,1,1,0,0,0,1.16-.47c.53-1.17-.6-2.53-1.36-3.36a28,28,0,0,0-2.48-2.27,8,8,0,0,1-2.07-2.42,4,4,0,0,1,.19-3.67,1,1,0,0,0-1.77-1Z"/><path class="cls-21" d="M106.89,148a11.68,11.68,0,0,0,3.24,6.59c1.53,1.79,3.4,3.45,4.3,5.68l1.26-1.25c-.14,0,0,.1-.09-.13-.26-1.29-2.23-.75-2,.54a2.1,2.1,0,0,0,1.51,1.56c.69.18,1.57-.51,1.26-1.26a20.31,20.31,0,0,0-4.16-5.83c-1.5-1.66-3.11-3.58-3.3-5.9-.11-1.3-2.16-1.31-2,0Z"/><path class="cls-21" d="M108.17,147.36c.87,1.84,2.51,3.24,3.77,4.82a36.24,36.24,0,0,1,3.42,5.15c.63,1.15,2.4.12,1.76-1a38.82,38.82,0,0,0-3.51-5.29c-.62-.79-1.28-1.54-2-2.29a9.62,9.62,0,0,1-1.72-2.39,1,1,0,1,0-1.77,1Z"/><path class="cls-21" d="M109.29,147.56c2.7.72,4.71,2.75,6.7,4.6a16.4,16.4,0,0,0,3.22,2.66c1.42.75,3.29.4,4.77,0a1,1,0,0,0-.54-2,9.33,9.33,0,0,1-2.23.34,2.42,2.42,0,0,1-1.74-.68c-1-.84-2-1.77-3-2.69-2-1.8-4-3.54-6.65-4.23a1,1,0,0,0-.54,2Z"/><path class="cls-21" d="M111.18,145.62c2.59,1.69,5.15,3.54,7.85,5.06A9.65,9.65,0,0,0,123,152a13.11,13.11,0,0,0,4.49-.57,1,1,0,0,0-.54-2,11,11,0,0,1-4,.5,8.81,8.81,0,0,1-3.59-1.46c-2.42-1.49-4.77-3.1-7.15-4.65-1.11-.72-2.13,1.05-1,1.77Z"/><path class="cls-21" d="M112.93,145.33a6.09,6.09,0,0,1,3.91,1.28,13.68,13.68,0,0,0,3.77,1.77,10.58,10.58,0,0,0,7.68-1c1.16-.63.13-2.39-1-1.76a8.48,8.48,0,0,1-7,.5c-2.49-.94-4.41-3.17-7.3-2.85a1.06,1.06,0,0,0-1,1,1,1,0,0,0,1,1Z"/><path class="cls-22" d="M112.15,140.52c-1.76-.66-11.06,5.68-11.06,5.68a5,5,0,0,0,.62,3.33c.61,1.19,4,.69,7.52-1.12s5.94-4.23,5.33-5.42A4.49,4.49,0,0,0,112.15,140.52Z"/><ellipse class="cls-23" cx="106.88" cy="143.79" rx="6.42" ry="2.15" transform="translate(-53.61 64.15) rotate(-26.98)"/><rect class="cls-5" x="86.45" y="65.47" width="3.58" height="83.42" rx="1.79" transform="translate(-39.03 51.71) rotate(-26.98)"/><g class="cls-24"><rect class="cls-21" x="86.97" y="60.91" width="0.95" height="92.64" transform="translate(-39.14 51.35) rotate(-26.98)"/><path class="cls-25" d="M101.25,139.78a7.1,7.1,0,0,0,6-3l5,9.77-7.59,1.72-3.41-8.79"/><rect class="cls-25" x="69.21" y="64.03" width="6.55" height="24.79" rx="3.28" transform="translate(-26.78 41.21) rotate(-26.98)"/></g><path class="cls-2" d="M91.77,132.83l5.71-12.68s2.18,1.64,3.71,1,1.16-3.38-2.58-3.53c0,0,2-1.88-.64-3.66s-3,1.71-3,1.71-.11-2.79-2.6-3.09-1.21,3.3,1.36,5.13c0,0-4.37,7.55-6.94,11.25s-3.39,6.66-1.29,8.39S91,134.77,91.77,132.83Z"/><path class="cls-2" d="M116.17,139.63l-13.66-2.56s.09,2.72-1.27,3.63-3-1.63-1-4.78c0,0-3.13,1.22-3.08-2s3.12-1.48,3.12-1.48-2.22-1.69-1-3.9,3.4.89,3.43,4c0,0,8.69.75,13.2.76s7.4,1,7.61,3.74S118.23,140.08,116.17,139.63Z"/><circle class="cls-2" cx="85.05" cy="136.44" r="4.73"/><circle class="cls-2" cx="123.23" cy="136.19" r="4.73"/></svg>