<svg id="Layer_1" data-name="Layer 1" xmlns="http://www.w3.org/2000/svg" xmlns:xlink="http://www.w3.org/1999/xlink" viewBox="0 0 260 168"><defs><style>.cls-1{fill:#ff790b;}.cls-2{fill:#8ecf00;}.cls-3{fill:#457500;}.cls-4{clip-path:url(#clip-path);}.cls-5{fill:#e56200;}.cls-6{fill:#ff9c0d;}.cls-7{fill:#7ece00;}.cls-8{fill:#d3eb0b;}.cls-9{clip-path:url(#clip-path-2);}.cls-10{fill:#75b506;}.cls-11{fill:#b1e523;}.cls-12{fill:#113a00;}.cls-13{fill:#fff;}.cls-14{fill:#a50707;}.cls-15{clip-path:url(#clip-path-3);}.cls-16{fill:#f73434;}</style><clipPath id="clip-path"><path class="cls-1" d="M89,71.26S58.9,72.66,57.32,91.21s10.15,24.84,10.15,24.84h54.59s5.27-2.14,6.65-23.62C130.1,70.56,89,71.26,89,71.26Z"/></clipPath><clipPath id="clip-path-2"><path class="cls-2" d="M112.81,142c0,10.79-8.75,11.36-19.54,11.36S73.73,152.76,73.73,142s8.75-27.73,19.54-27.73S112.81,131.17,112.81,142Z"/></clipPath><clipPath id="clip-path-3"><path class="cls-3" d="M81.29,107s11.32,6.56,23.64,0c0,0-2.59,8.21-11.6,8.21S81.29,107,81.29,107Z"/></clipPath></defs><path class="cls-1" d="M89,71.26S58.9,72.66,57.32,91.21s10.15,24.84,10.15,24.84h54.59s5.27-2.14,6.65-23.62C130.1,70.56,89,71.26,89,71.26Z"/><g class="cls-4"><path class="cls-5" d="M60.54,93.44c.69-3,1.82-6.14,4.11-8.27a16,16,0,0,1,3.62-2.4,54,54,0,0,1,46.85-1.23c4.71,2.16,9.49,5.54,10.57,10.61s-1.9,10.13-5.31,14.06a33.75,33.75,0,0,1-5.62,5.33,33.31,33.31,0,0,1-15.55,5.71,99.15,99.15,0,0,1-16.71.27l-10.11-.4a30.67,30.67,0,0,0-5,0,10.64,10.64,0,0,1-3.23.24C62,117,61.41,115,60.9,113.08a41.59,41.59,0,0,1-1.35-9.27A40.61,40.61,0,0,1,60.54,93.44Z"/><path class="cls-6" d="M88.49,72.32c8.44,2.91,17,5.84,25.81,6.94a12.91,12.91,0,0,1,4.19.94A8.78,8.78,0,0,1,121,82.13c1.65,1.74,3.18,4,5.54,4.33.41-.57,0-1.36-.48-1.89-2.32-2.61-5.72-3.94-9-5.18-2.54-1-5.24-1.77-7.68-3-1.64-.8-2.89-1.82-4.71-2.27a65.28,65.28,0,0,0-8.11-1.33c-1.37-.15-2.73-.27-4.1-.36C91.45,72.41,89.36,72.75,88.49,72.32Z"/><path class="cls-6" d="M57.05,106a43.17,43.17,0,0,1,.33-11.58,22.07,22.07,0,0,1,4.76-10.46,34.63,34.63,0,0,0-3.09,19.54,8.51,8.51,0,0,1-5.65-.75"/></g><path class="cls-7" d="M112.49,136.41s5.88-.56,6,5.45-5.74,6.86-5.74,6.86,6.16-1.12,5.46,2.1-14.55,2.65-14.13-2.24S104.52,136.41,112.49,136.41Z"/><ellipse class="cls-8" cx="113.23" cy="137.08" rx="0.6" ry="0.22"/><path class="cls-7" d="M73,136.41s-5.88-.56-6,5.45,5.74,6.86,5.74,6.86-6.16-1.12-5.46,2.1,14.55,2.65,14.13-2.24S81,136.41,73,136.41Z"/><ellipse class="cls-8" cx="70.66" cy="137.67" rx="1.29" ry="0.56"/><ellipse class="cls-8" cx="72.65" cy="137.14" rx="0.8" ry="0.34"/><path class="cls-2" d="M112.81,142c0,10.79-8.75,11.36-19.54,11.36S73.73,152.76,73.73,142s8.75-27.73,19.54-27.73S112.81,131.17,112.81,142Z"/><g class="cls-9"><ellipse class="cls-10" cx="92.99" cy="117.05" rx="18.67" ry="8.82"/><ellipse class="cls-11" cx="93.27" cy="146.06" rx="11.59" ry="15.25"/></g><path class="cls-1" d="M85.51,122.88s-6,2-2.41,6S92.59,123,92.59,123s4.75,8.89,10.32,5.8-2.86-6.55-2.86-6.55S88.83,121.14,85.51,122.88Z"/><path class="cls-6" d="M69.24,119.94s3.17,7.83,19.59,3.16Z"/><path class="cls-6" d="M119.44,119s-3.38,8.38-19.84,3.85Z"/><path class="cls-2" d="M124.6,108.55c0,13.74-14,14.52-31.33,14.52s-31.33-.78-31.33-14.52,14-18.3,31.33-18.3S124.6,94.81,124.6,108.55Z"/><circle class="cls-2" cx="78.79" cy="91.3" r="12.59"/><circle class="cls-2" cx="107.75" cy="91.3" r="12.59"/><ellipse class="cls-8" cx="67.97" cy="102.7" rx="2.9" ry="1.12"/><ellipse class="cls-8" cx="118.53" cy="102.7" rx="2.9" ry="1.12"/><ellipse class="cls-8" cx="66.44" cy="100.23" rx="1.69" ry="0.65"/><ellipse class="cls-8" cx="119.63" cy="99.6" rx="1.69" ry="0.65"/><ellipse class="cls-8" cx="93.11" cy="100.85" rx="5.74" ry="1.12"/><path class="cls-2" d="M76.11,142l2.27,10.88s-2.18,0-2.89,1.07,1.36,2.37,3.84.71c0,0-.92,2.52,1.63,2.43s1.14-2.52,1.14-2.52,1.38,1.75,3.13.77-.76-2.71-3.28-2.68c0,0-.74-6.93-.82-10.54s-.95-5.89-3.12-6S75.72,140.32,76.11,142Z"/><path class="cls-2" d="M110.52,142l-2.28,10.88s2.19,0,2.89,1.07-1.35,2.37-3.84.71c0,0,.92,2.52-1.63,2.43s-1.13-2.52-1.13-2.52-1.39,1.75-3.14.77.77-2.71,3.29-2.68c0,0,.74-6.93.82-10.54s.94-5.89,3.11-6S110.91,140.32,110.52,142Z"/><path class="cls-12" d="M72.28,86.58s-2.76.2-2.59-2.07c0,0-1.6,3.57,2.21,4.53Z"/><path class="cls-12" d="M71.92,88.75s-2.73.49-2.79-1.8c0,0-1.23,3.72,2.66,4.29Z"/><path class="cls-12" d="M114.53,86.58s2.76.2,2.59-2.07c0,0,1.6,3.57-2.21,4.53Z"/><path class="cls-12" d="M114.9,88.75s2.72.49,2.78-1.8c0,0,1.23,3.72-2.65,4.29Z"/><circle class="cls-13" cx="78.42" cy="92.35" r="8.81"/><path d="M78.37,84.8a7.47,7.47,0,0,0-3.2.72,2.23,2.23,0,0,1,.62,1.54,2.26,2.26,0,0,1-2.25,2.26,2.23,2.23,0,0,1-1.69-.77,7.55,7.55,0,1,0,6.52-3.75Z"/><circle class="cls-13" cx="108.11" cy="92.35" r="8.81"/><path d="M108.17,84.8a7.43,7.43,0,0,0-3.2.72,2.23,2.23,0,0,1,.62,1.54,2.25,2.25,0,0,1-4,1.49,7.55,7.55,0,1,0,6.53-3.75Z"/><path class="cls-14" d="M97,109.56a4.12,4.12,0,0,0-.85-.56c-1.2-.94-2.78-.14-3.08,0-.3-.16-1.88-1-3.08,0a4.12,4.12,0,0,0-.85.56,7.95,7.95,0,0,0,7.86,0Z"/><ellipse class="cls-14" cx="93.02" cy="114.66" rx="2.82" ry="1.45"/><path class="cls-3" d="M81.29,107s11.32,6.56,23.64,0c0,0-2.59,8.21-11.6,8.21S81.29,107,81.29,107Z"/><g class="cls-15"><ellipse class="cls-16" cx="92.87" cy="117.69" rx="9.89" ry="5.35"/><ellipse class="cls-13" cx="92.87" cy="105.27" rx="9.89" ry="5.35"/></g></svg>