<svg id="Layer_1" data-name="Layer 1" xmlns="http://www.w3.org/2000/svg" viewBox="0 0 260 168"><defs><style>.cls-1{fill:#207ad3;}.cls-2{fill:#1069b2;}.cls-3{fill:#035084;}.cls-4{fill:#3f3f3f;}.cls-5{fill:#1ea2d6;}.cls-6{fill:#51cef4;}.cls-7{fill:#0864a3;}.cls-8{fill:#1e79c4;}</style></defs><path class="cls-1" d="M167.37,57.06s3.75-5.5,2.76-8c0,0-1.8-.65-5.43.42l0-3.53s5.44-2.5,8.95,1.32c0,0,3,6.53-5.68,13.45C168,60.77,166.46,58.54,167.37,57.06Z"/><path class="cls-1" d="M96.38,56.66s-3.68-5.54-2.67-8c0,0,1.81-.62,5.43.49l0-3.53s-5.42-2.57-9,1.21c0,0-3,6.5,5.54,13.52C95.73,60.37,97.28,58.15,96.38,56.66Z"/><path class="cls-2" d="M109.07,87.09l-.15,25.76s.06,1.9.84,2c0,0,1.36.45,1.88-2L116,90.62"/><path class="cls-3" d="M108,87.08l0,4.52s4.09,4,8.33,3.23l1.17-3"/><path class="cls-2" d="M155.08,87.35l-.14,25.75s-.08,1.9-.86,2c0,0-1.36.43-1.85-2L148.07,90.8"/><path class="cls-3" d="M156.17,87.35l0,4.51s-4.13,4-8.36,3.15L146.64,92"/><rect class="cls-2" x="132.21" y="90.04" width="3.8" height="19.97" rx="1.9" transform="translate(0.56 -0.74) rotate(0.32)"/><path class="cls-4" d="M97.09,54.14l38,1.36,32-1.25-4.86,16.54,7.06,2.7-31.48,6.39s-37.33-1.29-40-1.44-3.58-5-3.58-5l2-.5"/><path class="cls-5" d="M167.83,42s-.31,6.25-2.36,8.34l4.13,15.16a3.34,3.34,0,0,1,0,4.41s.05,3.26-.43,4c0,0,1.81,3.61-2.61,6.3,0,0-13.12,14.86-30.09,14.76l-9.09,0c-17-.09-29.92-15.1-29.92-15.1-4.39-2.74-2.54-6.32-2.54-6.32-.47-.75-.39-4-.39-4a3.34,3.34,0,0,1,0-4.41l4.29-15.11c-2-2.12-2.26-8.36-2.26-8.36s3.89,8.91,36.06,9.09C132.62,50.67,159.23,50.48,167.83,42Z"/><path class="cls-1" d="M94.5,69.46s4.34,9.53,38.37,9.72c0,0,27.61-1,37.19-10.13.37-.35.34-1.84.34-1.84a4.05,4.05,0,0,0-.85-2c-9.4,9.29-36.66,9.6-36.66,9.6-34-.19-38.36-9.72-38.36-9.72a2.38,2.38,0,0,0-.81,1.74A4.44,4.44,0,0,0,94.5,69.46Z"/><path class="cls-1" d="M94.46,77.51s4.33,9.52,38.36,9.71c0,0,27.61-1,37.19-10.12.37-.36.35-1.84.35-1.84a4,4,0,0,0-.86-2c-9.39,9.3-36.65,9.6-36.65,9.6-34-.19-38.37-9.71-38.37-9.71a2.42,2.42,0,0,0-.81,1.73A4.53,4.53,0,0,0,94.46,77.51Z"/><path class="cls-1" d="M97.07,58.13s4,8.78,35.8,9c0,0,25.77-.94,34.71-9.33.34-.33.32-1.7.32-1.7a3.75,3.75,0,0,0-.8-1.81c-8.77,8.57-34.21,8.85-34.21,8.85-31.76-.18-35.8-9-35.8-9a2.2,2.2,0,0,0-.76,1.6A4.06,4.06,0,0,0,97.07,58.13Z"/><ellipse class="cls-6" cx="132.22" cy="41.77" rx="8.95" ry="35.56" transform="matrix(0.01, -1, 1, 0.01, 89.71, 173.76)"/><ellipse class="cls-7" cx="131.96" cy="41.5" rx="7.27" ry="31.54" transform="translate(89.73 173.23) rotate(-89.68)"/><path class="cls-8" d="M133.2,46.82a121,121,0,0,1,15.14,1c9.08-1.23,15.14-3.5,15.16-6.12,0-4-14.08-7.35-31.5-7.44s-31.55,3.07-31.57,7.09c0,2.74,6.59,5.17,16.35,6.46A121.53,121.53,0,0,1,133.2,46.82Z"/></svg>