<svg xmlns="http://www.w3.org/2000/svg" xmlns:xlink="http://www.w3.org/1999/xlink" viewBox="0 0 260 168"><defs><style>.cls-1{fill:#3a3a3a;}.cls-2{fill:#474647;}.cls-3{fill:#fff;}.cls-4,.cls-8{fill:#333;}.cls-5{fill:#2d2d2d;}.cls-6{clip-path:url(#clip-path);}.cls-7{clip-path:url(#clip-path-2);}.cls-8{opacity:0.3;}.cls-9{fill:#231f20;}.cls-10,.cls-11{fill:none;}.cls-10{stroke:#727272;stroke-linecap:round;stroke-linejoin:round;stroke-width:0.12px;}</style><clipPath id="clip-path"><path class="cls-1" d="M206.92,109.5a2.88,2.88,0,0,1-1.15-1.47c-.21-.87.28-1.42,1.33-1.86a4.68,4.68,0,0,1,2.49-.34c.52.08,2.08.49,2.08.49l-1.22.63,0-.46a3.29,3.29,0,0,0-2-.35c-1.06.2-2,.72-2.05,1.08s.62,1,1,1.18Z"/></clipPath><clipPath id="clip-path-2"><path class="cls-2" d="M231.31,108.89c0-1.78-5.59-3.22-12.5-3.22s-12.5,1.44-12.5,3.22V109a11.32,11.32,0,0,0,1.52,4.52h0c.83,1.37,5.43,2.41,11,2.41s10.14-1,11-2.41h0A7.6,7.6,0,0,0,231.31,108.89Z"/></clipPath></defs><g id="Layer_3" data-name="Layer 3"><path class="cls-3" d="M14.15,153.66"/><path class="cls-3" d="M78,33.22c22.46,0,41.27,16.07,46.25,37.67a29.09,29.09,0,0,0,13,3.68,23.58,23.58,0,0,1-11.92,3.28c.13,1.46.2,2.94.2,4.43,0,27.1-21.29,49.07-47.55,49.07s-47.54-22-47.54-49.07S51.72,33.22,78,33.22Z"/><path class="cls-4" d="M232.54,109.05s.3-.07,0,.45a1.51,1.51,0,0,0,.41-.1c0-.05.2-.73.2-.73l-.57-.18Z"/><path class="cls-5" d="M206.41,107.49s.1-.52,1.09-.84a2.73,2.73,0,0,1,1.66-.22,6.9,6.9,0,0,1,.76.49l1.23-.47-2.09-.55-1.37.19-1.06.52-.5.52.14.37Z"/><path class="cls-1" d="M206.92,109.5a2.88,2.88,0,0,1-1.15-1.47c-.21-.87.28-1.42,1.33-1.86a4.68,4.68,0,0,1,2.49-.34c.52.08,2.08.49,2.08.49l-1.22.63,0-.46a3.29,3.29,0,0,0-2-.35c-1.06.2-2,.72-2.05,1.08s.62,1,1,1.18Z"/><g class="cls-6"><path class="cls-4" d="M205.62,106.78a2.78,2.78,0,0,0,1.7,2.53,4.29,4.29,0,0,1-.43.42s-1.06-.11-1.07-.13-.32-1.13-.31-1.21S205.62,106.78,205.62,106.78Z"/></g><path class="cls-2" d="M231.31,108.89c0-1.78-5.59-3.22-12.5-3.22s-12.5,1.44-12.5,3.22V109a11.32,11.32,0,0,0,1.52,4.52h0c.83,1.37,5.43,2.41,11,2.41s10.14-1,11-2.41h0A7.6,7.6,0,0,0,231.31,108.89Z"/><g class="cls-7"><path class="cls-8" d="M205.06,110.14s1.62,4.4,13.51,4.4,13-3.44,13-3.44l.23,5.06-21.11,1L203.94,114Z"/></g><ellipse class="cls-9" cx="218.81" cy="109.02" rx="11.9" ry="3.06"/><path class="cls-10" d="M207.46,107.71s2.37-1.55,8.23-1.82"/><path class="cls-10" d="M207.07,109.76s1.5,2.49,12.5,2.46"/><path class="cls-4" d="M231.32,108.8s1.33-.58,1.51-.13-.93,2-1.74,2.11-2.42.5-2.42.5a1.47,1.47,0,0,0,0,.92c.18.36,2-.23,2.92-.81a3.27,3.27,0,0,0,1.68-2.5C233.41,107.7,231.32,108.8,231.32,108.8Z"/><path class="cls-4" d="M231.32,108.8l0,.77s1.47-.86,1.8-.43C233.07,109.14,233.61,107.86,231.32,108.8Z"/><path class="cls-4" d="M228.67,111.28s.85-.45,1.1-.62a13.21,13.21,0,0,1,1.77-.32,1.44,1.44,0,0,0,1.13-1.28l.29-.15-.42,1.2-1.13,1-1.3.27Z"/><ellipse class="cls-11" cx="218.81" cy="109.02" rx="11.9" ry="3.06"/></g></svg>