<svg id="Layer_1" data-name="Layer 1" xmlns="http://www.w3.org/2000/svg" xmlns:xlink="http://www.w3.org/1999/xlink" viewBox="0 0 260 168"><defs><style>.cls-1{fill:#fcd212;}.cls-2{fill:url(#linear-gradient);}.cls-3{fill:#f6b019;}.cls-4{fill:#bc6828;}.cls-5{fill:#326d1f;}</style><linearGradient id="linear-gradient" x1="104.65" y1="118.66" x2="91.83" y2="137.56" gradientTransform="matrix(0.99, 0.12, -0.12, 0.99, 48.57, -10.21)" gradientUnits="userSpaceOnUse"><stop offset="0.22" stop-color="#ef4136"/><stop offset="1" stop-color="#be1e2d" stop-opacity="0"/></linearGradient></defs><path class="cls-1" d="M130.58,125a4.2,4.2,0,0,1,3.64,3.47c.55,2.63-1.93,6.4-6,7.54a6.07,6.07,0,0,1-3.58-.06,3.18,3.18,0,0,1-2.37-2.48v0c-.06-.9,1.09-1,1.59-1.66C125.46,129.76,125.85,124.45,130.58,125Z"/><path class="cls-2" d="M130.58,125a4.2,4.2,0,0,1,3.64,3.47c.55,2.63-1.93,6.4-6,7.54a6.07,6.07,0,0,1-3.58-.06,3.18,3.18,0,0,1-2.37-2.48v0c-.06-.9,1.09-1,1.59-1.66C125.46,129.76,125.85,124.45,130.58,125Z"/><path class="cls-3" d="M130.68,126.13s.31.44,1.15.27"/><path class="cls-4" d="M131.37,126.33a5.3,5.3,0,0,0,1-3.38.25.25,0,0,0-.25-.22h0a.25.25,0,0,0-.24.28,4.64,4.64,0,0,1-.65,3.2.11.11,0,0,0,.06.16h0A.12.12,0,0,0,131.37,126.33Z"/><path class="cls-5" d="M131.19,126.31s1.15-1.78-1-3.53C130.19,122.78,129.14,125.36,131.19,126.31Z"/></svg>