<svg xmlns="http://www.w3.org/2000/svg" xmlns:xlink="http://www.w3.org/1999/xlink" width="650" height="470" viewBox="0 0 650 470">
  <defs>
    <style>
      .cls-1, .cls-18 {
        fill: none;
      }

      .cls-2 {
        fill: #93278f;
      }

      .cls-3 {
        clip-path: url(#clip-path);
      }

      .cls-4 {
        fill: #fc9a8d;
      }

      .cls-5 {
        fill: #d4555e;
      }

      .cls-6 {
        fill: #510706;
      }

      .cls-7 {
        clip-path: url(#clip-path-2);
      }

      .cls-8 {
        clip-path: url(#clip-path-3);
      }

      .cls-9 {
        clip-path: url(#clip-path-4);
      }

      .cls-10 {
        clip-path: url(#clip-path-5);
      }

      .cls-11 {
        clip-path: url(#clip-path-6);
      }

      .cls-12 {
        clip-path: url(#clip-path-7);
      }

      .cls-13 {
        clip-path: url(#clip-path-8);
      }

      .cls-14, .cls-17 {
        fill: #2f009a;
      }

      .cls-15 {
        fill: #fff;
      }

      .cls-16 {
        fill: #231f20;
      }

      .cls-17, .cls-18 {
        stroke: #a81307;
        stroke-linecap: round;
        stroke-linejoin: round;
      }

      .cls-17 {
        stroke-width: 0.85px;
      }

      .cls-18 {
        stroke-width: 1.71px;
      }

      .cls-19 {
        clip-path: url(#clip-path-9);
      }

      .cls-20 {
        fill: #fa4316;
      }
    </style>
    <clipPath id="clip-path">
      <path id="SVGID" class="cls-1" d="M28.25,222.59c-3.11-3.37-1.62-9.55,3.15-10.36s.85-9-10.08-7-34.25,17.25-10.16,39.42,131.36-10.52,150.07-23c12.13-6.89,135.64,15.85,129.19-17.1,0,0-22.68-37-49.17-33"/>
    </clipPath>
    <clipPath id="clip-path-2">
      <path id="SVGID-2" data-name="SVGID" class="cls-1" d="M68.19,320.17c-4.11-2-4.92-8.34-.75-10.8s-2.4-8.67-11.92-2.95-25.84,28.34,4.58,40.44,119-56.7,132-75c8.87-10.76,132.37-33.59,114.58-62.07,0,0-34.41-26.51-57.7-13.25"/>
    </clipPath>
    <clipPath id="clip-path-3">
      <path id="SVGID-3" data-name="SVGID" class="cls-1" d="M147.8,407.07c-4.58-.07-8-5.42-5.32-9.43s-5.89-6.79-12,2.46S119.29,436.79,152,434.65,235,332.34,238.88,310.17C242.27,296.65,344,223,315.68,204.89c0,0-42.46-9.16-57.79,12.83"/>
    </clipPath>
    <clipPath id="clip-path-4">
      <path id="SVGID-4" data-name="SVGID" class="cls-1" d="M621.75,222.59c3.11-3.37,1.62-9.55-3.15-10.36s-.85-9,10.08-7,34.25,17.25,10.16,39.42-131.36-10.52-150.07-23c-12.13-6.89-135.64,15.85-129.19-17.1,0,0,22.68-37,49.17-33"/>
    </clipPath>
    <clipPath id="clip-path-5">
      <path id="SVGID-5" data-name="SVGID" class="cls-1" d="M581.81,320.17c4.11-2,4.92-8.34.75-10.8s2.4-8.67,11.92-2.95,25.84,28.34-4.58,40.44-119-56.7-132-75c-8.87-10.76-132.37-33.59-114.58-62.07,0,0,34.41-26.51,57.7-13.25"/>
    </clipPath>
    <clipPath id="clip-path-6">
      <path id="SVGID-6" data-name="SVGID" class="cls-1" d="M502.2,407.07c4.58-.07,8-5.42,5.32-9.43s5.89-6.79,12,2.46,11.15,36.69-21.51,34.55S415,332.34,411.12,310.17C407.73,296.65,306,223,334.32,204.89c0,0,42.46-9.16,57.79,12.83"/>
    </clipPath>
    <clipPath id="clip-path-7">
      <path id="SVGID-7" data-name="SVGID" class="cls-1" d="M243.32,413.61c-4.4,1.31-9.28-2.76-7.9-7.4s-7.66-4.72-10.74,6,.36,38.35,30.88,26.51,42-113.36,39-135.67c1.19-13.49,56.86-91.47,22-100.76,0,0-29.63,1.82-37.67,27.39"/>
    </clipPath>
    <clipPath id="clip-path-8">
      <path id="SVGID-8" data-name="SVGID" class="cls-1" d="M406.94,415.11c4.4,1.31,9.28-2.76,7.9-7.4s7.66-4.72,10.74,6-.36,38.35-30.88,26.51-42-113.36-39-135.67c-1.19-13.49-56.86-91.47-22-100.76,0,0,29.63,1.82,37.67,27.39"/>
    </clipPath>
    <clipPath id="clip-path-9">
      <path id="SVGID-9" data-name="SVGID" class="cls-1" d="M289.44,165s31.95,20.59,69.57,0C359,165,324.23,225.33,289.44,165Z"/>
    </clipPath>
  </defs>
  <title>17_big_octopus_move_flap_legs</title>
  <g id="number">
    <g>
      <g>
        <g>
          <path class="cls-2" d="M282.45,193.27s-14.72-25.79-41.21-21.71-59.76,8.29-81.7,14.2c-25.7,6.92-101.53,53.47-130.67,36-3.11-3.37-1.62-9.55,3.15-10.36s.85-9-10.08-7-34.25,17.25-10.16,39.42,127.92-8.12,146.63-20.62C170.54,216.28,288.9,226.22,282.45,193.27Z"/>
          <g class="cls-3">
            <path class="cls-4" d="M3,233.12s29,20,93.29,1.3c43.42-12.64,60.27-37.53,180.15-26.44,0,0-68.1,18.44-72.43,17.4S24.62,303.74,3,233.12Z"/>
          </g>
          <g>
            <g>
              <circle class="cls-5" cx="59.45" cy="250.74" r="6.24" transform="translate(-185.66 171.22) rotate(-58.69)"/>
              <circle class="cls-6" cx="61.37" cy="251.68" r="3.82" transform="translate(-185.54 173.31) rotate(-58.69)"/>
            </g>
            <g>
              <circle class="cls-5" cx="29.12" cy="251.07" r="4.75" transform="translate(-200.51 145.47) rotate(-58.69)"/>
              <circle class="cls-6" cx="30.58" cy="251.78" r="2.91" transform="translate(-200.42 147.06) rotate(-58.69)"/>
            </g>
            <g>
              <circle class="cls-5" cx="95.53" cy="244.28" r="6.24" transform="translate(-162.81 198.94) rotate(-58.69)"/>
              <circle class="cls-6" cx="97.44" cy="245.21" r="3.82" transform="translate(-162.7 201.02) rotate(-58.69)"/>
            </g>
            <g>
              <circle class="cls-5" cx="127.76" cy="234.99" r="6.24" transform="translate(-139.41 222.01) rotate(-58.69)"/>
              <circle class="cls-6" cx="129.67" cy="235.93" r="3.82" transform="translate(-139.29 224.1) rotate(-58.69)"/>
            </g>
            <g>
              <circle class="cls-5" cx="164.45" cy="221.58" r="6.24" transform="translate(-110.32 246.92) rotate(-58.69)"/>
              <circle class="cls-6" cx="166.37" cy="222.51" r="3.82" transform="translate(-110.2 249) rotate(-58.69)"/>
            </g>
            <g>
              <circle class="cls-5" cx="203.21" cy="219.72" r="6.24" transform="translate(-90.11 279.14) rotate(-58.69)"/>
              <circle class="cls-6" cx="205.13" cy="220.65" r="3.82" transform="translate(-90 281.23) rotate(-58.69)"/>
            </g>
          </g>
        </g>
        <g>
          <path class="cls-2" d="M295.2,202.07S272.25,183.23,249,196.5s-52.87,29.07-71.25,42.42c-21.54,15.64-75.76,86.18-109.23,80.24-4.11-2-4.92-8.34-.75-10.8s-2.4-8.67-11.92-2.95S30,333.75,60.37,345.85,177,292.62,190,274.27C198.87,263.5,313,230.56,295.2,202.07Z"/>
          <g class="cls-7">
            <path class="cls-4" d="M48.41,339s34.2,8.38,87.62-32.07c36-27.3,42.91-56.56,158.86-89,0,0-57,41.53-61.45,42.1S93.76,397.27,48.41,339Z"/>
          </g>
          <g>
            <g>
              <circle class="cls-5" cx="107.39" cy="335.33" r="6.24" transform="translate(-241.83 380.38) rotate(-79.59)"/>
              <circle class="cls-6" cx="109.51" cy="335.53" r="3.82" transform="translate(-240.28 382.62) rotate(-79.59)"/>
            </g>
            <g>
              <circle class="cls-5" cx="79.17" cy="346.46" r="4.75" transform="translate(-275.9 361.74) rotate(-79.59)"/>
              <circle class="cls-6" cx="80.79" cy="346.61" r="2.91" transform="translate(-274.71 363.46) rotate(-79.59)"/>
            </g>
            <g>
              <circle class="cls-5" cx="138.78" cy="316.42" r="6.24" transform="translate(-197.51 395.76) rotate(-79.59)"/>
              <circle class="cls-6" cx="140.91" cy="316.62" r="3.82" transform="translate(-195.96 398.01) rotate(-79.59)"/>
            </g>
            <g>
              <circle class="cls-5" cx="165.58" cy="296.25" r="6.24" transform="translate(-155.72 405.59) rotate(-79.59)"/>
              <circle class="cls-6" cx="167.7" cy="296.45" r="3.82" transform="translate(-154.17 407.83) rotate(-79.59)"/>
            </g>
            <g>
              <circle class="cls-5" cx="195.07" cy="270.63" r="6.24" transform="translate(-106.35 413.59) rotate(-79.59)"/>
              <circle class="cls-6" cx="197.19" cy="270.82" r="3.82" transform="translate(-104.8 415.84) rotate(-79.59)"/>
            </g>
            <g>
              <circle class="cls-5" cx="230.61" cy="255.06" r="6.24" transform="translate(-61.91 435.8) rotate(-79.59)"/>
              <circle class="cls-6" cx="232.74" cy="255.25" r="3.82" transform="translate(-60.36 438.05) rotate(-79.59)"/>
            </g>
          </g>
        </g>
        <g>
          <path class="cls-2" d="M302,202.89s-28.82-7.15-44.15,14.84-35.24,49-46.11,68.92C199,310,180.39,397,147.62,406c-4.58-.07-8-5.42-5.32-9.43s-5.89-6.79-12,2.46-11.15,36.69,21.51,34.55,82.41-98.17,86.29-120.34C241.45,299.75,330.33,221,302,202.89Z"/>
          <g class="cls-8">
            <path class="cls-4" d="M138,432.58s34.49-7.13,65.33-66.61c20.82-40.14,14.44-69.51,105.21-148.61,0,0-33.66,62-37.4,64.42S204,465.7,138,432.58Z"/>
          </g>
          <g>
            <g>
              <circle class="cls-5" cx="189.71" cy="403.92" r="6.24" transform="matrix(0.97, -0.26, 0.26, 0.97, -98.32, 63.07)"/>
              <circle class="cls-6" cx="191.71" cy="403.18" r="3.82" transform="translate(-98.06 63.56) rotate(-15.04)"/>
            </g>
            <g>
              <circle class="cls-5" cx="169.02" cy="426.09" r="4.75" transform="translate(-104.78 58.46) rotate(-15.04)"/>
              <circle class="cls-6" cx="170.54" cy="425.53" r="2.91" transform="translate(-104.59 58.84) rotate(-15.04)"/>
            </g>
            <g>
              <circle class="cls-5" cx="209.93" cy="373.35" r="6.24" transform="translate(-89.7 67.27) rotate(-15.04)"/>
              <circle class="cls-6" cx="211.93" cy="372.61" r="3.82" transform="translate(-89.44 67.76) rotate(-15.04)"/>
            </g>
            <g>
              <circle class="cls-5" cx="225.46" cy="343.63" r="6.24" transform="matrix(0.97, -0.26, 0.26, 0.97, -81.45, 70.28)"/>
              <circle class="cls-6" cx="227.46" cy="342.89" r="3.82" transform="translate(-81.19 70.78) rotate(-15.04)"/>
            </g>
            <g>
              <circle class="cls-5" cx="241.08" cy="307.81" r="6.24" transform="translate(-71.62 73.11) rotate(-15.04)"/>
              <circle class="cls-6" cx="243.08" cy="307.07" r="3.82" transform="translate(-71.36 73.6) rotate(-15.04)"/>
            </g>
            <g>
              <circle class="cls-5" cx="266.48" cy="278.48" r="6.24" transform="translate(-63.14 78.7) rotate(-15.04)"/>
              <circle class="cls-6" cx="268.49" cy="277.74" r="3.82" transform="translate(-62.88 79.19) rotate(-15.04)"/>
            </g>
          </g>
        </g>
        <g>
          <path class="cls-2" d="M367.55,193.27s14.72-25.79,41.21-21.71,59.76,8.29,81.7,14.2c25.7,6.92,101.53,53.47,130.67,36,3.11-3.37,1.62-9.55-3.15-10.36s-.85-9,10.08-7,34.25,17.25,10.16,39.42-127.92-8.12-146.63-20.62C479.46,216.28,361.1,226.22,367.55,193.27Z"/>
          <g class="cls-9">
            <path class="cls-4" d="M647,233.12s-29,20-93.29,1.3C510.24,221.78,493.39,196.9,373.51,208c0,0,68.1,18.44,72.43,17.4S625.38,303.74,647,233.12Z"/>
          </g>
          <g>
            <g>
              <circle class="cls-5" cx="590.55" cy="250.74" r="6.24" transform="translate(-44.29 343.44) rotate(-31.31)"/>
              <circle class="cls-6" cx="588.63" cy="251.68" r="3.82" transform="translate(-45.06 342.58) rotate(-31.31)"/>
            </g>
            <g>
              <circle class="cls-5" cx="620.88" cy="251.07" r="4.75" transform="translate(-40.05 359.25) rotate(-31.31)"/>
              <circle class="cls-6" cx="619.42" cy="251.78" r="2.91" transform="matrix(0.85, -0.52, 0.52, 0.85, -40.63, 358.59)"/>
            </g>
            <g>
              <circle class="cls-5" cx="554.47" cy="244.28" r="6.24" transform="translate(-46.19 323.75) rotate(-31.31)"/>
              <circle class="cls-6" cx="552.56" cy="245.21" r="3.82" transform="translate(-46.96 322.89) rotate(-31.31)"/>
            </g>
            <g>
              <circle class="cls-5" cx="522.24" cy="234.99" r="6.24" transform="translate(-46.06 305.65) rotate(-31.31)"/>
              <circle class="cls-6" cx="520.33" cy="235.93" r="3.82" transform="translate(-46.83 304.79) rotate(-31.31)"/>
            </g>
            <g>
              <circle class="cls-5" cx="485.55" cy="221.58" r="6.24" transform="translate(-44.43 284.62) rotate(-31.31)"/>
              <circle class="cls-6" cx="483.63" cy="222.51" r="3.82" transform="translate(-45.2 283.76) rotate(-31.31)"/>
            </g>
            <g>
              <circle class="cls-5" cx="446.79" cy="219.72" r="6.24" transform="translate(-49.11 264.21) rotate(-31.31)"/>
              <circle class="cls-6" cx="444.87" cy="220.65" r="3.82" transform="matrix(0.85, -0.52, 0.52, 0.85, -49.88, 263.35)"/>
            </g>
          </g>
        </g>
        <g>
          <path class="cls-2" d="M354.8,202.07s22.95-18.84,46.24-5.57,52.87,29.07,71.25,42.42c21.54,15.64,75.76,86.18,109.23,80.24,4.11-2,4.92-8.34.75-10.8s2.4-8.67,11.92-2.95,25.84,28.34-4.58,40.44S473,292.62,460,274.27C451.13,263.5,337,230.56,354.8,202.07Z"/>
          <g class="cls-10">
            <path class="cls-4" d="M601.59,339s-34.2,8.38-87.62-32.07c-36-27.3-42.91-56.56-158.86-89,0,0,57,41.53,61.45,42.1S556.24,397.27,601.59,339Z"/>
          </g>
          <g>
            <g>
              <circle class="cls-5" cx="542.61" cy="335.33" r="6.24" transform="translate(-51.65 103.54) rotate(-10.41)"/>
              <circle class="cls-6" cx="540.49" cy="335.53" r="3.82" transform="translate(-51.72 103.16) rotate(-10.41)"/>
            </g>
            <g>
              <circle class="cls-5" cx="570.83" cy="346.46" r="4.75" transform="translate(-53.2 108.82) rotate(-10.41)"/>
              <circle class="cls-6" cx="569.21" cy="346.61" r="2.91" transform="translate(-53.25 108.53) rotate(-10.41)"/>
            </g>
            <g>
              <circle class="cls-5" cx="511.22" cy="316.42" r="6.24" transform="translate(-48.75 97.56) rotate(-10.41)"/>
              <circle class="cls-6" cx="509.09" cy="316.62" r="3.82" transform="translate(-48.82 97.18) rotate(-10.41)"/>
            </g>
            <g>
              <circle class="cls-5" cx="484.42" cy="296.25" r="6.24" transform="translate(-45.55 92.39) rotate(-10.41)"/>
              <circle class="cls-6" cx="482.3" cy="296.45" r="3.82" transform="translate(-45.62 92.01) rotate(-10.41)"/>
            </g>
            <g>
              <circle class="cls-5" cx="454.93" cy="270.63" r="6.24" transform="translate(-41.4 86.64) rotate(-10.41)"/>
              <circle class="cls-6" cx="452.81" cy="270.82" r="3.82" transform="translate(-41.47 86.26) rotate(-10.41)"/>
            </g>
            <g>
              <circle class="cls-5" cx="419.39" cy="255.06" r="6.24" transform="translate(-39.18 79.96) rotate(-10.41)"/>
              <circle class="cls-6" cx="417.26" cy="255.25" r="3.82" transform="translate(-39.25 79.58) rotate(-10.41)"/>
            </g>
          </g>
        </g>
        <g>
          <path class="cls-2" d="M348,202.89s28.82-7.15,44.15,14.84,35.24,49,46.11,68.92C451,310,469.61,397,502.38,406c4.58-.07,8-5.42,5.32-9.43s5.89-6.79,12,2.46,11.15,36.69-21.51,34.55-82.41-98.17-86.29-120.34C408.55,299.75,319.67,221,348,202.89Z"/>
          <g class="cls-11">
            <path class="cls-4" d="M512,432.58s-34.49-7.13-65.33-66.61c-20.82-40.14-14.44-69.51-105.21-148.61,0,0,33.66,62,37.4,64.42S446,465.7,512,432.58Z"/>
          </g>
          <g>
            <g>
              <circle class="cls-5" cx="460.29" cy="403.92" r="6.24" transform="translate(-49.24 743.62) rotate(-74.96)"/>
              <circle class="cls-6" cx="458.29" cy="403.18" r="3.82" transform="translate(-50.01 741.14) rotate(-74.96)"/>
            </g>
            <g>
              <circle class="cls-5" cx="480.98" cy="426.09" r="4.75" transform="translate(-55.33 780.03) rotate(-74.96)"/>
              <circle class="cls-6" cx="479.46" cy="425.53" r="2.91" transform="translate(-55.92 778.14) rotate(-74.96)"/>
            </g>
            <g>
              <circle class="cls-5" cx="440.07" cy="373.35" r="6.24" transform="translate(-34.7 701.46) rotate(-74.96)"/>
              <circle class="cls-6" cx="438.07" cy="372.61" r="3.82" transform="translate(-35.47 698.98) rotate(-74.96)"/>
            </g>
            <g>
              <circle class="cls-5" cx="424.54" cy="343.63" r="6.24" transform="translate(-17.49 664.45) rotate(-74.96)"/>
              <circle class="cls-6" cx="422.54" cy="342.89" r="3.82" transform="translate(-18.26 661.97) rotate(-74.96)"/>
            </g>
            <g>
              <circle class="cls-5" cx="408.92" cy="307.81" r="6.24" transform="matrix(0.26, -0.97, 0.97, 0.26, 5.54, 622.85)"/>
              <circle class="cls-6" cx="406.92" cy="307.07" r="3.82" transform="translate(4.77 620.37) rotate(-74.96)"/>
            </g>
            <g>
              <circle class="cls-5" cx="383.52" cy="278.48" r="6.24" transform="translate(15.05 576.59) rotate(-74.96)"/>
              <circle class="cls-6" cx="381.51" cy="277.74" r="3.82" transform="translate(14.28 574.11) rotate(-74.96)"/>
            </g>
          </g>
        </g>
        <g>
          <path class="cls-2" d="M316.51,202.25s-29.63,1.82-37.67,27.39-13.63,35.21-18,57.51c-5.14,26.11,11.39,107.7-17.17,126.12-4.4,1.31-9.28-2.76-7.9-7.4s-7.66-4.72-10.74,6,.36,38.35,30.88,26.51,41-111.36,38-133.67C293.06,290.76,348.92,211,316.51,202.25Z"/>
          <g class="cls-12">
            <path class="cls-4" d="M245.22,447s33.33-24.39,37.33-89.67c2.77-45.14-1-102.67,55.13-150.72,0,0-24.11,76.72-27,80.14S318.1,458.83,245.22,447Z"/>
          </g>
          <g>
            <g>
              <circle class="cls-5" cx="282.22" cy="397.68" r="4.89" transform="translate(-169.43 213.8) rotate(-32.49)"/>
              <circle class="cls-6" cx="283.54" cy="396.66" r="3" transform="translate(-168.67 214.35) rotate(-32.49)"/>
            </g>
            <g>
              <circle class="cls-5" cx="289.34" cy="355.18" r="6.24" transform="translate(-145.49 210.98) rotate(-32.49)"/>
              <circle class="cls-6" cx="291.03" cy="353.88" r="3.82" transform="matrix(0.84, -0.54, 0.54, 0.84, -144.53, 211.68)"/>
            </g>
            <g>
              <circle class="cls-5" cx="296.15" cy="315.67" r="6.24" transform="translate(-123.2 208.45) rotate(-32.49)"/>
              <circle class="cls-6" cx="297.84" cy="314.36" r="3.82" transform="translate(-122.24 209.16) rotate(-32.49)"/>
            </g>
            <g>
              <circle class="cls-5" cx="299.28" cy="282.41" r="6.24" transform="translate(-104.85 204.93) rotate(-32.49)"/>
              <circle class="cls-6" cx="300.97" cy="281.11" r="3.82" transform="translate(-103.88 205.63) rotate(-32.49)"/>
            </g>
            <g>
              <circle class="cls-5" cx="313.96" cy="252.98" r="6.24" transform="translate(-86.75 208.21) rotate(-32.49)"/>
              <circle class="cls-6" cx="315.65" cy="251.68" r="3.82" transform="translate(-85.78 208.91) rotate(-32.49)"/>
            </g>
          </g>
        </g>
        <g>
          <path class="cls-2" d="M333.74,203.75s29.63,1.82,37.67,27.39,13.63,35.21,18,57.51c5.14,26.11-11.39,107.7,17.17,126.12,4.4,1.31,9.28-2.76,7.9-7.4s7.66-4.72,10.74,6-.36,38.35-30.88,26.51-41-111.36-38-133.67C357.19,292.26,301.33,212.52,333.74,203.75Z"/>
          <g class="cls-13">
            <path class="cls-4" d="M405,448.51s-33.33-24.39-37.33-89.67c-2.77-45.14,1-102.67-55.13-150.72,0,0,24.11,76.72,27,80.14S332.15,460.33,405,448.51Z"/>
          </g>
          <g>
            <g>
              <circle class="cls-5" cx="368.04" cy="399.18" r="4.89" transform="translate(-166.35 495.23) rotate(-57.51)"/>
              <circle class="cls-6" cx="366.71" cy="398.16" r="3" transform="translate(-166.1 493.64) rotate(-57.51)"/>
            </g>
            <g>
              <circle class="cls-5" cx="360.91" cy="356.68" r="6.24" transform="translate(-133.8 469.55) rotate(-57.51)"/>
              <circle class="cls-6" cx="359.22" cy="355.38" r="3.82" transform="translate(-133.48 467.52) rotate(-57.51)"/>
            </g>
            <g>
              <circle class="cls-5" cx="354.1" cy="317.17" r="6.24" transform="translate(-103.62 445.51) rotate(-57.51)"/>
              <circle class="cls-6" cx="352.41" cy="315.86" r="3.82" transform="translate(-103.3 443.48) rotate(-57.51)"/>
            </g>
            <g>
              <circle class="cls-5" cx="350.97" cy="283.91" r="6.24" transform="translate(-77.02 427.48) rotate(-57.51)"/>
              <circle class="cls-6" cx="349.28" cy="282.61" r="3.82" transform="translate(-76.7 425.45) rotate(-57.51)"/>
            </g>
            <g>
              <circle class="cls-5" cx="336.29" cy="254.48" r="6.24" transform="translate(-58.99 401.47) rotate(-57.51)"/>
              <circle class="cls-6" cx="334.6" cy="253.18" r="3.82" transform="translate(-58.67 399.44) rotate(-57.51)"/>
            </g>
          </g>
        </g>
      </g>
      <g>
        <path class="cls-2" d="M335.64.59a140.64,140.64,0,0,0-25.69,0C222.18,7.22,216.3,99.7,229.2,125.93a235.6,235.6,0,0,0,15.39,26.59,22.37,22.37,0,0,0,11,36.58c1.75,16.15,35.89,21.16,59.83,22,2.14.09,4.62.14,7.34.14s5.19,0,7.34-.14c23.71-.84,57.41-5.77,59.77-21.54a22.37,22.37,0,0,0,11.46-38.91c4.45-6.88,9.72-14.6,15-24.73C429.9,100.1,423.22,9.84,335.64.59Z"/>
        <g>
          <g>
            <circle class="cls-14" cx="293.32" cy="122.65" r="26.41"/>
            <circle class="cls-15" cx="293.32" cy="124.71" r="23.25"/>
            <circle class="cls-16" cx="293.32" cy="124.71" r="18.34"/>
            <circle class="cls-15" cx="301.13" cy="116.4" r="6.92"/>
          </g>
          <g>
            <circle class="cls-14" cx="356.88" cy="122.65" r="26.41"/>
            <circle class="cls-15" cx="356.88" cy="124.71" r="23.25"/>
            <circle class="cls-16" cx="356.88" cy="124.71" r="18.34"/>
            <circle class="cls-15" cx="364.69" cy="116.4" r="6.92"/>
          </g>
          <g>
            <path class="cls-17" d="M289.44,165s31.95,20.59,69.57,0C359,165,324.23,225.33,289.44,165Z"/>
            <path class="cls-18" d="M282.78,165.55a8.68,8.68,0,0,0,11-5.1"/>
            <path class="cls-18" d="M366.46,165.55a8.68,8.68,0,0,1-11-5.1"/>
            <g class="cls-19">
              <path class="cls-20" d="M311,192.49s-.56-8.43,5.38-8.43,6.82,3.37,6.82,3.37.88-3.85,7.38-3.85,5.54,12.36,5.54,12.36Z"/>
            </g>
          </g>
          <path class="cls-17" d="M277.4,79.42h28.4S291.6,68.06,277.4,79.42Z"/>
          <path class="cls-17" d="M343.67,79.42h28.4S357.87,68.06,343.67,79.42Z"/>
        </g>
      </g>
    </g>
  </g>
</svg>
