<svg xmlns="http://www.w3.org/2000/svg" xmlns:xlink="http://www.w3.org/1999/xlink" width="1024" height="600" viewBox="0 0 1024 600">
  <defs>
    <style>
      .cls-1 {
        fill: none;
      }

      .cls-2 {
        fill: #f27341;
      }

      .cls-3 {
        fill: #fbe831;
      }

      .cls-4 {
        fill: #f27342;
      }

      .cls-5 {
        fill: #fff;
      }

      .cls-6 {
        clip-path: url(#clip-path);
      }

      .cls-7 {
        fill: #ec764b;
      }

      .cls-8 {
        fill: #ed2d24;
      }

      .cls-9 {
        clip-path: url(#clip-path-2);
      }
    </style>
    <clipPath id="clip-path">
      <circle id="SVGID" class="cls-1" cx="887.85" cy="132.35" r="20.62"/>
    </clipPath>
    <clipPath id="clip-path-2">
      <circle id="SVGID-2" data-name="SVGID" class="cls-1" cx="836.35" cy="138.4" r="20.62"/>
    </clipPath>
  </defs>
  <title>22_all_static_items</title>
  <g id="sun">
    <g>
      <polygon class="cls-2" points="989.69 129.46 1020.52 102.11 985.71 95.65 1001.62 68.3 964.33 71.28 971.79 32 943.44 45.43 940.46 14.6 913.11 34.98 895.71 -0.32 877.81 33.49 853.94 5.65 844.99 44.43 811.67 24.54 814.65 56.37 782.83 48.91 796.75 83.22 761.45 87.2 784.82 115.54 749.51 129.96 784.32 150.85 755.98 177.2 784.82 182.67 769.4 208.53 811.17 205.05 802.22 244.33 831.56 231.4 834.05 268.2 864.88 238.86 881.29 277.15 897.7 249.8 917.59 272.18 927.53 231.4 962.34 251.29 959.85 220.46 989.69 226.93 976.26 192.12 1017.04 186.65 993.67 162.78 1024 151.84 989.69 129.46"/>
      <circle class="cls-3" cx="887.59" cy="138.39" r="89.34"/>
      <path class="cls-2" d="M905.65,103.11s-26.35-18.4-37.29,2c0,0-2.49-16.91,10.94-17.4S905.65,103.11,905.65,103.11Z"/>
      <path class="cls-2" d="M853.13,107.15s-26.35-18.4-37.29,2c0,0-2.49-16.91,10.94-17.4S853.13,107.15,853.13,107.15Z"/>
      <path class="cls-4" d="M906.59,177.55s-15.6,30.63-45.94,27.51c-18.72-2.84-29.49-23.54-29.49-23.54S857.81,207,906.59,177.55Z"/>
      <g>
        <circle class="cls-5" cx="887.85" cy="132.35" r="20.62"/>
        <g class="cls-6">
          <g>
            <circle class="cls-7" cx="880.34" cy="135.11" r="13"/>
            <circle class="cls-8" cx="880.09" cy="135.15" r="8.8"/>
            <circle class="cls-5" cx="885.49" cy="129.53" r="4.1"/>
          </g>
        </g>
      </g>
      <g>
        <circle class="cls-5" cx="836.35" cy="138.4" r="20.62"/>
        <g class="cls-9">
          <g>
            <circle class="cls-7" cx="826.94" cy="142.05" r="13"/>
            <circle class="cls-8" cx="826.69" cy="142.09" r="8.8"/>
            <circle class="cls-5" cx="832.08" cy="136.48" r="4.1"/>
          </g>
        </g>
      </g>
      <circle class="cls-4" cx="863.31" cy="170.87" r="10.53"/>
    </g>
  </g>
</svg>
