<?xml version="1.0" encoding="utf-8"?>
<!-- Generator: Adobe Illustrator 23.0.1, SVG Export Plug-In . SVG Version: 6.00 Build 0)  -->
<svg version="1.1" id="Layer_1" xmlns="http://www.w3.org/2000/svg" xmlns:xlink="http://www.w3.org/1999/xlink" x="0px" y="0px"
	 viewBox="0 0 276 388.3" style="enable-background:new 0 0 276 388.3;" xml:space="preserve">
<style type="text/css">
	.st0{fill:#0C0807;}
	.st1{fill:#A56737;}
	.st2{fill:#A46636;}
	.st3{fill:#488DCB;}
	.st4{fill:#D42027;}
	.st5{fill:#21B14B;}
	.st6{fill:#FDE500;}
	.st7{fill:#9A5B2A;}
	.st8{fill:#6C401D;}
	.st9{fill:#FAF8F7;}
	.st10{fill:#522F27;}
	.st11{fill:#060504;}
	.st12{fill:#600B0C;}
	.st13{fill:#F2ECEC;}
	.st14{fill:#FFFFFF;}
	.st15{fill:#734725;}
</style>
<title>22_akili&amp;apos;s</title>
<g>
	<path class="st0" d="M151.4,356.6c0.8-0.3,0.9,0.3,1.1,0.8c1.6,5.4,2.1,10.9,0,16.2c-2.2,5.6-6.7,7.7-12.3,7.9
		c-2.2,0-4.4,0.7-6.3,1.9c-6.6,4-14,5.1-21.5,4.9c-4-0.1-8-0.4-11.7-2.2c-8.9-4.3-8.4-14.9-4.2-19.9c2.7-3.3,6.3-5.5,10-7.6
		c2.8-1.7,5.7-3.2,8.6-4.5c2.5-1.2,4.8-2.6,6.9-4.3c6.6,3.4,12.4,7.6,16.8,13.8c1.6,2.2,1.6,2.3,3.9,0.8
		C145.9,362.2,149.4,360.2,151.4,356.6z M120.2,372.3c3.4,0.3,6-0.7,8.7-1.6c1.6-0.6,4.1-0.7,4.6-2c0.6-1.5-1.5-3-2.5-4.4
		c-3.2-4.2-6.7-8-11.8-9.8c-0.8-0.5-1.8-0.4-2.6,0.1c-1.9,1.4-3.6,3.2-5.1,5.1c-2.7,3.9-2.1,7.2,1.6,10
		C115.2,371.1,117.6,372,120.2,372.3L120.2,372.3z"/>
	<path class="st1" d="M151.4,356.6c-2,3.6-5.5,5.6-8.9,7.8c-2.2,1.5-2.3,1.4-3.9-0.8c-4.3-6.1-10.2-10.4-16.8-13.8
		c2.9-3.2,3.8-7.3,5-11.2c1.6-5.1,8.3-41.5,9.9-46.7c4,0.6,7.9,1.7,11.9,1.7c3.7,0.1,7.4,0.2,11.1,0.2c-1.2,7.3-7.8,45.8-8.4,53.1
		C151.2,350.2,151.2,353.4,151.4,356.6z"/>
	<path class="st1" d="M120.2,372.3c-2.5-0.3-5-1.2-7.1-2.6c-3.8-2.8-4.3-6.2-1.6-10c1.5-1.9,3.2-3.6,5.1-5.1
		c0.8-0.6,1.8-0.6,2.6-0.1c5.1,1.9,8.7,5.6,11.8,9.8c1,1.4,3.1,2.9,2.5,4.4c-0.5,1.3-3,1.4-4.6,2
		C126.2,371.6,123.6,372.6,120.2,372.3z"/>
	<path class="st0" d="M231.4,335.7c0.1,0,0.3-0.1,0.4,0c6.4,2.9,13.5,2.7,20,5.2c1.9,0.7,3.7,1.4,5.6,2.1c7.8,3,9.9,13.2,7.4,18.2
		c-2,3.9-5.3,6.1-9.1,7.6c-8.7,3.5-18.3,4.2-27.4,1.9c-0.9-0.2-1.9-0.1-2.7,0.3c-5,1.8-10.1,1.8-13.6-2.5c-4.2-5.1-7.4-10.9-6.8-18
		c3.4,2.5,7.2,4.3,11.3,5.2c1.2,0.3,1.8,0.1,2.2-1.2c1.6-5.4,4.7-9.9,8.3-14.1C228.3,338.8,230.1,337.6,231.4,335.7z M238.2,357.3
		c2.3-0.6,4.3-1.8,6.1-3.4c3.4-3.1,4.4-7.4,0.3-11c-1.9-1.5-3.9-2.7-6.1-3.7c-0.9-0.5-2-0.4-2.7,0.3c-5.9,4.1-8.4,10.5-10.7,16.9
		c-0.2,0.7,0,1,0.7,1.1C230,357.7,234.1,358.6,238.2,357.3L238.2,357.3z"/>
	<path class="st1" d="M231.4,335.7c-1.2,1.8-3.1,3.1-4.5,4.7c-3.6,4.2-6.7,8.8-8.3,14.1c-0.4,1.3-1,1.5-2.2,1.2
		c-4.1-0.9-7.9-2.7-11.3-5.2c-0.8-6-4-10.9-6.4-16.2c-1.4-3.1-2.8-6.2-4.2-9.2c7.9-1.8,15.6-4.2,22.5-8.6
		c3.4,5.1,6.4,10.5,10.3,15.2C228.5,333.2,230,334.4,231.4,335.7z"/>
	<path class="st1" d="M238.2,357.3c-4.1,1.2-8.3,0.4-12.4,0.1c-0.7,0-1-0.4-0.7-1.1c2.3-6.4,4.8-12.7,10.7-16.9
		c0.7-0.7,1.9-0.8,2.7-0.3c2.2,1,4.2,2.2,6.1,3.7c4.1,3.6,3.1,7.9-0.3,11C242.6,355.5,240.5,356.7,238.2,357.3z"/>
	<path class="st2" d="M274.2,247c-5-3.6-10.5-5.7-17.1-8.8c-0.4-0.2-0.3-0.8,0.1-0.8c3.9-0.5,12,0.7,16.6-2c0.7-0.4,1-1.2,0.9-2
		c-0.2-1.4-2.2-1.9-3.8-2.2l-16.1-0.8c-1.2-0.2-1.9,0-2-0.7s1.3-0.4,1.8-0.6c2-0.9,4-1.7,6.1-2.3c0.9-0.5,1.7-1,2.5-1.7
		c0.6-0.9,0.3-2.1-0.5-2.6c-0.2-0.1-0.5-0.2-0.7-0.3c-2.5-0.4-5.1-0.4-7.7,0.1c-3.9,0.5-7.9,1.2-11.8,1.7c-2.1,0.3-3.6,0.8-5.7-0.2
		c-2.6-1.3-6.1-2.9-8.6-4.4c-12.5-7.5-21.4-13.5-32.3-23.7c-2.1-2-4.5-4.8-7.3-4.2c-1,0.3-1.9,0.8-2.6,1.6c-1.7,1.4-2.7,3.5-2.8,5.7
		c-0.1,4.8,3.8,8.4,7.2,12c10,10.7,20.8,20.7,32.3,29.8c2.1,1.7,4.7,2.9,5.8,5.4c2.2,4.9,4.5,10.6,8.2,14.9c0.9,1.1,2.5,1.3,3.6,0.4
		c1-0.9,1.4-2.2,1.3-3.5c-0.1-2.1,0-4.3,0.2-6.4c0.6-1.5,3.2,0.3,4.6,1.6c3,3,6.4,5.5,10.1,7.5c1.8,1,4.1,2.5,5.3,0.8
		c0.7-0.9,0-2.6-0.6-3.6c-0.8-1.3-1.8-2.4-2.8-3.5c-2.2-2.4-4.3-4.8-6.3-7.4c0-1,5.4,1,12.4,2.7c0.5,0.1,10.6,2.9,11.4,0.7
		C276.4,249.2,275.1,247.7,274.2,247z"/>
	<path class="st3" d="M167.8,188.6c0.6,1,1.3,1.9,2.2,2.7c1.8,1.6-0.2,1.1,2.1,2.6c2.9,2,5.5,4.5,7.4,7.5c0.4,0.6,0.9,1.2,1.5,1.6
		c0.7,0.2,1.5,0.1,2.2-0.1c3.4-0.9,6.4-2.8,8.6-5.6c1.4-1.6,2.6-3.4,4-5.1c0.7-0.7,1.1-1.7,1-2.7c-0.3-0.8-0.7-1.7-1.2-2.4
		c-2-3-2.9-5.7-4.2-9.1c-1.4-3.7-3.1-6.3-6.1-8.3c-2.1-1.3-4.4-2.1-6.8-2.5c-3-0.5-1.5-0.3-4.4,0.5c-2.9,0.8-5.4,2.7-6.9,5.4
		c-0.7,1.6-1.2,3.2-1.4,4.9c-0.4,1.8-0.5,3.7-0.3,5.6C166.1,185.4,166.9,187,167.8,188.6z"/>
	<path class="st2" d="M4.1,149c5.9,1.8,10.9,4.9,17.3,8.4c0.4,0.2,0.8-0.2,0.6-0.5c-2-3.4-7.8-9.2-8.4-14.5
		c-0.1-0.8,0.4-1.6,1.1-1.9c1.3-0.7,2.8,0.7,4,1.7l10.3,12.4c0.9,0.9,1.2,1.6,1.7,1.1s-0.5-1.2-0.6-1.8c-0.5-2.1-1.1-4.2-1.9-6.3
		c-0.2-1-0.2-2-0.1-3c0.3-1,1.4-1.5,2.4-1.2c0.3,0.1,0.5,0.2,0.7,0.4c1.9,1.8,3.4,3.9,4.5,6.2c1.9,3.4,3.8,7,5.7,10.5
		c1,1.8,1.5,3.4,3.6,4.4c2.5,1.3,6,3.2,8.7,4.2c13.5,5.5,23.7,9,38.4,11.6c2.8,0.5,6.5,0.7,7.7,3.3c0.4,1,0.5,2,0.4,3.1
		c-0.1,2.2-1.2,4.3-2.9,5.7c-3.7,2.9-9,2-14,1.5c-14.6-1.6-29-4.2-43.2-7.9c-2.6-0.7-5.2-2-7.8-1.4c-5.3,1.2-11.2,2.8-16.8,2.3
		c-1.4-0.1-2.4-1.2-2.4-2.6c0.1-1.3,0.9-2.5,2.1-3.1c1.8-1.2,3.4-2.5,5-4c0.8-1.4-2.1-2.4-4-2.7c-4.2-0.6-8.3-1.8-12.1-3.6
		c-1.9-0.8-4.4-1.8-3.8-3.8c0.3-1.1,2.1-1.5,3.2-1.7c1.5-0.1,3,0,4.5,0.1c3.2,0.4,6.5,0.6,9.7,0.6c0.8-0.6-4.1-3.7-9.7-8.3
		c-0.4-0.3-8.7-6.7-7.4-8.7C1,148.6,3.1,148.7,4.1,149z"/>
	<path class="st3" d="M117.7,202.4c-1.2,0.1-2.4,0.1-3.5-0.2c-2.4-0.5-3.8-2.7-6.3-3.6c-3.4-1.2-6.9-1.6-10.4-1.4
		c-0.7,0.1-1.5,0-2.2-0.3c-0.6-0.5-1-1.1-1.3-1.8c-1.3-3.2-1.6-6.8-0.7-10.2c0.4-2.1,1.2-4.1,1.7-6.2c0.1-1,0.7-1.9,1.5-2.4
		c0.8-0.3,1.7-0.4,2.6-0.5c3.3-0.3,6.6-1,9.8-2.1c3.8-1.1,6.9-1.3,10.3-0.2c2.3,0.9,4.4,2.3,6.1,4c2.3,2,4,4.5,5.2,7.3
		c1.1,2.8,1.1,6-0.2,8.8c-0.8,1.5-1.9,2.8-3.1,4c-1.2,1.4-2.7,2.6-4.3,3.6C121.3,201.9,119.5,202.3,117.7,202.4z"/>
	<path class="st3" d="M127.2,335.7h0.2c1.3,0.2,2.6,0.2,4,0.3l4.6,0.3c2.1,0.1,4.3,0,6.4-0.3c3.7-0.5,7.5-0.7,11.2-1.2
		c0.9-0.2,1.9-0.2,2.9-0.2c0.3,0,0.6,0,0.9,0c2-0.3,4-0.8,6-1c2-0.2,4-0.3,6.1-0.2c2.4,0.1,20.7,2.2,29.3,0.5s19.9-2.6,25.5-10.1
		c-3.9-10.8-7-21.9-9.4-33.2c-3.9-18.3-11.4-40.4-16.4-51.8s-10-42.6-10-42.6s-0.1-22.8-5-28.7c-5.3-6.3-20.4-4.7-34.3-2.3
		c-10.7,2-21,5.4-30.8,10.1c-3.5,1.8-0.6,36.9,0,44s5.8,36.2,6.3,46.2c0.2,4.5,0.3,8.9,0.4,13.4c-0.1,1.6,0,3.2,0.3,4.8
		c0.2,1.5,0.2,2.9,0,4.4c-0.1,2.1-0.4,4.2-0.6,6.3c-0.2,2.3-0.5,4.5-1,6.8c-0.3,2-0.8,3.9-1.4,5.8c-0.8,2.1-1.2,4.3-2.3,6.3
		c-0.5,0.9-0.9,1.9-1.3,2.9c-0.4,0.9-0.9,1.7-1.4,2.5c-0.5,0.9-0.8,2-1.4,2.9c-0.8,1.4-1.9,2.9-2.8,4.3c-0.8,1.2-1.6,2.4-2.4,3.6
		c-0.6,0.7-0.6,1.7-0.1,2.4c1.4,1.8,4.7,1.4,6.7,1.8s4.1,0.9,6.1,1.3c0.7,0.1,1.4,0.2,2,0.5C126,335.5,126.6,335.6,127.2,335.7z"/>
	<polygon class="st4" points="176.4,167.1 168.7,166.5 124.7,172.4 120.5,173.5 125.5,196 175.7,189.1 	"/>
	<path class="st5" d="M170.7,166.5l-6.1-0.8l-35.3,4.6c-0.8,0.3-1.5,0.7-2.3,1.1l-2.3,0.8l4.6,17.7l41.2-6L170.7,166.5z"/>
	<polygon class="st6" points="165,165.6 156.8,164.6 133.5,168.1 129.4,170.1 133.3,184.3 165.4,179.6 	"/>
	<path class="st2" d="M137.3,179.6l-3.4-10.8c0,0,3.6-1.1,4.4-4.4s1.8-7.6,10-8.6c7.9-1,6.5,2.8,7.1,4.2c0.5,1.2,0.9,2.4,1.2,3.6
		c0.4,1.5,1.6,2.5,3.1,2.5c2.1,0.2,0.2,9.2,0.2,9.2L137.3,179.6z"/>
	<path d="M141.9,156.3c0,0-19.6,11.9-26.6,23.5c0,0,3.3-23.5,3-30.3c0,0-15.3,20.3-32.9,21.1c10.4-6.9,16.3-18.9,15.4-31.4
		c0,0-28.9-15.7-39.4-44.7c0,0,15.4-27.5,20.1-32c0,0-5.5-23.9,3.8-34.4c0,0,25.7-11.2,40.2-6.7c0,0,12.5-16.9,34.4-21.3
		c0,0,32.2,9.8,38.6,27.5c0,0,33,10.8,37.8,13.2c0,0,8.4,23,0.4,37.2c0,0,10.8,21,8.6,30.6c0,0-17.5,23-35.7,28.6
		s-1.9,46.4-1.9,46.4s-16.5-18.7-27.1-23.4c1.7,8,2.8,16.2,3.1,24.4C183.8,184.6,165.3,153.4,141.9,156.3z"/>
	<path class="st7" d="M86.8,87.2l3.3-14.4c0-1.1-0.4-2.2-1.1-3c-1.1-1-5.6-5.6-5.6-5.6s6.3,1.2,8.4,3c0.8,0.2,1,0.9,2-0.3
		S106,53.1,106,53.1s18.6-7.3,21.1-8.8s3.2-1.9,2.8-5s-1.6-10.4-1.9-11.8c0,0,5.6,12.6,6.1,14.3s2.5,0.8,3,0.7s22.5-4.9,22.5-4.9
		c0.9-0.2,1.9-0.1,2.8,0.2c2.1,0.6,19.3,6.2,22.2,8.2c1.1,0.4,1.6,0.2,2-0.3s8.8-7.2,10.7-10.4c0,0-4.9,9.9-5.2,11.8
		c-0.7,1.8,0.6,1.5,1,1.9s13.3,9.5,13.3,9.5l6.8,18.7c0,0,13.8-2.1,18.3,0.7c-5.1-0.5-10.3,0.3-15,2.5c0,0,2.7,8.4,1.8,11.9
		c1.1,22.9-3.2,36.6-7.4,45.3c-8.6,14.8-29.3,26.2-41.5,30c-18.5,4.6-27.1,3.2-44.6-3.7c-5.2-5.4-25.7-10.9-35.8-44.4L86.8,87.2z"/>
	<path class="st7" d="M84.8,119.3c1.2,0.4,2.5,0.4,3.7,0.1c1-0.5,1.6-1.9,2.2-2.8c2.6-4.4,2.2-10,1.6-15.1l-0.5-4.7
		c-0.2-2.1-0.5-4.2-1.2-6.2c-0.7-2.1-2-3.8-3.8-5c-1.8-1.1-3.1-1.1-5.2-1.1c-1.9,0-4.7,0.4-6.2,1.5c-1.5,1.1-2.7,2.7-3.3,4.5
		c-0.9,2.7-1.3,5.4-1.4,8.2c0.1,2.7,0.7,5.3,1.8,7.8c1.1,3.2,2.9,6.1,5.2,8.5C79.9,117.7,81.9,118.4,84.8,119.3z"/>
	<path class="st8" d="M81.2,89.5c0.9,0,1.7,0.1,2.5,0.4c1.2,0.6,2.3,1.2,3.3,2.1c0.1-0.9-0.5-1.7-1.3-2.9c-0.4-0.6-0.9-1.1-1.5-1.5
		c-0.9-0.5-1.9-0.8-3-0.8c-3.3,0-6.2,2-7.5,5c-1.4,3-0.5,6.5,0.3,9.7c1.9,7.6,5.4,11.9,9,14.2c0.2,0.1,3.4,2.6,4.9,1.5
		c0.2-0.2,0.4-0.3,0.5-0.5c0.6-0.8,0.9-1.9,0.7-2.9c-0.2-1.1-1.1-2-2.3-2.1c0.5,1,0.1,2.2-0.8,2.8c-0.3,0.1-0.7,0.2-1,0.1
		c-0.7-0.3-1.4-0.7-2-1.2c-1.4-0.9-2.6-2.1-3.3-3.6c-0.7-1.1-1.3-2.3-1.8-3.6c-1.2-2.8-2.1-5.8-2.6-8.8c-0.3-3.1,1.2-6.8,4.2-7.8
		C80.1,89.5,80.7,89.5,81.2,89.5z"/>
	<path class="st7" d="M218.2,125c-1.2,0.2-3.1,0.8-3.7,0.4c-0.9-0.6-1.4-2.1-1.8-3.1c-2-4.7-0.8-10.2,0.4-15.2l1.1-4.6
		c0.4-2.1,1.1-4.1,2-6c1-1.9,1.5-3.6,3.4-4.3c2.3-0.9,4.7-1.3,7.2-1.2c1.9,0.3,4.5,0.7,5.9,2s1.6,4.2,2,6.1c0.6,2.7,0.1,5.4-0.2,8.1
		c-0.3,2.6-1.8,5.3-3,7.6c-1.6,3.1-4.2,4.6-7,6.7S221.2,124.6,218.2,125z"/>
	<path class="st8" d="M225.5,95.3c-0.8-0.1-1.7-0.1-2.6,0.1c-1.2,0.4-2.4,0.9-3.5,1.6c0-0.9,0.8-1.6,1.7-2.7c0.5-0.5,1-0.9,1.7-1.2
		c1-0.4,2-0.5,3.1-0.4c3.2,0.4,5.9,2.8,6.7,5.9c1,3.1-0.5,8.2-1.8,11.2c-2.9,7.2-7.1,10.6-11,12.4c-0.2,0.1-3.7,2.1-5.1,0.9
		c-0.2-0.2-0.3-0.4-0.4-0.6c-0.5-0.9-0.6-2-0.3-3c0.3-1.1,1.4-1.8,2.6-1.8c-0.6,0.9-0.4,2.2,0.4,2.9c0.3,0.2,0.6,0.3,0.9,0.3
		c2.6-0.8,4.9-2.4,6.6-4.6c0.8-1,1.6-2.1,2.2-3.3c1.6-2.6,2.9-5.4,3.8-8.4c0.8-3-0.7-7.5-3.5-8.9C226.6,95.5,226.1,95.4,225.5,95.3z
		"/>
	<path class="st9" d="M133,121.6c-6.4,1.4-13.2,0.6-19.2-2.2c-6.2-2.9-9.8-9.5-8.8-16.3c0.9-7,7.8-13.1,15-13.5
		c7.1-0.5,14.1,1.7,19.5,6.2c4.3,3.3,6.4,8.8,5.2,14.1C143.6,115.8,140.1,119.5,133,121.6z"/>
	<path class="st9" d="M186.3,127c-6.9,1.3-14,0.3-20.1-3c-5.5-2.9-6.9-8-6.7-13.7c0.2-5.4,2.9-9.6,7.8-11.7
		c7.3-3.4,15.7-3.3,22.9,0.2c5.4,2.5,8.7,8.2,8.4,14.1C197.8,119.9,194.1,124.6,186.3,127z"/>
	<path class="st10" d="M127.4,117.8c-5.8,1.8-12-1.4-13.8-7.2c-1.8-5.8,1.4-12,7.2-13.8s12,1.4,13.8,7.2c0,0,0,0.1,0,0.1
		C136.5,109.9,133.2,116.1,127.4,117.8C127.5,117.8,127.4,117.8,127.4,117.8z M116.8,106.8c0,0.3,0,0.7,0,1c0,3.4,2.4,6.4,5.7,7.3
		c3.4,0.9,6.9-0.8,8.3-4c1.4-3.2,0.4-7-2.3-9.1c-1.8-1.5-5.5-1.7-7.2-0.5c-2.2-1.2-3.8-1.1-5,0.3S115.3,104.9,116.8,106.8
		L116.8,106.8z"/>
	<path class="st11" d="M121.3,101.6c1.7-1.3,5.3-1,7.2,0.5c2.8,2.2,3.7,5.9,2.3,9.1c-1.4,3.2-4.9,4.9-8.3,4
		c-3.3-0.8-5.7-3.8-5.7-7.3c0-0.3,0-0.7,0-1c1.7,0.7,3.4,1,4.7-0.6S122.5,103.1,121.3,101.6z"/>
	<path class="st9" d="M121.3,101.6c1.2,1.5,1.4,3.1,0.2,4.7s-3,1.3-4.7,0.6c-1.5-2-1.6-3.6-0.4-5S119.2,100.4,121.3,101.6z"/>
	<path class="st10" d="M177,123.5c-6-0.6-10.5-6-9.9-12c0.6-6,6-10.5,12-9.9c6,0.6,10.5,6,9.9,12c0,0,0,0.1,0,0.1
		C188.4,119.7,183,124.1,177,123.5z M171.2,105.9c-1.2,1.5-1,3,0.6,4.9c-0.9,1.9,0,5.4,1.9,7c2.7,2.3,6.5,2.5,9.4,0.5
		c2.8-2,3.8-5.8,2.3-8.9c-1.5-3.1-4.9-4.8-8.2-4.2l-1,0.2C173.9,104.3,172.3,104.5,171.2,105.9L171.2,105.9z"/>
	<path class="st11" d="M171.8,110.9c-0.9,1.9,0,5.4,1.9,7c2.7,2.3,6.5,2.5,9.4,0.5c2.8-2,3.8-5.8,2.3-8.9c-1.5-3.1-4.9-4.8-8.2-4.2
		l-1,0.2c1.1,1.5,1.6,3.1,0.3,4.7S173.5,111.7,171.8,110.9z"/>
	<path class="st9" d="M171.8,110.9c1.7,0.8,3.4,0.8,4.6-0.8s0.7-3.2-0.3-4.7c-2.3-1.1-3.8-0.9-5,0.6S170.2,109,171.8,110.9z"/>
	<path class="st12" d="M134,142.5c0,0-1.1-1.3,0.6-0.4c6.8,3.3,14.4,4.4,21.9,3c1.2-0.2,2.3-0.5,3.4-0.9c0.3-0.1,0.4,0.3-0.1,0.5
		s-5.2,2-6.5,3.6c-1.1,1.1-2.5,1.6-4,1.6c-2.7,0.1-5.3-0.3-7.8-1.2C138.8,147,139,145,134,142.5z"/>
	<path class="st13" d="M133.7,141.3c0,0,0.3,1.8,5.8,3.7c4.8,1.6,9.8,2,14.8,1.4c2.1-0.4,4.1-1.2,5.8-2.3L133.7,141.3z"/>
	<path class="st14" d="M140.3,147.6c0,0,5.1,1.1,6.2,1.2s5.7,0.1,7.1,0.9S142.3,152.5,140.3,147.6z"/>
	<path class="st15" d="M149.3,141.7c-1.9-0.3-5.7-0.7-7.6-0.9c-1.4-0.1-2.8-0.1-4.2,0c-1,0.1-2,0.1-3.1,0c-0.4,0-0.9-0.1-1.3-0.2
		l-2.5-0.7c-0.1,0-0.2,0-0.2,0.1c0,0.1,0,0.2,0.1,0.2l0,0c2.7,2,4.7,4.8,5.6,8c0.2,0.7,0.4,1.3,0.8,1.9c0.2,0.3,0.6,0.6,0.9,0.9
		c1.6,1.1,3.5,1.8,5.4,2c1.8,0.3,3.5,0.5,5.3,0.5c2.3-0.1,4.6-0.7,6.7-1.6c0.6-0.3,1.3-1.4,1.8-1.9c0.7-0.9,1.4-1.8,2.1-2.7
		c1.9-2.2,4.4-2.9,6.1-4C160.3,143.6,155.4,142.5,149.3,141.7z M159.7,144.6c-0.5,0.2-5.2,2-6.5,3.6c-1.1,1.1-2.5,1.6-4,1.6
		c-2.7,0.1-5.3-0.3-7.8-1.2c-2.6-1.6-2.4-3.6-7.4-6.2c0,0-1.1-1.3,0.6-0.4c6.8,3.3,14.4,4.4,21.9,3c1.2-0.2,2.3-0.5,3.4-0.9
		C160.1,144.1,160.2,144.4,159.7,144.6L159.7,144.6z"/>
	<path class="st10" d="M153.5,132.1c-5.9,2.3-12-1.5-14.7-5.8c-1.1-1.8-0.4-3,1.6-3c0.7,0,1.3,0,2,0.2c4.9,0.9,9.9,1.5,14.9,1.6
		c1,0,2.1,0,2.6,1.1s-0.4,2-1.1,2.8C157.4,130.5,155.5,131.6,153.5,132.1z"/>
	<path class="st0" d="M119.1,76c5.3-1.2,10.9-1.6,16.4,1c0.5,0.2,0.9,0.5,1.4,0.8c0.6,0.3,1,1,0.9,1.7c-0.2,0.9-1,0.7-1.7,0.6
		c-2.1-0.2-4.2-0.4-6.4-0.6c-7.5-0.8-13.8,1.9-19.7,6.2c-0.6,0.5-1.3,0.9-2,1.2c-0.5,0.2-1.1,0.7-1.6,0.1s-0.2-1.2,0-1.7
		c0.8-1.7,2-3.2,3.5-4.3C112.6,78.8,115.8,77.1,119.1,76z"/>
	<path class="st0" d="M199.9,94.4c0.4,1.4,1,2.9,0,3.5s-1.9-0.9-2.6-1.7c-1.7-2-3.3-4-5.2-5.8c-4.1-3.9-9.2-5.8-14.7-6.6
		c-1.4-0.2-2.8-0.4-4.1-0.7c-0.6-0.1-1.3-0.3-1.3-1s0.6-1.1,1.2-1.3c1.7-0.7,3.6-1,5.5-0.8c9.1,0.8,16.1,5,20.7,13.1
		C199.5,93.5,199.7,93.9,199.9,94.4z"/>
</g>
</svg>
