<svg xmlns="http://www.w3.org/2000/svg" xmlns:xlink="http://www.w3.org/1999/xlink" width="1024" height="600" viewBox="0 0 1024 600">
  <defs>
    <style>
      .cls-1, .cls-17 {
        fill: none;
      }

      .cls-2 {
        fill: #93278f;
      }

      .cls-3 {
        clip-path: url(#clip-path);
      }

      .cls-4 {
        fill: #fc9a8d;
      }

      .cls-5 {
        fill: #d4555e;
      }

      .cls-6 {
        fill: #510706;
      }

      .cls-7 {
        clip-path: url(#clip-path-2);
      }

      .cls-8 {
        clip-path: url(#clip-path-3);
      }

      .cls-9 {
        clip-path: url(#clip-path-4);
      }

      .cls-10 {
        clip-path: url(#clip-path-5);
      }

      .cls-11 {
        clip-path: url(#clip-path-6);
      }

      .cls-12 {
        clip-path: url(#clip-path-7);
      }

      .cls-13, .cls-16 {
        fill: #2f009a;
      }

      .cls-14 {
        fill: #fff;
      }

      .cls-15 {
        fill: #231f20;
      }

      .cls-16, .cls-17 {
        stroke: #a81307;
        stroke-linecap: round;
        stroke-linejoin: round;
      }

      .cls-16 {
        stroke-width: 0.28px;
      }

      .cls-17 {
        stroke-width: 0.57px;
      }

      .cls-18 {
        clip-path: url(#clip-path-8);
      }

      .cls-19 {
        fill: #fa4316;
      }
    </style>
    <clipPath id="clip-path">
      <path id="SVGID" class="cls-1" d="M899.37,537.59s.42-7.21-4.87-6.36a28.73,28.73,0,0,1-21.83-1.48c-5.72-2.12-9.33-2.54-9.75,1.7-.21,3.18,4.87,6.57,7.21,4.66,1.11-.56-1.83-2.25-.45-2.66a1.51,1.51,0,0,1,1.58.53c1.92,2.35,4.2,9.47,16.68,7C901.91,538.23,899.37,537.59,899.37,537.59Z"/>
    </clipPath>
    <clipPath id="clip-path-2">
      <path id="SVGID-2" data-name="SVGID" class="cls-1" d="M896.07,539.44a4.84,4.84,0,0,0-3.15-3.66,20.73,20.73,0,0,0-13.29-.28c-8.4,2.69-17.43,9-25.82,3.33-3.64-1.9-7.29,1.11-6.81,2.69s5.54,1,8.24,4.12,14.89,5.86,23.29,2.69C885.86,545.56,897.09,545.21,896.07,539.44Z"/>
    </clipPath>
    <clipPath id="clip-path-3">
      <path id="SVGID-3" data-name="SVGID" class="cls-1" d="M904.9,539.39s-5.88-6.25-13.06-3.31-6.62,2.21-12.87,4.23S866.1,558,856.73,555a1.81,1.81,0,0,1,.18-3.13c1.29-.55-.37-2.57-3.31-1.29s-8.46,7.17-.18,11.77,22.8-6.07,27.22-10.85C883.57,548.77,908.95,548.22,904.9,539.39Z"/>
    </clipPath>
    <clipPath id="clip-path-4">
      <path id="SVGID-4" data-name="SVGID" class="cls-1" d="M921.77,537s2.54-6.76,7-3.83a28.73,28.73,0,0,0,20.55,7.5c6.09.39,9.56,1.46,8.22,5.51-1.1,3-7.12,4-8.48,1.34-.79-1,2.59-1.31,1.5-2.25a1.51,1.51,0,0,0-1.66-.16c-2.71,1.36-7.68,6.95-18.09-.36C919.19,536.54,921.77,537,921.77,537Z"/>
    </clipPath>
    <clipPath id="clip-path-5">
      <path id="SVGID-5" data-name="SVGID" class="cls-1" d="M919.14,538.15a4.84,4.84,0,0,1,4.56-1.59,20.73,20.73,0,0,1,11.66,6.4c5.93,6.53,10.58,16.53,20.71,15.79,4.11.17,5.76,4.6,4.55,5.74s-5.28-1.95-9.19-.55-15.83-2.36-21.52-9.3C924.92,548.55,915.37,542.64,919.14,538.15Z"/>
    </clipPath>
    <clipPath id="clip-path-6">
      <path id="SVGID-6" data-name="SVGID" class="cls-1" d="M927.77,534.34s1.94-8.36,9.62-9.43,6.83-1.42,13.25-2.82,20,8.78,26.63,1.51a1.81,1.81,0,0,0-1.73-2.61c-1.39.17-1-2.41,2.21-2.78s10.92,1.94,6.08,10.08-22.76,6.23-29,4.32C950.92,531.71,928.71,544,927.77,534.34Z"/>
    </clipPath>
    <clipPath id="clip-path-7">
      <path id="SVGID-7" data-name="SVGID" class="cls-1" d="M905.16,537.63s-7.86-1.18-11.2,8.25-12.77,17.09-20.82,22.2-12.77,12-6.09,19.05c3.14,2.95,8.25,2.16,9.82-1.37.59-1-1.18-1.37-2.16-.59-1,1-3.54-4.52,2.95-9.82s30.44-9,32.8-21.41c0,0,.39,16.89,22,26.32,3.52,1.68,7,2.78,8.12,6.25A4,4,0,0,1,940,590c-.94,1.35-1.89,2.93.89,3.63,3.93,1,11-3.93,6.48-12.18S927,571,927,555.5a25.3,25.3,0,0,0-.79-7.86s-1.26-5.35-8.45-8.25A30,30,0,0,0,905.16,537.63Z"/>
    </clipPath>
    <clipPath id="clip-path-8">
      <path id="SVGID-8" data-name="SVGID" class="cls-1" d="M901.06,524.93a23.52,23.52,0,0,0,23.13,0S912.62,545,901.06,524.93Z"/>
    </clipPath>
  </defs>
  <title>22_all_static_items</title>
  <g id="big_boat">
    <g>
      <g>
        <g>
          <g>
            <path class="cls-2" d="M899.37,537.59s.42-7.21-4.87-6.36a28.73,28.73,0,0,1-21.83-1.48c-5.72-2.12-9.33-2.54-9.75,1.7-.21,3.18,4.87,6.57,7.21,4.66,1.11-.56-1.83-2.25-.45-2.66a1.51,1.51,0,0,1,1.58.53c1.92,2.35,4.2,9.47,16.68,7C901.91,538.23,899.37,537.59,899.37,537.59Z"/>
            <g class="cls-3">
              <path class="cls-4" d="M871.23,537.13s-3.72-2.44-3.08-4.23,3.31-.76,5.13,1.15c2.19,2.31,14.75,12.44,30.39,5.77C908.8,545.34,879.69,552.52,871.23,537.13Z"/>
            </g>
          </g>
          <g>
            <circle class="cls-5" cx="874.37" cy="537.53" r="1.27" transform="translate(-122.29 292.33) rotate(-17.76)"/>
            <circle class="cls-6" cx="873.94" cy="537.63" r="0.78" transform="translate(-122.34 292.2) rotate(-17.76)"/>
          </g>
          <g>
            <circle class="cls-5" cx="870.44" cy="534.7" r="1.27" transform="translate(95.71 1200.55) rotate(-72.24)"/>
            <circle class="cls-6" cx="870.87" cy="534.79" r="0.78" transform="translate(95.92 1201.02) rotate(-72.24)"/>
          </g>
        </g>
        <g>
          <g>
            <path class="cls-2" d="M896.07,539.44a4.84,4.84,0,0,0-3.15-3.66,20.73,20.73,0,0,0-13.29-.28c-8.4,2.69-17.43,9-25.82,3.33-3.64-1.9-7.29,1.11-6.81,2.69s5.54,1,8.24,4.12,14.89,5.86,23.29,2.69C885.86,545.56,897.09,545.21,896.07,539.44Z"/>
            <g class="cls-7">
              <path class="cls-4" d="M844.14,542.31s4.59-1.9,10.46,1.11,14.1,3,23.76-.79,22.18-.63,22.18-.63l-32.32,14.73Z"/>
            </g>
          </g>
          <g>
            <circle class="cls-5" cx="849.25" cy="543.29" r="1.8" transform="translate(-125.25 284.94) rotate(-17.76)"/>
            <circle class="cls-6" cx="848.64" cy="543.42" r="1.11" transform="translate(-125.32 284.76) rotate(-17.76)"/>
          </g>
          <g>
            <circle class="cls-5" cx="856.67" cy="546.86" r="1.8" transform="translate(-125.98 287.38) rotate(-17.76)"/>
            <circle class="cls-6" cx="856.06" cy="547" r="1.11" transform="translate(-126.05 287.2) rotate(-17.76)"/>
          </g>
          <g>
            <circle class="cls-5" cx="866.94" cy="549.2" r="1.8" transform="translate(-126.21 290.62) rotate(-17.76)"/>
            <circle class="cls-6" cx="866.34" cy="549.33" r="1.11" transform="translate(-126.28 290.44) rotate(-17.76)"/>
          </g>
        </g>
        <g>
          <path class="cls-2" d="M904.9,539.39s-5.88-6.25-13.06-3.31-6.62,2.21-12.87,4.23S866.1,558,856.73,555a1.81,1.81,0,0,1,.18-3.13c1.29-.55-.37-2.57-3.31-1.29s-8.46,7.17-.18,11.77,22.8-6.07,27.22-10.85C883.57,548.77,908.95,548.22,904.9,539.39Z"/>
          <g class="cls-8">
            <path class="cls-4" d="M846.8,558.15s4.78,7,16.55,1.29,21.51-21.7,44.5-14.53c0,0-21.51,8.83-22.8,8.83S857.64,576.54,846.8,558.15Z"/>
          </g>
          <g>
            <g>
              <circle class="cls-5" cx="855.75" cy="563.24" r="1.8" transform="translate(58.31 1206.4) rotate(-72.24)"/>
              <circle class="cls-6" cx="856.35" cy="563.38" r="1.11" transform="translate(58.61 1207.07) rotate(-72.24)"/>
            </g>
            <g>
              <circle class="cls-5" cx="865.88" cy="561.63" r="1.8" transform="translate(66.89 1214.93) rotate(-72.24)"/>
              <circle class="cls-6" cx="866.48" cy="561.77" r="1.11" transform="translate(67.18 1215.6) rotate(-72.24)"/>
            </g>
            <g>
              <circle class="cls-5" cx="875.93" cy="555.84" r="1.8" transform="translate(79.39 1220.47) rotate(-72.24)"/>
              <circle class="cls-6" cx="876.53" cy="555.97" r="1.11" transform="matrix(0.31, -0.95, 0.95, 0.31, 79.68, 1221.14)"/>
            </g>
            <g>
              <circle class="cls-5" cx="883.9" cy="550.39" r="1.8" transform="translate(90.12 1224.27) rotate(-72.24)"/>
              <circle class="cls-6" cx="884.5" cy="550.52" r="1.11" transform="translate(90.41 1224.94) rotate(-72.24)"/>
            </g>
            <g>
              <circle class="cls-5" cx="893.16" cy="548.21" r="1.8" transform="translate(98.63 1231.57) rotate(-72.24)"/>
              <circle class="cls-6" cx="893.76" cy="548.34" r="1.11" transform="translate(98.92 1232.24) rotate(-72.24)"/>
            </g>
          </g>
        </g>
        <g>
          <g>
            <path class="cls-2" d="M921.77,537s2.54-6.76,7-3.83a28.73,28.73,0,0,0,20.55,7.5c6.09.39,9.56,1.46,8.22,5.51-1.1,3-7.12,4-8.48,1.34-.79-1,2.59-1.31,1.5-2.25a1.51,1.51,0,0,0-1.66-.16c-2.71,1.36-7.68,6.95-18.09-.36C919.19,536.54,921.77,537,921.77,537Z"/>
            <g class="cls-9">
              <path class="cls-4" d="M947.68,548s4.39-.72,4.53-2.62-2.71-2-5.16-1c-2.94,1.22-18.53,5.38-30.12-7.06C910,540.25,933.7,558.63,947.68,548Z"/>
            </g>
          </g>
          <g>
            <circle class="cls-5" cx="944.64" cy="547.09" r="1.27" transform="translate(-92.26 888.38) rotate(-48.3)"/>
            <circle class="cls-6" cx="944.99" cy="547.35" r="0.78" transform="translate(-92.34 888.73) rotate(-48.3)"/>
          </g>
          <g>
            <circle class="cls-5" cx="949.38" cy="546.09" r="1.27" transform="translate(304.2 1431.13) rotate(-83.82)"/>
            <circle class="cls-6" cx="948.96" cy="546" r="0.78" transform="translate(303.91 1430.62) rotate(-83.82)"/>
          </g>
        </g>
        <g>
          <g>
            <path class="cls-2" d="M919.14,538.15a4.84,4.84,0,0,1,4.56-1.59,20.73,20.73,0,0,1,11.66,6.4c5.93,6.53,10.58,16.53,20.71,15.79,4.11.17,5.76,4.6,4.55,5.74s-5.28-1.95-9.19-.55-15.83-2.36-21.52-9.3C924.92,548.55,915.37,542.64,919.14,538.15Z"/>
            <g class="cls-10">
              <path class="cls-4" d="M962.68,566.59s-3-3.94-9.61-4.26-13.72-4.44-20.19-12.56S914,538.13,914,538.13L934.62,567Z"/>
            </g>
          </g>
          <g>
            <circle class="cls-5" cx="957.77" cy="564.88" r="1.8" transform="translate(-130.95 790.91) rotate(-42.26)"/>
            <circle class="cls-6" cx="958.23" cy="565.3" r="1.11" transform="translate(-131.12 791.33) rotate(-42.26)"/>
          </g>
          <g>
            <circle class="cls-5" cx="949.56" cy="564.27" r="1.8" transform="translate(-132.68 785.23) rotate(-42.26)"/>
            <circle class="cls-6" cx="950.01" cy="564.68" r="1.11" transform="translate(-132.84 785.64) rotate(-42.26)"/>
          </g>
          <g>
            <circle class="cls-5" cx="939.49" cy="561.16" r="1.8" transform="translate(-133.2 777.65) rotate(-42.26)"/>
            <circle class="cls-6" cx="939.95" cy="561.57" r="1.11" transform="translate(-133.36 778.06) rotate(-42.26)"/>
          </g>
        </g>
        <g>
          <path class="cls-2" d="M927.77,534.34s1.94-8.36,9.62-9.43,6.83-1.42,13.25-2.82,20,8.78,26.63,1.51a1.81,1.81,0,0,0-1.73-2.61c-1.39.17-1-2.41,2.21-2.78s10.92,1.94,6.08,10.08-22.76,6.23-29,4.32C950.92,531.71,928.71,544,927.77,534.34Z"/>
          <g class="cls-11">
            <path class="cls-4" d="M987.42,521.31s-.61,8.44-13.65,9.44-29.51-7.92-45.77,9.84c0,0,23-3.2,24.15-3.85S987.3,542.66,987.42,521.31Z"/>
          </g>
          <g>
            <g>
              <circle class="cls-5" cx="982.25" cy="530.21" r="1.8" transform="translate(-69.18 904.96) rotate(-47.98)"/>
              <circle class="cls-6" cx="981.79" cy="530.63" r="1.11" transform="translate(-69.64 904.76) rotate(-47.98)"/>
            </g>
            <g>
              <circle class="cls-5" cx="972.68" cy="533.92" r="1.8" transform="translate(-75.1 899.08) rotate(-47.98)"/>
              <circle class="cls-6" cx="972.23" cy="534.34" r="1.11" transform="translate(-75.56 898.88) rotate(-47.98)"/>
            </g>
            <g>
              <circle class="cls-5" cx="961.09" cy="533.97" r="1.8" transform="translate(-78.97 890.48) rotate(-47.98)"/>
              <circle class="cls-6" cx="960.63" cy="534.39" r="1.11" transform="translate(-79.43 890.28) rotate(-47.98)"/>
            </g>
            <g>
              <circle class="cls-5" cx="951.45" cy="533.27" r="1.8" transform="translate(-81.63 883.09) rotate(-47.98)"/>
              <circle class="cls-6" cx="951" cy="533.69" r="1.11" transform="translate(-82.09 882.89) rotate(-47.98)"/>
            </g>
            <g>
              <circle class="cls-5" cx="942.36" cy="536.05" r="1.8" transform="translate(-86.7 877.25) rotate(-47.98)"/>
              <circle class="cls-6" cx="941.9" cy="536.47" r="1.11" transform="translate(-87.16 877.05) rotate(-47.98)"/>
            </g>
          </g>
        </g>
        <g>
          <path class="cls-2" d="M905.16,537.63s-7.86-1.18-11.2,8.25-12.77,17.09-20.82,22.2-12.77,12-6.09,19.05c3.14,2.95,8.25,2.16,9.82-1.37.59-1-1.18-1.37-2.16-.59-1,1-3.54-4.52,2.95-9.82s30.44-9,32.8-21.41c0,0,.39,16.89,22,26.32,3.52,1.68,7,2.78,8.12,6.25A4,4,0,0,1,940,590c-.94,1.35-1.89,2.93.89,3.63,3.93,1,11-3.93,6.48-12.18S927,571,927,555.5a25.3,25.3,0,0,0-.79-7.86s-1.26-5.35-8.45-8.25A30,30,0,0,0,905.16,537.63Z"/>
          <g class="cls-12">
            <path class="cls-4" d="M914.55,546.7a1.52,1.52,0,0,0-2.62-1.12,10,10,0,0,0-2,3c-1.07,2.52-6.76,12.21-22.27,17.13s-20,18.86-13,19.45c6.87-5.3,64,5.89,64,5.89s4.32-.79,3.14-4.91C939.23,575.5,913.22,577.18,914.55,546.7Z"/>
          </g>
          <g>
            <circle class="cls-5" cx="911.13" cy="555.6" r="1.8"/>
            <circle class="cls-6" cx="910.51" cy="555.54" r="1.11"/>
          </g>
          <g>
            <circle class="cls-5" cx="913.91" cy="564.66" r="1.8"/>
            <circle class="cls-6" cx="913.29" cy="564.6" r="1.11"/>
          </g>
          <g>
            <circle class="cls-5" cx="920.91" cy="573.7" r="1.8"/>
            <circle class="cls-6" cx="920.3" cy="573.64" r="1.11"/>
          </g>
          <g>
            <circle class="cls-5" cx="930.46" cy="579.56" r="1.8"/>
            <circle class="cls-6" cx="929.85" cy="579.5" r="1.11"/>
          </g>
          <g>
            <circle class="cls-5" cx="940.02" cy="586.55" r="1.8"/>
            <circle class="cls-6" cx="939.41" cy="586.49" r="1.11"/>
          </g>
          <g>
            <circle class="cls-5" cx="905.77" cy="561.46" r="1.8" transform="translate(94.77 1252.8) rotate(-72.24)"/>
            <circle class="cls-6" cx="906.37" cy="561.6" r="1.11" transform="matrix(0.31, -0.95, 0.95, 0.31, 95.06, 1253.47)"/>
          </g>
          <g>
            <circle class="cls-5" cx="897.92" cy="566.45" r="1.8" transform="translate(84.56 1248.79) rotate(-72.24)"/>
            <circle class="cls-6" cx="898.52" cy="566.59" r="1.11" transform="translate(84.86 1249.45) rotate(-72.24)"/>
          </g>
          <g>
            <circle class="cls-5" cx="887.12" cy="570.98" r="1.8" transform="translate(72.75 1241.65) rotate(-72.24)"/>
            <circle class="cls-6" cx="887.72" cy="571.12" r="1.11" transform="translate(73.04 1242.32) rotate(-72.24)"/>
          </g>
          <g>
            <circle class="cls-5" cx="876.58" cy="576.93" r="1.8" transform="translate(59.76 1235.75) rotate(-72.24)"/>
            <circle class="cls-6" cx="877.18" cy="577.06" r="1.11" transform="translate(60.05 1236.42) rotate(-72.24)"/>
          </g>
        </g>
      </g>
      <g>
        <path class="cls-2" d="M916.42,470.28a46.75,46.75,0,0,0-8.54,0c-29.17,2.2-31.13,32.95-26.84,41.66a78.32,78.32,0,0,0,5.12,8.84,7.44,7.44,0,0,0,3.67,12.16c.58,5.37,11.93,7,19.89,7.32.71,0,1.54,0,2.44,0s1.73,0,2.44,0c7.88-.28,19.08-1.92,19.87-7.16a7.44,7.44,0,0,0,3.81-12.93c1.48-2.29,3.23-4.85,5-8.22C947.75,503.36,945.53,473.35,916.42,470.28Z"/>
        <g>
          <g>
            <circle class="cls-13" cx="902.35" cy="510.85" r="8.78"/>
            <circle class="cls-14" cx="902.35" cy="511.54" r="7.73"/>
            <circle class="cls-15" cx="902.35" cy="511.54" r="6.1"/>
            <circle class="cls-14" cx="904.94" cy="508.77" r="2.3"/>
          </g>
          <g>
            <circle class="cls-13" cx="923.48" cy="510.85" r="8.78"/>
            <circle class="cls-14" cx="923.48" cy="511.54" r="7.73"/>
            <circle class="cls-15" cx="923.48" cy="511.54" r="6.1"/>
            <circle class="cls-14" cx="926.07" cy="508.77" r="2.3"/>
          </g>
          <g>
            <path class="cls-16" d="M901.06,524.93a23.52,23.52,0,0,0,23.13,0S912.62,545,901.06,524.93Z"/>
            <path class="cls-17" d="M898.85,525.11a2.89,2.89,0,0,0,3.65-1.7"/>
            <path class="cls-17" d="M926.66,525.11a2.89,2.89,0,0,1-3.65-1.7"/>
            <g class="cls-18">
              <path class="cls-19" d="M908.23,534.07s-.19-2.8,1.79-2.8,2.27,1.12,2.27,1.12.29-1.28,2.45-1.28,1.84,4.11,1.84,4.11Z"/>
            </g>
          </g>
          <path class="cls-16" d="M897.06,496.48h9.44S901.78,492.71,897.06,496.48Z"/>
          <path class="cls-16" d="M919.09,496.48h9.44S923.81,492.71,919.09,496.48Z"/>
        </g>
      </g>
    </g>
  </g>
</svg>
