<svg xmlns="http://www.w3.org/2000/svg" width="1024" height="600" viewBox="0 0 1024 600">
  <defs>
    <style>
      .cls-1 {
        fill: #0c0a0a;
      }

      .cls-2 {
        fill: #995b29;
      }

      .cls-3 {
        fill: #784c2b;
      }

      .cls-4 {
        fill: #6f421d;
      }

      .cls-5 {
        fill: #060505;
      }

      .cls-6 {
        fill: #f8f6f3;
      }

      .cls-7 {
        fill: #532f26;
      }

      .cls-8 {
        fill: #080707;
      }

      .cls-9 {
        fill: #f7f6f5;
      }

      .cls-10 {
        fill: #a36737;
      }

      .cls-11 {
        fill: #a26535;
      }

      .cls-12 {
        fill: #a46838;
      }

      .cls-13 {
        fill: #478cca;
      }

      .cls-14 {
        fill: #488dcb;
      }

      .cls-15 {
        fill: #d02228;
      }

      .cls-16 {
        fill: #2eae4a;
      }

      .cls-17 {
        fill: #f9e200;
      }
    </style>
  </defs>
  <title>22_all_static_items</title>
  <g id="Akili">
    <g>
      <g>
        <path class="cls-1" d="M364.52,579.53a12.11,12.11,0,0,0,6.54-3.11,14.43,14.43,0,0,0,3.81-5.37,2,2,0,0,1,1.19-1.35c5.83-2.16,10-6.37,13.66-11.17a38,38,0,0,0,4.63-7.32c1.11-2.47,1.69-5,.28-7.57-2-3.64-6.13-6.18-11.58-4a82,82,0,0,0-15.29,8.66c-.68.47-1.61.7-1.87,1.65a15.65,15.65,0,0,0,.74,11.82c.34.68-.05,1-.63,1.21-1.34.53-2.66,1.15-4,1.58-3,.92-5.94,1.9-9.12,1.18a2.65,2.65,0,0,0,.42,1.79,34.81,34.81,0,0,0,6.83,9c.09.08.24.15.33.26"/>
        <path class="cls-2" d="M329.32,543.72c1.69,1.34,17.7,13.9,19.24,15.43,1.94,1.91,3,4.37,4.28,6.65,3.18.71,6.16-.27,9.12-1.18,1.37-.43,2.69-1.05,4-1.58.58-.23,1-.54.63-1.21a15.65,15.65,0,0,1-.74-11.82,2.84,2.84,0,0,1-3.31-.82,52.54,52.54,0,0,1-4.17-5c-3.12-3.84-11.44-10.94-15.48-13.81C340.6,532.61,329.22,542.37,329.32,543.72Z"/>
        <path class="cls-2" d="M376.08,557a14.46,14.46,0,0,0,3.75-7.5c.47-3.47-2.11-5.44-5.34-4.06-1.16.49-2.25,1.15-3.37,1.73a.85.85,0,0,0-.49.59,17.74,17.74,0,0,0,.67,11.42c.26.66.54.87,1.18.48C373.92,558.81,375.4,558,376.08,557Z"/>
      </g>
      <g>
        <path class="cls-3" d="M361.17,393.65c-1.9-.28-3.56.54-5.13,1.34-3.55,1.79-7.1,3.52-11.1,4-.71.09-.7.52-.68,1.06a8.16,8.16,0,0,0,5,7.39,35.92,35.92,0,0,1,3.56,2.16c.38.25,1,.44.82,1.1.55-.14.48,1.12,1.25.52s1.92-1.15,2-2.38c.07-.82-.64-1.09-1.26-1.4a33,33,0,0,0-6.38-2.24c-2.33-.6-3.48-1.88-3.75-4.06-.11-.92.07-1.35,1.12-1.47a81.06,81.06,0,0,0,12.4-2.08C362.26,396.7,362.27,396.72,361.17,393.65Z"/>
        <path class="cls-4" d="M294.93,395c2.19.72,3.14.44,4.16-1.25a1.71,1.71,0,0,0-.16-1.9,2.35,2.35,0,0,0-1.72-1.19c-.57-.07-.54.5-.68.85-.49,1.23-1.17,1.65-2.41,1.18a10.37,10.37,0,0,1-4.94-3.61,28.45,28.45,0,0,1-4.44-9.06c-1.74-6.41,3.34-9.14,7.91-8.43a11.53,11.53,0,0,1,4,1.59c.26.15.6.39.87.16s0-.59-.11-.85a5.39,5.39,0,0,0-3.14-2.84c-3.41-1.09-6.82-.92-9.81,1.24a6.36,6.36,0,0,0-2.67,6.78c1,4.7,2.62,9.09,6,12.68A16.08,16.08,0,0,0,294.93,395Z"/>
        <path class="cls-1" d="M350.7,344.41a8.11,8.11,0,0,0-6.23.29,17,17,0,0,0-9.8,11.71c-.14.51-.33,1.17.31,1.42s.85-.41,1.14-.78c1.08-1.33,2.13-2.69,3.2-4a13,13,0,0,1,11.23-5.19,8.3,8.3,0,0,0,1.08,0c.65-.06,1.52.18,1.74-.66s-.34-1.36-.89-1.86A4.53,4.53,0,0,0,350.7,344.41Z"/>
        <path class="cls-5" d="M282.38,435.28a8.73,8.73,0,0,1-1.48,1.42,62.12,62.12,0,0,0,2.19-9.11,32.67,32.67,0,0,0-2.37-20.12,2.61,2.61,0,0,0-1.23-1.34,169.71,169.71,0,0,1-18.87-11.4,7,7,0,0,1-3.2-5.42c-.75-7.27.39-14.32,2.3-21.28a7.06,7.06,0,0,0-.13-4.49c-2.77-7.69-3.77-15.69-4.11-23.8a1.48,1.48,0,0,1,.44-1.2,43.48,43.48,0,0,1,16.25-11.22,7.09,7.09,0,0,0,2.39-1.45,88.94,88.94,0,0,1,27.16-17.34,11,11,0,0,1,5-.85,46.68,46.68,0,0,1,10.11,1.88c9.91,3,18.89,7.9,27.4,13.72-.27.44-.75.46-1.18.59-6.11,1.79-12.27,3.46-18.31,5.49a3.82,3.82,0,0,1-2,.16c-2.88-.57-5.75-1.17-8.64-1.65a92,92,0,0,0-26.44-.72,27.34,27.34,0,0,0-6,1.24,11.09,11.09,0,0,0,2.38,0c11.52-1,23-.84,34.38,1.49a3.13,3.13,0,0,1,2.28,1c-.25.12-.4.2-.56.26-4.79,1.77-9.57,3.55-14.37,5.3a3.61,3.61,0,0,0-2,1.66,38.1,38.1,0,0,0-2.41,5,73.9,73.9,0,0,1-3.3,7.27,2.2,2.2,0,0,1-2.11,1.35c-2.3,0-4.61.17-6.9.4-6.34.62-12.54,1.83-18.15,5.08a14.27,14.27,0,0,0-5.14,4.31l-.41.47a2.94,2.94,0,0,0-.27.23s.06.09.1.14l.21-.31c.25,0,.35-.21.44-.4a32.75,32.75,0,0,1,13.5-6.31,51.61,51.61,0,0,1,16.55-1.11c.53.05,1.15-.06,1,.86-.9,4.21-.5,8.45-.24,12.68.08,1.31-.29,1.34-1.32,1a13.14,13.14,0,0,0-8.25-.43c-3.36.94-5.54,3.35-5.82,6.38a21.38,21.38,0,0,0,12.62,21.33c1.57.7,3.39,1.16,3.71,3.29a19.85,19.85,0,0,1,.34,3.09c0,3-.94,5.87-1.46,8.79a33.35,33.35,0,0,1-3.21,8.93l-4.94,8Q285.3,431.73,282.38,435.28Zm-1.19-106.75s0-.08-.06-.08-.06,0-.1,0l.06.09Zm-.7,0,0,.08.11,0Zm-.57.17v-.06l-.09,0Z"/>
        <path class="cls-2" d="M329.8,430.93a22.93,22.93,0,0,1-10.24-3.56,2.52,2.52,0,0,1-.74-.64c-.62-.9,0-2.13,0-3.22-.21-2.6-4.3-4-6.34-4.69a64.27,64.27,0,0,1-9.45-4l-6.61-3.55c.52-2.92,1.45-5.78,1.46-8.79a19.85,19.85,0,0,0-.34-3.09c-.32-2.14-2.14-2.6-3.71-3.29a21.38,21.38,0,0,1-12.62-21.33c.28-3,2.45-5.44,5.82-6.38a13.14,13.14,0,0,1,8.25.43c1,.38,1.4.36,1.32-1-.26-4.23-.65-8.47.24-12.68.2-.92-.43-.81-1-.86a51.61,51.61,0,0,0-16.55,1.11,32.74,32.74,0,0,0-13.5,6.31l-.08-.14a14.26,14.26,0,0,1,5.14-4.31c5.61-3.24,11.81-4.45,18.15-5.08,2.29-.23,4.6-.37,6.9-.4a2.2,2.2,0,0,0,2.11-1.35,73.9,73.9,0,0,0,3.3-7.27,38.1,38.1,0,0,1,2.41-5,3.61,3.61,0,0,1,2-1.66c4.8-1.75,9.58-3.53,14.37-5.3.16-.06.32-.15.56-.26a3.13,3.13,0,0,0-2.28-1c-11.38-2.34-22.85-2.48-34.38-1.49a11.09,11.09,0,0,1-2.38,0,27.34,27.34,0,0,1,6-1.24,92,92,0,0,1,26.44.72c2.89.48,5.76,1.08,8.64,1.65a3.82,3.82,0,0,0,2-.16c6-2,12.2-3.7,18.31-5.49.42-.12.91-.15,1.18-.59a13.11,13.11,0,0,0,1.2.87,27,27,0,0,1,10,10.39c4.54,7.88,5.43,16.33,4.15,25.18-1,7.16,1.18,13.09,7,17.53a10.41,10.41,0,0,1,3.15,3.49,4.83,4.83,0,0,1-1.63,6.56,11.72,11.72,0,0,1-4.18,1.87,1.56,1.56,0,0,0-1.33,1c-.44,1.18-1,2.33-1.48,3.49-1.9-.28-3.56.54-5.13,1.34-3.55,1.79-7.1,3.52-11.1,4-.71.09-.7.52-.68,1.06a8.16,8.16,0,0,0,5,7.39,35.92,35.92,0,0,1,3.56,2.16c.38.25,1,.44.82,1.1a8.29,8.29,0,0,1-2.8,2.09q-5.18,2.65-10.4,5.21a21.24,21.24,0,0,1-5.64,1.85,2,2,0,0,0-1.67,1.33c-1.27,2.92-2.78,5.82-3.25,9Q329.83,430.56,329.8,430.93Zm-30.71-37.19a1.71,1.71,0,0,0-.16-1.9,2.35,2.35,0,0,0-1.72-1.19c-.57-.07-.54.5-.68.85-.49,1.23-1.17,1.65-2.41,1.18a10.37,10.37,0,0,1-4.94-3.61,28.45,28.45,0,0,1-4.44-9.06c-1.74-6.41,3.34-9.14,7.91-8.43a11.53,11.53,0,0,1,4,1.59c.26.15.6.39.87.16s0-.59-.11-.85a5.39,5.39,0,0,0-3.14-2.84c-3.41-1.09-6.82-.92-9.81,1.24a6.36,6.36,0,0,0-2.67,6.78c1,4.7,2.62,9.09,6,12.68a16.08,16.08,0,0,0,7.2,4.65C297.12,395.71,298.07,395.43,299.09,393.74Zm45.38-49a17,17,0,0,0-9.8,11.71c-.14.51-.33,1.17.31,1.42s.85-.41,1.14-.78c1.08-1.33,2.13-2.69,3.2-4a13,13,0,0,1,11.23-5.19,8.3,8.3,0,0,0,1.08,0c.65-.06,1.52.18,1.74-.66s-.34-1.36-.89-1.86a4.53,4.53,0,0,0-1.79-.91A8.11,8.11,0,0,0,344.47,344.7Z"/>
        <g>
          <path class="cls-6" d="M355.12,367.84a10.37,10.37,0,0,0-1.16-5.51c-1.74-3-5.33-5.31-8.91-4.62A12.54,12.54,0,0,0,334.67,370c0,3.37,2.07,5.55,4.65,7.31a12.7,12.7,0,0,0,5.74,2.07,7.57,7.57,0,0,0,8.5-4.87A19,19,0,0,0,355.12,367.84Z"/>
          <g>
            <path class="cls-7" d="M345.75,376.36a7.14,7.14,0,1,1,8.91-4.67A7.1,7.1,0,0,1,345.75,376.36Zm-1.69-9.77-.34.55a4.88,4.88,0,0,0,.39,6,4.64,4.64,0,0,0,5.9.9,5,5,0,0,0,2.11-5.75,4.43,4.43,0,0,0-3.68-2.88c-.72-1.44-1.61-2-2.79-1.64S344,365,344.06,366.59Z"/>
            <path class="cls-8" d="M348.44,365.39a4.43,4.43,0,0,1,3.68,2.88A5,5,0,0,1,350,374a4.64,4.64,0,0,1-5.9-.9,4.88,4.88,0,0,1-.39-6l.34-.55c.64,1,1.43,1.77,2.73,1.39A2.26,2.26,0,0,0,348.44,365.39Z"/>
            <path class="cls-9" d="M348.44,365.39A2.26,2.26,0,0,1,346.8,368c-1.31.39-2.1-.38-2.73-1.39-.07-1.63.42-2.52,1.59-2.84S347.72,364,348.44,365.39Z"/>
          </g>
        </g>
      </g>
      <g>
        <path class="cls-1" d="M284.23,582a8.43,8.43,0,0,1-12.32,3.2,11.83,11.83,0,0,1-3.06-3.6,49.94,49.94,0,0,1-3.76-8.09c-1.84-5.06-3.06-10.23-2.08-15.66a2.85,2.85,0,0,0-.54-2.36A13.79,13.79,0,0,1,260,544.34a4.4,4.4,0,0,1,3-3.48,33.88,33.88,0,0,1,10.22-2,11.51,11.51,0,0,1,5.06.39c-2.72,3.79-3.62,8.17-4.24,12.66-.12.88,0,1.31,1,1.43a14.77,14.77,0,0,1,9.71,5.06,2.53,2.53,0,0,0,.42.32c.8,1.32.45,2.8.54,4.2a78.19,78.19,0,0,1-.21,13.63m-1-7.65a37,37,0,0,0,.3-4,1.06,1.06,0,0,0-.3-.84,17.16,17.16,0,0,0-10.07-5.38.71.71,0,0,0-1,.63c-.88,3.87,2.42,10.72,6,12.39A3.48,3.48,0,0,0,284.56,568.94Z"/>
        <path class="cls-10" d="M278.3,539.29c-2.72,3.79-3.62,8.17-4.24,12.66-.12.88,0,1.31,1,1.43a14.77,14.77,0,0,1,9.71,5.06,2.51,2.51,0,0,0,.42.32,2.85,2.85,0,0,1,2.57-2.4c4.66-.91,9.42-1.28,14-2.47a.36.36,0,0,1,.13,0c1.26-.49,2.5-1,3.77-1.47,3.42-1.16,11.53-6.93,14-9.57-2.13-1.21-14.92-7.17-19.65-10.4-5.64,3.26-15.78,7.73-20.35,7.05Z"/>
        <path class="cls-11" d="M279.52,571.7a3.48,3.48,0,0,0,5-2.76,37,37,0,0,0,.3-4,1.06,1.06,0,0,0-.3-.84,17.16,17.16,0,0,0-10.07-5.38.71.71,0,0,0-1,.63C272.64,563.18,275.95,570,279.52,571.7Z"/>
      </g>
      <g>
        <path class="cls-12" d="M378.11,423.6a4.84,4.84,0,0,1,2.25-.46,80.25,80.25,0,0,0,12.83-.4,22,22,0,0,0,2.4-.53A1.43,1.43,0,0,0,396.8,421c.09-.78-.46-1.18-1.05-1.48a12,12,0,0,0-3-.89,30,30,0,0,1-4.15-.79,5.58,5.58,0,0,1,2.36-.72,81.8,81.8,0,0,0,9.52-2,7.54,7.54,0,0,0,2.44-1.19c1.1-.88,1-1.93-.33-2.49a8,8,0,0,0-3.06-.47,60.14,60.14,0,0,0-8.64.73c.25-.7.82-.86,1.24-1.14a57.32,57.32,0,0,0,9.54-7.35c.64-.66,1.63-1.4,1-2.41s-1.73-.57-2.62-.36c-3.57.84-6.78,2.58-10.09,4.09-1,.46-2,.93-3.08,1.37-.27.12-.61.33-.83,0s.06-.58.22-.82c1.05-1.64,2.14-3.26,3.19-4.9a15.62,15.62,0,0,0,2-4.05c.17-.6.28-1.23-.28-1.68a1.65,1.65,0,0,0-1.73-.13,10.51,10.51,0,0,0-3.66,2.64c-1.91,2-3.75,4.06-5.63,6.1-1.38,1.49-1.85,1.43-2.79-.4a32.19,32.19,0,0,0-1.71-3.49,3,3,0,0,0-1.76-1.44,1.79,1.79,0,0,0-2.32,1.31,16.89,16.89,0,0,0-.6,5.77c0,1.64.08,3.29.14,4.93a2.1,2.1,0,0,1-.79,1.93q-.95.75-1.91,1.48-3.2,2.4-6.61,4.48a78.49,78.49,0,0,1-7,3.78,77.31,77.31,0,0,1-7.33,3.05q-1.89.67-3.81,1.25l-1.94.56c-.29.08-1.52.51-1.82.65s-.43.13-.48.34a1.12,1.12,0,0,0,.11.59c1.11,2.91.53,5.9-.23,8.79a.73.73,0,0,0,0,.38c.1.35.58.35.93.27C353.44,434.49,366,429.3,378.11,423.6Z"/>
        <path class="cls-13" d="M325.54,427.53a8.15,8.15,0,0,1,1.63-.62c1.84-.47,3.75-.54,5.62-.92a20.15,20.15,0,0,0,3.83-1.21,3,3,0,0,1,1.33-.34,1.34,1.34,0,0,1,.84.41,10.42,10.42,0,0,1,3.16,6.51c.22,1.42.24,2.79.37,4.22a2.15,2.15,0,0,1-.38,1.82,6.48,6.48,0,0,1-1.49.9,27.46,27.46,0,0,0-5.51,3.53,10.49,10.49,0,0,1-6.22,2.45,10.85,10.85,0,0,1-4.39-.5,7,7,0,0,1-3.29-2.7C318.2,436.38,320.8,429.92,325.54,427.53Z"/>
      </g>
      <path class="cls-14" d="M298.87,425.68a12.63,12.63,0,0,0-2.16,2.46c-3.41,5-2.37,13.65-2.46,19.51-.12,7.9.7,15.79,1.2,23.66.64,10.2,1.25,20.39.15,30.59-.49,4.57-1.48,9.09-1.72,13.69-.11,2.07-.18,4.15-.23,6.23q-.06,2.57-.22,5.13a18,18,0,0,1-.22,2.72,8.53,8.53,0,0,1-.43,1.22,10.34,10.34,0,0,1-2,2.82,6.78,6.78,0,0,1-1.51,1.39,8.32,8.32,0,0,0-1.57.91,3.67,3.67,0,0,0,1,.94l2.48,2a50.15,50.15,0,0,0,4.45,3.29c3,1.87,6,3.71,9.64,3.88a9.55,9.55,0,0,0,3.11-.61,34.07,34.07,0,0,1,5.1-.72c1.29-.16,2.58-.33,3.88-.41s2.59.05,3.88,0c.47,0,.94,0,1.42,0,3.72.14,7.56,1.33,11.23.31,1.08-.3,2-1,3.06-1.29a23.39,23.39,0,0,1,5.54-1.06,5.12,5.12,0,0,0,2.67-.89,13.58,13.58,0,0,0,3.2-2.64,18.77,18.77,0,0,0,1.23-1.9,15.15,15.15,0,0,1,2.1-2.57c.55-.6,1.29-1.21,1.17-2.11a9.52,9.52,0,0,0-1-2.16c-.46-1.1-.79-2.25-1.27-3.34q-1.29-2.28-2.46-4.62l-1.51-3.77a42.23,42.23,0,0,1-2.47-8.19,24.83,24.83,0,0,0-.5-3.67,9.14,9.14,0,0,1-.37-1.24c-.52-2.91-.63-5.94-1-8.88-.66-5.7-1.48-11.38-2.18-17.08a52.19,52.19,0,0,1-.68-7c-.54-3.28-.64-6.61-1.29-9.88-.49-2.46-.91-4.94-1.36-7.41a33.54,33.54,0,0,1-1.66-6.82A117.39,117.39,0,0,1,333,436.35c.16,1.63-.84,1.82-2.14,1.86-3,.09-6.05.24-9.08.26a4.26,4.26,0,0,1-3.5-1.62c-3.75-4.2-6.47-9.07-9.25-13.92C305.17,422.5,301.63,423.27,298.87,425.68Z"/>
      <path class="cls-15" d="M309,422.93c2.77,4.84,5.49,9.71,9.24,13.92a4.26,4.26,0,0,0,3.5,1.62c3,0,6.06-.16,9.08-.26,1.3,0,2.3-.23,2.14-1.86-.14-.7,0-1.45-.35-2.11a48.24,48.24,0,0,1-10.54.33,1.72,1.72,0,0,1-1.37-.74A99.88,99.88,0,0,1,313.19,423Z"/>
      <path class="cls-16" d="M313.19,423a99.88,99.88,0,0,0,7.57,10.88,1.72,1.72,0,0,0,1.37.74,48.24,48.24,0,0,0,10.54-.33,4.4,4.4,0,0,0-.33-2.69c-3.16.24-6.32.14-9.49.09a1,1,0,0,1-.89-.52,91,91,0,0,1-5.47-8.4Z"/>
      <path class="cls-17" d="M316.49,422.72a91,91,0,0,0,5.47,8.4,1,1,0,0,0,.89.52c3.16.05,6.33.15,9.49-.09a14,14,0,0,0-.14-2c-.06-1-.52-1.22-1.36-1.12a48.59,48.59,0,0,1-6.75.54c-.56,0-.8-.3-1-.7-1-1.53-2.06-3-2.9-4.58a2,2,0,0,0-2.72-1.13A6.5,6.5,0,0,1,316.49,422.72Z"/>
      <path class="cls-2" d="M261,368.85a3.15,3.15,0,0,0-.25.25s.07.09.11.13l.19-.32Z"/>
      <path class="cls-2" d="M261.1,368.92c.24,0,.32-.24.41-.43l-.09-.13-.36.5Z"/>
      <path class="cls-2" d="M273.92,334.49l.09-.05s0-.07-.07-.08-.06,0-.09,0Z"/>
      <polygon class="cls-2" points="273.42 334.57 273.32 334.52 273.31 334.6 273.42 334.57"/>
      <polygon class="cls-2" points="272.7 334.69 272.78 334.74 272.79 334.67 272.7 334.69"/>
      <g>
        <path class="cls-12" d="M252.32,452.1a5.05,5.05,0,0,1-2.27.78A83.83,83.83,0,0,0,236.81,455a23,23,0,0,0-2.42.87,1.5,1.5,0,0,0-1.09,1.41c0,.82.64,1.16,1.29,1.39a12.54,12.54,0,0,0,3.2.53,31.32,31.32,0,0,1,4.41.26,5.83,5.83,0,0,1-2.35,1.07,85.46,85.46,0,0,0-9.59,3.39,7.88,7.88,0,0,0-2.36,1.56c-1,1.06-.75,2.13.68,2.53a8.33,8.33,0,0,0,3.23.07,62.83,62.83,0,0,0,8.85-1.91c-.17.76-.73,1-1.13,1.35a59.88,59.88,0,0,0-8.9,8.89c-.57.77-1.5,1.67-.76,2.64s1.87.36,2.77,0c3.58-1.35,6.68-3.59,9.9-5.58,1-.62,2-1.23,3-1.84.26-.16.59-.42.86-.15s0,.61-.11.88c-.87,1.84-1.78,3.66-2.65,5.5a16.32,16.32,0,0,0-1.55,4.47c-.1.64-.12,1.31.52,1.7a1.73,1.73,0,0,0,1.81-.1,11,11,0,0,0,3.44-3.22c1.71-2.33,3.35-4.71,5-7.07,1.23-1.73,1.73-1.73,2.94,0A33.63,33.63,0,0,0,258,477.1a3.11,3.11,0,0,0,2,1.25,1.87,1.87,0,0,0,2.23-1.67,17.65,17.65,0,0,0-.15-6.06c-.23-1.7-.52-3.4-.81-5.09a2.19,2.19,0,0,1,.56-2.1q.88-.91,1.79-1.79,3-2.91,6.25-5.53a82,82,0,0,1,6.71-4.85,80.77,80.77,0,0,1,7.19-4.15q1.87-1,3.78-1.81l1.93-.83c.29-.12,1.51-.73,1.79-.92s.42-.2.45-.41a1.17,1.17,0,0,0-.2-.6c-1.54-2.87-1.34-6-.94-9.13a.76.76,0,0,0,0-.4c-.15-.34-.65-.28-1-.16C276.42,437.52,264.1,444.57,252.32,452.1Z"/>
        <path class="cls-13" d="M306.26,441a8.51,8.51,0,0,1-1.61.86c-1.85.74-3.82,1.06-5.7,1.7a21.05,21.05,0,0,0-3.8,1.76,3.16,3.16,0,0,1-1.33.53,1.4,1.4,0,0,1-.92-.31,10.88,10.88,0,0,1-4.15-6.32c-.41-1.44-.62-2.86-1-4.32a2.25,2.25,0,0,1,.15-1.94,6.77,6.77,0,0,1,1.42-1.14,28.69,28.69,0,0,0,5.23-4.39,11,11,0,0,1,6.12-3.38,11.34,11.34,0,0,1,4.61-.06,7.28,7.28,0,0,1,3.77,2.36C312.68,430.84,310.85,437.88,306.26,441Z"/>
      </g>
    </g>
  </g>
</svg>
