<svg xmlns="http://www.w3.org/2000/svg" xmlns:xlink="http://www.w3.org/1999/xlink" width="1024" height="600" viewBox="0 0 1024 600">
  <defs>
    <style>
      .cls-1 {
        fill: none;
      }

      .cls-2 {
        clip-path: url(#clip-path);
      }

      .cls-3 {
        clip-path: url(#clip-path-2);
      }

      .cls-4 {
        fill: #38a4fc;
      }

      .cls-5 {
        fill: #73c9fe;
      }
    </style>
    <clipPath id="clip-path">
      <polygon class="cls-1" points="1023.88 598.73 -45.05 600 -45.05 0 1023.88 0 1023.88 598.73"/>
    </clipPath>
    <clipPath id="clip-path-2">
      <rect id="SVGID" class="cls-1" width="1024" height="600"/>
    </clipPath>
  </defs>
  <title>22_all_static_items</title>
  <g id="sea">
    <g class="cls-2">
      <g class="cls-3">
        <path class="cls-4" d="M-417.09,404.68s30.6-21.77,68.29-21.77,75.37,33.87,134.79,33.87,69.57-36.29,121.75-35.08S-29.94,418,23.68,421.62s84.06-37.5,140.59-41.12S239.64,421.62,286,420.41s71-38.71,126.09-38.71S481.68,424,536.76,424s71-47.17,120.3-47.17S742.57,424,791.85,420.41,860,381.7,916.49,379.28s81.16,30.24,134.79,26.61,78.27-26.61,121.75-24.19,46.06,19.35,46.06,15.72V525c.32-11.67-1636.24-17.81-1636.24-17.81Z"/>
        <path class="cls-5" d="M-367.59,455.68s30.6-21.77,68.29-21.77,75.37,33.87,134.79,33.87,69.57-36.29,121.75-35.08S19.55,469,73.18,472.61s84.06-37.5,140.59-41.12,75.37,41.12,121.75,39.92,71-38.71,126.09-38.71S531.18,475,586.26,475s71-47.17,120.3-47.17S792.07,475,841.34,471.41,909.46,432.7,966,430.28s81.16,30.24,134.79,26.61,78.27-26.61,121.75-24.19,46.06,19.35,46.06,15.72V604.58c.32-11.67-1636.24-17.81-1636.24-17.81Z"/>
        <path class="cls-4" d="M-417.09,499.18s30.6-21.77,68.29-21.77,75.37,33.87,134.79,33.87S-144.44,475-92.27,476.2s62.32,36.29,115.95,39.92,84.06-37.5,140.59-41.12S239.64,516.11,286,514.9s71-38.71,126.09-38.71,69.57,42.33,124.65,42.33,71-47.17,120.3-47.17,85.51,47.17,134.79,43.54S860,476.2,916.49,473.78s81.16,30.24,134.79,26.61,78.27-26.61,121.75-24.19,46.06,19.35,46.06,15.72V619.5c.32-11.67-1636.24-17.81-1636.24-17.81Z"/>
        <path class="cls-5" d="M-367.59,551.68s30.6-21.77,68.29-21.77,75.37,33.87,134.79,33.87,69.57-36.29,121.75-35.08S19.55,565,73.18,568.61s84.06-37.5,140.59-41.12,75.37,41.12,121.75,39.92,71-38.71,126.09-38.71S531.18,571,586.26,571s71-47.17,120.3-47.17S792.07,571,841.34,567.4,909.46,528.69,966,526.28s81.16,30.24,134.79,26.61,78.27-26.61,121.75-24.19,46.06,19.35,46.06,15.72V700.57c.32-11.67-1636.24-17.81-1636.24-17.81Z"/>
      </g>
    </g>
  </g>
</svg>
