<svg xmlns="http://www.w3.org/2000/svg" xmlns:xlink="http://www.w3.org/1999/xlink" width="1024" height="600" viewBox="0 0 1024 600">
  <defs>
    <style>
      .cls-1 {
        fill: none;
      }

      .cls-2 {
        fill: #5ea8ff;
      }

      .cls-3 {
        clip-path: url(#clip-path);
      }

      .cls-4 {
        fill: #e61e0c;
      }

      .cls-5 {
        fill: #a31508;
      }

      .cls-6 {
        fill: #fcee21;
      }

      .cls-7 {
        fill: #c61a0a;
      }

      .cls-8 {
        fill: #ff2127;
      }

      .cls-9 {
        fill: #2674cf;
      }

      .cls-10 {
        fill: #d3b05f;
      }

      .cls-11 {
        fill: #fff;
      }

      .cls-12 {
        fill: #2c2e7a;
      }

      .cls-13 {
        fill: #2fb34c;
      }

      .cls-14 {
        fill: #f16939;
      }

      .cls-15 {
        fill: #4c90cd;
      }

      .cls-16 {
        fill: #c6a459;
      }

      .cls-17 {
        fill: #8b683d;
      }

      .cls-18 {
        fill: #dfbc6d;
      }

      .cls-19 {
        fill: #b8b282;
      }

      .cls-20 {
        fill: #4c3422;
      }

      .cls-21 {
        fill: #cca348;
      }

      .cls-22 {
        clip-path: url(#clip-path-2);
      }

      .cls-23 {
        fill: #d3b266;
      }

      .cls-24 {
        fill: #040404;
      }

      .cls-25 {
        fill: #fde3ba;
      }

      .cls-26 {
        fill: #600b0c;
      }

      .cls-27 {
        fill: #d42027;
      }

      .cls-28 {
        fill: #4e2a21;
      }

      .cls-29 {
        fill: #bc9c39;
      }
    </style>
    <clipPath id="clip-path">
      <path class="cls-1" d="M553.72,454.73h0a1.25,1.25,0,0,1,1.33-1.15l2.82.21a1.25,1.25,0,0,1,.7.28l5.74,4.74a1.25,1.25,0,0,1,.26,1.62l-8.41,13.41a1.23,1.23,0,0,1-1,.58c-6.6.39-62.73,3.4-83.41-5-19.11-7.75-19.25-28.9-19-34.3a1.24,1.24,0,0,1,1.34-1.17l3.85.28a1.25,1.25,0,0,1,1.15,1.33l-.12,1.71a1.25,1.25,0,0,0,1.18,1.34l80.42,4a1.25,1.25,0,0,1,.56.16l5.17,3a1.25,1.25,0,0,1,.62,1.17l-.35,4.79a1.25,1.25,0,0,0,.59,1.15l4.6,2.82A1.25,1.25,0,0,0,553.72,454.73Z"/>
    </clipPath>
    <clipPath id="clip-path-2">
      <path class="cls-1" d="M507.61,418.15a3.42,3.42,0,0,1-.39.71,17.32,17.32,0,0,0-1,2.32,15.35,15.35,0,0,1-1,2.24,3.71,3.71,0,0,0-.5,1.86c0,.13.06.27-.07.39a5.5,5.5,0,0,1-3-3.8,4.6,4.6,0,0,1,1.48-4.41,2.6,2.6,0,0,1,3.36-.14C506.88,417.59,507.24,417.87,507.61,418.15Z"/>
    </clipPath>
  </defs>
  <title>22_all_static_items</title>
  <g id="small_boat">
    <g>
      <path class="cls-2" d="M452.92,441.14s1.42,29.48,8.78,30.67,16.4-1.18,9.7-4.15S455.1,454.26,452.92,441.14Z"/>
      <g class="cls-3">
        <rect class="cls-4" x="446.71" y="431" width="13.18" height="27.91" transform="translate(873.07 921.66) rotate(-175.83)"/>
        <rect class="cls-5" x="537.55" y="441.62" width="27.19" height="27.91" transform="translate(1067.74 950) rotate(-175.83)"/>
        <polygon class="cls-6" points="445.64 437.47 462.33 438.69 474.79 411.61 447.67 409.64 445.64 437.47"/>
        <polygon class="cls-4" points="457.74 463.94 538.5 469.35 540.47 442.38 459.19 437.6 457.74 463.94"/>
        <rect class="cls-7" x="451.27" y="440.25" width="98.64" height="2.39" transform="translate(977.29 908.59) rotate(-176.99)"/>
        <g>
          <polygon class="cls-7" points="512.99 476.45 538.09 478.27 540.54 460.77 521.82 446.13 515.16 446.72 512.99 476.45"/>
          <polygon class="cls-8" points="545.25 470.33 553.08 469.35 521.81 446.14 515.1 446.65 545.25 470.33"/>
        </g>
        <g>
          <polygon class="cls-7" points="481.72 474.17 506.82 476 509.27 458.49 490.54 443.86 483.89 444.44 481.72 474.17"/>
          <polygon class="cls-8" points="513.98 468.06 521.8 467.07 490.54 443.86 483.83 444.37 513.98 468.06"/>
        </g>
        <path class="cls-7" d="M566.72,457.39s-71.42,9-105.14-11.46c-8.08-5.29-8.83-8.1-9.61-8.79-.32,4.37,6.15,18.6,6.15,18.6l4.56,6,102.15,7.44Z"/>
        <path class="cls-9" d="M571.76,459.51s-48.63,7.3-86.36-2.28-44.49-26.82-44.49-26.82l9.64,42.43,114.69,8.35Z"/>
      </g>
    </g>
    <g>
      <path class="cls-10" d="M532.44,450.36a9,9,0,0,0,1.23-2.09,13.29,13.29,0,0,0,1-4.12,6.25,6.25,0,0,0-.16-1.17,4.7,4.7,0,0,1,1.4-3.8,7.67,7.67,0,0,1,2.28-1.55c.11-.05.19-.1.26.07a7.38,7.38,0,0,1,.56,2.15,2.92,2.92,0,0,1-1,2.49c-.35.33-.72.64-1.06,1a2.57,2.57,0,0,0-.68,1.25,17.69,17.69,0,0,1-3,6.33,3.37,3.37,0,0,1-.26.29A13.2,13.2,0,0,1,529,454.1c-1.61.83-3.28-.16-4.6-1.33a9.85,9.85,0,0,1-1.19-1.25l1-.51a.58.58,0,0,0,.07.15,7.34,7.34,0,0,0,2.55,1.88,2.1,2.1,0,0,0,1.65.22A10.54,10.54,0,0,0,532.44,450.36Z"/>
      <g>
        <path class="cls-11" d="M502.16,445.87s-.5-.14-1.16-1.8c-.41-.93-1-2.36-2.33-2.53s-1.84,1.64-1.87,2.54.29,4.71,1,5.1a5.9,5.9,0,0,0,2.44,0C500.63,449,502.54,446.36,502.16,445.87Z"/>
        <path class="cls-10" d="M510.25,445.06l1,.05a11.86,11.86,0,0,1,2.34.39c.83.25.88,1.32.76,2.06a2.27,2.27,0,0,1-.5,1c-.36.46-1.05.8-1.29,1.32a12.25,12.25,0,0,0-.28,1.82,2.73,2.73,0,0,1-1.69,2,1.2,1.2,0,0,1-.78,0,1.57,1.57,0,0,1-.78-1.12,3.19,3.19,0,0,0-.51-1.31c-.66-.77-1.65-.4-2.51-.4a14.3,14.3,0,0,1-3.31-.55,7.29,7.29,0,0,1-2.43-1.21c-.11-.08-.09-.22-.13-.33a1.81,1.81,0,0,1-.09-1.27c.14-.44.24-.51.69-.55a1,1,0,0,0,1.11-.93c.06-.22.13-.27.37-.23a10.44,10.44,0,0,0,4.26-.41A17.2,17.2,0,0,1,510.25,445.06Z"/>
        <path class="cls-12" d="M498.67,441.54a2.17,2.17,0,0,0-.71.45,3.24,3.24,0,0,0-.72,1.62,10,10,0,0,0,.55,5.48.62.62,0,0,1,0,.09,2.76,2.76,0,0,1-.57-.14c-.09,0-.1-.09-.13-.16a12.78,12.78,0,0,1-.6-5.19,3.39,3.39,0,0,1,.45-1.49A1.45,1.45,0,0,1,498.67,441.54Z"/>
        <path class="cls-13" d="M499.45,445.66a5.25,5.25,0,0,1,.85-2,.89.89,0,0,1,.2-.18c.11-.08.21-.09.26.07l0,.07a1.46,1.46,0,0,1,.2.44c0,.19-.23.18-.34.29a2.68,2.68,0,0,0-.62,1.28,2.75,2.75,0,0,0-.06.34.27.27,0,0,1-.24.24c-.14,0-.2-.1-.23-.2A2.31,2.31,0,0,1,499.45,445.66Z"/>
        <path class="cls-14" d="M498.93,444.45a3.26,3.26,0,0,1,1-1.83c.16-.13.27-.12.37.06l0,.06c.22.33.21.33-.08.59a3.34,3.34,0,0,0-.85,1.5c0,.1,0,.29-.18.28s-.17-.18-.21-.3A1.3,1.3,0,0,1,498.93,444.45Z"/>
        <path class="cls-15" d="M498.32,443.34a2.41,2.41,0,0,1,.92-1.44c.17-.11.58.1.64.3s0,.1-.08.13a2.16,2.16,0,0,0-.94,1.27c0,.11,0,.29-.22.27s-.23-.15-.26-.29S498.34,443.43,498.32,443.34Z"/>
      </g>
      <g>
        <path class="cls-16" d="M507.25,429.53c.33,1-.18,1.07.46,1.87.39.49-.32.86,0,1.38.06.09.16.18.13.31-.7-.37-1.39-.74-2.09-1.1-1.49-.76-5.54-2.63-7.09-3.24a5.78,5.78,0,0,0-1.79-.26,2.83,2.83,0,0,0-1.33.23,1.45,1.45,0,0,1-1,.06,1.34,1.34,0,0,1-.87-1.92c0-.12.09-.2,0-.32a1.09,1.09,0,0,1,0-1.78.59.59,0,0,0,.21-.51,1.33,1.33,0,0,1,1.79-1.22c.1,0,.14,0,.22,0a1.22,1.22,0,0,1,2.11.22c.38.66.84,1.24,1.28,1.86a2.1,2.1,0,0,0,.95.74,16.65,16.65,0,0,1,2.14,1.33C502.46,427.2,507.14,429.46,507.25,429.53ZM496,426.16a6,6,0,0,0,.6,1.39c.11.18.27.35.5.31s.55-.16.61-.46a2.37,2.37,0,0,1,.66-1.22.64.64,0,0,0,.09-.74c-.11-.23-.35-.22-.57-.23s-.64.06-1,0A.94.94,0,0,0,496,426.16Zm-1.28.2c.4,0,.68-.19.68-.47a.78.78,0,0,0-.72-.66.64.64,0,0,0-.7.57C494,426.12,494.28,426.36,494.7,426.36Zm2.81-2.45a1,1,0,0,0-.3-.69.43.43,0,0,0-.72.17.82.82,0,0,0,.11.8c.13.2.3.36.56.29S497.5,424.18,497.51,423.91ZM495,428.16a.8.8,0,0,0,.69-.33.42.42,0,0,0-.22-.71.9.9,0,0,0-.72.14.55.55,0,0,0-.32.58C494.45,428.06,494.65,428.16,495,428.16Zm.48-3.21c.48,0,.67-.27.53-.61a1,1,0,0,0-.82-.53.42.42,0,0,0-.4.64A.82.82,0,0,0,495.47,425Z"/>
        <path class="cls-17" d="M496,426.16a.94.94,0,0,1,.92-.92c.33,0,.65,0,1,0s.46,0,.57.23a.64.64,0,0,1-.09.74,2.37,2.37,0,0,0-.66,1.22c-.06.31-.34.42-.61.46s-.38-.13-.5-.31A6,6,0,0,1,496,426.16Z"/>
        <path class="cls-17" d="M494.7,426.36c-.42,0-.73-.24-.74-.56a.64.64,0,0,1,.7-.57.78.78,0,0,1,.72.66C495.38,426.17,495.1,426.36,494.7,426.36Z"/>
        <path class="cls-17" d="M497.51,423.91c0,.27-.08.5-.35.57s-.42-.09-.56-.29a.82.82,0,0,1-.11-.8.43.43,0,0,1,.72-.17A1,1,0,0,1,497.51,423.91Z"/>
        <path class="cls-17" d="M495,428.16c-.34,0-.54-.1-.57-.33a.55.55,0,0,1,.32-.58.9.9,0,0,1,.72-.14.42.42,0,0,1,.22.71A.8.8,0,0,1,495,428.16Z"/>
        <path class="cls-17" d="M495.47,425a.82.82,0,0,1-.7-.51.42.42,0,0,1,.4-.64,1,1,0,0,1,.82.53C496.15,424.68,496,425,495.47,425Z"/>
      </g>
      <g>
        <path class="cls-18" d="M523.9,453.56l.09-.11a4,4,0,0,0,.63-1.24,4.43,4.43,0,0,0,.11-1c0-.23,0-.47.06-.7a11.63,11.63,0,0,0-.39-3.44c-.29-1.12-.7-2.2-.95-3.32-.47-2.14-.69-4.32-1.13-6.46a11.06,11.06,0,0,0-1-2.73c-.2-.4-.24-.64-.65-.88a4.11,4.11,0,0,0-1.54-.54,5.67,5.67,0,0,0-1.68-.1,6.27,6.27,0,0,1-1.39.16c-1.57-.07-3.15-.19-4.72-.28l-1.77-.1c-.12,0-.52-.1-.62,0a16.22,16.22,0,0,0-.65,2.28,60.86,60.86,0,0,0-.93,9.27,30.87,30.87,0,0,0,1.11,6.75,6,6,0,0,0,.63,1.55,2,2,0,0,0,.14.22,4.93,4.93,0,0,0,2.3,1.61,11.06,11.06,0,0,0,3.13.63l.47.06.91.05h.85c.49,0,1,0,1.48,0a6.12,6.12,0,0,0,.91-.23c.36-.09.73-.2,1.09-.27a2.34,2.34,0,0,1,.7,0,3.43,3.43,0,0,0,2-.45A3.16,3.16,0,0,0,523.9,453.56Z"/>
        <path class="cls-19" d="M509.47,434.69c.74.68,1.43.13,2.25.08,3.94-.24,6.06,4.42,5.62,7.77-.37,2.89-1,7.19-3.93,8.71-2.66,1.38-5-2.33-5.43-4.56a16.76,16.76,0,0,1,0-5c.2-2.14.31-4.71,1.29-6.65A.6.6,0,0,1,509.47,434.69Z"/>
      </g>
      <path class="cls-11" d="M522.38,431c0,.06-.09.05-.14.06S522.32,431,522.38,431Z"/>
      <path class="cls-11" d="M522.43,430.94s0,.05-.06.06S522.39,430.94,522.43,430.94Z"/>
      <path class="cls-20" d="M523.8,422.22l0,0Z"/>
      <g>
        <g>
          <path class="cls-21" d="M507.61,418.15a3.42,3.42,0,0,1-.39.71,17.32,17.32,0,0,0-1,2.32,15.35,15.35,0,0,1-1,2.24,3.71,3.71,0,0,0-.5,1.86c0,.13.06.27-.07.39a5.5,5.5,0,0,1-3-3.8,4.6,4.6,0,0,1,1.48-4.41,2.6,2.6,0,0,1,3.36-.14C506.88,417.59,507.24,417.87,507.61,418.15Z"/>
          <path class="cls-20" d="M504.27,422.77l0-.1C504.24,422.68,504.26,422.73,504.27,422.77Z"/>
          <g class="cls-22">
            <path class="cls-17" d="M504.27,422.77a4.38,4.38,0,0,0-.23,1.06,2.28,2.28,0,0,0,1,2.11s0,0,0,.07h0a.1.1,0,0,1,.12,0l.64.23a14.26,14.26,0,0,1,1.26-1.82,1.65,1.65,0,0,0,.14-1.77.76.76,0,0,1-.11-.3l0,0h0a1.38,1.38,0,0,1-.38-.24,1.47,1.47,0,0,0-1.83,0c-.23.15-.36.4-.57.57h0Z"/>
            <path class="cls-20" d="M504.3,422.67c.21-.17.34-.41.57-.57a1.47,1.47,0,0,1,1.83,0,1.38,1.38,0,0,0,.38.24,2.23,2.23,0,0,0-1.3-1.2,2.89,2.89,0,0,0-2.25.16,5.53,5.53,0,0,1,2.06.08A2,2,0,0,0,504.3,422.67Z"/>
          </g>
        </g>
        <g>
          <path class="cls-20" d="M526.58,422.55c-.21-.17-.34-.41-.57-.57a1.47,1.47,0,0,0-1.83,0,1.38,1.38,0,0,1-.38.24,2.23,2.23,0,0,1,1.3-1.2,2.89,2.89,0,0,1,2.25.16,5.53,5.53,0,0,0-2.06.08A2,2,0,0,1,526.58,422.55Z"/>
          <path class="cls-17" d="M526.61,422.64a4.38,4.38,0,0,1,.23,1.06,2.28,2.28,0,0,1-1,2.11s0,0,0,.07h0a.23.23,0,0,1-.12,0l-.64.23a14.26,14.26,0,0,0-1.26-1.82,1.65,1.65,0,0,1-.14-1.77.76.76,0,0,0,.11-.3l0,0h0a1.38,1.38,0,0,0,.38-.24,1.47,1.47,0,0,1,1.83,0c.23.15.36.4.57.57h0Z"/>
          <g>
            <path class="cls-23" d="M529.67,418.44a2.64,2.64,0,0,0-2.7-.94,4.48,4.48,0,0,0-1.38.69,2.72,2.72,0,0,1-1.51.47,2.78,2.78,0,0,1-1.37-.46,23.68,23.68,0,0,0-4.82-2,.32.32,0,0,1-.27-.31,1.61,1.61,0,0,0-.38-1,1.56,1.56,0,0,1-.39-1.39c0-.09,0-.18,0-.32a2,2,0,0,0-.47.53,4,4,0,0,0-.42,1.06,1.94,1.94,0,0,1-.32.72c-.09.11-.17.12-.24,0a1.78,1.78,0,0,1-.15-.68,6.52,6.52,0,0,0-.17-1.48,2.54,2.54,0,0,0-.75-1.24,2.26,2.26,0,0,1-.14,1,8.48,8.48,0,0,1-.52,1.07,2.06,2.06,0,0,0-.38,1.17,1.87,1.87,0,0,1-.57-1,3.59,3.59,0,0,1-.07-1.17,1.23,1.23,0,0,0-.51.32,4.37,4.37,0,0,0-1.13,1.89.74.74,0,0,1-.37.46,15.73,15.73,0,0,0-2.36,1.7c-2.57,2.25-4.53,6.41-3.37,9.8q.14.4.3.78h0a9.11,9.11,0,0,1,.88,3.35,10.3,10.3,0,0,0,2,4.27,8,8,0,0,0,4.55,1,5.41,5.41,0,0,0,3.46-1.82,12.64,12.64,0,0,1,4.46-2.7,8.75,8.75,0,0,0,3.29-2.12c.58-.69,1.67-3,1.22-3.89a14.27,14.27,0,0,0-1.26-1.82,1.65,1.65,0,0,1-.14-1.77.76.76,0,0,0,.11-.3l0,0h0a2.23,2.23,0,0,1,1.3-1.2,2.89,2.89,0,0,1,2.25.16,5.53,5.53,0,0,0-2.06.08,2,2,0,0,1,1.3,1.28.57.57,0,0,0,0,.1,4.38,4.38,0,0,1,.23,1.06,2.28,2.28,0,0,1-1,2.11s0,0,0,.07a3.93,3.93,0,0,0,1.07-.27A6.8,6.8,0,0,0,529.6,424,4.3,4.3,0,0,0,529.67,418.44Z"/>
            <polygon class="cls-23" points="526.58 422.55 526.58 422.55 526.58 422.55 526.58 422.55"/>
          </g>
          <path class="cls-20" d="M518.48,423.72a2.53,2.53,0,0,0-4.39-.41,2.82,2.82,0,0,1,.52-1,3.37,3.37,0,0,1,1.19-1,1.24,1.24,0,0,1,1.36.09A3.55,3.55,0,0,1,518.48,423.72Z"/>
          <path class="cls-20" d="M509.3,423.31a2.21,2.21,0,0,0-3.79-.17,2.92,2.92,0,0,1,1.68-1.92,1,1,0,0,1,.67,0A2.92,2.92,0,0,1,509.3,423.31Z"/>
          <path class="cls-16" d="M512.61,424.81a4,4,0,0,1-3.77,2.8,4.15,4.15,0,0,0,2.58,1.53A6.48,6.48,0,0,0,512.61,424.81Z"/>
          <g>
            <path class="cls-11" d="M518.4,425.63a2,2,0,0,1-1.66,2.26,3.3,3.3,0,0,1-1.13.09,2,2,0,0,1-1.87-1.6,2.64,2.64,0,0,1,1.34-3,2.38,2.38,0,0,1,3.2,1.57A2.77,2.77,0,0,1,518.4,425.63Z"/>
            <path class="cls-20" d="M515.78,427.54a1.87,1.87,0,1,1-.35-3.73,1.87,1.87,0,0,1,.35,3.73Zm-1.28-2a.38.38,0,0,0-.08.41,1.22,1.22,0,0,0,1.32,1,1.25,1.25,0,0,0,1.06-1.06,1.19,1.19,0,0,0-.89-1.26,2.4,2.4,0,0,0-.83,0c-.36-.22-.67-.19-.85.1A.57.57,0,0,0,514.5,425.56Z"/>
            <path class="cls-24" d="M515.09,424.64a2.4,2.4,0,0,1,.83,0,1.19,1.19,0,0,1,.89,1.26,1.25,1.25,0,0,1-1.06,1.06,1.22,1.22,0,0,1-1.32-1,.38.38,0,0,1,.08-.41.58.58,0,0,0,.64-.23A.59.59,0,0,0,515.09,424.64Z"/>
            <path class="cls-11" d="M515.09,424.64a.59.59,0,0,1,.06.68.58.58,0,0,1-.64.23.57.57,0,0,1-.27-.81C514.42,424.46,514.73,424.42,515.09,424.64Z"/>
          </g>
          <g>
            <path class="cls-11" d="M509.17,425.23a1.8,1.8,0,0,1-1.63,2,2.39,2.39,0,0,1-1.25-.06,1.57,1.57,0,0,1-1.1-1.33,3.75,3.75,0,0,1,.11-1.51,1.83,1.83,0,0,1,1.81-1.19A2.11,2.11,0,0,1,509.17,425.23Z"/>
            <path class="cls-20" d="M505.24,425.37a1.7,1.7,0,1,1,1.84,1.55A1.68,1.68,0,0,1,505.24,425.37Zm.7-.16c-.13,0-.1.14-.08.22a1.4,1.4,0,0,0,.12.32,1.08,1.08,0,0,0,1.86.14,1.09,1.09,0,0,0-.14-1.4,1.08,1.08,0,0,0-1.27-.16c-.35-.13-.58-.07-.72.18S505.64,425,505.94,425.21Z"/>
            <path class="cls-24" d="M506.43,424.33a1.08,1.08,0,0,1,1.27.16,1.09,1.09,0,0,1,.14,1.4,1.08,1.08,0,0,1-1.86-.14,1.4,1.4,0,0,1-.12-.32c0-.08-.05-.19.08-.22a.63.63,0,0,0,.38,0C506.68,425,506.73,424.68,506.43,424.33Z"/>
            <path class="cls-11" d="M506.43,424.33c.3.35.25.72-.11.88a.63.63,0,0,1-.38,0q-.44-.31-.23-.7C505.85,424.26,506.08,424.2,506.43,424.33Z"/>
          </g>
          <g>
            <g>
              <path class="cls-25" d="M515.18,434.77c0,.28,0-.13,0,.16a2,2,0,0,1-.64,1.15,3.74,3.74,0,0,1-2.87.7c-.58-.06-1.16-.15-1.75-.19a2.52,2.52,0,0,1-2.23-1.14,7.26,7.26,0,0,1-.65-1.18l-.37-1.88a6.08,6.08,0,0,1-.15-.92,1.22,1.22,0,0,1,.23.42c.17.49.33,1,.52,1.47a2.84,2.84,0,0,0,2.07,1.86,7.55,7.55,0,0,0,3,.11,3,3,0,0,0,2.67-2.58,2.21,2.21,0,0,1,.23-.77,14.23,14.23,0,0,1,0,2.38C515.2,434.49,515.18,434.63,515.18,434.77Z"/>
              <path class="cls-20" d="M515.23,432a2.21,2.21,0,0,0-.23.77,3,3,0,0,1-2.67,2.58,7.55,7.55,0,0,1-3-.11,2.84,2.84,0,0,1-2.07-1.86c-.19-.49-.35-1-.52-1.47a1.22,1.22,0,0,0-.23-.42c0-.1-.11-.18-.06-.29a4.28,4.28,0,0,0,.89.67,1.58,1.58,0,0,0,2.18-.76,2.72,2.72,0,0,0,.19-.63c0-.09-.11-.38-.05-.5s.15,0,.18,0a.32.32,0,0,0,0,.22,2.53,2.53,0,0,1,.08.29,3.9,3.9,0,0,0,.27.61,2.19,2.19,0,0,0,.89.89,3.9,3.9,0,0,0,4-.11.55.55,0,0,0,.21-.23A.61.61,0,0,1,515.23,432Zm-6.09,2.52a8.48,8.48,0,0,0,2.66.28,2.35,2.35,0,0,0,1-.16,3.22,3.22,0,0,0,2.16-2.31s0-.1,0-.13-.12,0-.18,0a3.62,3.62,0,0,1-1.35.47,3.94,3.94,0,0,1-2.44-.49,3.53,3.53,0,0,1-1.13-1,2,2,0,0,1-2.77,1h0A3,3,0,0,0,509.14,434.5Z"/>
              <path class="cls-25" d="M515.3,431.59a.55.55,0,0,1-.21.23,3.9,3.9,0,0,1-4,.11,2.79,2.79,0,0,1-1.28-1.86c0-.06-.06-.15.08-.16a2.13,2.13,0,0,0,1.86-1.42l0,0c.36.25.8.37,1.18.59a4.91,4.91,0,0,1,2.13,2C515.18,431.25,515.23,431.42,515.3,431.59Z"/>
              <path class="cls-25" d="M507.63,428.24c.08.16.15.33.24.48a2.28,2.28,0,0,0,1.72,1.17c.16,0,.21.06.19.22a3.19,3.19,0,0,1-.24,1,1.58,1.58,0,0,1-2.18.76,4.28,4.28,0,0,1-.89-.67h0a.11.11,0,0,0-.06-.11h0l0,0a1,1,0,0,1,.14-.71C506.87,429.63,507.21,428.92,507.63,428.24Z"/>
              <path class="cls-20" d="M506.39,431.07a.11.11,0,0,1,.06.11C506.36,431.18,506.41,431.1,506.39,431.07Z"/>
              <path class="cls-26" d="M507.09,432.15a2,2,0,0,0,2.77-1,3.53,3.53,0,0,0,1.13,1,3.94,3.94,0,0,0,2.44.49,3.62,3.62,0,0,0,1.35-.47c.06,0,.11-.09.18,0s0,.09,0,.13a3.22,3.22,0,0,1-2.16,2.31,1.67,1.67,0,0,0-.92-.18,3.31,3.31,0,0,1-1.56-.13,1.1,1.1,0,0,0-1.19.19,3,3,0,0,1-2.05-2.35Z"/>
              <path class="cls-27" d="M509.14,434.5a1.1,1.1,0,0,1,1.19-.19,3.31,3.31,0,0,0,1.56.13,1.67,1.67,0,0,1,.92.18,2.35,2.35,0,0,1-1,.16A8.48,8.48,0,0,1,509.14,434.5Z"/>
            </g>
            <path class="cls-28" d="M511.75,428.2a1.12,1.12,0,0,1-.32.92,2.27,2.27,0,0,1-1.81.79,2.58,2.58,0,0,1-1.88-1,.93.93,0,0,1-.24-.63.69.69,0,0,1,.26-.52,2.14,2.14,0,0,1,.63-.21,4.73,4.73,0,0,1,1.44-.12c.15,0,.63,0,.77,0a2.73,2.73,0,0,1,.6.15A.88.88,0,0,1,511.75,428.2Z"/>
          </g>
        </g>
      </g>
      <g>
        <path class="cls-11" d="M510.67,453.45a6.32,6.32,0,0,1-2.18-1.82c-.32-.27-1.82-1.73-3.29-1.25s-1,3.09-.17,4.95,2.23,3.59,2.7,3.46a11.39,11.39,0,0,0,2.7-1.23C510.79,456.65,512.4,454.36,510.67,453.45Z"/>
        <path class="cls-12" d="M505.2,450.37a2.48,2.48,0,0,0-.63,2.41,11.26,11.26,0,0,0,3,5.8c.06.06.14.1.16.2a2.66,2.66,0,0,1-.63.11.23.23,0,0,1-.22-.1,14.77,14.77,0,0,1-3-5.25,4.33,4.33,0,0,1-.22-1.5,1.73,1.73,0,0,1,1.28-1.67A.4.4,0,0,1,505.2,450.37Z"/>
        <path class="cls-13" d="M507.88,454.31a6.13,6.13,0,0,1,0-2.51.78.78,0,0,1,.15-.27c.08-.1.16-.12.26,0l0,0c.16.14.36.25.45.42s-.16.32-.23.5a3,3,0,0,0-.08,1.53,4.59,4.59,0,0,0,.1.47.3.3,0,0,1-.16.35c-.13.08-.24,0-.32-.11S508,454.45,507.88,454.31Z"/>
        <path class="cls-14" d="M506.76,453.2a3.75,3.75,0,0,1,.17-2.18c.16-.34.22-.35.52-.15s.38.26.19.67a3.84,3.84,0,0,0-.22,1.94c0,.13.13.31-.05.38s-.27-.11-.38-.23A1.57,1.57,0,0,1,506.76,453.2Z"/>
        <path class="cls-15" d="M505.66,452.34a2.77,2.77,0,0,1,.28-1.83.63.63,0,0,1,.85,0c0,.07,0,.11,0,.15a2.55,2.55,0,0,0-.42,1.85c0,.12.06.25-.1.31a.33.33,0,0,1-.36-.11A.81.81,0,0,1,505.66,452.34Z"/>
        <path class="cls-18" d="M516.58,449.72a.28.28,0,0,1-.11.36c-.36.25-.72.51-1.07.78a4.76,4.76,0,0,0-.68.58,5.8,5.8,0,0,1-1.46,1,5,5,0,0,1-.9.48c-.51.17-1,.36-1.53.5-.22.06-.26.13-.23.34a1.17,1.17,0,0,1-.53,1.3,3.86,3.86,0,0,1-.43.21.42.42,0,0,0-.28.39,3.15,3.15,0,0,0,0,.48,2.28,2.28,0,0,0,.75,1.33c.22.22.48.07.72.08h.08a7.73,7.73,0,0,0,3.26-.27l.57-.14.72-.24a11.61,11.61,0,0,0,1.9-.85,17.32,17.32,0,0,1,2.39-1.33S521.27,450.41,516.58,449.72Z"/>
      </g>
      <g>
        <path class="cls-18" d="M517.6,437.35a5.4,5.4,0,0,1-.3,1.3h0a49.2,49.2,0,0,1-4,8.76,2.83,2.83,0,0,1-1.33,1.46,1.2,1.2,0,0,0-.23.16,3.87,3.87,0,0,1-1.48.73A1.46,1.46,0,0,0,509,451a1.43,1.43,0,0,0,.75,1.47c.1.07.15.12.1.25a1.18,1.18,0,0,0,1.07,1.62.43.43,0,0,1,.36.26,1.41,1.41,0,0,0,2.24.15.25.25,0,0,1,.36-.13,1,1,0,0,0,1.15-.23,1.61,1.61,0,0,0,.45-1.21,14.72,14.72,0,0,1,.06-2.32.82.82,0,0,1,.16-.44,5,5,0,0,0,.57-1c1-2.43,2-4.89,2.8-7.4.05-.16.06-.36.21-.48h0s0-.06,0-.08h0c0-.07,0-.11.06-.15.12-.73.39-1.42.54-2.13s1-5.26.8-5.45Z"/>
        <path class="cls-17" d="M512,451.92a1,1,0,0,0,1.34.19c.25-.23.56-.37.82-.58s.38-.28.33-.54a.67.67,0,0,0-.54-.56,2.47,2.47,0,0,1-1.3-.61.66.66,0,0,0-.8,0,.54.54,0,0,0-.22.57A6.25,6.25,0,0,0,512,451.92Z"/>
        <path class="cls-17" d="M510.78,452.54a.69.69,0,0,0-.27.93.67.67,0,0,0,.94,0,.81.81,0,0,0,.19-1C511.47,452.28,511.11,452.29,510.78,452.54Z"/>
        <path class="cls-17" d="M514.65,452.84c-.18-.22-.38-.37-.65-.26s-.3.34-.28.59a.85.85,0,0,0,.4.74.44.44,0,0,0,.71-.31A1,1,0,0,0,514.65,452.84Z"/>
        <path class="cls-17" d="M509.9,450.86c-.29.21-.39.42-.27.63a.57.57,0,0,0,.62.28.94.94,0,0,0,.69-.34.43.43,0,0,0-.26-.73A.83.83,0,0,0,509.9,450.86Z"/>
        <path class="cls-17" d="M512.3,453.24a.85.85,0,0,0-.26.86.44.44,0,0,0,.73.28,1,1,0,0,0,.35-1C513,453,512.7,452.94,512.3,453.24Z"/>
      </g>
    </g>
    <path class="cls-29" d="M519,457.21,494.6,419.47a1.49,1.49,0,0,0-2.51,1.62l24.41,37.74a10.56,10.56,0,0,0,1.18,6.93l9.65,14.93s1.64,1,4.51-.89,2.66-3.75,2.66-3.75l-9.65-14.93A10.56,10.56,0,0,0,519,457.21Z"/>
  </g>
</svg>
