<svg xmlns="http://www.w3.org/2000/svg" xmlns:xlink="http://www.w3.org/1999/xlink" width="1024" height="600" viewBox="0 0 1024 600">
  <defs>
    <style>
      .cls-1, .cls-17 {
        fill: none;
      }

      .cls-2 {
        fill: #f7931e;
      }

      .cls-3 {
        clip-path: url(#clip-path);
      }

      .cls-4 {
        fill: #f15a24;
      }

      .cls-5 {
        fill: #d4555e;
      }

      .cls-6 {
        fill: #510706;
      }

      .cls-7 {
        clip-path: url(#clip-path-2);
      }

      .cls-8 {
        clip-path: url(#clip-path-3);
      }

      .cls-9 {
        clip-path: url(#clip-path-4);
      }

      .cls-10 {
        clip-path: url(#clip-path-5);
      }

      .cls-11 {
        clip-path: url(#clip-path-6);
      }

      .cls-12 {
        clip-path: url(#clip-path-7);
      }

      .cls-13, .cls-16 {
        fill: #a81307;
      }

      .cls-14 {
        fill: #fff;
      }

      .cls-15 {
        fill: #231f20;
      }

      .cls-16, .cls-17 {
        stroke: #a81307;
        stroke-linecap: round;
        stroke-linejoin: round;
      }

      .cls-16 {
        stroke-width: 0.17px;
      }

      .cls-17 {
        stroke-width: 0.34px;
      }

      .cls-18 {
        clip-path: url(#clip-path-8);
      }

      .cls-19 {
        fill: #fa4316;
      }
    </style>
    <clipPath id="clip-path">
      <path id="SVGID" class="cls-1" d="M778.23,547.46s-2.57-2.28-.5-3.78a13.67,13.67,0,0,0,6.84-7.85c1.21-2.64,2.28-4,3.85-2.71,1.14,1,.57,3.85-.85,4-.56.19-.14-1.37-.74-1a.72.72,0,0,0-.36.71c.14,1.44,1.78,4.6-3.25,8C777.59,548.53,778.23,547.46,778.23,547.46Z"/>
    </clipPath>
    <clipPath id="clip-path-2">
      <path id="SVGID-2" data-name="SVGID" class="cls-1" d="M780,547a2.3,2.3,0,0,1-.17-2.29,9.86,9.86,0,0,1,4.38-4.57c3.73-1.92,8.9-2.83,9.8-7.58.59-1.87,2.82-2.08,3.2-1.39s-1.54,2.19-1.38,4.16-3,7-6.92,8.75C785.46,545.59,781.56,549.25,780,547Z"/>
    </clipPath>
    <clipPath id="clip-path-3">
      <path id="SVGID-3" data-name="SVGID" class="cls-1" d="M777,549.93s-.13-4.08,3.28-5.51A49.51,49.51,0,0,0,786,541.5c2.78-1.43,10.27,1.6,12.44-2.55a.86.86,0,0,0-1.11-1c-.62.25-.74-1,.68-1.55s5.26-.44,4,3.9-9.71,5.64-12.81,5.52C787.31,545.9,778.59,554.26,777,549.93Z"/>
    </clipPath>
    <clipPath id="clip-path-4">
      <path id="SVGID-4" data-name="SVGID" class="cls-1" d="M770.5,554.8s-3.13-1.42-3.66,1.08a13.67,13.67,0,0,1-4.38,9.45c-1.92,2.18-2.72,3.71-.91,4.62,1.38.64,3.75-1,3.3-2.41-.06-.59-1.31.43-1.26-.25a.72.72,0,0,1,.5-.61c1.37-.45,4.92-.25,6-6.21C771.21,553.78,770.5,554.8,770.5,554.8Z"/>
    </clipPath>
    <clipPath id="clip-path-5">
      <path id="SVGID-5" data-name="SVGID" class="cls-1" d="M771.77,554.3a2.3,2.3,0,0,0-2.07,1,9.86,9.86,0,0,0-1.76,6.08c.21,4.19,2,9.12-1.65,12.28-1.32,1.44-.39,3.49.4,3.46s1.12-2.43,2.91-3.28,4.53-6.13,4.1-10.38C773.33,559.75,774.55,554.54,771.77,554.3Z"/>
    </clipPath>
    <clipPath id="clip-path-6">
      <path id="SVGID-6" data-name="SVGID" class="cls-1" d="M761.17,556a49.51,49.51,0,0,1-5.41,3.51c-2.63,1.69-3.77,9.69-8.45,9.48a.86.86,0,0,1-.3-1.46c.53-.41-.48-1.14-1.68-.19s-3,4.33,1.35,5.44,9.75-5.57,11.2-8.31c1-1.63,12.63-5,9.69-8.54,0,0-3.47-2.16-6.41.07"/>
    </clipPath>
    <clipPath id="clip-path-7">
      <path id="SVGID-7" data-name="SVGID" class="cls-1" d="M776.3,549.42s2.25-3,6.54-1,10,1.45,14.48.45,8.33-.27,8.46,4.36a2.94,2.94,0,0,1-3.77,2.85c-.53-.13-.07-.86.53-.93s-.33-2.71-4.3-2.31S785,560.05,780,556.69c0,0,5.56,5.81,1.47,16.26-.62,1.75-1.43,3.31-.63,4.84a1.92,1.92,0,0,0,1.36,1c.77.14,1.62.35.92,1.52-1,1.65-5,2.38-6.28-1.91s3.36-10.38-1.86-15.6a12,12,0,0,1-2.38-2.91s-1.38-2.23.06-5.62A14.28,14.28,0,0,1,776.3,549.42Z"/>
    </clipPath>
    <clipPath id="clip-path-8">
      <path id="SVGID-8" data-name="SVGID" class="cls-1" d="M773,540.74a13.93,13.93,0,0,1-9.68,9.69S776.61,554,773,540.74Z"/>
    </clipPath>
  </defs>
  <title>22_all_static_items</title>
  <g id="big_boat">
    <g>
      <g>
        <g>
          <g>
            <path class="cls-2" d="M778.23,547.46s-2.57-2.28-.5-3.78a13.67,13.67,0,0,0,6.84-7.85c1.21-2.64,2.28-4,3.85-2.71,1.14,1,.57,3.85-.85,4-.56.19-.14-1.37-.74-1a.72.72,0,0,0-.36.71c.14,1.44,1.78,4.6-3.25,8C777.59,548.53,778.23,547.46,778.23,547.46Z"/>
            <g class="cls-3">
              <path class="cls-4" d="M787.54,537.82s.43-2.07-.39-2.46-1.37.86-1.34,2.12c0,1.52-.77,9.15-8.28,12.18C777.67,553.24,789.88,545.85,787.54,537.82Z"/>
            </g>
          </g>
          <g>
            <circle class="cls-5" cx="786.62" cy="539.02" r="0.61" transform="translate(-159.57 420.57) rotate(-27.28)"/>
            <circle class="cls-6" cx="786.79" cy="538.91" r="0.37" transform="translate(-159.5 420.64) rotate(-27.28)"/>
          </g>
          <g>
            <circle class="cls-5" cx="786.98" cy="536.74" r="0.61" transform="translate(-50.09 991.43) rotate(-62.81)"/>
            <circle class="cls-6" cx="786.87" cy="536.92" r="0.37" transform="translate(-50.31 991.43) rotate(-62.81)"/>
          </g>
        </g>
        <g>
          <g>
            <path class="cls-2" d="M780,547a2.3,2.3,0,0,1-.17-2.29,9.86,9.86,0,0,1,4.38-4.57c3.73-1.92,8.9-2.83,9.8-7.58.59-1.87,2.82-2.08,3.2-1.39s-1.54,2.19-1.38,4.16-3,7-6.92,8.75C785.46,545.59,781.56,549.25,780,547Z"/>
            <g class="cls-7">
              <path class="cls-4" d="M798.39,530.44a6.27,6.27,0,0,0-3.14,3.89c-1,3-3.73,5.76-8.26,7.74s-7.67,7.26-7.67,7.26l15.83-5.93Z"/>
            </g>
          </g>
          <g>
            <circle class="cls-5" cx="797" cy="532.49" r="0.86" transform="translate(-155.43 424.6) rotate(-27.28)"/>
            <circle class="cls-6" cx="797.25" cy="532.33" r="0.53" transform="translate(-155.33 424.7) rotate(-27.28)"/>
          </g>
          <g>
            <circle class="cls-5" cx="795.71" cy="536.19" r="0.86" transform="translate(-157.27 424.42) rotate(-27.28)"/>
            <circle class="cls-6" cx="795.96" cy="536.03" r="0.53" transform="translate(-157.17 424.52) rotate(-27.28)"/>
          </g>
          <g>
            <circle class="cls-5" cx="793.04" cy="540.44" r="0.86" transform="translate(-159.51 423.67) rotate(-27.28)"/>
            <circle class="cls-6" cx="793.29" cy="540.28" r="0.53" transform="translate(-159.41 423.77) rotate(-27.28)"/>
          </g>
        </g>
        <g>
          <path class="cls-2" d="M777,549.93s-.13-4.08,3.28-5.51A49.51,49.51,0,0,0,786,541.5c2.78-1.43,10.27,1.6,12.44-2.55a.86.86,0,0,0-1.11-1c-.62.25-.74-1,.68-1.55s5.26-.44,4,3.9-9.71,5.64-12.81,5.52C787.31,545.9,778.59,554.26,777,549.93Z"/>
          <g class="cls-8">
            <path class="cls-4" d="M802.83,536.66s.75,4-5.13,6-14.54-.05-19.86,10.1c0,0,10.21-4.28,10.64-4.71S805.38,546.5,802.83,536.66Z"/>
          </g>
          <g>
            <g>
              <circle class="cls-5" cx="801.54" cy="541.39" r="0.86" transform="translate(-46.32 1006.9) rotate(-62.81)"/>
              <circle class="cls-6" cx="801.38" cy="541.64" r="0.53" transform="translate(-46.63 1006.9) rotate(-62.81)"/>
            </g>
            <g>
              <circle class="cls-5" cx="797.59" cy="544.26" r="0.86" transform="translate(-51.02 1004.95) rotate(-62.81)"/>
              <circle class="cls-6" cx="797.43" cy="544.51" r="0.53" transform="translate(-51.33 1004.94) rotate(-62.81)"/>
            </g>
            <g>
              <circle class="cls-5" cx="792.26" cy="545.7" r="0.86" transform="translate(-55.19 1000.99) rotate(-62.81)"/>
              <circle class="cls-6" cx="792.1" cy="545.95" r="0.53" transform="translate(-55.5 1000.98) rotate(-62.81)"/>
            </g>
            <g>
              <circle class="cls-5" cx="787.74" cy="546.55" r="0.86" transform="translate(-58.4 997.43) rotate(-62.81)"/>
              <circle class="cls-6" cx="787.58" cy="546.8" r="0.53" transform="translate(-58.71 997.43) rotate(-62.81)"/>
            </g>
            <g>
              <circle class="cls-5" cx="783.9" cy="548.93" r="0.86" transform="translate(-62.61 995.31) rotate(-62.81)"/>
              <circle class="cls-6" cx="783.74" cy="549.18" r="0.53" transform="translate(-62.92 995.3) rotate(-62.81)"/>
            </g>
          </g>
        </g>
        <g>
          <g>
            <path class="cls-2" d="M770.5,554.8s-3.13-1.42-3.66,1.08a13.67,13.67,0,0,1-4.38,9.45c-1.92,2.18-2.72,3.71-.91,4.62,1.38.64,3.75-1,3.3-2.41-.06-.59-1.31.43-1.26-.25a.72.72,0,0,1,.5-.61c1.37-.45,4.92-.25,6-6.21C771.21,553.78,770.5,554.8,770.5,554.8Z"/>
            <g class="cls-9">
              <path class="cls-4" d="M765.49,567.23s-1.72,1.24-2.41.65.23-1.6,1.39-2.08c1.4-.58,8-4.43,7.75-12.52C775.55,551.93,773.77,566.09,765.49,567.23Z"/>
            </g>
          </g>
          <g>
            <circle class="cls-5" cx="766.2" cy="565.9" r="0.61" transform="translate(157.77 1298.78) rotate(-86.75)"/>
            <circle class="cls-6" cx="766.17" cy="566.1" r="0.37" transform="translate(157.53 1298.94) rotate(-86.75)"/>
          </g>
          <g>
            <circle class="cls-5" cx="764.27" cy="567.16" r="0.61" transform="translate(-156.51 807.87) rotate(-51.23)"/>
            <circle class="cls-6" cx="764.39" cy="566.99" r="0.37" transform="translate(-156.33 807.89) rotate(-51.23)"/>
          </g>
        </g>
        <g>
          <g>
            <path class="cls-2" d="M771.77,554.3a2.3,2.3,0,0,0-2.07,1,9.86,9.86,0,0,0-1.76,6.08c.21,4.19,2,9.12-1.65,12.28-1.32,1.44-.39,3.49.4,3.46s1.12-2.43,2.91-3.28,4.53-6.13,4.1-10.38C773.33,559.75,774.55,554.54,771.77,554.3Z"/>
            <g class="cls-10">
              <path class="cls-4" d="M766.7,578.53a6.27,6.27,0,0,1,1.8-4.67c2.1-2.32,3.12-6.11,2.56-11s2.44-10.28,2.44-10.28l2.8,16.67Z"/>
            </g>
          </g>
          <g>
            <circle class="cls-5" cx="767.78" cy="576.31" r="0.86" transform="translate(-27.1 37.99) rotate(-2.79)"/>
            <circle class="cls-6" cx="767.77" cy="576.6" r="0.53" transform="translate(-27.11 37.99) rotate(-2.79)"/>
          </g>
          <g>
            <circle class="cls-5" cx="770.34" cy="573.33" r="0.86" transform="translate(-26.95 38.11) rotate(-2.79)"/>
            <circle class="cls-6" cx="770.32" cy="573.63" r="0.53" transform="translate(-26.96 38.11) rotate(-2.79)"/>
          </g>
          <g>
            <circle class="cls-5" cx="772.67" cy="568.9" r="0.86" transform="translate(-26.73 38.22) rotate(-2.79)"/>
            <circle class="cls-6" cx="772.66" cy="569.19" r="0.53" transform="translate(-26.74 38.22) rotate(-2.79)"/>
          </g>
        </g>
        <g>
          <path class="cls-2" d="M767.59,555.93s-3.47-2.16-6.41.07a49.51,49.51,0,0,1-5.41,3.51c-2.63,1.69-3.77,9.69-8.45,9.48a.86.86,0,0,1-.3-1.46c.53-.41-.48-1.14-1.68-.19s-3,4.33,1.35,5.44,9.75-5.57,11.2-8.31C758.91,562.84,770.52,559.5,767.59,555.93Z"/>
          <g class="cls-11">
            <path class="cls-4" d="M743.13,571.64s3.05,2.63,7.77-1.42,7.26-12.6,18.71-12.1c0,0-8.82,6.68-9.42,6.84S750.37,578.78,743.13,571.64Z"/>
          </g>
          <g>
            <g>
              <circle class="cls-5" cx="747.87" cy="572.89" r="0.86" transform="translate(137.48 1290.49) rotate(-87.07)"/>
              <circle class="cls-6" cx="748.17" cy="572.88" r="0.53" transform="translate(137.77 1290.77) rotate(-87.07)"/>
            </g>
            <g>
              <circle class="cls-5" cx="752.34" cy="570.92" r="0.86" transform="translate(143.69 1293.07) rotate(-87.07)"/>
              <circle class="cls-6" cx="752.63" cy="570.9" r="0.53" transform="translate(143.98 1293.35) rotate(-87.07)"/>
            </g>
            <g>
              <circle class="cls-5" cx="756.26" cy="567.03" r="0.86" transform="translate(151.29 1293.29) rotate(-87.07)"/>
              <circle class="cls-6" cx="756.55" cy="567.02" r="0.53" transform="translate(151.58 1293.57) rotate(-87.07)"/>
            </g>
            <g>
              <circle class="cls-5" cx="759.26" cy="563.55" r="0.86" transform="translate(157.62 1292.99) rotate(-87.07)"/>
              <circle class="cls-6" cx="759.55" cy="563.53" r="0.53" transform="translate(157.91 1293.27) rotate(-87.07)"/>
            </g>
            <g>
              <circle class="cls-5" cx="763.25" cy="561.42" r="0.86" transform="translate(163.54 1294.96) rotate(-87.07)"/>
              <circle class="cls-6" cx="763.55" cy="561.4" r="0.53" transform="translate(163.83 1295.24) rotate(-87.07)"/>
            </g>
          </g>
        </g>
        <g>
          <path class="cls-2" d="M776.3,549.42s2.25-3,6.54-1,10,1.45,14.48.45,8.33-.27,8.46,4.36a2.94,2.94,0,0,1-3.77,2.85c-.53-.13-.07-.86.53-.93s-.33-2.71-4.3-2.31S785,560.05,780,556.69c0,0,5.56,5.81,1.47,16.26-.62,1.75-1.43,3.31-.63,4.84a1.92,1.92,0,0,0,1.36,1c.77.14,1.62.35.92,1.52-1,1.65-5,2.38-6.28-1.91s3.36-10.38-1.86-15.6a12,12,0,0,1-2.38-2.91s-1.38-2.23.06-5.62A14.28,14.28,0,0,1,776.3,549.42Z"/>
          <g class="cls-12">
            <path class="cls-4" d="M776.19,555.63a.72.72,0,0,1,.5-1.26,4.74,4.74,0,0,1,1.68.34c1.21.49,6.39,1.83,13.26-1.74s13.09-.41,10.91,2.17c-4.1.53-19.55,23.55-19.55,23.55a1.81,1.81,0,0,1-2.71-.59C777.59,573.63,786.91,565.43,776.19,555.63Z"/>
          </g>
          <g>
            <circle class="cls-5" cx="780.34" cy="557.47" r="0.86" transform="translate(-165.51 715.81) rotate(-45.05)"/>
            <circle class="cls-6" cx="780.53" cy="557.25" r="0.53" transform="translate(-165.3 715.88) rotate(-45.05)"/>
          </g>
          <g>
            <circle class="cls-5" cx="782.46" cy="561.45" r="0.86" transform="translate(-167.71 718.47) rotate(-45.05)"/>
            <circle class="cls-6" cx="782.64" cy="561.23" r="0.53" transform="translate(-167.49 718.54) rotate(-45.05)"/>
          </g>
          <g>
            <circle class="cls-5" cx="783.15" cy="566.85" r="0.86" transform="translate(-171.33 720.55) rotate(-45.05)"/>
            <circle class="cls-6" cx="783.33" cy="566.63" r="0.53" transform="translate(-171.11 720.61) rotate(-45.05)"/>
          </g>
          <g>
            <circle class="cls-5" cx="781.91" cy="572.04" r="0.86" transform="translate(-175.36 721.19) rotate(-45.05)"/>
            <circle class="cls-6" cx="782.1" cy="571.82" r="0.53" transform="translate(-175.15 721.26) rotate(-45.05)"/>
          </g>
          <g>
            <circle class="cls-5" cx="781.05" cy="577.61" r="0.86" transform="translate(-179.56 722.22) rotate(-45.05)"/>
            <circle class="cls-6" cx="781.23" cy="577.39" r="0.53" transform="translate(-179.34 722.29) rotate(-45.05)"/>
          </g>
          <g>
            <circle class="cls-5" cx="784.12" cy="557.64" r="0.86" transform="translate(-70.23 1000.23) rotate(-62.81)"/>
            <circle class="cls-6" cx="783.96" cy="557.89" r="0.53" transform="translate(-70.54 1000.23) rotate(-62.81)"/>
          </g>
          <g>
            <circle class="cls-5" cx="788.44" cy="556.67" r="0.86" transform="translate(-67.03 1003.55) rotate(-62.81)"/>
            <circle class="cls-6" cx="788.28" cy="556.92" r="0.53" transform="translate(-67.33 1003.54) rotate(-62.81)"/>
          </g>
          <g>
            <circle class="cls-5" cx="793.6" cy="554.56" r="0.86" transform="translate(-62.35 1006.99) rotate(-62.81)"/>
            <circle class="cls-6" cx="793.44" cy="554.81" r="0.53" transform="translate(-62.65 1006.98) rotate(-62.81)"/>
          </g>
          <g>
            <circle class="cls-5" cx="799.14" cy="553.01" r="0.86" transform="translate(-57.96 1011.08) rotate(-62.81)"/>
            <circle class="cls-6" cx="798.99" cy="553.26" r="0.53" transform="translate(-58.26 1011.08) rotate(-62.81)"/>
          </g>
        </g>
      </g>
      <g>
        <path class="cls-2" d="M743.71,524.3a27.69,27.69,0,0,1,3.57-3.58c13.13-11.31,26.83.74,28.69,6.19a46.38,46.38,0,0,1,1.56,5.84,4.4,4.4,0,0,1,3.56,6.62c2,2.49-2,7.94-5.26,11.4-.29.31-.62.66-1,1s-.73.72-1,1c-3.42,3.19-8.79,7.2-11.32,5.33a4.4,4.4,0,0,1-7-3.82c-1.58-.34-3.39-.68-5.53-1.35C744.46,551.28,732.82,537.79,743.71,524.3Z"/>
        <g>
          <g>
            <circle class="cls-13" cx="766.6" cy="535.39" r="5.2" transform="translate(-153.91 699.6) rotate(-45.05)"/>
            <circle class="cls-14" cx="766.89" cy="535.67" r="4.58" transform="translate(-154.03 699.89) rotate(-45.05)"/>
            <circle class="cls-15" cx="766.89" cy="535.67" r="3.61" transform="translate(-154.03 699.89) rotate(-45.05)"/>
            <circle class="cls-14" cx="764.64" cy="535.6" r="1.36" transform="translate(-154.64 698.28) rotate(-45.05)"/>
          </g>
          <g>
            <circle class="cls-13" cx="757.76" cy="544.24" r="5.2" transform="translate(-162.78 695.95) rotate(-45.05)"/>
            <circle class="cls-14" cx="758.05" cy="544.53" r="4.58" transform="translate(-162.89 696.23) rotate(-45.05)"/>
            <circle class="cls-15" cx="758.05" cy="544.53" r="3.61" transform="translate(-162.89 696.23) rotate(-45.05)"/>
            <circle class="cls-14" cx="755.8" cy="544.46" r="1.36" transform="translate(-163.5 694.62) rotate(-45.05)"/>
          </g>
          <g>
            <path class="cls-16" d="M773,540.74a13.93,13.93,0,0,1-9.68,9.69S776.61,554,773,540.74Z"/>
            <path class="cls-17" d="M774,539.88a1.71,1.71,0,0,1-2.24.82"/>
            <path class="cls-17" d="M762.4,551.54a1.71,1.71,0,0,0,.82-2.24"/>
            <g class="cls-18">
              <path class="cls-19" d="M773.87,547.57s-1.1-1.25-1.92-.42-.48,1.42-.48,1.42-.66-.41-1.56.49,1,2.49,1,2.49Z"/>
            </g>
          </g>
          <path class="cls-16" d="M762.79,527.16l-4,4A4.55,4.55,0,0,1,762.79,527.16Z"/>
          <path class="cls-16" d="M753.57,536.39l-4,4A4.55,4.55,0,0,1,753.57,536.39Z"/>
        </g>
      </g>
    </g>
  </g>
</svg>
