<svg id="Layer_2" data-name="Layer 2" xmlns="http://www.w3.org/2000/svg" xmlns:xlink="http://www.w3.org/1999/xlink" viewBox="0 0 503.83 419.53"><defs><style>.cls-1{fill:none;}.cls-2{fill:#fde4ba;}.cls-3{fill:#a56737;}.cls-4{fill:#997830;}.cls-5{fill:#a46636;}.cls-6{fill:#997831;}.cls-7{fill:#997931;}.cls-8{fill:#e0bc6c;}.cls-9{fill:#fefefe;}.cls-10{fill:#6a503c;}.cls-11{opacity:0.5;}.cls-12{fill:#fff;}.cls-13{fill:#4e2921;}.cls-14{clip-path:url(#clip-path);}.cls-15{fill:#503724;}.cls-16{fill:#4b3320;}</style><clipPath id="clip-path"><path id="SVGID" class="cls-1" d="M218.94,406.33a377.63,377.63,0,0,0,61.92-.19c2.46-.21,4.92-.32,7.38-.48.4-5.37,1.07-10.74,1.15-16.12.15-9.87.39-19.74-.21-29.61-.45-7.24-1.12-14.45-2.05-21.64a369.17,369.17,0,0,0-7.49-39.15,4.37,4.37,0,0,0-3.16-3.39A51.37,51.37,0,0,0,260.82,293a101.33,101.33,0,0,0-15.56.69,197.52,197.52,0,0,0-24.49,4.5c-.82.2-1.57.44-1.49,1.51.28,2.24-.14,4.46-.05,6.72.36,9.46.17,18.93.38,28.4.24,11.32.52,22.67-.24,34-.34,5.11-.25,10.26-.3,15.38C219,391.57,217.84,399,218.94,406.33Z"/></clipPath></defs><title>22_akili&amp;apos;s_house</title><path class="cls-2" d="M423.9,273.78c-.12,2.24.07,4.24-.6,6.13-.59,1.66-1.44,3-3.45,3.12-3.56-.17-5.89-2.58-8.38-4.66-2-1.66-3.87-3.44-5.66-5a28,28,0,0,1,.37,5.29c-.05,1.33.1,2.74-1.32,3.54s-2.74,0-3.91-.72c-3.63-2.22-6.33-5.49-9.3-8.46-.17-.18-.32-.38-.8-1a13.42,13.42,0,0,1,.09,6.13c-.69,2.45-2,3.14-4.29,2-3.7-1.81-6.16-5.06-8.87-8-1.49-1.59-2.79-3.35-4.52-4.95.21,1.52.4,3,.64,4.54a20.44,20.44,0,0,1,.09,5.79c-.38,3-2.06,3.67-4.61,2s-4.24-4-6.12-6.26c-1.14-1.35-2.21-2.77-3.51-4.1a60,60,0,0,1,.31,7.91,4.92,4.92,0,0,1-1.68,4.09,4.46,4.46,0,0,1-1.92-.27c-4.43-2.84-7-7.37-10.32-11.32.31,1.71.18,3.41.43,5.08a6,6,0,0,1,0,2.15c-.72,3.66-1.89,4.17-5,2.1-3.6-2.44-6.06-6-8.78-9.23-.29-.35-.45-.84-1.2-.93.21,1.46.4,2.86.63,4.26a9.76,9.76,0,0,1,0,3.77c-.65,2.74-1.93,3.25-4.33,1.8a33.31,33.31,0,0,1-7.5-6.86c-1.13-1.28-2.23-2.59-3.47-3.8.36,2.33,1.28,4.47,1.58,6.78.25,1.92.95,4.08-.89,5.38s-3.52-.12-5.12-1.08a54.59,54.59,0,0,1-10-8.21,11.47,11.47,0,0,0-1.81-1.81c.07,2.51.6,4.77.5,7.1-.15,3.37-1.7,4.33-4.63,2.74-3.42-1.86-5.75-4.94-8.41-7.65-1-1-1.81-2.1-2.8-3.27-.5,2.27-.94,4.38-1.41,6.48a7.11,7.11,0,0,1-.43,1.33c-1.48,3.32-3.41,3.68-5.91,1a28.37,28.37,0,0,1-4.51-7.06c-.41-.82-.84-1.64-1.4-2.73-.76,2.66-1.41,5.06-2.13,7.44a9.72,9.72,0,0,1-2,3.88c-1.4,1.56-2.49,1.48-3.7-.24-1.93-2.74-2.52-6-3.55-9.09-.12-.37-.12-.78-.61-1.07A50.77,50.77,0,0,1,255.7,276a3.79,3.79,0,0,1-.2.34c-1.07,1.33-1.87,3.17-3.92,3s-2.48-2.15-3.08-3.75a40.21,40.21,0,0,1-1.71-8.24c-1.49,1.42-2.14,3.15-3.1,4.66a26.38,26.38,0,0,1-4.44,5.63c-2.46,2.21-4.35,1.64-5.3-1.54-.8-2.7-.64-5.53-1.12-8.64-.83,1.72-1.53,3.21-2.27,4.68-1.17,2.33-2.27,4.7-4.25,6.49-1.73,1.58-2.82,1.43-3.87-.69-1.64-3.31-1.42-7-2.05-10.8-1.17,1.93-2.23,3.7-3.3,5.48a26.15,26.15,0,0,1-4.87,6.06c-2.08,1.88-3.57,1.45-4.27-1.28-.56-2.16-.2-4.38-.26-6.58,0-1.13,0-2.26,0-3.8-1.74,2.6-3.24,5-4.86,7.23a15.53,15.53,0,0,1-4.21,4.49c-1.85,1.17-3.17.7-3.74-1.43-.81-3-.28-6.11-.39-9.16,0-.67,0-1.34,0-2l.17-.07-.15.09c-2.09,2.92-3.75,6.13-6.07,8.88a22.74,22.74,0,0,1-2.63,2.74c-1.79,1.5-3.41.92-3.64-1.4a29.89,29.89,0,0,1,.09-7.38c.11-.7.16-1.4.3-2.62-1.72,2.36-3.06,4.3-4.51,6.16a19.78,19.78,0,0,1-4.86,4.71c-2.85,1.81-5.08,1.21-6.51-1.8a20.33,20.33,0,0,1-1.24-3.37c-.32-1.15-.48-2.34-.76-3.8-2.15,1.81-3.88,3.9-6,5.5a22.88,22.88,0,0,1-4.89,3.08c-2.68,1.08-4.07.11-4.18-2.77a23.64,23.64,0,0,1,.57-5.75c.16-.71.2-1.44.29-2.16l.16-.22-.21.17c-2.46,2.52-4.5,5.41-7.12,7.8a19.89,19.89,0,0,1-3.33,2.53c-2.23,1.31-4,.52-4.28-2.08a23.56,23.56,0,0,1,.49-7.34c.23-1.23.43-2.46.74-4.25a87.85,87.85,0,0,1-8.32,9.75,14.25,14.25,0,0,1-4,2.91c-2.3,1-3.61.18-4.23-2.26-.74-2.92,0-5.8.11-9.35l-4.09,4.7a26.24,26.24,0,0,1-7.64,6.63c-2.39,1.23-4.25.16-4.35-2.57a21.38,21.38,0,0,1,.28-6.18,2.41,2.41,0,0,0-.22-2.17c-3.36,2.88-6.3,6.15-9.89,8.66a9.14,9.14,0,0,1-4,2.06c-1.47.18-2.15-.32-2.26-2-.19-2.68,1-5.07,1.32-7.63a4.59,4.59,0,0,0,.26-.49s-.09-.08-.13-.12c-.09.17-.17.34-.25.5-1.64,1.16-2.64,2.92-4,4.3-1.54,1.54-3.15,3-4.73,4.5a.65.65,0,0,0-.2,0c-4.54,2.19-6,1.27-6.07-3.86,0-2,.3-3.94.48-6.06a13.11,13.11,0,0,0-3.09,2.77c-.4.35-.8.7-1.21,1-2.56,2.08-5,4.34-8,5.71-.87.39-1.92.92-2.79.05a3.06,3.06,0,0,1-.59-3,26.79,26.79,0,0,0,1.08-5l.17-.18-.19.16c-1.37,1.17-2.72,2.34-4.09,3.5a29,29,0,0,1-7.68,5c-2,.82-3.85.32-4.43-1.3a7.7,7.7,0,0,1-.48-4.31c.3-1.36.38-2.77.62-4.74-1.59,2-2.75,3.64-4,5.13a30.54,30.54,0,0,1-6.5,6.19c-2.05,1.29-3.29.7-3.91-1.65a8.64,8.64,0,0,1-.13-3.95c.29-1.53.35-3.11.57-5.22-1.47,2.25-2.61,4.11-3.86,5.89a47,47,0,0,1-6.8,8.35c-.84.74-1.78,1.74-2.93,1.25s-1.29-1.77-1.24-3a24.83,24.83,0,0,1,.3-4.37c.44-2,.62-4,.93-6.15a5.08,5.08,0,0,0-2.13,1.7,43.9,43.9,0,0,1-9.81,7.83c-1.21.65-2.56,1.22-3.74.26s-.85-2.28-.6-3.56C2,263.78,5.88,256,10.6,248.46a118.12,118.12,0,0,1,12.48-16.33c3.12-3.45,6.11-7.06,9.79-10,2.09-1.67,3.91-3.66,5.94-5.59-.82-.22-1.39-.38-2-.52-2.88-.7-3.69-2.18-2.74-5a14.28,14.28,0,0,1,.71-1.66c2.47-5.12,6.37-9.18,10.2-13.25,5.21-5.53,10.94-10.55,16.66-15.55q8.19-7.19,16.68-14c2.31-1.85,4.59-3.73,7.12-5.78a27,27,0,0,1-2.88-.39c-2.61-.66-3.14-1.69-2.32-4.22a17.39,17.39,0,0,1,2.7-4.88c5.17-7,11.6-12.85,18-18.68,2.12-1.92,4.27-3.81,6.47-5.64,4.9-4.09,9.85-8.13,14.77-12.2.58-.48,1.09-.91.41-1.81a5.24,5.24,0,0,1-.49-5.48,24.17,24.17,0,0,1,2.66-4.9,59.73,59.73,0,0,1,11-11.29,269.87,269.87,0,0,1,31.64-22L177.94,63c-1.33-.38-2.37-.61-3.37-1-3.79-1.34-5.17-4-4-7.83a17.93,17.93,0,0,1,4.09-6.57c7.46-8.31,16.57-14.63,25.78-20.76C207.77,22,215.28,17.36,222.92,13c4.57-2.61,9.05-5.44,13.82-7.64C241.19,3.28,246,2,250.6.21a3.2,3.2,0,0,1,3.14.56c10.54,6.66,20.88,13.61,31.09,20.75,9.83,6.88,19.44,14,28.58,21.79A67,67,0,0,1,324.5,54.79c2.78,3.82,2.51,5.87-1.11,8.21.06.11.09.27.18.34,7.81,6,15.3,12.42,22.73,18.87a280.19,280.19,0,0,1,20.48,19.71,68.41,68.41,0,0,1,10.05,13.14c2.49,4.44,2.27,7.24-1.09,10l6.36,4.49c8.6,6.07,17,12.35,25,19.18a88.24,88.24,0,0,1,9.7,9.24c1.91,2.2,3.84,4.45,4.72,7.35.37,1.26.41,2.42-.73,3.25s-.69,1.56.21,2.26c6.75,5.32,13.15,11,19.5,16.83a197.64,197.64,0,0,1,16.71,16.67c3.22,3.73,6.48,7.45,8.85,11.8,1.11,2,2.25,4.18,1.69,6.65-.38,1.67-1.81,2.44-3.43,3,2.78,2.48,5.33,4.81,7.94,7.08a192,192,0,0,1,24.57,25.14,36,36,0,0,1,6.39,11c1.45,4.43.17,7.26-4,8.72-2.27.79-4.59.32-6.84-.47a64.75,64.75,0,0,1-7.82-3.9c-.49.84,0,1.43.11,2.07.69,4.57-1.86,6.74-6.29,5.39a39,39,0,0,1-10.8-5.56c-1.27-.89-1.54-.83-1.78.86-.84,5.91-4.24,9-10.76,5.89a41.43,41.43,0,0,1-9.5-6.91c-1.86-1.66-1.82-1.71-2.65.76a17.6,17.6,0,0,1-2.22,4.47c-2.23,3.19-5.61,3.93-8.9,1.81a36.85,36.85,0,0,1-3.11-2.49ZM207.38,157.53c7.33-6.74,14.46-13.65,20.36-21.72a5.44,5.44,0,0,1,1.22-1.33c-2.88,9.52-6.78,18.65-10.65,27.81,6.87-8.24,13.63-16.51,19-25.84a237.69,237.69,0,0,1-5.83,23.64,54.73,54.73,0,0,0,4.91-8.13c1.59-2.85,3.08-5.77,4.55-8.68a59.09,59.09,0,0,0,3.89-9.4,9.14,9.14,0,0,1,.83,5.12,61.18,61.18,0,0,1-4.49,20.4,3.71,3.71,0,0,0-.6,2.47l-.19,0,.16-.07a26.4,26.4,0,0,0,3.84-6.27c3.54-6.77,7.13-13.54,9.33-20.94A87.45,87.45,0,0,1,251,155.94c.5.24.63-.16.78-.37,5.32-7.6,10.75-15.13,15.27-23.26a16.18,16.18,0,0,0,2-4.77c.1-.56.26-1.28-.38-1.63s-1.12.24-1.51.67c-2.1,2.29-3.45,5.06-5,7.73-1.11,2-2.17,3.94-3.36,6.11-.88-1.12-.5-2.1-.46-3,.18-3.67.43-7.33.55-11,0-1.16.28-2.87-.91-3.21s-1.62,1.34-2.22,2.25a68.28,68.28,0,0,0-6.1,12.14,4.67,4.67,0,0,1-1.21,1.9c.1-1.67.19-3.35.29-5a41,41,0,0,0-.14-9.39c-.11-.64-.05-1.47-.84-1.65s-1.09.62-1.42,1.16a79.8,79.8,0,0,0-5.76,12.1c-.22.55-.49,1.08-.74,1.62l-.26-.22c.66-4,1.36-8,1.94-12a43.48,43.48,0,0,0,.25-4.58c0-.32,0-.74-.45-.76a1,1,0,0,0-.63.42c-.49.79-1,1.59-1.4,2.42-2.42,4.95-4.81,9.91-7.36,15.17a3.71,3.71,0,0,1,.29-2.67,71.85,71.85,0,0,0,2.2-9.93c.12-.92.55-2.22-.57-2.7s-1.63.71-2.2,1.39c-3.5,4.2-6.57,8.72-9.76,13.15l-.32-.27c1.44-4.71,3.44-9.24,4.59-14,.26-1.12,1.15-2.88.22-3.28-1.25-.53-1.84,1.33-2.56,2.27a78.34,78.34,0,0,1-11.35,12.64c-.33.28-.58.73-1.27.66.79-3.3,2-6.5,2.19-9.91a10.62,10.62,0,0,0,.06-1.59c-.26-2.24-1.31-2.76-3.27-1.64a24,24,0,0,0-4.23,3.35,180.81,180.81,0,0,0-16.37,17.3,3.62,3.62,0,0,1-1.66,1.49c1-5.69,2-11.21,3-16.78-.76,0-.78.54-1,.88-4.48,8.27-9,16.53-12.12,25.43a18.57,18.57,0,0,0-1,3.87c-.2,1.65.71,2.25,2.19,1.5a23.8,23.8,0,0,0,5.48-4.32c5.94-5.68,11.06-12.14,16.76-18,1.72-1.77,3.51-3.48,5.3-5.17.46-.44,1.09-1.19,1.68-.77s.07,1.23-.2,1.82a82.59,82.59,0,0,1-6,10.58c-3.36,5.22-6.82,10.37-10.23,15.56-.29.44-.51.92-.76,1.39l-.14.41.34-.2c6.51-6.06,12.68-12.44,18.77-18.9,3.7-3.93,7.24-8,10.85-12l.06.06a3.44,3.44,0,0,1-.7,2c-4,8.11-8,16.2-12.68,23.92a9.62,9.62,0,0,0-.52,1.07l-.28.49-.18.37.33-.21ZM469.94,264.85l-.6-.61c-4.92-5.35-9.87-10.67-14.76-16.05a70.15,70.15,0,0,1-7.38-9.2c-.4-.62-1.24-1.41-.57-2.08s1.52,0,2.2.41c5.22,2.88,9.91,6.54,14.65,10.11C471,253.08,478.3,259,486.33,264a30.69,30.69,0,0,0,3,1.55,1.31,1.31,0,0,0,1.51,0c.5-.48.06-1-.17-1.46a40.4,40.4,0,0,0-5.14-7.12c-8.28-9.89-17.31-19.08-26.24-28.35a1,1,0,0,0-1.1-.23q6.92,9.18,13.82,18.37l-.33.39c-6.09-5-11.92-10.24-18.26-14.9-2.73-2-5.52-3.94-8.31-5.89A14.64,14.64,0,0,0,442.9,225c-1.26-.6-2.64-1.37-3.93-.35s-1.12,2.47-1,3.89c.38,3.54,1.75,6.81,2.74,10.19l-.32.3c-4.62-3.66-8.55-8-12.64-12.23-.95-1-2.06-2.86-3.18-2.21s0,2.53.41,3.78c1.62,5,4.17,9.5,6.16,14.3l-.22.22c-3.95-4.22-7.75-8.6-11.94-12.6a19.38,19.38,0,0,0-2.74-2.31c-1.38-.9-2.1-.49-2.14,1.15a22.52,22.52,0,0,0,1.5,7.19c.71,2.28,1.51,4.54,2.27,6.8l-.32.28c-3.38-5.36-6.74-10.73-10.15-16.07-.59-.92-1.16-2.56-2.3-2.15-1.31.46-.63,2.14-.5,3.23a110.66,110.66,0,0,0,2.87,13.48,2.88,2.88,0,0,1,0,1.67c-.85-1.6-1.71-3.21-2.55-4.81a63.06,63.06,0,0,0-6.33-10c-.48-.61-1-1.43-1.92-1.12s-.87,1.1-1,1.83c-.81,4.53-.09,9,.24,13.56a13.38,13.38,0,0,1,.09,1.81,93.52,93.52,0,0,0-8.33-13.61c-.86-1.1-1.83-2.12-2.79-3.14-.4-.42-.83-1-1.51-.75s-.85,1-.88,1.67a53.45,53.45,0,0,0,.18,7.8c.24,2.26.36,4.52.51,6.78a1,1,0,0,1-.53,1.09,22.44,22.44,0,0,1-3-3.92c-2-2.76-3.91-5.58-6.15-8.16a10.86,10.86,0,0,0-2.51-2.27c-.47-.29-1-.53-1.47-.1a1.3,1.3,0,0,0-.4,1.45,8.82,8.82,0,0,0,1.17,2.53c3.69,5.91,8.34,11.09,12.93,16.29a130,130,0,0,0,9.23,10l.23.3c.23-.2.11-.34-.09-.45a79.4,79.4,0,0,1-3.51-18.2,23.94,23.94,0,0,1-.07-3.4,78.71,78.71,0,0,0,7.59,14.17,90.07,90.07,0,0,0,9.29,12.85c.15-1.34-.65-2.28-1.17-3.32a45.19,45.19,0,0,1-5.1-20.56,21.16,21.16,0,0,1,.16-2.39c.05-.37.15-.86.59-.94s.63.42.78.76c3.05,7,7.7,12.92,12,19.1a50.3,50.3,0,0,0,4.95,6.51l.31.25-.13-.43a217.64,217.64,0,0,1-7.47-21.64c-.2-.7-.32-1.42-.47-2.13l.32-.27c6.83,9.52,15.38,17.44,23.72,25.56a2.62,2.62,0,0,0,.52.3l.44.35.32.23-.18-.36-.28-.51c-4.47-7.65-8.73-15.41-12.48-23.44a18.64,18.64,0,0,1-1.54-4.59c1,1.07,1.93,2.18,2.94,3.21,6.38,6.49,13.69,11.87,20.9,17.35,1.54,1.16,3.14,2.23,4.71,3.34l.49.32.42.39.18.14s0-.08-.06-.1a.68.68,0,0,0-.15,0c0-.28-.08-.43-.38-.42l-.23-.57c-6.36-8.18-12.09-16.79-17.61-25.54-.39-.62-.7-1.28-1.05-1.92l.23-.18q9.69,8.82,20,16.9c5.77,4.52,11.42,9.2,17.43,13.4l.7.5.53.28c0,.17.08.32.3.22l-.23-.3Zm-126.23-4.46c-6.13-7.95-11.74-16.26-17.08-24.74-.46-.73-.86-1.5-1.28-2.25l.32-.28c11.62,10.58,24.06,20.17,36.53,29.71.53.4,1.1.73,1.66,1.09l.45.34a.43.43,0,0,0,.57.21l.1.31c.34-.27,0-.22-.13-.28l-.35-.45-.37-.44c-4.53-5.34-9.08-10.67-13.59-16a112.77,112.77,0,0,1-7.56-9.85,21,21,0,0,1-1.13-1.89c-.24-.46-.66-1-.26-1.47.55-.59,1.13,0,1.59.3a106.17,106.17,0,0,1,12.67,9.79c5.91,5,11.62,10.25,17.94,14.75a29.91,29.91,0,0,0,5.49,3.29c.92.4,2,.89,2.82.13s.46-1.88.17-2.84a35.12,35.12,0,0,0-3-6.74,234.58,234.58,0,0,0-13.64-21.21,2,2,0,0,0-1.23-.82c.64,2.76,1.35,5.5,1.91,8.28S368,245,368,248.08l0,0a238.87,238.87,0,0,0-22-18.18,49.27,49.27,0,0,0-6.22-4c-1.21-.61-2.53-1.24-3.78-.47s-1,2.39-.86,3.68a29.61,29.61,0,0,0,2.06,7.47,6.18,6.18,0,0,1,.72,2.25h0c-3.25-1.21-5.68-3.61-8.3-5.72a84.25,84.25,0,0,1-7.72-7.28c-.56-.57-1.09-1.18-1.7-1.7s-1.27-1.67-2.1-1.1-.21,1.62.09,2.44c.73,2,1.41,4,2.24,6,1,2.39,2.17,4.72,3.25,7.09.26.59.75,1.12.53,2-.94,0-1.27-.84-1.74-1.37-3.53-4-7.29-7.81-11.13-11.52-.8-.77-1.75-2-2.86-1.45-1.33.61-.75,2.18-.57,3.27a56.26,56.26,0,0,0,3,10.15c.27.75.48,1.52.72,2.28l-.26.23-9.06-14.38a13,13,0,0,0-1-1.51c-.81-1-1.34-3-2.69-2.42-1.12.47-.48,2.44-.3,3.7a122.11,122.11,0,0,0,2.85,13.09,3,3,0,0,1,.1,1.93c-.44-.84-.75-1.43-1.05-2a74.14,74.14,0,0,0-7.87-13c-.49-.63-1-1.48-1.85-1.33-1,.19-1.05,1.23-1.2,2.09-.73,4.48-.09,8.92.29,13.37a3.88,3.88,0,0,1-.11,1.73l-.9-1.74a64.85,64.85,0,0,0-9.42-14.36c-.57-.61-1.12-1.58-2.11-1.24s-.89,1.53-.93,2.43c-.2,4.09.38,8.13.63,12.19.05.85.35,1.72-.27,2.51-.84-.19-1.09-.94-1.51-1.51l-7.94-10.81a7.06,7.06,0,0,0-.93-1c-1.73-1.55-2.54-1.46-3.89.41-3.11,4.3-4,9.4-5.25,14.37-.41,1.68-.68,3.4-1.12,5.62-.67-2.18-1.22-3.93-1.74-5.68-1.6-5.37-3.23-10.73-5.23-16-.32-.84-.45-2-1.58-2.11s-1.74.89-2.27,1.7c-2.26,3.51-3.57,7.45-4.95,11.35l-1.09,3.16c-.19-5-.35-9.3-.53-13.65,0-.71.26-1.66-.51-2s-1.47.43-2,1a67.36,67.36,0,0,0-8.23,10.57,208.27,208.27,0,0,0-13.74,22.8,5.68,5.68,0,0,0-1.08,3.26c1.49-.58,2.21-1.82,3.07-2.87,3.1-3.76,5.82-7.82,9.38-11.2a16.36,16.36,0,0,1,4.19-3.06c2.43-1.13,4.27-.45,5.36,2,1.26,2.87,1.35,6,1.53,9,.09,1.49,0,3,0,4.48l.48.07c.37-1.24.77-2.46,1.12-3.7.67-2.45,1.56-4.82,2.42-7.2,1.51-4.19,4.66-6.72,8.4-8.72,1.7-.91,1.81.22,1.76,1.4-.2,4.67-.39,9.34-.69,14-.1,1.42.12,2.8.15,4.2,0,.38,0,.87.46,1s.81-.36,1-.75a36.36,36.36,0,0,0,2.57-6.07c1.88-5.42,3.72-10.85,5.6-16.27a29.64,29.64,0,0,1,1.3-3.14c.37-.77.75-1.75,1.75-1.73s1.48,1,1.82,1.91c.56,1.42,1.09,2.87,1.52,4.33,1.47,5,2.49,10.11,4.36,15a16.28,16.28,0,0,0,2.22,4.23c.45.58,1,1.21,1.81,1s1-1,1.15-1.73a30.77,30.77,0,0,0,.36-7c-.11-1.67-.24-3.33-.37-5.1-.57.56-.07,1.45-.66,1.92-1.29-1.12-2.41-3.82-2.73-6.75l14,15.55a87.28,87.28,0,0,1-3.7-22.71c4.4,10.63,10.6,19.5,17.17,28.15l.51-.28c-.64-1.29-1.28-2.58-1.91-3.87a44.2,44.2,0,0,1-5-20.81c0-.54,0-1.07.1-1.6s.09-1,.63-1.12.71.49.89.9c4.19,8.88,10.28,16.52,16,24.43a1.11,1.11,0,0,0,1.12.65A161.55,161.55,0,0,1,304,238.77c4.49,6.59,10.15,12.1,15.67,17.72a97.05,97.05,0,0,0,9.44,8.92c.12.21.26.37.54.26l.09.48.16,0-.28-.39-.36-.45c-3.87-6.68-7.68-13.39-11-20.35A39.56,39.56,0,0,1,315,237.4a3,3,0,0,0,.26-.24c7.92,8.89,17.65,15.62,27,22.78a11.82,11.82,0,0,0,1.19.73l.51.29.33.2-.22-.32Zm-189.35-1.53c.56.27.89-.17,1.22-.44,8-6.26,16-12.39,23.12-19.67a42.66,42.66,0,0,1,3.35-3.38c-3.6,9.68-8.46,18.74-13.41,27.75l-.13.43.36-.2c8.35-8.13,16.64-16.31,23.17-26.05.07-.1.2-.15.48-.36a38,38,0,0,1-1.86,7.37,166,166,0,0,1-5.58,16.22,7,7,0,0,0-.25,1.14l-.32.33.19.18.16-.49c1.42-1.16,2.21-2.8,3.24-4.26,3.64-5.2,7.16-10.47,10.34-16,.73-1.27,1.33-2.61,2.06-3.88.45-.77.43-2.38,1.31-2.19,1.21.26.73,1.8.75,2.79a46,46,0,0,1-4.72,20.68c-.54,1.14-1,2.31-1.52,3.47l-.11.43.34-.19c3.68-4,6.29-8.75,9.09-13.34a83,83,0,0,0,7.13-13.65c-.09,1.57-.13,3.15-.27,4.73s-.4,3.3-.59,4.95c-.46,4.1-1.75,8-2.58,12l-.31.09c.26.33.22,0,.28-.12,4.58-4.67,8.64-9.78,12.79-14.83a81.68,81.68,0,0,0,8.34-11.49c.67-1.17,2.23-2.8.78-3.89s-2.52.91-3.42,1.9c-2.86,3.11-5,6.77-7.37,10.22a5.81,5.81,0,0,1-1.73,2,2.91,2.91,0,0,1-.36-2.24c.21-4.19.83-8.37.61-12.58,0-.86.1-1.93-.83-2.29s-1.52.61-2.07,1.24a62.07,62.07,0,0,0-8.29,12.94,11.13,11.13,0,0,1-1.67,2.66c0-.92.07-1.84.17-2.75a65.65,65.65,0,0,0,.23-11.39,6.4,6.4,0,0,0-.33-1.55c-.5-1.55-1.31-1.25-2.14-.3a29.61,29.61,0,0,0-3.71,5.45c-1.79,3.26-3.5,6.56-5.51,9.77.61-2.69,1.26-5.36,1.81-8.06.52-2.55,1-5.1,1.35-7.68.13-.91.61-2.29-.51-2.69-1-.33-1.46,1-1.92,1.73-3.05,5-6,10.07-9.07,15.1-.28.47-.34,1.16-1.3,1.34.79-2.44,1.57-4.76,2.29-7.09a25.74,25.74,0,0,0,1.42-6.82c0-.66.13-1.43-.6-1.79s-1.3.19-1.78.6c-3.38,2.85-6.18,6.28-9.14,9.53-1.5,1.66-2.9,3.41-4.39,5.16-.37-1,.22-1.65.53-2.36a110.65,110.65,0,0,0,5.38-13.34,6,6,0,0,0,.31-1.16c0-.56.4-1.29-.24-1.63s-1,.27-1.37.62c-.68.64-1.3,1.34-1.94,2-4.59,5-9.33,9.72-15.15,13.27l-.25-.25c.69-2.57,1.87-5,2.3-7.65a19.29,19.29,0,0,0,.33-2.37c.15-3.52-1.24-4.45-4.37-2.68-5.73,3.23-10.7,7.52-15.64,11.82-3.76,3.27-7.39,6.71-11.53,10.47,1.35-6.14,2.6-11.8,3.84-17.43-.42-.26-.54.06-.66.23a223.85,223.85,0,0,0-14.16,23.25,26,26,0,0,0-2.36,5.94c-.19.85-.55,1.92.38,2.6s1.68.1,2.46-.24a33.22,33.22,0,0,0,6.85-4.5c7.63-6,14.42-12.93,21.89-19.1a48.67,48.67,0,0,1,5.6-4.2c.45-.28,1-.73,1.46-.37s.09,1.11-.18,1.61a78.56,78.56,0,0,1-8,11.28c-4.2,5.28-8.52,10.46-12.78,15.69-.24.3-.42.66-.64,1l-.18.39.4-.17c6.23-4.56,12.07-9.62,18-14.52q9.63-7.94,18.66-16.56a2.18,2.18,0,0,0,.28.25c-4,7.32-8.6,14.28-13.3,21.16-1.47,2.15-3,4.22-4.54,6.33l-.4.4a.71.71,0,0,0-.14.1s0,.07,0,.1l.12-.22C154.25,259.28,154.43,259.2,154.36,258.86ZM376.84,130.58q1.31,7.18,2.6,14.35c.11.58.19,1.17.33,2a6.61,6.61,0,0,1-2.36-2.19,161.83,161.83,0,0,0-18.07-17.83,20.46,20.46,0,0,0-3.28-2.28c-1.86-1-2.91-.37-3.14,1.74a13.83,13.83,0,0,0,.56,4.74c.54,2.25,1.18,4.48,1.94,7.31-1.17-.95-2-1.55-2.72-2.21A90.16,90.16,0,0,1,341.52,124c-.56-.72-1.11-2.14-2.17-1.59-.73.38-.19,1.72,0,2.61a123.84,123.84,0,0,0,4.41,12.84c.28.75.5,1.52.74,2.27a1.8,1.8,0,0,1-.2.19c-3.39-4.37-6.55-8.91-10.18-13.09-.76-.87-1.5-2.36-2.8-1.71-1.1.56-.54,2-.38,3.15a69.29,69.29,0,0,0,2.25,9.52,3.12,3.12,0,0,1,.31,2c-.82-.16-.85-.94-1.12-1.47-2.35-4.56-4.66-9.15-7-13.72a15.13,15.13,0,0,0-.93-1.55c-.22-.33-.48-.76-.91-.68-.62.12-.46.73-.47,1.16a55.68,55.68,0,0,0,1.05,8.92c.41,2.76,1.44,5.42,1.39,8.26l0,0c-1.42-2.18-2.09-4.69-3.22-7a71.62,71.62,0,0,0-4-7.37c-.36-.56-.72-1.27-1.49-1.12s-.88,1-1,1.76c-.68,5.13.05,10.23.41,15.33H316a63.84,63.84,0,0,0-8.31-16.33c-.4-.55-.79-1.47-1.66-1.15s-.7,1.26-.75,1.94c-.3,4,.34,8,.5,12a9.56,9.56,0,0,1-.06,3.24c-.78-.07-.88-.75-1.15-1.2-2.09-3.49-4.15-7-6.24-10.5a10.32,10.32,0,0,0-1.25-1.8c-1.29-1.39-2-1.27-2.95.36-2.82,4.91-3.5,10.45-4.57,15.86-.23,1.18-.37,2.37-.6,3.87a37,37,0,0,1-1.77-6.43c-1.27-5-2.42-10-4-14.87-.25-.8-.28-2-1.3-2s-1.48,1-1.88,1.85a69.26,69.26,0,0,0-4.27,12.47c-.1.37-.24.74-.36,1.11h-.64c0-4.32,0-8.65,0-13,0-.62.33-1.52-.43-1.8s-1.28.55-1.72,1.09a65.94,65.94,0,0,0-6.29,10,223.82,223.82,0,0,0-11.51,23.55,6.91,6.91,0,0,0-.8,3,8,8,0,0,0,2.59-3c2.66-4,4.92-8.26,8.19-11.84a15.75,15.75,0,0,1,1.42-1.41c3-2.5,5.1-1.83,6,2,1,4.12.92,8.34.91,12.67.62-.31.65-.81.75-1.27.68-3.13,1.47-6.22,2.39-9.29a15.07,15.07,0,0,1,6.51-8.81c.44-.27.85-.83,1.4-.58s.55,1,.52,1.61c-.17,4-.33,8-.56,12a32.11,32.11,0,0,0,0,6.2c0,.35,0,.88.5,1s.68-.4.8-.75c.71-2,1.46-4,2-6.06,1.67-5.83,3.22-11.7,4.91-17.52.38-1.28.55-3.32,2.08-3.31s1.64,2,2,3.34c1.34,5.43,2.57,10.89,3.89,16.33a16.36,16.36,0,0,0,2.44,5.88c.3.41.63,1,1.27.76.48-.16.61-.66.71-1.13a29.42,29.42,0,0,0,.21-9.77c-.17-1.33-1.85-2.34-2.08-4a28.27,28.27,0,0,1-.62-3.7l6.88,9.53c.75,1,1.47,2.06,2.26,3.06.34.44.61,1.26,1.33.93s.17-1,.06-1.46a86.49,86.49,0,0,1-1.85-11.64,42.9,42.9,0,0,1-.16-5.9,129.15,129.15,0,0,0,12.6,24c-1.11-4.26-2.63-8.36-3.35-12.67s-1.36-8.43-.5-12.67l.52-.09c.55,1.4,1.05,2.82,1.68,4.18,3,6.42,6.55,12.53,10.12,18.64.25.43.47,1.2,1.07,1s.28-1,.12-1.56c-1.82-5.79-3.44-11.64-4.8-17.55a3.58,3.58,0,0,1-.08-2.34,116.58,116.58,0,0,0,9.84,14c2.41,3,4.87,6,7.33,9,.36.44.77,1.24,1.39.8s0-1.1-.23-1.62c-3.2-6.9-6.21-13.88-8.88-21a10.25,10.25,0,0,1-.89-3.06l.24-.21c6.32,8.49,14.14,15.49,22.13,22.4-4.78-8.71-9.74-17.26-13.92-26.22l.29-.26c6.89,7.74,14.27,15,21.7,22.2q3.31,3.21,6.7,6.34c.47.44.85,1.06,1.68,1.13.29-.93-.47-1.44-.88-2-5.18-7.46-10.53-14.8-15-22.71-.68-1.18-2.13-3.07-1.31-3.64,1.24-.86,2.41,1.05,3.44,2,6.35,5.65,11.78,12.21,17.78,18.2a61.27,61.27,0,0,0,7.16,6.41c1.25.9,2.7,2.57,4.19,1.42,1.33-1,.26-2.89-.19-4.29a98.43,98.43,0,0,0-7.4-16.18c-1.91-3.59-3.73-7.23-6-10.62l-.37-.43-.13-.52c-.07.05-.2.14-.19.15a3.7,3.7,0,0,0,.25.43A.3.3,0,0,0,376.84,130.58Zm-257.43-6.43-.23-.1-.06.54c-.31-.11-.4.1-.47.33l-.57.67A352.66,352.66,0,0,0,95.23,158,23.39,23.39,0,0,0,94,160.44c-.32.71-1,1.65-.34,2.21s1.59-.23,2.23-.7q2.19-1.6,4.22-3.38c7-6.11,13.23-13,20.08-19.29a56,56,0,0,1,5.68-4.75c.51-.35,1.15-1.07,1.75-.53s0,1.25-.3,1.81c-2.28,4.71-5.36,8.91-8.34,13.18-2.48,3.56-5.1,7-7.62,10.55a2.71,2.71,0,0,0-.89,2.22c10-9.72,19.37-19.42,28.23-29.67l.29.28a261.89,261.89,0,0,1-12.86,24.71c-.37.62-.69,1.27-1,1.91l-.18.39.39-.19a198.16,198.16,0,0,0,14.61-14.52A84.53,84.53,0,0,0,147,136c-2.84,9.5-6.69,18.58-10.56,27.71,6.91-8.26,13.7-16.59,19.25-26-.78,3.34-1.48,6.71-2.36,10-1.13,4.25-2.41,8.47-3.6,12.7a8.87,8.87,0,0,0-.2,1.37l-.33.38.21.18.14-.55c3-4.16,5.14-8.84,7.58-13.33a79.94,79.94,0,0,0,5.78-12.85c1,.78.73,1.72.75,2.48a54.84,54.84,0,0,1-4.33,22.61,3.73,3.73,0,0,0-.58,2.28l-.26.15c.27.3.22,0,.27-.14,1.37-1.07,1.93-2.68,2.71-4.12,3.94-7.34,7.85-14.7,10.37-23,.37,2.65-.17,5-.31,7.28a66.48,66.48,0,0,1-.89,7.15c-.39,2.33-.95,4.63-1.44,7,.69-.08.87-.57,1.13-.93,4.93-7.06,9.94-14.07,14.24-21.55a23.51,23.51,0,0,0,2.58-5.63c.16-.6.39-1.41-.36-1.8s-1.26.23-1.68.73a53.15,53.15,0,0,0-5.1,8.14,42.18,42.18,0,0,1-3.5,5.88c-.18-4.13.32-7.68.48-11.23a23.07,23.07,0,0,0-.14-5.19c-.08-.46-.07-1-.61-1.16s-.85.29-1.14.65a34.87,34.87,0,0,0-4.15,6.84c-1.39,2.85-2.64,5.78-4.07,8.94,0-2.18-.11-4.06,0-5.93a36.8,36.8,0,0,0-.08-8c-.12-.83.09-2-1-2.18s-1.3,1-1.73,1.7A84.54,84.54,0,0,0,158.46,139a2.76,2.76,0,0,1-.92,1.35c.62-3.42,1.26-6.85,1.83-10.28a32.14,32.14,0,0,0,.64-6.56c0-.44.17-1.06-.42-1.2s-.81.4-1,.8c-.64,1.16-1.26,2.35-1.84,3.55-1.89,3.9-3.75,7.82-5.65,11.72-.25.49-.29,1.19-1.21,1.42.66-2.61,1.33-5.1,1.91-7.61.38-1.63.66-3.27.9-4.92.12-.85.29-2-.53-2.41s-1.59.53-2.08,1.18c-2.38,3.05-4.7,6.16-7,9.26-1,1.39-2,2.81-3,4.22a3.2,3.2,0,0,0-.27-.25c1.47-4.9,3.55-9.6,4.74-14.59a6.57,6.57,0,0,0,.06-3.59c-4.41,5-7.59,10.47-12,14.93l-.33-.29c.63-3.13,1.66-6.19,1.95-9.39.16-1.64.67-3.62-1-4.62s-3,.57-4.16,1.56c-7.1,5.93-13.25,12.79-19.42,19.64-.36.39-.74.76-1.11,1.14l-.36-.33q4.47-7.68,8.94-15.38c.47-.8.87-1.64,1.3-2.47.13-.26.27-.52.41-.78l.3-.5Zm-73,101.59c-.31-.24-.54-.1-.74.18s-.4.28-.12.51c0,0,.25-.16.39-.25Zm230-161.42.15-.16-.26-.14a.82.82,0,0,0-.32-.87c-3.65-8-7.3-16-10.3-24.23a4,4,0,0,1-.51-2.68c1.77,2.13,3.38,4.21,5.16,6.14a194.27,194.27,0,0,0,17.53,16.9l.37.2-.14-.43c-5-8.1-9.58-16.44-13.9-24.93-.33-.65-.58-1.33-.87-2l.23-.23c5,5.5,10.09,11,15.48,16.12,5,4.78,9.79,9.79,15.08,14.26l.63.58.23.28c.25-.23.08-.32-.13-.4a.78.78,0,0,0-.42-.77c-3.76-5.5-7.55-11-11.29-16.51A88.56,88.56,0,0,1,287,35.36c-.38-.75-1-1.48-.56-2.53a5,5,0,0,1,2.49,1.5c5.74,4.93,10.68,10.65,15.86,16.13,4.27,4.52,8.55,9,13.08,13.27a8.34,8.34,0,0,0,2.75,1.91,5.74,5.74,0,0,0-1.13-2.71,161.13,161.13,0,0,0-32.72-37.11c-.21-.17-.41-.34-.63-.49-1.27-.82-2.62-2.21-4.13-1.19s-1,2.79-.75,4.3a56.29,56.29,0,0,0,2.35,9.06c-1,0-1.42-.68-1.93-1.1a83.07,83.07,0,0,1-12-12.9c-.59-.75-1.23-2.21-2.11-1.77-1.13.56-.19,1.94,0,2.88a102.59,102.59,0,0,0,3.89,11.56c.35.93.64,1.88,1,2.83l-.35.3c-2.93-3.81-5.85-7.63-8.81-11.41a19.71,19.71,0,0,0-2.45-2.64c-1-.89-1.7-.6-1.83.77a14.87,14.87,0,0,0,.55,4.55,58.09,58.09,0,0,0,2.64,9.33c-1.13,0-1.2-.85-1.48-1.39-2.4-4.69-4.75-9.42-7.17-14.09-.42-.82-.75-2.29-1.86-1.93-.84.26-.39,1.67-.33,2.56a100.67,100.67,0,0,0,2.31,14c.08.39.48.79.11,1.29-.82-.44-.87-1.31-1.16-2A75.13,75.13,0,0,0,246.48,26c-.34-.53-.65-1.37-1.45-1.13s-.74,1-.86,1.68c-.72,4.06-.11,8.12,0,12.19A6.26,6.26,0,0,1,244,41c-.72-1.59-1.43-3.19-2.17-4.78A55.19,55.19,0,0,0,236,26c-.43-.56-.85-1.47-1.65-1.27s-.85,1.27-.89,2c-.22,4.21.39,8.4.54,12.6,0,.84.32,1.7-.46,2.61-1.76-3-3.42-6-5.19-8.84A48.67,48.67,0,0,0,225,28.37c-.54-.68-1.25-1.83-2.37-.49-.55.64-.59-.22-.76-.4-1.64-1.73-2.64-1.68-3.83.45-2,3.55-2.67,7.52-3.5,11.43-.35,1.68-.64,3.37-1.07,5-.18-3.57-.09-7.15-.52-10.7a43.22,43.22,0,0,0-1.2-6.48,2.48,2.48,0,0,0-3.35-1.93,17.06,17.06,0,0,0-5.7,2.85,96.89,96.89,0,0,0-10.85,9.17A11,11,0,0,0,190,40.15c-2.43,4.22-4.75,8.5-6.85,12.91a3.77,3.77,0,0,0-.68,2.44c1.74-1.64,3.44-3.22,5.1-4.83a40.34,40.34,0,0,1,4.74-4.31c.58-.41,1.22-1.08,2-.67s.48,1.27.37,2c-.51,3.15-1,6.31-1.49,9.48a3.82,3.82,0,0,0,.32,2.79,6.39,6.39,0,0,0,1.42-3c2.05-6.13,3.72-12.4,6.41-18.3.92-2,1.87-4,3.82-5.27.5-.32,1.06-.86,1.63-.44s.26,1,.17,1.53c-.57,3.08-1.23,6.14-1.75,9.23a70.2,70.2,0,0,0-1,14.55,4,4,0,0,0,0,.6c.15,1,.13,2.25,1.18,2.58s1.75-.8,2.27-1.6c3.42-5.25,5.4-11.14,7.34-17,.81-2.47,1.52-5,2.34-7.43.27-.8.53-1.9,1.54-1.88s1.22,1.1,1.49,1.91c1.58,4.76,2.26,9.74,3.47,14.59a33.48,33.48,0,0,0,2.76,8.32c.39.69.78,1.67,1.64,1.57,1.08-.12,1-1.34,1.09-2.11a101.31,101.31,0,0,0,.06-11.3c-.6.32-.1,1.15-1,1.47-2-4.48-2.61-9.3-3.7-14a290.79,290.79,0,0,0,17,23.94A94.93,94.93,0,0,1,238.75,36,89.42,89.42,0,0,0,245,50.36C246.91,54,248.94,57.5,251,61a4.87,4.87,0,0,0,1.66,2.19l.18.28c.14-.24.07-.33-.2-.25.27-1-.36-1.8-.71-2.64a54,54,0,0,1-4.51-22.16,4,4,0,0,1,.71-2.87c3.64,9.34,8.84,17.69,14.06,26.06-2.29-7.63-4.4-15.25-6.1-23,.75-.24.8.28,1,.56,5.21,8.6,11.72,16.21,18.14,23.88a2.84,2.84,0,0,0,.47.37l.63.58Zm71.56,100,.21.48c.07-.06.2-.16.19-.17a2.78,2.78,0,0,0-.3-.4.89.89,0,0,0-.39-.85c-.14-.18-.26-.52-.53-.2s.09.44.21.65S347.6,164.34,347.94,164.33Zm-35-7.37-.16.48a4.07,4.07,0,0,0,.53.7c.39-.2.2-.49,0-.76Zm21.13,5.16a.94.94,0,0,0-.55-1.32c-.55.29-.25.56,0,.83C333.6,162,333.92,162.4,334.06,162.12ZM377,163.76c.31-.27,0-.24-.14-.29a1.41,1.41,0,0,0-1.2-1.32c.14.8.45,1.25,1.23,1.29ZM182.71,87.57c1.48-4.42,3-8.83,4.4-13.26a35.44,35.44,0,0,0,.85-3.7.71.71,0,0,0-.3-.87.66.66,0,0,0-.86.28c-.65.76-1.29,1.53-1.88,2.33a80.66,80.66,0,0,1-10.29,11.7c-.63.58-1.3,1.09-2.43,2A58.46,58.46,0,0,0,174.61,76a8.39,8.39,0,0,0,.13-1c0-1.13.1-2.38-1-3.05s-2.08.16-2.9.77a99.38,99.38,0,0,0-13.18,12.52c-2.57,2.79-5.07,5.65-7.6,8.47l-.2-.2c1.07-3.7,2.72-7.19,4-10.82.26-.73.78-1.41.55-2.27l.34-.26-.17-.2-.15.48a165.88,165.88,0,0,0-9.75,14.34,86.28,86.28,0,0,0-7.24,12.89c-.36.86-1.24,2-.31,2.74s1.87-.29,2.65-.85a89.84,89.84,0,0,0,10.11-9.09c4-3.91,7.7-8.15,12-11.74.79-.66,1.8-2,2.64-1.34,1,.77,0,2.08-.49,3-3.05,6.39-7,12.26-10.8,18.21a5.85,5.85,0,0,0-1.26,2.24l-.27.22c.3.25.29,0,.3-.19.9-.11,1.3-.88,1.85-1.42,9.14-9.15,18.34-18.23,26.7-28.12.25-.3.47-.68,1-.61.36.71-.2,1.25-.47,1.81-3.87,8-7.86,15.87-12.47,23.45-.24.39-.41.82-.61,1.23-.09.09-.25.23-.24.25.22.29.28,0,.37-.12a2,2,0,0,0,.53-.26c6.64-6.48,13.44-12.81,19.14-20.19a22.37,22.37,0,0,1,2.27-2.75c-2.73,9.32-6.63,18.17-10.26,27.17a189,189,0,0,0,18.64-25.11C197.14,94,195,101.53,193,109.13a106.46,106.46,0,0,0,7.1-12.27,111,111,0,0,0,6.1-13c1.19,3,.59,6.1.31,9.14a60.72,60.72,0,0,1-1.77,9.22c-.76,3-2.13,5.85-3.16,9,2.56-2.07,10.46-18.09,13.28-26.84a30.9,30.9,0,0,1-.28,7.19c-.27,2.25-.49,4.51-.86,6.74s-.89,4.58-1.35,6.86c-.18.19-.33.51-.12.63s.28-.23.37-.41c6.18-8.37,12.23-16.84,16.93-26.18.57-1.14,1.63-2.86.36-3.61s-2.09,1.14-2.8,2.13a88,88,0,0,0-5.35,9.16c-.54,1-1.1,1.95-1.86,3.29,0-3.1-.12-5.78,0-8.43.14-2.34.23-4.67.16-7,0-.77,0-1.83-.82-2.07s-1.18.74-1.59,1.32a68.77,68.77,0,0,0-7,13.69,3.9,3.9,0,0,1-1,1.61c.08-1.32.13-2.64.23-4a50.45,50.45,0,0,0-.07-10.78c-.1-.63,0-1.51-.87-1.62s-1.08.7-1.41,1.24A76.34,76.34,0,0,0,202,85.73a8.28,8.28,0,0,1-1,2c.47-5.84,2.32-11.54,1.64-17.56-3.86,5.71-6.39,12.06-9.6,18.4a3.93,3.93,0,0,1,.32-2.67c1-3.68,2.12-7.31,2.3-11.14,0-.63.26-1.47-.5-1.8s-1.37.36-1.83.89c-3.17,3.71-6,7.7-8.78,11.69-.53.75-1.09,1.49-1.64,2.24ZM46.43,253.92c8.38-6.81,16.59-13.81,24.38-21.29l.3.3a249.4,249.4,0,0,1-17,26.16,3,3,0,0,0-.63,1.28C63.19,253,73,245.76,81,236.44l0,0a3.59,3.59,0,0,1-.59,2.47,242.74,242.74,0,0,1-11.75,23.63c-.37.66-1.06,1.25-.7,2.39,8.26-8.46,16.59-16.67,23.51-26.63a42.9,42.9,0,0,1-1.85,7.37c-1.65,5.83-3.75,11.52-5.84,17.21-.26.13-.44.45-.21.57s.28-.26.37-.44A174.23,174.23,0,0,0,95.1,246.66a52,52,0,0,0,5-9.34,8.6,8.6,0,0,1,.84-1.18c1,3.52.59,6.62.17,9.73a51.59,51.59,0,0,1-2.29,9.5c-1,3-2.59,5.8-4,9,3.08-2.15,10.69-14.65,16.76-27.32a77,77,0,0,1-3.38,21.34c-.07.09-.23.25-.22.27.27.32.27,0,.35-.15,4.26-4.24,8-8.94,11.81-13.57a86.64,86.64,0,0,0,9.21-12.59c.68-1.21,2.32-2.92.62-4-1.36-.88-2.47,1.07-3.39,2.11a106.32,106.32,0,0,0-7,9.76,8.81,8.81,0,0,1-2,2.53c-.71-1-.38-2.09-.31-3.11.25-3.66.75-7.31.64-11,0-1.16.31-2.79-1-3.18-1.12-.34-1.84,1.13-2.53,2a68.07,68.07,0,0,0-8,12.89,5.48,5.48,0,0,1-1.29,1.83c.15-2.74.36-5.47.44-8.21a29.06,29.06,0,0,0-.23-6.59c-.12-.63-.19-1.44-.93-1.66s-1.32.5-1.75,1.06a71.16,71.16,0,0,0-7.11,12c-.43.89-.87,1.77-1.3,2.66l-.4-.11c.48-2.13.93-4.26,1.44-6.38a81.13,81.13,0,0,0,1.7-9.44,6.58,6.58,0,0,0,.06-1c0-.59,0-1.33-.66-1.51s-.94.45-1.21.88q-3.22,5.19-6.41,10.4c-1.49,2.44-2.94,4.91-4.41,7.36l-.2-.18c1.13-4.11,2.86-8,3.51-12.29.19-1.21.85-2.78-.47-3.47s-2.17.77-3,1.58C79.88,231.56,76,236.11,72,240.64l-.31-.28c1.74-4.47,4-8.74,5.5-13.3q.54-1.62.93-3.27c.11-.42.25-1-.22-1.28s-.91.08-1.23.41q-1.91,1.92-3.74,3.9A115.29,115.29,0,0,1,62.79,237l-.33-.32c.79-2.88,2-5.68,2.35-8.67.24-1.86,1-4.17-.86-5.4s-3.59.31-5.12,1.34c-8.65,5.86-16.43,12.79-24.16,19.77-.65.58-1.32,1.13-2,1.69l-.29-.3q5.94-8.29,11.89-16.59c.37-.52,1-.94,1-1.72-.46-.3-.71.08-.94.33-9.35,10.1-18.76,20.14-27,31.14A34.31,34.31,0,0,0,15,261.86c-.28.48-.79,1.12-.3,1.64s1.26.2,1.85-.11c1.12-.6,2.25-1.18,3.3-1.88,8.17-5.47,15.61-11.88,23.33-17.94a104.54,104.54,0,0,1,10.89-7.83,8.71,8.71,0,0,1,1.79-.87c.9-.29,1.37.12,1,1a18.19,18.19,0,0,1-1.72,2.92c-4.45,6.2-9.6,11.81-14.63,17.52a82.6,82.6,0,0,0-6.07,6.89l-.21.33.33-.2C38.75,260.5,42.51,257.11,46.43,253.92ZM321.32,109.68c.27-.22.08-.3-.12-.38-4.25-7-8.35-14.12-12.09-21.42a51.56,51.56,0,0,1-2.68-5.78c9.9,10.69,20.4,20.71,31,30.63l.38-.34c-2.94-4.21-5.89-8.41-8.79-12.63a157.38,157.38,0,0,1-8.59-13.52c-.42-.76-.75-1.56-1.1-2.36-.14-.3-.25-.68.06-.91a.73.73,0,0,1,.92.12c.85.64,1.71,1.28,2.51,2C327.5,89.26,331.68,94,336,98.51c3.86,4.07,7.68,8.2,12.2,11.56,1.09.81,2.41,2.19,3.68,1.35,1.44-.94.54-2.72.12-4.06-1.95-6.28-5.12-12-8.16-17.8-1.73-3.3-3.6-6.52-5.41-9.78l-.55.14q1.51,8.17,3,16.33l-.34.15c-1.69-1.85-3.4-3.69-5.09-5.55a140.78,140.78,0,0,0-15.14-14.57,19.27,19.27,0,0,0-2.95-2.06c-1.95-1-3.09-.45-3.26,1.77A18.45,18.45,0,0,0,315,82.1c.46,1.71.95,3.42,1.47,5.28a5.73,5.73,0,0,1-2.67-1.73,92,92,0,0,1-11.31-12.44c-.5-.63-1.05-1.83-1.91-1.39s-.28,1.57-.08,2.38a118,118,0,0,0,4.46,13c.28.75.49,1.52.74,2.28l-.22.22c-3.3-4.27-6.59-8.56-9.93-12.8-.75-1-1.55-2.59-2.89-2s-.6,2.24-.43,3.45a71.86,71.86,0,0,0,2.39,9.91c.18.65.71,1.29.22,2.32-1.72-3.44-3.33-6.71-5-10q-1.9-3.74-3.92-7.43c-.26-.47-.55-1.26-1.29-1-.58.23-.37,1-.35,1.45.14,4.83,1.28,9.5,2.18,14.22a4.42,4.42,0,0,1,.14,2.15,26.81,26.81,0,0,1-2.29-4.92,70.52,70.52,0,0,0-4.72-9c-.38-.59-.73-1.49-1.61-1.22s-.82,1.16-.89,1.87a72.33,72.33,0,0,0,.16,12.4,19.57,19.57,0,0,1,.09,2.55,106.34,106.34,0,0,0-6.83-13.52,27.93,27.93,0,0,0-2.23-3.07c-.84-1-1.44-.77-1.69.49a20.53,20.53,0,0,0-.15,5.59c.23,3.43.42,6.87.65,10.78-1.57-1.16-2-2.52-2.68-3.63-1.8-2.89-3.49-5.84-5.24-8.76a6.64,6.64,0,0,0-1.08-1.43c-1.09-1-1.86-1.33-2.84.43-2.82,5.09-3.49,10.73-4.62,16.27-.23,1.08-.36,2.19-.62,3.82-1.36-5.41-2.56-10.31-3.82-15.2-.6-2.32-1.32-4.61-2-6.91-.19-.64-.35-1.44-1.09-1.56s-1.26.68-1.6,1.3c-2,3.59-3,7.53-4.16,11.44a6.19,6.19,0,0,1-1.08,2.8c-.19-4.58.07-9-.4-13.5-.05-.49.2-1.18-.45-1.4s-1.09.38-1.46.83a50.37,50.37,0,0,0-5.16,7.85,247.43,247.43,0,0,0-12.59,25.25,10.13,10.13,0,0,0-1.08,3.78,6.19,6.19,0,0,0,2.2-2.45c2.45-3.58,4.51-7.42,7.21-10.83a16.8,16.8,0,0,1,3.83-3.79c2-1.29,3.59-.85,4.5,1.35a19.52,19.52,0,0,1,1.27,6.85c.09,2.38,0,4.77.21,7.17.91-1.15.9-2.56,1.28-3.85.63-2.1,1.15-4.24,1.74-6.36A14.54,14.54,0,0,1,244,92.35c.44-.26.79-.85,1.39-.53s.39,1,.37,1.45c-.18,4.87-.36,9.74-.6,14.61a19.31,19.31,0,0,0,.42,5.14,6.21,6.21,0,0,0,1.79-3.25c2.3-6.9,4-14,6-21a31.65,31.65,0,0,1,1.13-3c.2-.5.5-1,1.12-1s.87.54,1.1,1a29.76,29.76,0,0,1,1.86,6.32c1.12,4.94,2,10,3.57,14.76a11.33,11.33,0,0,0,1.87,3.74c.8,1,1.41.87,1.81-.37a14.31,14.31,0,0,0,.42-4.37c0-2.46,0-4.92,0-7.63-.63.66-1.16,1.5-1.53.19-.53-1.84-1.45-3.6-1.31-5.6l0,0,9,12.14a20.68,20.68,0,0,0,2.16,2.55,96.3,96.3,0,0,1-2.79-21.69c3.13,9.15,7.46,17.06,12,24.85A7,7,0,0,0,285.4,113l.3.46c.22-.25.15-.46-.07-.66-1.35-4-3.16-7.92-4-12.14a57.44,57.44,0,0,1-1.36-11.9,7,7,0,0,1,.72-3.34c3.7,9.38,8.8,17.68,14,25.94-2.21-7.66-4.38-15.27-6.05-23.11.95.08,1,.81,1.24,1.25A176,176,0,0,0,309,113.84c.09.18.11.57.39.39s0-.42-.21-.54c-3.4-7.44-6.81-14.88-9.73-22.53-.6-1.6-1.16-3.22-1.75-4.85.79-.21.89.27,1.1.55,6.3,8.45,14.21,15.33,21.88,22.43a1.08,1.08,0,0,0,.37.13A3.46,3.46,0,0,0,321.32,109.68Zm3.27,54.25c.21-.62-.1-1-.67-1.39C323.86,163.32,324.06,163.7,324.59,163.93Zm-93.43-2.73a2,2,0,0,0,.12-.34s-.08-.08-.13-.13l-.13.32Zm128.73-2a2,2,0,0,0-.3-.2c-.24-.1-.32.05-.26.24s.19.11.29.16ZM337.77,79.13l.07,0-.06-.1Zm68.58,187.24s.09-.09.09-.13-.06-.07-.1-.11l-.1.12Zm12.39-.48h.1l-.06-.13ZM124.53,160h-.09l.07.1Zm93.4,3s.09-.09.09-.13-.07-.08-.1-.11l-.1.12Zm-38.49-50.89s.11-.1.11-.15-.08-.09-.13-.14l-.13.16Zm-10.48,46h.11l-.06-.13Z"/><path class="cls-3" d="M96.27,395.22c-1.63-5.42-2.48-11-3.62-16.53-2.14-10.35-3.93-20.76-5.51-31.2-1.29-8.48-2.4-17-3.39-25.49Q82,306.83,81.12,291.6c-.33-5.84-.72-11.71-.51-17.58a.65.65,0,0,0-.2,0c-4.54,2.19-6,1.27-6.07-3.86,0-2,.3-3.94.48-6.06a13.11,13.11,0,0,0-3.09,2.77c.06,9.89,0,19.78.2,29.66.32,17.63,1,35.24,2.35,52.83a403,403,0,0,0,5.53,44.06,3.83,3.83,0,0,0,2.53,3.26c4.6,1.7,9.07.69,13.52-.66C96.26,395.94,96.21,395.54,96.27,395.22Z"/><path class="cls-3" d="M419.85,283a6.66,6.66,0,0,0-.43,2.35c-.22,10.86-1.25,21.66-2.35,32.47-1,9.8-2.29,19.56-3.76,29.29q-2.93,19.33-7,38.48c-.53,2.52-1.15,5-1.73,7.55-.31,3-.31,3,2.72,3.67a20.46,20.46,0,0,0,8.91.43c2.51-.53,3.95-1.68,4.47-4.5a441.68,441.68,0,0,0,5.91-51c1.36-20.44,1.92-40.91,2-61.4,0-.2,0-.4.06-.6l-4.78-6c-.12,2.24.07,4.24-.6,6.13C422.71,281.57,421.86,283,419.85,283Z"/><path class="cls-3" d="M239.91,407.2a.17.17,0,0,1,0,.19c-.23.1-.54.53-.56-.15Z"/><path class="cls-4" d="M343.43,260.67a11.82,11.82,0,0,1-1.19-.73c-9.38-7.16-19.11-13.89-27-22.78l-.34-.2c0,.15.06.29.08.44a39.56,39.56,0,0,0,3.23,7.51c3.35,7,7.16,13.67,11,20.35l-.15.15a97.05,97.05,0,0,1-9.44-8.92c-5.52-5.62-11.18-11.13-15.67-17.72a161.55,161.55,0,0,0,8.17,24.44,1.11,1.11,0,0,1-1.12-.65c-5.68-7.91-11.77-15.55-16-24.43-.18-.41-.29-1-.89-.9s-.59.66-.63,1.12-.09,1.06-.1,1.6a44.2,44.2,0,0,0,5,20.81c.63,1.29,1.27,2.58,1.91,3.87l-.51.28c-6.57-8.65-12.77-17.52-17.17-28.15a87.28,87.28,0,0,0,3.7,22.71l-14-15.55c.32,2.93,1.44,5.63,2.73,6.75.59-.47.09-1.36.66-1.92.13,1.77.26,3.43.37,5.1a30.77,30.77,0,0,1-.36,7c-.12.69-.28,1.54-1.15,1.73s-1.36-.44-1.81-1a16.28,16.28,0,0,1-2.22-4.23c-1.87-4.87-2.89-10-4.36-15-.43-1.46-1-2.91-1.52-4.33-.34-.87-.73-1.88-1.82-1.91s-1.38,1-1.75,1.73a29.64,29.64,0,0,0-1.3,3.14c-1.88,5.42-3.72,10.85-5.6,16.27a36.36,36.36,0,0,1-2.57,6.07c-.22.39-.44.91-1,.75s-.46-.63-.46-1c0-1.4-.25-2.78-.15-4.2.3-4.66.49-9.33.69-14,0-1.18-.06-2.31-1.76-1.4-3.74,2-6.89,4.53-8.4,8.72-.86,2.38-1.75,4.75-2.42,7.2-.35,1.24-.75,2.46-1.12,3.7l-.48-.07c0-1.5.07-3,0-4.48-.18-3.06-.27-6.16-1.53-9-1.09-2.48-2.93-3.16-5.36-2a16.36,16.36,0,0,0-4.19,3.06c-3.56,3.38-6.28,7.44-9.38,11.2-.86,1.05-1.58,2.29-3.07,2.87a5.68,5.68,0,0,1,1.08-3.26,208.27,208.27,0,0,1,13.74-22.8A67.36,67.36,0,0,1,236,228c.55-.55,1.16-1.36,2-1s.48,1.3.51,2c.18,4.35.34,8.69.53,13.65l1.09-3.16c1.38-3.9,2.69-7.84,4.95-11.35.53-.81,1.08-1.85,2.27-1.7s1.26,1.27,1.58,2.11c2,5.24,3.63,10.6,5.23,16,.52,1.75,1.07,3.5,1.74,5.68.44-2.22.71-3.94,1.12-5.62,1.24-5,2.14-10.07,5.25-14.37,1.35-1.87,2.16-2,3.89-.41a7.06,7.06,0,0,1,.93,1l7.94,10.81c.42.57.67,1.32,1.51,1.51.62-.79.32-1.66.27-2.51-.25-4.06-.83-8.1-.63-12.19,0-.9-.14-2.05.93-2.43s1.54.63,2.11,1.24a64.85,64.85,0,0,1,9.42,14.36l.9,1.74a3.88,3.88,0,0,0,.11-1.73c-.38-4.45-1-8.89-.29-13.37.15-.86.18-1.9,1.2-2.09.87-.15,1.36.7,1.85,1.33a74.14,74.14,0,0,1,7.87,13c.3.6.61,1.19,1.05,2a3,3,0,0,0-.1-1.93,122.11,122.11,0,0,1-2.85-13.09c-.18-1.26-.82-3.23.3-3.7,1.35-.57,1.88,1.44,2.69,2.42a13,13,0,0,1,1,1.51l9.06,14.38c.07.31.12.63.5.72l.14.52c.06-.07.17-.14.17-.2s-.1-.35-.34-.29a.92.92,0,0,0-.21-1c-.24-.76-.45-1.53-.72-2.28a56.26,56.26,0,0,1-3-10.15c-.18-1.09-.76-2.66.57-3.27,1.11-.52,2.06.68,2.86,1.45,3.84,3.71,7.6,7.5,11.13,11.52.47.53.8,1.35,1.74,1.37.22-.86-.27-1.39-.53-2-1.08-2.37-2.23-4.7-3.25-7.09-.83-2-1.51-4-2.24-6-.3-.82-.77-2-.09-2.44s1.48.56,2.1,1.1,1.14,1.13,1.7,1.7a84.25,84.25,0,0,0,7.72,7.28c2.62,2.11,5.05,4.51,8.3,5.72l.15.23c0-.05,0-.12,0-.14a.67.67,0,0,0-.17-.08,6.18,6.18,0,0,0-.72-2.25,29.61,29.61,0,0,1-2.06-7.47c-.13-1.29-.5-2.84.86-3.68s2.57-.14,3.78.47a49.27,49.27,0,0,1,6.22,4,238.87,238.87,0,0,1,22,18.18l.11.12-.13-.09c-.05-3-1.18-5.85-1.76-8.78s-1.27-5.52-1.91-8.28a2,2,0,0,1,1.23.82,234.58,234.58,0,0,1,13.64,21.21,35.12,35.12,0,0,1,3,6.74c.29,1,.66,2.08-.17,2.84s-1.9.27-2.82-.13a29.91,29.91,0,0,1-5.49-3.29c-6.32-4.5-12-9.75-17.94-14.75a106.17,106.17,0,0,0-12.67-9.79c-.46-.28-1-.89-1.59-.3-.4.44,0,1,.26,1.47a21,21,0,0,0,1.13,1.89,112.77,112.77,0,0,0,7.56,9.85c4.51,5.36,9.06,10.69,13.59,16l-.27.31c-.56-.36-1.13-.69-1.66-1.09-12.47-9.54-24.91-19.13-36.53-29.71l-.42-.2c0,.16.07.32.1.48.42.75.82,1.52,1.28,2.25,5.34,8.48,10.95,16.79,17.08,24.74Zm-18.8-19.53c.1,0,.22-.07.33-.12a1.71,1.71,0,0,0-.22-.25c-.14-.13-.25-.09-.3.11S324.55,241.12,324.63,241.14Z"/><path class="cls-5" d="M358.38,281.18,376,283.27c.9.1,1.93.14,1.67-1.22-.37-2,.88-2.36,2.36-2.64,3.17-.61,5.46.39,6,2.84a3.52,3.52,0,0,0,1.26,2.09c1.53,1.37,1.92,6.18.3,7-2.32,1.16-1.43,2.88-1.32,4.35.52,7,1.39,13.91,1.79,20.89a85.87,85.87,0,0,1-1.8,21.85c-.23,1.13-.2,1.89,1,2.58,1.75,1,2,3.51,1.2,6.39-.54,1.89-2,1.24-3.1,1.23s-1.71.21-1.71,1.52c0,1.52-.88,2.25-2.46,2.2a10.14,10.14,0,0,1-3.14-.53c-1.13-.39-1.92-.94-1.4-2.34.42-1.11,0-1.55-1.18-1.59-5.93-.22-11.85-.7-17.78-.73-9.41-.07-18.82-.41-28.23.23-1.62.11-2.28.48-1.69,2.09.44,1.24-.08,1.9-1.22,2.27a9.65,9.65,0,0,1-2.72.59c-2.44.05-3-.32-3.07-2.79-.07-1.55-.91-2-2.06-1.57-1.69.58-2.13-.36-2.48-1.59a10.25,10.25,0,0,1-.56-2.53c0-1.22.25-2.61,1.75-2.74s1.1-.89.94-1.73a101.14,101.14,0,0,1-2-18c-.09-8.61,1.21-17.13,1.78-25.69.1-1.46,2-4.22-1.62-4.64-.14,0-.21-.46-.34-.7a8.81,8.81,0,0,1-.77-2.67c-.3-1.78-.13-3.25,2-3.55.7-.1.79-.48.9-1.07.64-3.45,5.26-5.22,7.95-3a1.22,1.22,0,0,1,.42.84c-.08,1.53.85,1.34,1.84,1.15a85.51,85.51,0,0,1,14.89-1.49q6.5-.06,13,.41A4.46,4.46,0,0,0,358.38,281.18Zm20.08,28.59q.15-8.56-.32-17.13c-.09-1.65-1.22-1.58-2.2-1.62q-6.56-.33-13.13-.48a45.9,45.9,0,0,1-7.13-.32l-8.08,0c-6.59,0-13.18-.18-19.76.32-1.11.08-1.46.41-1.51,1.52-.28,5.65-.44,11.31-.34,17,0,2.82,0,5.64,0,8.47-.16,6.84.46,13.66.73,20.49.06,1.43,1,1.2,1.83,1a91.36,91.36,0,0,1,18.6-1.59l8.86.43c6.66.78,13.33,1.54,20,2.34,1.11.13,1.61-.24,1.66-1.38.1-2.59.39-5.18.37-7.77,0-4.4.68-8.78.38-13.18C378.45,315.15,378.45,312.46,378.46,309.77Z"/><path class="cls-4" d="M263.26,92.42s-.11.09-.11.14c0,.21.05.35.3.32-.14,2,.78,3.76,1.31,5.6.37,1.31.9.47,1.53-.19,0,2.71,0,5.17,0,7.63a14.31,14.31,0,0,1-.42,4.37c-.4,1.24-1,1.33-1.81.37a11.33,11.33,0,0,1-1.87-3.74c-1.61-4.81-2.45-9.82-3.57-14.76a29.76,29.76,0,0,0-1.86-6.32c-.23-.49-.47-1-1.1-1s-.92.52-1.12,1a31.65,31.65,0,0,0-1.13,3c-2,7-3.7,14.05-6,21a6.21,6.21,0,0,1-1.79,3.25,19.31,19.31,0,0,1-.42-5.14c.24-4.87.42-9.74.6-14.61,0-.5.21-1.15-.37-1.45s-.95.27-1.39.53a14.54,14.54,0,0,0-6.67,9.13c-.59,2.12-1.11,4.26-1.74,6.36-.38,1.29-.37,2.7-1.28,3.85-.19-2.4-.12-4.79-.21-7.17a19.52,19.52,0,0,0-1.27-6.85c-.91-2.2-2.5-2.64-4.5-1.35a16.8,16.8,0,0,0-3.83,3.79c-2.7,3.41-4.76,7.25-7.21,10.83a6.19,6.19,0,0,1-2.2,2.45,10.13,10.13,0,0,1,1.08-3.78,247.43,247.43,0,0,1,12.59-25.25A50.37,50.37,0,0,1,234,76.51c.37-.45.76-1.07,1.46-.83s.4.91.45,1.4c.47,4.45.21,8.92.4,13.5a6.19,6.19,0,0,0,1.08-2.8c1.13-3.91,2.18-7.85,4.16-11.44.34-.62.74-1.43,1.6-1.3s.9.92,1.09,1.56c.68,2.3,1.4,4.59,2,6.91,1.26,4.89,2.46,9.79,3.82,15.2.26-1.63.39-2.74.62-3.82,1.13-5.54,1.8-11.18,4.62-16.27,1-1.76,1.75-1.45,2.84-.43a6.64,6.64,0,0,1,1.08,1.43c1.75,2.92,3.44,5.87,5.24,8.76.69,1.11,1.11,2.47,2.68,3.63-.23-3.91-.42-7.35-.65-10.78a20.53,20.53,0,0,1,.15-5.59c.25-1.26.85-1.5,1.69-.49a27.93,27.93,0,0,1,2.23,3.07,106.34,106.34,0,0,1,6.83,13.52,19.57,19.57,0,0,0-.09-2.55,72.33,72.33,0,0,1-.16-12.4c.07-.71.1-1.62.89-1.87s1.23.63,1.61,1.22a70.52,70.52,0,0,1,4.72,9,26.81,26.81,0,0,0,2.29,4.92,4.42,4.42,0,0,0-.14-2.15c-.9-4.72-2-9.39-2.18-14.22,0-.5-.23-1.22.35-1.45.74-.29,1,.5,1.29,1q2,3.69,3.92,7.43c1.66,3.25,3.27,6.52,5,10,.49-1,0-1.67-.22-2.32a71.86,71.86,0,0,1-2.39-9.91c-.17-1.21-.9-2.85.43-3.45s2.14,1,2.89,2c3.34,4.24,6.63,8.53,9.93,12.8.07.13.09.37.32.23,0,0-.07-.29-.1-.45-.25-.76-.46-1.53-.74-2.28a118,118,0,0,1-4.46-13c-.2-.81-.68-2,.08-2.38s1.41.76,1.91,1.39a92,92,0,0,0,11.31,12.44,5.73,5.73,0,0,0,2.67,1.73c-.52-1.86-1-3.57-1.47-5.28a18.45,18.45,0,0,1-.87-6.11c.17-2.22,1.31-2.82,3.26-1.77a19.27,19.27,0,0,1,2.95,2.06,140.78,140.78,0,0,1,15.14,14.57c1.69,1.86,3.4,3.7,5.09,5.55l.34-.15q-1.51-8.16-3-16.33l.55-.14c1.81,3.26,3.68,6.48,5.41,9.78,3,5.78,6.21,11.52,8.16,17.8.42,1.34,1.32,3.12-.12,4.06-1.27.84-2.59-.54-3.68-1.35-4.52-3.36-8.34-7.49-12.2-11.56-4.32-4.55-8.5-9.25-13.19-13.43-.8-.71-1.66-1.35-2.51-2a.73.73,0,0,0-.92-.12c-.31.23-.2.61-.06.91.35.8.68,1.6,1.1,2.36A157.38,157.38,0,0,0,329,99.76c2.9,4.22,5.85,8.42,8.79,12.63l-.38.34c-10.59-9.92-21.09-19.94-31-30.63a51.56,51.56,0,0,0,2.68,5.78c3.74,7.3,7.84,14.4,12.09,21.42l-.13.12a1.08,1.08,0,0,1-.37-.13c-7.67-7.1-15.58-14-21.88-22.43-.21-.28-.31-.76-1.1-.55.59,1.63,1.15,3.25,1.75,4.85,2.92,7.65,6.33,15.09,9.73,22.53l-.18.15a176,176,0,0,1-18.83-24.33c-.28-.44-.29-1.17-1.24-1.25,1.67,7.84,3.84,15.45,6.05,23.11-5.19-8.26-10.29-16.56-14-25.94a7,7,0,0,0-.72,3.34,57.44,57.44,0,0,0,1.36,11.9c.82,4.22,2.63,8.1,4,12.14l-.23.2a7,7,0,0,1-1.61-2.24c-4.58-7.79-8.91-15.7-12-24.85a96.3,96.3,0,0,0,2.79,21.69,20.68,20.68,0,0,1-2.16-2.55l-9-12.14Zm25.53-5.21a2.19,2.19,0,0,0,.12.33c0-.05.1-.11.1-.15a2,2,0,0,0-.12-.34C288.85,87.11,288.79,87.16,288.79,87.21ZM287,90.86c0-.08-.11-.15-.17-.23s-.1.11-.09.15a2.24,2.24,0,0,0,.11.38C286.91,91.05,287,91,287,90.86Zm8.42.37c0-.07-.1-.14-.16-.21s-.1.1-.1.14a2.67,2.67,0,0,0,.11.34C295.33,91.4,295.42,91.32,295.42,91.23Zm10.71-9.59s.11-.1.1-.15-.08-.09-.12-.13l-.11.15Zm-8.46,3.93.11,0-.08-.13Zm8.51,5.06h-.12l.07.14Z"/><path class="cls-4" d="M325.58,142.29c.39-.52.38-.82-.1-1,.06-2.83-1-5.49-1.38-8.25a55.81,55.81,0,0,1-1.05-8.92c0-.43-.15-1,.47-1.16.42-.08.69.35.91.68.33.5.65,1,.93,1.54,2.33,4.58,4.64,9.16,7,13.73.27.53.29,1.31,1.12,1.46a3.07,3.07,0,0,0-.32-2,72,72,0,0,1-2.25-9.52c-.16-1.09-.72-2.58.39-3.14,1.3-.66,2,.84,2.8,1.71,3.63,4.17,6.79,8.72,10.18,13.09a1.16,1.16,0,0,0,.85.94l-.22-.56-.43-.57c-.25-.76-.46-1.53-.74-2.27a124,124,0,0,1-4.41-12.85c-.23-.88-.78-2.23,0-2.61,1.06-.55,1.61.88,2.16,1.6a90.8,90.8,0,0,0,11.19,12.24c.74.67,1.54,1.26,2.72,2.22-.76-2.84-1.41-5.06-1.94-7.32a14.09,14.09,0,0,1-.57-4.74c.24-2.11,1.29-2.72,3.15-1.73a19.89,19.89,0,0,1,3.27,2.27A162,162,0,0,1,377.34,145a6.64,6.64,0,0,0,2.35,2.18c-.13-.81-.22-1.4-.32-2l-2.61-14.34h.45c2.25,3.4,4.08,7,6,10.62a100.12,100.12,0,0,1,7.4,16.18c.45,1.4,1.51,3.28.19,4.3-1.5,1.14-2.94-.53-4.19-1.43a59.6,59.6,0,0,1-7.16-6.41c-6-6-11.43-12.55-17.79-18.19-1-.91-2.19-2.83-3.43-2-.83.58.63,2.46,1.3,3.65,4.51,7.9,9.86,15.24,15,22.7.41.6,1.16,1.1.88,2-.83-.08-1.21-.69-1.69-1.13-2.24-2.1-4.48-4.2-6.69-6.34-7.43-7.21-14.82-14.46-21.71-22.2l-.46-.48c-.27.32-.06.53.17.73,4.19,9,9.14,17.52,13.93,26.22-8-6.9-15.81-13.9-22.13-22.39-.11-.17-.08-.59-.39-.42s-.07.45.15.62a9.79,9.79,0,0,0,.88,3.06c2.67,7.13,5.69,14.11,8.89,21,.24.52.81,1.2.23,1.62s-1-.37-1.39-.8c-2.46-3-4.92-6-7.33-9a119.43,119.43,0,0,1-9.85-14,3.69,3.69,0,0,0,.08,2.33c1.36,5.92,3,11.76,4.81,17.56.16.52.6,1.26-.12,1.56s-.82-.53-1.07-1c-3.57-6.1-7.14-12.21-10.13-18.64-.63-1.36-1.12-2.78-1.68-4.17l-.51.08c-.86,4.24-.21,8.46.5,12.67s2.23,8.41,3.35,12.68a128.28,128.28,0,0,1-12.6-24,42.76,42.76,0,0,0,.16,5.89,86.36,86.36,0,0,0,1.84,11.65c.12.47.53,1.17-.06,1.45s-1-.49-1.33-.92c-.78-1-1.51-2-2.25-3.07l-6.89-9.52a26.68,26.68,0,0,0,.63,3.7c.23,1.63,1.91,2.64,2.08,4a29.43,29.43,0,0,1-.21,9.77c-.1.47-.23,1-.71,1.13-.64.21-1-.35-1.27-.76a16.18,16.18,0,0,1-2.44-5.88c-1.32-5.44-2.55-10.9-3.9-16.34-.32-1.3-.39-3.32-1.95-3.34s-1.71,2-2.08,3.31c-1.69,5.83-3.25,11.69-4.92,17.53-.58,2-1.33,4.05-2,6.06-.12.35-.31.82-.8.74s-.46-.61-.51-1a32.82,32.82,0,0,1,0-6.19c.22-4,.39-8,.56-12,0-.58.14-1.31-.52-1.6s-1,.3-1.41.58a15,15,0,0,0-6.5,8.8c-.92,3.07-1.71,6.17-2.39,9.29-.1.46-.14,1-.75,1.28,0-4.34.11-8.56-.91-12.68-1-3.81-3.07-4.48-6-2a15.75,15.75,0,0,0-1.42,1.41c-3.27,3.57-5.53,7.85-8.2,11.84a7.87,7.87,0,0,1-2.58,3,7,7,0,0,1,.8-3,226.54,226.54,0,0,1,11.5-23.54,66.24,66.24,0,0,1,6.29-10c.44-.54.89-1.41,1.73-1.09s.43,1.17.43,1.79c0,4.33,0,8.65,0,13h.63c.13-.37.27-.73.37-1.11a69.52,69.52,0,0,1,4.27-12.47c.39-.8.8-1.93,1.88-1.84s1.05,1.23,1.3,2c1.57,4.9,2.72,9.9,4,14.87a36.53,36.53,0,0,0,1.77,6.43c.23-1.49.36-2.69.59-3.86,1.07-5.42,1.75-10.95,4.58-15.87.93-1.62,1.65-1.75,2.95-.36a11,11,0,0,1,1.25,1.81c2.08,3.49,4.14,7,6.23,10.49.28.46.38,1.14,1.15,1.21a9.57,9.57,0,0,0,.07-3.24c-.16-4-.8-8-.5-12,0-.69,0-1.66.74-2s1.27.6,1.66,1.16a63.71,63.71,0,0,1,8.32,16.33c.13.3.26.29.39,0-.36-5.11-1.09-10.2-.41-15.34.09-.71.09-1.58,1-1.76s1.13.57,1.49,1.13a69.6,69.6,0,0,1,4,7.37c1.12,2.31,1.8,4.83,3.21,7Zm8.08-1.24c-.32.18,0,.57.26.81a2.41,2.41,0,0,0,.77,1.82l.19.5c.05,0,.14-.1.13-.11s-.18-.29-.27-.44c0-.72.05-1.46-.61-2C333.93,141.46,334,140.85,333.66,141.05Zm-23-4a1.62,1.62,0,0,0,.24-.42c0-.09-.13-.24-.24-.29-.28-.12-.31.1-.35.38Zm15.36,6.2s.06.09.1.14l0-.3C326.06,143.15,326,143.2,326,143.26Zm18.39-11.93c-.06,0-.11,0-.17,0s0,.14,0,.14a.48.48,0,0,0,.17-.05C344.43,131.42,344.42,131.33,344.4,131.33Zm-16.81,6.76a.69.69,0,0,0,.14.25c0-.05.11-.09.1-.13a1.56,1.56,0,0,0-.09-.34C327.68,138,327.59,138,327.59,138.09Zm16.16-7.52s.08-.11.08-.16-.07-.09-.11-.14l-.08.16Z"/><path class="cls-4" d="M275.62,63.46a2.84,2.84,0,0,1-.47-.37c-6.42-7.67-12.93-15.28-18.14-23.88-.17-.28-.22-.8-1-.56,1.7,7.74,3.81,15.36,6.1,23-5.22-8.37-10.42-16.72-14.06-26.06a4,4,0,0,0-.71,2.87,54,54,0,0,0,4.51,22.16c.35.84,1,1.62.71,2.64l0,0A4.87,4.87,0,0,1,251,61c-2-3.53-4-7.07-5.93-10.67A89.42,89.42,0,0,1,238.75,36a94.93,94.93,0,0,0,2.92,21.79,290.79,290.79,0,0,1-17-23.94c1.09,4.71,1.75,9.53,3.7,14,.87-.32.37-1.15,1-1.47a101.31,101.31,0,0,1-.06,11.3c-.07.77,0,2-1.09,2.11-.86.1-1.25-.88-1.64-1.57A33.48,33.48,0,0,1,223.75,50c-1.21-4.85-1.89-9.83-3.47-14.59-.27-.81-.49-1.9-1.49-1.91s-1.27,1.08-1.54,1.88c-.82,2.46-1.53,5-2.34,7.43-1.94,5.9-3.92,11.79-7.34,17-.52.8-1.13,2-2.27,1.6s-1-1.6-1.18-2.58a4,4,0,0,1,0-.6,70.2,70.2,0,0,1,1-14.55c.52-3.09,1.18-6.15,1.75-9.23.09-.51.27-1.21-.17-1.53s-1.13.12-1.63.44c-2,1.25-2.9,3.26-3.82,5.27-2.69,5.9-4.36,12.17-6.41,18.3a6.39,6.39,0,0,1-1.42,3,3.82,3.82,0,0,1-.32-2.79c.49-3.17,1-6.33,1.49-9.48.11-.74.38-1.58-.37-2s-1.38.26-2,.67a40.34,40.34,0,0,0-4.74,4.31c-1.66,1.61-3.36,3.19-5.1,4.83a3.77,3.77,0,0,1,.68-2.44c2.1-4.41,4.42-8.69,6.85-12.91a11,11,0,0,1,1.87-2.83,96.89,96.89,0,0,1,10.85-9.17,17.06,17.06,0,0,1,5.7-2.85,2.48,2.48,0,0,1,3.35,1.93,43.22,43.22,0,0,1,1.2,6.48c.43,3.55.34,7.13.52,10.7.43-1.68.72-3.37,1.07-5,.83-3.91,1.51-7.88,3.5-11.43,1.19-2.13,2.19-2.18,3.83-.45.17.18.21,1,.76.4,1.12-1.34,1.83-.19,2.37.49a48.67,48.67,0,0,1,3.32,4.75C230.07,36,231.73,39,233.49,42c.78-.91.49-1.77.46-2.61-.15-4.2-.76-8.39-.54-12.6,0-.77,0-1.81.89-2s1.22.71,1.65,1.27a55.19,55.19,0,0,1,5.83,10.25c.74,1.59,1.45,3.19,2.17,4.78a6.26,6.26,0,0,0,.25-2.26c-.14-4.07-.75-8.13,0-12.19.12-.66.15-1.47.86-1.68s1.11.6,1.45,1.13a75.13,75.13,0,0,1,6.17,12.33c.29.69.34,1.56,1.16,2,.37-.5,0-.9-.11-1.29a100.67,100.67,0,0,1-2.31-14c-.06-.89-.51-2.3.33-2.56,1.11-.36,1.44,1.11,1.86,1.93,2.42,4.67,4.77,9.4,7.17,14.09.28.54.35,1.42,1.48,1.39a58.09,58.09,0,0,1-2.64-9.33A14.87,14.87,0,0,1,259,26c.13-1.37.83-1.66,1.83-.77a19.71,19.71,0,0,1,2.45,2.64c3,3.78,5.88,7.6,8.81,11.41l.42.23c0-.18-.05-.35-.07-.53-.32-1-.61-1.9-1-2.83a102.59,102.59,0,0,1-3.89-11.56c-.23-.94-1.17-2.32,0-2.88.88-.44,1.52,1,2.11,1.77a83.07,83.07,0,0,0,12,12.9c.51.42.93,1.05,1.93,1.1a56.29,56.29,0,0,1-2.35-9.06c-.21-1.51-.69-3.34.75-4.3s2.86.37,4.13,1.19c.22.15.42.32.63.49a161.13,161.13,0,0,1,32.72,37.11,5.74,5.74,0,0,1,1.13,2.71,8.34,8.34,0,0,1-2.75-1.91C313.32,59.47,309,55,304.77,50.46c-5.18-5.48-10.12-11.2-15.86-16.13a5,5,0,0,0-2.49-1.5c-.4,1.05.18,1.78.56,2.53a88.56,88.56,0,0,0,6.12,10.09c3.74,5.52,7.53,11,11.29,16.51l-.31.31C298.79,57.8,294,52.79,289,48c-5.39-5.15-10.46-10.62-15.48-16.12l-.35-.23.12.46c.29.67.54,1.35.87,2,4.32,8.49,8.89,16.83,13.9,24.93a2.5,2.5,0,0,0-.23.23,194.27,194.27,0,0,1-17.53-16.9c-1.78-1.93-3.39-4-5.16-6.14a4,4,0,0,0,.51,2.68c3,8.26,6.65,16.24,10.3,24.23ZM255.89,37.57s0,.13,0,.18c.08.2.18.2.23,0s0-.23-.07-.37C256,37.45,255.92,37.5,255.89,37.57Zm-11.5,4.58s.09-.1.08-.14-.07-.2-.1-.3l-.09.14C244.31,42,244.35,42.05,244.39,42.15Zm20.34-6.36c0,.05.08.09.12.13s.11-.1.1-.14-.07-.09-.11-.14S264.73,35.74,264.73,35.79Zm8.12,4.52c0-.05.11-.1.11-.15s-.08-.09-.12-.13l-.11.14Z"/><path class="cls-4" d="M397,216a3.49,3.49,0,0,1-.47-.37c-6.42-7.68-12.93-15.28-18.14-23.88-.17-.29-.22-.81-1-.57,1.69,7.74,3.81,15.37,6.09,23-5.21-8.37-10.42-16.73-14.05-26.06a4,4,0,0,0-.71,2.86,54.19,54.19,0,0,0,4.5,22.17c.36.84,1,1.62.72,2.63l0,0a5,5,0,0,1-1.66-2.19c-2-3.54-4-7.07-5.93-10.68a88.92,88.92,0,0,1-6.27-14.31A95,95,0,0,0,363,210.33a291,291,0,0,1-17-24c1.09,4.72,1.75,9.54,3.7,14,.87-.31.36-1.15,1-1.47a103.76,103.76,0,0,1-.06,11.3c-.07.78,0,2-1.09,2.12-.86.1-1.25-.88-1.64-1.57a33.41,33.41,0,0,1-2.76-8.33c-1.21-4.85-1.89-9.82-3.47-14.58-.27-.81-.49-1.9-1.49-1.92s-1.27,1.09-1.54,1.88c-.82,2.47-1.53,5-2.35,7.44-1.93,5.9-3.91,11.78-7.33,17-.52.79-1.13,2-2.27,1.6s-1-1.6-1.19-2.58a4,4,0,0,1,0-.6,70.34,70.34,0,0,1,1-14.56c.52-3.08,1.18-6.15,1.75-9.23.09-.51.27-1.2-.17-1.52s-1.14.12-1.63.43c-1.95,1.26-2.9,3.27-3.82,5.27-2.69,5.91-4.36,12.17-6.41,18.31a6.35,6.35,0,0,1-1.42,3,3.81,3.81,0,0,1-.32-2.79c.49-3.16,1-6.32,1.49-9.48.11-.73.38-1.58-.37-2s-1.38.26-2,.67a38.73,38.73,0,0,0-4.74,4.31c-1.66,1.61-3.36,3.19-5.1,4.83a3.82,3.82,0,0,1,.68-2.45c2.1-4.4,4.42-8.68,6.85-12.91a11.21,11.21,0,0,1,1.86-2.82A96,96,0,0,1,324,180.64a17.16,17.16,0,0,1,5.7-2.85,2.49,2.49,0,0,1,3.35,1.94,43,43,0,0,1,1.2,6.48c.43,3.55.34,7.12.52,10.7.43-1.68.72-3.38,1.07-5.06.83-3.91,1.51-7.88,3.5-11.42,1.19-2.13,2.19-2.18,3.83-.45.17.18.21,1,.76.39,1.12-1.33,1.83-.18,2.37.49a47.63,47.63,0,0,1,3.32,4.76c1.77,2.88,3.43,5.83,5.19,8.84.78-.92.49-1.77.46-2.62-.15-4.2-.76-8.38-.54-12.6,0-.77,0-1.8.89-2s1.22.7,1.65,1.26a55.19,55.19,0,0,1,5.83,10.25c.74,1.59,1.45,3.19,2.17,4.79a6.33,6.33,0,0,0,.25-2.27c-.14-4.06-.75-8.12,0-12.19.11-.65.14-1.46.86-1.67s1.11.59,1.45,1.12A75.62,75.62,0,0,1,374,190.84c.29.69.34,1.56,1.16,2,.37-.5,0-.9-.11-1.3a102.06,102.06,0,0,1-2.32-14c-.05-.89-.5-2.3.34-2.57,1.11-.35,1.44,1.12,1.86,1.93,2.42,4.68,4.77,9.4,7.17,14.09.28.54.35,1.43,1.48,1.4a58.68,58.68,0,0,1-2.64-9.33,14.93,14.93,0,0,1-.55-4.56c.13-1.37.83-1.65,1.83-.76a19.63,19.63,0,0,1,2.45,2.63c3,3.79,5.88,7.61,8.81,11.41l.42.24c0-.18,0-.36-.07-.53-.32-.95-.61-1.9-1-2.84A102.43,102.43,0,0,1,389,177.11c-.23-.94-1.17-2.33,0-2.88.88-.44,1.52,1,2.11,1.77a83.52,83.52,0,0,0,12,12.9c.51.42.93,1,1.93,1.1a56.4,56.4,0,0,1-2.35-9.07c-.21-1.5-.69-3.33.75-4.3s2.86.38,4.13,1.2a7.13,7.13,0,0,1,.63.49,161.13,161.13,0,0,1,32.72,37.11,5.7,5.7,0,0,1,1.13,2.7,8.37,8.37,0,0,1-2.75-1.9c-4.53-4.26-8.82-8.76-13.08-13.27-5.18-5.49-10.12-11.2-15.86-16.13a5,5,0,0,0-2.49-1.5c-.4,1,.18,1.78.56,2.52a87.69,87.69,0,0,0,6.12,10.09c3.74,5.53,7.53,11,11.29,16.52l-.31.31c-5.29-4.48-10.08-9.49-15.08-14.27-5.39-5.14-10.46-10.61-15.48-16.12l-.35-.23.12.46c.29.67.54,1.36.87,2,4.32,8.48,8.89,16.82,13.9,24.92l-.24.24a198.37,198.37,0,0,1-17.53-16.9c-1.77-1.93-3.38-4-5.15-6.14a4,4,0,0,0,.51,2.67c3,8.26,6.65,16.25,10.3,24.24Zm-19.73-25.89s0,.12,0,.18.18.19.23,0a1.18,1.18,0,0,0-.07-.38C377.35,189.94,377.27,190,377.24,190.07Zm-11.5,4.58c0-.05.08-.1.08-.15a1.45,1.45,0,0,0-.11-.29l-.08.14C365.66,194.45,365.7,194.55,365.74,194.65Zm20.34-6.37c0,.05.08.09.12.14s.11-.1.1-.15-.07-.09-.12-.13S386.08,188.24,386.08,188.28Zm8.12,4.53c0-.05.11-.1.11-.15s-.08-.09-.12-.14l-.12.15Z"/><path class="cls-4" d="M410.32,240.16c-.25.29-.12.56.05.84.15.71.27,1.43.47,2.13a216.58,216.58,0,0,0,7.47,21.63l-.18.19a50.3,50.3,0,0,1-4.95-6.51c-4.29-6.18-8.94-12.14-12-19.1-.15-.34-.28-.86-.78-.76s-.54.57-.59.94a21.16,21.16,0,0,0-.16,2.39,45.19,45.19,0,0,0,5.1,20.56c.52,1,1.32,2,1.17,3.32a90.07,90.07,0,0,1-9.29-12.85,78.71,78.71,0,0,1-7.59-14.17,23.94,23.94,0,0,0,.07,3.4,79.21,79.21,0,0,0,3.51,18.19l-.14.16a130,130,0,0,1-9.23-10c-4.59-5.2-9.24-10.38-12.93-16.29a8.82,8.82,0,0,1-1.17-2.53,1.3,1.3,0,0,1,.4-1.45c.5-.43,1-.19,1.47.1a10.86,10.86,0,0,1,2.51,2.27c2.24,2.58,4.15,5.4,6.15,8.16a22.44,22.44,0,0,0,3,3.92,1,1,0,0,0,.53-1.09c-.15-2.26-.27-4.52-.51-6.78a53.45,53.45,0,0,1-.18-7.8c0-.68.18-1.4.88-1.67s1.11.33,1.51.75c1,1,1.93,2,2.79,3.14A93.52,93.52,0,0,1,396,244.88a13.38,13.38,0,0,0-.09-1.81c-.33-4.52-1.05-9-.24-13.56.12-.73.19-1.57,1-1.83s1.44.51,1.92,1.12a63.06,63.06,0,0,1,6.33,10c.84,1.6,1.7,3.21,2.55,4.81a2.88,2.88,0,0,0,0-1.67,110.66,110.66,0,0,1-2.87-13.48c-.13-1.09-.81-2.77.5-3.23,1.14-.41,1.71,1.23,2.3,2.15,3.41,5.34,6.77,10.71,10.15,16.07l.45.55c.27-.32.09-.58-.13-.83-.76-2.26-1.56-4.52-2.27-6.8a22.52,22.52,0,0,1-1.5-7.19c0-1.64.76-2,2.14-1.15A19.38,19.38,0,0,1,419,230.3c4.19,4,8,8.38,11.94,12.6l.34.23-.12-.45c-2-4.8-4.54-9.35-6.16-14.3-.41-1.25-1.64-3.06-.41-3.78s2.23,1.23,3.18,2.21c4.09,4.2,8,8.57,12.64,12.23.15.12.23.49.48.29s.05-.43-.16-.59c-1-3.38-2.36-6.65-2.74-10.19-.15-1.42-.25-2.93,1-3.89s2.67-.25,3.93.35a14.64,14.64,0,0,1,2.23,1.31c2.79,2,5.58,3.88,8.31,5.89,6.34,4.66,12.17,9.94,18.26,14.9l.38.35c.21.28.37.69.84.39l-.55-.67c-.11-.15-.22-.31-.34-.46q-6.9-9.19-13.82-18.37a1,1,0,0,1,1.1.23c8.93,9.27,18,18.46,26.24,28.35a40.4,40.4,0,0,1,5.14,7.12c.23.43.67,1,.17,1.46a1.31,1.31,0,0,1-1.51,0,30.69,30.69,0,0,1-3-1.55c-8-4.94-15.34-10.88-22.85-16.53-4.74-3.57-9.43-7.23-14.65-10.11-.68-.37-1.58-1-2.2-.41s.17,1.46.57,2.08a70.15,70.15,0,0,0,7.38,9.2c4.89,5.38,9.84,10.7,14.77,16.05l-.33.33c-6-4.2-11.66-8.88-17.43-13.4q-10.3-8.07-20-16.9c-.14-.17-.2-.58-.47-.38s0,.44.24.56c.35.64.66,1.3,1.05,1.92,5.52,8.75,11.25,17.36,17.61,25.53l-.27.27c-1.57-1.11-3.17-2.18-4.71-3.34-7.21-5.48-14.52-10.86-20.9-17.35-1-1-2-2.14-2.94-3.21a18.64,18.64,0,0,0,1.54,4.59c3.75,8,8,15.79,12.48,23.44l-.3.29a2.62,2.62,0,0,1-.52-.3c-8.34-8.12-16.89-16-23.72-25.56Zm-2.25,4.31a2.47,2.47,0,0,0-.11-.36s-.14.1-.13.14a2.59,2.59,0,0,0,.11.37C408,244.56,408.08,244.51,408.07,244.47Zm10.33.28c0-.05.08-.09.08-.14s-.07-.07-.11-.11l-.09.13Z"/><path class="cls-4" d="M184.86,261.69c1.42-1.16,2.21-2.8,3.24-4.26,3.64-5.2,7.16-10.47,10.34-16,.73-1.27,1.33-2.61,2.06-3.88.45-.77.43-2.38,1.31-2.19,1.21.26.73,1.8.75,2.79a46,46,0,0,1-4.72,20.68c-.54,1.14-1,2.31-1.52,3.47l.23.24c3.68-4,6.29-8.75,9.09-13.34a83,83,0,0,0,7.13-13.65c-.09,1.57-.13,3.15-.27,4.73s-.4,3.3-.59,4.95c-.46,4.1-1.75,8-2.58,12l0,0c4.58-4.67,8.64-9.78,12.79-14.83a81.68,81.68,0,0,0,8.34-11.49c.67-1.17,2.23-2.8.78-3.89s-2.52.91-3.42,1.9c-2.86,3.11-5,6.77-7.37,10.22a5.81,5.81,0,0,1-1.73,2,2.91,2.91,0,0,1-.36-2.24c.21-4.19.83-8.37.61-12.58,0-.86.1-1.93-.83-2.29s-1.52.61-2.07,1.24a62.07,62.07,0,0,0-8.29,12.94,11.13,11.13,0,0,1-1.67,2.66c0-.92.07-1.84.17-2.75a65.65,65.65,0,0,0,.23-11.39,6.4,6.4,0,0,0-.33-1.55c-.5-1.55-1.31-1.25-2.14-.3a29.61,29.61,0,0,0-3.71,5.45c-1.79,3.26-3.5,6.56-5.51,9.77.61-2.69,1.26-5.36,1.81-8.06.52-2.55,1-5.1,1.35-7.68.13-.91.61-2.29-.51-2.69-1-.33-1.46,1-1.92,1.73-3.05,5-6,10.07-9.07,15.1-.28.47-.34,1.16-1.3,1.34.79-2.44,1.57-4.76,2.29-7.09a25.74,25.74,0,0,0,1.42-6.82c0-.66.13-1.43-.6-1.79s-1.3.19-1.78.6c-3.38,2.85-6.18,6.28-9.14,9.53-1.5,1.66-2.9,3.41-4.39,5.16-.37-1,.22-1.65.53-2.36a110.65,110.65,0,0,0,5.38-13.34,6,6,0,0,0,.31-1.16c0-.56.4-1.29-.24-1.63s-1,.27-1.37.62c-.68.64-1.3,1.34-1.94,2-4.59,5-9.33,9.72-15.15,13.27-.09.07-.24.24-.27.22-.24-.16-.12-.32,0-.47.69-2.57,1.87-5,2.3-7.65a19.29,19.29,0,0,0,.33-2.37c.15-3.52-1.24-4.45-4.37-2.68-5.73,3.23-10.7,7.52-15.64,11.82-3.76,3.27-7.39,6.71-11.53,10.47,1.35-6.14,2.6-11.8,3.84-17.43-.42-.26-.54.06-.66.23a223.85,223.85,0,0,0-14.16,23.25,26,26,0,0,0-2.36,5.94c-.19.85-.55,1.92.38,2.6s1.68.1,2.46-.24a33.22,33.22,0,0,0,6.85-4.5c7.63-6,14.42-12.93,21.89-19.1a48.67,48.67,0,0,1,5.6-4.2c.45-.28,1-.73,1.46-.37s.09,1.11-.18,1.61a78.56,78.56,0,0,1-8,11.28c-4.2,5.28-8.52,10.46-12.78,15.69-.24.3-.42.66-.64,1l.22.22c6.23-4.56,12.07-9.62,18-14.52q9.63-7.94,18.67-16.56l.38-.2-.11.45c-4,7.32-8.6,14.28-13.3,21.16-1.47,2.15-3,4.22-4.54,6.33l0,0c.56.27.89-.17,1.22-.44,8-6.26,16-12.39,23.12-19.67a42.66,42.66,0,0,1,3.35-3.38c-3.6,9.68-8.46,18.74-13.41,27.75a2.5,2.5,0,0,1,.23.23c8.35-8.13,16.64-16.31,23.17-26.05.07-.1.2-.15.48-.36a38,38,0,0,1-1.86,7.37,166,166,0,0,1-5.58,16.22,7,7,0,0,0-.25,1.14Z"/><path class="cls-4" d="M62.3,237.34c.26.22.34-.17.49-.3A115.29,115.29,0,0,0,73,226.82q1.83-2,3.74-3.9c.32-.33.74-.71,1.23-.41s.33.86.22,1.28q-.39,1.65-.93,3.27c-1.52,4.56-3.76,8.83-5.5,13.3-.23.22-.44.44-.17.76l.48-.48c3.94-4.53,7.86-9.08,12.13-13.31.8-.81,1.74-2.22,3-1.58s.66,2.26.47,3.47c-.65,4.24-2.38,8.18-3.51,12.29-.21.19-.39.54-.15.65s.28-.27.35-.47c1.47-2.45,2.92-4.92,4.41-7.36q3.18-5.22,6.41-10.4c.27-.43.64-1,1.21-.88s.62.92.66,1.51a6.58,6.58,0,0,1-.06,1,81.13,81.13,0,0,1-1.7,9.44c-.51,2.12-1,4.25-1.44,6.38l.4.11c.43-.89.87-1.77,1.3-2.66a71.16,71.16,0,0,1,7.11-12c.43-.56.87-1.33,1.75-1.06s.81,1,.93,1.66a29.06,29.06,0,0,1,.23,6.59c-.08,2.74-.29,5.47-.44,8.21a5.48,5.48,0,0,0,1.29-1.83,68.07,68.07,0,0,1,8-12.89c.69-.84,1.41-2.31,2.53-2,1.32.39,1,2,1,3.18.11,3.68-.39,7.33-.64,11-.07,1-.4,2.09.31,3.11a8.81,8.81,0,0,0,2-2.53,106.32,106.32,0,0,1,7-9.76c.92-1,2-3,3.39-2.11,1.7,1.09.06,2.8-.62,4A86.64,86.64,0,0,1,120.14,245c-3.81,4.63-7.55,9.33-11.81,13.57l-.13-.12a77,77,0,0,0,3.38-21.34c-6.07,12.67-13.68,25.17-16.76,27.32,1.4-3.22,3-6,4-9a51.59,51.59,0,0,0,2.29-9.5c.42-3.11.81-6.21-.17-9.73a8.6,8.6,0,0,0-.84,1.18,52,52,0,0,1-5,9.34A174.23,174.23,0,0,1,83.93,263l-.16-.13c2.09-5.69,4.19-11.38,5.84-17.21a42.9,42.9,0,0,0,1.85-7.37c-6.92,10-15.25,18.17-23.51,26.63-.36-1.14.33-1.73.7-2.39A242.74,242.74,0,0,0,80.4,238.88a3.59,3.59,0,0,0,.59-2.47l.2-.11s-.08,0-.1,0a.4.4,0,0,0-.07.13c-8,9.32-17.83,16.54-27.51,23.93a3,3,0,0,1,.63-1.28,249.4,249.4,0,0,0,17-26.16l.15-.48-.45.18c-7.79,7.48-16,14.48-24.38,21.29-3.92,3.19-7.68,6.58-11.88,9.42l-.12-.13a82.6,82.6,0,0,1,6.07-6.89c5-5.71,10.18-11.32,14.63-17.52a18.19,18.19,0,0,0,1.72-2.92c.41-.89-.06-1.3-1-1a8.71,8.71,0,0,0-1.79.87,104.54,104.54,0,0,0-10.89,7.83c-7.72,6.06-15.16,12.47-23.33,17.94-1.05.7-2.18,1.28-3.3,1.88-.59.31-1.31.68-1.85.11s0-1.16.3-1.64a34.31,34.31,0,0,1,2.25-3.55c8.29-11,17.7-21,27.05-31.14.23-.25.48-.63.94-.33,0,.78-.6,1.2-1,1.72q-5.94,8.31-11.89,16.59l-.33.47-.21.36.35-.18.48-.35c.65-.56,1.32-1.11,2-1.69,7.73-7,15.51-13.91,24.16-19.77,1.53-1,3.32-2.5,5.12-1.34s1.1,3.54.86,5.4c-.38,3-1.56,5.79-2.35,8.67C62.25,236.9,62.1,237.18,62.3,237.34Zm31.34,5.28c0-.06.12-.11.11-.16a1.35,1.35,0,0,0-.11-.34l-.12.15Zm-62.12,3.95-.09,0,.07.1ZM71.61,232s.09-.08.09-.12-.07-.07-.1-.11l-.09.12Z"/><path class="cls-6" d="M212.35,105.18c.46-2.28,1-4.56,1.35-6.86s.59-4.49.86-6.74a30.9,30.9,0,0,0,.28-7.19c-2.82,8.75-10.72,24.77-13.28,26.84,1-3.17,2.4-6,3.16-9A60.72,60.72,0,0,0,206.49,93c.28-3,.88-6.11-.31-9.14a111,111,0,0,1-6.1,13,106.46,106.46,0,0,1-7.1,12.27c2-7.6,4.16-15.1,5.45-22.84a189,189,0,0,1-18.64,25.11c3.63-9,7.53-17.85,10.26-27.17A22.37,22.37,0,0,0,187.78,87c-5.7,7.38-12.5,13.71-19.14,20.19a2,2,0,0,1-.53.26l-.13-.13c.2-.41.37-.84.61-1.23,4.61-7.58,8.6-15.48,12.47-23.45.27-.56.83-1.1.47-1.81-.52-.07-.74.31-1,.61-8.36,9.89-17.56,19-26.7,28.12-.55.54-1,1.31-1.85,1.42l0,0a5.85,5.85,0,0,1,1.26-2.24c3.81-6,7.75-11.82,10.8-18.21.46-1,1.51-2.28.49-3-.84-.63-1.85.68-2.64,1.34-4.32,3.59-8,7.83-12,11.74a89.84,89.84,0,0,1-10.11,9.09c-.78.56-1.75,1.57-2.65.85s-.05-1.88.31-2.74a86.28,86.28,0,0,1,7.24-12.89,165.88,165.88,0,0,1,9.75-14.34l0,0c.23.86-.29,1.54-.55,2.27-1.28,3.63-2.93,7.12-4,10.82l-.12.44.32-.24c2.53-2.82,5-5.68,7.6-8.47A99.38,99.38,0,0,1,170.8,72.76c.82-.61,1.78-1.43,2.9-.77s1,1.92,1,3.05a8.39,8.39,0,0,1-.13,1,58.46,58.46,0,0,1-2.41,10.06c1.13-1,1.8-1.46,2.43-2a80.66,80.66,0,0,0,10.29-11.7c.59-.8,1.23-1.57,1.88-2.33a.66.66,0,0,1,.86-.28.71.71,0,0,1,.3.87,35.44,35.44,0,0,1-.85,3.7c-1.43,4.43-2.92,8.84-4.4,13.26-.21.18-.37.51-.15.63s.28-.25.37-.44c.55-.75,1.11-1.49,1.64-2.24,2.81-4,5.61-8,8.78-11.69.46-.53,1-1.27,1.83-.89s.53,1.17.5,1.8c-.18,3.83-1.35,7.46-2.3,11.14a3.93,3.93,0,0,0-.32,2.67c3.21-6.34,5.74-12.69,9.6-18.4.68,6-1.17,11.72-1.64,17.56a8.28,8.28,0,0,0,1-2,76.34,76.34,0,0,1,5.5-11.55c.33-.54.64-1.34,1.41-1.24s.77,1,.87,1.62a50.45,50.45,0,0,1,.07,10.78c-.1,1.32-.15,2.64-.23,4a3.9,3.9,0,0,0,1-1.61,68.77,68.77,0,0,1,7-13.69c.41-.58.82-1.53,1.59-1.32s.79,1.3.82,2.07c.07,2.34,0,4.67-.16,7-.16,2.65,0,5.33,0,8.43.76-1.34,1.32-2.32,1.86-3.29a88,88,0,0,1,5.35-9.16c.71-1,1.41-2.95,2.8-2.13s.21,2.47-.36,3.61c-4.7,9.34-10.75,17.81-16.93,26.18Zm-30.43-25c-.08,0-.13.16-.19.25.09,0,.2.12.28.1s.15-.14.23-.22C182.13,80.24,182,80.15,181.92,80.17Zm16.77,5.39s.09-.11.09-.15a1.6,1.6,0,0,0-.13-.3l-.08.16Z"/><path class="cls-7" d="M239.59,138.05c.65-4,1.35-8,1.94-12a43.82,43.82,0,0,0,.24-4.59c0-.32,0-.74-.44-.75a.91.91,0,0,0-.63.42,25.17,25.17,0,0,0-1.4,2.41c-2.42,4.95-4.81,9.92-7.36,15.18a3.64,3.64,0,0,1,.29-2.67,72.47,72.47,0,0,0,2.19-9.93c.13-.93.56-2.23-.57-2.71s-1.63.71-2.19,1.39c-3.5,4.2-6.58,8.72-9.77,13.16-.15.17-.29.35-.44.53-.27-.32-.09-.57.13-.8,1.44-4.72,3.44-9.25,4.58-14.06.27-1.12,1.15-2.88.23-3.28-1.25-.53-1.85,1.33-2.57,2.28a78.16,78.16,0,0,1-11.34,12.63c-.34.28-.59.74-1.28.67.79-3.31,2-6.51,2.19-9.91a9.44,9.44,0,0,0,.06-1.59c-.26-2.24-1.3-2.77-3.27-1.65a24.89,24.89,0,0,0-4.23,3.36,179.42,179.42,0,0,0-16.36,17.29,3.74,3.74,0,0,1-1.66,1.5c1-5.7,2-11.22,3-16.79-.76,0-.77.55-1,.89-4.47,8.27-9,16.52-12.11,25.43a19.24,19.24,0,0,0-1,3.87c-.2,1.65.71,2.24,2.19,1.49a23.87,23.87,0,0,0,5.49-4.31c5.94-5.69,11.05-12.14,16.76-18.05,1.71-1.77,3.5-3.48,5.3-5.17.46-.43,1.08-1.18,1.68-.77s.06,1.23-.2,1.82a82.71,82.71,0,0,1-6,10.59c-3.36,5.21-6.82,10.36-10.23,15.55-.29.44-.51.93-.77,1.39l.21.21c6.5-6,12.68-12.44,18.76-18.9,3.7-3.93,7.24-8,10.86-12l.15-.28.16.18-.26.16a3.43,3.43,0,0,1-.69,2c-4,8.11-8,16.2-12.69,23.92-.2.34-.35.71-.52,1.07l.3.28c7.33-6.73,14.46-13.64,20.36-21.71a5.3,5.3,0,0,1,1.22-1.34c-2.88,9.52-6.77,18.65-10.64,27.82,6.86-8.25,13.62-16.52,19-25.84a233.59,233.59,0,0,1-5.83,23.64,55.75,55.75,0,0,0,4.92-8.14c1.58-2.85,3.07-5.76,4.54-8.68a58.17,58.17,0,0,0,3.89-9.4,9.18,9.18,0,0,1,.84,5.13,61.38,61.38,0,0,1-4.5,20.39,3.72,3.72,0,0,0-.6,2.47l0,0c1.72-1.82,2.7-4.11,3.84-6.28,3.54-6.77,7.13-13.53,9.33-20.93a87,87,0,0,1-2.75,21.3c.5.24.63-.16.78-.37,5.32-7.6,10.75-15.13,15.27-23.25a16.14,16.14,0,0,0,2-4.77c.11-.57.27-1.29-.38-1.63s-1.12.23-1.51.66c-2.09,2.29-3.44,5.06-4.95,7.73-1.11,2-2.18,3.95-3.36,6.11-.88-1.11-.51-2.1-.46-3,.17-3.67.42-7.33.55-11,0-1.15.27-2.87-.92-3.21s-1.61,1.35-2.22,2.25a68.24,68.24,0,0,0-6.09,12.14,4.78,4.78,0,0,1-1.21,1.9c.09-1.67.18-3.35.28-5a41,41,0,0,0-.14-9.39c-.11-.64,0-1.47-.83-1.65s-1.09.62-1.43,1.17a80.14,80.14,0,0,0-5.75,12.09c-.23.55-.5,1.08-.75,1.62-.13.28.06.9-.39.78C239.16,139,239.34,138.37,239.59,138.05Z"/><path class="cls-7" d="M283.19,193.1c.65-4,1.35-8,1.94-12a43.63,43.63,0,0,0,.24-4.58c0-.32,0-.74-.44-.76a.91.91,0,0,0-.63.42,25.33,25.33,0,0,0-1.4,2.42c-2.42,4.95-4.81,9.91-7.36,15.17a3.69,3.69,0,0,1,.29-2.67,71.85,71.85,0,0,0,2.2-9.93c.12-.92.55-2.23-.58-2.71s-1.63.71-2.19,1.39c-3.5,4.2-6.58,8.73-9.77,13.16-.14.18-.29.35-.44.53-.27-.32-.09-.56.13-.8,1.44-4.71,3.44-9.25,4.58-14,.27-1.13,1.15-2.89.23-3.28-1.25-.54-1.84,1.33-2.56,2.27a78.27,78.27,0,0,1-11.35,12.63c-.33.29-.59.74-1.28.67.79-3.31,2-6.5,2.19-9.91a9.44,9.44,0,0,0,.06-1.59c-.26-2.24-1.3-2.77-3.26-1.64a23.62,23.62,0,0,0-4.23,3.35,179.57,179.57,0,0,0-16.37,17.3,3.73,3.73,0,0,1-1.66,1.49c1-5.7,2-11.22,3-16.79-.75,0-.77.55-1,.89-4.48,8.27-9,16.52-12.12,25.43a18.57,18.57,0,0,0-1,3.87c-.21,1.65.7,2.25,2.18,1.5a23.64,23.64,0,0,0,5.49-4.32c5.94-5.69,11.05-12.14,16.76-18,1.72-1.78,3.5-3.48,5.3-5.18.46-.43,1.08-1.18,1.68-.76s.07,1.23-.2,1.81a82.71,82.71,0,0,1-6,10.59c-3.36,5.22-6.82,10.37-10.23,15.55-.29.44-.51.93-.76,1.39l.2.21c6.5-6.05,12.68-12.43,18.76-18.9,3.7-3.93,7.25-8,10.86-12l.15-.29.16.18-.26.17a3.45,3.45,0,0,1-.69,2c-4,8.1-8,16.19-12.69,23.91-.2.34-.34.71-.52,1.07l.31.28c7.32-6.73,14.46-13.64,20.36-21.71a5.24,5.24,0,0,1,1.21-1.34c-2.88,9.53-6.77,18.65-10.64,27.82,6.86-8.24,13.63-16.52,19-25.84a236.25,236.25,0,0,1-5.82,23.64A56.48,56.48,0,0,0,280,207c1.59-2.86,3.07-5.77,4.55-8.69a58.57,58.57,0,0,0,3.88-9.39,9.14,9.14,0,0,1,.84,5.12,61.19,61.19,0,0,1-4.5,20.4,3.71,3.71,0,0,0-.6,2.47l0,0c1.72-1.82,2.71-4.11,3.84-6.27,3.54-6.78,7.13-13.54,9.33-20.94A87,87,0,0,1,294.55,211c.5.24.64-.16.79-.38,5.31-7.6,10.74-15.13,15.27-23.25a15.9,15.9,0,0,0,2-4.77c.11-.57.27-1.28-.38-1.63s-1.12.24-1.5.66c-2.1,2.29-3.45,5.07-5,7.74-1.11,2-2.17,3.94-3.36,6.1-.88-1.11-.51-2.09-.46-3,.18-3.66.42-7.33.55-11,0-1.16.27-2.87-.91-3.22s-1.62,1.35-2.23,2.26a68.23,68.23,0,0,0-6.09,12.14,4.92,4.92,0,0,1-1.21,1.9c.09-1.68.18-3.35.28-5a40.87,40.87,0,0,0-.14-9.38c-.11-.65,0-1.47-.83-1.66s-1.09.63-1.43,1.17a80.6,80.6,0,0,0-5.75,12.09c-.23.55-.5,1.08-.75,1.62-.13.28.06.9-.39.78C282.76,194,283,193.43,283.19,193.1Z"/><path class="cls-7" d="M53.39,218c.82.59,1.69.11,2.47-.24a33.3,33.3,0,0,0,6.85-4.49c7.62-6,14.41-12.93,21.88-19.1a49.94,49.94,0,0,1,5.6-4.21c.45-.27,1-.72,1.46-.37.6.48.1,1.12-.17,1.62a77.21,77.21,0,0,1-8,11.27C79.32,207.78,75,213,70.74,218.19a10.57,10.57,0,0,0-.64,1l.22.22c6.23-4.57,12.06-9.62,18-14.53Q98,196.95,107,188.33l.38-.21-.11.46c-4,7.31-8.59,14.28-13.3,21.16-1.46,2.14-3,4.21-4.53,6.32.53.24.86-.19,1.19-.45,8-6.26,16-12.39,23.12-19.67a44.4,44.4,0,0,1,3.34-3.39c-3.6,9.69-8.46,18.74-13.4,27.76l.23.22c8.34-8.13,16.64-16.3,23.17-26.05.06-.1.2-.15.48-.36a38.89,38.89,0,0,1-1.86,7.38,165.78,165.78,0,0,1-5.58,16.21,6.26,6.26,0,0,0-.25,1.14l0,0c1.42-1.16,2.22-2.81,3.24-4.27,3.64-5.19,7.16-10.47,10.34-16,.73-1.27,1.34-2.61,2.07-3.89.44-.77.43-2.38,1.31-2.18,1.2.26.72,1.8.74,2.78a46,46,0,0,1-4.71,20.69c-.54,1.14-1,2.31-1.53,3.47l.24.23c3.67-4,6.28-8.74,9.08-13.33q1.17-1.92,2.31-3.85c-1.34,2.93-2.58,5.9-3.65,9a19.24,19.24,0,0,0-1,3.87c-.2,1.65.71,2.25,2.19,1.5a17.83,17.83,0,0,0,3.9-2.83c0,.11-.05.22-.07.34.86-.88,1.71-1.78,2.54-2.69,5.57-5.47,10.46-11.57,15.88-17.18,1.71-1.77,3.5-3.48,5.3-5.17.46-.44,1.08-1.19,1.67-.77s.07,1.23-.19,1.81A82,82,0,0,1,163.54,201c-3.36,5.22-6.83,10.37-10.23,15.55-.29.44-.51.93-.77,1.4a2.08,2.08,0,0,1,.21.21c6.5-6.06,12.67-12.44,18.76-18.9,3.7-3.93,7.24-8,10.85-12l.16-.29.16.19-.26.16a3.43,3.43,0,0,1-.69,2c-4,8.11-8,16.19-12.69,23.91-.2.34-.35.72-.52,1.07l.3.29c7.33-6.74,14.46-13.65,20.36-21.72a5.66,5.66,0,0,1,1.22-1.34c-2.88,9.53-6.77,18.65-10.64,27.82,6.86-8.24,13.62-16.52,19-25.84A232.28,232.28,0,0,1,193,217.14a55.65,55.65,0,0,0,4.92-8.13c1.58-2.86,3.07-5.77,4.54-8.68a59.09,59.09,0,0,0,3.89-9.4,9.23,9.23,0,0,1,.84,5.12,61.44,61.44,0,0,1-4.5,20.4,3.86,3.86,0,0,0-.61,2.43,26.46,26.46,0,0,0,3.82-6.26c3.54-6.78,7.14-13.54,9.34-20.94A87,87,0,0,1,212.44,213c.5.24.63-.16.78-.37,5.32-7.61,10.75-15.13,15.27-23.26a15.92,15.92,0,0,0,2-4.77c.11-.57.26-1.28-.38-1.63s-1.12.24-1.51.67c-2.1,2.28-3.45,5.06-5,7.73-1.11,2-2.18,3.94-3.37,6.11-.87-1.12-.5-2.1-.46-3,.18-3.66.43-7.32.55-11,0-1.16.28-2.87-.91-3.22s-1.62,1.35-2.22,2.26a67.24,67.24,0,0,0-6.09,12.14,4.85,4.85,0,0,1-1.21,1.9c.09-1.68.18-3.35.28-5a41,41,0,0,0-.14-9.39c-.11-.64,0-1.47-.83-1.66s-1.09.63-1.43,1.17a81.07,81.07,0,0,0-5.75,12.09c-.23.55-.5,1.08-.75,1.62-.13.29.06.91-.39.78-.29-.07-.11-.67.14-1,.65-4,1.35-8,1.94-12a43.63,43.63,0,0,0,.24-4.58c0-.32,0-.74-.44-.76a.91.91,0,0,0-.63.42,25.33,25.33,0,0,0-1.4,2.42c-2.42,4.95-4.82,9.91-7.36,15.17a3.65,3.65,0,0,1,.29-2.67,71.82,71.82,0,0,0,2.19-9.93c.13-.92.56-2.22-.57-2.7s-1.63.7-2.2,1.38c-3.5,4.21-6.57,8.73-9.76,13.16-.15.18-.29.36-.44.53-.27-.31-.09-.56.13-.8,1.44-4.71,3.44-9.24,4.58-14.05.27-1.12,1.15-2.89.23-3.28-1.25-.54-1.85,1.33-2.57,2.27A77.81,77.81,0,0,1,174,192.33c-.34.28-.59.73-1.28.66.79-3.3,2-6.5,2.19-9.91a9.44,9.44,0,0,0,.06-1.59c-.26-2.24-1.3-2.77-3.27-1.64a24.35,24.35,0,0,0-4.23,3.35l-1.14,1.08-.05,0c-1.52-1.14-2.51.9-3.42,1.89a52.78,52.78,0,0,0-5,6.65c-1.52,1.64-3,3.3-4.46,5a5.1,5.1,0,0,1,0-1.61c.21-4.2.83-8.37.62-12.59-.05-.85.1-1.93-.83-2.29s-1.52.62-2.07,1.24a61.73,61.73,0,0,0-8.29,13,11.25,11.25,0,0,1-1.68,2.65c.06-.91.08-1.83.17-2.74a66.67,66.67,0,0,0,.24-11.39,7.12,7.12,0,0,0-.33-1.56c-.5-1.54-1.31-1.24-2.15-.3a30.19,30.19,0,0,0-3.71,5.46c-1.79,3.25-3.5,6.55-5.5,9.77.6-2.69,1.26-5.37,1.81-8.07.52-2.54,1-5.1,1.34-7.67.13-.92.61-2.3-.51-2.69-1-.34-1.46,1-1.92,1.72-3,5-6,10.07-9.06,15.1-.29.47-.35,1.17-1.3,1.35.79-2.45,1.56-4.76,2.28-7.09a26.14,26.14,0,0,0,1.43-6.83c0-.66.13-1.42-.6-1.78s-1.3.19-1.79.6c-3.38,2.85-6.17,6.27-9.13,9.53-1.51,1.66-2.91,3.4-4.4,5.16-.36-1,.23-1.65.54-2.36A114.18,114.18,0,0,0,113.91,181a5.94,5.94,0,0,0,.31-1.15c0-.56.39-1.29-.25-1.63s-1,.27-1.37.62c-.67.64-1.3,1.34-1.93,2-4.6,4.94-9.34,9.72-15.16,13.26-.09.08-.24.24-.27.22-.24-.15-.12-.31,0-.46.69-2.58,1.87-5,2.3-7.65.12-.79.29-1.58.33-2.37.14-3.52-1.25-4.46-4.38-2.69-5.72,3.24-10.7,7.52-15.63,11.82-3.77,3.28-7.4,6.71-11.53,10.48,1.35-6.15,2.59-11.8,3.83-17.43-.42-.26-.53.05-.65.23a223,223,0,0,0-14.16,23.24A25.3,25.3,0,0,0,53,215.42C52.83,216.28,52.47,217.35,53.39,218Zm94.27-24.85.15-.41v.12Z"/><path class="cls-7" d="M89.41,216l0,0h0Z"/><path class="cls-7" d="M144.34,214.45l0,0,0,.08Z"/><path class="cls-7" d="M202,218.89h0v0Z"/><path class="cls-7" d="M139.62,139.77c.22.16.26-.09.34-.23,1-1.41,2-2.83,3-4.22,2.32-3.1,4.64-6.2,7-9.26.5-.64,1.17-1.64,2.08-1.17s.66,1.55.53,2.4c-.24,1.65-.52,3.3-.9,4.92-.58,2.51-1.25,5-1.91,7.61.92-.22,1-.92,1.21-1.42,1.9-3.9,3.76-7.82,5.65-11.72.58-1.2,1.2-2.38,1.84-3.55.22-.39.49-.93,1-.8s.4.76.42,1.2a32.07,32.07,0,0,1-.64,6.56c-.57,3.44-1.21,6.86-1.83,10.29a2.8,2.8,0,0,0,.92-1.35,84.17,84.17,0,0,1,5.71-12.34c.43-.72.74-1.87,1.73-1.7s.84,1.35,1,2.19a36.79,36.79,0,0,1,.08,8c-.14,1.86,0,3.74,0,5.93,1.44-3.17,2.68-6.1,4.07-8.95a34.5,34.5,0,0,1,4.15-6.83c.29-.36.6-.81,1.14-.66s.53.7.61,1.16A23.09,23.09,0,0,1,177,131c-.16,3.55-.66,7.1-.48,11.23a42.74,42.74,0,0,0,3.51-5.88,51.78,51.78,0,0,1,5.09-8.13c.42-.51.93-1.12,1.68-.74s.52,1.2.36,1.81a23.44,23.44,0,0,1-2.58,5.62c-4.3,7.48-9.3,14.5-14.24,21.55-.25.36-.44.85-1.13.93.5-2.36,1.05-4.67,1.44-7a66.3,66.3,0,0,0,.89-7.14c.14-2.32.68-4.63.31-7.29-2.52,8.34-6.43,15.7-10.37,23-.78,1.44-1.34,3.05-2.71,4.12h0a3.69,3.69,0,0,1,.57-2.29,54.82,54.82,0,0,0,4.33-22.6c0-.77.27-1.7-.75-2.49a79.07,79.07,0,0,1-5.78,12.85c-2.44,4.5-4.57,9.17-7.58,13.33h0a10.27,10.27,0,0,1,.2-1.37c1.2-4.23,2.47-8.44,3.6-12.69.88-3.32,1.58-6.68,2.37-10-5.56,9.36-12.35,17.69-19.26,26,3.87-9.12,7.72-18.21,10.56-27.71a85.77,85.77,0,0,1-7.15,8.67,200.42,200.42,0,0,1-14.62,14.53l-.21-.21c.34-.64.66-1.29,1-1.91a264.18,264.18,0,0,0,12.87-24.7c.07-.19.15-.38.22-.56a2.63,2.63,0,0,0,.3-.44s-.12-.12-.18-.18l-.22.51-.42.39c-8.86,10.25-18.28,19.94-28.23,29.67a2.73,2.73,0,0,1,.89-2.23c2.52-3.52,5.14-7,7.62-10.55,3-4.26,6.06-8.47,8.34-13.18.27-.55.88-1.29.3-1.81s-1.24.18-1.75.54a55.72,55.72,0,0,0-5.68,4.74c-6.85,6.27-13.08,13.18-20.08,19.29-1.35,1.19-2.76,2.32-4.21,3.38-.65.47-1.48,1.36-2.24.71s0-1.5.34-2.22A25.41,25.41,0,0,1,95.17,158,357.29,357.29,0,0,1,118,125.65l.31.26c-.43.82-.83,1.66-1.3,2.46q-4.45,7.71-8.94,15.38l-.37.84a.47.47,0,0,0-.21.6c0,.05.08.08.12.13.07-.21.14-.42.22-.62l.6-.61c.37-.38.76-.75,1.11-1.15,6.17-6.85,12.32-13.71,19.42-19.63,1.19-1,2.51-2.57,4.16-1.56s1.13,3,1,4.62c-.3,3.2-1.32,6.25-2,9.38-.2.19-.35.5-.15.65s.33-.22.48-.36c4.42-4.45,7.6-9.95,12-14.92a6.54,6.54,0,0,1-.06,3.58c-1.19,5-3.27,9.69-4.74,14.59C139.66,139.46,139.56,139.73,139.62,139.77Zm26.85,2.15s.06.08.1.13a1.87,1.87,0,0,0,.08-.32s-.07-.09-.11-.14A1.3,1.3,0,0,0,166.47,141.92Zm-16.75-1c.05-.1.14-.21.14-.31s-.09-.2-.14-.29l-.16.3C149.61,140.75,149.67,140.84,149.72,140.94Zm-10.42-.36s.09-.09.08-.13-.06-.08-.1-.12l-.09.14Z"/><path class="cls-6" d="M376.87,163.47a1.41,1.41,0,0,0-1.2-1.32c.14.8.45,1.25,1.23,1.29Z"/><path class="cls-6" d="M323.92,162.54c-.06.78.14,1.16.67,1.39C324.8,163.31,324.49,163,323.92,162.54Z"/><path class="cls-6" d="M333.53,161.63c.07.32.39.77.53.49a.94.94,0,0,0-.55-1.32C333.52,161.08,333.53,161.36,333.53,161.63Z"/><path class="cls-6" d="M312.77,157.44a4.07,4.07,0,0,0,.53.7c.39-.2.2-.49,0-.76Z"/><path class="cls-6" d="M348,164.24a.89.89,0,0,0-.39-.85l-.32.45c.11.28.27.5.61.49Z"/><path class="cls-4" d="M304.08,62.27l.63.58.11-.12a.8.8,0,0,0-.43-.77Z"/><path class="cls-4" d="M276.27,64a.82.82,0,0,0-.32-.87l-.33.31.63.58Z"/><path class="cls-6" d="M154.37,80.46l.34-.26-.17-.2-.15.48Z"/><path class="cls-4" d="M329.6,265.67l.09.48.16,0-.28-.39Z"/><path class="cls-8" d="M89.48,265.33a4.59,4.59,0,0,0,.26-.49s-.09-.08-.13-.12c-.09.17-.17.34-.25.5Z"/><path class="cls-4" d="M469,264.57l.7.5.22-.22-.6-.61Z"/><path class="cls-4" d="M83.77,262.85c-.26.13-.44.45-.21.57s.28-.26.37-.44Z"/><path class="cls-4" d="M184.83,261.67l-.32.33.19.18c.05-.17.11-.33.16-.49Z"/><path class="cls-6" d="M212.35,105.18c-.18.19-.33.51-.12.63s.28-.23.37-.41Z"/><path class="cls-4" d="M45.91,226.18l.47-.44c-.31-.24-.54-.1-.74.18Z"/><path class="cls-4" d="M347.33,163.84l.32-.45c-.14-.18-.26-.52-.53-.2S347.21,163.63,347.33,163.84Z"/><path class="cls-7" d="M149.56,161.85l-.33.38.21.18c.05-.18.09-.37.14-.55Z"/><path class="cls-7" d="M231,161.05l.14.15a2,2,0,0,0,.12-.34s-.08-.08-.13-.13Z"/><path class="cls-6" d="M359.62,159.4l.27-.2a2,2,0,0,0-.3-.2c-.24-.1-.32.05-.26.24S359.52,159.35,359.62,159.4Z"/><path class="cls-7" d="M118.65,124.92l-.58.66.31.26c.13-.26.27-.52.41-.78Z"/><path class="cls-7" d="M119.09,124.56l.32-.41-.23-.1-.06.54Z"/><path class="cls-4" d="M285.4,113l.3.46c.22-.25.15-.46-.07-.66Z"/><path class="cls-4" d="M309,113.84c.09.18.11.57.39.39s0-.42-.21-.54Z"/><path class="cls-6" d="M347.94,164.33l.21.48c.07-.06.2-.16.19-.17a2.78,2.78,0,0,0-.3-.4Z"/><path class="cls-6" d="M376.91,130.16l-.13-.52c-.07.05-.2.14-.19.15a3.7,3.7,0,0,0,.25.43Z"/><path class="cls-4" d="M364.31,264.26a.43.43,0,0,0,.57.21l0,0-.35-.45Z"/><path class="cls-4" d="M363.86,263.92l.45.34.19-.21-.37-.44Z"/><path class="cls-4" d="M34.43,263.21l-.21.33.33-.2Z"/><path class="cls-4" d="M168.64,263.12l-.13.43.36-.2A2.5,2.5,0,0,0,168.64,263.12Z"/><path class="cls-4" d="M209.33,257.29l-.31.09c.26.33.22,0,.28-.12Z"/><path class="cls-4" d="M450.67,262.88l.18.14s0-.08-.06-.1a.68.68,0,0,0-.15,0Z"/><path class="cls-4" d="M196.32,262.33l-.11.43.34-.19Z"/><path class="cls-4" d="M108.2,258.41c-.07.09-.23.25-.22.27.27.32.27,0,.35-.15Z"/><path class="cls-4" d="M154.39,258.88l-.4.4,0,0c.29,0,.47-.06.4-.4Z"/><path class="cls-4" d="M154,259.28a.71.71,0,0,0-.14.1s0,.07,0,.1l.12-.22Z"/><path class="cls-4" d="M450.64,262.9c0-.28-.08-.43-.38-.42h0l.42.39Z"/><path class="cls-4" d="M135.05,262l-.18.39.4-.17Z"/><path class="cls-4" d="M449.76,262.17l.49.32h0c-.08-.19-.15-.38-.23-.58Z"/><path class="cls-4" d="M392.49,260.52l.23.3c.23-.2.11-.34-.09-.45Z"/><path class="cls-4" d="M343.94,261l.33.2-.22-.32Z"/><path class="cls-4" d="M343.43,260.67l.51.29.11-.11-.34-.46Z"/><path class="cls-7" d="M119.12,124.59c-.31-.11-.4.1-.47.33l.14.14.3-.5Z"/><path class="cls-4" d="M287.83,59.28l.37.2c-.05-.15-.09-.29-.14-.43A2.5,2.5,0,0,0,287.83,59.28Z"/><path class="cls-4" d="M304.71,62.85l.23.28c.25-.23.08-.32-.13-.4Z"/><path class="cls-4" d="M252.61,63.22l.18.28c.14-.24.07-.33-.2-.25Z"/><path class="cls-4" d="M276.25,64l.13.28.15-.16-.26-.14Z"/><polygon class="cls-4" points="337.79 79.01 337.77 79.13 337.84 79.11 337.79 79.01"/><path class="cls-6" d="M376.84,130.58h.44c-.12-.15-.25-.29-.37-.43l-.07.06A.3.3,0,0,0,376.84,130.58Z"/><path class="cls-4" d="M435.37,266.94l.32.23-.18-.36Z"/><path class="cls-4" d="M435.51,266.81l-.28-.51-.3.29.44.35Z"/><path class="cls-4" d="M406.24,266.25l.11.12s.09-.09.09-.13-.06-.07-.1-.11Z"/><path class="cls-8" d="M150.4,266.12l.16-.22-.21.17Z"/><path class="cls-8" d="M194.46,266.08l.17-.07-.15.09Z"/><polygon class="cls-4" points="418.78 265.76 418.74 265.89 418.84 265.88 418.78 265.76"/><path class="cls-9" d="M60.18,265.7l.17-.18-.19.16Z"/><path class="cls-4" d="M329.57,265.71l-.36-.45-.15.15c.12.21.26.37.54.26Z"/><path class="cls-4" d="M470.24,265.35c0,.17.09.32.31.22l-.23-.3Z"/><path class="cls-4" d="M418.13,265l.31.25-.13-.43Z"/><path class="cls-4" d="M470.32,265.27l-.38-.42-.22.22.52.28Z"/><path class="cls-4" d="M364.88,264.47l.1.31c.34-.27,0-.22-.13-.28Z"/><path class="cls-7" d="M125.05,159l-.18.39.39-.19Z"/><polygon class="cls-7" points="124.51 160.08 124.53 159.97 124.44 159.98 124.51 160.08"/><path class="cls-4" d="M333.53,161.63c0-.27,0-.55,0-.83C333,161.09,333.26,161.36,333.53,161.63Z"/><path class="cls-7" d="M191.1,160.89l-.14.41.34-.2Z"/><path class="cls-7" d="M240.6,161.87l-.19,0,.16-.07Z"/><path class="cls-7" d="M217.82,162.83l.11.12s.09-.09.09-.13-.07-.08-.1-.11Z"/><path class="cls-7" d="M158.78,163.05l-.26.15c.27.3.22,0,.27-.14Z"/><path class="cls-6" d="M376.9,163.44l.11.32c.31-.27,0-.24-.14-.29Z"/><path class="cls-6" d="M179.29,111.93l.15.13s.11-.1.11-.15-.08-.09-.13-.14Z"/><path class="cls-6" d="M316,142.58q.19.45.39,0Z"/><path class="cls-4" d="M312.77,157.44l.55-.06-.39-.42Z"/><path class="cls-7" d="M207.08,157.25l-.28.49.15.16.43-.37Z"/><path class="cls-6" d="M168,107.3c-.09.09-.25.23-.24.25.22.29.28,0,.37-.12Z"/><path class="cls-4" d="M321.07,109.42a3.46,3.46,0,0,0,.25.26c.27-.22.08-.3-.12-.38Z"/><path class="cls-6" d="M152,110.93l-.27.22c.3.25.29,0,.3-.19Z"/><path class="cls-4" d="M45.64,225.92c-.18.14-.4.28-.12.51,0,0,.25-.16.39-.25Z"/><path class="cls-7" d="M206.8,157.74l-.18.37.33-.21Z"/><polygon class="cls-7" points="169.01 157.91 168.96 158.06 169.07 158.05 169.01 157.91"/><path class="cls-2" d="M312,242.83l.14.52c.06-.07.17-.14.17-.2s-.1-.35-.34-.29Z"/><path class="cls-2" d="M311.92,242.86a.92.92,0,0,0-.21-1l-.26.23c.07.31.12.63.5.72Z"/><path class="cls-2" d="M324.44,240.88c.06.09.11.24.19.26s.22-.07.33-.12a1.71,1.71,0,0,0-.22-.25C324.6,240.64,324.49,240.68,324.44,240.88Z"/><path class="cls-2" d="M368.06,248.05l.11.12-.13-.09Z"/><path class="cls-2" d="M338,238.82l.15.23c0-.05,0-.12,0-.14a.67.67,0,0,0-.17-.08Z"/><path class="cls-2" d="M315.21,237.16l-.34-.2c0,.15.06.29.08.44A3,3,0,0,0,315.21,237.16Z"/><path class="cls-2" d="M325.67,233.12l-.42-.2c0,.16.07.32.1.48Z"/><path class="cls-10" d="M355.68,290.22l-8.08,0c.15,5.26-.65,10.44-1.14,15.66-.11,1.23-.49,1.57-1.67,1.58-2.05,0-4.11,0-6.17.16-4.24.26-8.39,1.26-12.63,1.41,0,2.82,0,5.64,0,8.47,5.93-.15,11.85-.27,17.77-.47,1.38-.05,1.88.36,1.86,1.79,0,2.12,0,4.25.14,6.38.28,4.11,1,8.15,1.39,12.24l8.86.43c-.27-6.24-.5-12.48-.84-18.72-.09-1.66.43-2.21,2.11-2.13,7,.35,14.08.58,21.12.86,0-2.69,0-5.38,0-8.07-7.26.24-14.4-1.16-21.61-1.6-1.26-.08-1.61-.78-1.64-2C355.09,300.84,355.46,295.53,355.68,290.22Z"/><path class="cls-2" d="M288.89,87.05c0,.06-.1.11-.1.16a2.19,2.19,0,0,0,.12.33c0-.05.1-.11.1-.15A2,2,0,0,0,288.89,87.05Z"/><path class="cls-2" d="M286.85,91.16c.06-.11.15-.21.15-.3s-.11-.15-.17-.23-.1.11-.09.15A2.24,2.24,0,0,0,286.85,91.16Z"/><path class="cls-2" d="M295.27,91.5c.06-.1.15-.18.15-.27s-.1-.14-.16-.21-.1.1-.1.14A2.67,2.67,0,0,0,295.27,91.5Z"/><path class="cls-2" d="M263.41,92.92l-.15-.5s-.11.09-.11.14c0,.21.05.35.3.32Z"/><path class="cls-2" d="M306,81.51l.13.13s.11-.1.1-.15-.08-.09-.12-.13Z"/><polygon class="cls-2" points="297.7 85.42 297.67 85.56 297.78 85.55 297.7 85.42"/><path class="cls-2" d="M305.47,89.75c.07.13.09.37.32.23,0,0-.07-.29-.1-.45Z"/><polygon class="cls-2" points="306.13 90.78 306.18 90.63 306.06 90.64 306.13 90.78"/><path class="cls-6" d="M334.81,143.4c0-.72.05-1.46-.6-2a.66.66,0,0,1-.22.22,2.39,2.39,0,0,0,.77,1.81Z"/><path class="cls-6" d="M310.37,136.5l.35.32a1.2,1.2,0,0,0,.24-.42c0-.08-.13-.24-.23-.28C310.44,136,310.41,136.22,310.37,136.5Z"/><path class="cls-2" d="M325.59,141c0,.31,0,.62.06,1.06.39-.51.38-.82-.09-1Z"/><path class="cls-6" d="M326.16,142.86s-.09.11-.08.16.07.09.11.14Z"/><path class="cls-6" d="M344.53,131.23s0-.14-.06-.14a.64.64,0,0,0-.17,0c0,.05,0,.14.06.14A.64.64,0,0,0,344.53,131.23Z"/><path class="cls-2" d="M345.43,132.4l-.46-.47c-.28.32-.07.52.17.73Z"/><path class="cls-6" d="M334.76,143.44l.19.5.14-.1c-.09-.15-.18-.3-.28-.44Z"/><path class="cls-2" d="M336.93,136.48c-.11-.17-.08-.59-.38-.42s-.08.45.14.63Z"/><path class="cls-2" d="M345,140.65l-.43-.57a1.8,1.8,0,0,1-.2.19,1.16,1.16,0,0,0,.85.94C345.12,141,345.05,140.84,345,140.65Z"/><path class="cls-2" d="M327.81,137.63c-.06.09-.15.16-.14.23s.08.16.13.24.11-.09.11-.13A3.09,3.09,0,0,0,327.81,137.63Z"/><path class="cls-6" d="M345,140.65c.08.19.15.38.22.56C345.12,141,345.05,140.84,345,140.65Z"/><path class="cls-6" d="M343.71,130.2l.11.13c0-.05.09-.1.08-.15s-.06-.1-.1-.14Z"/><path class="cls-2" d="M334.21,141.41c-.2-.18-.11-.8-.47-.59s0,.56.25.81A.66.66,0,0,0,334.21,141.41Z"/><path class="cls-2" d="M256.07,37.37c-.07.08-.15.13-.18.2s0,.13,0,.18c.08.2.18.2.23,0S256.1,37.51,256.07,37.37Z"/><path class="cls-2" d="M244.28,41.85c0,.1.07.2.11.3s.09-.1.08-.14-.07-.2-.1-.3Z"/><path class="cls-2" d="M273.52,31.89l-.35-.23.12.46Z"/><path class="cls-2" d="M264.84,35.64s-.11.1-.11.15.08.09.12.13.11-.1.1-.14S264.88,35.69,264.84,35.64Z"/><path class="cls-2" d="M272.13,39.3l.42.23c0-.18-.05-.35-.07-.53Z"/><path class="cls-2" d="M272.73,40.17l.12.14c0-.05.11-.1.11-.15s-.08-.09-.12-.13Z"/><path class="cls-2" d="M472.08,247.47c.21.27.37.68.84.38l-.55-.67Z"/><path class="cls-2" d="M407.94,244.62c.05-.06.14-.11.13-.15a2.47,2.47,0,0,0-.11-.36s-.14.1-.13.14A2.59,2.59,0,0,0,407.94,244.62Z"/><path class="cls-2" d="M417.58,243.41l.45.55c.27-.32.09-.58-.13-.83Z"/><path class="cls-2" d="M410.69,240.73l-.37-.57c-.25.29-.12.56.05.84Z"/><path class="cls-2" d="M440.42,239c.15.12.23.49.48.29s.05-.43-.16-.59Z"/><path class="cls-2" d="M431.6,234.27c-.14-.17-.2-.58-.47-.38s0,.44.24.56Z"/><path class="cls-2" d="M471.7,247.11l.38.35.29-.28c-.11-.15-.22-.31-.34-.46Z"/><path class="cls-2" d="M418.28,244.64l.12.11c0-.05.08-.09.08-.14s-.07-.07-.11-.11Z"/><path class="cls-2" d="M431,242.9l.34.23-.12-.45Z"/><path class="cls-2" d="M160.22,236.66c-.14.15-.26.31,0,.47,0,0,.18-.15.27-.22Z"/><path class="cls-2" d="M172.23,231.39l.11-.45-.38.2A1.6,1.6,0,0,0,172.23,231.39Z"/><path class="cls-2" d="M93.52,242.27l.12.35c0-.06.12-.11.11-.16a1.35,1.35,0,0,0-.11-.34Z"/><path class="cls-2" d="M84.08,241.51c-.21.19-.39.54-.15.65s.28-.27.35-.47Z"/><path class="cls-2" d="M71.71,240.36c-.23.22-.44.44-.17.76l.48-.48Z"/><path class="cls-2" d="M62.46,236.72c-.21.18-.36.46-.16.62s.34-.17.49-.3Z"/><polygon class="cls-2" points="31.5 246.69 31.52 246.57 31.43 246.59 31.5 246.69"/><path class="cls-2" d="M32.08,245.62l-.21.36.35-.18Z"/><path class="cls-2" d="M32.41,245.15l-.33.47.14.18.48-.35Z"/><path class="cls-2" d="M81,236.41l.2-.11s-.08,0-.1,0a.4.4,0,0,0-.07.13Z"/><path class="cls-2" d="M71.11,232.93l.15-.48-.45.18Z"/><path class="cls-2" d="M71.51,231.86l.1.11s.09-.08.09-.12-.07-.07-.1-.11Z"/><path class="cls-2" d="M182.24,80.3c-.11-.06-.23-.15-.32-.13s-.13.16-.19.25c.09,0,.2.12.28.1S182.16,80.38,182.24,80.3Z"/><path class="cls-2" d="M198.57,85.27l.12.29s.09-.11.09-.15a1.6,1.6,0,0,0-.13-.3Z"/><path class="cls-2" d="M182.71,87.57c-.21.18-.37.51-.15.63s.28-.25.37-.44Z"/><path class="cls-2" d="M149.82,93.55l-.12.44.32-.24Z"/><path class="cls-2" d="M239.63,138.08c-.24.32-.42.92-.14,1,.46.12.26-.5.4-.78Z"/><path class="cls-2" d="M221.62,137.7c-.22.24-.4.49-.13.8l.45-.53Z"/><path class="cls-2" d="M221,130.23l.26-.16-.16-.19-.16.29Z"/><path class="cls-2" d="M166.59,141.53a2,2,0,0,0-.06.32c0,.05.06.09.1.13a1.67,1.67,0,0,0,.08-.32S166.64,141.58,166.59,141.53Z"/><path class="cls-2" d="M149.62,140.58l.16.3c.05-.11.14-.21.14-.31s-.09-.2-.14-.3Z"/><path class="cls-2" d="M139.17,131.82a3.82,3.82,0,0,0,.3-.44s-.12-.12-.18-.18l-.22.5Z"/><path class="cls-2" d="M132.21,135.69c-.2.18-.35.5-.15.64s.33-.21.48-.35Z"/><path class="cls-2" d="M108.14,143.69l-.37.83.12.12.61-.62Z"/><path class="cls-2" d="M107.77,144.52a.47.47,0,0,0-.21.6s.08.09.12.13l.21-.61Z"/><path class="cls-2" d="M139.75,139.23c0,.17-.13.44-.07.48.22.15.26-.1.34-.23A3.2,3.2,0,0,0,139.75,139.23Z"/><path class="cls-2" d="M139.07,131.7l-.42.39.3.28c.07-.18.15-.37.22-.56Z"/><path class="cls-2" d="M139.25,140.41l.11.11c0-.05.09-.09.08-.13s-.06-.08-.1-.12Z"/><path class="cls-8" d="M194.46,266.08v.05l0,0Z"/><g class="cls-11"><path class="cls-12" d="M3.9,263.13h0l1.49,1.11A1.46,1.46,0,0,0,3.9,263.13Z"/><path class="cls-12" d="M88.77,263.85l-.3.33,0,.25A6.65,6.65,0,0,1,88.77,263.85Z"/><path class="cls-12" d="M150.23,264.87a3.29,3.29,0,0,0-.54.76h0Z"/><path class="cls-12" d="M247.37,268a2.18,2.18,0,0,0-.61-.25Z"/><path class="cls-12" d="M247.37,268l.18.13.29.07Z"/></g><path class="cls-5" d="M211.69,293.54c.47-1.52,2.55-4.08,4-4.57,9.85-3.39,20.06-4.7,30.4-5.18a100.18,100.18,0,0,1,12,.29c5.91.45,11.82.94,17.55,2.52,4.17,1.15,8.12,2.92,10.82,6.46a46.87,46.87,0,0,1,8.24,18.27c3.18,13.83,4,27.92,4.36,42,.29,11.08,0,22.15-.63,33.21-.36,6.65-.8,13.3-1.12,19.95-1.51,1.91-6.78,2.69-8.6,1.31-.82-.62-.56-1.39-.44-2.17.4-5.37,1.07-10.74,1.15-16.12.15-9.87.39-19.74-.21-29.61-.45-7.24-1.12-14.45-2.05-21.64a369.17,369.17,0,0,0-7.49-39.15,4.37,4.37,0,0,0-3.16-3.39A51.37,51.37,0,0,0,260.82,293a101.33,101.33,0,0,0-15.56.69,197.52,197.52,0,0,0-24.49,4.5c-.82.2-1.57.44-1.49,1.51,0,0,1.81,107.81-.48,108.32s-6.61,1.52-8.39-.77S207.91,305.61,211.69,293.54Z"/><path class="cls-8" d="M411.47,278.37c-2-1.66-3.87-3.44-5.66-5a28,28,0,0,1,.37,5.29c-.05,1.33.1,2.74-1.32,3.54s-2.74,0-3.91-.72c-3.63-2.22-6.33-5.49-9.3-8.46-.17-.18-.32-.38-.8-1a13.42,13.42,0,0,1,.09,6.13c-.69,2.45-2,3.14-4.29,2-3.7-1.81-6.16-5.06-8.87-8-1.49-1.59-2.79-3.35-4.52-4.95.21,1.52.4,3,.64,4.54a20.44,20.44,0,0,1,.09,5.79c-.38,3-2.06,3.67-4.61,2s-4.24-4-6.12-6.26c-1.14-1.35-2.21-2.77-3.51-4.1a60,60,0,0,1,.31,7.91,4.92,4.92,0,0,1-1.68,4.09L376,283.27c.9.1,1.93.14,1.67-1.22-.37-2,.88-2.36,2.36-2.64,3.17-.61,5.46.39,6,2.84a3.52,3.52,0,0,0,1.26,2.09c1.53,1.37,1.92,6.18.3,7-2.32,1.16-1.43,2.88-1.32,4.35.52,7,1.39,13.91,1.79,20.89a85.87,85.87,0,0,1-1.8,21.85c-.23,1.13-.2,1.89,1,2.58,1.75,1,2,3.51,1.2,6.39-.54,1.89-2,1.24-3.1,1.23s-1.71.21-1.71,1.52c0,1.52-.88,2.25-2.46,2.2a10.14,10.14,0,0,1-3.14-.53c-1.13-.39-1.92-.94-1.4-2.34.42-1.11,0-1.55-1.18-1.59-5.93-.22-11.85-.7-17.78-.73-9.41-.07-18.82-.41-28.23.23-1.62.11-2.28.48-1.69,2.09.44,1.24-.08,1.9-1.22,2.27a9.65,9.65,0,0,1-2.72.59c-2.44.05-3-.32-3.07-2.79-.07-1.55-.91-2-2.06-1.57-1.69.58-2.13-.36-2.48-1.59a10.25,10.25,0,0,1-.56-2.53c0-1.22.25-2.61,1.75-2.74s1.1-.89.94-1.73a101.14,101.14,0,0,1-2-18c-.09-8.61,1.21-17.13,1.78-25.69.1-1.46,2-4.22-1.62-4.64-.14,0-.21-.46-.34-.7a8.81,8.81,0,0,1-.77-2.67c-.3-1.78-.13-3.25,2-3.55.7-.1.79-.48.9-1.07.64-3.45,5.26-5.22,7.95-3a1.22,1.22,0,0,1,.42.84c-.08,1.53.85,1.34,1.84,1.15a85.51,85.51,0,0,1,14.89-1.49q6.5-.06,13,.41c-4.43-2.84-7-7.37-10.32-11.32.31,1.71.18,3.41.43,5.08a6,6,0,0,1,0,2.15c-.72,3.66-1.89,4.17-5,2.1-3.6-2.44-6.06-6-8.78-9.23-.29-.35-.45-.84-1.2-.93.21,1.46.4,2.86.63,4.26a9.76,9.76,0,0,1,0,3.77c-.65,2.74-1.93,3.25-4.33,1.8a33.31,33.31,0,0,1-7.5-6.86c-1.13-1.28-2.23-2.59-3.47-3.8.36,2.33,1.28,4.47,1.58,6.78.25,1.92.95,4.08-.89,5.38s-3.52-.12-5.12-1.08a54.59,54.59,0,0,1-10-8.21,11.47,11.47,0,0,0-1.81-1.81c.07,2.51.6,4.77.5,7.1-.15,3.37-1.7,4.33-4.63,2.74-3.42-1.86-5.75-4.94-8.41-7.65-1-1-1.81-2.1-2.8-3.27-.5,2.27-.94,4.38-1.41,6.48a7.11,7.11,0,0,1-.43,1.33c-1.48,3.32-3.41,3.68-5.91,1a28.37,28.37,0,0,1-4.51-7.06c-.41-.82-.84-1.64-1.4-2.73-.76,2.66-1.41,5.06-2.13,7.44a9.72,9.72,0,0,1-2,3.88c-1.4,1.56-2.49,1.48-3.7-.24-1.93-2.74-2.52-6-3.55-9.09-.12-.37-.12-.78-.61-1.07A50.77,50.77,0,0,1,255.7,276a3.79,3.79,0,0,1-.2.34c-1.07,1.33-1.87,3.17-3.92,3s-2.48-2.15-3.08-3.75a40.21,40.21,0,0,1-1.71-8.24c-1.49,1.42-2.14,3.15-3.1,4.66a26.38,26.38,0,0,1-4.44,5.63c-2.46,2.21-4.35,1.64-5.3-1.54-.8-2.7-.64-5.53-1.12-8.64-.83,1.72-1.53,3.21-2.27,4.68-1.17,2.33-2.27,4.7-4.25,6.49-1.73,1.58-2.82,1.43-3.87-.69-1.64-3.31-1.42-7-2.05-10.8-1.17,1.93-2.23,3.7-3.3,5.48a26.15,26.15,0,0,1-4.87,6.06c-2.08,1.88-3.57,1.45-4.27-1.28-.56-2.16-.2-4.38-.26-6.58,0-1.13,0-2.26,0-3.8-1.74,2.6-3.24,5-4.86,7.23a15.53,15.53,0,0,1-4.21,4.49c-1.85,1.17-3.17.7-3.74-1.43-.81-3-.28-6.11-.39-9.16,0-.66,0-1.31,0-2-2.08,2.91-3.74,6.11-6.05,8.85a22.74,22.74,0,0,1-2.63,2.74c-1.79,1.5-3.41.92-3.64-1.4a29.89,29.89,0,0,1,.09-7.38c.11-.7.16-1.4.3-2.62-1.72,2.36-3.06,4.3-4.51,6.16a19.78,19.78,0,0,1-4.86,4.71c-2.85,1.81-5.08,1.21-6.51-1.8a20.33,20.33,0,0,1-1.24-3.37c-.32-1.15-.48-2.34-.76-3.8-2.15,1.81-3.88,3.9-6,5.5a22.88,22.88,0,0,1-4.89,3.08c-2.68,1.08-4.07.11-4.18-2.77a23.64,23.64,0,0,1,.57-5.75c.16-.71.2-1.44.29-2.16l-.05-.05c-2.46,2.52-4.5,5.41-7.12,7.8a19.89,19.89,0,0,1-3.33,2.53c-2.23,1.31-4,.52-4.28-2.08a23.56,23.56,0,0,1,.49-7.34c.23-1.23.43-2.46.74-4.25a87.85,87.85,0,0,1-8.32,9.75,14.25,14.25,0,0,1-4,2.91c-2.3,1-3.61.18-4.23-2.26-.74-2.92,0-5.8.11-9.35l-4.09,4.7a26.24,26.24,0,0,1-7.64,6.63c-2.39,1.23-4.25.16-4.35-2.57a21.38,21.38,0,0,1,.28-6.18,2.41,2.41,0,0,0-.22-2.17c-3.36,2.88-6.3,6.15-9.89,8.66a9.14,9.14,0,0,1-4,2.06c-1.47.18-2.15-.32-2.26-2-.19-2.68,1-5.07,1.32-7.63l-.12-.11c-1.64,1.16-2.64,2.92-4,4.3-1.54,1.54-3.15,3-4.73,4.5-.21,5.87.18,11.74.51,17.58Q82,306.84,83.75,322c1,8.52,2.1,17,3.39,25.49,1.58,10.44,3.37,20.85,5.51,31.2,1.14,5.52,2,11.11,3.62,16.53,7.88,1.19,15.75,2.45,23.64,3.55s15.68,2,23.52,3c4.95.6,9.92,1.05,14.87,1.56l54.91,1.91-1.09-107.83c.39-1.89.91-3.76,1.13-5.67a3,3,0,0,1,2.41-2.75c9.85-3.39,20.06-4.7,30.4-5.18a100.18,100.18,0,0,1,12,.29c5.91.45,11.82.94,17.55,2.52,4.17,1.15,8.12,2.92,10.82,6.46a46.87,46.87,0,0,1,8.24,18.27c3.18,13.83,4,27.92,4.36,42,.29,11.08,0,22.15-.63,33.21-.36,6.65-.8,13.3-1.12,19.95,12.35-.87,24.65-2.24,37-3.62,14-1.56,27.87-3.42,41.78-5.37,9.55-1.35,19.07-2.9,28.6-4.36.58-2.52,1.2-5,1.73-7.55q4-19.14,7-38.48c1.47-9.73,2.76-19.49,3.76-29.29,1.1-10.81,2.13-21.61,2.35-32.47a6.66,6.66,0,0,1,.43-2.35C416.29,282.86,414,280.45,411.47,278.37Zm-231.95,68c-.51,2-2,1.32-3.21,1.08-1.1-.21-1.3.4-1.29,1.27a2.26,2.26,0,0,1-3,2.45c-1.54-.35-2.44.27-2.4-2.5,0-1.34-2.09-1.85-3.34-1.89-9.57-.3-19.13-.65-28.7-1v.49c-5.16,0-10.32,0-15.48,0-.68,0-3.17-.36-3,1,.14,1.05,1.19,3.09-.47,3.68a4.55,4.55,0,0,1-2.06.28c-1.45.08-2.69-.57-2.64-2.3s-.67-2.31-2.26-2.08-2-.79-2.28-2c-.39-1.56-.91-2.65.87-3.3s1.47-2.49,1.19-3.83c-.35-1.63-.56-3.28-.8-4.92a108.31,108.31,0,0,1-.42-22.91c.37-5.31,1.32-10.57,1.22-15.91,0-1,.18-1.76-1.19-2.32-1.89-.77-2.25-5.32-.56-6.2a4.71,4.71,0,0,0,2.31-3c.65-1.78,2.22-2.26,3.84-2.15,1.39.1,1.16-.19,1.72,1.53.42,1.27,3,1.14,4,1,6.75-.84,13.47-1.61,20.34-1.27,7.91.39,15.67,1.91,23.56,2.34,1.86.1,5.72,1,5.5-2.12,0-.25.28-.6.53-.79,2.4-1.84,4.5-.68,5.5,2.17a5.75,5.75,0,0,0,1.27,2.1c1.48,1.6,1.8,5.48.23,6.88a3.43,3.43,0,0,0-1.08,3.3c.47,5.8,1.17,11.58,1.45,17.39a97.33,97.33,0,0,1-1.48,24.86c-.25,1.16-.36,2.31.77,3.09C180.53,342.34,180.08,344.16,179.52,346.38Z"/><path class="cls-13" d="M218.94,406.33a377.63,377.63,0,0,0,61.92-.19c2.46-.21,4.92-.32,7.38-.48.4-5.37,1.07-10.74,1.15-16.12.15-9.87.39-19.74-.21-29.61-.45-7.24-1.12-14.45-2.05-21.64a369.17,369.17,0,0,0-7.49-39.15,4.37,4.37,0,0,0-3.16-3.39A51.37,51.37,0,0,0,260.82,293a101.33,101.33,0,0,0-15.56.69,197.52,197.52,0,0,0-24.49,4.5c-.82.2-1.57.44-1.49,1.51.28,2.24-.14,4.46-.05,6.72.36,9.46.17,18.93.38,28.4.24,11.32.52,22.67-.24,34-.34,5.11-.25,10.26-.3,15.38C219,391.57,217.84,399,218.94,406.33Z"/><g class="cls-14"><path class="cls-10" d="M252.57,283.26a53.8,53.8,0,0,1,15.4,1c.14,1.34.38,2.68.42,4,.23,6.53-.13,13.06.43,19.6.53,6.26-.07,12.57.47,18.88.56,6.58-.09,13.21.49,19.84.54,6.34-.09,12.73.47,19.11s.14,12.74.45,19.12c.55,11.23.44,22.49.6,33.73l-17.3.28c.06-3.11-.31-6.21-.38-9.3-.41-18.2,0-36.4-.42-54.61-.54-22.11,0-44.24-.6-66.36C252.55,286.78,252.58,285,252.57,283.26Z"/><path class="cls-10" d="M217.13,289.84c2-2.11,4.89-1.45,7.29-2.29.44-.15,1,0,1.29-.48l8.14-1.06c0,1.12,0,2.24,0,3.35q0,64.58,0,129.14l-.71.05c-1.18,1.07-2.62.38-3.93.59a45.38,45.38,0,0,0-10.86.39c-.87-.45.18-1.69-.86-2.07,1.31-8.83-.09-17.66-.16-26.48,0-6.13.06-12.29-.35-18.41-.91-13.56-.58-27.15-.29-40.7.25-11.33,0-22.67.46-34C217.3,295.18,216.8,292.52,217.13,289.84Z"/><path class="cls-10" d="M269.82,284.35c2.83.44,5.66.91,8.49,1.32a2.29,2.29,0,0,1,2.07,2.22c2.78,17.24,5.45,34.49,7.85,51.79,3,21.41,2.26,42.88,2.11,64.36,0,3.27-.39,6.54-.22,9.81-.46,4.58-.46,4.59-5.28,4.62-3.87,0-7.75,0-11.62,0C271.77,373.8,270.75,329.07,269.82,284.35Z"/><path class="cls-10" d="M235.77,285.66a105.51,105.51,0,0,1,15.4-2.36c.19,11.72.23,23.45.29,35.17.17,27.3.66,54.6.65,81.91q0,9.22,0,18.45l-16.35.12Q235.78,352.3,235.77,285.66Z"/><path class="cls-15" d="M235.77,285.66q0,66.64,0,133.29c-.66.07-1.34.36-1.93-.22a.2.2,0,0,0,.05-.23q0-64.56,0-129.14c0-1.11,0-2.23,0-3.35A3.2,3.2,0,0,1,235.77,285.66Z"/><path class="cls-16" d="M252.13,418.83q0-9.22,0-18.45c0-27.31-.48-54.61-.65-81.91-.06-11.72-.1-23.45-.29-35.17l1.4,0c0,1.76,0,3.52,0,5.27.63,22.12.06,44.25.6,66.36.45,18.21,0,36.41.42,54.61.07,3.09.44,6.19.38,9.3A3,3,0,0,1,252.13,418.83Z"/><path class="cls-16" d="M269.82,284.35c.93,44.72,1.95,89.45,3.4,134.16a1.46,1.46,0,0,1-1.92,0c-.16-11.24-.05-22.5-.6-33.73-.31-6.38.11-12.78-.45-19.12s.07-12.77-.47-19.11c-.58-6.63.07-13.26-.49-19.84-.54-6.31.06-12.62-.47-18.88-.56-6.54-.2-13.07-.43-19.6,0-1.34-.28-2.68-.42-4Z"/></g><rect class="cls-13" x="116.91" y="287.95" width="56.35" height="54.63"/><path class="cls-13" d="M378.44,317.84c-7-.28-14.08-.51-21.12-.86-1.68-.08-2.2.47-2.11,2.13.34,6.24.57,12.48.84,18.72,6.66.78,13.33,1.54,20,2.34,1.11.13,1.61-.24,1.66-1.38.1-2.59.39-5.18.37-7.77C378,326.62,378.74,322.24,378.44,317.84Z"/><path class="cls-13" d="M355.68,290.22c-.22,5.31-.59,10.62-.47,15.95,0,1.22.38,1.92,1.64,2,7.21.44,14.35,1.84,21.61,1.6q.15-8.56-.32-17.13c-.09-1.65-1.22-1.58-2.2-1.62q-6.56-.33-13.13-.48A45.9,45.9,0,0,1,355.68,290.22Z"/><path class="cls-13" d="M347.19,337.4c-.38-4.09-1.11-8.13-1.39-12.24-.15-2.13-.17-4.26-.14-6.38,0-1.43-.48-1.84-1.86-1.79-5.92.2-11.84.32-17.77.47-.16,6.84.46,13.66.73,20.49.06,1.43,1,1.2,1.83,1A91.36,91.36,0,0,1,347.19,337.4Z"/><path class="cls-13" d="M326,309c4.24-.15,8.39-1.15,12.63-1.41,2.06-.13,4.12-.15,6.17-.16,1.18,0,1.56-.35,1.67-1.58.49-5.22,1.29-10.4,1.14-15.66-6.59,0-13.18-.18-19.76.32-1.11.08-1.46.41-1.51,1.52C326.05,297.67,325.89,303.33,326,309Z"/><path class="cls-5" d="M121.49,347.2c-.7,0-1.65-.25-1.48,1.11.14,1.08.95,2.45-.77,3.05a12.85,12.85,0,0,1-3.45.91c-1.5.08-2.77-.59-2.71-2.37s-.7-2.37-2.33-2.14-2-.81-2.35-2.08c-.4-1.61-1.05-3.67.78-4.34s1.63-1.62,1.34-3c-.36-1.67-.58-3.36-.82-5.06a112.05,112.05,0,0,1-.44-23.59c.38-5.46,1.37-10.88,1.26-16.38,0-1,.19-1.8-1.23-2.38-1.93-.79-2.32-5.48-.57-6.39a4.82,4.82,0,0,0,2.38-3.06c.67-1.83,2.28-2.33,4-2.21,1.44.1,3.41-.23,4,1.54.42,1.31.87,1.2,1.95,1.07,7-.86,13.87-1.66,20.94-1.31,8.14.41,16.14,2,24.26,2.42,1.91.1,3.91,1.07,3.68-2.19,0-.26.3-.62.55-.81a5.12,5.12,0,0,1,7.63,2.23,6,6,0,0,0,1.31,2.17c1.52,1.64,1.85,5.64.24,7.08a3.53,3.53,0,0,0-1.12,3.4c.49,6,1.22,11.92,1.5,17.89.41,8.57.25,17.14-1.53,25.59a2.07,2.07,0,0,0,1.05,2.6c2.34,1.6,1.64,4.06,1.06,6.34-.53,2.09-2,1.37-3.31,1.12-1.13-.22-1.33.41-1.33,1.31a2.31,2.31,0,0,1-3,2.51c-1.58-.35-4.15.14-4.11-2.72,0-1.37-.51-1.75-1.8-1.8C157.12,347.4,126.8,347.18,121.49,347.2Zm48.82-54.28c-.06-1.23-.32-1.88-1.72-1.9-6.32-.11-12.61-.85-18.94-.5-2.38-1-4.86-.35-7.29-.41-7.35-.3-14.68,0-22,.36-1.18.06-1.61.46-1.68,1.66-.38,6.65-.59,13.3-.39,20,0,2.46,0,4.91.07,7.36.22,6,.2,12,.79,17.94.15,1.49.85,1.73,2,1.46,6.66-1.53,13.42-1.55,20.2-1.51l8.81.54c5.22.67,10.45,1.32,15.67,2,3.35.44,3.54.29,4-3.12.73-5.76.41-11.56.82-17.33q0-3.92.07-7.83C170.91,305.37,170.6,299.15,170.31,292.92Z"/><path class="cls-10" d="M170.64,319.44q0-3.92.07-7.83c-6.09.48-12.09-.63-18.13-1.06-2-.14-3.15-.79-3-3.31.26-5.56.09-11.15.1-16.72-2.38-1-4.86-.35-7.29-.42-.16,3.75-.08,7.53-.58,11.23-.27,2-.2,4.08-.58,6.09-.31,1.6-.95,2.21-2.7,2.21a94.44,94.44,0,0,0-20.22,2.46c0,2.46,0,4.91.07,7.36q9.95-.3,19.91-.6c1,0,2.2-.13,2.09,1.46-.39,5.72.77,11.35,1,17l8.81.54c-.25-5.47-.68-10.94-.6-16.43,0-2,.45-2.75,2.58-2.64C158.31,319.12,164.48,319.24,170.64,319.44Z"/></svg>