<svg id="Layer_1" data-name="Layer 1" xmlns="http://www.w3.org/2000/svg" viewBox="0 0 328.93 166.75"><defs><style>.cls-1{fill:#00c200;}.cls-2{fill:#00b800;}.cls-3{fill:#00b100;}.cls-4{fill:#00cb00;}.cls-5{fill:#00a600;}</style></defs><title>9_all_the_forest_trees</title><path class="cls-1" d="M211.67,28.71a7.68,7.68,0,0,0,1.86-1.07,18,18,0,0,1,13.68-3.77c.51.07.72-.05.88-.51a23.13,23.13,0,0,1,1.76-3.86c5-8.95,14.55-12.42,24.18-8.8a22,22,0,0,1,6.9,4.07,15.43,15.43,0,0,1,4.93,7.64,29.32,29.32,0,0,1,3.91-2.62c5.67-2.87,11.31-3.14,16.51.86s6.58,9.53,5.19,15.79c-.23,1,0,1.12.91,1.13a28.16,28.16,0,0,1,10.83,2.11,17.47,17.47,0,0,1,10.5,19.51,25.33,25.33,0,0,1-4.53,10.73c-.47.64-.33.9.23,1.35,4.2,3.35,7.19,7.48,8,12.92a14.6,14.6,0,0,1-.32,6.27c-.38.13-.62-.13-.85-.35a9.56,9.56,0,0,0-9-2.54c-2.15.4-2,.44-2.44-1.68-1.3-6-5.26-9.9-11-10.94a10.72,10.72,0,0,0-4.33.12,17.47,17.47,0,0,0-8.44,4.08,10.73,10.73,0,0,0-3.05,11.07c.46,1.83.48,1.85-1.14,2.68-5.3,2.7-7.66,7.21-8,12.95-.1,1.48-.07,1.54-1.42,1.89a18.86,18.86,0,0,0-8.82,5.17,2,2,0,0,1-.89.61,2.06,2.06,0,0,1-1.34-.38,30.69,30.69,0,0,1-12.71-11.74,20.31,20.31,0,0,1-2-4.59,1.21,1.21,0,0,0-1.6-1,5.23,5.23,0,0,1-3.2-.13c-.07-.56.31-1,.56-1.38a10,10,0,0,0-1.5-12.17,17.94,17.94,0,0,0-2.73-2.49,8.61,8.61,0,0,0-10.29.08l-.88.64a1,1,0,0,1-1.45-.08c-3.65-3.28-7.79-3.58-12.21-2a1.44,1.44,0,0,1-1.88-.52,15.33,15.33,0,0,0-12-5.82,2.25,2.25,0,0,1-1.37-.24c0-1.5-.67-2.87-.81-4.35A18.74,18.74,0,0,1,197,52.56a21.59,21.59,0,0,1,10.59-6.34c1.17-.33,1.17-.36.81-1.48a16.51,16.51,0,0,1-.55-9.21,13.78,13.78,0,0,1,3.22-6C211.27,29.3,211.59,29.09,211.67,28.71Z"/><path class="cls-2" d="M257.52,113.36a25.16,25.16,0,0,1,6.15-4.6,20.27,20.27,0,0,1,4-1.41c.62-.16.78-.42.8-1a15.81,15.81,0,0,1,3.22-9.71A14.36,14.36,0,0,1,277,92.46c.83-.38,1.06-.68.78-1.61-1.45-4.68-.46-8.82,3.19-12.14a17.39,17.39,0,0,1,8.58-4,13.25,13.25,0,0,1,15.09,9.75,19,19,0,0,1,.58,2.31c.09.67.23.82.95.65a11.41,11.41,0,0,1,7.61.54,17,17,0,0,1,3.27,2.46,13,13,0,0,1,3,10.24c-.22,1.4.22,1.88,1.33,2.49,3.83,2.1,6.54,5.17,7.32,9.61,1.36,7.82-4.25,15.26-9.7,16.28-.79.15-.44.5-.21.88,1.78,2.92,2.71,6,1.85,9.45-1.43,5.73-7.31,8.91-13.24,7.2a2,2,0,0,1-.41-.13c-.74-.37-1-.28-1.11.67a18.42,18.42,0,0,1-1.34,5.59c-2.81,7-9.5,10-16.66,7.43a14.33,14.33,0,0,1-4.65-2.53c-.24-.22-.61,0-.82-.22-.86-.87-1.42-.3-2.06.33-5.43,5.41-13.47,5.56-18.85.16A13.46,13.46,0,0,1,258,143.48c.12-.38.25-.76.38-1.13a15.19,15.19,0,0,1,1.85-3.07c.52-.62.46-1-.27-1.43a17.32,17.32,0,0,1-5-4,13,13,0,0,1-2.32-12.3,20.58,20.58,0,0,1,4-7.44A3,3,0,0,1,257.52,113.36Z"/><path class="cls-2" d="M211.67,28.71c.85.32,0,.56-.09.68A14.16,14.16,0,0,0,209,33a14.44,14.44,0,0,0-.82,10.12,7.67,7.67,0,0,0,.57,1.87c.55,1,.09,1.19-.77,1.41-5.7,1.44-10.3,4.47-13.24,9.64a17.32,17.32,0,0,0-1.53,14.62.82.82,0,0,1-.27,1c-.41.39-.95.33-1.44.43-5,1-8,4.23-8.51,9.29,0,.22,0,.44-.07.65-.17,1-.42,1.18-1.4,1a11.69,11.69,0,0,0-6.34.29,10.59,10.59,0,0,0-6.39,13.38c.19.53.58,1,.38,1.65a1.18,1.18,0,0,1-.92.23c-3.2-.25-6.25-.94-8.76-3.13a2.86,2.86,0,0,1-1.08-1.32c-4-4.47-4.55-9.55-2.68-15,.21-.59.22-.85-.49-1-10.1-2.38-10.18-13.38-5.67-18.87a1.29,1.29,0,0,0,.05-1.89c-2.86-4.36-3.86-9-1.63-13.92A15.31,15.31,0,0,1,162,34.6a21.77,21.77,0,0,1,2.63.47c-.26-5.74,1.22-10.62,7.12-12.73,4.76-1.71,8.72.09,12.06,3.74.39-.53.76-1.06,1.16-1.57,2.4-3.08,5.23-5.57,9.16-6.45a12.13,12.13,0,0,1,10.18,2.27,16.29,16.29,0,0,1,5.66,7.45C210.31,28.77,210.72,29.09,211.67,28.71Z"/><path class="cls-3" d="M158.44,94.14c.63.53,1.23,1.09,1.89,1.59a14.72,14.72,0,0,0,8.86,2.58c.47-.07.61.33.82.6a11.58,11.58,0,0,0,4.79,3.65c1.24.52,1.29.63,1,2a13.32,13.32,0,0,0,.3,7.83A9.62,9.62,0,0,0,187,118.43c1-.16,2-.41,3-.62s1.21,0,1.35,1c.54,4,3,6.63,6.89,7.21,2.93.43,5.27-.9,7.24-3,.1-.1.18-.23.27-.34,1.31-1.7,1.65-1.67,2.75.26.6,3.86-1.56,7-4.92,9.22a7.48,7.48,0,0,1-2.49,1.08,1.2,1.2,0,0,0-1,1.28,13.38,13.38,0,0,1-1.28,4.69c-1.92,4.07-6.69,6.09-10.63,5.85a1.3,1.3,0,0,1-.8-.28c-1-.26-2-.46-2.93-.8a8.92,8.92,0,0,1-4.41-3.27c-.53.65-1,1.33-1.59,1.92-2.44,2.51-5.36,3.67-8.79,2.53s-5.23-3.76-5.61-7.32c-.08-.77-.33-.76-1-.57a14.14,14.14,0,0,1-7.41.45,9.88,9.88,0,0,1-7.53-9.19,12.58,12.58,0,0,1,.48-5c.28-.85.12-1.16-.7-1.49a10.35,10.35,0,0,1-6.62-7A10.83,10.83,0,0,1,153,101.71c.81.11,1.84.63,2.38.31s.3-1.54.46-2.35A11.49,11.49,0,0,1,158.44,94.14Z"/><path class="cls-1" d="M187.28,144.77a13.11,13.11,0,0,0,7-1.43,10.11,10.11,0,0,0,5.2-7.47,1.82,1.82,0,0,0,0-.33c0-1.55.57-2.36,2.28-2.95a9.36,9.36,0,0,0,6.33-7,15.12,15.12,0,0,0,.1-2.6.71.71,0,0,1,.71.18,12.36,12.36,0,0,0,8.24,2.11,1.43,1.43,0,0,1,.65,0,1.15,1.15,0,0,1,.3.79c.9,6.25,7,9.75,13,8.18.59-.16,1.18-.37,1.77-.53a.78.78,0,0,1,1.11.68c0,.21.1.42.14.64.93,5.61,4.39,9.14,9.52,11s9.63.7,13.6-2.92c.38-.35.65-.91,1.32-.82a16.61,16.61,0,0,0-1.1,5.83,13.61,13.61,0,0,0,3.31,8.52,13.26,13.26,0,0,0,8.16,4.71,12.48,12.48,0,0,0,7.86-1.4,13,13,0,0,0,3.91-3.06c.51-.58.95-.78,1.45-.05.26.39.74.42,1.05.73-.37-.17-.6.07-.86.26-5.11,3.88-11,5.15-17.25,4.87a27.69,27.69,0,0,1-14.75-4.68c-.42-.29-.83-.59-1.23-.91-1.49-1.19-1.48-1.18-3.11-.07-6.75,4.64-13.88,5.84-21.51,2.29-.75-.35-1.53-1.12-2.18-1s-1,1.18-1.46,1.8c-3.32,4.05-7.45,6.54-12.83,6.56a17.17,17.17,0,0,1-6.36-1.3A27.33,27.33,0,0,1,193,160,17.92,17.92,0,0,1,187.28,144.77Z"/><path class="cls-4" d="M217.83,125.36a11.52,11.52,0,0,1-9.17-2.08c-.14-.11-.28-.22-.43-.32-1.26-1.58-1.23-1.56-2.4,0-1.83,2.43-5.56,4.14-8.75,3.18a8.25,8.25,0,0,1-6.06-7.4c-.05-.72-.28-.85-1-.66a15.27,15.27,0,0,1-6.95.56,9.73,9.73,0,0,1-7.82-7.89,15,15,0,0,1,.31-6.66c.15-.55.13-.85-.48-1.07a12,12,0,0,1-5.94-4.69,10.84,10.84,0,0,1,4.31-14.55,10.71,10.71,0,0,1,7.87-1.06c1.22.28,1.29.22,1.35-1.11A10.32,10.32,0,0,1,193,71.7a16.86,16.86,0,0,1,11.61,3.73,8.62,8.62,0,0,1,2.12,2.31c.46.78.91.53,1.52.3a11.84,11.84,0,0,1,9.88.24,8.54,8.54,0,0,1,2.56,1.82c.33.37.56.5,1,.09a10.09,10.09,0,0,1,6.09-2.52,7.07,7.07,0,0,1,3.77.8c3.79,2.06,6.67,4.89,7.36,9.35a10.46,10.46,0,0,1-2.12,7.87c-.37,1.39-1.61,2-2.63,2.77-.71.52-.72.82-.23,1.51a8.27,8.27,0,0,1-1,11,10.68,10.68,0,0,1-5,3.09c-.71.18-.85.62-.91,1.27a11,11,0,0,1-4.53,8.44,10.41,10.41,0,0,1-3.54,1.64C218.6,125.5,218.2,125.67,217.83,125.36Z"/><path class="cls-5" d="M217.83,125.36a10.13,10.13,0,0,0,8.69-8.62c.26-1.69.53-2.79,2.54-3.46a8.94,8.94,0,0,0,6.07-6.83,7.82,7.82,0,0,0-1.74-6.79c-.45-.58-.35-.77.2-1.11a12.88,12.88,0,0,0,3.21-2.86,16.43,16.43,0,0,0,3.57-.2,1,1,0,0,1,1.36.85A25.09,25.09,0,0,0,250,108.56a32.59,32.59,0,0,0,6.65,4.45c.29.14.6.23.9.35a21.57,21.57,0,0,0-4.84,9.23c-1.06,5.19.3,9.55,4.45,13a18.21,18.21,0,0,0,3.41,2.3c.65.32.69.64.24,1.14a18.85,18.85,0,0,0-2.16,3.36c-.85.57-1.49,1.36-2.28,2a13.36,13.36,0,0,1-15.65.66,14.17,14.17,0,0,1-6.59-8.65c-.2-.82.11-2-.65-2.36-.6-.25-1.55.35-2.36.55a10.64,10.64,0,0,1-11.72-4.3A9,9,0,0,1,217.83,125.36Z"/><path class="cls-1" d="M70.82,19.42a7.36,7.36,0,0,0,1.86-1.07,18,18,0,0,1,13.68-3.77c.51.07.72-.05.88-.51A23.13,23.13,0,0,1,89,10.21c5-9,14.55-12.41,24.17-8.8a22.11,22.11,0,0,1,6.91,4.07A15.43,15.43,0,0,1,125,13.12a27.72,27.72,0,0,1,3.91-2.61c5.67-2.87,11.31-3.14,16.51.86s6.58,9.52,5.19,15.79c-.23,1,0,1.11.91,1.13a28.15,28.15,0,0,1,10.83,2.1A17.46,17.46,0,0,1,172.85,49.9a25.19,25.19,0,0,1-4.52,10.73c-.47.65-.33.91.23,1.35,4.2,3.35,7.19,7.48,8,12.93a14.56,14.56,0,0,1-.32,6.26c-.38.13-.62-.13-.85-.35a9.6,9.6,0,0,0-9-2.54c-2.14.4-2,.45-2.43-1.68-1.3-6-5.26-9.9-11-10.94a10.72,10.72,0,0,0-4.33.12,17.56,17.56,0,0,0-8.44,4.08A10.72,10.72,0,0,0,137,80.93c.46,1.84.48,1.86-1.14,2.69-5.3,2.7-7.66,7.2-8,12.94-.09,1.49-.06,1.54-1.42,1.89a19,19,0,0,0-8.82,5.17,2,2,0,0,1-.88.61,2.06,2.06,0,0,1-1.34-.37A30.75,30.75,0,0,1,102.7,92.12a20.51,20.51,0,0,1-2-4.59,1.2,1.2,0,0,0-1.6-1,5.38,5.38,0,0,1-3.2-.13c-.07-.57.31-1,.56-1.39A10,10,0,0,0,95,72.86a17,17,0,0,0-2.74-2.48A8.58,8.58,0,0,0,82,70.45l-.88.64A1,1,0,0,1,79.61,71c-3.64-3.28-7.78-3.58-12.2-2a1.43,1.43,0,0,1-1.88-.52,15.36,15.36,0,0,0-12-5.82,2.23,2.23,0,0,1-1.37-.23c0-1.5-.67-2.87-.81-4.36a18.71,18.71,0,0,1,4.8-14.84A21.59,21.59,0,0,1,66.7,36.93c1.17-.33,1.17-.35.81-1.48a16.57,16.57,0,0,1-.56-9.2,13.88,13.88,0,0,1,3.23-6C70.41,20,70.74,19.81,70.82,19.42Z"/><path class="cls-2" d="M116.67,104.07a25.42,25.42,0,0,1,6.15-4.6,20.27,20.27,0,0,1,4-1.41c.62-.16.78-.42.8-1a15.88,15.88,0,0,1,3.21-9.71,14.39,14.39,0,0,1,5.36-4.15c.83-.38,1.06-.68.77-1.6-1.44-4.69-.45-8.83,3.2-12.15a17.44,17.44,0,0,1,8.58-4,13.25,13.25,0,0,1,15.09,9.76,18.43,18.43,0,0,1,.58,2.3c.09.67.23.82.94.65a11.5,11.5,0,0,1,7.62.54,17,17,0,0,1,3.27,2.46,13,13,0,0,1,3,10.24c-.22,1.41.21,1.88,1.32,2.49,3.84,2.11,6.55,5.17,7.32,9.61,1.37,7.82-4.24,15.26-9.69,16.29-.8.15-.44.49-.21.87,1.78,2.92,2.7,6,1.85,9.45-1.43,5.73-7.32,8.92-13.24,7.2a2.45,2.45,0,0,1-.41-.12c-.74-.38-1-.28-1.11.66a18.72,18.72,0,0,1-1.34,5.59c-2.81,7-9.5,10-16.66,7.43a14.33,14.33,0,0,1-4.65-2.53c-.24-.22-.61,0-.82-.22-.86-.86-1.42-.3-2.06.34-5.44,5.4-13.48,5.55-18.86.15a13.46,13.46,0,0,1-3.55-14.43c.12-.38.26-.75.39-1.13a15.19,15.19,0,0,1,1.85-3.07c.51-.62.46-1-.28-1.43a17.24,17.24,0,0,1-5-4,13,13,0,0,1-2.32-12.3,20.58,20.58,0,0,1,4-7.44A3.12,3.12,0,0,1,116.67,104.07Z"/><path class="cls-2" d="M70.82,19.42c.85.33,0,.57-.09.68a14.16,14.16,0,0,0-2.55,3.63,14.41,14.41,0,0,0-.82,10.13,8,8,0,0,0,.56,1.86c.56,1,.1,1.19-.77,1.41-5.69,1.44-10.29,4.47-13.23,9.65A17.31,17.31,0,0,0,52.39,61.4a.8.8,0,0,1-.28,1c-.4.39-.94.34-1.43.43-5,1-8,4.23-8.51,9.3,0,.21,0,.43-.07.65-.18,1-.42,1.17-1.4,1a11.68,11.68,0,0,0-6.34.29A10.6,10.6,0,0,0,28,87.42c.19.53.58,1,.38,1.66a1.28,1.28,0,0,1-.93.23c-3.19-.26-6.24-1-8.75-3.13a3,3,0,0,1-1.09-1.33c-4-4.47-4.54-9.55-2.67-15,.21-.59.21-.85-.49-1C4.31,66.4,4.24,55.41,8.75,49.91c.63-.77.52-1.16.05-1.89-2.86-4.36-3.86-9-1.63-13.92a15.29,15.29,0,0,1,14-8.78,19.91,19.91,0,0,1,2.63.46C23.49,20,25,15.16,30.86,13.05c4.77-1.71,8.73.09,12.07,3.74.39-.53.76-1.06,1.16-1.56,2.4-3.09,5.23-5.57,9.16-6.46a12.1,12.1,0,0,1,10.18,2.28,16.19,16.19,0,0,1,5.65,7.44C69.46,19.48,69.87,19.8,70.82,19.42Z"/><path class="cls-3" d="M17.58,84.85c.64.53,1.24,1.1,1.9,1.59A14.7,14.7,0,0,0,28.34,89c.47-.06.61.33.82.6A11.52,11.52,0,0,0,34,93.28c1.24.51,1.29.63,1,2a13.29,13.29,0,0,0,.31,7.82,9.62,9.62,0,0,0,10.86,6.06c1-.16,2-.4,3-.62s1.21,0,1.35,1c.54,4,3,6.62,6.88,7.2,2.94.44,5.28-.9,7.25-3a2.18,2.18,0,0,0,.26-.34c1.32-1.7,1.66-1.67,2.76.26.59,3.86-1.56,7-4.92,9.22a7.28,7.28,0,0,1-2.49,1.08,1.2,1.2,0,0,0-1,1.28,13.43,13.43,0,0,1-1.28,4.7c-1.92,4.07-6.69,6.09-10.63,5.84a1.27,1.27,0,0,1-.8-.27c-1-.27-2-.47-2.93-.8a8.86,8.86,0,0,1-4.41-3.28c-.53.65-1,1.33-1.59,1.92-2.44,2.51-5.36,3.67-8.79,2.53s-5.23-3.75-5.61-7.32c-.08-.77-.34-.76-1-.57a14.14,14.14,0,0,1-7.41.45,9.85,9.85,0,0,1-7.53-9.19,12.58,12.58,0,0,1,.48-5c.28-.85.12-1.16-.71-1.49a10.34,10.34,0,0,1-6.61-7A10.83,10.83,0,0,1,12.11,92.42c.81.11,1.84.64,2.38.31s.3-1.53.46-2.35A11.57,11.57,0,0,1,17.58,84.85Z"/><path class="cls-1" d="M46.43,135.49a13.21,13.21,0,0,0,7-1.43,10.17,10.17,0,0,0,5.2-7.48,1.82,1.82,0,0,0,0-.33c0-1.55.57-2.36,2.28-2.94a9.39,9.39,0,0,0,6.33-7,15.08,15.08,0,0,0,.1-2.6.71.71,0,0,1,.71.18A12.29,12.29,0,0,0,76.33,116,1.58,1.58,0,0,1,77,116a1.16,1.16,0,0,1,.3.79c.9,6.25,7,9.76,13,8.18.59-.16,1.17-.37,1.77-.53a.78.78,0,0,1,1.11.68c0,.22.1.43.14.64.93,5.62,4.39,9.15,9.52,11s9.63.71,13.59-2.92c.39-.35.66-.91,1.32-.81a16.29,16.29,0,0,0-1.09,5.82,13.53,13.53,0,0,0,3.31,8.52,13.27,13.27,0,0,0,8.16,4.72,12.63,12.63,0,0,0,7.86-1.4,13.14,13.14,0,0,0,3.91-3.07c.51-.57,1-.78,1.45,0,.26.38.74.42,1,.72-.37-.17-.6.07-.87.27-5.11,3.88-11,5.14-17.24,4.87a27.59,27.59,0,0,1-14.75-4.69c-.42-.28-.83-.59-1.23-.9-1.49-1.2-1.48-1.19-3.11-.07-6.76,4.63-13.88,5.83-21.51,2.29-.75-.35-1.53-1.13-2.19-1s-.94,1.19-1.45,1.8c-3.32,4-7.45,6.55-12.83,6.56a17,17,0,0,1-6.36-1.3,27.16,27.16,0,0,1-8.76-5.42A17.91,17.91,0,0,1,46.43,135.49Z"/><path class="cls-4" d="M77,116.07A11.48,11.48,0,0,1,67.81,114l-.43-.32c-1.26-1.58-1.23-1.56-2.4,0-1.83,2.43-5.56,4.14-8.75,3.18a8.26,8.26,0,0,1-6.07-7.4c0-.72-.27-.84-.94-.66a15.3,15.3,0,0,1-7,.56,9.73,9.73,0,0,1-7.81-7.89,15,15,0,0,1,.31-6.66c.15-.55.13-.84-.48-1.06A12.08,12.08,0,0,1,28.34,89,10.85,10.85,0,0,1,40.52,73.41c1.21.29,1.29.23,1.34-1.1a10.33,10.33,0,0,1,10.25-9.9,16.87,16.87,0,0,1,11.62,3.73,8.79,8.79,0,0,1,2.12,2.31c.46.78.91.54,1.52.31a11.84,11.84,0,0,1,9.88.23,8.54,8.54,0,0,1,2.56,1.82c.33.37.56.51,1,.1a10.07,10.07,0,0,1,6.09-2.53,7.18,7.18,0,0,1,3.77.8c3.78,2.06,6.67,4.89,7.36,9.35A10.5,10.5,0,0,1,96,86.4c-.38,1.39-1.61,2-2.63,2.78-.71.52-.72.81-.24,1.5a8.26,8.26,0,0,1-1,11,10.66,10.66,0,0,1-5,3.09c-.7.19-.84.62-.9,1.27a11,11,0,0,1-4.53,8.44,10.23,10.23,0,0,1-3.54,1.64C77.74,116.21,77.35,116.38,77,116.07Z"/><path class="cls-5" d="M77,116.07a10.13,10.13,0,0,0,8.69-8.61c.25-1.7.53-2.8,2.54-3.46a9,9,0,0,0,6.07-6.84,7.83,7.83,0,0,0-1.74-6.79c-.45-.58-.35-.76.2-1.11A13.06,13.06,0,0,0,96,86.4a16.42,16.42,0,0,0,3.57-.19c.67-.17,1.13.06,1.36.85a25.19,25.19,0,0,0,8.23,12.22,33.31,33.31,0,0,0,6.66,4.44,7,7,0,0,0,.9.35,21.57,21.57,0,0,0-4.84,9.23c-1.06,5.19.29,9.55,4.44,13a18.08,18.08,0,0,0,3.42,2.29c.65.32.69.65.24,1.14a19.55,19.55,0,0,0-2.17,3.37c-.84.56-1.49,1.36-2.28,2a13.38,13.38,0,0,1-15.64.66,14.19,14.19,0,0,1-6.59-8.66c-.2-.82.11-2-.65-2.35-.6-.26-1.56.34-2.36.54A10.64,10.64,0,0,1,78.52,121,9,9,0,0,1,77,116.07Z"/></svg>