<svg id="Layer_1" data-name="Layer 1" xmlns="http://www.w3.org/2000/svg" xmlns:xlink="http://www.w3.org/1999/xlink" viewBox="0 0 1024 161"><defs><style>.cls-1{fill:none;}.cls-2{clip-path:url(#clip-path);}.cls-3{fill:#00c200;}.cls-4{fill:#00b800;}.cls-5{fill:#00b100;}.cls-6{fill:#00cb00;}.cls-7{fill:#00a600;}.cls-8{fill:#c69c6d;}</style><clipPath id="clip-path"><rect id="SVGID" class="cls-1" width="1024" height="161"/></clipPath></defs><title>22_ground</title><g class="cls-2"><path class="cls-3" d="M830.92,75.63a5.41,5.41,0,0,0,1.32-.75,12.73,12.73,0,0,1,9.69-2.68c.37,0,.51,0,.63-.36a16,16,0,0,1,1.24-2.73,13.47,13.47,0,0,1,17.14-6.24,15.66,15.66,0,0,1,4.89,2.88,11,11,0,0,1,3.5,5.42,19.16,19.16,0,0,1,2.77-1.86c4-2,8-2.22,11.69.61s4.67,6.75,3.68,11.19c-.16.73,0,.8.65.81a19.81,19.81,0,0,1,7.67,1.49,12.37,12.37,0,0,1,7.44,13.82,17.91,17.91,0,0,1-3.2,7.61c-.34.46-.24.64.16,1a14.12,14.12,0,0,1,5.65,9.16,10.21,10.21,0,0,1-.22,4.43c-.27.1-.45-.09-.6-.24a6.8,6.8,0,0,0-6.41-1.8c-1.52.28-1.4.31-1.72-1.19a9.47,9.47,0,0,0-7.83-7.76,7.57,7.57,0,0,0-3.07.09,12.41,12.41,0,0,0-6,2.89,7.62,7.62,0,0,0-2.16,7.85c.33,1.3.34,1.31-.81,1.9-3.75,1.91-5.42,5.11-5.68,9.17-.07,1-.05,1.09-1,1.34a13.36,13.36,0,0,0-6.25,3.67,1.45,1.45,0,0,1-.63.43,1.47,1.47,0,0,1-1-.27,21.78,21.78,0,0,1-9-8.32,14.41,14.41,0,0,1-1.41-3.25.85.85,0,0,0-1.13-.7,3.67,3.67,0,0,1-2.27-.09c-.05-.4.22-.67.4-1a7.11,7.11,0,0,0-1.06-8.62,12,12,0,0,0-1.94-1.76,6.08,6.08,0,0,0-7.29,0l-.63.45a.7.7,0,0,1-1-.06c-2.58-2.32-5.51-2.53-8.65-1.39a1,1,0,0,1-1.33-.37,10.85,10.85,0,0,0-8.53-4.12,1.62,1.62,0,0,1-1-.17c0-1.06-.48-2-.58-3.09a13.29,13.29,0,0,1,3.41-10.52A15.38,15.38,0,0,1,828,88c.83-.23.83-.25.57-1.05a11.77,11.77,0,0,1-.39-6.52,9.83,9.83,0,0,1,2.29-4.23C830.63,76.05,830.86,75.91,830.92,75.63Z"/><path class="cls-4" d="M863.42,135.63a17.86,17.86,0,0,1,4.35-3.27,14.18,14.18,0,0,1,2.83-1c.43-.12.54-.3.56-.74a11.17,11.17,0,0,1,2.28-6.87,10.19,10.19,0,0,1,3.79-3c.59-.26.75-.48.55-1.13a7.78,7.78,0,0,1,2.26-8.61,12.39,12.39,0,0,1,6.08-2.81,9.4,9.4,0,0,1,10.7,6.92,13.4,13.4,0,0,1,.41,1.63c.07.47.17.58.67.46a8.16,8.16,0,0,1,5.4.38,12.56,12.56,0,0,1,2.32,1.74,9.23,9.23,0,0,1,2.13,7.26c-.16,1,.15,1.33.94,1.77a9.48,9.48,0,0,1,5.19,6.81c1,5.54-3,10.81-6.87,11.54-.57.1-.32.35-.16.62a8.5,8.5,0,0,1,1.32,6.69,7.33,7.33,0,0,1-9.38,5.11,1.49,1.49,0,0,1-.3-.09c-.52-.26-.73-.2-.78.47a13.25,13.25,0,0,1-1,4A8.91,8.91,0,0,1,885,168.8a10,10,0,0,1-3.29-1.8c-.17-.15-.44,0-.58-.15-.61-.61-1-.21-1.47.24a9.21,9.21,0,0,1-13.36.11A9.54,9.54,0,0,1,863.74,157c.08-.27.18-.53.27-.8a10.62,10.62,0,0,1,1.31-2.17c.37-.45.33-.71-.19-1a12.38,12.38,0,0,1-3.53-2.83,9.23,9.23,0,0,1-1.64-8.72,14.67,14.67,0,0,1,2.81-5.27A2,2,0,0,1,863.42,135.63Z"/><path class="cls-4" d="M830.92,75.63c.6.23,0,.4-.06.48a10.09,10.09,0,0,0-1.81,2.58,10.21,10.21,0,0,0-.58,7.17,5.19,5.19,0,0,0,.4,1.32c.39.7.07.85-.55,1A14.28,14.28,0,0,0,819,95a12.25,12.25,0,0,0-1.09,10.36.57.57,0,0,1-.2.72c-.28.28-.67.24-1,.31a7,7,0,0,0-6,6.58,3.42,3.42,0,0,1,0,.46c-.13.7-.3.84-1,.69a8.26,8.26,0,0,0-4.49.2,7.51,7.51,0,0,0-4.53,9.48c.14.38.41.73.27,1.18a.85.85,0,0,1-.65.16,10.24,10.24,0,0,1-6.21-2.22,2.1,2.1,0,0,1-.77-.94c-2.8-3.17-3.22-6.76-1.89-10.66.14-.42.15-.61-.35-.72-7.16-1.69-7.21-9.49-4-13.38.45-.55.37-.82,0-1.34-2-3.09-2.74-6.36-1.16-9.86a10.84,10.84,0,0,1,9.89-6.23,14.28,14.28,0,0,1,1.86.33c-.18-4.07.87-7.52,5-9,3.38-1.21,6.19.06,8.55,2.65.28-.38.55-.75.83-1.11a11.42,11.42,0,0,1,6.49-4.57,8.53,8.53,0,0,1,7.21,1.61,11.42,11.42,0,0,1,4,5.27C830,75.67,830.25,75.9,830.92,75.63Z"/><path class="cls-5" d="M793.19,122c.45.38.88.78,1.35,1.13a10.46,10.46,0,0,0,6.28,1.83c.33,0,.43.23.57.43a8.24,8.24,0,0,0,3.4,2.58c.88.37.92.45.7,1.41a9.35,9.35,0,0,0,.22,5.54,6.81,6.81,0,0,0,7.69,4.3c.72-.11,1.42-.29,2.12-.44s.86,0,1,.7a5.51,5.51,0,0,0,4.88,5.1,5.71,5.71,0,0,0,5.13-2.11c.07-.08.13-.17.19-.25.93-1.2,1.17-1.18,2,.19.42,2.73-1.11,5-3.49,6.53a5.34,5.34,0,0,1-1.76.77c-.52.1-.7.39-.74.91a9.77,9.77,0,0,1-.9,3.32,8,8,0,0,1-7.54,4.14.91.91,0,0,1-.57-.19c-.69-.19-1.4-.33-2.07-.57a6.3,6.3,0,0,1-3.13-2.32c-.37.46-.72.94-1.12,1.36-1.73,1.78-3.8,2.6-6.23,1.79a5.65,5.65,0,0,1-4-5.18c-.06-.55-.24-.54-.68-.41a10,10,0,0,1-5.25.32,7,7,0,0,1-5.34-6.51,9.1,9.1,0,0,1,.34-3.52c.2-.6.09-.82-.5-1a7.36,7.36,0,0,1-4.69-5,7.68,7.68,0,0,1,8.33-9.46c.58.08,1.31.45,1.69.22s.21-1.09.33-1.67A8.12,8.12,0,0,1,793.19,122Z"/><path class="cls-3" d="M813.63,157.89a9.31,9.31,0,0,0,5-1,7.18,7.18,0,0,0,3.68-5.29,1.93,1.93,0,0,0,0-.24,2,2,0,0,1,1.61-2.08,6.65,6.65,0,0,0,4.49-5,10.3,10.3,0,0,0,.07-1.84.5.5,0,0,1,.5.12,8.7,8.7,0,0,0,5.85,1.5,1.13,1.13,0,0,1,.45,0,.85.85,0,0,1,.22.57,7.22,7.22,0,0,0,9.23,5.79c.42-.11.84-.26,1.26-.37a.54.54,0,0,1,.78.48c0,.15.08.3.1.45.66,4,3.12,6.48,6.75,7.83a8.9,8.9,0,0,0,9.63-2.07c.27-.25.47-.65.94-.58a11.42,11.42,0,0,0-.77,4.13,9.57,9.57,0,0,0,2.34,6,9.44,9.44,0,0,0,5.78,3.34,9,9,0,0,0,5.57-1,9.2,9.2,0,0,0,2.77-2.18c.36-.4.68-.55,1,0,.18.28.53.3.75.51-.26-.11-.43.05-.62.19a18.19,18.19,0,0,1-12.22,3.46,19.7,19.7,0,0,1-10.45-3.32c-.3-.21-.59-.42-.87-.65-1.06-.84-1-.84-2.21-.05-4.78,3.29-9.84,4.14-15.24,1.63-.53-.25-1.09-.8-1.55-.72s-.67.84-1,1.27a11.42,11.42,0,0,1-9.09,4.65,12,12,0,0,1-4.51-.92,19.25,19.25,0,0,1-6.21-3.84A12.73,12.73,0,0,1,813.63,157.89Z"/><path class="cls-6" d="M835.29,144.13a8.13,8.13,0,0,1-6.5-1.48l-.31-.22c-.89-1.12-.87-1.11-1.7,0a6.12,6.12,0,0,1-6.2,2.25,5.87,5.87,0,0,1-4.3-5.24c0-.52-.19-.61-.67-.48a10.81,10.81,0,0,1-4.93.4,6.9,6.9,0,0,1-5.54-5.59,10.75,10.75,0,0,1,.22-4.72c.11-.39.1-.6-.33-.75a8.49,8.49,0,0,1-4.21-3.33,7.69,7.69,0,0,1,3-10.32,7.59,7.59,0,0,1,5.57-.74c.87.2.92.16,1-.79a7.31,7.31,0,0,1,7.26-7,11.93,11.93,0,0,1,8.23,2.65,5.85,5.85,0,0,1,1.51,1.63c.32.55.65.38,1.07.22a8.41,8.41,0,0,1,7,.16,6.24,6.24,0,0,1,1.81,1.29c.24.27.4.36.74.07a7.14,7.14,0,0,1,4.31-1.79,5,5,0,0,1,2.67.57c2.69,1.46,4.73,3.47,5.22,6.63a7.39,7.39,0,0,1-1.5,5.57c-.27,1-1.14,1.43-1.87,2-.49.37-.5.58-.16,1.06a5.86,5.86,0,0,1-.69,7.8,7.53,7.53,0,0,1-3.56,2.19c-.5.13-.6.44-.64.9a7.77,7.77,0,0,1-3.21,6,7.44,7.44,0,0,1-2.5,1.17C835.83,144.23,835.55,144.35,835.29,144.13Z"/><path class="cls-7" d="M835.29,144.13a7.19,7.19,0,0,0,6.16-6.11c.18-1.2.37-2,1.8-2.45a6.37,6.37,0,0,0,4.3-4.84,5.6,5.6,0,0,0-1.23-4.82c-.33-.41-.25-.54.14-.78a9.35,9.35,0,0,0,2.27-2,11.28,11.28,0,0,0,2.53-.14c.48-.11.8.05,1,.61a17.94,17.94,0,0,0,5.84,8.66,23.61,23.61,0,0,0,4.71,3.15c.21.1.43.16.65.25a15.32,15.32,0,0,0-3.44,6.53,8.82,8.82,0,0,0,3.15,9.2,13,13,0,0,0,2.42,1.63c.46.23.49.45.17.8a14.26,14.26,0,0,0-1.53,2.39c-.6.4-1.06,1-1.62,1.42a9.47,9.47,0,0,1-11.08.46,10,10,0,0,1-4.67-6.13c-.15-.58.07-1.44-.46-1.67s-1.11.25-1.68.39a7.53,7.53,0,0,1-8.3-3.05A6.3,6.3,0,0,1,835.29,144.13Z"/><path class="cls-3" d="M701.1,86.05a5.14,5.14,0,0,0,1.32-.76,12.77,12.77,0,0,1,9.69-2.67c.36,0,.51,0,.62-.36A16.84,16.84,0,0,1,714,79.53a13.47,13.47,0,0,1,17.14-6.24A15.59,15.59,0,0,1,736,76.17a11,11,0,0,1,3.5,5.42,19.16,19.16,0,0,1,2.77-1.86c4-2,8-2.22,11.69.61s4.67,6.75,3.68,11.19c-.16.73,0,.8.65.81A19.63,19.63,0,0,1,766,93.83a12.37,12.37,0,0,1,7.44,13.82,17.81,17.81,0,0,1-3.21,7.61c-.33.45-.23.64.17.95a14.18,14.18,0,0,1,5.65,9.16,10.25,10.25,0,0,1-.22,4.44c-.27.09-.45-.09-.61-.25a6.79,6.79,0,0,0-6.4-1.79c-1.52.28-1.4.31-1.73-1.19a9.45,9.45,0,0,0-7.82-7.76,7.57,7.57,0,0,0-3.07.09,12.32,12.32,0,0,0-6,2.89,7.62,7.62,0,0,0-2.16,7.85c.33,1.29.34,1.31-.81,1.9-3.75,1.91-5.43,5.1-5.69,9.17-.06,1.05,0,1.09-1,1.34a13.42,13.42,0,0,0-6.25,3.66,1.39,1.39,0,0,1-.63.44,1.53,1.53,0,0,1-.95-.27,21.78,21.78,0,0,1-9-8.32,14.41,14.41,0,0,1-1.41-3.25.85.85,0,0,0-1.13-.7,3.67,3.67,0,0,1-2.27-.09c0-.4.22-.68.4-1a7.11,7.11,0,0,0-1.06-8.62,13,13,0,0,0-1.94-1.77,6.09,6.09,0,0,0-7.29.06c-.21.14-.42.3-.63.45a.7.7,0,0,1-1-.06c-2.58-2.32-5.51-2.53-8.65-1.39a1,1,0,0,1-1.33-.37,10.9,10.9,0,0,0-8.53-4.13,1.59,1.59,0,0,1-1-.16,29.46,29.46,0,0,0-.57-3.09A13.29,13.29,0,0,1,690.68,103a15.23,15.23,0,0,1,7.5-4.49c.83-.23.83-.25.57-1a11.77,11.77,0,0,1-.39-6.52,9.92,9.92,0,0,1,2.28-4.23C700.81,86.47,701,86.32,701.1,86.05Z"/><path class="cls-4" d="M733.59,146a18.07,18.07,0,0,1,4.36-3.26,14.35,14.35,0,0,1,2.82-1c.44-.11.55-.29.57-.73a11.22,11.22,0,0,1,2.28-6.88,10.26,10.26,0,0,1,3.79-2.94c.59-.27.75-.48.55-1.14a7.79,7.79,0,0,1,2.26-8.61,12.46,12.46,0,0,1,6.08-2.8,9.39,9.39,0,0,1,10.7,6.91,13.56,13.56,0,0,1,.41,1.64c.07.47.17.58.67.46a8.16,8.16,0,0,1,5.4.38,12.13,12.13,0,0,1,2.32,1.74,9.22,9.22,0,0,1,2.13,7.26c-.16,1,.15,1.33.94,1.76a9.54,9.54,0,0,1,5.19,6.82c1,5.54-3,10.81-6.88,11.54-.56.1-.31.35-.15.62a8.5,8.5,0,0,1,1.32,6.69,7.32,7.32,0,0,1-9.38,5.1,1.47,1.47,0,0,1-.3-.08c-.52-.27-.73-.2-.78.47a13.25,13.25,0,0,1-.95,4c-2,4.94-6.74,7.06-11.81,5.27a10.16,10.16,0,0,1-3.29-1.8c-.17-.15-.44,0-.58-.15-.61-.61-1-.22-1.47.24a9.21,9.21,0,0,1-13.36.11,9.57,9.57,0,0,1-2.52-10.23c.09-.27.19-.54.28-.8a10.26,10.26,0,0,1,1.31-2.18c.36-.44.33-.7-.2-1a12.34,12.34,0,0,1-3.52-2.84,9.21,9.21,0,0,1-1.64-8.71,14.64,14.64,0,0,1,2.81-5.28A2.32,2.32,0,0,1,733.59,146Z"/><path class="cls-4" d="M701.1,86.05c.6.23,0,.4-.06.48a10.09,10.09,0,0,0-1.81,2.58,10.21,10.21,0,0,0-.58,7.17,5.19,5.19,0,0,0,.4,1.32c.39.7.07.85-.55,1a14.29,14.29,0,0,0-9.38,6.84A12.29,12.29,0,0,0,688,115.8a.57.57,0,0,1-.2.72c-.28.28-.67.24-1,.3a7,7,0,0,0-6,6.59,3.57,3.57,0,0,1,0,.46c-.13.69-.3.84-1,.69a8.17,8.17,0,0,0-4.49.2,7.51,7.51,0,0,0-4.53,9.48c.14.38.41.73.27,1.17a.87.87,0,0,1-.66.17,10.23,10.23,0,0,1-6.2-2.22,2.09,2.09,0,0,1-.77-.94c-2.81-3.17-3.22-6.77-1.89-10.66.14-.42.15-.61-.35-.73-7.16-1.68-7.21-9.48-4-13.37.45-.55.37-.83,0-1.34-2-3.09-2.73-6.36-1.15-9.87a10.85,10.85,0,0,1,9.89-6.22,13,13,0,0,1,1.86.33c-.18-4.07.87-7.53,5-9,3.38-1.22,6.19.06,8.55,2.65.28-.38.55-.75.83-1.11a11.39,11.39,0,0,1,6.48-4.58,8.59,8.59,0,0,1,7.22,1.62,11.49,11.49,0,0,1,4,5.27C700.14,86.09,700.43,86.32,701.1,86.05Z"/><path class="cls-5" d="M663.37,132.42c.45.38.88.78,1.35,1.13a10.52,10.52,0,0,0,6.27,1.83c.34,0,.44.23.58.42a8.18,8.18,0,0,0,3.4,2.59c.88.37.92.45.7,1.41a9.27,9.27,0,0,0,.22,5.54,6.81,6.81,0,0,0,7.69,4.3c.72-.12,1.41-.29,2.12-.44s.86,0,1,.69a5.51,5.51,0,0,0,4.88,5.11,5.72,5.72,0,0,0,5.13-2.12,2.23,2.23,0,0,0,.19-.24c.93-1.21,1.17-1.18,1.95.19.42,2.73-1.11,5-3.49,6.53a5.2,5.2,0,0,1-1.76.76.85.85,0,0,0-.74.91,9.76,9.76,0,0,1-.9,3.33,8,8,0,0,1-7.54,4.14.91.91,0,0,1-.57-.19c-.69-.19-1.4-.33-2.07-.57a6.3,6.3,0,0,1-3.13-2.32c-.38.46-.72.94-1.12,1.36-1.74,1.78-3.8,2.6-6.23,1.79a5.66,5.66,0,0,1-4-5.19c-.06-.54-.24-.53-.68-.4a10,10,0,0,1-5.25.32,7,7,0,0,1-5.34-6.51,9.06,9.06,0,0,1,.34-3.52c.2-.6.09-.82-.5-1.06a7.31,7.31,0,0,1-4.69-5,7.68,7.68,0,0,1,8.33-9.46c.58.08,1.31.45,1.69.22s.21-1.09.33-1.67A8.12,8.12,0,0,1,663.37,132.42Z"/><path class="cls-3" d="M683.81,168.31a9.31,9.31,0,0,0,5-1,7.18,7.18,0,0,0,3.68-5.3,1.69,1.69,0,0,0,0-.23,2,2,0,0,1,1.61-2.09,6.64,6.64,0,0,0,4.49-5,10.38,10.38,0,0,0,.07-1.85.53.53,0,0,1,.5.13,8.75,8.75,0,0,0,5.85,1.5,1.14,1.14,0,0,1,.45,0,.84.84,0,0,1,.22.56,7.22,7.22,0,0,0,9.23,5.8c.42-.11.83-.26,1.26-.37a.54.54,0,0,1,.78.48c0,.15.08.3.1.45.66,4,3.11,6.48,6.75,7.83a8.9,8.9,0,0,0,9.63-2.08c.27-.24.47-.64.94-.57a11.64,11.64,0,0,0-.78,4.13,9.59,9.59,0,0,0,2.35,6,9.41,9.41,0,0,0,5.78,3.35,8.91,8.91,0,0,0,5.57-1,9.17,9.17,0,0,0,2.77-2.17c.36-.41.68-.55,1,0,.18.27.53.3.75.51-.27-.12-.43.05-.62.19A18.13,18.13,0,0,1,739,181.06a19.53,19.53,0,0,1-10.45-3.32c-.3-.2-.59-.41-.87-.64-1.06-.85-1-.84-2.21,0-4.79,3.29-9.84,4.14-15.24,1.62-.53-.24-1.09-.79-1.55-.71s-.67.83-1,1.27a11.44,11.44,0,0,1-9.09,4.65,12,12,0,0,1-4.51-.92,19.25,19.25,0,0,1-6.21-3.84A12.73,12.73,0,0,1,683.81,168.31Z"/><path class="cls-6" d="M705.47,154.55a8.13,8.13,0,0,1-6.5-1.48l-.31-.23c-.89-1.11-.87-1.1-1.7,0a6.08,6.08,0,0,1-6.2,2.25,5.85,5.85,0,0,1-4.3-5.24c0-.51-.19-.6-.67-.47a10.81,10.81,0,0,1-4.93.4,6.91,6.91,0,0,1-5.54-5.59,10.74,10.74,0,0,1,.22-4.72c.11-.39.1-.6-.33-.76a8.54,8.54,0,0,1-4.22-3.32,7.7,7.7,0,0,1,3.06-10.32,7.59,7.59,0,0,1,5.57-.74c.87.2.92.15,1-.79a7.31,7.31,0,0,1,7.26-7,12,12,0,0,1,8.23,2.64,5.84,5.84,0,0,1,1.5,1.64c.33.55.65.38,1.08.21a8.45,8.45,0,0,1,7,.17,6.05,6.05,0,0,1,1.81,1.29c.24.27.4.36.74.07a7.08,7.08,0,0,1,4.31-1.79,5,5,0,0,1,2.67.57c2.69,1.45,4.73,3.46,5.22,6.62a7.4,7.4,0,0,1-1.5,5.58c-.27,1-1.14,1.43-1.87,2-.5.36-.5.57-.16,1.06a5.86,5.86,0,0,1-.69,7.8,7.53,7.53,0,0,1-3.56,2.19c-.5.13-.6.44-.64.9a7.77,7.77,0,0,1-3.21,6,7.38,7.38,0,0,1-2.51,1.16C706,154.65,705.73,154.77,705.47,154.55Z"/><path class="cls-7" d="M705.47,154.55a7.17,7.17,0,0,0,6.15-6.11c.18-1.2.38-2,1.81-2.45a6.37,6.37,0,0,0,4.3-4.84,5.6,5.6,0,0,0-1.23-4.82c-.33-.41-.25-.54.13-.78a9.39,9.39,0,0,0,2.28-2,11.32,11.32,0,0,0,2.53-.14.72.72,0,0,1,1,.6,17.85,17.85,0,0,0,5.84,8.66,22.79,22.79,0,0,0,4.71,3.15,5.64,5.64,0,0,0,.64.25,15.45,15.45,0,0,0-3.43,6.54,8.82,8.82,0,0,0,3.15,9.2,12.94,12.94,0,0,0,2.42,1.62c.46.23.49.46.17.81a13.87,13.87,0,0,0-1.53,2.39c-.6.4-1.06,1-1.62,1.42a9.47,9.47,0,0,1-11.08.46,10,10,0,0,1-4.67-6.13c-.15-.58.07-1.44-.47-1.67s-1.1.25-1.67.39a7.53,7.53,0,0,1-8.3-3A6.22,6.22,0,0,1,705.47,154.55Z"/><path class="cls-3" d="M207.92,89.63a5.41,5.41,0,0,0,1.32-.75,12.73,12.73,0,0,1,9.69-2.68c.37,0,.51,0,.63-.36a16,16,0,0,1,1.24-2.73,13.47,13.47,0,0,1,17.14-6.24,15.66,15.66,0,0,1,4.89,2.88,11,11,0,0,1,3.5,5.42,19.16,19.16,0,0,1,2.77-1.86c4-2,8-2.22,11.69.61s4.67,6.75,3.68,11.19c-.16.73,0,.8.65.81a19.81,19.81,0,0,1,7.67,1.49,12.37,12.37,0,0,1,7.44,13.82,17.91,17.91,0,0,1-3.2,7.61c-.34.46-.24.64.16,1a14.12,14.12,0,0,1,5.65,9.16,10.21,10.21,0,0,1-.22,4.43c-.27.1-.45-.09-.6-.24a6.8,6.8,0,0,0-6.41-1.8c-1.52.28-1.4.31-1.72-1.19a9.47,9.47,0,0,0-7.83-7.76,7.57,7.57,0,0,0-3.07.09,12.41,12.41,0,0,0-6,2.89,7.62,7.62,0,0,0-2.16,7.85c.33,1.3.34,1.31-.81,1.9-3.75,1.91-5.42,5.11-5.68,9.17-.07,1-.05,1.09-1,1.34a13.36,13.36,0,0,0-6.25,3.67,1.45,1.45,0,0,1-.63.43,1.47,1.47,0,0,1-.95-.27,21.78,21.78,0,0,1-9-8.32,14.41,14.41,0,0,1-1.41-3.25.85.85,0,0,0-1.13-.7,3.67,3.67,0,0,1-2.27-.09c0-.4.22-.67.4-1a7.11,7.11,0,0,0-1.06-8.62,12,12,0,0,0-1.94-1.76,6.08,6.08,0,0,0-7.29,0l-.63.45a.7.7,0,0,1-1-.06c-2.58-2.32-5.51-2.53-8.65-1.39a1,1,0,0,1-1.33-.37,10.85,10.85,0,0,0-8.53-4.12,1.62,1.62,0,0,1-1-.17c0-1.06-.48-2-.58-3.09a13.29,13.29,0,0,1,3.41-10.52A15.38,15.38,0,0,1,205,102c.83-.23.83-.25.57-1.05a11.77,11.77,0,0,1-.39-6.52,9.83,9.83,0,0,1,2.29-4.23C207.63,90.05,207.86,89.91,207.92,89.63Z"/><path class="cls-4" d="M240.42,149.63a17.86,17.86,0,0,1,4.35-3.27,14.18,14.18,0,0,1,2.83-1c.43-.12.54-.3.56-.74a11.17,11.17,0,0,1,2.28-6.87,10.19,10.19,0,0,1,3.79-2.95c.59-.26.75-.48.55-1.13a7.78,7.78,0,0,1,2.26-8.61,12.39,12.39,0,0,1,6.08-2.81,9.4,9.4,0,0,1,10.7,6.92,13.4,13.4,0,0,1,.41,1.63c.07.47.17.58.67.46a8.16,8.16,0,0,1,5.4.38,12.56,12.56,0,0,1,2.32,1.74,9.23,9.23,0,0,1,2.13,7.26c-.16,1,.15,1.33.94,1.77a9.48,9.48,0,0,1,5.19,6.81c1,5.54-3,10.81-6.87,11.54-.57.1-.32.35-.16.62a8.5,8.5,0,0,1,1.32,6.69,7.33,7.33,0,0,1-9.38,5.11,1.49,1.49,0,0,1-.3-.09c-.52-.26-.73-.2-.78.47a13.25,13.25,0,0,1-.95,4A8.91,8.91,0,0,1,262,182.8a10,10,0,0,1-3.29-1.8c-.17-.15-.44,0-.58-.15-.61-.61-1-.21-1.47.24a9.21,9.21,0,0,1-13.36.11A9.54,9.54,0,0,1,240.74,171c.08-.27.18-.53.27-.8a10.62,10.62,0,0,1,1.31-2.17c.37-.45.33-.71-.19-1a12.38,12.38,0,0,1-3.53-2.83,9.23,9.23,0,0,1-1.64-8.72,14.67,14.67,0,0,1,2.81-5.27A2,2,0,0,1,240.42,149.63Z"/><path class="cls-4" d="M207.92,89.63c.6.23,0,.4-.06.48a10.09,10.09,0,0,0-1.81,2.58,10.21,10.21,0,0,0-.58,7.17,5.19,5.19,0,0,0,.4,1.32c.39.7.07.85-.55,1A14.28,14.28,0,0,0,196,109a12.25,12.25,0,0,0-1.09,10.36.57.57,0,0,1-.2.72c-.28.28-.67.24-1,.31a7,7,0,0,0-6,6.58,3.42,3.42,0,0,1,0,.46c-.13.7-.3.84-1,.69a8.26,8.26,0,0,0-4.49.2,7.51,7.51,0,0,0-4.53,9.48c.14.38.41.73.27,1.18a.85.85,0,0,1-.65.16,10.24,10.24,0,0,1-6.21-2.22,2.1,2.1,0,0,1-.77-.94c-2.8-3.17-3.22-6.76-1.89-10.66.14-.42.15-.61-.35-.72-7.16-1.69-7.21-9.49-4-13.38.45-.55.37-.82,0-1.34-2-3.09-2.74-6.36-1.16-9.86a10.84,10.84,0,0,1,9.89-6.23,14.28,14.28,0,0,1,1.86.33c-.18-4.07.87-7.52,5-9,3.38-1.21,6.19.06,8.55,2.65.28-.38.55-.75.83-1.11a11.42,11.42,0,0,1,6.49-4.57,8.53,8.53,0,0,1,7.21,1.61,11.42,11.42,0,0,1,4,5.27C207,89.67,207.25,89.9,207.92,89.63Z"/><path class="cls-5" d="M170.19,136c.45.38.88.78,1.35,1.13a10.46,10.46,0,0,0,6.28,1.83c.33-.05.43.23.57.43a8.24,8.24,0,0,0,3.4,2.58c.88.37.92.45.7,1.41a9.35,9.35,0,0,0,.22,5.54,6.81,6.81,0,0,0,7.69,4.3c.72-.11,1.42-.29,2.12-.44s.86,0,1,.7a5.51,5.51,0,0,0,4.88,5.1,5.71,5.71,0,0,0,5.13-2.11c.07-.08.13-.17.19-.25.93-1.2,1.17-1.18,1.95.19.42,2.73-1.11,5-3.49,6.53a5.34,5.34,0,0,1-1.76.77c-.52.1-.7.39-.74.91a9.77,9.77,0,0,1-.9,3.32,8,8,0,0,1-7.54,4.14.91.91,0,0,1-.57-.19c-.69-.19-1.4-.33-2.07-.57a6.3,6.3,0,0,1-3.13-2.32c-.37.46-.72.94-1.12,1.36-1.73,1.78-3.8,2.6-6.23,1.79a5.65,5.65,0,0,1-4-5.18c-.06-.55-.24-.54-.68-.41a10,10,0,0,1-5.25.32,7,7,0,0,1-5.34-6.51,9.1,9.1,0,0,1,.34-3.52c.2-.6.09-.82-.5-1a7.36,7.36,0,0,1-4.69-5,7.68,7.68,0,0,1,8.33-9.46c.58.08,1.31.45,1.69.22s.21-1.09.33-1.67A8.12,8.12,0,0,1,170.19,136Z"/><path class="cls-3" d="M190.63,171.89a9.31,9.31,0,0,0,5-1,7.18,7.18,0,0,0,3.68-5.29,1.93,1.93,0,0,0,0-.24,2,2,0,0,1,1.61-2.08,6.65,6.65,0,0,0,4.49-5,10.3,10.3,0,0,0,.07-1.84.5.5,0,0,1,.5.12,8.7,8.7,0,0,0,5.85,1.5,1.13,1.13,0,0,1,.45,0,.85.85,0,0,1,.22.57,7.22,7.22,0,0,0,9.23,5.79c.42-.11.84-.26,1.26-.37a.54.54,0,0,1,.78.48c0,.15.08.3.1.45.66,4,3.12,6.48,6.75,7.83a8.9,8.9,0,0,0,9.63-2.07c.27-.25.47-.65.94-.58a11.42,11.42,0,0,0-.77,4.13,9.57,9.57,0,0,0,2.34,6,9.44,9.44,0,0,0,5.78,3.34,9,9,0,0,0,5.57-1,9.2,9.2,0,0,0,2.77-2.18c.36-.4.68-.55,1,0,.18.28.53.3.75.51-.26-.11-.43.05-.62.19a18.19,18.19,0,0,1-12.22,3.46,19.7,19.7,0,0,1-10.45-3.32c-.3-.21-.59-.42-.87-.65-1.06-.84-1.05-.84-2.21-.05-4.78,3.29-9.84,4.14-15.24,1.63-.53-.25-1.09-.8-1.55-.72s-.67.84-1,1.27a11.42,11.42,0,0,1-9.09,4.65,12,12,0,0,1-4.51-.92,19.25,19.25,0,0,1-6.21-3.84A12.73,12.73,0,0,1,190.63,171.89Z"/><path class="cls-6" d="M212.29,158.13a8.13,8.13,0,0,1-6.5-1.48l-.31-.22c-.89-1.12-.87-1.11-1.7,0a6.12,6.12,0,0,1-6.2,2.25,5.87,5.87,0,0,1-4.3-5.24c0-.52-.19-.61-.67-.48a10.81,10.81,0,0,1-4.93.4,6.9,6.9,0,0,1-5.54-5.59,10.75,10.75,0,0,1,.22-4.72c.11-.39.1-.6-.33-.75a8.49,8.49,0,0,1-4.21-3.33,7.69,7.69,0,0,1,3.05-10.32,7.59,7.59,0,0,1,5.57-.74c.87.2.92.16,1-.79a7.31,7.31,0,0,1,7.26-7,11.93,11.93,0,0,1,8.23,2.65,5.85,5.85,0,0,1,1.51,1.63c.32.55.65.38,1.07.22a8.41,8.41,0,0,1,7,.16,6.24,6.24,0,0,1,1.81,1.29c.24.27.4.36.74.07a7.14,7.14,0,0,1,4.31-1.79,5,5,0,0,1,2.67.57c2.69,1.46,4.73,3.47,5.22,6.63a7.39,7.39,0,0,1-1.5,5.57c-.27,1-1.14,1.43-1.87,2-.49.37-.5.58-.16,1.06a5.86,5.86,0,0,1-.69,7.8,7.53,7.53,0,0,1-3.56,2.19c-.5.13-.6.44-.64.9a7.77,7.77,0,0,1-3.21,6,7.44,7.44,0,0,1-2.5,1.17C212.83,158.23,212.55,158.35,212.29,158.13Z"/><path class="cls-7" d="M212.29,158.13a7.19,7.19,0,0,0,6.16-6.11c.18-1.2.37-2,1.8-2.45a6.37,6.37,0,0,0,4.3-4.84,5.6,5.6,0,0,0-1.23-4.82c-.33-.41-.25-.54.14-.78a9.35,9.35,0,0,0,2.27-2,11.28,11.28,0,0,0,2.53-.14c.48-.11.8,0,1,.61a17.94,17.94,0,0,0,5.84,8.66,23.61,23.61,0,0,0,4.71,3.15c.21.1.43.16.65.25a15.32,15.32,0,0,0-3.44,6.53,8.82,8.82,0,0,0,3.15,9.2,13,13,0,0,0,2.42,1.63c.46.23.49.45.17.8a14.26,14.26,0,0,0-1.53,2.39c-.6.4-1.06,1-1.62,1.42a9.47,9.47,0,0,1-11.08.46,10,10,0,0,1-4.67-6.13c-.15-.58.07-1.44-.46-1.67s-1.11.25-1.68.39a7.53,7.53,0,0,1-8.3-3.05A6.3,6.3,0,0,1,212.29,158.13Z"/><path class="cls-3" d="M75.1,94.05a5.14,5.14,0,0,0,1.32-.76,12.77,12.77,0,0,1,9.69-2.67c.36,0,.51,0,.62-.36A16.84,16.84,0,0,1,88,87.53a13.47,13.47,0,0,1,17.14-6.24A15.59,15.59,0,0,1,110,84.17a11,11,0,0,1,3.5,5.42,19.16,19.16,0,0,1,2.77-1.86c4-2,8-2.22,11.69.61s4.67,6.75,3.68,11.19c-.16.73,0,.8.65.81a19.63,19.63,0,0,1,7.67,1.49,12.37,12.37,0,0,1,7.44,13.82,17.81,17.81,0,0,1-3.21,7.61c-.33.45-.23.64.17.95a14.18,14.18,0,0,1,5.65,9.16,10.25,10.25,0,0,1-.22,4.44c-.27.09-.45-.09-.61-.25a6.79,6.79,0,0,0-6.4-1.79c-1.52.28-1.4.31-1.73-1.19a9.45,9.45,0,0,0-7.82-7.76,7.57,7.57,0,0,0-3.07.09,12.32,12.32,0,0,0-6,2.89,7.62,7.62,0,0,0-2.16,7.85c.33,1.29.34,1.31-.81,1.9-3.75,1.91-5.43,5.1-5.69,9.17-.06,1.05,0,1.09-1,1.34a13.42,13.42,0,0,0-6.25,3.66,1.39,1.39,0,0,1-.63.44,1.53,1.53,0,0,1-1-.27,21.78,21.78,0,0,1-9-8.32,14.41,14.41,0,0,1-1.41-3.25.85.85,0,0,0-1.13-.7,3.67,3.67,0,0,1-2.27-.09c0-.4.22-.68.4-1a7.11,7.11,0,0,0-1.06-8.62,13,13,0,0,0-1.94-1.77,6.09,6.09,0,0,0-7.29.06l-.63.45a.7.7,0,0,1-1-.06c-2.58-2.32-5.51-2.53-8.65-1.39a1,1,0,0,1-1.33-.37,10.9,10.9,0,0,0-8.53-4.13,1.59,1.59,0,0,1-1-.16,29.46,29.46,0,0,0-.57-3.09A13.29,13.29,0,0,1,64.68,111a15.23,15.23,0,0,1,7.5-4.49c.83-.23.83-.25.57-1a11.77,11.77,0,0,1-.39-6.52,9.92,9.92,0,0,1,2.28-4.23C74.81,94.47,75,94.32,75.1,94.05Z"/><path class="cls-4" d="M107.59,154a18.07,18.07,0,0,1,4.36-3.26,14.35,14.35,0,0,1,2.82-1c.44-.11.55-.29.57-.73a11.22,11.22,0,0,1,2.28-6.88,10.26,10.26,0,0,1,3.79-2.94c.59-.27.75-.48.55-1.14a7.79,7.79,0,0,1,2.26-8.61,12.46,12.46,0,0,1,6.08-2.8,9.39,9.39,0,0,1,10.7,6.91,13.56,13.56,0,0,1,.41,1.64c.07.47.17.58.67.46a8.16,8.16,0,0,1,5.4.38,12.13,12.13,0,0,1,2.32,1.74,9.22,9.22,0,0,1,2.13,7.26c-.16,1,.15,1.33.94,1.76a9.54,9.54,0,0,1,5.19,6.82c1,5.54-3,10.81-6.88,11.54-.56.1-.31.35-.15.62a8.5,8.5,0,0,1,1.32,6.69,7.32,7.32,0,0,1-9.38,5.1,1.47,1.47,0,0,1-.3-.08c-.52-.27-.73-.2-.78.47a13.25,13.25,0,0,1-.95,4c-2,4.94-6.74,7.06-11.81,5.27a10.16,10.16,0,0,1-3.29-1.8c-.17-.15-.44,0-.58-.15-.61-.61-1-.22-1.47.24a9.21,9.21,0,0,1-13.36.11,9.57,9.57,0,0,1-2.52-10.23c.09-.27.19-.54.28-.8a10.26,10.26,0,0,1,1.31-2.18c.36-.44.33-.7-.2-1a12.34,12.34,0,0,1-3.52-2.84,9.21,9.21,0,0,1-1.64-8.71,14.64,14.64,0,0,1,2.81-5.28A2.32,2.32,0,0,1,107.59,154Z"/><path class="cls-4" d="M75.1,94.05c.6.23,0,.4-.06.48a10.09,10.09,0,0,0-1.81,2.58,10.21,10.21,0,0,0-.58,7.17,5.19,5.19,0,0,0,.4,1.32c.39.7.07.85-.55,1a14.29,14.29,0,0,0-9.38,6.84A12.29,12.29,0,0,0,62,123.8a.57.57,0,0,1-.2.72c-.28.28-.67.24-1,.3a7,7,0,0,0-6,6.59,3.57,3.57,0,0,1,0,.46c-.13.69-.3.84-1,.69a8.17,8.17,0,0,0-4.49.2,7.51,7.51,0,0,0-4.53,9.48c.14.38.41.73.27,1.17a.87.87,0,0,1-.66.17,10.23,10.23,0,0,1-6.2-2.22,2.09,2.09,0,0,1-.77-.94c-2.81-3.17-3.22-6.77-1.89-10.66.14-.42.15-.61-.35-.73-7.16-1.68-7.21-9.48-4-13.37.45-.55.37-.83,0-1.34-2-3.09-2.73-6.36-1.15-9.87a10.85,10.85,0,0,1,9.89-6.22,13,13,0,0,1,1.86.33c-.18-4.07.87-7.53,5-9,3.38-1.22,6.19.06,8.55,2.65.28-.38.55-.75.83-1.11a11.39,11.39,0,0,1,6.48-4.58,8.59,8.59,0,0,1,7.22,1.62,11.49,11.49,0,0,1,4,5.27C74.14,94.09,74.43,94.32,75.1,94.05Z"/><path class="cls-5" d="M37.37,140.42c.45.38.88.78,1.35,1.13A10.52,10.52,0,0,0,45,143.38c.34,0,.44.23.58.42a8.18,8.18,0,0,0,3.4,2.59c.88.37.92.45.7,1.41a9.27,9.27,0,0,0,.22,5.54,6.81,6.81,0,0,0,7.69,4.3c.72-.12,1.41-.29,2.12-.44s.86,0,1,.69A5.51,5.51,0,0,0,65.54,163a5.72,5.72,0,0,0,5.13-2.12,2.23,2.23,0,0,0,.19-.24c.93-1.21,1.17-1.18,2,.19.42,2.73-1.11,5-3.49,6.53a5.2,5.2,0,0,1-1.76.76.85.85,0,0,0-.74.91,9.76,9.76,0,0,1-.9,3.33,8,8,0,0,1-7.54,4.14.91.91,0,0,1-.57-.19c-.69-.19-1.4-.33-2.07-.57a6.3,6.3,0,0,1-3.13-2.32c-.38.46-.72.94-1.12,1.36-1.74,1.78-3.8,2.6-6.23,1.79a5.66,5.66,0,0,1-4-5.19c-.06-.54-.24-.53-.68-.4a10,10,0,0,1-5.25.32A7,7,0,0,1,30,164.79a9.06,9.06,0,0,1,.34-3.52c.2-.6.09-.82-.5-1.06a7.31,7.31,0,0,1-4.69-5,7.68,7.68,0,0,1,8.33-9.46c.58.08,1.31.45,1.69.22s.21-1.09.33-1.67A8.12,8.12,0,0,1,37.37,140.42Z"/><path class="cls-3" d="M57.81,176.31a9.31,9.31,0,0,0,5-1,7.18,7.18,0,0,0,3.68-5.3,1.69,1.69,0,0,0,0-.23,2,2,0,0,1,1.61-2.09,6.64,6.64,0,0,0,4.49-5,10.38,10.38,0,0,0,.07-1.85.53.53,0,0,1,.5.13,8.75,8.75,0,0,0,5.85,1.5,1.14,1.14,0,0,1,.45,0,.84.84,0,0,1,.22.56,7.22,7.22,0,0,0,9.23,5.8c.42-.11.83-.26,1.26-.37A.54.54,0,0,1,91,169c0,.15.08.3.1.45.66,4,3.11,6.48,6.75,7.83a8.9,8.9,0,0,0,9.63-2.08c.27-.24.47-.64.94-.57a11.64,11.64,0,0,0-.78,4.13,9.59,9.59,0,0,0,2.35,6,9.41,9.41,0,0,0,5.78,3.35,8.91,8.91,0,0,0,5.57-1,9.17,9.17,0,0,0,2.77-2.17c.36-.41.68-.55,1,0,.18.27.53.3.75.51-.27-.12-.43.05-.62.19A18.13,18.13,0,0,1,113,189.06a19.53,19.53,0,0,1-10.45-3.32c-.3-.2-.59-.41-.87-.64-1.06-.85-1.05-.84-2.21,0-4.79,3.29-9.84,4.14-15.24,1.62-.53-.24-1.09-.79-1.55-.71s-.67.83-1,1.27a11.44,11.44,0,0,1-9.09,4.65,12,12,0,0,1-4.51-.92,19.25,19.25,0,0,1-6.21-3.84A12.73,12.73,0,0,1,57.81,176.31Z"/><path class="cls-6" d="M79.47,162.55a8.13,8.13,0,0,1-6.5-1.48l-.31-.23c-.89-1.11-.87-1.1-1.7,0a6.08,6.08,0,0,1-6.2,2.25,5.85,5.85,0,0,1-4.3-5.24c0-.51-.19-.6-.67-.47a10.81,10.81,0,0,1-4.93.4,6.91,6.91,0,0,1-5.54-5.59,10.74,10.74,0,0,1,.22-4.72c.11-.39.1-.6-.33-.76A8.54,8.54,0,0,1,45,143.38a7.7,7.7,0,0,1,3.06-10.32,7.59,7.59,0,0,1,5.57-.74c.87.2.92.15,1-.79a7.31,7.31,0,0,1,7.26-7,12,12,0,0,1,8.23,2.64,5.84,5.84,0,0,1,1.5,1.64c.33.55.65.38,1.08.21a8.45,8.45,0,0,1,7,.17,6.05,6.05,0,0,1,1.81,1.29c.24.27.4.36.74.07a7.08,7.08,0,0,1,4.31-1.79,5,5,0,0,1,2.67.57c2.69,1.45,4.73,3.46,5.22,6.62a7.4,7.4,0,0,1-1.5,5.58c-.27,1-1.14,1.43-1.87,2-.5.36-.5.57-.16,1.06a5.86,5.86,0,0,1-.69,7.8,7.53,7.53,0,0,1-3.56,2.19c-.5.13-.6.44-.64.9a7.77,7.77,0,0,1-3.21,6,7.38,7.38,0,0,1-2.51,1.16C80,162.65,79.73,162.77,79.47,162.55Z"/><path class="cls-7" d="M79.47,162.55a7.17,7.17,0,0,0,6.15-6.11c.18-1.2.38-2,1.81-2.45a6.37,6.37,0,0,0,4.3-4.84,5.6,5.6,0,0,0-1.23-4.82c-.33-.41-.25-.54.13-.78a9.39,9.39,0,0,0,2.28-2,11.32,11.32,0,0,0,2.53-.14.72.72,0,0,1,1,.6,17.85,17.85,0,0,0,5.84,8.66,22.79,22.79,0,0,0,4.71,3.15,5.64,5.64,0,0,0,.64.25,15.45,15.45,0,0,0-3.43,6.54,8.82,8.82,0,0,0,3.15,9.2,12.94,12.94,0,0,0,2.42,1.62c.46.23.49.46.17.81a13.87,13.87,0,0,0-1.53,2.39c-.6.4-1.06,1-1.62,1.42a9.47,9.47,0,0,1-11.08.46A10,10,0,0,1,91,170.35c-.15-.58.07-1.44-.47-1.67s-1.1.25-1.67.39a7.53,7.53,0,0,1-8.3-3A6.22,6.22,0,0,1,79.47,162.55Z"/><path class="cls-3" d="M969.1,75.05a5.14,5.14,0,0,0,1.32-.76,12.77,12.77,0,0,1,9.69-2.67c.36,0,.51,0,.62-.36A16.84,16.84,0,0,1,982,68.53a13.47,13.47,0,0,1,17.14-6.24,15.59,15.59,0,0,1,4.89,2.88,11,11,0,0,1,3.5,5.42,19.16,19.16,0,0,1,2.77-1.86c4-2,8-2.22,11.69.61s4.67,6.75,3.68,11.19c-.16.73,0,.8.65.81a19.63,19.63,0,0,1,7.67,1.49,12.37,12.37,0,0,1,7.44,13.82,17.81,17.81,0,0,1-3.21,7.61c-.33.45-.23.64.17.95a14.18,14.18,0,0,1,5.65,9.16,10.25,10.25,0,0,1-.22,4.44c-.27.09-.45-.09-.61-.25a6.79,6.79,0,0,0-6.4-1.79c-1.52.28-1.4.31-1.73-1.19a9.45,9.45,0,0,0-7.82-7.76,7.57,7.57,0,0,0-3.07.09,12.32,12.32,0,0,0-6,2.89,7.62,7.62,0,0,0-2.16,7.85c.33,1.29.34,1.31-.81,1.9-3.75,1.91-5.43,5.1-5.69,9.17-.06,1.05,0,1.09-1,1.34a13.42,13.42,0,0,0-6.25,3.66,1.39,1.39,0,0,1-.63.44,1.53,1.53,0,0,1-.95-.27,21.78,21.78,0,0,1-9-8.32,14.41,14.41,0,0,1-1.41-3.25.85.85,0,0,0-1.13-.7,3.67,3.67,0,0,1-2.27-.09c0-.4.22-.68.4-1a7.11,7.11,0,0,0-1.06-8.62,13,13,0,0,0-1.94-1.77,6.09,6.09,0,0,0-7.29.06c-.21.14-.42.3-.63.45a.7.7,0,0,1-1-.06c-2.58-2.32-5.51-2.53-8.65-1.39a1,1,0,0,1-1.33-.37,10.9,10.9,0,0,0-8.53-4.13,1.59,1.59,0,0,1-1-.16,29.46,29.46,0,0,0-.57-3.09A13.29,13.29,0,0,1,958.68,92a15.23,15.23,0,0,1,7.5-4.49c.83-.23.83-.25.57-1a11.77,11.77,0,0,1-.39-6.52,9.92,9.92,0,0,1,2.28-4.23C968.81,75.47,969,75.32,969.1,75.05Z"/><path class="cls-4" d="M1001.59,135a18.07,18.07,0,0,1,4.36-3.26,14.35,14.35,0,0,1,2.82-1c.44-.11.55-.29.57-.73a11.22,11.22,0,0,1,2.28-6.88,10.26,10.26,0,0,1,3.79-2.94c.59-.27.75-.48.55-1.14a7.79,7.79,0,0,1,2.26-8.61,12.46,12.46,0,0,1,6.08-2.8,9.39,9.39,0,0,1,10.7,6.91,13.56,13.56,0,0,1,.41,1.64c.07.47.17.58.67.46a8.16,8.16,0,0,1,5.4.38,12.13,12.13,0,0,1,2.32,1.74,9.22,9.22,0,0,1,2.13,7.26c-.16,1,.15,1.33.94,1.76a9.54,9.54,0,0,1,5.19,6.82c1,5.54-3,10.81-6.88,11.54-.56.1-.31.35-.15.62a8.5,8.5,0,0,1,1.32,6.69,7.32,7.32,0,0,1-9.38,5.1,1.47,1.47,0,0,1-.3-.08c-.52-.27-.73-.2-.78.47a13.25,13.25,0,0,1-1,4c-2,4.94-6.74,7.06-11.81,5.27a10.16,10.16,0,0,1-3.29-1.8c-.17-.15-.44,0-.58-.15-.61-.61-1-.22-1.47.24a9.21,9.21,0,0,1-13.36.11,9.57,9.57,0,0,1-2.52-10.23c.09-.27.19-.54.28-.8a10.26,10.26,0,0,1,1.31-2.18c.36-.44.33-.7-.2-1a12.34,12.34,0,0,1-3.52-2.84,9.21,9.21,0,0,1-1.64-8.71,14.64,14.64,0,0,1,2.81-5.28A2.32,2.32,0,0,1,1001.59,135Z"/><path class="cls-4" d="M969.1,75.05c.6.23,0,.4-.06.48a10.09,10.09,0,0,0-1.81,2.58,10.21,10.21,0,0,0-.58,7.17,5.19,5.19,0,0,0,.4,1.32c.39.7.07.85-.55,1a14.29,14.29,0,0,0-9.38,6.84A12.29,12.29,0,0,0,956,104.8a.57.57,0,0,1-.2.72c-.28.28-.67.24-1,.3a7,7,0,0,0-6,6.59,3.57,3.57,0,0,1,0,.46c-.13.69-.3.84-1,.69a8.17,8.17,0,0,0-4.49.2,7.51,7.51,0,0,0-4.53,9.48c.14.38.41.73.27,1.17a.87.87,0,0,1-.66.17,10.23,10.23,0,0,1-6.2-2.22,2.09,2.09,0,0,1-.77-.94c-2.81-3.17-3.22-6.77-1.89-10.66.14-.42.15-.61-.35-.73-7.16-1.68-7.21-9.48-4-13.37.45-.55.37-.83,0-1.34-2-3.09-2.73-6.36-1.15-9.87a10.85,10.85,0,0,1,9.89-6.22,13,13,0,0,1,1.86.33c-.18-4.07.87-7.53,5-9,3.38-1.22,6.19.06,8.55,2.65.28-.38.55-.75.83-1.11a11.39,11.39,0,0,1,6.48-4.58,8.59,8.59,0,0,1,7.22,1.62,11.49,11.49,0,0,1,4,5.27C968.14,75.09,968.43,75.32,969.1,75.05Z"/><path class="cls-5" d="M931.37,121.42c.45.38.88.78,1.35,1.13a10.52,10.52,0,0,0,6.27,1.83c.34,0,.44.23.58.42a8.18,8.18,0,0,0,3.4,2.59c.88.37.92.45.7,1.41a9.27,9.27,0,0,0,.22,5.54,6.81,6.81,0,0,0,7.69,4.3c.72-.12,1.41-.29,2.12-.44s.86,0,1,.69a5.51,5.51,0,0,0,4.88,5.11,5.72,5.72,0,0,0,5.13-2.12,2.23,2.23,0,0,0,.19-.24c.93-1.21,1.17-1.18,1.95.19.42,2.73-1.11,5-3.49,6.53a5.2,5.2,0,0,1-1.76.76.85.85,0,0,0-.74.91,9.76,9.76,0,0,1-.9,3.33,8,8,0,0,1-7.54,4.14.91.91,0,0,1-.57-.19c-.69-.19-1.4-.33-2.07-.57a6.3,6.3,0,0,1-3.13-2.32c-.38.46-.72.94-1.12,1.36-1.74,1.78-3.8,2.6-6.23,1.79a5.66,5.66,0,0,1-4-5.19c-.06-.54-.24-.53-.68-.4a10,10,0,0,1-5.25.32,7,7,0,0,1-5.34-6.51,9.06,9.06,0,0,1,.34-3.52c.2-.6.09-.82-.5-1.06a7.31,7.31,0,0,1-4.69-5,7.68,7.68,0,0,1,8.33-9.46c.58.08,1.31.45,1.69.22s.21-1.09.33-1.67A8.12,8.12,0,0,1,931.37,121.42Z"/><path class="cls-3" d="M951.81,157.31a9.31,9.31,0,0,0,5-1,7.18,7.18,0,0,0,3.68-5.3,1.69,1.69,0,0,0,0-.23,2,2,0,0,1,1.61-2.09,6.64,6.64,0,0,0,4.49-5,10.38,10.38,0,0,0,.07-1.85.53.53,0,0,1,.5.13,8.75,8.75,0,0,0,5.85,1.5,1.14,1.14,0,0,1,.45,0,.84.84,0,0,1,.22.56,7.22,7.22,0,0,0,9.23,5.8c.42-.11.83-.26,1.26-.37a.54.54,0,0,1,.78.48c0,.15.08.3.1.45.66,4,3.11,6.48,6.75,7.83a8.9,8.9,0,0,0,9.63-2.08c.27-.24.47-.64.94-.57a11.64,11.64,0,0,0-.78,4.13,9.59,9.59,0,0,0,2.35,6,9.41,9.41,0,0,0,5.78,3.35,8.91,8.91,0,0,0,5.57-1,9.17,9.17,0,0,0,2.77-2.17c.36-.41.68-.55,1,0,.18.27.53.3.75.51-.27-.12-.43.05-.62.19a18.13,18.13,0,0,1-12.22,3.45,19.53,19.53,0,0,1-10.45-3.32c-.3-.2-.59-.41-.87-.64-1.06-.85-1-.84-2.21,0-4.79,3.29-9.84,4.14-15.24,1.62-.53-.24-1.09-.79-1.55-.71s-.67.83-1,1.27a11.44,11.44,0,0,1-9.09,4.65,12,12,0,0,1-4.51-.92,19.25,19.25,0,0,1-6.21-3.84A12.73,12.73,0,0,1,951.81,157.31Z"/><path class="cls-6" d="M973.47,143.55a8.13,8.13,0,0,1-6.5-1.48l-.31-.23c-.89-1.11-.87-1.1-1.7,0a6.08,6.08,0,0,1-6.2,2.25,5.85,5.85,0,0,1-4.3-5.24c0-.51-.19-.6-.67-.47a10.81,10.81,0,0,1-4.93.4,6.91,6.91,0,0,1-5.54-5.59,10.74,10.74,0,0,1,.22-4.72c.11-.39.1-.6-.33-.76a8.54,8.54,0,0,1-4.22-3.32,7.7,7.7,0,0,1,3.06-10.32,7.59,7.59,0,0,1,5.57-.74c.87.2.92.15,1-.79a7.31,7.31,0,0,1,7.26-7,12,12,0,0,1,8.23,2.64,5.84,5.84,0,0,1,1.5,1.64c.33.55.65.38,1.08.21a8.45,8.45,0,0,1,7,.17,6.05,6.05,0,0,1,1.81,1.29c.24.27.4.36.74.07a7.08,7.08,0,0,1,4.31-1.79,5,5,0,0,1,2.67.57c2.69,1.45,4.73,3.46,5.22,6.62a7.4,7.4,0,0,1-1.5,5.58c-.27,1-1.14,1.43-1.87,2-.5.36-.5.57-.16,1.06a5.86,5.86,0,0,1-.69,7.8,7.53,7.53,0,0,1-3.56,2.19c-.5.13-.6.44-.64.9a7.77,7.77,0,0,1-3.21,6,7.38,7.38,0,0,1-2.51,1.16C974,143.65,973.73,143.77,973.47,143.55Z"/><path class="cls-7" d="M973.47,143.55a7.17,7.17,0,0,0,6.15-6.11c.18-1.2.38-2,1.81-2.45a6.37,6.37,0,0,0,4.3-4.84,5.6,5.6,0,0,0-1.23-4.82c-.33-.41-.25-.54.13-.78a9.39,9.39,0,0,0,2.28-2,11.32,11.32,0,0,0,2.53-.14.72.72,0,0,1,1,.6,17.85,17.85,0,0,0,5.84,8.66,22.79,22.79,0,0,0,4.71,3.15,5.64,5.64,0,0,0,.64.25,15.45,15.45,0,0,0-3.43,6.54,8.82,8.82,0,0,0,3.15,9.2,12.94,12.94,0,0,0,2.42,1.62c.46.23.49.46.17.81a13.87,13.87,0,0,0-1.53,2.39c-.6.4-1.06,1-1.62,1.42a9.47,9.47,0,0,1-11.08.46,10,10,0,0,1-4.67-6.13c-.15-.58.07-1.44-.47-1.67s-1.1.25-1.67.39a7.53,7.53,0,0,1-8.3-3A6.22,6.22,0,0,1,973.47,143.55Z"/><path class="cls-8" d="M1566.35,60.36S859.47-17.71,523,11.57-512,14.82-512,14.82V301.08H1562.12S1566.35,66.87,1566.35,60.36Z"/></g></svg>