<svg id="Layer_1" data-name="Layer 1" xmlns="http://www.w3.org/2000/svg" width="1024" height="600" viewBox="0 0 1024 600">
  <defs>
    <style>
      .cls-1 {
        fill: #955333;
      }

      .cls-2 {
        fill: #a86240;
      }

      .cls-3 {
        fill: #904e2b;
      }

      .cls-4 {
        fill: #965633;
      }

      .cls-5 {
        fill: #fbbc86;
      }

      .cls-6 {
        fill: #9a5a36;
      }

      .cls-7 {
        fill: #fcbd87;
      }

      .cls-8 {
        fill: #fff;
      }

      .cls-9 {
        fill: #231f20;
      }

      .cls-10 {
        fill: #753313;
      }

      .cls-11 {
        fill: #562810;
      }
    </style>
  </defs>
  <title>10_big_monkey</title>
  <g>
    <path class="cls-1" d="M221.79,448.9a5,5,0,0,0-4.27-9.07c-1.78.66-42.36,15.09-83.2-18.12a80.22,80.22,0,0,1-12.08-12.44c-13.47-16.9-48.58-55.43-83.51-48.09C12.88,366.62.54,387.43,0,404.47c-.5,16.38,8.67,29.16,23.92,33.35,11.61,3.19,23.15,0,30.87-8.6,7.24-8,9.65-19,6.13-28-2-5.18-7.87-14.1-24.2-15.61a5,5,0,0,0-.92,10c8.24.76,13.69,4,15.76,9.26s.41,12.48-4.24,17.64c-5.19,5.77-12.75,7.82-20.73,5.63-10.71-2.94-16.89-11.67-16.53-23.35.4-13.23,10.19-29.44,30.74-33.76,30.28-6.36,64,32.46,73.58,44.51a90.2,90.2,0,0,0,13.6,14c45.5,37,91.15,20.46,93.07,19.74A5,5,0,0,0,221.79,448.9Z"/>
    <g>
      <path class="cls-2" d="M380.48,417.2c3.15,3.49,7.25.86,7.81-3,.48-3.34-1.45-7-3.21-9.68A18.59,18.59,0,0,0,373,396.24a18.88,18.88,0,0,0-20.48,12.11,29.6,29.6,0,0,0-1.3,8.4,18.44,18.44,0,0,0,.79,7.18,7.42,7.42,0,0,0,5,4.83c2.37.51,5.17-.94,5.61-3.33-.06,2.55,3.22,4.23,5.57,3.24s3.56-3.75,3.5-6.3a5.16,5.16,0,0,0,8.74-5.19Z"/>
      <path class="cls-3" d="M291.44,344.8c.19.79,11.51,3.22,12.52,3.56a150.48,150.48,0,0,1,28.1,12.59,107,107,0,0,1,20.58,15.34,80.59,80.59,0,0,1,8.95,10.19c1.21,1.64,2.14,3.89,3.46,5.37,1.92,2.16,5.34,3.33,7.77,4.82,2.73,1.67,5.36,3.88,6.39,6.91a32,32,0,0,0-6.45-3.28,24.48,24.48,0,0,1,.5,6.65,12.92,12.92,0,0,0-5.67-3.4,34.82,34.82,0,0,1-2.85,9.23l-3.2-7.09-4,10.18a31.13,31.13,0,0,1-1-8.56l-5.54,6.84.95-9.71c.33-3.39,0-5.08-2.14-7.58-1.59-1.86-3.12-3.76-4.77-5.57a102.27,102.27,0,0,0-12.76-11.93c-10.1-7.86-22.51-13.75-35.6-12.48Z"/>
    </g>
    <g>
      <path class="cls-2" d="M110.09,329.43c-4.7.12-5.61-4.68-3.17-7.75,2.1-2.64,6.07-3.75,9.24-4.32a18.59,18.59,0,0,1,14.28,3.09,18.88,18.88,0,0,1,5.28,23.2,29.6,29.6,0,0,1-5.21,6.72,18.44,18.44,0,0,1-5.76,4.37,7.42,7.42,0,0,1-7-.34c-2-1.37-2.87-4.4-1.44-6.36-1.81,1.8-5.29.57-6.18-1.82s.28-5.16,2.17-6.87a5.16,5.16,0,0,1-2.24-9.92Z"/>
      <path class="cls-3" d="M223.87,344.34c-.7.4-10.25-6.14-11.19-6.64a150.48,150.48,0,0,0-28.45-11.76,107,107,0,0,0-25.29-4.41,80.59,80.59,0,0,0-13.55.5c-2,.25-4.3,1.12-6.28,1.18-2.89.09-6.08-1.59-8.84-2.33-3.09-.83-6.5-1.22-9.41.11a32,32,0,0,1,6.81,2.44,24.48,24.48,0,0,0-5.18,4.21,12.92,12.92,0,0,1,6.36,1.78,34.82,34.82,0,0,0-4.74,8.41l7.35-2.55-4.66,9.89a31.13,31.13,0,0,0,6.88-5.19l-1.16,8.72,6.4-7.36c2.24-2.57,3.69-3.49,7-3.65,2.44-.12,4.88-.32,7.33-.36a102.27,102.27,0,0,1,17.44,1.07c12.65,1.94,25.46,6.9,33.54,17.28Z"/>
    </g>
    <g>
      <circle class="cls-4" cx="338" cy="310.88" r="16.2" transform="translate(1.74 623.63) rotate(-85.53)"/>
      <circle class="cls-5" cx="333.03" cy="309.12" r="10.41" transform="translate(-1.09 617.05) rotate(-85.53)"/>
    </g>
    <g>
      <path class="cls-2" d="M343.92,523.2s-23.28,9.7-20.21,22.88,22.28,6.64,32.16,5.1,29.22-4,28.29-10-9.66-3.55-9.66-3.55,8.24-2.3,6.9-7.65-7.95-2.06-7.95-2.06,4.86-1.51,4.17-6-6.73-1-6.73-1,6.16-2.64,4.09-6.2C371.83,509.36,343.92,523.2,343.92,523.2Z"/>
      <path class="cls-1" d="M273.54,441.1c.21-.28,4.9,2.09,5.22,2.24a106.64,106.64,0,0,1,13.4,7.71,130,130,0,0,1,36.42,37.26,140.87,140.87,0,0,1,8.86,15.83c2.34,4.88,3.54,13.33,9.86,14.11,2.61.32,5.39-.07,7.79,1-2.74.92-3.21,1.64-5.49,3.42,3.15.5,5.17,2.13,8.28,4.59-2.94.23-5.13,2.46-7.92,2.1,1.46,3.3,3.36,5.79,4.08,9.32a30.48,30.48,0,0,0-7-3.4,61,61,0,0,1,1.73,9.1,30.74,30.74,0,0,1-11.38-6.93,75.27,75.27,0,0,0-7.09,9,58.37,58.37,0,0,1-2-7.75,9,9,0,0,0-4.91,4.36c1.15-2.27,1.29-6,1.65-8.47a38,38,0,0,0,.35-8.84c-.42-4.47-2.34-8.66-4-12.77a114.46,114.46,0,0,0-12.34-22.5,91.86,91.86,0,0,0-46.7-34.61Z"/>
    </g>
    <g>
      <path class="cls-2" d="M146.78,523.35s24.57,5.66,23.76,19.17-20.85,10.29-30.85,10.42-29.48.91-29.56-5.09,8.93-5.12,8.93-5.12-8.51-.88-8.09-6.39,7.49-3.36,7.49-3.36-5-.67-5.11-5.17,6.47-2.09,6.47-2.09-6.51-1.57-5.07-5.43C116.95,514.38,146.78,523.35,146.78,523.35Z"/>
      <path class="cls-1" d="M202.4,430.61c-.26-.24-4.48,2.88-4.77,3.08a106.64,106.64,0,0,0-11.92,9.84,130,130,0,0,0-29.66,42.84,140.87,140.87,0,0,0-6.08,17.1c-1.48,5.2-1.25,13.74-7.35,15.56-2.52.76-5.32.83-7.51,2.29,2.86.44,3.44,1.08,6,2.45-3,1-4.74,3-7.4,5.92,2.94-.26,5.47,1.56,8.16.74-.88,3.5-2.34,6.27-2.46,9.88a30.48,30.48,0,0,1,6.29-4.52,61,61,0,0,0-.18,9.26,30.74,30.74,0,0,0,10.06-8.74,75.27,75.27,0,0,1,8.5,7.73,58.37,58.37,0,0,0,.67-8,9,9,0,0,1,5.57,3.47c-1.51-2-2.27-5.65-3-8.07a38,38,0,0,1-1.83-8.65c-.34-4.48.86-8.93,1.85-13.27a114.46,114.46,0,0,1,8.39-24.25,91.86,91.86,0,0,1,40.24-41.95Z"/>
    </g>
    <ellipse class="cls-6" cx="247.54" cy="389.57" rx="70.72" ry="62.07" transform="translate(-160.13 606.01) rotate(-85.53)"/>
    <ellipse class="cls-7" cx="246.84" cy="398.57" rx="49.65" ry="43.58" transform="translate(-169.75 613.61) rotate(-85.53)"/>
    <g>
      <circle class="cls-4" cx="180.6" cy="290.29" r="16.2" transform="translate(-122.88 447.73) rotate(-85.53)"/>
      <circle class="cls-5" cx="185.79" cy="289.33" r="10.41" transform="translate(-117.13 452.01) rotate(-85.53)"/>
    </g>
    <ellipse class="cls-6" cx="262.51" cy="273.55" rx="70.67" ry="76.23" transform="translate(-30.66 513.95) rotate(-85.53)"/>
    <path class="cls-5" d="M200.76,266.71a33.8,33.8,0,0,1,63.79-12.78,33.79,33.79,0,1,1,45.24,48.53,22.8,22.8,0,0,1,1,8.29c-1.46,18.62-25.84,31.91-54.47,29.67s-50.66-19.15-49.2-37.77a23.16,23.16,0,0,1,3.11-9.83A33.71,33.71,0,0,1,200.76,266.71Z"/>
    <g>
      <circle class="cls-8" cx="291.41" cy="298.49" r="15.11" transform="translate(-28.87 565.76) rotate(-85.53)"/>
      <circle class="cls-9" cx="291.41" cy="298.49" r="10.17" transform="translate(-28.87 565.76) rotate(-85.53)"/>
      <circle class="cls-8" cx="287.8" cy="292.65" r="3.7" transform="translate(-26.38 556.78) rotate(-85.53)"/>
    </g>
    <g>
      <circle class="cls-8" cx="228.98" cy="293.61" r="15.11" transform="translate(-81.58 499.02) rotate(-85.53)"/>
      <circle class="cls-9" cx="228.98" cy="293.61" r="10.17" transform="translate(-81.58 499.02) rotate(-85.53)"/>
      <circle class="cls-8" cx="225.37" cy="287.77" r="3.7" transform="translate(-79.09 490.04) rotate(-85.53)"/>
    </g>
    <path class="cls-10" d="M259.93,311.35a.78.78,0,0,1-.58-1.25c1.12-1.58,3.33-4.17,5.42-3.62,3,.79,3.75,5,2.08,5.14C265.66,311.73,261.94,311.49,259.93,311.35Z"/>
    <path class="cls-10" d="M255.62,311a.78.78,0,0,0,.76-1.14c-.86-1.73-2.64-4.64-4.8-4.42-3.06.31-4.48,4.35-2.86,4.75C249.89,310.49,253.61,310.84,255.62,311Z"/>
    <circle class="cls-11" cx="248.75" cy="324.52" r="5.52" transform="translate(-94.16 547.24) rotate(-85.53)"/>
  </g>
  <g>
    <path class="cls-1" d="M802.21,448.9a5,5,0,0,1,4.27-9.07c1.78.66,42.36,15.09,83.2-18.12a80.22,80.22,0,0,0,12.08-12.44c13.47-16.9,48.58-55.43,83.51-48.09,25.86,5.44,38.2,26.25,38.72,43.29.5,16.38-8.67,29.16-23.92,33.35-11.61,3.19-23.15,0-30.87-8.6-7.24-8-9.65-19-6.13-28,2-5.18,7.87-14.1,24.2-15.61a5,5,0,0,1,.92,10c-8.24.76-13.69,4-15.76,9.26s-.41,12.48,4.24,17.64c5.19,5.77,12.75,7.82,20.73,5.63,10.71-2.94,16.89-11.67,16.53-23.35-.4-13.23-10.19-29.44-30.74-33.76-30.28-6.36-64,32.46-73.58,44.51a90.2,90.2,0,0,1-13.6,14c-45.5,37-91.15,20.46-93.07,19.74A5,5,0,0,1,802.21,448.9Z"/>
    <g>
      <path class="cls-2" d="M643.52,417.2c-3.15,3.49-7.25.86-7.81-3-.48-3.34,1.45-7,3.21-9.68A18.59,18.59,0,0,1,651,396.24a18.88,18.88,0,0,1,20.48,12.11,29.6,29.6,0,0,1,1.3,8.4,18.44,18.44,0,0,1-.79,7.18,7.42,7.42,0,0,1-5,4.83c-2.37.51-5.17-.94-5.61-3.33.06,2.55-3.22,4.23-5.57,3.24s-3.56-3.75-3.5-6.3a5.16,5.16,0,0,1-8.74-5.19Z"/>
      <path class="cls-3" d="M732.56,344.8c-.19.79-11.51,3.22-12.52,3.56a150.48,150.48,0,0,0-28.1,12.59,107,107,0,0,0-20.58,15.34,80.59,80.59,0,0,0-8.95,10.19c-1.21,1.64-2.14,3.89-3.46,5.37-1.92,2.16-5.34,3.33-7.77,4.82-2.73,1.67-5.36,3.88-6.39,6.91a32,32,0,0,1,6.45-3.28,24.48,24.48,0,0,0-.5,6.65,12.92,12.92,0,0,1,5.67-3.4,34.82,34.82,0,0,0,2.85,9.23l3.2-7.09,4,10.18a31.13,31.13,0,0,0,1-8.56l5.54,6.84-.95-9.71c-.33-3.39,0-5.08,2.14-7.58,1.59-1.86,3.12-3.76,4.77-5.57a102.27,102.27,0,0,1,12.76-11.93c10.1-7.86,22.51-13.75,35.6-12.48Z"/>
    </g>
    <g>
      <path class="cls-2" d="M913.91,329.43c4.7.12,5.61-4.68,3.17-7.75-2.1-2.64-6.07-3.75-9.24-4.32a18.59,18.59,0,0,0-14.28,3.09,18.88,18.88,0,0,0-5.28,23.2,29.6,29.6,0,0,0,5.21,6.72,18.44,18.44,0,0,0,5.76,4.37,7.42,7.42,0,0,0,7-.34c2-1.37,2.87-4.4,1.44-6.36,1.81,1.8,5.29.57,6.18-1.82s-.28-5.16-2.17-6.87a5.16,5.16,0,0,0,2.24-9.92Z"/>
      <path class="cls-3" d="M800.13,344.34c.7.4,10.25-6.14,11.19-6.64a150.48,150.48,0,0,1,28.45-11.76,107,107,0,0,1,25.29-4.41,80.59,80.59,0,0,1,13.55.5c2,.25,4.3,1.12,6.28,1.18,2.89.09,6.08-1.59,8.84-2.33,3.09-.83,6.5-1.22,9.41.11a32,32,0,0,0-6.81,2.44,24.48,24.48,0,0,1,5.18,4.21,12.92,12.92,0,0,0-6.36,1.78,34.82,34.82,0,0,1,4.74,8.41l-7.35-2.55,4.66,9.89a31.13,31.13,0,0,1-6.88-5.19l1.16,8.72-6.4-7.36c-2.24-2.57-3.69-3.49-7-3.65-2.44-.12-4.88-.32-7.33-.36a102.27,102.27,0,0,0-17.44,1.07c-12.65,1.94-25.46,6.9-33.54,17.28Z"/>
    </g>
    <g>
      <circle class="cls-4" cx="686" cy="310.88" r="16.2" transform="translate(-22.13 54.38) rotate(-4.47)"/>
      <circle class="cls-5" cx="690.97" cy="309.12" r="10.41" transform="translate(-21.98 54.77) rotate(-4.47)"/>
    </g>
    <g>
      <path class="cls-2" d="M680.08,523.2s23.28,9.7,20.21,22.88-22.28,6.64-32.16,5.1-29.22-4-28.29-10,9.66-3.55,9.66-3.55-8.24-2.3-6.9-7.65,7.95-2.06,7.95-2.06-4.86-1.51-4.17-6,6.73-1,6.73-1-6.16-2.64-4.09-6.2C652.17,509.36,680.08,523.2,680.08,523.2Z"/>
      <path class="cls-1" d="M750.46,441.1c-.21-.28-4.9,2.09-5.22,2.24a106.64,106.64,0,0,0-13.4,7.71,130,130,0,0,0-36.42,37.26,140.87,140.87,0,0,0-8.86,15.83c-2.34,4.88-3.54,13.33-9.86,14.11-2.61.32-5.39-.07-7.79,1,2.74.92,3.21,1.64,5.49,3.42-3.15.5-5.17,2.13-8.28,4.59,2.94.23,5.13,2.46,7.92,2.1-1.46,3.3-3.36,5.79-4.08,9.32a30.48,30.48,0,0,1,7-3.4,61,61,0,0,0-1.73,9.1,30.74,30.74,0,0,0,11.38-6.93,75.27,75.27,0,0,1,7.09,9,58.37,58.37,0,0,0,2-7.75,9,9,0,0,1,4.91,4.36c-1.15-2.27-1.29-6-1.65-8.47a38,38,0,0,1-.35-8.84c.42-4.47,2.34-8.66,4-12.77a114.46,114.46,0,0,1,12.34-22.5,91.86,91.86,0,0,1,46.7-34.61Z"/>
    </g>
    <g>
      <path class="cls-2" d="M877.22,523.35s-24.57,5.66-23.76,19.17,20.85,10.29,30.85,10.42,29.48.91,29.56-5.09-8.93-5.12-8.93-5.12,8.51-.88,8.09-6.39-7.49-3.36-7.49-3.36,5-.67,5.11-5.17-6.47-2.09-6.47-2.09,6.51-1.57,5.07-5.43C907.05,514.38,877.22,523.35,877.22,523.35Z"/>
      <path class="cls-1" d="M821.6,430.61c.26-.24,4.48,2.88,4.77,3.08a106.64,106.64,0,0,1,11.92,9.84,130,130,0,0,1,29.66,42.84,140.87,140.87,0,0,1,6.08,17.1c1.48,5.2,1.25,13.74,7.35,15.56,2.52.76,5.32.83,7.51,2.29-2.86.44-3.44,1.08-6,2.45,3,1,4.74,3,7.4,5.92-2.94-.26-5.47,1.56-8.16.74.88,3.5,2.34,6.27,2.46,9.88a30.48,30.48,0,0,0-6.29-4.52,61,61,0,0,1,.18,9.26,30.74,30.74,0,0,1-10.06-8.74,75.27,75.27,0,0,0-8.5,7.73,58.37,58.37,0,0,1-.67-8,9,9,0,0,0-5.57,3.47c1.51-2,2.27-5.65,3-8.07a38,38,0,0,0,1.83-8.65c.34-4.48-.86-8.93-1.85-13.27a114.46,114.46,0,0,0-8.39-24.25,91.86,91.86,0,0,0-40.24-41.95Z"/>
    </g>
    <ellipse class="cls-6" cx="776.46" cy="389.57" rx="62.07" ry="70.72" transform="translate(-27.99 61.67) rotate(-4.47)"/>
    <ellipse class="cls-7" cx="777.16" cy="398.57" rx="43.58" ry="49.65" transform="translate(-28.69 61.75) rotate(-4.47)"/>
    <g>
      <circle class="cls-4" cx="843.4" cy="290.29" r="16.2" transform="translate(-20.05 66.58) rotate(-4.47)"/>
      <circle class="cls-5" cx="838.21" cy="289.33" r="10.41" transform="translate(-19.99 66.17) rotate(-4.47)"/>
    </g>
    <ellipse class="cls-6" cx="761.49" cy="273.55" rx="76.23" ry="70.67" transform="translate(-19 60.15) rotate(-4.47)"/>
    <path class="cls-5" d="M823.24,266.71a33.8,33.8,0,0,0-63.79-12.78,33.79,33.79,0,1,0-45.24,48.53,22.8,22.8,0,0,0-1,8.29c1.46,18.62,25.84,31.91,54.47,29.67s50.66-19.15,49.2-37.77a23.16,23.16,0,0,0-3.11-9.83A33.71,33.71,0,0,0,823.24,266.71Z"/>
    <g>
      <circle class="cls-8" cx="732.59" cy="298.49" r="15.11" transform="translate(-21.03 57.97) rotate(-4.47)"/>
      <circle class="cls-9" cx="732.59" cy="298.49" r="10.17" transform="translate(-21.03 57.97) rotate(-4.47)"/>
      <circle class="cls-8" cx="736.2" cy="292.65" r="3.7" transform="translate(-20.56 58.24) rotate(-4.47)"/>
    </g>
    <g>
      <circle class="cls-8" cx="795.02" cy="293.61" r="15.11" transform="translate(-20.46 62.82) rotate(-4.47)"/>
      <circle class="cls-9" cx="795.02" cy="293.61" r="10.17" transform="translate(-20.46 62.82) rotate(-4.47)"/>
      <circle class="cls-8" cx="798.63" cy="287.77" r="3.7" transform="translate(-19.99 63.09) rotate(-4.47)"/>
    </g>
    <path class="cls-10" d="M764.07,311.35a.78.78,0,0,0,.58-1.25c-1.12-1.58-3.33-4.17-5.42-3.62-3,.79-3.75,5-2.08,5.14C758.34,311.73,762.06,311.49,764.07,311.35Z"/>
    <path class="cls-10" d="M768.38,311a.78.78,0,0,1-.76-1.14c.86-1.73,2.64-4.64,4.8-4.42,3.06.31,4.48,4.35,2.86,4.75C774.11,310.49,770.39,310.84,768.38,311Z"/>
    <circle class="cls-11" cx="775.25" cy="324.52" r="5.52" transform="matrix(1, -0.08, 0.08, 1, -22.92, 61.38)"/>
  </g>
</svg>
