<svg id="Layer_1" data-name="Layer 1" xmlns="http://www.w3.org/2000/svg" xmlns:xlink="http://www.w3.org/1999/xlink" viewBox="0 0 260 168"><defs><style>.cls-1{fill:none;}.cls-2{fill:#f27341;}.cls-3{fill:#fbe831;}.cls-4{fill:#f27342;}.cls-5{fill:#fff;}.cls-6{clip-path:url(#clip-path);}.cls-7{fill:#ec764b;}.cls-8{fill:#ed2d24;}.cls-9{clip-path:url(#clip-path-2);}</style><clipPath id="clip-path"><ellipse id="SVGID" class="cls-1" cx="29.25" cy="15.9" rx="1.91" ry="1.91"/></clipPath><clipPath id="clip-path-2"><ellipse id="SVGID-2" data-name="SVGID" class="cls-1" cx="35.03" cy="15.82" rx="1.91" ry="1.91"/></clipPath></defs><polygon class="cls-2" points="36.16 27.23 36.71 22.72 32.52 24.5 36.16 27.23"/><polygon class="cls-2" points="27.4 6.7 31.04 9.43 26.86 11.21 27.4 6.7"/><polygon class="cls-2" points="27.4 27.23 26.86 22.72 31.04 24.5 27.4 27.23"/><polygon class="cls-2" points="36.16 6.7 32.52 9.43 36.71 11.21 36.16 6.7"/><polygon class="cls-2" points="42.1 21.23 39.33 17.62 37.59 21.82 42.1 21.23"/><polygon class="cls-2" points="21.47 12.71 25.98 12.11 24.24 16.31 21.47 12.71"/><polygon class="cls-2" points="21.47 21.23 24.24 17.62 25.98 21.82 21.47 21.23"/><polygon class="cls-2" points="42.1 12.71 37.59 12.11 39.33 16.31 42.1 12.71"/><polygon class="cls-2" points="23.89 24.86 25.07 20.46 28.28 23.68 23.89 24.86"/><polygon class="cls-2" points="39.67 9.07 35.28 10.25 38.5 13.47 39.67 9.07"/><polygon class="cls-2" points="39.67 24.86 38.5 20.46 35.28 23.68 39.67 24.86"/><polygon class="cls-2" points="23.89 9.07 28.28 10.25 25.07 13.47 23.89 9.07"/><polygon class="cls-2" points="31.78 5.8 29.51 9.74 34.06 9.74 31.78 5.8"/><polygon class="cls-2" points="31.78 28.13 29.51 24.19 34.06 24.19 31.78 28.13"/><polygon class="cls-2" points="42.94 16.96 39.01 14.69 39.01 19.24 42.94 16.96"/><polygon class="cls-2" points="20.62 16.96 24.56 14.69 24.56 19.24 20.62 16.96"/><ellipse class="cls-3" cx="32.24" cy="17.08" rx="8.28" ry="8.27"/><path class="cls-2" d="M27.19,14.07s2.19-2,3.45-.28c0,0,0-1.58-1.22-1.46S27.19,14.07,27.19,14.07Z"/><path class="cls-2" d="M36.75,14s-2.2-2-3.45-.27c0,0,0-1.58,1.22-1.46S36.75,14,36.75,14Z"/><path class="cls-4" d="M28.75,19.22s1.81,2.62,4.56,2a4.37,4.37,0,0,0,2.42-2.52S33.59,21.33,28.75,19.22Z"/><ellipse class="cls-5" cx="29.23" cy="15.9" rx="1.91" ry="1.91"/><g class="cls-6"><circle class="cls-7" cx="29.22" cy="16.01" r="1.21" transform="translate(-0.05 0.09) rotate(-0.17)"/><circle class="cls-8" cx="29.24" cy="16.01" r="0.82" transform="translate(-0.05 0.09) rotate(-0.17)"/><circle class="cls-5" cx="28.82" cy="15.43" r="0.38" transform="translate(-0.05 0.09) rotate(-0.17)"/></g><ellipse class="cls-5" cx="35.03" cy="15.82" rx="1.91" ry="1.91"/><g class="cls-9"><circle class="cls-7" cx="35.1" cy="15.94" r="1.21"/><circle class="cls-8" cx="35.12" cy="15.94" r="0.82"/><circle class="cls-5" cx="34.56" cy="15.49" r="0.38"/></g><circle class="cls-4" cx="32.49" cy="17.86" r="0.98"/></svg>