<svg id="Layer_2" data-name="Layer 2" xmlns="http://www.w3.org/2000/svg" xmlns:xlink="http://www.w3.org/1999/xlink" viewBox="0 0 260 168"><defs><style>.cls-1{fill:#3a3a3a;}.cls-2{fill:#474647;}.cls-12,.cls-3{fill:none;}.cls-4{fill:#a55716;}.cls-5{fill:#9b4a0d;}.cls-10,.cls-6{fill:#333;}.cls-7{fill:#2d2d2d;}.cls-8{clip-path:url(#clip-path);}.cls-9{clip-path:url(#clip-path-2);}.cls-10{opacity:0.3;}.cls-11{fill:#231f20;}.cls-12{stroke:#727272;stroke-linecap:round;stroke-linejoin:round;stroke-width:0.22px;}.cls-13{clip-path:url(#clip-path-3);}.cls-14{fill:#6d3503;}.cls-15{fill:#7c3e0a;}.cls-16{fill:#602e05;}.cls-17{clip-path:url(#clip-path-4);}.cls-18{fill:#c96d28;}.cls-19{clip-path:url(#clip-path-5);}.cls-20{fill:#e0874b;}.cls-21{clip-path:url(#clip-path-6);}.cls-22{fill:#9b4a0e;}.cls-23{clip-path:url(#clip-path-7);}.cls-24{fill:#58990d;}.cls-25{fill:#9e5823;}</style><clipPath id="clip-path"><path class="cls-1" d="M151.2,144.18a5.46,5.46,0,0,1-2.21-2.82c-.39-1.66.55-2.71,2.54-3.54a9,9,0,0,1,4.76-.67c1,.17,4,.94,4,.94L158,139.31l-.11-.89a6.24,6.24,0,0,0-3.82-.66c-2,.37-3.87,1.36-3.91,2.07s1.18,1.84,1.92,2.24Z"/></clipPath><clipPath id="clip-path-2"><path class="cls-2" d="M197.81,143c0-3.39-10.7-6.14-23.9-6.14S150,139.61,150,143v.12s.68,5.8,2.91,8.64h0c1.58,2.61,10.36,4.61,20.95,4.61s19.38-2,21-4.61h0A14.52,14.52,0,0,0,197.81,143Z"/></clipPath><clipPath id="clip-path-3"><ellipse class="cls-3" cx="173.91" cy="143.26" rx="22.74" ry="5.85"/></clipPath><clipPath id="clip-path-4"><path class="cls-4" d="M159.43,145.06a16.06,16.06,0,0,0-.38,1.84c-.07.73,2.86,1.83,3.63,1.77a11.88,11.88,0,0,0,4.43-1.75c.64-.68-.74-1.86-.74-1.86l-5.37,0Z"/></clipPath><clipPath id="clip-path-5"><path class="cls-5" d="M184.14,141.7a8.16,8.16,0,0,0-.52,1.16c-.14.45,2,1.24,3.37,1.22a2.21,2.21,0,0,0,1.91-1.52c0-.12.19-1.5-.13-1.68l-3.3.79Z"/></clipPath><clipPath id="clip-path-6"><path class="cls-4" d="M169.41,146.43a1.78,1.78,0,0,0-.27,1.29c.18.59,5,.76,5.3.69s1.72-.48,2.07-1.12-.32-1.29-.32-1.29l-4.21.09Z"/></clipPath><clipPath id="clip-path-7"><path class="cls-4" d="M174.33,143s-.37,1-.1,1.41,3.18.32,3.83.35a5.42,5.42,0,0,0,2.91-.43c.73-.54.19-1.62.19-1.62l-6,.19Z"/></clipPath></defs><path class="cls-6" d="M200.14,143.31s.58-.13.07.87c0,0,.71-.1.77-.2s.39-1.38.39-1.38l-1.1-.36Z"/><path class="cls-7" d="M150.22,140.34s.19-1,2.09-1.62,2.76-.57,3.17-.41a13.12,13.12,0,0,1,1.45.93l2.35-.89-4-1-2.61.35-2,1-1,1,.26.72Z"/><path class="cls-1" d="M151.2,144.18a5.46,5.46,0,0,1-2.21-2.82c-.39-1.66.55-2.71,2.54-3.54a9,9,0,0,1,4.76-.67c1,.17,4,.94,4,.94L158,139.31l-.11-.89a6.24,6.24,0,0,0-3.82-.66c-2,.37-3.87,1.36-3.91,2.07s1.18,1.84,1.92,2.24Z"/><g class="cls-8"><path class="cls-6" d="M148.71,139a5.37,5.37,0,0,0,1.2,3.3A5.12,5.12,0,0,0,152,143.8a9,9,0,0,1-.82.81s-2-.21-2-.25-.61-2.16-.6-2.3S148.71,139,148.71,139Z"/></g><path class="cls-2" d="M197.81,143c0-3.39-10.7-6.14-23.9-6.14S150,139.61,150,143v.12s.68,5.8,2.91,8.64h0c1.58,2.61,10.36,4.61,20.95,4.61s19.38-2,21-4.61h0A14.52,14.52,0,0,0,197.81,143Z"/><g class="cls-9"><path class="cls-10" d="M147.64,145.39s3.1,8.41,25.81,8.41,24.79-6.56,24.79-6.56l.44,9.66-40.35,1.84-12.83-6Z"/></g><ellipse class="cls-11" cx="173.91" cy="143.26" rx="22.74" ry="5.85"/><path class="cls-12" d="M152.23,140.75s4.52-2.95,15.73-3.47"/><path class="cls-12" d="M151.48,144.67s2.87,4.76,23.89,4.71"/><path class="cls-6" d="M197.81,142.84s2.54-1.11,2.88-.25-1.76,3.78-3.31,4-4.64.95-4.64.95a2.85,2.85,0,0,0,0,1.76c.35.69,3.87-.43,5.59-1.55a6.27,6.27,0,0,0,3.22-4.76C201.81,140.74,197.81,142.84,197.81,142.84Z"/><path class="cls-6" d="M197.81,142.84l-.08,1.46s2.79-1.63,3.43-.81C201.16,143.49,202.2,141,197.81,142.84Z"/><path class="cls-6" d="M192.74,147.57s1.64-.85,2.12-1.17,2.22-.36,3.38-.61a2.79,2.79,0,0,0,2.16-2.45l.55-.29-.81,2.29L198,147.17l-2.49.52Z"/><g class="cls-13"><path class="cls-14" d="M196.08,145.72a.78.78,0,0,0,0-.18,1.58,1.58,0,0,0-.92-1.62,15.22,15.22,0,0,0-1.9-.66c-1.56-.59-2.83-2-4.5-2.06a15,15,0,0,0-1.5.18c-2.12.2-4.12-1.1-6.24-1.13-1.08,0-2.15.3-3.23.38l-1.48-.06a18,18,0,0,0-3.49-.44,11.9,11.9,0,0,0-2.26.45c-1,0-2,.09-2.9.15a12.76,12.76,0,0,0-1.37-.27,11.66,11.66,0,0,0-4,.78c-1.92.5-3.92.59-5.85,1a8,8,0,0,0-5,2.93l-.17.24a.44.44,0,0,0-.08.11l-.21.29h0a1.87,1.87,0,0,0-.17.76c0,3.36,10.17,6.09,22.71,6.09s22.72-2.73,22.72-6.09A2,2,0,0,0,196.08,145.72Z"/><path class="cls-15" d="M158.78,142.19a.5.5,0,0,0-.34,0,.2.2,0,0,0-.16.27.26.26,0,0,0,.14.09,3.69,3.69,0,0,0,1.68.2,15.71,15.71,0,0,0,2.46-.47l3.05-.76a1.41,1.41,0,0,0,.74-.34,2.05,2.05,0,0,0-1.42-.21,8.4,8.4,0,0,0-1.4.43,14.74,14.74,0,0,1-4.46.84Z"/><path class="cls-16" d="M178.3,141.27a9.21,9.21,0,0,1-1.81-.06.29.29,0,0,0-.1,0c-.07,0,0,.17,0,.22a.44.44,0,0,0,.25.06,2.19,2.19,0,0,1,.72.19,2.41,2.41,0,0,0,.56.22,1.45,1.45,0,0,0,1.05-.43l.42-.32s.05,0,.06-.06a.14.14,0,0,0-.08-.19.49.49,0,0,0-.24,0,2.27,2.27,0,0,0-.71.27"/><path class="cls-16" d="M169.29,141.31a12.19,12.19,0,0,0,1.7-.09.48.48,0,0,1,.29.07,1.48,1.48,0,0,1-1,.41,3.3,3.3,0,0,1-1.12-.19.22.22,0,0,1-.14-.1.09.09,0,0,1,0-.12.1.1,0,0,1,.12,0"/><path class="cls-16" d="M191.33,147a19.08,19.08,0,0,0-2.61.18,9.45,9.45,0,0,1-2.49-.13c0,.27.35.39.62.45a6.4,6.4,0,0,0,2.08.27c.41,0,.81-.14,1.22-.19s.77,0,1.15-.09a1.58,1.58,0,0,0,1-.5.83.83,0,0,0-.75,0"/><path class="cls-16" d="M191.42,143.26a11.74,11.74,0,0,0-1.56.35.77.77,0,0,0-.26.12.27.27,0,0,0-.11.26c0,.11.15.17.26.21a6.54,6.54,0,0,0,2.46.17,1,1,0,0,0,.5-.1.35.35,0,0,0,.15-.45.44.44,0,0,0-.43-.14,1.07,1.07,0,0,1-.47,0,.37.37,0,0,1,.33-.31.61.61,0,0,0-.55-.13"/><path class="cls-4" d="M159.43,145.06a16.06,16.06,0,0,0-.38,1.84c-.07.73,2.86,1.83,3.63,1.77a11.88,11.88,0,0,0,4.43-1.75c.64-.68-.74-1.86-.74-1.86l-5.37,0Z"/><g class="cls-17"><path class="cls-5" d="M162.23,143.67s.13,2.15.27,2.73.54,2,.13,2.53l1.62.37,4-.3-.73-4.59Z"/></g><path class="cls-18" d="M159.92,144.86s1.81-.34,2.92-.57,2.59.56,3.43.74-3,1.31-3.77,1.37S158.15,145.15,159.92,144.86Z"/><path class="cls-5" d="M184.14,141.7a8.16,8.16,0,0,0-.52,1.16c-.14.45,2,1.24,3.37,1.22a2.21,2.21,0,0,0,1.91-1.52c0-.12.19-1.5-.13-1.68l-3.3.79Z"/><g class="cls-19"><path class="cls-4" d="M183.34,140.49l-.38,3.12,4.3,1.14a2.8,2.8,0,0,0-.41-2.68,10.63,10.63,0,0,1-1.6-2.2Z"/></g><path class="cls-18" d="M184.41,141.5a6.51,6.51,0,0,0,1.66-1.16s.07-.12.38,0l2.2.51c.33.06.21.31.14.37s-.52,1.06-1.1,1.35-.72.26-1.54.13S183.4,141.93,184.41,141.5Z"/><ellipse class="cls-20" cx="186.88" cy="140.78" rx="0.21" ry="0.75" transform="translate(22.07 306.86) rotate(-82.21)"/><ellipse class="cls-20" cx="185.98" cy="141.12" rx="0.15" ry="0.51" transform="translate(20.95 306.25) rotate(-82.21)"/><path class="cls-4" d="M165.46,141.44a4.68,4.68,0,0,0-.18,1.17c0,.42,2.12.51,3.24.55a8.58,8.58,0,0,0,3.09-.36c.34-.23-.24-1.3-.24-1.3s-1.84-.23-3.91-.29S165.46,141.44,165.46,141.44Z"/><path class="cls-18" d="M167,140.75a9.46,9.46,0,0,0-1.54.69,23.67,23.67,0,0,0,5.91.06,2.92,2.92,0,0,0-1.4-.66A24.45,24.45,0,0,0,167,140.75Z"/><ellipse class="cls-20" cx="167.62" cy="141.03" rx="0.39" ry="0.1"/><ellipse class="cls-20" cx="169.64" cy="141.26" rx="0.19" ry="0.78" transform="translate(23.75 306.94) rotate(-88.42)"/><path class="cls-4" d="M169.41,146.43a1.78,1.78,0,0,0-.27,1.29c.18.59,5,.76,5.3.69s1.72-.48,2.07-1.12-.32-1.29-.32-1.29l-4.21.09Z"/><g class="cls-21"><path class="cls-22" d="M173.37,145.56s1.73,1.84.84,3.43c0,0,3.15-.23,3.15-.27s-.56-2.66-.56-2.66l-.41-.48-3.36-.49.34.47"/></g><path class="cls-18" d="M172,145.45a19.55,19.55,0,0,1,4,.44c.86.38-1.16,1.1-1.9,1.1s-5.41-.24-4.64-.61A9.41,9.41,0,0,1,172,145.45Z"/><path class="cls-4" d="M181.65,147.35a.82.82,0,0,0-.17.61c0,.24,5.26.32,6.83-.05s-.05-2.1-.05-2.1l-4.88,1Z"/><path class="cls-18" d="M182.05,147a24,24,0,0,1,4.84-1.38c1,0,1.65,0,1.2.42a20.88,20.88,0,0,1-5.46,1.36C181.7,147.44,181.22,147.57,182.05,147Z"/><ellipse class="cls-20" cx="186.16" cy="146.03" rx="0.79" ry="0.21" transform="translate(-17.44 25.5) rotate(-7.49)"/><path class="cls-4" d="M157,142.22a2.48,2.48,0,0,0-.15,1.22c.13.44,1.47.65,2.3.67a5.89,5.89,0,0,0,2.6-.48c.42-.3-.3-1.47-.3-1.47Z"/><path class="cls-18" d="M159.16,141.55a5,5,0,0,1,2.19.46c.84.5-2.3.76-2.91.68s-2.08-.18-1.05-.73A3,3,0,0,1,159.16,141.55Z"/><path class="cls-4" d="M174.33,143s-.37,1-.1,1.41,3.18.32,3.83.35a5.42,5.42,0,0,0,2.91-.43c.73-.54.19-1.62.19-1.62l-6,.19Z"/><g class="cls-23"><path class="cls-5" d="M179.93,141.85s1.67,1.77.42,3.39l1.44-.66,0-2.52-.54-.5Z"/></g><path class="cls-18" d="M176.86,142.28s3.75,0,4.22.36-.77.65-2.82.63-4.84,0-3.69-.39A9.14,9.14,0,0,1,176.86,142.28Z"/><path class="cls-14" d="M156.59,143a5.45,5.45,0,0,1,1.15.37,2.52,2.52,0,0,0,2-.06c.82-.22.94,0,1.55-.06s.29-.49,1.15-.37,1.64-.39,2.69-.61a4.42,4.42,0,0,1,2.39.28,2.14,2.14,0,0,0,1.66,0,5.38,5.38,0,0,1,2.2-.22.62.62,0,0,0,.53,0c.21-.09,1.5.45,1.39.86s.6.84.6.84.06-.37,1.68,0a6.23,6.23,0,0,0,3.44.14,5.9,5.9,0,0,1,1.74-.31c.15,0,.25-.53.74-.45a8.6,8.6,0,0,1,1.19.33l.16-1.13a3.09,3.09,0,0,1,1.93.56,2.27,2.27,0,0,0,2.28.22c.32-.14.18-.37.77-.31s.6-.16.84-.61.23-.74.52-.59.28,1,.26,1a11.73,11.73,0,0,1-.71,1.43c-.17.19-.64.37-1.77.6s-1.78.33-1.78.33l-4.1.47s-3.36,0-3.93-.06-1.68-.08-2.71-.21l-2.46-.28-2-.27-5.22-.64-2.6-.08-3.86.37s-1.8-.35-1.9-.39-.86-.59-.86-.59Z"/><path class="cls-14" d="M158.48,146.24s.47-.3,1.34.66,1.75.49,2.76.6,1.07.49,2-.09.65-.73,1.58-1,1-.74,1.42-.5.88,1.29.69,1.45l-.88.77-3.19.87a14.9,14.9,0,0,1-1.75.08c-.71,0-3.91-.54-3.91-.54a.85.85,0,0,1-.14-.63A15.25,15.25,0,0,0,158.48,146.24Z"/><path class="cls-14" d="M168.43,147.36a3.16,3.16,0,0,1,2,.3,4.77,4.77,0,0,0,3.08.41,8.33,8.33,0,0,1,1.89-.33,1.14,1.14,0,0,0,.93-.54c.22-.33.11-.55.41-.63s.82.43.82.43l-.44,1.1s-2.16.6-2.32.63-1.29.11-1.67.11-3.22.08-3.55,0-.71.05-.93-.11-.63-.44-.63-.52A9.5,9.5,0,0,1,168.43,147.36Z"/><path class="cls-14" d="M180.72,148a3.42,3.42,0,0,1,1.86,0,3.41,3.41,0,0,0,2.35-.09,10.08,10.08,0,0,1,2.16-.41c1-.08,1.59,0,1.67-.08a2.74,2.74,0,0,1,.57-.46c.11,0,.77.57.77.57s-.41.79-1,.93-6.34.36-6.34.36l-1.34-.09C181.05,148.73,180.72,148,180.72,148Z"/><path class="cls-15" d="M171.6,140.7a4.67,4.67,0,0,1,2.89-.12,2.26,2.26,0,0,1,.58.16.69.69,0,0,1,.38.44,4.94,4.94,0,0,1-1.38-.06,8.9,8.9,0,0,1-2.37-.12c-.1,0-.22-.09-.26-.19"/><path class="cls-15" d="M182.62,140.8a1.34,1.34,0,0,0-1-.18c-.08,0-.18.06-.18.14a.18.18,0,0,0,0,.1,1.07,1.07,0,0,0,.61.3,6.63,6.63,0,0,0,1.92.3.24.24,0,0,0-.05-.23,1,1,0,0,0-.21-.14,3.49,3.49,0,0,0-1.06-.3"/><path class="cls-15" d="M176.78,144.6l-.55-.41a.5.5,0,0,0-.19-.1.16.16,0,0,0-.17.11.24.24,0,0,0,0,.13,2.19,2.19,0,0,0,.79.72c.11.06.26.1.33,0a.36.36,0,0,0-.23-.46"/></g><ellipse class="cls-24" cx="171.82" cy="144.06" rx="0.53" ry="0.15"/><path class="cls-24" d="M166.68,147.1a.92.92,0,0,0-.35-.14c-.14,0-.32,0-.36.08s0,.12.12.16a1.2,1.2,0,0,0,.3.07,2,2,0,0,0-.43,0c-.14,0-.27.07-.3.15s.12.18.29.2a1.74,1.74,0,0,0,.51,0c-.16.08-.34.19-.24.29a.4.4,0,0,0,.27.1.74.74,0,0,0,.64-.21c0,.06.05.13.15.17a.83.83,0,0,0,.36.05.66.66,0,0,0,.36-.08.1.1,0,0,0,0-.19,1.8,1.8,0,0,0,.71.09.62.62,0,0,0,.29-.08c.1-.09,0-.21-.18-.26a1.56,1.56,0,0,0-.57,0,.57.57,0,0,0,.37-.19c0-.09,0-.2-.14-.26a.89.89,0,0,0-.43,0,2.12,2.12,0,0,0-.38.13c.14-.08.07-.23-.12-.26s-.41.05-.42.16c0-.09-.12-.19-.29-.18s-.28.12-.2.2"/><path class="cls-24" d="M157.47,146a.54.54,0,0,0-.19-.07c-.08,0-.17,0-.19.05s0,.06.06.08l.16,0a.87.87,0,0,0-.23,0,.22.22,0,0,0-.16.08s.07.09.16.1a1.22,1.22,0,0,0,.27,0c-.08,0-.18.1-.13.15a.18.18,0,0,0,.14.05.43.43,0,0,0,.35-.11s0,.07.08.09a.54.54,0,0,0,.19,0,.36.36,0,0,0,.19-.05c.05,0,0-.07,0-.09a1,1,0,0,0,.38,0,.22.22,0,0,0,.15,0c.06,0,0-.1-.09-.13a1,1,0,0,0-.3,0,.27.27,0,0,0,.19-.1s0-.1-.07-.12a.36.36,0,0,0-.23,0,1,1,0,0,0-.2.06c.07,0,0-.11-.07-.13s-.22,0-.23.08-.06-.09-.15-.09-.15.07-.11.11"/><path class="cls-24" d="M185.19,144.31a1.72,1.72,0,0,0-.29-.05.81.81,0,0,0-.3,0s0,.05.1.06a1.71,1.71,0,0,0,.25,0h-.35a.52.52,0,0,0-.25.06s.1.06.24.07H185c-.13,0-.28.07-.2.11a.61.61,0,0,0,.22,0,1,1,0,0,0,.53-.08s0,.06.13.07a1.32,1.32,0,0,0,.29,0,1.26,1.26,0,0,0,.3,0c.07,0,.06-.06,0-.07a3.7,3.7,0,0,0,.59,0,.78.78,0,0,0,.24,0c.09,0,0-.08-.15-.1h-.47a.67.67,0,0,0,.31-.07s0-.07-.12-.09a1.36,1.36,0,0,0-.35,0l-.31.05c.11,0,.05-.09-.1-.1s-.34,0-.35.06-.1-.07-.24-.06-.23,0-.17.07"/><path class="cls-24" d="M179.82,147.53a.54.54,0,0,0-.19-.07c-.08,0-.17,0-.19,0s0,.06.06.08l.16,0a.87.87,0,0,0-.23,0c-.07,0-.14,0-.16.07s.07.09.16.11a1.22,1.22,0,0,0,.27,0c-.08,0-.18.1-.13.15s.08,0,.14,0a.43.43,0,0,0,.35-.11s0,.07.08.09a.39.39,0,0,0,.19,0,.36.36,0,0,0,.19,0s0-.08,0-.1a1,1,0,0,0,.38,0,.22.22,0,0,0,.15,0c.06,0,0-.11-.09-.13a1,1,0,0,0-.3,0,.31.31,0,0,0,.19-.1s0-.1-.07-.13a.45.45,0,0,0-.23,0,1,1,0,0,0-.2.06c.07,0,0-.11-.07-.13s-.22,0-.23.08-.06-.09-.15-.09-.15.06-.11.1"/><path class="cls-24" d="M164.07,142.45a.54.54,0,0,0-.19-.07c-.08,0-.17,0-.19.05s0,.06.06.08l.16,0a.81.81,0,0,0-.22,0,.23.23,0,0,0-.17.08s.07.09.16.1a1.22,1.22,0,0,0,.27,0c-.08,0-.18.1-.13.15a.18.18,0,0,0,.14.05.4.4,0,0,0,.35-.11s0,.07.08.09a.54.54,0,0,0,.19,0,.49.49,0,0,0,.19,0s0-.08,0-.1a1.17,1.17,0,0,0,.38,0,.38.38,0,0,0,.16,0c.05,0,0-.1-.1-.13a1,1,0,0,0-.3,0,.31.31,0,0,0,.19-.09c0-.05,0-.11-.07-.13a.36.36,0,0,0-.23,0,.59.59,0,0,0-.2.07c.07,0,0-.12-.07-.14s-.22,0-.23.08-.06-.09-.15-.09-.15.07-.11.11"/><path class="cls-24" d="M173.62,141.77a.54.54,0,0,0-.19-.07c-.08,0-.17,0-.19,0s0,.06.06.08l.16,0a.81.81,0,0,0-.22,0c-.08,0-.15,0-.17.07s.07.09.16.11a1.22,1.22,0,0,0,.27,0c-.08,0-.18.1-.13.15a.26.26,0,0,0,.14.05.43.43,0,0,0,.35-.11s0,.07.08.09a.39.39,0,0,0,.19,0,.36.36,0,0,0,.19,0c.05,0,0-.08,0-.1a1,1,0,0,0,.38,0,.27.27,0,0,0,.16,0s0-.11-.1-.13a1,1,0,0,0-.3,0,.31.31,0,0,0,.19-.1s0-.1-.07-.13a.45.45,0,0,0-.23,0,1,1,0,0,0-.2.06c.07,0,0-.11-.07-.13s-.22,0-.23.08-.06-.09-.15-.09-.15.06-.11.1"/><ellipse class="cls-25" cx="178.09" cy="148.4" rx="0.81" ry="0.14"/><ellipse class="cls-25" cx="180.31" cy="146.18" rx="0.53" ry="0.09"/><ellipse class="cls-25" cx="182.85" cy="143.21" rx="0.53" ry="0.09"/><ellipse class="cls-25" cx="168.33" cy="144" rx="1.21" ry="0.16"/><ellipse class="cls-25" cx="191.63" cy="144.93" rx="1.21" ry="0.16"/><ellipse class="cls-25" cx="156.17" cy="145.05" rx="1.21" ry="0.16"/></svg>