<svg id="Layer_3" data-name="Layer 3" xmlns="http://www.w3.org/2000/svg" xmlns:xlink="http://www.w3.org/1999/xlink" viewBox="0 0 260 168"><defs><style>.cls-1,.cls-3{fill:#4d67ff;}.cls-1,.cls-6{stroke:#6ce3ff;stroke-miterlimit:10;stroke-width:0.14px;}.cls-2,.cls-6{fill:none;}.cls-4{clip-path:url(#clip-path);}.cls-5{fill:#2e4dce;}.cls-7{clip-path:url(#clip-path-2);}.cls-8{fill:#fae0b6;}.cls-9{fill:#aac754;}.cls-10{fill:#f07c3d;}.cls-11{fill:#f6bc60;}.cls-12{fill:#f9cf8f;}</style><clipPath id="clip-path"><ellipse class="cls-1" cx="129.38" cy="146.61" rx="19.7" ry="3.24"/></clipPath><clipPath id="clip-path-2"><path class="cls-2" d="M149.08,146.54c0,1.79-8.82,3.24-19.7,3.24s-19.7-1.45-19.7-3.24,8.82-17,19.7-17S149.08,144.75,149.08,146.54Z"/></clipPath></defs><path class="cls-3" d="M149.78,146.69a.65.65,0,0,0,.06-.26c0-1.86-9.16-3.37-20.46-3.37s-20.46,1.51-20.46,3.37a.78.78,0,0,0,0,.14,8.49,8.49,0,0,0,2.15,3.61h0c1.09,1.5,8.85,2.67,18.27,2.67s17.17-1.16,18.27-2.66h0A8.84,8.84,0,0,0,149.78,146.69Z"/><ellipse class="cls-3" cx="129.38" cy="146.61" rx="19.7" ry="3.24"/><g class="cls-4"><ellipse class="cls-5" cx="129.84" cy="151.38" rx="22.59" ry="5.32"/></g><ellipse class="cls-6" cx="129.38" cy="146.61" rx="19.7" ry="3.24"/><g class="cls-7"><path class="cls-8" d="M124.33,154.1a18,18,0,0,1-4.16-.56,33.6,33.6,0,0,1-3.84-.94c-.32-.13-.69-.32-.7-.61s.13-.33.11-.51c-.06-.52-1-.78-1.49-1-.25-.09-.45-.36-.27-.53s.15-.1.19-.16c.18-.34-1.37-.56-1-1.27-.16.31-.8.21-.93-.11s.17-.66.55-.76a.51.51,0,0,1-.71-.26.79.79,0,0,1,.27-.7,1.23,1.23,0,0,1,1.16-.48c-.28,0-.39-.28-.36-.46a1.08,1.08,0,0,1,.51-.63,2.07,2.07,0,0,1,1.49-.28c-1.21-.25-.26-.73.54-.7-1.66-.08.47-1.33,1.28-1.33-.23.26-.8-.06-.73-.37s.47-.51.85-.58a4.54,4.54,0,0,0,1.13-.24c-.39.08-.81-.27-.71-.59a.79.79,0,0,1,.74-.41,2.73,2.73,0,0,1,.94.2c-.43,0-.38-.64,0-.77a1.75,1.75,0,0,1,1.21.21c-.34-.15-.23-.67,0-.82.63-.35.63.46,1.16.3.27-.09.29-.59.58-.64s.82.51.93.76c0-.39.27-.92.75-.83s.43.59.33.94a1.74,1.74,0,0,1,1.1-.74c.48-.05,1,.48.64.76a3.4,3.4,0,0,1,1.1-.58,1,1,0,0,1,.67,0c.21.09.28.37.08.46.66-.29,2.28-.6,1.77.51a2,2,0,0,1,1.15-.33c.41.05.75.5.47.75a1.5,1.5,0,0,1,1.11-.28c.39.08.69.48.48.76.14-.19,0-.75.3-.86.59-.24.72,1.09.75,1.33-.14-1,2-1.19,1.35.46a1,1,0,0,1,1-.41c.47.18.2.75,0,1a1,1,0,0,1,1.23-.09.61.61,0,0,1-.14,1,1.39,1.39,0,0,1,1.46.13.6.6,0,0,1-.36,1,1,1,0,0,1,1.09.45.69.69,0,0,1-.53.89,1.13,1.13,0,0,1,1.2.37.69.69,0,0,1-.36,1,1.11,1.11,0,0,1,1.18.72c.12.58-.79.72-.77,1.25s.45.53-.07,1a3.13,3.13,0,0,1-1.47.4.76.76,0,0,1-.48.82,1.85,1.85,0,0,1-1,0,2.81,2.81,0,0,0-.65-.07.49.49,0,0,1,.45.19l-2,.39a.31.31,0,0,1,.41.3c0,.18-.25.3-.45.37a2.5,2.5,0,0,1-2-.13c.33.42,0,1-.56,1.21-.85.27-1.58-.32-2.44-.24l-1.76.16A38.24,38.24,0,0,1,124.33,154.1Z"/><path class="cls-9" d="M118,148.25a.9.9,0,0,1,0,.55c-.38.71-2-.07-1.52-.81a1.61,1.61,0,0,1,.24-.28c.16-.18.27-.51.57-.51S117.93,147.77,118,148.25Z"/><path class="cls-9" d="M125.1,141.19a.73.73,0,0,1-.07.24c-.18.31-1.1.71-1.4.49a.74.74,0,0,1-.19-.84c.14-.49,0-.92.73-.87A1,1,0,0,1,125.1,141.19Z"/><path class="cls-9" d="M121.66,141c.12.43-.53.88-1,.86a.86.86,0,0,1-.81-.73c-.19-1,1.1-.84,1.63-.38A.5.5,0,0,1,121.66,141Z"/><path class="cls-9" d="M125.39,150.09a1,1,0,0,1-1,.87c-.6,0-.59-.7-.6-1.18a.6.6,0,0,1,.55-.67C124.68,149.08,125.41,149.76,125.39,150.09Z"/><path class="cls-9" d="M129.82,146.53c0,.34-.27.8-.67.85-1.29.18-1.55-1.91-.14-1.82A.84.84,0,0,1,129.82,146.53Z"/><path class="cls-9" d="M131,154.41a.78.78,0,0,1-.19.54.9.9,0,0,1-1.54-.68,1,1,0,0,1,.67-.82c.51-.16.62.09.86.47a1.46,1.46,0,0,1,.18.38S131,154.37,131,154.41Z"/><path class="cls-9" d="M138.16,150.06a.67.67,0,0,1-.44.81,1.14,1.14,0,0,1-.45,0,.86.86,0,0,1-.46-1.52C137.42,148.91,138.05,149.48,138.16,150.06Z"/><path class="cls-9" d="M135.86,143.14a.17.17,0,0,1,0,.07.74.74,0,0,1-.52.79,2.61,2.61,0,0,1-.93-.07.83.83,0,0,1-.31-.44.62.62,0,0,1-.06-.3.61.61,0,0,1,.15-.24l.26-.33a1.1,1.1,0,0,1,.48-.4.68.68,0,0,1,.71.26A1.06,1.06,0,0,1,135.86,143.14Z"/><polygon class="cls-10" points="118.41 143.53 118.09 144.7 116.86 144.4 117.18 143.23 118.41 143.53"/><polygon class="cls-10" points="125.36 144.71 125.25 145.92 123.97 145.81 124.09 144.6 125.36 144.71"/><polygon class="cls-10" points="127.85 139.62 128.75 140.48 127.84 141.34 126.94 140.48 127.85 139.62"/><polygon class="cls-10" points="114.82 146.09 114.71 147.3 113.44 147.19 113.55 145.98 114.82 146.09"/><polygon class="cls-10" points="133.25 152.4 133.14 153.6 131.87 153.5 131.98 152.29 133.25 152.4"/><polygon class="cls-10" points="122.17 151.99 121.19 152.76 120.37 151.83 121.35 151.05 122.17 151.99"/><polygon class="cls-10" points="136.26 145.84 135.28 146.61 134.47 145.68 135.45 144.91 136.26 145.84"/><polygon class="cls-10" points="139 147.58 138.02 148.36 137.21 147.43 138.19 146.65 139 147.58"/><ellipse class="cls-11" cx="121.14" cy="146.29" rx="0.33" ry="0.89" transform="translate(-68.63 138.26) rotate(-47.95)"/><ellipse class="cls-11" cx="122.81" cy="147.43" rx="0.33" ry="0.89" transform="translate(-68.92 139.88) rotate(-47.95)"/><ellipse class="cls-11" cx="122.11" cy="149.8" rx="0.33" ry="0.89" transform="translate(-70.91 140.15) rotate(-47.95)"/><ellipse class="cls-11" cx="127.79" cy="141.24" rx="0.34" ry="0.87" transform="translate(-11.92 11.77) rotate(-5.04)"/><ellipse class="cls-11" cx="131.82" cy="153.47" rx="0.34" ry="0.87" transform="translate(-12.97 12.18) rotate(-5.04)"/><ellipse class="cls-11" cx="134.01" cy="142.45" rx="0.34" ry="0.87" transform="translate(-12 12.33) rotate(-5.04)"/><ellipse class="cls-12" cx="117.38" cy="151.13" rx="0.47" ry="1.26" transform="translate(-73.47 137.07) rotate(-47.95)"/><ellipse class="cls-12" cx="115.3" cy="146.29" rx="1.23" ry="0.48" transform="translate(-35.91 255.06) rotate(-87.48)"/><ellipse class="cls-12" cx="126.02" cy="141.05" rx="1.26" ry="0.47" transform="translate(-62.82 130.27) rotate(-44.95)"/><ellipse class="cls-12" cx="131.91" cy="149.7" rx="1.26" ry="0.47" transform="translate(-67.21 136.96) rotate(-44.95)"/><ellipse class="cls-12" cx="131.06" cy="144" rx="0.92" ry="0.35" transform="translate(-63.43 134.7) rotate(-44.95)"/><ellipse class="cls-12" cx="124.18" cy="147.4" rx="0.92" ry="0.35" transform="translate(-67.84 130.83) rotate(-44.95)"/><ellipse class="cls-12" cx="127.21" cy="148.64" rx="0.48" ry="1.23" transform="translate(-34.91 39.12) rotate(-15.4)"/><ellipse class="cls-12" cx="124.47" cy="153.58" rx="0.48" ry="1.23" transform="translate(-36.31 38.57) rotate(-15.4)"/><ellipse class="cls-12" cx="135.86" cy="151.17" rx="0.46" ry="1.29" transform="translate(-47.63 238.57) rotate(-73.52)"/><ellipse class="cls-12" cx="136.68" cy="147.38" rx="0.46" ry="1.29" transform="translate(-43.41 236.64) rotate(-73.52)"/><ellipse class="cls-12" cx="132.35" cy="141.89" rx="0.46" ry="1.29" transform="matrix(0.28, -0.96, 0.96, 0.28, -41.25, 228.56)"/><ellipse class="cls-12" cx="137.17" cy="144.84" rx="0.46" ry="1.29" transform="translate(-40.63 235.29) rotate(-73.52)"/><ellipse class="cls-12" cx="129.78" cy="142.23" rx="0.46" ry="1.29" transform="translate(-43.42 226.34) rotate(-73.52)"/><ellipse class="cls-12" cx="120.21" cy="142.55" rx="0.46" ry="1.29" transform="translate(-50.58 217.39) rotate(-73.52)"/><ellipse class="cls-12" cx="121.84" cy="143.62" rx="0.46" ry="1.29" transform="translate(-50.44 219.72) rotate(-73.52)"/><ellipse class="cls-12" cx="123.83" cy="146.58" rx="0.46" ry="1.29" transform="translate(-51.84 223.75) rotate(-73.52)"/><ellipse class="cls-12" cx="126.45" cy="153.41" rx="0.46" ry="1.29" transform="translate(-56.52 231.16) rotate(-73.52)"/><ellipse class="cls-12" cx="129.61" cy="148.26" rx="0.46" ry="1.29" transform="translate(-49.32 230.5) rotate(-73.52)"/><ellipse class="cls-12" cx="128.11" cy="144.5" rx="0.46" ry="1.29" transform="translate(-46.79 226.36) rotate(-73.52)"/><ellipse class="cls-12" cx="125.74" cy="143.02" rx="1.23" ry="0.48" transform="translate(-46.7 223.83) rotate(-73.79)"/><ellipse class="cls-12" cx="124.24" cy="144.94" rx="1.23" ry="0.48" transform="translate(-49.62 223.77) rotate(-73.79)"/><ellipse class="cls-12" cx="119.68" cy="150.09" rx="1.23" ry="0.48" transform="translate(-57.86 223.1) rotate(-73.79)"/><ellipse class="cls-12" cx="122.75" cy="152.73" rx="1.23" ry="0.48" transform="matrix(0.28, -0.96, 0.96, 0.28, -58.18, 227.95)"/><ellipse class="cls-12" cx="131.98" cy="145.65" rx="1.23" ry="0.48" transform="translate(-44.72 231.72) rotate(-73.79)"/><ellipse class="cls-12" cx="129.37" cy="150.5" rx="1.23" ry="0.48" transform="translate(-51.26 232.71) rotate(-73.79)"/><ellipse class="cls-12" cx="120.51" cy="147.63" rx="1.23" ry="0.48" transform="translate(-54.89 222.13) rotate(-73.79)"/><ellipse class="cls-12" cx="127.34" cy="151.96" rx="1.23" ry="0.48" transform="translate(-54.13 231.81) rotate(-73.79)"/><ellipse class="cls-12" cx="132.2" cy="151.67" rx="1.23" ry="0.48" transform="translate(-50.35 236.26) rotate(-73.79)"/><ellipse class="cls-12" cx="126.11" cy="146.2" rx="1.23" ry="0.48" transform="translate(-49.49 226.48) rotate(-73.79)"/><ellipse class="cls-12" cx="123.62" cy="142.71" rx="1.23" ry="0.48" transform="translate(-47.94 221.57) rotate(-73.79)"/><ellipse class="cls-12" cx="118.18" cy="146.73" rx="0.48" ry="1.23" transform="translate(-31.09 31.77) rotate(-13.55)"/><ellipse class="cls-12" cx="123.05" cy="144.82" rx="0.48" ry="1.23" transform="translate(-30.5 32.86) rotate(-13.55)"/><ellipse class="cls-12" cx="120.7" cy="150.32" rx="0.48" ry="1.23" transform="translate(-31.86 32.46) rotate(-13.55)"/><ellipse class="cls-12" cx="116.28" cy="149.9" rx="1.23" ry="0.48" transform="translate(-55.92 229.52) rotate(-77.01)"/><ellipse class="cls-12" cx="117.67" cy="146.24" rx="1.24" ry="0.48" transform="translate(-68.18 172.53) rotate(-59.23)"/><ellipse class="cls-12" cx="122.44" cy="141.29" rx="1.24" ry="0.48" transform="translate(-61.6 174.21) rotate(-59.23)"/><ellipse class="cls-12" cx="122.46" cy="143.44" rx="0.47" ry="1.26" transform="translate(-66 135.94) rotate(-47.23)"/><ellipse class="cls-12" cx="131.2" cy="142.5" rx="0.47" ry="1.26" transform="translate(-62.5 142.05) rotate(-47.23)"/><ellipse class="cls-12" cx="133.9" cy="147.19" rx="0.47" ry="1.26" transform="translate(-65.07 145.55) rotate(-47.23)"/><ellipse class="cls-12" cx="130.65" cy="149.83" rx="0.48" ry="1.24" transform="translate(-48.89 64.48) rotate(-23.49)"/><ellipse class="cls-12" cx="120.15" cy="143.76" rx="0.47" ry="1.26" transform="translate(-66.97 134.35) rotate(-47.23)"/><ellipse class="cls-12" cx="127.91" cy="148.29" rx="0.33" ry="0.88" transform="translate(-67.81 141.5) rotate(-47.23)"/><ellipse class="cls-12" cx="127.49" cy="154.49" rx="0.33" ry="0.88" transform="translate(-72.49 143.18) rotate(-47.23)"/><ellipse class="cls-12" cx="127" cy="142.55" rx="0.33" ry="0.88" transform="translate(-63.89 138.99) rotate(-47.23)"/><ellipse class="cls-12" cx="129.09" cy="142.85" rx="0.33" ry="0.88" transform="translate(-63.43 140.62) rotate(-47.23)"/><ellipse class="cls-12" cx="134.23" cy="144" rx="0.33" ry="0.88" transform="translate(-62.63 144.77) rotate(-47.23)"/><ellipse class="cls-12" cx="135.69" cy="148.85" rx="0.86" ry="0.34" transform="translate(-35.88 254.36) rotate(-79.24)"/><path class="cls-8" d="M130.43,153.52a18.06,18.06,0,0,1-4.16-.57,32.92,32.92,0,0,1-3.83-.94c-.33-.12-.69-.32-.7-.61s.13-.33.11-.5c-.06-.52-1-.79-1.5-1-.25-.09-.44-.36-.27-.53s.15-.09.19-.16c.18-.34-1.36-.55-1-1.26-.16.3-.81.2-.94-.11s.17-.67.56-.77a.52.52,0,0,1-.72-.26.79.79,0,0,1,.27-.7,1.23,1.23,0,0,1,1.16-.48c-.28,0-.38-.28-.36-.46a1,1,0,0,1,.52-.62,2,2,0,0,1,1.48-.28c-1.21-.26-.25-.74.54-.7-1.66-.08.48-1.34,1.29-1.33-.24.25-.8-.06-.74-.38s.47-.5.85-.57a4.21,4.21,0,0,0,1.14-.25c-.39.08-.82-.27-.72-.58a.77.77,0,0,1,.75-.41,2.71,2.71,0,0,1,.93.19c-.42,0-.38-.63,0-.76a1.81,1.81,0,0,1,1.22.2c-.35-.15-.24-.67,0-.82.64-.35.64.46,1.16.3.27-.08.29-.59.59-.64s.82.51.93.77c0-.4.27-.93.74-.84s.44.59.34.94a1.7,1.7,0,0,1,1.09-.74c.49-.05,1,.48.64.76a3.54,3.54,0,0,1,1.11-.57,1,1,0,0,1,.67,0c.2.09.28.37.08.46.65-.29,2.28-.6,1.77.51a1.92,1.92,0,0,1,1.14-.32c.42,0,.75.49.47.74a1.51,1.51,0,0,1,1.11-.28c.4.08.7.48.49.76.14-.19,0-.75.3-.86.58-.24.71,1.1.75,1.33-.15-1,2-1.19,1.34.47a1,1,0,0,1,1-.42c.46.18.2.75,0,1a.94.94,0,0,1,1.23-.1.6.6,0,0,1-.13,1,1.37,1.37,0,0,1,1.45.13.6.6,0,0,1-.36,1,1,1,0,0,1,1.09.46.69.69,0,0,1-.52.88,1.11,1.11,0,0,1,1.19.38.68.68,0,0,1-.35,1,1.08,1.08,0,0,1,1.17.71c.13.58-.79.72-.77,1.25s.46.54-.07,1a3.07,3.07,0,0,1-1.47.41.77.77,0,0,1-.48.82,2,2,0,0,1-1,0,2.41,2.41,0,0,0-.65-.08.46.46,0,0,1,.44.19l-2,.4a.29.29,0,0,1,.4.29c0,.18-.24.3-.45.38a2.59,2.59,0,0,1-2-.13c.33.41,0,1-.56,1.2-.84.28-1.58-.31-2.44-.24l-1.75.16A38.61,38.61,0,0,1,130.43,153.52Z"/><path class="cls-9" d="M124.13,147.66a.93.93,0,0,1,0,.56c-.38.7-2-.08-1.52-.82a3.08,3.08,0,0,1,.24-.27c.17-.18.27-.52.58-.52S124,147.18,124.13,147.66Z"/><path class="cls-9" d="M131.21,140.6a.75.75,0,0,1-.08.24c-.17.31-1.09.71-1.4.5a.75.75,0,0,1-.18-.85c.14-.49,0-.91.72-.87A1,1,0,0,1,131.21,140.6Z"/><path class="cls-9" d="M127.77,140.41c.11.42-.54.88-1,.85a.85.85,0,0,1-.8-.72c-.2-1,1.09-.85,1.62-.39A.51.51,0,0,1,127.77,140.41Z"/><path class="cls-9" d="M131.49,149.51a1,1,0,0,1-1,.86c-.6,0-.6-.7-.6-1.17a.59.59,0,0,1,.55-.67C130.79,148.49,131.51,149.18,131.49,149.51Z"/><path class="cls-9" d="M135.92,146c0,.33-.26.79-.66.84-1.3.19-1.55-1.9-.15-1.82A.84.84,0,0,1,135.92,146Z"/><path class="cls-9" d="M137.08,153.82a.67.67,0,0,1-.19.54.9.9,0,0,1-1.53-.68.92.92,0,0,1,.66-.81c.52-.17.63.08.86.47a1.11,1.11,0,0,1,.18.38A.36.36,0,0,1,137.08,153.82Z"/><path class="cls-9" d="M144.26,149.47a.68.68,0,0,1-.44.82,1.08,1.08,0,0,1-.44,0,.86.86,0,0,1-.47-1.51C143.53,148.33,144.16,148.89,144.26,149.47Z"/><path class="cls-9" d="M142,142.56v.06a.72.72,0,0,1-.52.79,2.35,2.35,0,0,1-.92-.07.86.86,0,0,1-.32-.43.63.63,0,0,1-.05-.3.56.56,0,0,1,.14-.25l.26-.33a1.07,1.07,0,0,1,.48-.39.69.69,0,0,1,.72.25A1.13,1.13,0,0,1,142,142.56Z"/><polygon class="cls-10" points="124.52 142.94 124.2 144.12 122.96 143.81 123.28 142.64 124.52 142.94"/><polygon class="cls-10" points="131.46 144.12 131.35 145.33 130.08 145.22 130.19 144.02 131.46 144.12"/><polygon class="cls-10" points="133.95 139.03 134.85 139.89 133.95 140.75 133.05 139.89 133.95 139.03"/><polygon class="cls-10" points="120.92 145.5 120.81 146.71 119.54 146.6 119.65 145.4 120.92 145.5"/><polygon class="cls-10" points="139.36 151.81 139.24 153.02 137.97 152.91 138.09 151.7 139.36 151.81"/><polygon class="cls-10" points="128.27 151.4 127.29 152.17 126.48 151.24 127.46 150.47 128.27 151.4"/><polygon class="cls-10" points="142.37 145.25 141.39 146.03 140.57 145.09 141.55 144.32 142.37 145.25"/><polygon class="cls-10" points="145.11 147 144.13 147.77 143.31 146.84 144.29 146.06 145.11 147"/><ellipse class="cls-11" cx="127.24" cy="145.7" rx="0.33" ry="0.89" transform="translate(-66.18 142.6) rotate(-47.95)"/><ellipse class="cls-11" cx="128.91" cy="146.84" rx="0.33" ry="0.89" transform="translate(-66.47 144.22) rotate(-47.95)"/><ellipse class="cls-11" cx="128.22" cy="149.22" rx="0.33" ry="0.89" transform="translate(-68.46 144.48) rotate(-47.95)"/><ellipse class="cls-11" cx="133.89" cy="140.65" rx="0.34" ry="0.87" transform="translate(-11.84 12.31) rotate(-5.04)"/><ellipse class="cls-11" cx="137.92" cy="152.88" rx="0.34" ry="0.87" transform="translate(-12.9 12.71) rotate(-5.04)"/><ellipse class="cls-11" cx="140.12" cy="141.86" rx="0.34" ry="0.87" transform="translate(-11.92 12.86) rotate(-5.04)"/><ellipse class="cls-12" cx="123.48" cy="150.55" rx="0.47" ry="1.26" transform="translate(-71.01 141.41) rotate(-47.95)"/><ellipse class="cls-12" cx="121.4" cy="145.7" rx="1.23" ry="0.48" transform="translate(-29.49 260.59) rotate(-87.48)"/><ellipse class="cls-12" cx="132.12" cy="140.46" rx="1.26" ry="0.47" transform="translate(-60.62 134.41) rotate(-44.95)"/><ellipse class="cls-12" cx="138.01" cy="149.11" rx="1.26" ry="0.47" transform="translate(-65.01 141.1) rotate(-44.95)"/><ellipse class="cls-12" cx="137.17" cy="143.41" rx="0.92" ry="0.35" transform="translate(-61.23 138.84) rotate(-44.95)"/><ellipse class="cls-12" cx="130.29" cy="146.81" rx="0.92" ry="0.35" transform="translate(-65.64 134.97) rotate(-44.95)"/><ellipse class="cls-12" cx="133.31" cy="148.06" rx="0.48" ry="1.23" transform="translate(-34.53 40.72) rotate(-15.4)"/><ellipse class="cls-12" cx="130.57" cy="153" rx="0.48" ry="1.23" transform="matrix(0.96, -0.27, 0.27, 0.96, -35.94, 40.17)"/><ellipse class="cls-12" cx="141.96" cy="150.58" rx="0.46" ry="1.29" transform="translate(-42.7 244) rotate(-73.52)"/><ellipse class="cls-12" cx="142.78" cy="146.79" rx="0.46" ry="1.29" transform="translate(-38.48 242.07) rotate(-73.52)"/><ellipse class="cls-12" cx="138.46" cy="141.3" rx="0.46" ry="1.29" transform="translate(-36.31 234) rotate(-73.52)"/><ellipse class="cls-12" cx="143.27" cy="144.25" rx="0.46" ry="1.29" transform="translate(-35.69 240.72) rotate(-73.52)"/><ellipse class="cls-12" cx="135.88" cy="141.65" rx="0.46" ry="1.29" transform="translate(-38.49 231.78) rotate(-73.52)"/><ellipse class="cls-12" cx="126.31" cy="141.96" rx="0.46" ry="1.29" transform="translate(-45.65 222.82) rotate(-73.52)"/><ellipse class="cls-12" cx="127.94" cy="143.03" rx="0.46" ry="1.29" transform="translate(-45.5 225.15) rotate(-73.52)"/><ellipse class="cls-12" cx="129.94" cy="145.99" rx="0.46" ry="1.29" transform="translate(-46.91 229.18) rotate(-73.52)"/><ellipse class="cls-12" cx="132.56" cy="152.82" rx="0.46" ry="1.29" transform="matrix(0.28, -0.96, 0.96, 0.28, -51.59, 236.59)"/><ellipse class="cls-12" cx="135.72" cy="147.67" rx="0.46" ry="1.29" transform="translate(-44.39 235.93) rotate(-73.52)"/><ellipse class="cls-12" cx="134.21" cy="143.91" rx="0.46" ry="1.29" transform="translate(-41.86 231.79) rotate(-73.52)"/><ellipse class="cls-12" cx="131.85" cy="142.43" rx="1.23" ry="0.48" transform="translate(-41.73 229.27) rotate(-73.79)"/><ellipse class="cls-12" cx="130.35" cy="144.35" rx="1.23" ry="0.48" transform="translate(-44.66 229.21) rotate(-73.79)"/><ellipse class="cls-12" cx="125.78" cy="149.5" rx="1.23" ry="0.48" transform="translate(-52.89 228.54) rotate(-73.79)"/><ellipse class="cls-12" cx="128.85" cy="152.14" rx="1.23" ry="0.48" transform="translate(-53.21 233.39) rotate(-73.79)"/><ellipse class="cls-12" cx="138.09" cy="145.06" rx="1.23" ry="0.48" transform="translate(-39.76 237.16) rotate(-73.79)"/><ellipse class="cls-12" cx="135.48" cy="149.91" rx="1.23" ry="0.48" transform="translate(-46.3 238.15) rotate(-73.79)"/><ellipse class="cls-12" cx="126.61" cy="147.04" rx="1.23" ry="0.48" transform="translate(-49.93 227.56) rotate(-73.79)"/><ellipse class="cls-12" cx="133.44" cy="151.38" rx="1.23" ry="0.48" transform="translate(-49.17 237.25) rotate(-73.79)"/><ellipse class="cls-12" cx="138.3" cy="151.09" rx="1.23" ry="0.48" transform="translate(-45.39 241.7) rotate(-73.79)"/><ellipse class="cls-12" cx="132.21" cy="145.62" rx="1.23" ry="0.48" transform="translate(-44.53 231.92) rotate(-73.79)"/><ellipse class="cls-12" cx="129.72" cy="142.13" rx="1.23" ry="0.48" transform="translate(-42.97 227.01) rotate(-73.79)"/><ellipse class="cls-12" cx="124.29" cy="146.15" rx="0.48" ry="1.23" transform="translate(-30.78 33.18) rotate(-13.55)"/><ellipse class="cls-12" cx="129.15" cy="144.23" rx="0.48" ry="1.23" transform="translate(-30.2 34.27) rotate(-13.55)"/><ellipse class="cls-12" cx="126.8" cy="149.74" rx="0.48" ry="1.23" transform="translate(-31.55 33.87) rotate(-13.55)"/><ellipse class="cls-12" cx="122.38" cy="149.31" rx="1.23" ry="0.48" transform="translate(-50.62 235.01) rotate(-77.01)"/><ellipse class="cls-12" cx="123.78" cy="145.65" rx="1.24" ry="0.48" transform="translate(-64.7 177.49) rotate(-59.23)"/><ellipse class="cls-12" cx="128.55" cy="140.7" rx="1.24" ry="0.48" transform="translate(-58.11 179.17) rotate(-59.23)"/><ellipse class="cls-12" cx="128.56" cy="142.85" rx="0.47" ry="1.26" transform="translate(-63.61 140.23) rotate(-47.23)"/><ellipse class="cls-12" cx="137.3" cy="141.91" rx="0.47" ry="1.26" transform="translate(-60.11 146.35) rotate(-47.23)"/><ellipse class="cls-12" cx="140.01" cy="146.6" rx="0.47" ry="1.26" transform="translate(-62.68 149.84) rotate(-47.23)"/><ellipse class="cls-12" cx="136.75" cy="149.24" rx="0.48" ry="1.24" transform="translate(-48.15 66.86) rotate(-23.49)"/><ellipse class="cls-12" cx="126.26" cy="143.18" rx="0.47" ry="1.26" transform="translate(-64.58 138.65) rotate(-47.23)"/><ellipse class="cls-12" cx="134.01" cy="147.7" rx="0.33" ry="0.88" transform="translate(-65.42 145.79) rotate(-47.23)"/><ellipse class="cls-12" cx="133.59" cy="153.9" rx="0.33" ry="0.88" transform="translate(-70.1 147.47) rotate(-47.23)"/><ellipse class="cls-12" cx="133.1" cy="141.96" rx="0.33" ry="0.88" transform="translate(-61.5 143.28) rotate(-47.23)"/><ellipse class="cls-12" cx="135.19" cy="142.26" rx="0.33" ry="0.88" transform="translate(-61.04 144.91) rotate(-47.23)"/><ellipse class="cls-12" cx="140.34" cy="143.41" rx="0.33" ry="0.88" transform="translate(-60.24 149.06) rotate(-47.23)"/><ellipse class="cls-12" cx="141.79" cy="148.26" rx="0.86" ry="0.34" transform="translate(-30.34 259.88) rotate(-79.24)"/></g></svg>