<svg id="Layer_1" data-name="Layer 1" xmlns="http://www.w3.org/2000/svg" xmlns:xlink="http://www.w3.org/1999/xlink" viewBox="0 0 260 168"><defs><style>.cls-1{fill:#3d3d3d;}.cls-2{fill:#4c4c4c;}.cls-3{fill:#a8651d;}.cls-4{fill:#029902;}.cls-5{fill:#fff;}.cls-6{fill:none;}.cls-7{fill:#298902;}.cls-8{fill:#935218;}.cls-9{fill:#f49c00;}.cls-10{fill:#f28f00;}.cls-11{clip-path:url(#clip-path);}.cls-12{fill:#2b2b2b;}.cls-13{fill:#a05e1d;}.cls-14{clip-path:url(#clip-path-2);}.cls-15{fill:#257c01;}.cls-16{clip-path:url(#clip-path-3);}.cls-17{fill:#935212;opacity:0.46;}.cls-18{clip-path:url(#clip-path-4);}.cls-19{fill:#5b2d04;}.cls-20{fill:#590b0b;}.cls-21{fill:#ea4747;}.cls-22{clip-path:url(#clip-path-5);}.cls-23{clip-path:url(#clip-path-6);}.cls-24{fill:#562b04;}.cls-25{fill:#8c4b10;}.cls-26{fill:#935115;}.cls-27{fill:#2d9903;}.cls-28{fill:#fcd212;}.cls-29{fill:#f6b019;}.cls-30{fill:#bc6828;}.cls-31{fill:#43720c;}.cls-32{clip-path:url(#clip-path-7);}</style><clipPath id="clip-path"><path class="cls-1" d="M220.38,111.11c-.59,1-5.61,16.45-6.24,22a1.52,1.52,0,0,1-2,1.26c-2-.73-5.58-.2-11.16-1.88-1-.31-1.86-1-1.74-2l.2-14.77.28-9.07Z"/></clipPath><clipPath id="clip-path-2"><path class="cls-2" d="M222.5,107.92c-.19,1.15.6,17.36,2,22.75a1.5,1.5,0,0,1-1.45,1.89c-2.11,0-5.28,1.8-11.1,2.21-1,.08-2.08-.24-2.34-1.26l-5.06-13.88-3-8.57Z"/></clipPath><clipPath id="clip-path-3"><polygon class="cls-3" points="193.81 82.17 187.41 85.91 183.22 78.63 189.23 75.28 193.81 82.17"/></clipPath><clipPath id="clip-path-4"><path class="cls-4" d="M192.48,79.35S185,94.6,185.15,86.49a25.89,25.89,0,0,0,1.4,12.27c2.4,5.75,10.9,22.07,11.47,24.43s5.07,1.86,9.88-.22,15.86-7.09,15-13.19S205.31,82.63,200.07,78.5a2.4,2.4,0,0,0-2.31-.37c-.66.23-1.58.53-2.66.81C194.34,79.13,193.27,78.87,192.48,79.35Z"/></clipPath><clipPath id="clip-path-5"><path class="cls-3" d="M191.86,75.76c-3,5.56-11.5,7.51-11.5,7.51-4.9,1.57-6.63-1.94-6.63-1.94l.08-.15a4.17,4.17,0,0,0,1.31-3.43c-2.77,3.45-4.13,2.37-4.13,2.37a5,5,0,0,1-2.08-2.66,4.71,4.71,0,0,1,0-2.63,33.78,33.78,0,0,1-4.19-9.34c-3.26-11,2.05-18.68,10.67-21.24s18.46.7,21.72,11.67a19.84,19.84,0,0,1,1.27,7.61s-1.84,7.38-5.69,10.85Z"/></clipPath><clipPath id="clip-path-6"><ellipse class="cls-5" cx="173.1" cy="69.43" rx="4.75" ry="3.78" transform="translate(-12.61 52.19) rotate(-16.55)"/></clipPath><clipPath id="clip-path-7"><path class="cls-6" d="M156.42,133.6a6.11,6.11,0,0,0-1.75,3.61s5.1-.76,4.74-4.85a4.54,4.54,0,0,0-3,1.24"/></clipPath></defs><path class="cls-3" d="M190.91,94.45l-.69,14.73a2.69,2.69,0,0,1-2.85,2.6,5.49,5.49,0,0,1-2.87-1.3,1.92,1.92,0,0,1-.76-1.69l1.36-14.87Z"/><path class="cls-7" d="M186.13,85a5.25,5.25,0,0,0-2.52,3.47,36.43,36.43,0,0,0-.55,11.69l-.21,1.38s.6,2.43,6.61,1.35c2.48-.45,5.55-1.06,5.48-3.68,0-.74-.21-3.24-.33-4.23C194,89.77,192.52,81.4,186.13,85Z"/><path class="cls-8" d="M210.28,131.93l0,20.27s-4.22,1.93-8-.07L201,131.92s.24-3.75,4.64-3.75S210.28,131.93,210.28,131.93Z"/><path class="cls-9" d="M194.94,157.36a8.47,8.47,0,0,0-2.85.86,1.58,1.58,0,0,0-.39,1.63s1,1.21,9.28.59,10.59-1.68,10.59-1.68.42-.35-.08-1.92S194.94,157.36,194.94,157.36Z"/><path class="cls-8" d="M202.1,151.9s-6.07,3.33-7.28,3.87-2.22.74-1.93,2,3,1,5.58.84,11.23,0,12.29-2.17-1.11-6.06-1.11-6.06A6.49,6.49,0,0,0,202.1,151.9Z"/><path class="cls-10" d="M197.82,158.74s-.72-3.22-2-3.51a1.75,1.75,0,0,1,1.27-.72s1.4,1.08,1.85,4.17C198.9,158.68,198.69,159.06,197.82,158.74Z"/><path class="cls-1" d="M220.38,111.11c-.59,1-5.61,16.45-6.24,22a1.52,1.52,0,0,1-2,1.26c-2-.73-5.58-.2-11.16-1.88-1-.31-1.86-1-1.74-2l.2-14.77.28-9.07Z"/><g class="cls-11"><path class="cls-12" d="M206.8,132a23.94,23.94,0,0,1-9.68-2.75,13.56,13.56,0,0,0-.37,3.11.57.57,0,0,0,.07.34.62.62,0,0,0,.31.16,93.2,93.2,0,0,0,17.47,3c.41,0,.91,0,1.1-.36a1,1,0,0,0,.05-.61c-.29-2-.93-2.44-2.92-2.73S208.81,132.07,206.8,132Z"/></g><path class="cls-13" d="M222.15,131.49l9.35,18s-2.85,3.66-7.1,3.62l-10.46-17.34s-1.52-3.43,2.38-5.46S222.15,131.49,222.15,131.49Z"/><path class="cls-9" d="M220.3,161.14a8.37,8.37,0,0,0-2.13,2.07,1.58,1.58,0,0,0,.4,1.63s1.44.62,8.51-3.76,8.61-6.39,8.61-6.39.22-.51-.95-1.66S220.3,161.14,220.3,161.14Z"/><path class="cls-13" d="M224.13,153s-3.85,5.76-4.67,6.8-1.63,1.68-.77,2.69,3.13-.54,5.33-1.83,10-5.19,9.9-7.6-3.79-4.87-3.79-4.87A6.49,6.49,0,0,0,224.13,153Z"/><path class="cls-10" d="M223.49,161s-2.12-2.53-3.43-2.17a1.74,1.74,0,0,1,.8-1.23s1.74.31,3.56,2.85C224.42,160.48,224.41,160.91,223.49,161Z"/><path class="cls-2" d="M222.5,107.92c-.19,1.15.6,17.36,2,22.75a1.5,1.5,0,0,1-1.45,1.89c-2.11,0-5.28,1.8-11.1,2.21-1,.08-2.08-.24-2.34-1.26l-5.06-13.88-3-8.57Z"/><g class="cls-14"><path class="cls-12" d="M217.23,132.24a23.62,23.62,0,0,1-10,.87,13.36,13.36,0,0,0,.76,3,.41.41,0,0,0,.53.33,92.74,92.74,0,0,0,17.39-3.42c.39-.12.86-.32.9-.73a1,1,0,0,0-.17-.59c-1-1.78-1.73-1.95-3.7-1.5A59.68,59.68,0,0,0,217.23,132.24Z"/></g><path class="cls-15" d="M185.15,86.49s1.42-4.92,7.9-7.36l1.74,5.5-8,7.38S184.45,88.49,185.15,86.49Z"/><polygon class="cls-3" points="193.81 82.17 187.41 85.91 183.22 78.63 189.23 75.28 193.81 82.17"/><g class="cls-16"><ellipse class="cls-17" cx="186.18" cy="78.87" rx="6.33" ry="3.51" transform="translate(-7.16 138.04) rotate(-39.98)"/></g><path class="cls-3" d="M185.32,88.2s1.09-4.72,7.65-8.28l1.85,7.73-8.36,5.16Z"/><path class="cls-4" d="M192.48,79.35S185,94.6,185.15,86.49a25.89,25.89,0,0,0,1.4,12.27c2.4,5.75,10.9,22.07,11.47,24.43s5.07,1.86,9.88-.22,15.86-7.09,15-13.19S205.31,82.63,200.07,78.5a2.4,2.4,0,0,0-2.31-.37c-.66.23-1.58.53-2.66.81C194.34,79.13,193.27,78.87,192.48,79.35Z"/><g class="cls-18"><path class="cls-15" d="M194.78,77.94s-6.58,22.91-11,8.31l7.08-7.83Z"/></g><circle class="cls-19" cx="164.43" cy="57.84" r="1.3"/><path class="cls-20" d="M172.28,79.93a8.81,8.81,0,0,1,1.7,1.21s1.77-2.31,1.28-3.46Z"/><path class="cls-5" d="M172,80.28a2.78,2.78,0,0,0,.75.38,4.47,4.47,0,0,0,2.4-2.78l-1.83,1.2Z"/><ellipse class="cls-21" cx="175.5" cy="80.13" rx="1.5" ry="1.2" transform="translate(67.32 239.86) rotate(-80.43)"/><path class="cls-3" d="M191.86,75.76c-3,5.56-11.5,7.51-11.5,7.51-4.9,1.57-6.63-1.94-6.63-1.94l.08-.15a4.17,4.17,0,0,0,1.31-3.43c-2.77,3.45-4.13,2.37-4.13,2.37a5,5,0,0,1-2.08-2.66,4.71,4.71,0,0,1,0-2.63,33.78,33.78,0,0,1-4.19-9.34c-3.26-11,2.05-18.68,10.67-21.24s18.46.7,21.72,11.67a19.84,19.84,0,0,1,1.27,7.61s-1.84,7.38-5.69,10.85Z"/><g class="cls-22"><path class="cls-19" d="M184.34,66.09s-4.44-11.83-9.42-11.75-5.42,2.61-8.35,3.88a8.56,8.56,0,0,1-5,.78l-4.31-14.53,35.49-10.55,10.42,28.46.41,4.52c-1.23,2.41-5.33,4.83-10.18,3.61A24.67,24.67,0,0,1,184.34,66.09Z"/></g><ellipse class="cls-5" cx="173.1" cy="69.43" rx="4.75" ry="3.78" transform="translate(-12.61 52.19) rotate(-16.55)"/><g class="cls-23"><path d="M172.8,69.12a1.86,1.86,0,0,0-.25.1,1.43,1.43,0,0,1,.88.93,1.47,1.47,0,0,1-1,1.83,1.45,1.45,0,0,1-1.7-.72,3.08,3.08,0,0,0,0,1.62,3,3,0,1,0,2-3.76Z"/></g><path class="cls-24" d="M168.1,66s1.21-3,5.83-2.83C173.93,63.16,168.63,60.51,168.1,66Z"/><path class="cls-3" d="M168,73.31a2.47,2.47,0,0,1-.31,2c-.66,1,0,1.85,2.21,1.35S168.36,70.13,168,73.31Z"/><path class="cls-25" d="M170.87,80.21a.93.93,0,0,0,1.26.32c.86-.4,2.91-1.78,3.16-3.17a8.32,8.32,0,0,1-1.83,1.21C172.37,79.09,170.7,79.48,170.87,80.21Z"/><path class="cls-26" d="M175.12,77.75a5.07,5.07,0,0,1-.67,2.4c-.68,1.11-.93.91-.77,1.35s1.11.57,1.69-1.06a4.47,4.47,0,0,0-.08-3.08S175,77.59,175.12,77.75Z"/><ellipse class="cls-19" cx="164.77" cy="55.53" rx="1.72" ry="1.77"/><ellipse class="cls-19" cx="165.69" cy="52.51" rx="2.15" ry="1.72" transform="translate(85.09 206.51) rotate(-79.96)"/><ellipse class="cls-19" cx="167.23" cy="49.45" rx="2.15" ry="1.72" transform="translate(27.98 154.43) rotate(-53.48)"/><ellipse class="cls-19" cx="169.67" cy="47.03" rx="2.15" ry="1.72" transform="translate(5.87 111.59) rotate(-37)"/><ellipse class="cls-19" cx="172.82" cy="45.34" rx="2.15" ry="1.72" transform="matrix(0.96, -0.3, 0.3, 0.96, -5.68, 53.01)"/><ellipse class="cls-19" cx="176.47" cy="44.01" rx="2.15" ry="1.72" transform="translate(-4.34 24.39) rotate(-7.81)"/><ellipse class="cls-19" cx="180.01" cy="43.45" rx="1.72" ry="2.15" transform="translate(127.65 221.08) rotate(-87.15)"/><ellipse class="cls-19" cx="183.44" cy="43.39" rx="1.72" ry="2.15" transform="translate(105.36 214.96) rotate(-78.83)"/><ellipse class="cls-19" cx="186.95" cy="44.4" rx="1.72" ry="2.15" transform="translate(107.19 219.21) rotate(-78.83)"/><ellipse class="cls-19" cx="190.26" cy="46.11" rx="1.72" ry="2.15" transform="translate(64.9 196.48) rotate(-63.81)"/><ellipse class="cls-19" cx="192.86" cy="48.57" rx="1.72" ry="2.15" transform="translate(11.07 129.22) rotate(-38.06)"/><ellipse class="cls-19" cx="194.88" cy="51.54" rx="1.71" ry="2.15" transform="translate(-2.85 90.76) rotate(-26.03)"/><ellipse class="cls-19" cx="196.02" cy="54.52" rx="1.71" ry="1.92" transform="translate(-7.37 60.01) rotate(-17.09)"/><ellipse class="cls-19" cx="196.91" cy="57.56" rx="1.71" ry="1.92" transform="translate(-5.74 25.6) rotate(-7.33)"/><ellipse class="cls-19" cx="197.06" cy="60.17" rx="1.71" ry="1.92" transform="translate(-6.07 25.64) rotate(-7.33)"/><ellipse class="cls-19" cx="197.22" cy="62.73" rx="1.71" ry="1.92" transform="translate(-6.39 25.68) rotate(-7.33)"/><ellipse class="cls-19" cx="196.7" cy="64.93" rx="1.71" ry="1.92" transform="translate(-6.68 25.63) rotate(-7.33)"/><ellipse class="cls-19" cx="196.08" cy="67.24" rx="1.93" ry="1.71" transform="translate(125.39 262.1) rotate(-88.99)"/><ellipse class="cls-19" cx="195.24" cy="68.86" rx="1.93" ry="1.71" transform="translate(122.93 262.86) rotate(-88.99)"/><ellipse class="cls-19" cx="194.62" cy="69.2" rx="1.93" ry="1.71" transform="matrix(0.02, -1, 1, 0.02, 121.98, 262.56)"/><ellipse class="cls-19" cx="193.2" cy="69.15" rx="1.93" ry="1.71" transform="translate(120.65 261.09) rotate(-88.99)"/><ellipse class="cls-19" cx="191.58" cy="69.1" rx="1.93" ry="1.71" transform="matrix(0.02, -1, 1, 0.02, 119.11, 259.43)"/><ellipse class="cls-19" cx="184.28" cy="63.21" rx="1.93" ry="1.71" transform="matrix(0.02, -1, 1, 0.02, 117.82, 246.35)"/><ellipse class="cls-19" cx="182.4" cy="60.92" rx="1.71" ry="1.93" transform="translate(15.11 155.78) rotate(-48.02)"/><ellipse class="cls-19" cx="180.74" cy="58.52" rx="1.71" ry="1.93" transform="translate(16.35 153.74) rotate(-48.02)"/><ellipse class="cls-19" cx="178.63" cy="56.14" rx="1.71" ry="1.93" transform="translate(17.42 151.39) rotate(-48.02)"/><ellipse class="cls-19" cx="176.26" cy="54.39" rx="1.71" ry="1.93" transform="translate(81.13 212.44) rotate(-76.1)"/><ellipse class="cls-19" cx="173.32" cy="54.27" rx="1.93" ry="1.71" transform="translate(-8.15 61.47) rotate(-19.66)"/><ellipse class="cls-19" cx="170.54" cy="55.1" rx="1.93" ry="1.71" transform="translate(3.49 120.02) rotate(-39.15)"/><ellipse class="cls-19" cx="168" cy="56.04" rx="1.93" ry="1.71" transform="translate(2.33 118.64) rotate(-39.15)"/><ellipse class="cls-19" cx="166.36" cy="57.09" rx="1.93" ry="1.71" transform="translate(1.3 117.84) rotate(-39.15)"/><ellipse class="cls-19" cx="164.91" cy="58.04" rx="1.59" ry="1.4" transform="translate(-6.11 94.31) rotate(-31.36)"/><circle class="cls-3" cx="187.45" cy="66.58" r="4.1"/><path class="cls-3" d="M203.83,82.06l12.86,7.22a2.68,2.68,0,0,1,1,3.71,5.46,5.46,0,0,1-2.44,2,1.9,1.9,0,0,1-1.85-.08L200.75,87Z"/><path class="cls-27" d="M197.49,78.32a5.3,5.3,0,0,1,4.29-.29A36.71,36.71,0,0,1,212,83.82l1.27.56s1.73,1.81-2.39,6.31c-1.71,1.86-3.86,4.12-6,2.66-.62-.41-2.63-1.9-3.41-2.54C197.34,87.48,191,81.78,197.49,78.32Z"/><path class="cls-3" d="M228.67,105l2.28-2.67a1.27,1.27,0,0,0-.18-1.78L216.91,89.46,213.7,95l13.19,10.23A1.26,1.26,0,0,0,228.67,105Z"/><path class="cls-3" d="M174.58,123.14l2.77,2.16a1.26,1.26,0,0,0,1.77-.25l10.49-14.33-5.62-3-9.66,13.61A1.26,1.26,0,0,0,174.58,123.14Z"/><path class="cls-3" d="M226.85,104.89s2,4.81,3,5.33,2.23.32,1-2.57c0,0,.1-.48.54-.12a19,19,0,0,1,2.91,4.15s.4.93,1.33.23,0-4-1.15-6.82-4.5-5.18-4.5-5.18a3.22,3.22,0,0,0-3,1.64A3.56,3.56,0,0,0,226.85,104.89Z"/><path class="cls-3" d="M168.55,122.92a1.93,1.93,0,0,0-1,.1.65.65,0,0,0-.38.8.92.92,0,0,0,.29.3,7.2,7.2,0,0,0,3.44,1.35.87.87,0,0,0-.52,1.12,2.52,2.52,0,0,0,.85,1.07l1.23,1.07a3.45,3.45,0,0,0,1.73,1,3.25,3.25,0,0,0,2.43-1.14,5,5,0,0,0,1.93-3.42A4.4,4.4,0,0,0,177,122.1c-1.17-1.11-2-.94-3.19-.09C172.4,123,170.2,123,168.55,122.92Z"/><path class="cls-28" d="M157.78,134.57a7.58,7.58,0,0,1,2.07-8.84c3.59-3.27,11.72-2.86,17.19,2.36a11,11,0,0,1,3.18,5.63c.49,2.35.11,4.5-1.68,6l0,0c-1.34.93-2.58-.77-4-.95C169.86,138.19,161.24,142.45,157.78,134.57Z"/><path class="cls-29" d="M159.43,133.39s.4-.88-.63-2"/><path class="cls-30" d="M159.11,132.14a9.53,9.53,0,0,0-6.14,1.58.44.44,0,0,0-.11.6h0a.44.44,0,0,0,.65.1,8.43,8.43,0,0,1,5.58-1.9.19.19,0,0,0,.18-.25h0A.18.18,0,0,0,159.11,132.14Z"/><path class="cls-31" d="M159.25,132.44s-3.83-.16-4.58,4.77C154.67,137.21,159.65,136.5,159.25,132.44Z"/><g class="cls-32"><polygon class="cls-6" points="154.67 137.21 159.25 132.44 158.16 132.02 154.84 134.49 154.67 137.21"/></g></svg>