<svg id="Layer_1" data-name="Layer 1" xmlns="http://www.w3.org/2000/svg" xmlns:xlink="http://www.w3.org/1999/xlink" viewBox="0 0 260 168"><defs><style>.cls-1{fill:none;}.cls-2{fill:#a8651d;}.cls-3{fill:#fff;}.cls-4{fill:#590b0b;}.cls-5{fill:#f43434;}.cls-6{clip-path:url(#clip-path);}.cls-7{fill:#bc1d1d;}.cls-8{clip-path:url(#clip-path-2);}.cls-9{fill:#935212;opacity:0.46;}.cls-10{fill:#914e0c;}.cls-11{clip-path:url(#clip-path-3);}.cls-12{fill:#935115;}.cls-13{fill:#8e5011;}.cls-14{clip-path:url(#clip-path-4);}.cls-15{clip-path:url(#clip-path-5);}.cls-16{fill:#562b04;}.cls-17{fill:#8c4b10;}.cls-18{clip-path:url(#clip-path-6);}.cls-19{fill:#ea4747;}.cls-20{clip-path:url(#clip-path-7);}.cls-21{fill:#d62525;}.cls-22{fill:#7a3501;}</style><clipPath id="clip-path"><rect class="cls-1" y="58.27" width="133.52" height="109.73"/></clipPath><clipPath id="clip-path-2"><rect class="cls-2" x="48.81" y="138.28" width="10.27" height="10.27"/></clipPath><clipPath id="clip-path-3"><path class="cls-2" d="M77,103.35c-2.21-19-15.47-27.4-30.42-25.66s-25.92,12.92-23.71,32a56.31,56.31,0,0,0,4.22,16.62,7.76,7.76,0,0,0-.81,4.31C27.14,138,39.53,142.65,54,141s25.4-9.05,24.54-16.46a7.82,7.82,0,0,0-1.72-4A57.28,57.28,0,0,0,77,103.35Z"/></clipPath><clipPath id="clip-path-4"><ellipse class="cls-3" cx="35.51" cy="118.55" rx="6.32" ry="7.95" transform="translate(-13.46 4.9) rotate(-6.64)"/></clipPath><clipPath id="clip-path-5"><ellipse class="cls-3" cx="66.75" cy="114.92" rx="6.32" ry="7.95" transform="translate(-12.83 8.48) rotate(-6.64)"/></clipPath><clipPath id="clip-path-6"><path class="cls-4" d="M44,131.16a28.31,28.31,0,0,0,8.68.14,29.55,29.55,0,0,0,8.54-2.15s-.09,6-7.93,6.87S44,131.16,44,131.16Z"/></clipPath><clipPath id="clip-path-7"><path class="cls-5" d="M76.53,187.79c.19-10.15-1.38-22.9-2.28-29.35a70.31,70.31,0,0,0-.37-13c-.06-.75-1.76-1.62-1.76-1.62L61.42,142a8.25,8.25,0,0,1-7.92,7.64,7.94,7.94,0,0,1-7.9-7.32L35,143.8s-1.71.87-1.76,1.62a73.37,73.37,0,0,0-.12,16.47,196.69,196.69,0,0,0-1.8,25.9s-1,2.46,5.73,1.58a134.94,134.94,0,0,1,16.49-.63H54a138.51,138.51,0,0,1,16.7.63C77.56,190.25,76.53,187.79,76.53,187.79Z"/></clipPath></defs><g class="cls-6"><path class="cls-2" d="M76.42,148.62,84.08,166a3.46,3.46,0,0,1-1.8,4.63,7,7,0,0,1-4.06.15,2.48,2.48,0,0,1-1.84-1.51l-7-17.94Z"/><path class="cls-5" d="M71,143.68a6.77,6.77,0,0,1,5,2.37A46.9,46.9,0,0,1,83.83,159l1.09,1.43s.81,3.12-6.65,5.6c-3.09,1-6.93,2.22-8.47-.78-.43-.86-1.76-3.8-2.23-5C65.09,153.9,61.56,143.53,71,143.68Z"/><path class="cls-2" d="M85.54,186.41l4.23-1.59a1.63,1.63,0,0,0,.93-2.11L84.12,166l-7.82,3.08,7.12,16.4A1.64,1.64,0,0,0,85.54,186.41Z"/><path class="cls-2" d="M31.2,147.71,20.71,163.55a3.46,3.46,0,0,0,1,4.87,7,7,0,0,0,4,.84,2.52,2.52,0,0,0,2.07-1.18l9.91-16.5Z"/><path class="cls-5" d="M37.37,143.76A6.76,6.76,0,0,0,32,145.25a46.9,46.9,0,0,0-9.9,11.39l-1.31,1.22s-1.33,2.94,5.61,6.65c2.87,1.53,6.46,3.36,8.47.65.58-.76,2.39-3.44,3.05-4.54C41.47,154.83,46.7,145.21,37.37,143.76Z"/><ellipse class="cls-7" cx="53.95" cy="149.78" rx="15.77" ry="8.81"/><ellipse class="cls-2" cx="53.95" cy="151.15" rx="15.77" ry="8.81"/><rect class="cls-2" x="48.81" y="138.28" width="10.27" height="10.27"/><g class="cls-8"><ellipse class="cls-9" cx="53.76" cy="138.5" rx="7.73" ry="4.13"/></g><circle class="cls-10" cx="25.89" cy="121.95" r="6.87"/><circle class="cls-10" cx="76.88" cy="116.02" r="6.87"/><path class="cls-2" d="M77,103.35c-2.21-19-15.47-27.4-30.42-25.66s-25.92,12.92-23.71,32a56.31,56.31,0,0,0,4.22,16.62,7.76,7.76,0,0,0-.81,4.31C27.14,138,39.53,142.65,54,141s25.4-9.05,24.54-16.46a7.82,7.82,0,0,0-1.72-4A57.28,57.28,0,0,0,77,103.35Z"/><g class="cls-11"><path class="cls-12" d="M23.55,121.44A157.51,157.51,0,0,1,26,101.37c2-10.05,12-5.9,22.52-7.12L45.93,72,13.6,75.79l4.18,45.28Z"/><path class="cls-12" d="M79,115a158.09,158.09,0,0,0-7-19C67.79,86.68,59,93,48.46,94.25L45.88,72,78.2,68.28l6.33,45Z"/></g><ellipse class="cls-13" cx="51.88" cy="123.2" rx="5.78" ry="2.71" transform="translate(-13.89 6.82) rotate(-6.64)"/><ellipse class="cls-3" cx="35.51" cy="118.55" rx="6.32" ry="7.95" transform="translate(-13.46 4.9) rotate(-6.64)"/><g class="cls-14"><path d="M37.14,112.45c-.15,0-.29.07-.44.1a2.42,2.42,0,0,1,1.19,1.79,2.47,2.47,0,0,1-2.17,2.74,2.43,2.43,0,0,1-2.58-1.69,5,5,0,1,0,4-2.94Z"/></g><ellipse class="cls-3" cx="66.75" cy="114.92" rx="6.32" ry="7.95" transform="translate(-12.83 8.48) rotate(-6.64)"/><g class="cls-15"><path d="M68.6,108.11c-.15,0-.29.07-.44.1A2.43,2.43,0,0,1,69.35,110a2.47,2.47,0,0,1-2.17,2.74,2.43,2.43,0,0,1-2.58-1.68,4.92,4.92,0,0,0-.44,2.67,5.06,5.06,0,1,0,4.44-5.61Z"/></g><path class="cls-16" d="M29.39,109s3.55-4,10.78-1.25C40.17,107.73,33.24,100.62,29.39,109Z"/><path class="cls-16" d="M70.5,104.2s-4.38-3.13-10.78,1.25C59.72,105.45,64.84,96.94,70.5,104.2Z"/><path class="cls-17" d="M43.28,130.89s.65,8,10.25,6.9S62,128.73,62,128.73l-8.74.69Z"/><path class="cls-4" d="M44,131.16a28.31,28.31,0,0,0,8.68.14,29.55,29.55,0,0,0,8.54-2.15s-.09,6-7.93,6.87S44,131.16,44,131.16Z"/><g class="cls-18"><ellipse class="cls-3" cx="52.54" cy="129.26" rx="7.55" ry="3.85" transform="translate(-14.58 6.94) rotate(-6.64)"/><ellipse class="cls-19" cx="53.59" cy="138.29" rx="7.55" ry="3.85" transform="translate(-15.62 7.12) rotate(-6.64)"/></g><path class="cls-17" d="M43.28,130.89a76.67,76.67,0,0,1,9.25-1.66,78.63,78.63,0,0,1,9.49-.5s-3.06,1.84-9.55,2.6S43.28,130.89,43.28,130.89Z"/><ellipse class="cls-2" cx="37.29" cy="126.58" rx="6.21" ry="2.3" transform="translate(-14.38 5.16) rotate(-6.64)"/><ellipse class="cls-2" cx="66.85" cy="123.14" rx="6.21" ry="2.3" transform="translate(-13.78 8.55) rotate(-6.64)"/><path class="cls-5" d="M76.53,187.79c.19-10.15-1.38-22.9-2.28-29.35a70.31,70.31,0,0,0-.37-13c-.06-.75-1.76-1.62-1.76-1.62L61.42,142a8.25,8.25,0,0,1-7.92,7.64,7.94,7.94,0,0,1-7.9-7.32L35,143.8s-1.71.87-1.76,1.62a73.37,73.37,0,0,0-.12,16.47,196.69,196.69,0,0,0-1.8,25.9s-1,2.46,5.73,1.58a134.94,134.94,0,0,1,16.49-.63H54a138.51,138.51,0,0,1,16.7.63C77.56,190.25,76.53,187.79,76.53,187.79Z"/><g class="cls-20"><path class="cls-21" d="M42.54,139.64c-.26.58-.06,13.05,11.41,13.05s11.19-16.27,11.19-16.27Z"/></g><path class="cls-2" d="M15.83,183.41l-3.92-2.27a1.65,1.65,0,0,1-.55-2.25l9.31-15.34,7.19,4.35-9.79,15A1.63,1.63,0,0,1,15.83,183.41Z"/><path class="cls-22" d="M26.94,178.69s23.39-17.92,39.18-37a1.3,1.3,0,0,1,1.49-.38l1.5.73a1.2,1.2,0,0,1,.37,1.71c-2.22,3.38-7.79,15.17-39,37.41Z"/></g></svg>