<svg id="Layer_1" data-name="Layer 1" xmlns="http://www.w3.org/2000/svg" xmlns:xlink="http://www.w3.org/1999/xlink" viewBox="0 0 260 168"><defs><style>.cls-1{fill:#d6eae6;}.cls-2{fill:#a8651d;}.cls-3{fill:#590b0b;}.cls-4{fill:#f43434;}.cls-5{fill:#d18830;}.cls-6{fill:#893e00;}.cls-7{fill:#c0e2da;}.cls-8{fill:#f49c00;}.cls-9{clip-path:url(#clip-path);}.cls-10{fill:#bcd8d1;opacity:0.44;}.cls-11{fill:#f28f00;}.cls-12{clip-path:url(#clip-path-2);}.cls-13{clip-path:url(#clip-path-3);}.cls-14{fill:#c1dbd5;}.cls-15{fill:#bc1d1d;}.cls-16{clip-path:url(#clip-path-4);}.cls-17{fill:#935212;opacity:0.46;}.cls-18{fill:#914e0c;}.cls-19{clip-path:url(#clip-path-5);}.cls-20{fill:#935115;}.cls-21{fill:#8e5011;}.cls-22{fill:#fff;}.cls-23{fill:#562b04;}.cls-24{fill:#8c4b10;}.cls-25{clip-path:url(#clip-path-6);}.cls-26{fill:#ea4747;}.cls-27{clip-path:url(#clip-path-7);}.cls-28{fill:#d62525;}.cls-29{clip-path:url(#clip-path-8);}.cls-30{fill:#ea9c3f;}.cls-31{fill:#af6822;opacity:0.42;}.cls-32{clip-path:url(#clip-path-9);}.cls-33{fill:#9b530b;}.cls-34{fill:#7a3501;}.cls-35{fill:#4932ce;}.cls-36{fill:#ffe33b;}</style><clipPath id="clip-path"><path class="cls-1" d="M82.86,122.25c.26.73-.34,10.62-.57,14.29a1,1,0,0,0,1.17,1.05c1.38-.24,3.65.52,7.48.08.69-.08,1.32-.41,1.37-1.11l.67-9.39.39-6Z"/></clipPath><clipPath id="clip-path-2"><path class="cls-1" d="M102.77,122.25c-.27.73.33,10.62.56,14.29a1,1,0,0,1-1.17,1.05c-1.38-.24-3.65.52-7.47.08-.7-.08-1.32-.41-1.37-1.11l-.67-9.39-.4-6Z"/></clipPath><clipPath id="clip-path-3"><path class="cls-1" d="M82.89,125.19l-.18,4.13s3.15,1.27,9.84,1.27a42.3,42.3,0,0,0,10.31-1v-4.75Z"/></clipPath><clipPath id="clip-path-4"><rect class="cls-2" x="90.48" y="102.54" width="4.68" height="4.68"/></clipPath><clipPath id="clip-path-5"><path class="cls-2" d="M105.22,88c0-8.73-5.55-13.21-12.41-13.21S80.4,79.23,80.4,88a25.32,25.32,0,0,0,1,7.74,3.47,3.47,0,0,0-.6,1.91c0,3.4,5.36,6.16,12,6.16s12-2.76,12-6.16a3.59,3.59,0,0,0-.57-1.87A26.56,26.56,0,0,0,105.22,88Z"/></clipPath><clipPath id="clip-path-6"><path class="cls-3" d="M88.84,98.81a13,13,0,0,0,3.93.52,13.49,13.49,0,0,0,4-.52s-.35,2.68-3.95,2.68S88.84,98.81,88.84,98.81Z"/></clipPath><clipPath id="clip-path-7"><path class="cls-4" d="M103.1,125.1a94.53,94.53,0,0,0-1-13.37,30.86,30.86,0,0,0-.17-5.93c0-.35-.8-.74-.8-.74l-4.87-.81a3.77,3.77,0,0,1-3.61,3.48,3.63,3.63,0,0,1-3.6-3.34l-4.81.67s-.78.39-.8.74a33.33,33.33,0,0,0-.06,7.5,89.33,89.33,0,0,0-.82,11.8s-.46,1.11,2.61.72a60.58,60.58,0,0,1,7.52-.29h.2a62.14,62.14,0,0,1,7.61.29C103.57,126.21,103.1,125.1,103.1,125.1Z"/></clipPath><clipPath id="clip-path-8"><path class="cls-5" d="M74.59,121.94H84.82a0,0,0,0,1,0,0v9.15A3.94,3.94,0,0,1,80.88,135H78.54a3.94,3.94,0,0,1-3.94-3.94v-9.15A0,0,0,0,1,74.59,121.94Z" transform="translate(19.34 -10.14) rotate(8.28)"/></clipPath><clipPath id="clip-path-9"><rect class="cls-6" x="74.61" y="121.11" width="12.38" height="2.15" rx="1.07" transform="translate(18.44 -10.36) rotate(8.28)"/></clipPath></defs><path class="cls-2" d="M103.05,107.25l3.49,7.92a1.58,1.58,0,0,1-.82,2.11,3.13,3.13,0,0,1-1.85.07,1.13,1.13,0,0,1-.84-.69l-3.18-8.17Z"/><path class="cls-4" d="M100.58,105a3.13,3.13,0,0,1,2.28,1.08,21.57,21.57,0,0,1,3.57,5.88l.49.65s.37,1.42-3,2.55c-1.4.47-3.16,1-3.85-.36-.2-.38-.81-1.73-1-2.27C97.89,109.66,96.28,104.94,100.58,105Z"/><path class="cls-2" d="M107.2,124.46l1.93-.72a.73.73,0,0,0,.42-1l-3-7.61L103,116.58l3.25,7.47A.73.73,0,0,0,107.2,124.46Z"/><path class="cls-2" d="M106.3,123.88s-.38,3,0,3.59,1,.8,1.27-1c0,0,.19-.22.31.09a11.49,11.49,0,0,1,.31,3s-.06.59.62.5,1.14-2.07,1.35-3.83a8.62,8.62,0,0,0-.82-3.94,1.9,1.9,0,0,0-2,0A2.07,2.07,0,0,0,106.3,123.88Z"/><rect class="cls-7" x="81.78" y="131.21" width="2.13" height="4.32" rx="0.51" transform="translate(7.84 -4.56) rotate(3.31)"/><path class="cls-8" d="M83.73,147.07s-1.14.81-1.24,1.24a4.78,4.78,0,0,0,0,1.24s.4.57,2.88.57,3.19-.1,3.84-.7,0-3.4,0-3.4L86,146.5Z"/><path class="cls-2" d="M84.5,133.54v11.59a5.67,5.67,0,0,0,4.56,0l.73-11.55a2.7,2.7,0,0,0-5.29,0Z"/><path class="cls-1" d="M82.86,122.25c.26.73-.34,10.62-.57,14.29a1,1,0,0,0,1.17,1.05c1.38-.24,3.65.52,7.48.08.69-.08,1.32-.41,1.37-1.11l.67-9.39.39-6Z"/><g class="cls-9"><path class="cls-10" d="M87.19,136.68A15.77,15.77,0,0,0,93.8,136a9,9,0,0,1-.12,2.07.33.33,0,0,1-.09.21.38.38,0,0,1-.22.07,61,61,0,0,1-11.7-.11c-.27,0-.59-.1-.67-.35a.58.58,0,0,1,0-.41c.42-1.27.88-1.48,2.21-1.43S85.87,136.5,87.19,136.68Z"/></g><path class="cls-2" d="M89.06,145.09s.34,2.36,0,2.95-1.16,1.13-2.71,1-4,0-3.43-1.41a12.45,12.45,0,0,1,1.73-2.79S87.44,143.33,89.06,145.09Z"/><path class="cls-11" d="M87,149.06s-.47-1.46.31-1.94c.56-.33,1.95.14,1.95.14a.49.49,0,0,0,0-.52c-.17-.32-2.06-.55-5.76-.16a.87.87,0,0,0-.35.65,9.81,9.81,0,0,1,2.76-.16l.58,0a2.74,2.74,0,0,0-.09,1.95A.51.51,0,0,0,87,149.06Z"/><path class="cls-2" d="M82.45,106.84l-4.78,7.21a1.58,1.58,0,0,0,.45,2.22,3.15,3.15,0,0,0,1.81.38,1.13,1.13,0,0,0,.95-.53l4.51-7.52Z"/><rect class="cls-7" x="101.79" y="131.21" width="2.13" height="4.32" rx="0.51" transform="translate(-3.55 2.82) rotate(-1.54)"/><path class="cls-8" d="M101.9,147.07s1.14.81,1.24,1.24a4.78,4.78,0,0,1,0,1.24s-.41.57-2.89.57-3.18-.1-3.83-.7,0-3.4,0-3.4l3.14.48Z"/><path class="cls-2" d="M101.13,133.54v11.59a5.68,5.68,0,0,1-4.56,0l-.74-11.55a2.71,2.71,0,0,1,5.3,0Z"/><path class="cls-1" d="M102.77,122.25c-.27.73.33,10.62.56,14.29a1,1,0,0,1-1.17,1.05c-1.38-.24-3.65.52-7.47.08-.7-.08-1.32-.41-1.37-1.11l-.67-9.39-.4-6Z"/><g class="cls-12"><path class="cls-10" d="M98.44,136.68a15.82,15.82,0,0,1-6.62-.66,9,9,0,0,0,.12,2.07.4.4,0,0,0,.09.21.41.41,0,0,0,.22.07,61,61,0,0,0,11.7-.11c.27,0,.6-.1.68-.35a.72.72,0,0,0,0-.41c-.42-1.27-.89-1.48-2.22-1.43S99.75,136.5,98.44,136.68Z"/></g><path class="cls-2" d="M96.57,145.09s-.35,2.36,0,2.95,1.15,1.13,2.71,1,4,0,3.43-1.41a12.86,12.86,0,0,0-1.73-2.79S98.19,143.33,96.57,145.09Z"/><path class="cls-11" d="M98.68,149.06s.47-1.46-.32-1.94c-.55-.33-1.94.14-1.94.14a.46.46,0,0,1,0-.52c.17-.32,2.06-.55,5.76-.16a.87.87,0,0,1,.35.65,9.81,9.81,0,0,0-2.76-.16l-.59,0a2.77,2.77,0,0,1,.1,1.95A.51.51,0,0,1,98.68,149.06Z"/><path class="cls-1" d="M82.89,125.19l-.18,4.13s3.15,1.27,9.84,1.27a42.3,42.3,0,0,0,10.31-1v-4.75Z"/><g class="cls-13"><path class="cls-14" d="M100.6,126.37a6.87,6.87,0,0,0,3,0,1.05,1.05,0,0,0,.7-.53c.19-.46-.17-1-.54-1.29a9,9,0,0,0-4.92-1.8,58.83,58.83,0,0,0-7.74-.25c-2.29,0-4.59.05-6.88.26-1.33.11-3.32.53-2.77,2.48s3.41,1.42,4.84,1.37c2.27-.07,4.53-.26,6.8-.38A42.3,42.3,0,0,1,100.6,126.37Z"/></g><path class="cls-4" d="M85.26,105a3.06,3.06,0,0,0-2.42.67,21.45,21.45,0,0,0-4.51,5.2l-.6.55s-.61,1.34,2.55,3c1.31.7,3,1.53,3.86.3.26-.35,1.09-1.57,1.39-2.07C87.13,110.08,89.51,105.7,85.26,105Z"/><ellipse class="cls-15" cx="92.81" cy="107.78" rx="7.18" ry="4.01"/><ellipse class="cls-2" cx="92.81" cy="108.41" rx="7.18" ry="4.01"/><rect class="cls-2" x="90.48" y="102.54" width="4.68" height="4.68"/><g class="cls-16"><ellipse class="cls-17" cx="92.73" cy="102.64" rx="3.52" ry="1.88"/></g><circle class="cls-18" cx="81.12" cy="93.69" r="3.13"/><circle class="cls-18" cx="104.5" cy="93.69" r="3.13"/><path class="cls-2" d="M105.22,88c0-8.73-5.55-13.21-12.41-13.21S80.4,79.23,80.4,88a25.32,25.32,0,0,0,1,7.74,3.47,3.47,0,0,0-.6,1.91c0,3.4,5.36,6.16,12,6.16s12-2.76,12-6.16a3.59,3.59,0,0,0-.57-1.87A26.56,26.56,0,0,0,105.22,88Z"/><g class="cls-19"><path class="cls-20" d="M80.09,93.33a72,72,0,0,1,2.16-9c1.42-4.45,5.75-2,10.56-2V72.15H78L77.5,92.86Z"/><path class="cls-20" d="M105.52,93.33a72,72,0,0,0-2.16-9c-1.42-4.45-5.75-2-10.57-2V72.15h14.82l.5,20.71Z"/></g><ellipse class="cls-21" cx="92.81" cy="95.62" rx="2.63" ry="1.23"/><ellipse class="cls-22" cx="85.65" cy="92.65" rx="2.88" ry="3.62"/><path d="M85.65,90.55l-.2,0a1.11,1.11,0,0,1-.69,2,1.11,1.11,0,0,1-1.08-.9,2.3,2.3,0,1,0,2-1.12Z"/><ellipse class="cls-22" cx="99.98" cy="92.65" rx="2.88" ry="3.62"/><path d="M100,90.55l-.21,0a1.13,1.13,0,0,1,.44.88,1.11,1.11,0,0,1-2.2.22,2.3,2.3,0,1,0,2-1.12Z"/><path class="cls-23" d="M83.39,88s1.81-1.64,4.94,0C88.33,88,85.57,84.42,83.39,88Z"/><path class="cls-23" d="M102.24,88s-1.82-1.64-4.94,0C97.3,88,100.06,84.42,102.24,88Z"/><path class="cls-24" d="M88.52,98.64s-.13,3.67,4.27,3.67,4.32-3.65,4.32-3.65l-4-.16Z"/><path class="cls-3" d="M88.84,98.81a13,13,0,0,0,3.93.52,13.49,13.49,0,0,0,4-.52s-.35,2.68-3.95,2.68S88.84,98.81,88.84,98.81Z"/><g class="cls-25"><ellipse class="cls-22" cx="92.79" cy="98.39" rx="3.44" ry="1.76"/><ellipse class="cls-26" cx="92.79" cy="102.54" rx="3.44" ry="1.76"/></g><path class="cls-24" d="M88.52,98.64a35.74,35.74,0,0,1,4.27-.26,34.56,34.56,0,0,1,4.32.28,11.77,11.77,0,0,1-4.46.67A8.81,8.81,0,0,1,88.52,98.64Z"/><ellipse class="cls-2" cx="86.04" cy="96.38" rx="2.83" ry="1.05"/><ellipse class="cls-2" cx="99.59" cy="96.38" rx="2.83" ry="1.05"/><path class="cls-4" d="M103.1,125.1a94.53,94.53,0,0,0-1-13.37,30.86,30.86,0,0,0-.17-5.93c0-.35-.8-.74-.8-.74l-4.87-.81a3.77,3.77,0,0,1-3.61,3.48,3.63,3.63,0,0,1-3.6-3.34l-4.81.67s-.78.39-.8.74a33.33,33.33,0,0,0-.06,7.5,89.33,89.33,0,0,0-.82,11.8s-.46,1.11,2.61.72a60.58,60.58,0,0,1,7.52-.29h.2a62.14,62.14,0,0,1,7.61.29C103.57,126.21,103.1,125.1,103.1,125.1Z"/><g class="cls-27"><path class="cls-28" d="M87.62,103.16c-.12.26,0,6,5.19,6s5.1-7.41,5.1-7.41Z"/></g><path class="cls-2" d="M75.45,123.1l-1.78-1a.74.74,0,0,1-.25-1l4.23-7,3.28,2-4.46,6.81A.75.75,0,0,1,75.45,123.1Z"/><path class="cls-2" d="M76.44,122.68s-.15,3-.61,3.53-1.17.61-1.08-1.22c0,0-.15-.24-.32,0a11.1,11.1,0,0,0-.8,2.86s0,.6-.7.39-.77-2.23-.69-4a8.77,8.77,0,0,1,1.48-3.75,1.9,1.9,0,0,1,2,.34A2.12,2.12,0,0,1,76.44,122.68Z"/><path class="cls-5" d="M74.59,121.94H84.82a0,0,0,0,1,0,0v9.15A3.94,3.94,0,0,1,80.88,135H78.54a3.94,3.94,0,0,1-3.94-3.94v-9.15A0,0,0,0,1,74.59,121.94Z" transform="translate(19.34 -10.14) rotate(8.28)"/><g class="cls-29"><rect class="cls-30" x="71.63" y="118.44" width="0.69" height="17.82" transform="translate(19.09 -9.04) rotate(8.28)"/><rect class="cls-30" x="75.49" y="119.01" width="0.69" height="17.82" transform="translate(19.21 -9.59) rotate(8.28)"/><rect class="cls-30" x="79.35" y="119.57" width="0.69" height="17.82" transform="translate(19.34 -10.14) rotate(8.28)"/><rect class="cls-30" x="83.21" y="120.13" width="0.69" height="17.82" transform="translate(19.46 -10.69) rotate(8.28)"/><rect class="cls-30" x="87.07" y="120.69" width="0.69" height="17.82" transform="translate(19.58 -11.24) rotate(8.28)"/><path class="cls-30" d="M91.19,126.92c-3.49-.27-7.2-.67-11.1-1.23s-7.53-1.25-10.94-2l.12-.8c3.36.77,7,1.47,10.93,2s7.65,1,11.1,1.17Z"/><path class="cls-30" d="M90.81,129.49c-3.49-.27-7.19-.67-11.09-1.23s-7.53-1.24-10.94-2l.12-.8c3.36.77,7,1.47,10.93,2s7.65.94,11.1,1.16Z"/><path class="cls-30" d="M90.44,132.06c-3.49-.27-7.2-.66-11.1-1.23s-7.53-1.24-10.93-2l.11-.8c3.36.77,7,1.48,10.93,2s7.65.94,11.1,1.16Z"/><path class="cls-30" d="M90.06,134.63c-3.48-.27-7.19-.66-11.09-1.23s-7.53-1.24-10.94-2l.12-.8c3.36.77,7,1.48,10.93,2s7.65.94,11.1,1.16Z"/><rect class="cls-31" x="73.74" y="121.26" width="13.94" height="2.59" transform="translate(18.49 -10.35) rotate(8.28)"/></g><rect class="cls-6" x="74.61" y="121.11" width="12.38" height="2.15" rx="1.07" transform="translate(18.44 -10.36) rotate(8.28)"/><g class="cls-32"><rect class="cls-33" x="73.03" y="119.61" width="16.84" height="2.03" transform="translate(18.22 -10.47) rotate(8.28)"/></g><path class="cls-34" d="M80.51,121s10.66-8.16,17.85-16.85a.59.59,0,0,1,.68-.17l.68.33a.55.55,0,0,1,.17.78c-1,1.54-3.55,6.91-17.78,17Z"/><circle class="cls-35" cx="80.61" cy="122.21" r="2.03"/><circle class="cls-36" cx="80.61" cy="122.21" r="1.09"/></svg>