<svg id="Layer_1" data-name="Layer 1" xmlns="http://www.w3.org/2000/svg" xmlns:xlink="http://www.w3.org/1999/xlink" viewBox="0 0 260 168"><defs><style>.cls-1{fill:#d6eae6;}.cls-2{fill:#a8651d;}.cls-3{fill:#590b0b;}.cls-4{fill:#f43434;}.cls-5{fill:#d18830;}.cls-6{fill:#893e00;}.cls-7{fill:#c0e2da;}.cls-8{fill:#f49c00;}.cls-9{clip-path:url(#clip-path);}.cls-10{fill:#bcd8d1;opacity:0.44;}.cls-11{fill:#f28f00;}.cls-12{clip-path:url(#clip-path-2);}.cls-13{clip-path:url(#clip-path-3);}.cls-14{fill:#c1dbd5;}.cls-15{fill:#bc1d1d;}.cls-16{clip-path:url(#clip-path-4);}.cls-17{fill:#935212;opacity:0.46;}.cls-18{fill:#914e0c;}.cls-19{clip-path:url(#clip-path-5);}.cls-20{fill:#935115;}.cls-21{fill:#8e5011;}.cls-22{fill:#fff;}.cls-23{fill:#562b04;}.cls-24{fill:#8c4b10;}.cls-25{clip-path:url(#clip-path-6);}.cls-26{fill:#ea4747;}.cls-27{clip-path:url(#clip-path-7);}.cls-28{fill:#d62525;}.cls-29{clip-path:url(#clip-path-8);}.cls-30{fill:#ea9c3f;}.cls-31{fill:#af6822;opacity:0.42;}.cls-32{clip-path:url(#clip-path-9);}.cls-33{fill:#9b530b;}.cls-34{fill:#7a3501;}.cls-35{fill:#4932ce;}.cls-36{fill:#ffe33b;}</style><clipPath id="clip-path"><path class="cls-1" d="M117.18,129.58c.31.87-.4,12.74-.68,17.13a1.19,1.19,0,0,0,1.4,1.26c1.66-.29,4.38.63,9,.1.83-.09,1.58-.49,1.64-1.32l.8-11.27.48-7.18Z"/></clipPath><clipPath id="clip-path-2"><path class="cls-1" d="M141.06,129.58c-.32.87.4,12.74.67,17.13a1.19,1.19,0,0,1-1.4,1.26c-1.65-.29-4.38.63-9,.1-.83-.09-1.58-.49-1.64-1.32l-.8-11.27-.48-7.18Z"/></clipPath><clipPath id="clip-path-3"><path class="cls-1" d="M117.21,133.1l-.21,5s3.78,1.52,11.8,1.52a50.64,50.64,0,0,0,12.36-1.21v-5.7Z"/></clipPath><clipPath id="clip-path-4"><rect class="cls-2" x="126.31" y="105.94" width="5.61" height="5.61"/></clipPath><clipPath id="clip-path-5"><path class="cls-2" d="M144,88.45c0-10.47-6.66-15.84-14.88-15.84S114.23,78,114.23,88.45a30.85,30.85,0,0,0,1.24,9.29,4.22,4.22,0,0,0-.71,2.29c0,4.08,6.43,7.38,14.36,7.38s14.36-3.3,14.36-7.38a4.24,4.24,0,0,0-.69-2.25A31.36,31.36,0,0,0,144,88.45Z"/></clipPath><clipPath id="clip-path-6"><path class="cls-3" d="M124.36,101.46a15.31,15.31,0,0,0,4.7.63,16.1,16.1,0,0,0,4.77-.63s-.43,3.23-4.74,3.23S124.36,101.46,124.36,101.46Z"/></clipPath><clipPath id="clip-path-7"><path class="cls-4" d="M141.46,133a114.8,114.8,0,0,0-1.25-16,38.75,38.75,0,0,0-.2-7.12c0-.41-1-.88-1-.88l-5.85-1a4.51,4.51,0,0,1-4.33,4.17,4.33,4.33,0,0,1-4.31-4l-5.77.8s-.93.47-1,.88a39.16,39.16,0,0,0-.07,9,106.21,106.21,0,0,0-1,14.15s-.56,1.34,3.13.86a75,75,0,0,1,9-.34h.24a77.07,77.07,0,0,1,9.13.34C142,134.33,141.46,133,141.46,133Z"/></clipPath><clipPath id="clip-path-8"><path class="cls-5" d="M107.27,129.2h12.27a0,0,0,0,1,0,0v11a4.73,4.73,0,0,1-4.73,4.73H112a4.73,4.73,0,0,1-4.73-4.73v-11a0,0,0,0,1,0,0Z" transform="translate(20.92 -14.9) rotate(8.28)"/></clipPath><clipPath id="clip-path-9"><rect class="cls-6" x="107.28" y="128.21" width="14.84" height="2.58" rx="1.29" transform="translate(19.85 -15.17) rotate(8.28)"/></clipPath></defs><path class="cls-2" d="M141.39,111.59l4.19,9.5a1.9,1.9,0,0,1-1,2.53,3.84,3.84,0,0,1-2.22.09,1.36,1.36,0,0,1-1-.83l-3.82-9.8Z"/><path class="cls-4" d="M138.44,108.89a3.72,3.72,0,0,1,2.73,1.3,25.88,25.88,0,0,1,4.28,7l.59.78s.44,1.7-3.63,3c-1.69.57-3.79,1.22-4.63-.42-.24-.47-1-2.08-1.22-2.73C135.2,114.48,133.28,108.81,138.44,108.89Z"/><path class="cls-2" d="M146.38,132.23l2.31-.86a.89.89,0,0,0,.5-1.16l-3.59-9.12-4.27,1.68,3.89,9A.89.89,0,0,0,146.38,132.23Z"/><path class="cls-2" d="M145.29,131.54s-.45,3.63,0,4.29,1.27,1,1.53-1.22c0,0,.22-.26.37.11a14.11,14.11,0,0,1,.37,3.55s-.08.71.74.6,1.37-2.48,1.63-4.59a10.34,10.34,0,0,0-1-4.73,2.26,2.26,0,0,0-2.37,0A2.53,2.53,0,0,0,145.29,131.54Z"/><rect class="cls-7" x="115.88" y="140.32" width="2.55" height="5.18" rx="0.61" transform="translate(8.44 -6.52) rotate(3.31)"/><path class="cls-8" d="M118.22,159.35s-1.36,1-1.48,1.49a5.25,5.25,0,0,0,0,1.48s.48.68,3.45.68,3.83-.12,4.61-.84-.06-4.08-.06-4.08l-3.77.59Z"/><path class="cls-2" d="M119.15,143.11V157a6.8,6.8,0,0,0,5.46,0l.89-13.87a3.25,3.25,0,0,0-6.35,0Z"/><path class="cls-1" d="M117.18,129.58c.31.87-.4,12.74-.68,17.13a1.19,1.19,0,0,0,1.4,1.26c1.66-.29,4.38.63,9,.1.83-.09,1.58-.49,1.64-1.32l.8-11.27.48-7.18Z"/><g class="cls-9"><path class="cls-10" d="M122.37,146.88a18.94,18.94,0,0,0,7.94-.79,11.41,11.41,0,0,1-.15,2.48.5.5,0,0,1-.11.26.47.47,0,0,1-.26.08,73.18,73.18,0,0,1-14-.12c-.32,0-.71-.13-.8-.44a.8.8,0,0,1,0-.48c.51-1.53,1.07-1.77,2.66-1.72S120.79,146.67,122.37,146.88Z"/></g><path class="cls-2" d="M124.61,157s.41,2.82,0,3.53-1.38,1.36-3.24,1.19-4.82,0-4.12-1.68a15.34,15.34,0,0,1,2.07-3.35S122.67,154.86,124.61,157Z"/><path class="cls-11" d="M122.08,161.73s-.56-1.75.38-2.32c.66-.4,2.33.16,2.33.16a.56.56,0,0,0,0-.62c-.2-.39-2.47-.66-6.91-.19a1,1,0,0,0-.41.78s.33-.2,3.3-.19l.71,0a3.23,3.23,0,0,0-.11,2.33A.59.59,0,0,0,122.08,161.73Z"/><path class="cls-2" d="M116.69,111.09,111,119.75a1.89,1.89,0,0,0,.54,2.66,3.89,3.89,0,0,0,2.17.46,1.37,1.37,0,0,0,1.13-.65l5.42-9Z"/><rect class="cls-7" x="139.88" y="140.32" width="2.56" height="5.18" rx="0.61" transform="translate(-3.8 3.85) rotate(-1.54)"/><path class="cls-8" d="M140,159.35s1.37,1,1.49,1.49a5.69,5.69,0,0,1,0,1.48S141,163,138,163s-3.82-.12-4.6-.84.06-4.08.06-4.08l3.76.59Z"/><path class="cls-2" d="M139.09,143.11V157a6.83,6.83,0,0,1-5.47,0l-.88-13.87a3.25,3.25,0,0,1,6.35,0Z"/><path class="cls-1" d="M141.06,129.58c-.32.87.4,12.74.67,17.13a1.19,1.19,0,0,1-1.4,1.26c-1.65-.29-4.38.63-9,.1-.83-.09-1.58-.49-1.64-1.32l-.8-11.27-.48-7.18Z"/><g class="cls-12"><path class="cls-10" d="M135.86,146.88a18.89,18.89,0,0,1-7.93-.79,10.81,10.81,0,0,0,.14,2.48.5.5,0,0,0,.11.26.47.47,0,0,0,.26.08,73.18,73.18,0,0,0,14-.12c.32,0,.71-.13.81-.44a.81.81,0,0,0,0-.48c-.51-1.53-1.06-1.77-2.66-1.72S137.44,146.67,135.86,146.88Z"/></g><path class="cls-2" d="M133.62,157s-.41,2.82,0,3.53,1.38,1.36,3.25,1.19,4.81,0,4.11-1.68a15.34,15.34,0,0,0-2.07-3.35S135.57,154.86,133.62,157Z"/><path class="cls-11" d="M136.15,161.73s.56-1.75-.38-2.32c-.66-.4-2.33.16-2.33.16a.56.56,0,0,1,0-.62c.2-.39,2.47-.66,6.91-.19a1,1,0,0,1,.42.78s-.34-.2-3.31-.19l-.7,0a3.3,3.3,0,0,1,.11,2.33A.61.61,0,0,1,136.15,161.73Z"/><path class="cls-1" d="M117.21,133.1l-.21,5s3.78,1.52,11.8,1.52a50.64,50.64,0,0,0,12.36-1.21v-5.7Z"/><g class="cls-13"><path class="cls-14" d="M138.46,134.52a8.28,8.28,0,0,0,3.54,0,1.23,1.23,0,0,0,.84-.64c.23-.56-.19-1.16-.64-1.55a10.8,10.8,0,0,0-5.91-2.15,69.94,69.94,0,0,0-9.27-.3c-2.76,0-5.51.06-8.26.3-1.59.14-4,.64-3.32,3s4.09,1.71,5.8,1.65c2.73-.09,5.44-.32,8.16-.46A51.74,51.74,0,0,1,138.46,134.52Z"/></g><path class="cls-4" d="M120.06,108.93a3.69,3.69,0,0,0-2.91.82,25.7,25.7,0,0,0-5.41,6.22l-.71.67s-.73,1.61,3.06,3.63c1.57.84,3.53,1.84,4.63.36.31-.42,1.3-1.88,1.67-2.48C122.3,115,125.16,109.73,120.06,108.93Z"/><ellipse class="cls-15" cx="129.12" cy="112.23" rx="8.62" ry="4.81"/><ellipse class="cls-2" cx="129.12" cy="112.98" rx="8.62" ry="4.81"/><rect class="cls-2" x="126.31" y="105.94" width="5.61" height="5.61"/><g class="cls-16"><ellipse class="cls-17" cx="129.02" cy="106.06" rx="4.23" ry="2.26"/></g><circle class="cls-18" cx="115.1" cy="95.32" r="3.75"/><circle class="cls-18" cx="143.14" cy="95.32" r="3.75"/><path class="cls-2" d="M144,88.45c0-10.47-6.66-15.84-14.88-15.84S114.23,78,114.23,88.45a30.85,30.85,0,0,0,1.24,9.29,4.22,4.22,0,0,0-.71,2.29c0,4.08,6.43,7.38,14.36,7.38s14.36-3.3,14.36-7.38a4.24,4.24,0,0,0-.69-2.25A31.36,31.36,0,0,0,144,88.45Z"/><g class="cls-19"><path class="cls-20" d="M113.86,94.9a86.55,86.55,0,0,1,2.59-10.74c1.7-5.33,6.9-2.45,12.67-2.45V69.5H111.34l-.59,24.83Z"/><path class="cls-20" d="M144.35,94.9a86.55,86.55,0,0,0-2.59-10.74c-1.7-5.33-6.9-2.45-12.67-2.45V69.5h17.78l.59,24.83Z"/></g><ellipse class="cls-21" cx="129.12" cy="97.64" rx="3.16" ry="1.48"/><ellipse class="cls-22" cx="120.53" cy="94.08" rx="3.45" ry="4.34"/><path d="M120.53,91.56a1.9,1.9,0,0,0-.25,0,1.31,1.31,0,0,1,.53,1A1.34,1.34,0,0,1,119.46,94a1.32,1.32,0,0,1-1.29-1.07,2.76,2.76,0,1,0,5.12,1.42A2.77,2.77,0,0,0,120.53,91.56Z"/><ellipse class="cls-22" cx="137.71" cy="94.08" rx="3.45" ry="4.34"/><path d="M137.71,91.56a1.9,1.9,0,0,0-.25,0,1.31,1.31,0,0,1,.53,1A1.34,1.34,0,0,1,136.64,94a1.32,1.32,0,0,1-1.29-1.07,2.75,2.75,0,1,0,2.36-1.35Z"/><path class="cls-23" d="M117.81,88.5s2.18-2,5.93,0C123.74,88.5,120.43,84.21,117.81,88.5Z"/><path class="cls-23" d="M140.42,88.5s-2.18-2-5.93,0C134.49,88.5,137.81,84.21,140.42,88.5Z"/><path class="cls-24" d="M124,101.27s-.16,4.39,5.12,4.39,5.18-4.38,5.18-4.38l-4.79-.18Z"/><path class="cls-3" d="M124.36,101.46a15.31,15.31,0,0,0,4.7.63,16.1,16.1,0,0,0,4.77-.63s-.43,3.23-4.74,3.23S124.36,101.46,124.36,101.46Z"/><g class="cls-25"><ellipse class="cls-22" cx="129.09" cy="100.97" rx="4.13" ry="2.11"/><ellipse class="cls-26" cx="129.09" cy="105.94" rx="4.13" ry="2.11"/></g><path class="cls-24" d="M124,101.27a41,41,0,0,1,10.3,0,14.05,14.05,0,0,1-5.35.81C125.35,102.09,124,101.27,124,101.27Z"/><ellipse class="cls-2" cx="120.99" cy="98.55" rx="3.39" ry="1.26"/><ellipse class="cls-2" cx="137.25" cy="98.55" rx="3.39" ry="1.26"/><path class="cls-4" d="M141.46,133a114.8,114.8,0,0,0-1.25-16,38.75,38.75,0,0,0-.2-7.12c0-.41-1-.88-1-.88l-5.85-1a4.51,4.51,0,0,1-4.33,4.17,4.33,4.33,0,0,1-4.31-4l-5.77.8s-.93.47-1,.88a39.16,39.16,0,0,0-.07,9,106.21,106.21,0,0,0-1,14.15s-.56,1.34,3.13.86a75,75,0,0,1,9-.34h.24a77.07,77.07,0,0,1,9.13.34C142,134.33,141.46,133,141.46,133Z"/><g class="cls-27"><path class="cls-28" d="M122.88,106.68c-.14.32,0,7.13,6.24,7.13s6.12-8.88,6.12-8.88Z"/></g><path class="cls-2" d="M108.29,130.6l-2.13-1.24a.9.9,0,0,1-.31-1.23l5.09-8.38,3.92,2.38-5.34,8.17A.9.9,0,0,1,108.29,130.6Z"/><path class="cls-2" d="M109.48,130.1s-.17,3.65-.73,4.23-1.41.73-1.3-1.46c0,0-.17-.3-.38,0a13.59,13.59,0,0,0-1,3.44s0,.71-.83.46-.94-2.67-.83-4.8a10.39,10.39,0,0,1,1.77-4.49,2.29,2.29,0,0,1,2.35.4A2.53,2.53,0,0,1,109.48,130.1Z"/><path class="cls-5" d="M107.27,129.2h12.27a0,0,0,0,1,0,0v11a4.73,4.73,0,0,1-4.73,4.73H112a4.73,4.73,0,0,1-4.73-4.73v-11a0,0,0,0,1,0,0Z" transform="translate(20.92 -14.9) rotate(8.28)"/><g class="cls-29"><rect class="cls-30" x="103.71" y="125.01" width="0.82" height="21.38" transform="translate(20.63 -13.58) rotate(8.28)"/><rect class="cls-30" x="108.34" y="125.69" width="0.82" height="21.38" transform="translate(20.78 -14.24) rotate(8.28)"/><rect class="cls-30" x="112.97" y="126.36" width="0.82" height="21.38" transform="translate(20.92 -14.9) rotate(8.28)"/><rect class="cls-30" x="117.6" y="127.03" width="0.82" height="21.38" transform="translate(21.07 -15.56) rotate(8.28)"/><rect class="cls-30" x="122.23" y="127.71" width="0.82" height="21.38" transform="translate(21.21 -16.22) rotate(8.28)"/><path class="cls-30" d="M127.17,135.17c-4.19-.32-8.63-.79-13.31-1.47s-9-1.49-13.12-2.37l.14-1c4,.92,8.41,1.77,13.11,2.45s9.18,1.13,13.32,1.4Z"/><path class="cls-30" d="M126.72,138.26c-4.18-.32-8.63-.8-13.31-1.48s-9-1.49-13.12-2.37l.14-1c4,.93,8.41,1.77,13.11,2.45s9.18,1.13,13.32,1.4Z"/><path class="cls-30" d="M126.27,141.34c-4.18-.32-8.63-.79-13.31-1.47s-9-1.49-13.12-2.38l.14-1c4,.92,8.41,1.76,13.11,2.45s9.18,1.13,13.32,1.39Z"/><path class="cls-30" d="M125.82,144.42c-4.18-.31-8.63-.79-13.3-1.47s-9-1.49-13.12-2.37l.13-1c4,.92,8.41,1.77,13.11,2.45s9.18,1.13,13.32,1.4Z"/><rect class="cls-31" x="106.24" y="128.39" width="16.72" height="3.1" transform="translate(19.91 -15.15) rotate(8.28)"/></g><rect class="cls-6" x="107.28" y="128.21" width="14.84" height="2.58" rx="1.29" transform="translate(19.85 -15.17) rotate(8.28)"/><g class="cls-32"><rect class="cls-33" x="105.39" y="126.41" width="20.2" height="2.44" transform="translate(19.59 -15.3) rotate(8.28)"/></g><path class="cls-34" d="M114.36,128s12.78-9.79,21.41-20.21a.71.71,0,0,1,.81-.21l.82.4a.67.67,0,0,1,.2.94c-1.21,1.84-4.25,8.28-21.32,20.44Z"/><circle class="cls-35" cx="114.48" cy="129.53" r="2.44"/><circle class="cls-36" cx="114.48" cy="129.53" r="1.31"/></svg>