<svg id="Layer_5" data-name="Layer 5" xmlns="http://www.w3.org/2000/svg" xmlns:xlink="http://www.w3.org/1999/xlink" viewBox="0 0 260 168"><defs><style>.cls-1{fill:#c5ddd7;}.cls-2{fill:#d6eae6;}.cls-3{fill:#a8651d;}.cls-4{fill:#fff;}.cls-5{fill:#f43434;}.cls-6{fill:#d18830;}.cls-7{fill:#893e00;}.cls-8{fill:#ffe33b;}.cls-9{fill:#4932ce;}.cls-10{fill:#7a3501;}.cls-11{fill:#e22b2b;}.cls-12{fill:#a05e1d;}.cls-13{clip-path:url(#clip-path);}.cls-14{fill:#aecec5;}.cls-14,.cls-18{opacity:0.44;}.cls-15{fill:#f49c00;}.cls-16{fill:#f28f00;}.cls-17{clip-path:url(#clip-path-2);}.cls-18{fill:#bcd8d1;}.cls-19{fill:#c0e2da;}.cls-20{fill:#bc1d1d;}.cls-21{clip-path:url(#clip-path-3);}.cls-22{fill:#935212;opacity:0.46;}.cls-23{fill:#590b0b;}.cls-24{fill:#ea4747;}.cls-25{clip-path:url(#clip-path-4);}.cls-26{fill:#914e0c;}.cls-27{clip-path:url(#clip-path-5);}.cls-28{fill:#562b04;}.cls-29{fill:#8c4b10;}.cls-30{fill:#935115;}.cls-31{clip-path:url(#clip-path-6);}.cls-32{fill:#d62525;}.cls-33{clip-path:url(#clip-path-7);}.cls-34{fill:#ea9c3f;}.cls-35{fill:#af6822;opacity:0.42;}.cls-36{clip-path:url(#clip-path-8);}.cls-37{fill:#d67422;}</style><clipPath id="clip-path"><path class="cls-1" d="M69,113.36c.49.7,5.08,11.65,5.88,15.64a1.1,1.1,0,0,0,1.55.79c1.41-.65,4.06-.47,8-2,.72-.28,1.29-.82,1.15-1.57l-1-10.76-.75-6.6Z"/></clipPath><clipPath id="clip-path-2"><path class="cls-2" d="M69.55,109.75c.13.84-.62,12.69-1.67,16.62a1.11,1.11,0,0,0,1,1.4c1.55,0,3.85,1.37,8.1,1.73a1.48,1.48,0,0,0,1.73-.9l3.84-10.1,2.25-6.25Z"/></clipPath><clipPath id="clip-path-3"><polygon class="cls-3" points="75.34 94.2 80.47 94.3 80.55 88.5 75.79 88.5 75.34 94.2"/></clipPath><clipPath id="clip-path-4"><path class="cls-3" d="M80.61,89.32A20,20,0,0,0,88,81.7l-.15,0a3.47,3.47,0,0,1-2.9-1.08c3.73.16,3.8-1.31,3.8-1.31a4.2,4.2,0,0,0-.53-2.8A4,4,0,0,0,86.51,75a28.22,28.22,0,0,0-3.6-7.86c-5.16-8.19-13-9.11-19.44-5.06s-9.84,12.13-4.68,20.31a16.42,16.42,0,0,0,18.78,8.21,8.52,8.52,0,0,0,2.69-1.09Z"/></clipPath><clipPath id="clip-path-5"><ellipse class="cls-4" cx="80.76" cy="74.67" rx="3.19" ry="4.01" transform="translate(-27.37 54.56) rotate(-32.22)"/></clipPath><clipPath id="clip-path-6"><path class="cls-5" d="M75.2,92.05s9.63,6.71,6.83,1.84a17.9,17.9,0,0,1,3.28,7.89c.49,4.27,1.42,11.5,1.87,13.12s-2.44,2.82-6,3.19-12,1-13.52-2.91.93-16.83,2.71-21.09a1.63,1.63,0,0,1,1.27-1c.48-.08,1.13-.21,1.88-.41C74,92.54,74.56,92,75.2,92.05Z"/></clipPath><clipPath id="clip-path-7"><path class="cls-6" d="M63.47,112.65s-3.29,10,.7,12.74,15.19,2.65,18.48-.15.25-12.59.25-12.59Z"/></clipPath><clipPath id="clip-path-8"><rect class="cls-7" x="62.29" y="110.49" width="22.15" height="2.93" rx="1.47"/></clipPath></defs><path class="cls-8" d="M62.21,111.78a3.49,3.49,0,0,0-.2-1.6h-.67a3.32,3.32,0,0,0-.21,1.6,3.27,3.27,0,0,0,.21,1.59H62A3.43,3.43,0,0,0,62.21,111.78Z"/><path class="cls-9" d="M63.11,111.78a5.38,5.38,0,0,0-.32-2.54H61.72c-.18,0-.32,1.14-.32,2.55s.14,2.54.32,2.54h1.07A5.44,5.44,0,0,0,63.11,111.78Z"/><path class="cls-10" d="M70.18,93.65a32.53,32.53,0,0,0-6.41,17.84l-1.4.38S61.5,100.79,70.18,93.65Z"/><path class="cls-3" d="M84.39,96.94l5.76-7.67a1.75,1.75,0,0,0-.35-2.48,3.52,3.52,0,0,0-2-.54,1.24,1.24,0,0,0-1.08.53l-5.49,8Z"/><path class="cls-11" d="M81.16,98.74a3.4,3.4,0,0,0,2.73-.59,23.87,23.87,0,0,0,5.33-5.44l.69-.58s.76-1.44-2.62-3.51c-1.4-.86-3.15-1.89-4.25-.59-.31.37-1.3,1.66-1.67,2.2C79.42,93,76.5,97.73,81.16,98.74Z"/><path class="cls-3" d="M93.21,79.41l1.9,1.27a.82.82,0,0,1,.21,1.14l-5.15,7.46-3.49-2.42,5.38-7.24A.83.83,0,0,1,93.21,79.41Z"/><path class="cls-3" d="M91.72,75.24a1.68,1.68,0,0,1,0-.74.61.61,0,0,1,.55-.43c.36,0,.53.45.62.8L93.46,77c.29-.19.2-.76.54-.86a.62.62,0,0,1,.27,0,4.41,4.41,0,0,1,2.87,2.34,1.36,1.36,0,0,1,.17.55,1.48,1.48,0,0,1-.23.79,3.69,3.69,0,0,1-2.51,2A2.15,2.15,0,0,1,92,80C92,78.37,91.88,76.84,91.72,75.24Z"/><path class="cls-3" d="M93.77,76.39A12.07,12.07,0,0,1,95,73.27c.11-.21.27-.44.51-.44a.44.44,0,0,1,.38.37,1.2,1.2,0,0,1-.06.56,13.74,13.74,0,0,1-1.2,3.38c-.07.13-.29.14-.43.2a.26.26,0,0,1-.37-.13"/><path class="cls-3" d="M95,76.74a11.81,11.81,0,0,1,1.38-3c.12-.2.29-.42.53-.4a.44.44,0,0,1,.36.38,1.2,1.2,0,0,1-.09.56,14,14,0,0,1-1.39,3.31c-.08.12-.3.12-.44.17a.27.27,0,0,1-.37-.14"/><path class="cls-3" d="M95.87,77.74a12,12,0,0,1,1.57-2.95c.14-.2.32-.41.56-.37a.44.44,0,0,1,.33.4,1.23,1.23,0,0,1-.12.56,13.56,13.56,0,0,1-1.6,3.21c-.09.12-.31.1-.45.14a.27.27,0,0,1-.36-.17"/><path class="cls-3" d="M96.25,79a10.57,10.57,0,0,1,1.68-2.47c.13-.15.32-.32.52-.27a.4.4,0,0,1,.26.39,1.19,1.19,0,0,1-.16.48,12.61,12.61,0,0,1-1.73,2.69c-.09.1-.28.06-.41.09a.25.25,0,0,1-.31-.19"/><path class="cls-12" d="M78.89,124.44l.49,12.84a6.27,6.27,0,0,0,5.05-.24l.32-12.82a3,3,0,0,0-5.86.22Z"/><path class="cls-1" d="M69,113.36c.49.7,5.08,11.65,5.88,15.64a1.1,1.1,0,0,0,1.55.79c1.41-.65,4.06-.47,8-2,.72-.28,1.29-.82,1.15-1.57l-1-10.76-.75-6.6Z"/><g class="cls-13"><path class="cls-14" d="M80.14,127.76A17.55,17.55,0,0,0,87,125.17a9.49,9.49,0,0,1,.46,2.24.42.42,0,0,1,0,.25.4.4,0,0,1-.22.14A67.15,67.15,0,0,1,74.68,131c-.29.05-.66.06-.82-.19a.76.76,0,0,1-.07-.45c.09-1.48.53-1.83,2-2.16A43,43,0,0,1,80.14,127.76Z"/></g><path class="cls-15" d="M89.2,140.18a5.28,5.28,0,0,1,1.83.48,1,1,0,0,1,.28,1s-.59.79-5.86.59-6.74-.81-6.74-.81-.28-.22,0-1.22S89.2,140.18,89.2,140.18Z"/><path class="cls-12" d="M84.54,136.89s3.92,2,4.7,2.28,1.42.42,1.27,1.24-1.89.68-3.51.66-7.11.27-7.83-1.08.56-3.86.56-3.86A4.1,4.1,0,0,1,84.54,136.89Z"/><path class="cls-16" d="M87.41,141.12s.38-2.05,1.21-2.27a1.12,1.12,0,0,0-.82-.42,4.07,4.07,0,0,0-1.07,2.68S86.87,141.34,87.41,141.12Z"/><path class="cls-2" d="M85.11,115.7s-.22,5.76-4.41,6.24-10.86,2.6-12.21-6.76Z"/><path class="cls-3" d="M70.83,122.66l-6.28,11.2A6.25,6.25,0,0,0,69,136.3l7-10.77a3,3,0,0,0-5.12-2.87Z"/><path class="cls-2" d="M69.55,109.75c.13.84-.62,12.69-1.67,16.62a1.11,1.11,0,0,0,1,1.4c1.55,0,3.85,1.37,8.1,1.73a1.48,1.48,0,0,0,1.73-.9l3.84-10.1,2.25-6.25Z"/><g class="cls-17"><path class="cls-18" d="M73.16,127.6a17.48,17.48,0,0,0,7.33.73,9.94,9.94,0,0,1-.58,2.22.39.39,0,0,1-.14.21.39.39,0,0,1-.26,0,67.12,67.12,0,0,1-12.69-2.68c-.28-.09-.62-.24-.65-.53a.78.78,0,0,1,.13-.44c.74-1.29,1.29-1.4,2.73-1.06A43.46,43.46,0,0,1,73.16,127.6Z"/></g><rect class="cls-19" x="70.89" y="121.72" width="6.53" height="4.78" rx="0.95" transform="translate(118.61 261.68) rotate(-167.05)"/><path class="cls-15" d="M71.61,141.36A5.26,5.26,0,0,1,73,142.61a1,1,0,0,1-.21,1s-.89.43-5.49-2.15-5.62-3.81-5.62-3.81-.15-.31.56-1.08S71.61,141.36,71.61,141.36Z"/><path class="cls-3" d="M69,136.3s2.59,3.54,3.14,4.17,1.07,1,.56,1.69-2-.26-3.43-1-6.44-3-6.47-4.54S65,133.42,65,133.42A4.11,4.11,0,0,1,69,136.3Z"/><path class="cls-16" d="M69.59,141.37s1.28-1.65,2.11-1.46a1.07,1.07,0,0,0-.53-.76,4.05,4.05,0,0,0-2.18,1.9S69,141.32,69.59,141.37Z"/><path class="cls-20" d="M82,93.89s-2.51-2.49-7.25-1.79L75.59,96l7.29,1.78S83.13,94.87,82,93.89Z"/><polygon class="cls-3" points="75.34 94.2 80.47 94.3 80.55 88.5 75.79 88.5 75.34 94.2"/><g class="cls-21"><ellipse class="cls-22" cx="78.84" cy="89.64" rx="2.43" ry="4.37" transform="translate(-24.04 150.19) rotate(-79.14)"/></g><path class="cls-3" d="M82.51,95s-2.25-2.48-7.41-2.42l1.48,5.29,6.79.3Z"/><path class="cls-23" d="M87.89,80a7.85,7.85,0,0,0-.18,1.76s-2.45-.16-2.91-1.12Z"/><path class="cls-4" d="M88.3,80a2.53,2.53,0,0,1-.18.68,3.79,3.79,0,0,1-3.11,0l1.78-.49Z"/><ellipse class="cls-24" cx="86.23" cy="82.15" rx="1.02" ry="1.26" transform="translate(-28.95 112.42) rotate(-58.34)"/><path class="cls-3" d="M80.61,89.32A20,20,0,0,0,88,81.7l-.15,0a3.47,3.47,0,0,1-2.9-1.08c3.73.16,3.8-1.31,3.8-1.31a4.2,4.2,0,0,0-.53-2.8A4,4,0,0,0,86.51,75a28.22,28.22,0,0,0-3.6-7.86c-5.16-8.19-13-9.11-19.44-5.06s-9.84,12.13-4.68,20.31a16.42,16.42,0,0,0,18.78,8.21,8.52,8.52,0,0,0,2.69-1.09Z"/><g class="cls-25"><path class="cls-26" d="M72.38,80s-5-9.41-2.22-12.53,4.67-2,7.11-3.15a7.2,7.2,0,0,0,3.27-2.73L73.71,50.71,47.24,67.39,59.52,89.87l2.64,2.77c2.23.56,6-.69,8-4.46A20.87,20.87,0,0,0,72.38,80Z"/></g><ellipse class="cls-4" cx="80.76" cy="74.67" rx="3.19" ry="4.01" transform="translate(-27.37 54.56) rotate(-32.22)"/><g class="cls-27"><path d="M79.18,70.79l.21-.1a1.17,1.17,0,0,0,.1,1.07,1.23,1.23,0,0,0,2.2-1.09,2.55,2.55,0,1,1-2.51.12Z"/></g><path class="cls-28" d="M80.14,69s-2.68-.47-4.64,2.92C75.5,71.89,76,66.9,80.14,69Z"/><ellipse class="cls-3" cx="82.6" cy="78.39" rx="3.13" ry="1.16" transform="matrix(0.85, -0.53, 0.53, 0.85, -29.07, 56.11)"/><path class="cls-3" d="M86.07,73.58a2.1,2.1,0,0,0,1.47.94c1,.11,1.18,1-.37,2.15S83.85,72,86.07,73.58Z"/><path class="cls-29" d="M88.85,79.25a.78.78,0,0,1-.49,1c-.74.32-2.75.86-3.78.24A7,7,0,0,0,86.37,80C87.31,79.58,88.49,78.74,88.85,79.25Z"/><path class="cls-30" d="M84.93,80.58a4.19,4.19,0,0,0,1.9.91c1.08.19,1.09-.08,1.28.26s-.26,1-1.61.49a3.8,3.8,0,0,1-1.92-1.77S84.88,80.43,84.93,80.58Z"/><circle class="cls-3" cx="70.96" cy="82.2" r="3.47"/><path class="cls-5" d="M75.2,92.05s9.63,6.71,6.83,1.84a17.9,17.9,0,0,1,3.28,7.89c.49,4.27,1.42,11.5,1.87,13.12s-2.44,2.82-6,3.19-12,1-13.52-2.91.93-16.83,2.71-21.09a1.63,1.63,0,0,1,1.27-1c.48-.08,1.13-.21,1.88-.41C74,92.54,74.56,92,75.2,92.05Z"/><g class="cls-31"><path class="cls-32" d="M73.34,92S85,103.59,82.78,93.29l-6.91-2.35Z"/></g><path class="cls-8" d="M84.21,111.78a3.49,3.49,0,0,1,.2-1.6h.67c.12,0,.21.72.21,1.6s-.09,1.59-.21,1.59h-.67A3.43,3.43,0,0,1,84.21,111.78Z"/><path class="cls-9" d="M83.31,111.78a5.53,5.53,0,0,1,.32-2.54H84.7c.18,0,.32,1.14.32,2.55s-.14,2.54-.32,2.54H83.63A5.59,5.59,0,0,1,83.31,111.78Z"/><path class="cls-10" d="M83.29,110.51s1.09-11.79-.41-15.35l.53.3s2.43,5.43.91,15.82Z"/><path class="cls-6" d="M63.47,112.65s-3.29,10,.7,12.74,15.19,2.65,18.48-.15.25-12.59.25-12.59Z"/><g class="cls-33"><rect class="cls-34" x="64.09" y="109.48" width="0.77" height="19.87"/><rect class="cls-34" x="68.44" y="109.48" width="0.77" height="19.87"/><rect class="cls-34" x="72.79" y="109.48" width="0.77" height="19.87"/><rect class="cls-34" x="77.14" y="109.48" width="0.77" height="19.87"/><rect class="cls-34" x="81.49" y="109.48" width="0.77" height="19.87"/><path class="cls-34" d="M85.6,115.85c-3.89.26-8,.42-12.43.42s-8.52-.16-12.39-.42V115c3.83.31,8,.5,12.39.5s8.59-.19,12.43-.5Z"/><path class="cls-34" d="M85.6,118.74c-3.89.27-8,.43-12.43.43s-8.52-.16-12.39-.43v-.9c3.83.31,8,.5,12.39.5s8.59-.19,12.43-.5Z"/><path class="cls-34" d="M85.6,121.64c-3.89.27-8,.43-12.43.42s-8.52-.15-12.39-.42v-.9c3.83.31,8,.5,12.39.5s8.59-.19,12.43-.5Z"/><path class="cls-34" d="M85.6,124.54c-3.89.26-8,.42-12.43.42s-8.52-.16-12.39-.42v-.9c3.83.31,8,.5,12.39.5s8.59-.19,12.43-.5Z"/><rect class="cls-35" x="61.02" y="110.66" width="25.43" height="3.5"/></g><rect class="cls-7" x="62.29" y="110.49" width="22.15" height="2.93" rx="1.47"/><g class="cls-36"><rect class="cls-37" x="61.29" y="109.42" width="23.84" height="1.53"/></g><path class="cls-3" d="M69.49,95.43l-3.87,8.77a1.75,1.75,0,0,0,.91,2.34,3.59,3.59,0,0,0,2,.08,1.26,1.26,0,0,0,.93-.77l3.53-9Z"/><path class="cls-5" d="M72.22,92.93a3.46,3.46,0,0,0-2.52,1.2,23.8,23.8,0,0,0-4,6.51l-.54.72s-.42,1.58,3.35,2.83c1.56.52,3.5,1.12,4.27-.4.22-.43.89-1.91,1.13-2.52C75.21,98.09,77,92.86,72.22,92.93Z"/><path class="cls-3" d="M64.88,114.5l-2.13-.8a.82.82,0,0,1-.47-1.07l3.32-8.43,4,1.56L66,114A.82.82,0,0,1,64.88,114.5Z"/><path class="cls-3" d="M65.89,113.85s.41,3.36,0,4-1.17.89-1.41-1.13c0,0-.21-.24-.34.11a12.15,12.15,0,0,0-.35,3.27s.07.66-.68.56-1.27-2.29-1.51-4.24a9.57,9.57,0,0,1,.92-4.37,2.09,2.09,0,0,1,2.2,0A2.33,2.33,0,0,1,65.89,113.85Z"/></svg>