<svg id="Layer_3" data-name="Layer 3" xmlns="http://www.w3.org/2000/svg" xmlns:xlink="http://www.w3.org/1999/xlink" viewBox="0 0 260 168"><defs><style>.cls-1{fill:none;}.cls-2{fill:#ffe33b;}.cls-3{fill:#4932ce;}.cls-4{fill:#7a3501;}.cls-5{fill:#a8651d;}.cls-6{fill:#fcd212;}.cls-7{fill:#f6b019;}.cls-8{fill:#bc6828;}.cls-9{fill:#43720c;}.cls-10{clip-path:url(#clip-path);}.cls-11{fill:#e22b2b;}.cls-12{fill:#a05e1d;}.cls-13{fill:#c5ddd7;}.cls-14{clip-path:url(#clip-path-2);}.cls-15{fill:#aecec5;}.cls-15,.cls-20{opacity:0.44;}.cls-15,.cls-20,.cls-24,.cls-39{isolation:isolate;}.cls-16{fill:#f49c00;}.cls-17{fill:#f28f00;}.cls-18{fill:#d6eae6;}.cls-19{clip-path:url(#clip-path-3);}.cls-20{fill:#bcd8d1;}.cls-21{fill:#c0e2da;}.cls-22{fill:#bc1d1d;}.cls-23{clip-path:url(#clip-path-4);}.cls-24{fill:#935212;opacity:0.46;}.cls-25{fill:#590b0b;}.cls-26{fill:#fff;}.cls-27{clip-path:url(#clip-path-5);}.cls-28{fill:#914e0c;}.cls-29{clip-path:url(#clip-path-6);}.cls-30{fill:#562b04;}.cls-31{fill:#8c4b10;}.cls-32{fill:#935115;}.cls-33{fill:#f43434;}.cls-34{clip-path:url(#clip-path-7);}.cls-35{fill:#d62525;}.cls-36{fill:#d18830;}.cls-37{clip-path:url(#clip-path-8);}.cls-38{fill:#ea9c3f;}.cls-39{fill:#af6822;opacity:0.42;}.cls-40{fill:#893e00;}.cls-41{clip-path:url(#clip-path-9);}.cls-42{fill:#d67422;}</style><clipPath id="clip-path"><path class="cls-1" d="M214.09,113.81a2.93,2.93,0,0,0,.14-1.87s-2.09,1.21-1.23,2.92a2.21,2.21,0,0,0,1.09-1"/></clipPath><clipPath id="clip-path-2"><path class="cls-1" d="M190.59,128.65a73.2,73.2,0,0,1,4.13,11,.78.78,0,0,0,.91.62l.18-.06c1-.46,2.84-.34,5.63-1.43.51-.2.91-.58.81-1.11l-.73-7.55-.53-4.63Z"/></clipPath><clipPath id="clip-path-3"><path class="cls-1" d="M190.61,126.77a72.63,72.63,0,0,1,1,11.69.79.79,0,0,0,.72.84h.18c1.07-.18,2.83.44,5.81.14a1.07,1.07,0,0,0,1.08-.85l1.34-7.47.74-4.6Z"/></clipPath><clipPath id="clip-path-4"><polygon class="cls-1" points="195.06 115.2 198.66 115.27 198.71 111.2 195.37 111.2 195.06 115.2"/></clipPath><clipPath id="clip-path-5"><path class="cls-1" d="M198.25,112.49a14,14,0,0,0,6.05-4.34h-.1a2.47,2.47,0,0,1-1.87-1.11c2.56.58,2.79-.43,2.79-.43a2.87,2.87,0,0,0,0-2,2.81,2.81,0,0,0-1-1.21,20,20,0,0,0-1.5-5.88c-2.54-6.3-7.85-7.92-12.8-5.93S181.51,98.69,184,105a11.54,11.54,0,0,0,12,8,5.72,5.72,0,0,0,2-.42Z"/></clipPath><clipPath id="clip-path-6"><ellipse class="cls-1" cx="200.19" cy="102.39" rx="2.24" ry="2.82" transform="translate(-23.75 82.18) rotate(-21.93)"/></clipPath><clipPath id="clip-path-7"><path class="cls-1" d="M195,113.69s6.76,4.71,4.79,1.3a12.49,12.49,0,0,1,2.31,5.53c.34,3,1,8.08,1.3,9.21s-1.71,2-4.24,2.24-8.4.74-9.48-2,.65-11.82,1.9-14.81a1.16,1.16,0,0,1,.89-.7c.34-.06.79-.15,1.32-.29A2.44,2.44,0,0,1,195,113.69Z"/></clipPath><clipPath id="clip-path-8"><path class="cls-1" d="M186.72,128.16s-2.31,7.05.49,8.94,10.66,1.86,13-.11.17-8.83.17-8.83Z"/></clipPath><clipPath id="clip-path-9"><path class="cls-1" d="M186.92,126.64h13.49a1,1,0,0,1,1,1h0a1,1,0,0,1-1,1H186.92a1,1,0,0,1-1-1h0A1,1,0,0,1,186.92,126.64Z"/></clipPath></defs><path class="cls-2" d="M185.83,127.54a2.38,2.38,0,0,0-.14-1.12h-.47a4.47,4.47,0,0,0,0,2.24h.47A2.38,2.38,0,0,0,185.83,127.54Z"/><path class="cls-3" d="M186.47,127.54a3.74,3.74,0,0,0-.23-1.78h-.74c-.13,0-.23.79-.23,1.78s.1,1.79.23,1.79h.74A3.76,3.76,0,0,0,186.47,127.54Z"/><path class="cls-4" d="M191.43,114.82a22.78,22.78,0,0,0-4.5,12.52l-1,.27S185.34,119.82,191.43,114.82Z"/><path class="cls-5" d="M208.82,119l.84,1.37a.57.57,0,0,1-.19.78h0L204,124.35l-1.51-2.57,5.56-3a.56.56,0,0,1,.76.21Z"/><path class="cls-5" d="M209.1,115.86a1.35,1.35,0,0,1,.24-.46.4.4,0,0,1,.48-.11c.22.12.2.44.16.69l-.28,1.51c.24,0,.35-.43.59-.39a.32.32,0,0,1,.17.09,3.17,3.17,0,0,1,1.15,2.34,1,1,0,0,1-.06.41.93.93,0,0,1-.38.43,2.57,2.57,0,0,1-2.2.54,1.5,1.5,0,0,1-1.14-1.77,1.55,1.55,0,0,1,.07-.23C208.35,117.91,208.75,116.9,209.1,115.86Z"/><path class="cls-5" d="M210.07,117.2a8.17,8.17,0,0,1,1.69-1.63c.13-.11.3-.21.45-.13a.32.32,0,0,1,.14.34.9.9,0,0,1-.2.34,9.43,9.43,0,0,1-1.77,1.8c-.08.06-.22,0-.33,0a.18.18,0,0,1-.2-.16v0"/><path class="cls-5" d="M210.76,117.79a8.73,8.73,0,0,1,1.78-1.54c.13-.09.31-.18.45-.1a.29.29,0,0,1,.12.35.83.83,0,0,1-.22.33,9.38,9.38,0,0,1-1.86,1.7h-.33c-.1,0-.22-.1-.2-.2"/><path class="cls-5" d="M211,118.68a8.1,8.1,0,0,1,1.87-1.42c.14-.08.32-.16.46-.07a.29.29,0,0,1,.09.36.81.81,0,0,1-.24.31,10.16,10.16,0,0,1-2,1.58h-.33a.18.18,0,0,1-.18-.2v0"/><path class="cls-5" d="M210.87,119.62a7.3,7.3,0,0,1,1.8-1.08c.13-.06.3-.11.41,0a.26.26,0,0,1,0,.33.82.82,0,0,1-.24.25,8.93,8.93,0,0,1-1.89,1.21.45.45,0,0,1-.29-.07c-.09-.07-.18-.11-.14-.2"/><path class="cls-6" d="M213.33,113.62a3.53,3.53,0,0,1,.62,4.19c-1,2-4.59,3.26-7.86,1.93a5,5,0,0,1-2.35-1.9,2.66,2.66,0,0,1-.3-2.87h0c.43-.63,1.26-.11,1.92-.28C207.47,114.12,210.47,110.8,213.33,113.62Z"/><path class="cls-7" d="M212.82,114.41a1,1,0,0,0,.62.78"/><path class="cls-8" d="M213.17,114.9a4.36,4.36,0,0,0,2.39-1.74.21.21,0,0,0-.05-.28h0a.21.21,0,0,0-.29.06h0a4,4,0,0,1-2.09,1.79.09.09,0,0,0,0,.13h0Z"/><path class="cls-9" d="M213.06,114.8s1.69-.59,1.17-2.86C214.23,111.94,212.19,113.1,213.06,114.8Z"/><g class="cls-10"><polygon class="cls-1" points="214.23 111.94 213.06 114.8 213.6 114.79 214.62 113.15 214.23 111.94"/></g><path class="cls-5" d="M198,118.86l4.36,5.13a1.22,1.22,0,0,0,1.73.16l0,0a2.54,2.54,0,0,0,.67-1.26.87.87,0,0,0-.2-.83L200,117Z"/><path class="cls-11" d="M196.88,116.1a2.41,2.41,0,0,0,0,2,16.77,16.77,0,0,0,2.9,4.49l.29.57s.87.74,2.81-1.25c.81-.83,1.78-1.87,1.06-2.82-.2-.27-.94-1.15-1.24-1.49C201.05,115.8,198.29,113.07,196.88,116.1Z"/><path class="cls-12" d="M197.55,136.43l.34,9a4.37,4.37,0,0,0,3.54-.16l.23-9a2.1,2.1,0,0,0-4.11.16Z"/><path class="cls-13" d="M190.59,128.65a73.2,73.2,0,0,1,4.13,11,.78.78,0,0,0,.91.62l.18-.06c1-.46,2.84-.34,5.63-1.43.51-.2.91-.58.81-1.11l-.73-7.55-.53-4.63Z"/><g class="cls-14"><path class="cls-15" d="M198.42,138.76a12,12,0,0,0,4.84-1.82,7,7,0,0,1,.33,1.58.25.25,0,0,1,0,.17.23.23,0,0,1-.15.1,47,47,0,0,1-8.82,2.27c-.2,0-.46,0-.57-.14a.56.56,0,0,1-.06-.31c.07-1,.38-1.29,1.39-1.52S197.4,138.89,198.42,138.76Z"/></g><path class="cls-16" d="M204.79,147.48a3.8,3.8,0,0,1,1.28.34.71.71,0,0,1,.2.72s-.42.55-4.12.41a16.75,16.75,0,0,1-4.73-.57s-.2-.15,0-.86S204.79,147.48,204.79,147.48Z"/><path class="cls-12" d="M201.51,145.17s2.76,1.38,3.3,1.6,1,.29.89.87-1.32.48-2.46.47-5,.18-5.5-.76.39-2.72.39-2.72A2.89,2.89,0,0,1,201.51,145.17Z"/><path class="cls-17" d="M203.53,148.14s.26-1.44.85-1.59a.78.78,0,0,0-.58-.3,2.86,2.86,0,0,0-.75,1.88S203.15,148.3,203.53,148.14Z"/><path class="cls-18" d="M201.91,130.3s-.15,4-3.1,4.38-7.62,1.82-8.56-4.75Z"/><path class="cls-5" d="M193.17,135.51l-2.88,8.55a4.42,4.42,0,0,0,3.37,1.1l3.42-8.33a2.11,2.11,0,0,0-3.91-1.32Z"/><path class="cls-18" d="M190.61,126.77a72.63,72.63,0,0,1,1,11.69.79.79,0,0,0,.72.84h.18c1.07-.18,2.83.44,5.81.14a1.07,1.07,0,0,0,1.08-.85l1.34-7.47.74-4.6Z"/><g class="cls-19"><path class="cls-20" d="M195.42,138.62a12.34,12.34,0,0,0,5.16-.44,7.15,7.15,0,0,1-.12,1.6.29.29,0,0,1-.07.16.35.35,0,0,1-.17.06,48.55,48.55,0,0,1-9.1-.2.52.52,0,0,1-.52-.29.55.55,0,0,1,0-.31c.34-1,.71-1.14,1.74-1.09S194.4,138.47,195.42,138.62Z"/></g><rect class="cls-21" x="193.98" y="133.78" width="3.36" height="4.58" rx="0.66" transform="translate(51.85 326.11) rotate(-87.7)"/><path class="cls-16" d="M196.14,148.31a3.83,3.83,0,0,1,1.13.68.72.72,0,0,1,0,.75s-.56.41-4.06-.77a15.94,15.94,0,0,1-4.38-1.9s-.14-.2.25-.82S196.14,148.31,196.14,148.31Z"/><path class="cls-5" d="M193.66,145.16s2.25,2.11,2.71,2.48.87.56.6,1.09-1.41.08-2.49-.26-4.84-1.24-5.06-2.29,1.15-2.49,1.15-2.49A2.89,2.89,0,0,1,193.66,145.16Z"/><path class="cls-17" d="M194.75,148.58s.66-1.3,1.26-1.28a.76.76,0,0,0-.46-.45,2.85,2.85,0,0,0-1.26,1.59S194.34,148.63,194.75,148.58Z"/><path class="cls-22" d="M199.75,115a6.11,6.11,0,0,0-5.09-1.26l.57,2.74,5.12,1.25S200.52,115.67,199.75,115Z"/><polygon class="cls-5" points="195.06 115.2 198.66 115.27 198.71 111.2 195.37 111.2 195.06 115.2"/><g class="cls-23"><ellipse class="cls-24" cx="196.91" cy="111.79" rx="1.7" ry="3.06" transform="translate(56.37 289.33) rotate(-81.22)"/></g><path class="cls-5" d="M200.09,115.75s-1.58-1.75-5.21-1.7l1.05,3.71,4.76.21Z"/><path class="cls-25" d="M204.45,107a5.43,5.43,0,0,0-.35,1.19s-1.67-.41-1.86-1.13Z"/><path class="cls-26" d="M204.73,107a1.85,1.85,0,0,1-.21.45,2.62,2.62,0,0,1-2.14-.4l1.29-.12Z"/><path class="cls-5" d="M198.25,112.49a14,14,0,0,0,6.05-4.34h-.1a2.47,2.47,0,0,1-1.87-1.11c2.56.58,2.79-.43,2.79-.43a2.87,2.87,0,0,0,0-2,2.81,2.81,0,0,0-1-1.21,20,20,0,0,0-1.5-5.88c-2.54-6.3-7.85-7.92-12.8-5.93S181.51,98.69,184,105a11.54,11.54,0,0,0,12,8,5.72,5.72,0,0,0,2-.42Z"/><g class="cls-27"><path class="cls-28" d="M193.74,105s-2.31-7.14,0-8.94,3.48-.79,5.31-1.28a5.11,5.11,0,0,0,2.6-1.47L198.33,85,178,93.16l5.66,17.07,1.48,2.24c1.47.67,4.26.28,6.06-2.08A14.61,14.61,0,0,0,193.74,105Z"/></g><ellipse class="cls-26" cx="200.19" cy="102.39" rx="2.24" ry="2.82" transform="translate(-23.75 82.18) rotate(-21.93)"/><g class="cls-29"><path d="M200.66,101.44h.15a.85.85,0,0,0-.06.76.86.86,0,0,0,1.65-.48,1.69,1.69,0,0,1,.59.76,1.79,1.79,0,1,1-2.33-1Z"/></g><path class="cls-30" d="M200.47,98.38s-1.79-.66-3.56,1.43C196.91,99.81,197.86,96.42,200.47,98.38Z"/><ellipse class="cls-5" cx="201" cy="105.19" rx="2.2" ry="0.82" transform="translate(-24.74 82.68) rotate(-21.93)"/><path class="cls-5" d="M204,102.31a1.48,1.48,0,0,0,.9.83c.65.2.68.86-.53,1.44S202.65,101,204,102.31Z"/><path class="cls-31" d="M205.21,106.57a.55.55,0,0,1-.47.62h0a3.67,3.67,0,0,1-2.64-.31,4.74,4.74,0,0,0,1.3-.12C204.1,106.6,205,106.17,205.21,106.57Z"/><path class="cls-32" d="M202.33,107a3.11,3.11,0,0,0,1.19.87c.73.26.77.08.86.34s-.31.67-1.18.13a2.68,2.68,0,0,1-1.1-1.46S202.31,106.89,202.33,107Z"/><circle class="cls-5" cx="192.47" cy="106.36" r="2.44"/><path class="cls-33" d="M195,113.69s6.76,4.71,4.79,1.3a12.49,12.49,0,0,1,2.31,5.53c.34,3,1,8.08,1.3,9.21s-1.71,2-4.24,2.24-8.4.74-9.48-2,.65-11.82,1.9-14.81a1.16,1.16,0,0,1,.89-.7c.34-.06.79-.15,1.32-.29A2.44,2.44,0,0,1,195,113.69Z"/><g class="cls-34"><path class="cls-35" d="M193.65,113.64s8.2,8.15,6.63.92l-4.85-1.65Z"/></g><path class="cls-2" d="M201.28,127.54a2.38,2.38,0,0,1,.15-1.12h.46c.08,0,.15.5.15,1.12s-.07,1.12-.15,1.12h-.46A2.38,2.38,0,0,1,201.28,127.54Z"/><path class="cls-3" d="M200.65,127.54a3.74,3.74,0,0,1,.23-1.78h.74c.13,0,.23.79.23,1.78s-.1,1.79-.23,1.79h-.74A3.76,3.76,0,0,1,200.65,127.54Z"/><path class="cls-4" d="M200.63,126.65s.77-8.27-.28-10.78l.37.22s1.71,3.81.64,11.1Z"/><path class="cls-36" d="M186.72,128.16s-2.31,7.05.49,8.94,10.66,1.86,13-.11.17-8.83.17-8.83Z"/><g class="cls-37"><rect class="cls-38" x="187.16" y="125.93" width="0.54" height="13.95"/><rect class="cls-38" x="190.21" y="125.93" width="0.54" height="13.95"/><rect class="cls-38" x="193.27" y="125.93" width="0.54" height="13.95"/><rect class="cls-38" x="196.32" y="125.93" width="0.54" height="13.95"/><rect class="cls-38" x="199.37" y="125.93" width="0.54" height="13.95"/><path class="cls-38" d="M202.26,130.4c-2.73.18-5.65.3-8.73.3s-6-.12-8.7-.3v-.63c2.69.21,5.6.35,8.7.35s6-.14,8.73-.35Z"/><path class="cls-38" d="M202.26,132.43c-2.73.19-5.65.3-8.73.3s-6-.11-8.7-.3v-.63c2.69.22,5.6.35,8.7.35s6-.13,8.73-.35Z"/><path class="cls-38" d="M202.26,134.47c-2.73.18-5.65.29-8.73.29s-6-.11-8.7-.29v-.64c2.69.22,5.6.35,8.7.35s6-.13,8.73-.35Z"/><path class="cls-38" d="M202.26,136.5c-2.73.19-5.65.3-8.73.3s-6-.11-8.7-.3v-.63c2.69.21,5.6.35,8.7.35s6-.13,8.73-.35Z"/><rect class="cls-39" x="185" y="126.75" width="17.85" height="2.45"/></g><path class="cls-40" d="M186.92,126.64h13.49a1,1,0,0,1,1,1h0a1,1,0,0,1-1,1H186.92a1,1,0,0,1-1-1h0A1,1,0,0,1,186.92,126.64Z"/><g class="cls-41"><rect class="cls-42" x="185.19" y="125.89" width="16.74" height="1.08"/></g><path class="cls-5" d="M190.3,116.21l-2.66,6.19a1.23,1.23,0,0,0,.64,1.63h0a2.52,2.52,0,0,0,1.44,0,1,1,0,0,0,.65-.55l2.41-6.38Z"/><path class="cls-33" d="M192.2,114.45a2.4,2.4,0,0,0-1.76.85,16.89,16.89,0,0,0-2.74,4.6l-.38.51s-.27,1.11,2.38,2c1.1.35,2.46.76,3-.31.15-.3.61-1.35.77-1.77C194.33,118.05,195.54,114.36,192.2,114.45Z"/><path class="cls-5" d="M189.59,130l1.59-.23a.59.59,0,0,0,.47-.67l-1-6.27-2.94.49,1.25,6.21A.59.59,0,0,0,189.59,130Z"/><path class="cls-5" d="M194.07,130.44a1.44,1.44,0,0,1,.35.39.44.44,0,0,1-.07.49c-.2.16-.49,0-.7-.1l-1.31-.81c-.06.24.27.48.14.69a.44.44,0,0,1-.14.13,3.16,3.16,0,0,1-2.6.21,1.1,1.1,0,0,1-.35-.2,1,1,0,0,1-.27-.51,2.63,2.63,0,0,1,.29-2.25,1.52,1.52,0,0,1,2.12-.37l.1.08A32.5,32.5,0,0,0,194.07,130.44Z"/><path class="cls-5" d="M192.48,130.86a8.58,8.58,0,0,1,.9,2.17c0,.16.08.35,0,.46a.3.3,0,0,1-.38,0,.73.73,0,0,1-.24-.31,9.71,9.71,0,0,1-1-2.29,1,1,0,0,1,.12-.32.18.18,0,0,1,.25-.11"/><path class="cls-5" d="M191.68,131.29a8.29,8.29,0,0,1,.77,2.21c0,.16.06.36-.06.46a.33.33,0,0,1-.38,0,.87.87,0,0,1-.22-.32,9.84,9.84,0,0,1-.9-2.35c0-.11.09-.21.13-.31a.19.19,0,0,1,.26-.1"/><path class="cls-5" d="M190.75,131.2a8.46,8.46,0,0,1,.64,2.26c0,.16,0,.36-.1.45a.29.29,0,0,1-.37,0,.81.81,0,0,1-.21-.34,9.56,9.56,0,0,1-.75-2.4c0-.11.11-.2.16-.3a.2.2,0,0,1,.25-.09h0"/><path class="cls-5" d="M189.93,130.72a7.67,7.67,0,0,1,.35,2.07c0,.14,0,.32-.13.39a.29.29,0,0,1-.33-.07.73.73,0,0,1-.15-.32,8.83,8.83,0,0,1-.43-2.21c0-.09.11-.16.17-.24a.16.16,0,0,1,.22-.07l0,0"/></svg>