<svg id="Layer_2" data-name="Layer 2" xmlns="http://www.w3.org/2000/svg" xmlns:xlink="http://www.w3.org/1999/xlink" viewBox="0 0 260 168"><defs><style>.cls-1{fill:#c5ddd7;}.cls-2{fill:#d6eae6;}.cls-3{fill:#a8651d;}.cls-4{fill:#fff;}.cls-5{fill:#f43434;}.cls-6{fill:#d18830;}.cls-7{fill:#893e00;}.cls-8{fill:#ffe33b;}.cls-9{fill:#4932ce;}.cls-10{fill:#7a3501;}.cls-11{fill:#e22b2b;}.cls-12{fill:#a05e1d;}.cls-13{clip-path:url(#clip-path);}.cls-14{fill:#aecec5;}.cls-14,.cls-18{opacity:0.44;}.cls-15{fill:#f49c00;}.cls-16{fill:#f28f00;}.cls-17{clip-path:url(#clip-path-2);}.cls-18{fill:#bcd8d1;}.cls-19{fill:#c0e2da;}.cls-20{fill:#bc1d1d;}.cls-21{clip-path:url(#clip-path-3);}.cls-22{fill:#935212;opacity:0.46;}.cls-23{fill:#590b0b;}.cls-24{fill:#ea4747;}.cls-25{clip-path:url(#clip-path-4);}.cls-26{fill:#914e0c;}.cls-27{clip-path:url(#clip-path-5);}.cls-28{fill:#562b04;}.cls-29{fill:#8c4b10;}.cls-30{fill:#935115;}.cls-31{clip-path:url(#clip-path-6);}.cls-32{fill:#d62525;}.cls-33{clip-path:url(#clip-path-7);}.cls-34{fill:#ea9c3f;}.cls-35{fill:#af6822;opacity:0.42;}.cls-36{clip-path:url(#clip-path-8);}.cls-37{fill:#d67422;}</style><clipPath id="clip-path"><path class="cls-1" d="M67.14,90c.49.7,5.08,11.66,5.87,15.65a1.11,1.11,0,0,0,1.56.79c1.4-.65,4.05-.48,8-2,.72-.29,1.3-.82,1.15-1.58L82.7,92,82,85.45Z"/></clipPath><clipPath id="clip-path-2"><path class="cls-2" d="M67.17,87.3c.28.81,1.74,12.6,1.43,16.65a1.1,1.1,0,0,0,1.28,1.18c1.53-.24,4,.64,8.28.21.77-.08,1.47-.44,1.54-1.21l1.9-10.64,1.06-6.55Z"/></clipPath><clipPath id="clip-path-3"><polygon class="cls-3" points="73.5 70.82 78.63 70.92 78.71 65.12 73.95 65.12 73.5 70.82"/></clipPath><clipPath id="clip-path-4"><path class="cls-3" d="M78.84,65.78a19.82,19.82,0,0,0,6.32-8.51l-.15,0a3.5,3.5,0,0,1-3-.69c3.72-.32,3.6-1.79,3.6-1.79a4.17,4.17,0,0,0-.89-2.71,4,4,0,0,0-1.86-1.21,28.58,28.58,0,0,0-4.59-7.33C72.07,36.08,64.16,36.18,58.32,41s-8.19,13.3-2,20.75A16.43,16.43,0,0,0,76,67.48a8.41,8.41,0,0,0,2.52-1.43Z"/></clipPath><clipPath id="clip-path-5"><ellipse class="cls-4" cx="77.09" cy="51.24" rx="3.19" ry="4.01" transform="translate(-14.96 61.02) rotate(-39.68)"/></clipPath><clipPath id="clip-path-6"><path class="cls-5" d="M73.36,68.67s9.62,6.71,6.83,1.85a18,18,0,0,1,3.28,7.88c.49,4.28,1.41,11.51,1.86,13.12s-2.44,2.83-6,3.2-12,1-13.51-2.92S66.71,75,68.49,70.71a1.68,1.68,0,0,1,1.27-1c.48-.08,1.13-.21,1.88-.41C72.16,69.16,72.72,68.64,73.36,68.67Z"/></clipPath><clipPath id="clip-path-7"><path class="cls-6" d="M61.63,89.28s-3.3,10,.7,12.74,15.18,2.64,18.48-.15.25-12.59.25-12.59Z"/></clipPath><clipPath id="clip-path-8"><rect class="cls-7" x="60.45" y="87.11" width="22.15" height="2.93" rx="1.47"/></clipPath></defs><path class="cls-8" d="M60.36,88.4a3.4,3.4,0,0,0-.2-1.59h-.67a3.33,3.33,0,0,0-.2,1.59c0,.88.09,1.6.21,1.6h.66A3.4,3.4,0,0,0,60.36,88.4Z"/><path class="cls-9" d="M61.26,88.4A5.64,5.64,0,0,0,61,85.86H59.88c-.18,0-.32,1.14-.32,2.54s.14,2.54.32,2.54H61A5.64,5.64,0,0,0,61.26,88.4Z"/><path class="cls-10" d="M68.33,70.28a32.43,32.43,0,0,0-6.4,17.83l-1.4.39S59.66,77.41,68.33,70.28Z"/><path class="cls-3" d="M82.24,73.9l5.87-7.58a1.76,1.76,0,0,0-.31-2.49,3.6,3.6,0,0,0-2-.57,1.26,1.26,0,0,0-1.09.52l-5.61,7.93Z"/><path class="cls-11" d="M79,75.66a3.44,3.44,0,0,0,2.74-.55,23.67,23.67,0,0,0,5.41-5.36l.71-.57s.78-1.43-2.57-3.55c-1.39-.88-3.13-1.94-4.25-.65-.31.36-1.32,1.64-1.7,2.17C77.33,69.93,74.34,74.58,79,75.66Z"/><path class="cls-3" d="M91.32,56.51,93.2,57.8A.82.82,0,0,1,93.39,59l-5.26,7.37-3.45-2.46,5.49-7.16A.82.82,0,0,1,91.32,56.51Z"/><path class="cls-3" d="M89.89,52.32a1.54,1.54,0,0,1,0-.74.57.57,0,0,1,.55-.42c.36,0,.53.45.61.8l.51,2.13c.3-.19.22-.76.56-.85a.63.63,0,0,1,.27,0,4.44,4.44,0,0,1,2.84,2.38A1.23,1.23,0,0,1,95.19,57a3.67,3.67,0,0,1-2.55,2A2.14,2.14,0,0,1,90.11,57C90.12,55.45,90,53.91,89.89,52.32Z"/><path class="cls-3" d="M91.92,53.49a11.75,11.75,0,0,1,1.26-3.1c.11-.21.27-.44.5-.43a.46.46,0,0,1,.38.37,1.18,1.18,0,0,1-.06.56,14.05,14.05,0,0,1-1.25,3.37c-.08.12-.3.13-.44.19a.28.28,0,0,1-.37-.13"/><path class="cls-3" d="M93.16,53.86a12.08,12.08,0,0,1,1.42-3c.13-.2.3-.42.54-.4a.44.44,0,0,1,.35.39,1.2,1.2,0,0,1-.09.56,14.15,14.15,0,0,1-1.44,3.28c-.09.13-.31.12-.45.17a.26.26,0,0,1-.36-.15"/><path class="cls-3" d="M94,54.87A11.91,11.91,0,0,1,95.62,52c.14-.2.33-.4.56-.37a.45.45,0,0,1,.33.42,1.34,1.34,0,0,1-.13.55,13.91,13.91,0,0,1-1.65,3.18c-.09.12-.31.1-.45.14a.27.27,0,0,1-.36-.17"/><path class="cls-3" d="M94.36,56.18a10.88,10.88,0,0,1,1.72-2.44c.14-.16.32-.32.53-.27a.41.41,0,0,1,.25.4,1.11,1.11,0,0,1-.17.47A12.26,12.26,0,0,1,94.92,57c-.09.1-.28.05-.41.08s-.3-.05-.3-.19"/><path class="cls-12" d="M77.05,101.07l.49,12.83a6.27,6.27,0,0,0,5-.23l.33-12.83a3,3,0,0,0-5.86.23Z"/><path class="cls-1" d="M67.14,90c.49.7,5.08,11.66,5.87,15.65a1.11,1.11,0,0,0,1.56.79c1.4-.65,4.05-.48,8-2,.72-.29,1.3-.82,1.15-1.58L82.7,92,82,85.45Z"/><g class="cls-13"><path class="cls-14" d="M78.29,104.38a17.24,17.24,0,0,0,6.9-2.59,10.1,10.1,0,0,1,.46,2.25.36.36,0,0,1,0,.25.39.39,0,0,1-.21.14,68.74,68.74,0,0,1-12.56,3.23c-.3,0-.66.06-.82-.2a.74.74,0,0,1-.08-.44c.09-1.49.53-1.84,2-2.17S76.84,104.57,78.29,104.38Z"/></g><path class="cls-15" d="M84.05,120.66a5.42,5.42,0,0,1,1.08,1.55,1,1,0,0,1-.46,1s-1,.21-4.83-3.37-4.57-5-4.57-5-.07-.34.8-.91S84.05,120.66,84.05,120.66Z"/><path class="cls-12" d="M82.67,115.12s1.69,4,2.07,4.8.81,1.24.15,1.77S83,121,81.8,119.9s-5.56-4.45-5.23-5.94,3-2.56,3-2.56A4.11,4.11,0,0,1,82.67,115.12Z"/><path class="cls-16" d="M82.08,120.2s1.63-1.31,2.4-.93a1.09,1.09,0,0,0-.35-.86,4.1,4.1,0,0,0-2.56,1.34S81.53,120,82.08,120.2Z"/><path class="cls-2" d="M83.27,92.33s-.22,5.75-4.42,6.24S68,101.16,66.65,91.8Z"/><path class="cls-3" d="M70.82,99.76l-4.11,12.17a6.26,6.26,0,0,0,4.8,1.57l4.87-11.87a3,3,0,0,0-5.56-1.87Z"/><path class="cls-2" d="M67.17,87.3c.28.81,1.74,12.6,1.43,16.65a1.1,1.1,0,0,0,1.28,1.18c1.53-.24,4,.64,8.28.21.77-.08,1.47-.44,1.54-1.21l1.9-10.64,1.06-6.55Z"/><g class="cls-17"><path class="cls-18" d="M74,104.18a17.38,17.38,0,0,0,7.34-.63,9.82,9.82,0,0,1-.16,2.29.48.48,0,0,1-.1.23.37.37,0,0,1-.25.07,67.62,67.62,0,0,1-13-.28c-.3,0-.66-.12-.74-.41a.71.71,0,0,1,0-.45c.48-1.4,1-1.62,2.47-1.55A42.44,42.44,0,0,1,74,104.18Z"/></g><rect class="cls-19" x="71.08" y="98.18" width="6.53" height="4.78" rx="0.95" transform="translate(144.6 204.04) rotate(-177.7)"/><path class="cls-15" d="M71.7,120.35a5.55,5.55,0,0,1,.81,1.7c0,.58-.6.88-.6.88s-1,0-4.23-4.11-3.7-5.7-3.7-5.7,0-.35.94-.78S71.7,120.35,71.7,120.35Z"/><path class="cls-3" d="M71.22,114.66s1,4.27,1.28,5.07.59,1.35-.14,1.77-1.74-1-2.76-2.27-4.77-5.28-4.2-6.7,3.32-2,3.32-2A4.1,4.1,0,0,1,71.22,114.66Z"/><path class="cls-16" d="M69.83,119.58s1.82-1,2.51-.53a1.09,1.09,0,0,0-.2-.91,4.07,4.07,0,0,0-2.74.91S69.31,119.31,69.83,119.58Z"/><path class="cls-20" d="M80.19,70.52s-2.51-2.5-7.25-1.79l.8,3.91L81,74.41S81.28,71.49,80.19,70.52Z"/><polygon class="cls-3" points="73.5 70.82 78.63 70.92 78.71 65.12 73.95 65.12 73.5 70.82"/><g class="cls-21"><ellipse class="cls-22" cx="75.9" cy="65.6" rx="4.37" ry="2.43" transform="translate(-17.04 27.83) rotate(-18.72)"/></g><path class="cls-3" d="M80.66,71.61s-2.25-2.49-7.41-2.43l1.49,5.29,6.79.3Z"/><path class="cls-23" d="M84.85,55.59a7.87,7.87,0,0,0,.05,1.77s-2.45.16-3-.73Z"/><path class="cls-4" d="M85.25,55.53a2.42,2.42,0,0,1-.09.7,3.74,3.74,0,0,1-3.08.39l1.7-.72Z"/><ellipse class="cls-24" cx="83.48" cy="57.94" rx="1.02" ry="1.26" transform="translate(-3.6 110.33) rotate(-65.8)"/><path class="cls-3" d="M78.84,65.78a19.82,19.82,0,0,0,6.32-8.51l-.15,0a3.5,3.5,0,0,1-3-.69c3.72-.32,3.6-1.79,3.6-1.79a4.17,4.17,0,0,0-.89-2.71,4,4,0,0,0-1.86-1.21,28.58,28.58,0,0,0-4.59-7.33C72.07,36.08,64.16,36.18,58.32,41s-8.19,13.3-2,20.75A16.43,16.43,0,0,0,76,67.48a8.41,8.41,0,0,0,2.52-1.43Z"/><g class="cls-25"><path class="cls-26" d="M69.47,57.56s-6.23-8.67-3.83-12.14,4.37-2.57,6.64-4a7.24,7.24,0,0,0,2.89-3.13L67,28.39l-24.08,20L58,69.07l3,2.4c2.28.27,5.9-1.47,7.32-5.46A20.93,20.93,0,0,0,69.47,57.56Z"/></g><ellipse class="cls-4" cx="77.09" cy="51.24" rx="3.19" ry="4.01" transform="translate(-14.96 61.02) rotate(-39.68)"/><g class="cls-27"><path d="M75,47.6l.19-.13a1.23,1.23,0,0,0,2,1.22,1.23,1.23,0,0,0,.28-1.53A2.54,2.54,0,1,1,75,47.6Z"/></g><path class="cls-28" d="M75.73,45.67s-2.72-.12-4.22,3.5C71.51,49.17,71.34,44.16,75.73,45.67Z"/><ellipse class="cls-3" cx="79.4" cy="54.69" rx="3.13" ry="1.16" transform="translate(-16.63 63.29) rotate(-39.68)"/><path class="cls-3" d="M82.22,49.47a2.08,2.08,0,0,0,1.58.74c1,0,1.3.88-.09,2.19S79.81,48.24,82.22,49.47Z"/><path class="cls-29" d="M85.71,54.74a.77.77,0,0,1-.37,1c-.68.41-2.61,1.2-3.71.73a6.81,6.81,0,0,0,1.71-.72C84.22,55.26,85.28,54.27,85.71,54.74Z"/><path class="cls-30" d="M82,56.56a4.21,4.21,0,0,0,2,.66c1.1,0,1.08-.22,1.31.09s-.12,1-1.54.69a3.78,3.78,0,0,1-2.13-1.5S81.92,56.42,82,56.56Z"/><circle class="cls-3" cx="68.34" cy="59.98" r="3.47"/><path class="cls-5" d="M73.36,68.67s9.62,6.71,6.83,1.85a18,18,0,0,1,3.28,7.88c.49,4.28,1.41,11.51,1.86,13.12s-2.44,2.83-6,3.2-12,1-13.51-2.92S66.71,75,68.49,70.71a1.68,1.68,0,0,1,1.27-1c.48-.08,1.13-.21,1.88-.41C72.16,69.16,72.72,68.64,73.36,68.67Z"/><g class="cls-31"><path class="cls-32" d="M71.49,68.6s11.69,11.62,9.45,1.31L74,67.56Z"/></g><path class="cls-8" d="M82.37,88.4a3.4,3.4,0,0,1,.2-1.59h.67a3.33,3.33,0,0,1,.2,1.59,3.39,3.39,0,0,1-.2,1.6h-.67A3.4,3.4,0,0,1,82.37,88.4Z"/><path class="cls-9" d="M81.47,88.4a5.41,5.41,0,0,1,.32-2.54h1.06c.18,0,.33,1.14.33,2.54s-.15,2.54-.33,2.54H81.79A5.41,5.41,0,0,1,81.47,88.4Z"/><path class="cls-10" d="M81.44,87.14s1.1-11.79-.4-15.36l.53.3s2.43,5.43.91,15.83Z"/><path class="cls-6" d="M61.63,89.28s-3.3,10,.7,12.74,15.18,2.64,18.48-.15.25-12.59.25-12.59Z"/><g class="cls-33"><rect class="cls-34" x="62.25" y="86.1" width="0.77" height="19.87"/><rect class="cls-34" x="66.6" y="86.1" width="0.77" height="19.87"/><rect class="cls-34" x="70.95" y="86.1" width="0.77" height="19.87"/><rect class="cls-34" x="75.3" y="86.1" width="0.77" height="19.87"/><rect class="cls-34" x="79.65" y="86.1" width="0.77" height="19.87"/><path class="cls-34" d="M83.76,92.47c-3.89.27-8.05.42-12.44.42s-8.51-.15-12.39-.42v-.9c3.83.31,8,.5,12.39.5s8.6-.19,12.44-.5Z"/><path class="cls-34" d="M83.76,95.37c-3.89.26-8.05.42-12.44.42s-8.51-.16-12.39-.42v-.9c3.83.31,8,.5,12.39.5s8.6-.19,12.44-.5Z"/><path class="cls-34" d="M83.76,98.26c-3.89.27-8.05.43-12.44.43s-8.51-.16-12.39-.43v-.9c3.83.31,8,.5,12.39.5s8.6-.19,12.44-.5Z"/><path class="cls-34" d="M83.76,101.16c-3.89.27-8.05.43-12.44.43s-8.51-.16-12.39-.43v-.9c3.83.31,8,.5,12.39.5s8.6-.19,12.44-.5Z"/><rect class="cls-35" x="59.18" y="87.28" width="25.43" height="3.5"/></g><rect class="cls-7" x="60.45" y="87.11" width="22.15" height="2.93" rx="1.47"/><g class="cls-36"><rect class="cls-37" x="59.45" y="86.05" width="23.84" height="1.53"/></g><path class="cls-3" d="M67.8,70.5l-9.3,2.34A1.75,1.75,0,0,0,57.21,75a3.5,3.5,0,0,0,1.19,1.66,1.26,1.26,0,0,0,1.17.27l9.32-2.78Z"/><path class="cls-5" d="M71.44,71.13A3.43,3.43,0,0,0,69,69.87a23.94,23.94,0,0,0-7.57.88h-.9s-1.5.64-.17,4.38c.54,1.55,1.26,3.46,2.93,3.13.47-.09,2.06-.47,2.68-.65C69.2,76.66,74.43,74.85,71.44,71.13Z"/><path class="cls-3" d="M49.92,78.58l-.69-2.18a.84.84,0,0,1,.56-1l8.69-2.55,1.2,4.07-8.74,2.25A.83.83,0,0,1,49.92,78.58Z"/><path class="cls-3" d="M48.36,82.62a1.75,1.75,0,0,1-.52.53.62.62,0,0,1-.7-.06c-.24-.27-.08-.69.09-1l1.05-1.92c-.35-.06-.67.42-1,.26a.61.61,0,0,1-.19-.2,4.48,4.48,0,0,1-.51-3.67,1.21,1.21,0,0,1,1-.94,3.69,3.69,0,0,1,3.21.23A2.15,2.15,0,0,1,51.37,79C50.29,80.15,49.33,81.34,48.36,82.62Z"/><path class="cls-3" d="M47.64,80.39a11.78,11.78,0,0,1-3,1.45.65.65,0,0,1-.66,0,.43.43,0,0,1,0-.53,1.25,1.25,0,0,1,.42-.37,13.54,13.54,0,0,1,3.18-1.65c.15,0,.31.1.46.14a.29.29,0,0,1,.19.35"/><path class="cls-3" d="M47,79.29a12.08,12.08,0,0,1-3.08,1.28c-.23.06-.51.11-.66-.06a.43.43,0,0,1,0-.53,1.09,1.09,0,0,1,.44-.35,13.9,13.9,0,0,1,3.27-1.47c.15,0,.3.12.44.17a.27.27,0,0,1,.17.36"/><path class="cls-3" d="M47,78a12.07,12.07,0,0,1-3.16,1.09c-.23,0-.51.08-.65-.1a.44.44,0,0,1,0-.53,1.16,1.16,0,0,1,.46-.32,13.79,13.79,0,0,1,3.36-1.26c.15,0,.3.14.43.2a.27.27,0,0,1,.15.37"/><path class="cls-3" d="M47.64,76.76a10.77,10.77,0,0,1-2.91.65c-.21,0-.46,0-.57-.15a.4.4,0,0,1,.08-.47,1.11,1.11,0,0,1,.44-.24,12.84,12.84,0,0,1,3.1-.79c.13,0,.24.15.36.22a.23.23,0,0,1,.09.34"/></svg>