<svg id="Layer_1" data-name="Layer 1" xmlns="http://www.w3.org/2000/svg" xmlns:xlink="http://www.w3.org/1999/xlink" viewBox="0 0 260 168"><defs><style>.cls-1{fill:#a8651d;}.cls-2{fill:#d18830;}.cls-3{fill:#893e00;}.cls-4{fill:none;}.cls-5{fill:#d6eae6;}.cls-6{fill:#fff;}.cls-7{fill:#590b0b;}.cls-8{fill:#f43434;}.cls-9{clip-path:url(#clip-path);}.cls-10{fill:#c1dbd5;}.cls-11{fill:#bc1d1d;}.cls-12{clip-path:url(#clip-path-2);}.cls-13{fill:#935212;opacity:0.46;}.cls-14{fill:#914e0c;}.cls-15{clip-path:url(#clip-path-3);}.cls-16{fill:#935115;}.cls-17{fill:#8e5011;}.cls-18{clip-path:url(#clip-path-4);}.cls-19{clip-path:url(#clip-path-5);}.cls-20{fill:#562b04;}.cls-21{fill:#8c4b10;}.cls-22{clip-path:url(#clip-path-6);}.cls-23{fill:#ea4747;}.cls-24{clip-path:url(#clip-path-7);}.cls-25{fill:#d62525;}.cls-26{clip-path:url(#clip-path-8);}.cls-27{clip-path:url(#clip-path-9);}.cls-28{clip-path:url(#clip-path-10);}.cls-29{fill:#ea9c3f;}.cls-30{fill:#af6822;opacity:0.42;}.cls-31{clip-path:url(#clip-path-11);}.cls-32{fill:#9b530b;}.cls-33{fill:#7a3501;}.cls-34{fill:#4932ce;}.cls-35{fill:#ffe33b;}.cls-36{fill:#fcf1c3;}.cls-37{clip-path:url(#clip-path-12);}.cls-38{fill:#fcd212;}.cls-39{fill:#f6b019;}.cls-40{fill:#bc6828;}.cls-41{fill:#43720c;}.cls-42{clip-path:url(#clip-path-13);}.cls-43{fill:#ba722a;}</style><clipPath id="clip-path"><path class="cls-5" d="M116.56,164.26,116,176.64s9.43,3.81,29.48,3.81,30.88-3,30.88-3V163.18Z"/></clipPath><clipPath id="clip-path-2"><rect class="cls-1" x="139.29" y="96.41" width="14.01" height="14.01"/></clipPath><clipPath id="clip-path-3"><path class="cls-1" d="M183.49,52.73c0-26.16-16.65-39.6-37.19-39.6s-37.19,13.44-37.19,39.6c0,9.32,1.12,17,3.1,23.19a10.63,10.63,0,0,0-1.78,5.72c0,10.19,16.06,18.45,35.87,18.45s35.87-8.26,35.87-18.45A10.59,10.59,0,0,0,180.46,76C182.4,69.79,183.49,62.13,183.49,52.73Z"/></clipPath><clipPath id="clip-path-4"><ellipse class="cls-6" cx="124.84" cy="66.79" rx="8.63" ry="10.85"/></clipPath><clipPath id="clip-path-5"><ellipse class="cls-6" cx="167.76" cy="66.79" rx="8.63" ry="10.85"/></clipPath><clipPath id="clip-path-6"><path class="cls-7" d="M134.4,85.22a38.75,38.75,0,0,0,11.76,1.56,40.55,40.55,0,0,0,11.91-1.56s-1.07,8-11.83,8S134.4,85.22,134.4,85.22Z"/></clipPath><clipPath id="clip-path-7"><path class="cls-8" d="M177.12,164c.26-13.86-1.87-31.25-3.11-40.05a95.51,95.51,0,0,0-.51-17.78c-.07-1-2.4-2.22-2.4-2.22l-14.6-2.42C156,107.11,151.38,112,145.69,112a10.83,10.83,0,0,1-10.78-10l-14.42,2s-2.32,1.2-2.4,2.22a100.7,100.7,0,0,0-.16,22.47c-1.2,9.45-2.67,23.67-2.46,35.36,0,0-1.39,3.35,7.82,2.16,8.06-1.05,19.72-.92,22.51-.87h.62c2.8-.05,14.62-.18,22.79.87C178.53,167.34,177.12,164,177.12,164Z"/></clipPath><clipPath id="clip-path-8"><path class="cls-1" d="M166,118.17l-4.29,4.44a2.23,2.23,0,0,0,.11,3.15l17.9,16.71,7.83-8.38-18.4-16A2.23,2.23,0,0,0,166,118.17Z"/></clipPath><clipPath id="clip-path-9"><path class="cls-1" d="M121.18,118.17l4.3,4.44a2.23,2.23,0,0,1-.11,3.15l-17.9,16.71-7.83-8.38,18.39-16A2.23,2.23,0,0,1,121.18,118.17Z"/></clipPath><clipPath id="clip-path-10"><path class="cls-2" d="M91.71,154.52h30.65a0,0,0,0,1,0,0v27.41a11.81,11.81,0,0,1-11.81,11.81h-7a11.81,11.81,0,0,1-11.81-11.81V154.52A0,0,0,0,1,91.71,154.52Z" transform="translate(26.2 -13.6) rotate(8.28)"/></clipPath><clipPath id="clip-path-11"><rect class="cls-3" x="91.76" y="152.05" width="37.08" height="6.43" rx="3.22" transform="translate(23.51 -14.27) rotate(8.28)"/></clipPath><clipPath id="clip-path-12"><path class="cls-4" d="M140.48,92.76a27,27,0,0,0-17.7-1.87,8.25,8.25,0,0,0-3.29,1.4,8.13,8.13,0,0,0-1.88,2.39,26.06,26.06,0,0,0-1.52,22.49,10.78,10.78,0,0,0,1.8,3.14,18.25,18.25,0,0,0,4,3c3.14,2.05,6,4.67,9.51,6a23.94,23.94,0,0,0,6.3,1.17,78.64,78.64,0,0,0,18.58-.74c3.37-.55,6.9-1.42,9.27-3.87a16.47,16.47,0,0,0,3.26-6,41.25,41.25,0,0,0,2.15-7.92c.43-3,.21-6.36-1.89-8.54-2.26-2.34-5.89-2.52-9.14-2.56a3.81,3.81,0,0,0-2.36.49c-1,.74-1.09,2.27-2,3.09a1.54,1.54,0,0,1-.46,2.3,2.84,2.84,0,0,1-2.61-.08,2.11,2.11,0,0,0-1.15-.36,2.35,2.35,0,0,0-.91.45,3.34,3.34,0,0,1-4.19-.76,3.19,3.19,0,0,0-.74-.85,3.32,3.32,0,0,0-1.86-.13,3.32,3.32,0,0,1-2.86-5.13,1.71,1.71,0,0,1,.1-3.41l0-3"/></clipPath><clipPath id="clip-path-13"><path class="cls-4" d="M124.59,102.91a11.2,11.2,0,0,1-.71-7.29s8.26,4.53,5.06,11.31a8.38,8.38,0,0,1-4.35-4"/></clipPath></defs><path class="cls-1" d="M177,110.52l10.46,23.73a4.74,4.74,0,0,1-2.46,6.33,9.59,9.59,0,0,1-5.53.21,3.41,3.41,0,0,1-2.52-2.07l-9.53-24.48Z"/><path class="cls-8" d="M169.58,103.78A9.25,9.25,0,0,1,176.4,107a64,64,0,0,1,10.69,17.61l1.48,2s1.11,4.26-9.07,7.64c-4.21,1.4-9.47,3-11.56-1.07-.59-1.16-2.41-5.18-3.05-6.82C161.5,117.73,156.69,103.59,169.58,103.78Z"/><path class="cls-5" d="M116.47,155.47c.79,2.17-1,31.82-1.69,42.8a3,3,0,0,0,3.51,3.15c4.12-.73,10.93,1.57,22.39.25,2.08-.24,3.95-1.24,4.1-3.32l2-28.15L148,152.26Z"/><path class="cls-1" d="M115.25,109.28,100.93,130.9a4.74,4.74,0,0,0,1.36,6.65,9.69,9.69,0,0,0,5.42,1.15,3.4,3.4,0,0,0,2.82-1.62l13.53-22.52Z"/><path class="cls-5" d="M176.12,155.47c-.79,2.17,1,31.82,1.7,42.8a3,3,0,0,1-3.51,3.15c-4.13-.73-10.93,1.57-22.4.25-2.07-.24-3.95-1.24-4.1-3.32l-2-28.15-1.19-17.94Z"/><path class="cls-5" d="M116.56,164.26,116,176.64s9.43,3.81,29.48,3.81,30.88-3,30.88-3V163.18Z"/><g class="cls-9"><path class="cls-10" d="M169.63,167.8c3,.37,6,.9,8.86,0a3.17,3.17,0,0,0,2.1-1.61c.58-1.38-.5-2.9-1.61-3.87-4.08-3.53-9.51-4.74-14.76-5.37a175.63,175.63,0,0,0-23.17-.75c-6.88.08-13.77.15-20.63.76-4,.35-9.92,1.6-8.3,7.43s10.23,4.27,14.51,4.13c6.8-.22,13.59-.8,20.39-1.15A127.44,127.44,0,0,1,169.63,167.8Z"/></g><path class="cls-8" d="M123.68,103.89a9.32,9.32,0,0,0-7.28,2,64.14,64.14,0,0,0-13.51,15.55l-1.79,1.67s-1.81,4,7.65,9.07c3.92,2.09,8.82,4.59,11.57.9.78-1.05,3.26-4.7,4.17-6.21C129.28,119,136.42,105.87,123.68,103.89Z"/><ellipse class="cls-11" cx="146.3" cy="112.11" rx="21.53" ry="12.03"/><ellipse class="cls-1" cx="146.3" cy="113.99" rx="21.53" ry="12.03"/><rect class="cls-1" x="139.29" y="96.41" width="14.01" height="14.01"/><g class="cls-12"><ellipse class="cls-13" cx="146.05" cy="96.72" rx="10.56" ry="5.64"/></g><circle class="cls-14" cx="111.27" cy="69.88" r="9.38"/><circle class="cls-14" cx="181.33" cy="69.88" r="9.38"/><path class="cls-1" d="M183.49,52.73c0-26.16-16.65-39.6-37.19-39.6s-37.19,13.44-37.19,39.6c0,9.32,1.12,17,3.1,23.19a10.63,10.63,0,0,0-1.78,5.72c0,10.19,16.06,18.45,35.87,18.45s35.87-8.26,35.87-18.45A10.59,10.59,0,0,0,180.46,76C182.4,69.79,183.49,62.13,183.49,52.73Z"/><g class="cls-15"><path class="cls-16" d="M108.18,68.82A216.21,216.21,0,0,1,114.65,42c4.26-13.32,17.23-6.1,31.65-6.1V5.36H101.89l-1.48,62Z"/><path class="cls-16" d="M184.36,68.82A216.21,216.21,0,0,0,177.89,42c-4.26-13.32-17.23-6.1-31.65-6.1V5.36h44.41l1.48,62Z"/></g><ellipse class="cls-17" cx="146.3" cy="75.67" rx="7.89" ry="3.7"/><ellipse class="cls-6" cx="124.84" cy="66.79" rx="8.63" ry="10.85"/><g class="cls-18"><path d="M124.84,65.55a6,6,0,0,0-.61.06A3.33,3.33,0,1,1,119,68.9a6.89,6.89,0,1,0,5.89-3.35Z"/></g><ellipse class="cls-6" cx="167.76" cy="66.79" rx="8.63" ry="10.85"/><g class="cls-19"><path d="M167.76,65a6,6,0,0,0-.61.06,3.3,3.3,0,0,1,1.32,2.61A3.37,3.37,0,0,1,165.1,71a3.32,3.32,0,0,1-3.23-2.69A6.89,6.89,0,1,0,167.76,65Z"/></g><path class="cls-20" d="M118.05,52.85s5.45-4.93,14.82,0C132.87,52.85,124.59,42.12,118.05,52.85Z"/><path class="cls-20" d="M174.54,52.85s-5.44-4.93-14.81,0C159.73,52.85,168,42.12,174.54,52.85Z"/><path class="cls-21" d="M133.43,84.74s-.39,11,12.81,11,12.93-10.94,12.93-10.94l-12-.45Z"/><path class="cls-7" d="M134.4,85.22a38.75,38.75,0,0,0,11.76,1.56,40.55,40.55,0,0,0,11.91-1.56s-1.07,8-11.83,8S134.4,85.22,134.4,85.22Z"/><g class="cls-22"><ellipse class="cls-6" cx="146.24" cy="83.99" rx="10.31" ry="5.26"/><ellipse class="cls-23" cx="146.24" cy="96.4" rx="10.31" ry="5.26"/></g><path class="cls-21" d="M133.43,84.74a103.29,103.29,0,0,1,25.74,0s-4.43,2-13.35,2S133.43,84.74,133.43,84.74Z"/><ellipse class="cls-1" cx="125.99" cy="77.95" rx="8.47" ry="3.15"/><ellipse class="cls-1" cx="166.6" cy="77.95" rx="8.47" ry="3.15"/><path class="cls-8" d="M177.12,164c.26-13.86-1.87-31.25-3.11-40.05a95.51,95.51,0,0,0-.51-17.78c-.07-1-2.4-2.22-2.4-2.22l-14.6-2.42C156,107.11,151.38,112,145.69,112a10.83,10.83,0,0,1-10.78-10l-14.42,2s-2.32,1.2-2.4,2.22a100.7,100.7,0,0,0-.16,22.47c-1.2,9.45-2.67,23.67-2.46,35.36,0,0-1.39,3.35,7.82,2.16,8.06-1.05,19.72-.92,22.51-.87h.62c2.8-.05,14.62-.18,22.79.87C178.53,167.34,177.12,164,177.12,164Z"/><g class="cls-24"><path class="cls-25" d="M130.73,98.26c-.35.8-.08,17.82,15.57,17.82s15.28-22.2,15.28-22.2Z"/></g><path class="cls-1" d="M166,118.17l-4.29,4.44a2.23,2.23,0,0,0,.11,3.15l17.9,16.71,7.83-8.38-18.4-16A2.23,2.23,0,0,0,166,118.17Z"/><g class="cls-26"><ellipse class="cls-13" cx="162.81" cy="121.08" rx="7.77" ry="6.53" transform="translate(-35.48 164.1) rotate(-48.88)"/></g><path class="cls-1" d="M179.33,142.07c-1.74-6.38,5.52-11.38,7.68-8.76,2.54,3.08,2.25,5.92-.35,8.91s-6.93.25-6.93.25Z"/><path class="cls-1" d="M121.18,118.17l4.3,4.44a2.23,2.23,0,0,1-.11,3.15l-17.9,16.71-7.83-8.38,18.39-16A2.23,2.23,0,0,1,121.18,118.17Z"/><g class="cls-27"><ellipse class="cls-13" cx="124.39" cy="121.08" rx="6.53" ry="7.77" transform="translate(-48.95 111.67) rotate(-41.12)"/></g><path class="cls-1" d="M107.87,142.07c1.73-6.38-5.53-11.38-7.68-8.76-2.54,3.08-2.26,5.92.34,8.91s6.94.25,6.94.25Z"/><path class="cls-2" d="M91.71,154.52h30.65a0,0,0,0,1,0,0v27.41a11.81,11.81,0,0,1-11.81,11.81h-7a11.81,11.81,0,0,1-11.81-11.81V154.52A0,0,0,0,1,91.71,154.52Z" transform="translate(26.2 -13.6) rotate(8.28)"/><g class="cls-28"><rect class="cls-29" x="82.84" y="144.06" width="2.06" height="53.41" transform="translate(25.47 -10.3) rotate(8.28)"/><rect class="cls-29" x="94.4" y="145.74" width="2.06" height="53.41" transform="translate(25.83 -11.95) rotate(8.28)"/><rect class="cls-29" x="105.97" y="147.42" width="2.06" height="53.41" transform="translate(26.2 -13.6) rotate(8.28)"/><rect class="cls-29" x="117.53" y="149.11" width="2.06" height="53.41" transform="translate(26.56 -15.24) rotate(8.28)"/><rect class="cls-29" x="129.1" y="150.79" width="2.06" height="53.41" transform="translate(26.92 -16.89) rotate(8.28)"/><path class="cls-29" d="M141.43,169.44c-10.45-.8-21.56-2-33.24-3.68S85.62,162,75.41,159.83l.35-2.39c10.06,2.3,21,4.41,32.75,6.12s22.92,2.83,33.26,3.49Z"/><path class="cls-29" d="M140.31,177.14c-10.45-.79-21.56-2-33.24-3.68s-22.57-3.72-32.78-5.92l.35-2.4c10.06,2.31,21,4.42,32.75,6.13s22.92,2.82,33.26,3.48Z"/><rect class="cls-30" x="89.14" y="152.49" width="41.78" height="7.75" transform="translate(23.67 -14.22) rotate(8.28)"/></g><rect class="cls-3" x="91.76" y="152.05" width="37.08" height="6.43" rx="3.22" transform="translate(23.51 -14.27) rotate(8.28)"/><g class="cls-31"><rect class="cls-32" x="87.03" y="147.54" width="50.46" height="6.1" transform="translate(22.86 -14.6) rotate(8.28)"/></g><path class="cls-33" d="M109.44,151.56s31.93-24.45,53.48-50.48a1.79,1.79,0,0,1,2-.52l2,1a1.64,1.64,0,0,1,.5,2.33c-3,4.62-10.61,20.71-53.27,51.07Z"/><circle class="cls-34" cx="109.73" cy="155.35" r="6.1" transform="translate(-72.29 100.16) rotate(-37.9)"/><circle class="cls-35" cx="109.73" cy="155.35" r="3.27" transform="translate(-72.29 100.16) rotate(-37.9)"/><path class="cls-36" d="M137.7,97.87a4,4,0,0,1,4.12-.05,7.53,7.53,0,0,1,2.86,3.18,1.16,1.16,0,0,0,.37.47,1.42,1.42,0,0,0,.62.09,2.05,2.05,0,0,1,1.89,1.62,2.71,2.71,0,0,1,3.85,1.43,4.6,4.6,0,0,1,4.11-.77,3,3,0,0,1,2,3.42c-.47,1.65-2.43,2.31-4.13,2.61a42,42,0,0,1-5.5.6c-2.93.14-6.06-.1-8.4-1.86a7.47,7.47,0,0,1-.93-11.1l0,1.24"/><g class="cls-37"><path class="cls-38" d="M127.54,102.11a13.87,13.87,0,0,0-2,16.47c4.1,7.86,18.29,12.3,31,6.8a19.92,19.92,0,0,0,9-7.64c2.33-3.72,3-7.64.89-11.28a.21.21,0,0,0,0-.06c-1.72-2.43-4.92-.3-7.52-.92C150.54,103.53,138.46,90.79,127.54,102.11Z"/><path class="cls-39" d="M129.63,105.17s.13,1.78-2.37,3.1"/><path class="cls-40" d="M128.3,107.12c-1.15-.32-6.58-2-9.54-6.59a.82.82,0,0,1,.18-1.09h0a.81.81,0,0,1,1.19.23,15.43,15.43,0,0,0,8.36,6.79.34.34,0,0,1,.16.54h0A.33.33,0,0,1,128.3,107.12Z"/><path class="cls-41" d="M128.71,106.7s-6.66-2.15-4.83-11.08C123.88,95.62,132,100,128.71,106.7Z"/><g class="cls-42"><polygon class="cls-4" points="123.88 95.62 128.71 106.7 126.58 106.73 122.44 100.4 123.88 95.62"/></g></g><path class="cls-1" d="M159.3,122.83a7.76,7.76,0,0,1-2.78-1.77,11.38,11.38,0,0,0-1.42-1.36,1.85,1.85,0,0,0-1.86-.21,1.65,1.65,0,0,0-.74,1.61,3.67,3.67,0,0,0,.71,1.72,11.24,11.24,0,0,0,6,4.51,3.57,3.57,0,0,0,1.68.19,2.07,2.07,0,0,0,1.33-2.76C161.84,123.56,160.36,123.21,159.3,122.83Z"/><ellipse class="cls-43" cx="153.91" cy="120.9" rx="0.95" ry="0.8" transform="translate(-41.78 117.98) rotate(-37.29)"/><path class="cls-1" d="M162.35,120.15a7.74,7.74,0,0,1-2.69-1.91,9.64,9.64,0,0,0-1.35-1.43,1.81,1.81,0,0,0-1.84-.32,1.68,1.68,0,0,0-.83,1.57,3.84,3.84,0,0,0,.62,1.75,11.24,11.24,0,0,0,5.79,4.84,3.66,3.66,0,0,0,1.66.28,2.08,2.08,0,0,0,1.48-2.69C164.84,121,163.38,120.59,162.35,120.15Z"/><ellipse class="cls-43" cx="157.07" cy="117.94" rx="0.95" ry="0.8" transform="translate(-39.13 108.6) rotate(-34.18)"/><path class="cls-1" d="M165.06,117a7.61,7.61,0,0,1-2.68-1.91,9.64,9.64,0,0,0-1.35-1.43,1.81,1.81,0,0,0-1.84-.32,1.67,1.67,0,0,0-.83,1.57,3.73,3.73,0,0,0,.62,1.75,11.2,11.2,0,0,0,5.79,4.84,3.66,3.66,0,0,0,1.66.28,2.08,2.08,0,0,0,1.48-2.69C167.55,117.83,166.09,117.4,165.06,117Z"/><ellipse class="cls-43" cx="159.79" cy="114.75" rx="0.95" ry="0.8" transform="translate(-36.87 109.58) rotate(-34.18)"/><path class="cls-1" d="M167.72,113.72A7.76,7.76,0,0,1,165,111.8a9.64,9.64,0,0,0-1.35-1.43,1.83,1.83,0,0,0-1.85-.32,1.68,1.68,0,0,0-.82,1.57,3.87,3.87,0,0,0,.61,1.76,11.3,11.3,0,0,0,5.79,4.83,3.71,3.71,0,0,0,1.67.28,2.08,2.08,0,0,0,1.48-2.69C170.21,114.58,168.75,114.15,167.72,113.72Z"/><ellipse class="cls-43" cx="162.45" cy="111.5" rx="0.95" ry="0.8" transform="translate(-34.58 110.51) rotate(-34.18)"/><path class="cls-1" d="M160.24,125.45a1.54,1.54,0,0,0-.38.71,1.17,1.17,0,0,0,.93,1.21,3.13,3.13,0,0,0,1.65-.18,11.12,11.12,0,0,0,2-.82,12.16,12.16,0,0,0,3.7-3.48,10.57,10.57,0,0,0,2.39-5.31c.15-1.71-1.21-.85-1.94-.31-1,.78-2.06,1.6-3,2.47A42.83,42.83,0,0,0,160.24,125.45Z"/><path class="cls-1" d="M128.47,122.83a7.8,7.8,0,0,0,2.79-1.77,10.15,10.15,0,0,1,1.42-1.36,1.85,1.85,0,0,1,1.86-.21,1.65,1.65,0,0,1,.74,1.61,3.78,3.78,0,0,1-.71,1.72,11.27,11.27,0,0,1-6,4.51,3.59,3.59,0,0,1-1.68.19,2.07,2.07,0,0,1-1.33-2.76C125.94,123.56,127.42,123.21,128.47,122.83Z"/><ellipse class="cls-43" cx="133.86" cy="120.9" rx="0.8" ry="0.95" transform="translate(-43.43 154.14) rotate(-52.71)"/><path class="cls-1" d="M125.43,120.15a7.61,7.61,0,0,0,2.68-1.91,10.19,10.19,0,0,1,1.35-1.43,1.83,1.83,0,0,1,1.85-.32,1.65,1.65,0,0,1,.82,1.57,3.83,3.83,0,0,1-.61,1.75,11.24,11.24,0,0,1-5.79,4.84,3.66,3.66,0,0,1-1.66.28,2.08,2.08,0,0,1-1.49-2.69C122.94,121,124.4,120.59,125.43,120.15Z"/><ellipse class="cls-43" cx="130.71" cy="117.94" rx="0.8" ry="0.95" transform="matrix(0.56, -0.83, 0.83, 0.56, -40.29, 159.82)"/><path class="cls-1" d="M122.71,117a7.74,7.74,0,0,0,2.69-1.91,10.12,10.12,0,0,1,1.34-1.43,1.83,1.83,0,0,1,1.85-.32,1.69,1.69,0,0,1,.83,1.57,3.84,3.84,0,0,1-.62,1.75,11.24,11.24,0,0,1-5.79,4.84,3.66,3.66,0,0,1-1.66.28,2.08,2.08,0,0,1-1.48-2.69C120.22,117.83,121.68,117.4,122.71,117Z"/><ellipse class="cls-43" cx="127.99" cy="114.75" rx="0.8" ry="0.95" transform="translate(-38.84 156.17) rotate(-55.82)"/><path class="cls-1" d="M120.06,113.72a7.86,7.86,0,0,0,2.68-1.92,9.64,9.64,0,0,1,1.35-1.43,1.81,1.81,0,0,1,1.84-.32,1.69,1.69,0,0,1,.83,1.57,3.77,3.77,0,0,1-.62,1.76,11.26,11.26,0,0,1-5.79,4.83,3.66,3.66,0,0,1-1.66.28,2.08,2.08,0,0,1-1.48-2.69C117.56,114.58,119,114.15,120.06,113.72Z"/><ellipse class="cls-43" cx="125.33" cy="111.5" rx="0.8" ry="0.95" transform="translate(-37.32 152.55) rotate(-55.82)"/><path class="cls-1" d="M127.54,125.45a1.64,1.64,0,0,1,.38.71,1.17,1.17,0,0,1-.93,1.21,3.12,3.12,0,0,1-1.65-.18,10.91,10.91,0,0,1-2-.82,12.24,12.24,0,0,1-3.69-3.48,10.57,10.57,0,0,1-2.39-5.31c-.15-1.71,1.21-.85,1.94-.31,1,.78,2,1.6,3,2.47A42.9,42.9,0,0,1,127.54,125.45Z"/></svg>