<svg id="Layer_5" data-name="Layer 5" xmlns="http://www.w3.org/2000/svg" xmlns:xlink="http://www.w3.org/1999/xlink" viewBox="0 0 260 168"><defs><style>.cls-1{fill:#c5ddd7;}.cls-2{fill:#d6eae6;}.cls-3{fill:#a8651d;}.cls-4{fill:#f43434;}.cls-5{fill:#d18830;}.cls-6{fill:#893e00;}.cls-7{fill:none;}.cls-8{fill:#fff;}.cls-9{fill:#ffe33b;}.cls-10{fill:#4932ce;}.cls-11{fill:#7a3501;}.cls-12{fill:#e22b2b;}.cls-13{fill:#a05e1d;}.cls-14{clip-path:url(#clip-path);}.cls-15{fill:#aecec5;}.cls-15,.cls-19{opacity:0.44;}.cls-16{fill:#f49c00;}.cls-17{fill:#f28f00;}.cls-18{clip-path:url(#clip-path-2);}.cls-19{fill:#bcd8d1;}.cls-20{fill:#c0e2da;}.cls-21{fill:#bc1d1d;}.cls-22{clip-path:url(#clip-path-3);}.cls-23{fill:#935212;opacity:0.46;}.cls-24{clip-path:url(#clip-path-4);}.cls-25{fill:#d62525;}.cls-26{clip-path:url(#clip-path-5);}.cls-27{fill:#ea9c3f;}.cls-28{fill:#af6822;opacity:0.42;}.cls-29{clip-path:url(#clip-path-6);}.cls-30{fill:#d67422;}.cls-31{fill:#fcf1c3;}.cls-32{clip-path:url(#clip-path-7);}.cls-33{fill:#fcd212;}.cls-34{fill:#f6b019;}.cls-35{fill:#bc6828;}.cls-36{fill:#43720c;}.cls-37{clip-path:url(#clip-path-8);}.cls-38{fill:#590b0b;}.cls-39{fill:#ea4747;}.cls-40{clip-path:url(#clip-path-9);}.cls-41{fill:#914e0c;}.cls-42{clip-path:url(#clip-path-10);}.cls-43{fill:#562b04;}.cls-44{fill:#8c4b10;}.cls-45{fill:#935115;}</style><clipPath id="clip-path"><path class="cls-1" d="M190.59,128.65a74.1,74.1,0,0,1,4.13,11,.78.78,0,0,0,1.09.56c1-.46,2.84-.34,5.63-1.43.51-.2.91-.58.81-1.11l-.73-7.55-.53-4.63Z"/></clipPath><clipPath id="clip-path-2"><path class="cls-2" d="M190.61,126.77a73.25,73.25,0,0,1,1,11.69.78.78,0,0,0,.9.83c1.07-.18,2.83.44,5.81.14.54-.05,1-.31,1.08-.85l1.34-7.47.74-4.6Z"/></clipPath><clipPath id="clip-path-3"><polygon class="cls-3" points="195.06 115.2 198.66 115.27 198.71 111.2 195.37 111.2 195.06 115.2"/></clipPath><clipPath id="clip-path-4"><path class="cls-4" d="M195,113.69s6.76,4.71,4.79,1.3a12.54,12.54,0,0,1,2.31,5.53c.34,3,1,8.08,1.3,9.21s-1.71,2-4.24,2.24-8.4.74-9.48-2,.65-11.82,1.9-14.81a1.17,1.17,0,0,1,.89-.7c.34-.06.79-.15,1.32-.29C194.12,114,194.51,113.67,195,113.69Z"/></clipPath><clipPath id="clip-path-5"><path class="cls-5" d="M186.72,128.16s-2.31,7.05.49,8.94,10.66,1.86,13-.11.17-8.83.17-8.83Z"/></clipPath><clipPath id="clip-path-6"><rect class="cls-6" x="185.89" y="126.64" width="15.55" height="2.06" rx="1.03"/></clipPath><clipPath id="clip-path-7"><path class="cls-7" d="M208.5,110.23a6.87,6.87,0,0,1,4.4-1.18,2.08,2.08,0,0,1,.88.22,2.06,2.06,0,0,1,.57.53,6.66,6.66,0,0,1,1.28,5.61,2.62,2.62,0,0,1-.33.87,4.56,4.56,0,0,1-.89.92,12.91,12.91,0,0,1-2.17,1.89,6.25,6.25,0,0,1-1.54.54,19.71,19.71,0,0,1-4.72.55,4.09,4.09,0,0,1-2.49-.6,4.25,4.25,0,0,1-1.06-1.39,10.86,10.86,0,0,1-.86-1.91,2.55,2.55,0,0,1,.14-2.23,3.14,3.14,0,0,1,2.2-1,1,1,0,0,1,.62,0c.28.15.36.53.63.7a.41.41,0,0,0,.21.57.73.73,0,0,0,.65-.13.67.67,0,0,1,.28-.14.73.73,0,0,1,.25.08.84.84,0,0,0,1-.36,1,1,0,0,1,.16-.24c.12-.11.3-.09.46-.11a.85.85,0,0,0,.52-1.41.43.43,0,0,0-.16-.85l-.13-.76"/></clipPath><clipPath id="clip-path-8"><path class="cls-7" d="M212.92,112.16a2.89,2.89,0,0,0-.12-1.87s-1.9,1.47-.82,3a2.15,2.15,0,0,0,.94-1.18"/></clipPath><clipPath id="clip-path-9"><path class="cls-3" d="M198.1,113a14,14,0,0,0,7.39.87l0-.1a2.44,2.44,0,0,1-.63-2.08c1.49,2.15,2.34,1.56,2.34,1.56a2.88,2.88,0,0,0,1.34-1.49,2.8,2.8,0,0,0,.09-1.55,20.44,20.44,0,0,0,2.85-5.36c2.37-6.37-.47-11.14-5.47-13s-10.95-.32-13.32,6a11.53,11.53,0,0,0,3.42,14,6,6,0,0,0,1.76,1Z"/></clipPath><clipPath id="clip-path-10"><ellipse class="cls-8" cx="206.34" cy="106.86" rx="2.82" ry="2.24" transform="translate(34.24 263) rotate(-69.59)"/></clipPath></defs><path class="cls-9" d="M185.83,127.54a2.38,2.38,0,0,0-.14-1.12h-.47a4.55,4.55,0,0,0,0,2.24h.47A2.38,2.38,0,0,0,185.83,127.54Z"/><path class="cls-10" d="M186.47,127.54a3.71,3.71,0,0,0-.23-1.78h-.74c-.13,0-.23.79-.23,1.78s.1,1.79.23,1.79h.74A3.67,3.67,0,0,0,186.47,127.54Z"/><path class="cls-11" d="M191.43,114.82a22.79,22.79,0,0,0-4.5,12.52l-1,.27S185.34,119.82,191.43,114.82Z"/><path class="cls-3" d="M208.38,118l1,1.24a.59.59,0,0,1-.1.82l-5,3.92-1.84-2.34,5.12-3.74A.58.58,0,0,1,208.38,118Z"/><path class="cls-3" d="M208.25,114.85a1.19,1.19,0,0,1,.17-.49.42.42,0,0,1,.46-.17c.23.09.26.41.25.66l-.08,1.54c.24-.07.3-.47.54-.46a.39.39,0,0,1,.18.06,3.13,3.13,0,0,1,1.44,2.17,1.13,1.13,0,0,1,0,.41,1.1,1.1,0,0,1-.32.48,2.58,2.58,0,0,1-2.1.83,1.51,1.51,0,0,1-1.33-1.8C207.78,117,208,116,208.25,114.85Z"/><path class="cls-3" d="M209.38,116.05a8.63,8.63,0,0,1,1.46-1.84c.12-.12.27-.24.43-.19a.3.3,0,0,1,.18.32.81.81,0,0,1-.15.37,10,10,0,0,1-1.51,2c-.08.07-.23,0-.33,0a.19.19,0,0,1-.23-.16"/><path class="cls-3" d="M210.14,116.54a8.4,8.4,0,0,1,1.56-1.75c.13-.11.29-.23.44-.17a.32.32,0,0,1,.16.34.76.76,0,0,1-.17.35,9.76,9.76,0,0,1-1.62,1.93c-.08.07-.23,0-.33,0s-.23-.07-.22-.18"/><path class="cls-3" d="M210.51,117.39a8.7,8.7,0,0,1,1.67-1.65c.13-.1.3-.21.45-.14a.32.32,0,0,1,.14.35.79.79,0,0,1-.2.34,9.38,9.38,0,0,1-1.74,1.82c-.08.07-.22,0-.33,0s-.22-.08-.2-.19"/><path class="cls-3" d="M210.5,118.34a7.34,7.34,0,0,1,1.63-1.3c.13-.08.29-.16.41-.08a.28.28,0,0,1,.09.32.8.8,0,0,1-.2.29,8.77,8.77,0,0,1-1.72,1.44c-.08,0-.2,0-.3,0a.18.18,0,0,1-.16-.19"/><path class="cls-3" d="M198,118.86l4.36,5.13a1.23,1.23,0,0,0,1.76.14,2.54,2.54,0,0,0,.67-1.26.87.87,0,0,0-.2-.83l-4.64-5Z"/><path class="cls-12" d="M196.88,116.1a2.39,2.39,0,0,0,0,2,16.53,16.53,0,0,0,2.9,4.49l.29.57s.87.74,2.81-1.25c.81-.83,1.78-1.87,1.06-2.82-.2-.27-.94-1.15-1.24-1.49C201.05,115.8,198.29,113.07,196.88,116.1Z"/><path class="cls-13" d="M197.55,136.43l.34,9a4.39,4.39,0,0,0,3.54-.16l.23-9a2.1,2.1,0,0,0-4.11.16Z"/><path class="cls-1" d="M190.59,128.65a74.1,74.1,0,0,1,4.13,11,.78.78,0,0,0,1.09.56c1-.46,2.84-.34,5.63-1.43.51-.2.91-.58.81-1.11l-.73-7.55-.53-4.63Z"/><g class="cls-14"><path class="cls-15" d="M198.42,138.76a12.08,12.08,0,0,0,4.84-1.82,7,7,0,0,1,.33,1.58.32.32,0,0,1,0,.17.23.23,0,0,1-.15.1,47,47,0,0,1-8.82,2.27c-.2,0-.46,0-.57-.14a.54.54,0,0,1-.06-.31c.07-1,.38-1.29,1.39-1.52S197.4,138.89,198.42,138.76Z"/></g><path class="cls-16" d="M204.79,147.48a3.87,3.87,0,0,1,1.28.34.72.72,0,0,1,.2.72s-.42.55-4.12.41a16.73,16.73,0,0,1-4.73-.57s-.2-.15,0-.86S204.79,147.48,204.79,147.48Z"/><path class="cls-13" d="M201.51,145.17s2.76,1.38,3.3,1.6,1,.29.89.87-1.32.48-2.46.47-5,.18-5.5-.76.39-2.72.39-2.72A2.89,2.89,0,0,1,201.51,145.17Z"/><path class="cls-17" d="M203.53,148.14s.26-1.44.85-1.59a.77.77,0,0,0-.58-.3,2.88,2.88,0,0,0-.75,1.88S203.15,148.3,203.53,148.14Z"/><path class="cls-2" d="M201.91,130.3s-.15,4-3.1,4.38-7.62,1.82-8.56-4.75Z"/><path class="cls-3" d="M193.17,135.51l-2.88,8.55a4.39,4.39,0,0,0,3.37,1.1l3.42-8.33a2.11,2.11,0,0,0-3.91-1.32Z"/><path class="cls-2" d="M190.61,126.77a73.25,73.25,0,0,1,1,11.69.78.78,0,0,0,.9.83c1.07-.18,2.83.44,5.81.14.54-.05,1-.31,1.08-.85l1.34-7.47.74-4.6Z"/><g class="cls-18"><path class="cls-19" d="M195.42,138.62a12.36,12.36,0,0,0,5.16-.44,7.19,7.19,0,0,1-.12,1.6.29.29,0,0,1-.07.16.35.35,0,0,1-.17.06,48.53,48.53,0,0,1-9.1-.2c-.21,0-.46-.09-.52-.29a.48.48,0,0,1,0-.31c.34-1,.71-1.14,1.74-1.09S194.4,138.47,195.42,138.62Z"/></g><rect class="cls-20" x="193.36" y="134.41" width="4.58" height="3.36" rx="0.66" transform="translate(385.69 279.9) rotate(-177.7)"/><path class="cls-16" d="M196.14,148.31a3.83,3.83,0,0,1,1.13.68.72.72,0,0,1,0,.75s-.56.41-4.06-.77a16.17,16.17,0,0,1-4.38-1.9s-.14-.2.25-.82S196.14,148.31,196.14,148.31Z"/><path class="cls-3" d="M193.66,145.16s2.25,2.11,2.71,2.48.87.56.6,1.09-1.41.08-2.49-.26-4.84-1.24-5.06-2.29,1.15-2.49,1.15-2.49A2.89,2.89,0,0,1,193.66,145.16Z"/><path class="cls-17" d="M194.75,148.58s.66-1.3,1.26-1.28a.76.76,0,0,0-.46-.45,2.85,2.85,0,0,0-1.26,1.59S194.34,148.63,194.75,148.58Z"/><path class="cls-21" d="M199.75,115a6.11,6.11,0,0,0-5.09-1.26l.57,2.74,5.12,1.25S200.52,115.67,199.75,115Z"/><polygon class="cls-3" points="195.06 115.2 198.66 115.27 198.71 111.2 195.37 111.2 195.06 115.2"/><g class="cls-22"><ellipse class="cls-23" cx="196.91" cy="111.8" rx="1.7" ry="3.06" transform="translate(56.36 289.33) rotate(-81.22)"/></g><path class="cls-3" d="M200.09,115.75s-1.58-1.75-5.21-1.7l1.05,3.71,4.76.21Z"/><path class="cls-4" d="M195,113.69s6.76,4.71,4.79,1.3a12.54,12.54,0,0,1,2.31,5.53c.34,3,1,8.08,1.3,9.21s-1.71,2-4.24,2.24-8.4.74-9.48-2,.65-11.82,1.9-14.81a1.17,1.17,0,0,1,.89-.7c.34-.06.79-.15,1.32-.29C194.12,114,194.51,113.67,195,113.69Z"/><g class="cls-24"><path class="cls-25" d="M193.65,113.64s8.2,8.15,6.63.92l-4.85-1.65Z"/></g><path class="cls-9" d="M201.28,127.54a2.32,2.32,0,0,1,.15-1.12h.46c.08,0,.15.5.15,1.12s-.07,1.12-.15,1.12h-.46A2.32,2.32,0,0,1,201.28,127.54Z"/><path class="cls-10" d="M200.65,127.54a3.71,3.71,0,0,1,.23-1.78h.74c.13,0,.23.79.23,1.78s-.1,1.79-.23,1.79h-.74A3.67,3.67,0,0,1,200.65,127.54Z"/><path class="cls-11" d="M200.63,126.65s.77-8.27-.28-10.78l.37.22s1.71,3.81.64,11.1Z"/><path class="cls-5" d="M186.72,128.16s-2.31,7.05.49,8.94,10.66,1.86,13-.11.17-8.83.17-8.83Z"/><g class="cls-26"><rect class="cls-27" x="187.16" y="125.93" width="0.54" height="13.95"/><rect class="cls-27" x="190.21" y="125.93" width="0.54" height="13.95"/><rect class="cls-27" x="193.27" y="125.93" width="0.54" height="13.95"/><rect class="cls-27" x="196.32" y="125.93" width="0.54" height="13.95"/><rect class="cls-27" x="199.37" y="125.93" width="0.54" height="13.95"/><path class="cls-27" d="M202.26,130.4c-2.73.18-5.65.3-8.73.3s-6-.12-8.7-.3v-.63c2.69.21,5.6.35,8.7.35s6-.14,8.73-.35Z"/><path class="cls-27" d="M202.26,132.43c-2.73.19-5.65.3-8.73.3s-6-.11-8.7-.3v-.63c2.69.22,5.6.35,8.7.35s6-.13,8.73-.35Z"/><path class="cls-27" d="M202.26,134.47c-2.73.18-5.65.29-8.73.29s-6-.11-8.7-.29v-.64c2.69.22,5.6.35,8.7.35s6-.13,8.73-.35Z"/><path class="cls-27" d="M202.26,136.5c-2.73.19-5.65.3-8.73.3s-6-.11-8.7-.3v-.63c2.69.21,5.6.35,8.7.35s6-.13,8.73-.35Z"/><rect class="cls-28" x="185" y="126.75" width="17.85" height="2.45"/></g><rect class="cls-6" x="185.89" y="126.64" width="15.55" height="2.06" rx="1.03"/><g class="cls-29"><rect class="cls-30" x="185.19" y="125.89" width="16.74" height="1.08"/></g><path class="cls-3" d="M190.3,116.21l-2.66,6.19a1.24,1.24,0,0,0,.65,1.64,2.58,2.58,0,0,0,1.44,0,.93.93,0,0,0,.65-.55l2.41-6.38Z"/><path class="cls-4" d="M192.2,114.45a2.38,2.38,0,0,0-1.76.85,16.74,16.74,0,0,0-2.74,4.6l-.38.51s-.27,1.11,2.38,2c1.1.35,2.46.76,3-.31.15-.3.61-1.35.77-1.77C194.33,118.05,195.54,114.36,192.2,114.45Z"/><path class="cls-3" d="M189.59,130l1.59-.23a.59.59,0,0,0,.47-.67l-1-6.27-2.94.49,1.25,6.21A.59.59,0,0,0,189.59,130Z"/><path class="cls-3" d="M194.07,130.44a1.44,1.44,0,0,1,.35.39.44.44,0,0,1-.07.49c-.2.16-.49,0-.7-.1l-1.31-.81c-.06.24.27.48.14.69a.44.44,0,0,1-.14.13,3.16,3.16,0,0,1-2.6.21,1.22,1.22,0,0,1-.35-.2,1,1,0,0,1-.27-.51,2.61,2.61,0,0,1,.29-2.25,1.52,1.52,0,0,1,2.22-.29A32.5,32.5,0,0,0,194.07,130.44Z"/><path class="cls-3" d="M192.48,130.86a8.43,8.43,0,0,1,.9,2.17c0,.16.08.35,0,.46a.31.31,0,0,1-.38,0,.74.74,0,0,1-.24-.31,9.41,9.41,0,0,1-1-2.29c0-.11.08-.22.12-.32s.16-.17.25-.11"/><path class="cls-3" d="M191.68,131.29a8.17,8.17,0,0,1,.77,2.21c0,.16.06.36-.06.46a.32.32,0,0,1-.38,0,.8.8,0,0,1-.22-.32,9.74,9.74,0,0,1-.9-2.35c0-.11.09-.21.13-.31s.17-.16.26-.1"/><path class="cls-3" d="M190.75,131.2a8.36,8.36,0,0,1,.64,2.26c0,.16,0,.36-.1.45a.3.3,0,0,1-.37,0,.85.85,0,0,1-.21-.34,9.69,9.69,0,0,1-.75-2.4c0-.11.11-.2.16-.3a.19.19,0,0,1,.27-.08"/><path class="cls-3" d="M189.93,130.72a7.61,7.61,0,0,1,.35,2.07c0,.14,0,.32-.13.39a.29.29,0,0,1-.33-.07.78.78,0,0,1-.15-.32,8.83,8.83,0,0,1-.43-2.21c0-.09.11-.16.17-.24a.16.16,0,0,1,.24-.05"/><path class="cls-31" d="M209.41,111.41a1,1,0,0,0-1,.15,1.83,1.83,0,0,0-.6.91.27.27,0,0,1-.07.13.3.3,0,0,1-.16.05.54.54,0,0,0-.41.49.68.68,0,0,0-.91.51,1.19,1.19,0,0,0-1.07,0,.76.76,0,0,0-.36.94c.18.4.7.49,1.14.5a13.5,13.5,0,0,0,1.42-.07,3.25,3.25,0,0,0,2-.81,1.91,1.91,0,0,0-.2-2.83l.05.31"/><g class="cls-32"><path class="cls-33" d="M212.14,112.07a3.55,3.55,0,0,1,1.17,4.08c-.72,2.14-4.13,3.83-7.54,2.94a5,5,0,0,1-2.58-1.57,2.66,2.66,0,0,1-.67-2.81h0c.33-.68,1.22-.27,1.86-.53C206.39,113.34,208.94,109.65,212.14,112.07Z"/><path class="cls-34" d="M211.73,112.93s0,.45.73.68"/><path class="cls-35" d="M212.15,113.36a4.39,4.39,0,0,0,2.14-2,.2.2,0,0,0-.09-.27h0a.22.22,0,0,0-.29.11,3.9,3.9,0,0,1-1.84,2,.09.09,0,0,0,0,.14h0A.09.09,0,0,0,212.15,113.36Z"/><path class="cls-36" d="M212,113.27s1.59-.8.77-3C212.8,110.29,210.94,111.71,212,113.27Z"/><g class="cls-37"><polygon class="cls-7" points="212.8 110.29 212.03 113.28 212.57 113.2 213.36 111.44 212.8 110.29"/></g></g><path class="cls-38" d="M206.41,113.11a5.41,5.41,0,0,0-1.06.65s-.95-1.43-.62-2.1Z"/><path class="cls-8" d="M206.58,113.34a1.69,1.69,0,0,1-.45.19,2.67,2.67,0,0,1-1.32-1.74l1,.78Z"/><ellipse class="cls-39" cx="204.5" cy="113.1" rx="0.71" ry="0.89" transform="translate(-10.25 20.92) rotate(-5.71)"/><path class="cls-3" d="M198.1,113a14,14,0,0,0,7.39.87l0-.1a2.44,2.44,0,0,1-.63-2.08c1.49,2.15,2.34,1.56,2.34,1.56a2.88,2.88,0,0,0,1.34-1.49,2.8,2.8,0,0,0,.09-1.55,20.44,20.44,0,0,0,2.85-5.36c2.37-6.37-.47-11.14-5.47-13s-10.95-.32-13.32,6a11.53,11.53,0,0,0,3.42,14,6,6,0,0,0,1.76,1Z"/><g class="cls-40"><path class="cls-41" d="M199.82,104.44s3.1-6.83,6.05-6.58,3.1,1.76,4.78,2.63a5.08,5.08,0,0,0,2.92.66l3.13-8.43-20.59-7.66-7.3,16.43-.42,2.66c.63,1.48,3,3.07,5.88,2.54A14.59,14.59,0,0,0,199.82,104.44Z"/></g><ellipse class="cls-8" cx="206.34" cy="106.86" rx="2.82" ry="2.24" transform="translate(34.24 263) rotate(-69.59)"/><g class="cls-42"><path d="M207.33,106.48l.14.07a.86.86,0,0,0-.56.51.87.87,0,0,0,.52,1.13.86.86,0,0,0,1-.36,1.72,1.72,0,0,1-.08,1,1.79,1.79,0,1,1-1-2.3Z"/></g><path class="cls-43" d="M209.25,104.09s-.88-1.7-3.6-1.34C205.65,102.75,208.63,100.88,209.25,104.09Z"/><ellipse class="cls-3" cx="205.05" cy="109.48" rx="0.82" ry="2.2" transform="translate(30.95 263.49) rotate(-69.59)"/><path class="cls-3" d="M209.21,109.37a1.45,1.45,0,0,0,.1,1.22c.36.59-.07,1.09-1.36.71S209.12,107.47,209.21,109.37Z"/><path class="cls-44" d="M207.23,113.33a.54.54,0,0,1-.76.14c-.49-.27-1.65-1.17-1.74-2a4.65,4.65,0,0,0,1,.79C206.39,112.61,207.36,112.91,207.23,113.33Z"/><path class="cls-45" d="M204.82,111.71a2.92,2.92,0,0,0,.29,1.45c.36.68.52.58.41.83s-.69.29-1-.7a2.65,2.65,0,0,1,.17-1.82S204.88,111.62,204.82,111.71Z"/><circle class="cls-3" cx="197.96" cy="104.6" r="2.44" transform="translate(3.26 215.16) rotate(-57.44)"/></svg>