<svg id="Layer_6" data-name="Layer 6" xmlns="http://www.w3.org/2000/svg" xmlns:xlink="http://www.w3.org/1999/xlink" viewBox="0 0 260 168"><defs><style>.cls-1,.cls-8{fill:#fff;}.cls-1,.cls-45{stroke:#fff;stroke-miterlimit:10;stroke-width:2.38px;}.cls-2{fill:url(#linear-gradient);}.cls-3{fill:#a8651d;}.cls-4{fill:#d18830;}.cls-5{fill:#893e00;}.cls-45,.cls-6{fill:none;}.cls-7{fill:#d6eae6;}.cls-9{fill:#f43434;}.cls-10{clip-path:url(#clip-path);}.cls-11{clip-path:url(#clip-path-2);}.cls-12,.cls-13{opacity:0.81;}.cls-12{fill:url(#linear-gradient-3);}.cls-13{fill:url(#linear-gradient-4);}.cls-14{clip-path:url(#clip-path-3);}.cls-15{fill:#c1dbd5;}.cls-16{fill:#bc1d1d;}.cls-17{clip-path:url(#clip-path-4);}.cls-18{fill:#935212;opacity:0.46;}.cls-19{fill:#914e0c;}.cls-20{clip-path:url(#clip-path-5);}.cls-21{fill:#935115;}.cls-22{fill:#8e5011;}.cls-23{clip-path:url(#clip-path-6);}.cls-24{clip-path:url(#clip-path-7);}.cls-25{fill:#562b04;}.cls-26{clip-path:url(#clip-path-8);}.cls-27{fill:#d62525;}.cls-28{clip-path:url(#clip-path-9);}.cls-29{clip-path:url(#clip-path-10);}.cls-30{clip-path:url(#clip-path-11);}.cls-31{fill:#ea9c3f;}.cls-32{fill:#af6822;opacity:0.42;}.cls-33{clip-path:url(#clip-path-12);}.cls-34{fill:#9b530b;}.cls-35{fill:#7a3501;}.cls-36{fill:#4932ce;}.cls-37{fill:#ffe33b;}.cls-38{fill:#fcf1c3;}.cls-39{fill:#fcd212;}.cls-40{fill:#f6b019;}.cls-41{fill:#bc6828;}.cls-42{fill:#43720c;}.cls-43{clip-path:url(#clip-path-13);}.cls-44{fill:#ba722a;}.cls-46{fill:#8c4b10;}.cls-47{fill:#590b0b;}.cls-48{fill:#ea4747;}</style><linearGradient id="linear-gradient" x1="126.65" y1="27.35" x2="126.65" y2="150.16" gradientTransform="translate(253.3 221.85) rotate(-180)" gradientUnits="userSpaceOnUse"><stop offset="0.11" stop-color="#65d8f1"/><stop offset="0.29" stop-color="#8be1f4"/><stop offset="0.5" stop-color="#afeaf8"/><stop offset="0.69" stop-color="#c9f1fa"/><stop offset="0.86" stop-color="#d9f5fb"/><stop offset="1" stop-color="#dff6fc"/></linearGradient><clipPath id="clip-path"><path class="cls-1" d="M206.6,127.35c4.5-4.88,7.47-13.28,7.47-22.83,0-8-2.09-15.22-5.43-20.22a12.74,12.74,0,0,0-7.23-21.67c0-.05,0-.09,0-.14,0-9-11.81-16.36-26.38-16.36-7.5,0-14.27,1.95-19.08,5.08-4.31-3.11-10.69-5.08-17.82-5.08A35.12,35.12,0,0,0,126.52,48c-4.26-3.74-11.28-6.18-19.22-6.18-11.77,0-21.53,5.37-23.25,12.38a30.47,30.47,0,0,0-4.53-.33c-11.86,0-21.47,6.53-21.47,14.59,0,3.83,2.17,7.32,5.73,9.92C59.1,83.36,56.12,90.76,56.12,99a30.88,30.88,0,0,0,5.62,18.16c-3.05,2.75-4.81,6-4.81,9.39,0,10.07,15.06,18.22,33.64,18.22a57.65,57.65,0,0,0,15.41-2,56.37,56.37,0,0,0,17.54,2.67,52.33,52.33,0,0,0,22.36-4.62c6,3,14.08,4.9,22.94,4.9a55.65,55.65,0,0,0,18.33-2.94c1.19.11,2.4.17,3.65.17,10.69,0,19.35-4.43,19.35-9.89C210.15,130.94,208.84,129,206.6,127.35Z"/></clipPath><clipPath id="clip-path-2"><rect class="cls-2" x="17.27" y="40.26" width="218.76" height="141.34" transform="translate(253.3 221.85) rotate(180)"/></clipPath><linearGradient id="linear-gradient-3" x1="1071.21" y1="207.23" x2="1071.21" y2="123.67" gradientTransform="matrix(-1, 0, 0, 1, 1264.57, 0)" gradientUnits="userSpaceOnUse"><stop offset="0" stop-color="#e6f5fc"/><stop offset="0.48" stop-color="#eff8fc"/><stop offset="0.54" stop-color="#f1f9fc"/><stop offset="0.99" stop-color="#fff"/></linearGradient><linearGradient id="linear-gradient-4" x1="1230.77" y1="200.26" x2="1230.77" y2="129.13" gradientTransform="translate(-1177.71)" xlink:href="#linear-gradient-3"/><clipPath id="clip-path-3"><path class="cls-7" d="M114.73,161.32l-.45,10.42s7.94,3.2,24.8,3.2,26-2.54,26-2.54v-12Z"/></clipPath><clipPath id="clip-path-4"><rect class="cls-3" x="133.85" y="104.24" width="11.79" height="11.79"/></clipPath><clipPath id="clip-path-5"><path class="cls-3" d="M171,67.49c0-22-14-33.31-31.29-33.31s-31.28,11.3-31.28,33.31A64.37,64.37,0,0,0,111.07,87a8.9,8.9,0,0,0-1.5,4.82c0,8.57,13.51,15.52,30.17,15.52s30.18-7,30.18-15.52a9,9,0,0,0-1.43-4.73A66.22,66.22,0,0,0,171,67.49Z"/></clipPath><clipPath id="clip-path-6"><ellipse class="cls-8" cx="121.69" cy="79.31" rx="7.26" ry="9.13"/></clipPath><clipPath id="clip-path-7"><ellipse class="cls-8" cx="157.8" cy="79.31" rx="7.26" ry="9.13"/></clipPath><clipPath id="clip-path-8"><path class="cls-9" d="M165.68,161.09c.21-11.65-1.58-26.29-2.62-33.7a80.22,80.22,0,0,0-.43-15c-.06-.86-2-1.86-2-1.86l-12.28-2c-.4,4.7-4.31,8.77-9.1,8.77a9.12,9.12,0,0,1-9.07-8.4L118,110.58s-2,1-2,1.86a83.5,83.5,0,0,0-.14,18.91c-1,8-2.25,19.91-2.07,29.74,0,0-1.17,2.82,6.58,1.82a155,155,0,0,1,18.93-.73h.52a159.14,159.14,0,0,1,19.18.73C166.86,163.91,165.68,161.09,165.68,161.09Z"/></clipPath><clipPath id="clip-path-9"><path class="cls-3" d="M156.33,122.54l-3.61,3.74a1.87,1.87,0,0,0,.09,2.65L167.87,143l6.59-7.05L159,122.45A1.89,1.89,0,0,0,156.33,122.54Z"/></clipPath><clipPath id="clip-path-10"><path class="cls-3" d="M118.61,122.54l3.62,3.74a1.88,1.88,0,0,1-.09,2.65L107.08,143l-6.59-7.05L116,122.45A1.89,1.89,0,0,1,118.61,122.54Z"/></clipPath><clipPath id="clip-path-11"><path class="cls-4" d="M93.82,153.13H119.6a0,0,0,0,1,0,0v23.06a9.94,9.94,0,0,1-9.94,9.94h-5.91a9.94,9.94,0,0,1-9.94-9.94V153.13A0,0,0,0,1,93.82,153.13Z" transform="translate(25.54 -13.6) rotate(8.28)"/></clipPath><clipPath id="clip-path-12"><rect class="cls-5" x="93.86" y="151.05" width="31.2" height="5.41" rx="2.71" transform="translate(23.29 -14.16) rotate(8.28)"/></clipPath><clipPath id="clip-path-13"><path class="cls-6" d="M121.48,109.71a9.44,9.44,0,0,1-.59-6.14s6.94,3.82,4.25,9.51a7,7,0,0,1-3.66-3.37"/></clipPath></defs><path class="cls-8" d="M206.6,127.35c4.5-4.88,7.47-13.28,7.47-22.83,0-8-2.09-15.22-5.43-20.22a12.74,12.74,0,0,0-7.23-21.67c0-.05,0-.09,0-.14,0-9-11.81-16.36-26.38-16.36-7.5,0-14.27,1.95-19.08,5.08-4.31-3.11-10.69-5.08-17.82-5.08A35.12,35.12,0,0,0,126.52,48c-4.26-3.74-11.28-6.18-19.22-6.18-11.77,0-21.53,5.37-23.25,12.38a30.47,30.47,0,0,0-4.53-.33c-11.86,0-21.47,6.53-21.47,14.59,0,3.83,2.17,7.32,5.73,9.92C59.1,83.36,56.12,90.76,56.12,99a30.88,30.88,0,0,0,5.62,18.16c-3.05,2.75-4.81,6-4.81,9.39,0,10.07,15.06,18.22,33.64,18.22a57.65,57.65,0,0,0,15.41-2,56.37,56.37,0,0,0,17.54,2.67,52.33,52.33,0,0,0,22.36-4.62c6,3,14.08,4.9,22.94,4.9a55.65,55.65,0,0,0,18.33-2.94c1.19.11,2.4.17,3.65.17,10.69,0,19.35-4.43,19.35-9.89C210.15,130.94,208.84,129,206.6,127.35Z"/><g class="cls-10"><rect class="cls-2" x="17.27" y="40.26" width="218.76" height="141.34" transform="translate(253.3 221.85) rotate(180)"/><g class="cls-11"><path class="cls-12" d="M103,172.51c1.37-2,2.81-1.62,2.81-1.62,1.45.07,1.29-.64,1.29-.64.84-2.74,4.64-.84,4.64-.84,1.67-2.68,4.94-1.2,4.94-1.2-.84-1.19,1.52-1.34,1.52-1.34a1.31,1.31,0,0,1-1.07-1.9,2.69,2.69,0,0,1-.94-3c1.55-4.47,8.45-2.08,8.45-2.08,5.34-3.19,6.89,1.76,6.89,1.76a6.74,6.74,0,0,1,6.55,5.11c3.44-.64,7.75,2.07,7.75,2.07S135.24,162,141.29,160c0,0-4-5.18,1.08-5.18,0,0-3.41-6.18,2-7.47,0,0,.62-3.59,4.81-1.87,0,0-3.26-3.73,0-6.61s3.41,0,3.41,0a2.82,2.82,0,0,1,4,.58s.77-2.73,2.95-.43a5.68,5.68,0,0,1,2.32-5.9s2.18-4.45,6.05,0c0,0,2-1.72,3.73,3.17,0,0,3.72-3.17,5.12,1.72,0,0,2.48-3.88,4.19.72,0,0,4.5-5.32,9-2,0,0,1.7,3.16-1.55,4,0,0,4.18.29.93,6,0,0,1.39-.43,1.24,1.29l.48-.33c-.33-1.5.14-2.92,3.12-2.92,0,0-4.22-7.66,2.5-9.26,0,0,.77-4.45,6-2.31,0,0-4-4.63,0-8.19s4.23,0,4.23,0a3.47,3.47,0,0,1,5,.71s1-3.38,3.65-.53a7,7,0,0,1,2.89-7.3s2.69-5.51,7.49,0c0,0,2.5-2.13,4.61,3.92,0,0,4.62-3.92,6.34,2.13,0,0,3.08-4.8,5.19.89,0,0,5.58-6.58,11.15-2.49,0,0,2.11,3.92-1.92,5,0,0,5.19.36,1.15,7.48,0,0,1.73-.53,1.54,1.6,0,0,10.37-7.65,10.37,3.21,0,0,5.19.71,1.16,6.76a4.22,4.22,0,0,1-2.5,5.34s6,4.09-4,6.05c0,0,3.46,2.31-6.53,4.63a3.09,3.09,0,0,1-.77,3.56s5.57-2.32,6.73,2.13c0,0,1.92-1.78,3.46.72,0,0,1.76-3.74,5.18-1.25,0,0,.9-3.74,3.43-2.85,0,0-4.58-2.49,2.72-3.74,0,0,4.71-3.54,7,1,0,0,4.61,1.06,3.2,5v29.84H117.48c-1.52-1-.23-2-.23-2-.38-1.13,1.14-1.27,1.14-1.27,1.06-2.25,3.57-.85,3.57-.85.31-.77,1.52-.84,1.52-.84-1.06-.28-.53-1.06-.53-1.06-1.14-1.76,1.5-2.39,1.5-2.39.44-1.69,3.21-.77,3.21-.77,1.6-1,2.81.77,2.81.77,2.28-2,4.79.35,4.79.35.53-1.26,2.66-1.26,2.66-1.26,1.14-1.27,2.58,0,2.58,0,.53-1.13,3.35-1.34,3.35-1.34l-1.9-.64c-2.28-.64-1.45-1.19-1.45-1.19a2,2,0,0,1-1-1.62,3,3,0,0,1-2.73,2.32c-2.28.14-2.43-.56-2.43-.56a5,5,0,0,1-4.87.7c-.68-.42.31-1.54.31-1.54-3.72,2-4.41-.08-4.41-.08-1,.5-1.37,0-1.37,0-3.87,1.28-2.66,0-2.66,0-1-.25-.28-.47-.16-.5a11,11,0,0,1-3.79.34,15.1,15.1,0,0,1-4.86,0,8,8,0,0,1,2.73-1.76s-3.41.71-3-1.33a2.22,2.22,0,0,1,2.2-2c2.43-2.33,4.1-.64,4.1-.64,1.22-.63,1.6.21,1.6.21a4.52,4.52,0,0,1,5,.78c.23-1.13,2.21-.78,2.21-.78a2.07,2.07,0,0,1,3.19-1c.76-1.27,3.11-1.06,3.11-1.06-4-.56-4.48-3.31-4.48-3.31a2.85,2.85,0,0,1-2.58,2.19c-2.21.21-2.51-.5-2.51-.5-5.47,2.61-4.26-1.05-4.26-1.05-3.19,1.76-4.94-.09-4.94-.09-3.41,1-3.72,0-3.72,0-.38-.66-1.37-.32-1.37-.32-3.49.79-4.71-.15-4.71-.15C102.81,172.86,103,172.51,103,172.51Z"/><path class="cls-13" d="M129.94,170.7c-1.16-1.68-2.39-1.38-2.39-1.38-1.23.06-1.1-.54-1.1-.54-.71-2.33-4-.72-4-.72-1.42-2.27-4.2-1-4.2-1,.71-1-1.29-1.14-1.29-1.14a1.12,1.12,0,0,0,.9-1.62,2.28,2.28,0,0,0,.8-2.55c-1.32-3.8-7.18-1.77-7.18-1.77-4.55-2.71-5.87,1.5-5.87,1.5a5.71,5.71,0,0,0-5.57,4.34c-2.94-.54-6.6,1.77-6.6,1.77s9.05-5.84,3.9-7.55c0,0,3.43-4.41-.93-4.41,0,0,2.91-5.26-1.71-6.36,0,0-.53-3-4.1-1.59,0,0,2.78-3.18,0-5.62s-2.9,0-2.9,0a2.4,2.4,0,0,0-3.44.49s-.66-2.33-2.51-.37a4.82,4.82,0,0,0-2-5s-1.85-3.79-5.15,0c0,0-1.71-1.46-3.17,2.69,0,0-3.17-2.69-4.35,1.47,0,0-2.12-3.3-3.57.61,0,0-3.83-4.52-7.66-1.71,0,0-1.45,2.69,1.32,3.43,0,0-3.57.24-.79,5.13,0,0-1.19-.36-1.06,1.11,0,0-.15-.12-.41-.29.28-1.28-.12-2.48-2.66-2.48,0,0,3.6-6.52-2.12-7.88,0,0-.66-3.79-5.07-2,0,0,3.43-3.94,0-7s-3.6,0-3.6,0a3,3,0,0,0-4.26.61s-.81-2.88-3.1-.46a6,6,0,0,0-2.46-6.21s-2.29-4.69-6.38,0c0,0-2.12-1.82-3.92,3.33,0,0-3.93-3.33-5.4,1.82,0,0-2.62-4.09-4.41.76,0,0-4.75-5.61-9.49-2.12,0,0-1.8,3.33,1.63,4.24,0,0-4.41.3-1,6.36,0,0-1.47-.45-1.31,1.37,0,0-8.83-6.52-8.83,2.72,0,0-4.41.61-1,5.76A3.6,3.6,0,0,0-6.23,153s-5.07,3.48,3.43,5.15c0,0-2.94,2,5.56,3.93a2.64,2.64,0,0,0,.66,3s-4.75-2-5.73,1.82a1.81,1.81,0,0,0-2.94.61s-1.5-3.18-4.42-1.06c0,0-.76-3.18-2.91-2.43,0,0,3.89-2.12-2.32-3.18,0,0-4-3-6,.82,0,0-3.92.9-2.72,4.23v25.39H117.65c1.3-.87.2-1.7.2-1.7.32-1-1-1.08-1-1.08-.91-1.92-3-.72-3-.72-.26-.66-1.3-.72-1.3-.72.91-.24.46-.9.46-.9,1-1.49-1.28-2-1.28-2-.37-1.44-2.73-.66-2.73-.66-1.36-.84-2.4.66-2.4.66-1.94-1.68-4.07.3-4.07.3-.45-1.08-2.26-1.08-2.26-1.08a1.57,1.57,0,0,0-2.2,0c-.46-1-2.85-1.14-2.85-1.14l1.62-.55c1.94-.54,1.23-1,1.23-1a1.68,1.68,0,0,0,.84-1.37,2.55,2.55,0,0,0,2.33,2c1.94.12,2.06-.48,2.06-.48a4.27,4.27,0,0,0,4.14.6c.59-.36-.25-1.32-.25-1.32,3.16,1.68,3.75-.06,3.75-.06.84.42,1.16,0,1.16,0,3.3,1.09,2.26,0,2.26,0,.91-.21.25-.4.15-.43a9.31,9.31,0,0,0,3.22.29,13.15,13.15,0,0,0,4.14,0,6.85,6.85,0,0,0-2.33-1.49s2.91.6,2.59-1.14a1.9,1.9,0,0,0-1.88-1.68c-2.07-2-3.49-.54-3.49-.54-1-.54-1.36.18-1.36.18a3.85,3.85,0,0,0-4.27.66c-.19-1-1.87-.66-1.87-.66a1.78,1.78,0,0,0-2.72-.84c-.65-1.07-2.65-.9-2.65-.9,3.42-.47,3.81-2.81,3.81-2.81a2.44,2.44,0,0,0,2.2,1.86c1.88.18,2.14-.42,2.14-.42,4.65,2.21,3.62-.9,3.62-.9,2.71,1.5,4.2-.08,4.2-.08,2.91.88,3.17,0,3.17,0,.32-.56,1.17-.27,1.17-.27,3,.67,4-.13,4-.13C130.14,171,129.94,170.7,129.94,170.7Z"/></g><path class="cls-3" d="M165.55,116.11l8.8,20a4,4,0,0,1-2.07,5.32,8.18,8.18,0,0,1-4.66.17,2.84,2.84,0,0,1-2.11-1.73l-8-20.6Z"/><path class="cls-9" d="M159.33,110.44a7.79,7.79,0,0,1,5.74,2.72,53.88,53.88,0,0,1,9,14.82l1.25,1.64s.93,3.58-7.63,6.43c-3.55,1.17-8,2.55-9.73-.9-.49-1-2-4.36-2.56-5.74C152.54,122.18,148.48,110.27,159.33,110.44Z"/><path class="cls-7" d="M114.65,153.93c.66,1.82-.84,26.76-1.42,36a2.51,2.51,0,0,0,3,2.65c3.47-.61,9.2,1.32,18.84.21,1.74-.2,3.32-1,3.45-2.79l1.68-23.69,1-15.08Z"/><path class="cls-3" d="M113.62,115.06l-12,18.2a4,4,0,0,0,1.14,5.59,8.08,8.08,0,0,0,4.56,1,2.86,2.86,0,0,0,2.37-1.35l11.39-19Z"/><path class="cls-7" d="M164.84,153.93c-.67,1.82.84,26.76,1.42,36a2.52,2.52,0,0,1-2.95,2.65c-3.47-.61-9.2,1.32-18.84.21-1.75-.2-3.33-1-3.45-2.79l-1.69-23.69-1-15.08Z"/><path class="cls-7" d="M114.73,161.32l-.45,10.42s7.94,3.2,24.8,3.2,26-2.54,26-2.54v-12Z"/><g class="cls-14"><path class="cls-15" d="M159.37,164.29c2.49.32,5.06.76,7.46,0a2.67,2.67,0,0,0,1.76-1.35c.49-1.17-.41-2.45-1.35-3.26-3.44-3-8-4-12.42-4.52a149.13,149.13,0,0,0-19.49-.63c-5.79.07-11.58.13-17.36.64-3.33.3-8.34,1.35-7,6.25s8.61,3.59,12.21,3.47c5.72-.18,11.43-.67,17.15-1A107.88,107.88,0,0,1,159.37,164.29Z"/></g><path class="cls-9" d="M120.71,110.53a7.79,7.79,0,0,0-6.12,1.71,54.16,54.16,0,0,0-11.36,13.08l-1.51,1.41s-1.53,3.37,6.44,7.62c3.29,1.76,7.42,3.86,9.73.76.66-.88,2.74-4,3.5-5.22C125.42,123.24,131.43,112.2,120.71,110.53Z"/><ellipse class="cls-16" cx="139.74" cy="117.45" rx="18.11" ry="10.12"/><ellipse class="cls-3" cx="139.74" cy="119.02" rx="18.11" ry="10.12"/><rect class="cls-3" x="133.85" y="104.24" width="11.79" height="11.79"/><g class="cls-17"><ellipse class="cls-18" cx="139.53" cy="104.49" rx="8.88" ry="4.75"/></g><circle class="cls-19" cx="110.27" cy="81.91" r="7.89"/><circle class="cls-19" cx="169.21" cy="81.91" r="7.89"/><path class="cls-3" d="M171,67.49c0-22-14-33.31-31.29-33.31s-31.28,11.3-31.28,33.31A64.37,64.37,0,0,0,111.07,87a8.9,8.9,0,0,0-1.5,4.82c0,8.57,13.51,15.52,30.17,15.52s30.18-7,30.18-15.52a9,9,0,0,0-1.43-4.73A66.22,66.22,0,0,0,171,67.49Z"/><g class="cls-20"><path class="cls-21" d="M107.67,81a181.06,181.06,0,0,1,5.45-22.57c3.58-11.21,14.49-5.14,26.63-5.14V27.64H102.38l-1.25,52.19Z"/><path class="cls-21" d="M171.77,81a181.06,181.06,0,0,0-5.45-22.57c-3.58-11.21-14.5-5.14-26.63-5.14V27.64h37.36l1.25,52.19Z"/></g><ellipse class="cls-22" cx="139.74" cy="86.79" rx="6.64" ry="3.11"/><ellipse class="cls-8" cx="121.69" cy="79.31" rx="7.26" ry="9.13"/><g class="cls-23"><path d="M121.69,78.27a4.6,4.6,0,0,0-.52.06,2.76,2.76,0,0,1,1.12,2.19,2.84,2.84,0,0,1-2.84,2.84,2.79,2.79,0,0,1-2.72-2.27,5.8,5.8,0,1,0,5-2.82Z"/></g><ellipse class="cls-8" cx="157.8" cy="79.31" rx="7.26" ry="9.13"/><g class="cls-24"><path d="M157.8,77.78a4.2,4.2,0,0,0-.51,0A2.79,2.79,0,0,1,158.4,80a2.84,2.84,0,0,1-2.84,2.83,2.79,2.79,0,0,1-2.72-2.27,5.8,5.8,0,1,0,5-2.81Z"/></g><path class="cls-25" d="M116,67.59s4.59-4.15,12.46,0C128.44,67.59,121.48,58.56,116,67.59Z"/><path class="cls-25" d="M163.51,67.59s-4.59-4.15-12.46,0C151.05,67.59,158,58.56,163.51,67.59Z"/><ellipse class="cls-3" cx="122.66" cy="88.71" rx="7.13" ry="2.65"/><ellipse class="cls-3" cx="156.83" cy="88.71" rx="7.13" ry="2.65"/><path class="cls-9" d="M165.68,161.09c.21-11.65-1.58-26.29-2.62-33.7a80.22,80.22,0,0,0-.43-15c-.06-.86-2-1.86-2-1.86l-12.28-2c-.4,4.7-4.31,8.77-9.1,8.77a9.12,9.12,0,0,1-9.07-8.4L118,110.58s-2,1-2,1.86a83.5,83.5,0,0,0-.14,18.91c-1,8-2.25,19.91-2.07,29.74,0,0-1.17,2.82,6.58,1.82a155,155,0,0,1,18.93-.73h.52a159.14,159.14,0,0,1,19.18.73C166.86,163.91,165.68,161.09,165.68,161.09Z"/><g class="cls-26"><path class="cls-27" d="M126.65,105.8c-.3.66-.07,15,13.1,15s12.85-18.67,12.85-18.67Z"/></g><path class="cls-3" d="M156.33,122.54l-3.61,3.74a1.87,1.87,0,0,0,.09,2.65L167.87,143l6.59-7.05L159,122.45A1.89,1.89,0,0,0,156.33,122.54Z"/><g class="cls-28"><ellipse class="cls-18" cx="153.64" cy="124.99" rx="6.53" ry="5.49" transform="translate(-41.56 158.53) rotate(-48.88)"/></g><path class="cls-3" d="M167.53,142.65c-1.46-5.37,4.65-9.57,6.46-7.37,2.14,2.59,1.9,5-.29,7.5s-5.83.21-5.83.21Z"/><path class="cls-3" d="M118.61,122.54l3.62,3.74a1.88,1.88,0,0,1-.09,2.65L107.08,143l-6.59-7.05L116,122.45A1.89,1.89,0,0,1,118.61,122.54Z"/><g class="cls-29"><ellipse class="cls-18" cx="121.31" cy="124.99" rx="5.49" ry="6.53" transform="translate(-52.28 110.61) rotate(-41.12)"/></g><path class="cls-3" d="M107.42,142.65c1.45-5.37-4.66-9.57-6.47-7.37-2.13,2.59-1.9,5,.29,7.5s5.84.21,5.84.21Z"/><path class="cls-4" d="M93.82,153.13H119.6a0,0,0,0,1,0,0v23.06a9.94,9.94,0,0,1-9.94,9.94h-5.91a9.94,9.94,0,0,1-9.94-9.94V153.13A0,0,0,0,1,93.82,153.13Z" transform="translate(25.54 -13.6) rotate(8.28)"/><g class="cls-30"><rect class="cls-31" x="86.35" y="144.32" width="1.73" height="44.93" transform="translate(24.93 -10.82) rotate(8.28)"/><rect class="cls-31" x="96.08" y="145.74" width="1.73" height="44.93" transform="translate(25.24 -12.21) rotate(8.28)"/><rect class="cls-31" x="105.81" y="147.16" width="1.73" height="44.93" transform="translate(25.54 -13.6) rotate(8.28)"/><rect class="cls-31" x="115.54" y="148.57" width="1.73" height="44.93" transform="translate(25.85 -14.98) rotate(8.28)"/><rect class="cls-31" x="125.27" y="149.99" width="1.73" height="44.93" transform="translate(26.15 -16.37) rotate(8.28)"/><path class="cls-31" d="M135.65,165.68c-8.8-.67-18.14-1.67-28-3.1s-19-3.13-27.57-5l.29-2c8.47,1.94,17.67,3.71,27.55,5.15s19.29,2.38,28,2.94Z"/><path class="cls-31" d="M134.7,172.16c-8.79-.67-18.14-1.67-28-3.1s-19-3.13-27.58-5l.3-2c8.46,1.94,17.67,3.72,27.55,5.15s19.28,2.38,28,2.94Z"/><rect class="cls-32" x="91.66" y="151.41" width="35.15" height="6.52" transform="translate(23.42 -14.12) rotate(8.28)"/></g><rect class="cls-5" x="93.86" y="151.05" width="31.2" height="5.41" rx="2.71" transform="translate(23.29 -14.16) rotate(8.28)"/><g class="cls-33"><rect class="cls-34" x="89.88" y="147.25" width="42.45" height="5.13" transform="translate(22.74 -14.44) rotate(8.28)"/></g><path class="cls-35" d="M108.73,150.64s26.87-20.58,45-42.47a1.49,1.49,0,0,1,1.7-.44l1.73.84a1.38,1.38,0,0,1,.42,2c-2.54,3.89-8.94,17.42-44.82,43Z"/><circle class="cls-36" cx="108.98" cy="153.83" r="5.13" transform="translate(-71.51 99.38) rotate(-37.9)"/><circle class="cls-37" cx="108.98" cy="153.83" r="2.75"/><path class="cls-38" d="M132.51,105.47a3.31,3.31,0,0,1,3.46,0,6.24,6.24,0,0,1,2.41,2.67.93.93,0,0,0,.31.39,1.18,1.18,0,0,0,.53.08,1.72,1.72,0,0,1,1.58,1.36,2.3,2.3,0,0,1,3.25,1.21,3.85,3.85,0,0,1,3.45-.65,2.51,2.51,0,0,1,1.66,2.87c-.4,1.4-2,2-3.47,2.2a36,36,0,0,1-4.63.51c-2.46.11-5.1-.09-7.07-1.57a6.28,6.28,0,0,1-.78-9.34l0,1"/><path class="cls-39" d="M124,109a11.67,11.67,0,0,0-1.73,13.86c3.46,6.61,15.4,10.35,26.06,5.72a16.76,16.76,0,0,0,7.57-6.43c2-3.12,2.56-6.42.75-9.49l0,0c-1.45-2-4.14-.25-6.33-.77C143.31,110.23,133.15,99.51,124,109Z"/><path class="cls-40" d="M125.72,111.61s.11,1.49-2,2.61"/><path class="cls-41" d="M124.6,113.24c-1-.26-5.54-1.68-8-5.54a.7.7,0,0,1,.16-.92h0a.69.69,0,0,1,1,.2,12.88,12.88,0,0,0,7,5.71.29.29,0,0,1,.14.46h0A.28.28,0,0,1,124.6,113.24Z"/><path class="cls-42" d="M125,112.89s-5.61-1.81-4.06-9.32C120.89,103.57,127.68,107.24,125,112.89Z"/><g class="cls-43"><polygon class="cls-6" points="120.89 103.57 124.95 112.89 123.16 112.92 119.67 107.59 120.89 103.57"/></g><path class="cls-3" d="M150.68,126.46a6.61,6.61,0,0,1-2.34-1.48,8.62,8.62,0,0,0-1.19-1.15,1.57,1.57,0,0,0-1.57-.18A1.41,1.41,0,0,0,145,125a3.14,3.14,0,0,0,.6,1.45,9.51,9.51,0,0,0,5.08,3.79,3,3,0,0,0,1.41.16,1.75,1.75,0,0,0,1.12-2.33C152.82,127.07,151.57,126.78,150.68,126.46Z"/><ellipse class="cls-44" cx="146.15" cy="124.84" rx="0.8" ry="0.67" transform="translate(-45.76 114.08) rotate(-37.29)"/><path class="cls-3" d="M153.24,124.21A6.42,6.42,0,0,1,151,122.6a8.1,8.1,0,0,0-1.14-1.2,1.55,1.55,0,0,0-1.55-.27,1.41,1.41,0,0,0-.69,1.32,3.2,3.2,0,0,0,.51,1.48A9.5,9.5,0,0,0,153,128a2.91,2.91,0,0,0,1.39.24,1.75,1.75,0,0,0,1.25-2.26C155.34,124.94,154.11,124.58,153.24,124.21Z"/><ellipse class="cls-44" cx="148.81" cy="122.35" rx="0.8" ry="0.67" transform="translate(-43.03 104.72) rotate(-34.18)"/><path class="cls-3" d="M155.53,121.53a6.59,6.59,0,0,1-2.26-1.61,8.66,8.66,0,0,0-1.13-1.21,1.53,1.53,0,0,0-1.55-.26,1.39,1.39,0,0,0-.7,1.32,3.18,3.18,0,0,0,.52,1.47,9.5,9.5,0,0,0,4.87,4.07,3.24,3.24,0,0,0,1.4.24,1.76,1.76,0,0,0,1.25-2.27C157.63,122.26,156.4,121.9,155.53,121.53Z"/><ellipse class="cls-44" cx="151.09" cy="119.66" rx="0.8" ry="0.67" transform="translate(-41.13 105.54) rotate(-34.18)"/><path class="cls-3" d="M157.77,118.8a6.39,6.39,0,0,1-2.26-1.62,8.58,8.58,0,0,0-1.13-1.2,1.57,1.57,0,0,0-1.56-.27,1.41,1.41,0,0,0-.69,1.33,3.18,3.18,0,0,0,.52,1.47,9.5,9.5,0,0,0,4.87,4.07,3.06,3.06,0,0,0,1.4.23,1.75,1.75,0,0,0,1.24-2.26C159.86,119.52,158.63,119.17,157.77,118.8Z"/><ellipse class="cls-44" cx="153.33" cy="116.93" rx="0.8" ry="0.67" transform="translate(-39.21 106.33) rotate(-34.18)"/><path class="cls-3" d="M151.47,128.67a1.42,1.42,0,0,0-.32.59,1,1,0,0,0,.78,1,2.56,2.56,0,0,0,1.39-.15,9.13,9.13,0,0,0,1.68-.69,10.11,10.11,0,0,0,3.11-2.93,8.85,8.85,0,0,0,2-4.46c.12-1.44-1-.72-1.63-.26-.88.65-1.73,1.34-2.55,2.08A36.27,36.27,0,0,0,151.47,128.67Z"/><path class="cls-3" d="M124.75,126.46a6.61,6.61,0,0,0,2.34-1.48,8.69,8.69,0,0,1,1.2-1.15,1.55,1.55,0,0,1,1.56-.18,1.41,1.41,0,0,1,.62,1.36,3.13,3.13,0,0,1-.59,1.45,9.49,9.49,0,0,1-5.09,3.79,3,3,0,0,1-1.41.16,1.75,1.75,0,0,1-1.12-2.33C122.62,127.07,123.86,126.78,124.75,126.46Z"/><ellipse class="cls-44" cx="129.28" cy="124.84" rx="0.67" ry="0.8" transform="translate(-48.37 152.05) rotate(-52.71)"/><path class="cls-3" d="M122.19,124.21a6.42,6.42,0,0,0,2.25-1.61,8.65,8.65,0,0,1,1.14-1.2,1.55,1.55,0,0,1,1.55-.27,1.41,1.41,0,0,1,.7,1.32,3.21,3.21,0,0,1-.52,1.48,9.48,9.48,0,0,1-4.87,4.06,3,3,0,0,1-1.4.24,1.75,1.75,0,0,1-1.25-2.26C120.09,124.94,121.32,124.58,122.19,124.21Z"/><ellipse class="cls-44" cx="126.63" cy="122.35" rx="0.67" ry="0.8" transform="translate(-45.73 158.38) rotate(-55.82)"/><path class="cls-3" d="M119.9,121.53a6.59,6.59,0,0,0,2.26-1.61,8.66,8.66,0,0,1,1.13-1.21,1.54,1.54,0,0,1,1.56-.26,1.4,1.4,0,0,1,.69,1.32,3.18,3.18,0,0,1-.52,1.47,9.46,9.46,0,0,1-4.87,4.07,3.21,3.21,0,0,1-1.4.24,1.76,1.76,0,0,1-1.24-2.27C117.81,122.26,119,121.9,119.9,121.53Z"/><ellipse class="cls-44" cx="124.34" cy="119.66" rx="0.67" ry="0.8" transform="translate(-44.51 155.31) rotate(-55.82)"/><path class="cls-3" d="M117.67,118.8a6.45,6.45,0,0,0,2.25-1.62,8.1,8.1,0,0,1,1.14-1.2,1.55,1.55,0,0,1,1.55-.27,1.41,1.41,0,0,1,.69,1.33,3.16,3.16,0,0,1-.51,1.47,9.58,9.58,0,0,1-4.87,4.07,3.09,3.09,0,0,1-1.4.23,1.75,1.75,0,0,1-1.25-2.26C115.57,119.52,116.8,119.17,117.67,118.8Z"/><ellipse class="cls-44" cx="122.1" cy="116.93" rx="0.67" ry="0.8" transform="translate(-43.23 152.26) rotate(-55.82)"/><path class="cls-3" d="M124,128.67a1.42,1.42,0,0,1,.32.59,1,1,0,0,1-.78,1,2.56,2.56,0,0,1-1.39-.15,9.13,9.13,0,0,1-1.68-.69,10.07,10.07,0,0,1-3.1-2.93,8.86,8.86,0,0,1-2-4.46c-.12-1.44,1-.72,1.63-.26.88.65,1.73,1.34,2.55,2.08A36.27,36.27,0,0,1,124,128.67Z"/></g><path class="cls-45" d="M206.6,127.35c4.5-4.88,7.47-13.28,7.47-22.83,0-8-2.09-15.22-5.43-20.22a12.74,12.74,0,0,0-7.23-21.67c0-.05,0-.09,0-.14,0-9-11.81-16.36-26.38-16.36-7.5,0-14.27,1.95-19.08,5.08-4.31-3.11-10.69-5.08-17.82-5.08A35.12,35.12,0,0,0,126.52,48c-4.26-3.74-11.28-6.18-19.22-6.18-11.77,0-21.53,5.37-23.25,12.38a30.47,30.47,0,0,0-4.53-.33c-11.86,0-21.47,6.53-21.47,14.59,0,3.83,2.17,7.32,5.73,9.92C59.1,83.36,56.12,90.76,56.12,99a30.88,30.88,0,0,0,5.62,18.16c-3.05,2.75-4.81,6-4.81,9.39,0,10.07,15.06,18.22,33.64,18.22a57.65,57.65,0,0,0,15.41-2,56.37,56.37,0,0,0,17.54,2.67,52.33,52.33,0,0,0,22.36-4.62c6,3,14.08,4.9,22.94,4.9a55.65,55.65,0,0,0,18.33-2.94c1.19.11,2.4.17,3.65.17,10.69,0,19.35-4.43,19.35-9.89C210.15,130.94,208.84,129,206.6,127.35Z"/><path class="cls-46" d="M128.9,95.4s1,5,11,5,11.33-6.1,11.33-6.1S135.73,93.55,128.9,95.4Z"/><path class="cls-47" d="M130.48,95.52s10.44,3.28,19.66-.72C150.14,94.8,140.07,101.71,130.48,95.52Z"/><path class="cls-48" d="M146.05,96.8s1.42-.41.8-1.4-4.25-1.54-6,2.58A22.64,22.64,0,0,0,146.05,96.8Z"/></svg>