<svg id="Layer_7" data-name="Layer 7" xmlns="http://www.w3.org/2000/svg" xmlns:xlink="http://www.w3.org/1999/xlink" viewBox="0 0 260 168"><defs><style>.cls-1{fill:#fff;}.cls-2{fill:#a8651d;}.cls-3{fill:#f43434;}.cls-4{fill:#d18830;}.cls-5{fill:#893e00;}.cls-6{fill:#c57ff0;}.cls-7{fill:#9a57c2;}.cls-8{fill:#45046e;}.cls-9{fill:#703395;}.cls-10{clip-path:url(#clip-path);}.cls-11{fill:#231f20;}.cls-12{clip-path:url(#clip-path-2);}.cls-13{fill:#ffe33b;}.cls-14{fill:#4932ce;}.cls-15{fill:#7a3501;}.cls-16{fill:#e22b2b;}.cls-17{fill:#c5ddd7;}.cls-18{fill:#d6eae6;}.cls-19{fill:#bc1d1d;}.cls-20{clip-path:url(#clip-path-3);}.cls-21{fill:#935212;opacity:0.46;}.cls-22{fill:#590b0b;}.cls-23{fill:#ea4747;}.cls-24{clip-path:url(#clip-path-4);}.cls-25{fill:#914e0c;}.cls-26{clip-path:url(#clip-path-5);}.cls-27{fill:#562b04;}.cls-28{fill:#8c4b10;}.cls-29{fill:#935115;}.cls-30{clip-path:url(#clip-path-6);}.cls-31{fill:#d62525;}.cls-32{clip-path:url(#clip-path-7);}.cls-33{fill:#ea9c3f;}.cls-34{fill:#af6822;opacity:0.42;}.cls-35{clip-path:url(#clip-path-8);}.cls-36{fill:#d67422;}</style><clipPath id="clip-path"><circle class="cls-1" cx="191.53" cy="75.47" r="5.37"/></clipPath><clipPath id="clip-path-2"><circle class="cls-1" cx="173.2" cy="75.47" r="5.37"/></clipPath><clipPath id="clip-path-3"><polygon class="cls-2" points="52.59 109.67 64.44 109.91 64.63 96.49 53.63 96.49 52.59 109.67"/></clipPath><clipPath id="clip-path-4"><path class="cls-2" d="M63.17,102.87c9.58-.69,18-3.57,23.31-7.51l-.25-.24c-4.32-2.22-4.75-5.36-4.75-5.36,7.43,4.4,9.17,1.48,9.17,1.48a9.6,9.6,0,0,0,2-6.29,9,9,0,0,0-1.87-4.77,65.53,65.53,0,0,0,1.22-20C90.36,37.93,75.34,27.5,57.84,28.76s-33.25,14-31.65,36.3c0,0-1.31,28.73,29.35,37.18a19.3,19.3,0,0,0,6.67.7Z"/></clipPath><clipPath id="clip-path-5"><ellipse class="cls-1" cx="79.42" cy="73.17" rx="7.37" ry="9.27" transform="translate(-5.05 5.89) rotate(-4.12)"/></clipPath><clipPath id="clip-path-6"><path class="cls-3" d="M52.27,104.71s22.24,15.5,15.78,4.26c0,0,6.46,8.33,7.58,18.21s3.27,26.59,4.3,30.32S74.3,164,66,164.88s-27.65,2.44-31.23-6.73,2.16-38.88,6.26-48.73A3.87,3.87,0,0,1,44,107.1c1.1-.18,2.61-.48,4.33-.94C49.5,105.84,50.79,104.64,52.27,104.71Z"/></clipPath><clipPath id="clip-path-7"><path class="cls-4" d="M25.16,152.32s-7.62,23.2,1.62,29.43,35.09,6.12,42.71-.34.57-29.09.57-29.09Z"/></clipPath><clipPath id="clip-path-8"><rect class="cls-5" x="22.43" y="147.32" width="51.18" height="6.77" rx="3.39"/></clipPath></defs><path class="cls-6" d="M194.43,87.46c3.17.25,7.56-.76,12.13-3.23s11.05-7,15.44-6.32S236.05,79,254.57,94.29c0,0-10-.37-14.29,7.58,0,0-12-4.84-20.93,4.84,0,0-10.86-6.85-28.78,6.68,0,0-3.91-.46-8.49,3.83V87.59S191.26,87.21,194.43,87.46Z"/><path class="cls-7" d="M194.43,87.46c3.17.25,7.56-.76,12.13-3.23s11.05-7,15.44-6.32S236.05,79,254.57,94.29c-25.1-17.73-33.67-14.58-33.67-14.58a51,51,0,0,1,19.38,22.16c-3.57-7.49-16.09-19.65-21.48-22.16,3.75,18.61.55,27,.55,27,1.37-15.71-1.55-25.86-2.28-26.06s-14,8.06-15.39,8.34-6.36.18-9.56,1.55-10,.69-10,.69V87.59S191.27,87.21,194.43,87.46Z"/><path class="cls-8" d="M219.58,77.91a2.52,2.52,0,0,0-3.1-1.24c.57.65,1.17,1.15.79,2Z"/><path class="cls-6" d="M171.14,85.55c-3.12-.62-7.07-2.77-10.81-6.37s-8.77-9.7-13.17-10.24-13.83-2.71-35.77,7c0,0,9.72,2.34,11.72,11.15,0,0,12.83-1.44,18.85,10.3,0,0,12.31-3.68,25.93,14.17,0,0,10.78-.24,14,5.13L183,89S174.26,86.16,171.14,85.55Z"/><path class="cls-7" d="M171.14,85.55c-3.12-.62-7.07-2.77-10.81-6.37s-8.77-9.7-13.17-10.24-13.83-2.71-35.77,7c28.94-10.32,36.34-5,36.34-5a50.9,50.9,0,0,0-24.62,16.12c5.45-6.26,20.78-14.59,26.64-15.56C141.14,88.44,142,97.39,142,97.39c2.91-15.51,8.46-24.49,9.21-24.49s11.3,11.53,12.58,12.17,6.08,1.89,8.79,4.07S182,92.5,182,92.5L183,89S174.26,86.16,171.14,85.55Z"/><path class="cls-8" d="M149.49,69.59a2.52,2.52,0,0,1,3.32-.37c-.72.47-1.44.8-1.3,1.68Z"/><path class="cls-7" d="M191.2,108.32a22,22,0,0,1,2.66,2.45,6.63,6.63,0,0,1,1.58,7.63,24.27,24.27,0,0,1-1.49,4s1.19,1.56,1.26,1.7a4.4,4.4,0,0,1,.48,3.3.25.25,0,0,1-.47,0c-.13-.43-.24-.86-.4-1.28a3.2,3.2,0,0,0-.7-1.14.25.25,0,0,0-.42.19,6.06,6.06,0,0,1-.11,2,3.28,3.28,0,0,1-.9,1.6.24.24,0,0,1-.41-.21,9.07,9.07,0,0,0,.06-2.94.24.24,0,0,0-.47,0,3.11,3.11,0,0,1-2.08,2,.24.24,0,0,1-.27-.35c.23-.44.5-1.12.56-1.25.46-1.06.27-2.12.95-3.09.4-.57.57-.73,1.26-.75,1.16-2.12,2.2-4.72,1.88-7.19a4.36,4.36,0,0,0-1.31-2.67,5.09,5.09,0,0,0-1.51-.93c-.25-.1-2-.74-2.14-.52Z"/><path class="cls-7" d="M194,98.54a39.83,39.83,0,0,1-2.22-7.05c-.94-4.21-5.81-4.77-9.46-4.24-3.65-.53-8.51,0-9.45,4.24a39.83,39.83,0,0,1-2.22,7.05c-3.37,8,4.21,16,11.67,17.66C189.82,114.59,197.41,106.59,194,98.54Z"/><path class="cls-7" d="M189,62.43s1.37-11.75,18.2-13.9A1.71,1.71,0,0,1,209.11,50c.65,5.21,1.54,21-11.32,22.35C188.67,70.52,189,62.43,189,62.43Z"/><path class="cls-9" d="M189,62.43s1.37-11.75,18.2-13.9A1.71,1.71,0,0,1,209.11,50s-3.88-1.93-11.32,3.3-6.58,15.36-6.58,15.36h0A10.14,10.14,0,0,1,189,62.43Z"/><path class="cls-9" d="M197.79,53.31a6.82,6.82,0,0,1,1.85-.66,10.09,10.09,0,0,1,2-.23,9.39,9.39,0,0,1,2,.22,7.06,7.06,0,0,1,1.85.67c-.65-.11-1.28-.25-1.91-.31a12.28,12.28,0,0,0-1.91-.09,15.18,15.18,0,0,0-1.91.1Q198.75,53.11,197.79,53.31Z"/><path class="cls-9" d="M194,57.38a11.64,11.64,0,0,1,3-.89,13.47,13.47,0,0,1,3.11-.13,9.67,9.67,0,0,1,3,.86,7.12,7.12,0,0,1,2.4,2,9.59,9.59,0,0,0-2.56-1.61,10,10,0,0,0-2.91-.71,15.14,15.14,0,0,0-3,0A20.6,20.6,0,0,0,194,57.38Z"/><path class="cls-9" d="M192,61.91a6.68,6.68,0,0,1,2-.78,7.72,7.72,0,0,1,2.2-.14,6.61,6.61,0,0,1,2.14.54,6.22,6.22,0,0,1,1.8,1.22,11.19,11.19,0,0,0-1.94-.87,7.47,7.47,0,0,0-2-.41,9.14,9.14,0,0,0-2.09,0A14.15,14.15,0,0,0,192,61.91Z"/><path class="cls-7" d="M175.73,62.43s-1.38-11.75-18.21-13.9a1.7,1.7,0,0,0-1.9,1.48c-.65,5.21-1.55,21,11.32,22.35C176.05,70.52,175.73,62.43,175.73,62.43Z"/><path class="cls-9" d="M175.73,62.43s-1.38-11.75-18.21-13.9a1.7,1.7,0,0,0-1.9,1.48s3.88-1.93,11.32,3.3,6.58,15.36,6.58,15.36h0A10.22,10.22,0,0,0,175.73,62.43Z"/><path class="cls-9" d="M166.94,53.31c-.65-.13-1.28-.23-1.92-.3a15.28,15.28,0,0,0-1.91-.1,12.22,12.22,0,0,0-1.91.09c-.64.06-1.26.2-1.91.31a7.06,7.06,0,0,1,1.85-.67,9.29,9.29,0,0,1,2-.22,10,10,0,0,1,2,.23A6.88,6.88,0,0,1,166.94,53.31Z"/><path class="cls-9" d="M170.78,57.38a20.83,20.83,0,0,0-3-.52,15.24,15.24,0,0,0-3,0,10,10,0,0,0-2.9.71,9.59,9.59,0,0,0-2.56,1.61,7.12,7.12,0,0,1,2.4-2,9.54,9.54,0,0,1,3-.86,13.55,13.55,0,0,1,3.12.13A11.64,11.64,0,0,1,170.78,57.38Z"/><path class="cls-9" d="M172.75,61.91a13.78,13.78,0,0,0-2.09-.41,9.14,9.14,0,0,0-2.09,0,7.62,7.62,0,0,0-2,.41,11.91,11.91,0,0,0-1.94.87,6.41,6.41,0,0,1,1.81-1.22,6.55,6.55,0,0,1,2.14-.54,7.65,7.65,0,0,1,2.19.14A6.58,6.58,0,0,1,172.75,61.91Z"/><path class="cls-6" d="M200,78.43a32.85,32.85,0,0,0-2-9.22c-1-2.73-1.72-5.35-4.51-6.65-3.45-1.61-7.39-1.74-11.2-1.76h0c-3.81,0-7.74.15-11.19,1.76-2.8,1.3-3.56,3.92-4.51,6.65a32.85,32.85,0,0,0-1.95,9.22c-.11,2.44.24,5.09,1.92,6.85a13,13,0,0,0,3.56,2.3c1.95,1,3.81,2.21,5.8,3.15a14.36,14.36,0,0,0,12.74,0c2-.94,3.86-2.13,5.81-3.15a13,13,0,0,0,3.55-2.3C199.78,83.52,200.13,80.87,200,78.43Z"/><path class="cls-7" d="M187.55,80.35a3.76,3.76,0,0,1-1.69-2.29A2.78,2.78,0,0,0,184,75.75a10.92,10.92,0,0,0-1.61-.28,10.59,10.59,0,0,0-1.6.28,2.75,2.75,0,0,0-1.89,2.31,3.8,3.8,0,0,1-1.69,2.29c-1,.72-2.13,1.21-2,2.63a2.8,2.8,0,0,0,.64,1.66c1.27,1.46,3.56.94,5.33.25a3.5,3.5,0,0,1,2.51,0c1.77.69,4,1.21,5.32-.25a2.8,2.8,0,0,0,.64-1.66C189.67,81.56,188.54,81.07,187.55,80.35Z"/><circle class="cls-1" cx="191.53" cy="75.47" r="5.37"/><g class="cls-10"><path class="cls-11" d="M189.61,72.57a3.92,3.92,0,1,0,3.91,3.91A3.92,3.92,0,0,0,189.61,72.57Zm2.09,3.69a1.19,1.19,0,1,1,1.19-1.19A1.19,1.19,0,0,1,191.7,76.26Z"/></g><path class="cls-8" d="M184.21,79.64s.58,4.71,2.36,3.46C187.89,82.17,184.21,79.64,184.21,79.64Z"/><path class="cls-9" d="M182.36,86.54a24.14,24.14,0,0,1-11.48-2.74s4,6.49,11.48,6.56,11.49-6.56,11.49-6.56A24.17,24.17,0,0,1,182.36,86.54Z"/><circle class="cls-1" cx="173.2" cy="75.47" r="5.37"/><g class="cls-12"><path class="cls-11" d="M171.38,72.52a3.92,3.92,0,1,0,3.92,3.91A3.91,3.91,0,0,0,171.38,72.52Zm2.09,3.69A1.19,1.19,0,1,1,174.66,75,1.19,1.19,0,0,1,173.47,76.21Z"/></g><path class="cls-8" d="M180.52,79.64s-.58,4.71-2.36,3.46C176.84,82.17,180.52,79.64,180.52,79.64Z"/><path class="cls-9" d="M172.75,67.42a8.4,8.4,0,0,1,4.61,3.84.48.48,0,0,0,.91-.27c-.13-2.06-1.14-4.69-5.37-4.51A.49.49,0,0,0,172.75,67.42Z"/><path class="cls-9" d="M187.35,70.58a8.43,8.43,0,0,1,5.21-3,.49.49,0,0,0,.07-1c-2-.6-4.79-.58-6.11,3.45A.49.49,0,0,0,187.35,70.58Z"/><path class="cls-1" d="M187.61,86a8.07,8.07,0,0,1-1.41,2.19A.73.73,0,0,1,185,88a5.11,5.11,0,0,0-.75-1.47A24.29,24.29,0,0,0,187.61,86Z"/><path class="cls-1" d="M177.11,86a8,8,0,0,0,1.42,2.19.73.73,0,0,0,1.24-.27,4.86,4.86,0,0,1,.75-1.47A24.54,24.54,0,0,1,177.11,86Z"/><path class="cls-7" d="M173.53,108.32a20.59,20.59,0,0,0-2.66,2.45,7.87,7.87,0,0,0-2,3.34,7.69,7.69,0,0,0,.41,4.29,23.41,23.41,0,0,0,1.49,4s-1.19,1.56-1.27,1.7a4.39,4.39,0,0,0-.47,3.3.24.24,0,0,0,.46,0c.14-.43.25-.86.41-1.28a3.2,3.2,0,0,1,.7-1.14.24.24,0,0,1,.41.19,6.06,6.06,0,0,0,.12,2,3.34,3.34,0,0,0,.89,1.6.25.25,0,0,0,.42-.21,8.54,8.54,0,0,1-.06-2.94.24.24,0,0,1,.46,0,3.13,3.13,0,0,0,2.09,2,.24.24,0,0,0,.27-.35,12.89,12.89,0,0,1-.56-1.25c-.47-1.06-.28-2.12-1-3.09-.4-.57-.57-.73-1.27-.75-1.15-2.12-2.19-4.72-1.87-7.19a4.4,4.4,0,0,1,1.3-2.67,5.22,5.22,0,0,1,1.51-.93c.26-.1,2-.74,2.14-.52Z"/><path class="cls-6" d="M169.36,70s7.1,5.28,9.55,5.49c0,0-.69-4.16-3.3-6.08S169.36,70,169.36,70Z"/><path class="cls-6" d="M195,70s-7.09,5.28-9.55,5.49c0,0,.7-4.16,3.31-6.08S195,70,195,70Z"/><path class="cls-13" d="M22.24,150.29c0-2-.21-3.64-.46-3.68H20.23c-.26,0-.47,1.65-.47,3.68S20,154,20.23,154h1.55C22,153.94,22.24,152.3,22.24,150.29Z"/><path class="cls-14" d="M24.32,150.29c0-3.21-.33-5.81-.74-5.87H21.12c-.41,0-.75,2.63-.75,5.87s.34,5.88.75,5.88h2.46C24,156.1,24.32,153.5,24.32,150.29Z"/><path class="cls-15" d="M40.65,108.41s-13.95,17-14.8,41.21l-3.23.89S20.61,124.89,40.65,108.41Z"/><path class="cls-2" d="M61,120.84l14.35,16.89a4.05,4.05,0,0,0,5.78.47A8.29,8.29,0,0,0,83.37,134a2.91,2.91,0,0,0-.66-2.7L67.44,114.86Z"/><path class="cls-16" d="M58.59,112.64a7.92,7.92,0,0,0-.06,6.45,54.68,54.68,0,0,0,9.56,14.79l.94,1.86s2.86,2.45,9.26-4.12c2.65-2.72,5.86-6.15,3.48-9.29-.67-.89-3.08-3.78-4.1-4.89C72.32,111.63,63.24,102.66,58.59,112.64Z"/><path class="cls-2" d="M96,149.63l-3.82,3.64a1.89,1.89,0,0,1-2.69-.11L75.34,137.77l7.22-6.64,13.58,15.81A1.91,1.91,0,0,1,96,149.63Z"/><path class="cls-2" d="M106.19,148.39a3.91,3.91,0,0,1,1.65.45,1.35,1.35,0,0,1,.69,1.45c-.23.8-1.27,1-2.1,1l-5.06.14c.28.76,1.61.85,1.65,1.65a1.3,1.3,0,0,1-.17.61A10.27,10.27,0,0,1,96.12,159a3.42,3.42,0,0,1-1.35.1,3.6,3.6,0,0,1-1.66-.92,8.5,8.5,0,0,1-3.26-6.69c.17-2.81,2.68-5.44,5.55-4.82C99,147.42,102.51,148,106.19,148.39Z"/><path class="cls-2" d="M102.57,152.43a28,28,0,0,1,6.41,4.32c.42.34.86.82.73,1.35a1,1,0,0,1-1,.67,2.79,2.79,0,0,1-1.24-.4,32.45,32.45,0,0,1-7-4.43c-.25-.24-.15-.74-.23-1.08a.63.63,0,0,1,.47-.78"/><path class="cls-2" d="M101.15,155.05a27.9,27.9,0,0,1,6.15,4.67c.4.37.81.88.65,1.39a1,1,0,0,1-1,.62,2.79,2.79,0,0,1-1.22-.48,32.3,32.3,0,0,1-6.74-4.82c-.24-.25-.12-.74-.17-1.08s.17-.76.51-.76"/><path class="cls-2" d="M98.45,156.49a27.9,27.9,0,0,1,5.85,5c.37.4.75.93.56,1.43a1,1,0,0,1-1.09.55,2.91,2.91,0,0,1-1.18-.55,32.25,32.25,0,0,1-6.43-5.24c-.22-.26-.07-.75-.1-1.09s.21-.75.56-.72"/><path class="cls-2" d="M95.33,156.68a25,25,0,0,1,4.7,5c.29.39.57.9.35,1.33a.92.92,0,0,1-1,.38,2.56,2.56,0,0,1-1-.61,28.4,28.4,0,0,1-5.19-5.26c-.17-.25,0-.67,0-1s.27-.63.57-.58"/><path class="cls-17" d="M37.89,154c1.13,1.62,11.74,26.93,13.58,36.15a2.56,2.56,0,0,0,3.59,1.83c3.25-1.51,9.37-1.11,18.55-4.72,1.66-.66,3-1.89,2.65-3.65l-2.4-24.85-1.74-15.24Z"/><path class="cls-18" d="M75.17,159.36s-.51,13.3-10.21,14.43-25.09,6-28.2-15.64Z"/><path class="cls-18" d="M38,147.76c.65,1.86,4,29.1,3.31,38.47a2.56,2.56,0,0,0,3,2.73c3.53-.57,9.32,1.47,19.13.47,1.77-.18,3.39-1,3.54-2.79l4.41-24.58,2.44-15.15Z"/><path class="cls-19" d="M68.05,109s-5.8-5.76-16.75-4.14l1.86,9L70,118S70.58,111.22,68.05,109Z"/><polygon class="cls-2" points="52.59 109.67 64.44 109.91 64.63 96.49 53.63 96.49 52.59 109.67"/><g class="cls-20"><ellipse class="cls-21" cx="59.8" cy="99.64" rx="5.61" ry="10.11" transform="translate(-41.83 155.98) rotate(-88.03)"/></g><path class="cls-2" d="M69.15,111.49S64,105.74,52,105.88l3.44,12.22,15.68.71Z"/><path class="cls-22" d="M88.15,91.79a18.5,18.5,0,0,0-2.27,3.38s-4.82-3-4.71-5.43Z"/><path class="cls-1" d="M89,92.22a5.44,5.44,0,0,1-1.11,1.19c-.41.22-4.65-.74-6.31-3.41l4.17.93Z"/><ellipse class="cls-23" cx="82.42" cy="94.37" rx="2.35" ry="2.92" transform="translate(-36.31 54.34) rotate(-30.24)"/><path class="cls-2" d="M63.17,102.87c9.58-.69,18-3.57,23.31-7.51l-.25-.24c-4.32-2.22-4.75-5.36-4.75-5.36,7.43,4.4,9.17,1.48,9.17,1.48a9.6,9.6,0,0,0,2-6.29,9,9,0,0,0-1.87-4.77,65.53,65.53,0,0,0,1.22-20C90.36,37.93,75.34,27.5,57.84,28.76s-33.25,14-31.65,36.3c0,0-1.31,28.73,29.35,37.18a19.3,19.3,0,0,0,6.67.7Z"/><g class="cls-24"><path class="cls-25" d="M56.59,74.82s0-24.68,9.11-28,11.69,1,17.93,1.34,9.63-2,9.63-2L91.14,16.66,19,21.85,19.58,81,22,89.57c3.92,3.56,13.06,5.16,21.1-.42A48.38,48.38,0,0,0,56.59,74.82Z"/></g><ellipse class="cls-1" cx="79.42" cy="73.17" rx="7.37" ry="9.27" transform="translate(-5.05 5.89) rotate(-4.12)"/><g class="cls-26"><path d="M82.16,67.69a4.7,4.7,0,0,1,.53,0,2.79,2.79,0,0,0-1,2.3,2.87,2.87,0,0,0,3.08,2.67,2.84,2.84,0,0,0,2.59-2.49,5.84,5.84,0,0,1,1.08,3,5.9,5.9,0,1,1-6.31-5.47Z"/></g><path class="cls-27" d="M86.31,60.36S80.48,62.7,74.44,56C74.44,56,77.89,67,86.31,60.36Z"/><ellipse class="cls-2" cx="79.12" cy="82.76" rx="7.24" ry="2.69" transform="translate(-5.74 5.89) rotate(-4.12)"/><path class="cls-2" d="M91.43,76.75a4.84,4.84,0,0,0,2,3.51c1.88,1.28,1.28,3.39-3.09,4S88.57,71.19,91.43,76.75Z"/><path class="cls-28" d="M90.92,91.33a1.81,1.81,0,0,1-2.08,1.46c-1.84-.15-6.53-1.26-7.94-3.62a16,16,0,0,0,4.17.94C87.42,90.32,90.74,89.89,90.92,91.33Z"/><path class="cls-29" d="M81.48,89.76a9.74,9.74,0,0,0,2.87,3.93c2,1.56,2.33,1,2.34,1.93s-1.65,1.82-3.82-.76a8.77,8.77,0,0,1-2-5.69S81.54,89.41,81.48,89.76Z"/><circle class="cls-2" cx="51.24" cy="77.85" r="8.02" transform="translate(-36.71 108.68) rotate(-75.96)"/><path class="cls-3" d="M52.27,104.71s22.24,15.5,15.78,4.26c0,0,6.46,8.33,7.58,18.21s3.27,26.59,4.3,30.32S74.3,164,66,164.88s-27.65,2.44-31.23-6.73,2.16-38.88,6.26-48.73A3.87,3.87,0,0,1,44,107.1c1.1-.18,2.61-.48,4.33-.94C49.5,105.84,50.79,104.64,52.27,104.71Z"/><g class="cls-30"><path class="cls-31" d="M48,104.53s27,26.85,21.82,3l-16-5.43Z"/></g><path class="cls-13" d="M73.09,150.29c0-2,.21-3.64.46-3.68H75.1c.26,0,.47,1.65.47,3.68S75.36,154,75.1,154H73.55C73.3,153.94,73.09,152.3,73.09,150.29Z"/><path class="cls-14" d="M71,150.29c0-3.21.33-5.81.74-5.87h2.46c.41,0,.75,2.63.75,5.87s-.34,5.88-.75,5.88H71.75C71.34,156.1,71,153.5,71,150.29Z"/><path class="cls-15" d="M71,147.37s2.52-27.24-.94-35.48l1.23.7s5.62,12.54,2.1,36.56Z"/><path class="cls-4" d="M25.16,152.32s-7.62,23.2,1.62,29.43,35.09,6.12,42.71-.34.57-29.09.57-29.09Z"/><g class="cls-32"><rect class="cls-33" x="26.6" y="144.98" width="1.77" height="45.93"/><rect class="cls-33" x="36.65" y="144.98" width="1.77" height="45.93"/><rect class="cls-33" x="46.7" y="144.98" width="1.77" height="45.93"/><rect class="cls-33" x="56.75" y="144.98" width="1.77" height="45.93"/><rect class="cls-33" x="66.8" y="144.98" width="1.77" height="45.93"/><path class="cls-33" d="M76.3,159.69c-9,.62-18.59,1-28.74,1s-19.67-.37-28.63-1v-2.07c8.85.71,18.43,1.15,28.63,1.15s19.86-.44,28.74-1.15Z"/><path class="cls-33" d="M76.3,166.39c-9,.62-18.59,1-28.74,1s-19.67-.37-28.63-1v-2.08c8.85.72,18.43,1.15,28.63,1.16s19.86-.44,28.74-1.16Z"/><rect class="cls-34" x="19.51" y="147.7" width="58.75" height="8.08"/></g><rect class="cls-5" x="22.43" y="147.32" width="51.18" height="6.77" rx="3.39"/><g class="cls-35"><rect class="cls-36" x="20.12" y="144.86" width="55.1" height="3.54"/></g><path class="cls-2" d="M37.41,113.41l-8,20.68a4.05,4.05,0,0,0,2.35,5.3,8.29,8.29,0,0,0,4.74,0,2.92,2.92,0,0,0,2.06-1.87l7.16-21.28Z"/><path class="cls-3" d="M43.45,107.37a7.89,7.89,0,0,0-5.69,3,54.68,54.68,0,0,0-8.42,15.46l-1.19,1.72s-.78,3.68,8.05,6.16c3.65,1,8.2,2.21,9.82-1.37.46-1,1.85-4.52,2.33-5.94C50.9,119,54.45,106.68,43.45,107.37Z"/><path class="cls-2" d="M32.78,158.27l5.27-.11a1.92,1.92,0,0,0,1.83-2L39,135.26l-9.79.4,1.56,20.79A1.89,1.89,0,0,0,32.78,158.27Z"/><path class="cls-2" d="M47.23,161.49a4,4,0,0,1,1,1.42,1.36,1.36,0,0,1-.42,1.55c-.7.45-1.6-.09-2.25-.62l-3.93-3.18c-.28.76.67,1.69.18,2.33a1.3,1.3,0,0,1-.53.35A10.26,10.26,0,0,1,32.7,163a3.46,3.46,0,0,1-1.09-.8,3.64,3.64,0,0,1-.66-1.78,8.56,8.56,0,0,1,1.88-7.21c2-2,5.58-2.37,7.35,0C42.41,156.07,44.72,158.77,47.23,161.49Z"/><path class="cls-2" d="M41.86,162.2a28.11,28.11,0,0,1,2,7.45c.09.54.11,1.19-.33,1.5a1,1,0,0,1-1.21-.15,2.91,2.91,0,0,1-.68-1.12A32.81,32.81,0,0,1,39.26,162c0-.35.36-.66.52-1a.64.64,0,0,1,.88-.28"/><path class="cls-2" d="M39.07,163.26a27.74,27.74,0,0,1,1.63,7.56c.06.53,0,1.19-.41,1.47a1,1,0,0,1-1.2-.22,2.68,2.68,0,0,1-.62-1.15,32.23,32.23,0,0,1-2-8c0-.34.39-.64.57-.93a.63.63,0,0,1,.89-.24"/><path class="cls-2" d="M36.09,162.6a27.77,27.77,0,0,1,1.15,7.64c0,.54,0,1.19-.51,1.45a1,1,0,0,1-1.19-.3A2.74,2.74,0,0,1,35,170.2a32.57,32.57,0,0,1-1.47-8.15c0-.35.44-.61.64-.9a.62.62,0,0,1,.89-.18"/><path class="cls-2" d="M33.6,160.71a24.76,24.76,0,0,1,.28,6.88c0,.48-.14,1-.59,1.23a.91.91,0,0,1-1-.37,2.51,2.51,0,0,1-.36-1.11A28.55,28.55,0,0,1,31.4,160c0-.31.44-.5.65-.73a.55.55,0,0,1,.81-.07"/></svg>