<svg id="Layer_2" data-name="Layer 2" xmlns="http://www.w3.org/2000/svg" xmlns:xlink="http://www.w3.org/1999/xlink" viewBox="0 0 260 168"><defs><style>.cls-1{fill:#c5ddd7;}.cls-2{fill:#d6eae6;}.cls-3{fill:#a8651d;}.cls-4{fill:#fff;}.cls-5{fill:#f43434;}.cls-6{fill:#d18830;}.cls-7{fill:#893e00;}.cls-8{fill:#ffe33b;}.cls-9{fill:#4932ce;}.cls-10{fill:#7a3501;}.cls-11{fill:#e22b2b;}.cls-12{fill:#a05e1d;}.cls-13{clip-path:url(#clip-path);}.cls-14{fill:#aecec5;}.cls-14,.cls-18{opacity:0.44;}.cls-15{fill:#f49c00;}.cls-16{fill:#f28f00;}.cls-17{clip-path:url(#clip-path-2);}.cls-18{fill:#bcd8d1;}.cls-19{fill:#c0e2da;}.cls-20{fill:#bc1d1d;}.cls-21{clip-path:url(#clip-path-3);}.cls-22{fill:#935212;opacity:0.46;}.cls-23{fill:#590b0b;}.cls-24{fill:#ea4747;}.cls-25{clip-path:url(#clip-path-4);}.cls-26{fill:#914e0c;}.cls-27{clip-path:url(#clip-path-5);}.cls-28{fill:#562b04;}.cls-29{fill:#8c4b10;}.cls-30{fill:#935115;}.cls-31{clip-path:url(#clip-path-6);}.cls-32{fill:#d62525;}.cls-33{clip-path:url(#clip-path-7);}.cls-34{fill:#ea9c3f;}.cls-35{fill:#af6822;opacity:0.42;}.cls-36{clip-path:url(#clip-path-8);}.cls-37{fill:#d67422;}</style><clipPath id="clip-path"><path class="cls-1" d="M36.05,130.08c0,.85-2.64,12.43-4.31,16.14a1.11,1.11,0,0,0,.8,1.55c1.53.29,3.58,2,7.72,3a1.49,1.49,0,0,0,1.86-.61l5.4-9.36L50.74,135Z"/></clipPath><clipPath id="clip-path-2"><path class="cls-2" d="M36.85,137.3c.66.54,8.07,9.82,9.94,13.44a1.1,1.1,0,0,0,1.71.33c1.17-1,3.77-1.57,7.16-4.16a1.48,1.48,0,0,0,.67-1.83L52.38,135l-2.53-6.14Z"/></clipPath><clipPath id="clip-path-3"><polygon class="cls-3" points="42.27 115.24 47.4 115.34 47.48 109.54 42.72 109.54 42.27 115.24"/></clipPath><clipPath id="clip-path-4"><path class="cls-3" d="M46.53,111.92a19.93,19.93,0,0,0,10.58-.69L57,111.1a3.48,3.48,0,0,1-1.42-2.75c2.65,2.63,3.69,1.59,3.69,1.59a4.18,4.18,0,0,0,1.49-2.43,3.92,3.92,0,0,0-.28-2.2,28.41,28.41,0,0,0,2.62-8.25c1.68-9.52-3.52-15.48-11-16.8S36.68,82.62,35,92.15a16.42,16.42,0,0,0,8.39,18.7,8.45,8.45,0,0,0,2.73,1Z"/></clipPath><clipPath id="clip-path-5"><ellipse class="cls-4" cx="56.49" cy="101.17" rx="4.01" ry="3.19" transform="translate(-52.96 139.22) rotate(-80)"/></clipPath><clipPath id="clip-path-6"><path class="cls-5" d="M42.13,113.09s9.63,6.71,6.83,1.85a17.83,17.83,0,0,1,3.28,7.88c.49,4.28,1.41,11.51,1.86,13.12s-2.43,2.83-6,3.2-12,1.05-13.51-2.92.93-16.83,2.71-21.08a1.67,1.67,0,0,1,1.27-1c.48-.08,1.13-.21,1.88-.41C40.93,113.58,41.49,113.06,42.13,113.09Z"/></clipPath><clipPath id="clip-path-7"><path class="cls-6" d="M30.4,133.7s-3.3,10,.7,12.74,15.18,2.64,18.48-.15.25-12.59.25-12.59Z"/></clipPath><clipPath id="clip-path-8"><rect class="cls-7" x="29.22" y="131.53" width="22.15" height="2.93" rx="1.47"/></clipPath></defs><path class="cls-8" d="M29.13,132.82a3.4,3.4,0,0,0-.2-1.59h-.66c-.12,0-.21.71-.21,1.59s.09,1.6.21,1.6h.66A3.4,3.4,0,0,0,29.13,132.82Z"/><path class="cls-9" d="M30,132.82a5.56,5.56,0,0,0-.32-2.54H28.65c-.18,0-.32,1.14-.32,2.54s.14,2.54.32,2.54h1.07A5.53,5.53,0,0,0,30,132.82Z"/><path class="cls-10" d="M37.1,114.7a32.43,32.43,0,0,0-6.4,17.83l-1.4.39S28.43,121.83,37.1,114.7Z"/><path class="cls-3" d="M45.65,119.27l4.13,7.64a1.58,1.58,0,0,0,2.17.65,3.27,3.27,0,0,0,1.2-1.42,1.17,1.17,0,0,0,0-1.09L48.6,117.5Z"/><path class="cls-11" d="M45.39,115.93a3.13,3.13,0,0,0-.55,2.47,21.74,21.74,0,0,0,2.46,6.44l.21.8s.9,1.16,3.89-.83c1.23-.83,2.74-1.88,2.09-3.28-.19-.39-.88-1.7-1.18-2.2C50.74,116.67,48,112.49,45.39,115.93Z"/><path class="cls-3" d="M56.73,133.16,55,134.24a.76.76,0,0,1-1-.26l-4.17-7,3.3-2L57,132.13A.76.76,0,0,1,56.73,133.16Z"/><path class="cls-3" d="M60.72,133.51a1.69,1.69,0,0,1,.6.3.55.55,0,0,1,.14.62c-.15.28-.56.27-.88.21l-2-.36c.05.31.55.46.5.77a.51.51,0,0,1-.11.22,4.06,4.06,0,0,1-3,1.48,1.37,1.37,0,0,1-.53-.08,1.43,1.43,0,0,1-.56-.48,3.34,3.34,0,0,1-.7-2.83,1.94,1.94,0,0,1,2.52-1.4A41.71,41.71,0,0,0,60.72,133.51Z"/><path class="cls-3" d="M59,134.76a10.9,10.9,0,0,1,2.11,2.18c.13.16.26.38.17.57a.4.4,0,0,1-.45.18,1.1,1.1,0,0,1-.44-.26,12.42,12.42,0,0,1-2.32-2.26c-.08-.12,0-.3,0-.43s.12-.29.25-.27"/><path class="cls-3" d="M58.24,135.65a10.56,10.56,0,0,1,2,2.29c.12.17.24.4.14.59a.42.42,0,0,1-.46.15,1.1,1.1,0,0,1-.42-.29A12.39,12.39,0,0,1,57.29,136c-.08-.12,0-.29,0-.43s.13-.28.26-.25"/><path class="cls-3" d="M57.09,136a11.15,11.15,0,0,1,1.84,2.41c.1.18.21.42.09.6a.41.41,0,0,1-.46.12,1.24,1.24,0,0,1-.41-.31,12.6,12.6,0,0,1-2-2.53c-.07-.12,0-.29.05-.43a.25.25,0,0,1,.27-.23"/><path class="cls-3" d="M55.88,135.8a9.34,9.34,0,0,1,1.39,2.31c.08.17.15.39,0,.54a.34.34,0,0,1-.42.06,1,1,0,0,1-.33-.31A11.23,11.23,0,0,1,55,136c-.05-.11.06-.26.08-.37s.16-.23.27-.18"/><path class="cls-12" d="M37.68,144.86l-7.06,10.73a6.26,6.26,0,0,0,4.24,2.74l7.72-10.25a2.67,2.67,0,0,0-1.15-3.6A2.66,2.66,0,0,0,37.68,144.86Z"/><path class="cls-1" d="M36.05,130.08c0,.85-2.64,12.43-4.31,16.14a1.11,1.11,0,0,0,.8,1.55c1.53.29,3.58,2,7.72,3a1.49,1.49,0,0,0,1.86-.61l5.4-9.36L50.74,135Z"/><g class="cls-13"><path class="cls-14" d="M36.76,148.28a17.43,17.43,0,0,0,7.12,1.9,10,10,0,0,1-.93,2.09.47.47,0,0,1-.18.19.36.36,0,0,1-.25,0,67.25,67.25,0,0,1-12.1-4.67c-.27-.13-.57-.33-.56-.63a.83.83,0,0,1,.2-.41c.94-1.15,1.5-1.18,2.86-.61A41.42,41.42,0,0,1,36.76,148.28Z"/></g><path class="cls-15" d="M39.05,161.51a5.41,5.41,0,0,1,1.69.83,1,1,0,0,1,.08,1.06s-.74.66-5.87-.58-6.44-2.14-6.44-2.14-.23-.26.24-1.19S39.05,161.51,39.05,161.51Z"/><path class="cls-12" d="M35.13,157.37s3.45,2.7,4.15,3.16,1.31.69,1,1.47-2,.29-3.57-.05-7-1.15-7.46-2.61,1.31-3.68,1.31-3.68A4.11,4.11,0,0,1,35.13,157.37Z"/><path class="cls-16" d="M37.1,162.08s.78-1.94,1.64-2a1.07,1.07,0,0,0-.72-.58,4,4,0,0,0-1.58,2.41S36.53,162.19,37.1,162.08Z"/><path class="cls-2" d="M52,136.75s-.22,5.75-4.42,6.24-10.86,2.59-12.2-6.77Z"/><path class="cls-3" d="M46.48,146l2.87,12.52a6.23,6.23,0,0,0,4.91-1.17l-2.07-12.66A2.66,2.66,0,0,0,48.8,143,2.66,2.66,0,0,0,46.48,146Z"/><path class="cls-2" d="M36.85,137.3c.66.54,8.07,9.82,9.94,13.44a1.1,1.1,0,0,0,1.71.33c1.17-1,3.77-1.57,7.16-4.16a1.48,1.48,0,0,0,.67-1.83L52.38,135l-2.53-6.14Z"/><g class="cls-17"><path class="cls-18" d="M51.52,148.09a17.25,17.25,0,0,0,5.92-4.38,9.88,9.88,0,0,1,1.06,2,.3.3,0,0,1-.13.44,68.18,68.18,0,0,1-11.2,6.55c-.27.12-.62.24-.84,0a.74.74,0,0,1-.19-.41c-.32-1.45,0-1.91,1.3-2.62S50.17,148.67,51.52,148.09Z"/></g><rect class="cls-19" x="46.64" y="142.46" width="6.53" height="4.78" rx="0.95" transform="translate(164.3 246.77) rotate(150.71)"/><path class="cls-15" d="M59.62,159.32a5.56,5.56,0,0,1,1.89,0c.54.21.54.92.54.92s-.37.92-5.51,2.1-6.72,1-6.72,1-.32-.14-.31-1.18S59.62,159.32,59.62,159.32Z"/><path class="cls-3" d="M54.26,157.35s4.3.88,5.13,1,1.49,0,1.55.87-1.65,1.15-3.22,1.55-6.79,2.1-7.84,1-.46-3.88-.46-3.88A4.1,4.1,0,0,1,54.26,157.35Z"/><path class="cls-16" d="M58.13,160.69s-.16-2.08.58-2.5a1.09,1.09,0,0,0-.9-.2,4.07,4.07,0,0,0-.34,2.87S57.67,161.05,58.13,160.69Z"/><path class="cls-20" d="M49,114.94s-2.51-2.49-7.25-1.79l.8,3.91,7.3,1.77S50.05,115.91,49,114.94Z"/><polygon class="cls-3" points="42.27 115.24 47.4 115.34 47.48 109.54 42.72 109.54 42.27 115.24"/><g class="cls-21"><ellipse class="cls-22" cx="45.77" cy="110.68" rx="2.43" ry="4.37" transform="translate(-71.55 134.79) rotate(-79.14)"/></g><path class="cls-3" d="M49.43,116s-2.24-2.49-7.41-2.43l1.49,5.29,6.79.31Z"/><path class="cls-23" d="M58.18,109.91a7.89,7.89,0,0,0-1.31,1.18s-1.7-1.76-1.4-2.78Z"/><path class="cls-4" d="M58.49,110.18a2.6,2.6,0,0,1-.59.38,3.73,3.73,0,0,1-2.29-2.1l1.65.83Z"/><ellipse class="cls-24" cx="55.51" cy="110.39" rx="1.02" ry="1.26" transform="translate(-28.46 19.74) rotate(-16.11)"/><path class="cls-3" d="M46.53,111.92a19.93,19.93,0,0,0,10.58-.69L57,111.1a3.48,3.48,0,0,1-1.42-2.75c2.65,2.63,3.69,1.59,3.69,1.59a4.18,4.18,0,0,0,1.49-2.43,3.92,3.92,0,0,0-.28-2.2,28.41,28.41,0,0,0,2.62-8.25c1.68-9.52-3.52-15.48-11-16.8S36.68,82.62,35,92.15a16.42,16.42,0,0,0,8.39,18.7,8.45,8.45,0,0,0,2.73,1Z"/><g class="cls-25"><path class="cls-26" d="M46.73,99.45s2.59-10.36,6.78-10.77,4.79,1.67,7.38,2.45a7.18,7.18,0,0,0,4.25.18l2.23-12.62L36.55,73.26l-6,24.9.09,3.83c1.27,1.9,4.94,3.54,8.9,2.05A20.84,20.84,0,0,0,46.73,99.45Z"/></g><ellipse class="cls-4" cx="56.49" cy="101.17" rx="4.01" ry="3.19" transform="translate(-52.96 139.22) rotate(-80)"/><g class="cls-27"><path d="M58,100.58l.22.07a1.2,1.2,0,0,0-.65.86,1.25,1.25,0,0,0,1,1.45,1.23,1.23,0,0,0,1.35-.78,2.5,2.5,0,0,1,.14,1.36,2.55,2.55,0,1,1-2.07-3Z"/></g><path class="cls-28" d="M59.85,96.53s-1.67-2.14-5.39-1C54.46,95.58,58.16,92.21,59.85,96.53Z"/><ellipse class="cls-3" cx="55.35" cy="105.16" rx="1.16" ry="3.13" transform="translate(-57.83 141.4) rotate(-80)"/><path class="cls-3" d="M61.15,103.94a2.1,2.1,0,0,0,.45,1.69c.66.73.18,1.55-1.72,1.34S60.53,101.31,61.15,103.94Z"/><path class="cls-29" d="M59.39,110a.77.77,0,0,1-1,.39c-.76-.26-2.61-1.22-3-2.36a6.73,6.73,0,0,0,1.66.84C58,109.21,59.47,109.38,59.39,110Z"/><path class="cls-30" d="M55.6,108.35a4.26,4.26,0,0,0,.79,2c.68.86.87.67.78,1s-.89.59-1.53-.72a3.82,3.82,0,0,1-.23-2.6S55.66,108.21,55.6,108.35Z"/><circle class="cls-3" cx="44.16" cy="100.16" r="3.47"/><path class="cls-5" d="M42.13,113.09s9.63,6.71,6.83,1.85a17.83,17.83,0,0,1,3.28,7.88c.49,4.28,1.41,11.51,1.86,13.12s-2.43,2.83-6,3.2-12,1.05-13.51-2.92.93-16.83,2.71-21.08a1.67,1.67,0,0,1,1.27-1c.48-.08,1.13-.21,1.88-.41C40.93,113.58,41.49,113.06,42.13,113.09Z"/><g class="cls-31"><path class="cls-32" d="M40.26,113s11.69,11.62,9.45,1.31L42.8,112Z"/></g><path class="cls-8" d="M51.14,132.82a3.4,3.4,0,0,1,.2-1.59H52a3.33,3.33,0,0,1,.2,1.59,3.39,3.39,0,0,1-.2,1.6h-.67A3.4,3.4,0,0,1,51.14,132.82Z"/><path class="cls-9" d="M50.24,132.82a5.41,5.41,0,0,1,.32-2.54h1.07a5.43,5.43,0,0,1,.32,2.54c0,1.41-.15,2.54-.33,2.54H50.56A5.38,5.38,0,0,1,50.24,132.82Z"/><path class="cls-10" d="M50.21,131.56s1.1-11.79-.4-15.36l.53.3s2.43,5.43.91,15.83Z"/><path class="cls-6" d="M30.4,133.7s-3.3,10,.7,12.74,15.18,2.64,18.48-.15.25-12.59.25-12.59Z"/><g class="cls-33"><rect class="cls-34" x="31.02" y="130.52" width="0.77" height="19.87"/><rect class="cls-34" x="35.37" y="130.52" width="0.77" height="19.87"/><rect class="cls-34" x="39.72" y="130.52" width="0.77" height="19.87"/><rect class="cls-34" x="44.07" y="130.52" width="0.77" height="19.87"/><rect class="cls-34" x="48.42" y="130.52" width="0.77" height="19.87"/><path class="cls-34" d="M52.53,136.89c-3.89.27-8.05.43-12.44.42s-8.51-.15-12.39-.42V136c3.83.31,8,.5,12.39.5s8.6-.19,12.44-.5Z"/><path class="cls-34" d="M52.53,139.79c-3.89.26-8.05.42-12.44.42s-8.51-.16-12.39-.42v-.9c3.83.31,8,.5,12.39.5s8.6-.19,12.44-.5Z"/><path class="cls-34" d="M52.53,142.68c-3.89.27-8.05.43-12.44.43s-8.51-.16-12.39-.43v-.89c3.83.3,8,.49,12.39.49s8.6-.18,12.44-.49Z"/><path class="cls-34" d="M52.53,145.58c-3.89.27-8.05.43-12.44.43s-8.51-.16-12.39-.43v-.9c3.83.31,8,.5,12.39.5s8.6-.19,12.44-.5Z"/><rect class="cls-35" x="27.95" y="131.7" width="25.43" height="3.5"/></g><rect class="cls-7" x="29.22" y="131.53" width="22.15" height="2.93" rx="1.47"/><g class="cls-36"><rect class="cls-37" x="28.22" y="130.47" width="23.84" height="1.53"/></g><path class="cls-3" d="M36.29,116.15l-5.27,8a1.75,1.75,0,0,0,.51,2.46,3.55,3.55,0,0,0,2,.42,1.3,1.3,0,0,0,1-.6l5-8.35Z"/><path class="cls-5" d="M39.4,114.15a3.4,3.4,0,0,0-2.69.76,23.73,23.73,0,0,0-5,5.76l-.66.62s-.66,1.49,2.84,3.35c1.45.77,3.27,1.68,4.28.32.29-.39,1.2-1.75,1.53-2.3C41.49,119.73,44.11,114.86,39.4,114.15Z"/><path class="cls-3" d="M29.25,134.46l-2.06-1a.81.81,0,0,1-.37-1.1l4-8.11,3.8,1.89-4.29,7.93A.82.82,0,0,1,29.25,134.46Z"/><path class="cls-3" d="M30.3,133.91s.13,3.38-.34,4-1.24.79-1.3-1.24c0,0-.19-.26-.35.07a12.38,12.38,0,0,0-.63,3.23s0,.66-.73.5-1.06-2.39-1.13-4.36a9.59,9.59,0,0,1,1.29-4.27,2.08,2.08,0,0,1,2.19.19A2.32,2.32,0,0,1,30.3,133.91Z"/></svg>