<svg id="Layer_6" data-name="Layer 6" xmlns="http://www.w3.org/2000/svg" xmlns:xlink="http://www.w3.org/1999/xlink" viewBox="0 0 260 168"><defs><style>.cls-1{fill:#c5ddd7;}.cls-2{fill:#d6eae6;}.cls-3{fill:#a8651d;}.cls-4{fill:#fff;}.cls-5{fill:#f43434;}.cls-6{fill:#d18830;}.cls-7{fill:#893e00;}.cls-8{fill:#ffe33b;}.cls-9{fill:#4932ce;}.cls-10{fill:#7a3501;}.cls-11{fill:#e22b2b;}.cls-12{fill:#a05e1d;}.cls-13{clip-path:url(#clip-path);}.cls-14{fill:#aecec5;}.cls-14,.cls-18{opacity:0.44;}.cls-15{fill:#f49c00;}.cls-16{fill:#f28f00;}.cls-17{clip-path:url(#clip-path-2);}.cls-18{fill:#bcd8d1;}.cls-19{fill:#c0e2da;}.cls-20{fill:#bc1d1d;}.cls-21{clip-path:url(#clip-path-3);}.cls-22{fill:#935212;opacity:0.46;}.cls-23{fill:#590b0b;}.cls-24{fill:#ea4747;}.cls-25{clip-path:url(#clip-path-4);}.cls-26{fill:#914e0c;}.cls-27{clip-path:url(#clip-path-5);}.cls-28{fill:#562b04;}.cls-29{fill:#8c4b10;}.cls-30{fill:#935115;}.cls-31{clip-path:url(#clip-path-6);}.cls-32{fill:#d62525;}.cls-33{clip-path:url(#clip-path-7);}.cls-34{fill:#ea9c3f;}.cls-35{fill:#af6822;opacity:0.42;}.cls-36{clip-path:url(#clip-path-8);}.cls-37{fill:#d67422;}</style><clipPath id="clip-path"><path class="cls-1" d="M19.79,134.4c.49.7,5.08,11.66,5.88,15.65a1.1,1.1,0,0,0,1.55.79c1.41-.65,4.06-.48,8-2,.72-.29,1.3-.82,1.15-1.58l-1-10.76-.75-6.59Z"/></clipPath><clipPath id="clip-path-2"><path class="cls-2" d="M20.36,130.79c.13.84-.61,12.7-1.67,16.63a1.11,1.11,0,0,0,1,1.4c1.55,0,3.85,1.37,8.1,1.73.77.06,1.53-.16,1.73-.91l3.84-10.1,2.25-6.24Z"/></clipPath><clipPath id="clip-path-3"><polygon class="cls-3" points="26.16 115.24 31.29 115.34 31.37 109.54 26.61 109.54 26.16 115.24"/></clipPath><clipPath id="clip-path-4"><path class="cls-3" d="M30.44,111.7a19.89,19.89,0,0,0,10.14-3.06l-.1-.1a3.49,3.49,0,0,1-2-2.36c3.17,2,4,.72,4,.72a4.17,4.17,0,0,0,.91-2.71,3.91,3.91,0,0,0-.77-2.08,28.42,28.42,0,0,0,.69-8.62c-.5-9.66-6.91-14.3-14.49-13.91S14.25,85.36,14.76,95a16.41,16.41,0,0,0,12.38,16.34,8.5,8.5,0,0,0,2.88.36Z"/></clipPath><clipPath id="clip-path-5"><ellipse class="cls-4" cx="37.72" cy="98.98" rx="3.19" ry="4.01" transform="translate(-5.11 2.1) rotate(-2.99)"/></clipPath><clipPath id="clip-path-6"><path class="cls-5" d="M26,113.09s9.62,6.71,6.83,1.85a18,18,0,0,1,3.28,7.88c.49,4.28,1.41,11.51,1.86,13.12s-2.44,2.83-6,3.2-12,1.05-13.51-2.92.93-16.83,2.7-21.08a1.68,1.68,0,0,1,1.28-1c.47-.08,1.13-.21,1.87-.41C24.82,113.58,25.38,113.06,26,113.09Z"/></clipPath><clipPath id="clip-path-7"><path class="cls-6" d="M14.29,133.7s-3.3,10,.7,12.74,15.18,2.64,18.48-.15.25-12.59.25-12.59Z"/></clipPath><clipPath id="clip-path-8"><rect class="cls-7" x="13.1" y="131.53" width="22.15" height="2.93" rx="1.47"/></clipPath></defs><path class="cls-8" d="M13,132.82a3.4,3.4,0,0,0-.2-1.59h-.67a3.33,3.33,0,0,0-.2,1.59,3.39,3.39,0,0,0,.2,1.6h.67A3.4,3.4,0,0,0,13,132.82Z"/><path class="cls-9" d="M13.92,132.82a5.41,5.41,0,0,0-.32-2.54H12.54c-.18,0-.33,1.14-.33,2.54s.15,2.54.33,2.54H13.6A5.38,5.38,0,0,0,13.92,132.82Z"/><path class="cls-10" d="M21,114.7a32.43,32.43,0,0,0-6.4,17.83l-1.4.39S12.32,121.83,21,114.7Z"/><path class="cls-3" d="M29.54,119.27l4.12,7.64a1.59,1.59,0,0,0,2.18.65A3.26,3.26,0,0,0,37,126.14a1.14,1.14,0,0,0,0-1.09l-4.51-7.55Z"/><path class="cls-11" d="M29.28,115.93a3.13,3.13,0,0,0-.55,2.47,21.46,21.46,0,0,0,2.46,6.44l.21.8s.9,1.16,3.88-.83c1.24-.83,2.75-1.88,2.1-3.28-.19-.39-.88-1.7-1.18-2.2C34.62,116.67,31.88,112.49,29.28,115.93Z"/><path class="cls-3" d="M40.61,133.16l-1.76,1.08a.75.75,0,0,1-1-.26l-4.18-7L37,125l3.91,7.16A.75.75,0,0,1,40.61,133.16Z"/><path class="cls-3" d="M44.61,133.51a1.57,1.57,0,0,1,.59.3.53.53,0,0,1,.15.62c-.15.28-.57.27-.89.21l-2-.36c.05.31.55.46.5.77a.44.44,0,0,1-.12.22,4,4,0,0,1-3,1.48,1.16,1.16,0,0,1-1.09-.56,3.35,3.35,0,0,1-.71-2.83,1.94,1.94,0,0,1,2.52-1.4C41.93,132.55,43.23,133.05,44.61,133.51Z"/><path class="cls-3" d="M42.89,134.76A10.9,10.9,0,0,1,45,136.94c.13.16.26.38.16.57a.38.38,0,0,1-.44.18,1.1,1.1,0,0,1-.44-.26A12.79,12.79,0,0,1,42,135.17c-.08-.12,0-.3,0-.43s.11-.29.25-.27"/><path class="cls-3" d="M42.13,135.65a10.84,10.84,0,0,1,2,2.29c.12.17.24.4.14.59a.42.42,0,0,1-.46.15,1.21,1.21,0,0,1-.43-.29A12.72,12.72,0,0,1,41.17,136c-.07-.12,0-.29,0-.43s.12-.28.26-.25"/><path class="cls-3" d="M41,136a10.8,10.8,0,0,1,1.83,2.41.61.61,0,0,1,.1.6.41.41,0,0,1-.46.12,1.14,1.14,0,0,1-.41-.31,13,13,0,0,1-2-2.53c-.06-.12,0-.29,0-.43a.26.26,0,0,1,.28-.23"/><path class="cls-3" d="M39.77,135.8a9.66,9.66,0,0,1,1.39,2.31c.08.17.15.39,0,.54a.35.35,0,0,1-.42.06,1,1,0,0,1-.33-.31A11.23,11.23,0,0,1,38.88,136c-.05-.11.06-.26.08-.37s.15-.23.27-.18"/><path class="cls-12" d="M29.71,145.49l.49,12.83a6.27,6.27,0,0,0,5-.23l.33-12.83a2.66,2.66,0,0,0-3-2.26A2.67,2.67,0,0,0,29.71,145.49Z"/><path class="cls-1" d="M19.79,134.4c.49.7,5.08,11.66,5.88,15.65a1.1,1.1,0,0,0,1.55.79c1.41-.65,4.06-.48,8-2,.72-.29,1.3-.82,1.15-1.58l-1-10.76-.75-6.59Z"/><g class="cls-13"><path class="cls-14" d="M31,148.8a17.24,17.24,0,0,0,6.9-2.59,10.1,10.1,0,0,1,.46,2.25.43.43,0,0,1,0,.25.39.39,0,0,1-.21.14,67.94,67.94,0,0,1-12.56,3.23c-.3,0-.66.06-.83-.2a.74.74,0,0,1-.07-.44c.09-1.49.53-1.84,2-2.16S29.49,149,31,148.8Z"/></g><path class="cls-15" d="M40,161.23a5.35,5.35,0,0,1,1.82.47,1,1,0,0,1,.29,1s-.6.79-5.87.59-6.74-.82-6.74-.82-.27-.21,0-1.22S40,161.23,40,161.23Z"/><path class="cls-12" d="M35.35,157.94s3.93,2,4.7,2.28,1.43.41,1.27,1.24-1.89.68-3.51.66S30.7,162.38,30,161s.56-3.87.56-3.87A4.1,4.1,0,0,1,35.35,157.94Z"/><path class="cls-16" d="M38.22,162.17s.38-2.06,1.21-2.27a1.08,1.08,0,0,0-.82-.43,4.11,4.11,0,0,0-1.07,2.68S37.68,162.39,38.22,162.17Z"/><path class="cls-2" d="M35.93,136.75s-.22,5.75-4.42,6.24-10.86,2.59-12.2-6.77Z"/><path class="cls-3" d="M21.65,143.7l-6.29,11.2a6.25,6.25,0,0,0,4.42,2.44l7-10.76a2.67,2.67,0,0,0-1.39-3.51A2.67,2.67,0,0,0,21.65,143.7Z"/><path class="cls-2" d="M20.36,130.79c.13.84-.61,12.7-1.67,16.63a1.11,1.11,0,0,0,1,1.4c1.55,0,3.85,1.37,8.1,1.73.77.06,1.53-.16,1.73-.91l3.84-10.1,2.25-6.24Z"/><g class="cls-17"><path class="cls-18" d="M24,148.64a17.32,17.32,0,0,0,7.33.74,10.11,10.11,0,0,1-.59,2.22.43.43,0,0,1-.14.21.42.42,0,0,1-.25,0,67.72,67.72,0,0,1-12.69-2.67c-.29-.09-.62-.24-.66-.54a.76.76,0,0,1,.14-.43c.74-1.29,1.28-1.41,2.72-1.07S22.59,148.16,24,148.64Z"/></g><rect class="cls-19" x="21.7" y="142.76" width="6.53" height="4.78" rx="0.95" transform="translate(16.77 292.21) rotate(-167.05)"/><path class="cls-15" d="M22.43,162.4a5.41,5.41,0,0,1,1.41,1.25,1,1,0,0,1-.22,1s-.89.43-5.48-2.15-5.63-3.81-5.63-3.81-.15-.32.56-1.08S22.43,162.4,22.43,162.4Z"/><path class="cls-3" d="M19.78,157.34s2.6,3.54,3.14,4.18,1.08,1,.57,1.68-2-.26-3.43-1-6.44-3-6.47-4.54,2.26-3.19,2.26-3.19A4.1,4.1,0,0,1,19.78,157.34Z"/><path class="cls-16" d="M20.41,162.41s1.27-1.65,2.11-1.46a1.08,1.08,0,0,0-.54-.75,4.1,4.1,0,0,0-2.18,1.89S19.82,162.37,20.41,162.41Z"/><path class="cls-20" d="M32.85,114.94s-2.51-2.49-7.25-1.79l.8,3.91,7.3,1.77S33.94,115.91,32.85,114.94Z"/><polygon class="cls-3" points="26.16 115.24 31.29 115.34 31.37 109.54 26.61 109.54 26.16 115.24"/><g class="cls-21"><ellipse class="cls-22" cx="29.66" cy="110.68" rx="2.43" ry="4.37" transform="translate(-84.63 118.96) rotate(-79.14)"/></g><path class="cls-3" d="M33.32,116s-2.25-2.49-7.41-2.43l1.49,5.29,6.78.31Z"/><path class="cls-23" d="M41.34,107.11a7.82,7.82,0,0,0-1,1.45s-2.06-1.34-2-2.4Z"/><path class="cls-4" d="M41.7,107.31a2.4,2.4,0,0,1-.49.5,3.73,3.73,0,0,1-2.7-1.53l1.79.44Z"/><ellipse class="cls-24" cx="38.84" cy="108.18" rx="1.02" ry="1.26" transform="translate(-47.72 32.56) rotate(-29.11)"/><path class="cls-3" d="M30.44,111.7a19.89,19.89,0,0,0,10.14-3.06l-.1-.1a3.49,3.49,0,0,1-2-2.36c3.17,2,4,.72,4,.72a4.17,4.17,0,0,0,.91-2.71,3.91,3.91,0,0,0-.77-2.08,28.42,28.42,0,0,0,.69-8.62c-.5-9.66-6.91-14.3-14.49-13.91S14.25,85.36,14.76,95a16.41,16.41,0,0,0,12.38,16.34,8.5,8.5,0,0,0,2.88.36Z"/><g class="cls-25"><path class="cls-26" d="M27.83,99.5S28,88.82,32,87.48s5.05.55,7.74.73a7.28,7.28,0,0,0,4.19-.79l-.67-12.79L12,76.26l-.26,25.62,1,3.71c1.67,1.57,5.61,2.34,9.13,0A20.82,20.82,0,0,0,27.83,99.5Z"/></g><ellipse class="cls-4" cx="37.72" cy="98.98" rx="3.19" ry="4.01" transform="translate(-5.11 2.1) rotate(-2.99)"/><g class="cls-27"><path d="M38.76,96.28H39a1.23,1.23,0,0,0-.44,1,1.24,1.24,0,0,0,1.31,1.18A1.22,1.22,0,0,0,41,97.4a2.53,2.53,0,0,1-2,4,2.55,2.55,0,0,1-.27-5.1Z"/></g><path class="cls-28" d="M40,93.71S37.85,92,34.49,94C34.49,94,37.33,89.87,40,93.71Z"/><ellipse class="cls-3" cx="37.51" cy="103.13" rx="3.13" ry="1.16" transform="translate(-5.33 2.1) rotate(-2.99)"/><path class="cls-3" d="M42.88,100.63a2.12,2.12,0,0,0,.83,1.54c.8.57.52,1.47-1.38,1.7S41.69,98.2,42.88,100.63Z"/><path class="cls-29" d="M42.54,106.94a.78.78,0,0,1-.91.61c-.8-.08-2.82-.6-3.41-1.63a7.21,7.21,0,0,0,1.8.44C41,106.47,42.48,106.31,42.54,106.94Z"/><path class="cls-30" d="M38.47,106.18a4.2,4.2,0,0,0,1.21,1.72c.85.69,1,.47,1,.86s-.73.77-1.64-.36a3.82,3.82,0,0,1-.81-2.48S38.5,106,38.47,106.18Z"/><circle class="cls-3" cx="25.48" cy="100.77" r="3.47"/><path class="cls-5" d="M26,113.09s9.62,6.71,6.83,1.85a18,18,0,0,1,3.28,7.88c.49,4.28,1.41,11.51,1.86,13.12s-2.44,2.83-6,3.2-12,1.05-13.51-2.92.93-16.83,2.7-21.08a1.68,1.68,0,0,1,1.28-1c.47-.08,1.13-.21,1.87-.41C24.82,113.58,25.38,113.06,26,113.09Z"/><g class="cls-31"><path class="cls-32" d="M24.15,113s11.69,11.62,9.45,1.31L26.69,112Z"/></g><path class="cls-8" d="M35,132.82a3.4,3.4,0,0,1,.2-1.59h.67a3.33,3.33,0,0,1,.2,1.59,3.39,3.39,0,0,1-.2,1.6h-.67A3.4,3.4,0,0,1,35,132.82Z"/><path class="cls-9" d="M34.13,132.82a5.41,5.41,0,0,1,.32-2.54h1.06c.18,0,.33,1.14.33,2.54s-.15,2.54-.33,2.54H34.45A5.38,5.38,0,0,1,34.13,132.82Z"/><path class="cls-10" d="M34.1,131.56s1.09-11.79-.41-15.36l.54.3s2.43,5.43.91,15.83Z"/><path class="cls-6" d="M14.29,133.7s-3.3,10,.7,12.74,15.18,2.64,18.48-.15.25-12.59.25-12.59Z"/><g class="cls-33"><rect class="cls-34" x="14.91" y="130.52" width="0.77" height="19.87"/><rect class="cls-34" x="19.26" y="130.52" width="0.77" height="19.87"/><rect class="cls-34" x="23.61" y="130.52" width="0.77" height="19.87"/><rect class="cls-34" x="27.96" y="130.52" width="0.77" height="19.87"/><rect class="cls-34" x="32.3" y="130.52" width="0.77" height="19.87"/><path class="cls-34" d="M36.42,136.89c-3.89.27-8,.43-12.44.42s-8.51-.15-12.39-.42V136c3.83.31,8,.5,12.39.5s8.59-.19,12.44-.5Z"/><path class="cls-34" d="M36.42,139.79c-3.89.26-8,.42-12.44.42s-8.51-.16-12.39-.42v-.9c3.83.31,8,.5,12.39.5s8.59-.19,12.44-.5Z"/><path class="cls-34" d="M36.42,142.68c-3.89.27-8,.43-12.44.43s-8.51-.16-12.39-.43v-.89c3.83.3,8,.49,12.39.49s8.59-.18,12.44-.49Z"/><path class="cls-34" d="M36.42,145.58c-3.89.27-8,.43-12.44.43s-8.51-.16-12.39-.43v-.9c3.83.31,8,.5,12.39.5s8.59-.19,12.44-.5Z"/><rect class="cls-35" x="11.84" y="131.7" width="25.43" height="3.5"/></g><rect class="cls-7" x="13.1" y="131.53" width="22.15" height="2.93" rx="1.47"/><g class="cls-36"><rect class="cls-37" x="12.11" y="130.47" width="23.84" height="1.53"/></g><path class="cls-3" d="M20.3,116.47l-3.87,8.78a1.76,1.76,0,0,0,.91,2.34,3.55,3.55,0,0,0,2.05.07,1.24,1.24,0,0,0,.93-.76l3.52-9.06Z"/><path class="cls-5" d="M23,114a3.42,3.42,0,0,0-2.52,1.19,23.67,23.67,0,0,0-4,6.52l-.55.72s-.41,1.57,3.35,2.82c1.56.52,3.51,1.12,4.28-.39.22-.43.89-1.92,1.13-2.52C26,119.14,27.8,113.91,23,114Z"/><path class="cls-3" d="M15.7,135.54l-2.14-.8a.83.83,0,0,1-.47-1.07l3.32-8.42,3.95,1.55-3.59,8.28A.83.83,0,0,1,15.7,135.54Z"/><path class="cls-3" d="M16.7,134.9s.42,3.35,0,4-1.17.89-1.41-1.13c0,0-.2-.24-.34.1a12.32,12.32,0,0,0-.34,3.28s.07.66-.69.55-1.26-2.29-1.5-4.24a9.57,9.57,0,0,1,.92-4.37,2.1,2.1,0,0,1,2.19,0A2.34,2.34,0,0,1,16.7,134.9Z"/></svg>