<svg id="Layer_1" data-name="Layer 1" xmlns="http://www.w3.org/2000/svg" xmlns:xlink="http://www.w3.org/1999/xlink" viewBox="0 0 260 168"><defs><style>.cls-1{fill:#c5ddd7;}.cls-2{fill:#d6eae6;}.cls-3{fill:#a8651d;}.cls-4{fill:#fff;}.cls-5{fill:#f43434;}.cls-6{fill:#d18830;}.cls-7{fill:#893e00;}.cls-8{fill:#ffe33b;}.cls-9{fill:#4932ce;}.cls-10{fill:#7a3501;}.cls-11{fill:#e22b2b;}.cls-12{fill:#a05e1d;}.cls-13{clip-path:url(#clip-path);}.cls-14{fill:#aecec5;}.cls-14,.cls-18{opacity:0.44;}.cls-15{fill:#f49c00;}.cls-16{fill:#f28f00;}.cls-17{clip-path:url(#clip-path-2);}.cls-18{fill:#bcd8d1;}.cls-19{fill:#c0e2da;}.cls-20{fill:#bc1d1d;}.cls-21{clip-path:url(#clip-path-3);}.cls-22{fill:#935212;opacity:0.46;}.cls-23{fill:#590b0b;}.cls-24{fill:#ea4747;}.cls-25{clip-path:url(#clip-path-4);}.cls-26{fill:#914e0c;}.cls-27{clip-path:url(#clip-path-5);}.cls-28{fill:#562b04;}.cls-29{fill:#8c4b10;}.cls-30{fill:#935115;}.cls-31{clip-path:url(#clip-path-6);}.cls-32{fill:#d62525;}.cls-33{clip-path:url(#clip-path-7);}.cls-34{fill:#ea9c3f;}.cls-35{fill:#af6822;opacity:0.42;}.cls-36{clip-path:url(#clip-path-8);}.cls-37{fill:#d67422;}</style><clipPath id="clip-path"><path class="cls-1" d="M67.14,95.11c.49.7,5.08,11.66,5.87,15.64a1.12,1.12,0,0,0,1.56.8c1.4-.66,4.05-.48,8-2,.72-.28,1.3-.82,1.15-1.57l-1-10.76L82,90.57Z"/></clipPath><clipPath id="clip-path-2"><path class="cls-2" d="M67.17,92.43c.28.81,1.74,12.59,1.43,16.65a1.1,1.1,0,0,0,1.28,1.18c1.53-.25,4,.64,8.28.2.77-.07,1.47-.43,1.54-1.2l1.9-10.64,1.06-6.55Z"/></clipPath><clipPath id="clip-path-3"><polygon class="cls-3" points="73.5 75.95 78.63 76.05 78.71 70.25 73.95 70.25 73.5 75.95"/></clipPath><clipPath id="clip-path-4"><path class="cls-3" d="M78.84,70.91a19.88,19.88,0,0,0,6.32-8.51l-.15,0a3.5,3.5,0,0,1-3-.69c3.72-.33,3.6-1.79,3.6-1.79a4.13,4.13,0,0,0-.89-2.71A3.9,3.9,0,0,0,82.84,56a28.41,28.41,0,0,0-4.59-7.33c-6.18-7.45-14.09-7.34-19.93-2.49s-8.19,13.3-2,20.74A16.42,16.42,0,0,0,76,72.61a8.41,8.41,0,0,0,2.52-1.43Z"/></clipPath><clipPath id="clip-path-5"><ellipse class="cls-4" cx="77.09" cy="56.36" rx="3.19" ry="4.01" transform="translate(-18.23 62.2) rotate(-39.68)"/></clipPath><clipPath id="clip-path-6"><path class="cls-5" d="M73.36,73.8s9.62,6.71,6.83,1.85a18,18,0,0,1,3.28,7.88C84,87.81,84.88,95,85.33,96.65s-2.44,2.83-6,3.19-12,1.06-13.51-2.91.93-16.83,2.71-21.09a1.65,1.65,0,0,1,1.27-1c.48-.08,1.13-.21,1.88-.41C72.16,74.29,72.72,73.77,73.36,73.8Z"/></clipPath><clipPath id="clip-path-7"><path class="cls-6" d="M61.63,94.41s-3.3,10,.7,12.73,15.18,2.65,18.48-.15.25-12.58.25-12.58Z"/></clipPath><clipPath id="clip-path-8"><rect class="cls-7" x="60.45" y="92.24" width="22.15" height="2.93" rx="1.47"/></clipPath></defs><path class="cls-8" d="M60.36,93.53a3.49,3.49,0,0,0-.2-1.6h-.67a3.39,3.39,0,0,0-.2,1.6c0,.88.09,1.59.21,1.59h.66A3.43,3.43,0,0,0,60.36,93.53Z"/><path class="cls-9" d="M61.26,93.53A5.6,5.6,0,0,0,61,91H59.88c-.18,0-.32,1.14-.32,2.55s.14,2.54.32,2.54H61A5.64,5.64,0,0,0,61.26,93.53Z"/><path class="cls-10" d="M68.33,75.4a32.48,32.48,0,0,0-6.4,17.84l-1.4.38S59.66,82.54,68.33,75.4Z"/><path class="cls-3" d="M82.68,79l5.76-7.66a1.75,1.75,0,0,0-.35-2.49,3.62,3.62,0,0,0-2-.54,1.26,1.26,0,0,0-1.08.53l-5.49,8Z"/><path class="cls-11" d="M79.45,80.81a3.47,3.47,0,0,0,2.73-.59,23.77,23.77,0,0,0,5.33-5.45l.7-.57s.76-1.44-2.62-3.52c-1.4-.86-3.16-1.89-4.25-.59-.32.37-1.31,1.67-1.68,2.2C77.72,75.1,74.8,79.79,79.45,80.81Z"/><path class="cls-3" d="M91.5,61.48l1.9,1.26a.82.82,0,0,1,.21,1.15l-5.15,7.45L85,68.93l5.39-7.24A.81.81,0,0,1,91.5,61.48Z"/><path class="cls-3" d="M90,57.31a1.89,1.89,0,0,1,0-.75.59.59,0,0,1,.55-.42c.36,0,.53.44.62.79l.54,2.12c.3-.19.21-.76.54-.85a.53.53,0,0,1,.28,0,4.46,4.46,0,0,1,2.87,2.34,1.35,1.35,0,0,1,.17.56,1.48,1.48,0,0,1-.23.78,3.66,3.66,0,0,1-2.51,2A2.14,2.14,0,0,1,90.3,62,46.71,46.71,0,0,0,90,57.31Z"/><path class="cls-3" d="M92.06,58.45a12.46,12.46,0,0,1,1.21-3.12c.11-.21.27-.44.5-.43a.45.45,0,0,1,.39.36,1.18,1.18,0,0,1-.06.56,13.74,13.74,0,0,1-1.2,3.38c-.08.13-.3.14-.43.2a.27.27,0,0,1-.38-.12"/><path class="cls-3" d="M93.3,58.8a12.29,12.29,0,0,1,1.39-3c.12-.21.29-.43.52-.41a.45.45,0,0,1,.36.39,1.17,1.17,0,0,1-.08.55A14.23,14.23,0,0,1,94.1,59.6c-.09.13-.31.12-.44.18s-.34,0-.37-.15"/><path class="cls-3" d="M94.17,59.8a12,12,0,0,1,1.57-2.95c.13-.19.32-.4.55-.37a.45.45,0,0,1,.34.41,1.19,1.19,0,0,1-.12.55,14.37,14.37,0,0,1-1.6,3.21c-.09.12-.31.1-.45.15s-.34,0-.36-.17"/><path class="cls-3" d="M94.54,61.1a10.61,10.61,0,0,1,1.68-2.46c.14-.16.32-.33.53-.28a.39.39,0,0,1,.25.4,1,1,0,0,1-.16.47,12.32,12.32,0,0,1-1.72,2.69c-.09.1-.29.06-.42.09a.24.24,0,0,1-.3-.18"/><path class="cls-12" d="M77.05,106.19,77.54,119a6.27,6.27,0,0,0,5-.23L82.91,106a3,3,0,0,0-5.86.22Z"/><path class="cls-1" d="M67.14,95.11c.49.7,5.08,11.66,5.87,15.64a1.12,1.12,0,0,0,1.56.8c1.4-.66,4.05-.48,8-2,.72-.28,1.3-.82,1.15-1.57l-1-10.76L82,90.57Z"/><g class="cls-13"><path class="cls-14" d="M78.29,109.51a17.54,17.54,0,0,0,6.9-2.59,10.13,10.13,0,0,1,.46,2.24.39.39,0,0,1,0,.26.38.38,0,0,1-.21.13,67.15,67.15,0,0,1-12.56,3.23c-.3,0-.66.06-.82-.19a.76.76,0,0,1-.08-.45c.09-1.48.53-1.83,2-2.16A43.09,43.09,0,0,1,78.29,109.51Z"/></g><path class="cls-15" d="M87.36,121.93a5.43,5.43,0,0,1,1.82.48,1,1,0,0,1,.29,1s-.6.79-5.86.6-6.75-.82-6.75-.82-.27-.22,0-1.22S87.36,121.93,87.36,121.93Z"/><path class="cls-12" d="M82.7,118.64s3.92,2,4.7,2.28,1.42.42,1.26,1.24-1.89.69-3.51.67-7.11.26-7.83-1.09.56-3.86.56-3.86A4.12,4.12,0,0,1,82.7,118.64Z"/><path class="cls-16" d="M85.57,122.87s.38-2.05,1.21-2.27a1.12,1.12,0,0,0-.82-.42,4,4,0,0,0-1.08,2.68S85,123.09,85.57,122.87Z"/><path class="cls-2" d="M83.27,97.45s-.22,5.76-4.42,6.25S68,106.29,66.65,96.93Z"/><path class="cls-3" d="M70.82,104.88l-4.11,12.17a6.25,6.25,0,0,0,4.8,1.58l4.87-11.87a3,3,0,0,0-5.56-1.88Z"/><path class="cls-2" d="M67.17,92.43c.28.81,1.74,12.59,1.43,16.65a1.1,1.1,0,0,0,1.28,1.18c1.53-.25,4,.64,8.28.2.77-.07,1.47-.43,1.54-1.2l1.9-10.64,1.06-6.55Z"/><g class="cls-17"><path class="cls-18" d="M74,109.31a17.38,17.38,0,0,0,7.34-.63A9.69,9.69,0,0,1,81.2,111a.47.47,0,0,1-.1.24.52.52,0,0,1-.25.07,67.62,67.62,0,0,1-13-.28c-.3,0-.66-.13-.74-.41a.7.7,0,0,1,0-.45c.48-1.41,1-1.62,2.47-1.55A42.44,42.44,0,0,1,74,109.31Z"/></g><rect class="cls-19" x="71.08" y="103.31" width="6.53" height="4.78" rx="0.95" transform="translate(144.4 214.29) rotate(-177.7)"/><path class="cls-15" d="M75,123.11a5.32,5.32,0,0,1,1.62,1,1,1,0,0,1,0,1.06s-.8.59-5.79-1.1-6.23-2.7-6.23-2.7-.21-.29.35-1.17S75,123.11,75,123.11Z"/><path class="cls-3" d="M71.51,118.63s3.2,3,3.86,3.52,1.24.81.86,1.56-2,.11-3.56-.37-6.89-1.77-7.19-3.27,1.63-3.54,1.63-3.54A4.11,4.11,0,0,1,71.51,118.63Z"/><path class="cls-16" d="M73.06,123.5s1-1.86,1.8-1.83a1.08,1.08,0,0,0-.66-.64,4.12,4.12,0,0,0-1.8,2.27S72.48,123.56,73.06,123.5Z"/><path class="cls-20" d="M80.19,75.65s-2.51-2.5-7.25-1.8l.8,3.92L81,79.54S81.28,76.62,80.19,75.65Z"/><polygon class="cls-3" points="73.5 75.95 78.63 76.05 78.71 70.25 73.95 70.25 73.5 75.95"/><g class="cls-21"><ellipse class="cls-22" cx="75.9" cy="70.73" rx="4.37" ry="2.43" transform="translate(-18.68 28.1) rotate(-18.72)"/></g><path class="cls-3" d="M80.66,76.73s-2.25-2.48-7.41-2.42l1.49,5.29,6.79.3Z"/><path class="cls-23" d="M84.85,60.72a7.79,7.79,0,0,0,.05,1.76s-2.45.16-3-.72Z"/><path class="cls-4" d="M85.25,60.66a2.42,2.42,0,0,1-.09.7,3.74,3.74,0,0,1-3.08.39l1.7-.72Z"/><ellipse class="cls-24" cx="83.48" cy="63.07" rx="1.02" ry="1.26" transform="translate(-8.27 113.35) rotate(-65.8)"/><path class="cls-3" d="M78.84,70.91a19.88,19.88,0,0,0,6.32-8.51l-.15,0a3.5,3.5,0,0,1-3-.69c3.72-.33,3.6-1.79,3.6-1.79a4.13,4.13,0,0,0-.89-2.71A3.9,3.9,0,0,0,82.84,56a28.41,28.41,0,0,0-4.59-7.33c-6.18-7.45-14.09-7.34-19.93-2.49s-8.19,13.3-2,20.74A16.42,16.42,0,0,0,76,72.61a8.41,8.41,0,0,0,2.52-1.43Z"/><g class="cls-25"><path class="cls-26" d="M69.47,62.69S63.24,54,65.64,50.55s4.37-2.58,6.64-4a7.24,7.24,0,0,0,2.89-3.13L67,33.52l-24.08,20L58,74.19l3,2.41c2.28.27,5.9-1.47,7.32-5.46A21,21,0,0,0,69.47,62.69Z"/></g><ellipse class="cls-4" cx="77.09" cy="56.36" rx="3.19" ry="4.01" transform="translate(-18.23 62.2) rotate(-39.68)"/><g class="cls-27"><path d="M75,52.72a2,2,0,0,1,.19-.12,1.22,1.22,0,0,0,.24,1,1.25,1.25,0,0,0,1.76.17,1.23,1.23,0,0,0,.28-1.53,2.47,2.47,0,0,1,1.13.77,2.55,2.55,0,1,1-3.6-.34Z"/></g><path class="cls-28" d="M75.73,50.8s-2.72-.12-4.22,3.49C71.51,54.29,71.34,49.29,75.73,50.8Z"/><ellipse class="cls-3" cx="79.4" cy="59.81" rx="3.13" ry="1.16" transform="translate(-19.9 64.47) rotate(-39.68)"/><path class="cls-3" d="M82.22,54.6a2.11,2.11,0,0,0,1.58.74c1,0,1.3.87-.09,2.18S79.81,53.36,82.22,54.6Z"/><path class="cls-29" d="M85.71,59.86a.78.78,0,0,1-.37,1c-.68.41-2.61,1.2-3.71.72a6.55,6.55,0,0,0,1.71-.71C84.22,60.39,85.28,59.4,85.71,59.86Z"/><path class="cls-30" d="M82,61.69a4.21,4.21,0,0,0,2,.66c1.1,0,1.08-.23,1.31.09s-.12,1.05-1.54.69a3.82,3.82,0,0,1-2.13-1.51S81.92,61.55,82,61.69Z"/><circle class="cls-3" cx="68.34" cy="65.1" r="3.47"/><path class="cls-5" d="M73.36,73.8s9.62,6.71,6.83,1.85a18,18,0,0,1,3.28,7.88C84,87.81,84.88,95,85.33,96.65s-2.44,2.83-6,3.19-12,1.06-13.51-2.91.93-16.83,2.71-21.09a1.65,1.65,0,0,1,1.27-1c.48-.08,1.13-.21,1.88-.41C72.16,74.29,72.72,73.77,73.36,73.8Z"/><g class="cls-31"><path class="cls-32" d="M71.49,73.72S83.18,85.34,80.94,75L74,72.69Z"/></g><path class="cls-8" d="M82.37,93.53a3.49,3.49,0,0,1,.2-1.6h.67a3.39,3.39,0,0,1,.2,1.6,3.33,3.33,0,0,1-.2,1.59h-.67A3.43,3.43,0,0,1,82.37,93.53Z"/><path class="cls-9" d="M81.47,93.53A5.38,5.38,0,0,1,81.79,91h1.06c.18,0,.33,1.14.33,2.55s-.15,2.54-.33,2.54H81.79A5.41,5.41,0,0,1,81.47,93.53Z"/><path class="cls-10" d="M81.44,92.26s1.1-11.79-.4-15.35l.53.3S84,82.64,82.48,93Z"/><path class="cls-6" d="M61.63,94.41s-3.3,10,.7,12.73,15.18,2.65,18.48-.15.25-12.58.25-12.58Z"/><g class="cls-33"><rect class="cls-34" x="62.25" y="91.23" width="0.77" height="19.87"/><rect class="cls-34" x="66.6" y="91.23" width="0.77" height="19.87"/><rect class="cls-34" x="70.95" y="91.23" width="0.77" height="19.87"/><rect class="cls-34" x="75.3" y="91.23" width="0.77" height="19.87"/><rect class="cls-34" x="79.65" y="91.23" width="0.77" height="19.87"/><path class="cls-34" d="M83.76,97.6c-3.89.26-8.05.42-12.44.42s-8.51-.16-12.39-.42v-.9c3.83.31,8,.5,12.39.5s8.6-.19,12.44-.5Z"/><path class="cls-34" d="M83.76,100.49c-3.89.27-8.05.43-12.44.43s-8.51-.16-12.39-.43v-.9c3.83.31,8,.5,12.39.5s8.6-.19,12.44-.5Z"/><path class="cls-34" d="M83.76,103.39c-3.89.27-8.05.43-12.44.43s-8.51-.16-12.39-.43v-.9c3.83.31,8,.5,12.39.5s8.6-.19,12.44-.5Z"/><path class="cls-34" d="M83.76,106.29c-3.89.26-8.05.42-12.44.42s-8.51-.16-12.39-.42v-.9c3.83.31,8,.5,12.39.5s8.6-.19,12.44-.5Z"/><rect class="cls-35" x="59.18" y="92.41" width="25.43" height="3.5"/></g><rect class="cls-7" x="60.45" y="92.24" width="22.15" height="2.93" rx="1.47"/><g class="cls-36"><rect class="cls-37" x="59.45" y="91.18" width="23.84" height="1.53"/></g><path class="cls-3" d="M68.28,76l-8,5.31a1.75,1.75,0,0,0-.49,2.46,3.54,3.54,0,0,0,1.68,1.17,1.26,1.26,0,0,0,1.19-.14L70.52,79Z"/><path class="cls-5" d="M71.92,75.34A3.37,3.37,0,0,0,69.16,75a23.42,23.42,0,0,0-6.84,3.35l-.85.31s-1.2,1.11,1.3,4.19c1,1.28,2.34,2.83,3.81,2,.42-.24,1.79-1.13,2.31-1.51C71.66,81.29,76,77.85,71.92,75.34Z"/><path class="cls-3" d="M54.13,89.55l-1.38-1.83a.83.83,0,0,1,.19-1.15l7.34-5.31,2.48,3.44-7.48,5A.82.82,0,0,1,54.13,89.55Z"/><path class="cls-3" d="M54,93.88a1.6,1.6,0,0,1-.32.67.59.59,0,0,1-.67.18c-.32-.17-.31-.62-.26-1l.35-2.16c-.34.06-.49.61-.84.57A.55.55,0,0,1,52,92a4.44,4.44,0,0,1-1.7-3.29,1.4,1.4,0,0,1,.06-.58,1.54,1.54,0,0,1,.53-.63A3.65,3.65,0,0,1,54,86.69a2.14,2.14,0,0,1,1.6,2.74C55,90.9,54.49,92.35,54,93.88Z"/><path class="cls-3" d="M52.59,92a12,12,0,0,1-2.35,2.38c-.18.14-.42.29-.64.2a.45.45,0,0,1-.2-.49,1.22,1.22,0,0,1,.27-.5A14.18,14.18,0,0,1,52.12,91c.12-.09.32,0,.48,0a.27.27,0,0,1,.29.27"/><path class="cls-3" d="M51.59,91.2a11.76,11.76,0,0,1-2.48,2.24c-.19.14-.44.28-.65.17a.45.45,0,0,1-.17-.5,1.06,1.06,0,0,1,.3-.48,14.14,14.14,0,0,1,2.59-2.48c.13-.08.32,0,.48,0a.26.26,0,0,1,.27.28"/><path class="cls-3" d="M51.19,89.94A12.25,12.25,0,0,1,48.58,92c-.2.12-.46.24-.66.12a.44.44,0,0,1-.14-.51,1.12,1.12,0,0,1,.33-.45,13.71,13.71,0,0,1,2.74-2.31c.13-.08.33,0,.48,0a.27.27,0,0,1,.26.3"/><path class="cls-3" d="M51.37,88.6a10.83,10.83,0,0,1-2.52,1.59c-.19.09-.43.17-.59,0a.38.38,0,0,1-.08-.46,1.06,1.06,0,0,1,.33-.37,12.41,12.41,0,0,1,2.66-1.79c.12,0,.28.06.41.09a.24.24,0,0,1,.21.29"/></svg>