<svg id="Layer_7" data-name="Layer 7" xmlns="http://www.w3.org/2000/svg" xmlns:xlink="http://www.w3.org/1999/xlink" viewBox="0 0 260 168"><defs><style>.cls-1{fill:#3d3d3d;}.cls-2{fill:#4c4c4c;}.cls-3{fill:#a8651d;}.cls-4{fill:#029902;}.cls-5{fill:#fff;}.cls-6{fill:none;}.cls-7{fill:#298902;}.cls-8{fill:#935218;}.cls-9{fill:#f49c00;}.cls-10{fill:#f28f00;}.cls-11{clip-path:url(#clip-path);}.cls-12{fill:#2b2b2b;}.cls-13{fill:#a05e1d;}.cls-14{clip-path:url(#clip-path-2);}.cls-15{fill:#257c01;}.cls-16{clip-path:url(#clip-path-3);}.cls-17{fill:#935212;opacity:0.46;}.cls-18{clip-path:url(#clip-path-4);}.cls-19{fill:#5b2d04;}.cls-20{fill:#590b0b;}.cls-21{fill:#ea4747;}.cls-22{clip-path:url(#clip-path-5);}.cls-23{clip-path:url(#clip-path-6);}.cls-24{fill:#562b04;}.cls-25{fill:#8c4b10;}.cls-26{fill:#935115;}.cls-27{fill:#2d9903;}.cls-28{fill:#fcd212;}.cls-29{fill:#f6b019;}.cls-30{fill:#bc6828;}.cls-31{fill:#43720c;}.cls-32{clip-path:url(#clip-path-7);}</style><clipPath id="clip-path"><path class="cls-1" d="M226.51,116.7c-.86.78-10.36,14-12.65,19a1.52,1.52,0,0,1-2.31.58c-1.67-1.31-5.26-1.9-10.06-5.2a2,2,0,0,1-1-2.46l4.7-14,3-8.55Z"/></clipPath><clipPath id="clip-path-2"><path class="cls-2" d="M214.4,106.65l-1.5,8.95-2.18,14.6c-.25,1,.5,1.8,1.45,2.24,5.31,2.41,8.94,2.37,10.81,3.36a1.52,1.52,0,0,0,2.18-1s18.49-27.18,5.31-29.7S214.4,106.65,214.4,106.65Z"/></clipPath><clipPath id="clip-path-3"><polygon class="cls-3" points="185.76 97.95 183.3 104.95 175.4 102.12 177.8 95.67 185.76 97.95"/></clipPath><clipPath id="clip-path-4"><path class="cls-4" d="M182.92,96.67s4.22,16.43-.95,10.19a25.92,25.92,0,0,0,9,8.43,116.7,116.7,0,0,1,12.29,6.94c2,1.43,4.29.94,9.53,1.12,7.85.28,25.62-15,21-19.06s-39-13.44-45.69-13.19a2.41,2.41,0,0,0-2,1.22c-.35.6-.85,1.42-1.5,2.33C184.19,95.29,183.2,95.79,182.92,96.67Z"/></clipPath><clipPath id="clip-path-5"><path class="cls-3" d="M180.12,94.34c1.29,6.2-3.89,13.18-3.89,13.18-2.71,4.37-6.3,2.82-6.3,2.82l0-.17a4.13,4.13,0,0,0-1.23-3.46c.13,4.42-1.61,4.48-1.61,4.48a4.93,4.93,0,0,1-3.31-.68,4.69,4.69,0,0,1-1.67-2,33.66,33.66,0,0,1-9.25-4.39c-9.59-6.24-10.55-15.55-5.66-23.09s14.51-11.43,24.11-5.2a19.93,19.93,0,0,1,5.9,5s3.39,6.82,2.71,12Z"/></clipPath><clipPath id="clip-path-6"><ellipse class="cls-5" cx="161.73" cy="101.68" rx="4.75" ry="3.78" transform="translate(-11.66 181.87) rotate(-56.98)"/></clipPath><clipPath id="clip-path-7"><path class="cls-6" d="M181.45,146.81a6.15,6.15,0,0,0,1.06-3.87s-4.88,1.67-3.78,5.63a4.6,4.6,0,0,0,2.72-1.76"/></clipPath></defs><path class="cls-3" d="M188.22,113l1.66,14.65a2.69,2.69,0,0,1-2.4,3,5.55,5.55,0,0,1-3-.82,1.93,1.93,0,0,1-1-1.55l-1-14.9Z"/><path class="cls-7" d="M182,104.39a5.28,5.28,0,0,0-1.95,3.82,36.51,36.51,0,0,0,1.33,11.64v1.39s1,2.3,6.74.28c2.38-.84,5.31-1.93,4.82-4.5-.14-.73-.72-3.17-1-4.13C190.48,107.85,187.72,99.81,182,104.39Z"/><path class="cls-8" d="M210.28,131.93l0,20.27s-4.22,1.93-8-.07L201,131.92s.24-3.75,4.64-3.75S210.28,131.93,210.28,131.93Z"/><path class="cls-9" d="M194.94,157.36a8.47,8.47,0,0,0-2.85.86,1.58,1.58,0,0,0-.39,1.63s1,1.21,9.28.59,10.59-1.68,10.59-1.68.42-.35-.08-1.92S194.94,157.36,194.94,157.36Z"/><path class="cls-8" d="M202.1,151.9s-6.07,3.33-7.28,3.87-2.22.74-1.93,2,3,1,5.58.84,11.23,0,12.29-2.17-1.11-6.06-1.11-6.06A6.49,6.49,0,0,0,202.1,151.9Z"/><path class="cls-10" d="M197.82,158.74s-.72-3.22-2-3.51a1.75,1.75,0,0,1,1.27-.72s1.4,1.08,1.85,4.17C198.9,158.68,198.69,159.06,197.82,158.74Z"/><path class="cls-1" d="M226.51,116.7c-.86.78-10.36,14-12.65,19a1.52,1.52,0,0,1-2.31.58c-1.67-1.31-5.26-1.9-10.06-5.2a2,2,0,0,1-1-2.46l4.7-14,3-8.55Z"/><g class="cls-11"><path class="cls-12" d="M207.21,132.42a23.83,23.83,0,0,1-8.38-5.58,13.58,13.58,0,0,0-1.3,2.85.53.53,0,0,0,0,.35.58.58,0,0,0,.24.25,93.08,93.08,0,0,0,15.72,8.18c.38.15.87.28,1.16,0a.94.94,0,0,0,.23-.57c.34-2-.13-2.6-1.95-3.48A58.9,58.9,0,0,0,207.21,132.42Z"/></g><path class="cls-13" d="M222.15,131.49l9.35,18s-2.85,3.66-7.1,3.62l-10.46-17.34s-1.52-3.43,2.38-5.46S222.15,131.49,222.15,131.49Z"/><path class="cls-9" d="M220.3,161.14a8.37,8.37,0,0,0-2.13,2.07,1.58,1.58,0,0,0,.4,1.63s1.44.62,8.51-3.76,8.61-6.39,8.61-6.39.22-.51-.95-1.66S220.3,161.14,220.3,161.14Z"/><path class="cls-13" d="M224.13,153s-3.85,5.76-4.67,6.8-1.63,1.68-.77,2.69,3.13-.54,5.33-1.83,10-5.19,9.9-7.6-3.79-4.87-3.79-4.87A6.49,6.49,0,0,0,224.13,153Z"/><path class="cls-10" d="M223.49,161s-2.12-2.53-3.43-2.17a1.74,1.74,0,0,1,.8-1.23s1.74.31,3.56,2.85C224.42,160.48,224.41,160.91,223.49,161Z"/><path class="cls-2" d="M214.4,106.65l-1.5,8.95-2.18,14.6c-.25,1,.5,1.8,1.45,2.24,5.31,2.41,8.94,2.37,10.81,3.36a1.52,1.52,0,0,0,2.18-1s18.49-27.18,5.31-29.7S214.4,106.65,214.4,106.65Z"/><g class="cls-14"><path class="cls-12" d="M218,132.75a23.72,23.72,0,0,1-9.22-4,13.34,13.34,0,0,0-.79,3,.5.5,0,0,0,0,.34.47.47,0,0,0,.28.2,91.92,91.92,0,0,0,16.91,5.31c.4.08.9.13,1.14-.21a1,1,0,0,0,.13-.6c0-2-.59-2.54-2.53-3.09S220,133.11,218,132.75Z"/></g><path class="cls-15" d="M182,106.86s-2.11-4.67,1.23-10.73l4.9,3.06L186.81,110S182.73,108.83,182,106.86Z"/><polygon class="cls-3" points="185.76 97.95 183.3 104.95 175.4 102.12 177.8 95.67 185.76 97.95"/><g class="cls-16"><ellipse class="cls-17" cx="177.81" cy="100.39" rx="6.33" ry="3.51" transform="translate(49.18 258.96) rotate(-80.4)"/></g><path class="cls-3" d="M183.2,108.05s-2.23-4.3.46-11.27l6.42,4.69-3,9.35Z"/><path class="cls-4" d="M182.92,96.67s4.22,16.43-.95,10.19a25.92,25.92,0,0,0,9,8.43,116.7,116.7,0,0,1,12.29,6.94c2,1.43,4.29.94,9.53,1.12,7.85.28,25.62-15,21-19.06s-39-13.44-45.69-13.19a2.41,2.41,0,0,0-2,1.22c-.35.6-.85,1.42-1.5,2.33C184.19,95.29,183.2,95.79,182.92,96.67Z"/><g class="cls-18"><path class="cls-15" d="M183.76,94.1s9.84,21.71-3,13.47L181.08,97Z"/></g><circle class="cls-19" cx="147.61" cy="98.48" r="1.3"/><path class="cls-20" d="M167.91,110.2A9.44,9.44,0,0,1,170,110s-.14-2.9-1.27-3.46Z"/><path class="cls-5" d="M167.9,110.68a2.86,2.86,0,0,0,.81-.2,4.4,4.4,0,0,0,0-3.67l-.61,2.1Z"/><ellipse class="cls-21" cx="170.49" cy="108.27" rx="1.2" ry="1.5" transform="translate(-31.4 102.77) rotate(-30.86)"/><path class="cls-3" d="M180.12,94.34c1.29,6.2-3.89,13.18-3.89,13.18-2.71,4.37-6.3,2.82-6.3,2.82l0-.17a4.13,4.13,0,0,0-1.23-3.46c.13,4.42-1.61,4.48-1.61,4.48a4.93,4.93,0,0,1-3.31-.68,4.69,4.69,0,0,1-1.67-2,33.66,33.66,0,0,1-9.25-4.39c-9.59-6.24-10.55-15.55-5.66-23.09s14.51-11.43,24.11-5.2a19.93,19.93,0,0,1,5.9,5s3.39,6.82,2.71,12Z"/><g class="cls-22"><path class="cls-19" d="M168.12,91.85S157.07,85.73,153.33,89s-2.43,5.5-3.84,8.37a8.48,8.48,0,0,1-3.28,3.82L133.5,92.94l20.18-31,26.39,14.9L183.31,80c.62,2.64-.92,7.14-5.42,9.36A24.76,24.76,0,0,1,168.12,91.85Z"/></g><ellipse class="cls-5" cx="161.73" cy="101.68" rx="4.75" ry="3.78" transform="translate(-11.66 181.87) rotate(-56.98)"/><g class="cls-23"><path d="M159.84,101.75c-.05.07-.08.16-.13.23a1.46,1.46,0,0,1,1.28.14,1.48,1.48,0,0,1,.43,2,1.46,1.46,0,0,1-1.76.55,3,3,0,0,0,1.06,1.22,3,3,0,1,0-.88-4.18Z"/></g><path class="cls-24" d="M155.69,102.3s-1-3,2.61-5.93C158.3,96.37,152.54,97.8,155.69,102.3Z"/><path class="cls-3" d="M160.36,108a2.49,2.49,0,0,1,1.09,1.75c.11,1.16,1.2,1.41,2.55-.4S158.58,105.29,160.36,108Z"/><path class="cls-25" d="M167,111.33a.92.92,0,0,0,1.16-.57c.39-.86,1.06-3.24.35-4.46a8.16,8.16,0,0,1-.61,2.11C167.44,109.51,166.42,110.89,167,111.33Z"/><path class="cls-26" d="M168.66,106.71a5,5,0,0,1,1.05,2.26c.2,1.29-.12,1.3.28,1.52s1.23-.28.61-1.9a4.5,4.5,0,0,0-2.06-2.29S168.48,106.65,168.66,106.71Z"/><ellipse class="cls-19" cx="146.37" cy="96.5" rx="1.72" ry="1.77" transform="translate(-27.62 118.04) rotate(-40.45)"/><ellipse class="cls-19" cx="145.12" cy="93.61" rx="1.72" ry="2.15" transform="translate(-27.42 86.25) rotate(-30.38)"/><ellipse class="cls-19" cx="144.31" cy="90.28" rx="1.72" ry="2.15" transform="translate(-5.82 10.05) rotate(-3.91)"/><ellipse class="cls-19" cx="144.59" cy="86.86" rx="2.15" ry="1.72" transform="translate(28.34 209.08) rotate(-77.43)"/><ellipse class="cls-19" cx="145.89" cy="83.53" rx="2.15" ry="1.72" transform="translate(-2.82 161.92) rotate(-57.59)"/><ellipse class="cls-19" cx="147.81" cy="80.14" rx="2.15" ry="1.72" transform="translate(-10.42 137.01) rotate(-48.24)"/><ellipse class="cls-19" cx="150.15" cy="77.43" rx="2.15" ry="1.72" transform="translate(-16.07 107.61) rotate(-37.57)"/><ellipse class="cls-19" cx="152.72" cy="75.15" rx="2.15" ry="1.72" transform="translate(-17.25 84.23) rotate(-29.26)"/><ellipse class="cls-19" cx="156.04" cy="73.65" rx="2.15" ry="1.72" transform="translate(-16.09 85.66) rotate(-29.26)"/><ellipse class="cls-19" cx="159.67" cy="72.81" rx="2.15" ry="1.72" transform="translate(-13 41.49) rotate(-14.23)"/><ellipse class="cls-19" cx="163.25" cy="72.98" rx="1.72" ry="2.15" transform="translate(59.14 218.37) rotate(-78.48)"/><ellipse class="cls-19" cx="166.71" cy="73.94" rx="1.71" ry="2.15" transform="translate(32.33 197.24) rotate(-66.46)"/><ellipse class="cls-19" cx="169.51" cy="75.47" rx="1.71" ry="1.92" transform="translate(14.81 177.93) rotate(-57.51)"/><ellipse class="cls-19" cx="172.16" cy="77.21" rx="1.71" ry="1.92" transform="translate(-0.74 152.75) rotate(-47.76)"/><ellipse class="cls-19" cx="173.96" cy="79.1" rx="1.71" ry="1.92" transform="translate(-1.55 154.71) rotate(-47.76)"/><ellipse class="cls-19" cx="175.74" cy="80.94" rx="1.71" ry="1.92" transform="translate(-2.33 156.63) rotate(-47.76)"/><ellipse class="cls-19" cx="176.78" cy="82.96" rx="1.71" ry="1.92" transform="translate(-3.48 158.05) rotate(-47.76)"/><ellipse class="cls-19" cx="177.8" cy="85.11" rx="1.71" ry="1.93" transform="translate(-13.6 132.24) rotate(-39.41)"/><ellipse class="cls-19" cx="178.22" cy="86.89" rx="1.71" ry="1.93" transform="translate(-14.64 132.9) rotate(-39.41)"/><ellipse class="cls-19" cx="177.96" cy="87.55" rx="1.71" ry="1.93" transform="translate(-15.12 132.89) rotate(-39.41)"/><ellipse class="cls-19" cx="176.85" cy="88.43" rx="1.71" ry="1.93" transform="translate(-15.93 132.38) rotate(-39.41)"/><ellipse class="cls-19" cx="175.59" cy="89.44" rx="1.71" ry="1.93" transform="translate(-16.86 131.81) rotate(-39.41)"/><ellipse class="cls-19" cx="166.21" cy="89.7" rx="1.71" ry="1.93" transform="translate(-19.15 125.92) rotate(-39.41)"/><ellipse class="cls-19" cx="163.29" cy="89.17" rx="1.71" ry="1.93" transform="translate(69.73 249.99) rotate(-88.45)"/><ellipse class="cls-19" cx="160.47" cy="88.42" rx="1.71" ry="1.93" transform="translate(67.73 246.43) rotate(-88.45)"/><ellipse class="cls-19" cx="157.32" cy="87.98" rx="1.71" ry="1.93" transform="translate(65.11 242.86) rotate(-88.45)"/><ellipse class="cls-19" cx="154.39" cy="88.18" rx="1.93" ry="1.71" transform="translate(-23.13 78.24) rotate(-26.53)"/><ellipse class="cls-19" cx="152.07" cy="89.99" rx="1.93" ry="1.71" transform="translate(-1.78 176.91) rotate(-60.08)"/><ellipse class="cls-19" cx="150.49" cy="92.43" rx="1.93" ry="1.71" transform="matrix(0.18, -0.98, 0.98, 0.18, 32.33, 223.7)"/><ellipse class="cls-19" cx="149.17" cy="94.79" rx="1.93" ry="1.71" transform="translate(28.93 224.33) rotate(-79.57)"/><ellipse class="cls-19" cx="148.6" cy="96.66" rx="1.93" ry="1.71" transform="translate(26.64 225.3) rotate(-79.57)"/><ellipse class="cls-19" cx="148.11" cy="98.32" rx="1.59" ry="1.4" transform="translate(8.43 208.28) rotate(-71.79)"/><circle class="cls-3" cx="170.8" cy="90.2" r="4.1"/><path class="cls-3" d="M176.67,143.87l3.07,1.7a1.27,1.27,0,0,0,1.71-.53l8.07-15.82-6-2-7.36,15A1.26,1.26,0,0,0,176.67,143.87Z"/><path class="cls-3" d="M170.68,144.61a2,2,0,0,0-.94.26.64.64,0,0,0-.24.85.86.86,0,0,0,.34.25,7.26,7.26,0,0,0,3.61.79.86.86,0,0,0-.34,1.18,2.57,2.57,0,0,0,1,.92l1.39.86a3.45,3.45,0,0,0,1.86.71,3.27,3.27,0,0,0,2.22-1.52,5,5,0,0,0,1.36-3.68,4.4,4.4,0,0,0-2.09-2.76c-1.33-.91-2.16-.6-3.16.42C174.5,144.12,172.31,144.43,170.68,144.61Z"/><path class="cls-3" d="M194.05,92.83l14.63,1.85a2.68,2.68,0,0,1,2.36,3,5.37,5.37,0,0,1-1.51,2.75,1.94,1.94,0,0,1-1.75.62l-14.72-2.52Z"/><path class="cls-27" d="M186.78,91.73a5.31,5.31,0,0,1,3.86-1.87,36.5,36.5,0,0,1,11.61,1.54l1.39,0s2.28,1,.15,6.74c-.88,2.37-2,5.28-4.59,4.74-.72-.15-3.15-.78-4.11-1.08C190.08,100.28,182.1,97.38,186.78,91.73Z"/><path class="cls-3" d="M225.7,104.75l1.1-3.33a1.27,1.27,0,0,0-.83-1.59l-17-5.06-.9,6.29,16.06,4.52A1.27,1.27,0,0,0,225.7,104.75Z"/><path class="cls-3" d="M224,105.33s3.62,3.73,4.76,3.82,2.19-.54,0-2.77c0,0-.09-.48.45-.31a18.75,18.75,0,0,1,4.26,2.74s.72.72,1.32-.28-1.52-3.73-3.63-5.89S225,99.53,225,99.53a3.2,3.2,0,0,0-2.12,2.63A3.59,3.59,0,0,0,224,105.33Z"/><path class="cls-28" d="M179.93,146.1a7.58,7.58,0,0,1-.44,9.07c-3,3.86-11,4.92-17.33.77a10.89,10.89,0,0,1-4.14-5c-.91-2.23-.93-4.41.57-6.17l0,0c1.15-1.15,2.68.3,4.14.21C167.4,144.71,175.1,139,179.93,146.1Z"/><path class="cls-29" d="M178.52,147.55s-.24.95,1,1.9"/><path class="cls-30" d="M179.05,148.73a9.51,9.51,0,0,0,5.77-2.66.46.46,0,0,0,0-.61h0a.45.45,0,0,0-.66,0,8.46,8.46,0,0,1-5.15,2.88.18.18,0,0,0-.14.27h0A.2.2,0,0,0,179.05,148.73Z"/><path class="cls-31" d="M178.87,148.46s3.79-.53,3.64-5.52C182.51,142.94,177.75,144.53,178.87,148.46Z"/><g class="cls-32"><polygon class="cls-6" points="182.51 142.94 178.87 148.46 180.01 148.68 182.84 145.65 182.51 142.94"/></g></svg>