<svg id="Layer_3" data-name="Layer 3" xmlns="http://www.w3.org/2000/svg" xmlns:xlink="http://www.w3.org/1999/xlink" viewBox="0 0 260 168"><defs><style>.cls-1{fill:#893e00;}.cls-2{fill:none;}.cls-3{fill:#ffeeb8;}.cls-4{fill:#d6eae6;}.cls-5{fill:#a8651d;}.cls-6{fill:#fff;}.cls-7{fill:#590b0b;}.cls-8{fill:#f43434;}.cls-9{fill:#d18830;}.cls-10{clip-path:url(#clip-path);}.cls-11{fill:#c1dbd5;}.cls-12{fill:#bc1d1d;}.cls-13{clip-path:url(#clip-path-2);}.cls-14{fill:#935212;opacity:0.46;}.cls-15{fill:#914e0c;}.cls-16{clip-path:url(#clip-path-3);}.cls-17{fill:#935115;}.cls-18{fill:#8e5011;}.cls-19{clip-path:url(#clip-path-4);}.cls-20{clip-path:url(#clip-path-5);}.cls-21{fill:#562b04;}.cls-22{fill:#8c4b10;}.cls-23{clip-path:url(#clip-path-6);}.cls-24{fill:#ea4747;}.cls-25{clip-path:url(#clip-path-7);}.cls-26{fill:#d62525;}.cls-27{clip-path:url(#clip-path-8);}.cls-28{fill:#ea9c3f;}.cls-29{fill:#af6822;opacity:0.42;}.cls-30{clip-path:url(#clip-path-9);}.cls-31{fill:#9b530b;}.cls-32{fill:#7a3501;}.cls-33{fill:#4932ce;}.cls-34{fill:#ffe33b;}.cls-35{fill:#fcf1c3;}.cls-36{clip-path:url(#clip-path-10);}.cls-37{fill:#fcd212;}.cls-38{fill:#f6b019;}.cls-39{fill:#bc6828;}.cls-40{fill:#43720c;}.cls-41{clip-path:url(#clip-path-11);}.cls-42{clip-path:url(#clip-path-12);}.cls-43{fill:#f2da97;}.cls-44{clip-path:url(#clip-path-13);}</style><clipPath id="clip-path"><path class="cls-4" d="M101.28,166.63l-.43,9.82s7.48,3,23.38,3,24.48-2.4,24.48-2.4v-11.3Z"/></clipPath><clipPath id="clip-path-2"><rect class="cls-5" x="119.3" y="112.84" width="11.11" height="11.11"/></clipPath><clipPath id="clip-path-3"><path class="cls-5" d="M154.33,78.21c0-20.74-13.2-31.39-29.48-31.39S95.37,57.47,95.37,78.21a60.49,60.49,0,0,0,2.46,18.38,8.4,8.4,0,0,0-1.42,4.54c0,8.08,12.74,14.62,28.44,14.62s28.44-6.54,28.44-14.62a8.42,8.42,0,0,0-1.35-4.46A62.55,62.55,0,0,0,154.33,78.21Z"/></clipPath><clipPath id="clip-path-4"><ellipse class="cls-6" cx="107.84" cy="89.35" rx="6.84" ry="8.61"/></clipPath><clipPath id="clip-path-5"><ellipse class="cls-6" cx="141.87" cy="89.35" rx="6.84" ry="8.61"/></clipPath><clipPath id="clip-path-6"><path class="cls-7" d="M115.42,104a30.87,30.87,0,0,0,9.32,1.23,32.25,32.25,0,0,0,9.44-1.23s-.84,6.38-9.38,6.38S115.42,104,115.42,104Z"/></clipPath><clipPath id="clip-path-7"><path class="cls-8" d="M149.29,166.42c.2-11-1.49-24.78-2.47-31.76a75.79,75.79,0,0,0-.4-14.09c-.06-.81-6.19-6-6.19-6l-7.29,2.36a8.94,8.94,0,0,1-8.57,8.27,8.6,8.6,0,0,1-8.55-7.92l-10-1.73s-3.23,4.25-3.29,5.06a79.11,79.11,0,0,0-.13,17.81,213.88,213.88,0,0,0-2,28s-1.1,2.65,6.2,1.7a147.13,147.13,0,0,1,17.84-.68h.49a151,151,0,0,1,18.07.68C150.41,169.07,149.29,166.42,149.29,166.42Z"/></clipPath><clipPath id="clip-path-8"><path class="cls-9" d="M81.58,158.91h24.3a0,0,0,0,1,0,0v21.73A9.36,9.36,0,0,1,96.51,190H90.94a9.36,9.36,0,0,1-9.36-9.36V158.91A0,0,0,0,1,81.58,158.91Z" transform="translate(26.1 -11.68) rotate(8.28)"/></clipPath><clipPath id="clip-path-9"><rect class="cls-1" x="81.61" y="156.95" width="29.4" height="5.1" rx="2.55" transform="translate(23.98 -12.21) rotate(8.28)"/></clipPath><clipPath id="clip-path-10"><path class="cls-2" d="M175,108.6a15,15,0,0,0-9.85-1,4.58,4.58,0,0,0-1.83.77,4.76,4.76,0,0,0-1.05,1.34,14.51,14.51,0,0,0-.85,12.51,6.1,6.1,0,0,0,1,1.75,9.84,9.84,0,0,0,2.24,1.69c1.75,1.14,3.33,2.6,5.29,3.31a13,13,0,0,0,3.5.65,43.22,43.22,0,0,0,10.35-.41c1.87-.3,3.84-.78,5.16-2.15a9.09,9.09,0,0,0,1.81-3.35,22.67,22.67,0,0,0,1.2-4.41c.24-1.66.12-3.54-1.05-4.75s-3.28-1.41-5.09-1.43a2.15,2.15,0,0,0-1.31.28c-.56.41-.61,1.26-1.13,1.72a.87.87,0,0,1-.26,1.28,1.58,1.58,0,0,1-1.45,0,1.2,1.2,0,0,0-.64-.2,1.28,1.28,0,0,0-.51.25,1.85,1.85,0,0,1-2.33-.42,1.7,1.7,0,0,0-.41-.47,1.82,1.82,0,0,0-1-.08,1.84,1.84,0,0,1-1.59-2.85,1,1,0,0,1,.05-1.9l0-1.67"/></clipPath><clipPath id="clip-path-11"><path class="cls-2" d="M166.15,114.25a6.18,6.18,0,0,1-.39-4.06s4.59,2.52,2.81,6.29a4.63,4.63,0,0,1-2.42-2.23"/></clipPath><clipPath id="clip-path-12"><path class="cls-3" d="M80,128.13a4,4,0,0,1-1.61,1,3.89,3.89,0,0,1-1.69-.11c-7.69-1.73-15.15-5.1-23-5,1.6-2.15,3.51-4.28,6.09-5s5.17,0,7.57,1,4.73,2.25,7.29,2.63c1.66.24,3.36.11,5,.23.85.06,4.19.4,4.36,1.54C84.11,125.33,80.67,127.53,80,128.13Z"/></clipPath><clipPath id="clip-path-13"><path class="cls-3" d="M80.28,128.76a3,3,0,0,1-3.39.28c-7.29-3-14.07-7.59-21.86-8.8,1.95-1.84,4.19-3.63,6.86-3.92s5.09.9,7.28,2.28,4.29,3,6.75,3.83c1.59.52,3.28.67,4.91,1.07.83.21,4.06,1.11,4,2.27C84.85,126.71,81.09,128.29,80.28,128.76Z"/></clipPath></defs><path class="cls-5" d="M173.61,129.51l-2.88-4a1.76,1.76,0,0,0-2.47-.35l-15.51,11.7,5.48,7.26,15-12.18A1.76,1.76,0,0,0,173.61,129.51Z"/><path class="cls-5" d="M158.23,144.16s-3.47,2.48-6.21-2l5.47-2.67,1.73,2.18Z"/><path class="cls-5" d="M74.77,129.16l2.88-4a1.77,1.77,0,0,1,2.48-.35l15.5,11.7-5.48,7.26-15-12.18A1.76,1.76,0,0,1,74.77,129.16Z"/><path class="cls-5" d="M150.42,120.93l8.29,18.81a3.77,3.77,0,0,1-2,5,7.63,7.63,0,0,1-4.39.16,2.69,2.69,0,0,1-2-1.63l-7.56-19.42Z"/><path class="cls-8" d="M143.31,114.08a7.35,7.35,0,0,1,5.41,2.57,50.87,50.87,0,0,1,8.47,14l1.18,1.54s.88,3.38-7.2,6.06c-3.34,1.11-7.5,2.4-9.16-.85-.47-.92-1.91-4.1-2.42-5.4C136.91,125.14,133.09,113.93,143.31,114.08Z"/><path class="cls-4" d="M101.2,159.66c.63,1.72-.79,25.23-1.34,33.93a2.38,2.38,0,0,0,2.78,2.5c3.28-.58,8.67,1.24,17.76.2,1.64-.19,3.13-1,3.25-2.63l1.59-22.32.94-14.22Z"/><path class="cls-5" d="M100.24,119.59,88.89,136.74A3.75,3.75,0,0,0,90,142a7.55,7.55,0,0,0,4.3.9,2.66,2.66,0,0,0,2.23-1.27l10.73-17.86Z"/><path class="cls-4" d="M148.5,159.66c-.63,1.72.79,25.23,1.34,33.93a2.38,2.38,0,0,1-2.78,2.5c-3.28-.58-8.67,1.24-17.76.2-1.64-.19-3.13-1-3.25-2.63l-1.59-22.32-.94-14.22Z"/><path class="cls-4" d="M101.28,166.63l-.43,9.82s7.48,3,23.38,3,24.48-2.4,24.48-2.4v-11.3Z"/><g class="cls-10"><path class="cls-11" d="M143.35,169.43c2.34.3,4.77.72,7,0a2.55,2.55,0,0,0,1.67-1.27c.45-1.11-.4-2.31-1.28-3.07-3.24-2.8-7.54-3.76-11.7-4.26a139,139,0,0,0-18.37-.6c-5.45.06-10.91.12-16.35.6-3.14.28-7.87,1.27-6.58,5.9s8.11,3.38,11.5,3.27c5.39-.18,10.77-.63,16.16-.91A101.31,101.31,0,0,1,143.35,169.43Z"/></g><path class="cls-8" d="M106.92,115.32a7.34,7.34,0,0,0-5.77,1.61,50.85,50.85,0,0,0-10.71,12.33L89,130.58s-1.44,3.18,6.07,7.19c3.1,1.66,7,3.64,9.17.71.62-.83,2.58-3.72,3.3-4.91C111.36,127.3,117,116.89,106.92,115.32Z"/><ellipse class="cls-12" cx="124.85" cy="125.29" rx="17.07" ry="9.53"/><ellipse class="cls-5" cx="124.85" cy="126.77" rx="17.07" ry="9.53"/><rect class="cls-5" x="119.3" y="112.84" width="11.11" height="11.11"/><g class="cls-13"><ellipse class="cls-14" cx="124.65" cy="113.08" rx="8.37" ry="4.47"/></g><circle class="cls-15" cx="97.08" cy="91.8" r="7.44"/><circle class="cls-15" cx="152.62" cy="91.8" r="7.44"/><path class="cls-5" d="M154.33,78.21c0-20.74-13.2-31.39-29.48-31.39S95.37,57.47,95.37,78.21a60.49,60.49,0,0,0,2.46,18.38,8.4,8.4,0,0,0-1.42,4.54c0,8.08,12.74,14.62,28.44,14.62s28.44-6.54,28.44-14.62a8.42,8.42,0,0,0-1.35-4.46A62.55,62.55,0,0,0,154.33,78.21Z"/><g class="cls-16"><path class="cls-17" d="M94.63,91A171,171,0,0,1,99.76,69.7c3.38-10.56,13.66-4.84,25.09-4.84V40.66H89.64L88.47,89.84Z"/><path class="cls-17" d="M155,91a170,170,0,0,0-5.14-21.27c-3.37-10.56-13.66-4.84-25.09-4.84V40.66H160l1.18,49.18Z"/></g><ellipse class="cls-18" cx="124.85" cy="96.39" rx="6.26" ry="2.93"/><ellipse class="cls-6" cx="107.84" cy="89.35" rx="6.84" ry="8.61"/><g class="cls-19"><path d="M107.84,79.85a3.87,3.87,0,0,0-.49.05A2.6,2.6,0,0,1,108.4,82a2.67,2.67,0,0,1-2.67,2.67,2.63,2.63,0,0,1-2.56-2.14,5.46,5.46,0,1,0,4.67-2.65Z"/></g><ellipse class="cls-6" cx="141.87" cy="89.35" rx="6.84" ry="8.61"/><g class="cls-20"><path d="M142.19,78.89a3.91,3.91,0,0,0-.48,0,2.64,2.64,0,0,1,1,2.07,2.67,2.67,0,0,1-2.68,2.67,2.63,2.63,0,0,1-2.56-2.13,5.39,5.39,0,0,0-.8,2.82,5.48,5.48,0,1,0,5.47-5.48Z"/></g><path class="cls-21" d="M102.16,76.42s5.31,2.39,11.18-3.61C113.34,72.81,109.71,82.92,102.16,76.42Z"/><path class="cls-21" d="M147.36,74.94s-4.58,3.6-11.71-.82C135.65,74.12,141.6,83.06,147.36,74.94Z"/><path class="cls-22" d="M114.65,103.58s-.31,8.7,10.15,8.7,10.26-8.67,10.26-8.67l-9.48-.36Z"/><path class="cls-7" d="M115.42,104a30.87,30.87,0,0,0,9.32,1.23,32.25,32.25,0,0,0,9.44-1.23s-.84,6.38-9.38,6.38S115.42,104,115.42,104Z"/><g class="cls-23"><ellipse class="cls-6" cx="124.8" cy="102.99" rx="8.17" ry="4.17"/><ellipse class="cls-24" cx="124.8" cy="112.83" rx="8.17" ry="4.17"/></g><path class="cls-22" d="M114.65,103.58A84.73,84.73,0,0,1,124.8,103a83.68,83.68,0,0,1,10.26.65s-3.52,1.59-10.59,1.59S114.65,103.58,114.65,103.58Z"/><ellipse class="cls-5" cx="108.75" cy="98.2" rx="6.72" ry="2.49"/><ellipse class="cls-5" cx="140.95" cy="98.2" rx="6.72" ry="2.49"/><path class="cls-8" d="M149.29,166.42c.2-11-1.49-24.78-2.47-31.76a75.79,75.79,0,0,0-.4-14.09c-.06-.81-6.19-6-6.19-6l-7.29,2.36a8.94,8.94,0,0,1-8.57,8.27,8.6,8.6,0,0,1-8.55-7.92l-10-1.73s-3.23,4.25-3.29,5.06a79.11,79.11,0,0,0-.13,17.81,213.88,213.88,0,0,0-2,28s-1.1,2.65,6.2,1.7a147.13,147.13,0,0,1,17.84-.68h.49a151,151,0,0,1,18.07.68C150.41,169.07,149.29,166.42,149.29,166.42Z"/><g class="cls-25"><path class="cls-26" d="M112.51,114.31c-.28.63-.07,14.12,12.34,14.12S137,110.83,137,110.83Z"/></g><path class="cls-5" d="M90.15,143.81s3.47,2.48,6.21-2l-5.46-2.68-1.74,2.18Z"/><path class="cls-9" d="M81.58,158.91h24.3a0,0,0,0,1,0,0v21.73A9.36,9.36,0,0,1,96.51,190H90.94a9.36,9.36,0,0,1-9.36-9.36V158.91A0,0,0,0,1,81.58,158.91Z" transform="translate(26.1 -11.68) rotate(8.28)"/><g class="cls-27"><rect class="cls-28" x="74.54" y="150.61" width="1.63" height="42.34" transform="translate(25.53 -9.06) rotate(8.28)"/><rect class="cls-28" x="83.71" y="151.95" width="1.63" height="42.34" transform="translate(25.82 -10.37) rotate(8.28)"/><rect class="cls-28" x="92.88" y="153.28" width="1.63" height="42.34" transform="translate(26.1 -11.68) rotate(8.28)"/><rect class="cls-28" x="102.04" y="154.62" width="1.63" height="42.34" transform="translate(26.39 -12.98) rotate(8.28)"/><rect class="cls-28" x="111.21" y="155.95" width="1.63" height="42.34" transform="translate(26.68 -14.29) rotate(8.28)"/><path class="cls-28" d="M121,170.74c-8.29-.64-17.09-1.58-26.35-2.93s-17.9-2.94-26-4.69l.28-1.9c8,1.83,16.65,3.5,26,4.86s18.18,2.23,26.37,2.76Z"/><path class="cls-28" d="M120.1,176.84c-8.28-.63-17.09-1.57-26.35-2.92s-17.9-2.94-26-4.69l.28-1.9c8,1.83,16.65,3.5,26,4.85s18.18,2.24,26.38,2.77Z"/><rect class="cls-29" x="79.54" y="157.3" width="33.12" height="6.14" transform="translate(24.1 -12.17) rotate(8.28)"/></g><rect class="cls-1" x="81.61" y="156.95" width="29.4" height="5.1" rx="2.55" transform="translate(23.98 -12.21) rotate(8.28)"/><g class="cls-30"><rect class="cls-31" x="77.87" y="153.37" width="40" height="4.83" transform="matrix(0.99, 0.14, -0.14, 0.99, 23.46, -12.47)"/></g><path class="cls-32" d="M95.63,156.44s25.55-20.25,42.79-41.79a1.39,1.39,0,0,1,1.62-.44l3.72-.16s-.94,1.75-1.68,2.92c-2.42,3.82-8.5,17.15-42.63,42.28Z"/><circle class="cls-33" cx="95.86" cy="159.57" r="4.83" transform="translate(-77.8 92.53) rotate(-37.9)"/><circle class="cls-34" cx="95.86" cy="159.57" r="2.59"/><path class="cls-5" d="M80.59,124.94a12.57,12.57,0,0,0-4.18-1.7,9.27,9.27,0,0,1-4-1.94,8.06,8.06,0,0,0-1.67-1.53c-.67-.35-1.7-.19-1.91.54a1.62,1.62,0,0,0,.12,1A6.07,6.07,0,0,0,71,124c-1.4.12-2.52,1.15-3.72,1.87s-2.92,1.11-3.89.1c-.69-.72-1-2.1-2-2a1.16,1.16,0,0,0-.94,1.15,2.56,2.56,0,0,0,.54,1.49,7.41,7.41,0,0,0,3,2.58,13.11,13.11,0,0,0,3.54,1,62.79,62.79,0,0,0,8.2.85c1.9.07,4.52,0,6-1.42S82,126,80.59,124.94Z"/><path class="cls-5" d="M66.74,125.55a16.41,16.41,0,0,1-3.34-.71,8.38,8.38,0,0,1-2.25-1.24,4.22,4.22,0,0,0-.94-.64,1.07,1.07,0,0,0-1.07.09c-.48.4-.3,1.19.09,1.67a5.14,5.14,0,0,0,1.92,1.36,16.92,16.92,0,0,0,4.47,1.49,4.4,4.4,0,0,0,2,0c.54-.17,1.41-.69,1.1-1.38S67.3,125.63,66.74,125.55Z"/><path class="cls-5" d="M67.79,124.06a16.65,16.65,0,0,1-3.35-.71,8.26,8.26,0,0,1-2.25-1.24,4.27,4.27,0,0,0-.93-.64,1.09,1.09,0,0,0-1.08.09c-.47.4-.29,1.19.09,1.68a5.5,5.5,0,0,0,1.93,1.36,16.78,16.78,0,0,0,4.47,1.48,4.36,4.36,0,0,0,2,0c.54-.16,1.42-.69,1.11-1.38S68.35,124.14,67.79,124.06Z"/><path class="cls-5" d="M70.32,124.12a16.41,16.41,0,0,1-3.34-.71,8.41,8.41,0,0,1-2.25-1.25,4.18,4.18,0,0,0-.94-.63,1.07,1.07,0,0,0-1.07.09c-.48.4-.3,1.19.09,1.67a5.26,5.26,0,0,0,1.92,1.36,16.92,16.92,0,0,0,4.47,1.49,4.54,4.54,0,0,0,2,0c.54-.17,1.41-.69,1.1-1.38S70.88,124.2,70.32,124.12Z"/><path class="cls-5" d="M168,125.3a12.42,12.42,0,0,1,4.17-1.69,9.39,9.39,0,0,0,4-1.94,7.79,7.79,0,0,1,1.67-1.53c.67-.35,1.7-.19,1.91.54a1.59,1.59,0,0,1-.12,1,6,6,0,0,1-2.12,2.73c1.4.13,2.52,1.15,3.72,1.88s2.92,1.11,3.89.09c.69-.72,1-2.09,2-2a1.15,1.15,0,0,1,.94,1.14,2.62,2.62,0,0,1-.54,1.5,7.39,7.39,0,0,1-3,2.57,13.13,13.13,0,0,1-3.54,1,64.38,64.38,0,0,1-8.2.85c-1.9.07-4.52,0-6-1.42S166.61,126.36,168,125.3Z"/><path class="cls-5" d="M181.86,125.92a16.41,16.41,0,0,0,3.34-.71,8.41,8.41,0,0,0,2.25-1.25,4.18,4.18,0,0,1,.94-.63,1.07,1.07,0,0,1,1.08.09c.47.4.29,1.19-.1,1.67a5.26,5.26,0,0,1-1.92,1.36,16.9,16.9,0,0,1-4.47,1.48,4.4,4.4,0,0,1-2,0c-.54-.17-1.41-.7-1.1-1.38S181.3,126,181.86,125.92Z"/><path class="cls-5" d="M180.81,124.43a16.65,16.65,0,0,0,3.35-.71,8.38,8.38,0,0,0,2.25-1.24,4.16,4.16,0,0,1,.93-.64,1.09,1.09,0,0,1,1.08.09c.47.4.29,1.19-.09,1.67A5.1,5.1,0,0,1,186.4,125a16.8,16.8,0,0,1-4.47,1.49,4.36,4.36,0,0,1-2,0c-.54-.17-1.42-.69-1.1-1.38S180.25,124.51,180.81,124.43Z"/><path class="cls-5" d="M178.28,124.48a15.77,15.77,0,0,0,3.34-.71,8.11,8.11,0,0,0,2.25-1.24,4.18,4.18,0,0,1,.94-.63,1,1,0,0,1,1.08.09c.47.39.29,1.18-.1,1.67a5.26,5.26,0,0,1-1.92,1.36,16.9,16.9,0,0,1-4.47,1.48,4.4,4.4,0,0,1-2,0c-.54-.16-1.41-.69-1.1-1.38S177.72,124.56,178.28,124.48Z"/><path class="cls-35" d="M173.45,111.44a2.21,2.21,0,0,1,2.29,0,4.17,4.17,0,0,1,1.59,1.76.54.54,0,0,0,.21.26.66.66,0,0,0,.34,0,1.15,1.15,0,0,1,1.05.91,1.51,1.51,0,0,1,2.15.79,2.57,2.57,0,0,1,2.28-.43,1.67,1.67,0,0,1,1.1,1.91c-.26.92-1.35,1.28-2.3,1.45a24.07,24.07,0,0,1-3.06.34,7.2,7.2,0,0,1-4.68-1,4.15,4.15,0,0,1-.51-6.18l0,.69"/><g class="cls-36"><path class="cls-37" d="M167.79,113.8a7.74,7.74,0,0,0-1.14,9.17c2.29,4.38,10.19,6.85,17.24,3.78a11.09,11.09,0,0,0,5-4.25c1.3-2.07,1.69-4.25.5-6.28l0,0c-1-1.35-2.74-.17-4.19-.51C180.59,114.59,173.87,107.5,167.79,113.8Z"/><path class="cls-38" d="M169,115.51s.08,1-1.32,1.72"/><path class="cls-39" d="M168.21,116.59a9.72,9.72,0,0,1-5.31-3.67.46.46,0,0,1,.11-.61h0a.45.45,0,0,1,.66.13,8.5,8.5,0,0,0,4.65,3.78.19.19,0,0,1,.09.3h0A.2.2,0,0,1,168.21,116.59Z"/><path class="cls-40" d="M168.44,116.36s-3.71-1.2-2.68-6.17C165.76,110.19,170.25,112.61,168.44,116.36Z"/><g class="cls-41"><polygon class="cls-2" points="165.76 110.19 168.44 116.36 167.26 116.37 164.95 112.85 165.76 110.19"/></g></g><path class="cls-3" d="M80,128.13a4,4,0,0,1-1.61,1,3.89,3.89,0,0,1-1.69-.11c-7.69-1.73-15.15-5.1-23-5,1.6-2.15,3.51-4.28,6.09-5s5.17,0,7.57,1,4.73,2.25,7.29,2.63c1.66.24,3.36.11,5,.23.85.06,4.19.4,4.36,1.54C84.11,125.33,80.67,127.53,80,128.13Z"/><g class="cls-42"><path class="cls-43" d="M55.62,123.12a29.2,29.2,0,0,1,10.27,1.76A74.23,74.23,0,0,0,76,127.74a4.23,4.23,0,0,0,2.15,0,4.52,4.52,0,0,0,1-.55c1.17-.81,2.31-1.65,3.43-2.53.43-.33.9-.75.89-1.3l-.54-.13A34,34,0,0,1,79,126.39a4.93,4.93,0,0,1-1.44.79,5.44,5.44,0,0,1-3.16-.39q-5.69-1.89-11.46-3.48a15.37,15.37,0,0,0-6.21-.8,3.54,3.54,0,0,1,1.25-1.33,30.83,30.83,0,0,1,5-2.7c-.69-.47-1.15,0-1.75.29s-1.51.5-2.23.91A8.42,8.42,0,0,0,55.62,123.12Z"/><ellipse class="cls-43" cx="69.53" cy="122.82" rx="1.45" ry="3.07" transform="translate(-63.67 169.47) rotate(-79.79)"/></g><path class="cls-3" d="M80.28,128.76a3,3,0,0,1-3.39.28c-7.29-3-14.07-7.59-21.86-8.8,1.95-1.84,4.19-3.63,6.86-3.92s5.09.9,7.28,2.28,4.29,3,6.75,3.83c1.59.52,3.28.67,4.91,1.07.83.21,4.06,1.11,4,2.27C84.85,126.71,81.09,128.29,80.28,128.76Z"/><g class="cls-44"><path class="cls-43" d="M57.15,119.7A29.35,29.35,0,0,1,67,123.17a74.21,74.21,0,0,0,9.43,4.53,4.22,4.22,0,0,0,2.12.31,4.33,4.33,0,0,0,1-.38c1.28-.6,2.55-1.24,3.81-1.91.48-.26,1-.59,1.09-1.13l-.51-.23a33,33,0,0,1-4.35,2.52,4.89,4.89,0,0,1-1.56.53,5.39,5.39,0,0,1-3-.92q-5.3-2.82-10.71-5.37a15.59,15.59,0,0,0-6-1.85,3.61,3.61,0,0,1,1.46-1.09,31,31,0,0,1,5.38-1.82c-.61-.58-1.14-.18-1.77,0s-1.58.24-2.36.52A8.46,8.46,0,0,0,57.15,119.7Z"/><ellipse class="cls-43" cx="70.91" cy="121.76" rx="1.45" ry="3.07" transform="translate(-67.75 146.82) rotate(-70.03)"/></g></svg>