<svg id="Layer_7" data-name="Layer 7" xmlns="http://www.w3.org/2000/svg" xmlns:xlink="http://www.w3.org/1999/xlink" viewBox="0 0 260 168"><defs><style>.cls-1{fill:#c5ddd7;}.cls-2{fill:#d6eae6;}.cls-3{fill:#a8651d;}.cls-4{fill:#fff;}.cls-5{fill:#f43434;}.cls-6{fill:#d18830;}.cls-7{fill:#893e00;}.cls-8{fill:#ffe33b;}.cls-9{fill:#4932ce;}.cls-10{fill:#7a3501;}.cls-11{fill:#e22b2b;}.cls-12{fill:#a05e1d;}.cls-13{clip-path:url(#clip-path);}.cls-14{fill:#aecec5;}.cls-14,.cls-18{opacity:0.44;}.cls-15{fill:#f49c00;}.cls-16{fill:#f28f00;}.cls-17{clip-path:url(#clip-path-2);}.cls-18{fill:#bcd8d1;}.cls-19{fill:#c0e2da;}.cls-20{fill:#bc1d1d;}.cls-21{clip-path:url(#clip-path-3);}.cls-22{fill:#935212;opacity:0.46;}.cls-23{fill:#590b0b;}.cls-24{fill:#ea4747;}.cls-25{clip-path:url(#clip-path-4);}.cls-26{fill:#914e0c;}.cls-27{clip-path:url(#clip-path-5);}.cls-28{fill:#562b04;}.cls-29{fill:#8c4b10;}.cls-30{fill:#935115;}.cls-31{clip-path:url(#clip-path-6);}.cls-32{fill:#d62525;}.cls-33{clip-path:url(#clip-path-7);}.cls-34{fill:#ea9c3f;}.cls-35{fill:#af6822;opacity:0.42;}.cls-36{clip-path:url(#clip-path-8);}.cls-37{fill:#d67422;}</style><clipPath id="clip-path"><path class="cls-1" d="M69,113.36c.49.7,5.08,11.65,5.88,15.64a1.1,1.1,0,0,0,1.55.79c1.41-.65,4.06-.47,8-2,.72-.28,1.29-.82,1.15-1.57l-1-10.76-.75-6.6Z"/></clipPath><clipPath id="clip-path-2"><path class="cls-2" d="M69.55,109.75c.13.84-.62,12.69-1.67,16.62a1.11,1.11,0,0,0,1,1.4c1.55,0,3.85,1.37,8.1,1.73a1.48,1.48,0,0,0,1.73-.9l3.84-10.1,2.25-6.25Z"/></clipPath><clipPath id="clip-path-3"><polygon class="cls-3" points="75.34 94.2 80.47 94.3 80.55 88.5 75.79 88.5 75.34 94.2"/></clipPath><clipPath id="clip-path-4"><path class="cls-3" d="M80,91.53a19.75,19.75,0,0,0,10.43-1.91l-.1-.11a3.53,3.53,0,0,1-1.74-2.57c2.94,2.31,3.86,1.15,3.86,1.15a4.11,4.11,0,0,0,1.19-2.59,3.91,3.91,0,0,0-.53-2.15,28.19,28.19,0,0,0,1.65-8.49c.57-9.66-5.29-15-12.87-15.43s-15,4.14-15.62,13.8a16.4,16.4,0,0,0,10.49,17.6,8.31,8.31,0,0,0,2.83.68Z"/></clipPath><clipPath id="clip-path-5"><ellipse class="cls-4" cx="88.68" cy="79.71" rx="4.01" ry="3.19" transform="translate(3.9 163.55) rotate(-86.63)"/></clipPath><clipPath id="clip-path-6"><path class="cls-5" d="M75.2,92.05s9.63,6.71,6.83,1.84a17.9,17.9,0,0,1,3.28,7.89c.49,4.27,1.42,11.5,1.87,13.12s-2.44,2.82-6,3.19-12,1-13.52-2.91.93-16.83,2.71-21.09a1.63,1.63,0,0,1,1.27-1c.48-.08,1.13-.21,1.88-.41C74,92.54,74.56,92,75.2,92.05Z"/></clipPath><clipPath id="clip-path-7"><path class="cls-6" d="M63.47,112.65s-3.29,10,.7,12.74,15.19,2.65,18.48-.15.25-12.59.25-12.59Z"/></clipPath><clipPath id="clip-path-8"><rect class="cls-7" x="62.29" y="110.49" width="22.15" height="2.93" rx="1.47"/></clipPath></defs><path class="cls-8" d="M62.21,111.78a3.49,3.49,0,0,0-.2-1.6h-.67a3.32,3.32,0,0,0-.21,1.6,3.27,3.27,0,0,0,.21,1.59H62A3.43,3.43,0,0,0,62.21,111.78Z"/><path class="cls-9" d="M63.11,111.78a5.38,5.38,0,0,0-.32-2.54H61.72c-.18,0-.32,1.14-.32,2.55s.14,2.54.32,2.54h1.07A5.44,5.44,0,0,0,63.11,111.78Z"/><path class="cls-10" d="M70.18,93.65a32.53,32.53,0,0,0-6.41,17.84l-1.4.38S61.5,100.79,70.18,93.65Z"/><path class="cls-3" d="M75.89,97.58l3.76,8.82a1.76,1.76,0,0,0,2.33.94,3.64,3.64,0,0,0,1.46-1.44,1.28,1.28,0,0,0,.08-1.2l-4.21-8.77Z"/><path class="cls-11" d="M75.94,93.88a3.41,3.41,0,0,0-.85,2.66,23.53,23.53,0,0,0,2,7.34l.15.89s.87,1.38,4.36-.52c1.44-.78,3.21-1.79,2.63-3.39-.16-.45-.79-2-1.07-2.54C81.75,95.23,79.14,90.35,75.94,93.88Z"/><path class="cls-3" d="M86.67,114l-2,1a.82.82,0,0,1-1.09-.39l-3.89-8.18,3.83-1.82,3.59,8.28A.81.81,0,0,1,86.67,114Z"/><path class="cls-3" d="M91,114.76a1.84,1.84,0,0,1,.62.4.58.58,0,0,1,.1.69c-.2.3-.65.24-1,.14l-2.12-.59c0,.35.56.56.48.9a.57.57,0,0,1-.15.22,4.45,4.45,0,0,1-3.46,1.33,1.53,1.53,0,0,1-.57-.13,1.57,1.57,0,0,1-.57-.6,3.66,3.66,0,0,1-.49-3.18,2.14,2.14,0,0,1,2.91-1.28A46.39,46.39,0,0,0,91,114.76Z"/><path class="cls-3" d="M89,116a11.8,11.8,0,0,1,2.1,2.61c.13.19.25.45.13.65a.46.46,0,0,1-.51.15,1.26,1.26,0,0,1-.46-.33,14.09,14.09,0,0,1-2.33-2.73c-.07-.13,0-.32,0-.47a.28.28,0,0,1,.3-.27"/><path class="cls-3" d="M88.09,116.87a12.27,12.27,0,0,1,2,2.72c.11.2.22.47.08.66a.45.45,0,0,1-.51.12,1.17,1.17,0,0,1-.44-.36A13.6,13.6,0,0,1,87,117.16c-.07-.14,0-.32.07-.47a.27.27,0,0,1,.31-.25"/><path class="cls-3" d="M86.79,117.12A12.08,12.08,0,0,1,88.56,120c.1.21.19.48,0,.66a.45.45,0,0,1-.52.09,1.28,1.28,0,0,1-.42-.38,14.41,14.41,0,0,1-2-3c-.05-.14.07-.32.1-.47s.19-.28.33-.22"/><path class="cls-3" d="M85.48,116.8a10.52,10.52,0,0,1,1.29,2.68c.07.2.13.44,0,.59a.41.41,0,0,1-.47,0,1,1,0,0,1-.33-.38,12,12,0,0,1-1.47-2.84c0-.13.09-.27.13-.4a.24.24,0,0,1,.31-.17"/><path class="cls-12" d="M78.89,124.44l.49,12.84a6.27,6.27,0,0,0,5.05-.24l.32-12.82a3,3,0,0,0-5.86.22Z"/><path class="cls-1" d="M69,113.36c.49.7,5.08,11.65,5.88,15.64a1.1,1.1,0,0,0,1.55.79c1.41-.65,4.06-.47,8-2,.72-.28,1.29-.82,1.15-1.57l-1-10.76-.75-6.6Z"/><g class="cls-13"><path class="cls-14" d="M80.14,127.76A17.55,17.55,0,0,0,87,125.17a9.49,9.49,0,0,1,.46,2.24.42.42,0,0,1,0,.25.4.4,0,0,1-.22.14A67.15,67.15,0,0,1,74.68,131c-.29.05-.66.06-.82-.19a.76.76,0,0,1-.07-.45c.09-1.48.53-1.83,2-2.16A43,43,0,0,1,80.14,127.76Z"/></g><path class="cls-15" d="M89.2,140.18a5.28,5.28,0,0,1,1.83.48,1,1,0,0,1,.28,1s-.59.79-5.86.59-6.74-.81-6.74-.81-.28-.22,0-1.22S89.2,140.18,89.2,140.18Z"/><path class="cls-12" d="M84.54,136.89s3.92,2,4.7,2.28,1.42.42,1.27,1.24-1.89.68-3.51.66-7.11.27-7.83-1.08.56-3.86.56-3.86A4.1,4.1,0,0,1,84.54,136.89Z"/><path class="cls-16" d="M87.41,141.12s.38-2.05,1.21-2.27a1.12,1.12,0,0,0-.82-.42,4.07,4.07,0,0,0-1.07,2.68S86.87,141.34,87.41,141.12Z"/><path class="cls-2" d="M85.11,115.7s-.22,5.76-4.41,6.24-10.86,2.6-12.21-6.76Z"/><path class="cls-3" d="M70.83,122.66l-6.28,11.2A6.25,6.25,0,0,0,69,136.3l7-10.77a3,3,0,0,0-5.12-2.87Z"/><path class="cls-2" d="M69.55,109.75c.13.84-.62,12.69-1.67,16.62a1.11,1.11,0,0,0,1,1.4c1.55,0,3.85,1.37,8.1,1.73a1.48,1.48,0,0,0,1.73-.9l3.84-10.1,2.25-6.25Z"/><g class="cls-17"><path class="cls-18" d="M73.16,127.6a17.48,17.48,0,0,0,7.33.73,9.94,9.94,0,0,1-.58,2.22.39.39,0,0,1-.14.21.39.39,0,0,1-.26,0,67.12,67.12,0,0,1-12.69-2.68c-.28-.09-.62-.24-.65-.53a.78.78,0,0,1,.13-.44c.74-1.29,1.29-1.4,2.73-1.06A43.46,43.46,0,0,1,73.16,127.6Z"/></g><rect class="cls-19" x="70.89" y="121.72" width="6.53" height="4.78" rx="0.95" transform="translate(118.61 261.68) rotate(-167.05)"/><path class="cls-15" d="M71.61,141.36A5.26,5.26,0,0,1,73,142.61a1,1,0,0,1-.21,1s-.89.43-5.49-2.15-5.62-3.81-5.62-3.81-.15-.31.56-1.08S71.61,141.36,71.61,141.36Z"/><path class="cls-3" d="M69,136.3s2.59,3.54,3.14,4.17,1.07,1,.56,1.69-2-.26-3.43-1-6.44-3-6.47-4.54S65,133.42,65,133.42A4.11,4.11,0,0,1,69,136.3Z"/><path class="cls-16" d="M69.59,141.37s1.28-1.65,2.11-1.46a1.07,1.07,0,0,0-.53-.76,4.05,4.05,0,0,0-2.18,1.9S69,141.32,69.59,141.37Z"/><path class="cls-20" d="M82,93.89s-2.51-2.49-7.25-1.79L75.59,96l7.29,1.78S83.13,94.87,82,93.89Z"/><polygon class="cls-3" points="75.34 94.2 80.47 94.3 80.55 88.5 75.79 88.5 75.34 94.2"/><g class="cls-21"><ellipse class="cls-22" cx="78.84" cy="89.64" rx="2.43" ry="4.37" transform="translate(-24.04 150.19) rotate(-79.14)"/></g><path class="cls-3" d="M82.51,95s-2.25-2.48-7.41-2.42l1.48,5.29,6.79.3Z"/><path class="cls-23" d="M91.38,88.19a8.08,8.08,0,0,0-1.17,1.32s-1.9-1.55-1.72-2.6Z"/><path class="cls-4" d="M91.71,88.42a2.34,2.34,0,0,1-.54.45,3.74,3.74,0,0,1-2.52-1.82l1.74.63Z"/><ellipse class="cls-24" cx="88.77" cy="88.97" rx="1.02" ry="1.26" transform="translate(-27.5 41.25) rotate(-22.75)"/><path class="cls-3" d="M80,91.53a19.75,19.75,0,0,0,10.43-1.91l-.1-.11a3.53,3.53,0,0,1-1.74-2.57c2.94,2.31,3.86,1.15,3.86,1.15a4.11,4.11,0,0,0,1.19-2.59,3.91,3.91,0,0,0-.53-2.15,28.19,28.19,0,0,0,1.65-8.49c.57-9.66-5.29-15-12.87-15.43s-15,4.14-15.62,13.8a16.4,16.4,0,0,0,10.49,17.6,8.31,8.31,0,0,0,2.83.68Z"/><g class="cls-25"><path class="cls-26" d="M78.79,79.13s1.37-10.59,5.48-11.49,5,1.1,7.62,1.59a7.23,7.23,0,0,0,4.25-.32l.75-12.79L65.65,54.28,62.56,79.71l.53,3.79c1.48,1.75,5.32,3,9.08,1A20.94,20.94,0,0,0,78.79,79.13Z"/></g><ellipse class="cls-4" cx="88.68" cy="79.71" rx="4.01" ry="3.19" transform="translate(3.9 163.55) rotate(-86.63)"/><g class="cls-27"><path d="M90.35,76.94a.93.93,0,0,1,.23,0,1.23,1.23,0,1,0,1.88,1.32,2.55,2.55,0,1,1-2.11-1.36Z"/></g><path class="cls-28" d="M91.49,74.71s-1.91-1.94-5.47-.32C86,74.39,89.31,70.61,91.49,74.71Z"/><ellipse class="cls-3" cx="88.01" cy="83.8" rx="1.16" ry="3.13" transform="translate(-0.82 166.74) rotate(-86.63)"/><path class="cls-3" d="M93.63,81.92a2.11,2.11,0,0,0,.65,1.62c.73.65.35,1.52-1.56,1.53S92.71,79.37,93.63,81.92Z"/><path class="cls-29" d="M92.59,88.15a.78.78,0,0,1-1,.5c-.78-.16-2.73-.9-3.2-2a6.69,6.69,0,0,0,1.74.65C91.14,87.51,92.59,87.52,92.59,88.15Z"/><path class="cls-30" d="M88.62,86.94a4.24,4.24,0,0,0,1,1.85c.77.78.94.57.89,1s-.81.68-1.59-.54a3.81,3.81,0,0,1-.53-2.56S88.67,86.79,88.62,86.94Z"/><circle class="cls-3" cx="76.32" cy="80.12" r="3.47"/><path class="cls-5" d="M75.2,92.05s9.63,6.71,6.83,1.84a17.9,17.9,0,0,1,3.28,7.89c.49,4.27,1.42,11.5,1.87,13.12s-2.44,2.82-6,3.19-12,1-13.52-2.91.93-16.83,2.71-21.09a1.63,1.63,0,0,1,1.27-1c.48-.08,1.13-.21,1.88-.41C74,92.54,74.56,92,75.2,92.05Z"/><g class="cls-31"><path class="cls-32" d="M73.34,92S85,103.59,82.78,93.29l-6.91-2.35Z"/></g><path class="cls-8" d="M84.21,111.78a3.49,3.49,0,0,1,.2-1.6h.67c.12,0,.21.72.21,1.6s-.09,1.59-.21,1.59h-.67A3.43,3.43,0,0,1,84.21,111.78Z"/><path class="cls-9" d="M83.31,111.78a5.53,5.53,0,0,1,.32-2.54H84.7c.18,0,.32,1.14.32,2.55s-.14,2.54-.32,2.54H83.63A5.59,5.59,0,0,1,83.31,111.78Z"/><path class="cls-10" d="M83.29,110.51s1.09-11.79-.41-15.35l.53.3s2.43,5.43.91,15.82Z"/><path class="cls-6" d="M63.47,112.65s-3.29,10,.7,12.74,15.19,2.65,18.48-.15.25-12.59.25-12.59Z"/><g class="cls-33"><rect class="cls-34" x="64.09" y="109.48" width="0.77" height="19.87"/><rect class="cls-34" x="68.44" y="109.48" width="0.77" height="19.87"/><rect class="cls-34" x="72.79" y="109.48" width="0.77" height="19.87"/><rect class="cls-34" x="77.14" y="109.48" width="0.77" height="19.87"/><rect class="cls-34" x="81.49" y="109.48" width="0.77" height="19.87"/><path class="cls-34" d="M85.6,115.85c-3.89.26-8,.42-12.43.42s-8.52-.16-12.39-.42V115c3.83.31,8,.5,12.39.5s8.59-.19,12.43-.5Z"/><path class="cls-34" d="M85.6,118.74c-3.89.27-8,.43-12.43.43s-8.52-.16-12.39-.43v-.9c3.83.31,8,.5,12.39.5s8.59-.19,12.43-.5Z"/><path class="cls-34" d="M85.6,121.64c-3.89.27-8,.43-12.43.42s-8.52-.15-12.39-.42v-.9c3.83.31,8,.5,12.39.5s8.59-.19,12.43-.5Z"/><path class="cls-34" d="M85.6,124.54c-3.89.26-8,.42-12.43.42s-8.52-.16-12.39-.42v-.9c3.83.31,8,.5,12.39.5s8.59-.19,12.43-.5Z"/><rect class="cls-35" x="61.02" y="110.66" width="25.43" height="3.5"/></g><rect class="cls-7" x="62.29" y="110.49" width="22.15" height="2.93" rx="1.47"/><g class="cls-36"><rect class="cls-37" x="61.29" y="109.42" width="23.84" height="1.53"/></g><path class="cls-3" d="M69.49,95.43l-3.87,8.77a1.75,1.75,0,0,0,.91,2.34,3.59,3.59,0,0,0,2,.08,1.26,1.26,0,0,0,.93-.77l3.53-9Z"/><path class="cls-5" d="M72.22,92.93a3.46,3.46,0,0,0-2.52,1.2,23.8,23.8,0,0,0-4,6.51l-.54.72s-.42,1.58,3.35,2.83c1.56.52,3.5,1.12,4.27-.4.22-.43.89-1.91,1.13-2.52C75.21,98.09,77,92.86,72.22,92.93Z"/><path class="cls-3" d="M64.88,114.5l-2.13-.8a.82.82,0,0,1-.47-1.07l3.32-8.43,4,1.56L66,114A.82.82,0,0,1,64.88,114.5Z"/><path class="cls-3" d="M65.89,113.85s.41,3.36,0,4-1.17.89-1.41-1.13c0,0-.21-.24-.34.11a12.15,12.15,0,0,0-.35,3.27s.07.66-.68.56-1.27-2.29-1.51-4.24a9.57,9.57,0,0,1,.92-4.37,2.09,2.09,0,0,1,2.2,0A2.33,2.33,0,0,1,65.89,113.85Z"/></svg>