<svg id="Layer_1" data-name="Layer 1" xmlns="http://www.w3.org/2000/svg" xmlns:xlink="http://www.w3.org/1999/xlink" viewBox="0 0 118.29 87.79"><defs><style>.cls-1{fill:none;}.cls-2{fill:#ffcb33;}.cls-3{fill:#1bb3ef;}.cls-4{fill:#f7f6da;}.cls-5{fill:#fff;}.cls-6{fill:#8b5e3c;}.cls-7{fill:#603913;}.cls-8{fill:#1daded;}.cls-9{clip-path:url(#clip-path);}</style><clipPath id="clip-path"><path id="SVGID" class="cls-1" d="M55.35,55.74S28.16,50.08,8.62,25c0,0-5,21.24,13.73,32.66S55.35,55.74,55.35,55.74Z"/></clipPath></defs><title>3_small_singing_bird-01</title><path class="cls-2" d="M84.56,30.35s21.45,3.11,27.18,5c5,1.63,8.05,4.62,5.8,15.06a2.09,2.09,0,0,1-3.57,1c-1.83-2-5-4.14-10.65-5.22-11.49-2.21-20.87-3.51-20.87-3.51S84.7,29.61,84.56,30.35Z"/><path class="cls-3" d="M75.13.38C68-1,48.15.41,43.86,20.47S30.21,66.57,0,60.76c0,0,16.76,35,61.69,25.35S114.57,8,75.13.38Z"/><path class="cls-4" d="M90.29,67.1a47,47,0,0,1-28.6,19,72.22,72.22,0,0,1-14.81,1.68,26.47,26.47,0,0,1,.45-6.18,26.06,26.06,0,0,1,43-14.51Z"/><circle class="cls-5" cx="79.16" cy="33.03" r="17.08" transform="translate(-5 16.47) rotate(-11.52)"/><circle class="cls-6" cx="76.06" cy="33.73" r="8.09" transform="translate(-4.76 13.98) rotate(-10.18)"/><circle class="cls-7" cx="75.81" cy="33.86" r="4.42" transform="translate(-4.79 13.94) rotate(-10.18)"/><circle class="cls-5" cx="74.37" cy="28.91" r="2.83" transform="translate(-3.94 13.6) rotate(-10.18)"/><path class="cls-8" d="M55.35,55.74S28.16,50.08,8.62,25c0,0-5,21.24,13.73,32.66S55.35,55.74,55.35,55.74Z"/><g class="cls-9"><circle class="cls-2" cx="51.61" cy="61.09" r="6.41" transform="translate(-9.99 10.09) rotate(-10.18)"/><circle class="cls-2" cx="41.32" cy="62.2" r="6.41" transform="translate(-10.35 8.28) rotate(-10.18)"/><circle class="cls-2" cx="29.83" cy="60.78" r="6.41" transform="translate(-10.28 6.23) rotate(-10.18)"/><circle class="cls-2" cx="20.25" cy="55.05" r="6.41" transform="translate(-9.41 4.45) rotate(-10.18)"/><circle class="cls-2" cx="12.39" cy="47.96" r="6.41" transform="translate(-8.28 2.95) rotate(-10.18)"/><circle class="cls-2" cx="6.52" cy="38.09" r="6.41" transform="translate(-6.63 1.75) rotate(-10.18)"/><circle class="cls-2" cx="3.32" cy="28.25" r="6.41" transform="translate(-4.94 1.03) rotate(-10.18)"/></g></svg>