<svg id="Layer_1" data-name="Layer 1" xmlns="http://www.w3.org/2000/svg" xmlns:xlink="http://www.w3.org/1999/xlink" viewBox="0 0 260 168"><defs><style>.cls-1{fill:#ffec00;}.cls-2{fill:red;}.cls-3{clip-path:url(#clip-path);}.cls-4{fill:#ffc200;}.cls-5{fill:#fa0;opacity:0.31;}.cls-6{fill:#fff1ae;}.cls-7{fill:none;stroke:#fff1ae;stroke-linecap:round;stroke-linejoin:round;stroke-width:0.39px;}.cls-8{fill:#ffb600;}.cls-9{clip-path:url(#clip-path-2);}.cls-10{fill:#ff8080;}.cls-11{fill:#ff3636;}.cls-12{fill:#ff4848;}.cls-13{fill:#dd1f1f;}.cls-14{fill:#c11111;}.cls-15{fill:#d12c2c;}.cls-16{fill:#ff8f8f;}.cls-17,.cls-18{fill:#ffc2c2;}.cls-18{opacity:0.35;}</style><clipPath id="clip-path"><path class="cls-1" d="M220.53,155.92l1.05,1.61,1.21-1.64.28-.39,1.21-1.63-1.86-.53a4.73,4.73,0,1,0-1.89,2.58Zm-5.53-6.1a3.62,3.62,0,1,1,.7,5.06A3.61,3.61,0,0,1,215,149.82Z"/></clipPath><clipPath id="clip-path-2"><polygon class="cls-2" points="225.8 160.61 227.08 158.88 227.31 158.56 228.59 156.82 227.06 154.22 222.42 153.34 220.54 155.9 222.86 159.93 225.8 160.61"/></clipPath></defs><path class="cls-1" d="M220.53,155.92l1.05,1.61,1.21-1.64.28-.39,1.21-1.63-1.86-.53a4.73,4.73,0,1,0-1.89,2.58Zm-5.53-6.1a3.62,3.62,0,1,1,.7,5.06A3.61,3.61,0,0,1,215,149.82Z"/><g class="cls-3"><rect class="cls-4" x="219.5" y="155.27" width="6.93" height="0.93" transform="translate(480.54 68.42) rotate(126.34)"/><circle class="cls-5" cx="217.89" cy="152" r="4.01"/></g><ellipse class="cls-6" cx="222.37" cy="151.94" rx="0.17" ry="0.77" transform="translate(-3.8 5.72) rotate(-1.46)"/><ellipse class="cls-6" cx="222.2" cy="150.76" rx="0.15" ry="0.36" transform="translate(-39.66 91.37) rotate(-21.38)"/><path class="cls-7" d="M220.71,148.58a4.73,4.73,0,0,0-5.91.09"/><ellipse class="cls-8" cx="221.47" cy="154.64" rx="3.64" ry="0.46" transform="translate(-34.33 241.41) rotate(-53.66)"/><polygon class="cls-2" points="225.8 160.61 227.08 158.88 227.31 158.56 228.59 156.82 227.06 154.22 222.42 153.34 220.54 155.9 222.86 159.93 225.8 160.61"/><g class="cls-9"><path class="cls-10" d="M226.2,153c0,.05-.62,2.76-.62,2.76l2,1.83,1.4-1,.1-1.67Z"/><path class="cls-11" d="M221.51,159.33s2.45-1.41,2.45-1.41l2.33,1.35-.51,1.62-1.56.6Z"/><path class="cls-12" d="M227.62,153.68l-2.07,2.07-4.28-2.09,1.49-1.71Z"/><path class="cls-13" d="M222.58,160.53c0-.05,1.36-2.59,1.36-2.59l-3.27-3.46-1.19,1.93Z"/><polygon class="cls-14" points="225.58 155.71 223.94 157.94 221.17 155.05 221.95 153.99 225.58 155.71"/><polygon class="cls-15" points="227.56 157.54 226.29 159.27 223.94 157.94 225.58 155.71 227.56 157.54"/></g><ellipse class="cls-16" cx="227.09" cy="158.5" rx="1.17" ry="0.1" transform="translate(-35.15 247.51) rotate(-53.66)"/><ellipse class="cls-17" cx="227.64" cy="155.84" rx="0.23" ry="1.11" transform="translate(-48.21 152.57) rotate(-33.72)"/><ellipse class="cls-18" cx="224.51" cy="154.15" rx="0.3" ry="1.83" transform="translate(26.34 340.96) rotate(-77.79)"/></svg>