<svg id="Layer_1" data-name="Layer 1" xmlns="http://www.w3.org/2000/svg" xmlns:xlink="http://www.w3.org/1999/xlink" viewBox="0 0 260 168"><defs><style>.cls-1{fill:#62d8f4;}.cls-15,.cls-2{fill:none;}.cls-3{fill:#ffec00;}.cls-4{fill:red;}.cls-5{fill:#ea15c2;}.cls-6{clip-path:url(#clip-path);}.cls-7{fill:#1e9bc6;}.cls-8{fill:#2eb6db;}.cls-9{fill:#eddd14;}.cls-10{clip-path:url(#clip-path-2);}.cls-11{clip-path:url(#clip-path-3);}.cls-12{fill:#ffc200;}.cls-13{fill:#fa0;opacity:0.31;}.cls-14{fill:#fff1ae;}.cls-15{stroke:#fff1ae;stroke-linecap:round;stroke-linejoin:round;stroke-width:1.1px;}.cls-16{fill:#ffb600;}.cls-17{clip-path:url(#clip-path-4);}.cls-18{fill:#ff8080;}.cls-19{fill:#ff3636;}.cls-20{fill:#ff4848;}.cls-21{fill:#dd1f1f;}.cls-22{fill:#c11111;}.cls-23{fill:#d12c2c;}.cls-24{fill:#ff8f8f;}.cls-25,.cls-26{fill:#ffc2c2;}.cls-26{opacity:0.35;}</style><clipPath id="clip-path"><path class="cls-1" d="M191.81,63.17a5.11,5.11,0,0,0-3.85-.68c-4.68,1-15.34,5.62-18,25.82-3.48,26.09,15.74,34.81,23.07,37.29s17.67-9.39,20.32-22.27C215.89,90.84,208.85,73.88,191.81,63.17Z"/></clipPath><clipPath id="clip-path-2"><path class="cls-2" d="M161.49,91.37h7.14l-4.63,9s-1.07.1-3.67.46l1.82,8.92,30.35,24.31s22.68-24.71,22.68-24.88S187,83.58,187,83.58l-22.67,1.31Z"/></clipPath><clipPath id="clip-path-3"><path class="cls-3" d="M180.06,109l2.92,4.49,3.36-4.57.8-1.08,3.37-4.57-5.18-1.46a13.19,13.19,0,1,0-5.27,7.19ZM164.63,92a10.09,10.09,0,1,1,2,14.14A10.08,10.08,0,0,1,164.63,92Z"/></clipPath><clipPath id="clip-path-4"><polygon class="cls-4" points="194.75 122.11 198.31 117.26 198.97 116.38 202.53 111.53 198.27 104.27 185.33 101.83 180.08 108.96 186.55 120.21 194.75 122.11"/></clipPath></defs><path class="cls-5" d="M169.74,91.43s-13.84-.83-15.24,1.49,1.38,8.53,1.38,8.53,12-1.81,14.66-1.49S172.06,94.18,169.74,91.43Z"/><path class="cls-5" d="M177.43,112.59s-5.19,8.08-6,11.63,4.19,6.61,5.29,5,7.17-11,7.17-11Z"/><path class="cls-1" d="M191.81,63.17a5.11,5.11,0,0,0-3.85-.68c-4.68,1-15.34,5.62-18,25.82-3.48,26.09,15.74,34.81,23.07,37.29s17.67-9.39,20.32-22.27C215.89,90.84,208.85,73.88,191.81,63.17Z"/><g class="cls-6"><path class="cls-7" d="M173.57,122.29l-5.38-18.21s3.65,4.4,13.54,4.65,12.84-7,12.84-7L177.09,90.35,164.3,99.78,163,113.57Z"/><path class="cls-8" d="M192.28,58.87s22,18.71,13.46,36.5-19.55,14.61-24.93,11-9.34-5.32-10.22-2.51-6-29.28-6-29.28S188.13,54.75,192.28,58.87Z"/><ellipse class="cls-9" cx="201.42" cy="92.53" rx="4.68" ry="2.8" transform="translate(39.47 243.88) rotate(-67.74)"/><path class="cls-7" d="M216.86,121.08a84.23,84.23,0,0,0-7.21-31.79,22.12,22.12,0,0,1-2.88,11.32c-2.73,4.8-7.19,8.42-12,11.12a4.45,4.45,0,0,1,2.38,2.35,27,27,0,0,1,3.16,16.35A37.36,37.36,0,0,0,216,123.1"/></g><g class="cls-10"><path class="cls-3" d="M180.06,109l2.92,4.49,3.36-4.57.8-1.08,3.37-4.57-5.18-1.46a13.19,13.19,0,1,0-5.27,7.19ZM164.63,92a10.09,10.09,0,1,1,2,14.14A10.08,10.08,0,0,1,164.63,92Z"/><g class="cls-11"><rect class="cls-12" x="177.17" y="107.21" width="19.33" height="2.61" transform="translate(384.96 22.3) rotate(126.34)"/><circle class="cls-13" cx="172.67" cy="98.08" r="11.2"/></g><ellipse class="cls-14" cx="185.19" cy="97.9" rx="0.46" ry="2.15" transform="translate(-2.44 4.75) rotate(-1.46)"/><ellipse class="cls-14" cx="184.71" cy="94.61" rx="0.41" ry="1" transform="translate(-21.78 73.84) rotate(-21.38)"/><path class="cls-15" d="M180.56,88.53s-8-6.52-16.51.26"/><ellipse class="cls-16" cx="182.67" cy="105.44" rx="10.15" ry="1.28" transform="translate(-10.5 190.11) rotate(-53.66)"/><polygon class="cls-4" points="194.75 122.11 198.31 117.26 198.97 116.38 202.53 111.53 198.27 104.27 185.33 101.83 180.08 108.96 186.55 120.21 194.75 122.11"/><g class="cls-17"><path class="cls-18" d="M195.85,100.74c0,.12-1.71,7.7-1.71,7.7l5.53,5.1,3.89-2.72.29-4.64Z"/><path class="cls-19" d="M182.77,118.53c.11,0,6.83-3.93,6.83-3.93l6.52,3.77-1.44,4.52-4.34,1.66Z"/><path class="cls-20" d="M199.83,102.77c-.13.07-5.79,5.76-5.79,5.76l-11.92-5.81,4.16-4.78Z"/><path class="cls-21" d="M185.77,121.88c0-.14,3.78-7.24,3.78-7.24l-9.1-9.65-3.33,5.39Z"/><polygon class="cls-22" points="194.14 108.44 189.55 114.64 181.83 106.58 184 103.64 194.14 108.44"/><polygon class="cls-23" points="199.67 113.54 196.12 118.37 189.55 114.64 194.14 108.44 199.67 113.54"/></g><ellipse class="cls-24" cx="198.36" cy="116.22" rx="3.27" ry="0.27" transform="translate(-12.8 207.14) rotate(-53.66)"/><ellipse class="cls-25" cx="199.87" cy="108.78" rx="0.64" ry="3.11" transform="translate(-26.76 129.24) rotate(-33.72)"/><ellipse class="cls-26" cx="191.14" cy="104.08" rx="0.85" ry="5.1" transform="matrix(0.21, -0.98, 0.98, 0.21, 48.97, 268.88)"/></g></svg>