<svg id="Layer_1" data-name="Layer 1" xmlns="http://www.w3.org/2000/svg" xmlns:xlink="http://www.w3.org/1999/xlink" width="400" height="180" viewBox="0 0 400 180">
  <defs>
    <style>
      .cls-1, .cls-2, .cls-22, .cls-9 {
        fill: none;
      }

      .cls-15, .cls-16, .cls-17, .cls-2 {
        stroke: #dbdbdb;
      }

      .cls-2, .cls-7, .cls-8 {
        stroke-miterlimit: 10;
      }

      .cls-13, .cls-15, .cls-16, .cls-17, .cls-18, .cls-2, .cls-7, .cls-8, .cls-9 {
        stroke-width: 0.68px;
      }

      .cls-3 {
        fill: #fff;
      }

      .cls-4 {
        clip-path: url(#clip-path);
      }

      .cls-5 {
        fill: #dbdbdb;
      }

      .cls-6 {
        fill: #f2f2f2;
      }

      .cls-10, .cls-7 {
        fill: #dd4e36;
      }

      .cls-22, .cls-7, .cls-8 {
        stroke: #e6e6e6;
      }

      .cls-12, .cls-8 {
        fill: #ccc;
      }

      .cls-9 {
        stroke: #fff;
      }

      .cls-13, .cls-15, .cls-16, .cls-17, .cls-18, .cls-22, .cls-9 {
        stroke-linecap: round;
        stroke-linejoin: round;
      }

      .cls-11 {
        fill: #e6e6e6;
      }

      .cls-13, .cls-15 {
        fill: #03d6fc;
      }

      .cls-13 {
        stroke: #03d6fc;
      }

      .cls-14 {
        clip-path: url(#clip-path-2);
      }

      .cls-16, .cls-18 {
        fill: #49e1fc;
      }

      .cls-17 {
        fill: #7ee9fc;
      }

      .cls-18 {
        stroke: #49e1fc;
      }

      .cls-19 {
        clip-path: url(#clip-path-3);
      }

      .cls-20 {
        clip-path: url(#clip-path-4);
      }

      .cls-21 {
        clip-path: url(#clip-path-5);
      }

      .cls-22 {
        stroke-width: 1.31px;
      }

      .cls-23 {
        fill: #73c9fe;
      }

      .cls-24 {
        fill: #38a4fc;
      }
    </style>
    <clipPath id="clip-path">
      <path id="SVGID" class="cls-1" d="M277.53,61.55S182,70.36,171.38,83.37c-.49.61,1.15,3.61-2,5.15-1.73.85-10.57,1.59-12.91,2.65-25.86,11.73-81.79,33.49-82.61,36.28-1,3.5,11.42,12.4,14.8,16.24s21.84,23.61,25,24.34,185.3-25.65,224-36.26c5.84-1.62-8.57-26.34-10.12-26.24s-27.88-5.71-28.29-7.25l-.41-1.54s10.86-1.32,11.32-3.85-1.82-8.95-7.53-10.15-25.15-2.14-25.32-9.63c9.92-1.26,27.26-3.94,27.26-3.94l-.18-2.8Z"/>
    </clipPath>
    <clipPath id="clip-path-2">
      <path id="SVGID-2" data-name="SVGID" class="cls-2" d="M171.38,83.37s-.79,5.43,34.37,2c31.38-3,50.14-5.72,53.81-6.26a.88.88,0,0,1,.94.52l3.05,6.87a.88.88,0,0,1-.68,1.24C254.51,89,202.76,96.52,179.73,97,162,97.38,153.56,97.69,171.38,83.37Z"/>
    </clipPath>
    <clipPath id="clip-path-3">
      <path id="SVGID-3" data-name="SVGID" class="cls-2" d="M123.44,134.25c-.28-2.13-.36-2.56,16.84-7.79,3.76-1.14,124.59-19.63,137.17-21.55a1.45,1.45,0,0,1,1.53.8l2.5,5.11a1.46,1.46,0,0,1-1.08,2.08L166,131.3a5.68,5.68,0,0,1-3.46-.54l-.9-.46a5.67,5.67,0,0,0-3.44-.54c-3.53.55-11.66,1.85-19.14,3.2C131,134.42,123.65,135.84,123.44,134.25Z"/>
    </clipPath>
    <clipPath id="clip-path-4">
      <path id="SVGID-4" data-name="SVGID" class="cls-1" d="M274.66,76.09s2.09,6.71,4.61,9l-5.54.36L268.4,77.2Z"/>
    </clipPath>
    <clipPath id="clip-path-5">
      <path id="SVGID-5" data-name="SVGID" class="cls-1" d="M285.58,102.27s2.15,6.1,4.46,7.53l-6.93.44-4.57-7.49Z"/>
    </clipPath>
  </defs>
  <title>14_big_boat_moves_fast</title>
  <path class="cls-3" d="M220.54,120.92l14.51-6.6,5.33-2.42c1.71-.75,3.33-1.4,4.71-2,2.77-1.12,4.66-1.78,4.66-1.78l0,.06s-1.77.93-4.47,2.21c-1.35.63-2.93,1.37-4.65,2.12l-5.39,2.27L220.57,121Z"/>
  <path class="cls-3" d="M275.45,110.67l15.71-2.73,5.77-1c1.84-.29,3.57-.52,5.06-.72,3-.38,5-.55,5-.55v.07s-1.95.46-4.88,1c-1.47.27-3.18.59-5,.88l-5.79.84-15.78,2.27Z"/>
  <path class="cls-3" d="M158.15,85.13s4.44.65,8.86,1.36l3.25.5c1,.19,2,.41,2.81.59,1.64.39,2.72.72,2.72.72v.07s-1.13-.06-2.8-.27c-.83-.11-1.81-.24-2.84-.43L166.91,87c-4.4-.88-8.78-1.81-8.78-1.81Z"/>
  <path class="cls-3" d="M170.48,93.55l10.22,1.66,3.75.61c1.19.22,2.3.47,3.24.69,1.89.44,3.14.82,3.14.82v.07s-1.3-.1-3.22-.36c-1-.14-2.08-.3-3.27-.52l-3.72-.77-10.13-2.12Z"/>
  <path class="cls-3" d="M101.16,95.5s4.44-.6,8.89-1.14l3.27-.41c1-.11,2-.16,2.86-.21,1.68-.08,2.81-.05,2.81-.05v.07s-1.1.25-2.76.51c-.83.12-1.8.27-2.85.37l-3.28.25c-4.47.37-8.94.68-8.94.68Z"/>
  <path class="cls-3" d="M111.86,97.88l10.28-1.22,3.77-.44c1.21-.12,2.34-.18,3.31-.24,1.94-.1,3.24-.08,3.24-.08V96s-1.27.26-3.2.54c-1,.13-2.08.28-3.29.4l-3.79.28-10.32.76Z"/>
  <path class="cls-3" d="M238,107l13.54-7.42,5-2.72c1.6-.85,3.11-1.59,4.41-2.24,2.6-1.28,4.37-2.06,4.37-2.06l0,.06s-1.64,1-4.16,2.45c-1.26.71-2.74,1.54-4.33,2.38l-5,2.58-13.76,7Z"/>
  <g>
    <g class="cls-4">
      <g>
        <polygon class="cls-5" points="306.38 63.96 210.75 76.89 76.94 138.37 116.86 178.52 345.08 138.13 329.81 94.14 306.38 63.96"/>
        <path class="cls-6" d="M81.15,139s2.56-2.86,5.55-3.38,35.46-10.11,53.05-18,50.06-21.56,56.89-23.81c0,0,9.59-11.73,35.94-16s71.83-11.47,71.83-11.47l-32.28-8.64L170.77,73.3,64.93,119.9Z"/>
      </g>
      <path class="cls-7" d="M86,145.85s20.54,4.94,73.73-3.08S335.37,114,335.37,114l9.24,20.82L105.86,172.58Z"/>
      <path class="cls-8" d="M277.44,73.17a.8.8,0,0,0-.23,0,10.85,10.85,0,0,0-1.17,0c-.75.06-1.64.19-1.61.68.06,1,4,15.53,12.09,13.63,1.09-.21.47.8,1,2.84s-.94,5,12.52,2.22c2.07-.66,2.24-.83,1.54-6.3a.86.86,0,0,1,.7-1c1.62-.29,3.07-.75,3.4-1.25S279.37,73.86,277.44,73.17Z"/>
      <path class="cls-8" d="M299.86,96.68s-12.94,1.25-14.13,2.15,2.53,13.55,9.94,12.38l35.79-5.62Z"/>
    </g>
    <g>
      <g>
        <path class="cls-8" d="M109.61,112.7a2.48,2.48,0,0,0-1.23.12c-4.85,2-30.4,12.7-31.48,14.45-1.2,1.93,6.92,8.82,9.8,8.37,2-.32,21.11-5.95,32.42-9.71,4.83-1.61,8.25-2.87,8.31-3.23.19-1.2-5.34-2.7-4.55-2.88s2.82-1.5,1.83-2.37-3.81.38-5.09,1.12c-1,.6-5.78-2.89-7.64-4.31a.5.5,0,0,1,.13-.86c.82-.31,1.91-.87,1.78-1.61C113.71,110.76,110.89,112.84,109.61,112.7Z"/>
        <path class="cls-9" d="M118.43,126.1s-27.8,2-29.24,1.45-12.87-8.76-11-9.23,26.17-3.7,26.17-3.7"/>
        <path class="cls-9" d="M109.69,129c-8.53.54-20.34,1.22-21.23.9-1.44-.52-12.87-8.76-11-9.23,1.18-.29,11.19-1.66,18.6-2.66"/>
        <path class="cls-9" d="M97,132.76a65.63,65.63,0,0,1-8.82.13c-1.44-.52-12.87-8.76-11-9.23.72-.18,4.69-.75,9.35-1.4"/>
        <path class="cls-9" d="M87.64,135.49c-1.44-.52-12.73-8.6-10.83-9.08.26-.06.93-.18,1.9-.33"/>
        <g>
          <line class="cls-9" x1="78.91" y1="120.06" x2="79.11" y2="129.25"/>
          <line class="cls-9" x1="81.19" y1="122.06" x2="81.39" y2="131.25"/>
          <line class="cls-9" x1="83.46" y1="123.9" x2="83.66" y2="133.09"/>
          <line class="cls-9" x1="85.71" y1="125.3" x2="85.91" y2="134.49"/>
        </g>
      </g>
      <g>
        <rect class="cls-10" x="198.72" y="40.42" width="0.95" height="15.63" rx="0.47" ry="0.47" transform="translate(-2.68 12.85) rotate(-3.67)"/>
        <rect class="cls-10" x="198.12" y="11.9" width="0.39" height="45.23" rx="0.2" ry="0.2" transform="translate(-1.8 12.77) rotate(-3.67)"/>
        <rect class="cls-11" x="198.87" y="42.3" width="1.73" height="28.53" rx="0.86" ry="0.86" transform="matrix(1, -0.06, 0.06, 1, -3.21, 12.91)"/>
        <path class="cls-12" d="M194.09,79.1l8.56-1.76a.68.68,0,0,0,.54-.73l-.63-6.95a.68.68,0,0,0-.72-.62l-2.46.16a.68.68,0,0,0-.53.31l-5.47,8.55A.68.68,0,0,0,194.09,79.1Z"/>
      </g>
      <g>
        <g>
          <path class="cls-13" d="M171.38,83.37s-.79,5.43,34.37,2c31.38-3,50.14-5.72,53.81-6.26a.88.88,0,0,1,.94.52l3.05,6.87a.88.88,0,0,1-.68,1.24C254.51,89,202.76,96.52,179.73,97,162,97.38,153.56,97.69,171.38,83.37Z"/>
          <g>
            <g class="cls-14">
              <g>
                <polygon class="cls-15" points="175.79 83.78 159.38 98.29 156.37 94.79 172.35 81.41 175.79 83.78"/>
                <polygon class="cls-16" points="179.4 85.94 163.44 100.94 160.32 97.54 175.88 83.67 179.4 85.94"/>
                <polygon class="cls-17" points="185.77 85.73 170.05 100.98 166.88 97.63 182.22 83.52 185.77 85.73"/>
              </g>
            </g>
            <path id="SVGID-6" data-name="SVGID" class="cls-2" d="M171.38,83.37s-.79,5.43,34.37,2c31.38-3,50.14-5.72,53.81-6.26a.88.88,0,0,1,.94.52l3.05,6.87a.88.88,0,0,1-.68,1.24C254.51,89,202.76,96.52,179.73,97,162,97.38,153.56,97.69,171.38,83.37Z"/>
          </g>
        </g>
        <polygon class="cls-8" points="152.56 112.25 276.97 93.88 275.29 90.7 163.9 107.2 152.56 112.25"/>
        <path class="cls-8" d="M170.52,136.56l121.77-19.93-1.73-3.15L179.49,131.71l-.08,0-9.07,4.21A.32.32,0,0,0,170.52,136.56Z"/>
        <g>
          <path class="cls-18" d="M123.44,134.25c-.28-2.13-.36-2.56,16.84-7.79,3.76-1.14,124.59-19.63,137.17-21.55a1.45,1.45,0,0,1,1.53.8l2.5,5.11a1.46,1.46,0,0,1-1.08,2.08L166,131.3a5.68,5.68,0,0,1-3.46-.54l-.9-.46a5.67,5.67,0,0,0-3.44-.54c-3.53.55-11.66,1.85-19.14,3.2C131,134.42,123.65,135.84,123.44,134.25Z"/>
          <g>
            <g class="cls-19">
              <g>
                <rect class="cls-15" x="121.17" y="121.81" width="17.75" height="19.18" transform="translate(-18.72 21.64) rotate(-8.88)"/>
                <rect class="cls-15" x="139.06" y="119.02" width="17.75" height="19.18" transform="translate(-18.08 24.37) rotate(-8.88)"/>
                <rect class="cls-15" x="156.95" y="116.22" width="17.75" height="19.18" transform="translate(-17.43 27.1) rotate(-8.88)"/>
                <rect class="cls-15" x="174.84" y="113.43" width="17.75" height="19.18" transform="translate(-16.78 29.83) rotate(-8.88)"/>
                <rect class="cls-15" x="192.73" y="110.63" width="17.75" height="19.18" transform="translate(-16.14 32.55) rotate(-8.88)"/>
                <rect class="cls-15" x="210.62" y="107.84" width="17.75" height="19.18" transform="translate(-15.49 35.28) rotate(-8.88)"/>
                <rect class="cls-15" x="228.51" y="105.05" width="17.75" height="19.18" transform="translate(-14.85 38.01) rotate(-8.88)"/>
                <rect class="cls-15" x="246.4" y="102.25" width="17.75" height="19.18" transform="translate(-14.2 40.74) rotate(-8.88)"/>
                <rect class="cls-15" x="264.29" y="99.46" width="17.75" height="19.18" transform="translate(-13.56 43.46) rotate(-8.88)"/>
              </g>
            </g>
            <path id="SVGID-7" data-name="SVGID" class="cls-2" d="M123.44,134.25c-.28-2.13-.36-2.56,16.84-7.79,3.76-1.14,124.59-19.63,137.17-21.55a1.45,1.45,0,0,1,1.53.8l2.5,5.11a1.46,1.46,0,0,1-1.08,2.08L166,131.3a5.68,5.68,0,0,1-3.46-.54l-.9-.46a5.67,5.67,0,0,0-3.44-.54c-3.53.55-11.66,1.85-19.14,3.2C131,134.42,123.65,135.84,123.44,134.25Z"/>
          </g>
        </g>
      </g>
      <g>
        <g class="cls-20">
          <g>
            <polygon class="cls-10" points="276.29 77.36 269.62 77.78 271.7 79.61 276.98 79.27 276.29 77.36"/>
            <polygon class="cls-10" points="277.64 79.86 270.97 80.29 273.05 82.11 278.33 81.78 277.64 79.86"/>
            <polygon class="cls-10" points="279.21 82.46 272.54 82.89 274.62 84.71 279.9 84.37 279.21 82.46"/>
          </g>
        </g>
        <g class="cls-21">
          <g>
            <polygon class="cls-10" points="286.04 102.63 279.37 103.05 281.45 104.88 286.73 104.54 286.04 102.63"/>
            <polygon class="cls-10" points="287.49 105.12 280.83 105.55 282.9 107.38 288.19 107.04 287.49 105.12"/>
            <polygon class="cls-10" points="289.21 107.71 282.54 108.14 284.62 109.97 289.9 109.63 289.21 107.71"/>
          </g>
        </g>
      </g>
    </g>
    <line class="cls-22" x1="287.57" y1="87.72" x2="301.24" y2="85.82"/>
    <line class="cls-22" x1="287.96" y1="90.68" x2="301.49" y2="88.78"/>
  </g>
  <path class="cls-3" d="M152.69,124.6l15.71,2.71,5.77,1c1.84.34,3.54.71,5,1,2.92.64,4.85,1.15,4.85,1.15v.07s-2-.23-4.94-.69c-1.48-.24-3.2-.52-5-.86l-5.74-1.16-15.62-3.17Z"/>
  <g>
    <path class="cls-23" d="M326.41,129.54s12.24-1.13,8.28-5.46S326.41,129.54,326.41,129.54Z"/>
    <path class="cls-24" d="M352.55,117.4s8.85,4.14,7.88-.42S352.55,117.4,352.55,117.4Z"/>
    <path class="cls-24" d="M369.22,99.74s8.85,4.14,7.88-.42S369.22,99.74,369.22,99.74Z"/>
    <path class="cls-24" d="M360.22,79.07s8.85,4.14,7.88-.42S360.22,79.07,360.22,79.07Z"/>
    <path class="cls-24" d="M358.89,95.07s8.85,4.14,7.88-.42S358.89,95.07,358.89,95.07Z"/>
    <path class="cls-24" d="M334.79,80.41s9.5-2.29,5.89-5.25S334.79,80.41,334.79,80.41Z"/>
    <path class="cls-23" d="M365.79,112.28s8.39,8,9,2.53S365.79,112.28,365.79,112.28Z"/>
    <path class="cls-23" d="M350.62,107.7s12.12,2,9.4-3.17S350.62,107.7,350.62,107.7Z"/>
    <path class="cls-23" d="M345.29,91.7s12.12,2,9.4-3.17S345.29,91.7,345.29,91.7Z"/>
    <path class="cls-24" d="M327.68,101.63s14.67-6.76,7.88-10.4S327.68,101.63,327.68,101.63Z"/>
    <path class="cls-24" d="M334.71,106.35s16.12,1,11.87-5.41S334.71,106.35,334.71,106.35Z"/>
    <path class="cls-23" d="M314.1,123.35s15.75-3.6,9.84-8.56S314.1,123.35,314.1,123.35Z"/>
    <path class="cls-23" d="M339,118s11.6-.63,8-4.86S339,118,339,118Z"/>
  </g>
  <g>
    <path class="cls-23" d="M70.89,136s-4.26-11.52-7.42-6.58S70.89,136,70.89,136Z"/>
    <path class="cls-23" d="M58.38,137.46s-9.25-8-9.65-2.2S58.38,137.46,58.38,137.46Z"/>
    <path class="cls-24" d="M62.77,119.39s-4-15.65-8.82-9.61S62.77,119.39,62.77,119.39Z"/>
    <path class="cls-24" d="M41.23,128.46s-13.2-9.32-12.94-1.62S41.23,128.46,41.23,128.46Z"/>
    <path class="cls-24" d="M35.74,111.5s-13-9.57-12.91-1.86S35.74,111.5,35.74,111.5Z"/>
    <path class="cls-24" d="M62.6,105.77s3.89-15.68-3.2-12.64S62.6,105.77,62.6,105.77Z"/>
    <path class="cls-23" d="M75.63,129.09S74.91,113,69,117.88,75.63,129.09,75.63,129.09Z"/>
    <path class="cls-23" d="M47.17,123.61s-.72-16.14-6.66-11.22S47.17,123.61,47.17,123.61Z"/>
    <path class="cls-23" d="M48.73,105.78s-5.19-15.3-9.52-8.92S48.73,105.78,48.73,105.78Z"/>
    <path class="cls-23" d="M74.33,107.39s5.58-10.19.1-9.38S74.33,107.39,74.33,107.39Z"/>
    <path class="cls-23" d="M98.64,154.76s-6.12-5.49-6.45-1.58S98.64,154.76,98.64,154.76Z"/>
    <path class="cls-24" d="M88.66,147.48s-7.27-8-8.22-2.93S88.66,147.48,88.66,147.48Z"/>
    <path class="cls-23" d="M99.3,149.2s-5.47-9.33-7.44-4.56S99.3,149.2,99.3,149.2Z"/>
    <path class="cls-23" d="M91.75,136.76s.12-7.77-2.87-5.58S91.75,136.76,91.75,136.76Z"/>
  </g>
  <g>
    <path class="cls-24" d="M317.5,138.27s7.63-.65,5.19-3.39S317.5,138.27,317.5,138.27Z"/>
    <path class="cls-24" d="M278.54,142s7.62.74,5.72-2.39S278.54,142,278.54,142Z"/>
    <path class="cls-23" d="M198.94,157.67s-4.8-7.54-6.29-3.54S198.94,157.67,198.94,157.67Z"/>
    <path class="cls-23" d="M155.73,163.46s-3.5-5.49-4.58-2.58S155.73,163.46,155.73,163.46Z"/>
    <path class="cls-23" d="M251.3,151s6.41-2.55,3.59-4.26S251.3,151,251.3,151Z"/>
    <path class="cls-23" d="M258.95,143s6.65-1.67,4.1-3.72S258.95,143,258.95,143Z"/>
    <path class="cls-23" d="M249.31,143.07s6.78-5.83,2.61-6.73S249.31,143.07,249.31,143.07Z"/>
    <path class="cls-23" d="M226.69,153.29s6.78-5.83,2.61-6.73S226.69,153.29,226.69,153.29Z"/>
    <path class="cls-23" d="M278.1,131.29s5.53-.83,3.62-2.69S278.1,131.29,278.1,131.29Z"/>
    <path class="cls-23" d="M174.46,159.39s-5.9-6.72-6.75-2.54S174.46,159.39,174.46,159.39Z"/>
    <path class="cls-24" d="M183.79,154.69s-5.32-10.47-7.74-5.41S183.79,154.69,183.79,154.69Z"/>
    <path class="cls-24" d="M187.07,161.74s-4.77-4.5-5.11-1.39S187.07,161.74,187.07,161.74Z"/>
    <path class="cls-24" d="M142.09,158.83s-4.77-4.5-5.11-1.39S142.09,158.83,142.09,158.83Z"/>
    <path class="cls-24" d="M241.29,146s4.44-4.9,1.31-5.16S241.29,146,241.29,146Z"/>
  </g>
</svg>
