<svg id="Layer_1" data-name="Layer 1" xmlns="http://www.w3.org/2000/svg" xmlns:xlink="http://www.w3.org/1999/xlink" viewBox="0 0 1024 600"><defs><style>.cls-1{fill:none;}.cls-2{fill:#f9bc26;}.cls-3{clip-path:url(#clip-path);}.cls-4{fill:#784a30;}.cls-5{fill:#f49f28;}.cls-6{clip-path:url(#clip-path-2);}.cls-7{fill:#fbdb55;}.cls-8{clip-path:url(#clip-path-3);}.cls-9{clip-path:url(#clip-path-4);}.cls-10{clip-path:url(#clip-path-5);}.cls-11{fill:#90684e;}.cls-12{fill:#fbdc50;}.cls-13{fill:#fcdc53;}.cls-14{fill:#ffffbf;}.cls-15{fill:#7c2e18;}.cls-16{fill:#fff;}.cls-17{fill:#231f20;}.cls-18{fill:#cf8a00;}</style><clipPath id="clip-path"><path id="SVGID" class="cls-1" d="M380.38,503.1l.16,68.16a9.91,9.91,0,0,1-3,7.09h0a9.88,9.88,0,0,1-14.25-.46l-.17-.2a9.87,9.87,0,0,1-2.47-7.77l8-67.26S380.79,503.13,380.38,503.1Z"/></clipPath><clipPath id="clip-path-2"><path id="SVGID-2" data-name="SVGID" class="cls-1" d="M325.43,507.51l.16,68.16a9.91,9.91,0,0,1-3,7.09h0a9.87,9.87,0,0,1-14.25-.46l-.18-.19a9.9,9.9,0,0,1-2.46-7.78l8-67.25S325.84,507.54,325.43,507.51Z"/></clipPath><clipPath id="clip-path-3"><path id="SVGID-3" data-name="SVGID" class="cls-1" d="M387.47,502.41,398,569.75a9.89,9.89,0,0,1-1.86,7.46h0A9.88,9.88,0,0,1,382,578.92l-.2-.16a9.9,9.9,0,0,1-3.62-7.31l-2.3-67.69Z"/></clipPath><clipPath id="clip-path-4"><path id="SVGID-4" data-name="SVGID" class="cls-1" d="M387.62,504.32l10.53,67.34a9.89,9.89,0,0,1-1.86,7.46h0a9.88,9.88,0,0,1-14.16,1.71l-.2-.16a9.9,9.9,0,0,1-3.62-7.31L376,505.67Z"/></clipPath><clipPath id="clip-path-5"><path id="SVGID-5" data-name="SVGID" class="cls-1" d="M332.88,508.71l10.53,67.34a9.89,9.89,0,0,1-1.86,7.46h0a9.88,9.88,0,0,1-14.16,1.72l-.2-.17a9.89,9.89,0,0,1-3.62-7.31l-2.29-67.69S333.3,508.68,332.88,508.71Z"/></clipPath></defs><title>10_giraffe_stand_up</title><path class="cls-2" d="M380.38,503.1l.16,68.16a9.91,9.91,0,0,1-3,7.09h0a9.88,9.88,0,0,1-14.25-.46l-.17-.2a9.87,9.87,0,0,1-2.47-7.77l8-67.26S380.79,503.13,380.38,503.1Z"/><g class="cls-3"><path class="cls-4" d="M385.72,572.33l-29.05-2.11s0,13.58,14.22,14.62S385.72,572.33,385.72,572.33Z"/></g><path class="cls-5" d="M371.21,519.6a2.09,2.09,0,0,0,3,.48c.84-.86.41-2.26.33-3.46a5.41,5.41,0,0,1,.3-2.22c.64-1.79-1.34-2.56-2.8-2C370.09,513.25,370.16,518.18,371.21,519.6Z"/><path class="cls-5" d="M364.37,552.25c.95-1.76,4.22-.44,5.41.46a10,10,0,0,1,3,3.68,21.37,21.37,0,0,1,1.65,8.8c0,1-.12,2.17-1,2.47a1.7,1.7,0,0,1-1.83-.86,14.76,14.76,0,0,1-.85-2,5.06,5.06,0,0,0-3.88-2.88,2.55,2.55,0,0,1-1.1-.27,1.83,1.83,0,0,1-.58-.9,18,18,0,0,1-1.21-5.9A5,5,0,0,1,364.37,552.25Z"/><path class="cls-2" d="M325.43,507.51l.16,68.16a9.91,9.91,0,0,1-3,7.09h0a9.87,9.87,0,0,1-14.25-.46l-.18-.19a9.9,9.9,0,0,1-2.46-7.78l8-67.25S325.84,507.54,325.43,507.51Z"/><g class="cls-6"><path class="cls-4" d="M330.77,576.74l-29-2.11s0,13.58,14.22,14.62S330.77,576.74,330.77,576.74Z"/></g><path class="cls-5" d="M311.9,542.86c-.6-1.87-1.73-5.68.54-6.68a6.11,6.11,0,0,1,6.51,1.07,6.94,6.94,0,0,1,2.11,3.94,20.88,20.88,0,0,1,.26,4.54,6.33,6.33,0,0,1-.3,2.17,2.12,2.12,0,0,1-1.57,1.4c-1.29.17-2.19-1.18-3.24-1.94-.6-.44-1.31-.7-1.92-1.11A6.36,6.36,0,0,1,311.9,542.86Z"/><path class="cls-7" d="M387.47,502.41,398,569.75a9.89,9.89,0,0,1-1.86,7.46h0A9.88,9.88,0,0,1,382,578.92l-.2-.16a9.9,9.9,0,0,1-3.62-7.31l-2.3-67.69Z"/><g class="cls-8"><path class="cls-4" d="M403.29,570l-29,2.33s2.1,13.43,16.28,12.29S403.29,570,403.29,570Z"/></g><path class="cls-7" d="M387.62,504.32l10.53,67.34a9.89,9.89,0,0,1-1.86,7.46h0a9.88,9.88,0,0,1-14.16,1.71l-.2-.16a9.9,9.9,0,0,1-3.62-7.31L376,505.67Z"/><g class="cls-9"><path class="cls-4" d="M403.44,571.93l-29,2.33s2.09,13.43,16.27,12.29S403.44,571.93,403.44,571.93Z"/></g><path class="cls-2" d="M379.15,540.31c-.68-2.1-.5-3.59,1.3-5.12,1.28-1.08,2.83-.65,4,.38a7,7,0,0,1,1.84,3.2c1.56,5.17-.43,10.71-2.78,15.58-.28.59-.88,1.3-1.46,1a1.2,1.2,0,0,1-.46-.71c-.75-2.32-.73-4.8-1-7.22A34.2,34.2,0,0,0,379.15,540.31Z"/><path class="cls-7" d="M332.88,508.71l10.53,67.34a9.89,9.89,0,0,1-1.86,7.46h0a9.88,9.88,0,0,1-14.16,1.72l-.2-.17a9.89,9.89,0,0,1-3.62-7.31l-2.29-67.69S333.3,508.68,332.88,508.71Z"/><g class="cls-10"><path class="cls-4" d="M348.7,576.33l-29,2.33s2.09,13.42,16.27,12.28S348.7,576.33,348.7,576.33Z"/></g><path class="cls-2" d="M331.88,529.18a2.33,2.33,0,0,0,1.14-1.8,7,7,0,0,0-.17-2.19l-.69-3.69c-.32-1.66-1.88-4.73-3.56-1.92C327.26,521.82,327.34,531.48,331.88,529.18Z"/><path class="cls-2" d="M326.43,571.06c-.77-2.61-4.07-9.59-1.85-12.06a1.92,1.92,0,0,1,1.35-.71c1,0,2.42,1.6,2.82,2.4.72,1.46.78,3.16,1.29,4.7.75,2.23,2.41,4,3.42,6.16a3,3,0,0,1,.36,1.39,2.28,2.28,0,0,1-1.43,1.83,6.88,6.88,0,0,1-2.39.43,2.94,2.94,0,0,1-1.29-.13,2.12,2.12,0,0,1-.73-.6A9.21,9.21,0,0,1,326.43,571.06Z"/><path class="cls-11" d="M297.53,426.48s-6.69-12.79-13.95-12.61c-2.31,1.4,6.91,5.5,4.1,5.73s-7.95-3.4-8.09-.15,6.55,1.08,7.45,2.22-8.43.68-8.21,3.49S293.05,426,297.53,426.48Z"/><path class="cls-12" d="M313.75,437.3s-9.37-11-17.65-13.53l-2.59,3s13.15,12.68,14,18.26Z"/><path class="cls-13" d="M374.16,423.07c-2.13,6.35-16,3.57-29.44,3.94-10.28.29-22.56,1.16-29.54,5.23-17,9.92-12.95,25.29-12.61,47.37s.95,38.44,26.12,32.14c40.06-7.49,35.13,2.18,55.4-3s13.23-38.62,9.3-87.52Z"/><path class="cls-2" d="M333.34,458.87c3.14-3.24,14.12-4.45,18.82-5.42,4.45-.93,12-2.17,11.38,4.7-.24,2.79-3.06,4.72-3.72,7.45-.36,1.5,0,3.15-.66,4.56a5.31,5.31,0,0,1-1.91,2.11c-4.25,3-10,2.34-15,.87-3.25-1-6.56-2.33-8.68-5S331,461.31,333.34,458.87Z"/><path class="cls-2" d="M346.41,504.41c1.87,0,3.71.72,4-1.57.15-1.21-.82-2.8-1.34-3.85-1.22-2.45-3.29-4.82-6.33-4.56s-5.22,3.1-8.18,3.3c-2.06.15-4.09-1-6.12-.67-2.93.54-4.25,4.88-2.11,6.95,1.86,1.8,4.83,1.47,7.39,1.13A84.37,84.37,0,0,1,346.41,504.41Z"/><path class="cls-2" d="M377.89,488.66c2.2-2.66,5.77-4.39,8.31-6.77,3-2.78,5-2.2,5.78,2,.59,3.17.94,6.62-.56,9.47a10.13,10.13,0,0,1-8,4.94,6.35,6.35,0,0,1-5.2-1.45,5.94,5.94,0,0,1-1.46-4A6.21,6.21,0,0,1,377.89,488.66Z"/><path class="cls-2" d="M307.32,462.78a22.83,22.83,0,0,0,.6,2.87c.42,1.39,1.4,2.88,2.84,2.89,1.67,0,2.64-1.9,2.92-3.55a30.17,30.17,0,0,0,.23-5.86l-.27-10.22a5.4,5.4,0,0,0-.56-2.71,3.59,3.59,0,0,0-2.81-1.5c-2.88-.21-4.34,1.62-4.75,4.36a18.15,18.15,0,0,0,.21,5C306.12,457,306.84,459.9,307.32,462.78Z"/><circle class="cls-11" cx="375.46" cy="303.25" r="10.47"/><circle class="cls-11" cx="375.21" cy="320.68" r="10.47"/><circle class="cls-11" cx="374.67" cy="266.97" r="10.47"/><circle class="cls-11" cx="374.42" cy="284.4" r="10.47"/><circle class="cls-11" cx="373.95" cy="234.1" r="10.47"/><circle class="cls-11" cx="373.59" cy="217.46" r="10.47"/><circle class="cls-11" cx="373.71" cy="251.54" r="10.47"/><circle class="cls-11" cx="374.97" cy="338.12" r="10.47"/><circle class="cls-11" cx="374.73" cy="355.55" r="10.47"/><circle class="cls-11" cx="374.49" cy="372.98" r="10.47"/><circle class="cls-11" cx="374.25" cy="390.42" r="10.47"/><circle class="cls-11" cx="374" cy="407.85" r="10.47"/><circle class="cls-11" cx="373.37" cy="420.45" r="10.47"/><path class="cls-13" d="M393.74,432.62c-5-48.8-4.53-210.35-4.53-210.35,3.63-20.38-5.67-34.44-13.76-15.74S374.88,419.6,372.57,432Z"/><path class="cls-2" d="M377.05,422.83c-1.31-1.86-.95-3.95-1.34-6.05s-1.15-3.91-.9-6a10.25,10.25,0,0,1,.58-2.24,7.86,7.86,0,0,1,2.22-3.53,3.36,3.36,0,0,1,3.91-.37,16.71,16.71,0,0,1,4.62,5.6,6.31,6.31,0,0,1,.6,4.94c-.43,1.21-1.33,2.2-1.84,3.37-.59,1.38-.63,3-1.3,4.28s-2.47,2.35-3.65,1.44C378.48,424.94,378,424.14,377.05,422.83Z"/><path class="cls-2" d="M379.15,318.75c-.9-3.05-2.27-8.59-.27-11.55,1.41-2.08,3.85-3,5.5-.17s.8,8.72,1,11.87c.09,1.39.06,3-1.07,3.84a2.82,2.82,0,0,1-3.49-.58A7.8,7.8,0,0,1,379.15,318.75Z"/><path class="cls-2" d="M383.28,246.92c-.9-3-2.27-8.59-.27-11.55,1.41-2.08,3.85-3,5.5-.17s.8,8.72,1,11.87c.09,1.39.06,3-1.07,3.84a2.82,2.82,0,0,1-3.49-.58A7.8,7.8,0,0,1,383.28,246.92Z"/><path class="cls-2" d="M385.78,379.31l.92,13.08a3.14,3.14,0,0,0,1,2.48,2.13,2.13,0,0,0,2.86-1,6.18,6.18,0,0,0,.49-3.31c-.24-6.25-.08-12.67-.7-18.88-.06-.57-.19-1.24-.71-1.49s-1.3.19-1.77.67a16.1,16.1,0,0,0-1.16,1.32,3.46,3.46,0,0,0-.55.92,3.86,3.86,0,0,0-.16.95A26.74,26.74,0,0,0,385.78,379.31Z"/><path class="cls-2" d="M377.39,358.35c-1.26-1.3-3.29-5.53-3.29-7.34a2.57,2.57,0,0,1,1.9-2.64,4,4,0,0,0,.85-.12c.71-.27.88-1.17,1.34-1.77A2.24,2.24,0,0,1,381,346c2.48,1.44.56,3.55,0,5.34-.43,1.33.1,2.75.33,4.12s0,3.11-1.33,3.64A2.51,2.51,0,0,1,377.39,358.35Z"/><path class="cls-2" d="M374.62,283.26c-1.26-1.31-3.29-5.54-3.3-7.34a2.6,2.6,0,0,1,1.91-2.65,4.05,4.05,0,0,0,.85-.12c.71-.26.88-1.16,1.33-1.76a2.26,2.26,0,0,1,2.86-.5c2.48,1.45.55,3.55,0,5.34-.43,1.33.09,2.75.32,4.13s0,3.1-1.32,3.63A2.5,2.5,0,0,1,374.62,283.26Z"/><path class="cls-13" d="M398.38,190.93s-11.68-35.22,15.2-49.86a6.44,6.44,0,0,1,9.16,3.46C426.43,154.63,428.9,175.12,398.38,190.93Z"/><path class="cls-14" d="M398.43,190.61s-7.76-23.39,10.1-33.11a4.28,4.28,0,0,1,6.08,2.3C417.06,166.5,418.7,180.11,398.43,190.61Z"/><path class="cls-13" d="M381.29,208.72s-35.38-11.16-49.62,15.93a6.42,6.42,0,0,0,3.59,9.1C345.41,237.29,365.94,239.47,381.29,208.72Z"/><path class="cls-14" d="M381,208.78s-23.5-7.42-33,10.58a4.26,4.26,0,0,0,2.38,6C357.15,227.75,370.78,229.2,381,208.78Z"/><polygon class="cls-13" points="396 187.6 377.98 151.94 371.5 155.74 385.24 190.71 396 187.6"/><circle class="cls-15" cx="372.75" cy="151.07" r="8.67"/><polygon class="cls-13" points="381.43 204.62 344.2 190.09 347.37 183.27 383.49 193.62 381.43 204.62"/><circle class="cls-15" cx="342.84" cy="184.97" r="8.67"/><path class="cls-13" d="M450.66,220.05s-38.56-64.92-69.94-34.48S395.29,248,413,262.14Z"/><ellipse class="cls-14" cx="436.46" cy="242.38" rx="35.12" ry="24.18" transform="translate(-24.86 433.24) rotate(-51.52)"/><circle class="cls-16" cx="411.85" cy="203" r="9.01"/><circle class="cls-17" cx="411.85" cy="203" r="5.99"/><circle class="cls-18" cx="437.42" cy="232.75" r="4.66"/><circle class="cls-18" cx="426.47" cy="244.56" r="4.66"/><circle class="cls-16" cx="407.76" cy="203.75" r="1.92"/><circle class="cls-16" cx="395.81" cy="222.35" r="9.01"/><circle class="cls-17" cx="395.81" cy="222.35" r="5.99"/><circle class="cls-16" cx="391.72" cy="223.11" r="1.92"/><path class="cls-2" d="M377.5,204.16c-7.1-1.87,3.34-16.68,6.52-18.13s7.05-.8,5,3.49a5.66,5.66,0,0,0,.6,5.82c.66.87,1.61,1.58,1.91,2.63.56,2-1.55,3.78-3.57,4.19s-4.18.05-6.12.76C380.37,203.45,379,204.55,377.5,204.16Z"/><path class="cls-2" d="M408.79,185.25c1,.74,2.39,1.25,3.45.61C419.12,181.73,400.21,178.9,408.79,185.25Z"/><path class="cls-2" d="M397.41,187.89c-3.19,2.07-8-1.83-7.05-5.4a3,3,0,0,1,2.45-2c1.93-.33,3.88.65,5.77.92a8.28,8.28,0,0,1,4.81,2,1,1,0,0,1,.27.45c.07.46-.5.72-.94.85a9.78,9.78,0,0,0-3.64,1.76C398.51,186.94,398,187.49,397.41,187.89Z"/><path class="cls-2" d="M387.69,232.64c-2.08,3.38-9.73-1.68-8-5.1,1.36-2.66,2.92-.44,3.71,1S388.75,230.92,387.69,232.64Z"/><path class="cls-2" d="M372.51,213.45c-.05,4,2.31,8.69,6,9a2.14,2.14,0,0,0,1.46-.36,2.11,2.11,0,0,0,.71-1.86,5.89,5.89,0,0,0-.61-2c-.95-2.1-2-4.26-1.93-6.55a21.55,21.55,0,0,0,.26-3.19,1.15,1.15,0,0,0-.35-.82,1.21,1.21,0,0,0-.83-.18C374,207.71,372.55,210.41,372.51,213.45Z"/><ellipse class="cls-18" cx="448.1" cy="247.3" rx="17.35" ry="5.02" transform="translate(-38.25 406.73) rotate(-47.04)"/></svg>