<svg id="Layer_1" data-name="Layer 1" xmlns="http://www.w3.org/2000/svg" xmlns:xlink="http://www.w3.org/1999/xlink" width="1024" height="600" viewBox="0 0 1024 600">
  <defs>
    <style>
      .cls-1, .cls-15, .cls-17 {
        fill: none;
      }

      .cls-2 {
        fill: #955333;
      }

      .cls-3 {
        fill: #a86240;
      }

      .cls-4 {
        fill: #904e2b;
      }

      .cls-5 {
        fill: #9a5a36;
      }

      .cls-6 {
        fill: #fcbd87;
      }

      .cls-7 {
        fill: #965633;
      }

      .cls-8 {
        fill: #fbbc86;
      }

      .cls-9 {
        fill: #fff;
      }

      .cls-10 {
        fill: #231f20;
      }

      .cls-11 {
        fill: #753313;
      }

      .cls-12 {
        fill: #562810;
      }

      .cls-13 {
        fill: #8b5e3c;
      }

      .cls-14 {
        clip-path: url(#clip-path);
      }

      .cls-15, .cls-17 {
        stroke: #a97c50;
        stroke-linecap: round;
        stroke-linejoin: round;
      }

      .cls-15 {
        stroke-width: 0.99px;
      }

      .cls-16 {
        clip-path: url(#clip-path-2);
      }

      .cls-17 {
        stroke-width: 1.33px;
      }

      .cls-18 {
        clip-path: url(#clip-path-3);
      }
    </style>
    <clipPath id="clip-path">
      <path id="SVGID" class="cls-1" d="M195.22,181.1c0,.67,1.05,2,2.45,3.28,2.54,2.29,6.3,5.51,6.65,4.95.52-.83-3.9-31,25-28.16-1.07,1.72-2.27,3.86-3.56,6.45-4.26,8.58-7,12.39-4.56,17.87a7.33,7.33,0,0,0,2.15,2.33l4.23,3.09c1.11.81,1.82.9,1.54.19a11.19,11.19,0,0,1-.38-7.4c1.31-4.24,10-14.85,10.54-22.92,5.76-2.25,8.92-7,11.72-12,3-5.29,3.07-13.58,8.43-16.7,1.95-1.13,4.77-1.44,6.54-2.73,3.71-2.71,1.18-10,1.55-15.46.27-3.87,4.57-5.05,6.52-7.55q5.8-7.44,11.79-14.72c.51-.62-1-2.82-3.29-4.87L276.14,81c-2.16-1.92-4.26-3-4.78-2.46-1.65,1.72-5.51,6.91-13.58,22.63-17.56,34.21-7.31,50-36.78,51.82C195.13,154.62,194.89,175.91,195.22,181.1Z"/>
    </clipPath>
    <clipPath id="clip-path-2">
      <path id="SVGID-2" data-name="SVGID" class="cls-1" d="M167.06,210.85a2.75,2.75,0,0,1,.48-3.4c1.66-1.3,4.25-2.92,5.39-1.36,1.68,2.32,25.82,56.77,68.51,88q-5.18-7.18-12.27-17.39c-15.55-22.5-23.74-33.53-25.61-41.39a1.46,1.46,0,0,1,1-1.9l3.49-.75a2.08,2.08,0,0,1,2.24,1.6c.64,2.36,2.38,6.93,7,14.24,6.43,10.11,31,42.29,40.24,59.06C269,319.4,278.87,333,288.4,346.42c10.15,14.33,18.84,30.95,30.49,44,4.24,4.74,9,8.94,13.13,13.78,8.64,10.12,12.18,21.45,18.38,32.74,4.41,8,12.42,15.89,18.06,23.34q16.82,22.21,33.75,44.33c1.43,1.87,1.36,4.36-.17,5.49l-4.27,3.17c-1.43,1.06-3.63.53-5-1.2C388.4,506.53,377,491.26,348,449.7c-62.93-90.46-63-108.77-111.39-150.05C194.19,263.42,171.88,220.75,167.06,210.85Z"/>
    </clipPath>
    <clipPath id="clip-path-3">
      <path id="SVGID-3" data-name="SVGID" class="cls-1" d="M717.53,461.38a2.75,2.75,0,0,1-.21,3.43c-1.55,1.43-4,3.25-5.26,1.78-1.86-2.18-30.27-54.53-75.31-82.25q5.74,6.75,13.62,16.35c17.3,21.19,26.33,31.53,28.83,39.21a1.46,1.46,0,0,1-.83,2l-3.42,1a2.08,2.08,0,0,1-2.36-1.41c-.83-2.3-2.92-6.72-8.14-13.63-7.22-9.57-34.32-39.68-44.82-55.66-12.31-10.88-23.28-23.6-33.85-36.27-11.26-13.47-21.25-29.35-33.9-41.41-4.61-4.39-9.68-8.19-14.19-12.69-9.42-9.4-13.86-20.41-20.93-31.17-5-7.67-13.65-14.85-19.86-21.83Q478.34,208,459.7,187.34c-1.58-1.75-1.7-4.24-.27-5.49l4-3.5c1.34-1.17,3.57-.82,5.08.8,4.79,5.15,17.42,19.45,49.55,58.58,69.94,85.16,71.49,103.4,123,140.69C686.29,411.15,711.93,451.91,717.53,461.38Z"/>
    </clipPath>
  </defs>
  <title>10_monkeys_playing_passing_the_sticks</title>
  <g>
    <path class="cls-2" d="M148.89,494.82a3.38,3.38,0,0,0-1.48-6.57c-1.27.17-30,3.76-52-24a53.93,53.93,0,0,1-6.12-9.92c-6.39-13-23.85-43.43-47.84-43.68-17.76-.18-28.88,11.69-31.7,22.8-2.7,10.68,1.46,20.4,10.86,25.36a20.15,20.15,0,0,0,21.51-1.17c5.92-4.23,9.09-11.1,8.09-17.51-.58-3.7-3.12-10.4-13.62-13.76a3.38,3.38,0,0,0-2.06,6.44c5.3,1.69,8.41,4.59,9,8.37s-1.54,8.25-5.34,11a13.35,13.35,0,0,1-14.42.69c-6.6-3.48-9.39-10.11-7.46-17.72,2.18-8.63,11-17.84,25.08-17.7,20.8.22,37.28,30.59,41.84,39.89a60.64,60.64,0,0,0,6.9,11.15c24.5,30.89,56.86,26.65,58.23,26.46A3.38,3.38,0,0,0,148.89,494.82Z"/>
    <g>
      <path class="cls-3" d="M240.17,420.27c3.06.78,4.38-2.23,3.23-4.61-1-2-3.42-3.36-5.41-4.21a12.5,12.5,0,0,0-9.82-.1,12.69,12.69,0,0,0-6.92,14.42,19.9,19.9,0,0,0,2.41,5.18,12.4,12.4,0,0,0,3.12,3.72,5,5,0,0,0,4.62.82,3.17,3.17,0,0,0,1.89-4c.92,1.45,3.38,1.16,4.33-.27a4.42,4.42,0,0,0-.4-4.82,3.47,3.47,0,0,0,2.95-6.17Z"/>
      <path class="cls-4" d="M163.36,413.08c.4.37,7.64-2.5,8.33-2.69a101.16,101.16,0,0,1,20.4-3.47,71.93,71.93,0,0,1,17.23.88,54.17,54.17,0,0,1,8.81,2.35c1.29.47,2.65,1.37,3.94,1.71,1.88.49,4.23-.13,6.14-.21a9.43,9.43,0,0,1,6.15,1.48,21.48,21.48,0,0,0-4.83.58,16.45,16.45,0,0,1,2.77,3.53,8.68,8.68,0,0,0-4.44.22,23.41,23.41,0,0,1,1.85,6.22l-4.44-2.77,1.58,7.18a20.93,20.93,0,0,1-3.74-4.43l-.54,5.89-3.1-5.78c-1.08-2-1.9-2.84-4-3.44-1.58-.44-3.15-.93-4.75-1.33a68.75,68.75,0,0,0-11.59-1.9c-8.58-.62-17.72.73-24.56,6.33Z"/>
    </g>
    <g>
      <path class="cls-3" d="M58.81,476.14c-2.24,2.23-4.9.32-5.13-2.31-.2-2.26,1.22-4.64,2.5-6.39a12.5,12.5,0,0,1,8.39-5.1,12.69,12.69,0,0,1,13.31,8.86,19.9,19.9,0,0,1,.57,5.68,12.4,12.4,0,0,1-.78,4.79,5,5,0,0,1-3.55,3.06,3.17,3.17,0,0,1-3.64-2.43c-.05,1.71-2.31,2.72-3.86,2a4.42,4.42,0,0,1-2.12-4.35,3.47,3.47,0,0,1-5.68-3.8Z"/>
      <path class="cls-4" d="M121.16,430.72c-.15.52-7.84,1.75-8.53,1.94a101.16,101.16,0,0,0-19.31,7.45A71.93,71.93,0,0,0,79,449.67a54.17,54.17,0,0,0-6.37,6.52c-.87,1.06-1.58,2.53-2.52,3.48-1.37,1.38-3.7,2-5.38,3A9.43,9.43,0,0,0,60.15,467a21.48,21.48,0,0,1,4.45-2,16.45,16.45,0,0,0-.57,4.45,8.68,8.68,0,0,1,3.92-2.08,23.41,23.41,0,0,0,1.59,6.3l2.4-4.65,2.31,7a20.93,20.93,0,0,0,1-5.71l3.48,4.79-.29-6.55c-.1-2.29.18-3.41,1.71-5,1.14-1.19,2.23-2.41,3.4-3.57a68.75,68.75,0,0,1,9-7.55c7.06-4.91,15.6-8.43,24.34-7.11Z"/>
    </g>
    <g>
      <path class="cls-3" d="M220.3,541.76s-16.58,3.55-16.17,12.63,13.91,7.13,20.63,7.33,19.81.92,19.92-3.11-5.95-3.54-5.95-3.54,5.73-.5,5.5-4.21-5-2.34-5-2.34,3.4-.4,3.49-3.42-4.33-1.47-4.33-1.47,4.39-1,3.47-3.6C240.44,536.05,220.3,541.76,220.3,541.76Z"/>
      <path class="cls-2" d="M183.89,478.85c.18-.16,3,2,3.17,2.12a71.69,71.69,0,0,1,7.91,6.74,87.39,87.39,0,0,1,19.49,29.11,94.7,94.7,0,0,1,3.91,11.55c.94,3.51.7,9.25,4.78,10.54,1.69.53,3.57.61,5,1.62-1.93.27-2.32.69-4,1.58,2,.72,3.15,2,4.91,4.06-2-.21-3.69,1-5.49.41.56,2.36,1.51,4.24,1.55,6.66a20.49,20.49,0,0,0-4.18-3.1,41,41,0,0,1,0,6.23,20.66,20.66,0,0,1-6.67-6,50.6,50.6,0,0,0-5.8,5.11,39.24,39.24,0,0,1-.37-5.37,6,6,0,0,0-3.78,2.28c1-1.36,1.59-3.78,2.13-5.39a25.57,25.57,0,0,0,1.32-5.8c.27-3-.48-6-1.1-8.94a76.94,76.94,0,0,0-5.39-16.39,61.75,61.75,0,0,0-26.61-28.62Z"/>
    </g>
    <g>
      <path class="cls-3" d="M88.79,543.33s16.15,5.14,14.87,14.14-14.53,5.75-21.24,5.3-19.8-1-19.53-5,6.26-2.94,6.26-2.94-5.65-1.06-5.07-4.72,5.2-1.84,5.2-1.84-3.34-.72-3.14-3.74,4.45-1,4.45-1-4.28-1.41-3.1-3.91C69.3,535.7,88.79,543.33,88.79,543.33Z"/>
      <path class="cls-2" d="M131.13,484.24c-.16-.18-3.16,1.68-3.36,1.8a71.69,71.69,0,0,0-8.52,5.94A87.39,87.39,0,0,0,97,519.07a94.7,94.7,0,0,0-5,11.12c-1.28,3.4-1.59,9.14-5.78,10-1.73.37-3.61.26-5.16,1.13,1.89.45,2.24.91,3.88,2-2.08.52-3.34,1.73-5.28,3.56,2,0,3.58,1.35,5.43.94-.78,2.29-1.91,4.07-2.19,6.48a20.49,20.49,0,0,1,4.46-2.68,41,41,0,0,0-.63,6.19A20.66,20.66,0,0,0,94,552.5a50.6,50.6,0,0,1,5.27,5.65,39.24,39.24,0,0,0,.88-5.31,6,6,0,0,1,3.54,2.63c-.9-1.46-1.21-3.91-1.6-5.57a25.57,25.57,0,0,1-.75-5.9c0-3,1.06-5.93,2-8.79a76.94,76.94,0,0,1,6.95-15.79,61.75,61.75,0,0,1,29.25-25.9Z"/>
    </g>
    <ellipse class="cls-5" cx="151.9" cy="451.85" rx="41.73" ry="47.54" transform="translate(-127.7 65.76) rotate(-17.33)"/>
    <ellipse class="cls-6" cx="153.71" cy="457.65" rx="29.29" ry="33.38" transform="translate(-129.34 66.56) rotate(-17.33)"/>
    <g>
      <g>
        <circle class="cls-7" cx="190.13" cy="381.92" r="10.89" transform="translate(-96.45 65.88) rotate(-15.74)"/>
        <circle class="cls-8" cx="186.58" cy="381.96" r="7" transform="translate(-96.6 64.92) rotate(-15.74)"/>
      </g>
      <g>
        <circle class="cls-7" cx="86.05" cy="405.48" r="10.89" transform="translate(-106.74 38.53) rotate(-15.74)"/>
        <circle class="cls-8" cx="89.1" cy="403.66" r="7" transform="translate(-106.14 39.29) rotate(-15.74)"/>
      </g>
      <ellipse class="cls-5" cx="133.84" cy="375.9" rx="51.24" ry="47.51" transform="translate(-96.93 50.38) rotate(-15.74)"/>
      <path class="cls-8" d="M93.29,385.92A22.72,22.72,0,0,1,130.57,363a22.72,22.72,0,1,1,39.81,20.11,15.33,15.33,0,0,1,2.53,5c3.41,12.09-8.9,26.13-27.48,31.36s-36.4-.32-39.81-12.4a15.57,15.57,0,0,1-.32-6.92A22.66,22.66,0,0,1,93.29,385.92Z"/>
      <g>
        <circle class="cls-9" cx="157.86" cy="384.92" r="10.16" transform="translate(-98.48 57.24) rotate(-15.74)"/>
        <circle class="cls-10" cx="157.86" cy="384.92" r="6.84" transform="translate(-98.48 57.24) rotate(-15.74)"/>
        <circle class="cls-9" cx="154.23" cy="382.08" r="2.49" transform="translate(-97.84 56.15) rotate(-15.74)"/>
      </g>
      <g>
        <circle class="cls-9" cx="117.34" cy="396.34" r="10.16" transform="translate(-103.09 46.68) rotate(-15.74)"/>
        <circle class="cls-10" cx="117.34" cy="396.34" r="6.84" transform="translate(-103.09 46.68) rotate(-15.74)"/>
        <circle class="cls-9" cx="113.71" cy="393.49" r="2.49" transform="matrix(0.96, -0.27, 0.27, 0.96, -102.46, 45.59)"/>
      </g>
      <path class="cls-11" d="M141,400.35a.53.53,0,0,1-.65-.65c.34-1.26,1.13-3.4,2.58-3.54,2.06-.2,3.53,2.28,2.51,2.76C144.69,399.25,142.29,400,141,400.35Z"/>
      <path class="cls-11" d="M138.19,401.13a.53.53,0,0,0,.22-.9c-.95-.89-2.74-2.31-4.05-1.67-1.86.91-1.82,3.78-.7,3.66C134.46,402.13,136.88,401.49,138.19,401.13Z"/>
      <circle class="cls-12" cx="136.99" cy="411.25" r="3.71" transform="translate(-106.4 52.57) rotate(-15.74)"/>
    </g>
  </g>
  <g>
    <path class="cls-2" d="M878.65,481.54a4,4,0,0,0-.25-7.87c-1.49-.08-35.26-2.31-54.38-39a63,63,0,0,1-4.84-12.74c-4.45-16.39-17.78-55.13-45.27-60.71-20.35-4.13-35.74,7-41.43,19.17-5.46,11.67-2.83,23.74,6.87,31.51,7.38,5.92,16.71,7.19,24.95,3.41,7.73-3.55,12.89-10.74,13.15-18.31.15-4.37-1.28-12.63-12.6-18.8a4,4,0,0,0-3.78,6.94c5.71,3.11,8.64,7.12,8.49,11.59S766,405.86,761,408.13c-5.54,2.54-11.64,1.67-16.71-2.39-6.81-5.46-8.55-13.68-4.65-22,4.41-9.42,16.52-18.06,32.7-14.78,23.83,4.84,36,43.35,39.22,55A70.89,70.89,0,0,0,817,438.32c21.3,40.87,59.4,43.16,61,43.24A4,4,0,0,0,878.65,481.54Z"/>
    <g>
      <path class="cls-3" d="M792.73,424.71c-3.12,2-5.67-.89-5.27-3.94.35-2.63,2.58-5,4.49-6.65a14.61,14.61,0,0,1,10.87-3.68,14.84,14.84,0,0,1,12.93,13.51,23.26,23.26,0,0,1-.8,6.63,14.5,14.5,0,0,1-2.12,5.27,5.83,5.83,0,0,1-4.83,2.59,3.71,3.71,0,0,1-3.54-3.71c-.5,1.94-3.33,2.52-4.9,1.27a5.16,5.16,0,0,1-1.31-5.51,4.06,4.06,0,0,1-5.51-5.78Z"/>
      <path class="cls-4" d="M875.46,388.82c-.31.56-9.39,0-10.23,0a118.27,118.27,0,0,0-23.93,3.56,84.1,84.1,0,0,0-18.83,7.24,63.34,63.34,0,0,0-8.93,5.81c-1.26,1-2.45,2.49-3.76,3.33-1.91,1.22-4.74,1.39-6.9,2-2.42.69-4.88,1.8-6.3,3.88a25.12,25.12,0,0,1,5.58-1.11,19.24,19.24,0,0,0-1.79,4.92,10.15,10.15,0,0,1,5-1.37,27.36,27.36,0,0,0,.2,7.59L809.5,420l.85,8.55a24.46,24.46,0,0,0,2.54-6.28l2.74,6.35,1.34-7.55c.47-2.64,1.08-3.85,3.23-5.28,1.6-1.07,3.16-2.18,4.79-3.2a80.38,80.38,0,0,1,12.19-6.32c9.31-3.8,20-5.63,29.59-1.89Z"/>
    </g>
    <g>
      <path class="cls-3" d="M1001.33,434.73c2.88,2.32,5.74-.23,5.68-3.32,0-2.65-2-5.24-3.7-7.12a14.61,14.61,0,0,0-10.38-4.9,14.84,14.84,0,0,0-14.39,11.94,23.26,23.26,0,0,0,0,6.68,14.5,14.5,0,0,0,1.5,5.48,5.83,5.83,0,0,0,4.51,3.12,3.71,3.71,0,0,0,3.94-3.28c.27,2,3,2.88,4.73,1.82a5.16,5.16,0,0,0,1.93-5.32,4.06,4.06,0,0,0,6.14-5.11Z"/>
      <path class="cls-4" d="M923.24,389.61c.24.59,9.33,1.07,10.16,1.21a118.27,118.27,0,0,1,23.37,6.27,84.1,84.1,0,0,1,17.88,9.35,63.34,63.34,0,0,1,8.21,6.79C984,414.36,985,416,986.21,417c1.76,1.44,4.55,1.92,6.62,2.77,2.33,1,4.64,2.35,5.82,4.57a25.12,25.12,0,0,0-5.41-1.74,19.24,19.24,0,0,1,1.22,5.1,10.15,10.15,0,0,0-4.82-1.93,27.36,27.36,0,0,1-1.07,7.52l-3.36-5.1-1.82,8.39a24.46,24.46,0,0,1-1.81-6.52l-3.45,6-.47-7.65c-.17-2.68-.63-3.94-2.61-5.62-1.47-1.24-2.89-2.53-4.39-3.73a80.38,80.38,0,0,0-11.39-7.67c-8.81-4.84-19.18-7.88-29.18-5.26Z"/>
    </g>
    <g>
      <path class="cls-3" d="M801.7,525.59s18.55,7,16.52,17.4-17.31,5.85-25.11,4.92-23.06-2.36-22.5-7,7.49-3.06,7.49-3.06-6.54-1.57-5.64-5.82,6.18-1.84,6.18-1.84-3.86-1-3.44-4.56,5.26-1,5.26-1-4.91-1.9-3.39-4.76C779.39,515.51,801.7,525.59,801.7,525.59Z"/>
      <path class="cls-2" d="M868,466.19c-.14-.24-4,1.12-4.3,1.2A83.81,83.81,0,0,0,852.45,472a102.17,102.17,0,0,0-32.24,25.25,110.72,110.72,0,0,0-8.54,11.42c-2.33,3.56-4.14,10-9.14,10-2.07,0-4.19-.62-6.17,0,2,1,2.33,1.61,3.92,3.23-2.51.07-4.25,1.13-6.93,2.72,2.27.49,3.74,2.45,6,2.46-1.48,2.42-3.22,4.16-4.15,6.84a24,24,0,0,1,5.77-1.92,48,48,0,0,0-2.29,6.91,24.16,24.16,0,0,0,9.59-4.22,59.16,59.16,0,0,1,4.58,7.78,45.87,45.87,0,0,0,2.36-5.83,7.06,7.06,0,0,1,3.38,3.9c-.66-1.89-.39-4.77-.4-6.77a29.9,29.9,0,0,1,.64-6.92c.79-3.44,2.72-6.5,4.48-9.53A90,90,0,0,1,835.19,501a72.19,72.19,0,0,1,40-22.12Z"/>
    </g>
    <g>
      <path class="cls-3" d="M960,545.54s-19.64,2.62-20,13.25,15.56,9.58,23.37,10.42,23,2.87,23.51-1.81-6.61-4.66-6.61-4.66,6.72-.07,6.8-4.4-5.61-3.18-5.61-3.18,4-.15,4.38-3.67-4.91-2.11-4.91-2.11,5.21-.75,4.37-3.88C984,540.72,960,545.54,960,545.54Z"/>
      <path class="cls-2" d="M923.25,468.9c.22-.17,3.29,2.58,3.5,2.76a83.81,83.81,0,0,1,8.6,8.58,102.17,102.17,0,0,1,20.06,35.7,110.72,110.72,0,0,1,3.5,13.82c.78,4.18,0,10.84,4.61,12.72,1.92.78,4.1,1,5.71,2.35-2.27.14-2.77.59-4.86,1.48,2.29,1,3.49,2.67,5.35,5.17-2.28-.42-4.39.82-6.44,0,.43,2.8,1.37,5.08,1.2,7.91a24,24,0,0,0-4.59-4,48,48,0,0,1-.54,7.26,24.16,24.16,0,0,1-7.23-7.58,59.16,59.16,0,0,0-7.22,5.43,45.87,45.87,0,0,1,.06-6.29,7.06,7.06,0,0,0-4.62,2.31c1.33-1.49,2.19-4.26,3-6.09a29.9,29.9,0,0,0,2.07-6.64c.59-3.48,0-7-.47-10.52a90,90,0,0,0-4.78-19.59,72.19,72.19,0,0,0-28.4-35.78Z"/>
    </g>
    <ellipse class="cls-5" cx="893.55" cy="427.86" rx="55.58" ry="48.78" transform="translate(395.59 1284.32) rotate(-85.41)"/>
    <ellipse class="cls-6" cx="892.98" cy="434.93" rx="39.02" ry="34.25" transform="translate(388.01 1290.26) rotate(-85.41)"/>
    <g>
      <circle class="cls-7" cx="960.56" cy="367.15" r="12.73" transform="translate(408.44 1234.7) rotate(-78.44)"/>
      <circle class="cls-8" cx="956.86" cy="365.3" r="8.19" transform="translate(407.29 1229.58) rotate(-78.44)"/>
    </g>
    <g>
      <circle class="cls-7" cx="840.02" cy="345.16" r="12.73" transform="translate(366.11 1119.88) rotate(-80.88)"/>
      <circle class="cls-8" cx="844.14" cy="344.74" r="8.19" transform="translate(370 1123.59) rotate(-80.88)"/>
    </g>
    <ellipse class="cls-5" cx="902.33" cy="336.73" rx="55.54" ry="59.91" transform="matrix(0.2, -0.98, 0.98, 0.2, 391.67, 1153.32)"/>
    <path class="cls-8" d="M950.45,345A26.56,26.56,0,0,0,905,321.47a26.56,26.56,0,1,0-44.7,26.85,17.92,17.92,0,0,0-2.52,6.05c-2.94,14.38,12.6,29.71,34.71,34.23s42.42-3.47,45.36-17.86a18.2,18.2,0,0,0-.21-8.1A26.49,26.49,0,0,0,950.45,345Z"/>
    <g>
      <circle class="cls-9" cx="875.08" cy="349.3" r="11.87" transform="translate(357.57 1136.68) rotate(-78.44)"/>
      <circle class="cls-10" cx="875.08" cy="349.3" r="7.99" transform="translate(357.57 1136.68) rotate(-78.44)"/>
      <circle class="cls-9" cx="879.08" cy="345.68" r="2.91" transform="translate(364.31 1137.69) rotate(-78.44)"/>
    </g>
    <g>
      <circle class="cls-9" cx="923.3" cy="359.16" r="11.87" transform="translate(386.47 1191.8) rotate(-78.44)"/>
      <circle class="cls-10" cx="923.3" cy="359.16" r="7.99" transform="translate(386.47 1191.8) rotate(-78.44)"/>
      <circle class="cls-9" cx="927.3" cy="355.54" r="2.91" transform="translate(393.22 1192.82) rotate(-78.44)"/>
    </g>
    <path class="cls-11" d="M896.08,365.85a.62.62,0,0,0,.71-.82c-.5-1.44-1.61-3.87-3.31-3.91-2.42-.05-3.92,3-2.69,3.43C891.66,364.89,894.52,365.52,896.08,365.85Z"/>
    <path class="cls-11" d="M899.4,366.53a.62.62,0,0,1-.33-1c1-1.12,3-2.93,4.58-2.3,2.25.9,2.44,4.26,1.13,4.21C903.84,367.38,901,366.83,899.4,366.53Z"/>
    <circle class="cls-12" cx="901.66" cy="378.22" r="4.34" transform="translate(350.49 1185.84) rotate(-78.44)"/>
  </g>
  <g>
    <path class="cls-13" d="M195.22,181.1c0,.67,1.05,2,2.45,3.28,2.54,2.29,6.3,5.51,6.65,4.95.52-.83-3.9-31,25-28.16-1.07,1.72-2.27,3.86-3.56,6.45-4.26,8.58-7,12.39-4.56,17.87a7.33,7.33,0,0,0,2.15,2.33l4.23,3.09c1.11.81,1.82.9,1.54.19a11.19,11.19,0,0,1-.38-7.4c1.31-4.24,10-14.85,10.54-22.92,5.76-2.25,8.92-7,11.72-12,3-5.29,3.07-13.58,8.43-16.7,1.95-1.13,4.77-1.44,6.54-2.73,3.71-2.71,1.18-10,1.55-15.46.27-3.87,4.57-5.05,6.52-7.55q5.8-7.44,11.79-14.72c.51-.62-1-2.82-3.29-4.87L276.14,81c-2.16-1.92-4.26-3-4.78-2.46-1.65,1.72-5.51,6.91-13.58,22.63-17.56,34.21-7.31,50-36.78,51.82C195.13,154.62,194.89,175.91,195.22,181.1Z"/>
    <g class="cls-14">
      <g>
        <path class="cls-15" d="M256.83,129.26a13.64,13.64,0,0,1-1.41-5.19c0-6,8.39-4.73,6.91-11.8"/>
        <path class="cls-15" d="M260,127.06l5-4.39c.36,1.77.72,3.56.15,4.56s-2.22,1.12-5.05-.39"/>
        <path class="cls-15" d="M261.76,106.59c1.41-4.73,6.74-5.95,11.06-8s7.69-5.37,5-13.31"/>
        <path class="cls-15" d="M198.74,183.53c-1.06-10.86,3.83-16.84,8.69-22.71,1.72-2.08,3.45-4.16,6.26-5.22,5-1.88,13.42-.44,17.51-3.23,2.45-1.67,3.27-4.83,4.87-7.28,3-4.61,8.75-6.73,12.11-11,2.46-3.15,3.62-7.45,4.77-11.75l4.61-17.15"/>
        <path class="cls-15" d="M224.48,188.27c-2.6-10.77,5.82-12.53,7.24-20.13.45-2.42.19-5.44.92-7.63.83-2.49,2.92-3.85,4.86-5.35a43.36,43.36,0,0,0,11.19-12.85c3.39-5.9,6.1-12.95,18.65-9.57"/>
        <path class="cls-15" d="M232.44,179.65c3-3.61,4.59-8.42,4.87-14.33a23.81,23.81,0,0,1,.54-5.57c.76-2.41,2.78-3.72,4.79-5l12.74-8.2"/>
        <path class="cls-15" d="M255.06,103.72c5.89-5.14,11.8-10.29,15.45-17.45,1.58-3.11,2.75-6.6,5.38-8.75"/>
      </g>
    </g>
  </g>
  <g>
    <path class="cls-2" d="M498.9,412.86a5,5,0,0,1-.47-10c1.88-.25,44.5-6.47,65.08-54.92a80.22,80.22,0,0,0,4.86-16.64c4-21.24,17-71.71,51.34-81.55,25.4-7.28,46,5.34,54.47,20.17,8.1,14.25,6,29.83-5.55,40.66-8.77,8.25-20.48,10.8-31.31,6.83-10.16-3.73-17.43-12.33-18.52-21.91-.63-5.53.36-16.15,14.1-25.11a5,5,0,0,1,5.49,8.42c-6.93,4.52-10.25,9.9-9.6,15.56s5.47,11.22,12,13.61c7.28,2.67,14.93,1,21-4.71,8.09-7.6,9.47-18.21,3.7-28.37-6.54-11.51-22.77-21.26-43-15.47-29.74,8.53-41.38,58.6-44.23,73.75a90.2,90.2,0,0,1-5.49,18.71c-22.93,54-71,60.7-73,61A5,5,0,0,1,498.9,412.86Z"/>
    <g>
      <path class="cls-3" d="M343.81,459c-1.15,4.56-6,4.15-8.32,1-2-2.73-2-6.85-1.69-10.06a18.59,18.59,0,0,1,6.8-12.93,18.88,18.88,0,0,1,23.77,1.13,29.6,29.6,0,0,1,5.07,6.82,18.44,18.44,0,0,1,2.66,6.72,7.42,7.42,0,0,1-2.19,6.62c-1.86,1.56-5,1.58-6.51-.32,1.24,2.23-.87,5.24-3.41,5.47s-4.89-1.65-6-3.93a5.16,5.16,0,0,1-10.15-.5Z"/>
      <path class="cls-4" d="M388.67,353.39c.2.79-8.67,8.23-9.4,9a150.48,150.48,0,0,0-19,24.26,107,107,0,0,0-11,23.18A80.59,80.59,0,0,0,346.14,423c-.3,2-.08,4.44-.55,6.37-.69,2.81-3.16,5.44-4.61,7.89-1.63,2.76-2.92,5.93-2.42,9.1a32,32,0,0,1,4.17-5.91,24.48,24.48,0,0,0,2.66,6.11,12.92,12.92,0,0,1,3.42-5.65,34.82,34.82,0,0,0,6.84,6.82l-.49-7.76,8.28,7.14a31.13,31.13,0,0,0-3.15-8l8.09,3.45L363,434.42c-1.88-2.85-2.38-4.49-1.65-7.7.54-2.39,1-4.78,1.61-7.15A102.27,102.27,0,0,1,368.68,403c5.26-11.67,13.47-22.68,25.63-27.68Z"/>
    </g>
    <g>
      <path class="cls-3" d="M541.8,255c4.21-2.09,2.78-6.76-.82-8.33-3.09-1.35-7.12-.47-10.19.5a18.59,18.59,0,0,0-11.18,9.41,18.88,18.88,0,0,0,6.18,23,29.6,29.6,0,0,0,7.74,3.5,18.44,18.44,0,0,0,7.13,1.17,7.42,7.42,0,0,0,6-3.56c1.13-2.15.48-5.23-1.7-6.29,2.44.74,4.94-2,4.62-4.5s-2.66-4.43-5.13-5.06A5.16,5.16,0,0,0,541.8,255Z"/>
      <path class="cls-4" d="M448.19,321.4c.81,0,6.19-10.22,6.79-11.1a150.48,150.48,0,0,1,19.66-23.7,107,107,0,0,1,20.3-15.72A80.59,80.59,0,0,1,507.14,265c1.91-.72,4.32-1,6.1-1.9,2.59-1.27,4.64-4.25,6.72-6.19,2.34-2.18,5.17-4.12,8.37-4.3a32,32,0,0,0-4.88,5.34,24.48,24.48,0,0,1,6.54,1.3,12.92,12.92,0,0,0-4.79,4.55,34.82,34.82,0,0,1,8.13,5.22l-7.69,1.18,8.74,6.56a31.13,31.13,0,0,1-8.51-1.37l5.1,7.17-9.1-3.51c-3.18-1.23-4.9-1.36-7.88,0-2.22,1-4.46,2-6.65,3.1a102.27,102.27,0,0,0-14.91,9.1c-10.27,7.62-19.28,18-21.57,31Z"/>
    </g>
    <g>
      <circle class="cls-7" cx="331.65" cy="345.17" r="16.2" transform="translate(-133.2 230.95) rotate(-32.34)"/>
      <circle class="cls-8" cx="335.22" cy="341.29" r="10.41" transform="translate(-130.57 232.26) rotate(-32.34)"/>
    </g>
    <g>
      <path class="cls-3" d="M425.68,535.63s25.11-2.31,28.56,10.78-16.59,16.29-26,19.55-27.72,10.08-29.67,4.41,6.88-7.66,6.88-7.66-8.36,1.82-9.68-3.54,6.06-5.54,6.06-5.54-5,.94-6.47-3.31,5.49-4,5.49-4-6.68.55-6.52-3.57C394.54,536.44,425.68,535.63,425.68,535.63Z"/>
      <path class="cls-2" d="M449.51,430.16c-.32-.15-3.36,4.14-3.56,4.42a106.64,106.64,0,0,0-8.24,13.08,130,130,0,0,0-14.77,50,140.87,140.87,0,0,0-.43,18.14c.22,5.41,3.11,13.44-2.12,17.08-2.16,1.51-4.8,2.45-6.42,4.53,2.85-.47,3.6-.05,6.45.46-2.55,1.92-3.57,4.3-5.17,7.93,2.71-1.17,5.68-.23,8-1.85.25,3.6-.26,6.69.75,10.15a30.48,30.48,0,0,1,4.56-6.26,61,61,0,0,0,2.72,8.85,30.74,30.74,0,0,0,6.82-11.45,75.27,75.27,0,0,1,10.49,4.69,58.37,58.37,0,0,0-1.86-7.79,9,9,0,0,1,6.38,1.55c-2.08-1.47-3.93-4.66-5.41-6.71a38,38,0,0,1-4.44-7.65c-1.72-4.15-2-8.75-2.39-13.18a114.46,114.46,0,0,1,.39-25.66A91.86,91.86,0,0,1,466.33,438Z"/>
    </g>
    <g>
      <path class="cls-3" d="M600,443.59s-19.08,16.49-12,28.05,23.24-.66,32.14-5.21,26.48-13,23.75-18.32-10.29-.35-10.29-.35,7.11-4.76,4.16-9.43-8.19.53-8.19.53,4.15-2.95,2.1-7-6.7,1.18-6.7,1.18,5-4.43,1.95-7.17C622.2,421.72,600,443.59,600,443.59Z"/>
      <path class="cls-2" d="M507.5,387.62c.11-.34,5.31.45,5.65.5a106.64,106.64,0,0,1,15.14,3.13,130,130,0,0,1,46.25,24,140.87,140.87,0,0,1,13.37,12.27c3.74,3.9,7.53,11.56,13.78,10.32,2.58-.51,5.09-1.76,7.71-1.48-2.32,1.73-2.53,2.56-4.14,5,3.15-.51,5.57.41,9.3,1.77-2.72,1.14-4.1,3.94-6.87,4.47,2.42,2.68,5,4.45,6.79,7.58a30.48,30.48,0,0,0-7.67-1.05,61,61,0,0,1,4.49,8.1,30.74,30.74,0,0,1-13-3,75.27,75.27,0,0,0-3.9,10.81,58.37,58.37,0,0,1-4.32-6.74,9,9,0,0,0-3.3,5.67c.38-2.52-.64-6.06-1.08-8.56a38,38,0,0,0-2.43-8.5c-1.79-4.11-4.93-7.49-7.84-10.87a114.46,114.46,0,0,0-18.76-17.52,91.86,91.86,0,0,0-55.18-18.27Z"/>
    </g>
    <ellipse class="cls-5" cx="448.4" cy="372.44" rx="62.07" ry="70.72" transform="translate(-129.68 297.64) rotate(-32.34)"/>
    <ellipse class="cls-6" cx="453.23" cy="380.07" rx="43.58" ry="49.65" transform="translate(-133.01 301.41) rotate(-32.34)"/>
    <g>
      <circle class="cls-7" cx="461.17" cy="253.39" r="16.2" transform="translate(-64.02 286) rotate(-32.34)"/>
      <circle class="cls-8" cx="456.13" cy="254.96" r="10.41" transform="translate(-65.64 283.55) rotate(-32.34)"/>
    </g>
    <ellipse class="cls-5" cx="380.94" cy="276.88" rx="76.23" ry="70.67" transform="matrix(0.84, -0.53, 0.53, 0.84, -89.03, 246.73)"/>
    <path class="cls-8" d="M432.32,242A33.8,33.8,0,0,0,370,260.49a33.79,33.79,0,1,0-17.3,64.05,22.8,22.8,0,0,0,3,7.77c10,15.78,37.76,16.12,62,.76s35.83-40.61,25.84-56.39a23.16,23.16,0,0,0-7.34-7.24A33.71,33.71,0,0,0,432.32,242Z"/>
    <g>
      <circle class="cls-9" cx="367.04" cy="312.44" r="15.11" transform="translate(-110.2 244.81) rotate(-32.34)"/>
      <circle class="cls-10" cx="367.04" cy="312.44" r="10.17" transform="translate(-110.2 244.81) rotate(-32.34)"/>
      <circle class="cls-9" cx="367.51" cy="305.59" r="3.7" transform="translate(-106.47 244) rotate(-32.34)"/>
    </g>
    <g>
      <circle class="cls-9" cx="419.95" cy="278.94" r="15.11" transform="translate(-84.08 267.92) rotate(-32.34)"/>
      <circle class="cls-10" cx="419.95" cy="278.94" r="10.17" transform="translate(-84.08 267.92) rotate(-32.34)"/>
      <circle class="cls-9" cx="420.42" cy="272.09" r="3.7" transform="translate(-80.34 267.1) rotate(-32.34)"/>
    </g>
    <path class="cls-11" d="M400.89,309.09a.78.78,0,0,0-.07-1.37c-1.73-.87-4.89-2.13-6.49-.66-2.26,2.09-1,6.17.56,5.51C396,312.1,399.17,310.16,400.89,309.09Z"/>
    <path class="cls-11" d="M404.54,306.78a.78.78,0,0,1-1.21-.65c0-1.94.16-5.33,2.17-6.15,2.85-1.16,6,1.75,4.75,2.86C409.36,303.64,406.24,305.69,404.54,306.78Z"/>
    <circle class="cls-12" cx="416.92" cy="315.51" r="5.52" transform="translate(-104.11 271.97) rotate(-32.34)"/>
  </g>
  <g>
    <path class="cls-13" d="M167.06,210.85a2.75,2.75,0,0,1,.48-3.4c1.66-1.3,4.25-2.92,5.39-1.36,1.68,2.32,25.82,56.77,68.51,88q-5.18-7.18-12.27-17.39c-15.55-22.5-23.74-33.53-25.61-41.39a1.46,1.46,0,0,1,1-1.9l3.49-.75a2.08,2.08,0,0,1,2.24,1.6c.64,2.36,2.38,6.93,7,14.24,6.43,10.11,31,42.29,40.24,59.06C269,319.4,278.87,333,288.4,346.42c10.15,14.33,18.84,30.95,30.49,44,4.24,4.74,9,8.94,13.13,13.78,8.64,10.12,12.18,21.45,18.38,32.74,4.41,8,12.42,15.89,18.06,23.34q16.82,22.21,33.75,44.33c1.43,1.87,1.36,4.36-.17,5.49l-4.27,3.17c-1.43,1.06-3.63.53-5-1.2C388.4,506.53,377,491.26,348,449.7c-62.93-90.46-63-108.77-111.39-150.05C194.19,263.42,171.88,220.75,167.06,210.85Z"/>
    <g class="cls-16">
      <g>
        <path class="cls-17" d="M317.62,392.62a36.41,36.41,0,0,0,3.12,8.52c6.06,11.78,18.1,20.12,23,32.29"/>
        <path class="cls-17" d="M324.9,401.05l12.43,15.13a43.24,43.24,0,0,0-4.45-8.87c-1.93-2.72-4.65-5.06-7.56-5.67"/>
        <path class="cls-17" d="M348.75,444c7.1,11.22,16.76,20.44,25.73,30.13s17.66,20.5,21.61,32.87"/>
        <path class="cls-17" d="M170.1,210.5c9.52,20.25,23.39,38.4,37.1,56.27a205.78,205.78,0,0,0,15.25,18.37c9.87,10.16,21.62,18,30.93,28.76,5.58,6.45,10.13,13.78,15.17,20.69,9.49,13,20.74,24.56,30.46,37.4,7.13,9.41,13.39,19.45,19.63,29.46l24.94,40"/>
        <path class="cls-17" d="M205.82,233.94c7,18.1,22.09,32.37,32.14,49.28,3.21,5.4,5.9,11.07,9.31,16.36,3.87,6,8.58,11.4,13.17,16.84q16.23,19.24,30.88,39.85c11.42,16.07,23,33.54,39.27,42.84"/>
        <path class="cls-17" d="M227.25,261.24A261.24,261.24,0,0,1,249.69,296c2.13,4,4.16,8,6.59,11.77A135.69,135.69,0,0,0,269,323.81l28.54,32.58"/>
        <path class="cls-17" d="M341.12,441.15c14.59,17.75,29.21,35.53,42.34,54.44,5.7,8.2,11.12,16.63,17.5,24.28"/>
      </g>
    </g>
  </g>
  <g>
    <path class="cls-13" d="M717.53,461.38a2.75,2.75,0,0,1-.21,3.43c-1.55,1.43-4,3.25-5.26,1.78-1.86-2.18-30.27-54.53-75.31-82.25q5.74,6.75,13.62,16.35c17.3,21.19,26.33,31.53,28.83,39.21a1.46,1.46,0,0,1-.83,2l-3.42,1a2.08,2.08,0,0,1-2.36-1.41c-.83-2.3-2.92-6.72-8.14-13.63-7.22-9.57-34.32-39.68-44.82-55.66-12.31-10.88-23.28-23.6-33.85-36.27-11.26-13.47-21.25-29.35-33.9-41.41-4.61-4.39-9.68-8.19-14.19-12.69-9.42-9.4-13.86-20.41-20.93-31.17-5-7.67-13.65-14.85-19.86-21.83Q478.34,208,459.7,187.34c-1.58-1.75-1.7-4.24-.27-5.49l4-3.5c1.34-1.17,3.57-.82,5.08.8,4.79,5.15,17.42,19.45,49.55,58.58,69.94,85.16,71.49,103.4,123,140.69C686.29,411.15,711.93,451.91,717.53,461.38Z"/>
    <g class="cls-18">
      <g>
        <path class="cls-17" d="M552.94,292.2a36.41,36.41,0,0,0-3.79-8.25c-7-11.26-19.65-18.62-25.55-30.35"/>
        <path class="cls-17" d="M545,284.38l-13.59-14.09a43.24,43.24,0,0,0,5.15,8.49c2.14,2.56,5,4.67,8,5.05"/>
        <path class="cls-17" d="M517.82,243.46c-8-10.61-18.34-19-28.06-28s-19.24-19-24.16-31"/>
        <path class="cls-17" d="M714.52,462c-11.1-19.43-26.38-36.41-41.47-53.13a205.78,205.78,0,0,0-16.67-17.1c-10.65-9.34-23-16.22-33.13-26.2-6.08-6-11.2-12.93-16.78-19.42-10.5-12.22-22.63-22.83-33.35-34.85-7.85-8.81-14.89-18.32-21.92-27.8l-28-37.88"/>
        <path class="cls-17" d="M677,441.46c-8.42-17.49-24.6-30.5-36-46.55-3.63-5.13-6.77-10.57-10.58-15.56-4.33-5.67-9.46-10.68-14.47-15.74q-17.72-17.89-34-37.26c-12.67-15.11-25.56-31.6-42.56-39.57"/>
        <path class="cls-17" d="M653.51,416a261.24,261.24,0,0,1-25.14-32.82c-2.44-3.77-4.79-7.61-7.51-11.21a135.69,135.69,0,0,0-14-15l-31-30.2"/>
        <path class="cls-17" d="M525.65,245.7c-16-16.53-32-33.09-46.55-50.89-6.33-7.72-12.41-15.68-19.38-22.8"/>
      </g>
    </g>
  </g>
</svg>
