<svg id="Layer_1" data-name="Layer 1" xmlns="http://www.w3.org/2000/svg" xmlns:xlink="http://www.w3.org/1999/xlink" width="1024" height="600" viewBox="0 0 1024 600">
  <defs>
    <style>
      .cls-1, .cls-15, .cls-18 {
        fill: none;
      }

      .cls-2 {
        fill: #955333;
      }

      .cls-3 {
        fill: #a86240;
      }

      .cls-4 {
        fill: #904e2b;
      }

      .cls-5 {
        fill: #965633;
      }

      .cls-6 {
        fill: #fbbc86;
      }

      .cls-7 {
        fill: #9a5a36;
      }

      .cls-8 {
        fill: #fcbd87;
      }

      .cls-9 {
        fill: #fff;
      }

      .cls-10 {
        fill: #231f20;
      }

      .cls-11 {
        fill: #753313;
      }

      .cls-12 {
        fill: #562810;
      }

      .cls-13 {
        fill: #8b5e3c;
      }

      .cls-14 {
        clip-path: url(#clip-path);
      }

      .cls-15, .cls-18 {
        stroke: #a97c50;
        stroke-linecap: round;
        stroke-linejoin: round;
      }

      .cls-15 {
        stroke-width: 1.33px;
      }

      .cls-16 {
        clip-path: url(#clip-path-2);
      }

      .cls-17 {
        clip-path: url(#clip-path-3);
      }

      .cls-18 {
        stroke-width: 0.99px;
      }
    </style>
    <clipPath id="clip-path">
      <path id="SVGID" class="cls-1" d="M744.76,184.93a2.75,2.75,0,0,0-1-3.29c-1.83-1-4.64-2.25-5.53-.53-1.31,2.55-17,60-54.57,97.26q4.05-7.88,9.53-19c12-24.58,18.45-36.71,19.13-44.75a1.46,1.46,0,0,0-1.26-1.73l-3.56-.22a2.08,2.08,0,0,0-2,1.92c-.28,2.43-1.31,7.21-4.82,15.13-4.85,11-24.37,46.46-30.95,64.42-9.5,13.4-17.28,28.29-24.69,43-7.89,15.69-14,33.42-23.56,48-3.48,5.32-7.55,10.18-10.92,15.59-7,11.3-8.84,23-13.27,35.12-3.16,8.62-9.9,17.57-14.36,25.78q-13.3,24.48-26.73,48.88c-1.14,2.07-.69,4.52,1,5.4l4.7,2.49c1.57.83,3.67,0,4.76-1.94,3.49-6.1,12.52-22.91,34.88-68.33,48.68-98.87,46-117,87.68-165C725.8,241,741.47,195.43,744.76,184.93Z"/>
    </clipPath>
    <clipPath id="clip-path-2">
      <path id="SVGID-2" data-name="SVGID" class="cls-1" d="M248.46,475.53a2.75,2.75,0,0,0,.49,3.4c1.66,1.3,4.26,2.92,5.39,1.35,1.67-2.32,25.72-56.81,68.36-88.12q-5.17,7.19-12.24,17.41c-15.51,22.53-23.68,33.58-25.54,41.43a1.46,1.46,0,0,0,1,1.89l3.49.74a2.08,2.08,0,0,0,2.24-1.6c.64-2.36,2.36-6.93,7-14.25,6.42-10.12,31-42.35,40.13-59.13,11.38-11.85,21.27-25.42,30.78-38.91,10.12-14.35,18.79-31,30.41-44,4.23-4.75,9-9,13.1-13.81,8.62-10.14,12.14-21.47,18.32-32.77,4.4-8.06,12.39-15.91,18-23.37q16.78-22.24,33.67-44.39c1.43-1.88,1.35-4.36-.18-5.49l-4.28-3.16c-1.43-1.06-3.63-.53-5,1.21-4.35,5.52-15.77,20.81-44.61,62.42-62.77,90.58-62.82,108.88-111.13,150.25C275.5,422.92,253.26,465.63,248.46,475.53Z"/>
    </clipPath>
    <clipPath id="clip-path-3">
      <path id="SVGID-3" data-name="SVGID" class="cls-1" d="M749.67,89.3c-.67.1-1.92,1.23-3,2.74-2,2.74-4.91,6.77-4.32,7.07.88.44,30.54-6.73,30.34,22.36-1.81-.9-4-1.91-6.75-3-8.93-3.46-13-5.79-18.22-2.9a7.33,7.33,0,0,0-2.13,2.36l-2.69,4.5c-.7,1.18-.73,1.9,0,1.55a11.19,11.19,0,0,1,7.33-1.05c4.35.91,15.7,8.58,23.79,8.4,2.77,5.53,7.82,8.24,13,10.57,5.54,2.48,13.81,1.81,17.4,6.86,1.31,1.84,1.87,4.61,3.32,6.26,3,3.44,10.09.25,15.54.13,3.88-.09,5.45,4.09,8.12,5.8q7.94,5.09,15.74,10.38c.66.45,2.72-1.24,4.55-3.72l5.12-7c1.71-2.33,2.6-4.52,2-5-1.86-1.48-7.39-4.85-23.78-11.44-35.68-14.34-50.44-2.7-55-31.87C776,86.79,754.8,88.5,749.67,89.3Z"/>
    </clipPath>
  </defs>
  <title>10_monkeys_playing_passing_the_sticks</title>
  <g>
    <path class="cls-2" d="M449.81,418.86a5,5,0,0,0,.47-10c-1.88-.25-44.5-6.47-65.08-54.92a80.22,80.22,0,0,1-4.86-16.64c-4-21.24-17-71.71-51.34-81.55-25.4-7.28-46,5.34-54.47,20.17-8.1,14.25-6,29.83,5.55,40.66,8.77,8.25,20.48,10.8,31.31,6.83,10.16-3.73,17.43-12.33,18.52-21.91.63-5.53-.36-16.15-14.1-25.11a5,5,0,0,0-5.49,8.42c6.93,4.52,10.25,9.9,9.6,15.56s-5.47,11.22-12,13.61c-7.28,2.67-14.93,1-21-4.71-8.09-7.6-9.47-18.21-3.7-28.37,6.54-11.51,22.77-21.26,43-15.47,29.74,8.53,41.38,58.6,44.23,73.75a90.2,90.2,0,0,0,5.49,18.71c22.93,54,71,60.7,73,61A5,5,0,0,0,449.81,418.86Z"/>
    <g>
      <path class="cls-3" d="M604.91,465c1.15,4.56,6,4.15,8.32,1,2-2.73,2-6.85,1.69-10.06a18.59,18.59,0,0,0-6.8-12.93,18.88,18.88,0,0,0-23.77,1.13,29.6,29.6,0,0,0-5.07,6.82,18.44,18.44,0,0,0-2.66,6.72,7.42,7.42,0,0,0,2.19,6.62c1.86,1.56,5,1.58,6.51-.32-1.24,2.23.87,5.24,3.41,5.47s4.89-1.65,6-3.93a5.16,5.16,0,0,0,10.15-.5Z"/>
      <path class="cls-4" d="M560,359.39c-.2.79,8.67,8.23,9.4,9a150.48,150.48,0,0,1,19,24.26,107,107,0,0,1,11,23.18A80.59,80.59,0,0,1,602.57,429c.3,2,.08,4.44.55,6.37.69,2.81,3.16,5.44,4.61,7.89,1.63,2.76,2.92,5.93,2.42,9.1a32,32,0,0,0-4.17-5.91,24.48,24.48,0,0,1-2.66,6.11,12.92,12.92,0,0,0-3.42-5.65,34.82,34.82,0,0,1-6.84,6.82l.49-7.76-8.28,7.14a31.13,31.13,0,0,1,3.15-8l-8.09,3.45,5.38-8.14c1.88-2.85,2.38-4.49,1.65-7.7-.54-2.39-1-4.78-1.61-7.15A102.27,102.27,0,0,0,580,409c-5.26-11.67-13.47-22.68-25.63-27.68Z"/>
    </g>
    <g>
      <path class="cls-3" d="M406.92,261c-4.21-2.09-2.78-6.76.82-8.33,3.09-1.35,7.12-.47,10.19.5a18.59,18.59,0,0,1,11.18,9.41,18.88,18.88,0,0,1-6.18,23,29.6,29.6,0,0,1-7.74,3.5,18.44,18.44,0,0,1-7.13,1.17,7.42,7.42,0,0,1-6-3.56c-1.13-2.15-.48-5.23,1.7-6.29-2.44.74-4.94-2-4.62-4.5s2.66-4.43,5.13-5.06a5.16,5.16,0,0,1,2.66-9.81Z"/>
      <path class="cls-4" d="M500.53,327.4c-.81,0-6.19-10.22-6.79-11.1a150.48,150.48,0,0,0-19.66-23.7,107,107,0,0,0-20.3-15.72A80.59,80.59,0,0,0,441.57,271c-1.91-.72-4.32-1-6.1-1.9-2.59-1.27-4.64-4.25-6.72-6.19-2.34-2.18-5.17-4.12-8.37-4.3a32,32,0,0,1,4.88,5.34,24.48,24.48,0,0,0-6.54,1.3,12.92,12.92,0,0,1,4.79,4.55,34.82,34.82,0,0,0-8.13,5.22l7.69,1.18-8.74,6.56a31.13,31.13,0,0,0,8.51-1.37l-5.1,7.17,9.1-3.51c3.18-1.23,4.9-1.36,7.88,0,2.22,1,4.46,2,6.65,3.1a102.27,102.27,0,0,1,14.91,9.1c10.27,7.62,19.28,18,21.57,31Z"/>
    </g>
    <g>
      <circle class="cls-5" cx="617.06" cy="351.17" r="16.2" transform="translate(-9.73 684.66) rotate(-57.66)"/>
      <circle class="cls-6" cx="613.49" cy="347.29" r="10.41" transform="translate(-8.11 679.84) rotate(-57.66)"/>
    </g>
    <g>
      <path class="cls-3" d="M520.22,535.47s-25,3.35-25.44,16.88,19.81,12.18,29.75,13.25,29.27,3.64,29.91-2.32-8.41-5.93-8.41-5.93,8.56-.09,8.65-5.61-7.14-4-7.14-4,5.08-.2,5.56-4.67-6.25-2.68-6.25-2.68,6.63-1,5.56-4.93C550.76,529.31,520.22,535.47,520.22,535.47Z"/>
      <path class="cls-2" d="M499.2,436.16c.32-.15,3.36,4.14,3.56,4.42A106.64,106.64,0,0,1,511,453.65a130,130,0,0,1,14.77,50,140.87,140.87,0,0,1,.43,18.14c-.22,5.41-3.11,13.44,2.12,17.08,2.16,1.51,4.8,2.45,6.42,4.53-2.85-.47-3.6-.05-6.45.46,2.55,1.92,3.57,4.3,5.17,7.93-2.71-1.17-5.68-.23-8-1.85-.25,3.6.26,6.69-.75,10.15a30.48,30.48,0,0,0-4.56-6.26,61,61,0,0,1-2.72,8.85,30.74,30.74,0,0,1-6.82-11.45,75.27,75.27,0,0,0-10.49,4.69,58.37,58.37,0,0,1,1.86-7.79,9,9,0,0,0-6.38,1.55c2.08-1.47,3.93-4.66,5.41-6.71a38,38,0,0,0,4.44-7.65c1.72-4.15,2-8.75,2.39-13.18a114.46,114.46,0,0,0-.39-25.66A91.86,91.86,0,0,0,482.39,444Z"/>
    </g>
    <g>
      <path class="cls-3" d="M348.7,449.59s19.08,16.49,12,28.05-23.24-.66-32.14-5.21-26.48-13-23.75-18.32,10.29-.35,10.29-.35S308,449,311,444.34s8.19.53,8.19.53-4.15-2.95-2.1-7,6.7,1.18,6.7,1.18-5-4.43-1.95-7.17C326.52,427.72,348.7,449.59,348.7,449.59Z"/>
      <path class="cls-2" d="M441.21,393.62c-.11-.34-5.31.45-5.65.5a106.64,106.64,0,0,0-15.14,3.13,130,130,0,0,0-46.25,24,140.87,140.87,0,0,0-13.37,12.27c-3.74,3.9-7.53,11.56-13.78,10.32-2.58-.51-5.09-1.76-7.71-1.48,2.32,1.73,2.53,2.56,4.14,5-3.15-.51-5.57.41-9.3,1.77,2.72,1.14,4.1,3.94,6.87,4.47-2.42,2.68-5,4.45-6.79,7.58a30.48,30.48,0,0,1,7.67-1.05,61,61,0,0,0-4.49,8.1,30.74,30.74,0,0,0,13-3,75.27,75.27,0,0,1,3.9,10.81,58.37,58.37,0,0,0,4.32-6.74,9,9,0,0,1,3.3,5.67c-.38-2.52.64-6.06,1.08-8.56a38,38,0,0,1,2.43-8.5c1.79-4.11,4.93-7.49,7.84-10.87A114.46,114.46,0,0,1,392,429.46a91.86,91.86,0,0,1,55.18-18.27Z"/>
    </g>
    <ellipse class="cls-7" cx="500.31" cy="378.44" rx="70.72" ry="62.07" transform="translate(-87.07 598.7) rotate(-57.66)"/>
    <ellipse class="cls-8" cx="495.48" cy="386.07" rx="49.65" ry="43.58" transform="translate(-95.76 598.17) rotate(-57.66)"/>
    <g>
      <circle class="cls-5" cx="487.55" cy="259.39" r="16.2" transform="translate(7.58 532.55) rotate(-57.66)"/>
      <circle class="cls-6" cx="492.58" cy="260.96" r="10.41" transform="translate(8.6 537.54) rotate(-57.66)"/>
    </g>
    <ellipse class="cls-7" cx="567.78" cy="282.88" rx="70.67" ry="76.23" transform="translate(25.05 611.26) rotate(-57.66)"/>
    <path class="cls-6" d="M516.39,248a33.8,33.8,0,0,1,62.36,18.52,33.79,33.79,0,1,1,17.3,64.05,22.8,22.8,0,0,1-3,7.77c-10,15.78-37.76,16.12-62,.76s-35.83-40.61-25.84-56.39a23.16,23.16,0,0,1,7.34-7.24A33.71,33.71,0,0,1,516.39,248Z"/>
    <g>
      <circle class="cls-9" cx="581.67" cy="318.44" r="15.11" transform="translate(1.46 639.54) rotate(-57.66)"/>
      <circle class="cls-10" cx="581.67" cy="318.44" r="10.17" transform="translate(1.46 639.54) rotate(-57.66)"/>
      <circle class="cls-9" cx="581.21" cy="311.59" r="3.7" transform="translate(7.04 635.96) rotate(-57.66)"/>
    </g>
    <g>
      <circle class="cls-9" cx="528.76" cy="284.94" r="15.11" transform="translate(5.16 579.26) rotate(-57.66)"/>
      <circle class="cls-10" cx="528.76" cy="284.94" r="10.17" transform="translate(5.16 579.26) rotate(-57.66)"/>
      <circle class="cls-9" cx="528.3" cy="278.09" r="3.7" transform="translate(10.73 575.68) rotate(-57.66)"/>
    </g>
    <path class="cls-11" d="M547.83,315.09a.78.78,0,0,1,.07-1.37c1.73-.87,4.89-2.13,6.49-.66,2.26,2.09,1,6.17-.56,5.51C552.72,318.1,549.54,316.16,547.83,315.09Z"/>
    <path class="cls-11" d="M544.18,312.78a.78.78,0,0,0,1.21-.65c0-1.94-.16-5.33-2.17-6.15-2.85-1.16-6,1.75-4.75,2.86C539.36,309.64,542.48,311.69,544.18,312.78Z"/>
    <circle class="cls-12" cx="531.79" cy="321.51" r="5.52" transform="matrix(0.53, -0.84, 0.84, 0.53, -24.33, 598.82)"/>
  </g>
  <g>
    <path class="cls-2" d="M149.74,488.72a3.38,3.38,0,0,0-1.58-6.55c-1.26.19-29.93,4.21-52.34-23.18a53.93,53.93,0,0,1-6.27-9.83c-6.59-13-24.5-43.06-48.49-42.95-17.76.08-28.7,12.12-31.35,23.28C7.17,440.21,11.47,449.87,21,454.68a20.15,20.15,0,0,0,21.49-1.49c5.85-4.32,8.93-11.24,7.82-17.63C49.63,431.87,47,425.21,36.43,422a3.38,3.38,0,0,0-2,6.47c5.32,1.61,8.48,4.46,9.13,8.23s-1.42,8.27-5.17,11a13.35,13.35,0,0,1-14.41.91c-6.65-3.38-9.54-10-7.73-17.61C18.34,422.39,27,413,41.09,413c20.8-.1,37.74,30,42.44,39.26a60.64,60.64,0,0,0,7.06,11c25,30.51,57.26,25.79,58.62,25.57A3.38,3.38,0,0,0,149.74,488.72Z"/>
    <g>
      <path class="cls-3" d="M226.82,456c2.12,2.35,4.88.58,5.25-2,.32-2.24-1-4.7-2.16-6.51a12.5,12.5,0,0,0-8.11-5.54A12.69,12.69,0,0,0,208,450a19.9,19.9,0,0,0-.87,5.65,12.4,12.4,0,0,0,.53,4.83,5,5,0,0,0,3.39,3.24,3.17,3.17,0,0,0,3.77-2.24c0,1.71,2.17,2.84,3.75,2.18a4.42,4.42,0,0,0,2.35-4.23,3.47,3.47,0,0,0,5.88-3.49Z"/>
      <path class="cls-4" d="M166.94,407.33c.13.53,7.74,2.16,8.42,2.39a101.16,101.16,0,0,1,18.89,8.45,71.93,71.93,0,0,1,13.84,10.3,54.17,54.17,0,0,1,6,6.85c.81,1.11,1.44,2.61,2.33,3.61,1.29,1.45,3.59,2.24,5.22,3.24a9.43,9.43,0,0,1,4.3,4.64,21.48,21.48,0,0,0-4.34-2.2,16.45,16.45,0,0,1,.34,4.47,8.68,8.68,0,0,0-3.81-2.28,23.41,23.41,0,0,1-1.91,6.2l-2.15-4.77-2.67,6.84a20.93,20.93,0,0,1-.65-5.76l-3.72,4.6.63-6.53c.22-2.28,0-3.42-1.44-5.1-1.07-1.25-2.1-2.53-3.21-3.74a68.75,68.75,0,0,0-8.58-8c-6.79-5.28-15.14-9.24-23.94-8.38Z"/>
    </g>
    <g>
      <path class="cls-3" d="M74.62,483.35c-1.5,2.78-4.6,1.72-5.58-.73-.84-2.1-.17-4.79.55-6.84a12.5,12.5,0,0,1,6.56-7.31,12.69,12.69,0,0,1,15.31,4.64,19.9,19.9,0,0,1,2.19,5.28,12.4,12.4,0,0,1,.63,4.82,5,5,0,0,1-2.52,4,3.17,3.17,0,0,1-4.19-1.28c.45,1.66-1.43,3.28-3.12,3a4.42,4.42,0,0,1-3.29-3.55,3.47,3.47,0,0,1-6.54-2Z"/>
      <path class="cls-4" d="M121.21,421.87c0,.55-7,3.94-7.61,4.32a101.16,101.16,0,0,0-16.34,12.7,71.93,71.93,0,0,0-11,13.3A54.17,54.17,0,0,0,82,460.27c-.53,1.27-.78,2.88-1.4,4.06-.91,1.72-3,3-4.3,4.38a9.43,9.43,0,0,0-3.07,5.53A21.48,21.48,0,0,1,77,471.08a16.45,16.45,0,0,0,.73,4.42,8.68,8.68,0,0,1,3.16-3.12A23.41,23.41,0,0,0,84.19,478l1-5.14,4.22,6a20.93,20.93,0,0,0-.74-5.74l4.71,3.58-2.17-6.19c-.76-2.16-.81-3.32.19-5.29.74-1.47,1.44-3,2.23-4.4a68.75,68.75,0,0,1,6.43-9.83c5.34-6.74,12.51-12.57,21.26-13.83Z"/>
    </g>
    <g>
      <circle class="cls-5" cx="187.84" cy="373.46" r="10.89" transform="translate(-107.23 77.34) rotate(-18.2)"/>
      <circle class="cls-6" cx="184.3" cy="373.66" r="7" transform="translate(-107.47 76.24) rotate(-18.2)"/>
    </g>
    <g>
      <path class="cls-3" d="M207.69,541.89s-16.95.27-18.31,9.26,12.26,9.69,18.81,11.19,19.25,4.74,20.15.81-5.15-4.62-5.15-4.62,5.72.62,6.21-3.06S225,552.2,225,552.2s3.41.27,4.08-2.68-4-2.28-4-2.28,4.5-.11,4.1-2.86C228.56,540.19,207.69,541.89,207.69,541.89Z"/>
      <path class="cls-2" d="M184.16,473.11c.2-.12,2.54,2.52,2.7,2.7a71.69,71.69,0,0,1,6.45,8.15,87.39,87.39,0,0,1,13.47,32.33,94.7,94.7,0,0,1,1.59,12.09c.24,3.63-1.11,9.21,2.65,11.27,1.55.85,3.38,1.29,4.62,2.56-1.94-.11-2.41.23-4.28.77,1.84,1.1,2.7,2.62,4,4.93-1.89-.58-3.81.26-5.47-.66.09,2.42.66,4.45.23,6.84a20.49,20.49,0,0,0-3.5-3.85,41,41,0,0,1-1.18,6.11,20.66,20.66,0,0,1-5.38-7.16,50.6,50.6,0,0,0-6.68,3.89,39.24,39.24,0,0,1,.68-5.34,6,6,0,0,0-4.15,1.5c1.28-1.13,2.29-3.4,3.13-4.88a25.57,25.57,0,0,0,2.42-5.43c.85-2.89.69-6,.65-9A76.94,76.94,0,0,0,194,512.81a61.75,61.75,0,0,0-20.55-33.23Z"/>
    </g>
    <g>
      <path class="cls-3" d="M100.77,544.73s16.83,2,17.25,11.11-13.2,8.37-19.87,9.18S78.51,567.73,78,563.73s5.6-4.06,5.6-4.06-5.75,0-5.86-3.69,4.76-2.78,4.76-2.78-3.42-.09-3.78-3.09,4.17-1.86,4.17-1.86-4.47-.58-3.78-3.27C80.19,540.87,100.77,544.73,100.77,544.73Z"/>
      <path class="cls-2" d="M131.3,478.76c-.19-.14-2.79,2.25-3,2.4a71.69,71.69,0,0,0-7.26,7.43,87.39,87.39,0,0,0-16.76,30.76,94.7,94.7,0,0,0-2.84,11.86c-.62,3.58.15,9.27-3.8,10.93-1.63.69-3.5.94-4.86,2.07,1.94.09,2.37.47,4.17,1.21-1.95.9-3,2.32-4.52,4.49,1.95-.39,3.77.65,5.51-.09-.34,2.4-1.12,4.36-.94,6.78a20.49,20.49,0,0,1,3.88-3.47,41,41,0,0,0,.54,6.2,20.66,20.66,0,0,0,6.1-6.57,50.6,50.6,0,0,1,6.24,4.56,39.24,39.24,0,0,0-.13-5.38,6,6,0,0,1,4,1.92c-1.16-1.26-1.92-3.62-2.61-5.18A25.57,25.57,0,0,1,113.2,543c-.55-3-.07-6,.28-9a76.94,76.94,0,0,1,3.87-16.81,61.75,61.75,0,0,1,23.89-30.92Z"/>
    </g>
    <ellipse class="cls-7" cx="152.11" cy="445.71" rx="41.73" ry="47.54" transform="translate(-131.58 69.79) rotate(-18.2)"/>
    <ellipse class="cls-8" cx="154" cy="451.47" rx="29.29" ry="33.38" transform="translate(-133.29 70.67) rotate(-18.2)"/>
    <g>
      <circle class="cls-5" cx="84.87" cy="401.47" r="10.89" transform="translate(-121.13 46.58) rotate(-18.2)"/>
      <circle class="cls-6" cx="87.84" cy="399.53" r="7" transform="translate(-120.37 47.41) rotate(-18.2)"/>
    </g>
    <ellipse class="cls-7" cx="131.34" cy="369.86" rx="51.24" ry="47.51" transform="translate(-108.93 59.51) rotate(-18.2)"/>
    <path class="cls-6" d="M91.26,381.62a22.72,22.72,0,0,1,36.26-24.45,22.72,22.72,0,1,1,40.63,18.39,15.33,15.33,0,0,1,2.74,4.89c3.92,11.93-7.77,26.49-26.1,32.51s-36.38,1.24-40.3-10.68a15.57,15.57,0,0,1-.62-6.9A22.66,22.66,0,0,1,91.26,381.62Z"/>
    <g>
      <circle class="cls-9" cx="155.73" cy="377.85" r="10.16" transform="translate(-110.21 67.53) rotate(-18.2)"/>
      <circle class="cls-10" cx="155.73" cy="377.85" r="6.84" transform="translate(-110.21 67.53) rotate(-18.2)"/>
      <circle class="cls-9" cx="151.98" cy="375.16" r="2.49" transform="translate(-109.56 66.22) rotate(-18.2)"/>
    </g>
    <g>
      <circle class="cls-9" cx="115.74" cy="390.99" r="10.16" transform="translate(-116.31 55.7) rotate(-18.2)"/>
      <circle class="cls-10" cx="115.74" cy="390.99" r="6.84" transform="translate(-116.31 55.7) rotate(-18.2)"/>
      <circle class="cls-9" cx="111.98" cy="388.31" r="2.49" transform="translate(-115.66 54.39) rotate(-18.2)"/>
    </g>
    <path class="cls-11" d="M139.53,394a.53.53,0,0,1-.68-.62c.29-1.27,1-3.45,2.43-3.65,2.05-.28,3.62,2.12,2.62,2.65C143.19,392.73,140.82,393.55,139.53,394Z"/>
    <path class="cls-11" d="M136.77,394.89a.53.53,0,0,0,.18-.91c-1-.85-2.84-2.19-4.12-1.5-1.82,1-1.66,3.86-.54,3.69C133.08,396,135.48,395.3,136.77,394.89Z"/>
    <circle class="cls-12" cx="136.01" cy="405.05" r="3.71" transform="translate(-119.69 62.73) rotate(-18.2)"/>
  </g>
  <g>
    <path class="cls-13" d="M744.76,184.93a2.75,2.75,0,0,0-1-3.29c-1.83-1-4.64-2.25-5.53-.53-1.31,2.55-17,60-54.57,97.26q4.05-7.88,9.53-19c12-24.58,18.45-36.71,19.13-44.75a1.46,1.46,0,0,0-1.26-1.73l-3.56-.22a2.08,2.08,0,0,0-2,1.92c-.28,2.43-1.31,7.21-4.82,15.13-4.85,11-24.37,46.46-30.95,64.42-9.5,13.4-17.28,28.29-24.69,43-7.89,15.69-14,33.42-23.56,48-3.48,5.32-7.55,10.18-10.92,15.59-7,11.3-8.84,23-13.27,35.12-3.16,8.62-9.9,17.57-14.36,25.78q-13.3,24.48-26.73,48.88c-1.14,2.07-.69,4.52,1,5.4l4.7,2.49c1.57.83,3.67,0,4.76-1.94,3.49-6.1,12.52-22.91,34.88-68.33,48.68-98.87,46-117,87.68-165C725.8,241,741.47,195.43,744.76,184.93Z"/>
    <g class="cls-14">
      <g>
        <path class="cls-15" d="M623.1,387.19a36.41,36.41,0,0,1-1.81,8.89c-4.22,12.55-14.89,22.61-18,35.38"/>
        <path class="cls-15" d="M617.16,396.61l-10,16.82a43.24,43.24,0,0,1,3.08-9.44c1.5-3,3.84-5.7,6.63-6.74"/>
        <path class="cls-15" d="M600,442.66c-5.34,12.15-13.51,22.72-20.93,33.64S564.69,499.22,562.63,512"/>
        <path class="cls-15" d="M741.69,185c-6.38,21.45-17.38,41.47-28.26,61.19a205.78,205.78,0,0,1-12.33,20.45c-8.24,11.53-18.68,21-26.28,33.07-4.56,7.22-8,15.14-11.91,22.73-7.44,14.29-16.83,27.39-24.52,41.54-5.64,10.37-10.32,21.23-15,32.07l-18.67,43.28"/>
        <path class="cls-15" d="M709.89,213.55c-4.21,18.95-17,35.31-24.41,53.53-2.37,5.82-4.18,11.83-6.76,17.57-2.92,6.51-6.77,12.55-10.5,18.62q-13.17,21.46-24.57,44c-8.89,17.6-17.68,36.6-32.41,48.23"/>
        <path class="cls-15" d="M692.79,243.75a261.24,261.24,0,0,0-17,37.69c-1.52,4.23-2.92,8.5-4.75,12.62a135.69,135.69,0,0,1-10.16,17.8l-23.34,36.48"/>
        <path class="cls-15" d="M607.13,438.69c-11.77,19.73-23.56,39.51-33.72,60.16-4.4,9-8.51,18.1-13.67,26.62"/>
      </g>
    </g>
  </g>
  <g>
    <path class="cls-13" d="M248.46,475.53a2.75,2.75,0,0,0,.49,3.4c1.66,1.3,4.26,2.92,5.39,1.35,1.67-2.32,25.72-56.81,68.36-88.12q-5.17,7.19-12.24,17.41c-15.51,22.53-23.68,33.58-25.54,41.43a1.46,1.46,0,0,0,1,1.89l3.49.74a2.08,2.08,0,0,0,2.24-1.6c.64-2.36,2.36-6.93,7-14.25,6.42-10.12,31-42.35,40.13-59.13,11.38-11.85,21.27-25.42,30.78-38.91,10.12-14.35,18.79-31,30.41-44,4.23-4.75,9-9,13.1-13.81,8.62-10.14,12.14-21.47,18.32-32.77,4.4-8.06,12.39-15.91,18-23.37q16.78-22.24,33.67-44.39c1.43-1.88,1.35-4.36-.18-5.49l-4.28-3.16c-1.43-1.06-3.63-.53-5,1.21-4.35,5.52-15.77,20.81-44.61,62.42-62.77,90.58-62.82,108.88-111.13,150.25C275.5,422.92,253.26,465.63,248.46,475.53Z"/>
    <g class="cls-16">
      <g>
        <path class="cls-15" d="M398.7,293.49a36.41,36.41,0,0,1,3.11-8.53c6-11.79,18.07-20.16,23-32.33"/>
        <path class="cls-15" d="M406,285l12.4-15.16a43.24,43.24,0,0,1-4.44,8.88c-1.93,2.72-4.64,5.07-7.55,5.68"/>
        <path class="cls-15" d="M429.73,242c7.08-11.23,16.72-20.47,25.68-30.18S473,191.33,477,179"/>
        <path class="cls-15" d="M251.5,475.87c9.48-20.27,23.32-38.44,37-56.34a205.78,205.78,0,0,1,15.22-18.4c9.85-10.18,21.59-18,30.88-28.82,5.57-6.46,10.11-13.8,15.14-20.72,9.47-13,20.69-24.6,30.39-37.46,7.11-9.42,13.35-19.47,19.58-29.5l24.87-40"/>
        <path class="cls-15" d="M287.18,452.38c7-18.12,22-32.41,32.06-49.33,3.2-5.4,5.88-11.08,9.28-16.37,3.86-6,8.56-11.41,13.14-16.87q16.2-19.27,30.81-39.9c11.39-16.09,22.9-33.58,39.19-42.91"/>
        <path class="cls-15" d="M308.56,425a261.24,261.24,0,0,0,22.38-34.76c2.13-4,4.15-8,6.57-11.78a135.69,135.69,0,0,1,12.68-16.1l28.48-32.63"/>
        <path class="cls-15" d="M422.11,244.92c14.56-17.77,29.15-35.59,42.24-54.52,5.68-8.21,11.09-16.65,17.46-24.31"/>
      </g>
    </g>
  </g>
  <g>
    <path class="cls-2" d="M844.71,407.56a4,4,0,0,0-7.48-2.46c-.59,1.37-14.25,32.34-55.26,37.74a63,63,0,0,1-13.63.18c-16.93-1.43-57.88-2.17-72.54,21.75-10.85,17.71-5.63,36,3.83,45.49,9.09,9.13,21.34,10.79,32,4.34,8.09-4.91,12.48-13.24,11.75-22.27-.69-8.48-5.67-15.79-12.7-18.63-4.06-1.64-12.3-3.12-22,5.4a4,4,0,0,0,5.22,5.93c4.88-4.29,9.65-5.68,13.8-4s7.35,6.5,7.79,11.94c.49,6.08-2.41,11.51-8,14.88-7.46,4.53-15.78,3.35-22.26-3.16-7.34-7.37-11.32-21.71-2.69-35.78,12.71-20.73,53.07-19,65.14-18a70.89,70.89,0,0,0,15.32-.22c45.69-6,60.89-41,61.51-42.51A4,4,0,0,0,844.71,407.56Z"/>
    <g>
      <path class="cls-3" d="M739.93,394.91c-2,3.13-5.5,1.65-6.45-1.28-.82-2.52.18-5.61,1.17-7.93a14.61,14.61,0,0,1,8.21-8,14.84,14.84,0,0,1,17.5,6.59,23.26,23.26,0,0,1,2.14,6.33,14.5,14.5,0,0,1,.37,5.67,5.83,5.83,0,0,1-3.24,4.42,3.71,3.71,0,0,1-4.79-1.81c.39,2-1.92,3.71-3.87,3.27a5.16,5.16,0,0,1-3.56-4.4,4.06,4.06,0,0,1-7.47-2.83Z"/>
      <path class="cls-4" d="M799,326.78c0,.64-8.47,4.06-9.21,4.46a118.27,118.27,0,0,0-20,13.56,84.1,84.1,0,0,0-13.85,14.67,63.34,63.34,0,0,0-5.54,9.1c-.71,1.44-1.13,3.3-2,4.63-1.19,1.93-3.68,3.3-5.36,4.78-1.89,1.67-3.62,3.73-4,6.22a25.12,25.12,0,0,1,4.55-3.41,19.24,19.24,0,0,0,.51,5.22,10.15,10.15,0,0,1,3.92-3.4,27.36,27.36,0,0,0,3.46,6.76l1.51-5.92,4.46,7.34a24.46,24.46,0,0,0-.42-6.76l5.22,4.54-2.05-7.39c-.72-2.58-.69-3.94.63-6.16,1-1.65,1.91-3.33,2.94-5a80.38,80.38,0,0,1,8.26-11c6.75-7.45,15.56-13.7,25.86-14.5Z"/>
    </g>
    <g>
      <path class="cls-3" d="M895.65,245.84c1.3-3.46,5.06-2.71,6.58,0,1.3,2.31.93,5.53.42,8a14.61,14.61,0,0,1-6.47,9.48,14.84,14.84,0,0,1-18.46-3,23.26,23.26,0,0,1-3.35-5.78,14.5,14.5,0,0,1-1.48-5.48,5.83,5.83,0,0,1,2.3-5,3.71,3.71,0,0,1,5.06.83c-.77-1.85,1.15-4,3.15-4a5.16,5.16,0,0,1,4.36,3.61,4.06,4.06,0,0,1,7.88,1.3Z"/>
      <path class="cls-4" d="M851.17,324.29c-.09-.63,7.5-5.65,8.15-6.19a118.27,118.27,0,0,0,17-17.25A84.1,84.1,0,0,0,887,283.74a63.34,63.34,0,0,0,3.64-10c.41-1.55.46-3.46,1-4.92.79-2.13,3-4,4.31-5.75,1.52-2,2.81-4.37,2.7-6.89a25.12,25.12,0,0,1-3.79,4.24,19.24,19.24,0,0,0-1.53-5,10.15,10.15,0,0,1-3.18,4.11,27.36,27.36,0,0,0-4.73-5.94l-.31,6.1-5.82-6.31A24.46,24.46,0,0,0,881,259.9l-6-3.42,3.47,6.84c1.21,2.39,1.45,3.72.6,6.16-.64,1.81-1.21,3.65-1.9,5.44a80.38,80.38,0,0,1-5.93,12.38c-5.15,8.64-12.55,16.51-22.49,19.32Z"/>
    </g>
    <g>
      <path class="cls-3" d="M838.52,486.15s17.22-9.81,23.94-1.57-6.58,17-12.28,22.45-16.56,16.22-19.8,12.8,2.43-7.71,2.43-7.71-5.39,4-8.08.61,2.54-5.93,2.54-5.93-3.27,2.3-5.7-.27,2.63-4.65,2.63-4.65-4.6,2.56-5.82-.44C816.51,496.85,838.52,486.15,838.52,486.15Z"/>
      <path class="cls-2" d="M821.29,402.93c-.28,0-1.06,4.05-1.11,4.32a83.81,83.81,0,0,0-1.65,12,102.17,102.17,0,0,0,5.67,40.56A110.72,110.72,0,0,0,829.79,473c1.91,3.8,6.59,8.61,4,12.91-1.06,1.78-2.64,3.31-3.12,5.33,1.89-1.27,2.56-1.21,4.76-1.77-1.2,2.2-1.16,4.24-1.12,7.36,1.56-1.72,4-2,5.11-3.92,1.35,2.49,2,4.87,3.84,7a24,24,0,0,1,1.23-6,48,48,0,0,0,4.82,5.45A24.16,24.16,0,0,0,850.5,489a59.16,59.16,0,0,1,9-.06,45.87,45.87,0,0,0-3.86-5,7.06,7.06,0,0,1,5.07-1c-2-.38-4.32-2.06-6.06-3a29.9,29.9,0,0,1-5.66-4c-2.58-2.41-4.26-5.62-6-8.65A90,90,0,0,1,835,448.77a72.19,72.19,0,0,1,.92-45.67Z"/>
    </g>
    <g>
      <path class="cls-3" d="M908.65,458.94s-19.76,1.44-20.76,12,15,10.49,22.71,11.8,22.79,4.25,23.57-.4-6.32-5.05-6.32-5.05,6.72.34,7-4-5.41-3.51-5.41-3.51,4,.09,4.59-3.4-4.77-2.4-4.77-2.4,5.25-.43,4.59-3.61C932.9,455.56,908.65,458.94,908.65,458.94Z"/>
      <path class="cls-2" d="M876.59,380.23c.23-.16,3.13,2.77,3.33,3a83.81,83.81,0,0,1,8.07,9.08,102.17,102.17,0,0,1,17.89,36.84,110.72,110.72,0,0,1,2.67,14c.53,4.22-.68,10.82,3.84,13,1.87.89,4,1.28,5.56,2.68-2.27,0-2.8.42-4.94,1.18,2.22,1.16,3.32,2.87,5,5.49-2.25-.56-4.44.56-6.43-.4.27,2.82,1.07,5.15.73,8a24,24,0,0,0-4.34-4.26,48,48,0,0,1-1,7.21,24.16,24.16,0,0,1-6.76-8,59.16,59.16,0,0,0-7.53,5,45.87,45.87,0,0,1,.44-6.28,7.06,7.06,0,0,0-4.75,2c1.42-1.41,2.44-4.12,3.33-5.9a29.9,29.9,0,0,0,2.46-6.5c.8-3.44.41-7,.16-10.53a90,90,0,0,0-3.6-19.85,72.19,72.19,0,0,0-26.21-37.41Z"/>
    </g>
    <ellipse class="cls-7" cx="832.21" cy="354.17" rx="48.78" ry="55.58" transform="translate(-71.66 322.17) rotate(-21.03)"/>
    <ellipse class="cls-8" cx="834.76" cy="360.79" rx="34.25" ry="39.02" transform="translate(-73.87 323.53) rotate(-21.03)"/>
    <g>
      <circle class="cls-5" cx="860.4" cy="264.39" r="12.73" transform="translate(-37.57 326.31) rotate(-21.03)"/>
      <circle class="cls-6" cx="856.28" cy="264.83" r="8.19" transform="translate(-38 324.86) rotate(-21.03)"/>
    </g>
    <g>
      <circle class="cls-5" cx="746.59" cy="313.54" r="12.73" transform="translate(-62.12 354.57) rotate(-25.69)"/>
      <circle class="cls-6" cx="749.73" cy="310.84" r="8.19" transform="translate(-60.64 355.67) rotate(-25.69)"/>
    </g>
    <ellipse class="cls-7" cx="794.95" cy="270.12" rx="59.91" ry="55.54" transform="translate(-43.99 303.21) rotate(-21.03)"/>
    <path class="cls-6" d="M839.93,251.14A26.56,26.56,0,0,0,789,255.8a26.56,26.56,0,1,0-23.21,46.69,17.92,17.92,0,0,0,1.14,6.46c5.27,13.7,26.61,18.25,47.68,10.15s33.87-25.77,28.61-39.47a18.2,18.2,0,0,0-4.54-6.71A26.49,26.49,0,0,0,839.93,251.14Z"/>
    <g>
      <circle class="cls-9" cx="778.76" cy="295.39" r="11.87" transform="translate(-54.13 299.08) rotate(-21.03)"/>
      <circle class="cls-10" cx="778.76" cy="295.39" r="7.99" transform="translate(-54.13 299.08) rotate(-21.03)"/>
      <circle class="cls-9" cx="780.18" cy="290.18" r="2.91" transform="translate(-52.17 299.24) rotate(-21.03)"/>
    </g>
    <g>
      <circle class="cls-9" cx="824.7" cy="277.73" r="11.87" transform="translate(-44.74 314.39) rotate(-21.03)"/>
      <circle class="cls-10" cx="824.7" cy="277.73" r="7.99" transform="translate(-44.74 314.39) rotate(-21.03)"/>
      <circle class="cls-9" cx="826.12" cy="272.52" r="2.91" transform="translate(-42.77 314.55) rotate(-21.03)"/>
    </g>
    <path class="cls-11" d="M805.36,298a.62.62,0,0,0,.15-1.07c-1.2-.94-3.44-2.4-4.9-1.51-2.07,1.26-1.71,4.6-.42,4.34C801.12,299.59,803.88,298.58,805.36,298Z"/>
    <path class="cls-11" d="M808.53,296.8a.62.62,0,0,1-.83-.69c.26-1.5.95-4.08,2.62-4.4,2.38-.45,4.35,2.27,3.22,2.94C812.73,295.13,810,296.22,808.53,296.8Z"/>
    <circle class="cls-12" cx="816.73" cy="305.44" r="4.34" transform="translate(-55.21 313.37) rotate(-21.03)"/>
  </g>
  <g>
    <path class="cls-13" d="M749.67,89.3c-.67.1-1.92,1.23-3,2.74-2,2.74-4.91,6.77-4.32,7.07.88.44,30.54-6.73,30.34,22.36-1.81-.9-4-1.91-6.75-3-8.93-3.46-13-5.79-18.22-2.9a7.33,7.33,0,0,0-2.13,2.36l-2.69,4.5c-.7,1.18-.73,1.9,0,1.55a11.19,11.19,0,0,1,7.33-1.05c4.35.91,15.7,8.58,23.79,8.4,2.77,5.53,7.82,8.24,13,10.57,5.54,2.48,13.81,1.81,17.4,6.86,1.31,1.84,1.87,4.61,3.32,6.26,3,3.44,10.09.25,15.54.13,3.88-.09,5.45,4.09,8.12,5.8q7.94,5.09,15.74,10.38c.66.45,2.72-1.24,4.55-3.72l5.12-7c1.71-2.33,2.6-4.52,2-5-1.86-1.48-7.39-4.85-23.78-11.44-35.68-14.34-50.44-2.7-55-31.87C776,86.79,754.8,88.5,749.67,89.3Z"/>
    <g class="cls-17">
      <g>
        <path class="cls-18" d="M806.94,145.9a13.64,13.64,0,0,1,5-1.88c5.92-.59,5.48,7.92,12.39,5.79"/>
        <path class="cls-18" d="M809.42,148.86l4.83,4.58c-1.73.52-3.47,1-4.52.57s-1.32-2.11-.08-5.06"/>
        <path class="cls-18" d="M830,148.72c4.84,1,6.54,6.17,9,10.28s6.06,7.16,13.71,3.77"/>
        <path class="cls-18" d="M747.57,93c10.71-2,17.12,2.27,23.41,6.57,2.23,1.52,4.46,3.06,5.77,5.76,2.34,4.83,1.67,13.33,4.82,17.14,1.89,2.28,5.11,2.81,7.69,4.18,4.87,2.57,7.51,8.1,12.1,11,3.36,2.16,7.75,2.92,12.13,3.68l17.5,3"/>
        <path class="cls-18" d="M745.21,119.1c10.48-3.57,13,4.65,20.7,5.36,2.45.23,5.44-.31,7.69.21,2.55.6,4.11,2.55,5.77,4.35a43.36,43.36,0,0,0,13.82,10c6.19,2.83,13.45,4.89,11.24,17.69"/>
        <path class="cls-18" d="M754.52,126.23c3.87,2.61,8.8,3.8,14.71,3.54a23.81,23.81,0,0,1,5.6,0c2.47.53,4,2.42,5.43,4.31L789.6,146"/>
        <path class="cls-18" d="M832.21,141.78c5.66,5.4,11.33,10.8,18.8,13.78,3.24,1.29,6.82,2.13,9.21,4.56"/>
      </g>
    </g>
  </g>
</svg>
