<svg id="Layer_1" data-name="Layer 1" xmlns="http://www.w3.org/2000/svg" xmlns:xlink="http://www.w3.org/1999/xlink" width="1024" height="600" viewBox="0 0 1024 600">
  <defs>
    <style>
      .cls-1, .cls-15, .cls-17 {
        fill: none;
      }

      .cls-2 {
        fill: #955333;
      }

      .cls-3 {
        fill: #a86240;
      }

      .cls-4 {
        fill: #904e2b;
      }

      .cls-5 {
        fill: #9a5a36;
      }

      .cls-6 {
        fill: #fcbd87;
      }

      .cls-7 {
        fill: #965633;
      }

      .cls-8 {
        fill: #fbbc86;
      }

      .cls-9 {
        fill: #fff;
      }

      .cls-10 {
        fill: #231f20;
      }

      .cls-11 {
        fill: #753313;
      }

      .cls-12 {
        fill: #562810;
      }

      .cls-13 {
        fill: #8b5e3c;
      }

      .cls-14 {
        clip-path: url(#clip-path);
      }

      .cls-15, .cls-17 {
        stroke: #a97c50;
        stroke-linecap: round;
        stroke-linejoin: round;
      }

      .cls-15 {
        stroke-width: 0.99px;
      }

      .cls-16 {
        clip-path: url(#clip-path-2);
      }

      .cls-17 {
        stroke-width: 1.33px;
      }

      .cls-18 {
        clip-path: url(#clip-path-3);
      }
    </style>
    <clipPath id="clip-path">
      <path id="SVGID" class="cls-1" d="M186.15,168.33c0,.67,1.05,2,2.45,3.28,2.54,2.29,6.3,5.51,6.65,4.95.52-.83-3.9-31,25-28.16-1.07,1.72-2.27,3.86-3.56,6.45-4.26,8.58-7,12.39-4.56,17.87a7.33,7.33,0,0,0,2.15,2.33l4.23,3.09c1.11.81,1.82.9,1.54.19a11.19,11.19,0,0,1-.38-7.4c1.31-4.24,10-14.85,10.54-22.92,5.76-2.25,8.92-7,11.72-12,3-5.29,3.07-13.58,8.43-16.7,1.95-1.13,4.77-1.44,6.54-2.73,3.71-2.71,1.18-10,1.55-15.46.27-3.87,4.57-5.05,6.52-7.55q5.8-7.44,11.79-14.72c.51-.62-1-2.82-3.29-4.87l-6.45-5.73c-2.16-1.92-4.26-3-4.78-2.46-1.65,1.72-5.51,6.91-13.58,22.63-17.56,34.21-7.31,50-36.78,51.82C186.06,141.85,185.83,163.14,186.15,168.33Z"/>
    </clipPath>
    <clipPath id="clip-path-2">
      <path id="SVGID-2" data-name="SVGID" class="cls-1" d="M744.76,184.93a2.75,2.75,0,0,0-1-3.29c-1.83-1-4.64-2.25-5.53-.53-1.31,2.55-17,60-54.57,97.26q4.05-7.88,9.53-19c12-24.58,18.45-36.71,19.13-44.75a1.46,1.46,0,0,0-1.26-1.73l-3.56-.22a2.08,2.08,0,0,0-2,1.92c-.28,2.43-1.31,7.21-4.82,15.13-4.85,11-24.37,46.46-30.95,64.42-9.5,13.4-17.28,28.29-24.69,43-7.89,15.69-14,33.42-23.56,48-3.48,5.32-7.55,10.18-10.92,15.59-7,11.3-8.84,23-13.27,35.12-3.16,8.62-9.9,17.57-14.36,25.78q-13.3,24.48-26.73,48.88c-1.14,2.07-.69,4.52,1,5.4l4.7,2.49c1.57.83,3.67,0,4.76-1.94,3.49-6.1,12.52-22.91,34.88-68.33,48.68-98.87,46-117,87.68-165C725.8,241,741.47,195.43,744.76,184.93Z"/>
    </clipPath>
    <clipPath id="clip-path-3">
      <path id="SVGID-3" data-name="SVGID" class="cls-1" d="M248.46,475.53a2.75,2.75,0,0,0,.49,3.4c1.66,1.3,4.26,2.92,5.39,1.35,1.67-2.32,25.72-56.81,68.36-88.12q-5.17,7.19-12.24,17.41c-15.51,22.53-23.68,33.58-25.54,41.43a1.46,1.46,0,0,0,1,1.89l3.49.74a2.08,2.08,0,0,0,2.24-1.6c.64-2.36,2.36-6.93,7-14.25,6.42-10.12,31-42.35,40.13-59.13,11.38-11.85,21.27-25.42,30.78-38.91,10.12-14.35,18.79-31,30.41-44,4.23-4.75,9-9,13.1-13.81,8.62-10.14,12.14-21.47,18.32-32.77,4.4-8.06,12.39-15.91,18-23.37q16.78-22.24,33.67-44.39c1.43-1.88,1.35-4.36-.18-5.49l-4.28-3.16c-1.43-1.06-3.63-.53-5,1.21-4.35,5.52-15.77,20.81-44.61,62.42-62.77,90.58-62.82,108.88-111.13,150.25C275.5,422.92,253.26,465.63,248.46,475.53Z"/>
    </clipPath>
  </defs>
  <title>10_monkeys_playing_passing_the_sticks</title>
  <g>
    <path class="cls-2" d="M151.94,411.93a3.38,3.38,0,0,0-2.44-6.28c-1.23.36-29.11,8.13-54.95-16.05A53.93,53.93,0,0,1,87,380.69c-8.24-12-30-39.44-53.75-36.16C15.7,347,6.45,360.34,5.3,371.75c-1.1,11,4.44,20,14.48,23.48a20.15,20.15,0,0,0,21.1-4.32c5.23-5.06,7.36-12.32,5.42-18.51-1.12-3.57-4.62-9.83-15.5-11.6a3.38,3.38,0,0,0-1.09,6.67c5.49.9,9,3.3,10.13,6.95s-.31,8.39-3.67,11.63A13.35,13.35,0,0,1,22,388.86c-7-2.47-10.78-8.61-10-16.43.89-8.86,8.21-19.26,22.2-21.2,20.6-2.85,41.38,24.77,47.26,33.3a60.64,60.64,0,0,0,8.46,10c28.78,26.94,60.17,18,61.49,17.59A3.38,3.38,0,0,0,151.94,411.93Z"/>
    <g>
      <path class="cls-3" d="M176.72,262.1c-.14-3.16,3.07-3.84,5.17-2.24,1.8,1.37,2.6,4,3,6.15a12.5,12.5,0,0,1-1.88,9.64,12.69,12.69,0,0,1-15.52,3.86,19.9,19.9,0,0,1-4.58-3.41,12.4,12.4,0,0,1-3-3.81,5,5,0,0,1,.13-4.69,3.17,3.17,0,0,1,4.25-1.05c-1.23-1.19-.45-3.54,1.14-4.18a4.42,4.42,0,0,1,4.64,1.36,3.47,3.47,0,0,1,6.63-1.64Z"/>
      <path class="cls-4" d="M168.25,338.78c-.28-.47,4-7,4.31-7.61a101.16,101.16,0,0,0,7.52-19.28,71.93,71.93,0,0,0,2.62-17.06,54.17,54.17,0,0,0-.52-9.1c-.2-1.36-.81-2.87-.88-4.2-.1-1.94,1-4.11,1.45-6a9.43,9.43,0,0,0-.2-6.32,21.48,21.48,0,0,1-1.54,4.61,16.45,16.45,0,0,0-2.9-3.42,8.68,8.68,0,0,1-1.11,4.3,23.41,23.41,0,0,0-5.72-3.07l1.81,4.9-6.71-3a20.93,20.93,0,0,0,3.58,4.55l-5.88-.66,5,4.2c1.76,1.47,2.4,2.43,2.55,4.64.11,1.64.28,3.27.34,4.92a68.75,68.75,0,0,1-.48,11.73c-1.13,8.53-4.29,17.21-11.16,22.78Z"/>
    </g>
    <g>
      <path class="cls-3" d="M79,415.12c-1.11,3-4.33,2.32-5.63,0-1.11-2-.8-4.73-.36-6.85a12.5,12.5,0,0,1,5.53-8.11,12.69,12.69,0,0,1,15.79,2.57,19.9,19.9,0,0,1,2.87,4.94,12.4,12.4,0,0,1,1.27,4.69,5,5,0,0,1-2,4.26,3.17,3.17,0,0,1-4.32-.71c.66,1.58-1,3.44-2.69,3.39a4.41,4.41,0,0,1-3.73-3.09A3.47,3.47,0,0,1,79,415.12Z"/>
      <path class="cls-4" d="M117.05,348c.07.54-6.42,4.84-7,5.29a101.16,101.16,0,0,0-14.51,14.76,71.93,71.93,0,0,0-9.13,14.64,54.18,54.18,0,0,0-3.11,8.57c-.35,1.33-.39,3-.85,4.21-.67,1.82-2.53,3.39-3.68,4.92a9.43,9.43,0,0,0-2.31,5.89,21.48,21.48,0,0,1,3.24-3.63A16.45,16.45,0,0,0,81,406.94a8.68,8.68,0,0,1,2.71-3.51,23.41,23.41,0,0,0,4,5.08l.27-5.22,5,5.4a20.93,20.93,0,0,0-1.49-5.6L96.7,406l-3-5.85c-1-2-1.24-3.18-.51-5.27.54-1.55,1-3.12,1.62-4.66a68.75,68.75,0,0,1,5.07-10.59c4.4-7.39,10.73-14.12,19.23-16.53Z"/>
    </g>
    <g>
      <path class="cls-3" d="M177.18,469s-14.84-8.2-20.49-1.08,5.82,14.51,10.76,19.06,14.34,13.69,17.08,10.73-2.17-6.57-2.17-6.57,4.65,3.38,6.91.43-2.24-5-2.24-5,2.82,1.93,4.87-.29-2.3-3.95-2.3-3.95,4,2.14,5-.44C196.13,477.9,177.18,469,177.18,469Z"/>
      <path class="cls-2" d="M191,397.62c.24,0,.95,3.45,1,3.68a71.69,71.69,0,0,1,1.54,10.27,87.39,87.39,0,0,1-4.39,34.75,94.7,94.7,0,0,1-4.63,11.28c-1.59,3.27-5.54,7.43-3.31,11.09.92,1.51,2.29,2.81,2.73,4.52-1.63-1.06-2.2-1-4.09-1.46,1.05,1.87,1,3.61,1,6.28-1.35-1.45-3.44-1.67-4.42-3.29-1.13,2.15-1.64,4.19-3.2,6a20.49,20.49,0,0,0-1.12-5.08,41,41,0,0,1-4.07,4.72,20.66,20.66,0,0,1-1.11-8.89,50.6,50.6,0,0,0-7.73.05,39.24,39.24,0,0,1,3.25-4.29,6,6,0,0,0-4.35-.77c1.68-.35,3.68-1.81,5.15-2.67a25.57,25.57,0,0,0,4.8-3.51c2.18-2.09,3.58-4.85,5-7.47a76.94,76.94,0,0,0,6.69-15.9,61.75,61.75,0,0,0-1.3-39.05Z"/>
    </g>
    <g>
      <path class="cls-3" d="M115.69,476.26s16.91-1.22,19.05,7.62S123.38,494.61,117,496.67s-18.76,6.41-20,2.57,4.72-5.06,4.72-5.06-5.64,1.12-6.46-2.51S99.4,488,99.4,488s-3.37.57-4.3-2.31,3.74-2.62,3.74-2.62-4.49.28-4.33-2.49C94.76,476.39,115.69,476.26,115.69,476.26Z"/>
      <path class="cls-2" d="M133.1,405.68c-.21-.11-2.31,2.74-2.45,2.92a71.69,71.69,0,0,0-5.71,8.68,87.39,87.39,0,0,0-10.59,33.39,94.7,94.7,0,0,0-.53,12.19c.07,3.64,1.91,9.07-1.65,11.45-1.47,1-3.26,1.59-4.37,3,1.92-.28,2.42,0,4.33.39-1.74,1.26-2.46,2.84-3.58,5.26,1.84-.75,3.82-.08,5.39-1.14.12,2.42-.27,4.49.37,6.83a20.49,20.49,0,0,1,3.15-4.14,41,41,0,0,0,1.71,6,20.66,20.66,0,0,0,4.73-7.61,50.6,50.6,0,0,1,7,3.29,39.24,39.24,0,0,0-1.15-5.26A6,6,0,0,1,134,482c-1.38-1-2.58-3.18-3.55-4.58a25.57,25.57,0,0,1-2.88-5.2c-1.1-2.81-1.21-5.91-1.44-8.89a76.94,76.94,0,0,1,.6-17.24,61.75,61.75,0,0,1,17.56-34.9Z"/>
    </g>
    <ellipse class="cls-5" cx="152.02" cy="368.88" rx="41.73" ry="47.54" transform="translate(-122.52 79.38) rotate(-21.08)"/>
    <ellipse class="cls-6" cx="154.2" cy="374.54" rx="29.29" ry="33.38" transform="translate(-124.41 80.55) rotate(-21.08)"/>
    <g>
      <g>
        <circle class="cls-7" cx="162.75" cy="280.48" r="10.89" transform="translate(-150.9 198.13) rotate(-45.16)"/>
        <circle class="cls-8" cx="159.68" cy="282.26" r="7" transform="translate(-153.07 196.48) rotate(-45.16)"/>
      </g>
      <g>
        <circle class="cls-7" cx="83.68" cy="352.14" r="10.89" transform="translate(-225.03 163.19) rotate(-45.16)"/>
        <circle class="cls-8" cx="85.44" cy="349.06" r="7" transform="translate(-222.33 163.54) rotate(-45.16)"/>
      </g>
      <ellipse class="cls-5" cx="110.76" cy="302.9" rx="51.24" ry="47.51" transform="translate(-182.13 167.88) rotate(-45.16)"/>
      <path class="cls-8" d="M80.37,331.54a22.72,22.72,0,0,1,21.23-38.23,22.72,22.72,0,1,1,44.55-2,15.33,15.33,0,0,1,4.66,3.12c8.9,8.85,5.09,27.13-8.52,40.82s-31.86,17.61-40.77,8.76a15.57,15.57,0,0,1-3.68-5.87A22.66,22.66,0,0,1,80.37,331.54Z"/>
      <g>
        <circle class="cls-9" cx="136.12" cy="298.95" r="10.16" transform="translate(-171.85 184.7) rotate(-45.16)"/>
        <circle class="cls-10" cx="136.12" cy="298.95" r="6.84" transform="translate(-171.85 184.7) rotate(-45.16)"/>
        <circle class="cls-9" cx="131.56" cy="298.26" r="2.49" transform="translate(-172.71 181.26) rotate(-45.16)"/>
      </g>
      <g>
        <circle class="cls-9" cx="106.44" cy="328.8" r="10.16" transform="translate(-201.77 172.45) rotate(-45.16)"/>
        <circle class="cls-10" cx="106.44" cy="328.8" r="6.84" transform="translate(-201.77 172.45) rotate(-45.16)"/>
        <circle class="cls-9" cx="101.88" cy="328.11" r="2.49" transform="translate(-202.63 169.01) rotate(-45.16)"/>
      </g>
      <path class="cls-11" d="M129,320.68a.53.53,0,0,1-.89-.25c-.32-1.26-.69-3.52.51-4.35,1.7-1.18,4.19.25,3.54,1.17C131.69,317.9,129.95,319.71,129,320.68Z"/>
      <path class="cls-11" d="M127,322.74a.53.53,0,0,0-.25-.89c-1.26-.31-3.52-.67-4.35.53-1.17,1.71.27,4.19,1.19,3.53C124.19,325.44,126,323.69,127,322.74Z"/>
      <circle class="cls-12" cx="130.88" cy="332.13" r="3.71" transform="translate(-196.93 190.77) rotate(-45.16)"/>
    </g>
  </g>
  <g>
    <path class="cls-13" d="M186.15,168.33c0,.67,1.05,2,2.45,3.28,2.54,2.29,6.3,5.51,6.65,4.95.52-.83-3.9-31,25-28.16-1.07,1.72-2.27,3.86-3.56,6.45-4.26,8.58-7,12.39-4.56,17.87a7.33,7.33,0,0,0,2.15,2.33l4.23,3.09c1.11.81,1.82.9,1.54.19a11.19,11.19,0,0,1-.38-7.4c1.31-4.24,10-14.85,10.54-22.92,5.76-2.25,8.92-7,11.72-12,3-5.29,3.07-13.58,8.43-16.7,1.95-1.13,4.77-1.44,6.54-2.73,3.71-2.71,1.18-10,1.55-15.46.27-3.87,4.57-5.05,6.52-7.55q5.8-7.44,11.79-14.72c.51-.62-1-2.82-3.29-4.87l-6.45-5.73c-2.16-1.92-4.26-3-4.78-2.46-1.65,1.72-5.51,6.91-13.58,22.63-17.56,34.21-7.31,50-36.78,51.82C186.06,141.85,185.83,163.14,186.15,168.33Z"/>
    <g class="cls-14">
      <g>
        <path class="cls-15" d="M247.77,116.49a13.64,13.64,0,0,1-1.41-5.19c0-6,8.39-4.73,6.91-11.8"/>
        <path class="cls-15" d="M250.94,114.29l5-4.39c.36,1.77.72,3.56.15,4.56s-2.22,1.12-5.05-.39"/>
        <path class="cls-15" d="M252.69,93.82c1.41-4.73,6.74-5.95,11.06-8s7.69-5.37,5-13.31"/>
        <path class="cls-15" d="M189.67,170.76c-1.06-10.86,3.83-16.84,8.69-22.71,1.72-2.08,3.45-4.16,6.26-5.22,5-1.88,13.42-.44,17.51-3.23,2.45-1.67,3.27-4.83,4.87-7.28,3-4.61,8.75-6.73,12.11-11,2.46-3.15,3.62-7.45,4.77-11.75l4.61-17.15"/>
        <path class="cls-15" d="M215.41,175.5c-2.6-10.77,5.82-12.53,7.24-20.13.45-2.42.19-5.44.92-7.63.83-2.49,2.92-3.85,4.86-5.35a43.36,43.36,0,0,0,11.19-12.85c3.39-5.9,6.1-12.95,18.65-9.57"/>
        <path class="cls-15" d="M223.37,166.88c3-3.61,4.59-8.42,4.87-14.33a23.81,23.81,0,0,1,.54-5.57c.76-2.41,2.78-3.72,4.79-5l12.74-8.2"/>
        <path class="cls-15" d="M246,91c5.89-5.14,11.8-10.29,15.45-17.45,1.58-3.11,2.75-6.6,5.38-8.75"/>
      </g>
    </g>
  </g>
  <g>
    <path class="cls-2" d="M449.81,418.86a5,5,0,0,0,.47-10c-1.88-.25-44.5-6.47-65.08-54.92a80.22,80.22,0,0,1-4.86-16.64c-4-21.24-17-71.71-51.34-81.55-25.4-7.28-46,5.34-54.47,20.17-8.1,14.25-6,29.83,5.55,40.66,8.77,8.25,20.48,10.8,31.31,6.83,10.16-3.73,17.43-12.33,18.52-21.91.63-5.53-.36-16.15-14.1-25.11a5,5,0,0,0-5.49,8.42c6.93,4.52,10.25,9.9,9.6,15.56s-5.47,11.22-12,13.61c-7.28,2.67-14.93,1-21-4.71-8.09-7.6-9.47-18.21-3.7-28.37,6.54-11.51,22.77-21.26,43-15.47,29.74,8.53,41.38,58.6,44.23,73.75a90.2,90.2,0,0,0,5.49,18.71c22.93,54,71,60.7,73,61A5,5,0,0,0,449.81,418.86Z"/>
    <g>
      <path class="cls-3" d="M604.91,465c1.15,4.56,6,4.15,8.32,1,2-2.73,2-6.85,1.69-10.06a18.59,18.59,0,0,0-6.8-12.93,18.88,18.88,0,0,0-23.77,1.13,29.6,29.6,0,0,0-5.07,6.82,18.44,18.44,0,0,0-2.66,6.72,7.42,7.42,0,0,0,2.19,6.62c1.86,1.56,5,1.58,6.51-.32-1.24,2.23.87,5.24,3.41,5.47s4.89-1.65,6-3.93a5.16,5.16,0,0,0,10.15-.5Z"/>
      <path class="cls-4" d="M560,359.39c-.2.79,8.67,8.23,9.4,9a150.48,150.48,0,0,1,19,24.26,107,107,0,0,1,11,23.18A80.59,80.59,0,0,1,602.57,429c.3,2,.08,4.44.55,6.37.69,2.81,3.16,5.44,4.61,7.89,1.63,2.76,2.92,5.93,2.42,9.1a32,32,0,0,0-4.17-5.91,24.48,24.48,0,0,1-2.66,6.11,12.92,12.92,0,0,0-3.42-5.65,34.82,34.82,0,0,1-6.84,6.82l.49-7.76-8.28,7.14a31.13,31.13,0,0,1,3.15-8l-8.09,3.45,5.38-8.14c1.88-2.85,2.38-4.49,1.65-7.7-.54-2.39-1-4.78-1.61-7.15A102.27,102.27,0,0,0,580,409c-5.26-11.67-13.47-22.68-25.63-27.68Z"/>
    </g>
    <g>
      <path class="cls-3" d="M406.92,261c-4.21-2.09-2.78-6.76.82-8.33,3.09-1.35,7.12-.47,10.19.5a18.59,18.59,0,0,1,11.18,9.41,18.88,18.88,0,0,1-6.18,23,29.6,29.6,0,0,1-7.74,3.5,18.44,18.44,0,0,1-7.13,1.17,7.42,7.42,0,0,1-6-3.56c-1.13-2.15-.48-5.23,1.7-6.29-2.44.74-4.94-2-4.62-4.5s2.66-4.43,5.13-5.06a5.16,5.16,0,0,1,2.66-9.81Z"/>
      <path class="cls-4" d="M500.53,327.4c-.81,0-6.19-10.22-6.79-11.1a150.48,150.48,0,0,0-19.66-23.7,107,107,0,0,0-20.3-15.72A80.59,80.59,0,0,0,441.57,271c-1.91-.72-4.32-1-6.1-1.9-2.59-1.27-4.64-4.25-6.72-6.19-2.34-2.18-5.17-4.12-8.37-4.3a32,32,0,0,1,4.88,5.34,24.48,24.48,0,0,0-6.54,1.3,12.92,12.92,0,0,1,4.79,4.55,34.82,34.82,0,0,0-8.13,5.22l7.69,1.18-8.74,6.56a31.13,31.13,0,0,0,8.51-1.37l-5.1,7.17,9.1-3.51c3.18-1.23,4.9-1.36,7.88,0,2.22,1,4.46,2,6.65,3.1a102.27,102.27,0,0,1,14.91,9.1c10.27,7.62,19.28,18,21.57,31Z"/>
    </g>
    <g>
      <circle class="cls-7" cx="617.06" cy="351.17" r="16.2" transform="translate(-9.73 684.66) rotate(-57.66)"/>
      <circle class="cls-8" cx="613.49" cy="347.29" r="10.41" transform="translate(-8.11 679.84) rotate(-57.66)"/>
    </g>
    <g>
      <path class="cls-3" d="M520.22,535.47s-25,3.35-25.44,16.88,19.81,12.18,29.75,13.25,29.27,3.64,29.91-2.32-8.41-5.93-8.41-5.93,8.56-.09,8.65-5.61-7.14-4-7.14-4,5.08-.2,5.56-4.67-6.25-2.68-6.25-2.68,6.63-1,5.56-4.93C550.76,529.31,520.22,535.47,520.22,535.47Z"/>
      <path class="cls-2" d="M499.2,436.16c.32-.15,3.36,4.14,3.56,4.42A106.64,106.64,0,0,1,511,453.65a130,130,0,0,1,14.77,50,140.87,140.87,0,0,1,.43,18.14c-.22,5.41-3.11,13.44,2.12,17.08,2.16,1.51,4.8,2.45,6.42,4.53-2.85-.47-3.6-.05-6.45.46,2.55,1.92,3.57,4.3,5.17,7.93-2.71-1.17-5.68-.23-8-1.85-.25,3.6.26,6.69-.75,10.15a30.48,30.48,0,0,0-4.56-6.26,61,61,0,0,1-2.72,8.85,30.74,30.74,0,0,1-6.82-11.45,75.27,75.27,0,0,0-10.49,4.69,58.37,58.37,0,0,1,1.86-7.79,9,9,0,0,0-6.38,1.55c2.08-1.47,3.93-4.66,5.41-6.71a38,38,0,0,0,4.44-7.65c1.72-4.15,2-8.75,2.39-13.18a114.46,114.46,0,0,0-.39-25.66A91.86,91.86,0,0,0,482.39,444Z"/>
    </g>
    <g>
      <path class="cls-3" d="M348.7,449.59s19.08,16.49,12,28.05-23.24-.66-32.14-5.21-26.48-13-23.75-18.32,10.29-.35,10.29-.35S308,449,311,444.34s8.19.53,8.19.53-4.15-2.95-2.1-7,6.7,1.18,6.7,1.18-5-4.43-1.95-7.17C326.52,427.72,348.7,449.59,348.7,449.59Z"/>
      <path class="cls-2" d="M441.21,393.62c-.11-.34-5.31.45-5.65.5a106.64,106.64,0,0,0-15.14,3.13,130,130,0,0,0-46.25,24,140.87,140.87,0,0,0-13.37,12.27c-3.74,3.9-7.53,11.56-13.78,10.32-2.58-.51-5.09-1.76-7.71-1.48,2.32,1.73,2.53,2.56,4.14,5-3.15-.51-5.57.41-9.3,1.77,2.72,1.14,4.1,3.94,6.87,4.47-2.42,2.68-5,4.45-6.79,7.58a30.48,30.48,0,0,1,7.67-1.05,61,61,0,0,0-4.49,8.1,30.74,30.74,0,0,0,13-3,75.27,75.27,0,0,1,3.9,10.81,58.37,58.37,0,0,0,4.32-6.74,9,9,0,0,1,3.3,5.67c-.38-2.52.64-6.06,1.08-8.56a38,38,0,0,1,2.43-8.5c1.79-4.11,4.93-7.49,7.84-10.87A114.46,114.46,0,0,1,392,429.46a91.86,91.86,0,0,1,55.18-18.27Z"/>
    </g>
    <ellipse class="cls-5" cx="500.31" cy="378.44" rx="70.72" ry="62.07" transform="translate(-87.07 598.7) rotate(-57.66)"/>
    <ellipse class="cls-6" cx="495.48" cy="386.07" rx="49.65" ry="43.58" transform="translate(-95.76 598.17) rotate(-57.66)"/>
    <g>
      <circle class="cls-7" cx="487.55" cy="259.39" r="16.2" transform="translate(7.58 532.55) rotate(-57.66)"/>
      <circle class="cls-8" cx="492.58" cy="260.96" r="10.41" transform="translate(8.6 537.54) rotate(-57.66)"/>
    </g>
    <ellipse class="cls-5" cx="567.78" cy="282.88" rx="70.67" ry="76.23" transform="translate(25.05 611.26) rotate(-57.66)"/>
    <path class="cls-8" d="M516.39,248a33.8,33.8,0,0,1,62.36,18.52,33.79,33.79,0,1,1,17.3,64.05,22.8,22.8,0,0,1-3,7.77c-10,15.78-37.76,16.12-62,.76s-35.83-40.61-25.84-56.39a23.16,23.16,0,0,1,7.34-7.24A33.71,33.71,0,0,1,516.39,248Z"/>
    <g>
      <circle class="cls-9" cx="581.67" cy="318.44" r="15.11" transform="translate(1.46 639.54) rotate(-57.66)"/>
      <circle class="cls-10" cx="581.67" cy="318.44" r="10.17" transform="translate(1.46 639.54) rotate(-57.66)"/>
      <circle class="cls-9" cx="581.21" cy="311.59" r="3.7" transform="translate(7.04 635.96) rotate(-57.66)"/>
    </g>
    <g>
      <circle class="cls-9" cx="528.76" cy="284.94" r="15.11" transform="translate(5.16 579.26) rotate(-57.66)"/>
      <circle class="cls-10" cx="528.76" cy="284.94" r="10.17" transform="translate(5.16 579.26) rotate(-57.66)"/>
      <circle class="cls-9" cx="528.3" cy="278.09" r="3.7" transform="translate(10.73 575.68) rotate(-57.66)"/>
    </g>
    <path class="cls-11" d="M547.83,315.09a.78.78,0,0,1,.07-1.37c1.73-.87,4.89-2.13,6.49-.66,2.26,2.09,1,6.17-.56,5.51C552.72,318.1,549.54,316.16,547.83,315.09Z"/>
    <path class="cls-11" d="M544.18,312.78a.78.78,0,0,0,1.21-.65c0-1.94-.16-5.33-2.17-6.15-2.85-1.16-6,1.75-4.75,2.86C539.36,309.64,542.48,311.69,544.18,312.78Z"/>
    <circle class="cls-12" cx="531.79" cy="321.51" r="5.52" transform="translate(-24.33 598.82) rotate(-57.66)"/>
  </g>
  <g>
    <path class="cls-13" d="M744.76,184.93a2.75,2.75,0,0,0-1-3.29c-1.83-1-4.64-2.25-5.53-.53-1.31,2.55-17,60-54.57,97.26q4.05-7.88,9.53-19c12-24.58,18.45-36.71,19.13-44.75a1.46,1.46,0,0,0-1.26-1.73l-3.56-.22a2.08,2.08,0,0,0-2,1.92c-.28,2.43-1.31,7.21-4.82,15.13-4.85,11-24.37,46.46-30.95,64.42-9.5,13.4-17.28,28.29-24.69,43-7.89,15.69-14,33.42-23.56,48-3.48,5.32-7.55,10.18-10.92,15.59-7,11.3-8.84,23-13.27,35.12-3.16,8.62-9.9,17.57-14.36,25.78q-13.3,24.48-26.73,48.88c-1.14,2.07-.69,4.52,1,5.4l4.7,2.49c1.57.83,3.67,0,4.76-1.94,3.49-6.1,12.52-22.91,34.88-68.33,48.68-98.87,46-117,87.68-165C725.8,241,741.47,195.43,744.76,184.93Z"/>
    <g class="cls-16">
      <g>
        <path class="cls-17" d="M623.1,387.19a36.41,36.41,0,0,1-1.81,8.89c-4.22,12.55-14.89,22.61-18,35.38"/>
        <path class="cls-17" d="M617.16,396.61l-10,16.82a43.24,43.24,0,0,1,3.08-9.44c1.5-3,3.84-5.7,6.63-6.74"/>
        <path class="cls-17" d="M600,442.66c-5.34,12.15-13.51,22.72-20.93,33.64S564.69,499.22,562.63,512"/>
        <path class="cls-17" d="M741.69,185c-6.38,21.45-17.38,41.47-28.26,61.19a205.78,205.78,0,0,1-12.33,20.45c-8.24,11.53-18.68,21-26.28,33.07-4.56,7.22-8,15.14-11.91,22.73-7.44,14.29-16.83,27.39-24.52,41.54-5.64,10.37-10.32,21.23-15,32.07l-18.67,43.28"/>
        <path class="cls-17" d="M709.89,213.55c-4.21,18.95-17,35.31-24.41,53.53-2.37,5.82-4.18,11.83-6.76,17.57-2.92,6.51-6.77,12.55-10.5,18.62q-13.17,21.46-24.57,44c-8.89,17.6-17.68,36.6-32.41,48.23"/>
        <path class="cls-17" d="M692.79,243.75a261.24,261.24,0,0,0-17,37.69c-1.52,4.23-2.92,8.5-4.75,12.62a135.69,135.69,0,0,1-10.16,17.8l-23.34,36.48"/>
        <path class="cls-17" d="M607.13,438.69c-11.77,19.73-23.56,39.51-33.72,60.16-4.4,9-8.51,18.1-13.67,26.62"/>
      </g>
    </g>
  </g>
  <g>
    <path class="cls-13" d="M248.46,475.53a2.75,2.75,0,0,0,.49,3.4c1.66,1.3,4.26,2.92,5.39,1.35,1.67-2.32,25.72-56.81,68.36-88.12q-5.17,7.19-12.24,17.41c-15.51,22.53-23.68,33.58-25.54,41.43a1.46,1.46,0,0,0,1,1.89l3.49.74a2.08,2.08,0,0,0,2.24-1.6c.64-2.36,2.36-6.93,7-14.25,6.42-10.12,31-42.35,40.13-59.13,11.38-11.85,21.27-25.42,30.78-38.91,10.12-14.35,18.79-31,30.41-44,4.23-4.75,9-9,13.1-13.81,8.62-10.14,12.14-21.47,18.32-32.77,4.4-8.06,12.39-15.91,18-23.37q16.78-22.24,33.67-44.39c1.43-1.88,1.35-4.36-.18-5.49l-4.28-3.16c-1.43-1.06-3.63-.53-5,1.21-4.35,5.52-15.77,20.81-44.61,62.42-62.77,90.58-62.82,108.88-111.13,150.25C275.5,422.92,253.26,465.63,248.46,475.53Z"/>
    <g class="cls-18">
      <g>
        <path class="cls-17" d="M398.7,293.49a36.41,36.41,0,0,1,3.11-8.53c6-11.79,18.07-20.16,23-32.33"/>
        <path class="cls-17" d="M406,285l12.4-15.16a43.24,43.24,0,0,1-4.44,8.88c-1.93,2.72-4.64,5.07-7.55,5.68"/>
        <path class="cls-17" d="M429.73,242c7.08-11.23,16.72-20.47,25.68-30.18S473,191.33,477,179"/>
        <path class="cls-17" d="M251.5,475.87c9.48-20.27,23.32-38.44,37-56.34a205.78,205.78,0,0,1,15.22-18.4c9.85-10.18,21.59-18,30.88-28.82,5.57-6.46,10.11-13.8,15.14-20.72,9.47-13,20.69-24.6,30.39-37.46,7.11-9.42,13.35-19.47,19.58-29.5l24.87-40"/>
        <path class="cls-17" d="M287.18,452.38c7-18.12,22-32.41,32.06-49.33,3.2-5.4,5.88-11.08,9.28-16.37,3.86-6,8.56-11.41,13.14-16.87q16.2-19.27,30.81-39.9c11.39-16.09,22.9-33.58,39.19-42.91"/>
        <path class="cls-17" d="M308.56,425a261.24,261.24,0,0,0,22.38-34.76c2.13-4,4.15-8,6.57-11.78a135.69,135.69,0,0,1,12.68-16.1l28.48-32.63"/>
        <path class="cls-17" d="M422.11,244.92c14.56-17.77,29.15-35.59,42.24-54.52,5.68-8.21,11.09-16.65,17.46-24.31"/>
      </g>
    </g>
  </g>
  <g>
    <path class="cls-2" d="M870.51,489.4a4,4,0,0,0-1-7.81c-1.49.07-35.32,1.21-58-33.4a63,63,0,0,1-6.08-12.2c-6.06-15.87-23.18-53.08-51.09-55.91-20.66-2.09-34.87,10.56-39.31,23.2-4.28,12.15-.46,23.91,10,30.67,7.93,5.15,17.34,5.49,25.17.91,7.34-4.3,11.76-12,11.27-19.53-.28-4.37-2.53-12.44-14.41-17.46a4,4,0,0,0-3.07,7.28c6,2.53,9.31,6.23,9.6,10.69s-2.67,9.44-7.38,12.2c-5.26,3.08-11.41,2.82-16.87-.72-7.32-4.75-9.87-12.76-6.82-21.42,3.45-9.82,14.65-19.62,31.07-18,24.19,2.45,40.18,39.55,44.5,50.87a70.89,70.89,0,0,0,6.85,13.71c25.26,38.55,63.39,37,65,37A4,4,0,0,0,870.51,489.4Z"/>
    <g>
      <path class="cls-3" d="M779.36,441.4c-2.91,2.28-5.73-.32-5.63-3.4.09-2.65,2.07-5.21,3.8-7.06A14.61,14.61,0,0,1,788,426.19a14.84,14.84,0,0,1,14.21,12.16,23.26,23.26,0,0,1-.14,6.68,14.5,14.5,0,0,1-1.58,5.45,5.83,5.83,0,0,1-4.55,3.05A3.71,3.71,0,0,1,792,450.2c-.3,2-3.07,2.84-4.75,1.75a5.16,5.16,0,0,1-1.85-5.35,4.06,4.06,0,0,1-6.06-5.2Z"/>
      <path class="cls-4" d="M858.12,397.46c-.25.58-9.35.93-10.17,1.06a118.27,118.27,0,0,0-23.46,5.92,84.1,84.1,0,0,0-18,9.08,63.34,63.34,0,0,0-8.31,6.67c-1.16,1.11-2.19,2.72-3.41,3.69-1.78,1.41-4.58,1.85-6.67,2.67-2.34.92-4.67,2.28-5.88,4.48a25.12,25.12,0,0,1,5.44-1.66,19.24,19.24,0,0,0-1.29,5.08,10.15,10.15,0,0,1,4.85-1.86,27.36,27.36,0,0,0,1,7.53l3.44-5.05,1.7,8.42a24.46,24.46,0,0,0,1.91-6.5l3.36,6,.59-7.65c.21-2.67.69-3.94,2.69-5.58,1.49-1.22,2.93-2.49,4.45-3.66a80.38,80.38,0,0,1,11.5-7.5c8.89-4.71,19.29-7.59,29.25-4.83Z"/>
    </g>
    <g>
      <path class="cls-3" d="M976.84,450.62c2.42,2.79,5.69.79,6.18-2.26.42-2.61-1-5.51-2.38-7.66A14.61,14.61,0,0,0,971.3,434a14.84,14.84,0,0,0-16.28,9.2,23.26,23.26,0,0,0-1.15,6.58,14.5,14.5,0,0,0,.51,5.66,5.83,5.83,0,0,0,3.88,3.87,3.71,3.71,0,0,0,4.46-2.53c-.09,2,2.47,3.37,4.33,2.63a5.16,5.16,0,0,0,2.84-4.89,4.06,4.06,0,0,0,6.95-3.94Z"/>
      <path class="cls-4" d="M908,392.37c.14.62,9,2.71,9.78,3a118.27,118.27,0,0,1,21.89,10.32,84.1,84.1,0,0,1,15.94,12.37,63.34,63.34,0,0,1,6.87,8.14c.92,1.31,1.62,3.09,2.64,4.27,1.48,1.72,4.14,2.7,6,3.9,2.12,1.36,4.15,3.13,4.91,5.53a25.12,25.12,0,0,0-5-2.67,19.24,19.24,0,0,1,.29,5.23,10.15,10.15,0,0,0-4.4-2.76,27.36,27.36,0,0,1-2.38,7.21l-2.4-5.62-3.28,7.94a24.46,24.46,0,0,1-.62-6.74l-4.46,5.29.89-7.62c.31-2.66.08-4-1.57-6-1.22-1.48-2.4-3-3.66-4.45a80.38,80.38,0,0,0-9.85-9.57c-7.82-6.33-17.48-11.15-27.78-10.36Z"/>
    </g>
    <g>
      <path class="cls-3" d="M798.33,540.89s19.15,5.08,18.17,15.67-16.65,7.54-24.5,7.39-23.18-.05-23.09-4.76,7.14-3.79,7.14-3.79-6.66-.91-6.19-5.23,6-2.45,6-2.45-3.94-.66-3.88-4.19,5.14-1.47,5.14-1.47-5.08-1.4-3.84-4.4C775.13,533.07,798.33,540.89,798.33,540.89Z"/>
      <path class="cls-2" d="M858.37,475.19c-.16-.23-3.9,1.51-4.16,1.62a83.81,83.81,0,0,0-10.72,5.71,102.17,102.17,0,0,0-29.57,28.33,110.72,110.72,0,0,0-7.37,12.21c-2,3.77-3.12,10.38-8.11,10.83-2.06.19-4.23-.2-6.15.59,2.13.79,2.48,1.37,4.22,2.83-2.49.31-4.11,1.54-6.62,3.4,2.3.26,4,2.06,6.17,1.85-1.23,2.55-2.79,4.46-3.45,7.22a24,24,0,0,1,5.55-2.49,48,48,0,0,0-1.6,7.1,24.16,24.16,0,0,0,9.12-5.15,59.16,59.16,0,0,1,5.33,7.29,45.87,45.87,0,0,0,1.77-6,7.06,7.06,0,0,1,3.75,3.55c-.84-1.82-.86-4.71-1.08-6.69a29.9,29.9,0,0,1,0-7c.44-3.5,2.06-6.74,3.51-9.93A90,90,0,0,1,829.2,513.1a72.19,72.19,0,0,1,37.57-26Z"/>
    </g>
    <g>
      <path class="cls-3" d="M957.79,545s-19.28,4.56-18.58,15.18,16.44,8,24.29,8,23.17.57,23.21-4.14-7-4-7-4,6.68-.73,6.32-5.06-5.9-2.61-5.9-2.61,4-.55,4-4.09-5.09-1.61-5.09-1.61,5.11-1.26,4-4.29C981.19,537.82,957.79,545,957.79,545Z"/>
      <path class="cls-2" d="M913.64,472.39c.2-.19,3.54,2.24,3.76,2.4a83.81,83.81,0,0,1,9.41,7.68A102.17,102.17,0,0,1,950.32,516a110.72,110.72,0,0,1,4.86,13.41c1.19,4.08,1,10.79,5.85,12.2,2,.58,4.19.63,5.92,1.77-2.25.36-2.7.86-4.69,2,2.38.79,3.74,2.31,5.84,4.62-2.31-.19-4.29,1.25-6.41.62.71,2.74,1.87,4.92,2,7.75a24,24,0,0,0-5-3.52,48,48,0,0,1,.19,7.28,24.16,24.16,0,0,1-7.95-6.82,59.16,59.16,0,0,0-6.65,6.12,45.87,45.87,0,0,1-.56-6.27,7.06,7.06,0,0,0-4.36,2.75c1.18-1.62,1.76-4.45,2.35-6.36a29.9,29.9,0,0,0,1.4-6.81c.24-3.52-.72-7-1.51-10.42a90,90,0,0,0-6.71-19,72.19,72.19,0,0,0-31.82-32.77Z"/>
    </g>
    <ellipse class="cls-5" cx="880" cy="434.51" rx="48.78" ry="55.58" transform="translate(-8.32 17.28) rotate(-1.12)"/>
    <ellipse class="cls-6" cx="880.14" cy="441.6" rx="34.25" ry="39.02" transform="translate(-8.46 17.29) rotate(-1.12)"/>
    <g>
      <circle class="cls-7" cx="937.07" cy="359.7" r="12.73" transform="translate(-6.85 18.38) rotate(-1.12)"/>
      <circle class="cls-8" cx="933.05" cy="358.7" r="8.19" transform="translate(-6.83 18.3) rotate(-1.12)"/>
    </g>
    <g>
      <circle class="cls-7" cx="814.64" cy="364.7" r="12.73" transform="translate(-21.06 51.26) rotate(-3.56)"/>
      <circle class="cls-8" cx="818.57" cy="363.38" r="8.19" transform="translate(-20.97 51.5) rotate(-3.56)"/>
    </g>
    <ellipse class="cls-5" cx="873.58" cy="342.8" rx="59.91" ry="55.54" transform="translate(-6.53 17.14) rotate(-1.12)"/>
    <path class="cls-8" d="M922.34,340.27a26.56,26.56,0,0,0-49.46-13,26.56,26.56,0,1,0-37.72,36,17.92,17.92,0,0,0-1.13,6.46c.29,14.68,18.81,26.22,41.38,25.78s40.62-12.7,40.34-27.37a18.2,18.2,0,0,0-2-7.86A26.49,26.49,0,0,0,922.34,340.27Z"/>
    <g>
      <circle class="cls-9" cx="849.76" cy="361.04" r="11.87" transform="translate(-6.89 16.68) rotate(-1.12)"/>
      <circle class="cls-10" cx="849.76" cy="361.04" r="7.99" transform="translate(-6.89 16.68) rotate(-1.12)"/>
      <circle class="cls-9" cx="852.86" cy="356.62" r="2.91" transform="translate(-6.81 16.74) rotate(-1.12)"/>
    </g>
    <g>
      <circle class="cls-9" cx="898.97" cy="360.08" r="11.87" transform="translate(-6.87 17.64) rotate(-1.12)"/>
      <circle class="cls-10" cx="898.97" cy="360.08" r="7.99" transform="translate(-6.87 17.64) rotate(-1.12)"/>
      <circle class="cls-9" cx="902.07" cy="355.66" r="2.91" transform="translate(-6.78 17.7) rotate(-1.12)"/>
    </g>
    <path class="cls-11" d="M873.87,372.58a.62.62,0,0,0,.51-1c-.81-1.29-2.42-3.42-4.09-3.09-2.37.48-3.17,3.74-1.87,3.93C869.35,372.61,872.28,372.59,873.87,372.58Z"/>
    <path class="cls-11" d="M877.26,372.51a.62.62,0,0,1-.55-.93c.76-1.32,2.28-3.52,4-3.24,2.39.39,3.32,3.62,2,3.86C881.78,372.36,878.85,372.47,877.26,372.51Z"/>
    <circle class="cls-12" cx="882.03" cy="383.42" r="4.34" transform="translate(-7.33 17.31) rotate(-1.12)"/>
  </g>
</svg>
