<svg id="Layer_1" data-name="Layer 1" xmlns="http://www.w3.org/2000/svg" xmlns:xlink="http://www.w3.org/1999/xlink" width="1024" height="600" viewBox="0 0 1024 600">
  <defs>
    <style>
      .cls-1, .cls-15, .cls-17 {
        fill: none;
      }

      .cls-2 {
        fill: #955333;
      }

      .cls-3 {
        fill: #a86240;
      }

      .cls-4 {
        fill: #904e2b;
      }

      .cls-5 {
        fill: #965633;
      }

      .cls-6 {
        fill: #fbbc86;
      }

      .cls-7 {
        fill: #9a5a36;
      }

      .cls-8 {
        fill: #fcbd87;
      }

      .cls-9 {
        fill: #fff;
      }

      .cls-10 {
        fill: #231f20;
      }

      .cls-11 {
        fill: #753313;
      }

      .cls-12 {
        fill: #562810;
      }

      .cls-13 {
        fill: #8b5e3c;
      }

      .cls-14 {
        clip-path: url(#clip-path);
      }

      .cls-15, .cls-17 {
        stroke: #a97c50;
        stroke-linecap: round;
        stroke-linejoin: round;
      }

      .cls-15 {
        stroke-width: 0.99px;
      }

      .cls-16 {
        clip-path: url(#clip-path-2);
      }

      .cls-17 {
        stroke-width: 1.33px;
      }

      .cls-18 {
        clip-path: url(#clip-path-3);
      }
    </style>
    <clipPath id="clip-path">
      <path id="SVGID" class="cls-1" d="M183,260.39c-.41-.54-2-1.1-3.85-1.38-3.39-.49-8.29-1.1-8.27-.43,0,1,20.44,23.68-5.25,37.32-.07-2-.24-4.47-.61-7.35-1.2-9.5-1.08-14.17-6.1-17.41a7.33,7.33,0,0,0-3.08-.75l-5.24-.23c-1.37-.06-2,.26-1.39.7a11.19,11.19,0,0,1,4.41,6c1.26,4.26-.09,17.9,3.92,24.92-3.55,5.06-3.53,10.8-3.1,16.49.46,6.06,5,13,2.24,18.57-1,2-3.17,3.83-3.93,5.9-1.58,4.31,4.58,9,7.27,13.73,1.92,3.37-1,6.74-1.25,9.9q-.71,9.41-1.66,18.78c-.08.79,2.38,1.81,5.43,2.23l8.55,1.2c2.86.4,5.21.14,5.34-.6.42-2.34.76-8.81-1.23-26.36-4.34-38.21-21.6-45.66,1.91-63.52C197.7,282.38,186.1,264.52,183,260.39Z"/>
    </clipPath>
    <clipPath id="clip-path-2">
      <path id="SVGID-2" data-name="SVGID" class="cls-1" d="M332.72,146a2.75,2.75,0,0,1,2.39-2.47c2.11-.08,5.16.14,5.15,2.07,0,2.86-12.54,61.09,3.58,111.47,0-5.91.12-13,.32-21.28.67-27.35.55-41.08,3.66-48.53a1.46,1.46,0,0,1,1.92-.95l3.26,1.45a2.08,2.08,0,0,1,.87,2.61c-.87,2.29-2.16,7-2.7,15.65-.75,12,.2,52.46-2.24,71.43,2.26,16.28,2.29,33.07,2.07,49.57-.23,17.55-3,36.11-1.24,53.5.64,6.33,2,12.52,2.5,18.87,1,13.27-2.78,24.51-4.42,37.28-1.17,9.1.68,20.16.86,29.5q.52,27.85,1.19,55.7c.06,2.36-1.47,4.32-3.37,4.34l-5.32,0c-1.78,0-3.25-1.7-3.34-3.91-.28-7-.55-26.1.55-76.72,2.38-110.17,13.08-125-1.72-186.87C323.71,204.42,330.79,156.79,332.72,146Z"/>
    </clipPath>
    <clipPath id="clip-path-3">
      <path id="SVGID-3" data-name="SVGID" class="cls-1" d="M633.13,546.72a2.75,2.75,0,0,1-2.17,2.67c-2.09.26-5.15.3-5.31-1.62-.24-2.85,7.24-61.94-13.17-110.74.48,5.89,1,13,1.51,21.23,1.68,27.3,3,41,.53,48.67A1.46,1.46,0,0,1,612.7,508l-3.38-1.16a2.08,2.08,0,0,1-1.09-2.53c.67-2.36,1.55-7.16,1.34-15.82-.28-12-4.72-52.25-3.92-71.36-3.65-16-5.13-32.75-6.33-49.21-1.28-17.51-.13-36.23-3.37-53.41-1.18-6.25-3.08-12.3-4.11-18.59-2.16-13.13.66-24.66,1.19-37.53.38-9.17-2.42-20-3.4-29.31q-2.91-27.7-6-55.39c-.26-2.35,1.09-4.44,3-4.61l5.29-.5c1.77-.17,3.38,1.42,3.66,3.61.88,7,2.79,26,6.06,76.48,7.11,110-2.27,125.69,17.8,186C637.07,487.7,634.12,535.76,633.13,546.72Z"/>
    </clipPath>
  </defs>
  <title>10_monkeys_playing_passing_the_sticks</title>
  <g>
    <path class="cls-2" d="M125.8,475.78a3.38,3.38,0,0,0-6.67-.93c-.28,1.25-7.07,29.39-40.77,40.18a53.93,53.93,0,0,1-11.44,2.23c-14.47,1.37-49,7-57.75,29.34-6.44,16.56.74,31.15,10.14,37.7,9,6.3,19.6,5.84,27.56-1.21a20.15,20.15,0,0,0,6.5-20.54c-1.87-7-7.18-12.43-13.53-13.75-3.66-.76-10.83-.75-17.68,7.89a3.38,3.38,0,0,0,5.3,4.2c3.45-4.36,7.26-6.25,11-5.47s7.17,4.36,8.37,8.87A13.35,13.35,0,0,1,42.39,578c-5.59,4.95-12.77,5.22-19.22.73-7.3-5.09-12.83-16.55-7.71-29.71C23,529.66,57.24,525,67.55,524a60.64,60.64,0,0,0,12.86-2.52c37.54-12,45-43.8,45.31-45.14A3.38,3.38,0,0,0,125.8,475.78Z"/>
    <g>
      <path class="cls-3" d="M172.84,355.84c2.87-1.32,2-4.48-.37-5.62-2-1-4.77-.47-6.86.11a12.5,12.5,0,0,0-7.71,6.08A12.69,12.69,0,0,0,161.55,372a19.9,19.9,0,0,0,5.13,2.52,12.4,12.4,0,0,0,4.77.94,5,5,0,0,0,4.11-2.26,3.17,3.17,0,0,0-1-4.27c1.62.55,3.36-1.22,3.2-2.92a4.42,4.42,0,0,0-3.34-3.51,3.47,3.47,0,0,0-1.57-6.65Z"/>
      <path class="cls-4" d="M108.51,398.41c.54,0,4.38-6.74,4.8-7.31A101.16,101.16,0,0,1,127,375.6a71.93,71.93,0,0,1,14-10.12,54.17,54.17,0,0,1,8.33-3.69c1.3-.44,2.93-.59,4.14-1.14,1.77-.8,3.21-2.75,4.65-4a9.43,9.43,0,0,1,5.72-2.71,21.48,21.48,0,0,0-3.4,3.48,16.45,16.45,0,0,1,4.37,1,8.68,8.68,0,0,0-3.32,3,23.41,23.41,0,0,1,5.35,3.68l-5.19.63,5.73,4.6a20.93,20.93,0,0,1-5.69-1.1L165,374.1l-6-2.56c-2.11-.89-3.26-1-5.29-.15-1.51.65-3,1.25-4.53,1.94a68.75,68.75,0,0,0-10.22,5.79c-7.07,4.9-13.35,11.68-15.16,20.33Z"/>
    </g>
    <g>
      <path class="cls-3" d="M52,501.41c-.34,3.14-3.62,3.32-5.45,1.42-1.57-1.63-2-4.38-2.05-6.55A12.5,12.5,0,0,1,47.84,487a12.69,12.69,0,0,1,15.93-1.44,19.9,19.9,0,0,1,4,4.07,12.4,12.4,0,0,1,2.39,4.23,5,5,0,0,1-.85,4.61,3.17,3.17,0,0,1-4.37.39c1,1.37-.1,3.57-1.77,4a4.42,4.42,0,0,1-4.38-2.06,3.47,3.47,0,0,1-6.81.6Z"/>
      <path class="cls-4" d="M72.14,426.94c.21.5-5,6.28-5.43,6.86a101.16,101.16,0,0,0-10.39,17.9,71.93,71.93,0,0,0-5.21,16.45,54.17,54.17,0,0,0-.88,9.07c0,1.37.36,3,.22,4.29-.2,1.93-1.6,3.91-2.34,5.68a9.43,9.43,0,0,0-.77,6.28,21.48,21.48,0,0,1,2.23-4.32A16.45,16.45,0,0,0,51.92,493a8.68,8.68,0,0,1,1.76-4.08,23.41,23.41,0,0,0,5.18,3.91l-1-5.12,6.17,4a20.93,20.93,0,0,0-2.84-5l5.71,1.55-4.33-4.93c-1.51-1.72-2-2.77-1.81-5,.14-1.64.23-3.28.41-4.91a68.75,68.75,0,0,1,2.28-11.52c2.42-8.25,6.88-16.35,14.52-20.79Z"/>
    </g>
    <g>
      <circle class="cls-5" cx="115.76" cy="357.09" r="10.89" transform="translate(-203.2 159.16) rotate(-40.22)"/>
      <circle class="cls-6" cx="112.55" cy="358.6" r="7" transform="translate(-204.94 157.45) rotate(-40.22)"/>
    </g>
    <g>
      <path class="cls-3" d="M207.7,493.69s-13.89,9.71-10,17.93,15.59,1.16,21.85-1.27,18.6-6.86,17.15-10.62-6.85-.94-6.85-.94,5.08-2.69,3.43-6-5.51-.21-5.51-.21,3-1.69,1.88-4.51-4.56.33-4.56.33,3.67-2.62,1.8-4.66C224,480.59,207.7,493.69,207.7,493.69Z"/>
      <path class="cls-2" d="M149.69,449.89c.1-.22,3.52.67,3.75.72a71.69,71.69,0,0,1,9.91,3.13A87.39,87.39,0,0,1,192.62,473a94.7,94.7,0,0,1,8.09,9.12c2.23,2.87,4.24,8.25,8.5,7.85,1.76-.16,3.53-.82,5.26-.46-1.67,1-1.87,1.54-3.11,3,2.14-.12,3.7.66,6.1,1.83-1.9.58-3,2.35-4.9,2.52,1.43,2,3,3.32,4,5.54a20.49,20.49,0,0,0-5.06-1.23A41,41,0,0,1,214,506.9,20.66,20.66,0,0,1,205.5,504a50.6,50.6,0,0,0-3.35,7,39.24,39.24,0,0,1-2.43-4.81,6,6,0,0,0-2.6,3.57c.43-1.66,0-4.1-.14-5.8a25.57,25.57,0,0,0-1-5.85c-.92-2.87-2.78-5.35-4.49-7.8a76.94,76.94,0,0,0-11.34-13,61.75,61.75,0,0,0-35.64-16Z"/>
    </g>
    <g>
      <path class="cls-3" d="M89.09,542.57s16.85,1.84,17.37,10.92S93.35,562,86.69,562.89s-19.61,2.93-20.14-1.07,5.56-4.12,5.56-4.12-5.75.08-5.9-3.63,4.73-2.84,4.73-2.84-3.42,0-3.82-3,4.15-1.9,4.15-1.9-4.47-.53-3.82-3.22C68.46,538.94,89.09,542.57,89.09,542.57Z"/>
      <path class="cls-2" d="M103.18,475.38c-.22-.1-2.26,2.78-2.4,3a71.69,71.69,0,0,0-5.54,8.79,87.39,87.39,0,0,0-9.93,33.59A94.7,94.7,0,0,0,85,532.92c.15,3.63,2.09,9-1.42,11.48-1.45,1-3.23,1.65-4.32,3,1.92-.32,2.42,0,4.34.31-1.71,1.29-2.4,2.89-3.48,5.33,1.82-.78,3.82-.15,5.37-1.24.17,2.42-.18,4.5.5,6.82a20.49,20.49,0,0,1,3.07-4.21,41,41,0,0,0,1.83,6,20.66,20.66,0,0,0,4.58-7.7,50.6,50.6,0,0,1,7.05,3.15,39.24,39.24,0,0,0-1.25-5.24,6,6,0,0,1,4.29,1c-1.4-1-2.64-3.13-3.64-4.51A25.57,25.57,0,0,1,99,542c-1.16-2.79-1.33-5.88-1.61-8.86a76.94,76.94,0,0,1,.26-17.25,61.75,61.75,0,0,1,16.88-35.24Z"/>
    </g>
    <ellipse class="cls-7" cx="109.72" cy="437.46" rx="41.73" ry="47.54" transform="translate(-256.52 174.26) rotate(-40.22)"/>
    <ellipse class="cls-8" cx="113.64" cy="442.09" rx="29.29" ry="33.38" transform="translate(-258.59 177.89) rotate(-40.22)"/>
    <g>
      <circle class="cls-5" cx="30.8" cy="421.66" r="10.89" transform="translate(-264.98 119.57) rotate(-40.22)"/>
      <circle class="cls-6" cx="32.83" cy="418.74" r="7" transform="matrix(0.76, -0.65, 0.65, 0.76, -262.62, 120.19)"/>
    </g>
    <ellipse class="cls-7" cx="62.03" cy="374.93" rx="51.24" ry="47.51" transform="translate(-227.43 128.69) rotate(-40.22)"/>
    <path class="cls-6" d="M29.29,400.85a22.72,22.72,0,0,1,24.44-36.26A22.72,22.72,0,1,1,98.3,366.4a15.33,15.33,0,0,1,4.37,3.51c8.11,9.59,2.73,27.47-12,39.93S57.4,424.64,49.29,415a15.57,15.57,0,0,1-3.16-6.17A22.66,22.66,0,0,1,29.29,400.85Z"/>
    <g>
      <circle class="cls-9" cx="87.64" cy="373.19" r="10.16" transform="translate(-220.25 144.81) rotate(-40.22)"/>
      <circle class="cls-10" cx="87.64" cy="373.19" r="6.84" transform="translate(-220.25 144.81) rotate(-40.22)"/>
      <circle class="cls-9" cx="83.15" cy="372.11" r="2.49" transform="translate(-220.61 141.66) rotate(-40.22)"/>
    </g>
    <g>
      <circle class="cls-9" cx="55.49" cy="400.37" r="10.16" transform="translate(-245.4 130.48) rotate(-40.22)"/>
      <circle class="cls-10" cx="55.49" cy="400.37" r="6.84" transform="translate(-245.4 130.48) rotate(-40.22)"/>
      <circle class="cls-9" cx="51.01" cy="399.29" r="2.49" transform="translate(-245.76 127.33) rotate(-40.22)"/>
    </g>
    <path class="cls-11" d="M78.67,394.22a.53.53,0,0,1-.86-.32c-.21-1.29-.38-3.57.88-4.29,1.79-1,4.15.61,3.42,1.47C81.59,391.69,79.7,393.34,78.67,394.22Z"/>
    <path class="cls-11" d="M76.45,396.1a.53.53,0,0,0-.18-.91c-1.23-.42-3.45-1-4.38.16-1.32,1.6-.09,4.2.88,3.62C73.47,398.55,75.41,397,76.45,396.1Z"/>
    <circle class="cls-12" cx="79.56" cy="405.8" r="3.71" transform="translate(-243.21 147.3) rotate(-40.22)"/>
  </g>
  <g>
    <path class="cls-13" d="M183,260.39c-.41-.54-2-1.1-3.85-1.38-3.39-.49-8.29-1.1-8.27-.43,0,1,20.44,23.68-5.25,37.32-.07-2-.24-4.47-.61-7.35-1.2-9.5-1.08-14.17-6.1-17.41a7.33,7.33,0,0,0-3.08-.75l-5.24-.23c-1.37-.06-2,.26-1.39.7a11.19,11.19,0,0,1,4.41,6c1.26,4.26-.09,17.9,3.92,24.92-3.55,5.06-3.53,10.8-3.1,16.49.46,6.06,5,13,2.24,18.57-1,2-3.17,3.83-3.93,5.9-1.58,4.31,4.58,9,7.27,13.73,1.92,3.37-1,6.74-1.25,9.9q-.71,9.41-1.66,18.78c-.08.79,2.38,1.81,5.43,2.23l8.55,1.2c2.86.4,5.21.14,5.34-.6.42-2.34.76-8.81-1.23-26.36-4.34-38.21-21.6-45.66,1.91-63.52C197.7,282.38,186.1,264.52,183,260.39Z"/>
    <g class="cls-14">
      <g>
        <path class="cls-15" d="M160.39,337.68a13.64,13.64,0,0,1,4,3.54c3.34,4.93-4.36,8.59.79,13.65"/>
        <path class="cls-15" d="M159,341.27l-1.74,6.43c-1.28-1.27-2.57-2.56-2.65-3.71s1.23-2.16,4.42-2.47"/>
        <path class="cls-15" d="M168.85,359.29c1.45,4.72-2.32,8.69-4.75,12.83s-3.42,8.73,3.2,13.85"/>
        <path class="cls-15" d="M178.68,260.31c6.89,8.45,6.14,16.14,5.34,23.72-.28,2.68-.57,5.38-2.33,7.81-3.14,4.35-10.93,7.8-12.78,12.39-1.11,2.75,0,5.83,0,8.76.05,5.51-3.56,10.45-4,15.89-.3,4,1.12,8.21,2.53,12.42l5.66,16.83"/>
        <path class="cls-15" d="M154.63,270.63c8.13,7.52,2.1,13.66,5.13,20.76,1,2.27,2.86,4.64,3.47,6.86.69,2.53-.3,4.83-1.08,7.14a43.36,43.36,0,0,0-2.19,16.9c.45,6.79,2.09,14.16-10.22,18.3"/>
        <path class="cls-15" d="M152.78,282.22c-.46,4.64.84,9.55,3.88,14.63a23.81,23.81,0,0,1,2.64,4.94c.71,2.43-.25,4.64-1.21,6.83L152,322.49"/>
        <path class="cls-15" d="M176,358c-2.06,7.54-4.12,15.1-3.19,23.09.4,3.46,1.37,7,.36,10.27"/>
      </g>
    </g>
  </g>
  <g>
    <path class="cls-2" d="M486.66,444.38a5,5,0,0,1,5.27-8.52c1.7.86,40.37,19.81,84.72-8.54a80.22,80.22,0,0,0,13.41-11c15.31-15.26,54.57-49.54,88.44-38.27,25.07,8.34,35,30.43,33.54,47.42-1.37,16.33-11.93,28-27.56,30.41-11.9,1.85-23-2.66-29.69-12.06-6.28-8.82-7.42-20-2.9-28.54,2.61-4.92,9.42-13.12,25.82-12.75a5,5,0,0,1-.22,10c-8.27-.18-14,2.38-16.71,7.41S659,432.34,663,438c4.5,6.32,11.78,9.22,20,8,11-1.7,18.11-9.67,19.08-21.31,1.11-13.19-6.77-30.41-26.7-37-29.36-9.77-67.25,25-78.17,35.85a90.2,90.2,0,0,1-15.1,12.34c-49.42,31.58-92.89,10-94.72,9A5,5,0,0,1,486.66,444.38Z"/>
    <g>
      <path class="cls-3" d="M332.62,394.82c-3.52,3.11-7.3,0-7.41-3.89-.09-3.37,2.24-6.78,4.29-9.26a18.59,18.59,0,0,1,12.92-6.82,18.88,18.88,0,0,1,19,14.36,29.6,29.6,0,0,1,.33,8.49,18.44,18.44,0,0,1-1.6,7,7.42,7.42,0,0,1-5.55,4.22c-2.41.24-5-1.52-5.19-3.94-.23,2.54-3.68,3.84-5.9,2.59s-3.11-4.13-2.76-6.65a5.16,5.16,0,0,1-8.09-6.15Z"/>
      <path class="cls-4" d="M429.31,333c-.28.76-11.8,1.89-12.84,2.11a150.48,150.48,0,0,0-29.35,9.31,107,107,0,0,0-22.2,12.9,80.59,80.59,0,0,0-10,9.1c-1.39,1.5-2.57,3.62-4.05,4.94-2.15,1.92-5.68,2.7-8.26,3.9-2.9,1.35-5.76,3.25-7.13,6.14a32,32,0,0,1,6.78-2.52,24.48,24.48,0,0,0-1.26,6.55,12.92,12.92,0,0,1,6-2.73,34.82,34.82,0,0,0,1.78,9.49l4-6.68,2.8,10.57a31.13,31.13,0,0,0,1.93-8.4l4.73,7.42.17-9.76c.06-3.41.58-5.05,3-7.29,1.79-1.66,3.53-3.38,5.37-5a102.27,102.27,0,0,1,14-10.4c10.93-6.65,23.93-11.1,36.79-8.35Z"/>
    </g>
    <g>
      <path class="cls-3" d="M611.24,338.4c4.66.65,6.11-4,4-7.34-1.78-2.86-5.61-4.41-8.69-5.35A18.59,18.59,0,0,0,592,327.16a18.88,18.88,0,0,0-7.89,22.45,29.6,29.6,0,0,0,4.41,7.26,18.44,18.44,0,0,0,5.22,5,7.42,7.42,0,0,0,7,.46c2.15-1.13,3.35-4,2.15-6.16,1.6,2,5.19,1.17,6.35-1.1s.31-5.15-1.37-7.07a5.16,5.16,0,0,0,3.35-9.6Z"/>
      <path class="cls-4" d="M496.5,340.26c.65.48,10.89-4.94,11.87-5.33A150.48,150.48,0,0,1,538,326.49a107,107,0,0,1,25.63-1.5,80.59,80.59,0,0,1,13.4,2c2,.48,4.14,1.6,6.11,1.88,2.86.42,6.23-.89,9-1.31,3.17-.47,6.6-.48,9.34,1.18a32,32,0,0,0-7,1.64,24.48,24.48,0,0,1,4.66,4.77,12.92,12.92,0,0,0-6.52,1,34.82,34.82,0,0,1,3.75,8.9l-7-3.37,3.5,10.35a31.13,31.13,0,0,1-6.24-5.94l.16,8.8-5.52-8c-1.93-2.81-3.27-3.89-6.52-4.42-2.41-.4-4.81-.87-7.24-1.2A102.27,102.27,0,0,0,550,340.4c-12.79.48-26.08,4-35.29,13.35Z"/>
    </g>
    <g>
      <circle class="cls-5" cx="386.92" cy="294.02" r="16.2" transform="translate(79.13 670.07) rotate(-87.93)"/>
      <circle class="cls-6" cx="392.06" cy="292.84" r="10.41" transform="translate(85.27 674.07) rotate(-87.93)"/>
    </g>
    <g>
      <path class="cls-3" d="M395.44,536.75s25.2.89,27,14.31-18.52,14.06-28.31,16.09-28.77,6.48-30,.61S371.9,561,371.9,561s-8.52.75-9.15-4.74,6.71-4.72,6.71-4.72-5.08.3-6-4.1,6-3.28,6-3.28-6.69-.3-6-4.37C364.45,533.61,395.44,536.75,395.44,536.75Z"/>
      <path class="cls-2" d="M432.45,435.15c-.3-.19-3.85,3.68-4.1,3.93A106.64,106.64,0,0,0,418.53,451a130,130,0,0,0-21,47.69,140.87,140.87,0,0,0-2.73,17.94c-.47,5.39,1.38,13.73-4.27,16.68-2.33,1.22-5.07,1.83-6.94,3.68,2.89-.11,3.58.41,6.34,1.27-2.77,1.58-4.09,3.81-6.14,7.21,2.84-.81,5.67.5,8.15-.82-.2,3.6-1.11,6.6-.54,10.16a30.48,30.48,0,0,1,5.32-5.63,61,61,0,0,0,1.58,9.13,30.74,30.74,0,0,0,8.22-10.49,75.27,75.27,0,0,1,9.82,6,58.37,58.37,0,0,0-.86-8,9,9,0,0,1,6.13,2.35c-1.87-1.73-3.3-5.12-4.52-7.35a38,38,0,0,1-3.44-8.15c-1.18-4.33-.85-8.93-.7-13.38a114.46,114.46,0,0,1,3.64-25.41,91.86,91.86,0,0,1,31.55-48.82Z"/>
    </g>
    <g>
      <path class="cls-3" d="M539.62,533.79s-25.21-.57-27.75,12.72,17.67,15.11,27.33,17.71,28.35,8.15,29.91,2.35-7.39-7.16-7.39-7.16,8.47,1.24,9.41-4.2-6.43-5.11-6.43-5.11,5.05.59,6.22-3.75-5.76-3.62-5.76-3.62,6.7.09,6.26-4C570.74,532.45,539.62,533.79,539.62,533.79Z"/>
      <path class="cls-2" d="M508.58,430.2c.31-.17,3.63,3.9,3.86,4.16a106.64,106.64,0,0,1,9.12,12.48,130,130,0,0,1,18.18,48.83,140.87,140.87,0,0,1,1.68,18.07c.16,5.41-2.18,13.62,3.29,16.9,2.26,1.35,5,2.12,6.72,4.08-2.88-.28-3.6.2-6.4.9,2.68,1.74,3.86,4,5.71,7.56-2.78-1-5.69.17-8.09-1.29,0,3.61.72,6.65,0,10.18a30.48,30.48,0,0,0-5-5.93,61,61,0,0,1-2.11,9,30.74,30.74,0,0,1-7.59-11,75.27,75.27,0,0,0-10.15,5.4,58.37,58.37,0,0,1,1.32-7.9,9,9,0,0,0-6.26,2c2-1.61,3.6-4.92,4.94-7.07a38,38,0,0,0,3.9-7.94c1.43-4.25,1.37-8.86,1.48-13.31A114.46,114.46,0,0,0,521,489.79a91.86,91.86,0,0,0-28.65-50.57Z"/>
    </g>
    <ellipse class="cls-7" cx="467.83" cy="382.49" rx="70.72" ry="62.07" transform="translate(68.7 836.22) rotate(-87.93)"/>
    <ellipse class="cls-8" cx="467.51" cy="391.52" rx="49.65" ry="43.58" transform="translate(59.37 844.59) rotate(-87.93)"/>
    <g>
      <circle class="cls-5" cx="545.64" cy="291.49" r="16.2" transform="translate(234.65 826.25) rotate(-87.93)"/>
      <circle class="cls-6" cx="540.59" cy="289.94" r="10.41" transform="translate(231.34 819.71) rotate(-87.93)"/>
    </g>
    <ellipse class="cls-7" cx="466.17" cy="265.53" rx="70.67" ry="76.23" transform="translate(183.99 721.81) rotate(-87.93)"/>
    <path class="cls-6" d="M528.29,265.76a33.8,33.8,0,0,0-61.92-20,33.79,33.79,0,1,0-50.47,43.07A22.8,22.8,0,0,0,414,297c-.67,18.67,22,34.64,50.74,35.68s52.51-13.26,53.18-31.92a23.16,23.16,0,0,0-2-10.12A33.71,33.71,0,0,0,528.29,265.76Z"/>
    <g>
      <circle class="cls-9" cx="434.61" cy="287.02" r="15.11" transform="translate(132.1 710.99) rotate(-87.93)"/>
      <circle class="cls-10" cx="434.61" cy="287.02" r="10.17" transform="translate(132.1 710.99) rotate(-87.93)"/>
      <circle class="cls-9" cx="438.87" cy="281.63" r="3.7" transform="translate(141.59 710.04) rotate(-87.93)"/>
    </g>
    <g>
      <circle class="cls-9" cx="497.2" cy="289.28" r="15.11" transform="translate(190.17 775.71) rotate(-87.93)"/>
      <circle class="cls-10" cx="497.2" cy="289.28" r="10.17" transform="translate(190.17 775.71) rotate(-87.93)"/>
      <circle class="cls-9" cx="501.45" cy="283.89" r="3.7" transform="translate(199.65 774.76) rotate(-87.93)"/>
    </g>
    <path class="cls-11" d="M464.43,303.38a.78.78,0,0,0,.71-1.17c-.93-1.7-2.83-4.52-5-4.21-3,.44-4.3,4.53-2.66,4.86C458.69,303.1,462.41,303.29,464.43,303.38Z"/>
    <path class="cls-11" d="M468.75,303.53a.78.78,0,0,1-.63-1.22c1.05-1.63,3.15-4.31,5.27-3.84,3,.66,4,4.83,2.3,5C474.49,303.67,470.77,303.59,468.75,303.53Z"/>
    <circle class="cls-12" cx="474.03" cy="317.73" r="5.52" transform="translate(139.4 779.99) rotate(-87.93)"/>
  </g>
  <g>
    <path class="cls-13" d="M332.72,146a2.75,2.75,0,0,1,2.39-2.47c2.11-.08,5.16.14,5.15,2.07,0,2.86-12.54,61.09,3.58,111.47,0-5.91.12-13,.32-21.28.67-27.35.55-41.08,3.66-48.53a1.46,1.46,0,0,1,1.92-.95l3.26,1.45a2.08,2.08,0,0,1,.87,2.61c-.87,2.29-2.16,7-2.7,15.65-.75,12,.2,52.46-2.24,71.43,2.26,16.28,2.29,33.07,2.07,49.57-.23,17.55-3,36.11-1.24,53.5.64,6.33,2,12.52,2.5,18.87,1,13.27-2.78,24.51-4.42,37.28-1.17,9.1.68,20.16.86,29.5q.52,27.85,1.19,55.7c.06,2.36-1.47,4.32-3.37,4.34l-5.32,0c-1.78,0-3.25-1.7-3.34-3.91-.28-7-.55-26.1.55-76.72,2.38-110.17,13.08-125-1.72-186.87C323.71,204.42,330.79,156.79,332.72,146Z"/>
    <g class="cls-16">
      <g>
        <path class="cls-17" d="M347.43,381.52a36.41,36.41,0,0,0-2.49,8.73c-2,13.09,2.79,26.92-.38,39.67"/>
        <path class="cls-17" d="M348.35,392.63l1.14,19.55a43.24,43.24,0,0,0,1.62-9.79c0-3.34-.78-6.83-2.78-9"/>
        <path class="cls-17" d="M342.34,441.39c-.86,13.25,1.52,26.39,3.07,39.5s2.21,27-1.88,39.29"/>
        <path class="cls-17" d="M335.39,147.46c-4.23,22-3.69,44.81-3.13,67.33a205.78,205.78,0,0,0,1.51,23.83c2,14,6.88,27.28,8.07,41.46.72,8.5.08,17.1.09,25.66,0,16.11,2.3,32.07,2.61,48.16.22,11.8-.63,23.6-1.48,35.37l-3.39,47"/>
        <path class="cls-17" d="M350.47,187.43c-5,18.75-1.19,39.17-3,58.76-.58,6.25-1.74,12.43-2.1,18.7-.41,7.13.23,14.26.73,21.37,1.2,16.74,1.7,33.57,1.51,50.39-.22,19.71-1.19,40.63,6.53,57.74"/>
        <path class="cls-17" d="M351.72,222.11a261.24,261.24,0,0,1-2.3,41.28c-.6,4.45-1.33,8.89-1.6,13.39a135.69,135.69,0,0,0,.81,20.48l3.89,43.14"/>
        <path class="cls-17" d="M337.86,434.59c1.35,22.94,2.69,45.92,2.18,68.93-.22,10-.79,20-.14,29.93"/>
      </g>
    </g>
  </g>
  <g>
    <path class="cls-13" d="M633.13,546.72a2.75,2.75,0,0,1-2.17,2.67c-2.09.26-5.15.3-5.31-1.62-.24-2.85,7.24-61.94-13.17-110.74.48,5.89,1,13,1.51,21.23,1.68,27.3,3,41,.53,48.67A1.46,1.46,0,0,1,612.7,508l-3.38-1.16a2.08,2.08,0,0,1-1.09-2.53c.67-2.36,1.55-7.16,1.34-15.82-.28-12-4.72-52.25-3.92-71.36-3.65-16-5.13-32.75-6.33-49.21-1.28-17.51-.13-36.23-3.37-53.41-1.18-6.25-3.08-12.3-4.11-18.59-2.16-13.13.66-24.66,1.19-37.53.38-9.17-2.42-20-3.4-29.31q-2.91-27.7-6-55.39c-.26-2.35,1.09-4.44,3-4.61l5.29-.5c1.77-.17,3.38,1.42,3.66,3.61.88,7,2.79,26,6.06,76.48,7.11,110-2.27,125.69,17.8,186C637.07,487.7,634.12,535.76,633.13,546.72Z"/>
    <g class="cls-18">
      <g>
        <path class="cls-17" d="M598.19,313.29a36.41,36.41,0,0,0,1.73-8.91c.9-13.21-5.1-26.58-3-39.56"/>
        <path class="cls-17" d="M596.32,302.31l-2.81-19.38a43.24,43.24,0,0,0-.77,9.89c.25,3.33,1.37,6.74,3.54,8.76"/>
        <path class="cls-17" d="M598.11,253.2c-.28-13.27-3.78-26.16-6.46-39.09s-4.52-26.68-1.51-39.31"/>
        <path class="cls-17" d="M630.35,545.44c2.32-22.25-.18-45-2.68-67.35a205.78,205.78,0,0,0-3.56-23.61c-3.2-13.8-9.2-26.59-11.61-40.61-1.44-8.41-1.55-17-2.29-25.56-1.4-16-5.06-31.75-6.74-47.76-1.24-11.74-1.41-23.57-1.58-35.37l-.67-47.13"/>
        <path class="cls-17" d="M611.88,506.92c3.37-19.11-2.18-39.13-2-58.8,0-6.28.67-12.53.49-18.81-.21-7.14-1.45-14.19-2.57-21.22q-3.95-24.86-5.84-50.08c-1.47-19.66-2.32-40.58-11.47-57"/>
        <path class="cls-17" d="M607.65,472.48a261.24,261.24,0,0,1-1.27-41.33c.22-4.49.56-9,.44-13.48a135.69,135.69,0,0,0-2.57-20.34l-7.59-42.64"/>
        <path class="cls-17" d="M603.16,259.6c-3.32-22.74-6.64-45.52-8.11-68.49-.64-10-.93-20-2.44-29.83"/>
      </g>
    </g>
  </g>
  <g>
    <path class="cls-2" d="M870.51,489.4a4,4,0,0,0-1-7.81c-1.49.07-35.32,1.21-58-33.4a63,63,0,0,1-6.08-12.2c-6.06-15.87-23.18-53.08-51.09-55.91-20.66-2.09-34.87,10.56-39.31,23.2-4.28,12.15-.46,23.91,10,30.67,7.93,5.15,17.34,5.49,25.17.91,7.34-4.3,11.76-12,11.27-19.53-.28-4.37-2.53-12.44-14.41-17.46a4,4,0,0,0-3.07,7.28c6,2.53,9.31,6.23,9.6,10.69s-2.67,9.44-7.38,12.2c-5.26,3.08-11.41,2.82-16.87-.72-7.32-4.75-9.87-12.76-6.82-21.42,3.45-9.82,14.65-19.62,31.07-18,24.19,2.45,40.18,39.55,44.5,50.87a70.89,70.89,0,0,0,6.85,13.71c25.26,38.55,63.39,37,65,37A4,4,0,0,0,870.51,489.4Z"/>
    <g>
      <path class="cls-3" d="M779.36,441.4c-2.91,2.28-5.73-.32-5.63-3.4.09-2.65,2.07-5.21,3.8-7.06A14.61,14.61,0,0,1,788,426.19a14.84,14.84,0,0,1,14.21,12.16,23.26,23.26,0,0,1-.14,6.68,14.5,14.5,0,0,1-1.58,5.45,5.83,5.83,0,0,1-4.55,3.05A3.71,3.71,0,0,1,792,450.2c-.3,2-3.07,2.84-4.75,1.75a5.16,5.16,0,0,1-1.85-5.35,4.06,4.06,0,0,1-6.06-5.2Z"/>
      <path class="cls-4" d="M858.12,397.46c-.25.58-9.35.93-10.17,1.06a118.27,118.27,0,0,0-23.46,5.92,84.1,84.1,0,0,0-18,9.08,63.34,63.34,0,0,0-8.31,6.67c-1.16,1.11-2.19,2.72-3.41,3.69-1.78,1.41-4.58,1.85-6.67,2.67-2.34.92-4.67,2.28-5.88,4.48a25.12,25.12,0,0,1,5.44-1.66,19.24,19.24,0,0,0-1.29,5.08,10.15,10.15,0,0,1,4.85-1.86,27.36,27.36,0,0,0,1,7.53l3.44-5.05,1.7,8.42a24.46,24.46,0,0,0,1.91-6.5l3.36,6,.59-7.65c.21-2.67.69-3.94,2.69-5.58,1.49-1.22,2.93-2.49,4.45-3.66a80.38,80.38,0,0,1,11.5-7.5c8.89-4.71,19.29-7.59,29.25-4.83Z"/>
    </g>
    <g>
      <path class="cls-3" d="M976.84,450.62c2.42,2.79,5.69.79,6.18-2.26.42-2.61-1-5.51-2.38-7.66A14.61,14.61,0,0,0,971.3,434a14.84,14.84,0,0,0-16.28,9.2,23.26,23.26,0,0,0-1.15,6.58,14.5,14.5,0,0,0,.51,5.66,5.83,5.83,0,0,0,3.88,3.87,3.71,3.71,0,0,0,4.46-2.53c-.09,2,2.47,3.37,4.33,2.63a5.16,5.16,0,0,0,2.84-4.89,4.06,4.06,0,0,0,6.95-3.94Z"/>
      <path class="cls-4" d="M908,392.37c.14.62,9,2.71,9.78,3a118.27,118.27,0,0,1,21.89,10.32,84.1,84.1,0,0,1,15.94,12.37,63.34,63.34,0,0,1,6.87,8.14c.92,1.31,1.62,3.09,2.64,4.27,1.48,1.72,4.14,2.7,6,3.9,2.12,1.36,4.15,3.13,4.91,5.53a25.12,25.12,0,0,0-5-2.67,19.24,19.24,0,0,1,.29,5.23,10.15,10.15,0,0,0-4.4-2.76,27.36,27.36,0,0,1-2.38,7.21l-2.4-5.62-3.28,7.94a24.46,24.46,0,0,1-.62-6.74l-4.46,5.29.89-7.62c.31-2.66.08-4-1.57-6-1.22-1.48-2.4-3-3.66-4.45a80.38,80.38,0,0,0-9.85-9.57c-7.82-6.33-17.48-11.15-27.78-10.36Z"/>
    </g>
    <g>
      <path class="cls-3" d="M798.33,540.89s19.15,5.08,18.17,15.67-16.65,7.54-24.5,7.39-23.18-.05-23.09-4.76,7.14-3.79,7.14-3.79-6.66-.91-6.19-5.23,6-2.45,6-2.45-3.94-.66-3.88-4.19,5.14-1.47,5.14-1.47-5.08-1.4-3.84-4.4C775.13,533.07,798.33,540.89,798.33,540.89Z"/>
      <path class="cls-2" d="M858.37,475.19c-.16-.23-3.9,1.51-4.16,1.62a83.81,83.81,0,0,0-10.72,5.71,102.17,102.17,0,0,0-29.57,28.33,110.72,110.72,0,0,0-7.37,12.21c-2,3.77-3.12,10.38-8.11,10.83-2.06.19-4.23-.2-6.15.59,2.13.79,2.48,1.37,4.22,2.83-2.49.31-4.11,1.54-6.62,3.4,2.3.26,4,2.06,6.17,1.85-1.23,2.55-2.79,4.46-3.45,7.22a24,24,0,0,1,5.55-2.49,48,48,0,0,0-1.6,7.1,24.16,24.16,0,0,0,9.12-5.15,59.16,59.16,0,0,1,5.33,7.29,45.87,45.87,0,0,0,1.77-6,7.06,7.06,0,0,1,3.75,3.55c-.84-1.82-.86-4.71-1.08-6.69a29.9,29.9,0,0,1,0-7c.44-3.5,2.06-6.74,3.51-9.93A90,90,0,0,1,829.2,513.1a72.19,72.19,0,0,1,37.57-26Z"/>
    </g>
    <g>
      <path class="cls-3" d="M957.79,545s-19.28,4.56-18.58,15.18,16.44,8,24.29,8,23.17.57,23.21-4.14-7-4-7-4,6.68-.73,6.32-5.06-5.9-2.61-5.9-2.61,4-.55,4-4.09-5.09-1.61-5.09-1.61,5.11-1.26,4-4.29C981.19,537.82,957.79,545,957.79,545Z"/>
      <path class="cls-2" d="M913.64,472.39c.2-.19,3.54,2.24,3.76,2.4a83.81,83.81,0,0,1,9.41,7.68A102.17,102.17,0,0,1,950.32,516a110.72,110.72,0,0,1,4.86,13.41c1.19,4.08,1,10.79,5.85,12.2,2,.58,4.19.63,5.92,1.77-2.25.36-2.7.86-4.69,2,2.38.79,3.74,2.31,5.84,4.62-2.31-.19-4.29,1.25-6.41.62.71,2.74,1.87,4.92,2,7.75a24,24,0,0,0-5-3.52,48,48,0,0,1,.19,7.28,24.16,24.16,0,0,1-7.95-6.82,59.16,59.16,0,0,0-6.65,6.12,45.87,45.87,0,0,1-.56-6.27,7.06,7.06,0,0,0-4.36,2.75c1.18-1.62,1.76-4.45,2.35-6.36a29.9,29.9,0,0,0,1.4-6.81c.24-3.52-.72-7-1.51-10.42a90,90,0,0,0-6.71-19,72.19,72.19,0,0,0-31.82-32.77Z"/>
    </g>
    <ellipse class="cls-7" cx="880" cy="434.51" rx="48.78" ry="55.58" transform="matrix(1, -0.02, 0.02, 1, -8.32, 17.28)"/>
    <ellipse class="cls-8" cx="880.14" cy="441.6" rx="34.25" ry="39.02" transform="translate(-8.46 17.29) rotate(-1.12)"/>
    <g>
      <circle class="cls-5" cx="937.07" cy="359.7" r="12.73" transform="translate(-6.85 18.38) rotate(-1.12)"/>
      <circle class="cls-6" cx="933.05" cy="358.7" r="8.19" transform="matrix(1, -0.02, 0.02, 1, -6.83, 18.3)"/>
    </g>
    <g>
      <circle class="cls-5" cx="814.64" cy="364.7" r="12.73" transform="translate(-21.06 51.26) rotate(-3.56)"/>
      <circle class="cls-6" cx="818.57" cy="363.38" r="8.19" transform="translate(-20.97 51.5) rotate(-3.56)"/>
    </g>
    <ellipse class="cls-7" cx="873.58" cy="342.8" rx="59.91" ry="55.54" transform="translate(-6.53 17.14) rotate(-1.12)"/>
    <path class="cls-6" d="M922.34,340.27a26.56,26.56,0,0,0-49.46-13,26.56,26.56,0,1,0-37.72,36,17.92,17.92,0,0,0-1.13,6.46c.29,14.68,18.81,26.22,41.38,25.78s40.62-12.7,40.34-27.37a18.2,18.2,0,0,0-2-7.86A26.49,26.49,0,0,0,922.34,340.27Z"/>
    <g>
      <circle class="cls-9" cx="849.76" cy="361.04" r="11.87" transform="translate(-6.89 16.68) rotate(-1.12)"/>
      <circle class="cls-10" cx="849.76" cy="361.04" r="7.99" transform="translate(-6.89 16.68) rotate(-1.12)"/>
      <circle class="cls-9" cx="852.86" cy="356.62" r="2.91" transform="matrix(1, -0.02, 0.02, 1, -6.81, 16.74)"/>
    </g>
    <g>
      <circle class="cls-9" cx="898.97" cy="360.08" r="11.87" transform="translate(-6.87 17.64) rotate(-1.12)"/>
      <circle class="cls-10" cx="898.97" cy="360.08" r="7.99" transform="translate(-6.87 17.64) rotate(-1.12)"/>
      <circle class="cls-9" cx="902.07" cy="355.66" r="2.91" transform="translate(-6.78 17.7) rotate(-1.12)"/>
    </g>
    <path class="cls-11" d="M873.87,372.58a.62.62,0,0,0,.51-1c-.81-1.29-2.42-3.42-4.09-3.09-2.37.48-3.17,3.74-1.87,3.93C869.35,372.61,872.28,372.59,873.87,372.58Z"/>
    <path class="cls-11" d="M877.26,372.51a.62.62,0,0,1-.55-.93c.76-1.32,2.28-3.52,4-3.24,2.39.39,3.32,3.62,2,3.86C881.78,372.36,878.85,372.47,877.26,372.51Z"/>
    <circle class="cls-12" cx="882.03" cy="383.42" r="4.34" transform="matrix(1, -0.02, 0.02, 1, -7.33, 17.31)"/>
  </g>
</svg>
