<svg id="Layer_1" data-name="Layer 1" xmlns="http://www.w3.org/2000/svg" xmlns:xlink="http://www.w3.org/1999/xlink" viewBox="0 0 260 168"><defs><style>.cls-1{fill:#fffbe9;}.cls-2{clip-path:url(#clip-path);}.cls-3{fill:#ede0a9;}.cls-4{fill:#fff6cf;}</style><clipPath id="clip-path"><path class="cls-1" d="M87.36,156.79S86,144.24,78.07,142.31A42.13,42.13,0,0,0,57.3,143c-5.36,1.45-4.17,5.47-10.06,10.95s3.8,7.15,14.35,8.77S88.15,160.64,87.36,156.79Z"/></clipPath></defs><path class="cls-1" d="M87.36,156.79S86,144.24,78.07,142.31A42.13,42.13,0,0,0,57.3,143c-5.36,1.45-4.17,5.47-10.06,10.95s3.8,7.15,14.35,8.77S88.15,160.64,87.36,156.79Z"/><g class="cls-2"><path class="cls-3" d="M85.28,144c-3.19,2.18-7.49,1.38-11.25,2.26-2.09.48-4.13,1.51-6.26,1.27-.78-.09-1.54-.35-2.33-.37a2.17,2.17,0,0,0-2,1,4.58,4.58,0,0,0-.29,1.33c-.42,2.21-2.7,3.63-3.4,5.77a12.42,12.42,0,0,1-.64,2.18,9.75,9.75,0,0,1-1.39,1.63,10.73,10.73,0,0,0-1.91,5.11.84.84,0,0,0,.92,1.17c2.26.27,4.53.48,6.8.68,7.52.69,15.12,1.38,22.62.46A14.27,14.27,0,0,0,93,164.22a4.26,4.26,0,0,0,1.31-1.46,5.07,5.07,0,0,0,.36-2.12,29.64,29.64,0,0,0-2.55-12.34,8.63,8.63,0,0,0-1.94-3,3.64,3.64,0,0,0-3.3-.95"/><path class="cls-4" d="M52,141.86a14.12,14.12,0,0,0,6.45,3.81c2.41.74,4.93,1.1,7.4,1.61a1.81,1.81,0,0,1-.19,2.3c-.54.65-1.29,1.09-1.86,1.71-1.74,1.93-1.19,5-2.27,7.37-.69,1.49-2,2.75-2.08,4.38,0,.51.1,1,.08,1.51a1.43,1.43,0,0,1-.69,1.26,1.87,1.87,0,0,1-.85.1l-7-.23a9.16,9.16,0,0,1-4.55-.94c-1.55-1-2.39-2.71-3.13-4.37s-1.65-3.78-1.15-5.69c.69-2.64,3.64-4.13,4.56-6.69a24.14,24.14,0,0,0,.61-3.29,3.44,3.44,0,0,1,1.83-2.63"/></g></svg>