<svg id="Layer_1" data-name="Layer 1" xmlns="http://www.w3.org/2000/svg" viewBox="0 0 260 168"><defs><style>.cls-1{fill:#774013;}.cls-2{fill:#87491a;}.cls-3{opacity:0.4;}.cls-4{fill:#37b34a;}</style></defs><path class="cls-1" d="M260,168H0V134.58q59.07-1.38,120.32-1.51,71.3-.12,139.68,1.51Z"/><ellipse class="cls-2" cx="30.64" cy="151.33" rx="7.17" ry="1.32"/><ellipse class="cls-2" cx="60.2" cy="159.23" rx="7.17" ry="1.32"/><ellipse class="cls-2" cx="241.52" cy="151.76" rx="7.17" ry="1.32"/><ellipse class="cls-2" cx="207.28" cy="159.23" rx="7.17" ry="1.32"/><g class="cls-3"><path class="cls-4" d="M130.31,165s-2.05-.5-1.53-.6c0,0,1.47-.09,1.88.47a2.48,2.48,0,0,1,1.29-.6s1.06.09-.64.62c0,0,3-.23,2.87,0a22.51,22.51,0,0,0-2.82.18A1.06,1.06,0,0,1,130.31,165Z"/><path class="cls-4" d="M134.39,164.1s-2-.5-1.53-.59c0,0,1.47-.09,1.88.46a2.45,2.45,0,0,1,1.29-.59s1.05.09-.65.61c0,0,3.05-.22,2.88,0a22.9,22.9,0,0,0-2.82.19A1,1,0,0,1,134.39,164.1Z"/><path class="cls-4" d="M130.76,163.1s-2-.51-1.52-.6c0,0,1.46-.09,1.87.47a2.48,2.48,0,0,1,1.29-.6s1.06.09-.64.61c0,0,3.05-.22,2.87,0a22.76,22.76,0,0,0-2.81.19A1.08,1.08,0,0,1,130.76,163.1Z"/><path class="cls-4" d="M139.6,163.46s-2-.51-1.53-.6c0,0,1.47-.09,1.88.47a2.48,2.48,0,0,1,1.29-.6s1.06.09-.64.61c0,0,3-.22,2.87,0a22.9,22.9,0,0,0-2.82.19A1.06,1.06,0,0,1,139.6,163.46Z"/><path class="cls-4" d="M143,162.52s-2.05-.5-1.53-.6c0,0,1.47-.09,1.88.47a2.43,2.43,0,0,1,1.29-.6s1.05.1-.65.62c0,0,3-.22,2.88,0a22.51,22.51,0,0,0-2.82.18C143.52,162.76,143.29,162.73,143,162.52Z"/><path class="cls-4" d="M136.39,162.61s-2-.5-1.52-.59c0,0,1.46-.1,1.87.46a2.48,2.48,0,0,1,1.29-.6s1.06.1-.64.62c0,0,3.05-.22,2.87,0a24.35,24.35,0,0,0-2.81.18A1,1,0,0,1,136.39,162.61Z"/><path class="cls-4" d="M143.26,163.6s-2.38-.58-1.77-.69c0,0,1.7-.1,2.18.54a2.79,2.79,0,0,1,1.49-.69s1.22.11-.75.71c0,0,3.53-.25,3.33,0a26.75,26.75,0,0,0-3.26.21A1.22,1.22,0,0,1,143.26,163.6Z"/></g><g class="cls-3"><path class="cls-4" d="M227.18,142.28s-2.06-.5-1.53-.59c0,0,1.47-.1,1.88.46a2.45,2.45,0,0,1,1.29-.59s1.05.09-.65.61c0,0,3.05-.22,2.88,0a22.9,22.9,0,0,0-2.82.19A1,1,0,0,1,227.18,142.28Z"/><path class="cls-4" d="M231.26,141.42s-2.06-.5-1.53-.6c0,0,1.47-.09,1.88.47a2.43,2.43,0,0,1,1.29-.6s1,.1-.65.62c0,0,3.05-.23,2.88,0a22.51,22.51,0,0,0-2.82.18A1.05,1.05,0,0,1,231.26,141.42Z"/><path class="cls-4" d="M227.63,140.41s-2-.5-1.52-.59c0,0,1.46-.1,1.87.46a2.42,2.42,0,0,1,1.29-.59s1.06.09-.64.61c0,0,3.05-.22,2.87,0a24.35,24.35,0,0,0-2.81.18A1,1,0,0,1,227.63,140.41Z"/><path class="cls-4" d="M236.47,140.77s-2.06-.5-1.53-.59c0,0,1.47-.1,1.88.46a2.37,2.37,0,0,1,1.29-.59s1,.09-.65.61c0,0,3-.22,2.88,0a24.63,24.63,0,0,0-2.82.18C237,141,236.76,141,236.47,140.77Z"/><path class="cls-4" d="M239.87,139.84s-2.06-.51-1.53-.6c0,0,1.47-.09,1.88.47a2.43,2.43,0,0,1,1.29-.6s1.05.09-.65.61c0,0,3-.22,2.88,0a22.9,22.9,0,0,0-2.82.19A1.05,1.05,0,0,1,239.87,139.84Z"/><path class="cls-4" d="M233.26,139.93s-2-.51-1.52-.6c0,0,1.46-.09,1.87.47a2.48,2.48,0,0,1,1.29-.6s1.06.09-.64.61c0,0,3.05-.22,2.87,0a22.64,22.64,0,0,0-2.81.19A1.07,1.07,0,0,1,233.26,139.93Z"/><path class="cls-4" d="M240.13,140.92s-2.38-.58-1.77-.69c0,0,1.7-.11,2.17.54a2.84,2.84,0,0,1,1.5-.69s1.22.11-.75.71c0,0,3.53-.26,3.33,0a25.2,25.2,0,0,0-3.26.22A1.22,1.22,0,0,1,240.13,140.92Z"/></g></svg>