<svg id="Layer_1" data-name="Layer 1" xmlns="http://www.w3.org/2000/svg" viewBox="0 0 260 168"><defs><style>.cls-1{fill:#4c2308;}.cls-2{fill:#63310c;}.cls-3{fill:#5b2b0b;}</style></defs><path class="cls-1" d="M52.22,141.34a3.44,3.44,0,0,0-1.28,1.93c-.24,1.48,1.13,2.7,2.46,3.38,3.32,1.69,7.14,2,10.85,2.34l16.22,1.34a3.75,3.75,0,0,1,2.11.61,5.41,5.41,0,0,1,1.16,1.88c1.92,3.73,6.82,4.5,11,4.78q27.72,1.86,55.52,1.59c3.34,0,7.59-.78,8.3-4q7.08-.35,14.11-1.39c2.6-.39,5.81-1.48,6-4.11.09-1.09-.35-2.4.43-3.16a2.59,2.59,0,0,1,1.7-.52c5.14-.28,11.08-.17,14.39-4.12a3.85,3.85,0,0,0,1.07-2.71c-.18-2.11-2.69-3.06-4.77-3.44a150.8,150.8,0,0,0-19.79-2,701.18,701.18,0,0,0-77,.09c-7.17.41-14.39.93-21.27,3-3.79,1.14-7.53,2.7-11.56,2.32C58.28,138.75,55.21,138.73,52.22,141.34Z"/><path class="cls-2" d="M145.27,121.09a23.17,23.17,0,0,1-6.29.69,22.49,22.49,0,0,1-4.4-1.1c-4.91-1.5-10.31-2.16-15.13-.39a20.08,20.08,0,0,1-3.32,1.15,14.22,14.22,0,0,1-4.77-.28c-6-1-12.68-.71-17.28,3.23-1.34,1.15-2.49,2.6-4.13,3.27a10.81,10.81,0,0,1-4.47.43c-4.22-.14-8.85.24-11.92,3.15a8.49,8.49,0,0,1-2.12,1.81,6.09,6.09,0,0,1-3.15.24c-7.15-.7-15-.47-20.62,4,1.43,3.43,5.83,4.23,9.53,4.55l16.5,1.41a31,31,0,0,0,7.52,0A15.61,15.61,0,0,0,88.53,140a4.57,4.57,0,0,1,1.59-1,4.39,4.39,0,0,1,2.42.39,19.76,19.76,0,0,0,16-1.49,6.56,6.56,0,0,1,2.91-1.17,6.19,6.19,0,0,1,2.33.57A29.08,29.08,0,0,0,137,135.92c9.3,3.69,20.25,6.2,29,1.32a33.73,33.73,0,0,0,14.94,2.23c2.08-.16,4.58-.92,5-3a14.65,14.65,0,0,0,5.06.32,5,5,0,0,0,3.92-2.89c1-2.7-1.44-5.49-4-6.72a14.53,14.53,0,0,0-9.86-.89,11.72,11.72,0,0,1-3.47.71,10.73,10.73,0,0,1-3.28-1,10.33,10.33,0,0,0-4.53-.75c-1.15.11-2.44,1.07-3.51,1-2,0-3.92-2.6-5.8-3.54C155.81,120.5,150.27,120.22,145.27,121.09Z"/><path class="cls-3" d="M51.05,145.91a3.87,3.87,0,0,0,1.29,4.69,8.13,8.13,0,0,0,5,1.34,18.51,18.51,0,0,0,5-.72,7.53,7.53,0,0,1,2.19-.43,7.78,7.78,0,0,1,2.47.72,15.3,15.3,0,0,0,13.49-1.3A4.28,4.28,0,0,0,81.9,149a3.71,3.71,0,0,0,.57-1.81,6.23,6.23,0,0,0-9-6.06c.61-.32-3.31-3.54-3.69-3.73a9.35,9.35,0,0,0-5.21-.85c-.91.08-1.51.59-2.37.39s-2.06-1.35-3.07-1.72a21.47,21.47,0,0,0-5.39-1.13c-3-.24-5.38.6-6.93,3.32C44.38,141.63,47.23,144.25,51.05,145.91Z"/><path class="cls-3" d="M185.93,136.62a3.78,3.78,0,0,0,1.27,4.58,7.9,7.9,0,0,0,4.91,1.32,18,18,0,0,0,4.89-.71,7.32,7.32,0,0,1,2.15-.42,7.18,7.18,0,0,1,2.41.71,15,15,0,0,0,13.19-1.28,4.19,4.19,0,0,0,1.34-1.17,3.63,3.63,0,0,0,.56-1.77,6.1,6.1,0,0,0-8.84-5.93c.59-.3-3.24-3.45-3.61-3.64a9.2,9.2,0,0,0-5.09-.83c-.89.08-1.48.58-2.31.38s-2-1.32-3-1.68a20.7,20.7,0,0,0-5.27-1.1c-2.95-.23-5.26.58-6.78,3.24C179.41,132.43,182.2,135,185.93,136.62Z"/></svg>