<svg id="Layer_1" data-name="Layer 1" xmlns="http://www.w3.org/2000/svg" xmlns:xlink="http://www.w3.org/1999/xlink" viewBox="0 0 260 168"><defs><style>.cls-1{fill:#774013;}.cls-2{clip-path:url(#clip-path);}.cls-3{fill:#995420;}.cls-4{opacity:0.4;}.cls-5{fill:#37b34a;}.cls-6{fill:#6b370f;opacity:0.49;}</style><clipPath id="clip-path"><path class="cls-1" d="M260.11,168H.11V126.28q68.79-1.74,140.83-1.64,60.74.14,119.17,1.64Z"/></clipPath></defs><path class="cls-1" d="M260.11,168H.11V126.28q68.79-1.74,140.83-1.64,60.74.14,119.17,1.64Z"/><g class="cls-2"><path class="cls-3" d="M219.37,124.64s-92.48,3.22-60.87,8.49,47.7,10.54,11.12,14.34-68.49,22.24-68.49,22.24h154s20.2-27.8-20.49-33.36,40.1-10.24,40.1-10.24Z"/></g><g class="cls-4"><path class="cls-5" d="M223.4,163.67s-3.23-.79-2.4-.94c0,0,2.31-.14,2.95.74a3.88,3.88,0,0,1,2-.94s1.66.15-1,1c0,0,4.79-.35,4.52,0a34.78,34.78,0,0,0-4.43.29A1.65,1.65,0,0,1,223.4,163.67Z"/><path class="cls-5" d="M229.82,162.31s-3.23-.79-2.4-.93c0,0,2.3-.15,3,.73a3.84,3.84,0,0,1,2-.94s1.66.15-1,1c0,0,4.8-.35,4.52,0a36.61,36.61,0,0,0-4.42.29A1.65,1.65,0,0,1,229.82,162.31Z"/><path class="cls-5" d="M224.11,160.73s-3.23-.79-2.4-.94c0,0,2.31-.15,3,.73a3.84,3.84,0,0,1,2-.94s1.66.15-1,1c0,0,4.8-.35,4.52,0a36.75,36.75,0,0,0-4.43.29A1.65,1.65,0,0,1,224.11,160.73Z"/><path class="cls-5" d="M238,161.29s-3.23-.79-2.4-.93c0,0,2.3-.15,2.95.73a3.84,3.84,0,0,1,2-.94s1.66.15-1,1c0,0,4.8-.35,4.52,0a36.61,36.61,0,0,0-4.42.29A1.63,1.63,0,0,1,238,161.29Z"/><path class="cls-5" d="M243.36,159.82s-3.23-.79-2.4-.94c0,0,2.31-.14,3,.74a3.84,3.84,0,0,1,2-.94s1.66.15-1,1c0,0,4.8-.36,4.52,0A34.78,34.78,0,0,0,245,160,1.67,1.67,0,0,1,243.36,159.82Z"/><path class="cls-5" d="M233,160s-3.23-.79-2.4-.93c0,0,2.31-.15,3,.73a3.88,3.88,0,0,1,2-.94s1.66.15-1,1c0,0,4.8-.35,4.52,0a36.75,36.75,0,0,0-4.43.29A1.63,1.63,0,0,1,233,160Z"/><path class="cls-5" d="M243.77,161.53s-3.74-.92-2.77-1.09c0,0,2.67-.17,3.41.85a4.53,4.53,0,0,1,2.35-1.09s1.93.17-1.17,1.12c0,0,5.56-.4,5.23,0a39.89,39.89,0,0,0-5.12.34A2,2,0,0,1,243.77,161.53Z"/></g><g class="cls-4"><path class="cls-5" d="M27.85,134.25s2.63-.65,2-.77c0,0-1.88-.12-2.41.6a3.09,3.09,0,0,0-1.65-.76s-1.35.12.83.78c0,0-3.91-.28-3.69,0a29.49,29.49,0,0,1,3.61.24A1.35,1.35,0,0,0,27.85,134.25Z"/><path class="cls-5" d="M22.63,133.14s2.63-.64,1.95-.76c0,0-1.88-.12-2.4.59a3.14,3.14,0,0,0-1.66-.76s-1.35.12.83.79c0,0-3.91-.29-3.68,0a29.35,29.35,0,0,1,3.6.24A1.37,1.37,0,0,0,22.63,133.14Z"/><path class="cls-5" d="M27.27,131.85s2.63-.65,2-.76c0,0-1.88-.12-2.41.59a3.09,3.09,0,0,0-1.65-.76s-1.35.12.83.79c0,0-3.91-.29-3.69,0a29.61,29.61,0,0,1,3.61.24A1.35,1.35,0,0,0,27.27,131.85Z"/><path class="cls-5" d="M16,132.31s2.63-.64,1.95-.76c0,0-1.88-.12-2.4.59a3.14,3.14,0,0,0-1.66-.76s-1.35.12.83.79c0,0-3.91-.29-3.68,0a29.35,29.35,0,0,1,3.6.24A1.37,1.37,0,0,0,16,132.31Z"/><path class="cls-5" d="M11.59,131.11s2.63-.64,2-.76c0,0-1.88-.12-2.41.59a3.13,3.13,0,0,0-1.65-.76s-1.36.12.82.79c0,0-3.9-.29-3.68,0a29.61,29.61,0,0,1,3.61.24A1.35,1.35,0,0,0,11.59,131.11Z"/><path class="cls-5" d="M20.06,131.23s2.63-.65,2-.77c0,0-1.88-.12-2.4.6A3.14,3.14,0,0,0,18,130.3s-1.35.12.83.78c0,0-3.91-.28-3.68,0a29.61,29.61,0,0,1,3.61.24A1.36,1.36,0,0,0,20.06,131.23Z"/><path class="cls-5" d="M11.26,132.5s3-.75,2.26-.89c0,0-2.18-.13-2.78.7a3.66,3.66,0,0,0-1.92-.89s-1.57.14,1,.91c0,0-4.53-.33-4.27,0a34.28,34.28,0,0,1,4.18.28A1.59,1.59,0,0,0,11.26,132.5Z"/></g><ellipse class="cls-6" cx="75.52" cy="144.23" rx="68.19" ry="7.39"/></svg>