<svg id="character" xmlns="http://www.w3.org/2000/svg" viewBox="0 0 239.7 346.5">
  <defs>
    <style>
      .cls-1 {
        fill: #7d90a4;
      }

      .cls-2 {
        fill: #c2c8ce;
      }

      .cls-3 {
        fill: #73869c;
      }

      .cls-4 {
        fill: #8497aa;
      }

      .cls-5 {
        fill: #d42327;
      }

      .cls-6 {
        fill: #f16635;
      }

      .cls-7 {
        fill: #fde500;
      }

      .cls-8 {
        fill: #71b34b;
      }

      .cls-9 {
        fill: #a2ddf7;
      }

      .cls-10 {
        fill: #488dcb;
      }

      .cls-11 {
        fill: #382f8d;
      }

      .cls-12 {
        fill: #8396a9;
      }

      .cls-13 {
        fill: #3e3e3e;
      }

      .cls-14 {
        fill: #fff;
      }

      .cls-15 {
        fill: #363e46;
      }

      .cls-16 {
        fill: #4d5e70;
      }

      .cls-17 {
        fill: #050607;
      }

      .cls-18 {
        fill: #728190;
      }
    </style>
  </defs>
  <title>p03</title>
  <g>
    <g>
      <g>
        <path class="cls-1" d="M70.83,168.1c-5.92,2.5-15.78,6.88-21.74,11.16-4.77,3.42-9.86,6.47-14.52,10-4,3.1-7.71,6.64-11.77,9.71-3.06.44-5.58-.36-7.23-3.14a1.62,1.62,0,0,0-1.09-.82c-3.41-.84-5-3.34-5.61-6.51a2.76,2.76,0,0,0-1.41-2c-2.73-1.74-4.54-4.15-4.25-7.55a2.46,2.46,0,0,0-1-2.47c-2.76-2.26-2.9-5.32-.49-8a11.42,11.42,0,0,1,3.83-2.74,42.22,42.22,0,0,1,12.78-3.13c8.72-1,17.2-3.48,25.54-6.27s21.63-5.49,30.19-7.31c3.81,3.62,8.5,9.8,2.94,16.59C76.37,165.62,71.24,167.75,70.83,168.1Z"/>
        <path class="cls-2" d="M21.9,180.66c1.75-3.46.3-5.95-2.92-5.74a16.15,16.15,0,0,0-10.29,4.34,3,3,0,0,0-.82,3.2A5.45,5.45,0,0,0,16,186.05,16.53,16.53,0,0,0,21.9,180.66Z"/>
        <path class="cls-2" d="M18.36,195.56a4.45,4.45,0,0,0,5.28-.71A18.18,18.18,0,0,0,29,187.77c1.07-2.44-.11-4.43-2.78-4.53a11.76,11.76,0,0,0-6.15,1.89,14.46,14.46,0,0,0-3.9,3,3.63,3.63,0,0,0-.35,4.94A6.21,6.21,0,0,0,18.36,195.56Z"/>
        <path class="cls-2" d="M5.89,177c2,1.1,3.44.28,4.8-.62,1.91-1.25,3.71-2.66,5.53-4,.82-.64,1.75-1.29,1.43-2.57a3.13,3.13,0,0,0-2.64-2.3c-3.2-.67-6.13.23-8.92,1.75a5.2,5.2,0,0,0-.72.51C2.13,172.14,2.45,175.29,5.89,177Z"/>
      </g>
      <g>
        <path class="cls-3" d="M98.66,343.29c-6.48,2.72-13.29,3.33-20.22,3.19a12.26,12.26,0,0,1-1.59-.17c-6.24-.88-7.63-2.53-7.47-8.82A25.28,25.28,0,0,1,72,326.16a2.73,2.73,0,0,0,.1-2.38,33.09,33.09,0,0,1-1.86-16.61c.6-3.81-.93-7.23-2.37-10.63-.33-.76-5-15-5.27-15.75.21-11.94,13-12,16.57-12,6.08-.07,15.81.35,19.18,11.86.57-.12-1.26,12-.67,12a23.52,23.52,0,0,0,2.58,13.08,19.9,19.9,0,0,1,1.72,7.06,40.41,40.41,0,0,0,4.24,14.17c1.3,2.64,1.62,5.57,2.09,8.43a2.22,2.22,0,0,1-.86,2.18,33.33,33.33,0,0,1-6.51,4.63"/>
        <path class="cls-2" d="M97.11,343.41c-2.7.49-4.62-.65-5.08-3.35a16.87,16.87,0,0,1,.93-9.92c1.33-3,4.21-3.34,6.05-.68a18.48,18.48,0,0,1,3,9.52C102.09,340.18,100.14,342.9,97.11,343.41Z"/>
        <path class="cls-2" d="M89.52,333.64a13.19,13.19,0,0,1,.59,6.75,5.48,5.48,0,0,1-7.36,4.07c-1.92-.69-2.34-2.33-2.44-4a17.19,17.19,0,0,1,2-9.41,3.63,3.63,0,0,1,3.55-2.21c1.76.15,2.63,1.44,3.14,3C89.26,332.53,89.41,333.23,89.52,333.64Z"/>
        <path class="cls-2" d="M75.83,343.62c-3.22.81-5.17-.57-5.27-3.85a13.6,13.6,0,0,1,2.37-8.43,6.61,6.61,0,0,1,1.61-1.64c2.26-1.54,4.1-.6,4.25,2.13s.36,5.2.34,7.8C79.11,342,78.1,343,75.83,343.62Z"/>
      </g>
      <g>
        <path class="cls-3" d="M175.91,294.14a25.69,25.69,0,0,1,3.34-17.73c4.47-7,12.71-5.85,24.15-3.24,7.14,4.24,6.83,7,8.21,11.55.57,1.88-3.92,8.7-4.76,10.46-1.07,2.25-2.26,4.44-3.15,6.76a14.76,14.76,0,0,0-1.13,7,31.8,31.8,0,0,1-2.64,16.16,2.66,2.66,0,0,0-.06,2.19,32.78,32.78,0,0,1,1.69,13.33c-.12,2.4-1.94,3.43-3.88,4.15a18.63,18.63,0,0,1-7.55,1c-7.21-.35-14.43-.95-20.61-5.2-7.05-4.85-6.17-3.22-4.36-11.25a23.84,23.84,0,0,1,2.11-5.7,34,34,0,0,0,3.18-10.07,32.19,32.19,0,0,1,3.32-10.09A20.8,20.8,0,0,0,175.91,294.14Z"/>
        <path class="cls-2" d="M182.45,334.86a10.92,10.92,0,0,1,1.93-4.71c1.44-1.84,3.87-2,5.15-.07a13.89,13.89,0,0,1,1.66,12.71c-.48,1.43-2.44,2.28-4.18,2.12-2.63-.24-4-1.24-4.69-3.38A13.28,13.28,0,0,1,182.45,334.86Z"/>
        <path class="cls-2" d="M171.53,334.61a16.66,16.66,0,0,1,2.91-6c1.86-2.29,4.13-2.11,5.58.47,1.37,2.43,1.42,5.12,1.2,7.8a8.44,8.44,0,0,1-.76,3.79c-1,1.73-2.08,2.41-4.05,2.16C171.64,342.27,170.23,340.18,171.53,334.61Z"/>
        <path class="cls-2" d="M193.27,332.39c.8-3.68,2.58-4.28,4.8-2.45a7.41,7.41,0,0,1,2.23,3.78,17.82,17.82,0,0,1,.73,5.8,4.5,4.5,0,0,1-4.51,4.56c-2.28,0-3.84-1.66-3.78-4.46S193.13,334.2,193.27,332.39Z"/>
      </g>
      <path class="cls-4" d="M92.93,300.77c-21-9-33.72-25.09-40.13-46.68A74.61,74.61,0,0,1,50.1,227c.83-10.77,3.63-21.12,7.16-31.3,3.9-11.22,8.75-22.06,13.12-33.09.34-.86,2.91-7.33,3-7.43l11.22-25.9a24.65,24.65,0,0,1,2.8-4.65c2-2.72,4.4-14.73,6.26-13.7,13.7,7.56,19.06,7.48,34.58,8.55,13.22.92,22.54,1.94,35.32-1.53,16.62-4.51,14-5.61,20.9-13.13.59.21,19.27,40.82,19.48,41.32,2.91,6.84,6.54,13.32,10,19.91q4.11,7.91,8,15.93c2.23,4.64,3.92,9.52,6.2,14.14,1,3.17,2,6.32,2.93,9.51,2.35,8.06,4.11,16.22,3.9,24.69A77.68,77.68,0,0,1,228,259.9c-6.55,14.86-16.32,27.13-29.89,36.21-1.53,1-3.09,2-4.64,3-2.24,1.06-4.46,2.16-6.72,3.18a82.18,82.18,0,0,1-19.13,5.77c-1.76.33-6.89,1.26-7.71,1.34-8.11.77-16.33-.3-24.44-.39-3.36,0-6.73-.4-10.09-.61-.58-.12-13.79-1.91-19.69-3.43C102.2,304.08,93.74,301.12,92.93,300.77Z"/>
      <path class="cls-1" d="M196.33,150.25c1.14-8.81,3.41-17.06,8.73-16.77,4.6,7.57,17.42,26.67,21.13,34.7,16.58,14.64,15.41,22,9.63,26.38-4,.27.33,1.36-.9,6-.91,3.37-8.4,4-8.4,4s3.43,1.17,2.44,4.6c-1.22,4.2-10.69,3.14-11.19,3.25-3.2.72-8.8-9.36-9.32-14.48-.61-5.91-1.91-11.78-2.7-17.67-1-7.35-4.63-17.65-6.9-23.75C198.82,155.9,196.82,150.64,196.33,150.25Z"/>
      <path class="cls-5" d="M52.39,124.92c0-29.71,35-53.92,79.05-53.92s77.26,22.68,77.26,52.4-33.57,51.76-77.64,51.76S52.39,154.64,52.39,124.92Z"/>
      <path class="cls-6" d="M59.66,124.75c0-26.95,31.72-48.91,71.7-48.91s69.18,23.37,70.07,47.53c1,26.93-30.45,46.94-70.42,46.94S59.66,151.7,59.66,124.75Z"/>
      <path class="cls-7" d="M66.17,125.11c0-24.48,28.8-44.42,65.11-44.42s62.29,18.86,63.39,44.11c1.07,24.45-28.45,42.07-64.76,42.07S66.17,149.59,66.17,125.11Z"/>
      <path class="cls-8" d="M71.78,125c0-22.35,26.29-40.56,59.44-40.56s57.08,17.52,57.08,39.87-24.23,38.46-57.37,38.46S71.78,147.32,71.78,125Z"/>
      <path class="cls-9" d="M78.92,124.81c-.77-22.45,23.1-35.63,52.22-35.63s50.27,15.73,50.27,35.36S160,158,130.88,158,79.59,144.42,78.92,124.81Z"/>
      <path class="cls-10" d="M85,124.8c0-17.21,20.51-31.37,46-31.37s44.74,13.14,44.74,30.34-19.86,31.37-45.38,31.37S85,142,85,124.8Z"/>
      <path class="cls-11" d="M91.16,124.52c-3-14.68,17.62-27.18,39.84-27.18s37.41,11.72,37.41,26.69-17.56,27.29-39.78,27.29S93.45,135.76,91.16,124.52Z"/>
      <g>
        <ellipse class="cls-12" cx="129.08" cy="121.04" rx="25.12" ry="31.74" transform="translate(-30.58 197.33) rotate(-68.7)"/>
        <path class="cls-13" d="M192.22,104.74c-2,7.33-6.29,14.57-12.17,18.93-8,6-18,8.88-27.75,10.8a91.91,91.91,0,0,1-38.09-.21c-10.17-2.2-20.69-5.9-29-12.27-5.92-3.6-12.43-12-12.16-18.85,3.51-4.92,7.77-9.55,15.19-11.72,13.46-3.65,21.87-.33,36.55-.39,11.29.44,27.91,1,39.11-.63C174.78,88.77,189.75,93.37,192.22,104.74Z"/>
        <g>
          <path class="cls-14" d="M108.27,116.23c-1,2.72-2.22,5.21-5.21,6.25-3.3,1-6.33.13-9.24-1-6-2.24-7.72-6.53-7.08-10.75,5.59,1.75,14,4.47,19.77,5.26C107.09,116.11,107.68,116.16,108.27,116.23Z"/>
          <path class="cls-2" d="M89.44,112.06c-.58,3.26,2.2,6.41,4.85,7.75a29.78,29.78,0,0,0,8.77,2.67c-4.68,2-13.87-1.69-15.77-6.31a10.27,10.27,0,0,1-.66-5.06Z"/>
          <path class="cls-4" d="M173.32,24.1c6.38,8.08,8.29,17.47,7.92,27.48-.08,2.14-.25,4.27-.53,6.39a1.56,1.56,0,0,0,1,1.91c4.88,2.56,9.33,5.69,12.56,10.29,4.35,6.17,5.25,13.13,4.55,20.41-.44,4.5-2.38,11.71-6.29,14-8.78,7.23-20.32,10.26-31.23,11.89a179.63,179.63,0,0,1-33.75,1.45,143.4,143.4,0,0,1-19.3-1.71c-.59-.07-1.18-.12-1.76-.2a103.9,103.9,0,0,1-17.07-4l-2.81-1a44.78,44.78,0,0,1-13.6-8,18.34,18.34,0,0,1-4.57-5.4,47.49,47.49,0,0,1-2.56-6.86,48.61,48.61,0,0,1-.5-7.72,32.54,32.54,0,0,1,5.12-13.65,43.41,43.41,0,0,1,9.38-9.89,2.36,2.36,0,0,0,1-2.54,50.78,50.78,0,0,1,1.31-21.66,40.82,40.82,0,0,1,5.55-11.77,48.4,48.4,0,0,1,3.33-4,52.08,52.08,0,0,1,6.55-5.2c10.49-6.75,22.2-9,34.5-8.09a81.68,81.68,0,0,1,19.71,3.7,53.6,53.6,0,0,1,13.83,6.8A33.11,33.11,0,0,1,173.32,24.1Z"/>
        </g>
        <path class="cls-15" d="M161.32,31.21c.41-.26.83.13,1.25.38a9.34,9.34,0,0,0,2.6,1.12,4.09,4.09,0,0,0,2.78-.27,13.73,13.73,0,0,1-1.37,1.38,2.39,2.39,0,0,1-2.09.8,3.63,3.63,0,0,0,3.78.26,8.23,8.23,0,0,1-2.5,1.48,3.32,3.32,0,0,1-2.82-.28,4.94,4.94,0,0,1-.89-.88,5.81,5.81,0,0,1-1.15-1.84A2.48,2.48,0,0,1,161.32,31.21Z"/>
        <path class="cls-15" d="M96.28,32.39c-.44-.2-.81.24-1.19.54a9.58,9.58,0,0,1-2.45,1.43,4.12,4.12,0,0,1-2.79.07,16.13,16.13,0,0,0,1.52,1.21,2.39,2.39,0,0,0,2.18.53,3.64,3.64,0,0,1-3.73.72,8.22,8.22,0,0,0,2.67,1.16,3.26,3.26,0,0,0,2.76-.62,4.11,4.11,0,0,0,.78-1,5.91,5.91,0,0,0,.92-2A2.51,2.51,0,0,0,96.28,32.39Z"/>
        <path class="cls-14" d="M138.61,48.31c-.79-6.54,0-12.83,3.48-18.5,2.6-4.25,6.18-7.22,11.66-6.64A8.92,8.92,0,0,1,159,25.86c5.64,5.4,6.66,18.08,2,24.31-.42.56-.83,1.14-1.25,1.71A181.41,181.41,0,0,0,138.61,48.31Z"/>
        <path class="cls-14" d="M119.83,48.26c.83-6.53.08-12.84-3.35-18.53-2.56-4.27-6.11-7.27-11.6-6.72a9,9,0,0,0-5.32,2.64c-5.67,5.36-6.79,18-2.17,24.29.42.57.83,1.15,1.24,1.73A182.73,182.73,0,0,1,119.83,48.26Z"/>
        <circle class="cls-16" cx="107.67" cy="38.02" r="10.45"/>
        <circle class="cls-16" cx="151.85" cy="39.37" r="10.45"/>
        <circle class="cls-17" cx="108" cy="38.24" r="6.71"/>
        <circle class="cls-17" cx="152.01" cy="39.3" r="6.71"/>
        <circle class="cls-14" cx="112.98" cy="34.71" r="3.06"/>
        <circle class="cls-14" cx="156.58" cy="36.24" r="3.02"/>
        <path class="cls-16" d="M159.78,51.88a181,181,0,0,0-21.17-3.57,115.66,115.66,0,0,0-39.42,3.25c-10.48,4-11.55,5.24-11.81,5.66s16.83-5.77,28.85-6.06c14.07-.17,36.83-.63,59.22,7.87A53.17,53.17,0,0,0,159.78,51.88Z"/>
        <path class="cls-16" d="M117.76,22.91c-3.8-2.54-7.66-4.78-12.48-3.76s-7.83,4.13-9.94,8.38c.55-4.17,1.57-8.15,5.44-10.59,3.18-2,6.58-1.8,9.87-.24A16.17,16.17,0,0,1,117.76,22.91Z"/>
        <path class="cls-16" d="M142.48,23.22C144.85,19.09,152,15,157.67,17c3.84,1.4,7.43,7.05,6.72,10.9-.67-.21-.76-.87-1-1.36a12.79,12.79,0,0,0-18.7-4.49,7.15,7.15,0,0,1-2.17,1.18Z"/>
        <g id="ear">
          <path class="cls-18" d="M165.69,17.08a31.77,31.77,0,0,1,2.3-6c2.86-5.36,7.6-8.27,13.26-9.72,5-1.28,11.36,2.14,13.45,6.88,2.2,5-.9,10.39-6.54,11.33a13.62,13.62,0,0,1-3.55.14,16.7,16.7,0,0,0-12,3.71S169.47,20.44,165.69,17.08Z"/>
          <path class="cls-18" d="M88.57,22.68a18,18,0,0,0-12.79-4.16c-3.58.16-6.8-1.12-8.59-4.64a8.07,8.07,0,0,1,1.47-9.37c5.17-5.26,10.51-5.84,16.9-2.17A19.6,19.6,0,0,1,95.41,16S90.11,21.67,88.57,22.68Z"/>
          <path class="cls-16" d="M90.25,20.83a29.52,29.52,0,0,0-12.76-10.2A22.59,22.59,0,0,1,92.9,18.12,8.17,8.17,0,0,1,90.25,20.83Z"/>
          <path class="cls-16" d="M168.07,18.47c3.77-4,8.83-5.79,14-6.18-4.19,2.12-8.52,4.83-11.18,8.89A20.82,20.82,0,0,1,168.07,18.47Z"/>
        </g>
        <path class="cls-3" d="M192,111c-1.31,6-5.78,10.25-7.12,12l-4.14,3.73-6.14,4.34-6.16,3c-2.76,1-10,3.41-10.84,3.69A117.06,117.06,0,0,1,144,140.43c-11.93,1.13-18.11,2.09-29.68-1.2-4.68-1.35-13.54-3.84-17.9-6-.92-.51-9.44-4.92-12.28-7.12-4.83-2.7-14.53-11.88-11.68-24.1.27.06.52.14.61.44a17.61,17.61,0,0,0,.55,3.26c2.39,6.11,6.57,10.83,11.7,14.76,8.32,6.38,17.83,10.07,28,12.27a94.39,94.39,0,0,0,38.57.32c9.73-1.91,18.91-5.28,26.94-11.24,5.88-4.36,10.73-9.58,12.72-16.91a1,1,0,0,1,1.28-.67A21.79,21.79,0,0,1,192,111Z"/>
        <path class="cls-16" d="M165.18,64.56a11,11,0,0,1,10.68,13c-.55,2.36-2.46,3.92-4.53,5a13.51,13.51,0,0,1-8.56,1.8,5.69,5.69,0,0,1-2.17-.69,13.71,13.71,0,0,1-6.9-11.38c-.26-4,2.13-6,6-5.3a17.86,17.86,0,0,1,8,3.64c1.52,1.23,1.76,3,.8,5.55a3.19,3.19,0,0,1-3.63,2.24,12.28,12.28,0,0,0,1.24-2.93,3.69,3.69,0,0,0-1.84-4.4c-2.07-1.06-4.24-1.63-6.47-.41a2.8,2.8,0,0,0-1.61,2.74A6.22,6.22,0,0,0,159,78.71c2.52,1.71,5.23,2.91,8.35,2.09a7.12,7.12,0,0,0,4.37-9.59A14.14,14.14,0,0,0,165.18,64.56Z"/>
        <path class="cls-16" d="M96.24,63.38a17.9,17.9,0,0,0-5.35,4.71c-2.09,3-2.18,6.25-.18,9,1.89,2.55,4.76,3.33,8.32,2.2a8.91,8.91,0,0,0,5.39-3.83c.91-1.55,1.36-3.26.24-4.88S102,68.87,100.35,69c-3.78.22-6.84,2.6-3.92,8.31a3.46,3.46,0,0,1-3.52-2.45c-.81-1.86-.62-4.2.55-5.16a15.82,15.82,0,0,1,9.6-3.83c3.52-.14,5.46,2.44,4.76,6.24a14.36,14.36,0,0,1-6.5,10c-3.29,2.07-6.71,1.21-9.88-.3-2.93-1.41-5.53-3.31-6-7C84.84,69,90.63,62.64,96.24,63.38Z"/>
      </g>
    </g>
    <path class="cls-1" d="M234,182.26s-12-2-13,4S235.46,193,235.46,193"/>
    <path class="cls-1" d="M231.78,193.73s-12.68-1.95-13.51,3,12.36,5.77,12.36,5.77"/>
    <path class="cls-1" d="M227.2,204.69s-11-1.17-11.67,2.8,11.11,4.3,11.11,4.3"/>
  </g>
</svg>
