<svg xmlns="http://www.w3.org/2000/svg" viewBox="0 0 155.56 224.13">
  <defs>
    <style>
      .cls-1 {
        fill: #73869c;
      }

      .cls-2 {
        fill: #c2c8ce;
      }

      .cls-3 {
        fill: #7d90a4;
      }

      .cls-4 {
        fill: #8497aa;
      }

      .cls-5 {
        fill: #d42327;
      }

      .cls-6 {
        fill: #f16635;
      }

      .cls-7 {
        fill: #fde500;
      }

      .cls-8 {
        fill: #71b34b;
      }

      .cls-9 {
        fill: #a2ddf7;
      }

      .cls-10 {
        fill: #488dcb;
      }

      .cls-11 {
        fill: #382f8d;
      }

      .cls-12 {
        fill: #8396a9;
      }

      .cls-13 {
        fill: #3e3e3e;
      }

      .cls-14 {
        fill: #fff;
      }

      .cls-15 {
        fill: #363e46;
      }

      .cls-16 {
        fill: #4d5e70;
      }

      .cls-17 {
        fill: #050607;
      }

      .cls-18 {
        fill: #728190;
      }
    </style>
  </defs>
  <title>p17</title>
  <g id="character">
    <g>
      <g>
        <path class="cls-1" d="M70,223.93a29.64,29.64,0,0,1-12.37-1.33c-.31-.09-.61-.23-.91-.35-3.52-1.51-4.08-2.7-3-6.36a15.32,15.32,0,0,1,3.36-6.23,1.64,1.64,0,0,0,.43-1.38,20,20,0,0,1,1.55-10c1-2.14.6-4.39.29-6.61-.07-.5-.54-9.57-.6-10.07,2-7,9.5-5,11.62-4.42,3.58.92,9.22,2.71,9.38,10,.35,0-2.64,6.83-2.29,6.91a14.36,14.36,0,0,0-.56,8.08,12,12,0,0,1-.11,4.42,24.66,24.66,0,0,0,.24,9,18,18,0,0,1-.1,5.28,1.35,1.35,0,0,1-.86,1.14,20.41,20.41,0,0,1-4.55,1.69"/>
        <path class="cls-2" d="M69.11,223.76A2.38,2.38,0,0,1,66.66,221a10.23,10.23,0,0,1,2.12-5.67c1.25-1.54,3-1.29,3.65.56a11.24,11.24,0,0,1,.25,6.06C72.54,222.65,71,223.93,69.11,223.76Z"/>
        <path class="cls-2" d="M66.2,216.82a8,8,0,0,1-.72,4.05,3.33,3.33,0,0,1-5,1.23,2.39,2.39,0,0,1-.81-2.72,10.47,10.47,0,0,1,2.69-5.2,2.18,2.18,0,0,1,2.43-.73,2.24,2.24,0,0,1,1.37,2.25C66.22,216.13,66.2,216.56,66.2,216.82Z"/>
        <path class="cls-2" d="M56.59,220.5c-2,0-2.94-1.15-2.48-3.09a8.3,8.3,0,0,1,2.73-4.57,4.27,4.27,0,0,1,1.2-.71c1.57-.54,2.5.3,2.16,1.93s-.62,3.11-1,4.63A2.22,2.22,0,0,1,56.59,220.5Z"/>
      </g>
      <g>
        <path class="cls-1" d="M121,192.89a15.63,15.63,0,0,1-9.56-5.36c-3.14-3.92-.91-8.46,2.81-14.54,3.83-3.28,5.34-2.58,8.25-2.49,1.19,0,4.25,3.95,5.1,4.78,1.08,1.05,2.11,2.16,3.28,3.12a8.9,8.9,0,0,0,3.79,2,19.27,19.27,0,0,1,8.8,4.66,1.67,1.67,0,0,0,1.25.46,19.83,19.83,0,0,1,8,1.61c1.36.53,1.6,1.78,1.64,3a11.41,11.41,0,0,1-.88,4.54c-1.6,4.09-3.35,8.13-7,10.86-4.16,3.12-3.06,2.93-7.33.33a14.52,14.52,0,0,1-2.87-2.32,20.44,20.44,0,0,0-5.19-3.78,19.72,19.72,0,0,1-5.16-3.87A12.81,12.81,0,0,0,121,192.89Z"/>
        <path class="cls-2" d="M145.72,197a6.52,6.52,0,0,1-2.34-2,1.86,1.86,0,0,1,1-3,8.42,8.42,0,0,1,7.64,1.51,2.44,2.44,0,0,1,.41,2.81,2.82,2.82,0,0,1-2.86,2A8.12,8.12,0,0,1,145.72,197Z"/>
        <path class="cls-2" d="M143.46,203.26a10.06,10.06,0,0,1-2.88-2.83c-1-1.52-.41-2.79,1.36-3.12a8,8,0,0,1,4.72.82,5,5,0,0,1,2,1.17,2.19,2.19,0,0,1,.46,2.75C147.89,204.69,146.41,205.09,143.46,203.26Z"/>
        <path class="cls-2" d="M146.39,190.31c-2-1.17-2-2.31-.48-3.24a4.58,4.58,0,0,1,2.61-.55,10.75,10.75,0,0,1,3.49.71,2.73,2.73,0,0,1,1.74,3.48c-.42,1.32-1.7,1.89-3.29,1.31S147.41,190.75,146.39,190.31Z"/>
      </g>
      <g>
        <path class="cls-3" d="M126.86,87.75c-4.79,2.49-6.5,1.5-8.2-1.26,2.19-4.91,5.87-12.53,8.59-17.17a76,76,0,0,0,6.66-14.64,25.81,25.81,0,0,1,3.5-7.29,6.91,6.91,0,0,1,2.13-2,3.13,3.13,0,0,1,4.74,1.31,1.5,1.5,0,0,0,1.36.93,4.85,4.85,0,0,1,4,3.51,1.67,1.67,0,0,0,1,1.1c1.82.8,3.13,2,3.2,4.21a1,1,0,0,0,.36.75,4,4,0,0,1,1,4.75c-2.36,2.06-4.95,3.82-7.33,5.86q-4.11,3.52-8.1,7.17c-3.33,3-6.57,6.2-10.13,9A25.47,25.47,0,0,0,126.86,87.75Z"/>
        <path class="cls-2" d="M144.26,59.12c-2.3.61-3.62-.58-3.08-2.49A9.9,9.9,0,0,1,145.1,51a1.85,1.85,0,0,1,2-.09,3.36,3.36,0,0,1,1.13,5.34A10.18,10.18,0,0,1,144.26,59.12Z"/>
        <path class="cls-2" d="M153.68,58.88a2.73,2.73,0,0,1-1.1,3.08,11.07,11.07,0,0,1-4.94,2.33,1.82,1.82,0,0,1-2.37-2.24,7.31,7.31,0,0,1,1.91-3.47,9,9,0,0,1,2.29-2,2.22,2.22,0,0,1,3,.42A3.85,3.85,0,0,1,153.68,58.88Z"/>
        <path class="cls-2" d="M144.1,49a2.58,2.58,0,0,1-1,2.81c-1,1-2.08,1.89-3.14,2.81-.48.42-1,.9-1.73.54a1.94,1.94,0,0,1-1.05-1.88,7.91,7.91,0,0,1,2.19-5.15,4.73,4.73,0,0,1,.4-.37C141.64,46.14,143.5,46.73,144.1,49Z"/>
      </g>
      <g>
        <path class="cls-3" d="M41.13,103.09c-4-.15-10.59-.28-15,.54-3.55.67-7.19,1-10.71,1.81-3.06.67-6,1.68-9.09,2.33a4,4,0,0,1-3.21-3.64,1,1,0,0,0-.39-.74C1,102,.82,100.24,1.28,98.3A1.71,1.71,0,0,0,1,96.83a4.85,4.85,0,0,1-.4-5.31A1.51,1.51,0,0,0,.7,89.88,3.13,3.13,0,0,1,2.51,85.3a7.1,7.1,0,0,1,2.85-.52,26.13,26.13,0,0,1,7.93,1.59,76.76,76.76,0,0,0,15.86,3.18c5.34.61,13.48,2.59,18.72,3.8,1.18,3,2.17,7.69-2.69,10A19,19,0,0,0,41.13,103.09Z"/>
        <path class="cls-2" d="M10.6,97.32c1.88-1.48,1.72-3.24-.13-4a9.93,9.93,0,0,0-6.86-.26,1.87,1.87,0,0,0-1.3,1.57A3.36,3.36,0,0,0,5.9,98.77,10.23,10.23,0,0,0,10.6,97.32Z"/>
        <path class="cls-2" d="M4.74,104.69a2.72,2.72,0,0,0,3.12,1,11.14,11.14,0,0,0,4.84-2.54,1.82,1.82,0,0,0-.37-3.25,7.21,7.21,0,0,0-3.92-.55,8.86,8.86,0,0,0-2.95.63A2.23,2.23,0,0,0,4,102.62,3.88,3.88,0,0,0,4.74,104.69Z"/>
        <path class="cls-2" d="M2.63,91.11a2.57,2.57,0,0,0,2.84.9c1.39-.19,2.76-.51,4.13-.81.63-.13,1.32-.25,1.47-1a1.92,1.92,0,0,0-.86-2,7.82,7.82,0,0,0-5.43-1.35,3.38,3.38,0,0,0-.54.09C1.81,87.41,1.17,89.25,2.63,91.11Z"/>
      </g>
      <path class="cls-4" d="M57.79,189.56C45,184.1,37.3,174.31,33.41,161.19a45.3,45.3,0,0,1-1.65-16.48,75.81,75.81,0,0,1,4.36-19c2.36-6.82,5.31-13.41,8-20.11.21-.52,1.77-4.46,1.83-4.52l6.83-15.74a14.94,14.94,0,0,1,1.69-2.82c1.21-1.65,2.68-9,3.81-8.33,8.32,4.6,11.58,4.55,21,5.2,8,.56,13.7,1.18,21.46-.93,10.11-2.74,8.52-3.41,12.71-8,.36.13,11.71,24.8,11.83,25.11,1.77,4.16,4,8.1,6.06,12.1q2.5,4.8,4.84,9.68c1.36,2.82,2.39,5.78,3.77,8.59.6,1.93,1.22,3.84,1.78,5.78a49,49,0,0,1,2.37,15,47.23,47.23,0,0,1-4.2,18,50.19,50.19,0,0,1-18.17,22c-.93.62-1.87,1.21-2.81,1.82-1.36.65-2.71,1.31-4.09,1.93A50.11,50.11,0,0,1,103.18,194c-1.07.2-4.19.77-4.69.81-4.93.47-9.92-.18-14.85-.23-2,0-4.09-.25-6.13-.38-.35-.07-8.38-1.15-12-2.08C63.42,191.57,58.28,189.77,57.79,189.56Z"/>
      <path class="cls-5" d="M33.16,82.7c0-18,21.25-32.77,48-32.77s46.95,13.79,46.95,31.84S107.74,113.23,81,113.23,33.16,100.76,33.16,82.7Z"/>
      <path class="cls-6" d="M37.57,82.6c0-16.38,19.28-29.72,43.57-29.72s42,14.2,42.58,28.87c.6,16.37-18.5,28.53-42.79,28.53S37.57,99,37.57,82.6Z"/>
      <path class="cls-7" d="M41.53,82.81c0-14.87,17.5-27,39.56-27s37.85,11.46,38.53,26.8c.65,14.86-17.3,25.57-39.36,25.57S41.53,97.69,41.53,82.81Z"/>
      <path class="cls-8" d="M44.94,82.73c0-13.57,16-24.64,36.12-24.64s34.68,10.65,34.68,24.22S101,105.69,80.88,105.69,44.94,96.31,44.94,82.73Z"/>
      <path class="cls-9" d="M49.27,82.63C48.81,69,63.31,61,81,61s30.55,9.56,30.55,21.49-13,20.33-30.71,20.33S49.68,94.55,49.27,82.63Z"/>
      <path class="cls-10" d="M53,82.62c0-10.45,12.46-19.06,28-19.06s27.19,8,27.19,18.44-12.07,19.06-27.58,19.06S53,93.08,53,82.62Z"/>
      <path class="cls-11" d="M56.71,82.45C54.9,73.54,67.42,65.94,80.92,65.94s22.74,7.12,22.74,16.22S93,98.74,79.49,98.74,58.1,89.29,56.71,82.45Z"/>
      <g>
        <ellipse class="cls-12" cx="80.8" cy="80.38" rx="19.29" ry="15.26"/>
        <path class="cls-13" d="M113,57.21a21.52,21.52,0,0,1-2.71,13.41c-3.23,5.14-8.24,9-13.32,12.24A56.23,56.23,0,0,1,75.3,91.15c-6.24,1-13,1.23-19.13-.55-4.15-.72-9.69-4-11.05-8,.9-3.56,2.29-7.12,6-10,6.82-5,12.31-5,20.61-8.29,6.49-2.24,16-5.56,22-9C99.55,52,109.05,51.32,113,57.21Z"/>
        <g>
          <path class="cls-14" d="M68,82.25c.05,1.76-.11,3.44-1.57,4.69a8.48,8.48,0,0,1-5.45,1.49c-3.87.06-5.81-2-6.37-4.51a88.07,88.07,0,0,0,12.35-1.39C67.27,82.45,67.61,82.34,68,82.25Z"/>
          <path class="cls-2" d="M56.38,84.05c.39,2,2.66,3.14,4.45,3.31a17.89,17.89,0,0,0,5.56-.42c-2.22,2.15-8.23,2.1-10.32-.09a6.22,6.22,0,0,1-1.49-2.72Z"/>
          <path class="cls-4" d="M84.45,15.73C89.85,18.89,93,23.79,95,29.54c.43,1.23.8,2.47,1.11,3.73a1,1,0,0,0,1,.86,20.73,20.73,0,0,1,9.38,3c3.83,2.54,5.88,6.28,7.08,10.56.75,2.64,1.24,7.15-.46,9.32-3.37,6-9.24,10.29-15.06,13.63A108.85,108.85,0,0,1,79.26,79,87,87,0,0,1,68,82.25c-.35.09-.69.2-1,.28a64.67,64.67,0,0,1-10.54,1.52l-1.8.08a27.18,27.18,0,0,1-9.46-1.51,11.36,11.36,0,0,1-3.78-2.05,31.27,31.27,0,0,1-3-3.32,30,30,0,0,1-2-4.26,19.88,19.88,0,0,1-.11-8.85,26.43,26.43,0,0,1,3.13-7.68,1.43,1.43,0,0,0,0-1.66,30.89,30.89,0,0,1-4-12.55,24.66,24.66,0,0,1,.54-7.89,28.56,28.56,0,0,1,1-3A32.53,32.53,0,0,1,39.48,27c4.45-6.13,10.58-10,17.75-12.19a49.91,49.91,0,0,1,12-2.26,32.52,32.52,0,0,1,9.33.8A19.81,19.81,0,0,1,84.45,15.73Z"/>
        </g>
        <path class="cls-14" d="M70.14,37.1A17,17,0,0,1,68,25.85c.54-3,1.9-5.44,5.14-6.32a5.41,5.41,0,0,1,3.59.35c4.38,1.81,7.75,8.77,6.49,13.32-.12.41-.22.83-.33,1.25A110.07,110.07,0,0,0,70.14,37.1Z"/>
        <path class="cls-14" d="M59.5,41.21a17.07,17.07,0,0,0-6-9.75c-2.39-1.84-5.06-2.76-8-1.24A5.48,5.48,0,0,0,43,32.89c-2,4.29.14,11.71,4.14,14.23l1.08.71A111.61,111.61,0,0,1,59.5,41.21Z"/>
        <path class="cls-15" d="M79.22,22.4c.18-.23.51-.1.8-.06a5.52,5.52,0,0,0,1.72.06,2.43,2.43,0,0,0,1.51-.77,8.14,8.14,0,0,1-.47,1.09c-.21.42-.53.87-1,.91A2.21,2.21,0,0,0,84,23a5.08,5.08,0,0,1-1.09,1.39,2,2,0,0,1-1.65.46,3.15,3.15,0,0,1-.71-.3,3.54,3.54,0,0,1-1-.79A1.52,1.52,0,0,1,79.22,22.4Z"/>
        <path class="cls-15" d="M42.66,37.43c-.29,0-.4.32-.55.57A5.88,5.88,0,0,1,41,39.35a2.41,2.41,0,0,1-1.56.65,7.75,7.75,0,0,0,1.13.35A1.42,1.42,0,0,0,42,40.17a2.24,2.24,0,0,1-2,1.24,5,5,0,0,0,1.77.06,2,2,0,0,0,1.42-1,2.59,2.59,0,0,0,.23-.73,3.42,3.42,0,0,0,.08-1.31A1.49,1.49,0,0,0,42.66,37.43Z"/>
        <circle class="cls-16" cx="50.36" cy="38.1" r="6.35"/>
        <circle class="cls-16" cx="75.66" cy="29.12" r="6.35"/>
        <circle class="cls-17" cx="50.59" cy="38.16" r="4.08"/>
        <circle class="cls-17" cx="75.74" cy="29.04" r="4.08"/>
        <circle class="cls-14" cx="52.63" cy="35.06" r="1.86"/>
        <circle class="cls-14" cx="77.65" cy="26.3" r="1.83"/>
        <path class="cls-16" d="M82.92,34.45A109.19,109.19,0,0,0,70.14,37.1a70.22,70.22,0,0,0-21.6,10.54c-5,4.56-5.38,5.52-5.44,5.82s8.26-7,15-9.8C66,40.45,78.81,35.16,93.37,35A32.47,32.47,0,0,0,82.92,34.45Z"/>
        <path class="cls-16" d="M52.73,27.33c-2.71-.6-5.39-1-7.89.62a8.57,8.57,0,0,0-3.78,6.94c-.61-2.49-.92-5,.74-7.2a6,6,0,0,1,5.53-2.32A9.78,9.78,0,0,1,52.73,27.33Z"/>
        <path class="cls-16" d="M66.79,22c.43-2.86,3.55-6.78,7.24-6.86,2.48-.06,5.76,2.35,6.21,4.68-.43,0-.62-.32-.89-.54a7.76,7.76,0,0,0-11.57,1.59,4.08,4.08,0,0,1-1,1.14Z"/>
        <g id="ear">
          <path class="cls-18" d="M78.58,13.44a19.65,19.65,0,0,1,0-3.91,11.93,11.93,0,0,1,5.36-8.42c2.55-1.83,6.9-1.3,9.13.92a4.93,4.93,0,0,1-1.2,7.86,8.31,8.31,0,0,1-2,.86,10.12,10.12,0,0,0-6,4.76S81.46,14.51,78.58,13.44Z"/>
          <path class="cls-18" d="M36.15,33.64A10.92,10.92,0,0,0,28,34.1a5.19,5.19,0,0,1-5.89-.73,4.9,4.9,0,0,1-1.24-5.63c1.77-4.11,4.66-5.62,9.09-4.95a11.92,11.92,0,0,1,8.6,5.57A50.4,50.4,0,0,1,36.15,33.64Z"/>
          <path class="cls-16" d="M36.69,32.22a17.85,17.85,0,0,0-9.47-3,13.71,13.71,0,0,1,10.38.84A4.89,4.89,0,0,1,36.69,32.22Z"/>
          <path class="cls-16" d="M80.23,13.7a12.61,12.61,0,0,1,6.59-6.6c-1.91,2.13-3.76,4.62-4.36,7.5A12.25,12.25,0,0,1,80.23,13.7Z"/>
        </g>
        <path class="cls-1" d="M114.21,60.82c.59,3.7-1,7.08-1.39,8.34-.51,1-1,2-1.52,3L108.78,76,106,79.08c-1.35,1.18-4.92,4.15-5.33,4.49a71.73,71.73,0,0,1-7.11,4.49c-6.5,3.27-9.79,5.19-17.07,5.88-2.95.26-8.51.81-11.46.54a80.75,80.75,0,0,1-8.52-1.32c-3.34-.46-10.86-3.52-11.94-11.06.17,0,.33,0,.44.11a10.72,10.72,0,0,0,1,1.72,21,21,0,0,0,9.89,5.78,42,42,0,0,0,18.55.76,57.16,57.16,0,0,0,21.91-8.33,39.73,39.73,0,0,0,12.77-12.31c2.37-3.77,4-7.79,3.47-12.38a.58.58,0,0,1,.58-.67A13.5,13.5,0,0,1,114.21,60.82Z"/>
        <path class="cls-16" d="M88.77,40.43a6.65,6.65,0,0,1,8.91,5,4.93,4.93,0,0,1-1.46,3.85,8.24,8.24,0,0,1-4.45,2.91,3.52,3.52,0,0,1-1.37.08A8.33,8.33,0,0,1,84,47.33c-1-2.2-.12-3.88,2.26-4.33a10.8,10.8,0,0,1,5.35.29c1.12.36,1.66,1.33,1.67,3a1.93,1.93,0,0,1-1.56,2.06,7.37,7.37,0,0,0,.06-1.93,2.27,2.27,0,0,0-2-2.09A4,4,0,0,0,86,45.5a1.72,1.72,0,0,0-.31,1.91,3.77,3.77,0,0,0,2.72,2.4c1.81.41,3.6.5,5.19-.66a4.32,4.32,0,0,0,.36-6.39A8.56,8.56,0,0,0,88.77,40.43Z"/>
        <path class="cls-16" d="M49.48,55a11,11,0,0,0-2,3.85,4.45,4.45,0,0,0,1.88,5.11c1.63,1,3.43.84,5.19-.59A5.36,5.36,0,0,0,56.77,60a2.62,2.62,0,0,0-.94-2.81,2.74,2.74,0,0,0-2.79.06c-2.09,1-3.3,3-.38,5.57a2.11,2.11,0,0,1-2.54-.61,2.87,2.87,0,0,1-.83-3.05,9.63,9.63,0,0,1,4.59-4.28c2-.86,3.63.17,4.08,2.48a8.7,8.7,0,0,1-1.47,7.11c-1.4,1.9-3.53,2.17-5.66,2-2-.15-3.86-.65-4.91-2.65C44.26,60.65,46.14,55.81,49.48,55Z"/>
      </g>
    </g>
  </g>
</svg>
