<svg xmlns="http://www.w3.org/2000/svg" viewBox="0 0 135.5 220.75">
  <defs>
    <style>
      .cls-1 {
        fill: #73869c;
      }

      .cls-2 {
        fill: #c2c8ce;
      }

      .cls-3 {
        fill: #8497aa;
      }

      .cls-4 {
        fill: #7d90a4;
      }

      .cls-5 {
        fill: #d42327;
      }

      .cls-6 {
        fill: #f16635;
      }

      .cls-7 {
        fill: #fde500;
      }

      .cls-8 {
        fill: #71b34b;
      }

      .cls-9 {
        fill: #a2ddf7;
      }

      .cls-10 {
        fill: #488dcb;
      }

      .cls-11 {
        fill: #382f8d;
      }

      .cls-12 {
        fill: #8396a9;
      }

      .cls-13 {
        fill: #3e3e3e;
      }

      .cls-14 {
        fill: #fff;
      }

      .cls-15 {
        fill: #363e46;
      }

      .cls-16 {
        fill: #4d5e70;
      }

      .cls-17 {
        fill: #050607;
      }

      .cls-18 {
        fill: #728190;
      }

      .cls-19 {
        fill: #1aadd6;
      }

      .cls-20 {
        fill: #0091c8;
      }
    </style>
  </defs>
  <title>p24</title>
  <g id="character">
    <g>
      <g>
        <g>
          <path class="cls-1" d="M72.48,200.4a32.83,32.83,0,0,1-.93,13.66c-.09.35-.23.68-.35,1-1.51,3.94-2.79,4.6-6.87,3.56a17,17,0,0,1-7-3.42,1.81,1.81,0,0,0-1.54-.42,22.07,22.07,0,0,1-11.11-1.27c-2.4-.95-4.85-.47-7.29,0-.54.1-10.51,1-11.06,1.09-7.76-1.92-5.87-10.24-5.36-12.6.86-4,2.59-10.26,10.6-10.75,0-.39,7.63,2.61,7.69,2.22a15.74,15.74,0,0,0,8.92.27,13.22,13.22,0,0,1,4.86-.07,27,27,0,0,0,9.88-.65,19.57,19.57,0,0,1,5.82-.11,1.47,1.47,0,0,1,1.29.89,22.42,22.42,0,0,1,2,4.93"/>
          <path class="cls-2" d="M72.33,201.43c-.09,1.83-1.12,2.91-3,2.81a11.26,11.26,0,0,1-6.33-2.08c-1.75-1.32-1.56-3.25.46-4a12.47,12.47,0,0,1,6.66-.54C71,197.7,72.44,199.38,72.33,201.43Z"/>
          <path class="cls-2" d="M64.82,204.92a8.87,8.87,0,0,1,4.49.62A3.67,3.67,0,0,1,70.87,211a2.62,2.62,0,0,1-3,1,11.62,11.62,0,0,1-5.84-2.74,2.4,2.4,0,0,1-.91-2.64,2.46,2.46,0,0,1,2.41-1.6C64.06,204.93,64.53,204.93,64.82,204.92Z"/>
          <path class="cls-2" d="M69.29,215.34c0,2.22-1.14,3.29-3.3,2.87a9.21,9.21,0,0,1-5.15-2.81,4.66,4.66,0,0,1-.83-1.29c-.66-1.7.22-2.76,2-2.46s3.45.54,5.14.94A2.45,2.45,0,0,1,69.29,215.34Z"/>
        </g>
        <g>
          <path class="cls-1" d="M103.23,191a17.27,17.27,0,0,1,11.57-3.45c5.51.53,7.39,5.77,9.34,13.38-.34,5.54-2,6.19-4.36,8.43-.94.91-6.37.33-7.68.37-1.67.05-3.33,0-5,.2a9.81,9.81,0,0,0-4.49,1.46,21.38,21.38,0,0,1-10.42,3.39,1.74,1.74,0,0,0-1.32.63,22.11,22.11,0,0,1-7.41,5.09c-1.47.67-2.64-.1-3.67-1a12.65,12.65,0,0,1-2.91-4.18c-2-4.4-3.86-8.88-3.23-13.86.73-5.68,0-4.66,5.36-6a15.75,15.75,0,0,1,4-.5,22.86,22.86,0,0,0,7-1.19,21.39,21.39,0,0,1,7-1.12A13.87,13.87,0,0,0,103.23,191Z"/>
          <path class="cls-2" d="M81,207.38a7.29,7.29,0,0,1,3.4-.3,2.06,2.06,0,0,1,1.62,3A9.27,9.27,0,0,1,79,215a2.67,2.67,0,0,1-2.54-1.83c-.67-1.64-.5-2.77.57-3.82A8.84,8.84,0,0,1,81,207.38Z"/>
          <path class="cls-2" d="M77.81,200.8a11,11,0,0,1,4.45-.09c1.93.4,2.52,1.81,1.43,3.46a8.84,8.84,0,0,1-4.27,3.1,5.57,5.57,0,0,1-2.49.71,2.42,2.42,0,0,1-2.53-1.75C73.29,203.22,74.1,201.74,77.81,200.8Z"/>
          <path class="cls-2" d="M85.8,213.06c2.44-.66,3.34.22,2.93,2.1a5.07,5.07,0,0,1-1.56,2.49,12.27,12.27,0,0,1-3.23,2.21,3,3,0,0,1-4.1-1.29c-.71-1.34-.19-2.79,1.49-3.61S84.68,213.53,85.8,213.06Z"/>
        </g>
        <path class="cls-3" d="M37.27,201.29c-14.07-6-22.56-16.8-26.85-31.25a49.78,49.78,0,0,1-1.81-18.15,83.94,83.94,0,0,1,4.79-20.95c2.61-7.51,5.86-14.76,8.78-22.14.23-.58,1.95-4.91,2-5l7.51-17.34a16.15,16.15,0,0,1,1.87-3.11c1.33-1.82,3-9.86,4.19-9.17,9.17,5.06,12.75,5,23.14,5.73,8.85.61,15.09,1.29,23.64-1,11.12-3,9.38-3.75,14-8.79.39.14,12.89,27.32,13,27.65,2,4.58,4.38,8.92,6.67,13.33q2.76,5.3,5.34,10.66c1.49,3.11,2.63,6.37,4.15,9.46.65,2.12,1.34,4.24,2,6.37a54.14,54.14,0,0,1,2.61,16.52,52,52,0,0,1-4.63,19.83,55.26,55.26,0,0,1-20,24.23c-1,.68-2.07,1.34-3.1,2-1.5.72-3,1.45-4.5,2.13a55.47,55.47,0,0,1-12.8,3.87c-1.18.22-4.61.84-5.16.89-5.43.51-10.93-.2-16.35-.26-2.26,0-4.51-.27-6.76-.41-.39-.08-9.23-1.28-13.18-2.29C43.48,203.5,37.82,201.52,37.27,201.29Z"/>
        <path class="cls-4" d="M27.34,104.69c-1.52,4.09-3.95,11-4.62,15.9-.53,3.94-1.4,7.87-1.8,11.82-.36,3.43-4.1,10.18-6.24,9.7-.34-.08-6.68.63-7.49-2.18a2.5,2.5,0,0,1,1.63-3.08s-5-.4-5.62-2.66c-.82-3.07,2.06-3.8-.6-4C-1.27,127.31-2,122.35,9,112.55c2.48-5.37,7.36-13.2,10.44-18.27,3.56-.19,8.78.38,9.54,6.27A21.14,21.14,0,0,0,27.34,104.69Z"/>
        <path class="cls-4" d="M106.48,100.55c.76-5.89,2.28-11.41,5.84-11.22,3.08,5.06,11.65,17.85,14.14,23.22,11.09,9.8,10.31,14.76,6.44,17.66-2.66.18.22.91-.6,4-.61,2.26-5.62,2.66-5.62,2.66a2.51,2.51,0,0,1,1.63,3.08c-.81,2.81-7.16,2.1-7.49,2.18-2.14.48-5.88-6.27-6.24-9.7-.4-3.95-1.27-7.88-1.81-11.82-.66-4.92-3.09-11.81-4.61-15.9A21.14,21.14,0,0,0,106.48,100.55Z"/>
        <path class="cls-5" d="M10.15,83.6c0-19.88,23.4-36.09,52.9-36.09s51.7,15.19,51.7,35.07-22.46,34.64-52,34.64S10.15,103.49,10.15,83.6Z"/>
        <path class="cls-6" d="M15,83.49c0-18,21.23-32.73,48-32.73s46.3,15.64,46.89,31.8c.67,18-20.37,31.42-47.12,31.42S15,101.52,15,83.49Z"/>
        <path class="cls-7" d="M19.36,83.73C19.36,67.35,38.64,54,62.94,54s41.68,12.63,42.42,29.52c.72,16.36-19,28.15-43.34,28.15S19.36,100.11,19.36,83.73Z"/>
        <path class="cls-8" d="M23.12,83.64c0-15,17.6-27.14,39.78-27.14s38.2,11.72,38.2,26.68-16.21,25.74-38.4,25.74S23.12,98.59,23.12,83.64Z"/>
        <path class="cls-9" d="M27.9,83.53c-.52-15,15.46-23.85,34.94-23.85S96.49,70.21,96.49,83.35s-14.33,22.38-33.82,22.38S28.35,96.65,27.9,83.53Z"/>
        <path class="cls-10" d="M32,83.52c0-11.52,13.72-21,30.8-21s29.94,8.79,29.94,20.3-13.29,21-30.37,21S32,95,32,83.52Z"/>
        <path class="cls-11" d="M36.09,83.33c-2-9.82,11.79-18.19,26.66-18.19s25,7.84,25,17.87S76,101.27,61.17,101.27,37.62,90.86,36.09,83.33Z"/>
        <g>
          <ellipse class="cls-12" cx="61.47" cy="81" rx="16.81" ry="21.24" transform="translate(-36.33 108.84) rotate(-68.7)"/>
          <path class="cls-13" d="M103.72,70.1c-1.33,4.9-4.21,9.75-8.14,12.66C90.2,86.75,83.52,88.71,77,90a61.55,61.55,0,0,1-25.5-.14c-6.8-1.47-13.84-3.94-19.41-8.21-4-2.41-8.33-8-8.14-12.62,2.34-3.29,5.2-6.39,10.16-7.84,9-2.44,14.64-.22,24.46-.26,7.56.29,18.68.7,26.17-.42C92.05,59.41,102.07,62.49,103.72,70.1Z"/>
          <g>
            <path class="cls-14" d="M47.54,77.78c-.65,1.83-1.49,3.49-3.49,4.19a9.39,9.39,0,0,1-6.18-.65c-4-1.49-5.17-4.36-4.74-7.19,3.74,1.17,9.34,3,13.23,3.52C46.75,77.71,47.14,77.74,47.54,77.78Z"/>
            <path class="cls-2" d="M34.94,75c-.39,2.17,1.47,4.28,3.24,5.18A20,20,0,0,0,44.05,82c-3.13,1.32-9.28-1.13-10.55-4.23a6.84,6.84,0,0,1-.44-3.38Z"/>
            <path class="cls-3" d="M91.08,16.13c4.27,5.4,5.54,11.69,5.29,18.39-.05,1.43-.16,2.86-.35,4.27a1,1,0,0,0,.68,1.28A22.77,22.77,0,0,1,105.11,47c2.91,4.13,3.51,8.79,3,13.66-.29,3-1.59,7.84-4.21,9.38-5.87,4.84-13.59,6.87-20.89,8a121.09,121.09,0,0,1-22.6,1,94.68,94.68,0,0,1-12.91-1.15c-.4,0-.79-.07-1.18-.13A70.86,70.86,0,0,1,34.94,75l-1.88-.64A30,30,0,0,1,24,69a12.37,12.37,0,0,1-3.07-3.61,34.56,34.56,0,0,1-1.71-4.59,33,33,0,0,1-.33-5.17,21.69,21.69,0,0,1,3.43-9.13,28.79,28.79,0,0,1,6.27-6.62,1.58,1.58,0,0,0,.69-1.7,33.92,33.92,0,0,1,.87-14.49,27.24,27.24,0,0,1,3.72-7.88,30.06,30.06,0,0,1,2.23-2.67,34.23,34.23,0,0,1,4.38-3.49c7-4.51,14.85-6,23.09-5.41A55,55,0,0,1,76.72,6.74,35.93,35.93,0,0,1,86,11.29,22.39,22.39,0,0,1,91.08,16.13Z"/>
          </g>
          <path class="cls-15" d="M83,20.88c.28-.17.56.1.84.26a6.24,6.24,0,0,0,1.74.75,2.76,2.76,0,0,0,1.86-.18,10,10,0,0,1-.91.93,1.62,1.62,0,0,1-1.4.53,2.43,2.43,0,0,0,2.53.17,5.51,5.51,0,0,1-1.68,1,2.21,2.21,0,0,1-1.88-.18,3.05,3.05,0,0,1-.6-.59,3.74,3.74,0,0,1-.77-1.24A1.69,1.69,0,0,1,83,20.88Z"/>
          <path class="cls-15" d="M39.52,21.68c-.3-.14-.55.16-.8.36a6.27,6.27,0,0,1-1.64.95,2.74,2.74,0,0,1-1.87.05,10.07,10.07,0,0,0,1,.81,1.6,1.6,0,0,0,1.46.35,2.42,2.42,0,0,1-2.49.49,5.43,5.43,0,0,0,1.78.78,2.21,2.21,0,0,0,1.85-.42,2.81,2.81,0,0,0,.52-.66A3.91,3.91,0,0,0,40,23.08,1.68,1.68,0,0,0,39.52,21.68Z"/>
          <path class="cls-14" d="M67.84,32.33A18.74,18.74,0,0,1,70.18,20c1.74-2.84,4.13-4.83,7.8-4.44a6,6,0,0,1,3.54,1.79c3.77,3.62,4.45,12.11,1.33,16.27L82,34.72A123,123,0,0,0,67.84,32.33Z"/>
          <path class="cls-14" d="M55.28,32.29A18.81,18.81,0,0,0,53,19.9C51.32,17,48.94,15,45.27,15.4a6,6,0,0,0-3.56,1.77c-3.79,3.58-4.54,12.07-1.45,16.25.28.38.55.77.83,1.16A122.24,122.24,0,0,1,55.28,32.29Z"/>
          <circle class="cls-16" cx="47.14" cy="25.44" r="7"/>
          <circle class="cls-16" cx="76.7" cy="26.35" r="7"/>
          <circle class="cls-17" cx="47.36" cy="25.59" r="4.49"/>
          <circle class="cls-17" cx="76.81" cy="26.3" r="4.49"/>
          <circle class="cls-14" cx="50.69" cy="23.23" r="2.05"/>
          <circle class="cls-14" cx="79.87" cy="24.26" r="2.02"/>
          <path class="cls-16" d="M82,34.72a121.78,121.78,0,0,0-14.17-2.39A77.39,77.39,0,0,0,41.46,34.5c-7,2.66-7.73,3.51-7.9,3.79s11.27-3.86,19.31-4c9.41-.11,24.65-.43,39.63,5.26A35.62,35.62,0,0,0,82,34.72Z"/>
          <path class="cls-16" d="M53.89,15.34c-2.54-1.71-5.12-3.2-8.35-2.52s-5.24,2.76-6.65,5.6c.37-2.79,1-5.45,3.63-7.08a6.54,6.54,0,0,1,6.61-.17A10.84,10.84,0,0,1,53.89,15.34Z"/>
          <path class="cls-16" d="M70.43,15.54C72,12.77,76.79,10,80.6,11.39c2.57.94,5,4.72,4.5,7.29-.45-.14-.51-.58-.69-.9a8.56,8.56,0,0,0-12.52-3,4.65,4.65,0,0,1-1.45.79Z"/>
          <g id="ear">
            <path class="cls-18" d="M86,11.43a21.25,21.25,0,0,1,1.54-4c1.91-3.58,5.09-5.53,8.87-6.5,3.35-.86,7.6,1.43,9,4.61A5.44,5.44,0,0,1,101,13.1a9.4,9.4,0,0,1-2.37.09,11.22,11.22,0,0,0-8.06,2.48S88.5,13.68,86,11.43Z"/>
            <path class="cls-18" d="M34.35,15.18A12,12,0,0,0,25.8,12.4a5.72,5.72,0,0,1-5.75-3.11A5.39,5.39,0,0,1,21,3c3.46-3.52,7-3.91,11.31-1.45a13.12,13.12,0,0,1,6.6,9.16A56.66,56.66,0,0,1,34.35,15.18Z"/>
            <path class="cls-16" d="M35.48,13.94a19.74,19.74,0,0,0-8.54-6.82,15.05,15.05,0,0,1,10.31,5A5.47,5.47,0,0,1,35.48,13.94Z"/>
            <path class="cls-16" d="M87.56,12.36A13.89,13.89,0,0,1,97,8.22c-2.81,1.43-5.71,3.23-7.48,5.95A13.22,13.22,0,0,1,87.56,12.36Z"/>
          </g>
          <path class="cls-1" d="M103.57,74.31c-.88,4-3.87,6.86-4.77,8L96,84.8l-4.1,2.9-4.13,2c-1.85.67-6.69,2.28-7.25,2.47A78.91,78.91,0,0,1,71.45,94c-8,.75-12.12,1.4-19.86-.8-3.13-.91-9.06-2.57-12-4a87.9,87.9,0,0,1-8.22-4.76c-3.23-1.81-9.73-8-7.81-16.13.17,0,.34.09.4.29a12.4,12.4,0,0,0,.37,2.18,23.07,23.07,0,0,0,7.83,9.88,46.14,46.14,0,0,0,18.74,8.21,63.17,63.17,0,0,0,25.8.22,44,44,0,0,0,18-7.53c3.93-2.91,7.17-6.41,8.5-11.31a.64.64,0,0,1,.87-.45A15,15,0,0,1,103.57,74.31Z"/>
          <path class="cls-16" d="M85.62,43.21a7.33,7.33,0,0,1,7.16,8.67,5.49,5.49,0,0,1-3,3.36A9.07,9.07,0,0,1,84,56.45,3.75,3.75,0,0,1,82.56,56a9.17,9.17,0,0,1-4.62-7.62c-.17-2.66,1.43-4,4-3.54a11.9,11.9,0,0,1,5.37,2.44c1,.81,1.18,2,.53,3.71a2.13,2.13,0,0,1-2.43,1.5,7.9,7.9,0,0,0,.84-2,2.48,2.48,0,0,0-1.24-2.94,4.4,4.4,0,0,0-4.33-.27,1.9,1.9,0,0,0-1.08,1.83,4.17,4.17,0,0,0,1.84,3.56c1.68,1.14,3.49,1.94,5.58,1.39A4.76,4.76,0,0,0,90,47.65,9.5,9.5,0,0,0,85.62,43.21Z"/>
          <path class="cls-16" d="M39.49,42.42a11.84,11.84,0,0,0-3.58,3.15,4.88,4.88,0,0,0-.12,6C37.05,53.27,39,53.79,41.36,53A6,6,0,0,0,45,50.47a2.88,2.88,0,0,0,.15-3.26,3,3,0,0,0-2.88-1.06c-2.53.15-4.57,1.74-2.62,5.57a2.32,2.32,0,0,1-2.36-1.65c-.54-1.24-.42-2.81.37-3.45a10.63,10.63,0,0,1,6.42-2.57c2.36-.09,3.66,1.64,3.19,4.18A9.65,9.65,0,0,1,42.89,55c-2.2,1.38-4.49.81-6.62-.21-2-.94-3.7-2.21-4-4.68C31.86,46.14,35.74,41.92,39.49,42.42Z"/>
        </g>
      </g>
      <g>
        <g>
          <path class="cls-14" d="M19.67,107l-13,8.28,9.18,33.6,94.48-1.06,10.19-44.38-9.05-5.27s-28.65,4.61-45.84,23.26C65.65,121.38,55.25,108.68,19.67,107Z"/>
          <path class="cls-19" d="M3,115.77,18,170.94l44.61,2.22s8.26,7.14,15.92-2.44l47.49-10.8.58-58.67L75.19,117.89s-8.73,8.53-18.84,1.67Z"/>
        </g>
        <path class="cls-20" d="M56.35,119.56l6.3,53.6s7.54,7.31,15.92-2.44l-3.38-52.83S66.82,126.23,56.35,119.56Z"/>
      </g>
      <path class="cls-4" d="M4.38,123.13s7.49-1.25,8.11,2.5-9,4.21-9,4.21"/>
      <path class="cls-4" d="M5.76,130.29s7.92-1.22,8.43,1.87-7.72,3.6-7.72,3.6"/>
      <path class="cls-4" d="M8.62,137.13s6.87-.73,7.28,1.75-6.18,2.88-6.18,2.88"/>
      <path class="cls-4" d="M131.12,123.13s-7.49-1.25-8.12,2.5,9,4.21,9,4.21"/>
      <path class="cls-4" d="M129.74,130.29s-7.92-1.22-8.43,1.87,7.71,3.6,7.71,3.6"/>
      <path class="cls-4" d="M126.88,137.13s-6.87-.73-7.28,1.75,6.93,2.68,6.93,2.68"/>
    </g>
  </g>
</svg>
