<?xml version="1.0" encoding="utf-8"?>
<!-- Generator: Adobe Illustrator 23.0.1, SVG Export Plug-In . SVG Version: 6.00 Build 0)  -->
<svg version="1.1" id="Layer_1" xmlns="http://www.w3.org/2000/svg" xmlns:xlink="http://www.w3.org/1999/xlink" x="0px" y="0px"
	 viewBox="0 0 217.1 371.5" style="enable-background:new 0 0 217.1 371.5;" xml:space="preserve">
<style type="text/css">
	.st0{fill:#73869C;}
	.st1{fill:#C2C8CE;}
	.st2{fill:#8497AA;}
	.st3{fill:#7D90A4;}
	.st4{fill:#D42327;}
	.st5{fill:#F16635;}
	.st6{fill:#FDE500;}
	.st7{fill:#71B34B;}
	.st8{fill:#A2DDF7;}
	.st9{fill:#488DCB;}
	.st10{fill:#382F8D;}
	.st11{fill:#8396A9;}
	.st12{fill:#3E3E3E;}
	.st13{fill:#FFFFFF;}
	.st14{fill:#363E46;}
	.st15{fill:#4D5E70;}
	.st16{fill:#050607;}
	.st17{fill:#728190;}
	.st18{fill:#1AADD6;}
	.st19{fill:#0091C8;}
</style>
<title>p02</title>
<g id="character">
	<g>
		<g>
			<g>
				<path class="st0" d="M65.9,368c-6.9,2.9-14.2,3.6-21.7,3.4c-0.6,0-1.1-0.1-1.7-0.2c-6.7-1-8.2-2.7-8-9.5c0-4.2,1-8.4,2.8-12.1
					c0.4-0.8,0.5-1.7,0.1-2.5c-2.2-5.7-2.9-11.8-2-17.8c0.6-4.1-1-7.8-2.5-11.4c-0.3-0.8-5.3-16.1-5.6-16.9
					c0.2-12.8,13.9-12.8,17.8-12.9c6.5-0.1,17,0.4,20.6,12.7c0.6-0.1-1.3,12.8-0.7,12.8c-0.4,4.8,0.5,9.7,2.8,14
					c1.1,2.4,1.7,5,1.8,7.6c0.6,5.3,2.1,10.5,4.5,15.2c1.4,2.8,1.7,6,2.2,9c0.2,0.9-0.2,1.8-0.9,2.3c-2.1,1.9-4.5,3.6-7,5"/>
				<path class="st1" d="M64.2,368.2c-2.9,0.5-5-0.7-5.5-3.6c-0.7-3.6-0.4-7.3,1-10.6c1.4-3.2,4.5-3.6,6.5-0.7c2,3,3.1,6.6,3.2,10.2
					C69.5,364.7,67.4,367.6,64.2,368.2z"/>
				<path class="st1" d="M56.1,357.7c0.8,2.3,1.1,4.8,0.6,7.3c-0.6,3.2-3.7,5.3-6.9,4.7c-0.3-0.1-0.7-0.2-1-0.3
					c-2.1-0.7-2.5-2.5-2.6-4.3c-0.2-3.5,0.5-7,2.2-10.1c0.6-1.5,2.2-2.5,3.8-2.4c1.9,0.2,2.8,1.5,3.4,3.2
					C55.8,356.5,55.9,357.3,56.1,357.7z"/>
				<path class="st1" d="M41.4,368.4c-3.5,0.9-5.5-0.6-5.7-4.1c-0.2-3.2,0.7-6.4,2.5-9c0.5-0.7,1-1.3,1.7-1.8
					c2.4-1.6,4.4-0.6,4.6,2.3s0.4,5.6,0.4,8.4C44.9,366.6,43.8,367.8,41.4,368.4z"/>
			</g>
			<g>
				<path class="st0" d="M148.7,315.4c-1.1-6.6,0.1-13.3,3.6-19c4.8-7.5,13.6-6.3,25.9-3.5c7.7,4.5,7.3,7.5,8.8,12.4
					c0.6,2-4.2,9.3-5.1,11.2c-1.1,2.4-2.4,4.8-3.4,7.2c-1,2.4-1.4,4.9-1.2,7.5c0.6,5.9-0.4,11.9-2.8,17.3c-0.4,0.7-0.4,1.6-0.1,2.3
					c1.6,4.6,2.2,9.5,1.8,14.3c-0.1,2.6-2.1,3.7-4.2,4.5c-2.6,0.9-5.3,1.3-8.1,1.1c-7.7-0.4-15.5-1-22.1-5.6
					c-7.6-5.2-6.6-3.5-4.7-12.1c0.5-2.1,1.3-4.2,2.3-6.1c1.7-3.4,2.8-7,3.4-10.8c0.6-3.8,1.8-7.4,3.6-10.8
					C147.9,322.2,148.7,318.8,148.7,315.4z"/>
				<path class="st1" d="M155.7,359c0.3-1.8,1-3.5,2.1-5c1.5-2,4.1-2.1,5.5-0.1c2.8,4,3.4,9.1,1.8,13.6c-0.5,1.5-2.6,2.4-4.5,2.3
					c-2.8-0.2-4.3-1.3-5-3.6C155,363.8,155,361.4,155.7,359z"/>
				<path class="st1" d="M144,358.8c0.6-2.3,1.7-4.5,3.1-6.4c2-2.5,4.4-2.3,6,0.5c1.5,2.6,1.5,5.5,1.3,8.4c0,1.4-0.2,2.8-0.8,4.1
					c-1.1,1.9-2.2,2.6-4.4,2.3C144.1,367,142.6,364.7,144,358.8z"/>
				<path class="st1" d="M167.3,356.4c0.9-4,2.8-4.6,5.2-2.6c1.2,1.1,2,2.5,2.4,4.1c0.6,2,0.9,4.1,0.8,6.2c0,2.7-2.1,4.8-4.7,4.9
					c0,0-0.1,0-0.1,0c-2.4,0-4.1-1.8-4.1-4.8S167.1,358.3,167.3,356.4z"/>
			</g>
			<path class="st2" d="M59.7,322.5c-22.5-9.6-36.1-26.9-43-50c-2.7-9.4-3.7-19.3-2.9-29.1c0.9-11.5,3.9-22.6,7.7-33.6
				c4.2-12,9.4-23.6,14.1-35.5c0.4-0.9,3.1-7.9,3.2-8l12-27.8c0.8-1.8,1.8-3.4,3-5c2.1-2.9,4.7-15.8,6.7-14.7
				c14.7,8.1,20.4,8,37.1,9.2c14.2,1,24.2,2.1,37.9-1.6c17.8-4.8,15-6,22.4-14.1c0.6,0.2,20.7,43.8,20.9,44.3
				c3.1,7.3,7,14.3,10.7,21.4c2.9,5.6,5.8,11.3,8.6,17.1c2.4,5,4.2,10.2,6.6,15.2c1,3.4,2.2,6.8,3.1,10.2c2.5,8.6,4.4,17.4,4.2,26.5
				c-0.4,11-2.9,21.8-7.4,31.8c-7,15.9-17.5,29.1-32.1,38.8c-1.6,1.1-3.3,2.1-5,3.2c-2.4,1.1-4.8,2.3-7.2,3.4
				c-6.6,2.9-13.4,5-20.5,6.2c-1.9,0.4-7.4,1.4-8.3,1.4c-8.7,0.8-17.5-0.3-26.2-0.4c-3.6,0-7.2-0.4-10.8-0.6
				c-0.6-0.1-14.8-2-21.1-3.7C69.7,326,60.6,322.9,59.7,322.5z"/>
			<path class="st3" d="M43.8,167.7c-2.4,6.6-6.3,17.6-7.4,25.5c-0.8,6.3-2.2,12.6-2.9,18.9c-0.6,5.5-6.6,16.3-10,15.5
				c-0.5-0.1-10.7,1-12-3.5c-1.1-3.7,2.6-4.9,2.6-4.9s-8-0.6-9-4.3c-1.3-4.9,3.3-6.1-1-6.4C-2,204-3.3,196,14.5,180.3
				c4-8.6,11.8-21.1,16.7-29.3c5.7-0.3,14.1,0.6,15.3,10C46,161.5,43.8,167.1,43.8,167.7z"/>
			<path class="st3" d="M170.6,161.1c1.2-9.4,3.7-18.3,9.4-18c4.9,8.1,18.7,28.6,22.6,37.2c17.8,15.7,16.5,23.7,10.3,28.3
				c-4.2,0.3,0.4,1.5-1,6.4c-1,3.6-9,4.3-9,4.3s3.7,1.3,2.6,4.9c-1.3,4.5-11.5,3.4-12,3.5c-3.4,0.8-9.4-10-10-15.5
				c-0.6-6.3-2-12.6-2.9-18.9c-1.1-7.9-4.9-18.9-7.4-25.5C173.2,167.1,171.1,161.5,170.6,161.1z"/>
			<path class="st4" d="M16.3,133.9c0-31.9,37.5-57.8,84.7-57.8s82.8,24.3,82.8,56.2s-36,55.5-83.2,55.5S16.3,165.8,16.3,133.9z"/>
			<path class="st5" d="M24,133.8c0-28.9,34-52.4,76.9-52.4s74.2,25.1,75.1,51c1.1,28.9-32.6,50.3-75.5,50.3S24,162.6,24,133.8z"/>
			<path class="st6" d="M31,134.1c0-26.2,30.9-47.6,69.8-47.6s66.8,20.2,68,47.3c1.2,26.2-30.5,45.1-69.4,45.1S31,160.4,31,134.1z"
				/>
			<path class="st7" d="M37,134c0-24,28.2-43.5,63.7-43.5s61.3,18.8,61.3,42.7s-26,41.2-61.5,41.2S37,158,37,134z"/>
			<path class="st8" d="M44.7,133.8c-0.8-24.1,24.8-38.2,56-38.2s53.9,16.9,53.9,37.9s-23,35.9-54.2,35.9S45.4,154.9,44.7,133.8z"/>
			<path class="st9" d="M51.2,133.8c0-18.4,22-33.6,49.3-33.6s48,14.1,48,32.5s-21.3,33.6-48.7,33.6S51.2,152.2,51.2,133.8z"/>
			<path class="st10" d="M57.8,133.5c-3.2-15.7,18.9-29.1,42.7-29.1s40.1,12.6,40.1,28.6s-18.8,29.2-42.6,29.2
				S60.3,145.6,57.8,133.5z"/>
			<g>
				
					<ellipse transform="matrix(0.3633 -0.9317 0.9317 0.3633 -58.1976 174.3762)" class="st11" cx="98.5" cy="129.8" rx="26.9" ry="34"/>
				<path class="st12" d="M166.2,112.3c-2.1,7.8-6.8,15.6-13,20.3c-8.6,6.4-19.3,9.5-29.8,11.6c-13.5,2.8-27.4,2.7-40.8-0.2
					c-10.9-2.4-22.2-6.3-31.1-13.1c-6.3-3.9-13.3-12.8-13-20.2c3.8-5.3,8.3-10.2,16.3-12.6c14.4-3.9,23.4-0.4,39.2-0.4
					c12.1,0.5,29.9,1.1,41.9-0.7C147.5,95.2,163.5,100.1,166.2,112.3z"/>
				<g>
					<path class="st13" d="M76.2,124.6c-1,2.9-2.4,5.6-5.6,6.7c-3.5,1.1-6.8,0.1-9.9-1c-6.4-2.4-8.3-7-7.6-11.5
						c6,1.9,15,4.8,21.2,5.6C74.9,124.5,75.5,124.6,76.2,124.6z"/>
					<path class="st1" d="M56,120.2c-0.6,3.5,2.4,6.9,5.2,8.3c3,1.4,6.1,2.4,9.4,2.9c-5,2.1-14.9-1.8-16.9-6.8
						c-0.7-1.7-0.9-3.6-0.7-5.4L56,120.2z"/>
					<path class="st2" d="M145.9,25.8c6.8,8.7,8.9,18.7,8.5,29.5c-0.1,2.3-0.3,4.6-0.6,6.8c-0.2,0.9,0.2,1.8,1.1,2
						c5.2,2.8,10,6.1,13.5,11c4.7,6.6,5.6,14.1,4.9,21.9c-0.5,4.8-2.6,12.6-6.8,15c-9.4,7.8-21.8,11-33.5,12.8
						c-12,1.6-24.1,2.2-36.2,1.6c-6.9-0.1-13.8-0.8-20.7-1.8c-0.6-0.1-1.3-0.1-1.9-0.2c-6.2-0.9-12.3-2.3-18.3-4.2l-3-1
						c-5.3-2-10.3-4.9-14.6-8.6c-2-1.6-3.7-3.6-4.9-5.8c-1.1-2.4-2-4.8-2.7-7.3c-0.4-2.7-0.6-5.5-0.5-8.3c0.7-5.2,2.6-10.2,5.5-14.6
						c2.8-4.1,6.1-7.6,10-10.6c0.9-0.6,1.4-1.7,1.1-2.7c-1.2-7.7-0.7-15.7,1.4-23.2c1.3-4.5,3.3-8.8,6-12.6c1.1-1.5,2.3-2.9,3.6-4.3
						c2.2-2,4.5-3.9,7-5.6c11.2-7.2,23.8-9.6,37-8.7c7.2,0.5,14.3,1.8,21.1,4c5.3,1.7,10.3,4.2,14.8,7.3
						C140.9,20.2,143.6,22.8,145.9,25.8z"/>
				</g>
				<path class="st14" d="M133,33.5c0.4-0.3,0.9,0.1,1.3,0.4c0.9,0.5,1.8,0.9,2.8,1.2c1,0.3,2.1,0.2,3-0.3c-0.5,0.5-0.9,1-1.5,1.5
					c-0.6,0.6-1.4,1-2.2,0.8c1.2,0.9,2.8,1,4.1,0.3c-0.8,0.7-1.7,1.2-2.7,1.6c-1,0.4-2.1,0.2-3-0.3c-0.4-0.3-0.7-0.6-1-0.9
					c-0.5-0.6-0.9-1.3-1.2-2C132.4,35,132.5,34.1,133,33.5z"/>
				<path class="st14" d="M63.3,34.7c-0.5-0.2-0.9,0.3-1.3,0.6c-0.8,0.6-1.7,1.2-2.6,1.5c-1,0.4-2,0.4-3,0.1c0.5,0.5,1,0.9,1.6,1.3
					c0.6,0.6,1.5,0.8,2.3,0.6c-1.1,1-2.6,1.3-4,0.8c0.9,0.6,1.8,1,2.9,1.2c1,0.2,2.2,0,3-0.7c0.3-0.3,0.6-0.7,0.8-1
					c0.5-0.6,0.8-1.3,1-2.1C64.1,36.2,63.9,35.3,63.3,34.7z"/>
				<path class="st13" d="M108.7,51.8c-0.8-7,0-13.8,3.7-19.8c2.8-4.6,6.6-7.7,12.5-7.1c2.2,0.3,4.2,1.3,5.7,2.9
					c6,5.8,7.1,19.4,2.1,26.1c-0.5,0.6-0.9,1.2-1.3,1.8C123.9,53.9,116.3,52.6,108.7,51.8z"/>
				<path class="st13" d="M88.6,51.7c0.9-7,0.1-13.8-3.6-19.9c-2.8-4.6-6.6-7.8-12.4-7.2c-2.2,0.3-4.2,1.3-5.7,2.8
					c-6.1,5.7-7.3,19.3-2.3,26.1c0.4,0.6,0.9,1.2,1.3,1.8C73.3,53.7,80.9,52.5,88.6,51.7z"/>
				<circle class="st15" cx="75.5" cy="40.8" r="11.2"/>
				<circle class="st15" cx="122.9" cy="42.2" r="11.2"/>
				<circle class="st16" cx="75.9" cy="41" r="7.2"/>
				<circle class="st16" cx="123.1" cy="42.1" r="7.2"/>
				<circle class="st13" cx="81.2" cy="37.2" r="3.3"/>
				<circle class="st13" cx="127.9" cy="38.9" r="3.2"/>
				<path class="st15" d="M131.4,55.6c-7.5-1.7-15.1-3-22.7-3.8c-14.2-1.3-28.5-0.1-42.3,3.5c-11.2,4.3-12.4,5.6-12.7,6.1
					s18-6.2,30.9-6.5c15.1-0.2,39.5-0.7,63.5,8.4C143,59.8,137.4,57.3,131.4,55.6z"/>
				<path class="st15" d="M86.3,24.6c-4.1-2.7-8.2-5.1-13.4-4s-8.4,4.4-10.7,9c0.6-4.6,1.7-8.8,5.8-11.4c3.4-2.1,7.1-1.9,10.6-0.3
					C81.9,19.3,84.5,21.6,86.3,24.6z"/>
				<path class="st15" d="M112.8,24.9c2.6-4.4,10.2-8.9,16.3-6.6c4.1,1.5,8,7.6,7.2,11.7c-0.7-0.2-0.8-0.9-1.1-1.5
					c-3.5-6.7-11.8-9.3-18.5-5.7c-0.5,0.3-1,0.6-1.5,0.9C114.5,24.2,113.7,24.6,112.8,24.9L112.8,24.9z"/>
				<g id="ear">
					<path class="st17" d="M137.7,18.3c0.6-2.2,1.4-4.4,2.5-6.4c3.1-5.7,8.1-8.9,14.2-10.4c5.4-1.4,12.2,2.3,14.4,7.4
						c2.4,5.3-1,11.1-7,12.1c-1.3,0.2-2.5,0.3-3.8,0.1c-4.7-0.4-9.3,1-12.9,4C145.1,25.1,141.8,21.9,137.7,18.3z"/>
					<path class="st17" d="M55,24.3c-3.8-3.2-8.7-4.8-13.7-4.5c-3.8,0.2-7.3-1.2-9.2-5c-1.7-3.3-1-7.4,1.6-10
						C39.2-0.8,45-1.4,51.8,2.5c5.6,3.1,9.4,8.5,10.6,14.7C62.4,17.2,56.7,23.2,55,24.3z"/>
					<path class="st15" d="M56.8,22.3c-3.4-4.9-8.2-8.6-13.7-10.9c6.3,0.4,12.3,3.3,16.5,8C59,20.6,58,21.6,56.8,22.3z"/>
					<path class="st15" d="M140.3,19.8c4-4.3,9.5-6.2,15.1-6.6c-4.5,2.3-9.1,5.2-12,9.5C142.2,21.8,141.2,20.9,140.3,19.8z"/>
				</g>
				<path class="st0" d="M165.9,119c-1.4,6.4-6.2,11-7.6,12.8l-4.4,4l-6.6,4.6l-6.6,3.3c-3,1.1-10.7,3.7-11.6,4
					c-4.8,1.2-9.7,2.2-14.6,2.8c-12.8,1.2-19.4,2.2-31.8-1.3c-5-1.4-14.5-4.1-19.2-6.4c-1-0.6-10.1-5.3-13.2-7.6
					c-5.2-2.9-15.6-12.7-12.5-25.8c0.3,0.1,0.5,0.2,0.7,0.5c0.1,1.2,0.3,2.3,0.6,3.5c2.6,6.6,7,11.6,12.5,15.8
					c8.9,6.8,19.1,10.8,30,13.1c13.6,3,27.7,3.1,41.3,0.4c10.4-2,20.3-5.7,28.9-12c6.3-4.7,11.5-10.3,13.6-18.1
					c0.1-0.5,0.6-0.9,1.2-0.8c0.1,0,0.1,0,0.2,0.1C166.9,114.2,166.6,116.7,165.9,119z"/>
				<path class="st15" d="M137.2,69.2c6.5,0,11.7,5.3,11.7,11.8c0,0.7-0.1,1.4-0.2,2.1c-0.6,2.5-2.6,4.2-4.9,5.4
					c-2.8,1.6-6,2.3-9.2,1.9c-0.8-0.1-1.6-0.3-2.3-0.8c-4.4-2.5-7.2-7.1-7.4-12.2c-0.3-4.3,2.3-6.5,6.5-5.7c3.1,0.6,6.1,1.9,8.6,3.9
					c1.6,1.3,1.9,3.2,0.9,6c-0.7,1.8-1.8,2.5-3.9,2.4c0.6-1,1-2,1.3-3.2c0.6-1.8-0.3-3.8-2-4.7c-2.2-1.1-4.5-1.7-6.9-0.4
					c-1.1,0.5-1.8,1.7-1.7,2.9c-0.1,2.3,1,4.4,2.9,5.7c2.7,1.8,5.6,3.1,9,2.2c4.2-1.1,6.5-6.4,4.7-10.3
					C142.7,73.3,140.3,70.7,137.2,69.2z"/>
				<path class="st15" d="M63.3,68c-2.2,1.3-4.2,3-5.7,5c-2.2,3.2-2.3,6.7-0.2,9.6c2,2.7,5.1,3.6,8.9,2.4c2.4-0.6,4.4-2.1,5.7-4.1
					c1-1.7,1.4-3.5,0.2-5.2c-1.1-1.6-2.9-1.8-4.6-1.7c-4.1,0.2-7.3,2.8-4.2,8.9c-2,0.1-3.1-1-3.8-2.6c-0.9-2-0.7-4.5,0.6-5.5
					c2.9-2.5,6.5-3.9,10.3-4.1c3.8-0.2,5.8,2.6,5.1,6.7c-0.7,4.4-3.2,8.4-7,10.8c-3.5,2.2-7.2,1.3-10.6-0.3
					c-3.1-1.5-5.9-3.5-6.4-7.5C51,73.9,57.2,67.2,63.3,68z"/>
			</g>
		</g>
		<g>
			<g>
				<path class="st13" d="M31.5,171.3l-20.8,13.3l14.7,53.8l151.4-1.7l16.3-71.1l-14.5-8.4c0,0-45.9,7.4-73.4,37.3
					C105.2,194.5,88.5,174.1,31.5,171.3z"/>
				<path class="st18" d="M4.8,185.5l24.1,88.4l71.5,3.6c0,0,13.2,11.4,25.5-3.9l76.1-17.3l0.9-94l-82.4,26.7c0,0-14,13.7-30.2,2.7
					L4.8,185.5z"/>
			</g>
			<path class="st19" d="M90.3,191.5l10.1,85.9c0,0,12.1,11.7,25.5-3.9l-5.4-84.6C120.5,188.9,107.1,202.2,90.3,191.5z"/>
		</g>
		<path class="st3" d="M7,197.3c0,0,12-2,13,4S5.6,208,5.6,208"/>
		<path class="st3" d="M9.2,208.7c0,0,12.7-1.9,13.5,3s-12.4,5.8-12.4,5.8"/>
		<path class="st3" d="M13.8,219.7c0,0,11-1.2,11.7,2.8s-9.9,4.6-9.9,4.6"/>
		<path class="st3" d="M210.1,197.3c0,0-12-2-13,4s14.5,6.7,14.5,6.7"/>
		<path class="st3" d="M207.9,208.7c0,0-12.7-1.9-13.5,3s12.4,5.8,12.4,5.8"/>
		<path class="st3" d="M203.3,219.7c0,0-11-1.2-11.7,2.8s11.1,4.3,11.1,4.3"/>
	</g>
</g>
</svg>
