<svg xmlns="http://www.w3.org/2000/svg" viewBox="0 0 70.34 65.88">
  <defs>
    <style>
      .cls-1 {
        fill: #4e6bd1;
      }
    </style>
  </defs>
  <title>p09</title>
  <g id="character">
    <g>
      <path class="cls-1" d="M64.82,47.82c3.56-6.62,5.71-13.49,5.51-21.06,0-.23-.22-.52-.49-.48-4.9.63-9.79,1.39-14.64,2.35-2.05.41-5.09,1.89-6-.22-.55-1.26-.39-3.64-.81-5A20.16,20.16,0,0,0,35.69,10.29c-.59-.21-.85.73-.26.94A19.06,19.06,0,0,1,48.14,30.54a.5.5,0,0,0,.62.47c3.18-.72,6.38-1.4,9.59-2,1.73-.32,9.8-2.55,11.05-.58s-.73,7-1.27,8.92a47.55,47.55,0,0,1-4.16,10c-.29.55.55,1,.85.49Z"/>
      <path class="cls-1" d="M23.28,6.88A12.27,12.27,0,0,0,9.79,9.81a11.47,11.47,0,0,0-3,6.51C5.88,22.11,6,26.7.24,29.94a.49.49,0,0,0,.11.89c1.39.51,3,.56,4.32,1.06,2,.75,2.12,0,.61,2.66a.49.49,0,0,0,.42.73c3.89-.34,7,3.5,10.84,4,.5.07,6.46-.6,6.46-.6s-1,4-1,4.35a21.7,21.7,0,0,0,2.41,12.88c5.86,10.75,20.06,13,29.5,5.73.49-.38,0-1.22-.49-.84a19.08,19.08,0,0,1-22.75.77C23,56.22,21.13,46,24.48,37.62c.17-.43-.38-.71-.72-.55-5.28,2.47-9.1.7-13.83-1.8-2.48-1.31-3.71-.4-1.84-3.68a.49.49,0,0,0-.42-.73c-1,.08-5.78.39-5.67-.79,0,.39,2.49-2.17,2.31-2a12.46,12.46,0,0,0,3.05-6.85c.59-4.14.2-8.07,3.55-11.21A11.38,11.38,0,0,1,23,7.82c.58.23.84-.71.26-.94Z"/>
      <path class="cls-1" d="M16.21,22.91c3.86-.31,10.63-1.71,12.28-5.86,1.48-3.7-2.65-6.44-5.85-6.72-3.54-.31-7.63,1.43-8.79,5a6.16,6.16,0,0,0,3.91,7.8A.49.49,0,0,0,18,22.2a5.16,5.16,0,0,1-3.12-6.83c1.06-2.75,4.2-4.14,7-4.1,4.07.06,8.28,4.28,3.79,7.52a18.88,18.88,0,0,1-9.49,3.14c-.62.05-.62,1,0,1Z"/>
      <path class="cls-1" d="M18.93,19.54a2.51,2.51,0,0,1,3.48-3.23c.56.29,1.05-.55.49-.84A3.46,3.46,0,0,0,18.09,20c.25.57,1.09.07.84-.5Z"/>
      <path class="cls-1" d="M31.47,43.85C31,50.72,36.16,53.92,42.77,54A16.13,16.13,0,0,0,58.3,42.92c.62-1.86,1.66-5.69-.4-7.11a6.1,6.1,0,0,0-1.38-.49c-.33-.13-.85.4-1.2.35-.72-.09-1.8-.54-2.46-.7a31.87,31.87,0,0,0-5.42-.67c-2.42-.15-4.3,1.37-6.53,2.52-.55.29-.06,1.13.49.84,3.61-1.87,9.5-2.48,13.15-.61a30.22,30.22,0,0,1,3.53,2.29c.48,1-1,4.27-1.45,5.18a16,16,0,0,1-6,6.51c-6.52,4-18.81,2.2-18.2-7.18,0-.63-.94-.63-1,0Z"/>
      <path class="cls-1" d="M22.09,6.87A7.14,7.14,0,0,0,23.37,4.3a3.2,3.2,0,0,1,.85-1.44c.37-.3,1.67-.49,1.51.42-.11.61.83.87.94.25a1.75,1.75,0,0,0-2.45-1.8c-1.86.73-1.63,3.16-2.82,4.45-.43.46.26,1.15.69.69Z"/>
      <path class="cls-1" d="M26.88,3.36q-.3-3,1.81-2a1.52,1.52,0,0,1,1.85,1.39A3.72,3.72,0,0,1,30,5.54a.49.49,0,0,0,.42.73c1.12.06,3.38-1.47,4-.23.11.21-.06.8,0,1.08.19.52,2.3,2.45,0,2.72-.62.07-.62,1.05,0,1a2.06,2.06,0,0,0,1.81-1.24c.67-1.45-.53-1.81-.88-3-.24-.83.18-1.48-.8-1.95-1.42-.7-2.79.79-4.18.72l.42.73C32,3.9,31.78.62,28.9.05A2.65,2.65,0,0,0,26,3.85c.26.57,1.1.08.84-.49Z"/>
    </g>
  </g>
</svg>
