<svg id="Layer_2" data-name="Layer 2" xmlns="http://www.w3.org/2000/svg" xmlns:xlink="http://www.w3.org/1999/xlink" viewBox="0 0 260 168"><defs><style>.cls-1{fill:#fff;}.cls-2{clip-path:url(#clip-path);}.cls-3{fill:url(#linear-gradient);}.cls-4{opacity:0.4;}</style><clipPath id="clip-path"><path class="cls-1" d="M8.84,0H260V168H0V0H3.61C5.92,0,8.42-.77,9.66,1.4c3.27,5.72,5.26,12.68,7.78,18.77L33,57.7l6.23,15"/></clipPath><linearGradient id="linear-gradient" x1="110.03" y1="-40.19" x2="110.03" y2="127.78" gradientTransform="translate(220.06 148.25) rotate(-180)" gradientUnits="userSpaceOnUse"><stop offset="0.03" stop-color="#00aeef"/><stop offset="0.4" stop-color="#f7941d"/><stop offset="0.54" stop-color="#f8b625"/><stop offset="0.69" stop-color="#f8d42c"/><stop offset="0.81" stop-color="#f9e630"/><stop offset="0.91" stop-color="#f9ed32"/></linearGradient></defs><path class="cls-1" d="M8.84,0H260V168H0V0H3.61C5.92,0,8.42-.77,9.66,1.4c3.27,5.72,5.26,12.68,7.78,18.77L33,57.7l6.23,15"/><g class="cls-2"><rect class="cls-3" x="-51.87" y="-22.54" width="323.81" height="193.33" transform="translate(220.06 148.25) rotate(180)"/><g class="cls-4"><circle class="cls-1" cx="95.79" cy="36.05" r="0.32"/><circle class="cls-1" cx="100.43" cy="35.8" r="0.08"/><circle class="cls-1" cx="109.56" cy="40.35" r="0.1"/><circle class="cls-1" cx="91.31" cy="27.14" r="0.04"/><circle class="cls-1" cx="96.74" cy="27.02" r="0.25"/><circle class="cls-1" cx="104.18" cy="22.88" r="0.41"/><circle class="cls-1" cx="108.9" cy="24.42" r="0.08"/><circle class="cls-1" cx="121.47" cy="21.41" r="0.36"/><circle class="cls-1" cx="131.1" cy="12.16" r="0.36"/><circle class="cls-1" cx="125.33" cy="10.33" r="0.06"/><circle class="cls-1" cx="120.09" cy="11.67" r="0.36"/><circle class="cls-1" cx="114.9" cy="8.41" r="0.06"/><circle class="cls-1" cx="107.15" cy="6.6" r="0.23"/><circle class="cls-1" cx="99.66" cy="1.06" r="0.13"/><circle class="cls-1" cx="108.58" cy="34.89" r="0.36"/><circle class="cls-1" cx="114.69" cy="38.48" r="0.36"/><circle class="cls-1" cx="123.23" cy="38.38" r="0.35"/><circle class="cls-1" cx="104.35" cy="22.15" r="0.08"/><circle class="cls-1" cx="110.5" cy="26.12" r="0.2"/><circle class="cls-1" cx="116.76" cy="30.31" r="0.1"/><circle class="cls-1" cx="82.78" cy="-0.23" r="0.34"/><circle class="cls-1" cx="102.42" cy="3.42" r="0.27"/><circle class="cls-1" cx="116.55" cy="2.72" r="0.15"/><circle class="cls-1" cx="109.68" cy="8.27" r="0.2"/><circle class="cls-1" cx="104.59" cy="3.76" r="0.41"/><circle class="cls-1" cx="98.91" cy="4.69" r="0.32"/><circle class="cls-1" cx="92.33" cy="10.08" r="0.1"/><circle class="cls-1" cx="102.15" cy="18.2" r="0.15"/><circle class="cls-1" cx="92.41" cy="20.63" r="0.22"/><circle class="cls-1" cx="88.21" cy="24.56" r="0.2"/><circle class="cls-1" cx="78.59" cy="24.71" r="0.29"/><circle class="cls-1" cx="116.14" cy="12.71" r="0.34"/><circle class="cls-1" cx="112.64" cy="22.6" r="0.17"/><circle class="cls-1" cx="93.61" cy="21.48" r="0.21"/><circle class="cls-1" cx="100.57" cy="21.61" r="0.12"/><circle class="cls-1" cx="88.59" cy="13.6" r="0.15"/><circle class="cls-1" cx="94.68" cy="20.88" r="0.41"/><circle class="cls-1" cx="99.72" cy="13.75" r="0.15"/><circle class="cls-1" cx="85.1" cy="16.69" r="0.34"/><circle class="cls-1" cx="88.91" cy="23.42" r="0.13"/></g><g class="cls-4"><circle class="cls-1" cx="138.29" cy="26.98" r="0.18"/><circle class="cls-1" cx="146.7" cy="31.43" r="0.26"/><circle class="cls-1" cx="153.55" cy="35.23" r="0.06"/><circle class="cls-1" cx="139.79" cy="23.68" r="0.26"/><circle class="cls-1" cx="145.88" cy="20.66" r="0.18"/><circle class="cls-1" cx="150.31" cy="24.05" r="0.41"/><circle class="cls-1" cx="155.76" cy="17.98" r="0.31"/><circle class="cls-1" cx="165.93" cy="21.48" r="0.17"/><circle class="cls-1" cx="172.93" cy="5.37" r="0.06"/><circle class="cls-1" cx="159.7" cy="7.01" r="0.06"/><circle class="cls-1" cx="148.66" cy="1.64" r="0.31"/><circle class="cls-1" cx="141.38" cy="1.77" r="0.24"/><circle class="cls-1" cx="155.59" cy="28.34" r="0.11"/><circle class="cls-1" cx="167.06" cy="34.74" r="0.06"/><circle class="cls-1" cx="147.25" cy="17.73" r="0.15"/><circle class="cls-1" cx="154.04" cy="20.35" r="0.25"/><circle class="cls-1" cx="162.21" cy="22.52" r="0.25"/><circle class="cls-1" cx="165.31" r="0.16"/><circle class="cls-1" cx="153.33" cy="3.48" r="0.27"/><circle class="cls-1" cx="144.26" cy="5.46" r="0.05"/><circle class="cls-1" cx="137.52" cy="0.02" r="0.3"/><circle class="cls-1" cx="153.11" cy="18.75" r="0.18"/><circle class="cls-1" cx="141.41" cy="19.58" r="0.08"/><circle class="cls-1" cx="130.55" cy="14.28" r="0.04"/><circle class="cls-1" cx="122.37" cy="14.97" r="0.16"/><circle class="cls-1" cx="165.57" cy="9.61" r="0.14"/><circle class="cls-1" cx="154.59" cy="14.32" r="0.14"/><circle class="cls-1" cx="140.74" cy="19.68" r="0.32"/><circle class="cls-1" cx="138.24" cy="16.28" r="0.12"/><circle class="cls-1" cx="145.53" cy="8.72" r="0.14"/><circle class="cls-1" cx="125.54" cy="12.17" r="0.17"/><circle class="cls-1" cx="133.56" cy="17.48" r="0.05"/></g><g class="cls-4"><circle class="cls-1" cx="185.71" cy="32.62" r="0.13"/><circle class="cls-1" cx="189.58" cy="35.96" r="0.1"/><circle class="cls-1" cx="195.64" cy="34.13" r="0.27"/><circle class="cls-1" cx="183.95" cy="24.62" r="0.37"/><circle class="cls-1" cx="188.46" cy="21.15" r="0.12"/><circle class="cls-1" cx="193.36" cy="20.69" r="0.25"/><circle class="cls-1" cx="206.8" cy="16.91" r="0.33"/><circle class="cls-1" cx="209.08" cy="11.8" r="0.14"/><circle class="cls-1" cx="198.99" cy="5.5" r="0.27"/><circle class="cls-1" cx="187.76" cy="3.92" r="0.37"/><circle class="cls-1" cx="194.85" cy="34.46" r="0.34"/><circle class="cls-1" cx="202.25" cy="30.67" r="0.41"/><circle class="cls-1" cx="208.88" cy="29.02" r="0.22"/><circle class="cls-1" cx="197.08" cy="18.79" r="0.3"/><circle class="cls-1" cx="204.3" cy="22.1" r="0.33"/><circle class="cls-1" cx="200.65" cy="5.43" r="0.39"/><circle class="cls-1" cx="193.33" cy="4.08" r="0.13"/><circle class="cls-1" cx="185.1" cy="1.22" r="0.41"/><circle class="cls-1" cx="178.18" cy="4.07" r="0.41"/><circle class="cls-1" cx="194.26" cy="12.4" r="0.25"/><circle class="cls-1" cx="186.02" cy="20.04" r="0.33"/><circle class="cls-1" cx="178.92" cy="16.78" r="0.3"/><circle class="cls-1" cx="168.56" cy="14.6" r="0.39"/><circle class="cls-1" cx="163.86" cy="16.31" r="0.13"/><circle class="cls-1" cx="202.01" cy="9.61" r="0.39"/><circle class="cls-1" cx="195.61" cy="14.23" r="0.14"/><circle class="cls-1" cx="187.31" cy="16.45" r="0.14"/><circle class="cls-1" cx="179.75" cy="17" r="0.12"/><circle class="cls-1" cx="183.58" cy="9.81" r="0.18"/><circle class="cls-1" cx="167.61" cy="11.98" r="0.03"/><circle class="cls-1" cx="174.35" cy="19.23" r="0.26"/></g><g class="cls-4"><circle class="cls-1" cx="220.54" cy="32.04" r="0.03"/><circle class="cls-1" cx="224.95" cy="36.93" r="0.37"/><circle class="cls-1" cx="235.02" cy="37.92" r="0.23"/><circle class="cls-1" cx="222.32" cy="19.24" r="0.23"/><circle class="cls-1" cx="229.84" cy="21.45" r="0.2"/><circle class="cls-1" cx="243.3" cy="24.3" r="0.08"/><circle class="cls-1" cx="247.56" cy="18.03" r="0.11"/><circle class="cls-1" cx="255.37" cy="12.8" r="0.24"/><circle class="cls-1" cx="251.69" cy="8.24" r="0.27"/><circle class="cls-1" cx="246.96" cy="7.31" r="0.27"/><circle class="cls-1" cx="243.16" cy="1.88" r="0.29"/><circle class="cls-1" cx="236.05" cy="1.34" r="0.16"/><circle class="cls-1" cx="238.11" cy="28.97" r="0.08"/><circle class="cls-1" cx="242.23" cy="32.76" r="0.19"/><circle class="cls-1" cx="249.51" cy="29.25" r="0.28"/><circle class="cls-1" cx="232.61" cy="21.04" r="0.18"/><circle class="cls-1" cx="240.33" cy="19.36" r="0.39"/><circle class="cls-1" cx="241.72" cy="28.21" r="0.22"/><circle class="cls-1" cx="242.64" cy="0.64" r="0.41"/><circle class="cls-1" cx="233.78" cy="3.53" r="0.11"/><circle class="cls-1" cx="224.83" cy="4.21" r="0.15"/><circle class="cls-1" cx="229.18" cy="20.11" r="0.23"/><circle class="cls-1" cx="221.97" cy="15.09" r="0.33"/><circle class="cls-1" cx="214.98" cy="20.13" r="0.4"/><circle class="cls-1" cx="210.25" cy="20.33" r="0.24"/><circle class="cls-1" cx="204.58" cy="19.69" r="0.25"/><circle class="cls-1" cx="249.57" cy="4.64" r="0.39"/><circle class="cls-1" cx="244.09" cy="8.04" r="0.21"/><circle class="cls-1" cx="236.82" cy="15.26" r="0.36"/><circle class="cls-1" cx="225.22" cy="18.58" r="0.12"/><circle class="cls-1" cx="222.21" cy="15.71" r="0.04"/><circle class="cls-1" cx="226.42" cy="9.59" r="0.17"/><circle class="cls-1" cx="208.25" cy="11.98" r="0.03"/><circle class="cls-1" cx="214.98" cy="19.23" r="0.26"/></g><g class="cls-4"><circle class="cls-1" cx="49.28" cy="31.44" r="0.32"/><circle class="cls-1" cx="55.98" cy="36.62" r="0.35"/><circle class="cls-1" cx="64.11" cy="34.01" r="0.39"/><circle class="cls-1" cx="47.53" cy="18.58" r="0.26"/><circle class="cls-1" cx="52.44" cy="21.41" r="0.1"/><circle class="cls-1" cx="61.96" cy="24.22" r="0.24"/><circle class="cls-1" cx="75.86" cy="22.47" r="0.4"/><circle class="cls-1" cx="80.5" cy="5.31" r="0.29"/><circle class="cls-1" cx="71.41" cy="9.68" r="0.21"/><circle class="cls-1" cx="66.54" cy="27.65" r="0.36"/><circle class="cls-1" cx="70.07" cy="35.02" r="0.06"/><circle class="cls-1" cx="77.3" cy="29.24" r="0.31"/><circle class="cls-1" cx="60.01" cy="24.11" r="0.19"/><circle class="cls-1" cx="71.42" cy="24.59" r="0.33"/><circle class="cls-1" cx="56.47" cy="0.49" r="0.22"/><circle class="cls-1" cx="72.1" cy="1.94" r="0.33"/><circle class="cls-1" cx="67.67" cy="2.51" r="0.28"/><circle class="cls-1" cx="55.57" cy="7.58" r="0.13"/><circle class="cls-1" cx="50.55" cy="2.16" r="0.18"/><circle class="cls-1" cx="46.72" cy="3.63" r="0.17"/><circle class="cls-1" cx="57.7" cy="19.7" r="0.33"/><circle class="cls-1" cx="53.2" cy="19.94" r="0.05"/><circle class="cls-1" cx="46.39" cy="16.89" r="0.28"/><circle class="cls-1" cx="39.02" cy="15.46" r="0.32"/><circle class="cls-1" cx="32.29" cy="16.58" r="0.12"/><circle class="cls-1" cx="73.59" cy="6.99" r="0.35"/><circle class="cls-1" cx="66.79" cy="10.5" r="0.2"/><circle class="cls-1" cx="65" cy="15.94" r="0.16"/><circle class="cls-1" cx="52.52" cy="18.96" r="0.37"/><circle class="cls-1" cx="44.15" cy="19.85" r="0.05"/><circle class="cls-1" cx="52.68" cy="9.74" r="0.36"/><circle class="cls-1" cx="36.04" cy="11.98" r="0.03"/><circle class="cls-1" cx="42.78" cy="19.23" r="0.26"/></g><g class="cls-4"><circle class="cls-1" cx="2.32" cy="28.75" r="0.25"/><circle class="cls-1" cx="11.27" cy="32.11" r="0.13"/><circle class="cls-1" cx="15.53" cy="39.34" r="0.28"/><circle class="cls-1" cx="4.1" cy="21.42" r="0.24"/><circle class="cls-1" cx="13.13" cy="24.63" r="0.36"/><circle class="cls-1" cx="21.18" cy="19.69" r="0.16"/><circle class="cls-1" cx="28.99" cy="21.87" r="0.38"/><circle class="cls-1" cx="30.66" cy="4.2" r="0.19"/><circle class="cls-1" cx="21.9" cy="5.73" r="0.32"/><circle class="cls-1" cx="12.96" cy="0.97" r="0.12"/><circle class="cls-1" cx="15.35" cy="31" r="0.03"/><circle class="cls-1" cx="23.61" cy="30.8" r="0.29"/><circle class="cls-1" cx="30.22" cy="34.35" r="0.15"/><circle class="cls-1" cx="14.76" cy="19.87" r="0.03"/><circle class="cls-1" cx="26.02" cy="21.91" r="0.07"/><circle class="cls-1" cx="28.17" cy="4.64" r="0.25"/><circle class="cls-1" cx="18.52" cy="6.01" r="0.32"/><circle class="cls-1" cx="13.92" cy="5.6" r="0.2"/><circle class="cls-1" cx="5.99" cy="5.46" r="0.1"/><circle class="cls-1" cx="0.7" cy="0.43" r="0.04"/><circle class="cls-1" cx="13.62" cy="19.82" r="0.41"/><circle class="cls-1" cx="7.93" cy="19.54" r="0.07"/><circle class="cls-1" cx="3.45" cy="19.28" r="0.14"/><circle class="cls-1" cx="31.2" cy="5.84" r="0.08"/><circle class="cls-1" cx="24.49" cy="11.56" r="0.07"/><circle class="cls-1" cx="19.69" cy="18.61" r="0.11"/><circle class="cls-1" cx="2.59" cy="11.26" r="0.41"/><circle class="cls-1" cx="7.38" cy="17.66" r="0.18"/><circle class="cls-1" cx="3.26" cy="15.66" r="0.37"/><circle class="cls-1" cx="2.87" cy="10.05" r="0.22"/></g></g></svg>