<svg id="_5" data-name="5" xmlns="http://www.w3.org/2000/svg" xmlns:xlink="http://www.w3.org/1999/xlink" viewBox="0 0 260 168"><defs><style>.cls-1{fill:none;}.cls-2{fill:#870000;}.cls-3{fill:#ff8585;}.cls-4{fill:red;}.cls-5{fill:#7f2828;stroke:#7f2828;stroke-miterlimit:10;stroke-width:0.07px;}.cls-6{fill:#fff;}.cls-7{clip-path:url(#clip-path);}.cls-8{clip-path:url(#clip-path-2);}</style><clipPath id="clip-path"><ellipse class="cls-1" cx="135.18" cy="103.56" rx="7.43" ry="13" transform="translate(30.23 237.66) rotate(-89.4)"/></clipPath><clipPath id="clip-path-2"><path class="cls-2" d="M123.62,101.17a3.35,3.35,0,0,1,2.66-.32S125.42,97.31,123.62,101.17Z"/></clipPath></defs><path class="cls-3" d="M148.66,106.41c.8,1.3,2.31,2.45,5.16,1.87a4.36,4.36,0,0,0-3.08-4.85,4.77,4.77,0,0,0,3.1-4.58,4.66,4.66,0,0,0-5.4,2.55A5.22,5.22,0,0,0,148.66,106.41Z"/><path class="cls-3" d="M138.79,100.88a3.23,3.23,0,0,1-4.56-.06c-1.25-1.28-2.14-2.5.05-4.56s5.66-1.26,5.79-1.13S140.07,99.63,138.79,100.88Z"/><path class="cls-3" d="M138.82,107.57a3.24,3.24,0,0,0-4.57,0c-1.27,1.25-2.19,2.45,0,4.56s5.63,1.37,5.76,1.24S140.07,108.83,138.82,107.57Z"/><ellipse class="cls-4" cx="135.18" cy="103.56" rx="7.43" ry="13" transform="translate(30.23 237.66) rotate(-89.4)"/><path class="cls-5" d="M127.43,105.73s.7,0,.85.56a1,1,0,0,0-.47-1.05Z"/><path class="cls-5" d="M127.76,105.27a1,1,0,0,1,1.14.29,1.21,1.21,0,0,0-.92-1Z"/><ellipse class="cls-6" cx="125.63" cy="103.98" rx="2.48" ry="2.49" transform="translate(4.05 212.67) rotate(-81.41)"/><circle cx="125.63" cy="103.98" r="1.79" transform="translate(4.05 212.67) rotate(-81.41)"/><circle class="cls-6" cx="126.21" cy="104.7" r="0.51" transform="translate(3.84 213.86) rotate(-81.41)"/><g class="cls-7"><path class="cls-3" d="M132,109.28a1.94,1.94,0,0,0-1.24.55,1.69,1.69,0,0,0-.49,1.22,1.71,1.71,0,0,0,.47,1.24,1.94,1.94,0,0,0,1.22.57,1.69,1.69,0,0,1-1.3-.5,1.83,1.83,0,0,1-.56-1.31,1.87,1.87,0,0,1,.58-1.3A1.72,1.72,0,0,1,132,109.28Z"/><path class="cls-3" d="M132,105.7a1.87,1.87,0,0,0-1.23.55,1.7,1.7,0,0,0-.5,1.22,1.76,1.76,0,0,0,.47,1.23,2,2,0,0,0,1.23.58,1.71,1.71,0,0,1-1.31-.5,1.88,1.88,0,0,1-.55-1.31,1.83,1.83,0,0,1,.58-1.3A1.7,1.7,0,0,1,132,105.7Z"/><path class="cls-3" d="M132.05,102.12a1.87,1.87,0,0,0-1.23.55,1.69,1.69,0,0,0-.49,1.22,1.67,1.67,0,0,0,.47,1.23,1.9,1.9,0,0,0,1.22.58,1.69,1.69,0,0,1-1.3-.5,1.85,1.85,0,0,1-.56-1.31,1.87,1.87,0,0,1,.58-1.3A1.7,1.7,0,0,1,132.05,102.12Z"/><path class="cls-3" d="M132.09,98.53a1.93,1.93,0,0,0-1.24.56,1.69,1.69,0,0,0-.49,1.22,1.76,1.76,0,0,0,.47,1.23,2,2,0,0,0,1.22.58,1.72,1.72,0,0,1-1.3-.5,1.77,1.77,0,0,1,0-2.61A1.74,1.74,0,0,1,132.09,98.53Z"/><path class="cls-3" d="M132.12,95a1.92,1.92,0,0,0-1.23.55,1.78,1.78,0,0,0-.5,1.23,1.72,1.72,0,0,0,.48,1.23,1.84,1.84,0,0,0,1.22.57,1.71,1.71,0,0,1-1.3-.49,1.85,1.85,0,0,1-.56-1.31,1.89,1.89,0,0,1,.58-1.31A1.73,1.73,0,0,1,132.12,95Z"/><path class="cls-3" d="M135.13,109.31a2,2,0,0,0-1.24.55,1.72,1.72,0,0,0-.49,1.22,1.78,1.78,0,0,0,.47,1.24,1.94,1.94,0,0,0,1.23.57,1.69,1.69,0,0,1-1.31-.5,1.79,1.79,0,0,1,0-2.61A1.7,1.7,0,0,1,135.13,109.31Z"/><path class="cls-3" d="M135.16,105.73a1.92,1.92,0,0,0-1.23.55,1.82,1.82,0,0,0,0,2.46,1.94,1.94,0,0,0,1.22.57,1.69,1.69,0,0,1-1.3-.5,1.83,1.83,0,0,1-.56-1.31,1.87,1.87,0,0,1,.58-1.3A1.7,1.7,0,0,1,135.16,105.73Z"/><path class="cls-3" d="M135.2,102.15a1.89,1.89,0,0,0-1.24.55,1.69,1.69,0,0,0-.49,1.22,1.76,1.76,0,0,0,.47,1.23,1.93,1.93,0,0,0,1.22.58,1.69,1.69,0,0,1-1.3-.5,1.77,1.77,0,0,1,0-2.61A1.68,1.68,0,0,1,135.2,102.15Z"/><path class="cls-3" d="M135.23,98.57a1.87,1.87,0,0,0-1.23.55,1.79,1.79,0,0,0,0,2.45,2,2,0,0,0,1.23.58,1.69,1.69,0,0,1-1.3-.5,1.85,1.85,0,0,1-.56-1.31,1.87,1.87,0,0,1,.58-1.3A1.7,1.7,0,0,1,135.23,98.57Z"/><path class="cls-3" d="M135.27,95a2,2,0,0,0-1.24.56,1.69,1.69,0,0,0-.49,1.22A1.67,1.67,0,0,0,134,98a1.9,1.9,0,0,0,1.22.58,1.72,1.72,0,0,1-1.3-.5,1.85,1.85,0,0,1-.56-1.31,1.87,1.87,0,0,1,.58-1.3A1.76,1.76,0,0,1,135.27,95Z"/><path class="cls-3" d="M138.27,109.34a1.92,1.92,0,0,0-1.23.55,1.73,1.73,0,0,0-.49,1.23,1.69,1.69,0,0,0,.47,1.23,1.84,1.84,0,0,0,1.22.57,1.71,1.71,0,0,1-1.3-.49,1.85,1.85,0,0,1-.56-1.31,1.87,1.87,0,0,1,.58-1.31A1.73,1.73,0,0,1,138.27,109.34Z"/><path class="cls-3" d="M138.31,105.76a1.94,1.94,0,0,0-1.24.55,1.82,1.82,0,0,0,0,2.46,1.89,1.89,0,0,0,1.22.57,1.71,1.71,0,0,1-1.3-.49,1.78,1.78,0,0,1,0-2.62A1.68,1.68,0,0,1,138.31,105.76Z"/><path class="cls-3" d="M138.34,102.18a1.92,1.92,0,0,0-1.23.55,1.76,1.76,0,0,0-.5,1.22,1.78,1.78,0,0,0,.47,1.24,2,2,0,0,0,1.23.57,1.69,1.69,0,0,1-1.3-.5,1.83,1.83,0,0,1-.56-1.31,1.87,1.87,0,0,1,.58-1.3A1.7,1.7,0,0,1,138.34,102.18Z"/><path class="cls-3" d="M138.38,98.6a1.94,1.94,0,0,0-1.24.55,1.69,1.69,0,0,0-.49,1.22,1.67,1.67,0,0,0,.47,1.23,1.9,1.9,0,0,0,1.22.58,1.69,1.69,0,0,1-1.3-.5,1.83,1.83,0,0,1-.56-1.31,1.87,1.87,0,0,1,.58-1.3A1.72,1.72,0,0,1,138.38,98.6Z"/><path class="cls-3" d="M138.41,95a1.87,1.87,0,0,0-1.23.55,1.7,1.7,0,0,0-.5,1.22,1.76,1.76,0,0,0,.47,1.23,2,2,0,0,0,1.23.58,1.71,1.71,0,0,1-1.31-.5,1.88,1.88,0,0,1-.55-1.31,1.83,1.83,0,0,1,.58-1.3A1.7,1.7,0,0,1,138.41,95Z"/><path class="cls-3" d="M141.42,109.37a1.9,1.9,0,0,0-1.24.56,1.69,1.69,0,0,0-.49,1.22,1.67,1.67,0,0,0,.47,1.23,1.9,1.9,0,0,0,1.22.58,1.72,1.72,0,0,1-1.3-.5,1.85,1.85,0,0,1-.56-1.31,1.87,1.87,0,0,1,.58-1.3A1.76,1.76,0,0,1,141.42,109.37Z"/><path class="cls-3" d="M141.45,105.79a1.92,1.92,0,0,0-1.23.55,1.78,1.78,0,0,0-.5,1.23,1.76,1.76,0,0,0,.47,1.23,1.89,1.89,0,0,0,1.23.57,1.75,1.75,0,0,1-1.31-.49,1.88,1.88,0,0,1-.55-1.31,1.85,1.85,0,0,1,.58-1.31A1.73,1.73,0,0,1,141.45,105.79Z"/><path class="cls-3" d="M141.49,102.21a1.94,1.94,0,0,0-1.24.55,1.73,1.73,0,0,0-.49,1.23,1.69,1.69,0,0,0,.47,1.23,1.89,1.89,0,0,0,1.22.57,1.71,1.71,0,0,1-1.3-.49,1.79,1.79,0,0,1,0-2.62A1.72,1.72,0,0,1,141.49,102.21Z"/><path class="cls-3" d="M141.52,98.63a2,2,0,0,0-1.24.55,1.72,1.72,0,0,0-.49,1.22,1.78,1.78,0,0,0,.47,1.24,1.94,1.94,0,0,0,1.23.57,1.69,1.69,0,0,1-1.31-.5,1.86,1.86,0,0,1-.55-1.31,1.83,1.83,0,0,1,.58-1.3A1.7,1.7,0,0,1,141.52,98.63Z"/><path class="cls-3" d="M141.55,95.05a1.92,1.92,0,0,0-1.23.55,1.69,1.69,0,0,0-.49,1.22,1.67,1.67,0,0,0,.47,1.23,1.9,1.9,0,0,0,1.22.58,1.69,1.69,0,0,1-1.3-.5,1.83,1.83,0,0,1-.56-1.31,1.87,1.87,0,0,1,.58-1.3A1.7,1.7,0,0,1,141.55,95.05Z"/><path class="cls-3" d="M144.56,109.41a1.87,1.87,0,0,0-1.23.55,1.79,1.79,0,0,0,0,2.45,2,2,0,0,0,1.23.58,1.72,1.72,0,0,1-1.31-.5,1.88,1.88,0,0,1-.55-1.31,1.83,1.83,0,0,1,.58-1.3A1.7,1.7,0,0,1,144.56,109.41Z"/><path class="cls-3" d="M144.59,105.83a1.89,1.89,0,0,0-1.23.55,1.69,1.69,0,0,0-.49,1.22,1.67,1.67,0,0,0,.47,1.23,1.9,1.9,0,0,0,1.22.58,1.72,1.72,0,0,1-1.3-.5,1.85,1.85,0,0,1-.56-1.31,1.87,1.87,0,0,1,.58-1.3A1.7,1.7,0,0,1,144.59,105.83Z"/><path class="cls-3" d="M144.63,102.24a2,2,0,0,0-1.24.55,1.73,1.73,0,0,0-.49,1.23,1.76,1.76,0,0,0,.47,1.23,2,2,0,0,0,1.22.58,1.72,1.72,0,0,1-1.3-.5,1.89,1.89,0,0,1-.56-1.31,1.86,1.86,0,0,1,.59-1.3A1.7,1.7,0,0,1,144.63,102.24Z"/><path class="cls-3" d="M144.66,98.66a1.92,1.92,0,0,0-1.23.55,1.78,1.78,0,0,0-.5,1.23,1.74,1.74,0,0,0,.48,1.23,1.89,1.89,0,0,0,1.22.57,1.71,1.71,0,0,1-1.3-.49,1.79,1.79,0,0,1,0-2.62A1.7,1.7,0,0,1,144.66,98.66Z"/><path class="cls-3" d="M144.7,95.08a1.94,1.94,0,0,0-1.24.55,1.82,1.82,0,0,0,0,2.46,1.89,1.89,0,0,0,1.22.57,1.69,1.69,0,0,1-1.3-.5,1.77,1.77,0,0,1,0-2.61A1.68,1.68,0,0,1,144.7,95.08Z"/><path class="cls-3" d="M147.7,109.44a1.92,1.92,0,0,0-1.23.55,1.69,1.69,0,0,0-.49,1.22,1.67,1.67,0,0,0,.47,1.23,1.9,1.9,0,0,0,1.22.58,1.69,1.69,0,0,1-1.3-.5,1.83,1.83,0,0,1-.56-1.31,1.87,1.87,0,0,1,.58-1.3A1.7,1.7,0,0,1,147.7,109.44Z"/><path class="cls-3" d="M147.74,105.86a1.92,1.92,0,0,0-1.24.55,1.69,1.69,0,0,0-.49,1.22,1.76,1.76,0,0,0,.47,1.23,2,2,0,0,0,1.22.58,1.69,1.69,0,0,1-1.3-.5,1.77,1.77,0,0,1,0-2.61A1.68,1.68,0,0,1,147.74,105.86Z"/><path class="cls-3" d="M147.77,102.28a1.87,1.87,0,0,0-1.23.55,1.79,1.79,0,0,0,0,2.45,2,2,0,0,0,1.23.58,1.69,1.69,0,0,1-1.3-.5,1.85,1.85,0,0,1-.56-1.31,1.87,1.87,0,0,1,.58-1.3A1.7,1.7,0,0,1,147.77,102.28Z"/><path class="cls-3" d="M147.81,98.69a1.94,1.94,0,0,0-1.24.55,1.73,1.73,0,0,0-.49,1.23,1.67,1.67,0,0,0,.47,1.23,1.9,1.9,0,0,0,1.22.58,1.72,1.72,0,0,1-1.3-.5,1.78,1.78,0,0,1,0-2.61A1.73,1.73,0,0,1,147.81,98.69Z"/><path class="cls-3" d="M147.84,95.11a1.92,1.92,0,0,0-1.23.55,1.8,1.8,0,0,0,0,2.46,1.89,1.89,0,0,0,1.23.57,1.75,1.75,0,0,1-1.31-.49,1.89,1.89,0,0,1-.55-1.32,1.83,1.83,0,0,1,.58-1.3A1.7,1.7,0,0,1,147.84,95.11Z"/></g><path class="cls-2" d="M123.62,101.17a3.35,3.35,0,0,1,2.66-.32S125.42,97.31,123.62,101.17Z"/><g class="cls-8"><ellipse class="cls-6" cx="125.39" cy="101.04" rx="0.76" ry="1.34" transform="translate(6.78 209.95) rotate(-81.42)"/></g></svg>