<svg id="Layer_1" data-name="Layer 1" xmlns="http://www.w3.org/2000/svg" xmlns:xlink="http://www.w3.org/1999/xlink" viewBox="0 0 260 168"><defs><style>.cls-1{fill:#fff;}.cls-2{fill:none;}.cls-3{fill:#ff8585;}.cls-4{fill:red;}.cls-5{fill:#7f2828;stroke:#7f2828;stroke-miterlimit:10;stroke-width:0.09px;}.cls-6{clip-path:url(#clip-path);}.cls-7{clip-path:url(#clip-path-2);}</style><clipPath id="clip-path"><circle class="cls-1" cx="129.49" cy="138.39" r="2.96" transform="translate(-44.13 62.39) rotate(-23.26)"/></clipPath><clipPath id="clip-path-2"><ellipse class="cls-2" cx="139.36" cy="132.72" rx="15.47" ry="8.86" transform="translate(-49.81 97.35) rotate(-33.01)"/></clipPath></defs><path class="cls-3" d="M151.06,121.25c0-1.81.76-3.93,4-5.17a5.22,5.22,0,0,1,0,6.85,5.68,5.68,0,0,1,6,2.63,5.56,5.56,0,0,1-7.07.87A6.22,6.22,0,0,1,151.06,121.25Z"/><path class="cls-3" d="M144.7,133.12a3.84,3.84,0,0,0-4.55,3c-.44,2.08-.55,3.88,3,4.55s6.49-2.34,6.53-2.56S146.77,133.55,144.7,133.12Z"/><path class="cls-3" d="M140.44,126.37a3.83,3.83,0,0,1-4.56,2.95c-2.08-.45-3.77-1.07-2.95-4.56s4.77-5,5-4.93S140.89,124.3,140.44,126.37Z"/><ellipse class="cls-4" cx="139.36" cy="132.72" rx="15.47" ry="8.86" transform="translate(-49.81 97.35) rotate(-33.01)"/><path class="cls-5" d="M130.18,135.49s.72-.43.49-1.11a1.24,1.24,0,0,1,.2,1.36Z"/><path class="cls-5" d="M130.81,135.74s.95-.19,1-1a1.45,1.45,0,0,1-.3,1.57Z"/><circle class="cls-1" cx="129.49" cy="138.39" r="2.96" transform="translate(-44.13 62.39) rotate(-23.26)"/><g class="cls-6"><circle cx="129.49" cy="139.51" r="2.14" transform="translate(-44.57 62.48) rotate(-23.26)"/><circle class="cls-1" cx="129.62" cy="138.42" r="0.6"/></g><g class="cls-7"><path class="cls-3" d="M132.49,129a2.09,2.09,0,0,1-1.63.37,2.15,2.15,0,0,1-1.7-2.62,2.06,2.06,0,0,1,1-1.33,2.14,2.14,0,0,0,2.33,3.58Z"/><path class="cls-3" d="M134.81,132.59a2.06,2.06,0,0,1-1.62.37,2.13,2.13,0,0,1-1.7-2.62,2,2,0,0,1,1-1.33,2.14,2.14,0,0,0,2.32,3.58Z"/><path class="cls-3" d="M137.14,136.17a2.06,2.06,0,0,1-1.62.37,2.15,2.15,0,0,1-1.71-2.62,2.06,2.06,0,0,1,1-1.33,2.14,2.14,0,0,0,2.33,3.58Z"/><path class="cls-3" d="M139.46,139.75a2.06,2.06,0,0,1-1.62.37,2.15,2.15,0,0,1-1.7-2.62,2.08,2.08,0,0,1,1-1.33,2.14,2.14,0,0,0,2.32,3.58Z"/><path class="cls-3" d="M141.79,143.33a2.06,2.06,0,0,1-1.62.37,2.2,2.2,0,0,1-1.42-.94,2.25,2.25,0,0,1-.29-1.68,2.12,2.12,0,0,1,1-1.33,2.14,2.14,0,0,0,2.33,3.58Z"/><path class="cls-3" d="M135.62,127a2.06,2.06,0,0,1-1.62.37,2.15,2.15,0,0,1-1.7-2.62,2.05,2.05,0,0,1,1-1.33,2.14,2.14,0,0,0,2.32,3.58Z"/><path class="cls-3" d="M138,130.55a2.06,2.06,0,0,1-1.62.37,2.15,2.15,0,0,1-1.42-.94,2.21,2.21,0,0,1-.29-1.68,2.08,2.08,0,0,1,1-1.33,2.14,2.14,0,0,0,2.33,3.58Z"/><path class="cls-3" d="M140.27,134.13a2.06,2.06,0,0,1-1.62.38,2.2,2.2,0,0,1-1.41-.95,2.16,2.16,0,0,1-.29-1.68,2.08,2.08,0,0,1,1-1.33,2.14,2.14,0,0,0,2.32,3.58Z"/><path class="cls-3" d="M142.6,137.71a2.07,2.07,0,0,1-1.62.38,2.17,2.17,0,0,1-1.71-2.63,2.14,2.14,0,0,1,1-1.33,2.14,2.14,0,0,0,2.33,3.58Z"/><path class="cls-3" d="M144.93,141.29a2.08,2.08,0,0,1-1.63.38,2.17,2.17,0,0,1-1.7-2.63,2.11,2.11,0,0,1,1-1.33,2.14,2.14,0,0,0,2.33,3.58Z"/><path class="cls-3" d="M138.76,124.93a2.07,2.07,0,0,1-1.62.38,2.17,2.17,0,0,1-1.71-2.63,2.11,2.11,0,0,1,1-1.33,2.14,2.14,0,0,0,2.33,3.58Z"/><path class="cls-3" d="M141.08,128.51a2.06,2.06,0,0,1-1.62.38,2.2,2.2,0,0,1-1.41-.95,2.16,2.16,0,0,1-.29-1.68,2.11,2.11,0,0,1,1-1.33,2.14,2.14,0,0,0,2.32,3.58Z"/><path class="cls-3" d="M143.41,132.1a2.11,2.11,0,0,1-1.62.37,2.16,2.16,0,0,1-1.71-2.62,2.14,2.14,0,0,1,1-1.34,2.14,2.14,0,0,0,2.33,3.59Z"/><path class="cls-3" d="M145.74,135.68a2.11,2.11,0,0,1-1.62.37,2.16,2.16,0,0,1-1.42-1,2.19,2.19,0,0,1-.29-1.67,2.06,2.06,0,0,1,1-1.33,2.14,2.14,0,0,0,2.33,3.58Z"/><path class="cls-3" d="M148.06,139.26a2.1,2.1,0,0,1-1.62.37,2.16,2.16,0,0,1-1.7-2.62,2.06,2.06,0,0,1,1-1.33,2.14,2.14,0,0,0,2.32,3.58Z"/><path class="cls-3" d="M141.9,122.9a2.13,2.13,0,0,1-1.63.37,2.16,2.16,0,0,1-1.7-2.62,2.06,2.06,0,0,1,1-1.33,2.14,2.14,0,0,0-.54,2.89A2.16,2.16,0,0,0,141.9,122.9Z"/><path class="cls-3" d="M144.22,126.48a2.11,2.11,0,0,1-1.62.37,2.21,2.21,0,0,1-1.42-.95,2.18,2.18,0,0,1-.28-1.67,2,2,0,0,1,1-1.33,2.14,2.14,0,0,0,2.32,3.58Z"/><path class="cls-3" d="M146.55,130.06a2.06,2.06,0,0,1-1.62.37,2.16,2.16,0,0,1-1.42-1,2.19,2.19,0,0,1-.29-1.67,2.06,2.06,0,0,1,1-1.33,2.14,2.14,0,0,0,2.33,3.58Z"/><path class="cls-3" d="M148.87,133.64a2.06,2.06,0,0,1-1.62.37,2.16,2.16,0,0,1-1.7-2.62,2.06,2.06,0,0,1,1-1.33,2.14,2.14,0,0,0,2.32,3.58Z"/><path class="cls-3" d="M151.2,137.22a2.06,2.06,0,0,1-1.62.37,2.24,2.24,0,0,1-1.42-.94,2.27,2.27,0,0,1-.29-1.68,2.09,2.09,0,0,1,1-1.33,2.14,2.14,0,0,0,2.33,3.58Z"/><path class="cls-3" d="M145,120.86a2.06,2.06,0,0,1-1.62.37,2.16,2.16,0,0,1-1.7-2.62,2,2,0,0,1,1-1.33,2.14,2.14,0,0,0,2.32,3.58Z"/><path class="cls-3" d="M147.36,124.44a2.06,2.06,0,0,1-1.62.37,2.19,2.19,0,0,1-1.42-.94,2.22,2.22,0,0,1-.29-1.68,2.06,2.06,0,0,1,1-1.33,2.14,2.14,0,0,0,2.33,3.58Z"/><path class="cls-3" d="M149.68,128a2.06,2.06,0,0,1-1.62.37,2.15,2.15,0,0,1-1.7-2.62,2.06,2.06,0,0,1,1-1.33,2.14,2.14,0,0,0,2.32,3.58Z"/><path class="cls-3" d="M152,131.6a2.06,2.06,0,0,1-1.62.37A2.24,2.24,0,0,1,149,131a2.27,2.27,0,0,1-.29-1.68,2.09,2.09,0,0,1,1-1.33A2.14,2.14,0,0,0,152,131.6Z"/><path class="cls-3" d="M154.34,135.18a2.08,2.08,0,0,1-1.63.37,2.15,2.15,0,0,1-1.7-2.62,2.06,2.06,0,0,1,1-1.33,2.14,2.14,0,0,0,2.33,3.58Z"/><path class="cls-3" d="M148.17,118.82a2.06,2.06,0,0,1-1.62.37,2.15,2.15,0,0,1-1.71-2.62,2.06,2.06,0,0,1,1-1.33,2.14,2.14,0,0,0,2.33,3.58Z"/><path class="cls-3" d="M150.5,122.4a2.09,2.09,0,0,1-1.63.37,2.19,2.19,0,0,1-1.41-.94,2.16,2.16,0,0,1-.29-1.68,2.06,2.06,0,0,1,1-1.33,2.14,2.14,0,0,0,2.33,3.58Z"/><path class="cls-3" d="M152.82,126a2.06,2.06,0,0,1-1.62.37,2.13,2.13,0,0,1-1.7-2.62,2.05,2.05,0,0,1,1-1.33,2.14,2.14,0,0,0,2.32,3.58Z"/><path class="cls-3" d="M155.15,129.56a2,2,0,0,1-1.62.37,2.15,2.15,0,0,1-1.42-.94,2.21,2.21,0,0,1-.29-1.68,2.08,2.08,0,0,1,1-1.33,2.14,2.14,0,0,0,2.33,3.58Z"/><path class="cls-3" d="M157.47,133.14a2.06,2.06,0,0,1-1.62.38,2.2,2.2,0,0,1-1.41-1,2.16,2.16,0,0,1-.29-1.68,2.08,2.08,0,0,1,1-1.33,2.14,2.14,0,0,0,2.32,3.58Z"/></g></svg>