<svg id="Layer_1" data-name="Layer 1" xmlns="http://www.w3.org/2000/svg" xmlns:xlink="http://www.w3.org/1999/xlink" viewBox="0 0 260 168"><defs><style>.cls-1{fill:red;}.cls-2{fill:#fff;}.cls-3{fill:#870000;}.cls-4{fill:#ff8585;}.cls-5{clip-path:url(#clip-path);}.cls-6{fill:#7f2828;stroke:#7f2828;stroke-miterlimit:10;stroke-width:0.45px;}.cls-7{clip-path:url(#clip-path-2);}.cls-8{fill:#d2ffff;}.cls-9{clip-path:url(#clip-path-3);}</style><clipPath id="clip-path"><path class="cls-1" d="M170.24,113.35S153.67,72,116.34,83.73s-27.08,56-22.19,71.91-8,5.28-22.6,18c0,0,9.16-.84,15.94,3.31s61.2,25.19,78.17-4.42S170.24,113.35,170.24,113.35Z"/></clipPath><clipPath id="clip-path-2"><circle class="cls-2" cx="126.16" cy="104.74" r="14.89" transform="translate(-23.02 172.79) rotate(-64.22)"/></clipPath><clipPath id="clip-path-3"><path class="cls-3" d="M97.22,100.79c.31-.36,8.36,7,5,9.39S94.29,104.2,97.22,100.79Z"/></clipPath></defs><path class="cls-4" d="M138,173a19.38,19.38,0,0,1,11.36-24.86c10-3.76,18.81-5.73,24.78,11.26s-6.76,34-7.81,34.39S141.68,183,138,173Z"/><path class="cls-4" d="M108.79,161.17a19.38,19.38,0,0,0,15.33-22.63c-2-10.48-4.89-19-22.5-15.32S76.09,146.68,76.3,147.78,98.34,163.19,108.79,161.17Z"/><path class="cls-4" d="M82.39,187.7c2.61,8.73,1.75,20.09-12.12,30.57,0,0-18.23-10.78-9.55-33.11,0,0-17.08,10-32.84-4.32,0,0,10.15-20.6,32.92-14A31.37,31.37,0,0,1,82.39,187.7Z"/><path class="cls-1" d="M170.24,113.35S153.67,72,116.34,83.73s-27.08,56-22.19,71.91-8,5.28-22.6,18c0,0,9.16-.84,15.94,3.31s61.2,25.19,78.17-4.42S170.24,113.35,170.24,113.35Z"/><g class="cls-5"><path class="cls-4" d="M160.22,142.17a10.33,10.33,0,0,1,1.22-4.06,11.1,11.1,0,0,1,2.8-3.27,10.85,10.85,0,0,1,15.53,2.31,11,11,0,0,1,1.7,4,10.39,10.39,0,0,1-.05,4.23,11.08,11.08,0,0,0-2.27-7.73,10.64,10.64,0,0,0-14.46-2.15A11.18,11.18,0,0,0,160.22,142.17Z"/><path class="cls-4" d="M139,139a10.45,10.45,0,0,1,1.22-4.05,11,11,0,0,1,2.8-3.27,10.78,10.78,0,0,1,17.23,6.26,10.26,10.26,0,0,1-.05,4.24,11.11,11.11,0,0,0-2.27-7.74,10.64,10.64,0,0,0-14.46-2.15A11.18,11.18,0,0,0,139,139Z"/><path class="cls-4" d="M117.82,135.82a10.5,10.5,0,0,1,1.22-4.06,11.1,11.1,0,0,1,2.8-3.27,10.85,10.85,0,0,1,15.53,2.31,11,11,0,0,1,1.7,4,10.21,10.21,0,0,1,0,4.23,11.08,11.08,0,0,0-2.27-7.73,10.63,10.63,0,0,0-14.46-2.16A11.23,11.23,0,0,0,117.82,135.82Z"/><path class="cls-4" d="M96.62,132.64a10.45,10.45,0,0,1,1.22-4,11,11,0,0,1,2.8-3.28,10.78,10.78,0,0,1,17.23,6.27,10.26,10.26,0,0,1-.05,4.24,11.11,11.11,0,0,0-2.27-7.74,10.63,10.63,0,0,0-14.45-2.15A11.2,11.2,0,0,0,96.62,132.64Z"/><path class="cls-4" d="M75.42,129.47a10.5,10.5,0,0,1,1.22-4.06,11.1,11.1,0,0,1,2.8-3.27,10.77,10.77,0,0,1,17.23,6.27,10,10,0,0,1,0,4.23,11.08,11.08,0,0,0-2.27-7.73,10.62,10.62,0,0,0-14.45-2.16A11.19,11.19,0,0,0,75.42,129.47Z"/><path class="cls-4" d="M158.66,161.88a10.46,10.46,0,0,1,1.48-4,11,11,0,0,1,3-3.08,10.77,10.77,0,0,1,16.79,7.36,10.17,10.17,0,0,1-.32,4.22,11.07,11.07,0,0,0-1.77-7.86,10.61,10.61,0,0,0-14.28-3.08A11.17,11.17,0,0,0,158.66,161.88Z"/><path class="cls-4" d="M137.71,157.35a10.29,10.29,0,0,1,1.48-4,11.17,11.17,0,0,1,3-3.09,10.85,10.85,0,0,1,15.35,3.31,11,11,0,0,1,1.44,4.06,10.17,10.17,0,0,1-.32,4.22,11.07,11.07,0,0,0-1.77-7.86,10.62,10.62,0,0,0-14.29-3.08A11.19,11.19,0,0,0,137.71,157.35Z"/><path class="cls-4" d="M116.76,152.81a10.25,10.25,0,0,1,1.48-4,11.13,11.13,0,0,1,3-3.08A10.78,10.78,0,0,1,138,153.12a10.2,10.2,0,0,1-.32,4.23,11.1,11.1,0,0,0-1.77-7.87,10.65,10.65,0,0,0-14.29-3.08A11.26,11.26,0,0,0,116.76,152.81Z"/><path class="cls-4" d="M95.81,148.28a10.19,10.19,0,0,1,1.48-4,10.84,10.84,0,0,1,18.35.22,11,11,0,0,1,1.44,4.06,10.14,10.14,0,0,1-.32,4.22A11.07,11.07,0,0,0,115,145a10.65,10.65,0,0,0-14.29-3.08A11.22,11.22,0,0,0,95.81,148.28Z"/><path class="cls-4" d="M74.86,143.75a10.14,10.14,0,0,1,1.48-4,10.84,10.84,0,0,1,18.35.22,11,11,0,0,1,1.44,4.06,10.34,10.34,0,0,1-.32,4.22A11.12,11.12,0,0,0,94,140.42a10.62,10.62,0,0,0-14.29-3.08A11.19,11.19,0,0,0,74.86,143.75Z"/><path class="cls-4" d="M134.27,172.11a10.38,10.38,0,0,1,1.77-3.85,11,11,0,0,1,3.22-2.85,10.82,10.82,0,0,1,15.06,4.43,11,11,0,0,1,1.14,4.15,10.25,10.25,0,0,1-.63,4.19,11.1,11.1,0,0,0-1.19-8,10.62,10.62,0,0,0-6.18-4.86,10.73,10.73,0,0,0-7.84.73A11.18,11.18,0,0,0,134.27,172.11Z"/><path class="cls-4" d="M113.71,166a10.53,10.53,0,0,1,1.77-3.85,11,11,0,0,1,3.22-2.85,10.78,10.78,0,0,1,16.2,8.58,10.2,10.2,0,0,1-.63,4.19,11.1,11.1,0,0,0-1.18-8,10.62,10.62,0,0,0-14-4.13A11.19,11.19,0,0,0,113.71,166Z"/><path class="cls-4" d="M93.15,160a10.38,10.38,0,0,1,1.77-3.85,11.17,11.17,0,0,1,3.22-2.86,10.8,10.8,0,0,1,16.21,8.59,10.36,10.36,0,0,1-.64,4.18,11.1,11.1,0,0,0-1.18-8,10.65,10.65,0,0,0-14-4.13A11.25,11.25,0,0,0,93.15,160Z"/><path class="cls-4" d="M72.6,153.91a10.21,10.21,0,0,1,1.76-3.85,11.08,11.08,0,0,1,3.23-2.86,10.8,10.8,0,0,1,16.2,8.59,10.43,10.43,0,0,1-.64,4.19A11.12,11.12,0,0,0,92,152a10.63,10.63,0,0,0-14-4.12A11.14,11.14,0,0,0,72.6,153.91Z"/><path class="cls-4" d="M93.06,167.2a10.33,10.33,0,0,1,2.68-3.28,10.83,10.83,0,0,1,12.31-.79,10.72,10.72,0,0,1,5.07,11.23,10.2,10.2,0,0,1-1.66,3.9,11.11,11.11,0,0,0,.85-8,10.67,10.67,0,0,0-12.54-7.53A11.2,11.2,0,0,0,93.06,167.2Z"/><path class="cls-4" d="M74.66,156.15a10.61,10.61,0,0,1,2.68-3.29,11.21,11.21,0,0,1,3.85-2,10.82,10.82,0,0,1,13.54,12.4,10.4,10.4,0,0,1-1.67,3.89,11.06,11.06,0,0,0,.85-8,10.64,10.64,0,0,0-4.77-6.25,10.75,10.75,0,0,0-7.77-1.28A11.2,11.2,0,0,0,74.66,156.15Z"/><path class="cls-4" d="M80.83,165.29a10.38,10.38,0,0,1,4-1.36,10.8,10.8,0,0,1,11.4,14.35A11,11,0,0,1,94,182a10.37,10.37,0,0,1-3.48,2.41,11.11,11.11,0,0,0,5-6.33,10.59,10.59,0,0,0-.71-7.82A10.7,10.7,0,0,0,88.89,165,11.22,11.22,0,0,0,80.83,165.29Z"/><path class="cls-4" d="M71.13,146.21a10.38,10.38,0,0,1,4-1.36,11.09,11.09,0,0,1,4.28.38,10.77,10.77,0,0,1,4.89,17.65,10.37,10.37,0,0,1-3.48,2.41,11.11,11.11,0,0,0,5-6.33,10.58,10.58,0,0,0-6.62-13A11.22,11.22,0,0,0,71.13,146.21Z"/><path class="cls-4" d="M61.43,127.14a10.39,10.39,0,0,1,4-1.37,11.28,11.28,0,0,1,4.28.38,10.77,10.77,0,0,1,4.89,17.65,10.37,10.37,0,0,1-3.48,2.41,11.11,11.11,0,0,0,5-6.33,10.58,10.58,0,0,0-6.62-13A11.17,11.17,0,0,0,61.43,127.14Z"/></g><path class="cls-6" d="M141.12,103.73s3.15,2.82,6.07.68c0,0-2.25,3.83-6.24,3Z"/><path class="cls-6" d="M140.86,107.11s2.35,4.29,6.36,3.08c0,0-3.93,3.32-8,.89Z"/><circle class="cls-2" cx="126.16" cy="104.74" r="14.89" transform="translate(-23.02 172.79) rotate(-64.22)"/><g class="cls-7"><circle cx="121.16" cy="100.8" r="10.73" transform="translate(-22.3 166.06) rotate(-64.22)"/><circle class="cls-2" cx="126.59" cy="99.78" r="3.04" transform="translate(-18.32 170.37) rotate(-64.22)"/></g><path class="cls-8" d="M160.62,118s-11,5.46-5,12C155.6,130.05,162,129.68,160.62,118Z"/><path class="cls-8" d="M145.61,121.9s-15,7.44-6.86,16.4C138.75,138.3,147.47,137.8,145.61,121.9Z"/><path class="cls-8" d="M158.06,105s-12.21,6.06-5.58,13.37C152.48,118.34,159.59,117.93,158.06,105Z"/><path class="cls-3" d="M97.22,100.79c.31-.36,8.36,7,5,9.39S94.29,104.2,97.22,100.79Z"/><g class="cls-9"><path class="cls-2" d="M96.31,99.69a16.42,16.42,0,0,0,8.27,11.22l3.9-5.91-9.83-7.43Z"/></g></svg>