<svg id="_8" data-name="8" xmlns="http://www.w3.org/2000/svg" xmlns:xlink="http://www.w3.org/1999/xlink" viewBox="0 0 260 168"><defs><style>.cls-1{fill:none;}.cls-2{fill:#870000;}.cls-3{fill:#ff8585;}.cls-4{fill:red;}.cls-5{fill:#7f2828;stroke:#7f2828;stroke-miterlimit:10;stroke-width:0.07px;}.cls-6{fill:#fff;}.cls-7{clip-path:url(#clip-path);}.cls-8{clip-path:url(#clip-path-2);}</style><clipPath id="clip-path"><ellipse class="cls-1" cx="171.8" cy="125.15" rx="7.43" ry="13" transform="translate(-33.16 68.87) rotate(-20.72)"/></clipPath><clipPath id="clip-path-2"><path class="cls-2" d="M173.78,136.79a3.34,3.34,0,0,1-1.27-2.36S169.53,136.51,173.78,136.79Z"/></clipPath></defs><path class="cls-3" d="M169.57,111.56c.91-1.22,1.43-3-.14-5.49a4.37,4.37,0,0,0-3.4,4.63,4.77,4.77,0,0,0-5.4-1.22,4.67,4.67,0,0,0,4.35,4.1A5.25,5.25,0,0,0,169.57,111.56Z"/><path class="cls-3" d="M168,122.76A3.24,3.24,0,0,1,169.6,127c-.74,1.62-1.55,2.9-4.27,1.6s-3.23-4.81-3.15-5S166.37,122,168,122.76Z"/><path class="cls-3" d="M174.22,120.31a3.23,3.23,0,0,0,1.62,4.26c1.63.73,3.08,1.15,4.26-1.63s-.76-5.74-.94-5.82S174.94,118.68,174.22,120.31Z"/><ellipse class="cls-4" cx="171.8" cy="125.15" rx="7.43" ry="13" transform="translate(-33.16 68.87) rotate(-20.72)"/><path class="cls-5" d="M176.64,131.58a.85.85,0,0,1,.22-1,1.05,1.05,0,0,0-.81.82Z"/><path class="cls-5" d="M176.09,131.44a1,1,0,0,1-.14-1.17,1.22,1.22,0,0,0-.57,1.21Z"/><ellipse class="cls-6" cx="175.67" cy="133.89" rx="2.48" ry="2.49" transform="translate(-25.16 41.94) rotate(-12.71)"/><circle cx="175.67" cy="133.89" r="1.79" transform="translate(-25.16 41.94) rotate(-12.71)"/><circle class="cls-6" cx="176.13" cy="133.09" r="0.51" transform="matrix(0.98, -0.22, 0.22, 0.98, -24.97, 42.02)"/><g class="cls-7"><path class="cls-3" d="M178.29,126.05a2,2,0,0,0,1,1,1.81,1.81,0,0,0,2.29-.87,1.9,1.9,0,0,0,.09-1.35,1.68,1.68,0,0,1,0,1.39,1.82,1.82,0,0,1-1,1,1.89,1.89,0,0,1-1.42-.07A1.74,1.74,0,0,1,178.29,126.05Z"/><path class="cls-3" d="M175,127.32a1.93,1.93,0,0,0,1,1,1.81,1.81,0,0,0,2.29-.87,1.9,1.9,0,0,0,.09-1.35,1.68,1.68,0,0,1,0,1.39,1.84,1.84,0,0,1-1,1,1.91,1.91,0,0,1-1.43-.07A1.69,1.69,0,0,1,175,127.32Z"/><path class="cls-3" d="M171.6,128.59a1.93,1.93,0,0,0,1,.95,1.81,1.81,0,0,0,2.29-.87,2,2,0,0,0,.1-1.35,1.72,1.72,0,0,1,0,1.39,1.88,1.88,0,0,1-1,1,1.91,1.91,0,0,1-1.43-.07A1.69,1.69,0,0,1,171.6,128.59Z"/><path class="cls-3" d="M168.25,129.86a1.93,1.93,0,0,0,1,.95,1.73,1.73,0,0,0,1.32,0,1.76,1.76,0,0,0,1-.88,2,2,0,0,0,.09-1.35,1.72,1.72,0,0,1,0,1.39,1.85,1.85,0,0,1-1,1,1.91,1.91,0,0,1-1.43-.07A1.69,1.69,0,0,1,168.25,129.86Z"/><path class="cls-3" d="M164.9,131.13a2,2,0,0,0,1,1,1.73,1.73,0,0,0,1.32,0,1.76,1.76,0,0,0,1-.88,2,2,0,0,0,.09-1.35,1.68,1.68,0,0,1,0,1.39,1.85,1.85,0,0,1-1,1,1.89,1.89,0,0,1-1.42-.07A1.68,1.68,0,0,1,164.9,131.13Z"/><path class="cls-3" d="M177.18,123.11a2,2,0,0,0,1,1,1.73,1.73,0,0,0,1.32,0,1.7,1.7,0,0,0,1-.88,1.9,1.9,0,0,0,.09-1.35,1.68,1.68,0,0,1,0,1.39,1.85,1.85,0,0,1-1,1,1.89,1.89,0,0,1-1.42-.07A1.74,1.74,0,0,1,177.18,123.11Z"/><path class="cls-3" d="M173.83,124.38a2,2,0,0,0,1,1,1.73,1.73,0,0,0,1.32,0,1.7,1.7,0,0,0,1-.88,1.9,1.9,0,0,0,.09-1.35,1.68,1.68,0,0,1,0,1.39,1.85,1.85,0,0,1-1,1,1.89,1.89,0,0,1-1.42-.07A1.74,1.74,0,0,1,173.83,124.38Z"/><path class="cls-3" d="M170.48,125.65a2,2,0,0,0,1,.95,1.82,1.82,0,0,0,2.29-.87,1.9,1.9,0,0,0,.09-1.35,1.68,1.68,0,0,1,0,1.39,1.82,1.82,0,0,1-1,1,1.89,1.89,0,0,1-1.42-.07A1.74,1.74,0,0,1,170.48,125.65Z"/><path class="cls-3" d="M167.14,126.92a1.93,1.93,0,0,0,1,1,1.81,1.81,0,0,0,2.29-.87,1.9,1.9,0,0,0,.09-1.35,1.68,1.68,0,0,1,0,1.39,1.82,1.82,0,0,1-1,1,1.89,1.89,0,0,1-1.42-.07A1.69,1.69,0,0,1,167.14,126.92Z"/><path class="cls-3" d="M163.79,128.19a1.93,1.93,0,0,0,1,.95,1.81,1.81,0,0,0,2.29-.87,2,2,0,0,0,.1-1.35,1.72,1.72,0,0,1,0,1.39,1.84,1.84,0,0,1-1,1,1.91,1.91,0,0,1-1.43-.07A1.69,1.69,0,0,1,163.79,128.19Z"/><path class="cls-3" d="M176.07,120.17a2,2,0,0,0,1,1,1.73,1.73,0,0,0,1.32,0,1.76,1.76,0,0,0,1-.88,2,2,0,0,0,.09-1.35,1.68,1.68,0,0,1,0,1.39,1.85,1.85,0,0,1-1,1,1.89,1.89,0,0,1-1.42-.07A1.68,1.68,0,0,1,176.07,120.17Z"/><path class="cls-3" d="M172.72,121.44a2,2,0,0,0,1,1,1.73,1.73,0,0,0,1.32,0,1.76,1.76,0,0,0,1-.88,1.9,1.9,0,0,0,.09-1.35,1.68,1.68,0,0,1,0,1.39,1.85,1.85,0,0,1-1,1,1.89,1.89,0,0,1-1.42-.07A1.68,1.68,0,0,1,172.72,121.44Z"/><path class="cls-3" d="M169.37,122.71a2,2,0,0,0,1,1,1.82,1.82,0,0,0,2.3-.87,1.9,1.9,0,0,0,.09-1.35,1.68,1.68,0,0,1,0,1.39,1.85,1.85,0,0,1-1,1,1.89,1.89,0,0,1-1.42-.07A1.71,1.71,0,0,1,169.37,122.71Z"/><path class="cls-3" d="M166,124a2,2,0,0,0,1,1,1.73,1.73,0,0,0,1.32,0,1.7,1.7,0,0,0,1-.88,1.9,1.9,0,0,0,.09-1.35,1.68,1.68,0,0,1,0,1.39,1.85,1.85,0,0,1-1,1,1.89,1.89,0,0,1-1.42-.07A1.74,1.74,0,0,1,166,124Z"/><path class="cls-3" d="M162.67,125.25a2,2,0,0,0,1,1,1.73,1.73,0,0,0,1.32,0,1.7,1.7,0,0,0,1-.88A1.9,1.9,0,0,0,166,124a1.68,1.68,0,0,1,0,1.39,1.85,1.85,0,0,1-1,1,1.89,1.89,0,0,1-1.42-.07A1.74,1.74,0,0,1,162.67,125.25Z"/><path class="cls-3" d="M175,117.23a1.93,1.93,0,0,0,1,1,1.81,1.81,0,0,0,2.29-.87,1.9,1.9,0,0,0,.09-1.35,1.68,1.68,0,0,1,0,1.39,1.84,1.84,0,0,1-1,1,1.91,1.91,0,0,1-1.43-.07A1.69,1.69,0,0,1,175,117.23Z"/><path class="cls-3" d="M171.61,118.5a1.93,1.93,0,0,0,1,1,1.81,1.81,0,0,0,2.29-.87,2,2,0,0,0,.1-1.35,1.72,1.72,0,0,1,0,1.39,1.88,1.88,0,0,1-1,1,1.91,1.91,0,0,1-1.43-.07A1.69,1.69,0,0,1,171.61,118.5Z"/><path class="cls-3" d="M168.26,119.77a1.93,1.93,0,0,0,1,1,1.73,1.73,0,0,0,1.32,0,1.76,1.76,0,0,0,1-.88,2,2,0,0,0,.09-1.35,1.72,1.72,0,0,1,0,1.39,1.85,1.85,0,0,1-1,1,1.91,1.91,0,0,1-1.43-.07A1.69,1.69,0,0,1,168.26,119.77Z"/><path class="cls-3" d="M164.91,121a2,2,0,0,0,1,.95,1.73,1.73,0,0,0,1.32,0,1.74,1.74,0,0,0,1-.89,1.93,1.93,0,0,0,.09-1.34,1.68,1.68,0,0,1,0,1.39,1.85,1.85,0,0,1-1,1,1.89,1.89,0,0,1-1.42-.07A1.68,1.68,0,0,1,164.91,121Z"/><path class="cls-3" d="M161.56,122.31a2,2,0,0,0,1,1,1.73,1.73,0,0,0,1.32,0,1.74,1.74,0,0,0,1-.89,1.87,1.87,0,0,0,.09-1.34,1.68,1.68,0,0,1,0,1.39,1.85,1.85,0,0,1-1,1,1.89,1.89,0,0,1-1.42-.07A1.68,1.68,0,0,1,161.56,122.31Z"/><path class="cls-3" d="M173.84,114.29a2,2,0,0,0,1,.95,1.73,1.73,0,0,0,1.32,0,1.68,1.68,0,0,0,1-.89,1.87,1.87,0,0,0,.09-1.34,1.68,1.68,0,0,1,0,1.39,1.85,1.85,0,0,1-1,1,1.89,1.89,0,0,1-1.42-.07A1.74,1.74,0,0,1,173.84,114.29Z"/><path class="cls-3" d="M170.49,115.56a2,2,0,0,0,1,1,1.81,1.81,0,0,0,2.29-.88,1.87,1.87,0,0,0,.09-1.34,1.68,1.68,0,0,1,0,1.39,1.82,1.82,0,0,1-1,1,1.89,1.89,0,0,1-1.42-.07A1.74,1.74,0,0,1,170.49,115.56Z"/><path class="cls-3" d="M167.15,116.83a1.93,1.93,0,0,0,1,1,1.73,1.73,0,0,0,1.32,0,1.7,1.7,0,0,0,1-.89,1.87,1.87,0,0,0,.09-1.34,1.68,1.68,0,0,1,0,1.39,1.82,1.82,0,0,1-1,1,1.89,1.89,0,0,1-1.42-.07A1.69,1.69,0,0,1,167.15,116.83Z"/><path class="cls-3" d="M163.8,118.1a1.93,1.93,0,0,0,1,1,1.73,1.73,0,0,0,1.32,0,1.7,1.7,0,0,0,1-.89,1.93,1.93,0,0,0,.1-1.34,1.72,1.72,0,0,1,0,1.39,1.84,1.84,0,0,1-1,1,1.91,1.91,0,0,1-1.43-.07A1.69,1.69,0,0,1,163.8,118.1Z"/><path class="cls-3" d="M160.45,119.37a1.93,1.93,0,0,0,1,.95,1.73,1.73,0,0,0,1.32,0,1.7,1.7,0,0,0,1-.89,1.93,1.93,0,0,0,.1-1.34,1.72,1.72,0,0,1,0,1.39,1.88,1.88,0,0,1-1,1,1.91,1.91,0,0,1-1.43-.07A1.69,1.69,0,0,1,160.45,119.37Z"/><path class="cls-3" d="M172.73,111.35a2,2,0,0,0,1,1,1.73,1.73,0,0,0,1.32,0,1.74,1.74,0,0,0,1-.89,1.87,1.87,0,0,0,.09-1.34,1.68,1.68,0,0,1,0,1.39,1.85,1.85,0,0,1-1,1,1.89,1.89,0,0,1-1.42-.07A1.68,1.68,0,0,1,172.73,111.35Z"/><path class="cls-3" d="M169.38,112.62a2,2,0,0,0,1,.95,1.82,1.82,0,0,0,2.3-.88,1.87,1.87,0,0,0,.09-1.34,1.68,1.68,0,0,1,0,1.39,1.85,1.85,0,0,1-1,1,1.89,1.89,0,0,1-1.42-.07A1.71,1.71,0,0,1,169.38,112.62Z"/><path class="cls-3" d="M166,113.89a2,2,0,0,0,1,1,1.73,1.73,0,0,0,1.32,0,1.68,1.68,0,0,0,1-.89,1.87,1.87,0,0,0,.09-1.34,1.68,1.68,0,0,1,0,1.39,1.85,1.85,0,0,1-1,1,1.89,1.89,0,0,1-1.42-.07A1.74,1.74,0,0,1,166,113.89Z"/><path class="cls-3" d="M162.68,115.16a2,2,0,0,0,1,1,1.73,1.73,0,0,0,1.32,0,1.68,1.68,0,0,0,1-.89,1.87,1.87,0,0,0,.09-1.34,1.68,1.68,0,0,1,0,1.39,1.85,1.85,0,0,1-1,1,1.89,1.89,0,0,1-1.42-.07A1.74,1.74,0,0,1,162.68,115.16Z"/><path class="cls-3" d="M159.33,116.43a2,2,0,0,0,1,.95,1.81,1.81,0,0,0,2.29-.88,1.87,1.87,0,0,0,.09-1.34,1.68,1.68,0,0,1,0,1.39,1.82,1.82,0,0,1-1,1,1.89,1.89,0,0,1-1.42-.07A1.74,1.74,0,0,1,159.33,116.43Z"/></g><path class="cls-2" d="M173.78,136.79a3.34,3.34,0,0,1-1.27-2.36S169.53,136.51,173.78,136.79Z"/><g class="cls-8"><ellipse class="cls-6" cx="173.01" cy="135.19" rx="0.76" ry="1.34" transform="translate(-25.55 41.47) rotate(-12.74)"/></g></svg>