<svg id="_6" data-name="6" xmlns="http://www.w3.org/2000/svg" xmlns:xlink="http://www.w3.org/1999/xlink" viewBox="0 0 260 168"><defs><style>.cls-1{fill:#fff;}.cls-2{fill:none;}.cls-3{fill:#773055;}.cls-4{fill:#c10606;}.cls-5{fill:#ff8585;}.cls-6{fill:red;}.cls-7{fill:#7f2828;stroke:#7f2828;stroke-miterlimit:10;stroke-width:0.08px;}.cls-8{clip-path:url(#clip-path);}.cls-9{clip-path:url(#clip-path-2);}.cls-10{clip-path:url(#clip-path-3);}.cls-11{fill:#cddb6a;}.cls-12{fill:#ffecb8;}.cls-13{fill:#aa3779;}</style><clipPath id="clip-path"><circle class="cls-1" cx="134.35" cy="148.76" r="2.52" transform="translate(-48.79 230.23) rotate(-71.9)"/></clipPath><clipPath id="clip-path-2"><path class="cls-2" d="M131.89,153c2,2.92,6.65,3.85,12.08,3.9,7.28.06,13.25-7,13.26-7.44s-5.84-7.6-13.13-7.67-13.21,1.48-13.26,7.44a7.4,7.4,0,0,0,.19,1.81"/></clipPath><clipPath id="clip-path-3"><path class="cls-3" d="M132.24,152.72a3.43,3.43,0,0,1-1.68,2.1c-1.36.92-2.75,1.25-3.7,0h0a3.51,3.51,0,0,1-.34-3.61c.95-2.09-.1-2.84-.1-2.84a.29.29,0,0,1,.37-.22c.29.1,1.16,1.1,1.77,1.33a4.76,4.76,0,0,1,2.78,1.15.44.44,0,0,0,0,.62s-.17.57.34.63c0,0,0,.49.3.37,0,0,.08.24.28.18Z"/></clipPath></defs><path class="cls-4" d="M131.07,150.84a2.33,2.33,0,0,1,.68,1.89l.93.16s.27-1,.07-1.19a9.16,9.16,0,0,1-.82-.88Z"/><path class="cls-5" d="M157.75,146.73c.84-1.3,2.4-2.44,5.28-1.8a4.47,4.47,0,0,1-3.22,4.88,4.85,4.85,0,0,1,3.06,4.71,4.75,4.75,0,0,1-5.44-2.7A5.35,5.35,0,0,1,157.75,146.73Z"/><path class="cls-5" d="M147.64,152.17a3.27,3.27,0,0,0-4.63,0c-1.29,1.27-2.22,2.5,0,4.63s5.71,1.4,5.85,1.26S148.91,153.46,147.64,152.17Z"/><path class="cls-5" d="M147.79,145.37a3.27,3.27,0,0,1-4.63-.05c-1.26-1.3-2.17-2.53.05-4.63s5.74-1.29,5.87-1.16S149.09,144.11,147.79,145.37Z"/><path class="cls-6" d="M131.63,152.62c1.84,3.25,6.67,4.26,12.34,4.31,7.28.06,13.25-7,13.26-7.44s-5.84-7.6-13.13-7.67-13.21,1.48-13.26,7.44a7.72,7.72,0,0,0,.15,1.63s1.26.36,1.42,1.38C132.52,153,131.63,152.62,131.63,152.62Z"/><path class="cls-7" d="M136.2,147s.72,0,.88-.56a1.06,1.06,0,0,1-.5,1.06Z"/><path class="cls-7" d="M136.53,147.49a1,1,0,0,0,1.17-.27,1.23,1.23,0,0,1-.95,1Z"/><circle class="cls-1" cx="134.35" cy="148.76" r="2.52" transform="translate(-48.79 230.23) rotate(-71.9)"/><g class="cls-8"><circle cx="133.68" cy="149.45" r="1.82" transform="translate(-49.91 230.07) rotate(-71.9)"/><circle class="cls-1" cx="134.29" cy="148.73" r="0.52"/></g><g class="cls-9"><path class="cls-5" d="M140.9,143.5a1.76,1.76,0,0,1-1.33-.51,1.81,1.81,0,0,1,0-2.65,1.7,1.7,0,0,1,1.33-.48,2,2,0,0,0-1.26.56,1.75,1.75,0,0,0-.49,1.24,1.7,1.7,0,0,0,.47,1.25A1.94,1.94,0,0,0,140.9,143.5Z"/><path class="cls-5" d="M140.86,147.14a1.7,1.7,0,0,1-1.32-.51,1.8,1.8,0,0,1,0-2.65,1.73,1.73,0,0,1,1.34-.48,2,2,0,0,0-1.26.56,1.84,1.84,0,0,0,0,2.5A2,2,0,0,0,140.86,147.14Z"/><path class="cls-5" d="M140.83,150.78a1.69,1.69,0,0,1-1.32-.51,1.93,1.93,0,0,1-.57-1.33,1.88,1.88,0,0,1,.59-1.32,1.73,1.73,0,0,1,1.33-.48,2,2,0,0,0-1.25.56,1.76,1.76,0,0,0-.5,1.24,1.79,1.79,0,0,0,.48,1.26A2,2,0,0,0,140.83,150.78Z"/><path class="cls-5" d="M140.8,154.42a1.72,1.72,0,0,1-1.32-.5,1.81,1.81,0,0,1,0-2.66,1.73,1.73,0,0,1,1.33-.48,2,2,0,0,0-1.25.56,1.72,1.72,0,0,0-.5,1.24,1.75,1.75,0,0,0,.48,1.26A2,2,0,0,0,140.8,154.42Z"/><path class="cls-5" d="M140.77,158.06a1.75,1.75,0,0,1-1.33-.5,1.92,1.92,0,0,1-.56-1.34,1.88,1.88,0,0,1,.59-1.32,1.73,1.73,0,0,1,1.33-.48,2,2,0,0,0-1.25.56,1.85,1.85,0,0,0,0,2.5A1.93,1.93,0,0,0,140.77,158.06Z"/><path class="cls-5" d="M144.08,143.53a1.75,1.75,0,0,1-1.32-.51,1.81,1.81,0,0,1,0-2.65,1.7,1.7,0,0,1,1.33-.48,1.91,1.91,0,0,0-1.26.56,1.81,1.81,0,0,0-.5,1.24,1.75,1.75,0,0,0,.48,1.25A2,2,0,0,0,144.08,143.53Z"/><path class="cls-5" d="M144.05,147.17a1.74,1.74,0,0,1-1.32-.51,1.93,1.93,0,0,1-.57-1.33,1.86,1.86,0,0,1,.59-1.32,1.72,1.72,0,0,1,1.33-.48,1.9,1.9,0,0,0-1.25.56,1.81,1.81,0,0,0-.5,1.24,1.75,1.75,0,0,0,.48,1.25A1.94,1.94,0,0,0,144.05,147.17Z"/><path class="cls-5" d="M144,150.81a1.72,1.72,0,0,1-1.32-.51,1.85,1.85,0,0,1-.57-1.33,1.88,1.88,0,0,1,.59-1.32,1.7,1.7,0,0,1,1.33-.48,2,2,0,0,0-1.25.56,1.72,1.72,0,0,0-.5,1.24,1.75,1.75,0,0,0,.48,1.25A1.91,1.91,0,0,0,144,150.81Z"/><path class="cls-5" d="M144,154.45a1.69,1.69,0,0,1-1.32-.51,1.85,1.85,0,0,1-.57-1.33,1.88,1.88,0,0,1,.59-1.32,1.7,1.7,0,0,1,1.33-.48,1.91,1.91,0,0,0-1.25.56,1.83,1.83,0,0,0,0,2.49A1.91,1.91,0,0,0,144,154.45Z"/><path class="cls-5" d="M144,158.09a1.72,1.72,0,0,1-1.33-.51,1.81,1.81,0,0,1,0-2.65,1.73,1.73,0,0,1,1.33-.48,1.91,1.91,0,0,0-1.25.56,1.72,1.72,0,0,0-.5,1.24,1.74,1.74,0,0,0,.47,1.26A2,2,0,0,0,144,158.09Z"/><path class="cls-5" d="M147.27,143.55a1.71,1.71,0,0,1-1.32-.5,1.93,1.93,0,0,1-.57-1.33,2,2,0,0,1,.59-1.32,1.74,1.74,0,0,1,1.34-.49,2,2,0,0,0-1.26.57,1.83,1.83,0,0,0,0,2.49A1.93,1.93,0,0,0,147.27,143.55Z"/><path class="cls-5" d="M147.24,147.2a1.74,1.74,0,0,1-1.32-.51,1.93,1.93,0,0,1-.57-1.33,1.86,1.86,0,0,1,.59-1.32,1.73,1.73,0,0,1,1.33-.49,2,2,0,0,0-1.25.57,1.79,1.79,0,0,0-.5,1.24,1.77,1.77,0,0,0,.48,1.25A2,2,0,0,0,147.24,147.2Z"/><path class="cls-5" d="M147.21,150.84a1.72,1.72,0,0,1-1.32-.51,1.85,1.85,0,0,1-.57-1.33,1.86,1.86,0,0,1,.59-1.32,1.7,1.7,0,0,1,1.33-.48,1.86,1.86,0,0,0-1.25.56,1.83,1.83,0,0,0,0,2.49A2,2,0,0,0,147.21,150.84Z"/><path class="cls-5" d="M147.18,154.48a1.76,1.76,0,0,1-1.33-.51,1.81,1.81,0,0,1,0-2.65,1.7,1.7,0,0,1,1.33-.48,1.86,1.86,0,0,0-1.25.56,1.72,1.72,0,0,0-.5,1.24,1.74,1.74,0,0,0,.47,1.25A1.94,1.94,0,0,0,147.18,154.48Z"/><path class="cls-5" d="M147.14,158.12a1.75,1.75,0,0,1-1.32-.51,1.81,1.81,0,0,1,0-2.65,1.7,1.7,0,0,1,1.33-.48,2,2,0,0,0-1.26.56,1.81,1.81,0,0,0-.5,1.24,1.75,1.75,0,0,0,.48,1.25A1.94,1.94,0,0,0,147.14,158.12Z"/><path class="cls-5" d="M150.46,143.58a1.73,1.73,0,0,1-1.32-.5,2,2,0,0,1-.57-1.33,2,2,0,0,1,.59-1.33,1.77,1.77,0,0,1,1.34-.48,2,2,0,0,0-1.26.56,1.81,1.81,0,0,0-.5,1.25,1.78,1.78,0,0,0,.48,1.25A1.93,1.93,0,0,0,150.46,143.58Z"/><path class="cls-5" d="M150.43,147.22a1.73,1.73,0,0,1-1.32-.5,1.93,1.93,0,0,1-.57-1.33,1.91,1.91,0,0,1,.59-1.33,1.75,1.75,0,0,1,1.33-.48,2,2,0,0,0-1.25.56,1.84,1.84,0,0,0,0,2.5A1.9,1.9,0,0,0,150.43,147.22Z"/><path class="cls-5" d="M150.4,150.86a1.68,1.68,0,0,1-1.32-.5,1.85,1.85,0,0,1-.57-1.33,1.86,1.86,0,0,1,.59-1.32,1.71,1.71,0,0,1,1.33-.49,1.92,1.92,0,0,0-1.25.57,1.71,1.71,0,0,0-.5,1.24,1.74,1.74,0,0,0,.48,1.25A1.9,1.9,0,0,0,150.4,150.86Z"/><path class="cls-5" d="M150.37,154.51A1.76,1.76,0,0,1,149,154a1.81,1.81,0,0,1,0-2.65,1.71,1.71,0,0,1,1.33-.49,1.92,1.92,0,0,0-1.25.57,1.84,1.84,0,0,0,0,2.49A2,2,0,0,0,150.37,154.51Z"/><path class="cls-5" d="M150.33,158.15a1.75,1.75,0,0,1-1.32-.51,1.88,1.88,0,0,1-.56-1.33A1.9,1.9,0,0,1,149,155a1.73,1.73,0,0,1,1.34-.48,1.91,1.91,0,0,0-1.26.56,1.81,1.81,0,0,0-.5,1.24,1.75,1.75,0,0,0,.48,1.25A2,2,0,0,0,150.33,158.15Z"/><path class="cls-5" d="M153.65,143.61a1.73,1.73,0,0,1-1.32-.5,2,2,0,0,1-.57-1.34,1.93,1.93,0,0,1,.59-1.32,1.76,1.76,0,0,1,1.33-.48,2,2,0,0,0-1.25.56,1.81,1.81,0,0,0-.5,1.25,1.78,1.78,0,0,0,.48,1.25A1.93,1.93,0,0,0,153.65,143.61Z"/><path class="cls-5" d="M153.62,147.25a1.72,1.72,0,0,1-1.32-.5,1.81,1.81,0,0,1,0-2.66,1.73,1.73,0,0,1,1.33-.48,2,2,0,0,0-1.25.56,1.84,1.84,0,0,0,0,2.5A1.9,1.9,0,0,0,153.62,147.25Z"/><path class="cls-5" d="M153.59,150.89a1.72,1.72,0,0,1-1.32-.5,1.86,1.86,0,0,1-.57-1.33,1.91,1.91,0,0,1,.59-1.33,1.73,1.73,0,0,1,1.33-.48,2,2,0,0,0-1.25.56,1.84,1.84,0,0,0,0,2.5A1.9,1.9,0,0,0,153.59,150.89Z"/><path class="cls-5" d="M153.56,154.53a1.75,1.75,0,0,1-1.33-.5,1.88,1.88,0,0,1-.56-1.33,1.91,1.91,0,0,1,.59-1.33,1.73,1.73,0,0,1,1.33-.48,2,2,0,0,0-1.25.56,1.85,1.85,0,0,0,0,2.5A1.93,1.93,0,0,0,153.56,154.53Z"/><path class="cls-5" d="M153.52,158.17a1.71,1.71,0,0,1-1.32-.5,1.93,1.93,0,0,1-.57-1.33,2,2,0,0,1,.59-1.32,1.74,1.74,0,0,1,1.34-.49,2,2,0,0,0-1.26.57,1.83,1.83,0,0,0,0,2.49A1.93,1.93,0,0,0,153.52,158.17Z"/><path class="cls-5" d="M156.84,143.64a1.7,1.7,0,0,1-1.32-.51,1.93,1.93,0,0,1-.57-1.33,1.88,1.88,0,0,1,.59-1.32,1.76,1.76,0,0,1,1.33-.48,2,2,0,0,0-1.25.56,1.84,1.84,0,0,0,0,2.5A2,2,0,0,0,156.84,143.64Z"/><path class="cls-5" d="M156.81,147.28a1.72,1.72,0,0,1-1.32-.5,1.81,1.81,0,0,1,0-2.66,1.73,1.73,0,0,1,1.33-.48,2,2,0,0,0-1.25.56,1.72,1.72,0,0,0-.5,1.24,1.75,1.75,0,0,0,.48,1.26A2,2,0,0,0,156.81,147.28Z"/><path class="cls-5" d="M156.78,150.92a1.75,1.75,0,0,1-1.33-.5,1.92,1.92,0,0,1-.56-1.34,1.88,1.88,0,0,1,.59-1.32,1.73,1.73,0,0,1,1.33-.48,2,2,0,0,0-1.25.56,1.73,1.73,0,0,0-.5,1.25,1.78,1.78,0,0,0,.47,1.25A2,2,0,0,0,156.78,150.92Z"/><path class="cls-5" d="M156.75,154.56a1.75,1.75,0,0,1-1.33-.5,1.83,1.83,0,0,1,0-2.66,1.73,1.73,0,0,1,1.33-.48,2,2,0,0,0-1.26.56,1.76,1.76,0,0,0-.49,1.25,1.73,1.73,0,0,0,.47,1.25A1.93,1.93,0,0,0,156.75,154.56Z"/><path class="cls-5" d="M156.71,158.2a1.73,1.73,0,0,1-1.32-.5,1.82,1.82,0,0,1,0-2.66,1.77,1.77,0,0,1,1.34-.48,2,2,0,0,0-1.26.56,1.81,1.81,0,0,0-.5,1.25,1.78,1.78,0,0,0,.48,1.25A1.93,1.93,0,0,0,156.71,158.2Z"/></g><path class="cls-3" d="M132.24,152.72a3.43,3.43,0,0,1-1.68,2.1c-1.36.92-2.75,1.25-3.7,0h0a3.51,3.51,0,0,1-.34-3.61c.95-2.09-.1-2.84-.1-2.84a.29.29,0,0,1,.37-.22c.29.1,1.16,1.1,1.77,1.33a4.76,4.76,0,0,1,2.78,1.15.44.44,0,0,0,0,.62s-.17.57.34.63c0,0,0,.49.3.37,0,0,.08.24.28.18Z"/><g class="cls-10"><path class="cls-11" d="M128.38,149.63a.52.52,0,0,0,.2-.19.71.71,0,0,0,0-.5,2,2,0,0,0-.19-.59,1.93,1.93,0,0,0-.67-.63,2,2,0,0,0-1.15-.43,1.13,1.13,0,0,0-.84.42,1.11,1.11,0,0,0-.23.91,2.19,2.19,0,0,0,1.13,1.3A1.8,1.8,0,0,0,128.38,149.63Z"/><path class="cls-2" d="M131.75,151.63l.06.12.09.2a.54.54,0,0,0,.19.25l.11.08a.2.2,0,0,1,0,.25.47.47,0,0,1-.26.11.83.83,0,0,1-.56,0,.85.85,0,0,1-.42-.61c-.08-.3-.22-1.17.21-1.27a.25.25,0,0,1,.32.23A3.79,3.79,0,0,0,131.75,151.63Z"/><path class="cls-12" d="M144.65,147.59h0"/></g><ellipse class="cls-13" cx="127.01" cy="152.62" rx="0.43" ry="0.52" transform="matrix(1, -0.08, 0.08, 1, -11.11, 9.98)"/><ellipse class="cls-13" cx="127.27" cy="151.62" rx="0.18" ry="0.21" transform="translate(-11.04 9.99) rotate(-4.31)"/><path class="cls-13" d="M128.24,150.15s1.8.72,2.23,1.94C130.47,152.09,130.53,150.24,128.24,150.15Z"/><path class="cls-3" d="M131.33,150.62a3.72,3.72,0,0,1,.95,1.8s-.58.65-.63.56-.79-1.27-.79-1.27-.24-.78-.27-.85S131.33,150.62,131.33,150.62Z"/></svg>