<svg id="_6" data-name="6" xmlns="http://www.w3.org/2000/svg" xmlns:xlink="http://www.w3.org/1999/xlink" viewBox="0 0 260 168"><defs><style>.cls-1{fill:none;}.cls-2{fill:#870000;}.cls-3{fill:#ff8585;}.cls-4{fill:red;}.cls-5{fill:#7f2828;stroke:#7f2828;stroke-miterlimit:10;stroke-width:0.07px;}.cls-6{fill:#fff;}.cls-7{clip-path:url(#clip-path);}.cls-8{clip-path:url(#clip-path-2);}</style><clipPath id="clip-path"><ellipse class="cls-1" cx="193.14" cy="130.25" rx="7.43" ry="13" transform="translate(26.46 293) rotate(-78.31)"/></clipPath><clipPath id="clip-path-2"><path class="cls-2" d="M203,135.45a3.34,3.34,0,0,1-2.63-.47S200.18,138.61,203,135.45Z"/></clipPath></defs><path class="cls-3" d="M180.47,124.85c-.53-1.42-1.8-2.84-4.71-2.82a4.37,4.37,0,0,0,2.09,5.35,4.76,4.76,0,0,0-3.92,3.9,4.68,4.68,0,0,0,5.8-1.47A5.2,5.2,0,0,0,180.47,124.85Z"/><path class="cls-3" d="M189.09,132.19a3.23,3.23,0,0,1,4.47.93c1,1.49,1.62,2.86-.93,4.46s-5.8.15-5.9,0S187.6,133.16,189.09,132.19Z"/><path class="cls-3" d="M190.35,125.62a3.24,3.24,0,0,0,4.47.91c1.49-1,2.62-2,.91-4.47s-5.26-2.43-5.41-2.33S189.36,124.13,190.35,125.62Z"/><ellipse class="cls-4" cx="193.14" cy="130.25" rx="7.43" ry="13" transform="translate(26.46 293) rotate(-78.31)"/><path class="cls-5" d="M201.17,129.61s-.69-.11-.72-.72a1.06,1.06,0,0,0,.26,1.13Z"/><path class="cls-5" d="M200.76,130s-.81.14-1.07-.51a1.21,1.21,0,0,0,.72,1.13Z"/><ellipse class="cls-6" cx="202.6" cy="131.67" rx="2.48" ry="2.49" transform="translate(10.31 277.99) rotate(-70.29)"/><circle cx="202.6" cy="131.67" r="1.79" transform="translate(10.31 277.99) rotate(-70.29)"/><circle class="cls-6" cx="202.17" cy="130.86" r="0.51" transform="translate(10.79 277.04) rotate(-70.29)"/><g class="cls-7"><path class="cls-3" d="M197.38,125.25a2,2,0,0,0,1.32-.3,1.82,1.82,0,0,0,.5-2.41,2,2,0,0,0-1.09-.8,1.74,1.74,0,0,1,1.18.74,1.86,1.86,0,0,1,.29,1.4,1.84,1.84,0,0,1-.82,1.16A1.69,1.69,0,0,1,197.38,125.25Z"/><path class="cls-3" d="M196.66,128.76a2,2,0,0,0,1.32-.3,1.73,1.73,0,0,0,.72-1.11,1.7,1.7,0,0,0-.23-1.3,1.9,1.9,0,0,0-1.09-.8,1.7,1.7,0,0,1,1.19.74,1.79,1.79,0,0,1-.53,2.56A1.73,1.73,0,0,1,196.66,128.76Z"/><path class="cls-3" d="M195.94,132.27a1.92,1.92,0,0,0,1.32-.31,1.73,1.73,0,0,0,.72-1.1,1.7,1.7,0,0,0-.23-1.3,1.92,1.92,0,0,0-1.09-.8,1.68,1.68,0,0,1,1.18.74,1.84,1.84,0,0,1,.3,1.39,1.9,1.9,0,0,1-.82,1.17A1.73,1.73,0,0,1,195.94,132.27Z"/><path class="cls-3" d="M195.22,135.77a1.88,1.88,0,0,0,1.31-.3,1.71,1.71,0,0,0,.72-1.1,1.74,1.74,0,0,0-.22-1.3,1.88,1.88,0,0,0-1.09-.8,1.7,1.7,0,0,1,1.18.73,1.77,1.77,0,0,1-.53,2.56A1.66,1.66,0,0,1,195.22,135.77Z"/><path class="cls-3" d="M194.49,139.28a1.9,1.9,0,0,0,1.32-.3,1.73,1.73,0,0,0,.72-1.11,1.76,1.76,0,0,0-.22-1.3,2,2,0,0,0-1.09-.8,1.74,1.74,0,0,1,1.18.74,1.86,1.86,0,0,1,.29,1.4,1.82,1.82,0,0,1-.82,1.16A1.69,1.69,0,0,1,194.49,139.28Z"/><path class="cls-3" d="M194.3,124.61a1.89,1.89,0,0,0,1.32-.3,1.71,1.71,0,0,0,.72-1.1,1.74,1.74,0,0,0-.22-1.3,1.88,1.88,0,0,0-1.09-.8,1.7,1.7,0,0,1,1.18.73,1.79,1.79,0,0,1-.53,2.56A1.68,1.68,0,0,1,194.3,124.61Z"/><path class="cls-3" d="M193.58,128.12a1.9,1.9,0,0,0,1.32-.3,1.8,1.8,0,0,0,.49-2.41,1.9,1.9,0,0,0-1.09-.8,1.73,1.73,0,0,1,1.19.74,1.91,1.91,0,0,1,.29,1.4,1.82,1.82,0,0,1-.82,1.16A1.69,1.69,0,0,1,193.58,128.12Z"/><path class="cls-3" d="M192.86,131.63a2,2,0,0,0,1.32-.3,1.77,1.77,0,0,0,.72-1.11,1.71,1.71,0,0,0-.23-1.3,1.9,1.9,0,0,0-1.09-.8,1.69,1.69,0,0,1,1.18.74,1.78,1.78,0,0,1-.52,2.56A1.69,1.69,0,0,1,192.86,131.63Z"/><path class="cls-3" d="M192.14,135.14a1.88,1.88,0,0,0,1.31-.31,1.69,1.69,0,0,0,.72-1.1,1.74,1.74,0,0,0-.22-1.3,2,2,0,0,0-1.09-.8,1.68,1.68,0,0,1,1.18.74,1.85,1.85,0,0,1,.3,1.39,1.88,1.88,0,0,1-.83,1.17A1.7,1.7,0,0,1,192.14,135.14Z"/><path class="cls-3" d="M191.41,138.65a1.91,1.91,0,0,0,1.32-.31,1.69,1.69,0,0,0,.72-1.1,1.74,1.74,0,0,0-.22-1.3,1.92,1.92,0,0,0-1.09-.8,1.7,1.7,0,0,1,1.18.74,1.79,1.79,0,0,1,.29,1.39,1.86,1.86,0,0,1-.82,1.17A1.77,1.77,0,0,1,191.41,138.65Z"/><path class="cls-3" d="M191.23,124a1.88,1.88,0,0,0,1.31-.31,1.69,1.69,0,0,0,.72-1.1,1.74,1.74,0,0,0-.22-1.3,2,2,0,0,0-1.09-.8,1.68,1.68,0,0,1,1.18.74,1.85,1.85,0,0,1,.3,1.39,1.88,1.88,0,0,1-.83,1.17A1.7,1.7,0,0,1,191.23,124Z"/><path class="cls-3" d="M190.5,127.49a1.91,1.91,0,0,0,1.32-.31,1.69,1.69,0,0,0,.72-1.1,1.74,1.74,0,0,0-.22-1.3,1.92,1.92,0,0,0-1.09-.8,1.7,1.7,0,0,1,1.18.74,1.84,1.84,0,0,1,.29,1.39,1.86,1.86,0,0,1-.82,1.17A1.77,1.77,0,0,1,190.5,127.49Z"/><path class="cls-3" d="M189.78,131a1.9,1.9,0,0,0,1.32-.3,1.79,1.79,0,0,0,.49-2.4,1.82,1.82,0,0,0-1.09-.8,1.72,1.72,0,0,1,1.19.73,1.92,1.92,0,0,1,.29,1.4,1.85,1.85,0,0,1-.82,1.16A1.69,1.69,0,0,1,189.78,131Z"/><path class="cls-3" d="M189.06,134.5a1.91,1.91,0,0,0,1.32-.3,1.77,1.77,0,0,0,.72-1.11,1.72,1.72,0,0,0-.23-1.3,2,2,0,0,0-1.09-.8,1.71,1.71,0,0,1,1.18.74,1.78,1.78,0,0,1-.52,2.56A1.69,1.69,0,0,1,189.06,134.5Z"/><path class="cls-3" d="M188.34,138a1.93,1.93,0,0,0,1.31-.3,1.82,1.82,0,0,0,.5-2.41,2,2,0,0,0-1.09-.8,1.71,1.71,0,0,1,1.18.74,1.87,1.87,0,0,1,.3,1.4,1.89,1.89,0,0,1-.83,1.16A1.66,1.66,0,0,1,188.34,138Z"/><path class="cls-3" d="M188.15,123.34a1.88,1.88,0,0,0,1.31-.3,1.73,1.73,0,0,0,.72-1.11,1.76,1.76,0,0,0-.22-1.3,2,2,0,0,0-1.09-.8,1.71,1.71,0,0,1,1.18.74,1.78,1.78,0,0,1-.52,2.56A1.69,1.69,0,0,1,188.15,123.34Z"/><path class="cls-3" d="M187.42,126.85a2,2,0,0,0,1.32-.3,1.82,1.82,0,0,0,.5-2.41,2,2,0,0,0-1.09-.8,1.71,1.71,0,0,1,1.18.74,1.8,1.8,0,0,1,.29,1.39,1.84,1.84,0,0,1-.82,1.17A1.68,1.68,0,0,1,187.42,126.85Z"/><path class="cls-3" d="M186.7,130.36a1.91,1.91,0,0,0,1.32-.31,1.79,1.79,0,0,0,.49-2.4,1.9,1.9,0,0,0-1.09-.8,1.7,1.7,0,0,1,1.19.74,1.89,1.89,0,0,1,.29,1.39,1.86,1.86,0,0,1-.82,1.17A1.73,1.73,0,0,1,186.7,130.36Z"/><path class="cls-3" d="M186,133.87a1.91,1.91,0,0,0,1.32-.31,1.73,1.73,0,0,0,.72-1.1,1.7,1.7,0,0,0-.23-1.3,1.86,1.86,0,0,0-1.09-.8,1.66,1.66,0,0,1,1.18.74,1.84,1.84,0,0,1,.3,1.39,1.9,1.9,0,0,1-.82,1.17A1.77,1.77,0,0,1,186,133.87Z"/><path class="cls-3" d="M185.26,137.37a1.88,1.88,0,0,0,1.31-.3,1.71,1.71,0,0,0,.72-1.1,1.74,1.74,0,0,0-.22-1.3,1.88,1.88,0,0,0-1.09-.8,1.7,1.7,0,0,1,1.18.73,1.88,1.88,0,0,1,.3,1.4,1.83,1.83,0,0,1-.83,1.16A1.66,1.66,0,0,1,185.26,137.37Z"/><path class="cls-3" d="M185.07,122.71a1.92,1.92,0,0,0,1.32-.31,1.73,1.73,0,0,0,.72-1.1,1.7,1.7,0,0,0-.23-1.3,1.92,1.92,0,0,0-1.09-.8,1.68,1.68,0,0,1,1.18.74,1.84,1.84,0,0,1,.3,1.39,1.9,1.9,0,0,1-.82,1.17A1.77,1.77,0,0,1,185.07,122.71Z"/><path class="cls-3" d="M184.35,126.21a1.88,1.88,0,0,0,1.31-.3,1.71,1.71,0,0,0,.72-1.1,1.74,1.74,0,0,0-.22-1.3,1.88,1.88,0,0,0-1.09-.8,1.7,1.7,0,0,1,1.18.73,1.88,1.88,0,0,1,.3,1.4,1.83,1.83,0,0,1-.83,1.16A1.66,1.66,0,0,1,184.35,126.21Z"/><path class="cls-3" d="M183.62,129.72a1.9,1.9,0,0,0,1.32-.3,1.73,1.73,0,0,0,.72-1.11,1.76,1.76,0,0,0-.22-1.3,2,2,0,0,0-1.09-.8,1.74,1.74,0,0,1,1.18.74,1.86,1.86,0,0,1,.29,1.4,1.84,1.84,0,0,1-.82,1.16A1.69,1.69,0,0,1,183.62,129.72Z"/><path class="cls-3" d="M182.9,133.23a2,2,0,0,0,1.32-.3,1.73,1.73,0,0,0,.72-1.11,1.71,1.71,0,0,0-.23-1.3,1.9,1.9,0,0,0-1.09-.8,1.73,1.73,0,0,1,1.19.74,1.89,1.89,0,0,1,.29,1.39,1.87,1.87,0,0,1-.82,1.17A1.73,1.73,0,0,1,182.9,133.23Z"/><path class="cls-3" d="M182.18,136.74a1.92,1.92,0,0,0,1.32-.31,1.68,1.68,0,0,0,.71-1.1A1.66,1.66,0,0,0,184,134a2,2,0,0,0-1.09-.8,1.68,1.68,0,0,1,1.18.74,1.85,1.85,0,0,1,.3,1.39,1.9,1.9,0,0,1-.82,1.17A1.73,1.73,0,0,1,182.18,136.74Z"/><path class="cls-3" d="M182,122.07a2,2,0,0,0,1.32-.3,1.77,1.77,0,0,0,.72-1.11,1.71,1.71,0,0,0-.23-1.3,1.9,1.9,0,0,0-1.09-.8,1.69,1.69,0,0,1,1.18.74,1.85,1.85,0,0,1,.3,1.39,1.87,1.87,0,0,1-.82,1.17A1.73,1.73,0,0,1,182,122.07Z"/><path class="cls-3" d="M181.27,125.58a1.88,1.88,0,0,0,1.31-.31,1.69,1.69,0,0,0,.72-1.1,1.74,1.74,0,0,0-.22-1.3,2,2,0,0,0-1.09-.8,1.68,1.68,0,0,1,1.18.74,1.85,1.85,0,0,1,.3,1.39,1.9,1.9,0,0,1-.82,1.17A1.73,1.73,0,0,1,181.27,125.58Z"/><path class="cls-3" d="M180.54,129.09a1.91,1.91,0,0,0,1.32-.31,1.69,1.69,0,0,0,.72-1.1,1.74,1.74,0,0,0-.22-1.3,1.92,1.92,0,0,0-1.09-.8,1.68,1.68,0,0,1,1.18.74,1.79,1.79,0,0,1,.29,1.39,1.82,1.82,0,0,1-.82,1.16A1.72,1.72,0,0,1,180.54,129.09Z"/><path class="cls-3" d="M179.82,132.59a1.9,1.9,0,0,0,1.32-.3,1.79,1.79,0,0,0,.49-2.4,1.82,1.82,0,0,0-1.09-.8,1.72,1.72,0,0,1,1.19.73,1.92,1.92,0,0,1,.29,1.4,1.82,1.82,0,0,1-.82,1.16A1.69,1.69,0,0,1,179.82,132.59Z"/><path class="cls-3" d="M179.1,136.1a1.9,1.9,0,0,0,1.32-.3,1.77,1.77,0,0,0,.72-1.11,1.72,1.72,0,0,0-.23-1.3,1.93,1.93,0,0,0-1.09-.8,1.69,1.69,0,0,1,1.18.74,1.78,1.78,0,0,1-.52,2.56A1.69,1.69,0,0,1,179.1,136.1Z"/></g><path class="cls-2" d="M203,135.45a3.34,3.34,0,0,1-2.63-.47S200.18,138.61,203,135.45Z"/><g class="cls-8"><ellipse class="cls-6" cx="201.3" cy="135.06" rx="0.76" ry="1.34" transform="translate(-7.65 257.95) rotate(-64.32)"/></g></svg>