<svg id="_4" data-name="4" xmlns="http://www.w3.org/2000/svg" xmlns:xlink="http://www.w3.org/1999/xlink" viewBox="0 0 260 168"><defs><style>.cls-1{fill:#fff;}.cls-2{fill:none;}.cls-3{fill:#ff8585;}.cls-4{fill:red;}.cls-5{fill:#7f2828;stroke:#7f2828;stroke-miterlimit:10;stroke-width:0.09px;}.cls-6{clip-path:url(#clip-path);}.cls-7{clip-path:url(#clip-path-2);}</style><clipPath id="clip-path"><circle class="cls-1" cx="133.35" cy="144.7" r="2.96" transform="translate(-56.88 94.37) rotate(-32.52)"/></clipPath><clipPath id="clip-path-2"><ellipse class="cls-2" cx="142.09" cy="137.41" rx="15.47" ry="8.86" transform="translate(-55.54 133.66) rotate(-42.95)"/></clipPath></defs><path class="cls-3" d="M151.64,124.1c-.34-1.79.07-4,3-5.79a5.22,5.22,0,0,1,1.19,6.75,5.68,5.68,0,0,1,6.41,1.54,5.56,5.56,0,0,1-6.81,2.08A6.25,6.25,0,0,1,151.64,124.1Z"/><path class="cls-3" d="M147.42,136.88a3.84,3.84,0,0,0-4,3.72c-.07,2.12.13,3.91,3.72,4s6-3.42,6-3.65S149.54,137,147.42,136.88Z"/><path class="cls-3" d="M142.06,131a3.83,3.83,0,0,1-4,3.69c-2.12-.08-3.9-.4-3.69-4s3.84-5.73,4.06-5.72S142.15,128.85,142.06,131Z"/><ellipse class="cls-4" cx="142.09" cy="137.41" rx="15.47" ry="8.86" transform="translate(-55.54 133.66) rotate(-42.95)"/><path class="cls-5" d="M133.53,141.72s.64-.55.29-1.17a1.24,1.24,0,0,1,.44,1.3Z"/><path class="cls-5" d="M134.19,141.86s.91-.35.77-1.17a1.42,1.42,0,0,1,0,1.59Z"/><circle class="cls-1" cx="133.35" cy="144.7" r="2.96" transform="translate(-56.88 94.37) rotate(-32.52)"/><g class="cls-6"><circle cx="133.54" cy="145.8" r="2.14" transform="matrix(0.84, -0.54, 0.54, 0.84, -57.44, 94.65)"/><circle class="cls-1" cx="133.48" cy="144.71" r="0.6"/></g><g class="cls-7"><path class="cls-3" d="M134.68,134.94a2.07,2.07,0,0,1-1.53.65,2.17,2.17,0,0,1-1.56-.69,2.2,2.2,0,0,1-.57-1.6,2,2,0,0,1,.75-1.48,2.14,2.14,0,0,0,2.91,3.12Z"/><path class="cls-3" d="M137.59,138.07a2.06,2.06,0,0,1-1.53.64,2.14,2.14,0,0,1-2.13-2.28,2.06,2.06,0,0,1,.75-1.49,2.14,2.14,0,0,0,2.91,3.13Z"/><path class="cls-3" d="M140.5,141.19a2.07,2.07,0,0,1-1.53.65,2.17,2.17,0,0,1-1.56-.69,2.2,2.2,0,0,1-.57-1.6,2,2,0,0,1,.75-1.48,2.14,2.14,0,0,0,2.91,3.12Z"/><path class="cls-3" d="M143.41,144.32a2.06,2.06,0,0,1-1.53.64,2.14,2.14,0,0,1-2.13-2.28,2.08,2.08,0,0,1,.75-1.49,2.14,2.14,0,0,0,2.91,3.13Z"/><path class="cls-3" d="M146.32,147.44a2.07,2.07,0,0,1-1.53.65,2.15,2.15,0,0,1-1.56-.69,2.2,2.2,0,0,1-.57-1.6,2,2,0,0,1,.75-1.48,2.14,2.14,0,0,0,2.91,3.12Z"/><path class="cls-3" d="M137.42,132.39a2.07,2.07,0,0,1-1.53.65,2.15,2.15,0,0,1-1.56-.69,2.21,2.21,0,0,1-.58-1.6,2.09,2.09,0,0,1,.76-1.48,2.14,2.14,0,0,0,2.91,3.12Z"/><path class="cls-3" d="M140.33,135.52a2.08,2.08,0,0,1-1.54.65,2.23,2.23,0,0,1-1.55-.69,2.16,2.16,0,0,1-.58-1.6,2.13,2.13,0,0,1,.76-1.49,2.14,2.14,0,0,0,2.91,3.13Z"/><path class="cls-3" d="M143.24,138.64a2.09,2.09,0,0,1-1.54.65,2.17,2.17,0,0,1-2.13-2.29,2.09,2.09,0,0,1,.76-1.48,2.14,2.14,0,0,0,2.91,3.12Z"/><path class="cls-3" d="M146.15,141.77a2.09,2.09,0,0,1-1.54.65,2.23,2.23,0,0,1-1.55-.69,2.16,2.16,0,0,1-.58-1.6,2.09,2.09,0,0,1,.76-1.49,2.14,2.14,0,0,0,2.91,3.13Z"/><path class="cls-3" d="M149.06,144.89a2.09,2.09,0,0,1-1.54.65,2.17,2.17,0,0,1-2.13-2.29,2.05,2.05,0,0,1,.76-1.48,2.14,2.14,0,0,0,2.91,3.12Z"/><path class="cls-3" d="M140.16,129.84a2.11,2.11,0,0,1-1.54.65,2.17,2.17,0,0,1-2.13-2.29,2.05,2.05,0,0,1,.76-1.48,2.14,2.14,0,0,0,2.91,3.12Z"/><path class="cls-3" d="M143.07,133a2.11,2.11,0,0,1-1.54.65,2.23,2.23,0,0,1-1.55-.69,2.16,2.16,0,0,1-.58-1.6,2.09,2.09,0,0,1,.76-1.49,2.14,2.14,0,0,0,2.91,3.13Z"/><path class="cls-3" d="M146,136.09a2.07,2.07,0,0,1-1.54.65,2.17,2.17,0,0,1-2.13-2.29,2.05,2.05,0,0,1,.76-1.48,2.14,2.14,0,0,0,2.91,3.12Z"/><path class="cls-3" d="M148.89,139.22a2.11,2.11,0,0,1-1.54.65,2.17,2.17,0,0,1-2.13-2.29,2.09,2.09,0,0,1,.76-1.49,2.14,2.14,0,0,0,2.91,3.13Z"/><path class="cls-3" d="M151.8,142.35a2.1,2.1,0,0,1-1.54.64,2.18,2.18,0,0,1-1.55-.68,2.2,2.2,0,0,1-.58-1.61,2.05,2.05,0,0,1,.76-1.48,2.14,2.14,0,0,0,2.91,3.13Z"/><path class="cls-3" d="M142.89,127.3a2.06,2.06,0,0,1-1.53.64,2.14,2.14,0,0,1-2.13-2.29,2.08,2.08,0,0,1,.75-1.48,2.14,2.14,0,0,0,2.91,3.13Z"/><path class="cls-3" d="M145.8,130.42a2.07,2.07,0,0,1-1.53.65,2.23,2.23,0,0,1-1.56-.69,2.2,2.2,0,0,1-.57-1.6,2.08,2.08,0,0,1,.75-1.48,2.14,2.14,0,0,0,2.91,3.12Z"/><path class="cls-3" d="M148.71,133.55a2.06,2.06,0,0,1-1.53.64,2.14,2.14,0,0,1-2.13-2.29,2.08,2.08,0,0,1,.75-1.48,2.14,2.14,0,0,0,2.91,3.13Z"/><path class="cls-3" d="M151.62,136.67a2.07,2.07,0,0,1-1.53.65,2.23,2.23,0,0,1-1.56-.69A2.2,2.2,0,0,1,148,135a2.08,2.08,0,0,1,.75-1.48,2.14,2.14,0,0,0,2.91,3.12Z"/><path class="cls-3" d="M154.53,139.8a2.06,2.06,0,0,1-1.53.64,2.14,2.14,0,0,1-2.13-2.28,2.08,2.08,0,0,1,.75-1.49,2.14,2.14,0,0,0,2.91,3.13Z"/><path class="cls-3" d="M145.63,124.75a2.06,2.06,0,0,1-1.53.64,2.14,2.14,0,0,1-2.13-2.28,2.08,2.08,0,0,1,.75-1.49,2.14,2.14,0,0,0,2.91,3.13Z"/><path class="cls-3" d="M148.54,127.87a2.07,2.07,0,0,1-1.53.65,2.17,2.17,0,0,1-1.56-.69,2.2,2.2,0,0,1-.57-1.6,2.08,2.08,0,0,1,.75-1.48,2.14,2.14,0,0,0,2.91,3.12Z"/><path class="cls-3" d="M151.45,131a2.06,2.06,0,0,1-1.53.64,2.14,2.14,0,0,1-2.13-2.28,2.1,2.1,0,0,1,.75-1.49,2.14,2.14,0,0,0,2.91,3.13Z"/><path class="cls-3" d="M154.36,134.12a2.07,2.07,0,0,1-1.53.65,2.17,2.17,0,0,1-1.56-.69,2.2,2.2,0,0,1-.57-1.6,2,2,0,0,1,.75-1.48,2.14,2.14,0,0,0,2.91,3.12Z"/><path class="cls-3" d="M157.27,137.25a2.06,2.06,0,0,1-1.53.64,2.14,2.14,0,0,1-2.13-2.28,2.08,2.08,0,0,1,.75-1.49,2.14,2.14,0,0,0,2.91,3.13Z"/><path class="cls-3" d="M148.37,122.2a2.06,2.06,0,0,1-1.53.64,2.14,2.14,0,0,1-2.13-2.28,2.08,2.08,0,0,1,.75-1.49,2.14,2.14,0,0,0,2.91,3.13Z"/><path class="cls-3" d="M151.28,125.32a2.07,2.07,0,0,1-1.53.65,2.15,2.15,0,0,1-1.56-.69,2.25,2.25,0,0,1-.58-1.6,2.09,2.09,0,0,1,.76-1.48,2.14,2.14,0,0,0,2.91,3.12Z"/><path class="cls-3" d="M154.19,128.45a2.07,2.07,0,0,1-1.53.65,2.23,2.23,0,0,1-1.56-.69,2.21,2.21,0,0,1-.58-1.6,2.13,2.13,0,0,1,.76-1.49,2.14,2.14,0,0,0,2.91,3.13Z"/><path class="cls-3" d="M157.1,131.57a2.07,2.07,0,0,1-1.53.65,2.15,2.15,0,0,1-1.56-.69,2.21,2.21,0,0,1-.58-1.6,2.09,2.09,0,0,1,.76-1.48,2.14,2.14,0,0,0,2.91,3.12Z"/><path class="cls-3" d="M160,134.7a2.08,2.08,0,0,1-1.54.65,2.23,2.23,0,0,1-1.55-.69,2.16,2.16,0,0,1-.58-1.6,2.13,2.13,0,0,1,.76-1.49A2.14,2.14,0,0,0,160,134.7Z"/></g></svg>