<svg id="_2" data-name="2" xmlns="http://www.w3.org/2000/svg" xmlns:xlink="http://www.w3.org/1999/xlink" viewBox="0 0 260 168"><defs><style>.cls-1{fill:none;}.cls-2{fill:#870000;}.cls-3{fill:#ff8585;}.cls-4{fill:red;}.cls-5{fill:#7f2828;stroke:#7f2828;stroke-miterlimit:10;stroke-width:0.07px;}.cls-6{fill:#fff;}.cls-7{clip-path:url(#clip-path);}.cls-8{clip-path:url(#clip-path-2);}</style><clipPath id="clip-path"><ellipse class="cls-1" cx="87.2" cy="131.37" rx="13" ry="7.43" transform="translate(-13.82 10.31) rotate(-6.27)"/></clipPath><clipPath id="clip-path-2"><path class="cls-2" d="M98.22,133.27a3.35,3.35,0,0,1-2.66.36S96.47,137.15,98.22,133.27Z"/></clipPath></defs><path class="cls-3" d="M73.49,130.15c-.95-1.19-2.59-2.15-5.36-1.24a4.39,4.39,0,0,0,3.65,4.45,4.77,4.77,0,0,0-2.54,4.92,4.69,4.69,0,0,0,5.07-3.19A5.25,5.25,0,0,0,73.49,130.15Z"/><path class="cls-3" d="M83.94,134.46a3.24,3.24,0,0,1,4.54-.48c1.39,1.11,2.43,2.22.49,4.53s-5.46,1.93-5.61,1.81S82.83,135.85,83.94,134.46Z"/><path class="cls-3" d="M83.12,127.83a3.23,3.23,0,0,0,4.54-.52c1.11-1.39,1.87-2.69-.52-4.52s-5.75-.7-5.87-.55S81.72,126.72,83.12,127.83Z"/><ellipse class="cls-4" cx="87.2" cy="131.37" rx="13" ry="7.43" transform="translate(-13.82 10.31) rotate(-6.27)"/><path class="cls-5" d="M94.65,128.29s-.7.11-.91-.46a1,1,0,0,0,.59,1Z"/><path class="cls-5" d="M94.37,128.79a1,1,0,0,1-1.17-.16,1.22,1.22,0,0,0,1,.86Z"/><ellipse class="cls-6" cx="96.64" cy="129.81" rx="2.48" ry="2.49" transform="translate(-36.01 222.51) rotate(-88.28)"/><circle cx="96.64" cy="129.81" r="1.79" transform="translate(-36.01 222.51) rotate(-88.28)"/><circle class="cls-6" cx="95.98" cy="129.17" r="0.51" transform="translate(-36.01 221.22) rotate(-88.28)"/><g class="cls-7"><path class="cls-3" d="M89.7,125.31a1.9,1.9,0,0,0,1.16-.7,1.7,1.7,0,0,0,.34-1.27,1.73,1.73,0,0,0-.61-1.17,2,2,0,0,0-1.29-.42,1.69,1.69,0,0,1,1.35.34,1.87,1.87,0,0,1,.72,1.23,1.9,1.9,0,0,1-.43,1.36A1.69,1.69,0,0,1,89.7,125.31Z"/><path class="cls-3" d="M90.09,128.87a1.9,1.9,0,0,0,1.16-.7,1.7,1.7,0,0,0,.34-1.27,1.73,1.73,0,0,0-.61-1.17,1.94,1.94,0,0,0-1.28-.42,1.7,1.7,0,0,1,1.35.34,1.78,1.78,0,0,1,.29,2.59A1.73,1.73,0,0,1,90.09,128.87Z"/><path class="cls-3" d="M90.48,132.43a1.87,1.87,0,0,0,1.16-.7,1.79,1.79,0,0,0-.27-2.44,1.94,1.94,0,0,0-1.28-.42,1.66,1.66,0,0,1,1.35.34,1.82,1.82,0,0,1,.71,1.23,1.85,1.85,0,0,1-.42,1.36A1.7,1.7,0,0,1,90.48,132.43Z"/><path class="cls-3" d="M90.88,136a1.9,1.9,0,0,0,1.16-.7,1.7,1.7,0,0,0,.34-1.27,1.73,1.73,0,0,0-.61-1.17,2,2,0,0,0-1.29-.42,1.67,1.67,0,0,1,1.36.34,1.77,1.77,0,0,1,.28,2.59A1.69,1.69,0,0,1,90.88,136Z"/><path class="cls-3" d="M91.27,139.55a1.87,1.87,0,0,0,1.16-.7,1.71,1.71,0,0,0,.35-1.27,1.74,1.74,0,0,0-.62-1.17,1.94,1.94,0,0,0-1.28-.42,1.66,1.66,0,0,1,1.35.34,1.82,1.82,0,0,1,.71,1.23,1.85,1.85,0,0,1-.42,1.36A1.73,1.73,0,0,1,91.27,139.55Z"/><path class="cls-3" d="M86.57,125.65a1.89,1.89,0,0,0,1.16-.69,1.72,1.72,0,0,0,.35-1.27,1.74,1.74,0,0,0-.62-1.17,1.89,1.89,0,0,0-1.28-.43,1.74,1.74,0,0,1,1.35.34,1.79,1.79,0,0,1,.29,2.6A1.69,1.69,0,0,1,86.57,125.65Z"/><path class="cls-3" d="M87,129.21a1.92,1.92,0,0,0,1.16-.69,1.8,1.8,0,0,0-.28-2.44,1.89,1.89,0,0,0-1.28-.43,1.73,1.73,0,0,1,1.35.34,1.79,1.79,0,0,1,.29,2.6A1.65,1.65,0,0,1,87,129.21Z"/><path class="cls-3" d="M87.36,132.77a1.89,1.89,0,0,0,1.16-.69,1.82,1.82,0,0,0-.27-2.44,1.89,1.89,0,0,0-1.28-.43,1.74,1.74,0,0,1,1.35.34,1.88,1.88,0,0,1,.71,1.24,1.85,1.85,0,0,1-.42,1.36A1.69,1.69,0,0,1,87.36,132.77Z"/><path class="cls-3" d="M87.75,136.33a1.86,1.86,0,0,0,1.16-.69,1.72,1.72,0,0,0,.35-1.27,1.74,1.74,0,0,0-.62-1.17,1.89,1.89,0,0,0-1.28-.43,1.74,1.74,0,0,1,1.35.34,1.79,1.79,0,0,1,.29,2.6A1.67,1.67,0,0,1,87.75,136.33Z"/><path class="cls-3" d="M88.15,139.89a1.89,1.89,0,0,0,1.16-.69,1.82,1.82,0,0,0-.27-2.44,1.92,1.92,0,0,0-1.29-.43,1.75,1.75,0,0,1,1.36.34,1.78,1.78,0,0,1,.28,2.6A1.65,1.65,0,0,1,88.15,139.89Z"/><path class="cls-3" d="M83.45,126a2,2,0,0,0,1.16-.7,1.82,1.82,0,0,0-.27-2.44,2,2,0,0,0-1.29-.42,1.65,1.65,0,0,1,1.35.34,1.87,1.87,0,0,1,.72,1.23,1.9,1.9,0,0,1-.43,1.36A1.69,1.69,0,0,1,83.45,126Z"/><path class="cls-3" d="M83.84,129.56a2,2,0,0,0,1.16-.7,1.72,1.72,0,0,0,.34-1.27,1.69,1.69,0,0,0-.61-1.17,1.94,1.94,0,0,0-1.28-.42,1.66,1.66,0,0,1,1.35.34,1.78,1.78,0,0,1,.29,2.59A1.73,1.73,0,0,1,83.84,129.56Z"/><path class="cls-3" d="M84.23,133.12a1.92,1.92,0,0,0,1.16-.7,1.72,1.72,0,0,0,.35-1.27,1.7,1.7,0,0,0-.62-1.17,1.94,1.94,0,0,0-1.28-.42,1.66,1.66,0,0,1,1.35.34,1.82,1.82,0,0,1,.71,1.23,1.85,1.85,0,0,1-.42,1.36A1.7,1.7,0,0,1,84.23,133.12Z"/><path class="cls-3" d="M84.63,136.68a2,2,0,0,0,1.16-.7,1.82,1.82,0,0,0-.27-2.44,2,2,0,0,0-1.29-.42,1.67,1.67,0,0,1,1.36.34,1.77,1.77,0,0,1,.28,2.59A1.69,1.69,0,0,1,84.63,136.68Z"/><path class="cls-3" d="M85,140.24a1.92,1.92,0,0,0,1.16-.7,1.72,1.72,0,0,0,.35-1.27,1.74,1.74,0,0,0-.62-1.17,1.94,1.94,0,0,0-1.28-.42A1.66,1.66,0,0,1,86,137a1.82,1.82,0,0,1,.71,1.23,1.85,1.85,0,0,1-.42,1.36A1.73,1.73,0,0,1,85,140.24Z"/><path class="cls-3" d="M80.32,126.34a1.93,1.93,0,0,0,1.16-.69,1.79,1.79,0,0,0-.27-2.44,1.89,1.89,0,0,0-1.28-.43,1.74,1.74,0,0,1,1.35.34,1.79,1.79,0,0,1,.29,2.6A1.76,1.76,0,0,1,80.32,126.34Z"/><path class="cls-3" d="M80.72,129.9a2,2,0,0,0,1.16-.69,1.73,1.73,0,0,0,.34-1.28,1.7,1.7,0,0,0-.62-1.16,1.89,1.89,0,0,0-1.28-.43,1.73,1.73,0,0,1,1.35.34,1.79,1.79,0,0,1,.29,2.6A1.72,1.72,0,0,1,80.72,129.9Z"/><path class="cls-3" d="M81.11,133.46a1.93,1.93,0,0,0,1.16-.69,1.81,1.81,0,0,0-.27-2.44,1.89,1.89,0,0,0-1.28-.43,1.74,1.74,0,0,1,1.35.34,1.88,1.88,0,0,1,.71,1.24,1.85,1.85,0,0,1-.42,1.36A1.76,1.76,0,0,1,81.11,133.46Z"/><path class="cls-3" d="M81.5,137a1.91,1.91,0,0,0,1.16-.69,1.79,1.79,0,0,0-.27-2.44,1.89,1.89,0,0,0-1.28-.43,1.74,1.74,0,0,1,1.35.34,1.79,1.79,0,0,1,.29,2.6A1.74,1.74,0,0,1,81.5,137Z"/><path class="cls-3" d="M81.9,140.58a1.93,1.93,0,0,0,1.16-.69,1.81,1.81,0,0,0-.27-2.44A1.92,1.92,0,0,0,81.5,137a1.75,1.75,0,0,1,1.36.34,1.78,1.78,0,0,1,.28,2.6A1.72,1.72,0,0,1,81.9,140.58Z"/><path class="cls-3" d="M77.2,126.69a2,2,0,0,0,1.16-.7,1.82,1.82,0,0,0-.27-2.44,1.93,1.93,0,0,0-1.29-.42,1.72,1.72,0,0,1,1.36.33,1.94,1.94,0,0,1,.71,1.24,1.9,1.9,0,0,1-.43,1.36A1.69,1.69,0,0,1,77.2,126.69Z"/><path class="cls-3" d="M77.59,130.25a2,2,0,0,0,1.16-.7,1.72,1.72,0,0,0,.34-1.27,1.69,1.69,0,0,0-.61-1.17,1.88,1.88,0,0,0-1.28-.42,1.69,1.69,0,0,1,1.35.33,1.9,1.9,0,0,1,.71,1.24,1.85,1.85,0,0,1-.42,1.36A1.73,1.73,0,0,1,77.59,130.25Z"/><path class="cls-3" d="M78,133.81a1.92,1.92,0,0,0,1.16-.7,1.72,1.72,0,0,0,.35-1.27,1.7,1.7,0,0,0-.62-1.17,1.88,1.88,0,0,0-1.28-.42,1.69,1.69,0,0,1,1.35.33,1.79,1.79,0,0,1,.29,2.6A1.7,1.7,0,0,1,78,133.81Z"/><path class="cls-3" d="M78.38,137.37a2,2,0,0,0,1.16-.7,1.82,1.82,0,0,0-.27-2.44,1.91,1.91,0,0,0-1.29-.42,1.71,1.71,0,0,1,1.36.33,1.79,1.79,0,0,1,.29,2.6A1.73,1.73,0,0,1,78.38,137.37Z"/><path class="cls-3" d="M78.77,140.93a1.92,1.92,0,0,0,1.16-.7,1.72,1.72,0,0,0,.35-1.27,1.74,1.74,0,0,0-.62-1.17,1.88,1.88,0,0,0-1.28-.42,1.69,1.69,0,0,1,1.35.33,1.79,1.79,0,0,1,.29,2.6A1.73,1.73,0,0,1,78.77,140.93Z"/><path class="cls-3" d="M74.07,127a1.93,1.93,0,0,0,1.16-.69A1.79,1.79,0,0,0,75,123.9a1.89,1.89,0,0,0-1.28-.43,1.7,1.7,0,0,1,1.35.34,1.78,1.78,0,0,1,.29,2.59A1.73,1.73,0,0,1,74.07,127Z"/><path class="cls-3" d="M74.47,130.59a1.93,1.93,0,0,0,1.16-.69,1.81,1.81,0,0,0-.27-2.44,1.94,1.94,0,0,0-1.29-.43,1.69,1.69,0,0,1,1.35.34,1.76,1.76,0,0,1,.29,2.59A1.69,1.69,0,0,1,74.47,130.59Z"/><path class="cls-3" d="M74.86,134.15a1.93,1.93,0,0,0,1.16-.69,1.81,1.81,0,0,0-.27-2.44,1.89,1.89,0,0,0-1.28-.43,1.7,1.7,0,0,1,1.35.34,1.88,1.88,0,0,1,.71,1.23,1.85,1.85,0,0,1-.42,1.36A1.73,1.73,0,0,1,74.86,134.15Z"/><path class="cls-3" d="M75.25,137.71a1.91,1.91,0,0,0,1.16-.69,1.8,1.8,0,0,0-.27-2.45,1.94,1.94,0,0,0-1.28-.42,1.7,1.7,0,0,1,1.35.34,1.78,1.78,0,0,1,.29,2.59A1.72,1.72,0,0,1,75.25,137.71Z"/><path class="cls-3" d="M75.65,141.27a1.93,1.93,0,0,0,1.16-.69,1.74,1.74,0,0,0,.34-1.28,1.77,1.77,0,0,0-.61-1.17,2,2,0,0,0-1.29-.42,1.71,1.71,0,0,1,1.36.34,1.77,1.77,0,0,1,.28,2.59A1.69,1.69,0,0,1,75.65,141.27Z"/></g><path class="cls-2" d="M98.22,133.27a3.35,3.35,0,0,1-2.66.36S96.47,137.15,98.22,133.27Z"/><g class="cls-8"><ellipse class="cls-6" cx="96.45" cy="133.43" rx="0.76" ry="1.34" transform="translate(-48.73 211.08) rotate(-82.28)"/></g></svg>