<svg id="Layer_13" data-name="Layer 13" xmlns="http://www.w3.org/2000/svg" xmlns:xlink="http://www.w3.org/1999/xlink" viewBox="0 0 260 168"><defs><style>.cls-1{fill:none;}.cls-2{fill:#870000;}.cls-3{fill:#ff8585;}.cls-4{fill:red;}.cls-5{fill:#7f2828;stroke:#7f2828;stroke-miterlimit:10;stroke-width:0.07px;}.cls-6{fill:#fff;}.cls-7{clip-path:url(#clip-path);}.cls-8{clip-path:url(#clip-path-2);}</style><clipPath id="clip-path"><ellipse class="cls-1" cx="118.41" cy="149.1" rx="7.43" ry="13" transform="translate(-32.71 264.92) rotate(-89.01)"/></clipPath><clipPath id="clip-path-2"><path class="cls-2" d="M107.62,152a3.35,3.35,0,0,0,2.68.11S109.72,155.71,107.62,152Z"/></clipPath></defs><path class="cls-3" d="M132,146.62c.84-1.27,2.38-2.38,5.22-1.72a4.39,4.39,0,0,1-3.22,4.77,4.74,4.74,0,0,1,3,4.66,4.67,4.67,0,0,1-5.33-2.71A5.23,5.23,0,0,1,132,146.62Z"/><path class="cls-3" d="M122,151.88a3.24,3.24,0,0,0-4.57-.06c-1.28,1.24-2.21,2.43-.07,4.55s5.62,1.42,5.75,1.29S123.19,153.16,122,151.88Z"/><path class="cls-3" d="M122.16,145.2a3.24,3.24,0,0,1-4.57-.1c-1.23-1.28-2.12-2.51.1-4.55s5.66-1.22,5.79-1.09S123.44,144,122.16,145.2Z"/><ellipse class="cls-4" cx="118.41" cy="149.1" rx="7.43" ry="13" transform="translate(-32.71 264.92) rotate(-89.01)"/><path class="cls-5" d="M110.72,146.72s.71,0,.86-.54a1,1,0,0,1-.5,1Z"/><path class="cls-5" d="M111,147.19a1,1,0,0,0,1.15-.27,1.19,1.19,0,0,1-.94,1Z"/><ellipse class="cls-6" cx="108.88" cy="148.41" rx="2.49" ry="2.48" transform="translate(-17.3 14.4) rotate(-7.01)"/><circle cx="108.87" cy="148.41" r="1.79" transform="translate(-17.3 14.4) rotate(-7.01)"/><circle class="cls-6" cx="109.48" cy="147.71" r="0.51" transform="translate(-17.21 14.47) rotate(-7.01)"/><g class="cls-7"><path class="cls-3" d="M115.38,143.29a1.67,1.67,0,0,1-1.3-.5,1.77,1.77,0,0,1,0-2.61,1.7,1.7,0,0,1,1.31-.47,2,2,0,0,0-1.24.55,1.8,1.8,0,0,0,0,2.45A1.85,1.85,0,0,0,115.38,143.29Z"/><path class="cls-3" d="M115.31,146.88a1.73,1.73,0,0,1-1.3-.51,1.85,1.85,0,0,1-.54-1.32,1.8,1.8,0,0,1,.59-1.29,1.72,1.72,0,0,1,1.32-.47,1.94,1.94,0,0,0-1.24.55,1.7,1.7,0,0,0-.51,1.21,1.73,1.73,0,0,0,.46,1.24A1.91,1.91,0,0,0,115.31,146.88Z"/><path class="cls-3" d="M115.25,150.46A1.72,1.72,0,0,1,114,150a1.77,1.77,0,0,1,0-2.61,1.65,1.65,0,0,1,1.31-.46,1.9,1.9,0,0,0-1.24.54,1.74,1.74,0,0,0-.5,1.22,1.72,1.72,0,0,0,.46,1.23A1.91,1.91,0,0,0,115.25,150.46Z"/><path class="cls-3" d="M115.18,154a1.73,1.73,0,0,1-1.3-.51,1.84,1.84,0,0,1-.54-1.32,1.82,1.82,0,0,1,.59-1.29,1.67,1.67,0,0,1,1.32-.46A1.88,1.88,0,0,0,114,151a1.79,1.79,0,0,0-.05,2.45A1.91,1.91,0,0,0,115.18,154Z"/><path class="cls-3" d="M115.12,157.62a1.68,1.68,0,0,1-1.3-.51,1.84,1.84,0,0,1-.55-1.31,1.9,1.9,0,0,1,.59-1.3,1.69,1.69,0,0,1,1.32-.46,1.9,1.9,0,0,0-1.24.54,1.74,1.74,0,0,0-.5,1.22,1.7,1.7,0,0,0,.46,1.23A1.91,1.91,0,0,0,115.12,157.62Z"/><path class="cls-3" d="M118.52,143.35a1.7,1.7,0,0,1-1.3-.51,1.77,1.77,0,0,1,0-2.61,1.69,1.69,0,0,1,1.31-.46,1.86,1.86,0,0,0-1.23.54,1.71,1.71,0,0,0-.51,1.22,1.74,1.74,0,0,0,.46,1.24A2,2,0,0,0,118.52,143.35Z"/><path class="cls-3" d="M118.45,146.93a1.66,1.66,0,0,1-1.29-.51,1.84,1.84,0,0,1-.55-1.31,1.92,1.92,0,0,1,.59-1.3,1.75,1.75,0,0,1,1.32-.46,1.88,1.88,0,0,0-1.24.54,1.82,1.82,0,0,0,0,2.46A1.9,1.9,0,0,0,118.45,146.93Z"/><path class="cls-3" d="M118.39,150.51a1.7,1.7,0,0,1-1.3-.51,1.77,1.77,0,0,1,0-2.61,1.73,1.73,0,0,1,1.31-.46,1.86,1.86,0,0,0-1.23.54,1.71,1.71,0,0,0-.51,1.22,1.74,1.74,0,0,0,.46,1.24A1.9,1.9,0,0,0,118.39,150.51Z"/><path class="cls-3" d="M118.32,154.09a1.69,1.69,0,0,1-1.29-.5,1.86,1.86,0,0,1-.55-1.32,1.92,1.92,0,0,1,.59-1.3,1.75,1.75,0,0,1,1.32-.46,2,2,0,0,0-1.24.54,1.72,1.72,0,0,0-.5,1.22,1.68,1.68,0,0,0,.46,1.24A1.9,1.9,0,0,0,118.32,154.09Z"/><path class="cls-3" d="M118.26,157.67a1.69,1.69,0,0,1-1.3-.5,1.78,1.78,0,0,1,.05-2.62,1.73,1.73,0,0,1,1.31-.46,2,2,0,0,0-1.23.54,1.74,1.74,0,0,0-.51,1.22,1.73,1.73,0,0,0,.46,1.24A1.9,1.9,0,0,0,118.26,157.67Z"/><path class="cls-3" d="M121.66,143.41a1.73,1.73,0,0,1-1.3-.51,1.89,1.89,0,0,1-.54-1.32,1.8,1.8,0,0,1,.59-1.29,1.72,1.72,0,0,1,1.32-.47,1.94,1.94,0,0,0-1.24.55,1.7,1.7,0,0,0-.51,1.21,1.73,1.73,0,0,0,.46,1.24A1.94,1.94,0,0,0,121.66,143.41Z"/><path class="cls-3" d="M121.6,147a1.73,1.73,0,0,1-1.3-.51,1.77,1.77,0,0,1,0-2.61,1.65,1.65,0,0,1,1.31-.46,1.9,1.9,0,0,0-1.24.54,1.74,1.74,0,0,0-.5,1.22,1.72,1.72,0,0,0,.46,1.23A1.91,1.91,0,0,0,121.6,147Z"/><path class="cls-3" d="M121.53,150.57a1.73,1.73,0,0,1-1.3-.51,1.88,1.88,0,0,1-.54-1.32,1.82,1.82,0,0,1,.59-1.29,1.67,1.67,0,0,1,1.32-.46,1.88,1.88,0,0,0-1.24.54,1.79,1.79,0,0,0,0,2.45A1.94,1.94,0,0,0,121.53,150.57Z"/><path class="cls-3" d="M121.47,154.15a1.73,1.73,0,0,1-1.3-.51,1.84,1.84,0,0,1-.55-1.32,1.87,1.87,0,0,1,.6-1.29,1.65,1.65,0,0,1,1.31-.46,1.9,1.9,0,0,0-1.24.54,1.74,1.74,0,0,0-.5,1.22,1.7,1.7,0,0,0,.46,1.23A1.91,1.91,0,0,0,121.47,154.15Z"/><path class="cls-3" d="M121.4,157.73a1.7,1.7,0,0,1-1.3-.51,1.87,1.87,0,0,1-.54-1.31,1.82,1.82,0,0,1,.59-1.3,1.71,1.71,0,0,1,1.32-.46,1.88,1.88,0,0,0-1.24.54,1.79,1.79,0,0,0,0,2.45A1.94,1.94,0,0,0,121.4,157.73Z"/><path class="cls-3" d="M124.81,143.46a1.68,1.68,0,0,1-1.3-.51,1.84,1.84,0,0,1-.55-1.31,1.9,1.9,0,0,1,.59-1.3,1.72,1.72,0,0,1,1.32-.46,1.9,1.9,0,0,0-1.24.54,1.82,1.82,0,0,0,0,2.46A1.9,1.9,0,0,0,124.81,143.46Z"/><path class="cls-3" d="M124.74,147a1.7,1.7,0,0,1-1.3-.51,1.79,1.79,0,0,1,0-2.61,1.75,1.75,0,0,1,1.32-.46,1.88,1.88,0,0,0-1.24.54,1.71,1.71,0,0,0-.51,1.22,1.74,1.74,0,0,0,.46,1.24A1.9,1.9,0,0,0,124.74,147Z"/><path class="cls-3" d="M124.68,150.62a1.68,1.68,0,0,1-1.3-.51,1.84,1.84,0,0,1-.55-1.31,1.92,1.92,0,0,1,.59-1.3,1.76,1.76,0,0,1,1.32-.46,2,2,0,0,0-1.24.54,1.82,1.82,0,0,0,0,2.46A1.9,1.9,0,0,0,124.68,150.62Z"/><path class="cls-3" d="M124.61,154.2a1.72,1.72,0,0,1-1.3-.5,1.8,1.8,0,0,1,0-2.62,1.75,1.75,0,0,1,1.32-.46,2,2,0,0,0-1.24.54,1.8,1.8,0,0,0,0,2.46A1.9,1.9,0,0,0,124.61,154.2Z"/><path class="cls-3" d="M124.55,157.78a1.67,1.67,0,0,1-1.3-.5,1.78,1.78,0,0,1,0-2.61,1.73,1.73,0,0,1,1.32-.47,2,2,0,0,0-1.24.55,1.8,1.8,0,0,0,0,2.45A1.85,1.85,0,0,0,124.55,157.78Z"/><path class="cls-3" d="M128,143.52a1.73,1.73,0,0,1-1.3-.51,1.9,1.9,0,0,1-.55-1.32,1.85,1.85,0,0,1,.6-1.29,1.7,1.7,0,0,1,1.31-.47,1.92,1.92,0,0,0-1.23.55,1.7,1.7,0,0,0-.51,1.21,1.73,1.73,0,0,0,.46,1.24A1.91,1.91,0,0,0,128,143.52Z"/><path class="cls-3" d="M127.88,147.1a1.7,1.7,0,0,1-1.29-.51,1.78,1.78,0,0,1,0-2.61,1.67,1.67,0,0,1,1.32-.46,1.88,1.88,0,0,0-1.24.54,1.82,1.82,0,0,0,0,2.45A2,2,0,0,0,127.88,147.1Z"/><path class="cls-3" d="M127.82,150.68a1.73,1.73,0,0,1-1.3-.51,1.89,1.89,0,0,1-.55-1.32,1.87,1.87,0,0,1,.6-1.29,1.65,1.65,0,0,1,1.31-.46,1.86,1.86,0,0,0-1.23.54,1.79,1.79,0,0,0-.05,2.45A1.91,1.91,0,0,0,127.82,150.68Z"/><path class="cls-3" d="M127.75,154.26a1.66,1.66,0,0,1-1.29-.51,1.84,1.84,0,0,1-.55-1.32,1.9,1.9,0,0,1,.59-1.29,1.67,1.67,0,0,1,1.32-.46,1.88,1.88,0,0,0-1.24.54,1.82,1.82,0,0,0,0,2.45A2,2,0,0,0,127.75,154.26Z"/><path class="cls-3" d="M127.69,157.84a1.7,1.7,0,0,1-1.3-.51,1.77,1.77,0,0,1,0-2.61,1.69,1.69,0,0,1,1.31-.46,1.86,1.86,0,0,0-1.23.54A1.71,1.71,0,0,0,126,156a1.74,1.74,0,0,0,.46,1.24A2,2,0,0,0,127.69,157.84Z"/><path class="cls-3" d="M131.09,143.57a1.7,1.7,0,0,1-1.3-.51,1.87,1.87,0,0,1-.54-1.31,1.84,1.84,0,0,1,.59-1.3,1.75,1.75,0,0,1,1.32-.46,1.88,1.88,0,0,0-1.24.54,1.71,1.71,0,0,0-.51,1.22,1.74,1.74,0,0,0,.46,1.24A1.93,1.93,0,0,0,131.09,143.57Z"/><path class="cls-3" d="M131,147.15a1.7,1.7,0,0,1-1.3-.51,1.84,1.84,0,0,1-.55-1.31,1.89,1.89,0,0,1,.6-1.3,1.73,1.73,0,0,1,1.31-.46,1.9,1.9,0,0,0-1.24.54,1.82,1.82,0,0,0,0,2.46A1.9,1.9,0,0,0,131,147.15Z"/><path class="cls-3" d="M131,150.73a1.72,1.72,0,0,1-1.3-.5,1.89,1.89,0,0,1-.54-1.32,1.84,1.84,0,0,1,.59-1.3,1.75,1.75,0,0,1,1.32-.46,2,2,0,0,0-1.24.54,1.8,1.8,0,0,0,0,2.46A1.93,1.93,0,0,0,131,150.73Z"/><path class="cls-3" d="M130.9,154.31a1.69,1.69,0,0,1-1.3-.5,1.86,1.86,0,0,1-.55-1.32,1.89,1.89,0,0,1,.6-1.3,1.73,1.73,0,0,1,1.31-.46,2,2,0,0,0-1.24.54,1.78,1.78,0,0,0-.5,1.22,1.73,1.73,0,0,0,.46,1.24A1.9,1.9,0,0,0,130.9,154.31Z"/><path class="cls-3" d="M130.83,157.9a1.73,1.73,0,0,1-1.3-.51,1.89,1.89,0,0,1-.54-1.32,1.8,1.8,0,0,1,.59-1.29,1.72,1.72,0,0,1,1.32-.47,1.94,1.94,0,0,0-1.24.55,1.7,1.7,0,0,0-.51,1.21,1.73,1.73,0,0,0,.46,1.24A1.94,1.94,0,0,0,130.83,157.9Z"/></g><path class="cls-2" d="M107.62,152a3.35,3.35,0,0,0,2.68.11S109.72,155.71,107.62,152Z"/><g class="cls-8"><ellipse class="cls-6" cx="109.4" cy="152" rx="1.34" ry="0.76" transform="translate(-31.39 28.51) rotate(-13)"/></g></svg>