<svg id="_3" data-name="3" xmlns="http://www.w3.org/2000/svg" xmlns:xlink="http://www.w3.org/1999/xlink" viewBox="0 0 260 168"><defs><style>.cls-1{fill:none;}.cls-2{fill:#870000;}.cls-3{fill:#ff8585;}.cls-4{fill:red;}.cls-5{fill:#7f2828;stroke:#7f2828;stroke-miterlimit:10;stroke-width:0.07px;}.cls-6{fill:#fff;}.cls-7{clip-path:url(#clip-path);}.cls-8{clip-path:url(#clip-path-2);}</style><clipPath id="clip-path"><ellipse class="cls-1" cx="115.53" cy="129.99" rx="13" ry="7.43" transform="translate(-0.22 0.2) rotate(-0.1)"/></clipPath><clipPath id="clip-path-2"><path class="cls-2" d="M126.27,133.07a3.35,3.35,0,0,1-2.68.07S124.12,136.74,126.27,133.07Z"/></clipPath></defs><path class="cls-3" d="M102,127.3c-.82-1.28-2.35-2.42-5.19-1.81a4.38,4.38,0,0,0,3.14,4.82,4.76,4.76,0,0,0-3,4.62,4.67,4.67,0,0,0,5.37-2.62A5.22,5.22,0,0,0,102,127.3Z"/><path class="cls-3" d="M112,132.72a3.24,3.24,0,0,1,4.57,0c1.26,1.26,2.17,2.47,0,4.56s-5.64,1.33-5.78,1.2S110.69,134,112,132.72Z"/><path class="cls-3" d="M111.84,126a3.24,3.24,0,0,0,4.57,0c1.25-1.27,2.16-2.48,0-4.56a6.32,6.32,0,0,0-5.78-1.17C110.48,120.41,110.58,124.78,111.84,126Z"/><ellipse class="cls-4" cx="115.53" cy="129.99" rx="13" ry="7.43" transform="translate(-0.22 0.2) rotate(-0.1)"/><path class="cls-5" d="M123.26,127.73s-.71,0-.86-.56a1,1,0,0,0,.48,1Z"/><path class="cls-5" d="M122.93,128.19a1,1,0,0,1-1.15-.28,1.19,1.19,0,0,0,.93,1Z"/><ellipse class="cls-6" cx="125.07" cy="129.45" rx="2.48" ry="2.49" transform="translate(-20.33 235.55) rotate(-82.1)"/><circle cx="125.08" cy="129.45" r="1.79" transform="translate(-20.33 235.55) rotate(-82.1)"/><circle class="cls-6" cx="124.48" cy="128.74" r="0.51" transform="translate(-20.14 234.36) rotate(-82.1)"/><g class="cls-7"><path class="cls-3" d="M118.65,124.23a1.93,1.93,0,0,0,1.23-.56,1.72,1.72,0,0,0,.48-1.23,1.76,1.76,0,0,0-.48-1.23,2,2,0,0,0-1.23-.56,1.71,1.71,0,0,1,1.3.48,1.87,1.87,0,0,1,.58,1.31,1.9,1.9,0,0,1-.57,1.31A1.68,1.68,0,0,1,118.65,124.23Z"/><path class="cls-3" d="M118.66,127.81a1.93,1.93,0,0,0,1.23-.56,1.8,1.8,0,0,0,0-2.46,1.91,1.91,0,0,0-1.23-.56,1.69,1.69,0,0,1,1.31.49,1.87,1.87,0,0,1,.58,1.3,1.9,1.9,0,0,1-.57,1.31A1.69,1.69,0,0,1,118.66,127.81Z"/><path class="cls-3" d="M118.67,131.4a1.94,1.94,0,0,0,1.23-.57,1.72,1.72,0,0,0,.48-1.23,1.69,1.69,0,0,0-.49-1.22,1.94,1.94,0,0,0-1.23-.57,1.74,1.74,0,0,1,1.31.49,1.87,1.87,0,0,1,.58,1.3,1.9,1.9,0,0,1-.57,1.31A1.75,1.75,0,0,1,118.67,131.4Z"/><path class="cls-3" d="M118.68,135a1.89,1.89,0,0,0,1.23-.57,1.79,1.79,0,0,0,0-2.45,1.88,1.88,0,0,0-1.23-.56,1.69,1.69,0,0,1,1.31.48,1.79,1.79,0,0,1,0,2.61A1.75,1.75,0,0,1,118.68,135Z"/><path class="cls-3" d="M118.69,138.56a1.89,1.89,0,0,0,1.23-.57,1.7,1.7,0,0,0,.48-1.22,1.73,1.73,0,0,0-.49-1.23,1.93,1.93,0,0,0-1.23-.56,1.7,1.7,0,0,1,1.31.48,1.79,1.79,0,0,1,0,2.61A1.71,1.71,0,0,1,118.69,138.56Z"/><path class="cls-3" d="M115.51,124.24a1.89,1.89,0,0,0,1.23-.57,1.79,1.79,0,0,0,0-2.45,1.93,1.93,0,0,0-1.23-.56,1.7,1.7,0,0,1,1.31.48,1.79,1.79,0,0,1,0,2.61A1.71,1.71,0,0,1,115.51,124.24Z"/><path class="cls-3" d="M115.52,127.82a1.93,1.93,0,0,0,1.23-.56,1.78,1.78,0,0,0,.48-1.23,1.73,1.73,0,0,0-.49-1.23,1.93,1.93,0,0,0-1.23-.56,1.7,1.7,0,0,1,1.31.48,1.86,1.86,0,0,1,.57,1.31,1.81,1.81,0,0,1-.56,1.3A1.71,1.71,0,0,1,115.52,127.82Z"/><path class="cls-3" d="M115.53,131.4a1.93,1.93,0,0,0,1.23-.56,1.8,1.8,0,0,0,0-2.46,1.93,1.93,0,0,0-1.23-.56,1.74,1.74,0,0,1,1.31.48,1.9,1.9,0,0,1,.57,1.31,1.82,1.82,0,0,1-.57,1.31A1.67,1.67,0,0,1,115.53,131.4Z"/><path class="cls-3" d="M115.54,135a1.93,1.93,0,0,0,1.23-.56,1.83,1.83,0,0,0,0-2.46,1.93,1.93,0,0,0-1.23-.56,1.74,1.74,0,0,1,1.31.48,1.79,1.79,0,0,1,0,2.62A1.67,1.67,0,0,1,115.54,135Z"/><path class="cls-3" d="M115.55,138.57a1.94,1.94,0,0,0,1.22-.57,1.8,1.8,0,0,0,0-2.45,1.94,1.94,0,0,0-1.23-.57,1.71,1.71,0,0,1,1.31.49,1.86,1.86,0,0,1,.57,1.3,1.9,1.9,0,0,1-.57,1.31A1.71,1.71,0,0,1,115.55,138.57Z"/><path class="cls-3" d="M112.37,124.25a1.94,1.94,0,0,0,1.22-.57,1.68,1.68,0,0,0,.48-1.23,1.72,1.72,0,0,0-.48-1.23,1.93,1.93,0,0,0-1.23-.56,1.71,1.71,0,0,1,1.31.49,1.86,1.86,0,0,1,.57,1.3,1.9,1.9,0,0,1-.57,1.31A1.71,1.71,0,0,1,112.37,124.25Z"/><path class="cls-3" d="M112.38,127.83a1.89,1.89,0,0,0,1.22-.57,1.72,1.72,0,0,0,.48-1.23,1.68,1.68,0,0,0-.48-1.22,1.88,1.88,0,0,0-1.23-.56,1.7,1.7,0,0,1,1.31.48,1.86,1.86,0,0,1,.57,1.3,1.88,1.88,0,0,1-.57,1.31A1.71,1.71,0,0,1,112.38,127.83Z"/><path class="cls-3" d="M112.39,131.41a1.87,1.87,0,0,0,1.22-.57,1.7,1.7,0,0,0,.48-1.23,1.74,1.74,0,0,0-.48-1.22,1.93,1.93,0,0,0-1.23-.56,1.67,1.67,0,0,1,1.3.48,1.83,1.83,0,0,1,.58,1.3,1.86,1.86,0,0,1-.57,1.31A1.71,1.71,0,0,1,112.39,131.41Z"/><path class="cls-3" d="M112.39,135a1.93,1.93,0,0,0,1.23-.56,1.74,1.74,0,0,0,.48-1.23,1.76,1.76,0,0,0-.48-1.23,2,2,0,0,0-1.23-.56,1.67,1.67,0,0,1,1.3.48,1.83,1.83,0,0,1,.58,1.31,1.86,1.86,0,0,1-.57,1.3A1.7,1.7,0,0,1,112.39,135Z"/><path class="cls-3" d="M112.4,138.57a1.93,1.93,0,0,0,1.23-.56,1.8,1.8,0,0,0,0-2.46,1.91,1.91,0,0,0-1.23-.56,1.69,1.69,0,0,1,1.31.48,1.91,1.91,0,0,1,.58,1.31,1.86,1.86,0,0,1-.57,1.3A1.66,1.66,0,0,1,112.4,138.57Z"/><path class="cls-3" d="M109.22,124.25a1.93,1.93,0,0,0,1.23-.56,1.8,1.8,0,0,0,0-2.46,1.91,1.91,0,0,0-1.23-.56,1.69,1.69,0,0,1,1.31.48,1.89,1.89,0,0,1,.58,1.31,1.86,1.86,0,0,1-.57,1.3A1.68,1.68,0,0,1,109.22,124.25Z"/><path class="cls-3" d="M109.23,127.83a1.93,1.93,0,0,0,1.23-.56,1.8,1.8,0,0,0,0-2.46,1.93,1.93,0,0,0-1.23-.56,1.73,1.73,0,0,1,1.31.48,1.78,1.78,0,0,1,0,2.62A1.7,1.7,0,0,1,109.23,127.83Z"/><path class="cls-3" d="M109.24,131.42a2,2,0,0,0,1.23-.57,1.8,1.8,0,0,0,0-2.46,1.93,1.93,0,0,0-1.23-.56,1.71,1.71,0,0,1,1.31.49,1.82,1.82,0,0,1,.57,1.3,1.85,1.85,0,0,1-.56,1.31A1.75,1.75,0,0,1,109.24,131.42Z"/><path class="cls-3" d="M109.25,135a1.94,1.94,0,0,0,1.23-.57,1.72,1.72,0,0,0,.48-1.23,1.69,1.69,0,0,0-.49-1.22,1.88,1.88,0,0,0-1.23-.56,1.7,1.7,0,0,1,1.31.48,1.82,1.82,0,0,1,.57,1.3,1.85,1.85,0,0,1-.56,1.31A1.75,1.75,0,0,1,109.25,135Z"/><path class="cls-3" d="M109.26,138.58a1.89,1.89,0,0,0,1.23-.57,1.76,1.76,0,0,0,.48-1.23,1.71,1.71,0,0,0-.49-1.22,1.88,1.88,0,0,0-1.23-.56,1.7,1.7,0,0,1,1.31.48,1.86,1.86,0,0,1,.57,1.3,1.81,1.81,0,0,1-.56,1.31A1.75,1.75,0,0,1,109.26,138.58Z"/><path class="cls-3" d="M106.08,124.26a1.89,1.89,0,0,0,1.23-.57,1.79,1.79,0,0,0,0-2.45,1.88,1.88,0,0,0-1.23-.56,1.7,1.7,0,0,1,1.31.48,1.86,1.86,0,0,1,.57,1.3,1.83,1.83,0,0,1-.56,1.31A1.75,1.75,0,0,1,106.08,124.26Z"/><path class="cls-3" d="M106.09,127.84a1.89,1.89,0,0,0,1.23-.57,1.74,1.74,0,0,0,.48-1.22,1.77,1.77,0,0,0-.49-1.23,1.93,1.93,0,0,0-1.23-.56,1.7,1.7,0,0,1,1.31.48A1.86,1.86,0,0,1,108,126a1.82,1.82,0,0,1-.57,1.31A1.68,1.68,0,0,1,106.09,127.84Z"/><path class="cls-3" d="M106.1,131.42a1.93,1.93,0,0,0,1.23-.56,1.83,1.83,0,0,0,0-2.46,1.93,1.93,0,0,0-1.23-.56,1.7,1.7,0,0,1,1.31.48,1.78,1.78,0,0,1,0,2.61A1.64,1.64,0,0,1,106.1,131.42Z"/><path class="cls-3" d="M106.11,135a1.88,1.88,0,0,0,1.22-.56,1.68,1.68,0,0,0,.48-1.23,1.72,1.72,0,0,0-.48-1.23,1.93,1.93,0,0,0-1.23-.56,1.74,1.74,0,0,1,1.31.48,1.79,1.79,0,0,1,0,2.62A1.67,1.67,0,0,1,106.11,135Z"/><path class="cls-3" d="M106.12,138.58a1.88,1.88,0,0,0,1.22-.56,1.82,1.82,0,0,0,0-2.46,1.93,1.93,0,0,0-1.23-.56,1.71,1.71,0,0,1,1.3.48,1.87,1.87,0,0,1,.58,1.31,1.9,1.9,0,0,1-.57,1.31A1.67,1.67,0,0,1,106.12,138.58Z"/><path class="cls-3" d="M102.94,124.26a1.9,1.9,0,0,0,1.22-.56,1.82,1.82,0,0,0,0-2.46,1.93,1.93,0,0,0-1.23-.56,1.71,1.71,0,0,1,1.3.48,1.87,1.87,0,0,1,.58,1.31,1.9,1.9,0,0,1-.57,1.31A1.67,1.67,0,0,1,102.94,124.26Z"/><path class="cls-3" d="M102.94,127.85a2,2,0,0,0,1.23-.57,1.72,1.72,0,0,0,.48-1.23,1.76,1.76,0,0,0-.48-1.23,2,2,0,0,0-1.23-.56,1.68,1.68,0,0,1,1.3.49,1.83,1.83,0,0,1,.58,1.3,1.9,1.9,0,0,1-.57,1.31A1.72,1.72,0,0,1,102.94,127.85Z"/><path class="cls-3" d="M103,131.43a1.89,1.89,0,0,0,1.23-.57,1.72,1.72,0,0,0,.48-1.23,1.69,1.69,0,0,0-.49-1.22,1.86,1.86,0,0,0-1.23-.56,1.68,1.68,0,0,1,1.31.48,1.77,1.77,0,0,1,0,2.61A1.74,1.74,0,0,1,103,131.43Z"/><path class="cls-3" d="M103,135a1.89,1.89,0,0,0,1.23-.57,1.79,1.79,0,0,0,0-2.45,1.93,1.93,0,0,0-1.23-.56,1.69,1.69,0,0,1,1.31.48,1.77,1.77,0,0,1,0,2.61A1.71,1.71,0,0,1,103,135Z"/><path class="cls-3" d="M103,138.59a1.93,1.93,0,0,0,1.23-.56,1.8,1.8,0,0,0,0-2.46A1.93,1.93,0,0,0,103,135a1.69,1.69,0,0,1,1.31.48,1.79,1.79,0,0,1,0,2.61A1.71,1.71,0,0,1,103,138.59Z"/></g><path class="cls-2" d="M126.27,133.07a3.35,3.35,0,0,1-2.68.07S124.12,136.74,126.27,133.07Z"/><g class="cls-8"><ellipse class="cls-6" cx="124.5" cy="133.03" rx="0.76" ry="1.34" transform="translate(-34.54 221.94) rotate(-76.1)"/></g></svg>