<svg id="_5" data-name="5" xmlns="http://www.w3.org/2000/svg" xmlns:xlink="http://www.w3.org/1999/xlink" viewBox="0 0 260 168"><defs><style>.cls-1{fill:#fff;}.cls-2{fill:none;}.cls-3{fill:#773055;}.cls-4{fill:#c10606;}.cls-5{fill:#ff8585;}.cls-6{fill:red;}.cls-7{fill:#7f2828;stroke:#7f2828;stroke-miterlimit:10;stroke-width:0.08px;}.cls-8{clip-path:url(#clip-path);}.cls-9{clip-path:url(#clip-path-2);}.cls-10{clip-path:url(#clip-path-3);}.cls-11{fill:#cddb6a;}.cls-12{fill:#ffecb8;}.cls-13{fill:#aa3779;}</style><clipPath id="clip-path"><circle class="cls-1" cx="168.65" cy="137.79" r="2.52" transform="translate(-45.56 98.48) rotate(-28.85)"/></clipPath><clipPath id="clip-path-2"><path class="cls-2" d="M165.15,141.27c-3.34-1.19-5.43-5.44-6.88-10.66-1.94-7,3.33-14.61,3.76-14.73s8.86,3.68,10.8,10.7,2,13.14-3.76,14.73a7.45,7.45,0,0,1-1.8.28"/></clipPath><clipPath id="clip-path-3"><path class="cls-3" d="M165.36,140.85a3.46,3.46,0,0,0-1.6,2.16c-.53,1.56-.49,3,1,3.58h0a3.49,3.49,0,0,0,3.57-.6c1.78-1.46,2.77-.63,2.77-.63a.29.29,0,0,0,.11-.42c-.16-.25-1.35-.83-1.74-1.36a4.72,4.72,0,0,0-1.82-2.4.44.44,0,0,1-.61.13s-.51.32-.7-.16c0,0-.46.16-.43-.2,0,0-.26,0-.25-.22Z"/></clipPath></defs><path class="cls-4" d="M167.48,141.5a2.31,2.31,0,0,0-2-.18l-.4-.85s.95-.54,1.14-.38a7.61,7.61,0,0,0,1.06.56Z"/><path class="cls-5" d="M164.56,114.66c1-1.15,1.74-3,.38-5.57a4.46,4.46,0,0,0-3.88,4.37,4.85,4.85,0,0,0-5.35-1.74,4.75,4.75,0,0,0,4,4.56A5.33,5.33,0,0,0,164.56,114.66Z"/><path class="cls-5" d="M161.92,125.83a3.27,3.27,0,0,1,1.22,4.47c-.89,1.57-1.84,2.78-4.47,1.22s-2.82-5.16-2.72-5.33S160.35,124.93,161.92,125.83Z"/><path class="cls-5" d="M168.45,123.93a3.27,3.27,0,0,0,1.25,4.46c1.57.89,3,1.44,4.46-1.25s-.24-5.87-.4-6S169.33,122.35,168.45,123.93Z"/><path class="cls-6" d="M165.62,141.41c-3.62-.94-5.84-5.34-7.35-10.8-1.94-7,3.33-14.61,3.76-14.73s8.86,3.68,10.8,10.7,2,13.14-3.76,14.73a8.08,8.08,0,0,1-1.61.27s-.68-1.12-1.7-1C165,140.65,165.62,141.41,165.62,141.41Z"/><path class="cls-7" d="M169.85,135.55s-.22-.69.31-1a1.06,1.06,0,0,0-.9.76Z"/><path class="cls-7" d="M169.3,135.35a1,1,0,0,1,0-1.2,1.22,1.22,0,0,0-.69,1.17Z"/><circle class="cls-1" cx="168.65" cy="137.79" r="2.52" transform="translate(-45.56 98.48) rotate(-28.85)"/><g class="cls-8"><circle cx="168.15" cy="138.61" r="1.82" transform="translate(-46.01 98.34) rotate(-28.85)"/><circle class="cls-1" cx="168.69" cy="137.84" r="0.52"/></g><g class="cls-9"><path class="cls-5" d="M172,130.11a2,2,0,0,0,.88,1,1.86,1.86,0,0,0,2.41-.67,2,2,0,0,0,.22-1.35,1.74,1.74,0,0,1-.12,1.41,1.93,1.93,0,0,1-1.13.91,1.88,1.88,0,0,1-1.43-.21A1.69,1.69,0,0,1,172,130.11Z"/><path class="cls-5" d="M168.53,131.08a2,2,0,0,0,.88,1,1.79,1.79,0,0,0,1.34.14,1.81,1.81,0,0,0,1.07-.81,2,2,0,0,0,.22-1.35,1.74,1.74,0,0,1-.12,1.41,1.93,1.93,0,0,1-1.13.91,1.88,1.88,0,0,1-1.43-.21A1.69,1.69,0,0,1,168.53,131.08Z"/><path class="cls-5" d="M165,132.05a2,2,0,0,0,.88,1,1.79,1.79,0,0,0,1.34.14,1.81,1.81,0,0,0,1.07-.81,2,2,0,0,0,.22-1.35,1.74,1.74,0,0,1-.12,1.41,1.82,1.82,0,0,1-2.56.71A1.73,1.73,0,0,1,165,132.05Z"/><path class="cls-5" d="M161.51,133a1.92,1.92,0,0,0,.89,1,1.82,1.82,0,0,0,2.4-.67,1.91,1.91,0,0,0,.22-1.35,1.74,1.74,0,0,1-.12,1.41,1.91,1.91,0,0,1-1.13.91,1.88,1.88,0,0,1-1.43-.2A1.73,1.73,0,0,1,161.51,133Z"/><path class="cls-5" d="M158,134a1.92,1.92,0,0,0,.89,1,1.82,1.82,0,0,0,2.4-.67,1.91,1.91,0,0,0,.22-1.35,1.74,1.74,0,0,1-.12,1.41,1.91,1.91,0,0,1-1.13.91,1.88,1.88,0,0,1-1.43-.2A1.77,1.77,0,0,1,158,134Z"/><path class="cls-5" d="M171.19,127a2,2,0,0,0,.88,1.05,1.77,1.77,0,0,0,1.33.14,1.75,1.75,0,0,0,1.08-.8,2,2,0,0,0,.22-1.36,1.71,1.71,0,0,1-.13,1.41,1.85,1.85,0,0,1-1.12.91,1.88,1.88,0,0,1-1.43-.2A1.71,1.71,0,0,1,171.19,127Z"/><path class="cls-5" d="M167.68,128a2,2,0,0,0,.88,1.05,1.79,1.79,0,0,0,1.34.14,1.76,1.76,0,0,0,1.07-.8,2,2,0,0,0,.22-1.36,1.74,1.74,0,0,1-.12,1.41,1.9,1.9,0,0,1-1.13.91,1.88,1.88,0,0,1-1.43-.2A1.71,1.71,0,0,1,167.68,128Z"/><path class="cls-5" d="M164.17,129a1.91,1.91,0,0,0,.88,1.05,1.84,1.84,0,0,0,2.41-.66,2,2,0,0,0,.22-1.36,1.74,1.74,0,0,1-.12,1.41,1.8,1.8,0,0,1-2.56.71A1.71,1.71,0,0,1,164.17,129Z"/><path class="cls-5" d="M160.66,130a2,2,0,0,0,.88,1.05,1.86,1.86,0,0,0,2.41-.67,2,2,0,0,0,.22-1.36,1.76,1.76,0,0,1-.12,1.42,1.93,1.93,0,0,1-1.13.91,1.88,1.88,0,0,1-1.43-.21A1.69,1.69,0,0,1,160.66,130Z"/><path class="cls-5" d="M157.15,130.92A2,2,0,0,0,158,132a1.71,1.71,0,0,0,1.33.13,1.73,1.73,0,0,0,1.07-.8,1.92,1.92,0,0,0,.22-1.35,1.74,1.74,0,0,1-.12,1.41,1.91,1.91,0,0,1-1.13.91,1.88,1.88,0,0,1-1.43-.21A1.69,1.69,0,0,1,157.15,130.92Z"/><path class="cls-5" d="M170.34,124a1.91,1.91,0,0,0,.88,1.05,1.77,1.77,0,0,0,1.33.14,1.8,1.8,0,0,0,1.08-.81,2,2,0,0,0,.22-1.35,1.71,1.71,0,0,1-.13,1.41,1.89,1.89,0,0,1-1.12.91,1.92,1.92,0,0,1-1.43-.2A1.73,1.73,0,0,1,170.34,124Z"/><path class="cls-5" d="M166.83,124.93a2,2,0,0,0,.88,1,1.83,1.83,0,0,0,2.41-.67,2,2,0,0,0,.22-1.35,1.71,1.71,0,0,1-.13,1.41,1.81,1.81,0,0,1-2.55.71A1.73,1.73,0,0,1,166.83,124.93Z"/><path class="cls-5" d="M163.32,125.9a2,2,0,0,0,.88,1,1.83,1.83,0,0,0,2.41-.67,2,2,0,0,0,.22-1.35,1.74,1.74,0,0,1-.12,1.41,1.93,1.93,0,0,1-1.13.91,1.88,1.88,0,0,1-1.43-.2A1.73,1.73,0,0,1,163.32,125.9Z"/><path class="cls-5" d="M159.81,126.87a2,2,0,0,0,.88,1,1.84,1.84,0,0,0,2.41-.66,2,2,0,0,0,.22-1.36,1.74,1.74,0,0,1-.12,1.41,1.93,1.93,0,0,1-1.13.91,1.88,1.88,0,0,1-1.43-.2A1.73,1.73,0,0,1,159.81,126.87Z"/><path class="cls-5" d="M156.3,127.84a1.92,1.92,0,0,0,.89,1,1.83,1.83,0,0,0,2.4-.66,1.94,1.94,0,0,0,.22-1.36,1.74,1.74,0,0,1-.12,1.41,1.82,1.82,0,0,1-2.56.71A1.71,1.71,0,0,1,156.3,127.84Z"/><path class="cls-5" d="M169.49,120.88a1.87,1.87,0,0,0,.88,1.05,1.72,1.72,0,0,0,1.33.14,1.75,1.75,0,0,0,1.08-.8,2,2,0,0,0,.22-1.36,1.7,1.7,0,0,1-.13,1.41,1.87,1.87,0,0,1-1.12.92,1.93,1.93,0,0,1-1.43-.21A1.71,1.71,0,0,1,169.49,120.88Z"/><path class="cls-5" d="M166,121.86a1.94,1.94,0,0,0,.88,1,1.72,1.72,0,0,0,1.33.13,1.75,1.75,0,0,0,1.08-.8,2,2,0,0,0,.22-1.36,1.73,1.73,0,0,1-.13,1.42,1.79,1.79,0,0,1-2.55.7A1.69,1.69,0,0,1,166,121.86Z"/><path class="cls-5" d="M162.47,122.83a2,2,0,0,0,.88,1,1.86,1.86,0,0,0,2.41-.67,2,2,0,0,0,.22-1.35,1.74,1.74,0,0,1-.12,1.41,1.93,1.93,0,0,1-1.13.91,1.88,1.88,0,0,1-1.43-.21A1.69,1.69,0,0,1,162.47,122.83Z"/><path class="cls-5" d="M159,123.8a2,2,0,0,0,.88,1,1.79,1.79,0,0,0,1.34.14,1.81,1.81,0,0,0,1.07-.81,2,2,0,0,0,.22-1.35,1.74,1.74,0,0,1-.12,1.41,1.93,1.93,0,0,1-1.13.91,1.88,1.88,0,0,1-1.43-.21A1.69,1.69,0,0,1,159,123.8Z"/><path class="cls-5" d="M155.45,124.77a2,2,0,0,0,.88,1,1.79,1.79,0,0,0,1.34.14,1.81,1.81,0,0,0,1.07-.81,2,2,0,0,0,.22-1.35,1.74,1.74,0,0,1-.12,1.41,1.82,1.82,0,0,1-2.56.71A1.73,1.73,0,0,1,155.45,124.77Z"/><path class="cls-5" d="M168.64,117.81a1.91,1.91,0,0,0,.88,1,1.77,1.77,0,0,0,1.33.14,1.74,1.74,0,0,0,1.07-.81,1.85,1.85,0,0,0,.22-1.35,1.67,1.67,0,0,1-.12,1.41,1.82,1.82,0,0,1-2.56.71A1.75,1.75,0,0,1,168.64,117.81Z"/><path class="cls-5" d="M165.13,118.78a1.91,1.91,0,0,0,.88,1,1.77,1.77,0,0,0,1.33.14,1.79,1.79,0,0,0,1.08-.8,2,2,0,0,0,.22-1.36,1.71,1.71,0,0,1-.13,1.41,1.81,1.81,0,0,1-2.55.71A1.73,1.73,0,0,1,165.13,118.78Z"/><path class="cls-5" d="M161.62,119.75a2,2,0,0,0,.88,1,1.77,1.77,0,0,0,1.33.14,1.75,1.75,0,0,0,1.08-.8,2,2,0,0,0,.22-1.36,1.71,1.71,0,0,1-.13,1.41,1.85,1.85,0,0,1-1.12.91,1.88,1.88,0,0,1-1.43-.2A1.71,1.71,0,0,1,161.62,119.75Z"/><path class="cls-5" d="M158.11,120.72a2,2,0,0,0,.88,1,1.79,1.79,0,0,0,1.34.14,1.76,1.76,0,0,0,1.07-.8,2,2,0,0,0,.22-1.36,1.74,1.74,0,0,1-.12,1.41,1.9,1.9,0,0,1-1.13.91,1.88,1.88,0,0,1-1.43-.2A1.71,1.71,0,0,1,158.11,120.72Z"/><path class="cls-5" d="M154.6,121.69a1.91,1.91,0,0,0,.88,1,1.84,1.84,0,0,0,2.41-.66,2,2,0,0,0,.22-1.36,1.74,1.74,0,0,1-.12,1.41,1.8,1.8,0,0,1-2.56.71A1.71,1.71,0,0,1,154.6,121.69Z"/><path class="cls-5" d="M167.78,114.74a2,2,0,0,0,.89,1.05,1.85,1.85,0,0,0,2.4-.67,1.87,1.87,0,0,0,.22-1.35,1.7,1.7,0,0,1-.12,1.41,1.89,1.89,0,0,1-1.12.91,1.91,1.91,0,0,1-1.44-.21A1.76,1.76,0,0,1,167.78,114.74Z"/><path class="cls-5" d="M164.28,115.71a1.94,1.94,0,0,0,.88,1.05,1.77,1.77,0,0,0,1.33.14,1.83,1.83,0,0,0,1.08-.81,1.92,1.92,0,0,0,.21-1.35,1.67,1.67,0,0,1-.12,1.41,1.89,1.89,0,0,1-1.12.91,1.92,1.92,0,0,1-1.43-.2A1.73,1.73,0,0,1,164.28,115.71Z"/><path class="cls-5" d="M160.77,116.68a1.91,1.91,0,0,0,.88,1,1.77,1.77,0,0,0,1.33.14,1.8,1.8,0,0,0,1.08-.81,2,2,0,0,0,.22-1.35,1.71,1.71,0,0,1-.13,1.41A1.89,1.89,0,0,1,163,118a1.92,1.92,0,0,1-1.43-.2A1.73,1.73,0,0,1,160.77,116.68Z"/><path class="cls-5" d="M157.26,117.65a2,2,0,0,0,.88,1,1.83,1.83,0,0,0,2.41-.67,2,2,0,0,0,.22-1.35,1.74,1.74,0,0,1-.12,1.41,1.93,1.93,0,0,1-1.13.91,1.88,1.88,0,0,1-1.43-.2A1.73,1.73,0,0,1,157.26,117.65Z"/><path class="cls-5" d="M153.75,118.62a2,2,0,0,0,.88,1A1.83,1.83,0,0,0,157,119a2,2,0,0,0,.22-1.35,1.74,1.74,0,0,1-.12,1.41A1.93,1.93,0,0,1,156,120a1.88,1.88,0,0,1-1.43-.2A1.73,1.73,0,0,1,153.75,118.62Z"/></g><path class="cls-3" d="M165.36,140.85a3.46,3.46,0,0,0-1.6,2.16c-.53,1.56-.49,3,1,3.58h0a3.49,3.49,0,0,0,3.57-.6c1.78-1.46,2.77-.63,2.77-.63a.29.29,0,0,0,.11-.42c-.16-.25-1.35-.83-1.74-1.36a4.72,4.72,0,0,0-1.82-2.4.44.44,0,0,1-.61.13s-.51.32-.7-.16c0,0-.46.16-.43-.2,0,0-.26,0-.25-.22Z"/><g class="cls-10"><path class="cls-11" d="M169.34,143.78a.77.77,0,0,1,.14-.25.69.69,0,0,1,.47-.13,2.14,2.14,0,0,1,.62,0,2.73,2.73,0,0,1,1.5,1.49,1.12,1.12,0,0,1-1,1.37,2.17,2.17,0,0,1-1.55-.75A1.84,1.84,0,0,1,169.34,143.78Z"/><path class="cls-2" d="M166.54,141l-.13,0-.22,0a.74.74,0,0,1-.29-.12s-.06-.07-.1-.08-.19,0-.24.09a.61.61,0,0,0,0,.27,1,1,0,0,0,.15.54.88.88,0,0,0,.71.26c.31,0,1.18-.09,1.17-.54a.26.26,0,0,0-.31-.25A3.4,3.4,0,0,1,166.54,141Z"/><path class="cls-12" d="M167.11,127.53v0"/></g><ellipse class="cls-13" cx="166.81" cy="145.88" rx="0.52" ry="0.43" transform="translate(-24.08 33.34) rotate(-10.65)"/><ellipse class="cls-13" cx="167.71" cy="145.37" rx="0.21" ry="0.18" transform="translate(-23.98 33.5) rotate(-10.65)"/><path class="cls-13" d="M168.88,144.05a4.33,4.33,0,0,0-2.45-1.65S168.2,141.86,168.88,144.05Z"/><path class="cls-3" d="M167.63,141.18a3.75,3.75,0,0,0-2-.45s-.47.73-.38.76l1.43.43s.82,0,.9.05S167.63,141.18,167.63,141.18Z"/></svg>