<svg id="_5" data-name="5" xmlns="http://www.w3.org/2000/svg" xmlns:xlink="http://www.w3.org/1999/xlink" viewBox="0 0 260 168"><defs><style>.cls-1{fill:#fff;}.cls-2{fill:none;}.cls-3{fill:#ff8585;}.cls-4{fill:red;}.cls-5{fill:#7f2828;stroke:#7f2828;stroke-miterlimit:10;stroke-width:0.09px;}.cls-6{clip-path:url(#clip-path);}.cls-7{clip-path:url(#clip-path-2);}</style><clipPath id="clip-path"><circle class="cls-1" cx="132.89" cy="143.37" r="2.96" transform="translate(-19.44 20.86) rotate(-8.36)"/></clipPath><clipPath id="clip-path-2"><ellipse class="cls-2" cx="143.91" cy="140.53" rx="15.47" ry="8.86" transform="translate(-35.73 50.05) rotate(-17.59)"/></clipPath></defs><path class="cls-3" d="M158.24,132.59c.46-1.76,1.78-3.59,5.23-3.93a5.22,5.22,0,0,1-1.81,6.61,5.68,5.68,0,0,1,5.13,4.14,5.57,5.57,0,0,1-7-1A6.24,6.24,0,0,1,158.24,132.59Z"/><path class="cls-3" d="M149,142.33a3.84,3.84,0,0,0-5.17,1.66c-1,1.88-1.57,3.59,1.65,5.17s6.88-.53,7-.73S150.84,143.3,149,142.33Z"/><path class="cls-3" d="M146.64,134.7a3.84,3.84,0,0,1-5.18,1.63c-1.88-1-3.34-2-1.63-5.19s5.93-3.53,6.13-3.42S147.63,132.82,146.64,134.7Z"/><ellipse class="cls-4" cx="143.91" cy="140.53" rx="15.47" ry="8.86" transform="translate(-35.73 50.05) rotate(-17.59)"/><path class="cls-5" d="M134.33,140.76s.81-.23.76-.94a1.24,1.24,0,0,1-.16,1.36Z"/><path class="cls-5" d="M134.87,141.17s1,.06,1.19-.74a1.43,1.43,0,0,1-.7,1.43Z"/><circle class="cls-1" cx="132.89" cy="143.37" r="2.96" transform="translate(-19.44 20.86) rotate(-8.36)"/><g class="cls-6"><circle cx="132.59" cy="144.45" r="2.14" transform="translate(-19.6 20.83) rotate(-8.36)"/><circle class="cls-1" cx="133.01" cy="143.43" r="0.6"/></g><g class="cls-7"><path class="cls-3" d="M138.27,135.12a2,2,0,0,1-1.66-.07,2.17,2.17,0,0,1-1-3,2.1,2.1,0,0,1,1.32-1,2.14,2.14,0,0,0,1.29,4.07Z"/><path class="cls-3" d="M139.56,139.19a2,2,0,0,1-1.66-.07,2.17,2.17,0,0,1-1-3,2.1,2.1,0,0,1,1.32-1,2.14,2.14,0,0,0,1.29,4.07Z"/><path class="cls-3" d="M140.85,143.26a2,2,0,0,1-1.66-.07,2.17,2.17,0,0,1-.95-3,2.1,2.1,0,0,1,1.32-1,2.14,2.14,0,0,0,1.29,4.07Z"/><path class="cls-3" d="M142.14,147.33a2,2,0,0,1-1.66-.07,2.19,2.19,0,0,1-1.11-1.29,2.21,2.21,0,0,1,.16-1.69,2.14,2.14,0,0,1,1.32-1,2.14,2.14,0,0,0,1.29,4.07Z"/><path class="cls-3" d="M143.43,151.4a2,2,0,0,1-1.66-.07,2.16,2.16,0,0,1-.94-3,2.09,2.09,0,0,1,1.31-1,2.14,2.14,0,0,0,1.29,4.07Z"/><path class="cls-3" d="M141.84,134a2,2,0,0,1-1.66-.07,2.15,2.15,0,0,1-1-3,2.08,2.08,0,0,1,1.32-1,2.14,2.14,0,0,0,1.29,4.07Z"/><path class="cls-3" d="M143.13,138.06a2,2,0,0,1-1.66-.07,2.15,2.15,0,0,1-.95-3,2.08,2.08,0,0,1,1.32-1,2.14,2.14,0,0,0,1.29,4.07Z"/><path class="cls-3" d="M144.42,142.13a2,2,0,0,1-1.66-.07,2.15,2.15,0,0,1-.95-3,2.08,2.08,0,0,1,1.32-1,2.14,2.14,0,0,0,1.29,4.07Z"/><path class="cls-3" d="M145.71,146.2a2,2,0,0,1-1.66-.07,2.15,2.15,0,0,1-1-3,2.11,2.11,0,0,1,1.32-1,2.14,2.14,0,0,0,1.29,4.07Z"/><path class="cls-3" d="M147,150.27a2,2,0,0,1-1.66-.07,2.15,2.15,0,0,1-1-3,2.11,2.11,0,0,1,1.32-1,2.14,2.14,0,0,0,1.29,4.07Z"/><path class="cls-3" d="M145.4,132.86a2,2,0,0,1-1.66-.07,2.16,2.16,0,0,1-.94-3,2.06,2.06,0,0,1,1.31-1,2.14,2.14,0,0,0,1.29,4.07Z"/><path class="cls-3" d="M146.69,136.93a2,2,0,0,1-1.66-.07,2.16,2.16,0,0,1-.94-3,2.06,2.06,0,0,1,1.31-1,2.14,2.14,0,0,0,1.29,4.07Z"/><path class="cls-3" d="M148,141a2,2,0,0,1-1.66-.07,2.16,2.16,0,0,1-.94-3,2.06,2.06,0,0,1,1.31-1A2.14,2.14,0,0,0,148,141Z"/><path class="cls-3" d="M149.27,145.07a2,2,0,0,1-1.66-.07,2.16,2.16,0,0,1-.94-3,2.06,2.06,0,0,1,1.31-1,2.14,2.14,0,0,0,1.29,4.07Z"/><path class="cls-3" d="M150.56,149.14a2,2,0,0,1-1.66-.07,2.16,2.16,0,0,1-.94-3,2.09,2.09,0,0,1,1.31-1,2.14,2.14,0,0,0,1.29,4.07Z"/><path class="cls-3" d="M149,131.73a2,2,0,0,1-1.66-.07,2.17,2.17,0,0,1-.95-3,2.08,2.08,0,0,1,1.32-1,2.14,2.14,0,0,0,1.29,4.07Z"/><path class="cls-3" d="M150.26,135.8a2,2,0,0,1-1.66-.07,2.17,2.17,0,0,1-.95-3,2.08,2.08,0,0,1,1.32-1,2.14,2.14,0,0,0,1.29,4.07Z"/><path class="cls-3" d="M151.55,139.87a2,2,0,0,1-1.66-.07,2.17,2.17,0,0,1-.95-3,2.08,2.08,0,0,1,1.32-1,2.14,2.14,0,0,0,1.29,4.07Z"/><path class="cls-3" d="M152.84,143.94a2,2,0,0,1-1.66-.07,2.17,2.17,0,0,1-1-3,2.08,2.08,0,0,1,1.32-1,2.14,2.14,0,0,0,1.29,4.07Z"/><path class="cls-3" d="M154.13,148a2,2,0,0,1-1.66-.07,2.17,2.17,0,0,1-.95-3,2.11,2.11,0,0,1,1.32-1,2.14,2.14,0,0,0,1.29,4.07Z"/><path class="cls-3" d="M152.54,130.6a2.07,2.07,0,0,1-1.67-.07,2.16,2.16,0,0,1-.94-3,2.05,2.05,0,0,1,1.32-1,2.14,2.14,0,0,0,1.29,4.07Z"/><path class="cls-3" d="M153.83,134.67a2.07,2.07,0,0,1-1.67-.07,2.16,2.16,0,0,1-.94-3,2.08,2.08,0,0,1,1.32-1,2.14,2.14,0,0,0,1.29,4.07Z"/><path class="cls-3" d="M155.12,138.74a2.07,2.07,0,0,1-1.67-.07,2.16,2.16,0,0,1-.94-3,2.08,2.08,0,0,1,1.32-1,2.14,2.14,0,0,0,1.29,4.07Z"/><path class="cls-3" d="M156.41,142.81a2.07,2.07,0,0,1-1.67-.07,2.16,2.16,0,0,1-.94-3,2.08,2.08,0,0,1,1.32-1,2.14,2.14,0,0,0,1.29,4.07Z"/><path class="cls-3" d="M157.7,146.88a2.07,2.07,0,0,1-1.67-.07,2.16,2.16,0,0,1-.94-3,2.11,2.11,0,0,1,1.32-1,2.14,2.14,0,0,0,1.29,4.07Z"/><path class="cls-3" d="M156.1,129.47a2,2,0,0,1-1.66-.07,2.17,2.17,0,0,1-.95-3,2.1,2.1,0,0,1,1.32-1,2.14,2.14,0,0,0,1.29,4.07Z"/><path class="cls-3" d="M157.39,133.54a2,2,0,0,1-1.66-.07,2.15,2.15,0,0,1-1.11-1.29,2.21,2.21,0,0,1,.16-1.69,2.1,2.1,0,0,1,1.32-1,2.14,2.14,0,0,0,1.29,4.07Z"/><path class="cls-3" d="M158.68,137.61a2,2,0,0,1-1.66-.07,2.15,2.15,0,0,1-1.11-1.29,2.21,2.21,0,0,1,.16-1.69,2.1,2.1,0,0,1,1.32-1,2.14,2.14,0,0,0,1.29,4.07Z"/><path class="cls-3" d="M160,141.68a2,2,0,0,1-1.66-.07,2.15,2.15,0,0,1-1.11-1.29,2.21,2.21,0,0,1,.16-1.69,2.1,2.1,0,0,1,1.32-1,2.14,2.14,0,0,0,1.29,4.07Z"/><path class="cls-3" d="M161.26,145.75a2,2,0,0,1-1.66-.07,2.15,2.15,0,0,1-1.11-1.29,2.21,2.21,0,0,1,.16-1.69,2.1,2.1,0,0,1,1.32-1,2.14,2.14,0,0,0,1.29,4.07Z"/></g></svg>