<svg id="_1" data-name="1" xmlns="http://www.w3.org/2000/svg" xmlns:xlink="http://www.w3.org/1999/xlink" viewBox="0 0 260 168"><defs><style>.cls-1{fill:#fff;}.cls-2{fill:none;}.cls-3{fill:#ff8585;}.cls-4{fill:red;}.cls-5{fill:#7f2828;stroke:#7f2828;stroke-miterlimit:10;stroke-width:0.09px;}.cls-6{clip-path:url(#clip-path);}.cls-7{clip-path:url(#clip-path-2);}</style><clipPath id="clip-path"><circle class="cls-1" cx="132.11" cy="135.56" r="2.96" transform="translate(-14.84 254.87) rotate(-84.81)"/></clipPath><clipPath id="clip-path-2"><ellipse class="cls-2" cx="143.48" cy="134.96" rx="15.47" ry="8.86" transform="translate(-13.69 16.22) rotate(-6.18)"/></clipPath></defs><path class="cls-3" d="M159.1,130c.8-1.62,2.45-3.16,5.9-2.81a5.23,5.23,0,0,1-3.09,6.12,5.68,5.68,0,0,1,4.21,5.07,5.56,5.56,0,0,1-6.7-2.41A6.24,6.24,0,0,1,159.1,130Z"/><path class="cls-3" d="M148.06,137.72a3.84,3.84,0,0,0-5.4.6c-1.32,1.66-2.24,3.21.6,5.4s6.85.84,7,.67S149.72,139,148.06,137.72Z"/><path class="cls-3" d="M147.31,129.78a3.84,3.84,0,0,1-5.4.57c-1.65-1.34-2.88-2.65-.57-5.4s6.5-2.29,6.68-2.15S148.65,128.13,147.31,129.78Z"/><ellipse class="cls-4" cx="143.48" cy="134.96" rx="15.47" ry="8.86" transform="translate(-13.69 16.22) rotate(-6.18)"/><path class="cls-5" d="M134,133.28s.84-.06.94-.77a1.26,1.26,0,0,1-.44,1.31Z"/><path class="cls-5" d="M134.49,133.79a1.17,1.17,0,0,0,1.32-.48,1.44,1.44,0,0,1-1,1.26Z"/><circle class="cls-1" cx="132.11" cy="135.56" r="2.96" transform="translate(-14.84 254.87) rotate(-84.81)"/><g class="cls-6"><circle cx="131.01" cy="134.36" r="2.14" transform="translate(-14.65 252.68) rotate(-84.81)"/><circle class="cls-1" cx="131.61" cy="133.45" r="0.6"/></g><g class="cls-7"><path class="cls-3" d="M139,128.54a2,2,0,0,1-1.61-.4,2.15,2.15,0,0,1-.34-3.11,2.09,2.09,0,0,1,1.49-.74,2.14,2.14,0,0,0,.46,4.25Z"/><path class="cls-3" d="M139.48,132.78a2,2,0,0,1-1.61-.4,2.14,2.14,0,0,1-.34-3.1,2.05,2.05,0,0,1,1.49-.74,2.13,2.13,0,0,0,.46,4.24Z"/><path class="cls-3" d="M139.94,137a2.07,2.07,0,0,1-1.62-.4,2.16,2.16,0,0,1-.33-3.11,2.13,2.13,0,0,1,1.49-.74,2.14,2.14,0,0,0,.46,4.25Z"/><path class="cls-3" d="M140.4,141.28a2.15,2.15,0,0,1-1.62-.4,2.23,2.23,0,0,1-.83-1.49,2.16,2.16,0,0,1,.5-1.62,2.05,2.05,0,0,1,1.49-.74,2.14,2.14,0,0,0,.46,4.25Z"/><path class="cls-3" d="M140.86,145.52a2.07,2.07,0,0,1-1.62-.4,2.16,2.16,0,0,1-.33-3.11,2.08,2.08,0,0,1,1.49-.73,2.13,2.13,0,0,0,.46,4.24Z"/><path class="cls-3" d="M142.74,128.14a2.11,2.11,0,0,1-1.62-.4,2.21,2.21,0,0,1-.83-1.49,2.16,2.16,0,0,1,.5-1.62,2.05,2.05,0,0,1,1.49-.74,2.14,2.14,0,0,0,.46,4.25Z"/><path class="cls-3" d="M143.2,132.38a2.07,2.07,0,0,1-1.62-.4,2.16,2.16,0,0,1-.33-3.11,2.08,2.08,0,0,1,1.49-.73,2.13,2.13,0,0,0,.46,4.24Z"/><path class="cls-3" d="M143.66,136.63a2.11,2.11,0,0,1-1.62-.4,2.21,2.21,0,0,1-.83-1.48,2.17,2.17,0,0,1,.5-1.63,2.05,2.05,0,0,1,1.49-.74,2.14,2.14,0,0,0,.46,4.25Z"/><path class="cls-3" d="M144.12,140.87a2.07,2.07,0,0,1-1.62-.4,2.16,2.16,0,0,1-.33-3.11,2.08,2.08,0,0,1,1.49-.73,2.13,2.13,0,0,0,.46,4.24Z"/><path class="cls-3" d="M144.58,145.12a2.11,2.11,0,0,1-1.62-.4,2.21,2.21,0,0,1-.83-1.48,2.17,2.17,0,0,1,.5-1.63,2.05,2.05,0,0,1,1.49-.74,2.14,2.14,0,0,0,.46,4.25Z"/><path class="cls-3" d="M146.46,127.73a2.07,2.07,0,0,1-1.62-.4,2.15,2.15,0,0,1-.33-3.1,2.05,2.05,0,0,1,1.49-.74,2.13,2.13,0,0,0,.46,4.24Z"/><path class="cls-3" d="M146.92,132a2.07,2.07,0,0,1-1.62-.4,2.16,2.16,0,0,1-.33-3.11,2.13,2.13,0,0,1,1.49-.74,2.14,2.14,0,0,0,.46,4.25Z"/><path class="cls-3" d="M147.38,136.23a2.15,2.15,0,0,1-1.62-.4,2.23,2.23,0,0,1-.83-1.49,2.16,2.16,0,0,1,.5-1.62,2.05,2.05,0,0,1,1.49-.74,2.14,2.14,0,0,0,.46,4.25Z"/><path class="cls-3" d="M147.84,140.47a2.06,2.06,0,0,1-1.62-.4,2.17,2.17,0,0,1-.83-1.48,2.22,2.22,0,0,1,.49-1.63,2.12,2.12,0,0,1,1.5-.73,2.13,2.13,0,0,0,.46,4.24Z"/><path class="cls-3" d="M148.3,144.72a2.1,2.1,0,0,1-1.62-.4,2.18,2.18,0,0,1-.34-3.11,2.09,2.09,0,0,1,1.5-.74,2.14,2.14,0,0,0,.46,4.25Z"/><path class="cls-3" d="M150.18,127.33a2.07,2.07,0,0,1-1.62-.4,2.16,2.16,0,0,1-.33-3.11,2.08,2.08,0,0,1,1.49-.73,2.13,2.13,0,0,0,.46,4.24Z"/><path class="cls-3" d="M150.64,131.58a2.1,2.1,0,0,1-1.62-.4,2.17,2.17,0,0,1-.34-3.11,2.09,2.09,0,0,1,1.5-.74,2.14,2.14,0,0,0,.46,4.25Z"/><path class="cls-3" d="M151.1,135.82a2.06,2.06,0,0,1-1.62-.4,2.17,2.17,0,0,1-.83-1.48,2.23,2.23,0,0,1,.49-1.63,2.12,2.12,0,0,1,1.5-.73,2.13,2.13,0,0,0,.46,4.24Z"/><path class="cls-3" d="M151.56,140.07a2.1,2.1,0,0,1-1.62-.4,2.17,2.17,0,0,1-.83-1.48,2.21,2.21,0,0,1,.49-1.63,2.09,2.09,0,0,1,1.5-.74,2.14,2.14,0,0,0,.46,4.25Z"/><path class="cls-3" d="M152,144.31a2.06,2.06,0,0,1-1.62-.4,2.22,2.22,0,0,1-.84-1.48,2.24,2.24,0,0,1,.5-1.63,2.1,2.1,0,0,1,1.5-.73,2.13,2.13,0,0,0,.46,4.24Z"/><path class="cls-3" d="M153.9,126.93a2.06,2.06,0,0,1-1.62-.4,2.17,2.17,0,0,1-.83-1.48,2.22,2.22,0,0,1,.49-1.63,2.13,2.13,0,0,1,1.5-.74,2.14,2.14,0,0,0,.46,4.25Z"/><path class="cls-3" d="M154.36,131.18a2.14,2.14,0,0,1-1.62-.4,2.18,2.18,0,0,1-.34-3.11,2.09,2.09,0,0,1,1.5-.74,2.14,2.14,0,0,0,.46,4.25Z"/><path class="cls-3" d="M154.82,135.42a2.06,2.06,0,0,1-1.62-.4,2.15,2.15,0,0,1-.34-3.11,2.12,2.12,0,0,1,1.5-.73,2.13,2.13,0,0,0,.46,4.24Z"/><path class="cls-3" d="M155.28,139.67a2.14,2.14,0,0,1-1.62-.4,2.24,2.24,0,0,1-.84-1.49,2.2,2.2,0,0,1,.5-1.62,2.07,2.07,0,0,1,1.5-.74,2.14,2.14,0,0,0,.46,4.25Z"/><path class="cls-3" d="M155.73,143.91a2,2,0,0,1-1.61-.4,2.18,2.18,0,0,1-.84-1.48,2.23,2.23,0,0,1,.5-1.63,2.08,2.08,0,0,1,1.5-.73,2.13,2.13,0,0,0,.45,4.24Z"/><path class="cls-3" d="M157.62,126.53a2.1,2.1,0,0,1-1.62-.4,2.22,2.22,0,0,1-.84-1.48,2.26,2.26,0,0,1,.5-1.63,2.09,2.09,0,0,1,1.5-.74,2.14,2.14,0,0,0,.46,4.25Z"/><path class="cls-3" d="M158.08,130.77a2.06,2.06,0,0,1-1.62-.4,2.15,2.15,0,0,1-.34-3.11,2.1,2.1,0,0,1,1.5-.73,2.13,2.13,0,0,0,.46,4.24Z"/><path class="cls-3" d="M158.53,135a2.09,2.09,0,0,1-1.61-.4,2.18,2.18,0,0,1-.84-1.48,2.21,2.21,0,0,1,.5-1.63,2.06,2.06,0,0,1,1.5-.74,2.14,2.14,0,0,0,.45,4.25Z"/><path class="cls-3" d="M159,139.26a2,2,0,0,1-1.61-.4,2.18,2.18,0,0,1-.84-1.48,2.24,2.24,0,0,1,.5-1.63,2.08,2.08,0,0,1,1.49-.73,2.13,2.13,0,0,0,.46,4.24Z"/><path class="cls-3" d="M159.45,143.51a2.09,2.09,0,0,1-1.61-.4,2.15,2.15,0,0,1-.34-3.11,2.05,2.05,0,0,1,1.49-.74,2.14,2.14,0,0,0,.46,4.25Z"/></g></svg>