<svg id="_6" data-name="6" xmlns="http://www.w3.org/2000/svg" xmlns:xlink="http://www.w3.org/1999/xlink" viewBox="0 0 260 168"><defs><style>.cls-1{fill:none;}.cls-2{fill:#870000;}.cls-3{fill:#ff8585;}.cls-4{fill:red;}.cls-5{fill:#7f2828;stroke:#7f2828;stroke-miterlimit:10;stroke-width:0.07px;}.cls-6{fill:#fff;}.cls-7{clip-path:url(#clip-path);}.cls-8{clip-path:url(#clip-path-2);}</style><clipPath id="clip-path"><ellipse class="cls-1" cx="125.85" cy="84.61" rx="13" ry="7.43" transform="translate(-25.77 87.48) rotate(-35)"/></clipPath><clipPath id="clip-path-2"><path class="cls-2" d="M136.65,79.82a3.35,3.35,0,0,1-2,1.81S137.42,84,136.65,79.82Z"/></clipPath></defs><path class="cls-3" d="M113.23,90.13c-1.4-.59-3.3-.64-5.29,1.48a4.39,4.39,0,0,0,5.34,2.16,4.77,4.77,0,0,0,.14,5.53,4.68,4.68,0,0,0,2.91-5.23A5.21,5.21,0,0,0,113.23,90.13Z"/><path class="cls-3" d="M124.48,88.89a3.23,3.23,0,0,1,3.75-2.61c1.75.31,3.19.78,2.6,3.74s-3.86,4.31-4.05,4.28S124.16,90.64,124.48,88.89Z"/><path class="cls-3" d="M120.56,83.46a3.23,3.23,0,0,0,3.74-2.63c.3-1.75.35-3.26-2.63-3.72s-5.38,2.16-5.41,2.34S118.81,83.16,120.56,83.46Z"/><ellipse class="cls-4" cx="125.85" cy="84.61" rx="13" ry="7.43" transform="translate(-25.77 87.48) rotate(-35)"/><path class="cls-5" d="M130.9,78.33a.85.85,0,0,1-1,0,1,1,0,0,0,1,.59Z"/><path class="cls-5" d="M130.89,78.9a1,1,0,0,1-1.1.42,1.21,1.21,0,0,0,1.32.26Z"/><ellipse class="cls-6" cx="133.37" cy="78.7" rx="2.49" ry="2.48" transform="translate(-21.19 69.09) rotate(-26.99)"/><circle cx="133.37" cy="78.7" r="1.79" transform="translate(-21.19 69.09) rotate(-26.99)"/><circle class="cls-6" cx="132.48" cy="78.46" r="0.51" transform="translate(-21.18 68.66) rotate(-26.99)"/><g class="cls-7"><path class="cls-3" d="M125.12,78.09a1.9,1.9,0,0,0,.69-1.16,1.72,1.72,0,0,0-.32-1.28,1.66,1.66,0,0,0-1.09-.73,1.94,1.94,0,0,0-1.33.24,1.68,1.68,0,0,1,1.34-.35,1.85,1.85,0,0,1,1.22.74,1.83,1.83,0,0,1,.28,1.4A1.65,1.65,0,0,1,125.12,78.09Z"/><path class="cls-3" d="M127.18,81a1.89,1.89,0,0,0,.68-1.17,1.71,1.71,0,0,0-.31-1.28,1.75,1.75,0,0,0-1.1-.73,2,2,0,0,0-1.33.24,1.75,1.75,0,0,1,1.35-.35,1.85,1.85,0,0,1,1.22.74,1.88,1.88,0,0,1,.28,1.4A1.7,1.7,0,0,1,127.18,81Z"/><path class="cls-3" d="M129.24,84a2,2,0,0,0,.68-1.17,1.81,1.81,0,0,0-1.41-2,1.89,1.89,0,0,0-1.33.25,1.71,1.71,0,0,1,1.35-.36,1.8,1.8,0,0,1,1.5,2.14A1.73,1.73,0,0,1,129.24,84Z"/><path class="cls-3" d="M131.29,86.89a1.92,1.92,0,0,0,.69-1.16,1.77,1.77,0,0,0-.31-1.29,1.73,1.73,0,0,0-1.1-.72,1.89,1.89,0,0,0-1.33.24,1.64,1.64,0,0,1,1.34-.35,1.85,1.85,0,0,1,1.22.74,1.81,1.81,0,0,1,.28,1.39A1.67,1.67,0,0,1,131.29,86.89Z"/><path class="cls-3" d="M133.35,89.82a1.84,1.84,0,0,0,.68-1.16,1.71,1.71,0,0,0-.31-1.28,1.68,1.68,0,0,0-1.1-.73,2,2,0,0,0-1.33.24,1.71,1.71,0,0,1,1.35-.35,1.85,1.85,0,0,1,1.22.74,1.88,1.88,0,0,1,.28,1.4A1.68,1.68,0,0,1,133.35,89.82Z"/><path class="cls-3" d="M122.55,79.9a1.93,1.93,0,0,0,.68-1.17,1.71,1.71,0,0,0-.31-1.28,1.75,1.75,0,0,0-1.1-.73,1.89,1.89,0,0,0-1.33.25,1.72,1.72,0,0,1,1.35-.36,1.77,1.77,0,0,1,1.5,2.14A1.73,1.73,0,0,1,122.55,79.9Z"/><path class="cls-3" d="M124.6,82.83a1.92,1.92,0,0,0,.69-1.17,1.76,1.76,0,0,0-.31-1.28,1.78,1.78,0,0,0-1.1-.73,2,2,0,0,0-1.33.25,1.67,1.67,0,0,1,1.35-.35,1.79,1.79,0,0,1,1.5,2.13A1.71,1.71,0,0,1,124.6,82.83Z"/><path class="cls-3" d="M126.66,85.76a1.86,1.86,0,0,0,.68-1.16,1.79,1.79,0,0,0-1.41-2,1.91,1.91,0,0,0-1.33.24,1.71,1.71,0,0,1,1.35-.35,1.85,1.85,0,0,1,1.22.74,1.83,1.83,0,0,1,.28,1.4A1.67,1.67,0,0,1,126.66,85.76Z"/><path class="cls-3" d="M128.72,88.7a1.93,1.93,0,0,0,.68-1.17,1.71,1.71,0,0,0-.31-1.28,1.68,1.68,0,0,0-1.1-.73,1.94,1.94,0,0,0-1.33.24,1.71,1.71,0,0,1,1.35-.35,1.85,1.85,0,0,1,1.22.74,1.88,1.88,0,0,1,.28,1.4A1.75,1.75,0,0,1,128.72,88.7Z"/><path class="cls-3" d="M130.77,91.63a2,2,0,0,0,.69-1.17,1.81,1.81,0,0,0-1.41-2,1.89,1.89,0,0,0-1.33.25,1.71,1.71,0,0,1,1.35-.36,1.79,1.79,0,0,1,1.5,2.14A1.71,1.71,0,0,1,130.77,91.63Z"/><path class="cls-3" d="M120,81.7a1.92,1.92,0,0,0,.69-1.16,1.78,1.78,0,0,0-.31-1.29,1.73,1.73,0,0,0-1.1-.72,1.89,1.89,0,0,0-1.33.24,1.65,1.65,0,0,1,1.34-.35,1.85,1.85,0,0,1,1.22.74,1.83,1.83,0,0,1,.28,1.4A1.67,1.67,0,0,1,120,81.7Z"/><path class="cls-3" d="M122,84.63a1.84,1.84,0,0,0,.68-1.16,1.71,1.71,0,0,0-.31-1.28,1.68,1.68,0,0,0-1.1-.73,2,2,0,0,0-1.33.24,1.71,1.71,0,0,1,1.35-.35,1.85,1.85,0,0,1,1.22.74,1.88,1.88,0,0,1,.28,1.4A1.68,1.68,0,0,1,122,84.63Z"/><path class="cls-3" d="M124.09,87.57a2,2,0,0,0,.68-1.17,1.71,1.71,0,0,0-.31-1.28,1.75,1.75,0,0,0-1.1-.73,1.94,1.94,0,0,0-1.33.24,1.74,1.74,0,0,1,1.35-.35,1.81,1.81,0,0,1,1.21.74,1.88,1.88,0,0,1,.29,1.4A1.73,1.73,0,0,1,124.09,87.57Z"/><path class="cls-3" d="M126.14,90.5a2,2,0,0,0,.69-1.17,1.76,1.76,0,0,0-.31-1.28,1.78,1.78,0,0,0-1.1-.73,1.89,1.89,0,0,0-1.33.25,1.7,1.7,0,0,1,1.34-.36,1.91,1.91,0,0,1,1.22.75,1.81,1.81,0,0,1,.28,1.39A1.67,1.67,0,0,1,126.14,90.5Z"/><path class="cls-3" d="M128.2,93.43a1.86,1.86,0,0,0,.68-1.17,1.79,1.79,0,0,0-1.41-2,1.91,1.91,0,0,0-1.33.24,1.68,1.68,0,0,1,1.35-.35,1.77,1.77,0,0,1,1.5,2.13A1.7,1.7,0,0,1,128.2,93.43Z"/><path class="cls-3" d="M117.4,83.51a1.93,1.93,0,0,0,.68-1.17,1.81,1.81,0,0,0-1.41-2,1.94,1.94,0,0,0-1.33.24,1.71,1.71,0,0,1,1.35-.35,1.85,1.85,0,0,1,1.22.74,1.88,1.88,0,0,1,.28,1.4A1.75,1.75,0,0,1,117.4,83.51Z"/><path class="cls-3" d="M119.45,86.44a2,2,0,0,0,.69-1.17,1.81,1.81,0,0,0-1.41-2,1.89,1.89,0,0,0-1.33.25,1.71,1.71,0,0,1,1.35-.36,1.85,1.85,0,0,1,1.21.74,1.89,1.89,0,0,1,.29,1.4A1.71,1.71,0,0,1,119.45,86.44Z"/><path class="cls-3" d="M121.51,89.37a1.86,1.86,0,0,0,.68-1.17,1.67,1.67,0,0,0-.31-1.28,1.75,1.75,0,0,0-1.1-.73,2,2,0,0,0-1.33.25,1.72,1.72,0,0,1,1.35-.36,1.91,1.91,0,0,1,1.22.75,1.81,1.81,0,0,1,.28,1.39A1.67,1.67,0,0,1,121.51,89.37Z"/><path class="cls-3" d="M123.57,92.3a1.91,1.91,0,0,0,.68-1.16,1.75,1.75,0,0,0-.31-1.29,1.7,1.7,0,0,0-1.1-.72,1.89,1.89,0,0,0-1.33.24,1.68,1.68,0,0,1,1.35-.35,1.85,1.85,0,0,1,1.22.74,1.88,1.88,0,0,1,.28,1.4A1.73,1.73,0,0,1,123.57,92.3Z"/><path class="cls-3" d="M125.62,95.24a2,2,0,0,0,.69-1.17,1.76,1.76,0,0,0-.31-1.28,1.68,1.68,0,0,0-1.1-.73,1.94,1.94,0,0,0-1.33.24,1.7,1.7,0,0,1,1.35-.35,1.81,1.81,0,0,1,1.21.74,1.88,1.88,0,0,1,.29,1.4A1.73,1.73,0,0,1,125.62,95.24Z"/><path class="cls-3" d="M114.82,85.31a2,2,0,0,0,.69-1.17,1.76,1.76,0,0,0-.31-1.28,1.78,1.78,0,0,0-1.1-.73,1.89,1.89,0,0,0-1.33.25,1.7,1.7,0,0,1,1.34-.36,1.91,1.91,0,0,1,1.22.75,1.86,1.86,0,0,1,.29,1.39A1.71,1.71,0,0,1,114.82,85.31Z"/><path class="cls-3" d="M116.88,88.24a1.86,1.86,0,0,0,.68-1.16,1.73,1.73,0,0,0-.31-1.29,1.7,1.7,0,0,0-1.1-.72,1.91,1.91,0,0,0-1.33.24,1.68,1.68,0,0,1,1.35-.35,1.77,1.77,0,0,1,1.5,2.13A1.7,1.7,0,0,1,116.88,88.24Z"/><path class="cls-3" d="M118.94,91.17a1.93,1.93,0,0,0,.68-1.16,1.71,1.71,0,0,0-.31-1.28,1.68,1.68,0,0,0-1.1-.73,1.94,1.94,0,0,0-1.33.24,1.7,1.7,0,0,1,1.35-.35,1.85,1.85,0,0,1,1.22.74,1.92,1.92,0,0,1,.28,1.4A1.71,1.71,0,0,1,118.94,91.17Z"/><path class="cls-3" d="M121,94.11a2,2,0,0,0,.69-1.17,1.76,1.76,0,0,0-.31-1.28,1.78,1.78,0,0,0-1.1-.73,1.94,1.94,0,0,0-1.33.24,1.73,1.73,0,0,1,1.34-.35,1.85,1.85,0,0,1,1.22.74,1.88,1.88,0,0,1,.29,1.4A1.73,1.73,0,0,1,121,94.11Z"/><path class="cls-3" d="M123.05,97a1.89,1.89,0,0,0,.68-1.17,1.71,1.71,0,0,0-.31-1.28,1.75,1.75,0,0,0-1.1-.73,1.91,1.91,0,0,0-1.33.25,1.72,1.72,0,0,1,1.35-.36,1.91,1.91,0,0,1,1.22.75,1.85,1.85,0,0,1,.28,1.39A1.7,1.7,0,0,1,123.05,97Z"/><path class="cls-3" d="M112.25,87.11a1.91,1.91,0,0,0,.68-1.16,1.71,1.71,0,0,0-.31-1.28,1.68,1.68,0,0,0-1.1-.73,1.89,1.89,0,0,0-1.33.24,1.71,1.71,0,0,1,1.35-.35,1.85,1.85,0,0,1,1.22.74A1.88,1.88,0,0,1,113,86,1.73,1.73,0,0,1,112.25,87.11Z"/><path class="cls-3" d="M114.3,90.05a2,2,0,0,0,.69-1.17,1.76,1.76,0,0,0-.31-1.28,1.72,1.72,0,0,0-1.1-.73,1.94,1.94,0,0,0-1.33.24,1.7,1.7,0,0,1,1.35-.35,1.81,1.81,0,0,1,1.21.74,1.88,1.88,0,0,1,.29,1.4A1.73,1.73,0,0,1,114.3,90.05Z"/><path class="cls-3" d="M116.36,93a1.89,1.89,0,0,0,.68-1.17,1.67,1.67,0,0,0-.31-1.28,1.73,1.73,0,0,0-1.1-.73,1.91,1.91,0,0,0-1.33.25,1.72,1.72,0,0,1,1.35-.36,1.89,1.89,0,0,1,1.22.74,1.84,1.84,0,0,1,.28,1.4A1.67,1.67,0,0,1,116.36,93Z"/><path class="cls-3" d="M118.42,95.91a1.91,1.91,0,0,0,.68-1.17,1.71,1.71,0,0,0-.31-1.28,1.75,1.75,0,0,0-1.1-.73,1.89,1.89,0,0,0-1.33.25,1.72,1.72,0,0,1,1.35-.36,1.91,1.91,0,0,1,1.22.75,1.85,1.85,0,0,1,.28,1.39A1.73,1.73,0,0,1,118.42,95.91Z"/><path class="cls-3" d="M120.47,98.84a1.92,1.92,0,0,0,.69-1.16,1.79,1.79,0,0,0-.31-1.29,1.7,1.7,0,0,0-1.1-.72,1.89,1.89,0,0,0-1.33.24,1.67,1.67,0,0,1,1.35-.35,1.81,1.81,0,0,1,1.21.74,1.88,1.88,0,0,1,.29,1.4A1.71,1.71,0,0,1,120.47,98.84Z"/></g><path class="cls-2" d="M136.65,79.82a3.35,3.35,0,0,1-2,1.81S137.42,84,136.65,79.82Z"/><g class="cls-8"><ellipse class="cls-6" cx="135.28" cy="80.96" rx="1.34" ry="0.76" transform="translate(-22.01 70.28) rotate(-27.02)"/></g></svg>