<svg id="Layer_16" data-name="Layer 16" xmlns="http://www.w3.org/2000/svg" xmlns:xlink="http://www.w3.org/1999/xlink" viewBox="0 0 260 168"><defs><style>.cls-1{fill:red;}.cls-2{fill:#fff;}.cls-3{fill:#870000;}.cls-4{fill:#ff8585;}.cls-5{clip-path:url(#clip-path);}.cls-6{fill:#7f2828;stroke:#7f2828;stroke-miterlimit:10;stroke-width:0.24px;}.cls-7{clip-path:url(#clip-path-2);}.cls-8{clip-path:url(#clip-path-3);}</style><clipPath id="clip-path"><path class="cls-1" d="M77.57,56.44S63.37,75.29,78.93,89s32.79-3.09,38.66-9.67,4.59,2.19,14.35,5.31c0,0-2.89-3.92-2.87-8.13s-5.37-34.62-23.44-34.2S77.57,56.44,77.57,56.44Z"/></clipPath><clipPath id="clip-path-2"><circle class="cls-2" cx="85.76" cy="78.76" r="7.88" transform="translate(-10.96 13.92) rotate(-8.73)"/></clipPath><clipPath id="clip-path-3"><ellipse class="cls-3" cx="92.76" cy="91.86" rx="2.01" ry="1.66" transform="translate(-9.95 11.28) rotate(-6.61)"/></clipPath></defs><path class="cls-4" d="M113.44,54.7a10.26,10.26,0,0,1-14.37,1.67c-4.44-3.49-7.76-6.95-1.7-14.31s17.25-6.26,17.72-5.89S116.94,50.28,113.44,54.7Z"/><path class="cls-4" d="M116.08,71.16a10.27,10.27,0,0,0-14.46-.74c-4.2,3.77-7.28,7.44-.76,14.39s17.62,5.13,18.06,4.74S119.86,75.34,116.08,71.16Z"/><path class="cls-4" d="M135.33,75.84c3.24-3.57,8.62-6.3,17.17-2.89,0,0,.11,11.21-12.38,13.4a15.11,15.11,0,0,1,7,16.06s-12.11,1-15.39-11.06A16.62,16.62,0,0,1,135.33,75.84Z"/><path class="cls-1" d="M77.57,56.44S63.37,75.29,78.93,89s32.79-3.09,38.66-9.67,4.59,2.19,14.35,5.31c0,0-2.89-3.92-2.87-8.13s-5.37-34.62-23.44-34.2S77.57,56.44,77.57,56.44Z"/><g class="cls-5"><path class="cls-4" d="M93.37,53.08a5.52,5.52,0,0,1-4.42.18,5.73,5.73,0,0,1-3.21-7.66,5.51,5.51,0,0,1,3.26-3,5.9,5.9,0,0,0-2.88,3.15,5.62,5.62,0,0,0,3,7.14A5.93,5.93,0,0,0,93.37,53.08Z"/><path class="cls-4" d="M97.74,63.55a5.56,5.56,0,0,1-4.42.19,5.76,5.76,0,0,1-3.21-7.67,5.49,5.49,0,0,1,3.26-3,5.83,5.83,0,0,0-2.88,3.15,5.61,5.61,0,0,0,3,7.13A5.9,5.9,0,0,0,97.74,63.55Z"/><path class="cls-4" d="M102.12,74a5.52,5.52,0,0,1-4.42.19,5.74,5.74,0,0,1-3.21-7.67,5.47,5.47,0,0,1,3.25-3,5.87,5.87,0,0,0-2.88,3.15,5.64,5.64,0,0,0,3,7.13A5.93,5.93,0,0,0,102.12,74Z"/><path class="cls-4" d="M106.49,84.49a5.52,5.52,0,0,1-4.42.19,5.87,5.87,0,0,1-3.25-3.15,5.81,5.81,0,0,1,0-4.52,5.49,5.49,0,0,1,3.26-3,5.83,5.83,0,0,0-2.88,3.15,5.54,5.54,0,0,0,.07,4.16,5.65,5.65,0,0,0,2.91,3A6,6,0,0,0,106.49,84.49Z"/><path class="cls-4" d="M110.86,95a5.48,5.48,0,0,1-4.42.19A5.84,5.84,0,0,1,103.2,92a5.77,5.77,0,0,1,0-4.52,5.43,5.43,0,0,1,3.25-3,5.9,5.9,0,0,0-2.88,3.15,5.63,5.63,0,0,0,3,7.14A5.9,5.9,0,0,0,110.86,95Z"/><path class="cls-4" d="M102.73,48.38a5.51,5.51,0,0,1-4.43-.1,5.73,5.73,0,0,1-2.71-7.85A5.5,5.5,0,0,1,99,37.65a5.9,5.9,0,0,0-3.07,3,5.63,5.63,0,0,0,2.52,7.32A5.93,5.93,0,0,0,102.73,48.38Z"/><path class="cls-4" d="M106.42,59.11A5.51,5.51,0,0,1,102,59a5.73,5.73,0,0,1-2.71-7.85,5.5,5.5,0,0,1,3.45-2.78,5.87,5.87,0,0,0-3.08,3,5.48,5.48,0,0,0-.2,4.15,5.54,5.54,0,0,0,2.72,3.16A5.93,5.93,0,0,0,106.42,59.11Z"/><path class="cls-4" d="M110.11,69.84a5.55,5.55,0,0,1-4.43-.09A5.74,5.74,0,0,1,103,61.89a5.5,5.5,0,0,1,3.45-2.78,5.9,5.9,0,0,0-3.08,3,5.61,5.61,0,0,0,2.52,7.31A5.93,5.93,0,0,0,110.11,69.84Z"/><path class="cls-4" d="M113.8,80.57a5.55,5.55,0,0,1-4.43-.09,5.88,5.88,0,0,1-3-3.35,5.8,5.8,0,0,1,.32-4.51,5.5,5.5,0,0,1,3.45-2.78,5.9,5.9,0,0,0-3.08,3,5.61,5.61,0,0,0,2.52,7.31A5.93,5.93,0,0,0,113.8,80.57Z"/><path class="cls-4" d="M117.49,91.3a5.53,5.53,0,0,1-4.42-.09,5.86,5.86,0,0,1-3-3.35,5.76,5.76,0,0,1,.33-4.51,5.45,5.45,0,0,1,3.44-2.78,5.9,5.9,0,0,0-3.08,3,5.61,5.61,0,0,0,2.52,7.31A5.88,5.88,0,0,0,117.49,91.3Z"/><path class="cls-4" d="M111.16,45.65a5.55,5.55,0,0,1-4.41-.43,5.74,5.74,0,0,1-2.12-8,5.47,5.47,0,0,1,3.64-2.52A5.93,5.93,0,0,0,105,37.39a5.62,5.62,0,0,0,2,7.48A5.88,5.88,0,0,0,111.16,45.65Z"/><path class="cls-4" d="M114.05,56.62a5.5,5.5,0,0,1-4.41-.42,5.74,5.74,0,0,1-2.12-8,5.49,5.49,0,0,1,3.64-2.51,5.86,5.86,0,0,0-3.29,2.72,5.51,5.51,0,0,0-.5,4.13,5.58,5.58,0,0,0,2.48,3.35A5.93,5.93,0,0,0,114.05,56.62Z"/><path class="cls-4" d="M116.93,67.59a5.48,5.48,0,0,1-4.4-.42,5.74,5.74,0,0,1-2.12-8,5.45,5.45,0,0,1,3.64-2.52,5.9,5.9,0,0,0-3.29,2.72,5.64,5.64,0,0,0,2,7.48A5.85,5.85,0,0,0,116.93,67.59Z"/><path class="cls-4" d="M119.82,78.57a5.52,5.52,0,0,1-4.4-.42,5.73,5.73,0,0,1-2.12-8,5.5,5.5,0,0,1,3.63-2.52,5.85,5.85,0,0,0-3.28,2.73,5.61,5.61,0,0,0,2,7.48A6,6,0,0,0,119.82,78.57Z"/><path class="cls-4" d="M122.71,89.54a5.48,5.48,0,0,1-4.4-.42,5.73,5.73,0,0,1-2.13-8,5.47,5.47,0,0,1,3.64-2.52,5.84,5.84,0,0,0-3.28,2.72,5.61,5.61,0,0,0,2,7.48A6,6,0,0,0,122.71,89.54Z"/><path class="cls-4" d="M123,42.54A5.53,5.53,0,0,1,118.86,41a5.75,5.75,0,0,1,0-8.32A5.52,5.52,0,0,1,123,31.17,5.86,5.86,0,0,0,119.11,33a5.54,5.54,0,0,0-1.52,3.87,5.6,5.6,0,0,0,1.55,3.87A5.94,5.94,0,0,0,123,42.54Z"/><path class="cls-4" d="M123.05,53.9a5.49,5.49,0,0,1-4.16-1.52,5.76,5.76,0,0,1,0-8.32A5.45,5.45,0,0,1,123,42.54a5.85,5.85,0,0,0-3.86,1.81,5.63,5.63,0,0,0,0,7.75A5.89,5.89,0,0,0,123.05,53.9Z"/><path class="cls-4" d="M123.09,65.27a5.53,5.53,0,0,1-4.16-1.52,5.74,5.74,0,0,1,0-8.32,5.5,5.5,0,0,1,4.15-1.53,5.9,5.9,0,0,0-3.87,1.81,5.66,5.66,0,0,0,0,7.75A6,6,0,0,0,123.09,65.27Z"/><path class="cls-4" d="M123.12,76.63A5.56,5.56,0,0,1,119,75.11a5.76,5.76,0,0,1,0-8.32,5.46,5.46,0,0,1,4.16-1.52,5.85,5.85,0,0,0-3.87,1.81,5.62,5.62,0,0,0,0,7.74A5.92,5.92,0,0,0,123.12,76.63Z"/><path class="cls-4" d="M123.16,88A5.46,5.46,0,0,1,119,86.47a5.73,5.73,0,0,1,0-8.31,5.42,5.42,0,0,1,4.15-1.53,5.92,5.92,0,0,0-3.87,1.81,5.66,5.66,0,0,0,0,7.75A5.93,5.93,0,0,0,123.16,88Z"/><path class="cls-4" d="M137.57,63.45A5.55,5.55,0,0,1,134.85,60a5.72,5.72,0,0,1,4.38-7.06,5.49,5.49,0,0,1,4.32.92,5.91,5.91,0,0,0-4.23-.52A5.53,5.53,0,0,0,136,55.77a5.61,5.61,0,0,0-.73,4.1A6,6,0,0,0,137.57,63.45Z"/><path class="cls-4" d="M131.59,73.07a5.49,5.49,0,0,1-2.72-3.49,5.72,5.72,0,0,1,4.38-7,5.45,5.45,0,0,1,4.32.92,5.91,5.91,0,0,0-4.23-.53,5.62,5.62,0,0,0-4.08,6.57A6,6,0,0,0,131.59,73.07Z"/><path class="cls-4" d="M125.61,82.69a5.47,5.47,0,0,1-2.72-3.48,5.72,5.72,0,0,1,4.37-7.06,5.51,5.51,0,0,1,4.33.92,5.86,5.86,0,0,0-4.23-.52,5.61,5.61,0,0,0-4.08,6.56A5.91,5.91,0,0,0,125.61,82.69Z"/><path class="cls-4" d="M119.63,92.32a5.52,5.52,0,0,1-2.72-3.49,5.72,5.72,0,0,1,4.37-7.06,5.51,5.51,0,0,1,4.33.92,5.93,5.93,0,0,0-4.24-.52,5.62,5.62,0,0,0-4.07,6.57A6,6,0,0,0,119.63,92.32Z"/><path class="cls-4" d="M113.65,101.94a5.49,5.49,0,0,1-2.72-3.49,5.72,5.72,0,0,1,4.37-7,5.47,5.47,0,0,1,4.33.92,5.94,5.94,0,0,0-4.24-.53,5.62,5.62,0,0,0-4.07,6.57A5.89,5.89,0,0,0,113.65,101.94Z"/></g><path class="cls-6" d="M81.2,72.26s.41-2.2-1.35-2.93a3.31,3.31,0,0,1,3.07,2Z"/><path class="cls-6" d="M82.8,71.46s1.3-2.25-.35-3.73c0,0,2.58.87,2.59,3.36Z"/><circle class="cls-2" cx="85.76" cy="78.76" r="7.88" transform="translate(-10.96 13.92) rotate(-8.73)"/><g class="cls-7"><circle cx="85.34" cy="82.11" r="5.68" transform="translate(-11.47 13.9) rotate(-8.73)"/><circle class="cls-2" cx="83.39" cy="79.93" r="1.61" transform="matrix(0.99, -0.15, 0.15, 0.99, -11.16, 13.58)"/></g><ellipse class="cls-3" cx="92.76" cy="91.86" rx="2.01" ry="1.66" transform="translate(-9.95 11.28) rotate(-6.61)"/><g class="cls-8"><path class="cls-2" d="M90.56,93.23a2.51,2.51,0,0,0,1-3.5l-1.81.11-.69,4Z"/></g></svg>