<svg id="Layer_18" data-name="Layer 18" xmlns="http://www.w3.org/2000/svg" xmlns:xlink="http://www.w3.org/1999/xlink" viewBox="0 0 260 168"><defs><style>.cls-1{fill:red;}.cls-2{fill:#fff;}.cls-3{fill:#870000;}.cls-4{fill:#ff8585;}.cls-5{clip-path:url(#clip-path);}.cls-6{fill:#7f2828;stroke:#7f2828;stroke-miterlimit:10;stroke-width:0.24px;}.cls-7{clip-path:url(#clip-path-2);}.cls-8{clip-path:url(#clip-path-3);}</style><clipPath id="clip-path"><path class="cls-1" d="M88.19,60.52S64.78,63.47,65.8,84.16s25.06,21.37,33.86,21,1.63,4.82,6.2,14c0,0,.79-4.8,3.83-7.72s21.1-28,8.21-40.63S88.19,60.52,88.19,60.52Z"/></clipPath><clipPath id="clip-path-2"><circle class="cls-2" cx="77.88" cy="81.94" r="7.88" transform="translate(-34.31 95.82) rotate(-53.51)"/></clipPath><clipPath id="clip-path-3"><ellipse class="cls-3" cx="73.36" cy="96.1" rx="1.66" ry="2.01" transform="translate(-47.47 92.12) rotate(-50.76)"/></clipPath></defs><path class="cls-4" d="M114.43,85.05a10.26,10.26,0,0,1-11.21-9.15c-.59-5.62-.42-10.41,9.08-11.19s16.51,8,16.57,8.61S120,84.48,114.43,85.05Z"/><path class="cls-4" d="M104.45,98.41a10.26,10.26,0,0,0-9.53-10.89c-5.64-.39-10.41,0-10.86,9.47s8.59,16.22,9.18,16.26S104.09,104,104.45,98.41Z"/><path class="cls-4" d="M114.5,115.48c4.83-.17,10.53,1.79,14,10.31,0,0-8,7.89-18.24.45a15.1,15.1,0,0,1-6.61,16.24s-9.19-8-2.78-18.74A16.61,16.61,0,0,1,114.5,115.48Z"/><path class="cls-1" d="M88.19,60.52S64.78,63.47,65.8,84.16s25.06,21.37,33.86,21,1.63,4.82,6.2,14c0,0,.79-4.8,3.83-7.72s21.1-28,8.21-40.63S88.19,60.52,88.19,60.52Z"/><g class="cls-5"><path class="cls-4" d="M101.61,69.52a5.55,5.55,0,0,1-3.21-3,5.73,5.73,0,0,1,3.26-7.65,5.52,5.52,0,0,1,4.42.25,5.93,5.93,0,0,0-4.27.13,5.64,5.64,0,0,0-3,7.12A5.94,5.94,0,0,0,101.61,69.52Z"/><path class="cls-4" d="M97.15,80a5.51,5.51,0,0,1-3.22-3,5.86,5.86,0,0,1,0-4.52,5.78,5.78,0,0,1,3.28-3.12,5.46,5.46,0,0,1,4.41.25,5.9,5.9,0,0,0-4.26.12,5.62,5.62,0,0,0-3,7.12A5.9,5.9,0,0,0,97.15,80Z"/><path class="cls-4" d="M92.68,90.38a5.51,5.51,0,0,1-3.22-3,5.74,5.74,0,0,1,3.27-7.64,5.48,5.48,0,0,1,4.42.25,5.87,5.87,0,0,0-4.27.13,5.61,5.61,0,0,0-3,7.11A5.94,5.94,0,0,0,92.68,90.38Z"/><path class="cls-4" d="M88.21,100.81a5.49,5.49,0,0,1-3.21-3,5.73,5.73,0,0,1,3.26-7.64,5.48,5.48,0,0,1,4.42.25,5.87,5.87,0,0,0-4.27.13,5.64,5.64,0,0,0-3,7.11A5.91,5.91,0,0,0,88.21,100.81Z"/><path class="cls-4" d="M83.75,111.25a5.54,5.54,0,0,1-3.22-3,5.73,5.73,0,0,1,3.27-7.65,5.46,5.46,0,0,1,4.41.25,5.85,5.85,0,0,0-4.26.13,5.62,5.62,0,0,0-3,7.12A5.9,5.9,0,0,0,83.75,111.25Z"/><path class="cls-4" d="M111.5,73a5.53,5.53,0,0,1-3-3.24,5.72,5.72,0,0,1,3.75-7.42,5.47,5.47,0,0,1,4.39.53,5.89,5.89,0,0,0-4.27-.14,5.62,5.62,0,0,0-3.49,6.9A5.9,5.9,0,0,0,111.5,73Z"/><path class="cls-4" d="M106.37,83.08a5.53,5.53,0,0,1-3-3.24,5.73,5.73,0,0,1,3.75-7.42,5.48,5.48,0,0,1,4.39.54,5.89,5.89,0,0,0-4.27-.15,5.62,5.62,0,0,0-3.49,6.9A5.94,5.94,0,0,0,106.37,83.08Z"/><path class="cls-4" d="M101.24,93.2a5.48,5.48,0,0,1-3-3.24A5.72,5.72,0,0,1,102,82.55a5.47,5.47,0,0,1,4.39.53,5.87,5.87,0,0,0-4.26-.15A5.51,5.51,0,0,0,99,85.69a5.58,5.58,0,0,0-.38,4.15A6,6,0,0,0,101.24,93.2Z"/><path class="cls-4" d="M96.11,103.33a5.53,5.53,0,0,1-3-3.24,5.74,5.74,0,0,1,3.75-7.42,5.46,5.46,0,0,1,4.39.53A5.87,5.87,0,0,0,97,93.06a5.62,5.62,0,0,0-3.49,6.9A5.92,5.92,0,0,0,96.11,103.33Z"/><path class="cls-4" d="M91,113.45a5.53,5.53,0,0,1-3-3.24,5.75,5.75,0,0,1,3.75-7.42,5.47,5.47,0,0,1,4.39.54,5.87,5.87,0,0,0-4.26-.15,5.62,5.62,0,0,0-3.49,6.9A5.92,5.92,0,0,0,91,113.45Z"/><path class="cls-4" d="M119.33,77.1a5.49,5.49,0,0,1-2.76-3.45,5.74,5.74,0,0,1,4.29-7.12,5.45,5.45,0,0,1,4.34.86,6,6,0,0,0-4.25-.47,5.64,5.64,0,0,0-4,6.63A5.92,5.92,0,0,0,119.33,77.1Z"/><path class="cls-4" d="M113.47,86.82a5.54,5.54,0,0,1-2.76-3.45,5.86,5.86,0,0,1,.61-4.48A5.78,5.78,0,0,1,115,76.25a5.47,5.47,0,0,1,4.34.85,5.87,5.87,0,0,0-4.24-.46,5.64,5.64,0,0,0-4,6.63A6,6,0,0,0,113.47,86.82Z"/><path class="cls-4" d="M107.61,96.54a5.54,5.54,0,0,1-2.77-3.46A5.74,5.74,0,0,1,109.13,86a5.51,5.51,0,0,1,4.34.86,5.87,5.87,0,0,0-4.24-.46,5.62,5.62,0,0,0-4,6.63A6,6,0,0,0,107.61,96.54Z"/><path class="cls-4" d="M101.75,106.25A5.47,5.47,0,0,1,99,102.8a5.74,5.74,0,0,1,4.29-7.12,5.44,5.44,0,0,1,4.34.86,5.92,5.92,0,0,0-4.24-.47,5.62,5.62,0,0,0-4,6.63A5.83,5.83,0,0,0,101.75,106.25Z"/><path class="cls-4" d="M95.88,116a5.54,5.54,0,0,1-2.76-3.45,5.74,5.74,0,0,1,4.29-7.12,5.48,5.48,0,0,1,4.34.85,5.89,5.89,0,0,0-4.25-.46,5.64,5.64,0,0,0-4,6.63A6,6,0,0,0,95.88,116Z"/><path class="cls-4" d="M129.82,83.44a5.47,5.47,0,0,1-1.8-4A5.73,5.73,0,0,1,134,73.59a5.46,5.46,0,0,1,4,1.91A5.88,5.88,0,0,0,134,74a5.64,5.64,0,0,0-5.54,5.42A5.91,5.91,0,0,0,129.82,83.44Z"/><path class="cls-4" d="M121.69,91.39a5.51,5.51,0,0,1-1.8-4,5.74,5.74,0,0,1,5.94-5.81,5.45,5.45,0,0,1,4,1.91,5.88,5.88,0,0,0-4-1.51,5.64,5.64,0,0,0-5.54,5.42A5.94,5.94,0,0,0,121.69,91.39Z"/><path class="cls-4" d="M113.57,99.33a5.47,5.47,0,0,1-1.81-4,5.74,5.74,0,0,1,5.94-5.82,5.42,5.42,0,0,1,4,1.92,5.77,5.77,0,0,0-4-1.51,5.64,5.64,0,0,0-5.54,5.41A6,6,0,0,0,113.57,99.33Z"/><path class="cls-4" d="M105.44,107.27a5.47,5.47,0,0,1-1.81-4,5.76,5.76,0,0,1,6-5.82,5.49,5.49,0,0,1,4,1.92,5.91,5.91,0,0,0-4-1.51,5.64,5.64,0,0,0-5.54,5.41A6,6,0,0,0,105.44,107.27Z"/><path class="cls-4" d="M97.31,115.21a5.51,5.51,0,0,1-1.81-4,5.76,5.76,0,0,1,6-5.82,5.49,5.49,0,0,1,4,1.92,5.89,5.89,0,0,0-4-1.51,5.62,5.62,0,0,0-5.53,5.41A5.89,5.89,0,0,0,97.31,115.21Z"/><path class="cls-4" d="M125,108.45a5.48,5.48,0,0,1,.61-4.38,5.85,5.85,0,0,1,3.67-2.63,5.79,5.79,0,0,1,4.44.86A5.49,5.49,0,0,1,136,106a5.86,5.86,0,0,0-2.57-3.4,5.61,5.61,0,0,0-7.55,1.65A5.88,5.88,0,0,0,125,108.45Z"/><path class="cls-4" d="M113.89,110.86a5.45,5.45,0,0,1,.61-4.37,5.71,5.71,0,0,1,8.11-1.78,5.49,5.49,0,0,1,2.35,3.74,5.9,5.9,0,0,0-2.57-3.4,5.61,5.61,0,0,0-7.55,1.65A5.89,5.89,0,0,0,113.89,110.86Z"/><path class="cls-4" d="M102.82,113.28a5.46,5.46,0,0,1,.61-4.38,5.73,5.73,0,0,1,8.11-1.78,5.52,5.52,0,0,1,2.35,3.74,6,6,0,0,0-2.58-3.4,5.59,5.59,0,0,0-7.54,1.66A5.87,5.87,0,0,0,102.82,113.28Z"/><path class="cls-4" d="M91.75,115.69a5.51,5.51,0,0,1,.6-4.38,5.73,5.73,0,0,1,8.11-1.78,5.51,5.51,0,0,1,2.36,3.75,5.88,5.88,0,0,0-2.58-3.4,5.58,5.58,0,0,0-7.54,1.65A5.88,5.88,0,0,0,91.75,115.69Z"/><path class="cls-4" d="M80.68,118.1a5.51,5.51,0,0,1,.6-4.38A5.85,5.85,0,0,1,85,111.09a5.77,5.77,0,0,1,4.43.86,5.47,5.47,0,0,1,2.36,3.74,5.91,5.91,0,0,0-2.58-3.4,5.48,5.48,0,0,0-4.1-.68,5.6,5.6,0,0,0-3.45,2.33A5.92,5.92,0,0,0,80.68,118.1Z"/></g><path class="cls-6" d="M79.37,74.15s1.86-1.24,1.16-3a3.33,3.33,0,0,1,.71,3.6Z"/><path class="cls-6" d="M81.06,74.74s2.52-.63,2.43-2.85c0,0,1.17,2.46-.61,4.2Z"/><circle class="cls-2" cx="77.88" cy="81.94" r="7.88" transform="translate(-34.31 95.82) rotate(-53.51)"/><g class="cls-7"><circle cx="75.19" cy="83.98" r="5.68" transform="translate(-37.04 94.49) rotate(-53.51)"/><circle class="cls-2" cx="75.4" cy="81.06" r="1.61" transform="matrix(0.59, -0.8, 0.8, 0.59, -34.61, 93.47)"/></g><ellipse class="cls-3" cx="73.36" cy="96.1" rx="1.66" ry="2.01" transform="translate(-47.47 92.12) rotate(-50.76)"/><g class="cls-8"><path class="cls-2" d="M70.84,95.47A2.5,2.5,0,0,0,74,93.71l-1.33-1.22-3.33,2.27Z"/></g></svg>