<svg id="_1" data-name="1" xmlns="http://www.w3.org/2000/svg" xmlns:xlink="http://www.w3.org/1999/xlink" viewBox="0 0 260 168"><defs><style>.cls-1{fill:#fff;}.cls-2{fill:none;}.cls-3{fill:#ff8585;}.cls-4{fill:red;}.cls-5{fill:#7f2828;stroke:#7f2828;stroke-miterlimit:10;stroke-width:0.09px;}.cls-6{clip-path:url(#clip-path);}.cls-7{clip-path:url(#clip-path-2);}</style><clipPath id="clip-path"><circle class="cls-1" cx="134.61" cy="139.22" r="2.96" transform="translate(-59.02 135.96) rotate(-45)"/></clipPath><clipPath id="clip-path-2"><ellipse class="cls-2" cx="141.69" cy="130.31" rx="15.47" ry="8.86" transform="translate(-46.58 170.44) rotate(-54.64)"/></clipPath></defs><path class="cls-3" d="M148.34,115.34c-.69-1.68-.74-3.94,1.81-6.29a5.22,5.22,0,0,1,2.53,6.37,5.69,5.69,0,0,1,6.59.21,5.56,5.56,0,0,1-6.25,3.42A6.23,6.23,0,0,1,148.34,115.34Z"/><path class="cls-3" d="M146.8,128.71a3.84,3.84,0,0,0-3.13,4.44c.36,2.09.91,3.81,4.44,3.13s5.16-4.56,5.13-4.78S148.89,128.35,146.8,128.71Z"/><path class="cls-3" d="M140.36,124a3.85,3.85,0,0,1-3.16,4.42c-2.09.35-3.89.39-4.42-3.16s2.6-6.38,2.82-6.42S140,121.92,140.36,124Z"/><ellipse class="cls-4" cx="141.69" cy="130.31" rx="15.47" ry="8.86" transform="translate(-46.58 170.44) rotate(-54.64)"/><path class="cls-5" d="M134.18,136.27a1,1,0,0,0,0-1.22,1.23,1.23,0,0,1,.69,1.19Z"/><path class="cls-5" d="M134.85,136.27s.82-.53.52-1.31a1.46,1.46,0,0,1,.3,1.57Z"/><circle class="cls-1" cx="134.61" cy="139.22" r="2.96" transform="translate(-59.02 135.96) rotate(-45)"/><g class="cls-6"><circle cx="133.32" cy="139.8" r="2.14" transform="translate(-59.8 135.22) rotate(-45)"/><circle class="cls-1" cx="133.04" cy="138.73" r="0.6"/></g><g class="cls-7"><path class="cls-3" d="M133.93,129.39a2.09,2.09,0,0,1-1.37,1,2.23,2.23,0,0,1-1.66-.36,2.18,2.18,0,0,1-.89-1.45,2,2,0,0,1,.44-1.61,2.14,2.14,0,0,0,3.48,2.47Z"/><path class="cls-3" d="M137.41,131.86a2.09,2.09,0,0,1-1.37.95,2.17,2.17,0,0,1-2.55-1.81,2.14,2.14,0,0,1,.44-1.61,2.14,2.14,0,0,0,3.48,2.47Z"/><path class="cls-3" d="M140.9,134.33a2.11,2.11,0,0,1-1.38.95,2.17,2.17,0,0,1-2.55-1.81,2.14,2.14,0,0,1,.44-1.61,2.14,2.14,0,0,0,3.49,2.47Z"/><path class="cls-3" d="M144.38,136.81a2.11,2.11,0,0,1-1.37.94,2.15,2.15,0,0,1-2.55-1.81,2.06,2.06,0,0,1,.44-1.61,2.14,2.14,0,0,0,3.48,2.48Z"/><path class="cls-3" d="M147.86,139.28a2.07,2.07,0,0,1-1.37.94,2.17,2.17,0,0,1-2.55-1.81,2,2,0,0,1,.44-1.6,2.14,2.14,0,0,0,3.48,2.47Z"/><path class="cls-3" d="M136.1,126.34a2.11,2.11,0,0,1-1.37,1,2.17,2.17,0,0,1-2.56-1.81,2.13,2.13,0,0,1,.44-1.61,2.14,2.14,0,0,0,3.49,2.47Z"/><path class="cls-3" d="M139.58,128.81a2.09,2.09,0,0,1-1.37.95,2.25,2.25,0,0,1-1.67-.36,2.2,2.2,0,0,1-.88-1.45,2.06,2.06,0,0,1,.44-1.61,2.14,2.14,0,0,0,3.48,2.47Z"/><path class="cls-3" d="M143.06,131.28a2.09,2.09,0,0,1-1.37.95,2.23,2.23,0,0,1-1.66-.36,2.18,2.18,0,0,1-.89-1.45,2.06,2.06,0,0,1,.44-1.61,2.14,2.14,0,0,0,3.48,2.47Z"/><path class="cls-3" d="M146.54,133.76a2.11,2.11,0,0,1-1.37.94,2.23,2.23,0,0,1-1.66-.36,2.19,2.19,0,0,1-.89-1.45,2.1,2.1,0,0,1,.44-1.61,2.14,2.14,0,0,0,3.48,2.48Z"/><path class="cls-3" d="M150,136.23a2.09,2.09,0,0,1-1.38.94,2.14,2.14,0,0,1-1.66-.36,2.19,2.19,0,0,1-.89-1.45,2.12,2.12,0,0,1,.44-1.6,2.14,2.14,0,0,0,3.49,2.47Z"/><path class="cls-3" d="M138.26,123.29a2,2,0,0,1-1.37.94,2.18,2.18,0,0,1-1.66-.35,2.2,2.2,0,0,1-.89-1.45,2,2,0,0,1,.44-1.61,2.14,2.14,0,0,0,3.48,2.47Z"/><path class="cls-3" d="M141.74,125.76a2.09,2.09,0,0,1-1.37.95,2.17,2.17,0,0,1-2.55-1.81,2.09,2.09,0,0,1,.44-1.61,2.14,2.14,0,0,0,3.48,2.47Z"/><path class="cls-3" d="M145.23,128.23a2.11,2.11,0,0,1-1.38,1,2.17,2.17,0,0,1-2.55-1.81,2.14,2.14,0,0,1,.44-1.61,2.14,2.14,0,0,0,3.49,2.47Z"/><path class="cls-3" d="M148.71,130.7a2.09,2.09,0,0,1-1.37,1,2.25,2.25,0,0,1-1.67-.36,2.2,2.2,0,0,1-.88-1.45,2.06,2.06,0,0,1,.44-1.61,2.14,2.14,0,0,0,3.48,2.47Z"/><path class="cls-3" d="M152.19,133.18a2.07,2.07,0,0,1-1.37.94,2.17,2.17,0,0,1-2.55-1.81,2.07,2.07,0,0,1,.44-1.61,2.14,2.14,0,0,0,3.48,2.48Z"/><path class="cls-3" d="M140.43,120.24a2.06,2.06,0,0,1-1.37.94,2.2,2.2,0,0,1-1.67-.35,2.24,2.24,0,0,1-.89-1.46,2.12,2.12,0,0,1,.44-1.6,2.14,2.14,0,0,0,3.49,2.47Z"/><path class="cls-3" d="M143.91,122.71a2.09,2.09,0,0,1-1.37,1,2.25,2.25,0,0,1-1.67-.36,2.2,2.2,0,0,1-.88-1.45,2,2,0,0,1,.44-1.61,2.14,2.14,0,0,0,3.48,2.47Z"/><path class="cls-3" d="M147.39,125.18a2.09,2.09,0,0,1-1.37.95,2.23,2.23,0,0,1-1.66-.36,2.18,2.18,0,0,1-.89-1.45,2.06,2.06,0,0,1,.44-1.61,2.14,2.14,0,0,0,3.48,2.47Z"/><path class="cls-3" d="M150.87,127.65a2.09,2.09,0,0,1-1.37.95,2.17,2.17,0,0,1-2.55-1.81,2.06,2.06,0,0,1,.44-1.61,2.14,2.14,0,0,0,3.48,2.47Z"/><path class="cls-3" d="M154.35,130.13a2.08,2.08,0,0,1-1.37.94,2.14,2.14,0,0,1-1.66-.36,2.19,2.19,0,0,1-.89-1.45,2.15,2.15,0,0,1,.44-1.61,2.14,2.14,0,0,0,3.48,2.48Z"/><path class="cls-3" d="M142.59,117.19a2,2,0,0,1-1.37.94,2.18,2.18,0,0,1-1.66-.35,2.2,2.2,0,0,1-.89-1.46,2,2,0,0,1,.44-1.6,2.14,2.14,0,0,0,3.48,2.47Z"/><path class="cls-3" d="M146.07,119.66a2.09,2.09,0,0,1-1.37,1,2.17,2.17,0,0,1-2.55-1.81,2.09,2.09,0,0,1,.44-1.61,2.14,2.14,0,0,0,3.48,2.47Z"/><path class="cls-3" d="M149.56,122.13a2.11,2.11,0,0,1-1.38,1,2.17,2.17,0,0,1-2.55-1.81,2.14,2.14,0,0,1,.44-1.61,2.14,2.14,0,0,0,3.49,2.47Z"/><path class="cls-3" d="M153,124.6a2.09,2.09,0,0,1-1.37,1,2.25,2.25,0,0,1-1.67-.36,2.2,2.2,0,0,1-.88-1.45,2.06,2.06,0,0,1,.44-1.61A2.14,2.14,0,0,0,153,124.6Z"/><path class="cls-3" d="M156.52,127.08a2.11,2.11,0,0,1-1.37.94,2.23,2.23,0,0,1-1.66-.36,2.16,2.16,0,0,1-.89-1.45,2.06,2.06,0,0,1,.44-1.61,2.14,2.14,0,0,0,3.48,2.48Z"/><path class="cls-3" d="M144.76,114.14a2.06,2.06,0,0,1-1.38.94,2.19,2.19,0,0,1-1.66-.35,2.24,2.24,0,0,1-.89-1.46,2.12,2.12,0,0,1,.44-1.6,2.14,2.14,0,0,0,3.49,2.47Z"/><path class="cls-3" d="M148.24,116.61a2,2,0,0,1-1.37.94,2.2,2.2,0,0,1-1.67-.35,2.23,2.23,0,0,1-.88-1.45,2,2,0,0,1,.44-1.61,2.14,2.14,0,0,0,3.48,2.47Z"/><path class="cls-3" d="M151.72,119.08a2.09,2.09,0,0,1-1.37,1,2.23,2.23,0,0,1-1.66-.36,2.18,2.18,0,0,1-.89-1.45,2,2,0,0,1,.44-1.61,2.14,2.14,0,0,0,3.48,2.47Z"/><path class="cls-3" d="M155.2,121.55a2.09,2.09,0,0,1-1.37,1,2.23,2.23,0,0,1-1.66-.36,2.18,2.18,0,0,1-.89-1.45,2.06,2.06,0,0,1,.44-1.61,2.14,2.14,0,0,0,3.48,2.47Z"/><path class="cls-3" d="M158.68,124a2.09,2.09,0,0,1-1.37,1,2.17,2.17,0,0,1-2.55-1.81,2.14,2.14,0,0,1,.44-1.61,2.17,2.17,0,0,0,.57,2.9A2.14,2.14,0,0,0,158.68,124Z"/></g></svg>