<svg id="_8" data-name="8" xmlns="http://www.w3.org/2000/svg" xmlns:xlink="http://www.w3.org/1999/xlink" viewBox="0 0 260 168"><defs><style>.cls-1{fill:none;}.cls-2{fill:#870000;}.cls-3{fill:#ff8585;}.cls-4{fill:red;}.cls-5{fill:#7f2828;stroke:#7f2828;stroke-miterlimit:10;stroke-width:0.07px;}.cls-6{fill:#fff;}.cls-7{clip-path:url(#clip-path);}.cls-8{clip-path:url(#clip-path-2);}</style><clipPath id="clip-path"><ellipse class="cls-1" cx="196.93" cy="144.59" rx="13" ry="7.43" transform="translate(-11.41 16.99) rotate(-4.8)"/></clipPath><clipPath id="clip-path-2"><path class="cls-2" d="M186.49,148.57a3.38,3.38,0,0,0,2.67-.15S189,152,186.49,148.57Z"/></clipPath></defs><path class="cls-3" d="M210.16,140.75c.7-1.35,2.13-2.6,5-2.24a4.39,4.39,0,0,1-2.72,5.07,4.77,4.77,0,0,1,3.43,4.34,4.68,4.68,0,0,1-5.58-2.15A5.21,5.21,0,0,1,210.16,140.75Z"/><path class="cls-3" d="M200.73,147a3.23,3.23,0,0,0-4.55.39c-1.15,1.37-2,2.65.39,4.54a6.3,6.3,0,0,0,5.85.7C202.54,152.49,202.09,148.14,200.73,147Z"/><path class="cls-3" d="M200.26,140.33a3.24,3.24,0,0,1-4.55.37c-1.36-1.16-2.36-2.29-.36-4.55s5.51-1.78,5.65-1.66S201.42,139,200.26,140.33Z"/><ellipse class="cls-4" cx="196.93" cy="144.59" rx="13" ry="7.43" transform="translate(-11.41 16.99) rotate(-4.8)"/><path class="cls-5" d="M189,143s.7,0,.8-.63a1,1,0,0,1-.39,1.09Z"/><path class="cls-5" d="M189.4,143.43s.79.23,1.12-.38a1.21,1.21,0,0,1-.84,1Z"/><ellipse class="cls-6" cx="187.37" cy="144.87" rx="2.49" ry="2.48" transform="translate(-27.45 45.14) rotate(-12.81)"/><circle cx="187.37" cy="144.87" r="1.79" transform="translate(-27.45 45.14) rotate(-12.81)"/><circle class="cls-6" cx="187.9" cy="144.11" r="0.51" transform="translate(-27.27 45.24) rotate(-12.81)"/><g class="cls-7"><path class="cls-3" d="M193.32,139.12a1.69,1.69,0,0,1-1.34-.38,1.84,1.84,0,0,1-.68-1.25,1.89,1.89,0,0,1,.46-1.35,1.7,1.7,0,0,1,1.27-.59,1.9,1.9,0,0,0-1.18.66,1.73,1.73,0,0,0-.38,1.27,1.76,1.76,0,0,0,.58,1.18A1.89,1.89,0,0,0,193.32,139.12Z"/><path class="cls-3" d="M193.62,142.69a1.68,1.68,0,0,1-1.34-.38,1.84,1.84,0,0,1-.68-1.25,1.89,1.89,0,0,1,.46-1.35,1.69,1.69,0,0,1,1.26-.59,1.9,1.9,0,0,0-1.17.66,1.81,1.81,0,0,0,.2,2.45A1.87,1.87,0,0,0,193.62,142.69Z"/><path class="cls-3" d="M193.92,146.26a1.71,1.71,0,0,1-1.35-.38,1.87,1.87,0,0,1-.67-1.25,1.84,1.84,0,0,1,.46-1.35,1.68,1.68,0,0,1,1.26-.59,1.92,1.92,0,0,0-1.18.66,1.76,1.76,0,0,0-.38,1.27,1.73,1.73,0,0,0,.59,1.18A1.92,1.92,0,0,0,193.92,146.26Z"/><path class="cls-3" d="M194.21,149.83a1.69,1.69,0,0,1-1.34-.38,1.76,1.76,0,0,1-.21-2.6,1.68,1.68,0,0,1,1.26-.59,1.9,1.9,0,0,0-1.18.66,1.71,1.71,0,0,0-.38,1.26,1.76,1.76,0,0,0,.58,1.19A2,2,0,0,0,194.21,149.83Z"/><path class="cls-3" d="M194.51,153.4a1.72,1.72,0,0,1-1.34-.38,1.84,1.84,0,0,1-.68-1.25,1.89,1.89,0,0,1,.46-1.35,1.69,1.69,0,0,1,1.26-.59,1.9,1.9,0,0,0-1.17.66,1.81,1.81,0,0,0,.2,2.45A2,2,0,0,0,194.51,153.4Z"/><path class="cls-3" d="M196.46,138.86a1.75,1.75,0,0,1-1.35-.38,1.87,1.87,0,0,1-.67-1.25,1.84,1.84,0,0,1,.46-1.35,1.68,1.68,0,0,1,1.26-.59A1.9,1.9,0,0,0,195,136a1.81,1.81,0,0,0,.2,2.45A2,2,0,0,0,196.46,138.86Z"/><path class="cls-3" d="M196.75,142.43a1.73,1.73,0,0,1-1.34-.38,1.84,1.84,0,0,1-.68-1.25,1.89,1.89,0,0,1,.46-1.35,1.7,1.7,0,0,1,1.27-.59,1.9,1.9,0,0,0-1.18.66,1.71,1.71,0,0,0-.38,1.26,1.76,1.76,0,0,0,.58,1.19A2,2,0,0,0,196.75,142.43Z"/><path class="cls-3" d="M197.05,146a1.72,1.72,0,0,1-1.34-.38,1.84,1.84,0,0,1-.68-1.25,1.89,1.89,0,0,1,.46-1.35,1.69,1.69,0,0,1,1.26-.59,1.9,1.9,0,0,0-1.17.66,1.71,1.71,0,0,0-.38,1.26,1.68,1.68,0,0,0,.58,1.19A2,2,0,0,0,197.05,146Z"/><path class="cls-3" d="M197.35,149.56a1.71,1.71,0,0,1-1.35-.37,1.87,1.87,0,0,1-.67-1.25,1.84,1.84,0,0,1,.46-1.35,1.68,1.68,0,0,1,1.26-.59,1.92,1.92,0,0,0-1.18.66,1.75,1.75,0,0,0-.38,1.26,1.73,1.73,0,0,0,.59,1.19A1.92,1.92,0,0,0,197.35,149.56Z"/><path class="cls-3" d="M197.64,153.13a1.69,1.69,0,0,1-1.34-.37,1.77,1.77,0,0,1-.22-2.6,1.76,1.76,0,0,1,1.27-.6,2,2,0,0,0-1.18.67,1.71,1.71,0,0,0-.38,1.26,1.76,1.76,0,0,0,.58,1.19A1.93,1.93,0,0,0,197.64,153.13Z"/><path class="cls-3" d="M199.59,138.59a1.68,1.68,0,0,1-1.34-.37,1.84,1.84,0,0,1-.68-1.25,1.87,1.87,0,0,1,.46-1.35,1.74,1.74,0,0,1,1.26-.6,2,2,0,0,0-1.18.67,1.74,1.74,0,0,0-.37,1.26,1.68,1.68,0,0,0,.58,1.19A1.92,1.92,0,0,0,199.59,138.59Z"/><path class="cls-3" d="M199.89,142.16a1.71,1.71,0,0,1-1.35-.37,1.9,1.9,0,0,1-.67-1.26,1.82,1.82,0,0,1,.46-1.34,1.72,1.72,0,0,1,1.26-.6,2,2,0,0,0-1.18.67,1.8,1.8,0,0,0,.2,2.44A1.92,1.92,0,0,0,199.89,142.16Z"/><path class="cls-3" d="M200.18,145.73a1.69,1.69,0,0,1-1.34-.37,1.78,1.78,0,0,1-.22-2.6,1.74,1.74,0,0,1,1.27-.6,1.91,1.91,0,0,0-1.18.67,1.7,1.7,0,0,0-.38,1.26,1.74,1.74,0,0,0,.58,1.18A1.89,1.89,0,0,0,200.18,145.73Z"/><path class="cls-3" d="M200.48,149.3a1.68,1.68,0,0,1-1.34-.37,1.79,1.79,0,0,1-.22-2.61,1.73,1.73,0,0,1,1.26-.59,1.91,1.91,0,0,0-1.17.67,1.7,1.7,0,0,0-.38,1.26,1.66,1.66,0,0,0,.58,1.18A1.87,1.87,0,0,0,200.48,149.3Z"/><path class="cls-3" d="M200.78,152.87a1.71,1.71,0,0,1-1.35-.37,1.92,1.92,0,0,1-.67-1.26,1.86,1.86,0,0,1,.46-1.35,1.71,1.71,0,0,1,1.26-.59,1.91,1.91,0,0,0-1.18.67,1.74,1.74,0,0,0-.38,1.26,1.71,1.71,0,0,0,.59,1.18A1.87,1.87,0,0,0,200.78,152.87Z"/><path class="cls-3" d="M202.72,138.33a1.69,1.69,0,0,1-1.34-.37,1.79,1.79,0,0,1-.22-2.61,1.73,1.73,0,0,1,1.27-.59,1.91,1.91,0,0,0-1.18.67,1.8,1.8,0,0,0,.2,2.44A1.87,1.87,0,0,0,202.72,138.33Z"/><path class="cls-3" d="M203,141.9a1.71,1.71,0,0,1-1.34-.37,1.79,1.79,0,0,1-.22-2.61,1.73,1.73,0,0,1,1.26-.59,1.94,1.94,0,0,0-1.18.67,1.73,1.73,0,0,0-.37,1.26,1.66,1.66,0,0,0,.58,1.18A1.87,1.87,0,0,0,203,141.9Z"/><path class="cls-3" d="M203.32,145.47a1.75,1.75,0,0,1-1.35-.37,1.88,1.88,0,0,1-.67-1.26,1.8,1.8,0,0,1,.46-1.35,1.71,1.71,0,0,1,1.26-.59,1.94,1.94,0,0,0-1.18.66,1.78,1.78,0,0,0-.38,1.27A1.74,1.74,0,0,0,202,145,1.92,1.92,0,0,0,203.32,145.47Z"/><path class="cls-3" d="M203.61,149a1.72,1.72,0,0,1-1.34-.37,1.79,1.79,0,0,1-.22-2.61,1.7,1.7,0,0,1,1.27-.59,1.94,1.94,0,0,0-1.18.66,1.81,1.81,0,0,0,.2,2.45A1.89,1.89,0,0,0,203.61,149Z"/><path class="cls-3" d="M203.91,152.61a1.68,1.68,0,0,1-1.34-.38,1.84,1.84,0,0,1-.68-1.25,1.89,1.89,0,0,1,.46-1.35,1.69,1.69,0,0,1,1.26-.59,2,2,0,0,0-1.18.66,1.77,1.77,0,0,0-.37,1.27,1.68,1.68,0,0,0,.58,1.18A1.87,1.87,0,0,0,203.91,152.61Z"/><path class="cls-3" d="M205.86,138.07a1.74,1.74,0,0,1-1.35-.37,1.84,1.84,0,0,1-.67-1.26,1.8,1.8,0,0,1,.46-1.35,1.68,1.68,0,0,1,1.26-.59,1.9,1.9,0,0,0-1.18.66,1.73,1.73,0,0,0-.38,1.27,1.76,1.76,0,0,0,.58,1.18A1.9,1.9,0,0,0,205.86,138.07Z"/><path class="cls-3" d="M206.15,141.64a1.69,1.69,0,0,1-1.34-.38,1.84,1.84,0,0,1-.68-1.25,1.89,1.89,0,0,1,.46-1.35,1.7,1.7,0,0,1,1.27-.59,1.9,1.9,0,0,0-1.18.66,1.81,1.81,0,0,0,.2,2.45A1.87,1.87,0,0,0,206.15,141.64Z"/><path class="cls-3" d="M206.45,145.21a1.68,1.68,0,0,1-1.34-.38,1.84,1.84,0,0,1-.68-1.25,1.89,1.89,0,0,1,.46-1.35,1.69,1.69,0,0,1,1.26-.59,1.92,1.92,0,0,0-1.18.66,1.71,1.71,0,0,0-.37,1.27,1.68,1.68,0,0,0,.58,1.18A1.87,1.87,0,0,0,206.45,145.21Z"/><path class="cls-3" d="M206.75,148.78a1.7,1.7,0,0,1-1.35-.38,1.83,1.83,0,0,1-.67-1.25,1.8,1.8,0,0,1,.46-1.35,1.68,1.68,0,0,1,1.26-.59,1.9,1.9,0,0,0-1.18.66,1.72,1.72,0,0,0-.38,1.27,1.76,1.76,0,0,0,.58,1.18A2,2,0,0,0,206.75,148.78Z"/><path class="cls-3" d="M207,152.35a1.69,1.69,0,0,1-1.34-.38,1.84,1.84,0,0,1-.68-1.25,1.89,1.89,0,0,1,.46-1.35,1.7,1.7,0,0,1,1.27-.59,1.9,1.9,0,0,0-1.18.66,1.81,1.81,0,0,0,.2,2.45A2,2,0,0,0,207,152.35Z"/><path class="cls-3" d="M209,137.81a1.71,1.71,0,0,1-1.35-.38,1.87,1.87,0,0,1-.67-1.25,1.84,1.84,0,0,1,.46-1.35,1.68,1.68,0,0,1,1.26-.59,1.92,1.92,0,0,0-1.18.66,1.75,1.75,0,0,0-.38,1.26,1.73,1.73,0,0,0,.59,1.19A2,2,0,0,0,209,137.81Z"/><path class="cls-3" d="M209.28,141.38a1.69,1.69,0,0,1-1.34-.38,1.78,1.78,0,0,1-.21-2.6,1.68,1.68,0,0,1,1.26-.59,1.9,1.9,0,0,0-1.18.66,1.71,1.71,0,0,0-.38,1.26,1.76,1.76,0,0,0,.58,1.19A2,2,0,0,0,209.28,141.38Z"/><path class="cls-3" d="M209.58,145a1.73,1.73,0,0,1-1.34-.38,1.84,1.84,0,0,1-.68-1.25A1.89,1.89,0,0,1,208,142a1.69,1.69,0,0,1,1.26-.59,1.9,1.9,0,0,0-1.17.66,1.81,1.81,0,0,0,.2,2.45A2,2,0,0,0,209.58,145Z"/><path class="cls-3" d="M209.88,148.52a1.72,1.72,0,0,1-1.34-.38,1.84,1.84,0,0,1-.68-1.25,1.89,1.89,0,0,1,.46-1.35,1.68,1.68,0,0,1,1.26-.59,1.92,1.92,0,0,0-1.18.66,1.75,1.75,0,0,0-.38,1.26,1.73,1.73,0,0,0,.59,1.19A2,2,0,0,0,209.88,148.52Z"/><path class="cls-3" d="M210.18,152.08a1.7,1.7,0,0,1-1.35-.37,1.78,1.78,0,0,1-.21-2.6,1.68,1.68,0,0,1,1.26-.59,1.9,1.9,0,0,0-1.18.66,1.71,1.71,0,0,0-.38,1.26,1.76,1.76,0,0,0,.58,1.19A1.94,1.94,0,0,0,210.18,152.08Z"/></g><path class="cls-2" d="M186.49,148.57a3.38,3.38,0,0,0,2.67-.15S189,152,186.49,148.57Z"/><g class="cls-8"><ellipse class="cls-6" cx="188.25" cy="148.39" rx="1.34" ry="0.76" transform="translate(-37.77 68.56) rotate(-18.79)"/></g></svg>