<svg xmlns="http://www.w3.org/2000/svg" viewBox="0 0 260 168"><defs><style>.cls-1{fill:#225dd6;}</style></defs><g id="Layer_6" data-name="Layer 6"><path class="cls-1" d="M.55,68.86s-41.46-12.48-74.38-15.5-57.41,2.79-74.82,15.27c0,0-3.56-19.45-28.16-21.83,0,0,9.79,4.59,10.68,10.49s-.35,10.68,4.86,14.31c0,0-6.59,2-8.87,7.8s-11.78,7.76-16.66,7.73c0,0,22.31,9.66,35-6.61,0,0,11.69,21.33,54.74,29.13s54-.73,54.51-2.51c0,0,3.6-1,4.06-2.6,0,0,33.75-3.87,42.64-28C4.17,76.51,6.51,71,.55,68.86Z"/></g></svg>