<svg id="_2" data-name="2" xmlns="http://www.w3.org/2000/svg" xmlns:xlink="http://www.w3.org/1999/xlink" viewBox="0 0 260 168"><defs><style>.cls-1{fill:#fff;}.cls-2{fill:none;}.cls-3{fill:#ff8585;}.cls-4{fill:red;}.cls-5{fill:#7f2828;stroke:#7f2828;stroke-miterlimit:10;stroke-width:0.09px;}.cls-6{clip-path:url(#clip-path);}.cls-7{clip-path:url(#clip-path-2);}</style><clipPath id="clip-path"><circle class="cls-1" cx="135" cy="110.99" r="2.96" transform="translate(-19.74 192.23) rotate(-67.12)"/></clipPath><clipPath id="clip-path-2"><ellipse class="cls-2" cx="137.86" cy="99.98" rx="15.47" ry="8.86" transform="translate(12.59 215.34) rotate(-78.59)"/></clipPath></defs><path class="cls-3" d="M137.86,83.59c-1.31-1.25-2.28-3.3-.9-6.47a5.22,5.22,0,0,1,4.9,4.78A5.68,5.68,0,0,1,148,79.43a5.56,5.56,0,0,1-4.32,5.66A6.25,6.25,0,0,1,137.86,83.59Z"/><path class="cls-3" d="M141.88,96.44a3.85,3.85,0,0,0-1.06,5.33c1.18,1.76,2.38,3.11,5.33,1.06s2.87-6.27,2.75-6.46S143.65,95.26,141.88,96.44Z"/><path class="cls-3" d="M134.09,94.76a3.84,3.84,0,0,1-1.09,5.32c-1.77,1.17-3.4,1.94-5.33-1.09s-.21-6.89,0-7S132.92,93,134.09,94.76Z"/><ellipse class="cls-4" cx="137.86" cy="99.98" rx="15.47" ry="8.86" transform="translate(12.59 215.34) rotate(-78.59)"/><path class="cls-5" d="M133.42,108.47a1,1,0,0,0-.46-1.13,1.26,1.26,0,0,1,1.12.81Z"/><path class="cls-5" d="M134,108.2a1.18,1.18,0,0,0-.06-1.41,1.45,1.45,0,0,1,.91,1.31Z"/><circle class="cls-1" cx="135" cy="110.99" r="2.96" transform="translate(-19.74 192.23) rotate(-67.12)"/><g class="cls-6"><circle cx="135.8" cy="111.78" r="2.14" transform="translate(-19.98 193.44) rotate(-67.12)"/><circle class="cls-1" cx="135.11" cy="110.92" r="0.6"/></g><g class="cls-7"><path class="cls-3" d="M130.4,102.29a2.08,2.08,0,0,1-.87,1.42,2.23,2.23,0,0,1-1.67.35,2.26,2.26,0,0,1-1.4-1,2.09,2.09,0,0,1-.25-1.65,2.14,2.14,0,0,0,4.19.85Z"/><path class="cls-3" d="M134.58,103.13a2.08,2.08,0,0,1-.86,1.42,2.16,2.16,0,0,1-3.07-.62,2.07,2.07,0,0,1-.25-1.64,2.13,2.13,0,0,0,4.18.84Z"/><path class="cls-3" d="M138.77,104a2.08,2.08,0,0,1-.87,1.42,2.21,2.21,0,0,1-1.66.34,2.16,2.16,0,0,1-1.4-1,2.1,2.1,0,0,1-.26-1.65,2.14,2.14,0,0,0,4.19.85Z"/><path class="cls-3" d="M143,104.82a2.13,2.13,0,0,1-.87,1.42,2.16,2.16,0,0,1-3.07-.62,2.07,2.07,0,0,1-.25-1.64,2.14,2.14,0,0,0,4.19.84Z"/><path class="cls-3" d="M147.14,105.67a2.06,2.06,0,0,1-.87,1.41,2.16,2.16,0,0,1-3.06-.61,2.05,2.05,0,0,1-.25-1.65,2.14,2.14,0,0,0,4.18.85Z"/><path class="cls-3" d="M131.14,98.62a2.06,2.06,0,0,1-.87,1.42,2.16,2.16,0,0,1-3.07-.62,2.07,2.07,0,0,1-.25-1.64,2.14,2.14,0,0,0,4.19.84Z"/><path class="cls-3" d="M135.32,99.47a2.08,2.08,0,0,1-.86,1.41,2.17,2.17,0,0,1-3.07-.61,2.09,2.09,0,0,1-.25-1.65,2.14,2.14,0,0,0,4.18.85Z"/><path class="cls-3" d="M139.51,100.31a2.06,2.06,0,0,1-.87,1.42,2.15,2.15,0,0,1-3.06-.62,2.08,2.08,0,0,1-.26-1.64,2.14,2.14,0,0,0,4.19.84Z"/><path class="cls-3" d="M143.7,101.15a2.13,2.13,0,0,1-.87,1.42,2.17,2.17,0,0,1-3.07-.61,2.09,2.09,0,0,1-.25-1.65,2.14,2.14,0,0,0,4.19.84Z"/><path class="cls-3" d="M147.88,102a2.06,2.06,0,0,1-.87,1.42,2.17,2.17,0,0,1-1.66.35,2.2,2.2,0,0,1-1.4-1,2,2,0,0,1-.25-1.65,2.14,2.14,0,0,0,4.18.85Z"/><path class="cls-3" d="M131.88,95a2.06,2.06,0,0,1-.87,1.42,2.18,2.18,0,0,1-1.67.35,2.21,2.21,0,0,1-1.4-1,2.1,2.1,0,0,1-.25-1.65,2.14,2.14,0,0,0,4.19.84Z"/><path class="cls-3" d="M136.06,95.8a2.06,2.06,0,0,1-.87,1.42,2.15,2.15,0,0,1-3.06-.62,2.09,2.09,0,0,1-.25-1.65,2.14,2.14,0,0,0,4.18.85Z"/><path class="cls-3" d="M140.25,96.64a2.06,2.06,0,0,1-.87,1.42,2.17,2.17,0,0,1-1.66.35,2.14,2.14,0,0,1-1.4-1,2.08,2.08,0,0,1-.26-1.64,2.14,2.14,0,0,0,4.19.84Z"/><path class="cls-3" d="M144.44,97.49a2.15,2.15,0,0,1-.87,1.42,2.16,2.16,0,0,1-3.07-.62,2.09,2.09,0,0,1-.25-1.65,2.14,2.14,0,0,0,4.19.85Z"/><path class="cls-3" d="M148.62,98.33a2.06,2.06,0,0,1-.87,1.42,2.15,2.15,0,0,1-3.06-.62,2,2,0,0,1-.25-1.64,2.13,2.13,0,0,0,4.18.84Z"/><path class="cls-3" d="M132.62,91.29a2.08,2.08,0,0,1-.87,1.42,2.23,2.23,0,0,1-1.67.35,2.26,2.26,0,0,1-1.4-1,2.09,2.09,0,0,1-.25-1.65,2.14,2.14,0,0,0,4.19.85Z"/><path class="cls-3" d="M136.8,92.13a2.06,2.06,0,0,1-.87,1.42,2.15,2.15,0,0,1-3.06-.62,2.07,2.07,0,0,1-.25-1.64,2.13,2.13,0,0,0,4.18.84Z"/><path class="cls-3" d="M141,93a2.08,2.08,0,0,1-.87,1.42,2.18,2.18,0,0,1-3.07-.62,2.09,2.09,0,0,1-.25-1.65A2.14,2.14,0,0,0,141,93Z"/><path class="cls-3" d="M145.18,93.82a2.13,2.13,0,0,1-.87,1.42,2.16,2.16,0,0,1-3.07-.62A2.07,2.07,0,0,1,141,93a2.14,2.14,0,0,0,4.19.84Z"/><path class="cls-3" d="M149.36,94.67a2.06,2.06,0,0,1-.87,1.41,2.16,2.16,0,0,1-3.06-.61,2.05,2.05,0,0,1-.25-1.65,2.14,2.14,0,0,0,4.18.85Z"/><path class="cls-3" d="M133.36,87.62a2.06,2.06,0,0,1-.87,1.42,2.16,2.16,0,0,1-3.07-.62,2.07,2.07,0,0,1-.25-1.64,2.14,2.14,0,0,0,4.19.84Z"/><path class="cls-3" d="M137.54,88.47a2.06,2.06,0,0,1-.87,1.41,2.17,2.17,0,0,1-1.66.35,2.21,2.21,0,0,1-1.4-1,2.09,2.09,0,0,1-.25-1.65,2.14,2.14,0,0,0,4.18.85Z"/><path class="cls-3" d="M141.73,89.31a2.06,2.06,0,0,1-.87,1.42,2.18,2.18,0,0,1-1.67.35,2.22,2.22,0,0,1-1.4-1,2.07,2.07,0,0,1-.25-1.64,2.14,2.14,0,0,0,4.19.84Z"/><path class="cls-3" d="M145.92,90.15a2.13,2.13,0,0,1-.87,1.42A2.17,2.17,0,0,1,142,91a2.09,2.09,0,0,1-.25-1.65,2.14,2.14,0,0,0,4.19.84Z"/><path class="cls-3" d="M150.1,91a2.06,2.06,0,0,1-.87,1.42,2.15,2.15,0,0,1-3.06-.62,2,2,0,0,1-.25-1.65,2.14,2.14,0,0,0,4.18.85Z"/><path class="cls-3" d="M134.1,84a2.06,2.06,0,0,1-.87,1.42,2.18,2.18,0,0,1-1.67.35,2.21,2.21,0,0,1-1.4-1,2.1,2.1,0,0,1-.25-1.65,2.14,2.14,0,0,0,4.19.84Z"/><path class="cls-3" d="M138.28,84.8a2.06,2.06,0,0,1-.87,1.42,2.15,2.15,0,0,1-3.06-.62A2.09,2.09,0,0,1,134.1,84a2.14,2.14,0,0,0,4.18.85Z"/><path class="cls-3" d="M142.47,85.64a2.06,2.06,0,0,1-.87,1.42,2.16,2.16,0,0,1-3.07-.62,2.07,2.07,0,0,1-.25-1.64,2.14,2.14,0,0,0,4.19.84Z"/><path class="cls-3" d="M146.66,86.49a2.15,2.15,0,0,1-.87,1.42,2.16,2.16,0,0,1-3.07-.62,2.09,2.09,0,0,1-.25-1.65,2.14,2.14,0,0,0,4.19.85Z"/><path class="cls-3" d="M150.84,87.33a2.06,2.06,0,0,1-.87,1.42,2.17,2.17,0,0,1-1.66.35,2.14,2.14,0,0,1-1.4-1,2,2,0,0,1-.25-1.64,2.13,2.13,0,0,0,4.18.84Z"/></g></svg>