<svg id="_2" data-name="2" xmlns="http://www.w3.org/2000/svg" xmlns:xlink="http://www.w3.org/1999/xlink" viewBox="0 0 260 168"><defs><style>.cls-1{fill:#fff;}.cls-2{fill:none;}.cls-3{fill:#773055;}.cls-4{fill:#c10606;}.cls-5{fill:#ff8585;}.cls-6{fill:red;}.cls-7{fill:#7f2828;stroke:#7f2828;stroke-miterlimit:10;stroke-width:0.08px;}.cls-8{clip-path:url(#clip-path);}.cls-9{clip-path:url(#clip-path-2);}.cls-10{clip-path:url(#clip-path-3);}.cls-11{fill:#cddb6a;}.cls-12{fill:#ffecb8;}.cls-13{fill:#aa3779;}</style><clipPath id="clip-path"><circle class="cls-1" cx="132.21" cy="100.74" r="2.52" transform="translate(16.13 219.7) rotate(-83.01)"/></clipPath><clipPath id="clip-path-2"><path class="cls-2" d="M137.14,100.56c1.65,3.13.3,7.68-2.19,12.5-3.34,6.47-12.36,8.46-12.76,8.25s-4-8.71-.66-15.18,7.47-11,12.76-8.26a7.58,7.58,0,0,1,1.52,1"/></clipPath><clipPath id="clip-path-3"><path class="cls-3" d="M154.33,60.85a3.43,3.43,0,0,0,2.65-.44c1.47-.74,2.43-1.8,1.79-3.24h0a3.48,3.48,0,0,0-3-2c-2.29-.19-2.43-1.47-2.43-1.47a.28.28,0,0,0-.37.21,20.82,20.82,0,0,1,.3,2.19,4.78,4.78,0,0,0-.36,3,.45.45,0,0,1,.53.34s.58.12.38.6c0,0,.45.2.18.44,0,0,.18.19,0,.33Z"/></clipPath></defs><path class="cls-4" d="M135.59,98.81a2.27,2.27,0,0,0,1.35,1.48l-.29.9s-1.06-.25-1.09-.5a8.75,8.75,0,0,0-.39-1.13Z"/><path class="cls-5" d="M119.5,120.49c-1.54.14-3.27,1-4,3.83a4.44,4.44,0,0,0,5.81-.57,4.85,4.85,0,0,0,2.75,4.9,4.75,4.75,0,0,0,.14-6.07A5.32,5.32,0,0,0,119.5,120.49Z"/><path class="cls-5" d="M129,114.09a3.27,3.27,0,0,1,2.14-4.11c1.72-.55,3.24-.8,4.11,2.13s-1.44,5.7-1.62,5.76S129.57,115.81,129,114.09Z"/><path class="cls-5" d="M123,111.05a3.28,3.28,0,0,0,2.11-4.12c-.56-1.73-1.23-3.11-4.12-2.12s-3.82,4.47-3.76,4.66S121.22,111.6,123,111.05Z"/><path class="cls-6" d="M136.89,100.14c2,3.14.66,7.88-1.94,12.92-3.34,6.47-12.36,8.46-12.76,8.25s-4-8.71-.66-15.18,7.47-11,12.76-8.26a6.89,6.89,0,0,1,1.37.89,2.07,2.07,0,0,0,.56,1.9C136.82,101.11,136.89,100.14,136.89,100.14Z"/><path class="cls-7" d="M129.81,101.57s-.3.65-.9.51a1,1,0,0,0,1.17,0Z"/><path class="cls-7" d="M130.08,102.08s-.09.83-.79.9a1.22,1.22,0,0,0,1.3-.39Z"/><circle class="cls-1" cx="132.21" cy="100.74" r="2.52" transform="translate(16.13 219.7) rotate(-83.01)"/><g class="cls-8"><circle cx="133.13" cy="100.47" r="1.82" transform="translate(17.2 220.38) rotate(-83.01)"/><circle class="cls-1" cx="132.22" cy="100.67" r="0.52"/></g><g class="cls-9"><path class="cls-5" d="M124.51,104.07a2,2,0,0,0,.06-1.37,1.71,1.71,0,0,0-.88-1,1.73,1.73,0,0,0-1.34-.14,1.91,1.91,0,0,0-1.08.84,1.73,1.73,0,0,1,1-1,1.85,1.85,0,0,1,1.44.1,1.89,1.89,0,0,1,.92,1.12A1.72,1.72,0,0,1,124.51,104.07Z"/><path class="cls-5" d="M127.74,105.74a2,2,0,0,0,.07-1.37,1.75,1.75,0,0,0-.89-1,1.71,1.71,0,0,0-1.33-.14,1.88,1.88,0,0,0-1.08.84,1.69,1.69,0,0,1,1-.95,1.82,1.82,0,0,1,2.36,1.22A1.72,1.72,0,0,1,127.74,105.74Z"/><path class="cls-5" d="M131,107.41A2,2,0,0,0,131,106a1.84,1.84,0,0,0-2.22-1.14,1.91,1.91,0,0,0-1.08.84,1.73,1.73,0,0,1,1-.95,1.85,1.85,0,0,1,1.44.1,1.89,1.89,0,0,1,.92,1.12A1.71,1.71,0,0,1,131,107.41Z"/><path class="cls-5" d="M134.21,109.08a2,2,0,0,0,.07-1.37,1.75,1.75,0,0,0-.89-1,1.71,1.71,0,0,0-1.33-.14,1.92,1.92,0,0,0-1.08.84,1.72,1.72,0,0,1,1-1,1.82,1.82,0,0,1,2.36,1.22A1.71,1.71,0,0,1,134.21,109.08Z"/><path class="cls-5" d="M137.45,110.75a1.91,1.91,0,0,0,.06-1.37,1.74,1.74,0,0,0-.88-1,1.78,1.78,0,0,0-1.34-.14,2,2,0,0,0-1.08.84,1.73,1.73,0,0,1,1-1,1.85,1.85,0,0,1,1.44.1,1.89,1.89,0,0,1,.92,1.12A1.71,1.71,0,0,1,137.45,110.75Z"/><path class="cls-5" d="M123,106.91a2,2,0,0,0,.07-1.37,1.85,1.85,0,0,0-2.22-1.15,2,2,0,0,0-1.08.85,1.78,1.78,0,0,1,1-1,1.9,1.9,0,0,1,1.44.1,1.87,1.87,0,0,1,.91,1.12A1.74,1.74,0,0,1,123,106.91Z"/><path class="cls-5" d="M126.28,108.58a1.91,1.91,0,0,0,.06-1.37,1.83,1.83,0,0,0-2.21-1.15,2,2,0,0,0-1.09.85,1.78,1.78,0,0,1,1-1,1.82,1.82,0,0,1,2.36,1.22A1.74,1.74,0,0,1,126.28,108.58Z"/><path class="cls-5" d="M129.51,110.25a2,2,0,0,0,.07-1.37,1.85,1.85,0,0,0-2.22-1.15,2,2,0,0,0-1.08.85,1.78,1.78,0,0,1,1-1,1.9,1.9,0,0,1,1.44.1,1.87,1.87,0,0,1,.91,1.12A1.74,1.74,0,0,1,129.51,110.25Z"/><path class="cls-5" d="M132.75,111.92a1.91,1.91,0,0,0,.06-1.37,1.83,1.83,0,0,0-2.21-1.15,2,2,0,0,0-1.09.85,1.73,1.73,0,0,1,1.05-1,1.87,1.87,0,0,1,1.45.09,1.91,1.91,0,0,1,.91,1.12A1.74,1.74,0,0,1,132.75,111.92Z"/><path class="cls-5" d="M136,113.59a2,2,0,0,0,.07-1.37,1.85,1.85,0,0,0-2.22-1.15,2,2,0,0,0-1.08.85,1.73,1.73,0,0,1,1.05-1,1.85,1.85,0,0,1,1.44.09,1.87,1.87,0,0,1,.91,1.12A1.7,1.7,0,0,1,136,113.59Z"/><path class="cls-5" d="M121.58,109.74a1.91,1.91,0,0,0,.06-1.37,1.72,1.72,0,0,0-.88-1,1.76,1.76,0,0,0-1.33-.13,1.88,1.88,0,0,0-1.08.84,1.69,1.69,0,0,1,1-.95,1.92,1.92,0,0,1,1.45.09,1.9,1.9,0,0,1,.91,1.13A1.72,1.72,0,0,1,121.58,109.74Z"/><path class="cls-5" d="M124.82,111.41a2,2,0,0,0,.06-1.37,1.77,1.77,0,0,0-.89-1,1.75,1.75,0,0,0-1.33-.13,1.91,1.91,0,0,0-1.08.84,1.73,1.73,0,0,1,1-.95A1.81,1.81,0,0,1,125,110,1.72,1.72,0,0,1,124.82,111.41Z"/><path class="cls-5" d="M128.05,113.08a1.91,1.91,0,0,0,.06-1.37,1.72,1.72,0,0,0-.88-1,1.76,1.76,0,0,0-1.33-.13,1.88,1.88,0,0,0-1.08.84,1.69,1.69,0,0,1,1-1,1.92,1.92,0,0,1,1.45.09,1.9,1.9,0,0,1,.91,1.13A1.72,1.72,0,0,1,128.05,113.08Z"/><path class="cls-5" d="M131.29,114.75a2,2,0,0,0,.06-1.37,1.82,1.82,0,0,0-2.22-1.14,1.91,1.91,0,0,0-1.08.84,1.73,1.73,0,0,1,1-1,1.89,1.89,0,0,1,1.44.09,1.91,1.91,0,0,1,.92,1.13A1.72,1.72,0,0,1,131.29,114.75Z"/><path class="cls-5" d="M134.52,116.42a1.91,1.91,0,0,0,.06-1.37,1.72,1.72,0,0,0-.88-1,1.76,1.76,0,0,0-1.33-.13,1.88,1.88,0,0,0-1.08.84,1.69,1.69,0,0,1,1-1,1.92,1.92,0,0,1,1.45.09,1.9,1.9,0,0,1,.91,1.13A1.72,1.72,0,0,1,134.52,116.42Z"/><path class="cls-5" d="M120.12,112.58a1.94,1.94,0,0,0,.06-1.38,1.84,1.84,0,0,0-2.22-1.14,2,2,0,0,0-1.08.85,1.72,1.72,0,0,1,1.05-1,1.85,1.85,0,0,1,1.44.1,1.89,1.89,0,0,1,.92,1.12A1.74,1.74,0,0,1,120.12,112.58Z"/><path class="cls-5" d="M123.35,114.25a2,2,0,0,0,.07-1.38,1.79,1.79,0,0,0-.89-1,1.76,1.76,0,0,0-1.33-.14,1.94,1.94,0,0,0-1.08.85,1.7,1.7,0,0,1,1-1,1.92,1.92,0,0,1,1.45.1,1.88,1.88,0,0,1,.91,1.12A1.74,1.74,0,0,1,123.35,114.25Z"/><path class="cls-5" d="M126.59,115.92a1.94,1.94,0,0,0,.06-1.38,1.84,1.84,0,0,0-2.22-1.14,2,2,0,0,0-1.08.85,1.72,1.72,0,0,1,1.05-1,1.83,1.83,0,0,1,2.36,1.22A1.74,1.74,0,0,1,126.59,115.92Z"/><path class="cls-5" d="M129.82,117.59a2,2,0,0,0,.07-1.38,1.79,1.79,0,0,0-.89-1,1.76,1.76,0,0,0-1.33-.14,2,2,0,0,0-1.08.85,1.72,1.72,0,0,1,1-1,1.9,1.9,0,0,1,1.44.1,1.88,1.88,0,0,1,.91,1.12A1.74,1.74,0,0,1,129.82,117.59Z"/><path class="cls-5" d="M133.06,119.26a1.91,1.91,0,0,0,.06-1.37,1.76,1.76,0,0,0-.88-1,1.78,1.78,0,0,0-1.34-.14,2,2,0,0,0-1.08.85,1.75,1.75,0,0,1,1.05-1,1.83,1.83,0,0,1,2.36,1.22A1.74,1.74,0,0,1,133.06,119.26Z"/><path class="cls-5" d="M118.65,115.41a2,2,0,0,0,.07-1.37,1.85,1.85,0,0,0-2.22-1.15,2,2,0,0,0-1.08.85,1.73,1.73,0,0,1,1-.95,1.9,1.9,0,0,1,1.44.09,1.87,1.87,0,0,1,.91,1.12A1.74,1.74,0,0,1,118.65,115.41Z"/><path class="cls-5" d="M121.89,117.08a1.91,1.91,0,0,0,.06-1.37,1.83,1.83,0,0,0-2.21-1.15,2,2,0,0,0-1.09.85,1.73,1.73,0,0,1,1-1,1.8,1.8,0,0,1,2.36,1.21A1.73,1.73,0,0,1,121.89,117.08Z"/><path class="cls-5" d="M125.12,118.75a1.91,1.91,0,0,0,.07-1.37,1.85,1.85,0,0,0-2.22-1.15,2,2,0,0,0-1.08.85,1.73,1.73,0,0,1,1-1,1.9,1.9,0,0,1,1.44.09,1.92,1.92,0,0,1,.92,1.12A1.74,1.74,0,0,1,125.12,118.75Z"/><path class="cls-5" d="M128.36,120.42a1.91,1.91,0,0,0,.06-1.37,1.72,1.72,0,0,0-.88-1,1.76,1.76,0,0,0-1.33-.14,2,2,0,0,0-1.09.85,1.73,1.73,0,0,1,1-1,1.8,1.8,0,0,1,2.36,1.21A1.73,1.73,0,0,1,128.36,120.42Z"/><path class="cls-5" d="M131.6,122.09a2,2,0,0,0,.06-1.37,1.77,1.77,0,0,0-.89-1,1.75,1.75,0,0,0-1.33-.14,2,2,0,0,0-1.08.85,1.73,1.73,0,0,1,1-1,1.81,1.81,0,0,1,2.36,1.22A1.75,1.75,0,0,1,131.6,122.09Z"/><path class="cls-5" d="M117.19,118.24a1.91,1.91,0,0,0,.06-1.37,1.84,1.84,0,0,0-2.21-1.14,1.88,1.88,0,0,0-1.08.84,1.69,1.69,0,0,1,1-.95,1.82,1.82,0,0,1,2.36,1.22A1.71,1.71,0,0,1,117.19,118.24Z"/><path class="cls-5" d="M120.43,119.91a2,2,0,0,0,.06-1.37,1.77,1.77,0,0,0-.88-1,1.73,1.73,0,0,0-1.34-.14,2,2,0,0,0-1.08.84,1.73,1.73,0,0,1,1-.95,1.85,1.85,0,0,1,1.44.1,1.89,1.89,0,0,1,.92,1.12A1.71,1.71,0,0,1,120.43,119.91Z"/><path class="cls-5" d="M123.66,121.58a2,2,0,0,0,.07-1.37,1.85,1.85,0,0,0-2.22-1.14,1.92,1.92,0,0,0-1.08.84,1.69,1.69,0,0,1,1-1,1.82,1.82,0,0,1,2.36,1.22A1.71,1.71,0,0,1,123.66,121.58Z"/><path class="cls-5" d="M126.9,123.25a2,2,0,0,0,.06-1.37,1.74,1.74,0,0,0-.88-1,1.78,1.78,0,0,0-1.34-.14,2,2,0,0,0-1.08.84,1.73,1.73,0,0,1,1-1,1.85,1.85,0,0,1,1.44.1,1.89,1.89,0,0,1,.92,1.12A1.71,1.71,0,0,1,126.9,123.25Z"/><path class="cls-5" d="M130.13,124.92a2,2,0,0,0,.07-1.37,1.85,1.85,0,0,0-2.22-1.14,1.92,1.92,0,0,0-1.08.84,1.69,1.69,0,0,1,1-1,1.82,1.82,0,0,1,2.36,1.22A1.71,1.71,0,0,1,130.13,124.92Z"/></g><path class="cls-3" d="M154.33,60.85a3.43,3.43,0,0,0,2.65-.44c1.47-.74,2.43-1.8,1.79-3.24h0a3.48,3.48,0,0,0-3-2c-2.29-.19-2.43-1.47-2.43-1.47a.28.28,0,0,0-.37.21,20.82,20.82,0,0,1,.3,2.19,4.78,4.78,0,0,0-.36,3,.45.45,0,0,1,.53.34s.58.12.38.6c0,0,.45.2.18.44,0,0,.18.19,0,.33Z"/><g class="cls-10"><path class="cls-11" d="M153.51,56a.7.7,0,0,1-.27.08.68.68,0,0,1-.43-.23,2.08,2.08,0,0,1-.43-.46,2.79,2.79,0,0,1,0-2.11,1.13,1.13,0,0,1,.78-.53A1.15,1.15,0,0,1,154,53a2.26,2.26,0,0,1,.59,1.62A1.85,1.85,0,0,1,153.51,56Z"/><path class="cls-2" d="M153.61,59.9l.08.1.13.18a.64.64,0,0,1,.13.29.57.57,0,0,0,0,.13.19.19,0,0,0,.24.09.44.44,0,0,0,.22-.16,1,1,0,0,0,.26-.49.86.86,0,0,0-.33-.68c-.22-.21-.91-.76-1.21-.43a.26.26,0,0,0,.05.4A3,3,0,0,1,153.61,59.9Z"/><path class="cls-12" d="M143.79,69.19h0"/></g><ellipse class="cls-13" cx="156.78" cy="56.23" rx="0.43" ry="0.52" transform="translate(23.38 155.97) rotate(-56.51)"/><ellipse class="cls-13" cx="155.79" cy="55.97" rx="0.18" ry="0.21" transform="translate(23.15 155.02) rotate(-56.51)"/><path class="cls-13" d="M154,56.1a4.36,4.36,0,0,0,.61,2.89S153,58.15,154,56.1Z"/><path class="cls-3" d="M152.93,59A3.8,3.8,0,0,0,154,60.74s.85-.19.8-.28-.72-1.31-.72-1.31-.57-.59-.61-.65S152.93,59,152.93,59Z"/></svg>