<svg id="_4" data-name="4" xmlns="http://www.w3.org/2000/svg" xmlns:xlink="http://www.w3.org/1999/xlink" viewBox="0 0 260 168"><defs><style>.cls-1{fill:none;}.cls-2{fill:#870000;}.cls-3{fill:#ff8585;}.cls-4{fill:red;}.cls-5{fill:#7f2828;stroke:#7f2828;stroke-miterlimit:10;stroke-width:0.07px;}.cls-6{fill:#fff;}.cls-7{clip-path:url(#clip-path);}.cls-8{clip-path:url(#clip-path-2);}</style><clipPath id="clip-path"><ellipse class="cls-1" cx="153.15" cy="88.19" rx="7.43" ry="13" transform="translate(-14.16 145.1) rotate(-48.72)"/></clipPath><clipPath id="clip-path-2"><path class="cls-2" d="M160.36,97.54a3.3,3.3,0,0,1-2.22-1.49S156.48,99.29,160.36,97.54Z"/></clipPath></defs><path class="cls-3" d="M144.8,77.24c.23-1.5-.17-3.36-2.71-4.78a4.37,4.37,0,0,0-.82,5.69,4.78,4.78,0,0,0-5.34,1.45,4.69,4.69,0,0,0,5.77,1.59A5.27,5.27,0,0,0,144.8,77.24Z"/><path class="cls-3" d="M148.67,87.87a3.24,3.24,0,0,1,3.42,3c.11,1.78,0,3.29-3,3.42S144,91.58,144,91.4,146.89,88,148.67,87.87Z"/><path class="cls-3" d="M153,82.78a3.23,3.23,0,0,0,3.44,3c1.77-.12,3.25-.44,3-3.44s-3.37-4.71-3.56-4.7S152.88,81,153,82.78Z"/><ellipse class="cls-4" cx="153.15" cy="88.19" rx="7.43" ry="13" transform="translate(-14.16 145.1) rotate(-48.72)"/><path class="cls-5" d="M160.44,91.6a.85.85,0,0,1-.27-1,1,1,0,0,0-.33,1.11Z"/><path class="cls-5" d="M159.89,91.74s-.77-.28-.67-1a1.19,1.19,0,0,0,.06,1.33Z"/><ellipse class="cls-6" cx="160.67" cy="94.1" rx="2.48" ry="2.49" transform="translate(-22.48 127.61) rotate(-40.73)"/><circle cx="160.67" cy="94.1" r="1.79" transform="translate(-22.49 127.61) rotate(-40.73)"/><circle class="cls-6" cx="160.7" cy="93.18" r="0.51" transform="translate(-21.88 127.41) rotate(-40.73)"/><g class="cls-7"><path class="cls-3" d="M159.3,85.94a1.93,1.93,0,0,0,1.3.38,1.72,1.72,0,0,0,1.17-.6,1.76,1.76,0,0,0,.45-1.24,1.92,1.92,0,0,0-.56-1.24,1.75,1.75,0,0,1,.67,1.23,1.93,1.93,0,0,1-.43,1.36,1.9,1.9,0,0,1-1.29.61A1.74,1.74,0,0,1,159.3,85.94Z"/><path class="cls-3" d="M156.94,88.63a1.94,1.94,0,0,0,1.3.39,1.82,1.82,0,0,0,1.62-1.85,1.9,1.9,0,0,0-.56-1.23,1.71,1.71,0,0,1,.67,1.22,1.87,1.87,0,0,1-.44,1.36,1.83,1.83,0,0,1-1.28.61A1.7,1.7,0,0,1,156.94,88.63Z"/><path class="cls-3" d="M154.58,91.33a1.92,1.92,0,0,0,1.3.38,1.72,1.72,0,0,0,1.17-.6,1.76,1.76,0,0,0,.45-1.24,2,2,0,0,0-.56-1.24,1.73,1.73,0,0,1,.67,1.23,1.89,1.89,0,0,1-.44,1.36,1.87,1.87,0,0,1-1.29.6A1.72,1.72,0,0,1,154.58,91.33Z"/><path class="cls-3" d="M152.22,94a2,2,0,0,0,1.3.39,1.77,1.77,0,0,0,1.17-.61,1.71,1.71,0,0,0,.44-1.24,1.88,1.88,0,0,0-.55-1.23,1.71,1.71,0,0,1,.67,1.22,1.8,1.8,0,0,1-1.73,2A1.69,1.69,0,0,1,152.22,94Z"/><path class="cls-3" d="M149.86,96.71a1.91,1.91,0,0,0,1.3.39,1.73,1.73,0,0,0,1.17-.61,1.69,1.69,0,0,0,.44-1.24,1.88,1.88,0,0,0-.55-1.23,1.67,1.67,0,0,1,.66,1.23,1.81,1.81,0,0,1-.43,1.35,1.84,1.84,0,0,1-1.29.61A1.69,1.69,0,0,1,149.86,96.71Z"/><path class="cls-3" d="M156.94,83.86a1.86,1.86,0,0,0,1.3.39,1.76,1.76,0,0,0,1.17-.6,1.72,1.72,0,0,0,.44-1.25,1.88,1.88,0,0,0-.55-1.23A1.67,1.67,0,0,1,160,82.4a1.84,1.84,0,0,1-.43,1.36,1.87,1.87,0,0,1-1.29.6A1.69,1.69,0,0,1,156.94,83.86Z"/><path class="cls-3" d="M154.58,86.56a2,2,0,0,0,1.29.39,1.77,1.77,0,0,0,1.18-.61,1.71,1.71,0,0,0,.44-1.24,1.93,1.93,0,0,0-.55-1.24,1.71,1.71,0,0,1,.66,1.23,1.84,1.84,0,0,1-.43,1.36,1.88,1.88,0,0,1-1.29.61A1.73,1.73,0,0,1,154.58,86.56Z"/><path class="cls-3" d="M152.22,89.25a1.9,1.9,0,0,0,1.29.39,1.73,1.73,0,0,0,1.18-.61,1.69,1.69,0,0,0,.44-1.24,1.88,1.88,0,0,0-.55-1.23,1.67,1.67,0,0,1,.66,1.22,1.82,1.82,0,0,1-.43,1.36,1.84,1.84,0,0,1-1.29.61A1.69,1.69,0,0,1,152.22,89.25Z"/><path class="cls-3" d="M149.86,92a1.89,1.89,0,0,0,1.29.38,1.72,1.72,0,0,0,1.18-.6,1.75,1.75,0,0,0,.44-1.24,1.91,1.91,0,0,0-.55-1.24,1.69,1.69,0,0,1,.66,1.23,1.84,1.84,0,0,1-.43,1.36,1.89,1.89,0,0,1-1.29.6A1.72,1.72,0,0,1,149.86,92Z"/><path class="cls-3" d="M147.5,94.64a2,2,0,0,0,1.29.39,1.82,1.82,0,0,0,1.62-1.85,1.88,1.88,0,0,0-.55-1.23,1.67,1.67,0,0,1,.66,1.22,1.83,1.83,0,0,1-.43,1.36,1.85,1.85,0,0,1-1.29.61A1.68,1.68,0,0,1,147.5,94.64Z"/><path class="cls-3" d="M154.58,81.79a1.9,1.9,0,0,0,1.29.39,1.82,1.82,0,0,0,1.62-1.85,1.93,1.93,0,0,0-.55-1.23,1.7,1.7,0,0,1,.66,1.22,1.78,1.78,0,0,1-1.72,2A1.68,1.68,0,0,1,154.58,81.79Z"/><path class="cls-3" d="M152.22,84.48a1.85,1.85,0,0,0,1.29.39,1.68,1.68,0,0,0,1.17-.6,1.73,1.73,0,0,0,.45-1.25,1.93,1.93,0,0,0-.55-1.23,1.72,1.72,0,0,1,.66,1.23,1.77,1.77,0,0,1-1.72,2A1.68,1.68,0,0,1,152.22,84.48Z"/><path class="cls-3" d="M149.86,87.18a2,2,0,0,0,1.29.39,1.82,1.82,0,0,0,1.62-1.85,2,2,0,0,0-.55-1.24,1.74,1.74,0,0,1,.66,1.23,1.78,1.78,0,0,1-1.72,2A1.72,1.72,0,0,1,149.86,87.18Z"/><path class="cls-3" d="M147.5,89.87a1.9,1.9,0,0,0,1.29.39,1.82,1.82,0,0,0,1.62-1.85,1.93,1.93,0,0,0-.55-1.23,1.7,1.7,0,0,1,.66,1.22,1.78,1.78,0,0,1-1.72,2A1.68,1.68,0,0,1,147.5,89.87Z"/><path class="cls-3" d="M145.13,92.57a1.93,1.93,0,0,0,1.3.38,1.72,1.72,0,0,0,1.17-.6,1.76,1.76,0,0,0,.45-1.24,2,2,0,0,0-.55-1.24,1.76,1.76,0,0,1,.66,1.23,1.77,1.77,0,0,1-1.72,2A1.75,1.75,0,0,1,145.13,92.57Z"/><path class="cls-3" d="M152.21,79.72a1.93,1.93,0,0,0,1.3.38,1.72,1.72,0,0,0,1.17-.6,1.76,1.76,0,0,0,.45-1.24,1.92,1.92,0,0,0-.56-1.24,1.75,1.75,0,0,1,.67,1.23,1.93,1.93,0,0,1-.43,1.36,1.9,1.9,0,0,1-1.29.61A1.74,1.74,0,0,1,152.21,79.72Z"/><path class="cls-3" d="M149.85,82.41a1.94,1.94,0,0,0,1.3.39A1.82,1.82,0,0,0,152.77,81a1.9,1.9,0,0,0-.56-1.23,1.71,1.71,0,0,1,.67,1.22,1.9,1.9,0,0,1-.43,1.36,1.85,1.85,0,0,1-1.29.61A1.7,1.7,0,0,1,149.85,82.41Z"/><path class="cls-3" d="M147.49,85.1a1.89,1.89,0,0,0,1.3.39,1.72,1.72,0,0,0,1.17-.6,1.76,1.76,0,0,0,.45-1.24,1.9,1.9,0,0,0-.56-1.24,1.73,1.73,0,0,1,.67,1.23,1.89,1.89,0,0,1-.44,1.36,1.86,1.86,0,0,1-1.28.6A1.7,1.7,0,0,1,147.49,85.1Z"/><path class="cls-3" d="M145.13,87.8a2,2,0,0,0,1.3.39,1.82,1.82,0,0,0,1.62-1.85,2,2,0,0,0-.56-1.24,1.75,1.75,0,0,1,.67,1.23,1.8,1.8,0,0,1-1.73,2A1.69,1.69,0,0,1,145.13,87.8Z"/><path class="cls-3" d="M142.77,90.49a1.93,1.93,0,0,0,1.3.39,1.73,1.73,0,0,0,1.17-.61,1.69,1.69,0,0,0,.44-1.24,1.88,1.88,0,0,0-.55-1.23A1.71,1.71,0,0,1,145.8,89a1.86,1.86,0,0,1-.44,1.35,1.84,1.84,0,0,1-1.29.61A1.69,1.69,0,0,1,142.77,90.49Z"/><path class="cls-3" d="M149.85,77.64a1.86,1.86,0,0,0,1.3.39,1.76,1.76,0,0,0,1.17-.6,1.72,1.72,0,0,0,.44-1.25,1.88,1.88,0,0,0-.55-1.23,1.67,1.67,0,0,1,.66,1.23,1.84,1.84,0,0,1-.43,1.36,1.87,1.87,0,0,1-1.29.6A1.69,1.69,0,0,1,149.85,77.64Z"/><path class="cls-3" d="M147.49,80.34a2,2,0,0,0,1.3.39,1.77,1.77,0,0,0,1.17-.61,1.71,1.71,0,0,0,.44-1.24,1.91,1.91,0,0,0-.55-1.24,1.71,1.71,0,0,1,.66,1.23,1.84,1.84,0,0,1-.43,1.36,1.88,1.88,0,0,1-1.29.61A1.73,1.73,0,0,1,147.49,80.34Z"/><path class="cls-3" d="M145.13,83a1.9,1.9,0,0,0,1.29.39,1.73,1.73,0,0,0,1.18-.61,1.69,1.69,0,0,0,.44-1.24,1.88,1.88,0,0,0-.55-1.23,1.67,1.67,0,0,1,.66,1.22,1.82,1.82,0,0,1-.43,1.36,1.84,1.84,0,0,1-1.29.61A1.69,1.69,0,0,1,145.13,83Z"/><path class="cls-3" d="M142.77,85.73a1.89,1.89,0,0,0,1.29.38,1.78,1.78,0,0,0,1.62-1.84,1.91,1.91,0,0,0-.55-1.24,1.69,1.69,0,0,1,.66,1.23,1.84,1.84,0,0,1-.43,1.36,1.87,1.87,0,0,1-1.29.6A1.72,1.72,0,0,1,142.77,85.73Z"/><path class="cls-3" d="M140.41,88.42a2,2,0,0,0,1.29.39,1.77,1.77,0,0,0,1.18-.61,1.75,1.75,0,0,0,.44-1.24,1.88,1.88,0,0,0-.55-1.23,1.67,1.67,0,0,1,.66,1.22,1.83,1.83,0,0,1-.43,1.36,1.9,1.9,0,0,1-1.29.61A1.69,1.69,0,0,1,140.41,88.42Z"/><path class="cls-3" d="M147.49,75.57a1.9,1.9,0,0,0,1.29.39,1.82,1.82,0,0,0,1.62-1.85,1.93,1.93,0,0,0-.55-1.23,1.67,1.67,0,0,1,.66,1.22,1.82,1.82,0,0,1-.43,1.36,1.85,1.85,0,0,1-1.29.61A1.68,1.68,0,0,1,147.49,75.57Z"/><path class="cls-3" d="M145.13,78.26a1.85,1.85,0,0,0,1.29.39A1.8,1.8,0,0,0,148,76.8a1.93,1.93,0,0,0-.55-1.23,1.72,1.72,0,0,1,.66,1.23,1.77,1.77,0,0,1-1.72,2A1.68,1.68,0,0,1,145.13,78.26Z"/><path class="cls-3" d="M142.77,81a2,2,0,0,0,1.29.39,1.82,1.82,0,0,0,1.62-1.85,2,2,0,0,0-.55-1.24,1.74,1.74,0,0,1,.66,1.23,1.78,1.78,0,0,1-1.72,2A1.72,1.72,0,0,1,142.77,81Z"/><path class="cls-3" d="M140.41,83.65a1.9,1.9,0,0,0,1.29.39,1.82,1.82,0,0,0,1.62-1.85,1.93,1.93,0,0,0-.55-1.23,1.7,1.7,0,0,1,.66,1.22,1.78,1.78,0,0,1-1.72,2A1.68,1.68,0,0,1,140.41,83.65Z"/><path class="cls-3" d="M138.05,86.35a1.89,1.89,0,0,0,1.29.38,1.7,1.7,0,0,0,1.17-.6,1.72,1.72,0,0,0,.45-1.24,2,2,0,0,0-.55-1.24,1.72,1.72,0,0,1,.66,1.23,1.77,1.77,0,0,1-1.72,2A1.71,1.71,0,0,1,138.05,86.35Z"/></g><path class="cls-2" d="M160.36,97.54a3.3,3.3,0,0,1-2.22-1.49S156.48,99.29,160.36,97.54Z"/><g class="cls-8"><ellipse class="cls-6" cx="158.93" cy="96.49" rx="0.76" ry="1.34" transform="translate(-24.46 127.1) rotate(-40.74)"/></g></svg>