<svg id="_2" data-name="2" xmlns="http://www.w3.org/2000/svg" xmlns:xlink="http://www.w3.org/1999/xlink" viewBox="0 0 260 168"><defs><style>.cls-1{fill:red;}.cls-2{fill:#fff;}.cls-3{fill:#870000;}.cls-4{fill:#ff8585;}.cls-5{clip-path:url(#clip-path);}.cls-6{fill:#7f2828;stroke:#7f2828;stroke-miterlimit:10;stroke-width:0.24px;}.cls-7{clip-path:url(#clip-path-2);}.cls-8{clip-path:url(#clip-path-3);}</style><clipPath id="clip-path"><path class="cls-1" d="M148.15,44.49s-16.41-17-32.35-3.73-2.06,32.87,3.52,39.69-2.88,4.19-7.48,13.35c0,0,4.33-2.24,8.48-1.57s35,.1,37.43-17.81S148.15,44.49,148.15,44.49Z"/></clipPath><clipPath id="clip-path-2"><circle class="cls-2" cx="124.82" cy="49.1" r="7.88"/></clipPath><clipPath id="clip-path-3"><ellipse class="cls-3" cx="110.79" cy="53.97" rx="2.01" ry="1.66" transform="translate(52.28 162.43) rotate(-87.63)"/></clipPath></defs><path class="cls-4" d="M144.27,80.2a10.27,10.27,0,0,1,.59-14.46c4.14-3.84,8.08-6.58,14.4.55s3.49,18,3.06,18.43S148.08,84.34,144.27,80.2Z"/><path class="cls-4" d="M127.6,80.23a10.27,10.27,0,0,0,3-14.16c-3.07-4.74-6.21-8.36-14.1-3s-7.82,16.6-7.5,17.1S122.88,83.31,127.6,80.23Z"/><path class="cls-4" d="M120,98.52c3,3.76,4.88,9.49.17,17.41,0,0-11.09-1.64-11.3-14.32a15.11,15.11,0,0,1-17,4.45s.85-12.12,13.33-13.47A16.62,16.62,0,0,1,120,98.52Z"/><path class="cls-1" d="M148.15,44.49s-16.41-17-32.35-3.73-2.06,32.87,3.52,39.69-2.88,4.19-7.48,13.35c0,0,4.33-2.24,8.48-1.57s35,.1,37.43-17.81S148.15,44.49,148.15,44.49Z"/><g class="cls-5"><path class="cls-4" d="M149,60.63a5.49,5.49,0,0,1,.5-4.4,5.88,5.88,0,0,1,3.61-2.72,5.82,5.82,0,0,1,4.46.75A5.44,5.44,0,0,1,160,57.94a5.89,5.89,0,0,0-2.66-3.34,5.51,5.51,0,0,0-4.12-.57,5.57,5.57,0,0,0-3.4,2.41A5.93,5.93,0,0,0,149,60.63Z"/><path class="cls-4" d="M138,63.31a5.51,5.51,0,0,1,.5-4.39,5.75,5.75,0,0,1,8.08-2A5.53,5.53,0,0,1,149,60.63a5.91,5.91,0,0,0-2.67-3.34,5.61,5.61,0,0,0-7.51,1.84A5.9,5.9,0,0,0,138,63.31Z"/><path class="cls-4" d="M127,66a5.5,5.5,0,0,1,.51-4.4,5.88,5.88,0,0,1,3.61-2.72,5.82,5.82,0,0,1,4.46.75A5.48,5.48,0,0,1,138,63.31,5.84,5.84,0,0,0,135.32,60a5.46,5.46,0,0,0-4.12-.58,5.57,5.57,0,0,0-3.4,2.41A6,6,0,0,0,127,66Z"/><path class="cls-4" d="M115.93,68.68a5.51,5.51,0,0,1,.5-4.39,5.74,5.74,0,0,1,8.07-2A5.48,5.48,0,0,1,127,66a5.89,5.89,0,0,0-2.66-3.34,5.61,5.61,0,0,0-7.51,1.84A5.85,5.85,0,0,0,115.93,68.68Z"/><path class="cls-4" d="M104.9,71.37a5.54,5.54,0,0,1,.5-4.4,5.76,5.76,0,0,1,8.08-2,5.5,5.5,0,0,1,2.45,3.68,5.84,5.84,0,0,0-2.66-3.33,5.63,5.63,0,0,0-7.52,1.83A5.94,5.94,0,0,0,104.9,71.37Z"/><path class="cls-4" d="M152.19,70.6a5.48,5.48,0,0,1,.78-4.35,5.73,5.73,0,0,1,8.18-1.45,5.44,5.44,0,0,1,2.21,3.83,5.86,5.86,0,0,0-2.44-3.5,5.63,5.63,0,0,0-7.62,1.35A5.92,5.92,0,0,0,152.19,70.6Z"/><path class="cls-4" d="M141,72.57a5.52,5.52,0,0,1,.78-4.35A5.74,5.74,0,0,1,150,66.77a5.48,5.48,0,0,1,2.21,3.83,5.86,5.86,0,0,0-2.45-3.5,5.62,5.62,0,0,0-7.61,1.35A5.87,5.87,0,0,0,141,72.57Z"/><path class="cls-4" d="M129.83,74.54a5.52,5.52,0,0,1,.79-4.35,5.73,5.73,0,0,1,8.18-1.45A5.48,5.48,0,0,1,141,72.57a5.92,5.92,0,0,0-2.44-3.5A5.63,5.63,0,0,0,131,70.42,5.92,5.92,0,0,0,129.83,74.54Z"/><path class="cls-4" d="M118.66,76.51a5.52,5.52,0,0,1,.78-4.35,5.74,5.74,0,0,1,8.19-1.45,5.47,5.47,0,0,1,2.2,3.83,5.88,5.88,0,0,0-2.44-3.5,5.49,5.49,0,0,0-4.07-.84,5.57,5.57,0,0,0-3.55,2.19A5.92,5.92,0,0,0,118.66,76.51Z"/><path class="cls-4" d="M107.48,78.48a5.48,5.48,0,0,1,.79-4.35,5.73,5.73,0,0,1,8.18-1.45,5.48,5.48,0,0,1,2.21,3.83,5.92,5.92,0,0,0-2.44-3.5,5.63,5.63,0,0,0-7.62,1.35A5.92,5.92,0,0,0,107.48,78.48Z"/><path class="cls-4" d="M153.57,79.36a5.52,5.52,0,0,1,1.1-4.29,5.75,5.75,0,0,1,8.27-.84,5.49,5.49,0,0,1,1.92,4,5.92,5.92,0,0,0-2.18-3.68,5.61,5.61,0,0,0-7.69.79A5.89,5.89,0,0,0,153.57,79.36Z"/><path class="cls-4" d="M142.28,80.5a5.52,5.52,0,0,1,1.1-4.29,5.85,5.85,0,0,1,4-2.19,5.78,5.78,0,0,1,4.32,1.35,5.49,5.49,0,0,1,1.92,4,5.92,5.92,0,0,0-2.18-3.68,5.63,5.63,0,0,0-7.7.79A5.93,5.93,0,0,0,142.28,80.5Z"/><path class="cls-4" d="M131,81.64a5.52,5.52,0,0,1,1.1-4.29,5.74,5.74,0,0,1,8.27-.84,5.49,5.49,0,0,1,1.92,4,5.92,5.92,0,0,0-2.18-3.68,5.63,5.63,0,0,0-7.7.79A5.93,5.93,0,0,0,131,81.64Z"/><path class="cls-4" d="M119.7,82.77a5.5,5.5,0,0,1,1.1-4.28,5.74,5.74,0,0,1,8.27-.84,5.49,5.49,0,0,1,1.92,4A5.92,5.92,0,0,0,128.81,78a5.63,5.63,0,0,0-7.7.79A5.92,5.92,0,0,0,119.7,82.77Z"/><path class="cls-4" d="M108.41,83.91a5.5,5.5,0,0,1,1.1-4.28,5.74,5.74,0,0,1,8.27-.84,5.48,5.48,0,0,1,1.92,4,5.92,5.92,0,0,0-2.18-3.67,5.63,5.63,0,0,0-7.7.79A5.92,5.92,0,0,0,108.41,83.91Z"/><path class="cls-4" d="M154.79,91.55a5.51,5.51,0,0,1,2.15-3.87A5.76,5.76,0,0,1,165.16,89a5.51,5.51,0,0,1,.86,4.34,5.89,5.89,0,0,0-1.19-4.1,5.52,5.52,0,0,0-3.59-2.11,5.62,5.62,0,0,0-4.07.93A5.91,5.91,0,0,0,154.79,91.55Z"/><path class="cls-4" d="M143.56,89.81a5.51,5.51,0,0,1,2.15-3.87,5.76,5.76,0,0,1,8.22,1.27,5.52,5.52,0,0,1,.86,4.34,5.89,5.89,0,0,0-1.19-4.1A5.56,5.56,0,0,0,150,85.34a5.62,5.62,0,0,0-4.07.93A5.91,5.91,0,0,0,143.56,89.81Z"/><path class="cls-4" d="M132.33,88.07a5.51,5.51,0,0,1,2.15-3.87,5.76,5.76,0,0,1,8.22,1.27,5.53,5.53,0,0,1,.86,4.34,5.89,5.89,0,0,0-1.19-4.1,5.56,5.56,0,0,0-3.59-2.11,5.62,5.62,0,0,0-4.07.93A5.91,5.91,0,0,0,132.33,88.07Z"/><path class="cls-4" d="M121.1,86.34a5.47,5.47,0,0,1,2.15-3.87,5.75,5.75,0,0,1,8.22,1.26,5.53,5.53,0,0,1,.86,4.34,5.89,5.89,0,0,0-1.19-4.1,5.56,5.56,0,0,0-3.59-2.11,5.62,5.62,0,0,0-4.07.93A5.9,5.9,0,0,0,121.1,86.34Z"/><path class="cls-4" d="M109.87,84.6A5.49,5.49,0,0,1,112,80.73,5.75,5.75,0,0,1,120.24,82a5.54,5.54,0,0,1,.86,4.35,5.9,5.9,0,0,0-1.19-4.11,5.65,5.65,0,0,0-7.66-1.18A5.93,5.93,0,0,0,109.87,84.6Z"/><path class="cls-4" d="M131.86,102.67a5.55,5.55,0,0,1,3.87-2.15A5.72,5.72,0,0,1,142,106a5.46,5.46,0,0,1-1.59,4.12,5.82,5.82,0,0,0,1.18-4.09,5.6,5.6,0,0,0-5.85-5A6,6,0,0,0,131.86,102.67Z"/><path class="cls-4" d="M123.29,95.26a5.55,5.55,0,0,1,3.87-2.15,5.71,5.71,0,0,1,6.28,5.43,5.45,5.45,0,0,1-1.58,4.13,5.86,5.86,0,0,0,1.18-4.1,5.6,5.6,0,0,0-5.85-5A6,6,0,0,0,123.29,95.26Z"/><path class="cls-4" d="M114.72,87.85a5.53,5.53,0,0,1,3.87-2.15,5.72,5.72,0,0,1,6.28,5.43,5.45,5.45,0,0,1-1.58,4.13,6,6,0,0,0,1.18-4.1,5.62,5.62,0,0,0-5.85-5A5.92,5.92,0,0,0,114.72,87.85Z"/><path class="cls-4" d="M106.15,80.44A5.53,5.53,0,0,1,110,78.29a5.74,5.74,0,0,1,6.28,5.43,5.45,5.45,0,0,1-1.58,4.13,6,6,0,0,0,1.18-4.1,5.62,5.62,0,0,0-5.85-5A5.92,5.92,0,0,0,106.15,80.44Z"/><path class="cls-4" d="M97.58,73a5.53,5.53,0,0,1,3.86-2.15,5.74,5.74,0,0,1,6.29,5.43,5.53,5.53,0,0,1-1.58,4.13,5.9,5.9,0,0,0,1.17-4.1,5.48,5.48,0,0,0-1.91-3.69,5.54,5.54,0,0,0-3.94-1.36A5.91,5.91,0,0,0,97.58,73Z"/></g><path class="cls-6" d="M132,45.61s2.11.75,3.11-.88a3.31,3.31,0,0,1-2.45,2.72Z"/><path class="cls-6" d="M132.5,47.32s2,1.63,3.73.23c0,0-1.26,2.42-3.72,2Z"/><circle class="cls-2" cx="124.82" cy="49.1" r="7.88"/><g class="cls-7"><circle cx="121.58" cy="48.17" r="5.68"/><circle class="cls-2" cx="124.04" cy="46.58" r="1.61"/></g><ellipse class="cls-3" cx="110.79" cy="53.97" rx="2.01" ry="1.66" transform="translate(52.28 162.43) rotate(-87.63)"/><g class="cls-8"><path class="cls-2" d="M109.78,51.58a2.5,2.5,0,0,0,3.31,1.48l.17-1.8L109.45,50Z"/></g></svg>