<svg xmlns="http://www.w3.org/2000/svg" xmlns:xlink="http://www.w3.org/1999/xlink" viewBox="0 0 260 168"><defs><style>.cls-1{fill:none;}.cls-2{fill:red;}.cls-3{fill:#fff;}.cls-4{fill:#870000;}.cls-5{clip-path:url(#clip-path);}.cls-6{fill:#ff8585;}.cls-7{clip-path:url(#clip-path-2);}.cls-8{fill:#7f2828;stroke:#7f2828;stroke-miterlimit:10;stroke-width:0.24px;}.cls-9{clip-path:url(#clip-path-3);}.cls-10{clip-path:url(#clip-path-4);}</style><clipPath id="clip-path"><path class="cls-1" d="M195.45,131.25c0,1.22-13.57,2.21-30.32,2.21s-30.31-1-30.31-2.21c0-.14-10.69,13.2-10.42,11.44.83-5.4-24.18-28.52-19.24-44,8.22-25.86,48.79-46.6,58.11-46.37C205,53.33,195.45,130,195.45,131.25Z"/></clipPath><clipPath id="clip-path-2"><path class="cls-2" d="M191.94,102.32s-1.57-23.55-22.29-23.73-22.8,23.76-22.94,32.58-4.91,1.34-14.33,5.36c0,0,4.75,1.08,7.49,4.28s26.69,22.7,40.08,10.56S191.94,102.32,191.94,102.32Z"/></clipPath><clipPath id="clip-path-3"><circle class="cls-3" cx="171.16" cy="90.78" r="7.88" transform="translate(-11.06 156.6) rotate(-47.8)"/></clipPath><clipPath id="clip-path-4"><ellipse class="cls-4" cx="157.29" cy="85.44" rx="2.01" ry="1.66" transform="translate(-12.05 143.43) rotate(-47.41)"/></clipPath></defs><g id="_4" data-name="4"><g class="cls-5"><path class="cls-6" d="M165.93,127.08a10.25,10.25,0,0,1,9.78-10.66c5.64-.26,10.41.19,10.64,9.72s-9,16-9.56,16S166.16,132.71,165.93,127.08Z"/><path class="cls-6" d="M153.17,116.34a10.26,10.26,0,0,0,11.43-8.88c.71-5.6.65-10.39-8.83-11.4s-16.69,7.63-16.76,8.22S147.58,115.65,153.17,116.34Z"/><path class="cls-6" d="M135.54,125.38c-.11,4.83-2.4,10.4-11.11,13.41,0,0-7.41-8.41.62-18.23A15.12,15.12,0,0,1,109.22,113s8.48-8.71,18.87-1.68A16.6,16.6,0,0,1,135.54,125.38Z"/><path class="cls-2" d="M191.94,102.32s-1.57-23.55-22.29-23.73-22.8,23.76-22.94,32.58-4.91,1.34-14.33,5.36c0,0,4.75,1.08,7.49,4.28s26.69,22.7,40.08,10.56S191.94,102.32,191.94,102.32Z"/><g class="cls-7"><path class="cls-6" d="M182.18,115.19a5.53,5.53,0,0,1,3.22-3,5.87,5.87,0,0,1,4.52.26,5.8,5.8,0,0,1,2.92,3.45,5.43,5.43,0,0,1-.51,4.39,5.89,5.89,0,0,0,.12-4.27,5.63,5.63,0,0,0-6.92-3.45A5.94,5.94,0,0,0,182.18,115.19Z"/><path class="cls-6" d="M172,110.12a5.55,5.55,0,0,1,3.23-3,5.74,5.74,0,0,1,7.44,3.71,5.51,5.51,0,0,1-.51,4.39,5.86,5.86,0,0,0,.12-4.26,5.61,5.61,0,0,0-6.93-3.45A6,6,0,0,0,172,110.12Z"/><path class="cls-6" d="M161.87,105.06a5.52,5.52,0,0,1,3.22-3,5.73,5.73,0,0,1,7.44,3.71,5.42,5.42,0,0,1-.51,4.39,5.86,5.86,0,0,0,.13-4.26,5.64,5.64,0,0,0-6.93-3.45A5.93,5.93,0,0,0,161.87,105.06Z"/><path class="cls-6" d="M151.72,100a5.47,5.47,0,0,1,3.22-3,5.73,5.73,0,0,1,7.44,3.7,5.49,5.49,0,0,1-.51,4.4,5.89,5.89,0,0,0,.12-4.27,5.63,5.63,0,0,0-6.92-3.45A5.9,5.9,0,0,0,151.72,100Z"/><path class="cls-6" d="M141.56,94.92a5.52,5.52,0,0,1,3.23-3,5.73,5.73,0,0,1,7.43,3.7,5.48,5.48,0,0,1-.5,4.4,5.89,5.89,0,0,0,.12-4.27,5.64,5.64,0,0,0-6.93-3.45A6,6,0,0,0,141.56,94.92Z"/><path class="cls-6" d="M178.17,124.86a5.54,5.54,0,0,1,3.41-2.82,5.73,5.73,0,0,1,7.18,4.18,5.44,5.44,0,0,1-.79,4.35,5.88,5.88,0,0,0,.4-4.25,5.64,5.64,0,0,0-6.69-3.89A5.94,5.94,0,0,0,178.17,124.86Z"/><path class="cls-6" d="M168.36,119.15a5.56,5.56,0,0,1,3.41-2.82,5.74,5.74,0,0,1,7.19,4.18,5.49,5.49,0,0,1-.79,4.35,5.87,5.87,0,0,0,.39-4.25,5.5,5.5,0,0,0-2.57-3.27,5.58,5.58,0,0,0-4.12-.62A6,6,0,0,0,168.36,119.15Z"/><path class="cls-6" d="M158.55,113.44a5.56,5.56,0,0,1,3.41-2.82,5.74,5.74,0,0,1,7.19,4.18,5.45,5.45,0,0,1-.79,4.35,5.88,5.88,0,0,0,.4-4.25,5.64,5.64,0,0,0-6.69-3.89A5.94,5.94,0,0,0,158.55,113.44Z"/><path class="cls-6" d="M148.75,107.73a5.54,5.54,0,0,1,3.41-2.82,5.73,5.73,0,0,1,7.18,4.18,5.45,5.45,0,0,1-.79,4.35,5.88,5.88,0,0,0,.4-4.25,5.64,5.64,0,0,0-6.69-3.89A5.89,5.89,0,0,0,148.75,107.73Z"/><path class="cls-6" d="M138.94,102a5.56,5.56,0,0,1,3.41-2.82,5.74,5.74,0,0,1,7.19,4.18,5.49,5.49,0,0,1-.79,4.35,5.87,5.87,0,0,0,.39-4.25,5.5,5.5,0,0,0-2.57-3.27,5.58,5.58,0,0,0-4.12-.62A5.89,5.89,0,0,0,138.94,102Z"/><path class="cls-6" d="M173.57,132.44a5.53,5.53,0,0,1,3.61-2.56,5.74,5.74,0,0,1,6.86,4.7,5.52,5.52,0,0,1-1.11,4.28,6,6,0,0,0,.71-4.21,5.64,5.64,0,0,0-6.39-4.37A5.93,5.93,0,0,0,173.57,132.44Z"/><path class="cls-6" d="M164.21,126a5.56,5.56,0,0,1,3.61-2.56,5.87,5.87,0,0,1,4.44.88,5.81,5.81,0,0,1,2.42,3.82,5.48,5.48,0,0,1-1.11,4.28,5.85,5.85,0,0,0,.71-4.21,5.64,5.64,0,0,0-6.38-4.37A6,6,0,0,0,164.21,126Z"/><path class="cls-6" d="M154.85,119.6a5.58,5.58,0,0,1,3.61-2.56,5.87,5.87,0,0,1,4.44.88,5.81,5.81,0,0,1,2.42,3.82,5.44,5.44,0,0,1-1.11,4.28,5.84,5.84,0,0,0,.71-4.21,5.64,5.64,0,0,0-6.38-4.37A6,6,0,0,0,154.85,119.6Z"/><path class="cls-6" d="M145.5,113.18a5.53,5.53,0,0,1,3.61-2.56,5.85,5.85,0,0,1,4.43.88,5.77,5.77,0,0,1,2.42,3.82,5.44,5.44,0,0,1-1.11,4.28,5.84,5.84,0,0,0,.71-4.21,5.48,5.48,0,0,0-2.32-3.45,5.54,5.54,0,0,0-4.06-.92A5.93,5.93,0,0,0,145.5,113.18Z"/><path class="cls-6" d="M136.14,106.76a5.49,5.49,0,0,1,3.61-2.55,5.73,5.73,0,0,1,6.86,4.69,5.52,5.52,0,0,1-1.11,4.28,6,6,0,0,0,.71-4.21,5.64,5.64,0,0,0-6.39-4.37A5.93,5.93,0,0,0,136.14,106.76Z"/><path class="cls-6" d="M166.63,142.54a5.54,5.54,0,0,1,4.14-1.57,5.76,5.76,0,0,1,5.46,6.28,5.46,5.46,0,0,1-2.15,3.87,5.82,5.82,0,0,0,1.74-3.9,5.64,5.64,0,0,0-5.08-5.84A5.9,5.9,0,0,0,166.63,142.54Z"/><path class="cls-6" d="M159.17,134a5.51,5.51,0,0,1,4.14-1.56,5.74,5.74,0,0,1,5.46,6.27,5.48,5.48,0,0,1-2.14,3.87,5.87,5.87,0,0,0,1.74-3.9,5.64,5.64,0,0,0-5.08-5.84A5.94,5.94,0,0,0,159.17,134Z"/><path class="cls-6" d="M151.72,125.39a5.47,5.47,0,0,1,4.14-1.57,5.75,5.75,0,0,1,5.46,6.27,5.44,5.44,0,0,1-2.15,3.87,5.88,5.88,0,0,0,1.75-3.9,5.64,5.64,0,0,0-5.09-5.84A5.86,5.86,0,0,0,151.72,125.39Z"/><path class="cls-6" d="M144.27,116.81a5.47,5.47,0,0,1,4.14-1.57,5.76,5.76,0,0,1,5.46,6.28,5.48,5.48,0,0,1-2.15,3.87,5.87,5.87,0,0,0,1.74-3.9,5.66,5.66,0,0,0-5.08-5.85A5.91,5.91,0,0,0,144.27,116.81Z"/><path class="cls-6" d="M136.81,108.23a5.56,5.56,0,0,1,4.14-1.57,5.74,5.74,0,0,1,5.46,6.28,5.5,5.5,0,0,1-2.14,3.87,5.89,5.89,0,0,0,1.74-3.9,5.64,5.64,0,0,0-5.08-5.84A5.94,5.94,0,0,0,136.81,108.23Z"/><path class="cls-6" d="M142,136.23a5.5,5.5,0,0,1,4.33.86,5.73,5.73,0,0,1,1.3,8.2,5.49,5.49,0,0,1-3.87,2.13,5.89,5.89,0,0,0,3.54-2.37,5.6,5.6,0,0,0-1.21-7.63A5.91,5.91,0,0,0,142,136.23Z"/><path class="cls-6" d="M140.18,125a5.51,5.51,0,0,1,4.34.86,5.73,5.73,0,0,1,1.3,8.2,5.49,5.49,0,0,1-3.87,2.13,5.89,5.89,0,0,0,3.54-2.37,5.49,5.49,0,0,0,.92-4.06,5.56,5.56,0,0,0-2.13-3.58A5.87,5.87,0,0,0,140.18,125Z"/><path class="cls-6" d="M138.42,113.84a5.56,5.56,0,0,1,4.34.86,5.85,5.85,0,0,1,2.41,3.83,5.77,5.77,0,0,1-1.11,4.37,5.52,5.52,0,0,1-3.88,2.14,5.93,5.93,0,0,0,3.55-2.38,5.61,5.61,0,0,0-1.21-7.63A5.93,5.93,0,0,0,138.42,113.84Z"/><path class="cls-6" d="M136.66,102.65a5.52,5.52,0,0,1,4.34.86,5.86,5.86,0,0,1,2.41,3.82,5.8,5.8,0,0,1-1.11,4.38,5.51,5.51,0,0,1-3.88,2.13,5.87,5.87,0,0,0,3.55-2.37,5.61,5.61,0,0,0-1.21-7.63A5.94,5.94,0,0,0,136.66,102.65Z"/><path class="cls-6" d="M134.9,91.46a5.53,5.53,0,0,1,4.34.86,5.71,5.71,0,0,1,1.29,8.2,5.47,5.47,0,0,1-3.87,2.13,5.92,5.92,0,0,0,3.55-2.37A5.6,5.6,0,0,0,139,92.65,6,6,0,0,0,134.9,91.46Z"/></g><path class="cls-8" d="M178.85,92.71s1.13,1.94,2.94,1.34a3.32,3.32,0,0,1-3.63.5Z"/><path class="cls-8" d="M178.17,94.37s.48,2.55,2.7,2.59c0,0-2.53,1-4.16-.85Z"/><circle class="cls-3" cx="171.16" cy="90.78" r="7.88" transform="translate(-11.06 156.6) rotate(-47.8)"/><g class="cls-9"><circle cx="169.28" cy="87.97" r="5.68" transform="translate(-9.6 154.29) rotate(-47.8)"/><circle class="cls-3" cx="172.18" cy="88.35" r="1.61" transform="translate(-8.92 156.56) rotate(-47.8)"/></g><ellipse class="cls-4" cx="157.29" cy="85.44" rx="2.01" ry="1.66" transform="translate(-12.05 143.43) rotate(-47.41)"/><g class="cls-10"><path class="cls-3" d="M158.07,83a2.5,2.5,0,0,0,1.56,3.27l1.3-1.27-2.07-3.44Z"/></g></g></g></svg>