<svg id="_5" data-name="5" xmlns="http://www.w3.org/2000/svg" xmlns:xlink="http://www.w3.org/1999/xlink" viewBox="0 0 260 168"><defs><style>.cls-1{fill:none;}.cls-2{fill:#870000;}.cls-3{fill:#ff8585;}.cls-4{fill:red;}.cls-5{fill:#7f2828;stroke:#7f2828;stroke-miterlimit:10;stroke-width:0.07px;}.cls-6{fill:#fff;}.cls-7{clip-path:url(#clip-path);}.cls-8{clip-path:url(#clip-path-2);}</style><clipPath id="clip-path"><ellipse class="cls-1" cx="168.71" cy="129.21" rx="7.43" ry="13" transform="translate(26.48 287.1) rotate(-85.43)"/></clipPath><clipPath id="clip-path-2"><path class="cls-2" d="M179.17,133.15a3.38,3.38,0,0,1-2.67-.15S176.73,136.63,179.17,133.15Z"/></clipPath></defs><path class="cls-3" d="M155.47,125.43c-.71-1.35-2.14-2.6-5-2.23a4.38,4.38,0,0,0,2.74,5.06,4.78,4.78,0,0,0-3.41,4.36,4.69,4.69,0,0,0,5.57-2.18A5.22,5.22,0,0,0,155.47,125.43Z"/><path class="cls-3" d="M164.93,131.63a3.23,3.23,0,0,1,4.55.38c1.15,1.36,2,2.63-.37,4.54a6.29,6.29,0,0,1-5.85.72C163.13,137.13,163.57,132.78,164.93,131.63Z"/><path class="cls-3" d="M165.36,125a3.24,3.24,0,0,0,4.56.35c1.35-1.16,2.35-2.3.34-4.55s-5.52-1.76-5.66-1.64S164.2,123.61,165.36,125Z"/><ellipse class="cls-4" cx="168.71" cy="129.21" rx="7.43" ry="13" transform="translate(26.48 287.1) rotate(-85.43)"/><path class="cls-5" d="M176.6,127.58s-.71,0-.81-.62a1,1,0,0,0,.4,1.08Z"/><path class="cls-5" d="M176.24,128s-.79.23-1.12-.38a1.21,1.21,0,0,0,.84,1Z"/><ellipse class="cls-6" cx="178.27" cy="129.44" rx="2.48" ry="2.49" transform="translate(13.1 275.24) rotate(-77.42)"/><circle cx="178.27" cy="129.44" r="1.79" transform="translate(13.11 275.24) rotate(-77.42)"/><circle class="cls-6" cx="177.74" cy="128.69" r="0.51" transform="translate(13.43 274.13) rotate(-77.42)"/><g class="cls-7"><path class="cls-3" d="M172.3,123.72a1.89,1.89,0,0,0,1.27-.46,1.82,1.82,0,0,0,.19-2.45,1.92,1.92,0,0,0-1.18-.66,1.68,1.68,0,0,1,1.26.59,1.83,1.83,0,0,1,.47,1.34,1.9,1.9,0,0,1-.67,1.26A1.69,1.69,0,0,1,172.3,123.72Z"/><path class="cls-3" d="M172,127.29a1.89,1.89,0,0,0,1.27-.46,1.82,1.82,0,0,0,.19-2.45,1.92,1.92,0,0,0-1.18-.66,1.68,1.68,0,0,1,1.26.59,1.84,1.84,0,0,1,.47,1.35,1.9,1.9,0,0,1-.67,1.25A1.69,1.69,0,0,1,172,127.29Z"/><path class="cls-3" d="M171.73,130.86a1.87,1.87,0,0,0,1.27-.46,1.68,1.68,0,0,0,.58-1.19,1.71,1.71,0,0,0-.38-1.26,2,2,0,0,0-1.18-.66,1.69,1.69,0,0,1,1.26.59,1.88,1.88,0,0,1,.47,1.35,1.84,1.84,0,0,1-.68,1.25A1.68,1.68,0,0,1,171.73,130.86Z"/><path class="cls-3" d="M171.45,134.43a1.87,1.87,0,0,0,1.27-.46,1.8,1.8,0,0,0,.19-2.45,1.9,1.9,0,0,0-1.18-.66,1.73,1.73,0,0,1,1.27.59,1.84,1.84,0,0,1,.46,1.35,1.79,1.79,0,0,1-.67,1.25A1.68,1.68,0,0,1,171.45,134.43Z"/><path class="cls-3" d="M171.17,138a1.87,1.87,0,0,0,1.27-.46,1.8,1.8,0,0,0,.19-2.45,1.9,1.9,0,0,0-1.18-.66,1.75,1.75,0,0,1,1.27.59,1.89,1.89,0,0,1,.46,1.35,1.79,1.79,0,0,1-.67,1.25A1.65,1.65,0,0,1,171.17,138Z"/><path class="cls-3" d="M169.16,123.47a1.87,1.87,0,0,0,1.27-.46,1.68,1.68,0,0,0,.58-1.19,1.71,1.71,0,0,0-.38-1.26,2,2,0,0,0-1.18-.66,1.69,1.69,0,0,1,1.26.59,1.76,1.76,0,0,1-.21,2.6A1.68,1.68,0,0,1,169.16,123.47Z"/><path class="cls-3" d="M168.88,127a1.87,1.87,0,0,0,1.27-.46,1.8,1.8,0,0,0,.19-2.45,1.9,1.9,0,0,0-1.18-.66,1.7,1.7,0,0,1,1.27.59,1.83,1.83,0,0,1,.46,1.35,1.79,1.79,0,0,1-.67,1.25A1.68,1.68,0,0,1,168.88,127Z"/><path class="cls-3" d="M168.6,130.61a1.87,1.87,0,0,0,1.27-.46,1.8,1.8,0,0,0,.19-2.45,1.9,1.9,0,0,0-1.18-.66,1.75,1.75,0,0,1,1.27.59,1.89,1.89,0,0,1,.46,1.35,1.79,1.79,0,0,1-.67,1.25A1.65,1.65,0,0,1,168.6,130.61Z"/><path class="cls-3" d="M168.32,134.18a1.89,1.89,0,0,0,1.27-.46,1.82,1.82,0,0,0,.19-2.45,1.92,1.92,0,0,0-1.18-.66,1.71,1.71,0,0,1,1.26.59,1.85,1.85,0,0,1,.47,1.35,1.83,1.83,0,0,1-.67,1.25A1.66,1.66,0,0,1,168.32,134.18Z"/><path class="cls-3" d="M168,137.75a1.89,1.89,0,0,0,1.27-.46,1.82,1.82,0,0,0,.19-2.45,1.92,1.92,0,0,0-1.18-.66,1.71,1.71,0,0,1,1.26.59,1.85,1.85,0,0,1,.47,1.35,1.87,1.87,0,0,1-.67,1.25A1.66,1.66,0,0,1,168,137.75Z"/><path class="cls-3" d="M166,123.22a1.87,1.87,0,0,0,1.27-.46,1.8,1.8,0,0,0,.19-2.45,1.9,1.9,0,0,0-1.18-.66,1.71,1.71,0,0,1,1.27.59,1.87,1.87,0,0,1,.46,1.35,1.79,1.79,0,0,1-.67,1.25A1.68,1.68,0,0,1,166,123.22Z"/><path class="cls-3" d="M165.75,126.79a1.89,1.89,0,0,0,1.27-.46,1.82,1.82,0,0,0,.19-2.45,1.92,1.92,0,0,0-1.18-.66,1.71,1.71,0,0,1,1.26.59,1.85,1.85,0,0,1,.47,1.35,1.83,1.83,0,0,1-.67,1.25A1.66,1.66,0,0,1,165.75,126.79Z"/><path class="cls-3" d="M165.47,130.36a1.89,1.89,0,0,0,1.27-.46,1.82,1.82,0,0,0,.19-2.45,1.92,1.92,0,0,0-1.18-.66,1.71,1.71,0,0,1,1.26.59,1.85,1.85,0,0,1,.47,1.35,1.87,1.87,0,0,1-.67,1.25A1.66,1.66,0,0,1,165.47,130.36Z"/><path class="cls-3" d="M165.18,133.93a1.87,1.87,0,0,0,1.27-.46,1.68,1.68,0,0,0,.58-1.19,1.71,1.71,0,0,0-.38-1.26,2,2,0,0,0-1.18-.66,1.73,1.73,0,0,1,1.26.59,1.89,1.89,0,0,1,.47,1.35,1.84,1.84,0,0,1-.68,1.25A1.65,1.65,0,0,1,165.18,133.93Z"/><path class="cls-3" d="M164.9,137.5a1.87,1.87,0,0,0,1.27-.46,1.8,1.8,0,0,0,.19-2.45,1.94,1.94,0,0,0-1.18-.66,1.73,1.73,0,0,1,1.27.59,1.8,1.8,0,0,1-.21,2.61A1.68,1.68,0,0,1,164.9,137.5Z"/><path class="cls-3" d="M162.9,123a1.89,1.89,0,0,0,1.27-.46,1.82,1.82,0,0,0,.19-2.45,1.92,1.92,0,0,0-1.18-.66,1.71,1.71,0,0,1,1.26.59,1.85,1.85,0,0,1,.47,1.35,1.87,1.87,0,0,1-.67,1.25A1.66,1.66,0,0,1,162.9,123Z"/><path class="cls-3" d="M162.61,126.54a1.87,1.87,0,0,0,1.27-.46,1.68,1.68,0,0,0,.58-1.19,1.71,1.71,0,0,0-.38-1.26,2,2,0,0,0-1.18-.66,1.73,1.73,0,0,1,1.26.59,1.89,1.89,0,0,1,.47,1.35,1.87,1.87,0,0,1-.67,1.25A1.68,1.68,0,0,1,162.61,126.54Z"/><path class="cls-3" d="M162.33,130.11a1.87,1.87,0,0,0,1.27-.46,1.76,1.76,0,0,0,.58-1.19,1.72,1.72,0,0,0-.39-1.26,1.9,1.9,0,0,0-1.18-.66,1.73,1.73,0,0,1,1.27.59,1.84,1.84,0,0,1,.46,1.35,1.79,1.79,0,0,1-.67,1.25A1.65,1.65,0,0,1,162.33,130.11Z"/><path class="cls-3" d="M162.05,133.69a1.93,1.93,0,0,0,1.27-.47,1.79,1.79,0,0,0,.19-2.45,1.94,1.94,0,0,0-1.18-.66,1.75,1.75,0,0,1,1.27.59,1.89,1.89,0,0,1,.46,1.35,1.84,1.84,0,0,1-.67,1.26A1.72,1.72,0,0,1,162.05,133.69Z"/><path class="cls-3" d="M161.77,137.26a2,2,0,0,0,1.27-.47,1.71,1.71,0,0,0,.57-1.18,1.73,1.73,0,0,0-.38-1.27,1.91,1.91,0,0,0-1.18-.65,1.67,1.67,0,0,1,1.26.58,1.85,1.85,0,0,1,.47,1.35,1.88,1.88,0,0,1-.67,1.26A1.73,1.73,0,0,1,161.77,137.26Z"/><path class="cls-3" d="M159.76,122.72a1.87,1.87,0,0,0,1.27-.46,1.76,1.76,0,0,0,.58-1.19,1.72,1.72,0,0,0-.39-1.26,1.9,1.9,0,0,0-1.18-.66,1.73,1.73,0,0,1,1.27.59,1.84,1.84,0,0,1,.46,1.35,1.79,1.79,0,0,1-.67,1.25A1.65,1.65,0,0,1,159.76,122.72Z"/><path class="cls-3" d="M159.48,126.29a1.87,1.87,0,0,0,1.27-.46,1.8,1.8,0,0,0,.19-2.45,1.94,1.94,0,0,0-1.18-.66,1.75,1.75,0,0,1,1.27.59,1.89,1.89,0,0,1,.46,1.35,1.79,1.79,0,0,1-.67,1.25A1.65,1.65,0,0,1,159.48,126.29Z"/><path class="cls-3" d="M159.2,129.87a2,2,0,0,0,1.27-.47,1.82,1.82,0,0,0,.19-2.45,1.94,1.94,0,0,0-1.18-.66,1.71,1.71,0,0,1,1.26.59,1.85,1.85,0,0,1,.47,1.35,1.88,1.88,0,0,1-.67,1.26A1.73,1.73,0,0,1,159.2,129.87Z"/><path class="cls-3" d="M158.92,133.44a2,2,0,0,0,1.27-.47,1.71,1.71,0,0,0,.57-1.18,1.73,1.73,0,0,0-.38-1.27,1.91,1.91,0,0,0-1.18-.65,1.67,1.67,0,0,1,1.26.58,1.85,1.85,0,0,1,.47,1.35,1.92,1.92,0,0,1-.67,1.26A1.73,1.73,0,0,1,158.92,133.44Z"/><path class="cls-3" d="M158.63,137a1.93,1.93,0,0,0,1.27-.47,1.68,1.68,0,0,0,.58-1.18,1.73,1.73,0,0,0-.38-1.27,1.94,1.94,0,0,0-1.18-.65,1.68,1.68,0,0,1,1.26.58,1.89,1.89,0,0,1,.47,1.35,1.92,1.92,0,0,1-.67,1.26A1.75,1.75,0,0,1,158.63,137Z"/><path class="cls-3" d="M156.63,122.47a1.89,1.89,0,0,0,1.27-.46,1.82,1.82,0,0,0,.19-2.45,1.94,1.94,0,0,0-1.18-.66,1.71,1.71,0,0,1,1.26.59,1.85,1.85,0,0,1,.47,1.35,1.83,1.83,0,0,1-.67,1.25A1.66,1.66,0,0,1,156.63,122.47Z"/><path class="cls-3" d="M156.35,126.05a2,2,0,0,0,1.27-.47,1.82,1.82,0,0,0,.19-2.45,2,2,0,0,0-1.18-.66,1.71,1.71,0,0,1,1.26.59,1.85,1.85,0,0,1,.47,1.35,1.92,1.92,0,0,1-.67,1.26A1.73,1.73,0,0,1,156.35,126.05Z"/><path class="cls-3" d="M156.06,129.62a1.93,1.93,0,0,0,1.27-.47,1.68,1.68,0,0,0,.58-1.18,1.73,1.73,0,0,0-.38-1.27,1.94,1.94,0,0,0-1.18-.65,1.68,1.68,0,0,1,1.26.58,1.89,1.89,0,0,1,.47,1.35,1.92,1.92,0,0,1-.67,1.26A1.75,1.75,0,0,1,156.06,129.62Z"/><path class="cls-3" d="M155.78,133.19a1.93,1.93,0,0,0,1.27-.47,1.76,1.76,0,0,0,.58-1.18,1.74,1.74,0,0,0-.39-1.27,1.88,1.88,0,0,0-1.18-.65,1.69,1.69,0,0,1,1.27.58,1.8,1.8,0,0,1-.21,2.61A1.72,1.72,0,0,1,155.78,133.19Z"/><path class="cls-3" d="M155.5,136.76a1.93,1.93,0,0,0,1.27-.47,1.78,1.78,0,0,0,.19-2.44,1.9,1.9,0,0,0-1.18-.66,1.7,1.7,0,0,1,1.27.58,1.89,1.89,0,0,1,.46,1.35,1.84,1.84,0,0,1-.67,1.26A1.72,1.72,0,0,1,155.5,136.76Z"/></g><path class="cls-2" d="M179.17,133.15a3.38,3.38,0,0,1-2.67-.15S176.73,136.63,179.17,133.15Z"/><g class="cls-8"><ellipse class="cls-6" cx="177.4" cy="132.97" rx="0.76" ry="1.34" transform="translate(-5.11 258.83) rotate(-71.44)"/></g></svg>