<svg id="_3" data-name="3" xmlns="http://www.w3.org/2000/svg" xmlns:xlink="http://www.w3.org/1999/xlink" viewBox="0 0 260 168"><defs><style>.cls-1{fill:#fff;}.cls-2{fill:none;}.cls-3{fill:#773055;}.cls-4{fill:#c10606;}.cls-5{fill:#ff8585;}.cls-6{fill:red;}.cls-7{fill:#7f2828;stroke:#7f2828;stroke-miterlimit:10;stroke-width:0.08px;}.cls-8{clip-path:url(#clip-path);}.cls-9{clip-path:url(#clip-path-2);}.cls-10{clip-path:url(#clip-path-3);}.cls-11{fill:#cddb6a;}.cls-12{fill:#ffecb8;}.cls-13{fill:#aa3779;}</style><clipPath id="clip-path"><circle class="cls-1" cx="143.46" cy="76.68" r="2.52" transform="translate(50.86 210.42) rotate(-83.43)"/></clipPath><clipPath id="clip-path-2"><path class="cls-2" d="M148.39,76.62c1.58,3.17.12,7.68-2.48,12.44-3.5,6.39-12.56,8.17-13,8s-3.79-8.81-.3-15.2,7.73-10.81,13-8a7.05,7.05,0,0,1,1.49,1"/></clipPath><clipPath id="clip-path-3"><path class="cls-3" d="M148,76.77a3.46,3.46,0,0,0,2.65-.44c1.47-.74,2.44-1.8,1.79-3.24h0a3.49,3.49,0,0,0-3-2c-2.29-.2-2.42-1.48-2.42-1.48a.29.29,0,0,0-.37.22,18.76,18.76,0,0,1,.29,2.19,4.79,4.79,0,0,0-.35,3,.45.45,0,0,1,.53.33s.58.13.38.6c0,0,.44.21.18.45,0,0,.17.18,0,.33Z"/></clipPath></defs><path class="cls-4" d="M146.88,74.83a2.34,2.34,0,0,0,1.32,1.52l-.31.89s-1.06-.28-1.08-.53a8.05,8.05,0,0,0-.37-1.14Z"/><path class="cls-5" d="M130.29,96.12c-1.55.1-3.3.91-4.15,3.73a4.45,4.45,0,0,0,5.83-.43,4.86,4.86,0,0,0,2.62,5,4.74,4.74,0,0,0,.29-6.06A5.32,5.32,0,0,0,130.29,96.12Z"/><path class="cls-5" d="M140,90a3.28,3.28,0,0,1,2.24-4.06c1.73-.5,3.25-.72,4.05,2.23s-1.57,5.67-1.75,5.72S140.47,91.68,140,90Z"/><path class="cls-5" d="M134,86.77a3.28,3.28,0,0,0,2.21-4.08c-.51-1.73-1.15-3.13-4.07-2.21s-3.92,4.38-3.87,4.57S132.22,87.28,134,86.77Z"/><path class="cls-6" d="M148.16,76.19c1.94,3.19.47,7.89-2.25,12.87-3.5,6.39-12.56,8.17-13,8s-3.79-8.81-.3-15.2,7.73-10.81,13-8a8.18,8.18,0,0,1,1.35.92,2,2,0,0,0,.51,1.91C148.06,77.16,148.16,76.19,148.16,76.19Z"/><path class="cls-7" d="M141,77.45s-.32.64-.91.49a1.06,1.06,0,0,0,1.17.08Z"/><path class="cls-7" d="M141.29,78s-.1.82-.81.88a1.24,1.24,0,0,0,1.32-.35Z"/><circle class="cls-1" cx="143.46" cy="76.68" r="2.52" transform="translate(50.86 210.42) rotate(-83.43)"/><g class="cls-8"><circle cx="144.39" cy="76.44" r="1.82" transform="translate(51.93 211.13) rotate(-83.43)"/><circle class="cls-1" cx="143.47" cy="76.61" r="0.52"/></g><g class="cls-9"><path class="cls-5" d="M135.68,79.83a2,2,0,0,0,.1-1.37,1.85,1.85,0,0,0-2.19-1.2,2,2,0,0,0-1.11.82,1.75,1.75,0,0,1,1.07-.92,1.88,1.88,0,0,1,1.45.13,1.84,1.84,0,0,1,.88,1.14A1.72,1.72,0,0,1,135.68,79.83Z"/><path class="cls-5" d="M138.87,81.58a2,2,0,0,0,.1-1.37,1.84,1.84,0,0,0-2.19-1.2,2,2,0,0,0-1.1.82,1.74,1.74,0,0,1,1.07-.93,1.81,1.81,0,0,1,2.33,1.28A1.73,1.73,0,0,1,138.87,81.58Z"/><path class="cls-5" d="M142.07,83.32a1.91,1.91,0,0,0,.09-1.37A1.84,1.84,0,0,0,140,80.76a1.9,1.9,0,0,0-1.11.82,1.74,1.74,0,0,1,1.07-.93,1.81,1.81,0,0,1,2.33,1.27A1.71,1.71,0,0,1,142.07,83.32Z"/><path class="cls-5" d="M145.26,85.07a2,2,0,0,0,.1-1.37,1.84,1.84,0,0,0-2.19-1.2,2,2,0,0,0-1.1.82,1.72,1.72,0,0,1,1.07-.92,1.85,1.85,0,0,1,1.44.13,1.89,1.89,0,0,1,.89,1.14A1.76,1.76,0,0,1,145.26,85.07Z"/><path class="cls-5" d="M148.46,86.82a1.92,1.92,0,0,0,.09-1.37,1.7,1.7,0,0,0-.86-1,1.76,1.76,0,0,0-1.33-.17,2,2,0,0,0-1.1.82,1.74,1.74,0,0,1,1.07-.93,1.81,1.81,0,0,1,2.33,1.28A1.72,1.72,0,0,1,148.46,86.82Z"/><path class="cls-5" d="M134.15,82.63a2,2,0,0,0,.1-1.37,1.77,1.77,0,0,0-.87-1,1.74,1.74,0,0,0-1.32-.17,2,2,0,0,0-1.11.82A1.77,1.77,0,0,1,132,80a1.93,1.93,0,0,1,1.45.13,1.88,1.88,0,0,1,.88,1.15A1.72,1.72,0,0,1,134.15,82.63Z"/><path class="cls-5" d="M137.34,84.38a2,2,0,0,0,.1-1.37,1.84,1.84,0,0,0-2.19-1.2,2,2,0,0,0-1.1.82,1.74,1.74,0,0,1,1.07-.93,1.9,1.9,0,0,1,1.44.13,1.94,1.94,0,0,1,.89,1.14A1.74,1.74,0,0,1,137.34,84.38Z"/><path class="cls-5" d="M140.54,86.12a1.91,1.91,0,0,0,.09-1.37,1.84,1.84,0,0,0-2.18-1.19,1.9,1.9,0,0,0-1.11.82,1.74,1.74,0,0,1,1.07-.93,1.81,1.81,0,0,1,2.33,1.27A1.72,1.72,0,0,1,140.54,86.12Z"/><path class="cls-5" d="M143.73,87.87a2,2,0,0,0,.1-1.37,1.79,1.79,0,0,0-.86-1,1.76,1.76,0,0,0-1.33-.17,2,2,0,0,0-1.1.82,1.74,1.74,0,0,1,1.07-.93,1.9,1.9,0,0,1,1.44.13,1.94,1.94,0,0,1,.89,1.15A1.76,1.76,0,0,1,143.73,87.87Z"/><path class="cls-5" d="M146.93,89.62a1.92,1.92,0,0,0,.09-1.37,1.7,1.7,0,0,0-.86-1,1.76,1.76,0,0,0-1.33-.17,2,2,0,0,0-1.1.82,1.74,1.74,0,0,1,1.07-.93,1.82,1.82,0,0,1,2.33,1.27A1.74,1.74,0,0,1,146.93,89.62Z"/><path class="cls-5" d="M132.62,85.43a1.92,1.92,0,0,0,.09-1.37,1.83,1.83,0,0,0-2.18-1.2,2,2,0,0,0-1.11.82,1.74,1.74,0,0,1,1.07-.93,1.93,1.93,0,0,1,1.45.13,1.88,1.88,0,0,1,.88,1.15A1.72,1.72,0,0,1,132.62,85.43Z"/><path class="cls-5" d="M135.81,87.17a2,2,0,0,0,.1-1.37,1.77,1.77,0,0,0-.86-1,1.72,1.72,0,0,0-1.33-.17,1.91,1.91,0,0,0-1.1.82,1.74,1.74,0,0,1,1.07-.93,1.9,1.9,0,0,1,1.44.13,1.94,1.94,0,0,1,.89,1.14A1.72,1.72,0,0,1,135.81,87.17Z"/><path class="cls-5" d="M139,88.92a1.91,1.91,0,0,0,.09-1.37,1.72,1.72,0,0,0-.86-1,1.8,1.8,0,0,0-1.33-.17,2,2,0,0,0-1.1.82,1.75,1.75,0,0,1,1.07-.92,1.82,1.82,0,0,1,2.33,1.27A1.72,1.72,0,0,1,139,88.92Z"/><path class="cls-5" d="M142.2,90.67a2,2,0,0,0,.1-1.37,1.79,1.79,0,0,0-.86-1,1.76,1.76,0,0,0-1.33-.17,2,2,0,0,0-1.1.82,1.71,1.71,0,0,1,1.07-.93,1.9,1.9,0,0,1,1.44.13,1.94,1.94,0,0,1,.89,1.15A1.77,1.77,0,0,1,142.2,90.67Z"/><path class="cls-5" d="M145.4,92.41a1.91,1.91,0,0,0,.09-1.37,1.84,1.84,0,0,0-2.19-1.19,1.91,1.91,0,0,0-1.1.82,1.74,1.74,0,0,1,1.07-.93A1.82,1.82,0,0,1,145.6,91,1.71,1.71,0,0,1,145.4,92.41Z"/><path class="cls-5" d="M131.09,88.23a1.92,1.92,0,0,0,.09-1.37,1.7,1.7,0,0,0-.86-1,1.74,1.74,0,0,0-1.32-.17,1.94,1.94,0,0,0-1.11.82,1.74,1.74,0,0,1,1.07-.93,1.93,1.93,0,0,1,1.45.13,1.89,1.89,0,0,1,.88,1.14A1.74,1.74,0,0,1,131.09,88.23Z"/><path class="cls-5" d="M134.28,90a2,2,0,0,0,.1-1.37,1.74,1.74,0,0,0-.86-1,1.72,1.72,0,0,0-1.33-.17,1.91,1.91,0,0,0-1.1.82,1.71,1.71,0,0,1,1.07-.93,1.85,1.85,0,0,1,1.44.13,1.92,1.92,0,0,1,.89,1.14A1.72,1.72,0,0,1,134.28,90Z"/><path class="cls-5" d="M137.48,91.72a1.91,1.91,0,0,0,.09-1.37,1.72,1.72,0,0,0-.86-1,1.76,1.76,0,0,0-1.33-.17,2,2,0,0,0-1.1.82,1.77,1.77,0,0,1,1.07-.93,2,2,0,0,1,1.44.13,1.9,1.9,0,0,1,.89,1.15A1.72,1.72,0,0,1,137.48,91.72Z"/><path class="cls-5" d="M140.67,93.47a2,2,0,0,0,.1-1.37,1.84,1.84,0,0,0-2.19-1.2,2,2,0,0,0-1.1.82,1.71,1.71,0,0,1,1.07-.93,1.9,1.9,0,0,1,1.44.13,1.94,1.94,0,0,1,.89,1.14A1.78,1.78,0,0,1,140.67,93.47Z"/><path class="cls-5" d="M143.87,95.21a1.91,1.91,0,0,0,.09-1.37,1.68,1.68,0,0,0-.86-1,1.71,1.71,0,0,0-1.33-.17,1.91,1.91,0,0,0-1.1.82,1.74,1.74,0,0,1,1.07-.93,1.85,1.85,0,0,1,1.44.13,1.88,1.88,0,0,1,.89,1.14A1.71,1.71,0,0,1,143.87,95.21Z"/><path class="cls-5" d="M129.56,91a1.91,1.91,0,0,0,.09-1.37,1.84,1.84,0,0,0-2.18-1.19,1.9,1.9,0,0,0-1.11.82,1.74,1.74,0,0,1,1.07-.93,1.93,1.93,0,0,1,1.45.13,1.89,1.89,0,0,1,.88,1.14A1.71,1.71,0,0,1,129.56,91Z"/><path class="cls-5" d="M132.75,92.77a2,2,0,0,0,.1-1.37,1.84,1.84,0,0,0-2.19-1.2,2,2,0,0,0-1.1.82,1.72,1.72,0,0,1,1.07-.92,1.85,1.85,0,0,1,1.44.13,1.89,1.89,0,0,1,.89,1.14A1.76,1.76,0,0,1,132.75,92.77Z"/><path class="cls-5" d="M136,94.52a1.92,1.92,0,0,0,.09-1.37,1.72,1.72,0,0,0-.86-1,1.76,1.76,0,0,0-1.33-.17,2,2,0,0,0-1.1.82,1.74,1.74,0,0,1,1.07-.93,1.81,1.81,0,0,1,2.33,1.28A1.72,1.72,0,0,1,136,94.52Z"/><path class="cls-5" d="M139.14,96.26a2,2,0,0,0,.1-1.37,1.77,1.77,0,0,0-.86-1,1.72,1.72,0,0,0-1.33-.17,1.91,1.91,0,0,0-1.1.82,1.71,1.71,0,0,1,1.07-.93,1.9,1.9,0,0,1,1.44.13,1.94,1.94,0,0,1,.89,1.14A1.75,1.75,0,0,1,139.14,96.26Z"/><path class="cls-5" d="M142.34,98a1.91,1.91,0,0,0,.09-1.37,1.72,1.72,0,0,0-.86-1,1.8,1.8,0,0,0-1.33-.17,2,2,0,0,0-1.1.82,1.75,1.75,0,0,1,1.07-.92,1.82,1.82,0,0,1,2.33,1.27A1.72,1.72,0,0,1,142.34,98Z"/><path class="cls-5" d="M128,93.82a1.91,1.91,0,0,0,.09-1.37,1.84,1.84,0,0,0-2.18-1.19,1.9,1.9,0,0,0-1.11.82,1.74,1.74,0,0,1,1.07-.93,1.88,1.88,0,0,1,1.45.13,1.86,1.86,0,0,1,.88,1.14A1.71,1.71,0,0,1,128,93.82Z"/><path class="cls-5" d="M131.22,95.57a2,2,0,0,0,.1-1.37,1.84,1.84,0,0,0-2.19-1.2,2,2,0,0,0-1.1.82,1.74,1.74,0,0,1,1.07-.93,1.81,1.81,0,0,1,2.33,1.28A1.76,1.76,0,0,1,131.22,95.57Z"/><path class="cls-5" d="M134.42,97.32a1.92,1.92,0,0,0,.09-1.37,1.7,1.7,0,0,0-.86-1,1.76,1.76,0,0,0-1.33-.17,2,2,0,0,0-1.1.82,1.74,1.74,0,0,1,1.07-.93,1.82,1.82,0,0,1,2.33,1.27A1.74,1.74,0,0,1,134.42,97.32Z"/><path class="cls-5" d="M137.61,99.06a2,2,0,0,0,.1-1.37,1.74,1.74,0,0,0-.86-1,1.72,1.72,0,0,0-1.33-.17,1.91,1.91,0,0,0-1.1.82,1.71,1.71,0,0,1,1.07-.93,1.85,1.85,0,0,1,1.44.13,1.92,1.92,0,0,1,.89,1.14A1.75,1.75,0,0,1,137.61,99.06Z"/><path class="cls-5" d="M140.81,100.81a1.91,1.91,0,0,0,.09-1.37,1.72,1.72,0,0,0-.86-1,1.8,1.8,0,0,0-1.33-.17,2,2,0,0,0-1.1.82,1.77,1.77,0,0,1,1.07-.93,2,2,0,0,1,1.44.13,1.9,1.9,0,0,1,.89,1.15A1.72,1.72,0,0,1,140.81,100.81Z"/></g><path class="cls-3" d="M148,76.77a3.46,3.46,0,0,0,2.65-.44c1.47-.74,2.44-1.8,1.79-3.24h0a3.49,3.49,0,0,0-3-2c-2.29-.2-2.42-1.48-2.42-1.48a.29.29,0,0,0-.37.22,18.76,18.76,0,0,1,.29,2.19,4.79,4.79,0,0,0-.35,3,.45.45,0,0,1,.53.33s.58.13.38.6c0,0,.44.21.18.45,0,0,.17.18,0,.33Z"/><g class="cls-10"><path class="cls-11" d="M147.13,71.89a.5.5,0,0,1-.26.08.68.68,0,0,1-.44-.23,2.24,2.24,0,0,1-.42-.45,1.88,1.88,0,0,1-.23-.9,2,2,0,0,1,.19-1.22,1.13,1.13,0,0,1,.77-.52,1.15,1.15,0,0,1,.91.24,2.22,2.22,0,0,1,.59,1.62A1.8,1.8,0,0,1,147.13,71.89Z"/><path class="cls-2" d="M147.24,75.82l.07.1.13.18a.64.64,0,0,1,.13.29.59.59,0,0,0,0,.13.19.19,0,0,0,.23.09.44.44,0,0,0,.22-.16.92.92,0,0,0,.27-.5.87.87,0,0,0-.33-.67c-.23-.21-.91-.76-1.22-.43a.26.26,0,0,0,.05.39A3.63,3.63,0,0,1,147.24,75.82Z"/><path class="cls-12" d="M137.42,85.11h0"/></g><ellipse class="cls-13" cx="150.41" cy="72.15" rx="0.43" ry="0.52" transform="translate(7.25 157.79) rotate(-56.51)"/><ellipse class="cls-13" cx="149.41" cy="71.89" rx="0.18" ry="0.21" transform="translate(7.02 156.84) rotate(-56.51)"/><path class="cls-13" d="M147.66,72a4.34,4.34,0,0,0,.6,2.89S146.61,74.07,147.66,72Z"/><path class="cls-3" d="M146.56,75a3.7,3.7,0,0,0,1.11,1.71s.85-.19.8-.28l-.73-1.31s-.57-.59-.61-.65S146.56,75,146.56,75Z"/></svg>