<svg id="_2" data-name="2" xmlns="http://www.w3.org/2000/svg" xmlns:xlink="http://www.w3.org/1999/xlink" viewBox="0 0 260 168"><defs><style>.cls-1{fill:none;}.cls-2{fill:#fff;}.cls-3{clip-path:url(#clip-path);}.cls-4{fill:#ff8585;}.cls-5{fill:red;}.cls-6{fill:#7f2828;stroke:#7f2828;stroke-miterlimit:10;stroke-width:0.09px;}.cls-7{clip-path:url(#clip-path-2);}.cls-8{clip-path:url(#clip-path-3);}</style><clipPath id="clip-path"><path class="cls-1" d="M122.83,150.21s.16.85,12.59.85,10.63-1.21,10.63-1.21l12.38-31.74-35.14-5.47Z"/></clipPath><clipPath id="clip-path-2"><circle class="cls-2" cx="131.75" cy="155.84" r="2.96" transform="translate(-65.65 207.56) rotate(-64.47)"/></clipPath><clipPath id="clip-path-3"><ellipse class="cls-1" cx="135.56" cy="145.12" rx="15.47" ry="8.86" transform="translate(-41.94 234.16) rotate(-73.59)"/></clipPath></defs><g class="cls-3"><path class="cls-4" d="M137,128.79c-1.2-1.36-2-3.48-.33-6.52a5.21,5.21,0,0,1,4.46,5.19,5.68,5.68,0,0,1,6.3-1.93,5.56,5.56,0,0,1-4.79,5.26A6.25,6.25,0,0,1,137,128.79Z"/><path class="cls-4" d="M139.87,141.94a3.85,3.85,0,0,0-1.52,5.22c1,1.86,2.1,3.3,5.22,1.52s3.41-6,3.3-6.19S141.73,140.92,139.87,141.94Z"/><path class="cls-4" d="M132.26,139.59a3.85,3.85,0,0,1-1.55,5.21c-1.87,1-3.56,1.63-5.21-1.55s.39-6.89.58-7S131.25,137.72,132.26,139.59Z"/><ellipse class="cls-5" cx="135.56" cy="145.12" rx="15.47" ry="8.86" transform="translate(-41.94 234.16) rotate(-73.59)"/><path class="cls-6" d="M130.39,153.19s.27-.8-.35-1.16a1.24,1.24,0,0,1,1,.9Z"/><path class="cls-6" d="M131,153a1.16,1.16,0,0,0,.06-1.4,1.42,1.42,0,0,1,.79,1.38Z"/><circle class="cls-2" cx="131.75" cy="155.84" r="2.96" transform="translate(-65.65 207.56) rotate(-64.47)"/><g class="cls-7"><circle cx="130.73" cy="156.8" r="2.14" transform="translate(-67.11 207.19) rotate(-64.47)"/><circle class="cls-2" cx="130.12" cy="155.89" r="0.6"/></g><g class="cls-8"><path class="cls-4" d="M127.93,146.77a2.05,2.05,0,0,1-1,1.33,2.14,2.14,0,0,1-3-.88,2,2,0,0,1-.11-1.66,2.14,2.14,0,0,0,4.1,1.21Z"/><path class="cls-4" d="M132,148a2.06,2.06,0,0,1-1,1.34,2.16,2.16,0,0,1-3-.88,2.05,2.05,0,0,1-.1-1.66A2.13,2.13,0,0,0,132,148Z"/><path class="cls-4" d="M136.12,149.18a2.1,2.1,0,0,1-1,1.34,2.21,2.21,0,0,1-1.69.2,2.19,2.19,0,0,1-1.31-1.09A2.09,2.09,0,0,1,132,148a2.14,2.14,0,0,0,4.1,1.21Z"/><path class="cls-4" d="M140.21,150.39a2,2,0,0,1-1,1.33,2.17,2.17,0,0,1-1.69.21,2.24,2.24,0,0,1-1.31-1.09,2.09,2.09,0,0,1-.1-1.66,2.13,2.13,0,0,0,4.09,1.21Z"/><path class="cls-4" d="M144.31,151.59a2.06,2.06,0,0,1-1,1.34,2.21,2.21,0,0,1-1.69.2,2.17,2.17,0,0,1-1.31-1.08,2.1,2.1,0,0,1-.11-1.66,2.14,2.14,0,0,0,4.1,1.2Z"/><path class="cls-4" d="M129,143.18a2.06,2.06,0,0,1-1,1.34,2.16,2.16,0,0,1-3-.89,2,2,0,0,1-.1-1.66,2.13,2.13,0,0,0,4.09,1.21Z"/><path class="cls-4" d="M133.08,144.38a2.07,2.07,0,0,1-1,1.34,2.16,2.16,0,0,1-3-.88,2.1,2.1,0,0,1-.11-1.66,2.14,2.14,0,0,0,4.1,1.2Z"/><path class="cls-4" d="M137.17,145.59a2.06,2.06,0,0,1-1,1.34,2.16,2.16,0,0,1-3-.88,2.08,2.08,0,0,1-.11-1.67,2.13,2.13,0,0,0,4.09,1.21Z"/><path class="cls-4" d="M141.27,146.8a2.06,2.06,0,0,1-1,1.34,2.21,2.21,0,0,1-1.69.2,2.19,2.19,0,0,1-1.31-1.09,2.09,2.09,0,0,1-.11-1.66,2.18,2.18,0,0,0,1.48,2.56A2.15,2.15,0,0,0,141.27,146.8Z"/><path class="cls-4" d="M145.37,148a2.1,2.1,0,0,1-1,1.34,2.16,2.16,0,0,1-3-.88,2.1,2.1,0,0,1-.11-1.66,2.14,2.14,0,0,0,4.1,1.2Z"/><path class="cls-4" d="M130,139.59a2.1,2.1,0,0,1-1,1.34,2.16,2.16,0,0,1-3-.88,2.12,2.12,0,0,1-.11-1.67,2.14,2.14,0,0,0,4.1,1.21Z"/><path class="cls-4" d="M134.14,140.8a2.13,2.13,0,0,1-1,1.34,2.22,2.22,0,0,1-1.69.2,2.19,2.19,0,0,1-1.31-1.09,2,2,0,0,1-.11-1.66,2.14,2.14,0,0,0,4.1,1.21Z"/><path class="cls-4" d="M138.23,142a2.06,2.06,0,0,1-1,1.34,2.16,2.16,0,0,1-3-.88,2.05,2.05,0,0,1-.1-1.66,2.13,2.13,0,0,0,4.09,1.2Z"/><path class="cls-4" d="M142.33,143.21a2.1,2.1,0,0,1-1,1.34,2.21,2.21,0,0,1-1.69.2,2.19,2.19,0,0,1-1.31-1.09,2.09,2.09,0,0,1-.11-1.66,2.14,2.14,0,0,0,4.1,1.21Z"/><path class="cls-4" d="M146.42,144.42a2,2,0,0,1-1,1.33,2.17,2.17,0,0,1-1.69.21,2.24,2.24,0,0,1-1.31-1.09,2.09,2.09,0,0,1-.1-1.66,2.13,2.13,0,0,0,4.09,1.21Z"/><path class="cls-4" d="M131.1,136a2.1,2.1,0,0,1-1,1.34,2.21,2.21,0,0,1-1.69.2,2.17,2.17,0,0,1-1.31-1.08,2.05,2.05,0,0,1-.11-1.66,2.14,2.14,0,0,0,4.1,1.2Z"/><path class="cls-4" d="M135.19,137.21a2.06,2.06,0,0,1-1,1.34,2.16,2.16,0,0,1-3-.89,2,2,0,0,1-.1-1.66,2.13,2.13,0,0,0,4.09,1.21Z"/><path class="cls-4" d="M139.29,138.42a2.08,2.08,0,0,1-1,1.33,2.17,2.17,0,0,1-1.69.2,2.14,2.14,0,0,1-1.31-1.08,2.1,2.1,0,0,1-.11-1.66,2.14,2.14,0,0,0,4.1,1.21Z"/><path class="cls-4" d="M143.38,139.62a2.06,2.06,0,0,1-1,1.34,2.19,2.19,0,0,1-1.68.2,2.22,2.22,0,0,1-1.32-1.08,2.09,2.09,0,0,1-.1-1.66,2.13,2.13,0,0,0,4.09,1.2Z"/><path class="cls-4" d="M147.48,140.83a2.06,2.06,0,0,1-1,1.34,2.21,2.21,0,0,1-1.69.2,2.19,2.19,0,0,1-1.31-1.09,2.09,2.09,0,0,1-.11-1.66,2.14,2.14,0,0,0,4.1,1.21Z"/><path class="cls-4" d="M132.15,132.41a2.06,2.06,0,0,1-1,1.34,2.16,2.16,0,0,1-1.69.2,2.23,2.23,0,0,1-1.31-1.08,2.05,2.05,0,0,1-.1-1.66,2.13,2.13,0,0,0,4.09,1.2Z"/><path class="cls-4" d="M136.25,133.62a2.1,2.1,0,0,1-1,1.34,2.16,2.16,0,0,1-3-.88,2.12,2.12,0,0,1-.11-1.67,2.14,2.14,0,0,0,4.1,1.21Z"/><path class="cls-4" d="M140.35,134.83a2.13,2.13,0,0,1-1,1.34,2.22,2.22,0,0,1-1.69.2,2.19,2.19,0,0,1-1.31-1.09,2,2,0,0,1-.11-1.66,2.14,2.14,0,0,0,4.1,1.21Z"/><path class="cls-4" d="M144.44,136a2.06,2.06,0,0,1-1,1.34,2.16,2.16,0,0,1-3-.88,2.05,2.05,0,0,1-.1-1.66,2.13,2.13,0,0,0,4.09,1.2Z"/><path class="cls-4" d="M148.54,137.24a2.1,2.1,0,0,1-1,1.34,2.21,2.21,0,0,1-1.69.2,2.19,2.19,0,0,1-1.31-1.09,2.09,2.09,0,0,1-.11-1.66,2.14,2.14,0,0,0,4.1,1.21Z"/><path class="cls-4" d="M133.21,128.83a2,2,0,0,1-1,1.33,2.14,2.14,0,0,1-3-.88,2.09,2.09,0,0,1-.11-1.66,2.14,2.14,0,0,0,4.1,1.21Z"/><path class="cls-4" d="M137.31,130a2.1,2.1,0,0,1-1,1.34,2.21,2.21,0,0,1-1.69.2,2.17,2.17,0,0,1-1.31-1.08,2.05,2.05,0,0,1-.11-1.66,2.14,2.14,0,0,0,4.1,1.2Z"/><path class="cls-4" d="M141.4,131.24a2.06,2.06,0,0,1-1,1.34,2.21,2.21,0,0,1-1.69.2,2.19,2.19,0,0,1-1.31-1.09,2,2,0,0,1-.1-1.66,2.13,2.13,0,0,0,4.09,1.21Z"/><path class="cls-4" d="M145.5,132.45a2.08,2.08,0,0,1-1,1.33,2.21,2.21,0,0,1-1.69.21,2.19,2.19,0,0,1-1.31-1.09,2.09,2.09,0,0,1-.11-1.66,2.14,2.14,0,0,0,4.1,1.21Z"/><path class="cls-4" d="M149.59,133.65a2.06,2.06,0,0,1-1,1.34,2.19,2.19,0,0,1-1.68.2,2.22,2.22,0,0,1-1.32-1.08,2.09,2.09,0,0,1-.1-1.66,2.13,2.13,0,0,0,4.09,1.2Z"/></g></g></svg>