<svg id="_4" data-name="4" xmlns="http://www.w3.org/2000/svg" xmlns:xlink="http://www.w3.org/1999/xlink" viewBox="0 0 260 168"><defs><style>.cls-1{fill:red;}.cls-2{fill:#fff;}.cls-3{fill:#870000;}.cls-4{fill:#ff8585;}.cls-5{clip-path:url(#clip-path);}.cls-6{fill:#7f2828;stroke:#7f2828;stroke-miterlimit:10;stroke-width:0.24px;}.cls-7{clip-path:url(#clip-path-2);}.cls-8{clip-path:url(#clip-path-3);}</style><clipPath id="clip-path"><path class="cls-1" d="M140.93,93.77s-.76-23.59-21.46-24.49-23.6,23-24,31.77-5,1.17-14.5,4.87c0,0,4.71,1.24,7.33,4.53s25.89,23.6,39.69,11.94S140.93,93.77,140.93,93.77Z"/></clipPath><clipPath id="clip-path-2"><circle class="cls-2" cx="120.56" cy="81.51" r="7.88" transform="translate(-20.76 116.25) rotate(-47.87)"/></clipPath><clipPath id="clip-path-3"><ellipse class="cls-3" cx="106.89" cy="75.7" rx="2.01" ry="1.66" transform="translate(-22.05 98.73) rotate(-45.44)"/></clipPath></defs><path class="cls-4" d="M114.08,117.62a10.26,10.26,0,0,1,10.15-10.32c5.64-.06,10.4.55,10.3,10.09s-9.52,15.69-10.11,15.7S114.12,123.25,114.08,117.62Z"/><path class="cls-4" d="M101.7,106.45A10.28,10.28,0,0,0,113.43,98c.91-5.57,1-10.36-8.43-11.69s-16.94,7-17,7.63S96.14,105.56,101.7,106.45Z"/><path class="cls-4" d="M83.77,114.87c-.28,4.82-2.76,10.31-11.56,13,0,0-7.12-8.66,1.24-18.2a15.09,15.09,0,0,1-15.56-8.08s8.78-8.42,18.92-1A16.59,16.59,0,0,1,83.77,114.87Z"/><path class="cls-1" d="M140.93,93.77s-.76-23.59-21.46-24.49-23.6,23-24,31.77-5,1.17-14.5,4.87c0,0,4.71,1.24,7.33,4.53s25.89,23.6,39.69,11.94S140.93,93.77,140.93,93.77Z"/><g class="cls-5"><path class="cls-4" d="M130.73,106.3a5.52,5.52,0,0,1,3.33-2.92,5.72,5.72,0,0,1,7.3,4,5.44,5.44,0,0,1-.66,4.37,5.88,5.88,0,0,0,.27-4.26,5.6,5.6,0,0,0-6.8-3.68A5.89,5.89,0,0,0,130.73,106.3Z"/><path class="cls-4" d="M120.76,100.88A5.53,5.53,0,0,1,124.08,98a5.75,5.75,0,0,1,7.31,4,5.5,5.5,0,0,1-.66,4.38A5.89,5.89,0,0,0,131,102a5.63,5.63,0,0,0-6.8-3.69A5.9,5.9,0,0,0,120.76,100.88Z"/><path class="cls-4" d="M110.79,95.47a5.47,5.47,0,0,1,3.32-2.92,5.74,5.74,0,0,1,7.31,4,5.48,5.48,0,0,1-.66,4.37,5.88,5.88,0,0,0,.27-4.26,5.64,5.64,0,0,0-6.81-3.69A5.92,5.92,0,0,0,110.79,95.47Z"/><path class="cls-4" d="M100.81,90.05a5.55,5.55,0,0,1,3.33-2.92,5.88,5.88,0,0,1,4.5.41,5.81,5.81,0,0,1,2.8,3.55,5.5,5.5,0,0,1-.65,4.38,5.88,5.88,0,0,0,.26-4.26,5.5,5.5,0,0,0-2.66-3.2,5.57,5.57,0,0,0-4.14-.49A5.93,5.93,0,0,0,100.81,90.05Z"/><path class="cls-4" d="M90.84,84.63a5.51,5.51,0,0,1,3.32-2.91,5.73,5.73,0,0,1,7.31,4,5.44,5.44,0,0,1-.66,4.37,5.88,5.88,0,0,0,.27-4.26,5.62,5.62,0,0,0-6.8-3.69A6,6,0,0,0,90.84,84.63Z"/><path class="cls-4" d="M126.39,115.82a5.54,5.54,0,0,1,3.5-2.7,5.73,5.73,0,0,1,7,4.42,5.48,5.48,0,0,1-.94,4.33,5.89,5.89,0,0,0,.55-4.24,5.63,5.63,0,0,0-6.56-4.11A5.87,5.87,0,0,0,126.39,115.82Z"/><path class="cls-4" d="M116.79,109.78a5.47,5.47,0,0,1,3.5-2.7,5.73,5.73,0,0,1,7,4.42,5.45,5.45,0,0,1-.94,4.32,5.91,5.91,0,0,0,.54-4.23,5.48,5.48,0,0,0-2.45-3.36,5.56,5.56,0,0,0-4.1-.76A5.88,5.88,0,0,0,116.79,109.78Z"/><path class="cls-4" d="M107.18,103.73a5.5,5.5,0,0,1,3.51-2.7,5.73,5.73,0,0,1,7,4.42,5.51,5.51,0,0,1-.93,4.33,5.94,5.94,0,0,0,.54-4.24,5.63,5.63,0,0,0-6.55-4.11A5.92,5.92,0,0,0,107.18,103.73Z"/><path class="cls-4" d="M97.58,97.68a5.49,5.49,0,0,1,3.5-2.69,5.73,5.73,0,0,1,7,4.42,5.45,5.45,0,0,1-.94,4.32,5.81,5.81,0,0,0,.54-4.23,5.53,5.53,0,0,0-2.45-3.37,5.6,5.6,0,0,0-4.1-.75A5.91,5.91,0,0,0,97.58,97.68Z"/><path class="cls-4" d="M88,91.64a5.5,5.5,0,0,1,3.51-2.7,5.73,5.73,0,0,1,7,4.42,5.52,5.52,0,0,1-.94,4.32,5.91,5.91,0,0,0,.54-4.23,5.52,5.52,0,0,0-2.45-3.36,5.62,5.62,0,0,0-4.1-.76A6,6,0,0,0,88,91.64Z"/><path class="cls-4" d="M121.53,123.24a5.55,5.55,0,0,1,3.7-2.44,5.9,5.9,0,0,1,4.4,1,5.83,5.83,0,0,1,2.29,3.9,5.49,5.49,0,0,1-1.26,4.25,5.9,5.9,0,0,0,.86-4.19,5.52,5.52,0,0,0-2.2-3.53,5.61,5.61,0,0,0-4-1.06A5.94,5.94,0,0,0,121.53,123.24Z"/><path class="cls-4" d="M112.4,116.5a5.5,5.5,0,0,1,3.7-2.43,5.74,5.74,0,0,1,6.69,4.93,5.48,5.48,0,0,1-1.26,4.24,5.88,5.88,0,0,0,.86-4.18,5.62,5.62,0,0,0-6.23-4.59A5.88,5.88,0,0,0,112.4,116.5Z"/><path class="cls-4" d="M103.27,109.76a5.5,5.5,0,0,1,3.7-2.43,5.74,5.74,0,0,1,6.69,4.93,5.51,5.51,0,0,1-1.26,4.24,5.93,5.93,0,0,0,.86-4.18,5.62,5.62,0,0,0-6.23-4.59A5.92,5.92,0,0,0,103.27,109.76Z"/><path class="cls-4" d="M94.14,103a5.54,5.54,0,0,1,3.7-2.43,5.74,5.74,0,0,1,6.69,4.93,5.51,5.51,0,0,1-1.26,4.24,5.92,5.92,0,0,0,.86-4.18A5.62,5.62,0,0,0,97.9,101,5.92,5.92,0,0,0,94.14,103Z"/><path class="cls-4" d="M85,96.28a5.54,5.54,0,0,1,3.7-2.43,5.74,5.74,0,0,1,6.69,4.93A5.51,5.51,0,0,1,94.14,103,5.87,5.87,0,0,0,95,98.84a5.47,5.47,0,0,0-2.19-3.53,5.58,5.58,0,0,0-4-1.06A5.92,5.92,0,0,0,85,96.28Z"/><path class="cls-4" d="M114.25,133.09a5.52,5.52,0,0,1,4.19-1.42,5.75,5.75,0,0,1,5.24,6.46,5.5,5.5,0,0,1-2.28,3.79,5.84,5.84,0,0,0,1.87-3.83,5.64,5.64,0,0,0-4.88-6A5.88,5.88,0,0,0,114.25,133.09Z"/><path class="cls-4" d="M107.09,124.26a5.53,5.53,0,0,1,4.19-1.42,5.74,5.74,0,0,1,5.24,6.46,5.45,5.45,0,0,1-2.27,3.79,5.84,5.84,0,0,0,1.87-3.83,5.64,5.64,0,0,0-4.88-6A5.92,5.92,0,0,0,107.09,124.26Z"/><path class="cls-4" d="M99.94,115.43a5.53,5.53,0,0,1,4.19-1.42,5.75,5.75,0,0,1,5.24,6.46,5.43,5.43,0,0,1-2.28,3.79,5.85,5.85,0,0,0,1.88-3.83,5.66,5.66,0,0,0-4.88-6A5.9,5.9,0,0,0,99.94,115.43Z"/><path class="cls-4" d="M92.79,106.6A5.52,5.52,0,0,1,97,105.18a5.75,5.75,0,0,1,5.24,6.46,5.43,5.43,0,0,1-2.28,3.79,5.84,5.84,0,0,0,1.87-3.83,5.5,5.5,0,0,0-1.24-4,5.58,5.58,0,0,0-3.63-2A5.89,5.89,0,0,0,92.79,106.6Z"/><path class="cls-4" d="M85.63,97.77a5.54,5.54,0,0,1,4.2-1.42,5.75,5.75,0,0,1,5.24,6.46,5.5,5.5,0,0,1-2.28,3.79,5.84,5.84,0,0,0,1.87-3.84,5.53,5.53,0,0,0-1.24-4,5.6,5.6,0,0,0-3.64-2A5.92,5.92,0,0,0,85.63,97.77Z"/><path class="cls-4" d="M89.8,125.93a5.52,5.52,0,0,1,4.3,1,5.72,5.72,0,0,1,1,8.24,5.51,5.51,0,0,1-4,2,5.89,5.89,0,0,0,3.63-2.25,5.6,5.6,0,0,0-1-7.67A5.92,5.92,0,0,0,89.8,125.93Z"/><path class="cls-4" d="M88.42,114.68a5.54,5.54,0,0,1,4.31,1A5.83,5.83,0,0,1,95,119.6a5.77,5.77,0,0,1-1.26,4.33,5.49,5.49,0,0,1-3.94,2,5.86,5.86,0,0,0,3.62-2.25,5.48,5.48,0,0,0,1.06-4,5.58,5.58,0,0,0-2-3.65A5.93,5.93,0,0,0,88.42,114.68Z"/><path class="cls-4" d="M87.05,103.44a5.52,5.52,0,0,1,4.3,1,5.72,5.72,0,0,1,1,8.24,5.48,5.48,0,0,1-4,2,5.92,5.92,0,0,0,3.63-2.24,5.6,5.6,0,0,0,1.06-4,5.53,5.53,0,0,0-2-3.64A5.92,5.92,0,0,0,87.05,103.44Z"/><path class="cls-4" d="M85.67,92.19a5.54,5.54,0,0,1,4.31,1,5.71,5.71,0,0,1,1,8.24,5.49,5.49,0,0,1-3.94,2,5.86,5.86,0,0,0,3.62-2.25,5.48,5.48,0,0,0,1.06-4,5.56,5.56,0,0,0-2-3.65A5.93,5.93,0,0,0,85.67,92.19Z"/><path class="cls-4" d="M84.3,80.94a5.52,5.52,0,0,1,4.3,1,5.73,5.73,0,0,1,1,8.24,5.49,5.49,0,0,1-4,2,5.89,5.89,0,0,0,3.63-2.25,5.6,5.6,0,0,0-1-7.67A5.92,5.92,0,0,0,84.3,80.94Z"/></g><path class="cls-6" d="M128.18,83.72s1.06,2,2.9,1.43a3.32,3.32,0,0,1-3.65.37Z"/><path class="cls-6" d="M127.44,85.35s.39,2.56,2.61,2.68c0,0-2.56.94-4.13-1Z"/><circle class="cls-2" cx="120.56" cy="81.51" r="7.88" transform="translate(-20.76 116.25) rotate(-47.87)"/><g class="cls-7"><circle cx="118.78" cy="78.65" r="5.68" transform="translate(-19.22 113.99) rotate(-47.87)"/><circle class="cls-2" cx="121.67" cy="79.12" r="1.61" transform="translate(-18.63 116.29) rotate(-47.87)"/></g><ellipse class="cls-3" cx="106.89" cy="75.7" rx="2.01" ry="1.66" transform="translate(-22.05 98.73) rotate(-45.44)"/><g class="cls-8"><path class="cls-2" d="M107.75,73.25a2.49,2.49,0,0,0,1.45,3.32l1.34-1.22-2-3.52Z"/></g></svg>