<svg id="_3" data-name="3" xmlns="http://www.w3.org/2000/svg" xmlns:xlink="http://www.w3.org/1999/xlink" viewBox="0 0 260 168"><defs><style>.cls-1{fill:#fff;}.cls-2{fill:none;}.cls-3{fill:#ff8585;}.cls-4{fill:red;}.cls-5{fill:#7f2828;stroke:#7f2828;stroke-miterlimit:10;stroke-width:0.09px;}.cls-6{clip-path:url(#clip-path);}.cls-7{clip-path:url(#clip-path-2);}</style><clipPath id="clip-path"><circle class="cls-1" cx="140" cy="115.39" r="2.96" transform="translate(-35.86 70.82) rotate(-25.28)"/></clipPath><clipPath id="clip-path-2"><ellipse class="cls-2" cx="145.7" cy="125.24" rx="8.86" ry="15.47" transform="translate(-44.79 100.25) rotate(-33.21)"/></clipPath></defs><path class="cls-3" d="M157.21,136.9c1.82,0,3.94.75,5.19,4a5.22,5.22,0,0,1-6.85,0,5.67,5.67,0,0,1-2.61,6.05,5.56,5.56,0,0,1-.9-7.06A6.24,6.24,0,0,1,157.21,136.9Z"/><path class="cls-3" d="M145.33,130.58a3.84,3.84,0,0,0-3-4.54c-2.08-.43-3.88-.54-4.54,3s2.36,6.48,2.58,6.52S144.9,132.65,145.33,130.58Z"/><path class="cls-3" d="M152.06,126.3a3.85,3.85,0,0,1-3-4.56c.44-2.07,1.06-3.76,4.56-3s5,4.76,4.95,5S154.13,126.74,152.06,126.3Z"/><ellipse class="cls-4" cx="145.7" cy="125.24" rx="8.86" ry="15.47" transform="translate(-44.79 100.25) rotate(-33.21)"/><path class="cls-5" d="M142.91,116.07s.43.72,1.11.48a1.24,1.24,0,0,1-1.36.21Z"/><path class="cls-5" d="M142.66,116.7s.2,1,1,1a1.45,1.45,0,0,1-1.57-.29Z"/><circle class="cls-1" cx="140" cy="115.39" r="2.96" transform="translate(-35.86 70.82) rotate(-25.28)"/><g class="cls-6"><circle cx="139.04" cy="113.91" r="2.14" transform="translate(-35.32 70.27) rotate(-25.28)"/><circle class="cls-1" cx="140.13" cy="114.03" r="0.6"/></g><g class="cls-7"><path class="cls-3" d="M149.4,118.35a2.07,2.07,0,0,1-.38-1.62,2.15,2.15,0,0,1,2.61-1.71,2.09,2.09,0,0,1,1.34,1,2.14,2.14,0,0,0-3.57,2.34Z"/><path class="cls-3" d="M145.82,120.69a2.11,2.11,0,0,1-.38-1.62,2.22,2.22,0,0,1,.95-1.42,2.19,2.19,0,0,1,1.67-.3,2.1,2.1,0,0,1,1.34,1,2.14,2.14,0,0,0-3.58,2.34Z"/><path class="cls-3" d="M142.25,123a2.07,2.07,0,0,1-.38-1.62,2.19,2.19,0,0,1,.94-1.42,2.21,2.21,0,0,1,1.68-.3,2.06,2.06,0,0,1,1.33,1,2.14,2.14,0,0,0-3.57,2.34Z"/><path class="cls-3" d="M138.68,125.37a2.08,2.08,0,0,1-.38-1.63,2.15,2.15,0,0,1,.94-1.41,2.21,2.21,0,0,1,1.68-.3,2.08,2.08,0,0,1,1.33,1,2.14,2.14,0,0,0-3.57,2.34Z"/><path class="cls-3" d="M135.1,127.7a2.06,2.06,0,0,1-.37-1.62,2.16,2.16,0,0,1,2.61-1.71,2.1,2.1,0,0,1,1.34,1,2.14,2.14,0,0,0-3.58,2.33Z"/><path class="cls-3" d="M151.44,121.48a2.06,2.06,0,0,1-.37-1.62,2.15,2.15,0,0,1,2.61-1.71,2.09,2.09,0,0,1,1.34,1,2.14,2.14,0,0,0-3.58,2.34Z"/><path class="cls-3" d="M147.87,123.82a2.07,2.07,0,0,1-.38-1.62,2.19,2.19,0,0,1,.94-1.42,2.22,2.22,0,0,1,1.68-.3,2.06,2.06,0,0,1,1.33,1,2.14,2.14,0,0,0-3.57,2.34Z"/><path class="cls-3" d="M144.3,126.16a2.07,2.07,0,0,1-.38-1.62,2.19,2.19,0,0,1,.94-1.42,2.21,2.21,0,0,1,1.68-.3,2.08,2.08,0,0,1,1.33,1,2.14,2.14,0,0,0-3.57,2.34Z"/><path class="cls-3" d="M140.73,128.5a2.08,2.08,0,0,1-.38-1.63,2.15,2.15,0,0,1,.94-1.41,2.19,2.19,0,0,1,1.67-.3,2.1,2.1,0,0,1,1.34,1,2.14,2.14,0,0,0-3.57,2.34Z"/><path class="cls-3" d="M137.15,130.83a2.1,2.1,0,0,1-.38-1.62,2.2,2.2,0,0,1,.95-1.41,2.15,2.15,0,0,1,1.67-.3,2.1,2.1,0,0,1,1.34,1,2.14,2.14,0,0,0-3.58,2.33Z"/><path class="cls-3" d="M153.49,124.61a2.11,2.11,0,0,1-.38-1.62,2.21,2.21,0,0,1,.95-1.42,2.19,2.19,0,0,1,1.67-.29,2.09,2.09,0,0,1,1.34,1,2.14,2.14,0,0,0-3.58,2.34Z"/><path class="cls-3" d="M149.92,127a2.07,2.07,0,0,1-.38-1.62,2.19,2.19,0,0,1,.94-1.42,2.21,2.21,0,0,1,1.68-.3,2.08,2.08,0,0,1,1.33,1,2.14,2.14,0,0,0-3.57,2.34Z"/><path class="cls-3" d="M146.35,129.29a2.07,2.07,0,0,1-.38-1.62,2.15,2.15,0,0,1,.94-1.42,2.21,2.21,0,0,1,1.68-.3,2.08,2.08,0,0,1,1.33,1,2.14,2.14,0,0,0-3.57,2.34Z"/><path class="cls-3" d="M142.77,131.63a2.08,2.08,0,0,1-.37-1.63,2.16,2.16,0,0,1,2.61-1.71,2.1,2.1,0,0,1,1.34,1,2.14,2.14,0,0,0-3.58,2.34Z"/><path class="cls-3" d="M139.2,134a2.1,2.1,0,0,1-.38-1.62,2.17,2.17,0,0,1,2.62-1.71,2,2,0,0,1,1.33,1A2.13,2.13,0,0,0,139.2,134Z"/><path class="cls-3" d="M155.54,127.74a2.07,2.07,0,0,1-.38-1.62,2.24,2.24,0,0,1,.94-1.42,2.17,2.17,0,0,1,1.68-.29,2,2,0,0,1,1.33,1,2.14,2.14,0,0,0-3.57,2.34Z"/><path class="cls-3" d="M152,130.08a2.07,2.07,0,0,1-.38-1.62,2.19,2.19,0,0,1,.94-1.42,2.21,2.21,0,0,1,1.68-.3,2.08,2.08,0,0,1,1.33,1,2.14,2.14,0,0,0-3.57,2.34Z"/><path class="cls-3" d="M148.4,132.42a2.07,2.07,0,0,1-.38-1.62,2.15,2.15,0,0,1,.94-1.42,2.19,2.19,0,0,1,1.67-.3,2.1,2.1,0,0,1,1.34,1,2.14,2.14,0,0,0-3.57,2.34Z"/><path class="cls-3" d="M144.82,134.75a2.1,2.1,0,0,1-.38-1.62,2.2,2.2,0,0,1,.95-1.41,2.15,2.15,0,0,1,1.67-.3,2.1,2.1,0,0,1,1.34,1,2.14,2.14,0,0,0-3.58,2.33Z"/><path class="cls-3" d="M141.25,137.09a2.06,2.06,0,0,1-.38-1.62,2.24,2.24,0,0,1,.94-1.42,2.21,2.21,0,0,1,1.68-.29,2,2,0,0,1,1.33,1,2.14,2.14,0,0,0-3.57,2.34Z"/><path class="cls-3" d="M157.59,130.87a2.07,2.07,0,0,1-.38-1.62,2.21,2.21,0,0,1,.94-1.42,2.16,2.16,0,0,1,1.68-.29,2,2,0,0,1,1.33,1,2.14,2.14,0,0,0-3.57,2.34Z"/><path class="cls-3" d="M154,133.21a2.07,2.07,0,0,1-.38-1.62,2.15,2.15,0,0,1,.94-1.42,2.21,2.21,0,0,1,1.68-.3,2.08,2.08,0,0,1,1.33,1,2.14,2.14,0,0,0-3.57,2.34Z"/><path class="cls-3" d="M150.44,135.55a2.08,2.08,0,0,1-.37-1.63,2.15,2.15,0,0,1,.94-1.41,2.19,2.19,0,0,1,1.67-.3,2.1,2.1,0,0,1,1.34,1,2.14,2.14,0,0,0-3.58,2.34Z"/><path class="cls-3" d="M146.87,137.88a2.1,2.1,0,0,1-.38-1.62,2.17,2.17,0,0,1,2.62-1.71,2.06,2.06,0,0,1,1.33,1,2.13,2.13,0,0,0-3.57,2.33Z"/><path class="cls-3" d="M143.3,140.22a2.06,2.06,0,0,1-.38-1.62,2.24,2.24,0,0,1,.94-1.42,2.21,2.21,0,0,1,1.68-.29,2.07,2.07,0,0,1,1.33,1,2.14,2.14,0,0,0-3.57,2.34Z"/><path class="cls-3" d="M159.64,134a2.07,2.07,0,0,1-.38-1.62,2.16,2.16,0,0,1,2.62-1.72,2.08,2.08,0,0,1,1.33,1,2.14,2.14,0,0,0-3.57,2.34Z"/><path class="cls-3" d="M156.07,136.34a2.07,2.07,0,0,1-.38-1.62,2.15,2.15,0,0,1,.94-1.42,2.19,2.19,0,0,1,1.67-.3,2.1,2.1,0,0,1,1.34,1,2.14,2.14,0,0,0-3.57,2.34Z"/><path class="cls-3" d="M152.49,138.68a2.12,2.12,0,0,1-.38-1.63,2.18,2.18,0,0,1,2.62-1.71,2.1,2.1,0,0,1,1.34,1,2.14,2.14,0,0,0-3.58,2.34Z"/><path class="cls-3" d="M148.92,141a2.06,2.06,0,0,1-.38-1.62,2.19,2.19,0,0,1,.94-1.41,2.17,2.17,0,0,1,1.68-.3,2.06,2.06,0,0,1,1.33,1,2.13,2.13,0,0,0-3.57,2.33Z"/><path class="cls-3" d="M145.35,143.35a2.06,2.06,0,0,1-.38-1.62,2.15,2.15,0,0,1,2.62-1.71,2.07,2.07,0,0,1,1.33,1,2.14,2.14,0,0,0-3.57,2.34Z"/></g></svg>