<svg id="Layer_12" data-name="Layer 12" xmlns="http://www.w3.org/2000/svg" xmlns:xlink="http://www.w3.org/1999/xlink" viewBox="0 0 260 168"><defs><style>.cls-1{fill:none;}.cls-2{fill:#870000;}.cls-3{fill:#ff8585;}.cls-4{fill:red;}.cls-5{fill:#7f2828;stroke:#7f2828;stroke-miterlimit:10;stroke-width:0.07px;}.cls-6{fill:#fff;}.cls-7{clip-path:url(#clip-path);}.cls-8{clip-path:url(#clip-path-2);}</style><clipPath id="clip-path"><ellipse class="cls-1" cx="91.5" cy="149.05" rx="7.43" ry="13" transform="translate(-62.98 231.05) rotate(-86.41)"/></clipPath><clipPath id="clip-path-2"><path class="cls-2" d="M80.59,151.47a3.36,3.36,0,0,0,2.67.23S82.51,155.26,80.59,151.47Z"/></clipPath></defs><path class="cls-3" d="M105.14,147.18c.9-1.23,2.49-2.26,5.29-1.48a4.38,4.38,0,0,1-3.42,4.62,4.76,4.76,0,0,1,2.75,4.79,4.67,4.67,0,0,1-5.2-3A5.24,5.24,0,0,1,105.14,147.18Z"/><path class="cls-3" d="M94.9,152a3.24,3.24,0,0,0-4.56-.28c-1.33,1.18-2.31,2.34-.27,4.55s5.55,1.67,5.69,1.55S96.08,153.32,94.9,152Z"/><path class="cls-3" d="M95.42,145.32a3.24,3.24,0,0,1-4.56-.3c-1.18-1.34-2-2.6.3-4.55s5.72-1,5.84-.82S96.76,144.15,95.42,145.32Z"/><ellipse class="cls-4" cx="91.5" cy="149.05" rx="7.43" ry="13" transform="translate(-62.98 231.05) rotate(-86.41)"/><path class="cls-5" d="M83.92,146.32s.71.07.89-.5a1,1,0,0,1-.55,1Z"/><path class="cls-5" d="M84.22,146.8a1,1,0,0,0,1.16-.21,1.21,1.21,0,0,1-1,.91Z"/><ellipse class="cls-6" cx="82" cy="147.93" rx="2.49" ry="2.48" transform="translate(-11.18 6.77) rotate(-4.43)"/><circle cx="82" cy="147.93" r="1.79" transform="translate(-11.18 6.77) rotate(-4.43)"/><circle class="cls-6" cx="82.63" cy="147.26" r="0.51" transform="translate(-11.13 6.82) rotate(-4.43)"/><g class="cls-7"><path class="cls-3" d="M88.73,143.11a1.72,1.72,0,0,1-1.28-.56,1.84,1.84,0,0,1-.48-1.34,1.88,1.88,0,0,1,.65-1.27,1.68,1.68,0,0,1,1.33-.4,1.92,1.92,0,0,0-1.26.48,1.74,1.74,0,0,0-.56,1.2,1.69,1.69,0,0,0,.41,1.25A1.85,1.85,0,0,0,88.73,143.11Z"/><path class="cls-3" d="M88.5,146.69a1.73,1.73,0,0,1-1.27-.57,1.78,1.78,0,0,1,.16-2.61,1.73,1.73,0,0,1,1.34-.4,1.86,1.86,0,0,0-1.26.49,1.66,1.66,0,0,0-.56,1.19,1.71,1.71,0,0,0,.4,1.26A2,2,0,0,0,88.5,146.69Z"/><path class="cls-3" d="M88.27,150.26a1.66,1.66,0,0,1-1.27-.57,1.86,1.86,0,0,1-.49-1.34,1.83,1.83,0,0,1,.66-1.26,1.66,1.66,0,0,1,1.33-.4,1.92,1.92,0,0,0-1.26.48,1.81,1.81,0,0,0-.16,2.45A2,2,0,0,0,88.27,150.26Z"/><path class="cls-3" d="M88.05,153.83a1.69,1.69,0,0,1-1.28-.56,1.79,1.79,0,0,1,.17-2.61,1.71,1.71,0,0,1,1.33-.4,1.88,1.88,0,0,0-1.26.49,1.7,1.7,0,0,0-.56,1.19,1.72,1.72,0,0,0,.41,1.26A1.88,1.88,0,0,0,88.05,153.83Z"/><path class="cls-3" d="M87.82,157.41a1.69,1.69,0,0,1-1.27-.57,1.77,1.77,0,0,1,.16-2.6,1.74,1.74,0,0,1,1.34-.41,2,2,0,0,0-1.27.49,1.79,1.79,0,0,0-.15,2.45A1.92,1.92,0,0,0,87.82,157.41Z"/><path class="cls-3" d="M91.87,143.31a1.7,1.7,0,0,1-1.28-.57,1.76,1.76,0,0,1,.17-2.6,1.71,1.71,0,0,1,1.33-.41,2,2,0,0,0-1.26.49,1.74,1.74,0,0,0-.56,1.19,1.75,1.75,0,0,0,.4,1.26A2,2,0,0,0,91.87,143.31Z"/><path class="cls-3" d="M91.64,146.88a1.72,1.72,0,0,1-1.28-.56,1.84,1.84,0,0,1-.48-1.34,1.88,1.88,0,0,1,.65-1.27,1.7,1.7,0,0,1,1.34-.4,1.92,1.92,0,0,0-1.27.48A1.78,1.78,0,0,0,90,145a1.69,1.69,0,0,0,.41,1.25A1.85,1.85,0,0,0,91.64,146.88Z"/><path class="cls-3" d="M91.41,150.46a1.69,1.69,0,0,1-1.27-.57,1.87,1.87,0,0,1-.49-1.34,1.9,1.9,0,0,1,.65-1.27,1.73,1.73,0,0,1,1.34-.4,2,2,0,0,0-1.26.49,1.81,1.81,0,0,0-.16,2.45A1.92,1.92,0,0,0,91.41,150.46Z"/><path class="cls-3" d="M91.18,154a1.68,1.68,0,0,1-1.27-.56,1.89,1.89,0,0,1-.49-1.34,1.85,1.85,0,0,1,.66-1.27,1.66,1.66,0,0,1,1.33-.4,1.92,1.92,0,0,0-1.26.48,1.81,1.81,0,0,0-.16,2.45A1.9,1.9,0,0,0,91.18,154Z"/><path class="cls-3" d="M91,157.61a1.75,1.75,0,0,1-1.28-.57,1.79,1.79,0,0,1,.17-2.61,1.71,1.71,0,0,1,1.33-.4,1.88,1.88,0,0,0-1.26.49,1.7,1.7,0,0,0-.56,1.19,1.72,1.72,0,0,0,.41,1.26A1.9,1.9,0,0,0,91,157.61Z"/><path class="cls-3" d="M95,143.51a1.73,1.73,0,0,1-1.27-.57,1.78,1.78,0,0,1,.16-2.61,1.73,1.73,0,0,1,1.34-.4,1.88,1.88,0,0,0-1.26.49,1.7,1.7,0,0,0-.56,1.19,1.75,1.75,0,0,0,.4,1.26A2,2,0,0,0,95,143.51Z"/><path class="cls-3" d="M94.78,147.08a1.66,1.66,0,0,1-1.28-.57,1.78,1.78,0,0,1,.17-2.6,1.66,1.66,0,0,1,1.33-.4,1.92,1.92,0,0,0-1.26.48,1.81,1.81,0,0,0-.16,2.45A2,2,0,0,0,94.78,147.08Z"/><path class="cls-3" d="M94.55,150.66a1.77,1.77,0,0,1-1.28-.57,1.79,1.79,0,0,1,.17-2.61,1.73,1.73,0,0,1,1.34-.4,1.9,1.9,0,0,0-1.27.49,1.74,1.74,0,0,0-.56,1.19,1.72,1.72,0,0,0,.41,1.26A1.94,1.94,0,0,0,94.55,150.66Z"/><path class="cls-3" d="M94.32,154.23a1.69,1.69,0,0,1-1.27-.57,1.77,1.77,0,0,1,.16-2.6,1.7,1.7,0,0,1,1.34-.4,1.9,1.9,0,0,0-1.26.48,1.74,1.74,0,0,0-.56,1.19,1.71,1.71,0,0,0,.4,1.26A1.92,1.92,0,0,0,94.32,154.23Z"/><path class="cls-3" d="M94.09,157.8a1.68,1.68,0,0,1-1.27-.56,1.89,1.89,0,0,1-.49-1.34,1.85,1.85,0,0,1,.66-1.27,1.7,1.7,0,0,1,1.33-.4,1.92,1.92,0,0,0-1.26.48,1.82,1.82,0,0,0-.16,2.46A1.94,1.94,0,0,0,94.09,157.8Z"/><path class="cls-3" d="M98.14,143.7a1.68,1.68,0,0,1-1.27-.56,1.78,1.78,0,0,1,.16-2.61,1.73,1.73,0,0,1,1.34-.4,1.9,1.9,0,0,0-1.26.48,1.7,1.7,0,0,0-.56,1.2,1.67,1.67,0,0,0,.4,1.25A1.87,1.87,0,0,0,98.14,143.7Z"/><path class="cls-3" d="M97.91,147.28a1.69,1.69,0,0,1-1.27-.57,1.87,1.87,0,0,1-.49-1.34,1.83,1.83,0,0,1,.66-1.26,1.71,1.71,0,0,1,1.33-.41,2,2,0,0,0-1.26.49,1.74,1.74,0,0,0-.56,1.19,1.75,1.75,0,0,0,.4,1.26A2,2,0,0,0,97.91,147.28Z"/><path class="cls-3" d="M97.69,150.85a1.69,1.69,0,0,1-1.28-.56,1.79,1.79,0,0,1,.17-2.61,1.67,1.67,0,0,1,1.33-.4,1.92,1.92,0,0,0-1.26.48,1.81,1.81,0,0,0-.16,2.45A1.9,1.9,0,0,0,97.69,150.85Z"/><path class="cls-3" d="M97.46,154.43a1.77,1.77,0,0,1-1.28-.57,1.79,1.79,0,0,1,.17-2.61,1.73,1.73,0,0,1,1.34-.4,2,2,0,0,0-1.27.49,1.74,1.74,0,0,0-.56,1.19,1.76,1.76,0,0,0,.41,1.26A1.92,1.92,0,0,0,97.46,154.43Z"/><path class="cls-3" d="M97.23,158a1.68,1.68,0,0,1-1.27-.56,1.78,1.78,0,0,1,.16-2.61,1.7,1.7,0,0,1,1.34-.4,1.92,1.92,0,0,0-1.26.48,1.74,1.74,0,0,0-.56,1.2,1.69,1.69,0,0,0,.4,1.25A1.9,1.9,0,0,0,97.23,158Z"/><path class="cls-3" d="M101.28,143.9a1.72,1.72,0,0,1-1.28-.56,1.84,1.84,0,0,1-.48-1.34,1.88,1.88,0,0,1,.65-1.27,1.68,1.68,0,0,1,1.33-.4,1.92,1.92,0,0,0-1.26.48,1.78,1.78,0,0,0-.56,1.2,1.69,1.69,0,0,0,.41,1.25A1.85,1.85,0,0,0,101.28,143.9Z"/><path class="cls-3" d="M101.05,147.48a1.73,1.73,0,0,1-1.27-.57,1.78,1.78,0,0,1,.16-2.61,1.73,1.73,0,0,1,1.34-.4,1.86,1.86,0,0,0-1.26.49,1.66,1.66,0,0,0-.56,1.19,1.71,1.71,0,0,0,.4,1.26A1.92,1.92,0,0,0,101.05,147.48Z"/><path class="cls-3" d="M100.82,151.05a1.66,1.66,0,0,1-1.27-.57,1.86,1.86,0,0,1-.49-1.34,1.83,1.83,0,0,1,.66-1.26,1.66,1.66,0,0,1,1.33-.4,1.92,1.92,0,0,0-1.26.48,1.81,1.81,0,0,0-.16,2.45A2,2,0,0,0,100.82,151.05Z"/><path class="cls-3" d="M100.6,154.62a1.71,1.71,0,0,1-1.28-.56,1.79,1.79,0,0,1,.17-2.61,1.71,1.71,0,0,1,1.33-.4,1.88,1.88,0,0,0-1.26.49,1.7,1.7,0,0,0-.56,1.19,1.72,1.72,0,0,0,.41,1.26A1.88,1.88,0,0,0,100.6,154.62Z"/><path class="cls-3" d="M100.37,158.2a1.69,1.69,0,0,1-1.27-.57,1.77,1.77,0,0,1,.16-2.6,1.74,1.74,0,0,1,1.34-.41,2,2,0,0,0-1.27.49,1.82,1.82,0,0,0-.15,2.45A1.92,1.92,0,0,0,100.37,158.2Z"/><path class="cls-3" d="M104.42,144.1a1.7,1.7,0,0,1-1.28-.57,1.78,1.78,0,0,1,.17-2.6,1.71,1.71,0,0,1,1.33-.41,2,2,0,0,0-1.26.49,1.74,1.74,0,0,0-.56,1.19,1.75,1.75,0,0,0,.4,1.26A2,2,0,0,0,104.42,144.1Z"/><path class="cls-3" d="M104.19,147.67a1.72,1.72,0,0,1-1.28-.56,1.79,1.79,0,0,1,.17-2.61,1.7,1.7,0,0,1,1.34-.4,1.92,1.92,0,0,0-1.27.48,1.78,1.78,0,0,0-.56,1.2A1.69,1.69,0,0,0,103,147,1.85,1.85,0,0,0,104.19,147.67Z"/><path class="cls-3" d="M104,151.25a1.69,1.69,0,0,1-1.27-.57,1.87,1.87,0,0,1-.49-1.34,1.9,1.9,0,0,1,.65-1.27,1.73,1.73,0,0,1,1.34-.4,2,2,0,0,0-1.26.49,1.81,1.81,0,0,0-.16,2.45A1.92,1.92,0,0,0,104,151.25Z"/><path class="cls-3" d="M103.73,154.82a1.68,1.68,0,0,1-1.27-.56,1.89,1.89,0,0,1-.49-1.34,1.85,1.85,0,0,1,.66-1.27,1.66,1.66,0,0,1,1.33-.4,1.92,1.92,0,0,0-1.26.48,1.81,1.81,0,0,0-.16,2.45A1.9,1.9,0,0,0,103.73,154.82Z"/><path class="cls-3" d="M103.51,158.4a1.77,1.77,0,0,1-1.28-.57,1.82,1.82,0,0,1-.48-1.34,1.88,1.88,0,0,1,.65-1.27,1.71,1.71,0,0,1,1.33-.4,1.88,1.88,0,0,0-1.26.49,1.7,1.7,0,0,0-.56,1.19,1.72,1.72,0,0,0,.41,1.26A1.9,1.9,0,0,0,103.51,158.4Z"/></g><path class="cls-2" d="M80.59,151.47a3.36,3.36,0,0,0,2.67.23S82.51,155.26,80.59,151.47Z"/><g class="cls-8"><ellipse class="cls-6" cx="82.36" cy="151.54" rx="1.34" ry="0.76" transform="translate(-26.02 17.37) rotate(-10.41)"/></g></svg>