<svg id="Layer_1" data-name="Layer 1" xmlns="http://www.w3.org/2000/svg" xmlns:xlink="http://www.w3.org/1999/xlink" viewBox="0 0 260 168"><defs><style>.cls-1{fill:red;}.cls-2{fill:#fff;}.cls-3{fill:#870000;}.cls-4{fill:#ff8585;}.cls-5{clip-path:url(#clip-path);}.cls-6{fill:#7f2828;stroke:#7f2828;stroke-miterlimit:10;stroke-width:0.24px;}.cls-7{clip-path:url(#clip-path-2);}.cls-8{clip-path:url(#clip-path-3);}</style><clipPath id="clip-path"><path class="cls-1" d="M160.34,92s-1.57-23.55-22.29-23.73-22.8,23.76-22.94,32.58-4.9,1.34-14.33,5.36c0,0,4.75,1.08,7.49,4.28s26.69,22.7,40.08,10.56S160.34,92,160.34,92Z"/></clipPath><clipPath id="clip-path-2"><circle class="cls-2" cx="139.56" cy="80.49" r="7.88" transform="translate(-13.82 129.81) rotate(-47.8)"/></clipPath><clipPath id="clip-path-3"><ellipse class="cls-3" cx="125.69" cy="75.16" rx="2.01" ry="1.66" transform="translate(-14.7 116.84) rotate(-47.41)"/></clipPath></defs><path class="cls-4" d="M134.33,116.8a10.26,10.26,0,0,1,9.79-10.66c5.64-.26,10.41.19,10.64,9.72s-9,16-9.57,16S134.56,122.43,134.33,116.8Z"/><path class="cls-4" d="M121.57,106.06A10.26,10.26,0,0,0,133,97.18c.72-5.6.66-10.39-8.83-11.4S107.48,93.41,107.41,94,116,105.37,121.57,106.06Z"/><path class="cls-4" d="M103.94,115.1c-.11,4.82-2.4,10.4-11.1,13.41,0,0-7.42-8.41.61-18.23a15.12,15.12,0,0,1-15.83-7.55S86.1,94,96.49,101.05A16.56,16.56,0,0,1,103.94,115.1Z"/><path class="cls-1" d="M160.34,92s-1.57-23.55-22.29-23.73-22.8,23.76-22.94,32.58-4.9,1.34-14.33,5.36c0,0,4.75,1.08,7.49,4.28s26.69,22.7,40.08,10.56S160.34,92,160.34,92Z"/><g class="cls-5"><path class="cls-4" d="M150.58,104.91a5.53,5.53,0,0,1,3.22-3,5.73,5.73,0,0,1,7.44,3.71,5.43,5.43,0,0,1-.51,4.39,5.89,5.89,0,0,0,.13-4.27,5.64,5.64,0,0,0-6.93-3.45A5.9,5.9,0,0,0,150.58,104.91Z"/><path class="cls-4" d="M140.43,99.84a5.5,5.5,0,0,1,3.22-3,5.74,5.74,0,0,1,7.44,3.71,5.51,5.51,0,0,1-.51,4.39,5.86,5.86,0,0,0,.12-4.26,5.6,5.6,0,0,0-6.92-3.45A5.92,5.92,0,0,0,140.43,99.84Z"/><path class="cls-4" d="M130.27,94.78a5.52,5.52,0,0,1,3.22-3A5.87,5.87,0,0,1,138,92a5.8,5.8,0,0,1,2.92,3.45,5.47,5.47,0,0,1-.5,4.39,5.86,5.86,0,0,0,.12-4.26,5.62,5.62,0,0,0-6.93-3.45A5.93,5.93,0,0,0,130.27,94.78Z"/><path class="cls-4" d="M120.12,89.71a5.5,5.5,0,0,1,3.22-3,5.72,5.72,0,0,1,7.44,3.7,5.45,5.45,0,0,1-.51,4.4,5.89,5.89,0,0,0,.12-4.27,5.63,5.63,0,0,0-6.92-3.45A5.9,5.9,0,0,0,120.12,89.71Z"/><path class="cls-4" d="M110,84.64a5.55,5.55,0,0,1,3.23-3,5.75,5.75,0,0,1,7.44,3.7,5.53,5.53,0,0,1-.51,4.4,5.89,5.89,0,0,0,.12-4.27A5.63,5.63,0,0,0,113.32,82,6,6,0,0,0,110,84.64Z"/><path class="cls-4" d="M146.57,114.58a5.54,5.54,0,0,1,3.41-2.82,5.74,5.74,0,0,1,7.19,4.18,5.53,5.53,0,0,1-.79,4.35,5.87,5.87,0,0,0,.39-4.25,5.5,5.5,0,0,0-2.57-3.27,5.58,5.58,0,0,0-4.12-.62A5.94,5.94,0,0,0,146.57,114.58Z"/><path class="cls-4" d="M136.76,108.87a5.56,5.56,0,0,1,3.41-2.82,5.74,5.74,0,0,1,7.19,4.18,5.49,5.49,0,0,1-.79,4.35,5.88,5.88,0,0,0,.4-4.25,5.64,5.64,0,0,0-6.69-3.89A5.94,5.94,0,0,0,136.76,108.87Z"/><path class="cls-4" d="M127,103.16a5.54,5.54,0,0,1,3.41-2.82,5.74,5.74,0,0,1,7.18,4.18,5.45,5.45,0,0,1-.79,4.35,5.88,5.88,0,0,0,.4-4.25,5.64,5.64,0,0,0-6.69-3.89A5.89,5.89,0,0,0,127,103.16Z"/><path class="cls-4" d="M117.15,97.45a5.54,5.54,0,0,1,3.41-2.82,5.74,5.74,0,0,1,7.19,4.18,5.53,5.53,0,0,1-.79,4.35,5.87,5.87,0,0,0,.39-4.25,5.5,5.5,0,0,0-2.57-3.27,5.58,5.58,0,0,0-4.12-.62A5.89,5.89,0,0,0,117.15,97.45Z"/><path class="cls-4" d="M107.34,91.74a5.53,5.53,0,0,1,3.41-2.82,5.74,5.74,0,0,1,7.19,4.18,5.49,5.49,0,0,1-.79,4.35,5.88,5.88,0,0,0,.4-4.25,5.62,5.62,0,0,0-6.69-3.89A5.94,5.94,0,0,0,107.34,91.74Z"/><path class="cls-4" d="M142,122.16a5.53,5.53,0,0,1,3.61-2.56,5.74,5.74,0,0,1,6.86,4.7,5.48,5.48,0,0,1-1.11,4.28,5.85,5.85,0,0,0,.71-4.21,5.64,5.64,0,0,0-6.38-4.37A6,6,0,0,0,142,122.16Z"/><path class="cls-4" d="M132.61,115.74a5.58,5.58,0,0,1,3.61-2.56,5.87,5.87,0,0,1,4.44.88,5.81,5.81,0,0,1,2.42,3.82,5.44,5.44,0,0,1-1.11,4.28,5.85,5.85,0,0,0,.71-4.21,5.64,5.64,0,0,0-6.38-4.37A6,6,0,0,0,132.61,115.74Z"/><path class="cls-4" d="M123.26,109.32a5.53,5.53,0,0,1,3.61-2.56,5.85,5.85,0,0,1,4.43.88,5.77,5.77,0,0,1,2.42,3.82,5.44,5.44,0,0,1-1.11,4.28,5.84,5.84,0,0,0,.71-4.21,5.48,5.48,0,0,0-2.32-3.45,5.55,5.55,0,0,0-4.06-.92A5.93,5.93,0,0,0,123.26,109.32Z"/><path class="cls-4" d="M113.9,102.9a5.53,5.53,0,0,1,3.61-2.56,5.75,5.75,0,0,1,6.86,4.7,5.52,5.52,0,0,1-1.11,4.28,6,6,0,0,0,.71-4.21,5.64,5.64,0,0,0-6.39-4.37A5.93,5.93,0,0,0,113.9,102.9Z"/><path class="cls-4" d="M104.54,96.48a5.53,5.53,0,0,1,3.61-2.56,5.74,5.74,0,0,1,6.86,4.7,5.48,5.48,0,0,1-1.11,4.28,5.89,5.89,0,0,0,.71-4.21,5.64,5.64,0,0,0-6.39-4.37A5.93,5.93,0,0,0,104.54,96.48Z"/><path class="cls-4" d="M135,132.26a5.54,5.54,0,0,1,4.14-1.57,5.89,5.89,0,0,1,4.07,2,5.81,5.81,0,0,1,1.39,4.31,5.46,5.46,0,0,1-2.15,3.87,5.82,5.82,0,0,0,1.74-3.9,5.64,5.64,0,0,0-5.08-5.84A5.9,5.9,0,0,0,135,132.26Z"/><path class="cls-4" d="M127.58,123.68a5.5,5.5,0,0,1,4.14-1.56,5.74,5.74,0,0,1,5.46,6.27,5.49,5.49,0,0,1-2.15,3.87,5.87,5.87,0,0,0,1.74-3.9,5.64,5.64,0,0,0-5.08-5.84A5.9,5.9,0,0,0,127.58,123.68Z"/><path class="cls-4" d="M120.12,115.11a5.48,5.48,0,0,1,4.14-1.57,5.74,5.74,0,0,1,5.46,6.27,5.46,5.46,0,0,1-2.14,3.87,5.92,5.92,0,0,0,1.74-3.9,5.64,5.64,0,0,0-5.09-5.84A5.87,5.87,0,0,0,120.12,115.11Z"/><path class="cls-4" d="M112.67,106.53a5.47,5.47,0,0,1,4.14-1.57,5.75,5.75,0,0,1,5.46,6.27,5.48,5.48,0,0,1-2.15,3.88,5.87,5.87,0,0,0,1.74-3.9,5.66,5.66,0,0,0-5.08-5.85A5.91,5.91,0,0,0,112.67,106.53Z"/><path class="cls-4" d="M105.22,98a5.5,5.5,0,0,1,4.14-1.57,5.76,5.76,0,0,1,5.46,6.28,5.51,5.51,0,0,1-2.15,3.87,5.89,5.89,0,0,0,1.74-3.9A5.58,5.58,0,0,0,113,98.7a5.64,5.64,0,0,0-3.7-1.92A6,6,0,0,0,105.22,98Z"/><path class="cls-4" d="M110.35,126a5.5,5.5,0,0,1,4.33.86A5.7,5.7,0,0,1,116,135a5.47,5.47,0,0,1-3.87,2.13,5.92,5.92,0,0,0,3.55-2.37,5.63,5.63,0,0,0-1.21-7.63A6,6,0,0,0,110.35,126Z"/><path class="cls-4" d="M108.59,114.75a5.5,5.5,0,0,1,4.33.87,5.73,5.73,0,0,1,1.3,8.2,5.49,5.49,0,0,1-3.87,2.13,5.89,5.89,0,0,0,3.54-2.37,5.62,5.62,0,0,0-1.21-7.64A5.91,5.91,0,0,0,108.59,114.75Z"/><path class="cls-4" d="M106.82,103.56a5.55,5.55,0,0,1,4.34.86,5.73,5.73,0,0,1,1.3,8.2,5.45,5.45,0,0,1-3.87,2.13,5.85,5.85,0,0,0,3.54-2.37,5.46,5.46,0,0,0,.92-4,5.54,5.54,0,0,0-2.13-3.58A5.93,5.93,0,0,0,106.82,103.56Z"/><path class="cls-4" d="M105.06,92.37a5.52,5.52,0,0,1,4.34.86,5.73,5.73,0,0,1,1.3,8.2,5.51,5.51,0,0,1-3.88,2.13,5.87,5.87,0,0,0,3.55-2.37,5.61,5.61,0,0,0-1.21-7.63A5.94,5.94,0,0,0,105.06,92.37Z"/><path class="cls-4" d="M103.3,81.18a5.52,5.52,0,0,1,4.34.86,5.73,5.73,0,0,1,1.3,8.2,5.51,5.51,0,0,1-3.88,2.13A5.92,5.92,0,0,0,108.61,90a5.6,5.6,0,0,0-1.21-7.63A5.94,5.94,0,0,0,103.3,81.18Z"/></g><path class="cls-6" d="M147.26,82.43s1.12,1.94,2.94,1.34a3.32,3.32,0,0,1-3.63.5Z"/><path class="cls-6" d="M146.57,84.09s.48,2.55,2.7,2.59c0,0-2.52,1-4.16-.85Z"/><circle class="cls-2" cx="139.56" cy="80.49" r="7.88" transform="translate(-13.82 129.81) rotate(-47.8)"/><g class="cls-7"><circle cx="137.68" cy="77.69" r="5.68" transform="translate(-12.35 127.51) rotate(-47.8)"/><circle class="cls-2" cx="140.58" cy="78.07" r="1.61" transform="translate(-11.68 129.78) rotate(-47.8)"/></g><ellipse class="cls-3" cx="125.69" cy="75.16" rx="2.01" ry="1.66" transform="translate(-14.7 116.84) rotate(-47.41)"/><g class="cls-8"><path class="cls-2" d="M126.47,72.68A2.49,2.49,0,0,0,128,76l1.29-1.27-2.07-3.44Z"/></g></svg>