<svg id="Layer_19" data-name="Layer 19" xmlns="http://www.w3.org/2000/svg" xmlns:xlink="http://www.w3.org/1999/xlink" viewBox="0 0 260 168"><defs><style>.cls-1{fill:red;}.cls-2{fill:#fff;}.cls-3{fill:#870000;}.cls-4{fill:#ff8585;}.cls-5{clip-path:url(#clip-path);}.cls-6{fill:#7f2828;stroke:#7f2828;stroke-miterlimit:10;stroke-width:0.24px;}.cls-7{clip-path:url(#clip-path-2);}.cls-8{clip-path:url(#clip-path-3);}</style><clipPath id="clip-path"><path class="cls-1" d="M77.69,128.91S55.2,121.75,60,101.59,88.5,85.13,97.09,87.11s2.48-4.45,8.64-12.64c0,0-.09,4.87,2.36,8.29s15.66,31.34.68,41.45S77.69,128.91,77.69,128.91Z"/></clipPath><clipPath id="clip-path-2"><circle class="cls-2" cx="70.08" cy="108.29" r="7.88" transform="translate(-55.28 77.94) rotate(-43.48)"/></clipPath><clipPath id="clip-path-3"><ellipse class="cls-3" cx="72.33" cy="121.56" rx="1.66" ry="2.01" transform="translate(-18.47 13.1) rotate(-9.18)"/></clipPath></defs><path class="cls-4" d="M108,109.57a10.27,10.27,0,0,0-12.69,7c-1.6,5.42-2.3,10.16,6.9,12.66s17.69-4.88,17.86-5.45S113.36,111.14,108,109.57Z"/><path class="cls-4" d="M100.57,94.62a10.26,10.26,0,0,1-11.35,9c-5.61-.64-10.25-1.85-9-11.29s11.4-14.39,12-14.32S101.24,89,100.57,94.62Z"/><path class="cls-4" d="M113.56,79.66c4.71,1,10.68.15,15.68-7.58,0,0-6.4-9.21-17.85-3.77a15.11,15.11,0,0,0-3.55-17.17s-10.48,6.15-6.14,17.92A16.59,16.59,0,0,0,113.56,79.66Z"/><path class="cls-1" d="M77.69,128.91S55.2,121.75,60,101.59,88.5,85.13,97.09,87.11s2.48-4.45,8.64-12.64c0,0-.09,4.87,2.36,8.29s15.66,31.34.68,41.45S77.69,128.91,77.69,128.91Z"/><g class="cls-5"><path class="cls-4" d="M92.52,122.51a5.91,5.91,0,0,0-3.37,2.62,5.55,5.55,0,0,0-.65,4.11,5.47,5.47,0,0,0,2.35,3.44,5.88,5.88,0,0,0,4.17.9,5.44,5.44,0,0,1-4.39-.56,5.73,5.73,0,0,1-1.82-8.11A5.51,5.51,0,0,1,92.52,122.51Z"/><path class="cls-4" d="M90,111.44a5.88,5.88,0,0,0-3.37,2.62,5.62,5.62,0,0,0,1.69,7.55,5.89,5.89,0,0,0,4.17.9,5.49,5.49,0,0,1-4.39-.56,5.78,5.78,0,0,1-2.64-3.66,5.85,5.85,0,0,1,.82-4.45A5.55,5.55,0,0,1,90,111.44Z"/><path class="cls-4" d="M87.53,100.37A5.91,5.91,0,0,0,84.16,103a5.64,5.64,0,0,0,1.7,7.55,5.94,5.94,0,0,0,4.17.9,5.52,5.52,0,0,1-4.39-.56,5.73,5.73,0,0,1-1.82-8.11A5.53,5.53,0,0,1,87.53,100.37Z"/><path class="cls-4" d="M85,89.3a5.91,5.91,0,0,0-3.37,2.62,5.62,5.62,0,0,0,1.69,7.55,5.94,5.94,0,0,0,4.17.9,5.5,5.5,0,0,1-4.38-.56,5.74,5.74,0,0,1-1.82-8.11A5.51,5.51,0,0,1,85,89.3Z"/><path class="cls-4" d="M82.55,78.23a5.9,5.9,0,0,0-3.38,2.62,5.62,5.62,0,0,0,1.7,7.54A5.9,5.9,0,0,0,85,89.3a5.52,5.52,0,0,1-4.39-.56,5.74,5.74,0,0,1-1.82-8.11A5.5,5.5,0,0,1,82.55,78.23Z"/><path class="cls-4" d="M102.87,120.92a6,6,0,0,0-3.2,2.84,5.62,5.62,0,0,0,2.18,7.42,5.87,5.87,0,0,0,4.22.63,5.44,5.44,0,0,1-4.41-.27,5.74,5.74,0,0,1-2.34-8A5.57,5.57,0,0,1,102.87,120.92Z"/><path class="cls-4" d="M99.67,110a5.94,5.94,0,0,0-3.2,2.83,5.6,5.6,0,0,0-.39,4.15,5.52,5.52,0,0,0,2.57,3.27,5.82,5.82,0,0,0,4.22.63,5.44,5.44,0,0,1-4.41-.27,5.73,5.73,0,0,1-2.34-8A5.48,5.48,0,0,1,99.67,110Z"/><path class="cls-4" d="M96.47,99.15a5.94,5.94,0,0,0-3.2,2.83,5.63,5.63,0,0,0,2.18,7.43,5.93,5.93,0,0,0,4.22.63,5.51,5.51,0,0,1-4.42-.28,5.74,5.74,0,0,1-2.33-8A5.48,5.48,0,0,1,96.47,99.15Z"/><path class="cls-4" d="M93.27,88.26a5.94,5.94,0,0,0-3.2,2.83,5.63,5.63,0,0,0,2.18,7.43,5.87,5.87,0,0,0,4.22.63,5.51,5.51,0,0,1-4.42-.27,5.73,5.73,0,0,1-2.33-8A5.48,5.48,0,0,1,93.27,88.26Z"/><path class="cls-4" d="M90.07,77.38a5.87,5.87,0,0,0-3.2,2.83,5.62,5.62,0,0,0,2.18,7.42,5.86,5.86,0,0,0,4.22.63A5.47,5.47,0,0,1,88.85,88a5.74,5.74,0,0,1-2.34-8A5.51,5.51,0,0,1,90.07,77.38Z"/><path class="cls-4" d="M111.33,118.27a6,6,0,0,0-3,3.06,5.64,5.64,0,0,0,2.72,7.25,5.9,5.9,0,0,0,4.26.31,5.51,5.51,0,0,1-4.43.06,5.74,5.74,0,0,1-2.92-7.78A5.52,5.52,0,0,1,111.33,118.27Z"/><path class="cls-4" d="M107.33,107.65a5.93,5.93,0,0,0-3,3.06,5.62,5.62,0,0,0-.08,4.17,5.51,5.51,0,0,0,2.8,3.07,5.85,5.85,0,0,0,4.26.32,5.48,5.48,0,0,1-4.42.06,5.74,5.74,0,0,1-2.92-7.79A5.52,5.52,0,0,1,107.33,107.65Z"/><path class="cls-4" d="M103.34,97a5.93,5.93,0,0,0-3,3.06,5.62,5.62,0,0,0,2.72,7.24,5.82,5.82,0,0,0,4.25.32,5.44,5.44,0,0,1-4.42,0,5.8,5.8,0,0,1-3.13-3.26,5.86,5.86,0,0,1,.21-4.52A5.48,5.48,0,0,1,103.34,97Z"/><path class="cls-4" d="M99.34,86.41a5.93,5.93,0,0,0-3,3.06,5.63,5.63,0,0,0,2.72,7.24,5.85,5.85,0,0,0,4.26.32,5.47,5.47,0,0,1-4.43,0A5.73,5.73,0,0,1,96,89.3,5.5,5.5,0,0,1,99.34,86.41Z"/><path class="cls-4" d="M95.34,75.79a5.93,5.93,0,0,0-3,3.06A5.59,5.59,0,0,0,92.28,83a5.53,5.53,0,0,0,2.8,3.08,5.85,5.85,0,0,0,4.26.32,5.44,5.44,0,0,1-4.42,0A5.73,5.73,0,0,1,92,78.68,5.49,5.49,0,0,1,95.34,75.79Z"/><path class="cls-4" d="M122.8,113.94a6,6,0,0,0-2.12,3.72,5.66,5.66,0,0,0,4.46,6.33,5.89,5.89,0,0,0,4.2-.76,5.45,5.45,0,0,1-4.27,1.16,5.82,5.82,0,0,1-3.85-2.37,5.91,5.91,0,0,1-.94-4.43A5.54,5.54,0,0,1,122.8,113.94Z"/><path class="cls-4" d="M116.25,104.66a5.87,5.87,0,0,0-2.11,3.71,5.64,5.64,0,0,0,4.45,6.33,5.82,5.82,0,0,0,4.21-.76,5.47,5.47,0,0,1-4.27,1.16,5.74,5.74,0,0,1-4.79-6.8A5.47,5.47,0,0,1,116.25,104.66Z"/><path class="cls-4" d="M109.7,95.37a5.89,5.89,0,0,0-2.11,3.71,5.64,5.64,0,0,0,4.46,6.34,5.89,5.89,0,0,0,4.2-.76,5.47,5.47,0,0,1-4.27,1.16A5.76,5.76,0,0,1,107.19,99,5.51,5.51,0,0,1,109.7,95.37Z"/><path class="cls-4" d="M103.15,86.08A5.93,5.93,0,0,0,101,89.8a5.59,5.59,0,0,0,1,4,5.53,5.53,0,0,0,3.49,2.28,5.89,5.89,0,0,0,4.2-.76,5.47,5.47,0,0,1-4.27,1.16,5.76,5.76,0,0,1-4.79-6.8A5.5,5.5,0,0,1,103.15,86.08Z"/><path class="cls-4" d="M96.6,76.79a5.93,5.93,0,0,0-2.11,3.72A5.64,5.64,0,0,0,99,86.84a5.89,5.89,0,0,0,4.2-.76,5.46,5.46,0,0,1-4.27,1.16A5.79,5.79,0,0,1,95,84.87a5.87,5.87,0,0,1-.94-4.43A5.56,5.56,0,0,1,96.6,76.79Z"/><path class="cls-4" d="M122.56,88.47a6,6,0,0,0,.18,4.26,5.61,5.61,0,0,0,7.12,3A5.89,5.89,0,0,0,133,92.86a5.47,5.47,0,0,1-3,3.25,5.73,5.73,0,0,1-7.65-3.22A5.56,5.56,0,0,1,122.56,88.47Z"/><path class="cls-4" d="M112.12,84.08a6,6,0,0,0,.17,4.27,5.58,5.58,0,0,0,3,2.92,5.52,5.52,0,0,0,4.15.08,5.87,5.87,0,0,0,3.15-2.88,5.47,5.47,0,0,1-3,3.25,5.7,5.7,0,0,1-7.65-3.22A5.52,5.52,0,0,1,112.12,84.08Z"/><path class="cls-4" d="M101.67,79.7a5.9,5.9,0,0,0,.18,4.26A5.61,5.61,0,0,0,109,87a5.9,5.9,0,0,0,3.15-2.88,5.54,5.54,0,0,1-3,3.26,5.72,5.72,0,0,1-7.65-3.23A5.5,5.5,0,0,1,101.67,79.7Z"/><path class="cls-4" d="M91.22,75.31a5.92,5.92,0,0,0,.18,4.27,5.59,5.59,0,0,0,7.12,3,5.88,5.88,0,0,0,3.15-2.87,5.47,5.47,0,0,1-3,3.25A5.74,5.74,0,0,1,91,79.73,5.52,5.52,0,0,1,91.22,75.31Z"/><path class="cls-4" d="M80.78,70.93A5.9,5.9,0,0,0,81,75.19a5.55,5.55,0,0,0,3,2.92,5.47,5.47,0,0,0,4.15.08,5.83,5.83,0,0,0,3.15-2.88,5.44,5.44,0,0,1-3,3.25,5.7,5.7,0,0,1-7.65-3.22A5.5,5.5,0,0,1,80.78,70.93Z"/></g><path class="cls-6" d="M75.74,103s2.23-.16,2.49-2.06a3.31,3.31,0,0,1-1.15,3.48Z"/><path class="cls-6" d="M76.93,104.38s2.5.68,3.51-1.29c0,0-.18,2.72-2.59,3.36Z"/><circle class="cls-2" cx="70.08" cy="108.29" r="7.88" transform="translate(-55.28 77.94) rotate(-43.48)"/><g class="cls-7"><circle cx="68.35" cy="111.18" r="5.68" transform="translate(-57.75 77.54) rotate(-43.48)"/><circle class="cls-2" cx="71.22" cy="110.66" r="1.61" transform="translate(-56.6 79.37) rotate(-43.48)"/></g><ellipse class="cls-3" cx="72.33" cy="121.56" rx="1.66" ry="2.01" transform="translate(-18.47 13.1) rotate(-9.18)"/><g class="cls-8"><path class="cls-2" d="M73.05,119.07a2.5,2.5,0,0,1-3.11,1.86l-.39-1.77,3.63-1.74Z"/></g></svg>