<svg id="_1" data-name="1" xmlns="http://www.w3.org/2000/svg" xmlns:xlink="http://www.w3.org/1999/xlink" viewBox="0 0 260 168"><defs><style>.cls-1{fill:none;}.cls-2{fill:#fff;}.cls-3{fill:#870000;}.cls-4{clip-path:url(#clip-path);}.cls-5{fill:#ff8585;}.cls-6{fill:red;}.cls-7{fill:#7f2828;stroke:#7f2828;stroke-miterlimit:10;stroke-width:0.24px;}.cls-8{clip-path:url(#clip-path-2);}.cls-9{clip-path:url(#clip-path-3);}.cls-10{clip-path:url(#clip-path-4);}</style><clipPath id="clip-path"><path class="cls-1" d="M135.21,131.05s9.86,3.51,33.3,2.85,40.75-4.82,40.53-5.69,9.42-38.57,7.45-41.2-10.08-36.59-18.18-38.12-24.76-10.52-36.59-12.71S119,46,119,46l-6.79,19.5-3.51,30.68,10.08,17.52Z"/></clipPath><clipPath id="clip-path-2"><circle class="cls-2" cx="140.89" cy="65.03" r="8.05" transform="matrix(0.97, -0.25, 0.25, 0.97, -11.86, 37.71)"/></clipPath><clipPath id="clip-path-3"><ellipse class="cls-1" cx="151.63" cy="94.06" rx="24.09" ry="42.08" transform="translate(-24.91 68.1) rotate(-23.45)"/></clipPath><clipPath id="clip-path-4"><ellipse class="cls-3" cx="126.42" cy="69.21" rx="2.01" ry="1.66" transform="translate(42.67 186.51) rotate(-83.17)"/></clipPath></defs><g class="cls-4"><path class="cls-5" d="M177.1,130.61c4.87.77,10.21,3.83,12.07,13,0,0-9.51,6.39-18.38-3.06a15.45,15.45,0,0,1-9.78,15s-7.67-9.76.85-19.35A17,17,0,0,1,177.1,130.61Z"/><path class="cls-5" d="M148.16,108.19a10.44,10.44,0,0,0-5.92-13.53c-5.37-2.11-10.14-3.24-13.54,5.91S132,119,132.61,119.24,146.05,113.57,148.16,108.19Z"/><path class="cls-5" d="M168.16,99.83a10.45,10.45,0,0,1-5.84-13.57c2.14-5.36,4.57-9.61,13.58-5.84s11.18,15,11,15.61S173.52,102,168.16,99.83Z"/><ellipse class="cls-6" cx="151.63" cy="94.06" rx="24.09" ry="42.08" transform="translate(-24.91 68.1) rotate(-23.45)"/><path class="cls-7" d="M148.35,68.2s.83,2.13,2.76,1.81a3.37,3.37,0,0,1-3.74-.07Z"/><path class="cls-7" d="M147.4,69.76s.09,2.65,2.32,3c0,0-2.71.65-4.06-1.51Z"/><circle class="cls-2" cx="140.89" cy="65.03" r="8.05" transform="matrix(0.97, -0.25, 0.25, 0.97, -11.86, 37.71)"/><g class="cls-8"><circle cx="141.35" cy="61.24" r="5.81" transform="translate(-10.89 37.71) rotate(-14.64)"/><circle class="cls-2" cx="144.22" cy="62.07" r="1.64" transform="translate(-11 38.46) rotate(-14.64)"/></g><g class="cls-9"><path class="cls-5" d="M164.69,77.3a5.62,5.62,0,0,1-.26-4.51,5.86,5.86,0,0,1,7.8-3.39,5.66,5.66,0,0,1,3.12,3.28,6,6,0,0,0-3.27-2.89,5.77,5.77,0,0,0-7.27,3.15A6.06,6.06,0,0,0,164.69,77.3Z"/><path class="cls-5" d="M154,81.92a5.62,5.62,0,0,1-.26-4.51,5.86,5.86,0,0,1,7.8-3.39,5.61,5.61,0,0,1,3.11,3.28,6,6,0,0,0-3.27-2.89,5.59,5.59,0,0,0-4.25.13,5.67,5.67,0,0,0-3,3A6.06,6.06,0,0,0,154,81.92Z"/><path class="cls-5" d="M143.39,86.54a5.61,5.61,0,0,1-.27-4.51,5.87,5.87,0,0,1,7.8-3.39A5.63,5.63,0,0,1,154,81.92,6,6,0,0,0,150.77,79a5.75,5.75,0,0,0-7.26,3.15A6,6,0,0,0,143.39,86.54Z"/><path class="cls-5" d="M132.74,91.16a5.57,5.57,0,0,1-.27-4.51,5.87,5.87,0,0,1,7.8-3.39,5.63,5.63,0,0,1,3.12,3.28,6,6,0,0,0-3.27-2.89,5.77,5.77,0,0,0-7.27,3.15A6,6,0,0,0,132.74,91.16Z"/><path class="cls-5" d="M122.08,95.78a5.61,5.61,0,0,1-.26-4.51,5.86,5.86,0,0,1,7.8-3.39,5.66,5.66,0,0,1,3.12,3.28,6,6,0,0,0-3.27-2.89,5.77,5.77,0,0,0-7.27,3.15A6.06,6.06,0,0,0,122.08,95.78Z"/><path class="cls-5" d="M168.74,86.64a5.64,5.64,0,0,1-.26-4.52,5.86,5.86,0,0,1,7.8-3.39A5.67,5.67,0,0,1,179.4,82a6.1,6.1,0,0,0-3.27-2.9,5.77,5.77,0,0,0-7.27,3.15A6.09,6.09,0,0,0,168.74,86.64Z"/><path class="cls-5" d="M158.09,91.26a5.64,5.64,0,0,1-.27-4.52,5.87,5.87,0,0,1,7.8-3.39,5.64,5.64,0,0,1,3.12,3.29,6,6,0,0,0-3.27-2.9,5.75,5.75,0,0,0-7.26,3.15A6,6,0,0,0,158.09,91.26Z"/><path class="cls-5" d="M147.44,95.88a5.6,5.6,0,0,1-.27-4.52A5.87,5.87,0,0,1,155,88a5.64,5.64,0,0,1,3.12,3.29,6.1,6.1,0,0,0-3.27-2.9,5.71,5.71,0,0,0-4.26.13,5.62,5.62,0,0,0-3,3A6,6,0,0,0,147.44,95.88Z"/><path class="cls-5" d="M136.78,100.5a5.64,5.64,0,0,1-.26-4.52,5.86,5.86,0,0,1,7.8-3.39,5.67,5.67,0,0,1,3.12,3.29,6.1,6.1,0,0,0-3.27-2.9,5.77,5.77,0,0,0-7.27,3.15A6.09,6.09,0,0,0,136.78,100.5Z"/><path class="cls-5" d="M126.13,105.12a5.64,5.64,0,0,1-.27-4.52,5.88,5.88,0,0,1,7.81-3.39,5.63,5.63,0,0,1,3.11,3.29,6,6,0,0,0-3.27-2.9,5.71,5.71,0,0,0-4.26.13,5.65,5.65,0,0,0-3,3A6,6,0,0,0,126.13,105.12Z"/><path class="cls-5" d="M172.79,96a5.64,5.64,0,0,1-.27-4.52,6,6,0,0,1,3.18-3.37,5.93,5.93,0,0,1,4.62,0,5.6,5.6,0,0,1,3.12,3.28,6,6,0,0,0-3.27-2.9,5.75,5.75,0,0,0-7.26,3.15A6,6,0,0,0,172.79,96Z"/><path class="cls-5" d="M162.14,100.59a5.6,5.6,0,0,1-.27-4.52,5.86,5.86,0,0,1,7.8-3.38A5.6,5.6,0,0,1,172.79,96a6.06,6.06,0,0,0-3.27-2.9,5.75,5.75,0,0,0-7.26,3.15A6,6,0,0,0,162.14,100.59Z"/><path class="cls-5" d="M151.48,105.21a5.64,5.64,0,0,1-.26-4.52,5.85,5.85,0,0,1,7.8-3.38,5.63,5.63,0,0,1,3.12,3.28,6.1,6.1,0,0,0-3.27-2.9,5.77,5.77,0,0,0-7.27,3.15A6.09,6.09,0,0,0,151.48,105.21Z"/><path class="cls-5" d="M140.83,109.83a5.64,5.64,0,0,1-.27-4.52,5.86,5.86,0,0,1,7.81-3.38,5.58,5.58,0,0,1,3.11,3.28,6,6,0,0,0-3.27-2.9,5.75,5.75,0,0,0-7.26,3.15A6,6,0,0,0,140.83,109.83Z"/><path class="cls-5" d="M130.18,114.45a5.64,5.64,0,0,1-.27-4.52,5.86,5.86,0,0,1,7.8-3.38,5.6,5.6,0,0,1,3.12,3.28,6.06,6.06,0,0,0-3.27-2.9,5.75,5.75,0,0,0-7.26,3.15A6,6,0,0,0,130.18,114.45Z"/><path class="cls-5" d="M176.84,105.3a5.6,5.6,0,0,1-.27-4.52,5.88,5.88,0,0,1,7.8-3.38,5.6,5.6,0,0,1,3.12,3.28,6.06,6.06,0,0,0-3.27-2.9,5.75,5.75,0,0,0-7.26,3.15A6,6,0,0,0,176.84,105.3Z"/><path class="cls-5" d="M166.18,109.92a5.64,5.64,0,0,1-.26-4.52,5.87,5.87,0,0,1,7.8-3.38,5.63,5.63,0,0,1,3.12,3.28,6.1,6.1,0,0,0-3.27-2.9,5.77,5.77,0,0,0-7.27,3.15A6.09,6.09,0,0,0,166.18,109.92Z"/><path class="cls-5" d="M155.53,114.54a5.68,5.68,0,0,1-.27-4.52,5.88,5.88,0,0,1,7.81-3.38,5.58,5.58,0,0,1,3.11,3.28,6,6,0,0,0-3.27-2.9,5.75,5.75,0,0,0-7.26,3.15A6.09,6.09,0,0,0,155.53,114.54Z"/><path class="cls-5" d="M144.88,119.16a5.64,5.64,0,0,1-.27-4.52,5.88,5.88,0,0,1,7.8-3.38,5.6,5.6,0,0,1,3.12,3.28,6.06,6.06,0,0,0-3.27-2.9,5.75,5.75,0,0,0-7.26,3.15A6,6,0,0,0,144.88,119.16Z"/><path class="cls-5" d="M134.22,123.78a5.64,5.64,0,0,1-.26-4.52,5.87,5.87,0,0,1,7.8-3.38,5.63,5.63,0,0,1,3.12,3.28,6.1,6.1,0,0,0-3.27-2.9,5.77,5.77,0,0,0-7.27,3.15A6.09,6.09,0,0,0,134.22,123.78Z"/><path class="cls-5" d="M180.88,114.63a5.64,5.64,0,0,1-.26-4.52,5.87,5.87,0,0,1,7.8-3.38,5.63,5.63,0,0,1,3.12,3.28,6,6,0,0,0-3.27-2.89,5.66,5.66,0,0,0-4.26.12,5.73,5.73,0,0,0-3,3A6.09,6.09,0,0,0,180.88,114.63Z"/><path class="cls-5" d="M170.23,119.25a5.64,5.64,0,0,1-.26-4.52,5.87,5.87,0,0,1,7.8-3.38,5.58,5.58,0,0,1,3.11,3.28,6,6,0,0,0-3.27-2.89,5.73,5.73,0,0,0-7.26,3.15A6.06,6.06,0,0,0,170.23,119.25Z"/><path class="cls-5" d="M159.58,123.87a5.64,5.64,0,0,1-.27-4.52,6,6,0,0,1,3.18-3.36,5.93,5.93,0,0,1,4.62,0,5.6,5.6,0,0,1,3.12,3.28,6,6,0,0,0-3.27-2.89,5.73,5.73,0,0,0-7.26,3.15A6,6,0,0,0,159.58,123.87Z"/><path class="cls-5" d="M148.92,128.49a5.64,5.64,0,0,1-.26-4.52,5.87,5.87,0,0,1,7.8-3.38,5.66,5.66,0,0,1,3.12,3.28,6,6,0,0,0-3.27-2.89,5.66,5.66,0,0,0-4.26.12,5.72,5.72,0,0,0-3,3A6.06,6.06,0,0,0,148.92,128.49Z"/><path class="cls-5" d="M138.27,133.11a5.64,5.64,0,0,1-.26-4.52,5.87,5.87,0,0,1,7.8-3.38,5.61,5.61,0,0,1,3.11,3.28,6,6,0,0,0-3.26-2.89,5.66,5.66,0,0,0-4.26.12,5.72,5.72,0,0,0-3,3A6.06,6.06,0,0,0,138.27,133.11Z"/><path class="cls-5" d="M184.93,124a5.62,5.62,0,0,1-.26-4.51,5.86,5.86,0,0,1,7.8-3.39,5.61,5.61,0,0,1,3.11,3.28,6,6,0,0,0-3.27-2.89,5.66,5.66,0,0,0-4.26.12,5.74,5.74,0,0,0-3,3A6.06,6.06,0,0,0,184.93,124Z"/><path class="cls-5" d="M174.28,128.58a5.62,5.62,0,0,1-.27-4.51,6,6,0,0,1,3.18-3.37,5.93,5.93,0,0,1,4.62,0,5.63,5.63,0,0,1,3.12,3.28,6,6,0,0,0-3.27-2.89,5.73,5.73,0,0,0-7.26,3.15A6,6,0,0,0,174.28,128.58Z"/><path class="cls-5" d="M163.63,133.2a5.58,5.58,0,0,1-.27-4.51,5.86,5.86,0,0,1,7.8-3.39,5.66,5.66,0,0,1,3.12,3.28,6,6,0,0,0-3.27-2.89,5.77,5.77,0,0,0-7.27,3.15A6,6,0,0,0,163.63,133.2Z"/><path class="cls-5" d="M153,137.82a5.62,5.62,0,0,1-.26-4.51,5.86,5.86,0,0,1,7.8-3.39,5.66,5.66,0,0,1,3.12,3.28,6,6,0,0,0-3.27-2.89,5.61,5.61,0,0,0-4.26.13,5.67,5.67,0,0,0-3,3A6.06,6.06,0,0,0,153,137.82Z"/><path class="cls-5" d="M142.32,142.44a5.62,5.62,0,0,1-.27-4.51,5.87,5.87,0,0,1,7.8-3.39,5.63,5.63,0,0,1,3.12,3.28,6,6,0,0,0-3.27-2.89,5.75,5.75,0,0,0-7.26,3.15A6,6,0,0,0,142.32,142.44Z"/></g><ellipse class="cls-3" cx="126.42" cy="69.21" rx="2.01" ry="1.66" transform="translate(42.67 186.51) rotate(-83.17)"/><g class="cls-10"><path class="cls-2" d="M125.6,66.75a2.5,2.5,0,0,0,3.19,1.73l.31-1.78-3.7-1.59Z"/></g></g></svg>