<svg id="Layer_8" data-name="Layer 8" xmlns="http://www.w3.org/2000/svg" xmlns:xlink="http://www.w3.org/1999/xlink" viewBox="0 0 260 168"><defs><style>.cls-1{fill:#fff;}.cls-2{fill:none;}.cls-3{fill:#ff8585;}.cls-4{fill:red;}.cls-5{fill:#7f2828;stroke:#7f2828;stroke-miterlimit:10;stroke-width:0.25px;}.cls-6{clip-path:url(#clip-path);}.cls-7{clip-path:url(#clip-path-2);}.cls-8{fill:#870000;}</style><clipPath id="clip-path"><circle class="cls-1" cx="92.87" cy="98.52" r="8.34" transform="translate(-29.95 155.49) rotate(-71.58)"/></clipPath><clipPath id="clip-path-2"><ellipse class="cls-2" cx="124.9" cy="99.03" rx="43.56" ry="24.93" transform="translate(-3.75 4.92) rotate(-2.22)"/></clipPath></defs><path class="cls-3" d="M128.79,72.89a9.26,9.26,0,0,1-6.28-16.07c-1.16.47-10.18,7.23-9.87,17C113,83.91,118,84.38,124,84.09a10.76,10.76,0,0,0,10.2-9.77,13,13,0,0,0-.46-2.85A9.22,9.22,0,0,1,128.79,72.89Z"/><path class="cls-3" d="M169.72,88.15c2.56-4.42,7.52-8.42,17.11-6.76,0,0,2.6,11.57-9.84,16.58A16,16,0,0,1,187.82,113s-12.29,3.75-18.35-8.06A17.58,17.58,0,0,1,169.72,88.15Z"/><path class="cls-3" d="M137.24,107.68a10.82,10.82,0,0,0-15.29.63c-4,4.4-6.92,8.57.64,15.28s19.06,3.69,19.48,3.23S141.63,111.72,137.24,107.68Z"/><ellipse class="cls-4" cx="124.9" cy="99.03" rx="43.56" ry="24.93" transform="translate(-3.75 4.92) rotate(-2.22)"/><path class="cls-5" d="M98.71,92.5s2.37,0,2.79-2A3.52,3.52,0,0,1,100,94.1Z"/><path class="cls-5" d="M99.87,94s2.59.9,3.8-1.11c0,0-.39,2.86-3,3.36Z"/><circle class="cls-1" cx="92.87" cy="98.52" r="8.34" transform="translate(-29.95 155.49) rotate(-71.58)"/><g class="cls-6"><circle cx="96.69" cy="95.54" r="6.01" transform="translate(-24.51 157.08) rotate(-71.58)"/><circle class="cls-1" cx="98.57" cy="93.08" r="1.7" transform="translate(-20.9 157.18) rotate(-71.58)"/></g><g class="cls-7"><path class="cls-3" d="M113.63,80.14a5.76,5.76,0,0,1-4.46-1.44,6.07,6.07,0,0,1-.35-8.79,5.86,5.86,0,0,1,4.34-1.78,6.23,6.23,0,0,0-4,2.07,6,6,0,0,0,.32,8.19A6.22,6.22,0,0,0,113.63,80.14Z"/><path class="cls-3" d="M114.09,92.15a5.8,5.8,0,0,1-4.46-1.43,6.07,6.07,0,0,1-.34-8.8,5.85,5.85,0,0,1,4.34-1.78,6.25,6.25,0,0,0-4,2.07,5.95,5.95,0,0,0,.31,8.19A6.26,6.26,0,0,0,114.09,92.15Z"/><path class="cls-3" d="M114.56,104.16a5.79,5.79,0,0,1-4.46-1.43,6.07,6.07,0,0,1-.34-8.8,5.83,5.83,0,0,1,4.33-1.78,6.3,6.3,0,0,0-4,2.07,5.91,5.91,0,0,0-1.47,4.16,5.85,5.85,0,0,0,1.79,4A6.22,6.22,0,0,0,114.56,104.16Z"/><path class="cls-3" d="M115,116.18a5.86,5.86,0,0,1-4.46-1.44,6.09,6.09,0,0,1-.34-8.8,5.86,5.86,0,0,1,4.34-1.78,6.3,6.3,0,0,0-4,2.07,6,6,0,0,0,.32,8.19A6.28,6.28,0,0,0,115,116.18Z"/><path class="cls-3" d="M115.49,128.19a5.85,5.85,0,0,1-4.46-1.44,6.07,6.07,0,0,1-.34-8.8,5.78,5.78,0,0,1,4.33-1.77,6.29,6.29,0,0,0-4,2.06,6,6,0,0,0,.32,8.19A6.25,6.25,0,0,0,115.49,128.19Z"/><path class="cls-3" d="M124.15,79.73a5.79,5.79,0,0,1-4.46-1.43,6.08,6.08,0,0,1-.35-8.8,5.86,5.86,0,0,1,4.34-1.78,6.28,6.28,0,0,0-4,2.07A6,6,0,0,0,120,78,6.22,6.22,0,0,0,124.15,79.73Z"/><path class="cls-3" d="M124.61,91.74a5.81,5.81,0,0,1-4.46-1.43,6.09,6.09,0,0,1-.34-8.8,5.85,5.85,0,0,1,4.34-1.78,6.25,6.25,0,0,0-4,2.07,5.95,5.95,0,0,0,.31,8.19A6.26,6.26,0,0,0,124.61,91.74Z"/><path class="cls-3" d="M125.08,103.76a5.85,5.85,0,0,1-4.46-1.44,6.07,6.07,0,0,1-.34-8.8,5.83,5.83,0,0,1,4.33-1.78,6.35,6.35,0,0,0-4,2.07A5.91,5.91,0,0,0,119.12,98a5.85,5.85,0,0,0,1.79,4A6.28,6.28,0,0,0,125.08,103.76Z"/><path class="cls-3" d="M125.55,115.77a5.84,5.84,0,0,1-4.46-1.44,6.08,6.08,0,0,1-.35-8.8,5.82,5.82,0,0,1,4.34-1.77,6.23,6.23,0,0,0-4,2.07,6,6,0,0,0,.32,8.19A6.27,6.27,0,0,0,125.55,115.77Z"/><path class="cls-3" d="M126,127.78a5.86,5.86,0,0,1-4.46-1.44,6.09,6.09,0,0,1-.34-8.8,5.8,5.8,0,0,1,4.34-1.77,6.21,6.21,0,0,0-4,2.07,5.85,5.85,0,0,0-1.48,4.15,6,6,0,0,0,1.79,4A6.31,6.31,0,0,0,126,127.78Z"/><path class="cls-3" d="M134.67,79.32a5.8,5.8,0,0,1-4.46-1.43,6.07,6.07,0,0,1-.34-8.8,5.83,5.83,0,0,1,4.33-1.78,6.3,6.3,0,0,0-4,2.07,5.91,5.91,0,0,0-1.47,4.16,5.85,5.85,0,0,0,1.79,4A6.22,6.22,0,0,0,134.67,79.32Z"/><path class="cls-3" d="M135.14,91.34a5.87,5.87,0,0,1-4.47-1.44,6.09,6.09,0,0,1-.34-8.8,5.86,5.86,0,0,1,4.34-1.78,6.3,6.3,0,0,0-4,2.07,6,6,0,0,0,.32,8.19A6.28,6.28,0,0,0,135.14,91.34Z"/><path class="cls-3" d="M135.6,103.35a5.85,5.85,0,0,1-4.46-1.44,6.07,6.07,0,0,1-.34-8.8,5.79,5.79,0,0,1,4.34-1.77,6.25,6.25,0,0,0-4,2.07,6,6,0,0,0,.32,8.19A6.31,6.31,0,0,0,135.6,103.35Z"/><path class="cls-3" d="M136.07,115.36a5.84,5.84,0,0,1-4.46-1.44,6.07,6.07,0,0,1-.34-8.8,5.78,5.78,0,0,1,4.33-1.77,6.23,6.23,0,0,0-4,2.07,6,6,0,0,0,.32,8.19A6.27,6.27,0,0,0,136.07,115.36Z"/><path class="cls-3" d="M136.53,127.37a5.86,5.86,0,0,1-4.46-1.44,6.08,6.08,0,0,1-.34-8.79,5.81,5.81,0,0,1,4.34-1.78,6.21,6.21,0,0,0-4,2.07,5.94,5.94,0,0,0,.32,8.19A6.22,6.22,0,0,0,136.53,127.37Z"/><path class="cls-3" d="M145.19,78.92a5.85,5.85,0,0,1-4.46-1.44,6.07,6.07,0,0,1-.34-8.8,5.83,5.83,0,0,1,4.33-1.78,6.35,6.35,0,0,0-4,2.07,5.93,5.93,0,0,0-1.47,4.16,5.85,5.85,0,0,0,1.79,4A6.23,6.23,0,0,0,145.19,78.92Z"/><path class="cls-3" d="M145.66,90.93a5.84,5.84,0,0,1-4.46-1.44,6.15,6.15,0,0,1-2.06-4.32,6.21,6.21,0,0,1,1.71-4.48,5.82,5.82,0,0,1,4.34-1.77,6.23,6.23,0,0,0-4,2.07,6,6,0,0,0,.32,8.19A6.27,6.27,0,0,0,145.66,90.93Z"/><path class="cls-3" d="M146.12,102.94a5.86,5.86,0,0,1-4.46-1.44,6.09,6.09,0,0,1-.34-8.8,5.84,5.84,0,0,1,4.34-1.77,6.21,6.21,0,0,0-4,2.07,5.85,5.85,0,0,0-1.48,4.15,6,6,0,0,0,1.79,4A6.31,6.31,0,0,0,146.12,102.94Z"/><path class="cls-3" d="M146.59,115a5.85,5.85,0,0,1-4.46-1.44,6.06,6.06,0,0,1-.34-8.79,5.79,5.79,0,0,1,4.33-1.78,6.25,6.25,0,0,0-4,2.07,6,6,0,0,0,.32,8.19A6.22,6.22,0,0,0,146.59,115Z"/><path class="cls-3" d="M147.06,127a5.84,5.84,0,0,1-4.46-1.44,6.07,6.07,0,0,1-.35-8.79,5.83,5.83,0,0,1,4.34-1.78,6.23,6.23,0,0,0-4,2.07,6,6,0,0,0,.32,8.19A6.22,6.22,0,0,0,147.06,127Z"/><path class="cls-3" d="M155.71,78.51a5.85,5.85,0,0,1-4.46-1.44,6.07,6.07,0,0,1-.34-8.8,5.8,5.8,0,0,1,4.34-1.77,6.25,6.25,0,0,0-4,2.07,6,6,0,0,0,.32,8.19A6.31,6.31,0,0,0,155.71,78.51Z"/><path class="cls-3" d="M156.18,90.52a5.84,5.84,0,0,1-4.46-1.44,6.07,6.07,0,0,1-.34-8.8,5.82,5.82,0,0,1,4.33-1.77,6.23,6.23,0,0,0-4,2.07,6,6,0,0,0,.32,8.19A6.27,6.27,0,0,0,156.18,90.52Z"/><path class="cls-3" d="M156.64,102.53a5.86,5.86,0,0,1-4.46-1.44,6.08,6.08,0,0,1-.34-8.79,5.83,5.83,0,0,1,4.34-1.78,6.21,6.21,0,0,0-4,2.07,6,6,0,0,0,.32,8.19A6.22,6.22,0,0,0,156.64,102.53Z"/><path class="cls-3" d="M157.11,114.54a5.85,5.85,0,0,1-4.46-1.44,6.06,6.06,0,0,1-.34-8.79,5.79,5.79,0,0,1,4.33-1.78,6.25,6.25,0,0,0-4,2.07,6,6,0,0,0,.32,8.19A6.24,6.24,0,0,0,157.11,114.54Z"/><path class="cls-3" d="M157.58,126.55a5.8,5.8,0,0,1-4.46-1.44,6.06,6.06,0,0,1-.34-8.79,5.83,5.83,0,0,1,4.33-1.78,6.23,6.23,0,0,0-4,2.07,6,6,0,0,0,.32,8.19A6.22,6.22,0,0,0,157.58,126.55Z"/><path class="cls-3" d="M166.23,78.1a5.86,5.86,0,0,1-4.46-1.44,6.08,6.08,0,0,1-.34-8.79,5.81,5.81,0,0,1,4.34-1.78,6.21,6.21,0,0,0-4,2.07,5.95,5.95,0,0,0,.31,8.19A6.31,6.31,0,0,0,166.23,78.1Z"/><path class="cls-3" d="M166.7,90.11a5.85,5.85,0,0,1-4.46-1.44,6.06,6.06,0,0,1-.34-8.79,5.79,5.79,0,0,1,4.33-1.78,6.25,6.25,0,0,0-4,2.07,6,6,0,0,0,.32,8.19A6.22,6.22,0,0,0,166.7,90.11Z"/><path class="cls-3" d="M167.17,102.12a5.84,5.84,0,0,1-4.46-1.44,6.07,6.07,0,0,1-.35-8.79,5.83,5.83,0,0,1,4.34-1.78,6.23,6.23,0,0,0-4,2.07,6,6,0,0,0,.32,8.19A6.22,6.22,0,0,0,167.17,102.12Z"/><path class="cls-3" d="M167.63,114.13a5.82,5.82,0,0,1-4.46-1.44,6.08,6.08,0,0,1-.34-8.79,5.85,5.85,0,0,1,4.34-1.78,6.21,6.21,0,0,0-4,2.07,5.86,5.86,0,0,0-1.48,4.16,5.93,5.93,0,0,0,1.79,4A6.26,6.26,0,0,0,167.63,114.13Z"/><path class="cls-3" d="M168.1,126.14a5.8,5.8,0,0,1-4.46-1.43,6.07,6.07,0,0,1-.34-8.8,5.83,5.83,0,0,1,4.33-1.78,6.25,6.25,0,0,0-4,2.07,6,6,0,0,0,.32,8.19A6.22,6.22,0,0,0,168.1,126.14Z"/></g><path class="cls-3" d="M128.79,72.89a9.26,9.26,0,0,1-6.28-16.07c-1.16.47-10.18,7.23-9.87,17C113,83.91,118,84.38,124,84.09a10.76,10.76,0,0,0,10.2-9.77,13,13,0,0,0-.46-2.85A9.22,9.22,0,0,1,128.79,72.89Z"/><path class="cls-3" d="M169.72,88.15c2.56-4.42,7.52-8.42,17.11-6.76,0,0,2.6,11.57-9.84,16.58A16,16,0,0,1,187.82,113s-12.29,3.75-18.35-8.06A17.58,17.58,0,0,1,169.72,88.15Z"/><path class="cls-3" d="M137.24,107.68a10.82,10.82,0,0,0-15.29.63c-4,4.4-6.92,8.57.64,15.28s19.06,3.69,19.48,3.23S141.63,111.72,137.24,107.68Z"/><ellipse class="cls-4" cx="124.9" cy="99.03" rx="43.56" ry="24.93" transform="translate(-3.75 4.92) rotate(-2.22)"/><path class="cls-5" d="M98.71,92.5s2.37,0,2.79-2A3.52,3.52,0,0,1,100,94.1Z"/><path class="cls-5" d="M99.87,94s2.59.9,3.8-1.11c0,0-.39,2.86-3,3.36Z"/><circle class="cls-1" cx="92.87" cy="98.52" r="8.34" transform="translate(-29.95 155.49) rotate(-71.58)"/><g class="cls-6"><circle cx="96.69" cy="95.54" r="6.01" transform="translate(-24.51 157.08) rotate(-71.58)"/><circle class="cls-1" cx="98.57" cy="93.08" r="1.7" transform="translate(-20.9 157.18) rotate(-71.58)"/></g><g class="cls-7"><path class="cls-3" d="M113.63,80.14a5.76,5.76,0,0,1-4.46-1.44,6.07,6.07,0,0,1-.35-8.79,5.86,5.86,0,0,1,4.34-1.78,6.23,6.23,0,0,0-4,2.07,6,6,0,0,0,.32,8.19A6.22,6.22,0,0,0,113.63,80.14Z"/><path class="cls-3" d="M114.09,92.15a5.8,5.8,0,0,1-4.46-1.43,6.07,6.07,0,0,1-.34-8.8,5.85,5.85,0,0,1,4.34-1.78,6.25,6.25,0,0,0-4,2.07,5.95,5.95,0,0,0,.31,8.19A6.26,6.26,0,0,0,114.09,92.15Z"/><path class="cls-3" d="M114.56,104.16a5.79,5.79,0,0,1-4.46-1.43,6.07,6.07,0,0,1-.34-8.8,5.83,5.83,0,0,1,4.33-1.78,6.3,6.3,0,0,0-4,2.07,5.91,5.91,0,0,0-1.47,4.16,5.85,5.85,0,0,0,1.79,4A6.22,6.22,0,0,0,114.56,104.16Z"/><path class="cls-3" d="M115,116.18a5.86,5.86,0,0,1-4.46-1.44,6.09,6.09,0,0,1-.34-8.8,5.86,5.86,0,0,1,4.34-1.78,6.3,6.3,0,0,0-4,2.07,6,6,0,0,0,.32,8.19A6.28,6.28,0,0,0,115,116.18Z"/><path class="cls-3" d="M115.49,128.19a5.85,5.85,0,0,1-4.46-1.44,6.07,6.07,0,0,1-.34-8.8,5.78,5.78,0,0,1,4.33-1.77,6.29,6.29,0,0,0-4,2.06,6,6,0,0,0,.32,8.19A6.25,6.25,0,0,0,115.49,128.19Z"/><path class="cls-3" d="M124.15,79.73a5.79,5.79,0,0,1-4.46-1.43,6.08,6.08,0,0,1-.35-8.8,5.86,5.86,0,0,1,4.34-1.78,6.28,6.28,0,0,0-4,2.07A6,6,0,0,0,120,78,6.22,6.22,0,0,0,124.15,79.73Z"/><path class="cls-3" d="M124.61,91.74a5.81,5.81,0,0,1-4.46-1.43,6.09,6.09,0,0,1-.34-8.8,5.85,5.85,0,0,1,4.34-1.78,6.25,6.25,0,0,0-4,2.07,5.95,5.95,0,0,0,.31,8.19A6.26,6.26,0,0,0,124.61,91.74Z"/><path class="cls-3" d="M125.08,103.76a5.85,5.85,0,0,1-4.46-1.44,6.07,6.07,0,0,1-.34-8.8,5.83,5.83,0,0,1,4.33-1.78,6.35,6.35,0,0,0-4,2.07A5.91,5.91,0,0,0,119.12,98a5.85,5.85,0,0,0,1.79,4A6.28,6.28,0,0,0,125.08,103.76Z"/><path class="cls-3" d="M125.55,115.77a5.84,5.84,0,0,1-4.46-1.44,6.08,6.08,0,0,1-.35-8.8,5.82,5.82,0,0,1,4.34-1.77,6.23,6.23,0,0,0-4,2.07,6,6,0,0,0,.32,8.19A6.27,6.27,0,0,0,125.55,115.77Z"/><path class="cls-3" d="M126,127.78a5.86,5.86,0,0,1-4.46-1.44,6.09,6.09,0,0,1-.34-8.8,5.8,5.8,0,0,1,4.34-1.77,6.21,6.21,0,0,0-4,2.07,5.85,5.85,0,0,0-1.48,4.15,6,6,0,0,0,1.79,4A6.31,6.31,0,0,0,126,127.78Z"/><path class="cls-3" d="M134.67,79.32a5.8,5.8,0,0,1-4.46-1.43,6.07,6.07,0,0,1-.34-8.8,5.83,5.83,0,0,1,4.33-1.78,6.3,6.3,0,0,0-4,2.07,5.91,5.91,0,0,0-1.47,4.16,5.85,5.85,0,0,0,1.79,4A6.22,6.22,0,0,0,134.67,79.32Z"/><path class="cls-3" d="M135.14,91.34a5.87,5.87,0,0,1-4.47-1.44,6.09,6.09,0,0,1-.34-8.8,5.86,5.86,0,0,1,4.34-1.78,6.3,6.3,0,0,0-4,2.07,6,6,0,0,0,.32,8.19A6.28,6.28,0,0,0,135.14,91.34Z"/><path class="cls-3" d="M135.6,103.35a5.85,5.85,0,0,1-4.46-1.44,6.07,6.07,0,0,1-.34-8.8,5.79,5.79,0,0,1,4.34-1.77,6.25,6.25,0,0,0-4,2.07,6,6,0,0,0,.32,8.19A6.31,6.31,0,0,0,135.6,103.35Z"/><path class="cls-3" d="M136.07,115.36a5.84,5.84,0,0,1-4.46-1.44,6.07,6.07,0,0,1-.34-8.8,5.78,5.78,0,0,1,4.33-1.77,6.23,6.23,0,0,0-4,2.07,6,6,0,0,0,.32,8.19A6.27,6.27,0,0,0,136.07,115.36Z"/><path class="cls-3" d="M136.53,127.37a5.86,5.86,0,0,1-4.46-1.44,6.08,6.08,0,0,1-.34-8.79,5.81,5.81,0,0,1,4.34-1.78,6.21,6.21,0,0,0-4,2.07,5.94,5.94,0,0,0,.32,8.19A6.22,6.22,0,0,0,136.53,127.37Z"/><path class="cls-3" d="M145.19,78.92a5.85,5.85,0,0,1-4.46-1.44,6.07,6.07,0,0,1-.34-8.8,5.83,5.83,0,0,1,4.33-1.78,6.35,6.35,0,0,0-4,2.07,5.93,5.93,0,0,0-1.47,4.16,5.85,5.85,0,0,0,1.79,4A6.23,6.23,0,0,0,145.19,78.92Z"/><path class="cls-3" d="M145.66,90.93a5.84,5.84,0,0,1-4.46-1.44,6.15,6.15,0,0,1-2.06-4.32,6.21,6.21,0,0,1,1.71-4.48,5.82,5.82,0,0,1,4.34-1.77,6.23,6.23,0,0,0-4,2.07,6,6,0,0,0,.32,8.19A6.27,6.27,0,0,0,145.66,90.93Z"/><path class="cls-3" d="M146.12,102.94a5.86,5.86,0,0,1-4.46-1.44,6.09,6.09,0,0,1-.34-8.8,5.84,5.84,0,0,1,4.34-1.77,6.21,6.21,0,0,0-4,2.07,5.85,5.85,0,0,0-1.48,4.15,6,6,0,0,0,1.79,4A6.31,6.31,0,0,0,146.12,102.94Z"/><path class="cls-3" d="M146.59,115a5.85,5.85,0,0,1-4.46-1.44,6.06,6.06,0,0,1-.34-8.79,5.79,5.79,0,0,1,4.33-1.78,6.25,6.25,0,0,0-4,2.07,6,6,0,0,0,.32,8.19A6.22,6.22,0,0,0,146.59,115Z"/><path class="cls-3" d="M147.06,127a5.84,5.84,0,0,1-4.46-1.44,6.07,6.07,0,0,1-.35-8.79,5.83,5.83,0,0,1,4.34-1.78,6.23,6.23,0,0,0-4,2.07,6,6,0,0,0,.32,8.19A6.22,6.22,0,0,0,147.06,127Z"/><path class="cls-3" d="M155.71,78.51a5.85,5.85,0,0,1-4.46-1.44,6.07,6.07,0,0,1-.34-8.8,5.8,5.8,0,0,1,4.34-1.77,6.25,6.25,0,0,0-4,2.07,6,6,0,0,0,.32,8.19A6.31,6.31,0,0,0,155.71,78.51Z"/><path class="cls-3" d="M156.18,90.52a5.84,5.84,0,0,1-4.46-1.44,6.07,6.07,0,0,1-.34-8.8,5.82,5.82,0,0,1,4.33-1.77,6.23,6.23,0,0,0-4,2.07,6,6,0,0,0,.32,8.19A6.27,6.27,0,0,0,156.18,90.52Z"/><path class="cls-3" d="M156.64,102.53a5.86,5.86,0,0,1-4.46-1.44,6.08,6.08,0,0,1-.34-8.79,5.83,5.83,0,0,1,4.34-1.78,6.21,6.21,0,0,0-4,2.07,6,6,0,0,0,.32,8.19A6.22,6.22,0,0,0,156.64,102.53Z"/><path class="cls-3" d="M157.11,114.54a5.85,5.85,0,0,1-4.46-1.44,6.06,6.06,0,0,1-.34-8.79,5.79,5.79,0,0,1,4.33-1.78,6.25,6.25,0,0,0-4,2.07,6,6,0,0,0,.32,8.19A6.24,6.24,0,0,0,157.11,114.54Z"/><path class="cls-3" d="M157.58,126.55a5.8,5.8,0,0,1-4.46-1.44,6.06,6.06,0,0,1-.34-8.79,5.83,5.83,0,0,1,4.33-1.78,6.23,6.23,0,0,0-4,2.07,6,6,0,0,0,.32,8.19A6.22,6.22,0,0,0,157.58,126.55Z"/><path class="cls-3" d="M166.23,78.1a5.86,5.86,0,0,1-4.46-1.44,6.08,6.08,0,0,1-.34-8.79,5.81,5.81,0,0,1,4.34-1.78,6.21,6.21,0,0,0-4,2.07,5.95,5.95,0,0,0,.31,8.19A6.31,6.31,0,0,0,166.23,78.1Z"/><path class="cls-3" d="M166.7,90.11a5.85,5.85,0,0,1-4.46-1.44,6.06,6.06,0,0,1-.34-8.79,5.79,5.79,0,0,1,4.33-1.78,6.25,6.25,0,0,0-4,2.07,6,6,0,0,0,.32,8.19A6.22,6.22,0,0,0,166.7,90.11Z"/><path class="cls-3" d="M167.17,102.12a5.84,5.84,0,0,1-4.46-1.44,6.07,6.07,0,0,1-.35-8.79,5.83,5.83,0,0,1,4.34-1.78,6.23,6.23,0,0,0-4,2.07,6,6,0,0,0,.32,8.19A6.22,6.22,0,0,0,167.17,102.12Z"/><path class="cls-3" d="M167.63,114.13a5.82,5.82,0,0,1-4.46-1.44,6.08,6.08,0,0,1-.34-8.79,5.85,5.85,0,0,1,4.34-1.78,6.21,6.21,0,0,0-4,2.07,5.86,5.86,0,0,0-1.48,4.16,5.93,5.93,0,0,0,1.79,4A6.26,6.26,0,0,0,167.63,114.13Z"/><path class="cls-3" d="M168.1,126.14a5.8,5.8,0,0,1-4.46-1.43,6.07,6.07,0,0,1-.34-8.8,5.83,5.83,0,0,1,4.33-1.78,6.25,6.25,0,0,0-4,2.07,6,6,0,0,0,.32,8.19A6.22,6.22,0,0,0,168.1,126.14Z"/></g><path class="cls-8" d="M88.18,111.86s3.51-1,5,1S87.85,113.78,88.18,111.86Z"/></svg>