<svg id="Layer_1" data-name="Layer 1" xmlns="http://www.w3.org/2000/svg" xmlns:xlink="http://www.w3.org/1999/xlink" viewBox="0 0 260 168"><defs><style>.cls-1{fill:#fff;}.cls-2{fill:none;}.cls-3{fill:#ff8585;}.cls-4{fill:red;}.cls-5{fill:#7f2828;stroke:#7f2828;stroke-miterlimit:10;stroke-width:0.09px;}.cls-6{clip-path:url(#clip-path);}.cls-7{clip-path:url(#clip-path-2);}</style><clipPath id="clip-path"><circle class="cls-1" cx="133.47" cy="144.61" r="2.96"/></clipPath><clipPath id="clip-path-2"><ellipse class="cls-2" cx="135.06" cy="155.88" rx="8.86" ry="15.47" transform="translate(-27.53 28.98) rotate(-11.12)"/></clipPath></defs><path class="cls-3" d="M132.7,160.68a3.83,3.83,0,0,0-1.07-5.32c-1.76-1.18-3.38-2-5.32,1.06s-.25,6.89-.07,7S131.52,162.45,132.7,160.68Z"/><path class="cls-3" d="M140.54,159.25a3.83,3.83,0,0,1-1-5.33c1.19-1.76,2.39-3.1,5.33-1s2.84,6.29,2.72,6.47S142.3,160.44,140.54,159.25Z"/><ellipse class="cls-4" cx="135.06" cy="155.88" rx="8.86" ry="15.47" transform="translate(-27.53 28.98) rotate(-11.12)"/><path class="cls-5" d="M135.91,146.33s.13.83.85.87a1.26,1.26,0,0,1-1.34-.32Z"/><path class="cls-5" d="M135.44,146.82s-.17,1,.6,1.27a1.43,1.43,0,0,1-1.34-.86Z"/><circle class="cls-1" cx="133.47" cy="144.61" r="2.96"/><g class="cls-6"><circle cx="133.94" cy="143.28" r="2.14"/><circle class="cls-1" cx="134.9" cy="143.8" r="0.6"/></g><g class="cls-7"><path class="cls-3" d="M141.06,150.88a2.12,2.12,0,0,1,.26-1.64,2.23,2.23,0,0,1,1.41-1,2.17,2.17,0,0,1,1.66.36,2,2,0,0,1,.86,1.42,2.14,2.14,0,0,0-4.19.82Z"/><path class="cls-3" d="M136.87,151.71a2.14,2.14,0,0,1,.26-1.65,2.16,2.16,0,0,1,3.07-.6,2.06,2.06,0,0,1,.86,1.42,2.14,2.14,0,0,0-4.19.83Z"/><path class="cls-3" d="M132.68,152.53a2.12,2.12,0,0,1,.26-1.64,2.19,2.19,0,0,1,1.41-1,2.17,2.17,0,0,1,1.66.35,2.08,2.08,0,0,1,.86,1.43,2.14,2.14,0,0,0-4.19.82Z"/><path class="cls-3" d="M128.49,153.36a2.13,2.13,0,0,1,.26-1.65,2.23,2.23,0,0,1,1.41-1,2.17,2.17,0,0,1,1.66.36,2,2,0,0,1,.86,1.42,2.14,2.14,0,0,0-4.19.83Z"/><path class="cls-3" d="M124.3,154.18a2.14,2.14,0,0,1,.26-1.65,2.16,2.16,0,0,1,3.07-.6,2,2,0,0,1,.86,1.43,2.14,2.14,0,0,0-4.19.82Z"/><path class="cls-3" d="M141.79,154.55a2,2,0,0,1,.26-1.64,2.14,2.14,0,0,1,3.06-.6,2.06,2.06,0,0,1,.87,1.42,2.14,2.14,0,0,0-4.19.82Z"/><path class="cls-3" d="M137.6,155.38a2.06,2.06,0,0,1,.26-1.65,2.18,2.18,0,0,1,1.4-1,2.22,2.22,0,0,1,1.66.36,2.08,2.08,0,0,1,.87,1.42,2.14,2.14,0,0,0-4.19.83Z"/><path class="cls-3" d="M133.41,156.2a2,2,0,0,1,.26-1.64,2.15,2.15,0,0,1,1.4-1,2.21,2.21,0,0,1,1.66.35,2.1,2.1,0,0,1,.87,1.43,2.14,2.14,0,0,0-4.19.82Z"/><path class="cls-3" d="M129.22,157a2.05,2.05,0,0,1,.26-1.65,2.14,2.14,0,0,1,3.06-.6,2.06,2.06,0,0,1,.87,1.42,2.14,2.14,0,0,0-4.19.83Z"/><path class="cls-3" d="M125,157.85a2.06,2.06,0,0,1,.26-1.65,2.13,2.13,0,0,1,1.4-.95,2.17,2.17,0,0,1,1.66.35,2.08,2.08,0,0,1,.87,1.43,2.14,2.14,0,0,0-4.19.82Z"/><path class="cls-3" d="M142.51,158.22a2,2,0,0,1,.26-1.64,2.15,2.15,0,0,1,3.07-.6,2.08,2.08,0,0,1,.86,1.42,2.14,2.14,0,0,0-4.19.82Z"/><path class="cls-3" d="M138.32,159.05a2.06,2.06,0,0,1,.26-1.65,2.21,2.21,0,0,1,1.4-1,2.24,2.24,0,0,1,1.67.36,2.1,2.1,0,0,1,.86,1.42,2.14,2.14,0,0,0-4.19.83Z"/><path class="cls-3" d="M134.13,159.87a2,2,0,0,1,.26-1.64,2.21,2.21,0,0,1,1.4-1,2.24,2.24,0,0,1,1.67.35,2.12,2.12,0,0,1,.86,1.43,2.14,2.14,0,0,0-4.19.82Z"/><path class="cls-3" d="M129.94,160.7a2.05,2.05,0,0,1,.26-1.65,2.15,2.15,0,0,1,3.07-.6,2.08,2.08,0,0,1,.86,1.42,2.14,2.14,0,0,0-4.19.83Z"/><path class="cls-3" d="M125.75,161.52a2,2,0,0,1,.26-1.64,2.14,2.14,0,0,1,1.4-1,2.19,2.19,0,0,1,1.67.35,2.1,2.1,0,0,1,.86,1.43,2.14,2.14,0,0,0-4.19.82Z"/><path class="cls-3" d="M143.23,161.9a2.05,2.05,0,0,1,.26-1.65,2.15,2.15,0,0,1,3.07-.6,2.08,2.08,0,0,1,.86,1.42,2.14,2.14,0,0,0-4.19.83Z"/><path class="cls-3" d="M139,162.72a2.06,2.06,0,0,1,.26-1.65,2.21,2.21,0,0,1,1.4-1,2.24,2.24,0,0,1,1.67.36,2.1,2.1,0,0,1,.86,1.43,2.14,2.14,0,0,0-4.19.82Z"/><path class="cls-3" d="M134.85,163.54a2,2,0,0,1,.26-1.64,2.21,2.21,0,0,1,1.4-1,2.24,2.24,0,0,1,1.67.35,2.12,2.12,0,0,1,.86,1.43,2.14,2.14,0,0,0-4.19.82Z"/><path class="cls-3" d="M130.66,164.37a2.05,2.05,0,0,1,.26-1.65,2.15,2.15,0,0,1,3.07-.6,2.1,2.1,0,0,1,.86,1.42,2.14,2.14,0,0,0-4.19.83Z"/><path class="cls-3" d="M126.47,165.19a2,2,0,0,1,.26-1.64,2.14,2.14,0,0,1,1.4-1,2.18,2.18,0,0,1,1.67.35,2.12,2.12,0,0,1,.86,1.43,2.14,2.14,0,0,0-4.19.82Z"/><path class="cls-3" d="M144,165.57a2.05,2.05,0,0,1,.26-1.65,2.15,2.15,0,0,1,3.07-.6,2.08,2.08,0,0,1,.86,1.42,2.14,2.14,0,0,0-4.19.83Z"/><path class="cls-3" d="M139.76,166.39a2.06,2.06,0,0,1,.26-1.65,2.15,2.15,0,0,1,3.07-.6,2.1,2.1,0,0,1,.86,1.43,2.14,2.14,0,0,0-4.19.82Z"/><path class="cls-3" d="M135.57,167.21a2.08,2.08,0,0,1,.26-1.64,2.17,2.17,0,0,1,3.07-.61,2.12,2.12,0,0,1,.86,1.43,2.14,2.14,0,0,0-4.19.82Z"/><path class="cls-3" d="M131.38,168a2.09,2.09,0,0,1,.26-1.65,2.15,2.15,0,0,1,3.07-.6,2.06,2.06,0,0,1,.86,1.42,2.14,2.14,0,0,0-4.19.83Z"/><path class="cls-3" d="M127.19,168.86a2.07,2.07,0,0,1,.26-1.64,2.14,2.14,0,0,1,1.4-1,2.18,2.18,0,0,1,1.67.35,2.08,2.08,0,0,1,.86,1.43,2.14,2.14,0,0,0-4.19.82Z"/><path class="cls-3" d="M144.67,169.24a2.13,2.13,0,0,1,.26-1.65,2.2,2.2,0,0,1,1.41-1A2.17,2.17,0,0,1,148,167a2,2,0,0,1,.86,1.42,2.14,2.14,0,0,0-4.19.83Z"/><path class="cls-3" d="M140.48,170.06a2.11,2.11,0,0,1,.26-1.64,2.13,2.13,0,0,1,1.41-1,2.17,2.17,0,0,1,1.66.35,2.06,2.06,0,0,1,.86,1.43,2.14,2.14,0,0,0-4.19.82Z"/></g></svg>