<svg id="Layer_1" data-name="Layer 1" xmlns="http://www.w3.org/2000/svg" xmlns:xlink="http://www.w3.org/1999/xlink" viewBox="0 0 260 168"><defs><style>.cls-1{fill:none;}.cls-2{fill:#870000;}.cls-3{fill:#ff8585;}.cls-4{fill:red;}.cls-5{fill:#7f2828;stroke:#7f2828;stroke-miterlimit:10;stroke-width:0.07px;}.cls-6{fill:#fff;}.cls-7{clip-path:url(#clip-path);}.cls-8{clip-path:url(#clip-path-2);}</style><clipPath id="clip-path"><ellipse class="cls-1" cx="191.37" cy="132.14" rx="13" ry="7.43" transform="translate(-26.27 50.19) rotate(-13.99)"/></clipPath><clipPath id="clip-path-2"><path class="cls-2" d="M202.54,132.55a3.37,3.37,0,0,1-2.58.71S201.33,136.63,202.54,132.55Z"/></clipPath></defs><path class="cls-3" d="M177.62,132.77c-1.11-1.05-2.86-1.78-5.48-.51a4.4,4.4,0,0,0,4.21,3.93,4.76,4.76,0,0,0-1.85,5.21,4.68,4.68,0,0,0,4.59-3.84A5.22,5.22,0,0,0,177.62,132.77Z"/><path class="cls-3" d="M188.56,135.65a3.22,3.22,0,0,1,4.43-1.1c1.53.92,2.7,1.88,1.09,4.43s-5.15,2.64-5.31,2.55S187.63,137.17,188.56,135.65Z"/><path class="cls-3" d="M186.85,129.18a3.22,3.22,0,0,0,4.42-1.12c.92-1.53,1.5-2.92-1.11-4.42s-5.8.09-5.9.25S185.32,128.27,186.85,129.18Z"/><ellipse class="cls-4" cx="191.37" cy="132.14" rx="13" ry="7.43" transform="translate(-26.27 50.19) rotate(-13.99)"/><path class="cls-5" d="M198.33,128.09s-.68.2-1-.34a1.05,1.05,0,0,0,.72.91Z"/><path class="cls-5" d="M198.13,128.62a1,1,0,0,1-1.18,0,1.21,1.21,0,0,0,1.13.71Z"/><ellipse class="cls-6" cx="200.51" cy="129.32" rx="2.49" ry="2.48" transform="translate(-12.42 21.67) rotate(-6)"/><circle cx="200.51" cy="129.32" r="1.79" transform="translate(-12.42 21.68) rotate(-6)"/><circle class="cls-6" cx="199.77" cy="128.78" r="0.51" transform="translate(-12.37 21.59) rotate(-6)"/><g class="cls-7"><path class="cls-3" d="M193,125.8a1.91,1.91,0,0,0,1.05-.84,1.72,1.72,0,0,0,.17-1.31,1.75,1.75,0,0,0-.76-1.08,1.92,1.92,0,0,0-1.33-.24,1.68,1.68,0,0,1,1.38.15,1.84,1.84,0,0,1,.87,1.13,1.81,1.81,0,0,1-.23,1.4A1.72,1.72,0,0,1,193,125.8Z"/><path class="cls-3" d="M193.89,129.27a1.9,1.9,0,0,0,1.06-.84,1.71,1.71,0,0,0,.17-1.31,1.74,1.74,0,0,0-.77-1.07,1.89,1.89,0,0,0-1.32-.25,1.72,1.72,0,0,1,1.38.15,1.79,1.79,0,0,1,.64,2.54A1.74,1.74,0,0,1,193.89,129.27Z"/><path class="cls-3" d="M194.76,132.75a1.9,1.9,0,0,0,1.06-.84,1.81,1.81,0,0,0-.6-2.39,2,2,0,0,0-1.33-.25,1.74,1.74,0,0,1,1.39.16,1.77,1.77,0,0,1,.63,2.53A1.68,1.68,0,0,1,194.76,132.75Z"/><path class="cls-3" d="M195.63,136.22a1.9,1.9,0,0,0,1.06-.84,1.79,1.79,0,0,0-.6-2.38,1.91,1.91,0,0,0-1.33-.25,1.7,1.7,0,0,1,1.39.15A1.9,1.9,0,0,1,197,134a1.88,1.88,0,0,1-.24,1.41A1.7,1.7,0,0,1,195.63,136.22Z"/><path class="cls-3" d="M196.5,139.7a1.91,1.91,0,0,0,1.06-.85,1.69,1.69,0,0,0,.17-1.3,1.73,1.73,0,0,0-.77-1.08,2,2,0,0,0-1.33-.25,1.74,1.74,0,0,1,1.39.16,1.77,1.77,0,0,1,.63,2.53A1.68,1.68,0,0,1,196.5,139.7Z"/><path class="cls-3" d="M190,126.56a1.91,1.91,0,0,0,1.05-.84,1.81,1.81,0,0,0-.59-2.38,1.87,1.87,0,0,0-1.33-.25,1.68,1.68,0,0,1,1.38.15,1.79,1.79,0,0,1,.64,2.53A1.72,1.72,0,0,1,190,126.56Z"/><path class="cls-3" d="M190.84,130a2,2,0,0,0,1.06-.85,1.71,1.71,0,0,0,.17-1.31,1.74,1.74,0,0,0-.77-1.07,1.89,1.89,0,0,0-1.32-.25,1.72,1.72,0,0,1,1.38.15,1.86,1.86,0,0,1,.87,1.13,1.92,1.92,0,0,1-.23,1.41A1.75,1.75,0,0,1,190.84,130Z"/><path class="cls-3" d="M191.71,133.51a1.9,1.9,0,0,0,1.06-.84,1.72,1.72,0,0,0,.17-1.31,1.76,1.76,0,0,0-.77-1.08,1.9,1.9,0,0,0-1.33-.24,1.7,1.7,0,0,1,1.39.15,1.77,1.77,0,0,1,.63,2.53A1.68,1.68,0,0,1,191.71,133.51Z"/><path class="cls-3" d="M192.58,137a2,2,0,0,0,1.06-.85,1.71,1.71,0,0,0,.17-1.31,1.74,1.74,0,0,0-.77-1.07,1.91,1.91,0,0,0-1.33-.25,1.74,1.74,0,0,1,1.39.15,1.9,1.9,0,0,1,.87,1.13,1.88,1.88,0,0,1-.24,1.41A1.74,1.74,0,0,1,192.58,137Z"/><path class="cls-3" d="M193.45,140.46a1.9,1.9,0,0,0,1.06-.84,1.81,1.81,0,0,0-.6-2.39,1.91,1.91,0,0,0-1.33-.24,1.7,1.7,0,0,1,1.39.15,1.77,1.77,0,0,1,.63,2.53A1.68,1.68,0,0,1,193.45,140.46Z"/><path class="cls-3" d="M186.93,127.32a1.91,1.91,0,0,0,1-.84,1.81,1.81,0,0,0-.59-2.38,1.87,1.87,0,0,0-1.33-.25,1.68,1.68,0,0,1,1.38.15,1.84,1.84,0,0,1,.87,1.13,1.88,1.88,0,0,1-.23,1.41A1.74,1.74,0,0,1,186.93,127.32Z"/><path class="cls-3" d="M187.79,130.8a2,2,0,0,0,1.06-.85,1.71,1.71,0,0,0,.17-1.31,1.74,1.74,0,0,0-.77-1.07,1.89,1.89,0,0,0-1.32-.25,1.68,1.68,0,0,1,1.38.16,1.82,1.82,0,0,1,.87,1.12A1.92,1.92,0,0,1,189,130,1.72,1.72,0,0,1,187.79,130.8Z"/><path class="cls-3" d="M188.66,134.27a1.9,1.9,0,0,0,1.06-.84,1.79,1.79,0,0,0-.6-2.38,1.85,1.85,0,0,0-1.33-.25,1.7,1.7,0,0,1,1.39.15,1.87,1.87,0,0,1,.87,1.13,1.85,1.85,0,0,1-.24,1.4A1.68,1.68,0,0,1,188.66,134.27Z"/><path class="cls-3" d="M189.53,137.75a2,2,0,0,0,1.06-.85,1.71,1.71,0,0,0,.17-1.31,1.74,1.74,0,0,0-.77-1.07,1.92,1.92,0,0,0-1.33-.25,1.74,1.74,0,0,1,1.39.15,1.9,1.9,0,0,1,.87,1.13,1.88,1.88,0,0,1-.24,1.41A1.68,1.68,0,0,1,189.53,137.75Z"/><path class="cls-3" d="M190.4,141.22a1.9,1.9,0,0,0,1.06-.84,1.72,1.72,0,0,0,.17-1.31,1.76,1.76,0,0,0-.77-1.08,1.91,1.91,0,0,0-1.33-.24,1.7,1.7,0,0,1,1.39.15,1.77,1.77,0,0,1,.63,2.53A1.68,1.68,0,0,1,190.4,141.22Z"/><path class="cls-3" d="M183.87,128.08a1.9,1.9,0,0,0,1.06-.84,1.79,1.79,0,0,0-.6-2.38,1.89,1.89,0,0,0-1.32-.25,1.68,1.68,0,0,1,1.38.15,1.79,1.79,0,0,1,.64,2.54A1.74,1.74,0,0,1,183.87,128.08Z"/><path class="cls-3" d="M184.74,131.56a2,2,0,0,0,1.06-.85,1.69,1.69,0,0,0,.17-1.3,1.73,1.73,0,0,0-.77-1.08,1.91,1.91,0,0,0-1.33-.25,1.74,1.74,0,0,1,1.39.16,1.77,1.77,0,0,1,.63,2.53A1.68,1.68,0,0,1,184.74,131.56Z"/><path class="cls-3" d="M185.61,135a1.9,1.9,0,0,0,1.06-.84,1.79,1.79,0,0,0-.6-2.38,1.91,1.91,0,0,0-1.33-.25,1.7,1.7,0,0,1,1.39.15,1.78,1.78,0,0,1,.63,2.54A1.7,1.7,0,0,1,185.61,135Z"/><path class="cls-3" d="M186.48,138.51a2,2,0,0,0,1.06-.85,1.69,1.69,0,0,0,.17-1.3,1.73,1.73,0,0,0-.77-1.08,1.92,1.92,0,0,0-1.33-.25,1.7,1.7,0,0,1,1.39.16,1.85,1.85,0,0,1,.87,1.12,1.88,1.88,0,0,1-.24,1.41A1.68,1.68,0,0,1,186.48,138.51Z"/><path class="cls-3" d="M187.35,142a1.9,1.9,0,0,0,1.06-.84,1.79,1.79,0,0,0-.6-2.38,1.87,1.87,0,0,0-1.33-.25,1.7,1.7,0,0,1,1.39.15,1.87,1.87,0,0,1,.87,1.13,1.85,1.85,0,0,1-.24,1.4A1.68,1.68,0,0,1,187.35,142Z"/><path class="cls-3" d="M180.82,128.84a1.9,1.9,0,0,0,1.06-.84,1.79,1.79,0,0,0-.6-2.38,1.89,1.89,0,0,0-1.32-.25,1.68,1.68,0,0,1,1.38.15,1.79,1.79,0,0,1,.64,2.54A1.74,1.74,0,0,1,180.82,128.84Z"/><path class="cls-3" d="M181.69,132.32a1.91,1.91,0,0,0,1.06-.85,1.69,1.69,0,0,0,.17-1.3,1.73,1.73,0,0,0-.77-1.08,2,2,0,0,0-1.33-.25,1.74,1.74,0,0,1,1.39.16,1.77,1.77,0,0,1,.63,2.53A1.68,1.68,0,0,1,181.69,132.32Z"/><path class="cls-3" d="M182.56,135.79a1.9,1.9,0,0,0,1.06-.84,1.79,1.79,0,0,0-.6-2.38,1.91,1.91,0,0,0-1.33-.25,1.7,1.7,0,0,1,1.39.15,1.9,1.9,0,0,1,.87,1.13,1.88,1.88,0,0,1-.24,1.41A1.7,1.7,0,0,1,182.56,135.79Z"/><path class="cls-3" d="M183.43,139.27a1.91,1.91,0,0,0,1.06-.85,1.69,1.69,0,0,0,.17-1.3,1.73,1.73,0,0,0-.77-1.08,2,2,0,0,0-1.33-.25A1.74,1.74,0,0,1,184,136a1.77,1.77,0,0,1,.63,2.53A1.68,1.68,0,0,1,183.43,139.27Z"/><path class="cls-3" d="M184.3,142.74a1.9,1.9,0,0,0,1.06-.84,1.79,1.79,0,0,0-.6-2.38,1.93,1.93,0,0,0-1.33-.25,1.7,1.7,0,0,1,1.39.15,1.78,1.78,0,0,1,.63,2.54A1.7,1.7,0,0,1,184.3,142.74Z"/><path class="cls-3" d="M177.77,129.61a2,2,0,0,0,1.06-.85,1.71,1.71,0,0,0,.17-1.31,1.74,1.74,0,0,0-.77-1.07,1.89,1.89,0,0,0-1.32-.25,1.72,1.72,0,0,1,1.38.15,1.86,1.86,0,0,1,.87,1.13,1.92,1.92,0,0,1-.23,1.41A1.79,1.79,0,0,1,177.77,129.61Z"/><path class="cls-3" d="M178.64,133.08a1.9,1.9,0,0,0,1.06-.84,1.81,1.81,0,0,0-.6-2.39,1.9,1.9,0,0,0-1.33-.24,1.7,1.7,0,0,1,1.39.15,1.77,1.77,0,0,1,.63,2.53A1.68,1.68,0,0,1,178.64,133.08Z"/><path class="cls-3" d="M179.51,136.55a1.9,1.9,0,0,0,1.06-.84,1.72,1.72,0,0,0,.17-1.31,1.74,1.74,0,0,0-.77-1.07,1.92,1.92,0,0,0-1.33-.25,1.7,1.7,0,0,1,1.39.15,1.9,1.9,0,0,1,.87,1.13,1.88,1.88,0,0,1-.24,1.41A1.7,1.7,0,0,1,179.51,136.55Z"/><path class="cls-3" d="M180.38,140a1.94,1.94,0,0,0,1.06-.84,1.81,1.81,0,0,0-.6-2.39,2,2,0,0,0-1.33-.25,1.74,1.74,0,0,1,1.39.16,1.77,1.77,0,0,1,.63,2.53A1.68,1.68,0,0,1,180.38,140Z"/><path class="cls-3" d="M181.25,143.5a1.9,1.9,0,0,0,1.06-.84,1.79,1.79,0,0,0-.6-2.38,1.93,1.93,0,0,0-1.33-.25,1.7,1.7,0,0,1,1.39.15,1.9,1.9,0,0,1,.87,1.13,1.88,1.88,0,0,1-.24,1.41A1.7,1.7,0,0,1,181.25,143.5Z"/></g><path class="cls-2" d="M202.54,132.55a3.37,3.37,0,0,1-2.58.71S201.33,136.63,202.54,132.55Z"/><g class="cls-8"><ellipse class="cls-6" cx="200.81" cy="132.94" rx="1.34" ry="0.76"/></g></svg>