<svg id="_2" data-name="2" xmlns="http://www.w3.org/2000/svg" xmlns:xlink="http://www.w3.org/1999/xlink" viewBox="0 0 260 168"><defs><style>.cls-1{fill:none;}.cls-2{fill:#870000;}.cls-3{fill:#ff8585;}.cls-4{fill:red;}.cls-5{fill:#7f2828;stroke:#7f2828;stroke-miterlimit:10;stroke-width:0.07px;}.cls-6{fill:#fff;}.cls-7{clip-path:url(#clip-path);}.cls-8{clip-path:url(#clip-path-2);}</style><clipPath id="clip-path"><ellipse class="cls-1" cx="100.82" cy="109.13" rx="13" ry="7.43" transform="translate(-45.26 136.25) rotate(-57.78)"/></clipPath><clipPath id="clip-path-2"><path class="cls-2" d="M108.92,100.54A3.36,3.36,0,0,1,107.8,103S111.26,104.09,108.92,100.54Z"/></clipPath></defs><path class="cls-3" d="M91.33,119.1c-1.53,0-3.3.7-4.3,3.43a4.38,4.38,0,0,0,5.75-.08,4.76,4.76,0,0,0,2.27,5,4.69,4.69,0,0,0,.66-5.95A5.26,5.26,0,0,0,91.33,119.1Z"/><path class="cls-3" d="M101.21,113.61a3.24,3.24,0,0,1,2.45-3.86c1.74-.39,3.24-.51,3.85,2.44s-1.89,5.48-2.07,5.52S101.6,115.35,101.21,113.61Z"/><path class="cls-3" d="M95.51,110.12a3.23,3.23,0,0,0,2.42-3.87c-.4-1.73-.94-3.14-3.87-2.41s-4.12,4.07-4.08,4.25S93.77,110.53,95.51,110.12Z"/><ellipse class="cls-4" cx="100.82" cy="109.13" rx="13" ry="7.43" transform="translate(-45.26 136.25) rotate(-57.78)"/><path class="cls-5" d="M103,101.39s-.35.61-.92.42a1,1,0,0,0,1.14.16Z"/><path class="cls-5" d="M103.26,101.91s-.15.81-.85.82a1.22,1.22,0,0,0,1.31-.27Z"/><ellipse class="cls-6" cx="105.47" cy="100.77" rx="2.49" ry="2.48" transform="translate(-39.58 116.27) rotate(-49.8)"/><circle cx="105.47" cy="100.77" r="1.79" transform="translate(-39.58 116.27) rotate(-49.8)"/><circle class="cls-6" cx="104.56" cy="100.89" r="0.51" transform="translate(-39.99 115.62) rotate(-49.8)"/><g class="cls-7"><path class="cls-3" d="M97.63,103.41a2,2,0,0,0,.18-1.34,1.82,1.82,0,0,0-2.08-1.31,1.89,1.89,0,0,0-1.13.74,1.69,1.69,0,0,1,1.1-.85,1.84,1.84,0,0,1,1.41.22,1.82,1.82,0,0,1,.8,1.17A1.7,1.7,0,0,1,97.63,103.41Z"/><path class="cls-3" d="M100.66,105.32a2,2,0,0,0,.18-1.34,1.8,1.8,0,0,0-2.08-1.31,1.92,1.92,0,0,0-1.13.74,1.69,1.69,0,0,1,1.1-.85A1.79,1.79,0,0,1,101,104,1.74,1.74,0,0,1,100.66,105.32Z"/><path class="cls-3" d="M103.69,107.22a2,2,0,0,0,.18-1.34,1.75,1.75,0,0,0-.78-1.06,1.7,1.7,0,0,0-1.3-.24,1.9,1.9,0,0,0-1.13.74,1.69,1.69,0,0,1,1.11-.85,1.85,1.85,0,0,1,1.41.21,1.88,1.88,0,0,1,.8,1.18A1.72,1.72,0,0,1,103.69,107.22Z"/><path class="cls-3" d="M106.72,109.13a1.85,1.85,0,0,0,.18-1.34,1.81,1.81,0,0,0-2.08-1.31,2,2,0,0,0-1.13.74,1.72,1.72,0,0,1,1.11-.85,1.79,1.79,0,0,1,2.21,1.4A1.69,1.69,0,0,1,106.72,109.13Z"/><path class="cls-3" d="M109.75,111a1.86,1.86,0,0,0,.18-1.34,1.66,1.66,0,0,0-.78-1.06,1.74,1.74,0,0,0-1.3-.25,2,2,0,0,0-1.13.74,1.71,1.71,0,0,1,1.11-.85,1.77,1.77,0,0,1,2.21,1.39A1.7,1.7,0,0,1,109.75,111Z"/><path class="cls-3" d="M96,106.07a1.91,1.91,0,0,0,.18-1.34,1.81,1.81,0,0,0-2.08-1.31,2,2,0,0,0-1.13.74,1.69,1.69,0,0,1,1.11-.85,1.79,1.79,0,0,1,2.21,1.39A1.74,1.74,0,0,1,96,106.07Z"/><path class="cls-3" d="M99,108a1.86,1.86,0,0,0,.18-1.34,1.79,1.79,0,0,0-2.08-1.31,2,2,0,0,0-1.13.74,1.71,1.71,0,0,1,1.11-.85,1.88,1.88,0,0,1,1.41.21,1.91,1.91,0,0,1,.8,1.18A1.7,1.7,0,0,1,99,108Z"/><path class="cls-3" d="M102,109.88a1.9,1.9,0,0,0,.17-1.34,1.79,1.79,0,0,0-2.07-1.3A1.9,1.9,0,0,0,99,108a1.74,1.74,0,0,1,1.11-.85,1.77,1.77,0,0,1,2.21,1.39A1.68,1.68,0,0,1,102,109.88Z"/><path class="cls-3" d="M105.05,111.79a2,2,0,0,0,.18-1.34,1.82,1.82,0,0,0-2.08-1.31,1.89,1.89,0,0,0-1.13.74,1.72,1.72,0,0,1,1.1-.85,1.89,1.89,0,0,1,1.41.22,1.84,1.84,0,0,1,.8,1.18A1.68,1.68,0,0,1,105.05,111.79Z"/><path class="cls-3" d="M108.08,113.7a2,2,0,0,0,.18-1.34,1.68,1.68,0,0,0-.79-1.06,1.71,1.71,0,0,0-1.29-.25,1.92,1.92,0,0,0-1.13.74,1.69,1.69,0,0,1,1.1-.85,1.79,1.79,0,0,1,2.22,1.39A1.74,1.74,0,0,1,108.08,113.7Z"/><path class="cls-3" d="M94.28,108.73a2,2,0,0,0,.18-1.34,1.82,1.82,0,0,0-2.08-1.31,1.94,1.94,0,0,0-1.14.74,1.74,1.74,0,0,1,1.11-.85,1.84,1.84,0,0,1,1.41.22,1.82,1.82,0,0,1,.8,1.17A1.7,1.7,0,0,1,94.28,108.73Z"/><path class="cls-3" d="M97.31,110.64a2,2,0,0,0,.18-1.34A1.8,1.8,0,0,0,95.41,108a1.89,1.89,0,0,0-1.13.74,1.69,1.69,0,0,1,1.1-.85,1.88,1.88,0,0,1,1.41.21,1.83,1.83,0,0,1,.8,1.18A1.7,1.7,0,0,1,97.31,110.64Z"/><path class="cls-3" d="M100.34,112.54a2,2,0,0,0,.18-1.34,1.75,1.75,0,0,0-.78-1.06,1.7,1.7,0,0,0-1.3-.24,1.9,1.9,0,0,0-1.13.74,1.69,1.69,0,0,1,1.11-.85,1.82,1.82,0,0,1,1.4.21,1.86,1.86,0,0,1,.81,1.18A1.72,1.72,0,0,1,100.34,112.54Z"/><path class="cls-3" d="M103.37,114.45a1.9,1.9,0,0,0,.18-1.34,1.81,1.81,0,0,0-2.08-1.31,2,2,0,0,0-1.13.74,1.72,1.72,0,0,1,1.11-.85,1.79,1.79,0,0,1,2.21,1.4A1.72,1.72,0,0,1,103.37,114.45Z"/><path class="cls-3" d="M106.4,116.36a1.86,1.86,0,0,0,.18-1.34,1.7,1.7,0,0,0-.78-1.06,1.74,1.74,0,0,0-1.3-.25,2,2,0,0,0-1.13.74,1.69,1.69,0,0,1,1.11-.85,1.88,1.88,0,0,1,1.41.21,1.91,1.91,0,0,1,.8,1.18A1.7,1.7,0,0,1,106.4,116.36Z"/><path class="cls-3" d="M92.6,111.39a2,2,0,0,0,.18-1.34,1.81,1.81,0,0,0-2.08-1.31,2,2,0,0,0-1.13.74,1.72,1.72,0,0,1,1.11-.85A1.79,1.79,0,0,1,92.89,110,1.74,1.74,0,0,1,92.6,111.39Z"/><path class="cls-3" d="M95.63,113.3a1.86,1.86,0,0,0,.18-1.34,1.79,1.79,0,0,0-2.08-1.31,2,2,0,0,0-1.13.74,1.69,1.69,0,0,1,1.11-.85,1.88,1.88,0,0,1,1.41.21,1.91,1.91,0,0,1,.8,1.18A1.7,1.7,0,0,1,95.63,113.3Z"/><path class="cls-3" d="M98.66,115.2a1.85,1.85,0,0,0,.18-1.34,1.79,1.79,0,0,0-2.08-1.3,1.9,1.9,0,0,0-1.13.74,1.71,1.71,0,0,1,1.11-.85A1.77,1.77,0,0,1,99,113.84,1.69,1.69,0,0,1,98.66,115.2Z"/><path class="cls-3" d="M101.7,117.11a2,2,0,0,0,.18-1.34,1.82,1.82,0,0,0-2.08-1.31,1.94,1.94,0,0,0-1.14.74,1.72,1.72,0,0,1,1.11-.84,1.77,1.77,0,0,1,2.21,1.39A1.68,1.68,0,0,1,101.7,117.11Z"/><path class="cls-3" d="M104.73,119a2,2,0,0,0,.18-1.34,1.68,1.68,0,0,0-.79-1.06,1.72,1.72,0,0,0-1.29-.25,1.89,1.89,0,0,0-1.13.74,1.69,1.69,0,0,1,1.1-.85,1.88,1.88,0,0,1,1.41.21,1.83,1.83,0,0,1,.8,1.18A1.7,1.7,0,0,1,104.73,119Z"/><path class="cls-3" d="M90.93,114.05a1.9,1.9,0,0,0,.17-1.34,1.68,1.68,0,0,0-.78-1.06A1.72,1.72,0,0,0,89,111.4a1.94,1.94,0,0,0-1.14.74,1.77,1.77,0,0,1,1.11-.85,1.84,1.84,0,0,1,1.41.22,1.82,1.82,0,0,1,.8,1.17A1.7,1.7,0,0,1,90.93,114.05Z"/><path class="cls-3" d="M94,116a2,2,0,0,0,.18-1.34,1.8,1.8,0,0,0-2.08-1.31,1.89,1.89,0,0,0-1.13.74,1.69,1.69,0,0,1,1.1-.85,1.77,1.77,0,0,1,2.21,1.39A1.7,1.7,0,0,1,94,116Z"/><path class="cls-3" d="M97,117.86a2,2,0,0,0,.18-1.34,1.75,1.75,0,0,0-.78-1.06,1.7,1.7,0,0,0-1.3-.24A1.87,1.87,0,0,0,94,116a1.69,1.69,0,0,1,1.1-.85,1.79,1.79,0,0,1,2.22,1.39A1.72,1.72,0,0,1,97,117.86Z"/><path class="cls-3" d="M100,119.77a2,2,0,0,0,.18-1.34,1.81,1.81,0,0,0-2.08-1.31,2,2,0,0,0-1.13.74A1.67,1.67,0,0,1,98.1,117a1.84,1.84,0,0,1,1.41.21,1.88,1.88,0,0,1,.8,1.18A1.72,1.72,0,0,1,100,119.77Z"/><path class="cls-3" d="M103.05,121.68a1.86,1.86,0,0,0,.18-1.34,1.72,1.72,0,0,0-.78-1.06,1.75,1.75,0,0,0-1.3-.25,2,2,0,0,0-1.13.74,1.69,1.69,0,0,1,1.11-.85,1.88,1.88,0,0,1,1.41.21,1.91,1.91,0,0,1,.8,1.18A1.7,1.7,0,0,1,103.05,121.68Z"/><path class="cls-3" d="M89.25,116.71a2,2,0,0,0,.18-1.34,1.81,1.81,0,0,0-2.08-1.31,2,2,0,0,0-1.13.74,1.72,1.72,0,0,1,1.11-.85,1.8,1.8,0,0,1,2.21,1.39A1.74,1.74,0,0,1,89.25,116.71Z"/><path class="cls-3" d="M92.28,118.62a1.86,1.86,0,0,0,.18-1.34A1.79,1.79,0,0,0,90.38,116a2,2,0,0,0-1.13.74,1.69,1.69,0,0,1,1.11-.85,1.88,1.88,0,0,1,1.41.21,1.91,1.91,0,0,1,.8,1.18A1.74,1.74,0,0,1,92.28,118.62Z"/><path class="cls-3" d="M95.31,120.52a1.84,1.84,0,0,0,.18-1.34,1.72,1.72,0,0,0-.78-1.06,1.69,1.69,0,0,0-1.3-.24,1.9,1.9,0,0,0-1.13.74,1.71,1.71,0,0,1,1.11-.85,1.84,1.84,0,0,1,1.41.21,1.88,1.88,0,0,1,.8,1.18A1.69,1.69,0,0,1,95.31,120.52Z"/><path class="cls-3" d="M98.35,122.43a1.9,1.9,0,0,0,.17-1.34,1.68,1.68,0,0,0-.78-1.06,1.72,1.72,0,0,0-1.29-.25,1.94,1.94,0,0,0-1.14.74,1.75,1.75,0,0,1,1.11-.84,1.77,1.77,0,0,1,2.21,1.39A1.68,1.68,0,0,1,98.35,122.43Z"/><path class="cls-3" d="M101.38,124.34a2,2,0,0,0,.18-1.34,1.7,1.7,0,0,0-.79-1.06,1.72,1.72,0,0,0-1.29-.25,1.89,1.89,0,0,0-1.13.74,1.69,1.69,0,0,1,1.1-.85,1.77,1.77,0,0,1,2.21,1.39A1.7,1.7,0,0,1,101.38,124.34Z"/></g><path class="cls-2" d="M108.92,100.54A3.36,3.36,0,0,1,107.8,103S111.26,104.09,108.92,100.54Z"/><g class="cls-8"><ellipse class="cls-6" cx="108.11" cy="102.11" rx="1.34" ry="0.76" transform="translate(-39.66 118.77) rotate(-49.8)"/></g></svg>