<svg id="_4" data-name="4" xmlns="http://www.w3.org/2000/svg" xmlns:xlink="http://www.w3.org/1999/xlink" viewBox="0 0 260 168"><defs><style>.cls-1{fill:#fff;}.cls-2{fill:none;}.cls-3{fill:#773055;}.cls-4{fill:#c10606;}.cls-5{fill:#ff8585;}.cls-6{fill:red;}.cls-7{fill:#7f2828;stroke:#7f2828;stroke-miterlimit:10;stroke-width:0.08px;}.cls-8{clip-path:url(#clip-path);}.cls-9{clip-path:url(#clip-path-2);}.cls-10{clip-path:url(#clip-path-3);}.cls-11{fill:#cddb6a;}.cls-12{fill:#ffecb8;}.cls-13{fill:#aa3779;}</style><clipPath id="clip-path"><circle class="cls-1" cx="159.76" cy="107.32" r="2.52" transform="translate(-32.5 116.03) rotate(-36.49)"/></clipPath><clipPath id="clip-path-2"><path class="cls-2" d="M156.56,111.07c-3.42-.9-5.86-5-7.73-10.06-2.52-6.84,2.11-14.83,2.54-15S160.49,89,163,95.8s3.05,12.94-2.54,15a7.34,7.34,0,0,1-1.77.43"/></clipPath><clipPath id="clip-path-3"><path class="cls-3" d="M156.73,110.64a3.47,3.47,0,0,0-1.41,2.28c-.4,1.6-.24,3,1.27,3.49h0a3.48,3.48,0,0,0,3.51-.9c1.65-1.59,2.7-.85,2.7-.85a.28.28,0,0,0,.08-.42c-.18-.24-1.41-.72-1.84-1.22s-.6-1.57-2-2.24a.44.44,0,0,1-.6.18s-.47.36-.7-.1c0,0-.45.19-.45-.16,0,0-.26,0-.26-.2Z"/></clipPath></defs><path class="cls-4" d="M158.9,111.11a2.31,2.31,0,0,0-2,0l-.46-.82s.9-.61,1.1-.47a8.76,8.76,0,0,0,1.1.48Z"/><path class="cls-5" d="M153.79,84.6c.94-1.23,1.49-3.08-.08-5.57a4.45,4.45,0,0,0-3.51,4.67,4.85,4.85,0,0,0-5.47-1.3,4.74,4.74,0,0,0,4.37,4.21A5.34,5.34,0,0,0,153.79,84.6Z"/><path class="cls-5" d="M152.07,96a3.28,3.28,0,0,1,1.59,4.35c-.77,1.64-1.6,2.93-4.36,1.59s-3.23-4.91-3.15-5.08S150.43,95.19,152.07,96Z"/><path class="cls-5" d="M158.42,93.52A3.28,3.28,0,0,0,160,97.86c1.65.76,3.12,1.2,4.35-1.61s-.72-5.83-.89-5.91S159.18,91.87,158.42,93.52Z"/><path class="cls-6" d="M157,111.17c-3.68-.63-6.26-4.84-8.21-10.16-2.52-6.84,2.11-14.83,2.54-15S160.49,89,163,95.8s3.05,12.94-2.54,15a8.38,8.38,0,0,1-1.58.41,2.06,2.06,0,0,0-1.78-.87C156.37,110.47,157,111.17,157,111.17Z"/><path class="cls-7" d="M160.77,105a.86.86,0,0,1,.23-1,1,1,0,0,0-.83.82Z"/><path class="cls-7" d="M160.21,104.84a1,1,0,0,1-.13-1.2,1.23,1.23,0,0,0-.59,1.23Z"/><circle class="cls-1" cx="159.76" cy="107.32" r="2.52" transform="translate(-32.5 116.03) rotate(-36.49)"/><g class="cls-8"><circle cx="159.33" cy="108.18" r="1.82" transform="translate(-33.1 115.94) rotate(-36.49)"/><circle class="cls-1" cx="159.8" cy="107.37" r="0.52"/></g><g class="cls-9"><path class="cls-5" d="M162.51,99.38a1.93,1.93,0,0,0,1,1,1.78,1.78,0,0,0,1.34,0,1.72,1.72,0,0,0,1-.89,1.88,1.88,0,0,0,.1-1.36,1.69,1.69,0,0,1,0,1.41,1.82,1.82,0,0,1-2.49.92A1.73,1.73,0,0,1,162.51,99.38Z"/><path class="cls-5" d="M159.09,100.64a2,2,0,0,0,1,1,1.73,1.73,0,0,0,1.34,0,1.75,1.75,0,0,0,1-.89,2,2,0,0,0,.11-1.37,1.72,1.72,0,0,1,0,1.42,1.89,1.89,0,0,1-1,1,1.91,1.91,0,0,1-1.45-.09A1.69,1.69,0,0,1,159.09,100.64Z"/><path class="cls-5" d="M155.67,101.89a2,2,0,0,0,1,1A1.83,1.83,0,0,0,159,102a2,2,0,0,0,.11-1.37,1.69,1.69,0,0,1,0,1.41,1.8,1.8,0,0,1-1,1,1.87,1.87,0,0,1-1.45-.08A1.73,1.73,0,0,1,155.67,101.89Z"/><path class="cls-5" d="M152.26,103.15a1.89,1.89,0,0,0,1,1,1.73,1.73,0,0,0,1.34,0,1.8,1.8,0,0,0,1-.89,2,2,0,0,0,.1-1.37,1.76,1.76,0,0,1,0,1.42,1.82,1.82,0,0,1-2.49.92A1.73,1.73,0,0,1,152.26,103.15Z"/><path class="cls-5" d="M148.84,104.41a2,2,0,0,0,1,1,1.73,1.73,0,0,0,1.34,0,1.75,1.75,0,0,0,1-.89,2,2,0,0,0,.11-1.37,1.76,1.76,0,0,1,0,1.42,1.81,1.81,0,0,1-2.49.91A1.71,1.71,0,0,1,148.84,104.41Z"/><path class="cls-5" d="M161.41,96.39a1.88,1.88,0,0,0,1,1,1.71,1.71,0,0,0,1.33,0,1.74,1.74,0,0,0,1-.89,2,2,0,0,0,.1-1.37,1.72,1.72,0,0,1,0,1.42,1.81,1.81,0,0,1-2.49.91A1.69,1.69,0,0,1,161.41,96.39Z"/><path class="cls-5" d="M158,97.64a1.93,1.93,0,0,0,1,1,1.83,1.83,0,0,0,2.34-.86,2,2,0,0,0,.11-1.37,1.69,1.69,0,0,1,0,1.41,1.83,1.83,0,0,1-1,1,1.87,1.87,0,0,1-1.45-.08A1.7,1.7,0,0,1,158,97.64Z"/><path class="cls-5" d="M154.57,98.9a2,2,0,0,0,1,1,1.73,1.73,0,0,0,1.34,0,1.75,1.75,0,0,0,1-.89,2,2,0,0,0,.11-1.37,1.72,1.72,0,0,1,0,1.42,1.89,1.89,0,0,1-1,1,1.92,1.92,0,0,1-1.45-.08A1.76,1.76,0,0,1,154.57,98.9Z"/><path class="cls-5" d="M151.15,100.16a2,2,0,0,0,1,1,1.73,1.73,0,0,0,1.34,0,1.75,1.75,0,0,0,1-.89,1.9,1.9,0,0,0,.11-1.37,1.76,1.76,0,0,1,0,1.42,1.81,1.81,0,0,1-2.49.91A1.76,1.76,0,0,1,151.15,100.16Z"/><path class="cls-5" d="M147.74,101.41a1.93,1.93,0,0,0,1,1,1.78,1.78,0,0,0,1.34,0,1.73,1.73,0,0,0,1-.88,1.9,1.9,0,0,0,.1-1.37,1.69,1.69,0,0,1,0,1.41,1.91,1.91,0,0,1-1.05,1,1.85,1.85,0,0,1-1.44-.08A1.73,1.73,0,0,1,147.74,101.41Z"/><path class="cls-5" d="M160.31,93.39a1.91,1.91,0,0,0,1,1,1.85,1.85,0,0,0,2.35-.86,2,2,0,0,0,.1-1.37,1.69,1.69,0,0,1,0,1.41,1.82,1.82,0,0,1-2.49.92A1.7,1.7,0,0,1,160.31,93.39Z"/><path class="cls-5" d="M156.89,94.65a1.88,1.88,0,0,0,1,1,1.83,1.83,0,0,0,2.34-.86,2,2,0,0,0,.11-1.37,1.72,1.72,0,0,1,0,1.42,1.89,1.89,0,0,1-1,1,1.91,1.91,0,0,1-1.45-.08A1.73,1.73,0,0,1,156.89,94.65Z"/><path class="cls-5" d="M153.47,95.91a2,2,0,0,0,1,1,1.73,1.73,0,0,0,1.34,0,1.75,1.75,0,0,0,1-.89,2,2,0,0,0,.11-1.37,1.72,1.72,0,0,1,0,1.42,1.89,1.89,0,0,1-1,1,1.92,1.92,0,0,1-1.45-.09A1.74,1.74,0,0,1,153.47,95.91Z"/><path class="cls-5" d="M150.05,97.16a2,2,0,0,0,1,1,1.78,1.78,0,0,0,1.34,0,1.73,1.73,0,0,0,1-.88,1.9,1.9,0,0,0,.11-1.37,1.73,1.73,0,0,1,0,1.41,1.91,1.91,0,0,1-1.05,1,1.85,1.85,0,0,1-1.44-.08A1.78,1.78,0,0,1,150.05,97.16Z"/><path class="cls-5" d="M146.64,98.42a1.88,1.88,0,0,0,1,1,1.71,1.71,0,0,0,1.33,0,1.74,1.74,0,0,0,1-.89,2,2,0,0,0,.1-1.37,1.72,1.72,0,0,1,0,1.42,1.81,1.81,0,0,1-2.49.91A1.69,1.69,0,0,1,146.64,98.42Z"/><path class="cls-5" d="M159.21,90.4a1.86,1.86,0,0,0,1,1,1.73,1.73,0,0,0,1.34,0,1.77,1.77,0,0,0,1-.89,1.93,1.93,0,0,0,.1-1.36,1.73,1.73,0,0,1,0,1.41,1.82,1.82,0,0,1-2.49.92A1.73,1.73,0,0,1,159.21,90.4Z"/><path class="cls-5" d="M155.79,91.66a2,2,0,0,0,1,1,1.73,1.73,0,0,0,1.34,0,1.75,1.75,0,0,0,1-.89,2,2,0,0,0,.11-1.37,1.76,1.76,0,0,1,0,1.42,1.81,1.81,0,0,1-2.49.91A1.71,1.71,0,0,1,155.79,91.66Z"/><path class="cls-5" d="M152.37,92.91a2,2,0,0,0,1,1,1.78,1.78,0,0,0,1.34,0,1.73,1.73,0,0,0,1-.88,2,2,0,0,0,.11-1.37,1.69,1.69,0,0,1,0,1.41,1.81,1.81,0,0,1-2.49.92A1.73,1.73,0,0,1,152.37,92.91Z"/><path class="cls-5" d="M149,94.17a2,2,0,0,0,1,1,1.73,1.73,0,0,0,1.34,0,1.75,1.75,0,0,0,1-.89,1.9,1.9,0,0,0,.11-1.37,1.76,1.76,0,0,1,0,1.42,1.81,1.81,0,0,1-2.49.91A1.73,1.73,0,0,1,149,94.17Z"/><path class="cls-5" d="M145.54,95.43a1.93,1.93,0,0,0,1,1,1.78,1.78,0,0,0,1.34,0,1.74,1.74,0,0,0,1-.89,2,2,0,0,0,.1-1.37,1.72,1.72,0,0,1,0,1.42,1.81,1.81,0,0,1-2.49.91A1.71,1.71,0,0,1,145.54,95.43Z"/><path class="cls-5" d="M158.11,87.41a1.93,1.93,0,0,0,1,1,1.73,1.73,0,0,0,1.34,0,1.8,1.8,0,0,0,1-.89,2,2,0,0,0,.1-1.37,1.76,1.76,0,0,1,0,1.42,1.81,1.81,0,0,1-2.49.91A1.71,1.71,0,0,1,158.11,87.41Z"/><path class="cls-5" d="M154.69,88.66a1.93,1.93,0,0,0,1,1,1.82,1.82,0,0,0,1.34,0,1.79,1.79,0,0,0,1-.89,2,2,0,0,0,.11-1.37,1.73,1.73,0,0,1,0,1.41,1.91,1.91,0,0,1-1,1,1.85,1.85,0,0,1-1.44-.08A1.73,1.73,0,0,1,154.69,88.66Z"/><path class="cls-5" d="M151.27,89.92a2,2,0,0,0,1,1,1.73,1.73,0,0,0,1.34,0,1.75,1.75,0,0,0,1-.89,2,2,0,0,0,.11-1.37,1.72,1.72,0,0,1,0,1.42,1.89,1.89,0,0,1-1,1,2,2,0,0,1-1.45-.08A1.73,1.73,0,0,1,151.27,89.92Z"/><path class="cls-5" d="M147.85,91.18a2,2,0,0,0,1,1,1.78,1.78,0,0,0,1.34,0,1.75,1.75,0,0,0,1-.89,1.9,1.9,0,0,0,.11-1.37,1.76,1.76,0,0,1,0,1.42,1.81,1.81,0,0,1-2.5.91A1.77,1.77,0,0,1,147.85,91.18Z"/><path class="cls-5" d="M144.44,92.43a1.91,1.91,0,0,0,1,1,1.86,1.86,0,0,0,2.35-.87,1.93,1.93,0,0,0,.1-1.36,1.73,1.73,0,0,1,0,1.41,1.82,1.82,0,0,1-2.49.92A1.73,1.73,0,0,1,144.44,92.43Z"/><path class="cls-5" d="M157,84.41a1.91,1.91,0,0,0,1,1,1.85,1.85,0,0,0,2.35-.86,2,2,0,0,0,.1-1.37,1.73,1.73,0,0,1,0,1.41,1.91,1.91,0,0,1-1,1,1.85,1.85,0,0,1-1.44-.08A1.73,1.73,0,0,1,157,84.41Z"/><path class="cls-5" d="M153.59,85.67a1.91,1.91,0,0,0,1,1,1.73,1.73,0,0,0,1.34,0,1.75,1.75,0,0,0,1-.89,2,2,0,0,0,.11-1.37,1.76,1.76,0,0,1,0,1.42,1.82,1.82,0,0,1-2.49.92A1.73,1.73,0,0,1,153.59,85.67Z"/><path class="cls-5" d="M150.17,86.93a2,2,0,0,0,1,1,1.73,1.73,0,0,0,1.34,0,1.75,1.75,0,0,0,1-.89,2,2,0,0,0,.11-1.37,1.72,1.72,0,0,1,0,1.42,1.89,1.89,0,0,1-1,1,1.92,1.92,0,0,1-1.45-.09A1.71,1.71,0,0,1,150.17,86.93Z"/><path class="cls-5" d="M146.75,88.18a2,2,0,0,0,1,1,1.78,1.78,0,0,0,1.34,0,1.72,1.72,0,0,0,1-.89,1.93,1.93,0,0,0,.11-1.36,1.73,1.73,0,0,1,0,1.41,1.83,1.83,0,0,1-2.5.92A1.79,1.79,0,0,1,146.75,88.18Z"/><path class="cls-5" d="M143.34,89.44a1.89,1.89,0,0,0,1,1,1.73,1.73,0,0,0,1.34,0,1.8,1.8,0,0,0,1-.89,2,2,0,0,0,.1-1.37,1.76,1.76,0,0,1,0,1.42,1.81,1.81,0,0,1-2.49.91A1.69,1.69,0,0,1,143.34,89.44Z"/></g><path class="cls-3" d="M156.73,110.64a3.47,3.47,0,0,0-1.41,2.28c-.4,1.6-.24,3,1.27,3.49h0a3.48,3.48,0,0,0,3.51-.9c1.65-1.59,2.7-.85,2.7-.85a.28.28,0,0,0,.08-.42c-.18-.24-1.41-.72-1.84-1.22s-.6-1.57-2-2.24a.44.44,0,0,1-.6.18s-.47.36-.7-.1c0,0-.45.19-.45-.16,0,0-.26,0-.26-.2Z"/><g class="cls-10"><path class="cls-11" d="M161,113.23a.57.57,0,0,1,.11-.25.7.7,0,0,1,.46-.18,2.16,2.16,0,0,1,.62,0,1.93,1.93,0,0,1,.83.42,2.06,2.06,0,0,1,.79.94,1.12,1.12,0,0,1-.11.93,1.19,1.19,0,0,1-.78.53,2.23,2.23,0,0,1-1.61-.63A1.81,1.81,0,0,1,161,113.23Z"/><path class="cls-2" d="M157.92,110.73h-.12l-.23,0a.65.65,0,0,1-.3-.09s-.06-.06-.1-.07a.19.19,0,0,0-.23.11.54.54,0,0,0,0,.28.88.88,0,0,0,.2.52.86.86,0,0,0,.72.2c.31,0,1.17-.19,1.13-.63a.27.27,0,0,0-.34-.23A3.44,3.44,0,0,1,157.92,110.73Z"/><path class="cls-12" d="M157.39,97.22v0"/></g><ellipse class="cls-13" cx="158.6" cy="115.53" rx="0.52" ry="0.43" transform="translate(-24.94 46.15) rotate(-15.36)"/><ellipse class="cls-13" cx="159.45" cy="114.95" rx="0.21" ry="0.18" transform="translate(-24.76 46.36) rotate(-15.36)"/><path class="cls-13" d="M160.51,113.54a4.38,4.38,0,0,0-2.58-1.45S159.65,111.41,160.51,113.54Z"/><path class="cls-3" d="M159,110.78a3.69,3.69,0,0,0-2-.28s-.42.76-.32.78l1.46.32s.82,0,.9,0S159,110.78,159,110.78Z"/></svg>