<svg id="_7" data-name="7" xmlns="http://www.w3.org/2000/svg" xmlns:xlink="http://www.w3.org/1999/xlink" viewBox="0 0 260 168"><defs><style>.cls-1{fill:none;}.cls-2{fill:#870000;}.cls-3{fill:#ff8585;}.cls-4{fill:red;}.cls-5{fill:#7f2828;stroke:#7f2828;stroke-miterlimit:10;stroke-width:0.07px;}.cls-6{fill:#fff;}.cls-7{clip-path:url(#clip-path);}.cls-8{clip-path:url(#clip-path-2);}</style><clipPath id="clip-path"><ellipse class="cls-1" cx="209.13" cy="134.79" rx="7.43" ry="13" transform="translate(13.48 288.49) rotate(-70.95)"/></clipPath><clipPath id="clip-path-2"><path class="cls-2" d="M218.27,141.21a3.34,3.34,0,0,1-2.55-.8S215,144,218.27,141.21Z"/></clipPath></defs><path class="cls-3" d="M197.26,127.81c-.35-1.48-1.43-3-4.31-3.41a4.39,4.39,0,0,0,1.38,5.59,4.76,4.76,0,0,0-4.39,3.36,4.68,4.68,0,0,0,5.94-.72A5.22,5.22,0,0,0,197.26,127.81Z"/><path class="cls-3" d="M204.86,136.19a3.22,3.22,0,0,1,4.31,1.5c.78,1.6,1.25,3-1.49,4.3s-5.76-.59-5.85-.76S203.26,137,204.86,136.19Z"/><path class="cls-3" d="M207,129.83a3.24,3.24,0,0,0,4.32,1.48c1.6-.78,2.86-1.63,1.48-4.31s-4.91-3.09-5.08-3S206.17,128.24,207,129.83Z"/><ellipse class="cls-4" cx="209.13" cy="134.79" rx="7.43" ry="13" transform="translate(13.48 288.49) rotate(-70.95)"/><path class="cls-5" d="M217.18,135.18s-.68-.2-.63-.8a1,1,0,0,0,.11,1.15Z"/><path class="cls-5" d="M216.72,135.51s-.82,0-1-.64a1.22,1.22,0,0,0,.57,1.22Z"/><ellipse class="cls-6" cx="218.33" cy="137.41" rx="2.48" ry="2.49" transform="translate(-3.4 269.26) rotate(-62.92)"/><circle cx="218.33" cy="137.41" r="1.79" transform="translate(-3.39 269.26) rotate(-62.92)"/><circle class="cls-6" cx="218.01" cy="136.54" r="0.51" transform="translate(-2.8 268.5) rotate(-62.92)"/><g class="cls-7"><path class="cls-3" d="M214,130.37a1.93,1.93,0,0,0,1.34-.13,1.8,1.8,0,0,0,.8-2.32,1.91,1.91,0,0,0-1-.94,1.68,1.68,0,0,1,1.08.89,1.79,1.79,0,0,1-.85,2.47A1.69,1.69,0,0,1,214,130.37Z"/><path class="cls-3" d="M212.81,133.76a2,2,0,0,0,1.35-.13,1.73,1.73,0,0,0,.85-1,1.69,1.69,0,0,0-.06-1.32,1.87,1.87,0,0,0-1-.93,1.71,1.71,0,0,1,1.07.88,1.76,1.76,0,0,1-.85,2.47A1.69,1.69,0,0,1,212.81,133.76Z"/><path class="cls-3" d="M211.64,137.14A1.9,1.9,0,0,0,213,137a1.7,1.7,0,0,0,.86-1,1.77,1.77,0,0,0-.06-1.32,1.93,1.93,0,0,0-1-.93,1.69,1.69,0,0,1,1.08.88,1.79,1.79,0,0,1-.85,2.47A1.71,1.71,0,0,1,211.64,137.14Z"/><path class="cls-3" d="M210.48,140.53a1.93,1.93,0,0,0,1.34-.13,1.75,1.75,0,0,0,.86-1,1.66,1.66,0,0,0-.06-1.31,1.91,1.91,0,0,0-1-.94,1.68,1.68,0,0,1,1.08.89,1.84,1.84,0,0,1,.12,1.42,1.89,1.89,0,0,1-1,1.05A1.69,1.69,0,0,1,210.48,140.53Z"/><path class="cls-3" d="M209.31,143.92a1.9,1.9,0,0,0,1.35-.14,1.65,1.65,0,0,0,.85-1,1.73,1.73,0,0,0,0-1.32,1.93,1.93,0,0,0-1-.93,1.72,1.72,0,0,1,1.08.88,1.89,1.89,0,0,1,.11,1.42,1.84,1.84,0,0,1-1,1A1.71,1.71,0,0,1,209.31,143.92Z"/><path class="cls-3" d="M211,129.35a1.9,1.9,0,0,0,1.35-.14,1.7,1.7,0,0,0,.86-1,1.77,1.77,0,0,0-.06-1.32,1.93,1.93,0,0,0-1-.93,1.72,1.72,0,0,1,1.08.88,1.85,1.85,0,0,1,.11,1.42,1.81,1.81,0,0,1-1,1.05A1.75,1.75,0,0,1,211,129.35Z"/><path class="cls-3" d="M209.84,132.73a1.93,1.93,0,0,0,1.34-.13,1.76,1.76,0,0,0,.86-1,1.73,1.73,0,0,0-.06-1.32,1.86,1.86,0,0,0-1-.93,1.67,1.67,0,0,1,1.08.88,1.84,1.84,0,0,1,.12,1.42,1.89,1.89,0,0,1-1,1A1.69,1.69,0,0,1,209.84,132.73Z"/><path class="cls-3" d="M208.67,136.12A2,2,0,0,0,210,136a1.7,1.7,0,0,0,.85-1,1.73,1.73,0,0,0-.05-1.32,2,2,0,0,0-1-.93,1.71,1.71,0,0,1,1.08.89,1.79,1.79,0,0,1-.85,2.47A1.75,1.75,0,0,1,208.67,136.12Z"/><path class="cls-3" d="M207.51,139.5a1.82,1.82,0,0,0,1.34-.13,1.7,1.7,0,0,0,.86-1,1.77,1.77,0,0,0-.06-1.32,1.86,1.86,0,0,0-1-.93,1.7,1.7,0,0,1,1.08.88,1.89,1.89,0,0,1,.12,1.42,1.86,1.86,0,0,1-1,1.05A1.69,1.69,0,0,1,207.51,139.5Z"/><path class="cls-3" d="M206.34,142.89a2,2,0,0,0,1.35-.13,1.82,1.82,0,0,0,.8-2.32,2,2,0,0,0-1-.94,1.72,1.72,0,0,1,1.07.89,1.77,1.77,0,0,1-.85,2.47A1.69,1.69,0,0,1,206.34,142.89Z"/><path class="cls-3" d="M208,128.32a2,2,0,0,0,1.35-.13,1.73,1.73,0,0,0,.85-1,1.7,1.7,0,0,0,0-1.31,2,2,0,0,0-1-.94,1.73,1.73,0,0,1,1.08.89,1.79,1.79,0,0,1-.85,2.47A1.71,1.71,0,0,1,208,128.32Z"/><path class="cls-3" d="M206.87,131.71a1.88,1.88,0,0,0,1.34-.14,1.7,1.7,0,0,0,.86-1,1.78,1.78,0,0,0-.06-1.32,1.86,1.86,0,0,0-1-.93,1.7,1.7,0,0,1,1.08.88,1.87,1.87,0,0,1,.11,1.43,1.82,1.82,0,0,1-1,1A1.69,1.69,0,0,1,206.87,131.71Z"/><path class="cls-3" d="M205.7,135.09a1.91,1.91,0,0,0,1.35-.13,1.82,1.82,0,0,0,.8-2.32,1.93,1.93,0,0,0-1-.93,1.68,1.68,0,0,1,1.07.88,1.77,1.77,0,0,1-.85,2.47A1.69,1.69,0,0,1,205.7,135.09Z"/><path class="cls-3" d="M204.53,138.48a2,2,0,0,0,1.35-.13,1.8,1.8,0,0,0,.8-2.32,2,2,0,0,0-1-.94,1.71,1.71,0,0,1,1.08.89,1.79,1.79,0,0,1-.85,2.47A1.71,1.71,0,0,1,204.53,138.48Z"/><path class="cls-3" d="M203.37,141.87a1.88,1.88,0,0,0,1.34-.14,1.79,1.79,0,0,0,.8-2.32,1.86,1.86,0,0,0-1-.93,1.7,1.7,0,0,1,1.08.88,1.77,1.77,0,0,1-.85,2.47A1.69,1.69,0,0,1,203.37,141.87Z"/><path class="cls-3" d="M205.06,127.3a1.91,1.91,0,0,0,1.35-.14,1.8,1.8,0,0,0,.79-2.32,1.87,1.87,0,0,0-1-.93,1.71,1.71,0,0,1,1.07.88,1.77,1.77,0,0,1-.85,2.47A1.73,1.73,0,0,1,205.06,127.3Z"/><path class="cls-3" d="M203.89,130.68a2,2,0,0,0,1.35-.13,1.79,1.79,0,0,0,.8-2.32,1.93,1.93,0,0,0-1-.93,1.69,1.69,0,0,1,1.08.88,1.79,1.79,0,0,1-.85,2.47A1.71,1.71,0,0,1,203.89,130.68Z"/><path class="cls-3" d="M202.73,134.07a1.93,1.93,0,0,0,1.34-.13,1.75,1.75,0,0,0,.86-1,1.69,1.69,0,0,0-.06-1.32,1.86,1.86,0,0,0-1-.93,1.68,1.68,0,0,1,1.08.89,1.84,1.84,0,0,1,.12,1.42,1.92,1.92,0,0,1-1,1A1.73,1.73,0,0,1,202.73,134.07Z"/><path class="cls-3" d="M201.56,137.45a1.85,1.85,0,0,0,1.35-.13,1.65,1.65,0,0,0,.85-1,1.73,1.73,0,0,0,0-1.32,1.93,1.93,0,0,0-1-.93,1.72,1.72,0,0,1,1.08.88,1.89,1.89,0,0,1,.11,1.42,1.84,1.84,0,0,1-1,1A1.71,1.71,0,0,1,201.56,137.45Z"/><path class="cls-3" d="M200.4,140.84a1.93,1.93,0,0,0,1.34-.13,1.76,1.76,0,0,0,.86-1,1.73,1.73,0,0,0-.06-1.32,1.91,1.91,0,0,0-1-.94,1.71,1.71,0,0,1,1.08.89,1.77,1.77,0,0,1-.85,2.47A1.69,1.69,0,0,1,200.4,140.84Z"/><path class="cls-3" d="M202.09,126.27a1.93,1.93,0,0,0,1.34-.13,1.75,1.75,0,0,0,.86-1,1.7,1.7,0,0,0-.06-1.31,1.91,1.91,0,0,0-1-.94,1.68,1.68,0,0,1,1.08.89,1.84,1.84,0,0,1,.12,1.42,1.89,1.89,0,0,1-1,1A1.69,1.69,0,0,1,202.09,126.27Z"/><path class="cls-3" d="M200.92,129.66a1.9,1.9,0,0,0,1.35-.14,1.65,1.65,0,0,0,.85-1,1.73,1.73,0,0,0-.05-1.32,1.93,1.93,0,0,0-1-.93,1.72,1.72,0,0,1,1.08.88,1.89,1.89,0,0,1,.11,1.42,1.84,1.84,0,0,1-1,1.05A1.71,1.71,0,0,1,200.92,129.66Z"/><path class="cls-3" d="M199.76,133a1.88,1.88,0,0,0,1.34-.13,1.73,1.73,0,0,0,.86-1,1.77,1.77,0,0,0-.06-1.32,1.86,1.86,0,0,0-1-.93,1.67,1.67,0,0,1,1.08.88,1.79,1.79,0,0,1-.85,2.47A1.69,1.69,0,0,1,199.76,133Z"/><path class="cls-3" d="M198.59,136.43a2,2,0,0,0,1.35-.13,1.73,1.73,0,0,0,.85-1,1.7,1.7,0,0,0,0-1.31,2,2,0,0,0-1-.94,1.69,1.69,0,0,1,1.07.89,1.77,1.77,0,0,1-.85,2.47A1.69,1.69,0,0,1,198.59,136.43Z"/><path class="cls-3" d="M197.43,139.82a1.88,1.88,0,0,0,1.34-.14,1.7,1.7,0,0,0,.86-1,1.78,1.78,0,0,0-.06-1.32,1.93,1.93,0,0,0-1-.93,1.72,1.72,0,0,1,1.08.88,1.85,1.85,0,0,1,.11,1.42,1.81,1.81,0,0,1-1,1.05A1.69,1.69,0,0,1,197.43,139.82Z"/><path class="cls-3" d="M199.12,125.24a1.82,1.82,0,0,0,1.34-.13,1.7,1.7,0,0,0,.86-1,1.77,1.77,0,0,0-.06-1.32,1.86,1.86,0,0,0-1-.93,1.7,1.7,0,0,1,1.08.88,1.85,1.85,0,0,1,.11,1.42,1.81,1.81,0,0,1-1,1A1.69,1.69,0,0,1,199.12,125.24Z"/><path class="cls-3" d="M198,128.63a2,2,0,0,0,1.35-.13,1.82,1.82,0,0,0,.8-2.32,2,2,0,0,0-1-.94,1.72,1.72,0,0,1,1.07.89,1.77,1.77,0,0,1-.85,2.47A1.69,1.69,0,0,1,198,128.63Z"/><path class="cls-3" d="M196.78,132a2,2,0,0,0,1.35-.13,1.75,1.75,0,0,0,.86-1,1.78,1.78,0,0,0-.06-1.32,1.93,1.93,0,0,0-1-.93,1.71,1.71,0,0,1,1.08.89,1.84,1.84,0,0,1,.11,1.42,1.87,1.87,0,0,1-1,1.05A1.75,1.75,0,0,1,196.78,132Z"/><path class="cls-3" d="M195.62,135.4a1.82,1.82,0,0,0,1.34-.13,1.7,1.7,0,0,0,.86-1,1.68,1.68,0,0,0-.06-1.32,1.86,1.86,0,0,0-1-.93,1.7,1.7,0,0,1,1.08.88,1.77,1.77,0,0,1-.85,2.47A1.69,1.69,0,0,1,195.62,135.4Z"/><path class="cls-3" d="M194.45,138.79a2,2,0,0,0,1.35-.13,1.71,1.71,0,0,0,.85-1,1.73,1.73,0,0,0-.05-1.32,2,2,0,0,0-1-.94,1.74,1.74,0,0,1,1.08.89,1.79,1.79,0,0,1-.85,2.47A1.71,1.71,0,0,1,194.45,138.79Z"/></g><path class="cls-2" d="M218.27,141.21a3.34,3.34,0,0,1-2.55-.8S215,144,218.27,141.21Z"/><g class="cls-8"><ellipse class="cls-6" cx="216.61" cy="140.6" rx="0.76" ry="1.34" transform="translate(-19.35 245.53) rotate(-56.96)"/></g></svg>