<svg id="Layer_1" data-name="Layer 1" xmlns="http://www.w3.org/2000/svg" xmlns:xlink="http://www.w3.org/1999/xlink" viewBox="0 0 260 168"><defs><style>.cls-1{fill:red;}.cls-2{fill:#fff;}.cls-3{fill:#870000;}.cls-4{fill:#ff8585;}.cls-5{clip-path:url(#clip-path);}.cls-6{fill:#7f2828;stroke:#7f2828;stroke-miterlimit:10;stroke-width:0.24px;}.cls-7{clip-path:url(#clip-path-2);}.cls-8{clip-path:url(#clip-path-3);}</style><clipPath id="clip-path"><path class="cls-1" d="M58.9,90.09S57.43,113.64,78,116.49s25.66-20.63,26.94-29.35,5-.7,14.9-3.48c0,0-4.57-1.68-6.88-5.2S89.38,52.51,74.54,62.82,58.9,90.09,58.9,90.09Z"/></clipPath><clipPath id="clip-path-2"><circle class="cls-2" cx="78.03" cy="104.21" r="7.88" transform="translate(-49.89 80.03) rotate(-42.47)"/></clipPath><clipPath id="clip-path-3"><ellipse class="cls-3" cx="91.09" cy="111.29" rx="2.01" ry="1.66" transform="translate(-50.23 84.63) rotate(-40.02)"/></clipPath></defs><path class="cls-4" d="M87.89,68.88a10.26,10.26,0,0,1-11.08,9.31c-5.63-.47-10.3-1.53-9.3-11s11-14.73,11.55-14.68S88.38,63.27,87.89,68.88Z"/><path class="cls-4" d="M99.15,81.17a10.26,10.26,0,0,0-12.47,7.34C85.25,94,84.69,98.73,94,101s17.53-5.42,17.68-6S104.61,82.58,99.15,81.17Z"/><path class="cls-4" d="M117.8,74.48c.74-4.77,3.73-10,12.74-11.87,0,0,6.27,9.29-2.95,18a15.1,15.1,0,0,1,14.72,9.52s-9.53,7.55-18.93-.76A16.58,16.58,0,0,1,117.8,74.48Z"/><path class="cls-1" d="M58.9,90.09S57.43,113.64,78,116.49s25.66-20.63,26.94-29.35,5-.7,14.9-3.48c0,0-4.57-1.68-6.88-5.2S89.38,52.51,74.54,62.82,58.9,90.09,58.9,90.09Z"/><g class="cls-5"><path class="cls-4" d="M70.24,78.58a5.52,5.52,0,0,1-3.58,2.59,5.84,5.84,0,0,1-4.45-.84,5.77,5.77,0,0,1-2.45-3.79,5.47,5.47,0,0,1,1.06-4.3,5.92,5.92,0,0,0-.67,4.22,5.65,5.65,0,0,0,6.43,4.31A5.9,5.9,0,0,0,70.24,78.58Z"/><path class="cls-4" d="M79.66,84.91a5.51,5.51,0,0,1-3.59,2.59,5.73,5.73,0,0,1-6.9-4.63,5.49,5.49,0,0,1,1.07-4.29,5.89,5.89,0,0,0-.67,4.21A5.61,5.61,0,0,0,76,87.1,5.88,5.88,0,0,0,79.66,84.91Z"/><path class="cls-4" d="M89.08,91.24a5.48,5.48,0,0,1-3.59,2.59,5.73,5.73,0,0,1-6.9-4.63,5.49,5.49,0,0,1,1.07-4.29A5.87,5.87,0,0,0,79,89.13a5.56,5.56,0,0,0,2.35,3.43,5.62,5.62,0,0,0,4.07.88A5.94,5.94,0,0,0,89.08,91.24Z"/><path class="cls-4" d="M98.49,97.58a5.52,5.52,0,0,1-3.58,2.59,5.88,5.88,0,0,1-4.45-.84A5.8,5.8,0,0,1,88,95.54a5.47,5.47,0,0,1,1.07-4.3,5.87,5.87,0,0,0-.67,4.22,5.63,5.63,0,0,0,6.42,4.31A5.9,5.9,0,0,0,98.49,97.58Z"/><path class="cls-4" d="M107.91,103.91a5.51,5.51,0,0,1-3.59,2.59,5.75,5.75,0,0,1-6.9-4.63,5.48,5.48,0,0,1,1.07-4.29,5.88,5.88,0,0,0-.67,4.21,5.62,5.62,0,0,0,6.43,4.31A5.93,5.93,0,0,0,107.91,103.91Z"/><path class="cls-4" d="M75.46,69.51a5.53,5.53,0,0,1-3.74,2.35,5.74,5.74,0,0,1-6.59-5.07,5.51,5.51,0,0,1,1.34-4.21,5.91,5.91,0,0,0-.94,4.16,5.64,5.64,0,0,0,6.14,4.72A5.94,5.94,0,0,0,75.46,69.51Z"/><path class="cls-4" d="M84.45,76.43a5.51,5.51,0,0,1-3.74,2.36,5.74,5.74,0,0,1-6.59-5.07,5.5,5.5,0,0,1,1.34-4.21,5.89,5.89,0,0,0-.94,4.16,5.64,5.64,0,0,0,6.14,4.72A5.9,5.9,0,0,0,84.45,76.43Z"/><path class="cls-4" d="M93.44,83.36a5.53,5.53,0,0,1-3.74,2.35,5.74,5.74,0,0,1-6.59-5.06,5.52,5.52,0,0,1,1.34-4.22,5.91,5.91,0,0,0-.94,4.16,5.64,5.64,0,0,0,6.14,4.72A5.94,5.94,0,0,0,93.44,83.36Z"/><path class="cls-4" d="M102.43,90.28a5.51,5.51,0,0,1-3.74,2.36,5.74,5.74,0,0,1-6.59-5.07,5.5,5.5,0,0,1,1.34-4.21,5.89,5.89,0,0,0-.94,4.16,5.64,5.64,0,0,0,6.14,4.72A5.9,5.9,0,0,0,102.43,90.28Z"/><path class="cls-4" d="M111.42,97.21a5.49,5.49,0,0,1-3.74,2.35,5.74,5.74,0,0,1-6.59-5.06,5.52,5.52,0,0,1,1.34-4.22,5.91,5.91,0,0,0-.94,4.16,5.64,5.64,0,0,0,6.14,4.72A5.94,5.94,0,0,0,111.42,97.21Z"/><path class="cls-4" d="M81,62.58a5.46,5.46,0,0,1-3.91,2.07,5.79,5.79,0,0,1-4.29-1.44,5.85,5.85,0,0,1-1.91-4.1A5.49,5.49,0,0,1,72.54,55a5.91,5.91,0,0,0-1.24,4.08,5.63,5.63,0,0,0,5.77,5.16A5.93,5.93,0,0,0,81,62.58Z"/><path class="cls-4" d="M89.45,70.15a5.46,5.46,0,0,1-3.91,2.07,5.73,5.73,0,0,1-6.19-5.54A5.45,5.45,0,0,1,81,62.58a5.87,5.87,0,0,0-1.25,4.08,5.63,5.63,0,0,0,5.77,5.16A5.91,5.91,0,0,0,89.45,70.15Z"/><path class="cls-4" d="M97.91,77.72A5.49,5.49,0,0,1,94,79.79a5.73,5.73,0,0,1-6.2-5.53,5.5,5.5,0,0,1,1.65-4.11,5.86,5.86,0,0,0-1.24,4.08A5.61,5.61,0,0,0,94,79.39,6,6,0,0,0,97.91,77.72Z"/><path class="cls-4" d="M106.36,85.29a5.46,5.46,0,0,1-3.91,2.07,5.73,5.73,0,0,1-6.19-5.53,5.46,5.46,0,0,1,1.65-4.11,5.87,5.87,0,0,0-1.25,4.08A5.63,5.63,0,0,0,102.43,87,5.93,5.93,0,0,0,106.36,85.29Z"/><path class="cls-4" d="M114.81,92.86a5.46,5.46,0,0,1-3.91,2.07,5.73,5.73,0,0,1-6.19-5.53,5.46,5.46,0,0,1,1.65-4.11,5.88,5.88,0,0,0-1.25,4.08,5.63,5.63,0,0,0,5.77,5.16A5.91,5.91,0,0,0,114.81,92.86Z"/><path class="cls-4" d="M89.18,53.46a5.51,5.51,0,0,1-4.3,1,5.75,5.75,0,0,1-4.61-6.93A5.51,5.51,0,0,1,82.9,44a5.87,5.87,0,0,0-2.23,3.64A5.63,5.63,0,0,0,85,54.08,5.89,5.89,0,0,0,89.18,53.46Z"/><path class="cls-4" d="M95.47,62.92a5.53,5.53,0,0,1-4.31,1,5.86,5.86,0,0,1-3.78-2.48A5.8,5.8,0,0,1,86.56,57a5.41,5.41,0,0,1,2.62-3.56A5.86,5.86,0,0,0,87,57.1a5.65,5.65,0,0,0,4.29,6.45A5.93,5.93,0,0,0,95.47,62.92Z"/><path class="cls-4" d="M101.76,72.39a5.48,5.48,0,0,1-4.31,1,5.77,5.77,0,0,1-4.61-6.92,5.5,5.5,0,0,1,2.63-3.57,5.91,5.91,0,0,0-2.23,3.65A5.63,5.63,0,0,0,97.53,73,5.88,5.88,0,0,0,101.76,72.39Z"/><path class="cls-4" d="M108.05,81.86a5.57,5.57,0,0,1-4.31,1A5.75,5.75,0,0,1,99.13,76a5.48,5.48,0,0,1,2.63-3.56A5.91,5.91,0,0,0,99.53,76a5.63,5.63,0,0,0,4.29,6.45A5.93,5.93,0,0,0,108.05,81.86Z"/><path class="cls-4" d="M114.33,91.32a5.47,5.47,0,0,1-4.3,1,5.73,5.73,0,0,1-4.61-6.92,5.46,5.46,0,0,1,2.63-3.56,5.78,5.78,0,0,0-2.23,3.64,5.51,5.51,0,0,0,.86,4.07A5.61,5.61,0,0,0,110.11,92,5.91,5.91,0,0,0,114.33,91.32Z"/><path class="cls-4" d="M112.85,62.9a5.5,5.5,0,0,1-4.19-1.42,5.73,5.73,0,0,1-.24-8.3,5.51,5.51,0,0,1,4.12-1.61,5.87,5.87,0,0,0-3.82,1.89,5.62,5.62,0,0,0,.22,7.73A6,6,0,0,0,112.85,62.9Z"/><path class="cls-4" d="M113.15,74.22A5.55,5.55,0,0,1,109,72.81a5.72,5.72,0,0,1-.23-8.3,5.46,5.46,0,0,1,4.12-1.61A5.87,5.87,0,0,0,109,64.79a5.53,5.53,0,0,0-1.44,3.9,5.61,5.61,0,0,0,1.65,3.83A6,6,0,0,0,113.15,74.22Z"/><path class="cls-4" d="M113.46,85.55a5.53,5.53,0,0,1-4.19-1.41,5.86,5.86,0,0,1-1.9-4.1,5.78,5.78,0,0,1,1.67-4.2,5.45,5.45,0,0,1,4.11-1.62,5.9,5.9,0,0,0-3.82,1.9A5.48,5.48,0,0,0,107.9,80a5.54,5.54,0,0,0,1.65,3.82A5.91,5.91,0,0,0,113.46,85.55Z"/><path class="cls-4" d="M113.77,96.87a5.53,5.53,0,0,1-4.19-1.41,5.73,5.73,0,0,1-.24-8.3,5.51,5.51,0,0,1,4.12-1.61,5.87,5.87,0,0,0-3.82,1.89,5.62,5.62,0,0,0,.22,7.73A5.9,5.9,0,0,0,113.77,96.87Z"/><path class="cls-4" d="M114.07,108.2a5.55,5.55,0,0,1-4.19-1.41,5.86,5.86,0,0,1-1.9-4.1,5.79,5.79,0,0,1,1.67-4.2,5.51,5.51,0,0,1,4.12-1.62,5.92,5.92,0,0,0-3.82,1.9,5.6,5.6,0,0,0,.21,7.72A5.93,5.93,0,0,0,114.07,108.2Z"/></g><path class="cls-6" d="M70.65,101.3s-.87-2.07-2.75-1.71a3.32,3.32,0,0,1,3.67,0Z"/><path class="cls-6" d="M71.54,99.74s-.15-2.59-2.34-2.91c0,0,2.63-.7,4,1.37Z"/><circle class="cls-2" cx="78.03" cy="104.21" r="7.88" transform="translate(-49.89 80.03) rotate(-42.47)"/><g class="cls-7"><circle cx="79.53" cy="107.23" r="5.68" transform="translate(-51.54 81.84) rotate(-42.47)"/><circle class="cls-2" cx="76.7" cy="106.48" r="1.61" transform="translate(-51.78 79.73) rotate(-42.47)"/></g><ellipse class="cls-3" cx="91.09" cy="111.29" rx="2.01" ry="1.66" transform="translate(-50.23 84.63) rotate(-40.02)"/><g class="cls-8"><path class="cls-2" d="M90,113.64a2.49,2.49,0,0,0-1.13-3.44l-1.45,1.09L89,115Z"/></g></svg>