<svg id="_10" data-name="10" xmlns="http://www.w3.org/2000/svg" xmlns:xlink="http://www.w3.org/1999/xlink" viewBox="0 0 260 168"><defs><style>.cls-1{fill:none;}.cls-2{fill:#870000;}.cls-3{fill:#ff8585;}.cls-4{fill:red;}.cls-5{fill:#7f2828;stroke:#7f2828;stroke-miterlimit:10;stroke-width:0.07px;}.cls-6{fill:#fff;}.cls-7{clip-path:url(#clip-path);}.cls-8{clip-path:url(#clip-path-2);}</style><clipPath id="clip-path"><ellipse class="cls-1" cx="132.76" cy="150.74" rx="7.43" ry="13" transform="translate(-20.48 280.6) rotate(-88.91)"/></clipPath><clipPath id="clip-path-2"><path class="cls-2" d="M121.13,152.79a3.36,3.36,0,0,0,2.64.4S122.81,156.69,121.13,152.79Z"/></clipPath></defs><path class="cls-3" d="M146.31,148.28c.84-1.27,2.38-2.37,5.22-1.71a4.38,4.38,0,0,1-3.23,4.76,4.76,4.76,0,0,1,3,4.67,4.68,4.68,0,0,1-5.33-2.72A5.21,5.21,0,0,1,146.31,148.28Z"/><path class="cls-3" d="M136.28,153.53a3.22,3.22,0,0,0-4.56-.08c-1.28,1.24-2.22,2.43-.08,4.56s5.62,1.42,5.75,1.29S137.52,154.8,136.28,153.53Z"/><path class="cls-3" d="M136.51,146.84a3.24,3.24,0,0,1-4.57-.1c-1.23-1.29-2.11-2.51.1-4.56s5.67-1.21,5.8-1.07S137.79,145.61,136.51,146.84Z"/><ellipse class="cls-4" cx="132.76" cy="150.74" rx="7.43" ry="13" transform="translate(-20.48 280.6) rotate(-88.91)"/><path class="cls-5" d="M125.07,148.34s.7,0,.86-.54a1,1,0,0,1-.5,1Z"/><path class="cls-5" d="M125.39,148.81a1,1,0,0,0,1.15-.26,1.23,1.23,0,0,1-1,.95Z"/><ellipse class="cls-6" cx="123.22" cy="150.03" rx="2.49" ry="2.48" transform="translate(-17.14 15.9) rotate(-6.91)"/><circle cx="123.22" cy="150.03" r="1.79" transform="translate(-17.14 15.9) rotate(-6.91)"/><circle class="cls-6" cx="123.82" cy="149.34" r="0.51" transform="translate(-17.06 15.97) rotate(-6.91)"/><g class="cls-7"><path class="cls-3" d="M129.73,144.93a1.73,1.73,0,0,1-1.3-.51,1.79,1.79,0,0,1,0-2.61,1.67,1.67,0,0,1,1.32-.46,1.88,1.88,0,0,0-1.24.54,1.79,1.79,0,0,0-.05,2.45A1.91,1.91,0,0,0,129.73,144.93Z"/><path class="cls-3" d="M129.66,148.51a1.73,1.73,0,0,1-1.3-.51,1.79,1.79,0,0,1,0-2.61,1.67,1.67,0,0,1,1.32-.46,1.88,1.88,0,0,0-1.24.54,1.7,1.7,0,0,0-.51,1.21,1.73,1.73,0,0,0,.46,1.24A1.91,1.91,0,0,0,129.66,148.51Z"/><path class="cls-3" d="M129.59,152.09a1.72,1.72,0,0,1-1.3-.51,1.77,1.77,0,0,1,.05-2.61,1.67,1.67,0,0,1,1.32-.46,1.88,1.88,0,0,0-1.24.54,1.7,1.7,0,0,0-.51,1.21,1.73,1.73,0,0,0,.46,1.24A1.91,1.91,0,0,0,129.59,152.09Z"/><path class="cls-3" d="M129.51,155.67a1.67,1.67,0,0,1-1.29-.51,1.77,1.77,0,0,1,.05-2.61,1.67,1.67,0,0,1,1.32-.46,1.88,1.88,0,0,0-1.24.54,1.79,1.79,0,0,0,0,2.45A1.91,1.91,0,0,0,129.51,155.67Z"/><path class="cls-3" d="M129.44,159.25a1.66,1.66,0,0,1-1.29-.51,1.84,1.84,0,0,1-.55-1.32,1.87,1.87,0,0,1,.6-1.29,1.69,1.69,0,0,1,1.31-.46,1.9,1.9,0,0,0-1.24.54,1.74,1.74,0,0,0-.5,1.22,1.68,1.68,0,0,0,.46,1.23A1.89,1.89,0,0,0,129.44,159.25Z"/><path class="cls-3" d="M132.87,145a1.73,1.73,0,0,1-1.3-.51,1.89,1.89,0,0,1-.54-1.32,1.85,1.85,0,0,1,.6-1.29,1.65,1.65,0,0,1,1.31-.46,1.9,1.9,0,0,0-1.24.54,1.69,1.69,0,0,0-.5,1.21,1.72,1.72,0,0,0,.45,1.24A1.94,1.94,0,0,0,132.87,145Z"/><path class="cls-3" d="M132.8,148.57a1.73,1.73,0,0,1-1.3-.51,1.79,1.79,0,0,1,.05-2.61,1.69,1.69,0,0,1,1.32-.46,1.9,1.9,0,0,0-1.24.54,1.75,1.75,0,0,0-.51,1.21,1.73,1.73,0,0,0,.46,1.24A1.91,1.91,0,0,0,132.8,148.57Z"/><path class="cls-3" d="M132.73,152.15a1.73,1.73,0,0,1-1.3-.51,1.79,1.79,0,0,1,0-2.61,1.69,1.69,0,0,1,1.32-.46,1.88,1.88,0,0,0-1.24.54,1.75,1.75,0,0,0-.51,1.22,1.72,1.72,0,0,0,.46,1.23A1.91,1.91,0,0,0,132.73,152.15Z"/><path class="cls-3" d="M132.66,155.73a1.7,1.7,0,0,1-1.3-.51,1.84,1.84,0,0,1-.54-1.32,1.82,1.82,0,0,1,.59-1.29,1.71,1.71,0,0,1,1.32-.46,1.88,1.88,0,0,0-1.24.54,1.79,1.79,0,0,0-.05,2.45A1.91,1.91,0,0,0,132.66,155.73Z"/><path class="cls-3" d="M132.59,159.31a1.7,1.7,0,0,1-1.3-.51,1.84,1.84,0,0,1-.55-1.32,1.87,1.87,0,0,1,.6-1.29,1.71,1.71,0,0,1,1.32-.46,1.88,1.88,0,0,0-1.24.54,1.79,1.79,0,0,0,0,2.45A1.91,1.91,0,0,0,132.59,159.31Z"/><path class="cls-3" d="M136,145.05a1.71,1.71,0,0,1-1.29-.51,1.77,1.77,0,0,1,.05-2.61,1.67,1.67,0,0,1,1.32-.46,1.88,1.88,0,0,0-1.24.54,1.7,1.7,0,0,0-.51,1.21,1.73,1.73,0,0,0,.46,1.24A1.91,1.91,0,0,0,136,145.05Z"/><path class="cls-3" d="M135.94,148.63a1.7,1.7,0,0,1-1.29-.51,1.77,1.77,0,0,1,0-2.61,1.65,1.65,0,0,1,1.31-.46,1.9,1.9,0,0,0-1.24.54,1.74,1.74,0,0,0-.5,1.22,1.68,1.68,0,0,0,.46,1.23A1.89,1.89,0,0,0,135.94,148.63Z"/><path class="cls-3" d="M135.87,152.21a1.7,1.7,0,0,1-1.3-.51,1.89,1.89,0,0,1-.54-1.32,1.87,1.87,0,0,1,.6-1.29,1.69,1.69,0,0,1,1.31-.46,1.9,1.9,0,0,0-1.24.54,1.74,1.74,0,0,0-.5,1.22,1.71,1.71,0,0,0,.45,1.23A1.94,1.94,0,0,0,135.87,152.21Z"/><path class="cls-3" d="M135.8,155.79a1.7,1.7,0,0,1-1.3-.51,1.78,1.78,0,0,1,.06-2.61,1.69,1.69,0,0,1,1.31-.46,1.9,1.9,0,0,0-1.24.54,1.82,1.82,0,0,0,0,2.45A1.91,1.91,0,0,0,135.8,155.79Z"/><path class="cls-3" d="M135.73,159.37a1.7,1.7,0,0,1-1.3-.51,1.88,1.88,0,0,1-.54-1.32,1.86,1.86,0,0,1,.59-1.29,1.72,1.72,0,0,1,1.32-.46,1.9,1.9,0,0,0-1.24.54,1.8,1.8,0,0,0-.05,2.46A1.9,1.9,0,0,0,135.73,159.37Z"/><path class="cls-3" d="M139.16,145.11a1.73,1.73,0,0,1-1.3-.51,1.85,1.85,0,0,1-.54-1.32,1.8,1.8,0,0,1,.59-1.29,1.67,1.67,0,0,1,1.32-.46,1.88,1.88,0,0,0-1.24.54,1.7,1.7,0,0,0-.51,1.21,1.73,1.73,0,0,0,.46,1.24A1.91,1.91,0,0,0,139.16,145.11Z"/><path class="cls-3" d="M139.09,148.69a1.7,1.7,0,0,1-1.3-.51,1.77,1.77,0,0,1,.05-2.61,1.67,1.67,0,0,1,1.32-.46,1.88,1.88,0,0,0-1.24.54,1.79,1.79,0,0,0,0,2.45A1.91,1.91,0,0,0,139.09,148.69Z"/><path class="cls-3" d="M139,152.27a1.68,1.68,0,0,1-1.3-.51,1.84,1.84,0,0,1-.55-1.32,1.87,1.87,0,0,1,.6-1.29,1.71,1.71,0,0,1,1.32-.46,1.88,1.88,0,0,0-1.24.54,1.79,1.79,0,0,0,0,2.45A1.91,1.91,0,0,0,139,152.27Z"/><path class="cls-3" d="M138.94,155.85a1.66,1.66,0,0,1-1.29-.51,1.84,1.84,0,0,1-.55-1.32,1.87,1.87,0,0,1,.6-1.29,1.71,1.71,0,0,1,1.32-.46,1.88,1.88,0,0,0-1.24.54,1.79,1.79,0,0,0-.05,2.45A1.91,1.91,0,0,0,138.94,155.85Z"/><path class="cls-3" d="M138.87,159.43a1.66,1.66,0,0,1-1.29-.51,1.84,1.84,0,0,1-.55-1.31,1.87,1.87,0,0,1,.6-1.3,1.73,1.73,0,0,1,1.31-.46,1.9,1.9,0,0,0-1.24.54,1.83,1.83,0,0,0,0,2.46A1.93,1.93,0,0,0,138.87,159.43Z"/><path class="cls-3" d="M142.3,145.17a1.7,1.7,0,0,1-1.3-.51,1.89,1.89,0,0,1-.54-1.32,1.85,1.85,0,0,1,.6-1.29,1.65,1.65,0,0,1,1.31-.46,1.9,1.9,0,0,0-1.24.54,1.82,1.82,0,0,0,0,2.45A1.91,1.91,0,0,0,142.3,145.17Z"/><path class="cls-3" d="M142.23,148.75a1.7,1.7,0,0,1-1.3-.51,1.88,1.88,0,0,1-.54-1.32,1.86,1.86,0,0,1,.59-1.29,1.72,1.72,0,0,1,1.32-.46,1.9,1.9,0,0,0-1.24.54,1.75,1.75,0,0,0-.51,1.22,1.72,1.72,0,0,0,.46,1.23A1.91,1.91,0,0,0,142.23,148.75Z"/><path class="cls-3" d="M142.16,152.33a1.7,1.7,0,0,1-1.3-.51,1.84,1.84,0,0,1-.54-1.32,1.86,1.86,0,0,1,.59-1.29,1.71,1.71,0,0,1,1.32-.46,1.88,1.88,0,0,0-1.24.54,1.75,1.75,0,0,0-.51,1.22,1.7,1.7,0,0,0,.46,1.23A1.91,1.91,0,0,0,142.16,152.33Z"/><path class="cls-3" d="M142.09,155.91a1.7,1.7,0,0,1-1.3-.51,1.79,1.79,0,0,1,.05-2.61,1.71,1.71,0,0,1,1.32-.46,1.88,1.88,0,0,0-1.24.54,1.71,1.71,0,0,0-.51,1.22,1.74,1.74,0,0,0,.46,1.24A1.9,1.9,0,0,0,142.09,155.91Z"/><path class="cls-3" d="M142,159.49a1.68,1.68,0,0,1-1.3-.51,1.84,1.84,0,0,1-.55-1.31,1.87,1.87,0,0,1,.6-1.3,1.75,1.75,0,0,1,1.32-.46,1.93,1.93,0,0,0-1.24.54,1.71,1.71,0,0,0-.51,1.22,1.74,1.74,0,0,0,.46,1.24A1.9,1.9,0,0,0,142,159.49Z"/><path class="cls-3" d="M145.44,145.23a1.66,1.66,0,0,1-1.29-.51,1.77,1.77,0,0,1,0-2.61,1.71,1.71,0,0,1,1.32-.46,1.88,1.88,0,0,0-1.24.54,1.71,1.71,0,0,0-.51,1.22,1.68,1.68,0,0,0,.46,1.23A1.91,1.91,0,0,0,145.44,145.23Z"/><path class="cls-3" d="M145.37,148.81a1.66,1.66,0,0,1-1.29-.51,1.84,1.84,0,0,1-.55-1.32,1.87,1.87,0,0,1,.6-1.29,1.69,1.69,0,0,1,1.31-.46,1.9,1.9,0,0,0-1.24.54,1.74,1.74,0,0,0-.5,1.22,1.69,1.69,0,0,0,.45,1.23A1.94,1.94,0,0,0,145.37,148.81Z"/><path class="cls-3" d="M145.3,152.39a1.7,1.7,0,0,1-1.3-.51,1.78,1.78,0,0,1,.06-2.61,1.69,1.69,0,0,1,1.31-.46,1.9,1.9,0,0,0-1.24.54,1.83,1.83,0,0,0,0,2.46A1.93,1.93,0,0,0,145.3,152.39Z"/><path class="cls-3" d="M145.23,156a1.7,1.7,0,0,1-1.3-.51,1.87,1.87,0,0,1-.54-1.31,1.9,1.9,0,0,1,.59-1.3,1.76,1.76,0,0,1,1.32-.46,2,2,0,0,0-1.24.54,1.7,1.7,0,0,0-.5,1.22,1.73,1.73,0,0,0,.45,1.24A1.9,1.9,0,0,0,145.23,156Z"/><path class="cls-3" d="M145.16,159.55a1.7,1.7,0,0,1-1.3-.51,1.79,1.79,0,0,1,0-2.61,1.76,1.76,0,0,1,1.32-.46,2,2,0,0,0-1.24.54,1.8,1.8,0,0,0-.05,2.46A1.9,1.9,0,0,0,145.16,159.55Z"/></g><path class="cls-2" d="M121.13,152.79a3.36,3.36,0,0,0,2.64.4S122.81,156.69,121.13,152.79Z"/><g class="cls-8"><ellipse class="cls-6" cx="122.89" cy="152.97" rx="1.34" ry="0.76" transform="translate(-17.47 15.85) rotate(-6.89)"/></g></svg>