<svg id="_1" data-name="1" xmlns="http://www.w3.org/2000/svg" xmlns:xlink="http://www.w3.org/1999/xlink" viewBox="0 0 260 168"><defs><style>.cls-1{fill:#fff;}.cls-2{fill:none;}.cls-3{fill:#ff8585;}.cls-4{fill:red;}.cls-5{fill:#7f2828;stroke:#7f2828;stroke-miterlimit:10;stroke-width:0.09px;}.cls-6{clip-path:url(#clip-path);}.cls-7{clip-path:url(#clip-path-2);}</style><clipPath id="clip-path"><circle class="cls-1" cx="135.97" cy="88.85" r="2.96" transform="translate(-24.03 60.92) rotate(-23.26)"/></clipPath><clipPath id="clip-path-2"><ellipse class="cls-2" cx="145.84" cy="83.18" rx="15.47" ry="8.86" transform="translate(-21.77 92.88) rotate(-33.01)"/></clipPath></defs><path class="cls-3" d="M157.54,71.71c0-1.81.77-3.94,4-5.18a5.23,5.23,0,0,1,0,6.85,5.68,5.68,0,0,1,6,2.63,5.56,5.56,0,0,1-7.06.88A6.26,6.26,0,0,1,157.54,71.71Z"/><path class="cls-3" d="M151.18,83.57a3.85,3.85,0,0,0-4.55,3c-.43,2.07-.55,3.87,3,4.54s6.49-2.34,6.54-2.55S153.26,84,151.18,83.57Z"/><path class="cls-3" d="M146.92,76.83a3.85,3.85,0,0,1-4.56,3c-2.07-.45-3.76-1.07-3-4.57s4.78-5,5-4.93S147.37,74.75,146.92,76.83Z"/><ellipse class="cls-4" cx="145.84" cy="83.18" rx="15.47" ry="8.86" transform="translate(-21.77 92.88) rotate(-33.01)"/><path class="cls-5" d="M136.66,85.94s.72-.43.49-1.11a1.23,1.23,0,0,1,.2,1.36Z"/><path class="cls-5" d="M137.29,86.2s1-.2,1-1a1.43,1.43,0,0,1-.3,1.56Z"/><circle class="cls-1" cx="135.97" cy="88.85" r="2.96" transform="translate(-24.03 60.92) rotate(-23.26)"/><g class="cls-6"><circle cx="135.97" cy="89.96" r="2.14" transform="translate(-24.48 61.01) rotate(-23.26)"/><circle class="cls-1" cx="136.1" cy="88.87" r="0.6"/></g><g class="cls-7"><path class="cls-3" d="M139,79.46a2.08,2.08,0,0,1-1.63.38,2.17,2.17,0,0,1-1.7-2.63,2.08,2.08,0,0,1,1-1.33A2.14,2.14,0,0,0,139,79.46Z"/><path class="cls-3" d="M141.29,83a2.07,2.07,0,0,1-1.62.38,2.2,2.2,0,0,1-1.41-1,2.16,2.16,0,0,1-.29-1.68,2.11,2.11,0,0,1,1-1.33A2.14,2.14,0,0,0,141.29,83Z"/><path class="cls-3" d="M143.62,86.62A2.07,2.07,0,0,1,142,87a2.17,2.17,0,0,1-1.71-2.63,2.11,2.11,0,0,1,1-1.33,2.14,2.14,0,0,0,2.33,3.58Z"/><path class="cls-3" d="M146,90.21a2.13,2.13,0,0,1-1.63.37,2.16,2.16,0,0,1-1.7-2.62,2.1,2.1,0,0,1,1-1.34A2.14,2.14,0,0,0,146,90.21Z"/><path class="cls-3" d="M148.27,93.79a2.11,2.11,0,0,1-1.62.37,2.16,2.16,0,0,1-1.7-2.62,2,2,0,0,1,1-1.33,2.15,2.15,0,0,0-.55,2.89A2.17,2.17,0,0,0,148.27,93.79Z"/><path class="cls-3" d="M142.1,77.43a2.1,2.1,0,0,1-1.62.37,2.16,2.16,0,0,1-1.7-2.62,2.1,2.1,0,0,1,1-1.34,2.14,2.14,0,0,0,2.32,3.59Z"/><path class="cls-3" d="M144.43,81a2.11,2.11,0,0,1-1.62.37,2.16,2.16,0,0,1-1.71-2.62,2.09,2.09,0,0,1,1-1.33A2.14,2.14,0,0,0,144.43,81Z"/><path class="cls-3" d="M146.76,84.59a2.13,2.13,0,0,1-1.63.37,2.16,2.16,0,0,1-1.7-2.62,2.06,2.06,0,0,1,1-1.33,2.14,2.14,0,0,0,2.33,3.58Z"/><path class="cls-3" d="M149.08,88.17a2.06,2.06,0,0,1-1.62.37,2.16,2.16,0,0,1-1.7-2.62,2.06,2.06,0,0,1,1-1.33,2.14,2.14,0,0,0,2.32,3.58Z"/><path class="cls-3" d="M151.41,91.75a2.06,2.06,0,0,1-1.62.37,2.15,2.15,0,0,1-1.71-2.62,2.06,2.06,0,0,1,1-1.33,2.14,2.14,0,0,0,2.33,3.58Z"/><path class="cls-3" d="M145.24,75.39a2.06,2.06,0,0,1-1.62.37,2.16,2.16,0,0,1-1.71-2.62,2.09,2.09,0,0,1,1-1.33,2.14,2.14,0,0,0,2.33,3.58Z"/><path class="cls-3" d="M147.57,79a2.08,2.08,0,0,1-1.63.37,2.19,2.19,0,0,1-1.41-.94,2.22,2.22,0,0,1-.29-1.68,2.06,2.06,0,0,1,1-1.33A2.14,2.14,0,0,0,147.57,79Z"/><path class="cls-3" d="M149.89,82.55a2.06,2.06,0,0,1-1.62.37,2.15,2.15,0,0,1-1.7-2.62,2.06,2.06,0,0,1,1-1.33,2.14,2.14,0,0,0,2.32,3.58Z"/><path class="cls-3" d="M152.22,86.13a2.06,2.06,0,0,1-1.62.37,2.15,2.15,0,0,1-1.71-2.62,2.06,2.06,0,0,1,1-1.33,2.14,2.14,0,0,0,2.33,3.58Z"/><path class="cls-3" d="M154.55,89.71a2.09,2.09,0,0,1-1.63.37,2.19,2.19,0,0,1-1.41-.94,2.21,2.21,0,0,1-.29-1.68,2.06,2.06,0,0,1,1-1.33,2.14,2.14,0,0,0,2.33,3.58Z"/><path class="cls-3" d="M148.38,73.35a2.08,2.08,0,0,1-1.63.37,2.19,2.19,0,0,1-1.41-.94,2.22,2.22,0,0,1-.29-1.68,2.06,2.06,0,0,1,1-1.33,2.14,2.14,0,0,0,2.33,3.58Z"/><path class="cls-3" d="M150.7,76.93a2.06,2.06,0,0,1-1.62.37,2.15,2.15,0,0,1-1.7-2.62,2.06,2.06,0,0,1,1-1.33,2.14,2.14,0,0,0,2.32,3.58Z"/><path class="cls-3" d="M153,80.51a2.06,2.06,0,0,1-1.62.37,2.15,2.15,0,0,1-1.71-2.62,2.09,2.09,0,0,1,1-1.33A2.14,2.14,0,0,0,153,80.51Z"/><path class="cls-3" d="M155.36,84.09a2.09,2.09,0,0,1-1.63.37,2.15,2.15,0,0,1-1.41-.94,2.21,2.21,0,0,1-.29-1.68,2.08,2.08,0,0,1,1-1.33,2.14,2.14,0,0,0,2.33,3.58Z"/><path class="cls-3" d="M157.68,87.67a2.07,2.07,0,0,1-1.62.38,2.2,2.2,0,0,1-1.41-1,2.16,2.16,0,0,1-.29-1.68,2.05,2.05,0,0,1,1-1.33,2.14,2.14,0,0,0,2.32,3.58Z"/><path class="cls-3" d="M151.51,71.31a2.06,2.06,0,0,1-1.62.37,2.15,2.15,0,0,1-1.7-2.62,2.08,2.08,0,0,1,1-1.33,2.14,2.14,0,0,0,2.32,3.58Z"/><path class="cls-3" d="M153.84,74.89a2,2,0,0,1-1.62.37,2.2,2.2,0,0,1-1.42-.94,2.25,2.25,0,0,1-.29-1.68,2.12,2.12,0,0,1,1-1.33,2.14,2.14,0,0,0,2.33,3.58Z"/><path class="cls-3" d="M156.17,78.47a2.09,2.09,0,0,1-1.63.38,2.17,2.17,0,0,1-1.7-2.63,2.08,2.08,0,0,1,1-1.33,2.14,2.14,0,0,0,2.33,3.58Z"/><path class="cls-3" d="M158.49,82.05a2.07,2.07,0,0,1-1.62.38,2.2,2.2,0,0,1-1.41-1,2.16,2.16,0,0,1-.29-1.68,2.11,2.11,0,0,1,1-1.33,2.14,2.14,0,0,0,2.32,3.58Z"/><path class="cls-3" d="M160.82,85.63a2.07,2.07,0,0,1-1.62.38,2.22,2.22,0,0,1-1.42-1,2.19,2.19,0,0,1-.29-1.67,2.1,2.1,0,0,1,1-1.34,2.14,2.14,0,0,0,2.33,3.58Z"/><path class="cls-3" d="M154.65,69.27a2.07,2.07,0,0,1-1.62.38A2.17,2.17,0,0,1,151.32,67a2.14,2.14,0,0,1,1-1.33,2.14,2.14,0,0,0,2.33,3.58Z"/><path class="cls-3" d="M157,72.85a2.08,2.08,0,0,1-1.63.38,2.17,2.17,0,0,1-1.7-2.63,2.11,2.11,0,0,1,1-1.33A2.14,2.14,0,0,0,157,72.85Z"/><path class="cls-3" d="M159.3,76.44a2.11,2.11,0,0,1-1.62.37,2.16,2.16,0,0,1-1.7-2.62,2.1,2.1,0,0,1,1-1.34,2.14,2.14,0,0,0,2.32,3.59Z"/><path class="cls-3" d="M161.63,80a2.11,2.11,0,0,1-1.62.37,2.21,2.21,0,0,1-1.42-1,2.19,2.19,0,0,1-.29-1.67,2.06,2.06,0,0,1,1-1.33A2.14,2.14,0,0,0,161.63,80Z"/><path class="cls-3" d="M164,83.6a2.13,2.13,0,0,1-1.63.37,2.16,2.16,0,0,1-1.7-2.62,2.06,2.06,0,0,1,1-1.33A2.14,2.14,0,0,0,164,83.6Z"/></g></svg>