<svg id="_3" data-name="3" xmlns="http://www.w3.org/2000/svg" xmlns:xlink="http://www.w3.org/1999/xlink" viewBox="0 0 260 168"><defs><style>.cls-1{fill:#fff;}.cls-2{fill:none;}.cls-3{fill:#ff8585;}.cls-4{fill:red;}.cls-5{fill:#7f2828;stroke:#7f2828;stroke-miterlimit:10;stroke-width:0.09px;}.cls-6{clip-path:url(#clip-path);}.cls-7{clip-path:url(#clip-path-2);}</style><clipPath id="clip-path"><circle class="cls-1" cx="134.24" cy="133.03" r="2.96" transform="translate(-27.89 230.15) rotate(-75.66)"/></clipPath><clipPath id="clip-path-2"><ellipse class="cls-2" cx="136.13" cy="121.81" rx="15.47" ry="8.86" transform="translate(-0.06 243.56) rotate(-83.62)"/></clipPath></defs><path class="cls-3" d="M134.69,105.49c-1.42-1.14-2.56-3.09-1.47-6.37a5.22,5.22,0,0,1,5.3,4.34,5.7,5.7,0,0,1,5.87-3,5.56,5.56,0,0,1-3.81,6A6.23,6.23,0,0,1,134.69,105.49Z"/><path class="cls-3" d="M139.82,117.93a3.85,3.85,0,0,0-.59,5.41c1.33,1.65,2.64,2.88,5.4.58s2.31-6.49,2.17-6.67S141.47,116.61,139.82,117.93Z"/><path class="cls-3" d="M131.91,116.94a3.85,3.85,0,0,1-.62,5.4c-1.66,1.32-3.22,2.23-5.4-.62s-.82-6.85-.64-7S130.59,115.28,131.91,116.94Z"/><ellipse class="cls-4" cx="136.13" cy="121.81" rx="15.47" ry="8.86" transform="translate(-0.06 243.56) rotate(-83.62)"/><path class="cls-5" d="M132.44,130.66s.12-.83-.55-1.08a1.23,1.23,0,0,1,1.18.7Z"/><path class="cls-5" d="M133,130.33a1.16,1.16,0,0,0-.18-1.39,1.44,1.44,0,0,1,1,1.22Z"/><circle class="cls-1" cx="134.24" cy="133.03" r="2.96" transform="translate(-27.89 230.15) rotate(-75.66)"/><g class="cls-6"><circle cx="135.11" cy="133.74" r="2.14" transform="translate(-27.93 231.52) rotate(-75.66)"/><circle class="cls-1" cx="134.35" cy="132.95" r="0.6"/></g><g class="cls-7"><path class="cls-3" d="M128.89,124.76a2,2,0,0,1-.74,1.49,2.19,2.19,0,0,1-1.63.5,2.22,2.22,0,0,1-1.48-.84,2.1,2.1,0,0,1-.39-1.62,2.14,2.14,0,0,0,4.24.47Z"/><path class="cls-3" d="M133.14,125.24a2.1,2.1,0,0,1-.75,1.49,2.15,2.15,0,0,1-3.1-.35,2.06,2.06,0,0,1-.4-1.62,2.14,2.14,0,0,0,4.25.48Z"/><path class="cls-3" d="M137.38,125.71a2.05,2.05,0,0,1-.74,1.49,2.19,2.19,0,0,1-1.63.5,2.22,2.22,0,0,1-1.48-.84,2.06,2.06,0,0,1-.39-1.62,2.14,2.14,0,0,0,4.24.47Z"/><path class="cls-3" d="M141.62,126.19a2.05,2.05,0,0,1-.74,1.49,2.22,2.22,0,0,1-1.63.49,2.18,2.18,0,0,1-1.48-.84,2.09,2.09,0,0,1-.39-1.62,2.14,2.14,0,0,0,4.24.48Z"/><path class="cls-3" d="M145.87,126.66a2.13,2.13,0,0,1-.74,1.49,2.24,2.24,0,0,1-1.63.5,2.22,2.22,0,0,1-1.48-.84,2.08,2.08,0,0,1-.4-1.62,2.14,2.14,0,0,0,4.25.47Z"/><path class="cls-3" d="M129.31,121.05a2.13,2.13,0,0,1-.74,1.49,2.16,2.16,0,0,1-3.11-.35,2.07,2.07,0,0,1-.4-1.62,2.14,2.14,0,0,0,4.25.48Z"/><path class="cls-3" d="M133.55,121.52a2.05,2.05,0,0,1-.74,1.49,2.16,2.16,0,0,1-3.11-.35,2.08,2.08,0,0,1-.39-1.61,2.14,2.14,0,0,0,4.24.47Z"/><path class="cls-3" d="M137.8,122a2.12,2.12,0,0,1-.75,1.49,2.15,2.15,0,0,1-3.1-.35,2.07,2.07,0,0,1-.4-1.62,2.14,2.14,0,0,0,4.25.48Z"/><path class="cls-3" d="M142,122.47a2.09,2.09,0,0,1-.74,1.49,2.16,2.16,0,0,1-3.11-.35,2,2,0,0,1-.39-1.61,2.14,2.14,0,0,0,4.24.47Z"/><path class="cls-3" d="M146.28,122.94a2,2,0,0,1-.74,1.49,2.19,2.19,0,0,1-1.63.5,2.22,2.22,0,0,1-1.48-.84,2.1,2.1,0,0,1-.39-1.62,2.14,2.14,0,0,0,4.24.47Z"/><path class="cls-3" d="M129.72,117.33a2.05,2.05,0,0,1-.74,1.49,2.16,2.16,0,0,1-3.11-.35,2.09,2.09,0,0,1-.39-1.62,2.14,2.14,0,0,0,4.24.48Z"/><path class="cls-3" d="M134,117.8a2.13,2.13,0,0,1-.74,1.49,2.15,2.15,0,0,1-3.11-.34,2.07,2.07,0,0,1-.4-1.62,2.14,2.14,0,0,0,4.25.47Z"/><path class="cls-3" d="M138.21,118.28a2.05,2.05,0,0,1-.74,1.49,2.16,2.16,0,0,1-3.11-.35,2.09,2.09,0,0,1-.39-1.62,2.14,2.14,0,0,0,4.24.48Z"/><path class="cls-3" d="M142.45,118.75a2.05,2.05,0,0,1-.74,1.49,2.17,2.17,0,0,1-1.63.5,2.22,2.22,0,0,1-1.48-.84,2.11,2.11,0,0,1-.39-1.62,2.14,2.14,0,0,0,4.24.47Z"/><path class="cls-3" d="M146.7,119.23a2.13,2.13,0,0,1-.74,1.49,2.23,2.23,0,0,1-1.63.49,2.18,2.18,0,0,1-1.48-.84,2.06,2.06,0,0,1-.4-1.62,2.14,2.14,0,0,0,4.25.48Z"/><path class="cls-3" d="M130.14,113.61a2.09,2.09,0,0,1-.74,1.49,2.16,2.16,0,0,1-3.11-.35,2,2,0,0,1-.39-1.61,2.14,2.14,0,0,0,4.24.47Z"/><path class="cls-3" d="M134.38,114.09a2.05,2.05,0,0,1-.74,1.49,2.16,2.16,0,0,1-3.11-.35,2.1,2.1,0,0,1-.39-1.62,2.14,2.14,0,0,0,4.24.48Z"/><path class="cls-3" d="M138.63,114.56a2.1,2.1,0,0,1-.75,1.49,2.15,2.15,0,0,1-1.62.49,2.18,2.18,0,0,1-1.48-.84,2,2,0,0,1-.4-1.61,2.14,2.14,0,0,0,4.25.47Z"/><path class="cls-3" d="M142.87,115a2.07,2.07,0,0,1-.74,1.49,2.16,2.16,0,0,1-3.11-.35,2.1,2.1,0,0,1-.39-1.62,2.14,2.14,0,0,0,4.24.48Z"/><path class="cls-3" d="M147.11,115.51a2.05,2.05,0,0,1-.74,1.49,2.16,2.16,0,0,1-3.11-.35,2.08,2.08,0,0,1-.39-1.61,2.14,2.14,0,0,0,4.24.47Z"/><path class="cls-3" d="M130.55,109.89a2,2,0,0,1-.74,1.49,2.14,2.14,0,0,1-3.1-.34,2.07,2.07,0,0,1-.4-1.62,2.14,2.14,0,0,0,4.24.47Z"/><path class="cls-3" d="M134.8,110.37a2.09,2.09,0,0,1-.74,1.49,2.16,2.16,0,0,1-3.11-.35,2.06,2.06,0,0,1-.4-1.62,2.14,2.14,0,0,0,4.25.48Z"/><path class="cls-3" d="M139,110.84a2.05,2.05,0,0,1-.74,1.49,2.19,2.19,0,0,1-1.63.5,2.22,2.22,0,0,1-1.48-.84,2.1,2.1,0,0,1-.39-1.62,2.14,2.14,0,0,0,4.24.47Z"/><path class="cls-3" d="M143.29,111.32a2.1,2.1,0,0,1-.75,1.49,2.15,2.15,0,0,1-3.1-.35,2.06,2.06,0,0,1-.4-1.62,2.14,2.14,0,0,0,4.25.48Z"/><path class="cls-3" d="M147.53,111.79a2.05,2.05,0,0,1-.74,1.49,2.15,2.15,0,0,1-3.11-.34,2.07,2.07,0,0,1-.39-1.62,2.14,2.14,0,0,0,4.24.47Z"/><path class="cls-3" d="M131,106.18a2.05,2.05,0,0,1-.74,1.49,2.22,2.22,0,0,1-1.63.49,2.18,2.18,0,0,1-1.48-.84,2.09,2.09,0,0,1-.39-1.62,2.14,2.14,0,0,0,4.24.48Z"/><path class="cls-3" d="M135.21,106.65a2.05,2.05,0,0,1-.74,1.49,2.16,2.16,0,0,1-3.11-.35,2.08,2.08,0,0,1-.39-1.61,2.14,2.14,0,0,0,4.24.47Z"/><path class="cls-3" d="M139.46,107.13a2.13,2.13,0,0,1-.74,1.49,2.16,2.16,0,0,1-3.11-.35,2.07,2.07,0,0,1-.4-1.62,2.14,2.14,0,0,0,4.25.48Z"/><path class="cls-3" d="M143.7,107.6a2.05,2.05,0,0,1-.74,1.49,2.16,2.16,0,0,1-3.11-.35,2.08,2.08,0,0,1-.39-1.61,2.14,2.14,0,0,0,4.24.47Z"/><path class="cls-3" d="M148,108.08a2.12,2.12,0,0,1-.75,1.49,2.15,2.15,0,0,1-3.1-.35,2.07,2.07,0,0,1-.4-1.62,2.14,2.14,0,0,0,4.25.48Z"/></g></svg>