<svg xmlns="http://www.w3.org/2000/svg" xmlns:xlink="http://www.w3.org/1999/xlink" viewBox="0 0 260 168"><defs><style>.cls-1{fill:#225dd6;}.cls-2{fill:#1153c9;}.cls-3{clip-path:url(#clip-path);}.cls-4{fill:#ace3fc;}.cls-5{fill:#369ced;}.cls-6{fill:#fff;}.cls-7{fill:#1d53b7;}</style><clipPath id="clip-path"><path class="cls-1" d="M101.92,62.1S59.64,52.75,26.6,52.18s-57,7.06-73.48,20.8c0,0-5-19.14-29.71-19.68,0,0,10.11,3.84,11.43,9.66s.45,10.68,5.91,13.91c0,0-6.42,2.47-8.26,8.44s-11.17,8.62-16,9c0,0,23,8,34.43-9.19,0,0,13.25,20.4,56.75,25s53.83-4.74,54.18-6.56c0,0,3.51-1.24,3.85-2.9,0,0,33.37-6.36,40.44-31.11C106.1,69.47,108,63.79,101.92,62.1Z"/></clipPath></defs><g id="Layer_5" data-name="Layer 5"><path class="cls-2" d="M-10.86,57.51s-1.59-.17,0-7.58S-13.71,34-13.71,34s31.22.38,39.89,19c0,0-4.55,14.18-23.53,15.41S-10.86,57.51-10.86,57.51Z"/><path class="cls-1" d="M101.92,62.1S59.64,52.75,26.6,52.18s-57,7.06-73.48,20.8c0,0-5-19.14-29.71-19.68,0,0,10.11,3.84,11.43,9.66s.45,10.68,5.91,13.91c0,0-6.42,2.47-8.26,8.44s-11.17,8.62-16,9c0,0,23,8,34.43-9.19,0,0,13.25,20.4,56.75,25s53.83-4.74,54.18-6.56c0,0,3.51-1.24,3.85-2.9,0,0,33.37-6.36,40.44-31.11C106.1,69.47,108,63.79,101.92,62.1Z"/><g class="cls-3"><path class="cls-4" d="M94.59,90.49s9.19-7.73-15.51-7.27-26.71-3.44-34.76-3.48-25,4.62-40.09,12.06-33.53,6.3-52.7-1.35l7.46,40.9,118.84-5.56Z"/><path class="cls-5" d="M94.16,54.68S93.33,61,79.48,59.42s-34.82-5.91-52.12-5.31S-3.18,55-20.48,59.8c0,0-10.65,3.55-17.18,8.19-7.31,5.18-12.13,6.25,6.87-9S54.7,42.32,54.7,42.32Z"/></g><circle class="cls-1" cx="46.72" cy="61.9" r="13.95"/><circle class="cls-6" cx="46.72" cy="61.9" r="10.21"/><circle cx="47.68" cy="66.87" r="6.63"/><circle class="cls-6" cx="51.1" cy="63" r="2.34"/><path class="cls-1" d="M56.65,72.09a29.19,29.19,0,0,0-21.12-1.41l7.21,6.47,14.55-1.21Z"/><ellipse class="cls-7" cx="99.26" cy="66.33" rx="2" ry="1.56" transform="translate(-4.17 125.95) rotate(-63.71)"/><path class="cls-5" d="M25.15,61.33s-.69,10.08,2,16.28C27.19,77.61,19.56,73.19,25.15,61.33Z"/><path class="cls-5" d="M20.79,61.18S19.63,70.84,22,76.94C22,76.94,14.83,72.31,20.79,61.18Z"/><path class="cls-5" d="M16.17,62.67s-1,8.59,1,14C17.21,76.68,10.87,72.57,16.17,62.67Z"/><path class="cls-1" d="M24,82.59s-6.59,22.83-26.1,32.22-23.18,7.4-21.46-1.28.7-12.82,2.52-19.39S-16.33,64.34,24,82.59Z"/><path class="cls-1" d="M63.36,100.81s-12.83,3.48-20.83-1.29C42.53,99.52,50,108.46,63.36,100.81Z"/></g></svg>