<svg id="_1" data-name="1" xmlns="http://www.w3.org/2000/svg" xmlns:xlink="http://www.w3.org/1999/xlink" viewBox="0 0 260 168"><defs><style>.cls-1{fill:none;}.cls-2{fill:#870000;}.cls-3{fill:#ff8585;}.cls-4{fill:red;}.cls-5{fill:#7f2828;stroke:#7f2828;stroke-miterlimit:10;stroke-width:0.07px;}.cls-6{fill:#fff;}.cls-7{clip-path:url(#clip-path);}.cls-8{clip-path:url(#clip-path-2);}</style><clipPath id="clip-path"><ellipse class="cls-1" cx="64.49" cy="137.38" rx="13" ry="7.43" transform="translate(-39.25 26.61) rotate(-17.97)"/></clipPath><clipPath id="clip-path-2"><path class="cls-2" d="M75.66,137a3.36,3.36,0,0,1-2.52.89S74.74,141.16,75.66,137Z"/></clipPath></defs><path class="cls-3" d="M50.81,139c-1.17-1-3-1.58-5.49-.12a4.39,4.39,0,0,0,4.47,3.62,4.76,4.76,0,0,0-1.48,5.33,4.68,4.68,0,0,0,4.31-4.15A5.25,5.25,0,0,0,50.81,139Z"/><path class="cls-3" d="M61.93,141.07a3.23,3.23,0,0,1,4.34-1.4c1.59.81,2.83,1.69,1.4,4.34a6.31,6.31,0,0,1-5.12,2.91C62.38,146.84,61.11,142.65,61.93,141.07Z"/><path class="cls-3" d="M59.77,134.74a3.24,3.24,0,0,0,4.34-1.42c.81-1.59,1.29-3-1.42-4.33a6.33,6.33,0,0,0-5.86.65C56.74,129.81,58.18,133.94,59.77,134.74Z"/><ellipse class="cls-4" cx="64.49" cy="137.38" rx="13" ry="7.43" transform="translate(-39.25 26.61) rotate(-17.97)"/><path class="cls-5" d="M71.15,132.85a.84.84,0,0,1-1-.26,1,1,0,0,0,.78.85Z"/><path class="cls-5" d="M71,133.39a1,1,0,0,1-1.18.09,1.2,1.2,0,0,0,1.18.63Z"/><ellipse class="cls-6" cx="73.41" cy="133.93" rx="2.49" ry="2.48" transform="translate(-22.11 14.75) rotate(-9.98)"/><circle cx="73.41" cy="133.93" r="1.79" transform="translate(-22.11 14.75) rotate(-9.98)"/><circle class="cls-6" cx="72.63" cy="133.44" r="0.51" transform="translate(-22.03 14.61) rotate(-9.98)"/><g class="cls-7"><path class="cls-3" d="M65.7,130.94a2,2,0,0,0,1-.92,1.7,1.7,0,0,0,.07-1.31,1.69,1.69,0,0,0-.83-1,2,2,0,0,0-1.35-.16,1.71,1.71,0,0,1,1.4.06,1.89,1.89,0,0,1,.94,1.06,1.84,1.84,0,0,1-.14,1.42A1.67,1.67,0,0,1,65.7,130.94Z"/><path class="cls-3" d="M66.81,134.34a1.88,1.88,0,0,0,1-.91,1.81,1.81,0,0,0-.76-2.34,1.87,1.87,0,0,0-1.34-.15,1.69,1.69,0,0,1,1.39.06,1.81,1.81,0,0,1,1,1.06,1.85,1.85,0,0,1-.14,1.42A1.68,1.68,0,0,1,66.81,134.34Z"/><path class="cls-3" d="M67.92,137.75a1.93,1.93,0,0,0,1-.92,1.8,1.8,0,0,0-.76-2.33,1.93,1.93,0,0,0-1.34-.16,1.73,1.73,0,0,1,1.39.06,1.78,1.78,0,0,1,.81,2.48A1.67,1.67,0,0,1,67.92,137.75Z"/><path class="cls-3" d="M69,141.16a1.93,1.93,0,0,0,1-.92,1.79,1.79,0,0,0-.76-2.33,1.94,1.94,0,0,0-1.34-.16,1.69,1.69,0,0,1,1.39.06,1.87,1.87,0,0,1,1,1.06,1.89,1.89,0,0,1-.14,1.42A1.75,1.75,0,0,1,69,141.16Z"/><path class="cls-3" d="M70.13,144.56a1.9,1.9,0,0,0,1-.91,1.81,1.81,0,0,0-.76-2.34,1.88,1.88,0,0,0-1.34-.15,1.69,1.69,0,0,1,1.39.05,1.86,1.86,0,0,1,1,1.07,1.89,1.89,0,0,1-.14,1.42A1.72,1.72,0,0,1,70.13,144.56Z"/><path class="cls-3" d="M62.71,131.91a2,2,0,0,0,1-.92,1.7,1.7,0,0,0,.07-1.31,1.69,1.69,0,0,0-.83-1,2,2,0,0,0-1.35-.16,1.71,1.71,0,0,1,1.4.06,1.88,1.88,0,0,1,.94,1.07A1.82,1.82,0,0,1,63.8,131,1.67,1.67,0,0,1,62.71,131.91Z"/><path class="cls-3" d="M63.82,135.31a1.84,1.84,0,0,0,1-.91,1.81,1.81,0,0,0-.76-2.34,1.93,1.93,0,0,0-1.34-.15,1.69,1.69,0,0,1,1.39.06,1.77,1.77,0,0,1,.81,2.48A1.68,1.68,0,0,1,63.82,135.31Z"/><path class="cls-3" d="M64.93,138.72a1.92,1.92,0,0,0,1-.91,1.73,1.73,0,0,0,.08-1.32,1.7,1.7,0,0,0-.84-1,1.93,1.93,0,0,0-1.34-.16,1.73,1.73,0,0,1,1.39.06,1.86,1.86,0,0,1,1,1.07,1.89,1.89,0,0,1-.14,1.42A1.68,1.68,0,0,1,64.93,138.72Z"/><path class="cls-3" d="M66,142.13a1.93,1.93,0,0,0,1-.92,1.73,1.73,0,0,0,.08-1.32,1.75,1.75,0,0,0-.84-1,1.94,1.94,0,0,0-1.34-.16,1.69,1.69,0,0,1,1.39.06,1.87,1.87,0,0,1,1,1.06,1.89,1.89,0,0,1-.14,1.42A1.75,1.75,0,0,1,66,142.13Z"/><path class="cls-3" d="M67.14,145.53a1.9,1.9,0,0,0,1-.91,1.73,1.73,0,0,0,.08-1.32,1.77,1.77,0,0,0-.84-1,1.88,1.88,0,0,0-1.34-.15,1.69,1.69,0,0,1,1.39.05,1.86,1.86,0,0,1,.95,1.07,1.89,1.89,0,0,1-.14,1.42A1.72,1.72,0,0,1,67.14,145.53Z"/><path class="cls-3" d="M59.72,132.88a1.91,1.91,0,0,0,1-.92,1.82,1.82,0,0,0-.76-2.33,2,2,0,0,0-1.35-.16,1.75,1.75,0,0,1,1.4.06A1.88,1.88,0,0,1,61,130.6a1.85,1.85,0,0,1-.14,1.42A1.68,1.68,0,0,1,59.72,132.88Z"/><path class="cls-3" d="M60.83,136.29a1.9,1.9,0,0,0,1-.92,1.73,1.73,0,0,0,.08-1.32,1.68,1.68,0,0,0-.84-1,1.93,1.93,0,0,0-1.34-.16,1.69,1.69,0,0,1,1.39.06,1.87,1.87,0,0,1,1,1.06,1.84,1.84,0,0,1-.14,1.42A1.73,1.73,0,0,1,60.83,136.29Z"/><path class="cls-3" d="M61.94,139.69a1.92,1.92,0,0,0,1-.91,1.73,1.73,0,0,0,.08-1.32,1.7,1.7,0,0,0-.84-1,1.87,1.87,0,0,0-1.34-.15,1.69,1.69,0,0,1,1.39.05,1.86,1.86,0,0,1,1,1.07,1.89,1.89,0,0,1-.14,1.42A1.68,1.68,0,0,1,61.94,139.69Z"/><path class="cls-3" d="M63.05,143.1a1.93,1.93,0,0,0,1-.92,1.71,1.71,0,0,0,.08-1.31,1.74,1.74,0,0,0-.84-1,1.94,1.94,0,0,0-1.34-.16,1.69,1.69,0,0,1,1.39.06,1.87,1.87,0,0,1,1,1.06,1.89,1.89,0,0,1-.14,1.42A1.69,1.69,0,0,1,63.05,143.1Z"/><path class="cls-3" d="M64.15,146.5a1.9,1.9,0,0,0,1-.91,1.73,1.73,0,0,0,.08-1.32,1.77,1.77,0,0,0-.84-1,1.88,1.88,0,0,0-1.34-.15,1.73,1.73,0,0,1,1.39.05,1.86,1.86,0,0,1,1,1.07,1.89,1.89,0,0,1-.14,1.42A1.72,1.72,0,0,1,64.15,146.5Z"/><path class="cls-3" d="M56.73,133.85a1.94,1.94,0,0,0,1-.91,1.73,1.73,0,0,0,.07-1.32,1.69,1.69,0,0,0-.83-1,1.91,1.91,0,0,0-1.35-.15,1.71,1.71,0,0,1,1.4.05,1.88,1.88,0,0,1,.94,1.07,1.85,1.85,0,0,1-.14,1.42A1.68,1.68,0,0,1,56.73,133.85Z"/><path class="cls-3" d="M57.84,137.26a1.9,1.9,0,0,0,1-.92,1.8,1.8,0,0,0-.76-2.33,1.93,1.93,0,0,0-1.34-.16,1.69,1.69,0,0,1,1.39.06,1.87,1.87,0,0,1,1,1.06,1.84,1.84,0,0,1-.14,1.42A1.73,1.73,0,0,1,57.84,137.26Z"/><path class="cls-3" d="M59,140.66a1.92,1.92,0,0,0,1-.91,1.81,1.81,0,0,0-.76-2.34,1.87,1.87,0,0,0-1.34-.15,1.69,1.69,0,0,1,1.39.05,1.86,1.86,0,0,1,1,1.07A1.89,1.89,0,0,1,60,139.8,1.68,1.68,0,0,1,59,140.66Z"/><path class="cls-3" d="M60.06,144.07a1.93,1.93,0,0,0,1-.92,1.71,1.71,0,0,0,.08-1.31,1.74,1.74,0,0,0-.84-1,1.94,1.94,0,0,0-1.34-.16,1.69,1.69,0,0,1,1.39.06,1.78,1.78,0,0,1,.81,2.48A1.69,1.69,0,0,1,60.06,144.07Z"/><path class="cls-3" d="M61.16,147.47a1.86,1.86,0,0,0,1-.91,1.73,1.73,0,0,0,.08-1.32,1.77,1.77,0,0,0-.84-1,1.93,1.93,0,0,0-1.34-.15,1.69,1.69,0,0,1,1.39.06,1.84,1.84,0,0,1,.95,1.06,1.89,1.89,0,0,1-.14,1.42A1.72,1.72,0,0,1,61.16,147.47Z"/><path class="cls-3" d="M53.74,134.82a1.94,1.94,0,0,0,1-.91,1.73,1.73,0,0,0,.07-1.32,1.75,1.75,0,0,0-.83-1,1.91,1.91,0,0,0-1.35-.15,1.71,1.71,0,0,1,1.4.05,1.88,1.88,0,0,1,.94,1.07,1.85,1.85,0,0,1-.14,1.42A1.68,1.68,0,0,1,53.74,134.82Z"/><path class="cls-3" d="M54.85,138.23a1.9,1.9,0,0,0,1-.92,1.8,1.8,0,0,0-.76-2.33,1.93,1.93,0,0,0-1.34-.16,1.69,1.69,0,0,1,1.39.06,1.87,1.87,0,0,1,.95,1.06,1.84,1.84,0,0,1-.14,1.42A1.67,1.67,0,0,1,54.85,138.23Z"/><path class="cls-3" d="M56,141.63a1.92,1.92,0,0,0,1-.91,1.81,1.81,0,0,0-.76-2.34,1.87,1.87,0,0,0-1.34-.15,1.73,1.73,0,0,1,1.39.05,1.86,1.86,0,0,1,.95,1.07,1.89,1.89,0,0,1-.14,1.42A1.68,1.68,0,0,1,56,141.63Z"/><path class="cls-3" d="M57.07,145a1.93,1.93,0,0,0,1-.92,1.71,1.71,0,0,0,.08-1.31,1.74,1.74,0,0,0-.84-1,1.94,1.94,0,0,0-1.34-.16,1.73,1.73,0,0,1,1.39.06,1.78,1.78,0,0,1,.81,2.48A1.69,1.69,0,0,1,57.07,145Z"/><path class="cls-3" d="M58.17,148.45a1.92,1.92,0,0,0,1-.92,1.79,1.79,0,0,0-.76-2.33,1.94,1.94,0,0,0-1.34-.16,1.69,1.69,0,0,1,1.39.06,1.82,1.82,0,0,1,.94,1.06,1.85,1.85,0,0,1-.13,1.42A1.77,1.77,0,0,1,58.17,148.45Z"/><path class="cls-3" d="M50.75,135.79a1.94,1.94,0,0,0,1-.91,1.73,1.73,0,0,0,.07-1.32,1.75,1.75,0,0,0-.83-1,1.91,1.91,0,0,0-1.35-.15,1.75,1.75,0,0,1,1.4.05,1.88,1.88,0,0,1,.94,1.07,1.85,1.85,0,0,1-.14,1.42A1.68,1.68,0,0,1,50.75,135.79Z"/><path class="cls-3" d="M51.86,139.2a1.9,1.9,0,0,0,1-.92,1.8,1.8,0,0,0-.76-2.33,1.93,1.93,0,0,0-1.34-.16,1.69,1.69,0,0,1,1.39.06,1.86,1.86,0,0,1,1,1.07,1.82,1.82,0,0,1-.14,1.41A1.67,1.67,0,0,1,51.86,139.2Z"/><path class="cls-3" d="M53,142.6a1.88,1.88,0,0,0,1-.91,1.81,1.81,0,0,0-.76-2.34,1.93,1.93,0,0,0-1.34-.15,1.69,1.69,0,0,1,1.39.06,1.84,1.84,0,0,1,1,1.06,1.89,1.89,0,0,1-.14,1.42A1.68,1.68,0,0,1,53,142.6Z"/><path class="cls-3" d="M54.08,146a1.92,1.92,0,0,0,1-.91,1.81,1.81,0,0,0-.76-2.34A1.94,1.94,0,0,0,53,142.6a1.73,1.73,0,0,1,1.39.06,1.86,1.86,0,0,1,1,1.07,1.89,1.89,0,0,1-.14,1.42A1.71,1.71,0,0,1,54.08,146Z"/><path class="cls-3" d="M55.18,149.42a1.92,1.92,0,0,0,1-.92,1.73,1.73,0,0,0,.08-1.32,1.75,1.75,0,0,0-.84-1,1.94,1.94,0,0,0-1.34-.16,1.69,1.69,0,0,1,1.39.06,1.82,1.82,0,0,1,.94,1.06,1.84,1.84,0,0,1-.13,1.42A1.77,1.77,0,0,1,55.18,149.42Z"/></g><path class="cls-2" d="M75.66,137a3.36,3.36,0,0,1-2.52.89S74.74,141.16,75.66,137Z"/><g class="cls-8"><ellipse class="cls-6" cx="73.96" cy="137.52" rx="1.34" ry="0.76" transform="translate(-9.37 5.47) rotate(-3.98)"/></g></svg>