<svg id="_9" data-name="9" xmlns="http://www.w3.org/2000/svg" xmlns:xlink="http://www.w3.org/1999/xlink" viewBox="0 0 260 168"><defs><style>.cls-1{fill:none;}.cls-2{fill:#870000;}.cls-3{fill:#ff8585;}.cls-4{fill:red;}.cls-5{fill:#7f2828;stroke:#7f2828;stroke-miterlimit:10;stroke-width:0.07px;}.cls-6{fill:#fff;}.cls-7{clip-path:url(#clip-path);}.cls-8{clip-path:url(#clip-path-2);}</style><clipPath id="clip-path"><ellipse class="cls-1" cx="163.12" cy="144.69" rx="13" ry="7.43" transform="translate(-50.76 102.29) rotate(-30.36)"/></clipPath><clipPath id="clip-path-2"><path class="cls-2" d="M154.26,152.51a3.34,3.34,0,0,0,2.47-1S157.74,155,154.26,152.51Z"/></clipPath></defs><path class="cls-3" d="M173.39,135.53c.06-1.52.8-3.27,3.56-4.19a4.39,4.39,0,0,1-.26,5.75,4.75,4.75,0,0,1,5,2.43,4.68,4.68,0,0,1-6,.47A5.26,5.26,0,0,1,173.39,135.53Z"/><path class="cls-3" d="M167.58,145.23a3.22,3.22,0,0,0-3.93,2.32c-.45,1.72-.62,3.23,2.31,3.93s5.53-1.71,5.58-1.9S169.3,145.68,167.58,145.23Z"/><path class="cls-3" d="M164.28,139.41a3.24,3.24,0,0,1-3.95,2.3c-1.72-.46-3.11-1-2.28-3.94s4.2-4,4.38-3.94S164.74,137.69,164.28,139.41Z"/><ellipse class="cls-4" cx="163.12" cy="144.69" rx="13" ry="7.43" transform="translate(-50.76 102.29) rotate(-30.36)"/><path class="cls-5" d="M155.31,146.66s.62-.33.45-.91a1.05,1.05,0,0,1,.12,1.15Z"/><path class="cls-5" d="M155.82,146.9s.81-.13.85-.83a1.2,1.2,0,0,1-.32,1.3Z"/><ellipse class="cls-6" cx="154.61" cy="149.07" rx="2.49" ry="2.48" transform="translate(-59.14 128.16) rotate(-38.37)"/><circle cx="154.61" cy="149.07" r="1.79" transform="translate(-59.14 128.16) rotate(-38.37)"/><circle class="cls-6" cx="154.76" cy="148.16" r="0.51" transform="matrix(0.78, -0.62, 0.62, 0.78, -58.54, 128.05)"/><g class="cls-7"><path class="cls-3" d="M157.5,141.32a1.73,1.73,0,0,1-1.37.24,1.85,1.85,0,0,1-1.15-.84,1.81,1.81,0,0,1-.17-1.42,1.7,1.7,0,0,1,.88-1.08,1.92,1.92,0,0,0-.77,1.11,1.69,1.69,0,0,0,.2,1.3,1.71,1.71,0,0,0,1,.82A1.9,1.9,0,0,0,157.5,141.32Z"/><path class="cls-3" d="M159.31,144.41a1.71,1.71,0,0,1-1.38.24,1.88,1.88,0,0,1-1.15-.84,1.85,1.85,0,0,1-.16-1.42,1.66,1.66,0,0,1,.88-1.07,1.93,1.93,0,0,0-.78,1.1,1.72,1.72,0,0,0,.21,1.31,1.68,1.68,0,0,0,1,.81A1.92,1.92,0,0,0,159.31,144.41Z"/><path class="cls-3" d="M161.12,147.5a1.72,1.72,0,0,1-1.38.24,1.78,1.78,0,0,1-1.32-2.25,1.72,1.72,0,0,1,.89-1.08,1.89,1.89,0,0,0-.78,1.1,1.75,1.75,0,0,0,.2,1.31,1.73,1.73,0,0,0,1,.81A1.92,1.92,0,0,0,161.12,147.5Z"/><path class="cls-3" d="M162.92,150.59a1.66,1.66,0,0,1-1.37.24,1.85,1.85,0,0,1-1.15-.84,1.88,1.88,0,0,1-.17-1.41,1.72,1.72,0,0,1,.89-1.08,1.91,1.91,0,0,0-.78,1.11,1.74,1.74,0,0,0,.2,1.3,1.78,1.78,0,0,0,1,.82A1.89,1.89,0,0,0,162.92,150.59Z"/><path class="cls-3" d="M164.73,153.68a1.7,1.7,0,0,1-1.37.25,1.89,1.89,0,0,1-1.15-.84,1.86,1.86,0,0,1-.17-1.42,1.7,1.7,0,0,1,.88-1.08,1.92,1.92,0,0,0-.77,1.11,1.8,1.8,0,0,0,1.24,2.12A1.9,1.9,0,0,0,164.73,153.68Z"/><path class="cls-3" d="M160.21,139.73a1.69,1.69,0,0,1-1.37.24,1.85,1.85,0,0,1-1.15-.84,1.9,1.9,0,0,1-.17-1.42,1.68,1.68,0,0,1,.89-1.07,1.89,1.89,0,0,0-.78,1.1,1.76,1.76,0,0,0,.2,1.31,1.73,1.73,0,0,0,1,.81A1.89,1.89,0,0,0,160.21,139.73Z"/><path class="cls-3" d="M162,142.82a1.69,1.69,0,0,1-1.37.24,1.78,1.78,0,0,1-1.32-2.25,1.7,1.7,0,0,1,.88-1.08,1.87,1.87,0,0,0-.77,1.1,1.75,1.75,0,0,0,.2,1.31,1.73,1.73,0,0,0,1,.81A1.9,1.9,0,0,0,162,142.82Z"/><path class="cls-3" d="M163.83,145.91a1.69,1.69,0,0,1-1.37.24,1.87,1.87,0,0,1-1.16-.84,1.83,1.83,0,0,1-.16-1.41,1.7,1.7,0,0,1,.88-1.08,2,2,0,0,0-.78,1.11,1.82,1.82,0,0,0,1.24,2.12A1.92,1.92,0,0,0,163.83,145.91Z"/><path class="cls-3" d="M165.64,149a1.72,1.72,0,0,1-1.38.25,1.92,1.92,0,0,1-1.15-.84A1.85,1.85,0,0,1,163,147a1.67,1.67,0,0,1,.88-1.08,1.94,1.94,0,0,0-.78,1.11,1.82,1.82,0,0,0,1.24,2.12A1.92,1.92,0,0,0,165.64,149Z"/><path class="cls-3" d="M167.44,152.1a1.73,1.73,0,0,1-1.37.24,1.85,1.85,0,0,1-1.15-.84,1.9,1.9,0,0,1-.17-1.42,1.72,1.72,0,0,1,.89-1.08,1.94,1.94,0,0,0-.78,1.11,1.74,1.74,0,0,0,.2,1.3,1.71,1.71,0,0,0,1,.82A1.89,1.89,0,0,0,167.44,152.1Z"/><path class="cls-3" d="M162.93,138.14a1.72,1.72,0,0,1-1.38.24,1.88,1.88,0,0,1-1.15-.84,1.83,1.83,0,0,1-.16-1.41,1.65,1.65,0,0,1,.88-1.08,1.89,1.89,0,0,0-.78,1.1,1.71,1.71,0,0,0,.21,1.31,1.68,1.68,0,0,0,1,.81A1.92,1.92,0,0,0,162.93,138.14Z"/><path class="cls-3" d="M164.73,141.23a1.69,1.69,0,0,1-1.37.24,1.85,1.85,0,0,1-1.15-.84,1.88,1.88,0,0,1-.17-1.41,1.72,1.72,0,0,1,.89-1.08,1.91,1.91,0,0,0-.78,1.11,1.74,1.74,0,0,0,.2,1.3,1.78,1.78,0,0,0,1,.82A2,2,0,0,0,164.73,141.23Z"/><path class="cls-3" d="M166.54,144.32a1.7,1.7,0,0,1-1.37.25,1.79,1.79,0,0,1-1.32-2.26,1.74,1.74,0,0,1,.88-1.08,2,2,0,0,0-.77,1.11,1.8,1.8,0,0,0,1.24,2.12A1.9,1.9,0,0,0,166.54,144.32Z"/><path class="cls-3" d="M168.35,147.42a1.73,1.73,0,0,1-1.37.24,1.77,1.77,0,0,1-1.32-2.26,1.7,1.7,0,0,1,.88-1.08,1.92,1.92,0,0,0-.77,1.11,1.81,1.81,0,0,0,1.23,2.12A1.92,1.92,0,0,0,168.35,147.42Z"/><path class="cls-3" d="M170.16,150.51a1.72,1.72,0,0,1-1.38.24,1.88,1.88,0,0,1-1.15-.84,1.85,1.85,0,0,1-.16-1.42,1.66,1.66,0,0,1,.88-1.07,1.89,1.89,0,0,0-.78,1.1,1.72,1.72,0,0,0,.21,1.31,1.68,1.68,0,0,0,1,.81A1.92,1.92,0,0,0,170.16,150.51Z"/><path class="cls-3" d="M165.64,136.55a1.69,1.69,0,0,1-1.37.24,1.85,1.85,0,0,1-1.15-.84,1.79,1.79,0,0,1-.17-1.41,1.7,1.7,0,0,1,.88-1.08,1.89,1.89,0,0,0-.77,1.11,1.69,1.69,0,0,0,.2,1.3,1.79,1.79,0,0,0,1,.82A2,2,0,0,0,165.64,136.55Z"/><path class="cls-3" d="M167.45,139.64a1.67,1.67,0,0,1-1.38.24,1.76,1.76,0,0,1-1.31-2.25,1.7,1.7,0,0,1,.88-1.08,1.94,1.94,0,0,0-.78,1.11,1.82,1.82,0,0,0,1.24,2.12A1.92,1.92,0,0,0,167.45,139.64Z"/><path class="cls-3" d="M169.25,142.74a1.73,1.73,0,0,1-1.37.24,1.88,1.88,0,0,1-1.15-.84,1.9,1.9,0,0,1-.17-1.42,1.72,1.72,0,0,1,.89-1.08,1.94,1.94,0,0,0-.78,1.11,1.74,1.74,0,0,0,.2,1.3,1.71,1.71,0,0,0,1,.82A1.89,1.89,0,0,0,169.25,142.74Z"/><path class="cls-3" d="M171.06,145.83a1.73,1.73,0,0,1-1.37.24,1.85,1.85,0,0,1-1.15-.84,1.9,1.9,0,0,1-.17-1.42,1.69,1.69,0,0,1,.88-1.07,1.91,1.91,0,0,0-.77,1.1,1.77,1.77,0,0,0,.2,1.31,1.73,1.73,0,0,0,1,.81A1.89,1.89,0,0,0,171.06,145.83Z"/><path class="cls-3" d="M172.87,148.92a1.69,1.69,0,0,1-1.37.24,1.85,1.85,0,0,1-1.15-.84,1.79,1.79,0,0,1-.17-1.41,1.68,1.68,0,0,1,.88-1.08,1.87,1.87,0,0,0-.77,1.1,1.71,1.71,0,0,0,.2,1.31,1.74,1.74,0,0,0,1,.81A1.92,1.92,0,0,0,172.87,148.92Z"/><path class="cls-3" d="M168.35,135a1.66,1.66,0,0,1-1.37.24,1.81,1.81,0,0,1-1.15-.84,1.88,1.88,0,0,1-.17-1.41,1.72,1.72,0,0,1,.89-1.08,1.94,1.94,0,0,0-.78,1.11A1.8,1.8,0,0,0,167,135.1,1.89,1.89,0,0,0,168.35,135Z"/><path class="cls-3" d="M170.16,138.05a1.7,1.7,0,0,1-1.37.25,1.85,1.85,0,0,1-1.15-.84,1.81,1.81,0,0,1-.17-1.42,1.7,1.7,0,0,1,.88-1.08,1.92,1.92,0,0,0-.77,1.11,1.69,1.69,0,0,0,.2,1.3,1.71,1.71,0,0,0,1,.82A1.9,1.9,0,0,0,170.16,138.05Z"/><path class="cls-3" d="M172,141.15a1.75,1.75,0,0,1-1.38.24,1.88,1.88,0,0,1-1.15-.84,1.85,1.85,0,0,1-.16-1.42,1.7,1.7,0,0,1,.88-1.08,2,2,0,0,0-.78,1.11,1.77,1.77,0,0,0,.21,1.31,1.68,1.68,0,0,0,1,.81A1.92,1.92,0,0,0,172,141.15Z"/><path class="cls-3" d="M173.78,144.24a1.72,1.72,0,0,1-1.38.24,1.78,1.78,0,0,1-1.32-2.25,1.69,1.69,0,0,1,.89-1.08,1.89,1.89,0,0,0-.78,1.1,1.75,1.75,0,0,0,.2,1.31,1.73,1.73,0,0,0,1,.81A1.92,1.92,0,0,0,173.78,144.24Z"/><path class="cls-3" d="M175.58,147.33a1.69,1.69,0,0,1-1.37.24,1.85,1.85,0,0,1-1.15-.84,1.88,1.88,0,0,1-.17-1.41,1.72,1.72,0,0,1,.89-1.08,1.91,1.91,0,0,0-.78,1.11,1.74,1.74,0,0,0,.2,1.3,1.78,1.78,0,0,0,1,.82A2,2,0,0,0,175.58,147.33Z"/><path class="cls-3" d="M171.07,133.37a1.72,1.72,0,0,1-1.38.25,1.88,1.88,0,0,1-1.15-.84,1.9,1.9,0,0,1-.17-1.42,1.72,1.72,0,0,1,.89-1.08,1.94,1.94,0,0,0-.78,1.11,1.69,1.69,0,0,0,.21,1.3,1.66,1.66,0,0,0,1,.82A1.93,1.93,0,0,0,171.07,133.37Z"/><path class="cls-3" d="M172.87,136.47a1.73,1.73,0,0,1-1.37.24,1.85,1.85,0,0,1-1.15-.84,1.9,1.9,0,0,1-.17-1.42,1.72,1.72,0,0,1,.89-1.08,1.94,1.94,0,0,0-.78,1.11,1.74,1.74,0,0,0,.2,1.3,1.71,1.71,0,0,0,1,.82A1.89,1.89,0,0,0,172.87,136.47Z"/><path class="cls-3" d="M174.68,139.56a1.69,1.69,0,0,1-1.37.24,1.78,1.78,0,0,1-1.32-2.25,1.68,1.68,0,0,1,.88-1.08,1.87,1.87,0,0,0-.77,1.1,1.75,1.75,0,0,0,.2,1.31,1.73,1.73,0,0,0,1,.81A1.9,1.9,0,0,0,174.68,139.56Z"/><path class="cls-3" d="M176.49,142.65a1.69,1.69,0,0,1-1.37.24,1.87,1.87,0,0,1-1.16-.84,1.83,1.83,0,0,1-.16-1.41,1.7,1.7,0,0,1,.88-1.08,2,2,0,0,0-.78,1.11,1.82,1.82,0,0,0,1.24,2.12A2,2,0,0,0,176.49,142.65Z"/><path class="cls-3" d="M178.3,145.74a1.68,1.68,0,0,1-1.38.24,1.77,1.77,0,0,1-1.31-2.25,1.67,1.67,0,0,1,.88-1.08,1.94,1.94,0,0,0-.78,1.11,1.82,1.82,0,0,0,1.24,2.12A1.92,1.92,0,0,0,178.3,145.74Z"/></g><path class="cls-2" d="M154.26,152.51a3.34,3.34,0,0,0,2.47-1S157.74,155,154.26,152.51Z"/><g class="cls-8"><ellipse class="cls-6" cx="155.86" cy="151.75" rx="1.34" ry="0.76" transform="translate(-60.52 129.42) rotate(-38.34)"/></g></svg>