<svg id="Layer_17" data-name="Layer 17" xmlns="http://www.w3.org/2000/svg" xmlns:xlink="http://www.w3.org/1999/xlink" viewBox="0 0 260 168"><defs><style>.cls-1{fill:red;}.cls-2{fill:#fff;}.cls-3{fill:#870000;}.cls-4{fill:#ff8585;}.cls-5{clip-path:url(#clip-path);}.cls-6{fill:#7f2828;stroke:#7f2828;stroke-miterlimit:10;stroke-width:0.24px;}.cls-7{clip-path:url(#clip-path-2);}.cls-8{clip-path:url(#clip-path-3);}</style><clipPath id="clip-path"><path class="cls-1" d="M100.66,130.19s23.48,2.31,27.06-18.1S108,85.7,99.36,84.12s-.52-5.06-3-15c0,0-1.84,4.51-5.44,6.68S64.2,98.38,74,113.59,100.66,130.19,100.66,130.19Z"/></clipPath><clipPath id="clip-path-2"><circle class="cls-2" cx="115.46" cy="111.58" r="7.88" transform="translate(-44.79 101.45) rotate(-40.41)"/></clipPath><clipPath id="clip-path-3"><ellipse class="cls-3" cx="123" cy="98.78" rx="1.66" ry="2.01" transform="matrix(0.79, -0.62, 0.62, 0.79, -34.74, 96.56)"/></clipPath></defs><path class="cls-4" d="M80.5,100.46a10.26,10.26,0,0,1,8.91,11.4c-.67,5.61-1.9,10.24-11.34,8.9S63.75,109.29,63.82,108.7,74.91,99.77,80.5,100.46Z"/><path class="cls-4" d="M93.19,89.64a10.26,10.26,0,0,0,6.89,12.73c5.4,1.63,10.14,2.35,12.69-6.83S108,77.82,107.41,77.65,94.79,84.24,93.19,89.64Z"/><path class="cls-4" d="M87.17,70.77c-4.74-.91-9.87-4.08-11.4-13.16,0,0,9.51-5.93,17.88,3.6a15.1,15.1,0,0,1,10-14.38s7.2,9.8-1.44,18.89A16.61,16.61,0,0,1,87.17,70.77Z"/><path class="cls-1" d="M100.66,130.19s23.48,2.31,27.06-18.1S108,85.7,99.36,84.12s-.52-5.06-3-15c0,0-1.84,4.51-5.44,6.68S64.2,98.38,74,113.59,100.66,130.19,100.66,130.19Z"/><g class="cls-5"><path class="cls-4" d="M89.56,118.44A5.51,5.51,0,0,1,92,122.12a5.73,5.73,0,0,1-4.87,6.73,5.5,5.5,0,0,1-4.26-1.22,5.89,5.89,0,0,0,4.19.82,5.63,5.63,0,0,0,4.54-6.27A5.92,5.92,0,0,0,89.56,118.44Z"/><path class="cls-4" d="M96.23,109.26a5.55,5.55,0,0,1,2.46,3.68,5.74,5.74,0,0,1-4.88,6.73,5.49,5.49,0,0,1-4.25-1.23,5.88,5.88,0,0,0,4.19.82A5.57,5.57,0,0,0,97.27,117a5.62,5.62,0,0,0,1-4A5.94,5.94,0,0,0,96.23,109.26Z"/><path class="cls-4" d="M102.89,100.08a5.46,5.46,0,0,1,2.46,3.67,5.73,5.73,0,0,1-4.87,6.73,5.47,5.47,0,0,1-4.25-1.22,5.87,5.87,0,0,0,4.18.82,5.64,5.64,0,0,0,4.55-6.27A5.91,5.91,0,0,0,102.89,100.08Z"/><path class="cls-4" d="M109.56,90.89A5.51,5.51,0,0,1,112,94.57a5.73,5.73,0,0,1-4.88,6.73,5.53,5.53,0,0,1-4.25-1.22,5.88,5.88,0,0,0,4.19.82,5.63,5.63,0,0,0,4.54-6.27A5.92,5.92,0,0,0,109.56,90.89Z"/><path class="cls-4" d="M116.23,81.71a5.53,5.53,0,0,1,2.46,3.67,5.74,5.74,0,0,1-4.88,6.73,5.47,5.47,0,0,1-4.25-1.22,5.88,5.88,0,0,0,4.19.82,5.64,5.64,0,0,0,4.54-6.26A5.94,5.94,0,0,0,116.23,81.71Z"/><path class="cls-4" d="M80.68,112.9a5.5,5.5,0,0,1,2.22,3.83,5.75,5.75,0,0,1-5.3,6.4,5.48,5.48,0,0,1-4.16-1.49,5.91,5.91,0,0,0,4.12,1.08,5.54,5.54,0,0,0,3.66-2,5.63,5.63,0,0,0,1.28-4A5.94,5.94,0,0,0,80.68,112.9Z"/><path class="cls-4" d="M87.92,104.16A5.5,5.5,0,0,1,90.14,108a5.72,5.72,0,0,1-5.29,6.4,5.5,5.5,0,0,1-4.17-1.49A5.88,5.88,0,0,0,84.81,114a5.63,5.63,0,0,0,4.93-6A5.92,5.92,0,0,0,87.92,104.16Z"/><path class="cls-4" d="M95.17,95.43a5.5,5.5,0,0,1,2.22,3.82,5.75,5.75,0,0,1-5.3,6.41,5.51,5.51,0,0,1-4.17-1.5,5.89,5.89,0,0,0,4.13,1.09,5.62,5.62,0,0,0,4.93-6A5.88,5.88,0,0,0,95.17,95.43Z"/><path class="cls-4" d="M102.41,86.69a5.54,5.54,0,0,1,2.22,3.83,5.73,5.73,0,0,1-5.3,6.4,5.48,5.48,0,0,1-4.16-1.49,5.91,5.91,0,0,0,4.12,1.09,5.55,5.55,0,0,0,3.66-2,5.62,5.62,0,0,0,1.28-4A5.94,5.94,0,0,0,102.41,86.69Z"/><path class="cls-4" d="M109.65,78a5.5,5.5,0,0,1,2.22,3.83,5.72,5.72,0,0,1-5.3,6.4,5.45,5.45,0,0,1-4.16-1.49,5.88,5.88,0,0,0,4.13,1.09,5.63,5.63,0,0,0,4.93-6A5.94,5.94,0,0,0,109.65,78Z"/><path class="cls-4" d="M74,107.12a5.5,5.5,0,0,1,1.93,4,5.73,5.73,0,0,1-5.76,6,5.45,5.45,0,0,1-4-1.79,5.93,5.93,0,0,0,4,1.39,5.62,5.62,0,0,0,5.36-5.58A5.93,5.93,0,0,0,74,107.12Z"/><path class="cls-4" d="M81.83,98.94a5.52,5.52,0,0,1,1.93,4,5.74,5.74,0,0,1-5.76,6,5.5,5.5,0,0,1-4-1.8,5.87,5.87,0,0,0,4,1.39,5.62,5.62,0,0,0,5.36-5.58A5.92,5.92,0,0,0,81.83,98.94Z"/><path class="cls-4" d="M89.7,90.77a5.5,5.5,0,0,1,1.93,4,5.74,5.74,0,0,1-5.76,6,5.5,5.5,0,0,1-4-1.8,5.82,5.82,0,0,0,4,1.39,5.62,5.62,0,0,0,5.36-5.58A5.9,5.9,0,0,0,89.7,90.77Z"/><path class="cls-4" d="M97.57,82.59a5.54,5.54,0,0,1,1.93,4,5.74,5.74,0,0,1-5.76,6,5.45,5.45,0,0,1-4-1.79,5.92,5.92,0,0,0,4,1.39,5.62,5.62,0,0,0,5.36-5.58A5.92,5.92,0,0,0,97.57,82.59Z"/><path class="cls-4" d="M105.43,74.41a5.48,5.48,0,0,1,1.93,4,5.74,5.74,0,0,1-5.75,6,5.5,5.5,0,0,1-4-1.8,5.87,5.87,0,0,0,4,1.39A5.62,5.62,0,0,0,107,78.4,5.89,5.89,0,0,0,105.43,74.41Z"/><path class="cls-4" d="M65.14,98.61A5.53,5.53,0,0,1,66,103a5.74,5.74,0,0,1-7.08,4.36,5.48,5.48,0,0,1-3.47-2.75A5.82,5.82,0,0,0,59,106.91a5.51,5.51,0,0,0,4.1-.71,5.58,5.58,0,0,0,2.5-3.34A6,6,0,0,0,65.14,98.61Z"/><path class="cls-4" d="M74.82,92.67A5.48,5.48,0,0,1,75.69,97a5.76,5.76,0,0,1-7.09,4.36,5.47,5.47,0,0,1-3.46-2.76A5.84,5.84,0,0,0,68.7,101a5.64,5.64,0,0,0,6.59-4.06A5.87,5.87,0,0,0,74.82,92.67Z"/><path class="cls-4" d="M84.51,86.73a5.51,5.51,0,0,1,.86,4.34,5.74,5.74,0,0,1-7.08,4.35,5.48,5.48,0,0,1-3.47-2.75A5.91,5.91,0,0,0,78.38,95,5.64,5.64,0,0,0,85,91,5.92,5.92,0,0,0,84.51,86.73Z"/><path class="cls-4" d="M94.19,80.78a5.49,5.49,0,0,1,.87,4.34A5.74,5.74,0,0,1,88,89.48a5.46,5.46,0,0,1-3.46-2.75,5.82,5.82,0,0,0,3.56,2.35,5.55,5.55,0,0,0,4.1-.71A5.62,5.62,0,0,0,94.67,85,5.9,5.9,0,0,0,94.19,80.78Z"/><path class="cls-4" d="M103.88,74.84a5.51,5.51,0,0,1,.86,4.34,5.74,5.74,0,0,1-7.08,4.35,5.47,5.47,0,0,1-3.47-2.75,5.91,5.91,0,0,0,3.56,2.36,5.64,5.64,0,0,0,6.6-4.06A5.92,5.92,0,0,0,103.88,74.84Z"/><path class="cls-4" d="M75.42,75.3a5.53,5.53,0,0,1-1.57,4.14,5.72,5.72,0,0,1-8.3-.07,5.46,5.46,0,0,1-1.46-4.17,5.86,5.86,0,0,0,1.75,3.89,5.62,5.62,0,0,0,7.73.06A6,6,0,0,0,75.42,75.3Z"/><path class="cls-4" d="M86.75,75.4a5.53,5.53,0,0,1-1.57,4.14,5.72,5.72,0,0,1-8.3-.07,5.46,5.46,0,0,1-1.46-4.17,5.86,5.86,0,0,0,1.75,3.89,5.62,5.62,0,0,0,7.73.06A6,6,0,0,0,86.75,75.4Z"/><path class="cls-4" d="M98.08,75.5a5.55,5.55,0,0,1-1.57,4.14,5.72,5.72,0,0,1-8.3-.07,5.46,5.46,0,0,1-1.46-4.17,5.86,5.86,0,0,0,1.75,3.89,5.62,5.62,0,0,0,7.73.06A6,6,0,0,0,98.08,75.5Z"/><path class="cls-4" d="M109.41,75.6a5.55,5.55,0,0,1-1.57,4.14,5.72,5.72,0,0,1-8.3-.07,5.46,5.46,0,0,1-1.46-4.17,5.86,5.86,0,0,0,1.75,3.89,5.62,5.62,0,0,0,7.73.06A6,6,0,0,0,109.41,75.6Z"/><path class="cls-4" d="M120.74,75.7a5.55,5.55,0,0,1-1.57,4.14,5.72,5.72,0,0,1-8.3-.07,5.46,5.46,0,0,1-1.46-4.17,5.86,5.86,0,0,0,1.75,3.89,5.62,5.62,0,0,0,7.73.06A5.94,5.94,0,0,0,120.74,75.7Z"/></g><path class="cls-6" d="M112.28,118.85s-2.09.79-1.8,2.68a3.3,3.3,0,0,1,.11-3.66Z"/><path class="cls-6" d="M110.76,117.9s-2.59.06-3,2.24c0,0-.6-2.66,1.52-4Z"/><circle class="cls-2" cx="115.46" cy="111.58" r="7.88" transform="translate(-44.79 101.45) rotate(-40.41)"/><g class="cls-7"><circle cx="118.53" cy="110.19" r="5.68" transform="translate(-43.15 103.11) rotate(-40.41)"/><circle class="cls-2" cx="117.68" cy="112.99" r="1.61" transform="translate(-45.17 103.23) rotate(-40.41)"/></g><ellipse class="cls-3" cx="123" cy="98.78" rx="1.66" ry="2.01" transform="matrix(0.79, -0.62, 0.62, 0.79, -34.74, 96.56)"/><g class="cls-8"><path class="cls-2" d="M125.31,100a2.49,2.49,0,0,0-3.48,1l1,1.49,3.74-1.48Z"/></g></svg>