<svg id="Layer_1" data-name="Layer 1" xmlns="http://www.w3.org/2000/svg" xmlns:xlink="http://www.w3.org/1999/xlink" viewBox="0 0 260 168"><defs><style>.cls-1{fill:none;}.cls-2{fill:#560e68;}.cls-3{fill:#2ca338;}.cls-4{fill:#39b54a;}.cls-5{fill:#50ce4d;}.cls-6{clip-path:url(#clip-path);}.cls-7{clip-path:url(#clip-path-2);}.cls-8{fill:#c68655;}.cls-9{fill:#e4a76c;}.cls-10{clip-path:url(#clip-path-3);}.cls-11{fill:#ffc88d;}.cls-12{fill:#b0723e;}.cls-13{clip-path:url(#clip-path-4);}.cls-14{fill:#9b5c1f;}.cls-15{clip-path:url(#clip-path-5);}.cls-16{fill:#6ac11e;}.cls-17{fill:#cff763;}.cls-18{fill:#009444;}.cls-19{fill:#7add2c;}.cls-20{fill:#5db239;}.cls-21{fill:#b2ed32;}.cls-22{fill:#75b239;}.cls-23{clip-path:url(#clip-path-6);}.cls-24{fill:#75a030;}.cls-25{clip-path:url(#clip-path-7);}.cls-26{clip-path:url(#clip-path-8);}.cls-27{clip-path:url(#clip-path-9);}.cls-28{fill:#808285;}.cls-29{clip-path:url(#clip-path-10);}.cls-30{fill:#634915;}.cls-31{clip-path:url(#clip-path-11);}.cls-32{fill:#631277;}.cls-33{fill:#7e2593;}.cls-34{fill:#712584;}.cls-35{fill:#fcdd11;}.cls-36{fill:#e2bb3d;}.cls-37{fill:#a07815;}.cls-38{fill:#d8a413;}.cls-39{fill:#e8bb3a;}.cls-40{fill:#ffcb33;}.cls-41{fill:url(#linear-gradient);}.cls-42{fill:url(#linear-gradient-2);}.cls-43{fill:#377500;}.cls-44{clip-path:url(#clip-path-12);}.cls-45{fill:#01562c;}.cls-46{fill:#06723c;}.cls-47{clip-path:url(#clip-path-13);}.cls-48{fill:#006838;}.cls-49{clip-path:url(#clip-path-14);}.cls-50{fill:#ed1818;}.cls-51{fill:#bfdd52;}.cls-52{fill:#754c29;}.cls-53{fill:#ff6e6e;}.cls-54{fill:#ff243f;}.cls-55{fill:#ff6c85;}.cls-56{fill:#ff0013;}.cls-57{fill:#ff5a6e;}.cls-58{fill:#2d9e37;}.cls-59{fill:#fe8e00;}.cls-60{fill:#f27e00;}.cls-61{fill:#7a4b00;}.cls-62{fill:#ffbe2e;}.cls-63{fill:#fc7e00;}.cls-64{fill:#fca100;}</style><clipPath id="clip-path"><rect class="cls-1" x="-0.02" y="6.49" width="236.29" height="168"/></clipPath><clipPath id="clip-path-2"><path id="SVGID" class="cls-1" d="M135.07,93.53s-2.49-9.38,32.43-7.79S198,98.32,198,98.32l-9.63,31.35-36,3.17L141.8,120.67Z"/></clipPath><clipPath id="clip-path-3"><path id="SVGID-2" data-name="SVGID" class="cls-1" d="M137.12,89.34c-1.06,1.52-.24,3.62.46,5.34,2.81,6.92,12,28.78,14.37,31.79,2.81,3.58,23.58,6.33,32.42.53C187,124.62,195.32,94.08,195,91.08s-10.1-13.66-34.37-11.78C145.27,80.48,139.41,86.06,137.12,89.34Z"/></clipPath><clipPath id="clip-path-4"><path id="SVGID-3" data-name="SVGID" class="cls-1" d="M194,90.74c-.2,4.48-12.55,7.56-27.58,6.88s-27-4.87-26.84-9.35,14.86-9.5,29.89-8.82S194.22,86.26,194,90.74Z"/></clipPath><clipPath id="clip-path-5"><path id="SVGID-4" data-name="SVGID" class="cls-1" d="M194.07,90.87c-.2,4.48-12.55,7.56-27.58,6.88s-27.05-4.87-26.84-9.35,14.86-9.5,29.88-8.82S194.27,86.39,194.07,90.87Z"/></clipPath><clipPath id="clip-path-6"><path id="SVGID-5" data-name="SVGID" class="cls-1" d="M174.34,88.57s1.24-1.88-2.16-3.49C172.18,85.08,170.93,88.5,174.34,88.57Z"/></clipPath><clipPath id="clip-path-7"><path id="SVGID-6" data-name="SVGID" class="cls-1" d="M164.79,88.62s-.59-2.18,3.15-2.62C167.94,86,168,89.64,164.79,88.62Z"/></clipPath><clipPath id="clip-path-8"><path id="SVGID-7" data-name="SVGID" class="cls-1" d="M142.73,89.16s-.49-1.82,2.63-2.19C145.36,87,145.45,90,142.73,89.16Z"/></clipPath><clipPath id="clip-path-9"><path id="SVGID-8" data-name="SVGID" class="cls-1" d="M182.14,93.73s-.59-2.18,3.15-2.62C185.29,91.11,185.39,94.75,182.14,93.73Z"/></clipPath><clipPath id="clip-path-10"><path id="SVGID-9" data-name="SVGID" class="cls-1" d="M12,95.45l-1.68.29a1.08,1.08,0,0,1-1.25-.91L-21-86.95a1.12,1.12,0,0,1,.89-1.29l1.68-.29a1.09,1.09,0,0,1,1.25.91L12.89,94.16A1.12,1.12,0,0,1,12,95.45Z"/></clipPath><clipPath id="clip-path-11"><path class="cls-2" d="M-78.57,105.84s-.66,16-3.53,21.68-6.41,10.82-7.07,12.83,23.2,2.57,45.29,2.2,64.51,3.3,74,1.47,63.18-2,79.09-2,50.15,2.38,57.22-2.57c0,0-4.7-10.49-6.91-33.65l-177.12-5.19Z"/></clipPath><linearGradient id="linear-gradient" x1="-7091.52" y1="-1536.46" x2="-7087.35" y2="-1549.51" gradientTransform="matrix(-1, 0.05, 0.05, 1, -7010.67, 1941.37)" gradientUnits="userSpaceOnUse"><stop offset="0" stop-color="#009444"/><stop offset="1" stop-color="#39b54a" stop-opacity="0"/></linearGradient><linearGradient id="linear-gradient-2" x1="-7089.67" y1="-1540.76" x2="-7088.95" y2="-1543.71" gradientTransform="matrix(-1, 0.05, 0.05, 1, -7010.67, 1941.37)" gradientUnits="userSpaceOnUse"><stop offset="0" stop-color="#754c29"/><stop offset="1" stop-color="#a97c50" stop-opacity="0"/></linearGradient><clipPath id="clip-path-12"><circle class="cls-3" cx="105.22" cy="76.47" r="15.32" transform="translate(-22.88 99.04) rotate(-46)"/></clipPath><clipPath id="clip-path-13"><circle class="cls-4" cx="129.46" cy="84.07" r="16.63" transform="translate(-23.37 105.77) rotate(-41.08)"/></clipPath><clipPath id="clip-path-14"><circle class="cls-5" cx="101.37" cy="91.48" r="10.37" transform="translate(-35.07 86.24) rotate(-39.87)"/></clipPath></defs><g class="cls-6"><g class="cls-7"><path class="cls-8" d="M169.08,80.16a66.74,66.74,0,0,0-8.39.15c-6.6.51-12.06,1.89-16.24,4.12a18.09,18.09,0,0,0-6.5,5.49h0a4.47,4.47,0,0,0-.46,4.25c5.59,13.75,12.21,29.27,14,31.59.4.51,1.88,1.3,4.82,2A52.69,52.69,0,0,0,165.9,129a55.59,55.59,0,0,0,10.68-.46,21.54,21.54,0,0,0,8.28-2.7c.2-.23.91-1.27,2.46-5.69,1.06-3,2.28-7,3.53-11.37,2.59-9.2,4.2-16.55,4.08-17.66-.1-.83-2.2-4-8.13-6.89A44.91,44.91,0,0,0,169.08,80.16Z"/><path class="cls-9" d="M162.47,130.51c-3.05-5.81-4.86-14.39-5.84-20.57-1.07-6.67-1.42-12-1.42-12.11l.67,0s.36,5.41,1.42,12c1,6.13,2.76,14.63,5.77,20.36Z"/><path class="cls-9" d="M164.87,130.71c-3.05-5.82-4.86-14.4-5.84-20.57-1.07-6.68-1.42-12.06-1.42-12.11l.67,0c0,.06.36,5.41,1.42,12.06,1,6.12,2.77,14.62,5.77,20.35Z"/><path class="cls-9" d="M154.63,129.24c-3.26-5.7-6.1-15-7.32-21.16-1.31-6.64-1.86-12-1.87-12l.68-.07c0,.05.55,5.39,1.86,12,1.2,6.08,4,15.34,7.24,21Z"/><path class="cls-9" d="M149.48,123.94c-3.6-5.49-7-14.64-8.57-20.69-1.71-6.54-2.58-11.86-2.59-11.92l.67-.1s.87,5.34,2.57,11.86c1.57,6,4.94,15.06,8.49,20.48Z"/><path class="cls-9" d="M157.2,129.61c-3.26-5.69-6.11-15-7.32-21.16-1.31-6.63-1.87-12-1.87-12l.67-.07c0,.06.56,5.39,1.86,12,1.21,6.08,4,15.33,7.25,21Z"/><path class="cls-9" d="M169.64,130.75c-1.42-3.7-2.71-10.35-3.83-19.77-.83-7-1.25-13-1.26-13.06l.68,0c0,.24,1.69,23.94,5,32.63Z"/><path class="cls-9" d="M171.15,131c-1.22-3.77-2.15-10.47-2.76-19.94-.45-7-.55-13.06-.55-13.12h.67c0,.24.41,24,3.29,32.86Z"/><path class="cls-9" d="M174.78,130.36l-.67-.09c.59-4.33-.52-31.16-.53-31.43l.68,0C174.31,99.92,175.38,126,174.78,130.36Z"/><path class="cls-9" d="M176,130.46l-.66-.12c.81-4.29,1.05-31.15,1.06-31.42h.67C177.1,100,176.87,126.11,176,130.46Z"/><path class="cls-9" d="M179.48,129.25l-.58-.35c4.21-6.91,2.75-30.95,2.74-31.19l.67,0c0,.06.38,6.18.23,13.07C182.33,120,181.3,126.27,179.48,129.25Z"/><path class="cls-9" d="M179.84,129.28l-.55-.39c4.6-6.64,4.55-30.73,4.55-31h.68c0,.06,0,6.18-.54,13.06C183.23,120.24,181.84,126.4,179.84,129.28Z"/><path class="cls-9" d="M183.26,128.32l-.45-.51c1-.9,2.68-4.67,4.89-17.5,1.32-7.72,2.2-15.14,2.21-15.21l.68.08c0,.07-.9,7.51-2.23,15.25C186.57,120.88,184.85,126.9,183.26,128.32Z"/><path class="cls-9" d="M183.86,127.79l-.43-.53c1-.86,2.88-4.55,5.63-17.27,1.66-7.66,2.86-15,2.87-15.11l.67.11c0,.07-1.22,7.46-2.88,15.14C187.48,120.5,185.51,126.44,183.86,127.79Z"/><path class="cls-9" d="M165.92,131.05h-.12c-6.57-.31-14-1.68-15.88-4-2.38-3-10.8-23.45-14.31-32.08a6.47,6.47,0,0,1,.68-6.17h0c2.89-4.15,9.45-9.33,24.24-10.48,13.28-1,22.1,1.69,27.16,4.14a25.76,25.76,0,0,1,6.7,4.52c1.52,1.48,2.43,2.89,2.55,4,.25,2.12-2.6,13-4.14,18.43-1.26,4.45-2.49,8.43-3.56,11.49-1.73,4.92-2.54,6.09-3.06,6.56l-.06.06-.07,0C180.32,131.26,170.16,131.25,165.92,131.05Zm3.16-50.89a66.74,66.74,0,0,0-8.39.15c-6.6.51-12.06,1.89-16.24,4.12a18.09,18.09,0,0,0-6.5,5.49h0a4.47,4.47,0,0,0-.46,4.25c5.59,13.75,12.21,29.27,14,31.59.4.51,1.88,1.3,4.82,2A52.69,52.69,0,0,0,165.9,129a55.59,55.59,0,0,0,10.68-.46,21.54,21.54,0,0,0,8.28-2.7c.2-.23.91-1.27,2.46-5.69,1.06-3,2.28-7,3.53-11.37,2.59-9.2,4.2-16.55,4.08-17.66-.1-.83-2.2-4-8.13-6.89A44.91,44.91,0,0,0,169.08,80.16Z"/><g class="cls-10"><path class="cls-11" d="M166.35,104.55a18.55,18.55,0,0,1-4.74-.88,11.7,11.7,0,0,1-3.76.43,13.71,13.71,0,0,1-5.74-1.59,12.13,12.13,0,0,1-6.5-.29,9.27,9.27,0,0,1-2.26-1.12,11.06,11.06,0,0,1-6.59-1.46,4.74,4.74,0,0,1-1.83-2l1.89-.74v0A3,3,0,0,0,138,98a9.65,9.65,0,0,0,5.59,1l.4,0,.31.26a6.8,6.8,0,0,0,2,1,10,10,0,0,0,5.66.11l.42-.1.37.23a11.19,11.19,0,0,0,8.51,1.07l.33-.11.33.12c.05,0,5.2,1.89,8.48.16l.33-.18.36.08s4.58,1,7.4-.31l.27-.12.29,0s4.37.56,7-1l.23-.14h.27c1.75,0,6.61-.54,8.13-2.43L196.31,99c-1.05,1.31-3,2.24-5.86,2.77a26.56,26.56,0,0,1-3.54.41c-2.81,1.55-6.69,1.29-7.78,1.18-2.93,1.21-6.85.63-8.06.41A10.18,10.18,0,0,1,166.35,104.55Z"/><path class="cls-11" d="M166.12,109.47a19.1,19.1,0,0,1-4.74-.89,11.4,11.4,0,0,1-3.75.43,13.66,13.66,0,0,1-5.74-1.59,12.17,12.17,0,0,1-6.51-.29,8.92,8.92,0,0,1-2.26-1.12,11.1,11.1,0,0,1-6.59-1.46,4.7,4.7,0,0,1-1.82-2l1.89-.74v0A3,3,0,0,0,137.8,103a9.63,9.63,0,0,0,5.59,1l.4,0,.31.26a6.81,6.81,0,0,0,2,1,10,10,0,0,0,5.67.11l.42-.1.37.23a11.14,11.14,0,0,0,8.51,1.07l.33-.11.33.12c.05,0,5.2,1.89,8.47.16l.33-.18.37.09s4.58,1,7.39-.32l.27-.12.3,0s4.36.56,7-1l.24-.14h.27c1.74,0,6.61-.53,8.13-2.43l1.58,1.27c-1.05,1.31-3,2.24-5.86,2.78a26.22,26.22,0,0,1-3.54.4c-2.82,1.55-6.69,1.29-7.79,1.18-2.93,1.21-6.85.63-8.05.41A10.23,10.23,0,0,1,166.12,109.47Z"/><path class="cls-11" d="M167.72,114.46a18.45,18.45,0,0,1-4.74-.89,11.75,11.75,0,0,1-3.76.44,13.83,13.83,0,0,1-5.74-1.6,12.07,12.07,0,0,1-6.51-.29,9.33,9.33,0,0,1-2.26-1.11,11.25,11.25,0,0,1-6.59-1.46,4.76,4.76,0,0,1-1.82-2l1.89-.75v0a3.08,3.08,0,0,0,1.21,1.18,9.65,9.65,0,0,0,5.59,1l.4,0,.31.26a6.67,6.67,0,0,0,2,1,10,10,0,0,0,5.66.11l.42-.11.37.24a11.21,11.21,0,0,0,8.51,1.06l.33-.11.33.13c.05,0,5.2,1.88,8.48.15l.33-.17.36.08s4.58,1,7.4-.31l.27-.13.29,0a6.93,6.93,0,0,0,5.41-.63l.23-.14h.27c1.75,0,8.19-.91,9.71-2.8l1.58,1.27c-1.05,1.31-3,2.24-5.86,2.77-1.58.29-4.55.76-5.12.78a9,9,0,0,1-6.2.81c-2.93,1.2-6.86.62-8.06.4A10.21,10.21,0,0,1,167.72,114.46Z"/><path class="cls-11" d="M168.78,119.8a17.72,17.72,0,0,1-4.42-.82,11,11,0,0,1-3.51.4,12.86,12.86,0,0,1-5.35-1.49,11.23,11.23,0,0,1-6.07-.27,8.83,8.83,0,0,1-2.11-1,10.4,10.4,0,0,1-6.14-1.36,4.35,4.35,0,0,1-1.7-1.88l1.76-.69v0a2.85,2.85,0,0,0,1.13,1.1,9.07,9.07,0,0,0,5.21,1l.38,0,.28.24c.11.09,2.71,2.19,7.18,1.07l.4-.1.34.22a10.48,10.48,0,0,0,7.94,1l.31-.1.3.11c.05,0,4.86,1.76,7.91.15l.31-.16.34.07s4.27.92,6.89-.29l.26-.12.27,0s5.79.26,8.23-1.21l.22-.14h.26c1.62,0,4.44-.23,5.86-2l1.47,1.18c-1,1.22-2.82,2.09-5.47,2.59a3.55,3.55,0,0,1-1.58.1c-2.62,1.45-7.95,1.48-9,1.38-2.74,1.13-6.39.58-7.52.38A9.49,9.49,0,0,1,168.78,119.8Z"/><path class="cls-11" d="M169.3,124.65a18.81,18.81,0,0,1-4.61-.83,13.14,13.14,0,0,1-9.25-1.11,13,13,0,0,1-3.29.29,10.42,10.42,0,0,1-5.24-1.61A11.18,11.18,0,0,1,140.5,120a4.53,4.53,0,0,1-1.78-1.88l1.79-.74v0a3,3,0,0,0,1.19,1.1,9.75,9.75,0,0,0,5.47,1h.37l.29.23a6.82,6.82,0,0,0,2,1,10.2,10.2,0,0,0,5.55.12l.39-.09.34.2a11.33,11.33,0,0,0,8.33,1l.31-.1.3.11c.05,0,5.09,1.78,8.3.16l.29-.15.33.07c1.74.33,6.75,1,9.05,0l.24-.1.27,0a9,9,0,0,0,5.05-1.18l.22-.13H189c1.7,0,6.45-.49,7.93-2.25l1.49,1.24c-1,1.21-2.94,2.08-5.69,2.57a26.93,26.93,0,0,1-3.45.37,10.88,10.88,0,0,1-5.77,1.32c-3,1.16-8.28.36-9.64.12A10.17,10.17,0,0,1,169.3,124.65Z"/><path class="cls-11" d="M169.89,130.05a7.92,7.92,0,0,1-3.35-1,11.44,11.44,0,0,1-8.14-1,11.3,11.3,0,0,1-2.91.26,9.08,9.08,0,0,1-4.69-1.48,9.69,9.69,0,0,1-5.73-1.28,4.15,4.15,0,0,1-1.61-1.78l1.76-.69v0a2.7,2.7,0,0,0,1,1,8.23,8.23,0,0,0,4.79.87l.38,0,.29.25a7.66,7.66,0,0,0,6.61,1l.39-.1.35.22a9.61,9.61,0,0,0,7.32.92l.44-.14.38.26a5.46,5.46,0,0,0,5.28.29l.26-.13.29,0c1.61.18,6.22.43,8.27-.51l.25-.12.28,0s3.76.49,6-.87l.22-.13h.25c1.51,0,5.69-.45,7-2.07l1.47,1.18c-.92,1.15-2.64,2-5.12,2.43a23.09,23.09,0,0,1-3.06.35c-2.44,1.34-5.79,1.12-6.76,1-2.69,1.07-7.51.71-8.74.59A6.6,6.6,0,0,1,169.89,130.05Z"/><path class="cls-9" d="M154.85,133.78c-3.7-4.62-7.13-12.37-10.2-23-2.28-7.9-3.69-15.84-3.7-15.9l2-.37c0,.07,1.42,7.92,3.67,15.73,2.95,10.25,6.35,18,9.82,22.31Z"/><path class="cls-9" d="M162.56,135.88c-3.51-4.76-6.64-12.64-9.28-23.42-2-8-2.93-14.68-2.94-14.75l2-.28c0,.06,1,6.68,2.9,14.56,2.55,10.37,5.64,18.21,8.94,22.68Z"/><path class="cls-9" d="M169.59,135.79c-3.1-5-5.55-13.16-7.28-24.12-1.28-8.12-1.67-14.87-1.68-14.94l2-.12c0,.07.39,6.74,1.66,14.76,1.66,10.54,4.08,18.62,7,23.35Z"/><path class="cls-9" d="M180.55,131.91l-1.76-1c2.82-4.8,5.06-12.93,6.5-23.51,1.1-8.05,1.34-14.71,1.34-14.77l2,.07c0,.06-.25,6.83-1.35,15C185.81,118.64,183.53,126.8,180.55,131.91Z"/><path class="cls-9" d="M176.61,135.74l-1.85-.83c2.28-5.08,3.63-13.4,3.92-24.08.22-8.12-.26-14.76-.27-14.83l2-.15c0,.07.49,6.82.27,15C180.41,122,179,130.34,176.61,135.74Z"/><path class="cls-9" d="M171.61,135.34c.29-13-2.52-39.87-2.55-40.14l2-.21c0,.27,2.85,27.29,2.56,40.4Z"/></g><path class="cls-11" d="M196.22,91.85c-.23,5.16-13.69,8.74-30.06,8S136.77,95.23,137,90.07,151,77.46,169.53,78.9C185.87,80.17,196.46,86.68,196.22,91.85Z"/><path class="cls-12" d="M194,90.74c-.2,4.48-12.55,7.56-27.58,6.88s-27-4.87-26.84-9.35,14.86-9.5,29.89-8.82S194.22,86.26,194,90.74Z"/><g class="cls-13"><path class="cls-14" d="M193.62,99.46c-.21,4.48-12.55,7.56-27.58,6.88s-27-4.87-26.85-9.35,14.86-9.5,29.89-8.82S193.82,95,193.62,99.46Z"/></g></g><g class="cls-15"><ellipse class="cls-16" cx="168.28" cy="96.41" rx="23.15" ry="6.72"/><circle class="cls-17" cx="183.61" cy="91.07" r="3.27" transform="translate(26.3 222.44) rotate(-66.25)"/><path class="cls-18" d="M182.9,88s.55.71,1.46,0Z"/><circle class="cls-19" cx="177.85" cy="90.86" r="2.83" transform="translate(-21.73 98.26) rotate(-29.19)"/><ellipse id="SVGID-10" data-name="SVGID" class="cls-1" cx="177.83" cy="90.93" rx="2.76" ry="2.81" transform="translate(83.36 266.91) rotate(-88.86)"/><path class="cls-20" d="M177.1,85.91a2.21,2.21,0,0,1,.68,2.29.16.16,0,0,0,.26.18h0s.61-.83-.46-2.77a.28.28,0,0,0-.09-.1.35.35,0,0,0-.35,0A.27.27,0,0,0,177.1,85.91Z"/><path class="cls-18" d="M177.37,88.21s.45.64,1.26,0Z"/><circle class="cls-17" cx="157.25" cy="89.68" r="3.34" transform="translate(-18.71 132.2) rotate(-43.28)"/><path class="cls-18" d="M157.58,86.52s.29.87,1.42.45Z"/><circle class="cls-21" cx="181.52" cy="93.13" r="2.85" transform="translate(23.16 221.76) rotate(-66.25)"/><circle id="SVGID-11" data-name="SVGID" class="cls-1" cx="181.52" cy="93.13" r="2.85" transform="translate(23.16 221.76) rotate(-66.25)"/><path class="cls-18" d="M180.9,90.49s.48.62,1.27,0Z"/><circle class="cls-21" cx="173.34" cy="92.34" r="3.39" transform="translate(37.06 233.76) rotate(-74.1)"/><path class="cls-22" d="M174.34,88.57s1.24-1.88-2.16-3.49C172.18,85.08,170.93,88.5,174.34,88.57Z"/><g class="cls-23"><polygon class="cls-24" points="174.34 88.57 171.85 84.58 171.78 88.02 174.47 88.78 174.34 88.57"/></g><circle id="SVGID-12" data-name="SVGID" class="cls-1" cx="173.34" cy="92.34" r="3.39" transform="translate(37.06 233.76) rotate(-74.1)"/><path class="cls-20" d="M176.19,87.06a2.62,2.62,0,0,0-1.69,2.31.19.19,0,0,1-.37.09h0s-.35-1.18,1.64-2.93a.39.39,0,0,1,.14-.08.43.43,0,0,1,.41.09A.33.33,0,0,1,176.19,87.06Z"/><path class="cls-18" d="M175,89.54s-.75.55-1.43-.48Z"/><circle class="cls-16" cx="150.7" cy="92.78" r="2.83"/><ellipse id="SVGID-13" data-name="SVGID" class="cls-1" cx="150.7" cy="92.85" rx="2.81" ry="2.76" transform="translate(-22.18 54.83) rotate(-19.24)"/><path class="cls-20" d="M148.27,88.4a2.19,2.19,0,0,1,1.43,1.91.17.17,0,0,0,.32.08h0s.28-1-1.39-2.43a.34.34,0,0,0-.12-.06.34.34,0,0,0-.35.08A.27.27,0,0,0,148.27,88.4Z"/><path class="cls-18" d="M149.33,90.46s.64.45,1.19-.41Z"/><circle class="cls-21" cx="159.86" cy="93.38" r="2.6" transform="translate(10 202.08) rotate(-66.25)"/><circle id="SVGID-14" data-name="SVGID" class="cls-1" cx="159.86" cy="93.38" r="2.6" transform="translate(10 202.08) rotate(-66.25)"/><path class="cls-18" d="M159.3,91s.43.57,1.15,0Z"/><circle class="cls-17" cx="189.82" cy="92.11" r="3.34" transform="translate(29.05 228.75) rotate(-66.25)"/><path class="cls-18" d="M189.1,89s.56.73,1.48,0Z"/><circle class="cls-19" cx="162.58" cy="89.04" r="2.83"/><ellipse id="SVGID-15" data-name="SVGID" class="cls-1" cx="162.56" cy="89.11" rx="2.81" ry="2.76" transform="translate(-7.76 15.92) rotate(-5.48)"/><path class="cls-20" d="M161.26,84.21a2.2,2.2,0,0,1,.94,2.2.16.16,0,0,0,.28.15h0s.51-.9-.78-2.7a.39.39,0,0,0-.1-.08.31.31,0,0,0-.35,0A.27.27,0,0,0,161.26,84.21Z"/><path class="cls-18" d="M161.8,86.46s.51.59,1.25-.12Z"/><circle class="cls-19" cx="177.65" cy="95.68" r="3.29"/><ellipse id="SVGID-16" data-name="SVGID" class="cls-1" cx="177.63" cy="95.76" rx="3.26" ry="3.21" transform="translate(-8.33 17.39) rotate(-5.48)"/><path class="cls-20" d="M176.12,90.08a2.54,2.54,0,0,1,1.09,2.55.19.19,0,0,0,.33.17h0s.59-1-.9-3.13a.42.42,0,0,0-.53-.1A.31.31,0,0,0,176.12,90.08Z"/><path class="cls-18" d="M176.75,92.69s.59.68,1.45-.14Z"/><circle class="cls-21" cx="189.52" cy="94.2" r="2.85" transform="translate(26.96 229.72) rotate(-66.25)"/><circle id="SVGID-17" data-name="SVGID" class="cls-1" cx="189.52" cy="94.2" r="2.85" transform="translate(26.96 229.72) rotate(-66.25)"/><path class="cls-18" d="M188.91,91.56s.47.62,1.26,0Z"/><circle class="cls-19" cx="152.05" cy="90.04" r="2.83" transform="translate(-24.6 85.58) rotate(-29.19)"/><ellipse id="SVGID-18" data-name="SVGID" class="cls-1" cx="152.03" cy="90.11" rx="2.76" ry="2.81" transform="translate(58.9 240.31) rotate(-88.86)"/><path class="cls-20" d="M151.3,85.09a2.21,2.21,0,0,1,.68,2.29.16.16,0,0,0,.26.18h0s.61-.83-.46-2.77a.28.28,0,0,0-.09-.1.33.33,0,0,0-.35,0A.26.26,0,0,0,151.3,85.09Z"/><path class="cls-18" d="M151.57,87.39s.44.64,1.26,0Z"/><circle class="cls-19" cx="168.39" cy="89.18" r="2.83" transform="translate(-22.11 93.44) rotate(-29.19)"/><ellipse id="SVGID-19" data-name="SVGID" class="cls-1" cx="168.37" cy="89.25" rx="2.76" ry="2.81" transform="translate(75.77 255.8) rotate(-88.86)"/><path class="cls-20" d="M167.64,84.23a2.22,2.22,0,0,1,.68,2.3.17.17,0,0,0,.27.18h0s.61-.83-.46-2.77a.28.28,0,0,0-.09-.1.35.35,0,0,0-.35,0A.27.27,0,0,0,167.64,84.23Z"/><path class="cls-18" d="M167.92,86.53s.44.64,1.25,0Z"/><circle class="cls-21" cx="164.53" cy="92.51" r="3.39"/><path class="cls-22" d="M164.79,88.62s-.59-2.18,3.15-2.62C167.94,86,168,89.64,164.79,88.62Z"/><g class="cls-25"><polygon class="cls-24" points="164.79 88.62 168.42 85.62 167.38 88.91 164.6 88.78 164.79 88.62"/></g><circle id="SVGID-20" data-name="SVGID" class="cls-1" cx="164.53" cy="92.51" r="3.39"/><path class="cls-20" d="M163.51,86.6a2.62,2.62,0,0,1,.87,2.73.2.2,0,0,0,.32.21h0s.71-1-.62-3.31a.38.38,0,0,0-.11-.11.41.41,0,0,0-.42,0A.33.33,0,0,0,163.51,86.6Z"/><path class="cls-18" d="M163.9,89.35s.54.75,1.51,0Z"/><circle class="cls-19" cx="161.3" cy="95.67" r="2.83"/><ellipse id="SVGID-21" data-name="SVGID" class="cls-1" cx="161.29" cy="95.74" rx="2.81" ry="2.76" transform="translate(-8.4 15.83) rotate(-5.48)"/><path class="cls-20" d="M160,90.84a2.19,2.19,0,0,1,.93,2.2.17.17,0,0,0,.29.15h0s.5-.9-.78-2.7a.39.39,0,0,0-.1-.08.33.33,0,0,0-.36,0A.27.27,0,0,0,160,90.84Z"/><path class="cls-18" d="M160.52,93.09s.52.59,1.26-.12Z"/><circle class="cls-19" cx="186.19" cy="96.2" r="2.83" transform="translate(-23.27 103.01) rotate(-29.19)"/><ellipse id="SVGID-22" data-name="SVGID" class="cls-1" cx="186.17" cy="96.27" rx="2.76" ry="2.81" transform="translate(86.2 280.47) rotate(-88.86)"/><path class="cls-20" d="M185.44,91.25a2.2,2.2,0,0,1,.68,2.29.16.16,0,0,0,.26.18h0s.61-.83-.46-2.76a.22.22,0,0,0-.09-.1.35.35,0,0,0-.35,0A.27.27,0,0,0,185.44,91.25Z"/><path class="cls-18" d="M185.71,93.55s.44.64,1.26,0Z"/><circle class="cls-21" cx="142.52" cy="92.4" r="2.83"/><path class="cls-22" d="M142.73,89.16s-.49-1.82,2.63-2.19C145.36,87,145.45,90,142.73,89.16Z"/><g class="cls-26"><polygon class="cls-24" points="142.73 89.16 145.76 86.66 144.9 89.39 142.57 89.29 142.73 89.16"/></g><circle id="SVGID-23" data-name="SVGID" class="cls-1" cx="142.52" cy="92.4" r="2.83"/><path class="cls-20" d="M141.67,87.47a2.18,2.18,0,0,1,.72,2.28.16.16,0,0,0,.27.17h0s.59-.84-.52-2.75a.22.22,0,0,0-.09-.1.35.35,0,0,0-.35,0A.27.27,0,0,0,141.67,87.47Z"/><path class="cls-18" d="M142,89.76s.45.63,1.26,0Z"/><circle class="cls-21" cx="181.88" cy="97.62" r="3.39"/><path class="cls-22" d="M182.14,93.73s-.59-2.18,3.15-2.62C185.29,91.11,185.39,94.75,182.14,93.73Z"/><g class="cls-27"><polygon class="cls-24" points="182.14 93.73 185.77 90.73 184.73 94.02 181.95 93.89 182.14 93.73"/></g><circle id="SVGID-24" data-name="SVGID" class="cls-1" cx="181.88" cy="97.62" r="3.39"/><path class="cls-20" d="M180.86,91.71a2.63,2.63,0,0,1,.87,2.73.2.2,0,0,0,.32.21h0s.71-1-.62-3.3a.32.32,0,0,0-.11-.12.41.41,0,0,0-.42,0A.33.33,0,0,0,180.86,91.71Z"/><path class="cls-18" d="M181.25,94.46s.54.75,1.51,0Z"/><circle class="cls-21" cx="147.96" cy="90.81" r="2.83" transform="translate(-7.78 167.52) rotate(-57.76)"/><circle id="SVGID-25" data-name="SVGID" class="cls-1" cx="147.96" cy="90.81" r="2.83" transform="translate(-7.78 167.52) rotate(-57.76)"/><path class="cls-20" d="M147.06,85.88a2.19,2.19,0,0,1,.75,2.27.16.16,0,0,0,.27.17h0s.58-.85-.54-2.75a.32.32,0,0,0-.1-.1.35.35,0,0,0-.35,0A.28.28,0,0,0,147.06,85.88Z"/><path class="cls-18" d="M147.41,88.17s.45.63,1.25,0Z"/><circle class="cls-19" cx="146.31" cy="94.63" r="2.83"/><ellipse id="SVGID-26" data-name="SVGID" class="cls-1" cx="146.31" cy="94.7" rx="2.81" ry="2.76" transform="translate(-23.03 53.49) rotate(-19.24)"/><path class="cls-20" d="M143.88,90.25a2.19,2.19,0,0,1,1.43,1.91.17.17,0,0,0,.31.08h0s.28-1-1.4-2.43a.24.24,0,0,0-.12-.07.35.35,0,0,0-.34.08A.28.28,0,0,0,143.88,90.25Z"/><path class="cls-18" d="M144.94,92.31s.63.44,1.19-.42Z"/><circle class="cls-21" cx="151.3" cy="95.58" r="2.83" transform="translate(33.8 230.56) rotate(-81.24)"/><circle id="SVGID-27" data-name="SVGID" class="cls-1" cx="151.3" cy="95.58" r="2.83" transform="translate(33.8 230.56) rotate(-81.24)"/><path class="cls-20" d="M149.75,90.82a2.21,2.21,0,0,1,1,2.15.16.16,0,0,0,.29.13h0s.46-.91-.91-2.65a.39.39,0,0,0-.1-.08.36.36,0,0,0-.36,0A.27.27,0,0,0,149.75,90.82Z"/><path class="cls-18" d="M150.39,93s.54.56,1.25-.18Z"/><circle class="cls-21" cx="155.46" cy="90.84" r="2.6" transform="translate(9.69 196.53) rotate(-66.25)"/><circle id="SVGID-28" data-name="SVGID" class="cls-1" cx="155.46" cy="90.84" r="2.6" transform="translate(9.69 196.53) rotate(-66.25)"/><path class="cls-18" d="M154.9,88.44s.43.56,1.15,0Z"/><circle class="cls-17" cx="156.09" cy="95.02" r="3.34" transform="translate(6.25 199.61) rotate(-66.25)"/><path class="cls-18" d="M155.37,91.92s.56.73,1.48,0Z"/><circle class="cls-17" cx="169.62" cy="92.52" r="3.27" transform="translate(16.61 210.5) rotate(-66.25)"/><path class="cls-18" d="M168.91,89.5s.55.71,1.45,0Z"/><circle class="cls-17" cx="176.13" cy="99.2" r="3.34" transform="translate(-24.67 122.42) rotate(-35.99)"/><path class="cls-18" d="M176.69,96.07s.22.89,1.38.54Z"/><circle class="cls-21" cx="165.81" cy="96.66" r="3.04" transform="translate(10.55 209.49) rotate(-66.25)"/><circle id="SVGID-29" data-name="SVGID" class="cls-1" cx="165.81" cy="96.66" r="3.04" transform="translate(10.55 209.49) rotate(-66.25)"/><path class="cls-18" d="M165.15,93.85s.51.66,1.35,0Z"/><circle class="cls-19" cx="171.49" cy="96.71" r="3.2" transform="translate(39.34 242.65) rotate(-77.26)"/><ellipse id="SVGID-30" data-name="SVGID" class="cls-1" cx="171.45" cy="96.78" rx="3.12" ry="3.18" transform="translate(22.94 226.02) rotate(-70.48)"/><path class="cls-20" d="M172.45,91.13a2.46,2.46,0,0,1-.09,2.7.19.19,0,0,0,.23.29h0s.94-.68.49-3.14a.24.24,0,0,0-.07-.13.37.37,0,0,0-.35-.18A.31.31,0,0,0,172.45,91.13Z"/><path class="cls-18" d="M171.93,93.7s.24.84,1.34.48Z"/></g><path class="cls-28" d="M12,95.45l-1.68.29a1.08,1.08,0,0,1-1.25-.91L-21-86.95a1.12,1.12,0,0,1,.89-1.29l1.68-.29a1.09,1.09,0,0,1,1.25.91L12.89,94.16A1.12,1.12,0,0,1,12,95.45Z"/><g class="cls-29"><path class="cls-30" d="M-8.43,1.39c1.61-.46,3,2.7,3.69,4.48a29.3,29.3,0,0,1,1.23,5.38c.41,2.25,1.12,6.39,1.69,10S3,49.47,1.61,50.06-2.25,50-2.25,50Z"/><ellipse class="cls-30" cx="1.72" cy="49.04" rx="1.11" ry="3.99" transform="translate(-12.46 2.06) rotate(-14.79)"/><ellipse class="cls-30" cx="2.73" cy="43.43" rx="0.56" ry="0.76" transform="translate(-10.35 1.93) rotate(-13.89)"/><ellipse class="cls-30" cx="5.89" cy="62.56" rx="0.37" ry="0.85" transform="matrix(0.97, -0.25, 0.25, 0.97, -15.65, 3.53)"/></g><path class="cls-2" d="M-78.57,105.84s-.66,16-3.53,21.68-6.41,10.82-7.07,12.83,23.2,2.57,45.29,2.2,64.51,3.3,74,1.47,63.18-2,79.09-2,50.15,2.38,57.22-2.57c0,0-4.7-10.49-6.91-33.65l-177.12-5.19Z"/><g class="cls-31"><path class="cls-32" d="M109.84,147.35c2.79-1.4,4.48-4.28,5.82-7.1,1.59-3.35,2.9-6.83,4.2-10.3l3.72-9.9c1,1,.65,2.68.24,4a109,109,0,0,0-4.19,22.34c-.12,1.43-.3,3-1.42,3.91a5.09,5.09,0,0,1-2,.77c-3,.68-6.68.94-8.5-1.51"/><path class="cls-32" d="M131.9,144.55l.37-17.22c-1.25,2.06-1,4.64-1.29,7a16.57,16.57,0,0,1-3.49,8.47c-.71.9-1.58,2-1.2,3.07a24,24,0,0,0,6.55-.12"/><path class="cls-32" d="M171.89,142.13c-7.2-9-10.82-20.2-14.95-30.94-.21-.55-.59-1.2-1.17-1.12s-.76.76-.81,1.32c-.25,3,.75,6,1.32,9,1.44,7.58.11,15.38.29,23.08,0,1.12.16,2.4,1.06,3.07a3.91,3.91,0,0,0,2.06.53l7.27.48c2.3.16,4.87.22,6.59-1.31a4.49,4.49,0,0,0,.76-5.63"/><path class="cls-32" d="M-28.4,126.22c5.52,4.67,13.1,6.5,20.31,5.86S6,128.51,12.06,124.61a36.73,36.73,0,0,1,7.22-4.07,1.59,1.59,0,0,1,1.13-.09c.93.39.45,1.8-.17,2.59-5.86,7.33-13.94,13.09-23.08,15.21s-19.34.32-26.62-5.61a13.62,13.62,0,0,0,7.5,1.88c-2.59-4.12-9.73-4.45-10.84-9.18l3.34.07"/><path class="cls-32" d="M35.72,145.22l-1.94-17.29a28.94,28.94,0,0,1-.07-8.86c2.2,2.57,1.83,6.37,2.58,9.66.89,3.92,3.47,7.27,6.51,9.88a77.36,77.36,0,0,0,10,6.71,2,2,0,0,1,1,1c.24,1-1,1.6-2,1.79-5.78,1.09-11.71,0-17.47-1.18"/></g><path class="cls-32" d="M129.32,83.65H-47.12l-31.61,22.11s3.62,2.49,18.5,1.31,40.94-.88,52.28,0,32.41,1.18,42.27-.44,37.56.44,52.14.73,25.48.59,39-.73,32.11,1.65,34.1-.87Z"/><path class="cls-32" d="M93.09,134.17s12.59,1.55,16.13-7.95C109.22,126.22,109.22,141.24,93.09,134.17Z"/><rect class="cls-33" x="131.91" y="112.63" width="11.6" height="9.21" rx="2.88" transform="translate(305.57 184.57) rotate(161.45)"/><path class="cls-34" d="M137.53,123.47h0a.46.46,0,0,1-.56-.3l-.44-1.33a.44.44,0,0,1,.28-.56h0a.44.44,0,0,1,.56.29l.44,1.33A.45.45,0,0,1,137.53,123.47Z"/><path class="cls-34" d="M138.5,123h0a.45.45,0,0,1-.56-.29l-.44-1.34a.44.44,0,0,1,.28-.56h0a.44.44,0,0,1,.56.29l.44,1.33A.46.46,0,0,1,138.5,123Z"/><path class="cls-34" d="M136.2,113.94h0a.46.46,0,0,1-.56-.29l-.43-1.34a.43.43,0,0,1,.28-.56h0a.45.45,0,0,1,.56.29l.43,1.34A.44.44,0,0,1,136.2,113.94Z"/><path class="cls-34" d="M137.17,113.47h0a.46.46,0,0,1-.56-.29l-.44-1.34a.45.45,0,0,1,.28-.56h0a.45.45,0,0,1,.56.29l.44,1.34A.44.44,0,0,1,137.17,113.47Z"/><path class="cls-34" d="M141.94,114.77h0a.45.45,0,0,1,.32-.54l1.36-.37a.45.45,0,0,1,.54.31h0a.45.45,0,0,1-.32.55l-1.35.36A.44.44,0,0,1,141.94,114.77Z"/><path class="cls-34" d="M142.27,115.74h0a.45.45,0,0,1,.32-.54l1.36-.37a.44.44,0,0,1,.55.31h0a.45.45,0,0,1-.32.54l-1.36.37A.44.44,0,0,1,142.27,115.74Z"/><path class="cls-34" d="M130.72,119h0a.43.43,0,0,1,.28-.55l1.33-.44a.47.47,0,0,1,.58.27h0a.44.44,0,0,1-.28.56l-1.34.43A.45.45,0,0,1,130.72,119Z"/><path class="cls-34" d="M131.13,119.88h0a.43.43,0,0,1,.28-.55l1.33-.44a.46.46,0,0,1,.58.27h0a.43.43,0,0,1-.28.55l-1.34.44A.45.45,0,0,1,131.13,119.88Z"/><path class="cls-35" d="M21.14,75.52c.18-.21.5.09.81.25s.51.28.43.61a12.25,12.25,0,0,1,0,2c-.17,1.09-2.47,6.3-9.39,6.78s-9.6-2.56-10.2-5.52A8.81,8.81,0,0,1,3,77.73a3.29,3.29,0,0,0-.08-1.17,1.12,1.12,0,0,0-.44-.65.4.4,0,0,1,0-.6A1.27,1.27,0,0,1,3,75c1-.25,1.54-.33,1.58.66s.13.93.56,1.37a8.27,8.27,0,0,0,7.49,2.9c4.26-.56,4.58-2.32,7.24-3.56A3.19,3.19,0,0,0,21.14,75.52Z"/><path class="cls-36" d="M22,75.77c.31.16.51.28.43.61a12.25,12.25,0,0,1,0,2c-.17,1.09-2.47,6.3-9.39,6.78s-9.6-2.56-10.2-5.52A8.81,8.81,0,0,1,3,77.73a3.29,3.29,0,0,0-.08-1.17,1.12,1.12,0,0,0-.44-.65.4.4,0,0,1,0-.6A1.27,1.27,0,0,1,3,75c1-.25.41,0,.72,1,.66,2,3.94,6.32,9.13,5.43C19.34,80.31,21.64,75.61,22,75.77Z"/><path class="cls-37" d="M22.29,76.24c.2-.18-.1-.36-.34-.48s-.5-.37-.64-.2c0,0-.08.08.07.18S22.2,76.32,22.29,76.24Z"/><path class="cls-38" d="M2.75,75.75a.24.24,0,0,1-.29-.17.33.33,0,0,1,.1-.31A1,1,0,0,1,3.08,75c.64-.16,1.06-.24,1.25.09,0,0,.19.23-.62.44C3.43,75.62,3,75.71,2.75,75.75Z"/><path class="cls-35" d="M21.85,83.49c.28-.14.48.3.73.6s.42.51.2.82A14.13,14.13,0,0,1,22,87c-.64,1.06-5.23,5.52-12.64,3.12S.43,83.37,1.05,80A10.06,10.06,0,0,1,2,78.15a3.73,3.73,0,0,0,.41-1.26A1.21,1.21,0,0,0,2.2,76a.46.46,0,0,1,.21-.65,1.43,1.43,0,0,1,.76,0c1.14.15,1.75.3,1.37,1.34s-.26,1,0,1.67a9.27,9.27,0,0,0,6.57,6.17c4.68,1.21,5.75-.49,9.05-.66A3.65,3.65,0,0,0,21.85,83.49Z"/><path class="cls-36" d="M22.58,84.09c.26.3.42.51.2.82A14.13,14.13,0,0,1,22,87c-.64,1.06-5.23,5.52-12.64,3.12S.43,83.37,1.05,80A10.06,10.06,0,0,1,2,78.15a3.73,3.73,0,0,0,.41-1.26A1.21,1.21,0,0,0,2.2,76a.46.46,0,0,1,.21-.65,1.43,1.43,0,0,1,.76,0c1.14.15.4.22.33,1.33-.16,2.38,1.45,8.25,7.23,9.5C18,87.73,22.33,83.79,22.58,84.09Z"/><path class="cls-37" d="M22.74,84.72c.28-.1.05-.41-.15-.64s-.36-.59-.58-.48c0,0-.12.05,0,.22S22.61,84.77,22.74,84.72Z"/><path class="cls-38" d="M2.58,76a.27.27,0,0,1-.22-.3.36.36,0,0,1,.23-.29,1.22,1.22,0,0,1,.65,0c.73.1,1.21.2,1.26.62,0,0,.11.33-.83.21Z"/><path class="cls-35" d="M16,90.77c.31,0,.29.48.39.86s.14.65-.2.82-.57.83-1.62,1.5-7.14,2.59-12.7-2.88-5-10-2.92-12.7A9.16,9.16,0,0,1,.58,77.1a4,4,0,0,0,.93-.94,1.24,1.24,0,0,0,.21-.86.46.46,0,0,1,.48-.48,1.45,1.45,0,0,1,.7.29c1,.65,1.43,1,.62,1.82s-.69.8-.74,1.49A9.32,9.32,0,0,0,5.9,86.89c3.64,3.17,5.36,2.13,8.38,3.45A3.52,3.52,0,0,0,16,90.77Z"/><path class="cls-39" d="M16.34,91.63c.09.38.14.65-.2.82s-.57.83-1.62,1.5-7.14,2.59-12.7-2.88-5-10-2.92-12.7A9.16,9.16,0,0,1,.58,77.1a4,4,0,0,0,.93-.94,1.24,1.24,0,0,0,.21-.86.46.46,0,0,1,.48-.48,1.45,1.45,0,0,1,.7.29c1,.65.27.38-.3,1.34-1.21,2.06-2.4,8,2.21,11.73C10.57,92.82,16.24,91.25,16.34,91.63Z"/><path class="cls-37" d="M16.19,92.27c.3,0,.23-.34.16-.64s-.06-.69-.31-.69c0,0-.12,0-.1.2S16.05,92.26,16.19,92.27Z"/><path class="cls-38" d="M2.08,75.44A.27.27,0,0,1,2,75.07a.37.37,0,0,1,.33-.16,1.31,1.31,0,0,1,.6.25c.61.42,1,.72.86,1.12,0,0-.06.34-.84-.18C2.7,75.91,2.3,75.6,2.08,75.44Z"/><path class="cls-35" d="M9.82,94.16c.3.09.14.55.12.94s0,.66-.42.72a12.71,12.71,0,0,1-2,1c-1.2.33-7.59.39-11.3-6.46s-1.84-11,.91-13a9.61,9.61,0,0,1,2-.73A3.87,3.87,0,0,0,.28,76a1.24,1.24,0,0,0,.45-.76.46.46,0,0,1,.6-.32,1.43,1.43,0,0,1,.59.48c.72.9,1.06,1.43.06,1.92s-.9.57-1.14,1.22a9.25,9.25,0,0,0,.5,9c2.56,4.1,4.51,3.61,7,5.76A3.64,3.64,0,0,0,9.82,94.16Z"/><path class="cls-40" d="M9.94,95.1c0,.39,0,.66-.42.72a12.71,12.71,0,0,1-2,1c-1.2.33-7.59.39-11.3-6.46s-1.84-11,.91-13a9.61,9.61,0,0,1,2-.73A3.87,3.87,0,0,0,.28,76a1.24,1.24,0,0,0,.45-.76.46.46,0,0,1,.6-.32,1.43,1.43,0,0,1,.59.48c.72.9.14.44-.68,1.2-1.76,1.61-4.64,7-1.32,11.86C4.08,94.55,10,94.71,9.94,95.1Z"/><path class="cls-37" d="M9.62,95.67c.27.12.32-.26.33-.57s.15-.68-.09-.75c0,0-.12,0-.16.16S9.49,95.61,9.62,95.67Z"/><path class="cls-38" d="M1,75.45a.27.27,0,0,1,0-.37A.41.41,0,0,1,1.45,75a1.4,1.4,0,0,1,.5.42c.46.58.74,1,.49,1.32,0,0-.15.31-.74-.42C1.49,76.08,1.19,75.67,1,75.45Z"/><path class="cls-35" d="M2.88,97.13c.25.18,0,.57-.18.93s-.25.62-.62.56a12.43,12.43,0,0,1-2.19.31c-1.24-.05-7.35-1.94-8.79-9.6s1.61-11,4.83-12.1A9.32,9.32,0,0,1-2,77.14a4.1,4.1,0,0,0,1.3-.24A1.27,1.27,0,0,0,0,76.32a.46.46,0,0,1,.67-.13c.14.11.17.37.41.64.43.49.8,1.09-.3,1.26s-1.25.85-1.68,1.39a9.28,9.28,0,0,0-2.26,8.73C-2,92.9,0,93,1.74,95.83A3.64,3.64,0,0,0,2.88,97.13Z"/><path class="cls-40" d="M2.7,98.06c-.14.37-.25.62-.62.56a12.43,12.43,0,0,1-2.19.31c-1.24-.05-7.35-1.94-8.79-9.6s1.61-11,4.83-12.1A9.32,9.32,0,0,1-2,77.14a4.1,4.1,0,0,0,1.3-.24A1.27,1.27,0,0,0,0,76.32a.46.46,0,0,1,.67-.13,1.43,1.43,0,0,1,.41.64c.41,1.07,0,.46-1,.93-2.16,1-6.54,5.22-4.87,10.89C-2.71,95.75,2.84,97.7,2.7,98.06Z"/><path class="cls-37" d="M2.22,98.51c.23.19.38-.16.49-.45s.34-.6.14-.74c0,0-.1-.07-.19.11S2.11,98.41,2.22,98.51Z"/><path class="cls-36" d="M4.6,75.92s.31.64-.91,1.18c0,0-3.1.66-3.78.06l2.64-1.81"/><path class="cls-36" d="M.84,76.89S-1.47,78.06.29,76"/><path class="cls-40" d="M.58,77.1S-.52,75.17-1.72,75a5,5,0,0,0-3.76.74S-7,77.5-8.29,74.85c0,0-1.38-3.08,1.18-4a13.45,13.45,0,0,1,6.59-.3s2.8.35,4.08-.57c0,0,1.09-1.56,2.51-1.3a2.33,2.33,0,0,1,1.32,1.73s.7,2.35-.46,3a12.26,12.26,0,0,1-2.63.71,5.29,5.29,0,0,1,.29,1.51S5.44,77.14.58,77.1Z"/><path class="cls-41" d="M.58,77.1S-.52,75.17-1.72,75a5,5,0,0,0-3.76.74S-7,77.5-8.29,74.85c0,0-1.38-3.08,1.18-4a13.45,13.45,0,0,1,6.59-.3s2.8.35,4.08-.57c0,0,1.09-1.56,2.51-1.3a2.33,2.33,0,0,1,1.32,1.73s.7,2.35-.46,3a12.26,12.26,0,0,1-2.63.71,5.29,5.29,0,0,1,.29,1.51S5.44,77.14.58,77.1Z"/><path class="cls-42" d="M.58,77.1S-.52,75.17-1.72,75a5,5,0,0,0-3.76.74S-7,77.5-8.29,74.85c0,0-1.38-3.08,1.18-4a13.45,13.45,0,0,1,6.59-.3s2.8.35,4.08-.57c0,0,1.09-1.56,2.51-1.3a2.33,2.33,0,0,1,1.32,1.73s.7,2.35-.46,3a12.26,12.26,0,0,1-2.63.71,5.29,5.29,0,0,1,.29,1.51S5.44,77.14.58,77.1Z"/><path class="cls-43" d="M109.73,63.72a5.51,5.51,0,0,1,.16-2.25c.28-.77,1.15-1.61,2-1.08.07,0,.61.53.53.6-.55.5-.54-1-.51-1.06.18-.83,1-1.28,1.76-1.58s.19-1.27-.46-1c-1.44.6-3,2-2.33,3.7.42,1.18,2.72,2.09,2.7.23a2.3,2.3,0,0,0-3-2c-2,.67-2.1,2.92-2,4.65,0,.71,1.13.52,1.08-.17Z"/><circle class="cls-3" cx="105.22" cy="76.47" r="15.32" transform="translate(-22.88 99.04) rotate(-46)"/><g class="cls-44"><path class="cls-45" d="M102,54.47c-3,2.26-6,5.3-6.28,9.2-.12,1.55.19,3.17-.3,4.64s-1.53,2.41-1.81,3.81c-.39,1.94.89,3.88.6,5.84C94,79.35,93,80.54,92.9,82s.6,2.71.76,4.1c.21,1.83-.58,3.63-1,5.44s-.27,4.07,1.19,5a3.71,3.71,0,0,0,2,.49A2.8,2.8,0,0,0,98,96.31a3.56,3.56,0,0,0,.63-2.84c-.37-3.37-2-6.58-1.64-10a44.37,44.37,0,0,0,.77-4.66c0-1.84-.79-3.65-.47-5.46.26-1.56,1.3-2.86,1.65-4.39.31-1.36.06-2.8.37-4.16.44-1.94,1.93-3.37,3.13-4.9s2.22-3.64,1.48-5.45"/><path class="cls-45" d="M96.54,56.73c-3,1.91-6,4.53-6.46,8.06-.17,1.41.09,2.91-.44,4.23s-1.58,2.12-1.9,3.38c-.44,1.75.76,3.58.41,5.35-.25,1.27-1.25,2.3-1.43,3.58s.5,2.5.62,3.78c.15,1.69-.69,3.29-1.15,4.92s-.4,3.7,1,4.64a3.92,3.92,0,0,0,1.9.55,2.9,2.9,0,0,0,2.16-.51,3,3,0,0,0,.7-2.56c-.25-3.1-1.75-6.12-1.28-9.19a39.17,39.17,0,0,0,.9-4.22c.07-1.68-.65-3.37-.29-5,.31-1.41,1.38-2.54,1.77-3.92.35-1.22.14-2.55.49-3.78.5-1.74,2-3,3.23-4.3s2.29-3.21,1.63-4.89"/><path class="cls-45" d="M104.44,57.3a20.87,20.87,0,0,0-2.78,7.15c-.15,1.09-.13,2.19-.36,3.26-.41,2-1.63,3.72-1.77,5.76-.13,1.72.55,3.36.27,5.07-.23,1.47-1.14,2.87-.9,4.28.07.47.28.88.32,1.36a9.53,9.53,0,0,1-.56,2.62c-.35,1.69.34,3.38.08,5.09-.13.87-.48,1.89-.08,2.51a1.23,1.23,0,0,0,.56.43,2.81,2.81,0,0,0,2.56.36c1.13-.6,1.71-2.48,1.71-4.11s-.42-3.15-.57-4.75a31.17,31.17,0,0,1,.17-5.94,38.81,38.81,0,0,1,.55-4.16c.17-.81.39-1.61.5-2.44.22-1.68,0-3.39.23-5.06.37-2.16,1.6-4,2.07-6.09a8.34,8.34,0,0,0-.22-4.45c-.18-.53-.56-1.08-1-.87"/><path class="cls-45" d="M114.69,60.75c-1.7,1.37-1.51,4.31-2.45,6.45a20.5,20.5,0,0,0-1.47,3c-.51,1.93.53,3.92.2,5.89-.26,1.59-1.38,3-1.49,4.56-.08,1.29.52,2.55.29,3.83s-1.17,2.24-1.21,3.48.74,2.17.75,3.35c0,1.38-1,3-.23,4a1.2,1.2,0,0,0,1.65.2,2.94,2.94,0,0,0,1.07-1.71c.49-1.94-.28-4-.06-5.93S113,84.17,113,82.28c0-.77-.24-1.51-.26-2.28,0-1.74.91-3.34,1.39-5,.39-1.39.46-2.85.75-4.26A28.45,28.45,0,0,1,116,66.86l2-5.67-2-.84"/><path class="cls-45" d="M118.92,66.94a12,12,0,0,0-2.85,6.78,13.6,13.6,0,0,1-.21,2.12c-.41,1.78-1.87,3.22-2.08,5s1,3.75,1.27,5.7c.29,2.39-1,5,.23,7.12l2.27-1.46a1.81,1.81,0,0,0,.6-.53,1.43,1.43,0,0,0,.19-.56c.56-3-1-6-.56-9,.22-1.59,1-3.1,1-4.7,0-.83-.26-1.65-.26-2.48,0-2.55,2.21-4.48,3.42-6.72a3.47,3.47,0,0,0,.5-1.82,1.55,1.55,0,0,0-1-1.44,1.79,1.79,0,0,0-1.94,1.33"/><path class="cls-45" d="M110.05,60.32a7.34,7.34,0,0,1-1.33,3,14.14,14.14,0,0,0-1.83,5.51,22,22,0,0,1-.39,3c-.37,1.41-1.24,2.72-1.18,4.17,0,.84.38,1.64.43,2.47.09,1.41-.64,2.76-.61,4.16,0,.73.25,1.44.32,2.16a11,11,0,0,1-.06,1.81,33.88,33.88,0,0,0,.35,8.11c.7.42,1.65-.23,1.85-1a4.41,4.41,0,0,0-.31-2.39,11.24,11.24,0,0,1-.59-3.67c0-1.23.4-2.43.51-3.66s0-2.41.2-3.58.73-2.16.86-3.29c.14-1.29-.23-2.59-.19-3.89.06-1.86.94-3.62,1.07-5.48a7.65,7.65,0,0,1,.13-1.36,6,6,0,0,1,.85-1.67,14.44,14.44,0,0,0,1.61-3.61,3.3,3.3,0,0,0,.13-1.81,1.32,1.32,0,0,0-1.36-1"/></g><circle class="cls-46" cx="98.19" cy="64.15" r="0.7"/><circle class="cls-46" cx="96.77" cy="65.07" r="0.5"/><path class="cls-43" d="M128.79,69.36A6,6,0,0,1,128,67c0-.89.5-2.09,1.59-1.91.07,0,.82.29.77.39-.35.73-.93-.75-.95-.86a2.86,2.86,0,0,1,1.13-2.31c.54-.54-.32-1.36-.87-.82-1.21,1.2-2.16,3.19-.84,4.68.91,1,3.6,1,2.82-.87a2.5,2.5,0,0,0-3.81-.85c-1.7,1.47-.92,3.8-.1,5.5.34.69,1.35.06,1-.62Z"/><circle class="cls-4" cx="129.46" cy="84.07" r="16.63" transform="translate(-23.37 105.77) rotate(-41.08)"/><g class="cls-47"><path class="cls-48" d="M117.24,63.2c-2.09,3.5-3.85,7.78-2.58,11.82.51,1.62,1.49,3.12,1.6,4.8s-.56,3.06-.27,4.58c.4,2.11,2.48,3.54,3,5.63.36,1.49-.14,3.09.3,4.56s1.71,2.48,2.44,3.82c1,1.76.9,3.89,1.22,5.89s1.39,4.21,3.25,4.56a4,4,0,0,0,2.17-.3,3.11,3.11,0,0,0,1.91-1.58,3.85,3.85,0,0,0-.53-3.11C128,100.61,125,98.05,124,94.48c-.47-1.65-.49-3.42-1.13-5-.74-1.85-2.28-3.34-2.71-5.3-.36-1.67.15-3.41-.12-5.09-.24-1.5-1.09-2.85-1.33-4.35-.34-2.13.57-4.18,1.16-6.21s.74-4.57-.74-6.09"/><path class="cls-48" d="M112.65,67.71c-2.25,3.14-4.23,7-3.21,10.75.4,1.49,1.27,2.89,1.28,4.43s-.73,2.79-.53,4.18c.26,2,2.22,3.31,2.59,5.24.27,1.37-.32,2.82,0,4.18s1.53,2.31,2.17,3.56c.84,1.64.65,3.59.85,5.42s1.11,3.89,2.91,4.26a4.24,4.24,0,0,0,2.14-.22,3.15,3.15,0,0,0,2-1.39,3.27,3.27,0,0,0-.33-2.87c-1.52-3-4.26-5.45-5-8.73-.37-1.53-.28-3.15-.81-4.63-.62-1.72-2-3.12-2.34-4.92-.26-1.54.35-3.12.18-4.67-.15-1.37-.89-2.63-1-4-.22-2,.8-3.81,1.49-5.65s1-4.16-.36-5.59"/><path class="cls-48" d="M122.9,64.71a22.52,22.52,0,0,0,.12,8.34c.3,1.15.76,2.26,1,3.42.4,2.19-.12,4.42.56,6.53.58,1.79,1.93,3.16,2.36,5,.36,1.57,0,3.35.82,4.67.28.45.65.77.89,1.25a10.2,10.2,0,0,1,.5,2.86c.34,1.84,1.72,3.27,2.16,5.1.23.92.29,2.1.95,2.56a1.43,1.43,0,0,0,.74.21,3,3,0,0,0,2.72-.69c.89-1.06.71-3.2,0-4.84a50.14,50.14,0,0,0-2.51-4.55,33.9,33.9,0,0,1-2.25-6,42.14,42.14,0,0,1-1.14-4.42c-.17-.89-.27-1.78-.5-2.66-.46-1.78-1.43-3.39-1.83-5.19-.51-2.32,0-4.64-.41-7a9.14,9.14,0,0,0-2-4.39c-.4-.46-1-.86-1.35-.47"/><path class="cls-48" d="M132.57,64.34c-1.16,2.07.24,5,.16,7.5a22.82,22.82,0,0,0-.26,3.59c.27,2.15,2.13,3.73,2.61,5.85.38,1.71-.19,3.54.36,5.2.44,1.34,1.55,2.36,1.85,3.74s-.26,2.74.2,4,1.63,1.89,2.12,3.07c.58,1.38.23,3.4,1.4,4.12a1.32,1.32,0,0,0,1.75-.48,3.15,3.15,0,0,0,.37-2.16c-.3-2.15-1.89-3.86-2.48-6s-.19-4.21-1-6.09c-.34-.77-.86-1.42-1.2-2.19-.75-1.74-.44-3.74-.65-5.63-.17-1.56-.69-3.06-1-4.6a31.85,31.85,0,0,1-.41-4.35l-.29-6.53-2.34,0"/><path class="cls-48" d="M139.36,68.85a13,13,0,0,0-.1,8,16.06,16.06,0,0,1,.65,2.22c.31,2-.57,4,0,5.93s2.57,3.36,3.61,5.22c1.26,2.29,1.09,5.45,3.14,7.08l1.68-2.4a2,2,0,0,0,.4-.78,2,2,0,0,0,0-.64c-.64-3.2-3.42-5.62-4.22-8.79-.43-1.69-.26-3.53-1-5.13-.37-.83-.95-1.55-1.28-2.39-1-2.57.39-5.41.69-8.16a3.72,3.72,0,0,0-.22-2,1.72,1.72,0,0,0-1.64-1,2,2,0,0,0-1.42,2.14"/></g><circle class="cls-46" cx="117.25" cy="74.64" r="0.74"/><circle class="cls-46" cx="116.23" cy="76.12" r="0.49"/><path class="cls-43" d="M104.17,82.73a3.94,3.94,0,0,1,0-1.53c.18-.52.75-1.11,1.35-.77,0,0,.42.35.37.4-.36.35-.39-.65-.37-.71.11-.57.68-.89,1.16-1.11s.1-.86-.33-.67c-1,.44-2,1.4-1.51,2.56.31.79,1.89,1.36,1.84.1a1.56,1.56,0,0,0-2-1.32c-1.32.49-1.37,2-1.25,3.19,0,.48.77.33.73-.14Z"/><circle class="cls-5" cx="101.37" cy="91.48" r="10.37" transform="translate(-35.07 86.24) rotate(-39.87)"/><g class="cls-49"><path class="cls-48" d="M102.37,77.18c-2.12,1.41-4.27,3.34-4.64,6a12.89,12.89,0,0,1-.4,3.12c-.36.9-1.14,1.57-1.39,2.5-.34,1.3.44,2.66.16,4-.2.93-.91,1.7-1.06,2.64a13.39,13.39,0,0,0,.34,2.8,11.3,11.3,0,0,1-.9,3.65c-.35,1.2-.36,2.74.59,3.44a2.44,2.44,0,0,0,1.3.41,1.89,1.89,0,0,0,1.5-.37,2.38,2.38,0,0,0,.55-1.89c-.11-2.3-1.08-4.54-.69-6.82a31.44,31.44,0,0,0,.72-3.13c.09-1.24-.37-2.49-.09-3.71.25-1,1-1.87,1.31-2.9s.16-1.89.43-2.79a8.83,8.83,0,0,1,2.32-3.18c.88-1,1.65-2.37,1.23-3.62"/><path class="cls-48" d="M96.21,78.44c-2,1.35-4,3.18-4.21,5.59a11,11,0,0,1-.22,2.87c-.3.82-1,1.47-1.21,2.33-.27,1.19.58,2.41.38,3.62-.14.86-.8,1.58-.89,2.45a12,12,0,0,0,.49,2.55,9.61,9.61,0,0,1-.67,3.35c-.28,1.12-.2,2.52.77,3.13a2.67,2.67,0,0,0,1.3.33,2,2,0,0,0,1.45-.39,2,2,0,0,0,.43-1.75c-.23-2.09-1.31-4.1-1.06-6.2a26,26,0,0,0,.53-2.88c0-1.13-.52-2.26-.3-3.38.18-1,.88-1.75,1.11-2.69s0-1.73.26-2.57a8,8,0,0,1,2.1-3c.81-.93,1.49-2.22,1-3.35"/><path class="cls-48" d="M105.18,79a14,14,0,0,0-1.74,4.91c-.08.73,0,1.48-.17,2.21-.24,1.36-1,2.55-1.09,3.94-.05,1.17.44,2.26.29,3.43-.12,1-.71,2-.52,2.91.06.32.21.59.25.92a6.57,6.57,0,0,1-.33,1.78c-.21,1.15.29,2.29.16,3.45-.07.59-.29,1.29,0,1.71a1,1,0,0,0,.39.28,1.9,1.9,0,0,0,1.74.18c.75-.42,1.11-1.71,1.08-2.82s-.35-2.12-.49-3.2a20.77,20.77,0,0,1,0-4,24.62,24.62,0,0,1,.29-2.84c.09-.55.23-1.1.28-1.66.12-1.14-.1-2.29.06-3.43.2-1.47,1-2.72,1.27-4.17a5.74,5.74,0,0,0-.23-3c-.14-.36-.41-.72-.69-.57"/><path class="cls-48" d="M110.46,84.72a8,8,0,0,0-1.79,4.65,9.87,9.87,0,0,1-.11,1.44c-.24,1.22-1.2,2.23-1.3,3.46s.78,2.52,1,3.83c.24,1.62-.55,3.43.3,4.82l1.5-1a1.29,1.29,0,0,0,.4-.37,1,1,0,0,0,.12-.39c.32-2-.78-4-.56-6a19.75,19.75,0,0,0,.54-3.21c0-.56-.21-1.11-.23-1.67,0-1.73,1.41-3.08,2.18-4.63a2.35,2.35,0,0,0,.31-1.23,1.07,1.07,0,0,0-.74-1c-.57-.14-1.11.38-1.29.94"/></g><circle class="cls-46" cx="96.28" cy="83.31" r="0.46"/><circle class="cls-46" cx="95.35" cy="83.96" r="0.31"/><path class="cls-50" d="M42,81.54a3.64,3.64,0,0,0-5.31.3,4.62,4.62,0,0,0-1.13,3.89,6.47,6.47,0,0,0,3.23,4.78,2.6,2.6,0,0,0,2,.34,3.37,3.37,0,0,1,1.81.07,3.35,3.35,0,0,0,2.66-.33,6.68,6.68,0,0,0,3.35-4.08,4.64,4.64,0,0,0-.72-4.25,3.86,3.86,0,0,0-5.54-.74C42.22,81.62,42.11,81.69,42,81.54Z"/><path class="cls-51" d="M42.78,81.91A3.53,3.53,0,0,0,46,78.34c0-.14,0-.18-.17-.17a3.81,3.81,0,0,0-3.67,3.57c0,.12,0,.18.15.18Z"/><path class="cls-52" d="M42,82.29c.13.14.24.07.35,0a1,1,0,0,1,0-.38A5.38,5.38,0,0,0,42,79.22c-.06-.16-.14-.22-.3-.18l-.17,0c-.29.1-.3.16-.09.38A2.23,2.23,0,0,1,42.05,81,4.8,4.8,0,0,1,42,82.29Z"/><circle class="cls-53" cx="38.42" cy="82.01" r="0.88"/><circle class="cls-53" cx="37.51" cy="83.27" r="0.4"/><path class="cls-50" d="M56.45,83.18a3.13,3.13,0,0,0-4.57.25,4,4,0,0,0-1,3.34,5.53,5.53,0,0,0,2.78,4.12,2.25,2.25,0,0,0,1.72.29,2.92,2.92,0,0,1,1.55.06A2.91,2.91,0,0,0,59.25,91a5.75,5.75,0,0,0,2.88-3.51,4,4,0,0,0-.62-3.65,3.31,3.31,0,0,0-4.76-.64C56.65,83.24,56.56,83.31,56.45,83.18Z"/><path class="cls-51" d="M57.14,83.49a3,3,0,0,0,2.77-3.07c0-.12,0-.15-.15-.15a3.28,3.28,0,0,0-3.15,3.08c0,.1,0,.15.13.15Z"/><path class="cls-52" d="M56.42,83.82c.11.12.21.06.3,0a.91.91,0,0,1,0-.33,4.48,4.48,0,0,0-.31-2.29c0-.14-.12-.19-.26-.16l-.14,0c-.25.09-.26.13-.08.32a1.92,1.92,0,0,1,.55,1.32A4.24,4.24,0,0,1,56.42,83.82Z"/><circle class="cls-53" cx="53.39" cy="83.58" r="0.76"/><circle class="cls-53" cx="52.6" cy="84.66" r="0.34"/><path class="cls-54" d="M49.33,87.66a3.75,3.75,0,0,0-5.46.43,4.77,4.77,0,0,0-1.06,4A6.64,6.64,0,0,0,46.25,97a2.64,2.64,0,0,0,2.07.3,3.56,3.56,0,0,1,1.86,0,3.45,3.45,0,0,0,2.73-.41,6.83,6.83,0,0,0,3.33-4.28,4.75,4.75,0,0,0-.84-4.35,4,4,0,0,0-5.72-.62C49.57,87.73,49.46,87.81,49.33,87.66Z"/><path class="cls-51" d="M50.16,88a3.64,3.64,0,0,0,3.22-3.76c0-.14-.05-.17-.19-.16a3.91,3.91,0,0,0-3.67,3.76c0,.13,0,.19.16.18A3.54,3.54,0,0,0,50.16,88Z"/><path class="cls-52" d="M49.31,88.42c.14.15.25.07.36,0a.9.9,0,0,1,0-.4,5.58,5.58,0,0,0-.43-2.73.25.25,0,0,0-.32-.17l-.17,0c-.3.12-.31.17-.09.39a2.36,2.36,0,0,1,.71,1.56A5,5,0,0,1,49.31,88.42Z"/><circle class="cls-55" cx="45.68" cy="88.23" r="0.91"/><circle class="cls-55" cx="44.77" cy="89.54" r="0.41"/><path class="cls-56" d="M34.72,87.12a3.74,3.74,0,0,0-5.43.65,4.78,4.78,0,0,0-.91,4.07A6.65,6.65,0,0,0,32,96.53a2.65,2.65,0,0,0,2.08.22,3.56,3.56,0,0,1,1.86,0,3.42,3.42,0,0,0,2.71-.51,6.83,6.83,0,0,0,3.16-4.4,4.74,4.74,0,0,0-1-4.32,4,4,0,0,0-5.74-.39C35,87.19,34.86,87.27,34.72,87.12Z"/><path class="cls-51" d="M35.56,87.44a3.62,3.62,0,0,0,3.07-3.87c0-.14-.05-.18-.19-.17a3.92,3.92,0,0,0-3.52,3.91c0,.13,0,.19.16.18A3,3,0,0,0,35.56,87.44Z"/><path class="cls-52" d="M34.74,87.89c.14.14.25.06.35,0a.86.86,0,0,1,0-.39,5.67,5.67,0,0,0-.54-2.72c-.08-.15-.17-.21-.33-.16l-.17.05c-.29.13-.3.19-.07.4a2.31,2.31,0,0,1,.77,1.52A5.55,5.55,0,0,1,34.74,87.89Z"/><circle class="cls-57" cx="31.1" cy="87.84" r="0.91"/><circle class="cls-57" cx="30.24" cy="89.19" r="0.41"/><path class="cls-35" d="M24.51,85c0-.31.51-.25.9-.31s.66-.08.79.27.78.65,1.34,1.76S29.46,94,23.49,99.06s-10.42,4-12.92,1.73A9.64,9.64,0,0,1,9.46,99a4,4,0,0,0-.85-1,1.29,1.29,0,0,0-.83-.29.45.45,0,0,1-.43-.52c0-.17.23-.33.35-.67.22-.61.56-1.23,1.25-.35s1.35.67,2,.78a9.29,9.29,0,0,0,8.72-2.31c3.5-3.34,2.63-5.14,4.22-8A3.53,3.53,0,0,0,24.51,85Z"/><path class="cls-40" d="M25.41,84.66c.39,0,.66-.08.79.27s.78.65,1.34,1.76S29.46,94,23.49,99.06s-10.42,4-12.92,1.73A9.64,9.64,0,0,1,9.46,99a4,4,0,0,0-.85-1,1.29,1.29,0,0,0-.83-.29.45.45,0,0,1-.43-.52,1.38,1.38,0,0,1,.35-.67c.74-.89.4-.23,1.31.43,1.93,1.39,7.76,3.13,11.88-1.11C26.05,90.51,25,84.72,25.41,84.66Z"/><path class="cls-37" d="M26,84.86c.06-.29-.32-.25-.63-.21s-.69,0-.71.24c0,0,0,.13.19.12S26,85,26,84.86Z"/><path class="cls-35" d="M51.87,92.36c.21-.23.55.12.9.31s.57.33.46.69a11.86,11.86,0,0,1,0,2.21c-.23,1.22-3,7-10.76,7.34S31.75,99.73,31.17,96.4a9.65,9.65,0,0,1,.21-2.1A3.66,3.66,0,0,0,31.33,93a1.26,1.26,0,0,0-.48-.74.47.47,0,0,1,0-.68c.13-.12.39-.12.69-.31.55-.35,1.2-.64,1.21.48s.66,1.35,1.14,1.86a9.28,9.28,0,0,0,8.32,3.49c4.8-.51,5.22-2.47,8.24-3.78A3.71,3.71,0,0,0,51.87,92.36Z"/><path class="cls-40" d="M52.77,92.67c.34.19.57.33.46.69a11.86,11.86,0,0,1,0,2.21c-.23,1.22-3,7-10.76,7.34S31.75,99.73,31.17,96.4a9.65,9.65,0,0,1,.21-2.1A3.66,3.66,0,0,0,31.33,93a1.26,1.26,0,0,0-.48-.74.47.47,0,0,1,0-.68,1.48,1.48,0,0,1,.69-.31c1.13-.26.46.06.78,1.13.68,2.28,4.24,7.22,10.09,6.37C49.7,97.69,52.42,92.48,52.77,92.67Z"/><path class="cls-37" d="M53.14,93.21c.22-.2-.1-.41-.37-.56s-.55-.42-.71-.24c0,0-.09.09.07.21S53,93.3,53.14,93.21Z"/><path class="cls-4" d="M88,85.87s-.47-4,6.32-3.84C94.33,82,93.55,88.55,88,85.87Z"/><path class="cls-58" d="M93.35,82.72a8.62,8.62,0,0,0-1.5.36,9.52,9.52,0,0,0-1.44.6c-.23.12-.45.25-.67.39a6.59,6.59,0,0,0-1.2,1,4.61,4.61,0,0,0-.46.63,5.64,5.64,0,0,1,.53-.56c.19-.17.39-.33.59-.49a9.59,9.59,0,0,1,1.3-.79l.69-.33c.23-.11.47-.2.71-.3C92.37,83,92.86,82.87,93.35,82.72Z"/><circle class="cls-59" cx="86.84" cy="92.49" r="6.38" transform="translate(-24.67 152.98) rotate(-75.28)"/><ellipse class="cls-60" cx="87.63" cy="86.86" rx="0.34" ry="1.21" transform="translate(-11.02 160.98) rotate(-81.67)"/><path class="cls-61" d="M87.07,84a2.42,2.42,0,0,1,.42,2.61.19.19,0,0,0,.27.24h0s.79-.83-.12-3.11l-.08-.12a.41.41,0,0,0-.38-.1A.3.3,0,0,0,87.07,84Z"/><circle class="cls-62" cx="89.96" cy="87.91" r="0.53"/><circle class="cls-62" cx="91.08" cy="88.74" r="0.3"/><circle class="cls-59" cx="69.17" cy="91.86" r="5.47"/><ellipse class="cls-60" cx="69.25" cy="87.01" rx="0.27" ry="1.07" transform="matrix(0.04, -1, 1, 0.04, -20.5, 152.68)"/><path class="cls-61" d="M68.38,84.6A2.08,2.08,0,0,1,69,86.77a.16.16,0,0,0,.26.17h0s.57-.8-.47-2.63a.24.24,0,0,0-.08-.09.32.32,0,0,0-.33,0A.25.25,0,0,0,68.38,84.6Z"/><circle class="cls-62" cx="71.41" cy="87.64" r="0.45"/><circle class="cls-62" cx="72.23" cy="88.25" r="0.26"/><path class="cls-4" d="M60.23,88.67s1.52-3.4-4.47-5.09C55.76,83.58,54.66,89.49,60.23,88.67Z"/><path class="cls-58" d="M56.43,84.45a8.27,8.27,0,0,1,1.21.73,8.62,8.62,0,0,1,1.09.91c.17.17.33.35.49.53a6,6,0,0,1,.42.57,6.37,6.37,0,0,1,.35.63,4.8,4.8,0,0,1,.23.67c-.1-.22-.2-.43-.31-.63s-.25-.4-.38-.59a10.17,10.17,0,0,0-.92-1c-.17-.17-.34-.32-.51-.48l-.54-.45C57.19,85,56.82,84.72,56.43,84.45Z"/><circle class="cls-63" cx="59.44" cy="94.77" r="5.85" transform="translate(-36.25 152.72) rotate(-89.11)"/><ellipse class="cls-60" cx="60.22" cy="89.64" rx="0.28" ry="1.14" transform="translate(-35.96 138.73) rotate(-83.14)"/><path class="cls-61" d="M61.57,87.26a2.24,2.24,0,0,0-1.09,2.17.16.16,0,0,1-.29.13h0s-.46-.94,1-2.69a.31.31,0,0,1,.11-.08.32.32,0,0,1,.35,0A.27.27,0,0,1,61.57,87.26Z"/><circle class="cls-62" cx="57.83" cy="89.88" r="0.5"/><circle class="cls-62" cx="56.89" cy="90.42" r="0.3"/><path class="cls-4" d="M77,89s1.1-3.55-5-4.52C72,84.45,71.57,90.45,77,89Z"/><path class="cls-58" d="M72.72,85.24a7.94,7.94,0,0,1,1.3.58,10.14,10.14,0,0,1,1.19.78c.18.14.37.3.54.46a4.85,4.85,0,0,1,.49.52,5.06,5.06,0,0,1,.42.58,3.44,3.44,0,0,1,.31.64,6.1,6.1,0,0,0-.38-.6c-.14-.18-.29-.36-.45-.53a8.33,8.33,0,0,0-1-.93c-.18-.15-.37-.28-.57-.42s-.38-.26-.58-.38C73.55,85.69,73.14,85.46,72.72,85.24Z"/><circle class="cls-64" cx="76.95" cy="95.12" r="5.85" transform="translate(-21.74 167.44) rotate(-87.26)"/><ellipse class="cls-60" cx="77.11" cy="89.93" rx="1.14" ry="0.28"/><path class="cls-61" d="M78.17,87.42a2.21,2.21,0,0,0-.82,2.28.17.17,0,0,1-.28.17h0s-.57-.88.63-2.78a.22.22,0,0,1,.1-.09.33.33,0,0,1,.35,0A.28.28,0,0,1,78.17,87.42Z"/><circle class="cls-62" cx="74.76" cy="90.46" r="0.5"/><circle class="cls-62" cx="73.9" cy="91.11" r="0.3"/></g></svg>