<svg xmlns="http://www.w3.org/2000/svg" viewBox="0 0 223.48 212.64"><defs><style>.cls-1{fill:#fcee21;}</style></defs><title>06_twinkles_line</title><g id="star02"><path class="cls-1" d="M90.84,89.29c-2.13-3.12-4.08-6.33-6-9.57s-3.7-6.53-5.48-9.83-3.48-6.65-5.1-10-3.21-6.79-4.6-10.3c2.13,3.11,4.08,6.32,6,9.57s3.7,6.53,5.48,9.83,3.47,6.65,5.09,10S89.44,85.78,90.84,89.29Z"/><path class="cls-1" d="M115.61,65.68c-.2-3.63-.3-7.25-.38-10.87s-.1-7.25-.12-10.87,0-7.25.12-10.88l.14-5.43c.08-1.81.13-3.62.24-5.44.12,1.82.16,3.63.25,5.44l.14,5.43c.09,3.63.1,7.25.11,10.88s0,7.24-.11,10.87S115.82,62.05,115.61,65.68Z"/><path class="cls-1" d="M99,61.42c-2.26-4.93-4.23-9.94-6.11-15-1-2.52-1.83-5.07-2.74-7.6l-2.58-7.66-2.42-7.7c-.76-2.58-1.56-5.15-2.27-7.75C81.4,10.53,80,5.31,79,0c2.26,4.92,4.23,9.94,6.11,15,1,2.52,1.83,5.07,2.74,7.6l2.57,7.66L92.81,38c.76,2.58,1.56,5.15,2.27,7.75C96.53,50.89,97.89,56.11,99,61.42Z"/><path class="cls-1" d="M140.77,74.19a69.47,69.47,0,0,1,3.13-8.5c1.18-2.77,2.49-5.47,3.87-8.13s2.85-5.27,4.45-7.81a68,68,0,0,1,5.2-7.43,68,68,0,0,1-3.12,8.51c-1.18,2.77-2.49,5.47-3.87,8.12s-2.86,5.27-4.46,7.82A68.81,68.81,0,0,1,140.77,74.19Z"/><path class="cls-1" d="M166.71,110.58c2.64-1.14,5.34-2.09,8.06-3s5.45-1.67,8.2-2.44,5.52-1.42,8.31-2,5.6-1.13,8.46-1.47c-2.64,1.14-5.34,2.09-8.05,3s-5.46,1.68-8.2,2.43-5.53,1.43-8.32,2S169.57,110.24,166.71,110.58Z"/><path class="cls-1" d="M149.29,165.16a116.72,116.72,0,0,1,8.23,8.43c1.33,1.44,2.58,2.95,3.86,4.43l3.73,4.53q3.66,4.57,7.06,9.36a113.19,113.19,0,0,1,6.41,9.9c-2.93-2.67-5.62-5.52-8.24-8.43s-5.14-5.9-7.58-9l-3.59-4.63c-1.16-1.58-2.36-3.13-3.47-4.74A117,117,0,0,1,149.29,165.16Z"/><path class="cls-1" d="M87.74,164.77c-3.24,4.42-6.7,8.63-10.24,12.76-1.75,2.09-3.57,4.11-5.36,6.16l-5.49,6L61,195.66c-1.91,1.94-3.78,3.91-5.73,5.81-3.86,3.84-7.8,7.61-12,11.17,3.25-4.41,6.71-8.62,10.24-12.76,1.75-2.09,3.58-4.1,5.37-6.15l5.49-6,5.61-5.93c1.91-1.94,3.78-3.91,5.73-5.81C79.65,172.11,83.59,168.34,87.74,164.77Z"/><path class="cls-1" d="M114.45,161.29c.38,2.82.57,5.64.68,8.46s.14,5.64.13,8.45-.13,5.64-.32,8.45-.43,5.63-.88,8.45c-.38-2.83-.57-5.65-.68-8.46s-.14-5.64-.12-8.46.13-5.63.32-8.45S114,164.1,114.45,161.29Z"/><path class="cls-1" d="M64.52,109.81c-5.39.54-10.77.79-16.15.94-2.69.1-5.38.09-8.07.13l-8.06,0-8.07-.19c-2.68-.12-5.37-.18-8.06-.36-5.37-.3-10.74-.7-16.11-1.4,5.39-.55,10.77-.8,16.15-.94,2.69-.1,5.37-.09,8.06-.14l8.07,0,8.06.19c2.69.12,5.38.19,8.06.36C53.78,108.71,59.15,109.11,64.52,109.81Z"/><path class="cls-1" d="M73.81,134.19C71,136.36,68,138.35,65,140.28s-6,3.79-9.05,5.61-6.14,3.56-9.27,5.23-6.29,3.3-9.56,4.75c2.84-2.16,5.79-4.16,8.77-6.09s6-3.79,9-5.61,6.14-3.56,9.28-5.23S70.54,135.64,73.81,134.19Z"/><path class="cls-1" d="M69.55,92.39C65.73,89.78,62,87,58.38,84.21s-7.25-5.69-10.82-8.6S40.48,69.71,37,66.67s-6.89-6.13-10.18-9.38c3.82,2.6,7.52,5.36,11.17,8.17s7.25,5.7,10.82,8.61S55.91,80,59.36,83,66.25,89.14,69.55,92.39Z"/><path class="cls-1" d="M153.16,92.77q6.15-6.15,12.55-12C170,76.8,174.29,73,178.63,69.12s8.75-7.59,13.21-11.29,9-7.34,13.58-10.86q-6.15,6.16-12.55,12c-4.25,3.93-8.58,7.78-12.92,11.61s-8.75,7.59-13.21,11.29S157.77,89.25,153.16,92.77Z"/><path class="cls-1" d="M156.26,136.9q8.67,3.85,17.16,8.06c5.68,2.77,11.3,5.64,16.91,8.54s11.18,5.88,16.71,8.94,11,6.17,16.44,9.43q-8.67-3.85-17.16-8.05c-5.68-2.77-11.3-5.65-16.91-8.55s-11.18-5.88-16.7-8.94S161.68,140.16,156.26,136.9Z"/></g></svg>