<svg xmlns="http://www.w3.org/2000/svg" viewBox="0 0 198.97 215.61"><defs><style>.cls-1{fill:#fcee21;}.cls-2{fill:none;stroke:#fcee21;stroke-miterlimit:10;}</style></defs><title>06_twinkles_line</title><g id="star02"><path class="cls-1" d="M74.32,87.1c-3.2-4.88-6.13-9.89-9-15-1.45-2.51-2.8-5.08-4.19-7.62l-4-7.71L53.22,49c-1.25-2.61-2.55-5.21-3.75-7.85-2.45-5.26-4.8-10.57-6.89-16,3.2,4.88,6.14,9.89,9,15,1.44,2.52,2.79,5.09,4.19,7.63l4,7.71,3.89,7.77c1.25,2.62,2.55,5.22,3.74,7.86C69.87,76.34,72.23,81.65,74.32,87.1Z"/><line class="cls-2" x1="99.1" y1="63.48" x2="99.1"/><path class="cls-1" d="M82.45,59.23c-.81-2-1.51-4-2.2-6s-1.33-4-2-6.06-1.21-4.08-1.73-6.13L75.78,38c-.23-1-.49-2.07-.68-3.12.41,1,.76,2,1.15,3l1,3c.7,2,1.33,4,2,6.07S80.45,51,81,53,82,57.13,82.45,59.23Z"/><path class="cls-1" d="M124.26,72c2-4.16,4-8.27,6.14-12.37s4.26-8.17,6.38-12.25,4.36-8.11,6.59-12.14l3.36-6c1.16-2,2.28-4,3.46-6-1,2.08-2,4.14-3,6.21l-3.12,6.16c-2.09,4.1-4.26,8.16-6.38,12.25S133.31,56,131.08,60,126.6,68,124.26,72Z"/><path class="cls-1" d="M150.19,108.39c3.91-1.7,7.89-3.11,11.89-4.42,2-.68,4-1.26,6-1.89l6.08-1.72c4.06-1.11,8.16-2.09,12.28-3s8.27-1.67,12.5-2.16c-3.9,1.7-7.88,3.11-11.89,4.42s-8,2.52-12.11,3.6l-6.12,1.57c-2,.47-4.09,1-6.16,1.4C158.57,107.11,154.42,107.89,150.19,108.39Z"/><path class="cls-1" d="M132.77,163c2.77,2.92,5.29,6,7.75,9.18s4.82,6.38,7,9.79c-2.76-2.92-5.28-6-7.75-9.18S134.91,166.37,132.77,163Z"/><path class="cls-1" d="M71.23,162.58c-2.06,2.68-4.27,5.22-6.52,7.71s-4.56,4.91-6.9,7.31-4.75,4.74-7.22,7-5,4.52-7.62,6.62c2.06-2.68,4.26-5.22,6.51-7.71s4.56-4.92,6.91-7.32,4.75-4.73,7.22-7S68.58,164.68,71.23,162.58Z"/><path class="cls-1" d="M97.94,159.1c.49,4.72.68,9.44.77,14.16.08,2.36,0,4.71.06,7.07l-.11,7.07-.27,7.06c-.15,2.35-.24,4.7-.45,7.06-.34,4.7-.8,9.4-1.55,14.09-.5-4.72-.7-9.44-.79-14.16-.07-2.36,0-4.71,0-7.07l.11-7.07.28-7.06c.14-2.35.24-4.71.44-7.06C96.73,168.49,97.19,163.79,97.94,159.1Z"/><path class="cls-1" d="M48,107.61c-2.78.35-5.56.5-8.34.59s-5.55.07-8.33,0-5.55-.18-8.32-.41-5.54-.49-8.3-1c2.78-.35,5.56-.51,8.34-.59s5.55-.07,8.33,0,5.54.19,8.32.41S45.24,107.13,48,107.61Z"/><path class="cls-1" d="M57.29,132c-4.46,3.34-9.07,6.43-13.73,9.42-2.32,1.53-4.69,3-7,4.43l-7.12,4.28-7.2,4.14c-2.43,1.33-4.83,2.71-7.28,4C10,160.88,5.09,163.41,0,165.68c4.46-3.35,9.07-6.44,13.73-9.43,2.32-1.52,4.69-2.95,7-4.43l7.13-4.27,7.2-4.14c2.43-1.34,4.83-2.71,7.29-4C47.26,136.8,52.2,134.27,57.29,132Z"/><path class="cls-1" d="M53,90.19a22.59,22.59,0,0,1-3.77-2,41.68,41.68,0,0,1-3.43-2.44A39.61,39.61,0,0,1,42.68,83a23,23,0,0,1-2.81-3.23,23.83,23.83,0,0,1,3.78,2,41.51,41.51,0,0,1,3.42,2.44A41.73,41.73,0,0,1,50.23,87,24.13,24.13,0,0,1,53,90.19Z"/><path class="cls-1" d="M136.64,90.58c2.26-2.13,4.59-4.17,6.92-6.2s4.71-4,7.09-6,4.79-3.92,7.23-5.82l3.67-2.84c1.25-.92,2.47-1.87,3.74-2.76-1.12,1.07-2.28,2.09-3.42,3.14l-3.5,3.06c-2.33,2-4.7,4-7.08,6s-4.8,3.92-7.24,5.81S139.16,88.77,136.64,90.58Z"/><path class="cls-1" d="M139.74,134.71c3.65,1.44,7.2,3,10.72,4.73s7,3.43,10.45,5.22,6.88,3.67,10.26,5.62,6.73,3.93,10,6.11c-3.64-1.44-7.2-3-10.72-4.73s-7-3.44-10.45-5.23-6.88-3.66-10.25-5.61S143,136.88,139.74,134.71Z"/></g></svg>