<svg id="Layer_3" data-name="Layer 3" xmlns="http://www.w3.org/2000/svg" viewBox="0 0 484.01 581.39">
  <defs>
    <style>
      .cls-1 {
        fill: #7b8fa4;
      }

      .cls-2 {
        fill: #c4cacf;
      }

      .cls-3 {
        fill: #73869c;
      }

      .cls-4 {
        fill: #c1c7ce;
      }

      .cls-5 {
        fill: #8497aa;
      }

      .cls-6 {
        fill: #d42327;
      }

      .cls-7 {
        fill: #f16635;
      }

      .cls-8 {
        fill: #fde500;
      }

      .cls-9 {
        fill: #71b34b;
      }

      .cls-10 {
        fill: #a2ddf7;
      }

      .cls-11 {
        fill: #488dcb;
      }

      .cls-12 {
        fill: #382f8d;
      }

      .cls-13 {
        fill: #4371b7;
      }

      .cls-14 {
        fill: #738191;
      }

      .cls-15 {
        fill: #4d5e70;
      }

      .cls-16 {
        fill: #fff;
      }

      .cls-17 {
        fill: #424a52;
      }

      .cls-18 {
        fill: #040507;
      }
    </style>
  </defs>
  <title>HappyHippoArmsOut</title>
  <g>
    <path class="cls-1" d="M1180.05,689.24c-.72,10.54-19.93,3.51-19.38,14.06-4.32-2.51-43.64-8.21-48.31-9.8a303.56,303.56,0,0,0-43.44-10.86,263.54,263.54,0,0,0-42.05-4.32,12.49,12.49,0,0,0-2.36.16c-7.7,1.37-13.5-4.17-12.47-12,.12-.88.54-1.7-.15-2.53-2.7-3.3-2.2-7.05-1.48-10.83,1.8-2.3,2.79-4.39,1.79-7.74a10.81,10.81,0,0,1,4-12.26c1.06-.79.86-1.54.71-2.56-1-6.87,2.34-10.69,9.34-10.63,6.69.06,12.25,3.37,17.65,6.74,7.78,4.85,15.32,10.07,23,15.1a68.15,68.15,0,0,0,7,3.38c13.06,5.2,26.13,10.37,38.93,16.21C1117.31,663.38,1175.23,688,1180.05,689.24Z" transform="translate(-1009.84 -461.86)"/>
    <path class="cls-2" d="M1037.78,663.06c1.92,2.83,1.82,5.65-.56,7-5.7,3.25-11.91,4.51-18.29,2.48-4-1.25-4.71-3.52-4.09-9.22.36-3.3,2-5.2,5.64-5.49a24.43,24.43,0,0,1,16.17,4.14A6.65,6.65,0,0,1,1037.78,663.06Z" transform="translate(-1009.84 -461.86)"/>
    <path class="cls-2" d="M1038.6,646.66c2.49,3.79,1.34,7-2.84,8.24a24.92,24.92,0,0,1-14.71-.16c-4.51-1.42-6.22-5.31-4.87-10.64,1-3.77,3.68-5.12,8.46-4.23a31.44,31.44,0,0,1,11.12,4.1A7.86,7.86,0,0,1,1038.6,646.66Z" transform="translate(-1009.84 -461.86)"/>
    <path class="cls-2" d="M1040.9,632.76c.78,1.41,1.78,3.3.53,5.42-1.13,1.91-3.12,1.59-4.83,1.44a101.1,101.1,0,0,1-11.53-1.41,7.18,7.18,0,0,1-4.8-10.49,4.38,4.38,0,0,1,3.2-2.41C1028.8,624.17,1037.61,627.73,1040.9,632.76Z" transform="translate(-1009.84 -461.86)"/>
  </g>
  <g>
    <path class="cls-1" d="M1391.47,695.43c14-1.1,28.08-1.49,42.13-1.89a68.09,68.09,0,0,0,7.75-.78c8.92-2.11,17.79-4.43,26.75-6.33,6.23-1.31,12.59-2.52,18.9-.28,6.6,2.34,8.42,7.07,5.13,13.18-.49.91-.94,1.54-.21,2.65a10.8,10.8,0,0,1-.42,12.9c-2.09,2.8-1.87,5.11-1,7.88-.61,3.8-1.43,7.49-5.1,9.67-.92.55-.81,1.46-1,2.33-1.72,7.71-9.06,10.94-15.83,7a12.78,12.78,0,0,0-2.17-1,263.37,263.37,0,0,0-41-10.33,300.89,300.89,0,0,0-44.52-4.67c-4.93-.11-51.5-.19-56.42.69,4.13-9.72-8.65-17.72-5.73-27.87C1323.72,699.13,1386.58,695.82,1391.47,695.43Z" transform="translate(-1009.84 -461.86)"/>
    <path class="cls-2" d="M1461.41,722.74c-2.77,2-3.64,4.68-1.87,6.77,4.24,5,9.65,8.32,16.34,8.6,4.14.18,5.62-1.69,7-7.26.79-3.23-.1-5.58-3.42-7.09a24.4,24.4,0,0,0-16.61-1.65A6.71,6.71,0,0,0,1461.41,722.74Z" transform="translate(-1009.84 -461.86)"/>
    <path class="cls-2" d="M1466.26,707.05c-3.64,2.71-3.66,6.14-.16,8.71a24.92,24.92,0,0,0,13.88,4.89c4.72.21,7.66-2.86,8.22-8.33.39-3.87-1.71-6.07-6.5-6.87a31.33,31.33,0,0,0-11.86,0A7.76,7.76,0,0,0,1466.26,707.05Z" transform="translate(-1009.84 -461.86)"/>
    <path class="cls-2" d="M1468.85,693.2c-1.21,1.06-2.8,2.49-2.35,4.91.41,2.18,2.39,2.56,4,3a100.83,100.83,0,0,0,11.32,2.62,7.17,7.17,0,0,0,8.1-8.21,4.36,4.36,0,0,0-2.18-3.36C1483.16,689.27,1473.66,689.6,1468.85,693.2Z" transform="translate(-1009.84 -461.86)"/>
  </g>
  <g>
    <path class="cls-3" d="M1118.75,666.84l-.94-1.14C1118.48,665.79,1118.71,666.23,1118.75,666.84Z" transform="translate(-1009.84 -461.86)"/>
    <path class="cls-3" d="M1119.89,668.13l-.67-.66Z" transform="translate(-1009.84 -461.86)"/>
    <g>
      <path class="cls-3" d="M1138.84,937.41a98.58,98.58,0,0,1,2.47-20.1c.73-3.2,1.66-6.48,3.74-9,2.8-3.42,7.26-5,11.59-5.88a33.88,33.88,0,0,1,14-.29,19.21,19.21,0,0,1,11.68,7.27c3.42,4.82,3.84,11.08,4.14,17l1.32,25.89c.27,5.26-1.34,9-2.56,13.93a36,36,0,0,0-.14,16.14,30.51,30.51,0,0,1-.31,11.7c-1.38,7.6-.74,15.15.7,22.69.87,4.6.13,9.21-.35,13.8a2.29,2.29,0,0,1-1.08,2.06,54.81,54.81,0,0,1-30.71,5.8,71.91,71.91,0,0,1-19.9-4.42,19.64,19.64,0,0,1-2.19-1c-6.89-3.68-7.92-6.07-6-13.56a42.11,42.11,0,0,1,9.09-17.78,4.09,4.09,0,0,0,1.1-3.51c-.82-8.2-.11-16.26,3.31-23.86,3.16-7,1.93-14.14,1-21.31A103.88,103.88,0,0,1,1138.84,937.41Z" transform="translate(-1009.84 -461.86)"/>
      <path class="cls-4" d="M1164.81,1037.72c-3.28-.27-6.12-2.19-6.08-6a26.68,26.68,0,0,1,4.92-14.91c1.31-1.93,3.21-3.45,5.8-3.07s3.79,2.54,4.34,4.84c.89,3.71,1.66,7.6,1.1,11.43-.37,2.51-1.1,5.21-3.41,6.5A11.57,11.57,0,0,1,1164.81,1037.72Z" transform="translate(-1009.84 -461.86)"/>
      <path class="cls-4" d="M1157.59,1020.65a21.67,21.67,0,0,1-1.34,8.88,8.57,8.57,0,0,1-10.9,5.29,8.69,8.69,0,0,1-2.26-1.18c-2.51-1.75-2.94-4.31-2.28-7a33.63,33.63,0,0,1,5.79-12.16,9.06,9.06,0,0,1,3.21-2.69c3.16-1.57,5.94-.44,7.23,2.89C1157.8,1016.65,1157.49,1018.66,1157.59,1020.65Z" transform="translate(-1009.84 -461.86)"/>
      <path class="cls-4" d="M1142.38,1012.41c-1.11,4.08-1.44,8.82-3.11,13.24-1.43,3.77-4.89,4.92-9.58,3.37-2.64-.87-3.79-3.66-3.06-7.22a21.23,21.23,0,0,1,6.57-11.55,7.84,7.84,0,0,1,5.37-2.36C1141.41,1007.87,1142.56,1009.06,1142.38,1012.41Z" transform="translate(-1009.84 -461.86)"/>
    </g>
    <g>
      <path class="cls-3" d="M1259.06,943.72a98.59,98.59,0,0,1,.86-20.24c.48-3.25,1.14-6.59,3-9.28,2.52-3.64,6.84-5.56,11.09-6.79a34,34,0,0,1,13.91-1.41,19.22,19.22,0,0,1,12.22,6.32c3.8,4.53,4.72,10.74,5.49,16.6q1.69,12.86,3.38,25.71c.69,5.22-.62,9-1.44,14.09a36.1,36.1,0,0,0,1.14,16.1,30.44,30.44,0,0,1,.62,11.68c-.77,7.69.47,15.17,2.5,22.57,1.25,4.52.87,9.17.76,13.79a2.32,2.32,0,0,1-.91,2.13,55,55,0,0,1-30.15,8.24,72.19,72.19,0,0,1-20.19-2.83,20.33,20.33,0,0,1-2.26-.82c-7.17-3.12-8.38-5.42-7-13a42,42,0,0,1,7.63-18.45,4.05,4.05,0,0,0,.82-3.59c-1.46-8.11-1.4-16.19,1.41-24,2.59-7.24.79-14.25-.73-21.32A105.27,105.27,0,0,1,1259.06,943.72Z" transform="translate(-1009.84 -461.86)"/>
      <path class="cls-4" d="M1292.94,1041.61c-3.29,0-6.27-1.7-6.54-5.49a26.78,26.78,0,0,1,3.73-15.26c1.14-2,2.91-3.68,5.53-3.52s4,2.23,4.71,4.48c1.19,3.63,2.26,7.44,2,11.3-.17,2.53-.69,5.29-2.88,6.76A11.62,11.62,0,0,1,1292.94,1041.61Z" transform="translate(-1009.84 -461.86)"/>
      <path class="cls-4" d="M1284.39,1025.22a21.88,21.88,0,0,1-.62,9,8.57,8.57,0,0,1-10.44,6.16,8.81,8.81,0,0,1-2.36-1c-2.64-1.54-3.27-4.06-2.83-6.78a33.31,33.31,0,0,1,4.8-12.58,9.07,9.07,0,0,1,3-2.94c3-1.82,5.89-.91,7.44,2.3C1284.28,1021.21,1284.13,1023.24,1284.39,1025.22Z" transform="translate(-1009.84 -461.86)"/>
      <path class="cls-4" d="M1268.57,1018.22c-.78,4.15-.73,8.91-2,13.44-1.13,3.88-4.49,5.29-9.29,4.13-2.69-.66-4.07-3.35-3.62-7a21.24,21.24,0,0,1,5.63-12,7.9,7.9,0,0,1,5.17-2.78C1267.24,1013.77,1268.49,1014.86,1268.57,1018.22Z" transform="translate(-1009.84 -461.86)"/>
    </g>
    <path class="cls-5" d="M1357,822.87c-1.42-13.56-3-27.09-4.62-40.63-1.44-12.34-21.76-136.48-22.93-136.35l-166.88,18-34,75.7c-.46,1.11-.91,2.23-1.36,3.34-8.07,19.68-16.54,39.2-22.41,59.71a165.79,165.79,0,0,0-6.81,42.65,111.66,111.66,0,0,0,5.22,35c6.67,21.53,17,40.71,34.53,55.48a2.55,2.55,0,0,1,1.11,1.7c3.51.95,5.8,3.8,8.74,5.65,11.91,7.52,24.88,12.28,38.53,15.4.59.13,1.21.11,1.58.71,4.13-.06,8.08,1.25,12.14,1.65,10.75,1.06,21.53,1.85,32.32,2.19,26.63.84,55.55-.28,79.19-14.15a92.38,92.38,0,0,0,16.53-12c20.52-19.13,29.54-43.44,31.67-70.76C1360.7,851.58,1358.51,837.23,1357,822.87Z" transform="translate(-1009.84 -461.86)"/>
    <g>
      <path class="cls-6" d="M1115.43,723.79c-25.9-49.28,5.1-116.84,70.8-151.38s134.93-22.91,160.84,26.37-4.9,112.14-70.59,146.68S1141.34,773.07,1115.43,723.79Z" transform="translate(-1009.84 -461.86)"/>
      <path class="cls-7" d="M1126.12,717.81c-23.5-44.7,4.62-106,64.21-137.3s123.5-15.44,145.88,23.91c25,43.89-4.44,101.72-64,133S1149.62,762.5,1126.12,717.81Z" transform="translate(-1009.84 -461.86)"/>
      <path class="cls-8" d="M1136.13,713.3c-21.35-40.59,4.2-96.24,58.31-124.69s109.29-17.52,133,23.48c22.92,39.72-5.73,92.08-59.85,120.53S1157.47,753.9,1136.13,713.3Z" transform="translate(-1009.84 -461.86)"/>
      <path class="cls-9" d="M1144.37,708.72c-19.48-37.06,3.83-87.86,53.24-113.83s100.35-15.68,119.84,21.38-2.58,82.77-52,108.74S1163.85,745.72,1144.37,708.72Z" transform="translate(-1009.84 -461.86)"/>
      <path class="cls-10" d="M1154.87,702.81c-20.73-36.62,3.36-77.18,46.76-100s88.66-13.31,105.78,19.25-2.76,72.25-46.16,95.07S1173,734.82,1154.87,702.81Z" transform="translate(-1009.84 -461.86)"/>
      <path class="cls-11" d="M1164,698c-15-28.54,3.22-68.1,41.26-88.1s78.13-13.27,93.13,15.27-2.27,67.54-40.32,87.54S1179,726.54,1164,698Z" transform="translate(-1009.84 -461.86)"/>
      <path class="cls-12" d="M1172.86,692.72c-17.25-22,2.56-58.89,35.68-76.29s66-9.89,79,15-2.39,59-35.5,76.42S1186.07,709.6,1172.86,692.72Z" transform="translate(-1009.84 -461.86)"/>
      <path class="cls-5" d="M1180.92,688.24c-14.79-18.86,2.2-50.48,30.59-65.41s56.57-8.47,67.76,12.82-2,50.59-30.43,65.52S1192.25,702.72,1180.92,688.24Z" transform="translate(-1009.84 -461.86)"/>
    </g>
    <path class="cls-5" d="M1259.36,695.58c-7,4.58-14.79,7.08-22.87,8.63-10.76,2.06-21.45,1.78-31.86-2.12a6,6,0,0,1-1-.59c17.72.24,35.15-2.24,52.48-5.68A15.38,15.38,0,0,1,1259.36,695.58Z" transform="translate(-1009.84 -461.86)"/>
    <path class="cls-13" d="M1165.36,696.72l-.48-.54Z" transform="translate(-1009.84 -461.86)"/>
    <path class="cls-14" d="M1166.91,507.09c-1.54,1.82-3.06,3.66-4.51,5.55a2,2,0,0,1-.55.56c-.67.42-1.64-.51-2.19-.87-.73-.47-1.44-1-2.14-1.49a39.15,39.15,0,0,1-3.8-3.26,32.25,32.25,0,0,1-8.54-14.58,35.48,35.48,0,0,1-.16-16.8c1.65-7.39,10.44-14,18-14.33,9.83-.4,16.47,8,13.93,17.72a21.28,21.28,0,0,1-1.89,5,25.75,25.75,0,0,0-3.06,16.13c.13,1.06-1.29,2.1-1.94,2.85l-2.63,3Z" transform="translate(-1009.84 -461.86)"/>
    <path class="cls-14" d="M1298.47,500.72c-1.89-.79-3.71-1.66-4.32-3.88,2.84-14.83,14.83-23.52,27.29-25.78,7.41-1.35,17.87,5,20.67,12a13.54,13.54,0,0,1-7.32,17.71,12.17,12.17,0,0,1-1.32.47,17.47,17.47,0,0,1-7.35.92c-7.66-1-14.34,1.13-20.37,5.73-1.79-.14-2-1.93-3-2.89a45.06,45.06,0,0,1,20.09-14.2,9.5,9.5,0,0,0-3.83,0A39,39,0,0,0,1298.47,500.72Z" transform="translate(-1009.84 -461.86)"/>
    <path class="cls-3" d="M1334.5,629.59c0,6.14-1.7,11.9-3.9,17.55-.53,1.38-1,2.79-1.52,4.18a112,112,0,0,1-13.83,17.82c-4.68,3.48-9.24,7.13-14.19,10.24-6.16,3-12.15,6.31-18.59,8.67-7.5,3.13-15.55,4.57-23.11,7.53a15.93,15.93,0,0,0-3.23.24c-17.33,3.44-34.76,5.92-52.48,5.68-7,.14-14-.74-21-1.5l-3.16-.62-14.13-2.66h0l-.48-.54a126,126,0,0,1-13.85-4.81l-13.71-7.4-9.51-7.09c-2.55-3-5.94-5.29-8-8.78.91-.13,1.46.45,2,1,14,13.38,31.16,20.1,49.69,24a142.59,142.59,0,0,0,26.87,2.53c6.93.13,13.88.16,20.75-.27a212.73,212.73,0,0,0,38.08-5.62,141.08,141.08,0,0,0,45.65-19.67,107.44,107.44,0,0,0,25.1-23.46,30.61,30.61,0,0,0,5.84-15.1A3.1,3.1,0,0,1,1334.5,629.59Z" transform="translate(-1009.84 -461.86)"/>
    <path class="cls-15" d="M1246.1,585.72c11-.51,20.89,11.49,18.2,21.43a11.33,11.33,0,0,1-3.64,5.72c-5,4.2-10.64,6.55-17.26,6.12a11.69,11.69,0,0,1-2.34-.4c-7.41-2.06-14.67-13-14-21.35.47-5.92,4.1-8.44,10.2-7.4a30.69,30.69,0,0,1,13.22,5.94,6.26,6.26,0,0,1,2.39,6.89c-.67,2.93-1.88,5.48-5.08,6.43-.47.14-1,.4-1.4,0s0-.9.18-1.32a2.15,2.15,0,0,1,.14-.26c1.81-3.15,2.66-6.54,0-9.43-2.84-3.09-6.79-3.64-10.78-2.72s-5.6,4.57-3.8,9c2.35,5.78,7.36,7.8,12.95,8.69,4.87.78,8.79-.86,11.36-5.29,2.67-4.62,2.41-9.08-.56-13.42A26.91,26.91,0,0,0,1246.1,585.72Z" transform="translate(-1009.84 -461.86)"/>
    <path class="cls-15" d="M1141.2,612.23c-3.23,0-5.08-1.73-6.12-4.38-1.15-2.93-1.45-6,1.08-8.33a25.21,25.21,0,0,1,16.52-6.64c4.58-.13,7.12,2.67,7.35,7.24.38,7.69-3,13.74-8.6,18.51-6.2,5.3-15.81,4-23.35-1.73-9.31-7.1-4.64-19.49,1.7-24.46a16.28,16.28,0,0,1,11.54-3.81,33.72,33.72,0,0,0-9.29,7.82,12.43,12.43,0,0,0,1,17,9.51,9.51,0,0,0,8.21,2.66c6.13-.69,11.43-2.79,14-9,1.87-4.62-.2-8.3-5.15-8.83-3.79-.4-7.62.22-9.94,3.51-2.18,3.11-1.16,6.47.83,9.5A3.39,3.39,0,0,1,1141.2,612.23Z" transform="translate(-1009.84 -461.86)"/>
    <path class="cls-15" d="M1242.06,512.25c2.63-7,6.51-13.1,14.41-14.74,7.23-1.5,13,1.93,17.79,6.95a25.48,25.48,0,0,1,6.23,10.1c-5.07-5.74-10.66-10.66-18.66-11.22S1247.53,506.61,1242.06,512.25Z" transform="translate(-1009.84 -461.86)"/>
    <path class="cls-15" d="M1298.47,500.72a39,39,0,0,1,20.57-9.93,9.5,9.5,0,0,1,3.83,0,45.06,45.06,0,0,0-20.09,14.2C1301.24,503.72,1299.52,502.56,1298.47,500.72Z" transform="translate(-1009.84 -461.86)"/>
    <path class="cls-15" d="M1201.77,513.89l.3.22h-.16a1.47,1.47,0,0,1-.1-.22Z" transform="translate(-1009.84 -461.86)"/>
    <path class="cls-15" d="M1164.15,510.34a39,39,0,0,1-2.65-22.68,9.55,9.55,0,0,1,1.24-3.63,45,45,0,0,0,6.85,23.64C1167.84,508.72,1166.21,510,1164.15,510.34Z" transform="translate(-1009.84 -461.86)"/>
    <path class="cls-16" d="M1187.44,555.09c0,.57-.48.48-.84.48-.08,0-.16-.17-.24-.27l1.11-.17Z" transform="translate(-1009.84 -461.86)"/>
    <g>
      <path class="cls-5" d="M1110.4,655.11c-4.24-7.7-7-15.89-7.07-24.69-.14-21.24,8.92-37.51,27.12-48.57q9.42-5.73,19-11.27c2.47-1.44,3.46-3,3-6.17-1.67-11.8-1.39-24.32,2.27-35.72a81.29,81.29,0,0,1,5.5-12.71,54.37,54.37,0,0,1,6.59-9.35,62.37,62.37,0,0,1,13.47-12.22c1.78-1.16,3.64-2.19,5.5-3.22a85.14,85.14,0,0,1,38.35-10.85,132.14,132.14,0,0,1,42.25,4.74c7.13,2.07,13.65,5.12,20.4,8.14,19.56,8.77,30.86,29.87,32.85,50.49a96.58,96.58,0,0,1-.6,22.54,4,4,0,0,0,.44,2.86c4.84,7.47,8.13,15.64,10.89,24.06a176.94,176.94,0,0,1,3.81,18.78c.38,5.83,1.2,11.66.64,17.53,0-.09-.11,0-.29.11a3.1,3.1,0,0,0-.66,1.92,30.61,30.61,0,0,1-5.84,15.1A107.38,107.38,0,0,1,1303,670.09c-14,9.39-29.3,15.63-45.65,19.67a212.73,212.73,0,0,1-38.08,5.62c-6.87.43-13.82.4-20.75.27a142.59,142.59,0,0,1-26.87-2.53c-18.53-3.9-35.73-10.62-49.69-24-.59-.56-1.14-1.14-2.05-1h.05l-.67-.66h-.41l-.06-.61a1,1,0,0,0-.94-1.14C1114.93,662.46,1112.87,658.64,1110.4,655.11Zm135.7-69.39a27,27,0,0,1,9.79,8.63,11.66,11.66,0,0,1,.56,13.42c-2.57,4.43-6.49,6.07-11.36,5.29-5.59-.89-10.6-2.91-12.95-8.69-1.8-4.42-.31-8,3.8-9s7.94-.37,10.78,2.72c2.65,2.89,1.8,6.28,0,9.43a2.15,2.15,0,0,0-.14.26c-.18.42-.68.85-.18,1.32s.93.13,1.4,0c3.2-1,4.41-3.5,5.08-6.43a6.26,6.26,0,0,0-2.39-6.89,30.69,30.69,0,0,0-13.22-5.94c-6.1-1-9.73,1.48-10.2,7.4-.67,8.38,6.59,19.29,14,21.35a11.69,11.69,0,0,0,2.34.4c6.62.43,12.29-1.92,17.26-6.12a11.33,11.33,0,0,0,3.64-5.72C1267,597.25,1257.11,585.25,1246.1,585.72Zm-104.9,26.47a3.48,3.48,0,0,0-.24-1c-2-3-3-6.39-.83-9.5,2.32-3.29,6.15-3.91,9.94-3.51,5,.53,7,4.21,5.15,8.83-2.52,6.26-7.82,8.36-14,9a9.51,9.51,0,0,1-8.21-2.66,12.43,12.43,0,0,1-1-17,33.72,33.72,0,0,1,9.29-7.82,16.28,16.28,0,0,0-11.54,3.81c-6.34,5-11,17.36-1.7,24.46,7.54,5.76,17.15,7,23.35,1.73,5.58-4.77,9-10.82,8.6-18.51-.23-4.57-2.77-7.37-7.35-7.24a25.21,25.21,0,0,0-16.52,6.64c-2.53,2.3-2.23,5.4-1.08,8.33,1.06,2.75,2.94,4.49,6.14,4.48Zm100.86-100c5.47-5.64,11.69-9.48,19.77-8.91s13.59,5.48,18.66,11.22a25.48,25.48,0,0,0-6.23-10.1c-4.79-5-10.56-8.45-17.79-6.95-7.9,1.7-11.78,7.75-14.41,14.8Z" transform="translate(-1009.84 -461.86)"/>
      <path class="cls-15" d="M1201.54,513.72c-2.62-7-6.51-13.09-14.41-14.73-7.22-1.5-13,1.93-17.79,6.95a25.63,25.63,0,0,0-6.23,10.09c5.08-5.74,10.67-10.65,18.67-11.22S1196.07,508.12,1201.54,513.72Z" transform="translate(-1009.84 -461.86)"/>
      <path class="cls-15" d="M1204.12,552.72c6.28-.48,12.58-.56,18.88-.56h9.45a126,126,0,0,1,13.3,1.14c3.31.35,6.61.71,9.9,1.21,5.78.88,11.53,2,17.29,3.06,7.81,2.6,15.8,4.75,23,8.85,1.68,1,3.31,2,5.09,3.06-1.14.91-1.84.26-2.53,0-14.46-5.07-29.16-9.22-44.38-11.18a223.9,223.9,0,0,0-51.42-1,200.42,200.42,0,0,0-45.84,10,13.63,13.63,0,0,1-2.3.38c2.8-2.66,6.49-3.7,9.83-5.39a37.65,37.65,0,0,1,7.47-2.69c2.61-.7,5.09-1.79,7.71-2.46l5.76-1.48c3-.76,6.12-1.08,9.16-1.69A82.08,82.08,0,0,1,1204.12,552.72Z" transform="translate(-1009.84 -461.86)"/>
    </g>
    <g>
      <path class="cls-17" d="M1162.69,532.72c1.35-1.4,1.2-3.3,1.57-5,.57-2.63,2-4.9,2.75-7.43-3.84,2-7.66,4-12.68,3,1.57,3.12,4.07,3.7,6.79,4.42-2.49,2.72-5.43,1.28-8.43,1.4A13.39,13.39,0,0,0,1162.69,532.72Z" transform="translate(-1009.84 -461.86)"/>
      <g>
        <path class="cls-16" d="M1187.47,555.13h0Z" transform="translate(-1009.84 -461.86)"/>
        <path class="cls-16" d="M1204.17,537.5c-.84-7.66-3.26-14.5-9.12-19.83a21.3,21.3,0,0,0-3.85-2.8,21,21,0,0,0-15.45-2.32,14.55,14.55,0,0,0-6.65,3.55,17.2,17.2,0,0,0-4.1,6.62c-2.06,4.35-2.69,10.08-2.55,14.56a44.64,44.64,0,0,0,1.91,12.2c.35,1.1,2.48,11.66,4.8,11l22.16-5.84c4.3-.49,8.59-1.15,12.84-2A79.77,79.77,0,0,0,1204.17,537.5Z" transform="translate(-1009.84 -461.86)"/>
      </g>
    </g>
    <g>
      <circle class="cls-15" cx="170.21" cy="77.42" r="17.51"/>
      <circle class="cls-18" cx="169.17" cy="77.6" r="11"/>
      <circle class="cls-16" cx="177.23" cy="70.95" r="5.29"/>
    </g>
    <g>
      <path class="cls-17" d="M1277.73,529.6c-1.45-1.3-1.43-3.21-1.91-4.86-.76-2.59-2.33-4.75-3.27-7.23,4,1.71,7.92,3.5,12.86,2.15-1.35,3.22-3.8,4-6.46,4.88,2.68,2.54,5.5.9,8.51.81A13.4,13.4,0,0,1,1277.73,529.6Z" transform="translate(-1009.84 -461.86)"/>
      <g>
        <path class="cls-16" d="M1253.47,553.65h0Z" transform="translate(-1009.84 -461.86)"/>
        <path class="cls-16" d="M1235.54,536.66c.31-7.91,2.3-15.08,7.9-21a22.89,22.89,0,0,1,3.74-3.14,21.51,21.51,0,0,1,15.64-3.48,14.69,14.69,0,0,1,7,3.15,17.5,17.5,0,0,1,4.72,6.47c2.41,4.3,3.47,10.11,3.66,14.7a45.39,45.39,0,0,1-1.09,12.62c-.28,1.15-1.69,12.11-4.11,11.65-7.7-1.46-15.55-2.19-23.24-3.65-4.44-.2-8.71-1.29-13.13-1.85A84.34,84.34,0,0,1,1235.54,536.66Z" transform="translate(-1009.84 -461.86)"/>
      </g>
    </g>
    <g>
      <circle class="cls-15" cx="243.36" cy="74.69" r="17.51"/>
      <circle class="cls-18" cx="242.33" cy="74.95" r="11"/>
      <circle class="cls-16" cx="249.91" cy="67.74" r="5.29"/>
    </g>
  </g>
</svg>
