<svg id="Layer_9" data-name="Layer 9" xmlns="http://www.w3.org/2000/svg" xmlns:xlink="http://www.w3.org/1999/xlink" viewBox="0 0 260 168"><defs><style>.cls-1{fill:none;}.cls-2{fill:#fff;}.cls-3{clip-path:url(#clip-path);}.cls-4{clip-path:url(#clip-path-2);}.cls-5{fill:#f4f4f4;}.cls-6{clip-path:url(#clip-path-3);}.cls-7{clip-path:url(#clip-path-4);}.cls-8{clip-path:url(#clip-path-5);}.cls-9{clip-path:url(#clip-path-6);}.cls-10{clip-path:url(#clip-path-7);}</style><clipPath id="clip-path"><rect class="cls-1" width="260" height="168"/></clipPath><clipPath id="clip-path-2"><path class="cls-2" d="M28.08,70.37h-.27c-1.29-3.58-7-6.28-13.77-6.28a23.72,23.72,0,0,0-5.68.67C7.8,57.28-3.25,51.31-16.82,51.31c-12.88,0-23.5,5.39-25,12.36h-.69c-13.92,0-25.2,6.29-25.2,14,0,6.94,9,12.71,20.9,13.85a1.27,1.27,0,0,0,0,.2c0,5.4,7.84,9.77,17.51,9.77,5.63,0,10.63-1.48,13.84-3.77,2.63,2.27,7.22,3.77,12.43,3.77,8.18,0,14.81-3.69,14.81-8.26,0-.12,0-.24,0-.36,5.08-1.67,9-4.31,11-7.46a23.87,23.87,0,0,0,5.34.59c7.76,0,14.05-3.51,14.05-7.83S35.84,70.37,28.08,70.37Z"/></clipPath><clipPath id="clip-path-3"><path class="cls-2" d="M215.32,25.14H215c-1.7-4.73-9.18-8.29-18.15-8.29a31.19,31.19,0,0,0-7.49.89C188.58,7.88,174,0,156.12,0a51.42,51.42,0,0,0-20.75,4.07A32.65,32.65,0,0,0,124,2.12h-.4c-1.87-5.2-10.1-9.12-20-9.12a34.17,34.17,0,0,0-8.25,1c-.81-10.87-16.85-19.54-36.53-19.54-18.7,0-34.11,7.83-36.29,17.94l-1,0c-20.2,0-36.57,9.13-36.57,20.4,0,10.07,13.1,18.43,30.32,20.09,0,.1,0,.2,0,.3,0,7.83,11.38,14.18,25.42,14.18,8.16,0,15.42-2.15,20.07-5.48,3.83,3.3,10.48,5.48,18.05,5.48a32.27,32.27,0,0,0,14.69-3.25c4.84,4.65,13.21,8,23.08,9,0,.09,0,.18,0,.27,0,7.11,10.34,12.88,23.09,12.88,7.42,0,14-2,18.24-5,3.48,3,9.52,5,16.4,5,10.78,0,19.52-4.87,19.52-10.89,0-.16,0-.32,0-.48,6.7-2.21,11.88-5.68,14.49-9.83a31.6,31.6,0,0,0,7,.77c10.22,0,18.51-4.62,18.51-10.32S225.54,25.14,215.32,25.14Z"/></clipPath><clipPath id="clip-path-4"><path class="cls-2" d="M169.87,98.71h-.31c-1.46-4-7.85-7.08-15.52-7.08a26.48,26.48,0,0,0-6.4.76C147,84,134.55,77.22,119.27,77.22c-14.52,0-26.49,6.08-28.18,13.93l-.79,0c-15.68,0-28.39,7.1-28.39,15.84,0,7.83,10.17,14.32,23.54,15.61,0,.07,0,.15,0,.23,0,6.08,8.84,11,19.75,11,6.33,0,12-1.67,15.58-4.25,3,2.56,8.14,4.25,14,4.25,9.22,0,16.69-4.17,16.69-9.31,0-.14,0-.27,0-.41,5.72-1.88,10.16-4.85,12.39-8.4a27.35,27.35,0,0,0,6,.66c8.74,0,15.83-4,15.83-8.83S178.61,98.71,169.87,98.71Z"/></clipPath><clipPath id="clip-path-5"><path class="cls-2" d="M395.24,74.49h-.53c-2.46-6.82-13.26-12-26.21-12a45.23,45.23,0,0,0-10.83,1.28c-1.06-14.26-22.11-25.64-47.93-25.64-24.54,0-44.77,10.28-47.63,23.54l-1.32,0c-26.5,0-48,12-48,26.76,0,13.22,17.2,24.2,39.79,26.37,0,.13,0,.26,0,.4,0,10.27,14.93,18.6,33.36,18.6,10.7,0,20.23-2.82,26.33-7.19,5,4.33,13.75,7.19,23.69,7.19,15.57,0,28.2-7,28.2-15.73,0-.23,0-.47,0-.7,9.67-3.18,17.16-8.2,20.93-14.2a45.69,45.69,0,0,0,10.18,1.12C410,104.31,422,97.64,422,89.4S410,74.49,395.24,74.49Z"/></clipPath><clipPath id="clip-path-6"><path class="cls-2" d="M242.05,151.16h-.31c-1.45-4-7.85-7.08-15.51-7.08a26.57,26.57,0,0,0-6.41.76c-.63-8.44-13.08-15.17-28.37-15.17-14.52,0-26.49,6.08-28.18,13.93l-.78,0c-15.69,0-28.4,7.1-28.4,15.84,0,7.83,10.17,14.32,23.55,15.61a1.69,1.69,0,0,0,0,.23c0,6.08,8.83,11,19.74,11,6.34,0,12-1.67,15.58-4.25,3,2.56,8.14,4.25,14,4.25,9.22,0,16.69-4.17,16.69-9.31,0-.14,0-.27,0-.41,5.73-1.88,10.16-4.85,12.39-8.4a27.42,27.42,0,0,0,6,.66c8.74,0,15.83-3.95,15.83-8.83S250.79,151.16,242.05,151.16Z"/></clipPath><clipPath id="clip-path-7"><path class="cls-2" d="M65.94,150.54h-.36c-1.7-4.72-9.18-8.28-18.15-8.28a31.72,31.72,0,0,0-7.49.88c-.73-9.87-15.3-17.74-33.18-17.74-17,0-31,7.11-33,16.29h-.92c-18.34,0-33.21,8.29-33.21,18.52,0,9.15,11.9,16.75,27.54,18.25,0,.09,0,.18,0,.27,0,7.12,10.34,12.88,23.09,12.88,7.41,0,14-2,18.23-5,3.48,3,9.52,5,16.39,5,10.78,0,19.52-4.87,19.52-10.89a3.85,3.85,0,0,0,0-.48c6.7-2.2,11.88-5.68,14.49-9.83a31.5,31.5,0,0,0,7,.78c10.23,0,18.51-4.62,18.51-10.32S76.17,150.54,65.94,150.54Z"/></clipPath></defs><g class="cls-3"><path class="cls-2" d="M28.08,70.37h-.27c-1.29-3.58-7-6.28-13.77-6.28a23.72,23.72,0,0,0-5.68.67C7.8,57.28-3.25,51.31-16.82,51.31c-12.88,0-23.5,5.39-25,12.36h-.69c-13.92,0-25.2,6.29-25.2,14,0,6.94,9,12.71,20.9,13.85a1.27,1.27,0,0,0,0,.2c0,5.4,7.84,9.77,17.51,9.77,5.63,0,10.63-1.48,13.84-3.77,2.63,2.27,7.22,3.77,12.43,3.77,8.18,0,14.81-3.69,14.81-8.26,0-.12,0-.24,0-.36,5.08-1.67,9-4.31,11-7.46a23.87,23.87,0,0,0,5.34.59c7.76,0,14.05-3.51,14.05-7.83S35.84,70.37,28.08,70.37Z"/><g class="cls-4"><path class="cls-5" d="M43.48,71.48c-.24,4.3-4.21,7.63-8.4,8.59s-8.56.1-12.77-.77a16.13,16.13,0,0,1-16,9.52C4.68,92.69.1,94.71-4.08,94.33s-7.93-2.69-11.1-5.44c-4.35,4.84-11.94,4.86-18.29,3.42-4.86-1.1-10.16-3.41-11.71-8.14-5.8,1.85-12.18,1.32-18-.61a59.58,59.58,0,0,1-16-8.75l9.25,28.63a7.5,7.5,0,0,0,2.07,3.72,7.3,7.3,0,0,0,3.33,1.19c26.63,4.77,53.93,3.39,80.94,2A121.73,121.73,0,0,0,33,108.75,11.05,11.05,0,0,0,37.76,107a10.06,10.06,0,0,0,2.61-3.28c4.73-8.41,5.09-18.5,5.33-28.14"/></g><path class="cls-2" d="M215.32,25.14H215c-1.7-4.73-9.18-8.29-18.15-8.29a31.19,31.19,0,0,0-7.49.89C188.58,7.88,174,0,156.12,0a51.42,51.42,0,0,0-20.75,4.07A32.65,32.65,0,0,0,124,2.12h-.4c-1.87-5.2-10.1-9.12-20-9.12a34.17,34.17,0,0,0-8.25,1c-.81-10.87-16.85-19.54-36.53-19.54-18.7,0-34.11,7.83-36.29,17.94l-1,0c-20.2,0-36.57,9.13-36.57,20.4,0,10.07,13.1,18.43,30.32,20.09,0,.1,0,.2,0,.3,0,7.83,11.38,14.18,25.42,14.18,8.16,0,15.42-2.15,20.07-5.48,3.83,3.3,10.48,5.48,18.05,5.48a32.27,32.27,0,0,0,14.69-3.25c4.84,4.65,13.21,8,23.08,9,0,.09,0,.18,0,.27,0,7.11,10.34,12.88,23.09,12.88,7.42,0,14-2,18.24-5,3.48,3,9.52,5,16.4,5,10.78,0,19.52-4.87,19.52-10.89,0-.16,0-.32,0-.48,6.7-2.21,11.88-5.68,14.49-9.83a31.6,31.6,0,0,0,7,.77c10.22,0,18.51-4.62,18.51-10.32S225.54,25.14,215.32,25.14Z"/><g class="cls-6"><path class="cls-5" d="M-25.18,8.49a41.86,41.86,0,0,0,42.66,15.6c2.59,8.76,11.2,15,20.28,16.08s18.3-2.46,25.34-8.28c2.86,5.59,9.53,8.57,15.8,8.21S91,36.51,95.65,32.31c.4,6.58,7.46,10.68,13.92,12,9.72,2,21.33-.27,26.54-8.72a22.47,22.47,0,0,0,35.16,7.12c2.53,5.52,10,7.47,15.67,5.27s9.6-7.5,11.95-13.1c11.31,10.15,30.82,9.12,41-2.17-4.58,12.54-10,26.07-21.52,32.74-5.3,3.06-11.41,4.34-17.43,5.43-15.06,2.72-30.26,4.51-45.46,6.3-20.17,2.37-40.37,4.75-60.65,5.91-11.66.67-23.39.93-35-.56C48.07,81,36.6,77.71,25.2,74.36S2.3,67.56-9.13,64.08c-4.75-1.45-10.36-3.9-10.85-8.84-.25-2.5,1-4.87,1.85-7.22a28.23,28.23,0,0,0-8.16-30.7"/></g><path class="cls-2" d="M169.87,98.71h-.31c-1.46-4-7.85-7.08-15.52-7.08a26.48,26.48,0,0,0-6.4.76C147,84,134.55,77.22,119.27,77.22c-14.52,0-26.49,6.08-28.18,13.93l-.79,0c-15.68,0-28.39,7.1-28.39,15.84,0,7.83,10.17,14.32,23.54,15.61,0,.07,0,.15,0,.23,0,6.08,8.84,11,19.75,11,6.33,0,12-1.67,15.58-4.25,3,2.56,8.14,4.25,14,4.25,9.22,0,16.69-4.17,16.69-9.31,0-.14,0-.27,0-.41,5.72-1.88,10.16-4.85,12.39-8.4a27.35,27.35,0,0,0,6,.66c8.74,0,15.83-4,15.83-8.83S178.61,98.71,169.87,98.71Z"/><g class="cls-7"><path class="cls-5" d="M59,101.84c1.44,5.37,6,9.53,11.29,11.4s11,1.7,16.46.57c8.1,9.55,23,12.48,34.12,6.69,2.79,3.21,7.3,4.2,11.49,4.9,3,.51,6.16,1,9.16.32a13.16,13.16,0,0,0,9.94-10.07c2.32,1.82,5.79,1.68,8.34.2a13.61,13.61,0,0,0,5.42-6.81c4,4.52,10.38,6.43,16.39,6s11.71-3,16.84-6.12c-1.11,14.42-2.21,28.88-5.14,43a8.52,8.52,0,0,1-1.79,4.31,7.75,7.75,0,0,1-3.42,1.84c-7,2.2-14.49,2.12-21.81,1.69-22.44-1.29-44.65-5.55-67.1-6.24-16.31-.51-32.75.85-48.88-1.64a3.48,3.48,0,0,1-2.45-1.11,3.53,3.53,0,0,1-.4-2.21l1.64-43"/></g><path class="cls-2" d="M395.24,74.49h-.53c-2.46-6.82-13.26-12-26.21-12a45.23,45.23,0,0,0-10.83,1.28c-1.06-14.26-22.11-25.64-47.93-25.64-24.54,0-44.77,10.28-47.63,23.54l-1.32,0c-26.5,0-48,12-48,26.76,0,13.22,17.2,24.2,39.79,26.37,0,.13,0,.26,0,.4,0,10.27,14.93,18.6,33.36,18.6,10.7,0,20.23-2.82,26.33-7.19,5,4.33,13.75,7.19,23.69,7.19,15.57,0,28.2-7,28.2-15.73,0-.23,0-.47,0-.7,9.67-3.18,17.16-8.2,20.93-14.2a45.69,45.69,0,0,0,10.18,1.12C410,104.31,422,97.64,422,89.4S410,74.49,395.24,74.49Z"/><g class="cls-8"><path class="cls-5" d="M207.82,79.78c2.42,9.08,10.21,16.11,19.06,19.27s18.62,2.86,27.83,1c13.67,16.13,38.89,21.08,57.64,11.31,4.72,5.42,12.34,7.08,19.42,8.27,5.13.86,10.4,1.63,15.48.55a22.27,22.27,0,0,0,16.8-17c3.92,3.09,9.78,2.85,14.09.35s7.26-6.89,9.15-11.51c6.76,7.63,17.55,10.86,27.71,10.14s19.78-5,28.44-10.34c-1.86,24.36-3.74,48.8-8.68,72.73-.54,2.6-1.19,5.34-3,7.27a13.11,13.11,0,0,1-5.79,3.11c-11.82,3.72-24.48,3.58-36.85,2.87-37.91-2.19-75.44-9.38-113.39-10.56-27.55-.86-55.33,1.45-82.58-2.76-1.54-.24-3.25-.6-4.15-1.88a6,6,0,0,1-.67-3.73l2.77-72.59"/></g><path class="cls-2" d="M242.05,151.16h-.31c-1.45-4-7.85-7.08-15.51-7.08a26.57,26.57,0,0,0-6.41.76c-.63-8.44-13.08-15.17-28.37-15.17-14.52,0-26.49,6.08-28.18,13.93l-.78,0c-15.69,0-28.4,7.1-28.4,15.84,0,7.83,10.17,14.32,23.55,15.61a1.69,1.69,0,0,0,0,.23c0,6.08,8.83,11,19.74,11,6.34,0,12-1.67,15.58-4.25,3,2.56,8.14,4.25,14,4.25,9.22,0,16.69-4.17,16.69-9.31,0-.14,0-.27,0-.41,5.73-1.88,10.16-4.85,12.39-8.4a27.42,27.42,0,0,0,6,.66c8.74,0,15.83-3.95,15.83-8.83S250.79,151.16,242.05,151.16Z"/><g class="cls-9"><path class="cls-5" d="M131.14,154.29c1.43,5.37,6,9.53,11.28,11.4s11,1.7,16.47.57c8.09,9.55,23,12.48,34.11,6.69,2.8,3.21,7.3,4.2,11.49,4.9,3,.51,6.16,1,9.16.32a13.19,13.19,0,0,0,9.95-10.07c2.32,1.82,5.78,1.68,8.33.2a13.61,13.61,0,0,0,5.42-6.81c4,4.52,10.38,6.43,16.4,6s11.7-3,16.83-6.12c-1.1,14.42-2.21,28.88-5.14,43a8.6,8.6,0,0,1-1.78,4.31,7.84,7.84,0,0,1-3.43,1.84c-7,2.2-14.49,2.12-21.81,1.69C216,211,193.78,206.7,171.32,206c-16.31-.51-32.75.85-48.87-1.64a3.48,3.48,0,0,1-2.46-1.11,3.53,3.53,0,0,1-.4-2.21l1.64-43"/></g><path class="cls-2" d="M65.94,150.54h-.36c-1.7-4.72-9.18-8.28-18.15-8.28a31.72,31.72,0,0,0-7.49.88c-.73-9.87-15.3-17.74-33.18-17.74-17,0-31,7.11-33,16.29h-.92c-18.34,0-33.21,8.29-33.21,18.52,0,9.15,11.9,16.75,27.54,18.25,0,.09,0,.18,0,.27,0,7.12,10.34,12.88,23.09,12.88,7.41,0,14-2,18.23-5,3.48,3,9.52,5,16.39,5,10.78,0,19.52-4.87,19.52-10.89a3.85,3.85,0,0,0,0-.48c6.7-2.2,11.88-5.68,14.49-9.83a31.5,31.5,0,0,0,7,.78c10.23,0,18.51-4.62,18.51-10.32S76.17,150.54,65.94,150.54Z"/><g class="cls-10"><path class="cls-5" d="M86.4,155.05c-3,8.17-12.6,13.27-21,11.15a14,14,0,0,1-21.15,7.43,16.79,16.79,0,0,1-25.08,3.5c-5.36,3-10.86,6-16.91,6.88s-12.85-.61-16.67-5.39c-4.6,2.49-9.79,4.42-15,3.69s-10.17-4.83-10.38-10.06c-9.13,2.85-20-1.95-24-10.62l.16,27a13.62,13.62,0,0,0,.53,4.51,11,11,0,0,0,4.2,4.93c8.79,6.37,20.28,7.26,31.12,7.77q42.71,2,85.47.84a410,410,0,0,0,41.6-2.79,7.52,7.52,0,0,0,2.88-.77c2.63-1.51,2.59-5.25,2.21-8.26l-1.92-15.24c-.47-3.74-1-7.54-2.45-11-1.69-3.91-4.58-7.16-7.41-10.34"/></g></g></svg>