<svg id="Layer_1" data-name="Layer 1" xmlns="http://www.w3.org/2000/svg" xmlns:xlink="http://www.w3.org/1999/xlink" viewBox="0 0 260 168"><defs><style>.cls-1{fill:none;}.cls-2{fill:#fff;}.cls-3{clip-path:url(#clip-path);}.cls-4{clip-path:url(#clip-path-2);}.cls-5{fill:#f4f4f4;}.cls-6{clip-path:url(#clip-path-3);}.cls-7{clip-path:url(#clip-path-4);}.cls-8{clip-path:url(#clip-path-5);}.cls-9{clip-path:url(#clip-path-6);}.cls-10{clip-path:url(#clip-path-7);}</style><clipPath id="clip-path"><rect class="cls-1" width="260" height="168"/></clipPath><clipPath id="clip-path-2"><path class="cls-2" d="M-15.72,70.37H-16c-1.29-3.58-7-6.28-13.77-6.28a23.78,23.78,0,0,0-5.68.67C-36,57.28-47,51.31-60.61,51.31c-12.89,0-23.51,5.39-25,12.36h-.7c-13.92,0-25.2,6.29-25.2,14,0,6.94,9,12.71,20.9,13.85a1.27,1.27,0,0,0,0,.2c0,5.4,7.84,9.77,17.52,9.77,5.62,0,10.62-1.48,13.83-3.77,2.63,2.27,7.22,3.77,12.43,3.77,8.18,0,14.82-3.69,14.82-8.26,0-.12,0-.24,0-.36,5.08-1.67,9-4.31,11-7.46a23.87,23.87,0,0,0,5.34.59C-8,86-1.67,82.53-1.67,78.21S-8,70.37-15.72,70.37Z"/></clipPath><clipPath id="clip-path-3"><path class="cls-2" d="M171.52,25.14h-.37c-1.7-4.73-9.18-8.29-18.14-8.29a31.21,31.21,0,0,0-7.5.89C144.78,7.88,130.2,0,112.32,0A51.42,51.42,0,0,0,91.57,4.07,32.65,32.65,0,0,0,80.16,2.12h-.4C77.89-3.07,69.66-7,59.79-7a34.17,34.17,0,0,0-8.25,1C50.73-16.88,34.69-25.55,15-25.55c-18.7,0-34.11,7.83-36.29,17.94l-1,0c-20.2,0-36.57,9.13-36.57,20.4,0,10.07,13.1,18.43,30.32,20.09,0,.1,0,.2,0,.3,0,7.83,11.38,14.18,25.42,14.18,8.16,0,15.42-2.15,20.07-5.48,3.83,3.3,10.48,5.48,18.05,5.48a32.27,32.27,0,0,0,14.69-3.25c4.84,4.65,13.21,8,23.08,9,0,.09,0,.18,0,.27,0,7.11,10.34,12.88,23.09,12.88,7.42,0,14-2,18.24-5,3.48,3,9.52,5,16.4,5,10.78,0,19.52-4.87,19.52-10.89a3.85,3.85,0,0,0,0-.48c6.7-2.21,11.88-5.68,14.49-9.83a31.6,31.6,0,0,0,7.05.77c10.22,0,18.51-4.62,18.51-10.32S181.74,25.14,171.52,25.14Z"/></clipPath><clipPath id="clip-path-4"><path class="cls-2" d="M150.7,116.63h-.32c-1.45-4-7.84-7.08-15.51-7.08a26.57,26.57,0,0,0-6.41.76c-.62-8.44-13.08-15.17-28.36-15.17-14.53,0-26.5,6.08-28.19,13.93l-.78,0c-15.68,0-28.4,7.1-28.4,15.84,0,7.83,10.18,14.32,23.55,15.61,0,.07,0,.15,0,.23,0,6.08,8.84,11,19.74,11,6.34,0,12-1.67,15.59-4.25,3,2.56,8.14,4.25,14,4.25,9.22,0,16.7-4.17,16.7-9.31,0-.14,0-.27,0-.41,5.72-1.88,10.15-4.85,12.38-8.4a27.44,27.44,0,0,0,6,.66c8.74,0,15.82-3.95,15.82-8.83S159.44,116.63,150.7,116.63Z"/></clipPath><clipPath id="clip-path-5"><path class="cls-2" d="M268.48,154.05h-.32c-1.45-4-7.84-7.08-15.51-7.08a26.94,26.94,0,0,0-6.4.75c-.63-8.43-13.09-15.17-28.37-15.17-14.53,0-26.49,6.09-28.19,13.93h-.78c-15.68,0-28.4,7.09-28.4,15.84,0,7.82,10.18,14.32,23.55,15.6,0,.08,0,.16,0,.24,0,6.08,8.84,11,19.74,11,6.34,0,12-1.67,15.59-4.26,3,2.56,8.14,4.26,14,4.26,9.22,0,16.7-4.17,16.7-9.31,0-.14,0-.28,0-.41,5.72-1.89,10.15-4.86,12.38-8.41a26.84,26.84,0,0,0,6,.67c8.74,0,15.82-4,15.82-8.83S277.22,154.05,268.48,154.05Z"/></clipPath><clipPath id="clip-path-6"><path class="cls-2" d="M314.58,26.39h-.31c-1.46-4-7.85-7.08-15.51-7.08a26.5,26.5,0,0,0-6.41.76C291.72,11.63,279.26,4.9,264,4.9c-14.52,0-26.49,6.08-28.18,13.93l-.79,0c-15.68,0-28.39,7.1-28.39,15.84,0,7.83,10.17,14.32,23.54,15.61,0,.07,0,.15,0,.23,0,6.08,8.84,11,19.75,11,6.33,0,12-1.67,15.58-4.25,3,2.56,8.14,4.25,14,4.25,9.22,0,16.69-4.17,16.69-9.31,0-.14,0-.27,0-.41,5.72-1.88,10.16-4.85,12.39-8.4a27.42,27.42,0,0,0,6,.66c8.74,0,15.83-3.95,15.83-8.83S323.32,26.39,314.58,26.39Z"/></clipPath><clipPath id="clip-path-7"><path class="cls-2" d="M22.14,150.54h-.36c-1.7-4.72-9.18-8.28-18.15-8.28a31.72,31.72,0,0,0-7.49.88c-.73-9.87-15.3-17.74-33.18-17.74-17,0-31,7.11-33,16.29h-.92c-18.34,0-33.21,8.29-33.21,18.52,0,9.15,11.9,16.75,27.54,18.25,0,.09,0,.18,0,.27,0,7.12,10.34,12.88,23.09,12.88,7.41,0,14-2,18.23-5,3.48,3,9.52,5,16.39,5,10.78,0,19.53-4.87,19.53-10.89a3.87,3.87,0,0,0,0-.48c6.7-2.2,11.88-5.68,14.49-9.83a31.5,31.5,0,0,0,7,.78c10.23,0,18.51-4.62,18.51-10.32S32.37,150.54,22.14,150.54Z"/></clipPath></defs><g class="cls-3"><path class="cls-2" d="M-15.72,70.37H-16c-1.29-3.58-7-6.28-13.77-6.28a23.78,23.78,0,0,0-5.68.67C-36,57.28-47,51.31-60.61,51.31c-12.89,0-23.51,5.39-25,12.36h-.7c-13.92,0-25.2,6.29-25.2,14,0,6.94,9,12.71,20.9,13.85a1.27,1.27,0,0,0,0,.2c0,5.4,7.84,9.77,17.52,9.77,5.62,0,10.62-1.48,13.83-3.77,2.63,2.27,7.22,3.77,12.43,3.77,8.18,0,14.82-3.69,14.82-8.26,0-.12,0-.24,0-.36,5.08-1.67,9-4.31,11-7.46a23.87,23.87,0,0,0,5.34.59C-8,86-1.67,82.53-1.67,78.21S-8,70.37-15.72,70.37Z"/><g class="cls-4"><path class="cls-5" d="M-.32,71.48c-.24,4.3-4.21,7.63-8.4,8.59s-8.56.1-12.77-.77a16.13,16.13,0,0,1-16,9.52c-1.61,3.87-6.19,5.89-10.37,5.51s-7.93-2.69-11.1-5.44c-4.35,4.84-11.94,4.86-18.29,3.42-4.86-1.1-10.16-3.41-11.71-8.14-5.8,1.85-12.18,1.32-18-.61a59.58,59.58,0,0,1-16-8.75l9.25,28.63a7.5,7.5,0,0,0,2.07,3.72,7.3,7.3,0,0,0,3.33,1.19c26.63,4.77,53.93,3.39,80.94,2a121.73,121.73,0,0,0,16.52-1.6A11.05,11.05,0,0,0-6,107a10.22,10.22,0,0,0,2.62-3.28C1.3,95.31,1.66,85.22,1.9,75.58"/></g><path class="cls-2" d="M171.52,25.14h-.37c-1.7-4.73-9.18-8.29-18.14-8.29a31.21,31.21,0,0,0-7.5.89C144.78,7.88,130.2,0,112.32,0A51.42,51.42,0,0,0,91.57,4.07,32.65,32.65,0,0,0,80.16,2.12h-.4C77.89-3.07,69.66-7,59.79-7a34.17,34.17,0,0,0-8.25,1C50.73-16.88,34.69-25.55,15-25.55c-18.7,0-34.11,7.83-36.29,17.94l-1,0c-20.2,0-36.57,9.13-36.57,20.4,0,10.07,13.1,18.43,30.32,20.09,0,.1,0,.2,0,.3,0,7.83,11.38,14.18,25.42,14.18,8.16,0,15.42-2.15,20.07-5.48,3.83,3.3,10.48,5.48,18.05,5.48a32.27,32.27,0,0,0,14.69-3.25c4.84,4.65,13.21,8,23.08,9,0,.09,0,.18,0,.27,0,7.11,10.34,12.88,23.09,12.88,7.42,0,14-2,18.24-5,3.48,3,9.52,5,16.4,5,10.78,0,19.52-4.87,19.52-10.89a3.85,3.85,0,0,0,0-.48c6.7-2.21,11.88-5.68,14.49-9.83a31.6,31.6,0,0,0,7.05.77c10.22,0,18.51-4.62,18.51-10.32S181.74,25.14,171.52,25.14Z"/><g class="cls-6"><path class="cls-5" d="M-69,8.49a41.87,41.87,0,0,0,42.66,15.6c2.59,8.76,11.21,15,20.28,16.08s18.3-2.46,25.34-8.28c2.86,5.59,9.53,8.57,15.8,8.21s12.09-3.59,16.75-7.79c.41,6.58,7.46,10.68,13.92,12,9.72,2,21.33-.27,26.54-8.72a22.47,22.47,0,0,0,35.16,7.12c2.53,5.52,10,7.47,15.67,5.27s9.6-7.5,12-13.1c11.31,10.15,30.82,9.12,41-2.17-4.58,12.54-10,26.07-21.52,32.74-5.3,3.06-11.41,4.34-17.43,5.43-15.06,2.72-30.26,4.51-45.46,6.3C91.51,79.56,71.31,81.94,51,83.1c-11.66.67-23.39.93-35-.56C4.27,81-7.2,77.71-18.6,74.36s-22.9-6.8-34.33-10.28c-4.75-1.45-10.36-3.9-10.85-8.84-.25-2.5,1-4.87,1.85-7.22a28.24,28.24,0,0,0-8.15-30.7"/></g><path class="cls-2" d="M150.7,116.63h-.32c-1.45-4-7.84-7.08-15.51-7.08a26.57,26.57,0,0,0-6.41.76c-.62-8.44-13.08-15.17-28.36-15.17-14.53,0-26.5,6.08-28.19,13.93l-.78,0c-15.68,0-28.4,7.1-28.4,15.84,0,7.83,10.18,14.32,23.55,15.61,0,.07,0,.15,0,.23,0,6.08,8.84,11,19.74,11,6.34,0,12-1.67,15.59-4.25,3,2.56,8.14,4.25,14,4.25,9.22,0,16.7-4.17,16.7-9.31,0-.14,0-.27,0-.41,5.72-1.88,10.15-4.85,12.38-8.4a27.44,27.44,0,0,0,6,.66c8.74,0,15.82-3.95,15.82-8.83S159.44,116.63,150.7,116.63Z"/><g class="cls-7"><path class="cls-5" d="M39.78,119.76c1.43,5.37,6,9.54,11.28,11.4s11,1.7,16.47.57c8.09,9.55,23,12.48,34.12,6.69,2.79,3.21,7.29,4.2,11.49,4.9,3,.51,6.15,1,9.16.33a13.17,13.17,0,0,0,9.94-10.08c2.32,1.82,5.78,1.68,8.34.2A13.6,13.6,0,0,0,146,127c4,4.52,10.39,6.43,16.4,6s11.71-3,16.83-6.12c-1.1,14.42-2.21,28.88-5.14,43a8.51,8.51,0,0,1-1.78,4.3,7.79,7.79,0,0,1-3.43,1.84c-7,2.2-14.49,2.12-21.81,1.69-22.43-1.29-44.64-5.54-67.1-6.24-16.31-.51-32.75.86-48.87-1.64a3.48,3.48,0,0,1-2.45-1.11,3.53,3.53,0,0,1-.4-2.21l1.63-43"/></g><path class="cls-2" d="M268.48,154.05h-.32c-1.45-4-7.84-7.08-15.51-7.08a26.94,26.94,0,0,0-6.4.75c-.63-8.43-13.09-15.17-28.37-15.17-14.53,0-26.49,6.09-28.19,13.93h-.78c-15.68,0-28.4,7.09-28.4,15.84,0,7.82,10.18,14.32,23.55,15.6,0,.08,0,.16,0,.24,0,6.08,8.84,11,19.74,11,6.34,0,12-1.67,15.59-4.26,3,2.56,8.14,4.26,14,4.26,9.22,0,16.7-4.17,16.7-9.31,0-.14,0-.28,0-.41,5.72-1.89,10.15-4.86,12.38-8.41a26.84,26.84,0,0,0,6,.67c8.74,0,15.82-4,15.82-8.83S277.22,154.05,268.48,154.05Z"/><g class="cls-8"><path class="cls-5" d="M157.56,157.19c1.43,5.37,6,9.53,11.28,11.4s11,1.69,16.47.57c8.09,9.55,23,12.47,34.12,6.69,2.79,3.21,7.3,4.19,11.49,4.9,3,.51,6.15,1,9.16.32A13.17,13.17,0,0,0,250,171c2.32,1.83,5.78,1.69,8.34.21a13.76,13.76,0,0,0,5.42-6.81c4,4.51,10.38,6.43,16.39,6s11.71-2.95,16.83-6.12c-1.1,14.42-2.21,28.88-5.14,43a8.58,8.58,0,0,1-1.78,4.31,7.89,7.89,0,0,1-3.43,1.84c-7,2.2-14.49,2.11-21.81,1.69-22.43-1.29-44.64-5.55-67.1-6.25-16.31-.51-32.75.86-48.87-1.63A2.66,2.66,0,0,1,146,204l1.63-43"/></g><path class="cls-2" d="M314.58,26.39h-.31c-1.46-4-7.85-7.08-15.51-7.08a26.5,26.5,0,0,0-6.41.76C291.72,11.63,279.26,4.9,264,4.9c-14.52,0-26.49,6.08-28.18,13.93l-.79,0c-15.68,0-28.39,7.1-28.39,15.84,0,7.83,10.17,14.32,23.54,15.61,0,.07,0,.15,0,.23,0,6.08,8.84,11,19.75,11,6.33,0,12-1.67,15.58-4.25,3,2.56,8.14,4.25,14,4.25,9.22,0,16.69-4.17,16.69-9.31,0-.14,0-.27,0-.41,5.72-1.88,10.16-4.85,12.39-8.4a27.42,27.42,0,0,0,6,.66c8.74,0,15.83-3.95,15.83-8.83S323.32,26.39,314.58,26.39Z"/><g class="cls-9"><path class="cls-5" d="M203.66,29.52c1.44,5.37,6.05,9.53,11.29,11.4s11,1.7,16.47.57c8.09,9.55,23,12.48,34.11,6.69,2.79,3.21,7.3,4.2,11.49,4.9,3,.51,6.16,1,9.16.33a13.17,13.17,0,0,0,9.94-10.08c2.32,1.82,5.79,1.68,8.34.2a13.57,13.57,0,0,0,5.42-6.81c4,4.52,10.38,6.43,16.4,6s11.7-2.95,16.83-6.12C342,51,340.9,65.48,338,79.64A8.6,8.6,0,0,1,336.19,84a7.84,7.84,0,0,1-3.43,1.84c-7,2.2-14.49,2.12-21.81,1.69-22.43-1.29-44.64-5.54-67.1-6.24-16.31-.51-32.75.86-48.88-1.64a3.48,3.48,0,0,1-2.45-1.11,3.53,3.53,0,0,1-.4-2.21l1.64-43"/></g><path class="cls-2" d="M22.14,150.54h-.36c-1.7-4.72-9.18-8.28-18.15-8.28a31.72,31.72,0,0,0-7.49.88c-.73-9.87-15.3-17.74-33.18-17.74-17,0-31,7.11-33,16.29h-.92c-18.34,0-33.21,8.29-33.21,18.52,0,9.15,11.9,16.75,27.54,18.25,0,.09,0,.18,0,.27,0,7.12,10.34,12.88,23.09,12.88,7.41,0,14-2,18.23-5,3.48,3,9.52,5,16.39,5,10.78,0,19.53-4.87,19.53-10.89a3.87,3.87,0,0,0,0-.48c6.7-2.2,11.88-5.68,14.49-9.83a31.5,31.5,0,0,0,7,.78c10.23,0,18.51-4.62,18.51-10.32S32.37,150.54,22.14,150.54Z"/><g class="cls-10"><path class="cls-5" d="M42.6,155.05c-3,8.17-12.6,13.27-21,11.15a14.26,14.26,0,0,1-8.72,9A14.24,14.24,0,0,1,.42,173.63a17,17,0,0,1-11.74,7.46,17,17,0,0,1-13.34-4c-5.36,3-10.86,6-16.91,6.88s-12.85-.61-16.67-5.39c-4.6,2.49-9.79,4.42-15,3.69s-10.17-4.83-10.38-10.06c-9.13,2.85-20-1.95-24-10.62l.15,27a13.62,13.62,0,0,0,.53,4.51,11,11,0,0,0,4.2,4.93c8.79,6.37,20.28,7.26,31.12,7.77q42.71,2,85.47.84a410,410,0,0,0,41.6-2.79,7.52,7.52,0,0,0,2.88-.77c2.63-1.51,2.59-5.25,2.21-8.26l-1.92-15.24c-.47-3.74-.95-7.54-2.45-11-1.69-3.91-4.58-7.16-7.41-10.34"/></g></g></svg>