<svg id="Layer_1" data-name="Layer 1" xmlns="http://www.w3.org/2000/svg" xmlns:xlink="http://www.w3.org/1999/xlink" viewBox="0 0 260 168"><defs><style>.cls-1{fill:#ff872e;}.cls-2{fill:#ce6824;}.cls-22,.cls-23,.cls-3,.cls-31,.cls-33,.cls-8{fill:none;}.cls-26,.cls-4{fill:#ff0695;}.cls-4{opacity:0.53;}.cls-5{fill:#ff618b;}.cls-6{fill:#ea0c67;opacity:0.8;}.cls-7{clip-path:url(#clip-path);}.cls-8{stroke:#c6601c;stroke-width:0.11px;}.cls-22,.cls-23,.cls-8{stroke-miterlimit:10;}.cls-9{clip-path:url(#clip-path-2);}.cls-10{fill:#ffb273;}.cls-11{clip-path:url(#clip-path-3);}.cls-12{clip-path:url(#clip-path-4);}.cls-13{fill:#ff8db6;}.cls-14{fill:#8c1cb5;}.cls-15{fill:#cc621b;}.cls-16,.cls-19{fill:#6abfbd;}.cls-16{opacity:0.2;}.cls-17{clip-path:url(#clip-path-5);}.cls-18{clip-path:url(#clip-path-6);}.cls-19{opacity:0.1;}.cls-20{fill:#77f7f7;}.cls-21{clip-path:url(#clip-path-7);}.cls-22,.cls-23{stroke:#b73e70;}.cls-22{stroke-width:0.11px;}.cls-23{stroke-width:0.11px;}.cls-24{fill:#e24475;}.cls-25{fill:#efefef;}.cls-26{opacity:0.5;}.cls-27{fill:#b94ee5;}.cls-28{fill:#a141ce;}.cls-29{fill:#e2e2e2;}.cls-30{fill:#e27124;}.cls-31,.cls-33{stroke:#fff;stroke-linecap:round;stroke-linejoin:round;}.cls-31{stroke-width:0.89px;}.cls-31,.cls-32,.cls-33{opacity:0.3;}.cls-32{fill:#fff;}.cls-33{stroke-width:0.43px;}</style><clipPath id="clip-path"><path class="cls-1" d="M140,131.83l1.81-1.59c1-.91.82-2.87-.49-4.37s-3.1-1.93-4.16-1.14h0l-1.91,1.68c-1,.92-.82,2.87.49,4.37S139,132.74,140,131.83Z"/></clipPath><clipPath id="clip-path-2"><ellipse class="cls-2" cx="137.37" cy="129.27" rx="1.95" ry="3.31" transform="translate(-51.14 122.66) rotate(-41.25)"/></clipPath><clipPath id="clip-path-3"><path class="cls-1" d="M80.11,117l-2.18-1c-1.25-.59-1.57-2.53-.72-4.33s2.45-2.71,3.69-2.24h0l2.31,1.09c1.25.6,1.57,2.54.72,4.34S81.36,117.58,80.11,117Z"/></clipPath><clipPath id="clip-path-4"><ellipse class="cls-2" cx="81.95" cy="113.81" rx="3.31" ry="1.95" transform="translate(-56.03 138.93) rotate(-64.56)"/></clipPath><clipPath id="clip-path-5"><path id="SVGID" class="cls-3" d="M128.11,119.15s-5.41,6.19-20.48-2.46-15.74-15.18-15.74-15.18l-8.76.74S70.69,112,70.39,113.48s-3.71,14.17-3.71,14.17l16.25,12.73s20.82,9.94,31.15,13,13.88,4.06,17.55,4,19.44-3.76,21.14-4.8S161.58,138,160,136.74s-13-12.84-14.08-13.2S128.11,119.15,128.11,119.15Z"/></clipPath><clipPath id="clip-path-6"><path class="cls-4" d="M79,116.44c-3.53,7.68,5.32,11.5,5.32,11.5l7.31,3.37c.61.28,1.26-.68,1.26-.68-.5,1.08.2,1.37.2,1.37l3.59,1.65c.67.31,1.3-.74,1.3-.74-.48,1,.06,1.31.06,1.31l3.31,1.53c.6.27,1.28-.79,1.28-.79-.66,1.21.31,1.49.31,1.49l3.48,1.61c.75.34,1.21-.66,1.21-.66a1,1,0,0,0,.58,1.53l7,3.24a1.05,1.05,0,0,0,1.32-.51l2.55,1.18c.23,2.44,3.88,3.7,3.88,3.7,4.92,2.26,17.82-1.35,17.82-1.35l1.41.65c.09,1.72,1.25.56,1.25.56l4.48,2.06s.74.35,1.45-1.21l2.38-5.17s.67-1.47-.06-1.81l-4.48-2.06s.12-1.63-1.24-.59l-1.41-.64s-5.65-12.15-10.57-14.41c0,0-3.33-2-5.34-.54l-2.55-1.18a1,1,0,0,0-.47-1.32l-7-3.24a1,1,0,0,0-1.53.56s.46-1-.29-1.35l-3.49-1.6s-.84-.55-1.33.74c0,0,.37-1.21-.23-1.49l-3.32-1.52s-.55-.23-1,.8c0,0,.38-1.15-.28-1.46l-3.59-1.65s-.68-.35-1.18.74c0,0,.31-1.12-.29-1.4l-7.32-3.36s-8.66-4.24-12.2,3.44Z"/></clipPath><clipPath id="clip-path-7"><path class="cls-5" d="M147.56,138.08l5.2,2.39a1.07,1.07,0,0,1,.19,1.31l-3,6.55s-.67.91-1.43.56l-5.14-2.36s-.43-.77,1.47-4.9S147.56,138.08,147.56,138.08Z"/></clipPath></defs><path class="cls-6" d="M93.34,104.83s0-.37,6.14,4.73,11.91,8.38,16.66,9.31,10.77,1.16,10,1.7c0,0-6.8,3.53-19.09-3.86S93.49,105.69,93.34,104.83Z"/><path class="cls-1" d="M140,131.83l1.81-1.59c1-.91.82-2.87-.49-4.37s-3.1-1.93-4.16-1.14h0l-1.91,1.68c-1,.92-.82,2.87.49,4.37S139,132.74,140,131.83Z"/><g class="cls-7"><line class="cls-8" x1="140.21" y1="122.9" x2="131.91" y2="130.18"/><line class="cls-8" x1="140.01" y1="122.67" x2="131.71" y2="129.95"/><line class="cls-8" x1="140.46" y1="123.18" x2="132.16" y2="130.46"/><line class="cls-8" x1="140.71" y1="123.46" x2="132.41" y2="130.74"/><line class="cls-8" x1="140.95" y1="123.75" x2="132.65" y2="131.02"/><line class="cls-8" x1="141.2" y1="124.03" x2="132.9" y2="131.31"/><line class="cls-8" x1="141.45" y1="124.31" x2="133.15" y2="131.59"/><line class="cls-8" x1="141.69" y1="124.59" x2="133.39" y2="131.87"/><line class="cls-8" x1="141.94" y1="124.87" x2="133.64" y2="132.15"/><line class="cls-8" x1="142.19" y1="125.15" x2="133.89" y2="132.43"/><line class="cls-8" x1="142.43" y1="125.43" x2="134.13" y2="132.71"/><line class="cls-8" x1="142.68" y1="125.72" x2="134.38" y2="132.99"/><line class="cls-8" x1="142.93" y1="126" x2="134.63" y2="133.28"/><line class="cls-8" x1="143.17" y1="126.28" x2="134.88" y2="133.56"/><line class="cls-8" x1="143.42" y1="126.56" x2="135.12" y2="133.84"/><line class="cls-8" x1="143.67" y1="126.84" x2="135.37" y2="134.12"/><line class="cls-8" x1="143.91" y1="127.12" x2="135.62" y2="134.4"/><line class="cls-8" x1="144.16" y1="127.4" x2="135.86" y2="134.68"/><line class="cls-8" x1="144.41" y1="127.68" x2="136.11" y2="134.96"/></g><ellipse class="cls-1" cx="137.41" cy="129.24" rx="2.28" ry="3.66" transform="translate(-51.11 122.68) rotate(-41.25)"/><ellipse class="cls-2" cx="137.37" cy="129.27" rx="1.95" ry="3.31" transform="translate(-51.14 122.66) rotate(-41.25)"/><g class="cls-9"><ellipse class="cls-10" cx="139.68" cy="127.37" rx="2.04" ry="3.43" transform="translate(-49.32 123.71) rotate(-41.25)"/></g><path class="cls-1" d="M80.11,117l-2.18-1c-1.25-.59-1.57-2.53-.72-4.33s2.45-2.71,3.69-2.24h0l2.31,1.09c1.25.6,1.57,2.54.72,4.34S81.36,117.58,80.11,117Z"/><g class="cls-11"><line class="cls-8" x1="77.48" y1="108.46" x2="87.44" y2="113.2"/><line class="cls-8" x1="77.61" y1="108.18" x2="87.57" y2="112.92"/><line class="cls-8" x1="77.31" y1="108.79" x2="87.28" y2="113.53"/><line class="cls-8" x1="77.15" y1="109.13" x2="87.12" y2="113.87"/><line class="cls-8" x1="76.99" y1="109.47" x2="86.96" y2="114.21"/><line class="cls-8" x1="76.83" y1="109.81" x2="86.8" y2="114.55"/><line class="cls-8" x1="76.67" y1="110.15" x2="86.64" y2="114.89"/><line class="cls-8" x1="76.51" y1="110.48" x2="86.48" y2="115.22"/><line class="cls-8" x1="76.35" y1="110.82" x2="86.32" y2="115.56"/><line class="cls-8" x1="76.19" y1="111.16" x2="86.16" y2="115.9"/><line class="cls-8" x1="76.03" y1="111.5" x2="86" y2="116.24"/><line class="cls-8" x1="75.87" y1="111.84" x2="85.84" y2="116.58"/><line class="cls-8" x1="75.71" y1="112.17" x2="85.68" y2="116.91"/><line class="cls-8" x1="75.55" y1="112.51" x2="85.52" y2="117.25"/><line class="cls-8" x1="75.39" y1="112.85" x2="85.35" y2="117.59"/><line class="cls-8" x1="75.23" y1="113.19" x2="85.19" y2="117.93"/><line class="cls-8" x1="75.06" y1="113.52" x2="85.03" y2="118.27"/><line class="cls-8" x1="74.9" y1="113.86" x2="84.87" y2="118.6"/><line class="cls-8" x1="74.74" y1="114.2" x2="84.71" y2="118.94"/></g><ellipse class="cls-1" cx="81.9" cy="113.79" rx="3.66" ry="2.28" transform="translate(-56.03 138.87) rotate(-64.56)"/><ellipse class="cls-2" cx="81.95" cy="113.81" rx="3.31" ry="1.95" transform="translate(-56.03 138.93) rotate(-64.56)"/><g class="cls-12"><ellipse class="cls-10" cx="79.21" cy="112.61" rx="3.43" ry="2.04" transform="translate(-56.5 135.77) rotate(-64.56)"/></g><path class="cls-13" d="M153.13,140.63h0l-.54-.25-.66,1.46a20,20,0,0,0-1.49,2.73,20.53,20.53,0,0,0-1.11,2.9l-.67,1.46.57.26c.42.19,1.64-1.56,2.73-3.93S153.55,140.82,153.13,140.63Z"/><circle class="cls-14" cx="94.52" cy="121.02" r="5.73" transform="translate(-49.21 175.08) rotate(-72.62)"/><circle class="cls-15" cx="126.9" cy="135.77" r="5.73" transform="translate(-40.57 216.33) rotate(-72.62)"/><path class="cls-16" d="M89.14,106s.49,8-7.52,17.72l46.49,21.39L141,144l1.75.8,2.8-6.08L143,137.57s-7.57-14.24-14.68-14.29L125.51,122s-4.46,3-17.48-3S91.91,105.8,91.91,105.8Z"/><g class="cls-17"><path class="cls-4" d="M79,116.44c-3.53,7.68,5.32,11.5,5.32,11.5l7.31,3.37c.61.28,1.26-.68,1.26-.68-.5,1.08.2,1.37.2,1.37l3.59,1.65c.67.31,1.3-.74,1.3-.74-.48,1,.06,1.31.06,1.31l3.31,1.53c.6.27,1.28-.79,1.28-.79-.66,1.21.31,1.49.31,1.49l3.48,1.61c.75.34,1.21-.66,1.21-.66a1,1,0,0,0,.58,1.53l7,3.24a1.05,1.05,0,0,0,1.32-.51l2.55,1.18c.23,2.44,3.88,3.7,3.88,3.7,4.92,2.26,17.82-1.35,17.82-1.35l1.41.65c.09,1.72,1.25.56,1.25.56l4.48,2.06s.74.35,1.45-1.21l2.38-5.17s.67-1.47-.06-1.81l-4.48-2.06s.12-1.63-1.24-.59l-1.41-.64s-5.65-12.15-10.57-14.41c0,0-3.33-2-5.34-.54l-2.55-1.18a1,1,0,0,0-.47-1.32l-7-3.24a1,1,0,0,0-1.53.56s.46-1-.29-1.35l-3.49-1.6s-.84-.55-1.33.74c0,0,.37-1.21-.23-1.49l-3.32-1.52s-.55-.23-1,.8c0,0,.38-1.15-.28-1.46l-3.59-1.65s-.68-.35-1.18.74c0,0,.31-1.12-.29-1.4l-7.32-3.36s-8.66-4.24-12.2,3.44Z"/><g class="cls-18"><path class="cls-19" d="M80.65,116.13s-2.76,9.72,2.57,14.85l34.47,15.86s14.23-.41,22.58-3.16l2.72,1.25.91-1.72-4.77-2.42s-9.13,4.51-17.86.13S85,124.23,85,124.23,80.38,123.08,80.65,116.13Z"/><path class="cls-20" d="M147.17,136.11a23.28,23.28,0,0,0-5.49,13.65l1.57-2.08A22.38,22.38,0,0,1,148.17,137Z"/></g></g><path class="cls-5" d="M147.56,138.08l5.2,2.39a1.07,1.07,0,0,1,.19,1.31l-3,6.55s-.67.91-1.43.56l-5.14-2.36s-.43-.77,1.47-4.9S147.56,138.08,147.56,138.08Z"/><g class="cls-21"><line class="cls-22" x1="147.71" y1="138.76" x2="152.54" y2="140.98"/><line class="cls-22" x1="147.41" y1="139.35" x2="152.25" y2="141.58"/><line class="cls-22" x1="147.12" y1="139.95" x2="151.95" y2="142.18"/><line class="cls-22" x1="146.82" y1="140.55" x2="151.66" y2="142.77"/><line class="cls-22" x1="146.53" y1="141.14" x2="151.36" y2="143.37"/><line class="cls-22" x1="146.23" y1="141.74" x2="151.07" y2="143.97"/><line class="cls-22" x1="145.94" y1="142.34" x2="150.77" y2="144.56"/><line class="cls-22" x1="145.64" y1="142.93" x2="150.48" y2="145.16"/><line class="cls-22" x1="145.35" y1="143.53" x2="150.18" y2="145.76"/><line class="cls-22" x1="145.05" y1="144.13" x2="149.89" y2="146.35"/><line class="cls-22" x1="144.76" y1="144.73" x2="149.59" y2="146.95"/><line class="cls-22" x1="144.46" y1="145.32" x2="149.3" y2="147.55"/><line class="cls-22" x1="144.2" y1="145.94" x2="149.04" y2="148.16"/><line class="cls-23" x1="143.98" y1="146.43" x2="149.03" y2="148.75"/><path class="cls-24" d="M149,138.2s-3.29,1.75-4.93,10.72l-3-1.33s4.17-11,4.22-11.12,1.26-.89,1.6-.73A22.2,22.2,0,0,1,149,138.2Z"/><path class="cls-13" d="M153,140s-1.86,1.3-4.64,10.08c0,0,2.82,1.49,2.95,1.11s2.61-7.35,2.7-7.63,0-.88,0-1.25A9.27,9.27,0,0,0,153,140Z"/></g><circle class="cls-25" cx="94.7" cy="120.61" r="0.83"/><path class="cls-25" d="M88.26,126,94,120.25l1.44.85-5,5.89Z"/><circle class="cls-25" cx="126.71" cy="135.37" r="0.83"/><path class="cls-25" d="M124.85,142.84c0-.22,2.63-7.14,2.63-7.14l-1.59-.53-3,6.72Z"/><ellipse class="cls-26" cx="83.9" cy="113.31" rx="6.32" ry="1.07" transform="translate(-54.1 142.17) rotate(-65.29)"/><circle class="cls-14" cx="89.34" cy="126.35" r="7.44" transform="translate(-57.93 173.88) rotate(-72.62)"/><circle class="cls-27" cx="89.34" cy="126.35" r="6.5" transform="translate(-57.93 173.88) rotate(-72.62)"/><circle class="cls-28" cx="89.34" cy="126.35" r="4.67" transform="translate(-57.93 173.88) rotate(-72.62)"/><circle class="cls-29" cx="89.35" cy="126.54" r="1.16"/><circle class="cls-15" cx="123.81" cy="142.21" r="7.44" transform="translate(-48.89 217.9) rotate(-72.62)"/><circle class="cls-1" cx="123.81" cy="142.21" r="6.5" transform="translate(-48.89 217.9) rotate(-72.62)"/><circle class="cls-30" cx="123.81" cy="142.21" r="4.75" transform="translate(-48.89 217.9) rotate(-72.62)"/><circle class="cls-29" cx="123.84" cy="142.41" r="1.16"/><path class="cls-31" d="M133.49,123.52s4.34,2.91,8.81,11.63"/><path class="cls-32" d="M135.27,130.07a17.67,17.67,0,0,1,6.57,6.86,8.63,8.63,0,0,0-1.33,3.08s-5.07-4.69-7.59-5C132.92,135,133.74,131,135.27,130.07Z"/><path class="cls-33" d="M114.29,123.32s-3.57,3.84-5.88,12.28"/><path class="cls-33" d="M109.05,120.9s-3.58,3.85-5.89,12.28"/><path class="cls-33" d="M104.84,119s-3.57,3.85-5.88,12.28"/></svg>