<svg xmlns="http://www.w3.org/2000/svg" xmlns:xlink="http://www.w3.org/1999/xlink" width="370" height="350" viewBox="0 0 370 350">
  <defs>
    <style>
      .cls-1, .cls-18 {
        fill: none;
      }

      .cls-2 {
        fill: #f7931e;
      }

      .cls-3 {
        clip-path: url(#clip-path);
      }

      .cls-4 {
        fill: #f15a24;
      }

      .cls-5 {
        fill: #d4555e;
      }

      .cls-6 {
        fill: #510706;
      }

      .cls-7 {
        clip-path: url(#clip-path-2);
      }

      .cls-8 {
        clip-path: url(#clip-path-3);
      }

      .cls-9 {
        clip-path: url(#clip-path-4);
      }

      .cls-10 {
        clip-path: url(#clip-path-5);
      }

      .cls-11 {
        clip-path: url(#clip-path-6);
      }

      .cls-12 {
        clip-path: url(#clip-path-7);
      }

      .cls-13 {
        clip-path: url(#clip-path-8);
      }

      .cls-14, .cls-17 {
        fill: #a81307;
      }

      .cls-15 {
        fill: #fff;
      }

      .cls-16 {
        fill: #231f20;
      }

      .cls-17, .cls-18 {
        stroke: #a81307;
        stroke-linecap: round;
        stroke-linejoin: round;
      }

      .cls-17 {
        stroke-width: 0.63px;
      }

      .cls-18 {
        stroke-width: 1.71px;
      }

      .cls-19 {
        clip-path: url(#clip-path-9);
      }

      .cls-20 {
        fill: #fa4316;
      }
    </style>
    <clipPath id="clip-path">
      <path class="cls-1" d="M348.64,133.28c.8-3.07-2.13-6.35-5.3-5.28s-3.44-5.18,3.86-7.56,26.5-.67,19.06,20.7-50.33,25.47-65.82,24c-9.64-.24-55.79,39.17-62.62,17,0,0,.55-20.52,18-26.69"/>
    </clipPath>
    <clipPath id="clip-path-2">
      <path class="cls-1" d="M341.61,200.41c2-2.42.82-6.65-2.5-7.06s-.86-6.16,6.75-5.15S370,199,354.09,215.1s-56.4,1.2-69.71-6.85c-8.59-4.38-67.24,11.2-63.81-11.76,0,0,9.36-18.27,27.79-16.27"/>
    </clipPath>
    <clipPath id="clip-path-3">
      <path class="cls-1" d="M314.65,255.32c2.79-1.5,3.21-5.88.27-7.48s1.46-6,8.17-2.32,18.52,19-2.22,28.05-52.9-19.58-62.33-32c-6.38-7.23-66.66-14.26-55-34.36,0,0,15.41-13.55,31.82-4.94"/>
    </clipPath>
    <clipPath id="clip-path-4">
      <path class="cls-1" d="M266.38,305.61c3.16.21,5.84-3.27,4.2-6.19s4.45-4.35,8.15,2.38,5.59,25.92-16.79,22.58-34.4-44.71-35.8-60.2c-1.56-9.51-48.87-47.52-28.35-58.36,0,0,20.26-3.29,29.57,12.74"/>
    </clipPath>
    <clipPath id="clip-path-5">
      <path class="cls-1" d="M19.3,200.43c-1.94-2.51-.53-6.68,2.81-6.94s1.14-6.11-6.51-5.45-24.65,9.76-9.43,26.51,56.29,3.73,69.95-3.72c8.78-4,66.67,14.2,64.27-8.89,0,0-8.54-18.67-27-17.5"/>
    </clipPath>
    <clipPath id="clip-path-6">
      <path class="cls-1" d="M52.05,259.45c-2.83-1.43-3.36-5.79-.47-7.47s-1.62-6-8.23-2.1-18,19.46,3,28,52.37-21,61.46-33.6c6.19-7.39,66.25-16,54.11-35.8,0,0-15.77-13.14-31.94-4.09"/>
    </clipPath>
    <clipPath id="clip-path-7">
      <path class="cls-1" d="M98.36,299.42c-3.16-.29-5.25-4.15-3.18-6.78s-3.71-5-8.42,1.07-9.61,24.71,13,24.95,41-38.73,44.84-53.81c3-9.15,55.75-39.22,37.19-53.16,0,0-19.49-6.44-31.21,7.92"/>
    </clipPath>
    <clipPath id="clip-path-8">
      <path class="cls-1" d="M162.47,326.8c-2.83,1.43-6.66-.73-6.29-4.05s-5.79-2.26-6.57,5.38,5,26,24.29,14.21,14.14-54.61,9.37-69.41c-2.29-9.37,26.37-62.86,3.24-64.8,0,0-19.93,4.91-22.23,23.3"/>
    </clipPath>
    <clipPath id="clip-path-9">
      <path class="cls-1" d="M149.64,171.73s35.42,13.79,68.17-13.9C217.81,157.83,195.79,223.91,149.64,171.73Z"/>
    </clipPath>
  </defs>
  <title>17_highlight_the_small_octopus</title>
  <g id="character">
    <g>
      <g>
        <g>
          <path class="cls-2" d="M237.82,182.08s.55-20.52,18-26.69,16.39-9.16,31.7-12.73c17.92-4.17,49.06,10.79,61.11-9.39.8-3.07-2.13-6.35-5.3-5.28s-3.44-5.18,3.86-7.56,26.5-.67,19.06,20.7-50.33,25.47-65.82,24C290.8,164.86,244.65,204.26,237.82,182.08Z"/>
          <g class="cls-3">
            <path class="cls-4" d="M371.33,123s2.59,20.08-27.47,28.64-72.92-4.46-102.51,44.92c0,0,52.43-18.5,54.72-20.55S381.25,173.12,371.33,123Z"/>
          </g>
          <g>
            <g>
              <circle class="cls-5" cx="363.47" cy="146.39" r="4.31" transform="translate(52.87 385.28) rotate(-59.5)"/>
              <circle class="cls-6" cx="362.61" cy="147.59" r="2.64" transform="translate(51.42 385.13) rotate(-59.5)"/>
            </g>
            <g>
              <circle class="cls-5" cx="342.83" cy="159.64" r="4.31" transform="matrix(0.51, -0.86, 0.86, 0.51, 31.29, 374.02)"/>
              <circle class="cls-6" cx="341.97" cy="160.84" r="2.64" transform="translate(29.83 373.87) rotate(-59.5)"/>
            </g>
            <g>
              <circle class="cls-5" cx="315.69" cy="165.3" r="4.31" transform="translate(13.05 353.42) rotate(-59.5)"/>
              <circle class="cls-6" cx="314.83" cy="166.49" r="2.64" transform="translate(11.59 353.27) rotate(-59.5)"/>
            </g>
            <g>
              <circle class="cls-5" cx="292.79" cy="168.26" r="4.31" transform="translate(-0.78 335.15) rotate(-59.5)"/>
              <circle class="cls-6" cx="291.93" cy="169.45" r="2.64" transform="translate(-2.24 334.99) rotate(-59.5)"/>
            </g>
            <g>
              <circle class="cls-5" cx="272.81" cy="179.1" r="4.31" transform="translate(-19.97 323.27) rotate(-59.5)"/>
              <circle class="cls-6" cx="271.95" cy="180.3" r="2.64" transform="translate(-21.43 323.12) rotate(-59.5)"/>
            </g>
          </g>
        </g>
        <g>
          <path class="cls-2" d="M220.58,196.49s9.36-18.27,27.79-16.27,18.74-1.17,34.08,2.23c18,4,39.57,30.94,59.16,18,2-2.42.82-6.65-2.5-7.06s-.86-6.16,6.75-5.15S370,199,354.09,215.1s-56.4,1.2-69.71-6.85C275.79,203.87,217.14,219.45,220.58,196.49Z"/>
          <g class="cls-7">
            <path class="cls-4" d="M366.49,201s-6.34,19.22-37.16,13.94-63.82-35.55-111.85-3.82c0,0,55.27,6,58.23,5.13S353.78,250.43,366.49,201Z"/>
          </g>
          <g>
            <g>
              <circle class="cls-5" cx="349.31" cy="218.64" r="4.31" transform="translate(-62.57 231.86) rotate(-33.88)"/>
              <circle class="cls-6" cx="348.01" cy="219.35" r="2.64" transform="translate(-63.19 231.26) rotate(-33.88)"/>
            </g>
            <g>
              <circle class="cls-5" cx="324.97" cy="221.67" r="4.31" transform="translate(-68.39 218.81) rotate(-33.88)"/>
              <circle class="cls-6" cx="323.67" cy="222.37" r="2.64" transform="translate(-69.01 218.21) rotate(-33.88)"/>
            </g>
            <g>
              <circle class="cls-5" cx="298.05" cy="215.03" r="4.31" transform="translate(-69.26 202.68) rotate(-33.88)"/>
              <circle class="cls-6" cx="296.76" cy="215.74" r="2.64" transform="translate(-69.88 202.07) rotate(-33.88)"/>
            </g>
            <g>
              <circle class="cls-5" cx="276.12" cy="207.8" r="4.31" transform="translate(-68.95 189.22) rotate(-33.88)"/>
              <circle class="cls-6" cx="274.83" cy="208.5" r="2.64" transform="translate(-69.57 188.62) rotate(-33.88)"/>
            </g>
            <g>
              <circle class="cls-5" cx="253.41" cy="208.94" r="4.31" transform="translate(-73.45 176.76) rotate(-33.88)"/>
              <circle class="cls-6" cx="252.12" cy="209.65" r="2.64" transform="translate(-74.06 176.15) rotate(-33.88)"/>
            </g>
          </g>
        </g>
        <g>
          <path class="cls-2" d="M203.5,207.25s15.41-13.55,31.82-4.94,17.87,5.79,30.89,14.58c15.25,10.3,25.46,43.3,48.44,38.41,2.79-1.5,3.21-5.88.27-7.48s1.46-6,8.17-2.32,18.52,19-2.22,28.05-52.9-19.58-62.33-32C252.16,234.38,191.89,227.35,203.5,207.25Z"/>
          <g class="cls-8">
            <path class="cls-4" d="M337.58,265s-13,15.55-39.68-.67-46.32-56.49-102.64-44.61c0,0,49.22,25.86,52.28,26.15S307.61,306.32,337.58,265Z"/>
          </g>
          <g>
            <g>
              <circle class="cls-5" cx="315.12" cy="275.1" r="4.31" transform="translate(-51.55 73.77) rotate(-12.35)"/>
              <circle class="cls-6" cx="313.66" cy="275.29" r="2.64" transform="translate(-51.62 73.46) rotate(-12.35)"/>
            </g>
            <g>
              <circle class="cls-5" cx="291.37" cy="268.99" r="4.31" transform="matrix(0.98, -0.21, 0.21, 0.98, -50.79, 68.55)"/>
              <circle class="cls-6" cx="289.91" cy="269.17" r="2.64" transform="translate(-50.86 68.24) rotate(-12.35)"/>
            </g>
            <g>
              <circle class="cls-5" cx="268.77" cy="252.93" r="4.31" transform="matrix(0.98, -0.21, 0.21, 0.98, -47.88, 63.34)"/>
              <circle class="cls-6" cx="267.3" cy="253.12" r="2.64" transform="translate(-47.95 63.03) rotate(-12.35)"/>
            </g>
            <g>
              <circle class="cls-5" cx="251.02" cy="238.16" r="4.31" transform="translate(-45.13 59.2) rotate(-12.35)"/>
              <circle class="cls-6" cx="249.56" cy="238.34" r="2.64" transform="matrix(0.98, -0.21, 0.21, 0.98, -45.2, 58.89)"/>
            </g>
            <g>
              <circle class="cls-5" cx="229.48" cy="230.88" r="4.31" transform="translate(-44.07 54.43) rotate(-12.35)"/>
              <circle class="cls-6" cx="228.02" cy="231.07" r="2.64" transform="translate(-44.15 54.12) rotate(-12.35)"/>
            </g>
          </g>
        </g>
        <g>
          <path class="cls-2" d="M197.79,205.82s20.26-3.29,29.57,12.74,12.05,14.4,18.41,28.77c7.44,16.83-1.46,50.21,20.61,58.29,3.16.21,5.84-3.27,4.2-6.19s4.45-4.35,8.15,2.38,5.59,25.92-16.79,22.58-34.4-44.71-35.8-60.2C224.58,254.66,177.27,216.66,197.79,205.82Z"/>
          <g class="cls-9">
            <path class="cls-4" d="M280.66,326s-19.24,6.29-33.25-21.66-9.19-72.47-63.22-92.35c0,0,27.94,48.07,30.38,49.94S233.31,345.07,280.66,326Z"/>
          </g>
          <g>
            <g>
              <circle class="cls-5" cx="256.26" cy="322.62" r="4.31" transform="translate(-134.02 454.68) rotate(-70.23)"/>
              <circle class="cls-6" cx="254.92" cy="322" r="2.64" transform="translate(-134.32 453.01) rotate(-70.23)"/>
            </g>
            <g>
              <circle class="cls-5" cx="239.4" cy="304.82" r="4.31" transform="translate(-128.42 427.03) rotate(-70.23)"/>
              <circle class="cls-6" cx="238.06" cy="304.19" r="2.64" transform="translate(-128.72 425.35) rotate(-70.23)"/>
            </g>
            <g>
              <circle class="cls-5" cx="228.79" cy="279.2" r="4.31" transform="translate(-111.34 400.09) rotate(-70.23)"/>
              <circle class="cls-6" cx="227.45" cy="278.58" r="2.64" transform="translate(-111.64 398.42) rotate(-70.23)"/>
            </g>
            <g>
              <circle class="cls-5" cx="221.61" cy="257.25" r="4.31" transform="translate(-95.43 378.81) rotate(-70.23)"/>
              <circle class="cls-6" cx="220.27" cy="256.63" r="2.64" transform="translate(-95.73 377.14) rotate(-70.23)"/>
            </g>
            <g>
              <circle class="cls-5" cx="207.23" cy="239.64" r="4.31" transform="translate(-88.37 353.62) rotate(-70.23)"/>
              <circle class="cls-6" cx="205.89" cy="239.02" r="2.64" transform="translate(-88.67 351.95) rotate(-70.23)"/>
            </g>
          </g>
        </g>
      </g>
      <g>
        <g>
          <path class="cls-2" d="M140.38,201.95s-8.54-18.67-27-17.5-18.67-2-34.15.7c-18.12,3.17-40.92,29.13-59.9,15.28-1.94-2.51-.53-6.68,2.81-6.94s1.14-6.11-6.51-5.45-24.65,9.76-9.43,26.51,56.29,3.73,69.95-3.72C84.89,206.84,142.78,225,140.38,201.95Z"/>
          <g class="cls-10">
            <path class="cls-4" d="M-5.59,199.9s5.47,19.49,36.49,15.59,65.35-32.66,111.91,1.2c0,0-55.49,3.51-58.4,2.52S4.89,249.86-5.59,199.9Z"/>
          </g>
          <g>
            <g>
              <circle class="cls-5" cx="10.79" cy="218.3" r="4.31" transform="translate(-171.22 97.28) rotate(-53.55)"/>
              <circle class="cls-6" cx="12.05" cy="219.07" r="2.64" transform="translate(-171.32 98.6) rotate(-53.55)"/>
            </g>
            <g>
              <circle class="cls-5" cx="34.96" cy="222.42" r="4.31" transform="translate(-164.71 118.39) rotate(-53.55)"/>
              <circle class="cls-6" cx="36.23" cy="223.18" r="2.64" transform="translate(-164.82 119.72) rotate(-53.55)"/>
            </g>
            <g>
              <circle class="cls-5" cx="62.15" cy="216.99" r="4.31" transform="translate(-149.32 138.06) rotate(-53.55)"/>
              <circle class="cls-6" cx="63.41" cy="217.76" r="2.64" transform="translate(-149.42 139.39) rotate(-53.55)"/>
            </g>
            <g>
              <circle class="cls-5" cx="84.39" cy="210.75" r="4.31" transform="translate(-135.27 153.41) rotate(-53.55)"/>
              <circle class="cls-6" cx="85.65" cy="211.52" r="2.64" transform="translate(-135.38 154.74) rotate(-53.55)"/>
            </g>
            <g>
              <circle class="cls-5" cx="107.02" cy="212.91" r="4.31" transform="translate(-127.82 172.49) rotate(-53.55)"/>
              <circle class="cls-6" cx="108.28" cy="213.68" r="2.64" transform="translate(-127.93 173.82) rotate(-53.55)"/>
            </g>
          </g>
        </g>
        <g>
          <path class="cls-2" d="M161.89,208.46s-15.77-13.14-31.94-4.09-17.71,6.26-30.49,15.4c-15,10.7-24.3,44-47.41,39.68-2.83-1.43-3.36-5.79-.47-7.47s-1.62-6-8.23-2.1-18,19.46,3,28,52.37-21,61.46-33.6C114,236.87,174,228.24,161.89,208.46Z"/>
          <g class="cls-11">
            <path class="cls-4" d="M29.39,269.73S42.75,284.94,69,268s44.8-57.7,101.42-47.31c0,0-48.52,27.15-51.57,27.52S60.44,310.24,29.39,269.73Z"/>
          </g>
          <g>
            <g>
              <circle class="cls-5" cx="52.11" cy="279.24" r="4.31" transform="translate(-231.95 277.94) rotate(-79.17)"/>
              <circle class="cls-6" cx="53.58" cy="279.39" r="2.64" transform="translate(-230.9 279.5) rotate(-79.17)"/>
            </g>
            <g>
              <circle class="cls-5" cx="75.69" cy="272.5" r="4.31" transform="translate(-206.18 295.63) rotate(-79.17)"/>
              <circle class="cls-6" cx="77.16" cy="272.64" r="2.64" transform="translate(-205.13 297.19) rotate(-79.17)"/>
            </g>
            <g>
              <circle class="cls-5" cx="97.86" cy="255.85" r="4.31" transform="translate(-171.82 303.88) rotate(-79.17)"/>
              <circle class="cls-6" cx="99.33" cy="256" r="2.64" transform="translate(-170.78 305.44) rotate(-79.17)"/>
            </g>
            <g>
              <circle class="cls-5" cx="115.21" cy="240.61" r="4.31" transform="translate(-142.77 308.54) rotate(-79.17)"/>
              <circle class="cls-6" cx="116.67" cy="240.75" r="2.64" transform="translate(-141.72 310.1) rotate(-79.17)"/>
            </g>
            <g>
              <circle class="cls-5" cx="136.55" cy="232.77" r="4.31" transform="translate(-117.73 323.14) rotate(-79.17)"/>
              <circle class="cls-6" cx="138.02" cy="232.91" r="2.64" transform="translate(-116.68 324.7) rotate(-79.17)"/>
            </g>
          </g>
        </g>
        <g>
          <path class="cls-2" d="M181.81,211.68s-19.49-6.44-31.21,7.92-14.17,12.32-22.71,25.51c-10,15.45-6.47,49.81-29.53,54.31-3.16-.29-5.25-4.15-3.18-6.78s-3.71-5-8.42,1.07-9.61,24.71,13,24.95,41-38.73,44.84-53.81C147.66,255.69,200.37,225.62,181.81,211.68Z"/>
          <g class="cls-12">
            <path class="cls-4" d="M81,317.3s18,9.24,36.25-16.15,20.5-70.12,77-81.23c0,0-35.16,43.06-37.87,44.53S124.8,343.59,81,317.3Z"/>
          </g>
          <g>
            <g>
              <circle class="cls-5" cx="105.67" cy="317.81" r="4.31" transform="translate(-57.17 25.15) rotate(-10.7)"/>
              <circle class="cls-6" cx="107.09" cy="317.41" r="2.64" transform="translate(-57.07 25.4) rotate(-10.7)"/>
            </g>
            <g>
              <circle class="cls-5" cx="125.13" cy="302.88" r="4.31" transform="translate(-54.06 28.5) rotate(-10.7)"/>
              <circle class="cls-6" cx="126.55" cy="302.48" r="2.64" transform="translate(-53.96 28.76) rotate(-10.7)"/>
            </g>
            <g>
              <circle class="cls-5" cx="139.64" cy="279.26" r="4.31" transform="translate(-49.42 30.78) rotate(-10.7)"/>
              <circle class="cls-6" cx="141.06" cy="278.86" r="2.64" transform="translate(-49.32 31.04) rotate(-10.7)"/>
            </g>
            <g>
              <circle class="cls-5" cx="150.19" cy="258.72" r="4.31" transform="translate(-45.42 32.38) rotate(-10.7)"/>
              <circle class="cls-6" cx="151.61" cy="258.31" r="2.64" transform="translate(-45.32 32.64) rotate(-10.7)"/>
            </g>
            <g>
              <circle class="cls-5" cx="167.16" cy="243.59" r="4.31" transform="translate(-42.32 35.27) rotate(-10.7)"/>
              <circle class="cls-6" cx="168.58" cy="243.19" r="2.64" transform="translate(-42.22 35.53) rotate(-10.7)"/>
            </g>
          </g>
        </g>
        <g>
          <path class="cls-2" d="M186.5,208.12s-19.93,4.91-22.23,23.3-5.45,18-5.67,33.68c-.26,18.4,21,45.63,3.86,61.7-2.83,1.43-6.66-.73-6.29-4.05s-5.79-2.26-6.57,5.38,5,26,24.29,14.21,14.14-54.61,9.37-69.41C181,263.55,209.63,210.06,186.5,208.12Z"/>
          <g class="cls-13">
            <path class="cls-4" d="M157.31,351.15s20.17-1.75,22.12-33-19.92-70.29,22-109.73c0,0-6.89,55.17-8.4,57.85S208.35,350.16,157.31,351.15Z"/>
          </g>
          <g>
            <g>
              <circle class="cls-5" cx="178.44" cy="338.49" r="4.31" transform="translate(-182.51 211.47) rotate(-42.82)"/>
              <circle class="cls-6" cx="179.43" cy="337.4" r="2.64" transform="translate(-181.5 211.85) rotate(-42.82)"/>
            </g>
            <g>
              <circle class="cls-5" cx="186.98" cy="315.5" r="4.31" transform="translate(-164.61 211.15) rotate(-42.82)"/>
              <circle class="cls-6" cx="187.97" cy="314.41" r="2.64" transform="translate(-163.6 211.53) rotate(-42.82)"/>
            </g>
            <g>
              <circle class="cls-5" cx="186.72" cy="287.78" r="4.31" transform="translate(-145.84 203.59) rotate(-42.82)"/>
              <circle class="cls-6" cx="187.71" cy="286.68" r="2.64" transform="translate(-144.83 203.97) rotate(-42.82)"/>
            </g>
            <g>
              <circle class="cls-5" cx="184.73" cy="264.77" r="4.31" transform="translate(-130.73 196.1) rotate(-42.82)"/>
              <circle class="cls-6" cx="185.71" cy="263.68" r="2.64" transform="translate(-129.72 196.48) rotate(-42.82)"/>
            </g>
            <g>
              <circle class="cls-5" cx="191.06" cy="242.94" r="4.31" transform="translate(-114.2 194.59) rotate(-42.82)"/>
              <circle class="cls-6" cx="192.05" cy="241.84" r="2.64" transform="matrix(0.73, -0.68, 0.68, 0.73, -113.19, 194.97)"/>
            </g>
          </g>
        </g>
      </g>
      <g>
        <path class="cls-2" d="M162.06,1.42a140.64,140.64,0,0,0-25.18,5.13c-84.67,24-72,115.82-54.07,138.94a235.6,235.6,0,0,0,20.39,23,22.37,22.37,0,0,0,18.12,33.63c4.95,15.48,39.39,13.57,63,9.62,2.12-.34,4.55-.78,7.22-1.33s5.08-1.08,7.16-1.6c23.06-5.56,55.1-17.12,54.26-33.05a22.37,22.37,0,0,0,3.46-40.41c3-7.63,6.61-16.25,9.78-27.23C274.31,80.08,249.72-7,162.06,1.42Z"/>
        <g>
          <g>
            <circle class="cls-14" cx="144.99" cy="129.48" r="26.41" transform="matrix(0.98, -0.2, 0.2, 0.98, -22.95, 31.58)"/>
            <circle class="cls-15" cx="145.4" cy="131.48" r="23.25" transform="translate(-23.34 31.7) rotate(-11.53)"/>
            <circle class="cls-16" cx="145.4" cy="131.48" r="18.34" transform="translate(-23.34 31.7) rotate(-11.53)"/>
            <circle class="cls-15" cx="151.39" cy="121.79" r="6.92" transform="translate(-21.28 32.7) rotate(-11.53)"/>
          </g>
          <g>
            <circle class="cls-14" cx="207.27" cy="116.78" r="26.41" transform="translate(-19.15 43.77) rotate(-11.53)"/>
            <circle class="cls-15" cx="207.68" cy="118.79" r="23.25" transform="translate(-19.55 43.89) rotate(-11.53)"/>
            <circle class="cls-16" cx="207.68" cy="118.79" r="18.34" transform="translate(-19.55 43.89) rotate(-11.53)"/>
            <circle class="cls-15" cx="213.67" cy="109.09" r="6.92" transform="translate(-17.49 44.89) rotate(-11.53)"/>
          </g>
          <g>
            <path class="cls-17" d="M149.64,171.73s35.42,13.79,68.17-13.9C217.81,157.83,195.79,223.91,149.64,171.73Z"/>
            <path class="cls-18" d="M143.23,173.61a8.68,8.68,0,0,0,9.75-7.2"/>
            <path class="cls-18" d="M225.22,156.89a8.68,8.68,0,0,1-11.79-2.8"/>
            <g class="cls-19">
              <path class="cls-20" d="M176.28,194.37s-2.23-8.15,3.59-9.33,7.36,1.94,7.36,1.94.1-4,6.47-5.25,7.9,11,7.9,11Z"/>
            </g>
          </g>
          <path class="cls-17" d="M120.75,90.3l27.83-5.67S132.4,76.33,120.75,90.3Z"/>
          <path class="cls-17" d="M187.89,68.26l27.83-5.67S199.53,54.29,187.89,68.26Z"/>
        </g>
      </g>
    </g>
  </g>
</svg>
