<svg xmlns="http://www.w3.org/2000/svg" xmlns:xlink="http://www.w3.org/1999/xlink" width="370" height="350" viewBox="0 0 370 350">
  <defs>
    <style>
      .cls-1, .cls-18 {
        fill: none;
      }

      .cls-2 {
        fill: #f7931e;
      }

      .cls-3 {
        clip-path: url(#clip-path);
      }

      .cls-4 {
        fill: #f15a24;
      }

      .cls-5 {
        fill: #d4555e;
      }

      .cls-6 {
        fill: #510706;
      }

      .cls-7 {
        clip-path: url(#clip-path-2);
      }

      .cls-8 {
        clip-path: url(#clip-path-3);
      }

      .cls-9 {
        clip-path: url(#clip-path-4);
      }

      .cls-10 {
        clip-path: url(#clip-path-5);
      }

      .cls-11 {
        clip-path: url(#clip-path-6);
      }

      .cls-12 {
        clip-path: url(#clip-path-7);
      }

      .cls-13 {
        clip-path: url(#clip-path-8);
      }

      .cls-14, .cls-17 {
        fill: #a81307;
      }

      .cls-15 {
        fill: #fff;
      }

      .cls-16 {
        fill: #231f20;
      }

      .cls-17, .cls-18 {
        stroke: #a81307;
        stroke-linecap: round;
        stroke-linejoin: round;
      }

      .cls-17 {
        stroke-width: 0.63px;
      }

      .cls-18 {
        stroke-width: 1.71px;
      }

      .cls-19 {
        clip-path: url(#clip-path-9);
      }

      .cls-20 {
        fill: #fa4316;
      }
    </style>
    <clipPath id="clip-path">
      <path class="cls-1" d="M349.89,199.42c1.89-2.55.4-6.68-2.94-6.88s-1.26-6.09,6.4-5.58,24.83,9.28,9.94,26.32-56.21,4.81-70-2.37c-8.85-3.82-66.38,15.49-64.43-7.65,0,0,8.17-18.83,26.69-18"/>
    </clipPath>
    <clipPath id="clip-path-2">
      <path class="cls-1" d="M318.28,259.06c2.8-1.48,3.25-5.86.32-7.48s1.5-6,8.18-2.26,18.38,19.11-2.42,28-52.76-20-62.1-32.4c-6.33-7.27-66.55-14.74-54.79-34.75,0,0,15.51-13.44,31.86-4.71"/>
    </clipPath>
    <clipPath id="clip-path-3">
      <path class="cls-1" d="M272.76,299.92c3.15-.35,5.17-4.25,3-6.84s3.61-5.06,8.44.9,10.08,24.52-12.54,25.19S230,281.24,225.84,266.24c-3.22-9.09-56.5-38.14-38.21-52.44,0,0,19.36-6.81,31.36,7.31"/>
    </clipPath>
    <clipPath id="clip-path-4">
      <path class="cls-1" d="M209.19,328.53c2.85,1.38,6.64-.85,6.21-4.18s5.75-2.37,6.67,5.25-4.5,26.13-24,14.67-15.2-54.33-10.71-69.22c2.11-9.41-27.58-62.34-4.49-64.73,0,0,20,4.52,22.67,22.87"/>
    </clipPath>
    <clipPath id="clip-path-5">
      <path class="cls-1" d="M19.31,138.64c-.86-3.05,2-6.39,5.2-5.39s3.34-5.24-4-7.49S-6,125.61,1.86,146.83s50.82,24.49,66.27,22.69c9.63-.42,56.53,38.09,62.93,15.77,0,0-.94-20.5-18.53-26.33"/>
    </clipPath>
    <clipPath id="clip-path-6">
      <path class="cls-1" d="M27.64,205.62c-2.09-2.38-1-6.63,2.36-7.1s.75-6.17-6.85-5-24,11.32-7.71,27.06,56.41.11,69.56-8.2c8.5-4.55,67.44,9.9,63.57-13,0,0-9.72-18.08-28.1-15.73"/>
    </clipPath>
    <clipPath id="clip-path-7">
      <path class="cls-1" d="M55.65,260c-2.82-1.45-3.32-5.82-.41-7.48s-1.57-6-8.21-2.16-18.15,19.33,2.76,28,52.52-20.6,61.7-33.15c6.24-7.35,66.37-15.55,54.36-35.41,0,0-15.67-13.25-31.91-4.32"/>
    </clipPath>
    <clipPath id="clip-path-8">
      <path class="cls-1" d="M104.89,309.36c-3.16.27-5.9-3.16-4.32-6.11S96,299,92.46,305.78s-5.09,26,17.22,22.25,33.53-45.37,34.63-60.88c1.38-9.54,47.95-48.45,27.22-58.9,0,0-20.32-2.89-29.32,13.31"/>
    </clipPath>
    <clipPath id="clip-path-9">
      <path class="cls-1" d="M150.94,160.73s27.7,26,68.43,12.58C219.37,173.31,174.24,226.37,150.94,160.73Z"/>
    </clipPath>
  </defs>
  <title>17_highlight_the_small_octopus</title>
  <g id="character">
    <g>
      <g>
        <g>
          <path class="cls-2" d="M228.86,203.28s8.17-18.83,26.69-18,18.63-2.37,34.15,0c18.18,2.82,41.47,28.34,60.19,14.13,1.89-2.55.4-6.68-2.94-6.88s-1.26-6.09,6.4-5.58,24.83,9.28,9.94,26.32-56.21,4.81-70-2.37C284.44,207.1,226.91,226.41,228.86,203.28Z"/>
          <g class="cls-3">
            <path class="cls-4" d="M374.76,198.41s-5.1,19.59-36.19,16.3-66-31.39-111.86,3.36c0,0,55.54,2.43,58.44,1.39S365.25,248.56,374.76,198.41Z"/>
          </g>
          <g>
            <g>
              <circle class="cls-5" cx="358.75" cy="217.13" r="4.31" transform="translate(-58 263.68) rotate(-37.56)"/>
              <circle class="cls-6" cx="357.5" cy="217.92" r="2.64" transform="translate(-58.74 263.09) rotate(-37.56)"/>
            </g>
            <g>
              <circle class="cls-5" cx="334.65" cy="221.71" r="4.31" transform="translate(-65.78 249.94) rotate(-37.56)"/>
              <circle class="cls-6" cx="333.41" cy="222.5" r="2.64" transform="translate(-66.52 249.35) rotate(-37.56)"/>
            </g>
            <g>
              <circle class="cls-5" cx="307.37" cy="216.81" r="4.31" transform="translate(-68.45 232.29) rotate(-37.56)"/>
              <circle class="cls-6" cx="306.12" cy="217.6" r="2.64" transform="translate(-69.19 231.7) rotate(-37.56)"/>
            </g>
            <g>
              <circle class="cls-5" cx="285.02" cy="211" r="4.31" transform="translate(-69.54 217.47) rotate(-37.56)"/>
              <circle class="cls-6" cx="283.77" cy="211.79" r="2.64" transform="translate(-70.28 216.87) rotate(-37.56)"/>
            </g>
            <g>
              <circle class="cls-5" cx="262.43" cy="213.59" r="4.31" transform="translate(-75.81 204.24) rotate(-37.56)"/>
              <circle class="cls-6" cx="261.18" cy="214.38" r="2.64" transform="translate(-76.55 203.64) rotate(-37.56)"/>
            </g>
          </g>
        </g>
        <g>
          <path class="cls-2" d="M207.48,210.2s15.51-13.44,31.86-4.71,17.82,5.92,30.78,14.8c15.17,10.41,25.14,43.48,48.16,38.76,2.8-1.48,3.25-5.86.32-7.48s1.5-6,8.18-2.26,18.38,19.11-2.42,28-52.76-20-62.1-32.4C255.94,237.68,195.72,230.21,207.48,210.2Z"/>
          <g class="cls-7">
            <path class="cls-4" d="M341.14,268.9s-13.07,15.46-39.67-1-45.91-56.83-102.32-45.34c0,0,49,26.21,52.09,26.52S310.88,310,341.14,268.9Z"/>
          </g>
          <g>
            <g>
              <circle class="cls-5" cx="318.61" cy="278.85" r="4.31" transform="translate(-50.79 71.94) rotate(-11.94)"/>
              <circle class="cls-6" cx="317.15" cy="279.02" r="2.64" transform="translate(-50.86 71.64) rotate(-11.94)"/>
            </g>
            <g>
              <circle class="cls-5" cx="294.9" cy="272.56" r="4.31" transform="translate(-50 66.9) rotate(-11.94)"/>
              <circle class="cls-6" cx="293.44" cy="272.74" r="2.64" transform="translate(-50.07 66.6) rotate(-11.94)"/>
            </g>
            <g>
              <circle class="cls-5" cx="272.42" cy="256.35" r="4.31" transform="translate(-47.14 61.9) rotate(-11.94)"/>
              <circle class="cls-6" cx="270.95" cy="256.52" r="2.64" transform="translate(-47.2 61.6) rotate(-11.94)"/>
            </g>
            <g>
              <circle class="cls-5" cx="254.78" cy="241.44" r="4.31" transform="translate(-44.43 57.92) rotate(-11.94)"/>
              <circle class="cls-6" cx="253.31" cy="241.62" r="2.64" transform="translate(-44.5 57.63) rotate(-11.94)"/>
            </g>
            <g>
              <circle class="cls-5" cx="233.29" cy="234.02" r="4.31" transform="translate(-43.36 53.32) rotate(-11.94)"/>
              <circle class="cls-6" cx="231.82" cy="234.19" r="2.64" transform="translate(-43.43 53.02) rotate(-11.94)"/>
            </g>
          </g>
        </g>
        <g>
          <path class="cls-2" d="M187.63,213.8S207,207,219,221.12s14.41,12,23.2,25.07c10.29,15.25,7.43,49.68,30.58,53.73,3.15-.35,5.17-4.25,3-6.84s3.61-5.06,8.44.9,10.08,24.52-12.54,25.19S230,281.24,225.84,266.24C222.62,257.15,169.34,228.1,187.63,213.8Z"/>
          <g class="cls-8">
            <path class="cls-4" d="M290.41,317.47s-17.83,9.59-36.56-15.45S232,232.31,175.32,222.29c0,0,36,42.38,38.72,43.79S247.17,344.59,290.41,317.47Z"/>
          </g>
          <g>
            <g>
              <circle class="cls-5" cx="265.8" cy="318.45" r="4.31" transform="translate(-92.49 527.46) rotate(-80.41)"/>
              <circle class="cls-6" cx="264.37" cy="318.07" r="2.64" transform="translate(-93.31 525.74) rotate(-80.41)"/>
            </g>
            <g>
              <circle class="cls-5" cx="246.06" cy="303.9" r="4.31" transform="translate(-94.6 495.87) rotate(-80.41)"/>
              <circle class="cls-6" cx="244.63" cy="303.52" r="2.64" transform="translate(-95.42 494.15) rotate(-80.41)"/>
            </g>
            <g>
              <circle class="cls-5" cx="231.09" cy="280.56" r="4.31" transform="translate(-84.06 461.66) rotate(-80.41)"/>
              <circle class="cls-6" cx="229.66" cy="280.19" r="2.64" transform="translate(-84.88 459.94) rotate(-80.41)"/>
            </g>
            <g>
              <circle class="cls-5" cx="220.15" cy="260.22" r="4.31" transform="translate(-73.12 433.93) rotate(-80.41)"/>
              <circle class="cls-6" cx="218.73" cy="259.85" r="2.64" transform="translate(-73.94 432.21) rotate(-80.41)"/>
            </g>
            <g>
              <circle class="cls-5" cx="202.89" cy="245.43" r="4.31" transform="translate(-72.92 404.58) rotate(-80.41)"/>
              <circle class="cls-6" cx="201.46" cy="245.05" r="2.64" transform="translate(-73.74 402.86) rotate(-80.41)"/>
            </g>
          </g>
        </g>
        <g>
          <path class="cls-2" d="M182.87,210.34s20,4.52,22.67,22.87,5.8,17.86,6.32,33.56c.61,18.39-20.12,46-2.67,61.77,2.85,1.38,6.64-.85,6.21-4.18s5.75-2.37,6.67,5.25-4.5,26.13-24,14.67-15.2-54.33-10.71-69.22C189.46,265.65,159.78,212.73,182.87,210.34Z"/>
          <g class="cls-9">
            <path class="cls-4" d="M214.81,352.78s-20.2-1.36-22.75-32.52S210.62,249.6,167.93,211c0,0,8,55,9.52,57.68S163.77,352.77,214.81,352.78Z"/>
          </g>
          <g>
            <g>
              <circle class="cls-5" cx="193.45" cy="340.53" r="4.31" transform="translate(-189.48 258.37) rotate(-48.29)"/>
              <circle class="cls-6" cx="192.44" cy="339.45" r="2.64" transform="translate(-189.01 257.25) rotate(-48.29)"/>
            </g>
            <g>
              <circle class="cls-5" cx="184.46" cy="317.71" r="4.31" transform="translate(-175.45 244.02) rotate(-48.29)"/>
              <circle class="cls-6" cx="183.45" cy="316.63" r="2.64" transform="translate(-174.98 242.91) rotate(-48.29)"/>
            </g>
            <g>
              <circle class="cls-5" cx="184.19" cy="289.99" r="4.31" transform="translate(-154.85 234.54) rotate(-48.29)"/>
              <circle class="cls-6" cx="183.18" cy="288.91" r="2.64" transform="translate(-154.38 233.43) rotate(-48.29)"/>
            </g>
            <g>
              <circle class="cls-5" cx="185.74" cy="266.95" r="4.31" transform="translate(-137.13 227.99) rotate(-48.29)"/>
              <circle class="cls-6" cx="184.73" cy="265.87" r="2.64" transform="translate(-136.66 226.88) rotate(-48.29)"/>
            </g>
            <g>
              <circle class="cls-5" cx="178.98" cy="245.24" r="4.31" transform="translate(-123.18 215.68) rotate(-48.29)"/>
              <circle class="cls-6" cx="177.97" cy="244.16" r="2.64" transform="translate(-122.71 214.57) rotate(-48.29)"/>
            </g>
          </g>
        </g>
      </g>
      <g>
        <g>
          <path class="cls-2" d="M131.06,185.29s-.94-20.5-18.53-26.33S96,150.12,80.59,146.85c-18-3.83-48.84,11.73-61.28-8.21-.86-3.05,2-6.39,5.2-5.39s3.34-5.24-4-7.49S-6,125.61,1.86,146.83s50.82,24.49,66.27,22.69C77.76,169.1,124.65,207.6,131.06,185.29Z"/>
          <g class="cls-10">
            <path class="cls-4" d="M-3.57,128.85S-5.78,149,24.45,157s72.82-5.87,103.35,42.93c0,0-52.78-17.48-55.11-19.49S-12.52,179.1-3.57,128.85Z"/>
          </g>
          <g>
            <g>
              <circle class="cls-5" cx="4.74" cy="152.03" r="4.31" transform="translate(-78.97 25.03) rotate(-31.6)"/>
              <circle class="cls-6" cx="5.62" cy="153.21" r="2.64" transform="matrix(0.85, -0.52, 0.52, 0.85, -79.46, 25.67)"/>
            </g>
            <g>
              <circle class="cls-5" cx="25.63" cy="164.88" r="4.31" transform="translate(-82.61 37.89) rotate(-31.6)"/>
              <circle class="cls-6" cx="26.51" cy="166.07" r="2.64" transform="translate(-83.09 38.52) rotate(-31.6)"/>
            </g>
            <g>
              <circle class="cls-5" cx="52.87" cy="170.02" r="4.31" transform="translate(-81.25 52.92) rotate(-31.6)"/>
              <circle class="cls-6" cx="53.76" cy="171.2" r="2.64" transform="translate(-81.74 53.56) rotate(-31.6)"/>
            </g>
            <g>
              <circle class="cls-5" cx="75.83" cy="172.53" r="4.31" transform="translate(-79.17 65.33) rotate(-31.6)"/>
              <circle class="cls-6" cx="76.71" cy="173.71" r="2.64" transform="translate(-79.66 65.97) rotate(-31.6)"/>
            </g>
            <g>
              <circle class="cls-5" cx="96.02" cy="182.99" r="4.31" transform="translate(-81.66 77.46) rotate(-31.6)"/>
              <circle class="cls-6" cx="96.9" cy="184.18" r="2.64" transform="translate(-82.15 78.1) rotate(-31.6)"/>
            </g>
          </g>
        </g>
        <g>
          <path class="cls-2" d="M148.57,199.37s-9.72-18.08-28.1-15.73-18.76-.81-34,2.89c-17.88,4.33-39,31.7-58.8,19.09-2.09-2.38-1-6.63,2.36-7.1s.75-6.17-6.85-5-24,11.32-7.71,27.06,56.41.11,69.56-8.2C93.51,207.81,152.45,222.26,148.57,199.37Z"/>
          <g class="cls-11">
            <path class="cls-4" d="M2.78,206.69s6.71,19.1,37.42,13.22,63.12-36.78,111.76-6c0,0-55.15,7.06-58.12,6.26S16.44,255.87,2.78,206.69Z"/>
          </g>
          <g>
            <g>
              <circle class="cls-5" cx="20.3" cy="224" r="4.31" transform="translate(-179.03 119.8) rotate(-57.22)"/>
              <circle class="cls-6" cx="21.6" cy="224.68" r="2.64" transform="translate(-179 121.21) rotate(-57.22)"/>
            </g>
            <g>
              <circle class="cls-5" cx="44.69" cy="226.55" r="4.31" transform="translate(-169.99 141.48) rotate(-57.22)"/>
              <circle class="cls-6" cx="46" cy="227.24" r="2.64" transform="translate(-169.96 142.89) rotate(-57.22)"/>
            </g>
            <g>
              <circle class="cls-5" cx="71.47" cy="219.4" r="4.31" transform="translate(-151.69 160.72) rotate(-57.22)"/>
              <circle class="cls-6" cx="72.78" cy="220.08" r="2.64" transform="translate(-151.66 162.13) rotate(-57.22)"/>
            </g>
            <g>
              <circle class="cls-5" cx="93.26" cy="211.74" r="4.31" transform="translate(-135.26 175.53) rotate(-57.22)"/>
              <circle class="cls-6" cx="94.57" cy="212.43" r="2.64" transform="translate(-135.23 176.94) rotate(-57.22)"/>
            </g>
            <g>
              <circle class="cls-5" cx="115.99" cy="212.45" r="4.31" transform="translate(-125.43 194.96) rotate(-57.22)"/>
              <circle class="cls-6" cx="117.29" cy="213.13" r="2.64" transform="translate(-125.4 196.37) rotate(-57.22)"/>
            </g>
          </g>
        </g>
        <g>
          <path class="cls-2" d="M165.85,209.8s-15.67-13.25-31.91-4.32-17.75,6.13-30.6,15.18c-15,10.59-24.62,43.79-47.69,39.34-2.82-1.45-3.32-5.82-.41-7.48s-1.57-6-8.21-2.16-18.15,19.33,2.76,28,52.52-20.6,61.7-33.15C117.73,237.86,177.86,229.67,165.85,209.8Z"/>
          <g class="cls-12">
            <path class="cls-4" d="M32.92,270.12s13.25,15.3,39.66-1.43,45.22-57.38,101.76-46.58c0,0-48.71,26.8-51.77,27.15S63.68,310.85,32.92,270.12Z"/>
          </g>
          <g>
            <g>
              <circle class="cls-5" cx="55.57" cy="279.79" r="4.31" transform="translate(-229.69 279.74) rotate(-78.76)"/>
              <circle class="cls-6" cx="57.03" cy="279.95" r="2.64" transform="translate(-228.66 281.3) rotate(-78.76)"/>
            </g>
            <g>
              <circle class="cls-5" cx="79.19" cy="273.22" r="4.31" transform="translate(-204.22 297.62) rotate(-78.76)"/>
              <circle class="cls-6" cx="80.66" cy="273.37" r="2.64" transform="translate(-203.19 299.18) rotate(-78.76)"/>
            </g>
            <g>
              <circle class="cls-5" cx="101.48" cy="256.73" r="4.31" transform="translate(-170.11 306.21) rotate(-78.76)"/>
              <circle class="cls-6" cx="102.95" cy="256.89" r="2.64" transform="translate(-169.08 307.77) rotate(-78.76)"/>
            </g>
            <g>
              <circle class="cls-5" cx="118.94" cy="241.61" r="4.31" transform="translate(-141.23 311.16) rotate(-78.76)"/>
              <circle class="cls-6" cx="120.41" cy="241.77" r="2.64" transform="translate(-140.2 312.72) rotate(-78.76)"/>
            </g>
            <g>
              <circle class="cls-5" cx="140.34" cy="233.93" r="4.31" transform="translate(-116.46 325.96) rotate(-78.76)"/>
              <circle class="cls-6" cx="141.8" cy="234.08" r="2.64" transform="translate(-115.44 327.52) rotate(-78.76)"/>
            </g>
          </g>
        </g>
        <g>
          <path class="cls-2" d="M171.53,208.25s-20.32-2.89-29.32,13.31-11.77,14.63-17.85,29.12c-7.11,17,2.43,50.17-19.48,58.68-3.16.27-5.9-3.16-4.32-6.11S96,299,92.46,305.78s-5.09,26,17.22,22.25,33.53-45.37,34.63-60.88C145.69,257.61,192.26,218.7,171.53,208.25Z"/>
          <g class="cls-13">
            <path class="cls-4" d="M91,330s19.36,5.91,32.83-22.3,7.79-72.64,61.43-93.55c0,0-27,48.6-29.41,50.52S138.72,348.16,91,330Z"/>
          </g>
          <g>
            <g>
              <circle class="cls-5" cx="115.33" cy="326.17" r="4.31" transform="translate(-108.64 62.5) rotate(-20.87)"/>
              <circle class="cls-6" cx="116.66" cy="325.52" r="2.64" transform="translate(-108.32 62.93) rotate(-20.87)"/>
            </g>
            <g>
              <circle class="cls-5" cx="131.85" cy="308.04" r="4.31" transform="translate(-101.1 67.19) rotate(-20.87)"/>
              <circle class="cls-6" cx="133.18" cy="307.39" r="2.64" transform="translate(-100.78 67.62) rotate(-20.87)"/>
            </g>
            <g>
              <circle class="cls-5" cx="141.96" cy="282.22" r="4.31" transform="translate(-91.24 69.1) rotate(-20.87)"/>
              <circle class="cls-6" cx="143.29" cy="281.58" r="2.64" transform="translate(-90.92 69.53) rotate(-20.87)"/>
            </g>
            <g>
              <circle class="cls-5" cx="148.71" cy="260.14" r="4.31" transform="translate(-82.92 70.06) rotate(-20.87)"/>
              <circle class="cls-6" cx="150.04" cy="259.49" r="2.64" transform="matrix(0.93, -0.36, 0.36, 0.93, -82.61, 70.48)"/>
            </g>
            <g>
              <circle class="cls-5" cx="162.75" cy="242.25" r="4.31" transform="translate(-75.63 73.88) rotate(-20.87)"/>
              <circle class="cls-6" cx="164.08" cy="241.6" r="2.64" transform="translate(-75.31 74.31) rotate(-20.87)"/>
            </g>
          </g>
        </g>
      </g>
      <g>
        <path class="cls-2" d="M226.11,7.39a140.64,140.64,0,0,0-25.27-4.65c-87.52-9.36-110,80.54-102.08,108.67a235.6,235.6,0,0,0,10.33,28.93,22.37,22.37,0,0,0,4.24,38c-1.2,16.2,31.47,27.3,54.86,32.47,2.09.48,4.52,1,7.19,1.46s5.11.89,7.24,1.19c23.47,3.46,57.51,4.71,62.68-10.38a22.37,22.37,0,0,0,18.31-36.19c5.62-6,12.2-12.6,19.25-21.6C300.82,122.31,310.57,32.33,226.11,7.39Z"/>
        <g>
          <g>
            <circle class="cls-14" cx="162.41" cy="119.79" r="26.41" transform="matrix(0.18, -0.98, 0.98, 0.18, 15.22, 257.86)"/>
            <circle class="cls-15" cx="162.04" cy="121.81" r="23.25" transform="translate(12.94 259.15) rotate(-79.58)"/>
            <circle class="cls-16" cx="162.04" cy="121.81" r="18.34" transform="translate(12.94 259.15) rotate(-79.58)"/>
            <circle class="cls-15" cx="171.22" cy="115.05" r="6.92" transform="translate(27.1 262.64) rotate(-79.58)"/>
          </g>
          <g>
            <circle class="cls-14" cx="224.93" cy="131.29" r="26.41" transform="translate(55.13 328.76) rotate(-79.58)"/>
            <circle class="cls-15" cx="224.56" cy="133.3" r="23.25" transform="translate(52.84 330.05) rotate(-79.58)"/>
            <circle class="cls-16" cx="224.56" cy="133.3" r="18.34" transform="translate(52.84 330.05) rotate(-79.58)"/>
            <circle class="cls-15" cx="233.74" cy="126.55" r="6.92" transform="translate(67.01 333.54) rotate(-79.58)"/>
          </g>
          <g>
            <path class="cls-17" d="M150.94,160.73s27.7,26,68.43,12.58C219.37,173.31,174.24,226.37,150.94,160.73Z"/>
            <path class="cls-18" d="M144.29,160.07A8.68,8.68,0,0,0,156,157"/>
            <path class="cls-18" d="M226.59,175.2a8.68,8.68,0,0,1-9.89-7"/>
            <g class="cls-19">
              <path class="cls-20" d="M167.19,191.68s1-8.39,6.81-7.32,6.1,4.55,6.1,4.55,1.57-3.63,8-2.45,3.21,13.16,3.21,13.16Z"/>
            </g>
          </g>
          <path class="cls-17" d="M154.58,74.4l27.93,5.14S170.6,65.79,154.58,74.4Z"/>
          <path class="cls-17" d="M225.08,79,253,84.18S241.1,70.44,225.08,79Z"/>
        </g>
      </g>
    </g>
  </g>
</svg>
