<svg id="Layer_1" data-name="Layer 1" xmlns="http://www.w3.org/2000/svg" xmlns:xlink="http://www.w3.org/1999/xlink" viewBox="0 0 260 168"><defs><style>.cls-1{fill:#a8a3a0;}.cls-2{fill:#9b9491;}.cls-3{clip-path:url(#clip-path);}.cls-4{clip-path:url(#clip-path-2);}.cls-5{fill:#8e8785;}</style><clipPath id="clip-path"><ellipse class="cls-1" cx="50.76" cy="84.52" rx="3.95" ry="1.87"/></clipPath><clipPath id="clip-path-2"><path class="cls-2" d="M46,83.47l3.07,1.32,1,.93,2.41-.82,1.21-.11,2.08-.88L56.7,86s-7.3,1.42-7.47,1.31-3-1.15-3-1.15Z"/></clipPath></defs><ellipse class="cls-1" cx="50.76" cy="84.52" rx="3.95" ry="1.87"/><g class="cls-3"><path class="cls-2" d="M46,83.47l3.07,1.32,1,.93,2.41-.82,1.21-.11,2.08-.88L56.7,86s-7.3,1.42-7.47,1.31-3-1.15-3-1.15Z"/><g class="cls-4"><polygon class="cls-5" points="47.72 87.53 49.25 84.46 45.89 83 44.79 86.18 47.72 87.53"/><path class="cls-5" d="M49.73,88.22c.05-.17.44-3,.44-3l1.51-.47-.09,2.42Z"/><polygon class="cls-5" points="53.24 87.07 53.65 84.43 55.57 83.61 55.24 87.15 53.24 87.07"/></g></g></svg>