<svg id="Layer_1" data-name="Layer 1" xmlns="http://www.w3.org/2000/svg" xmlns:xlink="http://www.w3.org/1999/xlink" viewBox="0 0 260 168"><defs><style>.cls-1{fill:red;}.cls-2{fill:url(#linear-gradient);}.cls-3{fill:url(#linear-gradient-2);}</style><linearGradient id="linear-gradient" x1="3700.35" y1="-28.9" x2="3700.35" y2="-31.15" gradientTransform="matrix(-0.96, -0.27, -0.27, 0.96, 3640.72, 1144.67)" gradientUnits="userSpaceOnUse"><stop offset="0" stop-color="#379e56"/><stop offset="0.26" stop-color="#40a256"/><stop offset="0.69" stop-color="#5aad56"/><stop offset="1" stop-color="#70b756"/></linearGradient><linearGradient id="linear-gradient-2" x1="3700.61" y1="-31.86" x2="3701.36" y2="-34.92" xlink:href="#linear-gradient"/></defs><path class="cls-1" d="M86.36,116.33s4.78-.31,4.43,4.87-5.77,5-7.11,4.68-5.56-2.08-5-5.64,2-5,4.28-5.11A4.44,4.44,0,0,1,86.36,116.33Z"/><path class="cls-2" d="M85.75,116.65s-.85-.52.09-2.14a1.72,1.72,0,0,0-.78,1.65,1.89,1.89,0,0,1-1.16-1.51s-.57.83.86,1.84c0,0-1.3-.08-1.53.74A2.17,2.17,0,0,1,85,117s-.7.66-.6,1.26c0,0,.61-.93,1.32-.93a1.24,1.24,0,0,1,.49,1.64,1.15,1.15,0,0,0,.22-1.49,2.51,2.51,0,0,1,1.45,1.18,1.31,1.31,0,0,0-.74-1.3A1.34,1.34,0,0,0,88.67,116s-.83,1.28-1.76.93c0,0,1.12-1,.67-1.89,0,0-.66,1.79-1.46,1.68A.34.34,0,0,1,85.75,116.65Z"/><path class="cls-3" d="M86.7,113.43a5.61,5.61,0,0,1-.78,3.71s-.34.17-.32-.16a11.54,11.54,0,0,0,.8-3.32S86.53,113.09,86.7,113.43Z"/></svg>