<svg xmlns="http://www.w3.org/2000/svg" xmlns:xlink="http://www.w3.org/1999/xlink" viewBox="0 0 260 168"><defs><style>.cls-1{fill:#7f4709;}.cls-2{fill:#fff;}.cls-3{clip-path:url(#clip-path);}.cls-4{fill:#753f0a;}.cls-5{fill:#9b540d;}.cls-6{fill:#a0631a;}.cls-7{fill:#f4cd60;}.cls-8{fill:#e5b233;}.cls-9{clip-path:url(#clip-path-2);}</style><clipPath id="clip-path"><path class="cls-1" d="M218.16,69.38s-50.42,1.39-54.54,1.8-23.46,2.06-23.46,2.06l-23,.82-15.23-.41H81.31s-18.52-.83-20.58-.83L39.54,69.38s-3.91.15-7.2,4.88a23.71,23.71,0,0,0-3.91,9.47l-3.5,9.67S23.49,107,26.16,111.51s1,10.7,1,10.7,2.88,10.5,7.2,12.14l4.53,3.09,5.56.82,66.88.62,16-2.06,37.45.21,33.54,1,19.76-2.12,6-51.59Z"/></clipPath><clipPath id="clip-path-2"><path class="cls-1" d="M66.08,73.37l-8.64-9.05-1.1-7-2.88-10.7,1.37-9S52,43.88,51.54,45.94s-8.23-.83-8.64-1.24a29.1,29.1,0,0,0-3.71-1.78s-.82,2,3,3.84,6.31,3,6.31,3a4.78,4.78,0,0,1,2.34,3.43C51,55.4,52,64.32,52,64.32l1.79,8.37S56.75,75.84,66.08,73.37Z"/></clipPath></defs><g id="Layer_3" data-name="Layer 3"><path class="cls-2" d="M14.15,153.66"/><path class="cls-2" d="M78,33.22c22.46,0,41.27,16.07,46.25,37.67a29.09,29.09,0,0,0,13,3.68,23.58,23.58,0,0,1-11.92,3.28c.13,1.46.2,2.94.2,4.43,0,27.1-21.29,49.07-47.55,49.07s-47.54-22-47.54-49.07S51.72,33.22,78,33.22Z"/><path class="cls-1" d="M218.16,69.38s-50.42,1.39-54.54,1.8-23.46,2.06-23.46,2.06l-23,.82-15.23-.41H81.31s-18.52-.83-20.58-.83L39.54,69.38s-3.91.15-7.2,4.88a23.71,23.71,0,0,0-3.91,9.47l-3.5,9.67S23.49,107,26.16,111.51s1,10.7,1,10.7,2.88,10.5,7.2,12.14l4.53,3.09,5.56.82,66.88.62,16-2.06,37.45.21,33.54,1,19.76-2.12,6-51.59Z"/><g class="cls-3"><polygon class="cls-4" points="16.28 107.26 65.4 111.92 102.16 113.29 20.95 119.33 16.28 107.26"/><polygon class="cls-4" points="20.95 79 48.94 83.94 82.13 84.76 113.14 86.41 119.45 88.05 72.26 90.25 48.39 89.42 28.63 88.6 16.56 88.33 20.95 79"/><path class="cls-4" d="M27.53,127.29,76.92,127l33.47,4.39,12.08,1.65,20.3-1.92L159,133.87h16.46l32.93-.55,5.48-2.74,42.26,5.76-16.19,17-163.25,1.1s-22.5-.82-43.08-1.92S2,151.71,2,151.71Z"/><polygon class="cls-4" points="235.24 67.2 209.44 74.33 160.88 77.35 178.44 79.27 180.91 81.47 217.68 82.56 246.49 72.41 235.24 67.2"/><path class="cls-4" d="M41.79,96.22c10.5-1.32,21,0,31.45,1.37,5.25.68,10.5,1.35,15.78,1.67s10.57.17,15.85.13a82.59,82.59,0,0,1,17.84,1.31c1.18.25,1.68-1.55.5-1.8-10.48-2.22-21.18-1-31.79-1.39s-21-2.44-31.54-3.31a86.81,86.81,0,0,0-18.09.14c-1.18.15-1.19,2,0,1.88Z"/><path class="cls-4" d="M192.7,103c-13.13.5-26.26,1-39.39,1.52a154.94,154.94,0,0,0-18.86,2c-6.54,1.07-13.11.32-19.7.16q-11.1-.27-22.2.41c-1.2.07-1.21,2,0,1.87q9.86-.59,19.73-.45c6.49.1,13.12,1,19.58.26,3.18-.36,6.3-1.06,9.47-1.45s6.38-.61,9.57-.77c6.54-.31,13.07-.52,19.61-.77l22.19-.86c1.21,0,1.21-1.92,0-1.87Z"/><path class="cls-4" d="M145,81.68a62.89,62.89,0,0,0-10.43.84c-2.89.48-6.32.93-8.56,3a5,5,0,0,0-.94,6.69c1.68,2.25,4.58,2.62,7.2,2.53a107.13,107.13,0,0,0,20.19-2.45c1.59-.36,3.17-.77,4.72-1.26a5.4,5.4,0,0,0,3.26-2.15,2.89,2.89,0,0,0,0-3.05c-.69-1.06-2-1.38-3.2-1.66a26.82,26.82,0,0,0-19.66,3,1,1,0,0,0-.43,1.06c.49,1.77,2.37,2.19,4,2.12a32.77,32.77,0,0,0,7.91-1.47.94.94,0,0,0-.5-1.81A33.29,33.29,0,0,1,143,88.33c-.87.11-3.68.7-4-.57l-.43,1.06a25,25,0,0,1,13.92-3.43c1.12.06,6.84.3,6.53,2.14-.22,1.3-2.14,1.67-3.17,2-1.28.37-2.56.71-3.86,1a102.7,102.7,0,0,1-16,2.17c-2.45.16-5.51.73-7.82-.35a3.15,3.15,0,0,1-.8-5.46c2.06-1.89,5.57-2.2,8.21-2.62a60,60,0,0,1,9.46-.69.94.94,0,0,0,0-1.88Z"/><path class="cls-4" d="M194.05,115.94c-15.93-.75-32.06-1.48-47.84,1.37a96.88,96.88,0,0,0-11.53,2.81,42,42,0,0,1-12.05,2.22,208.76,208.76,0,0,1-25-1.1c-9.07-1-18.26-2.1-27.29-.16-1.18.26-.68,2.06.5,1.81,8-1.73,16.3-.92,24.4,0a239.77,239.77,0,0,0,24.84,1.35,41.62,41.62,0,0,0,11.51-1.2c3.83-1.06,7.58-2.32,11.47-3.17a126.74,126.74,0,0,1,24-2.64c9-.22,18,.19,27,.62,1.21.05,1.21-1.82,0-1.88Z"/><path class="cls-4" d="M199.82,122.54c-13.46-2-26.48,2.83-39.78,4-1.19.1-1.2,2,0,1.87,13.07-1.12,26.06-6,39.29-4,1.18.18,1.69-1.63.49-1.8Z"/><path class="cls-4" d="M32.14,102.52c4,1.67,8.46,1.82,12.75,2.16l14.19,1.13c1.2.09,1.19-1.78,0-1.88l-13.69-1.08c-4.3-.34-8.71-.47-12.75-2.14-1.11-.46-1.6,1.36-.5,1.81Z"/><path class="cls-5" d="M17.93,65.55,54.15,76l25,1.92L117,77.63l47.19-3.57,34.3-2.47,23.32.82,10.15-16.73S92,26.59,69,26.87,17.93,65.55,17.93,65.55Z"/><polyline class="cls-5" points="17.38 93.81 56.89 91.89 61.01 90.52 15.73 87.23 11.62 91.07"/><ellipse class="cls-5" cx="183.65" cy="85.72" rx="13.72" ry="1.51"/></g><polygon class="cls-4" points="205.05 93.68 161.02 95.32 151.28 95.19 191.06 90.25 205.88 90.93 205.05 93.68"/><polyline class="cls-4" points="208.21 127.7 185.16 132.5 211.09 131.4 211.23 127.56 208.48 127.01"/><ellipse class="cls-6" cx="218.16" cy="102.66" rx="13.56" ry="33.28"/><ellipse class="cls-7" cx="218.16" cy="102.66" rx="11.32" ry="27.78"/><path class="cls-6" d="M204.6,102.66l-1.33,5.56,1.78,3.43.55,5.35a44.9,44.9,0,0,0,.83,4.94c.27.55,1.78,5.76,1.78,5.76l2.88,2.61L207,113.16Z"/><path class="cls-6" d="M215.75,69.94l-6.31,4.39-1.37,6.18-2.74,5.21s-.55,3.84-.55,4.8.82,6.17.82,6.17l3.3-16.59,7-8.24Z"/><path class="cls-8" d="M219.56,78.39a15.44,15.44,0,0,1,5.13,7.12,45.38,45.38,0,0,1,2.58,9,49.57,49.57,0,0,1-.23,19,48.49,48.49,0,0,1-3.34,10.24c-.25.54.56,1,.81.47a50.1,50.1,0,0,0,1.23-38.55c-1.22-3.11-2.91-6.11-5.71-8-.5-.35-1,.47-.47.81Z"/><path class="cls-8" d="M215.65,78.92c-4.35,5.78-5.8,13-6.34,20.11-.29,3.83-.4,7.7-.35,11.55A28.37,28.37,0,0,0,211.07,122a15.88,15.88,0,0,0,2.88,4.36c1.06,1.13,2.46,2.42,4.13,2.16a4.86,4.86,0,0,0,3.15-2.68,23.78,23.78,0,0,0,1.82-4.94,54.39,54.39,0,0,0,1.83-23.34,44.39,44.39,0,0,0-1.24-5.69,27.88,27.88,0,0,0-2-5.32,4.57,4.57,0,0,0-3.72-2.7c-1.8,0-2.87,1.55-3.69,2.93-3.78,6.41-4.11,14.15-3.84,21.4.13,3.47.11,7.22,1.53,10.46a7,7,0,0,0,3.31,3.72,3.08,3.08,0,0,0,3.93-1.25c4.76-6.56,3.79-15.4,2.18-22.83-.35-1.61-.53-3.62-1.64-4.93s-2.5-.75-3.48.34c-2.3,2.58-2.65,6.25-2.69,9.55a51.63,51.63,0,0,0,.36,6.58c.13,1,.27,2.1.47,3.13.13.65.4,1.34,1.11,1.51a2.06,2.06,0,0,0,1.87-.86,18.16,18.16,0,0,0,1.57-2.32,13.61,13.61,0,0,0,2.13-5.27,7.34,7.34,0,0,0-.88-4.79.47.47,0,0,0-.73-.09,6.12,6.12,0,0,0-2.19,4.8.47.47,0,0,0,.93,0,5.26,5.26,0,0,1,1.92-4.14l-.74-.09c1.92,3.19.2,6.87-1.6,9.67a7.57,7.57,0,0,1-1.41,1.9c-1.06.85-1.13-.82-1.24-1.53a49.17,49.17,0,0,1-.59-5.94c-.13-3.17-.22-6.74,1.21-9.67.45-.93,1.91-3.51,3.17-2.28a3.76,3.76,0,0,1,.84,1.65c.26.91.45,1.86.65,2.8,1.51,6.88,2.47,14.62-1.2,21a7.91,7.91,0,0,1-1.32,1.87,2.07,2.07,0,0,1-2.5.19,6.67,6.67,0,0,1-2.8-3.66c-1.14-3-1.12-6.46-1.23-9.66-.24-6.48,0-13.34,2.88-19.28a23.2,23.2,0,0,1,1.15-2.07,4,4,0,0,1,1.86-1.83c1.65-.57,3,1,3.7,2.31a27.59,27.59,0,0,1,1.8,4.92,45.08,45.08,0,0,1,1.15,5.15,52.34,52.34,0,0,1-1,20.81c-.43,1.72-.93,3.43-1.5,5.1a8.85,8.85,0,0,1-2,3.67,2.5,2.5,0,0,1-1.74.77,3.75,3.75,0,0,1-2.25-1.23,13.87,13.87,0,0,1-2.92-3.8,23.5,23.5,0,0,1-2.44-10c-.18-3.5-.05-7,.11-10.52.29-6.4,1-13,4-18.82a26.19,26.19,0,0,1,2.43-3.9c.36-.48-.45-1-.81-.47Z"/><path class="cls-1" d="M66.08,73.37l-8.64-9.05-1.1-7-2.88-10.7,1.37-9S52,43.88,51.54,45.94s-8.23-.83-8.64-1.24a29.1,29.1,0,0,0-3.71-1.78s-.82,2,3,3.84,6.31,3,6.31,3a4.78,4.78,0,0,1,2.34,3.43C51,55.4,52,64.32,52,64.32l1.79,8.37S56.75,75.84,66.08,73.37Z"/><g class="cls-9"><path class="cls-5" d="M70.4,76.94l-12.75-9L52.5,50.39l-1.44-2.26L34.6,42,50.24,25.08l14.81.83s14.82,7.61,15,11.11S70.4,76.94,70.4,76.94Z"/></g></g></svg>