<svg id="Layer_1" data-name="Layer 1" xmlns="http://www.w3.org/2000/svg" width="330" height="250" viewBox="0 0 330 250">
  <defs>
    <style>
      .cls-1 {
        fill: #729e00;
      }

      .cls-2 {
        fill: #5f8400;
      }

      .cls-3 {
        fill: #628602;
      }

      .cls-4 {
        fill: #5f8300;
      }

      .cls-5 {
        fill: #506f00;
      }

      .cls-6 {
        fill: #fefefe;
      }

      .cls-7 {
        fill: #262626;
      }

      .cls-8 {
        fill: #fdfdfd;
      }

      .cls-9 {
        fill: #739f00;
      }
    </style>
  </defs>
  <title>16_sad_face_on_the_little_fish</title>
  <g>
    <g>
      <g>
        <path class="cls-1" d="M202.83,174.18c-2.1-.5-4.19-1-6.3-1.51-1.63-.37-3.21-.89-4.78-1.41-1.24-.41-2.48-.81-3.7-1.24a73.24,73.24,0,0,1-13.21-6.18,71.89,71.89,0,0,1-9.32-6.25,82.87,82.87,0,0,1-6.34-5.6,74,74,0,0,1-5.25-5.6,47.11,47.11,0,0,0-3.79-4c-1.57-1.56-3.24-3-4.9-4.48-3.08-2.72-6.2-5.38-9.45-7.89a87.4,87.4,0,0,0-9.28-6.61,18.33,18.33,0,0,0-5.16-2.56,4.59,4.59,0,0,0-1.72-.18c-.79.12-.62.85-.81,1.31a100.74,100.74,0,0,1-7.8,15.23,77.3,77.3,0,0,1-9.35,12.43c-1.35,1.4-2.72,2.78-4.18,4.07a55.64,55.64,0,0,1-4.54,3.61c-1.35,1-2.82,1.74-4.21,2.63-2.55,1.62-5.44,2.38-8.22,3.41-3.85,1.43-7.78,2.62-11.63,4-2.72,1-5.43,2-8.14,3s-5.47,2.33-8.27,3.33a3.72,3.72,0,0,0-2.29,2.64,76.67,76.67,0,0,1-5.9,13.77,7.16,7.16,0,0,0-.91,1.94c-.24.7-.93,1.18-.94,2-.21.35-.15.91-.73,1,.18.47-.27.68-.41,1s-.25.43-.44.6q-2.25,3.41-4.49,6.81c-1,1.47-2.21,2.76-3.1,4.29a1.09,1.09,0,0,1-.65.74c-1.65,1.92-3.27,3.88-5,5.76a26.74,26.74,0,0,1-5.72,5.08,23,23,0,0,1-.29-3.25c-.26-2.31,0-4.63-.21-6.94a11.87,11.87,0,0,1,.37-2.68,40.27,40.27,0,0,1,.79-5.82c.6-2.1,1.22-4.21,2-6.27a69.3,69.3,0,0,1,4-8.37,58.64,58.64,0,0,1,4.33-6.94c1.69-2.28,3.44-4.53,5.29-6.69s3.59-4.86,6.11-6.49a52.08,52.08,0,0,0,7.47-6,50.81,50.81,0,0,0,12.65-18.08,48.29,48.29,0,0,0,2.76-8.13c.37-1.62.7-3.24,1-4.87.15-.73.14-1.13-.92-1-1.59.2-3.1-.51-4.61-.95a.79.79,0,0,1-.83-.3,35.28,35.28,0,0,1-7.94-5.38,47.08,47.08,0,0,1-6.7-7.72,52.15,52.15,0,0,1-3.65-5.8c-1.57-2.79-3.09-5.59-4.47-8.49a77.8,77.8,0,0,1-4.84-12.94,62,62,0,0,1-1.75-9.63c-.43-4,.08-7.9.14-11.85A14,14,0,0,0,31.21,59a27.86,27.86,0,0,0-3.49-5.87A44.65,44.65,0,0,0,23,47.81a46.15,46.15,0,0,0-4.3-3.91A3.54,3.54,0,0,1,18,43c2.21,0,4,1,5.85,1.85a41.91,41.91,0,0,1,4.67,2.6,43.6,43.6,0,0,1,7,5.57A36.09,36.09,0,0,1,40,58.17a26.81,26.81,0,0,1,3,5.15,2.05,2.05,0,0,0,2,1.48A47,47,0,0,1,51.7,66c3.08.65,6,1.79,9,2.73s6,2.47,8.93,3.71A120,120,0,0,1,80.39,78c2.94,1.58,5.82,3.28,8.72,4.92,4.44,2.51,8.65,5.37,12.91,8.15,3.58,2.35,6.92,5,10.32,7.62a19.67,19.67,0,0,1,1.57,1.33.74.74,0,0,0,1.27-.17,56.1,56.1,0,0,1,6.4-8c1.2-1.32,2.55-2.5,3.74-3.82s2.66-2.29,3.86-3.6a12.61,12.61,0,0,1,2.57-1.93c1.44-.93,2.77-2,4.2-2.94s2.75-1.71,4.14-2.54a69.74,69.74,0,0,1,6.71-3.57c2.83-1.29,5.63-2.64,8.55-3.75s5.85-2.22,8.84-3.15a44.67,44.67,0,0,1,6.59-1.73c.86-.13,1-.71,1-1.42A22.1,22.1,0,0,0,170.35,56,39.49,39.49,0,0,0,167,48.79a51.38,51.38,0,0,0-4.72-6.57,42.09,42.09,0,0,0-5-5.23,47.67,47.67,0,0,0-6.12-4.93c-.33-.2-.73-.46-.64-.77s.58-.42,1-.47c4.3-.49,8.52.18,12.74.86,2.72.44,5.46.82,8.13,1.47,2,.49,4.05,1,6.06,1.6,1.84.53,3.66,1.16,5.52,1.59a54.85,54.85,0,0,1,6.35,2c4.34,1.58,8.67,3.16,12.91,5a93.86,93.86,0,0,1,12.2,6.19,40.44,40.44,0,0,1,9.71,8.16,22.07,22.07,0,0,1,3.75,6.11,2.51,2.51,0,0,0,1.93,1.75c2.83.56,5.67,1.14,8.47,1.86s5.62,1.5,8.35,2.47a95.29,95.29,0,0,1,27.91,15.64,110.58,110.58,0,0,1,11.14,10.34c1.56,1.68,3.18,3.32,4.61,5.11s2.79,3.4,4.1,5.16c1.76,2.36,3.39,4.81,5,7.26.8,1.21,1.45,2.52,2.19,3.77a11.42,11.42,0,0,0,2.66,2.71,28.82,28.82,0,0,1,4.64,4.53c2.15,2.88,2.78,6,1.13,9.47-.54,1.12-1.38,2-1.84,3.2a5.25,5.25,0,0,0-2-.14,32.28,32.28,0,0,1-12.2-2.29,20.69,20.69,0,0,0,7.36,2.1,29.83,29.83,0,0,0,6.19.48.54.54,0,0,1,.55.29c.67.93,1.4,1.82,2,2.8.89,1.46.32,3.83-.86,5.23-1.8,2.15-4.31,2.66-6.8,3.28-3,.73-5.94,1.43-8.9,2.19a12.81,12.81,0,0,0-3.16,1.73c-2.66,1.56-5.3,3.15-8,4.69-2.89,1.65-5.87,3.12-8.84,4.61a94.94,94.94,0,0,1-9.29,4.08c-3.19,1.2-6.36,2.44-9.64,3.41l-5.16,1.55c-.53.54-1.27.43-1.91.62a1.51,1.51,0,0,0-.94.08,101.1,101.1,0,0,1-13.28,2.52c-5,.6-9.89,1.37-14.91,1.29a106.34,106.34,0,0,1-12.64-.9C205.49,174.51,204.16,174.35,202.83,174.18Z"/>
        <path class="cls-2" d="M309.12,137.52a31,31,0,0,1-7-.49,18.81,18.81,0,0,1-7.63-2.39.58.58,0,0,1-.35-.49c2.27.64,4.46,1.42,6.73,1.89a22,22,0,0,0,7.54.5c.54-.08.63.21.78.55S309.08,137.36,309.12,137.52Z"/>
        <path class="cls-3" d="M166.31,145.15a19.87,19.87,0,0,1,2.56-8.1c1.14-1.89,3.08-2.85,5-3.75a81.55,81.55,0,0,1,19.49-6.56,38.47,38.47,0,0,1,12.32-.44,11.58,11.58,0,0,1,5.94,3.08c2.45,2,3,3.92,2.11,7a25.57,25.57,0,0,1-7.6,11.59c-3.46,3.23-7.73,5-12.26,6.21a58.24,58.24,0,0,1-12.25,1.62c-3.06.15-6.09-.05-9.13-.2-1.13-.06-2.27-.06-3.4-.17a1.53,1.53,0,0,1-1.53-1.13c-.18-.56-.37-1.12-.56-1.68.36-.4.83-.26,1.26-.23a58.85,58.85,0,0,0,16.39-1,42.6,42.6,0,0,0,16.52-6.9,32.49,32.49,0,0,0,5.32-4.7,42.25,42.25,0,0,1-10.48,6.55,55.29,55.29,0,0,1-20.31,5,56.2,56.2,0,0,1-8.11-.15,1.54,1.54,0,0,1-1-.24c-.08-.91-.12-1.83-.27-2.73a2.24,2.24,0,0,1,.09-1.07,10,10,0,0,1,3.49.44,27.11,27.11,0,0,0,7.75.19A31.4,31.4,0,0,0,187.92,145a32.5,32.5,0,0,0,6.25-3.83,26.29,26.29,0,0,0,3-2.43,28,28,0,0,1-4.39,2.54,57.3,57.3,0,0,1-12.15,4.62c-4.39,1-8.79,1.36-13.15-.21A4.31,4.31,0,0,1,166.31,145.15Z"/>
        <path class="cls-4" d="M266.45,100.57c8.39,2.31,12.23,11.28,10.13,18.36a15,15,0,1,1-10.13-18.36Z"/>
        <path class="cls-4" d="M239.86,135a22.19,22.19,0,0,1-4-3.92c-.79-1-1.61-2-2.35-3-.89-1.26-1.75-2.55-2.55-3.87A49.66,49.66,0,0,1,227,116a37.43,37.43,0,0,1-2.09-9.25,31.78,31.78,0,0,1-.06-6.93A17.45,17.45,0,0,1,227,93.64a30.58,30.58,0,0,1,9.12-10.43,27.14,27.14,0,0,1,8-4.17c.83-.26,1.16.09,1.19.87,0,.07,0,.15,0,.22.22,1.31-.36,1.85-1.63,2.26a23.07,23.07,0,0,0-10.6,7,20.17,20.17,0,0,0-4.74,12.4,35.08,35.08,0,0,0,1.56,11.62,82.53,82.53,0,0,0,3.7,10.39,76.73,76.73,0,0,0,4.39,8.05C238.58,132.94,239.23,133.95,239.86,135Z"/>
        <path class="cls-5" d="M166.57,150.86a12.79,12.79,0,0,1,2.87.09A53.59,53.59,0,0,0,185,149.69,51.86,51.86,0,0,0,197.84,145a56,56,0,0,0,8.46-5.45,4.76,4.76,0,0,1,.9-.58,17.89,17.89,0,0,1-4.32,4.47,40.1,40.1,0,0,1-5.49,3.63,49.22,49.22,0,0,1-7.14,3.06,57.12,57.12,0,0,1-14,2.61,60.34,60.34,0,0,1-9.25-.15A2.91,2.91,0,0,1,166.57,150.86Z"/>
        <path class="cls-5" d="M166.31,145.15c.47-.32.88.09,1.23.22a19.37,19.37,0,0,0,9.07.87,42.43,42.43,0,0,0,11-3.05,77.63,77.63,0,0,0,10.1-5.07c-5.57,7-19.16,12.52-31.3,8.94A2,2,0,0,1,166.31,145.15Z"/>
        <path class="cls-6" d="M273.83,118.84c-2.47,6.58-9.1,9.7-15.4,7.44a12.08,12.08,0,1,1,8.19-22.72A12,12,0,0,1,273.83,118.84Z"/>
        <path class="cls-7" d="M259.19,124.51a10.19,10.19,0,0,1-6.62-12.28,10.08,10.08,0,0,1,13.17-7,10,10,0,0,1,6.44,12.43A10.06,10.06,0,0,1,259.19,124.51Z"/>
        <path class="cls-8" d="M263.7,112.49a2.65,2.65,0,0,1,3.51-1.63,2.8,2.8,0,0,1,1.59,3.46,2.7,2.7,0,0,1-3.32,1.67A2.57,2.57,0,0,1,263.7,112.49Z"/>
      </g>
      <path class="cls-2" d="M309.23,136.91c-3.81-.66-7.49-2-11.3-2.57A22.85,22.85,0,0,0,287,135.71c-1.06.35-.61,2,.46,1.69,3.85-1.28,7.49-1.92,11.5-1.07,3.28.69,6.45,1.7,9.76,2.27,1.1.19,1.57-1.49.46-1.69Z"/>
    </g>
    <path class="cls-9" d="M274.13,105.05s-8.72,12.58-27.58,6.73a14.41,14.41,0,0,1,11.23-13.9C269.33,94.8,274.13,105.05,274.13,105.05Z"/>
  </g>
</svg>
