<svg id="Layer_3" data-name="Layer 3" xmlns="http://www.w3.org/2000/svg" xmlns:xlink="http://www.w3.org/1999/xlink" viewBox="0 0 1920 1080">
  <defs>
    <style>
      .cls-1, .cls-3 {
        fill: none;
      }

      .cls-2 {
        clip-path: url(#clip-path);
      }

      .cls-3 {
        stroke: #2bb673;
        stroke-linecap: round;
        stroke-linejoin: round;
        stroke-width: 3.94px;
      }

      .cls-4 {
        fill: #ed592c;
      }

      .cls-5 {
        fill: #f7ea23;
      }

      .cls-6 {
        fill: #2bb673;
      }
    </style>
    <clipPath id="clip-path">
      <rect class="cls-1" width="1920" height="1080"/>
    </clipPath>
  </defs>
  <title>RedFlower-head_spins-3</title>
  <g class="cls-2">
    <g>
      <path class="cls-3" d="M1527.55,1002.74s37,18.88,5.08,93.65"/>
      <g>
        <g>
          <path class="cls-4" d="M1568.63,999.45c.11,7.16-5,11.74-12.43,11.51-4.63-.14-8.63-2.32-13-3.38,0,0,0,0,0,.06,3.08,3.94,6.75,7.47,8.28,12.48,2,6.4-.9,12-7.36,14.2s-11.89-.42-14.18-6.59a26.59,26.59,0,0,1-.32-17.13,15,15,0,0,0,11.26-4.24l2.32,1.3-2.32-1.3c.13-.21.26-.42.38-.64,2.88-4.08,2.91-8.48,1.46-13.05,4.16-2.36,8.46-4.26,13.36-4.53C1563.53,987.73,1568.52,992.17,1568.63,999.45Z"/>
          <path class="cls-4" d="M1505.11,979c4.2-5.8,11-6.41,16.85-1.76,3.62,2.89,5.52,7,8.36,10.48,0,0,0,0,0,0-.1-5-.92-10,.85-15,2.27-6.29,7.94-9.1,14.41-7s9.26,7.48,7.39,13.79a26.59,26.59,0,0,1-10,13.9,15,15,0,0,0-11.55-3.36l-1.08-2.43,1.08,2.43c-.24.08-.46.18-.69.28-4.75,1.54-7.42,5-9,9.57-4.75-.6-9.33-1.66-13.41-4.39C1502.17,991.43,1500.84,984.88,1505.11,979Z"/>
          <path class="cls-4" d="M1524,998.27l-2.64.29,2.64-.29c0,.24,0,.49.06.73,0,5,2.58,8.59,6.42,11.46-2,4.35-4.39,8.39-8.21,11.47-5.79,4.65-12.43,4-16.76-1.89s-2.8-12.45,3.38-16.6c3.85-2.59,8.37-3.15,12.51-4.82l0,0"/>
        </g>
        <circle class="cls-5" cx="1532.27" cy="1000.36" r="12.23"/>
      </g>
      <path class="cls-6" d="M1548.62,1041.39c3.68-3.6,17-7.36,18.88-5.41s-2.16,15.15-5.84,18.75-9.76,6.21-14.61,1.24S1544.93,1045,1548.62,1041.39Z"/>
    </g>
  </g>
</svg>
