<svg id="Layer_1" data-name="Layer 1" xmlns="http://www.w3.org/2000/svg" viewBox="0 0 112.03 204.97">
  <defs>
    <style>
      .cls-1 {
        fill: none;
        stroke: #2bb673;
        stroke-linecap: round;
        stroke-linejoin: round;
        stroke-width: 6.17px;
      }

      .cls-2 {
        fill: #ed592c;
      }

      .cls-3 {
        fill: #f7ea23;
      }

      .cls-4 {
        fill: #2bb673;
      }
    </style>
  </defs>
  <title>RedFlower</title>
  <g>
    <path class="cls-1" d="M70.43,990.35s58,29.56,8,146.64" transform="translate(-21.71 -935.11)"/>
    <g>
      <path class="cls-2" d="M53,937.38c9.94-5.18,19.93-1.27,24.84,9.31,3.06,6.58,2.81,13.72,4.39,20.53l.07,0c3.36-7.08,5.72-14.69,11.65-20.36,7.58-7.23,17.48-7.2,25,.32,7.42,7.38,7.75,17,.72,24.48-6.44,6.9-14.52,10.81-23.74,12.48a23.51,23.51,0,0,0-13.84-12.78c.06-1.38.12-2.77.19-4.15-.07,1.38-.13,2.77-.19,4.15-.39,0-.77-.07-1.16-.08-7.73-1.16-13.92,1.88-19.29,7.12-6.23-4.17-11.9-8.85-15.72-15.52C40.14,952.75,42.84,942.65,53,937.38Z" transform="translate(-21.71 -935.11)"/>
      <path class="cls-2" d="M68.93,1040.65c-11.07-1.81-16.71-10.94-14.3-22.35,1.5-7.09,6-12.66,8.8-19.06h-.08c-6.94,3.66-13.39,8.33-21.54,9.31-10.4,1.25-18.31-4.72-19.85-15.28-1.51-10.35,4-18.21,14.1-20,9.29-1.66,18.1,0,26.48,4.25A23.51,23.51,0,0,0,66,996l-2.64,3.22L66,996c.28.27.57.52.87.76,5.5,5.57,12.27,6.84,19.71,5.87,2.49,7.07,4.23,14.22,3.28,21.85C88.4,1036,80.17,1042.49,68.93,1040.65Z" transform="translate(-21.71 -935.11)"/>
      <path class="cls-2" d="M82.66,1000.72l2.27,3.48-2.27-3.48c.34-.19.67-.39,1-.61,7-3.56,10.21-9.64,11.52-17,7.49-.25,14.83.25,21.82,3.44,10.58,4.83,14.27,14.61,9.14,24.78-5.06,10-15.46,12.65-25.62,6.93-6.32-3.57-10.28-9.51-15.53-14.13,0,0,0,0,0,.07" transform="translate(-21.71 -935.11)"/>
      <circle class="cls-3" cx="56.1" cy="51.51" r="19.15"/>
    </g>
    <path class="cls-4" d="M103.41,1050.87c5.77-5.64,26.57-11.54,29.57-8.47s-3.37,23.72-9.14,29.36-15.28,9.71-22.88,1.94S97.64,1056.51,103.41,1050.87Z" transform="translate(-21.71 -935.11)"/>
  </g>
</svg>
