<svg id="Layer_6" data-name="Layer 6" xmlns="http://www.w3.org/2000/svg" xmlns:xlink="http://www.w3.org/1999/xlink" viewBox="0 0 1920 1080">
  <defs>
    <style>
      .cls-1, .cls-3 {
        fill: none;
      }

      .cls-2 {
        clip-path: url(#clip-path);
      }

      .cls-3 {
        stroke: #2bb673;
        stroke-linecap: round;
        stroke-linejoin: round;
        stroke-width: 3.94px;
      }

      .cls-4 {
        fill: #ed592c;
      }

      .cls-5 {
        fill: #f7ea23;
      }

      .cls-6 {
        fill: #2bb673;
      }
    </style>
    <clipPath id="clip-path">
      <rect class="cls-1" width="1920" height="1080"/>
    </clipPath>
  </defs>
  <title>RedFlower-head_spins-4</title>
  <g class="cls-2">
    <g>
      <path class="cls-3" d="M1527.55,1002.74s37,18.88,5.08,93.65"/>
      <g>
        <g>
          <path class="cls-4" d="M1560.46,1022.27c-4.71,5.4-11.57,5.39-17,.24-3.34-3.2-4.86-7.5-7.38-11.19l0,0c-.35,5,0,10.07-2.2,14.82-2.83,6.06-8.72,8.35-15,5.63s-8.55-8.28-6.12-14.39a26.49,26.49,0,0,1,11.22-12.94,15,15,0,0,0,11.2,4.38l.86,2.52-.86-2.52c.24-.06.48-.14.71-.22,4.87-1.11,7.84-4.35,9.82-8.72,4.68,1,9.14,2.5,13,5.58C1564.5,1010.16,1565.24,1016.79,1560.46,1022.27Z"/>
          <path class="cls-4" d="M1526.94,964.56c7-1.49,12.49,2.63,13.71,10,.75,4.57-.61,8.92-.81,13.38h.05c3.28-3.78,6-8.06,10.65-10.54,5.9-3.16,12-1.45,15.36,4.47s1.88,11.75-3.73,15.19a26.53,26.53,0,0,1-16.74,3.63,15,15,0,0,0-6.34-10.23c.27-.84.55-1.68.82-2.52-.27.84-.55,1.68-.82,2.52l-.7-.25c-4.56-2-8.89-1.21-13.09,1.1-3.12-3.63-5.81-7.48-7-12.24C1516.44,971.84,1519.83,966.08,1526.94,964.56Z"/>
          <path class="cls-4" d="M1528.06,991.51,1525.9,990l2.16,1.55a6.55,6.55,0,0,0-.45.59c-3.31,3.74-3.83,8.11-2.89,12.81-4.4,1.89-8.88,3.3-13.78,3-7.42-.41-11.89-5.37-11.19-12.62s6.25-11.12,13.62-10.07c4.59.65,8.33,3.27,12.52,4.79,0,0,0,0,0,0"/>
        </g>
        <circle class="cls-5" cx="1532.27" cy="1000.36" r="12.23"/>
      </g>
      <path class="cls-6" d="M1548.62,1041.39c3.68-3.6,17-7.36,18.88-5.41s-2.16,15.15-5.84,18.75-9.76,6.21-14.61,1.24S1544.93,1045,1548.62,1041.39Z"/>
    </g>
  </g>
</svg>
