<svg id="Layer_2" data-name="Layer 2" xmlns="http://www.w3.org/2000/svg" xmlns:xlink="http://www.w3.org/1999/xlink" viewBox="0 0 1920 1080">
  <defs>
    <style>
      .cls-1, .cls-3 {
        fill: none;
      }

      .cls-2 {
        clip-path: url(#clip-path);
      }

      .cls-3 {
        stroke: #2bb673;
        stroke-linecap: round;
        stroke-linejoin: round;
        stroke-width: 3.94px;
      }

      .cls-4 {
        fill: #ed592c;
      }

      .cls-5 {
        fill: #f7ea23;
      }

      .cls-6 {
        fill: #2bb673;
      }
    </style>
    <clipPath id="clip-path">
      <rect class="cls-1" width="1920" height="1080"/>
    </clipPath>
  </defs>
  <title>RedFlower-head_spins-2</title>
  <g class="cls-2">
    <g>
      <path class="cls-3" d="M1527.55,1002.74s37,18.88,5.08,93.65"/>
      <g>
        <g>
          <path class="cls-4" d="M1546.64,969.86c6.58,2.83,8.68,9.36,5.43,16-2,4.17-5.65,6.94-8.39,10.47l0,0c4.86-1.2,9.58-3.11,14.78-2.46,6.64.82,10.62,5.74,10,12.52s-5.25,10.68-11.81,10.24a26.48,26.48,0,0,1-15.76-6.71,15,15,0,0,0,.73-12l2.13-1.59-2.13,1.59c-.14-.21-.28-.41-.43-.61-2.55-4.29-6.55-6.12-11.31-6.66-.46-4.77-.43-9.47,1.32-14.05C1533.86,969.74,1540,967,1546.64,969.86Z"/>
          <path class="cls-4" d="M1502,1019.48c-3.58-6.21-1.34-12.69,5.27-16.1,4.12-2.13,8.68-2.16,13-3.35l0,0c-4.61-2-9.53-3.26-13.3-6.9-4.82-4.64-5.06-11-.46-16s10.61-5.4,15.6-1.12a26.6,26.6,0,0,1,8.59,14.82,15,15,0,0,0-7.78,9.17h0a6.1,6.1,0,0,0,0,.74c-.54,5,1.57,8.83,5.05,12.12-2.49,4.09-5.33,7.83-9.48,10.45C1512.15,1027.24,1505.64,1025.78,1502,1019.48Z"/>
          <path class="cls-4" d="M1527.31,1010.14l-.81,2.53.81-2.53c.23.09.46.18.69.25,4.58,2,8.9,1.15,13.08-1.18,3.15,3.6,5.87,7.43,7.12,12.18,1.88,7.19-1.47,13-8.58,14.53s-12.5-2.54-13.77-9.87c-.78-4.57.55-8.93.72-13.39h0"/>
        </g>
        <circle class="cls-5" cx="1532.27" cy="1000.36" r="12.23"/>
      </g>
      <path class="cls-6" d="M1548.62,1041.39c3.68-3.6,17-7.36,18.88-5.41s-2.16,15.15-5.84,18.75-9.76,6.21-14.61,1.24S1544.93,1045,1548.62,1041.39Z"/>
    </g>
  </g>
</svg>
