<svg id="Layer_1" data-name="Layer 1" xmlns="http://www.w3.org/2000/svg" xmlns:xlink="http://www.w3.org/1999/xlink" viewBox="0 0 260 168"><defs><style>.cls-1{fill:#fff;}.cls-2{fill:#c67b22;}.cls-3{fill:#4c483d;}.cls-4{fill:#5b5749;}.cls-5{fill:#2a9b6a;}.cls-6{fill:#423f36;}.cls-7{clip-path:url(#clip-path);}.cls-8{fill:#707070;}.cls-9{fill:#331f09;}.cls-10{fill:#3a3a3a;}</style><clipPath id="clip-path"><circle class="cls-1" cx="115.2" cy="93.01" r="1.85"/></clipPath></defs><path class="cls-2" d="M113.88,116.43s2.36,2.23,3.16,2.23a8.85,8.85,0,0,0,2.9-4.94s.67-.38.79,1.06c0,0,3.13-2.84,1,.85,0,0,2.47-.76.2,1.5,0,0-4.6,6.7-6.55,6.25,0,0-1-.14.24-2.69a22.81,22.81,0,0,1-2.73-2.32"/><path class="cls-3" d="M112,119.7c5-2.68,1.07-5.1,1.07-5.1l-2-2.59-2,5,1.68,2.2Z"/><path class="cls-2" d="M106.7,118.83s-1.82,3.46-1.67,4.36a7.43,7.43,0,0,0,5.53,1.52s.51.61-.93,1.26c0,0,3.46,2.52-.67,1.48,0,0,1.23,2.51-1.48.76,0,0-7.62-2.8-7.53-5.16,0,0,0-1.16,2.76-.69a34.11,34.11,0,0,1,1.85-3.91"/><path class="cls-4" d="M108.46,94.16c.17,1.6.46,3,.46,3,1.72,4.25-.93,6.27-.93,6.27-6.74.82-10.12,3.66-10.12,3.66-2.93-3.24-2.32.24-2.32.24-5.25-4.17-3.82-.68-3.82-.68-7.31-1.86-2.17,3-2.17,3-4.6.92,3.3,4.65,3.3,4.65,3,5.72,10.61,4.15,10.61,4.15,5.25,3.3,7.9-1.69,7.9-1.69a16.79,16.79,0,0,0,5.48-3.6c6.25-6.32-4.42-17.25-4.42-17.25a4.74,4.74,0,0,0-1.63-2.16s-.06-1.24-1.2-1.14A1.43,1.43,0,0,0,108.46,94.16Z"/><path class="cls-5" d="M111,113.48s-.45,2.88-5.17,2.5"/><path class="cls-6" d="M110.16,110.63s-4.13-3.92-11.89-.57c0,0-1,.91.34,1.6,0,0-5.84-.24-3.36,1.47,0,0-.92,2.69,4,2,0,0-1,3,3.07,1.53C102.3,116.67,115.68,114.87,110.16,110.63Z"/><path class="cls-4" d="M98.08,111.28a3.84,3.84,0,0,0,1.81.73,6,6,0,0,0,2-.06,6.09,6.09,0,0,1-2,.21,4.06,4.06,0,0,1-2-.66Z"/><circle class="cls-4" cx="112.79" cy="93.8" r="6.2" transform="translate(-28.7 132.54) rotate(-55.06)"/><circle class="cls-1" cx="115.2" cy="93.01" r="1.85"/><g class="cls-7"><circle cx="115.84" cy="93.65" r="1.2"/><circle class="cls-1" cx="115.43" cy="92.95" r="0.54"/></g><path class="cls-8" d="M114.86,99.54a1.12,1.12,0,0,1-1.12-1.38,1.78,1.78,0,0,1,1.87-1.28c1.59-.11,2.81-2.17,2.81-2.17s.67-.55,1.59,1c0,0,1.35,1.8,4.77,1.62,0,0,.8-.2.53.75,0,0-1.1,2.52-6.6,1.09a17.43,17.43,0,0,1,1.11,2.51s-.18.61-.92.18C118.9,101.81,116,99.65,114.86,99.54Z"/><ellipse class="cls-9" cx="118.91" cy="96.05" rx="0.4" ry="0.3" transform="translate(-10.83 176.87) rotate(-70.85)"/><path class="cls-10" d="M118.71,99.12s-1.19-.3-1.79-.54c0,0,1.25,2.41,2.9,3A18.87,18.87,0,0,0,118.71,99.12Z"/></svg>