<svg id="Layer_2" data-name="Layer 2" xmlns="http://www.w3.org/2000/svg" viewBox="0 0 304.86 383.07">
  <defs>
    <style>
      .cls-1 {
        fill: #d3af5d;
      }

      .cls-2 {
        fill: #987647;
      }

      .cls-3 {
        fill: #dfbc6d;
      }

      .cls-4 {
        fill: #d1b063;
      }

      .cls-5 {
        fill: #debb6d;
      }

      .cls-6 {
        fill: #d2b05f;
      }

      .cls-7 {
        fill: #fae0b8;
      }

      .cls-8 {
        fill: #8c693e;
      }

      .cls-9 {
        fill: #33357e;
      }

      .cls-10 {
        fill: #34b450;
      }

      .cls-11 {
        fill: #f16d3f;
      }

      .cls-12 {
        fill: #5092cd;
      }

      .cls-13 {
        fill: #b7b181;
      }

      .cls-14 {
        fill: #513725;
      }

      .cls-15 {
        fill: #faf9f7;
      }

      .cls-16 {
        fill: #c5a45a;
      }

      .cls-17 {
        fill: #600b0c;
      }

      .cls-18 {
        fill: #060605;
      }
    </style>
  </defs>
  <title>LittleLionArmsOut</title>
  <g>
    <path class="cls-1" d="M1594,813.45s-47.9-33.24-56.84-33.36a37.09,37.09,0,0,0-7.21-9.76l-4.07-7.09-.46-1.16s-9.65-10.57-15.81.24c0,0-4.65-4-10.92,2.09,0,0-5.23,4.53-2.21,8.48,0,0-4.85,2.3-4.86,6.73,0,0-.48,5.59,4.28,8.5,0,0-3.95,6.74,0,11.62,0,0,6.15,6.37,13.88,1.79,0,0,14.41-.57,16.07-1.07,0,0,39.69,13.6,46.13,21.08l15.15,7.82s3,2.79,10.92-5.58C1598,823.78,1601.73,818.73,1594,813.45Z" transform="translate(-1491.57 -686.61)"/>
    <g>
      <path class="cls-2" d="M1531.39,783.51a4.9,4.9,0,0,0-.28-2.94,4.16,4.16,0,0,0-1.14-2,3.83,3.83,0,0,0-2.36-.69,20.42,20.42,0,0,0-2.7.19l-5.49.64c-1.92.22-4,.53-5.32,2a6,6,0,0,0-.89,5.58,22.07,22.07,0,0,0,3.5,6.62c.67,1,1.34,2,2.08,2.89a4.76,4.76,0,0,0,2,1.69c1.74.63,3.64-.71,4.5-2.35s1-3.53,1.69-5.26a10.71,10.71,0,0,1,2.31-3.68A7.38,7.38,0,0,0,1531.39,783.51Z" transform="translate(-1491.57 -686.61)"/>
      <path class="cls-2" d="M1502,793.14c-1.19,1-2,2.69-1.49,4.15a3.39,3.39,0,0,0,2.37,2,8.12,8.12,0,0,0,6.53-1.77,3.47,3.47,0,0,0,1-3.48,4.94,4.94,0,0,0-1-1.57,2.71,2.71,0,0,0-.55-.52,2.24,2.24,0,0,0-.76-.28A7.11,7.11,0,0,0,1502,793.14Z" transform="translate(-1491.57 -686.61)"/>
      <path class="cls-2" d="M1498.71,780.2a2.6,2.6,0,0,0-.52,1.13A4.74,4.74,0,0,0,1500,786a6.5,6.5,0,0,0,5,1.07,3.3,3.3,0,0,0,2.5-1.51,2.69,2.69,0,0,0,.26-1.09,4.63,4.63,0,0,0-2.06-3.82,7.81,7.81,0,0,0-4.27-1.28A3.37,3.37,0,0,0,1498.71,780.2Z" transform="translate(-1491.57 -686.61)"/>
      <path class="cls-2" d="M1513.19,773.84a6,6,0,0,0-2.06-3.88,6.51,6.51,0,0,0-4.19-1.73,3.22,3.22,0,0,0-1.5.29,2.83,2.83,0,0,0-1.4,2.23,5.61,5.61,0,0,0,.48,2.67,7.89,7.89,0,0,0,2.61,3.49,4.82,4.82,0,0,0,4.18.75,2.35,2.35,0,0,0,1-.6,2.56,2.56,0,0,0,.55-1A5.73,5.73,0,0,0,1513.19,773.84Z" transform="translate(-1491.57 -686.61)"/>
      <path class="cls-2" d="M1524.69,766.27a5,5,0,0,0-1.87-2.32,3.06,3.06,0,0,0-2.88-.28,4.41,4.41,0,0,0-1.76,1.82,3.29,3.29,0,0,0-.41.87,3,3,0,0,0,0,1c.22,2.38,1.24,4.91,3.38,6a2.87,2.87,0,0,0,2.14.26,3.17,3.17,0,0,0,1.75-2.15A7.43,7.43,0,0,0,1524.69,766.27Z" transform="translate(-1491.57 -686.61)"/>
    </g>
  </g>
  <g>
    <path class="cls-3" d="M1689.83,808.24s52.68-25,61.53-23.6a36.71,36.71,0,0,1,8.7-8.45l5.18-6.33.65-1.07s11.24-8.85,15.55,2.82c0,0,5.23-3.14,10.43,3.85,0,0,4.42,5.33.79,8.73,0,0,4.41,3.06,3.7,7.43,0,0-.44,5.6-5.62,7.68,0,0,2.79,7.3-1.9,11.47,0,0-7.11,5.28-14-.51,0,0-14.12-2.91-15.68-3.67,0,0-41.37,6.91-49,13.23L1674,833.4s-15.46,4.86-21.88-4.69C1652.12,828.71,1645.25,822,1689.83,808.24Z" transform="translate(-1491.57 -686.61)"/>
    <g>
      <path class="cls-2" d="M1756.45,789a4.88,4.88,0,0,1,.76-2.85,4.24,4.24,0,0,1,1.45-1.76,3.74,3.74,0,0,1,2.45-.29,19.56,19.56,0,0,1,2.62.62l5.31,1.53c1.86.53,3.88,1.18,4.93,2.81s.78,3.85,0,5.64a22,22,0,0,1-4.54,6c-.82.86-1.64,1.72-2.52,2.52a4.91,4.91,0,0,1-2.26,1.34c-1.82.33-3.47-1.3-4.06-3.06s-.46-3.66-.81-5.47a10.66,10.66,0,0,0-1.67-4A7.36,7.36,0,0,1,1756.45,789Z" transform="translate(-1491.57 -686.61)"/>
      <path class="cls-2" d="M1783.85,803.26c1,1.2,1.58,3,.8,4.34a3.39,3.39,0,0,1-2.66,1.53,6.69,6.69,0,0,1-3.11-.61,6.89,6.89,0,0,1-3.05-2.2,3.47,3.47,0,0,1-.38-3.59,4.94,4.94,0,0,1,1.28-1.38,2.48,2.48,0,0,1,.63-.42,2.09,2.09,0,0,1,.79-.15A7.08,7.08,0,0,1,1783.85,803.26Z" transform="translate(-1491.57 -686.61)"/>
      <path class="cls-2" d="M1789.24,791a2.62,2.62,0,0,1,.32,1.2,4.74,4.74,0,0,1-2.58,4.26,6.56,6.56,0,0,1-5.11.24,3.3,3.3,0,0,1-2.21-1.91,2.45,2.45,0,0,1-.08-1.11,4.66,4.66,0,0,1,2.65-3.44,7.8,7.8,0,0,1,4.43-.56A3.38,3.38,0,0,1,1789.24,791Z" transform="translate(-1491.57 -686.61)"/>
      <path class="cls-2" d="M1776,782.39a5.92,5.92,0,0,1,2.66-3.49,6.52,6.52,0,0,1,4.41-1,3.24,3.24,0,0,1,1.44.54,2.83,2.83,0,0,1,1,2.42,5.54,5.54,0,0,1-.92,2.56,7.64,7.64,0,0,1-3.14,3,4.84,4.84,0,0,1-4.25.07,2.49,2.49,0,0,1-.91-.76,2.77,2.77,0,0,1-.37-1.09A5.4,5.4,0,0,1,1776,782.39Z" transform="translate(-1491.57 -686.61)"/>
      <path class="cls-2" d="M1765.88,773a5.15,5.15,0,0,1,2.23-2,3.08,3.08,0,0,1,2.89.2,4.48,4.48,0,0,1,1.44,2.09,2.48,2.48,0,0,1,.13,1.94c-.61,2.32-2,4.64-4.32,5.35a2.83,2.83,0,0,1-2.14-.1,3.13,3.13,0,0,1-1.38-2.4A7.46,7.46,0,0,1,1765.88,773Z" transform="translate(-1491.57 -686.61)"/>
    </g>
  </g>
  <g>
    <path class="cls-4" d="M1567.88,778c-10.71-6.14-17.89-14.68-19-27.49-1-11,2.43-20.2,10.86-27.4a17.42,17.42,0,0,1,21.25-1.38q3.75,2.43,7.25,5.23c1.08.86,1.69.75,2.6-.19a88.85,88.85,0,0,1,18.9-14.57,7.23,7.23,0,0,0,3.48-4.38A27.39,27.39,0,0,1,1621.6,695c.64-.56,1.43-1.39,2.27-1s.36,1.43.33,2.17a18.2,18.2,0,0,0,3.9,12.27c.67-4.41,2.84-7.47,4.52-10.77s3.23-6.83,2.8-11.09c2.44,1.43,3.46,3.62,4.48,5.78,2,4.25,1.55,8.92,2.15,13.41.2,1.51,0,3.83,1.66,4s1.85-2.23,2.37-3.66c1.28-3.53,1.87-7.35,4.61-10.21.47-.49,1-.93,1.65-1.53a2.63,2.63,0,0,1,.06,2.06,10.52,10.52,0,0,0,2.52,9,9.59,9.59,0,0,1,2.57,5.9,3.45,3.45,0,0,0,2.73,3.39,162.93,162.93,0,0,1,33.71,14.57c5.59,3.26,11.23,2.79,16.72-.44,2.19-1.29,4.32-2.71,6.58-3.85a17.78,17.78,0,0,1,19.47,2.38c10.42,9,12.57,26.71,4.51,37.84a32.45,32.45,0,0,1-11.42,9.55c-5.19,2.73-10.51,5.21-16.48,5.8.2-.27.33-.64.6-.82,3.59-2.49,5.18-6,5.93-10.25.8-4.55-.75-8.53-2-12.64-1.24-3.76-4.57-5.44-8-7.51,4.06-1.46,7.83-.71,12.08-1-9-3.77-18.14-.67-22,6.93-.38.88-.73,1.78-1.13,2.64-2.19,4.73-1.89,9.12,1.55,13.24,1.85,2.21,3.4,4.67,5.18,6.94,1.07,1.37,1.44,3.26,3.1,4.18.87,5.79-.81,11.11-2.95,16.36-3,7.47-7.61,13.65-14.65,17.87a126.58,126.58,0,0,1-16.48,8.12c-11.17,4.64-21.66,10.25-29.75,19.51-1.43,1.63-3.76,2.27-4.69,4.39h-1.7c1.25-2.3,2.65-4.62,2.72-7.28.17-6.37,1-12.72.54-19.11-.16-.81.72-1.54.17-2.38a14.7,14.7,0,0,0-2.3-5.8c-5.14-8-13.06-12.09-21.51-15.48v-.52c3.19-3.85,3.91-8.67,5.17-13.26a16.83,16.83,0,0,0,.58-5.19c-.08-1.74,0-3.49,0-5.24-3.78,7.43-8.59,13.4-16.57,16.2a1.22,1.22,0,0,0-.83.94c-4.24.2-8.51-.11-12.68,1.15-3.63,1.1-4.28,1.66-4.84,5.47-2.16,4-4.23,8-6.5,12a7.16,7.16,0,0,0-.73,6.65l.56,2.28c.09.77.17,1.54.27,2.31.49,3.69,1.85,7.24,1.81,11-1.9-2.51-2.27-5.69-3.7-8.4-.74-4.45-1.24-8.95-2.28-13.33-.89-3.76-1.09-7.78-3.35-11.15-.3-2.66-1.8-4.9-2.67-7.36a40.59,40.59,0,0,1-2.82-13,63,63,0,0,1,3.69-24.78,5.24,5.24,0,0,0,1-2.87,10.45,10.45,0,0,0-6.77,7.21,21.54,21.54,0,0,0-1.71,12.61C1566.05,773.63,1567.45,775.65,1567.88,778Zm7.94-16.39,3.48-2.77c5.8-4.62,12.41-4.45,17.83.53,1.24,1.14,2.31,2.47,3.46,3.71a17.51,17.51,0,0,0-3.5-9.15c-4.74-6.3-10.06-6.91-15.77-1.5-2.62,2.48-5.3,5.16-5.47,9.21l-.17.16Zm-2.37,10.73c-.19,1.84-1.41,3.62-.37,5.55-.1,4.51,1.31,8.25,5.42,10.61,4.88,2.8,13.28,2,17.6-1.59,4.73-4,5.71-9.6,2.88-16.49a14,14,0,0,0-14.1-8.41c-6.28.61-10.22,4.17-11.43,10.33Zm58.77,1c-.38,1.38-.75,2.76-1.13,4.14-1.46,4.92.27,9.16,3.26,12.84,3.69,4.53,8.83,5.08,14.32,4.64,8.37-.69,16.06-7.18,14.26-17.2-1.72-9.62-8.73-15.87-18.48-15-5.84.39-11.68,5.5-12.23,10.53Zm31-8a23.15,23.15,0,0,0-6.87-13.74c-2.36-2.22-5-3.54-8.3-3-5.19.85-13.09,8.94-14,14.32,11-10,20.39-9.16,29.12,2.33ZM1562,749.89c4.41-.24,8.14-.65,11.85.13,1,.21,1.43-.33,1.74-1.15s-.44-1.11-1-1.17a19.29,19.29,0,0,0-12.64,2.1Z" transform="translate(-1491.57 -686.61)"/>
    <path class="cls-5" d="M1706.47,1005v-3.34a53.46,53.46,0,0,0-1-12.81c-.81-3.76-1.62-7.53-2.46-11.28a29.07,29.07,0,0,1,.78-16.55c4.4-12.42,3-24.93-.38-37.24-3.24-11.81-7-23.47-8.82-35.65-1.3-8.91-2.93-17.78-4.39-26.67a68.57,68.57,0,0,0-10.06-26.6l-.24-.4c-.4-.57-.79-1.16-1.17-1.76-1.68-2.6-3.63-5-5.16-7.65-10.81,4.57-20.92,10.11-28.78,19.1-1.43,1.63-3.76,2.27-4.69,4.39a56.32,56.32,0,0,1,10.52,14.63c5,10.34,6.28,21.16,4.85,32.47a169.39,169.39,0,0,1-5.35,27.7c-2.5,8.3-6,16.16-11.91,22.55-4.64,5-10.1,9.07-17.43,9-5.27,0-9.59-2.59-13.32-6-8.66-8-13.69-18.09-15.74-29.59-1.5-8.47-1-17-.18-25.55.57-5.9,1.06-11.81,1.6-17.72a132.07,132.07,0,0,1,3.49-22.19,18,18,0,0,0,.31-2.06l-3.66-2.1c-1.26,6.88-2,13.82-2.72,20.77-.72,7.31-1.14,14.64-1.74,22-.9,10.93-1.06,21.79,1,32.63.76,4,2,7.94,1.92,12.08,1.48,2.9,1.78,6.13,2.52,9.23,1.68,7,3.27,14,8.32,19.5a34.3,34.3,0,0,0,13.19,8.64,66,66,0,0,0,13.61,3.62c6,.74,11.93,1.49,18,1.66h15.16c1.15,0,2.15.21,2.46,1.46,1.69,6.71,4.81,12.91,6.87,19.48a16.37,16.37,0,0,1,.92,5.93c1.22,2.22,1,4.75,1.53,7.11-.15,3.5.29,7-.29,10.51-.27,1.58.63,2.33,2.12,2.77,5.38,1.57,6.66,3.09,7.18,8.6a4,4,0,0,0,2.81,3.68c3.78,1.6,7.3.82,11-.47,2.9-1,2.9-3.55,3.93-5.7a54.67,54.67,0,0,0,5.13-19.71c.12-1.54-.19-3.45,1.61-4.48C1706,1008,1706.52,1006.46,1706.47,1005Z" transform="translate(-1491.57 -686.61)"/>
    <path class="cls-6" d="M1591.77,937.1c1.48,2.9,1.78,6.13,2.52,9.23,1.68,7,3.27,14,8.32,19.5a34.28,34.28,0,0,0,13.16,8.63,66,66,0,0,0,13.61,3.62c1.63,11.39.06,22.51-2.93,33.5a45.47,45.47,0,0,1-6.54,13.69c-2.27,3.33-11.41,4.16-14.25,1.39a5.3,5.3,0,0,1-1.23-3.66c-.29-3.89-2.38-6.11-6.08-6.87-1.45-.3-2.26-.92-2-2.45,1.58-10.29-1.72-19.92-3.9-29.72C1589,968.46,1588.33,952.78,1591.77,937.1Z" transform="translate(-1491.57 -686.61)"/>
    <path class="cls-6" d="M1707.77,1008.88c-1.75-.84-1.21-2.46-1.26-3.85v-3.34c2.81-.06,4.86-1.88,7-3.23a85,85,0,0,0,26.37-26.41,14.23,14.23,0,0,0,1.59-3.87c4-13.54,13.66-20.53,27-23.15a40,40,0,0,1,13-.69c.92.13,1.93.1,1.75,1.36-1,6.7-2,13.39-6.19,19a19.63,19.63,0,0,1-11.08,7.09c-2.87.78-5.76,1.5-8.65,2.2-4.18,1-7.38,3.47-10.22,6.59a117.38,117.38,0,0,1-37.31,27.68A14,14,0,0,1,1707.77,1008.88Z" transform="translate(-1491.57 -686.61)"/>
    <path class="cls-7" d="M1596.92,851.77l-3.66-2.1c-4-4.8-7.57-9.84-8.48-16.27-.06-.45,0-1-.55-1.18h0c0-3.77-1.32-7.32-1.81-11-.1-.77-.18-1.54-.27-2.31,1.27,1,1.53,2.5,2,3.87,1.14,3.12,2.11,6.3,3.36,9.37,2.3,5.66,6.3,9.67,12.21,11.42a46.65,46.65,0,0,0,20,1.46c12.6-1.81,17.76-6.81,20.38-19.34.27-1.25.41-2.6,1.48-3.55.43,6.39-.37,12.74-.54,19.11-.07,2.66-1.47,5-2.72,7.28a23.81,23.81,0,0,1-17.19,6.38c-4.73-.07-9.35-1-14-1.35C1603.71,853.3,1600.18,853.21,1596.92,851.77Z" transform="translate(-1491.57 -686.61)"/>
    <path class="cls-8" d="M1717.77,756.91c1.28,4.11,2.83,8.09,2,12.64-.75,4.26-2.34,7.76-5.93,10.25-.27.18-.4.55-.6.82l-4.71,1.7c-1.66-.92-2-2.81-3.1-4.18-1.78-2.27-3.33-4.73-5.18-6.94-3.44-4.12-3.74-8.51-1.55-13.24.4-.86.75-1.76,1.13-2.64a2.69,2.69,0,0,0,1.94-.86c4.89-3.53,9.85-3.14,14.19,1.07C1716.49,756.1,1717,756.79,1717.77,756.91Z" transform="translate(-1491.57 -686.61)"/>
    <path class="cls-9" d="M1642.46,1054c4.16,8.24,11.62,9.29,19.13,10,13.43,1.26,26.07-1.9,38.31-7.13.64-.28,1.35-1.21,2.08-.45.48.5.06,1.33,0,2-.15,2.07-1.15,3.2-3.16,4-12.92,4.81-26.13,7.91-40,7.2a23.42,23.42,0,0,1-11.07-2.89A10.91,10.91,0,0,1,1642.46,1054Z" transform="translate(-1491.57 -686.61)"/>
    <path class="cls-4" d="M1672.77,1006.57c1.22,2.22,1,4.75,1.53,7.11-9.8-2.36-16.78-8.3-21.37-17.1a55.24,55.24,0,0,1-5.57-16.82h7.54a40.87,40.87,0,0,0,7.15,17.72C1664.71,1001.46,1667.77,1005.13,1672.77,1006.57Z" transform="translate(-1491.57 -686.61)"/>
    <path class="cls-9" d="M1568.13,1038.34c4.29,8.28,11.84,9.14,19.3,9.79a66.32,66.32,0,0,0,29.14-4.32l3.21-1.19c.42,3.48-.2,4.56-3.21,5.53-11.71,3.75-23.63,5.78-36,4.31a21.21,21.21,0,0,1-5.81-1.53C1569.22,1048.57,1567.18,1044.89,1568.13,1038.34Z" transform="translate(-1491.57 -686.61)"/>
    <path class="cls-10" d="M1673.67,1045.56c-5.73-1.16-11.48-2.29-16.35-5.83-.93-.67-2.17-1.58-1.1-3,1.35-1.8,4.84-2.86,5.68-1.68,3.2,4.47,8,5.14,12.89,5.86.44.06.87.11,1.3.18,1.16.19,2,.75,2,2s-.88,1.6-1.83,1.86S1674.55,1045.36,1673.67,1045.56Z" transform="translate(-1491.57 -686.61)"/>
    <path class="cls-11" d="M1663.77,1050.24c-4.52-.84-9.64-1.93-13.55-5.89-.78-.79-2-1.69-.63-2.81s2.52-3.36,4.3-1.78a28.53,28.53,0,0,0,14.71,6.9,1.06,1.06,0,0,1,1,1,1.45,1.45,0,0,1-.86,1.49A9.55,9.55,0,0,1,1663.77,1050.24Z" transform="translate(-1491.57 -686.61)"/>
    <path class="cls-10" d="M1596.28,1032.46c-5.32-1.21-10.41-2.45-14.55-6-.71-.6-1.83-1.37-.7-2.57,1.49-1.58,4.32-2.31,5-1.2,2.24,3.68,6,4.5,9.72,5.46a5.37,5.37,0,0,1,.78.1c1.38.31,3.39.11,3.18,2.24S1597.34,1031.73,1596.28,1032.46Z" transform="translate(-1491.57 -686.61)"/>
    <path class="cls-12" d="M1656.57,1055.61c-4.25-.67-8.22-2.16-11.28-5.44-1.32-1.42-.78-4.51.78-5.64.88-.64,1.42-.29,1.94.46,2.35,3.36,5.8,4.91,9.57,6.06,1.15.35,3.31,0,2.85,2.21C1660.05,1055.06,1658.29,1055.36,1656.57,1055.61Z" transform="translate(-1491.57 -686.61)"/>
    <path class="cls-8" d="M1573.12,754.23a63,63,0,0,0-3.69,24.78l-.94-.52-.6-.48h0c-.43-2.38-1.83-4.4-2.26-6.85a21.54,21.54,0,0,1,1.71-12.61,2.54,2.54,0,0,0,1.77-1.33A8.14,8.14,0,0,1,1573.12,754.23Z" transform="translate(-1491.57 -686.61)"/>
    <path class="cls-11" d="M1588.27,1036.19c-4.66-.91-9.1-2.14-12.56-5.55-.87-.85-2-1.9-.51-3,1.21-1,2.54-2.63,4.24-.74,3,3.34,6.94,4.9,11.11,6.07.65.18,1.49.11,1.62,1s-.64,1.36-1.4,1.61S1589.09,1036,1588.27,1036.19Z" transform="translate(-1491.57 -686.61)"/>
    <path class="cls-12" d="M1580.4,1040.37a15.25,15.25,0,0,1-9.79-5.66c-.91-1.21,0-3.8,1.39-4.52,1-.53,1.25.26,1.61.78,1.94,2.8,4.74,4.32,7.85,5.44,1,.36,2.84.1,2.51,2C1583.67,1040.05,1582.06,1040.18,1580.4,1040.37Z" transform="translate(-1491.57 -686.61)"/>
    <path class="cls-4" d="M1584.23,832.22c.52.23.49.73.55,1.18A1.15,1.15,0,0,1,1584.23,832.22Z" transform="translate(-1491.57 -686.61)"/>
    <path class="cls-4" d="M1567.89,778l.6.48C1568.17,778.46,1567.94,778.36,1567.89,778Z" transform="translate(-1491.57 -686.61)"/>
    <path class="cls-13" d="M1596.92,851.77c3.26,1.44,6.79,1.53,10.24,1.82,4.68.38,9.3,1.28,14,1.35a23.81,23.81,0,0,0,17.19-6.38h1.7a56.32,56.32,0,0,1,10.52,14.63c5,10.34,6.28,21.16,4.85,32.47a169.39,169.39,0,0,1-5.35,27.7c-2.49,8.3-6,16.16-11.91,22.56-4.64,5-10.1,9.06-17.43,9-5.27,0-9.59-2.59-13.32-6-8.66-8-13.69-18.09-15.74-29.59-1.5-8.47-1-17-.18-25.55.57-5.9,1.06-11.81,1.6-17.72a132.07,132.07,0,0,1,3.49-22.19A17.88,17.88,0,0,0,1596.92,851.77Z" transform="translate(-1491.57 -686.61)"/>
    <path class="cls-7" d="M1618,798.51c8.45,3.39,16.37,7.49,21.51,15.48a14.7,14.7,0,0,1,2.3,5.8c-5.79,4.75-12.53,6-19.7,5-9-1.34-15.32-6-17.48-16.1-.41,2-.59,3-.84,4-2.35,9.7-11.37,12.74-19.13,6.45l-3.05-2.46a7.16,7.16,0,0,1,.73-6.65c2.27-3.93,4.34-8,6.5-11.95,1.89,5.8,8,9.88,15.19,10.11A15,15,0,0,0,1618,798.51Z" transform="translate(-1491.57 -686.61)"/>
    <path class="cls-14" d="M1581.61,816.66l3.05,2.46c7.76,6.29,16.78,3.25,19.13-6.45.25-1,.43-2,.84-4,2.16,10.1,8.52,14.76,17.48,16.1,7.17,1.07,13.91-.23,19.7-5,.55.84-.33,1.57-.17,2.38-1.07,1-1.21,2.3-1.48,3.55-2.62,12.53-7.78,17.53-20.38,19.34a46.65,46.65,0,0,1-20-1.46c-5.91-1.75-9.91-5.76-12.21-11.42-1.25-3.07-2.22-6.25-3.36-9.37-.5-1.37-.76-2.89-2-3.87C1582,818.18,1581.77,817.46,1581.61,816.66Zm43,23.48c7.71-1.92,12-7.35,14.74-14.38.26-.66.48-1.49,0-2-.75-.78-1.45.11-2.08.43a23.65,23.65,0,0,1-10,2.76,26.25,26.25,0,0,1-20.69-8.49c-.75-.81-1.43-2-2.59-.31-4.36,6.2-10.08,8.32-17.34,5.5-.06,6.35,6,13.21,13.68,15.52a25.4,25.4,0,0,0,8.7,1.66c5.18.17,10.45,1,15.59-.69Z" transform="translate(-1491.57 -686.61)"/>
    <path class="cls-14" d="M1618,798.51a14.94,14.94,0,0,1-14,9.66c-7.16-.23-13.3-4.31-15.19-10.11.56-3.81,1.21-4.37,4.84-5.47,4.17-1.26,8.44-1,12.68-1.15,1.37.07,2.76.1,4.13.22,4.61.43,7.16,2.58,7.54,6.33Z" transform="translate(-1491.57 -686.61)"/>
    <path class="cls-15" d="M1632.22,773.32c.51-5,6.39-10.14,12.23-10.63,9.75-.82,16.76,5.43,18.48,15,1.8,10-5.89,16.51-14.26,17.2-5.49.44-10.63-.11-14.32-4.64-3-3.68-4.72-7.92-3.26-12.84v2.36a12.77,12.77,0,1,0,13.34-13.31C1639,766.28,1635.22,769.13,1632.22,773.32Z" transform="translate(-1491.57 -686.61)"/>
    <path class="cls-14" d="M1632.22,773.32c3-4.19,6.75-7,12.21-6.84a12.82,12.82,0,1,1-13.29,13.34v-2.36C1631.47,776.08,1631.84,774.7,1632.22,773.32Zm3.67,5.16c0,.43-.06.87-.06,1.31,0,4.09,2.14,6.79,6.3,7.94a8.15,8.15,0,0,0,9-3.88c1.91-3.25,1.26-7-1.48-9.85s-5.84-2.17-9-1.8c-3.47-1.48-5.37-1-6.39,1.43-1,2.16.51,3.42,1.63,4.83Z" transform="translate(-1491.57 -686.61)"/>
    <path class="cls-15" d="M1573.44,772.38c1.22-6.17,5.16-9.73,11.44-10.34a14,14,0,0,1,14.1,8.41c2.83,6.89,1.85,12.5-2.88,16.49-4.32,3.63-12.72,4.39-17.6,1.59-4.11-2.36-5.52-6.1-5.42-10.61l.57.07c1.43,7.12,7.11,11,14.06,9.5a11.57,11.57,0,0,0-.75-22.7c-6-.67-10.25,1.78-12.79,7.38Z" transform="translate(-1491.57 -686.61)"/>
    <path class="cls-14" d="M1663.17,765.28c-8.73-11.49-18.12-12.33-29.15-2.41.89-5.38,8.79-13.47,14-14.32,3.32-.55,5.94.77,8.3,3A23.18,23.18,0,0,1,1663.17,765.28Z" transform="translate(-1491.57 -686.61)"/>
    <path class="cls-14" d="M1575.85,761.67c.17-4,2.85-6.73,5.47-9.21,5.71-5.41,11-4.8,15.77,1.5a17.51,17.51,0,0,1,3.5,9.15c-1.15-1.24-2.22-2.57-3.46-3.71-5.42-5-12-5.15-17.83-.53l-3.48,2.77Z" transform="translate(-1491.57 -686.61)"/>
    <path class="cls-16" d="M1618,798c-.38-3.75-2.93-5.9-7.54-6.33-1.37-.12-2.76-.15-4.13-.22a1.22,1.22,0,0,1,.83-.94c8-2.8,12.79-8.77,16.57-16.2,0,1.75-.06,3.5,0,5.24a16.83,16.83,0,0,1-.58,5.19C1621.94,789.32,1621.22,794.14,1618,798Z" transform="translate(-1491.57 -686.61)"/>
    <path class="cls-14" d="M1717.77,756.91c-.86-.12-1.32-.81-1.87-1.35-4.34-4.21-9.3-4.6-14.19-1.07a2.76,2.76,0,0,1-1.85.83c3.82-7.6,13-10.7,22-6.93-4.25.3-8-.45-12.08,1C1713.24,751.46,1716.57,753.15,1717.77,756.91Z" transform="translate(-1491.57 -686.61)"/>
    <path class="cls-14" d="M1562,749.8a19.31,19.31,0,0,1,12.64-2.19c.51.06,1.31.21,1,1.17s-.74,1.36-1.74,1.15C1570.09,749.15,1566.36,749.56,1562,749.8Z" transform="translate(-1491.57 -686.61)"/>
    <path class="cls-14" d="M1573.12,754.23a8.24,8.24,0,0,0-4,3,2.54,2.54,0,0,1-1.77,1.33,10.45,10.45,0,0,1,6.77-7.21A5.24,5.24,0,0,1,1573.12,754.23Z" transform="translate(-1491.57 -686.61)"/>
    <path class="cls-13" d="M1573.65,778l-.57-.07c-1-1.93.18-3.71.37-5.55l.72-.2A26.43,26.43,0,0,0,1573.65,778Z" transform="translate(-1491.57 -686.61)"/>
    <path class="cls-14" d="M1575.82,761.64l-.14.19.17-.16Z" transform="translate(-1491.57 -686.61)"/>
    <path class="cls-17" d="M1600.29,839.16c-7.67-2.31-13.74-9.17-13.68-15.52,7.26,2.82,13,.7,17.34-5.5,1.16-1.65,1.84-.5,2.59.31a26.25,26.25,0,0,0,20.69,8.49,23.65,23.65,0,0,0,10-2.76c.63-.32,1.33-1.21,2.08-.43.49.52.27,1.35,0,2-2.73,7-7,12.46-14.74,14.38a6.15,6.15,0,0,0-5.11-1.36c-4.51.75-8.79-.08-13.09-1.3A5.53,5.53,0,0,0,1600.29,839.16Z" transform="translate(-1491.57 -686.61)"/>
    <path class="cls-11" d="M1600.29,839.16a5.56,5.56,0,0,1,6.13-1.68c4.3,1.22,8.58,2,13.09,1.3a6.15,6.15,0,0,1,5.11,1.36c-5.14,1.7-10.41.86-15.63.68A25.4,25.4,0,0,1,1600.29,839.16Z" transform="translate(-1491.57 -686.61)"/>
    <path class="cls-18" d="M1640.58,772.2c3.21-.37,6.4-.92,9,1.8a8.09,8.09,0,0,1-7.52,13.73c-4.16-1.15-6.3-3.85-6.3-7.94a9.5,9.5,0,0,1,.06-1.31C1640.92,778.86,1642.45,776.81,1640.58,772.2Z" transform="translate(-1491.57 -686.61)"/>
    <path class="cls-15" d="M1640.58,772.2c1.87,4.61.34,6.66-4.69,6.28-1.1-1.43-2.59-2.69-1.7-4.85C1635.21,771.17,1637.11,770.72,1640.58,772.2Z" transform="translate(-1491.57 -686.61)"/>
    <path class="cls-14" d="M1573.65,778a26.43,26.43,0,0,1,.52-5.82c2.54-5.6,6.78-8,12.79-7.38a11.57,11.57,0,0,1,.75,22.7C1580.77,789,1575.08,785.11,1573.65,778Zm4.33-1.87c-.18,3.7,1.63,6.47,4.87,7.5a7.32,7.32,0,0,0,8.66-3.25,7.51,7.51,0,0,0-1.16-9.18c-2-2.18-5.38-2.55-8.36-.93-1.86-.73-3.73-1.24-5.1.83s-.4,3.6,1.09,5Z" transform="translate(-1491.57 -686.61)"/>
    <path class="cls-18" d="M1582,770.26c3-1.62,6.33-1.25,8.36.93a7.51,7.51,0,0,1,1.16,9.18,7.32,7.32,0,0,1-8.66,3.25c-3.24-1-5-3.8-4.87-7.5,1.7.54,3.28.45,4.46-1.06C1583.77,773.35,1582.77,771.8,1582,770.26Z" transform="translate(-1491.57 -686.61)"/>
    <path class="cls-15" d="M1582,770.26c.78,1.54,1.78,3.09.45,4.8-1.18,1.51-2.76,1.6-4.46,1.06-1.49-1.43-2.42-3-1.09-5S1580.13,769.53,1582,770.26Z" transform="translate(-1491.57 -686.61)"/>
  </g>
</svg>
