<svg id="Layer_1" data-name="Layer 1" xmlns="http://www.w3.org/2000/svg" viewBox="0 0 260 168"><defs><style>.cls-1{fill:#fff;}</style></defs><path class="cls-1" d="M70.07,37.33a28.06,28.06,0,0,0-13.2-3.12c-6.9,0-13,2.22-16.87,5.65-10.21.89-18.12,6.67-18.32,13.71-6,3-10.06,8.3-10.06,14.39,0,7.32,5.83,13.55,14,15.88,0,.26,0,.52,0,.78A14.09,14.09,0,0,0,46.83,96.76c3.77,3.83,10.25,6.36,17.62,6.36,8.54,0,15.89-3.4,19.2-8.29,10.74-.65,19.15-6.69,19.15-14,0-.33,0-.65,0-1,.25-.35.5-.7.73-1.06,4.28-3.09,7-7.56,7-12.53,0-5.47-3.26-10.33-8.3-13.41a37.74,37.74,0,0,0-12.64-9.89,14.11,14.11,0,0,0-11.56-6,14,14,0,0,0-4.81.86C72.13,37.58,71.1,37.44,70.07,37.33Z"/><ellipse class="cls-1" cx="110.34" cy="79.15" rx="4.06" ry="3"/></svg>