<svg id="Layer_1" data-name="Layer 1" xmlns="http://www.w3.org/2000/svg" viewBox="0 0 457.48 356.5">
  <defs>
    <style>
      .cls-1 {
        fill: #a88c60;
      }

      .cls-2 {
        fill: #836f51;
      }

      .cls-3 {
        fill: #bba37d;
      }

      .cls-4 {
        fill: #796440;
      }
    </style>
  </defs>
  <title>Rocks</title>
  <g>
    <path class="cls-1" d="M474.32,726.46S404.31,711.09,377,764s-42.68,162.21-54.64,196.36-46.1,112.69,150.26,102.45,201.48-112.7,128.06-215.14C552.86,786.22,529,738.41,474.32,726.46Z" transform="translate(-312.34 -724.38)"/>
    <path class="cls-2" d="M494.65,1049.26C298.29,1059.51,332.44,981,344.4,946.81S371.72,803.39,399,750.46A68.88,68.88,0,0,1,413.84,731C399.61,736.6,386,746.59,377,764,349.67,817,334.31,926.23,322.35,960.38s-46.1,112.69,150.26,102.45c66.28-3.46,110.74-17.44,137.78-38.36C583.25,1037.82,545.34,1046.62,494.65,1049.26Z" transform="translate(-312.34 -724.38)"/>
  </g>
  <g>
    <path class="cls-3" d="M660.16,913.26c-20.9,2.09-75.07-4.79-97.43,28.75s-81.45,119.79,43.13,135.77,180.48-32,159.72-91S740,905.28,660.16,913.26Z" transform="translate(-312.34 -724.38)"/>
    <path class="cls-2" d="M627,1068.19c-124.59-16-65.49-102.22-43.13-135.76A50.35,50.35,0,0,1,597,919.1C583.59,923,571.24,929.81,563.11,942c-22.36,33.54-81.46,119.79,43.12,135.77,60.57,7.76,104.85.4,132-16C711.24,1071.14,674,1074.22,627,1068.19Z" transform="translate(-312.34 -724.38)"/>
  </g>
  <g>
    <path class="cls-3" d="M584.65,836.46c-14,1.4-50.13-3.2-65.06,19.2s-54.4,80,28.79,90.67S668.91,925,655.05,885.53,638,831.13,584.65,836.46Z" transform="translate(-312.34 -724.38)"/>
    <path class="cls-4" d="M562.5,939.93c-83.2-10.67-43.73-68.27-28.8-90.67a33.48,33.48,0,0,1,8.77-8.9c-9,2.59-17.2,7.16-22.64,15.3-14.93,22.4-54.39,80,28.8,90.67,40.45,5.18,70,.26,88.18-10.67C618.76,941.89,593.9,944,562.5,939.93Z" transform="translate(-312.34 -724.38)"/>
  </g>
</svg>
