<svg id="Layer_1" data-name="Layer 1" xmlns="http://www.w3.org/2000/svg" viewBox="0 0 4116.48 617.48">
  <defs>
    <style>
      .cls-1 {
        fill: #88d97e;
      }

      .cls-2 {
        fill: #559315;
      }
    </style>
  </defs>
  <title>GrassGround</title>
  <g id="pMGFnq.tif">
    <g>
      <path class="cls-1" d="M4052.65,1310.25h0q.18-98.55.34-197.1c.05-28.56-.19-57.14.16-85.7.08-6.75-1.67-8.49-8.64-9.27-37.16-4.17-74.46-7.83-109.72-21.95-9.33-3.74-19.07,0-28.43,2-21.94,4.75-43.7,10.46-66.1,12.84a164.65,164.65,0,0,1-19.21,1.16c-18.09-.21-26.72-7.9-29.51-25.79-3.24-20.69-5.73-22.25-26.88-17.91-22.74,4.67-44.51,12.74-66.85,18.85-7.95,2.18-12.56.13-17-6.41-19.54-28.58-25.51-30.34-58.71-18.46-14.41,5.15-28.77,10.5-43.22,15.54a47.06,47.06,0,0,1-10.44,2c-2.36.25-5.35.72-6.45-2.32s1.37-4.53,3.12-6.23c1.28-1.24,2.87-2.17,4.07-3.47,3.16-3.43,11-5.07,8.72-10.2-1.75-3.82-9.18-1.64-13.92-1-15.53,2.09-31,4.44-46.45,7.34-3.09.58-4.59.17-6.52-2.33,3.83-1.64,7.58-3.18,11.28-4.86,2.6-1.17,5.85-2.4,5.4-5.8-.51-3.83-4.2-4.76-7.37-4.9a46.61,46.61,0,0,0-10.58.94c-15.94,2.94-30.25,10.37-44.92,16.8-.49-.58-1.12-1-1.24-1.53-5.07-21.39-5.08-21.5-27-18.57-24.08,3.22-48.18,6-72.54,4.37-3.82-.26-8,.21-11.12-2.88-.62-1.68.48-2.62,1.6-3.42,12.76-9.13,12.77-9.12-.44-15.54H3334.8c-14.42,5.27-29.85,4.74-44.69,7.78-29.35,6-58.89,11.11-88.35,16.59-12.93,2.41-14.7,1.41-14.89-11.63-.12-8.23-2.68-10.87-10.88-8.73-15.81,4.12-31.77,7.67-50.54,12.14,9-8.34,6-11-1.88-12.5-17.72-3.32-34.85.88-52,3.8-15.69,2.68-31.23,6.32-47.06,9.59.35-5,7.84-6.94,3.69-11.71-3.3-3.81-8.3-3.27-13-2.08-9.51,2.4-17.53,7.85-26,12.33-1.89,1-3.85,2.65-5.91,1.39-2.57-1.57-.5-3.88,0-5.69,2.23-8.15-1.57-7.81-7-5.13-9.92,4.87-19.75,9.93-29.72,14.68-4.39,2.09-8.77,4.53-14.09,4.83,3.65-14.93,1.65-17.76-14.06-14.45-32.35,6.82-65.73,11.59-93.44,31.67-20.45,14.82-43.4,20.3-67.82,23-19.07,2.07-36.73,8.27-50.46,22.77-1.63,1.71-3.51,3.64-6.41,3.59-.43-.46-1.33-1.06-1.24-1.38,1.05-3.81,6.47-7.55,2.05-11.37-4.25-3.66-8.89.35-12.63,2.61-9.76,5.91-19.14,12.45-28.79,18.56-3.56,2.25-7.06,5-12.66,4.8,4-12.29-4.59-13.23-12.89-13.81-18.11-1.28-35.32,4-52.72,7.87-9.75,2.14-19.47,4.42-29.28,6.24-3.4.63-7.9,1-6.66-5,2-9.79-3.76-6.44-7.58-4.2-14.16,8.28-28.49,16.38-42,25.7-11.09,7.67-21.62,10.71-34.81,5.48-11.08-4.4-23.26-2.87-35-2.78a495.68,495.68,0,0,1-83.15-6.69c-13.73-2.21-14.34-4.89-6.53-16.57,3.09-4.61,8.48-9.18,5.2-15.24s-10.37-5.66-16.38-5.32c-27.73,1.57-53.58,11.48-80.07,18.52-16.19,4.3-32.29,8.84-48.68,12.42-16,3.49-30.61.64-44.22-7.49-10.08-6-20.27-12.29-29.05-20-14.64-12.86-30.83-15.08-48.9-10.8-23.94,5.68-48.48,9.49-71.72,17.21-33.77,11.23-67.33,9.61-101.48,4.51-33.15-4.94-66.68-7.62-98.89-17.77a24.51,24.51,0,0,0-8.51-.75c-28.68,1.46-57.7-2.23-85.77,8.13-9.78,3.61-21.07,3.21-31.7,4.41-2.34.26-5.45.83-6.88-1.69-1.6-2.84,1.56-4.28,2.87-6.18,1.77-2.56,5.89-4.9,4.24-7.94-2.13-3.94-6.68-1.5-9.68-.45-12.43,4.37-24.61,9.46-37,13.94-5.57,2-10.92,5.3-17.35,4.52,3.12-10.64,1.81-12-9.24-9.57-10.32,2.26-20.21,7-31.16,6.16-1.23-4,5.41-5,2.68-8.28-2-2.44-5.38-1-8.14-.6-7,.9-13.34,5.09-20.82,4.35-.14-4.18,4.77-5.25,5.35-10.24-15.8,1.52-29.21,11-44.49,11.55-1.64-3.54,2.62-4.16,2.82-7.6-10.25-1.43-19.3,3.14-28.75,4.88-4.31.8-9.79,4.76-9.19-4.76.21-3.29-3.78-2.68-6-2.4-5.65.7-11.25,1.85-16.87,2.79-5,.84-10.54,4.89-12.35-5-.7-3.79-7.6-2-11.77-1.34-9.06,1.48-17.77,6.17-27.26,3.52-3.77-1.06-9.4,0-7.83-8.06.86-4.44-5.24-5-9.11-4.64-12.44,1.11-24.83,2.88-37.29,3.55-2.29.13-10.27,5.47-8.16-4.84.43-2.1-4.71-2.32-7.33-2.55-11.4-1-22.85-1.23-34.21.41-8.65,1.25-16.17.59-24.31-4.28a28.14,28.14,0,0,0-26.95-.83c-10.54,5.56-21.31,4.8-32.27,4.85-3.67,0-7.12-1-9.58-4-7.2-8.72-16.43-8.32-26.42-6.65-13.28,2.2-25.92,7.91-39.51,7.75-2.65-4.27,3.86-5,2.19-9-13.3-1.35-26.64,1.23-40,3-7.23,1-13.6-.2-19.18-4.51a40.7,40.7,0,0,0-20.62-8.18c-24.83-2.92-49.63-6.16-74.66-1.58-8,1.47-16,2.24-23.31-4-5-4.23-11.67-2.6-17.44-.49-8,2.94-15.81,6.52-23.79,9.6-4.92,1.9-9.13,2.48-5.81-5.2s-1.15-8.34-7.09-7.75c-25.57,2.51-51.14,5.09-76.73,7.38-8.59.77-18.05,3.77-23.24-7.41-1.44-3.11-5.14-1.17-7.87-.95-11.28.92-22.38,4.2-33.88,3-1.43-5.43,5.76-6.41,5-11.74-11.19.15-21,5.59-31.52,8.21-3.14.79-6.91,4.1-8.91-1.32-4-10.7-12.44-9.42-20.54-7.48-8.56,2-16.85,5.23-25.26,7.93-2.17-4.42,4.11-3.9,2.68-8.14-8.17-1-16.2,2.64-24.49,3.14-9.66.58-20.09,5.76-27.75-6.3-2.79-4.38-9.71-.67-13.81,1.57-12.49,6.82-26.14,6.08-39.39,8-.68-3.69,4.63-5.26,2.44-8.07s-6-1.06-9.06-.6c-14.77,2.27-29.5,4.71-44.24,7.18-2.85.48-5.62,1.3-7.77-1.52.12-3.85,5-3.69,5.87-6.81-.51-.61-1.07-1.54-1.26-1.48-25.72,9.72-54.58,3.82-79.82,16-3.19,1.55-7.36,4.42-8.95-2.44-1-4.35-4.5-2.12-7-1.58-5.57,1.23-11.08,2.71-16.62,4.06-5.25,1.28-10.16,3.91-14.43-3.1-2.22-3.65-7.84-1.63-12.08-.69-11.48,2.54-23,5.14-34.55,7.17-3.12.55-8.8,4-8.07-4.76.38-4.55-4.69-3.32-7.5-2.18-5.45,2.21-10.69,5-16.5,7.74-.5-3.58.49-5.45,3.05-6.53l.05,0c-.25-.26-.63-.78-.73-.73-19.64,9.48-42.82,2.57-62.29,13.81-9.8,5.66-20.7,8.45-30.49-1.23-2-2-4.51-2-7-1.48a301.9,301.9,0,0,1-73.11,6.77c-10.18-.24-19,7.23-29.12,5.83a51,51,0,0,0-35.47,7.57c-5.12,3.2-11.58,3.29-17.7,3.29-5.35,0-10.71,0-15.9,1.66-27.77,9.09-57.77,8-85.24,18.7-9.43,3.67-19-1.53-28.61-1v538.12q755.7,0,1511.42,0H4038.94c14.1,0,14.11,0,14.09-14Q4052.85,1420.11,4052.65,1310.25Z" transform="translate(63.32 -926.47)"/>
      <path class="cls-2" d="M322.36,952.59l-2-.42.47-1c.5.48,1,.95,1.52,1.42Z" transform="translate(63.32 -926.47)"/>
    </g>
  </g>
</svg>
