<svg id="Layer_5" data-name="Layer 5" xmlns="http://www.w3.org/2000/svg" viewBox="0 0 1920 1080">
  <defs>
    <style>
      .cls-1 {
        fill: #7b8fa4;
      }

      .cls-2 {
        fill: #c4cacf;
      }

      .cls-3 {
        fill: #72869c;
      }

      .cls-4 {
        fill: #8497a9;
      }

      .cls-5 {
        fill: #d42327;
      }

      .cls-6 {
        fill: #f16635;
      }

      .cls-7 {
        fill: #fde500;
      }

      .cls-8 {
        fill: #71b34b;
      }

      .cls-9 {
        fill: #488dcb;
      }

      .cls-10 {
        fill: #382f8d;
      }

      .cls-11 {
        fill: #ff00fb;
      }

      .cls-12 {
        fill: #738191;
      }

      .cls-13 {
        fill: #4d5e70;
      }

      .cls-14 {
        fill: #83d2f3;
      }

      .cls-15 {
        fill: #fff;
      }

      .cls-16 {
        fill: #3e3f3f;
      }

      .cls-17 {
        fill: #040506;
      }
    </style>
  </defs>
  <title>HappyHippo-running_on_the_spot-5</title>
  <g>
    <g>
      <g>
        <path class="cls-1" d="M648.24,729.4c-9.23-9.53,13.47-21.56,3.16-29.9,6-1.92,44.33-33.85,49.74-36.88a379.73,379.73,0,0,0,46.63-31.42,330.67,330.67,0,0,0,39.37-35.63,16.07,16.07,0,0,0,1.84-2.34c5.19-8.34,15.24-9.1,21.69-1.55.72.85,1.13,1.92,2.48,2,5.36.25,8.44,3.87,11.36,7.72.63,3.6,1.75,6.29,5.72,8.17a13.56,13.56,0,0,1,8.07,14.05c-.15,1.66.72,2.1,1.79,2.82,7.25,4.84,8,11.16,2.08,17.64-5.68,6.2-13.44,8.62-21.12,10.83-11.06,3.18-22.27,5.83-33.4,8.75a87.26,87.26,0,0,0-9.06,3.71c-15.82,7.83-31.63,15.69-47.84,22.73C725.1,692.55,653.44,725.94,648.24,729.4Z"/>
        <path class="cls-2" d="M792.22,618.57c-4.25-.58-6.8-3-6.06-6.41,1.75-8,5.79-14.9,13-19.16,4.49-2.64,7.24-1.44,12,3.93,2.78,3.12,3.17,6.24.39,9.87a30.63,30.63,0,0,1-17.45,11.63A8.32,8.32,0,0,1,792.22,618.57Z"/>
        <path class="cls-2" d="M806.85,633.12c-5.64-.86-7.68-4.65-5.31-9.58A31.31,31.31,0,0,1,814.05,610c5.11-3,10.19-1.35,14,4.39,2.72,4.06,1.68,7.73-3.17,11.45a39.39,39.39,0,0,1-13.17,6.94A9.83,9.83,0,0,1,806.85,633.12Z"/>
        <path class="cls-2" d="M817.89,647c-2-.46-4.57-1.11-5.5-4.07-.84-2.65,1.14-4.24,2.71-5.71a128.1,128.1,0,0,1,11-9.58c4.9-3.65,11.59-1.39,13.83,4.33a5.53,5.53,0,0,1-.44,5C836.08,642.87,825.35,648.1,817.89,647Z"/>
      </g>
      <g>
        <path class="cls-3" d="M655.27,982.41c-.5-.69-1.1-1.3-1.66-1.94a28.66,28.66,0,0,1-.75,8.36C658.7,987.23,658.71,987.23,655.27,982.41Z"/>
        <path class="cls-3" d="M630.53,939.88a25.67,25.67,0,0,0,.83-10.37,44.8,44.8,0,0,1,8.4-33.93c2.52-4.71,4.94-30.47-30.56-35.43-34.33-4.8-35.51,26.28-35.82,35-.4,2.74-2.69,26.16-3,27.22-1,7.53-3,15-2.25,22.64.63,6.81-1,12.89-3.93,19-2.4,5-2.12,10.78-3.83,16a6,6,0,0,0,1.35,6.5,17.47,17.47,0,0,0,6.27,4,72.61,72.61,0,0,0,16.77,4.59c5,.85,10.18,2,15.24,2,2.12,0,16.18-.61,18.7-1,4.08-.59,11.39-1.76,15.46-2.46,1.6-.28,3.39-.59,5-1s3.65-.15,2.72-2.36a34.21,34.21,0,0,0-2.65-5.4c-3.15-4.83-6.16-9.76-9.56-14.49-2.11-2.94-6.69-7.58-4.46-11.59.62-1.11,1.6-2,2.18-3.11a13.83,13.83,0,0,0,1.36-5.24A55.07,55.07,0,0,1,630.53,939.88Z"/>
        <path class="cls-2" d="M634.49,994.73a7.46,7.46,0,0,1-6.18-1.25c-4.55-3.46-5.25-9-5.86-14.59a44.73,44.73,0,0,1-.05-7.85c.3-4.47,4.11-6.45,8-4.28,5.84,3.27,11.53,15.74,9.92,22.15a8.65,8.65,0,0,1-.9,2.11,7.49,7.49,0,0,1-4.85,3.69Z"/>
        <path class="cls-2" d="M617,998.24a6.62,6.62,0,0,1-7.49-4.3c-1.87-5.38-1-11.13-.71-16.76A14.79,14.79,0,0,1,610,971c1.91-3.74,4.76-4.23,7.71-1,3.78,4.12,4.95,9.43,6.4,14.61,1.14,4.09.74,7.7-1.44,10.89a6,6,0,0,1-3.84,2.4Z"/>
        <path class="cls-2" d="M649.44,990c-5.21.28-8.08-2.62-9.64-7.2-1.69-5-3.31-9.94-4.93-14.92-.63-2-.87-3.71.92-4.18a3.06,3.06,0,0,1,2.7.67,109.42,109.42,0,0,1,12.58,12,15.39,15.39,0,0,1,3.62,7.94C655,986.88,654.58,989.59,649.44,990Z"/>
      </g>
      <g>
        <path class="cls-3" d="M564.46,927.87h0v0Z"/>
        <path class="cls-4" d="M764.25,731.9c-.19-10.3-4-33.75-4.78-35.29a229.5,229.5,0,0,0-7.69-24c-4.5-10.86-9.07-21.69-15.06-31.85-.53-.9-1.21-3.4-1.53-3.66-10,2.82-20,5.36-30.35,6.56a195,195,0,0,1-43.87,0c-24.25-2.65-44.94-17-67-26.74l-56.4-35.35a224.75,224.75,0,0,1-29.43-31.22c-4.79,15.27-11.9,38.13-16.63,53.41-3.41,11-8.5,21.35-12.85,32,0,0-25.76,48.69-31.87,70.89-8.84,24.89-13.19,50.25-8.1,76.64,1.87,9.64.86,10.91-9.11,12.61a30,30,0,0,1-3,.22c-18.1,1.28-34.26-4.61-49.61-13.43-3.1-1.78-6.09-3.74-9.26-5.69-.6,1.77.41,2.73.95,3.78,5.79,11.32,14.82,19.43,25.72,25.6a82.45,82.45,0,0,0,48.75,10.67c5.88-.51,5.89-.66,8.42,4.6,13.08,27.25,33.22,47,61.51,58.21,1.84.73,3.86,1.1,5.71,2.16l.49.31s53.08,11.68,102.67,9.3c2.5.1,5,.06,7.51.08a239.57,239.57,0,0,0,23.9-2.22c44.23-7.11,75-31.83,93.94-71.9a176.53,176.53,0,0,0,14.87-51A219.57,219.57,0,0,0,764.25,731.9Z"/>
      </g>
      <g>
        <path class="cls-4" d="M668.52,869.36l-.3-.12c-11.47-4.3-19.62-12-24.21-23.44a17.86,17.86,0,0,0-9.64-9.84c-5-2.25-9.68-5.29-15.34-5.81-1.67-.16-2.54-1.36-3-2.95,0,0-35.26,6.1-18.6,53.86,5.23,15,18,25.67,30.1,34.77C634.3,895.43,648,877.18,668.52,869.36Z"/>
        <path class="cls-4" d="M676.38,971.11a1.57,1.57,0,0,0,.14-.83,15.2,15.2,0,0,0-1.91-5.76L665,944.78c-.42-.87-.86-1.75-1.37-2.59-.06-2.5,2.73-3.72,3.13-6.06,1.62-9.38,6.43-17.87,7.76-27.34C659.9,892.1,637.73,885.9,616.14,887c-1.54,5.54-2.93,10.88-4.45,15.66-.53,2.73-1.15,5.27-1.49,7.85-1.08,8.09-2,16.06-7.24,23-3.05,4.07-3.65,9.54-5.56,14.3-1.7,4.26-1.58,6.26,1.93,9.13,5.53,4.51,12.11,7.42,18.89,9.51,7.17,2.2,14.41,4.13,21.74,5.69,1.57.33,3.13.67,4.72.87a59.8,59.8,0,0,0,9.56.18c2.74-.09,17-1.39,20.72-1.56A1.65,1.65,0,0,0,676.38,971.11Z"/>
        <path class="cls-2" d="M631.34,970.07a7.11,7.11,0,0,1-5.34-6.88,12.45,12.45,0,0,1,.35-2.65c1.29-5.46,2.63-10.9,5.13-15.95,1-2.08,2.13-4.41,5.06-4.25s3.82,2.39,4.81,4.59c1.51,3.38,2,10.76,1.91,10.61.63-1.83,1.32-4.4,2.23-6.54,1.16-2.73,1.54-6.11,5.35-6.35s5.78,2.43,7.17,5.56c1.9,4.3,2.35,8.88,2.59,13.51a10.56,10.56,0,0,1-4.45,9.66,4.86,4.86,0,0,1-2.76,1h-.09a9.75,9.75,0,0,1-9.2-6.55,18,18,0,0,1-.83-3.35c0-.35-.09-.7-.15-1a21.92,21.92,0,0,1-4.6,7.33,6.38,6.38,0,0,1-5.35,1.69A16.05,16.05,0,0,1,631.34,970.07Z"/>
        <path class="cls-2" d="M663.21,970.21c-2.5-2.91-3.34-6.4-3.25-10.37s-.35-7.68-.49-11.53c-.1-2.6-.32-5.37,2.83-5.49a2.42,2.42,0,0,1,2.07,1.07c3.49,5.07,7.37,14,9.11,18.29a7.29,7.29,0,0,1,.21,4.81h0a6.78,6.78,0,0,1-7.94,4.67A5.66,5.66,0,0,1,663.21,970.21Z"/>
        <path class="cls-4" d="M668.22,869.24s15.23,12.85,6.25,39.55L629,903.5l-8-26Z"/>
      </g>
      <g>
        <path class="cls-1" d="M499.51,670.16a36.77,36.77,0,0,1-16.86,13.57c11.58,10,23.52,19.46,35.45,29a85.23,85.23,0,0,1,7.2,6.63c7.36,8.84,14.51,17.87,22.08,26.54,5.26,6,10.73,12,18.76,14.55,8.38,2.63,13.78-.75,15.09-9.36.2-1.28.23-2.25,1.8-2.82a13.55,13.55,0,0,0,9.3-13.27c0-4.39,2-6.54,5-8.64,2.26-4.27,4.22-8.6,2.18-13.56-.51-1.25.29-2.07.75-3.09,4.1-9-.84-17.82-10.6-19a16,16,0,0,1-2.89-.67,329.9,329.9,0,0,1-49-20.57c-11.7-6-23.16-12.42-34.23-19.48C504.18,657.11,503.31,664.53,499.51,670.16Z"/>
        <path class="cls-1" d="M548.66,584c-3.57,5.12-58,62.44-62.39,66.8-1.43,1.43-2.86,2.87-4.27,4.32,2.7,9.86,10.71,18.82,20.12,21.33a43.52,43.52,0,0,0,12.27,1.34c3.07-4.16,6.22-8.27,9.5-12.28,3.91-4.8,27.92-48.55,32.78-52.53C579.08,575.54,570.13,565.63,548.66,584Z"/>
        <path class="cls-1" d="M482,655.07s-11.69,14.39.65,28.66l37-8.06-3.67-31Z"/>
      </g>
      <g>
        <path class="cls-5" d="M485.93,440c32.66-60.34,125.3-73.78,208.53-28.73s120.95,125,88.28,185.37-120.27,70.81-203.49,25.76S453.27,500.3,485.93,440Z"/>
        <path class="cls-6" d="M499.85,447C529.47,392.31,613.49,380.12,689,421s104.94,118.17,80.07,168.13c-27.73,55.7-109.08,64.22-184.57,23.37S470.23,501.77,499.85,447Z"/>
        <path class="cls-7" d="M511.74,454.41c26.9-49.7,103.22-60.77,171.77-23.67s96.87,102,71.21,154.37c-24.85,50.76-100,56.36-168.53,19.25S484.84,504.12,511.74,454.41Z"/>
        <path class="cls-8" d="M522.48,459.88C547,414.5,616.7,404.4,679.28,438.27s88.53,93.92,64,139.29-88,53.35-150.6,19.48S497.92,505.25,522.48,459.88Z"/>
        <path class="cls-9" d="M536.14,466.83c23.22-46.37,82.78-48.74,137.76-19S751.54,531.18,730,571s-77.2,46.05-132.18,16.29S515.85,507.36,536.14,466.83Z"/>
        <path class="cls-10" d="M547.7,473.06c18.91-34.94,73.2-42.74,121.39-16.66s70,72.4,51.12,107.34-72,43.41-120.16,17.32S528.79,508,547.7,473.06Z"/>
        <path class="cls-11" d="M559.57,478.75c10.49-32.85,63.15-37.19,105.1-14.48s57.77,62,41.3,92.45-63.14,37.46-105.09,14.75S551.54,503.92,559.57,478.75Z"/>
      </g>
    </g>
    <g>
      <path class="cls-4" d="M619.73,298.18c24.72-4.53,48.1-3.26,66.78,16.43,9.41,9.92,15.81,21.9,21.94,34,1.51,3,2.08,7.38,4.89,8.57s6.22-1.75,9.36-2.86c18.43-6.53,37.33-10.89,56.93-10.67,22.23.24,42.81,5.89,60.23,20.63,12.4,10.5,19.45,23.75,22.43,39.67,3.9,20.8,5.14,41.45-.35,62.15-7.09,26.74-27,44.38-54.54,48.14-2.6.36-5.21.62-7.82.93-1.84-.54-3.53.49-5.32.5-11.88,0-23.77.12-35.65-.45l-11.22-.87-15.31-2.31a131.8,131.8,0,0,1-15.92-3.73c-19.65-5.48-36.58-15.84-52.14-29.84a8.69,8.69,0,0,0,.23,1.64c12,21.64,27.31,40.46,48.33,54,11.46,7.39,23.91,12,37.84,11.42.88.42,2.11-.25,3.25.91l-14.37,6-13.74,3.95-18.09,3c-5.17,1.13-10.45.79-15.67,1a14.28,14.28,0,0,0-8,2.59,46.54,46.54,0,0,1-22.88,7.65c-21.19,1.68-40.36-4.24-57.68-16.31-11.89-8.29-21.57-18.67-25.43-32.92-15.76-8.15-58.86-32.92-52.79-115C529.8,341.69,573.56,318,569,317.84c-3.75-.15-7.48-.15-11.23-.54-6.54-.7-9.07-5.09-10.85-10.44a13.9,13.9,0,0,1,2.78-14.32c11.93-14.16,34-7.12,41.42,3.54,1.82,2.6,2.79,5.89,5.69,7.7a10.41,10.41,0,0,1,.41,1.42c.46,3.06,1.34,3.93,4.4,1.85A71.17,71.17,0,0,1,619.73,298.18Z"/>
      <path class="cls-12" d="M619.73,298.18a71.17,71.17,0,0,0-18.16,8.87c-3.06,2.08-3.94,1.21-4.4-1.85a10.41,10.41,0,0,0-.41-1.42,29.51,29.51,0,0,0-9.68-16.55c-4.46-4-7.31-8.94-6.57-15.26a15,15,0,0,1,14.13-12.81c13-.48,21.25,5.41,24.58,18,1.63,6.15,3.26,12.41.52,18.76A6,6,0,0,0,619.73,298.18Z"/>
      <path class="cls-13" d="M589.23,317.21c-9.25-10.8-20.24-17.66-34.76-20.46C570.69,294.56,586.32,303,589.23,317.21Z"/>
      <path class="cls-2" d="M791.77,530.92a109.61,109.61,0,0,1-13.47,3.49c-4.1.1-8.25.48-11.87-2.1a46.19,46.19,0,0,0,17.26-2.62c6.48-2.36,10.13-7,10.57-14,1.79,0,3.48-1,5.32-.5C798.73,521.3,796.51,526.74,791.77,530.92Z"/>
      <path class="cls-14" d="M739.77,537.54l-.57-.74C739.73,536.79,739.73,537.18,739.77,537.54Z"/>
      <path class="cls-15" d="M642.81,332.25c5.77-7.1,13-10.41,22.15-8.11,10.29,2.59,16.63,9.41,19.24,19.51a43.66,43.66,0,0,1-1.35,26.61,21.05,21.05,0,0,1-16,13.64c-.56.09-1.08.16-1.57.2-19,1.41-27.93-8.32-29.94-25.73-.49-4.25.47-8.46.9-12.67,2-4.29,3.2-8.91,5.93-12.84l-.09,0Z"/>
      <path class="cls-16" d="M739.77,537.54c3,3.4,6.87,5.65,10.65,8-13.93.56-26.38-4-37.84-11.42-21-13.55-36.28-32.37-48.33-54a8.69,8.69,0,0,1-.23-1.64c15.56,14,32.49,24.36,52.14,29.84,2,3,3.88,6.09,6,9,5,7.13,10.15,14.13,17.14,19.51l0-.07Z"/>
      <path class="cls-13" d="M802.55,383.71c-3.66,2.63-7.3,5.21-9.88,9-2.88,4.21-3.84,8.54-1.62,13.44s5.65,7.37,11.08,7.38c7.18,0,14.07-3.88,16.06-9.12,3-8-2.65-10.91-8.46-10.27-8.79,1-10.9,5.88-6.74,15.16-3.65.06-5.65-2.07-6.69-4.94-1.2-3.3-1.41-6.86,1.69-9.33,5.55-4.41,11.85-7,19.11-6.45a6.66,6.66,0,0,1,6.1,4.84c3.68,10.56-7.88,27-19,26.64a24.31,24.31,0,0,1-19-9.26c-3.7-4.61-2.94-13,1.54-18.9C790.72,386.71,795.84,383.79,802.55,383.71Z"/>
      <path class="cls-15" d="M765.46,532.09c-5.15-4.46-6.72-10.37-6.85-16.86,11.88.57,23.77.47,35.65.45-.44,7-4.09,11.65-10.57,14a46.19,46.19,0,0,1-17.26,2.62Z"/>
      <path class="cls-13" d="M683.69,375.31a90.6,90.6,0,0,1,24.06-14.45,21.53,21.53,0,0,1,2.87-.85c.31-.08.68.1,1.82.3-28,13.73-48.7,34-61.94,62.44-.13-4.88,2.12-10.56,6.63-17.77a117.05,117.05,0,0,1,17.8-21.78C675.85,382.31,682.56,376.24,683.69,375.31Z"/>
      <path class="cls-13" d="M639.89,323.81c.89-8.44,10.93-18.13,20.1-19.42,7.64-1.07,17.07,5.38,20.31,13.92.07.17-.11.44-.2.76-1.85-.38-2.69-2.09-4-3.1-10.58-7.91-24.45-6.11-32.86,4.33-1,1.26-1.81,2.71-3.3,3.52Z"/>
      <path class="cls-16" d="M642.21,332.86c-2.73,3.93-4,8.55-5.93,12.84A15.39,15.39,0,0,1,625.91,341c3-.07,5.76,1.76,8.35-.64-2.07-1.4-4.44-2.18-6-5.46C633.57,336.27,637.83,334.3,642.21,332.86Z"/>
      <path class="cls-13" d="M639.9,323.82a.84.84,0,0,1-.14.32c0,.05-.16,0-.24,0l.37-.37Z"/>
      <path class="cls-16" d="M642.81,332.25l-.69.64Z"/>
      <path class="cls-13" d="M646.58,352.81a18.87,18.87,0,1,1,18.78,18.9A18.85,18.85,0,0,1,646.58,352.81Zm6.89-2.6c-.05,1-.17,2-.16,3a11.58,11.58,0,0,0,8,11A12.4,12.4,0,0,0,675,359.7a12.18,12.18,0,0,0-.35-14.28A11.44,11.44,0,0,0,661,341.88c-2.62-1.52-5.22-1.74-7.44.58C651.18,344.93,651.66,347.61,653.47,350.21Z"/>
      <path class="cls-17" d="M661,341.88a11.44,11.44,0,0,1,13.67,3.54A12.18,12.18,0,0,1,675,359.7a12.4,12.4,0,0,1-13.67,4.54,11.58,11.58,0,0,1-8-11c0-1,.11-2,.16-3,2.76,1.79,5.59,2.36,8-.35S663.14,344.42,661,341.88Z"/>
      <path class="cls-15" d="M661,341.88c2.17,2.54,2.88,5.3.5,8s-5.24,2.14-8,.35c-1.81-2.6-2.29-5.28.06-7.75C655.75,340.14,658.35,340.36,661,341.88Z"/>
    </g>
  </g>
</svg>
