<svg id="Layer_9" data-name="Layer 9" xmlns="http://www.w3.org/2000/svg" viewBox="0 0 1920 1080">
  <defs>
    <style>
      .cls-1 {
        fill: #72869c;
      }

      .cls-2 {
        fill: #c4cacf;
      }

      .cls-3 {
        fill: #8497a9;
      }

      .cls-4 {
        fill: #7b8fa4;
      }

      .cls-5 {
        fill: #d42327;
      }

      .cls-6 {
        fill: #f16635;
      }

      .cls-7 {
        fill: #fde500;
      }

      .cls-8 {
        fill: #71b34b;
      }

      .cls-9 {
        fill: #488dcb;
      }

      .cls-10 {
        fill: #382f8d;
      }

      .cls-11 {
        fill: #ff00fb;
      }

      .cls-12 {
        fill: #738191;
      }

      .cls-13 {
        fill: #4d5e70;
      }

      .cls-14 {
        fill: #83d2f3;
      }

      .cls-15 {
        fill: #fff;
      }

      .cls-16 {
        fill: #3e3f3f;
      }

      .cls-17 {
        fill: #040506;
      }
    </style>
  </defs>
  <title>HappyHippo-running_on_the_spot-9</title>
  <g>
    <g>
      <g>
        <path class="cls-1" d="M655.27,982.41c-.5-.69-1.1-1.3-1.66-1.94a28.66,28.66,0,0,1-.75,8.36C658.7,987.23,658.71,987.23,655.27,982.41Z"/>
        <path class="cls-1" d="M638.81,937.29a25.44,25.44,0,0,0-.61-10.39,44.84,44.84,0,0,1,3.63-34.77c1.84-5,.67-30.86-35.17-30.86-34.67,0-31.53,31-30.64,39.59,0,2.77,1,26.28.82,27.37.06,7.6-.87,15.27.9,22.74,1.57,6.66.8,12.9-1.27,19.32-1.69,5.26-.61,11-1.57,16.38a5.94,5.94,0,0,0,2.23,6.25,17.21,17.21,0,0,0,6.77,3.1,72.08,72.08,0,0,0,17.24,2.24c5.05.15,10.36.52,15.37-.16,2.1-.28,15.93-2.83,18.38-3.54,4-1.15,11-3.32,15-4.58,1.55-.5,3.28-1.05,4.76-1.7s3.6-.65,2.37-2.72a33.81,33.81,0,0,0-3.38-5c-3.78-4.35-7.44-8.81-11.46-13-2.5-2.62-7.68-6.58-6-10.87.45-1.18,1.3-2.16,1.72-3.38a13.8,13.8,0,0,0,.63-5.38A54.07,54.07,0,0,1,638.81,937.29Z"/>
        <path class="cls-2" d="M634.49,994.73a7.46,7.46,0,0,1-6.18-1.25c-4.55-3.46-5.25-9-5.86-14.59a44.73,44.73,0,0,1-.05-7.85c.3-4.47,4.11-6.45,8-4.28,5.84,3.27,11.53,15.74,9.92,22.15a8.65,8.65,0,0,1-.9,2.11,7.49,7.49,0,0,1-4.85,3.69Z"/>
        <path class="cls-2" d="M617,998.24a6.62,6.62,0,0,1-7.49-4.3c-1.87-5.38-1-11.13-.71-16.76A14.79,14.79,0,0,1,610,971c1.91-3.74,4.76-4.23,7.71-1,3.78,4.12,4.95,9.43,6.4,14.61,1.14,4.09.74,7.7-1.44,10.89a6,6,0,0,1-3.84,2.4Z"/>
        <path class="cls-2" d="M649.44,990c-5.21.28-8.08-2.62-9.64-7.2-1.69-5-3.31-9.94-4.93-14.92-.63-2-.87-3.71.92-4.18a3.06,3.06,0,0,1,2.7.67,109.42,109.42,0,0,1,12.58,12,15.39,15.39,0,0,1,3.62,7.94C655,986.88,654.58,989.59,649.44,990Z"/>
      </g>
      <g>
        <path class="cls-1" d="M564.46,927.87h0v0Z"/>
        <path class="cls-3" d="M764.25,731.9c-.19-10.3-4-33.75-4.78-35.29a229.5,229.5,0,0,0-7.69-24c-4.5-10.86-9.07-21.69-15.06-31.85-.53-.9-1.21-3.4-1.53-3.66-10,2.82-20,5.36-30.35,6.56a195,195,0,0,1-43.87,0c-24.25-2.65-44.94-17-67-26.74l-56.4-35.35a224.75,224.75,0,0,1-29.43-31.22c-4.79,15.27-11.9,38.13-16.63,53.41-3.41,11-8.5,21.35-12.85,32,0,0-25.76,48.69-31.87,70.89-8.84,24.89-13.19,50.25-8.1,76.64,1.87,9.64.86,10.91-9.11,12.61a30,30,0,0,1-3,.22c-18.1,1.28-34.26-4.61-49.61-13.43-3.1-1.78-6.09-3.74-9.26-5.69-.6,1.77.41,2.73.95,3.78,5.79,11.32,14.82,19.43,25.72,25.6a82.45,82.45,0,0,0,48.75,10.67c5.88-.51,5.89-.66,8.42,4.6,13.08,27.25,33.22,47,61.51,58.21,1.84.73,3.86,1.1,5.71,2.16l.49.31s53.08,11.68,102.67,9.3c2.5.1,5,.06,7.51.08a239.57,239.57,0,0,0,23.9-2.22c44.23-7.11,75-31.83,93.94-71.9a176.53,176.53,0,0,0,14.87-51A219.57,219.57,0,0,0,764.25,731.9Z"/>
      </g>
      <g>
        <path class="cls-3" d="M518.86,839.14c-21.93-4.07-43.87,9-61.06,15.68-2.45,1.31-4.82,2.43-7,3.79-7,4.26-13.75,8.55-22.44,8.87-5.08.18-9.71,3.16-14.6,4.67-4.39,1.36-5.87,2.71-5.88,7.25,0,7.14,1.85,14.08,4.5,20.66,2.8,7,5.86,13.8,9.26,20.48.73,1.42,1.46,2.85,2.3,4.21a58.42,58.42,0,0,0,5.87,7.54c1.8,2.07,11.77,12.32,14.26,15.12.35.4.8.83,1.32.75a1.45,1.45,0,0,0,.73-.41,15.14,15.14,0,0,0,3.28-5.11q4.62-10,9.26-19.93c.4-.88.81-1.77,1.15-2.69,1.9-1.62,4.6-.23,6.68-1.39,8.54-4.78,18.48-6.33,26.82-11.59l0,0,.74-.59c9.42-7.83,20.18-11.08,32.36-9.39a17.86,17.86,0,0,0,13.33-3.49c4.44-3.21,9.4-5.77,12.66-10.43,1-1.37,2.45-1.53,4.06-1.17C556.38,882,568.58,848.37,518.86,839.14Z"/>
        <path class="cls-2" d="M417.81,912.52a7.12,7.12,0,0,1,2-8.49,13.44,13.44,0,0,1,2.28-1.39c5.06-2.43,10.12-4.82,15.62-6.06,2.26-.5,4.77-1.11,6.49,1.26s.55,4.47-.54,6.63c-1.67,3.3-7.1,8.32-7,8.16,1.81-.66,4.24-1.74,6.48-2.38,2.84-.82,5.72-2.65,8.29.16s1.76,6,.2,9.06c-2.14,4.19-5.42,7.42-8.87,10.53a10.55,10.55,0,0,1-10.3,2.62,4.84,4.84,0,0,1-2.51-1.52l-.06-.07a9.75,9.75,0,0,1-.7-11.27,18.65,18.65,0,0,1,2.08-2.76c.24-.25.49-.5.71-.77a21.72,21.72,0,0,1-8.59,1,6.42,6.42,0,0,1-4.68-3.09A18.56,18.56,0,0,1,417.81,912.52Z"/>
        <path class="cls-2" d="M437.76,937.37c.69-3.78,2.87-6.63,6-9s5.75-5.11,8.65-7.64c2-1.71,4-3.64,6.05-1.26a2.41,2.41,0,0,1,.47,2.28c-1.75,5.9-6.23,14.54-8.48,18.59a7.23,7.23,0,0,1-3.6,3.19h0a6.78,6.78,0,0,1-8.63-3.23A5.61,5.61,0,0,1,437.76,937.37Z"/>
      </g>
      <path class="cls-4" d="M527.3,557c27.37-6.9,31,5.95-5.67,29.53-6.12,1.41-47,30-52.68,32.55a379,379,0,0,0-49.12,27.37,331.87,331.87,0,0,0-42.23,32.18,16.09,16.09,0,0,0-2,2.18c-5.87,7.87-15.95,7.78-21.74-.28-.66-.92-1-2-2.31-2.2-5.32-.7-8.08-4.56-10.66-8.65-.33-3.65-1.22-6.41-5-8.62A13.55,13.55,0,0,1,329,646.36c.29-1.65-.54-2.16-1.55-3-6.82-5.44-7.05-11.8-.59-17.76,6.19-5.7,14.13-7.45,22-9,11.29-2.24,22.68-3.94,34-5.91a86.22,86.22,0,0,0,9.33-2.93c16.43-6.47,32.85-13,49.59-18.61C447.6,587.21,521.83,560,527.3,557Z"/>
      <g>
        <path class="cls-4" d="M666.81,608.85c.83-13.23,25-4.57,24.23-17.81,5.45,3.12,54.88,10,60.76,11.91a380.17,380.17,0,0,0,54.65,13.28,329.58,329.58,0,0,0,52.85,5.08,15.41,15.41,0,0,0,3-.21c9.67-1.79,17,5.12,15.77,15-.14,1.11-.66,2.13.2,3.17,3.42,4.13,2.83,8.85,1.95,13.59-2.24,2.9-3.47,5.54-2.19,9.74A13.55,13.55,0,0,1,873.05,678c-1.33,1-1.07,1.94-.87,3.22,1.31,8.62-2.84,13.45-11.64,13.43-8.4,0-15.42-4.13-22.23-8.32-9.8-6-19.32-12.52-29-18.78a87,87,0,0,0-8.85-4.19c-16.45-6.41-32.9-12.8-49-20C745.84,640.82,672.88,610.36,666.81,608.85Z"/>
        <path class="cls-2" d="M845.73,640.57c-2.44-3.54-2.33-7.07.65-8.8,7.12-4.13,14.91-5.76,23-3.28,5,1.55,5.94,4.38,5.2,11.55-.42,4.16-2.47,6.55-7,6.94a30.66,30.66,0,0,1-20.35-5.06A8.24,8.24,0,0,1,845.73,640.57Z"/>
        <path class="cls-2" d="M844.83,661.17c-3.16-4.74-1.74-8.8,3.5-10.37a31.35,31.35,0,0,1,18.47.08c5.68,1.75,7.87,6.63,6.21,13.33-1.17,4.75-4.57,6.46-10.59,5.38a39.6,39.6,0,0,1-14-5.06A9.83,9.83,0,0,1,844.83,661.17Z"/>
        <path class="cls-2" d="M842.05,678.66c-1-1.77-2.25-4.13-.7-6.81,1.4-2.4,3.9-2,6-1.85a129.82,129.82,0,0,1,14.49,1.68c6,1.16,8.84,7.63,6.12,13.13a5.51,5.51,0,0,1-4,3.06C857.32,689.35,846.23,684.94,842.05,678.66Z"/>
      </g>
      <g>
        <path class="cls-5" d="M485.93,440c32.66-60.34,125.3-73.78,208.53-28.73s120.95,125,88.28,185.37-120.27,70.81-203.49,25.76S453.27,500.3,485.93,440Z"/>
        <path class="cls-6" d="M499.85,447C529.47,392.31,613.49,380.12,689,421s104.94,118.17,80.07,168.13c-27.73,55.7-109.08,64.22-184.57,23.37S470.23,501.77,499.85,447Z"/>
        <path class="cls-7" d="M511.74,454.41c26.9-49.7,103.22-60.77,171.77-23.67s96.87,102,71.21,154.37c-24.85,50.76-100,56.36-168.53,19.25S484.84,504.12,511.74,454.41Z"/>
        <path class="cls-8" d="M522.48,459.88C547,414.5,616.7,404.4,679.28,438.27s88.53,93.92,64,139.29-88,53.35-150.6,19.48S497.92,505.25,522.48,459.88Z"/>
        <path class="cls-9" d="M536.14,466.83c23.22-46.37,82.78-48.74,137.76-19S751.54,531.18,730,571s-77.2,46.05-132.18,16.29S515.85,507.36,536.14,466.83Z"/>
        <path class="cls-10" d="M547.7,473.06c18.91-34.94,73.2-42.74,121.39-16.66s70,72.4,51.12,107.34-72,43.41-120.16,17.32S528.79,508,547.7,473.06Z"/>
        <path class="cls-11" d="M559.57,478.75c10.49-32.85,63.15-37.19,105.1-14.48s57.77,62,41.3,92.45-63.14,37.46-105.09,14.75S551.54,503.92,559.57,478.75Z"/>
      </g>
    </g>
    <g>
      <path class="cls-3" d="M619.73,298.18c24.72-4.53,48.1-3.26,66.78,16.43,9.41,9.92,15.81,21.9,21.94,34,1.51,3,2.08,7.38,4.89,8.57s6.22-1.75,9.36-2.86c18.43-6.53,37.33-10.89,56.93-10.67,22.23.24,42.81,5.89,60.23,20.63,12.4,10.5,19.45,23.75,22.43,39.67,3.9,20.8,5.14,41.45-.35,62.15-7.09,26.74-27,44.38-54.54,48.14-2.6.36-5.21.62-7.82.93-1.84-.54-3.53.49-5.32.5-11.88,0-23.77.12-35.65-.45l-11.22-.87-15.31-2.31a131.8,131.8,0,0,1-15.92-3.73c-19.65-5.48-36.58-15.84-52.14-29.84a8.69,8.69,0,0,0,.23,1.64c12,21.64,27.31,40.46,48.33,54,11.46,7.39,23.91,12,37.84,11.42.88.42,2.11-.25,3.25.91l-14.37,6-13.74,3.95-18.09,3c-5.17,1.13-10.45.79-15.67,1a14.28,14.28,0,0,0-8,2.59,46.54,46.54,0,0,1-22.88,7.65c-21.19,1.68-40.36-4.24-57.68-16.31-11.89-8.29-21.57-18.67-25.43-32.92-15.76-8.15-58.86-32.92-52.79-115C529.8,341.69,573.56,318,569,317.84c-3.75-.15-7.48-.15-11.23-.54-6.54-.7-9.07-5.09-10.85-10.44a13.9,13.9,0,0,1,2.78-14.32c11.93-14.16,34-7.12,41.42,3.54,1.82,2.6,2.79,5.89,5.69,7.7a10.41,10.41,0,0,1,.41,1.42c.46,3.06,1.34,3.93,4.4,1.85A71.17,71.17,0,0,1,619.73,298.18Z"/>
      <path class="cls-12" d="M619.73,298.18a71.17,71.17,0,0,0-18.16,8.87c-3.06,2.08-3.94,1.21-4.4-1.85a10.41,10.41,0,0,0-.41-1.42,29.51,29.51,0,0,0-9.68-16.55c-4.46-4-7.31-8.94-6.57-15.26a15,15,0,0,1,14.13-12.81c13-.48,21.25,5.41,24.58,18,1.63,6.15,3.26,12.41.52,18.76A6,6,0,0,0,619.73,298.18Z"/>
      <path class="cls-13" d="M589.23,317.21c-9.25-10.8-20.24-17.66-34.76-20.46C570.69,294.56,586.32,303,589.23,317.21Z"/>
      <path class="cls-2" d="M791.77,530.92a109.61,109.61,0,0,1-13.47,3.49c-4.1.1-8.25.48-11.87-2.1a46.19,46.19,0,0,0,17.26-2.62c6.48-2.36,10.13-7,10.57-14,1.79,0,3.48-1,5.32-.5C798.73,521.3,796.51,526.74,791.77,530.92Z"/>
      <path class="cls-14" d="M739.77,537.54l-.57-.74C739.73,536.79,739.73,537.18,739.77,537.54Z"/>
      <path class="cls-15" d="M642.81,332.25c5.77-7.1,13-10.41,22.15-8.11,10.29,2.59,16.63,9.41,19.24,19.51a43.66,43.66,0,0,1-1.35,26.61,21.05,21.05,0,0,1-16,13.64c-.56.09-1.08.16-1.57.2-19,1.41-27.93-8.32-29.94-25.73-.49-4.25.47-8.46.9-12.67,2-4.29,3.2-8.91,5.93-12.84l-.09,0Z"/>
      <path class="cls-16" d="M739.77,537.54c3,3.4,6.87,5.65,10.65,8-13.93.56-26.38-4-37.84-11.42-21-13.55-36.28-32.37-48.33-54a8.69,8.69,0,0,1-.23-1.64c15.56,14,32.49,24.36,52.14,29.84,2,3,3.88,6.09,6,9,5,7.13,10.15,14.13,17.14,19.51l0-.07Z"/>
      <path class="cls-13" d="M802.55,383.71c-3.66,2.63-7.3,5.21-9.88,9-2.88,4.21-3.84,8.54-1.62,13.44s5.65,7.37,11.08,7.38c7.18,0,14.07-3.88,16.06-9.12,3-8-2.65-10.91-8.46-10.27-8.79,1-10.9,5.88-6.74,15.16-3.65.06-5.65-2.07-6.69-4.94-1.2-3.3-1.41-6.86,1.69-9.33,5.55-4.41,11.85-7,19.11-6.45a6.66,6.66,0,0,1,6.1,4.84c3.68,10.56-7.88,27-19,26.64a24.31,24.31,0,0,1-19-9.26c-3.7-4.61-2.94-13,1.54-18.9C790.72,386.71,795.84,383.79,802.55,383.71Z"/>
      <path class="cls-15" d="M765.46,532.09c-5.15-4.46-6.72-10.37-6.85-16.86,11.88.57,23.77.47,35.65.45-.44,7-4.09,11.65-10.57,14a46.19,46.19,0,0,1-17.26,2.62Z"/>
      <path class="cls-13" d="M683.69,375.31a90.6,90.6,0,0,1,24.06-14.45,21.53,21.53,0,0,1,2.87-.85c.31-.08.68.1,1.82.3-28,13.73-48.7,34-61.94,62.44-.13-4.88,2.12-10.56,6.63-17.77a117.05,117.05,0,0,1,17.8-21.78C675.85,382.31,682.56,376.24,683.69,375.31Z"/>
      <path class="cls-13" d="M639.89,323.81c.89-8.44,10.93-18.13,20.1-19.42,7.64-1.07,17.07,5.38,20.31,13.92.07.17-.11.44-.2.76-1.85-.38-2.69-2.09-4-3.1-10.58-7.91-24.45-6.11-32.86,4.33-1,1.26-1.81,2.71-3.3,3.52Z"/>
      <path class="cls-16" d="M642.21,332.86c-2.73,3.93-4,8.55-5.93,12.84A15.39,15.39,0,0,1,625.91,341c3-.07,5.76,1.76,8.35-.64-2.07-1.4-4.44-2.18-6-5.46C633.57,336.27,637.83,334.3,642.21,332.86Z"/>
      <path class="cls-13" d="M639.9,323.82a.84.84,0,0,1-.14.32c0,.05-.16,0-.24,0l.37-.37Z"/>
      <path class="cls-16" d="M642.81,332.25l-.69.64Z"/>
      <path class="cls-13" d="M646.58,352.81a18.87,18.87,0,1,1,18.78,18.9A18.85,18.85,0,0,1,646.58,352.81Zm6.89-2.6c-.05,1-.17,2-.16,3a11.58,11.58,0,0,0,8,11A12.4,12.4,0,0,0,675,359.7a12.18,12.18,0,0,0-.35-14.28A11.44,11.44,0,0,0,661,341.88c-2.62-1.52-5.22-1.74-7.44.58C651.18,344.93,651.66,347.61,653.47,350.21Z"/>
      <path class="cls-17" d="M661,341.88a11.44,11.44,0,0,1,13.67,3.54A12.18,12.18,0,0,1,675,359.7a12.4,12.4,0,0,1-13.67,4.54,11.58,11.58,0,0,1-8-11c0-1,.11-2,.16-3,2.76,1.79,5.59,2.36,8-.35S663.14,344.42,661,341.88Z"/>
      <path class="cls-15" d="M661,341.88c2.17,2.54,2.88,5.3.5,8s-5.24,2.14-8,.35c-1.81-2.6-2.29-5.28.06-7.75C655.75,340.14,658.35,340.36,661,341.88Z"/>
    </g>
  </g>
</svg>
