<svg id="Layer_4" data-name="Layer 4" xmlns="http://www.w3.org/2000/svg" viewBox="0 0 595.28 841.89"><defs><style>.cls-1{fill:#7d90a4;}.cls-2{fill:#c2c8ce;}.cls-3{fill:#73869c;}.cls-4{fill:#8497aa;}.cls-5{fill:#d42327;}.cls-6{fill:#f16635;}.cls-7{fill:#fde500;}.cls-8{fill:#71b34b;}.cls-9{fill:#a2ddf7;}.cls-10{fill:#488dcb;}.cls-11{fill:#382f8d;}.cls-12{fill:#8396a9;}.cls-13{fill:#3e3e3e;}.cls-14{fill:#fff;}.cls-15{fill:#363e46;}.cls-16{fill:#4d5e70;}.cls-17{fill:#050607;}.cls-18{fill:#728190;}</style></defs><title>HappyHippo-waving-4</title><path class="cls-1" d="M433.79,426.41c-13,13-19.63,11.61-28,4.39,2-18.28,41.59-169.33,41.81-187.82.12-9.24.86-18.48,3.84-27.39a24.2,24.2,0,0,1,4.93-8.61c5.06-5.62,11.49-6,16.88-.59a5.14,5.14,0,0,0,5.4,1.62c7-1.26,12.48,2,16.7,7.29a5.73,5.73,0,0,0,4.43,2.53c6.8.7,12.34,3.42,14.82,10.38a3.4,3.4,0,0,0,1.94,2.09c6.17,2.81,8.44,8,8.11,14.46-5.55,9.17-12.19,17.6-17.83,26.73q-9.85,15.64-19,31.75C480.07,316.59,433.48,425.16,433.79,426.41Z"/><path class="cls-2" d="M485.94,246.73c-6.87,4.39-12.4,1.85-12.66-4.93a33.92,33.92,0,0,1,6.93-22.39,6.38,6.38,0,0,1,6.53-2.39A11.46,11.46,0,0,1,497,229.59v.09a11.54,11.54,0,0,1-1,3.63A35.06,35.06,0,0,1,485.94,246.73Z"/><path class="cls-2" d="M516.38,236.15c2.81,4.22,1.79,7.85-.37,11.25a38.37,38.37,0,0,1-13.68,12.66c-4.89,2.73-9.32.66-10.08-4.85-.63-4.69.82-9.07,2.65-13.29a30.78,30.78,0,0,1,5.4-8.8c3-3.29,6.32-3.88,10.26-1.76C513,232.63,515.31,234.05,516.38,236.15Z"/><path class="cls-2" d="M474.92,214c2.72,3.84,1.31,7.13-.28,10.17-2.22,4.22-4.78,8.33-7.31,12.42-1.14,1.87-2.33,3.94-5.07,3.52a6.6,6.6,0,0,1-5.33-5c-2.07-6.57-.82-12.9,1.79-19.06a13.8,13.8,0,0,1,.88-1.6C464,207.14,470.59,207.14,474.92,214Z"/><path class="cls-1" d="M105.46,306.91q-9.85-15.69-20.26-31c-6-8.88-13-17-19-25.91-.6-6.52,1.41-11.68,7.44-14.83A3.37,3.37,0,0,0,75.55,233c2.2-7,7.61-10,14.36-11a5.77,5.77,0,0,0,4.35-2.73c3.94-5.47,9.2-9.06,16.29-8a5.14,5.14,0,0,0,5.33-1.84c5.07-5.53,11.51-5.45,16.88-.13a23.93,23.93,0,0,1,5.35,8.44c3.38,8.75,4.53,17.94,5,27.2,1,18.47,47,167.68,49.77,185.87-8.1,7.61-14.6,9.29-28.14-3.19C164.87,426.44,113.67,320,105.46,306.91Z"/><path class="cls-2" d="M104.85,250.41c7,4.1,12.48,1.41,12.44-5.46a33.87,33.87,0,0,0-7.84-22,6.33,6.33,0,0,0-6.58-2.1,11.46,11.46,0,0,0-9.68,13h0a11.24,11.24,0,0,0,1.17,3.61A35,35,0,0,0,104.85,250.41Z"/><path class="cls-2" d="M74,241.2c-2.56,4.3-1.41,7.92.87,11.17a38.38,38.38,0,0,0,14.2,12.14c5,2.52,9.32.25,9.84-5.28.47-4.71-1.18-9-3.19-13.16a30.91,30.91,0,0,0-5.77-8.57c-3.18-3.15-6.53-3.63-10.31-1.31C77.3,237.5,75,239,74,241.2Z"/><path class="cls-2" d="M114.48,217.28c-2.55,4-1,7.19.7,10.16,2.39,4.22,5.15,8.12,7.84,12.1,1.21,1.81,2.47,3.84,5.2,3.29a6.59,6.59,0,0,0,5.15-5.3c1.8-6.67.27-12.93-2.6-19a13.81,13.81,0,0,0-1-1.56C125.17,209.92,118.51,210.25,114.48,217.28Z"/><g id="character"><path class="cls-3" d="M222.67,835.21c-13.46,5.63-27.61,6.94-42,6.64a26,26,0,0,1-3.3-.35c-13-1.84-15.89-5.26-15.55-18.29a52.46,52.46,0,0,1,5.53-23.52,5.64,5.64,0,0,0,.2-4.94,68.45,68.45,0,0,1-3.86-34.53c1.23-7.91-1.94-15-4.94-22.09-.67-1.58-10.32-31.13-11-32.74.44-24.83,26.94-24.85,34.44-24.95,12.66-.14,32.87.73,39.87,24.64,1.2-.22-2.62,24.92-1.41,24.85a48.9,48.9,0,0,0,5.38,27.18,41.41,41.41,0,0,1,3.57,14.68,83.58,83.58,0,0,0,8.82,29.31c2.72,5.51,3.36,11.59,4.36,17.54a4.58,4.58,0,0,1-1.8,4.53,68.73,68.73,0,0,1-13.52,9.62"/><path class="cls-2" d="M219.46,835.48c-5.62,1-9.6-1.41-10.57-7-1.2-7-1-14,1.94-20.6,2.81-6.22,8.75-7,12.56-1.41a38.45,38.45,0,0,1,6.25,19.79C229.8,828.75,225.74,834.41,219.46,835.48Z"/><path class="cls-2" d="M203.71,815.16a27.4,27.4,0,0,1,1.22,14.07,11.37,11.37,0,0,1-13.35,9h0a10.88,10.88,0,0,1-1.93-.55c-4-1.4-4.88-4.84-5.09-8.25a35.81,35.81,0,0,1,4.22-19.57c1.59-2.92,3.95-4.88,7.37-4.59,3.66.31,5.47,3,6.53,6.2C203.12,812.86,203.44,814.31,203.71,815.16Z"/><path class="cls-2" d="M175.21,835.9c-6.69,1.69-10.74-1.17-11-8a28.32,28.32,0,0,1,4.94-17.53,13.57,13.57,0,0,1,3.35-3.41c4.68-3.19,8.44-1.25,8.82,4.43.31,5.41.76,10.82.72,16.22C182,832.5,179.93,834.7,175.21,835.9Z"/><path class="cls-3" d="M383.26,733.05a53.41,53.41,0,0,1,6.93-36.84c9.29-14.46,26.43-12.19,50.21-6.76,14.83,8.84,14.19,14.48,17.06,24,1.19,3.91-8.14,18.08-9.84,21.75-2.23,4.67-4.7,9.21-6.55,14.06a30.43,30.43,0,0,0-2.43,14.47c1.41,11.72-1,22.86-5.5,33.6a5.55,5.55,0,0,0-.13,4.53c3.37,9,4,18.29,3.52,27.72-.24,5-4,7.13-8.07,8.64a38.87,38.87,0,0,1-15.68,2.11c-15-.75-30-2-42.86-10.82-14.66-10.09-12.82-6.7-9.06-23.38a50.2,50.2,0,0,1,4.39-11.86,70.32,70.32,0,0,0,6.6-20.94,67.29,67.29,0,0,1,6.9-21C382,746.43,383,739.79,383.26,733.05Z"/><path class="cls-2" d="M396.86,817.7a22.55,22.55,0,0,1,4-9.85c3-3.8,8-4.07,10.69-.13A28.86,28.86,0,0,1,415,834.13c-1,3-5.07,4.74-8.67,4.42-5.49-.51-8.35-2.58-9.75-7C395.48,828,395.57,823.35,396.86,817.7Z"/><path class="cls-2" d="M374.14,817.18a34.44,34.44,0,0,1,6.06-12.41c3.87-4.76,8.58-4.38,11.6,1,2.81,5,2.95,10.64,2.5,16.21-.21,2.63-.13,5.34-1.6,7.88-2.09,3.58-4.31,5-8.45,4.5C374.37,833.1,371.44,828.75,374.14,817.18Z"/><path class="cls-2" d="M419.34,812.56c1.66-7.65,5.36-8.9,10-5.09a15.51,15.51,0,0,1,4.63,7.85,37.59,37.59,0,0,1,1.52,12.07,9.38,9.38,0,0,1-9.27,9.47h-.12c-4.74.07-8-3.45-7.86-9.26S419,816.32,419.34,812.56Z"/><path class="cls-4" d="M210.74,746.84c-43.69-18.7-70.08-52.17-83.41-97.07a155,155,0,0,1-5.62-56.38c1.71-22.37,7.55-43.91,14.88-65,8.09-23.33,18.18-45.87,27.26-68.8.71-1.78,6.05-15.25,6.26-15.47l23.36-53.75a51.31,51.31,0,0,1,5.82-9.67c4.12-5.63,9.16-30.61,13-28.47,28.48,15.73,39.62,15.56,71.89,17.78,27.46,1.9,46.86,4,73.41-3.18,34.56-9.38,29.14-11.66,43.45-27.29,1.23.42,40.05,84.84,40.49,85.81,6,14.23,13.6,27.7,20.72,41.39q8.53,16.44,16.57,33.12c4.65,9.65,8.16,19.78,12.87,29.4,2.06,6.58,4.23,13.14,6.11,19.69,4.88,16.76,8.55,33.77,8.12,51.32a161.61,161.61,0,0,1-14.39,61.61c-13.62,30.94-33.92,56.38-62.16,75.26-3.16,2.12-6.41,4.22-9.62,6.23-4.65,2.21-9.27,4.49-14,6.61a171,171,0,0,1-39.77,12c-3.65.69-14.32,2.63-16,2.82-16.88,1.59-34-.62-50.8-.82-7-.07-14-.83-21-1.27-1.19-.25-28.67-4-40.92-7.11C230,753.7,212.44,747.55,210.74,746.84Z"/><path class="cls-5" d="M134.26,381.3c0-61.76,72.68-112.09,164.31-112.09s160.6,47.15,160.6,108.91-69.77,107.6-161.4,107.6S134.26,443.07,134.26,381.3Z"/><path class="cls-6" d="M149.36,381c0-56,65.93-101.67,149-101.67s143.8,48.58,145.66,98.78c2.05,56-63.31,97.59-146.39,97.59S149.36,437,149.36,381Z"/><path class="cls-7" d="M162.91,381.68c0-50.87,59.89-92.34,135.36-92.34S427.7,328.56,430.05,381c2.22,50.84-59.09,87.46-134.63,87.46S162.91,432.52,162.91,381.68Z"/><path class="cls-8" d="M174.55,381.41c0-46.42,54.66-84.29,123.55-84.29S416.77,333.54,416.77,380s-50.37,79.94-119.26,79.94S174.55,427.85,174.55,381.41Z"/><path class="cls-9" d="M189.39,381.06C187.78,334.4,237.47,307,298,307s104.48,32.66,104.48,73.46S357.93,450,297.41,450,190.79,421.84,189.39,381.06Z"/><path class="cls-10" d="M202.1,381c0-35.76,42.63-65.2,95.67-65.2s93,27.3,93,63.08-41.29,65.2-94.34,65.2S202.1,416.81,202.1,381Z"/><path class="cls-11" d="M214.84,380.47c-6.22-30.5,36.57-56.5,82.8-56.5s77.78,24.37,77.78,55.49-36.51,56.72-82.69,56.72S219.59,403.84,214.84,380.47Z"/><ellipse class="cls-12" cx="293.66" cy="373.22" rx="52.21" ry="65.99" transform="translate(-160.74 511.24) rotate(-68.7)"/><path class="cls-13" d="M424.91,339.35c-4.12,15.23-13.07,30.27-25.32,39.39-16.7,12.39-37.45,18.46-57.68,22.51a191.42,191.42,0,0,1-79.19-.45c-21.1-4.58-43-12.26-60.31-25.51-12.32-7.47-25.85-24.87-25.32-39.18,7.29-10.22,16.17-19.85,31.58-24.36,28-7.57,45.46-.68,76-.8,23.48.91,58,2.18,81.3-1.31C388.67,306.15,419.79,315.76,424.91,339.35Z"/><path class="cls-14" d="M250.4,363.22c-2,5.63-4.61,10.83-10.82,13-6.86,2-13.17.27-19.22-2-12.4-4.65-16.05-13.56-14.71-22.34,11.62,3.63,29,9.27,41.09,10.95C248,363,249.18,363.1,250.4,363.22Z"/><path class="cls-2" d="M211.25,354.57c-1.18,6.75,4.57,13.32,10.09,16.11a62,62,0,0,0,18.28,5.54c-9.73,4.09-28.84-3.52-32.79-13.12a21.82,21.82,0,0,1-1.41-10.51Z"/><path class="cls-4" d="M385.63,171.72c13.27,16.78,17.22,36.31,16.46,57.13-.17,4.43-.52,8.87-1.11,13.26a3.27,3.27,0,0,0,2.14,4c10.14,5.33,19.39,11.83,26.1,21.39,9,12.83,10.91,27.3,9.45,42.44-.9,9.34-4.94,24.34-13.07,29.12-18.29,15-42.2,21.33-64.91,24.73-23.27,3.49-46.7,3.93-70.17,3a297.94,297.94,0,0,1-40.12-3.56c-1.22-.12-2.45-.24-3.66-.39a222.61,222.61,0,0,1-35.49-8.26l-5.84-2c-10.25-4.08-19.95-9.16-28.26-16.58a38.25,38.25,0,0,1-9.51-11.25c-2.2-4.05-3.8-9.85-5.32-14.25a103.86,103.86,0,0,1-1-16.05c1.69-10.33,4.67-19.7,10.65-28.36a89.69,89.69,0,0,1,19.5-20.58,4.86,4.86,0,0,0,2.12-5.28,105.52,105.52,0,0,1,2.72-45,84.72,84.72,0,0,1,11.53-24.36,102,102,0,0,1,6.94-8.3,108.16,108.16,0,0,1,13.6-10.82c21.82-14.07,46.14-18.71,71.75-16.81a170,170,0,0,1,41,7.69,112.6,112.6,0,0,1,28.76,14.07A68.85,68.85,0,0,1,385.63,171.72Z"/><path class="cls-15" d="M360.68,186.49c.86-.54,1.73.28,2.6.79a19,19,0,0,0,5.42,2.33,8.43,8.43,0,0,0,5.76-.56,28.67,28.67,0,0,1-2.81,2.81c-1.21,1.07-2.81,2.1-4.35,1.65a7.5,7.5,0,0,0,7.87.55,17.16,17.16,0,0,1-5.22,3.06,6.79,6.79,0,0,1-5.84-.57,10.13,10.13,0,0,1-1.87-1.83,12.06,12.06,0,0,1-2.38-3.76A5.17,5.17,0,0,1,360.68,186.49Z"/><path class="cls-15" d="M225.49,189c-.92-.42-1.69.5-2.49,1.1a19.21,19.21,0,0,1-5.1,3,8.53,8.53,0,0,1-5.79.14,29.58,29.58,0,0,0,3.16,2.52c1.41.92,3,1.75,4.53,1.1a7.52,7.52,0,0,1-7.74,1.5,16.67,16.67,0,0,0,5.55,2.42,6.88,6.88,0,0,0,5.74-1.29,9.7,9.7,0,0,0,1.62-2,11.78,11.78,0,0,0,1.89-4A5.12,5.12,0,0,0,225.49,189Z"/><path class="cls-14" d="M313.44,222c-1.63-13.58,0-26.73,7.24-38.46,5.42-8.82,12.85-15,24.24-13.79a18.7,18.7,0,0,1,11,5.63c11.71,11.25,13.83,37.59,4.14,50.53-.89,1.17-1.75,2.38-2.6,3.56A377.4,377.4,0,0,0,313.44,222Z"/><path class="cls-14" d="M274.43,221.94c1.73-13.58.17-26.73-6.95-38.52-5.33-8.86-12.66-15.11-24.13-14a18.68,18.68,0,0,0-11,5.49c-11.8,11.14-14.07,37.49-4.52,50.5.87,1.18,1.72,2.39,2.58,3.59A376.67,376.67,0,0,1,274.43,221.94Z"/><circle class="cls-16" cx="249.16" cy="200.65" r="21.73"/><circle class="cls-16" cx="340.98" cy="203.47" r="21.73"/><circle class="cls-17" cx="249.84" cy="201.1" r="13.96"/><circle class="cls-17" cx="341.33" cy="203.31" r="13.96"/><circle class="cls-14" cx="260.19" cy="193.76" r="6.36"/><circle class="cls-14" cx="350.82" cy="196.97" r="6.27"/><path class="cls-16" d="M357.48,229.47a375.17,375.17,0,0,0-44-7.43,240.6,240.6,0,0,0-81.93,6.75c-21.79,8.27-24,10.9-24.57,11.77s35-12,60.07-12.66c29.25-.35,76.56-1.32,123.1,16.35A112.37,112.37,0,0,0,357.48,229.47Z"/><path class="cls-16" d="M270.12,169.25c-7.89-5.27-15.91-9.93-25.92-7.82s-16.28,8.58-20.67,17.4c1.15-8.66,3.25-16.88,11.25-22,6.63-4.22,13.69-3.74,20.53-.5A33.41,33.41,0,0,1,270.12,169.25Z"/><path class="cls-16" d="M321.51,169.9c4.93-8.61,19.7-17.2,31.58-12.88,8,2.89,15.48,14.64,14,22.63-1.4-.42-1.57-1.8-2.15-2.81-8.09-14.42-25.12-18.47-38.81-9.34a14.31,14.31,0,0,1-4.53,2.44Z"/><g id="ear"><path class="cls-18" d="M369.71,157.13a65.72,65.72,0,0,1,4.78-12.48c6-11.13,15.86-17.19,27.57-20.22,10.4-2.65,23.62,4.45,28,14.31,4.56,10.36-1.88,21.6-13.6,23.54a28.58,28.58,0,0,1-7.39.31,34.68,34.68,0,0,0-25,7.69S377.61,164.11,369.71,157.13Z"/><path class="cls-18" d="M209.45,168.76a37.33,37.33,0,0,0-26.58-8.64c-7.44.33-14.06-2.33-17.85-9.63a16.8,16.8,0,0,1,3-19.5c10.76-10.92,21.85-12.13,35.17-4.5A40.78,40.78,0,0,1,223.68,155S212.67,166.64,209.45,168.76Z"/><path class="cls-16" d="M212.94,164.91a61.51,61.51,0,0,0-26.52-21.19,46.9,46.9,0,0,1,32,15.57A16.64,16.64,0,0,1,212.94,164.91Z"/><path class="cls-16" d="M374.72,160c7.82-8.44,18.29-12,29.17-12.86-8.7,4.44-17.71,10-23.22,18.5A41.78,41.78,0,0,1,374.72,160Z"/></g><path class="cls-3" d="M424.45,352.42c-2.82,12.5-12,21.31-14.82,24.84L401,385l-12.74,9-12.82,6.33c-5.75,2.08-20.8,7.11-22.51,7.68-5.54,1.86-24.47,5.14-28.24,5.49-24.79,2.35-37.65,4.35-61.69-2.49-9.74-2.82-28.14-8-37.22-12.52-1.92-1.06-19.7-10.22-25.52-14.79-10.05-5.62-30.22-24.7-24.28-50.09.56.11,1.08.28,1.26.91a37,37,0,0,0,1.14,6.77c5,12.66,13.66,22.51,24.32,30.68,17.31,13.25,37.06,20.93,58.2,25.51a195.89,195.89,0,0,0,80.19.67c20.23-4,39.3-11,56-23.37,12.23-9.07,22.3-19.92,26.44-35.17a2,2,0,0,1,2.39-1.49h0l.27.09A46.24,46.24,0,0,1,424.45,352.42Z"/><path class="cls-16" d="M368.7,255.81c16.4.16,24.83,15.86,22.21,26.94-1.15,4.91-5.14,8.15-9.43,10.46-5.5,2.94-11.36,4.71-17.79,3.74a11.46,11.46,0,0,1-4.49-1.41,28.45,28.45,0,0,1-14.36-23.66c-.54-8.27,4.41-12.53,12.56-11a37.2,37.2,0,0,1,16.68,7.59c3.16,2.54,3.66,6.3,1.66,11.53-1.3,3.45-3.51,4.87-7.54,4.66a25.09,25.09,0,0,0,2.58-6.11c.86-4-.35-7.37-3.83-9.14-4.22-2.18-8.8-3.38-13.45-.84a5.83,5.83,0,0,0-3.35,5.62,13,13,0,0,0,5.63,11.06c5.25,3.54,10.86,6,17.36,4.33,8.13-2.12,12.66-12.36,9.09-19.93A29.58,29.58,0,0,0,368.7,255.81Z"/><path class="cls-16" d="M225.42,253.37a36.89,36.89,0,0,0-11.15,9.84c-4.33,6.25-4.51,13-.36,18.63,3.91,5.3,9.85,6.92,17.29,4.57,4.58-1.41,8.71-3.67,11.25-8,1.89-3.22,2.81-6.78.49-10.14-2.11-3.06-5.62-3.46-9-3.28-7.86.45-14.21,5.4-8.14,17.27-3.89.17-6-2-7.32-5.09-1.69-3.87-1.29-8.73,1.13-10.73a33,33,0,0,1,20-8c7.3-.3,11.36,5.07,9.85,13-1.62,8.75-5.87,16.05-13.5,20.85-6.84,4.22-14,2.52-20.56-.63-6.09-2.93-11.49-6.87-12.35-14.55C201.7,264.94,213.74,251.83,225.42,253.37Z"/></g></svg>