<svg id="Layer_2" data-name="Layer 2" xmlns="http://www.w3.org/2000/svg" viewBox="0 0 1920 1080">
  <defs>
    <style>
      .cls-1 {
        fill: #7b8fa4;
      }

      .cls-2 {
        fill: #c4cacf;
      }

      .cls-3 {
        fill: #72869c;
      }

      .cls-4 {
        fill: #8497a9;
      }

      .cls-5 {
        fill: #d42327;
      }

      .cls-6 {
        fill: #f16635;
      }

      .cls-7 {
        fill: #fde500;
      }

      .cls-8 {
        fill: #71b34b;
      }

      .cls-9 {
        fill: #488dcb;
      }

      .cls-10 {
        fill: #382f8d;
      }

      .cls-11 {
        fill: #ff00fb;
      }

      .cls-12 {
        fill: #738191;
      }

      .cls-13 {
        fill: #4d5e70;
      }

      .cls-14 {
        fill: #83d2f3;
      }

      .cls-15 {
        fill: #fff;
      }

      .cls-16 {
        fill: #3e3f3f;
      }

      .cls-17 {
        fill: #040506;
      }
    </style>
  </defs>
  <title>HappyHippo-running_on_the_spot-2</title>
  <g>
    <g>
      <g>
        <path class="cls-1" d="M669.31,592.25c9.11-9.64,22.14,12.49,30,1.82,2.18,5.89,35.8,42.77,39.07,48a378.86,378.86,0,0,0,33.48,45.18A332,332,0,0,0,809.24,725a15.89,15.89,0,0,0,2.42,1.73c8.57,4.81,9.78,14.81,2.53,21.6-.82.76-1.88,1.22-1.88,2.57,0,5.36-3.48,8.6-7.2,11.69-3.58.79-6.21,2-7.91,6.08a13.53,13.53,0,0,1-13.67,8.69c-1.67-.07-2.07.81-2.74,1.92-4.51,7.46-10.79,8.52-17.53,2.87-6.45-5.39-9.21-13-11.76-20.62-3.68-10.9-6.83-22-10.25-33a87.23,87.23,0,0,0-4.11-8.88c-8.53-15.45-17.09-30.89-24.85-46.77C709.58,667.38,673,597.29,669.31,592.25Z"/>
        <path class="cls-2" d="M786.49,731.12c.39-4.28,2.74-6.93,6.13-6.35,8.12,1.39,15.15,5.12,19.73,12.17,2.84,4.37,1.76,7.17-3.39,12.21-3,2.92-6.09,3.44-9.84.83a30.67,30.67,0,0,1-12.4-16.91A8.74,8.74,0,0,1,786.49,731.12Z"/>
        <path class="cls-2" d="M772.62,746.38c.61-5.66,4.3-7.88,9.32-5.73a31.3,31.3,0,0,1,14.15,11.88c3.24,5,1.8,10.12-3.76,14.22-3.94,2.9-7.65,2-11.58-2.65a39.24,39.24,0,0,1-7.52-12.85A9.71,9.71,0,0,1,772.62,746.38Z"/>
        <path class="cls-2" d="M759.29,758c.38-2,.91-4.61,3.82-5.67,2.61-1,4.29.94,5.83,2.45A128.46,128.46,0,0,1,779,765.37c3.87,4.73,1.91,11.52-3.7,14a5.46,5.46,0,0,1-5-.21C764.19,776,758.48,765.53,759.29,758Z"/>
      </g>
      <g>
        <path class="cls-3" d="M655.27,982.41c-.5-.69-1.1-1.3-1.66-1.94a28.66,28.66,0,0,1-.75,8.36C658.7,987.23,658.71,987.23,655.27,982.41Z"/>
        <path class="cls-3" d="M638.81,937.29a25.44,25.44,0,0,0-.61-10.39,44.84,44.84,0,0,1,3.63-34.77c1.84-5,.67-30.86-35.17-30.86-34.67,0-31.53,31-30.64,39.59,0,2.77,1,26.28.82,27.37.06,7.6-.87,15.27.9,22.74,1.57,6.66.8,12.9-1.27,19.32-1.69,5.26-.61,11-1.57,16.38a5.94,5.94,0,0,0,2.23,6.25,17.21,17.21,0,0,0,6.77,3.1,72.08,72.08,0,0,0,17.24,2.24c5.05.15,10.36.52,15.37-.16,2.1-.28,15.93-2.83,18.38-3.54,4-1.15,11-3.32,15-4.58,1.55-.5,3.28-1.05,4.76-1.7s3.6-.65,2.37-2.72a33.81,33.81,0,0,0-3.38-5c-3.78-4.35-7.44-8.81-11.46-13-2.5-2.62-7.68-6.58-6-10.87.45-1.18,1.3-2.16,1.72-3.38a13.8,13.8,0,0,0,.63-5.38A54.07,54.07,0,0,1,638.81,937.29Z"/>
        <path class="cls-2" d="M634.49,994.73a7.46,7.46,0,0,1-6.18-1.25c-4.55-3.46-5.25-9-5.86-14.59a44.73,44.73,0,0,1-.05-7.85c.3-4.47,4.11-6.45,8-4.28,5.84,3.27,11.53,15.74,9.92,22.15a8.65,8.65,0,0,1-.9,2.11,7.49,7.49,0,0,1-4.85,3.69Z"/>
        <path class="cls-2" d="M617,998.24a6.62,6.62,0,0,1-7.49-4.3c-1.87-5.38-1-11.13-.71-16.76A14.79,14.79,0,0,1,610,971c1.91-3.74,4.76-4.23,7.71-1,3.78,4.12,4.95,9.43,6.4,14.61,1.14,4.09.74,7.7-1.44,10.89a6,6,0,0,1-3.84,2.4Z"/>
        <path class="cls-2" d="M649.44,990c-5.21.28-8.08-2.62-9.64-7.2-1.69-5-3.31-9.94-4.93-14.92-.63-2-.87-3.71.92-4.18a3.06,3.06,0,0,1,2.7.67,109.42,109.42,0,0,1,12.58,12,15.39,15.39,0,0,1,3.62,7.94C655,986.88,654.58,989.59,649.44,990Z"/>
      </g>
      <g>
        <path class="cls-3" d="M564.46,927.87h0v0Z"/>
        <path class="cls-4" d="M764.25,731.9c-.19-10.3-4-33.75-4.78-35.29a229.5,229.5,0,0,0-7.69-24c-4.5-10.86-9.07-21.69-15.06-31.85-.53-.9-1.21-3.4-1.53-3.66-10,2.82-20,5.36-30.35,6.56a195,195,0,0,1-43.87,0c-24.25-2.65-44.94-17-67-26.74l-56.4-35.35a224.75,224.75,0,0,1-29.43-31.22c-4.79,15.27-11.9,38.13-16.63,53.41-3.41,11-8.5,21.35-12.85,32,0,0-25.76,48.69-31.87,70.89-8.84,24.89-13.19,50.25-8.1,76.64,1.87,9.64.86,10.91-9.11,12.61a30,30,0,0,1-3,.22c-18.1,1.28-34.26-4.61-49.61-13.43-3.1-1.78-6.09-3.74-9.26-5.69-.6,1.77.41,2.73.95,3.78,5.79,11.32,14.82,19.43,25.72,25.6a82.45,82.45,0,0,0,48.75,10.67c5.88-.51,5.89-.66,8.42,4.6,13.08,27.25,33.22,47,61.51,58.21,1.84.73,3.86,1.1,5.71,2.16l.49.31s53.08,11.68,102.67,9.3c2.5.1,5,.06,7.51.08a239.57,239.57,0,0,0,23.9-2.22c44.23-7.11,75-31.83,93.94-71.9a176.53,176.53,0,0,0,14.87-51A219.57,219.57,0,0,0,764.25,731.9Z"/>
      </g>
      <g>
        <path class="cls-4" d="M562.48,878.51c-14.21,17.18-13.48,42.7-16,61,0,2.77-.22,5.38-.11,8,.33,8.15.79,16.16-3.16,23.91-2.31,4.53-2,10-3,15-.94,4.49-.48,6.44,3.48,8.66,6.22,3.49,13.2,5.23,20.24,6.11,7.44.94,14.91,1.59,22.4,1.87,1.6,0,3.2.11,4.79,0a59.33,59.33,0,0,0,9.45-1.47c2.68-.56,16.49-4.29,20.15-5.11.51-.11,1.11-.29,1.3-.79a1.47,1.47,0,0,0,0-.83,15,15,0,0,0-2.87-5.35l-12.91-17.78c-.57-.79-1.16-1.58-1.8-2.32-.49-2.45,2-4.13,2-6.51,0-9.79,3.46-19.23,2.91-29.08v.06c0-.31-.1-.62-.16-.94-2.26-12,.14-23,7.54-32.84a17.83,17.83,0,0,0,3.42-13.34c-.64-5.45-.47-11-3-16.14-.73-1.5-.15-2.88,1-4.12C618.19,866.56,594.73,839.55,562.48,878.51Z"/>
        <path class="cls-2" d="M577.48,1002.49a7.1,7.1,0,0,1-6.45-5.86,11.7,11.7,0,0,1-.11-2.67c.33-5.6.71-11.19,2.3-16.59.65-2.22,1.34-4.71,4.25-5.06S581.65,974,583,976c2.08,3.07,3.82,10.25,3.71,10.12.31-1.91.55-4.56,1.07-6.82.67-2.89.47-6.29,4.18-7.17s6.11,1.39,8,4.23c2.62,3.91,3.85,8.35,4.89,12.87a10.56,10.56,0,0,1-2.72,10.28,4.86,4.86,0,0,1-2.55,1.45l-.09,0a9.78,9.78,0,0,1-10.19-4.87,17.29,17.29,0,0,1-1.39-3.16c-.11-.34-.21-.67-.33-1a21.83,21.83,0,0,1-3.27,8,6.38,6.38,0,0,1-5,2.58Q578.41,1002.57,577.48,1002.49Z"/>
        <path class="cls-2" d="M608.89,997.14c-3-2.44-4.4-5.73-5-9.66s-1.68-7.5-2.48-11.27c-.54-2.54-1.24-5.23,1.84-5.89a2.41,2.41,0,0,1,2.23.69c4.31,4.4,9.67,12.52,12.12,16.45a7.25,7.25,0,0,1,1,4.7h0a6.78,6.78,0,0,1-7,6A5.68,5.68,0,0,1,608.89,997.14Z"/>
      </g>
      <path class="cls-1" d="M548.66,584c21.47-18.32,30.42-8.41,8,29-4.86,4-28.87,47.73-32.78,52.53A379.08,379.08,0,0,0,492,711.78a330.9,330.9,0,0,0-23.58,47.57,15.08,15.08,0,0,0-.86,2.85c-1.77,9.67-10.84,14-19.61,9.39-1-.53-1.76-1.38-3-.94-5.08,1.72-9.27-.51-13.4-3-1.91-3.12-3.93-5.21-8.31-5.51A13.56,13.56,0,0,1,410.54,752c-.47-1.6-1.43-1.69-2.7-2-8.52-1.85-11.55-7.45-8.4-15.66,3-7.84,9.36-12.94,15.7-17.81,9.12-7,18.58-13.58,27.87-20.38a85.73,85.73,0,0,0,7.07-6.76c11.85-13.09,23.69-26.18,36.19-38.67C490.63,646.39,545.09,589.07,548.66,584Z"/>
      <g>
        <path class="cls-5" d="M485.93,440c32.66-60.34,125.3-73.78,208.53-28.73s120.95,125,88.28,185.37-120.27,70.81-203.49,25.76S453.27,500.3,485.93,440Z"/>
        <path class="cls-6" d="M499.85,447C529.47,392.31,613.49,380.12,689,421s104.94,118.17,80.07,168.13c-27.73,55.7-109.08,64.22-184.57,23.37S470.23,501.77,499.85,447Z"/>
        <path class="cls-7" d="M511.74,454.41c26.9-49.7,103.22-60.77,171.77-23.67s96.87,102,71.21,154.37c-24.85,50.76-100,56.36-168.53,19.25S484.84,504.12,511.74,454.41Z"/>
        <path class="cls-8" d="M522.48,459.88C547,414.5,616.7,404.4,679.28,438.27s88.53,93.92,64,139.29-88,53.35-150.6,19.48S497.92,505.25,522.48,459.88Z"/>
        <path class="cls-9" d="M536.14,466.83c23.22-46.37,82.78-48.74,137.76-19S751.54,531.18,730,571s-77.2,46.05-132.18,16.29S515.85,507.36,536.14,466.83Z"/>
        <path class="cls-10" d="M547.7,473.06c18.91-34.94,73.2-42.74,121.39-16.66s70,72.4,51.12,107.34-72,43.41-120.16,17.32S528.79,508,547.7,473.06Z"/>
        <path class="cls-11" d="M559.57,478.75c10.49-32.85,63.15-37.19,105.1-14.48s57.77,62,41.3,92.45-63.14,37.46-105.09,14.75S551.54,503.92,559.57,478.75Z"/>
      </g>
    </g>
    <g>
      <path class="cls-4" d="M619.73,298.18c24.72-4.53,48.1-3.26,66.78,16.43,9.41,9.92,15.81,21.9,21.94,34,1.51,3,2.08,7.38,4.89,8.57s6.22-1.75,9.36-2.86c18.43-6.53,37.33-10.89,56.93-10.67,22.23.24,42.81,5.89,60.23,20.63,12.4,10.5,19.45,23.75,22.43,39.67,3.9,20.8,5.14,41.45-.35,62.15-7.09,26.74-27,44.38-54.54,48.14-2.6.36-5.21.62-7.82.93-1.84-.54-3.53.49-5.32.5-11.88,0-23.77.12-35.65-.45l-11.22-.87-15.31-2.31a131.8,131.8,0,0,1-15.92-3.73c-19.65-5.48-36.58-15.84-52.14-29.84a8.69,8.69,0,0,0,.23,1.64c12,21.64,27.31,40.46,48.33,54,11.46,7.39,23.91,12,37.84,11.42.88.42,2.11-.25,3.25.91l-14.37,6-13.74,3.95-18.09,3c-5.17,1.13-10.45.79-15.67,1a14.28,14.28,0,0,0-8,2.59,46.54,46.54,0,0,1-22.88,7.65c-21.19,1.68-40.36-4.24-57.68-16.31-11.89-8.29-21.57-18.67-25.43-32.92-15.76-8.15-58.86-32.92-52.79-115C529.8,341.69,573.56,318,569,317.84c-3.75-.15-7.48-.15-11.23-.54-6.54-.7-9.07-5.09-10.85-10.44a13.9,13.9,0,0,1,2.78-14.32c11.93-14.16,34-7.12,41.42,3.54,1.82,2.6,2.79,5.89,5.69,7.7a10.41,10.41,0,0,1,.41,1.42c.46,3.06,1.34,3.93,4.4,1.85A71.17,71.17,0,0,1,619.73,298.18Z"/>
      <path class="cls-12" d="M619.73,298.18a71.17,71.17,0,0,0-18.16,8.87c-3.06,2.08-3.94,1.21-4.4-1.85a10.41,10.41,0,0,0-.41-1.42,29.51,29.51,0,0,0-9.68-16.55c-4.46-4-7.31-8.94-6.57-15.26a15,15,0,0,1,14.13-12.81c13-.48,21.25,5.41,24.58,18,1.63,6.15,3.26,12.41.52,18.76A6,6,0,0,0,619.73,298.18Z"/>
      <path class="cls-13" d="M589.23,317.21c-9.25-10.8-20.24-17.66-34.76-20.46C570.69,294.56,586.32,303,589.23,317.21Z"/>
      <path class="cls-2" d="M791.77,530.92a109.61,109.61,0,0,1-13.47,3.49c-4.1.1-8.25.48-11.87-2.1a46.19,46.19,0,0,0,17.26-2.62c6.48-2.36,10.13-7,10.57-14,1.79,0,3.48-1,5.32-.5C798.73,521.3,796.51,526.74,791.77,530.92Z"/>
      <path class="cls-14" d="M739.77,537.54l-.57-.74C739.73,536.79,739.73,537.18,739.77,537.54Z"/>
      <path class="cls-15" d="M642.81,332.25c5.77-7.1,13-10.41,22.15-8.11,10.29,2.59,16.63,9.41,19.24,19.51a43.66,43.66,0,0,1-1.35,26.61,21.05,21.05,0,0,1-16,13.64c-.56.09-1.08.16-1.57.2-19,1.41-27.93-8.32-29.94-25.73-.49-4.25.47-8.46.9-12.67,2-4.29,3.2-8.91,5.93-12.84l-.09,0Z"/>
      <path class="cls-16" d="M739.77,537.54c3,3.4,6.87,5.65,10.65,8-13.93.56-26.38-4-37.84-11.42-21-13.55-36.28-32.37-48.33-54a8.69,8.69,0,0,1-.23-1.64c15.56,14,32.49,24.36,52.14,29.84,2,3,3.88,6.09,6,9,5,7.13,10.15,14.13,17.14,19.51l0-.07Z"/>
      <path class="cls-13" d="M802.55,383.71c-3.66,2.63-7.3,5.21-9.88,9-2.88,4.21-3.84,8.54-1.62,13.44s5.65,7.37,11.08,7.38c7.18,0,14.07-3.88,16.06-9.12,3-8-2.65-10.91-8.46-10.27-8.79,1-10.9,5.88-6.74,15.16-3.65.06-5.65-2.07-6.69-4.94-1.2-3.3-1.41-6.86,1.69-9.33,5.55-4.41,11.85-7,19.11-6.45a6.66,6.66,0,0,1,6.1,4.84c3.68,10.56-7.88,27-19,26.64a24.31,24.31,0,0,1-19-9.26c-3.7-4.61-2.94-13,1.54-18.9C790.72,386.71,795.84,383.79,802.55,383.71Z"/>
      <path class="cls-15" d="M765.46,532.09c-5.15-4.46-6.72-10.37-6.85-16.86,11.88.57,23.77.47,35.65.45-.44,7-4.09,11.65-10.57,14a46.19,46.19,0,0,1-17.26,2.62Z"/>
      <path class="cls-13" d="M683.69,375.31a90.6,90.6,0,0,1,24.06-14.45,21.53,21.53,0,0,1,2.87-.85c.31-.08.68.1,1.82.3-28,13.73-48.7,34-61.94,62.44-.13-4.88,2.12-10.56,6.63-17.77a117.05,117.05,0,0,1,17.8-21.78C675.85,382.31,682.56,376.24,683.69,375.31Z"/>
      <path class="cls-13" d="M639.89,323.81c.89-8.44,10.93-18.13,20.1-19.42,7.64-1.07,17.07,5.38,20.31,13.92.07.17-.11.44-.2.76-1.85-.38-2.69-2.09-4-3.1-10.58-7.91-24.45-6.11-32.86,4.33-1,1.26-1.81,2.71-3.3,3.52Z"/>
      <path class="cls-16" d="M642.21,332.86c-2.73,3.93-4,8.55-5.93,12.84A15.39,15.39,0,0,1,625.91,341c3-.07,5.76,1.76,8.35-.64-2.07-1.4-4.44-2.18-6-5.46C633.57,336.27,637.83,334.3,642.21,332.86Z"/>
      <path class="cls-13" d="M639.9,323.82a.84.84,0,0,1-.14.32c0,.05-.16,0-.24,0l.37-.37Z"/>
      <path class="cls-16" d="M642.81,332.25l-.69.64Z"/>
      <path class="cls-13" d="M646.58,352.81a18.87,18.87,0,1,1,18.78,18.9A18.85,18.85,0,0,1,646.58,352.81Zm6.89-2.6c-.05,1-.17,2-.16,3a11.58,11.58,0,0,0,8,11A12.4,12.4,0,0,0,675,359.7a12.18,12.18,0,0,0-.35-14.28A11.44,11.44,0,0,0,661,341.88c-2.62-1.52-5.22-1.74-7.44.58C651.18,344.93,651.66,347.61,653.47,350.21Z"/>
      <path class="cls-17" d="M661,341.88a11.44,11.44,0,0,1,13.67,3.54A12.18,12.18,0,0,1,675,359.7a12.4,12.4,0,0,1-13.67,4.54,11.58,11.58,0,0,1-8-11c0-1,.11-2,.16-3,2.76,1.79,5.59,2.36,8-.35S663.14,344.42,661,341.88Z"/>
      <path class="cls-15" d="M661,341.88c2.17,2.54,2.88,5.3.5,8s-5.24,2.14-8,.35c-1.81-2.6-2.29-5.28.06-7.75C655.75,340.14,658.35,340.36,661,341.88Z"/>
    </g>
  </g>
</svg>
