<svg id="Layer_2" data-name="Layer 2" xmlns="http://www.w3.org/2000/svg" viewBox="0 0 595.28 1387.94"><defs><style>.cls-1{fill:#7d90a4;}.cls-2{fill:#c2c8ce;}.cls-3{fill:#73869c;}.cls-4{fill:#8497aa;}.cls-5{fill:#d42327;}.cls-6{fill:#f16635;}.cls-7{fill:#fde500;}.cls-8{fill:#71b34b;}.cls-9{fill:#a2ddf7;}.cls-10{fill:#488dcb;}.cls-11{fill:#382f8d;}.cls-12{fill:#8396a9;}.cls-13{fill:#3e3e3e;}.cls-14{fill:#fff;}.cls-15{fill:#363e46;}.cls-16{fill:#4d5e70;}.cls-17{fill:#050607;}.cls-18{fill:#728190;}</style></defs><title>HappyHippo-landing_and_jumping-3</title><path class="cls-1" d="M424.43,1002.42c-3.92-16.31.32-20.73,9.88-23.9,13.23,10.28,33.52,27.06,45.45,38.76a237,237,0,0,0,39.28,31,80,80,0,0,1,19.4,16.14,21.6,21.6,0,0,1,4.33,7.9,9.73,9.73,0,0,1-7.48,13.33,4.69,4.69,0,0,0-3.81,3.43,15.14,15.14,0,0,1-13.58,9.46,5.2,5.2,0,0,0-4.09,2.24c-3.81,4.85-8.52,7.93-15.09,6.55a3.07,3.07,0,0,0-2.54.52,12.52,12.52,0,0,1-15.09-.59c-4.47-8.65-7.85-17.82-12.24-26.53q-7.58-15-15.64-29.81c-6.7-12.33-13.76-24.39-19.54-37.29A79.33,79.33,0,0,0,424.43,1002.42Z"/><path class="cls-2" d="M498,1076.33c-.12-7.42,4.46-10.49,9.83-7.46a30.81,30.81,0,0,1,14.11,16,5.78,5.78,0,0,1-1.23,6.21A10.46,10.46,0,0,1,506,1092.8a10.28,10.28,0,0,1-2.17-2.34A31.63,31.63,0,0,1,498,1076.33Z"/><path class="cls-2" d="M491.55,1104.92a8.58,8.58,0,0,1-8.53-5.61,35,35,0,0,1-3.36-16.67,5.67,5.67,0,0,1,5-6.27h0a5.73,5.73,0,0,1,3.55.78,22.32,22.32,0,0,1,9,8.37,27.45,27.45,0,0,1,4.21,8.28,6.93,6.93,0,0,1-3.51,8.81A11.9,11.9,0,0,1,491.55,1104.92Z"/><path class="cls-2" d="M528.61,1083.41a8.09,8.09,0,0,1-7.85-5.06c-2.23-3.75-4.18-7.69-6.17-11.58-.73-1.83-1.94-3.67-.32-5.61a6.16,6.16,0,0,1,6.45-1.8,24.74,24.74,0,0,1,13.94,10.46c.3.48.57,1,.82,1.47C539.14,1078.1,536,1083.24,528.61,1083.41Z"/><path class="cls-1" d="M184.94,1030.72c-9.2,8.21-24.33,22.23-32.46,33.69-6.53,9.11-13.87,17.8-20.1,27.16-5.4,8.12-9.83,16.8-15.33,24.83a12.34,12.34,0,0,1-15-1.19,3.06,3.06,0,0,0-2.48-.82c-6.68.6-11-3-14.21-8.31a5.22,5.22,0,0,0-3.79-2.71,15.2,15.2,0,0,1-12.37-11,4.71,4.71,0,0,0-3.37-3.87,9.73,9.73,0,0,1-6.75-12v0a9.93,9.93,0,0,1,.89-2.16,21.59,21.59,0,0,1,5.26-7.32,81.24,81.24,0,0,1,21.18-13.58,237,237,0,0,0,42.38-27.19c13.36-10.11,35.79-23.3,50.17-31.9,9.07,4.35,21.4,12.45,15.61,28.24A58.07,58.07,0,0,0,184.94,1030.72Z"/><path class="cls-2" d="M104.11,1083.76c1-7.37-3.15-11-8.85-8.58a30.76,30.76,0,0,0-15.94,14.21,5.8,5.8,0,0,0,.41,6.28A10.42,10.42,0,0,0,94,1099.36h0a10.56,10.56,0,0,0,2.63-2.22A31.65,31.65,0,0,0,104.11,1083.76Z"/><path class="cls-2" d="M106.91,1113a8.61,8.61,0,0,0,9.06-4.62,35.32,35.32,0,0,0,5.33-16.12,5.68,5.68,0,0,0-4.22-6.83,5.6,5.6,0,0,0-3.61.34,22.61,22.61,0,0,0-10,7.21,28,28,0,0,0-5.19,7.77,7,7,0,0,0,2.44,9.18A12.11,12.11,0,0,0,106.91,1113Z"/><path class="cls-2" d="M72.87,1087.08a8,8,0,0,0,8.29-4.09c2.68-3.47,5.09-7.14,7.51-10.76,1.11-1.66,2.39-3.41,1-5.55a6,6,0,0,0-6.18-2.52,24.43,24.43,0,0,0-15.09,8.71,12,12,0,0,0-1,1.34C63,1080.56,65.58,1086.09,72.87,1087.08Z"/><path class="cls-3" d="M361.58,1293.73a48.81,48.81,0,0,1,2.31-34c6.74-14.2,22.58-13.93,44.6-11.51,14.44,6.43,14.44,11.59,18,19.84,1.36,3.32-5.41,17.2-6.6,20.7-1.51,4.45-3.25,8.85-4.39,13.42a27.36,27.36,0,0,0-.54,13.3,60.39,60.39,0,0,1-1.31,31,5,5,0,0,0,.35,4.12,62.14,62.14,0,0,1,6.19,24.66c.42,4.59-2.88,6.85-6.42,8.6a35.68,35.68,0,0,1-14,3.59c-13.61,1-27.31,1.48-39.86-5.11-14.36-7.52-12.32-4.69-10.73-20.12a44.59,44.59,0,0,1,2.67-11.21,63.78,63.78,0,0,0,3.71-19.62,60.17,60.17,0,0,1,4-19.66A40,40,0,0,0,361.58,1293.73Z"/><path class="cls-2" d="M383.09,1368.76a20.43,20.43,0,0,1,2.55-9.29,5.84,5.84,0,0,1,7.78-2.74,5.9,5.9,0,0,1,1.88,1.44,26.28,26.28,0,0,1,5.88,23.63,7.61,7.61,0,0,1-7.45,4.83,8.72,8.72,0,0,1-9.56-5.29A24.69,24.69,0,0,1,383.09,1368.76Z"/><path class="cls-2" d="M362.53,1370.74a31.72,31.72,0,0,1,4.12-11.86c3-4.71,7.26-4.89,10.59-.37a25.22,25.22,0,0,1,3.93,14.48,15.58,15.58,0,0,1-.57,7.27,6.88,6.88,0,0,1-7.14,5C364.44,1385.09,361.44,1381.59,362.53,1370.74Z"/><path class="cls-2" d="M402.84,1361.68c.72-7.15,3.9-8.63,8.48-5.68a14.08,14.08,0,0,1,5,6.59,33.58,33.58,0,0,1,2.68,10.74,8.51,8.51,0,0,1-7.32,9.55h-.12c-4.32.63-7.6-2.24-8.1-7.5S403,1365.1,402.84,1361.68Z"/><path class="cls-3" d="M249.53,1382.67a91.89,91.89,0,0,1-38.51,4,21.79,21.79,0,0,1-3-.48c-11.72-2.32-14.15-5.45-13.24-17.41a47.47,47.47,0,0,1,6.24-21.22,5.11,5.11,0,0,0,.4-4.49,62.6,62.6,0,0,1-2-31.41c1.49-7.13-1-13.75-3.4-20.28-.55-1.49-7.86-28.8-8.36-30.29,1.51-22.57,25.66-21.27,32.48-21,11.51.5,29.83,2.29,35,24.34,1.07-.15-3.58,22.5-2.47,22.52a44.31,44.31,0,0,0,3.59,25,37.71,37.71,0,0,1,2.56,13.49,75.94,75.94,0,0,0,6.6,27.19,56.31,56.31,0,0,1,3,16,4.23,4.23,0,0,1-1.85,4,63.89,63.89,0,0,1-12.77,8.08"/><path class="cls-2" d="M246.59,1382.78a7.4,7.4,0,0,1-9-5.34,7.73,7.73,0,0,1-.23-1.58,31.78,31.78,0,0,1,2.79-18.62c2.83-5.58,8.27-5.89,11.46-.69a35.09,35.09,0,0,1,4.57,18.27C256.32,1377.16,252.31,1382.14,246.59,1382.78Z"/><path class="cls-2" d="M233.25,1363.56a25.06,25.06,0,0,1,.44,12.78,10.38,10.38,0,0,1-12.55,7.57,10.88,10.88,0,0,1-1.77-.61,7.39,7.39,0,0,1-4.21-7.75,32.49,32.49,0,0,1,4.86-17.64,6.77,6.77,0,0,1,6.78-3.89,6.93,6.93,0,0,1,5.63,6C232.86,1361.41,233.07,1362.77,233.25,1363.56Z"/><path class="cls-2" d="M206.38,1381c-6.15,1.21-9.7-1.57-9.58-7.8a25.91,25.91,0,0,1,5.34-15.7,12.67,12.67,0,0,1,3.19-2.92c4.43-2.66,7.79-.71,7.8,4.46s.27,9.92-.12,14.75A6.94,6.94,0,0,1,206.38,1381Z"/><g id="character"><path class="cls-4" d="M204.34,1291.44c-38.72-19.25-60.94-51-70.72-92.41a140.21,140.21,0,0,1-2.15-51.48,236.3,236.3,0,0,1,16.87-58.23c8.57-20.76,18.89-40.68,28.34-61,.74-1.61,6.3-13.54,6.49-13.72l24-47.84a46.6,46.6,0,0,1,5.78-8.47c4-4.89,9.89-27.37,13.38-25.19,25,15.78,35.17,16.2,64.37,19.89,24.84,3.15,42.34,6.09,66.82.93,31.88-6.72,27.07-9.08,41.05-22.52,1.06.45,31.93,79.12,32.3,80.1,4.73,13.22,10.91,25.85,16.65,38.67q6.9,15.36,13.33,30.92c3.7,9,6.38,18.38,10.17,27.37,1.51,6.08,3.12,12.16,4.5,18.27a153.17,153.17,0,0,1,4.71,47,146.93,146.93,0,0,1-16.52,55.1A155.8,155.8,0,0,1,403.38,1294c-3.16,1.75-6,3.45-9.07,5.15-4.33,1.77-8.67,3.6-13,5.3a156.68,156.68,0,0,1-36.76,9c-3.35.41-13.12,1.62-14.7,1.68-15.46.57-30.77-2.32-46.16-3.38-6.37-.45-12.65-1.48-19-2.23-1.1-.32-25.84-5.1-36.69-8.6C221.48,1298.68,205.81,1292.3,204.34,1291.44Z"/><path class="cls-5" d="M147,955.12c3.19-56.07,71.92-98,155.06-93.27S445.4,913.05,442.2,969.12s-68.95,94.09-152.16,89.44S143.61,1011.22,147,955.12Z"/><path class="cls-6" d="M160.56,955.59c2.92-50.84,65.13-88.91,140.6-84.61s128.08,51.56,127.13,97.29c-1,51-62.52,85.34-138,81S157.64,1006.36,160.56,955.59Z"/><path class="cls-7" d="M172.79,957c2.63-46.19,59.18-80.75,127.72-76.83s115.55,42.37,114.89,90.12c-.64,46.28-58.26,76.35-126.81,72.43S170.15,1003.14,172.79,957Z"/><path class="cls-8" d="M183.39,957.3c2.41-42.16,54-73.69,116.59-70.13s105.86,39.25,103.45,81.41-49.88,70-112.45,66.37S181,999.48,183.39,957.3Z"/><path class="cls-9" d="M196.89,957.76C198,915.42,244.33,893,299.3,896.16s93.22,35.12,91,72.16-44,60.85-99,57.67S196.05,994.85,196.89,957.76Z"/><path class="cls-10" d="M208.56,958.42c1.86-32.49,42.09-56.92,90.29-54.26s83,29.64,81.16,62-40.86,57-89.06,54.34S206.58,990.87,208.56,958.42Z"/><path class="cls-11" d="M220,958.55c-4.07-27.94,36.19-49.41,78.13-47s69.36,26.27,67.74,54.42-36.23,49.59-78.05,47.2S223.11,980,220,958.55Z"/><ellipse class="cls-12" cx="295.2" cy="956.35" rx="47.49" ry="60.01" transform="translate(-676.43 1196.52) rotate(-86.73)"/><path class="cls-13" d="M399.21,890.13a67.07,67.07,0,0,1-10.95,41.13c-11,15.44-27.2,26.66-43.56,35.68a174.79,174.79,0,0,1-68.62,21.88c-19.56,2-40.65,1.41-59.36-5.09-12.75-3-29.36-14.23-32.85-26.79,3.53-10.87,8.39-21.72,20.46-30,22.2-14.52,39.1-13.37,65.47-22,20.55-5.82,50.81-14.45,69.94-24C358.52,871.61,388.08,871.13,399.21,890.13Z"/><path class="cls-14" d="M255,959.89c-.22,5.46-.93,10.68-5.68,14.31a26.77,26.77,0,0,1-17.19,3.68c-12-.5-17.69-7.21-19-15.2a271.71,271.71,0,0,0,38.57-2.09C252.8,960.39,253.89,960.13,255,959.89Z"/><path class="cls-2" d="M218.69,963.44c.89,6.21,7.7,10.22,13.25,11.1a57.75,57.75,0,0,0,17.36-.34c-7.26,6.27-26,5.11-32.07-2.12a19.93,19.93,0,0,1-4.15-8.72Z"/><path class="cls-4" d="M318.07,756.21C334.26,767,343.15,782.77,348.36,801a119.42,119.42,0,0,1,2.79,11.79,3.07,3.07,0,0,0,3,2.83,65.21,65.21,0,0,1,28.59,11.15c11.43,8.55,17.12,20.55,20.2,34.07,1.85,8.31,2.6,22.42-3.1,28.85-11.54,18-30.53,30.36-49.19,39.68a341.12,341.12,0,0,1-59.83,22.24,273.13,273.13,0,0,1-35.71,8.19l-3.12.71a199.41,199.41,0,0,1-33,2.84l-5.61-.23A84.34,84.34,0,0,1,183.93,957a34.31,34.31,0,0,1-11.38-7,90.78,90.78,0,0,1-8.63-10.82,96.49,96.49,0,0,1-5.43-13.59A61.68,61.68,0,0,1,159.62,898a82,82,0,0,1,11-23.28,4.43,4.43,0,0,0,.21-5.17,95.64,95.64,0,0,1-10.32-39.69,76.68,76.68,0,0,1,3.11-24.56,90.59,90.59,0,0,1,3.65-9.11A98.74,98.74,0,0,1,176,783c14.91-18.28,34.65-29.2,57.32-34.69a154.63,154.63,0,0,1,37.57-4.88,101.71,101.71,0,0,1,28.84,4.27A62.19,62.19,0,0,1,318.07,756.21Z"/><path class="cls-15" d="M300.62,776c.61-.69,1.58-.24,2.47,0a17.22,17.22,0,0,0,5.35.49,7.59,7.59,0,0,0,4.84-2.11,25.22,25.22,0,0,1-1.62,3.3c-.76,1.26-1.83,2.61-3.19,2.64a6.84,6.84,0,0,0,6.95-1.72,15.42,15.42,0,0,1-3.65,4.11,6.16,6.16,0,0,1-5.24,1.14,8.17,8.17,0,0,1-2.11-1,11.35,11.35,0,0,1-3.14-2.63A4.84,4.84,0,0,1,300.62,776Z"/><path class="cls-14" d="M269.8,820a53,53,0,0,1-4.54-35.31c2.17-9.17,6.85-16.57,17.07-18.74a17,17,0,0,1,11.07,1.72c13.31,6.44,22.55,28.7,17.82,42.55-.45,1.28-.85,2.56-1.27,3.81A344,344,0,0,0,269.8,820Z"/><path class="cls-15" d="M184.4,816.1c-.92,0-1.33.9-1.83,1.65a18.22,18.22,0,0,1-3.59,4,7.77,7.77,0,0,1-5,1.74,28.88,28.88,0,0,0,3.47,1.28,4.44,4.44,0,0,0,4.21-.32,6.77,6.77,0,0,1-6.32,3.48,15.6,15.6,0,0,0,5.48.53,6.15,6.15,0,0,0,4.58-2.71,8.26,8.26,0,0,0,.84-2.25,10.64,10.64,0,0,0,.5-4A4.65,4.65,0,0,0,184.4,816.1Z"/><path class="cls-14" d="M236,830.93a53,53,0,0,0-16.87-31.34c-7.12-6.19-15.26-9.48-24.81-5.31a16.88,16.88,0,0,0-8,7.85c-7.07,13-1.68,36.42,10.29,45,1.11.79,2.16,1.58,3.23,2.39A345.42,345.42,0,0,1,236,830.93Z"/><circle class="cls-16" cx="208.18" cy="819.64" r="19.77"/><circle class="cls-16" cx="288.37" cy="796.23" r="19.77"/><circle class="cls-17" cx="208.88" cy="819.85" r="12.71"/><circle class="cls-17" cx="288.62" cy="795.99" r="12.71"/><circle class="cls-14" cx="215.77" cy="810.56" r="5.8"/><circle class="cls-14" cx="295.04" cy="787.83" r="5.71"/><path class="cls-16" d="M310,814.06a346.18,346.18,0,0,0-40.15,6A218.85,218.85,0,0,0,200.76,849c-16.5,13.27-17.7,16.19-17.93,17.1s26.91-20.22,48.34-27.77c25-8.54,65.74-22.7,111.06-20.53A101.09,101.09,0,0,0,310,814.06Z"/><path class="cls-16" d="M217.46,786.59c-8.33-2.35-16.55-4.14-24.71.53S181.12,799,179.8,808c-1.44-7.81-2-15.52,3.56-22.2A18.49,18.49,0,0,1,201,779.56,30.43,30.43,0,0,1,217.46,786.59Z"/><path class="cls-16" d="M262.08,772.68c1.84-8.85,12.23-20.43,23.69-20,7.74.32,17.5,8.34,18.47,15.67-1.33-.06-1.87-1.13-2.67-1.84a24.09,24.09,0,0,0-36.23,2.87,13,13,0,0,1-3.23,3.38Z"/><g id="ear"><path class="cls-18" d="M300.22,748a62.39,62.39,0,0,1,.5-12.14,37.22,37.22,0,0,1,18.17-25.24c8.24-5.22,21.72-2.78,28.21,4.52a15.42,15.42,0,0,1-1.5,21.75,14.82,14.82,0,0,1-3.5,2.3,26,26,0,0,1-6.27,2.34,31.67,31.67,0,0,0-19.48,13.71S309,751.86,300.22,748Z"/><path class="cls-18" d="M164.84,803.23a33.94,33.94,0,0,0-25.41,0,16.11,16.11,0,0,1-18.16-3.3,15.43,15.43,0,0,1-2.86-17.71c6.22-12.47,15.47-16.65,29.12-13.78a37,37,0,0,1,25.74,18.84A157.63,157.63,0,0,1,164.84,803.23Z"/><path class="cls-16" d="M166.77,798.92A55.9,55.9,0,0,0,137.87,788a42.73,42.73,0,0,1,32.1,4.41A15.36,15.36,0,0,1,166.77,798.92Z"/><path class="cls-16" d="M305.3,749.14a39.32,39.32,0,0,1,21.63-19.33c-6.43,6.28-12.48,13.69-14.88,22.54A39.75,39.75,0,0,1,305.3,749.14Z"/></g><path class="cls-3" d="M402.47,901.56c1.16,11.59-4.38,21.83-5.8,25.66l-5.25,9c-2.84,3.81-5.68,7.58-8.49,11.38l-9.3,9.1c-4.39,3.4-15.92,12-17.32,13a217.49,217.49,0,0,1-22.9,12.7c-20.8,9-31.45,14.36-54.08,15.22-9.27.3-26.59,1-35.7-.35a250.13,250.13,0,0,1-26.25-5.62c-10.11-1.77-33.09-12.77-35.08-36.41a1.32,1.32,0,0,1,1.34.46,32.81,32.81,0,0,0,2.86,5.52A65.11,65.11,0,0,0,216.19,981a130.75,130.75,0,0,0,57.48,5.66,178.07,178.07,0,0,0,69.54-21.84,123.74,123.74,0,0,0,41.89-36.15c8-11.28,13.68-23.48,13-37.83a1.8,1.8,0,0,1,1.56-2H400A41.26,41.26,0,0,1,402.47,901.56Z"/><path class="cls-16" d="M327.08,833.71a20.7,20.7,0,0,1,26,13.45,21.11,21.11,0,0,1,.81,3.67,15.43,15.43,0,0,1-5.21,11.7,25.57,25.57,0,0,1-14.35,8.24,10,10,0,0,1-4.29,0,26,26,0,0,1-19-16.39c-2.8-7,.28-12.09,7.76-13.08a34,34,0,0,1,16.56,1.85c3.47,1.32,4.94,4.44,4.71,9.46a6.18,6.18,0,0,1-5.23,6.14,23.14,23.14,0,0,0,.53-6.15,7,7,0,0,0-5.89-6.82,12.34,12.34,0,0,0-11.88,3,5.38,5.38,0,0,0-1.29,5.88,11.73,11.73,0,0,0,8,8,18.79,18.79,0,0,0,16.22-1.12,13.49,13.49,0,0,0,3.07-18.81,11.3,11.3,0,0,0-.8-1A27.15,27.15,0,0,0,327.08,833.71Z"/><path class="cls-16" d="M202.45,871.9a34.08,34.08,0,0,0-6.87,11.63,13.79,13.79,0,0,0,4.93,16.19c4.88,3.51,10.48,3.21,16.24-.9a16.85,16.85,0,0,0,7.45-10.1,8.14,8.14,0,0,0-2.41-8.93,8.54,8.54,0,0,0-8.69-.35c-6.65,2.6-10.77,8.82-2.16,17.22a6.53,6.53,0,0,1-7.77-2.35,8.87,8.87,0,0,1-2-9.59,30.06,30.06,0,0,1,15-12.5c6.27-2.31,11.25,1.2,12.22,8.43a27.19,27.19,0,0,1-5.81,21.83c-4.7,5.64-11.36,6.11-18,5.25-6.14-.81-11.86-2.71-14.78-9.09C185.22,888.6,191.94,873.88,202.45,871.9Z"/></g></svg>