<svg id="Layer_1" data-name="Layer 1" xmlns="http://www.w3.org/2000/svg" xmlns:xlink="http://www.w3.org/1999/xlink" viewBox="0 0 260 168"><defs><style>.cls-1,.cls-24,.cls-31{fill:none;}.cls-2{fill:#e8ba67;}.cls-3{fill:#471e00;}.cls-29,.cls-4{fill:#fff;}.cls-5{fill:#dda854;}.cls-6{fill:#7a3100;}.cls-7{fill:#c99343;}.cls-8{clip-path:url(#clip-path);}.cls-9{fill:#1e1101;}.cls-10{clip-path:url(#clip-path-2);}.cls-11{clip-path:url(#clip-path-3);}.cls-12{fill:#f7d19a;}.cls-13{fill:#301c00;}.cls-14{fill:#ce9849;}.cls-15{fill:#a06f20;}.cls-16{fill:#e2af5d;}.cls-17{fill:#d69936;}.cls-18{clip-path:url(#clip-path-4);}.cls-19{fill:#ffd38d;}.cls-20{clip-path:url(#clip-path-5);}.cls-21{fill:#c41e1e;}.cls-22{fill:#93621b;}.cls-23{fill:#7a4609;}.cls-24{stroke:#d8a14a;stroke-width:0.27px;}.cls-24,.cls-31{stroke-linecap:round;stroke-linejoin:round;}.cls-25{clip-path:url(#clip-path-6);}.cls-26{fill:#f4b460;}.cls-27{fill:#d7fff4;opacity:0.3;}.cls-27,.cls-29{isolation:isolate;}.cls-28{clip-path:url(#clip-path-7);}.cls-29{opacity:0.21;}.cls-30{fill:#2e2eef;}.cls-31{stroke:#457fff;stroke-width:0.09px;}.cls-32{fill:#457fff;}.cls-33{clip-path:url(#clip-path-8);}.cls-34{fill:#3d3dfc;}.cls-35{clip-path:url(#clip-path-9);}.cls-36{fill:#2d2de8;}.cls-37{fill:#c48a37;}.cls-38{fill:#190e01;}.cls-39{clip-path:url(#clip-path-10);}.cls-40{fill:#d19846;}.cls-41{clip-path:url(#clip-path-11);}.cls-42{clip-path:url(#clip-path-12);}.cls-43{clip-path:url(#clip-path-13);}.cls-44{clip-path:url(#clip-path-14);}.cls-45{clip-path:url(#clip-path-15);}.cls-46{clip-path:url(#clip-path-16);}</style><clipPath id="clip-path"><path class="cls-1" d="M78.41,115.58a8.66,8.66,0,0,0-5-.52,6.11,6.11,0,0,0-3.5,3.59,11,11,0,0,0,3,12.46,4.93,4.93,0,0,0-5.39.86,3.81,3.81,0,0,0-.08,5.21,5.78,5.78,0,0,0,3.35,1.25,22.27,22.27,0,0,0,6.91-.27,6.5,6.5,0,0,0,3.89-1.92,7.2,7.2,0,0,0,1.23-4.17q.21-3,.15-6c-.08-3.58-.66-7.56-3.46-9.8l.9,1.1"/></clipPath><clipPath id="clip-path-2"><path class="cls-1" d="M105.53,116.09c1.64-.45,3.41-.9,5-.33a6.13,6.13,0,0,1,3.36,3.72,11,11,0,0,1-3.5,12.34,4.92,4.92,0,0,1,5.35,1.06,3.8,3.8,0,0,1-.11,5.21,5.7,5.7,0,0,1-3.4,1.12,22.17,22.17,0,0,1-6.89-.53,6.53,6.53,0,0,1-3.82-2.06,7.3,7.3,0,0,1-1.07-4.22c-.06-2,0-4,.08-6,.21-3.57.94-7.53,3.82-9.66l-.93,1.07"/></clipPath><clipPath id="clip-path-3"><path class="cls-1" d="M75.54,113.68c5.37-12.2,6.18-20.62,6.18-20.62h.58l10,2.28,8.92-5.52,1.41-.21a93.8,93.8,0,0,0,5.78,24.67c4.9,12.39,1,22.31-16.78,22h-.2C73.68,135.93,70.2,125.83,75.54,113.68Z"/></clipPath><clipPath id="clip-path-4"><path class="cls-1" d="M72.46,93.83a6.72,6.72,0,0,1-2.23-3.69c-.86-4.22,2.68-8.51,7.91-9.57,4.43-.92,8.63.77,10.34,3.82l.71-.16.67-.15c.36-3.52,3.56-6.73,8-7.64,5.23-1.07,10.17,1.48,11,5.71a6.54,6.54,0,0,1-.47,4.11,7.77,7.77,0,0,1-3.79,4.13,12.1,12.1,0,0,1-3.62,1.4l-.43.09a14.88,14.88,0,0,1-2.57.29A13.26,13.26,0,0,1,84.14,95a15.1,15.1,0,0,1-2.48.75l-.23.06-.18,0a11.62,11.62,0,0,1-4,.12A7.81,7.81,0,0,1,72.46,93.83Z"/></clipPath><clipPath id="clip-path-5"><path class="cls-1" d="M96.45,87.93a13.26,13.26,0,0,1-12.54,2.22,6.36,6.36,0,0,0,7.26,3.64C97,92.6,96.45,87.93,96.45,87.93Z"/></clipPath><clipPath id="clip-path-6"><path class="cls-1" d="M74.3,117a108.28,108.28,0,0,0,3.21,20s-3.64-1.22-4,3.2,7.75,6.87,11.64,1.55c0,0,2.42-2.36-.11-5.71a77.92,77.92,0,0,1-1.18-12,40.05,40.05,0,0,0-.87-9Z"/></clipPath><clipPath id="clip-path-7"><circle class="cls-1" cx="96.81" cy="79.62" r="2.12"/></clipPath><clipPath id="clip-path-8"><circle class="cls-1" cx="80.59" cy="83.27" r="2.12"/></clipPath><clipPath id="clip-path-9"><path class="cls-1" d="M82.66,82.39a.29.29,0,0,0,.16,0,14.72,14.72,0,0,1,11.53-2.6.42.42,0,0,0,.53-.29.44.44,0,0,0-.3-.54,15.23,15.23,0,0,0-12.21,2.75.4.4,0,0,0-.08.56h0A.41.41,0,0,0,82.66,82.39Z"/></clipPath><clipPath id="clip-path-10"><circle class="cls-5" cx="152.39" cy="107.3" r="11.44"/></clipPath><clipPath id="clip-path-11"><path class="cls-2" d="M135.25,92.79c-.6,4.58,6.9,11.39,17.09,12.73s19.19-3.32,19.79-7.89S165,88.26,154.77,86.92,135.85,88.22,135.25,92.79Z"/></clipPath><clipPath id="clip-path-12"><circle class="cls-2" cx="154.58" cy="88.36" r="16.44"/></clipPath><clipPath id="clip-path-13"><path class="cls-3" d="M158.75,99.55a11.65,11.65,0,0,1-11-1.75,5.59,5.59,0,0,0,5,5.09C157.83,103.56,158.75,99.55,158.75,99.55Z"/></clipPath><clipPath id="clip-path-14"><ellipse class="cls-4" cx="165.37" cy="90.65" rx="4.81" ry="3.67" transform="translate(53.99 242.83) rotate(-82.53)"/></clipPath><clipPath id="clip-path-15"><ellipse class="cls-4" cx="143.58" cy="87.8" rx="4.81" ry="3.67" transform="translate(37.87 218.75) rotate(-82.53)"/></clipPath><clipPath id="clip-path-16"><path class="cls-5" d="M101.3,116.68s3,3.44,8.42-1.85,11-4.72,12.81-3.2,5.53,5.53,3.37,7.37-6.25,2.24-8.09-1.12c0,0-5.37,9.45-11.38,7.29S101.3,116.68,101.3,116.68Z"/></clipPath></defs><path class="cls-6" d="M104.24,89.18a2.87,2.87,0,0,1,1.5,3.76,2.91,2.91,0,0,1-1.59,1.53,1,1,0,0,1,.31,1.36,2.4,2.4,0,0,1-1.22.91,10,10,0,0,1-9-.73,6.11,6.11,0,0,1-7.43,2.13,2.91,2.91,0,0,1-4.68,1.31A2.15,2.15,0,0,1,78,98.36c-1,0-1.67-1.09-1.84-2.1-.49-3,1.24-6.05,3.71-7.85a19.4,19.4,0,0,1,8.54-3c2.78-.42,5.79-.59,8.21.84.9.53,1.86,1.29,2.84,1a6.7,6.7,0,0,0,1.11-.62,2.67,2.67,0,0,1,3.61,1.08,2.63,2.63,0,0,1,.26,1.84"/><path class="cls-7" d="M78.41,115.58a8.66,8.66,0,0,0-5-.52,6.11,6.11,0,0,0-3.5,3.59,11,11,0,0,0,3,12.46,4.93,4.93,0,0,0-5.39.86,3.81,3.81,0,0,0-.08,5.21,5.78,5.78,0,0,0,3.35,1.25,22.27,22.27,0,0,0,6.91-.27,6.5,6.5,0,0,0,3.89-1.92,7.2,7.2,0,0,0,1.23-4.17q.21-3,.15-6c-.08-3.58-.66-7.56-3.46-9.8l.9,1.1"/><g class="cls-8"><path class="cls-9" d="M67.55,125.35a7.84,7.84,0,0,0,6.11.59,23.35,23.35,0,0,0,5.68-2.71,38.4,38.4,0,0,1,7.85,5,13.12,13.12,0,0,1,4.54,8,12.14,12.14,0,0,1-4.45,10.28A21.56,21.56,0,0,1,76.67,151c-5.17.85-11.21.19-14.42-3.94a12.69,12.69,0,0,1-2.07-4.34,20.34,20.34,0,0,1,3.1-17.33,1.14,1.14,0,0,1,.7-.55c.31,0,.65.28.49.55"/></g><path class="cls-7" d="M105.53,116.09c1.64-.45,3.41-.9,5-.33a6.13,6.13,0,0,1,3.36,3.72,11,11,0,0,1-3.5,12.34,4.92,4.92,0,0,1,5.35,1.06,3.8,3.8,0,0,1-.11,5.21,5.7,5.7,0,0,1-3.4,1.12,22.17,22.17,0,0,1-6.89-.53,6.53,6.53,0,0,1-3.82-2.06,7.3,7.3,0,0,1-1.07-4.22c-.06-2,0-4,.08-6,.21-3.57.94-7.53,3.82-9.66l-.93,1.07"/><g class="cls-10"><path class="cls-9" d="M116,126.27a7.91,7.91,0,0,1-6.13.36,23.53,23.53,0,0,1-5.57-2.93,38.21,38.21,0,0,0-8,4.75,13,13,0,0,0-4.83,7.78c-.6,3.84,1.2,7.79,4.06,10.44A21.55,21.55,0,0,0,106,151.55c5.13,1,11.19.62,14.56-3.39a12.78,12.78,0,0,0,2.23-4.26,20.37,20.37,0,0,0-2.45-17.43,1.12,1.12,0,0,0-.68-.58c-.3-.06-.66.26-.51.53"/></g><path class="cls-5" d="M75.54,113.68c5.37-12.2,6.18-20.62,6.18-20.62h.58l10,2.28,8.24-4.58,2.14-.21a90,90,0,0,0,5.73,23.73c4.9,12.39,1,22.31-16.78,22h-.2C73.68,135.93,70.2,125.83,75.54,113.68Z"/><g class="cls-11"><ellipse class="cls-12" cx="91.59" cy="135.57" rx="23.88" ry="11.7" transform="translate(-45.68 224.59) rotate(-88.92)"/><ellipse class="cls-13" cx="106.03" cy="105.44" rx="3.21" ry="5.15" transform="translate(-1.39 209.46) rotate(-88.92)"/><ellipse class="cls-13" cx="78.25" cy="100.48" rx="3.21" ry="5.15" transform="translate(-23.77 176.71) rotate(-88.85)"/><ellipse class="cls-13" cx="107.44" cy="98.87" rx="3.21" ry="5.15" transform="translate(6.56 204.43) rotate(-88.92)"/><ellipse class="cls-14" cx="92.44" cy="90.87" rx="7.98" ry="14.62" transform="translate(-0.16 181.58) rotate(-88.92)"/></g><ellipse class="cls-15" cx="91.42" cy="94.48" rx="8.19" ry="3.24" transform="translate(-17.06 20.21) rotate(-11.55)"/><path class="cls-16" d="M72,68.85a11.91,11.91,0,0,0-9.82,1.54c-5.18,3.22-3.89,5.76-1,8.87s11.66,10.22,18.52-1.45C79.64,77.79,76.68,69.15,72,68.85Z"/><path class="cls-12" d="M73,71.46A9.74,9.74,0,0,0,65,72.87c-4.23,2.7-3.24,4.72-1,7.19s9.25,8.09,15-1.47C79,78.59,76.76,71.65,73,71.46Z"/><circle class="cls-17" cx="73.98" cy="75.7" r="3.86"/><path class="cls-16" d="M99,63.28a12,12,0,0,1,9.64-2.46c6,.94,5.86,3.81,4.43,7.76s-6.69,14-17.59,6C95.42,74.55,94.74,65.44,99,63.28Z"/><path class="cls-12" d="M99.06,66.1a9.75,9.75,0,0,1,7.87-1.85c4.95.81,4.78,3,3.72,6.24s-5.31,11.09-14.35,4.56C96.3,75.05,95.65,67.77,99.06,66.1Z"/><circle class="cls-17" cx="99.8" cy="70.38" r="3.86"/><circle class="cls-2" cx="87.31" cy="77.92" r="15.65" transform="translate(-18.43 27.79) rotate(-16.38)"/><path class="cls-2" d="M72.46,93.83a6.72,6.72,0,0,1-2.23-3.69c-.86-4.22,2.68-8.51,7.91-9.57,4.43-.92,8.63.77,10.34,3.82l.71-.16.67-.15c.36-3.52,3.56-6.73,8-7.64,5.23-1.07,10.17,1.48,11,5.71a6.54,6.54,0,0,1-.47,4.11,7.77,7.77,0,0,1-3.79,4.13,12.1,12.1,0,0,1-3.62,1.4l-.43.09a14.88,14.88,0,0,1-2.57.29A13.26,13.26,0,0,1,84.14,95a15.1,15.1,0,0,1-2.48.75l-.23.06-.18,0a11.62,11.62,0,0,1-4,.12A7.81,7.81,0,0,1,72.46,93.83Z"/><g class="cls-18"><circle class="cls-15" cx="90.96" cy="92.82" r="12.71" transform="translate(-22.49 29.42) rotate(-16.38)"/></g><ellipse class="cls-15" cx="91.09" cy="93.51" rx="12.57" ry="1.68" transform="translate(-16.96 20.25) rotate(-11.61)"/><ellipse class="cls-19" cx="98.06" cy="75.67" rx="4.13" ry="5.38" transform="translate(-13.22 21.29) rotate(-11.61)"/><ellipse class="cls-19" cx="77.56" cy="79.87" rx="4.13" ry="5.38" transform="translate(-14.49 17.25) rotate(-11.61)"/><path class="cls-6" d="M100,73.2A1.62,1.62,0,0,0,101.35,72a2,2,0,0,1-.24,2.1.51.51,0,0,1-.27.21.48.48,0,0,1-.44-.23,1.07,1.07,0,0,1-.18-.81l.16.21"/><path class="cls-6" d="M100.5,74.52a1.65,1.65,0,0,0,1.34-1.22,2,2,0,0,1-.25,2.11.5.5,0,0,1-.27.2.45.45,0,0,1-.43-.24,1,1,0,0,1-.18-.8l.14.2"/><path class="cls-6" d="M74.71,78.4A1.6,1.6,0,0,1,73,77.84a2,2,0,0,0,1,1.81.51.51,0,0,0,.34.08.47.47,0,0,0,.31-.39,1.08,1.08,0,0,0-.18-.8l-.06.25"/><path class="cls-6" d="M74.79,79.79a1.61,1.61,0,0,1-1.72-.63A2,2,0,0,0,74.12,81a.54.54,0,0,0,.33.08.47.47,0,0,0,.31-.39,1.08,1.08,0,0,0-.18-.8l-.06.25"/><ellipse class="cls-4" cx="77.73" cy="80.65" rx="3.51" ry="4.59" transform="translate(-14.64 17.3) rotate(-11.61)"/><ellipse cx="78.47" cy="81.01" rx="2.67" ry="3.5" transform="translate(-14.7 17.45) rotate(-11.61)"/><ellipse class="cls-4" cx="79.36" cy="78.43" rx="0.98" ry="1.17" transform="matrix(0.98, -0.2, 0.2, 0.98, -14.16, 17.58)"/><path class="cls-6" d="M99.59,70.94A5,5,0,0,0,97,70.85a5.59,5.59,0,0,0-1.12.49l-.59.35a3.77,3.77,0,0,1-.64.39,2.83,2.83,0,0,1,.69-1.38,2.84,2.84,0,0,1,1.38-.87A2.5,2.5,0,0,1,99.59,70.94Z"/><path class="cls-6" d="M74.24,76.15A2.49,2.49,0,0,1,76.41,74a2.85,2.85,0,0,1,1.6.26,4.1,4.1,0,0,1,.66.42,3.21,3.21,0,0,1,.52.58,6,6,0,0,1-.74-.1l-.68-.1a5.52,5.52,0,0,0-1.22,0A5,5,0,0,0,74.24,76.15Z"/><ellipse class="cls-4" cx="98.3" cy="76.42" rx="3.51" ry="4.59" transform="translate(-13.37 21.35) rotate(-11.61)"/><ellipse cx="99.04" cy="76.78" rx="2.67" ry="3.5" transform="translate(-13.43 21.51) rotate(-11.61)"/><ellipse class="cls-4" cx="99.94" cy="74.2" rx="0.98" ry="1.17" transform="translate(-12.89 21.63) rotate(-11.61)"/><path class="cls-2" d="M105.09,81.5c-.41-1.84-2.7-2.93-5.16-2.43a5.34,5.34,0,0,0-3.25,2"/><path class="cls-2" d="M81.1,84a5.48,5.48,0,0,0-3.41-.35c-2.46.55-4.17,2.41-3.79,4.27"/><path class="cls-3" d="M96.45,87.93a13.26,13.26,0,0,1-12.54,2.22,6.36,6.36,0,0,0,7.26,3.64C97,92.6,96.45,87.93,96.45,87.93Z"/><g class="cls-20"><ellipse class="cls-21" cx="91.44" cy="95.07" rx="4.26" ry="2.48" transform="translate(-17.26 20.35) rotate(-11.61)"/><ellipse class="cls-4" cx="90.32" cy="89.65" rx="4.36" ry="2.6" transform="translate(-16.2 20.02) rotate(-11.61)"/></g><ellipse class="cls-22" cx="89.48" cy="85.62" rx="9.05" ry="5.42" transform="translate(-15.4 19.76) rotate(-11.61)"/><ellipse class="cls-13" cx="89.04" cy="83.49" rx="5.5" ry="2.84" transform="translate(-14.98 19.63) rotate(-11.61)"/><ellipse class="cls-23" cx="90.31" cy="81.48" rx="1.31" ry="0.65" transform="translate(-14.55 19.85) rotate(-11.61)"/><path class="cls-6" d="M101,73.74s-1.35-2.29-3.73-1.81a3.17,3.17,0,0,0-2.29,2.57s1-1.82,2.47-2a4.28,4.28,0,0,1,4.27,2.88A4.34,4.34,0,0,0,101,73.74Z"/><path class="cls-6" d="M74.24,79.23s.33-2.64,2.71-3.13a3.16,3.16,0,0,1,3.13,1.45s-1.64-1.29-3.08-.9A4.31,4.31,0,0,0,74.22,81,4.18,4.18,0,0,1,74.24,79.23Z"/><path class="cls-24" d="M103.3,79.43a4.32,4.32,0,0,1-5.38,2"/><path class="cls-24" d="M74.33,85.38a4.32,4.32,0,0,0,5.73-.26"/><path class="cls-6" d="M74,68.06a11.13,11.13,0,0,1,3.44-5.69,1.85,1.85,0,0,1,.29-.4l1.42-1.55.5-.52a2.09,2.09,0,0,1,.48-.41,5.41,5.41,0,0,0,.78-.34,2.46,2.46,0,0,0,.48-.75A1.68,1.68,0,0,1,83.73,58a1.66,1.66,0,0,1,.35.35,10.29,10.29,0,0,1,8,1.36h0a11.24,11.24,0,0,1,4.68,3.61,2,2,0,0,1,.52,1.79,2.11,2.11,0,0,1-1.41,1.11c-.77.28-1.78.4-2.25-.22a.8.8,0,0,1-.38,1,1.9,1.9,0,0,1-1.15.15,6.44,6.44,0,0,1-2.75-1,1,1,0,0,1-.34.23,1.83,1.83,0,0,1-1.81-.61,9.51,9.51,0,0,1-2.07-2.61,4.81,4.81,0,0,1-2.33,3.6,2,2,0,0,1-.47.16,6.62,6.62,0,0,1-2.59,2.73,2,2,0,0,1-1.13.32.8.8,0,0,1-.74-.78c-.18.8-1.17,1-2,1.09A1.6,1.6,0,0,1,74,68.06Z"/><path class="cls-24" d="M91.39,68.42A16.3,16.3,0,0,1,81.22,70.5"/><path class="cls-24" d="M90,70.16a11,11,0,0,1-6.86,1.4"/><path class="cls-5" d="M74.3,117a108.28,108.28,0,0,0,3.21,20s-3.64-1.22-4,3.2,7.75,6.87,11.64,1.55c0,0,2.42-2.36-.11-5.71a77.92,77.92,0,0,1-1.18-12,40.05,40.05,0,0,0-.87-9Z"/><g class="cls-25"><path class="cls-13" d="M70.21,131.85l.77-.63a9.94,9.94,0,0,0-3.75,7.53,18,18,0,0,0,1.92,8.39c1.15,2.43,2.77,4.88,5.26,6,2.86,1.28,6.18.54,9.18-.31a12,12,0,0,0,4.8-2.17c2.65-2.3,2.89-6.33,2.34-9.8a31.23,31.23,0,0,0-4.47-11.73,14.51,14.51,0,0,1-13.66,1.35"/></g><path class="cls-26" d="M98,103.37c.36.79.88,2,.24,2.78s-2,.34-2.83,0a.27.27,0,0,0-.36.09h0a2.4,2.4,0,0,1-4.38-.12.28.28,0,0,0-.36-.17l-.09.05a3.43,3.43,0,0,1-2.12,1.12A1.55,1.55,0,0,1,86.5,106a.27.27,0,0,0-.5,0,1.38,1.38,0,0,1-1.89.49,1.33,1.33,0,0,1-.44-.41c-.55-1,.18-2.12.91-2.73.26-.22-.12-.6-.38-.38-1,.84-1.81,2.57-.76,3.69a2,2,0,0,0,2.82-.16,1.3,1.3,0,0,0,.18-.23l-.48-.06a2.07,2.07,0,0,0,1.83,1.46,3.84,3.84,0,0,0,2.82-1.27l-.45-.12a2.94,2.94,0,0,0,5.36.25l-.37.09c1,.49,2.53,1,3.45,0s.35-2.44-.13-3.47c-.14-.31-.6,0-.46.27Z"/><circle class="cls-27" cx="96.81" cy="79.62" r="2.12"/><g class="cls-28"><path class="cls-29" d="M96.46,77c.51.56,1,1.15,1.47,1.72.09.12.17.26.09.38s-.1.09-.13.13a.41.41,0,0,0,0,.4,2.68,2.68,0,0,0,.36.52,12.08,12.08,0,0,1,.91,1.22c0,.1.15.23.08.32a.19.19,0,0,1-.24,0,.52.52,0,0,1-.19-.17L97.5,79.82c-.09-.12-.19-.26-.09-.42s.06-.11.08-.18a.44.44,0,0,0-.15-.36l-1.29-1.51a.23.23,0,0,1,0-.16c0-.12.14-.19.25-.23"/></g><path class="cls-30" d="M94.4,80.2a2.49,2.49,0,1,1,3,1.83h-.06A2.47,2.47,0,0,1,94.4,80.2Zm.45-.11a2.06,2.06,0,1,0,1.55-2.46l-.06,0A2,2,0,0,0,94.85,80.09Z"/><path class="cls-31" d="M99.1,79.14a2.34,2.34,0,0,0-2.77-1.81h0"/><path class="cls-31" d="M94.75,80.12a2.08,2.08,0,0,0,2.45,1.49"/><circle class="cls-32" cx="99.13" cy="79.29" r="0.06"/><circle class="cls-32" cx="94.72" cy="79.99" r="0.06"/><circle class="cls-27" cx="80.59" cy="83.27" r="2.12"/><g class="cls-33"><path class="cls-29" d="M80.25,80.67c.5.56,1,1.14,1.47,1.71,0,.13.17.26.08.38s-.08.09-.12.14a.38.38,0,0,0,0,.4,2.54,2.54,0,0,0,.37.51c.32.38.61.8.91,1.22,0,.1.13.23.07.32a.17.17,0,0,1-.23.05.42.42,0,0,1-.18-.17L81.3,83.47a.5.5,0,0,1-.15-.41s.07-.11.09-.18a.42.42,0,0,0-.16-.36L79.8,81a.24.24,0,0,1-.09-.15c0-.12.15-.19.26-.22"/></g><path class="cls-30" d="M78.17,83.85a2.49,2.49,0,1,1,3,1.87h0A2.51,2.51,0,0,1,78.17,83.85Zm.42-.1a2.06,2.06,0,1,0,1.56-2.46h0a2.05,2.05,0,0,0-1.56,2.44Z"/><path class="cls-31" d="M82.88,82.79A2.35,2.35,0,0,0,80.08,81"/><path class="cls-31" d="M78.53,83.77a2.08,2.08,0,0,0,2.4,1.51"/><circle class="cls-32" cx="82.9" cy="82.95" r="0.06"/><circle class="cls-32" cx="78.51" cy="83.64" r="0.06"/><path class="cls-34" d="M82.66,82.39a.29.29,0,0,0,.16,0,14.72,14.72,0,0,1,11.53-2.6.42.42,0,0,0,.53-.29.44.44,0,0,0-.3-.54,15.23,15.23,0,0,0-12.21,2.75.4.4,0,0,0-.08.56h0A.41.41,0,0,0,82.66,82.39Z"/><g class="cls-35"><path class="cls-36" d="M95.44,79.77a13,13,0,0,0-7.3-.22,14.23,14.23,0,0,0-6.87,3.7l2.63.93,10.7-2.54Z"/></g><ellipse class="cls-32" cx="90.18" cy="79.15" rx="1.77" ry="0.13" transform="translate(-6.82 8.52) rotate(-5.21)"/><ellipse class="cls-32" cx="87.81" cy="79.29" rx="0.49" ry="0.11" transform="translate(-15.28 21.23) rotate(-12.69)"/><path class="cls-37" d="M161.23,110.92s-1.78,9-2.44,10.29a2.75,2.75,0,0,1-2.62,1.12,1.9,1.9,0,0,1-1.7-1.83c0-1.79-.16-5.82-.25-6.82-.13-1.31.84-4.79,4.19-5.32S161.23,110.92,161.23,110.92Z"/><path class="cls-38" d="M158.79,121.21l-.51,5.78a1.89,1.89,0,0,1,2.33,1.51c.65,2-4.85,3-6.27,1s-.11-2.82-.11-2.82l.24-5.91S155.67,122.41,158.79,121.21Z"/><path class="cls-37" d="M143,109.24s-1.34,9.12-1.15,10.51a2.77,2.77,0,0,0,2.1,1.93,1.88,1.88,0,0,0,2.21-1.15c.64-1.67,2.1-5.43,2.53-6.35.55-1.19.8-4.79-2.18-6.41S143,109.24,143,109.24Z"/><path class="cls-38" d="M141.82,119.75l-1.44,5.62a1.89,1.89,0,0,0-2.7.65c-1.29,1.69,3.58,4.41,5.59,3s1-2.63,1-2.63l1.75-5.65S144.37,121.93,141.82,119.75Z"/><circle class="cls-5" cx="152.39" cy="107.3" r="11.44"/><g class="cls-39"><ellipse class="cls-12" cx="152.39" cy="121.27" rx="6.08" ry="7.01"/><ellipse class="cls-13" cx="164.22" cy="108.47" rx="1.95" ry="1.16"/><ellipse class="cls-13" cx="164.53" cy="111.23" rx="1.95" ry="1.16"/><ellipse class="cls-13" cx="140.95" cy="107.3" rx="1.95" ry="1.16"/><ellipse class="cls-13" cx="140.95" cy="109.88" rx="1.95" ry="1.16"/><ellipse class="cls-40" cx="152.39" cy="101.26" rx="10.53" ry="7.51"/></g><path class="cls-16" d="M166.51,79a12.51,12.51,0,0,1,9-5.27c6.34-.82,7,2.07,6.71,6.49s-2.64,16-15.94,11.13C166.25,91.34,162.91,82.38,166.51,79Z"/><path class="cls-12" d="M167.45,81.79a10.19,10.19,0,0,1,7.37-4.15c5.21-.62,5.74,1.67,5.54,5.18s-2.1,12.69-13.08,8.76C167.28,91.58,164.5,84.46,167.45,81.79Z"/><path class="cls-16" d="M145.48,76.23a12.52,12.52,0,0,0-7.31-7.4c-5.91-2.43-7.27.2-8.16,4.55s-1.57,16.14,12.54,14.85C142.55,88.23,148.08,80.44,145.48,76.23Z"/><path class="cls-12" d="M143.85,78.69a10.22,10.22,0,0,0-6-5.9c-4.87-2-6,.14-6.7,3.58s-1.23,12.8,10.39,11.83C141.49,88.2,146,82,143.85,78.69Z"/><path class="cls-2" d="M135.25,92.79c-.6,4.58,6.9,11.39,17.09,12.73s19.19-3.32,19.79-7.89S165,88.26,154.77,86.92,135.85,88.22,135.25,92.79Z"/><g class="cls-41"><path class="cls-15" d="M141.06,95.81c-1.53,5.62,4.07,8.76,10.82,9.65S165,105,165.6,99.09c.48-4.48-4.85-8.91-11.6-9.79S142.25,91.47,141.06,95.81Z"/></g><circle class="cls-17" cx="169.73" cy="84.81" r="4.04"/><circle class="cls-17" cx="141.8" cy="81.15" r="4.04"/><circle class="cls-2" cx="154.58" cy="88.36" r="16.44"/><g class="cls-42"><ellipse class="cls-15" cx="153.04" cy="98.89" rx="7.28" ry="12.3" transform="translate(35.1 237.78) rotate(-82.53)"/></g><path class="cls-3" d="M158.75,99.55a11.65,11.65,0,0,1-11-1.75,5.59,5.59,0,0,0,5,5.09C157.83,103.56,158.75,99.55,158.75,99.55Z"/><g class="cls-43"><ellipse class="cls-21" cx="152.55" cy="104.04" rx="2.17" ry="3.74" transform="translate(29.57 241.78) rotate(-82.53)"/><ellipse class="cls-4" cx="153.18" cy="99.22" rx="2.28" ry="3.82" transform="translate(34.9 238.21) rotate(-82.53)"/></g><ellipse class="cls-19" cx="165.38" cy="89.83" rx="5.62" ry="4.32" transform="translate(54.82 242.13) rotate(-82.53)"/><ellipse class="cls-19" cx="143.69" cy="86.98" rx="5.62" ry="4.32" transform="translate(38.77 218.15) rotate(-82.53)"/><ellipse class="cls-4" cx="165.37" cy="90.65" rx="4.81" ry="3.67" transform="translate(53.99 242.83) rotate(-82.53)"/><g class="cls-44"><ellipse cx="163.27" cy="91.44" rx="3.66" ry="2.8" transform="translate(51.38 241.44) rotate(-82.53)"/><ellipse class="cls-4" cx="165.04" cy="89.2" rx="1.23" ry="1.02" transform="matrix(0.13, -0.99, 0.99, 0.13, 55.15, 241.25)"/></g><ellipse class="cls-4" cx="143.58" cy="87.8" rx="4.81" ry="3.67" transform="translate(37.87 218.75) rotate(-82.53)"/><g class="cls-45"><ellipse cx="141.43" cy="88.39" rx="2.8" ry="3.66" transform="translate(-2.31 3.81) rotate(-1.53)"/><ellipse class="cls-4" cx="142.83" cy="85.9" rx="1.02" ry="1.23" transform="translate(-2.25 3.85) rotate(-1.53)"/></g><path class="cls-6" d="M150.12,72.54c-.91,1.19,2.8.37,2.8.37a1.42,1.42,0,0,1-1,2,2.83,2.83,0,0,0,3.47-1.28c1.53,2.19-.19,5.84-.19,5.84,3.61-.43,3.41-5.83,3.41-5.83,1.09.48,2.38,3,2.38,3a6.4,6.4,0,0,0-.83-2.92l1.46.86c1.29.91,2.33,1.13,2.75.19,0,0-.57-2.83-6.44-3.88a2.76,2.76,0,0,1,1.1-2.25s-2.6,0-3.29,2C155.73,70.65,152,70.07,150.12,72.54Z"/><ellipse class="cls-22" cx="153.63" cy="95.63" rx="4.75" ry="7.93" transform="translate(38.85 235.53) rotate(-82.53)"/><ellipse class="cls-13" cx="153.88" cy="93.75" rx="2.49" ry="4.82" transform="translate(40.92 234.14) rotate(-82.53)"/><ellipse class="cls-23" cx="155.52" cy="92.45" rx="0.57" ry="1.15" transform="translate(43.64 234.64) rotate(-82.53)"/><path class="cls-6" d="M168.51,85.67a5.45,5.45,0,0,0-2.5-1,5.7,5.7,0,0,0-1.28.1L164,85a7.15,7.15,0,0,1-.76.17,4.43,4.43,0,0,1,.49-.65,5.31,5.31,0,0,1,.66-.48,3.1,3.1,0,0,1,1.66-.4,2.7,2.7,0,0,1,1.6.66A2.37,2.37,0,0,1,168.51,85.67Z"/><path class="cls-6" d="M141.66,82.15A2.44,2.44,0,0,1,142.82,81a2.68,2.68,0,0,1,1.72-.22,3,3,0,0,1,1.5.81,3.41,3.41,0,0,1,.51.64,3.85,3.85,0,0,1,.32.75,5.68,5.68,0,0,1-.7-.36l-.64-.32a5.11,5.11,0,0,0-1.2-.43A5.36,5.36,0,0,0,141.66,82.15Z"/><ellipse class="cls-17" cx="170.02" cy="96.79" rx="0.61" ry="1.19" transform="translate(51.96 252.79) rotate(-82.53)"/><ellipse class="cls-17" cx="137.46" cy="92.52" rx="0.61" ry="1.19" transform="translate(27.86 216.79) rotate(-82.53)"/><path class="cls-5" d="M163.09,112.91s-.9,9.16-1.43,10.47a2.77,2.77,0,0,1-2.5,1.37,1.88,1.88,0,0,1-1.86-1.65c-.22-1.78-.73-5.78-.92-6.78-.25-1.28.38-4.84,3.66-5.69S163.09,112.91,163.09,112.91Z"/><path class="cls-13" d="M161.66,123.38l.05,5.8a1.9,1.9,0,0,1,2.47,1.29c.84,1.95-4.54,3.41-6.16,1.56s-.37-2.8-.37-2.8l-.34-5.9S158.67,124.88,161.66,123.38Z"/><path class="cls-5" d="M141,104.92s-8.28,4-9.32,5a2.75,2.75,0,0,0-.41,2.82,1.88,1.88,0,0,0,2.2,1.18c1.74-.42,5.66-1.34,6.66-1.5,1.3-.21,4.41-2.05,4.07-5.42S141,104.92,141,104.92Z"/><path class="cls-13" d="M131.72,109.9l-5.46,2s.07-1.76-2.06-1.87-1.62,5.45.68,6.32,2.75-.63,2.75-.63l5.65-1.74S131.36,113.23,131.72,109.9Z"/><path class="cls-5" d="M101.3,116.68s3,3.44,8.42-1.85,11-4.72,12.81-3.2,5.53,5.53,3.37,7.37-6.25,2.24-8.09-1.12c0,0-5.37,9.45-11.38,7.29S101.3,116.68,101.3,116.68Z"/><g class="cls-46"><path class="cls-13" d="M114.45,111.15a1.81,1.81,0,0,0-1.37,1,3.79,3.79,0,0,0-.37,1.69,8.71,8.71,0,0,0,2,5.73,9.56,9.56,0,0,0,5.23,3.14,16.31,16.31,0,0,0,4.3.27,50.89,50.89,0,0,0,6-.61,5.92,5.92,0,0,0,3.09-1.18c1.32-1.19,1.39-3.21,1.3-5-.15-3-.63-6.24-2.85-8.24a8.84,8.84,0,0,0-3.93-1.86,18.86,18.86,0,0,0-11.16,1.11,5.15,5.15,0,0,0-2.62,1.84"/></g></svg>