<svg id="Layer_1" data-name="Layer 1" xmlns="http://www.w3.org/2000/svg" xmlns:xlink="http://www.w3.org/1999/xlink" viewBox="0 0 260 168"><defs><style>.cls-1{fill:#dda854;}.cls-2{fill:#e8ba67;}.cls-3{fill:#fff;}.cls-4{fill:#7a3100;}.cls-5{fill:#ce994d;}.cls-6{fill:#1e1000;}.cls-7{clip-path:url(#clip-path);}.cls-8{fill:#f7d19a;}.cls-9{fill:#301c00;}.cls-10{fill:#d8a34e;}.cls-11{fill:#471e00;}.cls-12{fill:#c41e1e;}.cls-13{clip-path:url(#clip-path-2);}.cls-14{fill:#a06f20;}.cls-15{fill:#7a4609;}.cls-16{fill:#d69936;}.cls-17{fill:#ffd38d;}.cls-18{clip-path:url(#clip-path-3);}</style><clipPath id="clip-path"><path class="cls-1" d="M60.05,121.08A4.84,4.84,0,0,0,58.7,121c-1.34.09-1.66.21-1.81,1s.38,1,1.23,1.22,2.57.56,3-1.22C61.71,120,60.05,121.08,60.05,121.08Z"/></clipPath><clipPath id="clip-path-2"><path class="cls-2" d="M59.35,120.12a3.23,3.23,0,0,0,.22.41,1.88,1.88,0,0,0,2.08.83c.16,0,.2.15.58.28s.5,0,.58-.11-.05-.11-.05-.11a.66.66,0,0,1-.52-.56,3.58,3.58,0,0,1,.34.17c.58.23.69,0,.69,0,.17-.08.48-.67-.07-.87s-.29-.57-.32-.77a1.17,1.17,0,0,0-1.11-1.15c-1.15-.18-1.73.24-1.94,1.23,0,0-.31.31-.44.32l.06.1-.14,0Z"/></clipPath><clipPath id="clip-path-3"><ellipse class="cls-3" cx="61.92" cy="119.77" rx="0.47" ry="0.36" transform="translate(-65.69 163.31) rotate(-81.5)"/></clipPath></defs><path class="cls-4" d="M56.44,121.64l.05,0a.58.58,0,0,0-.31.21,1.83,1.83,0,0,0-.28.44,1.28,1.28,0,0,0,.39,0,.48.48,0,0,0,.33-.2l0,.15.12-.14a.42.42,0,0,0,0,.16c0,.07.39-.21.41-.25a.5.5,0,0,0,.15-.4c-.05-.14-.26-.15-.38-.15A.91.91,0,0,0,56.44,121.64Z"/><path class="cls-5" d="M58.21,122.35a10.63,10.63,0,0,1-.51,1,.27.27,0,0,1-.29,0,.19.19,0,0,1-.12-.22c0-.18.14-.59.15-.69A.53.53,0,0,1,58,122,.22.22,0,0,1,58.21,122.35Z"/><path class="cls-6" d="M57.7,123.31l-.2.56a.2.2,0,0,1,.19.22c0,.22-.56.17-.65-.07s.06-.29.06-.29l.18-.58S57.36,123.35,57.7,123.31Z"/><path class="cls-5" d="M60.48,122.83a10.63,10.63,0,0,1-.51,1,.29.29,0,0,1-.29,0,.2.2,0,0,1-.12-.23c0-.18.14-.58.15-.69a.55.55,0,0,1,.56-.42C60.62,122.54,60.48,122.83,60.48,122.83Z"/><path class="cls-6" d="M60,123.8l-.2.56s.18,0,.19.21-.56.17-.65-.06.06-.29.06-.29l.18-.58S59.63,123.83,60,123.8Z"/><path class="cls-1" d="M60.05,121.08A4.84,4.84,0,0,0,58.7,121c-1.34.09-1.66.21-1.81,1s.38,1,1.23,1.22,2.57.56,3-1.22C61.71,120,60.05,121.08,60.05,121.08Z"/><g class="cls-7"><path class="cls-8" d="M60,123.37a.14.14,0,0,0,0-.13.09.09,0,0,0-.08,0,2,2,0,0,0-.55,0,3.17,3.17,0,0,1-1.8-.43.39.39,0,0,0-.21-.08.17.17,0,0,0-.18.12.22.22,0,0,0,0,.11c.08.25.35.35.58.42a5.69,5.69,0,0,0,1.35.28C59.3,123.63,59.88,123.74,60,123.37Z"/></g><path class="cls-4" d="M59.6,120.72l0,.06-.29,0a1,1,0,0,0-.59.24,1,1,0,0,1,.52,0l.26,0a3.85,3.85,0,0,0,.48,0c.14,0,.07-.16.16-.28s.1-.46-.11-.35-.13.13-.21.18S59.63,120.76,59.6,120.72Z"/><ellipse class="cls-9" cx="59.15" cy="121.84" rx="0.11" ry="0.2" transform="translate(-72.38 154.15) rotate(-77.91)"/><ellipse class="cls-9" cx="58.57" cy="122" rx="0.11" ry="0.2" transform="translate(-72.99 153.72) rotate(-77.91)"/><ellipse class="cls-9" cx="57.6" cy="121.55" rx="0.11" ry="0.2" transform="translate(-73.32 152.41) rotate(-77.91)"/><ellipse class="cls-9" cx="58.35" cy="121.25" rx="0.11" ry="0.33" transform="translate(-72.44 152.91) rotate(-77.91)"/><path class="cls-1" d="M60.2,122.59s.24.92.24,1.07a.28.28,0,0,1-.19.22.18.18,0,0,1-.24-.09c-.09-.16-.28-.53-.34-.62a.56.56,0,0,1,.15-.69A.22.22,0,0,1,60.2,122.59Z"/><path class="cls-9" d="M60.44,123.66l.21.56a.2.2,0,0,1,.29,0c.15.15-.32.49-.54.37s-.14-.26-.14-.26l-.24-.56S60.2,123.91,60.44,123.66Z"/><path class="cls-1" d="M57.76,122.69a8.64,8.64,0,0,1-1.15.29.33.33,0,0,1-.26-.14.2.2,0,0,1,0-.25c.14-.12.38-.47.45-.54a.7.7,0,0,1,.79.09A.53.53,0,0,1,57.76,122.69Z"/><path class="cls-9" d="M56.61,123l-.51.33a.2.2,0,0,1,0,.29c-.13.18-.55-.21-.48-.45s.22-.19.22-.19l.5-.36S56.31,122.8,56.61,123Z"/><ellipse class="cls-9" cx="57.6" cy="122.21" rx="0.11" ry="0.2" transform="translate(-73.96 152.93) rotate(-77.91)"/><path class="cls-4" d="M59.72,119.31a.37.37,0,0,1-.23.21.15.15,0,0,0,.14.06.44.44,0,0,0-.11.09.39.39,0,0,1-.26.09.49.49,0,0,0,.53,0,.58.58,0,0,0,.21-.48c0-.07,0-.18-.12-.17S59.75,119.24,59.72,119.31Z"/><path class="cls-10" d="M62,118.45a1.22,1.22,0,0,0-.68-.76c-.56-.26-.71,0-.82.41s-.22,1.57,1.16,1.51C61.63,119.61,62.2,118.87,62,118.45Z"/><path class="cls-11" d="M62.8,121.09a.46.46,0,0,0-.1.36l-.2,0-.65-.37.08-.27.65,0Z"/><path class="cls-3" d="M62.08,120.82c0,.09.15.21.39.31s.46.08.49,0-.14-.23-.38-.31S62.11,120.73,62.08,120.82Z"/><ellipse class="cls-12" cx="62.19" cy="121.28" rx="0.17" ry="0.43" transform="matrix(0.27, -0.96, 0.96, 0.27, -71.32, 148.7)"/><path class="cls-2" d="M59.35,120.12a3.23,3.23,0,0,0,.22.41,1.88,1.88,0,0,0,2.08.83c.16,0,.2.15.58.28s.5,0,.58-.11-.05-.11-.05-.11a.66.66,0,0,1-.52-.56,3.58,3.58,0,0,1,.34.17c.58.23.69,0,.69,0,.17-.08.48-.67-.07-.87s-.29-.57-.32-.77a1.17,1.17,0,0,0-1.11-1.15c-1.15-.18-1.73.24-1.94,1.23,0,0-.31.31-.44.32l.06.1-.14,0Z"/><g class="cls-13"><path class="cls-14" d="M61.32,120.71c-.06.46.43.92,1.12,1s1.29-.19,1.36-.66a1,1,0,0,0-1-1.11C62.14,119.87,61.39,120.25,61.32,120.71Z"/></g><path class="cls-9" d="M62.85,120.36c0,.13.17.27.43.31s.32-.06.34-.19,0-.25-.27-.29S62.87,120.23,62.85,120.36Z"/><ellipse class="cls-15" cx="63.37" cy="120.29" rx="0.06" ry="0.11" transform="translate(-64.98 165.16) rotate(-81.49)"/><ellipse class="cls-16" cx="61.36" cy="120.23" rx="0.06" ry="0.12" transform="translate(-66.62 163.13) rotate(-81.49)"/><path class="cls-4" d="M61.87,118.38a.46.46,0,0,1,.23-.15.72.72,0,0,1,.37.13.6.6,0,0,1,.22.28c0,.16-.1.4-.33.43,0,0,.17-.36,0-.57a.28.28,0,0,1-.35.11.14.14,0,0,0,.11-.19S61.78,118.49,61.87,118.38Z"/><path class="cls-4" d="M62.12,117.85a.38.38,0,0,1-.23.35.09.09,0,0,0-.06,0,.08.08,0,0,0,0,.09s.06,0,.09,0,.22,0,.26-.13a.45.45,0,0,0,0-.2S62.12,117.88,62.12,117.85Z"/><ellipse class="cls-9" cx="60.08" cy="120.39" rx="0.13" ry="0.09" transform="translate(-73.96 132.12) rotate(-68.48)"/><ellipse class="cls-9" cx="59.74" cy="120.45" rx="0.09" ry="0.13" transform="translate(-23.29 14.7) rotate(-11.76)"/><path class="cls-4" d="M61.56,118.46l.07-.13a.92.92,0,0,0-.49.16l0-.16a1.25,1.25,0,0,0-.53.19.2.2,0,0,0,0-.11.67.67,0,0,1-.24,0,.32.32,0,0,1,.13-.23.57.57,0,0,1,.25-.11,1.76,1.76,0,0,1,.4-.07l0-.06a1.43,1.43,0,0,1,.58.12l0,0s.42.13.2.26a.67.67,0,0,1-.15.06A2.67,2.67,0,0,1,61.56,118.46Z"/><path class="cls-2" d="M60.55,118.27a1.22,1.22,0,0,0-.83-.58c-.61-.13-.7.15-.71.58s.14,1.58,1.47,1.21C60.48,119.48,60.87,118.63,60.55,118.27Z"/><path class="cls-8" d="M60.44,118.54a1,1,0,0,0-.69-.46c-.5-.1-.57.12-.58.46s.11,1.25,1.21.95C60.38,119.49,60.7,118.82,60.44,118.54Z"/><path class="cls-2" d="M60.4,118.86a1.09,1.09,0,0,1,0-.25.54.54,0,0,0-.13.37.57.57,0,0,0-.11-.11.32.32,0,0,0,0,.17.64.64,0,0,0-.2,0l.14.12a.49.49,0,0,0-.17.06l.12,0c-.06.11-.14.21-.21.32a5.08,5.08,0,0,1,1-.17l.08-.45c0-.11.07-.4-.09-.43s-.15.06-.2.1S60.39,118.82,60.4,118.86Z"/><ellipse class="cls-9" cx="60" cy="119.88" rx="0.19" ry="0.12" transform="translate(-73.54 131.72) rotate(-68.48)"/><path class="cls-2" d="M62.32,120.1s-.06.09-.1.13a.33.33,0,0,1-.13.07.6.6,0,0,1-.61-.12.72.72,0,0,1-.2-.36.77.77,0,0,1,0-.37.52.52,0,0,1,.2-.3.67.67,0,0,1,.21-.09.85.85,0,0,1,.42,0,.51.51,0,0,1,.35.22.62.62,0,0,1,.08.4.76.76,0,0,0,0,.21c0,.06.08,0,.12.07A.51.51,0,0,0,62.32,120.1Z"/><ellipse class="cls-17" cx="61.93" cy="119.69" rx="0.55" ry="0.42" transform="translate(-65.6 163.25) rotate(-81.5)"/><ellipse class="cls-3" cx="61.92" cy="119.77" rx="0.47" ry="0.36" transform="translate(-65.69 163.31) rotate(-81.5)"/><g class="cls-18"><ellipse cx="62.02" cy="119.98" rx="0.36" ry="0.27" transform="translate(-68.98 152.87) rotate(-76.76)"/><ellipse class="cls-3" cx="62.21" cy="119.78" rx="0.12" ry="0.1" transform="translate(-68.64 152.88) rotate(-76.75)"/></g><path class="cls-4" d="M61.75,119.22a.27.27,0,0,1,.28-.13.31.31,0,0,1,.22.22A.47.47,0,0,0,61.75,119.22Z"/><path class="cls-2" d="M62.12,120.3a.51.51,0,0,1-.17,0l-.35.08a.61.61,0,0,0-.18.09.52.52,0,0,0-.13.3s0,.12-.08.13a.12.12,0,0,1-.08,0,.25.25,0,0,1,0-.07,1.07,1.07,0,0,1-.07-.39,2.66,2.66,0,0,0,.39-.07l.08,0s0-.11.09-.15l.28.09a.28.28,0,0,0,.2,0s.09-.08.12-.06S62.14,120.29,62.12,120.3Z"/></svg>