<svg id="Layer_8" data-name="Layer 8" xmlns="http://www.w3.org/2000/svg" xmlns:xlink="http://www.w3.org/1999/xlink" viewBox="0 0 260 168"><defs><style>.cls-1{fill:#dda854;}.cls-2{fill:#e8ba67;}.cls-3{fill:#471e00;}.cls-4{fill:#190e01;}.cls-5{clip-path:url(#clip-path);}.cls-6{fill:#f7d19a;}.cls-7{fill:#301c00;}.cls-8{fill:#d19846;}.cls-9{fill:#e2af5d;}.cls-10{clip-path:url(#clip-path-2);}.cls-11{fill:#a06f20;}.cls-12{fill:#d69936;}.cls-13{clip-path:url(#clip-path-3);}.cls-14{clip-path:url(#clip-path-4);}.cls-15{fill:#c41e1e;}.cls-16{fill:#fff;}.cls-17{fill:#ffd38d;}.cls-18{fill:#7a3100;}.cls-19{fill:#93621b;}.cls-20{fill:#7a4609;}.cls-21{fill:#f4b460;}</style><clipPath id="clip-path"><path class="cls-1" d="M121.7,120.86s-7.13,16.22-6.15,25.78,27.31,12.45,29.69,0-2.49-17-7.37-26.88C132.19,108.25,121.7,120.86,121.7,120.86Z"/></clipPath><clipPath id="clip-path-2"><path class="cls-2" d="M152.49,115.18c-1.19,5-11.7,9.13-22.83,6.5s-18.68-11-17.49-16,11.17-6.92,22.3-4.29S153.67,110.18,152.49,115.18Z"/></clipPath><clipPath id="clip-path-3"><circle class="cls-2" cx="134.1" cy="102.93" r="18.31"/></clipPath><clipPath id="clip-path-4"><path class="cls-3" d="M125.34,112.93a13,13,0,0,0,12.18,2.54,6.23,6.23,0,0,1-7.2,3.33C124.72,117.47,125.34,112.93,125.34,112.93Z"/></clipPath></defs><path class="cls-1" d="M123.44,141.93s-9.42,4.86-10.77,5.67a3.08,3.08,0,0,0-1.08,3,2.11,2.11,0,0,0,2.14,1.77c2-.06,6.48-.2,7.61-.15,1.46.06,5.26-1.25,5.64-5S123.44,141.93,123.44,141.93Z"/><path class="cls-4" d="M112.67,147.6l-6.4.94a2.1,2.1,0,0,0-1.83-2.5c-2.29-.59-3,5.59-.67,7s3.14-.06,3.14-.06l6.56-.64S111.54,151.15,112.67,147.6Z"/><path class="cls-1" d="M138.5,141.73s9.52,5.06,10.87,5.87a3.08,3.08,0,0,1,1.08,3,2.11,2.11,0,0,1-2.14,1.77c-2-.06-6.48-.2-7.61-.15-1.46.06-5.26-1.25-5.64-5S138.5,141.73,138.5,141.73Z"/><path class="cls-4" d="M149.37,147.6l6.4.94a2.1,2.1,0,0,1,1.83-2.5c2.29-.59,3,5.59.67,7s-3.14-.06-3.14-.06l-6.56-.64S150.5,151.15,149.37,147.6Z"/><path class="cls-1" d="M121.7,120.86s-7.13,16.22-6.15,25.78,27.31,12.45,29.69,0-2.49-17-7.37-26.88C132.19,108.25,121.7,120.86,121.7,120.86Z"/><g class="cls-5"><ellipse class="cls-6" cx="131.3" cy="148.86" rx="8.39" ry="13.1"/><ellipse class="cls-7" cx="117.7" cy="128.52" rx="3.82" ry="1.95"/><ellipse class="cls-7" cx="143.61" cy="128.52" rx="3.82" ry="1.95"/><ellipse class="cls-7" cx="146.65" cy="132.28" rx="3.82" ry="1.95"/><ellipse class="cls-7" cx="115.79" cy="133.19" rx="3.82" ry="1.95"/><ellipse class="cls-8" cx="129.78" cy="114.15" rx="12.55" ry="9.43"/></g><path class="cls-9" d="M125.38,88.45a13.94,13.94,0,0,0-7.26-9c-6.27-3.36-8.07-.6-9.55,4.11s-3.57,17.71,12.21,17.89C120.78,101.42,127.79,93.41,125.38,88.45Z"/><path class="cls-6" d="M123.3,91a11.34,11.34,0,0,0-6-7.22c-5.18-2.71-6.65-.53-7.83,3.2s-2.81,14,10.16,14.29C119.6,101.26,125.31,95,123.3,91Z"/><path class="cls-9" d="M148.38,93.89a13.93,13.93,0,0,1,10.53-4.82c7.11-.19,7.49,3.09,6.7,8s-4.74,17.43-18.93,10.52C146.68,107.55,144,97.24,148.38,93.89Z"/><path class="cls-6" d="M149.1,97.1a11.33,11.33,0,0,1,8.63-3.75c5.84-.11,6.18,2.5,5.56,6.36s-3.78,13.82-15.49,8.22C147.8,107.93,145.53,99.73,149.1,97.1Z"/><path class="cls-2" d="M152.49,115.18c-1.19,5-11.7,9.13-22.83,6.5s-18.68-11-17.49-16,11.17-6.92,22.3-4.29S153.67,110.18,152.49,115.18Z"/><g class="cls-10"><path class="cls-11" d="M145.24,116c-.62,6.46-7.7,7.52-15.08,5.78s-13.43-5.7-11.77-12.06c1.27-4.85,8.57-7.35,16-5.61S145.71,111,145.24,116Z"/></g><circle class="cls-12" cx="119.73" cy="93.24" r="4.5"/><circle class="cls-12" cx="150.27" cy="100.47" r="4.5"/><circle class="cls-2" cx="134.1" cy="102.93" r="18.31"/><g class="cls-13"><ellipse class="cls-11" cx="131.55" cy="114.5" rx="8.11" ry="13.7" transform="translate(-10.17 216.14) rotate(-76.69)"/></g><path class="cls-3" d="M125.34,112.93a13,13,0,0,0,12.18,2.54,6.23,6.23,0,0,1-7.2,3.33C124.72,117.47,125.34,112.93,125.34,112.93Z"/><g class="cls-14"><ellipse class="cls-15" cx="130.02" cy="120.05" rx="2.42" ry="4.16" transform="translate(-16.75 218.93) rotate(-76.69)"/><ellipse class="cls-16" cx="131.27" cy="114.78" rx="2.54" ry="4.26" transform="translate(-10.66 216.09) rotate(-76.69)"/></g><ellipse class="cls-17" cx="122.28" cy="100.18" rx="6.26" ry="4.81" transform="translate(-3.37 196.11) rotate(-76.69)"/><ellipse class="cls-17" cx="145.99" cy="105.8" rx="6.26" ry="4.81" transform="translate(9.42 223.5) rotate(-76.69)"/><ellipse class="cls-16" cx="121.97" cy="101.05" rx="5.35" ry="4.09" transform="translate(-4.45 196.47) rotate(-76.69)"/><ellipse cx="121.07" cy="101.74" rx="4.08" ry="3.12" transform="translate(-5.81 196.13) rotate(-76.69)"/><ellipse class="cls-16" cx="120.11" cy="98.7" rx="1.37" ry="1.14" transform="translate(-3.6 192.86) rotate(-76.69)"/><ellipse class="cls-16" cx="145.78" cy="106.68" rx="5.35" ry="4.09" transform="translate(8.39 223.98) rotate(-76.69)"/><ellipse cx="144.89" cy="107.37" rx="4.08" ry="3.12" transform="translate(7.04 223.64) rotate(-76.69)"/><ellipse class="cls-16" cx="143.93" cy="104.34" rx="1.37" ry="1.14" transform="translate(9.25 220.37) rotate(-76.69)"/><path class="cls-18" d="M145,88.21c.48,1.61-3.06-.72-3.06-.72a1.59,1.59,0,0,0,.26,2.5,3.16,3.16,0,0,1-3.11-2.71C136.63,89,137,93.44,137,93.44c-3.58-1.88-1.24-7.42-1.24-7.42-1.33.06-3.68,2.22-3.68,2.22a7,7,0,0,1,2-2.71l-1.85.31c-1.7.45-2.87.26-2.94-.88,0,0,1.71-2.72,8.24-1.5a3,3,0,0,0-.26-2.77S140,81.76,139.9,84C139.9,84,144,84.88,145,88.21Z"/><ellipse class="cls-19" cx="132.22" cy="110.87" rx="5.29" ry="8.84" transform="translate(-6.12 214) rotate(-76.69)"/><ellipse class="cls-7" cx="132.7" cy="108.82" rx="2.77" ry="5.37" transform="translate(-3.75 212.9) rotate(-76.69)"/><ellipse class="cls-20" cx="131.51" cy="106.81" rx="0.64" ry="1.28" transform="translate(-2.72 210.19) rotate(-76.69)"/><path class="cls-18" d="M120.66,94.62a2.64,2.64,0,0,1,1.42-1.14,3,3,0,0,1,1.93-.06,3.5,3.5,0,0,1,1.57,1.07,4.77,4.77,0,0,1,.49.77,4.57,4.57,0,0,1,.26.87,7.1,7.1,0,0,1-.73-.48l-.67-.43a6.46,6.46,0,0,0-1.28-.61A6,6,0,0,0,120.66,94.62Z"/><path class="cls-18" d="M150,101.57a6,6,0,0,0-2.66-1.35,6.15,6.15,0,0,0-1.43,0l-.79.08a7.19,7.19,0,0,1-.87.1,4.36,4.36,0,0,1,.63-.66,4,4,0,0,1,.78-.46,3.52,3.52,0,0,1,1.88-.26,3.12,3.12,0,0,1,1.71.92A2.65,2.65,0,0,1,150,101.57Z"/><ellipse class="cls-12" cx="114.69" cy="105.6" rx="0.68" ry="1.32" transform="translate(-14.48 192.89) rotate(-76.69)"/><ellipse class="cls-12" cx="150.29" cy="114.02" rx="0.68" ry="1.32" transform="translate(4.72 234.01) rotate(-76.69)"/><path class="cls-1" d="M145.42,137.18s-1.79,10.1-2.49,11.51A3.08,3.08,0,0,1,140,150a2.1,2.1,0,0,1-1.93-2c-.09-2-.3-6.48-.43-7.6-.17-1.45.84-5.34,4.56-6S145.42,137.18,145.42,137.18Z"/><path class="cls-7" d="M142.93,148.69l-.45,6.45a2.11,2.11,0,0,1,2.63,1.63c.76,2.24-5.34,3.4-7,1.21s-.17-3.14-.17-3.14l.13-6.59S139.47,150.09,142.93,148.69Z"/><path class="cls-1" d="M124.9,123.2s-9.55-3.75-11.12-3.89a3.09,3.09,0,0,0-2.62,1.79,2.1,2.1,0,0,0,.69,2.69c1.66,1.12,5.37,3.64,6.26,4.34,1.15.9,5,2.07,7.5-.75S124.9,123.2,124.9,123.2Z"/><path class="cls-7" d="M113.78,119.31l-5.73-3a2.11,2.11,0,0,0,0-3.1c-1.51-1.82-5.68,2.78-4.66,5.31s2.58,1.79,2.58,1.79l5.69,3.32S110.78,121.53,113.78,119.31Z"/><path class="cls-21" d="M123.33,125.27c-.25.54-.83,1.75-.23,2.24s1.85-.23,2.4-.55l-.58-.33a1.77,1.77,0,0,0,3.46.37h-.73a1.9,1.9,0,0,0,3.49.17h-.66a1.64,1.64,0,0,0,1.41.89,1.66,1.66,0,0,0,.73-.13c.21-.09.62-.58.82-.57s.41.25.5.29a2.55,2.55,0,0,0,.54.22,1.5,1.5,0,0,0,1,0,1.14,1.14,0,0,0,.73-1.43l-.63.37c.64.57,1.73,1.24,2.45.37s-.34-1.48-.55-2.25a.38.38,0,0,0-.74.21,4.36,4.36,0,0,0,.61,1c.17.28.21.57-.21.64s-.77-.32-1-.55-.78,0-.64.37-.33.6-.67.55a2.52,2.52,0,0,1-.78-.36c-.3-.17-.57-.35-.92-.2s-.48.58-.88.68a.93.93,0,0,1-1.05-.49.38.38,0,0,0-.66,0,1.14,1.14,0,0,1-2.1,0,.38.38,0,0,0-.73,0,1,1,0,0,1-2-.17.39.39,0,0,0-.57-.33c-.32.19-1,.64-1.36.57-.12.06-.15,0-.1-.12a1.59,1.59,0,0,1,.06-.3,4.11,4.11,0,0,1,.28-.79c.2-.45-.46-.83-.66-.39Z"/></svg>