<svg id="Layer_4" data-name="Layer 4" xmlns="http://www.w3.org/2000/svg" xmlns:xlink="http://www.w3.org/1999/xlink" viewBox="0 0 260 168"><defs><style>.cls-1{fill:#dda854;}.cls-2{fill:#e8ba67;}.cls-3{fill:#fff;}.cls-4{fill:#bc6319;}.cls-5{fill:#c97523;}.cls-6{fill:#994a0a;}.cls-7{fill:#7a3100;}.cls-8{fill:#ce994d;}.cls-9{fill:#1e1000;}.cls-10{clip-path:url(#clip-path);}.cls-11{fill:#f7d19a;}.cls-12{fill:#301c00;}.cls-13{fill:#d8a34e;}.cls-14{fill:#471e00;}.cls-15{fill:#c41e1e;}.cls-16{clip-path:url(#clip-path-2);}.cls-17{fill:#a06f20;}.cls-18{fill:#7a4609;}.cls-19{fill:#d69936;}.cls-20{fill:#ffd38d;}.cls-21{clip-path:url(#clip-path-3);}.cls-22{fill:#6cdaf4;}.cls-23{fill:#c1681f;}.cls-24{clip-path:url(#clip-path-4);}.cls-25{fill:#a04908;}.cls-26{clip-path:url(#clip-path-5);}.cls-27{clip-path:url(#clip-path-6);}.cls-28{fill:#db853e;}.cls-29{fill:#c66c22;}.cls-30{clip-path:url(#clip-path-7);}.cls-31{clip-path:url(#clip-path-8);}.cls-32{clip-path:url(#clip-path-9);}.cls-33{fill:#cc6b23;}.cls-34{fill:#f49547;}.cls-35{fill:#a8540e;}.cls-36{fill:none;stroke:#b75818;stroke-linecap:round;stroke-linejoin:round;stroke-width:0.3px;}.cls-37{fill:#c1671e;}.cls-38{fill:#e5813e;}</style><clipPath id="clip-path"><path class="cls-1" d="M152.08,127.94a31.46,31.46,0,0,0-9.13,1.41c-8.82,2.49-10.8,3.73-10.66,9.28.17,6.52,4,6.07,10,6.38s17.92.12,18.54-12.47C161.52,118.06,152.08,127.94,152.08,127.94Z"/></clipPath><clipPath id="clip-path-2"><path class="cls-2" d="M150,121.74a30.82,30.82,0,0,0,1.35,2.87c3.91,8.33,12.84,6.26,13.9,6.43s1.31,1.15,3.85,2.13,3.39.43,4-.52c.31-.52-.31-.77-.31-.77-3.31-1.12-3-3.42-3.31-4,.18,0,2.25,1.31,2.25,1.31,3.88,1.77,4.68.58,4.68.58,1.22-.5,3.56-4.36-.15-6-2.89-1.25-1.76-4-1.88-5.35,0,0,.68-6.6-7.1-8.27s-11.89,1-13.72,7.67c0,0-2.21,2-3.13,2l.41.71-1,.21Z"/></clipPath><clipPath id="clip-path-3"><ellipse class="cls-3" cx="167.72" cy="120.35" rx="3.2" ry="2.45" transform="matrix(0.2, -0.98, 0.98, 0.2, 15.88, 260.2)"/></clipPath><clipPath id="clip-path-4"><path class="cls-4" d="M208.09,147.83a25.87,25.87,0,0,1,1.07,4.92s-.17.8.89.21c0,0,.61.79,1.78,0a.74.74,0,0,0,.29-.34c.25-.55.8-2.25.1-5.37C211.35,143.33,207.27,143.61,208.09,147.83Z"/></clipPath><clipPath id="clip-path-5"><path class="cls-4" d="M196.19,147.83a25.26,25.26,0,0,1,1.06,4.92s-.16.8.9.21c0,0,.61.79,1.78,0a.74.74,0,0,0,.29-.34c.25-.55.8-2.25.1-5.37C199.45,143.33,195.37,143.61,196.19,147.83Z"/></clipPath><clipPath id="clip-path-6"><path class="cls-5" d="M196.27,126.11s22.12,1.42,23.41,14.14-28.13,8.13-31.1-1.2l9.67.83Z"/></clipPath><clipPath id="clip-path-7"><path class="cls-5" d="M199.14,147.83a25.26,25.26,0,0,1,1.06,4.92s-.16.8.9.21c0,0,.61.79,1.78,0a.74.74,0,0,0,.29-.34c.25-.55.8-2.25.1-5.37C202.4,143.33,198.32,143.61,199.14,147.83Z"/></clipPath><clipPath id="clip-path-8"><path class="cls-5" d="M211,147.83a25.87,25.87,0,0,1,1.07,4.92s-.17.8.89.21c0,0,.61.79,1.78,0a.74.74,0,0,0,.29-.34,11.45,11.45,0,0,0,.76-6.65C215,142.05,210.22,143.61,211,147.83Z"/></clipPath><clipPath id="clip-path-9"><path class="cls-6" d="M187.4,134.89s2.15,1.53,3.79.9c0,0-1.8,2.26-3.79.72A1.22,1.22,0,0,1,187.4,134.89Z"/></clipPath></defs><path class="cls-7" d="M128.75,136.85l.41.12a3.71,3.71,0,0,0-1.76,1.8,12.05,12.05,0,0,0-1.24,3.38,9,9,0,0,0,2.61-.51,3.2,3.2,0,0,0,1.89-1.78l0,1,.63-1.09a2.25,2.25,0,0,0,.49,1c.37.45,2.26-2,2.4-2.23.4-.76.88-2.1.38-2.91s-1.93-.63-2.75-.46A6,6,0,0,0,128.75,136.85Z"/><path class="cls-8" d="M141.63,139s-1.54,6.31-2,7.17a1.93,1.93,0,0,1-1.88.7,1.33,1.33,0,0,1-1.14-1.34c0-1.26.07-4.1,0-4.81a3.71,3.71,0,0,1,3.12-3.62C142.1,136.84,141.63,139,141.63,139Z"/><path class="cls-9" d="M139.59,146.17l-.54,4.05a1.34,1.34,0,0,1,1.59,1.14c.39,1.45-3.51,1.94-4.45.48s0-2,0-2l.35-4.15S137.35,146.91,139.59,146.17Z"/><path class="cls-8" d="M157.44,137.62s-.14,6.5-.44,7.45a2,2,0,0,1-1.68,1.09,1.33,1.33,0,0,1-1.4-1.06c-.25-1.24-.82-4-1-4.71a3.69,3.69,0,0,1,2.26-4.2A1.52,1.52,0,0,1,157.44,137.62Z"/><path class="cls-9" d="M157,145.07l.35,4.07a1.33,1.33,0,0,1,1.8.77c.7,1.33-3,2.65-4.24,1.43s-.41-2-.41-2l-.56-4.13S155,146.28,157,145.07Z"/><path class="cls-1" d="M152.08,127.94a31.46,31.46,0,0,0-9.13,1.41c-8.82,2.49-10.8,3.73-10.66,9.28.17,6.52,4,6.07,10,6.38s17.92.12,18.54-12.47C161.52,118.06,152.08,127.94,152.08,127.94Z"/><g class="cls-10"><path class="cls-11" d="M154.78,143.31a1,1,0,0,0-.33-.84,1,1,0,0,0-.65-.14,15.94,15.94,0,0,0-3.64.81,21.81,21.81,0,0,1-12.6-.3,3.36,3.36,0,0,0-1.52-.27,1.18,1.18,0,0,0-1,1.07,1.4,1.4,0,0,0,.23.74c.89,1.55,2.81,1.86,4.49,2a37.27,37.27,0,0,0,9.38-.11C150.7,146,154.75,145.89,154.78,143.31Z"/></g><path class="cls-7" d="M148.53,126.21l.47.31-1.89.74a6.82,6.82,0,0,0-3.59,2.41,6.69,6.69,0,0,1,3.41-1,11.42,11.42,0,0,0,1.76-.07,20.1,20.1,0,0,0,3.22-.59c.93-.5.25-1.16.68-2.12.35-.77,0-3.18-1.24-2.18-.46.36-.68,1.1-1.12,1.53C150,125.38,148.83,126.41,148.53,126.21Z"/><ellipse class="cls-12" cx="147.14" cy="134.27" rx="1.39" ry="0.74"/><ellipse class="cls-12" cx="143.52" cy="136.18" rx="1.39" ry="0.74"/><ellipse class="cls-12" cx="136.39" cy="134.56" rx="1.39" ry="0.74"/><ellipse class="cls-12" cx="140.99" cy="131.52" rx="2.26" ry="0.74"/><path class="cls-1" d="M155.5,140a74.23,74.23,0,0,1-3,6.83,2,2,0,0,1-2,.45,1.33,1.33,0,0,1-.95-1.48c.19-1.25.62-4.06.68-4.77a3.72,3.72,0,0,1,3.58-3.16C156.26,137.88,155.5,140,155.5,140Z"/><path class="cls-12" d="M152.52,146.79l-1.08,4a1.34,1.34,0,0,1,1.43,1.34c.19,1.49-3.74,1.45-4.48-.12s.28-2,.28-2l.91-4.07S150.2,147.23,152.52,146.79Z"/><path class="cls-1" d="M140.11,139.71s-3.55,6-4.46,6.8a2.22,2.22,0,0,1-2,.47,1.32,1.32,0,0,1-1-1.46c.17-1.25-.27-4.09-.23-4.81.07-.92,2-3.21,4.36-3.19A3.64,3.64,0,0,1,140.11,139.71Z"/><path class="cls-12" d="M135.65,146.51l-1,4s1.23-.17,1.45,1.32-3.72,1.5-4.48,0,.25-2,.25-2l.84-4.08S133.34,147,135.65,146.51Z"/><ellipse class="cls-12" cx="137.33" cy="138.97" rx="1.39" ry="0.74"/><path class="cls-7" d="M152.85,116.34a2.41,2.41,0,0,1-1.62,1.38,1.12,1.12,0,0,0,1,.45,2.84,2.84,0,0,0-.79.54,2.64,2.64,0,0,1-1.8.53,3.11,3.11,0,0,0,3.56.08,3.88,3.88,0,0,0,1.64-3.16c0-.48-.1-1.24-.75-1.2S153.11,115.91,152.85,116.34Z"/><path class="cls-13" d="M168.54,111.35a8.34,8.34,0,0,0-4.34-5.41c-3.75-2-4.83-.37-5.72,2.45s-2.15,10.6,7.29,10.72C165.77,119.11,170,114.32,168.54,111.35Z"/><path class="cls-14" d="M173.21,129.66a2.86,2.86,0,0,0-.8,2.4l-1.4.16-4.27-2.81.59-1.75,4.42.47Z"/><path class="cls-3" d="M168.39,127.55c-.24.58.92,1.52,2.51,2.27,2.25,1.05,3.14.74,3.38.16s-.88-1.6-2.51-2.27S168.63,127,168.39,127.55Z"/><ellipse class="cls-15" cx="168.99" cy="130.73" rx="1.14" ry="2.93" transform="translate(-9.08 248.8) rotate(-71.27)"/><path class="cls-2" d="M150,121.74a30.82,30.82,0,0,0,1.35,2.87c3.91,8.33,12.84,6.26,13.9,6.43s1.31,1.15,3.85,2.13,3.39.43,4-.52c.31-.52-.31-.77-.31-.77-3.31-1.12-3-3.42-3.31-4,.18,0,2.25,1.31,2.25,1.31,3.88,1.77,4.68.58,4.68.58,1.22-.5,3.56-4.36-.15-6-2.89-1.25-1.76-4-1.88-5.35,0,0,.68-6.6-7.1-8.27s-11.89,1-13.72,7.67c0,0-2.21,2-3.13,2l.41.71-1,.21Z"/><g class="cls-16"><path class="cls-17" d="M163.28,126.52c-.65,3.14,2.58,6.45,7.2,7.41s8.9-.81,9.55-3.94-1.61-7-6.23-7.94S163.93,123.39,163.28,126.52Z"/></g><path class="cls-12" d="M173.8,124.72c-.19.9,1.07,1.92,2.81,2.28s2.19-.31,2.38-1.2,0-1.69-1.71-2S174,123.83,173.8,124.72Z"/><ellipse class="cls-18" cx="177.35" cy="124.43" rx="0.38" ry="0.76" transform="translate(19.56 272.89) rotate(-78.31)"/><ellipse class="cls-19" cx="163.7" cy="123.26" rx="0.41" ry="0.79" transform="translate(9.83 258.59) rotate(-78.31)"/><path class="cls-7" d="M167.91,110.83a3.13,3.13,0,0,1,1.58-.93,4.79,4.79,0,0,1,2.51,1,4.21,4.21,0,0,1,1.36,2c-.21,1.08-.81,2.69-2.42,2.77,0,0,1.32-2.35.41-3.88a1.88,1.88,0,0,1-2.37.68,1,1,0,0,0,.77-1.29S167.24,111.58,167.91,110.83Z"/><path class="cls-7" d="M169.82,107.31a2.66,2.66,0,0,1-1.73,2.29.8.8,0,0,0-.39.22.47.47,0,0,0,.11.61,1.33,1.33,0,0,0,.63.23c.91.14,1.48.16,1.79-.78a2.73,2.73,0,0,0,.12-1.36C170.3,108.18,169.8,107.56,169.82,107.31Z"/><ellipse class="cls-12" cx="154.91" cy="123.88" rx="0.92" ry="0.58" transform="translate(-22.38 212.83) rotate(-65.29)"/><ellipse class="cls-12" cx="152.61" cy="124.17" rx="0.58" ry="0.92" transform="matrix(0.99, -0.15, 0.15, 0.99, -16.8, 24.12)"/><path class="cls-7" d="M165.72,111.25l.58-.86a6.32,6.32,0,0,0-3.44.93l.25-1.06a7.88,7.88,0,0,0-3.63,1.06,1.09,1.09,0,0,0,.12-.71,4.77,4.77,0,0,1-1.59.17,2,2,0,0,1,.94-1.52,4.93,4.93,0,0,1,1.73-.66,16.06,16.06,0,0,1,2.75-.36l-.24-.38a9.6,9.6,0,0,1,3.92,1l.2-.32s2.84,1.05,1.29,1.87a9.38,9.38,0,0,1-1.07.3A11.61,11.61,0,0,1,165.72,111.25Z"/><path class="cls-2" d="M158.93,109.61a8.33,8.33,0,0,0-5.45-4.28c-4.11-1.12-4.79.74-5,3.68s.31,10.82,9.53,8.79C158,117.8,161,112.18,158.93,109.61Z"/><path class="cls-11" d="M158.06,111.38a6.8,6.8,0,0,0-4.49-3.4c-3.39-.88-3.95.59-4.14,2.92s.26,8.57,7.86,7C157.29,117.87,159.77,113.41,158.06,111.38Z"/><path class="cls-2" d="M157.71,113.56a6.08,6.08,0,0,1-.21-1.75,4.19,4.19,0,0,0-1.05,2.49,2.58,2.58,0,0,0-.7-.77,2.25,2.25,0,0,0,0,1.18,5.72,5.72,0,0,0-1.37.1,6.5,6.5,0,0,0,.88.86,4.18,4.18,0,0,0-1.13.38l.81.38c-.51.71-1,1.39-1.6,2a42.12,42.12,0,0,1,6.62-.79l.74-3c.17-.71.6-2.67-.5-2.93-.45-.11-1,.33-1.38.57S157.63,113.26,157.71,113.56Z"/><ellipse class="cls-12" cx="154.57" cy="120.39" rx="1.33" ry="0.85" transform="translate(-19.41 210.49) rotate(-65.29)"/><path class="cls-2" d="M170.29,122.72a10.4,10.4,0,0,1-.75.87,2.46,2.46,0,0,1-.85.44,4.2,4.2,0,0,1-4.14-1.08,5,5,0,0,1-1.25-2.51,5.08,5.08,0,0,1,.08-2.51,3.52,3.52,0,0,1,1.49-2,4.63,4.63,0,0,1,1.44-.53,6.56,6.56,0,0,1,2.89-.07,3.63,3.63,0,0,1,2.32,1.63,4.34,4.34,0,0,1,.37,2.77,5.36,5.36,0,0,0-.28,1.39c.07.44.52.34.81.59A3.5,3.5,0,0,0,170.29,122.72Z"/><ellipse class="cls-20" cx="167.83" cy="119.82" rx="3.75" ry="2.88" transform="translate(16.49 259.89) rotate(-78.31)"/><ellipse class="cls-3" cx="167.72" cy="120.35" rx="3.2" ry="2.45" transform="matrix(0.2, -0.98, 0.98, 0.2, 15.88, 260.2)"/><g class="cls-21"><path d="M166.39,121.15a2.21,2.21,0,0,1,2.64-1.58,1.49,1.49,0,0,1,.5.36.84.84,0,0,0-.53.5.75.75,0,0,0,.33,1,.67.67,0,0,0,.73-.2,2.85,2.85,0,0,1-.21,1.29,1.93,1.93,0,1,1-3.46-1.38Z"/></g><path class="cls-7" d="M166.72,116.51a1.75,1.75,0,0,1,2-.78,2.11,2.11,0,0,1,1,.62,2.77,2.77,0,0,1,.31.45,4.36,4.36,0,0,1,.17.51l-.86-.52a3.77,3.77,0,0,0-.78-.34A3.52,3.52,0,0,0,166.72,116.51Z"/><path class="cls-2" d="M168.84,124a4.84,4.84,0,0,1-1.13.18,22.59,22.59,0,0,0-2.44.41,3.23,3.23,0,0,0-1.25.52,3.44,3.44,0,0,0-1,2c-.09.36-.25.79-.62.82a.6.6,0,0,1-.5-.25,1.54,1.54,0,0,1-.24-.54,6.71,6.71,0,0,1-.34-2.66,16.85,16.85,0,0,0,2.65-.34,1.37,1.37,0,0,0,.55-.21c.33-.25.39-.72.68-1l1.88.74a2.06,2.06,0,0,0,1.37.19c.22-.07.61-.47.85-.33S169,124,168.84,124Z"/><circle class="cls-22" cx="187.9" cy="119.55" r="6.8"/><path class="cls-7" d="M220.76,147.43a2,2,0,0,0,1.18.54,8.29,8.29,0,0,0,1.22.14.33.33,0,0,1-.23-.15.55.55,0,0,1,.6.37,3.41,3.41,0,0,0-.18-2.07,2,2,0,0,0-1.63-1.15,1.1,1.1,0,0,0-.78.25A1.82,1.82,0,0,0,220.76,147.43Z"/><path class="cls-23" d="M217.84,144.38s3.69.57,3.8,2.37c0,0-.38-.45-3.8-.87S216,144.24,217.84,144.38Z"/><path class="cls-4" d="M208.09,147.83a25.87,25.87,0,0,1,1.07,4.92s-.17.8.89.21c0,0,.61.79,1.78,0a.74.74,0,0,0,.29-.34c.25-.55.8-2.25.1-5.37C211.35,143.33,207.27,143.61,208.09,147.83Z"/><g class="cls-24"><path class="cls-25" d="M208.17,151.49c.12.06,1.45,1.31,5,.37V154L208,154,206.87,152Z"/></g><path class="cls-4" d="M196.19,147.83a25.26,25.26,0,0,1,1.06,4.92s-.16.8.9.21c0,0,.61.79,1.78,0a.74.74,0,0,0,.29-.34c.25-.55.8-2.25.1-5.37C199.45,143.33,195.37,143.61,196.19,147.83Z"/><g class="cls-26"><path class="cls-25" d="M196.27,151.49c.11.06,1.44,1.31,5,.37V154l-5.15-.06L195,152Z"/></g><path class="cls-5" d="M196.27,126.11s22.12,1.42,23.41,14.14-28.13,8.13-31.1-1.2l9.67.83Z"/><g class="cls-27"><path class="cls-28" d="M204.74,149.78s-14.66-2.82-8.13-2.93,8.13,1,16.18.58-4.57,2.22-4.57,2.22l-3.22,0"/></g><path class="cls-7" d="M202.76,126.11a6.72,6.72,0,0,0,.86.4c.37.13.77.18,1.15.28a9.32,9.32,0,0,1,1.66.71l3.63,1.84a2.12,2.12,0,0,1-2.42-.28,1,1,0,0,1-1.18.45,3.54,3.54,0,0,1-1.19-.68,1,1,0,0,0-.69-.27,1.59,1.59,0,0,0-.4.14c-.83.33-1.67-.39-2.28-1a1.31,1.31,0,0,1-1.35.09c-.18-.1-.34-.24-.53-.33a3.53,3.53,0,0,0-1.22-.16,1,1,0,0,1-1-.63,1.24,1.24,0,0,1-1.32.36,3.58,3.58,0,0,1-1.25-.72L193.63,125c-.75-.58-.43-1,.32-.92a26.16,26.16,0,0,1,2.94.32A19,19,0,0,1,202.76,126.11Z"/><ellipse class="cls-29" cx="209.48" cy="131.73" rx="1.65" ry="0.52"/><ellipse class="cls-29" cx="212.56" cy="133.55" rx="1.65" ry="0.52"/><path class="cls-5" d="M199.14,147.83a25.26,25.26,0,0,1,1.06,4.92s-.16.8.9.21c0,0,.61.79,1.78,0a.74.74,0,0,0,.29-.34c.25-.55.8-2.25.1-5.37C202.4,143.33,198.32,143.61,199.14,147.83Z"/><g class="cls-30"><path class="cls-25" d="M199.22,151.49c.12.06,1.44,1.31,5,.37V154L199,154,197.92,152Z"/></g><path class="cls-5" d="M211,147.83a25.87,25.87,0,0,1,1.07,4.92s-.17.8.89.21c0,0,.61.79,1.78,0a.74.74,0,0,0,.29-.34,11.45,11.45,0,0,0,.76-6.65C215,142.05,210.22,143.61,211,147.83Z"/><g class="cls-31"><path class="cls-25" d="M211.12,151.49c.12.06,1.45,1.31,5,.37V154l-5.15-.06L209.82,152Z"/></g><path class="cls-5" d="M192.68,124.18s-3.26,3.38-7,1.62l2.19,4.34,1.41.4,3-3.82S194.55,124.47,192.68,124.18Z"/><ellipse class="cls-5" cx="188.59" cy="136.89" rx="1.97" ry="2.83" transform="translate(-28.04 222.79) rotate(-57.61)"/><path class="cls-5" d="M187.32,138.1c3,2.83,8.76,6.8,14.45,6.53l-7.14-8.47-6.82-2.51-1.52.06"/><path class="cls-5" d="M205.09,142.79c-1.67,2.64-6.29,2.6-11.75-.86s-8.53-8.42-6.85-11.06,7.46-2,12.92,1.49S206.77,140.15,205.09,142.79Z"/><path class="cls-5" d="M207.14,138.83c-2.91,5.19-7.49,7.1-12.8,3.73s-8-9.93-5.11-14.49,7.07-7.22,12.66-4.34C209,127.39,210.19,133.4,207.14,138.83Z"/><path class="cls-5" d="M185.67,125.8s2.49.74,2.85,2.86l-2.06,5.9a57.29,57.29,0,0,1-4.66-3.35Z"/><path class="cls-6" d="M187.4,134.89s2.15,1.53,3.79.9c0,0-1.8,2.26-3.79.72A1.22,1.22,0,0,1,187.4,134.89Z"/><g class="cls-32"><ellipse class="cls-15" cx="188.47" cy="137.9" rx="1.62" ry="2.03" transform="translate(-28.94 223.16) rotate(-57.61)"/><ellipse class="cls-3" cx="189.22" cy="134.49" rx="1.62" ry="2.03" transform="translate(-25.72 222.22) rotate(-57.61)"/></g><path class="cls-33" d="M182.52,131.73s4.32,3.88,7.75,4.21l.24-.16s-5.1-2.21-7.34-4.23Z"/><path class="cls-34" d="M185.67,130.56a2.51,2.51,0,0,1-3.39,1c-1.21-.66-.82-1.72-.17-2.94s2.12-3.58,3.34-2.93S186.33,129.34,185.67,130.56Z"/><ellipse class="cls-35" cx="183.48" cy="129.13" rx="1.09" ry="0.59" transform="translate(-17.36 229.14) rotate(-61.61)"/><circle class="cls-3" cx="194.91" cy="131.66" r="2.77" transform="translate(-39.71 114.98) rotate(-29.97)"/><path d="M195.93,129.39a2.3,2.3,0,0,0-.65-.27.74.74,0,1,1-1.35.15,2.06,2.06,0,0,0-.22,3.61,2.07,2.07,0,1,0,2.22-3.49Z"/><path class="cls-36" d="M192.29,135.08a1.22,1.22,0,0,0-1.65.6c-.47,1.12,1.1,1.92,2.51,1.75"/><ellipse class="cls-37" cx="195.71" cy="135.55" rx="0.36" ry="1.1" transform="translate(-23.6 228.19) rotate(-57.61)"/><path class="cls-7" d="M200.6,124.59a3.73,3.73,0,0,0-.09-2.7,5.07,5.07,0,0,0-1.61-1,4.62,4.62,0,0,0-4,.32,4.25,4.25,0,0,0-1.53,1.59,3.3,3.3,0,0,0-.3.73l0,.73a4.41,4.41,0,0,0,.81,1.3s1.94-3,3.13-2.29c0,0-1,1.06-.62,2.08a10.11,10.11,0,0,0,1.9-1l-.63,1S200,125.93,200.6,124.59Z"/><path class="cls-7" d="M202.34,125.35a3.31,3.31,0,0,0-.2.68c.67.1,1.34.23,2,.39l-.36.54a8.8,8.8,0,0,1,3.73,1.16,4,4,0,0,0-.66-1.9,13.23,13.23,0,0,0-3.64-3.55,12.36,12.36,0,0,0-3.69-2.07,4.49,4.49,0,0,0-4.05.58l3,1a.35.35,0,0,1,.2.13.33.33,0,0,1,0,.26l-.11,1a4.17,4.17,0,0,1,.86-.3.18.18,0,0,1,.16,0,.21.21,0,0,1,.05.16,8.31,8.31,0,0,0,.07.86c.78-.07.62.35.33.82A2.29,2.29,0,0,0,202.34,125.35Z"/><path class="cls-5" d="M203.13,126.5s3.72-1,5.63,1.5.78,5.61-7.5,6.64C201.26,134.64,200.77,128.44,203.13,126.5Z"/><path class="cls-38" d="M202.67,127.43s2.65-.71,4,1.08.55,4-5.35,4.73C201.33,133.24,201,128.82,202.67,127.43Z"/><path class="cls-3" d="M190.69,135.63s-1.16.18-1.45.26.8.91,2.15.9Z"/><ellipse class="cls-5" cx="191.85" cy="136.25" rx="1.07" ry="1.38" transform="translate(-25.97 225.25) rotate(-57.61)"/></svg>