<svg id="Layer_1" data-name="Layer 1" xmlns="http://www.w3.org/2000/svg" xmlns:xlink="http://www.w3.org/1999/xlink" viewBox="0 0 260 168"><defs><style>.cls-1{fill:#dda854;}.cls-2{fill:#e8ba67;}.cls-3{fill:#471e00;}.cls-4{fill:#d7fff4;opacity:0.3;}.cls-5{fill:#3d3dfc;}.cls-39,.cls-6{fill:#fff;}.cls-7{fill:#c99343;}.cls-8{fill:#c48a37;}.cls-9{fill:#190e01;}.cls-10{clip-path:url(#clip-path);}.cls-11{fill:#f7d19a;}.cls-12{fill:#301c00;}.cls-13{fill:#d19846;}.cls-14{fill:#e2af5d;}.cls-15{clip-path:url(#clip-path-2);}.cls-16{fill:#a06f20;}.cls-17{fill:#d69936;}.cls-18{clip-path:url(#clip-path-3);}.cls-19{clip-path:url(#clip-path-4);}.cls-20{fill:#c41e1e;}.cls-21{fill:#ffd38d;}.cls-22{clip-path:url(#clip-path-5);}.cls-23{clip-path:url(#clip-path-6);}.cls-24{fill:#7a3100;}.cls-25{fill:#93621b;}.cls-26{fill:#7a4609;}.cls-27{clip-path:url(#clip-path-7);}.cls-28{fill:#1e1101;}.cls-29{clip-path:url(#clip-path-8);}.cls-30{clip-path:url(#clip-path-9);}.cls-31{fill:#ce9849;}.cls-32{clip-path:url(#clip-path-10);}.cls-33{clip-path:url(#clip-path-11);}.cls-34,.cls-41{fill:none;stroke-linecap:round;stroke-linejoin:round;}.cls-34{stroke:#d8a14a;stroke-width:0.27px;}.cls-35{clip-path:url(#clip-path-12);}.cls-36{fill:#f4b460;}.cls-37{fill:#db9f58;}.cls-38{clip-path:url(#clip-path-13);}.cls-39{opacity:0.21;}.cls-40{fill:#2e2eef;}.cls-41{stroke:#457fff;stroke-width:0.09px;}.cls-42{fill:#457fff;}.cls-43{clip-path:url(#clip-path-14);}.cls-44{clip-path:url(#clip-path-15);}.cls-45{fill:#2d2de8;}</style><clipPath id="clip-path"><circle class="cls-1" cx="152.39" cy="107.3" r="11.44"/></clipPath><clipPath id="clip-path-2"><path class="cls-2" d="M135.25,92.79c-.6,4.58,6.9,11.39,17.09,12.73s19.19-3.32,19.79-7.89S165,88.26,154.77,86.92,135.85,88.22,135.25,92.79Z"/></clipPath><clipPath id="clip-path-3"><circle class="cls-2" cx="154.58" cy="88.36" r="16.44"/></clipPath><clipPath id="clip-path-4"><path class="cls-3" d="M158.75,99.55a11.65,11.65,0,0,1-11-1.75,5.59,5.59,0,0,0,5,5.09C157.83,103.56,158.75,99.55,158.75,99.55Z"/></clipPath><clipPath id="clip-path-5"><ellipse class="cls-6" cx="165.37" cy="90.65" rx="4.81" ry="3.67" transform="translate(53.99 242.83) rotate(-82.53)"/></clipPath><clipPath id="clip-path-6"><ellipse class="cls-6" cx="143.58" cy="87.8" rx="4.81" ry="3.67" transform="translate(37.87 218.75) rotate(-82.53)"/></clipPath><clipPath id="clip-path-7"><path class="cls-7" d="M78.41,115.58c-1.63-.52-3.38-1-5-.52a6.11,6.11,0,0,0-3.5,3.59,11,11,0,0,0,3,12.46,4.93,4.93,0,0,0-5.39.86,3.81,3.81,0,0,0-.08,5.21,5.76,5.76,0,0,0,3.35,1.25,22.26,22.26,0,0,0,6.91-.27,6.51,6.51,0,0,0,3.89-1.92,7.18,7.18,0,0,0,1.23-4.17c.14-2,.19-4,.15-6-.08-3.58-.66-7.56-3.46-9.8l.9,1.1"/></clipPath><clipPath id="clip-path-8"><path class="cls-7" d="M105.53,116.09c1.64-.45,3.41-.9,5-.33a6.11,6.11,0,0,1,3.36,3.72,11,11,0,0,1-3.5,12.34,4.93,4.93,0,0,1,5.35,1.06,3.79,3.79,0,0,1-.11,5.21,5.7,5.7,0,0,1-3.4,1.12,22.19,22.19,0,0,1-6.89-.53,6.55,6.55,0,0,1-3.82-2.06,7.3,7.3,0,0,1-1.07-4.22c-.06-2,0-4,.08-6,.21-3.57.94-7.53,3.82-9.66l-.93,1.07"/></clipPath><clipPath id="clip-path-9"><path class="cls-1" d="M75.54,113.68c5.37-12.2,6.18-20.62,6.18-20.62h.58l10,2.28,10.13-1.89h.58s.5,8.44,5.4,20.83,1,22.31-16.78,22h-.2C73.68,135.93,70.2,125.83,75.54,113.68Z"/></clipPath><clipPath id="clip-path-10"><path class="cls-2" d="M74.14,89.48a6.73,6.73,0,0,1-1.36-4.09c.09-4.3,4.48-7.71,9.82-7.6,4.52.08,8.25,2.65,9.25,6,.24,0,.48,0,.72,0s.46,0,.69,0c1.12-3.35,4.95-5.78,9.47-5.7,5.34.11,9.6,3.68,9.52,8A6.55,6.55,0,0,1,110.89,90a7.74,7.74,0,0,1-4.61,3.19,11.7,11.7,0,0,1-3.84.57H102a15,15,0,0,1-2.57-.28,13.26,13.26,0,0,1-14.15-.27,15.47,15.47,0,0,1-2.59.19l-.24,0h-.18a11.58,11.58,0,0,1-3.92-.76A7.79,7.79,0,0,1,74.14,89.48Z"/></clipPath><clipPath id="clip-path-11"><path class="cls-3" d="M98.84,89a13.27,13.27,0,0,1-12.72-.59,6.37,6.37,0,0,0,6.29,5.14C98.31,93.66,98.84,89,98.84,89Z"/></clipPath><clipPath id="clip-path-12"><path class="cls-1" d="M100.43,115a39.89,39.89,0,0,0-.87,9,77.48,77.48,0,0,1-1.18,12c-2.53,3.35-.11,5.71-.11,5.71,3.89,5.32,12,2.87,11.64-1.55s-4-3.2-4-3.2a108.38,108.38,0,0,0,3.21-20Z"/></clipPath><clipPath id="clip-path-13"><circle class="cls-4" cx="101.02" cy="80.97" r="2.12"/></clipPath><clipPath id="clip-path-14"><circle class="cls-4" cx="84.39" cy="80.97" r="2.12"/></clipPath><clipPath id="clip-path-15"><path class="cls-5" d="M86.61,80.56a.29.29,0,0,0,.16,0,14.68,14.68,0,0,1,11.82,0A.4.4,0,0,0,99,79.8a15.21,15.21,0,0,0-12.52,0,.4.4,0,0,0-.2.53A.39.39,0,0,0,86.61,80.56Z"/></clipPath></defs><path class="cls-8" d="M161.23,110.92s-1.78,9-2.44,10.29a2.75,2.75,0,0,1-2.62,1.12,1.9,1.9,0,0,1-1.7-1.83c0-1.79-.16-5.82-.25-6.82-.13-1.31.84-4.79,4.19-5.32S161.23,110.92,161.23,110.92Z"/><path class="cls-9" d="M158.79,121.21l-.51,5.78a1.89,1.89,0,0,1,2.33,1.51c.65,2-4.85,3-6.27,1s-.11-2.82-.11-2.82l.24-5.91S155.67,122.41,158.79,121.21Z"/><path class="cls-8" d="M143,109.24s-1.34,9.12-1.15,10.51a2.77,2.77,0,0,0,2.1,1.93,1.88,1.88,0,0,0,2.21-1.15c.64-1.67,2.1-5.43,2.53-6.35.55-1.19.8-4.79-2.18-6.41S143,109.24,143,109.24Z"/><path class="cls-9" d="M141.82,119.75l-1.44,5.62a1.89,1.89,0,0,0-2.7.65c-1.29,1.69,3.58,4.41,5.59,3s1-2.63,1-2.63l1.75-5.65S144.37,121.93,141.82,119.75Z"/><circle class="cls-1" cx="152.39" cy="107.3" r="11.44"/><g class="cls-10"><ellipse class="cls-11" cx="152.39" cy="121.27" rx="6.08" ry="7.01"/><ellipse class="cls-12" cx="164.22" cy="108.47" rx="1.95" ry="1.16"/><ellipse class="cls-12" cx="164.53" cy="111.23" rx="1.95" ry="1.16"/><ellipse class="cls-12" cx="140.95" cy="107.3" rx="1.95" ry="1.16"/><ellipse class="cls-12" cx="140.95" cy="109.88" rx="1.95" ry="1.16"/><ellipse class="cls-13" cx="152.39" cy="101.26" rx="10.53" ry="7.51"/></g><path class="cls-14" d="M166.51,79a12.51,12.51,0,0,1,9-5.27c6.34-.82,7,2.07,6.71,6.49s-2.64,16-15.94,11.13C166.25,91.34,162.91,82.38,166.51,79Z"/><path class="cls-11" d="M167.45,81.79a10.19,10.19,0,0,1,7.37-4.15c5.21-.62,5.74,1.67,5.54,5.18s-2.1,12.69-13.08,8.76C167.28,91.58,164.5,84.46,167.45,81.79Z"/><path class="cls-14" d="M145.48,76.23a12.52,12.52,0,0,0-7.31-7.4c-5.91-2.43-7.27.2-8.16,4.55s-1.57,16.14,12.54,14.85C142.55,88.23,148.08,80.44,145.48,76.23Z"/><path class="cls-11" d="M143.85,78.69a10.22,10.22,0,0,0-6-5.9c-4.87-2-6,.14-6.7,3.58s-1.23,12.8,10.39,11.83C141.49,88.2,146,82,143.85,78.69Z"/><path class="cls-2" d="M135.25,92.79c-.6,4.58,6.9,11.39,17.09,12.73s19.19-3.32,19.79-7.89S165,88.26,154.77,86.92,135.85,88.22,135.25,92.79Z"/><g class="cls-15"><path class="cls-16" d="M141.06,95.81c-1.53,5.62,4.07,8.76,10.82,9.65S165,105,165.6,99.09c.48-4.48-4.85-8.91-11.6-9.79S142.25,91.47,141.06,95.81Z"/></g><circle class="cls-17" cx="169.73" cy="84.81" r="4.04"/><circle class="cls-17" cx="141.8" cy="81.15" r="4.04"/><circle class="cls-2" cx="154.58" cy="88.36" r="16.44"/><g class="cls-18"><ellipse class="cls-16" cx="153.04" cy="98.89" rx="7.28" ry="12.3" transform="translate(35.1 237.78) rotate(-82.53)"/></g><path class="cls-3" d="M158.75,99.55a11.65,11.65,0,0,1-11-1.75,5.59,5.59,0,0,0,5,5.09C157.83,103.56,158.75,99.55,158.75,99.55Z"/><g class="cls-19"><ellipse class="cls-20" cx="152.55" cy="104.04" rx="2.17" ry="3.74" transform="translate(29.57 241.78) rotate(-82.53)"/><ellipse class="cls-6" cx="153.18" cy="99.22" rx="2.28" ry="3.82" transform="translate(34.9 238.21) rotate(-82.53)"/></g><ellipse class="cls-21" cx="165.38" cy="89.83" rx="5.62" ry="4.32" transform="translate(54.82 242.13) rotate(-82.53)"/><ellipse class="cls-21" cx="143.69" cy="86.98" rx="5.62" ry="4.32" transform="translate(38.77 218.15) rotate(-82.53)"/><ellipse class="cls-6" cx="165.37" cy="90.65" rx="4.81" ry="3.67" transform="translate(53.99 242.83) rotate(-82.53)"/><g class="cls-22"><ellipse cx="163.27" cy="91.44" rx="3.66" ry="2.8" transform="translate(51.38 241.44) rotate(-82.53)"/><ellipse class="cls-6" cx="165.04" cy="89.2" rx="1.23" ry="1.02" transform="matrix(0.13, -0.99, 0.99, 0.13, 55.15, 241.25)"/></g><ellipse class="cls-6" cx="143.58" cy="87.8" rx="4.81" ry="3.67" transform="translate(37.87 218.75) rotate(-82.53)"/><g class="cls-23"><ellipse cx="141.43" cy="88.39" rx="2.8" ry="3.66" transform="matrix(1, -0.03, 0.03, 1, -2.31, 3.81)"/><ellipse class="cls-6" cx="142.83" cy="85.9" rx="1.02" ry="1.23" transform="matrix(1, -0.03, 0.03, 1, -2.25, 3.85)"/></g><path class="cls-24" d="M150.12,72.54c-.91,1.19,2.8.37,2.8.37a1.42,1.42,0,0,1-1,2,2.83,2.83,0,0,0,3.47-1.28c1.53,2.19-.19,5.84-.19,5.84,3.61-.43,3.41-5.83,3.41-5.83,1.09.48,2.38,3,2.38,3a6.4,6.4,0,0,0-.83-2.92l1.46.86c1.29.91,2.33,1.13,2.75.19,0,0-.57-2.83-6.44-3.88a2.76,2.76,0,0,1,1.1-2.25s-2.6,0-3.29,2C155.73,70.65,152,70.07,150.12,72.54Z"/><ellipse class="cls-25" cx="153.63" cy="95.63" rx="4.75" ry="7.93" transform="translate(38.85 235.53) rotate(-82.53)"/><ellipse class="cls-12" cx="153.88" cy="93.75" rx="2.49" ry="4.82" transform="translate(40.92 234.14) rotate(-82.53)"/><ellipse class="cls-26" cx="155.52" cy="92.45" rx="0.57" ry="1.15" transform="translate(43.64 234.64) rotate(-82.53)"/><path class="cls-24" d="M168.51,85.67a5.45,5.45,0,0,0-2.5-1,5.7,5.7,0,0,0-1.28.1L164,85a7.15,7.15,0,0,1-.76.17,4.43,4.43,0,0,1,.49-.65,5.31,5.31,0,0,1,.66-.48,3.1,3.1,0,0,1,1.66-.4,2.7,2.7,0,0,1,1.6.66A2.37,2.37,0,0,1,168.51,85.67Z"/><path class="cls-24" d="M141.66,82.15A2.44,2.44,0,0,1,142.82,81a2.68,2.68,0,0,1,1.72-.22,3,3,0,0,1,1.5.81,3.41,3.41,0,0,1,.51.64,3.85,3.85,0,0,1,.32.75,5.68,5.68,0,0,1-.7-.36l-.64-.32a5.11,5.11,0,0,0-1.2-.43A5.36,5.36,0,0,0,141.66,82.15Z"/><ellipse class="cls-17" cx="170.02" cy="96.79" rx="0.61" ry="1.19" transform="translate(51.96 252.79) rotate(-82.53)"/><ellipse class="cls-17" cx="137.46" cy="92.52" rx="0.61" ry="1.19" transform="translate(27.86 216.79) rotate(-82.53)"/><path class="cls-1" d="M163.09,112.91s-.9,9.16-1.43,10.47a2.77,2.77,0,0,1-2.5,1.37,1.88,1.88,0,0,1-1.86-1.65c-.22-1.78-.73-5.78-.92-6.78-.25-1.28.38-4.84,3.66-5.69S163.09,112.91,163.09,112.91Z"/><path class="cls-12" d="M161.66,123.38l.05,5.8a1.9,1.9,0,0,1,2.47,1.29c.84,1.95-4.54,3.41-6.16,1.56s-.37-2.8-.37-2.8l-.34-5.9S158.67,124.88,161.66,123.38Z"/><path class="cls-1" d="M141,104.92s-8.28,4-9.32,5a2.75,2.75,0,0,0-.41,2.82,1.88,1.88,0,0,0,2.2,1.18c1.74-.42,5.66-1.34,6.66-1.5,1.3-.21,4.41-2.05,4.07-5.42S141,104.92,141,104.92Z"/><path class="cls-12" d="M131.72,109.9l-5.46,2s.07-1.76-2.06-1.87-1.62,5.45.68,6.32,2.75-.63,2.75-.63l5.65-1.74S131.36,113.23,131.72,109.9Z"/><path class="cls-24" d="M106.17,91.93a2.86,2.86,0,0,1-1.25,5.14,1,1,0,0,1,0,1.39,2.37,2.37,0,0,1-1.39.62,10,10,0,0,1-8.65-2.69,6.1,6.1,0,0,1-7.71.44,2.91,2.91,0,0,1-4.86.25,2.21,2.21,0,0,1-2.67.55,2.24,2.24,0,0,1-1.07-2.51c-1-.19-1.39-1.43-1.33-2.45.17-3,2.54-5.63,5.34-6.84a19.34,19.34,0,0,1,9-1.07c2.8.2,5.78.69,7.82,2.62.76.71,1.53,1.67,2.56,1.59a7.31,7.31,0,0,0,1.21-.36,2.67,2.67,0,0,1,3.14,3.7"/><path class="cls-7" d="M78.41,115.58c-1.63-.52-3.38-1-5-.52a6.11,6.11,0,0,0-3.5,3.59,11,11,0,0,0,3,12.46,4.93,4.93,0,0,0-5.39.86,3.81,3.81,0,0,0-.08,5.21,5.76,5.76,0,0,0,3.35,1.25,22.26,22.26,0,0,0,6.91-.27,6.51,6.51,0,0,0,3.89-1.92,7.18,7.18,0,0,0,1.23-4.17c.14-2,.19-4,.15-6-.08-3.58-.66-7.56-3.46-9.8l.9,1.1"/><g class="cls-27"><path class="cls-28" d="M67.55,125.35a7.85,7.85,0,0,0,6.11.59,23.51,23.51,0,0,0,5.68-2.71,38.65,38.65,0,0,1,7.85,5,13.12,13.12,0,0,1,4.54,7.95,12.15,12.15,0,0,1-4.45,10.28A21.53,21.53,0,0,1,76.67,151c-5.17.85-11.21.19-14.42-3.94a12.61,12.61,0,0,1-2.07-4.34,20.34,20.34,0,0,1,3.1-17.33,1.18,1.18,0,0,1,.7-.55c.31,0,.65.28.49.55"/></g><path class="cls-7" d="M105.53,116.09c1.64-.45,3.41-.9,5-.33a6.11,6.11,0,0,1,3.36,3.72,11,11,0,0,1-3.5,12.34,4.93,4.93,0,0,1,5.35,1.06,3.79,3.79,0,0,1-.11,5.21,5.7,5.7,0,0,1-3.4,1.12,22.19,22.19,0,0,1-6.89-.53,6.55,6.55,0,0,1-3.82-2.06,7.3,7.3,0,0,1-1.07-4.22c-.06-2,0-4,.08-6,.21-3.57.94-7.53,3.82-9.66l-.93,1.07"/><g class="cls-29"><path class="cls-28" d="M116,126.27a7.89,7.89,0,0,1-6.13.36,23.36,23.36,0,0,1-5.57-2.93,38.41,38.41,0,0,0-8,4.75,13.05,13.05,0,0,0-4.83,7.78c-.6,3.84,1.2,7.79,4.06,10.44a21.52,21.52,0,0,0,10.43,4.88c5.13,1,11.19.62,14.56-3.39a12.78,12.78,0,0,0,2.23-4.26,20.37,20.37,0,0,0-2.45-17.43,1.14,1.14,0,0,0-.68-.58c-.3-.06-.66.26-.51.53"/></g><path class="cls-1" d="M75.54,113.68c5.37-12.2,6.18-20.62,6.18-20.62h.58l10,2.28,10.13-1.89h.58s.5,8.44,5.4,20.83,1,22.31-16.78,22h-.2C73.68,135.93,70.2,125.83,75.54,113.68Z"/><g class="cls-30"><ellipse class="cls-11" cx="91.59" cy="135.57" rx="23.88" ry="11.7" transform="translate(-45.68 224.59) rotate(-88.92)"/><ellipse class="cls-12" cx="106.04" cy="105.44" rx="3.21" ry="5.15" transform="translate(-1.39 209.47) rotate(-88.92)"/><ellipse class="cls-12" cx="78.15" cy="100.38" rx="3.21" ry="5.15" transform="matrix(0.02, -1, 1, 0.02, -23.69, 176.62)"/><ellipse class="cls-12" cx="107.44" cy="98.87" rx="3.21" ry="5.15" transform="translate(6.56 204.43) rotate(-88.92)"/><ellipse class="cls-31" cx="92.44" cy="90.87" rx="7.98" ry="14.62" transform="translate(-0.16 181.58) rotate(-88.92)"/></g><ellipse class="cls-16" cx="92.37" cy="94.19" rx="3.24" ry="8.19" transform="matrix(0.02, -1, 1, 0.02, -3.54, 184.77)"/><path class="cls-14" d="M79.14,65a11.93,11.93,0,0,0-9.92-.65c-5.76,2-5.06,4.76-2.94,8.43s9.13,12.53,18.39,2.65C84.67,75.41,83.68,66.33,79.14,65Z"/><path class="cls-11" d="M79.54,67.77a9.71,9.71,0,0,0-8.06-.37c-4.72,1.7-4.2,3.89-2.52,6.8s7.25,9.93,14.93,1.86C83.89,76.06,83.21,68.79,79.54,67.77Z"/><circle class="cls-17" cx="79.6" cy="72.12" r="3.86" transform="translate(-4.32 139.16) rotate(-80.79)"/><path class="cls-14" d="M106.7,65.5a12,12,0,0,1,9.94-.28c5.68,2.24,4.88,5,2.62,8.54s-9.6,12.18-18.48,2C100.78,75.72,102.12,66.68,106.7,65.5Z"/><path class="cls-11" d="M106.19,68.27a9.75,9.75,0,0,1,8.08-.07c4.65,1.88,4,4,2.26,6.9s-7.62,9.65-15,1.3C101.53,76.4,102.49,69.15,106.19,68.27Z"/><circle class="cls-17" cx="105.97" cy="72.61" r="3.86" transform="translate(-6.22 10.04) rotate(-5.27)"/><circle class="cls-2" cx="92.7" cy="77.15" r="15.71" transform="matrix(0.11, -0.99, 0.99, 0.11, 5.55, 160.51)"/><path class="cls-2" d="M74.14,89.48a6.73,6.73,0,0,1-1.36-4.09c.09-4.3,4.48-7.71,9.82-7.6,4.52.08,8.25,2.65,9.25,6,.24,0,.48,0,.72,0s.46,0,.69,0c1.12-3.35,4.95-5.78,9.47-5.7,5.34.11,9.6,3.68,9.52,8A6.55,6.55,0,0,1,110.89,90a7.74,7.74,0,0,1-4.61,3.19,11.7,11.7,0,0,1-3.84.57H102a15,15,0,0,1-2.57-.28,13.26,13.26,0,0,1-14.15-.27,15.47,15.47,0,0,1-2.59.19l-.24,0h-.18a11.58,11.58,0,0,1-3.92-.76A7.79,7.79,0,0,1,74.14,89.48Z"/><g class="cls-32"><circle class="cls-16" cx="92.41" cy="92.56" r="12.71"/></g><ellipse class="cls-16" cx="92.39" cy="93.26" rx="1.68" ry="12.57" transform="translate(-2.6 183.88) rotate(-88.92)"/><ellipse class="cls-21" cx="103.11" cy="77.39" rx="5.38" ry="4.13" transform="translate(23.79 179.02) rotate(-88.92)"/><ellipse class="cls-21" cx="82.2" cy="76.99" rx="5.38" ry="4.13" transform="translate(3.66 157.72) rotate(-88.92)"/><path class="cls-24" d="M105.56,75.41a1.62,1.62,0,0,0,1.57-.89,2,2,0,0,1-.7,2,.49.49,0,0,1-.31.14.46.46,0,0,1-.38-.32,1.09,1.09,0,0,1,0-.83l.11.24"/><path class="cls-24" d="M105.74,76.8a1.66,1.66,0,0,0,1.58-.89,2,2,0,0,1-.71,2,.52.52,0,0,1-.31.14.48.48,0,0,1-.37-.33,1,1,0,0,1,0-.82l.1.23"/><path class="cls-24" d="M79.73,74.92A1.6,1.6,0,0,1,78.2,74a2,2,0,0,0,.62,2,.48.48,0,0,0,.31.15.45.45,0,0,0,.39-.31,1.06,1.06,0,0,0,0-.82l-.11.23"/><path class="cls-24" d="M79.5,76.3a1.62,1.62,0,0,1-1.54-1,2,2,0,0,0,.63,2,.48.48,0,0,0,.3.15.46.46,0,0,0,.39-.31,1.06,1.06,0,0,0,0-.82l-.11.23"/><ellipse class="cls-6" cx="82.18" cy="77.78" rx="4.59" ry="3.51" transform="translate(2.87 158.48) rotate(-88.92)"/><ellipse cx="82.18" cy="77.78" rx="3.5" ry="2.67" transform="translate(2.87 158.48) rotate(-88.92)"/><ellipse class="cls-6" cx="83.63" cy="75.46" rx="1.17" ry="0.98" transform="translate(6.6 157.65) rotate(-88.92)"/><path class="cls-24" d="M105.64,73.11a5.13,5.13,0,0,0-2.48-.65,6,6,0,0,0-1.2.23l-.65.22a4.22,4.22,0,0,1-.71.24,4.56,4.56,0,0,1,.4-.67,4.2,4.2,0,0,1,.58-.53,2.86,2.86,0,0,1,1.53-.55A2.51,2.51,0,0,1,105.64,73.11Z"/><path class="cls-24" d="M79.76,72.62A2.51,2.51,0,0,1,82.35,71a2.83,2.83,0,0,1,1.51.61,4.08,4.08,0,0,1,.55.55,3.8,3.8,0,0,1,.38.68,5.69,5.69,0,0,1-.7-.26l-.64-.24a5.52,5.52,0,0,0-1.19-.28A5.13,5.13,0,0,0,79.76,72.62Z"/><ellipse class="cls-6" cx="103.18" cy="78.17" rx="4.59" ry="3.51" transform="translate(23.08 179.86) rotate(-88.92)"/><ellipse cx="103.18" cy="78.17" rx="3.5" ry="2.67" transform="translate(23.08 179.86) rotate(-88.92)"/><ellipse class="cls-6" cx="104.63" cy="75.86" rx="1.17" ry="0.98" transform="translate(26.81 179.03) rotate(-88.92)"/><path class="cls-2" d="M108.69,84.62c0-1.88-2-3.45-4.51-3.5a5.28,5.28,0,0,0-3.6,1.23"/><path class="cls-2" d="M84.73,81.78a5.46,5.46,0,0,0-3.25-1.09c-2.52,0-4.59,1.44-4.63,3.33"/><path class="cls-3" d="M98.84,89a13.27,13.27,0,0,1-12.72-.59,6.37,6.37,0,0,0,6.29,5.14C98.31,93.66,98.84,89,98.84,89Z"/><g class="cls-33"><ellipse class="cls-20" cx="92.39" cy="94.87" rx="2.48" ry="4.26" transform="translate(-4.21 185.45) rotate(-88.92)"/><ellipse class="cls-6" cx="92.49" cy="89.33" rx="2.6" ry="4.36" transform="translate(1.43 180.12) rotate(-88.92)"/></g><ellipse class="cls-25" cx="92.54" cy="85.21" rx="5.42" ry="9.05" transform="translate(5.61 176.13) rotate(-88.92)"/><ellipse class="cls-12" cx="92.59" cy="83.05" rx="2.84" ry="5.5" transform="translate(7.81 174.05) rotate(-88.92)"/><ellipse class="cls-26" cx="94.28" cy="81.36" rx="0.65" ry="1.31" transform="translate(11.15 174.09) rotate(-88.92)"/><path class="cls-24" d="M106.35,76.14s-.81-2.53-3.24-2.58a3.15,3.15,0,0,0-2.8,2s1.37-1.56,2.86-1.44a4.29,4.29,0,0,1,3.53,3.75A4.38,4.38,0,0,0,106.35,76.14Z"/><path class="cls-24" d="M79.09,75.63s.9-2.5,3.33-2.46a3.16,3.16,0,0,1,2.73,2.1s-1.31-1.61-2.8-1.55a4.31,4.31,0,0,0-3.67,3.62A4.27,4.27,0,0,1,79.09,75.63Z"/><path class="cls-34" d="M107.39,82.21a4.32,4.32,0,0,1-5.68.74"/><path class="cls-34" d="M77.82,81.65a4.32,4.32,0,0,0,5.65,1"/><path class="cls-24" d="M81.3,64.68a11.1,11.1,0,0,1,4.6-4.8,1.89,1.89,0,0,1,.37-.32L88,58.36l.6-.4a2.17,2.17,0,0,1,.56-.3A4.73,4.73,0,0,0,90,57.5c.27-.13.43-.41.63-.62a1.68,1.68,0,0,1,2.64.58,10.26,10.26,0,0,1,7.55,3.1h0a11.19,11.19,0,0,1,3.77,4.55,2.05,2.05,0,0,1,.12,1.86,2.12,2.12,0,0,1-1.62.77c-.81.1-1.83,0-2.15-.71a.8.8,0,0,1-.59.89,1.93,1.93,0,0,1-1.16-.1,6.59,6.59,0,0,1-2.47-1.55,1,1,0,0,1-.38.15c-.66.11-1.23-.44-1.63-1a9.51,9.51,0,0,1-1.44-3,4.81,4.81,0,0,1-3.07,3,2,2,0,0,1-.49.06,6.68,6.68,0,0,1-3.13,2.09,2,2,0,0,1-1.17.06.8.8,0,0,1-.55-.92c-.35.74-1.38.77-2.18.63a2.1,2.1,0,0,1-1.59-.82A2.07,2.07,0,0,1,81.3,64.68Z"/><path class="cls-34" d="M98.19,68.85a16.3,16.3,0,0,1-10.38-.2"/><path class="cls-34" d="M96.48,70.25a11,11,0,0,1-7-.14"/><path class="cls-1" d="M100.43,115a39.89,39.89,0,0,0-.87,9,77.48,77.48,0,0,1-1.18,12c-2.53,3.35-.11,5.71-.11,5.71,3.89,5.32,12,2.87,11.64-1.55s-4-3.2-4-3.2a108.38,108.38,0,0,0,3.21-20Z"/><g class="cls-35"><path class="cls-12" d="M110.82,130.48a14.51,14.51,0,0,1-13.66-1.35,31.16,31.16,0,0,0-4.47,11.73c-.55,3.47-.31,7.5,2.34,9.8a12,12,0,0,0,4.8,2.17c3,.85,6.32,1.59,9.18.31,2.49-1.12,4.11-3.57,5.26-6a18,18,0,0,0,1.92-8.39,9.94,9.94,0,0,0-3.75-7.53l.77.63"/></g><path class="cls-36" d="M98,103.37c.36.79.88,2,.24,2.78s-2,.34-2.83,0a.26.26,0,0,0-.36.1,2.4,2.4,0,0,1-4.38-.12.28.28,0,0,0-.45-.12,3.43,3.43,0,0,1-2.12,1.12A1.56,1.56,0,0,1,86.5,106,.27.27,0,0,0,86,106a1.38,1.38,0,0,1-2.33.08c-.55-1,.18-2.12.91-2.73.26-.22-.12-.6-.38-.38-1,.84-1.81,2.57-.76,3.69a2,2,0,0,0,3-.39l-.48-.06a2.06,2.06,0,0,0,1.83,1.46,3.81,3.81,0,0,0,2.82-1.27l-.45-.12a2.94,2.94,0,0,0,5.36.25l-.37.09c1,.49,2.53,1,3.45,0s.35-2.44-.13-3.47c-.14-.31-.6,0-.46.27Z"/><path class="cls-1" d="M70.43,110.41l4.4,5.64A8.92,8.92,0,0,0,77,118.21a2.94,2.94,0,0,0,2.89.25,2.86,2.86,0,0,0,1.32-2.06,6.6,6.6,0,0,0-.17-2.5,23,23,0,0,0-.82-2.92,6,6,0,0,0-1.94-3,3.46,3.46,0,0,0-3.59-.21,6.15,6.15,0,0,0-1.31,1A4.41,4.41,0,0,0,71.77,111a1.63,1.63,0,0,1-.83-.66.05.05,0,0,0,0,0"/><path class="cls-12" d="M74.77,113.15a4.2,4.2,0,0,0,3.87-2.57c.66-1.73.06-3.66,0-5.52,0-.93.06-1.87-.07-2.79A3.14,3.14,0,0,0,77.19,100a1.7,1.7,0,0,0-2.37.66A2.7,2.7,0,0,0,70,101.79a2.15,2.15,0,0,0-3,2.71,8.12,8.12,0,0,0,1.17,1.65,13.88,13.88,0,0,1,1.39,3.06,6.9,6.9,0,0,0,2,2.61A6.07,6.07,0,0,0,74.77,113.15Z"/><ellipse class="cls-37" cx="72.95" cy="103.2" rx="1.4" ry="1.81" transform="translate(-15.12 12.55) rotate(-8.92)"/><ellipse class="cls-37" cx="76.32" cy="103.07" rx="1.4" ry="1.81" transform="translate(-3.7 2.84) rotate(-2.08)"/><ellipse class="cls-37" cx="69.81" cy="104.83" rx="1.4" ry="1.81" transform="translate(-43.35 49.54) rotate(-30.3)"/><ellipse class="cls-37" cx="74.47" cy="108.9" rx="2.41" ry="2.29" transform="translate(-15.98 12.86) rotate(-8.92)"/><circle class="cls-4" cx="101.02" cy="80.97" r="2.12"/><g class="cls-38"><path class="cls-39" d="M101.25,78.35c.38.66.73,1.34,1.06,2,.06.13.11.29,0,.39s-.11.06-.15.1a.39.39,0,0,0-.09.39,2.45,2.45,0,0,0,.24.58,14.36,14.36,0,0,1,.62,1.39c0,.11.09.26,0,.33a.18.18,0,0,1-.24,0,.54.54,0,0,1-.15-.21l-.89-2c-.06-.14-.13-.3,0-.43s.09-.1.12-.16a.46.46,0,0,0-.07-.39l-.92-1.75a.26.26,0,0,1,0-.17c0-.12.18-.15.3-.16"/></g><path class="cls-40" d="M98.54,81A2.49,2.49,0,1,1,101,83.45,2.49,2.49,0,0,1,98.54,81ZM99,81a2.06,2.06,0,1,0,2-2.06A2.05,2.05,0,0,0,99,81Z"/><path class="cls-41" d="M103.36,81A2.34,2.34,0,0,0,101,78.63"/><path class="cls-41" d="M98.9,81a2.09,2.09,0,0,0,2.06,2"/><circle class="cls-42" cx="103.35" cy="81.16" r="0.06"/><circle class="cls-42" cx="98.9" cy="80.87" r="0.06"/><circle class="cls-4" cx="84.39" cy="80.97" r="2.12"/><g class="cls-43"><path class="cls-39" d="M84.63,78.35c.37.66.73,1.34,1.06,2,0,.13.11.29,0,.39s-.1.06-.15.1a.39.39,0,0,0-.09.39,2.48,2.48,0,0,0,.25.58c.23.45.42.92.62,1.39,0,.11.08.26,0,.33a.18.18,0,0,1-.24,0,.43.43,0,0,1-.14-.21l-.9-2a.51.51,0,0,1-.05-.43c0-.06.09-.1.12-.16a.43.43,0,0,0-.07-.39l-.92-1.75a.26.26,0,0,1-.05-.17c0-.12.18-.15.3-.16"/></g><path class="cls-40" d="M81.91,81a2.49,2.49,0,1,1,2.49,2.48A2.5,2.5,0,0,1,81.91,81Zm.43,0a2.06,2.06,0,1,0,2.06-2.06A2.05,2.05,0,0,0,82.34,81Z"/><path class="cls-41" d="M86.73,81a2.34,2.34,0,0,0-2.34-2.34"/><path class="cls-41" d="M82.28,81a2.07,2.07,0,0,0,2,2"/><circle class="cls-42" cx="86.72" cy="81.16" r="0.06"/><circle class="cls-42" cx="82.28" cy="80.87" r="0.06"/><path class="cls-5" d="M86.61,80.56a.29.29,0,0,0,.16,0,14.68,14.68,0,0,1,11.82,0A.4.4,0,0,0,99,79.8a15.21,15.21,0,0,0-12.52,0,.4.4,0,0,0-.2.53A.39.39,0,0,0,86.61,80.56Z"/><g class="cls-44"><path class="cls-45" d="M99.65,80.81A12.94,12.94,0,0,0,92.58,79a14.11,14.11,0,0,0-7.52,2.1l2.36,1.48,11-.13Z"/></g><ellipse class="cls-42" cx="94.72" cy="78.85" rx="0.13" ry="1.77" transform="matrix(0.13, -0.99, 0.99, 0.13, 4.28, 162.58)"/><ellipse class="cls-42" cx="92.31" cy="78.67" rx="0.49" ry="0.11"/></svg>