<svg id="Layer_1" data-name="Layer 1" xmlns="http://www.w3.org/2000/svg" xmlns:xlink="http://www.w3.org/1999/xlink" viewBox="0 0 260 168"><defs><style>.cls-1{fill:#dda854;}.cls-2{fill:#e8ba67;}.cls-3{fill:#471e00;}.cls-4{fill:#c48a37;}.cls-5{fill:#190e01;}.cls-6{clip-path:url(#clip-path);}.cls-7{fill:#f7d19a;}.cls-8{fill:#301c00;}.cls-9{fill:#d19846;}.cls-10{fill:#e2af5d;}.cls-11{clip-path:url(#clip-path-2);}.cls-12{fill:#a06f20;}.cls-13{fill:#d69936;}.cls-14{clip-path:url(#clip-path-3);}.cls-15{fill:#ffd38d;}.cls-16{fill:#fff;}.cls-17{clip-path:url(#clip-path-4);}.cls-18{fill:#c41e1e;}.cls-19{fill:#7a3100;}.cls-20{fill:#93621b;}.cls-21{fill:#7a4609;}</style><clipPath id="clip-path"><circle class="cls-1" cx="149.5" cy="124.21" r="10.86"/></clipPath><clipPath id="clip-path-2"><path class="cls-2" d="M167.89,117.82c-.4,4.36-8.78,9.1-18.49,8.21s-17.08-7.08-16.68-11.44,8.6-7.18,18.31-6.28S168.29,113.46,167.89,117.82Z"/></clipPath><clipPath id="clip-path-3"><circle class="cls-2" cx="150.9" cy="109.68" r="15.6" transform="translate(21.77 244.31) rotate(-82.2)"/></clipPath><clipPath id="clip-path-4"><path class="cls-3" d="M145.16,122.64a4.93,4.93,0,0,1,4.51-2.71c3.34,0,4.16,3.36,4.16,3.36A12.75,12.75,0,0,0,145.16,122.64Z"/></clipPath></defs><path class="cls-4" d="M141.11,127.64s1.69,8.58,2.31,9.77a2.62,2.62,0,0,0,2.49,1.06,1.78,1.78,0,0,0,1.61-1.73c0-1.7.15-5.52.25-6.48.12-1.24-.81-4.54-4-5S141.11,127.64,141.11,127.64Z"/><path class="cls-5" d="M143.42,137.41l.49,5.49a1.79,1.79,0,0,0-2.21,1.43c-.62,1.93,4.6,2.82,6,.92s.1-2.68.1-2.68l-.22-5.61S146.39,138.55,143.42,137.41Z"/><path class="cls-4" d="M158.37,127.14s-1.21,8.66-1.76,9.88a2.63,2.63,0,0,1-2.43,1.19,1.77,1.77,0,0,1-1.7-1.64c-.14-1.69-.46-5.5-.61-6.45-.18-1.24.55-4.58,3.7-5.26S158.37,127.14,158.37,127.14Z"/><path class="cls-5" d="M156.61,137l-.19,5.5a1.8,1.8,0,0,1,2.29,1.31c.72,1.89-4.44,3.07-5.89,1.25s-.25-2.67-.25-2.67l-.08-5.61S153.71,138.32,156.61,137Z"/><circle class="cls-1" cx="149.5" cy="124.21" r="10.86"/><g class="cls-6"><ellipse class="cls-7" cx="149.5" cy="137.46" rx="5.77" ry="6.65"/><ellipse class="cls-8" cx="138.27" cy="125.31" rx="1.85" ry="1.1"/><ellipse class="cls-8" cx="137.98" cy="127.94" rx="1.85" ry="1.1"/><ellipse class="cls-8" cx="160.36" cy="124.21" rx="1.85" ry="1.1"/><ellipse class="cls-8" cx="160.36" cy="126.66" rx="1.85" ry="1.1"/><ellipse class="cls-9" cx="149.5" cy="120.47" rx="10" ry="7.13"/></g><path class="cls-10" d="M141.82,98.5a11.92,11.92,0,0,0-7.21-6.75c-5.69-2.08-6.88.46-7.56,4.61s-.9,15.38,12.43,13.64C139.48,110,144.44,102.4,141.82,98.5Z"/><path class="cls-7" d="M140.37,100.9a9.65,9.65,0,0,0-6-5.37c-4.69-1.67-5.67.34-6.22,3.63s-.7,12.19,10.28,10.85C138.47,110,142.54,104,140.37,100.9Z"/><path class="cls-10" d="M161.88,100.34A11.84,11.84,0,0,1,170.19,95c6-1,6.68,1.71,6.6,5.91s-1.92,15.28-14.71,11.14C162.08,112.07,158.58,103.7,161.88,100.34Z"/><path class="cls-7" d="M162.87,103a9.64,9.64,0,0,1,6.83-4.2c4.92-.79,5.51,1.37,5.45,4.71s-1.53,12.11-12.08,8.78C163.07,112.26,160.17,105.62,162.87,103Z"/><path class="cls-2" d="M167.89,117.82c-.4,4.36-8.78,9.1-18.49,8.21s-17.08-7.08-16.68-11.44,8.6-7.18,18.31-6.28S168.29,113.46,167.89,117.82Z"/><g class="cls-11"><path class="cls-12" d="M161.87,119.4c.25,5.52-5.59,7.26-12,6.67s-12-3.2-11.37-8.76c.49-4.25,6.34-7.23,12.78-6.64S161.68,115.13,161.87,119.4Z"/></g><circle class="cls-13" cx="137.62" cy="103.22" r="3.84"/><circle class="cls-13" cx="164.26" cy="105.67" r="3.84"/><circle class="cls-2" cx="150.9" cy="109.68" r="15.6" transform="translate(21.77 244.31) rotate(-82.2)"/><g class="cls-14"><ellipse class="cls-12" cx="150.14" cy="119.75" rx="6.91" ry="11.68" transform="translate(17.16 258.31) rotate(-84.75)"/></g><ellipse class="cls-15" cx="140.6" cy="108.78" rx="5.34" ry="4.1" transform="translate(19.42 238.84) rotate(-84.75)"/><ellipse class="cls-15" cx="161.29" cy="110.68" rx="5.34" ry="4.1" transform="matrix(0.09, -1, 1, 0.09, 36.32, 261.16)"/><ellipse class="cls-16" cx="140.44" cy="109.54" rx="4.56" ry="3.49" transform="translate(18.51 239.38) rotate(-84.75)"/><ellipse cx="140.44" cy="109.54" rx="3.47" ry="2.66" transform="translate(18.51 239.38) rotate(-84.75)"/><ellipse class="cls-16" cx="139.27" cy="107.1" rx="1.16" ry="0.97" transform="translate(19.88 235.99) rotate(-84.75)"/><path class="cls-3" d="M145.16,122.64a4.93,4.93,0,0,1,4.51-2.71c3.34,0,4.16,3.36,4.16,3.36A12.75,12.75,0,0,0,145.16,122.64Z"/><g class="cls-17"><ellipse class="cls-18" cx="149.34" cy="123.85" rx="3.26" ry="2.58"/></g><ellipse class="cls-16" cx="161.21" cy="111.45" rx="4.56" ry="3.49" transform="translate(35.49 261.8) rotate(-84.75)"/><ellipse cx="161.21" cy="111.45" rx="3.47" ry="2.66" transform="translate(35.49 261.8) rotate(-84.75)"/><ellipse class="cls-16" cx="160.04" cy="109.01" rx="1.16" ry="0.97" transform="translate(36.85 258.41) rotate(-84.75)"/><path class="cls-19" d="M158.34,96c.6,1.3-2.66-.24-2.66-.24a1.34,1.34,0,0,0,.51,2.07,2.7,2.7,0,0,1-2.95-1.91c-1.87,1.7-1,5.45-1,5.45-3.25-1.16-1.94-6.11-1.94-6.11-1.11.21-2.84,2.31-2.84,2.31A6,6,0,0,1,148.8,95l-1.53.48c-1.38.58-2.39.56-2.59-.39,0,0,1.12-2.5,6.77-2.25a2.59,2.59,0,0,0-.55-2.32s2.41.59,2.64,2.51C153.54,93,157.1,93.27,158.34,96Z"/><ellipse class="cls-20" cx="150.27" cy="116.61" rx="4.51" ry="7.53" transform="translate(20.41 255.58) rotate(-84.75)"/><ellipse class="cls-8" cx="150.43" cy="114.82" rx="2.36" ry="4.58" transform="translate(22.34 254.12) rotate(-84.75)"/><ellipse class="cls-21" cx="149.19" cy="113.27" rx="0.54" ry="1.09" transform="translate(22.75 251.47) rotate(-84.75)"/><path class="cls-19" d="M138.74,103.22a24.89,24.89,0,0,1,2.91-.14A9.73,9.73,0,0,0,143,103a3.37,3.37,0,0,0,1.32-.46,1.86,1.86,0,0,1-1.05,1.24,3.76,3.76,0,0,1-1.58.37,5.05,5.05,0,0,1-1.55-.22A4.05,4.05,0,0,1,138.74,103.22Z"/><path class="cls-19" d="M164.17,106.12a3.3,3.3,0,0,1-1.49.16,4.6,4.6,0,0,1-1.44-.39,3.22,3.22,0,0,1-1.88-2.28c.45.27.81.52,1.19.73s.75.41,1.15.59C162.48,105.3,163.28,105.62,164.17,106.12Z"/><ellipse class="cls-13" cx="134.85" cy="114.25" rx="0.58" ry="1.13" transform="translate(8.74 238.09) rotate(-84.75)"/><ellipse class="cls-13" cx="165.38" cy="117.06" rx="0.58" ry="1.13" transform="translate(33.69 271.04) rotate(-84.75)"/><path class="cls-1" d="M139.34,129.53s.86,8.7,1.36,9.94a2.6,2.6,0,0,0,2.37,1.3,1.78,1.78,0,0,0,1.77-1.57c.21-1.69.69-5.48.87-6.43.24-1.22-.36-4.6-3.47-5.4S139.34,129.53,139.34,129.53Z"/><path class="cls-8" d="M140.7,139.47l0,5.51a1.8,1.8,0,0,0-2.35,1.22c-.79,1.85,4.31,3.24,5.84,1.48s.36-2.65.36-2.65l.32-5.61S143.54,140.89,140.7,139.47Z"/><path class="cls-1" d="M159.91,129.53s-.24,8.74-.66,10A2.64,2.64,0,0,1,157,141a1.8,1.8,0,0,1-1.88-1.44c-.33-1.67-1.07-5.43-1.32-6.36-.32-1.2,0-4.61,3.09-5.63S159.91,129.53,159.91,129.53Z"/><path class="cls-8" d="M159.25,139.55l.43,5.49a1.8,1.8,0,0,1,2.43,1.05c.92,1.79-4.08,3.54-5.73,1.89s-.54-2.63-.54-2.63l-.71-5.56S156.52,141.16,159.25,139.55Z"/></svg>