<svg id="Layer_1" data-name="Layer 1" xmlns="http://www.w3.org/2000/svg" xmlns:xlink="http://www.w3.org/1999/xlink" viewBox="0 0 260 168"><defs><style>.cls-1{fill:#dda854;}.cls-2{fill:#e8ba67;}.cls-3{fill:#471e00;}.cls-4{fill:#d69936;}.cls-5{fill:#c48a37;}.cls-6{fill:#190e01;}.cls-7{clip-path:url(#clip-path);}.cls-8{fill:#f7d19a;}.cls-9{fill:#301c00;}.cls-10{fill:#d19846;}.cls-11{fill:#e2af5d;}.cls-12{clip-path:url(#clip-path-2);}.cls-13{fill:#a06f20;}.cls-14{clip-path:url(#clip-path-3);}.cls-15{clip-path:url(#clip-path-4);}.cls-16{fill:#c41e1e;}.cls-17{fill:#fff;}.cls-18{fill:#ffd38d;}.cls-19{fill:#7a3100;}.cls-20{fill:#93621b;}.cls-21{fill:#7a4609;}</style><clipPath id="clip-path"><circle class="cls-1" cx="119.43" cy="113.97" r="6.62"/></clipPath><clipPath id="clip-path-2"><path class="cls-2" d="M130.2,109.07c0,2.67-4.82,6-10.77,6s-10.76-3.34-10.76-6,4.82-4.84,10.76-4.84S130.2,106.39,130.2,109.07Z"/></clipPath><clipPath id="clip-path-3"><circle class="cls-2" cx="119.43" cy="105.07" r="9.52"/></clipPath><clipPath id="clip-path-4"><path class="cls-3" d="M116.2,111.18a6.74,6.74,0,0,0,6.47-.18,3.24,3.24,0,0,1-3.25,2.55C116.43,113.55,116.2,111.18,116.2,111.18Z"/></clipPath></defs><ellipse class="cls-4" cx="131.53" cy="107.03" rx="0.69" ry="0.36"/><path class="cls-5" d="M114.32,116.07a60.64,60.64,0,0,0,1.41,6,1.59,1.59,0,0,0,1.52.65,1.1,1.1,0,0,0,1-1.06c0-1,.09-3.37.15-4a3,3,0,0,0-2.43-3.08C114,114.28,114.32,116.07,114.32,116.07Z"/><path class="cls-6" d="M115.73,122l.3,3.35a1.09,1.09,0,0,0-1.35.87c-.38,1.18,2.8,1.72,3.63.56s.06-1.63.06-1.63l-.14-3.42S117.54,122.71,115.73,122Z"/><path class="cls-5" d="M124.85,115.76a60.59,60.59,0,0,1-1.08,6,1.61,1.61,0,0,1-1.48.73,1.08,1.08,0,0,1-1-1c-.08-1-.28-3.36-.37-3.94a3,3,0,0,1,2.26-3.2A1.25,1.25,0,0,1,124.85,115.76Z"/><path class="cls-6" d="M123.77,121.78l-.11,3.36a1.09,1.09,0,0,1,1.39.8c.44,1.15-2.7,1.87-3.59.76s-.15-1.63-.15-1.63l0-3.42S122,122.57,123.77,121.78Z"/><circle class="cls-1" cx="119.43" cy="113.97" r="6.62"/><g class="cls-7"><ellipse class="cls-8" cx="119.43" cy="122.05" rx="3.52" ry="4.06"/><ellipse class="cls-9" cx="112.59" cy="114.64" rx="1.13" ry="0.67"/><ellipse class="cls-9" cx="112.41" cy="116.24" rx="1.13" ry="0.67"/><ellipse class="cls-9" cx="126.06" cy="113.97" rx="1.13" ry="0.67"/><ellipse class="cls-9" cx="126.06" cy="115.46" rx="1.13" ry="0.67"/><ellipse class="cls-10" cx="119.43" cy="111.69" rx="6.1" ry="4.35"/></g><path class="cls-11" d="M113.29,98.79a7.25,7.25,0,0,0-4.75-3.7c-3.57-1-4.15.66-4.34,3.22s.31,9.39,8.32,7.59C112.52,105.9,115.1,101,113.29,98.79Z"/><path class="cls-8" d="M112.54,100.32a5.92,5.92,0,0,0-3.91-2.93c-2.95-.75-3.43.53-3.58,2.56s.26,7.44,6.85,6C111.9,106,114,102.08,112.54,100.32Z"/><path class="cls-11" d="M125.58,98.79a7.25,7.25,0,0,1,4.75-3.7c3.57-1,4.15.66,4.34,3.22s-.31,9.39-8.32,7.59C126.35,105.9,123.76,101,125.58,98.79Z"/><path class="cls-8" d="M126.32,100.32a6,6,0,0,1,3.92-2.93c2.94-.75,3.42.53,3.58,2.56s-.26,7.44-6.85,6C127,106,124.83,102.08,126.32,100.32Z"/><path class="cls-2" d="M130.2,109.07c0,2.67-4.82,6-10.77,6s-10.76-3.34-10.76-6,4.82-4.84,10.76-4.84S130.2,106.39,130.2,109.07Z"/><g class="cls-12"><path class="cls-13" d="M126.64,110.36c.46,3.34-3,4.72-6.94,4.72s-7.47-1.27-7.39-4.68c.06-2.61,3.45-4.75,7.39-4.75S126.28,107.78,126.64,110.36Z"/></g><circle class="cls-4" cx="111.01" cy="101.89" r="2.34"/><circle class="cls-4" cx="127.32" cy="101.89" r="2.34"/><circle class="cls-2" cx="119.43" cy="105.07" r="9.52"/><g class="cls-14"><ellipse class="cls-13" cx="119.53" cy="111.23" rx="7.12" ry="4.22"/></g><path class="cls-3" d="M116.2,111.18a6.74,6.74,0,0,0,6.47-.18,3.24,3.24,0,0,1-3.25,2.55C116.43,113.55,116.2,111.18,116.2,111.18Z"/><g class="cls-15"><ellipse class="cls-16" cx="119.42" cy="114.22" rx="2.16" ry="1.26"/><ellipse class="cls-17" cx="119.42" cy="111.4" rx="2.21" ry="1.32"/></g><ellipse class="cls-18" cx="113.13" cy="105.1" rx="2.5" ry="3.26"/><ellipse class="cls-18" cx="125.79" cy="105.1" rx="2.5" ry="3.26"/><ellipse class="cls-17" cx="113.07" cy="105.57" rx="2.13" ry="2.78"/><ellipse cx="113.07" cy="105.57" rx="1.62" ry="2.12"/><ellipse class="cls-17" cx="112.23" cy="104.15" rx="0.59" ry="0.71"/><ellipse class="cls-17" cx="125.79" cy="105.57" rx="2.13" ry="2.78"/><ellipse cx="125.79" cy="105.57" rx="1.62" ry="2.12"/><ellipse class="cls-17" cx="124.95" cy="104.15" rx="0.59" ry="0.71"/><path class="cls-19" d="M123.19,96.32c.43.76-1.63,0-1.63,0a.83.83,0,0,0,.42,1.24,1.64,1.64,0,0,1-1.89-1c-1,1.14-.34,3.37-.34,3.37-2-.53-1.51-3.61-1.51-3.61-.67.19-1.6,1.57-1.6,1.57a3.63,3.63,0,0,1,.7-1.61l-.9.37c-.81.43-1.43.48-1.6-.09,0,0,.54-1.58,4-1.74a1.59,1.59,0,0,0-.46-1.38s1.49.22,1.74,1.38A3.71,3.71,0,0,1,123.19,96.32Z"/><ellipse class="cls-20" cx="119.43" cy="109.31" rx="4.59" ry="2.75"/><ellipse class="cls-9" cx="119.43" cy="108.22" rx="2.79" ry="1.44"/><ellipse class="cls-21" cx="118.59" cy="107.34" rx="0.66" ry="0.33"/><path class="cls-19" d="M111.65,102.48a1.51,1.51,0,0,1,1.55-1,1.76,1.76,0,0,1,.92.35,1.72,1.72,0,0,1,.57.74l-.81-.29a3.43,3.43,0,0,0-.73-.16A3.14,3.14,0,0,0,111.65,102.48Z"/><path class="cls-19" d="M127.32,102.48a3.15,3.15,0,0,0-1.51-.37,3.35,3.35,0,0,0-.72.16l-.82.29a1.83,1.83,0,0,1,.58-.74,1.73,1.73,0,0,1,.92-.35A1.52,1.52,0,0,1,127.32,102.48Z"/><ellipse class="cls-4" cx="109.94" cy="108.74" rx="0.69" ry="0.36"/><path class="cls-1" d="M113.24,117.21a60.73,60.73,0,0,0,.83,6.07,1.59,1.59,0,0,0,1.45.79,1.1,1.1,0,0,0,1.08-1c.12-1,.41-3.34.53-3.92A3,3,0,0,0,115,115.9C113.11,115.4,113.24,117.21,113.24,117.21Z"/><path class="cls-9" d="M114.07,123.28l0,3.36a1.1,1.1,0,0,0-1.43.74c-.48,1.13,2.63,2,3.56.91s.22-1.62.22-1.62l.2-3.42S115.8,124.14,114.07,123.28Z"/><path class="cls-1" d="M125.78,117.22a59.07,59.07,0,0,1-.4,6.1,1.57,1.57,0,0,1-1.39.89,1.07,1.07,0,0,1-1.14-.87c-.2-1-.65-3.31-.8-3.88a3,3,0,0,1,1.88-3.43A1.24,1.24,0,0,1,125.78,117.22Z"/><path class="cls-9" d="M125.38,123.32l.26,3.35a1.1,1.1,0,0,1,1.48.64c.57,1.1-2.48,2.16-3.49,1.16s-.33-1.6-.33-1.6l-.43-3.4S123.71,124.31,125.38,123.32Z"/></svg>