<svg id="Layer_3" data-name="Layer 3" xmlns="http://www.w3.org/2000/svg" xmlns:xlink="http://www.w3.org/1999/xlink" viewBox="0 0 260 168"><defs><style>.cls-1{fill:#ddab5b;}.cls-2{fill:#ce9d55;}.cls-3{fill:#7a3100;}.cls-4{fill:#cc9648;}.cls-5{clip-path:url(#clip-path);}.cls-6{fill:#301c00;}.cls-7{clip-path:url(#clip-path-2);}.cls-8{clip-path:url(#clip-path-3);}.cls-9{clip-path:url(#clip-path-4);}.cls-10{fill:#e8ba67;}.cls-11{clip-path:url(#clip-path-5);}.cls-12{fill:#662a01;}.cls-13{clip-path:url(#clip-path-6);}.cls-14{clip-path:url(#clip-path-7);}.cls-15{clip-path:url(#clip-path-8);}.cls-16{clip-path:url(#clip-path-9);}.cls-17{clip-path:url(#clip-path-10);}.cls-18{clip-path:url(#clip-path-11);}.cls-19{clip-path:url(#clip-path-12);}.cls-20{clip-path:url(#clip-path-13);}</style><clipPath id="clip-path"><path class="cls-1" d="M198.25,99.1c-.38.38-3.05,7.32,4.19,20.86s5.38,15.39,5.38,15.39a3.55,3.55,0,0,0-2.56,1.17c-1.14,1.23.44,8.47,7.41,7.5S216,133.65,214,128.2s1.51-6.87.61-15.11S209.47,88,198.25,99.1Z"/></clipPath><clipPath id="clip-path-2"><path class="cls-1" d="M195.52,108.43c0-.54-2.65-7.48-17.1-12.65S164.1,88,164.1,88s-1.75-1.65-1.73-3.32-3.18-5.25-7.69.14,4.5,9.92,9.63,12.64,3.49,6.1,9.69,11.61S194.66,124.18,195.52,108.43Z"/></clipPath><clipPath id="clip-path-3"><path class="cls-4" d="M227,114.53c-.49.34-4.45,7,1.86,21.19s4,15.87,4,15.87a4.52,4.52,0,0,0-3.05.91c-1.45,1.11-.66,8.49,7.32,8.21s5.16-10,3.68-15.64,2.65-6.69,2.76-15S241.14,104.58,227,114.53Z"/></clipPath><clipPath id="clip-path-4"><path class="cls-1" d="M177.05,91.6s-3.35,11.69,0,17.94,2.14,7.3,14,16.62,22,18.23,34,17.78,23.95-11.38,17.79-25.61-26.66-26.84-37.48-29.61S180.16,81.56,177.05,91.6Z"/></clipPath><clipPath id="clip-path-5"><path class="cls-3" d="M194.46,42.61c8.25,1.42,11.65,8.71,11.65,8.71,6.72,3.25,5.4,12.81,5.4,12.81a17.06,17.06,0,0,1,4.94,17.35c5.35,15-7.94,12.15-7.94,12.15-9,7.61-21.41-1.06-21.41-1.06a17.38,17.38,0,0,1-13-5.5c-5.53-6-.35-11.94-.35-11.94-6.1-6.23,0-11.8,0-11.8-2.18-2-1.9-5.39,3-11.7C176.74,51.63,180.79,40.26,194.46,42.61Z"/></clipPath><clipPath id="clip-path-6"><path class="cls-2" d="M208.77,124.05c-.48.34-4.44,7,1.86,21.19s4,15.86,4,15.86a4.57,4.57,0,0,0-3.05.92c-1.44,1.11-.66,8.49,7.33,8.21s5.16-10,3.68-15.64,2.65-6.69,2.76-15S222.93,114.1,208.77,124.05Z"/></clipPath><clipPath id="clip-path-7"><path class="cls-3" d="M237.15,128c-1.61-1.14-3.94.54-4.28,2.48s.54,3.85,1.17,5.71c1,3.09,1.36,6.36,2.35,9.46s2.81,6.15,5.78,7.48l.23-1.13a38.83,38.83,0,0,0,18.71,13.08,18.5,18.5,0,0,0-5.62-21.68l5,1.62a22.1,22.1,0,0,0-10.76-9.09,10.27,10.27,0,0,1,4.13.19,36.53,36.53,0,0,0-15-7.39Z"/></clipPath><clipPath id="clip-path-8"><path class="cls-1" d="M76.73,111.77c.29.28,2.26,5.41-3.09,15.4s-4,11.37-4,11.37a2.66,2.66,0,0,1,1.89.86c.84.91-.33,6.26-5.47,5.55s-2.46-7.66-1-11.69-1.11-5.08-.45-11.16S68.45,103.57,76.73,111.77Z"/></clipPath><clipPath id="clip-path-9"><path class="cls-1" d="M81.4,115.39c.31.26,2.69,5.21-1.81,15.61s-3,11.65-3,11.65a2.63,2.63,0,0,1,2,.71c.91.83.19,6.26-5,6s-3.08-7.43-2-11.57-1.53-5-1.37-11.08S72.47,107.9,81.4,115.39Z"/></clipPath><clipPath id="clip-path-10"><path class="cls-4" d="M55.51,123.17c.36.25,3.29,5.16-1.37,15.65s-2.92,11.71-2.92,11.71a3.37,3.37,0,0,1,2.25.68c1.07.82.48,6.26-5.41,6.06s-3.81-7.39-2.72-11.55-2-4.94-2-11.07S45.06,115.82,55.51,123.17Z"/></clipPath><clipPath id="clip-path-11"><path class="cls-1" d="M82.3,108.51s2,8.12,0,12.47-1.26,5.07-8.23,11.55-13,12.67-20,12.35S39.93,137,43.55,127.09s15.71-18.65,22.08-20.58S80.46,101.53,82.3,108.51Z"/></clipPath><clipPath id="clip-path-12"><path class="cls-2" d="M69,130.2c.36.25,3.29,5.16-1.37,15.64s-2.92,11.72-2.92,11.72a3.33,3.33,0,0,1,2.25.67c1.07.82.48,6.27-5.41,6.07s-3.81-7.39-2.72-11.55-1.95-4.94-2-11.07S58.51,122.85,69,130.2Z"/></clipPath><clipPath id="clip-path-13"><path class="cls-3" d="M46.73,135.33c1-.7,2.43.34,2.64,1.53a7.35,7.35,0,0,1-.72,3.53c-.63,1.9-.84,3.92-1.45,5.83a7.27,7.27,0,0,1-3.57,4.62l-.14-.69a24,24,0,0,1-11.55,8.07,11.42,11.42,0,0,1,3.47-13.38l-3.08,1a13.63,13.63,0,0,1,6.64-5.6,6.21,6.21,0,0,0-2.54.11,22.46,22.46,0,0,1,9.27-4.56Z"/></clipPath></defs><path class="cls-1" d="M198.25,99.1c-.38.38-3.05,7.32,4.19,20.86s5.38,15.39,5.38,15.39a3.55,3.55,0,0,0-2.56,1.17c-1.14,1.23.44,8.47,7.41,7.5S216,133.65,214,128.2s1.51-6.87.61-15.11S209.47,88,198.25,99.1Z"/><g class="cls-5"><path class="cls-6" d="M201.26,121.16a1.94,1.94,0,0,0,.83,1.28A11.23,11.23,0,0,0,210,125.1a9.61,9.61,0,0,0,7.05-4.11,79.05,79.05,0,0,1,5.39,14.24c.84,3.1,1.5,6.41.76,9.45a6.48,6.48,0,0,1-1,2.34,7.17,7.17,0,0,1-1.64,1.52,23.48,23.48,0,0,1-5.67,3.08,9.73,9.73,0,0,1-3.59.74,11.9,11.9,0,0,1-3.35-.69,13.6,13.6,0,0,1-4.51-2.16c-2.15-1.72-3.4-4.51-4.4-7.23a30.91,30.91,0,0,1-2-7.9,13.66,13.66,0,0,1,1.37-7.76,15.31,15.31,0,0,1,2.78-3.45l-.47.69"/></g><path class="cls-1" d="M195.52,108.43c0-.54-2.65-7.48-17.1-12.65S164.1,88,164.1,88s-1.75-1.65-1.73-3.32-3.18-5.25-7.69.14,4.5,9.92,9.63,12.64,3.49,6.1,9.69,11.61S194.66,124.18,195.52,108.43Z"/><g class="cls-7"><path class="cls-6" d="M178.48,94.1a1.91,1.91,0,0,0-1.47-.39,11.18,11.18,0,0,0-7.65,3.34,9.63,9.63,0,0,0-2.47,7.78,79.09,79.09,0,0,1-13.55-6.94c-2.71-1.73-5.42-3.74-6.91-6.49a6.64,6.64,0,0,1-.82-2.41,7.22,7.22,0,0,1,.19-2.23,23.69,23.69,0,0,1,2.14-6.09,9.9,9.9,0,0,1,2.16-3A12,12,0,0,1,153,76a13.78,13.78,0,0,1,4.8-1.43c2.75-.16,5.55,1.06,8.12,2.41a31.1,31.1,0,0,1,6.76,4.53,13.81,13.81,0,0,1,4.2,6.67,15.75,15.75,0,0,1,.25,4.43l-.11-.83"/></g><path class="cls-4" d="M227,114.53c-.49.34-4.45,7,1.86,21.19s4,15.87,4,15.87a4.52,4.52,0,0,0-3.05.91c-1.45,1.11-.66,8.49,7.32,8.21s5.16-10,3.68-15.64,2.65-6.69,2.76-15S241.14,104.58,227,114.53Z"/><g class="cls-8"><path class="cls-6" d="M227.35,136.81a1.81,1.81,0,0,0,.77,1.35,13.12,13.12,0,0,0,8.55,3.43,11.86,11.86,0,0,0,8.51-3.4,70.44,70.44,0,0,1,4.11,14.72c.53,3.17.81,6.54-.43,9.5a6.75,6.75,0,0,1-1.46,2.22,8.6,8.6,0,0,1-2.05,1.36,29.69,29.69,0,0,1-6.82,2.5,12.36,12.36,0,0,1-4.14.39,14.39,14.39,0,0,1-3.68-1,15.23,15.23,0,0,1-4.79-2.59c-2.18-1.93-3.22-4.83-4-7.65a27.22,27.22,0,0,1-1.14-8.06,13,13,0,0,1,2.6-7.6A17.89,17.89,0,0,1,227,138.8l-.62.64"/></g><path class="cls-1" d="M177.05,91.6s-3.35,11.69,0,17.94,2.14,7.3,14,16.62,22,18.23,34,17.78,23.95-11.38,17.79-25.61-26.66-26.84-37.48-29.61S180.16,81.56,177.05,91.6Z"/><g class="cls-9"><path class="cls-2" d="M179.4,80.81C176,96.43,177,110.12,188.65,121c-5.6-3.53,3.38,3.68,3.36,4.2a2.08,2.08,0,0,0,.67,1.36,72.41,72.41,0,0,0,37.66,22.83c3.6.85,7.41,1.42,11,.45s6.85-3.83,7.29-7.51a13,13,0,0,0-.67-5.05,60.38,60.38,0,0,0-25.08-33.81l3.39.49c-4.71-5.56-12-8.1-17.65-12.73a54.14,54.14,0,0,1-8.43-9.38,32.59,32.59,0,0,0-5.87-6.52,10.29,10.29,0,0,0-8.22-2.28c-2.87.61-5.35,3.33-5.05,6.25"/></g><path class="cls-10" d="M169.46,70c-1.79.66-2.58,2.68-3.86,4.09a6.75,6.75,0,0,1-3.16,2,10.08,10.08,0,0,0,2.9,3.23,3,3,0,0,1-1.36.28,7.46,7.46,0,0,0,5.84,4.91A15.48,15.48,0,0,0,171,80.65c.71-3.49.78-7.42-1.38-10.25"/><path class="cls-10" d="M178.74,53.87c-4.28.93-6.43,5.65-7.66,9.85s-2.56,9-6.44,11a1.75,1.75,0,0,1,.64,2.67,1.19,1.19,0,0,1,.63,2.06c.91.15.91,1.43,1,2.35a5.82,5.82,0,0,0,2,3.38c4.6,4.32,11.44,5,17.75,5.16,3.85.09,7.69.06,11.54-.1a7.25,7.25,0,0,0,3.39-.7c1.53-.89,2.22-2.71,2.71-4.4a24.81,24.81,0,0,0,1.27-8.53c-.36-6-4.17-11.28-9-14.88s-10.45-5.73-16-7.82l-.22,2.2"/><path class="cls-10" d="M181.9,52.52s-5.33-6.72-16.85-7.89c0,0-11.36,21.18,17.32,21.2C182.37,65.83,188.92,59.56,181.9,52.52Z"/><path class="cls-1" d="M178.69,51.05c-.05-.82-.8-1.41-1.51-1.85a26.25,26.25,0,0,0-9.36-3.56,16.87,16.87,0,0,0,1.08,7.8A11.59,11.59,0,0,0,171.26,58c1.76,1.83,4.38,2.47,6.85,3a1.37,1.37,0,0,0,.75,0,1.31,1.31,0,0,0,.65-.75,17.33,17.33,0,0,0,1.68-7,5,5,0,0,0-.47-2.56,2.08,2.08,0,0,0-2.18-1.12l-.14.46"/><path class="cls-10" d="M200.13,53s7.26-4.55,18.52-1.81c0,0,3.64,23.75-23.41,14.2C195.24,65.4,191.16,57.31,200.13,53Z"/><path class="cls-1" d="M202.88,54.26A3,3,0,0,1,205,52.52a20.53,20.53,0,0,1,10.1-.79,28,28,0,0,1-4,9.41,15.36,15.36,0,0,1-3.93,4.75c-2.34,1.62-5,1.4-7.55,1.13a1.09,1.09,0,0,1-.71-.26,1.92,1.92,0,0,1-.32-1.21,30.54,30.54,0,0,1,1.09-9.45,7.89,7.89,0,0,1,1.41-3,1.8,1.8,0,0,1,2.46-.55l0,.63"/><path class="cls-3" d="M194.46,42.61c8.25,1.42,11.65,8.71,11.65,8.71,6.72,3.25,5.4,12.81,5.4,12.81a17.06,17.06,0,0,1,4.94,17.35c5.35,15-7.94,12.15-7.94,12.15-9,7.61-21.41-1.06-21.41-1.06a17.38,17.38,0,0,1-13-5.5c-5.53-6-.35-11.94-.35-11.94-6.1-6.23,0-11.8,0-11.8-2.18-2-1.9-5.39,3-11.7C176.74,51.63,180.79,40.26,194.46,42.61Z"/><g class="cls-11"><path class="cls-12" d="M179.59,36.3s-7,14.39-1.48,24.7c0,0-4.72,5,.87,12.17,0,0-5.95,6.6-.68,11.82a13,13,0,0,0,11.12,4s12.52,9.22,19.31-.22c0,0,9.92,5.78,10.08-6.7l5.9,6.95s-12.24,21.34-12.07,20.36-49.12-12.22-49.12-12.22L167.85,38Z"/></g><ellipse class="cls-6" cx="168.29" cy="76.5" rx="1.06" ry="2.27" transform="translate(-12.52 37.99) rotate(-12.42)"/><path class="cls-2" d="M208.77,124.05c-.48.34-4.44,7,1.86,21.19s4,15.86,4,15.86a4.57,4.57,0,0,0-3.05.92c-1.44,1.11-.66,8.49,7.33,8.21s5.16-10,3.68-15.64,2.65-6.69,2.76-15S222.93,114.1,208.77,124.05Z"/><g class="cls-13"><path class="cls-6" d="M209.14,146.32a1.81,1.81,0,0,0,.77,1.36,13.17,13.17,0,0,0,8.54,3.43,11.91,11.91,0,0,0,8.51-3.4,70.29,70.29,0,0,1,4.12,14.72c.53,3.17.81,6.53-.44,9.49a6.61,6.61,0,0,1-1.45,2.23,8.66,8.66,0,0,1-2.06,1.36,29.35,29.35,0,0,1-6.82,2.5,12.84,12.84,0,0,1-4.14.39,14.5,14.5,0,0,1-3.68-1,15.2,15.2,0,0,1-4.78-2.6c-2.19-1.93-3.22-4.82-4-7.64a27.59,27.59,0,0,1-1.13-8.06,12.84,12.84,0,0,1,2.6-7.6,17.29,17.29,0,0,1,3.61-3.16l-.63.64"/></g><path class="cls-3" d="M237.15,128c-1.61-1.14-3.94.54-4.28,2.48s.54,3.85,1.17,5.71c1,3.09,1.36,6.36,2.35,9.46s2.81,6.15,5.78,7.48l.23-1.13a38.83,38.83,0,0,0,18.71,13.08,18.5,18.5,0,0,0-5.62-21.68l5,1.62a22.1,22.1,0,0,0-10.76-9.09,10.27,10.27,0,0,1,4.13.19,36.53,36.53,0,0,0-15-7.39Z"/><g class="cls-14"><path class="cls-12" d="M230.9,129.88c2.08.38,3.65,2.18,4.5,4.12a44.08,44.08,0,0,1,1.69,6.13,23.7,23.7,0,0,0,4.1,8.26l.63-1.4a22.14,22.14,0,0,0,7.66,8.16l-.09-1.3a50.53,50.53,0,0,1,9.69,8.24L259,161a8.17,8.17,0,0,1,1.34,1.81A15.54,15.54,0,0,0,259,157.2a39.88,39.88,0,0,1,2.65,3.68l-1.68-5a4.42,4.42,0,0,1,1.76,2.17,61.93,61.93,0,0,0-2.37-10A73.33,73.33,0,0,1,266.5,159a24.48,24.48,0,0,1,2.88,12.53,9.82,9.82,0,0,1-2.18,6c-1.92,2.12-5,2.78-7.82,2.87a27.52,27.52,0,0,1-7.56-.8,21.09,21.09,0,0,1-4.1-1.47c-5.71-2.85-9.21-8.83-11.19-14.9s-2.75-12.47-4.79-18.51a11.76,11.76,0,0,0-3.11-5.33c-1.2-1-2.78-1.65-3.67-3a3.85,3.85,0,0,1,3.93-6l-.89,1.07"/></g><ellipse class="cls-6" cx="210.92" cy="119.77" rx="2.32" ry="3.82" transform="translate(19.65 268.93) rotate(-67.54)"/><ellipse class="cls-6" cx="212.01" cy="127.14" rx="1.44" ry="2.38" transform="translate(13.51 274.48) rotate(-67.54)"/><ellipse class="cls-6" cx="218.47" cy="125.5" rx="1.44" ry="2.38" transform="translate(19.02 279.44) rotate(-67.54)"/><ellipse class="cls-6" cx="199.88" cy="117.81" rx="1.44" ry="2.38" transform="translate(14.63 257.51) rotate(-67.54)"/><path class="cls-1" d="M76.73,111.77c.29.28,2.26,5.41-3.09,15.4s-4,11.37-4,11.37a2.66,2.66,0,0,1,1.89.86c.84.91-.33,6.26-5.47,5.55s-2.46-7.66-1-11.69-1.11-5.08-.45-11.16S68.45,103.57,76.73,111.77Z"/><g class="cls-15"><path class="cls-6" d="M74.51,128.06a1.39,1.39,0,0,1-.61.94,8.24,8.24,0,0,1-5.84,2,7.08,7.08,0,0,1-5.21-3,59,59,0,0,0-4,10.52,14.28,14.28,0,0,0-.56,7,4.88,4.88,0,0,0,.74,1.73,5.58,5.58,0,0,0,1.21,1.12,16.93,16.93,0,0,0,4.2,2.27,7.09,7.09,0,0,0,2.64.55,8.63,8.63,0,0,0,2.48-.51A9.74,9.74,0,0,0,72.91,149a12,12,0,0,0,3.25-5.34,22.82,22.82,0,0,0,1.45-5.84,10.09,10.09,0,0,0-1-5.73,11.31,11.31,0,0,0-2-2.55l.35.51"/></g><path class="cls-1" d="M81.4,115.39c.31.26,2.69,5.21-1.81,15.61s-3,11.65-3,11.65a2.63,2.63,0,0,1,2,.71c.91.83.19,6.26-5,6s-3.08-7.43-2-11.57-1.53-5-1.37-11.08S72.47,107.9,81.4,115.39Z"/><g class="cls-16"><path class="cls-2" d="M78.39,120.49a52.26,52.26,0,0,1-5,14.58,2.76,2.76,0,0,1,.81-.39,13.26,13.26,0,0,1-3.09,6.11c-1.08,1.2-2.68,2.26-4.21,1.74-1.78-.6-2.25-2.88-2.26-4.77a65.57,65.57,0,0,1,1.7-13.2,3.85,3.85,0,0,1,.48-1.42,3.7,3.7,0,0,1,1-.93,12.7,12.7,0,0,1,3.63-1.89,7.31,7.31,0,0,1,6.31,1.21"/><path class="cls-6" d="M80.53,131.81a1.41,1.41,0,0,1-.54,1,8.25,8.25,0,0,1-5.66,2.44,7.12,7.12,0,0,1-5.44-2.59,58.7,58.7,0,0,0-3.1,10.81,14.29,14.29,0,0,0,0,7,4.76,4.76,0,0,0,.88,1.65,5.37,5.37,0,0,0,1.3,1,17.32,17.32,0,0,0,4.37,1.91,7.17,7.17,0,0,0,2.68.34,8.85,8.85,0,0,0,2.42-.72,9.79,9.79,0,0,0,3.19-1.86,12,12,0,0,0,2.8-5.59,22.69,22.69,0,0,0,1-5.93,10.17,10.17,0,0,0-1.48-5.63,11.58,11.58,0,0,0-2.25-2.38l.38.48"/></g><path class="cls-4" d="M55.51,123.17c.36.25,3.29,5.16-1.37,15.65s-2.92,11.71-2.92,11.71a3.37,3.37,0,0,1,2.25.68c1.07.82.48,6.26-5.41,6.06s-3.81-7.39-2.72-11.55-2-4.94-2-11.07S45.06,115.82,55.51,123.17Z"/><g class="cls-17"><path class="cls-6" d="M55.24,139.62a1.36,1.36,0,0,1-.56,1,9.76,9.76,0,0,1-6.32,2.53,8.79,8.79,0,0,1-6.28-2.51,52.55,52.55,0,0,0-3,10.87c-.39,2.34-.6,4.83.32,7a4.78,4.78,0,0,0,1.08,1.64,6.43,6.43,0,0,0,1.51,1A21.6,21.6,0,0,0,47,163a9.06,9.06,0,0,0,3.06.29,10.38,10.38,0,0,0,2.72-.75,11.11,11.11,0,0,0,3.53-1.92A11,11,0,0,0,59.23,155a20,20,0,0,0,.84-6,9.52,9.52,0,0,0-1.92-5.61,12.38,12.38,0,0,0-2.66-2.34l.46.47"/></g><path class="cls-1" d="M82.3,108.51s2,8.12,0,12.47-1.26,5.07-8.23,11.55-13,12.67-20,12.35S39.93,137,43.55,127.09s15.71-18.65,22.08-20.58S80.46,101.53,82.3,108.51Z"/><g class="cls-18"><path class="cls-2" d="M80.87,100.45c2,10.86,1.42,20.37-5.45,28,3.3-2.45-2,2.56-2,2.92a1.57,1.57,0,0,1-.4,1,42,42,0,0,1-22.18,15.86,11.24,11.24,0,0,1-6.46.32,6.27,6.27,0,0,1-4.29-5.22,10.68,10.68,0,0,1,.39-3.51c2.32-9.58,7.67-18.1,14.77-23.5l-2,.34c2.77-3.86,7.08-5.63,10.39-8.84a36,36,0,0,0,5-6.52,21.76,21.76,0,0,1,3.45-4.53,5.47,5.47,0,0,1,4.85-1.59,4.23,4.23,0,0,1,3,4.35"/></g><path class="cls-2" d="M69,130.2c.36.25,3.29,5.16-1.37,15.64s-2.92,11.72-2.92,11.72a3.33,3.33,0,0,1,2.25.67c1.07.82.48,6.27-5.41,6.07s-3.81-7.39-2.72-11.55-1.95-4.94-2-11.07S58.51,122.85,69,130.2Z"/><g class="cls-19"><path class="cls-6" d="M68.69,146.64a1.32,1.32,0,0,1-.56,1,9.72,9.72,0,0,1-6.32,2.54,8.79,8.79,0,0,1-6.28-2.51,52.55,52.55,0,0,0-3,10.87c-.39,2.34-.6,4.82.32,7a4.88,4.88,0,0,0,1.08,1.64,6.43,6.43,0,0,0,1.51,1,21.6,21.6,0,0,0,5,1.84,9.32,9.32,0,0,0,3.06.29,10.78,10.78,0,0,0,2.72-.75,11.42,11.42,0,0,0,3.53-1.92A11,11,0,0,0,72.68,162a20.16,20.16,0,0,0,.84-6,9.55,9.55,0,0,0-1.92-5.61,12.61,12.61,0,0,0-2.66-2.33l.46.47"/></g><path class="cls-3" d="M46.73,135.33c1-.7,2.43.34,2.64,1.53a7.35,7.35,0,0,1-.72,3.53c-.63,1.9-.84,3.92-1.45,5.83a7.27,7.27,0,0,1-3.57,4.62l-.14-.69a24,24,0,0,1-11.55,8.07,11.42,11.42,0,0,1,3.47-13.38l-3.08,1a13.63,13.63,0,0,1,6.64-5.6,6.21,6.21,0,0,0-2.54.11,22.46,22.46,0,0,1,9.27-4.56Z"/><g class="cls-20"><path class="cls-12" d="M50.59,136.49A4.09,4.09,0,0,0,47.81,139a27.08,27.08,0,0,0-1,3.78,14.69,14.69,0,0,1-2.53,5.1l-.39-.86a13.7,13.7,0,0,1-4.73,5l.06-.81a31.36,31.36,0,0,0-6,5.09l.05-.7a4.79,4.79,0,0,0-.83,1.12,9.49,9.49,0,0,1,.83-3.44,26.06,26.06,0,0,0-1.63,2.27l1-3.08a2.66,2.66,0,0,0-1.09,1.34A39.55,39.55,0,0,1,33,147.74a45.23,45.23,0,0,0-4.4,6.7,15.12,15.12,0,0,0-1.78,7.74,6.08,6.08,0,0,0,1.34,3.68A6.74,6.74,0,0,0,33,167.63a17,17,0,0,0,4.66-.5,12.6,12.6,0,0,0,2.54-.91c3.52-1.75,5.68-5.45,6.9-9.19s1.7-7.7,3-11.43A7.29,7.29,0,0,1,52,142.31a11.55,11.55,0,0,0,2.27-1.82,2.38,2.38,0,0,0-2.43-3.68l.55.66"/></g><ellipse class="cls-6" cx="67.38" cy="127.04" rx="2.82" ry="1.71" transform="translate(-43.43 35.38) rotate(-22.46)"/><ellipse class="cls-6" cx="66.57" cy="132.48" rx="1.76" ry="1.06" transform="translate(-45.57 35.49) rotate(-22.46)"/><ellipse class="cls-6" cx="61.8" cy="131.26" rx="1.76" ry="1.06" transform="translate(-45.47 33.57) rotate(-22.46)"/><ellipse class="cls-6" cx="75.53" cy="125.59" rx="1.76" ry="1.06" transform="translate(-42.26 38.39) rotate(-22.46)"/><path class="cls-10" d="M84,82.08s4.71-4.22,13.25-3.64c0,0,5.62,16.84-15.26,13.27C82,91.71,78,86.33,84,82.08Z"/><path class="cls-10" d="M70.66,80.16s-4.72-4.22-13.26-3.64c0,0-5.62,16.84,15.26,13.27C72.66,89.79,76.64,84.41,70.66,80.16Z"/><path class="cls-10" d="M95.21,101.64a5,5,0,0,1-1.58-1.2l.14,0a6.85,6.85,0,0,1-.62-.58h0a17.29,17.29,0,0,0-1.74-3,27.1,27.1,0,0,1-1-5.22c-.36-3.19-1.34-6.86-4.28-8.1a8.79,8.79,0,0,0-7.08-3.44L75,80.2c-2-.62-4.1.81-5.62,2.28A17.88,17.88,0,0,0,66,87.83L59.33,101.7a5.63,5.63,0,0,0,2.18,1.07L59.76,104c2.16,2.64,5.5,4.06,8.84,4.73s6.79.68,10.18,1a8.34,8.34,0,0,0,3.79-.14,3.88,3.88,0,0,0,.46-.22,12.94,12.94,0,0,0,6.3-2,6,6,0,0,0,1-.85A5.51,5.51,0,0,0,93.65,104a2.3,2.3,0,0,1-1-.37A7.46,7.46,0,0,0,95.21,101.64Z"/><path class="cls-3" d="M84.7,81.64a3.85,3.85,0,0,0-2.11-1.14A5,5,0,0,1,85,78.83a3.55,3.55,0,0,0-4.51.7,6.29,6.29,0,0,1,.3-2.51A7.06,7.06,0,0,0,78,79.81l-1.13-3.07-1.55,3.42a5.14,5.14,0,0,0-2.83-2.74,4.7,4.7,0,0,1-.22,3.18l-.58-.49c-.18,3-3.36,5.43-2.94,8.41a1.82,1.82,0,0,1,1.36-1,24.74,24.74,0,0,0-1.8,6.81l1.26-.74a35.3,35.3,0,0,1-2.78,8.62l2.11-.21a9.18,9.18,0,0,1-3.26,5.06L67.5,107a5.22,5.22,0,0,1-1.43,2.18,5.91,5.91,0,0,0,6-1,4.53,4.53,0,0,0-.11,1.76,12.3,12.3,0,0,0,4.49-6.21l1,1.93a15.09,15.09,0,0,0,2.68-8.82A3.32,3.32,0,0,0,81.7,98a26.22,26.22,0,0,0-.24-9.43l1.28.84a8.35,8.35,0,0,0-1.3-5.31,13.9,13.9,0,0,1,2.18,1.18,4.09,4.09,0,0,0-1.45-3,2.16,2.16,0,0,1,2.41-.08"/><ellipse class="cls-6" cx="90.9" cy="101.24" rx="1.68" ry="0.78" transform="translate(-37.16 147.22) rotate(-67.83)"/><path class="cls-3" d="M65.11,110l-5.32,3.76a3.41,3.41,0,0,1,1.79.2,10.27,10.27,0,0,0-4.4,5.49.55.55,0,0,1,.39-.72,8.21,8.21,0,0,1-2.24,4.89,28.27,28.27,0,0,0,5.3-5.46,5,5,0,0,1-.09,2.36,15.53,15.53,0,0,0,2.83-5.71,4.65,4.65,0,0,1,.39,1.55,22.75,22.75,0,0,0,2.53-3.84,1,1,0,0,1,.31,1l2.32-3.35.08,1a1.36,1.36,0,0,0-1.08-2.33c-.76.08-1.34.78-2.09.92a2.68,2.68,0,0,0-.75.13c-.23.1-.41.39-.27.6"/><path class="cls-1" d="M69.44,82.19a12.47,12.47,0,0,0-4.08,7.19,10.69,10.69,0,0,1-6.08-5.22,20.83,20.83,0,0,1-1.69-5.87,29.11,29.11,0,0,1,6.66.49,11.65,11.65,0,0,1,5.85,3"/></svg>