<svg id="Layer_2" data-name="Layer 2" xmlns="http://www.w3.org/2000/svg" xmlns:xlink="http://www.w3.org/1999/xlink" viewBox="0 0 260 168"><defs><style>.cls-1{fill:#dda854;}.cls-2{fill:#e8ba67;}.cls-3{fill:#471e00;}.cls-4{fill:#bc6319;}.cls-5{fill:#994a0a;}.cls-6{fill:#c48a37;}.cls-7{fill:#190e01;}.cls-8{clip-path:url(#clip-path);}.cls-9{fill:#f7d19a;}.cls-10{fill:#301c00;}.cls-11{fill:#d19846;}.cls-12{fill:#e2af5d;}.cls-13{clip-path:url(#clip-path-2);}.cls-14{fill:#a06f20;}.cls-15{fill:#d69936;}.cls-16{clip-path:url(#clip-path-3);}.cls-17{fill:#ffd38d;}.cls-18{fill:#fff;}.cls-19{clip-path:url(#clip-path-4);}.cls-20{fill:#c41e1e;}.cls-21{fill:#7a3100;}.cls-22{fill:#93621b;}.cls-23{fill:#7a4609;}.cls-24{fill:#a54c0a;}.cls-25{clip-path:url(#clip-path-5);}.cls-26{fill:#a04908;}.cls-27{clip-path:url(#clip-path-6);}.cls-28{clip-path:url(#clip-path-7);}.cls-29{fill:#b25712;}.cls-30{fill:#d67934;}.cls-31{clip-path:url(#clip-path-8);}.cls-32{clip-path:url(#clip-path-9);}.cls-33{fill:#682c02;}.cls-34{fill:#c1671e;}.cls-35{fill:#d6752d;}.cls-36{fill:#c97523;}.cls-37{clip-path:url(#clip-path-10);}.cls-38{fill:#f49547;}.cls-39{fill:#a8540e;}.cls-40{fill:#af5614;}</style><clipPath id="clip-path"><circle class="cls-1" cx="149.5" cy="124.21" r="10.86"/></clipPath><clipPath id="clip-path-2"><path class="cls-2" d="M167.89,117.82c-.4,4.36-8.78,9.1-18.49,8.21s-17.08-7.08-16.68-11.44,8.6-7.18,18.31-6.28S168.29,113.46,167.89,117.82Z"/></clipPath><clipPath id="clip-path-3"><circle class="cls-2" cx="150.9" cy="109.68" r="15.6" transform="translate(21.77 244.31) rotate(-82.2)"/></clipPath><clipPath id="clip-path-4"><path class="cls-3" d="M145.16,122.64a4.93,4.93,0,0,1,4.51-2.71c3.34,0,4.16,3.36,4.16,3.36A12.75,12.75,0,0,0,145.16,122.64Z"/></clipPath><clipPath id="clip-path-5"><path class="cls-4" d="M97.48,139.38s1.52,5,1.45,6.68c0,0-.23,1.09,1.21.29,0,0,.83,1.07,2.42,0a1.15,1.15,0,0,0,.39-.46c.34-.76,1.09-3.06.14-7.3C101.91,133.27,96.37,133.65,97.48,139.38Z"/></clipPath><clipPath id="clip-path-6"><path class="cls-4" d="M113,139.38s-1.52,5-1.45,6.68c0,0,.23,1.09-1.21.29,0,0-.83,1.07-2.42,0a1.15,1.15,0,0,1-.39-.46c-.34-.76-1.09-3.06-.14-7.3C108.57,133.27,114.11,133.65,113,139.38Z"/></clipPath><clipPath id="clip-path-7"><path class="cls-4" d="M117.42,134.93c0,9.1-5.56,10-12.43,10s-12.43-.89-12.43-10,5.57-16.46,12.43-16.46S117.42,125.84,117.42,134.93Z"/></clipPath><clipPath id="clip-path-8"><path class="cls-4" d="M94,141.44s1.52,5,1.45,6.68c0,0-.23,1.09,1.21.29,0,0,.83,1.07,2.42,0a1.15,1.15,0,0,0,.39-.46c.34-.76,1.09-3.06.14-7.3C98.4,135.33,92.86,135.71,94,141.44Z"/></clipPath><clipPath id="clip-path-9"><path class="cls-4" d="M115.7,141.44s-1.52,5-1.45,6.68c0,0,.23,1.09-1.21.29,0,0-.83,1.07-2.42,0a1.26,1.26,0,0,1-.4-.46c-.33-.76-1.08-3.06-.14-7.3C111.27,135.33,116.81,135.71,115.7,141.44Z"/></clipPath><clipPath id="clip-path-10"><path class="cls-5" d="M101.11,129.74a9,9,0,0,1,8.51-1.56,4.33,4.33,0,0,0-5-2.44C100.75,126.57,101.11,129.74,101.11,129.74Z"/></clipPath></defs><path class="cls-6" d="M141.11,127.64s1.69,8.58,2.31,9.77a2.62,2.62,0,0,0,2.49,1.06,1.78,1.78,0,0,0,1.61-1.73c0-1.7.15-5.52.25-6.48.12-1.24-.81-4.54-4-5S141.11,127.64,141.11,127.64Z"/><path class="cls-7" d="M143.42,137.41l.49,5.49a1.79,1.79,0,0,0-2.21,1.43c-.62,1.93,4.6,2.82,6,.92s.1-2.68.1-2.68l-.22-5.61S146.39,138.55,143.42,137.41Z"/><path class="cls-6" d="M158.37,127.14s-1.21,8.66-1.76,9.88a2.63,2.63,0,0,1-2.43,1.19,1.77,1.77,0,0,1-1.7-1.64c-.14-1.69-.46-5.5-.61-6.45-.18-1.24.55-4.58,3.7-5.26S158.37,127.14,158.37,127.14Z"/><path class="cls-7" d="M156.61,137l-.19,5.5a1.8,1.8,0,0,1,2.29,1.31c.72,1.89-4.44,3.07-5.89,1.25s-.25-2.67-.25-2.67l-.08-5.61S153.71,138.32,156.61,137Z"/><circle class="cls-1" cx="149.5" cy="124.21" r="10.86"/><g class="cls-8"><ellipse class="cls-9" cx="149.5" cy="137.46" rx="5.77" ry="6.65"/><ellipse class="cls-10" cx="138.27" cy="125.31" rx="1.85" ry="1.1"/><ellipse class="cls-10" cx="137.98" cy="127.94" rx="1.85" ry="1.1"/><ellipse class="cls-10" cx="160.36" cy="124.21" rx="1.85" ry="1.1"/><ellipse class="cls-10" cx="160.36" cy="126.66" rx="1.85" ry="1.1"/><ellipse class="cls-11" cx="149.5" cy="120.47" rx="10" ry="7.13"/></g><path class="cls-12" d="M141.82,98.5a11.92,11.92,0,0,0-7.21-6.75c-5.69-2.08-6.88.46-7.56,4.61s-.9,15.38,12.43,13.64C139.48,110,144.44,102.4,141.82,98.5Z"/><path class="cls-9" d="M140.37,100.9a9.65,9.65,0,0,0-6-5.37c-4.69-1.67-5.67.34-6.22,3.63s-.7,12.19,10.28,10.85C138.47,110,142.54,104,140.37,100.9Z"/><path class="cls-12" d="M161.88,100.34A11.84,11.84,0,0,1,170.19,95c6-1,6.68,1.71,6.6,5.91s-1.92,15.28-14.71,11.14C162.08,112.07,158.58,103.7,161.88,100.34Z"/><path class="cls-9" d="M162.87,103a9.64,9.64,0,0,1,6.83-4.2c4.92-.79,5.51,1.37,5.45,4.71s-1.53,12.11-12.08,8.78C163.07,112.26,160.17,105.62,162.87,103Z"/><path class="cls-2" d="M167.89,117.82c-.4,4.36-8.78,9.1-18.49,8.21s-17.08-7.08-16.68-11.44,8.6-7.18,18.31-6.28S168.29,113.46,167.89,117.82Z"/><g class="cls-13"><path class="cls-14" d="M161.87,119.4c.25,5.52-5.59,7.26-12,6.67s-12-3.2-11.37-8.76c.49-4.25,6.34-7.23,12.78-6.64S161.68,115.13,161.87,119.4Z"/></g><circle class="cls-15" cx="137.62" cy="103.22" r="3.84"/><circle class="cls-15" cx="164.26" cy="105.67" r="3.84"/><circle class="cls-2" cx="150.9" cy="109.68" r="15.6" transform="translate(21.77 244.31) rotate(-82.2)"/><g class="cls-16"><ellipse class="cls-14" cx="150.14" cy="119.75" rx="6.91" ry="11.68" transform="translate(17.16 258.31) rotate(-84.75)"/></g><ellipse class="cls-17" cx="140.6" cy="108.78" rx="5.34" ry="4.1" transform="translate(19.42 238.84) rotate(-84.75)"/><ellipse class="cls-17" cx="161.29" cy="110.68" rx="5.34" ry="4.1" transform="matrix(0.09, -1, 1, 0.09, 36.32, 261.16)"/><ellipse class="cls-18" cx="140.44" cy="109.54" rx="4.56" ry="3.49" transform="translate(18.51 239.38) rotate(-84.75)"/><ellipse cx="140.44" cy="109.54" rx="3.47" ry="2.66" transform="translate(18.51 239.38) rotate(-84.75)"/><ellipse class="cls-18" cx="139.27" cy="107.1" rx="1.16" ry="0.97" transform="translate(19.88 235.99) rotate(-84.75)"/><path class="cls-3" d="M145.16,122.64a4.93,4.93,0,0,1,4.51-2.71c3.34,0,4.16,3.36,4.16,3.36A12.75,12.75,0,0,0,145.16,122.64Z"/><g class="cls-19"><ellipse class="cls-20" cx="149.34" cy="123.85" rx="3.26" ry="2.58"/></g><ellipse class="cls-18" cx="161.21" cy="111.45" rx="4.56" ry="3.49" transform="translate(35.49 261.8) rotate(-84.75)"/><ellipse cx="161.21" cy="111.45" rx="3.47" ry="2.66" transform="translate(35.49 261.8) rotate(-84.75)"/><ellipse class="cls-18" cx="160.04" cy="109.01" rx="1.16" ry="0.97" transform="translate(36.85 258.41) rotate(-84.75)"/><path class="cls-21" d="M158.34,96c.6,1.3-2.66-.24-2.66-.24a1.34,1.34,0,0,0,.51,2.07,2.7,2.7,0,0,1-2.95-1.91c-1.87,1.7-1,5.45-1,5.45-3.25-1.16-1.94-6.11-1.94-6.11-1.11.21-2.84,2.31-2.84,2.31A6,6,0,0,1,148.8,95l-1.53.48c-1.38.58-2.39.56-2.59-.39,0,0,1.12-2.5,6.77-2.25a2.59,2.59,0,0,0-.55-2.32s2.41.59,2.64,2.51C153.54,93,157.1,93.27,158.34,96Z"/><ellipse class="cls-22" cx="150.27" cy="116.61" rx="4.51" ry="7.53" transform="translate(20.41 255.58) rotate(-84.75)"/><ellipse class="cls-10" cx="150.43" cy="114.82" rx="2.36" ry="4.58" transform="translate(22.34 254.12) rotate(-84.75)"/><ellipse class="cls-23" cx="149.19" cy="113.27" rx="0.54" ry="1.09" transform="translate(22.75 251.47) rotate(-84.75)"/><path class="cls-21" d="M138.74,103.22a24.89,24.89,0,0,1,2.91-.14A9.73,9.73,0,0,0,143,103a3.37,3.37,0,0,0,1.32-.46,1.86,1.86,0,0,1-1.05,1.24,3.76,3.76,0,0,1-1.58.37,5.05,5.05,0,0,1-1.55-.22A4.05,4.05,0,0,1,138.74,103.22Z"/><path class="cls-21" d="M164.17,106.12a3.3,3.3,0,0,1-1.49.16,4.6,4.6,0,0,1-1.44-.39,3.22,3.22,0,0,1-1.88-2.28c.45.27.81.52,1.19.73s.75.41,1.15.59C162.48,105.3,163.28,105.62,164.17,106.12Z"/><ellipse class="cls-15" cx="134.85" cy="114.25" rx="0.58" ry="1.13" transform="translate(8.74 238.09) rotate(-84.75)"/><ellipse class="cls-15" cx="165.38" cy="117.06" rx="0.58" ry="1.13" transform="translate(33.69 271.04) rotate(-84.75)"/><path class="cls-1" d="M139.34,129.53s.86,8.7,1.36,9.94a2.6,2.6,0,0,0,2.37,1.3,1.78,1.78,0,0,0,1.77-1.57c.21-1.69.69-5.48.87-6.43.24-1.22-.36-4.6-3.47-5.4S139.34,129.53,139.34,129.53Z"/><path class="cls-10" d="M140.7,139.47l0,5.51a1.8,1.8,0,0,0-2.35,1.22c-.79,1.85,4.31,3.24,5.84,1.48s.36-2.65.36-2.65l.32-5.61S143.54,140.89,140.7,139.47Z"/><path class="cls-1" d="M159.91,129.53s-.24,8.74-.66,10A2.64,2.64,0,0,1,157,141a1.8,1.8,0,0,1-1.88-1.44c-.33-1.67-1.07-5.43-1.32-6.36-.32-1.2,0-4.61,3.09-5.63S159.91,129.53,159.91,129.53Z"/><path class="cls-10" d="M159.25,139.55l.43,5.49a1.8,1.8,0,0,1,2.43,1.05c.92,1.79-4.08,3.54-5.73,1.89s-.54-2.63-.54-2.63l-.71-5.56S156.52,141.16,159.25,139.55Z"/><path class="cls-21" d="M117.6,141.75a2.82,2.82,0,0,0,1.6.73,10.29,10.29,0,0,0,1.66.19.43.43,0,0,1-.31-.19.75.75,0,0,1,.82.49,4.54,4.54,0,0,0-.25-2.8,2.66,2.66,0,0,0-2.22-1.57,1.5,1.5,0,0,0-1.06.33A2.48,2.48,0,0,0,117.6,141.75Z"/><path class="cls-24" d="M113.63,137.6s5,.78,5.16,3.23c0,0-.51-.62-5.16-1.19S111.19,137.42,113.63,137.6Z"/><path class="cls-4" d="M97.48,139.38s1.52,5,1.45,6.68c0,0-.23,1.09,1.21.29,0,0,.83,1.07,2.42,0a1.15,1.15,0,0,0,.39-.46c.34-.76,1.09-3.06.14-7.3C101.91,133.27,96.37,133.65,97.48,139.38Z"/><g class="cls-25"><path class="cls-26" d="M97.58,144.36c.17.07,2,1.77,6.75.49v2.92l-7-.07-1.51-2.63Z"/></g><path class="cls-4" d="M113,139.38s-1.52,5-1.45,6.68c0,0,.23,1.09-1.21.29,0,0-.83,1.07-2.42,0a1.15,1.15,0,0,1-.39-.46c-.34-.76-1.09-3.06-.14-7.3C108.57,133.27,114.11,133.65,113,139.38Z"/><g class="cls-27"><path class="cls-26" d="M112.9,144.36c-.17.07-2,1.77-6.75.49v2.92l7-.07,1.51-2.63Z"/></g><path class="cls-4" d="M117.42,134.93c0,9.1-5.56,10-12.43,10s-12.43-.89-12.43-10,5.57-16.46,12.43-16.46S117.42,125.84,117.42,134.93Z"/><g class="cls-28"><ellipse class="cls-29" cx="104.98" cy="124.97" rx="13.02" ry="8.59"/><ellipse class="cls-30" cx="104.99" cy="144.5" rx="7.12" ry="0.96"/></g><path class="cls-4" d="M94,141.44s1.52,5,1.45,6.68c0,0-.23,1.09,1.21.29,0,0,.83,1.07,2.42,0a1.15,1.15,0,0,0,.39-.46c.34-.76,1.09-3.06.14-7.3C98.4,135.33,92.86,135.71,94,141.44Z"/><g class="cls-31"><path class="cls-26" d="M94.08,146.42c.16.07,2,1.77,6.74.49v2.92l-7-.07-1.51-2.63Z"/></g><path class="cls-4" d="M115.7,141.44s-1.52,5-1.45,6.68c0,0,.23,1.09-1.21.29,0,0-.83,1.07-2.42,0a1.26,1.26,0,0,1-.4-.46c-.33-.76-1.08-3.06-.14-7.3C111.27,135.33,116.81,135.71,115.7,141.44Z"/><g class="cls-32"><path class="cls-26" d="M115.59,146.42c-.16.07-2,1.77-6.74.49v2.92l7-.07,1.51-2.63Z"/></g><path class="cls-33" d="M92.54,106.7a5.26,5.26,0,0,0-.81,4,.84.84,0,0,0,.2.46.91.91,0,0,0,.6.21,41.3,41.3,0,0,0,18.66-2.73,1,1,0,0,0,.6-.44.93.93,0,0,0-.11-.74,9.28,9.28,0,0,0-1.11-2.28,7.87,7.87,0,0,0-2.35-1.69,9.7,9.7,0,0,0-4-1.14C100.5,102.42,94.9,103.22,92.54,106.7Z"/><path class="cls-34" d="M95.33,112.31c3.06,2-.22,5.73-2.61,7.4s-6,.59-8.11-2.41-1.85-6.78.54-8.44S92.52,110.48,95.33,112.31Z"/><path class="cls-35" d="M92.82,112.71c2.08,1.12.16,3.71-1.3,4.91s-3.85.69-5.35-1.13-1.55-4.27-.1-5.47S90.91,111.68,92.82,112.71Z"/><path class="cls-34" d="M108.79,110.34c-2.37,2.79,1.85,5.43,4.62,6.34s5.94-1.16,7.08-4.63-.18-7-2.94-7.93S111,107.78,108.79,110.34Z"/><path class="cls-35" d="M111.31,110c-1.67,1.67.91,3.6,2.64,4.33s3.89-.43,4.81-2.61.26-4.54-1.48-5.27S112.84,108.47,111.31,110Z"/><ellipse class="cls-36" cx="103.88" cy="123.76" rx="17.5" ry="7.69" transform="translate(-16.83 16.35) rotate(-8.33)"/><ellipse class="cls-36" cx="103.07" cy="118.21" rx="15.46" ry="13.3" transform="translate(-16.03 16.17) rotate(-8.33)"/><circle class="cls-18" cx="93.18" cy="120.06" r="3.76"/><circle cx="93.18" cy="120.06" r="2.81"/><circle class="cls-18" cx="91.53" cy="118.52" r="1.02"/><circle class="cls-18" cx="113.06" cy="117.15" r="3.76"/><circle cx="113.06" cy="117.15" r="2.81"/><circle class="cls-18" cx="111.41" cy="115.61" r="1.02"/><path class="cls-5" d="M101.11,129.74a9,9,0,0,1,8.51-1.56,4.33,4.33,0,0,0-5-2.44C100.75,126.57,101.11,129.74,101.11,129.74Z"/><g class="cls-37"><ellipse class="cls-20" cx="105.36" cy="128.43" rx="2.89" ry="1.68" transform="translate(-24.26 24.53) rotate(-11.92)"/></g><path class="cls-18" d="M97.86,125.65s-1.32.89-1.62,1.16,1.5.65,3.16-.15Z"/><path class="cls-18" d="M110.19,123.85s1.52.47,1.88.64-1.25,1.06-3.07.77Z"/><path class="cls-38" d="M110.16,123.28c.28,1.86-2.29,3.77-5.73,4.28S98,127,97.72,125.1s2-6,5.4-6.5S109.89,121.42,110.16,123.28Z"/><ellipse class="cls-39" cx="100.52" cy="124.39" rx="0.8" ry="1.48" transform="translate(-16.95 15.87) rotate(-8.33)"/><ellipse class="cls-39" cx="107.27" cy="123.4" rx="0.8" ry="1.48" transform="translate(-16.74 16.84) rotate(-8.33)"/><ellipse class="cls-34" cx="89.07" cy="124.57" rx="1.5" ry="0.49" transform="translate(-17.1 14.21) rotate(-8.33)"/><ellipse class="cls-34" cx="117.88" cy="120.35" rx="1.5" ry="0.49" transform="matrix(0.99, -0.14, 0.14, 0.99, -16.19, 18.34)"/><path class="cls-21" d="M98.09,107.73a5.58,5.58,0,0,0,4.82,4.61s-.71-4.85,1.19-5.13c0,0-.1,2,1.2,2.69a13.85,13.85,0,0,0,1.06-2.72l.23,1.58s2.89-1.5,2.3-3.38-3.52-4.32-8.48-3.6-6.88,3.93-6.65,5.75a3,3,0,0,0,1.76,2.55l.2-1.64a2.72,2.72,0,0,0,2,2.45S97.53,108.23,98.09,107.73Z"/><ellipse class="cls-40" cx="93.54" cy="131.69" rx="0.9" ry="0.4" transform="translate(-47.64 210.18) rotate(-83.69)"/><ellipse class="cls-40" cx="93.94" cy="133.92" rx="0.76" ry="0.34" transform="translate(-49.5 212.57) rotate(-83.69)"/><ellipse class="cls-40" cx="116.39" cy="131.69" rx="0.34" ry="0.76" transform="translate(-11.77 11.43) rotate(-5.35)"/><path class="cls-36" d="M88.51,119.54s5.31-.28,6.77-3.75l-1.81-2.52-3.87,2.34Z"/><path class="cls-36" d="M109,114a11.07,11.07,0,0,0,8.91,1.11L114.5,111Z"/></svg>