<svg id="_1" data-name="1" xmlns="http://www.w3.org/2000/svg" xmlns:xlink="http://www.w3.org/1999/xlink" viewBox="0 0 260 168"><defs><style>.cls-1{fill:#c99343;}.cls-2{fill:#3d3dfc;}.cls-3{fill:#dda854;}.cls-4{fill:#e8ba67;}.cls-5{fill:#471e00;}.cls-6{fill:#bc6319;}.cls-7{fill:#994a0a;}.cls-8{fill:#d7fff4;opacity:0.3;}.cls-9{fill:#7a3100;}.cls-10{clip-path:url(#clip-path);}.cls-11{fill:#1e1101;}.cls-12{clip-path:url(#clip-path-2);}.cls-13{clip-path:url(#clip-path-3);}.cls-14{fill:#f7d19a;}.cls-15{fill:#301c00;}.cls-16{fill:#ce9849;}.cls-17{fill:#a06f20;}.cls-18{fill:#e2af5d;}.cls-19{fill:#d69936;}.cls-20{clip-path:url(#clip-path-4);}.cls-21{fill:#ffd38d;}.cls-22,.cls-32{fill:#fff;}.cls-23{clip-path:url(#clip-path-5);}.cls-24{fill:#c41e1e;}.cls-25{fill:#93621b;}.cls-26{fill:#7a4609;}.cls-27,.cls-34{fill:none;stroke-linecap:round;stroke-linejoin:round;}.cls-27{stroke:#d8a14a;stroke-width:0.18px;}.cls-28{clip-path:url(#clip-path-6);}.cls-29{clip-path:url(#clip-path-7);}.cls-30{fill:#f4b460;}.cls-31{clip-path:url(#clip-path-8);}.cls-32{opacity:0.21;}.cls-33{fill:#2e2eef;}.cls-34{stroke:#457fff;stroke-width:0.07px;}.cls-35{fill:#457fff;}.cls-36{clip-path:url(#clip-path-9);}.cls-37{clip-path:url(#clip-path-10);}.cls-38{fill:#2d2de8;}.cls-39{fill:#c48a37;}.cls-40{fill:#190e01;}.cls-41{clip-path:url(#clip-path-11);}.cls-42{fill:#d19846;}.cls-43{clip-path:url(#clip-path-12);}.cls-44{clip-path:url(#clip-path-13);}.cls-45{clip-path:url(#clip-path-14);}.cls-46{fill:#a54c0a;}.cls-47{clip-path:url(#clip-path-15);}.cls-48{fill:#a04908;}.cls-49{clip-path:url(#clip-path-16);}.cls-50{clip-path:url(#clip-path-17);}.cls-51{fill:#b25712;}.cls-52{fill:#d67934;}.cls-53{clip-path:url(#clip-path-18);}.cls-54{clip-path:url(#clip-path-19);}.cls-55{fill:#682c02;}.cls-56{fill:#c1671e;}.cls-57{fill:#d6752d;}.cls-58{fill:#c97523;}.cls-59{clip-path:url(#clip-path-20);}.cls-60{fill:#f49547;}.cls-61{fill:#a8540e;}.cls-62{fill:#af5614;}</style><clipPath id="clip-path"><path class="cls-1" d="M162.15,112.7a5.79,5.79,0,0,1,3.42-.36A4.12,4.12,0,0,1,168,114.8a7.49,7.49,0,0,1-2.07,8.51,3.37,3.37,0,0,1,3.68.58,2.59,2.59,0,0,1,.06,3.56,3.89,3.89,0,0,1-2.29.86,15,15,0,0,1-4.72-.19,4.41,4.41,0,0,1-2.66-1.31,4.9,4.9,0,0,1-.84-2.85c-.1-1.36-.13-2.72-.1-4.09,0-2.44.45-5.17,2.36-6.69l-.61.75"/></clipPath><clipPath id="clip-path-2"><path class="cls-1" d="M143.62,113.05a5.78,5.78,0,0,0-3.43-.23,4.17,4.17,0,0,0-2.3,2.54,7.52,7.52,0,0,0,2.39,8.43,3.36,3.36,0,0,0-3.65.73,2.59,2.59,0,0,0,.07,3.56,4,4,0,0,0,2.32.76,14.9,14.9,0,0,0,4.71-.36,4.46,4.46,0,0,0,2.61-1.41,4.91,4.91,0,0,0,.73-2.88c.05-1.36,0-2.73,0-4.09-.15-2.44-.64-5.15-2.61-6.6l.64.73"/></clipPath><clipPath id="clip-path-3"><path class="cls-3" d="M164.11,111.4a50.89,50.89,0,0,1-4.22-14.09h-.4l-6.87,1.55-6.92-1.29h-.4a51.18,51.18,0,0,1-3.68,14.23c-3.34,8.44-.7,15.24,11.46,15.07h.14C165.38,126.6,167.76,119.7,164.11,111.4Z"/></clipPath><clipPath id="clip-path-4"><path class="cls-4" d="M165.07,94.87a4.57,4.57,0,0,0,.92-2.8c-.05-2.94-3.06-5.27-6.71-5.2-3.08.06-5.64,1.82-6.32,4.14h-.49L152,91c-.77-2.29-3.38-4-6.47-3.89-3.65.07-6.56,2.51-6.51,5.45a4.48,4.48,0,0,0,.94,2.63,5.23,5.23,0,0,0,3.15,2.18,7.7,7.7,0,0,0,2.62.39h.12a.75.75,0,0,0,.15,0,10,10,0,0,0,1.76-.19,9.05,9.05,0,0,0,9.67-.18,10.06,10.06,0,0,0,1.76.13h.29a8,8,0,0,0,2.68-.51A5.43,5.43,0,0,0,165.07,94.87Z"/></clipPath><clipPath id="clip-path-5"><path class="cls-5" d="M148.19,94.53a9,9,0,0,0,8.69-.39,4.35,4.35,0,0,1-4.3,3.51C148.55,97.72,148.19,94.53,148.19,94.53Z"/></clipPath><clipPath id="clip-path-6"><path class="cls-3" d="M148.37,110.14a26.9,26.9,0,0,1,.6,6.15,53.7,53.7,0,0,0,.81,8.21c1.72,2.29.07,3.9.07,3.9-2.65,3.64-8.17,2-7.95-1.06s2.73-2.18,2.73-2.18a73.41,73.41,0,0,1-2.19-13.64Z"/></clipPath><clipPath id="clip-path-7"><path class="cls-3" d="M157.36,110.14a27.61,27.61,0,0,0-.6,6.15,52.91,52.91,0,0,1-.8,8.21c-1.73,2.29-.07,3.9-.07,3.9,2.65,3.64,8.17,2,7.94-1.06s-2.73-2.18-2.73-2.18a74.06,74.06,0,0,0,2.2-13.64Z"/></clipPath><clipPath id="clip-path-8"><circle class="cls-8" cx="146.07" cy="89.29" r="1.63" transform="translate(-24.72 77.49) rotate(-27.48)"/></clipPath><clipPath id="clip-path-9"><circle class="cls-8" cx="158.87" cy="89.26" r="1.63" transform="translate(-23.26 83.39) rotate(-27.48)"/></clipPath><clipPath id="clip-path-10"><path class="cls-2" d="M157.16,89a.27.27,0,0,1-.12,0,11.26,11.26,0,0,0-9.1,0,.32.32,0,0,1-.42-.13.31.31,0,0,1,.13-.42,11.71,11.71,0,0,1,9.63,0,.3.3,0,0,1,.16.4A.3.3,0,0,1,157.16,89Z"/></clipPath><clipPath id="clip-path-11"><circle class="cls-3" cx="119.43" cy="113.97" r="6.62"/></clipPath><clipPath id="clip-path-12"><path class="cls-4" d="M130.2,109.07c0,2.67-4.82,6-10.77,6s-10.76-3.34-10.76-6,4.82-4.84,10.76-4.84S130.2,106.39,130.2,109.07Z"/></clipPath><clipPath id="clip-path-13"><circle class="cls-4" cx="119.43" cy="105.07" r="9.52"/></clipPath><clipPath id="clip-path-14"><path class="cls-5" d="M116.2,111.18a6.74,6.74,0,0,0,6.47-.18,3.24,3.24,0,0,1-3.25,2.55C116.43,113.55,116.2,111.18,116.2,111.18Z"/></clipPath><clipPath id="clip-path-15"><path class="cls-6" d="M85.1,121.61a20.86,20.86,0,0,1,.88,4.07s-.13.67.74.18c0,0,.51.65,1.48,0a.65.65,0,0,0,.24-.28,7.22,7.22,0,0,0,.09-4.45C87.8,117.88,84.42,118.12,85.1,121.61Z"/></clipPath><clipPath id="clip-path-16"><path class="cls-6" d="M94.57,121.61a20.86,20.86,0,0,0-.88,4.07s.13.67-.74.18c0,0-.51.65-1.48,0a.72.72,0,0,1-.24-.28,7.22,7.22,0,0,1-.09-4.45C91.87,117.88,95.25,118.12,94.57,121.61Z"/></clipPath><clipPath id="clip-path-17"><path class="cls-6" d="M97.26,118.9c0,5.54-3.39,6.09-7.58,6.09s-7.58-.55-7.58-6.09,3.4-10.05,7.58-10.05S97.26,113.35,97.26,118.9Z"/></clipPath><clipPath id="clip-path-18"><path class="cls-6" d="M83,122.87a20.86,20.86,0,0,1,.88,4.07s-.13.66.74.17c0,0,.51.66,1.48,0a.65.65,0,0,0,.24-.28,7.22,7.22,0,0,0,.09-4.45C85.66,119.14,82.28,119.37,83,122.87Z"/></clipPath><clipPath id="clip-path-19"><path class="cls-6" d="M96.21,122.87a21.64,21.64,0,0,0-.88,4.07s.14.66-.74.17c0,0-.5.66-1.47,0a.65.65,0,0,1-.24-.28,7.13,7.13,0,0,1-.09-4.45C93.51,119.14,96.89,119.37,96.21,122.87Z"/></clipPath><clipPath id="clip-path-20"><path class="cls-7" d="M86.23,113a7.21,7.21,0,0,0,6.94-.19,3.48,3.48,0,0,1-3.49,2.74C86.47,115.57,86.23,113,86.23,113Z"/></clipPath></defs><path class="cls-9" d="M143.18,96.54a2,2,0,0,0,.85,3.51.68.68,0,0,0,0,1,1.7,1.7,0,0,0,.95.43,6.82,6.82,0,0,0,5.91-1.84,4.17,4.17,0,0,0,5.27.29,2,2,0,0,0,3.32.18A1.48,1.48,0,0,0,162,98.72c.68-.13,1-1,.91-1.68a5.79,5.79,0,0,0-3.65-4.67,13.14,13.14,0,0,0-6.14-.73c-1.91.13-3.95.47-5.34,1.79-.52.48-1,1.14-1.75,1.08a4.13,4.13,0,0,1-.83-.24,1.81,1.81,0,0,0-2.14,2.53"/><path class="cls-1" d="M162.15,112.7a5.79,5.79,0,0,1,3.42-.36A4.12,4.12,0,0,1,168,114.8a7.49,7.49,0,0,1-2.07,8.51,3.37,3.37,0,0,1,3.68.58,2.59,2.59,0,0,1,.06,3.56,3.89,3.89,0,0,1-2.29.86,15,15,0,0,1-4.72-.19,4.41,4.41,0,0,1-2.66-1.31,4.9,4.9,0,0,1-.84-2.85c-.1-1.36-.13-2.72-.1-4.09,0-2.44.45-5.17,2.36-6.69l-.61.75"/><g class="cls-10"><path class="cls-11" d="M169.57,119.37a5.33,5.33,0,0,1-4.18.41,16.1,16.1,0,0,1-3.88-1.86,26.8,26.8,0,0,0-5.36,3.45,9,9,0,0,0-3.1,5.44,8.27,8.27,0,0,0,3,7,14.71,14.71,0,0,0,7.25,3.07c3.53.58,7.66.13,9.85-2.7a8.43,8.43,0,0,0,1.41-3,13.88,13.88,0,0,0-2.12-11.84A.79.79,0,0,0,172,119c-.2,0-.44.2-.33.38"/></g><path class="cls-1" d="M143.62,113.05a5.78,5.78,0,0,0-3.43-.23,4.17,4.17,0,0,0-2.3,2.54,7.52,7.52,0,0,0,2.39,8.43,3.36,3.36,0,0,0-3.65.73,2.59,2.59,0,0,0,.07,3.56,4,4,0,0,0,2.32.76,14.9,14.9,0,0,0,4.71-.36,4.46,4.46,0,0,0,2.61-1.41,4.91,4.91,0,0,0,.73-2.88c.05-1.36,0-2.73,0-4.09-.15-2.44-.64-5.15-2.61-6.6l.64.73"/><g class="cls-12"><path class="cls-11" d="M136.46,120a5.43,5.43,0,0,0,4.19.25,15.56,15.56,0,0,0,3.8-2,26.3,26.3,0,0,1,5.49,3.25,9,9,0,0,1,3.31,5.31,8.31,8.31,0,0,1-2.78,7.14,14.71,14.71,0,0,1-7.12,3.33c-3.51.72-7.65.43-9.95-2.31a8.83,8.83,0,0,1-1.53-2.91,13.91,13.91,0,0,1,1.68-11.91.78.78,0,0,1,.46-.4c.21,0,.45.18.35.36"/></g><path class="cls-3" d="M164.11,111.4a50.89,50.89,0,0,1-4.22-14.09h-.4l-6.87,1.55-6.92-1.29h-.4a51.18,51.18,0,0,1-3.68,14.23c-3.34,8.44-.7,15.24,11.46,15.07h.14C165.38,126.6,167.76,119.7,164.11,111.4Z"/><g class="cls-13"><ellipse class="cls-14" cx="153.14" cy="126.36" rx="7.99" ry="16.31" transform="translate(-2.36 2.91) rotate(-1.08)"/><ellipse class="cls-15" cx="143.27" cy="105.77" rx="3.52" ry="2.2" transform="translate(-1.97 2.72) rotate(-1.08)"/><ellipse class="cls-15" cx="162.33" cy="102.31" rx="3.52" ry="2.2" transform="translate(-1.9 3.08) rotate(-1.08)"/><ellipse class="cls-15" cx="142.31" cy="101.28" rx="3.52" ry="2.2" transform="translate(-1.89 2.7) rotate(-1.08)"/><ellipse class="cls-16" cx="152.56" cy="95.81" rx="9.99" ry="5.45" transform="translate(-1.78 2.89) rotate(-1.08)"/></g><ellipse class="cls-17" cx="152.61" cy="98.08" rx="5.6" ry="2.21" transform="translate(-1.82 2.9) rotate(-1.08)"/><path class="cls-18" d="M161.65,78.12a8.17,8.17,0,0,1,6.78-.44c3.93,1.38,3.46,3.25,2,5.76S164.2,92,157.87,85.25C157.87,85.25,158.55,79.05,161.65,78.12Z"/><path class="cls-14" d="M161.37,80a6.68,6.68,0,0,1,5.52-.26c3.22,1.17,2.86,2.66,1.71,4.65s-4.95,6.79-10.2,1.28C158.4,85.7,158.86,80.73,161.37,80Z"/><circle class="cls-19" cx="161.33" cy="83" r="2.64" transform="translate(-11.2 26.88) rotate(-9.21)"/><path class="cls-18" d="M142.82,78.48a8.14,8.14,0,0,0-6.79-.19c-3.89,1.53-3.34,3.38-1.79,5.83s6.55,8.33,12.62,1.34C146.86,85.46,146,79.28,142.82,78.48Z"/><path class="cls-14" d="M143.16,80.37a6.63,6.63,0,0,0-5.51,0c-3.18,1.28-2.77,2.76-1.55,4.71s5.21,6.59,10.25.89C146.35,85.93,145.7,81,143.16,80.37Z"/><circle class="cls-19" cx="143.32" cy="83.34" r="2.64" transform="translate(47.17 218.4) rotate(-84.73)"/><circle class="cls-4" cx="152.39" cy="86.44" r="10.74"/><path class="cls-4" d="M165.07,94.87a4.57,4.57,0,0,0,.92-2.8c-.05-2.94-3.06-5.27-6.71-5.2-3.08.06-5.64,1.82-6.32,4.14h-.49L152,91c-.77-2.29-3.38-4-6.47-3.89-3.65.07-6.56,2.51-6.51,5.45a4.48,4.48,0,0,0,.94,2.63,5.23,5.23,0,0,0,3.15,2.18,7.7,7.7,0,0,0,2.62.39h.12a.75.75,0,0,0,.15,0,10,10,0,0,0,1.76-.19,9.05,9.05,0,0,0,9.67-.18,10.06,10.06,0,0,0,1.76.13h.29a8,8,0,0,0,2.68-.51A5.43,5.43,0,0,0,165.07,94.87Z"/><g class="cls-20"><circle class="cls-17" cx="152.58" cy="96.97" r="8.68"/></g><ellipse class="cls-17" cx="152.59" cy="97.45" rx="8.59" ry="1.15" transform="matrix(1, -0.02, 0.02, 1, -1.81, 2.9)"/><ellipse class="cls-21" cx="145.27" cy="86.6" rx="2.82" ry="3.67" transform="translate(-1.61 2.76) rotate(-1.08)"/><ellipse class="cls-21" cx="159.56" cy="86.33" rx="2.82" ry="3.67" transform="translate(-1.6 3.03) rotate(-1.08)"/><path class="cls-9" d="M143.6,85.25a1.11,1.11,0,0,1-1.08-.61A1.39,1.39,0,0,0,143,86a.37.37,0,0,0,.22.1.3.3,0,0,0,.25-.22.71.71,0,0,0,0-.57l-.07.16"/><path class="cls-9" d="M143.47,86.2a1.12,1.12,0,0,1-1.07-.61,1.37,1.37,0,0,0,.48,1.34.35.35,0,0,0,.21.1.35.35,0,0,0,.26-.23.72.72,0,0,0,0-.56l-.08.16"/><path class="cls-9" d="M161.24,84.92a1.11,1.11,0,0,0,1-.65,1.39,1.39,0,0,1-.43,1.36.35.35,0,0,1-.2.1.32.32,0,0,1-.27-.21.68.68,0,0,1,0-.56l.08.15"/><path class="cls-9" d="M161.4,85.86a1.11,1.11,0,0,0,1-.65,1.38,1.38,0,0,1-.42,1.36.35.35,0,0,1-.21.1.32.32,0,0,1-.27-.21.77.77,0,0,1,0-.56l.08.15"/><ellipse class="cls-22" cx="159.57" cy="86.87" rx="2.4" ry="3.14" transform="translate(-1.61 3.03) rotate(-1.08)"/><ellipse cx="159.57" cy="86.87" rx="1.83" ry="2.39" transform="translate(-1.61 3.03) rotate(-1.08)"/><ellipse class="cls-22" cx="158.58" cy="85.28" rx="0.67" ry="0.8" transform="translate(-1.58 3.01) rotate(-1.08)"/><path class="cls-9" d="M143.54,83.68a1.72,1.72,0,0,1,1.73-1.17,2,2,0,0,1,1,.38,2.69,2.69,0,0,1,.39.36,3.07,3.07,0,0,1,.27.46l-.92-.31a3.21,3.21,0,0,0-.82-.16A3.44,3.44,0,0,0,143.54,83.68Z"/><path class="cls-9" d="M161.22,83.35a3.37,3.37,0,0,0-1.7-.38,3.23,3.23,0,0,0-.82.19l-.91.34a3,3,0,0,1,.26-.46,2.65,2.65,0,0,1,.37-.38,2.09,2.09,0,0,1,1-.42A1.69,1.69,0,0,1,161.22,83.35Z"/><ellipse class="cls-22" cx="145.22" cy="87.14" rx="2.4" ry="3.14" transform="translate(-1.62 2.75) rotate(-1.08)"/><ellipse cx="145.22" cy="87.14" rx="1.83" ry="2.39" transform="translate(-1.62 2.75) rotate(-1.08)"/><ellipse class="cls-22" cx="144.23" cy="85.56" rx="0.67" ry="0.8" transform="translate(-1.59 2.74) rotate(-1.08)"/><path class="cls-4" d="M141.46,91.54c0-1.28,1.35-2.35,3.08-2.39A3.61,3.61,0,0,1,147,90"/><path class="cls-4" d="M157.83,89.6a3.74,3.74,0,0,1,2.22-.74c1.72,0,3.14,1,3.16,2.27"/><path class="cls-5" d="M148.19,94.53a9,9,0,0,0,8.69-.39,4.35,4.35,0,0,1-4.3,3.51C148.55,97.72,148.19,94.53,148.19,94.53Z"/><g class="cls-23"><ellipse class="cls-24" cx="152.6" cy="98.55" rx="2.91" ry="1.69" transform="translate(-1.83 2.9) rotate(-1.08)"/><ellipse class="cls-22" cx="152.53" cy="94.76" rx="2.98" ry="1.78" transform="translate(-1.76 2.89) rotate(-1.08)"/></g><ellipse class="cls-25" cx="152.49" cy="91.94" rx="6.18" ry="3.7" transform="translate(-1.71 2.89) rotate(-1.08)"/><ellipse class="cls-15" cx="152.46" cy="90.47" rx="3.76" ry="1.94" transform="translate(-1.68 2.89) rotate(-1.08)"/><ellipse class="cls-26" cx="151.31" cy="89.32" rx="0.89" ry="0.45" transform="translate(-1.66 2.87) rotate(-1.08)"/><path class="cls-9" d="M143.06,85.75A2.55,2.55,0,0,1,145.27,84a2.13,2.13,0,0,1,1.91,1.36,2.8,2.8,0,0,0-2-1,2.93,2.93,0,0,0-2.41,2.56A3.07,3.07,0,0,1,143.06,85.75Z"/><path class="cls-9" d="M161.68,85.4a2.55,2.55,0,0,0-2.28-1.68,2.14,2.14,0,0,0-1.85,1.44,2.81,2.81,0,0,1,1.91-1.06A3,3,0,0,1,162,86.57,3.12,3.12,0,0,0,161.68,85.4Z"/><path class="cls-27" d="M142.35,89.89a3,3,0,0,0,3.88.51"/><path class="cls-27" d="M162.55,89.51a3,3,0,0,1-3.86.66"/><path class="cls-9" d="M160.17,77.92A7.59,7.59,0,0,0,157,74.64a1.31,1.31,0,0,0-.25-.22l-1.21-.82-.41-.27a1.19,1.19,0,0,0-.38-.21,2.83,2.83,0,0,1-.58-.11,1.71,1.71,0,0,1-.43-.42A1.15,1.15,0,0,0,152,73a7.09,7.09,0,0,0-5.16,2.12h0a7.56,7.56,0,0,0-2.57,3.11,1.4,1.4,0,0,0-.09,1.27,1.44,1.44,0,0,0,1.11.52c.55.08,1.25,0,1.47-.48a.55.55,0,0,0,.4.61,1.3,1.3,0,0,0,.8-.07A4.49,4.49,0,0,0,149.62,79a.85.85,0,0,0,.26.11c.45.07.85-.31,1.11-.68a6.44,6.44,0,0,0,1-2,3.32,3.32,0,0,0,2.1,2,1.86,1.86,0,0,0,.33,0,4.57,4.57,0,0,0,2.14,1.43,1.37,1.37,0,0,0,.8,0,.56.56,0,0,0,.38-.63c.24.5.94.52,1.49.43a1.44,1.44,0,0,0,1.08-.56A1.38,1.38,0,0,0,160.17,77.92Z"/><path class="cls-27" d="M148.63,80.77a11.14,11.14,0,0,0,7.09-.14"/><path class="cls-27" d="M149.8,81.72a7.5,7.5,0,0,0,4.79-.09"/><path class="cls-3" d="M148.37,110.14a26.9,26.9,0,0,1,.6,6.15,53.7,53.7,0,0,0,.81,8.21c1.72,2.29.07,3.9.07,3.9-2.65,3.64-8.17,2-7.95-1.06s2.73-2.18,2.73-2.18a73.41,73.41,0,0,1-2.19-13.64Z"/><g class="cls-28"><path class="cls-15" d="M141.28,120.74a9.88,9.88,0,0,0,9.33-.92,21.25,21.25,0,0,1,3,8c.38,2.37.22,5.13-1.59,6.7a8.45,8.45,0,0,1-3.28,1.49c-2.06.57-4.32,1.08-6.28.2a7.86,7.86,0,0,1-3.59-4.13,12.1,12.1,0,0,1-1.31-5.73,6.79,6.79,0,0,1,2.56-5.15l-.52.43"/></g><path class="cls-3" d="M157.36,110.14a27.61,27.61,0,0,0-.6,6.15,52.91,52.91,0,0,1-.8,8.21c-1.73,2.29-.07,3.9-.07,3.9,2.65,3.64,8.17,2,7.94-1.06s-2.73-2.18-2.73-2.18a74.06,74.06,0,0,0,2.2-13.64Z"/><g class="cls-29"><path class="cls-15" d="M164.46,120.74a9.88,9.88,0,0,1-9.33-.92,21.26,21.26,0,0,0-3.06,8c-.38,2.37-.21,5.13,1.6,6.7A8.32,8.32,0,0,0,157,136c2.05.57,4.32,1.08,6.27.2a7.92,7.92,0,0,0,3.6-4.13,12.34,12.34,0,0,0,1.31-5.73,6.82,6.82,0,0,0-2.56-5.15l.52.43"/></g><path class="cls-30" d="M148.42,104.17c-.32.7-.7,1.7-.09,2.36s1.64.35,2.36,0l-.25-.06a2,2,0,0,0,3.64-.13l-.29,0a2.58,2.58,0,0,0,1.92.87,1.42,1.42,0,0,0,1.26-1l-.33,0a1.33,1.33,0,0,0,2.06.27c.73-.76.17-1.94-.51-2.52-.18-.15-.44.11-.26.26a1.6,1.6,0,0,1,.64,1.8.94.94,0,0,1-1.62,0,.18.18,0,0,0-.33,0c-.38,1.31-1.93.57-2.57,0a.19.19,0,0,0-.29,0,1.64,1.64,0,0,1-3,.12.19.19,0,0,0-.25-.06c-.56.26-1.46.61-1.94,0s-.07-1.35.17-1.88c.1-.22-.21-.4-.31-.19Z"/><circle class="cls-8" cx="146.07" cy="89.29" r="1.63" transform="translate(-24.72 77.49) rotate(-27.48)"/><g class="cls-31"><path class="cls-32" d="M145.88,87.27c-.28.51-.55,1-.81,1.57,0,.09-.08.21,0,.29s.08.05.12.08a.32.32,0,0,1,.07.3,2.53,2.53,0,0,1-.19.45,11.21,11.21,0,0,0-.47,1.07c0,.08-.07.2,0,.25a.15.15,0,0,0,.19,0,.5.5,0,0,0,.11-.17l.68-1.51a.38.38,0,0,0,0-.34.94.94,0,0,1-.09-.12.33.33,0,0,1,0-.3l.71-1.34a.24.24,0,0,0,0-.14c0-.09-.14-.11-.23-.12"/></g><path class="cls-33" d="M146.07,91.2A1.91,1.91,0,1,1,148,89.29,1.9,1.9,0,0,1,146.07,91.2Zm0-3.49a1.59,1.59,0,1,0,1.59,1.58A1.59,1.59,0,0,0,146.06,87.71Z"/><path class="cls-34" d="M144.27,89.3a1.81,1.81,0,0,1,1.79-1.81"/><path class="cls-34" d="M147.7,89.33a1.61,1.61,0,0,1-1.58,1.59"/><circle class="cls-35" cx="144.28" cy="89.44" r="0.05"/><circle class="cls-35" cx="147.7" cy="89.21" r="0.04"/><circle class="cls-8" cx="158.87" cy="89.26" r="1.63" transform="translate(-23.26 83.39) rotate(-27.48)"/><g class="cls-36"><path class="cls-32" d="M158.69,87.24q-.44.77-.81,1.56c0,.1-.09.22,0,.3l.12.08a.29.29,0,0,1,.07.3,1.6,1.6,0,0,1-.19.45c-.18.34-.32.7-.47,1.06,0,.09-.07.2,0,.26a.15.15,0,0,0,.19,0,.5.5,0,0,0,.11-.17l.68-1.52a.36.36,0,0,0,0-.33s-.07-.08-.09-.12a.33.33,0,0,1,.05-.3l.71-1.35a.21.21,0,0,0,0-.13c0-.09-.13-.12-.23-.12"/></g><path class="cls-33" d="M158.88,91.17a1.91,1.91,0,1,1,1.9-1.92A1.91,1.91,0,0,1,158.88,91.17Zm0-3.49a1.58,1.58,0,1,0,1.58,1.58A1.57,1.57,0,0,0,158.87,87.68Z"/><path class="cls-34" d="M157.07,89.26a1.8,1.8,0,0,1,1.8-1.8"/><path class="cls-34" d="M160.5,89.3a1.6,1.6,0,0,1-1.58,1.59"/><circle class="cls-35" cx="157.08" cy="89.41" r="0.05"/><circle class="cls-35" cx="160.5" cy="89.18" r="0.04"/><path class="cls-2" d="M157.16,89a.27.27,0,0,1-.12,0,11.26,11.26,0,0,0-9.1,0,.32.32,0,0,1-.42-.13.31.31,0,0,1,.13-.42,11.71,11.71,0,0,1,9.63,0,.3.3,0,0,1,.16.4A.3.3,0,0,1,157.16,89Z"/><g class="cls-37"><path class="cls-38" d="M147.12,89.17a10,10,0,0,1,5.45-1.41,10.88,10.88,0,0,1,5.79,1.6l-1.82,1.15-8.45-.08Z"/></g><ellipse class="cls-35" cx="150.91" cy="87.65" rx="1.36" ry="0.1" transform="translate(-10.24 20.66) rotate(-7.58)"/><ellipse class="cls-35" cx="152.77" cy="87.5" rx="0.37" ry="0.09" transform="translate(-0.22 0.38) rotate(-0.14)"/><path class="cls-39" d="M114.32,116.07a60.64,60.64,0,0,0,1.41,6,1.59,1.59,0,0,0,1.52.65,1.1,1.1,0,0,0,1-1.06c0-1,.09-3.37.15-4a3,3,0,0,0-2.43-3.08C114,114.28,114.32,116.07,114.32,116.07Z"/><path class="cls-40" d="M115.73,122l.3,3.35a1.09,1.09,0,0,0-1.35.87c-.38,1.18,2.8,1.72,3.63.56s.06-1.63.06-1.63l-.14-3.42S117.54,122.71,115.73,122Z"/><path class="cls-39" d="M124.85,115.76a60.59,60.59,0,0,1-1.08,6,1.61,1.61,0,0,1-1.48.73,1.08,1.08,0,0,1-1-1c-.08-1-.28-3.36-.37-3.94a3,3,0,0,1,2.26-3.2A1.25,1.25,0,0,1,124.85,115.76Z"/><path class="cls-40" d="M123.77,121.78l-.11,3.36a1.09,1.09,0,0,1,1.39.8c.44,1.15-2.7,1.87-3.59.76s-.15-1.63-.15-1.63l0-3.42S122,122.57,123.77,121.78Z"/><circle class="cls-3" cx="119.43" cy="113.97" r="6.62"/><g class="cls-41"><ellipse class="cls-14" cx="119.43" cy="122.05" rx="3.52" ry="4.06"/><ellipse class="cls-15" cx="112.59" cy="114.64" rx="1.13" ry="0.67"/><ellipse class="cls-15" cx="112.41" cy="116.24" rx="1.13" ry="0.67"/><ellipse class="cls-15" cx="126.06" cy="113.97" rx="1.13" ry="0.67"/><ellipse class="cls-15" cx="126.06" cy="115.46" rx="1.13" ry="0.67"/><ellipse class="cls-42" cx="119.43" cy="111.69" rx="6.1" ry="4.35"/></g><path class="cls-18" d="M113.29,98.79a7.25,7.25,0,0,0-4.75-3.7c-3.57-1-4.15.66-4.34,3.22s.31,9.39,8.32,7.59C112.52,105.9,115.1,101,113.29,98.79Z"/><path class="cls-14" d="M112.54,100.32a5.92,5.92,0,0,0-3.91-2.93c-2.95-.75-3.43.53-3.58,2.56s.26,7.44,6.85,6C111.9,106,114,102.08,112.54,100.32Z"/><path class="cls-18" d="M125.58,98.79a7.25,7.25,0,0,1,4.75-3.7c3.57-1,4.15.66,4.34,3.22s-.31,9.39-8.32,7.59C126.35,105.9,123.76,101,125.58,98.79Z"/><path class="cls-14" d="M126.32,100.32a6,6,0,0,1,3.92-2.93c2.94-.75,3.42.53,3.58,2.56s-.26,7.44-6.85,6C127,106,124.83,102.08,126.32,100.32Z"/><path class="cls-4" d="M130.2,109.07c0,2.67-4.82,6-10.77,6s-10.76-3.34-10.76-6,4.82-4.84,10.76-4.84S130.2,106.39,130.2,109.07Z"/><g class="cls-43"><path class="cls-17" d="M126.64,110.36c.46,3.34-3,4.72-6.94,4.72s-7.47-1.27-7.39-4.68c.06-2.61,3.45-4.75,7.39-4.75S126.28,107.78,126.64,110.36Z"/></g><circle class="cls-19" cx="111.01" cy="101.89" r="2.34"/><circle class="cls-19" cx="127.32" cy="101.89" r="2.34"/><circle class="cls-4" cx="119.43" cy="105.07" r="9.52"/><g class="cls-44"><ellipse class="cls-17" cx="119.53" cy="111.23" rx="7.12" ry="4.22"/></g><path class="cls-5" d="M116.2,111.18a6.74,6.74,0,0,0,6.47-.18,3.24,3.24,0,0,1-3.25,2.55C116.43,113.55,116.2,111.18,116.2,111.18Z"/><g class="cls-45"><ellipse class="cls-24" cx="119.42" cy="114.22" rx="2.16" ry="1.26"/><ellipse class="cls-22" cx="119.42" cy="111.4" rx="2.21" ry="1.32"/></g><ellipse class="cls-21" cx="113.13" cy="105.1" rx="2.5" ry="3.26"/><ellipse class="cls-21" cx="125.79" cy="105.1" rx="2.5" ry="3.26"/><ellipse class="cls-22" cx="113.07" cy="105.57" rx="2.13" ry="2.78"/><ellipse cx="113.07" cy="105.57" rx="1.62" ry="2.12"/><ellipse class="cls-22" cx="112.23" cy="104.15" rx="0.59" ry="0.71"/><ellipse class="cls-22" cx="125.79" cy="105.57" rx="2.13" ry="2.78"/><ellipse cx="125.79" cy="105.57" rx="1.62" ry="2.12"/><ellipse class="cls-22" cx="124.95" cy="104.15" rx="0.59" ry="0.71"/><path class="cls-9" d="M123.19,96.32c.43.76-1.63,0-1.63,0a.83.83,0,0,0,.42,1.24,1.64,1.64,0,0,1-1.89-1c-1,1.14-.34,3.37-.34,3.37-2-.53-1.51-3.61-1.51-3.61-.67.19-1.6,1.57-1.6,1.57a3.63,3.63,0,0,1,.7-1.61l-.9.37c-.81.43-1.43.48-1.6-.09,0,0,.54-1.58,4-1.74a1.59,1.59,0,0,0-.46-1.38s1.49.22,1.74,1.38A3.71,3.71,0,0,1,123.19,96.32Z"/><ellipse class="cls-25" cx="119.43" cy="109.31" rx="4.59" ry="2.75"/><ellipse class="cls-15" cx="119.43" cy="108.22" rx="2.79" ry="1.44"/><ellipse class="cls-26" cx="118.59" cy="107.34" rx="0.66" ry="0.33"/><path class="cls-9" d="M111.65,102.48a1.51,1.51,0,0,1,1.55-1,1.76,1.76,0,0,1,.92.35,1.72,1.72,0,0,1,.57.74l-.81-.29a3.43,3.43,0,0,0-.73-.16A3.14,3.14,0,0,0,111.65,102.48Z"/><path class="cls-9" d="M127.32,102.48a3.15,3.15,0,0,0-1.51-.37,3.35,3.35,0,0,0-.72.16l-.82.29a1.83,1.83,0,0,1,.58-.74,1.73,1.73,0,0,1,.92-.35A1.52,1.52,0,0,1,127.32,102.48Z"/><ellipse class="cls-19" cx="109.94" cy="108.74" rx="0.69" ry="0.36"/><path class="cls-3" d="M113.24,117.21a60.73,60.73,0,0,0,.83,6.07,1.59,1.59,0,0,0,1.45.79,1.1,1.1,0,0,0,1.08-1c.12-1,.41-3.34.53-3.92A3,3,0,0,0,115,115.9C113.11,115.4,113.24,117.21,113.24,117.21Z"/><path class="cls-15" d="M114.07,123.28l0,3.36a1.1,1.1,0,0,0-1.43.74c-.48,1.13,2.63,2,3.56.91s.22-1.62.22-1.62l.2-3.42S115.8,124.14,114.07,123.28Z"/><path class="cls-3" d="M125.78,117.22a59.07,59.07,0,0,1-.4,6.1,1.57,1.57,0,0,1-1.39.89,1.07,1.07,0,0,1-1.14-.87c-.2-1-.65-3.31-.8-3.88a3,3,0,0,1,1.88-3.43A1.24,1.24,0,0,1,125.78,117.22Z"/><path class="cls-15" d="M125.38,123.32l.26,3.35a1.1,1.1,0,0,1,1.48.64c.57,1.1-2.48,2.16-3.49,1.16s-.33-1.6-.33-1.6l-.43-3.4S123.71,124.31,125.38,123.32Z"/><path class="cls-9" d="M97.37,123.06a1.8,1.8,0,0,0,1,.44,8.44,8.44,0,0,0,1,.12.28.28,0,0,1-.19-.12.45.45,0,0,1,.5.29,2.74,2.74,0,0,0-.15-1.7,1.62,1.62,0,0,0-1.35-1,.9.9,0,0,0-.65.21A1.51,1.51,0,0,0,97.37,123.06Z"/><path class="cls-46" d="M95,120.52s3.06.48,3.15,2c0,0-.31-.37-3.15-.72S93.47,120.42,95,120.52Z"/><path class="cls-6" d="M85.1,121.61a20.86,20.86,0,0,1,.88,4.07s-.13.67.74.18c0,0,.51.65,1.48,0a.65.65,0,0,0,.24-.28,7.22,7.22,0,0,0,.09-4.45C87.8,117.88,84.42,118.12,85.1,121.61Z"/><g class="cls-47"><path class="cls-48" d="M85.17,124.64c.1,0,1.2,1.09,4.11.31v1.77l-4.26,0-.93-1.6Z"/></g><path class="cls-6" d="M94.57,121.61a20.86,20.86,0,0,0-.88,4.07s.13.67-.74.18c0,0-.51.65-1.48,0a.72.72,0,0,1-.24-.28,7.22,7.22,0,0,1-.09-4.45C91.87,117.88,95.25,118.12,94.57,121.61Z"/><g class="cls-49"><path class="cls-48" d="M94.5,124.64c-.09,0-1.2,1.09-4.11.31v1.77l4.27,0,.92-1.6Z"/></g><path class="cls-6" d="M97.26,118.9c0,5.54-3.39,6.09-7.58,6.09s-7.58-.55-7.58-6.09,3.4-10.05,7.58-10.05S97.26,113.35,97.26,118.9Z"/><g class="cls-50"><ellipse class="cls-51" cx="89.68" cy="112.82" rx="7.94" ry="5.24"/><ellipse class="cls-52" cx="89.68" cy="124.73" rx="4.34" ry="0.58"/></g><path class="cls-6" d="M83,122.87a20.86,20.86,0,0,1,.88,4.07s-.13.66.74.17c0,0,.51.66,1.48,0a.65.65,0,0,0,.24-.28,7.22,7.22,0,0,0,.09-4.45C85.66,119.14,82.28,119.37,83,122.87Z"/><g class="cls-53"><path class="cls-48" d="M83,125.9c.1,0,1.2,1.08,4.11.3V128l-4.26,0L82,126.33Z"/></g><path class="cls-6" d="M96.21,122.87a21.64,21.64,0,0,0-.88,4.07s.14.66-.74.17c0,0-.5.66-1.47,0a.65.65,0,0,1-.24-.28,7.13,7.13,0,0,1-.09-4.45C93.51,119.14,96.89,119.37,96.21,122.87Z"/><g class="cls-54"><path class="cls-48" d="M96.15,125.9c-.1,0-1.2,1.08-4.12.3V128l4.27,0,.92-1.61Z"/></g><path class="cls-55" d="M84.35,100.73a3.27,3.27,0,0,0-.84,2.32.64.64,0,0,0,.08.3.61.61,0,0,0,.35.17,25.1,25.1,0,0,0,11.5,0,.58.58,0,0,0,.4-.21.57.57,0,0,0,0-.46,5.6,5.6,0,0,0-.46-1.47,4.76,4.76,0,0,0-1.27-1.22,5.82,5.82,0,0,0-2.34-1C89.53,98.86,86.08,98.84,84.35,100.73Z"/><path class="cls-56" d="M85.54,104.37c1.67,1.47-.64,3.44-2.23,4.23s-3.69-.17-4.68-2.17-.52-4.25,1.07-5S84,103,85.54,104.37Z"/><path class="cls-57" d="M84,104.39c1.15.86-.24,2.25-1.22,2.84a2.67,2.67,0,0,1-2.7-4.46C81.05,102.17,82.93,103.6,84,104.39Z"/><path class="cls-56" d="M93.83,104.37c-1.67,1.47.64,3.44,2.23,4.23s3.69-.17,4.68-2.17.52-4.25-1.07-5S95.36,103,93.83,104.37Z"/><path class="cls-57" d="M95.38,104.39c-1.15.86.23,2.25,1.22,2.84a2.67,2.67,0,0,0,2.7-4.46C98.32,102.17,96.44,103.6,95.38,104.39Z"/><ellipse class="cls-58" cx="89.68" cy="112.03" rx="10.67" ry="4.69"/><ellipse class="cls-58" cx="89.68" cy="108.61" rx="9.43" ry="8.11"/><circle class="cls-22" cx="83.56" cy="108.85" r="2.29"/><circle cx="83.56" cy="108.85" r="1.71"/><circle class="cls-22" cx="82.7" cy="107.78" r="0.62"/><circle class="cls-22" cx="95.81" cy="108.85" r="2.29"/><circle cx="95.81" cy="108.85" r="1.71"/><circle class="cls-22" cx="94.95" cy="107.78" r="0.62"/><path class="cls-7" d="M86.23,113a7.21,7.21,0,0,0,6.94-.19,3.48,3.48,0,0,1-3.49,2.74C86.47,115.57,86.23,113,86.23,113Z"/><g class="cls-59"><ellipse class="cls-24" cx="89.68" cy="116.29" rx="2.32" ry="1.35"/><ellipse class="cls-22" cx="89.68" cy="113.27" rx="2.38" ry="1.42"/></g><path class="cls-22" d="M85.89,112.64s-.88.42-1.08.56.85.53,1.91.19Z"/><path class="cls-22" d="M93.48,112.64s.88.42,1.08.56-.85.53-1.91.19Z"/><path class="cls-60" d="M93.52,112.3c0,1.14-1.72,2.07-3.84,2.07s-3.83-.93-3.83-2.07a3.86,3.86,0,0,1,7.67,0Z"/><ellipse class="cls-61" cx="87.6" cy="112.12" rx="0.49" ry="0.9"/><ellipse class="cls-61" cx="91.76" cy="112.12" rx="0.49" ry="0.9"/><ellipse class="cls-56" cx="80.68" cy="111.21" rx="0.91" ry="0.3"/><ellipse class="cls-56" cx="98.44" cy="111.21" rx="0.91" ry="0.3"/><path class="cls-9" d="M87.6,101.85a3.43,3.43,0,0,0,2.51,3.21s0-3,1.17-3c0,0-.24,1.18.48,1.72a8.65,8.65,0,0,0,.89-1.54v1s1.87-.65,1.68-1.84-1.74-2.92-4.8-2.92S85,100.23,85,101.35a1.81,1.81,0,0,0,.84,1.69l.27-1a1.64,1.64,0,0,0,1,1.65S87.23,102.1,87.6,101.85Z"/><ellipse class="cls-62" cx="82.7" cy="116.92" rx="0.55" ry="0.24" transform="translate(-42.61 186.26) rotate(-83.69)"/><ellipse class="cls-62" cx="82.95" cy="118.28" rx="0.46" ry="0.21" transform="translate(-43.74 187.72) rotate(-83.69)"/><ellipse class="cls-62" cx="96.64" cy="116.92" rx="0.21" ry="0.46" transform="translate(-10.48 9.52) rotate(-5.35)"/><ellipse class="cls-19" cx="128.99" cy="108.45" rx="0.69" ry="0.36"/></svg>