<svg id="Layer_11" data-name="Layer 11" xmlns="http://www.w3.org/2000/svg" xmlns:xlink="http://www.w3.org/1999/xlink" viewBox="0 0 260 168"><defs><style>.cls-1{fill:#e8ba67;}.cls-2{fill:#ce994d;}.cls-3{fill:#dda854;}.cls-4{fill:#301c00;}.cls-5{fill:#d8a34e;}.cls-6{fill:#471e00;}.cls-7{fill:#fff;}.cls-8{fill:#c41e1e;}.cls-9{clip-path:url(#clip-path);}.cls-10{fill:#a06f20;}.cls-11{fill:#7a4609;}.cls-12{fill:#d69936;}.cls-13{fill:#7a3100;}.cls-14{fill:#ffd38d;}</style><clipPath id="clip-path"><path class="cls-1" d="M17.74,117.39s.73.09.55.73c-.33,1.15-1.08,1.94-4,1.61s-3.46-1.3-4.62-1.2-10,4.72-16.37-3a32.75,32.75,0,0,1-2.19-2.65l-.47-.93,1-.49-.62-.63c.94-.33,2.74-3,2.74-3,.1-7.54,3.71-11.44,12.35-11.79s9.7,6.77,9.7,6.77c.5,1.4.05,4.59,3.43,5.13,4.33.69,2.93,5.37,1.77,6.23,0,0-.51,1.46-5.07.65a2,2,0,0,0-1.87,1.5A8.25,8.25,0,0,0,17.74,117.39Z"/></clipPath></defs><path class="cls-2" d="M.87,128.17s-4.56,5.39-5.46,6a2.12,2.12,0,0,1-2.17-.23,1.44,1.44,0,0,1-.45-1.85c.63-1.22,2.06-4,2.37-4.67a4,4,0,0,1,4.78-2C2.38,126.31.87,128.17.87,128.17Z"/><path class="cls-3" d="M-4.85,115.24a34.38,34.38,0,0,0-9.92,1.53c-9.57,2.7-11.72,4-11.57,10.07.18,7.08,4.33,6.6,10.84,6.93S4,133.9,4.62,120.23C5.4,104.51-4.85,115.24-4.85,115.24Z"/><path class="cls-3" d="M-2.27,126.52S.66,132.93.82,134a2.14,2.14,0,0,1-1.13,1.87,1.44,1.44,0,0,1-1.87-.38c-.83-1.09-2.7-3.55-3.21-4.13a4,4,0,0,1,.23-5.18A1.65,1.65,0,0,1-2.27,126.52Z"/><path class="cls-4" d="M.82,134l2.26,3.82a1.44,1.44,0,0,1,2.12-.1c1.31,1-1.69,4-3.47,3.41S.41,139.42.41,139.42l-2.49-3.78S-.59,136.14.82,134Z"/><path class="cls-5" d="M7.73,97a9,9,0,0,0-6-4.52c-4.49-1.1-5.18.93-5.35,4.14S-3,108.3,6.93,105.86C6.93,105.86,10.05,99.68,7.73,97Z"/><path class="cls-6" d="M17.61,114.94a3.13,3.13,0,0,0-.19,2.74l-1.43.55-5.25-1.8.14-2,4.77-.71Z"/><path class="cls-7" d="M12,114c-.09.68,1.38,1.35,3.25,1.71,2.65.49,3.5-.07,3.6-.75s-1.36-1.44-3.25-1.71S12.07,113.34,12,114Z"/><ellipse class="cls-8" cx="13.46" cy="117.2" rx="1.24" ry="3.19" transform="translate(-104.42 121.89) rotate(-85.73)"/><path class="cls-1" d="M17.74,117.39s.73.09.55.73c-.33,1.15-1.08,1.94-4,1.61s-3.46-1.3-4.62-1.2-10,4.72-16.37-3a32.75,32.75,0,0,1-2.19-2.65l-.47-.93,1-.49-.62-.63c.94-.33,2.74-3,2.74-3,.1-7.54,3.71-11.44,12.35-11.79s9.7,6.77,9.7,6.77c.5,1.4.05,4.59,3.43,5.13,4.33.69,2.93,5.37,1.77,6.23,0,0-.51,1.46-5.07.65a2,2,0,0,0-1.87,1.5A8.25,8.25,0,0,0,17.74,117.39Z"/><g class="cls-9"><path class="cls-10" d="M6.32,114.33c.17,3.47,4.46,6.08,9.58,5.83s9.14-3.26,9-6.73-3.58-6.9-8.7-6.65S6.15,110.86,6.32,114.33Z"/></g><path class="cls-4" d="M16.89,109.59c0,1,1.64,1.72,3.57,1.63s2.23-.92,2.18-1.91-.43-1.78-2.35-1.69S16.84,108.59,16.89,109.59Z"/><ellipse class="cls-11" cx="20.54" cy="108.32" rx="0.83" ry="0.41" transform="translate(-5.2 1.12) rotate(-2.76)"/><ellipse class="cls-12" cx="5.88" cy="110.78" rx="0.86" ry="0.44" transform="translate(-5.34 0.41) rotate(-2.76)"/><path class="cls-13" d="M6.93,96.58a3.36,3.36,0,0,1,1.41-1.41,5.32,5.32,0,0,1,2.92.38,4.63,4.63,0,0,1,2,1.76c.06,1.19-.13,3-1.8,3.56,0,0,.75-2.82-.62-4.18a2.06,2.06,0,0,1-2.31,1.36A1,1,0,0,0,9,96.48S6.43,97.55,6.93,96.58Z"/><path class="cls-13" d="M8,92.36a2.88,2.88,0,0,1-1.2,2.87.91.91,0,0,0-.36.34.52.52,0,0,0,.29.61,1.35,1.35,0,0,0,.72.07c1-.1,1.6-.23,1.68-1.3a3.21,3.21,0,0,0-.24-1.47C8.73,93.14,8,92.62,8,92.36Z"/><path class="cls-13" d="M4.74,97.61l.38-1.06a6.92,6.92,0,0,0-3.37,1.91l0-1.18a8.49,8.49,0,0,0-3.53,2.1,1.16,1.16,0,0,0-.07-.78,5.21,5.21,0,0,1-1.62.61,2.25,2.25,0,0,1,.58-1.86,5.15,5.15,0,0,1,1.64-1.16,16.2,16.2,0,0,1,2.8-1.12l-.36-.34a10.48,10.48,0,0,1,4.39,0l.13-.39S9,94.7,7.56,96a10,10,0,0,1-1,.62A13.53,13.53,0,0,1,4.74,97.61Z"/><path class="cls-1" d="M-3,102.21a6.8,6.8,0,0,1-.7-1.78,4.59,4.59,0,0,0-.43,2.89,2.93,2.93,0,0,0-.94-.61A2.49,2.49,0,0,0-4.78,104a5.44,5.44,0,0,0-1.41.47,7,7,0,0,0,1.16.67,4.82,4.82,0,0,0-1.09.7l1,.19c-.35.87-.73,1.74-1.13,2.58a44.9,44.9,0,0,1,6.75-2.62l0-3.37c0-.79-.09-3-1.32-2.95-.51,0-1,.63-1.3,1S-3.21,101.92-3,102.21Z"/><path class="cls-1" d="M12.65,108.43a8.89,8.89,0,0,1-.54,1.12,3,3,0,0,1-.78.69,4.54,4.54,0,0,1-4.65,0,5.49,5.49,0,0,1-2-2.3,5.58,5.58,0,0,1-.6-2.66,3.88,3.88,0,0,1,1-2.49,5.07,5.07,0,0,1,1.38-1,7,7,0,0,1,3-.85,4,4,0,0,1,2.88,1.08,4.75,4.75,0,0,1,1.14,2.82,6,6,0,0,0,.07,1.53c.2.44.64.22,1,.4A3.87,3.87,0,0,0,12.65,108.43Z"/><ellipse class="cls-14" cx="9.28" cy="106.05" rx="3.13" ry="4.07" transform="translate(-5.1 0.57) rotate(-2.76)"/><ellipse class="cls-7" cx="9.31" cy="106.64" rx="2.66" ry="3.48" transform="translate(-5.13 0.57) rotate(-2.76)"/><ellipse cx="9.31" cy="106.64" rx="2.03" ry="2.65" transform="matrix(1, -0.05, 0.05, 1, -5.13, 0.57)"/><ellipse class="cls-7" cx="10.28" cy="104.82" rx="0.74" ry="0.89" transform="translate(-5.04 0.62) rotate(-2.77)"/><path class="cls-13" d="M6.85,102.47A3.27,3.27,0,0,1,8,100.34a1.83,1.83,0,0,1,1.26-.49,1.2,1.2,0,0,1,1,.76,1.62,1.62,0,0,0-1-.13,2.26,2.26,0,0,0-.78.48C8,101.4,7.49,102,6.85,102.47Z"/><path class="cls-1" d="M11.48,110.18a5.8,5.8,0,0,1-1.14.5,22.14,22.14,0,0,0-2.44,1.09,3.49,3.49,0,0,0-1.19.88A3.71,3.71,0,0,0,6.22,115c0,.4,0,.9-.43,1a.63.63,0,0,1-.6-.13,1.64,1.64,0,0,1-.4-.5,7.18,7.18,0,0,1-1.07-2.7,18.88,18.88,0,0,0,2.69-1.08,1.38,1.38,0,0,0,.52-.37c.28-.34.22-.86.44-1.24l2.18.26a2.19,2.19,0,0,0,1.5-.16c.21-.14.51-.67.8-.58S11.64,110.07,11.48,110.18Z"/></svg>