<svg id="Layer_3" data-name="Layer 3" xmlns="http://www.w3.org/2000/svg" xmlns:xlink="http://www.w3.org/1999/xlink" viewBox="0 0 260 168"><defs><style>.cls-1{fill:#dda854;}.cls-2{fill:#e8ba67;}.cls-3{fill:#bc6319;}.cls-4{fill:#c97523;}.cls-5{fill:#994a0a;}.cls-6{fill:#7a3100;}.cls-7{fill:#ce994d;}.cls-8{fill:#1e1000;}.cls-9{clip-path:url(#clip-path);}.cls-10{fill:#f7d19a;}.cls-11{fill:#301c00;}.cls-12{fill:#d8a34e;}.cls-13{fill:#471e00;}.cls-14{fill:#fff;}.cls-15{fill:#c41e1e;}.cls-16{clip-path:url(#clip-path-2);}.cls-17{fill:#a06f20;}.cls-18{fill:#7a4609;}.cls-19{fill:#d69936;}.cls-20{fill:#ffd38d;}.cls-21{fill:#c1681f;}.cls-22{clip-path:url(#clip-path-3);}.cls-23{fill:#a04908;}.cls-24{clip-path:url(#clip-path-4);}.cls-25{clip-path:url(#clip-path-5);}.cls-26{fill:#db853e;}.cls-27{clip-path:url(#clip-path-6);}.cls-28{fill:#cc6b23;}.cls-29{fill:#f49547;}.cls-30{fill:#a8540e;}.cls-31{fill:#c1671e;}.cls-32{fill:#e5813e;}.cls-33{fill:#c66c22;}.cls-34{clip-path:url(#clip-path-7);}.cls-35{clip-path:url(#clip-path-8);}.cls-36{fill:none;stroke:#b75818;stroke-linecap:round;stroke-linejoin:round;stroke-width:0.37px;}</style><clipPath id="clip-path"><path class="cls-1" d="M218.1,118.43a34,34,0,0,1,9.81,1.51c9.47,2.68,11.6,4,11.45,10-.18,7-4.28,6.53-10.72,6.86s-19.25.13-19.92-13.4C208,107.82,218.1,118.43,218.1,118.43Z"/></clipPath><clipPath id="clip-path-2"><path class="cls-2" d="M198.53,110.17s-.66-.3-.84.33c-.32,1.14-.11,2.19,2.54,3.45s3.59.71,4.51,1.41,5.94,9.17,15.32,6a31.87,31.87,0,0,0,3.22-1.09l.89-.53-.58-.93.85-.21c-.62-.77-.74-3.93-.74-3.93,3.84-6.4,2.84-11.56-4.23-16.36s-11.69.63-11.69.63c-1.15.91-2.45,3.83-5.56,2.52-4-1.69-5.27,3-4.75,4.31,0,0-.33,1.5,3.92,3.2a2,2,0,0,1,.8,2.23A8.19,8.19,0,0,1,198.53,110.17Z"/></clipPath><clipPath id="clip-path-3"><path class="cls-3" d="M189.67,136.71s1.4,4.57,1.33,6.14c0,0-.21,1,1.11.26,0,0,.77,1,2.23,0a.94.94,0,0,0,.36-.43c.31-.69,1-2.81.13-6.7C193.74,131.09,188.65,131.44,189.67,136.71Z"/></clipPath><clipPath id="clip-path-4"><path class="cls-3" d="M174.82,136.71s1.39,4.57,1.32,6.14c0,0-.21,1,1.12.26,0,0,.76,1,2.22,0a1,1,0,0,0,.37-.43c.31-.69,1-2.81.12-6.7C178.89,131.09,173.79,131.44,174.82,136.71Z"/></clipPath><clipPath id="clip-path-5"><path class="cls-4" d="M174.92,109.6s27.61,1.77,29.22,17.64-34.59,8.4-41.41,5.21l14.66-5.67Z"/></clipPath><clipPath id="clip-path-6"><path class="cls-5" d="M161.14,128s3.13,1,4.85-.35c0,0-1.3,3.36-4.24,2.27A1.52,1.52,0,0,1,161.14,128Z"/></clipPath><clipPath id="clip-path-7"><path class="cls-4" d="M178.5,136.71s1.39,4.57,1.33,6.14c0,0-.21,1,1.11.26,0,0,.77,1,2.23,0a1.08,1.08,0,0,0,.36-.43c.31-.69,1-2.81.13-6.7C182.57,131.09,177.47,131.44,178.5,136.71Z"/></clipPath><clipPath id="clip-path-8"><path class="cls-4" d="M193.35,136.71s1.4,4.57,1.33,6.14c0,0-.21,1,1.12.26,0,0,.76,1,2.22,0a1,1,0,0,0,.37-.43,14.35,14.35,0,0,0,1-8.3C198.25,129.49,192.33,131.44,193.35,136.71Z"/></clipPath></defs><path class="cls-6" d="M243.16,128l-.44.12a4,4,0,0,1,1.89,1.94,12.86,12.86,0,0,1,1.34,3.64,10.69,10.69,0,0,1-2.81-.55,3.45,3.45,0,0,1-2-1.92l0,1.12-.68-1.18a2.7,2.7,0,0,1-.53,1c-.4.48-2.43-2.1-2.58-2.4-.43-.81-.95-2.25-.41-3.13s2.08-.67,2.95-.49A6.41,6.41,0,0,1,243.16,128Z"/><path class="cls-7" d="M229.32,130.31s1.66,6.78,2.2,7.71a2.09,2.09,0,0,0,2,.76,1.44,1.44,0,0,0,1.22-1.44c0-1.36-.08-4.41,0-5.18a4,4,0,0,0-3.35-3.88C228.82,128,229.32,130.31,229.32,130.31Z"/><path class="cls-8" d="M231.52,138l.58,4.36a1.43,1.43,0,0,0-1.71,1.22c-.42,1.55,3.77,2.08,4.78.52s0-2.14,0-2.14l-.38-4.47S233.92,138.82,231.52,138Z"/><path class="cls-7" d="M212.3,130.31a80,80,0,0,0,2.19,7.71,2.09,2.09,0,0,0,2,.76,1.43,1.43,0,0,0,1.22-1.44c0-1.36-.07-4.41,0-5.18a4,4,0,0,0-3.36-3.88C211.79,128,212.3,130.31,212.3,130.31Z"/><path class="cls-8" d="M214.49,138l.59,4.36a1.44,1.44,0,0,0-1.72,1.22c-.42,1.55,3.77,2.08,4.78.52s0-2.14,0-2.14l-.38-4.47S216.9,138.82,214.49,138Z"/><path class="cls-1" d="M218.1,118.43a34,34,0,0,1,9.81,1.51c9.47,2.68,11.6,4,11.45,10-.18,7-4.28,6.53-10.72,6.86s-19.25.13-19.92-13.4C208,107.82,218.1,118.43,218.1,118.43Z"/><g class="cls-9"><path class="cls-10" d="M215.2,135a1.09,1.09,0,0,1,.35-.91,1.13,1.13,0,0,1,.7-.14,16.72,16.72,0,0,1,3.91.87,23.48,23.48,0,0,0,13.54-.33,3.71,3.71,0,0,1,1.63-.29,1.27,1.27,0,0,1,1.12,1.15,1.53,1.53,0,0,1-.24.8c-1,1.67-3,2-4.83,2.14a41,41,0,0,1-10.08-.12C219.58,137.83,215.23,137.72,215.2,135Z"/></g><path class="cls-6" d="M221.91,116.57l-.5.34,2,.79c1.47.58,3,1.24,3.85,2.59a7.32,7.32,0,0,0-3.66-1.13,11.91,11.91,0,0,1-1.89-.07,20.72,20.72,0,0,1-3.46-.64c-1-.54-.26-1.24-.73-2.28-.38-.82,0-3.41,1.33-2.34.5.39.73,1.19,1.21,1.65C220.3,115.69,221.59,116.79,221.91,116.57Z"/><ellipse class="cls-11" cx="223.41" cy="125.24" rx="1.49" ry="0.79"/><ellipse class="cls-11" cx="227.29" cy="127.29" rx="1.49" ry="0.79"/><ellipse class="cls-11" cx="234.96" cy="125.55" rx="1.49" ry="0.79"/><ellipse class="cls-11" cx="230.02" cy="122.28" rx="2.43" ry="0.79"/><path class="cls-1" d="M214.43,131.35s2.54,6.5,3.2,7.34a2.08,2.08,0,0,0,2.1.48,1.43,1.43,0,0,0,1-1.59c-.21-1.34-.67-4.36-.73-5.12a4,4,0,0,0-3.84-3.4C213.61,129.12,214.43,131.35,214.43,131.35Z"/><path class="cls-11" d="M217.63,138.69l1.16,4.24a1.44,1.44,0,0,0-1.54,1.44c-.21,1.6,4,1.56,4.81-.12s-.3-2.12-.3-2.12l-1-4.38S220.12,139.16,217.63,138.69Z"/><path class="cls-1" d="M231,131.08s3.81,6.43,4.79,7.3a2.38,2.38,0,0,0,2.1.51,1.42,1.42,0,0,0,1-1.57c-.18-1.34.29-4.4.24-5.16-.06-1-2.11-3.45-4.68-3.43A3.9,3.9,0,0,0,231,131.08Z"/><path class="cls-11" d="M235.75,138.38l1.1,4.26s-1.32-.18-1.56,1.42,4,1.61,4.81-.06-.27-2.12-.27-2.12l-.9-4.39S238.24,138.89,235.75,138.38Z"/><ellipse class="cls-11" cx="233.94" cy="130.29" rx="1.49" ry="0.79"/><path class="cls-6" d="M225.38,114.1a2.68,2.68,0,0,0,.13,2.29,1.17,1.17,0,0,1-1.06-.42,3.39,3.39,0,0,1,.16,1,2.85,2.85,0,0,0,.93,1.8,3.35,3.35,0,0,1-2.7-2.71,4.12,4.12,0,0,1,1.23-3.62c.37-.36,1-.85,1.49-.32S225.53,113.59,225.38,114.1Z"/><path class="cls-12" d="M217.62,98.21a9,9,0,0,1,7.42-.65c4.35,1.42,3.87,3.49,2.34,6.27s-6.64,9.54-13.74,2.29C213.64,106.12,214.24,99.3,217.62,98.21Z"/><path class="cls-13" d="M199.92,108.18a3.06,3.06,0,0,1-1.27,2.4l.92,1.21,5.35,1.23.92-1.75-3.64-3.09Z"/><path class="cls-14" d="M205.14,110.35c-.27.62-1.86.42-3.62-.26-2.49-1-2.91-1.89-2.64-2.51s1.9-.5,3.63.27S205.42,109.73,205.14,110.35Z"/><ellipse class="cls-15" cx="202.23" cy="112.25" rx="1.23" ry="3.15" transform="translate(9.13 239.57) rotate(-62.43)"/><path class="cls-2" d="M198.53,110.17s-.66-.3-.84.33c-.32,1.14-.11,2.19,2.54,3.45s3.59.71,4.51,1.41,5.94,9.17,15.32,6a31.87,31.87,0,0,0,3.22-1.09l.89-.53-.58-.93.85-.21c-.62-.77-.74-3.93-.74-3.93,3.84-6.4,2.84-11.56-4.23-16.36s-11.69.63-11.69.63c-1.15.91-2.45,3.83-5.56,2.52-4-1.69-5.27,3-4.75,4.31,0,0-.33,1.5,3.92,3.2a2,2,0,0,1,.8,2.23A8.19,8.19,0,0,1,198.53,110.17Z"/><g class="cls-16"><path class="cls-17" d="M209.73,113.56c-1.95,2.83-6.92,2.79-11.1-.09s-6-7.52-4-10.35,6.61-3.93,10.79-1.05S211.68,110.73,209.73,113.56Z"/></g><path class="cls-11" d="M203.32,104.06c-.55.81-2.28.59-3.85-.5s-1.39-1.93-.84-2.74,1.29-1.27,2.86-.19S203.88,103.25,203.32,104.06Z"/><ellipse class="cls-18" cx="200.91" cy="101.08" rx="0.41" ry="0.82" transform="translate(3.61 209.05) rotate(-55.4)"/><ellipse class="cls-19" cx="211.96" cy="110.81" rx="0.44" ry="0.85" transform="translate(0.38 222.34) rotate(-55.4)"/><path class="cls-6" d="M218.48,98.32A3.36,3.36,0,0,0,218,96.4a5.18,5.18,0,0,0-2.66-1.2,4.59,4.59,0,0,0-2.58.44c-.67,1-1.48,2.63-.35,3.94,0,0,.85-2.77,2.71-3.2a2,2,0,0,0,1.23,2.35,1,1,0,0,1,.43-1.56S218.4,99.39,218.48,98.32Z"/><path class="cls-6" d="M219.8,94.22a2.87,2.87,0,0,0-.5,3,.82.82,0,0,1,.13.47.5.5,0,0,1-.56.36,1.24,1.24,0,0,1-.64-.31c-.79-.61-1.23-1-.73-2a3,3,0,0,1,1-1.11C218.77,94.49,219.62,94.42,219.8,94.22Z"/><ellipse class="cls-11" cx="218" cy="118.1" rx="0.98" ry="0.63" transform="translate(27.98 277.35) rotate(-68.41)"/><ellipse class="cls-11" cx="219.48" cy="120.11" rx="0.98" ry="0.63" transform="translate(-29.13 148.19) rotate(-35.13)"/><path class="cls-6" d="M219.79,100.33l.24-1.09a7,7,0,0,1,1.83,3.36l.63-1a8.25,8.25,0,0,1,1.87,3.6,1.21,1.21,0,0,1,.47-.62,5,5,0,0,0,1,1.36,2.26,2.26,0,0,0,.48-1.87,5.45,5.45,0,0,0-.77-1.83,17.26,17.26,0,0,0-1.77-2.4l.48-.1a10.3,10.3,0,0,0-3.71-2.27l.09-.4s-2.92-1.42-2.4.38a7.8,7.8,0,0,0,.56,1.07A11.28,11.28,0,0,0,219.79,100.33Z"/><path class="cls-2" d="M226.1,104.39a8.92,8.92,0,0,1,7.37,1c3.92,2.37,3,4.27.86,6.63s-8.62,7.79-13.9-.88C220.43,111.19,222.56,104.68,226.1,104.39Z"/><path class="cls-10" d="M225.37,106.37a7.35,7.35,0,0,1,6,1c3.2,2,2.47,3.5.79,5.38s-6.84,6.17-11.24-.93C220.9,111.79,222.52,106.56,225.37,106.37Z"/><path class="cls-2" d="M223.93,108.26a6.46,6.46,0,0,0,1.52-1.13,4.55,4.55,0,0,1-1.15,2.66,2.82,2.82,0,0,1,1.12,0,2.51,2.51,0,0,1-.94.86,5.44,5.44,0,0,1,.94,1.14,8.33,8.33,0,0,1-1.32,0,4.41,4.41,0,0,1,.55,1.16l-.91-.34c-.16.91-.29,1.83-.4,2.76a43.49,43.49,0,0,0-4.3-5.73l1.79-2.81c.43-.66,1.63-2.46,2.65-1.79.42.27.52,1,.58,1.5C224.09,106.75,224.23,108.11,223.93,108.26Z"/><ellipse class="cls-11" cx="220.96" cy="115.78" rx="1.43" ry="0.91" transform="translate(32.01 278.64) rotate(-68.41)"/><path class="cls-2" d="M207.49,105.29a8.71,8.71,0,0,0-.13,1.23,2.48,2.48,0,0,0,.3,1,4.49,4.49,0,0,0,3.91,2.42,5.88,5.88,0,0,0,4.76-2.82,3.84,3.84,0,0,0,.44-2.63,5.27,5.27,0,0,0-.66-1.52,7,7,0,0,0-2.1-2.29,3.88,3.88,0,0,0-3-.59,4.61,4.61,0,0,0-2.42,1.77c-.26.33-.53,1-.87,1.25s-.65-.15-1-.2A3.9,3.9,0,0,1,207.49,105.29Z"/><ellipse class="cls-20" cx="211.56" cy="105.05" rx="4.03" ry="3.09" transform="matrix(0.57, -0.82, 0.82, 0.57, 4.94, 219.53)"/><ellipse class="cls-14" cx="211.23" cy="105.54" rx="3.44" ry="2.63" transform="translate(4.4 219.46) rotate(-55.39)"/><ellipse cx="211.23" cy="105.54" rx="2.62" ry="2" transform="translate(4.4 219.46) rotate(-55.39)"/><ellipse class="cls-14" cx="211.36" cy="103.49" rx="0.88" ry="0.73" transform="translate(6.14 218.69) rotate(-55.39)"/><path class="cls-6" d="M215.47,103.32a2.42,2.42,0,0,1-2-1.06,1.93,1.93,0,0,1-.33-1.21,1.72,1.72,0,0,1,.47-1.09,3.5,3.5,0,0,0,.53,1.86A12,12,0,0,0,215.47,103.32Z"/><path class="cls-2" d="M207.56,107.38a5.82,5.82,0,0,0,.69,1,20.23,20.23,0,0,1,1.49,2.2,3.41,3.41,0,0,1,.54,1.36,3.77,3.77,0,0,1-.82,2.25c-.22.33-.43.78-.18,1.09a.66.66,0,0,0,.57.2,1.73,1.73,0,0,0,.59-.21,7.28,7.28,0,0,0,2.32-1.71,18.05,18.05,0,0,1-1.7-2.31,1.55,1.55,0,0,1-.25-.59c-.05-.43.27-.83.28-1.27l-2-.92a2.19,2.19,0,0,1-1.18-.92c-.1-.22-.08-.83-.37-.9S207.48,107.21,207.56,107.38Z"/><path class="cls-6" d="M205.48,136.21a2.66,2.66,0,0,0,1.48.67,11,11,0,0,0,1.52.17.38.38,0,0,1-.28-.18.7.7,0,0,1,.75.45,4.18,4.18,0,0,0-.23-2.57,2.44,2.44,0,0,0-2-1.44,1.4,1.4,0,0,0-1,.31A2.29,2.29,0,0,0,205.48,136.21Z"/><path class="cls-21" d="M201.84,132.39s4.61.72,4.74,3c0,0-.47-.57-4.74-1.1S199.6,132.23,201.84,132.39Z"/><path class="cls-3" d="M189.67,136.71s1.4,4.57,1.33,6.14c0,0-.21,1,1.11.26,0,0,.77,1,2.23,0a.94.94,0,0,0,.36-.43c.31-.69,1-2.81.13-6.7C193.74,131.09,188.65,131.44,189.67,136.71Z"/><g class="cls-22"><path class="cls-23" d="M189.77,141.28c.15.06,1.81,1.63,6.2.46v2.67l-6.43-.06-1.39-2.42Z"/></g><path class="cls-3" d="M174.82,136.71s1.39,4.57,1.32,6.14c0,0-.21,1,1.12.26,0,0,.76,1,2.22,0a1,1,0,0,0,.37-.43c.31-.69,1-2.81.12-6.7C178.89,131.09,173.79,131.44,174.82,136.71Z"/><g class="cls-24"><path class="cls-23" d="M174.91,141.28c.15.06,1.81,1.63,6.2.46v2.67l-6.43-.06-1.39-2.42Z"/></g><path class="cls-4" d="M163.42,113.26s-2.62,5.25-7.75,4.56l4.23,4.35,1.83-.06,2.15-5.68S165.75,112.91,163.42,113.26Z"/><path class="cls-4" d="M174.92,109.6s27.61,1.77,29.22,17.64-34.59,8.4-41.41,5.21l14.66-5.67Z"/><g class="cls-25"><path class="cls-26" d="M185.49,139.14s-18.3-3.52-10.15-3.66,10.15,1.27,20.19.73-5.7,2.77-5.7,2.77l-4,.05"/></g><ellipse class="cls-4" cx="163.3" cy="129.93" rx="2.46" ry="3.53" transform="translate(-4.36 254.19) rotate(-75.05)"/><path class="cls-4" d="M162.24,131.85c4.61,2.24,13,4.81,19.65,2.36l-11.67-7.42-9.06-.43-1.79.64"/><path class="cls-4" d="M185.16,130.78c-1,3.77-6.52,5.45-14.32,3.37s-13.3-6.83-12.29-10.6,8.14-5.14,15.94-3.06S186.17,127,185.16,130.78Z"/><path class="cls-4" d="M186.12,125.29c-1.52,7.27-6.27,11.26-13.85,9.23s-13.25-8.82-11.5-15.34,5.71-11.23,13.44-9.9C184,111,187.71,117.68,186.12,125.29Z"/><path class="cls-4" d="M155.67,117.82s3.25-.06,4.46,2.33l-.24,7.8s-3.43-.92-6.8-2.25Z"/><path class="cls-5" d="M161.14,128s3.13,1,4.85-.35c0,0-1.3,3.36-4.24,2.27A1.52,1.52,0,0,1,161.14,128Z"/><g class="cls-27"><ellipse class="cls-15" cx="163.54" cy="131.17" rx="2.02" ry="2.54" transform="matrix(0.26, -0.97, 0.97, 0.26, -5.37, 255.34)"/><ellipse class="cls-14" cx="163.16" cy="126.84" rx="2.02" ry="2.54" transform="translate(-1.47 251.76) rotate(-75.05)"/></g><path class="cls-28" d="M154.14,126.06s6.59,3,10.8,2.11l.23-.29s-6.9-.72-10.32-2.28Z"/><path class="cls-29" d="M157.46,123.48A3.12,3.12,0,0,1,153.8,126c-1.69-.33-1.63-1.74-1.3-3.44s1.19-5.06,2.88-4.73S157.79,121.78,157.46,123.48Z"/><ellipse class="cls-30" cx="154.31" cy="122.6" rx="1.36" ry="0.73" transform="translate(4.64 250.82) rotate(-79.05)"/><circle class="cls-14" cx="168.87" cy="121.34" r="3.45" transform="translate(-35.75 158.38) rotate(-45.96)"/><path d="M169.23,118.24a2.81,2.81,0,0,0-.86-.07,1,1,0,0,1,.26.91.92.92,0,0,1-1.82-.23,2.58,2.58,0,1,0,2.42-.61Z"/><ellipse class="cls-31" cx="171.29" cy="125.67" rx="0.45" ry="1.37" transform="translate(5.69 258.75) rotate(-75.05)"/><path class="cls-6" d="M173,110.79a4.7,4.7,0,0,0-1.11-3.19,6.67,6.67,0,0,0-2.29-.54,5.81,5.81,0,0,0-4.63,1.87,5.49,5.49,0,0,0-1.23,2.47,5.44,5.44,0,0,0-.08,1l.3.85a5.24,5.24,0,0,0,1.46,1.25s1.16-4.35,2.87-3.9c0,0-.81,1.64,0,2.71a12.93,12.93,0,0,0,1.89-1.91l-.38,1.41S172.81,112.59,173,110.79Z"/><path class="cls-6" d="M175.36,111a3.7,3.7,0,0,0,0,.88,23.4,23.4,0,0,1,2.52-.28l-.23.78a11,11,0,0,1,4.88,0,5.13,5.13,0,0,0-1.49-2,16.85,16.85,0,0,0-5.67-2.86,15.22,15.22,0,0,0-5.17-1.08,5.6,5.6,0,0,0-4.61,2.21l3.93.06a.48.48,0,0,1,.29.07.53.53,0,0,1,.14.3l.24,1.25a5,5,0,0,1,.91-.68.24.24,0,0,1,.2,0c.07,0,.1.1.13.16a6.85,6.85,0,0,0,.4,1c.9-.38.86.19.69.85A2.84,2.84,0,0,0,175.36,111Z"/><path class="cls-6" d="M183,109.6a10.34,10.34,0,0,0,1.07.49c.46.16,1,.23,1.43.36a10.56,10.56,0,0,1,2.08.88l4.53,2.3a2.65,2.65,0,0,1-3-.36,1.3,1.3,0,0,1-1.48.57,4.35,4.35,0,0,1-1.47-.85,1.29,1.29,0,0,0-.87-.35,3.41,3.41,0,0,0-.5.19c-1,.4-2.09-.49-2.85-1.3a1.64,1.64,0,0,1-1.68.11c-.23-.13-.43-.3-.66-.41a4.57,4.57,0,0,0-1.53-.2c-.51,0-1.1-.28-1.21-.78a1.61,1.61,0,0,1-1.66.45,4.73,4.73,0,0,1-1.56-.91l-2-1.56c-.94-.72-.54-1.19.4-1.15a34.6,34.6,0,0,1,3.67.4A23.66,23.66,0,0,1,183,109.6Z"/><path class="cls-4" d="M176.73,112.11s4.05-2.59,7.26-.32,3,6.39-6.45,10.71C177.54,122.5,174.65,115.31,176.73,112.11Z"/><path class="cls-32" d="M176.52,113.4s2.89-1.85,5.19-.23,2.15,4.56-4.6,7.64C177.11,120.81,175,115.68,176.52,113.4Z"/><ellipse class="cls-33" cx="191.41" cy="116.61" rx="2.06" ry="0.65"/><ellipse class="cls-33" cx="195.26" cy="118.88" rx="2.06" ry="0.65"/><path class="cls-4" d="M178.5,136.71s1.39,4.57,1.33,6.14c0,0-.21,1,1.11.26,0,0,.77,1,2.23,0a1.08,1.08,0,0,0,.36-.43c.31-.69,1-2.81.13-6.7C182.57,131.09,177.47,131.44,178.5,136.71Z"/><g class="cls-34"><path class="cls-23" d="M178.59,141.28c.15.06,1.81,1.63,6.21.46v2.67l-6.43-.06L177,141.93Z"/></g><path class="cls-4" d="M193.35,136.71s1.4,4.57,1.33,6.14c0,0-.21,1,1.12.26,0,0,.76,1,2.22,0a1,1,0,0,0,.37-.43,14.35,14.35,0,0,0,1-8.3C198.25,129.49,192.33,131.44,193.35,136.71Z"/><g class="cls-35"><path class="cls-23" d="M193.45,141.28c.15.06,1.81,1.63,6.2.46v2.67l-6.43-.06-1.39-2.42Z"/></g><path class="cls-14" d="M165.33,127.64s-1.32.65-1.62.85,1.28.79,2.89.27Z"/><ellipse class="cls-4" cx="166.94" cy="127.94" rx="1.33" ry="1.72" transform="translate(0.27 256.23) rotate(-75.05)"/><path class="cls-36" d="M167.28,127.13s-1.61.09-1.51,1.59,2.3,1.53,3.78.55"/></svg>