<svg id="Layer_1" data-name="Layer 1" xmlns="http://www.w3.org/2000/svg" xmlns:xlink="http://www.w3.org/1999/xlink" viewBox="0 0 260 168"><defs><style>.cls-1{fill:#dda854;}.cls-2{fill:#e8ba67;}.cls-3{fill:#7a3100;}.cls-4{fill:#ce994d;}.cls-5{fill:#1e1000;}.cls-6{clip-path:url(#clip-path);}.cls-7{fill:#f7d19a;}.cls-8{fill:#301c00;}.cls-9{fill:#d8a34e;}.cls-10{fill:#471e00;}.cls-11{fill:#fff;}.cls-12{fill:#c41e1e;}.cls-13{clip-path:url(#clip-path-2);}.cls-14{fill:#a06f20;}.cls-15{fill:#7a4609;}.cls-16{fill:#d69936;}.cls-17{fill:#ffd38d;}</style><clipPath id="clip-path"><path class="cls-1" d="M141.92,131a34,34,0,0,1,9.81,1.51c9.47,2.68,11.6,4,11.45,10-.18,7-4.28,6.53-10.72,6.85s-19.25.13-19.92-13.39C131.77,120.39,141.92,131,141.92,131Z"/></clipPath><clipPath id="clip-path-2"><path class="cls-2" d="M146.86,131.15a32.27,32.27,0,0,1-3,1.67c-8.62,4.86-15.14-2.51-16.18-3s-1.87.19-4.7-.54-3.24-1.73-3.14-2.91c.06-.65.76-.48.76-.48,3.59,1.08,4.75-1.12,5.38-1.43a27.87,27.87,0,0,0-2.79-.26c-4.5-.87-4.46-2.4-4.46-2.4-.76-1.2-.4-6,3.85-5.13,3.31.7,4-2.41,5-3.52,0,0,3.51-6.2,11.36-2.83s9.82,8.26,7.25,15.26c0,0,.72,3.09,1.47,3.72l-.79.37.74.8Z"/></clipPath></defs><path class="cls-3" d="M167,140.58l-.44.13a4,4,0,0,1,1.89,1.93,12.86,12.86,0,0,1,1.34,3.64,10.3,10.3,0,0,1-2.81-.55,3.42,3.42,0,0,1-2-1.92l0,1.12-.68-1.17a2.66,2.66,0,0,1-.53,1c-.4.48-2.43-2.1-2.58-2.39-.43-.82-.95-2.26-.41-3.14s2.08-.67,2.95-.49A6.48,6.48,0,0,1,167,140.58Z"/><path class="cls-4" d="M153.14,142.89a79.52,79.52,0,0,0,2.2,7.7,2.09,2.09,0,0,0,2,.76,1.43,1.43,0,0,0,1.22-1.44c0-1.36-.08-4.41,0-5.18a4,4,0,0,0-3.35-3.88C152.64,140.57,153.14,142.89,153.14,142.89Z"/><path class="cls-5" d="M155.34,150.59l.58,4.36a1.43,1.43,0,0,0-1.71,1.22c-.42,1.56,3.77,2.08,4.78.52s0-2.14,0-2.14l-.38-4.46S157.74,151.39,155.34,150.59Z"/><path class="cls-4" d="M136.12,142.89s1.65,6.78,2.19,7.7a2.09,2.09,0,0,0,2,.76,1.42,1.42,0,0,0,1.22-1.44c0-1.36-.07-4.41,0-5.18a4,4,0,0,0-3.36-3.88C135.61,140.57,136.12,142.89,136.12,142.89Z"/><path class="cls-5" d="M138.31,150.59l.59,4.36a1.44,1.44,0,0,0-1.72,1.22c-.42,1.56,3.77,2.08,4.78.52s0-2.14,0-2.14l-.38-4.46S140.72,151.39,138.31,150.59Z"/><path class="cls-1" d="M141.92,131a34,34,0,0,1,9.81,1.51c9.47,2.68,11.6,4,11.45,10-.18,7-4.28,6.53-10.72,6.85s-19.25.13-19.92-13.39C131.77,120.39,141.92,131,141.92,131Z"/><g class="cls-6"><path class="cls-7" d="M139,147.52a.89.89,0,0,1,1-1.05,16.72,16.72,0,0,1,3.91.87,23.48,23.48,0,0,0,13.54-.33,3.71,3.71,0,0,1,1.63-.29,1.27,1.27,0,0,1,1.12,1.15,1.5,1.5,0,0,1-.24.8c-1,1.67-3,2-4.83,2.14a40.47,40.47,0,0,1-10.08-.11C143.4,150.4,139.05,150.29,139,147.52Z"/></g><path class="cls-3" d="M145.73,129.14l-.5.34,2,.8c1.47.57,3,1.23,3.85,2.59a7.23,7.23,0,0,0-3.66-1.14,11.91,11.91,0,0,1-1.89-.06,21.8,21.8,0,0,1-3.46-.65c-1-.53-.26-1.24-.73-2.27-.38-.83,0-3.42,1.33-2.34.5.38.73,1.18,1.21,1.64C144.12,128.26,145.41,129.36,145.73,129.14Z"/><ellipse class="cls-8" cx="147.23" cy="137.81" rx="1.49" ry="0.79"/><ellipse class="cls-8" cx="151.11" cy="139.86" rx="1.49" ry="0.79"/><ellipse class="cls-8" cx="158.78" cy="138.12" rx="1.49" ry="0.79"/><ellipse class="cls-8" cx="153.84" cy="134.85" rx="2.43" ry="0.79"/><path class="cls-1" d="M138.25,143.92s2.54,6.5,3.2,7.34a2.06,2.06,0,0,0,2.1.48,1.42,1.42,0,0,0,1-1.59c-.21-1.34-.67-4.36-.73-5.12a4,4,0,0,0-3.84-3.4C137.43,141.69,138.25,143.92,138.25,143.92Z"/><path class="cls-8" d="M141.45,151.26l1.16,4.24a1.44,1.44,0,0,0-1.54,1.45c-.21,1.59,4,1.55,4.81-.13s-.3-2.12-.3-2.12l-1-4.37S143.94,151.73,141.45,151.26Z"/><path class="cls-1" d="M154.78,143.65s3.81,6.44,4.79,7.3a2.41,2.41,0,0,0,2.1.52,1.44,1.44,0,0,0,1-1.58c-.18-1.34.29-4.39.24-5.16-.06-1-2.11-3.45-4.68-3.43A3.92,3.92,0,0,0,154.78,143.65Z"/><path class="cls-8" d="M159.57,151l1.1,4.26s-1.32-.18-1.56,1.42,4,1.61,4.81,0-.27-2.13-.27-2.13l-.9-4.38S162.06,151.46,159.57,151Z"/><ellipse class="cls-8" cx="157.76" cy="142.86" rx="1.49" ry="0.79"/><path class="cls-3" d="M147.75,124.66a2.65,2.65,0,0,0,.56,2.22,1.17,1.17,0,0,1-1.12-.21,3.21,3.21,0,0,1,.35,1,2.84,2.84,0,0,0,1.25,1.58,3.36,3.36,0,0,1-3.17-2.15,4.17,4.17,0,0,1,.53-3.79c.3-.42.86-1,1.4-.59S147.8,124.13,147.75,124.66Z"/><path class="cls-9" d="M137.12,110.52a9,9,0,0,1,7.17-2c4.54.57,4.46,2.69,3.48,5.72s-4.71,10.62-13.05,4.84C134.72,119,134,112.23,137.12,110.52Z"/><path class="cls-10" d="M121.63,123.65a3.1,3.1,0,0,1-.79,2.6l1.12,1,5.49.19.58-1.89-4.16-2.34Z"/><path class="cls-11" d="M127.17,124.8c-.15.66-1.75.77-3.61.43-2.63-.48-3.21-1.3-3.06-2s1.77-.85,3.61-.43S127.32,124.14,127.17,124.8Z"/><ellipse class="cls-12" cx="124.67" cy="127.22" rx="1.23" ry="3.15" transform="translate(-32.98 210.13) rotate(-73.32)"/><path class="cls-2" d="M146.86,131.15a32.27,32.27,0,0,1-3,1.67c-8.62,4.86-15.14-2.51-16.18-3s-1.87.19-4.7-.54-3.24-1.73-3.14-2.91c.06-.65.76-.48.76-.48,3.59,1.08,4.75-1.12,5.38-1.43a27.87,27.87,0,0,0-2.79-.26c-4.5-.87-4.46-2.4-4.46-2.4-.76-1.2-.4-6,3.85-5.13,3.31.7,4-2.41,5-3.52,0,0,3.51-6.2,11.36-2.83s9.82,8.26,7.25,15.26c0,0,.72,3.09,1.47,3.72l-.79.37.74.8Z"/><g class="cls-13"><path class="cls-14" d="M132.28,127.08c-1.38,3.15-6.27,4-10.92,2s-7.29-6.25-5.9-9.4,5.75-5.11,10.39-3.07S133.66,123.93,132.28,127.08Z"/></g><path class="cls-8" d="M124.19,119c-.39.91-2.13,1-3.88.25s-1.73-1.64-1.33-2.54,1-1.49,2.77-.73S124.59,118.06,124.19,119Z"/><ellipse class="cls-15" cx="121.26" cy="116.5" rx="0.41" ry="0.82" transform="translate(-34.17 180.67) rotate(-66.29)"/><ellipse class="cls-16" cx="133.94" cy="123.96" rx="0.44" ry="0.85" transform="translate(-33.42 196.75) rotate(-66.29)"/><path class="cls-3" d="M138,110.46a3.39,3.39,0,0,0-.8-1.8,5.18,5.18,0,0,0-2.83-.67,4.52,4.52,0,0,0-2.45.92c-.48,1.08-1,2.86.4,3.93,0,0,.3-2.88,2.05-3.65a2,2,0,0,0,1.66,2.07,1,1,0,0,1,.13-1.61S138.11,111.54,138,110.46Z"/><path class="cls-3" d="M138.51,106.19a2.88,2.88,0,0,0,.09,3.08.79.79,0,0,1,.21.44.5.5,0,0,1-.47.46,1.34,1.34,0,0,1-.7-.19c-.88-.44-1.39-.78-1.09-1.79a3.17,3.17,0,0,1,.74-1.28C137.55,106.66,138.37,106.42,138.51,106.19Z"/><ellipse class="cls-8" cx="141.26" cy="129.98" rx="0.98" ry="0.63" transform="translate(-12.68 244.65) rotate(-79.3)"/><ellipse class="cls-8" cx="143.09" cy="131.67" rx="0.98" ry="0.63" transform="translate(-51.02 143.23) rotate(-46.03)"/><path class="cls-3" d="M139.66,112.19l0-1.11a6.94,6.94,0,0,1,2.44,3l.43-1.07a8.24,8.24,0,0,1,2.52,3.18,1.25,1.25,0,0,1,.34-.7,5,5,0,0,0,1.29,1.14,2.19,2.19,0,0,0,.12-1.92,5.4,5.4,0,0,0-1.1-1.66,17.48,17.48,0,0,0-2.19-2l.45-.19a10.49,10.49,0,0,0-4.07-1.53l0-.4s-3.15-.85-2.3.82a9.65,9.65,0,0,0,.75.94A11.39,11.39,0,0,0,139.66,112.19Z"/><path class="cls-2" d="M146.62,115a9,9,0,0,1,7.44-.36c4.29,1.59,3.73,3.63,2.1,6.36s-7,9.28-13.82,1.76C142.34,122.74,143.2,115.94,146.62,115Z"/><path class="cls-7" d="M146.28,117.07a7.33,7.33,0,0,1,6.05-.18c3.52,1.34,3.09,3,1.8,5.14s-5.56,7.34-11.21,1.2C142.92,123.23,143.52,117.79,146.28,117.07Z"/><path class="cls-2" d="M145.23,119.2a6.27,6.27,0,0,0,1.27-1.4,4.46,4.46,0,0,1-.63,2.83,3,3,0,0,1,1.1-.24,2.59,2.59,0,0,1-.76,1,5.71,5.71,0,0,1,1.14.94,7.28,7.28,0,0,1-1.31.2,4.55,4.55,0,0,1,.76,1l-1-.17c0,.93.05,1.86.13,2.79a45.74,45.74,0,0,0-5.31-4.82l1.23-3.09c.29-.73,1.13-2.72,2.26-2.26.46.19.71.94.85,1.37C145.1,117.68,145.48,119,145.23,119.2Z"/><ellipse class="cls-8" cx="143.73" cy="127.14" rx="1.43" ry="0.91" transform="translate(-7.88 244.77) rotate(-79.3)"/><path class="cls-2" d="M128.52,119.39a8.39,8.39,0,0,0,.1,1.23,2.57,2.57,0,0,0,.48.91,4.48,4.48,0,0,0,4.29,1.64,5.83,5.83,0,0,0,4.15-3.67,3.75,3.75,0,0,0-.07-2.66,5.1,5.1,0,0,0-.93-1.37,7,7,0,0,0-2.49-1.85,3.89,3.89,0,0,0-3.05,0,4.64,4.64,0,0,0-2,2.2c-.2.38-.33,1.1-.62,1.39s-.67,0-1.07,0A3.86,3.86,0,0,1,128.52,119.39Z"/><ellipse class="cls-17" cx="132.47" cy="118.39" rx="4.03" ry="3.09" transform="translate(-29.19 192.06) rotate(-66.29)"/><ellipse class="cls-11" cx="132.24" cy="118.92" rx="3.44" ry="2.63" transform="translate(-29.82 192.17) rotate(-66.29)"/><ellipse cx="132.24" cy="118.92" rx="2.62" ry="2" transform="translate(-29.82 192.17) rotate(-66.29)"/><ellipse class="cls-11" cx="131.98" cy="116.89" rx="0.88" ry="0.73" transform="translate(-28.12 190.72) rotate(-66.29)"/><path class="cls-3" d="M135.5,116.17A3.94,3.94,0,0,0,134,115a4.1,4.1,0,0,0-.9-.18c-.33,0-.68,0-1.07-.08a3.12,3.12,0,0,1,.47-.34,2.6,2.6,0,0,1,.55-.21,2.31,2.31,0,0,1,1.22.06A1.87,1.87,0,0,1,135.5,116.17Z"/><path class="cls-2" d="M129,121.43a5.89,5.89,0,0,0,.87.86,18.54,18.54,0,0,1,1.88,1.88,3.39,3.39,0,0,1,.78,1.23,3.71,3.71,0,0,1-.38,2.36c-.15.37-.27.85,0,1.11a.64.64,0,0,0,.6.09,1.64,1.64,0,0,0,.54-.32,7,7,0,0,0,1.95-2.12,17.58,17.58,0,0,1-2.1-2,1.41,1.41,0,0,1-.35-.52c-.14-.42.1-.88,0-1.31l-2.1-.52a2.26,2.26,0,0,1-1.33-.69c-.15-.2-.24-.8-.54-.81S128.87,121.27,129,121.43Z"/></svg>