<svg id="Layer_15" data-name="Layer 15" xmlns="http://www.w3.org/2000/svg" xmlns:xlink="http://www.w3.org/1999/xlink" viewBox="0 0 260 168"><defs><style>.cls-1{fill:#dda854;}.cls-2{fill:#e8ba67;}.cls-3{fill:#7a3100;}.cls-4{fill:#ce994d;}.cls-5{fill:#1e1000;}.cls-6{clip-path:url(#clip-path);}.cls-7{fill:#f7d19a;}.cls-8{fill:#301c00;}.cls-9{fill:#d8a34e;}.cls-10{fill:#471e00;}.cls-11{fill:#fff;}.cls-12{fill:#c41e1e;}.cls-13{clip-path:url(#clip-path-2);}.cls-14{fill:#a06f20;}.cls-15{fill:#7a4609;}.cls-16{fill:#d69936;}.cls-17{fill:#ffd38d;}</style><clipPath id="clip-path"><path class="cls-1" d="M138.42,115.24a34.38,34.38,0,0,0-9.92,1.53c-9.57,2.7-11.72,4-11.57,10.07.19,7.08,4.33,6.6,10.84,6.93s19.45.13,20.12-13.54C148.67,104.51,138.42,115.24,138.42,115.24Z"/></clipPath><clipPath id="clip-path-2"><path class="cls-2" d="M160.82,115.39s.73,0,.62.67c-.2,1.18-.85,2-3.81,2s-3.59-.91-4.73-.67-9.41,5.78-16.6-1.17c0,0-1.86-1.65-2.47-2.39l-.57-.88.93-.6-.68-.56c.9-.43,2.39-3.26,2.39-3.26-.73-7.5,2.43-11.78,11-13.07s10.39,5.65,10.39,5.65c.65,1.34.56,4.56,4,4.72,4.39.2,3.51,5,2.46,6,0,0-.35,1.51-5,1.21a2,2,0,0,0-1.7,1.69A8.17,8.17,0,0,0,160.82,115.39Z"/></clipPath></defs><path class="cls-3" d="M113.09,124.91l.44.13a4,4,0,0,0-1.91,2,13,13,0,0,0-1.35,3.67,10.14,10.14,0,0,0,2.84-.55,3.5,3.5,0,0,0,2-1.94l0,1.13.68-1.19a2.68,2.68,0,0,0,.53,1c.41.48,2.46-2.13,2.62-2.42.43-.82.95-2.28.4-3.17s-2.09-.68-3-.49A6.44,6.44,0,0,0,113.09,124.91Z"/><path class="cls-4" d="M126.47,128.49s-5,5-5.91,5.53a2.14,2.14,0,0,1-2.15-.4,1.45,1.45,0,0,1-.31-1.89c.73-1.16,2.37-3.77,2.73-4.46a4,4,0,0,1,4.93-1.61A1.65,1.65,0,0,1,126.47,128.49Z"/><path class="cls-5" d="M120.56,134l-2.78,3.46a1.45,1.45,0,0,1,.84,2c-.44,1.56-4.34-.17-4.41-2.05s1.14-1.84,1.14-1.84l2.65-3.67S118.05,133.45,120.56,134Z"/><path class="cls-4" d="M144.14,128.17s-4.55,5.39-5.46,6a2.12,2.12,0,0,1-2.17-.23,1.45,1.45,0,0,1-.45-1.85c.63-1.22,2.06-4,2.37-4.67a4,4,0,0,1,4.79-2A1.65,1.65,0,0,1,144.14,128.17Z"/><path class="cls-5" d="M138.68,134.15l-2.5,3.67a1.45,1.45,0,0,1,1,1.88c-.32,1.6-4.35.18-4.56-1.69s1-1.93,1-1.93l2.36-3.86S136.15,133.78,138.68,134.15Z"/><path class="cls-1" d="M138.42,115.24a34.38,34.38,0,0,0-9.92,1.53c-9.57,2.7-11.72,4-11.57,10.07.19,7.08,4.33,6.6,10.84,6.93s19.45.13,20.12-13.54C148.67,104.51,138.42,115.24,138.42,115.24Z"/><g class="cls-6"><path class="cls-7" d="M141.35,131.93a.9.9,0,0,0-1.06-1.07,17.17,17.17,0,0,0-4,.89,23.76,23.76,0,0,1-13.67-.34,3.84,3.84,0,0,0-1.66-.29,1.29,1.29,0,0,0-1.13,1.16,1.54,1.54,0,0,0,.25.81c1,1.68,3,2,4.87,2.16a40.88,40.88,0,0,0,10.19-.12C136.92,134.84,141.32,134.73,141.35,131.93Z"/></g><path class="cls-3" d="M134.56,113.36l.51.34-2,.8c-1.48.58-3.07,1.25-3.89,2.62a7.26,7.26,0,0,1,3.7-1.15,12.16,12.16,0,0,0,1.91-.07,22.37,22.37,0,0,0,3.49-.64c1-.55.27-1.26.74-2.31.38-.83,0-3.45-1.35-2.36-.5.39-.73,1.2-1.21,1.66C136.19,112.46,134.89,113.57,134.56,113.36Z"/><ellipse class="cls-8" cx="133.05" cy="122.11" rx="1.51" ry="0.8"/><ellipse class="cls-8" cx="129.12" cy="124.19" rx="1.51" ry="0.8"/><ellipse class="cls-8" cx="121.38" cy="122.43" rx="1.51" ry="0.8"/><ellipse class="cls-8" cx="126.37" cy="119.12" rx="2.46" ry="0.8"/><path class="cls-1" d="M141,126.52s2.93,6.41,3.08,7.48a2.14,2.14,0,0,1-1.13,1.87,1.44,1.44,0,0,1-1.87-.38c-.83-1.09-2.7-3.55-3.21-4.13a4,4,0,0,1,.23-5.18A1.66,1.66,0,0,1,141,126.52Z"/><path class="cls-8" d="M144.09,134l2.26,3.82a1.45,1.45,0,0,1,2.13-.1c1.3,1-1.7,4-3.47,3.41s-1.33-1.71-1.33-1.71l-2.49-3.78S142.68,136.14,144.09,134Z"/><path class="cls-1" d="M124.71,125.52s1.18,7.47,1,8.78a2.43,2.43,0,0,1-1.31,1.75,1.43,1.43,0,0,1-1.82-.56c-.72-1.16-3.06-3.23-3.51-3.86-.59-.82-.58-4,1.43-5.68A4,4,0,0,1,124.71,125.52Z"/><path class="cls-8" d="M125.69,134.3l1.88,4a1.45,1.45,0,0,1,2.13.1c1.21,1.09-2.07,3.83-3.78,3.06s-1.16-1.83-1.16-1.83l-2.12-4S124.08,136.29,125.69,134.3Z"/><ellipse class="cls-8" cx="122.4" cy="127.22" rx="1.51" ry="0.8"/><path class="cls-3" d="M134.62,107.29a2.68,2.68,0,0,1-1.12,2,1.23,1.23,0,0,0,1.16.08,3.16,3.16,0,0,0-.59.85,2.87,2.87,0,0,1-1.63,1.23,3.39,3.39,0,0,0,3.64-1.29,4.23,4.23,0,0,0,.46-3.84c-.19-.49-.58-1.22-1.23-.94S134.71,106.76,134.62,107.29Z"/><path class="cls-9" d="M148.62,96.18a9.07,9.07,0,0,0-6.49-3.82c-4.59-.6-5,1.49-4.86,4.7s1.9,11.59,11.53,8.06C148.8,105.12,151.22,98.64,148.62,96.18Z"/><path class="cls-10" d="M160.42,113a3.08,3.08,0,0,0,.11,2.74l-1.36.71-5.42-1.21-.08-2,4.67-1.23Z"/><path class="cls-11" d="M154.71,112.68c0,.68,1.52,1.2,3.42,1.34,2.69.2,3.47-.46,3.49-1.14s-1.51-1.28-3.42-1.34S154.73,112,154.71,112.68Z"/><ellipse class="cls-12" cx="156.54" cy="115.68" rx="3.19" ry="1.24" transform="translate(-4.07 5.71) rotate(-2.06)"/><path class="cls-2" d="M160.82,115.39s.73,0,.62.67c-.2,1.18-.85,2-3.81,2s-3.59-.91-4.73-.67-9.41,5.78-16.6-1.17c0,0-1.86-1.65-2.47-2.39l-.57-.88.93-.6-.68-.56c.9-.43,2.39-3.26,2.39-3.26-.73-7.5,2.43-11.78,11-13.07s10.39,5.65,10.39,5.65c.65,1.34.56,4.56,4,4.72,4.39.2,3.51,5,2.46,6,0,0-.35,1.51-5,1.21a2,2,0,0,0-1.7,1.69A8.17,8.17,0,0,0,160.82,115.39Z"/><g class="cls-13"><path class="cls-14" d="M149.13,113.61c.55,3.43,5.1,5.56,10.16,4.75s8.73-4.26,8.18-7.69-4.33-6.46-9.39-5.65S148.58,110.18,149.13,113.61Z"/></g><path class="cls-8" d="M159.11,107.73c.15,1,1.82,1.53,3.73,1.23s2.11-1.16,1.95-2.14-.62-1.72-2.52-1.42S159,106.75,159.11,107.73Z"/><ellipse class="cls-15" cx="162.6" cy="106.07" rx="0.83" ry="0.41" transform="translate(-14.73 27.05) rotate(-9.1)"/><ellipse class="cls-16" cx="148.3" cy="110.13" rx="0.86" ry="0.44" transform="translate(-15.55 24.84) rotate(-9.1)"/><path class="cls-3" d="M147.78,95.9A3.34,3.34,0,0,1,149,94.35a5.16,5.16,0,0,1,2.94.06,4.58,4.58,0,0,1,2.17,1.52c.19,1.18.21,3-1.4,3.74,0,0,.44-2.89-1.08-4.09a2,2,0,0,1-2.14,1.61,1,1,0,0,0,.28-1.61S147.39,96.92,147.78,95.9Z"/><path class="cls-3" d="M148.36,91.59a2.88,2.88,0,0,1-.87,3,.87.87,0,0,0-.32.37.52.52,0,0,0,.35.58,1.39,1.39,0,0,0,.73,0c1-.21,1.56-.41,1.52-1.48a3.14,3.14,0,0,0-.4-1.43C149.18,92.29,148.44,91.85,148.36,91.59Z"/><ellipse class="cls-8" cx="139.61" cy="114.15" rx="0.99" ry="0.63" transform="translate(16.19 245.65) rotate(-86.08)"/><ellipse class="cls-8" cx="137.39" cy="115.34" rx="0.63" ry="0.99" transform="translate(-38.9 82.18) rotate(-29.36)"/><path class="cls-3" d="M145.71,97.17l.26-1.1a6.94,6.94,0,0,0-3.13,2.27l-.16-1.16a8.36,8.36,0,0,0-3.27,2.47,1.21,1.21,0,0,0-.15-.77,5.14,5.14,0,0,1-1.55.78,2.23,2.23,0,0,1,.37-1.91,5.46,5.46,0,0,1,1.5-1.33A16.55,16.55,0,0,1,142.24,95l-.4-.3a10.47,10.47,0,0,1,4.37-.46l.09-.4s3.29,0,2,1.39a8.78,8.78,0,0,1-1,.73A14,14,0,0,1,145.71,97.17Z"/><path class="cls-2" d="M138.19,98.12A9.05,9.05,0,0,0,131,95.87c-4.6.46-4.58,2.6-3.67,5.68s4.48,10.86,13.06,5.24C140.4,106.79,141.29,99.93,138.19,98.12Z"/><path class="cls-7" d="M138,100.25a7.37,7.37,0,0,0-5.87-1.72c-3.78.41-3.78,2.12-3.07,4.56s3.56,8.6,10.66,4C139.71,107.13,140.51,101.66,138,100.25Z"/><path class="cls-2" d="M138.48,102.6a6.51,6.51,0,0,1-.89-1.69,4.5,4.5,0,0,0-.11,2.92,2.92,2.92,0,0,0-1-.51,2.63,2.63,0,0,0,.48,1.2,5.72,5.72,0,0,0-1.35.63,7.48,7.48,0,0,0,1.23.53,4.43,4.43,0,0,0-1,.82l1,.08c-.24.91-.52,1.81-.83,2.69a44,44,0,0,1,6.42-3.35l-.42-3.34c-.09-.79-.41-3-1.63-2.79-.5.07-.94.74-1.18,1.12S138.28,102.33,138.48,102.6Z"/><ellipse class="cls-8" cx="137.92" cy="110.75" rx="1.45" ry="0.92" transform="translate(18.01 240.78) rotate(-86.08)"/><path class="cls-2" d="M154.77,107.05a9,9,0,0,1-.42,1.17,2.46,2.46,0,0,1-.7.77,4.51,4.51,0,0,1-4.61.51,5.93,5.93,0,0,1-3.13-4.64,3.9,3.9,0,0,1,.75-2.59,5.14,5.14,0,0,1,1.27-1.1,7.07,7.07,0,0,1,2.9-1.18,4,4,0,0,1,3,.76,4.72,4.72,0,0,1,1.44,2.67,6.19,6.19,0,0,0,.24,1.52c.25.42.66.15,1.05.28A3.86,3.86,0,0,0,154.77,107.05Z"/><ellipse class="cls-17" cx="151.16" cy="105.05" rx="3.13" ry="4.07" transform="translate(-14.71 25.23) rotate(-9.1)"/><ellipse class="cls-11" cx="151.25" cy="105.64" rx="2.66" ry="3.48" transform="translate(-14.81 25.25) rotate(-9.1)"/><ellipse cx="151.25" cy="105.64" rx="2.03" ry="2.65" transform="translate(-14.81 25.25) rotate(-9.1)"/><ellipse class="cls-11" cx="152.02" cy="103.72" rx="0.74" ry="0.89" transform="translate(-14.49 25.35) rotate(-9.1)"/><path class="cls-3" d="M148.35,101.77a3.32,3.32,0,0,1,.87-2.24,1.84,1.84,0,0,1,1.2-.63,1.2,1.2,0,0,1,1.12.64,1.66,1.66,0,0,0-1,0,2.43,2.43,0,0,0-.72.56C149.34,100.58,148.92,101.18,148.35,101.77Z"/><path class="cls-2" d="M153.8,108.92a5.81,5.81,0,0,1-1.08.62,21.49,21.49,0,0,0-2.31,1.36,3.45,3.45,0,0,0-1.08,1,3.8,3.8,0,0,0-.23,2.41c.05.4.05.9-.31,1.08a.67.67,0,0,1-.61-.07,1.75,1.75,0,0,1-.45-.45,7.34,7.34,0,0,1-1.37-2.57,18,18,0,0,0,2.56-1.37,1.49,1.49,0,0,0,.48-.42c.24-.38.12-.88.3-1.29l2.19,0a2.26,2.26,0,0,0,1.47-.34c.2-.16.44-.71.74-.66S154,108.8,153.8,108.92Z"/></svg>