<svg id="Layer_3" data-name="Layer 3" xmlns="http://www.w3.org/2000/svg" xmlns:xlink="http://www.w3.org/1999/xlink" viewBox="0 0 260 168"><defs><style>.cls-1,.cls-24,.cls-32{fill:none;}.cls-2{fill:#e8ba67;}.cls-3{fill:#471e00;}.cls-30,.cls-4{fill:#fff;}.cls-5{fill:#dda854;}.cls-6{fill:#7a3100;}.cls-7{fill:#c99343;}.cls-8{clip-path:url(#clip-path);}.cls-9{fill:#1e1101;}.cls-10{clip-path:url(#clip-path-2);}.cls-11{clip-path:url(#clip-path-3);}.cls-12{fill:#f7d19a;}.cls-13{fill:#301c00;}.cls-14{fill:#ce9849;}.cls-15{fill:#a06f20;}.cls-16{fill:#e2af5d;}.cls-17{fill:#d69936;}.cls-18{clip-path:url(#clip-path-4);}.cls-19{fill:#ffd38d;}.cls-20{clip-path:url(#clip-path-5);}.cls-21{fill:#c41e1e;}.cls-22{fill:#93621b;}.cls-23{fill:#7a4609;}.cls-24{stroke:#d8a14a;stroke-width:0.27px;}.cls-24,.cls-32{stroke-linecap:round;stroke-linejoin:round;}.cls-25{clip-path:url(#clip-path-6);}.cls-26{fill:#f4b460;}.cls-27{fill:#db9f58;}.cls-28{fill:#d7fff4;opacity:0.3;}.cls-28,.cls-30{isolation:isolate;}.cls-29{clip-path:url(#clip-path-7);}.cls-30{opacity:0.21;}.cls-31{fill:#2e2eef;}.cls-32{stroke:#457fff;stroke-width:0.09px;}.cls-33{fill:#457fff;}.cls-34{clip-path:url(#clip-path-8);}.cls-35{fill:#3d3dfc;}.cls-36{clip-path:url(#clip-path-9);}.cls-37{fill:#2d2de8;}.cls-38{fill:#c48a37;}.cls-39{fill:#190e01;}.cls-40{clip-path:url(#clip-path-10);}.cls-41{fill:#d19846;}.cls-42{clip-path:url(#clip-path-11);}.cls-43{clip-path:url(#clip-path-12);}.cls-44{clip-path:url(#clip-path-13);}.cls-45{clip-path:url(#clip-path-14);}.cls-46{clip-path:url(#clip-path-15);}</style><clipPath id="clip-path"><path class="cls-1" d="M78.41,115.58a8.66,8.66,0,0,0-5-.52,6.11,6.11,0,0,0-3.5,3.59,11,11,0,0,0,3,12.46,4.93,4.93,0,0,0-5.39.86,3.81,3.81,0,0,0-.08,5.21,5.78,5.78,0,0,0,3.35,1.25,22.27,22.27,0,0,0,6.91-.27,6.5,6.5,0,0,0,3.89-1.92,7.2,7.2,0,0,0,1.23-4.17q.21-3,.15-6c-.08-3.58-.66-7.56-3.46-9.8l.9,1.1"/></clipPath><clipPath id="clip-path-2"><path class="cls-1" d="M105.53,116.09c1.64-.45,3.41-.9,5-.33a6.13,6.13,0,0,1,3.36,3.72,11,11,0,0,1-3.5,12.34,4.92,4.92,0,0,1,5.35,1.06,3.8,3.8,0,0,1-.11,5.21,5.7,5.7,0,0,1-3.4,1.12,22.17,22.17,0,0,1-6.89-.53,6.53,6.53,0,0,1-3.82-2.06,7.3,7.3,0,0,1-1.07-4.22c-.06-2,0-4,.08-6,.21-3.57.94-7.53,3.82-9.66l-.93,1.07"/></clipPath><clipPath id="clip-path-3"><path class="cls-1" d="M75.54,113.68c5.37-12.2,6.18-20.62,6.18-20.62h.58l10,2.28,10.13-1.89H103s.5,8.44,5.4,20.83,1,22.31-16.78,22h-.2C73.68,135.93,70.2,125.83,75.54,113.68Z"/></clipPath><clipPath id="clip-path-4"><path class="cls-1" d="M74.14,89.48a6.71,6.71,0,0,1-1.36-4.09c.09-4.3,4.48-7.71,9.82-7.6,4.52.08,8.25,2.65,9.25,6h1.41c1.12-3.35,4.95-5.78,9.47-5.7,5.34.11,9.6,3.68,9.52,8A6.57,6.57,0,0,1,110.89,90a7.74,7.74,0,0,1-4.61,3.19,11.65,11.65,0,0,1-3.84.57H102a14.86,14.86,0,0,1-2.57-.28,13.25,13.25,0,0,1-14.15-.27,15,15,0,0,1-2.59.19h-.42a11.43,11.43,0,0,1-3.92-.76A7.75,7.75,0,0,1,74.14,89.48Z"/></clipPath><clipPath id="clip-path-5"><path class="cls-1" d="M98.84,89a13.28,13.28,0,0,1-12.72-.59,6.37,6.37,0,0,0,6.29,5.14C98.31,93.66,98.84,89,98.84,89Z"/></clipPath><clipPath id="clip-path-6"><path class="cls-1" d="M100.43,115a40.05,40.05,0,0,0-.87,9,77.92,77.92,0,0,1-1.18,12c-2.53,3.35-.11,5.71-.11,5.71,3.89,5.32,12,2.87,11.64-1.55s-4-3.2-4-3.2a108.28,108.28,0,0,0,3.21-20Z"/></clipPath><clipPath id="clip-path-7"><circle class="cls-1" cx="101.02" cy="80.97" r="2.12"/></clipPath><clipPath id="clip-path-8"><circle class="cls-1" cx="84.39" cy="80.97" r="2.12"/></clipPath><clipPath id="clip-path-9"><path class="cls-1" d="M86.61,80.56a.22.22,0,0,0,.16,0,14.65,14.65,0,0,1,11.82,0,.43.43,0,0,0,.58-.18A.42.42,0,0,0,99,79.8a15.19,15.19,0,0,0-12.52,0,.4.4,0,0,0-.2.53h0A.4.4,0,0,0,86.61,80.56Z"/></clipPath><clipPath id="clip-path-10"><circle class="cls-5" cx="152.39" cy="107.3" r="11.44"/></clipPath><clipPath id="clip-path-11"><path class="cls-2" d="M135.59,92.31c-.73,4.56,6.57,11.59,16.71,13.22s19.28-2.75,20-7.3-6.9-9.58-17-11.21S136.32,87.76,135.59,92.31Z"/></clipPath><clipPath id="clip-path-12"><circle class="cls-2" cx="155.05" cy="88.46" r="16.44"/></clipPath><clipPath id="clip-path-13"><path class="cls-3" d="M158.88,99.76a11.64,11.64,0,0,1-11-2.08,5.59,5.59,0,0,0,4.83,5.24C157.85,103.74,158.88,99.76,158.88,99.76Z"/></clipPath><clipPath id="clip-path-14"><ellipse class="cls-4" cx="165.76" cy="91.06" rx="4.81" ry="3.67" transform="translate(49.5 240.23) rotate(-80.85)"/></clipPath><clipPath id="clip-path-15"><ellipse class="cls-4" cx="144.07" cy="87.56" rx="4.81" ry="3.67" transform="translate(34.71 215.87) rotate(-80.85)"/></clipPath></defs><path class="cls-6" d="M106.17,91.93a2.86,2.86,0,0,1,.63,4,2.91,2.91,0,0,1-1.88,1.14,1,1,0,0,1,0,1.39,2.39,2.39,0,0,1-1.39.62,10,10,0,0,1-8.65-2.69,6.1,6.1,0,0,1-7.71.44,2.92,2.92,0,0,1-4.86.25,2.21,2.21,0,0,1-2.67.55,2.25,2.25,0,0,1-1.07-2.51c-1-.19-1.39-1.43-1.33-2.45.17-3,2.54-5.63,5.34-6.84a19.41,19.41,0,0,1,9-1.07c2.8.2,5.78.69,7.82,2.62.76.71,1.53,1.67,2.56,1.59a7.31,7.31,0,0,0,1.21-.36,2.67,2.67,0,0,1,3.14,3.7"/><path class="cls-7" d="M78.41,115.58a8.66,8.66,0,0,0-5-.52,6.11,6.11,0,0,0-3.5,3.59,11,11,0,0,0,3,12.46,4.93,4.93,0,0,0-5.39.86,3.81,3.81,0,0,0-.08,5.21,5.78,5.78,0,0,0,3.35,1.25,22.27,22.27,0,0,0,6.91-.27,6.5,6.5,0,0,0,3.89-1.92,7.2,7.2,0,0,0,1.23-4.17q.21-3,.15-6c-.08-3.58-.66-7.56-3.46-9.8l.9,1.1"/><g class="cls-8"><path class="cls-9" d="M67.55,125.35a7.84,7.84,0,0,0,6.11.59,23.35,23.35,0,0,0,5.68-2.71,38.4,38.4,0,0,1,7.85,5,13.12,13.12,0,0,1,4.54,8,12.14,12.14,0,0,1-4.45,10.28A21.56,21.56,0,0,1,76.67,151c-5.17.85-11.21.19-14.42-3.94a12.69,12.69,0,0,1-2.07-4.34,20.34,20.34,0,0,1,3.1-17.33,1.14,1.14,0,0,1,.7-.55c.31,0,.65.28.49.55"/></g><path class="cls-7" d="M105.53,116.09c1.64-.45,3.41-.9,5-.33a6.13,6.13,0,0,1,3.36,3.72,11,11,0,0,1-3.5,12.34,4.92,4.92,0,0,1,5.35,1.06,3.8,3.8,0,0,1-.11,5.21,5.7,5.7,0,0,1-3.4,1.12,22.17,22.17,0,0,1-6.89-.53,6.53,6.53,0,0,1-3.82-2.06,7.3,7.3,0,0,1-1.07-4.22c-.06-2,0-4,.08-6,.21-3.57.94-7.53,3.82-9.66l-.93,1.07"/><g class="cls-10"><path class="cls-9" d="M116,126.27a7.91,7.91,0,0,1-6.13.36,23.53,23.53,0,0,1-5.57-2.93,38.21,38.21,0,0,0-8,4.75,13,13,0,0,0-4.83,7.78c-.6,3.84,1.2,7.79,4.06,10.44A21.55,21.55,0,0,0,106,151.55c5.13,1,11.19.62,14.56-3.39a12.78,12.78,0,0,0,2.23-4.26,20.37,20.37,0,0,0-2.45-17.43,1.12,1.12,0,0,0-.68-.58c-.3-.06-.66.26-.51.53"/></g><path class="cls-5" d="M75.54,113.68c5.37-12.2,6.18-20.62,6.18-20.62h.58l10,2.28,10.13-1.89H103s.5,8.44,5.4,20.83,1,22.31-16.78,22h-.2C73.68,135.93,70.2,125.83,75.54,113.68Z"/><g class="cls-11"><ellipse class="cls-12" cx="91.59" cy="135.57" rx="23.88" ry="11.7" transform="translate(-45.68 224.59) rotate(-88.92)"/><ellipse class="cls-13" cx="106.03" cy="105.44" rx="3.21" ry="5.15" transform="translate(-1.39 209.46) rotate(-88.92)"/><ellipse class="cls-13" cx="78.25" cy="100.48" rx="3.21" ry="5.15" transform="translate(-23.77 176.71) rotate(-88.85)"/><ellipse class="cls-13" cx="107.44" cy="98.87" rx="3.21" ry="5.15" transform="translate(6.56 204.43) rotate(-88.92)"/><ellipse class="cls-14" cx="92.44" cy="90.87" rx="7.98" ry="14.62" transform="translate(-0.16 181.58) rotate(-88.92)"/></g><ellipse class="cls-15" cx="92.5" cy="94.28" rx="3.24" ry="8.19" transform="translate(-3.62 184.88) rotate(-88.85)"/><path class="cls-16" d="M79.14,65a11.92,11.92,0,0,0-9.92-.65c-5.76,2-5.06,4.76-2.94,8.43s9.13,12.53,18.39,2.65C84.67,75.41,83.68,66.33,79.14,65Z"/><path class="cls-12" d="M79.54,67.77a9.7,9.7,0,0,0-8.06-.37c-4.72,1.7-4.2,3.89-2.52,6.8s7.25,9.93,14.93,1.86C83.89,76.06,83.21,68.79,79.54,67.77Z"/><circle class="cls-17" cx="79.61" cy="72.13" r="3.86"/><path class="cls-16" d="M106.7,65.5a12,12,0,0,1,9.94-.28c5.68,2.24,4.88,5,2.62,8.54s-9.6,12.18-18.48,2C100.78,75.72,102.12,66.68,106.7,65.5Z"/><path class="cls-12" d="M106.19,68.27a9.74,9.74,0,0,1,8.08-.07c4.65,1.88,4,4,2.26,6.9s-7.62,9.65-15,1.3C101.53,76.4,102.49,69.15,106.19,68.27Z"/><circle class="cls-17" cx="105.97" cy="72.61" r="3.86"/><circle class="cls-2" cx="92.13" cy="77.22" r="15.65"/><path class="cls-2" d="M74.14,89.48a6.71,6.71,0,0,1-1.36-4.09c.09-4.3,4.48-7.71,9.82-7.6,4.52.08,8.25,2.65,9.25,6h1.41c1.12-3.35,4.95-5.78,9.47-5.7,5.34.11,9.6,3.68,9.52,8A6.57,6.57,0,0,1,110.89,90a7.74,7.74,0,0,1-4.61,3.19,11.65,11.65,0,0,1-3.84.57H102a14.86,14.86,0,0,1-2.57-.28,13.25,13.25,0,0,1-14.15-.27,15,15,0,0,1-2.59.19h-.42a11.43,11.43,0,0,1-3.92-.76A7.75,7.75,0,0,1,74.14,89.48Z"/><g class="cls-18"><circle class="cls-15" cx="92.41" cy="92.56" r="12.71"/></g><ellipse class="cls-15" cx="92.38" cy="93.26" rx="1.68" ry="12.57" transform="translate(-2.6 183.87) rotate(-88.92)"/><ellipse class="cls-19" cx="103.11" cy="77.39" rx="5.38" ry="4.13" transform="translate(23.79 179.02) rotate(-88.92)"/><ellipse class="cls-19" cx="82.19" cy="76.99" rx="5.38" ry="4.13" transform="translate(3.66 157.71) rotate(-88.92)"/><path class="cls-6" d="M105.56,75.41a1.61,1.61,0,0,0,1.57-.89,2,2,0,0,1-.7,2,.5.5,0,0,1-.31.14.45.45,0,0,1-.38-.32,1.09,1.09,0,0,1,0-.83l.11.24"/><path class="cls-6" d="M105.74,76.8a1.66,1.66,0,0,0,1.58-.89,2,2,0,0,1-.71,2,.5.5,0,0,1-.31.14.48.48,0,0,1-.37-.33,1,1,0,0,1,0-.82l.1.23"/><path class="cls-6" d="M79.73,74.92A1.61,1.61,0,0,1,78.2,74a2,2,0,0,0,.62,2,.46.46,0,0,0,.31.15.47.47,0,0,0,.39-.31,1.06,1.06,0,0,0,0-.82l-.11.23"/><path class="cls-6" d="M79.5,76.3a1.62,1.62,0,0,1-1.54-1,2,2,0,0,0,.63,2,.51.51,0,0,0,.3.15.47.47,0,0,0,.39-.31,1.06,1.06,0,0,0,0-.82l-.11.23"/><ellipse class="cls-4" cx="82.19" cy="77.78" rx="4.59" ry="3.51" transform="translate(2.87 158.49) rotate(-88.92)"/><ellipse cx="82.19" cy="77.78" rx="3.5" ry="2.67" transform="translate(2.87 158.49) rotate(-88.92)"/><ellipse class="cls-4" cx="83.62" cy="75.46" rx="1.17" ry="0.98" transform="translate(6.6 157.64) rotate(-88.92)"/><path class="cls-6" d="M105.64,73.11a5.13,5.13,0,0,0-2.48-.65,6.06,6.06,0,0,0-1.2.23l-.65.22a4.56,4.56,0,0,1-.71.24,4.56,4.56,0,0,1,.4-.67,4.86,4.86,0,0,1,.58-.53,2.85,2.85,0,0,1,1.53-.55A2.51,2.51,0,0,1,105.64,73.11Z"/><path class="cls-6" d="M79.76,72.62A2.51,2.51,0,0,1,82.35,71a2.8,2.8,0,0,1,1.51.61,4.76,4.76,0,0,1,.55.55,3.48,3.48,0,0,1,.38.68,5.89,5.89,0,0,1-.7-.26l-.64-.24a5.42,5.42,0,0,0-1.19-.28A5,5,0,0,0,79.76,72.62Z"/><ellipse class="cls-4" cx="103.18" cy="78.17" rx="4.59" ry="3.51" transform="translate(23.08 179.86) rotate(-88.92)"/><ellipse cx="103.18" cy="78.17" rx="3.5" ry="2.67" transform="translate(23.08 179.86) rotate(-88.92)"/><ellipse class="cls-4" cx="104.63" cy="75.85" rx="1.17" ry="0.98" transform="translate(26.82 179.03) rotate(-88.92)"/><path class="cls-2" d="M108.69,84.62c0-1.88-2-3.45-4.51-3.5a5.31,5.31,0,0,0-3.6,1.23"/><path class="cls-2" d="M84.73,81.78a5.52,5.52,0,0,0-3.25-1.09c-2.52,0-4.59,1.44-4.63,3.33"/><path class="cls-3" d="M98.84,89a13.28,13.28,0,0,1-12.72-.59,6.37,6.37,0,0,0,6.29,5.14C98.31,93.66,98.84,89,98.84,89Z"/><g class="cls-20"><ellipse class="cls-21" cx="92.38" cy="94.86" rx="2.48" ry="4.26" transform="translate(-4.2 185.44) rotate(-88.92)"/><ellipse class="cls-4" cx="92.49" cy="89.33" rx="2.6" ry="4.36" transform="translate(1.43 180.12) rotate(-88.92)"/></g><ellipse class="cls-22" cx="92.55" cy="85.21" rx="5.42" ry="9.05" transform="translate(5.61 176.14) rotate(-88.92)"/><ellipse class="cls-13" cx="92.59" cy="83.04" rx="2.84" ry="5.5" transform="translate(7.82 174.05) rotate(-88.92)"/><ellipse class="cls-23" cx="94.27" cy="81.36" rx="0.65" ry="1.31" transform="translate(11.15 174.08) rotate(-88.92)"/><path class="cls-6" d="M106.35,76.14s-.81-2.53-3.24-2.58a3.14,3.14,0,0,0-2.8,2s1.37-1.56,2.86-1.44a4.29,4.29,0,0,1,3.53,3.75A4.49,4.49,0,0,0,106.35,76.14Z"/><path class="cls-6" d="M79.09,75.63s.9-2.5,3.33-2.46a3.16,3.16,0,0,1,2.73,2.1s-1.31-1.61-2.8-1.55a4.31,4.31,0,0,0-3.67,3.62A4.42,4.42,0,0,1,79.09,75.63Z"/><path class="cls-24" d="M107.39,82.21a4.32,4.32,0,0,1-5.68.74"/><path class="cls-24" d="M77.82,81.65a4.31,4.31,0,0,0,5.65,1"/><path class="cls-6" d="M81.3,64.68a11.1,11.1,0,0,1,4.6-4.8,1.89,1.89,0,0,1,.37-.32L88,58.36l.6-.4a2,2,0,0,1,.56-.3A4.79,4.79,0,0,0,90,57.5c.27-.13.43-.41.63-.62A1.68,1.68,0,0,1,93,57a1.88,1.88,0,0,1,.27.42,10.25,10.25,0,0,1,7.55,3.1h0a11.2,11.2,0,0,1,3.77,4.55,2,2,0,0,1,.12,1.86,2.11,2.11,0,0,1-1.62.77c-.81.1-1.83,0-2.15-.71a.8.8,0,0,1-.59.89,1.92,1.92,0,0,1-1.16-.1,6.72,6.72,0,0,1-2.47-1.55.84.84,0,0,1-.38.15c-.66.11-1.23-.44-1.63-1a9.56,9.56,0,0,1-1.44-3,4.8,4.8,0,0,1-3.07,3,2,2,0,0,1-.49.06,6.68,6.68,0,0,1-3.13,2.09,2,2,0,0,1-1.17.06.8.8,0,0,1-.55-.92c-.35.74-1.38.77-2.18.63a1.6,1.6,0,0,1-1.38-2.66Z"/><path class="cls-24" d="M98.19,68.85a16.25,16.25,0,0,1-10.38-.2"/><path class="cls-24" d="M96.48,70.25a11,11,0,0,1-7-.14"/><path class="cls-5" d="M100.43,115a40.05,40.05,0,0,0-.87,9,77.92,77.92,0,0,1-1.18,12c-2.53,3.35-.11,5.71-.11,5.71,3.89,5.32,12,2.87,11.64-1.55s-4-3.2-4-3.2a108.28,108.28,0,0,0,3.21-20Z"/><g class="cls-25"><path class="cls-13" d="M110.82,130.48a14.51,14.51,0,0,1-13.66-1.35,31.23,31.23,0,0,0-4.47,11.73c-.55,3.47-.31,7.5,2.34,9.8a12,12,0,0,0,4.8,2.17c3,.85,6.32,1.59,9.18.31,2.49-1.12,4.11-3.57,5.26-6a18,18,0,0,0,1.92-8.39,9.94,9.94,0,0,0-3.75-7.53l.77.63"/></g><path class="cls-26" d="M98,103.37c.36.79.88,2,.24,2.78s-2,.34-2.83,0a.27.27,0,0,0-.36.09h0a2.4,2.4,0,0,1-4.38-.12.28.28,0,0,0-.36-.17l-.09.05a3.43,3.43,0,0,1-2.12,1.12A1.55,1.55,0,0,1,86.5,106a.27.27,0,0,0-.5,0,1.38,1.38,0,0,1-1.89.49,1.33,1.33,0,0,1-.44-.41c-.55-1,.18-2.12.91-2.73.26-.22-.12-.6-.38-.38-1,.84-1.81,2.57-.76,3.69a2,2,0,0,0,2.82-.16,1.3,1.3,0,0,0,.18-.23l-.48-.06a2.07,2.07,0,0,0,1.83,1.46,3.84,3.84,0,0,0,2.82-1.27l-.45-.12a2.94,2.94,0,0,0,5.36.25l-.37.09c1,.49,2.53,1,3.45,0s.35-2.44-.13-3.47c-.14-.31-.6,0-.46.27Z"/><path class="cls-5" d="M70.43,110.41l4.4,5.64A8.9,8.9,0,0,0,77,118.21a2.93,2.93,0,0,0,2.89.25,2.84,2.84,0,0,0,1.32-2.06,6.57,6.57,0,0,0-.17-2.5,22.58,22.58,0,0,0-.82-2.92,6,6,0,0,0-1.94-3,3.44,3.44,0,0,0-3.59-.21,6.06,6.06,0,0,0-1.31,1A4.41,4.41,0,0,0,71.77,111a1.63,1.63,0,0,1-.83-.66h0"/><path class="cls-13" d="M76.57,113.17a4.24,4.24,0,0,0,1.08-4.52c-.7-1.72-2.46-2.72-3.77-4a24.52,24.52,0,0,0-1.95-2,3.1,3.1,0,0,0-2.59-.77,1.7,1.7,0,0,0-1.3,2s0,0,0,.08a2.7,2.7,0,0,0-3.16,2.14,2.67,2.67,0,0,0,.41,2,2.15,2.15,0,0,0-1.44,2.68A2.12,2.12,0,0,0,65,112.14a8.08,8.08,0,0,0,2,.41,14.09,14.09,0,0,1,3.11,1.29,6.76,6.76,0,0,0,3.26.52A6.08,6.08,0,0,0,76.57,113.17Z"/><ellipse class="cls-27" cx="68.45" cy="107.13" rx="1.4" ry="1.81" transform="translate(-58.09 94.83) rotate(-51.87)"/><ellipse class="cls-27" cx="70.83" cy="104.71" rx="1.4" ry="1.81" transform="translate(-53.32 80.84) rotate(-45.04)"/><ellipse class="cls-27" cx="67.27" cy="110.46" rx="1.4" ry="1.81" transform="translate(-57.89 143.04) rotate(-73.25)"/><ellipse class="cls-27" cx="73.44" cy="110.25" rx="2.41" ry="2.29" transform="translate(-58.63 99.95) rotate(-51.87)"/><circle class="cls-28" cx="101.02" cy="80.97" r="2.12"/><g class="cls-29"><path class="cls-30" d="M101.25,78.35c.38.66.73,1.34,1.06,2,.06.13.11.29,0,.39s-.11.06-.15.1a.39.39,0,0,0-.09.39,2.45,2.45,0,0,0,.24.58,14.36,14.36,0,0,1,.62,1.39c0,.11.09.26,0,.33a.18.18,0,0,1-.24,0,.51.51,0,0,1-.15-.21l-.89-2c-.06-.14-.13-.3,0-.43s.09-.1.12-.16a.45.45,0,0,0-.07-.39l-.92-1.75a.25.25,0,0,1,0-.17c0-.12.18-.15.3-.16"/></g><path class="cls-31" d="M98.54,81a2.49,2.49,0,1,1,2.53,2.45H101A2.49,2.49,0,0,1,98.54,81ZM99,81a2.06,2.06,0,1,0,2.06-2.06H101A2,2,0,0,0,99,81Z"/><path class="cls-32" d="M103.36,81a2.34,2.34,0,0,0-2.31-2.37h0"/><path class="cls-32" d="M98.9,81A2.09,2.09,0,0,0,101,83"/><circle class="cls-33" cx="103.35" cy="81.16" r="0.06"/><circle class="cls-33" cx="98.9" cy="80.87" r="0.06"/><circle class="cls-28" cx="84.39" cy="80.97" r="2.12"/><g class="cls-34"><path class="cls-30" d="M84.63,78.35c.37.66.73,1.34,1.06,2,0,.13.11.29,0,.39s-.1.06-.15.1a.39.39,0,0,0-.09.39,2.48,2.48,0,0,0,.25.58c.23.45.42.92.62,1.39,0,.11.08.26,0,.33a.18.18,0,0,1-.24,0,.38.38,0,0,1-.14-.21l-.9-2a.5.5,0,0,1-.05-.43c0-.06.09-.1.12-.16a.42.42,0,0,0-.07-.39l-.92-1.75a.26.26,0,0,1-.05-.17c0-.12.18-.15.3-.16"/></g><path class="cls-31" d="M81.91,81a2.49,2.49,0,1,1,2.5,2.48h0A2.5,2.5,0,0,1,81.91,81Zm.43,0a2.06,2.06,0,1,0,2.06-2.06h0a2.05,2.05,0,0,0-2.06,2Z"/><path class="cls-32" d="M86.73,81a2.34,2.34,0,0,0-2.34-2.34"/><path class="cls-32" d="M82.28,81a2.07,2.07,0,0,0,2,2"/><circle class="cls-33" cx="86.72" cy="81.16" r="0.06"/><circle class="cls-33" cx="82.28" cy="80.87" r="0.06"/><path class="cls-35" d="M86.61,80.56a.22.22,0,0,0,.16,0,14.65,14.65,0,0,1,11.82,0,.43.43,0,0,0,.58-.18A.42.42,0,0,0,99,79.8a15.19,15.19,0,0,0-12.52,0,.4.4,0,0,0-.2.53h0A.4.4,0,0,0,86.61,80.56Z"/><g class="cls-36"><path class="cls-37" d="M99.65,80.81A12.91,12.91,0,0,0,92.58,79a14.16,14.16,0,0,0-7.52,2.1l2.36,1.48,11-.13Z"/></g><ellipse class="cls-33" cx="94.66" cy="79.06" rx="0.13" ry="1.77" transform="translate(3.95 162.61) rotate(-82.52)"/><ellipse class="cls-33" cx="92.31" cy="78.67" rx="0.49" ry="0.11"/><path class="cls-38" d="M161.23,110.92s-1.78,9-2.44,10.29a2.75,2.75,0,0,1-2.62,1.12,1.9,1.9,0,0,1-1.7-1.83c0-1.79-.16-5.82-.25-6.82-.13-1.31.84-4.79,4.19-5.32S161.23,110.92,161.23,110.92Z"/><path class="cls-39" d="M158.79,121.21l-.51,5.78a1.89,1.89,0,0,1,2.33,1.51c.65,2-4.85,3-6.27,1s-.11-2.82-.11-2.82l.24-5.91S155.67,122.41,158.79,121.21Z"/><path class="cls-38" d="M143,109.24s-1.34,9.12-1.15,10.51a2.77,2.77,0,0,0,2.1,1.93,1.88,1.88,0,0,0,2.21-1.15c.64-1.67,2.1-5.43,2.53-6.35.55-1.19.8-4.79-2.18-6.41S143,109.24,143,109.24Z"/><path class="cls-39" d="M141.82,119.75l-1.44,5.62a1.89,1.89,0,0,0-2.7.65c-1.29,1.69,3.58,4.41,5.59,3s1-2.63,1-2.63l1.75-5.65S144.37,121.93,141.82,119.75Z"/><circle class="cls-5" cx="152.39" cy="107.3" r="11.44"/><g class="cls-40"><ellipse class="cls-12" cx="152.39" cy="121.27" rx="6.08" ry="7.01"/><ellipse class="cls-13" cx="164.22" cy="108.47" rx="1.95" ry="1.16"/><ellipse class="cls-13" cx="164.53" cy="111.23" rx="1.95" ry="1.16"/><ellipse class="cls-13" cx="140.95" cy="107.3" rx="1.95" ry="1.16"/><ellipse class="cls-13" cx="140.95" cy="109.88" rx="1.95" ry="1.16"/><ellipse class="cls-41" cx="152.39" cy="101.26" rx="10.53" ry="7.51"/></g><path class="cls-16" d="M167.25,79.43a12.5,12.5,0,0,1,9.12-5c6.35-.64,6.9,2.27,6.51,6.69S179.77,97,166.62,91.77C166.62,91.77,163.55,82.72,167.25,79.43Z"/><path class="cls-12" d="M168.1,82.26a10.23,10.23,0,0,1,7.49-3.93c5.22-.47,5.69,1.84,5.39,5.34S178.5,96.29,167.65,92C167.65,92,165.08,84.85,168.1,82.26Z"/><path class="cls-16" d="M146.3,76.06a12.49,12.49,0,0,0-7.09-7.62c-5.83-2.59-7.27,0-8.28,4.31S128.88,88.84,143,88C143,88,148.78,80.34,146.3,76.06Z"/><path class="cls-12" d="M144.6,78.47a10.2,10.2,0,0,0-5.87-6.07c-4.81-2.09-6-.05-6.8,3.37s-1.6,12.76,10,12.14C142,87.91,146.66,81.88,144.6,78.47Z"/><path class="cls-2" d="M135.59,92.31c-.73,4.56,6.57,11.59,16.71,13.22s19.28-2.75,20-7.3-6.9-9.58-17-11.21S136.32,87.76,135.59,92.31Z"/><g class="cls-42"><path class="cls-15" d="M141.32,95.5c-1.71,5.57,3.8,8.88,10.52,10s13.1-.12,13.9-6c.61-4.46-4.58-9-11.3-10.13S142.63,91.2,141.32,95.5Z"/></g><circle class="cls-17" cx="170.3" cy="85.34" r="4.04"/><circle class="cls-17" cx="142.48" cy="80.86" r="4.04"/><circle class="cls-2" cx="155.05" cy="88.46" r="16.44"/><g class="cls-43"><ellipse class="cls-15" cx="153.2" cy="98.93" rx="7.28" ry="12.3" transform="translate(31.16 234.45) rotate(-80.85)"/></g><path class="cls-3" d="M158.88,99.76a11.64,11.64,0,0,1-11-2.08,5.59,5.59,0,0,0,4.83,5.24C157.85,103.74,158.88,99.76,158.88,99.76Z"/><g class="cls-44"><ellipse class="cls-21" cx="152.56" cy="104.06" rx="2.17" ry="3.74" transform="translate(25.56 238.13) rotate(-80.85)"/><ellipse class="cls-4" cx="153.33" cy="99.26" rx="2.28" ry="3.82" transform="translate(30.95 234.86) rotate(-80.85)"/></g><ellipse class="cls-19" cx="165.8" cy="90.23" rx="5.62" ry="4.32" transform="translate(50.35 239.57) rotate(-80.85)"/><ellipse class="cls-19" cx="144.2" cy="86.75" rx="5.62" ry="4.32" transform="translate(35.62 215.32) rotate(-80.85)"/><ellipse class="cls-4" cx="165.76" cy="91.06" rx="4.81" ry="3.67" transform="translate(49.5 240.23) rotate(-80.85)"/><g class="cls-45"><ellipse cx="164.49" cy="91.81" rx="3.66" ry="2.8" transform="translate(47.69 239.61) rotate(-80.85)"/><ellipse class="cls-4" cx="166.32" cy="89.63" rx="1.23" ry="1.02" transform="translate(51.39 239.58) rotate(-80.85)"/></g><ellipse class="cls-4" cx="144.07" cy="87.56" rx="4.81" ry="3.67" transform="translate(34.71 215.87) rotate(-80.85)"/><g class="cls-46"><ellipse cx="142.74" cy="88.12" rx="3.66" ry="2.8" transform="matrix(0, -1, 1, 0, 54.24, 230.64)"/><ellipse class="cls-4" cx="144.22" cy="85.68" rx="1.23" ry="1.02" transform="translate(58.17 229.67) rotate(-89.85)"/></g><path class="cls-6" d="M151.05,72.51c-1,1.16,2.79.45,2.79.45a1.42,1.42,0,0,1-1.07,2,2.83,2.83,0,0,0,3.51-1.18c1.46,2.23-.36,5.84-.36,5.84,3.62-.33,3.58-5.73,3.58-5.73,1.08.5,2.28,3.1,2.28,3.1A6.24,6.24,0,0,0,161,74l1.44.9c1.25.95,2.29,1.2,2.74.27,0,0-.48-2.84-6.32-4.07a2.74,2.74,0,0,1,1.16-2.21s-2.6,0-3.34,1.86C156.72,70.78,153,70.09,151.05,72.51Z"/><ellipse class="cls-22" cx="153.88" cy="95.69" rx="4.75" ry="7.93" transform="translate(34.94 232.4) rotate(-80.85)"/><ellipse class="cls-13" cx="154.19" cy="93.82" rx="2.49" ry="4.82" transform="translate(37.04 231.13) rotate(-80.85)"/><ellipse class="cls-23" cx="155.86" cy="92.57" rx="0.57" ry="1.15" transform="translate(39.69 231.73) rotate(-80.85)"/><path class="cls-6" d="M169.05,86.17a5.38,5.38,0,0,0-2.48-1,6.17,6.17,0,0,0-1.27.06l-.71.13a4.23,4.23,0,0,1-.77.14,5.11,5.11,0,0,1,.52-.63,4,4,0,0,1,.67-.46,3.06,3.06,0,0,1,1.67-.35,2.73,2.73,0,0,1,1.58.7A2.36,2.36,0,0,1,169.05,86.17Z"/><path class="cls-6" d="M142.32,81.87a2.33,2.33,0,0,1,1.19-1.12,2.83,2.83,0,0,1,1.73-.18,3.16,3.16,0,0,1,1.47.86,4.81,4.81,0,0,1,.49.65,3.71,3.71,0,0,1,.29.76,6.11,6.11,0,0,1-.68-.37l-.63-.35a6.31,6.31,0,0,0-1.19-.46A5.26,5.26,0,0,0,142.32,81.87Z"/><ellipse class="cls-17" cx="170.23" cy="97.33" rx="0.61" ry="1.19" transform="translate(47.07 249.92) rotate(-80.85)"/><ellipse class="cls-17" cx="137.81" cy="92.11" rx="0.61" ry="1.19" transform="translate(24.96 213.52) rotate(-80.85)"/><path class="cls-5" d="M163.09,112.91s-.9,9.16-1.43,10.47a2.77,2.77,0,0,1-2.5,1.37,1.88,1.88,0,0,1-1.86-1.65c-.22-1.78-.73-5.78-.92-6.78-.25-1.28.38-4.84,3.66-5.69S163.09,112.91,163.09,112.91Z"/><path class="cls-13" d="M161.66,123.38l.05,5.8a1.9,1.9,0,0,1,2.47,1.29c.84,1.95-4.54,3.41-6.16,1.56s-.37-2.8-.37-2.8l-.34-5.9S158.67,124.88,161.66,123.38Z"/><path class="cls-5" d="M141.92,112.5s2.4,8.89,3.14,10.1a2.76,2.76,0,0,0,2.69.93,1.88,1.88,0,0,0,1.57-1.94c-.08-1.78-.24-5.81-.22-6.83,0-1.31-1.17-4.71-4.55-5S141.92,112.5,141.92,112.5Z"/><path class="cls-13" d="M145.06,122.6l.91,5.73a1.88,1.88,0,0,0-2.22,1.67c-.51,2.06,5,2.62,6.32.53s-.09-2.82-.09-2.82l-.64-5.88S148.26,123.58,145.06,122.6Z"/></svg>