<svg id="Layer_9" data-name="Layer 9" xmlns="http://www.w3.org/2000/svg" xmlns:xlink="http://www.w3.org/1999/xlink" viewBox="0 0 260 168"><defs><style>.cls-1{fill:#dda854;}.cls-2{fill:#e8ba67;}.cls-3{fill:#471e00;}.cls-4{fill:#190e01;}.cls-5{clip-path:url(#clip-path);}.cls-6{fill:#f7d19a;}.cls-7{fill:#301c00;}.cls-8{fill:#d19846;}.cls-9{fill:#e2af5d;}.cls-10{clip-path:url(#clip-path-2);}.cls-11{fill:#a06f20;}.cls-12{fill:#d69936;}.cls-13{clip-path:url(#clip-path-3);}.cls-14{clip-path:url(#clip-path-4);}.cls-15{fill:#c41e1e;}.cls-16{fill:#fff;}.cls-17{fill:#ffd38d;}.cls-18{fill:#7a3100;}.cls-19{fill:#93621b;}.cls-20{fill:#7a4609;}.cls-21{fill:#f4b460;}</style><clipPath id="clip-path"><path class="cls-1" d="M121.7,120.86s-7.13,16.22-6.15,25.78,27.31,12.45,29.69,0-2.49-17-7.37-26.88C132.19,108.25,121.7,120.86,121.7,120.86Z"/></clipPath><clipPath id="clip-path-2"><path class="cls-2" d="M151.56,112.39c-.53,5.11-10.42,10.56-21.8,9.38s-19.94-8.54-19.41-13.65,10.18-8.3,21.56-7.13S152.09,107.27,151.56,112.39Z"/></clipPath><clipPath id="clip-path-3"><circle class="cls-2" cx="131.75" cy="102.61" r="18.31"/></clipPath><clipPath id="clip-path-4"><path class="cls-3" d="M124.36,113.65a13,13,0,0,0,12.4.95,6.22,6.22,0,0,1-6.71,4.23C124.32,118.24,124.36,113.65,124.36,113.65Z"/></clipPath></defs><path class="cls-1" d="M123.44,141.93s-9.42,4.86-10.77,5.67a3.08,3.08,0,0,0-1.08,3,2.11,2.11,0,0,0,2.14,1.77c2-.06,6.48-.2,7.61-.15,1.46.06,5.26-1.25,5.64-5S123.44,141.93,123.44,141.93Z"/><path class="cls-4" d="M112.67,147.6l-6.4.94a2.1,2.1,0,0,0-1.83-2.5c-2.29-.59-3,5.59-.67,7s3.14-.06,3.14-.06l6.56-.64S111.54,151.15,112.67,147.6Z"/><path class="cls-1" d="M138.5,141.73s9.52,5.06,10.87,5.87a3.08,3.08,0,0,1,1.08,3,2.11,2.11,0,0,1-2.14,1.77c-2-.06-6.48-.2-7.61-.15-1.46.06-5.26-1.25-5.64-5S138.5,141.73,138.5,141.73Z"/><path class="cls-4" d="M149.37,147.6l6.4.94a2.1,2.1,0,0,1,1.83-2.5c2.29-.59,3,5.59.67,7s-3.14-.06-3.14-.06l-6.56-.64S150.5,151.15,149.37,147.6Z"/><path class="cls-1" d="M121.7,120.86s-7.13,16.22-6.15,25.78,27.31,12.45,29.69,0-2.49-17-7.37-26.88C132.19,108.25,121.7,120.86,121.7,120.86Z"/><g class="cls-5"><ellipse class="cls-6" cx="131.3" cy="148.86" rx="8.39" ry="13.1"/><ellipse class="cls-7" cx="117.7" cy="128.52" rx="3.82" ry="1.95"/><ellipse class="cls-7" cx="143.61" cy="128.52" rx="3.82" ry="1.95"/><ellipse class="cls-7" cx="146.65" cy="132.28" rx="3.82" ry="1.95"/><ellipse class="cls-7" cx="115.79" cy="133.19" rx="3.82" ry="1.95"/><ellipse class="cls-8" cx="129.78" cy="114.15" rx="12.55" ry="9.43"/></g><path class="cls-9" d="M121.24,89.37a13.92,13.92,0,0,0-8.36-8c-6.65-2.52-8.09.45-8.94,5.31s-1.27,18,14.4,16.16C118.34,102.82,124.27,94,121.24,89.37Z"/><path class="cls-6" d="M119.5,92.16a11.36,11.36,0,0,0-6.91-6.38c-5.49-2-6.66.32-7.35,4.18s-1,14.29,11.92,12.86C117.16,102.82,122,95.82,119.5,92.16Z"/><path class="cls-9" d="M144.75,91.8a13.91,13.91,0,0,1,9.82-6.13c7-1.11,7.82,2.09,7.67,7s-2.46,17.91-17.42,12.87C144.82,105.56,140.84,95.69,144.75,91.8Z"/><path class="cls-6" d="M145.87,94.89A11.34,11.34,0,0,1,154,90.06c5.78-.86,6.45,1.68,6.33,5.59s-2,14.19-14.3,10.15C146,105.8,142.67,98,145.87,94.89Z"/><path class="cls-2" d="M151.56,112.39c-.53,5.11-10.42,10.56-21.8,9.38s-19.94-8.54-19.41-13.65,10.18-8.3,21.56-7.13S152.09,107.27,151.56,112.39Z"/><g class="cls-10"><path class="cls-11" d="M144.48,114.16c.22,6.48-6.66,8.44-14.2,7.66s-14.06-3.92-13.23-10.43c.64-5,7.55-8.4,15.09-7.62S144.31,109.15,144.48,114.16Z"/></g><circle class="cls-12" cx="116.25" cy="94.85" r="4.5"/><circle class="cls-12" cx="147.47" cy="98.08" r="4.5"/><circle class="cls-2" cx="131.75" cy="102.61" r="18.31"/><g class="cls-13"><ellipse class="cls-11" cx="130.71" cy="114.41" rx="8.11" ry="13.7" transform="translate(3.45 232.65) rotate(-84.09)"/></g><path class="cls-3" d="M124.36,113.65a13,13,0,0,0,12.4.95,6.22,6.22,0,0,1-6.71,4.23C124.32,118.24,124.36,113.65,124.36,113.65Z"/><g class="cls-14"><ellipse class="cls-15" cx="129.91" cy="120.11" rx="2.42" ry="4.16" transform="translate(-2.94 236.97) rotate(-84.09)"/><ellipse class="cls-16" cx="130.47" cy="114.72" rx="2.54" ry="4.26" transform="translate(2.92 232.69) rotate(-84.09)"/></g><ellipse class="cls-17" cx="119.67" cy="101.41" rx="6.26" ry="4.81" transform="translate(6.49 210.01) rotate(-84.09)"/><ellipse class="cls-17" cx="143.91" cy="103.92" rx="6.26" ry="4.81" transform="translate(25.73 236.37) rotate(-84.09)"/><ellipse class="cls-16" cx="119.48" cy="102.3" rx="5.35" ry="4.09" transform="translate(5.42 210.62) rotate(-84.09)"/><ellipse cx="118.68" cy="103.1" rx="4.08" ry="3.12" transform="translate(3.91 210.54) rotate(-84.09)"/><ellipse class="cls-16" cx="117.34" cy="100.22" rx="1.37" ry="1.14" transform="translate(5.57 206.61) rotate(-84.09)"/><ellipse class="cls-16" cx="143.82" cy="104.82" rx="5.35" ry="4.09" transform="translate(24.75 237.09) rotate(-84.09)"/><ellipse cx="143.02" cy="105.62" rx="4.08" ry="3.12" transform="translate(23.24 237.01) rotate(-84.09)"/><ellipse class="cls-16" cx="141.68" cy="102.74" rx="1.37" ry="1.14" transform="translate(24.9 233.09) rotate(-84.09)"/><path class="cls-18" d="M140.66,86.61c.68,1.53-3.12-.32-3.12-.32a1.58,1.58,0,0,0,.57,2.44,3.15,3.15,0,0,1-3.43-2.28c-2.22,2-1.3,6.37-1.3,6.37-3.8-1.4-2.19-7.19-2.19-7.19-1.31.23-3.36,2.68-3.36,2.68a7,7,0,0,1,1.64-3l-1.8.55c-1.62.65-2.81.62-3-.5,0,0,1.35-2.92,8-2.55a3.07,3.07,0,0,0-.61-2.72s2.81.72,3.06,3C135.07,83.12,139.24,83.44,140.66,86.61Z"/><ellipse class="cls-19" cx="130.91" cy="110.72" rx="5.29" ry="8.84" transform="translate(7.29 229.54) rotate(-84.09)"/><ellipse class="cls-7" cx="131.12" cy="108.63" rx="2.77" ry="5.37" transform="translate(9.58 227.87) rotate(-84.09)"/><ellipse class="cls-20" cx="129.68" cy="106.79" rx="0.64" ry="1.28" transform="translate(10.11 224.79) rotate(-84.09)"/><path class="cls-18" d="M117.36,96.1a2.63,2.63,0,0,1,1.25-1.32,3,3,0,0,1,1.91-.3,3.45,3.45,0,0,1,1.7.86,4.71,4.71,0,0,1,.58.69,4.38,4.38,0,0,1,.37.83,6.29,6.29,0,0,1-.78-.38l-.72-.34a5.77,5.77,0,0,0-1.36-.43A5.83,5.83,0,0,0,117.36,96.1Z"/><path class="cls-18" d="M147.35,99.2a5.86,5.86,0,0,0-2.81-1,6.54,6.54,0,0,0-1.42.15l-.77.19a6.6,6.6,0,0,1-.85.21A5.53,5.53,0,0,1,142,98a5,5,0,0,1,.72-.56,3.55,3.55,0,0,1,1.83-.49,3.12,3.12,0,0,1,1.81.68A2.67,2.67,0,0,1,147.35,99.2Z"/><ellipse class="cls-12" cx="112.85" cy="107.76" rx="0.68" ry="1.32" transform="translate(-5.95 208.91) rotate(-84.09)"/><ellipse class="cls-12" cx="149.23" cy="111.52" rx="0.68" ry="1.32" transform="translate(22.94 248.48) rotate(-84.09)"/><path class="cls-1" d="M145.42,137.18s-1.79,10.1-2.49,11.51A3.08,3.08,0,0,1,140,150a2.1,2.1,0,0,1-1.93-2c-.09-2-.3-6.48-.43-7.6-.17-1.45.84-5.34,4.56-6S145.42,137.18,145.42,137.18Z"/><path class="cls-7" d="M142.93,148.69l-.45,6.45a2.11,2.11,0,0,1,2.63,1.63c.76,2.24-5.34,3.4-7,1.21s-.17-3.14-.17-3.14l.13-6.59S139.47,150.09,142.93,148.69Z"/><path class="cls-1" d="M124,123s-10.25-.43-11.77,0a3.09,3.09,0,0,0-1.9,2.55,2.09,2.09,0,0,0,1.54,2.31c1.92.52,6.26,1.69,7.32,2.06,1.39.48,5.41.33,6.85-3.15S124,123,124,123Z"/><path class="cls-7" d="M112.21,122.9l-6.4-.94a2.11,2.11,0,0,0-1-2.93c-2-1.22-4.47,4.48-2.68,6.55s3,.84,3,.84l6.46,1.29S110.1,126,112.21,122.9Z"/><path class="cls-21" d="M123.33,125.27c-.25.54-.83,1.75-.23,2.24s1.85-.23,2.4-.55l-.58-.33a1.77,1.77,0,0,0,3.46.37h-.73a1.9,1.9,0,0,0,3.49.17h-.66a1.64,1.64,0,0,0,1.41.89,1.66,1.66,0,0,0,.73-.13c.21-.09.62-.58.82-.57s.41.25.5.29a2.55,2.55,0,0,0,.54.22,1.5,1.5,0,0,0,1,0,1.14,1.14,0,0,0,.73-1.43l-.63.37c.64.57,1.73,1.24,2.45.37s-.34-1.48-.55-2.25a.38.38,0,0,0-.74.21,4.36,4.36,0,0,0,.61,1c.17.28.21.57-.21.64s-.77-.32-1-.55-.78,0-.64.37-.33.6-.67.55a2.52,2.52,0,0,1-.78-.36c-.3-.17-.57-.35-.92-.2s-.48.58-.88.68a.93.93,0,0,1-1.05-.49.38.38,0,0,0-.66,0,1.14,1.14,0,0,1-2.1,0,.38.38,0,0,0-.73,0,1,1,0,0,1-2-.17.39.39,0,0,0-.57-.33c-.32.19-1,.64-1.36.57-.12.06-.15,0-.1-.12a1.59,1.59,0,0,1,.06-.3,4.11,4.11,0,0,1,.28-.79c.2-.45-.46-.83-.66-.39Z"/></svg>