<svg id="Layer_4" data-name="Layer 4" xmlns="http://www.w3.org/2000/svg" xmlns:xlink="http://www.w3.org/1999/xlink" viewBox="0 0 260 168"><defs><style>.cls-1{fill:#bc6319;}.cls-2{fill:#e8ba67;}.cls-3{fill:#471e00;}.cls-4,.cls-57{fill:#fff;}.cls-5{fill:#c99343;}.cls-6{fill:#dda854;}.cls-7{fill:#d7fff4;opacity:0.3;}.cls-8{fill:#3d3dfc;}.cls-9{fill:#994a0a;}.cls-10{fill:#7a3100;}.cls-11{fill:#a54c0a;}.cls-12{clip-path:url(#clip-path);}.cls-13{fill:#a04908;}.cls-14{clip-path:url(#clip-path-2);}.cls-15{clip-path:url(#clip-path-3);}.cls-16{fill:#b25712;}.cls-17{fill:#d67934;}.cls-18{clip-path:url(#clip-path-4);}.cls-19{clip-path:url(#clip-path-5);}.cls-20{fill:#af5614;}.cls-21{fill:#682c02;}.cls-22{fill:#c1671e;}.cls-23{fill:#d6752d;}.cls-24{fill:#c97523;}.cls-25{clip-path:url(#clip-path-6);}.cls-26{clip-path:url(#clip-path-7);}.cls-27{clip-path:url(#clip-path-8);}.cls-28{fill:#c41e1e;}.cls-29{fill:#f49547;}.cls-30{fill:#a8540e;}.cls-31{fill:#c48a37;}.cls-32{fill:#190e01;}.cls-33{clip-path:url(#clip-path-9);}.cls-34{fill:#f7d19a;}.cls-35{fill:#301c00;}.cls-36{fill:#d19846;}.cls-37{fill:#e2af5d;}.cls-38{clip-path:url(#clip-path-10);}.cls-39{fill:#a06f20;}.cls-40{fill:#d69936;}.cls-41{clip-path:url(#clip-path-11);}.cls-42{clip-path:url(#clip-path-12);}.cls-43{fill:#ffd38d;}.cls-44{clip-path:url(#clip-path-13);}.cls-45{clip-path:url(#clip-path-14);}.cls-46{fill:#93621b;}.cls-47{fill:#7a4609;}.cls-48{clip-path:url(#clip-path-15);}.cls-49{fill:#1e1101;}.cls-50{clip-path:url(#clip-path-16);}.cls-51{clip-path:url(#clip-path-17);}.cls-52{fill:#ce9849;}.cls-53{clip-path:url(#clip-path-18);}.cls-54{clip-path:url(#clip-path-19);}.cls-55,.cls-59{fill:none;stroke-linecap:round;stroke-linejoin:round;}.cls-55{stroke:#d8a14a;stroke-width:0.18px;}.cls-56{clip-path:url(#clip-path-20);}.cls-57{opacity:0.21;}.cls-58{fill:#2e2eef;}.cls-59{stroke:#457fff;stroke-width:0.07px;}.cls-60{fill:#457fff;}.cls-61{clip-path:url(#clip-path-21);}.cls-62{clip-path:url(#clip-path-22);}.cls-63{fill:#2d2de8;}.cls-64{clip-path:url(#clip-path-23);}.cls-65{clip-path:url(#clip-path-24);}.cls-66{fill:#f4b460;}</style><clipPath id="clip-path"><path class="cls-1" d="M85.1,121.61a20.86,20.86,0,0,1,.88,4.07s-.13.67.74.18c0,0,.51.65,1.48,0a.65.65,0,0,0,.24-.28,7.22,7.22,0,0,0,.09-4.45C87.8,117.88,84.42,118.12,85.1,121.61Z"/></clipPath><clipPath id="clip-path-2"><path class="cls-1" d="M94.57,121.61a20.86,20.86,0,0,0-.88,4.07s.13.67-.74.18c0,0-.51.65-1.48,0a.72.72,0,0,1-.24-.28,7.22,7.22,0,0,1-.09-4.45C91.87,117.88,95.25,118.12,94.57,121.61Z"/></clipPath><clipPath id="clip-path-3"><path class="cls-1" d="M97.26,118.9c0,5.54-3.39,6.09-7.58,6.09s-7.58-.55-7.58-6.09,3.4-10.05,7.58-10.05S97.26,113.35,97.26,118.9Z"/></clipPath><clipPath id="clip-path-4"><path class="cls-1" d="M83,122.87a20.86,20.86,0,0,1,.88,4.07s-.13.66.74.17c0,0,.51.66,1.48,0a.65.65,0,0,0,.24-.28,7.22,7.22,0,0,0,.09-4.45C85.66,119.14,82.28,119.37,83,122.87Z"/></clipPath><clipPath id="clip-path-5"><path class="cls-1" d="M96.21,122.87a21.64,21.64,0,0,0-.88,4.07s.14.66-.74.17c0,0-.5.66-1.47,0a.65.65,0,0,1-.24-.28,7.13,7.13,0,0,1-.09-4.45C93.51,119.14,96.89,119.37,96.21,122.87Z"/></clipPath><clipPath id="clip-path-6"><circle class="cls-4" cx="81.93" cy="110.78" r="2.29"/></clipPath><clipPath id="clip-path-7"><circle class="cls-4" cx="93.85" cy="107.94" r="2.29"/></clipPath><clipPath id="clip-path-8"><path class="cls-9" d="M85.49,114.21a7.23,7.23,0,0,0,6.71-1.78,3.49,3.49,0,0,1-2.76,3.47C86.31,116.64,85.49,114.21,85.49,114.21Z"/></clipPath><clipPath id="clip-path-9"><circle class="cls-6" cx="119.43" cy="113.97" r="6.62"/></clipPath><clipPath id="clip-path-10"><path class="cls-2" d="M131.23,111.36c-.55,2.62-5.95,4.91-11.77,3.69s-9.86-5.47-9.31-8.09,5.71-3.75,11.53-2.53S131.78,108.75,131.23,111.36Z"/></clipPath><clipPath id="clip-path-11"><circle class="cls-2" cx="121.51" cy="105.25" r="9.52"/></clipPath><clipPath id="clip-path-12"><path class="cls-3" d="M117.1,110.57a6.75,6.75,0,0,0,6.36,1.15,3.24,3.24,0,0,1-3.7,1.83C116.83,112.94,117.1,110.57,117.1,110.57Z"/></clipPath><clipPath id="clip-path-13"><ellipse class="cls-4" cx="115.18" cy="104.44" rx="2.78" ry="2.13" transform="translate(-10.59 195.85) rotate(-78.21)"/></clipPath><clipPath id="clip-path-14"><ellipse class="cls-4" cx="127.63" cy="107.04" rx="2.78" ry="2.13" transform="translate(-3.23 210.1) rotate(-78.21)"/></clipPath><clipPath id="clip-path-15"><path class="cls-5" d="M162.15,112.7a5.79,5.79,0,0,1,3.42-.36A4.12,4.12,0,0,1,168,114.8a7.49,7.49,0,0,1-2.07,8.51,3.37,3.37,0,0,1,3.68.58,2.59,2.59,0,0,1,.06,3.56,3.89,3.89,0,0,1-2.29.86,15,15,0,0,1-4.72-.19,4.41,4.41,0,0,1-2.66-1.31,4.9,4.9,0,0,1-.84-2.85c-.1-1.36-.13-2.72-.1-4.09,0-2.44.45-5.17,2.36-6.69l-.61.75"/></clipPath><clipPath id="clip-path-16"><path class="cls-5" d="M143.62,113.05a5.78,5.78,0,0,0-3.43-.23,4.17,4.17,0,0,0-2.3,2.54,7.52,7.52,0,0,0,2.39,8.43,3.36,3.36,0,0,0-3.65.73,2.59,2.59,0,0,0,.07,3.56,4,4,0,0,0,2.32.76,14.9,14.9,0,0,0,4.71-.36,4.46,4.46,0,0,0,2.61-1.41,4.91,4.91,0,0,0,.73-2.88c.05-1.36,0-2.73,0-4.09-.15-2.44-.64-5.15-2.61-6.6l.64.73"/></clipPath><clipPath id="clip-path-17"><path class="cls-6" d="M164.11,111.4a50.89,50.89,0,0,1-4.22-14.09h-.4l-6.87,1.55-6.45-2.2h-.81a54.6,54.6,0,0,1-3.74,15.15c-3.34,8.44-.7,15.24,11.46,15.07h.14C165.38,126.6,167.76,119.7,164.11,111.4Z"/></clipPath><clipPath id="clip-path-18"><path class="cls-2" d="M165.66,96.57a4.57,4.57,0,0,0,1.28-2.65c.33-2.93-2.35-5.62-6-6-3.07-.34-5.82,1.07-6.8,3.28l-.49-.07-.46,0c-.47-2.37-2.85-4.35-5.92-4.69-3.63-.4-6.83,1.64-7.16,4.56a4.57,4.57,0,0,0,.59,2.73,5.26,5.26,0,0,0,2.84,2.57,7.84,7.84,0,0,0,2.55.72h.12l.15,0a9.6,9.6,0,0,0,1.77,0,9.08,9.08,0,0,0,9.61,1.07,9.64,9.64,0,0,0,1.73.35l.17,0,.12,0a7.94,7.94,0,0,0,2.73-.17A5.32,5.32,0,0,0,165.66,96.57Z"/></clipPath><clipPath id="clip-path-19"><path class="cls-3" d="M149,94.05a9.06,9.06,0,0,0,8.67.73,4.36,4.36,0,0,1-4.72,2.93C148.92,97.26,149,94.05,149,94.05Z"/></clipPath><clipPath id="clip-path-20"><circle class="cls-7" cx="147.55" cy="88.58" r="1.63" transform="translate(-21.18 54.7) rotate(-19.62)"/></clipPath><clipPath id="clip-path-21"><circle class="cls-7" cx="160.24" cy="90.2" r="1.63" transform="translate(-20.99 59.05) rotate(-19.62)"/></clipPath><clipPath id="clip-path-22"><path class="cls-8" d="M158.59,89.67a.19.19,0,0,1-.12,0,11.3,11.3,0,0,0-9-1.16.3.3,0,0,1-.39-.18.31.31,0,0,1,.18-.4,11.71,11.71,0,0,1,9.56,1.21.32.32,0,0,1,.1.43A.28.28,0,0,1,158.59,89.67Z"/></clipPath><clipPath id="clip-path-23"><path class="cls-6" d="M148.37,110.14a26.9,26.9,0,0,1,.6,6.15,53.7,53.7,0,0,0,.81,8.21c1.72,2.29.07,3.9.07,3.9-2.65,3.64-8.17,2-7.95-1.06s2.73-2.18,2.73-2.18a73.41,73.41,0,0,1-2.19-13.64Z"/></clipPath><clipPath id="clip-path-24"><path class="cls-6" d="M157.36,110.14a27.61,27.61,0,0,0-.6,6.15,52.91,52.91,0,0,1-.8,8.21c-1.73,2.29-.07,3.9-.07,3.9,2.65,3.64,8.17,2,7.94-1.06s-2.73-2.18-2.73-2.18a74.06,74.06,0,0,0,2.2-13.64Z"/></clipPath></defs><path class="cls-10" d="M97.37,123.06a1.8,1.8,0,0,0,1,.44,8.44,8.44,0,0,0,1,.12.28.28,0,0,1-.19-.12.45.45,0,0,1,.5.29,2.74,2.74,0,0,0-.15-1.7,1.62,1.62,0,0,0-1.35-1,.9.9,0,0,0-.65.21A1.51,1.51,0,0,0,97.37,123.06Z"/><path class="cls-11" d="M95,120.52s3.06.48,3.15,2c0,0-.31-.37-3.15-.72S93.47,120.42,95,120.52Z"/><path class="cls-1" d="M85.1,121.61a20.86,20.86,0,0,1,.88,4.07s-.13.67.74.18c0,0,.51.65,1.48,0a.65.65,0,0,0,.24-.28,7.22,7.22,0,0,0,.09-4.45C87.8,117.88,84.42,118.12,85.1,121.61Z"/><g class="cls-12"><path class="cls-13" d="M85.17,124.64c.1,0,1.2,1.09,4.11.31v1.77l-4.26,0-.93-1.6Z"/></g><path class="cls-1" d="M94.57,121.61a20.86,20.86,0,0,0-.88,4.07s.13.67-.74.18c0,0-.51.65-1.48,0a.72.72,0,0,1-.24-.28,7.22,7.22,0,0,1-.09-4.45C91.87,117.88,95.25,118.12,94.57,121.61Z"/><g class="cls-14"><path class="cls-13" d="M94.5,124.64c-.09,0-1.2,1.09-4.11.31v1.77l4.27,0,.92-1.6Z"/></g><path class="cls-1" d="M97.26,118.9c0,5.54-3.39,6.09-7.58,6.09s-7.58-.55-7.58-6.09,3.4-10.05,7.58-10.05S97.26,113.35,97.26,118.9Z"/><g class="cls-15"><ellipse class="cls-16" cx="89.68" cy="112.82" rx="7.94" ry="5.24"/><ellipse class="cls-17" cx="89.68" cy="124.73" rx="4.34" ry="0.58"/></g><path class="cls-1" d="M83,122.87a20.86,20.86,0,0,1,.88,4.07s-.13.66.74.17c0,0,.51.66,1.48,0a.65.65,0,0,0,.24-.28,7.22,7.22,0,0,0,.09-4.45C85.66,119.14,82.28,119.37,83,122.87Z"/><g class="cls-18"><path class="cls-13" d="M83,125.9c.1,0,1.2,1.08,4.11.3V128l-4.26,0L82,126.33Z"/></g><path class="cls-1" d="M96.21,122.87a21.64,21.64,0,0,0-.88,4.07s.14.66-.74.17c0,0-.5.66-1.47,0a.65.65,0,0,1-.24-.28,7.13,7.13,0,0,1-.09-4.45C93.51,119.14,96.89,119.37,96.21,122.87Z"/><g class="cls-19"><path class="cls-13" d="M96.15,125.9c-.1,0-1.2,1.08-4.12.3V128l4.27,0,.92-1.61Z"/></g><ellipse class="cls-20" cx="82.7" cy="116.92" rx="0.55" ry="0.24" transform="translate(-42.61 186.26) rotate(-83.69)"/><ellipse class="cls-20" cx="82.95" cy="118.28" rx="0.46" ry="0.21" transform="translate(-43.74 187.72) rotate(-83.69)"/><ellipse class="cls-20" cx="96.64" cy="116.92" rx="0.21" ry="0.46" transform="translate(-10.48 9.52) rotate(-5.35)"/><path class="cls-21" d="M80.82,102.7a3.19,3.19,0,0,0-.28,2.44.63.63,0,0,0,.14.27.57.57,0,0,0,.38.09,25.17,25.17,0,0,0,11.19-2.66.56.56,0,0,0,.34-.3.52.52,0,0,0-.11-.44,5.7,5.7,0,0,0-.79-1.33,4.94,4.94,0,0,0-1.52-.89,5.79,5.79,0,0,0-2.51-.48C85.42,99.67,82.07,100.45,80.82,102.7Z"/><path class="cls-22" d="M82.82,106c2,1,.17,3.49-1.19,4.63s-3.63.68-5.06-1-1.48-4-.12-5.16S81,105,82.82,106Z"/><path class="cls-23" d="M81.31,106.33c1.32.57.3,2.25-.52,3a2.67,2.67,0,0,1-3.67-3.71C77.94,104.86,80.1,105.81,81.31,106.33Z"/><path class="cls-22" d="M90.88,104c-1.28,1.82,1.42,3.2,3.15,3.6s3.55-1,4-3.19-.48-4.26-2.21-4.66S92.06,102.37,90.88,104Z"/><path class="cls-23" d="M92.4,103.7c-.93,1.1.74,2.13,1.84,2.48a2.67,2.67,0,0,0,1.6-5C94.74,100.86,93.25,102.68,92.4,103.7Z"/><ellipse class="cls-24" cx="88.62" cy="112.45" rx="10.67" ry="4.69" transform="translate(-23.61 23.55) rotate(-13.37)"/><ellipse class="cls-24" cx="87.83" cy="109.12" rx="9.43" ry="8.11" transform="translate(-22.86 23.27) rotate(-13.37)"/><circle class="cls-4" cx="81.93" cy="110.78" r="2.29"/><g class="cls-25"><path d="M82.12,108.3a2.18,2.18,0,0,0-.64.29.72.72,0,0,1,.54.54.75.75,0,0,1-1.39.54,2.16,2.16,0,0,0-.06,1.16,2.1,2.1,0,1,0,1.55-2.53Z"/></g><circle class="cls-4" cx="93.85" cy="107.94" r="2.29"/><g class="cls-26"><path d="M94,105.47a2.37,2.37,0,0,0-.65.28.74.74,0,0,1,.54.55.75.75,0,0,1-1.39.54,2.13,2.13,0,0,0-.06,1.15A2.1,2.1,0,1,0,94,105.47Z"/></g><path class="cls-9" d="M85.49,114.21a7.23,7.23,0,0,0,6.71-1.78,3.49,3.49,0,0,1-2.76,3.47C86.31,116.64,85.49,114.21,85.49,114.21Z"/><g class="cls-27"><ellipse class="cls-28" cx="89.61" cy="116.6" rx="2.32" ry="1.35" transform="translate(-24.54 23.89) rotate(-13.37)"/><ellipse class="cls-4" cx="88.91" cy="113.65" rx="2.38" ry="1.42" transform="translate(-23.88 23.65) rotate(-13.37)"/></g><path class="cls-4" d="M85.07,113.93s-.76.61-.92.79.95.31,1.91-.26Z"/><path class="cls-4" d="M92.46,112.17s1,.2,1.18.29-.71.71-1.82.63Z"/><path class="cls-29" d="M92.42,111.82c.26,1.12-1.2,2.42-3.26,2.91s-3.94,0-4.21-1.13a3.86,3.86,0,0,1,7.47-1.78Z"/><ellipse class="cls-30" cx="86.62" cy="113.02" rx="0.49" ry="0.9" transform="translate(-23.79 23.1) rotate(-13.37)"/><ellipse class="cls-30" cx="90.67" cy="112.05" rx="0.49" ry="0.9" transform="translate(-23.46 24.01) rotate(-13.37)"/><ellipse class="cls-22" cx="79.67" cy="113.74" rx="0.91" ry="0.3" transform="translate(-24.15 21.51) rotate(-13.37)"/><ellipse class="cls-22" cx="96.95" cy="109.63" rx="0.91" ry="0.3" transform="translate(-22.73 25.4) rotate(-13.37)"/><path class="cls-10" d="M84.24,103a3.42,3.42,0,0,0,3.18,2.54s-.69-2.91.45-3.18c0,0,0,1.21.87,1.57a8.55,8.55,0,0,0,.5-1.71l.22.94s1.68-1.06,1.22-2.17-2.37-2.44-5.35-1.73-4,2.75-3.72,3.85a1.8,1.8,0,0,0,1.2,1.45l0-1A1.65,1.65,0,0,0,84.2,105S83.93,103.36,84.24,103Z"/><path class="cls-31" d="M114.32,116.07a60.64,60.64,0,0,0,1.41,6,1.59,1.59,0,0,0,1.52.65,1.1,1.1,0,0,0,1-1.06c0-1,.09-3.37.15-4a3,3,0,0,0-2.43-3.08C114,114.28,114.32,116.07,114.32,116.07Z"/><path class="cls-32" d="M115.73,122l.3,3.35a1.09,1.09,0,0,0-1.35.87c-.38,1.18,2.8,1.72,3.63.56s.06-1.63.06-1.63l-.14-3.42S117.54,122.71,115.73,122Z"/><path class="cls-31" d="M124.85,115.76a60.59,60.59,0,0,1-1.08,6,1.61,1.61,0,0,1-1.48.73,1.08,1.08,0,0,1-1-1c-.08-1-.28-3.36-.37-3.94a3,3,0,0,1,2.26-3.2A1.25,1.25,0,0,1,124.85,115.76Z"/><path class="cls-32" d="M123.77,121.78l-.11,3.36a1.09,1.09,0,0,1,1.39.8c.44,1.15-2.7,1.87-3.59.76s-.15-1.63-.15-1.63l0-3.42S122,122.57,123.77,121.78Z"/><circle class="cls-6" cx="119.43" cy="113.97" r="6.62"/><g class="cls-33"><ellipse class="cls-34" cx="119.43" cy="122.05" rx="3.52" ry="4.06"/><ellipse class="cls-35" cx="112.59" cy="114.64" rx="1.13" ry="0.67"/><ellipse class="cls-35" cx="112.41" cy="116.24" rx="1.13" ry="0.67"/><ellipse class="cls-35" cx="126.06" cy="113.97" rx="1.13" ry="0.67"/><ellipse class="cls-35" cx="126.06" cy="115.46" rx="1.13" ry="0.67"/><ellipse class="cls-36" cx="119.43" cy="111.69" rx="6.1" ry="4.35"/></g><path class="cls-6" d="M113.24,117.21a60.73,60.73,0,0,0,.83,6.07,1.59,1.59,0,0,0,1.45.79,1.1,1.1,0,0,0,1.08-1c.12-1,.41-3.34.53-3.92A3,3,0,0,0,115,115.9C113.11,115.4,113.24,117.21,113.24,117.21Z"/><path class="cls-35" d="M114.07,123.28l0,3.36a1.1,1.1,0,0,0-1.43.74c-.48,1.13,2.63,2,3.56.91s.22-1.62.22-1.62l.2-3.42S115.8,124.14,114.07,123.28Z"/><path class="cls-6" d="M125.78,117.22a59.07,59.07,0,0,1-.4,6.1,1.57,1.57,0,0,1-1.39.89,1.07,1.07,0,0,1-1.14-.87c-.2-1-.65-3.31-.8-3.88a3,3,0,0,1,1.88-3.43A1.24,1.24,0,0,1,125.78,117.22Z"/><path class="cls-35" d="M125.38,123.32l.26,3.35a1.1,1.1,0,0,1,1.48.64c.57,1.1-2.48,2.16-3.49,1.16s-.33-1.6-.33-1.6l-.43-3.4S123.71,124.31,125.38,123.32Z"/><path class="cls-37" d="M116.78,97.85a7.24,7.24,0,0,0-3.9-4.6c-3.3-1.65-4.2-.19-4.9,2.27s-1.62,9.26,6.58,9.13C114.56,104.65,118.1,100.39,116.78,97.85Z"/><path class="cls-34" d="M115.73,99.2a5.86,5.86,0,0,0-3.23-3.67c-2.73-1.34-3.46-.19-4,1.77s-1.27,7.33,5.47,7.28C114,104.58,116.83,101.22,115.73,99.2Z"/><path class="cls-37" d="M128.8,100.36a7.26,7.26,0,0,1,5.41-2.65c3.69-.2,3.93,1.5,3.59,4s-2.22,9.12-9.69,5.73C128.11,107.48,126.58,102.16,128.8,100.36Z"/><path class="cls-34" d="M129.22,102a5.93,5.93,0,0,1,4.43-2.07c3-.13,3.25,1.22,3,3.24s-1.77,7.23-7.93,4.48C128.7,107.66,127.4,103.43,129.22,102Z"/><path class="cls-2" d="M131.23,111.36c-.55,2.62-5.95,4.91-11.77,3.69s-9.86-5.47-9.31-8.09,5.71-3.75,11.53-2.53S131.78,108.75,131.23,111.36Z"/><g class="cls-38"><path class="cls-39" d="M127.47,111.9c-.23,3.36-3.89,4-7.75,3.21s-7.06-2.78-6.28-6.1c.59-2.54,4.35-3.94,8.21-3.14S127.65,109.3,127.47,111.9Z"/></g><circle class="cls-40" cx="113.91" cy="100.41" r="2.34"/><circle class="cls-40" cx="129.87" cy="103.75" r="2.34"/><circle class="cls-2" cx="121.51" cy="105.25" r="9.52"/><g class="cls-41"><ellipse class="cls-39" cx="120.34" cy="111.3" rx="4.22" ry="7.12" transform="translate(-13.2 206.36) rotate(-78.21)"/></g><path class="cls-3" d="M117.1,110.57a6.75,6.75,0,0,0,6.36,1.15,3.24,3.24,0,0,1-3.7,1.83C116.83,112.94,117.1,110.57,117.1,110.57Z"/><g class="cls-42"><ellipse class="cls-28" cx="119.63" cy="114.2" rx="1.26" ry="2.16" transform="translate(-16.61 207.97) rotate(-78.21)"/><ellipse class="cls-4" cx="120.2" cy="111.45" rx="1.32" ry="2.21" transform="matrix(0.2, -0.98, 0.98, 0.2, -13.46, 206.34)"/></g><ellipse class="cls-43" cx="115.33" cy="103.99" rx="3.26" ry="2.5" transform="translate(-10.03 195.63) rotate(-78.21)"/><ellipse class="cls-43" cx="127.73" cy="106.58" rx="3.26" ry="2.5" transform="translate(-2.7 209.83) rotate(-78.21)"/><ellipse class="cls-4" cx="115.18" cy="104.44" rx="2.78" ry="2.13" transform="translate(-10.59 195.85) rotate(-78.21)"/><g class="cls-44"><path d="M115.35,101.33a1.38,1.38,0,0,0-.64,0,.91.91,0,0,1,.17.75.8.8,0,0,1-.88.69.7.7,0,0,1-.52-.6,3.19,3.19,0,0,0-.57,1.25,2.32,2.32,0,0,0,1.4,2.91c1,.22,2.15-.72,2.44-2.11A2.32,2.32,0,0,0,115.35,101.33Z"/></g><ellipse class="cls-4" cx="127.63" cy="107.04" rx="2.78" ry="2.13" transform="translate(-3.23 210.1) rotate(-78.21)"/><g class="cls-45"><path d="M127.75,103.91a1.58,1.58,0,0,0-.65,0,.88.88,0,0,1,.18.75.8.8,0,0,1-.88.7.71.71,0,0,1-.52-.6,3.06,3.06,0,0,0-.57,1.25,2.32,2.32,0,0,0,1.4,2.9c1.05.22,2.15-.72,2.44-2.1S128.81,104.13,127.75,103.91Z"/></g><path class="cls-10" d="M127,97.45c.27.83-1.6-.33-1.6-.33a.82.82,0,0,0,.17,1.29,1.65,1.65,0,0,1-1.66-1.36c-1.25.9-1,3.23-1,3.23-1.89-.93-.75-3.84-.75-3.84-.69,0-1.88,1.21-1.88,1.21a3.75,3.75,0,0,1,1-1.44l-1,.19c-.88.25-1.49.17-1.54-.42,0,0,.85-1.44,4.26-.89a1.6,1.6,0,0,0-.17-1.44s1.41.52,1.42,1.7A3.72,3.72,0,0,1,127,97.45Z"/><ellipse class="cls-46" cx="120.64" cy="109.4" rx="2.75" ry="4.59" transform="translate(-11.11 205.14) rotate(-78.21)"/><ellipse class="cls-35" cx="120.86" cy="108.33" rx="1.44" ry="2.79" transform="translate(-9.88 204.51) rotate(-78.21)"/><ellipse class="cls-47" cx="120.22" cy="107.3" rx="0.33" ry="0.66" transform="translate(-9.39 203.06) rotate(-78.21)"/><path class="cls-10" d="M114.41,101.12a1.53,1.53,0,0,1,1.73-.67,1.86,1.86,0,0,1,.83.53,1.94,1.94,0,0,1,.41.84l-.74-.45a3.36,3.36,0,0,0-.68-.3A3.06,3.06,0,0,0,114.41,101.12Z"/><path class="cls-10" d="M129.75,104.32a3,3,0,0,0-1.4-.66,3.65,3.65,0,0,0-.74,0l-.86.12a1.83,1.83,0,0,1,.72-.6,1.77,1.77,0,0,1,1-.16A1.52,1.52,0,0,1,129.75,104.32Z"/><ellipse class="cls-40" cx="111.46" cy="106.91" rx="0.36" ry="0.69" transform="translate(-15.96 194.17) rotate(-78.21)"/><ellipse class="cls-40" cx="130.19" cy="110.51" rx="0.36" ry="0.69" transform="translate(-13.4 202.95) rotate(-73.1)"/><path class="cls-10" d="M143.18,96.54a2,2,0,0,0,.85,3.51.68.68,0,0,0,0,1,1.7,1.7,0,0,0,.95.43,6.82,6.82,0,0,0,5.91-1.84,4.17,4.17,0,0,0,5.27.29,2,2,0,0,0,3.32.18A1.48,1.48,0,0,0,162,98.72c.68-.13,1-1,.91-1.68a5.79,5.79,0,0,0-3.65-4.67,13.14,13.14,0,0,0-6.14-.73c-1.91.13-3.95.47-5.34,1.79-.52.48-1,1.14-1.75,1.08a4.13,4.13,0,0,1-.83-.24,1.81,1.81,0,0,0-2.14,2.53"/><path class="cls-5" d="M162.15,112.7a5.79,5.79,0,0,1,3.42-.36A4.12,4.12,0,0,1,168,114.8a7.49,7.49,0,0,1-2.07,8.51,3.37,3.37,0,0,1,3.68.58,2.59,2.59,0,0,1,.06,3.56,3.89,3.89,0,0,1-2.29.86,15,15,0,0,1-4.72-.19,4.41,4.41,0,0,1-2.66-1.31,4.9,4.9,0,0,1-.84-2.85c-.1-1.36-.13-2.72-.1-4.09,0-2.44.45-5.17,2.36-6.69l-.61.75"/><g class="cls-48"><path class="cls-49" d="M169.57,119.37a5.33,5.33,0,0,1-4.18.41,16.1,16.1,0,0,1-3.88-1.86,26.8,26.8,0,0,0-5.36,3.45,9,9,0,0,0-3.1,5.44,8.27,8.27,0,0,0,3,7,14.71,14.71,0,0,0,7.25,3.07c3.53.58,7.66.13,9.85-2.7a8.43,8.43,0,0,0,1.41-3,13.88,13.88,0,0,0-2.12-11.84A.79.79,0,0,0,172,119c-.2,0-.44.2-.33.38"/></g><path class="cls-5" d="M143.62,113.05a5.78,5.78,0,0,0-3.43-.23,4.17,4.17,0,0,0-2.3,2.54,7.52,7.52,0,0,0,2.39,8.43,3.36,3.36,0,0,0-3.65.73,2.59,2.59,0,0,0,.07,3.56,4,4,0,0,0,2.32.76,14.9,14.9,0,0,0,4.71-.36,4.46,4.46,0,0,0,2.61-1.41,4.91,4.91,0,0,0,.73-2.88c.05-1.36,0-2.73,0-4.09-.15-2.44-.64-5.15-2.61-6.6l.64.73"/><g class="cls-50"><path class="cls-49" d="M136.46,120a5.43,5.43,0,0,0,4.19.25,15.56,15.56,0,0,0,3.8-2,26.3,26.3,0,0,1,5.49,3.25,9,9,0,0,1,3.31,5.31,8.31,8.31,0,0,1-2.78,7.14,14.71,14.71,0,0,1-7.12,3.33c-3.51.72-7.65.43-9.95-2.31a8.83,8.83,0,0,1-1.53-2.91,13.91,13.91,0,0,1,1.68-11.91.78.78,0,0,1,.46-.4c.21,0,.45.18.35.36"/></g><path class="cls-6" d="M164.11,111.4a50.89,50.89,0,0,1-4.22-14.09h-.4l-6.87,1.55-6.45-2.2h-.81a54.6,54.6,0,0,1-3.74,15.15c-3.34,8.44-.7,15.24,11.46,15.07h.14C165.38,126.6,167.76,119.7,164.11,111.4Z"/><g class="cls-51"><ellipse class="cls-34" cx="153.14" cy="126.36" rx="7.99" ry="16.31" transform="translate(-2.36 2.91) rotate(-1.08)"/><ellipse class="cls-35" cx="143.27" cy="105.77" rx="3.52" ry="2.2" transform="translate(-1.97 2.72) rotate(-1.08)"/><ellipse class="cls-35" cx="162.33" cy="102.31" rx="3.52" ry="2.2" transform="translate(-1.9 3.08) rotate(-1.08)"/><ellipse class="cls-35" cx="142.31" cy="101.28" rx="3.52" ry="2.2" transform="translate(-1.89 2.7) rotate(-1.08)"/><ellipse class="cls-52" cx="152.56" cy="95.81" rx="9.99" ry="5.45" transform="translate(-1.78 2.89) rotate(-1.08)"/></g><ellipse class="cls-39" cx="152.89" cy="98.14" rx="2.21" ry="5.6" transform="translate(38.42 239.23) rotate(-83.64)"/><path class="cls-37" d="M164.44,79.52a8.15,8.15,0,0,1,6.78.44c3.72,1.88,3,3.67,1.24,6s-7.29,7.69-12.69.17C159.77,86.1,161.25,80,164.44,79.52Z"/><path class="cls-34" d="M163.92,81.38a6.66,6.66,0,0,1,5.5.46c3.05,1.57,2.49,3,1.1,4.83s-5.79,6.09-10.28-.06C160.24,86.61,161.34,81.74,163.92,81.38Z"/><circle class="cls-40" cx="163.5" cy="84.32" r="2.64" transform="translate(-4.79 10.02) rotate(-3.46)"/><path class="cls-37" d="M145.72,77.43A8.17,8.17,0,0,0,139,76.37c-4,1-3.74,2.92-2.53,5.55s5.43,9.1,12.35,3C148.83,84.88,148.72,78.64,145.72,77.43Z"/><path class="cls-34" d="M145.82,79.36a6.68,6.68,0,0,0-5.47-.76c-3.31.86-3.09,2.39-2.14,4.47s4.31,7.21,10,2.21C148.26,85.28,148.25,80.29,145.82,79.36Z"/><circle class="cls-40" cx="145.59" cy="82.32" r="2.64" transform="translate(40.82 212.69) rotate(-80.7)"/><circle class="cls-2" cx="154.18" cy="86.57" r="10.74" transform="translate(-8.78 17.94) rotate(-6.47)"/><path class="cls-2" d="M165.66,96.57a4.57,4.57,0,0,0,1.28-2.65c.33-2.93-2.35-5.62-6-6-3.07-.34-5.82,1.07-6.8,3.28l-.49-.07-.46,0c-.47-2.37-2.85-4.35-5.92-4.69-3.63-.4-6.83,1.64-7.16,4.56a4.57,4.57,0,0,0,.59,2.73,5.26,5.26,0,0,0,2.84,2.57,7.84,7.84,0,0,0,2.55.72h.12l.15,0a9.6,9.6,0,0,0,1.77,0,9.08,9.08,0,0,0,9.61,1.07,9.64,9.64,0,0,0,1.73.35l.17,0,.12,0a7.94,7.94,0,0,0,2.73-.17A5.32,5.32,0,0,0,165.66,96.57Z"/><g class="cls-53"><circle class="cls-39" cx="153.01" cy="97.04" r="8.68" transform="translate(-9.97 17.87) rotate(-6.47)"/></g><ellipse class="cls-39" cx="152.96" cy="97.51" rx="1.15" ry="8.59" transform="translate(39.11 238.74) rotate(-83.64)"/><ellipse class="cls-43" cx="147.1" cy="85.81" rx="3.67" ry="2.82" transform="translate(45.54 222.51) rotate(-83.64)"/><ellipse class="cls-43" cx="161.31" cy="87.39" rx="3.67" ry="2.82" transform="translate(56.6 238.03) rotate(-83.64)"/><path class="cls-10" d="M145.62,84.25a1.1,1.1,0,0,1-1-.74,1.41,1.41,0,0,0,.3,1.39.37.37,0,0,0,.2.13.32.32,0,0,0,.28-.19.69.69,0,0,0,.06-.56l-.09.15"/><path class="cls-10" d="M145.37,85.18a1.12,1.12,0,0,1-1-.75,1.41,1.41,0,0,0,.31,1.4.39.39,0,0,0,.19.12.34.34,0,0,0,.29-.19.73.73,0,0,0,.05-.56l-.09.15"/><path class="cls-10" d="M163.16,86.21a1.09,1.09,0,0,0,1.12-.51,1.37,1.37,0,0,1-.6,1.29.3.3,0,0,1-.22.08.31.31,0,0,1-.23-.25.69.69,0,0,1,.07-.56l0,.17"/><path class="cls-10" d="M163.2,87.16a1.1,1.1,0,0,0,1.12-.5,1.39,1.39,0,0,1-.6,1.29.34.34,0,0,1-.22.07c-.12,0-.2-.13-.23-.25a.67.67,0,0,1,.07-.55l0,.16"/><ellipse class="cls-4" cx="161.25" cy="87.92" rx="3.14" ry="2.4" transform="translate(56.02 238.45) rotate(-83.64)"/><ellipse cx="160.91" cy="88.52" rx="2.39" ry="1.83" transform="translate(55.12 238.64) rotate(-83.64)"/><ellipse class="cls-4" cx="160.13" cy="86.82" rx="0.8" ry="0.67" transform="translate(56.12 236.36) rotate(-83.64)"/><path class="cls-10" d="M145.77,82.69a1.72,1.72,0,0,1,1.86-.94,2,2,0,0,1,1,.51,2.55,2.55,0,0,1,.34.41,3.52,3.52,0,0,1,.22.49l-.88-.43a3.91,3.91,0,0,0-.8-.26A3.44,3.44,0,0,0,145.77,82.69Z"/><path class="cls-10" d="M163.34,84.65a3.37,3.37,0,0,0-1.64-.6,3.43,3.43,0,0,0-.83.08l-1,.23a2.61,2.61,0,0,1,.31-.43,3.39,3.39,0,0,1,.42-.33,2.07,2.07,0,0,1,1.08-.28A1.72,1.72,0,0,1,163.34,84.65Z"/><ellipse class="cls-4" cx="146.98" cy="86.34" rx="3.14" ry="2.4" transform="translate(44.91 222.86) rotate(-83.64)"/><ellipse cx="146.64" cy="86.93" rx="2.39" ry="1.83" transform="translate(44.01 223.05) rotate(-83.64)"/><ellipse class="cls-4" cx="145.87" cy="85.24" rx="0.8" ry="0.67" transform="translate(45.01 220.77) rotate(-83.64)"/><path class="cls-2" d="M142.68,90.22c.15-1.28,1.65-2.17,3.36-2a3.59,3.59,0,0,1,2.34,1.15"/><path class="cls-2" d="M159.17,90.41a3.7,3.7,0,0,1,2.29-.45c1.72.19,3,1.39,2.85,2.66"/><path class="cls-3" d="M149,94.05a9.06,9.06,0,0,0,8.67.73,4.36,4.36,0,0,1-4.72,2.93C148.92,97.26,149,94.05,149,94.05Z"/><g class="cls-54"><ellipse class="cls-28" cx="152.82" cy="98.61" rx="1.69" ry="2.91" transform="translate(37.91 239.57) rotate(-83.64)"/><ellipse class="cls-4" cx="153.24" cy="94.84" rx="1.78" ry="2.98" transform="translate(42.02 236.64) rotate(-83.64)"/></g><ellipse class="cls-46" cx="153.57" cy="92.04" rx="3.7" ry="6.18" transform="translate(45.09 234.48) rotate(-83.64)"/><ellipse class="cls-35" cx="153.73" cy="90.58" rx="1.94" ry="3.76" transform="translate(46.7 233.34) rotate(-83.64)"/><ellipse class="cls-47" cx="152.74" cy="89.28" rx="0.45" ry="0.89" transform="translate(47.09 231.2) rotate(-83.64)"/><path class="cls-10" d="M145,84.68a2.54,2.54,0,0,1,2.42-1.46,2.15,2.15,0,0,1,1.72,1.6,2.85,2.85,0,0,0-1.81-1.23,2.93,2.93,0,0,0-2.72,2.23A3,3,0,0,1,145,84.68Z"/><path class="cls-10" d="M163.53,86.74a2.56,2.56,0,0,0-2-2,2.16,2.16,0,0,0-2,1.19,2.86,2.86,0,0,1,2-.81,2.93,2.93,0,0,1,2.17,2.78A3.08,3.08,0,0,0,163.53,86.74Z"/><path class="cls-55" d="M143.78,88.7a2.94,2.94,0,0,0,3.78,1"/><path class="cls-55" d="M163.86,90.93a2.94,2.94,0,0,1-3.91.15"/><path class="cls-10" d="M163,79.13a7.57,7.57,0,0,0-2.69-3.66,1.31,1.31,0,0,0-.22-.25l-1.09-1-.37-.32a1.45,1.45,0,0,0-.35-.26,2.7,2.7,0,0,1-.57-.18,1.71,1.71,0,0,1-.37-.47,1.14,1.14,0,0,0-1.83.15,7.08,7.08,0,0,0-5.4,1.43l0,0a7.58,7.58,0,0,0-3,2.74,1.42,1.42,0,0,0-.25,1.26,1.51,1.51,0,0,0,1,.66c.54.14,1.24.19,1.53-.29a.53.53,0,0,0,.32.65,1.25,1.25,0,0,0,.79,0,4.47,4.47,0,0,0,1.81-.83.56.56,0,0,0,.24.13c.44.14.88-.19,1.19-.52a6.3,6.3,0,0,0,1.24-1.9,3.32,3.32,0,0,0,1.82,2.29,1.35,1.35,0,0,0,.33.09,4.48,4.48,0,0,0,1.94,1.69,1.26,1.26,0,0,0,.78.14.55.55,0,0,0,.46-.57c.17.53.86.64,1.42.62A1.44,1.44,0,0,0,163,80.4,1.41,1.41,0,0,0,163,79.13Z"/><path class="cls-55" d="M151.19,80.46a11.21,11.21,0,0,0,7.05.79"/><path class="cls-55" d="M152.22,81.56a7.62,7.62,0,0,0,4.77.53"/><circle class="cls-7" cx="147.55" cy="88.58" r="1.63" transform="translate(-21.18 54.7) rotate(-19.62)"/><g class="cls-56"><path class="cls-57" d="M147.62,86.55c-.35.47-.68,1-1,1.45-.06.09-.12.21-.05.29s.07.06.1.1a.27.27,0,0,1,0,.3,1.76,1.76,0,0,1-.24.42c-.22.32-.42.66-.61,1,0,.08-.09.19,0,.26a.18.18,0,0,0,.19,0,.51.51,0,0,0,.13-.16l.87-1.41a.38.38,0,0,0,.09-.33s-.06-.08-.08-.13,0-.21.09-.29l.88-1.24a.35.35,0,0,0,0-.13c0-.1-.12-.14-.22-.15"/></g><path class="cls-58" d="M147.3,90.48a1.92,1.92,0,1,1,2.14-1.66A1.92,1.92,0,0,1,147.3,90.48Zm.45-3.47a1.58,1.58,0,1,0,1.37,1.77A1.59,1.59,0,0,0,147.75,87Z"/><path class="cls-59" d="M145.76,88.35a1.8,1.8,0,0,1,2-1.55"/><path class="cls-59" d="M149.16,88.83a1.61,1.61,0,0,1-1.77,1.37"/><circle class="cls-60" cx="145.75" cy="88.5" r="0.05"/><circle class="cls-60" cx="149.17" cy="88.71" r="0.04"/><circle class="cls-7" cx="160.24" cy="90.2" r="1.63" transform="translate(-20.99 59.05) rotate(-19.62)"/><g class="cls-61"><path class="cls-57" d="M160.32,88.18c-.35.47-.69.95-1,1.44-.06.09-.12.21-.06.3l.11.09a.29.29,0,0,1,0,.31,2,2,0,0,1-.24.42c-.22.32-.42.66-.61,1-.05.08-.09.19,0,.26a.15.15,0,0,0,.19,0,.49.49,0,0,0,.13-.15l.87-1.42c.06-.1.13-.22.08-.32s0-.09-.07-.14,0-.2.09-.29l.87-1.24a.22.22,0,0,0,.06-.13c0-.09-.13-.13-.22-.14"/></g><path class="cls-58" d="M160,92.1a1.91,1.91,0,1,1,2.14-1.65A1.9,1.9,0,0,1,160,92.1Zm.44-3.47a1.59,1.59,0,1,0,1.37,1.78A1.59,1.59,0,0,0,160.44,88.63Z"/><path class="cls-59" d="M158.46,90a1.81,1.81,0,0,1,2-1.56"/><path class="cls-59" d="M161.86,90.46a1.61,1.61,0,0,1-1.78,1.37"/><circle class="cls-60" cx="158.45" cy="90.12" r="0.05"/><circle class="cls-60" cx="161.87" cy="90.34" r="0.04"/><path class="cls-8" d="M158.59,89.67a.19.19,0,0,1-.12,0,11.3,11.3,0,0,0-9-1.16.3.3,0,0,1-.39-.18.31.31,0,0,1,.18-.4,11.71,11.71,0,0,1,9.56,1.21.32.32,0,0,1,.1.43A.28.28,0,0,1,158.59,89.67Z"/><g class="cls-62"><path class="cls-63" d="M148.61,88.6a9.91,9.91,0,0,1,5.58-.69,10.85,10.85,0,0,1,5.53,2.33l-1.95.9L149.4,90Z"/></g><ellipse class="cls-60" cx="152.56" cy="87.58" rx="1.36" ry="0.1" transform="translate(-0.21 0.37) rotate(-0.14)"/><ellipse class="cls-60" cx="154.42" cy="87.68" rx="0.09" ry="0.37" transform="translate(47.85 229.72) rotate(-82.71)"/><path class="cls-6" d="M148.37,110.14a26.9,26.9,0,0,1,.6,6.15,53.7,53.7,0,0,0,.81,8.21c1.72,2.29.07,3.9.07,3.9-2.65,3.64-8.17,2-7.95-1.06s2.73-2.18,2.73-2.18a73.41,73.41,0,0,1-2.19-13.64Z"/><g class="cls-64"><path class="cls-35" d="M141.28,120.74a9.88,9.88,0,0,0,9.33-.92,21.25,21.25,0,0,1,3,8c.38,2.37.22,5.13-1.59,6.7a8.45,8.45,0,0,1-3.28,1.49c-2.06.57-4.32,1.08-6.28.2a7.86,7.86,0,0,1-3.59-4.13,12.1,12.1,0,0,1-1.31-5.73,6.79,6.79,0,0,1,2.56-5.15l-.52.43"/></g><path class="cls-6" d="M157.36,110.14a27.61,27.61,0,0,0-.6,6.15,52.91,52.91,0,0,1-.8,8.21c-1.73,2.29-.07,3.9-.07,3.9,2.65,3.64,8.17,2,7.94-1.06s-2.73-2.18-2.73-2.18a74.06,74.06,0,0,0,2.2-13.64Z"/><g class="cls-65"><path class="cls-35" d="M164.46,120.74a9.88,9.88,0,0,1-9.33-.92,21.26,21.26,0,0,0-3.06,8c-.38,2.37-.21,5.13,1.6,6.7A8.32,8.32,0,0,0,157,136c2.05.57,4.32,1.08,6.27.2a7.92,7.92,0,0,0,3.6-4.13,12.34,12.34,0,0,0,1.31-5.73,6.82,6.82,0,0,0-2.56-5.15l.52.43"/></g><path class="cls-66" d="M148.42,104.17c-.32.7-.7,1.7-.09,2.36s1.64.35,2.36,0l-.25-.06a2,2,0,0,0,3.64-.13l-.29,0a2.58,2.58,0,0,0,1.92.87,1.42,1.42,0,0,0,1.26-1l-.33,0a1.33,1.33,0,0,0,2.06.27c.73-.76.17-1.94-.51-2.52-.18-.15-.44.11-.26.26a1.6,1.6,0,0,1,.64,1.8.94.94,0,0,1-1.62,0,.18.18,0,0,0-.33,0c-.38,1.31-1.93.57-2.57,0a.19.19,0,0,0-.29,0,1.64,1.64,0,0,1-3,.12.19.19,0,0,0-.25-.06c-.56.26-1.46.61-1.94,0s-.07-1.35.17-1.88c.1-.22-.21-.4-.31-.19Z"/></svg>