<svg id="Layer_3" data-name="Layer 3" xmlns="http://www.w3.org/2000/svg" xmlns:xlink="http://www.w3.org/1999/xlink" viewBox="0 0 260 168"><defs><style>.cls-1{fill:#dda854;}.cls-2{fill:#e8ba67;}.cls-3{fill:#7a3100;}.cls-4{fill:#ce994d;}.cls-5{fill:#1e1000;}.cls-6{clip-path:url(#clip-path);}.cls-7{fill:#f7d19a;}.cls-8{fill:#301c00;}.cls-9{fill:#d8a34e;}.cls-10{fill:#471e00;}.cls-11{fill:#fff;}.cls-12{fill:#c41e1e;}.cls-13{clip-path:url(#clip-path-2);}.cls-14{fill:#a06f20;}.cls-15{fill:#7a4609;}.cls-16{fill:#d69936;}.cls-17{fill:#ffd38d;}</style><clipPath id="clip-path"><path class="cls-1" d="M138.89,135.64a34.43,34.43,0,0,1,9.81,1.51c9.47,2.68,11.6,4,11.45,10-.18,7-4.28,6.53-10.72,6.86s-19.25.13-19.92-13.4C128.74,125,138.89,135.64,138.89,135.64Z"/></clipPath><clipPath id="clip-path-2"><path class="cls-2" d="M145.21,135.16a33.12,33.12,0,0,1-3.28.91c-9.54,2.62-14.08-6.12-15-6.87s-1.86-.26-4.43-1.66-2.73-2.46-2.34-3.58c.21-.62.86-.28.86-.28,3.22,1.91,4.88.06,5.56-.08a26.75,26.75,0,0,0-2.64-.94c-4.15-1.93-3.74-3.4-3.74-3.4-.45-1.36,1.07-6,5-4.05,3,1.48,4.49-1.36,5.69-2.21,0,0,4.9-5.16,11.7,0s7.52,10.4,3.32,16.57c0,0-.05,3.16.53,4l-.86.16.52,1Z"/></clipPath></defs><path class="cls-3" d="M164,145.22l-.45.12a3.92,3.92,0,0,1,1.89,1.94,12.86,12.86,0,0,1,1.34,3.64,10.69,10.69,0,0,1-2.81-.55,3.45,3.45,0,0,1-2-1.92l0,1.12-.68-1.18a2.57,2.57,0,0,1-.53,1c-.4.48-2.43-2.1-2.58-2.4-.43-.81-.95-2.25-.4-3.13s2.07-.67,2.94-.49A6.48,6.48,0,0,1,164,145.22Z"/><path class="cls-4" d="M150.12,147.52a80,80,0,0,0,2.19,7.71,2.09,2.09,0,0,0,2,.76,1.44,1.44,0,0,0,1.22-1.44c0-1.36-.08-4.41,0-5.18a4,4,0,0,0-3.35-3.88C149.61,145.2,150.12,147.52,150.12,147.52Z"/><path class="cls-5" d="M152.31,155.23l.58,4.36a1.43,1.43,0,0,0-1.71,1.22c-.42,1.55,3.77,2.08,4.78.52s0-2.14,0-2.14l-.38-4.47S154.71,156,152.31,155.23Z"/><path class="cls-4" d="M133.09,147.52a80,80,0,0,0,2.19,7.71,2.11,2.11,0,0,0,2,.76,1.43,1.43,0,0,0,1.22-1.44c0-1.36-.07-4.41,0-5.18a4,4,0,0,0-3.36-3.88C132.58,145.2,133.09,147.52,133.09,147.52Z"/><path class="cls-5" d="M135.28,155.23l.59,4.36a1.44,1.44,0,0,0-1.72,1.22c-.42,1.55,3.77,2.08,4.78.52s0-2.14,0-2.14l-.38-4.47S137.69,156,135.28,155.23Z"/><path class="cls-1" d="M138.89,135.64a34.43,34.43,0,0,1,9.81,1.51c9.47,2.68,11.6,4,11.45,10-.18,7-4.28,6.53-10.72,6.86s-19.25.13-19.92-13.4C128.74,125,138.89,135.64,138.89,135.64Z"/><g class="cls-6"><path class="cls-7" d="M136,152.16a1.09,1.09,0,0,1,.35-.91,1.13,1.13,0,0,1,.7-.14A16.72,16.72,0,0,1,141,152a23.48,23.48,0,0,0,13.54-.33,3.71,3.71,0,0,1,1.63-.29,1.27,1.27,0,0,1,1.12,1.15,1.53,1.53,0,0,1-.24.8c-1,1.67-3,2-4.83,2.14a41,41,0,0,1-10.08-.12C140.37,155,136,154.93,136,152.16Z"/></g><path class="cls-3" d="M142.7,133.78l-.5.34,2,.79c1.47.58,3,1.24,3.85,2.59a7.32,7.32,0,0,0-3.66-1.13,11.91,11.91,0,0,1-1.89-.07,20.91,20.91,0,0,1-3.46-.64c-1-.54-.26-1.24-.73-2.28-.38-.82,0-3.41,1.34-2.34.49.39.72,1.19,1.2,1.65C141.09,132.9,142.38,134,142.7,133.78Z"/><ellipse class="cls-8" cx="144.2" cy="142.45" rx="1.49" ry="0.79"/><ellipse class="cls-8" cx="148.09" cy="144.5" rx="1.49" ry="0.79"/><ellipse class="cls-8" cx="155.75" cy="142.76" rx="1.49" ry="0.79"/><ellipse class="cls-8" cx="150.81" cy="139.49" rx="2.43" ry="0.79"/><path class="cls-1" d="M135.22,148.56s2.54,6.5,3.2,7.34a2.08,2.08,0,0,0,2.1.48,1.43,1.43,0,0,0,1-1.59c-.21-1.34-.66-4.36-.73-5.12a4,4,0,0,0-3.84-3.4C134.4,146.33,135.22,148.56,135.22,148.56Z"/><path class="cls-8" d="M138.42,155.9l1.16,4.24a1.43,1.43,0,0,0-1.53,1.44c-.21,1.6,4,1.56,4.8-.12s-.3-2.12-.3-2.12l-1-4.38S140.91,156.37,138.42,155.9Z"/><path class="cls-1" d="M151.75,148.29s3.81,6.43,4.79,7.3a2.38,2.38,0,0,0,2.1.51,1.43,1.43,0,0,0,1.05-1.57c-.19-1.34.29-4.4.23-5.16-.06-1-2.11-3.45-4.67-3.43A3.91,3.91,0,0,0,151.75,148.29Z"/><path class="cls-8" d="M156.54,155.59l1.1,4.26s-1.32-.18-1.55,1.42,4,1.61,4.8-.06-.27-2.12-.27-2.12l-.9-4.39S159,156.1,156.54,155.59Z"/><ellipse class="cls-8" cx="154.73" cy="147.5" rx="1.49" ry="0.79"/><path class="cls-3" d="M147.65,129.09a2.63,2.63,0,0,0,0,2.29,1.22,1.22,0,0,1-1-.48,3.17,3.17,0,0,1,.11,1,2.87,2.87,0,0,0,.82,1.84,3.35,3.35,0,0,1-2.54-2.85,4.16,4.16,0,0,1,1.43-3.55c.39-.34,1.08-.78,1.5-.23S147.82,128.58,147.65,129.09Z"/><path class="cls-9" d="M140.77,112.79a9,9,0,0,1,7.45-.23c4.27,1.65,3.67,3.69,2,6.38s-7.15,9.16-13.84,1.53C136.37,120.47,137.34,113.69,140.77,112.79Z"/><path class="cls-10" d="M122.55,121.76a3.05,3.05,0,0,1-1.39,2.33l.84,1.26,5.28,1.52,1-1.7-3.47-3.28Z"/><path class="cls-11" d="M127.65,124.22c-.31.6-1.89.32-3.61-.46-2.43-1.1-2.8-2-2.49-2.65s1.92-.39,3.61.47S128,123.62,127.65,124.22Z"/><ellipse class="cls-12" cx="124.63" cy="125.96" rx="1.23" ry="3.15" transform="matrix(0.51, -0.86, 0.86, 0.51, -47.33, 168.7)"/><path class="cls-2" d="M145.21,135.16a33.12,33.12,0,0,1-3.28.91c-9.54,2.62-14.08-6.12-15-6.87s-1.86-.26-4.43-1.66-2.73-2.46-2.34-3.58c.21-.62.86-.28.86-.28,3.22,1.91,4.88.06,5.56-.08a26.75,26.75,0,0,0-2.64-.94c-4.15-1.93-3.74-3.4-3.74-3.4-.45-1.36,1.07-6,5-4.05,3,1.48,4.49-1.36,5.69-2.21,0,0,4.9-5.16,11.7,0s7.52,10.4,3.32,16.57c0,0-.05,3.16.53,4l-.86.16.52,1Z"/><g class="cls-13"><path class="cls-14" d="M132.05,127.68c-2.11,2.72-7.06,2.4-11.08-.71s-5.55-7.83-3.44-10.55,6.82-3.56,10.83-.45S134.16,125,132.05,127.68Z"/></g><path class="cls-8" d="M126.18,117.84c-.6.78-2.31.46-3.82-.71s-1.29-2-.68-2.78,1.35-1.2,2.86,0S126.78,117.06,126.18,117.84Z"/><ellipse class="cls-15" cx="123.93" cy="114.74" rx="0.41" ry="0.82" transform="translate(-42.67 142.42) rotate(-52.23)"/><ellipse class="cls-16" cx="134.42" cy="125.05" rx="0.44" ry="0.85" transform="translate(-46.76 154.7) rotate(-52.23)"/><path class="cls-3" d="M141.63,113a3.39,3.39,0,0,0-.34-2,5.22,5.22,0,0,0-2.58-1.34,4.52,4.52,0,0,0-2.6.3c-.73.93-1.63,2.54-.57,3.91,0,0,1-2.72,2.88-3a2,2,0,0,0,1.1,2.41,1,1,0,0,1,.52-1.53S141.49,114,141.63,113Z"/><path class="cls-3" d="M143.18,108.93a2.85,2.85,0,0,0-.67,3,.79.79,0,0,1,.1.47.49.49,0,0,1-.57.33,1.2,1.2,0,0,1-.63-.35c-.75-.64-1.17-1.1-.62-2a3.07,3.07,0,0,1,1-1.06C142.13,109.14,143,109.11,143.18,108.93Z"/><ellipse class="cls-8" cx="140.05" cy="132.67" rx="0.98" ry="0.63" transform="translate(-39.07 204.29) rotate(-65.24)"/><ellipse class="cls-8" cx="141.42" cy="134.76" rx="0.98" ry="0.63" transform="translate(-49.9 95.3) rotate(-31.97)"/><path class="cls-3" d="M142.82,115l.3-1.07a6.86,6.86,0,0,1,1.64,3.46l.69-.94a8.36,8.36,0,0,1,1.67,3.7,1.15,1.15,0,0,1,.5-.59,5.26,5.26,0,0,0,1,1.42,2.23,2.23,0,0,0,.58-1.84,5.16,5.16,0,0,0-.66-1.87,16.56,16.56,0,0,0-1.64-2.5l.49-.07a10.34,10.34,0,0,0-3.58-2.48l.12-.39s-2.85-1.58-2.43.25a10.73,10.73,0,0,0,.5,1.09A11.72,11.72,0,0,0,142.82,115Z"/><path class="cls-2" d="M148.9,119.43a9,9,0,0,1,7.31,1.46c3.77,2.57,2.74,4.42.49,6.67s-9,7.3-13.83-1.65C142.87,125.91,145.35,119.53,148.9,119.43Z"/><path class="cls-7" d="M148.07,121.37a7.31,7.31,0,0,1,5.91,1.3c3.08,2.15,2.27,3.63.5,5.41s-7.18,5.78-11.18-1.55C143.3,126.53,145.21,121.4,148.07,121.37Z"/><path class="cls-2" d="M146.53,123.18a6.63,6.63,0,0,0,1.57-1.05,4.48,4.48,0,0,1-1.29,2.59,2.82,2.82,0,0,1,1.12,0,2.59,2.59,0,0,1-1,.81,5.13,5.13,0,0,1,.87,1.19,6.4,6.4,0,0,1-1.31-.13,4.31,4.31,0,0,1,.48,1.2l-.88-.4c-.22.91-.4,1.82-.55,2.74a45.13,45.13,0,0,0-4-6l1.94-2.71c.46-.63,1.76-2.36,2.74-1.64.41.3.46,1.08.5,1.54C146.77,121.67,146.83,123,146.53,123.18Z"/><ellipse class="cls-8" cx="143.14" cy="130.52" rx="1.43" ry="0.91" transform="translate(-35.32 205.84) rotate(-65.24)"/><path class="cls-2" d="M130.27,119.3a7.36,7.36,0,0,0-.19,1.22,2.45,2.45,0,0,0,.24,1,4.46,4.46,0,0,0,3.76,2.63,5.36,5.36,0,0,0,2.92-.73,5.53,5.53,0,0,0,2-1.81,3.83,3.83,0,0,0,.58-2.61,5.1,5.1,0,0,0-.58-1.55,6.94,6.94,0,0,0-2-2.4,3.85,3.85,0,0,0-2.95-.76,4.62,4.62,0,0,0-2.52,1.63c-.28.32-.58,1-.94,1.21s-.64-.19-1-.26A3.87,3.87,0,0,1,130.27,119.3Z"/><ellipse class="cls-17" cx="134.35" cy="119.29" rx="4.03" ry="3.09" transform="translate(-42.24 152.41) rotate(-52.22)"/><ellipse class="cls-11" cx="133.99" cy="119.75" rx="3.44" ry="2.63" transform="translate(-42.74 152.31) rotate(-52.22)"/><ellipse cx="133.99" cy="119.75" rx="2.62" ry="2" transform="translate(-42.74 152.31) rotate(-52.22)"/><ellipse class="cls-11" cx="134.24" cy="117.72" rx="0.88" ry="0.73" transform="matrix(0.61, -0.79, 0.79, 0.61, -41.04, 151.71)"/><path class="cls-3" d="M137.83,117.88a3.82,3.82,0,0,0-1.2-1.5,4.27,4.27,0,0,0-.83-.4l-1-.33a3.49,3.49,0,0,1,.53-.22,2.88,2.88,0,0,1,.59-.06,2.19,2.19,0,0,1,1.17.35A1.89,1.89,0,0,1,137.83,117.88Z"/><path class="cls-2" d="M130.23,121.39a5.62,5.62,0,0,0,.63,1,22.79,22.79,0,0,1,1.37,2.27,3.35,3.35,0,0,1,.45,1.39,3.65,3.65,0,0,1-.94,2.2c-.23.32-.47.76-.24,1.08a.65.65,0,0,0,.56.24,2,2,0,0,0,.61-.19,7.06,7.06,0,0,0,2.4-1.58,17.21,17.21,0,0,1-1.56-2.39,1.37,1.37,0,0,1-.22-.6c0-.44.31-.82.35-1.26l-1.91-1a2.23,2.23,0,0,1-1.12-1c-.1-.23,0-.83-.33-.92S130.15,121.21,130.23,121.39Z"/></svg>