<svg id="Layer_2" data-name="Layer 2" xmlns="http://www.w3.org/2000/svg" xmlns:xlink="http://www.w3.org/1999/xlink" viewBox="0 0 260 168"><defs><style>.cls-1{fill:#dda854;}.cls-2{fill:#7a3100;}.cls-3{fill:#ce994d;}.cls-4{fill:#1e1000;}.cls-5{clip-path:url(#clip-path);}.cls-6{fill:#f7d19a;}.cls-7{fill:#301c00;}.cls-8{fill:#e8ba67;}</style><clipPath id="clip-path"><path class="cls-1" d="M138.73,133.23a50.28,50.28,0,0,0,10,3.92c9.47,2.68,11.6,4,11.45,10-.18,7-4.28,6.53-10.72,6.86s-19.25.13-19.92-13.4C128.74,125,138.73,133.23,138.73,133.23Z"/></clipPath></defs><path class="cls-2" d="M164,145.22l-.45.12a3.92,3.92,0,0,1,1.89,1.94,12.86,12.86,0,0,1,1.34,3.64,10.69,10.69,0,0,1-2.81-.55,3.45,3.45,0,0,1-2-1.92l0,1.12-.68-1.18a2.57,2.57,0,0,1-.53,1c-.4.48-2.43-2.1-2.58-2.4-.43-.81-.95-2.25-.4-3.13s2.07-.67,2.94-.49A6.48,6.48,0,0,1,164,145.22Z"/><path class="cls-3" d="M150.12,147.52a80,80,0,0,0,2.19,7.71,2.09,2.09,0,0,0,2,.76,1.44,1.44,0,0,0,1.22-1.44c0-1.36-.08-4.41,0-5.18a4,4,0,0,0-3.35-3.88C149.61,145.2,150.12,147.52,150.12,147.52Z"/><path class="cls-4" d="M152.31,155.23l.58,4.36a1.43,1.43,0,0,0-1.71,1.22c-.42,1.55,3.77,2.08,4.78.52s0-2.14,0-2.14l-.38-4.47S154.71,156,152.31,155.23Z"/><path class="cls-3" d="M133.09,147.52a80,80,0,0,0,2.19,7.71,2.11,2.11,0,0,0,2,.76,1.43,1.43,0,0,0,1.22-1.44c0-1.36-.07-4.41,0-5.18a4,4,0,0,0-3.36-3.88C132.58,145.2,133.09,147.52,133.09,147.52Z"/><path class="cls-4" d="M135.28,155.23l.59,4.36a1.44,1.44,0,0,0-1.72,1.22c-.42,1.55,3.77,2.08,4.78.52s0-2.14,0-2.14l-.38-4.47S137.69,156,135.28,155.23Z"/><path class="cls-1" d="M138.73,133.23a50.28,50.28,0,0,0,10,3.92c9.47,2.68,11.6,4,11.45,10-.18,7-4.28,6.53-10.72,6.86s-19.25.13-19.92-13.4C128.74,125,138.73,133.23,138.73,133.23Z"/><g class="cls-5"><path class="cls-6" d="M136,152.16a1.09,1.09,0,0,1,.35-.91,1.13,1.13,0,0,1,.7-.14A16.72,16.72,0,0,1,141,152a23.48,23.48,0,0,0,13.54-.33,3.71,3.71,0,0,1,1.63-.29,1.27,1.27,0,0,1,1.12,1.15,1.53,1.53,0,0,1-.24.8c-1,1.67-3,2-4.83,2.14a41,41,0,0,1-10.08-.12C140.37,155,136,154.93,136,152.16Z"/></g><ellipse class="cls-7" cx="144.2" cy="142.45" rx="1.49" ry="0.79"/><ellipse class="cls-7" cx="148.09" cy="144.5" rx="1.49" ry="0.79"/><ellipse class="cls-7" cx="155.75" cy="142.76" rx="1.49" ry="0.79"/><ellipse class="cls-7" cx="150.81" cy="139.49" rx="2.43" ry="0.79"/><path class="cls-1" d="M135.22,148.56s2.54,6.5,3.2,7.34a2.08,2.08,0,0,0,2.1.48,1.43,1.43,0,0,0,1-1.59c-.21-1.34-.66-4.36-.73-5.12a4,4,0,0,0-3.84-3.4C134.4,146.33,135.22,148.56,135.22,148.56Z"/><path class="cls-7" d="M138.42,155.9l1.16,4.24a1.43,1.43,0,0,0-1.53,1.44c-.21,1.6,4,1.56,4.8-.12s-.3-2.12-.3-2.12l-1-4.38S140.91,156.37,138.42,155.9Z"/><path class="cls-1" d="M151.75,148.29s3.81,6.43,4.79,7.3a2.38,2.38,0,0,0,2.1.51,1.43,1.43,0,0,0,1.05-1.57c-.19-1.34.29-4.4.23-5.16-.06-1-2.11-3.45-4.67-3.43A3.91,3.91,0,0,0,151.75,148.29Z"/><path class="cls-7" d="M156.54,155.59l1.1,4.26s-1.32-.18-1.55,1.42,4,1.61,4.8-.06-.27-2.12-.27-2.12l-.9-4.39S159,156.1,156.54,155.59Z"/><ellipse class="cls-7" cx="154.73" cy="147.5" rx="1.49" ry="0.79"/><path class="cls-8" d="M134.71,112.24s-2.56-3.89-8.73-5.07c0,0-7.15,10.91,8.35,12.28A4.85,4.85,0,0,0,134.71,112.24Z"/><path class="cls-8" d="M144.54,113.37s4.14-2.11,10.1-.1c0,0,.84,13-13.33,6.57A4.87,4.87,0,0,1,144.54,113.37Z"/><path class="cls-8" d="M123.07,124a3.59,3.59,0,0,0,1.34-.55s0,0-.09-.06a3.65,3.65,0,0,0,.55-.3h0a13.4,13.4,0,0,1,1.8-1.81,19.62,19.62,0,0,0,1.66-3.53c.86-2.2,2.23-4.62,4.56-5a6.45,6.45,0,0,1,5.68-1.12l2.88.87c1.55,0,2.76,1.35,3.57,2.68a13.39,13.39,0,0,1,1.4,4.44l2.13,11.1a4.21,4.21,0,0,1-1.75.35l1,1.23a11,11,0,0,1-7.17,1.7c-2.51-.15-4.95-.79-7.43-1.17a6.13,6.13,0,0,1-2.67-.81,3.22,3.22,0,0,1-.28-.24,9.53,9.53,0,0,1-4.11-2.58,4.93,4.93,0,0,1-.58-.8,4,4,0,0,1-1.83-2.47,1.86,1.86,0,0,0,.74-.09A5.58,5.58,0,0,1,123.07,124Z"/><path class="cls-2" d="M134.29,111.79a2.93,2.93,0,0,1,1.71-.42,3.73,3.73,0,0,0-1.39-1.63,2.61,2.61,0,0,1,3.07,1.34,4.57,4.57,0,0,0,.26-1.84,5.29,5.29,0,0,1,1.46,2.51l1.38-2,.45,2.72a3.83,3.83,0,0,1,2.53-1.42,3.46,3.46,0,0,0-.44,2.31l.51-.24c-.45,2.17,1.36,4.48.5,6.52a1.31,1.31,0,0,0-.77-1,18,18,0,0,1,0,5.18l-.75-.77a26,26,0,0,0,.35,6.65l-1.45-.54a6.69,6.69,0,0,0,1.36,4.2l-1.31-.42a3.69,3.69,0,0,0,.61,1.82,4.3,4.3,0,0,1-4.06-1.83,3.24,3.24,0,0,1-.26,1.27,9,9,0,0,1-2-5.25L135,130.19a11,11,0,0,1-.25-6.77,2.39,2.39,0,0,1-1.35.53,19.51,19.51,0,0,1,1.93-6.65l-1.06.35a6.15,6.15,0,0,1,1.92-3.53,10.63,10.63,0,0,0-1.77.43,3,3,0,0,1,1.58-1.83,1.57,1.57,0,0,0-1.7-.51"/><path class="cls-2" d="M142.28,132.69l-.54.26,1.91,1.06c1.38.76,2.85,1.62,3.48,3.07a7.32,7.32,0,0,0-3.48-1.6,12.81,12.81,0,0,1-1.87-.32,20.71,20.71,0,0,1-3.34-1.09c-.92-.66-.1-1.27-.43-2.35-.26-.87.43-3.39,1.63-2.15.44.45.57,1.27,1,1.79C140.8,131.6,141.94,132.86,142.28,132.69Z"/></svg>