<svg id="Layer_10" data-name="Layer 10" xmlns="http://www.w3.org/2000/svg" xmlns:xlink="http://www.w3.org/1999/xlink" viewBox="0 0 260 168"><defs><style>.cls-1{fill:#dda854;}.cls-2{fill:#e8ba67;}.cls-3{fill:#471e00;}.cls-4{fill:#190e01;}.cls-5{clip-path:url(#clip-path);}.cls-6{fill:#f7d19a;}.cls-7{fill:#301c00;}.cls-8{fill:#d19846;}.cls-9{fill:#e2af5d;}.cls-10{clip-path:url(#clip-path-2);}.cls-11{fill:#a06f20;}.cls-12{fill:#d69936;}.cls-13{clip-path:url(#clip-path-3);}.cls-14{clip-path:url(#clip-path-4);}.cls-15{fill:#c41e1e;}.cls-16{fill:#fff;}.cls-17{fill:#ffd38d;}.cls-18{fill:#7a3100;}.cls-19{fill:#93621b;}.cls-20{fill:#7a4609;}.cls-21{fill:#f4b460;}</style><clipPath id="clip-path"><path class="cls-1" d="M121.7,120.86s-7.13,16.22-6.15,25.78,27.31,12.45,29.69,0-2.49-17-7.37-26.88C132.19,108.25,121.7,120.86,121.7,120.86Z"/></clipPath><clipPath id="clip-path-2"><path class="cls-2" d="M150.38,110.1c0,5.14-9.28,11.58-20.72,11.58s-20.72-6.44-20.72-11.58,9.28-9.31,20.72-9.31S150.38,105,150.38,110.1Z"/></clipPath><clipPath id="clip-path-3"><circle class="cls-2" cx="129.66" cy="102.41" r="18.31"/></clipPath><clipPath id="clip-path-4"><path class="cls-3" d="M123.44,114.16a13,13,0,0,0,12.44-.34,6.23,6.23,0,0,1-6.24,4.9C123.88,118.72,123.44,114.16,123.44,114.16Z"/></clipPath></defs><path class="cls-1" d="M123.44,141.93s-9.42,4.86-10.77,5.67a3.08,3.08,0,0,0-1.08,3,2.11,2.11,0,0,0,2.14,1.77c2-.06,6.48-.2,7.61-.15,1.46.06,5.26-1.25,5.64-5S123.44,141.93,123.44,141.93Z"/><path class="cls-4" d="M112.67,147.6l-6.4.94a2.1,2.1,0,0,0-1.83-2.5c-2.29-.59-3,5.59-.67,7s3.14-.06,3.14-.06l6.56-.64S111.54,151.15,112.67,147.6Z"/><path class="cls-1" d="M138.5,141.73s9.52,5.06,10.87,5.87a3.08,3.08,0,0,1,1.08,3,2.11,2.11,0,0,1-2.14,1.77c-2-.06-6.48-.2-7.61-.15-1.46.06-5.26-1.25-5.64-5S138.5,141.73,138.5,141.73Z"/><path class="cls-4" d="M149.37,147.6l6.4.94a2.1,2.1,0,0,1,1.83-2.5c2.29-.59,3,5.59.67,7s-3.14-.06-3.14-.06l-6.56-.64S150.5,151.15,149.37,147.6Z"/><path class="cls-1" d="M121.7,120.86s-7.13,16.22-6.15,25.78,27.31,12.45,29.69,0-2.49-17-7.37-26.88C132.19,108.25,121.7,120.86,121.7,120.86Z"/><g class="cls-5"><ellipse class="cls-6" cx="131.3" cy="148.86" rx="8.39" ry="13.1"/><ellipse class="cls-7" cx="117.7" cy="128.52" rx="3.82" ry="1.95"/><ellipse class="cls-7" cx="143.61" cy="128.52" rx="3.82" ry="1.95"/><ellipse class="cls-7" cx="146.65" cy="132.28" rx="3.82" ry="1.95"/><ellipse class="cls-7" cx="115.79" cy="133.19" rx="3.82" ry="1.95"/><ellipse class="cls-8" cx="129.78" cy="114.15" rx="12.55" ry="9.43"/></g><path class="cls-9" d="M117.84,90.33a13.92,13.92,0,0,0-9.14-7.12c-6.87-1.82-8,1.28-8.34,6.2s.59,18.06,16,14.6C116.35,104,121.33,94.6,117.84,90.33Z"/><path class="cls-6" d="M116.4,93.28a11.37,11.37,0,0,0-7.53-5.64c-5.66-1.44-6.59,1-6.88,4.92s.5,14.31,13.18,11.57C115.17,104.13,119.28,96.67,116.4,93.28Z"/><path class="cls-9" d="M141.48,90.33a14,14,0,0,1,9.14-7.12c6.87-1.82,8,1.28,8.35,6.2s-.6,18.06-16,14.6C143,104,138,94.6,141.48,90.33Z"/><path class="cls-6" d="M142.92,93.28a11.37,11.37,0,0,1,7.53-5.64c5.66-1.44,6.59,1,6.88,4.92s-.49,14.31-13.18,11.57C144.15,104.13,140.05,96.67,142.92,93.28Z"/><path class="cls-2" d="M150.38,110.1c0,5.14-9.28,11.58-20.72,11.58s-20.72-6.44-20.72-11.58,9.28-9.31,20.72-9.31S150.38,105,150.38,110.1Z"/><g class="cls-10"><path class="cls-11" d="M143.51,112.59c.89,6.43-5.75,9.09-13.34,9.09s-14.38-2.46-14.22-9c.12-5,6.64-9.13,14.22-9.13S142.83,107.62,143.51,112.59Z"/></g><circle class="cls-12" cx="113.45" cy="96.29" r="4.5"/><circle class="cls-12" cx="144.83" cy="96.29" r="4.5"/><circle class="cls-2" cx="129.66" cy="102.41" r="18.31"/><g class="cls-13"><ellipse class="cls-11" cx="129.84" cy="114.26" rx="13.7" ry="8.11"/></g><path class="cls-3" d="M123.44,114.16a13,13,0,0,0,12.44-.34,6.23,6.23,0,0,1-6.24,4.9C123.88,118.72,123.44,114.16,123.44,114.16Z"/><g class="cls-14"><ellipse class="cls-15" cx="129.64" cy="120.01" rx="4.16" ry="2.42"/><ellipse class="cls-16" cx="129.64" cy="114.6" rx="4.26" ry="2.54"/></g><ellipse class="cls-17" cx="117.53" cy="102.46" rx="4.81" ry="6.26"/><ellipse class="cls-17" cx="141.9" cy="102.46" rx="4.81" ry="6.26"/><ellipse class="cls-16" cx="117.42" cy="103.37" rx="4.09" ry="5.35"/><ellipse cx="117.42" cy="103.37" rx="3.12" ry="4.08"/><ellipse class="cls-16" cx="115.79" cy="100.64" rx="1.14" ry="1.37"/><ellipse class="cls-16" cx="141.9" cy="103.37" rx="4.09" ry="5.35"/><ellipse cx="141.9" cy="103.37" rx="3.12" ry="4.08"/><ellipse class="cls-16" cx="140.26" cy="100.64" rx="1.14" ry="1.37"/><path class="cls-18" d="M136.88,85.58c.84,1.45-3.14,0-3.14,0a1.58,1.58,0,0,0,.82,2.37A3.15,3.15,0,0,1,130.91,86c-2,2.19-.64,6.47-.64,6.47-3.92-1-2.91-6.93-2.91-6.93-1.28.37-3.07,3-3.07,3a7,7,0,0,1,1.33-3.1l-1.73.73c-1.55.82-2.74.91-3.07-.18,0,0,1-3,7.68-3.36a3.05,3.05,0,0,0-.89-2.64s2.87.43,3.35,2.64C131,82.68,135.14,82.57,136.88,85.58Z"/><ellipse class="cls-19" cx="129.66" cy="110.57" rx="8.84" ry="5.29"/><ellipse class="cls-7" cx="129.66" cy="108.46" rx="5.37" ry="2.77"/><ellipse class="cls-20" cx="128.04" cy="106.79" rx="1.28" ry="0.64"/><path class="cls-18" d="M114.68,97.42A2.63,2.63,0,0,1,115.79,96a3,3,0,0,1,1.87-.5,3.49,3.49,0,0,1,1.77.68,5.64,5.64,0,0,1,.66.63,5.17,5.17,0,0,1,.45.79,5.21,5.21,0,0,1-.82-.3L119,97a6.81,6.81,0,0,0-1.39-.3A5.91,5.91,0,0,0,114.68,97.42Z"/><path class="cls-18" d="M144.83,97.42a5.91,5.91,0,0,0-2.9-.7,6.67,6.67,0,0,0-1.39.3l-.75.26a5.75,5.75,0,0,1-.83.3,5.24,5.24,0,0,1,.46-.79,4.86,4.86,0,0,1,.65-.63,3.56,3.56,0,0,1,1.78-.68,3.05,3.05,0,0,1,1.87.5A2.63,2.63,0,0,1,144.83,97.42Z"/><ellipse class="cls-12" cx="111.39" cy="109.48" rx="1.32" ry="0.68"/><ellipse class="cls-12" cx="147.97" cy="109.48" rx="1.32" ry="0.68"/><path class="cls-21" d="M123.33,125.27c-.25.54-.83,1.75-.23,2.24s1.85-.23,2.4-.55l-.58-.33a1.77,1.77,0,0,0,3.46.37h-.73a1.9,1.9,0,0,0,3.49.17h-.66a1.64,1.64,0,0,0,1.41.89,1.66,1.66,0,0,0,.73-.13c.21-.09.62-.58.82-.57s.41.25.5.29a2.55,2.55,0,0,0,.54.22,1.5,1.5,0,0,0,1,0,1.14,1.14,0,0,0,.73-1.43l-.63.37c.64.57,1.73,1.24,2.45.37s-.34-1.48-.55-2.25a.38.38,0,0,0-.74.21,4.36,4.36,0,0,0,.61,1c.17.28.21.57-.21.64s-.77-.32-1-.55-.78,0-.64.37-.33.6-.67.55a2.52,2.52,0,0,1-.78-.36c-.3-.17-.57-.35-.92-.2s-.48.58-.88.68a.93.93,0,0,1-1.05-.49.38.38,0,0,0-.66,0,1.14,1.14,0,0,1-2.1,0,.38.38,0,0,0-.73,0,1,1,0,0,1-2-.17.39.39,0,0,0-.57-.33c-.32.19-1,.64-1.36.57-.12.06-.15,0-.1-.12a1.59,1.59,0,0,1,.06-.3,4.11,4.11,0,0,1,.28-.79c.2-.45-.46-.83-.66-.39Z"/><path class="cls-1" d="M145.42,137.18s-1.79,10.1-2.49,11.51A3.08,3.08,0,0,1,140,150a2.1,2.1,0,0,1-1.93-2c-.09-2-.3-6.48-.43-7.6-.17-1.45.84-5.34,4.56-6S145.42,137.18,145.42,137.18Z"/><path class="cls-7" d="M142.93,148.69l-.45,6.45a2.11,2.11,0,0,1,2.63,1.63c.76,2.24-5.34,3.4-7,1.21s-.17-3.14-.17-3.14l.13-6.59S139.47,150.09,142.93,148.69Z"/><path class="cls-1" d="M116.63,137.37s2.06,10,2.8,11.44a3.08,3.08,0,0,0,2.93,1.22,2.1,2.1,0,0,0,1.88-2.05c0-2,.12-6.48.22-7.61.13-1.45-1-5.32-4.72-5.88S116.63,137.37,116.63,137.37Z"/><path class="cls-7" d="M119.43,148.81l.63,6.43a2.12,2.12,0,0,0-2.59,1.71c-.7,2.26,5.43,3.25,7,1s.09-3.15.09-3.15l-.32-6.58S122.93,150.11,119.43,148.81Z"/></svg>