<svg id="Layer_3" data-name="Layer 3" xmlns="http://www.w3.org/2000/svg" xmlns:xlink="http://www.w3.org/1999/xlink" viewBox="0 0 260 168"><defs><style>.cls-1{fill:#dda854;}.cls-2{fill:#e8ba67;}.cls-3{fill:#fff;}.cls-4{fill:#994a0a;}.cls-5{fill:#471e00;}.cls-6{fill:#bc6319;}.cls-7{fill:#c48a37;}.cls-8{fill:#190e01;}.cls-9{clip-path:url(#clip-path);}.cls-10{fill:#f7d19a;}.cls-11{fill:#301c00;}.cls-12{fill:#d19846;}.cls-13{fill:#e2af5d;}.cls-14{clip-path:url(#clip-path-2);}.cls-15{fill:#a06f20;}.cls-16{fill:#d69936;}.cls-17{clip-path:url(#clip-path-3);}.cls-18{fill:#ffd38d;}.cls-19{clip-path:url(#clip-path-4);}.cls-20{fill:#c41e1e;}.cls-21{fill:#7a3100;}.cls-22{fill:#93621b;}.cls-23{fill:#7a4609;}.cls-24{fill:#a54c0a;}.cls-25{clip-path:url(#clip-path-5);}.cls-26{fill:#a04908;}.cls-27{clip-path:url(#clip-path-6);}.cls-28{clip-path:url(#clip-path-7);}.cls-29{fill:#b25712;}.cls-30{fill:#d67934;}.cls-31{clip-path:url(#clip-path-8);}.cls-32{clip-path:url(#clip-path-9);}.cls-33{fill:#af5614;}.cls-34{fill:#682c02;}.cls-35{fill:#c1671e;}.cls-36{fill:#d6752d;}.cls-37{fill:#c97523;}.cls-38{clip-path:url(#clip-path-10);}.cls-39{clip-path:url(#clip-path-11);}.cls-40{clip-path:url(#clip-path-12);}.cls-41{fill:#f49547;}.cls-42{fill:#a8540e;}</style><clipPath id="clip-path"><circle class="cls-1" cx="149.5" cy="124.21" r="10.86"/></clipPath><clipPath id="clip-path-2"><path class="cls-2" d="M165.19,113.47c.72,4.33-6.17,11-15.79,12.65s-18.32-2.5-19-6.82,6.49-9.13,16.1-10.74S164.46,109.15,165.19,113.47Z"/></clipPath><clipPath id="clip-path-3"><circle class="cls-2" cx="146.69" cy="109.92" r="15.6" transform="translate(-15.3 24.12) rotate(-8.94)"/></clipPath><clipPath id="clip-path-4"><path class="cls-5" d="M144.44,123.91a4.9,4.9,0,0,1,3.67-3.76c3.22-.85,4.88,2.19,4.88,2.19A12.77,12.77,0,0,0,144.44,123.91Z"/></clipPath><clipPath id="clip-path-5"><path class="cls-6" d="M97.48,139.38s1.52,5,1.45,6.68c0,0-.23,1.09,1.21.29,0,0,.83,1.07,2.42,0a1.15,1.15,0,0,0,.39-.46c.34-.76,1.09-3.06.14-7.3C101.91,133.27,96.37,133.65,97.48,139.38Z"/></clipPath><clipPath id="clip-path-6"><path class="cls-6" d="M113,139.38s-1.52,5-1.45,6.68c0,0,.23,1.09-1.21.29,0,0-.83,1.07-2.42,0a1.15,1.15,0,0,1-.39-.46c-.34-.76-1.09-3.06-.14-7.3C108.57,133.27,114.11,133.65,113,139.38Z"/></clipPath><clipPath id="clip-path-7"><path class="cls-6" d="M117.42,134.93c0,9.1-5.56,10-12.43,10s-12.43-.89-12.43-10,5.57-16.46,12.43-16.46S117.42,125.84,117.42,134.93Z"/></clipPath><clipPath id="clip-path-8"><path class="cls-6" d="M94,141.44s1.52,5,1.45,6.68c0,0-.23,1.09,1.21.29,0,0,.83,1.07,2.42,0a1.15,1.15,0,0,0,.39-.46c.34-.76,1.09-3.06.14-7.3C98.4,135.33,92.86,135.71,94,141.44Z"/></clipPath><clipPath id="clip-path-9"><path class="cls-6" d="M115.7,141.44s-1.52,5-1.45,6.68c0,0,.23,1.09-1.21.29,0,0-.83,1.07-2.42,0a1.26,1.26,0,0,1-.4-.46c-.33-.76-1.08-3.06-.14-7.3C111.27,135.33,116.81,135.71,115.7,141.44Z"/></clipPath><clipPath id="clip-path-10"><circle class="cls-3" cx="98.1" cy="116.47" r="3.76"/></clipPath><clipPath id="clip-path-11"><circle class="cls-3" cx="117.63" cy="121.17" r="3.76"/></clipPath><clipPath id="clip-path-12"><path class="cls-4" d="M101.86,128.41a9,9,0,0,1,8.47,1.72,4.33,4.33,0,0,0-3.68-4.11C102.7,125.33,101.86,128.41,101.86,128.41Z"/></clipPath></defs><path class="cls-7" d="M141.11,127.64s1.69,8.58,2.31,9.77a2.62,2.62,0,0,0,2.49,1.06,1.78,1.78,0,0,0,1.61-1.73c0-1.7.15-5.52.25-6.48.12-1.24-.81-4.54-4-5S141.11,127.64,141.11,127.64Z"/><path class="cls-8" d="M143.42,137.41l.49,5.49a1.79,1.79,0,0,0-2.21,1.43c-.62,1.93,4.6,2.82,6,.92s.1-2.68.1-2.68l-.22-5.61S146.39,138.55,143.42,137.41Z"/><path class="cls-7" d="M158.37,127.14s-1.21,8.66-1.76,9.88a2.63,2.63,0,0,1-2.43,1.19,1.77,1.77,0,0,1-1.7-1.64c-.14-1.69-.46-5.5-.61-6.45-.18-1.24.55-4.58,3.7-5.26S158.37,127.14,158.37,127.14Z"/><path class="cls-8" d="M156.61,137l-.19,5.5a1.8,1.8,0,0,1,2.29,1.31c.72,1.89-4.44,3.07-5.89,1.25s-.25-2.67-.25-2.67l-.08-5.61S153.71,138.32,156.61,137Z"/><circle class="cls-1" cx="149.5" cy="124.21" r="10.86"/><g class="cls-9"><ellipse class="cls-10" cx="149.5" cy="137.46" rx="5.77" ry="6.65"/><ellipse class="cls-11" cx="138.27" cy="125.31" rx="1.85" ry="1.1"/><ellipse class="cls-11" cx="137.98" cy="127.94" rx="1.85" ry="1.1"/><ellipse class="cls-11" cx="160.36" cy="124.21" rx="1.85" ry="1.1"/><ellipse class="cls-11" cx="160.36" cy="126.66" rx="1.85" ry="1.1"/><ellipse class="cls-12" cx="149.5" cy="120.47" rx="10" ry="7.13"/></g><path class="cls-13" d="M135.06,101.42a11.85,11.85,0,0,0-8.68-4.69c-6-.57-6.54,2.19-6.15,6.38s3,15.1,15.5,10C135.73,113.13,138.59,104.52,135.06,101.42Z"/><path class="cls-10" d="M134.27,104.11a9.68,9.68,0,0,0-7.13-3.68c-5-.42-5.39,1.77-5.09,5.1s2.43,12,12.7,7.87C134.75,113.4,137.16,106.55,134.27,104.11Z"/><path class="cls-13" d="M154.93,98.1a11.86,11.86,0,0,1,6.68-7.26c5.53-2.5,6.9,0,7.89,4s2,15.26-11.39,14.51C158.11,109.39,152.6,102.18,154.93,98.1Z"/><path class="cls-10" d="M156.55,100.39a9.7,9.7,0,0,1,5.54-5.8c4.56-2,5.68-.08,6.48,3.16s1.59,12.11-9.46,11.58C159.11,109.33,154.62,103.64,156.55,100.39Z"/><path class="cls-2" d="M165.19,113.47c.72,4.33-6.17,11-15.79,12.65s-18.32-2.5-19-6.82,6.49-9.13,16.1-10.74S164.46,109.15,165.19,113.47Z"/><g class="cls-14"><path class="cls-15" d="M159.77,116.53c1.64,5.28-3.56,8.45-9.94,9.52s-12.43,0-13.23-5.59c-.6-4.23,4.3-8.61,10.68-9.67S158.5,112.45,159.77,116.53Z"/></g><circle class="cls-16" cx="132.2" cy="107.05" r="3.84"/><circle class="cls-16" cx="158.58" cy="102.65" r="3.84"/><circle class="cls-2" cx="146.69" cy="109.92" r="15.6" transform="translate(-15.3 24.12) rotate(-8.94)"/><g class="cls-17"><ellipse class="cls-15" cx="148.51" cy="119.86" rx="11.68" ry="6.91" transform="translate(-17.73 26.12) rotate(-9.49)"/></g><ellipse class="cls-18" cx="136.5" cy="111.67" rx="4.1" ry="5.34" transform="translate(-16.54 24.03) rotate(-9.49)"/><ellipse class="cls-18" cx="156.99" cy="108.25" rx="4.1" ry="5.34" transform="translate(-15.7 27.36) rotate(-9.49)"/><ellipse class="cls-3" cx="136.54" cy="112.45" rx="3.49" ry="4.56" transform="translate(-16.67 24.04) rotate(-9.49)"/><path d="M140,111.94c-.31-1.89-1.74-3.23-3.19-3a2.15,2.15,0,0,0-.81.34,1.2,1.2,0,0,1,.59.86,1.09,1.09,0,0,1-.77,1.31,1,1,0,0,1-1-.5,4.21,4.21,0,0,0-.1,1.85c.32,1.9,1.75,3.23,3.2,3S140.3,113.83,140,111.94Z"/><path class="cls-5" d="M144.44,123.91a4.9,4.9,0,0,1,3.67-3.76c3.22-.85,4.88,2.19,4.88,2.19A12.77,12.77,0,0,0,144.44,123.91Z"/><g class="cls-19"><ellipse class="cls-20" cx="148.79" cy="124.03" rx="3.26" ry="2.58" transform="translate(-26.65 41.92) rotate(-14.74)"/></g><ellipse class="cls-3" cx="157.11" cy="109.01" rx="3.49" ry="4.56" transform="translate(-15.82 27.39) rotate(-9.49)"/><path d="M160.56,108.5c-.32-1.89-1.75-3.23-3.2-3a2.22,2.22,0,0,0-.81.34,1.24,1.24,0,0,1,.59.86,1.08,1.08,0,0,1-.77,1.31,1,1,0,0,1-1-.5,4.26,4.26,0,0,0-.09,1.86c.31,1.89,1.74,3.23,3.19,3S160.87,110.39,160.56,108.5Z"/><path class="cls-21" d="M150.4,94.76c.9,1.1-2.64.44-2.64.44a1.34,1.34,0,0,0,1,1.88,2.69,2.69,0,0,1-3.34-1.1c-1.37,2.13.38,5.54.38,5.54-3.44-.3-3.43-5.42-3.43-5.42-1,.49-2.15,3-2.15,3a6,6,0,0,1,.68-2.79l-1.35.85c-1.19.91-2.18,1.15-2.61.28,0,0,.45-2.7,6-3.9a2.58,2.58,0,0,0-1.12-2.09s2.48,0,3.19,1.75C145,93.16,148.51,92.48,150.4,94.76Z"/><ellipse class="cls-22" cx="147.84" cy="116.78" rx="7.53" ry="4.51" transform="translate(-17.23 25.97) rotate(-9.49)"/><ellipse class="cls-11" cx="147.54" cy="115.01" rx="4.58" ry="2.36" transform="translate(-16.94 25.89) rotate(-9.49)"/><ellipse class="cls-23" cx="145.94" cy="113.83" rx="1.09" ry="0.54" transform="translate(-16.77 25.61) rotate(-9.49)"/><path class="cls-21" d="M133.28,106.77a25.24,25.24,0,0,1,2.79-.88,8.49,8.49,0,0,0,1.26-.43,3.5,3.5,0,0,0,1.16-.77,1.82,1.82,0,0,1-.7,1.46,3.68,3.68,0,0,1-1.43.76,5.44,5.44,0,0,1-1.55.19A4.13,4.13,0,0,1,133.28,106.77Z"/><path class="cls-21" d="M158.61,103.11a3.24,3.24,0,0,1-1.39.53,4.66,4.66,0,0,1-1.49,0,3.15,3.15,0,0,1-2.4-1.72c.5.15.91.3,1.33.41s.84.2,1.26.27C156.77,102.75,157.63,102.85,158.61,103.11Z"/><ellipse class="cls-16" cx="132.33" cy="118.43" rx="1.13" ry="0.58" transform="translate(-17.71 23.43) rotate(-9.49)"/><ellipse class="cls-16" cx="162.57" cy="113.38" rx="1.13" ry="0.58" transform="translate(-16.46 28.35) rotate(-9.49)"/><path class="cls-1" d="M139.34,129.53s.86,8.7,1.36,9.94a2.6,2.6,0,0,0,2.37,1.3,1.78,1.78,0,0,0,1.77-1.57c.21-1.69.69-5.48.87-6.43.24-1.22-.36-4.6-3.47-5.4S139.34,129.53,139.34,129.53Z"/><path class="cls-11" d="M140.7,139.47l0,5.51a1.8,1.8,0,0,0-2.35,1.22c-.79,1.85,4.31,3.24,5.84,1.48s.36-2.65.36-2.65l.32-5.61S143.54,140.89,140.7,139.47Z"/><path class="cls-1" d="M159.91,129.53s-.24,8.74-.66,10A2.64,2.64,0,0,1,157,141a1.8,1.8,0,0,1-1.88-1.44c-.33-1.67-1.07-5.43-1.32-6.36-.32-1.2,0-4.61,3.09-5.63S159.91,129.53,159.91,129.53Z"/><path class="cls-11" d="M159.25,139.55l.43,5.49a1.8,1.8,0,0,1,2.43,1.05c.92,1.79-4.08,3.54-5.73,1.89s-.54-2.63-.54-2.63l-.71-5.56S156.52,141.16,159.25,139.55Z"/><path class="cls-21" d="M117.6,141.75a2.82,2.82,0,0,0,1.6.73,10.29,10.29,0,0,0,1.66.19.43.43,0,0,1-.31-.19.75.75,0,0,1,.82.49,4.54,4.54,0,0,0-.25-2.8,2.66,2.66,0,0,0-2.22-1.57,1.5,1.5,0,0,0-1.06.33A2.48,2.48,0,0,0,117.6,141.75Z"/><path class="cls-24" d="M113.63,137.6s5,.78,5.16,3.23c0,0-.51-.62-5.16-1.19S111.19,137.42,113.63,137.6Z"/><path class="cls-6" d="M97.48,139.38s1.52,5,1.45,6.68c0,0-.23,1.09,1.21.29,0,0,.83,1.07,2.42,0a1.15,1.15,0,0,0,.39-.46c.34-.76,1.09-3.06.14-7.3C101.91,133.27,96.37,133.65,97.48,139.38Z"/><g class="cls-25"><path class="cls-26" d="M97.58,144.36c.17.07,2,1.77,6.75.49v2.92l-7-.07-1.51-2.63Z"/></g><path class="cls-6" d="M113,139.38s-1.52,5-1.45,6.68c0,0,.23,1.09-1.21.29,0,0-.83,1.07-2.42,0a1.15,1.15,0,0,1-.39-.46c-.34-.76-1.09-3.06-.14-7.3C108.57,133.27,114.11,133.65,113,139.38Z"/><g class="cls-27"><path class="cls-26" d="M112.9,144.36c-.17.07-2,1.77-6.75.49v2.92l7-.07,1.51-2.63Z"/></g><path class="cls-6" d="M117.42,134.93c0,9.1-5.56,10-12.43,10s-12.43-.89-12.43-10,5.57-16.46,12.43-16.46S117.42,125.84,117.42,134.93Z"/><g class="cls-28"><ellipse class="cls-29" cx="104.98" cy="124.97" rx="13.02" ry="8.59"/><ellipse class="cls-30" cx="104.99" cy="144.5" rx="7.12" ry="0.96"/></g><path class="cls-6" d="M94,141.44s1.52,5,1.45,6.68c0,0-.23,1.09,1.21.29,0,0,.83,1.07,2.42,0a1.15,1.15,0,0,0,.39-.46c.34-.76,1.09-3.06.14-7.3C98.4,135.33,92.86,135.71,94,141.44Z"/><g class="cls-31"><path class="cls-26" d="M94.08,146.42c.16.07,2,1.77,6.74.49v2.92l-7-.07-1.51-2.63Z"/></g><path class="cls-6" d="M115.7,141.44s-1.52,5-1.45,6.68c0,0,.23,1.09-1.21.29,0,0-.83,1.07-2.42,0a1.26,1.26,0,0,1-.4-.46c-.33-.76-1.08-3.06-.14-7.3C111.27,135.33,116.81,135.71,115.7,141.44Z"/><g class="cls-32"><path class="cls-26" d="M115.59,146.42c-.16.07-2,1.77-6.74.49v2.92l7-.07,1.51-2.63Z"/></g><ellipse class="cls-33" cx="93.54" cy="131.69" rx="0.9" ry="0.4" transform="translate(-47.64 210.18) rotate(-83.69)"/><ellipse class="cls-33" cx="93.94" cy="133.92" rx="0.76" ry="0.34" transform="translate(-49.5 212.57) rotate(-83.69)"/><ellipse class="cls-33" cx="116.39" cy="131.69" rx="0.34" ry="0.76" transform="translate(-11.77 11.43) rotate(-5.35)"/><path class="cls-34" d="M102.47,103.83a5.33,5.33,0,0,0-2.22,3.38.94.94,0,0,0,0,.5.91.91,0,0,0,.49.41,41.19,41.19,0,0,0,18.33,4.41.94.94,0,0,0,.72-.18.92.92,0,0,0,.17-.73,9.22,9.22,0,0,0-.18-2.53,7.91,7.91,0,0,0-1.55-2.44,9.57,9.57,0,0,0-3.32-2.56C111.45,102.83,106,101.48,102.47,103.83Z"/><path class="cls-35" d="M103,110.08c2.1,3-2.33,5.24-5.17,5.9s-5.81-1.7-6.64-5.26.81-7,3.65-7.63S101.05,107.34,103,110.08Z"/><path class="cls-36" d="M100.49,109.52c1.51,1.81-1.23,3.5-3,4.07s-3.83-.79-4.55-3,.16-4.54,2-5.11S99.11,107.85,100.49,109.52Z"/><path class="cls-35" d="M116.2,113.26c-3.23,1.71-.3,5.73,1.93,7.61s5.94,1.13,8.29-1.66,2.45-6.58.22-8.46S119.16,111.7,116.2,113.26Z"/><path class="cls-36" d="M118.66,113.89c-2.17.93-.49,3.68.85,5s3.77,1,5.43-.63,1.93-4.12.59-5.44S120.66,113,118.66,113.89Z"/><ellipse class="cls-37" cx="106.64" cy="123.89" rx="7.69" ry="17.5" transform="translate(-38.76 198.6) rotate(-76.47)"/><ellipse class="cls-37" cx="107.96" cy="118.44" rx="13.3" ry="15.46" transform="translate(-32.45 195.7) rotate(-76.47)"/><circle class="cls-3" cx="98.1" cy="116.47" r="3.76"/><g class="cls-38"><path d="M97.18,113.68a2.5,2.5,0,0,0-.94-.05,1,1,0,0,1,.31,1,1,1,0,0,1-2-.21,2.89,2.89,0,0,0-.77,1.35,2.81,2.81,0,1,0,3.39-2.07Z"/></g><circle class="cls-3" cx="117.63" cy="121.17" r="3.76"/><g class="cls-39"><path d="M116.86,118.15a3,3,0,0,0-.94-.05,1,1,0,0,1,.32,1,1,1,0,0,1-1.23.75,1,1,0,0,1-.76-1,2.73,2.73,0,0,0-.78,1.35,2.81,2.81,0,1,0,3.39-2.08Z"/></g><path class="cls-4" d="M101.86,128.41a9,9,0,0,1,8.47,1.72,4.33,4.33,0,0,0-3.68-4.11C102.7,125.33,101.86,128.41,101.86,128.41Z"/><g class="cls-40"><ellipse class="cls-20" cx="106.29" cy="128.78" rx="1.68" ry="2.89" transform="translate(-38.9 211.26) rotate(-80.07)"/></g><path class="cls-3" d="M100.36,123.41s-1.57.33-1.94.47,1.15,1.17,3,1Z"/><path class="cls-3" d="M112.47,126.32s1.23,1,1.51,1.3-1.56.52-3.13-.43Z"/><path class="cls-41" d="M112.66,125.78c-.44,1.83-3.53,2.66-6.91,1.84s-5.76-3-5.32-4.78,4.06-4.83,7.43-4S113.1,124,112.66,125.78Z"/><ellipse class="cls-42" cx="103.3" cy="123.23" rx="1.48" ry="0.8" transform="translate(-40.68 194.84) rotate(-76.47)"/><ellipse class="cls-42" cx="109.93" cy="124.82" rx="1.48" ry="0.8" transform="translate(-37.15 202.51) rotate(-76.47)"/><ellipse class="cls-35" cx="92.6" cy="119.13" rx="0.49" ry="1.5" transform="translate(-44.89 181.3) rotate(-76.47)"/><ellipse class="cls-35" cx="120.91" cy="125.94" rx="0.49" ry="1.5" transform="translate(-29.82 214.04) rotate(-76.47)"/><path class="cls-21" d="M107.24,106.86a5.57,5.57,0,0,0,2.76,6.07s1.14-4.76,3-4.32c0,0-.83,1.81.11,3a13.7,13.7,0,0,0,2-2.13l-.37,1.55s3.24-.32,3.39-2.29-1.65-5.31-6.54-6.49-7.84,1.09-8.3,2.86a3,3,0,0,0,.68,3l.8-1.45a2.72,2.72,0,0,0,1,3S106.54,107.12,107.24,106.86Z"/><path class="cls-37" d="M94,114.25s5,1.72,7.68-1l-.74-3-4.46.73Z"/><path class="cls-37" d="M115,116.72a11.08,11.08,0,0,0,7.86,4.35l-1.63-5Z"/></svg>