<svg id="Layer_16" data-name="Layer 16" xmlns="http://www.w3.org/2000/svg" xmlns:xlink="http://www.w3.org/1999/xlink" viewBox="0 0 260 168"><defs><style>.cls-1{fill:#dda854;}.cls-2{fill:#e8ba67;}.cls-3{fill:#7a3100;}.cls-4{fill:#ce994d;}.cls-5{fill:#1e1000;}.cls-6{clip-path:url(#clip-path);}.cls-7{fill:#f7d19a;}.cls-8{fill:#301c00;}.cls-9{fill:#d8a34e;}.cls-10{fill:#471e00;}.cls-11{fill:#fff;}.cls-12{fill:#c41e1e;}.cls-13{clip-path:url(#clip-path-2);}.cls-14{fill:#a06f20;}.cls-15{fill:#7a4609;}.cls-16{fill:#d69936;}.cls-17{fill:#ffd38d;}</style><clipPath id="clip-path"><path class="cls-1" d="M171.91,115.24a34.38,34.38,0,0,0-9.92,1.53c-9.57,2.7-11.72,4-11.57,10.07.19,7.08,4.33,6.6,10.84,6.93s19.45.13,20.12-13.54C182.16,104.51,171.91,115.24,171.91,115.24Z"/></clipPath><clipPath id="clip-path-2"><path class="cls-2" d="M194.28,114.51s.74,0,.65.64c-.14,1.19-.75,2.09-3.71,2.22s-3.62-.75-4.76-.46-9.13,6.21-16.63-.41a31.27,31.27,0,0,1-2.57-2.28l-.61-.85.9-.64-.71-.52c.88-.47,2.24-3.37,2.24-3.37C168,101.38,171,97,179.44,95.28s10.64,5.17,10.64,5.17c.71,1.31.77,4.53,4.18,4.53,4.39,0,3.73,4.85,2.73,5.88,0,0-.28,1.53-4.91,1.44a2,2,0,0,0-1.62,1.76A8.17,8.17,0,0,0,194.28,114.51Z"/></clipPath></defs><path class="cls-3" d="M146.57,124.91l.45.13a4,4,0,0,0-1.91,2,13,13,0,0,0-1.35,3.67,10.14,10.14,0,0,0,2.84-.55,3.46,3.46,0,0,0,2-1.94l0,1.13.69-1.19a2.55,2.55,0,0,0,.53,1c.4.48,2.46-2.13,2.61-2.42.43-.82,1-2.28.41-3.17s-2.09-.68-3-.49A6.51,6.51,0,0,0,146.57,124.91Z"/><path class="cls-4" d="M160.64,125.19s.83,7,.65,8.07a2.11,2.11,0,0,1-1.65,1.43,1.43,1.43,0,0,1-1.66-.93c-.46-1.29-1.49-4.2-1.8-4.92A4,4,0,0,1,158,124,1.65,1.65,0,0,1,160.64,125.19Z"/><path class="cls-5" d="M161.29,133.26l1,4.33a1.45,1.45,0,0,1,2.06.56c.95,1.32-2.84,3.29-4.35,2.17s-.73-2-.73-2L158,133.93S159.29,134.87,161.29,133.26Z"/><path class="cls-4" d="M179.54,124.88s2.53,6.58,2.62,7.66a2.13,2.13,0,0,1-1.25,1.8,1.44,1.44,0,0,1-1.84-.5c-.76-1.14-2.48-3.7-2.95-4.32a4,4,0,0,1,.55-5.15A1.65,1.65,0,0,1,179.54,124.88Z"/><path class="cls-5" d="M182.16,132.54l2,4a1.45,1.45,0,0,1,2.13,0c1.24,1.05-1.94,3.89-3.68,3.18s-1.21-1.79-1.21-1.79L179.16,134S180.62,134.59,182.16,132.54Z"/><path class="cls-1" d="M171.91,115.24a34.38,34.38,0,0,0-9.92,1.53c-9.57,2.7-11.72,4-11.57,10.07.19,7.08,4.33,6.6,10.84,6.93s19.45.13,20.12-13.54C182.16,104.51,171.91,115.24,171.91,115.24Z"/><g class="cls-6"><path class="cls-7" d="M174.84,131.93a.9.9,0,0,0-1.06-1.07,17.17,17.17,0,0,0-4,.89,23.79,23.79,0,0,1-13.68-.34,3.79,3.79,0,0,0-1.65-.29,1.29,1.29,0,0,0-1.13,1.16,1.54,1.54,0,0,0,.25.81c1,1.68,3,2,4.87,2.16a40.88,40.88,0,0,0,10.19-.12C170.4,134.84,174.8,134.73,174.84,131.93Z"/></g><path class="cls-3" d="M168.05,113.36l.51.34-2.05.8c-1.49.58-3.07,1.25-3.9,2.62a7.32,7.32,0,0,1,3.71-1.15,12.16,12.16,0,0,0,1.91-.07,22.37,22.37,0,0,0,3.49-.64c1-.55.27-1.26.74-2.31.38-.83,0-3.45-1.35-2.36-.5.39-.73,1.2-1.21,1.66C169.68,112.46,168.38,113.57,168.05,113.36Z"/><ellipse class="cls-8" cx="166.54" cy="122.11" rx="1.51" ry="0.8"/><ellipse class="cls-8" cx="162.61" cy="124.19" rx="1.51" ry="0.8"/><ellipse class="cls-8" cx="154.87" cy="122.43" rx="1.51" ry="0.8"/><ellipse class="cls-8" cx="159.86" cy="119.12" rx="2.46" ry="0.8"/><path class="cls-1" d="M175,128.07s-4.21,5.66-5.07,6.31a2.1,2.1,0,0,1-2.18-.09,1.44,1.44,0,0,1-.57-1.82c.55-1.25,1.8-4.07,2.07-4.8a4,4,0,0,1,4.64-2.3A1.65,1.65,0,0,1,175,128.07Z"/><path class="cls-8" d="M170,134.38l-2.26,3.83a1.45,1.45,0,0,1,1.12,1.81c-.22,1.61-4.33.45-4.66-1.4s.86-2,.86-2l2.11-4S167.42,134.18,170,134.38Z"/><path class="cls-1" d="M159,128.12s-6.14,4.41-7.4,4.81a2.4,2.4,0,0,1-2.15-.38,1.44,1.44,0,0,1-.33-1.88c.72-1.16,1.52-4.18,1.88-4.87.46-.89,3.35-2.33,5.72-1.28A4,4,0,0,1,159,128.12Z"/><path class="cls-8" d="M151.56,132.93l-2.74,3.49a1.45,1.45,0,0,1,.86,2c-.43,1.57-4.35-.12-4.43-2s1.11-1.86,1.11-1.86l2.62-3.69S149.05,132.39,151.56,132.93Z"/><ellipse class="cls-8" cx="155.89" cy="127.22" rx="1.51" ry="0.8"/><path class="cls-3" d="M167.74,107.62a2.7,2.7,0,0,1-1,2.09,1.2,1.2,0,0,0,1.15,0,3.41,3.41,0,0,0-.54.88,2.84,2.84,0,0,1-1.57,1.3,3.37,3.37,0,0,0,3.58-1.46,4.16,4.16,0,0,0,.27-3.85c-.2-.48-.63-1.19-1.26-.88S167.81,107.09,167.74,107.62Z"/><path class="cls-9" d="M181.21,95.88a9,9,0,0,0-6.65-3.52c-4.61-.39-5,1.72-4.64,4.92s2.42,11.49,11.89,7.53C181.81,104.81,183.93,98.22,181.21,95.88Z"/><path class="cls-10" d="M193.77,112.11a3.11,3.11,0,0,0,.24,2.74l-1.33.77-5.46-1-.17-2,4.6-1.44Z"/><path class="cls-11" d="M188.06,112.09c0,.68,1.57,1.12,3.48,1.18,2.69.07,3.44-.62,3.43-1.3s-1.57-1.21-3.48-1.18S188.05,111.4,188.06,112.09Z"/><ellipse class="cls-12" cx="190.02" cy="115" rx="3.19" ry="1.24" transform="translate(-8.76 15.9) rotate(-4.68)"/><path class="cls-2" d="M194.28,114.51s.74,0,.65.64c-.14,1.19-.75,2.09-3.71,2.22s-3.62-.75-4.76-.46-9.13,6.21-16.63-.41a31.27,31.27,0,0,1-2.57-2.28l-.61-.85.9-.64-.71-.52c.88-.47,2.24-3.37,2.24-3.37C168,101.38,171,97,179.44,95.28s10.64,5.17,10.64,5.17c.71,1.31.77,4.53,4.18,4.53,4.39,0,3.73,4.85,2.73,5.88,0,0-.28,1.53-4.91,1.44a2,2,0,0,0-1.62,1.76A8.17,8.17,0,0,0,194.28,114.51Z"/><g class="cls-13"><path class="cls-14" d="M182.52,113.27c.71,3.4,5.35,5.32,10.37,4.27s8.52-4.64,7.82-8-4.61-6.26-9.64-5.22S181.82,109.87,182.52,113.27Z"/></g><path class="cls-8" d="M192.22,106.94c.21,1,1.9,1.45,3.79,1.06s2.05-1.25,1.85-2.23-.7-1.69-2.59-1.3S192,106,192.22,106.94Z"/><ellipse class="cls-15" cx="195.64" cy="105.12" rx="0.83" ry="0.41" transform="translate(-17.27 41.93) rotate(-11.72)"/><ellipse class="cls-16" cx="181.54" cy="109.83" rx="0.86" ry="0.44" transform="translate(-18.52 39.16) rotate(-11.72)"/><path class="cls-3" d="M180.37,95.64A3.37,3.37,0,0,1,181.54,94a5.25,5.25,0,0,1,2.94-.07,4.52,4.52,0,0,1,2.23,1.42c.24,1.17.35,3-1.23,3.8,0,0,.31-2.91-1.26-4a2,2,0,0,1-2.07,1.7,1,1,0,0,0,.21-1.61S180,96.67,180.37,95.64Z"/><path class="cls-3" d="M180.75,91.31a2.9,2.9,0,0,1-.73,3,.86.86,0,0,0-.3.39.52.52,0,0,0,.37.56,1.4,1.4,0,0,0,.73,0c1-.25,1.54-.48,1.45-1.55a3,3,0,0,0-.47-1.41C181.6,92,180.84,91.56,180.75,91.31Z"/><ellipse class="cls-8" cx="173.04" cy="114.25" rx="0.99" ry="0.63" transform="translate(54.91 284.66) rotate(-88.7)"/><ellipse class="cls-8" cx="170.88" cy="115.54" rx="0.63" ry="0.99" transform="translate(-35.26 108.03) rotate(-31.98)"/><path class="cls-3" d="M178.36,97l.21-1.1a6.94,6.94,0,0,0-3,2.4l-.2-1.15a8.28,8.28,0,0,0-3.16,2.62A1.25,1.25,0,0,0,172,99a5.49,5.49,0,0,1-1.51.85,2.25,2.25,0,0,1,.28-1.93,5.33,5.33,0,0,1,1.44-1.4A16.84,16.84,0,0,1,174.79,95l-.41-.28a10.56,10.56,0,0,1,4.35-.66l.07-.4s3.28-.18,2.09,1.3a12.06,12.06,0,0,1-.94.77A13.1,13.1,0,0,1,178.36,97Z"/><path class="cls-2" d="M170.89,98.3a9.06,9.06,0,0,0-7.28-1.92c-4.57.67-4.45,2.8-3.4,5.84s5,10.64,13.28,4.64C173.49,106.86,174.07,100,170.89,98.3Z"/><path class="cls-7" d="M170.79,100.43A7.37,7.37,0,0,0,164.84,99c-3.75.58-3.67,2.28-2.85,4.69s3.95,8.43,10.83,3.55C172.82,107.23,173.37,101.72,170.79,100.43Z"/><path class="cls-2" d="M171.38,102.76a6.65,6.65,0,0,1-1-1.65,4.52,4.52,0,0,0,0,2.93,2.83,2.83,0,0,0-1-.47,2.5,2.5,0,0,0,.53,1.17,6.64,6.64,0,0,0-1.32.69,7,7,0,0,0,1.25.48,4.18,4.18,0,0,0-1,.87l1,0c-.2.92-.44,1.83-.71,2.73a45.44,45.44,0,0,1,6.26-3.65l-.57-3.32c-.13-.78-.55-2.92-1.76-2.7-.5.09-.9.78-1.13,1.17C171.83,101.28,171.17,102.5,171.38,102.76Z"/><ellipse class="cls-8" cx="171.2" cy="110.92" rx="1.45" ry="0.92" transform="translate(56.43 279.56) rotate(-88.7)"/><path class="cls-2" d="M187.86,106.46a9.61,9.61,0,0,1-.36,1.19,2.7,2.7,0,0,1-.67.8,4.55,4.55,0,0,1-4.59.72,5.94,5.94,0,0,1-3.33-4.5,3.85,3.85,0,0,1,.63-2.62,5.28,5.28,0,0,1,1.21-1.15,7,7,0,0,1,2.86-1.31,3.91,3.91,0,0,1,3,.62,4.67,4.67,0,0,1,1.56,2.6,6,6,0,0,0,.32,1.51c.26.4.66.11,1.06.23A3.91,3.91,0,0,0,187.86,106.46Z"/><ellipse class="cls-17" cx="184.16" cy="104.63" rx="3.13" ry="4.07" transform="translate(-17.41 39.59) rotate(-11.72)"/><ellipse class="cls-11" cx="184.28" cy="105.21" rx="2.66" ry="3.48" transform="translate(-17.53 39.63) rotate(-11.72)"/><ellipse cx="184.28" cy="105.21" rx="2.03" ry="2.65" transform="translate(-17.53 39.63) rotate(-11.72)"/><ellipse class="cls-11" cx="184.96" cy="103.26" rx="0.74" ry="0.89" transform="matrix(0.98, -0.2, 0.2, 0.98, -17.12, 39.73)"/><path class="cls-3" d="M181.2,101.48a3.4,3.4,0,0,1,.77-2.29,1.89,1.89,0,0,1,1.18-.67,1.18,1.18,0,0,1,1.14.58,1.69,1.69,0,0,0-1,0,2.22,2.22,0,0,0-.69.59C182.14,100.24,181.75,100.87,181.2,101.48Z"/><path class="cls-2" d="M187,108.37a6,6,0,0,1-1,.67,22.19,22.19,0,0,0-2.25,1.46,3.47,3.47,0,0,0-1,1.06,3.73,3.73,0,0,0-.12,2.41c.07.4.09.9-.26,1.09a.63.63,0,0,1-.61,0,1.61,1.61,0,0,1-.47-.43,7.26,7.26,0,0,1-1.49-2.5,18.42,18.42,0,0,0,2.49-1.49,1.39,1.39,0,0,0,.46-.44c.22-.39.08-.89.24-1.3l2.19-.08a2.16,2.16,0,0,0,1.46-.4c.19-.16.4-.73.7-.69S187.12,108.24,187,108.37Z"/></svg>