<svg id="Layer_1" data-name="Layer 1" xmlns="http://www.w3.org/2000/svg" xmlns:xlink="http://www.w3.org/1999/xlink" viewBox="0 0 260 168"><defs><style>.cls-1{fill:#dda854;}.cls-2{fill:#e8ba67;}.cls-3{fill:#7a3100;}.cls-4{fill:#ce994d;}.cls-5{fill:#1e1000;}.cls-6{clip-path:url(#clip-path);}.cls-7{fill:#f7d19a;}.cls-8{fill:#301c00;}.cls-9{fill:#d8a34e;}.cls-10{fill:#471e00;}.cls-11{fill:#fff;}.cls-12{fill:#c41e1e;}.cls-13{clip-path:url(#clip-path-2);}.cls-14{fill:#a06f20;}.cls-15{fill:#7a4609;}.cls-16{fill:#d69936;}.cls-17{fill:#ffd38d;}</style><clipPath id="clip-path"><path class="cls-1" d="M82,115.24a34.38,34.38,0,0,0-9.92,1.53c-9.57,2.7-11.72,4-11.57,10.07.19,7.08,4.33,6.6,10.84,6.93s19.45.13,20.12-13.54C92.29,104.51,82,115.24,82,115.24Z"/></clipPath><clipPath id="clip-path-2"><path class="cls-2" d="M103.54,110.05s.71-.17.77.49c.1,1.19-.31,2.19-3.18,2.93s-3.7,0-4.75.54-7.64,8-16.35,3.06a32.09,32.09,0,0,1-3-1.69l-.77-.7.74-.82-.8-.37c.76-.64,1.49-3.76,1.49-3.76-2.6-7.07-.62-12,7.32-15.42S96.5,97.17,96.5,97.17c1,1.13,1.69,4.27,5,3.56,4.29-.91,4.65,4,3.88,5.19,0,0,0,1.54-4.5,2.42a2,2,0,0,0-1.22,2.06A8.32,8.32,0,0,0,103.54,110.05Z"/></clipPath></defs><path class="cls-3" d="M56.71,124.91l.44.13a4,4,0,0,0-1.91,2,13,13,0,0,0-1.35,3.67,10.14,10.14,0,0,0,2.84-.55,3.5,3.5,0,0,0,2.05-1.94l0,1.13.68-1.19a2.68,2.68,0,0,0,.53,1c.41.48,2.46-2.13,2.62-2.42.43-.82.95-2.28.4-3.17s-2.09-.68-3-.49A6.44,6.44,0,0,0,56.71,124.91Z"/><path class="cls-4" d="M70.69,127.24S69,134.09,68.48,135a2.09,2.09,0,0,1-2,.76,1.45,1.45,0,0,1-1.24-1.45c0-1.37.08-4.46,0-5.23a4,4,0,0,1,3.39-3.92C71.2,124.9,70.69,127.24,70.69,127.24Z"/><path class="cls-5" d="M68.48,135l-.6,4.4a1.46,1.46,0,0,1,1.74,1.24c.42,1.57-3.81,2.1-4.83.52s0-2.16,0-2.16l.39-4.51S66.05,135.84,68.48,135Z"/><path class="cls-4" d="M87.9,127.24s-1.67,6.85-2.22,7.79a2.08,2.08,0,0,1-2,.76,1.43,1.43,0,0,1-1.23-1.45c0-1.37.07-4.46,0-5.23a4,4,0,0,1,3.39-3.92C88.41,124.9,87.9,127.24,87.9,127.24Z"/><path class="cls-5" d="M85.68,135l-.59,4.4a1.45,1.45,0,0,1,1.73,1.24c.43,1.57-3.81,2.1-4.83.52S82,139,82,139l.38-4.51S83.25,135.84,85.68,135Z"/><path class="cls-1" d="M82,115.24a34.38,34.38,0,0,0-9.92,1.53c-9.57,2.7-11.72,4-11.57,10.07.19,7.08,4.33,6.6,10.84,6.93s19.45.13,20.12-13.54C92.29,104.51,82,115.24,82,115.24Z"/><g class="cls-6"><path class="cls-7" d="M85,131.93a.9.9,0,0,0-1.06-1.07,17.17,17.17,0,0,0-4,.89,23.79,23.79,0,0,1-13.68-.34,3.77,3.77,0,0,0-1.65-.29,1.29,1.29,0,0,0-1.13,1.16,1.54,1.54,0,0,0,.25.81c1,1.68,3.05,2,4.87,2.16a40.88,40.88,0,0,0,10.19-.12C80.54,134.84,84.94,134.73,85,131.93Z"/></g><path class="cls-3" d="M78.18,113.36l.51.34-2,.8c-1.48.58-3.07,1.25-3.89,2.62a7.26,7.26,0,0,1,3.7-1.15,12.16,12.16,0,0,0,1.91-.07,22.37,22.37,0,0,0,3.49-.64c1-.55.27-1.26.74-2.31.38-.83,0-3.45-1.35-2.36-.5.39-.73,1.2-1.21,1.66C79.81,112.46,78.51,113.57,78.18,113.36Z"/><ellipse class="cls-8" cx="76.67" cy="122.11" rx="1.51" ry="0.8"/><ellipse class="cls-8" cx="72.74" cy="124.19" rx="1.51" ry="0.8"/><ellipse class="cls-8" cx="65" cy="122.43" rx="1.51" ry="0.8"/><ellipse class="cls-8" cx="69.99" cy="119.12" rx="2.46" ry="0.8"/><path class="cls-1" d="M85.75,128.29s-2.57,6.56-3.24,7.42a2.1,2.1,0,0,1-2.12.48,1.43,1.43,0,0,1-1-1.6c.21-1.36.67-4.41.73-5.18A4,4,0,0,1,84,126C86.57,126,85.75,128.29,85.75,128.29Z"/><path class="cls-8" d="M82.51,135.71,81.34,140a1.45,1.45,0,0,1,1.55,1.46c.21,1.61-4.06,1.57-4.86-.13s.31-2.14.31-2.14l1-4.42S80,136.18,82.51,135.71Z"/><path class="cls-1" d="M69,128s-3.85,6.51-4.84,7.38a2.4,2.4,0,0,1-2.12.52A1.44,1.44,0,0,1,61,134.32c.19-1.36-.29-4.44-.24-5.21.07-1,2.13-3.49,4.73-3.47A4,4,0,0,1,69,128Z"/><path class="cls-8" d="M64.2,135.39l-1.11,4.31s1.33-.18,1.57,1.43-4,1.63-4.86,0,.27-2.15.27-2.15L61,134.5S61.68,135.91,64.2,135.39Z"/><ellipse class="cls-8" cx="66.02" cy="127.22" rx="1.51" ry="0.8"/><path class="cls-3" d="M76.14,108.82a2.64,2.64,0,0,1-.57,2.25,1.2,1.2,0,0,0,1.14-.21,3.21,3.21,0,0,0-.35,1,2.85,2.85,0,0,1-1.27,1.6,3.36,3.36,0,0,0,3.2-2.17,4.19,4.19,0,0,0-.53-3.83c-.3-.43-.87-1-1.42-.59S76.09,108.28,76.14,108.82Z"/><path class="cls-9" d="M86.88,94.54a9,9,0,0,0-7.24-2.06c-4.59.57-4.51,2.72-3.52,5.77s4.76,10.74,13.19,4.89C89.31,103.14,90,96.26,86.88,94.54Z"/><path class="cls-10" d="M102.54,107.81a3.09,3.09,0,0,0,.8,2.62l-1.14,1-5.55.19-.58-1.91,4.21-2.37Z"/><path class="cls-11" d="M96.94,109c.16.66,1.77.77,3.65.43,2.65-.49,3.24-1.32,3.09-2s-1.79-.86-3.65-.44S96.79,108.3,96.94,109Z"/><ellipse class="cls-12" cx="99.47" cy="111.41" rx="3.19" ry="1.24" transform="translate(-27.79 33.23) rotate(-16.68)"/><path class="cls-2" d="M103.54,110.05s.71-.17.77.49c.1,1.19-.31,2.19-3.18,2.93s-3.7,0-4.75.54-7.64,8-16.35,3.06a32.09,32.09,0,0,1-3-1.69l-.77-.7.74-.82-.8-.37c.76-.64,1.49-3.76,1.49-3.76-2.6-7.07-.62-12,7.32-15.42S96.5,97.17,96.5,97.17c1,1.13,1.69,4.27,5,3.56,4.29-.91,4.65,4,3.88,5.19,0,0,0,1.54-4.5,2.42a2,2,0,0,0-1.22,2.06A8.32,8.32,0,0,0,103.54,110.05Z"/><g class="cls-13"><path class="cls-14" d="M91.78,111.27c1.39,3.19,6.33,4.09,11,2s7.37-6.31,6-9.49S103,98.64,98.27,100.7,90.38,108.09,91.78,111.27Z"/></g><path class="cls-8" d="M100,103.07c.4.91,2.15,1,3.92.24s1.75-1.65,1.35-2.56-1-1.51-2.8-.73S99.55,102.16,100,103.07Z"/><ellipse class="cls-15" cx="102.91" cy="100.58" rx="0.83" ry="0.41" transform="translate(-31.76 49.88) rotate(-23.71)"/><ellipse class="cls-16" cx="90.09" cy="108.12" rx="0.86" ry="0.44" transform="translate(-35.87 45.36) rotate(-23.71)"/><path class="cls-3" d="M86,94.48a3.39,3.39,0,0,1,.81-1.82A5.2,5.2,0,0,1,89.67,92a4.52,4.52,0,0,1,2.48.93c.48,1.09,1,2.89-.41,4,0,0-.3-2.91-2.07-3.69A2,2,0,0,1,88,95.28a1,1,0,0,0-.13-1.62S85.88,95.56,86,94.48Z"/><path class="cls-3" d="M85.48,90.16a2.89,2.89,0,0,1-.09,3.11.91.91,0,0,0-.22.45.52.52,0,0,0,.49.46,1.28,1.28,0,0,0,.7-.19c.89-.45,1.41-.79,1.1-1.81a3.05,3.05,0,0,0-.75-1.29C86.45,90.63,85.62,90.39,85.48,90.16Z"/><ellipse class="cls-8" cx="82.71" cy="114.2" rx="0.63" ry="0.99" transform="translate(-19.76 17.33) rotate(-10.7)"/><ellipse class="cls-8" cx="80.85" cy="115.91" rx="0.63" ry="0.99" transform="translate(-57.81 88.63) rotate(-43.97)"/><path class="cls-3" d="M84.32,96.22l0-1.12a7,7,0,0,0-2.45,3L81.39,97a8.44,8.44,0,0,0-2.54,3.22,1.25,1.25,0,0,0-.34-.71,5.14,5.14,0,0,1-1.31,1.15,2.24,2.24,0,0,1-.11-1.94,5.19,5.19,0,0,1,1.11-1.67,16.52,16.52,0,0,1,2.21-2L80,94.81a10.48,10.48,0,0,1,4.11-1.55l0-.41s3.18-.86,2.32.84a11.29,11.29,0,0,1-.76,1A13.07,13.07,0,0,1,84.32,96.22Z"/><path class="cls-2" d="M77.29,99.05a9,9,0,0,0-7.52-.37c-4.34,1.6-3.78,3.67-2.12,6.42s7.07,9.38,14,1.78C81.61,106.88,80.74,100,77.29,99.05Z"/><path class="cls-7" d="M77.63,101.16a7.39,7.39,0,0,0-6.12-.18c-3.55,1.35-3.12,3-1.81,5.18s5.61,7.43,11.33,1.22C81,107.38,80.42,101.88,77.63,101.16Z"/><path class="cls-2" d="M78.69,103.31a6.59,6.59,0,0,1-1.28-1.41,4.47,4.47,0,0,0,.63,2.85,3,3,0,0,0-1.11-.24,2.49,2.49,0,0,0,.77,1,5.49,5.49,0,0,0-1.15,1,6.58,6.58,0,0,0,1.32.2,4.61,4.61,0,0,0-.76,1l1-.17c0,.94-.06,1.88-.14,2.82a45.92,45.92,0,0,1,5.37-4.87l-1.24-3.13c-.3-.73-1.15-2.74-2.29-2.27-.46.19-.71.94-.86,1.38C78.82,101.77,78.43,103.09,78.69,103.31Z"/><ellipse class="cls-8" cx="80.21" cy="111.33" rx="0.92" ry="1.45" transform="translate(-19.27 16.82) rotate(-10.7)"/><path class="cls-2" d="M95.58,103.5a8.53,8.53,0,0,1-.11,1.24,2.61,2.61,0,0,1-.48.92,4.53,4.53,0,0,1-4.34,1.66,5.88,5.88,0,0,1-4.19-3.71,3.78,3.78,0,0,1,.07-2.69,5,5,0,0,1,.94-1.38A7,7,0,0,1,90,97.67a3.92,3.92,0,0,1,3.08,0,4.7,4.7,0,0,1,2.07,2.22,6,6,0,0,0,.62,1.41c.34.34.67,0,1.08,0A3.9,3.9,0,0,0,95.58,103.5Z"/><ellipse class="cls-17" cx="91.58" cy="102.48" rx="3.13" ry="4.07" transform="translate(-33.48 45.48) rotate(-23.71)"/><ellipse class="cls-11" cx="91.82" cy="103.03" rx="2.66" ry="3.48" transform="translate(-33.68 45.62) rotate(-23.71)"/><ellipse cx="91.82" cy="103.03" rx="2.03" ry="2.65" transform="translate(-33.68 45.62) rotate(-23.71)"/><ellipse class="cls-11" cx="92.08" cy="100.97" rx="0.74" ry="0.89" transform="translate(-32.83 45.56) rotate(-23.71)"/><path class="cls-3" d="M88,100a3.35,3.35,0,0,1,.28-2.4,1.89,1.89,0,0,1,1-.91,1.22,1.22,0,0,1,1.24.34,1.55,1.55,0,0,0-1,.24A2.2,2.2,0,0,0,89,98C88.69,98.61,88.44,99.3,88,100Z"/><path class="cls-2" d="M95.11,105.56a6,6,0,0,1-.88.87,21.18,21.18,0,0,0-1.9,1.89,3.53,3.53,0,0,0-.79,1.25,3.73,3.73,0,0,0,.39,2.39c.15.37.27.86,0,1.12a.66.66,0,0,1-.61.09,1.83,1.83,0,0,1-.55-.33,7.18,7.18,0,0,1-2-2.14,17.1,17.1,0,0,0,2.12-2,1.39,1.39,0,0,0,.36-.54c.14-.42-.1-.88,0-1.32l2.12-.53a2.21,2.21,0,0,0,1.35-.69c.15-.2.24-.8.54-.82S95.22,105.4,95.11,105.56Z"/></svg>