<svg id="Layer_1" data-name="Layer 1" xmlns="http://www.w3.org/2000/svg" xmlns:xlink="http://www.w3.org/1999/xlink" viewBox="0 0 260 168"><defs><style>.cls-1{fill:#ddab5b;}.cls-2{fill:#cc9648;}.cls-3{fill:#ce9d55;}.cls-4{fill:#7a3100;}.cls-5{clip-path:url(#clip-path);}.cls-6{fill:#301c00;}.cls-7{clip-path:url(#clip-path-2);}.cls-8{clip-path:url(#clip-path-3);}.cls-9{clip-path:url(#clip-path-4);}.cls-10{clip-path:url(#clip-path-5);}.cls-11{clip-path:url(#clip-path-6);}.cls-12{fill:#662a01;}.cls-13{fill:#e8ba67;}</style><clipPath id="clip-path"><path class="cls-1" d="M76.73,111.77c.29.28,2.26,5.41-3.09,15.4s-4,11.37-4,11.37a2.66,2.66,0,0,1,1.89.86c.84.91-.33,6.26-5.47,5.55s-2.46-7.66-1-11.69-1.11-5.08-.45-11.16S68.45,103.57,76.73,111.77Z"/></clipPath><clipPath id="clip-path-2"><path class="cls-1" d="M81.4,115.39c.31.26,2.69,5.21-1.81,15.61s-3,11.65-3,11.65a2.63,2.63,0,0,1,2,.71c.91.83.19,6.26-5,6s-3.08-7.43-2-11.57-1.53-5-1.37-11.08S72.47,107.9,81.4,115.39Z"/></clipPath><clipPath id="clip-path-3"><path class="cls-2" d="M55.51,123.17c.36.25,3.29,5.16-1.37,15.65s-2.92,11.71-2.92,11.71a3.37,3.37,0,0,1,2.25.68c1.07.82.48,6.26-5.41,6.06s-3.81-7.39-2.72-11.55-2-4.94-2-11.07S45.06,115.82,55.51,123.17Z"/></clipPath><clipPath id="clip-path-4"><path class="cls-1" d="M82.3,108.51s2,8.12,0,12.47-1.26,5.07-8.23,11.55-13,12.67-20,12.35S39.93,137,43.55,127.09s15.71-18.65,22.08-20.58S80.46,101.53,82.3,108.51Z"/></clipPath><clipPath id="clip-path-5"><path class="cls-3" d="M69,130.2c.36.25,3.29,5.16-1.37,15.64s-2.92,11.72-2.92,11.72a3.33,3.33,0,0,1,2.25.67c1.07.82.48,6.27-5.41,6.07s-3.81-7.39-2.72-11.55-1.95-4.94-2-11.07S58.51,122.85,69,130.2Z"/></clipPath><clipPath id="clip-path-6"><path class="cls-4" d="M46.73,135.33c1-.7,2.43.34,2.64,1.53a7.35,7.35,0,0,1-.72,3.53c-.63,1.9-.84,3.92-1.45,5.83a7.27,7.27,0,0,1-3.57,4.62l-.14-.69a24,24,0,0,1-11.55,8.07,11.42,11.42,0,0,1,3.47-13.38l-3.08,1a13.63,13.63,0,0,1,6.64-5.6,6.21,6.21,0,0,0-2.54.11,22.46,22.46,0,0,1,9.27-4.56Z"/></clipPath></defs><path class="cls-1" d="M76.73,111.77c.29.28,2.26,5.41-3.09,15.4s-4,11.37-4,11.37a2.66,2.66,0,0,1,1.89.86c.84.91-.33,6.26-5.47,5.55s-2.46-7.66-1-11.69-1.11-5.08-.45-11.16S68.45,103.57,76.73,111.77Z"/><g class="cls-5"><path class="cls-6" d="M74.51,128.06a1.39,1.39,0,0,1-.61.94,8.24,8.24,0,0,1-5.84,2,7.08,7.08,0,0,1-5.21-3,59,59,0,0,0-4,10.52,14.28,14.28,0,0,0-.56,7,4.88,4.88,0,0,0,.74,1.73,5.58,5.58,0,0,0,1.21,1.12,16.93,16.93,0,0,0,4.2,2.27,7.09,7.09,0,0,0,2.64.55,8.63,8.63,0,0,0,2.48-.51A9.74,9.74,0,0,0,72.91,149a12,12,0,0,0,3.25-5.34,22.82,22.82,0,0,0,1.45-5.84,10.09,10.09,0,0,0-1-5.73,11.31,11.31,0,0,0-2-2.55l.35.51"/></g><path class="cls-1" d="M81.4,115.39c.31.26,2.69,5.21-1.81,15.61s-3,11.65-3,11.65a2.63,2.63,0,0,1,2,.71c.91.83.19,6.26-5,6s-3.08-7.43-2-11.57-1.53-5-1.37-11.08S72.47,107.9,81.4,115.39Z"/><g class="cls-7"><path class="cls-3" d="M78.39,120.49a52.26,52.26,0,0,1-5,14.58,2.76,2.76,0,0,1,.81-.39,13.26,13.26,0,0,1-3.09,6.11c-1.08,1.2-2.68,2.26-4.21,1.74-1.78-.6-2.25-2.88-2.26-4.77a65.57,65.57,0,0,1,1.7-13.2,3.85,3.85,0,0,1,.48-1.42,3.7,3.7,0,0,1,1-.93,12.7,12.7,0,0,1,3.63-1.89,7.31,7.31,0,0,1,6.31,1.21"/><path class="cls-6" d="M80.53,131.81a1.41,1.41,0,0,1-.54,1,8.25,8.25,0,0,1-5.66,2.44,7.12,7.12,0,0,1-5.44-2.59,58.7,58.7,0,0,0-3.1,10.81,14.29,14.29,0,0,0,0,7,4.76,4.76,0,0,0,.88,1.65,5.37,5.37,0,0,0,1.3,1,17.32,17.32,0,0,0,4.37,1.91,7.17,7.17,0,0,0,2.68.34,8.85,8.85,0,0,0,2.42-.72,9.79,9.79,0,0,0,3.19-1.86,12,12,0,0,0,2.8-5.59,22.69,22.69,0,0,0,1-5.93,10.17,10.17,0,0,0-1.48-5.63,11.58,11.58,0,0,0-2.25-2.38l.38.48"/></g><path class="cls-2" d="M55.51,123.17c.36.25,3.29,5.16-1.37,15.65s-2.92,11.71-2.92,11.71a3.37,3.37,0,0,1,2.25.68c1.07.82.48,6.26-5.41,6.06s-3.81-7.39-2.72-11.55-2-4.94-2-11.07S45.06,115.82,55.51,123.17Z"/><g class="cls-8"><path class="cls-6" d="M55.24,139.62a1.36,1.36,0,0,1-.56,1,9.76,9.76,0,0,1-6.32,2.53,8.79,8.79,0,0,1-6.28-2.51,52.55,52.55,0,0,0-3,10.87c-.39,2.34-.6,4.83.32,7a4.78,4.78,0,0,0,1.08,1.64,6.43,6.43,0,0,0,1.51,1A21.6,21.6,0,0,0,47,163a9.06,9.06,0,0,0,3.06.29,10.38,10.38,0,0,0,2.72-.75,11.11,11.11,0,0,0,3.53-1.92A11,11,0,0,0,59.23,155a20,20,0,0,0,.84-6,9.52,9.52,0,0,0-1.92-5.61,12.38,12.38,0,0,0-2.66-2.34l.46.47"/></g><path class="cls-1" d="M82.3,108.51s2,8.12,0,12.47-1.26,5.07-8.23,11.55-13,12.67-20,12.35S39.93,137,43.55,127.09s15.71-18.65,22.08-20.58S80.46,101.53,82.3,108.51Z"/><g class="cls-9"><path class="cls-3" d="M80.87,100.45c2,10.86,1.42,20.37-5.45,28,3.3-2.45-2,2.56-2,2.92a1.57,1.57,0,0,1-.4,1,42,42,0,0,1-22.18,15.86,11.24,11.24,0,0,1-6.46.32,6.27,6.27,0,0,1-4.29-5.22,10.68,10.68,0,0,1,.39-3.51c2.32-9.58,7.67-18.1,14.77-23.5l-2,.34c2.77-3.86,7.08-5.63,10.39-8.84a36,36,0,0,0,5-6.52,21.76,21.76,0,0,1,3.45-4.53,5.47,5.47,0,0,1,4.85-1.59,4.23,4.23,0,0,1,3,4.35"/></g><path class="cls-3" d="M69,130.2c.36.25,3.29,5.16-1.37,15.64s-2.92,11.72-2.92,11.72a3.33,3.33,0,0,1,2.25.67c1.07.82.48,6.27-5.41,6.07s-3.81-7.39-2.72-11.55-1.95-4.94-2-11.07S58.51,122.85,69,130.2Z"/><g class="cls-10"><path class="cls-6" d="M68.69,146.64a1.32,1.32,0,0,1-.56,1,9.72,9.72,0,0,1-6.32,2.54,8.79,8.79,0,0,1-6.28-2.51,52.55,52.55,0,0,0-3,10.87c-.39,2.34-.6,4.82.32,7a4.88,4.88,0,0,0,1.08,1.64,6.43,6.43,0,0,0,1.51,1,21.6,21.6,0,0,0,5,1.84,9.32,9.32,0,0,0,3.06.29,10.78,10.78,0,0,0,2.72-.75,11.42,11.42,0,0,0,3.53-1.92A11,11,0,0,0,72.68,162a20.16,20.16,0,0,0,.84-6,9.55,9.55,0,0,0-1.92-5.61,12.61,12.61,0,0,0-2.66-2.33l.46.47"/></g><path class="cls-4" d="M46.73,135.33c1-.7,2.43.34,2.64,1.53a7.35,7.35,0,0,1-.72,3.53c-.63,1.9-.84,3.92-1.45,5.83a7.27,7.27,0,0,1-3.57,4.62l-.14-.69a24,24,0,0,1-11.55,8.07,11.42,11.42,0,0,1,3.47-13.38l-3.08,1a13.63,13.63,0,0,1,6.64-5.6,6.21,6.21,0,0,0-2.54.11,22.46,22.46,0,0,1,9.27-4.56Z"/><g class="cls-11"><path class="cls-12" d="M50.59,136.49A4.09,4.09,0,0,0,47.81,139a27.08,27.08,0,0,0-1,3.78,14.69,14.69,0,0,1-2.53,5.1l-.39-.86a13.7,13.7,0,0,1-4.73,5l.06-.81a31.36,31.36,0,0,0-6,5.09l.05-.7a4.79,4.79,0,0,0-.83,1.12,9.49,9.49,0,0,1,.83-3.44,26.06,26.06,0,0,0-1.63,2.27l1-3.08a2.66,2.66,0,0,0-1.09,1.34A39.55,39.55,0,0,1,33,147.74a45.23,45.23,0,0,0-4.4,6.7,15.12,15.12,0,0,0-1.78,7.74,6.08,6.08,0,0,0,1.34,3.68A6.74,6.74,0,0,0,33,167.63a17,17,0,0,0,4.66-.5,12.6,12.6,0,0,0,2.54-.91c3.52-1.75,5.68-5.45,6.9-9.19s1.7-7.7,3-11.43A7.29,7.29,0,0,1,52,142.31a11.55,11.55,0,0,0,2.27-1.82,2.38,2.38,0,0,0-2.43-3.68l.55.66"/></g><ellipse class="cls-6" cx="67.38" cy="127.04" rx="2.82" ry="1.71" transform="translate(-43.43 35.38) rotate(-22.46)"/><ellipse class="cls-6" cx="66.57" cy="132.48" rx="1.76" ry="1.06" transform="translate(-45.57 35.49) rotate(-22.46)"/><ellipse class="cls-6" cx="61.8" cy="131.26" rx="1.76" ry="1.06" transform="translate(-45.47 33.57) rotate(-22.46)"/><ellipse class="cls-6" cx="75.53" cy="125.59" rx="1.76" ry="1.06" transform="translate(-42.26 38.39) rotate(-22.46)"/><path class="cls-13" d="M84,82.08s4.71-4.22,13.25-3.64c0,0,5.62,16.84-15.26,13.27C82,91.71,78,86.33,84,82.08Z"/><path class="cls-13" d="M70.66,80.16s-4.72-4.22-13.26-3.64c0,0-5.62,16.84,15.26,13.27C72.66,89.79,76.64,84.41,70.66,80.16Z"/><path class="cls-13" d="M95.21,101.64a5,5,0,0,1-1.58-1.2l.14,0a6.85,6.85,0,0,1-.62-.58h0a17.29,17.29,0,0,0-1.74-3,27.1,27.1,0,0,1-1-5.22c-.36-3.19-1.34-6.86-4.28-8.1a8.79,8.79,0,0,0-7.08-3.44L75,80.2c-2-.62-4.1.81-5.62,2.28A17.88,17.88,0,0,0,66,87.83L59.33,101.7a5.63,5.63,0,0,0,2.18,1.07L59.76,104c2.16,2.64,5.5,4.06,8.84,4.73s6.79.68,10.18,1a8.34,8.34,0,0,0,3.79-.14,3.88,3.88,0,0,0,.46-.22,12.94,12.94,0,0,0,6.3-2,6,6,0,0,0,1-.85A5.51,5.51,0,0,0,93.65,104a2.3,2.3,0,0,1-1-.37A7.46,7.46,0,0,0,95.21,101.64Z"/><path class="cls-4" d="M84.7,81.64a3.85,3.85,0,0,0-2.11-1.14A5,5,0,0,1,85,78.83a3.55,3.55,0,0,0-4.51.7,6.29,6.29,0,0,1,.3-2.51A7.06,7.06,0,0,0,78,79.81l-1.13-3.07-1.55,3.42a5.14,5.14,0,0,0-2.83-2.74,4.7,4.7,0,0,1-.22,3.18l-.58-.49c-.18,3-3.36,5.43-2.94,8.41a1.82,1.82,0,0,1,1.36-1,24.74,24.74,0,0,0-1.8,6.81l1.26-.74a35.3,35.3,0,0,1-2.78,8.62l2.11-.21a9.18,9.18,0,0,1-3.26,5.06L67.5,107a5.22,5.22,0,0,1-1.43,2.18,5.91,5.91,0,0,0,6-1,4.53,4.53,0,0,0-.11,1.76,12.3,12.3,0,0,0,4.49-6.21l1,1.93a15.09,15.09,0,0,0,2.68-8.82A3.32,3.32,0,0,0,81.7,98a26.22,26.22,0,0,0-.24-9.43l1.28.84a8.35,8.35,0,0,0-1.3-5.31,13.9,13.9,0,0,1,2.18,1.18,4.09,4.09,0,0,0-1.45-3,2.16,2.16,0,0,1,2.41-.08"/><ellipse class="cls-6" cx="90.9" cy="101.24" rx="1.68" ry="0.78" transform="translate(-37.16 147.22) rotate(-67.83)"/><path class="cls-4" d="M65.11,110l-5.32,3.76a3.41,3.41,0,0,1,1.79.2,10.27,10.27,0,0,0-4.4,5.49.55.55,0,0,1,.39-.72,8.21,8.21,0,0,1-2.24,4.89,28.27,28.27,0,0,0,5.3-5.46,5,5,0,0,1-.09,2.36,15.53,15.53,0,0,0,2.83-5.71,4.65,4.65,0,0,1,.39,1.55,22.75,22.75,0,0,0,2.53-3.84,1,1,0,0,1,.31,1l2.32-3.35.08,1a1.36,1.36,0,0,0-1.08-2.33c-.76.08-1.34.78-2.09.92a2.68,2.68,0,0,0-.75.13c-.23.1-.41.39-.27.6"/><path class="cls-1" d="M69.44,82.19a12.47,12.47,0,0,0-4.08,7.19,10.69,10.69,0,0,1-6.08-5.22,20.83,20.83,0,0,1-1.69-5.87,29.11,29.11,0,0,1,6.66.49,11.65,11.65,0,0,1,5.85,3"/></svg>