<svg id="_1" data-name="1" xmlns="http://www.w3.org/2000/svg" xmlns:xlink="http://www.w3.org/1999/xlink" viewBox="0 0 260 168"><defs><style>.cls-1{fill:#dda854;}.cls-2{fill:#e8ba67;}.cls-3{fill:#fff;}.cls-4{fill:#bc6319;}.cls-5{fill:#c97523;}.cls-6{fill:#994a0a;}.cls-7{fill:#7a3100;}.cls-8{fill:#ce994d;}.cls-9{fill:#1e1000;}.cls-10{clip-path:url(#clip-path);}.cls-11{fill:#f7d19a;}.cls-12{fill:#301c00;}.cls-13{fill:#d8a34e;}.cls-14{fill:#471e00;}.cls-15{fill:#c41e1e;}.cls-16{clip-path:url(#clip-path-2);}.cls-17{fill:#a06f20;}.cls-18{fill:#7a4609;}.cls-19{fill:#d69936;}.cls-20{fill:#ffd38d;}.cls-21{clip-path:url(#clip-path-3);}.cls-22{fill:#c1681f;}.cls-23{clip-path:url(#clip-path-4);}.cls-24{fill:#a04908;}.cls-25{clip-path:url(#clip-path-5);}.cls-26{clip-path:url(#clip-path-6);}.cls-27{fill:#db853e;}.cls-28{clip-path:url(#clip-path-7);}.cls-29{fill:#cc6b23;}.cls-30{fill:#f49547;}.cls-31{fill:#a8540e;}.cls-32{fill:#c1671e;}.cls-33{fill:#e5813e;}.cls-34{fill:#c66c22;}.cls-35{clip-path:url(#clip-path-8);}.cls-36{clip-path:url(#clip-path-9);}.cls-37{fill:none;stroke:#b75818;stroke-linecap:round;stroke-linejoin:round;stroke-width:0.3px;}.cls-38{fill:#6cdaf4;}</style><clipPath id="clip-path"><path class="cls-1" d="M152.08,127.94a31.46,31.46,0,0,0-9.13,1.41c-8.82,2.49-10.8,3.73-10.66,9.28.17,6.52,4,6.07,10,6.38s17.92.12,18.54-12.47C161.52,118.06,152.08,127.94,152.08,127.94Z"/></clipPath><clipPath id="clip-path-2"><path class="cls-2" d="M148.66,121.86a30.12,30.12,0,0,0,1.57,2.75c4.57,8,13.3,5.21,14.37,5.3s1.4,1,4,1.81,3.42.16,3.9-.83c.27-.55-.38-.75-.38-.75-3.38-.85-3.26-3.16-3.62-3.7a25.17,25.17,0,0,1,2.36,1.11c4,1.45,4.7.21,4.7.21,1.19-.6,3.2-4.63-.63-5.94-3-1-2.07-3.84-2.3-5.19,0,0,.15-6.62-7.74-7.67s-11.78,1.92-13.06,8.75c0,0-2,2.12-3,2.27l.46.67-1,.29Z"/></clipPath><clipPath id="clip-path-3"><ellipse class="cls-3" cx="166.17" cy="119.06" rx="3.2" ry="2.45" transform="translate(27.51 269.27) rotate(-82.91)"/></clipPath><clipPath id="clip-path-4"><path class="cls-4" d="M208.09,147.83a25.87,25.87,0,0,1,1.07,4.92s-.17.8.89.21c0,0,.61.79,1.78,0a.74.74,0,0,0,.29-.34c.25-.55.8-2.25.1-5.37C211.35,143.33,207.27,143.61,208.09,147.83Z"/></clipPath><clipPath id="clip-path-5"><path class="cls-4" d="M196.19,147.83a25.26,25.26,0,0,1,1.06,4.92s-.16.8.9.21c0,0,.61.79,1.78,0a.74.74,0,0,0,.29-.34c.25-.55.8-2.25.1-5.37C199.45,143.33,195.37,143.61,196.19,147.83Z"/></clipPath><clipPath id="clip-path-6"><path class="cls-5" d="M196.27,126.11s22.12,1.42,23.41,14.14-26.65,6.82-32.24,5.14l10.81-5.51Z"/></clipPath><clipPath id="clip-path-7"><path class="cls-6" d="M185.69,142.17s2.61.41,3.8-.89c0,0-.61,2.83-3.07,2.34A1.24,1.24,0,0,1,185.69,142.17Z"/></clipPath><clipPath id="clip-path-8"><path class="cls-5" d="M199.14,147.83a25.26,25.26,0,0,1,1.06,4.92s-.16.8.9.21c0,0,.61.79,1.78,0a.74.74,0,0,0,.29-.34c.25-.55.8-2.25.1-5.37C202.4,143.33,198.32,143.61,199.14,147.83Z"/></clipPath><clipPath id="clip-path-9"><path class="cls-5" d="M211,147.83a25.87,25.87,0,0,1,1.07,4.92s-.17.8.89.21c0,0,.61.79,1.78,0a.74.74,0,0,0,.29-.34,11.45,11.45,0,0,0,.76-6.65C215,142.05,210.22,143.61,211,147.83Z"/></clipPath></defs><path class="cls-7" d="M128.75,136.85l.41.12a3.71,3.71,0,0,0-1.76,1.8,12.05,12.05,0,0,0-1.24,3.38,9,9,0,0,0,2.61-.51,3.2,3.2,0,0,0,1.89-1.78l0,1,.63-1.09a2.25,2.25,0,0,0,.49,1c.37.45,2.26-2,2.4-2.23.4-.76.88-2.1.38-2.91s-1.93-.63-2.75-.46A6,6,0,0,0,128.75,136.85Z"/><path class="cls-8" d="M141.63,139s-1.54,6.31-2,7.17a1.93,1.93,0,0,1-1.88.7,1.33,1.33,0,0,1-1.14-1.34c0-1.26.07-4.1,0-4.81a3.71,3.71,0,0,1,3.12-3.62C142.1,136.84,141.63,139,141.63,139Z"/><path class="cls-9" d="M139.59,146.17l-.54,4.05a1.34,1.34,0,0,1,1.59,1.14c.39,1.45-3.51,1.94-4.45.48s0-2,0-2l.35-4.15S137.35,146.91,139.59,146.17Z"/><path class="cls-8" d="M157.48,139s-1.54,6.31-2,7.17a1.93,1.93,0,0,1-1.88.7,1.33,1.33,0,0,1-1.14-1.34c0-1.26.07-4.1,0-4.81a3.72,3.72,0,0,1,3.13-3.62C158,136.84,157.48,139,157.48,139Z"/><path class="cls-9" d="M155.44,146.17l-.55,4.05a1.34,1.34,0,0,1,1.6,1.14c.39,1.45-3.51,1.94-4.45.48s0-2,0-2l.35-4.15S153.2,146.91,155.44,146.17Z"/><path class="cls-1" d="M152.08,127.94a31.46,31.46,0,0,0-9.13,1.41c-8.82,2.49-10.8,3.73-10.66,9.28.17,6.52,4,6.07,10,6.38s17.92.12,18.54-12.47C161.52,118.06,152.08,127.94,152.08,127.94Z"/><g class="cls-10"><path class="cls-11" d="M154.78,143.31a1,1,0,0,0-.33-.84,1,1,0,0,0-.65-.14,15.94,15.94,0,0,0-3.64.81,21.81,21.81,0,0,1-12.6-.3,3.36,3.36,0,0,0-1.52-.27,1.18,1.18,0,0,0-1,1.07,1.4,1.4,0,0,0,.23.74c.89,1.55,2.81,1.86,4.49,2a37.27,37.27,0,0,0,9.38-.11C150.7,146,154.75,145.89,154.78,143.31Z"/></g><path class="cls-7" d="M148.53,126.21l.47.31-1.89.74a6.82,6.82,0,0,0-3.59,2.41,6.69,6.69,0,0,1,3.41-1,11.42,11.42,0,0,0,1.76-.07,20.1,20.1,0,0,0,3.22-.59c.93-.5.25-1.16.68-2.12.35-.77,0-3.18-1.24-2.18-.46.36-.68,1.1-1.12,1.53C150,125.38,148.83,126.41,148.53,126.21Z"/><ellipse class="cls-12" cx="147.14" cy="134.27" rx="1.39" ry="0.74"/><ellipse class="cls-12" cx="143.52" cy="136.18" rx="1.39" ry="0.74"/><ellipse class="cls-12" cx="136.39" cy="134.56" rx="1.39" ry="0.74"/><ellipse class="cls-12" cx="140.99" cy="131.52" rx="2.26" ry="0.74"/><path class="cls-1" d="M155.5,140a74.23,74.23,0,0,1-3,6.83,2,2,0,0,1-2,.45,1.33,1.33,0,0,1-.95-1.48c.19-1.25.62-4.06.68-4.77a3.72,3.72,0,0,1,3.58-3.16C156.26,137.88,155.5,140,155.5,140Z"/><path class="cls-12" d="M152.52,146.79l-1.08,4a1.34,1.34,0,0,1,1.43,1.34c.19,1.49-3.74,1.45-4.48-.12s.28-2,.28-2l.91-4.07S150.2,147.23,152.52,146.79Z"/><path class="cls-1" d="M140.11,139.71s-3.55,6-4.46,6.8a2.22,2.22,0,0,1-2,.47,1.32,1.32,0,0,1-1-1.46c.17-1.25-.27-4.09-.23-4.81.07-.92,2-3.21,4.36-3.19A3.64,3.64,0,0,1,140.11,139.71Z"/><path class="cls-12" d="M135.65,146.51l-1,4s1.23-.17,1.45,1.32-3.72,1.5-4.48,0,.25-2,.25-2l.84-4.08S133.34,147,135.65,146.51Z"/><ellipse class="cls-12" cx="137.33" cy="138.97" rx="1.39" ry="0.74"/><path class="cls-7" d="M151,116.25c-.33.66-.79,1.37-1.51,1.51a1.11,1.11,0,0,0,1,.37,2.83,2.83,0,0,0-.74.6,2.66,2.66,0,0,1-1.76.67,3.11,3.11,0,0,0,3.56-.21,3.91,3.91,0,0,0,1.39-3.28c0-.48-.21-1.23-.85-1.13S151.25,115.8,151,116.25Z"/><path class="cls-13" d="M166.27,110a8.35,8.35,0,0,0-4.76-5c-3.9-1.71-4.84,0-5.5,2.91s-1.3,10.74,8.13,10.09C164.14,118,167.94,112.86,166.27,110Z"/><path class="cls-14" d="M172.4,127.9a2.87,2.87,0,0,0-.61,2.45l-1.38.28-4.48-2.47.44-1.78,4.44.11Z"/><path class="cls-3" d="M167.42,126.17c-.19.6,1,1.45,2.69,2.07,2.32.86,3.18.49,3.38-.11s-1-1.53-2.68-2.06S167.62,125.58,167.42,126.17Z"/><ellipse class="cls-15" cx="168.27" cy="129.3" rx="1.14" ry="2.93" transform="translate(1.82 260.93) rotate(-75.87)"/><path class="cls-2" d="M148.66,121.86a30.12,30.12,0,0,0,1.57,2.75c4.57,8,13.3,5.21,14.37,5.3s1.4,1,4,1.81,3.42.16,3.9-.83c.27-.55-.38-.75-.38-.75-3.38-.85-3.26-3.16-3.62-3.7a25.17,25.17,0,0,1,2.36,1.11c4,1.45,4.7.21,4.7.21,1.19-.6,3.2-4.63-.63-5.94-3-1-2.07-3.84-2.3-5.19,0,0,.15-6.62-7.74-7.67s-11.78,1.92-13.06,8.75c0,0-2,2.12-3,2.27l.46.67-1,.29Z"/><g class="cls-16"><path class="cls-17" d="M162.25,125.56c-.4,3.18,3.08,6.23,7.77,6.81s8.81-1.52,9.2-4.7-2.16-6.82-6.85-7.41S162.64,122.39,162.25,125.56Z"/></g><path class="cls-12" d="M172.58,122.93c-.11.91,1.23,1.82,3,2s2.16-.48,2.28-1.39-.11-1.68-1.87-1.9S172.7,122,172.58,122.93Z"/><ellipse class="cls-18" cx="176.1" cy="122.35" rx="0.38" ry="0.76" transform="translate(32.95 282.01) rotate(-82.91)"/><ellipse class="cls-19" cx="162.41" cy="122.27" rx="0.41" ry="0.79" transform="translate(21.02 268.35) rotate(-82.91)"/><path class="cls-7" d="M165.6,109.55a3.16,3.16,0,0,1,1.5-1,4.77,4.77,0,0,1,2.59.81,4.22,4.22,0,0,1,1.52,1.9c-.13,1.09-.6,2.75-2.2,3,0,0,1.13-2.45.1-3.89a1.88,1.88,0,0,1-2.31.86,1,1,0,0,0,.67-1.34S165,110.35,165.6,109.55Z"/><path class="cls-7" d="M167.22,105.89a2.66,2.66,0,0,1-1.53,2.42.77.77,0,0,0-.38.25.48.48,0,0,0,.16.6,1.29,1.29,0,0,0,.65.18c.91.06,1.48,0,1.72-.92a2.76,2.76,0,0,0,0-1.37C167.77,106.72,167.23,106.14,167.22,105.89Z"/><ellipse class="cls-12" cx="153.69" cy="123.6" rx="0.92" ry="0.58" transform="translate(-15.21 225.44) rotate(-69.89)"/><ellipse class="cls-12" cx="151.42" cy="124.08" rx="0.58" ry="0.92" transform="translate(-24.29 37.76) rotate(-13.17)"/><path class="cls-7" d="M163.45,110.14l.51-.9a6.41,6.41,0,0,0-3.35,1.2l.16-1.07a7.79,7.79,0,0,0-3.53,1.35,1.12,1.12,0,0,0,.06-.72,4.7,4.7,0,0,1-1.57.3,2.06,2.06,0,0,1,.82-1.6,5.06,5.06,0,0,1,1.67-.8,15.54,15.54,0,0,1,2.71-.57l-.27-.36a9.57,9.57,0,0,1,4,.71l.18-.33s2.91.82,1.43,1.75a6.89,6.89,0,0,1-1,.39A10.92,10.92,0,0,1,163.45,110.14Z"/><path class="cls-2" d="M156.55,109.06a8.33,8.33,0,0,0-5.77-3.84c-4.19-.78-4.72,1.13-4.71,4.08s1.17,10.75,10.21,8C156.28,117.29,158.83,111.45,156.55,109.06Z"/><path class="cls-11" d="M155.83,110.89a6.82,6.82,0,0,0-4.75-3c-3.45-.61-3.89.9-3.89,3.25s.94,8.52,8.39,6.31C155.58,117.42,157.69,112.78,155.83,110.89Z"/><path class="cls-2" d="M155.66,113.09a6.36,6.36,0,0,1-.36-1.72,4.17,4.17,0,0,0-.84,2.55,2.9,2.9,0,0,0-.77-.71,2.48,2.48,0,0,0,.12,1.18,6.22,6.22,0,0,0-1.35.21,6.53,6.53,0,0,0,.95.79,4.17,4.17,0,0,0-1.11.47l.84.32c-.45.74-.93,1.46-1.43,2.16a41.61,41.61,0,0,1,6.54-1.31l.49-3.07c.12-.72.39-2.71-.73-2.88-.46-.07-1,.41-1.33.69S155.55,112.8,155.66,113.09Z"/><ellipse class="cls-12" cx="153.07" cy="120.15" rx="1.33" ry="0.85" transform="translate(-12.38 222.59) rotate(-69.89)"/><path class="cls-2" d="M168.92,121.21a7.85,7.85,0,0,1-.67.93,2.34,2.34,0,0,1-.81.5,4.18,4.18,0,0,1-4.22-.74,5,5,0,0,1-1.44-2.4,5.05,5.05,0,0,1-.13-2.5,3.57,3.57,0,0,1,1.33-2.1,4.58,4.58,0,0,1,1.4-.65,6.38,6.38,0,0,1,2.87-.29,3.64,3.64,0,0,1,2.45,1.43,4.35,4.35,0,0,1,.59,2.74,5.72,5.72,0,0,0-.18,1.4c.11.43.55.3.86.52A3.54,3.54,0,0,0,168.92,121.21Z"/><ellipse class="cls-20" cx="166.24" cy="118.52" rx="3.75" ry="2.88" transform="translate(28.11 268.86) rotate(-82.91)"/><ellipse class="cls-3" cx="166.17" cy="119.06" rx="3.2" ry="2.45" transform="translate(27.51 269.27) rotate(-82.91)"/><g class="cls-21"><path d="M164.91,120a2.23,2.23,0,0,1,2.51-1.79,1.6,1.6,0,0,1,.53.32.81.81,0,0,0-.49.54.76.76,0,0,0,.41,1,.69.69,0,0,0,.72-.25,3.1,3.1,0,0,1-.11,1.3,1.93,1.93,0,1,1-3.57-1.1Z"/></g><path class="cls-7" d="M164.87,115.31a1.75,1.75,0,0,1,1.92-.94,2.12,2.12,0,0,1,1,.54,2.24,2.24,0,0,1,.34.42,2.66,2.66,0,0,1,.21.5l-.89-.45a4,4,0,0,0-.8-.27A3.48,3.48,0,0,0,164.87,115.31Z"/><path class="cls-2" d="M167.58,122.61a5.16,5.16,0,0,1-1.11.28,19.43,19.43,0,0,0-2.39.6,3.17,3.17,0,0,0-1.21.62,3.35,3.35,0,0,0-.82,2.07c-.06.36-.19.8-.55.87a.6.6,0,0,1-.53-.22,1.58,1.58,0,0,1-.28-.51,6.67,6.67,0,0,1-.55-2.63,16.59,16.59,0,0,0,2.61-.55,1.37,1.37,0,0,0,.53-.25c.31-.27.34-.75.6-1.06l1.93.58a2.09,2.09,0,0,0,1.39.09c.21-.09.57-.53.82-.4S167.75,122.54,167.58,122.61Z"/><path class="cls-7" d="M220.76,147.43a2,2,0,0,0,1.18.54,8.29,8.29,0,0,0,1.22.14.33.33,0,0,1-.23-.15.55.55,0,0,1,.6.37,3.41,3.41,0,0,0-.18-2.07,2,2,0,0,0-1.63-1.15,1.1,1.1,0,0,0-.78.25A1.82,1.82,0,0,0,220.76,147.43Z"/><path class="cls-22" d="M217.84,144.38s3.69.57,3.8,2.37c0,0-.38-.45-3.8-.87S216,144.24,217.84,144.38Z"/><path class="cls-4" d="M208.09,147.83a25.87,25.87,0,0,1,1.07,4.92s-.17.8.89.21c0,0,.61.79,1.78,0a.74.74,0,0,0,.29-.34c.25-.55.8-2.25.1-5.37C211.35,143.33,207.27,143.61,208.09,147.83Z"/><g class="cls-23"><path class="cls-24" d="M208.17,151.49c.12.06,1.45,1.31,5,.37V154L208,154,206.87,152Z"/></g><path class="cls-4" d="M196.19,147.83a25.26,25.26,0,0,1,1.06,4.92s-.16.8.9.21c0,0,.61.79,1.78,0a.74.74,0,0,0,.29-.34c.25-.55.8-2.25.1-5.37C199.45,143.33,195.37,143.61,196.19,147.83Z"/><g class="cls-25"><path class="cls-24" d="M196.27,151.49c.11.06,1.44,1.31,5,.37V154l-5.15-.06L195,152Z"/></g><path class="cls-5" d="M185.64,130.23s-1.41,4.48-5.55,4.57l3.89,2.91,1.44-.27,1-4.76S187.44,129.65,185.64,130.23Z"/><path class="cls-5" d="M196.27,126.11s22.12,1.42,23.41,14.14-26.65,6.82-32.24,5.14l10.81-5.51Z"/><g class="cls-26"><path class="cls-27" d="M204.74,149.78s-14.66-2.82-8.13-2.93,8.13,1,16.18.58-4.57,2.22-4.57,2.22l-3.22,0"/></g><ellipse class="cls-5" cx="187.65" cy="143.43" rx="1.97" ry="2.83" transform="translate(25.64 315.3) rotate(-84.09)"/><path class="cls-5" d="M187.05,145.08c3.93,1.19,10.87,2.18,15.84-.6l-10.16-4.4-7.23.79-1.33.74"/><path class="cls-5" d="M205.05,141.35c-.32,3.11-4.47,5.13-10.9,4.47s-11.39-3.73-11.06-6.84,5.79-5.09,12.22-4.43S205.37,138.24,205.05,141.35Z"/><path class="cls-5" d="M205.12,136.89c-.29,5.94-3.55,9.7-9.8,9.05s-11.59-5.32-11-10.7,3.11-9.6,9.39-9.52C201.67,125.83,205.42,130.67,205.12,136.89Z"/><path class="cls-5" d="M180.09,134.8s2.56-.45,3.82,1.29l.79,6.2a56,56,0,0,1-5.66-.92Z"/><path class="cls-6" d="M185.69,142.17s2.61.41,3.8-.89c0,0-.61,2.83-3.07,2.34A1.24,1.24,0,0,1,185.69,142.17Z"/><g class="cls-28"><ellipse class="cls-15" cx="187.99" cy="144.38" rx="1.62" ry="2.03" transform="translate(25.01 316.49) rotate(-84.09)"/><ellipse class="cls-3" cx="187.14" cy="141" rx="1.62" ry="2.03" transform="translate(27.61 312.62) rotate(-84.09)"/></g><path class="cls-29" d="M179.91,141.52s5.6,1.54,8.82.31l.14-.26s-5.55.3-8.45-.51Z"/><path class="cls-30" d="M182.21,139.06a2.49,2.49,0,0,1-2.58,2.42c-1.38,0-1.5-1.17-1.46-2.55s.3-4.15,1.68-4.11S182.26,137.68,182.21,139.06Z"/><ellipse class="cls-31" cx="179.61" cy="138.76" rx="1.09" ry="0.59" transform="translate(34.94 313.64) rotate(-88.09)"/><circle class="cls-3" cx="190.97" cy="135.93" r="2.77" transform="translate(-27.82 220.07) rotate(-56.48)"/><path d="M190.87,133.44a2,2,0,0,0-.69.05.75.75,0,0,1,.32.69.74.74,0,0,1-1.47,0,2.07,2.07,0,1,0,3.68,1.49A2.06,2.06,0,0,0,190.87,133.44Z"/><ellipse class="cls-32" cx="193.43" cy="139.05" rx="0.36" ry="1.1" transform="translate(35.18 317.12) rotate(-84.09)"/><path class="cls-7" d="M192.91,127.06a3.75,3.75,0,0,0-1.28-2.37,5.12,5.12,0,0,0-1.87-.15,4.66,4.66,0,0,0-3.43,2.07,4.37,4.37,0,0,0-.66,2.11,3.51,3.51,0,0,0,.06.79l.34.63a4.37,4.37,0,0,0,1.31.81s.38-3.59,1.78-3.44a2.29,2.29,0,0,0,.37,2.13,9.93,9.93,0,0,0,1.25-1.75l-.12,1.17S193,128.51,192.91,127.06Z"/><path class="cls-7" d="M194.81,127a3.23,3.23,0,0,0,.13.69c.64-.21,1.29-.39,2-.54l-.08.65a8.73,8.73,0,0,1,3.85-.63,4,4,0,0,0-1.43-1.41,13.59,13.59,0,0,0-4.85-1.55,12.56,12.56,0,0,0-4.23-.21,4.5,4.5,0,0,0-3.36,2.33l3.11-.44a.39.39,0,0,1,.24,0,.35.35,0,0,1,.15.22l.35,1a3.94,3.94,0,0,1,.64-.65.2.2,0,0,1,.15-.06c.05,0,.09.07.12.12a6,6,0,0,0,.44.74c.67-.41.71,0,.66.59A2.29,2.29,0,0,0,194.81,127Z"/><path class="cls-7" d="M202.76,126.11a6.72,6.72,0,0,0,.86.4c.37.13.77.18,1.15.28a9.32,9.32,0,0,1,1.66.71l3.63,1.84a2.12,2.12,0,0,1-2.42-.28,1,1,0,0,1-1.18.45,3.54,3.54,0,0,1-1.19-.68,1,1,0,0,0-.69-.27,1.59,1.59,0,0,0-.4.14c-.83.33-1.67-.39-2.28-1a1.31,1.31,0,0,1-1.35.09c-.18-.1-.34-.24-.53-.33a3.53,3.53,0,0,0-1.22-.16,1,1,0,0,1-1-.63,1.24,1.24,0,0,1-1.32.36,3.58,3.58,0,0,1-1.25-.72L193.63,125c-.75-.58-.43-1,.32-.92a26.16,26.16,0,0,1,2.94.32A19,19,0,0,1,202.76,126.11Z"/><path class="cls-5" d="M196,127.64s2.88-2.56,5.71-1.16,3.19,4.67-3.76,9.28C198,135.76,194.78,130.43,196,127.64Z"/><path class="cls-33" d="M196,128.69s2.06-1.83,4.07-.83,2.28,3.33-2.68,6.62C197.42,134.48,195.14,130.68,196,128.69Z"/><ellipse class="cls-34" cx="209.48" cy="131.73" rx="1.65" ry="0.52"/><ellipse class="cls-34" cx="212.56" cy="133.55" rx="1.65" ry="0.52"/><path class="cls-5" d="M199.14,147.83a25.26,25.26,0,0,1,1.06,4.92s-.16.8.9.21c0,0,.61.79,1.78,0a.74.74,0,0,0,.29-.34c.25-.55.8-2.25.1-5.37C202.4,143.33,198.32,143.61,199.14,147.83Z"/><g class="cls-35"><path class="cls-24" d="M199.22,151.49c.12.06,1.44,1.31,5,.37V154L199,154,197.92,152Z"/></g><path class="cls-5" d="M211,147.83a25.87,25.87,0,0,1,1.07,4.92s-.17.8.89.21c0,0,.61.79,1.78,0a.74.74,0,0,0,.29-.34,11.45,11.45,0,0,0,.76-6.65C215,142.05,210.22,143.61,211,147.83Z"/><g class="cls-36"><path class="cls-24" d="M211.12,151.49c.12.06,1.45,1.31,5,.37V154l-5.15-.06L209.82,152Z"/></g><path class="cls-3" d="M189,141.37s-1,.67-1.18.87,1.12.46,2.32-.15Z"/><ellipse class="cls-5" cx="190.28" cy="141.4" rx="1.07" ry="1.38" transform="translate(30.03 316.09) rotate(-84.09)"/><path class="cls-37" d="M190.15,140.16s-1.29.07-1.21,1.27,1.84,1.23,3,.44"/><circle class="cls-38" cx="163.03" cy="145.84" r="6.8"/></svg>