<svg id="Layer_1" data-name="Layer 1" xmlns="http://www.w3.org/2000/svg" xmlns:xlink="http://www.w3.org/1999/xlink" viewBox="0 0 260 168"><defs><style>.cls-1{fill:#dda854;}.cls-2{fill:#e8ba67;}.cls-3{fill:#471e00;}.cls-4{fill:#7a3100;}.cls-5{fill:#ce994d;}.cls-6{fill:#1e1000;}.cls-7{clip-path:url(#clip-path);}.cls-8{fill:#f7d19a;}.cls-9{fill:#cc923e;}.cls-10{fill:#301c00;}.cls-11{fill:#e2af5d;}.cls-12{clip-path:url(#clip-path-2);}.cls-13{fill:#a06f20;}.cls-14{fill:#d69936;}.cls-15{clip-path:url(#clip-path-3);}.cls-16{clip-path:url(#clip-path-4);}.cls-17{fill:#c41e1e;}.cls-18{fill:#fff;}.cls-19{fill:#ffd38d;}.cls-20{fill:#93621b;}.cls-21{fill:#7a4609;}</style><clipPath id="clip-path"><path class="cls-1" d="M126.71,101a44.32,44.32,0,0,0-12.26,4c-11.55,5.48-14,7.65-12.51,15.26,1.75,8.94,6.9,7.44,15.22,6.46s24.7-4,22.63-21.47C137.41,85.23,126.71,101,126.71,101Z"/></clipPath><clipPath id="clip-path-2"><path class="cls-2" d="M117.48,90.47c-.29,4.54,7.52,10.75,17.61,11.41s18.64-4.48,18.94-9-7.64-8.75-17.73-9.41S117.78,85.94,117.48,90.47Z"/></clipPath><clipPath id="clip-path-3"><circle class="cls-2" cx="136.2" cy="84.89" r="16.18" transform="translate(50.86 220.81) rotate(-89.81)"/></clipPath><clipPath id="clip-path-4"><path class="cls-3" d="M141,95.61a11.49,11.49,0,0,1-10.95-1,5.5,5.5,0,0,0,5.22,4.68C140.36,99.61,141,95.61,141,95.61Z"/></clipPath></defs><path class="cls-4" d="M96.65,118.72l.59.06a5.16,5.16,0,0,0-2,2.89,16.74,16.74,0,0,0-.93,5,13.28,13.28,0,0,0,3.48-1.31,4.46,4.46,0,0,0,2.18-2.9l.27,1.43.61-1.65a3.52,3.52,0,0,0,.9,1.22c.62.52,2.67-3.23,2.8-3.63.37-1.14.72-3.1-.16-4.11s-2.8-.41-3.89,0A8.4,8.4,0,0,0,96.65,118.72Z"/><path class="cls-5" d="M117.38,119.86s-3.31,8.44-4.17,9.54a2.71,2.71,0,0,1-2.73.62,1.86,1.86,0,0,1-1.33-2.07c.28-1.74.88-5.66,1-6.66.11-1.28,1.67-4.48,5-4.4S117.38,119.86,117.38,119.86Z"/><path class="cls-6" d="M113.21,129.4l-1.52,5.51a1.87,1.87,0,0,1,2,1.88c.26,2.07-5.23,2-6.25-.18s.4-2.75.4-2.75l1.27-5.68S110,130,113.21,129.4Z"/><path class="cls-5" d="M136.7,115s-.65,9-1.14,10.35a2.71,2.71,0,0,1-2.43,1.4,1.84,1.84,0,0,1-1.87-1.58c-.26-1.74-.86-5.67-1.07-6.64-.28-1.26.25-4.78,3.46-5.7S136.7,115,136.7,115Z"/><path class="cls-6" d="M135.56,125.35l.19,5.71a1.85,1.85,0,0,1,2.46,1.2c.88,1.9-4.38,3.47-6,1.69s-.44-2.75-.44-2.75l-.48-5.8S132.65,126.89,135.56,125.35Z"/><path class="cls-1" d="M126.71,101a44.32,44.32,0,0,0-12.26,4c-11.55,5.48-14,7.65-12.51,15.26,1.75,8.94,6.9,7.44,15.22,6.46s24.7-4,22.63-21.47C137.41,85.23,126.71,101,126.71,101Z"/><g class="cls-7"><path class="cls-8" d="M134,121.57a1.43,1.43,0,0,0-.65-1.09,1.45,1.45,0,0,0-.92,0,22.39,22.39,0,0,0-4.83,2,30.5,30.5,0,0,1-17.42,2.5,4.78,4.78,0,0,0-2.16,0,1.65,1.65,0,0,0-1.18,1.71,2,2,0,0,0,.49,1c1.59,1.93,4.3,1.91,6.64,1.7a53.3,53.3,0,0,0,12.9-2.33C129,126.2,134.55,125.12,134,121.57Z"/><ellipse class="cls-9" cx="134.5" cy="95.23" rx="10.45" ry="8.78"/></g><path class="cls-4" d="M121.42,99.47l.72.32-2.44,1.46c-1.76,1-3.63,2.24-4.38,4.15a9.47,9.47,0,0,1,4.46-2.25,16.21,16.21,0,0,0,2.4-.49,29.34,29.34,0,0,0,4.3-1.57c1.16-.91.07-1.66.44-3.08.3-1.14-.71-4.38-2.22-2.71-.55.61-.67,1.68-1.18,2.37C123.29,98,121.88,99.67,121.42,99.47Z"/><ellipse class="cls-10" cx="121.37" cy="110.89" rx="1.94" ry="1.03" transform="translate(-16.75 21.73) rotate(-9.57)"/><ellipse class="cls-10" cx="116.83" cy="114.37" rx="1.94" ry="1.03" transform="translate(-17.39 21.02) rotate(-9.57)"/><ellipse class="cls-10" cx="106.64" cy="113.79" rx="1.94" ry="1.03" transform="translate(-17.44 19.32) rotate(-9.57)"/><ellipse class="cls-10" cx="112.26" cy="108.53" rx="3.16" ry="1.03" transform="translate(-16.48 20.18) rotate(-9.57)"/><path class="cls-1" d="M134.2,116.78s-1.86,8.88-2.51,10.11a2.74,2.74,0,0,1-2.6,1.07,1.86,1.86,0,0,1-1.65-1.82c0-1.76-.09-5.73-.17-6.73-.11-1.29.89-4.7,4.19-5.18S134.2,116.78,134.2,116.78Z"/><path class="cls-10" d="M131.69,126.89l-.58,5.68a1.87,1.87,0,0,1,2.28,1.52c.61,2-4.81,2.86-6.19.87s-.06-2.78-.06-2.78l.3-5.81S128.59,128,131.69,126.89Z"/><path class="cls-1" d="M112.76,121.54s-5.57,8-6.93,9a3.11,3.11,0,0,1-2.77.45,1.84,1.84,0,0,1-1.19-2.14c.37-1.72,0-5.72.2-6.71.18-1.28,3.07-4.26,6.4-4A5.09,5.09,0,0,1,112.76,121.54Z"/><path class="cls-10" d="M105.83,130.54l-1.84,5.4s1.73-.09,1.88,2-5.33,1.7-6.23-.55.56-2.72.56-2.72l1.61-5.6S102.56,131,105.83,130.54Z"/><ellipse class="cls-10" cx="108.96" cy="119.64" rx="1.94" ry="1.03" transform="translate(-18.38 19.78) rotate(-9.57)"/><path class="cls-11" d="M147.33,74.91a12.29,12.29,0,0,1,8.47-5.74c6.17-1.22,7,1.58,7,6s-1.58,15.89-15,11.95C147.85,87.07,144,78.48,147.33,74.91Z"/><path class="cls-8" d="M148.42,77.6a10,10,0,0,1,7-4.53c5.08-.95,5.75,1.27,5.78,4.73s-1.26,12.6-12.3,9.44C148.88,87.24,145.7,80.42,148.42,77.6Z"/><path class="cls-11" d="M126.48,73.54a12.34,12.34,0,0,0-7.65-6.8c-6-2-7.13.66-7.72,5s-.52,16,13.26,13.8C124.37,85.53,129.31,77.51,126.48,73.54Z"/><path class="cls-8" d="M125,76.07a10,10,0,0,0-6.32-5.41c-4.91-1.6-5.87.51-6.35,3.94s-.4,12.65,10.95,11C123.32,85.56,127.38,79.22,125,76.07Z"/><path class="cls-2" d="M117.48,90.47c-.29,4.54,7.52,10.75,17.61,11.41s18.64-4.48,18.94-9-7.64-8.75-17.73-9.41S117.78,85.94,117.48,90.47Z"/><g class="cls-12"><path class="cls-13" d="M123.39,93.07c-1.15,5.61,4.55,8.35,11.24,8.78s12.83-1.33,13.08-7.13c.18-4.43-5.33-8.44-12-8.88S124.28,88.73,123.39,93.07Z"/></g><circle class="cls-14" cx="150.86" cy="80.43" r="3.98"/><circle class="cls-14" cx="123.18" cy="78.61" r="3.98"/><circle class="cls-2" cx="136.2" cy="84.89" r="16.18" transform="translate(50.86 220.81) rotate(-89.81)"/><g class="cls-15"><ellipse class="cls-13" cx="135.36" cy="95.33" rx="7.17" ry="12.11" transform="translate(31.37 224.16) rotate(-86.25)"/></g><path class="cls-3" d="M141,95.61a11.49,11.49,0,0,1-10.95-1,5.5,5.5,0,0,0,5.22,4.68C140.36,99.61,141,95.61,141,95.61Z"/><g class="cls-16"><ellipse class="cls-17" cx="135.2" cy="100.42" rx="2.14" ry="3.68" transform="translate(26.15 228.76) rotate(-86.25)"/><ellipse class="cls-18" cx="135.52" cy="95.64" rx="2.24" ry="3.76" transform="translate(31.21 224.61) rotate(-86.25)"/></g><ellipse class="cls-19" cx="146.9" cy="85.64" rx="5.54" ry="4.25" transform="translate(51.83 226.62) rotate(-86.25)"/><ellipse class="cls-19" cx="125.41" cy="84.23" rx="5.54" ry="4.25" transform="translate(33.15 203.85) rotate(-86.25)"/><ellipse class="cls-18" cx="146.94" cy="86.45" rx="4.73" ry="3.62" transform="translate(51.06 227.41) rotate(-86.25)"/><ellipse cx="146.94" cy="86.45" rx="3.6" ry="2.75" transform="translate(51.06 227.41) rotate(-86.25)"/><ellipse class="cls-18" cx="148.54" cy="84.13" rx="1.21" ry="1.01" transform="translate(54.86 226.85) rotate(-86.25)"/><ellipse class="cls-18" cx="125.35" cy="85.03" rx="4.73" ry="3.62" transform="translate(32.3 204.55) rotate(-86.25)"/><ellipse cx="125.35" cy="85.03" rx="3.6" ry="2.75" transform="translate(32.3 204.55) rotate(-86.25)"/><ellipse class="cls-18" cx="126.95" cy="82.72" rx="1.21" ry="1.01" transform="translate(36.1 203.98) rotate(-86.25)"/><path class="cls-4" d="M130.81,69.63c-.82,1.23,2.77.18,2.77.18a1.4,1.4,0,0,1-.86,2,2.79,2.79,0,0,0,3.33-1.48c1.64,2,.18,5.75.18,5.75,3.52-.65,3-5.94,3-5.94,1.11.39,2.53,2.83,2.53,2.83a6.13,6.13,0,0,0-1-2.81l1.49.74c1.32.82,2.36,1,2.72,0,0,0-.74-2.74-6.58-3.41a2.68,2.68,0,0,1,.94-2.27s-2.56.2-3.11,2.13C136.2,67.41,132.52,67.07,130.81,69.63Z"/><ellipse class="cls-20" cx="135.73" cy="92.09" rx="4.68" ry="7.81" transform="translate(34.96 221.5) rotate(-86.25)"/><ellipse class="cls-10" cx="135.85" cy="90.23" rx="2.45" ry="4.75" transform="translate(36.93 219.88) rotate(-86.25)"/><ellipse class="cls-21" cx="137.38" cy="88.84" rx="0.56" ry="1.13" transform="translate(39.73 220.11) rotate(-86.25)"/><path class="cls-4" d="M149.71,81.35a5.25,5.25,0,0,0-2.52-.78,5.63,5.63,0,0,0-1.24.18l-.68.19a5,5,0,0,1-.74.21,4.21,4.21,0,0,1,.44-.66,4.38,4.38,0,0,1,.62-.52,3,3,0,0,1,1.6-.5A2.59,2.59,0,0,1,149.71,81.35Z"/><path class="cls-4" d="M123.11,79.61a2.58,2.58,0,0,1,2.74-1.54,3.05,3.05,0,0,1,1.53.71,4.29,4.29,0,0,1,.54.59,3.73,3.73,0,0,1,.36.72,5.22,5.22,0,0,1-.71-.31l-.65-.28a5.81,5.81,0,0,0-1.21-.34A5.24,5.24,0,0,0,123.11,79.61Z"/></svg>