<svg xmlns="http://www.w3.org/2000/svg" viewBox="0 0 424.07 413">
  <defs>
    <style>
      .cls-1 {
        fill: #006d7b;
      }

      .cls-2 {
        fill: #afc9cd;
      }

      .cls-3 {
        fill: #2a8793;
      }

      .cls-4 {
        fill: #438b94;
      }

      .cls-5 {
        fill: #4a99a3;
      }

      .cls-6 {
        fill: #ffcbff;
      }

      .cls-7 {
        fill: #067280;
      }

      .cls-8 {
        fill: #3c3c3c;
      }

      .cls-9 {
        fill: #4fa4af;
      }

      .cls-10 {
        fill: #fff;
      }

      .cls-11 {
        fill: #0e5d67;
      }

      .cls-12 {
        fill: #125c66;
      }
    </style>
  </defs>
  <title>p16</title>
  <g id="character">
    <g>
      <g>
        <path class="cls-1" d="M132.31,273.81s1.9,30,3.8,42.34c0,0-10.94,27.11-6.18,40.43,0,0-13.32,11.89-13.32,23.31,0,0-3,6.66,11.58,13.63,0,0,37.1,13.64,55.18.32,0,0,7.29-.32,1.9-34.57,0,0,3.49-20.29.63-30.44l1.59-20.93s5.07-18.08-.32-26.32C187.17,281.58,158.63,249.23,132.31,273.81Z"/>
        <path class="cls-2" d="M166.08,369.26S159,371,155.78,387c0,0-1.91,6,3.49,8.88,0,0,8.08,2.7,10.78.48,0,0,5.39-2.7,4.44-11.26,0,0,.63-11.89-4.28-15.54A7,7,0,0,0,166.08,369.26Z"/>
        <path class="cls-2" d="M145.31,367s-8.88,7.3-10,17.45c0,0-1.11,6,3,8.08,0,0,8.25,3.33,11.58-.63,0,0,6.82-5.87,4.28-20.46,0,0-.79-4.44-4.6-5.55A8,8,0,0,0,145.31,367Z"/>
        <path class="cls-2" d="M135.32,362.92s2.38.79.79,8.25c0,0-.63,12.05-4.91,14.59,0,0-3.33,3.48-10.31.63,0,0-5.71-3.33-.47-13.16,0,0,3.8-8.25,10-10.47C130.41,362.76,133.58,360.7,135.32,362.92Z"/>
      </g>
      <g>
        <path class="cls-1" d="M256.86,279.19s-5.42,29.54-8.77,41.59c0,0,7.67,28.22,1.37,40.89,0,0,11.83,13.38,10.48,24.71,0,0,2.21,7-13.1,12.18,0,0-38.46,9.17-54.84-6.19,0,0-7.2-1.18,2.19-34.55,0,0-1.07-20.57,3-30.31l.89-21s-2.9-18.55,3.42-26.1C201.46,280.44,233.62,251.68,256.86,279.19Z"/>
        <path class="cls-2" d="M212.07,370s6.88,2.57,8.14,18.85c0,0,1.18,6.21-4.51,8.41,0,0-8.35,1.72-10.77-.8,0,0-5-3.31-3.08-11.71,0,0,.77-11.88,6.08-14.92A6.9,6.9,0,0,1,212.07,370Z"/>
        <path class="cls-2" d="M233,370.24s8,8.29,7.87,18.5c0,0,.39,6.12-3.95,7.68,0,0-8.58,2.33-11.42-2,0,0-6.08-6.63-1.84-20.81,0,0,1.31-4.32,5.22-5A7.91,7.91,0,0,1,233,370.24Z"/>
        <path class="cls-2" d="M243.36,367.33s-2.45.51-1.76,8.09c0,0-.79,12,3.16,15.07,0,0,2.9,3.86,10.16,1.84,0,0,6.06-2.63,2-13,0,0-2.81-8.64-8.69-11.57C248.26,367.75,245.35,365.33,243.36,367.33Z"/>
      </g>
      <g>
        <path class="cls-3" d="M86.33,285.54s1.9,30,3.8,42.34c0,0-10.94,27.11-6.18,40.43,0,0-13.32,11.9-13.32,23.31,0,0-3,6.66,11.57,13.64,0,0,37.11,13.64,55.18.32,0,0,7.3-.32,1.91-34.57,0,0,3.48-20.3.63-30.45l1.59-20.93s5.07-18.07-.32-26.32C141.19,293.31,112.65,261,86.33,285.54Z"/>
        <path class="cls-2" d="M120.1,381s-7.14,1.74-10.31,17.76c0,0-1.9,6,3.49,8.88,0,0,8.09,2.69,10.78.47,0,0,5.4-2.69,4.44-11.26,0,0,.64-11.89-4.28-15.53A6.85,6.85,0,0,0,120.1,381Z"/>
        <path class="cls-2" d="M99.33,378.78s-8.88,7.29-10,17.44c0,0-1.11,6,3,8.09,0,0,8.25,3.33,11.58-.64,0,0,6.81-5.86,4.28-20.45,0,0-.8-4.44-4.6-5.55A7.92,7.92,0,0,0,99.33,378.78Z"/>
        <path class="cls-2" d="M89.34,374.66s2.38.79.79,8.24c0,0-.63,12.05-4.91,14.59,0,0-3.33,3.49-10.31.63,0,0-5.71-3.33-.48-13.16,0,0,3.81-8.24,10-10.46C84.42,374.5,87.59,372.44,89.34,374.66Z"/>
      </g>
      <g>
        <path class="cls-3" d="M303.09,287.13s-1.91,30-3.81,42.33c0,0,10.94,27.12,6.19,40.44,0,0,13.32,11.89,13.32,23.31,0,0,3,6.66-11.58,13.63,0,0-37.1,13.64-55.18.32,0,0-7.29-.32-1.9-34.57,0,0-3.49-20.29-.64-30.44l-1.58-20.93s-5.08-18.08.31-26.32C248.22,294.9,276.77,262.55,303.09,287.13Z"/>
        <path class="cls-2" d="M269.31,382.58s7.14,1.75,10.31,17.76c0,0,1.9,6-3.49,8.88,0,0-8.09,2.7-10.78.48,0,0-5.39-2.7-4.44-11.26,0,0-.63-11.89,4.28-15.54A6.94,6.94,0,0,1,269.31,382.58Z"/>
        <path class="cls-2" d="M290.09,380.36s8.87,7.3,10,17.45c0,0,1.11,6-3,8.08,0,0-8.24,3.33-11.57-.63,0,0-6.82-5.87-4.28-20.46,0,0,.79-4.44,4.59-5.55A8.07,8.07,0,0,1,290.09,380.36Z"/>
        <path class="cls-2" d="M300.07,376.24s-2.37.79-.79,8.25c0,0,.64,12.05,4.92,14.58,0,0,3.33,3.49,10.3.64,0,0,5.71-3.33.48-13.16,0,0-3.81-8.25-10-10.47C305,376.08,301.82,374,300.07,376.24Z"/>
      </g>
      <path class="cls-4" d="M292.78,30.09s-39-32.34-92.29-30c0,0-60.89-1.91-87.53,31.87C113,32,23.53,99.55,53,232.74c0,0,10.46,79.92,121.46,111.63,0,0,44.4,10.78,81.18-8.88,0,0,90.07-47.57,93.24-144C348.91,191.51,357.79,90.67,292.78,30.09Z"/>
      <path class="cls-5" d="M284.21,237.5s37.58,10,69.46-6.66c0,0,63.74-36.63,70.4-88.48,0,0-2.86-45.19-40-96.09,0,0-29-32.35-79-21.41,0,0-35.21,6.66-44.24,12.84L211.43,160.43l30,59Z"/>
      <path class="cls-6" d="M267.09,41s26.16-11.89,55.18-10c0,0,23.78-2.86,46.62,18.55,0,0,32.82,40.91,39,91.33,0,0-11.42,58.51-75.16,87,0,0-36.63,13.8-80.87-10.46Z"/>
      <path class="cls-5" d="M144.36,37.7S124.7,27.56,116.45,22.8c0,0-21.24-12.69-45.35-.32,0,0-38.69,16.18-68.5,80.24,0,0-7.29,11.1,2.54,38.37,0,0,18.71,56.45,45,71.35,0,0,43.77,30.13,65,30.77l3.18-1.27,28.22-7.61L176.07,170,164,50.07Z"/>
      <path class="cls-6" d="M139.29,40.24s-13-8.88-21.25-11.73c0,0-19-8.25-42.5,4.44,0,0-41.86,24.73-58.67,72.3,0,0-5.7,11.1.32,28.23,0,0,12,45.66,35.84,68.18a92.16,92.16,0,0,0,22.83,14.27s31.08,21.57,44.72,19.66h0l20-47.25"/>
      <path class="cls-7" d="M112,208s13.64,76.43,60.89,95.14c0,0,44.72,9.83,62.16-8.56,0,0,40.27-42.5,45.35-72.62L153.24,201.34l-24.42-7.92Z"/>
      <path class="cls-8" d="M120.89,216.57s13,52,46.94,71.67l14.27-47.57-45-33.3"/>
      <path class="cls-9" d="M143.09,37.07s-32.35,16.81-47.25,57.4c0,0-27.59,53.28,11.73,109.41,0,0,28.54,31.4,36.16,40.28a79.19,79.19,0,0,1,6.34,12s8.88,19.34,15.86,31.71c0,0,6.65,14.59,8.87,43.13,0,0,4.13,40.91,1.27,59.3,0,0-2.22,4.76,3.81,8.57,0,0,14.9,6.66,28.54,5.39,0,0,16.81-.64,19.66-6.66,0,0,4.13-2.86,5.08-25.37,0,0,1.9-60.57,4.12-73.58,0,0-.32-16.17,23.47-50.42,0,0,45-37.42,55.49-70.09,0,0,22.2-36.47-8.87-92,0,0-24.11-53.6-79-61.84C228.4,24.39,180.51,16.14,143.09,37.07Z"/>
      <path class="cls-10" d="M138.33,101.77S118.67,116,112.65,137.92c0,0-9.83,20.29,13.32,28.86a38.35,38.35,0,0,0,32.34-.32s20-4.76,15.23-37.1c0,0-2.86-23.16-15.86-27C157.68,102.4,149.43,96.37,138.33,101.77Z"/>
      <circle class="cls-11" cx="145.81" cy="144.99" r="16"/>
      <path class="cls-10" d="M247.43,107.16s-9.52,8.56-9.2,25.05c0,0-.32,21.88,4.76,26a41.34,41.34,0,0,0,32,7.3s21.88-4.12,23.15-16.81c0,0,2.54-12.37-7-25.37,0,0-11.42-17.76-20.29-22.2C270.9,101.13,255.36,95.42,247.43,107.16Z"/>
      <circle cx="145.43" cy="144.97" r="10.47"/>
      <circle class="cls-10" cx="153.64" cy="138.31" r="4.88"/>
      <circle class="cls-11" cx="265.05" cy="144.99" r="16"/>
      <circle cx="264.67" cy="144.97" r="10.47"/>
      <circle class="cls-10" cx="272.88" cy="138.31" r="4.88"/>
      <path class="cls-12" d="M122.48,95.26s25.21-31.15,53,0C175.52,95.26,152.45,39.85,122.48,95.26Z"/>
      <path class="cls-12" d="M287.78,95.26s-25.21-31.15-53,0C234.74,95.26,257.81,39.85,287.78,95.26Z"/>
      <path class="cls-10" d="M125.81,207.53S112.49,219.66,113,234.64c0,0-.95,11.66-1.66,20,0,0-2.14,31.16-35.44,54.47,0,0,22.6-3.33,45.67-23.55,0,0,26.16-23.07,30.92-50.18,0,0,5.71-21.65-6.66-26.88C145.79,208.48,133.66,202.06,125.81,207.53Z"/>
      <path class="cls-10" d="M275.65,207.16s14.87,10.16,16.48,25.07c0,0,2.56,11.41,4.42,19.55,0,0,6.45,30.56,42.66,49,0,0-22.84-.16-48.49-17,0,0-29.12-19.22-37.59-45.41,0,0-8.66-20.64,2.87-27.54C256,210.87,267.12,202.83,275.65,207.16Z"/>
    </g>
  </g>
</svg>
