<svg xmlns="http://www.w3.org/2000/svg" viewBox="0 0 461.01 421.44">
  <defs>
    <style>
      .cls-1 {
        fill: #006d7b;
      }

      .cls-2 {
        fill: #afc9cd;
      }

      .cls-3 {
        fill: #2a8793;
      }

      .cls-4 {
        fill: #438b94;
      }

      .cls-5 {
        fill: #4a99a3;
      }

      .cls-6 {
        fill: #ffcbff;
      }

      .cls-7 {
        fill: #067280;
      }

      .cls-8 {
        fill: #3c3c3c;
      }

      .cls-9 {
        fill: #4fa4af;
      }

      .cls-10 {
        fill: #fff;
      }

      .cls-11 {
        fill: #0e5d67;
      }

      .cls-12 {
        fill: #125c66;
      }
    </style>
  </defs>
  <title>p15</title>
  <g id="character">
    <g>
      <g>
        <path class="cls-1" d="M135.53,280.48s1.95,30.7,3.9,43.37c0,0-11.21,27.77-6.33,41.42,0,0-13.65,12.18-13.65,23.87,0,0-3.08,6.82,11.86,14,0,0,38,14,56.52.33,0,0,7.48-.33,1.95-35.41,0,0,3.58-20.79.65-31.19l1.63-21.44s5.19-18.52-.33-27C191.73,288.44,162.5,255.3,135.53,280.48Z"/>
        <path class="cls-2" d="M170.13,378.26s-7.31,1.79-10.56,18.19c0,0-1.95,6.17,3.58,9.1,0,0,8.28,2.76,11,.48,0,0,5.52-2.76,4.55-11.53,0,0,.65-12.18-4.39-15.92A7.08,7.08,0,0,0,170.13,378.26Z"/>
        <path class="cls-2" d="M148.85,376s-9.09,7.47-10.23,17.86c0,0-1.14,6.17,3.08,8.29,0,0,8.45,3.41,11.86-.65,0,0,7-6,4.39-21,0,0-.81-4.54-4.71-5.68A8.16,8.16,0,0,0,148.85,376Z"/>
        <path class="cls-2" d="M138.62,371.76s2.43.81.81,8.45c0,0-.65,12.34-5,14.94,0,0-3.42,3.58-10.56.65,0,0-5.85-3.41-.49-13.48,0,0,3.9-8.45,10.23-10.72C133.58,371.6,136.83,369.49,138.62,371.76Z"/>
      </g>
      <g>
        <path class="cls-1" d="M263.12,286s-5.56,30.26-9,42.61c0,0,7.86,28.9,1.41,41.88,0,0,12.11,13.7,10.73,25.32,0,0,2.26,7.13-13.42,12.47,0,0-39.39,9.39-56.17-6.34,0,0-7.38-1.21,2.24-35.4,0,0-1.1-21.06,3-31l.92-21.48s-3-19,3.5-26.74C206.37,287.27,239.31,257.81,263.12,286Z"/>
        <path class="cls-2" d="M217.23,379s7.05,2.64,8.34,19.31c0,0,1.21,6.36-4.62,8.61,0,0-8.55,1.77-11-.81,0,0-5.15-3.4-3.15-12,0,0,.79-12.18,6.23-15.29A7.1,7.1,0,0,1,217.23,379Z"/>
        <path class="cls-2" d="M238.63,379.26s8.15,8.5,8.05,18.95c0,0,.41,6.27-4,7.87,0,0-8.79,2.39-11.7-2.05,0,0-6.22-6.79-1.88-21.32,0,0,1.34-4.42,5.35-5.09A8.08,8.08,0,0,1,238.63,379.26Z"/>
        <path class="cls-2" d="M249.29,376.28s-2.52.52-1.8,8.29c0,0-.81,12.33,3.23,15.43,0,0,3,3.95,10.41,1.89,0,0,6.21-2.7,2.08-13.33,0,0-2.88-8.85-8.9-11.85C254.31,376.71,251.33,374.23,249.29,376.28Z"/>
      </g>
      <g>
        <path class="cls-3" d="M88.43,292.5s1.95,30.7,3.9,43.37c0,0-11.21,27.77-6.34,41.41,0,0-13.64,12.19-13.64,23.88,0,0-3.09,6.82,11.86,14,0,0,38,14,56.52.33,0,0,7.47-.33,2-35.41,0,0,3.57-20.79.65-31.19L145,327.42s5.2-18.52-.32-27C144.63,300.46,115.39,267.32,88.43,292.5Z"/>
        <path class="cls-2" d="M123,390.28s-7.31,1.79-10.56,18.19c0,0-2,6.17,3.57,9.1,0,0,8.28,2.76,11,.48,0,0,5.52-2.76,4.54-11.53,0,0,.65-12.18-4.38-15.92A7.09,7.09,0,0,0,123,390.28Z"/>
        <path class="cls-2" d="M101.75,388s-9.1,7.47-10.24,17.86c0,0-1.13,6.17,3.09,8.29,0,0,8.45,3.41,11.86-.65,0,0,7-6,4.38-21,0,0-.81-4.54-4.71-5.68A8.13,8.13,0,0,0,101.75,388Z"/>
        <path class="cls-2" d="M91.51,383.78s2.44.81.82,8.45c0,0-.65,12.34-5,14.94,0,0-3.41,3.58-10.56.65,0,0-5.84-3.41-.48-13.48,0,0,3.89-8.45,10.23-10.72C86.48,383.62,89.73,381.51,91.51,383.78Z"/>
      </g>
      <g>
        <path class="cls-3" d="M331.42,231.79s30.73,1.26,43.44,2.92c0,0,27.52-11.83,41.27-7.26,0,0,11.87-13.91,23.56-14.18,0,0,6.75-3.24,14.23,11.54,0,0,14.82,37.69,1.6,56.51,0,0-.16,7.47-35.36,2.74,0,0-20.7,4-31.16,1.35l-21.4,2.11s-50.13,7.28-58.7,1.94C308.9,289.46,306.85,259.31,331.42,231.79Z"/>
        <path class="cls-2" d="M430,264.18s1.62-7.35,17.95-11c0,0,6.13-2.09,9.17,3.37,0,0,2.95,8.22.74,11,0,0-2.64,5.58-11.43,4.8,0,0-12.16.93-16-4A7.1,7.1,0,0,1,430,264.18Z"/>
        <path class="cls-2" d="M427.2,243s7.26-9.26,17.63-10.63c0,0,6.15-1.28,8.35,2.9,0,0,3.6,8.37-.38,11.87,0,0-5.85,7.11-20.85,4.85,0,0-4.57-.71-5.79-4.58A8.17,8.17,0,0,1,427.2,243Z"/>
        <path class="cls-2" d="M422.75,232.82s.86,2.42,8.46.63c0,0,12.33-.93,14.83-5.37,0,0,3.49-3.49.41-10.57,0,0-3.54-5.77-13.49-.19,0,0-8.36,4.09-10.49,10.47C422.47,227.79,420.43,231.09,422.75,232.82Z"/>
      </g>
      <path class="cls-4" d="M299.91,30.83S260-2.31,205.38.13c0,0-62.38-1.95-89.66,32.65,0,0-91.61,69.19-61.4,205.63,0,0,10.72,81.86,124.42,114.35,0,0,45.48,11,83.16-9.1,0,0,92.26-48.73,95.51-147.48C357.41,196.18,366.5,92.87,299.91,30.83Z"/>
      <path class="cls-5" d="M291.14,243.28s38.49,10.24,71.14-6.82c0,0,65.3-37.52,72.12-90.63,0,0-2.92-46.3-40.93-98.44,0,0-29.73-33.13-80.89-21.92,0,0-36.06,6.82-45.32,13.15L216.58,164.34l30.7,60.43Z"/>
      <path class="cls-6" d="M273.6,42s26.8-12.18,56.52-10.23c0,0,24.36-2.92,47.75,19,0,0,33.63,41.9,40,93.55,0,0-11.69,59.94-77,89.18,0,0-37.52,14.13-82.84-10.72Z"/>
      <path class="cls-5" d="M147.88,38.62s-20.14-10.39-28.59-15.26c0,0-21.77-13-46.45-.33,0,0-39.64,16.57-70.17,82.19,0,0-7.48,11.37,2.6,39.31,0,0,19.16,57.82,46.12,73.09,0,0,44.83,30.86,66.6,31.51l3.25-1.3,28.91-7.8,30.21-65.94L168,51.29Z"/>
      <path class="cls-6" d="M142.68,41.22s-13.32-9.09-21.77-12c0,0-19.49-8.44-43.53,4.55,0,0-42.88,25.34-60.09,74.07,0,0-5.85,11.37.32,28.91,0,0,12.34,46.78,36.71,69.84a94.34,94.34,0,0,0,23.39,14.62s31.83,22.09,45.8,20.14h0L144,192.93"/>
      <path class="cls-7" d="M114.74,213.07s14,78.29,62.37,97.46c0,0,45.81,10.07,63.68-8.77,0,0,41.25-43.53,46.45-74.4L157,206.25l-25-8.12Z"/>
      <path class="cls-8" d="M123.84,221.84s13.32,53.28,48.08,73.42l14.61-48.73-46.12-34.11"/>
      <path class="cls-9" d="M146.58,38s-33.14,17.22-48.41,58.8c0,0-28.26,54.58,12,112.08,0,0,29.24,32.16,37,41.25a81.07,81.07,0,0,1,6.49,12.35s9.1,19.81,16.25,32.48c0,0,6.82,14.95,9.09,44.18,0,0,4.23,41.91,1.3,60.75,0,0-2.27,4.88,3.9,8.77,0,0,15.27,6.83,29.24,5.53,0,0,17.21-.65,20.14-6.83,0,0,4.22-2.92,5.2-26,0,0,1.95-62.05,4.22-75.37,0,0-.33-16.57,24-51.65,0,0,46.13-38.34,56.85-71.8,0,0,22.74-37.35-9.1-94.2,0,0-24.69-54.9-80.89-63.35C234,25,184.91,16.53,146.58,38Z"/>
      <path class="cls-10" d="M141.7,104.24s-20.14,14.62-26.31,37c0,0-10.07,20.79,13.65,29.56a39.29,39.29,0,0,0,33.13-.33s20.47-4.87,15.59-38c0,0-2.92-23.72-16.24-27.62C161.52,104.89,153.07,98.72,141.7,104.24Z"/>
      <circle class="cls-11" cx="149.36" cy="148.53" r="16.38"/>
      <path class="cls-10" d="M253.45,109.77s-9.74,8.77-9.42,25.66c0,0-.32,22.42,4.88,26.64a42.39,42.39,0,0,0,32.81,7.47s22.41-4.22,23.71-17.22c0,0,2.6-12.67-7.15-26,0,0-11.69-18.19-20.79-22.74C277.49,103.59,261.58,97.75,253.45,109.77Z"/>
      <circle cx="148.97" cy="148.51" r="10.72"/>
      <circle class="cls-10" cx="157.38" cy="141.68" r="4.99"/>
      <circle class="cls-11" cx="271.5" cy="148.53" r="16.38"/>
      <circle cx="271.12" cy="148.51" r="10.72"/>
      <circle class="cls-10" cx="279.52" cy="141.68" r="4.99"/>
      <path class="cls-12" d="M125.46,97.58s25.83-31.91,54.33,0C179.79,97.58,156.16,40.82,125.46,97.58Z"/>
      <path class="cls-12" d="M294.79,97.58s-25.82-31.91-54.33,0C240.46,97.58,264.09,40.82,294.79,97.58Z"/>
      <path class="cls-10" d="M128.87,212.58S115.23,225,115.72,240.36c0,0-1,11.94-1.71,20.46,0,0-2.19,31.92-36.3,55.8,0,0,23.14-3.41,46.78-24.12,0,0,26.8-23.64,31.67-51.41,0,0,5.85-22.17-6.82-27.53C149.34,213.56,136.91,207,128.87,212.58Z"/>
      <path class="cls-10" d="M282.36,212.2s15.24,10.41,16.89,25.68c0,0,2.62,11.69,4.53,20,0,0,6.6,31.31,43.69,50.22,0,0-23.39-.17-49.67-17.39,0,0-29.82-19.69-38.5-46.52,0,0-8.87-21.15,2.93-28.21C262.23,216,273.62,207.77,282.36,212.2Z"/>
    </g>
  </g>
</svg>
