<svg xmlns="http://www.w3.org/2000/svg" viewBox="0 0 260 168"><defs><style>.cls-1{fill:#8c4d21;}.cls-2{fill:#f9a61a;}.cls-3,.cls-8{fill:#fff;}.cls-4{fill:none;}.cls-5{fill:#7c431c;}.cls-6{fill:#663819;}.cls-7{fill:#fffce6;}.cls-8{stroke:#8c4d21;stroke-miterlimit:10;stroke-width:0.7px;}.cls-9{fill:#ffcf48;}.cls-10{fill:#ce842c;}</style></defs><g id="_3" data-name="3"><path class="cls-1" d="M98.23,96.35s3.44-11.67,2.92-22c0,0-1.55-5.51,4.37-9S138,51.75,140.37,42.74c0,0,5.37,11.48-10.13,18.59,0,0-6.69,5.33-7.27,16.55s-10.91,15.3-15.29,18.06C107.68,95.94,102.3,100.45,98.23,96.35Z"/><path class="cls-1" d="M113.52,66.9s23.6-7.72,28.1-12.07c0,0,3.57,11.16-26.08,18.31C115.54,73.14,112.19,73.09,113.52,66.9Z"/><path class="cls-1" d="M111.53,74.11s22-5.91,26.39-9.68c0,0,2.72,10.43-24.85,15.5C113.07,79.93,110,79.72,111.53,74.11Z"/><path class="cls-1" d="M111.78,81s18.65-5,22.33-8.21c0,0,2.32,8.82-21,13.14C113.08,86,110.48,85.77,111.78,81Z"/><path class="cls-1" d="M108.88,87s16.65-3.2,20.08-5.75c0,0,1.46,7.87-19.25,10.15C109.71,91.43,107.45,91.11,108.88,87Z"/><path class="cls-1" d="M78.28,96.86s-5.56-10.83-7-21c0,0,.48-5.7-6-8S30.93,60.45,26.88,52.05c0,0-3.13,12.28,13.42,16.38,0,0,7.57,4,10.23,14.89s13.57,13,18.39,14.89C68.92,98.21,75,101.65,78.28,96.86Z"/><path class="cls-1" d="M57.76,70.78s-24.62-3.19-29.85-6.62c0,0-1.43,11.63,29,13.12C57,77.28,60.23,76.61,57.76,70.78Z"/><path class="cls-1" d="M61.06,77.49s-22.75-1.7-27.72-4.59c0,0-.73,10.75,27.3,10.6C60.64,83.5,63.62,82.72,61.06,77.49Z"/><path class="cls-1" d="M62.11,84.32s-19.26-1.45-23.47-3.9c0,0-.63,9.1,23.11,9C61.75,89.41,64.27,88.75,62.11,84.32Z"/><path class="cls-1" d="M66.08,89.69s-17,0-20.8-1.91c0,0,0,8,20.8,6.38C66.08,94.16,68.25,93.43,66.08,89.69Z"/><path class="cls-1" d="M106.56,107c-3.09-20.16-5.43-26.79-5.43-26.79C98.35,78,86.88,81.71,86.29,81.9c-.6-.17-12.21-3.42-14.9-1.1,0,0-2.06,6.72-4.33,27s10,25.87,20.26,25.68h.05C97.62,133.24,109.66,127.11,106.56,107Z"/><path class="cls-2" d="M91.32,139.53c.44,1.48-.08,5.18-.08,5.18C88.86,144,89,147,89.56,147.15s1,0,1.16-.66c.56-1,2.13-.56,2.12-.06s-.32,1.86,1.43,1.76A1.91,1.91,0,0,0,96,146.64a2.45,2.45,0,0,0-1.34-2.7,1.83,1.83,0,0,0-1.49-.09s-.92-.55,0-3.29Z"/><path class="cls-3" d="M94.47,148.16a2.32,2.32,0,0,1-2.37.37,2.29,2.29,0,0,0,.81-1A1.37,1.37,0,0,0,94.47,148.16Z"/><path class="cls-2" d="M92.4,144.58a1.11,1.11,0,0,1,.79-.73,1.37,1.37,0,0,0-1.31,1"/><path class="cls-4" d="M95.33,145.19a1.87,1.87,0,0,1-1.5.35"/><path class="cls-4" d="M95,145a1.35,1.35,0,0,0-.86.24"/><path class="cls-4" d="M92.8,142.26a.66.66,0,0,1-.58.09"/><path class="cls-4" d="M92.8,142.77a.66.66,0,0,1-.58.09"/><path class="cls-5" d="M90,126.78a25,25,0,0,0-.74,8c.22,2.19,1,5.58,3.08,6.09s3.6-2.2,3.6-2.2,4.17-5.27,4.54-9.41c0,0,1.34-5.06-3.35-6.37S90,126.78,90,126.78Z"/><path class="cls-3" d="M91.05,147.23a2.33,2.33,0,0,1-2.35-.46,2.18,2.18,0,0,0,1.08-.63A1.37,1.37,0,0,0,91.05,147.23Z"/><path class="cls-2" d="M91.6,142.94a2,2,0,0,1,1.29,1.22c.22.89-.35,3.7-2.56,2.85-1.21-.6-.61-2.36-.61-2.36S90.29,142.48,91.6,142.94Z"/><path class="cls-4" d="M92.36,145.77a1.84,1.84,0,0,1-1.12-1.06"/><path class="cls-4" d="M92.32,145.36a1.34,1.34,0,0,0-.67-.59"/><path class="cls-2" d="M82.79,137.33c-.41,1.49.18,5.18.18,5.18,2.36-.76,2.33,2.2,1.71,2.41s-1,.07-1.16-.64c-.58-.94-2.14-.53-2.13,0s.36,1.85-1.4,1.78a1.92,1.92,0,0,1-1.78-1.52,2.45,2.45,0,0,1,1.3-2.72,1.85,1.85,0,0,1,1.49-.12s.91-.57-.06-3.29Z"/><path class="cls-3" d="M79.79,146a2.35,2.35,0,0,0,2.38.32,2.31,2.31,0,0,1-.83-1A1.37,1.37,0,0,1,79.79,146Z"/><path class="cls-2" d="M81.8,142.4a1.11,1.11,0,0,0-.8-.72,1.39,1.39,0,0,1,1.33,1"/><path class="cls-4" d="M78.89,143.05a1.82,1.82,0,0,0,1.5.33"/><path class="cls-4" d="M79.24,142.85a1.35,1.35,0,0,1,.87.22"/><path class="cls-4" d="M81.36,140.08a.65.65,0,0,0,.58.08"/><path class="cls-4" d="M81.37,140.59a.65.65,0,0,0,.58.08"/><path class="cls-5" d="M83.94,124.56a25,25,0,0,1,.88,8c-.18,2.19-.91,5.59-3,6.13s-3.64-2.13-3.64-2.13-4.26-5.2-4.71-9.33c0,0-1.42-5,3.25-6.43S83.94,124.56,83.94,124.56Z"/><path class="cls-3" d="M83.2,145a2.34,2.34,0,0,0,2.34-.49,2.34,2.34,0,0,1-1.1-.62A1.36,1.36,0,0,1,83.2,145Z"/><path class="cls-2" d="M82.58,140.74s-1.08.36-1.28,1.25.41,3.69,2.61,2.8c1.21-.62.58-2.37.58-2.37S83.88,140.26,82.58,140.74Z"/><path class="cls-4" d="M81.87,143.59a1.84,1.84,0,0,0,1.1-1.08"/><path class="cls-4" d="M81.89,143.17a1.38,1.38,0,0,1,.67-.6"/><path class="cls-6" d="M72.4,100.69a5.82,5.82,0,0,0,.16,2,1,1,0,0,0,1.3.84,4.91,4.91,0,0,0,1.69-.94,17.45,17.45,0,0,0,1.55-1.32l.59-.52.22.8a7.91,7.91,0,0,0,.8,2c.34.6.83,1,1.21.94a2.6,2.6,0,0,0,1.41-1,12.85,12.85,0,0,0,1.21-1.8l.63-1.1.65,1.13a8.17,8.17,0,0,0,1.45,1.86,2.52,2.52,0,0,0,1.75.82,2.49,2.49,0,0,0,1.6-1c.21-.34.45-.64.64-1l.55-1.1.57-1.14.71,1a10.7,10.7,0,0,0,1.5,1.73,3.58,3.58,0,0,0,1.73,1c.51.09,1-.29,1.32-.94a8.72,8.72,0,0,0,.72-2.18l.26-1.13.59,1a10.42,10.42,0,0,0,1.1,1.47c.38.43.9.9,1.31.87.19,0,.38-.22.5-.49a3.39,3.39,0,0,0,.26-.87,14.92,14.92,0,0,0,.21-1.9,11.29,11.29,0,0,1,.08,1.93,3.81,3.81,0,0,1-.17,1,1.22,1.22,0,0,1-.76.86,1.63,1.63,0,0,1-1.14-.24,5.23,5.23,0,0,1-.83-.61,10.57,10.57,0,0,1-1.33-1.5l.84-.18a8.58,8.58,0,0,1-.64,2.52,3.43,3.43,0,0,1-.86,1.2,2.24,2.24,0,0,1-1.56.52,4.59,4.59,0,0,1-2.54-1.24A12,12,0,0,1,89.89,102l1.27-.13-.6,1.24c-.22.41-.5.8-.76,1.2l-.51.56a3.25,3.25,0,0,1-.26.27l-.33.23a2.58,2.58,0,0,1-.73.4,2.28,2.28,0,0,1-.85.19,4,4,0,0,1-2.88-1.26,9.46,9.46,0,0,1-1.72-2.26l1.28,0a13.87,13.87,0,0,1-1.44,2,5.39,5.39,0,0,1-1,.87,2.73,2.73,0,0,1-1.41.53,2.17,2.17,0,0,1-1.49-.58,3.87,3.87,0,0,1-.8-1.09,8.32,8.32,0,0,1-.76-2.34l.81.27A19.81,19.81,0,0,1,76,103.31a5.29,5.29,0,0,1-2.06.83,1.42,1.42,0,0,1-1.16-.31,1.62,1.62,0,0,1-.53-1A5.38,5.38,0,0,1,72.4,100.69Z"/><path class="cls-7" d="M103.1,67.59c1.09,14-5.49,20.88-14.22,21.56s-16.3-5.1-17.39-19.08,3.87-19.14,14.34-20C96.68,49.26,102,53.61,103.1,67.59Z"/><path class="cls-7" d="M71.36,67.51S68.23,86.07,65.5,88.09c0,0,1.67,1.31,4.24-1.18,0,0-1.4,8.31,5.87,2.56,0,0-.64,5.71,5.55,1.61,0,0,2.87,4.36,5.46-1,0,0,4.57,6,5.92.26,0,0,7.49,4.84,6.16-1.32,0,0,8.17,4.3,4-3.33,0,0,4.49,3.51,8.27.92,0,0-4.83-1.67-8.65-24.26L83.72,60.76Z"/><path class="cls-1" d="M78.31,60.1s-3.33.19-4.58-.37c0,0,.51,1.88,3.64,2S78.31,60.1,78.31,60.1Z"/><path class="cls-1" d="M77.31,61s-3.32.19-4.58-.37c0,0,.51,1.88,3.64,2S77.31,61,77.31,61Z"/><circle class="cls-8" cx="78.76" cy="65.38" r="5.03" transform="translate(-3.76 125.96) rotate(-75.98)"/><path class="cls-1" d="M94.82,58.81s3.31-.33,4.46-1.08c0,0-.21,1.94-3.28,2.54S94.82,58.81,94.82,58.81Z"/><path class="cls-1" d="M95.94,59.52s3.31-.33,4.47-1.07c0,0-.22,1.93-3.29,2.53S95.94,59.52,95.94,59.52Z"/><circle class="cls-8" cx="95.19" cy="64.1" r="5.03" transform="translate(9.94 140.93) rotate(-75.98)"/><path class="cls-9" d="M101.6,72.31s.11-.85-2.69-1.23-6.88.65-8.49-1.51-3.2-1.92-3.34-1.91-1.79.12-3,2.41-5.45,2-8.16,2.8-2.46,1.64-2.46,1.64-1.15,2.2,5.2,2.49a12.67,12.67,0,0,1,9.55,5.27v0h0v0a12.65,12.65,0,0,1,8.61-6.69C103.08,74.3,101.6,72.31,101.6,72.31Z"/><ellipse class="cls-10" cx="85.03" cy="70.05" rx="0.94" ry="0.28" transform="translate(-22.82 92.55) rotate(-51.27)"/><ellipse class="cls-10" cx="89.42" cy="69.71" rx="0.28" ry="0.94" transform="translate(-22.33 88.89) rotate(-47.68)"/><path d="M78.59,63.26a3,3,0,0,0-1.12.32,1.07,1.07,0,0,1-.44,2,1,1,0,0,1-1-.5,3,3,0,1,0,2.54-1.82Z"/><path d="M95,61.94a2.84,2.84,0,0,0-1.13.32,1,1,0,0,1,.54.85,1.07,1.07,0,0,1-2,.66,3,3,0,0,0-.23,1.43A3,3,0,1,0,95,61.94Z"/><path class="cls-7" d="M87.11,51s1.12-3.87-1.58-4.66-3.35,2.08-3.35,2.08S81,46,84.82,44.94s5.84,4.46,4.52,6.57Z"/></g></svg>