<svg xmlns="http://www.w3.org/2000/svg" viewBox="0 0 260 168"><defs><style>.cls-1{fill:#8c4d21;}.cls-2{fill:#f9a61a;}.cls-3,.cls-8{fill:#fff;}.cls-4{fill:none;}.cls-5{fill:#7c431c;}.cls-6{fill:#663819;}.cls-7{fill:#fffce6;}.cls-8{stroke:#8c4d21;stroke-miterlimit:10;stroke-width:0.7px;}.cls-9{fill:#ffcf48;}.cls-10{fill:#ce842c;}</style></defs><g id="_4" data-name="4"><path class="cls-1" d="M104.61,102.09s10.1-6.78,16.28-15c0,0,2.33-5.23,9.1-4.11s33.68,10.22,41.28,4.83c0,0-3.2,12.26-19.66,7.84,0,0-8.56-.18-16.17,8.07s-18.17,4.81-23.3,4.13C112.14,107.81,105.12,107.85,104.61,102.09Z"/><path class="cls-1" d="M135.19,89.21s23.08,9.13,29.32,8.66c0,0-4.38,10.87-31.76-2.58C132.75,95.29,130.21,93.12,135.19,89.21Z"/><path class="cls-1" d="M129.05,93.48s20.73,9.53,26.48,9.41c0,0-4.56,9.76-29-4C126.51,98.94,124.29,96.82,129.05,93.48Z"/><path class="cls-1" d="M124.83,99s17.56,8.06,22.42,8c0,0-3.85,8.27-24.57-3.32C122.68,103.58,120.79,101.78,124.83,99Z"/><path class="cls-1" d="M118.76,101.73s14.85,8.18,19.12,8.39c0,0-3.91,7-21.29-4.48C116.59,105.64,115.05,104,118.76,101.73Z"/><path class="cls-1" d="M84.6,103s-10.85-5.51-18-13c0,0-3-4.91-9.53-3S24.9,101.25,16.7,96.82c0,0,4.65,11.79,20.47,5.4,0,0,8.47-1.21,17,6.06s18.62,2.58,23.63,1.28C77.82,109.56,84.79,108.75,84.6,103Z"/><path class="cls-1" d="M52.69,93.88S30.88,105.74,24.63,106c0,0,5.66,10.26,31.21-6.4C55.84,99.63,58.11,97.16,52.69,93.88Z"/><path class="cls-1" d="M59.3,97.38s-19.43,12-25.15,12.55c0,0,5.71,9.13,28.33-7.43C62.48,102.5,64.43,100.12,59.3,97.38Z"/><path class="cls-1" d="M64.15,102.3s-16.45,10.12-21.3,10.61c0,0,4.83,7.74,24-6.28C66.84,106.63,68.5,104.62,64.15,102.3Z"/><path class="cls-1" d="M70.51,104.32s-13.75,9.92-18,10.65c0,0,4.72,6.46,20.59-7C73.14,107.94,74.46,106.08,70.51,104.32Z"/><path class="cls-1" d="M113.08,115.42c-3.37-20.12-5.79-26.71-5.79-26.71-2.81-2.18-14.22,1.7-14.82,1.9-.6-.16-12.25-3.26-14.91-.9,0,0-2,6.74-4,27s10.36,25.73,20.6,25.41h0C104.47,141.79,116.44,135.51,113.08,115.42Z"/><path class="cls-2" d="M109.31,148.52c1.31.82,3.38,3.94,3.38,3.94-2.25,1-.22,3.19.37,2.93s.79-.63.42-1.26c-.21-1.08,1.22-1.84,1.55-1.46s1,1.6,2.24.37a1.92,1.92,0,0,0,.27-2.33,2.45,2.45,0,0,0-2.79-1.12,1.84,1.84,0,0,0-1.18.92s-1,.2-2.18-2.45Z"/><path class="cls-3" d="M117.4,152.89a2.32,2.32,0,0,1-1.53,1.84,2.24,2.24,0,0,0,0-1.25A1.37,1.37,0,0,0,117.4,152.89Z"/><path class="cls-2" d="M113.47,151.59a1.11,1.11,0,0,1,.1-1.08,1.38,1.38,0,0,0-.29,1.64"/><path class="cls-4" d="M116.06,150.09a1.84,1.84,0,0,1-.89,1.26"/><path class="cls-4" d="M115.65,150.18a1.38,1.38,0,0,0-.48.75"/><path class="cls-4" d="M112.23,149.58a.64.64,0,0,1-.38.45"/><path class="cls-4" d="M112.56,150a.62.62,0,0,1-.37.45"/><path class="cls-5" d="M99.81,139.91a25,25,0,0,0,4.78,6.5c1.62,1.49,4.47,3.49,6.35,2.5s1.23-4,1.23-4-.39-6.71-2.86-10.05c0,0-2.37-4.66-6.74-2.53S99.81,139.91,99.81,139.91Z"/><path class="cls-3" d="M114.22,154.46a2.33,2.33,0,0,1-2.06,1.22,2.24,2.24,0,0,0,.39-1.19A1.37,1.37,0,0,0,114.22,154.46Z"/><path class="cls-2" d="M111.78,150.89a2,2,0,0,1,1.78.06c.75.52,2.2,3,0,3.82-1.31.37-2-1.35-2-1.35S110.5,151.42,111.78,150.89Z"/><path class="cls-4" d="M114.23,152.5a1.85,1.85,0,0,1-1.54,0"/><path class="cls-4" d="M113.93,152.21a1.41,1.41,0,0,0-.9,0"/><path class="cls-2" d="M83.71,147.4c-.95,1.22-1.8,4.86-1.8,4.86,2.47.19,1.32,2.92.67,2.88s-1-.32-.83-1c-.18-1.09-1.79-1.29-2-.82s-.38,1.84-2,1.12a1.93,1.93,0,0,1-1.06-2.09,2.46,2.46,0,0,1,2.23-2,1.85,1.85,0,0,1,1.42.45s1.06-.18,1.2-3.06Z"/><path class="cls-3" d="M77.64,154.3a2.35,2.35,0,0,0,2.07,1.2,2.22,2.22,0,0,1-.4-1.19A1.37,1.37,0,0,1,77.64,154.3Z"/><path class="cls-2" d="M80.87,151.72a1.11,1.11,0,0,0-.47-1,1.4,1.4,0,0,1,.85,1.44"/><path class="cls-4" d="M77.93,151.21a1.82,1.82,0,0,0,1.26.87"/><path class="cls-4" d="M78.34,151.16a1.32,1.32,0,0,1,.71.53"/><path class="cls-4" d="M81.34,149.41a.67.67,0,0,0,.51.29"/><path class="cls-4" d="M81.16,149.88a.64.64,0,0,0,.5.29"/><path class="cls-5" d="M89.63,136a25.07,25.07,0,0,1-2.23,7.75c-1,2-3,4.83-5.08,4.55S79.76,145,79.76,145s-2-6.43-.81-10.42c0,0,.59-5.19,5.44-4.72S89.63,136,89.63,136Z"/><path class="cls-3" d="M81.17,154.67a2.32,2.32,0,0,0,2.35.43,2.26,2.26,0,0,1-.78-1A1.36,1.36,0,0,1,81.17,154.67Z"/><path class="cls-2" d="M82.22,150.47a2,2,0,0,0-1.65.68c-.53.75-1,3.57,1.34,3.57,1.35-.11,1.44-2,1.44-2S83.6,150.52,82.22,150.47Z"/><path class="cls-4" d="M80.48,152.84a1.84,1.84,0,0,0,1.43-.58"/><path class="cls-4" d="M80.66,152.46a1.4,1.4,0,0,1,.84-.3"/><path class="cls-6" d="M78.83,109.58a5.74,5.74,0,0,0,.19,2,1,1,0,0,0,1.31.83,5.1,5.1,0,0,0,1.68-1c.54-.39,1-.89,1.53-1.34l.58-.53.23.79a8.21,8.21,0,0,0,.83,2c.35.6.85,1,1.22.92a2.65,2.65,0,0,0,1.4-1A12.92,12.92,0,0,0,89,110.44l.62-1.1.66,1.11a8.3,8.3,0,0,0,1.48,1.85,2.57,2.57,0,0,0,1.76.8A2.52,2.52,0,0,0,95.08,112c.21-.33.44-.64.64-1l.53-1.11.55-1.15.72,1A11.77,11.77,0,0,0,99,111.47a3.63,3.63,0,0,0,1.75,1c.51.08,1-.3,1.31-1a9.06,9.06,0,0,0,.7-2.19l.24-1.13.6.94a11.1,11.1,0,0,0,1.12,1.46c.38.42.91.89,1.32.85a.74.74,0,0,0,.49-.49,3.58,3.58,0,0,0,.25-.88,14.91,14.91,0,0,0,.18-1.9,10.32,10.32,0,0,1,.11,1.93,3.79,3.79,0,0,1-.16,1,1.18,1.18,0,0,1-.75.86,1.52,1.52,0,0,1-1.13-.22,4.38,4.38,0,0,1-.84-.6,11.13,11.13,0,0,1-1.36-1.47l.84-.2a8.62,8.62,0,0,1-.6,2.53,3.53,3.53,0,0,1-.84,1.21,2.21,2.21,0,0,1-1.56.54,4.65,4.65,0,0,1-2.56-1.2,12.94,12.94,0,0,1-1.81-1.89l1.27-.15L97,111.73c-.22.41-.5.81-.75,1.21l-.5.56-.26.28-.33.24a2.45,2.45,0,0,1-.73.4,2.21,2.21,0,0,1-.84.21,4,4,0,0,1-2.89-1.22A9.53,9.53,0,0,1,89,111.16l1.28,0a13.87,13.87,0,0,1-1.42,2,6.19,6.19,0,0,1-1,.88,2.71,2.71,0,0,1-1.4.55A2.18,2.18,0,0,1,85,114a3.82,3.82,0,0,1-.81-1.08,8,8,0,0,1-.79-2.33l.81.26a19.71,19.71,0,0,1-1.73,1.27,5.29,5.29,0,0,1-2,.86,1.47,1.47,0,0,1-1.17-.29,1.63,1.63,0,0,1-.54-1A5.39,5.39,0,0,1,78.83,109.58Z"/><path class="cls-7" d="M109.1,76.08c1.27,14-5.22,21-13.94,21.74S78.8,92.94,77.52,79,81.14,59.78,91.6,58.82C102.44,57.83,107.82,62.11,109.1,76.08Z"/><path class="cls-7" d="M77.36,76.41S74.47,95,71.76,97.07c0,0,1.69,1.29,4.24-1.23,0,0-1.29,8.32,5.89,2.47,0,0-.56,5.73,5.57,1.55,0,0,2.93,4.31,5.45-1.11,0,0,4.65,6,5.93.19,0,0,7.55,4.73,6.14-1.41,0,0,8.23,4.19,3.91-3.37,0,0,4.54,3.44,8.28.81,0,0-4.85-1.61-9-24.15L89.63,69.5Z"/><path class="cls-1" d="M84.2,68.91s-3.31.24-4.58-.3c0,0,.54,1.87,3.67,1.94S84.2,68.91,84.2,68.91Z"/><path class="cls-1" d="M83.22,69.81s-3.32.23-4.58-.31c0,0,.53,1.87,3.66,1.94S83.22,69.81,83.22,69.81Z"/><circle class="cls-8" cx="84.73" cy="74.19" r="5.03" transform="translate(-9.47 135.92) rotate(-74.45)"/><path class="cls-1" d="M100.7,67.41s3.31-.38,4.45-1.14c0,0-.19,1.94-3.25,2.58S100.7,67.41,100.7,67.41Z"/><path class="cls-1" d="M101.83,68.1s3.31-.37,4.45-1.13c0,0-.19,1.94-3.25,2.58S101.83,68.1,101.83,68.1Z"/><circle class="cls-8" cx="101.14" cy="72.69" r="5.03" transform="translate(3.99 150.64) rotate(-74.45)"/><path class="cls-9" d="M107.65,80.82s.11-.85-2.7-1.2-6.87.75-8.51-1.39-3.22-1.89-3.36-1.87-1.79.14-3,2.44S84.7,80.87,82,81.72s-2.44,1.67-2.44,1.67-1.13,2.21,5.23,2.42A12.71,12.71,0,0,1,94.41,91v0A12.66,12.66,0,0,1,103,84.14C109.16,82.79,107.65,80.82,107.65,80.82Z"/><ellipse class="cls-10" cx="91.06" cy="78.78" rx="0.94" ry="0.28" transform="translate(-27.07 102.07) rotate(-52.02)"/><ellipse class="cls-10" cx="95.44" cy="78.38" rx="0.28" ry="0.94" transform="translate(-26.52 97.78) rotate(-48.43)"/><path d="M84.53,72.07a3.23,3.23,0,0,0-1.12.33A1.07,1.07,0,1,1,82,73.93a3,3,0,1,0,2.52-1.86Z"/><path d="M100.94,70.53a3.09,3.09,0,0,0-1.13.34,1,1,0,0,1,.56.84,1.07,1.07,0,0,1-2,.69,3,3,0,0,0-.22,1.43,3,3,0,1,0,2.74-3.3Z"/><path class="cls-7" d="M92.89,59.67S94,55.79,91.24,55s-3.31,2.12-3.31,2.12-1.2-2.42,2.59-3.48,5.9,4.38,4.6,6.51Z"/></g></svg>