<svg id="Layer_1" data-name="Layer 1" xmlns="http://www.w3.org/2000/svg" xmlns:xlink="http://www.w3.org/1999/xlink" viewBox="0 0 260 168"><defs><style>.cls-1{fill:#602e15;}.cls-2{fill:#d1b36f;}.cls-3{fill:#ffe2a9;}.cls-4{fill:#6b3618;}.cls-5{fill:#fffce6;}.cls-6{clip-path:url(#clip-path);}.cls-7{fill:#843f00;}.cls-8{fill:#66321b;}.cls-9{fill:#5b2a09;}.cls-10{fill:#6b340e;}.cls-11{clip-path:url(#clip-path-2);}.cls-12{fill:#c69a42;}.cls-13{clip-path:url(#clip-path-3);}.cls-14{fill:#d8a750;}.cls-15{fill:#c6a563;opacity:0.59;}.cls-16{fill:#f2c691;}.cls-17{fill:#3a1407;}.cls-18{fill:#8c461f;}.cls-19{clip-path:url(#clip-path-4);}.cls-20{fill:#5b2a11;}.cls-21{clip-path:url(#clip-path-5);}.cls-22,.cls-23{fill:#8c4522;}.cls-23{opacity:0.41;}.cls-24,.cls-26{fill:#7c3c1c;}.cls-24{opacity:0.34;}.cls-25{fill:#aa5930;}.cls-27{fill:#894121;}.cls-28,.cls-29,.cls-33{fill:none;}.cls-28,.cls-29{stroke:#000;stroke-linecap:round;stroke-linejoin:round;}.cls-28{stroke-width:0.14px;}.cls-29{stroke-width:0.11px;}.cls-30{fill:#af7014;}.cls-31{fill:#f9a61a;}.cls-32,.cls-40{fill:#fff;}.cls-34{fill:#663819;}.cls-35{fill:#6d3611;}.cls-36{fill:#8c4d21;}.cls-37{fill:#ffcf48;}.cls-38{clip-path:url(#clip-path-6);}.cls-39{fill:#ce842c;}.cls-40{stroke:#8c4d21;stroke-miterlimit:10;stroke-width:0.76px;}.cls-41{fill:#fefce6;}</style><clipPath id="clip-path"><path class="cls-1" d="M146.57,146.36l1.62,9.94s1.92,1,3.26-.19l-.55-10.76Z"/></clipPath><clipPath id="clip-path-2"><path class="cls-2" d="M154.86,148.7l2.76-22.31c-9.45-1.2-13.87,1-15.26,1.88l-.05,0a3.58,3.58,0,0,0-.46.34h0a10.81,10.81,0,0,0-3,6.68c-.49,3.86.6,7.29,2.51,8.41v0C146.72,147.64,154.86,148.7,154.86,148.7Z"/></clipPath><clipPath id="clip-path-3"><path class="cls-3" d="M139.3,131.27s1.92-3.19,7-3.7a43.13,43.13,0,0,1,10.06.32l2.84-3.68L141.3,123l-3.56,6.57Z"/></clipPath><clipPath id="clip-path-4"><path class="cls-4" d="M146.94,126.5a1.23,1.23,0,0,0,.21.87c.18.18.65.09,1.07.12a3.83,3.83,0,0,0,2.3-.4c.27-.23.12-.65.18-1A15.73,15.73,0,0,0,146.94,126.5Z"/></clipPath><clipPath id="clip-path-5"><path class="cls-4" d="M154.21,65.57c-.52-.29-.85-.17-.81-.76a61.11,61.11,0,0,0,.17-9c-.37-3.17-1.47-9.09,2.29-9.87s6.28.38,6.17,4-.13,5.85-1.5,6.21A28,28,0,0,0,157.61,66S156.65,66.87,154.21,65.57Z"/></clipPath><clipPath id="clip-path-6"><path class="cls-5" d="M126.57,88.51s6.31,3.4,10.38,6c2.83,1.85,2.82,2.55,2.82,2.55,4.9-6.84-5.9-13.64-5.9-13.64s14.58-4.63-15.42-26.94c0,0-17.78-14-24.47-20.76,0,0-7.37,5.27,11.45,18.75,0,0-27.75-16.29-3,4.21,0,0-22.51-12.44,1.45,7.1,0,0-16.69-7.83-3.28,4,0,0-13.61-1.39.41,5.73,0,0-5.42,2.75,5.24,5.48,0,0-8.67-1.3,6.52,3.61,0,0,.73,4.37,9.12,6C121.88,90.67,125.85,92.42,126.57,88.51Z"/></clipPath></defs><path d="M158.61,85.93a.19.19,0,0,1,.1,0s0,.05.06.07a.47.47,0,0,1,0,.1v0s0,0-.06,0l-.39-.07a.38.38,0,0,1-.1,0,.27.27,0,0,1-.08-.07.07.07,0,0,1,0-.05C158.12,85.83,158.54,85.92,158.61,85.93Z"/><path d="M160,81.64a.58.58,0,0,1,.26,0,.33.33,0,0,1,.15.11.07.07,0,0,0,.09,0,.08.08,0,0,0,0-.1.59.59,0,0,0-.53-.21.07.07,0,0,0-.07.07.08.08,0,0,0,.07.07Z"/><path d="M162,76.15a1,1,0,0,1,.68.16.07.07,0,0,0,.1,0s0-.07,0-.09A1.09,1.09,0,0,0,162,76c-.09,0-.09.14,0,.13Z"/><path d="M164.28,70.56a.64.64,0,0,1,.62.25c0,.08.17,0,.12-.06a.63.63,0,0,0-.3-.26,1,1,0,0,0-.44-.07s-.07,0-.07.07a.08.08,0,0,0,.07.07Z"/><path class="cls-1" d="M146.57,146.36l1.62,9.94s1.92,1,3.26-.19l-.55-10.76Z"/><g class="cls-6"><path class="cls-4" d="M148.13,141.64s.11,12.38,2.76,19l5.29-1L151.82,140Z"/></g><path class="cls-7" d="M152.83,85.94l-4.27-.28a.5.5,0,0,0-.37.12,1.29,1.29,0,0,0-.45.79c-.11.62.64.88,4.54,1.44a.52.52,0,0,0,.56-.31l.44-1A.53.53,0,0,0,152.83,85.94Z"/><path class="cls-7" d="M153.44,81.17l-4.27-.28a.58.58,0,0,0-.38.12,1.38,1.38,0,0,0-.45.79c-.1.62.64.89,4.54,1.45a.54.54,0,0,0,.56-.31l.44-1A.53.53,0,0,0,153.44,81.17Z"/><path class="cls-7" d="M152.84,75.79l-4.28-.1a.54.54,0,0,0-.36.14,1.29,1.29,0,0,0-.42.8c-.08.63.68.86,4.6,1.26a.53.53,0,0,0,.54-.34l.4-1A.52.52,0,0,0,152.84,75.79Z"/><path class="cls-7" d="M153.81,70.26l-4.8-.12a.57.57,0,0,0-.41.16,1.42,1.42,0,0,0-.47.9c-.09.71.76,1,5.16,1.41a.58.58,0,0,0,.61-.38l.45-1.17A.59.59,0,0,0,153.81,70.26Z"/><path class="cls-8" d="M152.21,66.27a14.5,14.5,0,0,1,3.92,0c1.28.35,2.29.39,2.21,1l-3.48.37Z"/><path class="cls-1" d="M153.92,66.77l-1.71-.5s-6.54,44.63-5.09,64l2.38.81,4.59-56.31Z"/><path class="cls-4" d="M149.89,134.56s4.79-51.76,8.45-67.26A13.93,13.93,0,0,0,155.5,67l-1.58-.26s-6.21,51.69-5.87,69.06Z"/><ellipse class="cls-9" cx="140.73" cy="135.58" rx="7.9" ry="4.44" transform="translate(-11.47 258.14) rotate(-82.78)"/><ellipse class="cls-10" cx="141.48" cy="135.67" rx="7.9" ry="4.44" transform="matrix(0.13, -0.99, 0.99, 0.13, -10.91, 258.97)"/><ellipse class="cls-10" cx="141.58" cy="135.69" rx="6.91" ry="3.88" transform="translate(-10.83 259.08) rotate(-82.78)"/><path class="cls-2" d="M154.86,148.7l2.76-22.31c-9.45-1.2-13.87,1-15.26,1.88l-.05,0a3.58,3.58,0,0,0-.46.34h0a10.81,10.81,0,0,0-3,6.68c-.49,3.86.6,7.29,2.51,8.41v0C146.72,147.64,154.86,148.7,154.86,148.7Z"/><g class="cls-11"><path class="cls-12" d="M162.45,126.72s-13.52-6.77-15.59,9.54,14,18.63,14,18.63Z"/><path class="cls-3" d="M139.3,131.27s1.92-3.19,7-3.7a43.13,43.13,0,0,1,10.06.32l2.84-3.68L141.3,123l-3.56,6.57Z"/><g class="cls-13"><path class="cls-14" d="M165.82,126.2s-12.34-2.66-15.35,1.37l11.4,1.45,1.85-2.63Z"/></g><path class="cls-15" d="M136.17,138.43s4.41,6.27,17.9,8l-.65,4.61-17.17-2.24Z"/></g><ellipse class="cls-16" cx="156.33" cy="137.56" rx="11.24" ry="6.31" transform="matrix(0.13, -0.99, 0.99, 0.13, 0.2, 275.35)"/><ellipse class="cls-17" cx="148.81" cy="126.82" rx="2.38" ry="0.65" transform="translate(-10.86 13.98) rotate(-5.19)"/><ellipse class="cls-18" cx="146.45" cy="130.28" rx="1.09" ry="0.43" transform="translate(-38.26 195.89) rotate(-61.21)"/><ellipse class="cls-17" cx="146.63" cy="130.38" rx="1.09" ry="0.43" transform="translate(-38.25 196.1) rotate(-61.21)"/><ellipse class="cls-18" cx="145.14" cy="135.42" rx="1.09" ry="0.43" transform="translate(-2.93 267.62) rotate(-84.77)"/><ellipse class="cls-17" cx="145.34" cy="135.43" rx="1.09" ry="0.43" transform="translate(-2.76 267.84) rotate(-84.77)"/><ellipse class="cls-18" cx="145.1" cy="140.94" rx="0.43" ry="1.09" transform="translate(-21.98 26.91) rotate(-9.85)"/><ellipse class="cls-17" cx="145.3" cy="140.9" rx="0.43" ry="1.09" transform="translate(-21.97 26.95) rotate(-9.85)"/><path class="cls-4" d="M146.94,126.5a1.23,1.23,0,0,0,.21.87c.18.18.65.09,1.07.12a3.83,3.83,0,0,0,2.3-.4c.27-.23.12-.65.18-1A15.73,15.73,0,0,0,146.94,126.5Z"/><g class="cls-19"><polygon class="cls-1" points="148.35 124.83 148.18 128.87 146.45 128.27 146.83 124.92 148.35 124.83"/></g><ellipse class="cls-20" cx="155.34" cy="66.57" rx="0.44" ry="2.62" transform="matrix(0.13, -0.99, 0.99, 0.13, 69.77, 212.31)"/><path class="cls-20" d="M152.84,65.43l-.1.81,5.2.66.1-.81Z"/><ellipse class="cls-4" cx="155.44" cy="65.76" rx="0.44" ry="2.62" transform="translate(70.66 211.7) rotate(-82.78)"/><path class="cls-4" d="M154.21,65.57c-.52-.29-.85-.17-.81-.76a61.11,61.11,0,0,0,.17-9c-.37-3.17-1.47-9.09,2.29-9.87s6.28.38,6.17,4-.13,5.85-1.5,6.21A28,28,0,0,0,157.61,66S156.65,66.87,154.21,65.57Z"/><g class="cls-21"><path class="cls-1" d="M154.85,67.59s1.55-6.83.74-10.55-2.23-4.44-1.48-8.57,4.17-3.77,4.17-3.77l-7.86-.47-2,17.94Z"/><path class="cls-1" d="M162.59,53.88s-.48,2.23-2.06,2.24a6.26,6.26,0,0,1-3.33-.5c-.84-.49-1.61-2.21-1.87-4a9.89,9.89,0,0,1-.07-2.72s-.95,2.1.46,6.17,2.66,4.74,4.2,3A20.35,20.35,0,0,0,162.59,53.88Z"/></g><path class="cls-22" d="M157.38,46.65a3.39,3.39,0,0,0-1.45,2.45,9.89,9.89,0,0,0,.15,2.92,5.33,5.33,0,0,0,.43,1.68,2.93,2.93,0,0,0,3.65,1.35,1.82,1.82,0,0,0,.61-.41,2.65,2.65,0,0,0,.55-1.6,25.5,25.5,0,0,0,.09-3c0-1-.15-2.46-1-3.15A3,3,0,0,0,157.38,46.65Z"/><ellipse class="cls-23" cx="155.72" cy="71.81" rx="2.98" ry="0.95" transform="matrix(0.13, -0.99, 0.99, 0.13, 64.89, 217.26)"/><ellipse class="cls-23" cx="155.31" cy="76.57" rx="1.01" ry="0.42" transform="translate(59.81 221.02) rotate(-82.78)"/><path class="cls-24" d="M154,130.44s0,1.75.39,1.93,4.79-2.18,4.79-2.18Z"/><polygon class="cls-25" points="154.04 129.18 158.37 127.79 161.34 127.95 157.24 129.61 154.04 129.18"/><path class="cls-26" d="M154,129.18s-.27,1.27,0,1.63,3.24.77,3.24.77l0-2Z"/><path class="cls-27" d="M161.34,128s0,1.35-.11,1.67a12.27,12.27,0,0,1-4,1.95l0-2Z"/><ellipse class="cls-7" cx="156.16" cy="71.69" rx="1.53" ry="1.3" transform="translate(68.94 219.74) rotate(-84.16)"/><path class="cls-7" d="M156.31,70.17s3.81,0,8.66.45l-.19,3.62-8.78-1Z"/><ellipse class="cls-7" cx="155.99" cy="76.94" rx="1.29" ry="1.23" transform="matrix(0.13, -0.99, 0.99, 0.13, 60.04, 222.02)"/><path class="cls-7" d="M163,77.54c.06-.46-.47-1-.25-1.4-2.58-.21-6.6-.48-6.6-.48l-.32,2.56,6.78,1C162.43,78.64,162.92,78.09,163,77.54Z"/><ellipse class="cls-7" cx="154.88" cy="82.3" rx="1.23" ry="0.8" transform="translate(47.72 221.15) rotate(-80.33)"/><path class="cls-7" d="M155.08,81.1a46.34,46.34,0,0,1,5.41.55l-.43,2.88-5.39-1Z"/><ellipse class="cls-7" cx="154.59" cy="87.07" rx="1.26" ry="1.12" transform="translate(18.58 201) rotate(-69.34)"/><path class="cls-7" d="M158,87.91a8.26,8.26,0,0,0,.17-1.11c0-.23.63-.5.67-.73-2-.2-4-.23-4-.23l-.49,2.45,3.91.72C158.34,88.7,157.91,88.23,158,87.91Z"/><path class="cls-28" d="M165.36,71.54s-5.63,70.14-6.91,75.93"/><path class="cls-28" d="M163.25,76.79s-3.87,65.16-5.14,70.94"/><path class="cls-28" d="M160.81,82.17s-.94,56.33-3.11,65.85"/><path class="cls-28" d="M159,86.27s-.27,56.14-1.54,61.92"/><path class="cls-28" d="M164.47,70.49a1.87,1.87,0,0,0-1.13,2c.06,1.66,1,1.69,1,1.69"/><path class="cls-28" d="M164.27,70.48a1.87,1.87,0,0,0-1.13,2c.06,1.66,1,1.69,1,1.69"/><path class="cls-29" d="M162.18,76.07a1.55,1.55,0,0,0-.91,1.65c0,1.35.8,1.38.8,1.38"/><path class="cls-29" d="M162,76.08a1.51,1.51,0,0,0-.91,1.64c0,1.34.8,1.37.8,1.37"/><ellipse class="cls-30" cx="164.72" cy="72.42" rx="1.82" ry="1.13" transform="translate(75.91 228.91) rotate(-84.16)"/><ellipse class="cls-30" cx="162.52" cy="77.63" rx="1.54" ry="1.17" transform="translate(65.06 229.1) rotate(-82.78)"/><path class="cls-29" d="M160.06,81.55s-.78.2-.95,1.54.83,1.43.83,1.43"/><path class="cls-29" d="M160,81.54s-.79.17-1,1.5.77,1.46.77,1.46"/><ellipse class="cls-30" cx="160.18" cy="83.08" rx="1.46" ry="0.84" transform="translate(51.37 227.03) rotate(-80.33)"/><path class="cls-28" d="M158.42,86a1.72,1.72,0,0,0-1,1.55c-.1,1.21.67,1.45.67,1.45"/><path class="cls-28" d="M158.2,86a1.74,1.74,0,0,0-1,1.55c-.09,1.22.67,1.45.67,1.45"/><ellipse class="cls-30" cx="158.5" cy="87.53" rx="1.5" ry="0.81" transform="translate(38.14 222.8) rotate(-77.25)"/><path class="cls-31" d="M112.28,147.09c1.56,1.32,3.66,5.82,3.66,5.82-3.16.92-.92,4.14-.09,3.91s1.16-.67.8-1.57c-.06-1.46,2-2.16,2.32-1.6s1,2.29,2.86.92a2.55,2.55,0,0,0,.82-3,3.27,3.27,0,0,0-3.45-2,2.42,2.42,0,0,0-1.72,1s-1.42.05-2.39-3.65Z"/><path class="cls-32" d="M122,154.39a3.08,3.08,0,0,1-2.36,2.12,2.94,2.94,0,0,0,.19-1.65A1.83,1.83,0,0,0,122,154.39Z"/><path class="cls-31" d="M117.14,151.92a1.46,1.46,0,0,1,.34-1.39,1.83,1.83,0,0,0-.71,2.09"/><path class="cls-33" d="M120.82,150.47a2.44,2.44,0,0,1-1.41,1.47"/><path class="cls-33" d="M120.27,150.51a1.74,1.74,0,0,0-.78.89"/><path class="cls-33" d="M115.89,149.05a.86.86,0,0,1-.57.52"/><path class="cls-33" d="M116.26,149.61a.86.86,0,0,1-.57.52"/><path class="cls-34" d="M101.51,133.93c1.25,4.59,5,9.46,5,9.46,1.83,2.27,5.17,5.45,7.83,4.52s2.4-5,2.4-5,.81-8.87-1.77-13.74c0,0-2.19-6.58-8.34-4.64S101.51,133.93,101.51,133.93Z"/><path class="cls-32" d="M117.55,155.83a3.07,3.07,0,0,1-2.93,1.2,3,3,0,0,0,.74-1.49A1.8,1.8,0,0,0,117.55,155.83Z"/><path class="cls-31" d="M115.05,150.67a2.71,2.71,0,0,1,2.33.43c.88.83,2.29,4.35-.78,5-1.78.22-2.4-2.17-2.4-2.17S113.27,151.11,115.05,150.67Z"/><path class="cls-33" d="M118,153.27a2.44,2.44,0,0,1-2-.36"/><path class="cls-33" d="M117.61,152.83a1.76,1.76,0,0,0-1.17-.16"/><ellipse class="cls-5" cx="79.78" cy="135.22" rx="24.87" ry="3.94" transform="translate(-64.06 72.3) rotate(-35.83)"/><ellipse class="cls-5" cx="88.85" cy="134.05" rx="24.87" ry="2.37" transform="translate(-62.84 80.64) rotate(-37.06)"/><path class="cls-35" d="M85.07,126.42S75,134,75.69,137.41s10-3.63,14.25-7.82S90.31,122.31,85.07,126.42Z"/><path class="cls-35" d="M91.07,128.49s-10.44,7.12-9.86,10.56,10.19-3.18,14.58-7.18S96.48,124.62,91.07,128.49Z"/><path class="cls-36" d="M112.31,81.1S87.71,102.51,84,123s28.22,23.09,32.29,6.5S125.64,91,122.64,84C122.64,84,120,73.54,112.31,81.1Z"/><path class="cls-31" d="M88.56,146.93c-.1,2-2.39,6.45-2.39,6.45-2.65-1.94-3.84,1.79-3.16,2.31s1.25.51,1.74-.32c1.12-.94,2.91.23,2.68.86s-1.22,2.18,1,2.83a2.54,2.54,0,0,0,2.87-1.18,3.26,3.26,0,0,0-.5-4,2.42,2.42,0,0,0-1.82-.77s-.91-1.09,1.44-4.11Z"/><path class="cls-32" d="M88.71,159.11a3.1,3.1,0,0,1-3.12-.58,3,3,0,0,0,1.43-.85A1.81,1.81,0,0,0,88.71,159.11Z"/><path class="cls-31" d="M87.69,153.72a1.45,1.45,0,0,1,1.31-.57,1.83,1.83,0,0,0-2.09.72"/><path class="cls-33" d="M91.08,155.76a2.39,2.39,0,0,1-2-.22"/><path class="cls-33" d="M90.72,155.35a1.81,1.81,0,0,0-1.19-.08"/><path class="cls-33" d="M89.21,151a.87.87,0,0,1-.77-.14"/><path class="cls-33" d="M89,151.63a.85.85,0,0,1-.76-.14"/><path class="cls-36" d="M92.43,130.38C89.55,134.16,88,140.1,88,140.1c-.69,2.84-1.18,7.42,1.18,9s5.47-1.17,5.47-1.17,7.53-4.76,9.81-9.78c0,0,3.89-5.74-1.4-9.43S92.43,130.38,92.43,130.38Z"/><path class="cls-32" d="M84.84,156.44a3.09,3.09,0,0,1-2.74-1.6,3,3,0,0,0,1.63-.31A1.8,1.8,0,0,0,84.84,156.44Z"/><path class="cls-31" d="M87.4,151.31a2.69,2.69,0,0,1,1.08,2.1c-.12,1.21-2,4.47-4.44,2.44-1.26-1.28.26-3.22.26-3.22S86,150.17,87.4,151.31Z"/><path class="cls-33" d="M87.11,155.19a2.44,2.44,0,0,1-.94-1.81"/><path class="cls-33" d="M87.25,154.66a1.78,1.78,0,0,0-.59-1"/><path class="cls-37" d="M123.87,91s8.76,5.44,15.21,5l-11.5-8.81S120.79,86.45,123.87,91Z"/><path class="cls-5" d="M126.57,88.51s6.31,3.4,10.38,6c2.83,1.85,2.82,2.55,2.82,2.55,4.9-6.84-5.9-13.64-5.9-13.64s14.58-4.63-15.42-26.94c0,0-17.78-14-24.47-20.76,0,0-7.37,5.27,11.45,18.75,0,0-27.75-16.29-3,4.21,0,0-22.51-12.44,1.45,7.1,0,0-16.69-7.83-3.28,4,0,0-13.61-1.39.41,5.73,0,0-5.42,2.75,5.24,5.48,0,0-8.67-1.3,6.52,3.61,0,0,.73,4.37,9.12,6C121.88,90.67,125.85,92.42,126.57,88.51Z"/><g class="cls-38"><path class="cls-37" d="M150.54,93.28s-18-15.43-26-8.92,8.33,17.1,8.33,17.1,14.51.31,15.54,0S150.54,93.28,150.54,93.28Z"/></g><ellipse class="cls-39" cx="132.81" cy="84.28" rx="0.34" ry="1.27" transform="translate(40.51 211.64) rotate(-86.47)"/><path class="cls-36" d="M123.55,73.79s-3.41-1.06-4.46-2.09c0,0-.19,2.08,2.91,3.37S123.55,73.79,123.55,73.79Z"/><path class="cls-36" d="M122.22,74.3s-3.41-1.06-4.46-2.09c0,0-.19,2.08,2.91,3.37S122.22,74.3,122.22,74.3Z"/><circle class="cls-40" cx="126.45" cy="75.76" r="5.4"/><circle cx="127.78" cy="76.72" r="3.25"/><circle class="cls-32" cx="127.46" cy="73.97" r="1.15"/><path class="cls-5" d="M133.87,83.47s-4.29-.68-4.48,1.44-2,2.81-6,.18l2-3.28,6.44-.56Z"/><path class="cls-37" d="M123.75,85.33s-2.42-1.88-3.38.08-1.57,4.12,2.47,5.56l1.82-3.72Z"/><path class="cls-5" d="M135.06,74.15s3,.69,3.49-1.41a2,2,0,0,0-1.73-2.46s1.8-1,2.74,1.87-3.15,4.64-4.82,3.73Z"/><path class="cls-41" d="M120.65,72.65s8,5,12.16,3.47l-2.34-7.05-6.29-2.29Z"/><path class="cls-36" d="M124,103.41a1.64,1.64,0,0,1-.3,1.27c-.32.32-1,.17-1-.28a4.11,4.11,0,0,1-1.16,3.33.69.69,0,0,1-.4.23.67.67,0,0,1-.42-.22,4.78,4.78,0,0,1-1-3.46,25.19,25.19,0,0,1,.92-6.74c.2-.75.49-2.16,1.28-2.53,1-.5,1.1.79,1.25,1.52A43,43,0,0,1,124,103.41Z"/><path class="cls-36" d="M112.86,90.79S125,92.05,135,89.66c0,0,5.14-2.52,9.62,2.67s19.33,29.41,28.62,30.14c0,0-10.31,7.37-20.12-6.57,0,0-6.46-5.62-17.6-4.15s-17-7.93-20.53-11.74C115,100,109.57,95.55,112.86,90.79Z"/><path class="cls-36" d="M144.6,100.47s11.89,21.8,17,25.43c0,0-10.32,5.55-22.75-22.31C138.83,103.59,138.27,100.29,144.6,100.47Z"/><path class="cls-36" d="M137.15,99.83S147,120.42,151.47,124c0,0-9.76,4.57-19.77-21.61C131.7,102.4,131.35,99.34,137.15,99.83Z"/><path class="cls-36" d="M130.4,101.32s8.33,17.43,12.14,20.47c0,0-8.25,3.88-16.75-18.28C125.79,103.51,125.49,100.92,130.4,101.32Z"/><path class="cls-36" d="M124,99.57s6.18,15.79,9.31,18.69c0,0-7.47,2.87-13.48-17.07C119.79,101.19,119.69,98.9,124,99.57Z"/></svg>