<svg id="_4" data-name="4" xmlns="http://www.w3.org/2000/svg" xmlns:xlink="http://www.w3.org/1999/xlink" viewBox="0 0 260 168"><defs><style>.cls-1{fill:#602e15;}.cls-2{fill:#d1b36f;}.cls-3{fill:#ffe2a9;}.cls-4{fill:#6b3618;}.cls-5{fill:#fffce6;}.cls-33,.cls-6{fill:#fff;}.cls-42,.cls-6{stroke:#8c4d21;stroke-width:0.48px;}.cls-42,.cls-43,.cls-6{stroke-miterlimit:10;}.cls-7{clip-path:url(#clip-path);}.cls-8{fill:#843f00;}.cls-9{fill:#66321b;}.cls-10{fill:#5b2a09;}.cls-11{fill:#6b340e;}.cls-12{clip-path:url(#clip-path-2);}.cls-13{fill:#c69a42;}.cls-14{clip-path:url(#clip-path-3);}.cls-15{fill:#d8a750;}.cls-16{fill:#c6a563;opacity:0.59;}.cls-17{fill:#f2c691;}.cls-18{fill:#3a1407;}.cls-19{fill:#8c461f;}.cls-20{clip-path:url(#clip-path-4);}.cls-21{fill:#5b2a11;}.cls-22{clip-path:url(#clip-path-5);}.cls-23,.cls-24{fill:#8c4522;}.cls-24{opacity:0.41;}.cls-25,.cls-27{fill:#7c3c1c;}.cls-25{opacity:0.34;}.cls-26{fill:#aa5930;}.cls-28{fill:#894121;}.cls-29,.cls-30,.cls-34,.cls-42,.cls-43{fill:none;}.cls-29,.cls-30{stroke:#000;stroke-linecap:round;stroke-linejoin:round;}.cls-29{stroke-width:0.09px;}.cls-30{stroke-width:0.07px;}.cls-31{fill:#af7014;}.cls-32{fill:#f9a61a;}.cls-35{fill:#663819;}.cls-36{fill:#6d3611;}.cls-37{fill:#8c4d21;}.cls-38{fill:#ffcf48;}.cls-39{clip-path:url(#clip-path-6);}.cls-40{fill:#ce842c;}.cls-41{clip-path:url(#clip-path-7);}.cls-43{stroke:#7a411a;stroke-width:0.34px;}</style><clipPath id="clip-path"><path class="cls-1" d="M106.9,130.16l0,6.61a2.11,2.11,0,0,0,2.14.22l.75-7Z"/></clipPath><clipPath id="clip-path-2"><path class="cls-2" d="M112,132.54l4.11-14.19c-6-1.76-9.1-.81-10.09-.36h0c-.22.11-.33.18-.33.18h0a7.1,7.1,0,0,0-2.68,4c-.72,2.45-.36,4.79.76,5.71v0C106.86,131,112,132.54,112,132.54Z"/></clipPath><clipPath id="clip-path-3"><path class="cls-3" d="M103.75,119.62a6.08,6.08,0,0,1,5-1.67,28,28,0,0,1,6.49,1.24l2.23-2.09-11.52-2.61-3,3.89Z"/></clipPath><clipPath id="clip-path-4"><path class="cls-4" d="M109.2,117.31a.85.85,0,0,0,0,.59c.09.13.41.13.68.19a2.49,2.49,0,0,0,1.53,0c.2-.12.15-.41.23-.64A10.75,10.75,0,0,0,109.2,117.31Z"/></clipPath><clipPath id="clip-path-5"><path class="cls-4" d="M120.25,78.54c-.32-.24-.54-.2-.45-.58a40.8,40.8,0,0,0,1-5.81c.09-2.1,0-6.05,2.51-6.17s4,.9,3.59,3.22-.69,3.77-1.62,3.87a18.44,18.44,0,0,0-2.91,6.07S121.69,79.64,120.25,78.54Z"/></clipPath><clipPath id="clip-path-6"><path class="cls-5" d="M89.93,107.9s4.28-1.52,7.27-2.31c2.07-.55,2.4-.25,2.4-.25-1.14-5.22-8.94-3-8.94-3s4-8.84-19.27-4.19c0,0-14.17,2.44-20.21,2.7,0,0-.65,5.72,13.72,2.58,0,0-19.5,6.16.7,3.22,0,0-15.45,5.31,4,2.34,0,0-10.8,4.53.5,3.25,0,0-6.44,5.83,2.88,2.25,0,0-1,3.73,4.81-.14,0,0-4.3,3.54,4.48-1.54,0,0,2.37,1.52,6.71-1.74C89,111,91.46,109.91,89.93,107.9Z"/></clipPath><clipPath id="clip-path-7"><circle class="cls-6" cx="83.86" cy="102.53" r="3.43" transform="translate(-48.53 98.11) rotate(-48.81)"/></clipPath></defs><path d="M121,92.2l.07,0,0,.05a.19.19,0,0,1,0,.07v0a0,0,0,0,1,0,0l-.24-.08-.06,0s0,0,0,0l0,0C120.68,92.09,120.94,92.19,121,92.2Z"/><path d="M122.32,89.56h.08s0,0,.07,0l0,0h0l0,0h0s0,0,0,0,0,0,.06,0,0,0,0-.06a.4.4,0,0,0-.32-.19s0,0,0,0a0,0,0,0,0,0,0Z"/><path d="M124.22,86.22a.6.6,0,0,1,.43.18,0,0,0,0,0,.07,0s0,0,0-.06a.78.78,0,0,0-.48-.21.05.05,0,0,0,0,0s0,.06,0,.06Z"/><path d="M126.26,82.82a.57.57,0,0,1,.23.08.31.31,0,0,1,.15.15,0,0,0,0,0,0,0s0,0,0,0a.41.41,0,0,0-.18-.21.66.66,0,0,0-.28-.09c-.05,0-.05.09,0,.09Z"/><path class="cls-1" d="M106.9,130.16l0,6.61a2.11,2.11,0,0,0,2.14.22l.75-7Z"/><g class="cls-7"><path class="cls-4" d="M108.4,127.26s-1.21,8-.18,12.59l3.54-.11-.79-13.2Z"/></g><path class="cls-8" d="M117.23,91.61,114.49,91a.32.32,0,0,0-.25,0,.82.82,0,0,0-.37.46c-.14.39.32.64,2.79,1.41a.35.35,0,0,0,.4-.14l.39-.62A.35.35,0,0,0,117.23,91.61Z"/><path class="cls-8" d="M118.12,88.58,115.38,88a.31.31,0,0,0-.25,0,.87.87,0,0,0-.38.46c-.13.39.33.64,2.8,1.41a.33.33,0,0,0,.39-.14l.4-.62A.36.36,0,0,0,118.12,88.58Z"/><path class="cls-8" d="M118.29,85l-2.76-.51a.36.36,0,0,0-.25,0,.9.9,0,0,0-.36.48c-.11.4.35.63,2.86,1.29a.32.32,0,0,0,.38-.16l.37-.64A.34.34,0,0,0,118.29,85Z"/><path class="cls-8" d="M119.5,81.54,116.39,81a.36.36,0,0,0-.28.06,1,1,0,0,0-.4.53c-.13.45.4.71,3.21,1.45a.37.37,0,0,0,.43-.18l.42-.71A.4.4,0,0,0,119.5,81.54Z"/><path class="cls-9" d="M118.87,78.79a9.52,9.52,0,0,1,2.54.44c.79.36,1.44.48,1.33.86L120.45,80Z"/><path class="cls-1" d="M119.93,79.29l-1.06-.5s-8.88,28.27-10,41l1.47.78,8.82-36.06Z"/><path class="cls-4" d="M110.28,122.85s8.48-33.08,12.47-42.76a9.62,9.62,0,0,0-1.82-.47l-1-.33s-9.4,32.89-11,44.19Z"/><ellipse class="cls-10" cx="104.23" cy="122.56" rx="5.19" ry="2.91" transform="matrix(0.28, -0.96, 0.96, 0.28, -42.67, 188.16)"/><ellipse class="cls-11" cx="104.71" cy="122.7" rx="5.19" ry="2.91" transform="translate(-42.46 188.72) rotate(-73.69)"/><ellipse class="cls-11" cx="104.77" cy="122.72" rx="4.54" ry="2.55" transform="translate(-42.44 188.8) rotate(-73.69)"/><path class="cls-2" d="M112,132.54l4.11-14.19c-6-1.76-9.1-.81-10.09-.36h0c-.22.11-.33.18-.33.18h0a7.1,7.1,0,0,0-2.68,4c-.72,2.45-.36,4.79.76,5.71v0C106.86,131,112,132.54,112,132.54Z"/><g class="cls-12"><path class="cls-13" d="M119.24,119.06s-8.07-5.79-11.1,4.58,7.16,13.54,7.16,13.54Z"/><path class="cls-3" d="M103.75,119.62a6.08,6.08,0,0,1,5-1.67,28,28,0,0,1,6.49,1.24l2.23-2.09-11.52-2.61-3,3.89Z"/><g class="cls-14"><path class="cls-15" d="M121.48,119.08s-7.73-3-10.1-.7l7.25,2.12L120.1,119Z"/></g><path class="cls-16" d="M101,123.94s2.21,4.52,10.78,7.07l-.9,2.93L100,130.7Z"/></g><ellipse class="cls-17" cx="114.14" cy="125.46" rx="7.39" ry="4.15" transform="translate(-38.33 199.77) rotate(-73.69)"/><ellipse class="cls-18" cx="110.39" cy="117.72" rx="0.43" ry="1.56" transform="translate(-14.57 219.84) rotate(-86.1)"/><ellipse class="cls-19" cx="108.49" cy="119.72" rx="0.71" ry="0.28" transform="translate(-52.62 131.85) rotate(-52.12)"/><ellipse class="cls-18" cx="108.6" cy="119.8" rx="0.71" ry="0.28" transform="translate(-52.64 131.96) rotate(-52.12)"/><ellipse class="cls-19" cx="107.11" cy="122.91" rx="0.71" ry="0.28" transform="translate(-38.47 196.31) rotate(-75.68)"/><ellipse class="cls-18" cx="107.24" cy="122.94" rx="0.71" ry="0.28" transform="translate(-38.4 196.45) rotate(-75.68)"/><ellipse class="cls-19" cx="106.51" cy="126.49" rx="0.28" ry="0.71" transform="translate(-1.68 1.43) rotate(-0.76)"/><ellipse class="cls-18" cx="106.64" cy="126.49" rx="0.28" ry="0.71" transform="translate(-1.68 1.43) rotate(-0.76)"/><path class="cls-4" d="M109.2,117.31a.85.85,0,0,0,0,.59c.09.13.41.13.68.19a2.49,2.49,0,0,0,1.53,0c.2-.12.15-.41.23-.64A10.75,10.75,0,0,0,109.2,117.31Z"/><g class="cls-20"><polygon class="cls-1" points="110.29 116.38 109.76 118.98 108.7 118.41 109.3 116.28 110.29 116.38"/></g><ellipse class="cls-21" cx="120.87" cy="79.31" rx="0.29" ry="1.72" transform="translate(10.81 173.04) rotate(-73.69)"/><path class="cls-21" d="M119.37,78.31l-.15.51,3.31,1,.15-.51S119.37,78.3,119.37,78.31Z"/><ellipse class="cls-4" cx="121.02" cy="78.79" rx="0.29" ry="1.72" transform="translate(11.41 172.81) rotate(-73.69)"/><path class="cls-4" d="M120.25,78.54c-.32-.24-.54-.2-.45-.58a40.8,40.8,0,0,0,1-5.81c.09-2.1,0-6.05,2.51-6.17s4,.9,3.59,3.22-.69,3.77-1.62,3.87a18.44,18.44,0,0,0-2.91,6.07S121.69,79.64,120.25,78.54Z"/><g class="cls-22"><path class="cls-1" d="M120.45,79.92s1.71-4.27,1.57-6.77S121,70,122,67.44s3.1-2,3.1-2l-5-1.12-3.14,11.44Z"/><path class="cls-1" d="M126.89,71.83s-.54,1.39-1.57,1.24a4.08,4.08,0,0,1-2.1-.67,4,4,0,0,1-.81-2.78,6.89,6.89,0,0,1,.24-1.77s-.83,1.27-.34,4.05,1.23,3.35,2.42,2.37A13.71,13.71,0,0,0,126.89,71.83Z"/></g><path class="cls-23" d="M124.26,66.6A2.22,2.22,0,0,0,123.07,68a6.86,6.86,0,0,0-.21,1.92,3.88,3.88,0,0,0,.11,1.13,1.92,1.92,0,0,0,2.23,1.25,1.25,1.25,0,0,0,.44-.2,1.67,1.67,0,0,0,.51-1,14.43,14.43,0,0,0,.38-2,2.84,2.84,0,0,0-.32-2.14A2,2,0,0,0,124.26,66.6Z"/><ellipse class="cls-24" cx="120.57" cy="82.75" rx="1.96" ry="0.63" transform="translate(7.29 175.22) rotate(-73.69)"/><ellipse class="cls-24" cx="119.81" cy="85.79" rx="0.66" ry="0.28" transform="translate(3.82 176.68) rotate(-73.69)"/><path class="cls-25" d="M113.37,120.6s-.15,1.14.06,1.3a20.12,20.12,0,0,0,3.33-.92Z"/><polygon class="cls-26" points="113.53 119.79 116.48 119.34 118.39 119.75 115.56 120.4 113.53 119.79"/><path class="cls-27" d="M113.52,119.79s-.31.8-.18,1a8.43,8.43,0,0,0,2,.84l.19-1.29Z"/><path class="cls-28" d="M118.39,119.75s-.16.87-.24,1.07a8.05,8.05,0,0,1-2.79.85l.19-1.27Z"/><ellipse class="cls-8" cx="120.87" cy="82.72" rx="1" ry="0.85" transform="translate(9.8 178.19) rotate(-75.07)"/><path class="cls-8" d="M121.13,81.75s2.47.38,5.57,1.18l-.5,2.33-5.59-1.57Z"/><ellipse class="cls-8" cx="120.22" cy="86.1" rx="0.85" ry="0.81" transform="translate(3.81 177.29) rotate(-73.69)"/><path class="cls-8" d="M124.7,87.22c.09-.29-.2-.7,0-.94-1.65-.4-4.23-1-4.23-1L120,86.92l4.3,1.33C124.22,87.87,124.6,87.57,124.7,87.22Z"/><ellipse class="cls-8" cx="118.94" cy="89.47" rx="0.81" ry="0.53" transform="translate(-4.03 173.31) rotate(-71.24)"/><path class="cls-8" d="M119.2,88.7a30.23,30.23,0,0,1,3.45.93l-.58,1.82-3.39-1.22Z"/><ellipse class="cls-8" cx="118.26" cy="92.53" rx="0.83" ry="0.73" transform="translate(-20.75 149.28) rotate(-60.25)"/><path class="cls-8" d="M120.37,93.43a5.88,5.88,0,0,0,.23-.71c0-.15.45-.26.51-.4-1.3-.34-2.56-.57-2.56-.57L118,93.3l2.46.87C120.52,94,120.29,93.63,120.37,93.43Z"/><path class="cls-29" d="M126.86,83.57s-10.94,44.92-12.36,48.54"/><path class="cls-29" d="M124.94,86.76s-9.27,41.87-10.7,45.49"/><path class="cls-29" d="M122.8,90s-6.46,36.45-8.85,42.4"/><path class="cls-29" d="M121.17,92.46s-6,36.39-7.43,40"/><path class="cls-29" d="M126.39,82.8a1.22,1.22,0,0,0-.94,1.19c-.14,1.08.46,1.2.46,1.2"/><path class="cls-29" d="M126.26,82.77a1.22,1.22,0,0,0-.94,1.19c-.14,1.09.46,1.2.46,1.2"/><path class="cls-30" d="M124.32,86.18a1,1,0,0,0-.76,1c-.11.88.38,1,.38,1"/><path class="cls-30" d="M124.22,86.17a1,1,0,0,0-.76,1c-.11.88.37,1,.37,1"/><ellipse class="cls-31" cx="126.35" cy="84.07" rx="1.2" ry="0.74" transform="translate(12.56 184.49) rotate(-75.07)"/><ellipse class="cls-31" cx="124.38" cy="87.23" rx="1.01" ry="0.77" transform="matrix(0.28, -0.96, 0.96, 0.28, 5.72, 182.1)"/><path class="cls-30" d="M122.38,89.52s-.53,0-.78.9.39,1,.39,1"/><path class="cls-30" d="M122.33,89.5s-.54,0-.82.87.35,1,.35,1"/><ellipse class="cls-31" cx="122.3" cy="90.52" rx="0.96" ry="0.55" transform="translate(-2.75 177.21) rotate(-71.24)"/><path class="cls-29" d="M120.85,92.24a1.13,1.13,0,0,0-.78.9c-.19.78.28,1,.28,1"/><path class="cls-29" d="M120.72,92.19a1.13,1.13,0,0,0-.79.9c-.19.79.29,1,.29,1"/><ellipse class="cls-31" cx="120.75" cy="93.23" rx="0.99" ry="0.53" transform="translate(-10.72 170.62) rotate(-68.16)"/><path class="cls-32" d="M80.63,151.76A15.54,15.54,0,0,1,83,155.45c-2,.59-.58,2.64-.06,2.49s.74-.43.51-1c0-.92,1.25-1.37,1.48-1s.62,1.45,1.82.58a1.6,1.6,0,0,0,.51-1.9A2.06,2.06,0,0,0,85,153.32a1.6,1.6,0,0,0-1.09.62s-.9,0-1.51-2.31Z"/><path class="cls-33" d="M86.82,156.4a2,2,0,0,1-1.5,1.34,1.94,1.94,0,0,0,.13-1.05A1.15,1.15,0,0,0,86.82,156.4Z"/><path class="cls-32" d="M83.71,154.82a.93.93,0,0,1,.22-.88,1.17,1.17,0,0,0-.45,1.33"/><path class="cls-34" d="M86.05,153.9a1.54,1.54,0,0,1-.89.94"/><path class="cls-34" d="M85.71,153.93a1.14,1.14,0,0,0-.5.56"/><path class="cls-34" d="M82.92,153a.52.52,0,0,1-.36.33"/><path class="cls-34" d="M83.16,153.36a.54.54,0,0,1-.37.33"/><path class="cls-35" d="M73.79,143.4a20.92,20.92,0,0,0,3.17,6c1.17,1.45,3.29,3.47,5,2.88s1.52-3.21,1.52-3.21.52-5.64-1.12-8.73c0,0-1.39-4.18-5.3-3S73.79,143.4,73.79,143.4Z"/><path class="cls-33" d="M84,157.31a2,2,0,0,1-1.87.76,1.84,1.84,0,0,0,.47-.94A1.15,1.15,0,0,0,84,157.31Z"/><path class="cls-32" d="M82.39,154a1.74,1.74,0,0,1,1.48.27c.56.53,1.45,2.77-.5,3.19-1.13.14-1.52-1.38-1.52-1.38S81.26,154.31,82.39,154Z"/><path class="cls-34" d="M84.23,155.68a1.55,1.55,0,0,1-1.28-.23"/><path class="cls-34" d="M84,155.41a1.17,1.17,0,0,0-.75-.11"/><ellipse class="cls-5" cx="59.98" cy="144.22" rx="15.8" ry="2.5" transform="translate(-73.07 62.41) rotate(-35.83)"/><ellipse class="cls-5" cx="65.74" cy="143.48" rx="15.8" ry="1.51" transform="translate(-73.19 68.61) rotate(-37.06)"/><path class="cls-36" d="M63.35,138.63s-6.43,4.82-6,7,6.38-2.31,9.05-5S66.67,136,63.35,138.63Z"/><path class="cls-36" d="M67.15,139.94s-6.63,4.53-6.26,6.71,6.47-2,9.26-4.56S70.59,137.48,67.15,139.94Z"/><path class="cls-37" d="M80.65,109.84s-15.63,13.6-18,26.63,17.92,14.67,20.51,4.13,5.92-24.47,4-28.95C87.21,111.65,85.54,105,80.65,109.84Z"/><path class="cls-32" d="M65.56,151.66A15.87,15.87,0,0,1,64,155.75c-1.68-1.23-2.44,1.14-2,1.47s.79.33,1.1-.2c.71-.6,1.85.15,1.7.55s-.77,1.38.65,1.79a1.61,1.61,0,0,0,1.82-.74A2.07,2.07,0,0,0,67,156.1a1.54,1.54,0,0,0-1.16-.49s-.58-.69.91-2.61Z"/><path class="cls-33" d="M65.65,159.39a2,2,0,0,1-2-.36,1.93,1.93,0,0,0,.91-.54A1.14,1.14,0,0,0,65.65,159.39Z"/><path class="cls-32" d="M65,156a.91.91,0,0,1,.83-.36,1.16,1.16,0,0,0-1.33.45"/><path class="cls-34" d="M67.16,157.27a1.55,1.55,0,0,1-1.29-.14"/><path class="cls-34" d="M66.93,157a1.11,1.11,0,0,0-.75,0"/><path class="cls-34" d="M66,154.24a.53.53,0,0,1-.48-.09"/><path class="cls-34" d="M65.83,154.64a.53.53,0,0,1-.48-.09"/><path class="cls-37" d="M68,141.14a21,21,0,0,0-2.83,6.18c-.44,1.8-.75,4.71.75,5.69s3.48-.74,3.48-.74,4.78-3,6.23-6.22c0,0,2.47-3.64-.89-6S68,141.14,68,141.14Z"/><path class="cls-33" d="M63.2,157.7a2,2,0,0,1-1.75-1,1.86,1.86,0,0,0,1-.2A1.16,1.16,0,0,0,63.2,157.7Z"/><path class="cls-32" d="M64.83,154.44a1.7,1.7,0,0,1,.68,1.34c-.08.76-1.3,2.84-2.82,1.54-.8-.81.16-2,.16-2S63.91,153.71,64.83,154.44Z"/><path class="cls-34" d="M64.64,156.9a1.54,1.54,0,0,1-.6-1.15"/><path class="cls-34" d="M64.73,156.57a1.14,1.14,0,0,0-.37-.66"/><path class="cls-38" d="M90,110.25s6.29-1.81,8.84-5l-9,1.67S86.49,109.75,90,110.25Z"/><path class="cls-5" d="M89.93,107.9s4.28-1.52,7.27-2.31c2.07-.55,2.4-.25,2.4-.25-1.14-5.22-8.94-3-8.94-3s4-8.84-19.27-4.19c0,0-14.17,2.44-20.21,2.7,0,0-.65,5.72,13.72,2.58,0,0-19.5,6.16.7,3.22,0,0-15.45,5.31,4,2.34,0,0-10.8,4.53.5,3.25,0,0-6.44,5.83,2.88,2.25,0,0-1,3.73,4.81-.14,0,0-4.3,3.54,4.48-1.54,0,0,2.37,1.52,6.71-1.74C89,111,91.46,109.91,89.93,107.9Z"/><g class="cls-39"><path class="cls-38" d="M102.38,98.63s-14.95,1.93-15.28,8.46,11.61,3.36,11.61,3.36,6.33-6.72,6.61-7.34S102.38,98.63,102.38,98.63Z"/></g><ellipse class="cls-40" cx="90.59" cy="103.16" rx="0.81" ry="0.22" transform="translate(-46.31 92.83) rotate(-44.4)"/><path class="cls-37" d="M81.7,103.06a9.93,9.93,0,0,1-2.89,1.21s.91,1,2.83.07S81.7,103.06,81.7,103.06Z"/><path class="cls-37" d="M81.37,103.9a10.2,10.2,0,0,1-2.88,1.22s.9,1,2.82.06S81.37,103.9,81.37,103.9Z"/><circle class="cls-33" cx="83.86" cy="102.53" r="3.43" transform="translate(-48.53 98.11) rotate(-48.81)"/><g class="cls-41"><path d="M87.8,101.94a2.07,2.07,0,0,0-2.46-1.58,2.15,2.15,0,0,0-.74.33.7.7,0,0,1,.46.52.72.72,0,0,1-.55.86.74.74,0,0,1-.71-.24,2,2,0,0,0,0,1,2.06,2.06,0,1,0,4-.88Z"/></g><circle class="cls-42" cx="83.86" cy="102.53" r="3.43" transform="translate(-48.53 98.11) rotate(-48.81)"/><path class="cls-5" d="M90.66,102.31s-2.15,1.74-1.23,2.73.48,2.14-2.47,2.9l-.68-2.36,2.48-3.27Z"/><path class="cls-38" d="M87.23,107.88s-1.92.34-1.41,1.63,1.28,2.49,3.68,1.2l-1-2.44Z"/><path class="cls-5" d="M86.77,97.79s1.6-1.12.82-2.25a1.28,1.28,0,0,0-1.9-.23s.3-1.27,2-.5.85,3.46-.29,3.86Z"/><path class="cls-37" d="M82,116.18s6.65-8,16.18-6.89,27.42,10,22.05,10c0,0-1.91,1.75-6.49.56,0,0,9.29,4.78,1,3.49l-2.48-.54s6,4.28-3.68,2.23c0,0,.25,3.64-9.14-.22,0,0,1.9,4.68-5.75-.51,0,0-7.31,1.42-9.61-3.71"/><path class="cls-43" d="M82,116.18s6.65-8,16.18-6.89,27.42,10,22.05,10c0,0-1.91,1.75-6.49.56,0,0,9.29,4.78,1,3.49l-2.48-.54s6,4.28-3.68,2.23c0,0,.25,3.64-9.14-.22,0,0,1.9,4.68-5.75-.51,0,0-7.31,1.42-9.61-3.71"/><path class="cls-37" d="M88.08,124a1.09,1.09,0,0,1-.2.81c-.2.2-.65.11-.63-.18a2.58,2.58,0,0,1-.74,2.11.35.35,0,0,1-.26.15.42.42,0,0,1-.26-.14,3,3,0,0,1-.65-2.2,15.89,15.89,0,0,1,.58-4.28c.13-.47.31-1.37.81-1.61.67-.32.7.5.8,1A27.92,27.92,0,0,1,88.08,124Z"/></svg>