<svg id="_1" data-name="1" xmlns="http://www.w3.org/2000/svg" xmlns:xlink="http://www.w3.org/1999/xlink" viewBox="0 0 260 168"><defs><style>.cls-1{fill:#602e15;}.cls-2{fill:#d1b36f;}.cls-3{fill:#ffe2a9;}.cls-4{fill:#6b3618;}.cls-5{fill:#fffce6;}.cls-6{clip-path:url(#clip-path);}.cls-7{fill:#843f00;}.cls-8{fill:#66321b;}.cls-9{fill:#5b2a09;}.cls-10{fill:#6b340e;}.cls-11{clip-path:url(#clip-path-2);}.cls-12{fill:#c69a42;}.cls-13{clip-path:url(#clip-path-3);}.cls-14{fill:#d8a750;}.cls-15{fill:#c6a563;opacity:0.59;}.cls-16{fill:#f2c691;}.cls-17{fill:#3a1407;}.cls-18{fill:#8c461f;}.cls-19{clip-path:url(#clip-path-4);}.cls-20{fill:#5b2a11;}.cls-21{clip-path:url(#clip-path-5);}.cls-22,.cls-23{fill:#8c4522;}.cls-23{opacity:0.41;}.cls-24,.cls-26{fill:#7c3c1c;}.cls-24{opacity:0.34;}.cls-25{fill:#aa5930;}.cls-27{fill:#894121;}.cls-28,.cls-29,.cls-33,.cls-41{fill:none;}.cls-28,.cls-29{stroke:#000;stroke-linecap:round;stroke-linejoin:round;}.cls-28{stroke-width:0.09px;}.cls-29{stroke-width:0.07px;}.cls-30{fill:#af7014;}.cls-31{fill:#f9a61a;}.cls-32,.cls-40{fill:#fff;}.cls-34{fill:#663819;}.cls-35{fill:#6d3611;}.cls-36{fill:#8c4d21;}.cls-37{fill:#ffcf48;}.cls-38{clip-path:url(#clip-path-6);}.cls-39{fill:#ce842c;}.cls-40{stroke:#8c4d21;stroke-width:0.48px;}.cls-40,.cls-41{stroke-miterlimit:10;}.cls-41{stroke:#7a411a;stroke-width:0.34px;}</style><clipPath id="clip-path"><path class="cls-1" d="M113.08,152.2l2.13,6.26a2.14,2.14,0,0,0,2.1-.48l-1.54-6.91Z"/></clipPath><clipPath id="clip-path-2"><path class="cls-2" d="M118.7,152.81l-.64-14.76c-6.26.26-8.88,2.14-9.68,2.89l0,0a1.93,1.93,0,0,0-.26.27h0a7,7,0,0,0-1.25,4.66c.1,2.56,1.18,4.65,2.54,5.17v0C113.31,153,118.7,152.81,118.7,152.81Z"/></clipPath><clipPath id="clip-path-3"><path class="cls-3" d="M106.72,143.22a6.09,6.09,0,0,1,4.15-3.17,28.24,28.24,0,0,1,6.55-.89l1.44-2.7-11.74,1.21-1.59,4.64Z"/></clipPath><clipPath id="clip-path-4"><path class="cls-4" d="M111.15,139.29a.82.82,0,0,0,.23.54c.13.09.43,0,.71,0a2.48,2.48,0,0,0,1.44-.51c.15-.18,0-.44,0-.67A9.9,9.9,0,0,0,111.15,139.29Z"/></clipPath><clipPath id="clip-path-5"><path class="cls-4" d="M109.21,99c-.37-.13-.58,0-.61-.4a39.63,39.63,0,0,0-.88-5.85c-.58-2-1.94-5.73.41-6.65s4.11-.43,4.43,1.91.56,3.8-.29,4.18a18.24,18.24,0,0,0-.82,6.69S110.92,99.6,109.21,99Z"/></clipPath><clipPath id="clip-path-6"><path class="cls-5" d="M90.31,108.43s4.33-1.41,7.33-2.12c2.09-.49,2.41-.18,2.41-.18-1-5.25-8.86-3.26-8.86-3.26s4.25-8.74-19.16-4.7c0,0-14.22,2.06-20.27,2.17,0,0-.79,5.7,13.65,2.94,0,0-19.65,5.64.62,3.23,0,0-15.59,4.91,3.9,2.44,0,0-10.91,4.25.42,3.27,0,0-6.6,5.66,2.82,2.33,0,0-1.11,3.7,4.81,0,0,0-4.4,3.43,4.52-1.42,0,0,2.33,1.58,6.75-1.57C89.25,111.54,91.8,110.48,90.31,108.43Z"/></clipPath></defs><path d="M114.28,111.73h.07s0,0,0,0l0,.06v0s0,0,0,0h-.33l-.06,0,0,0C114,111.72,114.23,111.73,114.28,111.73Z"/><path d="M114.7,108.8a.42.42,0,0,1,.16,0,.34.34,0,0,1,.12.06s0,0,.06,0,0,0,0-.06a.38.38,0,0,0-.37-.07s0,0,0,0a0,0,0,0,0,.06,0Z"/><path d="M115.44,105a.66.66,0,0,1,.46,0,0,0,0,0,0,0-.08.74.74,0,0,0-.53,0s0,0,0,0a0,0,0,0,0,.06,0Z"/><path d="M116.28,101.15a.43.43,0,0,1,.43.11h.06a0,0,0,0,0,0-.07.41.41,0,0,0-.23-.13.57.57,0,0,0-.29,0s0,.1,0,.08Z"/><path class="cls-1" d="M113.08,152.2l2.13,6.26a2.14,2.14,0,0,0,2.1-.48l-1.54-6.91Z"/><g class="cls-6"><path class="cls-4" d="M113.57,149s1.42,8,3.86,12l3.32-1.23-5-12.25Z"/></g><path class="cls-7" d="M110.54,112.37l-2.8.28a.35.35,0,0,0-.23.12.88.88,0,0,0-.2.56c0,.42.51.51,3.09.44a.33.33,0,0,0,.33-.26l.18-.71A.35.35,0,0,0,110.54,112.37Z"/><path class="cls-7" d="M110.41,109.22l-2.8.28a.35.35,0,0,0-.23.12.88.88,0,0,0-.2.56c0,.41.51.5,3.09.44a.33.33,0,0,0,.33-.26l.18-.72A.34.34,0,0,0,110.41,109.22Z"/><path class="cls-7" d="M109.43,105.79l-2.78.41a.3.3,0,0,0-.22.12.88.88,0,0,0-.18.57c0,.42.53.48,3.11.31a.34.34,0,0,0,.32-.28l.14-.72A.35.35,0,0,0,109.43,105.79Z"/><path class="cls-7" d="M109.46,102.1l-3.13.45a.41.41,0,0,0-.24.15,1,1,0,0,0-.21.64c0,.46.6.54,3.5.34a.38.38,0,0,0,.35-.31l.17-.81A.39.39,0,0,0,109.46,102.1Z"/><path class="cls-8" d="M108,99.7a9.28,9.28,0,0,1,2.54-.4c.87.09,1.52,0,1.54.39l-2.21.62Z"/><path class="cls-1" d="M109.15,99.83,108,99.7s.63,29.62,3.69,42l1.63.26-3.17-37Z"/><path class="cls-4" d="M113.94,144.19s-2.55-34.06-1.87-44.5a10.24,10.24,0,0,0-1.87.14h-1s1.62,34.17,3.74,45.38Z"/><ellipse class="cls-9" cx="108.11" cy="145.85" rx="2.91" ry="5.19" transform="translate(-5.87 4.54) rotate(-2.34)"/><ellipse class="cls-10" cx="108.61" cy="145.83" rx="2.91" ry="5.19" transform="translate(-5.87 4.56) rotate(-2.34)"/><ellipse class="cls-10" cx="108.68" cy="145.83" rx="2.55" ry="4.54" transform="translate(-5.87 4.57) rotate(-2.34)"/><path class="cls-2" d="M118.7,152.81l-.64-14.76c-6.26.26-8.88,2.14-9.68,2.89l0,0a1.93,1.93,0,0,0-.26.27h0a7,7,0,0,0-1.25,4.66c.1,2.56,1.18,4.65,2.54,5.17v0C113.31,153,118.7,152.81,118.7,152.81Z"/><g class="cls-11"><path class="cls-12" d="M121.22,137.74s-9.5-2.91-9.06,7.88,11.12,10.54,11.12,10.54Z"/><path class="cls-3" d="M106.72,143.22a6.09,6.09,0,0,1,4.15-3.17,28.24,28.24,0,0,1,6.55-.89l1.44-2.7-11.74,1.21-1.59,4.64Z"/><g class="cls-13"><path class="cls-14" d="M123.35,137s-8.29-.38-9.79,2.56l7.54-.31.91-1.9Z"/></g><path class="cls-15" d="M105.48,148.19s3.54,3.59,12.47,3.26l.08,3.06-11.37.43Z"/></g><ellipse class="cls-16" cx="118.44" cy="145.43" rx="4.15" ry="7.39" transform="translate(-5.85 4.96) rotate(-2.34)"/><ellipse class="cls-17" cx="112.4" cy="139.29" rx="1.56" ry="0.43" transform="matrix(0.97, -0.25, 0.25, 0.97, -31.78, 33.23)"/><ellipse class="cls-18" cx="111.24" cy="141.79" rx="0.71" ry="0.28" transform="translate(-59.27 200.16) rotate(-70.78)"/><ellipse class="cls-17" cx="111.37" cy="141.84" rx="0.71" ry="0.28" transform="translate(-59.22 200.3) rotate(-70.78)"/><ellipse class="cls-18" cx="110.96" cy="145.26" rx="0.28" ry="0.71" transform="translate(-10.68 8.82) rotate(-4.34)"/><ellipse class="cls-17" cx="111.09" cy="145.25" rx="0.28" ry="0.71" transform="translate(-10.68 8.83) rotate(-4.34)"/><ellipse class="cls-18" cx="111.53" cy="148.84" rx="0.28" ry="0.71" transform="translate(-43.15 45.56) rotate(-19.42)"/><ellipse class="cls-17" cx="111.66" cy="148.8" rx="0.28" ry="0.71" transform="translate(-43.12 45.6) rotate(-19.42)"/><path class="cls-4" d="M111.15,139.29a.82.82,0,0,0,.23.54c.13.09.43,0,.71,0a2.48,2.48,0,0,0,1.44-.51c.15-.18,0-.44,0-.67A9.9,9.9,0,0,0,111.15,139.29Z"/><g class="cls-19"><polygon class="cls-1" points="111.88 138.05 112.21 140.69 111.02 140.49 110.91 138.28 111.88 138.05"/></g><ellipse class="cls-20" cx="110.05" cy="99.55" rx="1.72" ry="0.29" transform="translate(-3.98 4.58) rotate(-2.34)"/><path class="cls-20" d="M108.31,99.08l0,.54,3.44-.14,0-.54S108.3,99.07,108.31,99.08Z"/><ellipse class="cls-4" cx="110.03" cy="99.01" rx="1.72" ry="0.29" transform="translate(-3.96 4.58) rotate(-2.34)"/><path class="cls-4" d="M109.21,99c-.37-.13-.58,0-.61-.4a39.63,39.63,0,0,0-.88-5.85c-.58-2-1.94-5.73.41-6.65s4.11-.43,4.43,1.91.56,3.8-.29,4.18a18.24,18.24,0,0,0-.82,6.69S110.92,99.6,109.21,99Z"/><g class="cls-21"><path class="cls-1" d="M109.84,100.26s.26-4.59-.67-6.92-1.93-2.63-1.9-5.38a2.64,2.64,0,0,1,2.3-2.91l-5.15.56.68,11.84Z"/><path class="cls-1" d="M113.36,90.54s-.07,1.49-1.09,1.67a4,4,0,0,1-2.21,0,4,4,0,0,1-1.65-2.37,6.39,6.39,0,0,1-.34-1.76s-.39,1.47,1,3.95,2.24,2.78,3,1.47A14,14,0,0,0,113.36,90.54Z"/></g><path class="cls-22" d="M109.19,86.42a2.19,2.19,0,0,0-.67,1.74,6.41,6.41,0,0,0,.42,1.88,3.88,3.88,0,0,0,.46,1,1.9,1.9,0,0,0,2.51.47,1.07,1.07,0,0,0,.35-.32,1.73,1.73,0,0,0,.18-1.1,16.36,16.36,0,0,0-.27-2,2.87,2.87,0,0,0-1-1.93A2,2,0,0,0,109.19,86.42Z"/><ellipse class="cls-23" cx="110.86" cy="102.9" rx="0.63" ry="1.96" transform="translate(-4.12 4.62) rotate(-2.34)"/><ellipse class="cls-23" cx="111.12" cy="106.03" rx="0.28" ry="0.66" transform="translate(-4.24 4.63) rotate(-2.34)"/><path class="cls-24" d="M116.15,141.07s.22,1.13.47,1.21a19.83,19.83,0,0,0,2.86-1.94Z"/><polygon class="cls-25" points="116.04 140.25 118.69 138.88 120.63 138.66 118.16 140.18 116.04 140.25"/><path class="cls-26" d="M116,140.25s0,.86.17,1.06a8.15,8.15,0,0,0,2.19.14l-.23-1.28Z"/><path class="cls-27" d="M120.63,138.66s.13.88.12,1.09a8.13,8.13,0,0,1-2.38,1.7l-.22-1.27Z"/><ellipse class="cls-7" cx="111.13" cy="102.78" rx="0.85" ry="1" transform="translate(-6.44 7.44) rotate(-3.73)"/><path class="cls-7" d="M111.07,101.78s2.46-.43,5.66-.66l.27,2.37-5.8.29Z"/><ellipse class="cls-7" cx="111.6" cy="106.2" rx="0.81" ry="0.85" transform="translate(-4.25 4.65) rotate(-2.34)"/><path class="cls-7" d="M116.21,105.81c0-.29-.42-.59-.32-.88-1.69.15-4.33.42-4.33.42l.07,1.69,4.5-.11C116,106.59,116.22,106.18,116.21,105.81Z"/><ellipse class="cls-7" cx="111.47" cy="109.79" rx="0.81" ry="0.53" transform="translate(1.47 221.06) rotate(-89.9)"/><path class="cls-7" d="M111.47,109a31,31,0,0,1,3.56-.24l0,1.92-3.6-.07Z"/><ellipse class="cls-7" cx="111.8" cy="112.91" rx="0.83" ry="0.73" transform="matrix(0.19, -0.98, 0.98, 0.19, -20.51, 200.89)"/><path class="cls-7" d="M114.09,113.08a5.93,5.93,0,0,0,0-.73c0-.16.35-.4.35-.55-1.34.09-2.61.28-2.61.28l0,1.65,2.61,0C114.4,113.55,114.08,113.3,114.09,113.08Z"/><path class="cls-28" d="M117.08,101.67s4,46.06,3.82,50"/><path class="cls-28" d="M116.29,105.31s4.61,42.63,4.41,46.51"/><path class="cls-28" d="M115.29,109.05s5.55,36.6,5.18,43"/><path class="cls-28" d="M114.53,111.92s6,36.39,5.77,40.28"/><path class="cls-28" d="M116.39,101.09a1.22,1.22,0,0,0-.51,1.43c.22,1.07.82,1,.82,1"/><path class="cls-28" d="M116.26,101.11a1.22,1.22,0,0,0-.51,1.43c.22,1.07.82,1,.82,1"/><path class="cls-29" d="M115.52,105a1,1,0,0,0-.41,1.17c.17.86.67.8.67.8"/><path class="cls-29" d="M115.41,105a1,1,0,0,0-.41,1.16c.18.87.67.8.67.8"/><ellipse class="cls-30" cx="116.76" cy="102.31" rx="0.74" ry="1.2" transform="translate(-6.4 7.8) rotate(-3.73)"/><ellipse class="cls-30" cx="115.91" cy="105.93" rx="0.77" ry="1.01" transform="translate(-4.23 4.83) rotate(-2.34)"/><path class="cls-29" d="M114.74,108.74s-.48.21-.45,1.1.69.84.69.84"/><path class="cls-29" d="M114.68,108.74s-.49.19-.49,1.08.66.86.66.86"/><ellipse class="cls-30" cx="114.99" cy="109.71" rx="0.96" ry="0.55" transform="translate(5.06 224.5) rotate(-89.9)"/><path class="cls-28" d="M114.16,111.81a1.12,1.12,0,0,0-.45,1.1c.07.8.59.87.59.87"/><path class="cls-28" d="M114,111.81a1.1,1.1,0,0,0-.45,1.1c.07.8.59.87.59.87"/><ellipse class="cls-30" cx="114.38" cy="112.78" rx="0.99" ry="0.53" transform="translate(-4.58 220.72) rotate(-86.82)"/><path class="cls-31" d="M80.63,151.76A15.54,15.54,0,0,1,83,155.45c-2,.59-.58,2.64-.06,2.49s.74-.43.51-1c0-.92,1.25-1.37,1.48-1s.62,1.45,1.82.58a1.6,1.6,0,0,0,.51-1.9A2.06,2.06,0,0,0,85,153.32a1.6,1.6,0,0,0-1.09.62s-.9,0-1.51-2.31Z"/><path class="cls-32" d="M86.82,156.4a2,2,0,0,1-1.5,1.34,1.94,1.94,0,0,0,.13-1.05A1.15,1.15,0,0,0,86.82,156.4Z"/><path class="cls-31" d="M83.71,154.82a.93.93,0,0,1,.22-.88,1.17,1.17,0,0,0-.45,1.33"/><path class="cls-33" d="M86.05,153.9a1.54,1.54,0,0,1-.89.94"/><path class="cls-33" d="M85.71,153.93a1.14,1.14,0,0,0-.5.56"/><path class="cls-33" d="M82.92,153a.52.52,0,0,1-.36.33"/><path class="cls-33" d="M83.16,153.36a.54.54,0,0,1-.37.33"/><path class="cls-34" d="M73.79,143.4a20.92,20.92,0,0,0,3.17,6c1.17,1.45,3.29,3.47,5,2.88s1.52-3.21,1.52-3.21.52-5.64-1.12-8.73c0,0-1.39-4.18-5.3-3S73.79,143.4,73.79,143.4Z"/><path class="cls-32" d="M84,157.31a2,2,0,0,1-1.87.76,1.84,1.84,0,0,0,.47-.94A1.15,1.15,0,0,0,84,157.31Z"/><path class="cls-31" d="M82.39,154a1.74,1.74,0,0,1,1.48.27c.56.53,1.45,2.77-.5,3.19-1.13.14-1.52-1.38-1.52-1.38S81.26,154.31,82.39,154Z"/><path class="cls-33" d="M84.23,155.68a1.55,1.55,0,0,1-1.28-.23"/><path class="cls-33" d="M84,155.41a1.17,1.17,0,0,0-.75-.11"/><ellipse class="cls-5" cx="59.98" cy="144.22" rx="15.8" ry="2.5" transform="translate(-73.07 62.41) rotate(-35.83)"/><ellipse class="cls-5" cx="65.74" cy="143.48" rx="15.8" ry="1.51" transform="translate(-73.19 68.61) rotate(-37.06)"/><path class="cls-35" d="M63.35,138.63s-6.43,4.82-6,7,6.38-2.31,9.05-5S66.67,136,63.35,138.63Z"/><path class="cls-35" d="M67.15,139.94s-6.63,4.53-6.26,6.71,6.47-2,9.26-4.56S70.59,137.48,67.15,139.94Z"/><path class="cls-36" d="M80.65,109.84s-15.63,13.6-18,26.63,17.92,14.67,20.51,4.13,5.92-24.47,4-28.95C87.21,111.65,85.54,105,80.65,109.84Z"/><path class="cls-31" d="M65.56,151.66A15.87,15.87,0,0,1,64,155.75c-1.68-1.23-2.44,1.14-2,1.47s.79.33,1.1-.2c.71-.6,1.85.15,1.7.55s-.77,1.38.65,1.79a1.61,1.61,0,0,0,1.82-.74A2.07,2.07,0,0,0,67,156.1a1.54,1.54,0,0,0-1.16-.49s-.58-.69.91-2.61Z"/><path class="cls-32" d="M65.65,159.39a2,2,0,0,1-2-.36,1.93,1.93,0,0,0,.91-.54A1.14,1.14,0,0,0,65.65,159.39Z"/><path class="cls-31" d="M65,156a.91.91,0,0,1,.83-.36,1.16,1.16,0,0,0-1.33.45"/><path class="cls-33" d="M67.16,157.27a1.55,1.55,0,0,1-1.29-.14"/><path class="cls-33" d="M66.93,157a1.11,1.11,0,0,0-.75,0"/><path class="cls-33" d="M66,154.24a.53.53,0,0,1-.48-.09"/><path class="cls-33" d="M65.83,154.64a.53.53,0,0,1-.48-.09"/><path class="cls-36" d="M68,141.14a21,21,0,0,0-2.83,6.18c-.44,1.8-.75,4.71.75,5.69s3.48-.74,3.48-.74,4.78-3,6.23-6.22c0,0,2.47-3.64-.89-6S68,141.14,68,141.14Z"/><path class="cls-32" d="M63.2,157.7a2,2,0,0,1-1.75-1,1.86,1.86,0,0,0,1-.2A1.16,1.16,0,0,0,63.2,157.7Z"/><path class="cls-31" d="M64.83,154.44a1.7,1.7,0,0,1,.68,1.34c-.08.76-1.3,2.84-2.82,1.54-.8-.81.16-2,.16-2S63.91,153.71,64.83,154.44Z"/><path class="cls-33" d="M64.64,156.9a1.54,1.54,0,0,1-.6-1.15"/><path class="cls-33" d="M64.73,156.57a1.14,1.14,0,0,0-.37-.66"/><path class="cls-37" d="M90.29,110.79s6.34-1.66,9-4.8l-9.1,1.43S86.83,110.19,90.29,110.79Z"/><path class="cls-5" d="M90.31,108.43s4.33-1.41,7.33-2.12c2.09-.49,2.41-.18,2.41-.18-1-5.25-8.86-3.26-8.86-3.26s4.25-8.74-19.16-4.7c0,0-14.22,2.06-20.27,2.17,0,0-.79,5.7,13.65,2.94,0,0-19.65,5.64.62,3.23,0,0-15.59,4.91,3.9,2.44,0,0-10.91,4.25.42,3.27,0,0-6.6,5.66,2.82,2.33,0,0-1.11,3.7,4.81,0,0,0-4.4,3.43,4.52-1.42,0,0,2.33,1.58,6.75-1.57C89.25,111.54,91.8,110.48,90.31,108.43Z"/><g class="cls-38"><path class="cls-37" d="M103,99.49S88,101,87.51,107.55,99,111.21,99,111.21s6.5-6.54,6.8-7.16S103,99.49,103,99.49Z"/></g><ellipse class="cls-39" cx="91.1" cy="103.71" rx="0.81" ry="0.22" transform="translate(-46.23 89.72) rotate(-42.89)"/><path class="cls-36" d="M82.21,103.38a10.36,10.36,0,0,1-2.91,1.14s.87,1,2.82.13S82.21,103.38,82.21,103.38Z"/><path class="cls-36" d="M81.86,104.21A10.06,10.06,0,0,1,79,105.35s.87,1,2.82.14S81.86,104.21,81.86,104.21Z"/><circle class="cls-40" cx="84.39" cy="102.91" r="3.43" transform="translate(-48.58 97.3) rotate(-48.23)"/><path d="M87.6,102.1a2.06,2.06,0,0,0-2.41-1.64,2,2,0,0,0-.76.31.68.68,0,0,1,.45.52.73.73,0,0,1-.57.86.71.71,0,0,1-.7-.27,2.1,2.1,0,0,0-.07,1,2.07,2.07,0,0,0,4.06-.78Z"/><path class="cls-5" d="M91.19,102.87s-2.2,1.67-1.3,2.69.42,2.15-2.54,2.83L86.73,106l2.56-3.21Z"/><path class="cls-37" d="M87.61,108.34s-1.92.29-1.44,1.59,1.21,2.53,3.64,1.3l-.92-2.46Z"/><path class="cls-5" d="M87.42,98.24s1.63-1.08.88-2.22a1.28,1.28,0,0,0-1.89-.28s.33-1.27,2.06-.45.76,3.48-.4,3.85Z"/><path class="cls-36" d="M83.09,115.93s9.47-4.25,17.57.89,20.28,21,15.45,18.63c0,0-2.48.73-6.08-2.34,0,0,6.27,8.36-.62,3.58l-2-1.58s3.49,6.46-4.28.4c0,0-1.38,3.38-8.13-4.2,0,0-.34,5-5-3,0,0-7.18-1.93-7-7.55"/><path class="cls-41" d="M83.09,115.93s9.47-4.25,17.57.89,20.28,21,15.45,18.63c0,0-2.48.73-6.08-2.34,0,0,6.27,8.36-.62,3.58l-2-1.58s3.49,6.46-4.28.4c0,0-1.38,3.38-8.13-4.2,0,0-.34,5-5-3,0,0-7.18-1.93-7-7.55"/><path class="cls-36" d="M88.08,124a1.09,1.09,0,0,1-.2.81c-.2.2-.65.11-.63-.18a2.58,2.58,0,0,1-.74,2.11.35.35,0,0,1-.26.15.42.42,0,0,1-.26-.14,3,3,0,0,1-.65-2.2,15.89,15.89,0,0,1,.58-4.28c.13-.47.31-1.37.81-1.61.67-.32.7.5.8,1A27.92,27.92,0,0,1,88.08,124Z"/></svg>