<svg id="_4" data-name="4" xmlns="http://www.w3.org/2000/svg" xmlns:xlink="http://www.w3.org/1999/xlink" viewBox="0 0 260 168"><defs><style>.cls-1{fill:#fffce6;}.cls-2{fill:#f9a61a;}.cls-11,.cls-3{fill:#fff;}.cls-4{fill:none;}.cls-5{fill:#663819;}.cls-6{fill:#6d3611;}.cls-7{fill:#8c4d21;}.cls-8{fill:#ffcf48;}.cls-9{clip-path:url(#clip-path);}.cls-10{fill:#ce842c;}.cls-11{stroke:#8c4d21;stroke-miterlimit:10;stroke-width:0.76px;}.cls-12{fill:#fefce6;}</style><clipPath id="clip-path"><path class="cls-1" d="M126.31,89.76s5.79,4.22,9.46,7.4c2.56,2.21,2.45,2.9,2.45,2.9,5.78-6.12-4-14.31-4-14.31S149.28,83.12,122.55,57c0,0-15.74-16.25-21.46-23.87,0,0-8,4.24,8.83,20.13,0,0-25.31-19.88-3.55,3.76,0,0-20.63-15.35.49,7.24,0,0-15.49-10-3.79,3.54,0,0-13.3-3.2-.37,5.74,0,0-5.74,2,4.45,6.13,0,0-8.41-2.45,6,4.46,0,0,.13,4.42,8.22,7.16C121.36,91.28,125.07,93.54,126.31,89.76Z"/></clipPath></defs><path class="cls-2" d="M112.28,147.09c1.56,1.32,3.66,5.82,3.66,5.82-3.16.92-.92,4.14-.09,3.91s1.16-.67.8-1.57c-.06-1.46,2-2.16,2.32-1.6s1,2.29,2.86.92a2.55,2.55,0,0,0,.82-3,3.27,3.27,0,0,0-3.45-2,2.42,2.42,0,0,0-1.72,1s-1.42.05-2.39-3.65Z"/><path class="cls-3" d="M122,154.39a3.08,3.08,0,0,1-2.36,2.12,2.94,2.94,0,0,0,.19-1.65A1.83,1.83,0,0,0,122,154.39Z"/><path class="cls-2" d="M117.14,151.92a1.46,1.46,0,0,1,.34-1.39,1.83,1.83,0,0,0-.71,2.09"/><path class="cls-4" d="M120.82,150.47a2.44,2.44,0,0,1-1.41,1.47"/><path class="cls-4" d="M120.27,150.51a1.74,1.74,0,0,0-.78.89"/><path class="cls-4" d="M115.89,149.05a.86.86,0,0,1-.57.52"/><path class="cls-4" d="M116.26,149.61a.86.86,0,0,1-.57.52"/><path class="cls-5" d="M101.51,133.93c1.25,4.59,5,9.46,5,9.46,1.83,2.27,5.17,5.45,7.83,4.52s2.4-5,2.4-5,.81-8.87-1.77-13.74c0,0-2.19-6.58-8.34-4.64S101.51,133.93,101.51,133.93Z"/><path class="cls-3" d="M117.55,155.83a3.07,3.07,0,0,1-2.93,1.2,3,3,0,0,0,.74-1.49A1.8,1.8,0,0,0,117.55,155.83Z"/><path class="cls-2" d="M115.05,150.67a2.71,2.71,0,0,1,2.33.43c.88.83,2.29,4.35-.78,5-1.78.22-2.4-2.17-2.4-2.17S113.27,151.11,115.05,150.67Z"/><path class="cls-4" d="M118,153.27a2.44,2.44,0,0,1-2-.36"/><path class="cls-4" d="M117.61,152.83a1.76,1.76,0,0,0-1.17-.16"/><ellipse class="cls-1" cx="79.78" cy="135.22" rx="24.87" ry="3.94" transform="translate(-64.06 72.3) rotate(-35.83)"/><ellipse class="cls-1" cx="88.85" cy="134.05" rx="24.87" ry="2.37" transform="translate(-62.84 80.64) rotate(-37.06)"/><path class="cls-6" d="M85.07,126.42S75,134,75.69,137.41s10-3.63,14.25-7.82S90.31,122.31,85.07,126.42Z"/><path class="cls-6" d="M91.07,128.49s-10.44,7.12-9.86,10.56,10.19-3.18,14.58-7.18S96.48,124.62,91.07,128.49Z"/><path class="cls-7" d="M112.31,81.1S87.71,102.51,84,123s28.22,23.09,32.29,6.5S125.64,91,122.64,84C122.64,84,120,73.54,112.31,81.1Z"/><path class="cls-2" d="M88.56,146.93c-.1,2-2.39,6.45-2.39,6.45-2.65-1.94-3.84,1.79-3.16,2.31s1.25.51,1.74-.32c1.12-.94,2.91.23,2.68.86s-1.22,2.18,1,2.83a2.54,2.54,0,0,0,2.87-1.18,3.26,3.26,0,0,0-.5-4,2.42,2.42,0,0,0-1.82-.77s-.91-1.09,1.44-4.11Z"/><path class="cls-3" d="M88.71,159.11a3.1,3.1,0,0,1-3.12-.58,3,3,0,0,0,1.43-.85A1.81,1.81,0,0,0,88.71,159.11Z"/><path class="cls-2" d="M87.69,153.72a1.45,1.45,0,0,1,1.31-.57,1.83,1.83,0,0,0-2.09.72"/><path class="cls-4" d="M91.08,155.76a2.39,2.39,0,0,1-2-.22"/><path class="cls-4" d="M90.72,155.35a1.81,1.81,0,0,0-1.19-.08"/><path class="cls-4" d="M89.21,151a.87.87,0,0,1-.77-.14"/><path class="cls-4" d="M89,151.63a.85.85,0,0,1-.76-.14"/><path class="cls-7" d="M92.43,130.38C89.55,134.16,88,140.1,88,140.1c-.69,2.84-1.18,7.42,1.18,9s5.47-1.17,5.47-1.17,7.53-4.76,9.81-9.78c0,0,3.89-5.74-1.4-9.43S92.43,130.38,92.43,130.38Z"/><path class="cls-3" d="M84.84,156.44a3.09,3.09,0,0,1-2.74-1.6,3,3,0,0,0,1.63-.31A1.8,1.8,0,0,0,84.84,156.44Z"/><path class="cls-2" d="M87.4,151.31a2.69,2.69,0,0,1,1.08,2.1c-.12,1.21-2,4.47-4.44,2.44-1.26-1.28.26-3.22.26-3.22S86,150.17,87.4,151.31Z"/><path class="cls-4" d="M87.11,155.19a2.44,2.44,0,0,1-.94-1.81"/><path class="cls-4" d="M87.25,154.66a1.78,1.78,0,0,0-.59-1"/><path class="cls-8" d="M123.29,91.91s8,6.57,14.39,7L127.47,88.66S120.85,86.94,123.29,91.91Z"/><path class="cls-1" d="M126.31,89.76s5.79,4.22,9.46,7.4c2.56,2.21,2.45,2.9,2.45,2.9,5.78-6.12-4-14.31-4-14.31S149.28,83.12,122.55,57c0,0-15.74-16.25-21.46-23.87,0,0-8,4.24,8.83,20.13,0,0-25.31-19.88-3.55,3.76,0,0-20.63-15.35.49,7.24,0,0-15.49-10-3.79,3.54,0,0-13.3-3.2-.37,5.74,0,0-5.74,2,4.45,6.13,0,0-8.41-2.45,6,4.46,0,0,.13,4.42,8.22,7.16C121.36,91.28,125.07,93.54,126.31,89.76Z"/><g class="cls-9"><path class="cls-8" d="M149.41,97.71S133.63,80,124.85,85.38s6,18.07,6,18.07,14.34,2.25,15.41,2.07S149.41,97.71,149.41,97.71Z"/></g><ellipse class="cls-10" cx="133.06" cy="86.41" rx="0.34" ry="1.27" transform="translate(22.35 200.05) rotate(-78.75)"/><path class="cls-7" d="M125.29,74.77s-3.24-1.5-4.14-2.67c0,0-.47,2,2.43,3.73S125.29,74.77,125.29,74.77Z"/><path class="cls-7" d="M123.9,75.1s-3.23-1.51-4.14-2.67c0,0-.47,2,2.43,3.73S123.9,75.1,123.9,75.1Z"/><circle class="cls-11" cx="127.89" cy="77.12" r="5.4"/><circle cx="128.65" cy="78.83" r="3.25"/><circle class="cls-3" cx="129.14" cy="75.48" r="1.15"/><path class="cls-1" d="M134.22,85.75s-4.16-1.25-4.64.82-2.35,2.53-6-.62l2.46-3,6.46.31Z"/><path class="cls-8" d="M123.94,86.24s-2.15-2.19-3.37-.38-2.1,3.88,1.71,5.84l2.29-3.44Z"/><path class="cls-1" d="M136.64,76.68s2.88,1.08,3.65-.93a2,2,0,0,0-1.39-2.67s1.93-.74,2.47,2.21-3.74,4.19-5.27,3Z"/><path class="cls-12" d="M122.56,73.25s7.1,7.52,11.4,6.51l1-6.29-8.13-5.56Z"/><path class="cls-7" d="M124,103.41a1.64,1.64,0,0,1-.3,1.27c-.32.32-1,.17-1-.28a4.11,4.11,0,0,1-1.16,3.33.69.69,0,0,1-.4.23.67.67,0,0,1-.42-.22,4.78,4.78,0,0,1-1-3.46,25.19,25.19,0,0,1,.92-6.74c.2-.75.49-2.16,1.28-2.53,1-.5,1.1.79,1.25,1.52A43,43,0,0,1,124,103.41Z"/><path class="cls-7" d="M113.22,90.49S125.1,93.16,135.34,92c0,0,5.4-1.91,9.24,3.77S160.34,127.2,169.49,129c0,0-11.1,6.12-19.22-8.88,0,0-5.76-6.33-17-6.17s-16-9.87-19-14.06C114.26,99.9,109.4,94.83,113.22,90.49Z"/><path class="cls-7" d="M143.61,103.81s9.26,23,13.9,27.24c0,0-10.9,4.31-20-24.82C137.52,106.23,137.35,102.89,143.61,103.81Z"/><path class="cls-7" d="M136.29,102.3s7.35,21.6,11.39,25.69c0,0-10.22,3.41-17.1-23.77C130.58,104.22,130.59,101.14,136.29,102.3Z"/><path class="cls-7" d="M129.41,103s6.24,18.29,9.67,21.75c0,0-8.65,2.89-14.5-20.12C124.58,104.63,124.58,102,129.41,103Z"/><path class="cls-7" d="M123.23,100.51s4.28,16.4,7.06,19.65c0,0-7.76,2-11.4-18.54C118.89,101.62,119.06,99.34,123.23,100.51Z"/></svg>