<svg id="Layer_1" data-name="Layer 1" xmlns="http://www.w3.org/2000/svg" xmlns:xlink="http://www.w3.org/1999/xlink" viewBox="0 0 260 168"><defs><style>.cls-1,.cls-5{fill:#fff;}.cls-1,.cls-11{stroke:#8c4d21;stroke-miterlimit:10;stroke-width:0.51px;}.cls-2{fill:#7c431c;}.cls-3{fill:#8c4d21;}.cls-4{fill:#ffcf48;}.cls-6{fill:#f9a61a;}.cls-11,.cls-7{fill:none;}.cls-8{fill:#663819;}.cls-9{fill:#fffce6;}.cls-10{clip-path:url(#clip-path);}.cls-12{clip-path:url(#clip-path-2);}.cls-13{fill:#ce842c;}</style><clipPath id="clip-path"><circle class="cls-1" cx="133.1" cy="97.31" r="3.65"/></clipPath><clipPath id="clip-path-2"><circle class="cls-1" cx="145.06" cy="97.31" r="3.65"/></clipPath></defs><path class="cls-2" d="M124.37,113.65a4.89,4.89,0,0,0-.59,1.57,4,4,0,0,0,.18,2.22,2.89,2.89,0,0,0,1.51,1.6,1,1,0,0,0,.57.09,1.09,1.09,0,0,0,.59-.51,10.36,10.36,0,0,0,1.79-5.88,1.73,1.73,0,0,0-.16-.84,1.29,1.29,0,0,0-1.23-.54C125.86,111.47,124.92,112.7,124.37,113.65Z"/><path class="cls-2" d="M153.73,113.65a5.14,5.14,0,0,1,.59,1.57,4,4,0,0,1-.18,2.22,2.88,2.88,0,0,1-1.52,1.6.9.9,0,0,1-.56.09,1.09,1.09,0,0,1-.59-.51,10.36,10.36,0,0,1-1.79-5.88,1.73,1.73,0,0,1,.16-.84,1.29,1.29,0,0,1,1.23-.54C152.24,111.47,153.18,112.7,153.73,113.65Z"/><path class="cls-3" d="M153.36,133.22c-2-17.72-3.54-23.57-3.54-23.57-2-2-10.36,1.08-10.8,1.24-.43-.16-8.8-3.22-10.79-1.24,0,0-1.59,5.85-3.54,23.57s6.88,22.85,14.31,22.87h0C146.48,156.07,155.31,150.92,153.36,133.22Z"/><path class="cls-4" d="M142.67,156.83a13.42,13.42,0,0,1,0,3.76c-1.73-.49-1.63,1.66-1.18,1.79s.74,0,.83-.5c.39-.69,1.54-.43,1.54-.07s-.21,1.35,1.06,1.26a1.39,1.39,0,0,0,1.25-1.15,1.79,1.79,0,0,0-1-1.94,1.37,1.37,0,0,0-1.08,0s-.67-.38-.05-2.38Z"/><path class="cls-5" d="M145.07,163a1.69,1.69,0,0,1-1.71.31,1.68,1.68,0,0,0,.57-.71A1,1,0,0,0,145.07,163Z"/><path class="cls-6" d="M143.52,160.48a.81.81,0,0,1,.56-.55,1,1,0,0,0-.93.77"/><path class="cls-7" d="M145.65,160.87a1.32,1.32,0,0,1-1.08.28"/><path class="cls-7" d="M145.39,160.73a1,1,0,0,0-.63.19"/><path class="cls-7" d="M143.78,158.79a.46.46,0,0,1-.42.07"/><path class="cls-7" d="M143.78,159.15a.47.47,0,0,1-.41.08"/><path class="cls-2" d="M141.48,147.6a18.08,18.08,0,0,0-.42,5.84c.19,1.58.82,4,2.32,4.37s2.58-1.65,2.58-1.65,2.95-3.89,3.16-6.9c0,0,.89-3.68-2.52-4.57S141.48,147.6,141.48,147.6Z"/><path class="cls-5" d="M142.58,162.42a1.7,1.7,0,0,1-1.71-.3,1.66,1.66,0,0,0,.78-.47A1,1,0,0,0,142.58,162.42Z"/><path class="cls-4" d="M142.91,159.3a1.45,1.45,0,0,1,1,.87c.17.64-.2,2.68-1.81,2.1-.89-.42-.49-1.7-.49-1.7S142,159,142.91,159.3Z"/><path class="cls-7" d="M143.51,161.34a1.35,1.35,0,0,1-.83-.75"/><path class="cls-7" d="M143.48,161a1,1,0,0,0-.5-.42"/><path class="cls-4" d="M135.23,156.75a13.52,13.52,0,0,0-.09,3.76c1.74-.45,1.59,1.7,1.13,1.82s-.73,0-.81-.51c-.38-.71-1.53-.48-1.54-.11s.18,1.35-1.09,1.23a1.37,1.37,0,0,1-1.22-1.18,1.77,1.77,0,0,1,1-1.91,1.34,1.34,0,0,1,1.09,0s.68-.37.1-2.38Z"/><path class="cls-5" d="M132.69,162.91a1.68,1.68,0,0,0,1.7.34,1.67,1.67,0,0,1-.56-.72A1,1,0,0,1,132.69,162.91Z"/><path class="cls-6" d="M134.3,160.38a.82.82,0,0,0-.55-.56,1,1,0,0,1,.91.79"/><path class="cls-7" d="M132.16,160.73a1.34,1.34,0,0,0,1.07.3"/><path class="cls-7" d="M132.42,160.6a.93.93,0,0,1,.62.2"/><path class="cls-7" d="M134.08,158.69a.46.46,0,0,0,.41.08"/><path class="cls-7" d="M134.06,159.05a.48.48,0,0,0,.42.09"/><path class="cls-2" d="M136.62,147.55a18.23,18.23,0,0,1,.29,5.85c-.23,1.58-.91,4-2.42,4.31S132,156,132,156s-2.86-3.95-3-7c0,0-.81-3.71,2.62-4.51S136.62,147.55,136.62,147.55Z"/><path class="cls-5" d="M135.19,162.34a1.68,1.68,0,0,0,1.72-.26,1.6,1.6,0,0,1-.76-.49A1,1,0,0,1,135.19,162.34Z"/><path class="cls-4" d="M134.93,159.21a1.51,1.51,0,0,0-1,.85c-.18.64.14,2.69,1.77,2.14.9-.39.52-1.69.52-1.69S135.89,158.92,134.93,159.21Z"/><path class="cls-7" d="M134.29,161.24a1.33,1.33,0,0,0,.85-.73"/><path class="cls-7" d="M134.33,161a1,1,0,0,1,.51-.41"/><path class="cls-8" d="M128.66,124a4.35,4.35,0,0,0,.09,1.49.74.74,0,0,0,.93.63,3.7,3.7,0,0,0,1.24-.65,14.73,14.73,0,0,0,1.15-.94l.43-.37.15.58a5.8,5.8,0,0,0,.55,1.44c.25.44.59.73.86.7a1.92,1.92,0,0,0,1-.72,10.9,10.9,0,0,0,.91-1.28l.49-.76.44.79a5.81,5.81,0,0,0,1,1.38,1.43,1.43,0,0,0,2.43-.11c.16-.24.34-.46.49-.72l.41-.79.43-.81.5.73a8,8,0,0,0,1.06,1.27,2.62,2.62,0,0,0,1.24.76c.37.06.71-.2,1-.67a5.64,5.64,0,0,0,.32-.75l.24-.81.23-.78.39.66a8.15,8.15,0,0,0,.77,1.08c.27.31.64.68.94.64s.48-.56.57-1a12.21,12.21,0,0,0,.18-1.37,8.17,8.17,0,0,1,0,1.4,3.06,3.06,0,0,1-.14.72,1.94,1.94,0,0,1-.18.35.69.69,0,0,1-.38.24,1.11,1.11,0,0,1-.82-.17,3.87,3.87,0,0,1-.59-.46,7.66,7.66,0,0,1-1-1.1l.62-.12-.18.91a8.31,8.31,0,0,1-.33.91,2.68,2.68,0,0,1-.65.85,1.67,1.67,0,0,1-1.13.36,3.38,3.38,0,0,1-1.83-.94,8.88,8.88,0,0,1-1.26-1.41l.92-.08-.45.89c-.17.3-.38.58-.57.86a2.46,2.46,0,0,1-4,.21,7,7,0,0,1-1.21-1.67l.92,0a11.55,11.55,0,0,1-1.07,1.4,2.74,2.74,0,0,1-1.74,1,1.57,1.57,0,0,1-1.06-.45,2.37,2.37,0,0,1-.57-.8,5.85,5.85,0,0,1-.53-1.71l.59.22c-.43.3-.83.62-1.29.88a4,4,0,0,1-1.5.57,1.07,1.07,0,0,1-.85-.24,1.21,1.21,0,0,1-.36-.75A4,4,0,0,1,128.66,124Z"/><path class="cls-9" d="M150.58,100.29c0,10.18-5.15,14.79-11.5,14.79s-11.5-4.61-11.5-14.79,3.88-13.63,11.5-13.63C147,86.66,150.58,90.11,150.58,100.29Z"/><path class="cls-9" d="M127.63,98.43s-3.32,13.25-5.41,14.56c0,0,1.13,1.05,3.14-.61,0,0-1.48,5.93,4.1,2.18,0,0-.79,4.1,3.92,1.48,0,0,1.83,3.31,4-.43,0,0,3,4.62,4.27.52,0,0,5.14,3.92,4.53-.61,0,0,5.67,3.57,3.05-2.18,0,0,3.06,2.79,5.93,1.13,0,0-3.4-1.48-4.88-18L137,94.25Z"/><path class="cls-3" d="M133.07,93.47a10.65,10.65,0,0,1-3.29-.53s.26,1.39,2.52,1.65S133.07,93.47,133.07,93.47Z"/><path class="cls-3" d="M132.3,94.05a10.65,10.65,0,0,1-3.29-.53s.26,1.39,2.52,1.65S132.3,94.05,132.3,94.05Z"/><circle class="cls-5" cx="133.1" cy="97.31" r="3.65"/><g class="cls-10"><path d="M133.1,96.92a2.05,2.05,0,0,0-.83.17.78.78,0,0,1,.35.65.77.77,0,0,1-.78.77.79.79,0,0,1-.69-.41,2.2,2.2,0,1,0,4.15,1A2.2,2.2,0,0,0,133.1,96.92Z"/></g><circle class="cls-11" cx="133.1" cy="97.31" r="3.65"/><path class="cls-3" d="M145.09,93.47a10.65,10.65,0,0,0,3.29-.53s-.26,1.39-2.52,1.65S145.09,93.47,145.09,93.47Z"/><path class="cls-3" d="M145.86,94.05a10.65,10.65,0,0,0,3.29-.53s-.26,1.39-2.52,1.65S145.86,94.05,145.86,94.05Z"/><circle class="cls-5" cx="145.06" cy="97.31" r="3.65"/><g class="cls-12"><path d="M145.06,96.56a2.14,2.14,0,0,0-.84.17.77.77,0,0,1,.35.65.78.78,0,0,1-1.46.36,2.2,2.2,0,1,0,1.95-1.18Z"/></g><circle class="cls-11" cx="145.06" cy="97.31" r="3.65"/><path class="cls-9" d="M140,87.36s1-2.73-.89-3.46a1.9,1.9,0,0,0-2.53,1.31s-.71-1.82,2.1-2.34,4,3.55,2.9,5Z"/><path class="cls-4" d="M149.23,103.62s.13-.61-1.88-1.05-5,.09-6-1.57a2.48,2.48,0,0,0-4.61,0c-1.05,1.66-4.05,1.14-6.06,1.57s-1.87,1.05-1.87,1.05-1,1.53,3.62,2.09a9.21,9.21,0,0,1,6.61,4.36v0h0v0a9.21,9.21,0,0,1,6.61-4.36C150.19,105.15,149.23,103.62,149.23,103.62Z"/><ellipse class="cls-13" cx="137.37" cy="101.05" rx="0.68" ry="0.2" transform="translate(-30.33 132) rotate(-46.79)"/><ellipse class="cls-13" cx="140.57" cy="101.05" rx="0.2" ry="0.68" transform="translate(-31.07 123.63) rotate(-43.21)"/><path class="cls-2" d="M120,124.18a8.15,8.15,0,0,0,.48,4.41,3.79,3.79,0,0,0,3.55,2.29,5,5,0,0,0,1.81-.64c5.38-2.87,8.75-8.44,11.15-14.05a7.68,7.68,0,0,0,.86-4.22,5,5,0,0,0-2.95,2,6,6,0,0,0,1.79-4.59.44.44,0,0,0-.15-.38c-.13-.1-.33,0-.48,0a7.84,7.84,0,0,0-3,2.55,7.07,7.07,0,0,0,2.23-4.53c-3.12.23-5.64,2.72-7.2,5.45a19.88,19.88,0,0,0-2.17,5.73c.19-1.16.26-2.08-.82-3s-.21-2.43-2.17.38A18.41,18.41,0,0,0,120,124.18Z"/><path class="cls-2" d="M158,124.18a8.15,8.15,0,0,1-.48,4.41,3.77,3.77,0,0,1-3.55,2.29,5,5,0,0,1-1.81-.64c-5.38-2.87-8.75-8.44-11.14-14.05a7.6,7.6,0,0,1-.87-4.22,5,5,0,0,1,3,2,6,6,0,0,1-1.8-4.59.47.47,0,0,1,.15-.38c.14-.1.33,0,.48,0a7.8,7.8,0,0,1,3,2.55,7.08,7.08,0,0,1-2.24-4.53c3.13.23,5.65,2.72,7.2,5.45a19.6,19.6,0,0,1,2.17,5.73c-.19-1.16-.54-2.71.82-3s1-1,2.17.38C157,118,157.71,121.18,158,124.18Z"/></svg>