<svg id="_3" data-name="3" xmlns="http://www.w3.org/2000/svg" xmlns:xlink="http://www.w3.org/1999/xlink" viewBox="0 0 260 168"><defs><style>.cls-1{fill:#fffce6;}.cls-2,.cls-4{fill:#fff;}.cls-13,.cls-2{stroke:#8c4d21;stroke-miterlimit:10;stroke-width:0.76px;}.cls-3{fill:#f9a61a;}.cls-13,.cls-5{fill:none;}.cls-6{fill:#663819;}.cls-7{fill:#6d3611;}.cls-8{fill:#8c4d21;}.cls-9{fill:#ffcf48;}.cls-10{clip-path:url(#clip-path);}.cls-11{fill:#ce842c;}.cls-12{clip-path:url(#clip-path-2);}.cls-14{fill:#fefce6;}</style><clipPath id="clip-path"><path class="cls-1" d="M127.18,80.25s7.16.08,12,.53c3.37.32,3.68,1,3.68,1,1.15-8.34-11.56-9.34-11.56-9.34S142,61.52,105.1,55.73c0,0-22.24-4.1-31.32-7,0,0-4.06,8.1,18.87,11.27,0,0-32.15-1.51-.71,5.13,0,0-25.71-.55,4.59,5.61,0,0-18.41.83-1,5.08,0,0-12.69,5.11,3,4.89,0,0-3.52,5,7.19,2.41,0,0-8.28,2.88,7.46.16,0,0,2.67,3.53,10.85,1.06C124,84.35,128.36,84.05,127.18,80.25Z"/></clipPath><clipPath id="clip-path-2"><circle class="cls-2" cx="121.14" cy="69.03" r="5.4"/></clipPath></defs><path class="cls-3" d="M112.28,147.09c1.56,1.32,3.66,5.82,3.66,5.82-3.16.92-.92,4.14-.09,3.91s1.16-.67.8-1.57c-.06-1.46,2-2.16,2.32-1.6s1,2.29,2.86.92a2.55,2.55,0,0,0,.82-3,3.27,3.27,0,0,0-3.45-2,2.42,2.42,0,0,0-1.72,1s-1.42.05-2.39-3.65Z"/><path class="cls-4" d="M122,154.39a3.08,3.08,0,0,1-2.36,2.12,2.94,2.94,0,0,0,.19-1.65A1.83,1.83,0,0,0,122,154.39Z"/><path class="cls-3" d="M117.14,151.92a1.46,1.46,0,0,1,.34-1.39,1.83,1.83,0,0,0-.71,2.09"/><path class="cls-5" d="M120.82,150.47a2.44,2.44,0,0,1-1.41,1.47"/><path class="cls-5" d="M120.27,150.51a1.74,1.74,0,0,0-.78.89"/><path class="cls-5" d="M115.89,149.05a.86.86,0,0,1-.57.52"/><path class="cls-5" d="M116.26,149.61a.86.86,0,0,1-.57.52"/><path class="cls-6" d="M101.51,133.93c1.25,4.59,5,9.46,5,9.46,1.83,2.27,5.17,5.45,7.83,4.52s2.4-5,2.4-5,.81-8.87-1.77-13.74c0,0-2.19-6.58-8.34-4.64S101.51,133.93,101.51,133.93Z"/><path class="cls-4" d="M117.55,155.83a3.07,3.07,0,0,1-2.93,1.2,3,3,0,0,0,.74-1.49A1.8,1.8,0,0,0,117.55,155.83Z"/><path class="cls-3" d="M115.05,150.67a2.71,2.71,0,0,1,2.33.43c.88.83,2.29,4.35-.78,5-1.78.22-2.4-2.17-2.4-2.17S113.27,151.11,115.05,150.67Z"/><path class="cls-5" d="M118,153.27a2.44,2.44,0,0,1-2-.36"/><path class="cls-5" d="M117.61,152.83a1.76,1.76,0,0,0-1.17-.16"/><ellipse class="cls-1" cx="79.78" cy="135.22" rx="24.87" ry="3.94" transform="translate(-64.06 72.3) rotate(-35.83)"/><ellipse class="cls-1" cx="88.85" cy="134.05" rx="24.87" ry="2.37" transform="translate(-62.84 80.64) rotate(-37.06)"/><path class="cls-7" d="M85.07,126.42S75,134,75.69,137.41s10-3.63,14.25-7.82S90.31,122.31,85.07,126.42Z"/><path class="cls-7" d="M91.07,128.49s-10.44,7.12-9.86,10.56,10.19-3.18,14.58-7.18S96.48,124.62,91.07,128.49Z"/><path class="cls-8" d="M112.31,81.1S87.71,102.51,84,123s28.22,23.09,32.29,6.5S125.64,91,122.64,84C122.64,84,120,73.54,112.31,81.1Z"/><path class="cls-3" d="M88.56,146.93c-.1,2-2.39,6.45-2.39,6.45-2.65-1.94-3.84,1.79-3.16,2.31s1.25.51,1.74-.32c1.12-.94,2.91.23,2.68.86s-1.22,2.18,1,2.83a2.54,2.54,0,0,0,2.87-1.18,3.26,3.26,0,0,0-.5-4,2.42,2.42,0,0,0-1.82-.77s-.91-1.09,1.44-4.11Z"/><path class="cls-4" d="M88.71,159.11a3.1,3.1,0,0,1-3.12-.58,3,3,0,0,0,1.43-.85A1.81,1.81,0,0,0,88.71,159.11Z"/><path class="cls-3" d="M87.69,153.72a1.45,1.45,0,0,1,1.31-.57,1.83,1.83,0,0,0-2.09.72"/><path class="cls-5" d="M91.08,155.76a2.39,2.39,0,0,1-2-.22"/><path class="cls-5" d="M90.72,155.35a1.81,1.81,0,0,0-1.19-.08"/><path class="cls-5" d="M89.21,151a.87.87,0,0,1-.77-.14"/><path class="cls-5" d="M89,151.63a.85.85,0,0,1-.76-.14"/><path class="cls-8" d="M92.43,130.38C89.55,134.16,88,140.1,88,140.1c-.69,2.84-1.18,7.42,1.18,9s5.47-1.17,5.47-1.17,7.53-4.76,9.81-9.78c0,0,3.89-5.74-1.4-9.43S92.43,130.38,92.43,130.38Z"/><path class="cls-4" d="M84.84,156.44a3.09,3.09,0,0,1-2.74-1.6,3,3,0,0,0,1.63-.31A1.8,1.8,0,0,0,84.84,156.44Z"/><path class="cls-3" d="M87.4,151.31a2.69,2.69,0,0,1,1.08,2.1c-.12,1.21-2,4.47-4.44,2.44-1.26-1.28.26-3.22.26-3.22S86,150.17,87.4,151.31Z"/><path class="cls-5" d="M87.11,155.19a2.44,2.44,0,0,1-.94-1.81"/><path class="cls-5" d="M87.25,154.66a1.78,1.78,0,0,0-.59-1"/><path class="cls-9" d="M126,83.75s10.28.74,15.79-2.63l-14.27-2.44S121.1,81.12,126,83.75Z"/><path class="cls-1" d="M127.18,80.25s7.16.08,12,.53c3.37.32,3.68,1,3.68,1,1.15-8.34-11.56-9.34-11.56-9.34S142,61.52,105.1,55.73c0,0-22.24-4.1-31.32-7,0,0-4.06,8.1,18.87,11.27,0,0-32.15-1.51-.71,5.13,0,0-25.71-.55,4.59,5.61,0,0-18.41.83-1,5.08,0,0-12.69,5.11,3,4.89,0,0-3.52,5,7.19,2.41,0,0-8.28,2.88,7.46.16,0,0,2.67,3.53,10.85,1.06C124,84.35,128.36,84.05,127.18,80.25Z"/><g class="cls-10"><path class="cls-9" d="M150.61,73.32s-23.13-5.27-27.16,4.2,15.33,11.27,15.33,11.27,13-6.48,13.75-7.25S150.61,73.32,150.61,73.32Z"/></g><ellipse class="cls-11" cx="130.73" cy="73.6" rx="1.27" ry="0.34" transform="translate(-18.68 60.06) rotate(-24.2)"/><path class="cls-8" d="M117.66,68.63s-3.51.65-4.93.23c0,0,.81,1.93,4.15,1.62S117.66,68.63,117.66,68.63Z"/><path class="cls-8" d="M116.71,69.7s-3.5.65-4.92.22c0,0,.8,1.94,4.14,1.63S116.71,69.7,116.71,69.7Z"/><circle class="cls-4" cx="121.14" cy="69.03" r="5.4"/><g class="cls-12"><circle cx="122.97" cy="70.71" r="3.25"/></g><circle class="cls-13" cx="121.14" cy="69.03" r="5.4"/><circle class="cls-4" cx="121.2" cy="66.97" r="1.15"/><path class="cls-1" d="M131.3,72.39s-4.12,1.4-3.3,3.36-.46,3.42-5.22,3l.28-3.85,5.44-3.5Z"/><path class="cls-9" d="M123.2,78.75s-3-.54-3,1.65.53,4.38,4.77,3.76L124.9,80Z"/><path class="cls-1" d="M128,63.6s3-.79,2.43-2.88a2,2,0,0,0-2.67-1.37s1.13-1.72,3.29.38-.62,5.57-2.53,5.54Z"/><path class="cls-14" d="M114.55,69s9.82,1.79,13.7-.33L124.8,62l-9.85.19Z"/><path class="cls-8" d="M124,103.41a1.64,1.64,0,0,1-.3,1.27c-.32.32-1,.17-1-.28a4.11,4.11,0,0,1-1.16,3.33.69.69,0,0,1-.4.23.67.67,0,0,1-.42-.22,4.78,4.78,0,0,1-1-3.46,25.19,25.19,0,0,1,.92-6.74c.2-.75.49-2.16,1.28-2.53,1-.5,1.1.79,1.25,1.52A43,43,0,0,1,124,103.41Z"/><path class="cls-8" d="M112.38,90.44s12.16-.38,21.78-4.1c0,0,4.75-3.18,9.89,1.36s23.11,26.54,32.42,26c0,0-9.23,8.69-20.83-3.81,0,0-7.15-4.7-18-1.74s-17.94-5.58-21.93-8.88C115.72,99.29,109.75,95.59,112.38,90.44Z"/><path class="cls-8" d="M145.13,95.76s14.71,20,20.25,22.92c0,0-9.49,6.89-25.55-19.05C139.83,99.63,138.83,96.43,145.13,95.76Z"/><path class="cls-8" d="M137.66,96.13s12.5,19.08,17.44,22c0,0-9,5.85-22.49-18.75C132.61,99.41,131.85,96.43,137.66,96.13Z"/><path class="cls-8" d="M131.17,98.52s10.6,16.15,14.78,18.65c0,0-7.65,5-19-15.87C126.9,101.3,126.25,98.78,131.17,98.52Z"/><path class="cls-8" d="M124.56,97.65s8.24,14.81,11.74,17.27c0,0-7,3.84-15.66-15.11C120.64,99.81,120.24,97.56,124.56,97.65Z"/></svg>