<svg id="_4" data-name="4" xmlns="http://www.w3.org/2000/svg" xmlns:xlink="http://www.w3.org/1999/xlink" viewBox="0 0 260 168"><defs><style>.cls-1{fill:#fffce6;}.cls-2{fill:#f9a61a;}.cls-11,.cls-3{fill:#fff;}.cls-13,.cls-4{fill:none;}.cls-5{fill:#663819;}.cls-6{fill:#6d3611;}.cls-7{fill:#8c4d21;}.cls-8{fill:#ffcf48;}.cls-9{clip-path:url(#clip-path);}.cls-10{fill:#ce842c;}.cls-11{stroke:#8c4d21;stroke-width:0.76px;}.cls-11,.cls-13{stroke-miterlimit:10;}.cls-12{fill:#fefce6;}.cls-13{stroke:#7a411a;stroke-width:0.54px;}</style><clipPath id="clip-path"><path class="cls-1" d="M101,88.51s-6.31,3.4-10.37,6c-2.84,1.85-2.82,2.55-2.82,2.55-4.91-6.84,5.89-13.64,5.89-13.64S79.1,78.84,109.11,56.53c0,0,17.77-14,24.46-20.76,0,0,7.37,5.27-11.45,18.75,0,0,27.75-16.29,3,4.21,0,0,22.5-12.44-1.46,7.1,0,0,16.69-7.83,3.28,4,0,0,13.61-1.39-.41,5.73,0,0,5.42,2.75-5.24,5.48,0,0,8.67-1.3-6.52,3.61,0,0-.73,4.37-9.12,6C105.67,90.67,101.7,92.42,101,88.51Z"/></clipPath></defs><path class="cls-2" d="M134.36,145.24c.14,2,2.5,6.41,2.5,6.41,2.62-2,3.88,1.72,3.2,2.25s-1.23.53-1.73-.29c-1.14-.92-2.91.29-2.67.91s1.25,2.16-1,2.85a2.54,2.54,0,0,1-2.89-1.12,3.26,3.26,0,0,1,.42-4,2.5,2.5,0,0,1,1.81-.8s.89-1.11-1.51-4.08Z"/><path class="cls-3" d="M134.43,157.42a3.09,3.09,0,0,0,3.11-.63,2.94,2.94,0,0,1-1.44-.83A1.81,1.81,0,0,1,134.43,157.42Z"/><path class="cls-2" d="M135.35,152a1.45,1.45,0,0,0-1.32-.55,1.83,1.83,0,0,1,2.11.68"/><path class="cls-4" d="M132,154.12a2.43,2.43,0,0,0,2-.26"/><path class="cls-4" d="M132.35,153.7a1.84,1.84,0,0,1,1.18-.1"/><path class="cls-4" d="M133.79,149.32a.83.83,0,0,0,.75-.16"/><path class="cls-4" d="M134,150a.85.85,0,0,0,.76-.16"/><path class="cls-5" d="M130.19,128.76c2.94,3.74,4.62,9.64,4.62,9.64.74,2.83,1.32,7.41-1,9s-5.49-1.07-5.49-1.07-7.61-4.63-10-9.6c0,0-4-5.67,1.23-9.46S130.19,128.76,130.19,128.76Z"/><path class="cls-3" d="M138.25,154.68A3.07,3.07,0,0,0,141,153a3,3,0,0,1-1.64-.29A1.79,1.79,0,0,1,138.25,154.68Z"/><path class="cls-2" d="M135.59,149.6a2.7,2.7,0,0,0-1,2.13c.14,1.2,2.14,4.43,4.49,2.35,1.24-1.3-.32-3.21-.32-3.21S137,148.43,135.59,149.6Z"/><path class="cls-4" d="M136,153.48a2.47,2.47,0,0,0,.91-1.83"/><path class="cls-4" d="M135.81,153a1.79,1.79,0,0,1,.56-1"/><ellipse class="cls-1" cx="147.77" cy="135.22" rx="3.94" ry="24.87" transform="translate(-48.36 175.86) rotate(-54.17)"/><ellipse class="cls-1" cx="138.7" cy="134.05" rx="2.37" ry="24.87" transform="translate(-51.87 163.93) rotate(-52.94)"/><path class="cls-6" d="M142.48,126.42s10.11,7.58,9.38,11-10-3.63-14.24-7.82S137.24,122.31,142.48,126.42Z"/><path class="cls-6" d="M136.48,128.49s10.44,7.12,9.86,10.56-10.19-3.18-14.58-7.18S131.07,124.62,136.48,128.49Z"/><path class="cls-7" d="M115.24,81.1s24.6,21.41,28.27,41.93-28.22,23.09-32.29,6.5S101.91,91,104.91,84C104.91,84,107.54,73.54,115.24,81.1Z"/><path class="cls-2" d="M111.45,148.32c-1.69,1.16-4.25,5.41-4.25,5.41,3,1.24.49,4.21-.31,3.9s-1.09-.79-.64-1.64c.22-1.45-1.72-2.36-2.14-1.84s-1.22,2.18-2.94.61a2.54,2.54,0,0,1-.5-3.06,3.26,3.26,0,0,1,3.64-1.65,2.46,2.46,0,0,1,1.61,1.15s1.4.2,2.75-3.38Z"/><path class="cls-3" d="M101,154.57a3.1,3.1,0,0,0,2.13,2.35,2.91,2.91,0,0,1,0-1.66A1.83,1.83,0,0,1,101,154.57Z"/><path class="cls-2" d="M106.12,152.62a1.47,1.47,0,0,0-.2-1.42,1.83,1.83,0,0,1,.48,2.16"/><path class="cls-4" d="M102.6,150.79a2.43,2.43,0,0,0,1.25,1.61"/><path class="cls-4" d="M103.14,150.89a1.74,1.74,0,0,1,.69,1"/><path class="cls-4" d="M107.65,149.89a.85.85,0,0,0,.52.58"/><path class="cls-4" d="M107.22,150.42a.87.87,0,0,0,.52.57"/><path class="cls-7" d="M123.53,136.36c-1.72,4.43-6,8.88-6,8.88-2,2.07-5.71,4.89-8.26,3.68s-1.86-5.27-1.86-5.27.12-8.91,3.2-13.48c0,0,2.85-6.31,8.77-3.75S123.53,136.36,123.53,136.36Z"/><path class="cls-3" d="M105.29,156.47a3.11,3.11,0,0,0,2.8,1.5,3,3,0,0,1-.59-1.56A1.81,1.81,0,0,1,105.29,156.47Z"/><path class="cls-2" d="M108.32,151.6a2.67,2.67,0,0,0-2.36.18c-1,.73-2.73,4.09.25,5.06,1.75.41,2.61-1.91,2.61-1.91S110.05,152.22,108.32,151.6Z"/><path class="cls-4" d="M105.17,153.87a2.42,2.42,0,0,0,2-.14"/><path class="cls-4" d="M105.55,153.48a1.8,1.8,0,0,1,1.18,0"/><path class="cls-8" d="M103.68,91s-8.76,5.44-15.21,5L100,87.26S106.76,86.45,103.68,91Z"/><path class="cls-1" d="M101,88.51s-6.31,3.4-10.37,6c-2.84,1.85-2.82,2.55-2.82,2.55-4.91-6.84,5.89-13.64,5.89-13.64S79.1,78.84,109.11,56.53c0,0,17.77-14,24.46-20.76,0,0,7.37,5.27-11.45,18.75,0,0,27.75-16.29,3,4.21,0,0,22.5-12.44-1.46,7.1,0,0,16.69-7.83,3.28,4,0,0,13.61-1.39-.41,5.73,0,0,5.42,2.75-5.24,5.48,0,0,8.67-1.3-6.52,3.61,0,0-.73,4.37-9.12,6C105.67,90.67,101.7,92.42,101,88.51Z"/><g class="cls-9"><path class="cls-8" d="M77,93.28s18-15.43,26-8.92-8.33,17.1-8.33,17.1-14.51.31-15.54,0S77,93.28,77,93.28Z"/></g><ellipse class="cls-10" cx="94.74" cy="84.28" rx="1.27" ry="0.34" transform="translate(-5.01 6) rotate(-3.53)"/><path class="cls-7" d="M104,73.79s3.41-1.06,4.46-2.09c0,0,.19,2.08-2.91,3.37S104,73.79,104,73.79Z"/><path class="cls-7" d="M105.33,74.3s3.41-1.06,4.46-2.09c0,0,.19,2.08-2.91,3.37S105.33,74.3,105.33,74.3Z"/><circle class="cls-11" cx="101.1" cy="75.76" r="5.4"/><circle cx="99.77" cy="76.72" r="3.25"/><circle class="cls-3" cx="100.09" cy="73.97" r="1.15"/><path class="cls-1" d="M93.68,83.47s4.29-.68,4.48,1.44,2,2.81,6,.18l-2-3.28-6.44-.56Z"/><path class="cls-8" d="M103.8,85.33s2.42-1.88,3.38.08,1.57,4.12-2.47,5.56l-1.82-3.72Z"/><path class="cls-1" d="M92.49,74.15s-3,.69-3.49-1.41a2,2,0,0,1,1.73-2.46s-1.8-1-2.74,1.87,3.15,4.64,4.82,3.73Z"/><path class="cls-12" d="M106.9,72.65s-8,5-12.16,3.47l2.34-7.05,6.29-2.29Z"/><path class="cls-7" d="M111,96.52s-3.7,15.9,6.68,26.88,38.52,25,33.43,18.26c0,0,.39-4.06-5.45-8.7,0,0,14.81,7.16,5.35-2l-3-2.6s11,3.45-.67-6.74c0,0,4.8-3.14-8.94-11.29,0,0,7.67-2-6.1-6.74,0,0-5.14-10.53-13.76-8.56"/><path class="cls-13" d="M111,96.52s-3.7,15.9,6.68,26.88,38.52,25,33.43,18.26c0,0,.39-4.06-5.45-8.7,0,0,14.81,7.16,5.35-2l-3-2.6s11,3.45-.67-6.74c0,0,4.8-3.14-8.94-11.29,0,0,7.67-2-6.1-6.74,0,0-5.14-10.53-13.76-8.56"/><path class="cls-7" d="M103.55,103.41a1.68,1.68,0,0,0,.3,1.27c.32.32,1,.17,1-.28a4.07,4.07,0,0,0,1.15,3.33.69.69,0,0,0,.4.23.67.67,0,0,0,.42-.22,4.78,4.78,0,0,0,1-3.46,25.19,25.19,0,0,0-.92-6.74c-.2-.75-.49-2.16-1.28-2.53-1-.5-1.1.79-1.25,1.52A43,43,0,0,0,103.55,103.41Z"/></svg>