<svg id="_3" data-name="3" xmlns="http://www.w3.org/2000/svg" xmlns:xlink="http://www.w3.org/1999/xlink" viewBox="0 0 260 168"><defs><style>.cls-1{fill:#fffce6;}.cls-2{fill:#f9a61a;}.cls-11,.cls-3{fill:#fff;}.cls-13,.cls-4{fill:none;}.cls-5{fill:#663819;}.cls-6{fill:#6d3611;}.cls-7{fill:#8c4d21;}.cls-8{fill:#ffcf48;}.cls-9{clip-path:url(#clip-path);}.cls-10{fill:#ce842c;}.cls-11{stroke:#8c4d21;stroke-width:0.76px;}.cls-11,.cls-13{stroke-miterlimit:10;}.cls-12{fill:#fefce6;}.cls-13{stroke:#7a411a;stroke-width:0.54px;}</style><clipPath id="clip-path"><path class="cls-1" d="M112.39,88.51s-6.3,3.4-10.37,6c-2.83,1.85-2.82,2.55-2.82,2.55-4.9-6.84,5.89-13.64,5.89-13.64s-14.57-4.63,15.43-26.94c0,0,17.78-14,24.47-20.76,0,0,7.36,5.27-11.46,18.75,0,0,27.76-16.29,3,4.21,0,0,22.51-12.44-1.46,7.1,0,0,16.69-7.83,3.28,4,0,0,13.61-1.39-.4,5.73,0,0,5.42,2.75-5.24,5.48,0,0,8.67-1.3-6.53,3.61,0,0-.72,4.37-9.11,6C117.09,90.67,113.11,92.42,112.39,88.51Z"/></clipPath></defs><path class="cls-2" d="M122.19,148.75c-1.87.83-5.15,4.55-5.15,4.55,2.77,1.77-.28,4.24-1,3.79s-.93-1-.33-1.73c.47-1.39-1.27-2.63-1.77-2.19s-1.6,1.92-3,.07a2.54,2.54,0,0,1,.06-3.1,3.26,3.26,0,0,1,3.88-1,2.42,2.42,0,0,1,1.37,1.42s1.35.45,3.32-2.83Z"/><path class="cls-3" d="M110.78,153a3.09,3.09,0,0,0,1.67,2.7,3,3,0,0,1,.27-1.65A1.81,1.81,0,0,1,110.78,153Z"/><path class="cls-2" d="M116.17,152a1.46,1.46,0,0,0,.06-1.43,1.83,1.83,0,0,1,.09,2.21"/><path class="cls-4" d="M113,149.59a2.42,2.42,0,0,0,.94,1.81"/><path class="cls-4" d="M113.56,149.78a1.77,1.77,0,0,1,.5,1.08"/><path class="cls-4" d="M118.17,149.61a.84.84,0,0,0,.4.66"/><path class="cls-4" d="M117.66,150.05a.84.84,0,0,0,.4.66"/><path class="cls-5" d="M136.22,139.15c-2.49,4-7.45,7.67-7.45,7.67-2.4,1.67-6.5,3.78-8.79,2.14s-.88-5.52-.88-5.52,1.72-8.74,5.56-12.69c0,0,4-5.7,9.31-2.11S136.22,139.15,136.22,139.15Z"/><path class="cls-3" d="M114.67,155.66a3.08,3.08,0,0,0,2.48,2,3,3,0,0,1-.3-1.63A1.8,1.8,0,0,1,114.67,155.66Z"/><path class="cls-2" d="M118.52,151.41a2.71,2.71,0,0,0-2.35-.25c-1.08.55-3.42,3.54-.66,5,1.64.71,2.9-1.41,2.9-1.41S120.11,152.34,118.52,151.41Z"/><path class="cls-4" d="M115,153.08a2.43,2.43,0,0,0,2,.22"/><path class="cls-4" d="M115.46,152.76a1.8,1.8,0,0,1,1.17.18"/><ellipse class="cls-1" cx="159.18" cy="135.22" rx="3.94" ry="24.87" transform="translate(-43.63 185.11) rotate(-54.17)"/><ellipse class="cls-1" cx="150.11" cy="134.05" rx="2.37" ry="24.87" transform="translate(-47.33 173.04) rotate(-52.94)"/><path class="cls-6" d="M153.89,126.42s10.12,7.58,9.38,11-10-3.63-14.24-7.82S148.66,122.31,153.89,126.42Z"/><path class="cls-6" d="M147.89,128.49s10.45,7.12,9.87,10.56-10.2-3.18-14.58-7.18S142.48,124.62,147.89,128.49Z"/><path class="cls-7" d="M126.66,81.1s24.59,21.41,28.27,41.93-28.22,23.09-32.29,6.5S113.32,91,116.33,84C116.33,84,119,73.54,126.66,81.1Z"/><path class="cls-2" d="M146.32,144.05c.38,2,3.24,6.07,3.24,6.07,2.36-2.28,4.05,1.26,3.45,1.86s-1.17.68-1.76-.08c-1.24-.78-2.86.63-2.55,1.22s1.5,2-.62,2.94a2.54,2.54,0,0,1-3-.78,3.26,3.26,0,0,1,0-4,2.43,2.43,0,0,1,1.7-1s.75-1.2-2-3.88Z"/><path class="cls-3" d="M147.83,156.14a3.08,3.08,0,0,0,3-1,3,3,0,0,1-1.53-.65A1.8,1.8,0,0,1,147.83,156.14Z"/><path class="cls-2" d="M148.11,150.67a1.45,1.45,0,0,0-1.38-.39,1.83,1.83,0,0,1,2.17.43"/><path class="cls-4" d="M145,153.15a2.43,2.43,0,0,0,2-.49"/><path class="cls-4" d="M145.32,152.69a1.81,1.81,0,0,1,1.17-.24"/><path class="cls-4" d="M146.23,148.17a.89.89,0,0,0,.74-.24"/><path class="cls-4" d="M146.54,148.77a.85.85,0,0,0,.73-.25"/><path class="cls-7" d="M140.25,128.18c3.35,3.36,5.72,9,5.72,9,1.07,2.72,2.18,7.2,0,9s-5.57-.42-5.57-.42-8.11-3.7-11.05-8.36c0,0-4.63-5.15.11-9.54S140.25,128.18,140.25,128.18Z"/><path class="cls-3" d="M151.3,153a3.09,3.09,0,0,0,2.5-1.95,3,3,0,0,1-1.66-.09A1.81,1.81,0,0,1,151.3,153Z"/><path class="cls-2" d="M148.06,148.24a2.66,2.66,0,0,0-.78,2.23c.28,1.18,2.64,4.15,4.73,1.81,1.08-1.43-.69-3.15-.69-3.15S149.33,146.91,148.06,148.24Z"/><path class="cls-4" d="M148.88,152a2.44,2.44,0,0,0,.68-1.92"/><path class="cls-4" d="M148.66,151.54a1.82,1.82,0,0,1,.45-1.11"/><path class="cls-8" d="M115.09,91s-8.76,5.44-15.2,5l11.5-8.81S118.17,86.45,115.09,91Z"/><path class="cls-1" d="M112.39,88.51s-6.3,3.4-10.37,6c-2.83,1.85-2.82,2.55-2.82,2.55-4.9-6.84,5.89-13.64,5.89-13.64s-14.57-4.63,15.43-26.94c0,0,17.78-14,24.47-20.76,0,0,7.36,5.27-11.46,18.75,0,0,27.76-16.29,3,4.21,0,0,22.51-12.44-1.46,7.1,0,0,16.69-7.83,3.28,4,0,0,13.61-1.39-.4,5.73,0,0,5.42,2.75-5.24,5.48,0,0,8.67-1.3-6.53,3.61,0,0-.72,4.37-9.11,6C117.09,90.67,113.11,92.42,112.39,88.51Z"/><g class="cls-9"><path class="cls-8" d="M88.43,93.28s18-15.43,26-8.92-8.32,17.1-8.32,17.1-14.52.31-15.54,0S88.43,93.28,88.43,93.28Z"/></g><ellipse class="cls-10" cx="106.15" cy="84.28" rx="1.27" ry="0.34" transform="translate(-4.99 6.7) rotate(-3.53)"/><path class="cls-7" d="M115.41,73.79s3.41-1.06,4.46-2.09c0,0,.19,2.08-2.9,3.37S115.41,73.79,115.41,73.79Z"/><path class="cls-7" d="M116.74,74.3s3.41-1.06,4.46-2.09c0,0,.19,2.08-2.9,3.37S116.74,74.3,116.74,74.3Z"/><circle class="cls-11" cx="112.52" cy="75.76" r="5.4"/><circle cx="111.18" cy="76.72" r="3.25"/><circle class="cls-3" cx="111.5" cy="73.97" r="1.15"/><path class="cls-1" d="M105.09,83.47s4.29-.68,4.48,1.44,2,2.81,6,.18l-2-3.28-6.45-.56Z"/><path class="cls-8" d="M115.21,85.33s2.42-1.88,3.39.08,1.56,4.12-2.48,5.56l-1.81-3.72Z"/><path class="cls-1" d="M103.9,74.15s-3,.69-3.48-1.41a2,2,0,0,1,1.73-2.46s-1.81-1-2.74,1.87,3.14,4.64,4.81,3.73Z"/><path class="cls-12" d="M118.32,72.65s-8,5-12.17,3.47l2.35-7.05,6.29-2.29Z"/><path class="cls-7" d="M122.43,96.52s-3.71,15.9,6.67,26.88,38.53,25,33.43,18.26c0,0,.39-4.06-5.45-8.7,0,0,14.81,7.16,5.35-2l-3-2.6s11,3.45-.68-6.74c0,0,4.8-3.14-8.94-11.29,0,0,7.68-2-6.09-6.74,0,0-5.15-10.53-13.77-8.56"/><path class="cls-13" d="M122.43,96.52s-3.71,15.9,6.67,26.88,38.53,25,33.43,18.26c0,0,.39-4.06-5.45-8.7,0,0,14.81,7.16,5.35-2l-3-2.6s11,3.45-.68-6.74c0,0,4.8-3.14-8.94-11.29,0,0,7.68-2-6.09-6.74,0,0-5.15-10.53-13.77-8.56"/><path class="cls-7" d="M115,103.41a1.64,1.64,0,0,0,.31,1.27c.31.32,1,.17,1-.28a4.1,4.1,0,0,0,1.15,3.33.71.71,0,0,0,.41.23.62.62,0,0,0,.41-.22,4.74,4.74,0,0,0,1-3.46,25.18,25.18,0,0,0-.91-6.74c-.21-.75-.5-2.16-1.28-2.53-1-.5-1.1.79-1.25,1.52A43,43,0,0,0,115,103.41Z"/></svg>