<svg id="Layer_1" data-name="Layer 1" xmlns="http://www.w3.org/2000/svg" xmlns:xlink="http://www.w3.org/1999/xlink" viewBox="0 0 260 168"><defs><style>.cls-1{fill:#fffce6;}.cls-2{fill:#8c4d21;}.cls-3{fill:#ffcf48;}.cls-4{clip-path:url(#clip-path);}.cls-5{fill:#ce842c;}.cls-6{fill:#fff;stroke:#8c4d21;stroke-width:0.7px;}.cls-6,.cls-7{stroke-miterlimit:10;}.cls-7{fill:none;stroke:#7a411a;stroke-width:0.5px;}</style><clipPath id="clip-path"><path class="cls-1" d="M111.91,132.68s6.31-2.06,10.69-3.1c3.05-.72,3.52-.26,3.52-.26-1.47-7.66-12.93-4.76-12.93-4.76s6.21-12.74-27.93-6.85c0,0-20.74,3-29.57,3.16,0,0-1.16,8.32,19.91,4.29,0,0-28.66,8.23.9,4.72,0,0-22.73,7.15,5.7,3.55,0,0-15.92,6.2.6,4.77,0,0-9.62,8.26,4.11,3.39,0,0-1.61,5.4,7,0,0,0-6.41,5,6.6-2.08,0,0,3.39,2.31,9.84-2.29C110.37,137.21,114.08,135.66,111.91,132.68Z"/></clipPath></defs><path class="cls-2" d="M97.82,134.73S75,154.56,71.63,173.57s26.14,21.39,29.92,6,8.63-35.68,5.84-42.22C107.39,137.37,105,127.72,97.82,134.73Z"/><path class="cls-3" d="M111.89,136.11s9.25-2.41,13.08-7l-13.25,2.09S106.84,135.24,111.89,136.11Z"/><path class="cls-1" d="M111.91,132.68s6.31-2.06,10.69-3.1c3.05-.72,3.52-.26,3.52-.26-1.47-7.66-12.93-4.76-12.93-4.76s6.21-12.74-27.93-6.85c0,0-20.74,3-29.57,3.16,0,0-1.16,8.32,19.91,4.29,0,0-28.66,8.23.9,4.72,0,0-22.73,7.15,5.7,3.55,0,0-15.92,6.2.6,4.77,0,0-9.62,8.26,4.11,3.39,0,0-1.61,5.4,7,0,0,0-6.41,5,6.6-2.08,0,0,3.39,2.31,9.84-2.29C110.37,137.21,114.08,135.66,111.91,132.68Z"/><g class="cls-4"><path class="cls-3" d="M130.42,119.64s-21.86,2.24-22.59,11.75,16.8,5.34,16.8,5.34,9.47-9.55,9.91-10.45S130.42,119.64,130.42,119.64Z"/></g><ellipse class="cls-5" cx="113.06" cy="125.79" rx="1.17" ry="0.32" transform="translate(-55.38 110.57) rotate(-42.89)"/><path class="cls-2" d="M100.11,125.3s-2.89,1.62-4.26,1.66c0,0,1.28,1.46,4.12.2S100.11,125.3,100.11,125.3Z"/><path class="cls-2" d="M99.6,126.52s-2.89,1.62-4.26,1.66c0,0,1.28,1.46,4.12.2S99.6,126.52,99.6,126.52Z"/><circle class="cls-6" cx="103.28" cy="124.62" r="5" transform="translate(-58.47 118.64) rotate(-48.23)"/><path d="M107.13,122.47a3,3,0,0,0-3.52-2.4,3.08,3.08,0,0,0-1.1.45,1.06,1.06,0,0,1,.66.77,1.07,1.07,0,0,1-.85,1.25,1,1,0,0,1-1-.39,3.08,3.08,0,0,0-.1,1.45,3,3,0,0,0,5.92-1.13Z"/><path class="cls-1" d="M113.19,124.56S110,127,111.3,128.49s.61,3.13-3.71,4.13l-.9-3.46,3.74-4.68Z"/><path class="cls-3" d="M108,132.54s-2.81.43-2.11,2.32,1.77,3.69,5.31,1.89l-1.33-3.59Z"/><path class="cls-1" d="M107.7,117.81s2.37-1.57,1.28-3.24a1.87,1.87,0,0,0-2.76-.41s.49-1.84,3-.65,1.11,5.08-.57,5.62Z"/><path class="cls-2" d="M101.74,149s3.43,14.74-6.19,24.91-35.69,23.17-31,16.92c0,0-.36-3.76,5-8.06,0,0-13.72,6.64-4.95-1.88l2.81-2.41s-10.23,3.2.62-6.25c0,0-4.45-2.9,8.29-10.45,0,0-7.11-1.89,5.64-6.25,0,0,4.77-9.75,12.76-7.93"/><path class="cls-7" d="M101.74,149s3.43,14.74-6.19,24.91-35.69,23.17-31,16.92c0,0-.36-3.76,5-8.06,0,0-13.72,6.64-4.95-1.88l2.81-2.41s-10.23,3.2.62-6.25c0,0-4.45-2.9,8.29-10.45,0,0-7.11-1.89,5.64-6.25,0,0,4.77-9.75,12.76-7.93"/><path class="cls-2" d="M108.66,155.39a1.59,1.59,0,0,1-.28,1.18c-.3.3-1,.16-.93-.26a3.84,3.84,0,0,1-1.07,3.09.66.66,0,0,1-.38.21.57.57,0,0,1-.38-.2,4.45,4.45,0,0,1-1-3.21,23.61,23.61,0,0,1,.85-6.25c.19-.69.46-2,1.19-2.34,1-.46,1,.73,1.16,1.41A41.39,41.39,0,0,1,108.66,155.39Z"/></svg>