<svg id="Layer_1" data-name="Layer 1" xmlns="http://www.w3.org/2000/svg" xmlns:xlink="http://www.w3.org/1999/xlink" viewBox="0 0 260 168"><defs><style>.cls-1{fill:#fffce6;}.cls-2{fill:#f9a61a;}.cls-11,.cls-3{fill:#fff;}.cls-12,.cls-4{fill:none;}.cls-5{fill:#663819;}.cls-6{fill:#6d3611;}.cls-7{fill:#8c4d21;}.cls-8{fill:#ffcf48;}.cls-9{clip-path:url(#clip-path);}.cls-10{fill:#ce842c;}.cls-11{stroke:#8c4d21;stroke-width:0.55px;}.cls-11,.cls-12{stroke-miterlimit:10;}.cls-12{stroke:#7a411a;stroke-width:0.39px;}</style><clipPath id="clip-path"><path class="cls-1" d="M84.33,106.09s5-1.62,8.44-2.44c2.4-.57,2.77-.21,2.77-.21-1.16-6-10.2-3.75-10.2-3.75s4.9-10-22-5.4c0,0-16.36,2.37-23.32,2.49,0,0-.92,6.56,15.7,3.38,0,0-22.61,6.49.71,3.72,0,0-17.93,5.65,4.5,2.81,0,0-12.56,4.89.48,3.76,0,0-7.6,6.51,3.24,2.68,0,0-1.28,4.26,5.54,0,0,0-5.06,3.94,5.2-1.63,0,0,2.67,1.82,7.76-1.81C83.11,109.67,86,108.45,84.33,106.09Z"/></clipPath></defs><path class="cls-2" d="M73.19,155.94c1.14,1,2.68,4.26,2.68,4.26-2.31.67-.68,3-.07,2.86s.85-.5.58-1.15c0-1.07,1.44-1.58,1.7-1.17s.72,1.68,2.09.67a1.85,1.85,0,0,0,.6-2.19,2.39,2.39,0,0,0-2.52-1.48,1.82,1.82,0,0,0-1.26.72s-1,0-1.74-2.67Z"/><path class="cls-3" d="M80.32,161.28a2.25,2.25,0,0,1-1.73,1.55,2.24,2.24,0,0,0,.15-1.21A1.32,1.32,0,0,0,80.32,161.28Z"/><path class="cls-2" d="M76.74,159.47a1.07,1.07,0,0,1,.25-1,1.33,1.33,0,0,0-.51,1.53"/><path class="cls-4" d="M79.44,158.41a1.8,1.8,0,0,1-1,1.08"/><path class="cls-4" d="M79,158.44a1.36,1.36,0,0,0-.57.65"/><path class="cls-4" d="M75.83,157.38a.61.61,0,0,1-.42.37"/><path class="cls-4" d="M76.1,157.79a.61.61,0,0,1-.42.38"/><path class="cls-5" d="M65.32,146.33A24.4,24.4,0,0,0,69,153.24c1.34,1.66,3.78,4,5.73,3.3s1.75-3.69,1.75-3.69.6-6.48-1.29-10c0,0-1.6-4.81-6.1-3.39S65.32,146.33,65.32,146.33Z"/><path class="cls-3" d="M77.05,162.33a2.26,2.26,0,0,1-2.15.88,2.13,2.13,0,0,0,.54-1.09A1.33,1.33,0,0,0,77.05,162.33Z"/><path class="cls-2" d="M75.22,158.56a2,2,0,0,1,1.7.31c.64.61,1.67,3.18-.57,3.66-1.3.17-1.75-1.58-1.75-1.58S73.91,158.89,75.22,158.56Z"/><path class="cls-4" d="M77.34,160.46a1.79,1.79,0,0,1-1.47-.26"/><path class="cls-4" d="M77.09,160.14a1.37,1.37,0,0,0-.86-.12"/><ellipse class="cls-1" cx="49.44" cy="147.27" rx="18.18" ry="2.88" transform="translate(-76.86 56.81) rotate(-35.83)"/><ellipse class="cls-1" cx="56.07" cy="146.41" rx="18.18" ry="1.74" transform="translate(-76.92 63.38) rotate(-37.06)"/><path class="cls-6" d="M53.31,140.84s-7.4,5.54-6.86,8,7.34-2.65,10.41-5.72S57.13,137.83,53.31,140.84Z"/><path class="cls-6" d="M57.69,142.34s-7.63,5.21-7.21,7.73,7.45-2.33,10.66-5.25S61.65,139.52,57.69,142.34Z"/><path class="cls-7" d="M73.21,107.71s-18,15.65-20.66,30.65,20.63,16.87,23.6,4.75S83,115,80.76,109.79C80.76,109.79,78.84,102.18,73.21,107.71Z"/><path class="cls-2" d="M55.85,155.83c-.07,1.49-1.74,4.71-1.74,4.71-1.94-1.42-2.81,1.31-2.31,1.69s.91.37,1.27-.23c.82-.69,2.12.17,2,.63s-.89,1.59.74,2.06a1.85,1.85,0,0,0,2.1-.86,2.38,2.38,0,0,0-.36-2.9,1.83,1.83,0,0,0-1.34-.56s-.66-.79,1.06-3Z"/><path class="cls-3" d="M56,164.73a2.25,2.25,0,0,1-2.28-.42,2.26,2.26,0,0,0,1-.62A1.32,1.32,0,0,0,56,164.73Z"/><path class="cls-2" d="M55.22,160.79a1.06,1.06,0,0,1,1-.42,1.32,1.32,0,0,0-1.52.53"/><path class="cls-4" d="M57.7,162.28a1.76,1.76,0,0,1-1.48-.16"/><path class="cls-4" d="M57.43,162a1.32,1.32,0,0,0-.86-.06"/><path class="cls-4" d="M56.33,158.8a.63.63,0,0,1-.56-.11"/><path class="cls-4" d="M56.16,159.26a.62.62,0,0,1-.55-.1"/><path class="cls-7" d="M58.68,143.73a24.07,24.07,0,0,0-3.25,7.1c-.5,2.08-.86,5.43.87,6.56s4-.86,4-.86,5.5-3.48,7.17-7.15c0,0,2.84-4.19-1-6.9S58.68,143.73,58.68,143.73Z"/><path class="cls-3" d="M53.13,162.78a2.25,2.25,0,0,1-2-1.17,2.21,2.21,0,0,0,1.19-.23A1.34,1.34,0,0,0,53.13,162.78Z"/><path class="cls-2" d="M55,159a2,2,0,0,1,.79,1.54c-.09.88-1.5,3.26-3.25,1.78-.92-.94.19-2.36.19-2.36S54,158.19,55,159Z"/><path class="cls-4" d="M54.8,161.86a1.77,1.77,0,0,1-.69-1.32"/><path class="cls-4" d="M54.9,161.48a1.34,1.34,0,0,0-.43-.76"/><path class="cls-8" d="M84.31,108.8s7.3-1.9,10.33-5.52l-10.46,1.65S80.33,108.12,84.31,108.8Z"/><path class="cls-1" d="M84.33,106.09s5-1.62,8.44-2.44c2.4-.57,2.77-.21,2.77-.21-1.16-6-10.2-3.75-10.2-3.75s4.9-10-22-5.4c0,0-16.36,2.37-23.32,2.49,0,0-.92,6.56,15.7,3.38,0,0-22.61,6.49.71,3.72,0,0-17.93,5.65,4.5,2.81,0,0-12.56,4.89.48,3.76,0,0-7.6,6.51,3.24,2.68,0,0-1.28,4.26,5.54,0,0,0-5.06,3.94,5.2-1.63,0,0,2.67,1.82,7.76-1.81C83.11,109.67,86,108.45,84.33,106.09Z"/><g class="cls-9"><path class="cls-8" d="M98.94,95.81s-17.25,1.77-17.83,9.27,13.25,4.21,13.25,4.21,7.48-7.53,7.83-8.24S98.94,95.81,98.94,95.81Z"/></g><ellipse class="cls-10" cx="85.24" cy="100.66" rx="0.93" ry="0.25" transform="translate(-45.72 84.92) rotate(-42.89)"/><path class="cls-7" d="M75,100.28a11.73,11.73,0,0,1-3.36,1.31s1,1.15,3.25.15S75,100.28,75,100.28Z"/><path class="cls-7" d="M74.61,101.24a11.64,11.64,0,0,1-3.35,1.31s1,1.15,3.25.15S74.61,101.24,74.61,101.24Z"/><circle class="cls-11" cx="77.52" cy="99.74" r="3.94" transform="translate(-48.51 91.12) rotate(-48.23)"/><path d="M81.22,98.81a2.39,2.39,0,0,0-3.65-1.54.85.85,0,0,1,.52.61.83.83,0,0,1-1.47.68,2.3,2.3,0,0,0-.07,1.14,2.38,2.38,0,1,0,4.67-.89Z"/><path class="cls-1" d="M85.34,99.69s-2.52,1.93-1.49,3.1.48,2.47-2.93,3.26l-.71-2.73,3-3.7Z"/><path class="cls-8" d="M81.23,106s-2.22.33-1.66,1.83,1.39,2.91,4.18,1.49l-1-2.83Z"/><path class="cls-1" d="M81,94.37s1.87-1.25,1-2.56a1.48,1.48,0,0,0-2.18-.32S80.23,90,82.21,91s.88,4-.45,4.43Z"/><path class="cls-7" d="M76.89,117.46s-.94,11.91-10.6,17.25S33.91,143.6,39,140c0,0,.62-2.92,5.72-4.85,0,0-11.91,1.7-3.28-2.6l2.69-1.14s-8.45,0,2-4.55c0,0-2.66-3.25,8.73-5.88,0,0-4.9-3.12,5.73-3.35,0,0,5.92-6.19,11.49-2.91"/><path class="cls-12" d="M76.89,117.46s-.94,11.91-10.6,17.25S33.91,143.6,39,140c0,0,.62-2.92,5.72-4.85,0,0-11.91,1.7-3.28-2.6l2.69-1.14s-8.45,0,2-4.55c0,0-2.66-3.25,8.73-5.88,0,0-4.9-3.12,5.73-3.35,0,0,5.92-6.19,11.49-2.91"/><path class="cls-7" d="M81.76,124a1.18,1.18,0,0,1-.22.92c-.23.24-.75.13-.73-.2a3,3,0,0,1-.85,2.43.42.42,0,0,1-.29.17.45.45,0,0,1-.3-.16,3.44,3.44,0,0,1-.76-2.53,18.72,18.72,0,0,1,.67-4.93c.15-.54.36-1.58.94-1.85.76-.36.8.58.91,1.11A30.46,30.46,0,0,1,81.76,124Z"/></svg>