<svg id="Layer_1" data-name="Layer 1" xmlns="http://www.w3.org/2000/svg" xmlns:xlink="http://www.w3.org/1999/xlink" viewBox="0 0 260 168"><defs><style>.cls-1{fill:#fffce6;}.cls-2{fill:#f9a61a;}.cls-11,.cls-3{fill:#fff;}.cls-12,.cls-4{fill:none;}.cls-5{fill:#663819;}.cls-6{fill:#6d3611;}.cls-7{fill:#8c4d21;}.cls-8{fill:#ffcf48;}.cls-9{clip-path:url(#clip-path);}.cls-10{fill:#ce842c;}.cls-11{stroke:#8c4d21;stroke-width:0.48px;}.cls-11,.cls-12{stroke-miterlimit:10;}.cls-12{stroke:#7a411a;stroke-width:0.34px;}</style><clipPath id="clip-path"><path class="cls-1" d="M90.31,108.43s4.33-1.41,7.33-2.12c2.09-.49,2.41-.18,2.41-.18-1-5.25-8.86-3.26-8.86-3.26s4.25-8.74-19.16-4.7c0,0-14.22,2.06-20.27,2.17,0,0-.79,5.7,13.65,2.94,0,0-19.65,5.64.62,3.23,0,0-15.59,4.91,3.9,2.44,0,0-10.91,4.25.42,3.27,0,0-6.6,5.66,2.82,2.33,0,0-1.11,3.7,4.81,0,0,0-4.4,3.43,4.52-1.42,0,0,2.33,1.58,6.75-1.57C89.25,111.54,91.8,110.48,90.31,108.43Z"/></clipPath></defs><path class="cls-2" d="M80.63,151.76A15.54,15.54,0,0,1,83,155.45c-2,.59-.58,2.64-.06,2.49s.74-.43.51-1c0-.92,1.25-1.37,1.48-1s.62,1.45,1.82.58a1.6,1.6,0,0,0,.51-1.9A2.06,2.06,0,0,0,85,153.32a1.6,1.6,0,0,0-1.09.62s-.9,0-1.51-2.31Z"/><path class="cls-3" d="M86.82,156.4a2,2,0,0,1-1.5,1.34,1.94,1.94,0,0,0,.13-1.05A1.15,1.15,0,0,0,86.82,156.4Z"/><path class="cls-2" d="M83.71,154.82a.93.93,0,0,1,.22-.88,1.17,1.17,0,0,0-.45,1.33"/><path class="cls-4" d="M86.05,153.9a1.54,1.54,0,0,1-.89.94"/><path class="cls-4" d="M85.71,153.93a1.14,1.14,0,0,0-.5.56"/><path class="cls-4" d="M82.92,153a.52.52,0,0,1-.36.33"/><path class="cls-4" d="M83.16,153.36a.54.54,0,0,1-.37.33"/><path class="cls-5" d="M73.79,143.4a20.92,20.92,0,0,0,3.17,6c1.17,1.45,3.29,3.47,5,2.88s1.52-3.21,1.52-3.21.52-5.64-1.12-8.73c0,0-1.39-4.18-5.3-3S73.79,143.4,73.79,143.4Z"/><path class="cls-3" d="M84,157.31a2,2,0,0,1-1.87.76,1.84,1.84,0,0,0,.47-.94A1.15,1.15,0,0,0,84,157.31Z"/><path class="cls-2" d="M82.39,154a1.74,1.74,0,0,1,1.48.27c.56.53,1.45,2.77-.5,3.19-1.13.14-1.52-1.38-1.52-1.38S81.26,154.31,82.39,154Z"/><path class="cls-4" d="M84.23,155.68a1.55,1.55,0,0,1-1.28-.23"/><path class="cls-4" d="M84,155.41a1.17,1.17,0,0,0-.75-.11"/><ellipse class="cls-1" cx="59.98" cy="144.22" rx="15.8" ry="2.5" transform="translate(-73.07 62.41) rotate(-35.83)"/><ellipse class="cls-1" cx="65.74" cy="143.48" rx="15.8" ry="1.51" transform="translate(-73.19 68.61) rotate(-37.06)"/><path class="cls-6" d="M63.35,138.63s-6.43,4.82-6,7,6.38-2.31,9.05-5S66.67,136,63.35,138.63Z"/><path class="cls-6" d="M67.15,139.94s-6.63,4.53-6.26,6.71,6.47-2,9.26-4.56S70.59,137.48,67.15,139.94Z"/><path class="cls-7" d="M80.65,109.84s-15.63,13.6-18,26.63,17.92,14.67,20.51,4.13,5.92-24.47,4-28.95C87.21,111.65,85.54,105,80.65,109.84Z"/><path class="cls-2" d="M65.56,151.66A15.87,15.87,0,0,1,64,155.75c-1.68-1.23-2.44,1.14-2,1.47s.79.33,1.1-.2c.71-.6,1.85.15,1.7.55s-.77,1.38.65,1.79a1.61,1.61,0,0,0,1.82-.74A2.07,2.07,0,0,0,67,156.1a1.54,1.54,0,0,0-1.16-.49s-.58-.69.91-2.61Z"/><path class="cls-3" d="M65.65,159.39a2,2,0,0,1-2-.36,1.93,1.93,0,0,0,.91-.54A1.14,1.14,0,0,0,65.65,159.39Z"/><path class="cls-2" d="M65,156a.91.91,0,0,1,.83-.36,1.16,1.16,0,0,0-1.33.45"/><path class="cls-4" d="M67.16,157.27a1.55,1.55,0,0,1-1.29-.14"/><path class="cls-4" d="M66.93,157a1.11,1.11,0,0,0-.75,0"/><path class="cls-4" d="M66,154.24a.53.53,0,0,1-.48-.09"/><path class="cls-4" d="M65.83,154.64a.53.53,0,0,1-.48-.09"/><path class="cls-7" d="M68,141.14a21,21,0,0,0-2.83,6.18c-.44,1.8-.75,4.71.75,5.69s3.48-.74,3.48-.74,4.78-3,6.23-6.22c0,0,2.47-3.64-.89-6S68,141.14,68,141.14Z"/><path class="cls-3" d="M63.2,157.7a2,2,0,0,1-1.75-1,1.86,1.86,0,0,0,1-.2A1.16,1.16,0,0,0,63.2,157.7Z"/><path class="cls-2" d="M64.83,154.44a1.7,1.7,0,0,1,.68,1.34c-.08.76-1.3,2.84-2.82,1.54-.8-.81.16-2,.16-2S63.91,153.71,64.83,154.44Z"/><path class="cls-4" d="M64.64,156.9a1.54,1.54,0,0,1-.6-1.15"/><path class="cls-4" d="M64.73,156.57a1.14,1.14,0,0,0-.37-.66"/><path class="cls-8" d="M90.29,110.79s6.34-1.66,9-4.8l-9.1,1.43S86.83,110.19,90.29,110.79Z"/><path class="cls-1" d="M90.31,108.43s4.33-1.41,7.33-2.12c2.09-.49,2.41-.18,2.41-.18-1-5.25-8.86-3.26-8.86-3.26s4.25-8.74-19.16-4.7c0,0-14.22,2.06-20.27,2.17,0,0-.79,5.7,13.65,2.94,0,0-19.65,5.64.62,3.23,0,0-15.59,4.91,3.9,2.44,0,0-10.91,4.25.42,3.27,0,0-6.6,5.66,2.82,2.33,0,0-1.11,3.7,4.81,0,0,0-4.4,3.43,4.52-1.42,0,0,2.33,1.58,6.75-1.57C89.25,111.54,91.8,110.48,90.31,108.43Z"/><g class="cls-9"><path class="cls-8" d="M103,99.49S88,101,87.51,107.55,99,111.21,99,111.21s6.5-6.54,6.8-7.16S103,99.49,103,99.49Z"/></g><ellipse class="cls-10" cx="91.1" cy="103.71" rx="0.81" ry="0.22" transform="translate(-46.23 89.72) rotate(-42.89)"/><path class="cls-7" d="M82.21,103.38a10.36,10.36,0,0,1-2.91,1.14s.87,1,2.82.13S82.21,103.38,82.21,103.38Z"/><path class="cls-7" d="M81.86,104.21A10.06,10.06,0,0,1,79,105.35s.87,1,2.82.14S81.86,104.21,81.86,104.21Z"/><circle class="cls-11" cx="84.39" cy="102.91" r="3.43" transform="translate(-48.58 97.3) rotate(-48.23)"/><path d="M87.6,102.1a2.06,2.06,0,0,0-2.41-1.64,2,2,0,0,0-.76.31.68.68,0,0,1,.45.52.73.73,0,0,1-.57.86.71.71,0,0,1-.7-.27,2.1,2.1,0,0,0-.07,1,2.07,2.07,0,0,0,4.06-.78Z"/><path class="cls-1" d="M91.19,102.87s-2.2,1.67-1.3,2.69.42,2.15-2.54,2.83L86.73,106l2.56-3.21Z"/><path class="cls-8" d="M87.61,108.34s-1.92.29-1.44,1.59,1.21,2.53,3.64,1.3l-.92-2.46Z"/><path class="cls-1" d="M87.42,98.24s1.63-1.08.88-2.22a1.28,1.28,0,0,0-1.89-.28s.33-1.27,2.06-.45.76,3.48-.4,3.85Z"/><path class="cls-7" d="M83.09,115.93s9.47-4.25,17.57.89,20.28,21,15.45,18.63c0,0-2.48.73-6.08-2.34,0,0,6.27,8.36-.62,3.58l-2-1.58s3.49,6.46-4.28.4c0,0-1.38,3.38-8.13-4.2,0,0-.34,5-5-3,0,0-7.18-1.93-7-7.55"/><path class="cls-12" d="M83.09,115.93s9.47-4.25,17.57.89,20.28,21,15.45,18.63c0,0-2.48.73-6.08-2.34,0,0,6.27,8.36-.62,3.58l-2-1.58s3.49,6.46-4.28.4c0,0-1.38,3.38-8.13-4.2,0,0-.34,5-5-3,0,0-7.18-1.93-7-7.55"/><path class="cls-7" d="M88.08,124a1.09,1.09,0,0,1-.2.81c-.2.2-.65.11-.63-.18a2.58,2.58,0,0,1-.74,2.11.35.35,0,0,1-.26.15.42.42,0,0,1-.26-.14,3,3,0,0,1-.65-2.2,15.89,15.89,0,0,1,.58-4.28c.13-.47.31-1.37.81-1.61.67-.32.7.5.8,1A27.92,27.92,0,0,1,88.08,124Z"/></svg>