<svg id="Layer_1" data-name="Layer 1" xmlns="http://www.w3.org/2000/svg" xmlns:xlink="http://www.w3.org/1999/xlink" viewBox="0 0 260 168"><defs><style>.cls-1{fill:#ce842c;}.cls-2{fill:#db9233;}.cls-3{clip-path:url(#clip-path);}.cls-4{fill:#c47a2a;}.cls-5{clip-path:url(#clip-path-2);}.cls-6{fill:#b56d16;}</style><clipPath id="clip-path"><rect class="cls-1" x="13.99" y="158.86" width="232.22" height="20.03"/></clipPath><clipPath id="clip-path-2"><polygon class="cls-2" points="205.96 128.34 141.31 128.34 118.89 128.34 54.24 128.34 0.2 157.03 118.89 157.03 141.31 157.03 260 157.03 205.96 128.34"/></clipPath></defs><rect class="cls-1" x="13.99" y="158.86" width="232.22" height="20.03"/><g class="cls-3"><rect class="cls-4" x="5.15" y="155.8" width="247.39" height="10.63"/></g><polygon class="cls-2" points="205.96 128.34 141.31 128.34 118.89 128.34 54.24 128.34 0.2 157.03 118.89 157.03 141.31 157.03 260 157.03 205.96 128.34"/><g class="cls-5"><rect class="cls-1" x="11.26" y="146.05" width="241.28" height="0.89"/><rect class="cls-1" x="12.35" y="134.95" width="241.28" height="0.89"/></g><rect class="cls-6" x="0.2" y="157.03" width="259.8" height="7.13"/></svg>