<svg id="Layer_1" data-name="Layer 1" xmlns="http://www.w3.org/2000/svg" xmlns:xlink="http://www.w3.org/1999/xlink" viewBox="0 0 260 168"><defs><style>.cls-1{fill:#ce9a67;}.cls-2{fill:#edc596;}.cls-3{clip-path:url(#clip-path);}.cls-4{fill:#c68d59;}.cls-5{clip-path:url(#clip-path-2);}.cls-6{opacity:0.24;}.cls-7{fill:none;stroke:#ddb083;stroke-miterlimit:10;stroke-width:0.16px;}</style><clipPath id="clip-path"><path class="cls-1" d="M81.07,128s-.69,5.35-1.1,7,4.17,4.57,12,5.15a83.84,83.84,0,0,0,13.41,0,29.72,29.72,0,0,0,8.76-.84c4.13-1.16,5.48-.77,5.55-1.48s-1.85-9.86-1.85-9.86Z"/></clipPath><clipPath id="clip-path-2"><ellipse class="cls-2" cx="99.44" cy="127.98" rx="18.37" ry="4.39"/></clipPath></defs><path class="cls-1" d="M81.07,128s-.69,5.35-1.1,7,4.17,4.57,12,5.15a83.84,83.84,0,0,0,13.41,0,29.72,29.72,0,0,0,8.76-.84c4.13-1.16,5.48-.77,5.55-1.48s-1.85-9.86-1.85-9.86Z"/><g class="cls-3"><path class="cls-4" d="M115.72,132.06a3.21,3.21,0,0,0-.07,2.31c.45,2.49-.12,5.07.23,7.58a.47.47,0,0,0,.12.28.44.44,0,0,0,.34,0c.83-.14,5-.14,4-1.66a16.63,16.63,0,0,0-1.58-1.56,6.69,6.69,0,0,1-1.4-2.51c-.26-.75-.53-1.49-.79-2.24C116.41,134,115.58,132.28,115.72,132.06Z"/><path class="cls-4" d="M80.29,138.57a25.27,25.27,0,0,1,2.38-6.17,6.34,6.34,0,0,1-.17,1.37c-.62,3.24.19,6.76-1.11,9.8a3.88,3.88,0,0,1-2.86-2.89"/><path class="cls-4" d="M86.43,142.31a74.62,74.62,0,0,1,2.24-9.48,34,34,0,0,1-.1,4.84,8,8,0,0,0,0,1.83,12.3,12.3,0,0,0,1.07,2.93,5,5,0,0,1,.22,3.71.93.93,0,0,1-.43.52,1,1,0,0,1-.64-.06,5.91,5.91,0,0,1-1.77-.8,2,2,0,0,1-.88-1.65"/><path class="cls-4" d="M111.56,142.12c-1.47-2.25-1.16-5.23-2.19-7.72a3.76,3.76,0,0,0,.18,2.35,10.86,10.86,0,0,1-.25,4.46,1.3,1.3,0,0,1-.28.68,1.18,1.18,0,0,1-.59.27,9.5,9.5,0,0,1-2.37.24.54.54,0,0,1-.35-.09.55.55,0,0,1-.14-.33l-1.26-6.91c-.73,2.14.66,4.78-.61,6.64a1.56,1.56,0,0,1-.91.69.85.85,0,0,1-1-.46,1.83,1.83,0,0,1,0-.7,9.11,9.11,0,0,0-.39-2.11c-.26-1.35,0-2.77-.31-4.11a12.84,12.84,0,0,0-1,5.51,2.08,2.08,0,0,1,0,.66,1.25,1.25,0,0,1-.61.71c-.94.52-2.11.12-3.1-.29l-1.14-.46a.8.8,0,0,1-.35-.22.81.81,0,0,1-.12-.46,50.32,50.32,0,0,1,0-5.89,7.8,7.8,0,0,0-.76,2.66c-.11,1-.06,2.22-.81,2.93a12.7,12.7,0,0,1-1.46.9,4.81,4.81,0,0,0-1.49,2.75c6.9,2.2,14.26,2.42,21.5,2.44a5.36,5.36,0,0,0,2.67-.46s.11-.06.13-.12a.27.27,0,0,0,0-.19,4.9,4.9,0,0,0-2-2.13"/></g><ellipse class="cls-2" cx="99.44" cy="127.98" rx="18.37" ry="4.39"/><g class="cls-5"><g class="cls-6"><path class="cls-7" d="M111.12,125.13a8,8,0,0,1,2.31.78c.69.36,1.42,1,1.24,1.79a1.78,1.78,0,0,1-.9,1c-2.3,1.46-5.12,1.81-7.84,2a88.12,88.12,0,0,1-11.83,0,26,26,0,0,1-9.64-2.08,1.26,1.26,0,0,1-.64-.51.89.89,0,0,1,.22-1,2.35,2.35,0,0,1,.95-.53c.7-.26,1.41-.49,2.13-.68"/><path class="cls-7" d="M111.77,125.93a1.15,1.15,0,0,1,.64.54,1.22,1.22,0,0,1-.33,1.26,4.74,4.74,0,0,1-2.58,1.13l-2.84.6"/><path class="cls-7" d="M115.52,126.58a1.34,1.34,0,0,1,.33,1.44,3.42,3.42,0,0,1-.91,1.26,4.1,4.1,0,0,1-.94.73,5.09,5.09,0,0,1-1.49.42A70.36,70.36,0,0,1,102,131.57a36.43,36.43,0,0,1-5-.3"/></g></g></svg>