<svg id="Layer_1" data-name="Layer 1" xmlns="http://www.w3.org/2000/svg" viewBox="0 0 274.53 317.15"><defs><style>.cls-1{fill:#955333;}.cls-2{fill:#a86240;}.cls-3{fill:#904e2b;}.cls-4{fill:#965633;}.cls-5{fill:#fbbc86;}.cls-6{fill:#9a5a36;}.cls-7{fill:#fcbd87;}.cls-8{fill:#fff;}.cls-9{fill:#231f20;}.cls-10{fill:#753313;}.cls-11{fill:#562810;}</style></defs><title>11_big_small_monkey</title><path class="cls-1" d="M120.14,219.34a4.52,4.52,0,0,0,3.2-8.42c-1.54-.74-36.2-18-40.23-65.1a72.45,72.45,0,0,1,.5-15.58c2.52-19.26,5.51-66-21-84-19.66-13.33-40.82-8.31-52.16,2C-.5,58.14-3,72,3.77,84.51,9,94,18.24,99.46,28.6,99.1c9.72-.34,18.34-5.66,21.95-13.54,2.08-4.55,4.21-13.89-5-25.39a4.51,4.51,0,1,0-7,5.65c4.65,5.8,6,11.33,3.85,16s-7.82,8-14.05,8.27c-7,.24-13-3.36-16.59-9.89-4.78-8.75-3-18.2,4.78-25.26,8.8-8,25.39-11.79,41-1.2,23,15.6,19,61.62,17.16,75.35a80.73,80.73,0,0,0-.54,17.52c4.49,52.51,43.68,71.7,45.35,72.49A4.32,4.32,0,0,0,120.14,219.34Z"/><path class="cls-2" d="M267.37,194.93c2.75,3.2,6.5.91,7.07-2.57.49-3-1.17-6.3-2.7-8.76A16.75,16.75,0,0,0,261.07,176a17,17,0,0,0-18.64,10.49A26.94,26.94,0,0,0,241.1,194a16.55,16.55,0,0,0,.57,6.47,6.68,6.68,0,0,0,4.43,4.44c2.12.51,4.67-.75,5.1-2.88-.1,2.29,2.81,3.86,4.95,3s3.26-3.3,3.26-5.59a4.64,4.64,0,0,0,8-4.49Z"/><path class="cls-3" d="M188.77,128.15c.15.72,10.28,3.12,11.18,3.45a135.2,135.2,0,0,1,25,11.85,96.14,96.14,0,0,1,18.2,14.18A72.8,72.8,0,0,1,251,167c1.06,1.5,1.85,3.53,3,4.89,1.68,2,4.73,3.09,6.88,4.48,2.42,1.56,4.74,3.59,5.61,6.33a29,29,0,0,0-5.74-3.06,22.19,22.19,0,0,1,.33,6,11.68,11.68,0,0,0-5-3.16,31.13,31.13,0,0,1-2.74,8.23l-2.74-6.43-3.77,9.07a28.17,28.17,0,0,1-.7-7.71l-5.11,6,1-8.7c.36-3,.1-4.57-1.78-6.86-1.4-1.7-2.73-3.44-4.18-5.1a91.65,91.65,0,0,0-11.24-11c-8.92-7.26-20-12.8-31.74-11.91Z"/><path class="cls-2" d="M26.12,110.84c-4.23,0-5-4.31-2.7-7,1.93-2.33,5.53-3.25,8.39-3.7a16.68,16.68,0,0,1,12.76,3,17,17,0,0,1,4.3,21A26.84,26.84,0,0,1,44.06,130a16.64,16.64,0,0,1-5.26,3.81,6.67,6.67,0,0,1-6.26-.44c-1.77-1.27-2.49-4-1.16-5.74-1.67,1.58-4.76.41-5.52-1.75s.34-4.63,2.08-6.13a4.64,4.64,0,0,1-1.82-9Z"/><path class="cls-3" d="M128.06,126.43c-.64.35-9.09-5.72-9.93-6.18A134.7,134.7,0,0,0,92.8,109.13a96.71,96.71,0,0,0-22.64-4.45,71.92,71.92,0,0,0-12.19.19c-1.82.19-3.88.92-5.66.94-2.6,0-5.44-1.55-7.9-2.27-2.76-.8-5.81-1.22-8.46-.08A28.67,28.67,0,0,1,42,105.78a22.26,22.26,0,0,0-4.73,3.68A11.65,11.65,0,0,1,43,111.18a31.11,31.11,0,0,0-4.42,7.47l6.65-2.15-4.38,8.8a28,28,0,0,0,6.28-4.53l-1.2,7.81,5.89-6.49c2.06-2.27,3.39-3.07,6.34-3.15,2.2,0,4.39-.19,6.59-.18a91.15,91.15,0,0,1,15.65,1.3c11.33,2,22.75,6.69,29.8,16.17Z"/><circle class="cls-4" cx="231.26" cy="98.57" r="14.56"/><circle class="cls-5" cx="226.82" cy="96.89" r="9.36"/><path class="cls-2" d="M232.47,289.47s-21.1,8.26-18.6,20.16,19.89,6.4,28.8,5.21,26.32-3.07,25.61-8.41-8.61-3.38-8.61-3.38,7.45-1.91,6.35-6.75-7.1-2-7.1-2,4.39-1.26,3.86-5.27-6-1-6-1,5.59-2.25,3.8-5.5C257.81,277.57,232.47,289.47,232.47,289.47Z"/><path class="cls-1" d="M170.82,214.34c.2-.25,4.37,2,4.65,2.11a95.79,95.79,0,0,1,11.89,7.18,116.89,116.89,0,0,1,32,34.19,126.32,126.32,0,0,1,7.65,14.4c2,4.43,2.92,12,8.59,12.87,2.34.34,4.84,0,7,1.05-2.48.77-2.91,1.41-5,3,2.83.52,4.6,2,7.36,4.29-2.65.16-4.66,2.11-7.16,1.74,1.25,3,2.91,5.26,3.49,8.45a27.7,27.7,0,0,0-6.19-3.19,54.55,54.55,0,0,1,1.38,8.21,27.59,27.59,0,0,1-10.09-6.45,66.92,66.92,0,0,0-6.54,8,51.29,51.29,0,0,1-1.64-7,8,8,0,0,0-4.5,3.82c1.07-2,1.27-5.33,1.64-7.58a34,34,0,0,0,.49-7.93c-.29-4-1.94-7.83-3.39-11.55a102.77,102.77,0,0,0-10.65-20.46,82.57,82.57,0,0,0-41.29-32Z"/><path class="cls-2" d="M55.33,285.78s22,5.56,21,17.68-18.94,8.84-27.92,8.77-26.51.24-26.47-5.15S30,302.65,30,302.65s-7.63-.95-7.14-5.89,6.79-2.88,6.79-2.88-4.51-.7-4.48-4.74,5.85-1.75,5.85-1.75-5.82-1.54-4.45-5C28.7,277.15,55.33,285.78,55.33,285.78Z"/><path class="cls-1" d="M107.1,203.53c-.23-.22-4.08,2.5-4.34,2.68a94.37,94.37,0,0,0-10.9,8.61,117,117,0,0,0-27.48,37.92A126.3,126.3,0,0,0,58.59,268c-1.44,4.65-1.39,12.32-6.91,13.85-2.28.63-4.8.64-6.8,1.91,2.56.46,3.07,1,5.33,2.32-2.73.86-4.31,2.57-6.76,5.17,2.65-.17,4.89,1.51,7.32.83-.86,3.12-2.23,5.59-2.4,8.82A27.16,27.16,0,0,1,54.11,297a55,55,0,0,0-.35,8.31A27.6,27.6,0,0,0,63,297.6a68.11,68.11,0,0,1,7.49,7.12,53.82,53.82,0,0,0,.75-7.16,8,8,0,0,1,4.94,3.23c-1.32-1.87-1.93-5.13-2.57-7.31a33.65,33.65,0,0,1-1.48-7.82c-.22-4,.94-8,1.92-11.88a102.43,102.43,0,0,1,8-21.63,82.51,82.51,0,0,1,37-36.91Z"/><ellipse class="cls-6" cx="148.46" cy="167.53" rx="63.56" ry="55.78" transform="translate(-32.99 298.6) rotate(-84.3)"/><ellipse class="cls-7" cx="147.65" cy="175.6" rx="44.62" ry="39.16" transform="translate(-41.75 305.07) rotate(-84.3)"/><circle class="cls-4" cx="90.23" cy="77.03" r="14.56"/><circle class="cls-5" cx="94.91" cy="76.26" r="9.36"/><ellipse class="cls-6" cx="164.15" cy="63.57" rx="63.52" ry="68.51" transform="translate(84.58 220.59) rotate(-84.3)"/><path class="cls-5" d="M108.8,56.23A30.37,30.37,0,0,1,166.36,46a30.37,30.37,0,1,1,39.71,44.48,20.47,20.47,0,0,1,.7,7.47c-1.67,16.7-23.84,28.17-49.52,25.6s-45.15-18.18-43.48-34.89a20.74,20.74,0,0,1,3-8.77A30.3,30.3,0,0,1,108.8,56.23Z"/><circle class="cls-8" cx="189.64" cy="86.54" r="13.58"/><circle class="cls-9" cx="189.64" cy="86.54" r="9.14"/><circle class="cls-8" cx="186.51" cy="81.22" r="3.32"/><circle class="cls-8" cx="133.63" cy="80.95" r="13.58"/><circle class="cls-9" cx="133.63" cy="80.95" r="9.14"/><circle class="cls-8" cx="130.5" cy="75.63" r="3.32"/><path class="cls-10" d="M161.1,97.49a.7.7,0,0,1-.49-1.13c1-1.4,3.07-3.69,4.94-3.15,2.66.76,3.28,4.56,1.77,4.66C166.25,97.94,162.91,97.65,161.1,97.49Z"/><path class="cls-10" d="M157.24,97.1a.7.7,0,0,0,.7-1c-.74-1.57-2.28-4.22-4.22-4.06-2.76.22-4.11,3.82-2.66,4.21C152.1,96.52,155.43,96.91,157.24,97.1Z"/><circle class="cls-11" cx="150.8" cy="109.11" r="4.96"/></svg>