<svg id="Layer_1" data-name="Layer 1" xmlns="http://www.w3.org/2000/svg" xmlns:xlink="http://www.w3.org/1999/xlink" viewBox="0 0 260 168"><defs><style>.cls-1{fill:#aeaeaf;}.cls-2{fill:#dbd5d7;}.cls-3{fill:#ededed;}.cls-4{fill:#e8254b;}.cls-5{fill:#ff4863;}.cls-6{clip-path:url(#clip-path);}.cls-7{fill:#ea395b;}.cls-8{fill:#009db7;}.cls-9{fill:#03b4dd;}.cls-10{clip-path:url(#clip-path-2);}.cls-11{fill:#00c3ff;}</style><clipPath id="clip-path"><rect class="cls-1" x="218.3" y="60.48" width="1.73" height="40.45" rx="0.87"/></clipPath><clipPath id="clip-path-2"><rect class="cls-1" x="230.39" y="77.76" width="1.73" height="23.03" rx="0.65"/></clipPath></defs><path class="cls-2" d="M217.93,102.52a6.26,6.26,0,0,0-.27,3c0,.49.11,1,.13,1.47a1.06,1.06,0,0,1-.31,1,.49.49,0,1,0,.7.7c.81-.63.6-1.83.51-2.71a6.62,6.62,0,0,1,.19-3.19.5.5,0,0,0-.34-.61.5.5,0,0,0-.61.35Z"/><path class="cls-2" d="M218.7,102.88c.06,2,.16,4.19,1.29,6a.5.5,0,0,0,.92-.25,1.62,1.62,0,0,0-.17-.72.5.5,0,0,0-.68-.18.51.51,0,0,0-.17.68.56.56,0,0,1,0,.22l.92-.25c-1-1.63-1.09-3.6-1.15-5.47a.5.5,0,0,0-1,0Z"/><path class="cls-2" d="M219.52,103.54a6.77,6.77,0,0,1,.83,1.63,9.67,9.67,0,0,1,.35,1.78,3.36,3.36,0,0,0,.56,1.68c.31.41,1.11,1,1.48.29s-.55-1.06-.86-.5l0,0,.18-.17c.26,0,.33,0,.18-.07l-.08-.07a1.77,1.77,0,0,1-.16-.22,2.16,2.16,0,0,1-.22-.58c-.12-.51-.13-1-.22-1.54a7.32,7.32,0,0,0-1.17-2.77.51.51,0,0,0-.68-.18.5.5,0,0,0-.17.68Z"/><path class="cls-2" d="M220.44,103.18c.59,1.34,1.15,2.7,1.76,4a2.75,2.75,0,0,0,1.11,1.34.74.74,0,0,0,1-.22.66.66,0,0,0-.22-.88c-.54-.35-1,.51-.5.86l0,0-.18-.18,0,0v-.26a.16.16,0,0,1,0,.09l.13-.22c.22,0,.26-.06.14-.12l-.08-.07a1.54,1.54,0,0,1-.17-.19,2.78,2.78,0,0,1-.28-.47c-.21-.43-.39-.88-.59-1.32l-1.25-2.88a.5.5,0,0,0-.68-.17.49.49,0,0,0-.18.67Z"/><path class="cls-2" d="M220.5,101.65l2.56,4a5.63,5.63,0,0,0,1.29,1.58,3.2,3.2,0,0,0,1.84.62.5.5,0,0,0,0-1,2.13,2.13,0,0,1-1.42-.56,7.81,7.81,0,0,1-1.11-1.55l-2.31-3.59c-.34-.54-1.2,0-.85.5Z"/><path class="cls-2" d="M215.81,101.81c-.65,1-.73,2.24-1.32,3.27a4.45,4.45,0,0,1-2.64,1.79c-.61.2-.35,1.16.26,1a5.67,5.67,0,0,0,3.1-2c.72-1.06.76-2.41,1.46-3.48.35-.53-.51-1-.86-.5Z"/><path class="cls-3" d="M217.17,101.89a3.79,3.79,0,0,0-1.41,3,4.92,4.92,0,0,1-.36,1.74,1.39,1.39,0,0,1-1,.86.51.51,0,0,0-.5.5.49.49,0,0,0,.5.49,2.72,2.72,0,0,0,2.24-2.52c.17-1,0-2.57,1-3.21.54-.34,0-1.2-.5-.86Z"/><path class="cls-3" d="M217.87,102.32a6.57,6.57,0,0,0-1.25,3.15c-.1.9.07,2.07-.55,2.82l.85.35,0-.25a.52.52,0,0,0-.5-.5.49.49,0,0,0-.49.5l0,.25c0,.37.54.72.84.35a4.94,4.94,0,0,0,.8-3,5.71,5.71,0,0,1,1.16-3.12.5.5,0,0,0-.86-.5Z"/><path class="cls-2" d="M217.77,102a3,3,0,0,0-1.27,3.24,11.13,11.13,0,0,0,.61,1.67,3,3,0,0,1,.36,1.68l.13-.22,0,0,.6-.08h0l.24.42v0l-.36.48h0a.49.49,0,0,0-.26-1h0a.51.51,0,0,0-.36.48.55.55,0,0,0,.27.48.52.52,0,0,0,.6-.08c.42-.33.19-1.25.08-1.68s-.43-1.12-.64-1.67a3.2,3.2,0,0,1-.28-1.58,2,2,0,0,1,.85-1.32c.53-.34,0-1.2-.5-.85Z"/><path class="cls-3" d="M218.22,102.53c-.95,2.34.78,4.61.59,7l.84-.35s0,0,0,0a.5.5,0,0,0-1-.27,1,1,0,0,0,.29,1,.5.5,0,0,0,.85-.35,10.37,10.37,0,0,0-.57-3.48,5,5,0,0,1,0-3.22.5.5,0,0,0-.35-.61.51.51,0,0,0-.61.35Z"/><path class="cls-3" d="M218.94,102.43a13.35,13.35,0,0,0,.57,2.92,17.43,17.43,0,0,1,.34,3c0,.64,1,.64,1,0a20.26,20.26,0,0,0-.34-3,13.75,13.75,0,0,1-.58-2.88.5.5,0,0,0-1,0Z"/><path class="cls-3" d="M219.37,102.77a8,8,0,0,1,1.86,3.37,8.6,8.6,0,0,0,.8,1.9,3.22,3.22,0,0,0,2.07,1.11c.62.13.89-.83.26-1a4.34,4.34,0,0,1-1-.33,1.27,1.27,0,0,1-.65-.73c-.26-.58-.46-1.19-.68-1.79a7.8,7.8,0,0,0-1.92-3.27c-.48-.42-1.18.28-.7.7Z"/><path class="cls-3" d="M220.61,102.34l1.2,2.09c.37.63.71,1.28,1.12,1.89a4.63,4.63,0,0,0,1.41,1.41,6.48,6.48,0,0,0,2,.72c.63.13.89-.82.27-1a5.81,5.81,0,0,1-1.77-.61,4,4,0,0,1-1.21-1.3c-.76-1.22-1.44-2.49-2.16-3.74a.5.5,0,0,0-.86.5Z"/><path class="cls-3" d="M221.54,102.66a2.84,2.84,0,0,1,1.3,1.35,6.73,6.73,0,0,0,1.22,1.59,5.14,5.14,0,0,0,3.54,1.3.5.5,0,0,0,0-1,4.11,4.11,0,0,1-3.16-1.32,15.35,15.35,0,0,1-1.11-1.65,3.35,3.35,0,0,0-1.52-1.24c-.6-.21-.86.74-.27,1Z"/><path class="cls-4" d="M222.17,100.38c-.62-.68-6,0-6,0a2.41,2.41,0,0,0-.47,1.58c0,.65,1.57,1.17,3.5,1.17s3.5-.52,3.5-1.17A2.19,2.19,0,0,0,222.17,100.38Z"/><ellipse class="cls-5" cx="219.17" cy="100.63" rx="3.11" ry="1.04"/><rect class="cls-1" x="218.3" y="60.48" width="1.73" height="40.45" rx="0.87"/><g class="cls-6"><rect class="cls-3" x="218.58" y="58.09" width="0.46" height="44.92"/><path class="cls-7" d="M217.62,97.66a3.47,3.47,0,0,0,3.24,0V103l-3.66-.93.46-4.54"/><rect class="cls-7" x="217.54" y="57.94" width="3.18" height="12.02" rx="1.59"/></g><path class="cls-2" d="M230,102.37a6.31,6.31,0,0,0-.27,3c0,.49.11,1,.13,1.47a1,1,0,0,1-.31.94.51.51,0,0,0,0,.71.52.52,0,0,0,.7,0c.81-.63.6-1.84.51-2.71a6.66,6.66,0,0,1,.19-3.2.51.51,0,0,0-.34-.61.51.51,0,0,0-.61.35Z"/><path class="cls-2" d="M230.79,102.73c.06,2,.16,4.2,1.29,6a.5.5,0,0,0,.92-.25,2,2,0,0,0-.17-.72.5.5,0,0,0-.68-.18.51.51,0,0,0-.17.68.56.56,0,0,1,0,.22l.92-.25c-1-1.62-1.1-3.6-1.15-5.47,0-.63-1-.64-1,0Z"/><path class="cls-2" d="M231.61,103.39a6.74,6.74,0,0,1,.82,1.63,8.25,8.25,0,0,1,.35,1.78,3.44,3.44,0,0,0,.57,1.68c.31.42,1.11,1,1.48.3s-.55-1.07-.86-.5l0,0,.18-.18q.39,0,.18-.06l-.08-.08a1.77,1.77,0,0,1-.16-.22,1.93,1.93,0,0,1-.22-.58c-.12-.5-.13-1-.23-1.54a7.21,7.21,0,0,0-1.16-2.77.51.51,0,0,0-.68-.18.5.5,0,0,0-.17.68Z"/><path class="cls-2" d="M232.53,103c.58,1.34,1.15,2.69,1.76,4a2.73,2.73,0,0,0,1.11,1.35.75.75,0,0,0,1-.22.67.67,0,0,0-.22-.89c-.54-.35-1,.51-.5.86l0,0-.18-.18,0,0v-.26a.14.14,0,0,1,0,.09l.13-.21c.22,0,.26-.07.14-.13l-.08-.06-.17-.19a3.24,3.24,0,0,1-.28-.47c-.21-.43-.39-.88-.59-1.33l-1.26-2.87a.49.49,0,0,0-.67-.18.5.5,0,0,0-.18.68Z"/><path class="cls-2" d="M232.58,101.5l2.57,4a5.67,5.67,0,0,0,1.29,1.59,3.12,3.12,0,0,0,1.84.61.5.5,0,0,0,0-1,2.12,2.12,0,0,1-1.42-.55,7.87,7.87,0,0,1-1.11-1.56L233.44,101c-.34-.53-1.2,0-.86.5Z"/><path class="cls-2" d="M227.9,101.67c-.65,1-.73,2.23-1.32,3.26a4.5,4.5,0,0,1-2.65,1.8c-.6.2-.34,1.15.27,1a5.69,5.69,0,0,0,3.1-2c.72-1.06.76-2.42,1.46-3.48.34-.54-.51-1-.86-.5Z"/><path class="cls-3" d="M229.26,101.75a3.75,3.75,0,0,0-1.41,3,4.92,4.92,0,0,1-.36,1.74,1.41,1.41,0,0,1-1,.87.5.5,0,0,0,0,1,2.73,2.73,0,0,0,2.25-2.53c.17-1,0-2.56,1-3.21.54-.34,0-1.2-.5-.85Z"/><path class="cls-3" d="M230,102.17a6.57,6.57,0,0,0-1.25,3.15c-.11.9.07,2.07-.55,2.82l.85.35,0-.25a.52.52,0,0,0-.5-.49.5.5,0,0,0-.5.49l0,.25c0,.37.54.72.84.35a4.91,4.91,0,0,0,.8-3,5.66,5.66,0,0,1,1.16-3.13.49.49,0,0,0-.18-.67.51.51,0,0,0-.68.17Z"/><path class="cls-2" d="M229.86,101.84a3,3,0,0,0-1.27,3.24,10.86,10.86,0,0,0,.61,1.68,3,3,0,0,1,.36,1.67l.13-.22,0,0,.6-.08,0,0,.24.43v0l-.36.47h0c.62-.15.36-1.11-.26-1h0a.5.5,0,0,0-.36.48.53.53,0,0,0,.27.47.5.5,0,0,0,.6-.07c.42-.34.19-1.26.07-1.69a17.81,17.81,0,0,0-.63-1.67,3.07,3.07,0,0,1-.28-1.58,1.93,1.93,0,0,1,.85-1.31c.53-.35,0-1.21-.5-.86Z"/><path class="cls-3" d="M230.31,102.38c-.95,2.35.78,4.61.58,7l.85-.35s-.05,0,0-.06a.5.5,0,0,0-1-.26,1,1,0,0,0,.29,1,.51.51,0,0,0,.85-.35,10.64,10.64,0,0,0-.57-3.49,5,5,0,0,1,0-3.22.5.5,0,0,0-.35-.61.51.51,0,0,0-.61.35Z"/><path class="cls-3" d="M231,102.28a13.44,13.44,0,0,0,.57,2.93,17.2,17.2,0,0,1,.34,3c0,.64,1,.64,1,0a18.86,18.86,0,0,0-.33-3,13.84,13.84,0,0,1-.58-2.89.5.5,0,0,0-1,0Z"/><path class="cls-3" d="M231.45,102.63a7.77,7.77,0,0,1,1.86,3.37,9.13,9.13,0,0,0,.81,1.9,3.14,3.14,0,0,0,2.07,1.1c.62.13.89-.82.26-1a4.87,4.87,0,0,1-1-.34,1.27,1.27,0,0,1-.65-.73c-.26-.58-.47-1.19-.69-1.79a7.75,7.75,0,0,0-1.92-3.27c-.47-.42-1.17.28-.7.71Z"/><path class="cls-3" d="M232.7,102.2l1.2,2.08c.37.64.71,1.29,1.12,1.89a4.66,4.66,0,0,0,1.41,1.42,6.46,6.46,0,0,0,2,.71c.62.14.89-.82.27-1a5.74,5.74,0,0,1-1.77-.62,3.77,3.77,0,0,1-1.21-1.3c-.76-1.21-1.44-2.49-2.16-3.73a.5.5,0,0,0-.86.5Z"/><path class="cls-3" d="M233.63,102.52a2.84,2.84,0,0,1,1.29,1.34,6.89,6.89,0,0,0,1.23,1.6,5.07,5.07,0,0,0,3.54,1.29.5.5,0,0,0,0-1,4.11,4.11,0,0,1-3.16-1.32,15.22,15.22,0,0,1-1.11-1.64,3.26,3.26,0,0,0-1.53-1.24c-.6-.22-.85.74-.26,1Z"/><path class="cls-8" d="M234.26,100.23c-.62-.67-6,0-6,0a2.38,2.38,0,0,0-.47,1.58c0,.64,1.57,1.17,3.5,1.17s3.5-.53,3.5-1.17A2.21,2.21,0,0,0,234.26,100.23Z"/><ellipse class="cls-9" cx="231.26" cy="100.48" rx="3.11" ry="1.04"/><rect class="cls-1" x="230.39" y="77.76" width="1.73" height="23.03" rx="0.65"/><g class="cls-10"><rect class="cls-3" x="230.67" y="57.95" width="0.46" height="44.92"/><path class="cls-11" d="M229.71,97.51a3.44,3.44,0,0,0,3.24,0v5.32l-3.66-.92.46-4.55"/><rect class="cls-11" x="229.63" y="73.34" width="3.18" height="12.02" rx="1.59"/></g></svg>