<svg id="Layer_14" data-name="Layer 14" xmlns="http://www.w3.org/2000/svg" xmlns:xlink="http://www.w3.org/1999/xlink" viewBox="0 0 260 168"><defs><style>.cls-1{fill:#8ecf00;}.cls-2{fill:#fff;}.cls-3{fill:#457500;}.cls-4{clip-path:url(#clip-path);}.cls-5{fill:#75b506;}.cls-6{clip-path:url(#clip-path-2);}.cls-7{fill:#d3eb0b;}.cls-8{clip-path:url(#clip-path-3);}.cls-9{fill:#f73434;}</style><clipPath id="clip-path"><path class="cls-1" d="M60.82,181.4c-1.19,6.93,2.82,9,8,8.88,6.62-.22,10.21,1.23,11.4-5.7s.79-18-4.32-18.91S62,174.47,60.82,181.4Z"/></clipPath><clipPath id="clip-path-2"><circle class="cls-2" cx="80.33" cy="153.14" r="5.74" transform="translate(-6.66 3.68) rotate(-2.52)"/></clipPath><clipPath id="clip-path-3"><path class="cls-3" d="M89.09,162.94a7.4,7.4,0,0,1-7.3-.16s-.32,4.29,3.62,4.31C88.31,167.11,89.09,162.94,89.09,162.94Z"/></clipPath></defs><path class="cls-1" d="M60.82,181.4c-1.19,6.93,2.82,9,8,8.88,6.62-.22,10.21,1.23,11.4-5.7s.79-18-4.32-18.91S62,174.47,60.82,181.4Z"/><g class="cls-4"><ellipse class="cls-5" cx="74.13" cy="166.44" rx="9.05" ry="5.69" transform="translate(-0.43 0.19) rotate(-0.15)"/></g><path class="cls-1" d="M70.56,170.09c11.26-.37,20.4-.3,20.45-8s-9.07-10.3-20.33-10.38c0,0-11.14,2-11.22,13.1C59.46,164.81,59.59,170.44,70.56,170.09Z"/><circle class="cls-1" cx="80.1" cy="152.46" r="8.2" transform="translate(-6.63 3.67) rotate(-2.52)"/><circle class="cls-2" cx="80.33" cy="153.14" r="5.74" transform="translate(-6.66 3.68) rotate(-2.52)"/><g class="cls-6"><path d="M81.05,146.47a4.82,4.82,0,0,1,2.08.48,1.44,1.44,0,0,0-.41,1,1.47,1.47,0,0,0,1.46,1.48,1.44,1.44,0,0,0,1.1-.49,4.92,4.92,0,1,1-4.23-2.47Z"/></g><ellipse class="cls-7" cx="73.86" cy="159.84" rx="0.73" ry="1.89" transform="translate(-86.46 232.65) rotate(-89.63)"/><ellipse class="cls-7" cx="73.16" cy="157.82" rx="0.42" ry="1.1" transform="translate(-85.13 229.94) rotate(-89.63)"/><path class="cls-3" d="M89.09,162.94a7.4,7.4,0,0,1-7.3-.16s-.32,4.29,3.62,4.31C88.31,167.11,89.09,162.94,89.09,162.94Z"/><g class="cls-8"><ellipse class="cls-9" cx="83.02" cy="168.82" rx="3.48" ry="6.44" transform="translate(-86.33 250.74) rotate(-89.63)"/><ellipse class="cls-2" cx="83.19" cy="159.47" rx="3.48" ry="6.44" transform="translate(-88.9 107.18) rotate(-45.55)"/></g></svg>