<svg xmlns="http://www.w3.org/2000/svg" xmlns:xlink="http://www.w3.org/1999/xlink" viewBox="0 0 260 168"><defs><style>.cls-1{fill:#ff790b;}.cls-2{fill:#8ecf00;}.cls-3{fill:#aeaeaf;}.cls-4{fill:#fff;}.cls-5{fill:#457500;}.cls-6{clip-path:url(#clip-path);}.cls-7{fill:#e56200;}.cls-8{fill:#ff9c0d;}.cls-9{fill:#7ece00;}.cls-10{fill:#d3eb0b;}.cls-11{clip-path:url(#clip-path-2);}.cls-12{fill:#75b506;}.cls-13{fill:#b1e523;}.cls-14{fill:#113a00;}.cls-15{clip-path:url(#clip-path-3);}.cls-16{clip-path:url(#clip-path-4);}.cls-17{fill:#a50707;}.cls-18{clip-path:url(#clip-path-5);}.cls-19{fill:#f73434;}.cls-20{fill:#dbd5d7;}.cls-21{fill:#ededed;}.cls-22{fill:#e8254b;}.cls-23{fill:#ff4863;}.cls-24{clip-path:url(#clip-path-6);}.cls-25{fill:#ea395b;}.cls-26{clip-path:url(#clip-path-7);}.cls-27{clip-path:url(#clip-path-8);}.cls-28{clip-path:url(#clip-path-9);}.cls-29{clip-path:url(#clip-path-10);}.cls-30{fill:#009db7;}.cls-31{fill:#03b4dd;}.cls-32{clip-path:url(#clip-path-11);}.cls-33{fill:#00c3ff;}.cls-34{fill:#86f1fc;}</style><clipPath id="clip-path"><path class="cls-1" d="M101,71S72.55,72.34,71.06,89.88s9.59,23.49,9.59,23.49h51.62s5-2,6.29-22.33C139.88,70.36,101,71,101,71Z"/></clipPath><clipPath id="clip-path-2"><path class="cls-2" d="M123.13,137.85c0,10-8.1,10.52-18.09,10.52S87,147.84,87,137.85s8.09-25.67,18.08-25.67S123.13,127.85,123.13,137.85Z"/></clipPath><clipPath id="clip-path-3"><circle class="cls-4" cx="91.3" cy="91.92" r="8.16"/></clipPath><clipPath id="clip-path-4"><circle class="cls-4" cx="118.79" cy="91.92" r="8.16"/></clipPath><clipPath id="clip-path-5"><path class="cls-5" d="M94,105.47s10.47,6.07,21.88,0c0,0-2.4,7.6-10.74,7.6S94,105.47,94,105.47Z"/></clipPath><clipPath id="clip-path-6"><rect class="cls-3" x="91.86" y="83.72" width="2.65" height="61.74" rx="1.32" transform="translate(-41.85 54.76) rotate(-26.98)"/></clipPath><clipPath id="clip-path-7"><path class="cls-2" d="M175.33,141c0,7.36-6,7.75-13.32,7.75s-13.32-.39-13.32-7.75,6-18.9,13.32-18.9S175.33,133.59,175.33,141Z"/></clipPath><clipPath id="clip-path-8"><circle class="cls-4" cx="174.93" cy="111.65" r="6.01"/></clipPath><clipPath id="clip-path-9"><circle class="cls-4" cx="154.96" cy="108.32" r="6.01"/></clipPath><clipPath id="clip-path-10"><path class="cls-5" d="M155.25,118.49a17.51,17.51,0,0,0,15.89,2.65,8.37,8.37,0,0,1-8.72,4.22A9,9,0,0,1,155.25,118.49Z"/></clipPath><clipPath id="clip-path-11"><rect class="cls-3" x="167.86" y="122.12" width="1.8" height="23.91" rx="0.68" transform="translate(64.01 -54.29) rotate(22.46)"/></clipPath></defs><g id="Layer_2" data-name="Layer 2"><path class="cls-1" d="M101,71S72.55,72.34,71.06,89.88s9.59,23.49,9.59,23.49h51.62s5-2,6.29-22.33C139.88,70.36,101,71,101,71Z"/><g class="cls-6"><path class="cls-7" d="M74.1,92c.66-2.88,1.72-5.81,3.89-7.82a15.77,15.77,0,0,1,3.42-2.27,51.07,51.07,0,0,1,44.3-1.16c4.46,2,9,5.24,10,10s-1.8,9.58-5,13.3a32.55,32.55,0,0,1-5.32,5,31.6,31.6,0,0,1-14.7,5.4,94.69,94.69,0,0,1-15.8.25l-9.56-.38a29.63,29.63,0,0,0-4.71,0,9.81,9.81,0,0,1-3,.23c-2-.4-2.62-2.28-3.1-4.07A38.79,38.79,0,0,1,74.1,92Z"/><path class="cls-8" d="M100.54,72c8,2.75,16,5.52,24.4,6.56a12.61,12.61,0,0,1,4,.89,8.52,8.52,0,0,1,2.35,1.83c1.56,1.64,3,3.74,5.24,4.09.38-.54,0-1.29-.46-1.78-2.19-2.47-5.41-3.73-8.5-4.9-2.4-.91-4.94-1.68-7.25-2.8-1.56-.76-2.74-1.73-4.46-2.15a60.11,60.11,0,0,0-7.67-1.26c-1.29-.14-2.58-.26-3.88-.34C103.33,72.1,101.36,72.43,100.54,72Z"/><path class="cls-8" d="M70.8,103.85a41,41,0,0,1,.31-10.95A21.07,21.07,0,0,1,75.61,83a32.67,32.67,0,0,0-2.91,18.47,8.06,8.06,0,0,1-5.35-.7"/></g><path class="cls-9" d="M122.84,132.7s5.44-.52,5.57,5.05-5.31,6.35-5.31,6.35,5.7-1,5.05,1.94-13.47,2.46-13.08-2.07S115.46,132.7,122.84,132.7Z"/><ellipse class="cls-10" cx="123.52" cy="133.33" rx="0.56" ry="0.2"/><path class="cls-9" d="M86.32,132.7s-5.44-.52-5.57,5.05,5.31,6.35,5.31,6.35-5.7-1-5,1.94S94.47,148.5,94.09,144,93.7,132.7,86.32,132.7Z"/><ellipse class="cls-10" cx="84.12" cy="133.87" rx="1.2" ry="0.52"/><ellipse class="cls-10" cx="85.96" cy="133.38" rx="0.74" ry="0.32"/><path class="cls-2" d="M123.13,137.85c0,10-8.1,10.52-18.09,10.52S87,147.84,87,137.85s8.09-25.67,18.08-25.67S123.13,127.85,123.13,137.85Z"/><g class="cls-11"><ellipse class="cls-12" cx="104.79" cy="114.78" rx="17.29" ry="8.16"/><ellipse class="cls-13" cx="105.04" cy="141.64" rx="10.73" ry="14.11"/></g><path class="cls-1" d="M97.86,120.17s-5.57,1.82-2.23,5.51,8.79-5.44,8.79-5.44,4.39,8.23,9.55,5.37-2.65-6.06-2.65-6.06S100.93,118.57,97.86,120.17Z"/><path class="cls-8" d="M82.8,117.46s2.93,7.25,18.13,2.92Z"/><path class="cls-8" d="M129.27,116.55s-3.12,7.75-18.36,3.56Z"/><path class="cls-2" d="M134.05,106.91c0,12.72-13,13.44-29,13.44s-29-.72-29-13.44S89,90,105,90,134.05,94.19,134.05,106.91Z"/><circle class="cls-2" cx="91.64" cy="90.95" r="11.65"/><circle class="cls-2" cx="118.45" cy="90.95" r="11.65"/><ellipse class="cls-10" cx="81.62" cy="101.5" rx="2.69" ry="1.04"/><ellipse class="cls-10" cx="128.43" cy="101.5" rx="2.69" ry="1.04"/><ellipse class="cls-10" cx="80.21" cy="99.21" rx="1.56" ry="0.6"/><ellipse class="cls-10" cx="129.45" cy="98.63" rx="1.56" ry="0.6"/><ellipse class="cls-10" cx="104.9" cy="99.78" rx="5.31" ry="1.04"/><path class="cls-14" d="M85.62,86.57s-2.56.19-2.4-1.92c0,0-1.48,3.31,2,4.2Z"/><path class="cls-14" d="M85.28,88.58s-2.52.45-2.58-1.66c0,0-1.14,3.44,2.46,4Z"/><path class="cls-14" d="M124.73,86.57s2.55.19,2.39-1.92c0,0,1.49,3.31-2,4.2Z"/><path class="cls-14" d="M125.07,88.58s2.52.45,2.58-1.66c0,0,1.14,3.44-2.46,4Z"/><circle class="cls-4" cx="91.3" cy="91.92" r="8.16"/><g class="cls-15"><path d="M92.41,88.42a6.88,6.88,0,0,0-3,.67A2,2,0,0,1,90,90.52a2.08,2.08,0,0,1-3.65,1.38,7,7,0,1,0,6-3.48Z"/></g><circle class="cls-4" cx="118.79" cy="91.92" r="8.16"/><g class="cls-16"><path d="M119,88.15a7,7,0,0,0-3,.66,2.11,2.11,0,0,1,.57,1.43,2.08,2.08,0,0,1-3.65,1.38,7,7,0,1,0,6-3.47Z"/></g><path class="cls-17" d="M108.5,107.85a3.62,3.62,0,0,0-.78-.52,2.73,2.73,0,0,0-2.85,0,2.73,2.73,0,0,0-2.85,0,3.62,3.62,0,0,0-.78.52,7.34,7.34,0,0,0,7.26,0Z"/><ellipse class="cls-17" cx="104.82" cy="112.57" rx="2.61" ry="1.35"/><path class="cls-5" d="M94,105.47s10.47,6.07,21.88,0c0,0-2.4,7.6-10.74,7.6S94,105.47,94,105.47Z"/><g class="cls-18"><ellipse class="cls-19" cx="104.68" cy="115.37" rx="9.15" ry="4.95"/><ellipse class="cls-4" cx="104.68" cy="103.87" rx="9.15" ry="4.95"/></g><path class="cls-20" d="M106.58,145a9.45,9.45,0,0,0,1.55,4.15c.38.62.79,1.23,1.17,1.85.27.44.8,1.19.54,1.74a.79.79,0,0,0,.27,1,.77.77,0,0,0,1-.27c.75-1.61-.44-3.12-1.28-4.43a9.28,9.28,0,0,1-1.78-4.08.76.76,0,1,0-1.51,0Z"/><path class="cls-20" d="M107.91,145.11c1.5,2.73,3.14,5.58,5.9,7.21a.77.77,0,0,0,1-1,2.17,2.17,0,0,0-.59-.72.76.76,0,1,0-1.07,1.07,1.15,1.15,0,0,1,.35.41l1-1c-2.53-1.49-4-4.17-5.36-6.66-.47-.85-1.77-.09-1.31.76Z"/><path class="cls-20" d="M109.49,145.42a10.29,10.29,0,0,1,3.75,3.52,6.17,6.17,0,0,0,1.92,2.08c.76.43,2.39.76,2.42-.57a.76.76,0,0,0-1.51,0v.07l.11-.38,0,.06.27-.27s.08,0,.06,0a.65.65,0,0,0-.22,0,1.77,1.77,0,0,1-.41-.21,3.05,3.05,0,0,1-.72-.67c-.51-.61-.88-1.32-1.37-1.94a11.16,11.16,0,0,0-3.48-2.93c-.86-.46-1.63.85-.77,1.31Z"/><path class="cls-20" d="M110.35,144.18c1.71,1.41,3.41,2.84,5.15,4.22a4.36,4.36,0,0,0,2.61,1.2,1.16,1.16,0,0,0,1.17-.84,1,1,0,0,0-.93-1.2.76.76,0,0,0-.76.75.78.78,0,0,0,.76.76h.07L118,149l0,0-.27-.27q.68-.69.18-.66l-.16,0a2,2,0,0,1-.39-.14,4.58,4.58,0,0,1-.84-.53c-.54-.42-1.07-.88-1.61-1.32l-3.58-2.94a.78.78,0,0,0-1.07,0,.76.76,0,0,0,0,1.07Z"/><path class="cls-20" d="M109.52,142.17l6.24,3.64a8.46,8.46,0,0,0,2.81,1.26,5.06,5.06,0,0,0,3-.46c.88-.42.11-1.73-.76-1.31-1.86.89-3.48-.33-5-1.24l-5.47-3.19a.75.75,0,0,0-.76,1.3Z"/><path class="cls-20" d="M103.23,145.67c-.19,1.84.59,3.6.46,5.44a6.92,6.92,0,0,1-2.37,4.16.76.76,0,0,0,1.07,1.07,8.66,8.66,0,0,0,2.75-4.67c.3-2-.6-4-.4-6a.76.76,0,0,0-.75-.76.77.77,0,0,0-.76.76Z"/><path class="cls-21" d="M105.12,144.82c-1,1.71-.37,3.59.28,5.3.47,1.22,1.21,3.34-.23,4.24-.82.52-.06,1.83.77,1.31,1.57-1,1.81-3,1.37-4.63s-1.88-3.74-.88-5.46a.76.76,0,0,0-1.31-.76Z"/><path class="cls-21" d="M106.41,144.73a10,10,0,0,0,.34,5c.49,1.42,1.65,3,1.31,4.55l1.38-.18-.21-.32c-.55-.8-1.86,0-1.31.76l.22.32a.76.76,0,0,0,1.38-.18c.37-1.72-.43-3.2-1.07-4.74a8.53,8.53,0,0,1-.58-4.81.78.78,0,0,0-.53-.93.76.76,0,0,0-.93.53Z"/><path class="cls-20" d="M106,144.53a4.59,4.59,0,0,0-.52,3.18,5.15,5.15,0,0,0,1.39,2.45c.59.62,1.27,1.14,1.9,1.71a4.1,4.1,0,0,1,1.42,1.85l.07-.58,0,.07.86-.35h0l.45.34,0,0-.12.92,0,0c.74-.63-.34-1.7-1.07-1.07l0,0a.77.77,0,0,0-.12.91.73.73,0,0,0,.52.4.79.79,0,0,0,.86-.35c.39-.86-.45-1.87-1-2.49a19.61,19.61,0,0,0-1.84-1.68,5.82,5.82,0,0,1-1.52-1.79,2.92,2.92,0,0,1,.13-2.71.76.76,0,0,0-1.3-.77Z"/><path class="cls-21" d="M107,144.77a8.65,8.65,0,0,0,2.39,4.88c1.14,1.32,2.52,2.55,3.19,4.2l.93-.93c-.1,0,0,.08-.06-.09-.2-1-1.66-.55-1.46.4a1.53,1.53,0,0,0,1.12,1.15c.5.14,1.15-.37.93-.93a15.08,15.08,0,0,0-3.09-4.31c-1.1-1.23-2.3-2.65-2.44-4.37-.08-1-1.59-1-1.51,0Z"/><path class="cls-21" d="M107.93,144.33a19.51,19.51,0,0,0,2.8,3.56,26.73,26.73,0,0,1,2.52,3.81c.47.86,1.78.09,1.31-.76A29.17,29.17,0,0,0,112,147c-.46-.59-.95-1.14-1.44-1.7a7.2,7.2,0,0,1-1.28-1.77.76.76,0,0,0-1-.27.78.78,0,0,0-.28,1Z"/><path class="cls-21" d="M108.76,144.48c2,.53,3.49,2,5,3.4a12.17,12.17,0,0,0,2.39,2,5.07,5.07,0,0,0,3.52,0,.76.76,0,0,0-.4-1.46,7,7,0,0,1-1.64.25,1.82,1.82,0,0,1-1.3-.5c-.77-.62-1.48-1.31-2.21-2a11.88,11.88,0,0,0-4.92-3.13.76.76,0,0,0-.4,1.46Z"/><path class="cls-21" d="M110.16,143c1.92,1.25,3.81,2.62,5.81,3.74a7.14,7.14,0,0,0,2.9,1,9.9,9.9,0,0,0,3.33-.42.76.76,0,0,0-.4-1.46,8.1,8.1,0,0,1-2.93.37,6.47,6.47,0,0,1-2.65-1.08c-1.79-1.1-3.53-2.29-5.3-3.44-.81-.53-1.57.78-.76,1.31Z"/><path class="cls-21" d="M111.46,142.82a4.54,4.54,0,0,1,2.89,1,10.05,10.05,0,0,0,2.79,1.32,7.88,7.88,0,0,0,5.69-.74c.85-.47.09-1.77-.77-1.3a6.27,6.27,0,0,1-5.2.36c-1.84-.69-3.26-2.34-5.4-2.1a.78.78,0,0,0-.76.76.76.76,0,0,0,.76.75Z"/><path class="cls-22" d="M110.88,139.27c-1.31-.49-8.19,4.2-8.19,4.2a3.68,3.68,0,0,0,.47,2.47c.44.87,2.94.5,5.56-.83s4.39-3.14,4-4A3.31,3.31,0,0,0,110.88,139.27Z"/><ellipse class="cls-23" cx="106.98" cy="141.68" rx="4.75" ry="1.59" transform="translate(-52.64 63.96) rotate(-26.98)"/><rect class="cls-3" x="91.86" y="83.72" width="2.65" height="61.74" rx="1.32" transform="translate(-41.85 54.76) rotate(-26.98)"/><g class="cls-24"><rect class="cls-21" x="92.24" y="80.35" width="0.71" height="68.56" transform="translate(-41.93 54.49) rotate(-26.98)"/><path class="cls-25" d="M102.82,138.72a5.28,5.28,0,0,0,4.4-2.24l3.68,7.23L105.28,145l-2.52-6.51"/><rect class="cls-25" x="79.1" y="82.65" width="4.85" height="18.34" rx="2.43" transform="translate(-32.79 46.99) rotate(-26.98)"/></g><path class="cls-2" d="M95.79,133.57l4.23-9.38s1.62,1.22,2.75.77.85-2.5-1.91-2.61c0,0,1.48-1.39-.48-2.71s-2.22,1.26-2.22,1.26-.08-2.06-1.93-2.28-.89,2.44,1,3.79c0,0-3.23,5.59-5.13,8.33s-2.51,4.93-1,6.21S95.19,135,95.79,133.57Z"/><path class="cls-2" d="M113.86,138.61l-10.11-1.9s.07,2-1,2.69-2.21-1.21-.72-3.54c0,0-2.32.9-2.28-1.46s2.31-1.1,2.31-1.1a2.38,2.38,0,0,1-.77-2.89c.88-1.64,2.52.66,2.54,3,0,0,6.43.55,9.77.56s5.48.76,5.63,2.76S115.38,138.94,113.86,138.61Z"/><circle class="cls-2" cx="90.83" cy="136.24" r="3.5"/><circle class="cls-2" cx="119.08" cy="136.06" r="3.5"/><path class="cls-9" d="M175.12,137.16s4-.38,4.1,3.72a4.57,4.57,0,0,1-3.91,4.67s4.19-.76,3.72,1.43-9.92,1.82-9.63-1.52S169.68,137.16,175.12,137.16Z"/><ellipse class="cls-10" cx="175.62" cy="137.62" rx="0.41" ry="0.15"/><path class="cls-9" d="M148.22,137.16s-4-.38-4.1,3.72a4.57,4.57,0,0,0,3.91,4.67s-4.19-.76-3.72,1.43,9.92,1.82,9.63-1.52S153.66,137.16,148.22,137.16Z"/><ellipse class="cls-10" cx="146.6" cy="138.02" rx="0.88" ry="0.38"/><ellipse class="cls-10" cx="147.96" cy="137.66" rx="0.54" ry="0.23"/><path class="cls-2" d="M175.33,141c0,7.36-6,7.75-13.32,7.75s-13.32-.39-13.32-7.75,6-18.9,13.32-18.9S175.33,133.59,175.33,141Z"/><g class="cls-26"><ellipse class="cls-12" cx="162.51" cy="123.96" rx="6.01" ry="12.73" transform="translate(19.06 269.56) rotate(-82.76)"/><ellipse class="cls-13" cx="162.01" cy="143.74" rx="7.9" ry="10.39"/></g><path class="cls-2" d="M184.48,122.68c-1.32,7.94-10.83,6.82-22.47,4.87s-21-4-19.67-11.91,11.2-9,22.84-7.06S185.81,114.73,184.48,122.68Z"/><circle class="cls-2" cx="155.33" cy="107.66" r="8.58"/><circle class="cls-2" cx="174.8" cy="110.91" r="8.58"/><circle class="cls-4" cx="174.93" cy="111.65" r="6.01"/><g class="cls-27"><path d="M175.36,108.34a5,5,0,0,0-2.23.12,1.54,1.54,0,0,1-1.53,2.38,1.57,1.57,0,0,1-1-.71,5.22,5.22,0,0,0-1.12,2.44,5.15,5.15,0,1,0,5.93-4.23Z"/></g><circle class="cls-4" cx="154.96" cy="108.32" r="6.01"/><g class="cls-28"><path d="M155.53,105.42a5.06,5.06,0,0,0-2.23.13,1.51,1.51,0,0,1,.24,1.11,1.54,1.54,0,0,1-1.77,1.26,1.5,1.5,0,0,1-1-.71,5,5,0,0,0-1.12,2.44,5.15,5.15,0,1,0,5.92-4.23Z"/></g><ellipse class="cls-10" cx="146.77" cy="114.11" rx="0.76" ry="1.98" transform="translate(10.06 240.1) rotate(-80.53)"/><ellipse class="cls-10" cx="180.77" cy="119.78" rx="0.76" ry="1.98" transform="translate(32.87 278.38) rotate(-80.53)"/><ellipse class="cls-10" cx="146.02" cy="112.28" rx="0.44" ry="1.15" transform="translate(11.24 237.83) rotate(-80.53)"/><ellipse class="cls-10" cx="181.86" cy="117.82" rx="0.44" ry="1.15" transform="translate(35.71 277.81) rotate(-80.53)"/><path class="cls-5" d="M155.25,118.49a17.51,17.51,0,0,0,15.89,2.65,8.37,8.37,0,0,1-8.72,4.22A9,9,0,0,1,155.25,118.49Z"/><g class="cls-29"><ellipse class="cls-19" cx="161.83" cy="126.98" rx="3.65" ry="6.74" transform="translate(9.95 265.71) rotate(-80.53)"/><ellipse class="cls-4" cx="163.23" cy="118.63" rx="3.65" ry="6.74" transform="translate(19.35 260.11) rotate(-80.53)"/></g><ellipse class="cls-10" cx="163.88" cy="115.69" rx="0.76" ry="3.91" transform="translate(22.81 258.3) rotate(-80.53)"/><path class="cls-20" d="M162.42,146.1a6.71,6.71,0,0,0-1.49,2.78c-.15.48-.28,1-.44,1.45-.12.33-.28.77-.65.87a.51.51,0,0,0,.27,1c1.12-.3,1.38-1.61,1.67-2.56a6.43,6.43,0,0,1,1.36-2.8c.47-.47-.26-1.2-.72-.73Z"/><path class="cls-20" d="M163,146.86c-.76,2-1.47,4.09-1.1,6.25a.52.52,0,0,0,.5.38.54.54,0,0,0,.5-.38,1.67,1.67,0,0,0,.1-.63.52.52,0,0,0-1,0,.73.73,0,0,1-.07.36h1c-.34-2,.41-3.91,1.09-5.7a.51.51,0,0,0-.36-.63.52.52,0,0,0-.63.35Z"/><path class="cls-20" d="M163.51,147.83a7.1,7.1,0,0,1,.13,1.9,11.15,11.15,0,0,1-.4,1.89,3.29,3.29,0,0,0-.08,1.76c.13.49.64,1.3,1.24.86a.53.53,0,0,0,.18-.7.51.51,0,0,0-.7-.18l0,0,.26-.07c.18.1.22.09.13,0a.42.42,0,0,1-.06-.14,1.79,1.79,0,0,1,0-.89c.1-.51.28-1,.39-1.5a7.89,7.89,0,0,0,0-3.21c-.14-.65-1.13-.38-1,.27Z"/><path class="cls-20" d="M164.52,147.72c0,1.52,0,3.05.09,4.57a2.87,2.87,0,0,0,.55,1.8.77.77,0,0,0,1,.23.68.68,0,0,0,.25-.94c-.32-.58-1.21-.06-.88.52l0,.06-.07-.26v.07l.07-.26h0l.23-.13h.2c-.09,0-.18-.36-.2-.45a3.31,3.31,0,0,1-.07-.55c0-.5,0-1,0-1.5l-.07-3.17a.51.51,0,0,0-1,0Z"/><path class="cls-20" d="M165.2,146.41l.87,4.82a5.63,5.63,0,0,0,.63,2.05,3.28,3.28,0,0,0,1.43,1.23c.6.26,1.13-.63.52-.89a2.41,2.41,0,0,1-1.18-1.07,7.49,7.49,0,0,1-.49-2.05l-.79-4.37c-.12-.65-1.11-.37-1,.28Z"/><path class="cls-20" d="M160.67,144.6a27.56,27.56,0,0,0-2.44,2.51,4.55,4.55,0,0,1-3.48.81c-.66,0-.66,1,0,1a5.66,5.66,0,0,0,3.91-.87c1-.74,1.53-1.9,2.53-2.59.55-.37,0-1.27-.52-.89Z"/><path class="cls-21" d="M161.83,145.27a4,4,0,0,0-2.51,2.37c-.45.83-1.21,2.23-2.39,1.86-.63-.2-.9.79-.27,1,1.37.43,2.55-.63,3.2-1.72.56-.93,1-2.29,2.24-2.51a.51.51,0,0,0,.36-.63.52.52,0,0,0-.63-.36Z"/><path class="cls-21" d="M162.45,145.91a6.68,6.68,0,0,0-2.53,2.61c-.46.85-.76,2-1.68,2.47l.76.58.07-.26a.52.52,0,0,0-1-.27l-.06.25a.52.52,0,0,0,.75.58,5.14,5.14,0,0,0,1.92-2.58,5.94,5.94,0,0,1,2.29-2.5.51.51,0,0,0-.52-.88Z"/><path class="cls-20" d="M162.36,145.6a3.06,3.06,0,0,0-2.42,2.58,11.07,11.07,0,0,0-.09,1.91,3.14,3.14,0,0,1-.35,1.76l.3-.24h-.05l.58.24v0l.05.4v0l-.63.36h0a.53.53,0,0,0,.63-.36.51.51,0,0,0-.36-.63h0a.53.53,0,0,0-.63.36.51.51,0,0,0,.05.45.55.55,0,0,0,.59.24c.6-.18.73-1.14.8-1.67s0-1.25,0-1.88a3.14,3.14,0,0,1,.4-1.62,2,2,0,0,1,1.36-.86.51.51,0,1,0-.28-1Z"/><path class="cls-21" d="M162.69,146.23a5.65,5.65,0,0,0-1.4,3.21,11.84,11.84,0,0,1-.81,3.69h.89s.07-.07.06-.06a.52.52,0,0,0-.18-.7.53.53,0,0,0-.71.18,1,1,0,0,0-.06,1.1.52.52,0,0,0,.89,0,11,11,0,0,0,.86-3.62,5.24,5.24,0,0,1,1.19-3.07.52.52,0,0,0-.73-.73Z"/><path class="cls-21" d="M163.42,146.4a13.09,13.09,0,0,0-.64,3,18.67,18.67,0,0,1-.88,3.11.52.52,0,0,0,.36.63.53.53,0,0,0,.64-.35,19.49,19.49,0,0,0,.85-3c.1-.51.17-1,.24-1.54a5.19,5.19,0,0,1,.31-1.35.51.51,0,0,0-.88-.52Z"/><path class="cls-21" d="M163.68,147a8.93,8.93,0,0,1,.4,4.3,5.18,5.18,0,0,0,.16,2.15,4,4,0,0,0,1.48,1.52c.55.38,1.07-.51.52-.89a2.09,2.09,0,0,1-1.13-1.48c0-.71,0-1.42,0-2.12a8.27,8.27,0,0,0-.58-4c-.28-.6-1.17-.08-.89.52Z"/><path class="cls-21" d="M165,147c.21,1.62.33,3.27.66,4.87a4.58,4.58,0,0,0,.84,1.93,7.46,7.46,0,0,0,1.63,1.44c.55.38,1.07-.51.52-.89a5.37,5.37,0,0,1-1.41-1.28,4.22,4.22,0,0,1-.64-1.74c-.25-1.43-.39-2.89-.57-4.33a.53.53,0,0,0-.52-.51c-.25,0-.55.24-.51.51Z"/><path class="cls-21" d="M165.74,147.68a3.09,3.09,0,0,1,.76,1.89,6.93,6.93,0,0,0,.61,2.13,5.3,5.3,0,0,0,2.87,2.52.52.52,0,0,0,.63-.36.53.53,0,0,0-.36-.64,4.19,4.19,0,0,1-2.39-2.35c-.53-1.31-.27-2.88-1.39-3.92-.49-.44-1.22.28-.73.73Z"/><path class="cls-30" d="M167.29,145.78c-.32-.89-5.79-2.37-5.79-2.37a2.42,2.42,0,0,0-1.07,1.33c-.26.62,1,1.74,2.89,2.51s3.56.88,3.82.26A2.24,2.24,0,0,0,167.29,145.78Z"/><ellipse class="cls-31" cx="164.32" cy="144.83" rx="1.08" ry="3.23" transform="translate(-32.3 241.37) rotate(-67.54)"/><rect class="cls-3" x="167.86" y="122.12" width="1.8" height="23.91" rx="0.68" transform="translate(64.01 -54.29) rotate(22.46)"/><g class="cls-32"><rect class="cls-21" x="171.7" y="102.1" width="0.48" height="46.65" transform="translate(60.94 -56.16) rotate(22.46)"/><path class="cls-33" d="M164,141.37a3.58,3.58,0,0,0,3.1,1.28L165,147.76l-3.14-2.34,2.24-4.18"/><rect class="cls-33" x="171.01" y="118.29" width="3.3" height="12.48" rx="1.65" transform="translate(60.66 -56.51) rotate(22.46)"/></g><path class="cls-2" d="M156.33,140.16l7.09,2.66s-.81,1.24-.43,2.05,1.85.09,1.8-2c0,0,1.12,1.45,2,0s-1-1.58-1-1.58,1.51-.15,1.58-1.52-1.83-.54-2.73.92c0,0-4.27-2.11-6.37-3.37s-3.74-1.61-4.61-.41S155.24,139.79,156.33,140.16Z"/><path class="cls-2" d="M170.23,138.65l-2-7.31s-1.32.7-2.09.24-.41-2.18,1.61-1.94c0,0-.83-.92.74-1.65s1.66.71,1.66.71.11-1,1.48-1,.37,1.88-1.17,2.64c0,0,1.7,4.44,2.76,6.66s1.26,3.87,0,4.62S170.5,139.77,170.23,138.65Z"/></g><g id="Layer_5" data-name="Layer 5"><path class="cls-1" d="M101,71S72.55,72.34,71.06,89.88s9.59,23.49,9.59,23.49h51.62s5-2,6.29-22.33C139.88,70.36,101,71,101,71Z"/><g class="cls-6"><path class="cls-7" d="M74.1,92c.66-2.88,1.72-5.81,3.89-7.82a15.77,15.77,0,0,1,3.42-2.27,51.07,51.07,0,0,1,44.3-1.16c4.46,2,9,5.24,10,10s-1.8,9.58-5,13.3a32.55,32.55,0,0,1-5.32,5,31.6,31.6,0,0,1-14.7,5.4,94.69,94.69,0,0,1-15.8.25l-9.56-.38a29.63,29.63,0,0,0-4.71,0,9.81,9.81,0,0,1-3,.23c-2-.4-2.62-2.28-3.1-4.07A38.79,38.79,0,0,1,74.1,92Z"/><path class="cls-8" d="M100.54,72c8,2.75,16,5.52,24.4,6.56a12.61,12.61,0,0,1,4,.89,8.52,8.52,0,0,1,2.35,1.83c1.56,1.64,3,3.74,5.24,4.09.38-.54,0-1.29-.46-1.78-2.19-2.47-5.41-3.73-8.5-4.9-2.4-.91-4.94-1.68-7.25-2.8-1.56-.76-2.74-1.73-4.46-2.15a60.11,60.11,0,0,0-7.67-1.26c-1.29-.14-2.58-.26-3.88-.34C103.33,72.1,101.36,72.43,100.54,72Z"/><path class="cls-8" d="M70.8,103.85a41,41,0,0,1,.31-10.95A21.07,21.07,0,0,1,75.61,83a32.67,32.67,0,0,0-2.91,18.47,8.06,8.06,0,0,1-5.35-.7"/></g><path class="cls-9" d="M122.84,132.7s5.44-.52,5.57,5.05-5.31,6.35-5.31,6.35,5.7-1,5.05,1.94-13.47,2.46-13.08-2.07S115.46,132.7,122.84,132.7Z"/><ellipse class="cls-10" cx="123.52" cy="133.33" rx="0.56" ry="0.2"/><path class="cls-9" d="M86.32,132.7s-5.44-.52-5.57,5.05,5.31,6.35,5.31,6.35-5.7-1-5,1.94S94.47,148.5,94.09,144,93.7,132.7,86.32,132.7Z"/><ellipse class="cls-10" cx="84.12" cy="133.87" rx="1.2" ry="0.52"/><ellipse class="cls-10" cx="85.96" cy="133.38" rx="0.74" ry="0.32"/><path class="cls-2" d="M123.13,137.85c0,10-8.1,10.52-18.09,10.52S87,147.84,87,137.85s8.09-25.67,18.08-25.67S123.13,127.85,123.13,137.85Z"/><g class="cls-11"><ellipse class="cls-12" cx="104.79" cy="114.78" rx="17.29" ry="8.16"/><ellipse class="cls-13" cx="105.04" cy="141.64" rx="10.73" ry="14.11"/></g><path class="cls-1" d="M97.86,120.17s-5.57,1.82-2.23,5.51,8.79-5.44,8.79-5.44,4.39,8.23,9.55,5.37-2.65-6.06-2.65-6.06S100.93,118.57,97.86,120.17Z"/><path class="cls-8" d="M82.8,117.46s2.93,7.25,18.13,2.92Z"/><path class="cls-8" d="M129.27,116.55s-3.12,7.75-18.36,3.56Z"/><path class="cls-2" d="M134.05,106.91c0,12.72-13,13.44-29,13.44s-29-.72-29-13.44S89,90,105,90,134.05,94.19,134.05,106.91Z"/><circle class="cls-2" cx="91.64" cy="90.95" r="11.65"/><circle class="cls-2" cx="118.45" cy="90.95" r="11.65"/><ellipse class="cls-10" cx="81.62" cy="101.5" rx="2.69" ry="1.04"/><ellipse class="cls-10" cx="128.43" cy="101.5" rx="2.69" ry="1.04"/><ellipse class="cls-10" cx="80.21" cy="99.21" rx="1.56" ry="0.6"/><ellipse class="cls-10" cx="129.45" cy="98.63" rx="1.56" ry="0.6"/><ellipse class="cls-10" cx="104.9" cy="99.78" rx="5.31" ry="1.04"/><path class="cls-14" d="M85.62,86.57s-2.56.19-2.4-1.92c0,0-1.48,3.31,2,4.2Z"/><path class="cls-14" d="M85.28,88.58s-2.52.45-2.58-1.66c0,0-1.14,3.44,2.46,4Z"/><path class="cls-14" d="M124.73,86.57s2.55.19,2.39-1.92c0,0,1.49,3.31-2,4.2Z"/><path class="cls-14" d="M125.07,88.58s2.52.45,2.58-1.66c0,0,1.14,3.44-2.46,4Z"/><circle class="cls-4" cx="91.3" cy="91.92" r="8.16"/><g class="cls-15"><path d="M92.41,88.42a6.88,6.88,0,0,0-3,.67A2,2,0,0,1,90,90.52a2.08,2.08,0,0,1-3.65,1.38,7,7,0,1,0,6-3.48Z"/></g><circle class="cls-4" cx="118.79" cy="91.92" r="8.16"/><g class="cls-16"><path d="M119,88.15a7,7,0,0,0-3,.66,2.11,2.11,0,0,1,.57,1.43,2.08,2.08,0,0,1-3.65,1.38,7,7,0,1,0,6-3.47Z"/></g><path class="cls-17" d="M108.5,107.85a3.62,3.62,0,0,0-.78-.52,2.73,2.73,0,0,0-2.85,0,2.73,2.73,0,0,0-2.85,0,3.62,3.62,0,0,0-.78.52,7.34,7.34,0,0,0,7.26,0Z"/><ellipse class="cls-17" cx="104.82" cy="112.57" rx="2.61" ry="1.35"/><path class="cls-5" d="M94,105.47s10.47,6.07,21.88,0c0,0-2.4,7.6-10.74,7.6S94,105.47,94,105.47Z"/><g class="cls-18"><ellipse class="cls-19" cx="104.68" cy="115.37" rx="9.15" ry="4.95"/><ellipse class="cls-4" cx="104.68" cy="103.87" rx="9.15" ry="4.95"/></g><path class="cls-20" d="M106.58,145a9.45,9.45,0,0,0,1.55,4.15c.38.62.79,1.23,1.17,1.85.27.44.8,1.19.54,1.74a.79.79,0,0,0,.27,1,.77.77,0,0,0,1-.27c.75-1.61-.44-3.12-1.28-4.43a9.28,9.28,0,0,1-1.78-4.08.76.76,0,1,0-1.51,0Z"/><path class="cls-20" d="M107.91,145.11c1.5,2.73,3.14,5.58,5.9,7.21a.77.77,0,0,0,1-1,2.17,2.17,0,0,0-.59-.72.76.76,0,1,0-1.07,1.07,1.15,1.15,0,0,1,.35.41l1-1c-2.53-1.49-4-4.17-5.36-6.66-.47-.85-1.77-.09-1.31.76Z"/><path class="cls-20" d="M109.49,145.42a10.29,10.29,0,0,1,3.75,3.52,6.17,6.17,0,0,0,1.92,2.08c.76.43,2.39.76,2.42-.57a.76.76,0,0,0-1.51,0v.07l.11-.38,0,.06.27-.27s.08,0,.06,0a.65.65,0,0,0-.22,0,1.77,1.77,0,0,1-.41-.21,3.05,3.05,0,0,1-.72-.67c-.51-.61-.88-1.32-1.37-1.94a11.16,11.16,0,0,0-3.48-2.93c-.86-.46-1.63.85-.77,1.31Z"/><path class="cls-20" d="M110.35,144.18c1.71,1.41,3.41,2.84,5.15,4.22a4.36,4.36,0,0,0,2.61,1.2,1.16,1.16,0,0,0,1.17-.84,1,1,0,0,0-.93-1.2.76.76,0,0,0-.76.75.78.78,0,0,0,.76.76h.07L118,149l0,0-.27-.27q.68-.69.18-.66l-.16,0a2,2,0,0,1-.39-.14,4.58,4.58,0,0,1-.84-.53c-.54-.42-1.07-.88-1.61-1.32l-3.58-2.94a.78.78,0,0,0-1.07,0,.76.76,0,0,0,0,1.07Z"/><path class="cls-20" d="M109.52,142.17l6.24,3.64a8.46,8.46,0,0,0,2.81,1.26,5.06,5.06,0,0,0,3-.46c.88-.42.11-1.73-.76-1.31-1.86.89-3.48-.33-5-1.24l-5.47-3.19a.75.75,0,0,0-.76,1.3Z"/><path class="cls-20" d="M103.23,145.67c-.19,1.84.59,3.6.46,5.44a6.92,6.92,0,0,1-2.37,4.16.76.76,0,0,0,1.07,1.07,8.66,8.66,0,0,0,2.75-4.67c.3-2-.6-4-.4-6a.76.76,0,0,0-.75-.76.77.77,0,0,0-.76.76Z"/><path class="cls-21" d="M105.12,144.82c-1,1.71-.37,3.59.28,5.3.47,1.22,1.21,3.34-.23,4.24-.82.52-.06,1.83.77,1.31,1.57-1,1.81-3,1.37-4.63s-1.88-3.74-.88-5.46a.76.76,0,0,0-1.31-.76Z"/><path class="cls-21" d="M106.41,144.73a10,10,0,0,0,.34,5c.49,1.42,1.65,3,1.31,4.55l1.38-.18-.21-.32c-.55-.8-1.86,0-1.31.76l.22.32a.76.76,0,0,0,1.38-.18c.37-1.72-.43-3.2-1.07-4.74a8.53,8.53,0,0,1-.58-4.81.78.78,0,0,0-.53-.93.76.76,0,0,0-.93.53Z"/><path class="cls-20" d="M106,144.53a4.59,4.59,0,0,0-.52,3.18,5.15,5.15,0,0,0,1.39,2.45c.59.62,1.27,1.14,1.9,1.71a4.1,4.1,0,0,1,1.42,1.85l.07-.58,0,.07.86-.35h0l.45.34,0,0-.12.92,0,0c.74-.63-.34-1.7-1.07-1.07l0,0a.77.77,0,0,0-.12.91.73.73,0,0,0,.52.4.79.79,0,0,0,.86-.35c.39-.86-.45-1.87-1-2.49a19.61,19.61,0,0,0-1.84-1.68,5.82,5.82,0,0,1-1.52-1.79,2.92,2.92,0,0,1,.13-2.71.76.76,0,0,0-1.3-.77Z"/><path class="cls-21" d="M107,144.77a8.65,8.65,0,0,0,2.39,4.88c1.14,1.32,2.52,2.55,3.19,4.2l.93-.93c-.1,0,0,.08-.06-.09-.2-1-1.66-.55-1.46.4a1.53,1.53,0,0,0,1.12,1.15c.5.14,1.15-.37.93-.93a15.08,15.08,0,0,0-3.09-4.31c-1.1-1.23-2.3-2.65-2.44-4.37-.08-1-1.59-1-1.51,0Z"/><path class="cls-21" d="M107.93,144.33a19.51,19.51,0,0,0,2.8,3.56,26.73,26.73,0,0,1,2.52,3.81c.47.86,1.78.09,1.31-.76A29.17,29.17,0,0,0,112,147c-.46-.59-.95-1.14-1.44-1.7a7.2,7.2,0,0,1-1.28-1.77.76.76,0,0,0-1-.27.78.78,0,0,0-.28,1Z"/><path class="cls-21" d="M108.76,144.48c2,.53,3.49,2,5,3.4a12.17,12.17,0,0,0,2.39,2,5.07,5.07,0,0,0,3.52,0,.76.76,0,0,0-.4-1.46,7,7,0,0,1-1.64.25,1.82,1.82,0,0,1-1.3-.5c-.77-.62-1.48-1.31-2.21-2a11.88,11.88,0,0,0-4.92-3.13.76.76,0,0,0-.4,1.46Z"/><path class="cls-21" d="M110.16,143c1.92,1.25,3.81,2.62,5.81,3.74a7.14,7.14,0,0,0,2.9,1,9.9,9.9,0,0,0,3.33-.42.76.76,0,0,0-.4-1.46,8.1,8.1,0,0,1-2.93.37,6.47,6.47,0,0,1-2.65-1.08c-1.79-1.1-3.53-2.29-5.3-3.44-.81-.53-1.57.78-.76,1.31Z"/><path class="cls-21" d="M111.46,142.82a4.54,4.54,0,0,1,2.89,1,10.05,10.05,0,0,0,2.79,1.32,7.88,7.88,0,0,0,5.69-.74c.85-.47.09-1.77-.77-1.3a6.27,6.27,0,0,1-5.2.36c-1.84-.69-3.26-2.34-5.4-2.1a.78.78,0,0,0-.76.76.76.76,0,0,0,.76.75Z"/><path class="cls-22" d="M110.88,139.27c-1.31-.49-8.19,4.2-8.19,4.2a3.68,3.68,0,0,0,.47,2.47c.44.87,2.94.5,5.56-.83s4.39-3.14,4-4A3.31,3.31,0,0,0,110.88,139.27Z"/><ellipse class="cls-23" cx="106.98" cy="141.68" rx="4.75" ry="1.59" transform="translate(-52.64 63.96) rotate(-26.98)"/><rect class="cls-3" x="91.86" y="83.72" width="2.65" height="61.74" rx="1.32" transform="translate(-41.85 54.76) rotate(-26.98)"/><g class="cls-24"><rect class="cls-21" x="92.24" y="80.35" width="0.71" height="68.56" transform="translate(-41.93 54.49) rotate(-26.98)"/><path class="cls-25" d="M102.82,138.72a5.28,5.28,0,0,0,4.4-2.24l3.68,7.23L105.28,145l-2.52-6.51"/><rect class="cls-25" x="79.1" y="82.65" width="4.85" height="18.34" rx="2.43" transform="translate(-32.79 46.99) rotate(-26.98)"/></g><path class="cls-2" d="M95.79,133.57l4.23-9.38s1.62,1.22,2.75.77.85-2.5-1.91-2.61c0,0,1.48-1.39-.48-2.71s-2.22,1.26-2.22,1.26-.08-2.06-1.93-2.28-.89,2.44,1,3.79c0,0-3.23,5.59-5.13,8.33s-2.51,4.93-1,6.21S95.19,135,95.79,133.57Z"/><path class="cls-2" d="M113.86,138.61l-10.11-1.9s.07,2-1,2.69-2.21-1.21-.72-3.54c0,0-2.32.9-2.28-1.46s2.31-1.1,2.31-1.1a2.38,2.38,0,0,1-.77-2.89c.88-1.64,2.52.66,2.54,3,0,0,6.43.55,9.77.56s5.48.76,5.63,2.76S115.38,138.94,113.86,138.61Z"/><circle class="cls-2" cx="90.83" cy="136.24" r="3.5"/><circle class="cls-2" cx="119.08" cy="136.06" r="3.5"/><path class="cls-9" d="M175.12,137.16s4-.38,4.1,3.72a4.57,4.57,0,0,1-3.91,4.67s4.19-.76,3.72,1.43-9.92,1.82-9.63-1.52S169.68,137.16,175.12,137.16Z"/><ellipse class="cls-10" cx="175.62" cy="137.62" rx="0.41" ry="0.15"/><path class="cls-9" d="M148.22,137.16s-4-.38-4.1,3.72a4.57,4.57,0,0,0,3.91,4.67s-4.19-.76-3.72,1.43,9.92,1.82,9.63-1.52S153.66,137.16,148.22,137.16Z"/><ellipse class="cls-10" cx="146.6" cy="138.02" rx="0.88" ry="0.38"/><ellipse class="cls-10" cx="147.96" cy="137.66" rx="0.54" ry="0.23"/><path class="cls-2" d="M175.33,141c0,7.36-6,7.75-13.32,7.75s-13.32-.39-13.32-7.75,6-18.9,13.32-18.9S175.33,133.59,175.33,141Z"/><g class="cls-26"><ellipse class="cls-12" cx="162.51" cy="123.96" rx="6.01" ry="12.73" transform="translate(19.06 269.56) rotate(-82.76)"/><ellipse class="cls-13" cx="162.01" cy="143.74" rx="7.9" ry="10.39"/></g><path class="cls-2" d="M184.48,122.68c-1.32,7.94-10.83,6.82-22.47,4.87s-21-4-19.67-11.91,11.2-9,22.84-7.06S185.81,114.73,184.48,122.68Z"/><circle class="cls-2" cx="155.33" cy="107.66" r="8.58"/><circle class="cls-2" cx="174.8" cy="110.91" r="8.58"/><circle class="cls-4" cx="174.93" cy="111.65" r="6.01"/><g class="cls-27"><path d="M175.36,108.34a5,5,0,0,0-2.23.12,1.54,1.54,0,0,1-1.53,2.38,1.57,1.57,0,0,1-1-.71,5.22,5.22,0,0,0-1.12,2.44,5.15,5.15,0,1,0,5.93-4.23Z"/></g><circle class="cls-4" cx="154.96" cy="108.32" r="6.01"/><g class="cls-28"><path d="M155.53,105.42a5.06,5.06,0,0,0-2.23.13,1.51,1.51,0,0,1,.24,1.11,1.54,1.54,0,0,1-1.77,1.26,1.5,1.5,0,0,1-1-.71,5,5,0,0,0-1.12,2.44,5.15,5.15,0,1,0,5.92-4.23Z"/></g><ellipse class="cls-10" cx="146.77" cy="114.11" rx="0.76" ry="1.98" transform="translate(10.06 240.1) rotate(-80.53)"/><ellipse class="cls-10" cx="180.77" cy="119.78" rx="0.76" ry="1.98" transform="translate(32.87 278.38) rotate(-80.53)"/><ellipse class="cls-10" cx="146.02" cy="112.28" rx="0.44" ry="1.15" transform="translate(11.24 237.83) rotate(-80.53)"/><ellipse class="cls-10" cx="181.86" cy="117.82" rx="0.44" ry="1.15" transform="translate(35.71 277.81) rotate(-80.53)"/><path class="cls-5" d="M155.25,118.49a17.51,17.51,0,0,0,15.89,2.65,8.37,8.37,0,0,1-8.72,4.22A9,9,0,0,1,155.25,118.49Z"/><g class="cls-29"><ellipse class="cls-19" cx="161.83" cy="126.98" rx="3.65" ry="6.74" transform="translate(9.95 265.71) rotate(-80.53)"/><ellipse class="cls-4" cx="163.23" cy="118.63" rx="3.65" ry="6.74" transform="translate(19.35 260.11) rotate(-80.53)"/></g><ellipse class="cls-10" cx="163.88" cy="115.69" rx="0.76" ry="3.91" transform="translate(22.81 258.3) rotate(-80.53)"/><path class="cls-20" d="M162.42,146.1a6.71,6.71,0,0,0-1.49,2.78c-.15.48-.28,1-.44,1.45-.12.33-.28.77-.65.87a.51.51,0,0,0,.27,1c1.12-.3,1.38-1.61,1.67-2.56a6.43,6.43,0,0,1,1.36-2.8c.47-.47-.26-1.2-.72-.73Z"/><path class="cls-20" d="M163,146.86c-.76,2-1.47,4.09-1.1,6.25a.52.52,0,0,0,.5.38.54.54,0,0,0,.5-.38,1.67,1.67,0,0,0,.1-.63.52.52,0,0,0-1,0,.73.73,0,0,1-.07.36h1c-.34-2,.41-3.91,1.09-5.7a.51.51,0,0,0-.36-.63.52.52,0,0,0-.63.35Z"/><path class="cls-20" d="M163.51,147.83a7.1,7.1,0,0,1,.13,1.9,11.15,11.15,0,0,1-.4,1.89,3.29,3.29,0,0,0-.08,1.76c.13.49.64,1.3,1.24.86a.53.53,0,0,0,.18-.7.51.51,0,0,0-.7-.18l0,0,.26-.07c.18.1.22.09.13,0a.42.42,0,0,1-.06-.14,1.79,1.79,0,0,1,0-.89c.1-.51.28-1,.39-1.5a7.89,7.89,0,0,0,0-3.21c-.14-.65-1.13-.38-1,.27Z"/><path class="cls-20" d="M164.52,147.72c0,1.52,0,3.05.09,4.57a2.87,2.87,0,0,0,.55,1.8.77.77,0,0,0,1,.23.68.68,0,0,0,.25-.94c-.32-.58-1.21-.06-.88.52l0,.06-.07-.26v.07l.07-.26h0l.23-.13h.2c-.09,0-.18-.36-.2-.45a3.31,3.31,0,0,1-.07-.55c0-.5,0-1,0-1.5l-.07-3.17a.51.51,0,0,0-1,0Z"/><path class="cls-20" d="M165.2,146.41l.87,4.82a5.63,5.63,0,0,0,.63,2.05,3.28,3.28,0,0,0,1.43,1.23c.6.26,1.13-.63.52-.89a2.41,2.41,0,0,1-1.18-1.07,7.49,7.49,0,0,1-.49-2.05l-.79-4.37c-.12-.65-1.11-.37-1,.28Z"/><path class="cls-20" d="M160.67,144.6a27.56,27.56,0,0,0-2.44,2.51,4.55,4.55,0,0,1-3.48.81c-.66,0-.66,1,0,1a5.66,5.66,0,0,0,3.91-.87c1-.74,1.53-1.9,2.53-2.59.55-.37,0-1.27-.52-.89Z"/><path class="cls-21" d="M161.83,145.27a4,4,0,0,0-2.51,2.37c-.45.83-1.21,2.23-2.39,1.86-.63-.2-.9.79-.27,1,1.37.43,2.55-.63,3.2-1.72.56-.93,1-2.29,2.24-2.51a.51.51,0,0,0,.36-.63.52.52,0,0,0-.63-.36Z"/><path class="cls-21" d="M162.45,145.91a6.68,6.68,0,0,0-2.53,2.61c-.46.85-.76,2-1.68,2.47l.76.58.07-.26a.52.52,0,0,0-1-.27l-.06.25a.52.52,0,0,0,.75.58,5.14,5.14,0,0,0,1.92-2.58,5.94,5.94,0,0,1,2.29-2.5.51.51,0,0,0-.52-.88Z"/><path class="cls-20" d="M162.36,145.6a3.06,3.06,0,0,0-2.42,2.58,11.07,11.07,0,0,0-.09,1.91,3.14,3.14,0,0,1-.35,1.76l.3-.24h-.05l.58.24v0l.05.4v0l-.63.36h0a.53.53,0,0,0,.63-.36.51.51,0,0,0-.36-.63h0a.53.53,0,0,0-.63.36.51.51,0,0,0,.05.45.55.55,0,0,0,.59.24c.6-.18.73-1.14.8-1.67s0-1.25,0-1.88a3.14,3.14,0,0,1,.4-1.62,2,2,0,0,1,1.36-.86.51.51,0,1,0-.28-1Z"/><path class="cls-21" d="M162.69,146.23a5.65,5.65,0,0,0-1.4,3.21,11.84,11.84,0,0,1-.81,3.69h.89s.07-.07.06-.06a.52.52,0,0,0-.18-.7.53.53,0,0,0-.71.18,1,1,0,0,0-.06,1.1.52.52,0,0,0,.89,0,11,11,0,0,0,.86-3.62,5.24,5.24,0,0,1,1.19-3.07.52.52,0,0,0-.73-.73Z"/><path class="cls-21" d="M163.42,146.4a13.09,13.09,0,0,0-.64,3,18.67,18.67,0,0,1-.88,3.11.52.52,0,0,0,.36.63.53.53,0,0,0,.64-.35,19.49,19.49,0,0,0,.85-3c.1-.51.17-1,.24-1.54a5.19,5.19,0,0,1,.31-1.35.51.51,0,0,0-.88-.52Z"/><path class="cls-21" d="M163.68,147a8.93,8.93,0,0,1,.4,4.3,5.18,5.18,0,0,0,.16,2.15,4,4,0,0,0,1.48,1.52c.55.38,1.07-.51.52-.89a2.09,2.09,0,0,1-1.13-1.48c0-.71,0-1.42,0-2.12a8.27,8.27,0,0,0-.58-4c-.28-.6-1.17-.08-.89.52Z"/><path class="cls-21" d="M165,147c.21,1.62.33,3.27.66,4.87a4.58,4.58,0,0,0,.84,1.93,7.46,7.46,0,0,0,1.63,1.44c.55.38,1.07-.51.52-.89a5.37,5.37,0,0,1-1.41-1.28,4.22,4.22,0,0,1-.64-1.74c-.25-1.43-.39-2.89-.57-4.33a.53.53,0,0,0-.52-.51c-.25,0-.55.24-.51.51Z"/><path class="cls-21" d="M165.74,147.68a3.09,3.09,0,0,1,.76,1.89,6.93,6.93,0,0,0,.61,2.13,5.3,5.3,0,0,0,2.87,2.52.52.52,0,0,0,.63-.36.53.53,0,0,0-.36-.64,4.19,4.19,0,0,1-2.39-2.35c-.53-1.31-.27-2.88-1.39-3.92-.49-.44-1.22.28-.73.73Z"/><path class="cls-30" d="M167.29,145.78c-.32-.89-5.79-2.37-5.79-2.37a2.42,2.42,0,0,0-1.07,1.33c-.26.62,1,1.74,2.89,2.51s3.56.88,3.82.26A2.24,2.24,0,0,0,167.29,145.78Z"/><ellipse class="cls-31" cx="164.32" cy="144.83" rx="1.08" ry="3.23" transform="translate(-32.3 241.37) rotate(-67.54)"/><rect class="cls-3" x="167.86" y="122.12" width="1.8" height="23.91" rx="0.68" transform="translate(64.01 -54.29) rotate(22.46)"/><g class="cls-32"><rect class="cls-21" x="171.7" y="102.1" width="0.48" height="46.65" transform="translate(60.94 -56.16) rotate(22.46)"/><path class="cls-33" d="M164,141.37a3.58,3.58,0,0,0,3.1,1.28L165,147.76l-3.14-2.34,2.24-4.18"/><rect class="cls-33" x="171.01" y="118.29" width="3.3" height="12.48" rx="1.65" transform="translate(60.66 -56.51) rotate(22.46)"/></g><path class="cls-2" d="M156.33,140.16l7.09,2.66s-.81,1.24-.43,2.05,1.85.09,1.8-2c0,0,1.12,1.45,2,0s-1-1.58-1-1.58,1.51-.15,1.58-1.52-1.83-.54-2.73.92c0,0-4.27-2.11-6.37-3.37s-3.74-1.61-4.61-.41S155.24,139.79,156.33,140.16Z"/><path class="cls-2" d="M170.23,138.65l-2-7.31s-1.32.7-2.09.24-.41-2.18,1.61-1.94c0,0-.83-.92.74-1.65s1.66.71,1.66.71.11-1,1.48-1,.37,1.88-1.17,2.64c0,0,1.7,4.44,2.76,6.66s1.26,3.87,0,4.62S170.5,139.77,170.23,138.65Z"/><path class="cls-34" d="M80.5,113s.12,5.44,2.76,5.46S83.45,114.48,80.5,113Z"/><path class="cls-34" d="M129.72,114.74s-5.39.75-5.1,3.36S128.6,117.83,129.72,114.74Z"/><path class="cls-34" d="M182.35,125.4s-5.38.8-5.07,3.42S181.25,128.51,182.35,125.4Z"/><path class="cls-34" d="M144.08,118.93s-.54,4.5,1.63,4.82S146.34,120.49,144.08,118.93Z"/></g></svg>