<svg xmlns="http://www.w3.org/2000/svg" xmlns:xlink="http://www.w3.org/1999/xlink" viewBox="0 0 260 168"><defs><style>.cls-1{fill:#8ecf00;}.cls-2{fill:#457500;}.cls-3{fill:#7ece00;}.cls-4{fill:#d3eb0b;}.cls-5{clip-path:url(#clip-path);}.cls-6{fill:#75b506;}.cls-7{fill:#b1e523;}.cls-8{fill:#fff;}.cls-9{clip-path:url(#clip-path-2);}.cls-10{fill:#f73434;}</style><clipPath id="clip-path"><path class="cls-1" d="M146.26,96.18c0,8.87-7.19,9.34-16.06,9.34s-16.06-.47-16.06-9.34,7.19-22.8,16.06-22.8S146.26,87.3,146.26,96.18Z"/></clipPath><clipPath id="clip-path-2"><path class="cls-2" d="M120.36,70.58a21.13,21.13,0,0,0,19.43,0,10.09,10.09,0,0,1-9.54,6.75C122.85,77.33,120.36,70.58,120.36,70.58Z"/></clipPath></defs><g id="Layer_9" data-name="Layer 9"><path class="cls-3" d="M146,91.61s4.83-.46,4.95,4.48-4.72,5.64-4.72,5.64,5.06-.92,4.49,1.72-12,2.18-11.62-1.84S139.45,91.61,146,91.61Z"/><ellipse class="cls-4" cx="146.61" cy="92.16" rx="0.5" ry="0.18"/><path class="cls-3" d="M113.57,91.61s-4.83-.46-4.94,4.48,4.71,5.64,4.71,5.64-5.06-.92-4.48,1.72,12,2.18,11.61-1.84S120.13,91.61,113.57,91.61Z"/><ellipse class="cls-4" cx="111.62" cy="92.64" rx="1.06" ry="0.46"/><ellipse class="cls-4" cx="113.26" cy="92.21" rx="0.65" ry="0.28"/><path class="cls-1" d="M146.26,96.18c0,8.87-7.19,9.34-16.06,9.34s-16.06-.47-16.06-9.34,7.19-22.8,16.06-22.8S146.26,87.3,146.26,96.18Z"/><g class="cls-5"><ellipse class="cls-6" cx="129.97" cy="75.69" rx="15.35" ry="7.25"/><ellipse class="cls-7" cx="130.2" cy="99.54" rx="9.52" ry="12.53"/></g><path class="cls-1" d="M156,69.76C156,79.48,144.43,80,130.2,80s-25.75-.54-25.75-10.26S116,56.82,130.2,56.82,156,60,156,69.76Z"/><circle class="cls-1" cx="118.3" cy="57.69" r="10.35"/><circle class="cls-1" cx="142.1" cy="57.69" r="10.35"/><circle class="cls-8" cx="142.4" cy="58.55" r="7.24"/><circle class="cls-8" cx="118" cy="58.55" r="7.24"/><path d="M118,52.34a6.22,6.22,0,0,0-2.63.59,1.85,1.85,0,1,1-2.73,2.5,6.1,6.1,0,0,0-.85,3.12A6.21,6.21,0,1,0,118,52.34Z"/><path d="M142.45,52.34a6.25,6.25,0,0,0-2.63.59,1.85,1.85,0,1,1-2.73,2.5,6.1,6.1,0,0,0-.85,3.12,6.21,6.21,0,1,0,6.21-6.21Z"/><ellipse class="cls-4" cx="109.41" cy="67.06" rx="2.39" ry="0.92"/><ellipse class="cls-4" cx="150.97" cy="67.06" rx="2.39" ry="0.92"/><ellipse class="cls-4" cx="108.15" cy="65.03" rx="1.39" ry="0.54"/><ellipse class="cls-4" cx="151.87" cy="64.51" rx="1.39" ry="0.54"/><path class="cls-2" d="M120.36,70.58a21.13,21.13,0,0,0,19.43,0,10.09,10.09,0,0,1-9.54,6.75C122.85,77.33,120.36,70.58,120.36,70.58Z"/><g class="cls-9"><ellipse class="cls-10" cx="129.88" cy="79.38" rx="8.13" ry="4.4"/><ellipse class="cls-8" cx="129.88" cy="69.17" rx="8.13" ry="4.4"/></g><ellipse class="cls-4" cx="130.07" cy="65.53" rx="4.71" ry="0.92"/><path class="cls-1" d="M116.1,96.17l1.86,8.94s-1.79,0-2.37.89,1.11,1.94,3.16.58c0,0-.76,2.07,1.34,2s.93-2.07.93-2.07a2.1,2.1,0,0,0,2.58.63c1.44-.81-.63-2.22-2.71-2.2,0,0-.6-5.69-.67-8.66s-.77-4.85-2.56-5S115.78,94.82,116.1,96.17Z"/><path class="cls-1" d="M144.38,96.17l-1.87,8.94s1.8,0,2.38.89-1.11,1.94-3.16.58c0,0,.76,2.07-1.34,2s-.93-2.07-.93-2.07a2.1,2.1,0,0,1-2.58.63c-1.44-.81.63-2.22,2.7-2.2,0,0,.61-5.69.68-8.66s.77-4.85,2.56-5S144.7,94.82,144.38,96.17Z"/></g></svg>