<svg xmlns="http://www.w3.org/2000/svg" xmlns:xlink="http://www.w3.org/1999/xlink" viewBox="0 0 260 168"><defs><style>.cls-1{fill:#8ecf00;}.cls-2{fill:#457500;}.cls-3{fill:#ff790b;}.cls-4{fill:#7ece00;}.cls-5{fill:#d3eb0b;}.cls-6{clip-path:url(#clip-path);}.cls-7{fill:#75b506;}.cls-8{fill:#b1e523;}.cls-9{fill:#fff;}.cls-10{clip-path:url(#clip-path-2);}.cls-11{fill:#f73434;}.cls-12{clip-path:url(#clip-path-3);}.cls-13{clip-path:url(#clip-path-4);}.cls-14{fill:#e56200;}.cls-15{fill:#ff9c0d;}.cls-16{fill:#113a00;}.cls-17{fill:#a50707;}.cls-18{clip-path:url(#clip-path-5);}</style><clipPath id="clip-path"><path class="cls-1" d="M165.62,145.32c0,8-6.45,8.37-14.39,8.37s-14.39-.42-14.39-8.37,6.44-20.42,14.39-20.42S165.62,137.37,165.62,145.32Z"/></clipPath><clipPath id="clip-path-2"><path class="cls-2" d="M145.56,120a18.93,18.93,0,0,0,16.5,5.54,9,9,0,0,1-10,3C145.75,126.47,145.56,120,145.56,120Z"/></clipPath><clipPath id="clip-path-3"><path class="cls-1" d="M112.81,142c0,10.79-8.75,11.36-19.54,11.36S73.73,152.76,73.73,142s8.75-27.73,19.54-27.73S112.81,131.17,112.81,142Z"/></clipPath><clipPath id="clip-path-4"><path class="cls-3" d="M79.53,72.91s-29.31,7-27.42,25.48,14.58,22.53,14.58,22.53l53.64-10.13s4.79-3.08,2.15-24.44C119.8,64.6,79.53,72.91,79.53,72.91Z"/></clipPath><clipPath id="clip-path-5"><path class="cls-2" d="M78.59,109.45s12.34,4.34,23.23-4.39c0,0-1,8.55-9.88,10.23S78.59,109.45,78.59,109.45Z"/></clipPath></defs><g id="Layer_6" data-name="Layer 6"><path class="cls-4" d="M165.38,141.23s4.33-.41,4.43,4a4.93,4.93,0,0,1-4.22,5s4.53-.82,4,1.55-10.72,1.95-10.41-1.65S159.51,141.23,165.38,141.23Z"/><ellipse class="cls-5" cx="165.93" cy="141.72" rx="0.44" ry="0.16"/><path class="cls-4" d="M136.33,141.23s-4.33-.41-4.43,4a4.94,4.94,0,0,0,4.22,5s-4.53-.82-4,1.55,10.71,1.95,10.4-1.65S142.2,141.23,136.33,141.23Z"/><ellipse class="cls-5" cx="134.58" cy="142.15" rx="0.95" ry="0.41"/><ellipse class="cls-5" cx="136.05" cy="141.77" rx="0.59" ry="0.25"/><path class="cls-1" d="M165.62,145.32c0,8-6.45,8.37-14.39,8.37s-14.39-.42-14.39-8.37,6.44-20.42,14.39-20.42S165.62,137.37,165.62,145.32Z"/><g class="cls-6"><ellipse class="cls-7" cx="151.02" cy="126.97" rx="13.75" ry="6.49"/><ellipse class="cls-8" cx="151.23" cy="148.33" rx="8.53" ry="11.23"/></g><path class="cls-1" d="M176,129.48c-2.77,8.25-12.72,5.43-24.8,1.37s-21.72-7.81-18.95-16.06,13.48-7.7,25.56-3.64S178.8,121.23,176,129.48Z"/><circle class="cls-1" cx="147.49" cy="108.49" r="9.27"/><circle class="cls-1" cx="167.7" cy="115.27" r="9.27"/><circle class="cls-9" cx="167.71" cy="116.09" r="6.49"/><circle class="cls-9" cx="146.99" cy="109.13" r="6.49"/><path d="M148.72,103.85a5.52,5.52,0,0,0-2.4-.25,1.66,1.66,0,1,1-3,1.34,5.47,5.47,0,0,0-1.61,2.41,5.56,5.56,0,1,0,7-3.5Z"/><path d="M169.52,110.83a5.52,5.52,0,0,0-2.4-.25,1.66,1.66,0,0,1-2,2.28,1.64,1.64,0,0,1-1-.94,5.56,5.56,0,1,0,5.43-1.09Z"/><ellipse class="cls-5" cx="137.26" cy="113.91" rx="0.82" ry="2.14" transform="translate(-14.41 207.77) rotate(-71.44)"/><ellipse class="cls-5" cx="172.56" cy="125.76" rx="0.82" ry="2.14" transform="translate(-1.59 249.32) rotate(-71.44)"/><ellipse class="cls-5" cx="136.77" cy="111.83" rx="0.48" ry="1.24" transform="translate(-12.77 205.89) rotate(-71.44)"/><ellipse class="cls-5" cx="174.05" cy="123.85" rx="0.48" ry="1.24" transform="translate(1.24 249.43) rotate(-71.44)"/><path class="cls-2" d="M145.56,120a18.93,18.93,0,0,0,16.5,5.54,9,9,0,0,1-10,3C145.75,126.47,145.56,120,145.56,120Z"/><g class="cls-10"><ellipse class="cls-11" cx="151.14" cy="130.21" rx="3.94" ry="7.28" transform="translate(-20.41 232.04) rotate(-71.44)"/><ellipse class="cls-9" cx="154.05" cy="121.54" rx="3.94" ry="7.28" transform="translate(-10.2 228.89) rotate(-71.44)"/></g><ellipse class="cls-5" cx="155.25" cy="118.51" rx="0.82" ry="4.22" transform="translate(-6.51 227.96) rotate(-71.44)"/><path class="cls-1" d="M138.59,145.32l1.67,8s-1.6,0-2.12.79,1,1.74,2.83.52c0,0-.68,1.85,1.19,1.79s.84-1.86.84-1.86a1.89,1.89,0,0,0,2.31.57c1.29-.73-.57-2-2.42-2,0,0-.54-5.11-.6-7.76s-.7-4.35-2.3-4.44S138.3,144.11,138.59,145.32Z"/><path class="cls-1" d="M163.93,145.32l-1.67,8s1.6,0,2.12.79-1,1.74-2.83.52c0,0,.68,1.85-1.19,1.79s-.84-1.86-.84-1.86a1.89,1.89,0,0,1-2.31.57c-1.29-.73.57-2,2.42-2,0,0,.54-5.11.6-7.76s.7-4.35,2.3-4.44S164.22,144.11,163.93,145.32Z"/><path class="cls-4" d="M112.49,136.41s5.88-.56,6,5.45-5.74,6.86-5.74,6.86,6.16-1.12,5.46,2.1-14.55,2.65-14.13-2.24S104.52,136.41,112.49,136.41Z"/><ellipse class="cls-5" cx="113.23" cy="137.08" rx="0.6" ry="0.22"/><path class="cls-4" d="M73,136.41s-5.88-.56-6,5.45,5.74,6.86,5.74,6.86-6.16-1.12-5.46,2.1,14.55,2.65,14.13-2.24S81,136.41,73,136.41Z"/><ellipse class="cls-5" cx="70.66" cy="137.67" rx="1.29" ry="0.56"/><ellipse class="cls-5" cx="72.65" cy="137.14" rx="0.8" ry="0.34"/><path class="cls-1" d="M112.81,142c0,10.79-8.75,11.36-19.54,11.36S73.73,152.76,73.73,142s8.75-27.73,19.54-27.73S112.81,131.17,112.81,142Z"/><g class="cls-12"><ellipse class="cls-7" cx="92.99" cy="117.05" rx="18.67" ry="8.82"/><ellipse class="cls-8" cx="93.27" cy="146.06" rx="11.59" ry="15.25"/></g><path class="cls-1" d="M76.11,142l2.27,10.88s-2.18,0-2.89,1.07,1.36,2.37,3.84.71c0,0-.92,2.52,1.63,2.43s1.14-2.52,1.14-2.52,1.38,1.75,3.13.77-.76-2.71-3.28-2.68c0,0-.74-6.93-.82-10.54s-.95-5.89-3.12-6S75.72,140.32,76.11,142Z"/><path class="cls-1" d="M110.52,142l-2.28,10.88s2.19,0,2.89,1.07-1.35,2.37-3.84.71c0,0,.92,2.52-1.63,2.43s-1.13-2.52-1.13-2.52-1.39,1.75-3.14.77.77-2.71,3.29-2.68c0,0,.74-6.93.82-10.54s.94-5.89,3.11-6S110.91,140.32,110.52,142Z"/><path class="cls-3" d="M79.53,72.91s-29.31,7-27.42,25.48,14.58,22.53,14.58,22.53l53.64-10.13s4.79-3.08,2.15-24.44C119.8,64.6,79.53,72.91,79.53,72.91Z"/><g class="cls-13"><path class="cls-14" d="M55.68,100c.12-3.12.65-6.37,2.51-8.89a16.24,16.24,0,0,1,3.11-3,54,54,0,0,1,45.81-9.9c5,1.25,10.35,3.69,12.36,8.46s0,10.32-2.61,14.81a34.27,34.27,0,0,1-4.54,6.28,33.38,33.38,0,0,1-14.21,8.5,100.1,100.1,0,0,1-16.37,3.36l-10,1.48a31,31,0,0,0-4.89.94,10.17,10.17,0,0,1-3.13.84c-2.2,0-3.17-1.85-4-3.62a41.45,41.45,0,0,1-4-19.23Z"/><path class="cls-15" d="M79.24,74c8.83,1.3,17.74,2.59,26.64,2a13.18,13.18,0,0,1,4.3.15A8.82,8.82,0,0,1,113,77.66c2,1.4,3.86,3.3,6.25,3.23.29-.64-.27-1.34-.83-1.77-2.76-2.14-6.35-2.81-9.78-3.43-2.68-.47-5.48-.76-8.1-1.48-1.76-.48-3.18-1.26-5-1.36a64.38,64.38,0,0,0-8.22.2c-1.37.1-2.74.24-4.1.41C82.16,73.58,80.17,74.31,79.24,74Z"/><path class="cls-15" d="M54.58,113a43.65,43.65,0,0,1-1.82-11.44,22.18,22.18,0,0,1,2.73-11.16,34.58,34.58,0,0,0,.6,19.77,8.56,8.56,0,0,1-5.69.32"/></g><path class="cls-3" d="M85.69,124.27s-5.56,3-1.27,6.3S92.66,123,92.66,123s6.31,7.86,11.21,3.79-4-5.91-4-5.91S88.62,122,85.69,124.27Z"/><path class="cls-15" d="M69.16,124.41s4.56,7.11,19.82-.53Z"/><path class="cls-15" d="M118.3,114.13s-1.77,8.86-18.78,7.47Z"/><path class="cls-1" d="M121.44,102.94c2.55,13.51-11.09,16.87-28.1,20.08s-30.93,5-33.48-8.45S70.25,94,87.26,90.78,118.89,89.44,121.44,102.94Z"/><circle class="cls-1" cx="73.22" cy="94.5" r="12.59"/><circle class="cls-1" cx="101.68" cy="89.12" r="12.59"/><ellipse class="cls-5" cx="64.71" cy="107.71" rx="2.9" ry="1.12" transform="translate(-18.86 13.87) rotate(-10.69)"/><ellipse class="cls-5" cx="114.39" cy="98.33" rx="2.9" ry="1.12" transform="translate(-16.26 22.93) rotate(-10.69)"/><ellipse class="cls-5" cx="62.75" cy="105.56" rx="1.69" ry="0.65" transform="translate(-18.5 13.47) rotate(-10.69)"/><ellipse class="cls-5" cx="114.9" cy="95.08" rx="1.69" ry="0.65" transform="translate(-15.64 22.97) rotate(-10.69)"/><ellipse class="cls-5" cx="89.07" cy="101.22" rx="5.73" ry="1.12" transform="translate(-17.23 18.28) rotate(-10.69)"/><path class="cls-16" d="M66,91.06s-2.67.72-2.93-1.55c0,0-.91,3.8,3,4Z"/><path class="cls-16" d="M66,93.26s-2.59,1-3.08-1.25c0,0-.52,3.89,3.41,3.72Z"/><path class="cls-16" d="M107.47,83.22s2.75-.31,2.16-2.51c0,0,2.24,3.21-1.33,4.86Z"/><path class="cls-16" d="M108.23,85.29s2.77,0,2.4-2.29c0,0,1.9,3.43-1.81,4.71Z"/><circle class="cls-9" cx="73.06" cy="95.6" r="8.81"/><path d="M71.61,88.18a7.52,7.52,0,0,0-3,1.3,2.23,2.23,0,0,1,.9,1.41,2.25,2.25,0,0,1-3.6,2.19A7.55,7.55,0,1,0,80.43,94.2,7.55,7.55,0,0,0,71.61,88.18Z"/><circle class="cls-9" cx="102.23" cy="90.09" r="8.81"/><path d="M100.88,82.65a7.77,7.77,0,0,0-3,1.3,2.26,2.26,0,0,1-.9,4,2.24,2.24,0,0,1-1.8-.45,7.55,7.55,0,1,0,5.71-4.9Z"/><path class="cls-17" d="M94.51,109.06a4.29,4.29,0,0,0-.93-.4c-1.36-.7-2.76.38-3,.6a2.92,2.92,0,0,0-3,.55,3.8,3.8,0,0,0-.72.71,8,8,0,0,0,7.71-1.46Z"/><ellipse class="cls-17" cx="91.54" cy="114.81" rx="2.82" ry="1.45" transform="translate(-19.71 18.98) rotate(-10.69)"/><path class="cls-2" d="M78.59,109.45s12.34,4.34,23.23-4.39c0,0-1,8.55-9.88,10.23S78.59,109.45,78.59,109.45Z"/><g class="cls-18"><ellipse class="cls-11" cx="91.96" cy="117.81" rx="9.89" ry="5.35" transform="translate(-20.26 19.11) rotate(-10.69)"/><ellipse class="cls-9" cx="89.65" cy="105.61" rx="9.89" ry="5.35" transform="matrix(0.98, -0.19, 0.19, 0.98, -18.04, 18.47)"/></g></g></svg>