<svg id="Layer_17" data-name="Layer 17" xmlns="http://www.w3.org/2000/svg" xmlns:xlink="http://www.w3.org/1999/xlink" viewBox="0 0 260 168"><defs><style>.cls-1{fill:#8ecf00;}.cls-2{fill:#457500;}.cls-3{fill:#71b704;}.cls-4{clip-path:url(#clip-path);}.cls-5{fill:#75b506;}.cls-6{fill:#b1e523;}.cls-7{fill:#fff;}.cls-8{fill:#d3eb0b;}.cls-9{clip-path:url(#clip-path-2);}.cls-10{fill:#f73434;}.cls-11{fill:#91c405;}</style><clipPath id="clip-path"><path class="cls-1" d="M78.09,114.09c-2.06,6.54,1.53,9.11,6.56,9.63,6.41.67,9.69,2.54,11.75-4s3.15-17.33-1.67-18.85S80.16,107.56,78.09,114.09Z"/></clipPath><clipPath id="clip-path-2"><path class="cls-2" d="M103.38,91.66a7.23,7.23,0,0,1-6.56,2.78s1.44,3.94,5,2.38C104.36,95.67,103.38,91.66,103.38,91.66Z"/></clipPath></defs><path class="cls-3" d="M91.36,116.7s5.41,5,.46,9.66l-2.06,1.37s-.23,3.74-3.45,4-1.81-4,.34-5.85c0,0,1.34-1.6,1.66-2.06s-3.92-2.21-2-5.56S91,116.29,91.36,116.7Z"/><path class="cls-3" d="M98.8,106.05l4.19-5.67s.91,1.05,1.73.92.55-1.64-1.29-2.12c0,0,1.59-.63.47-1.8s-1.68.53-1.68.53a1.61,1.61,0,0,0-1-1.81c-1.2-.42-1,1.5.12,2.68,0,0-3,3.28-4.64,4.84s-2.4,2.94-1.54,4S98.18,106.93,98.8,106.05Z"/><path class="cls-1" d="M78.09,114.09c-2.06,6.54,1.53,9.11,6.56,9.63,6.41.67,9.69,2.54,11.75-4s3.15-17.33-1.67-18.85S80.16,107.56,78.09,114.09Z"/><g class="cls-4"><ellipse class="cls-5" cx="92.02" cy="100.25" rx="8.83" ry="5.54" transform="translate(-25.44 31.55) rotate(-17.13)"/><ellipse class="cls-6" cx="94.98" cy="122.14" rx="9.68" ry="5.42" transform="translate(-50.06 176) rotate(-72.51)"/></g><path class="cls-1" d="M89.77,105.44c9.86-4.84,18-8.45,15-15.31s-12.19-5.52-22.23-1.07c0,0-9.11,6.21-4.72,16.13C77.79,105.19,80.16,110.15,89.77,105.44Z"/><circle class="cls-1" cx="91.18" cy="85.94" r="7.99" transform="matrix(0.3, -0.95, 0.95, 0.3, -17.95, 147.5)"/><circle class="cls-7" cx="91.66" cy="86.46" r="5.59" transform="translate(-18.11 148.32) rotate(-72.73)"/><path d="M89.75,82.06a4.74,4.74,0,0,1,2-.41,1.43,1.43,0,0,0,1.93,1.79,1.41,1.41,0,0,0,.78-.88,4.73,4.73,0,0,1,1.58,1.94,4.8,4.8,0,1,1-6.33-2.44Z"/><ellipse class="cls-8" cx="88.59" cy="95.01" rx="1.84" ry="0.71" transform="translate(-30.9 44.06) rotate(-23.91)"/><ellipse class="cls-8" cx="87.16" cy="93.49" rx="1.07" ry="0.41" transform="translate(-30.41 43.35) rotate(-23.91)"/><path class="cls-2" d="M103.38,91.66a7.23,7.23,0,0,1-6.56,2.78s1.44,3.94,5,2.38C104.36,95.67,103.38,91.66,103.38,91.66Z"/><g class="cls-9"><ellipse class="cls-10" cx="100.34" cy="99.31" rx="6.28" ry="3.4" transform="translate(-31.64 49.19) rotate(-23.91)"/><ellipse class="cls-7" cx="96.74" cy="90.93" rx="3.4" ry="6.28" transform="matrix(0.34, -0.94, 0.94, 0.34, -21.97, 150.38)"/></g><path class="cls-11" d="M93.34,107.27,96.56,101s1.06.89,1.85.62.28-1.7-1.61-1.88c0,0,1.46-.87.16-1.85s-1.57.8-1.57.8,0-1.42-1.24-1.63-.7,1.64.56,2.63c0,0-2.4,3.72-3.8,5.53s-1.88,3.29-.86,4.22S92.88,108.24,93.34,107.27Z"/><path class="cls-1" d="M84.7,118s4.26,6-1.55,9.55l-2.3.91s-1,3.6-4.22,3.22-.94-4.29,1.55-5.65c0,0,1.64-1.29,2.06-1.67s-3.38-3-.82-5.86S84.4,117.52,84.7,118Z"/><ellipse class="cls-8" cx="83.5" cy="119.02" rx="0.72" ry="1.3" transform="translate(-43.73 48.66) rotate(-26.01)"/></svg>