<svg id="Layer_2" data-name="Layer 2" xmlns="http://www.w3.org/2000/svg" xmlns:xlink="http://www.w3.org/1999/xlink" viewBox="0 0 260 168"><defs><style>.cls-1{fill:#8ecf00;}.cls-2{fill:#fff;}.cls-3{fill:#457500;}.cls-4{fill:#79ce00;}.cls-5{clip-path:url(#clip-path);}.cls-6{fill:#75b506;}.cls-7{fill:#b1e523;}.cls-8{clip-path:url(#clip-path-2);}.cls-9{fill:#d3eb0b;}.cls-10{clip-path:url(#clip-path-3);}.cls-11{fill:#f73434;}.cls-12{fill:none;stroke:#88ba00;stroke-linecap:round;stroke-linejoin:round;stroke-width:0.36px;}</style><clipPath id="clip-path"><path class="cls-1" d="M100.3,68.76c1.29,6.27-2.29,8.31-7,8.31-6,0-9.25,1.43-10.53-4.84s-1.25-16.39,3.37-17.34S99,62.49,100.3,68.76Z"/></clipPath><clipPath id="clip-path-2"><circle class="cls-2" cx="76.8" cy="48.65" r="5.22" transform="translate(-13.77 40.78) rotate(-27.39)"/></clipPath><clipPath id="clip-path-3"><path class="cls-3" d="M74.15,60.32A6.75,6.75,0,0,0,79.89,57s2.15,3.27-1,5C76.62,63.29,74.15,60.32,74.15,60.32Z"/></clipPath></defs><path class="cls-4" d="M86.3,69.76,84.16,76s1.28.14,1.62.84-1,1.29-2.31.13c0,0,.35,1.55-1.14,1.31s-.48-1.56-.48-1.56a1.52,1.52,0,0,1-1.9.22c-1-.71.65-1.54,2.13-1.33,0,0,.94-4,1.26-6.14s1-3.4,2.27-3.31S86.65,68.83,86.3,69.76Z"/><path class="cls-1" d="M100.3,68.76c1.29,6.27-2.29,8.31-7,8.31-6,0-9.25,1.43-10.53-4.84s-1.25-16.39,3.37-17.34S99,62.49,100.3,68.76Z"/><g class="cls-5"><ellipse class="cls-6" cx="87.76" cy="55.55" rx="8.24" ry="5.17" transform="translate(-1.62 2.64) rotate(-1.71)"/><ellipse class="cls-7" cx="83.86" cy="74.61" rx="5.06" ry="9.03" transform="translate(-13.27 18.35) rotate(-11.58)"/></g><path class="cls-1" d="M92.06,57.81c-9.12,4.69-16.37,8.78-19.81,2.67s2.66-12.2,11.6-17.23c0,0,9.73-3.36,14.7,5.46C98.55,48.71,100.94,53.25,92.06,57.81Z"/><circle class="cls-1" cx="76.68" cy="48" r="7.46" transform="translate(-13.49 40.66) rotate(-27.39)"/><circle class="cls-2" cx="76.8" cy="48.65" r="5.22" transform="translate(-13.77 40.78) rotate(-27.39)"/><g class="cls-8"><path d="M74,47.74A4.4,4.4,0,0,0,72.59,49a1.31,1.31,0,0,1,.77.62,1.33,1.33,0,0,1-.51,1.82,1.27,1.27,0,0,1-1.09.09,4.53,4.53,0,0,0,.57,2.27,4.48,4.48,0,1,0,1.7-6.1Z"/></g><ellipse class="cls-9" cx="84.9" cy="51.12" rx="1.72" ry="0.66" transform="translate(-14.16 48.27) rotate(-29.4)"/><ellipse class="cls-9" cx="84.57" cy="49.2" rx="1" ry="0.39" transform="translate(-13.26 47.86) rotate(-29.4)"/><path class="cls-3" d="M74.15,60.32A6.75,6.75,0,0,0,79.89,57s2.15,3.27-1,5C76.62,63.29,74.15,60.32,74.15,60.32Z"/><g class="cls-10"><ellipse class="cls-11" cx="81.58" cy="62.31" rx="5.86" ry="3.17" transform="translate(-20.08 48.07) rotate(-29.4)"/><ellipse class="cls-2" cx="77.31" cy="54.94" rx="5.86" ry="3.17" transform="translate(2.66 113.44) rotate(-73.48)"/></g><path class="cls-1" d="M100.23,76.86c-.68,2.83-8,3.24-8.37,1.33S95.09,77,95.09,77a4,4,0,0,1-3.4-4.07,3.18,3.18,0,0,1,3.57-3.23s5.06-.78,4.91,3.45c0,0-.08,2.14-2.77,1.54C97.4,74.64,100.65,75.13,100.23,76.86Z"/><ellipse class="cls-1" cx="94.82" cy="70.05" rx="0.36" ry="0.13"/><path class="cls-1" d="M89.38,71l-2.14,6.22s1.29.15,1.62.85-1,1.29-2.31.13c0,0,.36,1.55-1.13,1.31S84.93,78,84.93,78a1.5,1.5,0,0,1-1.89.22c-1-.7.65-1.53,2.13-1.33,0,0,.94-4,1.25-6.13s1-3.4,2.28-3.31S89.73,70.09,89.38,71Z"/><path class="cls-12" d="M97.09,69.46s-5.64-.9-5.64,2.74,3,4,3,4"/><path class="cls-12" d="M93,76.74a3.68,3.68,0,0,1,2.8-.53"/><ellipse class="cls-9" cx="95.1" cy="70.27" rx="1.07" ry="0.26"/></svg>