<svg xmlns="http://www.w3.org/2000/svg" xmlns:xlink="http://www.w3.org/1999/xlink" viewBox="0 0 260 168"><defs><style>.cls-1{fill:#8ecf00;}.cls-2{fill:#457500;}.cls-3{fill:#79ce00;}.cls-4{clip-path:url(#clip-path);}.cls-5{fill:#75b506;}.cls-6{fill:#b1e523;}.cls-7{fill:#fff;}.cls-8{fill:#d3eb0b;}.cls-9{clip-path:url(#clip-path-2);}.cls-10{fill:#f73434;}.cls-11{fill:none;stroke:#88ba00;stroke-linecap:round;stroke-linejoin:round;stroke-width:0.24px;}</style><clipPath id="clip-path"><path class="cls-1" d="M122.66,105.49c-.84,4.12,1.51,5.47,4.61,5.47,4,0,6.09.94,6.93-3.19S135,97,132,96.37,123.51,101.37,122.66,105.49Z"/></clipPath><clipPath id="clip-path-2"><path class="cls-2" d="M139.93,95a4.43,4.43,0,0,1-4.36-.24s-.27,2.56,2.08,2.65C139.39,97.48,139.93,95,139.93,95Z"/></clipPath></defs><g id="Layer_14" data-name="Layer 14"><path class="cls-3" d="M131.87,106.15l1.41,4.1s-.84.09-1.06.55.63.85,1.52.09c0,0-.24,1,.74.86s.32-1,.32-1a1,1,0,0,0,1.25.14c.63-.46-.43-1-1.4-.87,0,0-.62-2.65-.83-4s-.65-2.23-1.5-2.17S131.64,105.54,131.87,106.15Z"/><path class="cls-1" d="M122.66,105.49c-.84,4.12,1.51,5.47,4.61,5.47,4,0,6.09.94,6.93-3.19S135,97,132,96.37,123.51,101.37,122.66,105.49Z"/><g class="cls-4"><ellipse class="cls-5" cx="130.91" cy="96.8" rx="3.4" ry="5.42" transform="translate(30.25 224.77) rotate(-88.29)"/><ellipse class="cls-6" cx="133.48" cy="109.34" rx="5.94" ry="3.33" transform="translate(-0.43 218.15) rotate(-78.42)"/></g><path class="cls-1" d="M128.71,98.91c6.74,0,12.21.22,12.39-4.38s-5.23-6.35-12-6.61c0,0-6.7,1-7,7.62C122.17,95.54,122.14,98.91,128.71,98.91Z"/><circle class="cls-1" cx="134.76" cy="88.55" r="4.91" transform="translate(41.02 219.75) rotate(-87.77)"/><circle class="cls-7" cx="134.88" cy="88.96" r="3.43" transform="translate(40.73 220.28) rotate(-87.77)"/><path d="M135,86a3,3,0,0,1,1.23.33.9.9,0,0,0-.26.6.88.88,0,0,0,.84.91.86.86,0,0,0,.67-.28A2.94,2.94,0,1,1,135,86Z"/><ellipse class="cls-8" cx="130.88" cy="92.85" rx="0.44" ry="1.13" transform="translate(33.02 220.02) rotate(-87.77)"/><ellipse class="cls-8" cx="130.5" cy="91.62" rx="0.25" ry="0.66" transform="translate(33.87 218.46) rotate(-87.77)"/><path class="cls-2" d="M139.93,95a4.43,4.43,0,0,1-4.36-.24s-.27,2.56,2.08,2.65C139.39,97.48,139.93,95,139.93,95Z"/><g class="cls-9"><ellipse class="cls-10" cx="136.19" cy="98.39" rx="2.09" ry="3.85" transform="translate(32.58 230.66) rotate(-87.77)"/><ellipse class="cls-7" cx="136.47" cy="92.8" rx="2.09" ry="3.85" transform="translate(-26.31 119.98) rotate(-43.69)"/></g><path class="cls-1" d="M122.71,110.82c.45,1.86,5.23,2.13,5.51.87s-2.13-.81-2.13-.81a2.62,2.62,0,0,0,2.24-2.67,2.09,2.09,0,0,0-2.35-2.13s-3.33-.52-3.23,2.27c0,0,0,1.4,1.82,1C124.57,109.36,122.44,109.68,122.71,110.82Z"/><ellipse class="cls-1" cx="126.27" cy="106.34" rx="0.24" ry="0.09"/><path class="cls-1" d="M129.84,107l1.41,4.1s-.84.09-1.06.55.63.85,1.52.09c0,0-.24,1,.74.86s.32-1,.32-1a1,1,0,0,0,1.25.15c.63-.47-.43-1-1.4-.88,0,0-.62-2.64-.83-4s-.65-2.24-1.5-2.18S129.61,106.37,129.84,107Z"/><path class="cls-11" d="M124.77,106s3.72-.59,3.72,1.81a2.36,2.36,0,0,1-2,2.6"/><path class="cls-11" d="M127.48,110.74a2.4,2.4,0,0,0-1.84-.35"/><ellipse class="cls-8" cx="126.08" cy="106.49" rx="0.7" ry="0.17"/></g></svg>