<svg id="Layer_5" data-name="Layer 5" xmlns="http://www.w3.org/2000/svg" xmlns:xlink="http://www.w3.org/1999/xlink" viewBox="0 0 260 168"><defs><style>.cls-1{fill:#8ecf00;}.cls-2{fill:#457500;}.cls-3{fill:#7ece00;}.cls-4{fill:#d3eb0b;}.cls-5{clip-path:url(#clip-path);}.cls-6{fill:#75b506;}.cls-7{fill:#b1e523;}.cls-8{fill:#fff;}.cls-9{clip-path:url(#clip-path-2);}.cls-10{fill:#f73434;}</style><clipPath id="clip-path"><path class="cls-1" d="M137.62,132.38c0,11.58-9.39,12.19-21,12.19s-21-.61-21-12.19,9.39-29.75,21-29.75S137.62,120.8,137.62,132.38Z"/></clipPath><clipPath id="clip-path-2"><path class="cls-2" d="M109.79,108s1.68-5.45,6.35-6.13,7.68,4,7.68,4a13.8,13.8,0,0,0-7.36-1.33A13.5,13.5,0,0,0,109.79,108Z"/></clipPath></defs><path class="cls-3" d="M137.28,126.41s6.3-.6,6.45,5.86-6.15,7.35-6.15,7.35,6.6-1.2,5.85,2.25-15.61,2.85-15.16-2.4S128.72,126.41,137.28,126.41Z"/><ellipse class="cls-4" cx="138.07" cy="127.14" rx="0.65" ry="0.23"/><path class="cls-3" d="M95,126.41s-6.3-.6-6.45,5.86,6.15,7.35,6.15,7.35-6.6-1.2-5.85,2.25,15.61,2.85,15.16-2.4S103.51,126.41,95,126.41Z"/><ellipse class="cls-4" cx="92.4" cy="127.76" rx="1.39" ry="0.6"/><ellipse class="cls-4" cx="94.54" cy="127.2" rx="0.85" ry="0.37"/><path class="cls-1" d="M137.62,132.38c0,11.58-9.39,12.19-21,12.19s-21-.61-21-12.19,9.39-29.75,21-29.75S137.62,120.8,137.62,132.38Z"/><g class="cls-5"><ellipse class="cls-6" cx="116.35" cy="105.65" rx="20.03" ry="9.46"/><ellipse class="cls-7" cx="116.65" cy="136.77" rx="12.43" ry="16.36"/></g><path class="cls-1" d="M98.25,132.37,100.69,144s-2.34,0-3.1,1.15,1.45,2.54,4.12.76c0,0-1,2.7,1.74,2.6s1.22-2.7,1.22-2.7,1.49,1.88,3.37.82-.83-2.9-3.53-2.86c0,0-.79-7.44-.88-11.31s-1-6.33-3.34-6.46S97.83,130.61,98.25,132.37Z"/><path class="cls-1" d="M135.16,132.37,132.72,144s2.34,0,3.1,1.15-1.45,2.54-4.12.76c0,0,1,2.7-1.75,2.6s-1.22-2.7-1.22-2.7-1.48,1.88-3.36.82.82-2.9,3.53-2.86c0,0,.79-7.44.88-11.31s1-6.33,3.34-6.46S135.58,130.61,135.16,132.37Z"/><path class="cls-1" d="M148.2,93.25c1.8,12.55-13,15.4-31.36,18s-33.37,4.08-35.18-8.47S94.15,84,112.52,81.33,146.39,80.7,148.2,93.25Z"/><circle class="cls-1" cx="97.31" cy="84.66" r="13.5"/><circle class="cls-1" cx="128.05" cy="80.23" r="13.5"/><circle class="cls-8" cx="128.6" cy="81.29" r="9.45"/><circle class="cls-8" cx="97.08" cy="85.83" r="9.45"/><path d="M97.08,75.24a8,8,0,0,0-3.28,1.25,2.42,2.42,0,1,1-3.07,3.73,8.1,8.1,0,1,0,6.35-5Z"/><path d="M128.72,70.68a8,8,0,0,0-3.29,1.26,2.41,2.41,0,1,1-3.06,3.73,8.09,8.09,0,1,0,6.35-5Z"/><ellipse class="cls-4" cx="87.56" cy="98.42" rx="3.11" ry="1.2" transform="translate(-13.13 13.48) rotate(-8.19)"/><ellipse class="cls-4" cx="141.25" cy="90.69" rx="3.11" ry="1.2" transform="translate(-11.48 21.06) rotate(-8.19)"/><ellipse class="cls-4" cx="85.56" cy="96.03" rx="1.81" ry="0.7" transform="translate(-12.81 13.17) rotate(-8.19)"/><ellipse class="cls-4" cx="141.94" cy="87.23" rx="1.81" ry="0.7" transform="translate(-10.98 21.12) rotate(-8.19)"/><ellipse class="cls-4" cx="113.98" cy="92.61" rx="6.15" ry="1.2" transform="matrix(0.99, -0.14, 0.14, 0.99, -12.03, 17.19)"/><path class="cls-2" d="M109.79,108s1.68-5.45,6.35-6.13,7.68,4,7.68,4a13.8,13.8,0,0,0-7.36-1.33A13.5,13.5,0,0,0,109.79,108Z"/><g class="cls-9"><ellipse class="cls-10" cx="117.4" cy="109.32" rx="5.63" ry="5.74" transform="translate(-14.38 17.85) rotate(-8.19)"/><path class="cls-1" d="M86.65,86s13.09-2.1,18-9.11l-9.2-3.09s-5.9,3.75-6.83,4.31-2.24,4-2.24,4Z"/></g><path class="cls-1" d="M84.84,84.09S99.1,83.6,103.45,77l-6.07-5-7.53,3.17s-2.3,1.77-2.77,2.07S84.84,84.09,84.84,84.09Z"/><path class="cls-1" d="M139.24,76.26s-13.83,3.55-19.87-1.59l4.42-6.49,8.11.92s2.71,1,3.25,1.19S139.24,76.26,139.24,76.26Z"/></svg>