<svg id="Layer_5" data-name="Layer 5" xmlns="http://www.w3.org/2000/svg" xmlns:xlink="http://www.w3.org/1999/xlink" viewBox="0 0 260 168"><defs><style>.cls-1{fill:#8ecf00;}.cls-2{fill:#457500;}.cls-3{fill:#79ce00;}.cls-4{clip-path:url(#clip-path);}.cls-5{fill:#75b506;}.cls-6{fill:#b1e523;}.cls-7{fill:#fff;}.cls-8{fill:#d3eb0b;}.cls-9{clip-path:url(#clip-path-2);}.cls-10{fill:#f73434;}.cls-11{fill:none;stroke:#88ba00;stroke-linecap:round;stroke-linejoin:round;stroke-width:0.52px;}</style><clipPath id="clip-path"><path class="cls-1" d="M117.1,92.21c-1.86,9.09,3.33,12.06,10.17,12.06,8.73,0,13.41,2.06,15.27-7s1.82-23.77-4.88-25.14S119,83.12,117.1,92.21Z"/></clipPath><clipPath id="clip-path-2"><path class="cls-2" d="M155.19,69.07a9.79,9.79,0,0,1-9.63-.52s-.6,5.64,4.6,5.84C154,74.54,155.19,69.07,155.19,69.07Z"/></clipPath></defs><path class="cls-3" d="M137.41,93.66l3.11,9s-1.87.21-2.35,1.23,1.4,1.87,3.35.19c0,0-.52,2.25,1.65,1.9s.7-2.27.7-2.27a2.19,2.19,0,0,0,2.75.32c1.39-1-.94-2.23-3.09-1.93,0,0-1.37-5.83-1.83-8.9s-1.43-4.93-3.29-4.8S136.91,92.31,137.41,93.66Z"/><path class="cls-1" d="M117.1,92.21c-1.86,9.09,3.33,12.06,10.17,12.06,8.73,0,13.41,2.06,15.27-7s1.82-23.77-4.88-25.14S119,83.12,117.1,92.21Z"/><g class="cls-4"><ellipse class="cls-5" cx="135.29" cy="73.05" rx="7.5" ry="11.95" transform="translate(58.25 206.11) rotate(-88.29)"/><ellipse class="cls-6" cx="140.96" cy="100.69" rx="13.1" ry="7.34" transform="translate(14.02 218.57) rotate(-78.42)"/></g><path class="cls-1" d="M130.43,77.71c14.87,0,26.93.47,27.32-9.68s-11.52-14-26.38-14.56c0,0-14.78,2.12-15.35,16.8C116,70.27,115.94,77.71,130.43,77.71Z"/><circle class="cls-1" cx="143.77" cy="54.86" r="10.82" transform="translate(83.35 196.38) rotate(-87.77)"/><circle class="cls-7" cx="144.05" cy="55.77" r="7.57" transform="translate(82.7 197.53) rotate(-87.77)"/><path d="M144.35,49.28a6.4,6.4,0,0,1,2.72.73,2,2,0,0,0-.59,1.31,1.94,1.94,0,0,0,3.34,1.41,6.42,6.42,0,0,1,.76,3.29,6.49,6.49,0,1,1-6.23-6.74Z"/><ellipse class="cls-8" cx="135.22" cy="64.33" rx="0.96" ry="2.49" transform="translate(65.69 196.95) rotate(-87.77)"/><ellipse class="cls-8" cx="134.38" cy="61.63" rx="0.56" ry="1.45" transform="translate(67.58 193.52) rotate(-87.77)"/><path class="cls-2" d="M155.19,69.07a9.79,9.79,0,0,1-9.63-.52s-.6,5.64,4.6,5.84C154,74.54,155.19,69.07,155.19,69.07Z"/><g class="cls-9"><ellipse class="cls-10" cx="146.93" cy="76.56" rx="4.6" ry="8.5" transform="translate(64.71 220.4) rotate(-87.77)"/><ellipse class="cls-7" cx="147.55" cy="64.23" rx="4.6" ry="8.5" transform="translate(-3.51 119.72) rotate(-43.69)"/></g><path class="cls-1" d="M117.21,104c1,4.11,11.54,4.69,12.14,1.93s-4.69-1.8-4.69-1.8,5.05-.73,4.93-5.9-5.17-4.68-5.17-4.68-7.35-1.14-7.12,5c0,0,.11,3.09,4,2.23C121.32,100.74,116.6,101.45,117.21,104Z"/><ellipse class="cls-1" cx="125.05" cy="94.09" rx="0.52" ry="0.19"/><path class="cls-1" d="M132.94,95.5l3.1,9s-1.86.21-2.35,1.23,1.41,1.87,3.35.19c0,0-.51,2.24,1.65,1.89s.7-2.27.7-2.27a2.2,2.2,0,0,0,2.76.32c1.38-1-1-2.22-3.09-1.92,0,0-1.37-5.84-1.83-8.9s-1.44-4.93-3.3-4.81S132.43,94.14,132.94,95.5Z"/><path class="cls-11" d="M121.76,93.23s8.18-1.3,8.18,4-4.28,5.73-4.28,5.73"/><path class="cls-11" d="M127.72,103.78a5.31,5.31,0,0,0-4-.76"/><ellipse class="cls-8" cx="124.64" cy="94.4" rx="1.55" ry="0.37"/></svg>