<svg xmlns="http://www.w3.org/2000/svg" xmlns:xlink="http://www.w3.org/1999/xlink" viewBox="0 0 260 168"><defs><style>.cls-1{fill:#8ecf00;}.cls-2{fill:#fff;}.cls-3{fill:#457500;}.cls-4{fill:#ff790b;}.cls-5{fill:#7ece00;}.cls-6{fill:#d3eb0b;}.cls-7{clip-path:url(#clip-path);}.cls-8{fill:#75b506;}.cls-9{fill:#b1e523;}.cls-10{clip-path:url(#clip-path-2);}.cls-11{clip-path:url(#clip-path-3);}.cls-12{clip-path:url(#clip-path-4);}.cls-13{fill:#f73434;}.cls-14{clip-path:url(#clip-path-5);}.cls-15{clip-path:url(#clip-path-6);}.cls-16{fill:#e56200;}.cls-17{fill:#ff9c0d;}.cls-18{fill:#113a00;}.cls-19{fill:#a50707;}.cls-20{clip-path:url(#clip-path-7);}</style><clipPath id="clip-path"><path class="cls-1" d="M165.62,145.32c0,8-6.45,8.37-14.39,8.37s-14.39-.42-14.39-8.37,6.44-20.42,14.39-20.42S165.62,137.37,165.62,145.32Z"/></clipPath><clipPath id="clip-path-2"><circle class="cls-2" cx="167.71" cy="116.09" r="6.49"/></clipPath><clipPath id="clip-path-3"><circle class="cls-2" cx="146.99" cy="109.13" r="6.49"/></clipPath><clipPath id="clip-path-4"><path class="cls-3" d="M145.56,120a18.93,18.93,0,0,0,16.5,5.54,9,9,0,0,1-10,3C145.75,126.47,145.56,120,145.56,120Z"/></clipPath><clipPath id="clip-path-5"><path class="cls-1" d="M112.81,142c0,10.79-8.75,11.36-19.54,11.36S73.73,152.76,73.73,142s8.75-27.73,19.54-27.73S112.81,131.17,112.81,142Z"/></clipPath><clipPath id="clip-path-6"><path class="cls-4" d="M98.45,71.38S68.6,67.26,63.67,85.21s5.43,26.28,5.43,26.28l53.67,10s5.58-1.14,10.86-22C139,78.21,98.45,71.38,98.45,71.38Z"/></clipPath><clipPath id="clip-path-7"><path class="cls-3" d="M84.35,105.1s9.93,8.52,23.24,4.32c0,0-4,7.6-12.91,6S84.35,105.1,84.35,105.1Z"/></clipPath></defs><g id="Layer_5" data-name="Layer 5"><path class="cls-5" d="M165.38,141.23s4.33-.41,4.43,4a4.93,4.93,0,0,1-4.22,5s4.53-.82,4,1.55-10.72,1.95-10.41-1.65S159.51,141.23,165.38,141.23Z"/><ellipse class="cls-6" cx="165.93" cy="141.72" rx="0.44" ry="0.16"/><path class="cls-5" d="M136.33,141.23s-4.33-.41-4.43,4a4.94,4.94,0,0,0,4.22,5s-4.53-.82-4,1.55,10.71,1.95,10.4-1.65S142.2,141.23,136.33,141.23Z"/><ellipse class="cls-6" cx="134.58" cy="142.15" rx="0.95" ry="0.41"/><ellipse class="cls-6" cx="136.05" cy="141.77" rx="0.59" ry="0.25"/><path class="cls-1" d="M165.62,145.32c0,8-6.45,8.37-14.39,8.37s-14.39-.42-14.39-8.37,6.44-20.42,14.39-20.42S165.62,137.37,165.62,145.32Z"/><g class="cls-7"><ellipse class="cls-8" cx="151.02" cy="126.97" rx="13.75" ry="6.49"/><ellipse class="cls-9" cx="151.23" cy="148.33" rx="8.53" ry="11.23"/></g><path class="cls-1" d="M176,129.48c-2.77,8.25-12.72,5.43-24.8,1.37s-21.72-7.81-18.95-16.06,13.48-7.7,25.56-3.64S178.8,121.23,176,129.48Z"/><circle class="cls-1" cx="147.49" cy="108.49" r="9.27"/><circle class="cls-1" cx="167.7" cy="115.27" r="9.27"/><circle class="cls-2" cx="167.71" cy="116.09" r="6.49"/><g class="cls-10"><path d="M167.48,111.05a5.55,5.55,0,0,0-2.41-.25,1.56,1.56,0,0,1,.07,1.22,1.66,1.66,0,0,1-3.1.12,5.64,5.64,0,0,0-1.61,2.41,5.56,5.56,0,1,0,7-3.5Z"/></g><circle class="cls-2" cx="146.99" cy="109.13" r="6.49"/><g class="cls-11"><path d="M146.57,103.91a5.52,5.52,0,0,0-2.4-.25,1.65,1.65,0,0,1,.07,1.22,1.66,1.66,0,0,1-3.11.12,5.56,5.56,0,1,0,5.44-1.09Z"/></g><ellipse class="cls-6" cx="137.26" cy="113.91" rx="0.82" ry="2.14" transform="translate(-14.41 207.77) rotate(-71.44)"/><ellipse class="cls-6" cx="172.56" cy="125.76" rx="0.82" ry="2.14" transform="translate(-1.59 249.32) rotate(-71.44)"/><ellipse class="cls-6" cx="136.77" cy="111.83" rx="0.48" ry="1.24" transform="translate(-12.77 205.89) rotate(-71.44)"/><ellipse class="cls-6" cx="174.05" cy="123.85" rx="0.48" ry="1.24" transform="translate(1.24 249.43) rotate(-71.44)"/><path class="cls-3" d="M145.56,120a18.93,18.93,0,0,0,16.5,5.54,9,9,0,0,1-10,3C145.75,126.47,145.56,120,145.56,120Z"/><g class="cls-12"><ellipse class="cls-13" cx="151.14" cy="130.21" rx="3.94" ry="7.28" transform="translate(-20.41 232.04) rotate(-71.44)"/><ellipse class="cls-2" cx="154.05" cy="121.54" rx="3.94" ry="7.28" transform="translate(-10.2 228.89) rotate(-71.44)"/></g><ellipse class="cls-6" cx="155.25" cy="118.51" rx="0.82" ry="4.22" transform="translate(-6.51 227.96) rotate(-71.44)"/><path class="cls-1" d="M138.59,145.32l1.67,8s-1.6,0-2.12.79,1,1.74,2.83.52c0,0-.68,1.85,1.19,1.79s.84-1.86.84-1.86a1.89,1.89,0,0,0,2.31.57c1.29-.73-.57-2-2.42-2,0,0-.54-5.11-.6-7.76s-.7-4.35-2.3-4.44S138.3,144.11,138.59,145.32Z"/><path class="cls-1" d="M163.93,145.32l-1.67,8s1.6,0,2.12.79-1,1.74-2.83.52c0,0,.68,1.85-1.19,1.79s-.84-1.86-.84-1.86a1.89,1.89,0,0,1-2.31.57c-1.29-.73.57-2,2.42-2,0,0,.54-5.11.6-7.76s.7-4.35,2.3-4.44S164.22,144.11,163.93,145.32Z"/><path class="cls-5" d="M112.49,136.41s5.88-.56,6,5.45-5.74,6.86-5.74,6.86,6.16-1.12,5.46,2.1-14.55,2.65-14.13-2.24S104.52,136.41,112.49,136.41Z"/><ellipse class="cls-6" cx="113.23" cy="137.08" rx="0.6" ry="0.22"/><path class="cls-5" d="M73,136.41s-5.88-.56-6,5.45,5.74,6.86,5.74,6.86-6.16-1.12-5.46,2.1,14.55,2.65,14.13-2.24S81,136.41,73,136.41Z"/><ellipse class="cls-6" cx="70.66" cy="137.67" rx="1.29" ry="0.56"/><ellipse class="cls-6" cx="72.65" cy="137.14" rx="0.8" ry="0.34"/><path class="cls-1" d="M112.81,142c0,10.79-8.75,11.36-19.54,11.36S73.73,152.76,73.73,142s8.75-27.73,19.54-27.73S112.81,131.17,112.81,142Z"/><g class="cls-14"><ellipse class="cls-8" cx="92.99" cy="117.05" rx="18.67" ry="8.82"/><ellipse class="cls-9" cx="93.27" cy="146.06" rx="11.59" ry="15.25"/></g><path class="cls-1" d="M76.11,142l2.27,10.88s-2.18,0-2.89,1.07,1.36,2.37,3.84.71c0,0-.92,2.52,1.63,2.43s1.14-2.52,1.14-2.52,1.38,1.75,3.13.77-.76-2.71-3.28-2.68c0,0-.74-6.93-.82-10.54s-.95-5.89-3.12-6S75.72,140.32,76.11,142Z"/><path class="cls-1" d="M110.52,142l-2.28,10.88s2.19,0,2.89,1.07-1.35,2.37-3.84.71c0,0,.92,2.52-1.63,2.43s-1.13-2.52-1.13-2.52-1.39,1.75-3.14.77.77-2.71,3.29-2.68c0,0,.74-6.93.82-10.54s.94-5.89,3.11-6S110.91,140.32,110.52,142Z"/><path class="cls-4" d="M98.45,71.38S68.6,67.26,63.67,85.21s5.43,26.28,5.43,26.28l53.67,10s5.58-1.14,10.86-22C139,78.21,98.45,71.38,98.45,71.38Z"/><g class="cls-15"><path class="cls-16" d="M66.42,88c1.24-2.87,2.91-5.71,5.55-7.38a16.61,16.61,0,0,1,4-1.7,54,54,0,0,1,46.29,7.35c4.24,3,8.31,7.18,8.45,12.36s-3.72,9.62-7.79,12.86a35.14,35.14,0,0,1-6.5,4.22,33.47,33.47,0,0,1-16.32,2.77,99.39,99.39,0,0,1-16.48-2.79l-9.87-2.25a32.71,32.71,0,0,0-4.9-.89,10.55,10.55,0,0,1-3.22-.35c-2-.81-2.29-2.87-2.44-4.83A41.18,41.18,0,0,1,66.42,88Z"/><path class="cls-17" d="M97.77,72.33c7.76,4.4,15.59,8.84,24.1,11.54a13.21,13.21,0,0,1,3.95,1.69,9.09,9.09,0,0,1,2.09,2.36c1.3,2,2.39,4.47,4.65,5.26.51-.49.23-1.34-.13-1.94-1.8-3-4.9-4.92-7.88-6.74-2.32-1.41-4.83-2.7-7-4.31-1.47-1.09-2.51-2.32-4.21-3.09a62.65,62.65,0,0,0-7.74-2.79q-2-.6-4-1.11C100.65,73,98.54,72.92,97.77,72.33Z"/><path class="cls-17" d="M60.7,99.68a43.83,43.83,0,0,1,2.44-11.33,22.18,22.18,0,0,1,6.59-9.41,34.58,34.58,0,0,0-6.6,18.64,8.48,8.48,0,0,1-5.42-1.76"/></g><path class="cls-4" d="M85.6,121.49s-6.29.83-3.46,5.41,10.4-4,10.4-4,3,9.6,9.09,7.59-1.62-7-1.62-7S89.17,120.39,85.6,121.49Z"/><path class="cls-17" d="M70.14,115.63s1.68,8.28,18.67,6.69Z"/><path class="cls-17" d="M119.67,123.84s-4.85,7.62-20.21.16Z"/><path class="cls-1" d="M126.64,114.55c-2.51,13.51-16.44,11.71-33.45,8.54s-30.67-6.48-28.16-20S82.17,87.67,99.18,90.84,129.16,101,126.64,114.55Z"/><circle class="cls-1" cx="84.76" cy="89.22" r="12.59"/><circle class="cls-1" cx="113.22" cy="94.51" r="12.59"/><ellipse class="cls-6" cx="72.03" cy="98.45" rx="1.12" ry="2.9" transform="translate(-37.92 151.28) rotate(-79.47)"/><ellipse class="cls-6" cx="121.75" cy="107.69" rx="1.12" ry="2.9" transform="translate(-6.38 207.71) rotate(-79.47)"/><ellipse class="cls-6" cx="70.98" cy="95.75" rx="0.65" ry="1.69" transform="translate(-36.12 148.04) rotate(-79.47)"/><ellipse class="cls-6" cx="123.39" cy="104.85" rx="0.65" ry="1.69" transform="translate(-2.24 207) rotate(-79.47)"/><ellipse class="cls-6" cx="97.09" cy="101.23" rx="1.12" ry="5.73" transform="translate(-20.17 178.19) rotate(-79.47)"/><path class="cls-18" d="M79.22,83.39s-2.75-.3-2.17-2.51c0,0-2.22,3.22,1.35,4.86Z"/><path class="cls-18" d="M78.47,85.46s-2.77,0-2.42-2.28c0,0-1.89,3.43,1.83,4.7Z"/><path class="cls-18" d="M120.76,91.11s2.67.71,2.92-1.57c0,0,.93,3.81-3,4.06Z"/><path class="cls-18" d="M120.72,93.31s2.59,1,3.07-1.26c0,0,.53,3.88-3.4,3.73Z"/><circle class="cls-2" cx="84.2" cy="90.19" r="8.81"/><path d="M85.53,82.75a7.48,7.48,0,0,0-3.27.12A2.26,2.26,0,0,1,80,86.31a2.21,2.21,0,0,1-1.51-1.06,7.42,7.42,0,0,0-1.71,3.55,7.55,7.55,0,1,0,8.8-6Z"/><circle class="cls-2" cx="113.39" cy="95.61" r="8.81"/><path d="M114.83,88.2a7.52,7.52,0,0,0-3.28.12,2.24,2.24,0,0,1,.33,1.63,2.26,2.26,0,0,1-2.64,1.81,2.22,2.22,0,0,1-1.51-1.07A7.47,7.47,0,0,0,106,94.24a7.55,7.55,0,1,0,8.81-6Z"/><path class="cls-19" d="M99.33,110.5a4.52,4.52,0,0,0-.73-.71c-1-1.14-2.7-.64-3-.53a3,3,0,0,0-3-.59,4,4,0,0,0-.93.4,8,8,0,0,0,7.72,1.43Z"/><ellipse class="cls-19" cx="94.48" cy="114.79" rx="1.45" ry="2.82" transform="translate(-35.64 186.7) rotate(-79.47)"/><path class="cls-3" d="M84.35,105.1s9.93,8.52,23.24,4.32c0,0-4,7.6-12.91,6S84.35,105.1,84.35,105.1Z"/><g class="cls-20"><ellipse class="cls-13" cx="93.78" cy="117.74" rx="5.35" ry="9.89" transform="matrix(0.18, -0.98, 0.98, 0.18, -39.11, 188.42)"/><ellipse class="cls-2" cx="96.05" cy="105.53" rx="5.35" ry="9.89" transform="translate(-25.25 180.68) rotate(-79.47)"/></g></g></svg>