<svg id="_16" data-name="16" xmlns="http://www.w3.org/2000/svg" xmlns:xlink="http://www.w3.org/1999/xlink" viewBox="0 0 260 168"><defs><style>.cls-1{fill:#8ecf00;}.cls-2{fill:#fff;}.cls-3{fill:#457500;}.cls-4{fill:#79ce00;}.cls-5{clip-path:url(#clip-path);}.cls-6{fill:#75b506;}.cls-7{fill:#b1e523;}.cls-8{clip-path:url(#clip-path-2);}.cls-9{fill:#d3eb0b;}.cls-10{clip-path:url(#clip-path-3);}.cls-11{fill:#f73434;}.cls-12{fill:none;stroke:#88ba00;stroke-linecap:round;stroke-linejoin:round;stroke-width:0.4px;}</style><clipPath id="clip-path"><path class="cls-1" d="M122.42,48.35c-1.18,6.93,2.82,9,8,8.88,6.61-.21,10.2,1.24,11.39-5.69s.79-18-4.31-18.92S123.61,41.43,122.42,48.35Z"/></clipPath><clipPath id="clip-path-2"><circle class="cls-2" cx="141.93" cy="20.1" r="5.74" transform="translate(-0.75 6.27) rotate(-2.52)"/></clipPath><clipPath id="clip-path-3"><path class="cls-3" d="M150.69,29.9a7.4,7.4,0,0,1-7.3-.16S143.07,34,147,34.05C149.91,34.07,150.69,29.9,150.69,29.9Z"/></clipPath></defs><path class="cls-4" d="M137.84,49l2.57,6.77s-1.41.2-1.75,1,1.11,1.39,2.54.07c0,0-.33,1.71,1.3,1.39s.47-1.74.47-1.74a1.66,1.66,0,0,0,2.09.18c1-.81-.76-1.66-2.38-1.38,0,0-1.18-4.39-1.6-6.7s-1.21-3.7-2.62-3.55S137.42,47.94,137.84,49Z"/><path class="cls-1" d="M122.42,48.35c-1.18,6.93,2.82,9,8,8.88,6.61-.21,10.2,1.24,11.39-5.69s.79-18-4.31-18.92S123.61,41.43,122.42,48.35Z"/><g class="cls-5"><ellipse class="cls-6" cx="135.73" cy="33.4" rx="9.05" ry="5.69" transform="translate(-0.08 0.35) rotate(-0.15)"/><ellipse class="cls-7" cx="140.69" cy="54.19" rx="9.93" ry="5.56" transform="translate(63.51 183.71) rotate(-80.27)"/></g><path class="cls-1" d="M132.16,37c11.26-.36,20.4-.3,20.45-8s-9.07-10.31-20.33-10.38c0,0-11.14,2-11.21,13.09C121.07,31.76,121.19,37.4,132.16,37Z"/><circle class="cls-1" cx="141.7" cy="19.41" r="8.2" transform="translate(-0.72 6.26) rotate(-2.52)"/><circle class="cls-2" cx="141.93" cy="20.1" r="5.74" transform="translate(-0.75 6.27) rotate(-2.52)"/><g class="cls-8"><path d="M143.25,17.57a4.85,4.85,0,0,1,2.08.48,1.44,1.44,0,0,0-.41,1,1.46,1.46,0,0,0,1.46,1.48,1.49,1.49,0,0,0,1.1-.49,4.83,4.83,0,0,1,.65,2.48,4.92,4.92,0,1,1-4.88-4.95Z"/></g><ellipse class="cls-9" cx="135.46" cy="26.8" rx="0.73" ry="1.89" transform="translate(107.78 162.08) rotate(-89.63)"/><ellipse class="cls-9" cx="134.76" cy="24.77" rx="0.42" ry="1.1" transform="translate(109.11 159.37) rotate(-89.63)"/><path class="cls-3" d="M150.69,29.9a7.4,7.4,0,0,1-7.3-.16S143.07,34,147,34.05C149.91,34.07,150.69,29.9,150.69,29.9Z"/><g class="cls-10"><ellipse class="cls-11" cx="144.62" cy="35.77" rx="3.48" ry="6.44" transform="translate(107.91 180.16) rotate(-89.63)"/><ellipse class="cls-2" cx="144.79" cy="26.42" rx="3.48" ry="6.44" transform="translate(24.53 111.28) rotate(-45.55)"/></g><path class="cls-1" d="M122.79,57.25c.85,3.08,8.85,3.27,9.24,1.16s-3.59-1.25-3.59-1.25A4.37,4.37,0,0,0,132,52.58c-.22-3.91-4-3.43-4-3.43s-5.6-.68-5.27,4c0,0,.16,2.34,3.09,1.59C125.82,54.71,122.27,55.36,122.79,57.25Z"/><ellipse class="cls-1" cx="128.49" cy="49.58" rx="0.39" ry="0.14" transform="translate(-1.54 4.18) rotate(-1.85)"/><path class="cls-1" d="M134.49,50.45l2.58,6.77s-1.41.2-1.75,1,1.11,1.39,2.54.07c0,0-.34,1.71,1.29,1.39s.48-1.74.48-1.74a1.66,1.66,0,0,0,2.09.18c1-.81-.77-1.66-2.39-1.39,0,0-1.18-4.38-1.6-6.69s-1.2-3.7-2.61-3.55S134.08,49.44,134.49,50.45Z"/><path class="cls-12" d="M126,49s6.17-1.19,6.3,2.81-3.11,4.45-3.11,4.45"/><path class="cls-12" d="M130.75,56.86a4,4,0,0,0-3.09-.48"/><ellipse class="cls-9" cx="128.19" cy="49.83" rx="1.17" ry="0.28" transform="translate(-1.55 4.17) rotate(-1.85)"/></svg>