<svg id="Layer_5" data-name="Layer 5" xmlns="http://www.w3.org/2000/svg" xmlns:xlink="http://www.w3.org/1999/xlink" viewBox="0 0 260 168"><defs><style>.cls-1{fill:#8ecf00;}.cls-2{fill:#fff;}.cls-3{fill:#457500;}.cls-4{fill:#79ce00;}.cls-5{clip-path:url(#clip-path);}.cls-6{fill:#75b506;}.cls-7{fill:#b1e523;}.cls-8{clip-path:url(#clip-path-2);}.cls-9{fill:#d3eb0b;}.cls-10{clip-path:url(#clip-path-3);}.cls-11{fill:#f73434;}.cls-12{fill:none;stroke:#88ba00;stroke-linecap:round;stroke-linejoin:round;stroke-width:0.36px;}</style><clipPath id="clip-path"><path class="cls-1" d="M81.06,68.76c-1.29,6.27,2.3,8.31,7,8.31,6,0,9.25,1.43,10.53-4.84s1.25-16.39-3.37-17.34S82.34,62.49,81.06,68.76Z"/></clipPath><clipPath id="clip-path-2"><circle class="cls-2" cx="104.57" cy="48.65" r="5.22" transform="translate(13.27 119.11) rotate(-62.61)"/></clipPath><clipPath id="clip-path-3"><path class="cls-3" d="M107.21,60.32A6.75,6.75,0,0,1,101.47,57s-2.15,3.27,1,5C104.75,63.29,107.21,60.32,107.21,60.32Z"/></clipPath></defs><path class="cls-4" d="M95.06,69.76,97.2,76s-1.28.14-1.62.84,1,1.29,2.31.13c0,0-.35,1.55,1.14,1.31s.48-1.56.48-1.56a1.52,1.52,0,0,0,1.9.22c1-.71-.65-1.54-2.13-1.33,0,0-.94-4-1.26-6.14s-1-3.4-2.27-3.31S94.71,68.83,95.06,69.76Z"/><path class="cls-1" d="M81.06,68.76c-1.29,6.27,2.3,8.31,7,8.31,6,0,9.25,1.43,10.53-4.84s1.25-16.39-3.37-17.34S82.34,62.49,81.06,68.76Z"/><g class="cls-5"><ellipse class="cls-6" cx="93.6" cy="55.55" rx="5.17" ry="8.24" transform="translate(35.29 147.45) rotate(-88.29)"/><ellipse class="cls-7" cx="97.51" cy="74.61" rx="9.03" ry="5.06" transform="matrix(0.2, -0.98, 0.98, 0.2, 4.85, 155.15)"/></g><path class="cls-1" d="M89.3,57.81c9.13,4.69,16.37,8.78,19.81,2.67s-2.66-12.2-11.6-17.23c0,0-9.73-3.36-14.7,5.46C82.81,48.71,80.42,53.25,89.3,57.81Z"/><circle class="cls-1" cx="104.68" cy="48" r="7.46" transform="translate(13.9 118.86) rotate(-62.61)"/><circle class="cls-2" cx="104.57" cy="48.65" r="5.22" transform="translate(13.27 119.11) rotate(-62.61)"/><g class="cls-8"><path d="M107.33,47.74a4.4,4.4,0,0,1,1.44,1.3,1.33,1.33,0,0,0-.26,2.44,1.27,1.27,0,0,0,1.09.09,4.53,4.53,0,0,1-.57,2.27,4.48,4.48,0,1,1-1.7-6.1Z"/></g><ellipse class="cls-9" cx="96.46" cy="51.12" rx="0.66" ry="1.72" transform="translate(4.57 110.05) rotate(-60.6)"/><ellipse class="cls-9" cx="96.79" cy="49.2" rx="0.39" ry="1" transform="translate(6.41 109.37) rotate(-60.6)"/><path class="cls-3" d="M107.21,60.32A6.75,6.75,0,0,1,101.47,57s-2.15,3.27,1,5C104.75,63.29,107.21,60.32,107.21,60.32Z"/><g class="cls-10"><ellipse class="cls-11" cx="99.79" cy="62.31" rx="3.17" ry="5.86" transform="translate(-3.49 118.65) rotate(-60.6)"/><ellipse class="cls-2" cx="104.05" cy="54.94" rx="3.17" ry="5.86" transform="translate(-11.33 31.85) rotate(-16.52)"/></g><path class="cls-1" d="M81.13,76.86c.69,2.83,8,3.24,8.37,1.33S86.27,77,86.27,77a4,4,0,0,0,3.4-4.07,3.17,3.17,0,0,0-3.57-3.23S81,68.87,81.19,73.1c0,0,.08,2.14,2.77,1.54C84,74.64,80.71,75.13,81.13,76.86Z"/><ellipse class="cls-1" cx="86.54" cy="70.05" rx="0.36" ry="0.13"/><path class="cls-1" d="M92,71l2.14,6.22s-1.29.15-1.62.85,1,1.29,2.31.13c0,0-.36,1.55,1.13,1.31s.49-1.57.49-1.57a1.51,1.51,0,0,0,1.9.22c1-.7-.65-1.53-2.13-1.33,0,0-1-4-1.26-6.13s-1-3.4-2.28-3.31S91.63,70.09,92,71Z"/><path class="cls-12" d="M84.27,69.46s5.64-.9,5.64,2.74-3,4-3,4"/><path class="cls-12" d="M88.38,76.74a3.66,3.66,0,0,0-2.79-.53"/><ellipse class="cls-9" cx="86.26" cy="70.27" rx="1.07" ry="0.26"/></svg>