<svg id="Layer_1" data-name="Layer 1" xmlns="http://www.w3.org/2000/svg" xmlns:xlink="http://www.w3.org/1999/xlink" viewBox="0 0 260 168"><defs><style>.cls-1{fill:#8ecf00;}.cls-2{fill:#fff;}.cls-3{fill:#457500;}.cls-4{fill:#aeaeaf;}.cls-5{fill:#7ece00;}.cls-6{fill:#d3eb0b;}.cls-7{clip-path:url(#clip-path);}.cls-8{fill:#75b506;}.cls-9{fill:#b1e523;}.cls-10{clip-path:url(#clip-path-2);}.cls-11{clip-path:url(#clip-path-3);}.cls-12{clip-path:url(#clip-path-4);}.cls-13{fill:#f73434;}.cls-14{fill:#dbd5d7;}.cls-15{fill:#ededed;}.cls-16{fill:#009db7;}.cls-17{fill:#03b4dd;}.cls-18{clip-path:url(#clip-path-5);}.cls-19{fill:#00c3ff;}.cls-20{fill:#86f1fc;}</style><clipPath id="clip-path"><path class="cls-1" d="M175.33,141c0,7.36-6,7.75-13.32,7.75s-13.32-.39-13.32-7.75,6-18.9,13.32-18.9S175.33,133.59,175.33,141Z"/></clipPath><clipPath id="clip-path-2"><circle class="cls-2" cx="174.93" cy="111.65" r="6.01"/></clipPath><clipPath id="clip-path-3"><circle class="cls-2" cx="154.96" cy="108.32" r="6.01"/></clipPath><clipPath id="clip-path-4"><path class="cls-3" d="M155.25,118.49a17.51,17.51,0,0,0,15.89,2.65,8.37,8.37,0,0,1-8.72,4.22A9,9,0,0,1,155.25,118.49Z"/></clipPath><clipPath id="clip-path-5"><rect class="cls-4" x="167.86" y="122.12" width="1.8" height="23.91" rx="0.68" transform="translate(64.01 -54.29) rotate(22.46)"/></clipPath></defs><path class="cls-5" d="M175.12,137.16s4-.38,4.1,3.72a4.57,4.57,0,0,1-3.91,4.67s4.19-.76,3.72,1.43-9.92,1.82-9.63-1.52S169.68,137.16,175.12,137.16Z"/><ellipse class="cls-6" cx="175.62" cy="137.62" rx="0.41" ry="0.15"/><path class="cls-5" d="M148.22,137.16s-4-.38-4.1,3.72a4.57,4.57,0,0,0,3.91,4.67s-4.19-.76-3.72,1.43,9.92,1.82,9.63-1.52S153.66,137.16,148.22,137.16Z"/><ellipse class="cls-6" cx="146.6" cy="138.02" rx="0.88" ry="0.38"/><ellipse class="cls-6" cx="147.96" cy="137.66" rx="0.54" ry="0.23"/><path class="cls-1" d="M175.33,141c0,7.36-6,7.75-13.32,7.75s-13.32-.39-13.32-7.75,6-18.9,13.32-18.9S175.33,133.59,175.33,141Z"/><g class="cls-7"><ellipse class="cls-8" cx="162.51" cy="123.96" rx="6.01" ry="12.73" transform="translate(19.06 269.56) rotate(-82.76)"/><ellipse class="cls-9" cx="162.01" cy="143.74" rx="7.9" ry="10.39"/></g><path class="cls-1" d="M184.48,122.68c-1.32,7.94-10.83,6.82-22.47,4.87s-21-4-19.67-11.91,11.2-9,22.84-7.06S185.81,114.73,184.48,122.68Z"/><circle class="cls-1" cx="155.33" cy="107.66" r="8.58"/><circle class="cls-1" cx="174.8" cy="110.91" r="8.58"/><circle class="cls-2" cx="174.93" cy="111.65" r="6.01"/><g class="cls-10"><path d="M175.36,108.34a5,5,0,0,0-2.23.12,1.54,1.54,0,0,1-1.53,2.38,1.57,1.57,0,0,1-1-.71,5.22,5.22,0,0,0-1.12,2.44,5.15,5.15,0,1,0,5.93-4.23Z"/></g><circle class="cls-2" cx="154.96" cy="108.32" r="6.01"/><g class="cls-11"><path d="M155.53,105.42a5.06,5.06,0,0,0-2.23.13,1.51,1.51,0,0,1,.24,1.11,1.54,1.54,0,0,1-1.77,1.26,1.5,1.5,0,0,1-1-.71,5,5,0,0,0-1.12,2.44,5.15,5.15,0,1,0,5.92-4.23Z"/></g><ellipse class="cls-6" cx="146.77" cy="114.11" rx="0.76" ry="1.98" transform="translate(10.06 240.1) rotate(-80.53)"/><ellipse class="cls-6" cx="180.77" cy="119.78" rx="0.76" ry="1.98" transform="translate(32.87 278.38) rotate(-80.53)"/><ellipse class="cls-6" cx="146.02" cy="112.28" rx="0.44" ry="1.15" transform="translate(11.24 237.83) rotate(-80.53)"/><ellipse class="cls-6" cx="181.86" cy="117.82" rx="0.44" ry="1.15" transform="translate(35.71 277.81) rotate(-80.53)"/><path class="cls-3" d="M155.25,118.49a17.51,17.51,0,0,0,15.89,2.65,8.37,8.37,0,0,1-8.72,4.22A9,9,0,0,1,155.25,118.49Z"/><g class="cls-12"><ellipse class="cls-13" cx="161.83" cy="126.98" rx="3.65" ry="6.74" transform="translate(9.95 265.71) rotate(-80.53)"/><ellipse class="cls-2" cx="163.23" cy="118.63" rx="3.65" ry="6.74" transform="translate(19.35 260.11) rotate(-80.53)"/></g><ellipse class="cls-6" cx="163.88" cy="115.69" rx="0.76" ry="3.91" transform="translate(22.81 258.3) rotate(-80.53)"/><path class="cls-14" d="M162.42,146.1a6.71,6.71,0,0,0-1.49,2.78c-.15.48-.28,1-.44,1.45-.12.33-.28.77-.65.87a.51.51,0,0,0,.27,1c1.12-.3,1.38-1.61,1.67-2.56a6.43,6.43,0,0,1,1.36-2.8c.47-.47-.26-1.2-.72-.73Z"/><path class="cls-14" d="M163,146.86c-.76,2-1.47,4.09-1.1,6.25a.52.52,0,0,0,.5.38.54.54,0,0,0,.5-.38,1.67,1.67,0,0,0,.1-.63.52.52,0,0,0-1,0,.73.73,0,0,1-.07.36h1c-.34-2,.41-3.91,1.09-5.7a.51.51,0,0,0-.36-.63.52.52,0,0,0-.63.35Z"/><path class="cls-14" d="M163.51,147.83a7.1,7.1,0,0,1,.13,1.9,11.15,11.15,0,0,1-.4,1.89,3.29,3.29,0,0,0-.08,1.76c.13.49.64,1.3,1.24.86a.53.53,0,0,0,.18-.7.51.51,0,0,0-.7-.18l0,0,.26-.07c.18.1.22.09.13,0a.42.42,0,0,1-.06-.14,1.79,1.79,0,0,1,0-.89c.1-.51.28-1,.39-1.5a7.89,7.89,0,0,0,0-3.21c-.14-.65-1.13-.38-1,.27Z"/><path class="cls-14" d="M164.52,147.72c0,1.52,0,3.05.09,4.57a2.87,2.87,0,0,0,.55,1.8.77.77,0,0,0,1,.23.68.68,0,0,0,.25-.94c-.32-.58-1.21-.06-.88.52l0,.06-.07-.26v.07l.07-.26h0l.23-.13h.2c-.09,0-.18-.36-.2-.45a3.31,3.31,0,0,1-.07-.55c0-.5,0-1,0-1.5l-.07-3.17a.51.51,0,0,0-1,0Z"/><path class="cls-14" d="M165.2,146.41l.87,4.82a5.63,5.63,0,0,0,.63,2.05,3.28,3.28,0,0,0,1.43,1.23c.6.26,1.13-.63.52-.89a2.41,2.41,0,0,1-1.18-1.07,7.49,7.49,0,0,1-.49-2.05l-.79-4.37c-.12-.65-1.11-.37-1,.28Z"/><path class="cls-14" d="M160.67,144.6a27.56,27.56,0,0,0-2.44,2.51,4.55,4.55,0,0,1-3.48.81c-.66,0-.66,1,0,1a5.66,5.66,0,0,0,3.91-.87c1-.74,1.53-1.9,2.53-2.59.55-.37,0-1.27-.52-.89Z"/><path class="cls-15" d="M161.83,145.27a4,4,0,0,0-2.51,2.37c-.45.83-1.21,2.23-2.39,1.86-.63-.2-.9.79-.27,1,1.37.43,2.55-.63,3.2-1.72.56-.93,1-2.29,2.24-2.51a.51.51,0,0,0,.36-.63.52.52,0,0,0-.63-.36Z"/><path class="cls-15" d="M162.45,145.91a6.68,6.68,0,0,0-2.53,2.61c-.46.85-.76,2-1.68,2.47l.76.58.07-.26a.52.52,0,0,0-1-.27l-.06.25a.52.52,0,0,0,.75.58,5.14,5.14,0,0,0,1.92-2.58,5.94,5.94,0,0,1,2.29-2.5.51.51,0,0,0-.52-.88Z"/><path class="cls-14" d="M162.36,145.6a3.06,3.06,0,0,0-2.42,2.58,11.07,11.07,0,0,0-.09,1.91,3.14,3.14,0,0,1-.35,1.76l.3-.24h-.05l.58.24v0l.05.4v0l-.63.36h0a.53.53,0,0,0,.63-.36.51.51,0,0,0-.36-.63h0a.53.53,0,0,0-.63.36.51.51,0,0,0,.05.45.55.55,0,0,0,.59.24c.6-.18.73-1.14.8-1.67s0-1.25,0-1.88a3.14,3.14,0,0,1,.4-1.62,2,2,0,0,1,1.36-.86.51.51,0,1,0-.28-1Z"/><path class="cls-15" d="M162.69,146.23a5.65,5.65,0,0,0-1.4,3.21,11.84,11.84,0,0,1-.81,3.69h.89s.07-.07.06-.06a.52.52,0,0,0-.18-.7.53.53,0,0,0-.71.18,1,1,0,0,0-.06,1.1.52.52,0,0,0,.89,0,11,11,0,0,0,.86-3.62,5.24,5.24,0,0,1,1.19-3.07.52.52,0,0,0-.73-.73Z"/><path class="cls-15" d="M163.42,146.4a13.09,13.09,0,0,0-.64,3,18.67,18.67,0,0,1-.88,3.11.52.52,0,0,0,.36.63.53.53,0,0,0,.64-.35,19.49,19.49,0,0,0,.85-3c.1-.51.17-1,.24-1.54a5.19,5.19,0,0,1,.31-1.35.51.51,0,0,0-.88-.52Z"/><path class="cls-15" d="M163.68,147a8.93,8.93,0,0,1,.4,4.3,5.18,5.18,0,0,0,.16,2.15,4,4,0,0,0,1.48,1.52c.55.38,1.07-.51.52-.89a2.09,2.09,0,0,1-1.13-1.48c0-.71,0-1.42,0-2.12a8.27,8.27,0,0,0-.58-4c-.28-.6-1.17-.08-.89.52Z"/><path class="cls-15" d="M165,147c.21,1.62.33,3.27.66,4.87a4.58,4.58,0,0,0,.84,1.93,7.46,7.46,0,0,0,1.63,1.44c.55.38,1.07-.51.52-.89a5.37,5.37,0,0,1-1.41-1.28,4.22,4.22,0,0,1-.64-1.74c-.25-1.43-.39-2.89-.57-4.33a.53.53,0,0,0-.52-.51c-.25,0-.55.24-.51.51Z"/><path class="cls-15" d="M165.74,147.68a3.09,3.09,0,0,1,.76,1.89,6.93,6.93,0,0,0,.61,2.13,5.3,5.3,0,0,0,2.87,2.52.52.52,0,0,0,.63-.36.53.53,0,0,0-.36-.64,4.19,4.19,0,0,1-2.39-2.35c-.53-1.31-.27-2.88-1.39-3.92-.49-.44-1.22.28-.73.73Z"/><path class="cls-16" d="M167.29,145.78c-.32-.89-5.79-2.37-5.79-2.37a2.42,2.42,0,0,0-1.07,1.33c-.26.62,1,1.74,2.89,2.51s3.56.88,3.82.26A2.24,2.24,0,0,0,167.29,145.78Z"/><ellipse class="cls-17" cx="164.32" cy="144.83" rx="1.08" ry="3.23" transform="translate(-32.3 241.37) rotate(-67.54)"/><rect class="cls-4" x="167.86" y="122.12" width="1.8" height="23.91" rx="0.68" transform="translate(64.01 -54.29) rotate(22.46)"/><g class="cls-18"><rect class="cls-15" x="171.7" y="102.1" width="0.48" height="46.65" transform="translate(60.94 -56.16) rotate(22.46)"/><path class="cls-19" d="M164,141.37a3.58,3.58,0,0,0,3.1,1.28L165,147.76l-3.14-2.34,2.24-4.18"/><rect class="cls-19" x="171.01" y="118.29" width="3.3" height="12.48" rx="1.65" transform="translate(60.66 -56.51) rotate(22.46)"/></g><path class="cls-1" d="M156.33,140.16l7.09,2.66s-.81,1.24-.43,2.05,1.85.09,1.8-2c0,0,1.12,1.45,2,0s-1-1.58-1-1.58,1.51-.15,1.58-1.52-1.83-.54-2.73.92c0,0-4.27-2.11-6.37-3.37s-3.74-1.61-4.61-.41S155.24,139.79,156.33,140.16Z"/><path class="cls-1" d="M170.23,138.65l-2-7.31s-1.32.7-2.09.24-.41-2.18,1.61-1.94c0,0-.83-.92.74-1.65s1.66.71,1.66.71.11-1,1.48-1,.37,1.88-1.17,2.64c0,0,1.7,4.44,2.76,6.66s1.26,3.87,0,4.62S170.5,139.77,170.23,138.65Z"/><path class="cls-20" d="M181.64,118.76s-2.41,4.87-.08,6.11S183.58,121.43,181.64,118.76Z"/><path class="cls-20" d="M146.07,110.8s-2.88,3.49-1.23,4.94S147.13,113.33,146.07,110.8Z"/><path class="cls-20" d="M145.19,117.27s-1.43,4.29.63,5S147.09,119.25,145.19,117.27Z"/><path class="cls-20" d="M179.9,125.7s-4.53-.14-4.66,2S178.54,128.09,179.9,125.7Z"/><path class="cls-1" d="M182.51,110.15s-11.41-2.11-13.57-5l7.21-1.63,4.68,3.15Z"/><path class="cls-1" d="M147.62,105.23s11.59.22,14.3-2.22l-6.73-3L150,102.12Z"/></svg>