<svg xmlns="http://www.w3.org/2000/svg" xmlns:xlink="http://www.w3.org/1999/xlink" viewBox="0 0 260 168"><defs><style>.cls-1{fill:#8ecf00;}.cls-2{fill:#457500;}.cls-3{fill:#79ce00;}.cls-4{clip-path:url(#clip-path);}.cls-5{fill:#75b506;}.cls-6{fill:#b1e523;}.cls-7{fill:#fff;}.cls-8{fill:#d3eb0b;}.cls-9{clip-path:url(#clip-path-2);}.cls-10{fill:#f73434;}.cls-11{fill:none;stroke:#88ba00;stroke-linecap:round;stroke-linejoin:round;stroke-width:0.52px;}</style><clipPath id="clip-path"><path class="cls-1" d="M149.18,92.14c1.87,9.09-3.33,12.06-10.16,12.06-8.74,0-13.42,2.06-15.28-7S121.93,73.4,128.62,72,147.32,83.05,149.18,92.14Z"/></clipPath><clipPath id="clip-path-2"><path class="cls-2" d="M111.1,69a9.79,9.79,0,0,0,9.63-.52s.6,5.64-4.6,5.84C112.31,74.47,111.1,69,111.1,69Z"/></clipPath></defs><g id="Layer_5" data-name="Layer 5"><path class="cls-3" d="M128.87,93.59l-3.1,9s1.86.21,2.35,1.23-1.41,1.87-3.35.19c0,0,.51,2.25-1.65,1.9s-.7-2.27-.7-2.27a2.2,2.2,0,0,1-2.75.32c-1.39-1,.94-2.23,3.08-1.93,0,0,1.38-5.84,1.83-8.9s1.44-4.93,3.3-4.8S129.38,92.24,128.87,93.59Z"/><path class="cls-1" d="M149.18,92.14c1.87,9.09-3.33,12.06-10.16,12.06-8.74,0-13.42,2.06-15.28-7S121.93,73.4,128.62,72,147.32,83.05,149.18,92.14Z"/><g class="cls-4"><ellipse class="cls-5" cx="130.99" cy="72.98" rx="11.95" ry="7.5" transform="translate(-2.12 3.94) rotate(-1.71)"/><ellipse class="cls-6" cx="125.33" cy="100.62" rx="7.34" ry="13.1" transform="translate(-17.65 27.21) rotate(-11.58)"/></g><path class="cls-1" d="M135.86,77.63c-14.87,0-26.93.48-27.33-9.67s11.52-14,26.38-14.56c0,0,14.79,2.12,15.36,16.8C150.27,70.2,150.34,77.63,135.86,77.63Z"/><circle class="cls-1" cx="122.52" cy="54.78" r="10.82" transform="translate(-2.04 4.82) rotate(-2.23)"/><circle class="cls-7" cx="122.24" cy="55.7" r="7.57" transform="translate(-2.08 4.81) rotate(-2.23)"/><path d="M121.94,49.21a6.4,6.4,0,0,0-2.72.73,1.92,1.92,0,0,1,.58,1.3,1.93,1.93,0,0,1-3.33,1.41,6.38,6.38,0,0,0-.76,3.3,6.49,6.49,0,1,0,6.23-6.74Z"/><ellipse class="cls-8" cx="131.06" cy="64.26" rx="2.49" ry="0.96" transform="translate(-2.4 5.14) rotate(-2.23)"/><ellipse class="cls-8" cx="131.9" cy="61.56" rx="1.45" ry="0.56" transform="translate(-2.29 5.17) rotate(-2.23)"/><path class="cls-2" d="M111.1,69a9.79,9.79,0,0,0,9.63-.52s.6,5.64-4.6,5.84C112.31,74.47,111.1,69,111.1,69Z"/><g class="cls-9"><ellipse class="cls-10" cx="119.36" cy="76.49" rx="8.5" ry="4.6" transform="translate(-2.88 4.7) rotate(-2.23)"/><ellipse class="cls-7" cx="118.74" cy="64.16" rx="8.5" ry="4.6" transform="translate(-9.68 105.69) rotate(-46.31)"/></g><path class="cls-1" d="M149.08,103.89c-1,4.11-11.54,4.69-12.14,1.93s4.69-1.81,4.69-1.81-5-.72-4.93-5.89,5.17-4.68,5.17-4.68,7.35-1.14,7.12,5c0,0-.12,3.09-4,2.23C145,100.67,149.69,101.38,149.08,103.89Z"/><ellipse class="cls-1" cx="141.23" cy="94.01" rx="0.52" ry="0.19"/><path class="cls-1" d="M133.35,95.43l-3.1,9s1.86.21,2.34,1.22-1.4,1.88-3.35.2c0,0,.52,2.24-1.65,1.89s-.7-2.27-.7-2.27a2.18,2.18,0,0,1-2.75.32c-1.39-1,.94-2.22,3.09-1.93,0,0,1.37-5.83,1.83-8.89s1.43-4.93,3.3-4.81S133.86,94.07,133.35,95.43Z"/><path class="cls-11" d="M144.53,93.16s-8.18-1.3-8.18,4,4.28,5.74,4.28,5.74"/><path class="cls-11" d="M138.56,103.71a5.29,5.29,0,0,1,4.06-.76"/><ellipse class="cls-8" cx="141.64" cy="94.33" rx="1.55" ry="0.37"/></g></svg>