<svg xmlns="http://www.w3.org/2000/svg" xmlns:xlink="http://www.w3.org/1999/xlink" viewBox="0 0 260 168"><defs><style>.cls-1{fill:#8ecf00;}.cls-2{fill:#457500;}.cls-3{fill:#71b704;}.cls-4{clip-path:url(#clip-path);}.cls-5{fill:#75b506;}.cls-6{fill:#b1e523;}.cls-7{fill:#fff;}.cls-8{fill:#d3eb0b;}.cls-9{clip-path:url(#clip-path-2);}.cls-10{fill:#f73434;}.cls-11{fill:#91c405;}</style><clipPath id="clip-path"><path class="cls-1" d="M102.56,49.83c-2.72-3.15-5.2-2.11-7.07.32-2.4,3.11-4.41,4.21-1.69,7.36s8,7.16,10.29,5.15S105.29,53,102.56,49.83Z"/></clipPath><clipPath id="clip-path-2"><path class="cls-2" d="M106.1,70.08a4.38,4.38,0,0,1,.65-4.28s-2.49-.52-2.81,1.8C103.71,69.3,106.1,70.08,106.1,70.08Z"/></clipPath></defs><g id="Layer_9" data-name="Layer 9"><path class="cls-3" d="M97,55.86S92.67,57.07,91.83,53l0-1.51s-1.86-1.31-1-3.07,2.65.34,2.92,2.05c0,0,.4,1.2.53,1.51s2.4-1.32,3.52.74S97.32,55.79,97,55.86Z"/><path class="cls-3" d="M100.11,63.11l1.6,4s-.83.14-1,.6.67.81,1.51,0c0,0-.18,1,.78.81s.26-1,.26-1a1,1,0,0,0,1.25.09c.6-.49-.48-1-1.43-.8,0,0-.75-2.58-1-3.95s-.76-2.18-1.59-2.08S99.85,62.51,100.11,63.11Z"/><path class="cls-1" d="M102.56,49.83c-2.72-3.15-5.2-2.11-7.07.32-2.4,3.11-4.41,4.21-1.69,7.36s8,7.16,10.29,5.15S105.29,53,102.56,49.83Z"/><g class="cls-4"><ellipse class="cls-5" cx="105.28" cy="61.46" rx="5.37" ry="3.37" transform="matrix(0.25, -0.97, 0.97, 0.25, 19.34, 147.92)"/><ellipse class="cls-6" cx="93.01" cy="56" rx="3.3" ry="5.88" transform="translate(-13.98 74.43) rotate(-40.83)"/></g><path class="cls-1" d="M103.31,58.64c-.64,6.64-1.38,12,3.14,12.63s6.75-4.54,7.66-11.16c0,0-.31-6.7-6.85-7.59C107.26,52.52,103.94,52.16,103.31,58.64Z"/><circle class="cls-1" cx="112.95" cy="65.59" r="4.86" transform="translate(-6.89 117.54) rotate(-53.58)"/><circle class="cls-7" cx="112.53" cy="65.68" r="3.4" transform="translate(-7.13 117.23) rotate(-53.58)"/><path d="M115.41,66.09a2.72,2.72,0,0,1-.44,1.19.84.84,0,0,0-.56-.32.87.87,0,0,0-1,.74.88.88,0,0,0,.21.69,2.91,2.91,0,0,1-4-3.09,2.91,2.91,0,0,1,5.77.79Z"/><ellipse class="cls-8" cx="109.09" cy="61.36" rx="1.12" ry="0.43" transform="translate(33.54 161.15) rotate(-82.23)"/><ellipse class="cls-8" cx="110.33" cy="61.1" rx="0.65" ry="0.25" transform="translate(34.87 162.16) rotate(-82.23)"/><path class="cls-2" d="M106.1,70.08a4.38,4.38,0,0,1,.65-4.28s-2.49-.52-2.81,1.8C103.71,69.3,106.1,70.08,106.1,70.08Z"/><g class="cls-9"><ellipse class="cls-10" cx="103.11" cy="66.06" rx="3.82" ry="2.06" transform="translate(23.71 159.29) rotate(-82.23)"/><ellipse class="cls-7" cx="108.59" cy="66.88" rx="3.82" ry="2.06" transform="translate(-18.11 81.37) rotate(-38.15)"/></g><path class="cls-11" d="M101.22,59.9l2.23,3.67s-.8.27-.92.76.8.69,1.49-.24c0,0,0,1,.91.68s.09-1.06.09-1.06a1,1,0,0,0,1.24-.13c.51-.58-.63-.88-1.54-.55,0,0-1.16-2.43-1.65-3.73s-1.1-2-1.91-1.79S100.87,59.35,101.22,59.9Z"/><path class="cls-1" d="M98.43,52S94,52.29,94,48.15l.26-1.48s-1.54-1.67-.32-3.21,2.52.88,2.43,2.61c0,0,.14,1.26.2,1.59s2.62-.79,3.3,1.45S98.78,52,98.43,52Z"/><ellipse class="cls-8" cx="98.29" cy="51.06" rx="0.44" ry="0.79" transform="translate(37.76 143.81) rotate(-84.33)"/></g></svg>