<svg id="Layer_2" data-name="Layer 2" xmlns="http://www.w3.org/2000/svg" xmlns:xlink="http://www.w3.org/1999/xlink" viewBox="0 0 260 168"><defs><style>.cls-1{fill:none;}.cls-2{fill:#71b704;}.cls-3{fill:#8ecf00;}.cls-4{clip-path:url(#clip-path);}.cls-5{fill:#75b506;}.cls-6{fill:#b1e523;}.cls-7{fill:#d3eb0b;}.cls-8{fill:#91c405;}</style><clipPath id="clip-path"><path class="cls-1" d="M264.7,111.74c4.55,5.16-4.28,17-11.27,23.16s-9.52,1.69-16.52-3.59c-5.49-4.13-7.88-9.65-.88-15.83S260.15,106.58,264.7,111.74Z"/></clipPath></defs><g id="Layer_6" data-name="Layer 6"><path class="cls-2" d="M242.65,126.13c-4.55,2.58-.85,7.59-1.55,7.9s-3.38,1.23-3.38,1.23c-3.81.65-8.45,4.67-4.5,6.59s6.85-2.27,6.85-2.27l3.37-.16c9-2,6.23-11.59,6.23-11.59C249.5,127.07,247.2,123.55,242.65,126.13Z"/><path class="cls-3" d="M264.7,111.74c4.55,5.16-4.28,17-11.27,23.16s-9.52,1.69-16.52-3.59c-5.49-4.13-7.88-9.65-.88-15.83S260.15,106.58,264.7,111.74Z"/><g class="cls-4"><ellipse class="cls-5" cx="261.98" cy="109.1" rx="7.55" ry="12.01" transform="translate(93.14 337.2) rotate(-76.1)"/><ellipse class="cls-6" cx="250.06" cy="136.72" rx="13.17" ry="7.38" transform="translate(-27.84 199.92) rotate(-41.48)"/></g><path class="cls-3" d="M241.92,104.89c1.82-14.65,16.82-15.51,16.82-15.51,14.83,1.85,26.45,6.72,25.18,16.85s-13.31,8.62-28.2,7.35C241.21,112.34,241.92,104.89,241.92,104.89Z"/><ellipse class="cls-7" cx="261.65" cy="100.59" rx="0.97" ry="2.51" transform="translate(129.41 347.75) rotate(-82.88)"/><ellipse class="cls-7" cx="261.06" cy="97.8" rx="0.56" ry="1.46" transform="translate(131.66 344.73) rotate(-82.88)"/><path class="cls-8" d="M253.21,118.46c-.51-1.8,1.1-3.17,4-4.31s8.31-3.79,8.31-3.79c-.81-2-.12-4.59,1.19-3.46a2.2,2.2,0,0,1,.31,2.77s1.55-1.83,2.38.17-1.49,2-1.49,2c2.09,1.52,1.68,3.54.57,3.32s-1.73-2-1.73-2l-8.15,5.07C257.38,119,253.72,120.26,253.21,118.46Z"/><path class="cls-3" d="M234.48,121.51c-5,1.56-2.41,7.24-3.16,7.4s-3.56.5-3.56.5c-3.86-.16-9.26,2.83-5.78,5.52s7.18-.81,7.18-.81l3.33.55c9.25,0,8.5-10,8.5-10C241,123.9,239.49,120,234.48,121.51Z"/><ellipse class="cls-7" cx="237.92" cy="124.9" rx="1.78" ry="0.98" transform="translate(92.19 350.67) rotate(-84.86)"/></g></svg>