<svg id="Layer_10" data-name="Layer 10" xmlns="http://www.w3.org/2000/svg" xmlns:xlink="http://www.w3.org/1999/xlink" viewBox="0 0 260 168"><defs><style>.cls-1{fill:#8ecf00;}.cls-2{fill:#457500;}.cls-3{fill:#71b704;}.cls-4{clip-path:url(#clip-path);}.cls-5{fill:#75b506;}.cls-6{fill:#b1e523;}.cls-7{fill:#fff;}.cls-8{fill:#d3eb0b;}.cls-9{clip-path:url(#clip-path-2);}.cls-10{fill:#f73434;}.cls-11{fill:#91c405;}</style><clipPath id="clip-path"><path class="cls-1" d="M142.83,41c6.57.7,7.46,4.86,6,9.5-1.89,5.93-1.5,9.55-8.07,8.85s-16.52-3.9-16-8.75S136.26,40.27,142.83,41Z"/></clipPath><clipPath id="clip-path-2"><path class="cls-2" d="M113.25,54.66a7,7,0,0,0,5-4.72s2.93,2.79.2,5.29C116.42,57.07,113.25,54.66,113.25,54.66Z"/></clipPath></defs><path class="cls-3" d="M140,53.69s2.33,6.72,8.36,4.14l2-1.29s3.39,1.23,4.89-1.5-2.84-3.14-5.3-1.95c0,0-1.93.56-2.46.67s-.44-4.31-4.14-3.93S139.8,53.19,140,53.69Z"/><path class="cls-3" d="M127.74,56.16l-6.63,1.52s.57,1.21.14,1.88-1.66-.14-1.38-2c0,0-1.16,1.16-1.76-.28s1.11-1.28,1.11-1.28-1.33-.32-1.23-1.55,1.7-.26,2.32,1.15c0,0,4-1.37,6.07-2.25s3.53-1,4.15.19S128.75,56,127.74,56.16Z"/><path class="cls-1" d="M142.83,41c6.57.7,7.46,4.86,6,9.5-1.89,5.93-1.5,9.55-8.07,8.85s-16.52-3.9-16-8.75S136.26,40.27,142.83,41Z"/><g class="cls-4"><ellipse class="cls-5" cx="125.22" cy="47.94" rx="8.51" ry="5.35" transform="translate(7.21 111.59) rotate(-49.29)"/><ellipse class="cls-6" cx="143.43" cy="58.99" rx="5.23" ry="9.33" transform="translate(69.57 195.36) rotate(-83.92)"/></g><path class="cls-1" d="M130.67,48c-8.08,6.85-14.41,12.66-19.3,7.32s-.18-12.9,7.63-20.06c0,0,9-5.65,16.08,2.06C135.08,37.27,138.54,41.27,130.67,48Z"/><circle class="cls-1" cx="112.9" cy="41.68" r="7.71" transform="translate(57.11 148.31) rotate(-82.64)"/><circle class="cls-7" cx="113.17" cy="42.3" r="5.39" transform="matrix(0.13, -0.99, 0.99, 0.13, 56.72, 149.12)"/><path d="M110,38.91a4.71,4.71,0,0,0-1.14,1.65,1.41,1.41,0,0,1,.92.44,1.39,1.39,0,0,1-.09,2,1.37,1.37,0,0,1-1.08.35,4.62,4.62,0,1,0,7.93-4.1A4.64,4.64,0,0,0,110,38.91Z"/><ellipse class="cls-8" cx="121.91" cy="42.89" rx="1.78" ry="0.68" transform="translate(3.07 93.65) rotate(-42.51)"/><ellipse class="cls-8" cx="121.12" cy="41.03" rx="1.03" ry="0.4" transform="translate(4.11 92.63) rotate(-42.51)"/><path class="cls-2" d="M113.25,54.66a7,7,0,0,0,5-4.72s2.93,2.79.2,5.29C116.42,57.07,113.25,54.66,113.25,54.66Z"/><g class="cls-9"><ellipse class="cls-10" cx="121.18" cy="54.92" rx="6.05" ry="3.27" transform="translate(-5.26 96.33) rotate(-42.51)"/><ellipse class="cls-7" cx="115.17" cy="48.51" rx="6.05" ry="3.27" transform="translate(59.89 160.59) rotate(-86.59)"/></g><path class="cls-11" d="M130.92,51.81l-6.79.42s.37,1.28-.17,1.88-1.61-.42-1-2.15c0,0-1.34.95-1.69-.57s1.3-1.08,1.3-1.08a1.56,1.56,0,0,1-1-1.73c.3-1.19,1.72,0,2.11,1.51,0,0,4.21-.68,6.35-1.22s3.64-.4,4.06.86S132,51.78,130.92,51.81Z"/><path class="cls-1" d="M143.73,48.31s3.67,6.09,9,2.32l1.7-1.69s3.57.5,4.47-2.48-3.44-2.49-5.6-.81c0,0-1.77,1-2.26,1.17s-1.33-4.13-4.87-3S143.42,47.86,143.73,48.31Z"/><ellipse class="cls-8" cx="145.1" cy="47.65" rx="0.69" ry="1.25" transform="translate(3.74 105.44) rotate(-40.42)"/></svg>