<svg xmlns="http://www.w3.org/2000/svg" xmlns:xlink="http://www.w3.org/1999/xlink" viewBox="0 0 260 168"><defs><style>.cls-1{fill:#eac28c;}.cls-2{fill:#e0b577;}.cls-3{fill:#efcb92;}.cls-21,.cls-4,.cls-9{fill:#ffe4b3;}.cls-5{fill:none;}.cls-6{fill:#8ecf00;}.cls-7{fill:#457500;}.cls-8{clip-path:url(#clip-path);}.cls-9{opacity:0.47;}.cls-10{clip-path:url(#clip-path-2);}.cls-11{fill:#c9934c;}.cls-12{clip-path:url(#clip-path-3);}.cls-13{fill:#eaba75;opacity:0.51;}.cls-14{fill:#ffeed2;}.cls-15{fill:#8c8881;}.cls-16{clip-path:url(#clip-path-4);}.cls-17{fill:#f2d6a2;}.cls-18,.cls-19{fill:#f4cb89;}.cls-19{opacity:0.61;}.cls-20{clip-path:url(#clip-path-5);}.cls-21{opacity:0.23;}.cls-22{clip-path:url(#clip-path-6);}.cls-23{fill:#71b704;}.cls-24{clip-path:url(#clip-path-7);}.cls-25{fill:#75b506;}.cls-26{fill:#b1e523;}.cls-27{fill:#fff;}.cls-28{fill:#d3eb0b;}.cls-29{clip-path:url(#clip-path-8);}.cls-30{fill:#f73434;}.cls-31{fill:#91c405;}</style><clipPath id="clip-path"><path class="cls-1" d="M42,89.08S22.59,69.35,22.55,64.82l76.87-.91,28.52,1.59s15.19-2.27,16.1-1.59,8.81-.13,8.81-.13l19.8,25.3Z"/></clipPath><clipPath id="clip-path-2"><polygon class="cls-2" points="42.01 89.08 172.65 89.08 210.69 94.52 175.55 127.17 63.55 120.36 42.01 89.08"/></clipPath><clipPath id="clip-path-3"><path class="cls-3" d="M65.82,148.93,39.74,132.15s-4.08-5.66-2.94-10.42,1.58-13.61,1.58-13.61l.91-4.76L36.6,94.52,42,89.08l23.81,5.44,4.76,27.21Z"/></clipPath><clipPath id="clip-path-4"><polygon class="cls-4" points="212.28 112.96 212.28 101.11 210.69 94.52 65.82 94.52 65.82 148.93 210.69 148.93 212.77 145.19 214.85 122.86 212.28 112.96"/></clipPath><clipPath id="clip-path-5"><polygon class="cls-1" points="65.82 94.52 83.5 112.66 144.72 115.23 234.5 111.29 240.39 109.99 210.69 94.52 142.68 94.52 65.82 94.52"/></clipPath><clipPath id="clip-path-6"><path class="cls-5" d="M20.16,44.84c.65,4,53.66,49.76,53.66,49.76s56.08,0,56.57-.16-13.46-45.23-15.57-45.88S82.24,32.68,82.24,32.68Z"/></clipPath><clipPath id="clip-path-7"><path class="cls-6" d="M110.68,91.91c-4.44-8.93-10.8-8-16.59-3.48-7.4,5.78-12.73,7.13-8.29,16.06s14.2,21.34,20.78,18.07S115.12,100.84,110.68,91.91Z"/></clipPath><clipPath id="clip-path-8"><path class="cls-7" d="M106.82,141a10.51,10.51,0,0,1,4.07-9.53s-5.48-2.68-7.59,2.5C101.74,137.73,106.82,141,106.82,141Z"/></clipPath></defs><g id="Layer_6" data-name="Layer 6"><path class="cls-1" d="M42,89.08S22.59,69.35,22.55,64.82l76.87-.91,28.52,1.59s15.19-2.27,16.1-1.59,8.81-.13,8.81-.13l19.8,25.3Z"/><g class="cls-8"><path class="cls-9" d="M25.58,63c1.55,0,2.67,1.44,3.59,2.69A71.41,71.41,0,0,0,42.33,79.39a2.44,2.44,0,0,0,1.73.74c1.29-.15,1.47-2,1.17-3.24a40.21,40.21,0,0,0-1.55-4.77l-3.53-9.45a8,8,0,0,0-2.39-3.9,5.46,5.46,0,0,0-4.4-.68A16,16,0,0,0,29.19,60"/></g><polygon class="cls-2" points="42.01 89.08 172.65 89.08 210.69 94.52 175.55 127.17 63.55 120.36 42.01 89.08"/><g class="cls-10"><rect class="cls-11" x="172.65" y="83.64" width="50.97" height="81.62"/></g><path class="cls-3" d="M65.82,148.93,39.74,132.15s-4.08-5.66-2.94-10.42,1.58-13.61,1.58-13.61l.91-4.76L36.6,94.52,42,89.08l23.81,5.44,4.76,27.21Z"/><g class="cls-12"><path class="cls-13" d="M73,115.51a35.62,35.62,0,0,0-6.75,3.63,11.89,11.89,0,0,0-4.52,6c-.9,3.13-.08,6.77-1.82,9.52a6,6,0,0,1-7.65,2c-1.45-.77-2.67-2.18-4.31-2.26-.64,0-1.27.15-1.9.08-1.77-.18-2.75-2-3.94-3.36-.72-.79-1.6-1.44-2.25-2.28a16.7,16.7,0,0,1-1.6-3,18.63,18.63,0,0,0-3.42-4.84,112.32,112.32,0,0,1-2.6,26.24,1.1,1.1,0,0,0,0,.89,1.06,1.06,0,0,0,.33.26,49.21,49.21,0,0,0,18.78,6.18,147.91,147.91,0,0,0,19.86.93c1.48,0,3.22-.13,4-1.4a4.38,4.38,0,0,0,.45-2c.7-10.34,1.4-20.75.17-31a5.78,5.78,0,0,0-.7-2.46c-.49-.75-1.31-1.26-1.69-2.07"/><path class="cls-14" d="M26.59,94.52c.08-.12.55-.19,1.36-.22,6.88-.29,37.58,2.26,37.58,2.26l8.22-10.43L29.32,78.88l-4.77,6.57"/></g><path class="cls-4" d="M65.82,148.93l-2.27-13.6a91.63,91.63,0,0,1,0-15c.68-8.16-.83-17-.3-17.68s-1.67-5.21-.12-6.12a15.19,15.19,0,0,0,2.69-2h44.89l13.6,35.14Z"/><rect class="cls-15" x="63.66" y="143.72" width="3.74" height="1.47"/><rect class="cls-15" x="63.66" y="140.88" width="3.74" height="1.47" transform="translate(134.16 281.77) rotate(178.74)"/><rect class="cls-15" x="61.85" y="103.1" width="3.74" height="1.47" transform="translate(129.71 206.24) rotate(178.74)"/><rect class="cls-15" x="61.79" y="100.38" width="3.74" height="1.47" transform="translate(110.14 211.19) rotate(-170.7)"/><polygon class="cls-4" points="212.28 112.96 212.28 101.11 210.69 94.52 65.82 94.52 65.82 148.93 210.69 148.93 212.77 145.19 214.85 122.86 212.28 112.96"/><g class="cls-16"><path class="cls-17" d="M216.44,123.51a10.68,10.68,0,0,0-7,8.72c-.17,1.5,0,3-.14,4.53-.45,4.85-10.65,14.84-15.43,15.8,6.56,5.15,19.42,4.64,26,9.79q2.69-18.48,6-36.85a18.6,18.6,0,0,1-4-3.64"/><path class="cls-17" d="M212.9,102c.88-1.43,1.87-3,3.44-3.54,2.17,2.46,4.1,10.69,1.54,13.36-2.08,2.16-8.22,1.72-10.92,1.78C207.87,109.51,210.73,105.54,212.9,102Z"/></g><rect class="cls-18" x="89.62" y="117.87" width="4.33" height="9.98" rx="1.85" transform="translate(30.83 -17.87) rotate(13.34)"/><rect class="cls-19" x="89.62" y="117.87" width="4.33" height="9.98" rx="1.85" transform="translate(-51.75 176.85) rotate(-73.85)"/><rect class="cls-18" x="190.84" y="103.13" width="4.33" height="9.98" rx="1.85" transform="matrix(0.97, 0.23, -0.23, 0.97, 30.16, -41.62)"/><rect class="cls-19" x="190.84" y="103.13" width="4.33" height="9.98" rx="1.85" transform="translate(35.46 263.44) rotate(-73.85)"/><polygon class="cls-17" points="65.82 94.52 75.34 109.99 212.28 108.12 178.04 96.93 65.82 94.52"/><polygon class="cls-1" points="65.82 94.52 83.5 112.66 144.72 115.23 234.5 111.29 240.39 109.99 210.69 94.52 142.68 94.52 65.82 94.52"/><g class="cls-20"><path class="cls-21" d="M98,100.62c10.32,9,24.23,12.44,37.56,15.58a76.09,76.09,0,0,0,10.35,2c-2.18-.21-6.2,2.17-8.47,2.72a61.7,61.7,0,0,1-8.77,1.45,54.32,54.32,0,0,1-18.33-1.08C102.24,119.14,98.42,108.15,98,100.62Z"/></g><path class="cls-1" d="M172.65,89.08l25.23-17.5s13.87,2.07,20.71,2.38,28.46,2.47,28.46,2.47L210.69,94.52Z"/><path class="cls-1" d="M42,89.08,12.94,76.43S39.15,92.5,47.08,94.12s18.74.4,18.74.4Z"/><g class="cls-22"><path class="cls-23" d="M94.15,102.57s-10.72.23-10.24-9.66l.77-3.52s-3.52-4.15-.45-7.71,6,2.37,5.56,6.49c0,0,.21,3,.33,3.83s6.34-1.65,7.73,3.79S95,102.6,94.15,102.57Z"/><path class="cls-23" d="M97.09,121.24l1.33,10.18s-2-.19-2.74.78,1.08,2.28,3.49.92c0,0-1,2.26,1.33,2.36s1.23-2.25,1.23-2.25a2.35,2.35,0,0,0,2.83.93c1.68-.78-.52-2.54-2.84-2.69,0,0-.19-6.44,0-9.77s-.45-5.5-2.45-5.76S96.85,119.7,97.09,121.24Z"/><path class="cls-6" d="M110.68,91.91c-4.44-8.93-10.8-8-16.59-3.48-7.4,5.78-12.73,7.13-8.29,16.06s14.2,21.34,20.78,18.07S115.12,100.84,110.68,91.91Z"/><g class="cls-24"><ellipse class="cls-25" cx="110.06" cy="120.48" rx="12.84" ry="8.07" transform="translate(-48.65 158.46) rotate(-61.05)"/><ellipse class="cls-26" cx="84.86" cy="100.52" rx="7.89" ry="14.09" transform="translate(-35.87 48.27) rotate(-26.42)"/></g><path class="cls-6" d="M107.18,112.77c-5.45,15-10.35,27-.24,31.16s18.35-6.52,24.38-21.32c0,0,3.28-15.71-11.34-21.67C120,100.94,112.49,98.13,107.18,112.77Z"/><circle class="cls-6" cx="125.38" cy="134.63" r="11.63" transform="translate(-44.15 63.17) rotate(-24.18)"/><circle class="cls-27" cx="124.35" cy="134.58" r="8.14" transform="translate(-44.22 62.75) rotate(-24.18)"/><path d="M130.8,137.26a6.89,6.89,0,0,1-1.73,2.48,2.15,2.15,0,0,0-1.11-1.07,2.09,2.09,0,0,0-2.72,1.15,2.12,2.12,0,0,0,.07,1.71,7,7,0,1,1,5.49-4.27Z"/><ellipse class="cls-28" cx="118.94" cy="122.52" rx="2.68" ry="1.03" transform="translate(-39.41 186.43) rotate(-67.83)"/><ellipse class="cls-28" cx="121.97" cy="122.66" rx="1.56" ry="0.6" transform="translate(-37.65 189.32) rotate(-67.83)"/><path class="cls-7" d="M106.82,141a10.51,10.51,0,0,1,4.07-9.53s-5.48-2.68-7.59,2.5C101.74,137.73,106.82,141,106.82,141Z"/><g class="cls-29"><ellipse class="cls-30" cx="102.29" cy="129.86" rx="9.13" ry="4.94" transform="translate(-56.58 175.58) rotate(-67.83)"/><ellipse class="cls-27" cx="114.52" cy="135.01" rx="9.13" ry="4.94" transform="translate(-44.68 57.55) rotate(-23.75)"/></g><path class="cls-31" d="M101.58,114.45l3,9.83s-2,.15-2.57,1.22,1.44,2.07,3.59.34c0,0-.64,2.4,1.7,2.1s.84-2.41.84-2.41a2.37,2.37,0,0,0,3,.46c1.53-1-.93-2.43-3.25-2.2,0,0-1.23-6.32-1.6-9.63s-1.34-5.35-3.35-5.29S101.09,113,101.58,114.45Z"/><path class="cls-6" d="M99.81,94.49s-10.53-2-8-11.58l1.49-3.28S90.71,74.84,94.45,72s5.33,3.55,4.09,7.49c0,0-.42,3-.47,3.82s6.54-.29,6.77,5.32S100.61,94.69,99.81,94.49Z"/><ellipse class="cls-28" cx="100.04" cy="92.2" rx="1.04" ry="1.89" transform="translate(-20.9 154.51) rotate(-69.92)"/></g></g></svg>