<svg xmlns="http://www.w3.org/2000/svg" xmlns:xlink="http://www.w3.org/1999/xlink" viewBox="0 0 260 168"><defs><style>.cls-1{fill:#ff790b;}.cls-2{fill:#8ecf00;}.cls-3{fill:#aeaeaf;}.cls-4{fill:#fff;}.cls-5{fill:#457500;}.cls-6{clip-path:url(#clip-path);}.cls-7{fill:#e56200;}.cls-8{fill:#ff9c0d;}.cls-9{fill:#7ece00;}.cls-10{fill:#d3eb0b;}.cls-11{clip-path:url(#clip-path-2);}.cls-12{fill:#75b506;}.cls-13{fill:#b1e523;}.cls-14{fill:#113a00;}.cls-15{clip-path:url(#clip-path-3);}.cls-16{clip-path:url(#clip-path-4);}.cls-17{fill:#a50707;}.cls-18{clip-path:url(#clip-path-5);}.cls-19{fill:#f73434;}.cls-20{fill:#dbd5d7;}.cls-21{fill:#ededed;}.cls-22{fill:#e8254b;}.cls-23{fill:#ff4863;}.cls-24{clip-path:url(#clip-path-6);}.cls-25{fill:#ea395b;}.cls-26{clip-path:url(#clip-path-7);}.cls-27{clip-path:url(#clip-path-8);}.cls-28{clip-path:url(#clip-path-9);}.cls-29{clip-path:url(#clip-path-10);}.cls-30{fill:#009db7;}.cls-31{fill:#03b4dd;}.cls-32{clip-path:url(#clip-path-11);}.cls-33{fill:#00c3ff;}</style><clipPath id="clip-path"><path class="cls-1" d="M93.52,29s-46,2.14-48.42,30.5,15.52,38,15.52,38h83.46s8.07-3.27,10.17-36.11C156.39,27.88,93.52,29,93.52,29Z"/></clipPath><clipPath id="clip-path-2"><path class="cls-2" d="M128.81,134.85c0,15.89-12.88,16.73-28.76,16.73s-28.76-.84-28.76-16.73S84.16,94,100.05,94,128.81,119,128.81,134.85Z"/></clipPath><clipPath id="clip-path-3"><circle class="cls-4" cx="78.2" cy="61.82" r="12.97"/></clipPath><clipPath id="clip-path-4"><circle class="cls-4" cx="121.9" cy="61.82" r="12.97"/></clipPath><clipPath id="clip-path-5"><path class="cls-5" d="M82.42,83.37s16.65,9.65,34.79,0c0,0-3.81,12.09-17.07,12.09S82.42,83.37,82.42,83.37Z"/></clipPath><clipPath id="clip-path-6"><rect class="cls-3" x="79.09" y="48.8" width="4.21" height="98.16" rx="2.1" transform="translate(-35.57 47.5) rotate(-26.98)"/></clipPath><clipPath id="clip-path-7"><path class="cls-2" d="M204.2,139.79c0,11.7-9.49,12.32-21.18,12.32s-21.18-.62-21.18-12.32,9.48-30.06,21.18-30.06S204.2,128.08,204.2,139.79Z"/></clipPath><clipPath id="clip-path-8"><circle class="cls-4" cx="203.55" cy="93.21" r="9.55" transform="translate(-15.32 140.28) rotate(-36.74)"/></clipPath><clipPath id="clip-path-9"><circle class="cls-4" cx="171.8" cy="87.91" r="9.55" transform="translate(-18.46 120.24) rotate(-36.74)"/></clipPath><clipPath id="clip-path-10"><path class="cls-5" d="M172.26,104.07s10.93,9,25.27,4.21c0,0-4.24,8.33-13.87,6.72S172.26,104.07,172.26,104.07Z"/></clipPath><clipPath id="clip-path-11"><rect class="cls-3" x="192.32" y="109.84" width="2.86" height="38.02" rx="1.08" transform="translate(63.91 -64.23) rotate(22.46)"/></clipPath></defs><g id="Layer_4" data-name="Layer 4"><path class="cls-1" d="M93.52,29s-46,2.14-48.42,30.5,15.52,38,15.52,38h83.46s8.07-3.27,10.17-36.11C156.39,27.88,93.52,29,93.52,29Z"/><g class="cls-6"><path class="cls-7" d="M50,62.86c1.06-4.66,2.78-9.39,6.29-12.64a24.57,24.57,0,0,1,5.54-3.67,82.54,82.54,0,0,1,71.63-1.89c7.2,3.31,14.5,8.48,16.16,16.22s-2.91,15.5-8.12,21.51a52.66,52.66,0,0,1-8.6,8.15c-6.88,5-15.3,7.64-23.76,8.73s-17,.75-25.55.41l-15.46-.62a48.46,48.46,0,0,0-7.62,0c-1.63.2-3.28.69-4.94.37-3.3-.64-4.23-3.68-5-6.58a63.15,63.15,0,0,1-.56-30Z"/><path class="cls-8" d="M92.77,30.57c12.9,4.45,25.91,8.92,39.45,10.6a20.15,20.15,0,0,1,6.41,1.45,13.93,13.93,0,0,1,3.8,3c2.52,2.66,4.85,6,8.46,6.62.63-.88,0-2.08-.74-2.89-3.54-4-8.74-6-13.73-7.92-3.88-1.47-8-2.71-11.74-4.52-2.51-1.23-4.42-2.79-7.19-3.48a98.15,98.15,0,0,0-12.41-2c-2.08-.23-4.17-.42-6.27-.55C97.28,30.7,94.09,31.23,92.77,30.57Z"/><path class="cls-8" d="M44.69,82a66,66,0,0,1,.51-17.7,33.68,33.68,0,0,1,7.27-16A52.82,52.82,0,0,0,47.75,78.2a13.06,13.06,0,0,1-8.64-1.13"/></g><path class="cls-9" d="M128.34,126.67s8.65-.82,8.86,8-8.45,10.09-8.45,10.09,9.06-1.65,8,3.09-21.41,3.91-20.79-3.3S116.61,126.67,128.34,126.67Z"/><ellipse class="cls-10" cx="129.43" cy="127.66" rx="0.89" ry="0.32"/><path class="cls-9" d="M70.27,126.67s-8.64-.82-8.85,8,8.44,10.09,8.44,10.09-9.06-1.65-8,3.09,21.41,3.91,20.8-3.3S82,126.67,70.27,126.67Z"/><ellipse class="cls-10" cx="66.77" cy="128.52" rx="1.9" ry="0.82"/><ellipse class="cls-10" cx="69.71" cy="127.75" rx="1.17" ry="0.51"/><path class="cls-2" d="M128.81,134.85c0,15.89-12.88,16.73-28.76,16.73s-28.76-.84-28.76-16.73S84.16,94,100.05,94,128.81,119,128.81,134.85Z"/><g class="cls-11"><ellipse class="cls-12" cx="99.64" cy="98.17" rx="27.49" ry="12.98"/><ellipse class="cls-13" cx="100.05" cy="140.88" rx="17.05" ry="22.44"/></g><path class="cls-1" d="M88.63,106.75s-8.87,2.88-3.55,8.76,14-8.65,14-8.65,7,13.08,15.19,8.54-4.21-9.65-4.21-9.65S93.51,104.2,88.63,106.75Z"/><path class="cls-8" d="M64.69,102.43s4.65,11.53,28.82,4.65Z"/><path class="cls-8" d="M138.57,101s-5,12.33-29.2,5.67Z"/><path class="cls-2" d="M146.17,85.66c0,20.23-20.65,21.37-46.12,21.37s-46.12-1.14-46.12-21.37,20.65-26.92,46.12-26.92S146.17,65.44,146.17,85.66Z"/><circle class="cls-2" cx="78.74" cy="60.28" r="18.53"/><circle class="cls-2" cx="121.36" cy="60.28" r="18.53"/><ellipse class="cls-10" cx="62.81" cy="77.06" rx="4.27" ry="1.65"/><ellipse class="cls-10" cx="137.24" cy="77.06" rx="4.27" ry="1.65"/><ellipse class="cls-10" cx="60.56" cy="73.42" rx="2.49" ry="0.96"/><ellipse class="cls-10" cx="138.85" cy="72.5" rx="2.49" ry="0.96"/><ellipse class="cls-10" cx="99.82" cy="74.33" rx="8.44" ry="1.65"/><path class="cls-14" d="M69.16,53.33s-4.06.3-3.81-3.06c0,0-2.36,5.27,3.25,6.68Z"/><path class="cls-14" d="M68.62,56.52s-4,.71-4.1-2.65c0,0-1.81,5.48,3.91,6.32Z"/><path class="cls-14" d="M131.34,53.33s4.07.3,3.82-3.06c0,0,2.36,5.27-3.25,6.68Z"/><path class="cls-14" d="M131.88,56.52s4,.71,4.1-2.65c0,0,1.82,5.48-3.91,6.32Z"/><circle class="cls-4" cx="78.2" cy="61.82" r="12.97"/><g class="cls-15"><path d="M80,56.27a11,11,0,0,0-4.7,1,3.32,3.32,0,0,1-2.41,5.6,3.3,3.3,0,0,1-2.48-1.13A11.11,11.11,0,1,0,80,56.27Z"/></g><circle class="cls-4" cx="121.9" cy="61.82" r="12.97"/><g class="cls-16"><path d="M122.19,55.83a11.05,11.05,0,0,0-4.71,1.05,3.32,3.32,0,0,1-2.41,5.6,3.3,3.3,0,0,1-2.48-1.13,11.12,11.12,0,1,0,9.6-5.52Z"/></g><path class="cls-17" d="M105.55,87.16a6,6,0,0,0-1.24-.84c-1.77-1.37-4.09-.2-4.54,0-.44-.24-2.76-1.41-4.53,0a5.88,5.88,0,0,0-1.25.84,11.75,11.75,0,0,0,11.56,0Z"/><ellipse class="cls-17" cx="99.69" cy="94.66" rx="4.16" ry="2.14"/><path class="cls-5" d="M82.42,83.37s16.65,9.65,34.79,0c0,0-3.81,12.09-17.07,12.09S82.42,83.37,82.42,83.37Z"/><g class="cls-18"><ellipse class="cls-19" cx="99.47" cy="99.11" rx="14.55" ry="7.87"/><ellipse class="cls-4" cx="99.47" cy="80.83" rx="14.55" ry="7.87"/></g><path class="cls-20" d="M102.49,146.16a15.07,15.07,0,0,0,2.46,6.6c.61,1,1.25,2,1.86,2.93.44.71,1.28,1.9.87,2.78a1.23,1.23,0,0,0,.43,1.65,1.21,1.21,0,0,0,1.64-.43c1.2-2.57-.69-5-2-7s-2.62-4.09-2.82-6.49a1.24,1.24,0,0,0-1.21-1.2,1.22,1.22,0,0,0-1.2,1.2Z"/><path class="cls-20" d="M104.61,146.4c2.38,4.34,5,8.86,9.38,11.45a1.21,1.21,0,0,0,1.64-1.64,3.68,3.68,0,0,0-.92-1.15,1.23,1.23,0,0,0-1.7,0,1.2,1.2,0,0,0,0,1.7,2.07,2.07,0,0,1,.55.66l1.64-1.64c-4-2.37-6.34-6.63-8.51-10.59-.75-1.36-2.82-.15-2.08,1.21Z"/><path class="cls-20" d="M107.12,146.89a16.31,16.31,0,0,1,5.95,5.6,9.78,9.78,0,0,0,3.06,3.3c1.2.69,3.8,1.22,3.85-.9a1.21,1.21,0,0,0-2.41,0V155l.16-.6,0,.09.43-.43s.13,0,.1,0a3,3,0,0,0-.35-.09,2.69,2.69,0,0,1-.66-.32,4.88,4.88,0,0,1-1.15-1.07c-.8-1-1.4-2.1-2.18-3.09a17.63,17.63,0,0,0-5.54-4.65c-1.36-.73-2.58,1.34-1.21,2.08Z"/><path class="cls-20" d="M108.48,144.92c2.73,2.24,5.43,4.52,8.19,6.71a6.9,6.9,0,0,0,4.15,1.9,1.83,1.83,0,0,0,1.86-1.33,1.57,1.57,0,0,0-1.48-1.91,1.21,1.21,0,0,0-1.2,1.2,1.22,1.22,0,0,0,1.2,1.2l.11,0-.6-.17.09.06-.43-.43c.7-.73.8-1.08.28-1l-.25-.06a2.69,2.69,0,0,1-.62-.22,7.22,7.22,0,0,1-1.34-.85c-.87-.67-1.7-1.4-2.55-2.09l-5.71-4.68a1.24,1.24,0,0,0-1.7,0,1.22,1.22,0,0,0,0,1.7Z"/><path class="cls-20" d="M107.16,141.73l9.92,5.79a13.46,13.46,0,0,0,4.48,2,8,8,0,0,0,4.75-.73c1.39-.67.17-2.75-1.22-2.08-3,1.41-5.53-.52-8-2l-8.71-5.08a1.2,1.2,0,0,0-1.21,2.08Z"/><path class="cls-20" d="M97.16,147.28c-.29,2.93,1,5.74.74,8.65-.19,2.64-2,4.83-3.78,6.63a1.21,1.21,0,0,0,1.71,1.7c2-2,3.94-4.5,4.37-7.43.48-3.23-1-6.33-.63-9.55a1.21,1.21,0,0,0-1.21-1.2,1.23,1.23,0,0,0-1.2,1.2Z"/><path class="cls-21" d="M100.17,145.93c-1.57,2.72-.59,5.72.45,8.43.74,1.94,1.93,5.31-.37,6.75-1.3.82-.1,2.9,1.22,2.08,2.49-1.57,2.88-4.72,2.18-7.36s-3-6-1.4-8.68a1.21,1.21,0,0,0-2.08-1.22Z"/><path class="cls-21" d="M102.22,145.79a15.9,15.9,0,0,0,.54,8c.78,2.25,2.62,4.74,2.08,7.23l2.2-.28-.34-.51c-.87-1.27-3-.06-2.08,1.22l.35.5a1.21,1.21,0,0,0,2.19-.29c.6-2.73-.67-5.09-1.7-7.54a13.53,13.53,0,0,1-.92-7.64,1.24,1.24,0,0,0-.84-1.48,1.21,1.21,0,0,0-1.48.84Z"/><path class="cls-20" d="M101.57,145.48a7.24,7.24,0,0,0-.82,5.05,8.11,8.11,0,0,0,2.2,3.89c.94,1,2,1.81,3,2.72.84.76,2,1.78,2.26,3l.12-.93,0,.12,1.35-.56h-.07l.72.56,0-.07-.19,1.45,0,0c1.17-1-.54-2.71-1.7-1.7l0,0a1.22,1.22,0,0,0-.19,1.46,1.16,1.16,0,0,0,.83.63,1.23,1.23,0,0,0,1.35-.55c.63-1.38-.7-3-1.59-4a33.59,33.59,0,0,0-2.93-2.67,9.51,9.51,0,0,1-2.43-2.85,4.71,4.71,0,0,1,.22-4.32,1.2,1.2,0,0,0-2.07-1.21Z"/><path class="cls-21" d="M103.14,145.86c.25,3,1.88,5.52,3.81,7.76s4,4.06,5.06,6.68l1.48-1.48c-.16,0,0,.12-.1-.15-.31-1.52-2.63-.88-2.32.64a2.42,2.42,0,0,0,1.78,1.83c.81.22,1.84-.6,1.48-1.48-1.08-2.67-3-4.75-4.9-6.86-1.76-2-3.66-4.21-3.88-6.94-.13-1.53-2.54-1.55-2.41,0Z"/><path class="cls-21" d="M104.64,145.15c1,2.17,3,3.82,4.44,5.67a42.17,42.17,0,0,1,4,6.06c.75,1.36,2.83.15,2.08-1.21a45.41,45.41,0,0,0-4.14-6.22c-.73-.93-1.5-1.82-2.29-2.7a11.71,11.71,0,0,1-2-2.81,1.22,1.22,0,0,0-1.64-.44,1.24,1.24,0,0,0-.44,1.65Z"/><path class="cls-21" d="M106,145.39c3.18.84,5.54,3.23,7.88,5.41a19.61,19.61,0,0,0,3.8,3.13c1.67.88,3.87.47,5.61,0a1.2,1.2,0,0,0-.64-2.32A11.09,11.09,0,0,1,120,152a2.91,2.91,0,0,1-2-.8c-1.23-1-2.37-2.1-3.52-3.17-2.29-2.12-4.74-4.16-7.82-5a1.2,1.2,0,0,0-.64,2.32Z"/><path class="cls-21" d="M108.18,143.1c3.06,2,6.06,4.17,9.24,6a11.52,11.52,0,0,0,4.62,1.56,15.75,15.75,0,0,0,5.28-.68,1.2,1.2,0,0,0-.64-2.32,12.81,12.81,0,0,1-4.64.59,10.32,10.32,0,0,1-4.22-1.71c-2.85-1.76-5.62-3.65-8.42-5.48-1.3-.84-2.51,1.24-1.22,2.08Z"/><path class="cls-21" d="M110.25,142.76c1.73-.19,3.17.63,4.6,1.51a16.2,16.2,0,0,0,4.43,2.09,12.48,12.48,0,0,0,9-1.17c1.36-.74.15-2.82-1.21-2.07a10,10,0,0,1-8.27.58c-2.94-1.1-5.2-3.72-8.59-3.35a1.25,1.25,0,0,0-1.2,1.21,1.2,1.2,0,0,0,1.2,1.2Z"/><path class="cls-22" d="M109.33,137.11c-2.08-.78-13,6.68-13,6.68a5.81,5.81,0,0,0,.74,3.92c.71,1.4,4.67.81,8.84-1.32s7-5,6.28-6.38A5.27,5.27,0,0,0,109.33,137.11Z"/><ellipse class="cls-23" cx="103.12" cy="140.95" rx="7.55" ry="2.52" transform="translate(-52.73 62.13) rotate(-26.98)"/><rect class="cls-3" x="79.09" y="48.8" width="4.21" height="98.16" rx="2.1" transform="translate(-35.57 47.5) rotate(-26.98)"/><g class="cls-24"><rect class="cls-21" x="79.69" y="43.43" width="1.12" height="109" transform="translate(-35.7 47.08) rotate(-26.98)"/><path class="cls-25" d="M96.51,136.24a8.35,8.35,0,0,0,7-3.57l5.86,11.5-8.93,2-4-10.34"/><rect class="cls-25" x="58.81" y="47.1" width="7.71" height="29.17" rx="3.86" transform="translate(-21.16 35.15) rotate(-26.98)"/></g><path class="cls-2" d="M85.34,128.05l6.72-14.91s2.57,1.93,4.37,1.22,1.36-4-3-4.16c0,0,2.36-2.2-.75-4.3s-3.54,2-3.54,2S89,104.63,86,104.28s-1.43,3.88,1.59,6c0,0-5.13,8.88-8.15,13.24s-4,7.84-1.52,9.87S84.38,130.34,85.34,128.05Z"/><path class="cls-2" d="M114.06,136.06,98,133s.11,3.21-1.49,4.28-3.52-1.92-1.16-5.63c0,0-3.68,1.43-3.62-2.32s3.68-1.75,3.68-1.75-2.62-2-1.23-4.59,4,1,4,4.76c0,0,10.23.88,15.54.89s8.71,1.21,9,4.4S116.48,136.58,114.06,136.06Z"/><circle class="cls-2" cx="77.44" cy="132.3" r="5.56"/><circle class="cls-2" cx="122.37" cy="132.01" r="5.56"/><path class="cls-9" d="M203.85,133.76s6.37-.61,6.52,5.91-6.21,7.43-6.21,7.43,6.67-1.21,5.91,2.28-15.77,2.88-15.31-2.43S195.21,133.76,203.85,133.76Z"/><ellipse class="cls-10" cx="204.65" cy="134.49" rx="0.65" ry="0.24"/><path class="cls-9" d="M161.09,133.76s-6.37-.61-6.52,5.91,6.22,7.43,6.22,7.43-6.68-1.21-5.92,2.28,15.77,2.88,15.32-2.43S169.73,133.76,161.09,133.76Z"/><ellipse class="cls-10" cx="158.51" cy="135.13" rx="1.4" ry="0.61"/><ellipse class="cls-10" cx="160.67" cy="134.56" rx="0.86" ry="0.37"/><path class="cls-2" d="M204.2,139.79c0,11.7-9.49,12.32-21.18,12.32s-21.18-.62-21.18-12.32,9.48-30.06,21.18-30.06S204.2,128.08,204.2,139.79Z"/><g class="cls-26"><ellipse class="cls-12" cx="183.81" cy="112.78" rx="9.56" ry="20.24" transform="translate(48.78 280.91) rotate(-82.76)"/><ellipse class="cls-13" cx="183.02" cy="144.22" rx="12.56" ry="16.53"/></g><path class="cls-2" d="M218.74,110.73c-2.11,12.63-17.22,10.84-35.72,7.76s-33.38-6.3-31.28-18.94,17.81-14.32,36.31-11.24S220.85,98.09,218.74,110.73Z"/><circle class="cls-2" cx="172.38" cy="86.85" r="13.65" transform="translate(-17.71 120.37) rotate(-36.74)"/><circle class="cls-2" cx="203.34" cy="92.02" r="13.65" transform="translate(-14.65 139.92) rotate(-36.74)"/><circle class="cls-4" cx="203.55" cy="93.21" r="9.55" transform="translate(-15.32 140.28) rotate(-36.74)"/><g class="cls-27"><path d="M204.24,87.93a8.27,8.27,0,0,0-3.55.2,2.44,2.44,0,1,1-4.1,2.65,8.18,8.18,0,1,0,7.65-2.85Z"/></g><circle class="cls-4" cx="171.8" cy="87.91" r="9.55" transform="translate(-18.46 120.24) rotate(-36.74)"/><g class="cls-28"><path d="M172.71,83.29a8.29,8.29,0,0,0-3.55.2,2.42,2.42,0,0,1,.39,1.77,2.43,2.43,0,0,1-4.48.88,8.18,8.18,0,1,0,7.64-2.85Z"/></g><ellipse class="cls-10" cx="158.78" cy="97.11" rx="1.21" ry="3.15" transform="translate(36.86 237.75) rotate(-80.53)"/><ellipse class="cls-10" cx="212.84" cy="106.13" rx="1.21" ry="3.15" transform="translate(73.13 298.61) rotate(-80.53)"/><ellipse class="cls-10" cx="157.59" cy="94.2" rx="0.71" ry="1.83" transform="translate(38.74 234.14) rotate(-80.53)"/><ellipse class="cls-10" cx="214.57" cy="103.01" rx="0.71" ry="1.83" transform="translate(77.65 297.7) rotate(-80.53)"/><path class="cls-5" d="M172.26,104.07s10.93,9,25.27,4.21c0,0-4.24,8.33-13.87,6.72S172.26,104.07,172.26,104.07Z"/><g class="cls-29"><ellipse class="cls-19" cx="182.73" cy="117.57" rx="5.8" ry="10.72" transform="translate(36.69 278.47) rotate(-80.53)"/><ellipse class="cls-4" cx="184.95" cy="104.3" rx="5.8" ry="10.72" transform="matrix(0.16, -0.99, 0.99, 0.16, 51.64, 269.56)"/></g><ellipse class="cls-10" cx="185.99" cy="99.61" rx="1.21" ry="6.22" transform="translate(57.13 266.68) rotate(-80.53)"/><path class="cls-20" d="M183.66,148a10.39,10.39,0,0,0-2.36,4.41c-.24.77-.45,1.55-.71,2.31-.18.52-.44,1.22-1,1.38a.82.82,0,0,0,.44,1.58c1.77-.48,2.19-2.56,2.64-4.08a10.21,10.21,0,0,1,2.18-4.45.82.82,0,0,0-1.16-1.15Z"/><path class="cls-20" d="M184.5,149.19c-1.2,3.18-2.33,6.49-1.74,9.93a.82.82,0,0,0,.79.6.85.85,0,0,0,.79-.6,2.42,2.42,0,0,0,.17-1,.82.82,0,0,0-1.63,0,1.42,1.42,0,0,1-.12.57h1.58c-.54-3.11.66-6.21,1.74-9.07a.81.81,0,0,0-.57-1,.83.83,0,0,0-1,.57Z"/><path class="cls-20" d="M185.39,150.72a10.54,10.54,0,0,1,.21,3,15.52,15.52,0,0,1-.64,3,5.33,5.33,0,0,0-.12,2.8c.21.77,1,2.07,2,1.37a.84.84,0,0,0,.29-1.12.82.82,0,0,0-1.12-.29l-.07.05.41-.11c.28.16.34.15.2,0a.85.85,0,0,1-.09-.22c0-.12-.06-.25-.08-.37a3.28,3.28,0,0,1,.05-1c.15-.81.45-1.58.61-2.39a12.34,12.34,0,0,0,0-5.1c-.22-1-1.8-.6-1.58.43Z"/><path class="cls-20" d="M187,150.55c.06,2.42.06,4.85.16,7.27a4.53,4.53,0,0,0,.87,2.86,1.24,1.24,0,0,0,1.52.36,1.1,1.1,0,0,0,.4-1.49c-.52-.92-1.93-.09-1.42.83l0,.09-.11-.41v.1l.11-.41h0l.37-.21-.11,0h.43c-.14,0-.28-.59-.32-.72a5.18,5.18,0,0,1-.12-.88c0-.79,0-1.58,0-2.37l-.11-5a.82.82,0,0,0-1.64,0Z"/><path class="cls-20" d="M188.08,148.46l1.39,7.67a8.73,8.73,0,0,0,1,3.25,5.24,5.24,0,0,0,2.28,2c.95.42,1.78-1,.82-1.42a3.67,3.67,0,0,1-1.87-1.69,11.34,11.34,0,0,1-.78-3.26L189.66,148c-.19-1-1.77-.59-1.58.44Z"/><path class="cls-20" d="M180.89,145.59c-1.57,1.08-2.49,2.74-3.89,4s-3.61,1.44-5.54,1.29c-1.05-.08-1,1.56,0,1.64a9,9,0,0,0,6.23-1.38c1.53-1.18,2.43-3,4-4.12.86-.59,0-2-.82-1.41Z"/><path class="cls-21" d="M182.72,146.65c-2,.35-3.11,2.14-4,3.76-.72,1.33-1.92,3.56-3.79,3-1-.32-1.44,1.26-.44,1.57,2.18.69,4.06-1,5.09-2.73.89-1.48,1.63-3.65,3.57-4a.82.82,0,0,0-.44-1.58Z"/><path class="cls-21" d="M183.71,147.66a10.76,10.76,0,0,0-4,4.15c-.73,1.36-1.21,3.16-2.67,3.93l1.21.92.1-.4a.82.82,0,0,0-1.58-.43l-.1.4a.83.83,0,0,0,1.2.92c1.61-.84,2.28-2.56,3-4.1a9.33,9.33,0,0,1,3.65-4,.82.82,0,0,0-.83-1.42Z"/><path class="cls-20" d="M183.58,147.17a4.89,4.89,0,0,0-3.86,4.1,19.29,19.29,0,0,0-.15,3,4.9,4.9,0,0,1-.55,2.8l.48-.38-.08,0,.93.38,0,0,.08.63,0-.05-1,.57h0a.85.85,0,0,0,1-.58.82.82,0,0,0-.57-1h0a.86.86,0,0,0-.92,1.3.84.84,0,0,0,.93.37c1-.28,1.17-1.8,1.27-2.65s.06-2,.09-3a4.89,4.89,0,0,1,.64-2.57,3.24,3.24,0,0,1,2.15-1.37.82.82,0,0,0,.57-1,.83.83,0,0,0-1-.57Z"/><path class="cls-21" d="M184.1,148.18a9,9,0,0,0-2.24,5.09c-.31,2-.35,4.08-1.28,5.89H182c0,.06.12-.13.1-.1a.82.82,0,0,0-.29-1.12.83.83,0,0,0-1.12.29,1.65,1.65,0,0,0-.1,1.75.82.82,0,0,0,1.41,0,17.23,17.23,0,0,0,1.38-5.77,8.18,8.18,0,0,1,1.89-4.87c.74-.75-.42-1.91-1.16-1.16Z"/><path class="cls-21" d="M185.25,148.46a20.48,20.48,0,0,0-1,4.81,31.26,31.26,0,0,1-1.4,4.94.83.83,0,0,0,.57,1,.84.84,0,0,0,1-.57,30.51,30.51,0,0,0,1.36-4.77c.16-.82.27-1.64.38-2.46a7.85,7.85,0,0,1,.5-2.14.84.84,0,0,0-.29-1.12.83.83,0,0,0-1.12.3Z"/><path class="cls-21" d="M185.67,149.45c1,2.12.72,4.57.64,6.84a8.19,8.19,0,0,0,.25,3.42,6.23,6.23,0,0,0,2.36,2.42c.87.59,1.69-.82.82-1.42a3.33,3.33,0,0,1-1.8-2.36c-.07-1.12,0-2.25.06-3.37a13.26,13.26,0,0,0-.91-6.36c-.46-1-1.87-.12-1.42.83Z"/><path class="cls-21" d="M187.79,149.38c.34,2.56.54,5.2,1.06,7.73a7.48,7.48,0,0,0,1.33,3.07,11.59,11.59,0,0,0,2.6,2.29c.87.6,1.69-.81.83-1.41a8.76,8.76,0,0,1-2.26-2,6.75,6.75,0,0,1-1-2.78c-.4-2.27-.62-4.59-.92-6.87a.84.84,0,0,0-.82-.82.82.82,0,0,0-.82.82Z"/><path class="cls-21" d="M188.94,150.49a4.84,4.84,0,0,1,1.21,3,10.81,10.81,0,0,0,1,3.39,8.45,8.45,0,0,0,4.57,4,.83.83,0,0,0,1-.58.82.82,0,0,0-.57-1,6.74,6.74,0,0,1-3.81-3.74c-.84-2.08-.42-4.58-2.21-6.23-.78-.71-1.94.44-1.16,1.16Z"/><path class="cls-30" d="M191.41,147.46c-.52-1.42-9.21-3.77-9.21-3.77a3.94,3.94,0,0,0-1.71,2.12c-.4,1,1.66,2.77,4.6,4s5.67,1.41,6.07.43A3.58,3.58,0,0,0,191.41,147.46Z"/><ellipse class="cls-31" cx="186.68" cy="145.95" rx="1.72" ry="5.14" transform="translate(-19.51 262.73) rotate(-67.54)"/><rect class="cls-3" x="192.32" y="109.84" width="2.86" height="38.02" rx="1.08" transform="translate(63.91 -64.23) rotate(22.46)"/><g class="cls-32"><rect class="cls-21" x="198.41" y="78.02" width="0.76" height="74.17" transform="translate(59.04 -67.21) rotate(22.46)"/><path class="cls-33" d="M186.19,140.45a5.66,5.66,0,0,0,4.93,2l-3.35,8.11-5-3.72,3.57-6.64"/><rect class="cls-33" x="197.33" y="103.76" width="5.25" height="19.85" rx="2.62" transform="translate(58.58 -67.75) rotate(22.46)"/></g><path class="cls-2" d="M174,138.53l11.27,4.22s-1.29,2-.69,3.27,2.95.14,2.88-3.1c0,0,1.77,2.3,3.16-.09s-1.64-2.5-1.64-2.5,2.4-.25,2.52-2.42-2.92-.87-4.36,1.46c0,0-6.77-3.35-10.12-5.37s-5.95-2.55-7.32-.64S172.25,137.93,174,138.53Z"/><path class="cls-2" d="M196.09,136.13l-3.16-11.62s-2.09,1.1-3.32.38-.66-3.47,2.56-3.09c0,0-1.33-1.46,1.18-2.63s2.64,1.14,2.64,1.14.17-1.63,2.35-1.55.59,3-1.86,4.2c0,0,2.7,7.06,4.39,10.58s2,6.17,0,7.35S196.52,137.91,196.09,136.13Z"/></g></svg>