<svg xmlns="http://www.w3.org/2000/svg" xmlns:xlink="http://www.w3.org/1999/xlink" viewBox="0 0 260 168"><defs><style>.cls-1{fill:#8ecf00;}.cls-2{fill:#ff790b;}.cls-3{fill:#aeaeaf;}.cls-4{fill:#fff;}.cls-5{fill:#457500;}.cls-6{fill:#7ece00;}.cls-7{fill:#d3eb0b;}.cls-8{clip-path:url(#clip-path);}.cls-9{fill:#75b506;}.cls-10{fill:#b1e523;}.cls-11{clip-path:url(#clip-path-2);}.cls-12{fill:#e56200;}.cls-13{fill:#ff9c0d;}.cls-14{fill:#113a00;}.cls-15{clip-path:url(#clip-path-3);}.cls-16{clip-path:url(#clip-path-4);}.cls-17{fill:#a50707;}.cls-18{clip-path:url(#clip-path-5);}.cls-19{fill:#f73434;}.cls-20{fill:#dbd5d7;}.cls-21{fill:#ededed;}.cls-22{fill:#e8254b;}.cls-23{fill:#ff4863;}.cls-24{clip-path:url(#clip-path-6);}.cls-25{fill:#ea395b;}.cls-26{clip-path:url(#clip-path-7);}.cls-27{clip-path:url(#clip-path-8);}.cls-28{clip-path:url(#clip-path-9);}.cls-29{clip-path:url(#clip-path-10);}.cls-30{fill:#009db7;}.cls-31{fill:#03b4dd;}.cls-32{clip-path:url(#clip-path-11);}.cls-33{fill:#00c3ff;}</style><clipPath id="clip-path"><path class="cls-1" d="M128.81,134.85c0,15.89-12.88,16.73-28.76,16.73s-28.76-.84-28.76-16.73S84.16,94,100.05,94,128.81,119,128.81,134.85Z"/></clipPath><clipPath id="clip-path-2"><path class="cls-2" d="M88.13,29.63S42.38,35,42,63.43,60.1,100.24,60.1,100.24l83.25-5.83s7.82-3.84,7.62-36.74C150.77,24.16,88.13,29.63,88.13,29.63Z"/></clipPath><clipPath id="clip-path-3"><circle class="cls-4" cx="75.14" cy="63.49" r="12.97"/></clipPath><clipPath id="clip-path-4"><circle class="cls-4" cx="118.74" cy="60.43" r="12.97"/></clipPath><clipPath id="clip-path-5"><path class="cls-5" d="M80.86,84.68s17.29,8.47,34.71-2.43c0,0-3,12.33-16.19,13.26S80.86,84.68,80.86,84.68Z"/></clipPath><clipPath id="clip-path-6"><rect class="cls-3" x="75.58" y="50.33" width="4.21" height="98.16" rx="2.1" transform="translate(-30.35 34.25) rotate(-20.9)"/></clipPath><clipPath id="clip-path-7"><path class="cls-1" d="M204.2,139.79c0,11.7-9.49,12.32-21.18,12.32s-21.18-.62-21.18-12.32,9.48-30.06,21.18-30.06S204.2,128.08,204.2,139.79Z"/></clipPath><clipPath id="clip-path-8"><circle class="cls-4" cx="198.94" cy="90.08" r="9.55" transform="translate(18.04 212.41) rotate(-58.43)"/></clipPath><clipPath id="clip-path-9"><circle class="cls-4" cx="166.76" cy="90.27" r="9.55" transform="translate(2.54 185.08) rotate(-58.43)"/></clipPath><clipPath id="clip-path-10"><path class="cls-5" d="M170,106.11s12.31,7,25.62-.15c0,0-2.76,8.92-12.52,9S170,106.11,170,106.11Z"/></clipPath><clipPath id="clip-path-11"><rect class="cls-3" x="193.35" y="110.16" width="2.86" height="38.02" rx="1.08" transform="translate(51.84 -55.74) rotate(18.74)"/></clipPath></defs><g id="Layer_6" data-name="Layer 6"><path class="cls-6" d="M128.34,126.67s8.65-.82,8.86,8-8.45,10.09-8.45,10.09,9.06-1.65,8,3.09-21.41,3.91-20.79-3.3S116.61,126.67,128.34,126.67Z"/><ellipse class="cls-7" cx="129.43" cy="127.66" rx="0.89" ry="0.32"/><path class="cls-6" d="M70.27,126.67s-8.64-.82-8.85,8,8.44,10.09,8.44,10.09-9.06-1.65-8,3.09,21.41,3.91,20.8-3.3S82,126.67,70.27,126.67Z"/><ellipse class="cls-7" cx="66.77" cy="128.52" rx="1.9" ry="0.82"/><ellipse class="cls-7" cx="69.71" cy="127.75" rx="1.17" ry="0.51"/><path class="cls-1" d="M128.81,134.85c0,15.89-12.88,16.73-28.76,16.73s-28.76-.84-28.76-16.73S84.16,94,100.05,94,128.81,119,128.81,134.85Z"/><g class="cls-8"><ellipse class="cls-9" cx="99.64" cy="98.17" rx="27.49" ry="12.98"/><ellipse class="cls-10" cx="100.05" cy="140.88" rx="17.05" ry="22.44"/></g><path class="cls-2" d="M88.13,29.63S42.38,35,42,63.43,60.1,100.24,60.1,100.24l83.25-5.83s7.82-3.84,7.62-36.74C150.77,24.16,88.13,29.63,88.13,29.63Z"/><g class="cls-11"><path class="cls-12" d="M47.11,66.49c.73-4.72,2.12-9.56,5.38-13a25.4,25.4,0,0,1,5.27-4,82.57,82.57,0,0,1,71.33-6.89c7.41,2.8,15,7.44,17.25,15.06s-1.82,15.65-6.59,22a53.16,53.16,0,0,1-8,8.74C125.23,93.82,117,97,108.64,98.68s-16.93,1.94-25.46,2.19l-15.46.47a48.12,48.12,0,0,0-7.59.56c-1.62.31-3.23.92-4.9.72-3.34-.41-4.49-3.38-5.46-6.22a63,63,0,0,1-2.66-29.91Z"/><path class="cls-13" d="M87.49,31.29c13.18,3.54,26.48,7.09,40.1,7.82a19.93,19.93,0,0,1,6.49,1,13.44,13.44,0,0,1,4,2.68c2.7,2.47,5.26,5.69,8.91,6,.56-.92-.17-2.08-.94-2.83-3.82-3.74-9.14-5.4-14.26-6.94-4-1.2-8.17-2.15-12-3.7-2.59-1-4.61-2.47-7.42-3a99.09,99.09,0,0,0-12.52-1.16q-3.15-.13-6.29-.11C92,31.11,88.86,31.86,87.49,31.29Z"/><path class="cls-13" d="M43.13,86a66.08,66.08,0,0,1-.73-17.7,33.75,33.75,0,0,1,6.13-16.45A52.81,52.81,0,0,0,45.92,82a13,13,0,0,1-8.7-.53"/></g><path class="cls-2" d="M88.69,107.58s-8.64,3.49-2.93,9S99.09,107,99.09,107s7.89,12.56,15.75,7.45-4.88-9.32-4.88-9.32S93.38,104.69,88.69,107.58Z"/><path class="cls-13" d="M64.5,104.94s5.45,11.17,29.08,2.63Z"/><path class="cls-13" d="M138.11,98.33S134,111,109.38,106Z"/><path class="cls-1" d="M144.61,82.52c1.42,20.18-19.1,22.75-44.51,24.53S54,109.14,52.6,89,71.31,60.66,96.72,58.88,143.2,62.34,144.61,82.52Z"/><circle class="cls-1" cx="75.57" cy="61.91" r="18.53"/><circle class="cls-1" cx="118.09" cy="58.93" r="18.53"/><ellipse class="cls-7" cx="60.86" cy="79.76" rx="4.27" ry="1.65" transform="translate(-5.43 4.45) rotate(-4.01)"/><ellipse class="cls-7" cx="135.1" cy="74.56" rx="4.27" ry="1.65" transform="translate(-4.88 9.63) rotate(-4.01)"/><ellipse class="cls-7" cx="58.36" cy="76.29" rx="2.49" ry="0.96" transform="translate(-5.19 4.27) rotate(-4.01)"/><ellipse class="cls-7" cx="136.39" cy="69.89" rx="2.49" ry="0.96" transform="translate(-4.55 9.71) rotate(-4.01)"/><ellipse class="cls-7" cx="97.58" cy="74.45" rx="8.44" ry="1.65" transform="translate(-4.97 7) rotate(-4.01)"/><path class="cls-14" d="M65.53,55.64s-4,.59-4-2.77c0,0-2,5.41,3.7,6.43Z"/><path class="cls-14" d="M65.22,58.87s-3.95,1-4.28-2.36c0,0-1.42,5.59,4.34,6Z"/><path class="cls-14" d="M127.56,51.3s4.08,0,3.59-3.32c0,0,2.72,5.09-2.77,6.89Z"/><path class="cls-14" d="M128.32,54.44s4.06.44,3.91-2.92c0,0,2.19,5.33-3.46,6.57Z"/><circle class="cls-4" cx="75.14" cy="63.49" r="12.97"/><g class="cls-15"><path d="M76.51,57.82a11.08,11.08,0,0,0-4.63,1.39A3.24,3.24,0,0,1,73,61.41,3.32,3.32,0,0,1,69.87,65a3.27,3.27,0,0,1-2.55-1,11.11,11.11,0,1,0,9.19-6.18Z"/></g><circle class="cls-4" cx="118.74" cy="60.43" r="12.97"/><g class="cls-16"><path d="M118.61,54.43A11.11,11.11,0,0,0,114,55.81,3.29,3.29,0,0,1,115.05,58,3.32,3.32,0,0,1,112,61.57a3.27,3.27,0,0,1-2.55-1,11.11,11.11,0,1,0,9.19-6.18Z"/></g><path class="cls-17" d="M104.2,86.85a6.15,6.15,0,0,0-1.3-.75c-1.86-1.25-4.1.08-4.52.36-.46-.22-2.86-1.22-4.53.28a6.25,6.25,0,0,0-1.18.91,9.82,9.82,0,0,0,5.87,1.12A9.89,9.89,0,0,0,104.2,86.85Z"/><ellipse class="cls-17" cx="98.88" cy="94.74" rx="4.16" ry="2.14" transform="translate(-6.38 7.14) rotate(-4.01)"/><path class="cls-5" d="M80.86,84.68s17.29,8.47,34.71-2.43c0,0-3,12.33-16.19,13.26S80.86,84.68,80.86,84.68Z"/><g class="cls-18"><ellipse class="cls-19" cx="98.97" cy="99.2" rx="14.55" ry="7.87" transform="translate(-6.69 7.16) rotate(-4.01)"/><ellipse class="cls-4" cx="97.69" cy="80.97" rx="14.55" ry="7.87" transform="translate(-5.42 7.03) rotate(-4.01)"/></g><path class="cls-20" d="M93.74,149.8a15.33,15.33,0,0,0,1.85,6.9c.5,1,1,2.07,1.54,3.11.38.81.91,1.91.4,2.76a1.2,1.2,0,0,0,2.07,1.22c1.4-2.32-.26-5-1.32-7.06s-2.19-4.43-2.14-6.93a1.2,1.2,0,0,0-2.4,0Z"/><path class="cls-20" d="M95.77,150c2,4.7,4.07,9.49,8.28,12.62a1.21,1.21,0,0,0,1.76-1.36,4.44,4.44,0,0,0-1-1.51c-1.08-1.11-2.78.59-1.7,1.7a1.58,1.58,0,0,1,.33.45l1.77-1.35c-3.63-2.7-5.49-7.15-7.18-11.19a1.23,1.23,0,0,0-1.47-.84,1.2,1.2,0,0,0-.84,1.48Z"/><path class="cls-20" d="M98.38,151a16.48,16.48,0,0,1,5.29,6.27,9.35,9.35,0,0,0,2.72,3.53,4.1,4.1,0,0,0,2,.81,1.58,1.58,0,0,0,1.79-1.49,1.2,1.2,0,0,0-1.2-1.2,1.22,1.22,0,0,0-1.2,1.2v.1l.16-.61,0,.08.44-.43.24,0s-.33-.1-.31-.09a3.09,3.09,0,0,1-.67-.41,4.41,4.41,0,0,1-.9-1c-.74-1.08-1.23-2.31-1.92-3.42a18.09,18.09,0,0,0-5.2-5.4A1.2,1.2,0,0,0,98.38,151Z"/><path class="cls-20" d="M99.92,149.17c2.46,2.5,4.89,5,7.39,7.51a6.75,6.75,0,0,0,4,2.27,1.76,1.76,0,0,0,1.9-1.17,1.56,1.56,0,0,0-1.08-2,1.24,1.24,0,0,0-1.48.84,1.21,1.21,0,0,0,.84,1.48l-.12-.05-.43-.43a1,1,0,0,1,0-.65l.44-.43c.1-.08.16,0-.14-.06a2,2,0,0,1-.53-.21,5.74,5.74,0,0,1-1.14-.81c-.89-.8-1.7-1.7-2.55-2.55l-5.37-5.46a1.2,1.2,0,0,0-1.7,1.7Z"/><path class="cls-20" d="M99,145.83l8.89,6.54a15.81,15.81,0,0,0,4.2,2.57,7.57,7.57,0,0,0,4.93-.08c1.44-.51.82-2.84-.64-2.32a5.37,5.37,0,0,1-4.18-.14,25.83,25.83,0,0,1-3.9-2.7l-8.08-5.94c-1.25-.92-2.45,1.16-1.22,2.07Z"/><path class="cls-20" d="M88.36,150a17.17,17.17,0,0,0-.2,4.53,16.5,16.5,0,0,1,0,4.44c-.55,2.62-2.53,4.56-4.53,6.18a1.2,1.2,0,1,0,1.7,1.7c2.19-1.77,4.25-3.95,5-6.72.87-3.13-.29-6.35.36-9.49.32-1.51-2-2.15-2.32-.64Z"/><path class="cls-21" d="M91.39,149.31c-1.8,2.46-1.11,5.6-.39,8.31.57,2.14,1.35,5.51-1.18,6.74-1.39.68-.17,2.76,1.22,2.08,2.71-1.32,3.23-4.6,2.78-7.29s-2.23-6.06-.35-8.63a1.22,1.22,0,0,0-.43-1.64,1.24,1.24,0,0,0-1.65.43Z"/><path class="cls-21" d="M93.47,149.4a15.85,15.85,0,0,0-.2,8.09c.56,2.34,2,4.84,1.2,7.29l2.2-.29-.29-.54c-.73-1.36-2.81-.15-2.07,1.22l.29.53a1.21,1.21,0,0,0,2.19-.28c.85-2.57-.18-5.09-.92-7.54a13.68,13.68,0,0,1-.08-7.84,1.2,1.2,0,0,0-2.32-.64Z"/><path class="cls-20" d="M92.83,149a7.28,7.28,0,0,0,.37,8.75c.84,1.12,1.84,2.1,2.78,3.13a13,13,0,0,1,1.19,1.47,4.43,4.43,0,0,1,.79,1.58l.16-.61-.06.11,1.36-.55-.08,0,.84.84,0-.07L99.6,165l.05,0c1.26-.87.06-3-1.22-2.07l0,0a1.21,1.21,0,0,0-.55,1.35,1.33,1.33,0,0,0,.94.94,1.22,1.22,0,0,0,1.35-.56c.71-1.2-.5-3-1.21-4-.84-1.12-1.83-2.1-2.77-3.13a8.29,8.29,0,0,1-2-3,4.77,4.77,0,0,1,.76-4.3A1.2,1.2,0,1,0,92.83,149Z"/><path class="cls-21" d="M94.41,149.57c-.06,3,1.33,5.65,3,8s3.55,4.52,4.34,7.29l1.48-1.48c.07,0,.09,0,.06.07a1.25,1.25,0,0,0-1.21-1.2,1.21,1.21,0,0,0-1.2,1.2,2.52,2.52,0,0,0,1.71,2.25c.87.35,1.71-.67,1.48-1.48-.79-2.73-2.5-5-4.14-7.23s-3.16-4.62-3.1-7.43a1.21,1.21,0,0,0-2.41,0Z"/><path class="cls-21" d="M95.93,148.73c.81,2.3,2.5,4.14,3.8,6.17a43.76,43.76,0,0,1,3.37,6.39,1.24,1.24,0,0,0,1.48.84,1.22,1.22,0,0,0,.84-1.48,46.53,46.53,0,0,0-3.38-6.59c-.63-1-1.31-2-2-3a12.06,12.06,0,0,1-1.78-3,1.2,1.2,0,0,0-2.32.64Z"/><path class="cls-21" d="M97.4,149.32c2.95,1.12,5,3.73,7,6.05a21.81,21.81,0,0,0,3.44,3.55c1.61,1.19,3.94,1,5.81.65a1.22,1.22,0,0,0,.84-1.48,1.25,1.25,0,0,0-1.48-.84,9.47,9.47,0,0,1-2.91.07,3.57,3.57,0,0,1-1.88-1.3c-1.07-1.09-2-2.27-3.05-3.41-2-2.34-4.23-4.49-7.17-5.61a1.2,1.2,0,0,0-1.48.84,1.22,1.22,0,0,0,.84,1.48Z"/><path class="cls-21" d="M99.59,147.12c2.88,2.35,5.69,4.85,8.7,7a11,11,0,0,0,4.5,2.05,16.69,16.69,0,0,0,5.37-.15,1.21,1.21,0,0,0,.84-1.48,1.24,1.24,0,0,0-1.48-.84,12.24,12.24,0,0,1-4.71,0,10.77,10.77,0,0,1-3.78-2c-2.64-2-5.17-4.2-7.74-6.29-1.19-1-2.9.72-1.7,1.7Z"/><path class="cls-21" d="M102,147.12c1.65,0,3,1,4.27,2a16.65,16.65,0,0,0,4.14,2.54,12.17,12.17,0,0,0,9-.11,1.24,1.24,0,0,0,.84-1.48,1.22,1.22,0,0,0-1.48-.84,10,10,0,0,1-8.44-.22c-2.84-1.47-4.87-4.28-8.33-4.25a1.2,1.2,0,0,0,0,2.4Z"/><path class="cls-22" d="M101.5,141.4c-2-1-13.65,5.26-13.65,5.26a5.79,5.79,0,0,0,.32,4c.56,1.47,4.56,1.3,8.93-.37s7.48-4.22,6.92-5.68A5.29,5.29,0,0,0,101.5,141.4Z"/><ellipse class="cls-23" cx="94.93" cy="144.56" rx="7.55" ry="2.52" transform="translate(-45.32 43.38) rotate(-20.9)"/><rect class="cls-3" x="75.58" y="50.33" width="4.21" height="98.16" rx="2.1" transform="translate(-30.35 34.25) rotate(-20.9)"/><g class="cls-24"><rect class="cls-21" x="76.18" y="44.86" width="1.12" height="109" transform="translate(-30.4 33.92) rotate(-20.9)"/><path class="cls-25" d="M88.85,139.18a8.38,8.38,0,0,0,7.33-2.81l4.6,12.06-9.09,1.07L88.8,138.79"/><rect class="cls-25" x="59.24" y="46.87" width="7.71" height="29.17" rx="3.86" transform="translate(-17.77 26.55) rotate(-20.9)"/></g><path class="cls-1" d="M79.74,122.46,81,106.15s3.07.94,4.53-.34-.08-4.2-4.28-2.88c0,0,1.47-2.88-2.17-3.79s-2.64,3.1-2.64,3.1-1.24-3-4.12-2.37,0,4.13,3.56,5.12c0,0-1.8,10.11-3.16,15.24S71.61,129,74.63,130,79.62,124.93,79.74,122.46Z"/><path class="cls-1" d="M110.11,129.73l-15.37,5.58s1.73,2.71.9,4.45-4,.14-3.87-4.26c0,0-2.43,3.11-4.3-.15S89.75,132,89.75,132s-3.27-.37-3.39-3.32,4-1.14,5.89,2c0,0,9.25-4.45,13.82-7.15s8.11-3.39,10-.77S112.47,128.94,110.11,129.73Z"/><circle class="cls-1" cx="77.44" cy="132.3" r="5.56"/><circle class="cls-1" cx="122.37" cy="132.01" r="5.56"/><path class="cls-6" d="M203.85,133.76s6.37-.61,6.52,5.91-6.21,7.43-6.21,7.43,6.67-1.21,5.91,2.28-15.77,2.88-15.31-2.43S195.21,133.76,203.85,133.76Z"/><ellipse class="cls-7" cx="204.65" cy="134.49" rx="0.65" ry="0.24"/><path class="cls-6" d="M161.09,133.76s-6.37-.61-6.52,5.91,6.22,7.43,6.22,7.43-6.68-1.21-5.92,2.28,15.77,2.88,15.32-2.43S169.73,133.76,161.09,133.76Z"/><ellipse class="cls-7" cx="158.51" cy="135.13" rx="1.4" ry="0.61"/><ellipse class="cls-7" cx="160.67" cy="134.56" rx="0.86" ry="0.37"/><path class="cls-1" d="M204.2,139.79c0,11.7-9.49,12.32-21.18,12.32s-21.18-.62-21.18-12.32,9.48-30.06,21.18-30.06S204.2,128.08,204.2,139.79Z"/><g class="cls-26"><ellipse class="cls-9" cx="183.81" cy="112.78" rx="9.56" ry="20.24" transform="translate(48.78 280.91) rotate(-82.76)"/><ellipse class="cls-10" cx="183.02" cy="144.22" rx="12.56" ry="16.53"/></g><path class="cls-1" d="M216.9,104.75c.07,12.81-15.13,13.62-33.88,13.74s-34-.52-34.05-13.33S164.08,88,182.83,87.9,216.82,91.94,216.9,104.75Z"/><circle class="cls-1" cx="167.15" cy="89.13" r="13.65" transform="translate(3.7 184.87) rotate(-58.43)"/><circle class="cls-1" cx="198.53" cy="88.94" r="13.65" transform="translate(18.81 211.52) rotate(-58.43)"/><circle class="cls-4" cx="198.94" cy="90.08" r="9.55" transform="translate(18.04 212.41) rotate(-58.43)"/><g class="cls-27"><path d="M198.72,84.76a8.26,8.26,0,0,0-3.47.8,2.44,2.44,0,1,1-3.58,3.31,8.18,8.18,0,1,0,7.05-4.11Z"/></g><circle class="cls-4" cx="166.76" cy="90.27" r="9.55" transform="translate(2.54 185.08) rotate(-58.43)"/><g class="cls-28"><path d="M166.87,85.57a8.07,8.07,0,0,0-3.47.79,2.48,2.48,0,0,1,.69,1.68,2.44,2.44,0,0,1-4.27,1.64,8.18,8.18,0,1,0,7.05-4.11Z"/></g><ellipse class="cls-7" cx="155.49" cy="101.55" rx="3.15" ry="1.21" transform="translate(-0.6 0.92) rotate(-0.34)"/><ellipse class="cls-7" cx="210.3" cy="101.23" rx="3.15" ry="1.21" transform="translate(-0.6 1.25) rotate(-0.34)"/><ellipse class="cls-7" cx="153.82" cy="98.89" rx="1.83" ry="0.71" transform="translate(-0.58 0.91) rotate(-0.34)"/><ellipse class="cls-7" cx="211.47" cy="97.86" rx="1.83" ry="0.71" transform="translate(-0.58 1.26) rotate(-0.34)"/><path class="cls-5" d="M170,106.11s12.31,7,25.62-.15c0,0-2.76,8.92-12.52,9S170,106.11,170,106.11Z"/><g class="cls-29"><ellipse class="cls-19" cx="182.58" cy="117.64" rx="10.72" ry="5.8" transform="translate(-0.7 1.09) rotate(-0.34)"/><ellipse class="cls-4" cx="182.5" cy="104.17" rx="10.72" ry="5.8" transform="matrix(1, -0.01, 0.01, 1, -0.62, 1.09)"/></g><ellipse class="cls-7" cx="182.73" cy="99.38" rx="6.22" ry="1.21" transform="translate(-0.59 1.09) rotate(-0.34)"/><path class="cls-20" d="M186,148.87a10.48,10.48,0,0,0-2.09,4.52c-.2.79-.36,1.59-.57,2.38-.13.5-.34,1.28-.89,1.47-1,.34-.57,1.92.43,1.58,1.76-.6,2-2.62,2.42-4.2a10.35,10.35,0,0,1,1.85-4.59c.69-.79-.46-2-1.15-1.16Z"/><path class="cls-20" d="M186.88,150c-1,3.24-1.93,6.64-1.12,10a.83.83,0,0,0,1.58,0,2.67,2.67,0,0,0,.12-1c-.08-1-1.71-1.05-1.63,0a1.38,1.38,0,0,1-.07.57h1.58c-.74-3.08.23-6.22,1.12-9.15a.82.82,0,0,0-1.58-.44Z"/><path class="cls-20" d="M187.84,151.48a10.43,10.43,0,0,1,.42,3.09,16.4,16.4,0,0,1-.45,3,5.42,5.42,0,0,0,.07,2.8c.33.9,1.2,1.92,2.17,1.11a.82.82,0,0,0,0-1.16.84.84,0,0,0-1.15,0l-.07.06.58-.24c.26.18.31.18.16,0l-.11-.21a1.62,1.62,0,0,1-.12-.43,3.18,3.18,0,0,1,0-1c.09-.8.33-1.58.45-2.38a12.32,12.32,0,0,0-.35-5.09.82.82,0,0,0-1.58.43Z"/><path class="cls-20" d="M189.44,151.2c.21,2.44.36,4.9.64,7.33a4.34,4.34,0,0,0,1.12,2.84,1.2,1.2,0,0,0,1.48.17,1.05,1.05,0,0,0,.31-1.44.85.85,0,0,0-1.12-.3.83.83,0,0,0-.29,1.12l0,.08-.11-.42,0-.16.29-.29.11,0,.41.11c-.47-.23-.58-1.13-.65-1.58-.1-.79-.14-1.59-.21-2.37l-.43-5c-.09-1-1.73-1-1.64,0Z"/><path class="cls-20" d="M190.38,149.05l2,7.82a8.06,8.06,0,0,0,1.21,3,5.39,5.39,0,0,0,2.49,1.8c1,.36,1.42-1.22.44-1.58-2-.73-2.34-2.78-2.8-4.63L192,148.62a.81.81,0,0,0-1.57.43Z"/><path class="cls-20" d="M182.91,146.81c-1.47,1.16-2.25,2.91-3.58,4.2s-3.43,1.59-5.31,1.57a.82.82,0,0,0,0,1.63,9,9,0,0,0,6.15-1.76c1.53-1.29,2.32-3.24,3.9-4.49a.82.82,0,1,0-1.16-1.15Z"/><path class="cls-21" d="M185,147.63c-2,.48-3,2.31-3.77,4a8.09,8.09,0,0,1-1.48,2.48,2.27,2.27,0,0,1-2.08.76c-1-.25-1.46,1.33-.44,1.58,2.23.55,4-1.19,4.94-3,.77-1.5,1.39-3.78,3.27-4.23,1-.25.59-1.83-.44-1.58Z"/><path class="cls-21" d="M186,148.56a10.76,10.76,0,0,0-3.77,4.39c-.62,1.38-1,3.26-2.38,4.11l1.2.92.08-.41a.82.82,0,0,0-1.58-.43l-.08.4a.83.83,0,0,0,1.2.93c1.58-1,2.15-2.71,2.82-4.33a9.21,9.21,0,0,1,3.34-4.16c.86-.59,0-2-.83-1.42Z"/><path class="cls-20" d="M185.87,148.09a4.94,4.94,0,0,0-3.64,4.33,18,18,0,0,0,.05,3,4.84,4.84,0,0,1-.35,2.82l.49-.37-.08,0,.93.37,0,0,.08.63,0,0-.79.6h0c1,.09,1-1.55,0-1.64h0a.82.82,0,0,0-.79.6.8.8,0,0,0,.09.72.84.84,0,0,0,.93.37c.95-.34,1.09-1.77,1.15-2.65a28,28,0,0,0-.11-3,4.86,4.86,0,0,1,.48-2.66,3.23,3.23,0,0,1,2-1.48.82.82,0,0,0-.43-1.58Z"/><path class="cls-21" d="M186.44,149a9.2,9.2,0,0,0-1.94,5.25c-.2,2-.06,4.07-.87,5.93H185s0,0,0-.11c.58-.88-.84-1.7-1.41-.82a1.65,1.65,0,0,0,0,1.75.82.82,0,0,0,1.41,0,17.13,17.13,0,0,0,1-5.86c.12-1.73.35-3.62,1.53-5,.69-.79-.47-1.95-1.16-1.16Z"/><path class="cls-21" d="M187.51,149.43a20.67,20.67,0,0,0-.65,4.84,28.72,28.72,0,0,1-1.05,4.85.82.82,0,0,0,1.58.44,33,33,0,0,0,1.06-4.91c.2-1.57.08-3.28.64-4.78a.83.83,0,0,0-.57-1,.85.85,0,0,0-1,.57Z"/><path class="cls-21" d="M188,150.2c1.14,2,1,4.44,1.1,6.71a8.81,8.81,0,0,0,.45,3.47,6.1,6.1,0,0,0,2.49,2.28.82.82,0,0,0,.82-1.41c-.86-.51-1.85-1.15-2-2.21a31.36,31.36,0,0,1-.15-3.36,13.13,13.13,0,0,0-1.3-6.3.82.82,0,0,0-1.41.82Z"/><path class="cls-21" d="M190.19,150.2l.78,3.91c.24,1.22.43,2.45.77,3.64a7.41,7.41,0,0,0,1.52,2.93,11.14,11.14,0,0,0,2.69,2.08.82.82,0,0,0,.82-1.42,8.89,8.89,0,0,1-2.42-1.89,6.63,6.63,0,0,1-1.19-2.73c-.55-2.29-.93-4.64-1.39-6.95-.2-1-1.78-.6-1.58.43Z"/><path class="cls-21" d="M191.34,151a4.64,4.64,0,0,1,1.42,2.83,11.25,11.25,0,0,0,1.15,3.33,8.46,8.46,0,0,0,4.83,3.79.82.82,0,0,0,.43-1.58,6.82,6.82,0,0,1-4.12-3.54c-1-2-.68-4.49-2.55-6a.82.82,0,0,0-1.16,1.16Z"/><path class="cls-30" d="M193.65,147.89c-.6-1.38-9.43-3.17-9.43-3.17a4,4,0,0,0-1.57,2.23c-.34,1,1.83,2.66,4.85,3.68s5.74,1,6.09,0A3.61,3.61,0,0,0,193.65,147.89Z"/><ellipse class="cls-31" cx="188.83" cy="146.69" rx="1.72" ry="5.14" transform="translate(-10.76 278.38) rotate(-71.26)"/><rect class="cls-3" x="193.35" y="110.16" width="2.86" height="38.02" rx="1.08" transform="translate(51.84 -55.74) rotate(18.74)"/><g class="cls-32"><rect class="cls-21" x="198.55" y="78.04" width="0.76" height="74.17" transform="translate(47.54 -57.82) rotate(18.74)"/><path class="cls-33" d="M188,141.23a5.67,5.67,0,0,0,5.06,1.72l-2.83,8.31L185,147.88l3.14-6.87"/><rect class="cls-33" x="197.36" y="103.71" width="5.25" height="19.85" rx="2.62" transform="translate(47.12 -58.24) rotate(18.74)"/></g><path class="cls-1" d="M176.86,138.21l11.27,4.22s-1.29,2-.69,3.27,2.95.14,2.88-3.1c0,0,1.77,2.3,3.17-.09s-1.65-2.5-1.65-2.5,2.4-.25,2.52-2.42-2.92-.87-4.36,1.46c0,0-6.77-3.35-10.12-5.37s-5.95-2.55-7.32-.64S175.13,137.61,176.86,138.21Z"/><path class="cls-1" d="M196.09,136.13l-3.16-11.62s-2.09,1.1-3.32.38-.66-3.47,2.56-3.09c0,0-1.33-1.46,1.18-2.63s2.64,1.14,2.64,1.14.17-1.63,2.35-1.55.59,3-1.86,4.2c0,0,2.7,7.06,4.39,10.58s2,6.17,0,7.35S196.52,137.91,196.09,136.13Z"/></g></svg>