<svg id="Layer_9" data-name="Layer 9" xmlns="http://www.w3.org/2000/svg" xmlns:xlink="http://www.w3.org/1999/xlink" viewBox="0 0 260 168"><defs><style>.cls-1{fill:#8ecf00;}.cls-2{fill:#457500;}.cls-3{fill:#71b704;}.cls-4{clip-path:url(#clip-path);}.cls-5{fill:#75b506;}.cls-6{fill:#b1e523;}.cls-7{fill:#fff;}.cls-8{fill:#d3eb0b;}.cls-9{clip-path:url(#clip-path-2);}.cls-10{fill:#f73434;}.cls-11{fill:#91c405;}</style><clipPath id="clip-path"><path class="cls-1" d="M69.91,146.39c-1,6.78,2.94,8.76,8,8.48,6.44-.35,10,1,11-5.79s.38-17.61-4.61-18.35S70.92,139.61,69.91,146.39Z"/></clipPath><clipPath id="clip-path-2"><path class="cls-2" d="M91.36,120.26a7.23,7.23,0,0,1-6,3.78s2,3.66,5.26,1.57C93,124.08,91.36,120.26,91.36,120.26Z"/></clipPath></defs><path class="cls-3" d="M83.42,146.88s6.13,4.08,2,9.47L83.58,158s.35,3.72-2.78,4.52-2.42-3.67-.58-5.83c0,0,1.07-1.79,1.32-2.29s-4.22-1.57-2.87-5.18S83,146.54,83.42,146.88Z"/><path class="cls-3" d="M89.09,135.2l3.26-6.26s1.06.89,1.85.63.28-1.7-1.6-1.89c0,0,1.46-.87.17-1.84s-1.57.78-1.57.78,0-1.42-1.23-1.64-.71,1.64.54,2.64c0,0-2.42,3.7-3.83,5.5s-1.91,3.28-.89,4.22S88.63,136.16,89.09,135.2Z"/><path class="cls-1" d="M69.91,146.39c-1,6.78,2.94,8.76,8,8.48,6.44-.35,10,1,11-5.79s.38-17.61-4.61-18.35S70.92,139.61,69.91,146.39Z"/><g class="cls-4"><ellipse class="cls-5" cx="81.49" cy="130.53" rx="8.83" ry="5.54" transform="translate(-49.21 49.32) rotate(-26.17)"/><ellipse class="cls-6" cx="87.85" cy="151.69" rx="9.68" ry="5.42" transform="translate(-75.11 216.27) rotate(-81.54)"/></g><path class="cls-1" d="M80.08,136c9-6.33,16.46-11.17,12.38-17.47S79.56,115,70.34,121c0,0-8,7.57-2.12,16.67C68.22,137.65,71.33,142.17,80.08,136Z"/><circle class="cls-1" cx="78.41" cy="116.54" r="7.99" transform="translate(-47.48 178.83) rotate(-82.39)"/><circle class="cls-7" cx="78.97" cy="116.97" r="5.59" transform="translate(-47.42 179.76) rotate(-82.39)"/><path d="M76.39,112.93a4.84,4.84,0,0,1,2-.73,1.43,1.43,0,1,0,2.82.47,4.79,4.79,0,1,1-4.77.26Z"/><ellipse class="cls-8" cx="77.28" cy="125.89" rx="1.84" ry="0.71" transform="translate(-56.04 62.28) rotate(-32.95)"/><ellipse class="cls-8" cx="75.63" cy="124.62" rx="1.07" ry="0.41" transform="translate(-55.61 61.17) rotate(-32.95)"/><path class="cls-2" d="M91.36,120.26a7.23,7.23,0,0,1-6,3.78s2,3.66,5.26,1.57C93,124.08,91.36,120.26,91.36,120.26Z"/><g class="cls-9"><ellipse class="cls-10" cx="89.56" cy="128.3" rx="6.28" ry="3.4" transform="translate(-55.37 69.34) rotate(-32.95)"/><ellipse class="cls-7" cx="84.69" cy="120.59" rx="3.4" ry="6.28" transform="translate(-49.98 180.4) rotate(-78.87)"/></g><path class="cls-11" d="M83.9,137.26l2.19-6.7s1.19.7,1.93.32,0-1.73-1.89-1.61c0,0,1.3-1.09-.13-1.85s-1.43,1-1.43,1-.2-1.4-1.48-1.41-.43,1.73,1,2.51c0,0-1.79,4-2.88,6.06s-1.35,3.54-.19,4.3S83.6,138.29,83.9,137.26Z"/><path class="cls-1" d="M77.05,149.21s5.15,5.27,0,9.68l-2.13,1.26s-.43,3.72-3.66,3.85-1.6-4.1.64-5.83c0,0,1.42-1.53,1.77-2s-3.8-2.41-1.73-5.66S76.68,148.78,77.05,149.21Z"/><ellipse class="cls-8" cx="76.02" cy="150.41" rx="0.72" ry="1.3" transform="translate(-72.58 70.92) rotate(-35.04)"/></svg>