<svg xmlns="http://www.w3.org/2000/svg" xmlns:xlink="http://www.w3.org/1999/xlink" viewBox="0 0 260 168"><defs><style>.cls-1{fill:#8ecf00;}.cls-2{fill:#457500;}.cls-3{fill:#71b704;}.cls-4{clip-path:url(#clip-path);}.cls-5{fill:#75b506;}.cls-6{fill:#b1e523;}.cls-7{fill:#fff;}.cls-8{fill:#d3eb0b;}.cls-9{clip-path:url(#clip-path-2);}.cls-10{fill:#f73434;}.cls-11{fill:#91c405;}</style><clipPath id="clip-path"><path class="cls-1" d="M73.16,31.09c-4-1.13-5.51,1.1-5.73,4.16-.28,3.91-1.36,5.94,2.65,7.07S80.67,43.91,81.5,41,77.17,32.22,73.16,31.09Z"/></clipPath><clipPath id="clip-path-2"><path class="cls-2" d="M87.27,46a4.39,4.39,0,0,1-1.82-3.93s-2.36.95-1.35,3.06C84.84,46.7,87.27,46,87.27,46Z"/></clipPath></defs><g id="Layer_5" data-name="Layer 5"><path class="cls-3" d="M71.83,39.19s-2.94,3.39-5.87.47l-.87-1.23s-2.27-.07-2.51-2,2.4-1.18,3.56.1c0,0,1,.78,1.28,1s1.27-2.43,3.35-1.33S72.07,39,71.83,39.19Z"/><path class="cls-3" d="M78.43,43.52,82,46s-.62.57-.53,1.07,1,.3,1.27-.82c0,0,.41.95,1.1.25s-.35-1-.35-1a1,1,0,0,0,1.08-.62c.23-.74-.93-.55-1.63.13,0,0-2.05-1.75-3-2.74s-1.83-1.4-2.47-.86S77.89,43.16,78.43,43.52Z"/><path class="cls-1" d="M73.16,31.09c-4-1.13-5.51,1.1-5.73,4.16-.28,3.91-1.36,5.94,2.65,7.07S80.67,43.91,81.5,41,77.17,32.22,73.16,31.09Z"/><g class="cls-4"><ellipse class="cls-5" cx="81.83" cy="39.29" rx="3.37" ry="5.37" transform="translate(-8.31 28.59) rotate(-18.88)"/><ellipse class="cls-6" cx="68.59" cy="41.5" rx="3.3" ry="5.88" transform="translate(10.04 96.25) rotate(-74.26)"/></g><path class="cls-1" d="M78.64,38c3.12,5.9,5.47,10.79,9.58,8.81s3.13-7.51.24-13.53c0,0-3.95-5.42-9.89-2.56C78.57,30.74,75.6,32.27,78.64,38Z"/><circle class="cls-1" cx="90.51" cy="38.52" r="4.86" transform="translate(37.98 121.68) rotate(-80.78)"/><circle class="cls-7" cx="90.21" cy="38.82" r="3.4" transform="translate(37.43 121.64) rotate(-80.78)"/><path d="M92.85,37.58a2.8,2.8,0,0,1,.28,1.23.84.84,0,0,0-.64,0A.86.86,0,0,0,92.08,40a.84.84,0,0,0,.55.46,2.91,2.91,0,0,1-5-.37,2.92,2.92,0,1,1,5.26-2.52Z"/><ellipse class="cls-8" cx="84.96" cy="37.11" rx="0.43" ry="1.12" transform="translate(-7.69 40.45) rotate(-25.66)"/><ellipse class="cls-8" cx="85.85" cy="36.21" rx="0.25" ry="0.65" transform="translate(-7.22 40.75) rotate(-25.66)"/><path class="cls-2" d="M87.27,46a4.39,4.39,0,0,1-1.82-3.93s-2.36.95-1.35,3.06C84.84,46.7,87.27,46,87.27,46Z"/><g class="cls-9"><ellipse class="cls-10" cx="82.56" cy="44.33" rx="2.06" ry="3.82" transform="translate(-11.05 40.12) rotate(-25.66)"/><ellipse class="cls-7" cx="87.58" cy="41.99" rx="3.82" ry="2.06" transform="translate(20.07 111.82) rotate(-71.58)"/></g><path class="cls-11" d="M77.59,40.23l3.88,1.83s-.52.67-.35,1.14,1,.14,1.12-1c0,0,.56.88,1.12.07s-.51-.94-.51-.94.86,0,1-.78-1-.4-1.59.39c0,0-2.3-1.39-3.43-2.21s-2-1.08-2.58-.44S77,40,77.59,40.23Z"/><path class="cls-1" d="M70.91,35.17s-3.57,2.7-5.83-.76L64.48,33s-2.21-.55-2-2.5,2.59-.66,3.46.83c0,0,.81,1,1,1.22s1.75-2.11,3.55-.61S71.2,35,70.91,35.17Z"/><ellipse class="cls-8" cx="70.27" cy="34.46" rx="0.79" ry="0.44" transform="translate(-7.96 36.69) rotate(-27.76)"/></g></svg>