<svg id="Layer_1" data-name="Layer 1" xmlns="http://www.w3.org/2000/svg" xmlns:xlink="http://www.w3.org/1999/xlink" viewBox="0 0 260 168"><defs><style>.cls-1{fill:#8ecf00;}.cls-2{fill:#fff;}.cls-3{fill:#457500;}.cls-4{fill:#aeaeaf;}.cls-5{fill:#7ece00;}.cls-6{fill:#d3eb0b;}.cls-7{clip-path:url(#clip-path);}.cls-8{fill:#75b506;}.cls-9{fill:#b1e523;}.cls-10{clip-path:url(#clip-path-2);}.cls-11{clip-path:url(#clip-path-3);}.cls-12{clip-path:url(#clip-path-4);}.cls-13{fill:#f73434;}.cls-14{fill:#dbd5d7;}.cls-15{fill:#ededed;}.cls-16{fill:#009db7;}.cls-17{fill:#03b4dd;}.cls-18{clip-path:url(#clip-path-5);}.cls-19{fill:#00c3ff;}</style><clipPath id="clip-path"><path class="cls-1" d="M192.77,142.8c0,9.94-8.06,10.47-18,10.47s-18-.53-18-10.47,8.06-25.54,18-25.54S192.77,132.85,192.77,142.8Z"/></clipPath><clipPath id="clip-path-2"><circle class="cls-2" cx="192.22" cy="103.21" r="8.12"/></clipPath><clipPath id="clip-path-3"><circle class="cls-2" cx="165.25" cy="98.71" r="8.12"/></clipPath><clipPath id="clip-path-4"><path class="cls-3" d="M165.63,112.44s9.29,7.68,21.48,3.59c0,0-3.6,7.07-11.79,5.7S165.63,112.44,165.63,112.44Z"/></clipPath><clipPath id="clip-path-5"><rect class="cls-4" x="182.68" y="117.35" width="2.43" height="32.31" rx="0.92" transform="translate(64.94 -60.12) rotate(22.46)"/></clipPath></defs><path class="cls-5" d="M192.48,137.68s5.41-.52,5.54,5-5.28,6.32-5.28,6.32,5.67-1,5,1.93-13.4,2.45-13-2.06S185.14,137.68,192.48,137.68Z"/><ellipse class="cls-6" cx="193.16" cy="138.3" rx="0.56" ry="0.2"/><path class="cls-5" d="M156.14,137.68s-5.41-.52-5.54,5,5.28,6.32,5.28,6.32-5.67-1-5,1.93,13.4,2.45,13-2.06S163.48,137.68,156.14,137.68Z"/><ellipse class="cls-6" cx="153.95" cy="138.84" rx="1.19" ry="0.52"/><ellipse class="cls-6" cx="155.79" cy="138.36" rx="0.73" ry="0.32"/><path class="cls-1" d="M192.77,142.8c0,9.94-8.06,10.47-18,10.47s-18-.53-18-10.47,8.06-25.54,18-25.54S192.77,132.85,192.77,142.8Z"/><g class="cls-7"><ellipse class="cls-8" cx="175.45" cy="119.85" rx="8.12" ry="17.2" transform="translate(34.46 278.8) rotate(-82.76)"/><ellipse class="cls-9" cx="174.77" cy="146.57" rx="10.67" ry="14.04"/></g><path class="cls-1" d="M205.13,118.1c-1.79,10.74-14.63,9.22-30.36,6.6s-28.36-5.36-26.57-16.1,15.13-12.17,30.85-9.54S206.93,107.36,205.13,118.1Z"/><circle class="cls-1" cx="165.74" cy="97.81" r="11.6" transform="translate(-25.59 118.57) rotate(-36.74)"/><circle class="cls-1" cx="192.05" cy="102.2" r="11.6" transform="translate(-22.99 135.18) rotate(-36.74)"/><circle class="cls-2" cx="192.22" cy="103.21" r="8.12"/><g class="cls-10"><path d="M192.81,98.73a6.94,6.94,0,0,0-3,.17,2,2,0,0,1,.33,1.5,2.07,2.07,0,0,1-3.81.75,7,7,0,1,0,6.5-2.42Z"/></g><circle class="cls-2" cx="165.25" cy="98.71" r="8.12"/><g class="cls-11"><path d="M166,94.79a6.94,6.94,0,0,0-3,.17,2,2,0,0,1,.33,1.5,2.07,2.07,0,0,1-3.81.75,7,7,0,1,0,6.5-2.42Z"/></g><ellipse class="cls-6" cx="154.18" cy="106.53" rx="1.03" ry="2.67" transform="translate(23.73 241.08) rotate(-80.53)"/><ellipse class="cls-6" cx="200.12" cy="114.2" rx="1.03" ry="2.67" transform="translate(54.55 292.8) rotate(-80.53)"/><ellipse class="cls-6" cx="153.16" cy="104.06" rx="0.6" ry="1.56" transform="translate(25.32 238.01) rotate(-80.53)"/><ellipse class="cls-6" cx="201.59" cy="111.55" rx="0.6" ry="1.56" transform="translate(58.39 292.03) rotate(-80.53)"/><path class="cls-3" d="M165.63,112.44s9.29,7.68,21.48,3.59c0,0-3.6,7.07-11.79,5.7S165.63,112.44,165.63,112.44Z"/><g class="cls-12"><ellipse class="cls-13" cx="174.53" cy="123.92" rx="4.93" ry="9.11" transform="translate(23.58 275.68) rotate(-80.53)"/><ellipse class="cls-2" cx="176.42" cy="112.64" rx="4.93" ry="9.11" transform="translate(36.28 268.11) rotate(-80.53)"/></g><ellipse class="cls-6" cx="177.3" cy="108.66" rx="1.03" ry="5.28" transform="translate(40.95 265.66) rotate(-80.53)"/><path class="cls-14" d="M175.32,149.76a9.05,9.05,0,0,0-2,3.75c-.2.65-.38,1.31-.6,2-.15.45-.37,1-.87,1.18a.7.7,0,0,0,.37,1.34c1.5-.41,1.86-2.18,2.25-3.47a8.69,8.69,0,0,1,1.84-3.78c.63-.63-.35-1.62-1-1Z"/><path class="cls-14" d="M176,150.79c-1,2.71-2,5.52-1.48,8.44a.7.7,0,0,0,.67.51.72.72,0,0,0,.67-.51,2.24,2.24,0,0,0,.15-.85.7.7,0,0,0-1.39,0,1.33,1.33,0,0,1-.1.48h1.34c-.46-2.64.56-5.27,1.48-7.7a.7.7,0,1,0-1.34-.37Z"/><path class="cls-14" d="M176.79,152.09a9.23,9.23,0,0,1,.18,2.57,14,14,0,0,1-.54,2.55,4.52,4.52,0,0,0-.11,2.39c.18.65.87,1.75,1.68,1.16a.72.72,0,0,0,.25-.95.7.7,0,0,0-.95-.25l-.07,0,.35-.09c.24.14.29.13.17,0a.62.62,0,0,1-.07-.19,1.65,1.65,0,0,1-.07-.32,2.89,2.89,0,0,1,0-.88c.13-.69.38-1.35.52-2a10.58,10.58,0,0,0,0-4.34c-.18-.87-1.52-.5-1.34.37Z"/><path class="cls-14" d="M178.16,151.94c0,2.06,0,4.13.13,6.18a3.85,3.85,0,0,0,.74,2.44,1.05,1.05,0,0,0,1.29.3.92.92,0,0,0,.33-1.26c-.43-.79-1.63-.09-1.2.7l.05.08-.1-.35v.08l.1-.35h0l.31-.18-.09,0h.37c-.12,0-.25-.5-.28-.61a4.7,4.7,0,0,1-.1-.74c0-.68,0-1.35,0-2l-.09-4.29a.7.7,0,0,0-1.39,0Z"/><path class="cls-14" d="M179.08,150.17l1.18,6.52a7.4,7.4,0,0,0,.85,2.76,4.44,4.44,0,0,0,1.93,1.66c.81.36,1.52-.84.7-1.2a3.17,3.17,0,0,1-1.59-1.43,9.81,9.81,0,0,1-.66-2.78l-1.07-5.9c-.16-.88-1.5-.51-1.34.37Z"/><path class="cls-14" d="M173,147.73c-1.32.92-2.11,2.33-3.3,3.39a6.11,6.11,0,0,1-4.7,1.09c-.9-.07-.89,1.33,0,1.39a7.57,7.57,0,0,0,5.28-1.17c1.31-1,2.07-2.56,3.43-3.5.73-.5,0-1.71-.71-1.2Z"/><path class="cls-15" d="M174.52,148.63c-1.67.3-2.64,1.82-3.39,3.2-.61,1.13-1.63,3-3.22,2.52-.86-.27-1.22,1.07-.37,1.34,1.85.59,3.45-.85,4.33-2.32.75-1.26,1.38-3.11,3-3.4a.7.7,0,0,0,.49-.85.72.72,0,0,0-.86-.49Z"/><path class="cls-15" d="M175.37,149.49A9,9,0,0,0,172,153c-.62,1.15-1,2.69-2.27,3.34l1,.78.09-.34a.7.7,0,0,0-1.34-.37l-.09.34a.7.7,0,0,0,1,.79c1.37-.72,1.94-2.18,2.59-3.49a7.91,7.91,0,0,1,3.1-3.38.7.7,0,0,0-.7-1.2Z"/><path class="cls-14" d="M175.25,149.08a4.15,4.15,0,0,0-3.28,3.48,17.15,17.15,0,0,0-.12,2.58,4.15,4.15,0,0,1-.48,2.38l.42-.32-.07,0,.78.32,0,0,.07.54,0,0-.86.48h0a.72.72,0,0,0,.85-.49.69.69,0,0,0-.49-.85h0a.72.72,0,0,0-.85.49.69.69,0,0,0,.07.61.72.72,0,0,0,.79.32c.82-.24,1-1.53,1.08-2.26s.05-1.69.08-2.53a4.08,4.08,0,0,1,.54-2.19,2.75,2.75,0,0,1,1.83-1.16.7.7,0,0,0-.37-1.34Z"/><path class="cls-15" d="M175.7,149.93a7.73,7.73,0,0,0-1.91,4.33c-.26,1.68-.29,3.46-1.09,5h1.2c0,.05.1-.1.09-.08a.69.69,0,1,0-1.2-.7,1.41,1.41,0,0,0-.09,1.48.7.7,0,0,0,1.2,0,14.47,14.47,0,0,0,1.17-4.9,7,7,0,0,1,1.61-4.14c.63-.64-.35-1.63-1-1Z"/><path class="cls-15" d="M176.67,150.17a17.62,17.62,0,0,0-.86,4.09,25.7,25.7,0,0,1-1.18,4.2.68.68,0,0,0,.48.85.72.72,0,0,0,.86-.48,25.77,25.77,0,0,0,1.15-4.06c.14-.69.24-1.39.33-2.09a6.62,6.62,0,0,1,.42-1.81.72.72,0,0,0-.25-1,.69.69,0,0,0-1,.25Z"/><path class="cls-15" d="M177,151c.86,1.8.61,3.89.54,5.82a7.08,7.08,0,0,0,.21,2.9,5.44,5.44,0,0,0,2,2.06c.74.5,1.44-.7.7-1.2a2.89,2.89,0,0,1-1.54-2c0-1,0-1.92.06-2.87a11.07,11.07,0,0,0-.78-5.4c-.38-.81-1.58-.1-1.2.7Z"/><path class="cls-15" d="M178.83,151c.29,2.18.46,4.42.9,6.57a6.19,6.19,0,0,0,1.14,2.61,9.31,9.31,0,0,0,2.2,2c.74.51,1.44-.69.71-1.2a7.22,7.22,0,0,1-1.92-1.73,5.85,5.85,0,0,1-.86-2.36c-.33-1.93-.52-3.9-.78-5.84a.72.72,0,0,0-.69-.7c-.34,0-.75.33-.7.7Z"/><path class="cls-15" d="M179.81,151.89a4.2,4.2,0,0,1,1,2.55,9.32,9.32,0,0,0,.82,2.88,7.16,7.16,0,0,0,3.88,3.4.71.71,0,0,0,.86-.48.73.73,0,0,0-.49-.86,5.72,5.72,0,0,1-3.24-3.18c-.71-1.76-.36-3.89-1.88-5.29-.66-.61-1.64.38-1,1Z"/><path class="cls-16" d="M181.91,149.32c-.44-1.2-7.83-3.2-7.83-3.2a3.37,3.37,0,0,0-1.45,1.8c-.35.83,1.4,2.35,3.91,3.39s4.81,1.19,5.16.35A3,3,0,0,0,181.91,149.32Z"/><ellipse class="cls-17" cx="177.89" cy="148.04" rx="1.46" ry="4.37" transform="translate(-26.88 255.89) rotate(-67.54)"/><rect class="cls-4" x="182.68" y="117.35" width="2.43" height="32.31" rx="0.92" transform="translate(64.94 -60.12) rotate(22.46)"/><g class="cls-18"><rect class="cls-15" x="187.86" y="90.31" width="0.65" height="63.03" transform="translate(60.8 -62.64) rotate(22.46)"/><path class="cls-19" d="M177.47,143.36a4.83,4.83,0,0,0,4.19,1.74L178.82,152l-4.26-3.16,3-5.65"/><rect class="cls-19" x="186.93" y="112.19" width="4.46" height="16.87" rx="2.23" transform="translate(60.41 -63.11) rotate(22.46)"/></g><path class="cls-1" d="M167.09,141.73l9.59,3.59s-1.1,1.68-.59,2.78,2.51.11,2.44-2.64c0,0,1.51,2,2.69-.07s-1.4-2.13-1.4-2.13,2.05-.21,2.15-2.06-2.49-.73-3.7,1.24c0,0-5.76-2.84-8.61-4.55s-5-2.18-6.22-.55S165.62,141.23,167.09,141.73Z"/><path class="cls-1" d="M185.88,139.69l-2.68-9.87s-1.78.93-2.82.32-.56-2.95,2.18-2.62c0,0-1.13-1.25,1-2.24s2.24,1,2.24,1,.15-1.39,2-1.32.5,2.54-1.58,3.57c0,0,2.29,6,3.73,9s1.69,5.23,0,6.24S186.25,141.2,185.88,139.69Z"/></svg>