<svg xmlns="http://www.w3.org/2000/svg" xmlns:xlink="http://www.w3.org/1999/xlink" viewBox="0 0 260 168"><defs><style>.cls-1{fill:#8ecf00;}.cls-2{fill:#457500;}.cls-3{fill:#79ce00;}.cls-4{clip-path:url(#clip-path);}.cls-5{fill:#75b506;}.cls-6{fill:#b1e523;}.cls-7{fill:#fff;}.cls-8{fill:#d3eb0b;}.cls-9{clip-path:url(#clip-path-2);}.cls-10{fill:#f73434;}.cls-11{fill:none;stroke:#88ba00;stroke-linecap:round;stroke-linejoin:round;stroke-width:0.24px;}</style><clipPath id="clip-path"><path class="cls-1" d="M44.78,30.74c-.85,4.13,1.51,5.47,4.61,5.47,4,0,6.08.94,6.92-3.19s.83-10.78-2.21-11.4S45.62,26.62,44.78,30.74Z"/></clipPath><clipPath id="clip-path-2"><path class="cls-2" d="M62.05,20.25A4.45,4.45,0,0,1,57.68,20s-.27,2.56,2.09,2.65C61.5,22.73,62.05,20.25,62.05,20.25Z"/></clipPath></defs><g id="Layer_2" data-name="Layer 2"><path class="cls-3" d="M54,31.4l1.4,4.1s-.84.09-1.06.55.64.85,1.52.09c0,0-.23,1,.75.86s.31-1,.31-1a1,1,0,0,0,1.25.14c.63-.46-.42-1-1.4-.87,0,0-.62-2.65-.83-4S55.28,29,54.44,29,53.76,30.79,54,31.4Z"/><path class="cls-1" d="M44.78,30.74c-.85,4.13,1.51,5.47,4.61,5.47,4,0,6.08.94,6.92-3.19s.83-10.78-2.21-11.4S45.62,26.62,44.78,30.74Z"/><g class="cls-4"><ellipse class="cls-5" cx="53.03" cy="22.05" rx="3.4" ry="5.42" transform="translate(29.4 74.4) rotate(-88.29)"/><ellipse class="cls-6" cx="55.59" cy="34.59" rx="5.94" ry="3.33" transform="translate(10.55 82.11) rotate(-78.42)"/></g><path class="cls-1" d="M50.82,24.16c6.74,0,12.21.22,12.39-4.38s-5.22-6.34-12-6.61c0,0-6.71,1-7,7.62C44.29,20.79,44.25,24.16,50.82,24.16Z"/><circle class="cls-1" cx="56.87" cy="13.8" r="4.91" transform="translate(40.86 70.09) rotate(-87.77)"/><circle class="cls-7" cx="57" cy="14.22" r="3.43" transform="translate(40.57 70.61) rotate(-87.77)"/><path d="M57.13,11.27a3,3,0,0,1,1.24.33.86.86,0,0,0-.27.6.88.88,0,0,0,.85.91.87.87,0,0,0,.66-.27A2.88,2.88,0,0,1,60,14.33a2.94,2.94,0,1,1-2.83-3.06Z"/><ellipse class="cls-8" cx="52.99" cy="18.1" rx="0.44" ry="1.13" transform="translate(32.85 70.35) rotate(-87.77)"/><ellipse class="cls-8" cx="52.61" cy="16.87" rx="0.25" ry="0.66" transform="translate(33.71 68.79) rotate(-87.77)"/><path class="cls-2" d="M62.05,20.25A4.45,4.45,0,0,1,57.68,20s-.27,2.56,2.09,2.65C61.5,22.73,62.05,20.25,62.05,20.25Z"/><g class="cls-9"><ellipse class="cls-10" cx="58.3" cy="23.64" rx="2.09" ry="3.85" transform="translate(32.41 80.99) rotate(-87.77)"/><ellipse class="cls-7" cx="58.59" cy="18.05" rx="2.09" ry="3.85" transform="translate(3.75 45.47) rotate(-43.69)"/></g><path class="cls-1" d="M44.82,36.07c.45,1.86,5.24,2.13,5.51.87s-2.13-.81-2.13-.81a2.62,2.62,0,0,0,2.24-2.67,2.08,2.08,0,0,0-2.34-2.13s-3.34-.52-3.23,2.27c0,0,.05,1.4,1.82,1C46.69,34.61,44.55,34.93,44.82,36.07Z"/><ellipse class="cls-1" cx="48.38" cy="31.59" rx="0.24" ry="0.09"/><path class="cls-1" d="M52,32.23l1.41,4.1s-.85.09-1.07.55.64.85,1.52.09c0,0-.23,1,.75.86s.31-1,.31-1a1,1,0,0,0,1.25.15c.63-.47-.42-1-1.4-.88,0,0-.62-2.64-.83-4s-.65-2.24-1.49-2.18S51.73,31.62,52,32.23Z"/><path class="cls-11" d="M46.89,31.2S50.6,30.61,50.6,33a2.35,2.35,0,0,1-1.94,2.6"/><path class="cls-11" d="M49.59,36a2.4,2.4,0,0,0-1.84-.35"/><ellipse class="cls-8" cx="48.2" cy="31.74" rx="0.7" ry="0.17"/></g></svg>