<svg id="Layer_1" data-name="Layer 1" xmlns="http://www.w3.org/2000/svg" xmlns:xlink="http://www.w3.org/1999/xlink" viewBox="0 0 260 168"><defs><style>.cls-1{fill:#8ecf00;}.cls-2{fill:#457500;}.cls-3{fill:#7ece00;}.cls-4{fill:#d3eb0b;}.cls-5{clip-path:url(#clip-path);}.cls-6{fill:#75b506;}.cls-7{fill:#b1e523;}.cls-8{fill:#fff;}.cls-9{clip-path:url(#clip-path-2);}.cls-10{fill:#f73434;}</style><clipPath id="clip-path"><path class="cls-1" d="M233.58,77.2c0,7-5.64,7.33-12.6,7.33s-12.6-.37-12.6-7.33S214,59.32,221,59.32,233.58,70.24,233.58,77.2Z"/></clipPath><clipPath id="clip-path-2"><path class="cls-2" d="M213.26,57.12a16.56,16.56,0,0,0,15.24,0,7.92,7.92,0,0,1-7.48,5.3A8.47,8.47,0,0,1,213.26,57.12Z"/></clipPath></defs><path class="cls-3" d="M234.53,76.74s3.18,2.1.81,5.18A4.33,4.33,0,0,1,229.68,83s3.54,1.93,1.89,3.26-8.37-4.57-6.18-6.85S230.54,73.51,234.53,76.74Z"/><ellipse class="cls-4" cx="234.63" cy="77.38" rx="0.14" ry="0.39" transform="translate(26.9 211.12) rotate(-51.03)"/><path class="cls-3" d="M210.34,80.2s-3.25,2-1,5.14a4.34,4.34,0,0,0,5.61,1.34s-3.62,1.79-2,3.18,8.56-4.21,6.46-6.58S214.47,77.14,210.34,80.2Z"/><ellipse class="cls-4" cx="209.6" cy="81.77" rx="0.83" ry="0.36" transform="translate(-7.45 140.99) rotate(-36.57)"/><ellipse class="cls-4" cx="210.43" cy="80.73" rx="0.51" ry="0.22" transform="translate(-6.67 141.28) rotate(-36.57)"/><path class="cls-1" d="M233.58,77.2c0,7-5.64,7.33-12.6,7.33s-12.6-.37-12.6-7.33S214,59.32,221,59.32,233.58,70.24,233.58,77.2Z"/><g class="cls-5"><ellipse class="cls-6" cx="220.8" cy="61.13" rx="12.04" ry="5.69"/><ellipse class="cls-7" cx="220.98" cy="79.84" rx="7.47" ry="9.83"/></g><path class="cls-1" d="M241.18,56.48c0,7.62-9,8.05-20.2,8.05s-20.21-.43-20.21-8.05,9-10.15,20.21-10.15S241.18,48.86,241.18,56.48Z"/><circle class="cls-1" cx="211.64" cy="47.01" r="8.12"/><circle class="cls-1" cx="230.31" cy="47.01" r="8.12"/><circle class="cls-8" cx="230.55" cy="47.68" r="5.68"/><circle class="cls-8" cx="211.41" cy="47.68" r="5.68"/><path d="M211.37,42.81a4.75,4.75,0,0,0-2.06.47,1.42,1.42,0,0,1,.4,1,1.46,1.46,0,0,1-1.46,1.46,1.4,1.4,0,0,1-1.08-.5,4.86,4.86,0,1,0,4.2-2.42Z"/><path d="M230.58,42.81a4.79,4.79,0,0,0-2.06.47,1.42,1.42,0,0,1,.4,1,1.45,1.45,0,0,1-1.45,1.46,1.43,1.43,0,0,1-1.09-.5,4.87,4.87,0,1,0,4.2-2.42Z"/><ellipse class="cls-4" cx="204.66" cy="54.36" rx="1.87" ry="0.72"/><ellipse class="cls-4" cx="237.27" cy="54.36" rx="1.87" ry="0.72"/><ellipse class="cls-4" cx="203.68" cy="52.77" rx="1.09" ry="0.42"/><ellipse class="cls-4" cx="237.98" cy="52.36" rx="1.09" ry="0.42"/><path class="cls-2" d="M213.26,57.12a16.56,16.56,0,0,0,15.24,0,7.92,7.92,0,0,1-7.48,5.3A8.47,8.47,0,0,1,213.26,57.12Z"/><g class="cls-9"><ellipse class="cls-10" cx="220.72" cy="64.02" rx="6.38" ry="3.45"/><ellipse class="cls-8" cx="220.72" cy="56.01" rx="6.38" ry="3.45"/></g><ellipse class="cls-4" cx="220.88" cy="53.16" rx="3.7" ry="0.72"/><path class="cls-1" d="M210,65.41l-6.6-2.78s.82-1.15.49-1.93-1.75-.15-1.78,1.78c0,0-1-1.41-1.89,0s.92,1.53.92,1.53-1.43.09-1.56,1.38,1.72.58,2.63-.76c0,0,3.94,2.15,5.88,3.43s3.47,1.67,4.34.56S211,65.81,210,65.41Z"/><path class="cls-1" d="M232.18,66.26l6.17-3.65s-1-1-.75-1.84,1.72-.39,2,1.52c0,0,.8-1.54,1.87-.28s-.71,1.64-.71,1.64,1.44-.11,1.73,1.15-1.62.81-2.7-.4c0,0-3.62,2.67-5.37,4.2s-3.22,2.12-4.22,1.14S231.24,66.79,232.18,66.26Z"/></svg>