<svg xmlns="http://www.w3.org/2000/svg" xmlns:xlink="http://www.w3.org/1999/xlink" viewBox="0 0 260 168"><defs><style>.cls-1{fill:#eac28c;}.cls-2{fill:#e0b577;}.cls-3{fill:#8ecf00;}.cls-4{fill:#fff;}.cls-5{fill:#457500;}.cls-6{fill:#efcb92;}.cls-30,.cls-7,.cls-9{fill:#ffe4b3;}.cls-8{clip-path:url(#clip-path);}.cls-9{opacity:0.47;}.cls-10{clip-path:url(#clip-path-2);}.cls-11{fill:#c9934c;}.cls-12{fill:#79ce00;}.cls-13{clip-path:url(#clip-path-3);}.cls-14{fill:#75b506;}.cls-15{fill:#b1e523;}.cls-16{clip-path:url(#clip-path-4);}.cls-17{fill:#d3eb0b;}.cls-18{clip-path:url(#clip-path-5);}.cls-19{fill:#f73434;}.cls-20{fill:none;stroke:#88ba00;stroke-linecap:round;stroke-linejoin:round;stroke-width:0.57px;}.cls-21{clip-path:url(#clip-path-6);}.cls-22{fill:#eaba75;opacity:0.51;}.cls-23{fill:#ffeed2;}.cls-24{fill:#8c8881;}.cls-25{clip-path:url(#clip-path-7);}.cls-26{fill:#f2d6a2;}.cls-27,.cls-28{fill:#f4cb89;}.cls-28{opacity:0.61;}.cls-29{clip-path:url(#clip-path-8);}.cls-30{opacity:0.23;}</style><clipPath id="clip-path"><path class="cls-1" d="M42,89.08S22.59,69.35,22.55,64.82l76.87-.91,28.52,1.59s15.19-2.27,16.1-1.59,8.81-.13,8.81-.13l19.8,25.3Z"/></clipPath><clipPath id="clip-path-2"><polygon class="cls-2" points="42.01 89.08 172.65 89.08 210.69 94.52 175.55 127.17 63.55 120.36 42.01 89.08"/></clipPath><clipPath id="clip-path-3"><path class="cls-3" d="M92.93,113.4c-2,9.84,3.61,13,11,13,9.45,0,14.51,2.24,16.53-7.6s2-25.73-5.29-27.21S95,103.57,92.93,113.4Z"/></clipPath><clipPath id="clip-path-4"><circle class="cls-4" cx="122.1" cy="73.96" r="8.2" transform="translate(43.43 193.08) rotate(-87.77)"/></clipPath><clipPath id="clip-path-5"><path class="cls-5" d="M131,92.91s-6.63-5.89-11.22.34C119.78,93.25,133.78,95.41,131,92.91Z"/></clipPath><clipPath id="clip-path-6"><path class="cls-6" d="M65.82,148.93,39.74,132.15s-4.08-5.66-2.94-10.42,1.58-13.61,1.58-13.61l.91-4.76L36.6,94.52,42,89.08l23.81,5.44,4.76,27.21Z"/></clipPath><clipPath id="clip-path-7"><polygon class="cls-7" points="212.28 112.96 212.28 101.11 210.69 94.52 65.82 94.52 65.82 148.93 210.69 148.93 212.77 145.19 214.85 122.86 212.28 112.96"/></clipPath><clipPath id="clip-path-8"><polygon class="cls-1" points="65.82 94.52 83.5 112.66 144.72 115.23 234.5 111.29 240.39 109.99 210.69 94.52 142.68 94.52 65.82 94.52"/></clipPath></defs><g id="Layer_9" data-name="Layer 9"><path class="cls-1" d="M42,89.08S22.59,69.35,22.55,64.82l76.87-.91,28.52,1.59s15.19-2.27,16.1-1.59,8.81-.13,8.81-.13l19.8,25.3Z"/><g class="cls-8"><path class="cls-9" d="M25.58,63c1.55,0,2.67,1.44,3.59,2.69A71.41,71.41,0,0,0,42.33,79.39a2.44,2.44,0,0,0,1.73.74c1.29-.15,1.47-2,1.17-3.24a40.21,40.21,0,0,0-1.55-4.77l-3.53-9.45a8,8,0,0,0-2.39-3.9,5.46,5.46,0,0,0-4.4-.68A16,16,0,0,0,29.19,60"/></g><polygon class="cls-2" points="42.01 89.08 172.65 89.08 210.69 94.52 175.55 127.17 63.55 120.36 42.01 89.08"/><g class="cls-10"><rect class="cls-11" x="172.65" y="83.64" width="50.97" height="81.62"/></g><path class="cls-12" d="M114.91,115l3.36,9.78s-2,.22-2.54,1.33,1.52,2,3.63.2c0,0-.56,2.43,1.78,2.05s.76-2.45.76-2.45a2.38,2.38,0,0,0,3,.34c1.5-1.11-1-2.4-3.34-2.08,0,0-1.49-6.32-2-9.63s-1.55-5.34-3.57-5.2S114.36,113.51,114.91,115Z"/><path class="cls-3" d="M92.93,113.4c-2,9.84,3.61,13,11,13,9.45,0,14.51,2.24,16.53-7.6s2-25.73-5.29-27.21S95,103.57,92.93,113.4Z"/><g class="cls-13"><ellipse class="cls-14" cx="112.62" cy="92.66" rx="8.12" ry="12.93" transform="translate(16.64 202.47) rotate(-88.29)"/><ellipse class="cls-15" cx="118.75" cy="122.58" rx="14.18" ry="7.95" transform="translate(-25.17 214.31) rotate(-78.42)"/></g><path class="cls-3" d="M107.35,97.7c16.1,0,29.15.52,29.58-10.47S124.46,72.1,108.37,71.47c0,0-16,2.3-16.61,18.18C91.76,89.65,91.67,97.7,107.35,97.7Z"/><circle class="cls-3" cx="121.79" cy="72.97" r="11.71" transform="matrix(0.04, -1, 1, 0.04, 44.13, 191.82)"/><circle class="cls-4" cx="122.1" cy="73.96" r="8.2" transform="translate(43.43 193.08) rotate(-87.77)"/><g class="cls-16"><path d="M123.27,71.48a7,7,0,0,1,3,.78,2.1,2.1,0,0,0,1.38,3.6,2.11,2.11,0,0,0,1.6-.66,7,7,0,1,1-5.93-3.72Z"/></g><ellipse class="cls-17" cx="112.54" cy="83.22" rx="1.04" ry="2.7" transform="translate(25.01 192.44) rotate(-87.77)"/><ellipse class="cls-17" cx="111.64" cy="80.3" rx="0.61" ry="1.57" transform="translate(27.05 188.73) rotate(-87.77)"/><path class="cls-5" d="M131,92.91s-6.63-5.89-11.22.34C119.78,93.25,133.78,95.41,131,92.91Z"/><g class="cls-18"><ellipse class="cls-19" cx="122.56" cy="95.09" rx="5.27" ry="2.84"/><ellipse class="cls-4" cx="127.43" cy="89.74" rx="2.18" ry="4.99" transform="translate(5.47 186.79) rotate(-73.67)"/></g><path class="cls-3" d="M93,126.12c1.08,4.45,12.49,5.08,13.15,2.09s-5.08-2-5.08-2,5.47-.78,5.34-6.37-5.6-5.08-5.6-5.08-7.95-1.23-7.71,5.42c0,0,.13,3.35,4.35,2.42C97.49,122.64,92.39,123.4,93,126.12Z"/><ellipse class="cls-3" cx="101.54" cy="115.43" rx="0.56" ry="0.2"/><path class="cls-3" d="M110.07,117l3.36,9.78s-2,.22-2.54,1.32,1.52,2,3.62.21c0,0-.56,2.43,1.79,2s.75-2.46.75-2.46a2.38,2.38,0,0,0,3,.35c1.5-1.11-1-2.41-3.35-2.09,0,0-1.48-6.31-2-9.63s-1.55-5.33-3.57-5.19S109.52,115.49,110.07,117Z"/><path class="cls-20" d="M98,114.5s8.86-1.4,8.86,4.31-4.64,6.21-4.64,6.21"/><path class="cls-20" d="M104.42,125.93a5.71,5.71,0,0,0-4.38-.83"/><ellipse class="cls-17" cx="101.09" cy="115.78" rx="1.68" ry="0.4"/><path class="cls-6" d="M65.82,148.93,39.74,132.15s-4.08-5.66-2.94-10.42,1.58-13.61,1.58-13.61l.91-4.76L36.6,94.52,42,89.08l23.81,5.44,4.76,27.21Z"/><g class="cls-21"><path class="cls-22" d="M73,115.51a35.62,35.62,0,0,0-6.75,3.63,11.89,11.89,0,0,0-4.52,6c-.9,3.13-.08,6.77-1.82,9.52a6,6,0,0,1-7.65,2c-1.45-.77-2.67-2.18-4.31-2.26-.64,0-1.27.15-1.9.08-1.77-.18-2.75-2-3.94-3.36-.72-.79-1.6-1.44-2.25-2.28a16.7,16.7,0,0,1-1.6-3,18.63,18.63,0,0,0-3.42-4.84,112.32,112.32,0,0,1-2.6,26.24,1.1,1.1,0,0,0,0,.89,1.06,1.06,0,0,0,.33.26,49.21,49.21,0,0,0,18.78,6.18,147.91,147.91,0,0,0,19.86.93c1.48,0,3.22-.13,4-1.4a4.38,4.38,0,0,0,.45-2c.7-10.34,1.4-20.75.17-31a5.78,5.78,0,0,0-.7-2.46c-.49-.75-1.31-1.26-1.69-2.07"/><path class="cls-23" d="M26.59,94.52c.08-.12.55-.19,1.36-.22,6.88-.29,37.58,2.26,37.58,2.26l8.22-10.43L29.32,78.88l-4.77,6.57"/></g><path class="cls-7" d="M65.82,148.93l-2.27-13.6a91.63,91.63,0,0,1,0-15c.68-8.16-.83-17-.3-17.68s-1.67-5.21-.12-6.12a15.19,15.19,0,0,0,2.69-2h44.89l13.6,35.14Z"/><rect class="cls-24" x="63.66" y="143.72" width="3.74" height="1.47"/><rect class="cls-24" x="63.66" y="140.88" width="3.74" height="1.47" transform="translate(134.16 281.77) rotate(178.74)"/><rect class="cls-24" x="61.85" y="103.1" width="3.74" height="1.47" transform="translate(129.71 206.24) rotate(178.74)"/><rect class="cls-24" x="61.79" y="100.38" width="3.74" height="1.47" transform="translate(110.14 211.19) rotate(-170.7)"/><polygon class="cls-7" points="212.28 112.96 212.28 101.11 210.69 94.52 65.82 94.52 65.82 148.93 210.69 148.93 212.77 145.19 214.85 122.86 212.28 112.96"/><g class="cls-25"><path class="cls-26" d="M216.44,123.51a10.68,10.68,0,0,0-7,8.72c-.17,1.5,0,3-.14,4.53-.45,4.85-10.65,14.84-15.43,15.8,6.56,5.15,19.42,4.64,26,9.79q2.69-18.48,6-36.85a18.6,18.6,0,0,1-4-3.64"/><path class="cls-26" d="M212.9,102c.88-1.43,1.87-3,3.44-3.54,2.17,2.46,4.1,10.69,1.54,13.36-2.08,2.16-8.22,1.72-10.92,1.78C207.87,109.51,210.73,105.54,212.9,102Z"/></g><rect class="cls-27" x="89.62" y="117.87" width="4.33" height="9.98" rx="1.85" transform="translate(30.83 -17.87) rotate(13.34)"/><rect class="cls-28" x="89.62" y="117.87" width="4.33" height="9.98" rx="1.85" transform="translate(-51.75 176.85) rotate(-73.85)"/><rect class="cls-27" x="190.84" y="103.13" width="4.33" height="9.98" rx="1.85" transform="matrix(0.97, 0.23, -0.23, 0.97, 30.16, -41.62)"/><rect class="cls-28" x="190.84" y="103.13" width="4.33" height="9.98" rx="1.85" transform="translate(35.46 263.44) rotate(-73.85)"/><polygon class="cls-26" points="65.82 94.52 75.34 109.99 212.28 108.12 178.04 96.93 65.82 94.52"/><polygon class="cls-1" points="65.82 94.52 83.5 112.66 144.72 115.23 234.5 111.29 240.39 109.99 210.69 94.52 142.68 94.52 65.82 94.52"/><g class="cls-29"><path class="cls-30" d="M98,100.62c10.32,9,24.23,12.44,37.56,15.58a76.09,76.09,0,0,0,10.35,2c-2.18-.21-6.2,2.17-8.47,2.72a61.7,61.7,0,0,1-8.77,1.45,54.32,54.32,0,0,1-18.33-1.08C102.24,119.14,98.42,108.15,98,100.62Z"/></g><path class="cls-1" d="M172.65,89.08l25.23-17.5s13.87,2.07,20.71,2.38,28.46,2.47,28.46,2.47L210.69,94.52Z"/><path class="cls-1" d="M42,89.08,12.94,76.43S39.15,92.5,47.08,94.12s18.74.4,18.74.4Z"/></g></svg>