<svg id="Layer_9" data-name="Layer 9" xmlns="http://www.w3.org/2000/svg" xmlns:xlink="http://www.w3.org/1999/xlink" viewBox="0 0 260 168"><defs><style>.cls-1{fill:#8ecf00;}.cls-2{fill:#fff;}.cls-3{fill:#457500;}.cls-4{fill:#79ce00;}.cls-5{clip-path:url(#clip-path);}.cls-6{fill:#75b506;}.cls-7{fill:#b1e523;}.cls-8{clip-path:url(#clip-path-2);}.cls-9{fill:#d3eb0b;}.cls-10{clip-path:url(#clip-path-3);}.cls-11{fill:#f73434;}.cls-12{fill:none;stroke:#88ba00;stroke-linecap:round;stroke-linejoin:round;stroke-width:0.36px;}</style><clipPath id="clip-path"><path class="cls-1" d="M184.77,68.76c1.29,6.27-2.29,8.31-7,8.31-6,0-9.25,1.43-10.53-4.84S166,55.84,170.6,54.89,183.49,62.49,184.77,68.76Z"/></clipPath><clipPath id="clip-path-2"><circle class="cls-2" cx="161.26" cy="48.65" r="5.22" transform="translate(-4.3 79.64) rotate(-27.39)"/></clipPath><clipPath id="clip-path-3"><path class="cls-3" d="M158.62,60.32A6.75,6.75,0,0,0,164.36,57s2.15,3.27-1,5C161.08,63.29,158.62,60.32,158.62,60.32Z"/></clipPath></defs><path class="cls-4" d="M170.77,69.76,168.63,76s1.28.14,1.62.84-1,1.29-2.31.13c0,0,.35,1.55-1.14,1.31s-.48-1.56-.48-1.56a1.52,1.52,0,0,1-1.9.22c-1-.71.65-1.54,2.13-1.33,0,0,.94-4,1.26-6.14s1-3.4,2.27-3.31S171.12,68.83,170.77,69.76Z"/><path class="cls-1" d="M184.77,68.76c1.29,6.27-2.29,8.31-7,8.31-6,0-9.25,1.43-10.53-4.84S166,55.84,170.6,54.89,183.49,62.49,184.77,68.76Z"/><g class="cls-5"><ellipse class="cls-6" cx="172.23" cy="55.55" rx="8.24" ry="5.17" transform="translate(-1.58 5.16) rotate(-1.71)"/><ellipse class="cls-7" cx="168.32" cy="74.61" rx="5.06" ry="9.03" transform="translate(-11.55 35.31) rotate(-11.58)"/></g><path class="cls-1" d="M176.53,57.81c-9.13,4.69-16.37,8.78-19.81,2.67s2.66-12.2,11.6-17.23c0,0,9.73-3.36,14.7,5.46C183,48.71,185.41,53.25,176.53,57.81Z"/><circle class="cls-1" cx="161.15" cy="48" r="7.46" transform="translate(-4.02 79.52) rotate(-27.39)"/><circle class="cls-2" cx="161.26" cy="48.65" r="5.22" transform="translate(-4.3 79.64) rotate(-27.39)"/><g class="cls-8"><path d="M158.5,47.74a4.4,4.4,0,0,0-1.44,1.3,1.33,1.33,0,0,1,.26,2.44,1.27,1.27,0,0,1-1.09.09,4.53,4.53,0,0,0,.57,2.27,4.48,4.48,0,1,0,1.7-6.1Z"/></g><ellipse class="cls-9" cx="169.37" cy="51.12" rx="1.72" ry="0.66" transform="translate(-3.28 89.74) rotate(-29.4)"/><ellipse class="cls-9" cx="169.04" cy="49.2" rx="1" ry="0.39" transform="translate(-2.38 89.32) rotate(-29.4)"/><path class="cls-3" d="M158.62,60.32A6.75,6.75,0,0,0,164.36,57s2.15,3.27-1,5C161.08,63.29,158.62,60.32,158.62,60.32Z"/><g class="cls-10"><ellipse class="cls-11" cx="166.04" cy="62.31" rx="5.86" ry="3.17" transform="translate(-9.2 89.54) rotate(-29.4)"/><ellipse class="cls-2" cx="161.78" cy="54.94" rx="5.86" ry="3.17" transform="translate(63.11 194.42) rotate(-73.48)"/></g><path class="cls-1" d="M184.7,76.86c-.69,2.83-8,3.24-8.37,1.33S179.56,77,179.56,77a4,4,0,0,1-3.4-4.07,3.17,3.17,0,0,1,3.57-3.23s5.06-.78,4.91,3.45c0,0-.08,2.14-2.77,1.54C181.87,74.64,185.12,75.13,184.7,76.86Z"/><ellipse class="cls-1" cx="179.29" cy="70.05" rx="0.36" ry="0.13"/><path class="cls-1" d="M173.85,71l-2.14,6.22s1.29.15,1.62.85-1,1.29-2.31.13c0,0,.36,1.55-1.13,1.31S169.4,78,169.4,78a1.51,1.51,0,0,1-1.9.22c-.95-.7.66-1.53,2.13-1.33,0,0,1-4,1.26-6.13s1-3.4,2.28-3.31S174.2,70.09,173.85,71Z"/><path class="cls-12" d="M181.56,69.46s-5.64-.9-5.64,2.74,3,4,3,4"/><path class="cls-12" d="M177.45,76.74a3.66,3.66,0,0,1,2.79-.53"/><ellipse class="cls-9" cx="179.57" cy="70.27" rx="1.07" ry="0.26"/></svg>