<svg xmlns="http://www.w3.org/2000/svg" xmlns:xlink="http://www.w3.org/1999/xlink" viewBox="0 0 260 168"><defs><style>.cls-1{fill:#8ecf00;}.cls-2{fill:#457500;}.cls-3{fill:#7ece00;}.cls-4{fill:#d3eb0b;}.cls-5{clip-path:url(#clip-path);}.cls-6{fill:#75b506;}.cls-7{fill:#b1e523;}.cls-8{fill:#fff;}.cls-9{clip-path:url(#clip-path-2);}.cls-10{fill:#f73434;}</style><clipPath id="clip-path"><path class="cls-1" d="M146.26,96.18c0,8.87-7.19,9.34-16.06,9.34s-16.06-.47-16.06-9.34,7.19-22.8,16.06-22.8S146.26,87.3,146.26,96.18Z"/></clipPath><clipPath id="clip-path-2"><path class="cls-2" d="M125.69,76.11s2.36-3.68,5.95-3.21,4.83,4.55,4.83,4.55A10.53,10.53,0,0,0,131.32,75,10.31,10.31,0,0,0,125.69,76.11Z"/></clipPath></defs><g id="Layer_6" data-name="Layer 6"><path class="cls-3" d="M146,91.61s4.83-.46,4.95,4.48-4.72,5.64-4.72,5.64,5.06-.92,4.49,1.72-12,2.18-11.62-1.84S139.45,91.61,146,91.61Z"/><ellipse class="cls-4" cx="146.61" cy="92.16" rx="0.5" ry="0.18"/><path class="cls-3" d="M113.57,91.61s-4.83-.46-4.94,4.48,4.71,5.64,4.71,5.64-5.06-.92-4.48,1.72,12,2.18,11.61-1.84S120.13,91.61,113.57,91.61Z"/><ellipse class="cls-4" cx="111.62" cy="92.64" rx="1.06" ry="0.46"/><ellipse class="cls-4" cx="113.26" cy="92.21" rx="0.65" ry="0.28"/><path class="cls-1" d="M146.26,96.18c0,8.87-7.19,9.34-16.06,9.34s-16.06-.47-16.06-9.34,7.19-22.8,16.06-22.8S146.26,87.3,146.26,96.18Z"/><g class="cls-5"><ellipse class="cls-6" cx="129.97" cy="75.69" rx="15.35" ry="7.25"/><ellipse class="cls-7" cx="130.2" cy="99.54" rx="9.52" ry="12.53"/></g><path class="cls-1" d="M157.06,73.15c-1.25,9.64-12.75,8.7-26.86,6.87S104.73,76.17,106,66.54s13.09-11.35,27.2-9.52S158.31,63.52,157.06,73.15Z"/><circle class="cls-1" cx="121.27" cy="56.34" r="10.35"/><circle class="cls-1" cx="144.87" cy="59.4" r="10.35"/><circle class="cls-8" cx="145.06" cy="60.29" r="7.24"/><circle class="cls-8" cx="120.86" cy="57.16" r="7.24"/><path d="M121.61,51a6.31,6.31,0,0,0-2.68.24,1.85,1.85,0,1,1-3,2.13,6.11,6.11,0,0,0-1.24,3,6.21,6.21,0,1,0,7-5.36Z"/><path d="M145.9,54.14a6.16,6.16,0,0,0-2.68.25,1.85,1.85,0,0,1-1.74,2.93,1.83,1.83,0,0,1-1.29-.81,6.21,6.21,0,1,0,11.07,4.59A6.21,6.21,0,0,0,145.9,54.14Z"/><ellipse class="cls-4" cx="111.24" cy="64.5" rx="0.92" ry="2.39" transform="matrix(0.13, -0.99, 0.99, 0.13, 33, 166.53)"/><ellipse class="cls-4" cx="152.46" cy="69.83" rx="0.92" ry="2.39" transform="translate(63.63 212.07) rotate(-82.62)"/><ellipse class="cls-4" cx="110.26" cy="62.32" rx="0.54" ry="1.39" transform="matrix(0.13, -0.99, 0.99, 0.13, 34.3, 163.66)"/><ellipse class="cls-4" cx="153.68" cy="67.42" rx="0.54" ry="1.39" transform="translate(67.09 211.18) rotate(-82.62)"/><ellipse class="cls-4" cx="131.93" cy="65.64" rx="0.92" ry="4.71" transform="translate(49.9 188.05) rotate(-82.62)"/><path class="cls-1" d="M116.1,96.17l1.86,8.94s-1.79,0-2.37.89,1.11,1.94,3.16.58c0,0-.76,2.07,1.34,2s.93-2.07.93-2.07a2.1,2.1,0,0,0,2.58.63c1.44-.81-.63-2.22-2.71-2.2,0,0-.6-5.69-.67-8.66s-.77-4.85-2.56-5S115.78,94.82,116.1,96.17Z"/><path class="cls-1" d="M144.38,96.17l-1.87,8.94s1.8,0,2.38.89-1.11,1.94-3.16.58c0,0,.76,2.07-1.34,2s-.93-2.07-.93-2.07a2.1,2.1,0,0,1-2.58.63c-1.44-.81.63-2.22,2.7-2.2,0,0,.61-5.69.68-8.66s.77-4.85,2.56-5S144.7,94.82,144.38,96.17Z"/><path class="cls-2" d="M125.69,76.11s2.36-3.68,5.95-3.21,4.83,4.55,4.83,4.55A10.53,10.53,0,0,0,131.32,75,10.31,10.31,0,0,0,125.69,76.11Z"/><g class="cls-9"><ellipse class="cls-10" cx="131.02" cy="78.68" rx="4.4" ry="4.31" transform="translate(36.17 198.52) rotate(-82.62)"/><path class="cls-1" d="M113.13,55.12s10.09,1.14,15.17-3l-6.16-4.17s-5.12,1.55-5.93,1.77-2.48,2.51-2.48,2.51Z"/></g><path class="cls-1" d="M112.18,53.36s10.63,2.57,15.2-1.43L123.92,47l-6.2.79s-2.07.83-2.47,1S112.18,53.36,112.18,53.36Z"/><path class="cls-1" d="M153.94,58.77S143,58.54,139.6,53.51l4.6-3.88L150,52s1.79,1.33,2.15,1.55S153.94,58.77,153.94,58.77Z"/></g></svg>