<svg id="Layer_1" data-name="Layer 1" xmlns="http://www.w3.org/2000/svg" xmlns:xlink="http://www.w3.org/1999/xlink" viewBox="0 0 260 168"><defs><style>.cls-1{fill:#d18830;}.cls-2{fill:#893e00;}.cls-3{clip-path:url(#clip-path);}.cls-4{fill:#ea9c3f;}.cls-5{fill:#af6822;opacity:0.42;}.cls-6{clip-path:url(#clip-path-2);}.cls-7{fill:#9b530b;}.cls-8{fill:#7a3501;}.cls-9{fill:#4932ce;}.cls-10{fill:#ffe33b;}</style><clipPath id="clip-path"><path class="cls-1" d="M74.59,121.94H84.82a0,0,0,0,1,0,0v9.15A3.94,3.94,0,0,1,80.88,135H78.54a3.94,3.94,0,0,1-3.94-3.94v-9.15A0,0,0,0,1,74.59,121.94Z" transform="translate(19.34 -10.14) rotate(8.28)"/></clipPath><clipPath id="clip-path-2"><rect class="cls-2" x="74.61" y="121.11" width="12.38" height="2.15" rx="1.07" transform="translate(18.44 -10.36) rotate(8.28)"/></clipPath></defs><path class="cls-1" d="M74.59,121.94H84.82a0,0,0,0,1,0,0v9.15A3.94,3.94,0,0,1,80.88,135H78.54a3.94,3.94,0,0,1-3.94-3.94v-9.15A0,0,0,0,1,74.59,121.94Z" transform="translate(19.34 -10.14) rotate(8.28)"/><g class="cls-3"><rect class="cls-4" x="71.63" y="118.44" width="0.69" height="17.82" transform="translate(19.09 -9.04) rotate(8.28)"/><rect class="cls-4" x="75.49" y="119.01" width="0.69" height="17.82" transform="translate(19.21 -9.59) rotate(8.28)"/><rect class="cls-4" x="79.35" y="119.57" width="0.69" height="17.82" transform="translate(19.34 -10.14) rotate(8.28)"/><rect class="cls-4" x="83.21" y="120.13" width="0.69" height="17.82" transform="translate(19.46 -10.69) rotate(8.28)"/><rect class="cls-4" x="87.07" y="120.69" width="0.69" height="17.82" transform="translate(19.58 -11.24) rotate(8.28)"/><path class="cls-4" d="M91.19,126.92c-3.49-.27-7.2-.67-11.1-1.23s-7.53-1.25-10.94-2l.12-.8c3.36.77,7,1.47,10.93,2s7.65,1,11.1,1.17Z"/><path class="cls-4" d="M90.81,129.49c-3.49-.27-7.19-.67-11.09-1.23s-7.53-1.24-10.94-2l.12-.8c3.36.77,7,1.47,10.93,2s7.65.94,11.1,1.16Z"/><path class="cls-4" d="M90.44,132.06c-3.49-.27-7.2-.66-11.1-1.23s-7.53-1.24-10.93-2l.11-.8c3.36.77,7,1.48,10.93,2s7.65.94,11.1,1.16Z"/><path class="cls-4" d="M90.06,134.63c-3.48-.27-7.19-.66-11.09-1.23s-7.53-1.24-10.94-2l.12-.8c3.36.77,7,1.48,10.93,2s7.65.94,11.1,1.16Z"/><rect class="cls-5" x="73.74" y="121.26" width="13.94" height="2.59" transform="translate(18.49 -10.35) rotate(8.28)"/></g><rect class="cls-2" x="74.61" y="121.11" width="12.38" height="2.15" rx="1.07" transform="translate(18.44 -10.36) rotate(8.28)"/><g class="cls-6"><rect class="cls-7" x="73.03" y="119.61" width="16.84" height="2.03" transform="translate(18.22 -10.47) rotate(8.28)"/></g><path class="cls-8" d="M80.51,121s10.66-8.16,17.85-16.85a.59.59,0,0,1,.68-.17l.68.33a.55.55,0,0,1,.17.78c-1,1.54-3.55,6.91-17.78,17Z"/><circle class="cls-9" cx="80.61" cy="122.21" r="2.03"/><circle class="cls-10" cx="80.61" cy="122.21" r="1.09"/></svg>