<svg id="bg" xmlns="http://www.w3.org/2000/svg" viewBox="0 0 99.06 87.43">
  <defs>
    <style>
      .cls-1 {
        fill: none;
      }

      .cls-2 {
        fill: #f16635;
      }

      .cls-3 {
        fill: #fee5bb;
      }

      .cls-4 {
        fill: #c39e6a;
      }

      .cls-5 {
        fill: #18acd5;
      }

      .cls-6 {
        fill: #de734c;
      }

      .cls-7 {
        fill: #f6a386;
      }

      .cls-8 {
        fill: #fefefe;
      }
    </style>
  </defs>
  <title>p02</title>
  <rect class="cls-1" x="-679.38" y="-309.75" width="808" height="454.5"/>
  <g>
    <path class="cls-2" d="M85.75,44.5a54.49,54.49,0,0,1-5.6,1.8,110.59,110.59,0,0,1-16.92,3.26.8.8,0,0,1-.64.25q-3.29.34-6.58.56c-4.09.28-8.19.34-12.29.31a1.28,1.28,0,0,1-.89-.17,4,4,0,0,0-.48-.07c-3.15,0-6.31-.2-9.45-.48-2.43-.22-4.83-.65-7.23-1.09A85,85,0,0,1,11.22,45,28.13,28.13,0,0,1,3.53,41a8.81,8.81,0,0,1-3.32-4.5,9.31,9.31,0,0,1,.2-4.54A28.56,28.56,0,0,1,7.07,19.24,53.43,53.43,0,0,1,23.65,6.75,64.51,64.51,0,0,1,36,2a.68.68,0,0,1,.42-.06.59.59,0,0,1,.11.51A5.8,5.8,0,0,0,39.25,8a5.68,5.68,0,0,0,7.16-1.14A6.44,6.44,0,0,0,47.9,3.59,6.56,6.56,0,0,0,47.48.75C47.38.4,47,.46,46.78.3a.1.1,0,0,1,0-.15A18.4,18.4,0,0,1,51,.1a73.58,73.58,0,0,1,37.1,15,31.12,31.12,0,0,1,8.65,9.75,17.48,17.48,0,0,1,2.28,8.07,16.38,16.38,0,0,1-.84,5.42.9.9,0,0,1-.36.47,20.33,20.33,0,0,1-2.14,1.3c-.19-.14-.15-.36-.17-.55a5.88,5.88,0,0,0-3.42-4.87,5.7,5.7,0,0,0-8,4.44A5.87,5.87,0,0,0,85.48,44,.91.91,0,0,1,85.75,44.5Z"/>
    <path class="cls-3" d="M64.72,53.14A21.15,21.15,0,0,1,66,56c1.11,2.72,2.16,5.48,3.06,8.29a55.12,55.12,0,0,1,2.22,9.14,18.62,18.62,0,0,1,0,6A7.32,7.32,0,0,1,67,84.78a21.66,21.66,0,0,1-6.38,2,50.59,50.59,0,0,1-5.08.57c-2.53.17-5.06.12-7.59.06-1.92,0-3.83-.28-5.74-.49a53.72,53.72,0,0,1-6.55-1,12.12,12.12,0,0,1-6-2.83c-1.87-1.84-2.34-3.57-.66-5.87a21.8,21.8,0,0,1,4.15-4c1.61-1.3,3.23-2.59,4.82-3.91a13.59,13.59,0,0,0,3.8-5.72,21,21,0,0,0,1.35-5.76c.17-1.58,0-3.16.09-4.74.18,0,.27.08.36.18A5.18,5.18,0,0,0,46,54.64a23.87,23.87,0,0,0,5.24,1,32.68,32.68,0,0,0,4.31.09,20.07,20.07,0,0,0,6.73-1.26,7.8,7.8,0,0,0,1.86-1C64.27,53.29,64.44,53.09,64.72,53.14Z"/>
    <path class="cls-4" d="M64.72,53.14a11.9,11.9,0,0,1-6,2.41,29.14,29.14,0,0,1-6.53.3,21.87,21.87,0,0,1-6.88-1.28A4.74,4.74,0,0,1,43.16,53l-.33-2.53c1,0,2,0,3,0,2.42.06,4.84,0,7.26-.13,2.21-.07,4.42-.26,6.62-.43,1.2-.09,2.38-.26,3.57-.39l1.29,3A1.42,1.42,0,0,1,64.72,53.14Z"/>
    <path class="cls-5" d="M85.75,44.5a6,6,0,0,1-1.52-6.34A5.74,5.74,0,0,1,89,34a5.93,5.93,0,0,1,6.58,4.9c.06.37.08.75.12,1.13A48.47,48.47,0,0,1,88,43.72C87.24,44,86.49,44.24,85.75,44.5Z"/>
    <path class="cls-5" d="M46.78.25c.6-.1.79.25,1,.75a6.06,6.06,0,0,1-4.37,7.84,5.87,5.87,0,0,1-7-5,9.28,9.28,0,0,1,0-1.9,36.47,36.47,0,0,1,3.82-1A45.52,45.52,0,0,1,45.11.26a1.67,1.67,0,0,1,.59,0A7.79,7.79,0,0,1,46.78.25Z"/>
    <path class="cls-6" d="M46.78.25H45.69V.18l1.08,0A.34.34,0,0,1,46.78.25Z"/>
    <path class="cls-7" d="M45.69.18V.25h-.58A.78.78,0,0,1,45.69.18Z"/>
    <path class="cls-8" d="M66.38,17.05A6,6,0,0,1,60.48,11a5.9,5.9,0,1,1,11.8,0A6,6,0,0,1,66.38,17.05Z"/>
    <path class="cls-8" d="M26.76,25.15a6.09,6.09,0,1,1,5.9-6A6,6,0,0,1,26.76,25.15Z"/>
    <path class="cls-8" d="M7.27,37.41a6.09,6.09,0,0,1,0-12.18,6.09,6.09,0,0,1,0,12.18Z"/>
    <path class="cls-8" d="M44.71,44.2a6.1,6.1,0,1,1,5.9-6.06A6,6,0,0,1,44.71,44.2Z"/>
    <path class="cls-8" d="M67.7,45.29a6.09,6.09,0,1,1,5.89-6.06A6,6,0,0,1,67.7,45.29Z"/>
    <path class="cls-5" d="M54.34,27.12a6.09,6.09,0,1,1,5.9-6.05A6,6,0,0,1,54.34,27.12Z"/>
    <path class="cls-5" d="M81.28,27.12A6.09,6.09,0,1,1,87.17,21,6,6,0,0,1,81.28,27.12Z"/>
    <path class="cls-5" d="M24.59,44a6.1,6.1,0,1,1,5.88-6.14A6,6,0,0,1,24.59,44Z"/>
  </g>
</svg>
