<svg xmlns="http://www.w3.org/2000/svg" xmlns:xlink="http://www.w3.org/1999/xlink" viewBox="0 0 76.43 118.28">
  <defs>
    <style>
      .cls-1 {
        fill: none;
      }

      .cls-2 {
        clip-path: url(#clip-path);
      }

      .cls-3 {
        fill: #6bcf63;
      }

      .cls-4 {
        fill: #fe6801;
      }

      .cls-5 {
        fill: #feeef6;
      }

      .cls-6 {
        fill: #eee1f1;
      }

      .cls-7 {
        fill: #7d1893;
      }

      .cls-8 {
        fill: #28d328;
      }
    </style>
    <clipPath id="clip-path">
      <rect class="cls-1" x="244.31" y="-488.01" width="800" height="400"/>
    </clipPath>
  </defs>
  <title>p14</title>
  <g id="bg">
    <g class="cls-2">
      <path class="cls-3" d="M1978.37,67.74V56.31A503.61,503.61,0,0,0,1925.8,40.5a509.8,509.8,0,0,0-79.62-12.36,519.44,519.44,0,0,0-73.17-.32c-13.73.9-27.42,2.31-41,4.39a7.65,7.65,0,0,1-3.54-.48l-38.29-12.1c-.57-.18-1.17-.28-1.76-.42-14.09-4.36-28.15-8.82-42.28-13.07-22.65-6.8-45.35-13.47-68-20.18-.66-.2-1.34-.31-2-.46-10.93-3.21-21.84-6.5-32.79-9.62-30.51-8.68-61.06-17.19-91.72-25.29-.75-.19-1.52-.32-2.28-.48h0c-12-3.2-24-6.51-36.06-9.57-17.09-4.35-34.06-9.45-51.38-12.57-40.28-7.24-78.68-21.36-118.27-31-38.41-9.4-76.87-18.38-115.95-24.48s-77.74-7.59-118.18-7.9c-9.18-.08-18.1-.17-27.25.52a2.16,2.16,0,0,0-1.48.49,2.18,2.18,0,0,0-1.48-.49c-9.16-.69-18.32-1.29-27.49-1.5-39.61-.9-78.88,2.78-118,8.88q-7,1.09-13.92,2.3a412.19,412.19,0,0,0-43.46-11.6c-34.58-7.26-69.62-10.59-104.87-11.87-46.2-1.68-92.29.5-138.29,4.73-24.22,2.23-48.36,5.16-72.44,8.6q-36.68,5.24-73.08,12.06C369.6-127.66,351.37-131.62,333-135c-20.74-3.88-41.57-7.2-62.54-9.67-15-1.76-29.95-3.12-45-3.88a463.94,463.94,0,0,0-46.73-.36c-7.8.38-15.59.79-23.39,1.18-7.76-.37-15.33.33-23.29.38-15.61.08-31.17,1.13-46.74,1.92-15,.76-30,2.12-45,3.88-21,2.47-41.79,5.79-62.54,9.67C-78.94-121.32-134.43-108.86-189.86-93c-9.71,2.78-19.41,5.7-29.41,7.3-25.9,4.16-50.9,12.07-76.31,18.25-10.83,2.63-21.56,5.69-32.32,8.56a12.55,12.55,0,0,0-1.44.55c-5.23,1-10.28,2.71-15.42,4.08-25.93,6.9-51.72,14.28-77.51,21.68-10,2.86-19.89,5.81-29.84,8.72-26.31,7.57-52.52,15.5-78.69,23.53-6.85,2.1-13.66,4.3-20.49,6.46-11.81,3.65-23.74,7-35.4,11.09-5.64,2-11,2-16.69,1.23a508.41,508.41,0,0,0-85-4.25,513.2,513.2,0,0,0-69.44,7A476.38,476.38,0,0,0-840.69,43c-1.26.46-1.78,1-1.71,2.39.13,2.5.09,5,.12,7.53h0l-.09,3.63h488.6l336.84,0V67.74c-.48,2.09,1,1.56,2.08,1.56H1976.29C1977.34,69.3,1978.85,69.83,1978.37,67.74Z"/>
    </g>
  </g>
  <g id="character">
    <g>
      <path class="cls-4" d="M13.2,105c0-.54-.1-1.06-.15-1.58q-.29-3-.59-5.94c-.21-2.14-.43-4.28-.64-6.42-.1-1-.19-2-.3-3,0-.15,0-.19.17-.19l3.8-.13c.17,0,.14.11.15.2l.18,2.55c.17,2.62.35,5.25.53,7.87.15,2.21.29,4.43.44,6.65.14,2,.27,4,.42,5.92a6.66,6.66,0,0,1-5.41,7.18,10.52,10.52,0,0,1-9.29-2.71,7.12,7.12,0,0,1-2.36-3.79,5.52,5.52,0,0,1,2-5.68,9.16,9.16,0,0,1,5.63-2.08,9.66,9.66,0,0,1,5.29,1.12Z"/>
      <path class="cls-5" d="M8,108c-.76,0-1.4,0-2,0a1.1,1.1,0,0,1-.93-1.57,1.85,1.85,0,0,1,.65-.79,4.49,4.49,0,0,1,5.05,0,2.1,2.1,0,0,1,.56.59.94.94,0,0,1-.24,1.3,2.6,2.6,0,0,1-1.6.48C9,108,8.42,108,8,108Z"/>
      <path class="cls-5" d="M1.37,109.33A2.14,2.14,0,0,1,2,107.8a1,1,0,0,1,1.27-.2,1,1,0,0,1,.55,1.2,2.05,2.05,0,0,1-1.21,1.5.83.83,0,0,1-1.24-.79Z"/>
    </g>
    <g>
      <path class="cls-6" d="M29.31,63.25a.56.56,0,0,1,0,.12c0,.06,0,.05,0,0Z"/>
      <path class="cls-7" d="M46.27,63.08C46,62,45.73,61,45.43,60c-.21-.72-.38-1.45-.58-2.17s-.47-1.66-.7-2.5l-.54-2c-.36-1.32-.75-2.64-1.08-4,0-.15-.09-.2-.25-.15l-4.16,1-3.26.79c-1,.25-2.06.54-3.1.77s-2.09.53-3.15.74c-.79.17-1.57.38-2.36.57L23,53.83l-2.67.63-2.93.73L14.3,56c-.12,0-.14.07-.1.18.1.29.19.58.28.87.31,1,.61,1.9.92,2.85l1.11,3.42c.26.81.51,1.62.77,2.42,0,.11,0,.14-.09.1A5.32,5.32,0,0,0,15,65.62a6.26,6.26,0,0,0-2.61.9,4.88,4.88,0,0,0-1.71,1.7,3.31,3.31,0,0,0-.44,1.28,3.38,3.38,0,0,0,1,2.81,5.66,5.66,0,0,0,2.05,1.36,6.56,6.56,0,0,0,2.47.5,6,6,0,0,0,2.17-.39A4.33,4.33,0,0,0,20,72.16a3.87,3.87,0,0,0,.65-2.26A6.62,6.62,0,0,0,20.17,68c-.46-1.48-.89-3-1.35-4.44-.06-.2,0-.24.17-.28l1.34-.34,4-1,4.14-1.06c.14,0,.21,0,.24.12.21.76.41,1.52.62,2.28,0,0,0,.09,0,.13a.17.17,0,0,1-.12,0A5.72,5.72,0,0,0,27,63.29a6.17,6.17,0,0,0-3.18,1.41,4.11,4.11,0,0,0-1.19,1.58,3.27,3.27,0,0,0,.47,3.37,4.76,4.76,0,0,0,1.74,1.4,6.32,6.32,0,0,0,5.14.39,4.05,4.05,0,0,0,2.38-2A3.86,3.86,0,0,0,32.73,67c-.15-.9-.43-1.77-.66-2.65-.35-1.34-.72-2.68-1.08-4,0-.13,0-.15.11-.17l1.22-.31,2.73-.71,3.79-1,3.22-.86c.14,0,.2,0,.24.14.11.43.24.86.36,1.28s.23.89.35,1.35l-.22,0A4.92,4.92,0,0,0,40.7,60,6,6,0,0,0,37,61.87,3.56,3.56,0,0,0,36.05,64a3.5,3.5,0,0,0,1.29,3,4.84,4.84,0,0,0,1.19.79,6.38,6.38,0,0,0,5,.43,4.11,4.11,0,0,0,2.27-1.67A4,4,0,0,0,46.27,63.08ZM28,58.8l-3.9,1-3.23.85-2.55.65-.06,0c-.06,0-.09,0-.11-.07-.11-.36-.23-.72-.34-1.09,0-.1,0-.16.14-.18l2.7-.7,3.78-1,3.34-.73c.09.38.2.75.3,1.12C28.07,58.74,28.06,58.78,28,58.8Zm13.6-3.49c-1.28.3-2.55.64-3.81,1-1.58.41-3.17.8-4.75,1.2L31.23,58l-.81.19c-.05,0-.07-.06-.08-.11l-.27-1c0-.11,0-.13.11-.15l4-1,4-1,3-.74c.13,0,.18,0,.22.1.1.3.14.62.26.92C41.72,55.27,41.62,55.29,41.57,55.31Z"/>
      <path class="cls-5" d="M40.54,60.45a1.73,1.73,0,0,1,1.21.45.58.58,0,0,1,0,.89,1.84,1.84,0,0,1-.82.42l-1.92.5a.68.68,0,0,1-.81-.86,1.81,1.81,0,0,1,1.08-1.1A2.65,2.65,0,0,1,40.54,60.45Z"/>
      <path class="cls-5" d="M26.85,64.1a1.76,1.76,0,0,1,1.1.41.61.61,0,0,1,0,.95,2.6,2.6,0,0,1-1.06.47c-.52.12-1,.26-1.55.39a.66.66,0,0,1-.72-.11.78.78,0,0,1-.15-.87,1.72,1.72,0,0,1,.79-.83A3,3,0,0,1,26.85,64.1Z"/>
      <path class="cls-5" d="M14.89,66.38a1.86,1.86,0,0,1,1.37.48.57.57,0,0,1,.06.64,1.55,1.55,0,0,1-1,.66c-.57.16-1.14.29-1.71.43s-.72,0-.87-.25a1,1,0,0,1,.19-1.08,3,3,0,0,1,1.44-.82A2.09,2.09,0,0,1,14.89,66.38Z"/>
      <path class="cls-5" d="M22.67,67.54a1.09,1.09,0,0,1,.15-.63.66.66,0,0,1,.74-.34.62.62,0,0,1,.49.61,1.22,1.22,0,0,1-.45,1c-.47.38-.79.07-.89-.34A1.86,1.86,0,0,1,22.67,67.54Z"/>
      <path class="cls-5" d="M10.89,69.82a1.14,1.14,0,0,1,.2-.72.66.66,0,0,1,1.19.38,1.25,1.25,0,0,1-.45,1c-.52.4-.79.06-.91-.35A1.84,1.84,0,0,1,10.89,69.82Z"/>
      <path class="cls-5" d="M36.43,63.9A1.23,1.23,0,0,1,36.8,63a.68.68,0,0,1,1,.28,1.25,1.25,0,0,1-.61,1.4.48.48,0,0,1-.63-.28A1.35,1.35,0,0,1,36.43,63.9Z"/>
    </g>
    <g>
      <path class="cls-8" d="M76.42,6.06c-.09-.22-.45-.19-.69-.25l-5.37-1.5L65.08,2.84,58.37,1c-1.15-.32-2.3-.63-3.45-1-.23-.06-.27,0-.31.19-.23,1.17-.47,2.35-.7,3.52q-.52,2.57-1,5.13c-.26,1.32-.52,2.64-.79,4-.13.69-.27,1.38-.41,2.07,0,.07,0,.17-.11.19s-.08-.09-.13-.14l-.53-.46a8.66,8.66,0,0,0-3.53-1.77,7.92,7.92,0,0,0-6.61.94A4.77,4.77,0,0,0,39,15.79a5.73,5.73,0,0,0,.39,4.93,9.51,9.51,0,0,0,3.45,3.81,7.78,7.78,0,0,0,6.49,1.23A5.65,5.65,0,0,0,52.83,23a8.2,8.2,0,0,0,.81-2.4c.3-1.44.62-2.87.93-4.3l.66-3c0-.15.05-.27.31-.2,1.75.5,3.52,1,5.28,1.43l3.9,1.08c1.67.45,3.35.91,5,1.34.28.07.29.2.24.42-.11.41-.22.83-.32,1.25-.18.71-.36,1.41-.55,2.18a8.73,8.73,0,0,0-1.4-1.11A9.4,9.4,0,0,0,62,18.29a6.53,6.53,0,0,0-3.82,1.42,4.89,4.89,0,0,0-1.72,4.9,8,8,0,0,0,2,3.94,9.72,9.72,0,0,0,4,2.78,7.07,7.07,0,0,0,5,.17,5.74,5.74,0,0,0,2.85-2.2,7.92,7.92,0,0,0,1.08-2.64c.48-1.87,1-3.73,1.43-5.61.54-2.18,1.09-4.36,1.61-6.55.61-2.57,1.29-5.13,1.94-7.7C76.33,6.55,76.49,6.26,76.42,6.06Zm-5.09,5.77c-.18.73-.33,1.4-.51,2.06,0,.15-.22,0-.31,0-.66-.17-1.31-.37-2-.55-2-.54-3.93-1.1-5.91-1.61S58.39,10.6,56.27,10C56,10,56,9.93,56,9.66a13.52,13.52,0,0,0,.34-1.56c0-.24.1-.26.33-.2l6.7,1.78,6.82,1.78.94.23C71.25,11.71,71.36,11.75,71.33,11.83Z"/>
      <path class="cls-5" d="M64,19.08a4,4,0,0,1,3,1.21,2,2,0,0,1,.58,1.07.88.88,0,0,1-.79,1,2.81,2.81,0,0,1-1.26-.07c-.92-.27-1.83-.56-2.73-.86-.46-.15-.89-.34-.9-.93a1.29,1.29,0,0,1,.9-1.24A2.9,2.9,0,0,1,64,19.08Z"/>
      <path class="cls-5" d="M46.05,13.47a3.94,3.94,0,0,1,3.19,1.58,1.09,1.09,0,0,1,0,1.47,1.43,1.43,0,0,1-1.21.29,10.88,10.88,0,0,1-2.33-.65,6.67,6.67,0,0,1-1.44-.51,1,1,0,0,1-.13-1.58A2.69,2.69,0,0,1,46.05,13.47Z"/>
      <path class="cls-5" d="M40.06,16.2a2.07,2.07,0,0,1,1.19-1.7,1,1,0,0,1,1.14.45,1,1,0,0,1-.15,1.24,2,2,0,0,1-1.32.73A.73.73,0,0,1,40.06,16.2Z"/>
      <path class="cls-5" d="M58.09,21.79a1.94,1.94,0,0,1,1.27-1.71,1,1,0,0,1,.92,1.67,1.93,1.93,0,0,1-1.34.76C58.41,22.55,58.12,22.33,58.09,21.79Z"/>
    </g>
  </g>
</svg>
