<svg xmlns="http://www.w3.org/2000/svg" width="492.35" height="497.07" viewBox="0 0 492.35 497.07">
  <defs>
    <style>
      .cls-1 {
        fill: #fcf1d4;
      }
    </style>
  </defs>
  <title>06_sunligh</title>
  <g id="boat04">
    <polygon class="cls-1" points="63.17 224.18 10.33 172.76 73.07 164.08 46.89 113.89 113.3 122.3 103.21 51.48 152.75 77.81 160.63 22.96 207.83 61.66 241.85 0 271.05 61.91 316 14.11 328.79 84.17 389.98 51.38 382.02 108 439.51 97.3 411.79 157.47 474.56 167.5 430.45 216.22 492.35 244.91 428.42 279.36 476.9 328.8 424.9 336.19 450.32 383.68 375.96 374 388.71 444.95 337.35 419.42 329.86 484.98 277.19 430 244.7 497.07 217.63 446.84 180.24 485.19 165.83 411.49 101.98 444.16 108.97 389.27 55.12 398.36 81.99 337.26 9.57 324.12 53.3 283.39 0 261.34 63.17 224.18"/>
  </g>
</svg>
