<svg id="Layer_1" data-name="Layer 1" xmlns="http://www.w3.org/2000/svg" xmlns:xlink="http://www.w3.org/1999/xlink" width="1024" height="600" viewBox="0 0 1024 600">
  <defs>
    <style>
      .cls-1, .cls-15, .cls-17 {
        fill: none;
      }

      .cls-2 {
        fill: #955333;
      }

      .cls-3 {
        fill: #a86240;
      }

      .cls-4 {
        fill: #904e2b;
      }

      .cls-5 {
        fill: #965633;
      }

      .cls-6 {
        fill: #fbbc86;
      }

      .cls-7 {
        fill: #9a5a36;
      }

      .cls-8 {
        fill: #fcbd87;
      }

      .cls-9 {
        fill: #fff;
      }

      .cls-10 {
        fill: #231f20;
      }

      .cls-11 {
        fill: #753313;
      }

      .cls-12 {
        fill: #562810;
      }

      .cls-13 {
        fill: #8b5e3c;
      }

      .cls-14 {
        clip-path: url(#clip-path);
      }

      .cls-15, .cls-17 {
        stroke: #a97c50;
        stroke-linecap: round;
        stroke-linejoin: round;
      }

      .cls-15 {
        stroke-width: 0.99px;
      }

      .cls-16 {
        clip-path: url(#clip-path-2);
      }

      .cls-17 {
        stroke-width: 1.33px;
      }

      .cls-18 {
        clip-path: url(#clip-path-3);
      }
    </style>
    <clipPath id="clip-path">
      <path id="SVGID" class="cls-1" d="M677.72,77.45c-.67.1-1.92,1.23-3,2.74-2,2.74-4.91,6.77-4.32,7.07.88.44,30.54-6.73,30.34,22.36-1.81-.9-4-1.91-6.75-3-8.93-3.46-13-5.79-18.22-2.9a7.33,7.33,0,0,0-2.13,2.36l-2.69,4.5c-.7,1.18-.73,1.9,0,1.55a11.19,11.19,0,0,1,7.33-1.05c4.35.91,15.7,8.58,23.79,8.4,2.77,5.53,7.82,8.24,13,10.57,5.54,2.48,13.81,1.81,17.4,6.86,1.31,1.84,1.87,4.61,3.32,6.26,3,3.44,10.09.25,15.54.13,3.88-.09,5.45,4.09,8.12,5.8q7.94,5.09,15.74,10.38c.66.45,2.72-1.24,4.55-3.72l5.12-7c1.71-2.33,2.6-4.52,2-5C785,142.37,779.44,139,763,132.41c-35.68-14.34-50.44-2.7-55-31.87C704.08,74.93,682.85,76.65,677.72,77.45Z"/>
    </clipPath>
    <clipPath id="clip-path-2">
      <path id="SVGID-2" data-name="SVGID" class="cls-1" d="M167.06,210.85a2.75,2.75,0,0,1,.48-3.4c1.66-1.3,4.25-2.92,5.39-1.36,1.68,2.32,25.82,56.77,68.51,88q-5.18-7.18-12.27-17.39c-15.55-22.5-23.74-33.53-25.61-41.39a1.46,1.46,0,0,1,1-1.9l3.49-.75a2.08,2.08,0,0,1,2.24,1.6c.64,2.36,2.38,6.93,7,14.24,6.43,10.11,31,42.29,40.24,59.06C269,319.4,278.87,333,288.4,346.42c10.15,14.33,18.84,30.95,30.49,44,4.24,4.74,9,8.94,13.13,13.78,8.64,10.12,12.18,21.45,18.38,32.74,4.41,8,12.42,15.89,18.06,23.34q16.82,22.21,33.75,44.33c1.43,1.87,1.36,4.36-.17,5.49l-4.27,3.17c-1.43,1.06-3.63.53-5-1.2C388.4,506.53,377,491.26,348,449.7c-62.93-90.46-63-108.77-111.39-150.05C194.19,263.42,171.88,220.75,167.06,210.85Z"/>
    </clipPath>
    <clipPath id="clip-path-3">
      <path id="SVGID-3" data-name="SVGID" class="cls-1" d="M717.53,461.38a2.75,2.75,0,0,1-.21,3.43c-1.55,1.43-4,3.25-5.26,1.78-1.86-2.18-30.27-54.53-75.31-82.25q5.74,6.75,13.62,16.35c17.3,21.19,26.33,31.53,28.83,39.21a1.46,1.46,0,0,1-.83,2l-3.42,1a2.08,2.08,0,0,1-2.36-1.41c-.83-2.3-2.92-6.72-8.14-13.63-7.22-9.57-34.32-39.68-44.82-55.66-12.31-10.88-23.28-23.6-33.85-36.27-11.26-13.47-21.25-29.35-33.9-41.41-4.61-4.39-9.68-8.19-14.19-12.69-9.42-9.4-13.86-20.41-20.93-31.17-5-7.67-13.65-14.85-19.86-21.83Q478.34,208,459.7,187.34c-1.58-1.75-1.7-4.24-.27-5.49l4-3.5c1.34-1.17,3.57-.82,5.08.8,4.79,5.15,17.42,19.45,49.55,58.58,69.94,85.16,71.49,103.4,123,140.69C686.29,411.15,711.93,451.91,717.53,461.38Z"/>
    </clipPath>
  </defs>
  <title>10_monkeys_playing_passing_the_sticks</title>
  <g>
    <path class="cls-2" d="M159.68,502.36a3.38,3.38,0,0,0-1.67-6.53c-1.26.21-29.88,4.58-52.63-22.52A53.93,53.93,0,0,1,99,463.56c-6.75-12.87-25-42.75-49-42.34-17.76.31-28.55,12.48-31.05,23.67-2.41,10.75,2,20.35,11.56,25.05a20.15,20.15,0,0,0,21.47-1.76c5.8-4.39,8.78-11.35,7.6-17.73-.68-3.68-3.41-10.31-14-13.37a3.38,3.38,0,0,0-1.88,6.49c5.34,1.55,8.53,4.35,9.23,8.11s-1.31,8.29-5,11.11a13.35,13.35,0,0,1-14.4,1.09c-6.7-3.3-9.67-9.84-8-17.51C27.46,437.68,36,428.23,50.09,428c20.8-.36,38.11,29.55,42.92,38.72a60.64,60.64,0,0,0,7.2,11c25.34,30.2,57.58,25.07,58.94,24.84A3.38,3.38,0,0,0,159.68,502.36Z"/>
    <g>
      <path class="cls-3" d="M248.42,425c3.09.68,4.31-2.36,3.09-4.7-1-2-3.52-3.26-5.54-4a12.5,12.5,0,0,0-9.82.2,12.69,12.69,0,0,0-6.48,14.62,19.9,19.9,0,0,0,2.57,5.1,12.4,12.4,0,0,0,3.24,3.62,5,5,0,0,0,4.64.68,3.17,3.17,0,0,0,1.77-4c1,1.42,3.41,1.06,4.31-.4a4.42,4.42,0,0,0-.54-4.81,3.47,3.47,0,0,0,2.76-6.25Z"/>
      <path class="cls-4" d="M171.43,420.2c.41.36,7.56-2.73,8.24-2.94A101.16,101.16,0,0,1,200,413.17a71.93,71.93,0,0,1,17.25.36,54.17,54.17,0,0,1,8.87,2.08c1.3.43,2.69,1.29,4,1.59,1.89.43,4.22-.26,6.13-.4a9.43,9.43,0,0,1,6.19,1.29,21.48,21.48,0,0,0-4.81.73,16.45,16.45,0,0,1,2.87,3.44,8.68,8.68,0,0,0-4.43.35,23.41,23.41,0,0,1,2,6.16l-4.52-2.63,1.8,7.12a20.93,20.93,0,0,1-3.87-4.31l-.36,5.9-3.27-5.68c-1.14-2-2-2.78-4.13-3.31-1.6-.39-3.18-.84-4.79-1.19a68.75,68.75,0,0,0-11.64-1.54c-8.59-.35-17.69,1.27-24.35,7.07Z"/>
    </g>
    <g>
      <path class="cls-3" d="M70.31,486.38c-2.16,2.31-4.89.49-5.21-2.13-.28-2.25,1.06-4.68,2.28-6.47a12.5,12.5,0,0,1,8.21-5.39,12.69,12.69,0,0,1,13.61,8.4,19.9,19.9,0,0,1,.77,5.66,12.4,12.4,0,0,1-.62,4.82,5,5,0,0,1-3.44,3.18,3.17,3.17,0,0,1-3.73-2.31c0,1.71-2.22,2.8-3.79,2.11A4.42,4.42,0,0,1,76.12,490a3.47,3.47,0,0,1-5.81-3.6Z"/>
      <path class="cls-4" d="M131,438.83c-.14.53-7.78,2-8.46,2.24a101.16,101.16,0,0,0-19,8.11,71.93,71.93,0,0,0-14,10.05A54.17,54.17,0,0,0,83.38,466c-.83,1.09-1.49,2.59-2.39,3.57-1.32,1.43-3.63,2.17-5.28,3.14a9.43,9.43,0,0,0-4.38,4.57,21.48,21.48,0,0,1,4.38-2.12,16.45,16.45,0,0,0-.42,4.46,8.68,8.68,0,0,1,3.85-2.21,23.41,23.41,0,0,0,1.8,6.24l2.24-4.73,2.55,6.89a20.93,20.93,0,0,0,.75-5.74l3.64,4.66-.51-6.54c-.18-2.29.06-3.42,1.53-5.07,1.09-1.23,2.15-2.49,3.28-3.68a68.75,68.75,0,0,1,8.73-7.86c6.89-5.15,15.3-9,24.08-7.95Z"/>
    </g>
    <g>
      <circle class="cls-5" cx="197.03" cy="388.17" r="10.89" transform="translate(-110.05 79.63) rotate(-17.95)"/>
      <circle class="cls-6" cx="193.49" cy="388.35" r="7" transform="translate(-110.28 78.55) rotate(-17.95)"/>
    </g>
    <g>
      <path class="cls-3" d="M232.36,547.31s-16.47,4-15.81,13.08,14.1,6.74,20.82,6.76,19.82.37,19.83-3.66-6-3.37-6-3.37,5.71-.66,5.38-4.36-5.06-2.2-5.06-2.2,3.39-.49,3.39-3.52-4.37-1.35-4.37-1.35,4.37-1.11,3.37-3.69C252.34,541,232.36,547.31,232.36,547.31Z"/>
      <path class="cls-2" d="M194.22,485.43c.17-.17,3,1.9,3.23,2a71.69,71.69,0,0,1,8.09,6.52,87.39,87.39,0,0,1,20.28,28.56A94.7,94.7,0,0,1,230.05,534c1,3.48,1,9.22,5.07,10.4,1.7.49,3.59.51,5.07,1.48-1.92.32-2.3.75-4,1.7,2,.66,3.21,2,5,3.92-2-.15-3.66,1.09-5.48.56.62,2.34,1.63,4.2,1.73,6.62a20.49,20.49,0,0,0-4.26-3,41,41,0,0,1,.2,6.22,20.66,20.66,0,0,1-6.83-5.8,50.6,50.6,0,0,0-5.65,5.27,39.24,39.24,0,0,1-.51-5.36,6,6,0,0,0-3.72,2.38c1-1.39,1.48-3.82,2-5.45a25.57,25.57,0,0,0,1.16-5.83c.19-3-.65-6-1.35-8.9A76.94,76.94,0,0,0,212.63,522a61.75,61.75,0,0,0-27.39-27.87Z"/>
    </g>
    <g>
      <path class="cls-3" d="M100.95,552.51s16.29,4.69,15.26,13.72-14.37,6.15-21.08,5.88-19.82-.46-19.66-4.49,6.18-3.12,6.18-3.12-5.68-.9-5.2-4.58,5.15-2,5.15-2-3.36-.63-3.24-3.65,4.42-1.17,4.42-1.17-4.32-1.29-3.21-3.83C81.25,545.42,100.95,552.51,100.95,552.51Z"/>
      <path class="cls-2" d="M141.63,492.27c-.16-.17-3.11,1.77-3.31,1.9a71.69,71.69,0,0,0-8.35,6.18A87.39,87.39,0,0,0,108.51,528a94.7,94.7,0,0,0-4.7,11.26c-1.18,3.44-1.34,9.18-5.5,10.18-1.72.42-3.6.36-5.13,1.27,1.9.4,2.27.85,3.93,1.86-2.07.58-3.29,1.82-5.18,3.71,2-.07,3.61,1.25,5.45.79-.72,2.32-1.8,4.12-2,6.54a20.49,20.49,0,0,1,4.39-2.8,41,41,0,0,0-.46,6.21,20.66,20.66,0,0,0,7.07-5.51,50.6,50.6,0,0,1,5.43,5.5,39.24,39.24,0,0,0,.74-5.33,6,6,0,0,1,3.62,2.53c-.94-1.43-1.32-3.88-1.75-5.53a25.57,25.57,0,0,1-.91-5.88c-.07-3,.9-6,1.72-8.84a76.94,76.94,0,0,1,6.51-16,61.75,61.75,0,0,1,28.53-26.7Z"/>
    </g>
    <ellipse class="cls-7" cx="161.51" cy="459.32" rx="41.73" ry="47.54" transform="translate(-140.18 77.16) rotate(-18.92)"/>
    <ellipse class="cls-8" cx="163.47" cy="465.06" rx="29.29" ry="33.38" transform="translate(-141.93 78.11) rotate(-18.92)"/>
    <g>
      <circle class="cls-5" cx="93.95" cy="415.74" r="10.89" transform="translate(-123.57 49.2) rotate(-17.95)"/>
      <circle class="cls-6" cx="96.92" cy="413.81" r="7" transform="translate(-122.83 50.02) rotate(-17.95)"/>
    </g>
    <ellipse class="cls-7" cx="140.55" cy="384.33" rx="51.24" ry="47.51" transform="translate(-111.62 62.03) rotate(-17.95)"/>
    <path class="cls-6" d="M100.43,395.91a22.72,22.72,0,0,1,36.36-24.3,22.72,22.72,0,1,1,40.56,18.56,15.33,15.33,0,0,1,2.72,4.9c3.87,11.95-7.88,26.45-26.24,32.4s-36.39,1.09-40.26-10.86a15.57,15.57,0,0,1-.59-6.91A22.66,22.66,0,0,1,100.43,395.91Z"/>
    <g>
      <circle class="cls-9" cx="164.91" cy="392.42" r="10.16" transform="translate(-112.92 69.93) rotate(-17.95)"/>
      <circle class="cls-10" cx="164.91" cy="392.42" r="6.84" transform="translate(-112.92 69.93) rotate(-17.95)"/>
      <circle class="cls-9" cx="161.17" cy="389.72" r="2.49" transform="translate(-112.27 68.65) rotate(-17.95)"/>
    </g>
    <g>
      <circle class="cls-9" cx="124.86" cy="405.4" r="10.16" transform="translate(-118.87 58.22) rotate(-17.95)"/>
      <circle class="cls-10" cx="124.86" cy="405.4" r="6.84" transform="translate(-118.87 58.22) rotate(-17.95)"/>
      <circle class="cls-9" cx="121.12" cy="402.69" r="2.49" transform="matrix(0.95, -0.31, 0.31, 0.95, -118.22, 56.94)"/>
    </g>
    <path class="cls-11" d="M148.64,408.48a.53.53,0,0,1-.68-.63c.29-1.27,1-3.44,2.44-3.64,2.05-.28,3.61,2.14,2.61,2.66C152.3,407.25,149.93,408.06,148.64,408.48Z"/>
    <path class="cls-11" d="M145.88,409.38a.53.53,0,0,0,.18-.9c-1-.86-2.83-2.2-4.11-1.51-1.82,1-1.67,3.85-.56,3.68C142.18,410.52,144.58,409.79,145.88,409.38Z"/>
    <circle class="cls-12" cx="145.07" cy="419.53" r="3.71" transform="translate(-122.25 65.14) rotate(-17.95)"/>
  </g>
  <g>
    <path class="cls-13" d="M677.72,77.45c-.67.1-1.92,1.23-3,2.74-2,2.74-4.91,6.77-4.32,7.07.88.44,30.54-6.73,30.34,22.36-1.81-.9-4-1.91-6.75-3-8.93-3.46-13-5.79-18.22-2.9a7.33,7.33,0,0,0-2.13,2.36l-2.69,4.5c-.7,1.18-.73,1.9,0,1.55a11.19,11.19,0,0,1,7.33-1.05c4.35.91,15.7,8.58,23.79,8.4,2.77,5.53,7.82,8.24,13,10.57,5.54,2.48,13.81,1.81,17.4,6.86,1.31,1.84,1.87,4.61,3.32,6.26,3,3.44,10.09.25,15.54.13,3.88-.09,5.45,4.09,8.12,5.8q7.94,5.09,15.74,10.38c.66.45,2.72-1.24,4.55-3.72l5.12-7c1.71-2.33,2.6-4.52,2-5C785,142.37,779.44,139,763,132.41c-35.68-14.34-50.44-2.7-55-31.87C704.08,74.93,682.85,76.65,677.72,77.45Z"/>
    <g class="cls-14">
      <g>
        <path class="cls-15" d="M735,134a13.64,13.64,0,0,1,5-1.88c5.92-.59,5.48,7.92,12.39,5.79"/>
        <path class="cls-15" d="M737.48,137l4.83,4.58c-1.73.52-3.47,1-4.52.57s-1.32-2.11-.08-5.06"/>
        <path class="cls-15" d="M758,136.87c4.84,1,6.54,6.17,9,10.28s6.06,7.16,13.71,3.77"/>
        <path class="cls-15" d="M675.62,81.18c10.71-2,17.12,2.27,23.41,6.57,2.23,1.52,4.46,3.06,5.77,5.76,2.34,4.83,1.67,13.33,4.82,17.14,1.89,2.28,5.11,2.81,7.69,4.18,4.87,2.57,7.51,8.1,12.1,11,3.36,2.16,7.75,2.92,12.13,3.68l17.5,3"/>
        <path class="cls-15" d="M673.27,107.24c10.48-3.57,13,4.65,20.7,5.36,2.45.23,5.44-.31,7.69.21,2.55.6,4.11,2.55,5.77,4.35a43.36,43.36,0,0,0,13.82,10c6.19,2.83,13.45,4.89,11.24,17.69"/>
        <path class="cls-15" d="M682.58,114.38c3.87,2.61,8.8,3.8,14.71,3.54a23.81,23.81,0,0,1,5.6,0c2.47.53,4,2.42,5.43,4.31l9.34,11.93"/>
        <path class="cls-15" d="M760.26,129.93c5.66,5.4,11.33,10.8,18.8,13.78,3.24,1.29,6.82,2.13,9.21,4.56"/>
      </g>
    </g>
  </g>
  <g>
    <path class="cls-2" d="M498.9,412.86a5,5,0,0,1-.47-10c1.88-.25,44.5-6.47,65.08-54.92a80.22,80.22,0,0,0,4.86-16.64c4-21.24,17-71.71,51.34-81.55,25.4-7.28,46,5.34,54.47,20.17,8.1,14.25,6,29.83-5.55,40.66-8.77,8.25-20.48,10.8-31.31,6.83-10.16-3.73-17.43-12.33-18.52-21.91-.63-5.53.36-16.15,14.1-25.11a5,5,0,0,1,5.49,8.42c-6.93,4.52-10.25,9.9-9.6,15.56s5.47,11.22,12,13.61c7.28,2.67,14.93,1,21-4.71,8.09-7.6,9.47-18.21,3.7-28.37-6.54-11.51-22.77-21.26-43-15.47-29.74,8.53-41.38,58.6-44.23,73.75a90.2,90.2,0,0,1-5.49,18.71c-22.93,54-71,60.7-73,61A5,5,0,0,1,498.9,412.86Z"/>
    <g>
      <path class="cls-3" d="M343.81,459c-1.15,4.56-6,4.15-8.32,1-2-2.73-2-6.85-1.69-10.06a18.59,18.59,0,0,1,6.8-12.93,18.88,18.88,0,0,1,23.77,1.13,29.6,29.6,0,0,1,5.07,6.82,18.44,18.44,0,0,1,2.66,6.72,7.42,7.42,0,0,1-2.19,6.62c-1.86,1.56-5,1.58-6.51-.32,1.24,2.23-.87,5.24-3.41,5.47s-4.89-1.65-6-3.93a5.16,5.16,0,0,1-10.15-.5Z"/>
      <path class="cls-4" d="M388.67,353.39c.2.79-8.67,8.23-9.4,9a150.48,150.48,0,0,0-19,24.26,107,107,0,0,0-11,23.18A80.59,80.59,0,0,0,346.14,423c-.3,2-.08,4.44-.55,6.37-.69,2.81-3.16,5.44-4.61,7.89-1.63,2.76-2.92,5.93-2.42,9.1a32,32,0,0,1,4.17-5.91,24.48,24.48,0,0,0,2.66,6.11,12.92,12.92,0,0,1,3.42-5.65,34.82,34.82,0,0,0,6.84,6.82l-.49-7.76,8.28,7.14a31.13,31.13,0,0,0-3.15-8l8.09,3.45L363,434.42c-1.88-2.85-2.38-4.49-1.65-7.7.54-2.39,1-4.78,1.61-7.15A102.27,102.27,0,0,1,368.68,403c5.26-11.67,13.47-22.68,25.63-27.68Z"/>
    </g>
    <g>
      <path class="cls-3" d="M541.8,255c4.21-2.09,2.78-6.76-.82-8.33-3.09-1.35-7.12-.47-10.19.5a18.59,18.59,0,0,0-11.18,9.41,18.88,18.88,0,0,0,6.18,23,29.6,29.6,0,0,0,7.74,3.5,18.44,18.44,0,0,0,7.13,1.17,7.42,7.42,0,0,0,6-3.56c1.13-2.15.48-5.23-1.7-6.29,2.44.74,4.94-2,4.62-4.5s-2.66-4.43-5.13-5.06A5.16,5.16,0,0,0,541.8,255Z"/>
      <path class="cls-4" d="M448.19,321.4c.81,0,6.19-10.22,6.79-11.1a150.48,150.48,0,0,1,19.66-23.7,107,107,0,0,1,20.3-15.72A80.59,80.59,0,0,1,507.14,265c1.91-.72,4.32-1,6.1-1.9,2.59-1.27,4.64-4.25,6.72-6.19,2.34-2.18,5.17-4.12,8.37-4.3a32,32,0,0,0-4.88,5.34,24.48,24.48,0,0,1,6.54,1.3,12.92,12.92,0,0,0-4.79,4.55,34.82,34.82,0,0,1,8.13,5.22l-7.69,1.18,8.74,6.56a31.13,31.13,0,0,1-8.51-1.37l5.1,7.17-9.1-3.51c-3.18-1.23-4.9-1.36-7.88,0-2.22,1-4.46,2-6.65,3.1a102.27,102.27,0,0,0-14.91,9.1c-10.27,7.62-19.28,18-21.57,31Z"/>
    </g>
    <g>
      <circle class="cls-5" cx="331.65" cy="345.17" r="16.2" transform="translate(-133.2 230.95) rotate(-32.34)"/>
      <circle class="cls-6" cx="335.22" cy="341.29" r="10.41" transform="translate(-130.57 232.26) rotate(-32.34)"/>
    </g>
    <g>
      <path class="cls-3" d="M425.68,535.63s25.11-2.31,28.56,10.78-16.59,16.29-26,19.55-27.72,10.08-29.67,4.41,6.88-7.66,6.88-7.66-8.36,1.82-9.68-3.54,6.06-5.54,6.06-5.54-5,.94-6.47-3.31,5.49-4,5.49-4-6.68.55-6.52-3.57C394.54,536.44,425.68,535.63,425.68,535.63Z"/>
      <path class="cls-2" d="M449.51,430.16c-.32-.15-3.36,4.14-3.56,4.42a106.64,106.64,0,0,0-8.24,13.08,130,130,0,0,0-14.77,50,140.87,140.87,0,0,0-.43,18.14c.22,5.41,3.11,13.44-2.12,17.08-2.16,1.51-4.8,2.45-6.42,4.53,2.85-.47,3.6-.05,6.45.46-2.55,1.92-3.57,4.3-5.17,7.93,2.71-1.17,5.68-.23,8-1.85.25,3.6-.26,6.69.75,10.15a30.48,30.48,0,0,1,4.56-6.26,61,61,0,0,0,2.72,8.85,30.74,30.74,0,0,0,6.82-11.45,75.27,75.27,0,0,1,10.49,4.69,58.37,58.37,0,0,0-1.86-7.79,9,9,0,0,1,6.38,1.55c-2.08-1.47-3.93-4.66-5.41-6.71a38,38,0,0,1-4.44-7.65c-1.72-4.15-2-8.75-2.39-13.18a114.46,114.46,0,0,1,.39-25.66A91.86,91.86,0,0,1,466.33,438Z"/>
    </g>
    <g>
      <path class="cls-3" d="M600,443.59s-19.08,16.49-12,28.05,23.24-.66,32.14-5.21,26.48-13,23.75-18.32-10.29-.35-10.29-.35,7.11-4.76,4.16-9.43-8.19.53-8.19.53,4.15-2.95,2.1-7-6.7,1.18-6.7,1.18,5-4.43,1.95-7.17C622.2,421.72,600,443.59,600,443.59Z"/>
      <path class="cls-2" d="M507.5,387.62c.11-.34,5.31.45,5.65.5a106.64,106.64,0,0,1,15.14,3.13,130,130,0,0,1,46.25,24,140.87,140.87,0,0,1,13.37,12.27c3.74,3.9,7.53,11.56,13.78,10.32,2.58-.51,5.09-1.76,7.71-1.48-2.32,1.73-2.53,2.56-4.14,5,3.15-.51,5.57.41,9.3,1.77-2.72,1.14-4.1,3.94-6.87,4.47,2.42,2.68,5,4.45,6.79,7.58a30.48,30.48,0,0,0-7.67-1.05,61,61,0,0,1,4.49,8.1,30.74,30.74,0,0,1-13-3,75.27,75.27,0,0,0-3.9,10.81,58.37,58.37,0,0,1-4.32-6.74,9,9,0,0,0-3.3,5.67c.38-2.52-.64-6.06-1.08-8.56a38,38,0,0,0-2.43-8.5c-1.79-4.11-4.93-7.49-7.84-10.87a114.46,114.46,0,0,0-18.76-17.52,91.86,91.86,0,0,0-55.18-18.27Z"/>
    </g>
    <ellipse class="cls-7" cx="448.4" cy="372.44" rx="62.07" ry="70.72" transform="translate(-129.68 297.64) rotate(-32.34)"/>
    <ellipse class="cls-8" cx="453.23" cy="380.07" rx="43.58" ry="49.65" transform="translate(-133.01 301.41) rotate(-32.34)"/>
    <g>
      <circle class="cls-5" cx="461.17" cy="253.39" r="16.2" transform="translate(-64.02 286) rotate(-32.34)"/>
      <circle class="cls-6" cx="456.13" cy="254.96" r="10.41" transform="translate(-65.64 283.55) rotate(-32.34)"/>
    </g>
    <ellipse class="cls-7" cx="380.94" cy="276.88" rx="76.23" ry="70.67" transform="translate(-89.03 246.73) rotate(-32.34)"/>
    <path class="cls-6" d="M432.32,242A33.8,33.8,0,0,0,370,260.49a33.79,33.79,0,1,0-17.3,64.05,22.8,22.8,0,0,0,3,7.77c10,15.78,37.76,16.12,62,.76s35.83-40.61,25.84-56.39a23.16,23.16,0,0,0-7.34-7.24A33.71,33.71,0,0,0,432.32,242Z"/>
    <g>
      <circle class="cls-9" cx="367.04" cy="312.44" r="15.11" transform="translate(-110.2 244.81) rotate(-32.34)"/>
      <circle class="cls-10" cx="367.04" cy="312.44" r="10.17" transform="matrix(0.84, -0.53, 0.53, 0.84, -110.2, 244.81)"/>
      <circle class="cls-9" cx="367.51" cy="305.59" r="3.7" transform="translate(-106.47 244) rotate(-32.34)"/>
    </g>
    <g>
      <circle class="cls-9" cx="419.95" cy="278.94" r="15.11" transform="translate(-84.08 267.92) rotate(-32.34)"/>
      <circle class="cls-10" cx="419.95" cy="278.94" r="10.17" transform="translate(-84.08 267.92) rotate(-32.34)"/>
      <circle class="cls-9" cx="420.42" cy="272.09" r="3.7" transform="translate(-80.34 267.1) rotate(-32.34)"/>
    </g>
    <path class="cls-11" d="M400.89,309.09a.78.78,0,0,0-.07-1.37c-1.73-.87-4.89-2.13-6.49-.66-2.26,2.09-1,6.17.56,5.51C396,312.1,399.17,310.16,400.89,309.09Z"/>
    <path class="cls-11" d="M404.54,306.78a.78.78,0,0,1-1.21-.65c0-1.94.16-5.33,2.17-6.15,2.85-1.16,6,1.75,4.75,2.86C409.36,303.64,406.24,305.69,404.54,306.78Z"/>
    <circle class="cls-12" cx="416.92" cy="315.51" r="5.52" transform="translate(-104.11 271.97) rotate(-32.34)"/>
  </g>
  <g>
    <path class="cls-13" d="M167.06,210.85a2.75,2.75,0,0,1,.48-3.4c1.66-1.3,4.25-2.92,5.39-1.36,1.68,2.32,25.82,56.77,68.51,88q-5.18-7.18-12.27-17.39c-15.55-22.5-23.74-33.53-25.61-41.39a1.46,1.46,0,0,1,1-1.9l3.49-.75a2.08,2.08,0,0,1,2.24,1.6c.64,2.36,2.38,6.93,7,14.24,6.43,10.11,31,42.29,40.24,59.06C269,319.4,278.87,333,288.4,346.42c10.15,14.33,18.84,30.95,30.49,44,4.24,4.74,9,8.94,13.13,13.78,8.64,10.12,12.18,21.45,18.38,32.74,4.41,8,12.42,15.89,18.06,23.34q16.82,22.21,33.75,44.33c1.43,1.87,1.36,4.36-.17,5.49l-4.27,3.17c-1.43,1.06-3.63.53-5-1.2C388.4,506.53,377,491.26,348,449.7c-62.93-90.46-63-108.77-111.39-150.05C194.19,263.42,171.88,220.75,167.06,210.85Z"/>
    <g class="cls-16">
      <g>
        <path class="cls-17" d="M317.62,392.62a36.41,36.41,0,0,0,3.12,8.52c6.06,11.78,18.1,20.12,23,32.29"/>
        <path class="cls-17" d="M324.9,401.05l12.43,15.13a43.24,43.24,0,0,0-4.45-8.87c-1.93-2.72-4.65-5.06-7.56-5.67"/>
        <path class="cls-17" d="M348.75,444c7.1,11.22,16.76,20.44,25.73,30.13s17.66,20.5,21.61,32.87"/>
        <path class="cls-17" d="M170.1,210.5c9.52,20.25,23.39,38.4,37.1,56.27a205.78,205.78,0,0,0,15.25,18.37c9.87,10.16,21.62,18,30.93,28.76,5.58,6.45,10.13,13.78,15.17,20.69,9.49,13,20.74,24.56,30.46,37.4,7.13,9.41,13.39,19.45,19.63,29.46l24.94,40"/>
        <path class="cls-17" d="M205.82,233.94c7,18.1,22.09,32.37,32.14,49.28,3.21,5.4,5.9,11.07,9.31,16.36,3.87,6,8.58,11.4,13.17,16.84q16.23,19.24,30.88,39.85c11.42,16.07,23,33.54,39.27,42.84"/>
        <path class="cls-17" d="M227.25,261.24A261.24,261.24,0,0,1,249.69,296c2.13,4,4.16,8,6.59,11.77A135.69,135.69,0,0,0,269,323.81l28.54,32.58"/>
        <path class="cls-17" d="M341.12,441.15c14.59,17.75,29.21,35.53,42.34,54.44,5.7,8.2,11.12,16.63,17.5,24.28"/>
      </g>
    </g>
  </g>
  <g>
    <path class="cls-13" d="M717.53,461.38a2.75,2.75,0,0,1-.21,3.43c-1.55,1.43-4,3.25-5.26,1.78-1.86-2.18-30.27-54.53-75.31-82.25q5.74,6.75,13.62,16.35c17.3,21.19,26.33,31.53,28.83,39.21a1.46,1.46,0,0,1-.83,2l-3.42,1a2.08,2.08,0,0,1-2.36-1.41c-.83-2.3-2.92-6.72-8.14-13.63-7.22-9.57-34.32-39.68-44.82-55.66-12.31-10.88-23.28-23.6-33.85-36.27-11.26-13.47-21.25-29.35-33.9-41.41-4.61-4.39-9.68-8.19-14.19-12.69-9.42-9.4-13.86-20.41-20.93-31.17-5-7.67-13.65-14.85-19.86-21.83Q478.34,208,459.7,187.34c-1.58-1.75-1.7-4.24-.27-5.49l4-3.5c1.34-1.17,3.57-.82,5.08.8,4.79,5.15,17.42,19.45,49.55,58.58,69.94,85.16,71.49,103.4,123,140.69C686.29,411.15,711.93,451.91,717.53,461.38Z"/>
    <g class="cls-18">
      <g>
        <path class="cls-17" d="M552.94,292.2a36.41,36.41,0,0,0-3.79-8.25c-7-11.26-19.65-18.62-25.55-30.35"/>
        <path class="cls-17" d="M545,284.38l-13.59-14.09a43.24,43.24,0,0,0,5.15,8.49c2.14,2.56,5,4.67,8,5.05"/>
        <path class="cls-17" d="M517.82,243.46c-8-10.61-18.34-19-28.06-28s-19.24-19-24.16-31"/>
        <path class="cls-17" d="M714.52,462c-11.1-19.43-26.38-36.41-41.47-53.13a205.78,205.78,0,0,0-16.67-17.1c-10.65-9.34-23-16.22-33.13-26.2-6.08-6-11.2-12.93-16.78-19.42-10.5-12.22-22.63-22.83-33.35-34.85-7.85-8.81-14.89-18.32-21.92-27.8l-28-37.88"/>
        <path class="cls-17" d="M677,441.46c-8.42-17.49-24.6-30.5-36-46.55-3.63-5.13-6.77-10.57-10.58-15.56-4.33-5.67-9.46-10.68-14.47-15.74q-17.72-17.89-34-37.26c-12.67-15.11-25.56-31.6-42.56-39.57"/>
        <path class="cls-17" d="M653.51,416a261.24,261.24,0,0,1-25.14-32.82c-2.44-3.77-4.79-7.61-7.51-11.21a135.69,135.69,0,0,0-14-15l-31-30.2"/>
        <path class="cls-17" d="M525.65,245.7c-16-16.53-32-33.09-46.55-50.89-6.33-7.72-12.41-15.68-19.38-22.8"/>
      </g>
    </g>
  </g>
  <g>
    <path class="cls-2" d="M843.51,468.84a4,4,0,0,0-6.63-4.25c-.91,1.18-21.88,27.75-62.95,22.72a63,63,0,0,1-13.24-3.23c-16-5.62-55.5-16.58-75.68,2.91-14.94,14.43-14.45,33.44-7.67,45,6.52,11.11,18,15.79,29.86,12.2,9.06-2.73,15.39-9.7,16.95-18.63,1.46-8.38-1.54-16.71-7.64-21.22-3.52-2.6-11.13-6.1-22.63-.27a4,4,0,0,0,3.57,7c5.8-2.94,10.77-3.08,14.36-.42s5.49,8.13,4.55,13.51c-1,6-5.21,10.54-11.44,12.41-8.35,2.52-16.12-.71-20.76-8.63-5.26-9-5.52-23.85,6.35-35.32,17.49-16.89,56.15-5.14,67.58-1.13A70.89,70.89,0,0,0,773,495.15c45.75,5.6,69.22-24.49,70.19-25.77A4,4,0,0,0,843.51,468.84Z"/>
    <g>
      <path class="cls-3" d="M739.93,455.91c-2,3.13-5.5,1.65-6.45-1.28-.82-2.52.18-5.61,1.17-7.93a14.61,14.61,0,0,1,8.21-8,14.84,14.84,0,0,1,17.5,6.59,23.26,23.26,0,0,1,2.14,6.33,14.5,14.5,0,0,1,.37,5.67,5.83,5.83,0,0,1-3.24,4.42,3.71,3.71,0,0,1-4.79-1.81c.39,2-1.92,3.71-3.87,3.27a5.16,5.16,0,0,1-3.56-4.4,4.06,4.06,0,0,1-7.47-2.83Z"/>
      <path class="cls-4" d="M799,387.78c0,.64-8.47,4.06-9.21,4.46a118.27,118.27,0,0,0-20,13.56,84.1,84.1,0,0,0-13.85,14.67,63.34,63.34,0,0,0-5.54,9.1c-.71,1.44-1.13,3.3-2,4.63-1.19,1.93-3.68,3.3-5.36,4.78-1.89,1.67-3.62,3.73-4,6.22a25.12,25.12,0,0,1,4.55-3.41,19.24,19.24,0,0,0,.51,5.22,10.15,10.15,0,0,1,3.92-3.4,27.36,27.36,0,0,0,3.46,6.76l1.51-5.92,4.46,7.34a24.46,24.46,0,0,0-.42-6.76l5.22,4.54-2.05-7.39c-.72-2.58-.69-3.94.63-6.16,1-1.65,1.91-3.33,2.94-5a80.38,80.38,0,0,1,8.26-11c6.75-7.45,15.56-13.7,25.86-14.5Z"/>
    </g>
    <g>
      <path class="cls-3" d="M895.65,306.84c1.3-3.46,5.06-2.71,6.58,0,1.3,2.31.93,5.53.42,8a14.61,14.61,0,0,1-6.47,9.48,14.84,14.84,0,0,1-18.46-3,23.26,23.26,0,0,1-3.35-5.78,14.5,14.5,0,0,1-1.48-5.48,5.83,5.83,0,0,1,2.3-5,3.71,3.71,0,0,1,5.06.83c-.77-1.85,1.15-4,3.15-4a5.16,5.16,0,0,1,4.36,3.61,4.06,4.06,0,0,1,7.88,1.3Z"/>
      <path class="cls-4" d="M851.17,385.29c-.09-.63,7.5-5.65,8.15-6.19a118.27,118.27,0,0,0,17-17.25A84.1,84.1,0,0,0,887,344.74a63.34,63.34,0,0,0,3.64-10c.41-1.55.46-3.46,1-4.92.79-2.13,3-4,4.31-5.75,1.52-2,2.81-4.37,2.7-6.89a25.12,25.12,0,0,1-3.79,4.24,19.24,19.24,0,0,0-1.53-5,10.15,10.15,0,0,1-3.18,4.11,27.36,27.36,0,0,0-4.73-5.94l-.31,6.1-5.82-6.31A24.46,24.46,0,0,0,881,320.9l-6-3.42,3.47,6.84c1.21,2.39,1.45,3.72.6,6.16-.64,1.81-1.21,3.65-1.9,5.44a80.38,80.38,0,0,1-5.93,12.38c-5.15,8.64-12.55,16.51-22.49,19.32Z"/>
    </g>
    <g>
      <path class="cls-3" d="M809.42,538.85S829,542,829,552.68s-15.84,9.12-23.67,9.73-23.08,2.19-23.44-2.51,6.74-4.47,6.74-4.47-6.72-.26-6.66-4.6,5.7-3,5.7-3-4-.27-4.26-3.8,5-2,5-2-5.19-.9-4.25-4C785.57,533.31,809.42,538.85,809.42,538.85Z"/>
      <path class="cls-2" d="M825.32,461.47c-.25-.12-2.64,3.25-2.8,3.47A83.81,83.81,0,0,0,816,475.21a102.17,102.17,0,0,0-11.61,39.27,110.72,110.72,0,0,0-.34,14.26c.17,4.25,2.44,10.56-1.66,13.43-1.7,1.18-3.77,1.93-5,3.56,2.24-.37,2.83,0,5.07.36-2,1.51-2.81,3.38-4.07,6.24,2.13-.92,4.47-.18,6.27-1.45.2,2.83-.21,5.26.59,8a24,24,0,0,1,3.59-4.92,48,48,0,0,0,2.14,7,24.16,24.16,0,0,0,5.36-9,59.16,59.16,0,0,1,8.25,3.68,45.87,45.87,0,0,0-1.46-6.12,7.06,7.06,0,0,1,5,1.22c-1.63-1.16-3.09-3.66-4.25-5.28a29.9,29.9,0,0,1-3.49-6c-1.35-3.26-1.55-6.88-1.88-10.36a90,90,0,0,1,.3-20.17,72.19,72.19,0,0,1,19.73-41.2Z"/>
    </g>
    <g>
      <path class="cls-3" d="M943,492.58s-16.58,10.86-12.3,20.6,18.17,1.91,25.58-.71,22-7.35,20.41-11.8-8-1.35-8-1.35,6-3,4.22-6.91-6.44-.44-6.44-.44,3.54-1.87,2.36-5.2-5.34.22-5.34.22,4.38-2.93,2.26-5.38C962.53,477.85,943,492.58,943,492.58Z"/>
      <path class="cls-2" d="M876.74,439.33c.12-.25,4.09.9,4.35,1a83.81,83.81,0,0,1,11.46,4,102.17,102.17,0,0,1,33.52,23.52,110.72,110.72,0,0,1,9.13,11c2.51,3.43,4.66,9.79,9.66,9.48,2.07-.13,4.15-.84,6.16-.35-2,1.1-2.24,1.73-3.75,3.43,2.51-.07,4.3.9,7.06,2.35-2.24.61-3.61,2.64-5.82,2.77,1.6,2.34,3.43,4,4.5,6.61a24,24,0,0,0-5.87-1.62,48,48,0,0,1,2.65,6.78,24.16,24.16,0,0,1-9.79-3.71,59.16,59.16,0,0,0-4.17,8,45.87,45.87,0,0,1-2.66-5.7,7.06,7.06,0,0,0-3.17,4.08c.56-1.92.14-4.79,0-6.78a29.9,29.9,0,0,0-1-6.88c-1-3.39-3.06-6.35-5-9.28a90,90,0,0,0-12.79-15.6,72.19,72.19,0,0,0-41.08-20Z"/>
    </g>
    <ellipse class="cls-7" cx="832.21" cy="415.17" rx="48.78" ry="55.58" transform="translate(-93.55 326.23) rotate(-21.03)"/>
    <ellipse class="cls-8" cx="834.76" cy="421.79" rx="34.25" ry="39.02" transform="translate(-95.76 327.59) rotate(-21.03)"/>
    <g>
      <circle class="cls-5" cx="860.4" cy="325.39" r="12.73" transform="translate(-59.46 330.37) rotate(-21.03)"/>
      <circle class="cls-6" cx="856.28" cy="325.83" r="8.19" transform="translate(-59.89 328.92) rotate(-21.03)"/>
    </g>
    <g>
      <circle class="cls-5" cx="746.99" cy="371.78" r="12.73" transform="translate(-86.27 328.18) rotate(-23.46)"/>
      <circle class="cls-6" cx="750.23" cy="369.2" r="8.19" transform="translate(-84.97 329.25) rotate(-23.46)"/>
    </g>
    <ellipse class="cls-7" cx="794.95" cy="331.12" rx="59.91" ry="55.54" transform="translate(-65.87 307.27) rotate(-21.03)"/>
    <path class="cls-6" d="M839.93,312.14A26.56,26.56,0,0,0,789,316.8a26.56,26.56,0,1,0-23.21,46.69,17.92,17.92,0,0,0,1.14,6.46c5.27,13.7,26.61,18.25,47.68,10.15s33.87-25.77,28.61-39.47a18.2,18.2,0,0,0-4.54-6.71A26.49,26.49,0,0,0,839.93,312.14Z"/>
    <g>
      <circle class="cls-9" cx="778.76" cy="356.39" r="11.87" transform="translate(-76.02 303.14) rotate(-21.03)"/>
      <circle class="cls-10" cx="778.76" cy="356.39" r="7.99" transform="translate(-76.02 303.14) rotate(-21.03)"/>
      <circle class="cls-9" cx="780.18" cy="351.18" r="2.91" transform="translate(-74.05 303.3) rotate(-21.03)"/>
    </g>
    <g>
      <circle class="cls-9" cx="824.7" cy="338.73" r="11.87" transform="translate(-66.62 318.45) rotate(-21.03)"/>
      <circle class="cls-10" cx="824.7" cy="338.73" r="7.99" transform="translate(-66.62 318.45) rotate(-21.03)"/>
      <circle class="cls-9" cx="826.12" cy="333.52" r="2.91" transform="translate(-64.66 318.61) rotate(-21.03)"/>
    </g>
    <path class="cls-11" d="M805.36,359a.62.62,0,0,0,.15-1.07c-1.2-.94-3.44-2.4-4.9-1.51-2.07,1.26-1.71,4.6-.42,4.34C801.12,360.59,803.88,359.58,805.36,359Z"/>
    <path class="cls-11" d="M808.53,357.8a.62.62,0,0,1-.83-.69c.26-1.5.95-4.08,2.62-4.4,2.38-.45,4.35,2.27,3.22,2.94C812.73,356.13,810,357.22,808.53,357.8Z"/>
    <circle class="cls-12" cx="816.73" cy="366.44" r="4.34" transform="translate(-77.1 317.43) rotate(-21.03)"/>
  </g>
</svg>
