<svg id="Layer_1" data-name="Layer 1" xmlns="http://www.w3.org/2000/svg" xmlns:xlink="http://www.w3.org/1999/xlink" width="1024" height="600" viewBox="0 0 1024 600">
  <defs>
    <style>
      .cls-1 {
        fill: none;
      }

      .cls-2 {
        clip-path: url(#clip-path);
      }

      .cls-3 {
        fill: #38a4fc;
      }

      .cls-4 {
        fill: #73c9fe;
      }
    </style>
    <clipPath id="clip-path">
      <rect class="cls-1" width="1024" height="600"/>
    </clipPath>
  </defs>
  <title>13_water_wave</title>
  <g class="cls-2">
    <path class="cls-3" d="M-351.09,404.68s30.6-21.77,68.29-21.77,75.37,33.87,134.79,33.87,69.57-36.29,121.75-35.08S36.06,418,89.68,421.62s84.06-37.5,140.59-41.12S305.64,421.62,352,420.41s71-38.71,126.09-38.71S547.68,424,602.76,424s71-47.17,120.3-47.17S808.57,424,857.85,420.41,926,381.7,982.49,379.28s81.16,30.24,134.79,26.61,78.27-26.61,121.75-24.19,46.06,19.35,46.06,15.72V525c.32-11.67-1636.24-17.81-1636.24-17.81Z"/>
    <path class="cls-4" d="M-409.59,455.68s30.6-21.77,68.29-21.77,75.37,33.87,134.79,33.87,69.57-36.29,121.75-35.08S-22.45,469,31.18,472.61s84.06-37.5,140.59-41.12,75.37,41.12,121.75,39.92,71-38.71,126.09-38.71S489.18,475,544.26,475s71-47.17,120.3-47.17S750.07,475,799.34,471.41,867.46,432.7,924,430.28s81.16,30.24,134.79,26.61,78.27-26.61,121.75-24.19,46.06,19.35,46.06,15.72V604.58c.32-11.67-1636.24-17.81-1636.24-17.81Z"/>
    <path class="cls-3" d="M-351.09,499.18s30.6-21.77,68.29-21.77,75.37,33.87,134.79,33.87S-78.44,475-26.27,476.2s62.32,36.29,115.95,39.92,84.06-37.5,140.59-41.12S305.64,516.11,352,514.9s71-38.71,126.09-38.71,69.57,42.33,124.65,42.33,71-47.17,120.3-47.17,85.51,47.17,134.79,43.54S926,476.2,982.49,473.78s81.16,30.24,134.79,26.61,78.27-26.61,121.75-24.19,46.06,19.35,46.06,15.72V619.5c.32-11.67-1636.24-17.81-1636.24-17.81Z"/>
    <path class="cls-4" d="M-409.59,551.68s30.6-21.77,68.29-21.77,75.37,33.87,134.79,33.87,69.57-36.29,121.75-35.08S-22.45,565,31.18,568.61s84.06-37.5,140.59-41.12,75.37,41.12,121.75,39.92,71-38.71,126.09-38.71S489.18,571,544.26,571s71-47.17,120.3-47.17S750.07,571,799.34,567.4,867.46,528.69,924,526.28s81.16,30.24,134.79,26.61,78.27-26.61,121.75-24.19,46.06,19.35,46.06,15.72V700.57c.32-11.67-1636.24-17.81-1636.24-17.81Z"/>
  </g>
</svg>
