<svg id="Layer_1" data-name="Layer 1" xmlns="http://www.w3.org/2000/svg" viewBox="0 0 260 168"><defs><style>.cls-1{fill:#fff;}.cls-2{fill:#ffedcf;opacity:0.5;}.cls-3{fill:#024168;}.cls-4{fill:none;stroke:#024066;stroke-miterlimit:10;stroke-width:0.2px;}.cls-5{fill:#034a7f;}.cls-6{fill:#146393;}.cls-7{fill:#10669b;}</style></defs><path class="cls-1" d="M162.81,105.8h0Z"/><path class="cls-2" d="M166.39,93.84,161.7,93l-2.1.7s-2.72,6.54-.48,10.15a4.6,4.6,0,0,0,7.4.13C168.89,100.47,166.39,93.84,166.39,93.84Z"/><path class="cls-1" d="M162.81,105.94h0Z"/><path class="cls-2" d="M167.22,94.05l-5.84-.84-2.61.69s-3.36,6.5-.55,10.11a6.65,6.65,0,0,0,9.2.16C170.35,100.66,167.22,94.05,167.22,94.05Z"/><path class="cls-3" d="M159.29,87.9a4.62,4.62,0,0,0-2.64,2.41l-2.13,14.09s-.71,1.9,3.43,3.61l1.79-1.25s-3.55-1.15-3.53-2.25l1.78-14s1-1.45,1.73-1.57Z"/><path class="cls-3" d="M166.89,88a4.64,4.64,0,0,1,2.56,2.51l1.63,14.15s.65,1.92-3.55,3.49l-1.74-1.31s3.59-1,3.6-2.13L168.1,90.66s-.91-1.49-1.67-1.63Z"/><path class="cls-4" d="M156.5,97.53s17,5,8.21,7.86"/><path class="cls-4" d="M160.74,105.32s-2.56-2.9,8.77-7.12"/><path class="cls-5" d="M160.48,106.88s0-1.83.49-1.82l3.74,0s.31.25.28,1.83Z"/><path class="cls-5" d="M167.41,107.46c0,.48-2.1.84-4.67.8-2.41,0-4.39-.42-4.62-.88a.29.29,0,0,1,0-.09c0-.48,2.1-.84,4.67-.8S167.42,107,167.41,107.46Z"/><polygon class="cls-5" points="156.87 110.56 158.14 107.2 167.4 107.36 168.58 110.71 156.87 110.56"/><ellipse class="cls-5" cx="162.75" cy="110.66" rx="0.88" ry="5.87" transform="translate(49.26 271.46) rotate(-89)"/><path class="cls-5" d="M167.5,93.73l-.93-1,0-1.41a.59.59,0,0,0,.51-.58l0-2.2a.61.61,0,0,0-.35-.56v-.07l0-1.36a.65.65,0,0,0-.13-.38c.62,0,1-.07,1-.13,0-1.25-4.53-1.31-4.53-1.31-3.7-.07-4.46,1-4.54,1.14h0c0,.06.34.11.91.16a.64.64,0,0,0-.15.38l0,1.36v0a.6.6,0,0,0-.47.57l0,2.21a.61.61,0,0,0,.57.61l0,1.4v.12l-1,.93a.58.58,0,0,0-.14.12.31.31,0,0,0,0,.08c0,.46,2.12.87,4.75.91s4.78-.28,4.79-.74C167.75,93.91,167.66,93.82,167.5,93.73Zm-1.91-5.85-1.69,0a.65.65,0,0,0,.08-.27l0-1.36v0h1.72a.76.76,0,0,0-.11.33l0,1.35Zm-3.39-1.73v0l0,1.35a.64.64,0,0,0,.07.28l-1.69,0v0l0-1.36a.53.53,0,0,0-.09-.33Z"/><rect class="cls-3" x="159.4" y="91.37" width="7.18" height="0.32" transform="translate(1.62 -2.83) rotate(1)"/><path class="cls-3" d="M159.53,86l.94.06a.65.65,0,0,1,.11.26l0,1.46-1.1,0s-.08,0-.1,0l0-1.44A.55.55,0,0,1,159.53,86Z"/><path class="cls-3" d="M166.68,86.13l-1,0a.59.59,0,0,0-.11.25l0,1.46h1.09a.3.3,0,0,1,.11,0l0-1.44A.58.58,0,0,0,166.68,86.13Z"/><path class="cls-3" d="M162.19,86.14l1.81,0,0,1.45s0,.23-.08.23l-1.65,0a.69.69,0,0,1-.07-.25Z"/><ellipse class="cls-6" cx="162.64" cy="85.06" rx="0.14" ry="1.47" transform="translate(74.75 246.19) rotate(-89)"/><path class="cls-6" d="M158.36,88.58A6.91,6.91,0,0,0,157,90.19C156.61,90.93,158.25,89.14,158.36,88.58Z"/><rect class="cls-6" x="155.75" y="90.55" width="0.35" height="14.47" rx="0.18" transform="translate(16.21 -22.02) rotate(8.52)"/><circle class="cls-2" cx="159.24" cy="95.52" r="0.6"/><path class="cls-2" d="M157.63,100.29a4.9,4.9,0,0,0,2.52,4.73,5.73,5.73,0,0,1-1.35-4.71S158.1,101.33,157.63,100.29Z"/><ellipse class="cls-7" cx="159.87" cy="107.05" rx="0.18" ry="0.87" transform="translate(50.05 265.03) rotate(-89)"/><path class="cls-5" d="M167.12,85.35l-1,0a3,3,0,1,0-6-.1l-1,0a4,4,0,0,1,8,.14Z"/></svg>