<svg id="Layer_3" data-name="Layer 3" xmlns="http://www.w3.org/2000/svg" viewBox="0 0 260 168"><defs><style>.cls-1,.cls-10{fill:#f4db8e;}.cls-1{opacity:0.49;}.cls-2{fill:#fff;}.cls-3{fill:#ffedcf;opacity:0.5;}.cls-4{fill:#024168;}.cls-5{fill:none;stroke:#024066;stroke-miterlimit:10;stroke-width:0.2px;}.cls-6{fill:#034a7f;}.cls-7{fill:#146393;}.cls-8{fill:#10669b;}.cls-9{fill:#f9ecca;opacity:0.32;}.cls-10{opacity:0.2;}</style></defs><circle class="cls-1" cx="181.56" cy="111.77" r="3.33"/><path class="cls-2" d="M181.63,118.56h0Z"/><path class="cls-3" d="M185.18,106.59l-4.69-.8-2.1.7s-2.7,6.55-.45,10.16a4.62,4.62,0,0,0,7.4.11C187.69,113.22,185.18,106.59,185.18,106.59Z"/><path class="cls-2" d="M181.63,118.71h0Z"/><path class="cls-3" d="M186,106.8l-5.84-.82-2.61.7s-3.34,6.51-.53,10.11a6.64,6.64,0,0,0,9.21.13C189.16,113.41,186,106.8,186,106.8Z"/><path class="cls-4" d="M178.06,100.68a4.61,4.61,0,0,0-2.63,2.42l-2.09,14.09s-.71,1.9,3.44,3.6l1.78-1.25S175,118.4,175,117.29l1.74-14s1-1.45,1.73-1.57Z"/><path class="cls-4" d="M185.67,100.79a4.6,4.6,0,0,1,2.56,2.5l1.67,14.14s.65,1.93-3.54,3.5l-1.75-1.3s3.59-1,3.6-2.14l-1.33-14.08s-.91-1.48-1.68-1.62Z"/><path class="cls-5" d="M175.3,110.32s17,4.92,8.23,7.83"/><path class="cls-5" d="M179.56,118.09s-2.56-2.89,8.75-7.15"/><path class="cls-6" d="M179.31,119.65s0-1.83.48-1.82l3.74,0s.31.25.29,1.83Z"/><path class="cls-6" d="M186.24,120.21c0,.49-2.1.86-4.67.82-2.41,0-4.39-.42-4.62-.86a.19.19,0,0,1,0-.1c0-.48,2.1-.85,4.67-.81S186.24,119.72,186.24,120.21Z"/><polygon class="cls-6" points="175.71 123.35 176.96 119.98 186.23 120.11 187.41 123.46 175.71 123.35"/><ellipse class="cls-6" cx="181.58" cy="123.43" rx="0.88" ry="5.87" transform="translate(55.48 303.17) rotate(-89.16)"/><path class="cls-6" d="M186.29,106.49l-.94-1,0-1.41a.59.59,0,0,0,.51-.58l0-2.21a.61.61,0,0,0-.36-.55s0,0,0-.08l0-1.35a.62.62,0,0,0-.13-.38,2.64,2.64,0,0,0,1-.13c0-1.25-4.53-1.3-4.53-1.3-3.71-.06-4.46,1-4.54,1.15h0c0,.06.34.11.92.16a.62.62,0,0,0-.15.38l0,1.35v0a.62.62,0,0,0-.47.58l0,2.2a.61.61,0,0,0,.57.61l0,1.41v.12l-1,.93a.58.58,0,0,0-.14.12.29.29,0,0,0,0,.09c0,.45,2.12.85,4.75.89s4.78-.3,4.79-.75C186.54,106.66,186.45,106.57,186.29,106.49Zm-1.92-5.85-1.69,0a.6.6,0,0,0,.07-.27l0-1.35v0c.63,0,1.21,0,1.72,0a.76.76,0,0,0-.11.33l0,1.35S184.37,100.63,184.37,100.64ZM181,98.92v0l0,1.35a.64.64,0,0,0,.06.28l-1.69,0v0l0-1.35a.56.56,0,0,0-.09-.34Z"/><rect class="cls-4" x="178.18" y="104.14" width="7.18" height="0.32" transform="translate(1.56 -2.67) rotate(0.84)"/><path class="cls-4" d="M178.29,98.78l1,.07a.59.59,0,0,1,.11.25l0,1.46-1.09,0-.11,0,0-1.43A.59.59,0,0,1,178.29,98.78Z"/><path class="cls-4" d="M185.45,98.89l-.95,0a.59.59,0,0,0-.11.25l0,1.46h1.1l.1,0,0-1.43A.56.56,0,0,0,185.45,98.89Z"/><path class="cls-4" d="M181,98.91l1.81,0,0,1.45s0,.23-.09.22l-1.65,0a.69.69,0,0,1-.07-.25Z"/><ellipse class="cls-7" cx="181.4" cy="97.83" rx="0.14" ry="1.47" transform="translate(80.91 277.77) rotate(-89.16)"/><path class="cls-7" d="M177.13,101.36a7,7,0,0,0-1.37,1.61C175.4,103.72,177,101.92,177.13,101.36Z"/><rect class="cls-7" x="174.55" y="103.33" width="0.35" height="14.47" rx="0.18" transform="translate(17.95 -24.25) rotate(8.37)"/><circle class="cls-3" cx="178.03" cy="108.3" r="0.6"/><path class="cls-3" d="M176.44,113.07a4.89,4.89,0,0,0,2.53,4.72,5.72,5.72,0,0,1-1.36-4.7S176.91,114.11,176.44,113.07Z"/><ellipse class="cls-8" cx="178.69" cy="119.82" rx="0.18" ry="0.87" transform="translate(56.25 296.73) rotate(-89.16)"/><path class="cls-6" d="M185.89,98.36l-1,0a3,3,0,1,0-6-.08l-1,0a4,4,0,1,1,8,.12Z"/><circle class="cls-9" cx="181.91" cy="111.77" r="13.49"/><circle class="cls-10" cx="181.91" cy="111.77" r="9.76"/></svg>