<svg id="Layer_1" data-name="Layer 1" xmlns="http://www.w3.org/2000/svg" viewBox="0 0 222.41 487.68">
  <defs>
    <style>
      .cls-1 {
        fill: #9a5b2a;
      }

      .cls-2 {
        fill: #498ecb;
      }

      .cls-3 {
        fill: #050303;
      }

      .cls-4 {
        fill: #0a0807;
      }

      .cls-5 {
        fill: #a56838;
      }

      .cls-6 {
        fill: #a46737;
      }

      .cls-7 {
        fill: #d12127;
      }

      .cls-8 {
        fill: #774b2a;
      }

      .cls-9 {
        fill: #2daf4a;
      }

      .cls-10 {
        fill: #fbe400;
      }

      .cls-11 {
        fill: #6f411e;
      }

      .cls-12 {
        fill: #fff;
      }

      .cls-13 {
        fill: #a36535;
      }

      .cls-14 {
        fill: #f8f6f4;
      }

      .cls-15 {
        fill: #532f26;
      }

      .cls-16 {
        fill: #060504;
      }

      .cls-17 {
        fill: #f9f7f6;
      }
    </style>
  </defs>
  <title>AkiliArmsOut</title>
  <g>
    <path class="cls-1" d="M1419.44,761.54a148.78,148.78,0,0,0-1-16.74,3.54,3.54,0,0,0-2.05-3.11,36.91,36.91,0,0,1-8.36-6.12q-7.29-7.07-14.46-14.25a14.52,14.52,0,0,1-3.52-5c.14-1.17,1.19-1.17,2-1.38a62,62,0,0,1,7.07-1.67c6-.88,10.18-3.82,12.3-9.57.33-.88.58-1.59-.55-2.12-6.37-3-11.33-7.79-16.26-12.68-2.18-2.17-4.5-4.43-7.8-5-.2-2.2-.5-4.39-.58-6.59a2.73,2.73,0,0,0-1.67-2.37,20.51,20.51,0,0,1-5.94-5.35c-2.92-3.91-2.63-8.3.83-11.76a18.11,18.11,0,0,1,7.12-4.1c12.08-4.23,19-12.86,21.11-25.32,2.64-15.37,8.69-28.92,20.47-39.55,6.44-5.81,13.68-10.08,22.28-11.83a25.17,25.17,0,0,0,2.46-.8c.21.88,1,1.18,1.63,1.61,9.19,6.28,18.5,12.36,27.44,19a6.7,6.7,0,0,0,3.23,1.35c5.08.61,10.17,1.16,15.23,1.92a160.43,160.43,0,0,1,44.28,13.07,47.92,47.92,0,0,1,9.31,5.29,19.09,19.09,0,0,1-4-1.28c-18.6-7.85-37.72-13.8-57.87-16.06-1.38-.15-2.9-.57-4.34.51.34.32.55.55.79.73q10.48,8.29,21,16.55a6.35,6.35,0,0,1,2.49,3.85,67.13,67.13,0,0,1,1.31,9.57,129,129,0,0,0,1.56,13.85,3.82,3.82,0,0,0,2.78,3.37c3.8,1.3,7.55,2.78,11.24,4.38,10.19,4.46,19.83,9.81,27.38,18.22,2.64,2.93,5.15,6,6.21,9.93l-.21.19a57.19,57.19,0,0,0-19-17.76,90.21,90.21,0,0,0-26.88-10.76c-.9-.19-1.88-.71-2,.92-.78,7.46-3.72,14.3-6.43,21.18-.84,2.14-.24,2.37,1.67,2.3a23,23,0,0,1,13.92,3.74c5.08,3.37,7.4,8.55,6.22,13.72a37.32,37.32,0,0,1-32.45,28.61c-3,.31-6.25.09-7.93,3.47a34.36,34.36,0,0,0-2.23,4.94c-1.6,5-1.6,10.25-2.31,15.38l-12.9,2.34L1457.47,752l-7.24,0-5.76-.42a11.12,11.12,0,0,1-1.63-.29c-2.16-.72-3.59-.23-4.74,2-1.46,2.79-3.36,5.34-5,8-.44.69-.86,1.25-1.83,1.22A84.52,84.52,0,0,1,1419.44,761.54ZM1496,721.87a28.14,28.14,0,0,0,14.46-3.83c7.53-4.14,12.64-10.54,16.78-17.82a11.08,11.08,0,0,0-.78-12.7c-3.79-5.2-9.35-7.31-15.61-7.35a9.4,9.4,0,0,0-6.74,3c-.36.37-1,.73-.65,1.35s1,.31,1.53.21a20.11,20.11,0,0,1,7.43-.5c8,1.28,14.93,8.55,8.58,18.25a49.79,49.79,0,0,1-12.25,12.65,18.11,18.11,0,0,1-10.15,3.32c-2.31.11-3.22-1-3.37-3.26,0-.66.32-1.6-.67-1.79a4.14,4.14,0,0,0-3.5,1.05,3,3,0,0,0-1.29,3.07C1490.54,720.91,1492,721.89,1496,721.87Zm-65.31-114a7.81,7.81,0,0,0-3.45.54c-1.18.54-2.41,1.25-2.48,2.61-.08,1.52,1.5,1.59,2.54,2a13.5,13.5,0,0,0,1.8.58,22.63,22.63,0,0,1,15.84,14.67c1,2.8,2.06,5.62,3.14,8.41.3.77.44,2,1.48,1.91,1.19-.07,1.23-1.28,1.28-2.19.53-9.79-2.68-18.15-10-24.72A14.14,14.14,0,0,0,1430.68,607.84Z" transform="translate(-1369.08 -568.25)"/>
    <path class="cls-2" d="M1457.47,752l14.48-1.58a30.63,30.63,0,0,1,12,12.67c.34.63.63,1.27,1.37,1.54l3.87,16c-1.86,3.61-3.72,7.27-7,9.79-1.3,1-.89,1.66-.21,2.58l.34.56,0,0c-.26,2.68.29,5.34.36,8,.34,11.68-.74,23.31-1.47,34.95-1.13,17.8-2.18,35.58-.26,53.38.86,8,2.59,15.87,3,23.91.19,3.62.31,7.25.4,10.87a187.45,187.45,0,0,0,3.24,31.71c.41,2.09-.51,3.24-1.93,4.41-2.12,1.74-4.88,2.15-7.19,3.48a96.71,96.71,0,0,1-29.61.3,57.51,57.51,0,0,0-12.71-.54c-5.64-.07-11.19,1-16.78,1.44-3.71-.75-7.53-.5-11.23-1.33s-7.22-1.66-10.78-2.71a2.31,2.31,0,0,1-2-2.49c-.33-13.82-.32-27.62.52-41.44.75-12.45,2-24.85,3.41-37.23,1.15-9.95,2.59-19.86,3.81-29.8a91.24,91.24,0,0,0,1.19-12.23c.94-5.72,1.11-11.54,2.24-17.24.86-4.3,1.59-8.62,2.38-12.93,1.65-3.8,2.07-7.91,2.89-11.91,1.4-6.87,3.11-13.68,3.81-20.68-.27,2.83,1.47,3.17,3.74,3.24,5.28.17,10.56.41,15.85.45a7.46,7.46,0,0,0,6.11-2.83C1447.88,768.91,1452.63,760.41,1457.47,752Z" transform="translate(-1369.08 -568.25)"/>
    <path class="cls-3" d="M1489.23,780.57q-1.93-8-3.88-16a58.47,58.47,0,0,1-.5-16.55c.71-5.13.71-10.37,2.31-15.38a34.36,34.36,0,0,1,2.23-4.94c1.68-3.38,4.95-3.16,7.93-3.47a37.32,37.32,0,0,0,32.45-28.61c1.18-5.17-1.14-10.35-6.22-13.72a23,23,0,0,0-13.92-3.74c-1.91.07-2.51-.16-1.67-2.3,2.71-6.88,5.65-13.72,6.43-21.18.17-1.63,1.15-1.11,2-.92a90.21,90.21,0,0,1,26.88,10.76,57.19,57.19,0,0,1,19,17.76c.06.36.12.73.52.9.06.21.13.42.19.62a1.39,1.39,0,0,0,.24-.18,4.66,4.66,0,0,0-.32-.53l-.42-1c-1.06-3.93-3.57-7-6.21-9.92-7.55-8.41-17.19-13.76-27.38-18.22-3.69-1.6-7.44-3.08-11.24-4.38a3.82,3.82,0,0,1-2.78-3.37,129,129,0,0,1-1.56-13.85,67.13,67.13,0,0,0-1.31-9.57,6.35,6.35,0,0,0-2.49-3.85q-10.53-8.24-21-16.55c-.24-.18-.45-.41-.79-.73,1.44-1.08,3-.66,4.34-.51,20.15,2.26,39.27,8.21,57.87,16.06a19.09,19.09,0,0,0,4,1.28,47.92,47.92,0,0,0-9.31-5.29,160.43,160.43,0,0,0-44.28-13.07c-5.06-.76-10.15-1.31-15.23-1.92a6.7,6.7,0,0,1-3.23-1.35c-8.94-6.63-18.25-12.71-27.44-19-.63-.43-1.42-.73-1.63-1.61,17.26-5.07,34.8-8.32,52.87-8a81.64,81.64,0,0,1,17.8,2.32,19.16,19.16,0,0,1,7.85,4.12,155.22,155.22,0,0,1,35.74,43.43,12.24,12.24,0,0,0,3.18,3.69c9.27,7.37,15.85,16.81,20.92,27.39a2.6,2.6,0,0,1,.09,2.23c-4.94,13.28-10.91,26-19.66,37.29a12.31,12.31,0,0,0-2.63,7.38c-.58,12.58-2.51,24.9-7.66,36.56a12.14,12.14,0,0,1-8.23,7.27,296,296,0,0,1-37.47,8.74,4.55,4.55,0,0,0-2.77,1.56,57.06,57.06,0,0,0-14.79,32.11,108.15,108.15,0,0,0-1.27,16.31,15.3,15.3,0,0,1-1.69-3.15C1493.13,790.54,1491.19,785.55,1489.23,780.57Zm65.55-161.49.16-.12s-.09-.11-.14-.12-.1.07-.16.11Zm.83.34.17.09v-.14Zm1.18.5-.14-.07V620Z" transform="translate(-1369.08 -568.25)"/>
    <path class="cls-4" d="M1499.59,978.05c3.09.12,5.69,1.68,8.32,3a59.1,59.1,0,0,1,14.82,10.48,7.7,7.7,0,0,1,2.3,7.73c-1.62,7.14-5.81,12.3-12,15.93a5,5,0,0,0-2.56,3.36c-2.36,9.34-8,16.67-14.61,23.39a87.23,87.23,0,0,1-11.81,10.15,20.64,20.64,0,0,1-7.45,3.5c-8.44,1.88-17.28-5.29-17.28-14,0-.47,0-.94,0-1.71a21.11,21.11,0,0,1-11.64,5,25.35,25.35,0,0,1-11.42-1.24,3.47,3.47,0,0,0-3.14,0c-9.56,5.12-19.89,5.7-30.41,4.91a66.12,66.12,0,0,1-14.91-2.42c-4.51-1.41-8.53-3.63-10.21-8.39-2.4-6.86-1-15.17,8.22-19.72s19.06-7.46,29-9.95c1.4-.36,2.77-1.3,4.33-.54,6.64,3.11,11.78,7.72,14.58,14.66.5,1.22,1.35,1.07,2.31.58,2.25-1.14,4.58-2.13,6.73-3.44,4.63-2.81,9.35-5.56,12.11-10.55a4.64,4.64,0,0,1,1.85,2.61,60.75,60.75,0,0,1,3.88,19.35c0,.43-.32,1.09.55,1.36a135.9,135.9,0,0,1,9.5-21.81c1.15-2.16,1.66-4.77,3.88-6.29a4.61,4.61,0,0,0,.91-.2,25.73,25.73,0,0,1,19.08-1c1.68.54,2.22,0,2.66-1.53C1499.44,993.65,1501.17,986,1499.59,978.05Zm-83.06,51c2.08.25,4.84-.76,7.62-1.62,1.25-.38,1.3-1,.74-2.09a31,31,0,0,0-14.14-14.09,1.49,1.49,0,0,0-1.33,0c-2.05.8-4.17,1.46-6.16,2.4-5.54,2.63-6,8.27-.87,11.67C1406.38,1027.91,1410.88,1028.88,1416.53,1029Zm57.72-.33c6.88-.08,17.07-8.59,18.47-15.37a1.25,1.25,0,0,0-1.09-1.7c-6.76-1.61-13.4-1.64-19.88,1.28a1.86,1.86,0,0,0-1.08,1.12,62.09,62.09,0,0,0-2.44,6.63C1467.08,1025.09,1469.9,1028.73,1474.25,1028.68Z" transform="translate(-1369.08 -568.25)"/>
    <path class="cls-5" d="M1489.23,780.57c2,5,3.9,10,5.88,14.95a15.3,15.3,0,0,0,1.69,3.15,108.15,108.15,0,0,1,1.27-16.31c15.26,15.58,27.9,33.19,39.78,51.38a8.88,8.88,0,0,0,3.05,2.86c6.73,4,13.5,7.88,19.54,12.88a39.59,39.59,0,0,1,3.23,3.12,2.6,2.6,0,0,1,.72,3c-.59,1.29-1.84,1.38-3.05,1.29a22.14,22.14,0,0,1-5.46-1.45c-2.34-.81-4.47-2.19-7.2-2.75a10.09,10.09,0,0,0,3,3.37c4.34,4,9,7.74,12.83,12.27a13.76,13.76,0,0,1,2.64,4.18c.87,2.42-.34,3.92-2.89,3.55a14.43,14.43,0,0,1-5.2-2.21,110,110,0,0,1-12.71-9.39c-.28,1.33.45,2.12.83,3,3,6.68,6.19,13.31,7.79,20.53.36,1.63,1.19,3.73-.68,4.74s-3.23-.76-4.42-1.94c-4.73-4.72-8-10.5-11.75-16q-1.71-2.55-3.47-5.08c-.3-.43-.63-1.08-1.26-.84s-.46,1-.45,1.48c.07,3.55.21,7.1.27,10.66a28.43,28.43,0,0,1-.75,8.22c-.3,1.09-.74,2.17-2,2.34a3,3,0,0,1-2.81-1.45,19.2,19.2,0,0,1-3.16-7.6c-1.06-4.93-1.94-9.9-2.91-14.85-.72-3.62-1.52-4-4.71-2-2,1.23-3.82,2.8-6,3.79a5.42,5.42,0,0,1-4.11.54,3.26,3.26,0,0,1-2.36-4.25c.79-3.54,2.71-6.54,4.6-9.54,1.59-2.54,3.26-5,4.93-7.52a3.82,3.82,0,0,0,.63-3.75,143.48,143.48,0,0,0-31.06-50.67c-.31-.33-.56-.79-1.13-.76l0,0-.34-.56c-.68-.92-1.09-1.58.21-2.58C1485.51,787.84,1487.37,784.18,1489.23,780.57Z" transform="translate(-1369.08 -568.25)"/>
    <path class="cls-6" d="M1499.59,978.05c1.58,8-.15,15.6-2.4,23.19-.44,1.48-1,2.07-2.66,1.53a25.73,25.73,0,0,0-19.08,1,4.61,4.61,0,0,1-.91.2c.67-2.49-.43-4.3-2.34-5.66-6.76-4.82-14-8.84-20.52-14.06a.56.56,0,0,0-.23-.07c-1.64-1.69-3.22-3.44-4.94-5.05a38,38,0,0,1-10.37-15.23,57.51,57.51,0,0,1,12.71.54,96.71,96.71,0,0,0,29.61-.3c5.21,5.81,10.88,11,18.63,13.19C1497.92,977.61,1498.75,977.83,1499.59,978.05Z" transform="translate(-1369.08 -568.25)"/>
    <path class="cls-1" d="M1436.14,963.94a38,38,0,0,0,10.37,15.23c1.72,1.61,3.3,3.36,4.94,5.05a106.08,106.08,0,0,0-.31,11.28c.25,4.75,2.27,8.93,3.74,13.29-2.76,5-7.48,7.74-12.11,10.55-2.15,1.31-4.48,2.3-6.73,3.44-1,.49-1.81.64-2.31-.58-2.8-6.94-7.94-11.55-14.58-14.66,2.24-1.06,2.85-3,2.75-5.27-.15-3.8-1.07-7.48-1.68-11.21a94,94,0,0,1-.86-25.68C1425,964.92,1430.5,963.87,1436.14,963.94Z" transform="translate(-1369.08 -568.25)"/>
    <path class="cls-7" d="M1457.47,752c-4.84,8.45-9.59,16.95-16.13,24.29a7.46,7.46,0,0,1-6.11,2.83c-5.29,0-10.57-.28-15.85-.45-2.27-.07-4-.41-3.74-3.24.24-1.22-.07-2.53.6-3.68,6.1,1.13,12.25.78,18.4.57A3,3,0,0,0,1437,771a174.81,174.81,0,0,0,13.21-19Z" transform="translate(-1369.08 -568.25)"/>
    <path class="cls-8" d="M1386.75,683.93c3.3.56,5.62,2.82,7.8,5,4.93,4.89,9.89,9.67,16.26,12.68,1.13.53.88,1.24.55,2.12-2.12,5.75-6.35,8.69-12.3,9.57A62,62,0,0,0,1392,715c-.77.21-1.82.21-2,1.38-.82-.53-1.39,1.61-2.36.19s-2.56-2.93-2.06-5c.33-1.4,1.65-1.47,2.85-1.64a58.18,58.18,0,0,1,11.8-.29c4.19.26,6.78-1.24,8.41-4.71.69-1.48.61-2.28-1.06-3.06-6.64-3.09-13.35-6-19.47-10.14C1383.29,688.4,1383.27,688.42,1386.75,683.93Z" transform="translate(-1369.08 -568.25)"/>
    <path class="cls-9" d="M1450.23,752A174.81,174.81,0,0,1,1437,771a3,3,0,0,1-2.38,1.29c-6.15.21-12.3.56-18.4-.57a7.75,7.75,0,0,1,.58-4.7c5.52.42,11,.25,16.57.16a1.8,1.8,0,0,0,1.54-.91,158.74,158.74,0,0,0,9.54-14.67Z" transform="translate(-1369.08 -568.25)"/>
    <path class="cls-10" d="M1444.47,751.59a158.74,158.74,0,0,1-9.54,14.67,1.8,1.8,0,0,1-1.54.91c-5.53.09-11.05.26-16.57-.16a25.66,25.66,0,0,1,.24-3.51c.1-1.67.92-2.12,2.38-2a84.52,84.52,0,0,0,11.78.94c1,0,1.39-.53,1.83-1.22,1.69-2.66,3.59-5.21,5-8,1.15-2.19,2.58-2.68,4.74-2A11.12,11.12,0,0,0,1444.47,751.59Z" transform="translate(-1369.08 -568.25)"/>
    <path class="cls-11" d="M1496,721.87c-4,0-5.45-1-6.23-4.32a3,3,0,0,1,1.29-3.07,4.14,4.14,0,0,1,3.5-1.05c1,.19.63,1.13.67,1.79.15,2.3,1.06,3.37,3.37,3.26a18.11,18.11,0,0,0,10.15-3.32A49.79,49.79,0,0,0,1521,702.51c6.35-9.7-.61-17-8.58-18.25a20.11,20.11,0,0,0-7.43.5c-.52.1-1.2.32-1.53-.21s.29-1,.65-1.35a9.4,9.4,0,0,1,6.74-3c6.26,0,11.82,2.15,15.61,7.35a11.08,11.08,0,0,1,.78,12.7c-4.14,7.28-9.25,13.68-16.78,17.82A28.14,28.14,0,0,1,1496,721.87Z" transform="translate(-1369.08 -568.25)"/>
    <path class="cls-4" d="M1430.68,607.84a14.14,14.14,0,0,1,10.19,3.84c7.28,6.57,10.49,14.93,10,24.72,0,.91-.09,2.12-1.28,2.19-1,.06-1.18-1.14-1.48-1.91-1.08-2.79-2.09-5.61-3.14-8.41a22.63,22.63,0,0,0-15.84-14.67,13.5,13.5,0,0,1-1.8-.58c-1-.44-2.62-.51-2.54-2,.07-1.36,1.3-2.07,2.48-2.61A7.81,7.81,0,0,1,1430.68,607.84Z" transform="translate(-1369.08 -568.25)"/>
    <path class="cls-12" d="M1482,792.94l.34.56Z" transform="translate(-1369.08 -568.25)"/>
    <path class="cls-1" d="M1563,683.11a4.66,4.66,0,0,1,.32.53,1.39,1.39,0,0,1-.24.18c-.06-.2-.13-.41-.19-.62Z" transform="translate(-1369.08 -568.25)"/>
    <path class="cls-1" d="M1562.85,683.2c-.4-.17-.46-.54-.52-.9l.21-.19.42,1Z" transform="translate(-1369.08 -568.25)"/>
    <path class="cls-1" d="M1554.78,619.08l-.14-.13c.06,0,.11-.11.16-.11s.09.08.14.12Z" transform="translate(-1369.08 -568.25)"/>
    <polygon class="cls-1" points="186.53 51.18 186.71 51.12 186.7 51.26 186.53 51.18"/>
    <polygon class="cls-1" points="187.71 51.68 187.56 51.72 187.57 51.6 187.71 51.68"/>
    <path class="cls-1" d="M1416.53,1029c-5.65-.13-10.15-1.1-14.14-3.77-5.08-3.4-4.67-9,.87-11.67,2-.94,4.11-1.6,6.16-2.4a1.49,1.49,0,0,1,1.33,0,31,31,0,0,1,14.14,14.09c.56,1.11.51,1.71-.74,2.09C1421.37,1028.25,1418.61,1029.26,1416.53,1029Z" transform="translate(-1369.08 -568.25)"/>
    <path class="cls-13" d="M1474.25,1028.68c-4.35,0-7.17-3.59-6-8a62.09,62.09,0,0,1,2.44-6.63,1.86,1.86,0,0,1,1.08-1.12c6.48-2.92,13.12-2.89,19.88-1.28a1.25,1.25,0,0,1,1.09,1.7C1491.32,1020.09,1481.13,1028.6,1474.25,1028.68Z" transform="translate(-1369.08 -568.25)"/>
    <path class="cls-12" d="M1369.48,858.19c.19-.18.39-.48.65-.11,0,.06-.18.3-.28.46Z" transform="translate(-1369.08 -568.25)"/>
    <path class="cls-12" d="M1382,858.28l.44-.21c0,.19,0,.37-.05.56Z" transform="translate(-1369.08 -568.25)"/>
    <path class="cls-12" d="M1369.08,858.46l.4-.27.37.35c-.11.2-.21.41-.32.62Z" transform="translate(-1369.08 -568.25)"/>
    <g>
      <path class="cls-14" d="M1410.71,644.34a18.06,18.06,0,0,1,4.89-8.52c4.53-4.12,11.72-5.94,17.29-2.87a21.89,21.89,0,0,1,10.61,26c-1.76,5.61-6.43,8.11-11.67,9.63a22.05,22.05,0,0,1-10.65.35c-6.89-1.38-10.81-5.67-11.49-12.67A33.16,33.16,0,0,1,1410.71,644.34Z" transform="translate(-1369.08 -568.25)"/>
      <g>
        <path class="cls-15" d="M1409.88,654.14a12.48,12.48,0,1,1,12.28,12.57A12.5,12.5,0,0,1,1409.88,654.14Zm19.24-8.31c-1.78-1.16-3.53-.78-5.51,1.23-2.22-.85-6.13.58-7.67,2.79a8.76,8.76,0,0,0,.41,10.68c2.61,3,6.55,3.64,10.28,1.69a8.53,8.53,0,0,0,3.87-9.73l-.27-1.09C1431.23,648.73,1430.89,647,1429.12,645.83Z" transform="translate(-1369.08 -568.25)"/>
        <path class="cls-16" d="M1423.61,647.06c-2.22-.85-6.13.58-7.67,2.79a8.76,8.76,0,0,0,.41,10.68c2.61,3,6.55,3.64,10.28,1.69a8.53,8.53,0,0,0,3.87-9.73l-.27-1.09c-1.6,1.33-3.32,2.17-5.28.82S1422.83,649.1,1423.61,647.06Z" transform="translate(-1369.08 -568.25)"/>
        <path class="cls-17" d="M1423.61,647.06c-.78,2-.55,3.87,1.34,5.16s3.68.51,5.28-.82c1-2.67.66-4.41-1.11-5.57S1425.59,645.05,1423.61,647.06Z" transform="translate(-1369.08 -568.25)"/>
      </g>
    </g>
  </g>
</svg>
