<svg id="boat01" xmlns="http://www.w3.org/2000/svg" xmlns:xlink="http://www.w3.org/1999/xlink" width="650" height="650" viewBox="0 0 650 650">
  <defs>
    <style>
      .cls-1 {
        fill: none;
      }

      .cls-2 {
        fill: #f27341;
      }

      .cls-3 {
        fill: #fbe831;
      }

      .cls-4 {
        fill: #f27342;
      }

      .cls-5 {
        fill: #fff;
      }

      .cls-6 {
        clip-path: url(#clip-path);
      }

      .cls-7 {
        fill: #ec764b;
      }

      .cls-8 {
        fill: #ed2d24;
      }

      .cls-9 {
        clip-path: url(#clip-path-2);
      }
    </style>
    <clipPath id="clip-path">
      <circle class="cls-1" cx="324.52" cy="314.2" r="36.88"/>
    </clipPath>
    <clipPath id="clip-path-2">
      <circle class="cls-1" cx="416.67" cy="325.01" r="36.88"/>
    </clipPath>
  </defs>
  <title>05_orange_portion_sun</title>
  <polygon class="cls-2" points="141.78 300.5 88.94 249.08 151.68 240.4 125.5 190.21 191.91 198.62 181.82 127.8 231.37 154.13 239.25 99.28 286.44 137.98 320.46 76.32 349.66 138.23 394.61 90.43 407.41 160.49 468.59 127.69 460.63 184.32 518.12 173.62 490.4 233.79 553.17 243.81 509.06 292.54 570.97 321.23 507.04 355.68 555.51 405.12 503.52 412.51 528.93 459.99 454.57 450.32 467.32 521.27 415.96 495.74 408.47 561.29 355.8 506.32 323.31 573.39 296.24 523.16 258.85 561.5 244.44 487.81 180.59 520.48 187.58 465.59 133.73 474.68 160.6 413.58 88.18 400.44 131.92 359.71 78.61 337.66 141.78 300.5"/>
  <g>
    <circle class="cls-3" cx="325" cy="325" r="159.84"/>
    <path class="cls-2" d="M292.68,261.88s47.15-32.92,66.72,3.56c0,0,4.45-30.25-19.57-31.14S292.68,261.88,292.68,261.88Z"/>
    <path class="cls-2" d="M386.64,269.11s47.15-32.92,66.72,3.56c0,0,4.45-30.25-19.57-31.14S386.64,269.11,386.64,269.11Z"/>
    <path class="cls-4" d="M291,395.06s27.91,54.8,82.2,49.22C406.69,439.2,426,402.16,426,402.16S378.27,447.83,291,395.06Z"/>
    <g>
      <circle class="cls-5" cx="324.52" cy="314.2" r="36.88"/>
      <g class="cls-6">
        <g>
          <circle class="cls-7" cx="337.96" cy="319.13" r="23.25"/>
          <circle class="cls-8" cx="338.41" cy="319.2" r="15.75"/>
          <circle class="cls-5" cx="328.75" cy="309.15" r="7.33"/>
        </g>
      </g>
    </g>
    <g>
      <circle class="cls-5" cx="416.67" cy="325.01" r="36.88"/>
      <g class="cls-9">
        <g>
          <circle class="cls-7" cx="433.5" cy="331.55" r="23.25"/>
          <circle class="cls-8" cx="433.95" cy="331.62" r="15.75"/>
          <circle class="cls-5" cx="424.3" cy="321.58" r="7.33"/>
        </g>
      </g>
    </g>
    <circle class="cls-4" cx="368.44" cy="383.11" r="18.84"/>
  </g>
</svg>
