<svg id="Layer_1" data-name="Layer 1" xmlns="http://www.w3.org/2000/svg" xmlns:xlink="http://www.w3.org/1999/xlink" viewBox="0 0 260 168"><defs><style>.cls-1{fill:url(#linear-gradient);}.cls-2{clip-path:url(#clip-path);}.cls-3,.cls-4{opacity:0.81;}.cls-3{fill:url(#linear-gradient-3);}.cls-4{fill:url(#linear-gradient-4);}</style><linearGradient id="linear-gradient" x1="130.01" y1="-15.34" x2="130.01" y2="130.63" gradientTransform="translate(260.03 168) rotate(-180)" gradientUnits="userSpaceOnUse"><stop offset="0.11" stop-color="#65d8f1"/><stop offset="0.29" stop-color="#8be1f4"/><stop offset="0.5" stop-color="#afeaf8"/><stop offset="0.69" stop-color="#c9f1fa"/><stop offset="0.86" stop-color="#d9f5fb"/><stop offset="1" stop-color="#dff6fc"/></linearGradient><clipPath id="clip-path"><rect class="cls-1" width="260.03" height="168" transform="translate(260.03 168) rotate(180)"/></clipPath><linearGradient id="linear-gradient-3" x1="1054.38" y1="170.81" x2="1054.38" y2="71.49" gradientTransform="matrix(-1, 0, 0, 1, 1264.57, 0)" gradientUnits="userSpaceOnUse"><stop offset="0" stop-color="#e6f5fc"/><stop offset="0.48" stop-color="#eff8fc"/><stop offset="0.54" stop-color="#f1f9fc"/><stop offset="0.99" stop-color="#fff"/></linearGradient><linearGradient id="linear-gradient-4" x1="1221.14" y1="162.52" x2="1221.14" y2="77.98" gradientTransform="translate(-1177.71)" xlink:href="#linear-gradient-3"/></defs><rect class="cls-1" width="260.03" height="168" transform="translate(260.03 168) rotate(180)"/><g class="cls-2"><path class="cls-3" d="M102.83,129.54c1.63-2.35,3.34-1.93,3.34-1.93,1.72.09,1.54-.75,1.54-.75,1-3.26,5.51-1,5.51-1,2-3.18,5.87-1.43,5.87-1.43-1-1.42,1.81-1.59,1.81-1.59a1.55,1.55,0,0,1-1.27-2.25,3.21,3.21,0,0,1-1.12-3.56c1.85-5.32,10-2.47,10-2.47,6.35-3.79,8.19,2.09,8.19,2.09a8,8,0,0,1,7.78,6.07c4.1-.76,9.22,2.46,9.22,2.46s-12.64-8.15-5.45-10.55c0,0-4.79-6.15,1.29-6.15,0,0-4.05-7.34,2.4-8.88,0,0,.74-4.27,5.72-2.22,0,0-3.87-4.44,0-7.86s4.06,0,4.06,0a3.33,3.33,0,0,1,4.79.69s.92-3.25,3.51-.52a6.73,6.73,0,0,1,2.76-7s2.58-5.29,7.19,0c0,0,2.4-2,4.43,3.76,0,0,4.43-3.76,6.09,2,0,0,2.95-4.61,5,.85,0,0,5.34-6.32,10.69-2.39,0,0,2,3.76-1.84,4.78,0,0,5,.35,1.11,7.18,0,0,1.65-.51,1.47,1.54,0,0,.21-.16.58-.4-.4-1.78.16-3.47,3.71-3.47,0,0-5-9.1,3-11,0,0,.91-5.29,7.08-2.75,0,0-4.8-5.5,0-9.73s5,0,5,0a4.14,4.14,0,0,1,5.94.84s1.14-4,4.34-.63c0,0-1.37-5.5,3.43-8.67,0,0,3.2-6.56,8.91,0,0,0,3-2.54,5.48,4.65,0,0,5.48-4.66,7.54,2.54,0,0,3.65-5.71,6.16,1.06,0,0,6.63-7.83,13.25-3,0,0,2.51,4.66-2.28,5.93,0,0,6.16.42,1.37,8.88,0,0,2.05-.63,1.82,1.91,0,0,12.34-9.1,12.34,3.81,0,0,6.17.84,1.37,8a5,5,0,0,1-3,6.35s7.08,4.87-4.8,7.19c0,0,4.11,2.75-7.76,5.5a3.69,3.69,0,0,1-.92,4.24s6.63-2.75,8,2.53c0,0,2.28-2.11,4.11.85,0,0,2.09-4.44,6.17-1.48,0,0,1.06-4.44,4.07-3.38,0,0-5.44-3,3.24-4.45,0,0,5.59-4.21,8.32,1.14,0,0,5.48,1.26,3.8,5.91v35.46H120c-1.8-1.21-.27-2.38-.27-2.38-.45-1.34,1.36-1.5,1.36-1.5,1.26-2.68,4.24-1,4.24-1,.36-.92,1.81-1,1.81-1-1.27-.34-.63-1.26-.63-1.26-1.36-2.09,1.78-2.84,1.78-2.84.52-2,3.82-.92,3.82-.92,1.89-1.17,3.34.92,3.34.92,2.71-2.34,5.69.42,5.69.42.63-1.51,3.16-1.51,3.16-1.51,1.35-1.5,3.07,0,3.07,0,.63-1.34,4-1.59,4-1.59l-2.25-.76c-2.71-.76-1.72-1.41-1.72-1.41a2.36,2.36,0,0,1-1.17-1.93,3.59,3.59,0,0,1-3.26,2.76c-2.7.17-2.89-.66-2.89-.66a6,6,0,0,1-5.78.83c-.81-.5.37-1.84.37-1.84-4.43,2.34-5.24-.08-5.24-.08-1.18.58-1.63-.07-1.63-.07-4.61,1.53-3.16,0-3.16,0-1.26-.29-.34-.56-.2-.6a12.87,12.87,0,0,1-4.5.42c-4.33.42-5.78,0-5.78,0a9.48,9.48,0,0,1,3.25-2.09s-4.06.83-3.61-1.59a2.65,2.65,0,0,1,2.62-2.35c2.89-2.76,4.88-.75,4.88-.75,1.44-.75,1.89.25,1.89.25a5.4,5.4,0,0,1,6,.92c.27-1.34,2.62-.92,2.62-.92a2.47,2.47,0,0,1,3.79-1.17c.9-1.51,3.7-1.25,3.7-1.25-4.79-.67-5.33-3.94-5.33-3.94a3.39,3.39,0,0,1-3.07,2.6c-2.62.25-3-.59-3-.59-6.5,3.1-5.06-1.25-5.06-1.25-3.79,2.09-5.87-.11-5.87-.11-4.06,1.23-4.42,0-4.42,0-.46-.78-1.63-.38-1.63-.38-4.15.94-5.6-.18-5.6-.18C102.56,130,102.83,129.54,102.83,129.54Z"/><path class="cls-4" d="M134.81,127.39c-1.39-2-2.85-1.64-2.85-1.64-1.46.07-1.3-.64-1.3-.64-.85-2.78-4.69-.85-4.69-.85-1.69-2.71-5-1.21-5-1.21.85-1.21-1.54-1.36-1.54-1.36a1.32,1.32,0,0,0,1.08-1.92,2.72,2.72,0,0,0,.95-3c-1.57-4.52-8.54-2.1-8.54-2.1-5.41-3.23-7,1.78-7,1.78a6.81,6.81,0,0,0-6.63,5.16c-3.48-.64-7.84,2.1-7.84,2.1s10.75-6.94,4.63-9c0,0,4.08-5.24-1.1-5.24,0,0,3.46-6.25-2-7.56,0,0-.62-3.63-4.86-1.89,0,0,3.29-3.78,0-6.69s-3.46,0-3.46,0a2.84,2.84,0,0,0-4.08.58s-.78-2.76-3-.43a5.74,5.74,0,0,0-2.35-6s-2.2-4.51-6.13,0c0,0-2-1.75-3.76,3.2,0,0-3.77-3.2-5.18,1.74,0,0-2.52-3.92-4.24.73,0,0-4.55-5.38-9.11-2,0,0-1.72,3.2,1.57,4.07,0,0-4.24.29-.94,6.11,0,0-1.41-.44-1.25,1.31,0,0-.19-.14-.5-.34.34-1.52-.13-3-3.15-3,0,0,4.27-7.75-2.53-9.37,0,0-.78-4.5-6-2.34,0,0,4.08-4.68,0-8.28s-4.28,0-4.28,0a3.51,3.51,0,0,0-5.05.72s-1-3.42-3.69-.54a7.11,7.11,0,0,0-2.92-7.38s-2.72-5.58-7.58,0c0,0-2.53-2.16-4.67,4,0,0-4.66-4-6.41,2.16,0,0-3.11-4.86-5.25.9,0,0-5.64-6.66-11.28-2.52,0,0-2.14,4,2,5,0,0-5.25.36-1.17,7.56,0,0-1.75-.54-1.56,1.62,0,0-10.49-7.74-10.49,3.25,0,0-5.25.72-1.17,6.84a4.26,4.26,0,0,0,2.53,5.4s-6,4.14,4.08,6.12c0,0-3.5,2.34,6.61,4.68a3.14,3.14,0,0,0,.78,3.61s-5.64-2.34-6.81,2.16c0,0-1.94-1.8-3.5.72,0,0-1.78-3.78-5.25-1.26,0,0-.9-3.78-3.46-2.88,0,0,4.63-2.53-2.76-3.79,0,0-4.76-3.58-7.09,1,0,0-4.66,1.08-3.23,5v30.19H120.2c1.54-1,.23-2,.23-2,.39-1.14-1.15-1.28-1.15-1.28-1.08-2.28-3.61-.85-3.61-.85-.31-.79-1.54-.86-1.54-.86,1.07-.28.54-1.07.54-1.07,1.15-1.78-1.52-2.42-1.52-2.42-.45-1.71-3.25-.78-3.25-.78-1.61-1-2.84.78-2.84.78-2.31-2-4.85.36-4.85.36-.54-1.28-2.69-1.28-2.69-1.28-1.15-1.29-2.61,0-2.61,0-.54-1.14-3.39-1.36-3.39-1.36l1.93-.65c2.3-.64,1.46-1.2,1.46-1.2a2,2,0,0,0,1-1.64,3,3,0,0,0,2.76,2.35c2.31.15,2.46-.57,2.46-.57a5.09,5.09,0,0,0,4.92.72c.7-.43-.3-1.57-.3-1.57,3.76,2,4.46-.07,4.46-.07,1,.5,1.38-.06,1.38-.06,3.92,1.3,2.69,0,2.69,0,1.07-.25.29-.48.17-.51a10.85,10.85,0,0,0,3.83.35,15.45,15.45,0,0,0,4.92,0,8.13,8.13,0,0,0-2.77-1.78s3.46.72,3.08-1.35a2.25,2.25,0,0,0-2.23-2c-2.46-2.35-4.16-.64-4.16-.64-1.23-.64-1.61.21-1.61.21a4.57,4.57,0,0,0-5.07.78c-.23-1.14-2.23-.78-2.23-.78a2.1,2.1,0,0,0-3.23-1c-.77-1.28-3.15-1.06-3.15-1.06,4.07-.57,4.53-3.35,4.53-3.35a2.9,2.9,0,0,0,2.62,2.21c2.23.21,2.53-.5,2.53-.5,5.54,2.63,4.31-1.07,4.31-1.07,3.23,1.78,5-.09,5-.09,3.46,1,3.77,0,3.77,0,.39-.67,1.39-.32,1.39-.32,3.53.8,4.76-.16,4.76-.16C135,127.75,134.81,127.39,134.81,127.39Z"/></g></svg>