<svg id="Layer_1" data-name="Layer 1" xmlns="http://www.w3.org/2000/svg" xmlns:xlink="http://www.w3.org/1999/xlink" width="228.6" height="412.35" viewBox="0 0 228.6 412.35">
  <defs>
    <style>
      .cls-1 {
        fill: #a46838;
      }

      .cls-2 {
        clip-path: url(#clip-path);
      }

      .cls-3 {
        fill: #875330;
      }

      .cls-4 {
        fill: none;
      }

      .cls-4, .cls-7 {
        stroke: #875330;
        stroke-miterlimit: 10;
        stroke-width: 1.15px;
      }

      .cls-5 {
        fill: gray;
      }

      .cls-6 {
        fill: #b3b3b3;
      }

      .cls-7 {
        fill: #a46635;
      }

      .cls-8 {
        fill: #ba8365;
      }

      .cls-9 {
        fill: #478cca;
      }

      .cls-10 {
        fill: #9b5a2b;
      }

      .cls-11 {
        fill: #0a0807;
      }

      .cls-12 {
        fill: #9a5b2a;
      }

      .cls-13 {
        fill: #c67634;
      }

      .cls-14 {
        fill: #a35c28;
      }

      .cls-15 {
        fill: #a46737;
      }

      .cls-16 {
        fill: #a36535;
      }

      .cls-17 {
        fill: #498ecb;
      }

      .cls-18 {
        fill: #d12127;
      }

      .cls-19 {
        fill: #2daf4a;
      }

      .cls-20 {
        fill: #fbe400;
      }

      .cls-21 {
        fill: #a56636;
      }

      .cls-22 {
        fill: #6f421d;
      }

      .cls-23 {
        fill: #724625;
      }

      .cls-24 {
        fill: #f8f6f3;
      }

      .cls-25 {
        fill: #532f26;
      }

      .cls-26 {
        fill: #080707;
      }

      .cls-27 {
        fill: #f7f6f5;
      }
    </style>
    <clipPath id="clip-path">
      <path id="_Clipping_Path_" data-name="&lt;Clipping Path&gt;" class="cls-1" d="M133.62,202.8c3.13,5.37-5.58,11.86-5.58,11.86C89.72,240.13,33.63,252,22.83,248.79s-9.41-6.69-9.41-6.69c-7-4.07-3.76-8.64-3.76-8.64-8.19-5-2.61-9.39-2.61-9.39-7.42-4.84-2.8-9-2.8-9,2.32-2.62,15.15-3.35,15.15-3.35,2.53-6.87,9.81-7.77,14.73-6.09,6.77,2.31,16.61,9.57,16.61,9.57,32.88,2.93,72.69-14.87,72.69-14.87S129.34,195.46,133.62,202.8Z"/>
    </clipPath>
  </defs>
  <title>20_food</title>
  <g>
    <g>
      <path id="_Clipping_Path_3" data-name="&lt;Clipping Path&gt;" class="cls-1" d="M133.62,202.8c3.13,5.37-5.58,11.86-5.58,11.86C89.72,240.13,33.63,252,22.83,248.79s-9.41-6.69-9.41-6.69c-7-4.07-3.76-8.64-3.76-8.64-8.19-5-2.61-9.39-2.61-9.39-7.42-4.84-2.8-9-2.8-9,2.32-2.62,15.15-3.35,15.15-3.35,2.53-6.87,9.81-7.77,14.73-6.09,6.77,2.31,16.61,9.57,16.61,9.57,32.88,2.93,72.69-14.87,72.69-14.87S129.34,195.46,133.62,202.8Z"/>
      <g class="cls-2">
        <path class="cls-3" d="M21.28,206.87c-.68,1.85-1.36,3.71-2,5.57a58,58,0,0,0-1.63,5.64,9.74,9.74,0,0,0-.18,1.4,9.09,9.09,0,0,0,.13,1.41,21.71,21.71,0,0,0,.65,2.82,21,21,0,0,0,2.3,5.27,7.55,7.55,0,0,0,4.13,3.47,5.22,5.22,0,0,0,2.66,0A3.06,3.06,0,0,0,29.27,231a5.29,5.29,0,0,0,.55-2.59,14,14,0,0,0-.35-2.82,27.84,27.84,0,0,0-1.89-5.47l-.27-.6.64-.1a12.17,12.17,0,0,0,1.31-.27,3.25,3.25,0,0,0,1.09-.46l.66-.56.07.84a26.1,26.1,0,0,0,.66,3.94,19.5,19.5,0,0,0,1.32,3.77,9,9,0,0,0,2.34,3.17,5.94,5.94,0,0,0,.82.57,5.67,5.67,0,0,0,.91.41,5.12,5.12,0,0,0,1,.24,6.74,6.74,0,0,0,1,.08,6.8,6.8,0,0,1-1,0,5.25,5.25,0,0,1-1-.16,5.53,5.53,0,0,1-1-.36,6.21,6.21,0,0,1-.89-.54,9.45,9.45,0,0,1-2.65-3.16A19.23,19.23,0,0,1,31,223.08a26.81,26.81,0,0,1-.84-4l.73.28a2.51,2.51,0,0,1-.72.45,6.32,6.32,0,0,1-.71.26,11.29,11.29,0,0,1-1.42.34l.36-.69a28.79,28.79,0,0,1,2,5.67,15,15,0,0,1,.41,3,6.35,6.35,0,0,1-.66,3.14,4.07,4.07,0,0,1-2.65,2,6.35,6.35,0,0,1-3.19,0,7,7,0,0,1-2.76-1.58,11.35,11.35,0,0,1-1.95-2.4A20.22,20.22,0,0,1,17.37,224a22.55,22.55,0,0,1-.57-3,9.9,9.9,0,0,1-.08-1.54,10.31,10.31,0,0,1,.26-1.53,42.78,42.78,0,0,1,1.93-5.64C19.65,210.47,20.44,208.65,21.28,206.87Z"/>
        <path class="cls-4" d="M4.62,223.91s8.74.67,12.86-1.43"/>
        <path class="cls-4" d="M8.51,233.44s8.75-.44,12.58-3.05"/>
        <path class="cls-4" d="M25.2,233.14s4.24,7.65-13.36,8.91"/>
        <path class="cls-4" d="M25.19,237.74s8.55,3.61-2.88,7.67"/>
      </g>
    </g>
    <g>
      <path id="_Clipping_Path_4" data-name="&lt;Clipping Path&gt;" class="cls-1" d="M133.62,202.8c3.13,5.37-5.58,11.86-5.58,11.86C89.72,240.13,33.63,252,22.83,248.79s-9.41-6.69-9.41-6.69c-7-4.07-3.76-8.64-3.76-8.64-8.19-5-2.61-9.39-2.61-9.39-7.42-4.84-2.8-9-2.8-9,2.32-2.62,15.15-3.35,15.15-3.35,2.53-6.87,9.81-7.77,14.73-6.09,6.77,2.31,16.61,9.57,16.61,9.57,32.88,2.93,72.69-14.87,72.69-14.87S129.34,195.46,133.62,202.8Z"/>
      <g class="cls-2">
        <path class="cls-4" d="M4.62,223.91s8.74.67,12.86-1.43"/>
        <path class="cls-4" d="M8.51,233.44s8.75-.44,12.58-3.05"/>
        <path class="cls-4" d="M25.2,233.14s4.24,7.65-13.36,8.91"/>
        <path class="cls-4" d="M25.19,237.74s8.55,3.61-2.88,7.67"/>
      </g>
    </g>
    <g>
      <path class="cls-5" d="M33.24,237.43c-2.35,1.74-4.87-1.48-6.07-3.2a67.18,67.18,0,0,1-9.91-21.72c-.42-1.66-.65-3.86-2.28-4.81-1.83-1.06-4.18-1.23-6.13-2l-.17-.08a7.22,7.22,0,0,1-3.52-3.22c-.4-.75-1-1.37-1.41-2.08a14.49,14.49,0,0,1-1.55-2.48c-.21-.55-.32-1.15-.51-1.71a31,31,0,0,1-1.06-3.6,13.61,13.61,0,0,1-.18-3.27A16.08,16.08,0,0,1,.77,186c.22-.91.55-1.81.85-2.7a5.48,5.48,0,0,1,1.07-2.06,3.93,3.93,0,0,0,.33-.47,10.49,10.49,0,0,1,1.78-2.18A21,21,0,0,1,10,175.3a8.32,8.32,0,0,1,2.82-.84,4.26,4.26,0,0,1,1.81.09,9.13,9.13,0,0,1,1.12.55,12.5,12.5,0,0,1,2.38,1.67,17.53,17.53,0,0,1,3.34,4.36,16.13,16.13,0,0,1,1.39,3.35c.16.56.23,1.13.41,1.69s.37,1.28.53,1.93c.09.38.23.76.3,1.14a7.24,7.24,0,0,1,0,1.9c-.05.55-.11,1.08-.19,1.63s0,.81-.11,1.2a7.76,7.76,0,0,0-.2,1.07,3.83,3.83,0,0,1-.18,1.14l-.27.84c-.22.67-.45,1.34-.64,2-.06.2-.09.41-.16.61-.36,1.07-1.11,2-1,3.17.29,3.74,2.15,7,4.41,9.89,1.19,1.53,2.61,2.88,3.37,4.68A6.89,6.89,0,0,0,30.15,219c1,1.27,1.86,2.66,2.79,4a16.2,16.2,0,0,1,3,7.23,9.1,9.1,0,0,1-.5,3.53,6.62,6.62,0,0,1-2.16,3.66Z"/>
      <g>
        <path class="cls-6" d="M18.12,181.43a3.88,3.88,0,0,0-.55-.85,7,7,0,0,0-2.08-1.5,4.93,4.93,0,0,1-.7-.36,1.35,1.35,0,0,0-.44-.24,7.7,7.7,0,0,0-1.72-.33l-1.3,0a3.12,3.12,0,0,0-1,.3,1.19,1.19,0,0,1-.3.11,6.54,6.54,0,0,0-.89.41,5.06,5.06,0,0,0-1.91,1.44c-.38.54-.8,1.05-1.19,1.58a10.52,10.52,0,0,0-1.21,1.69A19.15,19.15,0,0,0,4,185.44a14.19,14.19,0,0,0-.47,1.6c-.07.28-.09.58-.17.85,0,.11-.09.21-.12.33a1.72,1.72,0,0,0,0,.76,15.68,15.68,0,0,0,.19,3c.09.55.12,1.1.24,1.64A12.14,12.14,0,0,1,4,195.12a4.66,4.66,0,0,0,.11.94,6.06,6.06,0,0,0,.68,1.37,11.91,11.91,0,0,0,1.71,2.2,12.33,12.33,0,0,0,2.42,2,9.55,9.55,0,0,0,1.78.9,5.3,5.3,0,0,0,1.84.17,5.83,5.83,0,0,0,2.63-.75c.33-.18.66-.35,1-.5a1.15,1.15,0,0,0,.34-.23,7.65,7.65,0,0,0,1-1.64c.48-.81.92-1.65,1.32-2.51a14,14,0,0,0,.67-1.55,1.59,1.59,0,0,0,.07-.56,6,6,0,0,1,.25-1.38,11.67,11.67,0,0,0,.27-2.29,21.24,21.24,0,0,0-.12-2.49c-.12-1.15-.42-2.27-.54-3.42a6.37,6.37,0,0,0-.31-1.74c-.21-.54-.47-1.06-.72-1.58Z"/>
        <path class="cls-6" d="M18.12,181.43a3.88,3.88,0,0,0-.55-.85,7,7,0,0,0-2.08-1.5,4.93,4.93,0,0,1-.7-.36,1.35,1.35,0,0,0-.44-.24,7.7,7.7,0,0,0-1.72-.33l-1.3,0a3.12,3.12,0,0,0-1,.3,1.19,1.19,0,0,1-.3.11,6.54,6.54,0,0,0-.89.41,5.06,5.06,0,0,0-1.91,1.44c-.38.54-.8,1.05-1.19,1.58a10.52,10.52,0,0,0-1.21,1.69A19.15,19.15,0,0,0,4,185.44a14.19,14.19,0,0,0-.47,1.6c-.07.28-.09.58-.17.85,0,.11-.09.21-.12.33a1.72,1.72,0,0,0,0,.76,15.68,15.68,0,0,0,.19,3c.09.55.12,1.1.24,1.64A12.14,12.14,0,0,1,4,195.12a4.66,4.66,0,0,0,.11.94,6.06,6.06,0,0,0,.68,1.37,11.91,11.91,0,0,0,1.71,2.2,12.33,12.33,0,0,0,2.42,2,9.55,9.55,0,0,0,1.78.9,5.3,5.3,0,0,0,1.84.17,5.83,5.83,0,0,0,2.63-.75c.33-.18.66-.35,1-.5a1.15,1.15,0,0,0,.34-.23,7.65,7.65,0,0,0,1-1.64c.48-.81.92-1.65,1.32-2.51a14,14,0,0,0,.67-1.55,1.59,1.59,0,0,0,.07-.56,6,6,0,0,1,.25-1.38,11.67,11.67,0,0,0,.27-2.29,21.24,21.24,0,0,0-.12-2.49c-.12-1.15-.42-2.27-.54-3.42a6.37,6.37,0,0,0-.31-1.74c-.21-.54-.47-1.06-.72-1.58Z"/>
      </g>
    </g>
    <path class="cls-7" d="M23.44,207s-6.25,9.47-6.33,12.5,2.76,14.75,9.82,13.62S28,219.89,28,219.89a7,7,0,0,0,2.63-.89s1.1,12.56,8.47,12.13"/>
    <path class="cls-8" d="M20.34,227.78l3.68-.44a26.06,26.06,0,0,1,2.21,5.25A6,6,0,0,1,20.34,227.78Z"/>
  </g>
  <path class="cls-9" d="M133.55,186.22a13.87,13.87,0,0,0-2.57,1.5c-2.6,1.94-4.73,4.4-7.22,6.47a34.32,34.32,0,0,1-5.69,3.78,5.14,5.14,0,0,0-1.86,1.4,2.28,2.28,0,0,0-.35,1.54c.49,4.85,2.23,7.86,5.25,11.15,1.65,1.8,3.45,3.3,5.2,5a3.67,3.67,0,0,0,2.83,1.44,11,11,0,0,0,2.79-1c3.57-1.84,6.68-2.52,10.57-3.53,4.24-1.1,7.33-2.61,9.91-5.63a18.48,18.48,0,0,0,4-6.35,11.87,11.87,0,0,0-.06-7.25C153.12,185.95,141.79,182.48,133.55,186.22Z"/>
  <path class="cls-10" d="M156.79,179.06S161,189.43,164.15,201c0,0-28,8.49-28.68-15.62C135.32,179.72,138,167,138,167s5.08,7.17,3.93,2.43l18.44-4.24Z"/>
  <g>
    <path class="cls-11" d="M63.2,373.15a19.19,19.19,0,0,1-11.12-1.47,22.91,22.91,0,0,1-8.42-6.18,3.18,3.18,0,0,0-2.47-1.43c-9.86-.34-18.25-4.59-26.17-10a60.34,60.34,0,0,1-10.63-8.71c-2.9-3.16-5.06-6.75-4.2-11.26,1.24-6.49,6.15-12.38,15.47-11.77s18.4,2.83,27.36,5.41c1.27.36,2.77.24,3.65,1.55,3.81,5.48,5.75,11.45,4.79,18.19-.17,1.19.57,1.47,1.55,1.52,2.29.12,4.58.41,6.86.36,4.93-.1,9.9-.11,14.34-2.78a4.21,4.21,0,0,1,.27,2.9,55.27,55.27,0,0,1-5.78,17Z"/>
    <path class="cls-12" d="M85.78,292.9c-1.09,5.68,8.45,3.13-1.62,25.4-1.88,2.86-5.26,13-6.83,16.1-2,3.85-2.29,8.06-3.12,12.17-4.44,2.66-9.41,2.68-14.34,2.78-2.28,0-4.57-.24-6.86-.36-1-.05-1.72-.33-1.55-1.52,1-6.74-1-12.71-4.79-18.19,2.25.19,3.6-1,4.57-2.89A83.42,83.42,0,0,0,55,316.79a85.75,85.75,0,0,1,11-20.59C70.69,298.39,81.38,290.27,85.78,292.9Z"/>
    <path class="cls-12" d="M34.82,345c-4.39-2.68-7.49-5.5-9.41-9.42-2.45-5,.45-9.24,6-8.78,2,.17,4,.61,5.94.92a1.35,1.35,0,0,1,1,.65,28.17,28.17,0,0,1,4.7,17.54c-.07,1.12-.38,1.58-1.54,1.31C39,346.58,36.34,346.12,34.82,345Z"/>
  </g>
  <g>
    <path class="cls-13" d="M42.64,347.9S4.25,372.06,16.32,383.27s38-26.74,38-26.74Z"/>
    <path class="cls-13" d="M107.31,362.64s-11.05,39.4,6.45,38.78,8.8-40.75,8.8-40.75Z"/>
    <path class="cls-13" d="M185,346.61s38.39,24.15,26.31,35.37-38-26.74-38-26.74Z"/>
    <path class="cls-14" d="M187.94,344.11c0,13.86-33.86,25.1-75.63,25.1S36.68,358,36.68,344.11s-11.38-31.47,75.63-31.47S187.94,330.25,187.94,344.11Z"/>
    <ellipse class="cls-13" cx="112.31" cy="331.27" rx="75.63" ry="25.1"/>
  </g>
  <g>
    <path class="cls-11" d="M34,381.42s14-4.17,21.11-5.4c2.19-.38,4.35-1.48,6.68-.73a4,4,0,0,0,.65.54,23.44,23.44,0,0,1,11.41,13.11c.56,1.51,1.28,1.56,2.59,1.05,6.7-2.63,13.14-5.65,18-11.25,1.65,2.29,2,5,2.48,7.66a53.78,53.78,0,0,1,.77,16.5,7,7,0,0,1-4.25,6,21.89,21.89,0,0,1-18.14.31,4.52,4.52,0,0,0-3.84,0c-8,3.54-16.45,3.56-24.95,2.6A79.28,79.28,0,0,1,32.64,409,18.78,18.78,0,0,1,26,405.63c-6.06-5-5.86-15.35.36-20.2"/>
    <path class="cls-15" d="M94.46,378.74c-4.84,5.6-11.27,8.62-18,11.25-1.31.51-2,.46-2.59-1.05a23.44,23.44,0,0,0-11.41-13.11,4,4,0,0,1-.65-.54c2.16-.91,2.84-2.72,2.75-4.85-.32-7.53-1.52-15-1.39-22.58a.58.58,0,0,0-.08-.2c.29-2.12.67-4.24.86-6.37a34.62,34.62,0,0,1,5.12-16c2.66,2.84,5.92-1.79,7.88,1.55,7.74-1.7,6.37-7.5,13.12-1.4-1.26,7,.71,44.28,3.46,51.09C93.84,377.3,94.15,378,94.46,378.74Z"/>
    <path class="cls-16" d="M44,388.88c-2.47-3.09-1.44-7.15,2.39-8.82a58.66,58.66,0,0,1,6.13-2,1.68,1.68,0,0,1,1.4.15c5.72,3,9.42,7.79,12,13.54a1.13,1.13,0,0,1-.61,1.73C59.68,396.32,47.87,393.77,44,388.88Z"/>
  </g>
  <path class="cls-17" d="M172.78,177.8c-5.3,7.1-10.52,14.25-17.23,20.16a6.77,6.77,0,0,1-5.82,1.89c-4.77-.61-9.51-1.42-14.26-2.14-2-.31-3.58-.81-3-3.34-1.4,6.25-3.69,12.21-5.71,18.26-1.18,3.52-2,7.18-3.92,10.44-1.18,3.81-2.32,7.63-3.56,11.41-.62,1.9-1.12,3.83-1.59,5.77-1.38,5.78-1.73,12.73-5,17.86-1,1.53-2.07,3-3.13,4.44-1.3,1.78-3.09,2.4-4.89,3.55-3.47,2.2-6.67,5-10.69,6.19-3.79,1.1-7.24,3.16-11.09,4.17-3.51.93-6.78,2.66-10.09,4.14a40.63,40.63,0,0,1-4.63,2c-.84.26-4.69.36-4.9.79-.1.2.39,1.36.43,1.64a19.18,19.18,0,0,1,0,2.63c-.11,8.36.65,16.7.63,25.07q0,10.91,0,21.81a14.4,14.4,0,0,0,.27,4.32c.35,1.12.53,2.27.82,3.41a7.44,7.44,0,0,0,4.1,5.39c4.9,2.12,9.4,4.83,14.55,6.36a12.53,12.53,0,0,0,4.3.67c2.11-.11,3.89-1.91,5.62-3.08.86-.58,2-1,2.74-1.68s.88-1.38,1.59-1.84a15.18,15.18,0,0,1,3.29-1.34,81.09,81.09,0,0,1,13.77-3.2,43.36,43.36,0,0,0,9.65-2.14,8.37,8.37,0,0,1,3.15-.28,9.53,9.53,0,0,0,4-1.33c2.76-1.48,5.85-1.73,8.82-2.62a41.52,41.52,0,0,0,9.24-4.55,46.35,46.35,0,0,0,9.24-6.75,7,7,0,0,0,1.43-1.68c.07-.28.2-.22.36-.35,0,0,.33-.12.28-.09a4.28,4.28,0,0,0,.94-1.13c2.36-3.15,6.06-5.51,8.29-8.84a26.63,26.63,0,0,1,1.74-2.86,7,7,0,0,0,1.64-2.32c.68-1.56,1.47-3,2.27-4.47,1-1.88,1.3-4.11,1.85-6.17a45.75,45.75,0,0,0,1.26-6c1.48-11.88,2.24-23.84,5.41-35.39,19.8-72.1.47-74.22-12.15-78.87"/>
  <path class="cls-18" d="M172.78,177.8c-5.3,7.1-10.52,14.25-17.23,20.16a6.77,6.77,0,0,1-5.82,1.89c-4.77-.61-9.51-1.42-14.26-2.14-2-.31-3.58-.81-3-3.34.35-1.07.22-2.29,1-3.26,5.38,1.69,11,2.05,16.54,2.54a2.72,2.72,0,0,0,2.3-.91,158.57,158.57,0,0,0,14-15.69Z"/>
  <path class="cls-19" d="M166.24,177a158.57,158.57,0,0,1-14,15.69,2.72,2.72,0,0,1-2.3.91c-5.57-.49-11.16-.85-16.54-2.54a7,7,0,0,1,1-4.18c4.93,1,9.94,1.44,14.94,2a1.65,1.65,0,0,0,1.5-.65A144.53,144.53,0,0,0,161.09,176Z"/>
  <path class="cls-20" d="M161.09,176a144.53,144.53,0,0,1-10.22,12.19,1.65,1.65,0,0,1-1.5.65c-5-.53-10-1-14.94-2a22.17,22.17,0,0,1,.6-3.14c.27-1.5,1.06-1.81,2.36-1.51a77.15,77.15,0,0,0,10.53,2.14,1.79,1.79,0,0,0,1.78-.9c1.82-2.22,3.82-4.31,5.44-6.67,1.28-1.85,2.62-2.14,4.5-1.25A10.32,10.32,0,0,0,161.09,176Z"/>
  <g>
    <path class="cls-21" d="M62.89,49.38S45,73.15,62.73,104.09c0,0,12.79,17.39,6.59,30.33,0,0-7.93,11.65-2.82,17.13,0,0,3.5,5.42,13.46,2.22l9.47,8.89s14-5.23,19.33-14.35c0,0-3.51,7.06-13.56,17.7,0,0,14.65,18.59,47.55,10.36,0,0,40.61-11.52,50.07-50.22L216.3,78.69,199.44,44.4,164.16,10.92l-58.47,3.86Z"/>
    <path d="M63.26,49.09l33.56-4.56s26.25-22.58,63-30.79c0,0-35.73,10.08-58.13,31L129,41.4l16.92,16.52s33.87-16.25,55.16-5.31c0,0-20.36-9.2-52,9.88,0,0,8.7,11.17,10.51,19.89,0,0,10.44-10.82,19.16-6.77,0,0,13.58,6.14,9,28.05a31.68,31.68,0,0,1-10.42,19s7.95,31.47,48,44.5c0,0-22.93-24.56-19.13-41.61,0,0,22.73-31.65,22.38-35.33,0,0-5.62-24-21.05-36.29,0,0-1.6-26.05-10-40.83,0,0-20.55-8-33.06-4.8,0,0-37.27-13.13-55.77-6.29C108.73,2,74.33,23,63.26,49.09Z"/>
    <path class="cls-22" d="M160.52,90.31s5.33-8.69,13.12-9.07c0,0,7.09-2.35,9.6,11,0,0,.77,11.61-2.14,17.71,0,0-4.7,9.58-7.89,2.79,0,0-4.67,2.92-1,5.59,0,0,4.06,5.22,11.32-6.53,0,0,9.84-18.78-1.23-32.65,0,0-5.87-5.4-15.17.1C167.08,79.28,158.83,82.83,160.52,90.31Z"/>
    <path d="M66.18,88.14s-1.6-4.19,3.78-7.46c0,0,7.17-4.41,17-.29,0,0,8.8,3.62,11.54,9.79,0,0,1.41,2.43-3.9-.29,0,0-10.49-6.83-17.62-5a60.84,60.84,0,0,0-8.58,3.51S66.39,89.26,66.18,88.14Z"/>
    <path class="cls-23" d="M85.75,159.21s20.27-8.78,23.71-14.28c0,0,4.36,13.8-12.76,22.68,0,0-4.77,1.15-4.71-3.71,0,0,11.69-7.79,16.76-15.6,0,0-2.15,9.62-17.47,15.26C91.29,163.56,86.11,162.69,85.75,159.21Z"/>
    <g>
      <path class="cls-24" d="M76.7,113.47a15.94,15.94,0,0,1-.43-8.65c1.4-5.21,5.86-10,11.45-10.35a19.28,19.28,0,0,1,20.23,14.22c1.37,5-.91,9.07-4.06,12.69a19.53,19.53,0,0,1-7.73,5.33c-5.76,2.25-10.71.94-14.54-3.92A29.15,29.15,0,0,1,76.7,113.47Z"/>
      <g>
        <path class="cls-25" d="M78.88,119A11,11,0,1,1,94,122.47,11,11,0,0,1,78.88,119Zm10.3-15.31c-1.88,0-3,1.1-3.5,3.53-2,.43-4.26,3.35-4.35,5.72a7.72,7.72,0,0,0,5.38,7.72A7.13,7.13,0,0,0,95.13,117a7.5,7.5,0,0,0-1.76-9l-.72-.68C92.13,104.83,91,103.71,89.18,103.69Z"/>
        <path class="cls-26" d="M85.68,107.22c-2,.43-4.26,3.35-4.35,5.72a7.72,7.72,0,0,0,5.38,7.72A7.13,7.13,0,0,0,95.13,117a7.5,7.5,0,0,0-1.76-9l-.72-.68c-.55,1.75-1.43,3.19-3.52,3.13S86.07,109.1,85.68,107.22Z"/>
        <path class="cls-27" d="M85.68,107.22c.39,1.89,1.43,3.13,3.45,3.19s3-1.38,3.52-3.13c-.53-2.46-1.61-3.58-3.47-3.6S86.19,104.79,85.68,107.22Z"/>
      </g>
    </g>
  </g>
  <path class="cls-1" d="M146.64,303.11c0-.07-.08.09-.11.15a2.66,2.66,0,0,1-.21.26,5.9,5.9,0,0,0-.35.58l-.54.8c-.28.4-.66.71-.92,1.13a4,4,0,0,1-.64.79,18,18,0,0,1-1.44,1.31,5.69,5.69,0,0,1-1.52.92,17.24,17.24,0,0,1-2.4.84,10.2,10.2,0,0,1-2.23.21H134.8a5.07,5.07,0,0,0-1.3.06,3.36,3.36,0,0,1-.73.21c-.43,0-.83-.2-1.25-.2a.8.8,0,0,1-.31,0A.69.69,0,0,0,131,310h-.13a1.21,1.21,0,0,1-.31-.15c-.07,0-.15,0-.22-.07a1.91,1.91,0,0,0-.34-.14,1.38,1.38,0,0,1-.39-.19c-.08-.05-.09,0-.11-.1a.31.31,0,0,1,0-.19c0-.08.09-.08.16-.13s.09-.11.19-.14.26-.11.41-.17.34-.11.5-.19.27-.11.4-.17.16-.12.26-.17a7.9,7.9,0,0,0,.79-.45c.13-.09.24-.19.37-.27s.22-.09.33-.15a6.57,6.57,0,0,0,.68-.37c.22-.15.47-.26.68-.42a1.86,1.86,0,0,0,.35-.3c.14-.18.18-.36-.1-.36a1,1,0,0,0-.55.13c-.15.09-.27.22-.42.31-.4.26-.82.49-1.22.75-.55.37-1.1.75-1.68,1.08a21.35,21.35,0,0,1-3.41,1.6,13.8,13.8,0,0,1-1.58.46c-.73.16-1.45.46-2.18.66s-1.31.31-1.95.54a3.93,3.93,0,0,1-2.93-.22c-.75-.47-2-1.4-1.74-2.41.16-.73,1-1.25,1.58-1.64s1.3-.42,1.92-.77,1.16-.71,1.76-1a5.28,5.28,0,0,0,1.43-1.11,10.47,10.47,0,0,1,.75-1.06,4.92,4.92,0,0,0,.87-1.62q.86-2,1.69-3.92c.19-.45.54-1,0-1.42s-1,.11-1.4.38c-2.77,1.82-5.51,3.7-8.29,5.51a26.6,26.6,0,0,1-6.87,3.5c-1,.3-2.09.49-2.87-.45a2.82,2.82,0,0,1-.25-2.94,17.9,17.9,0,0,1,4.43-6.27c3.37-3.29,6.86-6.46,10.29-9.69,2.51-2.37,2.4-3.18-.72-4.74a54.82,54.82,0,0,1-6-2.86,5.07,5.07,0,0,1-2.47-3,3,3,0,0,1,2.19-4c3.65-1.31,7.48-1.07,11.26-1.12,2.28,0,4.55.07,6.83.17a3.64,3.64,0,0,0,3.41-1.36q1.27-1.63,2.49-3.29,4-5.48,7.53-11.33a133.67,133.67,0,0,0,6.32-11.93,131.66,131.66,0,0,0,5.08-12.54q1.12-3.22,2.07-6.5.48-1.65.91-3.31c.13-.49.84-2.6,1.08-3.1.15-.32.22-.73.57-.82a1.9,1.9,0,0,1,1,.18c5,1.85,10.05.81,15-.54a1.24,1.24,0,0,1,.65-.06c.59.16.6,1,.48,1.59-4.57,22.38-13.19,43.85-22.7,64.57a8.23,8.23,0,0,0-.75,3.83c.07,2.22.14,4.43.18,6.65,0,0,1.5,5.38-3.9,11.07a17.9,17.9,0,0,1-10.13,5.62.33.33,0,0,1-.28-.57C143.5,307.59,146.58,304.57,146.64,303.11Z"/>
  <path class="cls-9" d="M162.77,192.75a13.87,13.87,0,0,0-1,2.79c-.77,3.15-.86,6.4-1.47,9.58a34.32,34.32,0,0,1-2,6.53,5.14,5.14,0,0,0-.55,2.26,2.28,2.28,0,0,0,.71,1.42c3.46,3.43,6.71,4.65,11.14,5.28,2.42.34,4.76.36,7.2.56a3.67,3.67,0,0,0,3.1-.69,11,11,0,0,0,1.52-2.55c1.59-3.68,3.56-6.19,5.92-9.44,2.57-3.54,4-6.68,4.08-10.64a18.48,18.48,0,0,0-.93-7.46,11.87,11.87,0,0,0-4.65-5.56C177.71,180.11,166.76,184.63,162.77,192.75Z"/>
</svg>
