<svg id="Layer_1" data-name="Layer 1" xmlns="http://www.w3.org/2000/svg" xmlns:xlink="http://www.w3.org/1999/xlink" viewBox="0 0 181.76 191.19"><defs><style>.cls-1{fill:#1daded;}.cls-2{fill:none;}.cls-3{opacity:0.2;}.cls-4{fill:#ff6801;}.cls-5{fill:#ffeff7;}.cls-6{opacity:0.3;}.cls-7{fill:#f0f;}.cls-8{fill:#28d428;}.cls-9{fill:#1ebde2;}.cls-10{clip-path:url(#clip-path);}.cls-11{fill:#edb220;}.cls-12{fill:#ffcb33;}.cls-13{fill:#1bb3ef;}.cls-14{fill:#f7f6da;}.cls-15{fill:#fff;}.cls-16{fill:#8b5e3c;}.cls-17{fill:#603913;}.cls-18{clip-path:url(#clip-path-2);}</style><clipPath id="clip-path"><path id="SVGID" class="cls-1" d="M60.38,161.79s-27.77-.4-51.72-21.31c0,0-.83,21.79,19.68,29.46S60.38,161.79,60.38,161.79Z"/></clipPath><clipPath id="clip-path-2"><path id="SVGID-2" data-name="SVGID" class="cls-2" d="M54.61,159.78s-27.67,2.39-53.6-16c0,0,1.36,21.77,22.55,27.34S54.61,159.78,54.61,159.78Z"/></clipPath></defs><title>04_a_small_singing_bird</title><g class="cls-3"><polygon class="cls-4" points="157.05 29.14 152.29 43.67 150.94 47.42 153.62 48.63 160.23 30.43 157.05 29.14"/><path class="cls-4" d="M153.06,49.83c-1.82,2.88-5.4,3.44-8.65,1.39s-5.24-6.47-3.42-9.36,6.23-3,9.48-1S154.88,46.94,153.06,49.83Z"/><path class="cls-5" d="M142,42.83c.38,1.11,2.89,0,2.2-1.25-.57-1-1.76-.24-2.11.54A1,1,0,0,0,142,42.83Z"/><path class="cls-5" d="M150.31,43.89c.48-.25.6-.87,0-1.77a3.85,3.85,0,0,0-3.23-1.47,1.8,1.8,0,0,0-1.18.45,1,1,0,0,0-.19,1.17,1.51,1.51,0,0,0,.71.5l2.21,1A2.08,2.08,0,0,0,150.31,43.89Z"/></g><g class="cls-6"><path class="cls-7" d="M136.37,84.36,126.16,73l16.62-12.85c.88,1.13,10.63,12.95,13,16l-2.41,2.16-9.14-11.13L133,76l8.34,9.64L139,87.39Z"/><path class="cls-7" d="M142.09,86.76c1.58,3,.28,6.4-3.12,8.19s-8.23,1.31-9.81-1.71.5-6.91,3.9-8.7S140.5,83.74,142.09,86.76Z"/><path class="cls-7" d="M156.26,76.87c1.59,3,.28,6.4-3.12,8.19s-8.22,1.31-9.81-1.71.5-6.91,3.9-8.7S154.67,73.85,156.26,76.87Z"/><path class="cls-5" d="M130.42,92.92c1.15.22,1.4-2.53,0-2.53-1.16,0-1.08,1.4-.59,2.09A1,1,0,0,0,130.42,92.92Z"/><path class="cls-5" d="M135.49,86.24c0-.55-.45-1-1.54-.87a3.85,3.85,0,0,0-2.88,2.06,1.74,1.74,0,0,0-.2,1.24,1,1,0,0,0,.92.75,1.51,1.51,0,0,0,.78-.36l2-1.42A2,2,0,0,0,135.49,86.24Z"/><path class="cls-5" d="M144.6,82.63c1.15.22,1.4-2.53,0-2.53-1.16,0-1.08,1.4-.58,2.09A.93.93,0,0,0,144.6,82.63Z"/><path class="cls-5" d="M149.67,76c0-.55-.45-1-1.54-.87a3.85,3.85,0,0,0-2.88,2.06,1.75,1.75,0,0,0-.2,1.24,1,1,0,0,0,.92.75,1.51,1.51,0,0,0,.78-.36l2-1.42A2,2,0,0,0,149.67,76Z"/></g><path class="cls-8" d="M122.22,125.33,112,113.94l16.62-12.85c.88,1.13,10.63,13,13,16l-2.41,2.16-9.14-11.13L118.84,117l8.34,9.64-2.39,1.71Z"/><path class="cls-8" d="M127.93,127.73c1.59,3,.29,6.4-3.11,8.19s-8.23,1.31-9.81-1.71.5-6.91,3.9-8.7S126.35,124.71,127.93,127.73Z"/><path class="cls-8" d="M142.11,117.84c1.59,3,.28,6.4-3.12,8.19s-8.22,1.31-9.81-1.71.5-6.91,3.9-8.7S140.52,114.82,142.11,117.84Z"/><rect class="cls-8" x="118.23" y="113.44" width="17.93" height="2.92" transform="translate(-43.79 102.79) rotate(-38.04)"/><path class="cls-5" d="M116.25,134c1.15.22,1.41-2.53,0-2.54-1.16,0-1.09,1.41-.59,2.1A1,1,0,0,0,116.25,134Z"/><path class="cls-5" d="M121.33,127.28c0-.55-.46-1-1.55-.87a3.83,3.83,0,0,0-2.87,2.06,1.77,1.77,0,0,0-.21,1.25,1,1,0,0,0,.92.75,1.55,1.55,0,0,0,.78-.36l2-1.42A2.07,2.07,0,0,0,121.33,127.28Z"/><path class="cls-5" d="M130.43,123.68c1.15.22,1.41-2.53,0-2.54-1.16,0-1.09,1.41-.59,2.1A1,1,0,0,0,130.43,123.68Z"/><path class="cls-5" d="M135.51,117c0-.55-.46-1-1.55-.87a3.86,3.86,0,0,0-2.87,2.06,1.78,1.78,0,0,0-.21,1.25,1,1,0,0,0,.92.75,1.52,1.52,0,0,0,.78-.36l2-1.42A2.07,2.07,0,0,0,135.51,117Z"/><path class="cls-9" d="M60.38,161.79s-27.77-.4-51.72-21.31c0,0-.83,21.79,19.68,29.46S60.38,161.79,60.38,161.79Z"/><path id="SVGID-3" data-name="SVGID" class="cls-1" d="M60.38,161.79s-27.77-.4-51.72-21.31c0,0-.83,21.79,19.68,29.46S60.38,161.79,60.38,161.79Z"/><g class="cls-10"><circle class="cls-11" cx="57.73" cy="167.75" r="6.41" transform="translate(-56.57 32.07) rotate(-21.12)"/><circle class="cls-11" cx="47.83" cy="170.8" r="6.41" transform="translate(-58.34 28.71) rotate(-21.12)"/><circle class="cls-11" cx="36.28" cy="171.58" r="6.41" transform="translate(-59.4 24.6) rotate(-21.12)"/><circle class="cls-11" cx="25.79" cy="167.78" r="6.41" transform="translate(-58.73 20.57) rotate(-21.12)"/><circle class="cls-11" cx="16.73" cy="162.3" r="6.41" transform="matrix(0.93, -0.36, 0.36, 0.93, -57.37, 16.93)"/><circle class="cls-11" cx="9.09" cy="153.73" r="6.41" transform="translate(-54.79 13.61) rotate(-21.12)"/><circle class="cls-11" cx="4.08" cy="144.68" r="6.41" transform="translate(-51.86 11.19) rotate(-21.12)"/></g><path class="cls-12" d="M84.56,133.75s21.45,3.11,27.18,5c5,1.63,8.05,4.62,5.8,15.06a2.09,2.09,0,0,1-3.57,1c-1.83-2-5-4.14-10.65-5.22C91.83,147.31,82.45,146,82.45,146S84.7,133,84.56,133.75Z"/><path class="cls-13" d="M75.13,103.78c-7.13-1.37-27,0-31.27,20.09S30.21,170,0,164.16c0,0,16.76,35,61.69,25.35S114.57,111.37,75.13,103.78Z"/><path class="cls-14" d="M90.29,170.5a47,47,0,0,1-28.6,19,72.22,72.22,0,0,1-14.81,1.68,26.47,26.47,0,0,1,.45-6.18,26.06,26.06,0,0,1,43-14.51Z"/><circle class="cls-15" cx="79.16" cy="136.43" r="17.08" transform="translate(-25.65 18.55) rotate(-11.52)"/><circle class="cls-16" cx="76.06" cy="137.13" r="8.09" transform="translate(-23.05 15.61) rotate(-10.18)"/><circle class="cls-17" cx="75.81" cy="137.26" r="4.42" transform="translate(-23.07 15.56) rotate(-10.18)"/><circle class="cls-15" cx="74.37" cy="132.32" r="2.83" transform="translate(-22.22 15.23) rotate(-10.18)"/><path class="cls-1" d="M54.61,159.78s-27.67,2.39-53.6-16c0,0,1.36,21.77,22.55,27.34S54.61,159.78,54.61,159.78Z"/><g class="cls-18"><circle class="cls-12" cx="52.57" cy="165.97" r="6.41" transform="translate(-69.39 41.73) rotate(-26.89)"/><circle class="cls-12" cx="43.03" cy="170" r="6.41" transform="translate(-72.24 37.85) rotate(-26.89)"/><circle class="cls-12" cx="31.62" cy="171.94" r="6.41" transform="translate(-74.36 32.9) rotate(-26.89)"/><circle class="cls-12" cx="20.8" cy="169.21" r="6.41" transform="translate(-74.29 27.71) rotate(-26.89)"/><circle class="cls-12" cx="11.23" cy="164.68" r="6.41" transform="translate(-73.27 22.89) rotate(-26.89)"/><circle class="cls-12" cx="2.77" cy="156.91" r="6.41" transform="translate(-70.68 18.22) rotate(-26.89)"/><circle class="cls-12" cx="-3.13" cy="148.41" r="6.41" transform="translate(-67.47 14.64) rotate(-26.89)"/></g></svg>