<svg id="Layer_1" data-name="Layer 1" xmlns="http://www.w3.org/2000/svg" xmlns:xlink="http://www.w3.org/1999/xlink" viewBox="0 0 143.21 125.18"><defs><style>.cls-1{fill:#1daded;}.cls-2{fill:none;}.cls-3{opacity:0.5;}.cls-4{fill:#ff6801;}.cls-5{fill:#ffeff7;}.cls-6{fill:#f0f;}.cls-7{fill:#1ebde2;}.cls-8{clip-path:url(#clip-path);}.cls-9{fill:#edb220;}.cls-10{fill:#ffcb33;}.cls-11{fill:#1bb3ef;}.cls-12{fill:#f7f6da;}.cls-13{fill:#fff;}.cls-14{fill:#8b5e3c;}.cls-15{fill:#603913;}.cls-16{clip-path:url(#clip-path-2);}</style><clipPath id="clip-path"><path id="SVGID" class="cls-1" d="M58.7,93.24S31.06,90.51,9,67.68c0,0-2.65,21.64,17.15,31S58.7,93.24,58.7,93.24Z"/></clipPath><clipPath id="clip-path-2"><path id="SVGID-2" data-name="SVGID" class="cls-2" d="M53.12,90.75s-27.77.07-52.07-20.43c0,0-.46,21.8,20.18,29.12S53.12,90.75,53.12,90.75Z"/></clipPath></defs><title>04_a_small_singing_bird</title><g class="cls-3"><polygon class="cls-4" points="140.03 0 135.26 14.53 133.92 18.28 136.6 19.49 143.21 1.28 140.03 0"/><path class="cls-4" d="M136,20.68c-1.82,2.88-5.4,3.44-8.65,1.39s-5.24-6.47-3.43-9.35,6.24-3,9.49-1S137.86,17.8,136,20.68Z"/><path class="cls-5" d="M125,13.69c.38,1.11,2.89,0,2.2-1.25-.57-1-1.76-.24-2.11.53A1,1,0,0,0,125,13.69Z"/><path class="cls-5" d="M133.28,14.75c.49-.26.61-.88,0-1.78A3.84,3.84,0,0,0,130,11.51a1.79,1.79,0,0,0-1.18.44,1,1,0,0,0-.19,1.18,1.59,1.59,0,0,0,.7.49l2.21,1A2.05,2.05,0,0,0,133.28,14.75Z"/></g><path class="cls-6" d="M119.35,55.21,109.14,43.83,125.76,31c.87,1.14,10.63,13,13,16l-2.41,2.15L127.19,38,116,46.9l8.34,9.63-2.39,1.72Z"/><path class="cls-6" d="M125.06,57.61c1.59,3,.29,6.4-3.11,8.19s-8.23,1.31-9.82-1.7.51-6.91,3.91-8.7S123.48,54.6,125.06,57.61Z"/><path class="cls-6" d="M139.24,47.72c1.58,3,.28,6.4-3.12,8.19s-8.23,1.31-9.81-1.7.5-6.91,3.9-8.7S137.65,44.71,139.24,47.72Z"/><path class="cls-5" d="M113.39,63.78c1.16.22,1.41-2.53,0-2.54-1.16,0-1.08,1.41-.59,2.1A1,1,0,0,0,113.39,63.78Z"/><path class="cls-5" d="M118.47,57.09c0-.55-.46-1-1.55-.87a3.85,3.85,0,0,0-2.87,2.06,1.77,1.77,0,0,0-.21,1.25,1,1,0,0,0,.93.75,1.52,1.52,0,0,0,.77-.36l2-1.42A2.07,2.07,0,0,0,118.47,57.09Z"/><path class="cls-5" d="M127.57,53.49c1.16.22,1.41-2.53,0-2.54-1.16,0-1.08,1.41-.59,2.1A1,1,0,0,0,127.57,53.49Z"/><path class="cls-5" d="M132.65,46.8c0-.55-.46-1-1.55-.87A3.88,3.88,0,0,0,128.23,48a1.84,1.84,0,0,0-.21,1.25A1,1,0,0,0,129,50a1.59,1.59,0,0,0,.78-.36l2-1.42A2.07,2.07,0,0,0,132.65,46.8Z"/><path class="cls-7" d="M58.7,93.24S31.06,90.51,9,67.68c0,0-2.65,21.64,17.15,31S58.7,93.24,58.7,93.24Z"/><path id="SVGID-3" data-name="SVGID" class="cls-1" d="M58.7,93.24S31.06,90.51,9,67.68c0,0-2.65,21.64,17.15,31S58.7,93.24,58.7,93.24Z"/><g class="cls-8"><circle class="cls-9" cx="55.56" cy="98.95" r="6.41" transform="translate(-25.58 19.62) rotate(-16.33)"/><circle class="cls-9" cx="45.44" cy="101.16" r="6.41" transform="translate(-26.61 16.86) rotate(-16.33)"/><circle class="cls-9" cx="33.87" cy="100.98" r="6.41" transform="matrix(0.96, -0.28, 0.28, 0.96, -27.03, 13.6)"/><circle class="cls-9" cx="23.73" cy="96.31" r="6.41" transform="translate(-26.12 10.56) rotate(-16.33)"/><circle class="cls-9" cx="15.16" cy="90.1" r="6.41" transform="translate(-24.72 7.9) rotate(-16.33)"/><circle class="cls-9" cx="8.27" cy="80.92" r="6.41" transform="translate(-22.42 5.59) rotate(-16.33)"/><circle class="cls-9" cx="4.03" cy="71.48" r="6.41" transform="translate(-19.94 4.02) rotate(-16.33)"/></g><path class="cls-10" d="M76.45,59.86s21.64-1.38,27.62-.74c5.26.56,8.84,2.86,8.79,13.53a2.08,2.08,0,0,1-3.29,1.68c-2.19-1.53-5.79-3-11.5-2.91-11.7.21-21.14.88-21.14.88S76.44,59.12,76.45,59.86Z"/><path class="cls-11" d="M61,32.49c-7.26.13-26.39,5.6-26.45,26.12S30.76,106.53,0,107.09c0,0,23.63,30.76,65.59,12.06S101.2,31.77,61,32.49Z"/><path class="cls-12" d="M89.65,94.64a47,47,0,0,1-24.06,24.51,71.93,71.93,0,0,1-14.13,4.7A26.07,26.07,0,0,1,89.65,94.64Z"/><circle class="cls-13" cx="71.72" cy="63.61" r="17.08" transform="translate(-19.38 33.77) rotate(-23.44)"/><circle class="cls-14" cx="68.83" cy="64.93" r="8.09" transform="translate(-19.37 30.67) rotate(-22.1)"/><circle class="cls-15" cx="68.62" cy="65.11" r="4.42" transform="matrix(0.93, -0.38, 0.38, 0.93, -19.45, 30.6)"/><circle class="cls-13" cx="66.19" cy="60.57" r="2.83" transform="translate(-17.93 29.35) rotate(-22.1)"/><path class="cls-1" d="M53.12,90.75s-27.77.07-52.07-20.43c0,0-.46,21.8,20.18,29.12S53.12,90.75,53.12,90.75Z"/><g class="cls-16"><circle class="cls-10" cx="50.57" cy="96.75" r="6.41" transform="translate(-32.68 26.14) rotate(-22.1)"/><circle class="cls-10" cx="40.72" cy="99.96" r="6.41" transform="translate(-34.62 22.67) rotate(-22.1)"/><circle class="cls-10" cx="29.19" cy="100.94" r="6.41" transform="translate(-35.84 18.4) rotate(-22.1)"/><circle class="cls-10" cx="18.64" cy="97.32" r="6.41" transform="translate(-35.25 14.16) rotate(-22.1)"/><circle class="cls-10" cx="9.48" cy="92" r="6.41" transform="translate(-33.92 10.33) rotate(-22.1)"/><circle class="cls-10" cx="1.7" cy="83.56" r="6.41" transform="translate(-31.31 6.78) rotate(-22.1)"/><circle class="cls-10" cx="-3.46" cy="74.59" r="6.41" transform="translate(-28.32 4.18) rotate(-22.1)"/></g></svg>