<svg id="Layer_1" data-name="Layer 1" xmlns="http://www.w3.org/2000/svg" xmlns:xlink="http://www.w3.org/1999/xlink" viewBox="0 0 181.76 191.19"><defs><style>.cls-1{fill:#1daded;}.cls-2{fill:none;}.cls-3{fill:#1ebde2;}.cls-4{clip-path:url(#clip-path);}.cls-5{fill:#edb220;}.cls-6{fill:#ffcb33;}.cls-7{fill:#1bb3ef;}.cls-8{fill:#f7f6da;}.cls-9{fill:#fff;}.cls-10{fill:#8b5e3c;}.cls-11{fill:#603913;}.cls-12{clip-path:url(#clip-path-2);}.cls-13{opacity:0.1;}.cls-14{fill:#0410aa;}.cls-15{fill:#ffeff7;}</style><clipPath id="clip-path"><path id="SVGID" class="cls-1" d="M58.7,159.24S31.06,156.52,9,133.68c0,0-2.65,21.65,17.15,31S58.7,159.24,58.7,159.24Z"/></clipPath><clipPath id="clip-path-2"><path id="SVGID-2" data-name="SVGID" class="cls-2" d="M53.12,156.76s-27.77.07-52.07-20.43c0,0-.46,21.8,20.18,29.12S53.12,156.76,53.12,156.76Z"/></clipPath></defs><title>04_a_small_singing_bird</title><path class="cls-3" d="M58.7,159.24S31.06,156.52,9,133.68c0,0-2.65,21.65,17.15,31S58.7,159.24,58.7,159.24Z"/><path id="SVGID-3" data-name="SVGID" class="cls-1" d="M58.7,159.24S31.06,156.52,9,133.68c0,0-2.65,21.65,17.15,31S58.7,159.24,58.7,159.24Z"/><g class="cls-4"><circle class="cls-5" cx="55.56" cy="164.96" r="6.41" transform="translate(-44.14 22.28) rotate(-16.33)"/><circle class="cls-5" cx="45.44" cy="167.17" r="6.41" transform="translate(-45.17 19.52) rotate(-16.33)"/><circle class="cls-5" cx="33.87" cy="166.98" r="6.41" transform="translate(-45.59 16.26) rotate(-16.33)"/><circle class="cls-5" cx="23.73" cy="162.32" r="6.41" transform="translate(-44.68 13.22) rotate(-16.33)"/><circle class="cls-5" cx="15.16" cy="156.1" r="6.41" transform="translate(-43.28 10.56) rotate(-16.33)"/><circle class="cls-5" cx="8.27" cy="146.92" r="6.41" transform="translate(-40.98 8.25) rotate(-16.33)"/><circle class="cls-5" cx="4.03" cy="137.48" r="6.41" transform="translate(-38.5 6.68) rotate(-16.33)"/></g><path class="cls-6" d="M76.45,125.87s21.64-1.38,27.62-.74c5.26.56,8.84,2.85,8.79,13.53a2.08,2.08,0,0,1-3.29,1.68c-2.19-1.53-5.79-3-11.5-2.91-11.7.21-21.14.88-21.14.88S76.44,125.13,76.45,125.87Z"/><path class="cls-7" d="M61,98.5c-7.26.13-26.39,5.6-26.45,26.11S30.76,172.54,0,173.09c0,0,23.63,30.77,65.59,12.07S101.2,97.78,61,98.5Z"/><path class="cls-8" d="M89.65,160.65a47,47,0,0,1-24.06,24.51,71.93,71.93,0,0,1-14.13,4.7,26.06,26.06,0,0,1,38.19-29.21Z"/><circle class="cls-9" cx="71.72" cy="129.62" r="17.08" transform="translate(-45.64 39.22) rotate(-23.44)"/><circle class="cls-10" cx="68.83" cy="130.94" r="8.09" transform="translate(-44.21 35.52) rotate(-22.1)"/><circle class="cls-11" cx="68.62" cy="131.11" r="4.42" transform="translate(-44.29 35.45) rotate(-22.1)"/><circle class="cls-9" cx="66.19" cy="126.58" r="2.83" transform="translate(-42.76 34.2) rotate(-22.1)"/><path class="cls-1" d="M53.12,156.76s-27.77.07-52.07-20.43c0,0-.46,21.8,20.18,29.12S53.12,156.76,53.12,156.76Z"/><g class="cls-12"><circle class="cls-6" cx="50.57" cy="162.75" r="6.41" transform="translate(-57.52 30.99) rotate(-22.1)"/><circle class="cls-6" cx="40.72" cy="165.97" r="6.41" transform="translate(-59.45 27.52) rotate(-22.1)"/><circle class="cls-6" cx="29.19" cy="166.95" r="6.41" transform="translate(-60.67 23.25) rotate(-22.1)"/><circle class="cls-6" cx="18.64" cy="163.33" r="6.41" transform="translate(-60.08 19.01) rotate(-22.1)"/><circle class="cls-6" cx="9.48" cy="158.01" r="6.41" transform="translate(-58.76 15.18) rotate(-22.1)"/><circle class="cls-6" cx="1.7" cy="149.57" r="6.41" transform="translate(-56.15 11.63) rotate(-22.1)"/><circle class="cls-6" cx="-3.46" cy="140.6" r="6.41" transform="translate(-53.16 9.03) rotate(-22.1)"/></g><g class="cls-13"><path class="cls-14" d="M148,42.89c1.59,3,.28,6.4-3.11,8.19s-8.23,1.31-9.82-1.71.51-6.9,3.9-8.7S146.36,39.88,148,42.89Z"/><path class="cls-14" d="M162.12,33c1.59,3,.29,6.4-3.11,8.19s-8.23,1.31-9.82-1.71.51-6.9,3.91-8.7S160.54,30,162.12,33Z"/><path class="cls-14" d="M164.15,4.3l-9.28,7.18-6.2,4.8,0,0-9.29,7.18L132,29.1l10.21,11.39,2.57,3,2.39-1.72-8.35-9.64,5.41-4.29,5.82-4.64,9.14,11.13,2.4-2.16c-1.42-1.83-5.6-6.94-8.85-10.9l12.81-10,9.14,11.12,2.41-2.15C174.78,17.25,165,5.44,164.15,4.3Z"/><path class="cls-14" d="M177.63,21.05c1.59,3,.28,6.4-3.12,8.19s-8.22,1.31-9.81-1.7.5-6.91,3.9-8.7S176,18,177.63,21.05Z"/><path class="cls-15" d="M136.44,49.45c1.15.22,1.4-2.53,0-2.53-1.17,0-1.09,1.4-.59,2.09A1,1,0,0,0,136.44,49.45Z"/><path class="cls-15" d="M141.51,42.77c0-.55-.45-1-1.54-.87A3.85,3.85,0,0,0,137.09,44a1.74,1.74,0,0,0-.2,1.24,1,1,0,0,0,.92.75,1.51,1.51,0,0,0,.78-.36l2-1.42A2,2,0,0,0,141.51,42.77Z"/><path class="cls-15" d="M150.8,38.94c1.15.22,1.4-2.53,0-2.54-1.16,0-1.09,1.41-.59,2.1A1,1,0,0,0,150.8,38.94Z"/><path class="cls-15" d="M155.88,32.25c0-.55-.46-1-1.55-.87a3.87,3.87,0,0,0-2.88,2.06,1.83,1.83,0,0,0-.2,1.25,1,1,0,0,0,.92.75,1.59,1.59,0,0,0,.78-.36l2-1.42A2.06,2.06,0,0,0,155.88,32.25Z"/><path class="cls-15" d="M166.8,27.23c1.15.22,1.4-2.53,0-2.54-1.16,0-1.08,1.41-.59,2.1A1,1,0,0,0,166.8,27.23Z"/><path class="cls-15" d="M171.87,20.54c0-.55-.45-1-1.54-.87a3.87,3.87,0,0,0-2.88,2.06,1.78,1.78,0,0,0-.2,1.25,1,1,0,0,0,.92.75,1.59,1.59,0,0,0,.78-.36l2-1.42A2,2,0,0,0,171.87,20.54Z"/></g></svg>