<svg id="Layer_1" data-name="Layer 1" xmlns="http://www.w3.org/2000/svg" xmlns:xlink="http://www.w3.org/1999/xlink" viewBox="0 0 181.76 191.19"><defs><style>.cls-1{fill:#1daded;}.cls-2{fill:none;}.cls-3{opacity:0.5;}.cls-4{fill:#ff6801;}.cls-5{fill:#ffeff7;}.cls-6{fill:#f0f;}.cls-7{fill:#1ebde2;}.cls-8{clip-path:url(#clip-path);}.cls-9{fill:#edb220;}.cls-10{fill:#ffcb33;}.cls-11{fill:#1bb3ef;}.cls-12{fill:#f7f6da;}.cls-13{fill:#fff;}.cls-14{fill:#8b5e3c;}.cls-15{fill:#603913;}.cls-16{clip-path:url(#clip-path-2);}</style><clipPath id="clip-path"><path id="SVGID" class="cls-1" d="M58.7,159.24S31.06,156.52,9,133.68c0,0-2.65,21.65,17.15,31S58.7,159.24,58.7,159.24Z"/></clipPath><clipPath id="clip-path-2"><path id="SVGID-2" data-name="SVGID" class="cls-2" d="M53.12,156.76s-27.77.07-52.07-20.43c0,0-.46,21.8,20.18,29.12S53.12,156.76,53.12,156.76Z"/></clipPath></defs><title>04_a_small_singing_bird</title><g class="cls-3"><polygon class="cls-4" points="139.24 57.92 134.48 72.45 133.13 76.2 135.81 77.41 142.42 59.2 139.24 57.92"/><path class="cls-4" d="M135.25,78.6c-1.81,2.88-5.4,3.44-8.65,1.39s-5.24-6.47-3.42-9.35,6.23-3,9.48-1S137.07,75.72,135.25,78.6Z"/><path class="cls-5" d="M124.17,71.61c.38,1.1,2.89,0,2.2-1.26-.57-1-1.76-.23-2.11.54A1,1,0,0,0,124.17,71.61Z"/><path class="cls-5" d="M132.5,72.66c.49-.25.6-.87,0-1.77a3.84,3.84,0,0,0-3.22-1.46,1.78,1.78,0,0,0-1.18.44,1,1,0,0,0-.19,1.18,1.49,1.49,0,0,0,.7.49l2.21,1A2,2,0,0,0,132.5,72.66Z"/></g><path class="cls-6" d="M118.56,113.13l-10.2-11.39L125,88.89c.87,1.13,10.63,13,13,16L135.54,107l-9.13-11.13-11.23,8.93,8.34,9.64-2.38,1.72Z"/><path class="cls-6" d="M124.28,115.53c1.59,3,.28,6.4-3.12,8.19s-8.22,1.31-9.81-1.71.5-6.9,3.9-8.69S122.69,112.52,124.28,115.53Z"/><path class="cls-6" d="M138.45,105.64c1.59,3,.28,6.4-3.12,8.19s-8.22,1.31-9.81-1.71.5-6.9,3.9-8.69S136.86,102.63,138.45,105.64Z"/><path class="cls-5" d="M112.61,121.69c1.15.22,1.4-2.53,0-2.53-1.17,0-1.09,1.4-.59,2.09A1,1,0,0,0,112.61,121.69Z"/><path class="cls-5" d="M117.69,115c0-.55-.46-1-1.55-.87a3.85,3.85,0,0,0-2.88,2.06,1.8,1.8,0,0,0-.2,1.24,1,1,0,0,0,.92.76,1.61,1.61,0,0,0,.78-.37l2-1.42A2,2,0,0,0,117.69,115Z"/><path class="cls-5" d="M126.79,111.41c1.15.22,1.4-2.53,0-2.54-1.16,0-1.09,1.41-.59,2.1A1,1,0,0,0,126.79,111.41Z"/><path class="cls-5" d="M131.87,104.72c0-.55-.46-1-1.55-.87a3.85,3.85,0,0,0-2.88,2.06,1.8,1.8,0,0,0-.2,1.24,1,1,0,0,0,.92.76,1.59,1.59,0,0,0,.78-.36l2-1.42A2.06,2.06,0,0,0,131.87,104.72Z"/><path class="cls-7" d="M58.7,159.24S31.06,156.52,9,133.68c0,0-2.65,21.65,17.15,31S58.7,159.24,58.7,159.24Z"/><path id="SVGID-3" data-name="SVGID" class="cls-1" d="M58.7,159.24S31.06,156.52,9,133.68c0,0-2.65,21.65,17.15,31S58.7,159.24,58.7,159.24Z"/><g class="cls-8"><circle class="cls-9" cx="55.56" cy="164.96" r="6.41" transform="translate(-44.14 22.28) rotate(-16.33)"/><circle class="cls-9" cx="45.44" cy="167.17" r="6.41" transform="translate(-45.17 19.52) rotate(-16.33)"/><circle class="cls-9" cx="33.87" cy="166.98" r="6.41" transform="matrix(0.96, -0.28, 0.28, 0.96, -45.59, 16.26)"/><circle class="cls-9" cx="23.73" cy="162.32" r="6.41" transform="translate(-44.68 13.22) rotate(-16.33)"/><circle class="cls-9" cx="15.16" cy="156.1" r="6.41" transform="translate(-43.28 10.56) rotate(-16.33)"/><circle class="cls-9" cx="8.27" cy="146.92" r="6.41" transform="translate(-40.98 8.25) rotate(-16.33)"/><circle class="cls-9" cx="4.03" cy="137.48" r="6.41" transform="translate(-38.5 6.68) rotate(-16.33)"/></g><path class="cls-10" d="M76.45,125.87s21.64-1.38,27.62-.74c5.26.56,8.84,2.85,8.79,13.53a2.08,2.08,0,0,1-3.29,1.68c-2.19-1.53-5.79-3-11.5-2.91-11.7.21-21.14.88-21.14.88S76.44,125.13,76.45,125.87Z"/><path class="cls-11" d="M61,98.5c-7.26.13-26.39,5.6-26.45,26.11S30.76,172.54,0,173.09c0,0,23.63,30.77,65.59,12.07S101.2,97.78,61,98.5Z"/><path class="cls-12" d="M89.65,160.65a47,47,0,0,1-24.06,24.51,71.93,71.93,0,0,1-14.13,4.7,26.06,26.06,0,0,1,38.19-29.21Z"/><circle class="cls-13" cx="71.72" cy="129.62" r="17.08" transform="translate(-45.64 39.22) rotate(-23.44)"/><circle class="cls-14" cx="68.83" cy="130.94" r="8.09" transform="translate(-44.21 35.52) rotate(-22.1)"/><circle class="cls-15" cx="68.62" cy="131.11" r="4.42" transform="matrix(0.93, -0.38, 0.38, 0.93, -44.29, 35.45)"/><circle class="cls-13" cx="66.19" cy="126.58" r="2.83" transform="translate(-42.76 34.2) rotate(-22.1)"/><path class="cls-1" d="M53.12,156.76s-27.77.07-52.07-20.43c0,0-.46,21.8,20.18,29.12S53.12,156.76,53.12,156.76Z"/><g class="cls-16"><circle class="cls-10" cx="50.57" cy="162.75" r="6.41" transform="translate(-57.52 30.99) rotate(-22.1)"/><circle class="cls-10" cx="40.72" cy="165.97" r="6.41" transform="translate(-59.45 27.52) rotate(-22.1)"/><circle class="cls-10" cx="29.19" cy="166.95" r="6.41" transform="translate(-60.67 23.25) rotate(-22.1)"/><circle class="cls-10" cx="18.64" cy="163.33" r="6.41" transform="translate(-60.08 19.01) rotate(-22.1)"/><circle class="cls-10" cx="9.48" cy="158.01" r="6.41" transform="translate(-58.76 15.18) rotate(-22.1)"/><circle class="cls-10" cx="1.7" cy="149.57" r="6.41" transform="translate(-56.15 11.63) rotate(-22.1)"/><circle class="cls-10" cx="-3.46" cy="140.6" r="6.41" transform="translate(-53.16 9.03) rotate(-22.1)"/></g></svg>