<svg id="Layer_1" data-name="Layer 1" xmlns="http://www.w3.org/2000/svg" xmlns:xlink="http://www.w3.org/1999/xlink" viewBox="0 0 181.76 191.19"><defs><style>.cls-1{fill:#1daded;}.cls-2{fill:none;}.cls-3{fill:#1ebde2;}.cls-4{clip-path:url(#clip-path);}.cls-5{fill:#edb220;}.cls-6{fill:#ffcb33;}.cls-7{fill:#1bb3ef;}.cls-8{fill:#f7f6da;}.cls-9{fill:#fff;}.cls-10{fill:#8b5e3c;}.cls-11{fill:#603913;}.cls-12{clip-path:url(#clip-path-2);}.cls-13{opacity:0.1;}.cls-14{fill:#28d428;}.cls-15{fill:#ffeff7;}.cls-16{opacity:0.3;}.cls-17{fill:#0410aa;}</style><clipPath id="clip-path"><path id="SVGID" class="cls-1" d="M60.3,162.58s-26.49-8.37-43.41-35.28c0,0-7.06,20.63,10.38,33.87S60.3,162.58,60.3,162.58Z"/></clipPath><clipPath id="clip-path-2"><path id="SVGID-2" data-name="SVGID" class="cls-2" d="M55.35,159s-27.19-5.66-46.73-30.74c0,0-5,21.24,13.73,32.66S55.35,159,55.35,159Z"/></clipPath></defs><title>04_a_small_singing_bird</title><path class="cls-3" d="M60.3,162.58s-26.49-8.37-43.41-35.28c0,0-7.06,20.63,10.38,33.87S60.3,162.58,60.3,162.58Z"/><path id="SVGID-3" data-name="SVGID" class="cls-1" d="M60.3,162.58s-26.49-8.37-43.41-35.28c0,0-7.06,20.63,10.38,33.87S60.3,162.58,60.3,162.58Z"/><g class="cls-4"><circle class="cls-5" cx="56.04" cy="167.52" r="6.41" transform="translate(-12.72 4.81) rotate(-4.41)"/><circle class="cls-5" cx="45.68" cy="167.59" r="6.41" transform="matrix(1, -0.08, 0.08, 1, -12.76, 4.01)"/><circle class="cls-5" cx="34.4" cy="165.03" r="6.41" transform="translate(-12.59 3.14) rotate(-4.41)"/><circle class="cls-5" cx="25.45" cy="158.37" r="6.41" transform="translate(-12.11 2.43) rotate(-4.41)"/><circle class="cls-5" cx="18.34" cy="150.52" r="6.41" transform="translate(-11.53 1.86) rotate(-4.41)"/><circle class="cls-5" cx="13.49" cy="140.11" r="6.41" transform="translate(-10.74 1.45) rotate(-4.41)"/><circle class="cls-5" cx="11.3" cy="130" r="6.41" transform="translate(-9.97 1.25) rotate(-4.41)"/></g><path class="cls-6" d="M84.56,133.6s21.45,3.11,27.18,5c5,1.63,8.05,4.62,5.8,15.06a2.09,2.09,0,0,1-3.57,1c-1.83-2-5-4.14-10.65-5.22-11.49-2.21-20.87-3.51-20.87-3.51S84.7,132.86,84.56,133.6Z"/><path class="cls-7" d="M75.13,103.63c-7.13-1.37-27,0-31.27,20.09S30.21,169.82,0,164c0,0,16.76,35,61.69,25.35S114.57,111.22,75.13,103.63Z"/><path class="cls-8" d="M90.29,170.35a47,47,0,0,1-28.6,19A72.22,72.22,0,0,1,46.88,191a26.47,26.47,0,0,1,.45-6.18,26.06,26.06,0,0,1,43-14.51Z"/><circle class="cls-9" cx="79.16" cy="136.28" r="17.08" transform="translate(-25.62 18.55) rotate(-11.52)"/><circle class="cls-10" cx="76.06" cy="136.98" r="8.09" transform="translate(-23.02 15.6) rotate(-10.18)"/><circle class="cls-11" cx="75.81" cy="137.11" r="4.42" transform="translate(-23.05 15.56) rotate(-10.18)"/><circle class="cls-9" cx="74.37" cy="132.16" r="2.83" transform="translate(-22.19 15.23) rotate(-10.18)"/><path class="cls-1" d="M55.35,159s-27.19-5.66-46.73-30.74c0,0-5,21.24,13.73,32.66S55.35,159,55.35,159Z"/><g class="cls-12"><circle class="cls-6" cx="51.61" cy="164.34" r="6.41" transform="translate(-28.24 11.71) rotate(-10.18)"/><circle class="cls-6" cx="41.32" cy="165.45" r="6.41" transform="translate(-28.6 9.91) rotate(-10.18)"/><circle class="cls-6" cx="29.83" cy="164.03" r="6.41" transform="translate(-28.53 7.86) rotate(-10.18)"/><circle class="cls-6" cx="20.25" cy="158.3" r="6.41" transform="translate(-27.67 6.07) rotate(-10.18)"/><circle class="cls-6" cx="12.39" cy="151.21" r="6.41" transform="translate(-26.54 4.57) rotate(-10.18)"/><circle class="cls-6" cx="6.52" cy="141.34" r="6.41" transform="translate(-24.89 3.38) rotate(-10.18)"/><circle class="cls-6" cx="3.32" cy="131.5" r="6.41" transform="translate(-23.2 2.66) rotate(-10.18)"/></g><g class="cls-13"><path class="cls-14" d="M158.17,26.1,148,14.72,164.58,1.86c.87,1.14,10.63,13,13,16L175.15,20,166,8.86l-11.23,8.92,8.35,9.64-2.39,1.72Z"/><path class="cls-14" d="M163.88,28.5c1.59,3,.28,6.4-3.11,8.19S152.54,38,151,35s.51-6.9,3.9-8.69S162.29,25.49,163.88,28.5Z"/><path class="cls-14" d="M178.05,18.61c1.59,3,.28,6.4-3.11,8.19s-8.23,1.31-9.82-1.71.51-6.9,3.91-8.69S176.46,15.6,178.05,18.61Z"/><rect class="cls-14" x="154.18" y="14.22" width="17.93" height="2.92" transform="translate(25 103.86) rotate(-38.04)"/><path class="cls-15" d="M152.2,34.74c1.15.22,1.41-2.53,0-2.54-1.16,0-1.09,1.41-.59,2.1A1,1,0,0,0,152.2,34.74Z"/><path class="cls-15" d="M157.28,28.05c0-.55-.46-.95-1.55-.87a3.87,3.87,0,0,0-2.88,2.06,1.83,1.83,0,0,0-.2,1.25,1,1,0,0,0,.92.75,1.51,1.51,0,0,0,.78-.36l2-1.42A2.06,2.06,0,0,0,157.28,28.05Z"/><path class="cls-15" d="M166.38,24.45c1.15.22,1.41-2.53,0-2.53-1.16,0-1.09,1.4-.59,2.09A1,1,0,0,0,166.38,24.45Z"/><path class="cls-15" d="M171.46,17.77c0-.55-.46-1-1.55-.87A3.85,3.85,0,0,0,167,19a1.79,1.79,0,0,0-.2,1.24,1,1,0,0,0,.92.75,1.48,1.48,0,0,0,.78-.36l2-1.42A2,2,0,0,0,171.46,17.77Z"/></g><g class="cls-16"><path class="cls-17" d="M146,82.63c1.59,3,.28,6.4-3.12,8.19s-8.22,1.31-9.81-1.7.5-6.91,3.9-8.7S144.43,79.62,146,82.63Z"/><path class="cls-17" d="M160.19,72.74c1.59,3,.28,6.4-3.12,8.19s-8.22,1.31-9.81-1.7.5-6.91,3.9-8.7S158.6,69.73,160.19,72.74Z"/><path class="cls-17" d="M162.22,44l-9.29,7.19L146.74,56l0,0-9.29,7.18-7.34,5.68L140.3,80.23l2.58,3,2.38-1.72-8.34-9.64,5.4-4.29L148.15,63l9.13,11.12L159.69,72c-1.43-1.84-5.61-6.95-8.86-10.91l12.82-10,9.14,11.12,2.4-2.15C172.85,57,163.09,45.18,162.22,44Z"/><path class="cls-17" d="M175.69,60.8c1.59,3,.28,6.39-3.11,8.18s-8.23,1.31-9.82-1.7.51-6.91,3.9-8.7S174.1,57.78,175.69,60.8Z"/><path class="cls-15" d="M134.5,89.19c1.15.22,1.41-2.53,0-2.53-1.16,0-1.09,1.4-.59,2.09A1,1,0,0,0,134.5,89.19Z"/><path class="cls-15" d="M139.58,82.51c0-.55-.46-1-1.55-.87a3.83,3.83,0,0,0-2.87,2.06,1.76,1.76,0,0,0-.21,1.24,1,1,0,0,0,.92.76,1.57,1.57,0,0,0,.78-.37l2-1.42A2,2,0,0,0,139.58,82.51Z"/><path class="cls-15" d="M148.86,78.68c1.15.22,1.41-2.53,0-2.54-1.16,0-1.09,1.41-.59,2.1A1,1,0,0,0,148.86,78.68Z"/><path class="cls-15" d="M153.94,72c0-.56-.46-1-1.55-.87a3.81,3.81,0,0,0-2.87,2.06,1.75,1.75,0,0,0-.21,1.24,1,1,0,0,0,.92.75,1.44,1.44,0,0,0,.78-.36l2-1.42A2.08,2.08,0,0,0,153.94,72Z"/><path class="cls-15" d="M164.86,67c1.15.22,1.41-2.53,0-2.54-1.16,0-1.09,1.41-.59,2.1A1,1,0,0,0,164.86,67Z"/><path class="cls-15" d="M169.94,60.28c0-.55-.46-1-1.55-.87a3.87,3.87,0,0,0-2.88,2.06,1.83,1.83,0,0,0-.2,1.25,1,1,0,0,0,.92.75,1.48,1.48,0,0,0,.78-.36l2-1.42A2.06,2.06,0,0,0,169.94,60.28Z"/></g></svg>