<svg id="Layer_1" data-name="Layer 1" xmlns="http://www.w3.org/2000/svg" xmlns:xlink="http://www.w3.org/1999/xlink" viewBox="0 0 260 168"><defs><style>.cls-1{fill:#ea8313;}.cls-2{fill:#fff;}.cls-3{fill:#f4912f;}.cls-4{fill:#9e4407;}.cls-5{fill:#d16d09;}.cls-6{clip-path:url(#clip-path);}.cls-7{fill:#d67513;}.cls-8{fill:#ff9f2c;}.cls-9{fill:#f99a10;}.cls-10{fill:#e51a1a;}.cls-11{fill:#d61818;}.cls-12{fill:#561404;}.cls-13{clip-path:url(#clip-path-2);}.cls-14{fill:#f7b03e;}.cls-15{fill:#f9cc3d;}.cls-16{fill:#ffc931;}.cls-17{clip-path:url(#clip-path-3);}</style><clipPath id="clip-path"><path class="cls-1" d="M84.09,95.7S74,110.62,74,122s7.59,18,25.2,18c17.12,0,21.85-10.82,20.66-19.87s-9-24.48-9-24.48Z"/></clipPath><clipPath id="clip-path-2"><ellipse class="cls-2" cx="110.96" cy="73.68" rx="3.77" ry="4.84" transform="translate(-5.22 8.54) rotate(-4.31)"/></clipPath><clipPath id="clip-path-3"><ellipse class="cls-2" cx="94.31" cy="71.15" rx="4.84" ry="3.77" transform="matrix(0.29, -0.96, 0.96, 0.29, -0.82, 141.2)"/></clipPath></defs><path class="cls-3" d="M78.94,116.33A19.46,19.46,0,0,1,54.12,97.71a4.26,4.26,0,0,1,.79-2.89,1.7,1.7,0,0,1,2.63,0,14.08,14.08,0,0,1-1.33-6A27.69,27.69,0,0,1,57,81.19a8.45,8.45,0,0,1,2.74-4.85c1.53-1.12,4-1.08,5,.52a11.21,11.21,0,0,1,2-6.49c3.28-5.27,8.85-9.36,15-9.73a9.79,9.79,0,0,1,4.76.77A5.55,5.55,0,0,1,89.74,65c.45,2-.47,4-1.54,5.7a29.12,29.12,0,0,1-8,8.41,1.87,1.87,0,0,1,2.56.28,3,3,0,0,1,.51,2.71A8.32,8.32,0,0,1,82,84.63a62.5,62.5,0,0,1-4,5.17,3.26,3.26,0,0,1,3.56,2.42,4.24,4.24,0,0,1-1.06,3.54,12.31,12.31,0,0,1-3,2.37A9.46,9.46,0,0,1,82.62,104a20.29,20.29,0,0,1,.73,8,5.28,5.28,0,0,1-.65,2.57,5.56,5.56,0,0,1-3.18,1.88"/><path class="cls-3" d="M114.45,100c5.14,4.06,10.31,8.41,13.38,14.2s3.59,13.41-.41,18.6c-3.26,4.24-8.71,6-13.84,7.57-2,.59-4.34,1.14-6.07,0-1.5-1-2-3-2.3-4.77a72.94,72.94,0,0,1,.08-25c.58-3.28,1.47-6.67,3.72-9.14a4.42,4.42,0,0,1,2.58-1.57,2.12,2.12,0,0,1,2.38,1.49"/><path class="cls-4" d="M90.2,142.89v11.4s-10.91,5.76-9.59,6.36S90,156.81,90,156.81s1.92,17,3,.12c0,0,19.86,10.68.18-2.52V142.23S90.86,138.87,90.2,142.89Z"/><path class="cls-4" d="M103.6,142.89v11.4s-10.92,5.76-9.6,6.36,9.36-3.84,9.36-3.84,1.92,17,3,.12c0,0,19.86,10.68.18-2.52V142.23S104.26,138.87,103.6,142.89Z"/><path class="cls-5" d="M82.16,136.05l4.62,6.69a7.72,7.72,0,0,0,1.12,1.36,5.44,5.44,0,0,0,4.08,1,5.91,5.91,0,0,0,2.87-.93C96.46,143,97,140.88,97.4,139a1.15,1.15,0,0,0,0-.82,1.06,1.06,0,0,0-.47-.36,24.51,24.51,0,0,0-13-2.49,1.57,1.57,0,0,0-1.09.39c-.27.29-.19.89.2,1"/><path class="cls-5" d="M113.74,136.05l-4.63,6.69A6.93,6.93,0,0,1,108,144.1a5.42,5.42,0,0,1-4.07,1,5.91,5.91,0,0,1-2.87-.93c-1.61-1.14-2.14-3.25-2.55-5.18a1.15,1.15,0,0,1,0-.82,1.19,1.19,0,0,1,.47-.36,24.53,24.53,0,0,1,13-2.49,1.58,1.58,0,0,1,1.1.39c.27.29.19.89-.2,1"/><path class="cls-1" d="M84.09,95.7S74,110.62,74,122s7.59,18,25.2,18c17.12,0,21.85-10.82,20.66-19.87s-9-24.48-9-24.48Z"/><g class="cls-6"><path class="cls-7" d="M79,101.12a3,3,0,0,0,.24,2.33,2.22,2.22,0,0,0,1.89.72c.71,0,1.4-.21,2.1-.25,1.87-.08,3.61,1,5.48,1.1a11.14,11.14,0,0,0,4-.75,4.57,4.57,0,0,0,5.52.38,4,4,0,0,0,5.15-.28c1.77,1.46,4.5.84,6.44-.39a1.7,1.7,0,0,1,1.05-.4,2.13,2.13,0,0,1,.83.4c1.94,1.22,4.69.34,6.08-1.49a9,9,0,0,0,1.34-6.57c-.25-1.86-1-3.84-2.58-4.76a9.69,9.69,0,0,0-3.39-.82c-2-.32-3.84-1-5.77-1.48a50.83,50.83,0,0,0-9.85-1,70.89,70.89,0,0,0-13.9.37,5.08,5.08,0,0,0-2.54,1,4.65,4.65,0,0,0-.77.93,19,19,0,0,0-3.18,12.28"/><path class="cls-5" d="M72.13,129.47l5.8,4.67a7.48,7.48,0,0,0,3.7,2c1.41.15,3-.84,3-2.26a9,9,0,0,1,3.55,1.58c1.15.64,2.61,1.09,3.72.4.54-.33,1-.92,1.62-.94a3,3,0,0,1,1.43.65c1.79,1.05,4,.14,5.91-.77a1.76,1.76,0,0,0,2.36,1.28c.9-.41,1.52-1.63,2.49-1.44a2.77,2.77,0,0,1,.79.39c1.75,1,3.94.23,5.78-.59a106.42,106.42,0,0,0,9.92-5.07,60.11,60.11,0,0,1-1.94,7.46c-.75,2.29-1.82,4.73-4,5.79a9.37,9.37,0,0,1-2.77.73,48.75,48.75,0,0,1-7.33.6,70.14,70.14,0,0,1-11.54-1.35l-16.3-2.83c-2.57-.45-5.37-1-7-3.09s-1.46-5.06-1.21-7.72a.61.61,0,0,1,.67.77"/></g><path class="cls-8" d="M115.12,124.24a2.66,2.66,0,0,1-.54,1.78,8.55,8.55,0,0,1-1.33,1.43,12.18,12.18,0,0,1-1.9,1.52,7.09,7.09,0,0,0,2.89-1.15,3.89,3.89,0,0,0,1.61-2.51,1.79,1.79,0,0,0-.74-1.81.64.64,0,0,1,0,.41Z"/><path class="cls-8" d="M109.66,124.24a2.71,2.71,0,0,1-.53,1.78,9.05,9.05,0,0,1-1.34,1.43A12.1,12.1,0,0,1,105.9,129a7.1,7.1,0,0,0,2.88-1.15,3.85,3.85,0,0,0,1.61-2.51,1.8,1.8,0,0,0-.73-1.81.58.58,0,0,1,0,.41Z"/><path class="cls-8" d="M87.4,124.24a2.77,2.77,0,0,0,.54,1.78,9,9,0,0,0,1.33,1.43,12.67,12.67,0,0,0,1.9,1.52,7.09,7.09,0,0,1-2.89-1.15,3.84,3.84,0,0,1-1.6-2.51,1.78,1.78,0,0,1,.73-1.81.58.58,0,0,0,0,.41Z"/><path class="cls-8" d="M81.63,124.24a2.77,2.77,0,0,0,.54,1.78,9,9,0,0,0,1.33,1.43A12.67,12.67,0,0,0,85.4,129a7,7,0,0,1-2.88-1.15,3.85,3.85,0,0,1-1.61-2.51,1.8,1.8,0,0,1,.73-1.81.58.58,0,0,0,0,.41Z"/><path class="cls-9" d="M82.85,108.91a5.81,5.81,0,0,0-1,2.39.26.26,0,0,0,.18.31.25.25,0,0,0,.31-.18,5.51,5.51,0,0,1,1-2.26.26.26,0,1,0-.44-.26Z"/><path class="cls-9" d="M86.75,109.87A7.58,7.58,0,0,0,86,113a.26.26,0,0,0,.51,0,7,7,0,0,1,.69-2.92c.14-.29-.3-.55-.44-.25Z"/><path class="cls-9" d="M91.94,108.88a24.11,24.11,0,0,0,0,6.84c0,.33.54.19.49-.13a23.77,23.77,0,0,1,0-6.58c0-.32-.45-.45-.49-.13Z"/><path class="cls-9" d="M97.39,109.48a14.22,14.22,0,0,1,1.16,6.07.26.26,0,0,0,.51,0,15,15,0,0,0-1.23-6.33c-.13-.3-.57,0-.44.26Z"/><path class="cls-9" d="M102.7,109.18a11.34,11.34,0,0,1,.76,6.2c0,.32.44.45.49.13a12,12,0,0,0-.81-6.59c-.13-.3-.57,0-.44.26Z"/><path class="cls-9" d="M107.28,108.91a22.77,22.77,0,0,1,.71,5.39.26.26,0,0,0,.51,0,23.29,23.29,0,0,0-.73-5.52.25.25,0,0,0-.49.13Z"/><path class="cls-9" d="M111.45,108.72a4.5,4.5,0,0,1,.61,3.2c-.06.32.43.45.49.13a5,5,0,0,0-.66-3.58c-.17-.28-.61,0-.44.25Z"/><path class="cls-8" d="M119.2,101.39c-2.66-3.43-.26-11.18-1.16-26.34S105.35,59.1,105.35,59.1h0l-1.25-.19S92.6,56.21,87.3,70.45,82,92.8,78.48,95.3s1.82,6,6,4.28c0,0,5,3.4,8.73,1.1,0,0,2.48,3.51,5,1.41,1.81,2.75,5.21.12,5.21.12,2.84,3.28,8.67,1.51,8.67,1.51C115.69,106.64,121.86,104.82,119.2,101.39ZM103.57,69.21,101.13,83l1.74-14.13Z"/><path class="cls-10" d="M114.33,81.56c4.87-7.35,3.79-14.74-1.67-15.55a13.51,13.51,0,0,0-9.16,1.77v.1h0v-.1a13.5,13.5,0,0,0-8.23-4.38c-5.46-.81-8.65,5.94-6.15,14.39,0,0-2,.69-2.61,4.87s7.34,6.84,14.07,2.64l.2-1.17.54.14-.15,1.12c5.21,6,13.6,5.77,14.23,1.59S114.33,81.56,114.33,81.56Z"/><path class="cls-11" d="M96.85,84.72a69.49,69.49,0,0,0-4.47,5.37A9.47,9.47,0,0,0,91,92.52,3.42,3.42,0,0,0,91,95.27,4.05,4.05,0,0,0,93.25,97a6,6,0,0,0,3.17.4,5.67,5.67,0,0,0,3.9-3.26,11.58,11.58,0,0,0,.91-5.15,24,24,0,0,0-.25-3.17,3.37,3.37,0,0,0-1.34-2.65,1.85,1.85,0,0,0-2.27.45c-.06.07-.11.17-.05.24s.19,0,.1-.08"/><path class="cls-11" d="M104.38,85.85a68.43,68.43,0,0,1,2.7,6.44,9.38,9.38,0,0,1,.66,2.74,3.44,3.44,0,0,1-.89,2.6,4.07,4.07,0,0,1-2.61,1,6.08,6.08,0,0,1-3.15-.55,5.7,5.7,0,0,1-2.78-4.26A11.51,11.51,0,0,1,99,88.61a26,26,0,0,1,1.16-3c.44-.93,1.06-1.93,2.07-2.14a1.85,1.85,0,0,1,2,1.1c0,.08,0,.19,0,.24s-.16-.11-.07-.11"/><path class="cls-12" d="M113.68,71.78a2.27,2.27,0,0,0,2.4-.29,2.46,2.46,0,0,1-1.9,1.27Z"/><path class="cls-12" d="M114.12,72.58a1.63,1.63,0,0,0,1.7-.21,1.74,1.74,0,0,1-1.34.89Z"/><ellipse class="cls-2" cx="110.96" cy="73.68" rx="3.77" ry="4.84" transform="translate(-5.22 8.54) rotate(-4.31)"/><g class="cls-13"><path d="M113.71,75.54a1.17,1.17,0,0,1-1.1.17,1.15,1.15,0,0,1-.68-1.49,1.09,1.09,0,0,1,.54-.61,2.72,2.72,0,0,0-.63-.34A2.93,2.93,0,1,0,113.57,77,3,3,0,0,0,113.71,75.54Z"/></g><path class="cls-12" d="M91.9,69.16a2.31,2.31,0,0,1-2.29-.8S90,69.76,91.2,70Z"/><path class="cls-12" d="M91.3,69.84a1.64,1.64,0,0,1-1.62-.57s.3,1,1.12,1.16Z"/><path class="cls-14" d="M95.54,79.77s-1.5,4.55,5.57,5.61,6.44-4.25,6.44-4.25Z"/><path class="cls-15" d="M102.58,73.34h0c-6-.89-7.37,4.76-7.65,5.87s1.5,1.25,3.82,1.6,2.58.88,2.58.88h0s.39-.44,2.72-.09,4.06.73,4.12-.41S108.53,74.23,102.58,73.34Z"/><path class="cls-10" d="M103.84,64.74a23.88,23.88,0,0,1-2.13-8.44c0-3.91,2.9.45,2.9.45s-.12-3.63,2.48-2.62S112.31,58.52,103.84,64.74Z"/><ellipse class="cls-16" cx="99.46" cy="59.95" rx="1.63" ry="0.45" transform="translate(-9.84 20.71) rotate(-11.33)"/><ellipse class="cls-2" cx="94.31" cy="71.15" rx="4.84" ry="3.77" transform="matrix(0.29, -0.96, 0.96, 0.29, -0.82, 141.2)"/><g class="cls-17"><path d="M96.48,73.42a1.16,1.16,0,0,1-1.87-1.21,1.18,1.18,0,0,1,.51-.65,2.81,2.81,0,0,0-.66-.29,2.94,2.94,0,1,0,2,3.65A2.84,2.84,0,0,0,96.48,73.42Z"/></g><path class="cls-10" d="M90.6,68.44c.14.19,6.6,1.46,7.81-1.09l-3.12-2.58-2.75.82Z"/><path class="cls-10" d="M107.45,69.53s3.88,3,7.7,1.67l-1.93-3.06h-4.51Z"/></svg>