<svg id="Layer_1" data-name="Layer 1" xmlns="http://www.w3.org/2000/svg" xmlns:xlink="http://www.w3.org/1999/xlink" viewBox="0 0 260 168"><defs><style>.cls-1{fill:#535454;}.cls-2{fill:#ea8313;}.cls-3{fill:#141414;}.cls-4{fill:#2d2d2d;}.cls-5{fill:#0c0c0c;}.cls-6{fill:#fff;}.cls-7{fill:#231f20;}.cls-8{fill:#3f3f3f;}.cls-9{clip-path:url(#clip-path);}.cls-10{fill:#6d6d6d;}.cls-11{fill:#050505;}.cls-12{fill:#1e1e1e;}.cls-13{fill:#f4912f;}.cls-14{fill:#9e4407;}.cls-15{fill:#d16d09;}.cls-16{clip-path:url(#clip-path-2);}.cls-17{fill:#d67513;}.cls-18{fill:#ff9f2c;}.cls-19{fill:#e51a1a;}.cls-20{fill:#d61818;}.cls-21{fill:#561404;}.cls-22{fill:#f7b03e;}.cls-23{fill:#f9cc3d;}.cls-24{fill:#ffc931;}.cls-25{fill:#f99a10;}</style><clipPath id="clip-path"><path class="cls-1" d="M185.27,44.59A12.83,12.83,0,0,0,182,48.93c-1.34,2.76-6.53,2.56-6.53,2.56s-.83.32-.21.88,4.5-.34,7.84,1a9.28,9.28,0,0,1,4.53,3.44h0A9.22,9.22,0,0,1,190.55,52c2.6-2.51,6.53-3.11,6.9-3.87s-.53-.74-.53-.74-4.73,2.12-7,.06a13.15,13.15,0,0,0-4.64-2.82"/></clipPath><clipPath id="clip-path-2"><path class="cls-2" d="M62.2,76.24s-9.09,13.49-9.09,23.81,6.86,16.3,22.78,16.3c15.48,0,19.76-9.79,18.69-18s-8.19-22.13-8.19-22.13Z"/></clipPath></defs><path class="cls-3" d="M198.9,76.93s20.32-27.2,45.32-26.35-3.35,13.1-3.35,13.1,17.59,6.37-1.06,13.06c0,0,8.33,11.22-8.68,10.47,0,0,8.88,10.19-7.51,9.67,0,0-1,12.75-17.19,6S197.52,77.83,198.9,76.93Z"/><path class="cls-3" d="M168.61,76.47S140.15,61,118.84,71.73s8.13,10,8.13,10-12.7,12.54,6.13,10.89c0,0-2.74,13,11.69,5.6,0,0-3.61,12.38,10.37,5.38,0,0,5.92,10.66,17.28-1.66S170.16,76.7,168.61,76.47Z"/><path d="M174.8,102.22s-7.24,18.29-6.36,22.53c.7,3.32,4.81,3.11,8.81-3.31,0,0,.4,16.28,9,4.24,0,0,9.07,12.4,9.14-4.24,0,0,17.37,17.25,2.94-20.8Z"/><path class="cls-4" d="M155.43,125.88s-3.75-3.88-4.85-4.7c0,0-.64-.6-1.11-.25-.69.5-.57,1.18-.06,1.83s6.23,5.18,6.23,5.18l.82-.86Z"/><path class="cls-4" d="M159.74,130.36s1.35.87,1.21,2a4.8,4.8,0,0,0-2.1-1.22S158.09,129.94,159.74,130.36Z"/><path class="cls-1" d="M168.11,114.59s-13.24,11.65-13.51,12.27-.14,2.45,2.27,1c2.72-1.65,13.46-10.77,13.46-10.77S170.2,114.77,168.11,114.59Z"/><path class="cls-5" d="M168.7,104.15a70.27,70.27,0,0,0-4.47,12.33c-1.31,5.77,1.82,6.46,6.08,2.69s7-6.7,8.09-9,2.52-6.1-1.4-8.35C172.13,99,168.7,104.15,168.7,104.15Z"/><path class="cls-1" d="M157.56,130.61s-5.94-5-9.22-6.48c0,0-2.55-1.13-2-2.37s4.82,1.5,4.82,1.5,5.12,2.64,7.59,5.89c0,0,1.22,1.06.8,1.44S158.85,132,157.56,130.61Z"/><path class="cls-4" d="M146.83,121.71s-1.47-.66-2.32.07a4.9,4.9,0,0,1,2.17,1.09S148.09,122.85,146.83,121.71Z"/><path class="cls-1" d="M153.93,127.54s-4.36-1.43-5.31-1-2.25-1.18-1.14-1.76,2.5-1.12,5.92.86C153.4,125.69,155.16,126.4,153.93,127.54Z"/><path class="cls-4" d="M147.59,125.05s-1.57.31-1.86,1.39a4.87,4.87,0,0,1,2.41-.34S149.29,125.27,147.59,125.05Z"/><path class="cls-4" d="M150.37,121.49s-1.3-1.38-2.05-1.07c0,0,1.46.91,1.49,1.57C149.81,122,150.64,122.31,150.37,121.49Z"/><path class="cls-4" d="M198.82,134.39s5.36-.52,6.73-.42c0,0,.88-.05,1,.53.2.83-.34,1.26-1.15,1.43s-8.09-.11-8.09-.11l-.07-1.19Z"/><path class="cls-4" d="M192.62,135s-1.59-.22-2.21.72a4.91,4.91,0,0,1,2.39.45S194.16,135.74,192.62,135Z"/><path class="cls-1" d="M196.51,117.57S199,135,198.8,135.67s-1.48,2-2.36-.72c-1-3-3.23-16.93-3.23-16.93S194.8,116.34,196.51,117.57Z"/><path class="cls-5" d="M202.84,109.25a70.55,70.55,0,0,1-4.61,12.27c-2.75,5.25-5.58,3.73-6.37-1.9s-1-9.65-.27-12.14,2-6.27,6.49-5.43C203.6,103.09,202.84,109.25,202.84,109.25Z"/><path class="cls-1" d="M194.13,136.6s7.72.1,11.21,1.06c0,0,2.67.81,3-.53s-4.65-2-4.65-2-5.6-1.32-9.59-.46c0,0-1.62,0-1.54.58S192.22,136.84,194.13,136.6Z"/><path class="cls-4" d="M208.06,136.8s1.54.46,1.72,1.57a4.89,4.89,0,0,0-2.36-.58S206.36,136.85,208.06,136.8Z"/><path class="cls-1" d="M198.87,136.63s4.24,1.74,4.66,2.72,2.48.57,2-.59-1.17-2.48-5.06-3.2C200.48,135.56,198.68,135,198.87,136.63Z"/><path class="cls-4" d="M205.31,138.85s1,1.25.51,2.27a4.82,4.82,0,0,0-1.6-1.83S203.88,137.92,205.31,138.85Z"/><path class="cls-4" d="M205.51,134.34s1.88-.21,2.25.51c0,0-1.7-.25-2.15.24C205.61,135.09,204.78,134.79,205.51,134.34Z"/><path class="cls-5" d="M205.17,89.21c-2.3-5.64-3.07-15.3-3.18-17-1.11-19.81-4-35-15.77-35-11.51,0-14.61,15.09-15.76,34.78h0s-.68,11-3.21,17.21c-4.54,11.12.38,29.78,17.42,29.78v-.19a6.38,6.38,0,0,0,3.09,0V119C204.8,119,209.72,100.33,205.17,89.21Z"/><ellipse class="cls-6" cx="179.41" cy="46.68" rx="2.13" ry="3.45" transform="translate(-5.6 34.92) rotate(-10.95)"/><ellipse class="cls-7" cx="179.41" cy="46.68" rx="1.34" ry="2.18" transform="translate(-5.6 34.92) rotate(-10.95)"/><ellipse class="cls-6" cx="179.87" cy="45.69" rx="0.39" ry="0.64" transform="translate(-5.4 34.99) rotate(-10.95)"/><ellipse class="cls-6" cx="191.53" cy="44.34" rx="2.13" ry="3.45" transform="translate(-4.93 37.18) rotate(-10.95)"/><ellipse class="cls-7" cx="191.53" cy="44.34" rx="1.34" ry="2.18" transform="translate(-4.93 37.18) rotate(-10.95)"/><ellipse class="cls-6" cx="190.69" cy="43.59" rx="0.39" ry="0.64" transform="translate(-4.81 37) rotate(-10.95)"/><path class="cls-8" d="M179.38,53.6c3.8.11,8.13,2.6,8.13,2.6L186.31,50l-11,2.38S175.58,53.48,179.38,53.6Z"/><path class="cls-8" d="M186.31,50l1.2,6.21s3.1-3.93,6.58-5.45,3.36-2.67,3.36-2.67Z"/><path class="cls-1" d="M185.27,44.59A12.83,12.83,0,0,0,182,48.93c-1.34,2.76-6.53,2.56-6.53,2.56s-.83.32-.21.88,4.5-.34,7.84,1a9.28,9.28,0,0,1,4.53,3.44h0A9.22,9.22,0,0,1,190.55,52c2.6-2.51,6.53-3.11,6.9-3.87s-.53-.74-.53-.74-4.73,2.12-7,.06a13.15,13.15,0,0,0-4.64-2.82"/><g class="cls-9"><path class="cls-10" d="M182.06,43.69a2.25,2.25,0,0,0,.68,1.68,18,18,0,0,1,3.47,5.82,6.11,6.11,0,0,0,.65,1.73.24.24,0,0,0,.13.13c.14.06.28-.09.35-.23a3.35,3.35,0,0,0,.14-1.86,16.26,16.26,0,0,1-.28-4.86,11.37,11.37,0,0,0,.53-3.29.81.81,0,0,0-.1-.31.65.65,0,0,0-.36-.21,4.29,4.29,0,0,0-3.85.57,10,10,0,0,1-1.25.91"/></g><ellipse class="cls-11" cx="188.41" cy="46.65" rx="0.25" ry="0.57" transform="translate(37.35 168.53) rotate(-52.8)"/><ellipse class="cls-11" cx="183.3" cy="47.78" rx="0.57" ry="0.25" transform="translate(55.67 187.75) rotate(-62.25)"/><path class="cls-12" d="M190.41,67.67a.3.3,0,0,0,0-.6.3.3,0,0,0,0,.6Z"/><path class="cls-12" d="M197.33,61.19a23.05,23.05,0,0,1,1.34,7.21.3.3,0,0,0,.59,0A23.76,23.76,0,0,0,197.91,61c-.13-.36-.7-.2-.58.16Z"/><path class="cls-12" d="M195.48,64.61a14.09,14.09,0,0,1,.29,2.5.3.3,0,0,0,.59,0,14.09,14.09,0,0,0-.31-2.66.3.3,0,0,0-.36-.2.29.29,0,0,0-.21.36Z"/><path class="cls-12" d="M174.94,60.77q-.41,2.43-.6,4.89c0,.38.56.37.59,0,.13-1.59.32-3.16.58-4.73.06-.37-.51-.53-.57-.16Z"/><path class="cls-12" d="M177.6,63.08q-.07,4.89.25,9.78c0,.38.62.38.6,0q-.33-4.89-.26-9.78a.3.3,0,0,0-.59,0Z"/><path class="cls-12" d="M182,66.77v2.06a.29.29,0,0,0,.29.29.3.3,0,0,0,.3-.29V66.77a.31.31,0,0,0-.3-.3.3.3,0,0,0-.29.3Z"/><path class="cls-12" d="M170.58,100.56a32.58,32.58,0,0,0,3.65,9.47.3.3,0,0,0,.52-.3,32.31,32.31,0,0,1-3.6-9.33c-.08-.37-.65-.21-.57.16Z"/><path class="cls-12" d="M174.52,101.66a10.53,10.53,0,0,0,.63,1.7.28.28,0,0,0,.4.1.29.29,0,0,0,.11-.4,6.21,6.21,0,0,1-.31-.75c-.1-.26-.18-.54-.26-.81a.3.3,0,0,0-.36-.21.31.31,0,0,0-.21.37Z"/><path class="cls-12" d="M179.45,94.29a47.23,47.23,0,0,0,2.22,11c.12.36.69.21.57-.16A46.81,46.81,0,0,1,180,94.29c0-.37-.62-.38-.59,0Z"/><path class="cls-12" d="M187.34,93.43a77.48,77.48,0,0,1,.36,14.92c0,.38.57.38.6,0a76.69,76.69,0,0,0-.37-14.92c0-.38-.64-.38-.59,0Z"/><path class="cls-12" d="M193.23,96.09a57.47,57.47,0,0,1-.54,9.27c-.06.37.51.53.57.15a58.21,58.21,0,0,0,.57-9.42.3.3,0,0,0-.6,0Z"/><path class="cls-12" d="M197.72,102.35l-.08.68a.27.27,0,0,0,.09.21.31.31,0,0,0,.21.09.3.3,0,0,0,.21-.09l0-.06a.24.24,0,0,0,0-.15l.09-.68a.29.29,0,0,0-.09-.21.33.33,0,0,0-.21-.09.27.27,0,0,0-.21.09l-.05.06a.33.33,0,0,0,0,.15Z"/><path class="cls-12" d="M201.43,101.66a4.89,4.89,0,0,1-.58,2.71c-.35.89-.75,1.77-1.17,2.63-.8,1.63-1.71,3.21-2.61,4.79a.3.3,0,0,0,.51.3c1-1.75,2-3.49,2.86-5.31q.62-1.27,1.11-2.61a4.68,4.68,0,0,0,.46-2.67c-.09-.37-.67-.21-.58.16Z"/><path class="cls-13" d="M90.59,80.82S115.05,67.74,133.25,77s-7,8.53-7,8.53,10.81,10.81-5.31,9.29c0,0,2.28,11.19-10,4.74,0,0,3,10.62-8.91,4.55,0,0-5.12,9.1-14.78-1.51S89.26,81,90.59,80.82Z"/><path class="cls-13" d="M57.27,80.13S32.39,67.87,14.51,77.75s7.29,8.3,7.29,8.3-10.44,11.16,5.61,9.11c0,0-1.9,11.25,10.2,4.4,0,0-2.68,10.71,9.06,4.26,0,0,5.42,8.92,14.73-2S58.6,80.28,57.27,80.13Z"/><path class="cls-14" d="M67.73,118.91v10.31s-9.87,5.21-8.68,5.75,8.47-3.47,8.47-3.47,1.73,15.41,2.71.11c0,0,18,9.66.16-2.28v-11S68.33,115.28,67.73,118.91Z"/><path class="cls-14" d="M86.89,114.46l8.31,6.1s-1.63,11-.49,10.4,2.2-8.88,2.2-8.88,13.45,7.71,1.7-2.12c0,0,18.4-8.77-1.75-1.48L88,112S84.31,111.83,86.89,114.46Z"/><path class="cls-15" d="M60.46,112.73l4.18,6a6,6,0,0,0,1,1.23,4.9,4.9,0,0,0,3.68.88,5.38,5.38,0,0,0,2.6-.85c1.46-1,1.93-2.94,2.31-4.68a1,1,0,0,0,0-.74,1,1,0,0,0-.42-.32A22.2,22.2,0,0,0,62,112a1.46,1.46,0,0,0-1,.35c-.24.27-.17.8.19.86"/><path class="cls-15" d="M87.32,103.41l2.41,7a6.33,6.33,0,0,1,.39,1.54,4.91,4.91,0,0,1-1.47,3.49A5.46,5.46,0,0,1,86.43,117c-1.69.57-3.51-.18-5.14-.91a1,1,0,0,1-.58-.46,1,1,0,0,1,0-.54,22.24,22.24,0,0,1,5.13-10.8,1.45,1.45,0,0,1,.87-.59c.36,0,.75.34.58.66"/><path class="cls-2" d="M62.2,76.24s-9.09,13.49-9.09,23.81,6.86,16.3,22.78,16.3c15.48,0,19.76-9.79,18.69-18s-8.19-22.13-8.19-22.13Z"/><g class="cls-16"><path class="cls-17" d="M57.19,78.37a2.71,2.71,0,0,0-.11,2.12,2,2,0,0,0,1.59.91c.63.08,1.27,0,1.9.08,1.68.19,3.09,1.39,4.74,1.76A10,10,0,0,0,69,83.13a4.16,4.16,0,0,0,4.88,1.13,3.65,3.65,0,0,0,4.63.48c1.38,1.56,3.9,1.39,5.81.56a1.55,1.55,0,0,1,1-.2,1.85,1.85,0,0,1,.68.47c1.56,1.37,4.15,1,5.64-.47a8.08,8.08,0,0,0,2.13-5.68c0-1.69-.3-3.56-1.63-4.61a8.89,8.89,0,0,0-2.9-1.22c-1.71-.56-3.29-1.44-5-2.13a45.84,45.84,0,0,0-8.65-2.33,63.43,63.43,0,0,0-12.46-1.64,4.45,4.45,0,0,0-2.4.48,4.05,4.05,0,0,0-.83.72,17.19,17.19,0,0,0-4.58,10.52"/><path class="cls-15" d="M51.39,106.78,56.63,111A6.81,6.81,0,0,0,60,112.78c1.28.14,2.75-.76,2.71-2a7.91,7.91,0,0,1,3.21,1.43,3.44,3.44,0,0,0,3.37.36c.49-.3.89-.83,1.46-.85a2.66,2.66,0,0,1,1.29.59c1.62.94,3.66.12,5.35-.7a1.59,1.59,0,0,0,2.13,1.16c.81-.38,1.38-1.48,2.25-1.3a2.47,2.47,0,0,1,.71.35c1.59.89,3.57.21,5.23-.53a95.83,95.83,0,0,0,9-4.59,53.79,53.79,0,0,1-1.75,6.74c-.68,2.07-1.65,4.28-3.6,5.24a8.63,8.63,0,0,1-2.5.66,44.69,44.69,0,0,1-6.63.54,63.15,63.15,0,0,1-10.43-1.22L57,116.06c-2.32-.4-4.85-.93-6.3-2.79s-1.32-4.57-1.09-7a.56.56,0,0,1,.61.7"/></g><path class="cls-18" d="M93.56,82.17c-2.27-3.2.19-10.1,0-23.84S82.66,43.44,82.66,43.44h0l-1.12-.22S71.25,40.34,65.92,53,60.31,73,57,75.12s1.41,5.53,5.29,4.1c0,0,4.44,3.27,7.86,1.32,0,0,2.1,3.27,4.47,1.47,1.53,2.56,4.7.3,4.7.3,2.45,3.08,7.79,1.7,7.79,1.7C90.19,86.78,95.83,85.37,93.56,82.17ZM80.66,52.5,77.94,64.88,80,52.18Z"/><path class="cls-19" d="M89.91,64.08C94.59,57.62,93.9,50.9,89,50a12.18,12.18,0,0,0-8.34,1.25l0,.09h0l0-.09a12.24,12.24,0,0,0-7.28-4.27c-4.9-.94-8,5-6.1,12.77,0,0-1.82.55-2.54,4.3s6.37,6.45,12.61,2.92l.22-1.05.49.15-.18,1c4.48,5.6,12.07,5.73,12.79,2S89.91,64.08,89.91,64.08Z"/><path class="cls-20" d="M74,66.26A62.72,62.72,0,0,0,69.76,71a8.37,8.37,0,0,0-1.39,2.14,3.14,3.14,0,0,0,0,2.48,3.72,3.72,0,0,0,1.93,1.62,5.42,5.42,0,0,0,2.85.48,5.15,5.15,0,0,0,3.66-2.8,10.43,10.43,0,0,0,1-4.62,22.88,22.88,0,0,0-.1-2.87,3.06,3.06,0,0,0-1.12-2.45,1.68,1.68,0,0,0-2.07.33c-.05.06-.1.15-.05.21s.17,0,.1-.07"/><path class="cls-20" d="M80.77,67.57A61.72,61.72,0,0,1,83,73.49a8.66,8.66,0,0,1,.49,2.5,3.1,3.1,0,0,1-.91,2.32,3.66,3.66,0,0,1-2.39.78,5.4,5.4,0,0,1-2.82-.61,5.12,5.12,0,0,1-2.35-4,10.39,10.39,0,0,1,.77-4.66,21.28,21.28,0,0,1,1.17-2.63c.43-.83,1-1.71,1.94-1.86a1.67,1.67,0,0,1,1.8,1.07c0,.08,0,.18,0,.22s-.14-.1-.06-.1"/><path class="cls-21" d="M89.23,53.8a2.07,2.07,0,0,0,2.18-.17,2.25,2.25,0,0,1-1.76,1.07Z"/><path class="cls-21" d="M89.6,54.53a1.45,1.45,0,0,0,1.54-.12,1.57,1.57,0,0,1-1.25.76Z"/><ellipse class="cls-6" cx="87.17" cy="56.83" rx="3.41" ry="4.38" transform="translate(-1.84 2.92) rotate(-1.9)"/><path d="M84.84,56a1,1,0,0,0,1.9-.62,1,1,0,0,0-.29-.69,2.31,2.31,0,0,1,.64-.1,2.65,2.65,0,1,1-2.56,2.74A2.59,2.59,0,0,1,84.84,56Z"/><path class="cls-21" d="M84.43,54.16A3.39,3.39,0,0,1,87,52.45a3.53,3.53,0,0,1,3.27,2.66s-.36-3.2-3.28-3A3.2,3.2,0,0,0,84.43,54.16Z"/><path class="cls-21" d="M71.15,50.41a2.07,2.07,0,0,1-2-.81,2.27,2.27,0,0,0,1.37,1.55Z"/><path class="cls-21" d="M70.58,51a1.46,1.46,0,0,1-1.44-.57s.23.91,1,1.09Z"/><ellipse class="cls-6" cx="72.23" cy="53.91" rx="4.38" ry="3.41" transform="translate(-2.27 104.63) rotate(-70.99)"/><path d="M74.71,53.76a1,1,0,0,1-1,.18,1,1,0,0,1-.17-1.9,2.42,2.42,0,0,0-.58-.29,2.65,2.65,0,1,0,1.74,2Z"/><path class="cls-21" d="M75.63,52.17a3.4,3.4,0,0,0-2-2.4,3.53,3.53,0,0,0-3.9,1.58s1.28-3,4-1.94A3.22,3.22,0,0,1,75.63,52.17Z"/><path class="cls-22" d="M73,61.74S71.48,65.79,77.82,67s6-3.59,6-3.59Z"/><path class="cls-23" d="M79.61,56.2h0c-5.34-1-6.84,4-7.13,5s1.3,1.18,3.39,1.58,2.29.9,2.3.9h0s.37-.38,2.46,0,3.64.81,3.74-.21S85,57.23,79.61,56.2Z"/><path class="cls-19" d="M81.07,48.48a21.66,21.66,0,0,1-1.59-7.71c.14-3.53,2.59.51,2.59.51S82.1,38,84.41,39,89,43.18,81.07,48.48Z"/><ellipse class="cls-24" cx="77.3" cy="43.99" rx="1.47" ry="0.41" transform="translate(-5.89 12.52) rotate(-8.92)"/><path class="cls-18" d="M90.26,102.05a2.45,2.45,0,0,1-.48,1.61A8.19,8.19,0,0,1,88.57,105a11.29,11.29,0,0,1-1.71,1.37,6.27,6.27,0,0,0,2.61-1A3.46,3.46,0,0,0,90.92,103a1.61,1.61,0,0,0-.66-1.63.59.59,0,0,1,0,.37Z"/><path class="cls-18" d="M85.33,102.05a2.46,2.46,0,0,1-.49,1.61,8.13,8.13,0,0,1-1.2,1.29,10.89,10.89,0,0,1-1.72,1.37,6.27,6.27,0,0,0,2.61-1A3.47,3.47,0,0,0,86,103a1.63,1.63,0,0,0-.67-1.63.53.53,0,0,1,0,.37Z"/><path class="cls-18" d="M65.2,102.05a2.46,2.46,0,0,0,.49,1.61,8.13,8.13,0,0,0,1.2,1.29,11.29,11.29,0,0,0,1.71,1.37,6.23,6.23,0,0,1-2.6-1A3.47,3.47,0,0,1,64.54,103a1.62,1.62,0,0,1,.67-1.63.53.53,0,0,0,0,.37Z"/><path class="cls-18" d="M60,102.05a2.46,2.46,0,0,0,.49,1.61,8.13,8.13,0,0,0,1.2,1.29,11.37,11.37,0,0,0,1.72,1.37,6.27,6.27,0,0,1-2.61-1A3.42,3.42,0,0,1,59.33,103a1.61,1.61,0,0,1,.66-1.63.53.53,0,0,0,0,.37Z"/><path class="cls-25" d="M61.08,88.19a5.17,5.17,0,0,0-.93,2.15.24.24,0,0,0,.16.29.23.23,0,0,0,.28-.16,5,5,0,0,1,.89-2,.23.23,0,0,0-.08-.32.24.24,0,0,0-.32.09Z"/><path class="cls-25" d="M64.61,89.05a7,7,0,0,0-.69,2.87.23.23,0,0,0,.46,0A6.55,6.55,0,0,1,65,89.28c.13-.26-.27-.5-.39-.23Z"/><path class="cls-25" d="M69.3,88.16a21.76,21.76,0,0,0,0,6.19c0,.29.49.17.44-.12a21.18,21.18,0,0,1,0-6c0-.29-.41-.41-.45-.12Z"/><path class="cls-25" d="M74.23,88.7a13,13,0,0,1,1,5.49.23.23,0,0,0,.46,0,13.23,13.23,0,0,0-1.12-5.72c-.11-.27-.51,0-.39.23Z"/><path class="cls-25" d="M79,88.43a10.24,10.24,0,0,1,.69,5.6c0,.29.4.42.44.13a10.85,10.85,0,0,0-.73-6c-.12-.28-.52,0-.4.23Z"/><path class="cls-25" d="M83.17,88.19a20,20,0,0,1,.64,4.87.23.23,0,0,0,.46,0,20,20,0,0,0-.66-5,.23.23,0,0,0-.44.12Z"/><path class="cls-25" d="M86.94,88a4,4,0,0,1,.55,2.88c0,.29.39.42.45.13a4.57,4.57,0,0,0-.6-3.25.23.23,0,0,0-.4.24Z"/></svg>