<svg id="Layer_2" data-name="Layer 2" xmlns="http://www.w3.org/2000/svg" xmlns:xlink="http://www.w3.org/1999/xlink" viewBox="0 0 260 168"><defs><style>.cls-1{fill:#535454;}.cls-2{fill:#ea8313;}.cls-3{fill:#141414;}.cls-4{fill:#2d2d2d;}.cls-5{fill:#0c0c0c;}.cls-6{fill:#fff;}.cls-7{fill:#231f20;}.cls-8{fill:#3f3f3f;}.cls-9{clip-path:url(#clip-path);}.cls-10{fill:#6d6d6d;}.cls-11{fill:#050505;}.cls-12{fill:#1e1e1e;}.cls-13{fill:#f4912f;}.cls-14{fill:#9e4407;}.cls-15{fill:#d16d09;}.cls-16{clip-path:url(#clip-path-2);}.cls-17{fill:#d67513;}.cls-18{fill:#ff9f2c;}.cls-19{fill:#e51a1a;}.cls-20{fill:#d61818;}.cls-21{fill:#561404;}.cls-22{fill:#f7b03e;}.cls-23{fill:#f9cc3d;}.cls-24{fill:#ffc931;}.cls-25{fill:#f99a10;}</style><clipPath id="clip-path"><path class="cls-1" d="M180.35,44.59a12.87,12.87,0,0,1,3.25,4.34c1.35,2.76,6.53,2.56,6.53,2.56s.84.32.21.88-4.49-.34-7.84,1A9.29,9.29,0,0,0,178,56.83h0A9.31,9.31,0,0,0,175.07,52c-2.6-2.51-6.53-3.11-6.9-3.87s.53-.74.53-.74,4.73,2.12,7,.06a13.06,13.06,0,0,1,4.64-2.82"/></clipPath><clipPath id="clip-path-2"><path class="cls-2" d="M85.73,76.24s9.1,13.49,9.1,23.81S88,116.35,72,116.35c-15.47,0-19.75-9.79-18.68-18s8.19-22.13,8.19-22.13Z"/></clipPath></defs><path class="cls-3" d="M166.72,76.93S146.4,49.73,121.4,50.58s3.34,13.1,3.34,13.1-17.59,6.37,1.07,13.06c0,0-8.34,11.22,8.67,10.47,0,0-8.87,10.19,7.52,9.67,0,0,.95,12.75,17.18,6S168.09,77.83,166.72,76.93Z"/><path class="cls-3" d="M197,76.47S225.46,61,246.78,71.73s-8.13,10-8.13,10,12.7,12.54-6.13,10.89c0,0,2.74,13-11.7,5.6,0,0,3.62,12.38-10.37,5.38,0,0-5.91,10.66-17.28-1.66S195.45,76.7,197,76.47Z"/><path d="M190.82,102.22s7.24,18.29,6.35,22.53c-.69,3.32-4.8,3.11-8.81-3.31,0,0-.39,16.28-9,4.24,0,0-9.07,12.4-9.13-4.24,0,0-17.37,17.25-2.95-20.8Z"/><path class="cls-4" d="M210.19,125.88s3.74-3.88,4.85-4.7c0,0,.63-.6,1.11-.25.68.5.56,1.18,0,1.83s-6.22,5.18-6.22,5.18l-.83-.86Z"/><path class="cls-4" d="M205.87,130.36s-1.35.87-1.21,2a4.8,4.8,0,0,1,2.11-1.22S207.52,129.94,205.87,130.36Z"/><path class="cls-1" d="M197.51,114.59s13.23,11.65,13.5,12.27.15,2.45-2.27,1c-2.71-1.65-13.45-10.77-13.45-10.77S195.41,114.77,197.51,114.59Z"/><path class="cls-5" d="M196.91,104.15a70.27,70.27,0,0,1,4.47,12.33c1.32,5.77-1.82,6.46-6.07,2.69s-7-6.7-8.1-9-2.52-6.1,1.4-8.35C193.49,99,196.91,104.15,196.91,104.15Z"/><path class="cls-1" d="M208.06,130.61s5.94-5,9.21-6.48c0,0,2.56-1.13,2-2.37s-4.83,1.5-4.83,1.5-5.11,2.64-7.59,5.89c0,0-1.22,1.06-.79,1.44S206.77,132,208.06,130.61Z"/><path class="cls-4" d="M218.79,121.71s1.46-.66,2.32.07a4.9,4.9,0,0,0-2.17,1.09S217.52,122.85,218.79,121.71Z"/><path class="cls-1" d="M211.68,127.54s4.36-1.43,5.32-1,2.25-1.18,1.14-1.76-2.5-1.12-5.92.86C212.22,125.69,210.46,126.4,211.68,127.54Z"/><path class="cls-4" d="M218,125.05s1.58.31,1.86,1.39a4.85,4.85,0,0,0-2.4-.34S216.33,125.27,218,125.05Z"/><path class="cls-4" d="M215.25,121.49s1.29-1.38,2-1.07c0,0-1.46.91-1.48,1.57C215.81,122,215,122.31,215.25,121.49Z"/><path class="cls-4" d="M166.8,134.39s-5.37-.52-6.74-.42c0,0-.88-.05-1,.53-.19.83.34,1.26,1.16,1.43s8.09-.11,8.09-.11l.06-1.19Z"/><path class="cls-4" d="M173,135s1.59-.22,2.21.72a4.93,4.93,0,0,0-2.39.45S171.46,135.74,173,135Z"/><path class="cls-1" d="M169.1,117.57s-2.49,17.46-2.29,18.1,1.48,2,2.37-.72c1-3,3.23-16.93,3.23-16.93S170.81,116.34,169.1,117.57Z"/><path class="cls-5" d="M162.78,109.25a69.64,69.64,0,0,0,4.61,12.27c2.75,5.25,5.58,3.73,6.36-1.9s1-9.65.28-12.14-2.05-6.27-6.49-5.43C162,103.09,162.78,109.25,162.78,109.25Z"/><path class="cls-1" d="M171.49,136.6s-7.73.1-11.21,1.06c0,0-2.68.81-3-.53s4.64-2,4.64-2,5.61-1.32,9.6-.46c0,0,1.62,0,1.54.58S173.4,136.84,171.49,136.6Z"/><path class="cls-4" d="M157.55,136.8s-1.54.46-1.72,1.57a5,5,0,0,1,2.37-.58S159.26,136.85,157.55,136.8Z"/><path class="cls-1" d="M166.74,136.63s-4.24,1.74-4.66,2.72-2.47.57-2-.59,1.17-2.48,5-3.2C165.13,135.56,166.93,135,166.74,136.63Z"/><path class="cls-4" d="M160.31,138.85s-1,1.25-.51,2.27a4.82,4.82,0,0,1,1.6-1.83S161.73,137.92,160.31,138.85Z"/><path class="cls-4" d="M160.11,134.34s-1.89-.21-2.26.51c0,0,1.7-.25,2.15.24C160,135.09,160.84,134.79,160.11,134.34Z"/><path class="cls-5" d="M160.44,89.21c2.3-5.64,3.07-15.3,3.19-17,1.11-19.81,3.94-35,15.77-35,11.5,0,14.61,15.09,15.76,34.78h0s.68,11,3.2,17.21C202.9,100.33,198,119,181,119v-.19a6.27,6.27,0,0,1-1.55.19,6.13,6.13,0,0,1-1.54-.19V119C160.82,119,155.9,100.33,160.44,89.21Z"/><ellipse class="cls-6" cx="186.21" cy="46.68" rx="3.45" ry="2.13" transform="translate(105.02 220.64) rotate(-79.05)"/><ellipse class="cls-7" cx="186.21" cy="46.68" rx="2.18" ry="1.34" transform="translate(105.02 220.64) rotate(-79.05)"/><ellipse class="cls-6" cx="185.74" cy="45.69" rx="0.64" ry="0.39" transform="translate(105.62 219.37) rotate(-79.05)"/><ellipse class="cls-6" cx="174.09" cy="44.34" rx="3.45" ry="2.13" transform="translate(97.5 206.84) rotate(-79.05)"/><ellipse class="cls-7" cx="174.09" cy="44.34" rx="2.18" ry="1.34" transform="translate(97.5 206.84) rotate(-79.05)"/><ellipse class="cls-6" cx="174.93" cy="43.59" rx="0.64" ry="0.39" transform="translate(98.91 207.06) rotate(-79.05)"/><path class="cls-8" d="M186.24,53.6c-3.8.11-8.14,2.6-8.14,2.6L179.3,50l11,2.38S190,53.48,186.24,53.6Z"/><path class="cls-8" d="M179.3,50l-1.2,6.21s-3.1-3.93-6.58-5.45-3.35-2.67-3.35-2.67Z"/><path class="cls-1" d="M180.35,44.59a12.87,12.87,0,0,1,3.25,4.34c1.35,2.76,6.53,2.56,6.53,2.56s.84.32.21.88-4.49-.34-7.84,1A9.29,9.29,0,0,0,178,56.83h0A9.31,9.31,0,0,0,175.07,52c-2.6-2.51-6.53-3.11-6.9-3.87s.53-.74.53-.74,4.73,2.12,7,.06a13.06,13.06,0,0,1,4.64-2.82"/><g class="cls-9"><path class="cls-10" d="M183.55,43.69a2.21,2.21,0,0,1-.68,1.68,18,18,0,0,0-3.47,5.82,6.09,6.09,0,0,1-.64,1.73c0,.06-.07.11-.13.13s-.29-.09-.36-.23a3.35,3.35,0,0,1-.13-1.86,16.26,16.26,0,0,0,.28-4.86,11,11,0,0,1-.53-3.29.57.57,0,0,1,.1-.31.66.66,0,0,1,.35-.21,4.32,4.32,0,0,1,3.86.57,9.28,9.28,0,0,0,1.25.91"/></g><ellipse class="cls-11" cx="177.21" cy="46.65" rx="0.57" ry="0.25" transform="translate(7.85 116.62) rotate(-37.2)"/><ellipse class="cls-11" cx="182.31" cy="47.78" rx="0.25" ry="0.57" transform="translate(-1.28 90.38) rotate(-27.75)"/><path class="cls-12" d="M175.21,67.67a.3.3,0,0,0,0-.6.3.3,0,0,0,0,.6Z"/><path class="cls-12" d="M167.71,61a23.77,23.77,0,0,0-1.36,7.37.3.3,0,0,0,.59,0,23.34,23.34,0,0,1,1.34-7.21c.13-.36-.44-.52-.57-.16Z"/><path class="cls-12" d="M169.56,64.45a14.08,14.08,0,0,0-.3,2.66.3.3,0,0,0,.59,0,13.22,13.22,0,0,1,.29-2.5.3.3,0,0,0-.21-.36.31.31,0,0,0-.37.2Z"/><path class="cls-12" d="M190.1,60.93c.27,1.57.46,3.14.58,4.73,0,.37.63.38.6,0q-.19-2.46-.6-4.89c-.07-.37-.64-.21-.58.16Z"/><path class="cls-12" d="M187.42,63.08c.06,3.26,0,6.52-.25,9.78,0,.38.57.38.59,0q.33-4.89.26-9.78a.3.3,0,0,0-.6,0Z"/><path class="cls-12" d="M183.05,66.77v2.06a.3.3,0,0,0,.6,0V66.77a.3.3,0,1,0-.6,0Z"/><path class="cls-12" d="M194.46,100.4a32,32,0,0,1-3.59,9.33.3.3,0,0,0,.51.3,32.6,32.6,0,0,0,3.66-9.47c.07-.37-.5-.53-.58-.16Z"/><path class="cls-12" d="M190.52,101.5c-.07.27-.16.55-.25.81s-.19.48-.32.75a.3.3,0,0,0,.52.3,10.53,10.53,0,0,0,.63-1.7.31.31,0,0,0-.21-.37.32.32,0,0,0-.37.21Z"/><path class="cls-12" d="M185.58,94.29a46.82,46.82,0,0,1-2.21,10.88c-.12.37.45.52.57.16a47.24,47.24,0,0,0,2.23-11c0-.38-.56-.38-.59,0Z"/><path class="cls-12" d="M177.68,93.43a77.48,77.48,0,0,0-.36,14.92c0,.38.62.38.59,0a77.48,77.48,0,0,1,.36-14.92c0-.38-.54-.38-.59,0Z"/><path class="cls-12" d="M171.79,96.09a57.09,57.09,0,0,0,.57,9.42c0,.38.62.22.57-.15a56.36,56.36,0,0,1-.55-9.27.3.3,0,0,0-.59,0Z"/><path class="cls-12" d="M167.3,102.35l.08.68a.27.27,0,0,0,0,.12.18.18,0,0,0,.06.09.33.33,0,0,0,.21.09.31.31,0,0,0,.3-.3l-.09-.68a.5.5,0,0,0,0-.12.34.34,0,0,0-.28-.18.29.29,0,0,0-.29.3Z"/><path class="cls-12" d="M163.61,101.5a4.59,4.59,0,0,0,.45,2.67c.33.89.71,1.76,1.11,2.61.87,1.82,1.86,3.56,2.86,5.31a.3.3,0,0,0,.51-.3c-.9-1.58-1.8-3.16-2.6-4.79-.41-.83-.8-1.68-1.14-2.55a5.1,5.1,0,0,1-.62-2.79c.09-.37-.48-.53-.57-.16Z"/><path class="cls-13" d="M57.35,80.82S32.89,67.74,14.69,77s7,8.53,7,8.53S10.9,96.37,27,94.85c0,0-2.28,11.19,10,4.74,0,0-3,10.62,8.92,4.55,0,0,5.11,9.1,14.78-1.51S58.68,81,57.35,80.82Z"/><path class="cls-13" d="M90.67,80.13s24.88-12.26,42.76-2.38-7.29,8.3-7.29,8.3,10.44,11.16-5.62,9.11c0,0,1.91,11.25-10.19,4.4,0,0,2.68,10.71-9.06,4.26,0,0-5.42,8.92-14.73-2S89.34,80.28,90.67,80.13Z"/><path class="cls-14" d="M80.21,118.91v10.31s9.87,5.21,8.68,5.75-8.47-3.47-8.47-3.47-1.73,15.41-2.71.11c0,0-18,9.66-.16-2.28v-11S79.61,115.28,80.21,118.91Z"/><path class="cls-14" d="M61.05,114.46l-8.32,6.1s1.64,11,.5,10.4-2.2-8.88-2.2-8.88-13.46,7.71-1.7-2.12c0,0-18.4-8.77,1.74-1.48L60,112S63.62,111.83,61.05,114.46Z"/><path class="cls-15" d="M87.48,112.73l-4.18,6a6,6,0,0,1-1,1.23,4.91,4.91,0,0,1-3.69.88A5.38,5.38,0,0,1,76,120c-1.46-1-1.94-2.94-2.31-4.68a1,1,0,0,1,0-.74,1,1,0,0,1,.42-.32A22.18,22.18,0,0,1,85.9,112a1.47,1.47,0,0,1,1,.35c.24.27.17.8-.19.86"/><path class="cls-15" d="M60.61,103.41l-2.4,7a6.33,6.33,0,0,0-.39,1.54,4.91,4.91,0,0,0,1.47,3.49A5.46,5.46,0,0,0,61.51,117c1.69.57,3.51-.18,5.14-.91a1,1,0,0,0,.58-.46,1.1,1.1,0,0,0,0-.54,22.24,22.24,0,0,0-5.13-10.8,1.48,1.48,0,0,0-.87-.59c-.36,0-.75.34-.59.66"/><path class="cls-2" d="M85.73,76.24s9.1,13.49,9.1,23.81S88,116.35,72,116.35c-15.47,0-19.75-9.79-18.68-18s8.19-22.13,8.19-22.13Z"/><g class="cls-16"><path class="cls-17" d="M90.75,78.37a2.71,2.71,0,0,1,.11,2.12,2,2,0,0,1-1.59.91c-.63.08-1.27,0-1.9.08-1.68.19-3.09,1.39-4.74,1.76A10,10,0,0,1,79,83.13a4.16,4.16,0,0,1-4.88,1.13,3.67,3.67,0,0,1-4.64.48c-1.37,1.56-3.89,1.39-5.8.56a1.55,1.55,0,0,0-1-.2,1.85,1.85,0,0,0-.68.47c-1.56,1.37-4.15,1-5.65-.47a8.11,8.11,0,0,1-2.12-5.68c-.05-1.69.3-3.56,1.63-4.61a8.89,8.89,0,0,1,2.9-1.22c1.71-.56,3.29-1.44,4.95-2.13a45.84,45.84,0,0,1,8.65-2.33A63.43,63.43,0,0,1,84.8,67.49a4.45,4.45,0,0,1,2.4.48,4.34,4.34,0,0,1,.83.72,17.19,17.19,0,0,1,4.58,10.52"/><path class="cls-15" d="M96.55,106.78,91.31,111A6.81,6.81,0,0,1,88,112.78c-1.28.14-2.75-.76-2.71-2A8,8,0,0,0,82,112.17a3.42,3.42,0,0,1-3.36.36c-.49-.3-.89-.83-1.46-.85a2.66,2.66,0,0,0-1.29.59c-1.62.94-3.66.12-5.35-.7a1.59,1.59,0,0,1-2.13,1.16c-.81-.38-1.38-1.48-2.26-1.3a2.61,2.61,0,0,0-.71.35c-1.58.89-3.56.21-5.22-.53a95.83,95.83,0,0,1-9-4.59A53.79,53.79,0,0,0,53,113.4c.68,2.07,1.65,4.28,3.6,5.24a8.63,8.63,0,0,0,2.5.66,44.69,44.69,0,0,0,6.63.54,63.15,63.15,0,0,0,10.43-1.22l14.75-2.56c2.32-.4,4.85-.93,6.3-2.79s1.32-4.57,1.09-7a.56.56,0,0,0-.61.7"/></g><path class="cls-18" d="M60.82,84s5.34,1.38,7.78-1.7c0,0,3.18,2.26,4.71-.3,2.37,1.8,4.47-1.47,4.47-1.47,3.42,1.95,7.85-1.32,7.85-1.32,3.89,1.43,8.6-2,5.3-4.1S87.36,65.67,82,53s-15.61-9.78-15.61-9.78l-1.12.22h0S54.67,44.59,54.43,58.33s2.22,20.64,0,23.84S57.75,86.78,60.82,84ZM67.9,52.18,70,64.88,67.28,52.5Z"/><path class="cls-19" d="M58,64.08c-4.68-6.46-4-13.18.91-14.12a12.18,12.18,0,0,1,8.34,1.25l0,.09h0l0-.09a12.24,12.24,0,0,1,7.28-4.27c4.9-.94,8,5,6.1,12.77,0,0,1.81.55,2.54,4.3s-6.37,6.45-12.61,2.92l-.22-1.05-.49.15.18,1c-4.48,5.6-12.07,5.73-12.79,2S58,64.08,58,64.08Z"/><path class="cls-20" d="M73.94,66.26A62.72,62.72,0,0,1,78.18,71a8.37,8.37,0,0,1,1.39,2.14,3.14,3.14,0,0,1,0,2.48,3.72,3.72,0,0,1-1.93,1.62,5.42,5.42,0,0,1-2.85.48,5.15,5.15,0,0,1-3.66-2.8,10.43,10.43,0,0,1-1-4.62,22.88,22.88,0,0,1,.1-2.87,3.06,3.06,0,0,1,1.12-2.45,1.68,1.68,0,0,1,2.07.33c0,.06.1.15,0,.21s-.17,0-.1-.07"/><path class="cls-20" d="M67.17,67.57A61.72,61.72,0,0,0,65,73.49a8.66,8.66,0,0,0-.49,2.5,3.13,3.13,0,0,0,.9,2.32,3.69,3.69,0,0,0,2.39.78,5.41,5.41,0,0,0,2.83-.61,5.15,5.15,0,0,0,2.35-4,10.4,10.4,0,0,0-.78-4.66A21.21,21.21,0,0,0,71,67.23c-.43-.83-1-1.71-1.94-1.86a1.67,1.67,0,0,0-1.8,1.07c0,.08,0,.18,0,.22s.14-.1.06-.1"/><path class="cls-21" d="M58.71,53.8a2.07,2.07,0,0,1-2.18-.17,2.23,2.23,0,0,0,1.76,1.07Z"/><path class="cls-21" d="M58.34,54.53a1.45,1.45,0,0,1-1.54-.12,1.57,1.57,0,0,0,1.25.76Z"/><ellipse class="cls-6" cx="60.77" cy="56.83" rx="4.38" ry="3.41" transform="translate(1.96 115.68) rotate(-88.1)"/><path d="M63.1,56a1,1,0,0,1-1.91-.62,1.07,1.07,0,0,1,.3-.69,2.31,2.31,0,0,0-.64-.1,2.65,2.65,0,1,0,2.56,2.74A2.69,2.69,0,0,0,63.1,56Z"/><path class="cls-21" d="M63.51,54.16a3.4,3.4,0,0,0-2.6-1.71,3.53,3.53,0,0,0-3.26,2.66s.36-3.2,3.28-3A3.2,3.2,0,0,1,63.51,54.16Z"/><path class="cls-21" d="M76.79,50.41a2.07,2.07,0,0,0,2-.81,2.27,2.27,0,0,1-1.37,1.55Z"/><path class="cls-21" d="M77.36,51a1.46,1.46,0,0,0,1.44-.57s-.23.91-1,1.09Z"/><ellipse class="cls-6" cx="75.71" cy="53.91" rx="3.41" ry="4.38" transform="matrix(0.95, -0.33, 0.33, 0.95, -13.43, 27.6)"/><path d="M73.23,53.76a1,1,0,0,0,1,.18,1,1,0,0,0,.17-1.9,2.42,2.42,0,0,1,.58-.29,2.65,2.65,0,1,1-1.74,2Z"/><path class="cls-21" d="M72.31,52.17a3.4,3.4,0,0,1,2-2.4,3.53,3.53,0,0,1,3.9,1.58s-1.28-3-4-1.94A3.2,3.2,0,0,0,72.31,52.17Z"/><path class="cls-22" d="M74.93,61.74s1.53,4.05-4.81,5.28-6-3.59-6-3.59Z"/><path class="cls-23" d="M68.33,56.2h0c5.34-1,6.84,4,7.13,5s-1.3,1.18-3.39,1.58-2.3.9-2.3.9h0s-.38-.38-2.47,0-3.63.81-3.73-.21S63,57.23,68.33,56.2Z"/><path class="cls-19" d="M66.86,48.48a21.57,21.57,0,0,0,1.6-7.71c-.14-3.53-2.59.51-2.59.51s0-3.27-2.34-2.27S59,43.18,66.86,48.48Z"/><ellipse class="cls-24" cx="70.64" cy="43.99" rx="0.41" ry="1.47" transform="translate(16.23 106.95) rotate(-81.08)"/><path class="cls-18" d="M57.68,102.05a2.45,2.45,0,0,0,.48,1.61A7.75,7.75,0,0,0,59.37,105a11.29,11.29,0,0,0,1.71,1.37,6.27,6.27,0,0,1-2.61-1A3.42,3.42,0,0,1,57,103a1.61,1.61,0,0,1,.66-1.63.59.59,0,0,0,0,.37Z"/><path class="cls-18" d="M62.61,102.05a2.46,2.46,0,0,0,.49,1.61A8.13,8.13,0,0,0,64.3,105,10.89,10.89,0,0,0,66,106.32a6.27,6.27,0,0,1-2.61-1A3.47,3.47,0,0,1,62,103a1.62,1.62,0,0,1,.67-1.63.53.53,0,0,0,0,.37Z"/><path class="cls-18" d="M82.74,102.05a2.46,2.46,0,0,1-.49,1.61,8.13,8.13,0,0,1-1.2,1.29,10.89,10.89,0,0,1-1.72,1.37,6.27,6.27,0,0,0,2.61-1A3.47,3.47,0,0,0,83.4,103a1.62,1.62,0,0,0-.67-1.63.53.53,0,0,1,0,.37Z"/><path class="cls-18" d="M88,102.05a2.46,2.46,0,0,1-.49,1.61,8.13,8.13,0,0,1-1.2,1.29,11.37,11.37,0,0,1-1.72,1.37,6.27,6.27,0,0,0,2.61-1A3.42,3.42,0,0,0,88.61,103a1.61,1.61,0,0,0-.66-1.63.59.59,0,0,1,0,.37Z"/><path class="cls-25" d="M86.46,88.42a5,5,0,0,1,.89,2,.23.23,0,0,0,.28.16.24.24,0,0,0,.16-.29,5.19,5.19,0,0,0-.94-2.15.24.24,0,0,0-.31-.09.23.23,0,0,0-.08.32Z"/><path class="cls-25" d="M82.94,89.28a6.55,6.55,0,0,1,.62,2.64.23.23,0,0,0,.46,0,7,7,0,0,0-.69-2.87c-.12-.27-.52,0-.39.23Z"/><path class="cls-25" d="M78.19,88.28a20.81,20.81,0,0,1,0,6c0,.29.4.41.45.12a22.13,22.13,0,0,0,0-6.19c0-.29-.49-.17-.45.12Z"/><path class="cls-25" d="M73.31,88.47a13.37,13.37,0,0,0-1.11,5.72.23.23,0,0,0,.46,0,13,13,0,0,1,1-5.49c.12-.27-.28-.5-.4-.23Z"/><path class="cls-25" d="M68.51,88.2a10.94,10.94,0,0,0-.74,6c0,.29.49.16.45-.13a10.24,10.24,0,0,1,.69-5.6c.11-.27-.28-.51-.4-.23Z"/><path class="cls-25" d="M64.33,88.07a20,20,0,0,0-.66,5c0,.29.46.29.46,0a20,20,0,0,1,.64-4.87.23.23,0,0,0-.44-.12Z"/><path class="cls-25" d="M60.6,87.78A4.57,4.57,0,0,0,60,91c.06.29.5.16.45-.13A4,4,0,0,1,61,88a.23.23,0,0,0-.4-.24Z"/></svg>