<svg id="Layer_1" data-name="Layer 1" xmlns="http://www.w3.org/2000/svg" xmlns:xlink="http://www.w3.org/1999/xlink" viewBox="0 0 260 168"><defs><style>.cls-1{fill:#ea8313;}.cls-2{fill:#f4912f;}.cls-3{fill:#9e4407;}.cls-4{fill:#d16d09;}.cls-5{clip-path:url(#clip-path);}.cls-6{fill:#d67513;}.cls-7{fill:#ff9f2c;}.cls-8{fill:#e51a1a;}.cls-9{fill:#d61818;}.cls-10{fill:#561404;}.cls-11{fill:#fff;}.cls-12{fill:#f7b03e;}.cls-13{fill:#f9cc3d;}.cls-14{fill:#ffc931;}.cls-15{fill:#f99a10;}</style><clipPath id="clip-path"><path class="cls-1" d="M174.46,116.33s-2.65,3.92-2.65,6.92,2,4.73,6.62,4.73,5.74-2.84,5.43-5.22-2.38-6.43-2.38-6.43Z"/></clipPath></defs><path class="cls-2" d="M182.43,117.47A12.63,12.63,0,0,1,186,121.2a4.63,4.63,0,0,1-.11,4.89,6.83,6.83,0,0,1-3.64,2,1.84,1.84,0,0,1-1.59,0,1.76,1.76,0,0,1-.6-1.25,18.83,18.83,0,0,1,0-6.57,4.68,4.68,0,0,1,1-2.4,1.16,1.16,0,0,1,.68-.41.55.55,0,0,1,.63.39"/><path class="cls-2" d="M173.3,117.47a12.63,12.63,0,0,0-3.52,3.73,4.63,4.63,0,0,0,.11,4.89,6.83,6.83,0,0,0,3.64,2,1.84,1.84,0,0,0,1.59,0,1.8,1.8,0,0,0,.6-1.25,18.83,18.83,0,0,0,0-6.57,4.68,4.68,0,0,0-1-2.4,1.16,1.16,0,0,0-.68-.41c-.27,0-.49-.27-.54,0Z"/><path class="cls-3" d="M176.06,128.73v3s-2.87,1.52-2.52,1.67,2.46-1,2.46-1,.5,4.47.79,0c0,0,5.22,2.8,0-.67v-3.2S176.24,127.67,176.06,128.73Z"/><path class="cls-3" d="M179.58,128.73v3s-2.87,1.52-2.52,1.67,2.46-1,2.46-1,.5,4.47.79,0c0,0,5.21,2.8,0-.67v-3.2S179.76,127.67,179.58,128.73Z"/><path class="cls-4" d="M174,126.93l1.21,1.76a2,2,0,0,0,.3.35,1.38,1.38,0,0,0,1.07.26,1.56,1.56,0,0,0,.75-.25,2.09,2.09,0,0,0,.67-1.36.26.26,0,0,0,0-.21s-.07-.07-.12-.1a6.48,6.48,0,0,0-3.41-.65.41.41,0,0,0-.29.1c-.07.08-.05.23,0,.25"/><path class="cls-4" d="M182.25,126.93,181,128.69a2.45,2.45,0,0,1-.29.35,1.4,1.4,0,0,1-1.07.26,1.56,1.56,0,0,1-.76-.25,2.13,2.13,0,0,1-.67-1.36.3.3,0,0,1,0-.21.38.38,0,0,1,.12-.1,6.52,6.52,0,0,1,3.42-.65.45.45,0,0,1,.29.1.16.16,0,0,1-.06.25"/><path class="cls-1" d="M174.46,116.33s-2.65,3.92-2.65,6.92,2,4.73,6.62,4.73,5.74-2.84,5.43-5.22-2.38-6.43-2.38-6.43Z"/><g class="cls-5"><path class="cls-6" d="M173.13,117.75a.78.78,0,0,0,.06.62.59.59,0,0,0,.5.18c.18,0,.36,0,.55-.06a14.68,14.68,0,0,1,1.44.29,2.91,2.91,0,0,0,1-.2,1.2,1.2,0,0,0,1.45.1,1.06,1.06,0,0,0,1.35-.07,1.5,1.5,0,0,0,1.7-.11.45.45,0,0,1,.27-.1.62.62,0,0,1,.22.1,1.26,1.26,0,0,0,1.6-.39,2.35,2.35,0,0,0,.35-1.72,1.63,1.63,0,0,0-.68-1.25,2.48,2.48,0,0,0-.89-.22c-.51-.08-1-.27-1.52-.39a13.14,13.14,0,0,0-2.58-.27,17.91,17.91,0,0,0-3.66.1,1.29,1.29,0,0,0-.66.24,1.27,1.27,0,0,0-.21.25,5.06,5.06,0,0,0-.83,3.23"/><path class="cls-4" d="M171.31,125.2l1.53,1.23a2,2,0,0,0,1,.52.69.69,0,0,0,.79-.6,2.44,2.44,0,0,1,.93.42,1,1,0,0,0,1,.1c.14-.08.26-.24.42-.24s.26.1.38.17a1.71,1.71,0,0,0,1.55-.21.47.47,0,0,0,.62.34c.24-.11.4-.43.66-.38a1.24,1.24,0,0,1,.2.1,1.72,1.72,0,0,0,1.52-.15,29.1,29.1,0,0,0,2.61-1.33,16.6,16.6,0,0,1-.51,2,2.43,2.43,0,0,1-1.05,1.52,2.55,2.55,0,0,1-.72.19,14,14,0,0,1-1.93.16,18.16,18.16,0,0,1-3-.36l-4.29-.74a2.11,2.11,0,0,1-2.14-2.84.16.16,0,0,1,.17.2"/></g><path class="cls-7" d="M183.46,117.68c-.72-.88-.15-2.93-.5-6.91s-3.46-4.08-3.46-4.08h0l-.33,0s-3-.63-4.32,3.15-1.22,5.91-2.13,6.6.52,1.57,1.62,1.08c0,0,1.36.85,2.31.22,0,0,.67.9,1.32.33.5.71,1.37,0,1.37,0,.77.84,2.29.33,2.29.33C182.58,119.09,184.19,118.56,183.46,117.68Zm-4.35-8.33-.53,3.65.34-3.73Z"/><path class="cls-8" d="M182,112.52c1.22-2,.88-3.91-.56-4.08a3.57,3.57,0,0,0-2.39.54v0h0v0a3.53,3.53,0,0,0-2.19-1.09c-1.44-.17-2.23,1.63-1.51,3.83,0,0-.51.19-.65,1.3s2,1.74,3.72.58l0-.31.15,0,0,.29c1.42,1.53,3.62,1.41,3.75.31S182,112.52,182,112.52Z"/><path class="cls-9" d="M177.46,113.48a17.45,17.45,0,0,0-1.13,1.44,3,3,0,0,0-.36.65.94.94,0,0,0,.05.72,1,1,0,0,0,.59.43,1.51,1.51,0,0,0,.84.08,1.49,1.49,0,0,0,1-.88,3,3,0,0,0,.2-1.36,5.7,5.7,0,0,0-.09-.83.88.88,0,0,0-.38-.69.48.48,0,0,0-.59.14.06.06,0,0,0,0,.06s0,0,0,0"/><path class="cls-9" d="M179.45,113.72a16.75,16.75,0,0,1,.76,1.67,2.27,2.27,0,0,1,.19.71.9.9,0,0,1-.21.69,1.1,1.1,0,0,1-.68.28,1.58,1.58,0,0,1-.83-.12,1.47,1.47,0,0,1-.76-1.1,3.06,3.06,0,0,1,.13-1.37,5.59,5.59,0,0,1,.28-.78c.11-.25.26-.52.53-.58a.49.49,0,0,1,.54.27.06.06,0,0,1,0,.07s0,0,0,0"/><path class="cls-10" d="M181.62,109.55a.61.61,0,0,0,.63-.09.64.64,0,0,1-.49.34Z"/><path class="cls-10" d="M181.74,109.76a.44.44,0,0,0,.45-.07.46.46,0,0,1-.35.24Z"/><ellipse class="cls-11" cx="181.09" cy="110.47" rx="0.99" ry="1.27" transform="translate(-10.52 19.46) rotate(-5.98)"/><path d="M180.37,109.66a.3.3,0,0,0,.26.12.3.3,0,0,0,.27-.34.28.28,0,0,0-.09-.19l.18,0a.79.79,0,1,1-.62.45Z"/><path class="cls-10" d="M180.24,109.76a1,1,0,0,1,.71-.55,1,1,0,0,1,1,.7s-.17-.92-1-.81A.93.93,0,0,0,180.24,109.76Z"/><path class="cls-10" d="M176.31,108.94a.6.6,0,0,1-.61-.19.66.66,0,0,0,.43.42Z"/><path class="cls-10" d="M176.16,109.13a.44.44,0,0,1-.43-.14s.08.26.3.3Z"/><ellipse class="cls-11" cx="176.69" cy="109.93" rx="1.27" ry="0.99" transform="translate(24.94 252.33) rotate(-75.07)"/><path d="M177.38,109.24a.29.29,0,0,1-.28.07.31.31,0,0,1-.22-.37.3.3,0,0,1,.13-.18l-.17-.07a.77.77,0,1,0,.54.94A.65.65,0,0,0,177.38,109.24Z"/><path class="cls-10" d="M177.65,109.36a1,1,0,0,0-.63-.66,1,1,0,0,0-1.1.55s.31-.89,1.13-.65A.93.93,0,0,1,177.65,109.36Z"/><path class="cls-12" d="M177.08,112.19s-.36,1.2,1.51,1.43,1.66-1.17,1.66-1.17Z"/><path class="cls-13" d="M178.88,110.45h0a1.79,1.79,0,0,0-2,1.6c-.06.3.4.32,1,.39s.68.22.68.22h0s.1-.12.71-.05,1.07.17,1.08-.14A1.77,1.77,0,0,0,178.88,110.45Z"/><path class="cls-8" d="M179.15,108.18a6.26,6.26,0,0,1-.63-2.2c0-1,.77.09.77.09s-.06-.95.63-.71S181.33,106.48,179.15,108.18Z"/><ellipse class="cls-14" cx="177.96" cy="106.95" rx="0.43" ry="0.12" transform="translate(-19.5 42.78) rotate(-13)"/><path class="cls-7" d="M182.61,123.83a.74.74,0,0,1-.14.47,3.06,3.06,0,0,1-.35.37,3.81,3.81,0,0,1-.5.4,1.87,1.87,0,0,0,.76-.3,1,1,0,0,0,.42-.66.49.49,0,0,0-.19-.48.14.14,0,0,1,0,.11Z"/><path class="cls-7" d="M181.18,123.83a.75.75,0,0,1-.15.47,2,2,0,0,1-.35.37,3.17,3.17,0,0,1-.49.4,1.82,1.82,0,0,0,.75-.3,1,1,0,0,0,.43-.66.49.49,0,0,0-.2-.48.2.2,0,0,1,0,.11Z"/><path class="cls-7" d="M175.33,123.83a.69.69,0,0,0,.14.47,2,2,0,0,0,.35.37,2.83,2.83,0,0,0,.5.4,1.87,1.87,0,0,1-.76-.3,1,1,0,0,1-.42-.66.47.47,0,0,1,.19-.48.2.2,0,0,0,0,.11Z"/><path class="cls-7" d="M173.81,123.83a.74.74,0,0,0,.14.47,3.06,3.06,0,0,0,.35.37,3.81,3.81,0,0,0,.5.4,1.87,1.87,0,0,1-.76-.3,1,1,0,0,1-.42-.66.49.49,0,0,1,.19-.48.14.14,0,0,0,0,.11Z"/><path class="cls-15" d="M174.13,119.8a1.42,1.42,0,0,0-.27.63.07.07,0,0,0,.13,0,1.43,1.43,0,0,1,.26-.59.07.07,0,0,0,0-.09.07.07,0,0,0-.09,0Z"/><path class="cls-15" d="M175.15,120.05a2,2,0,0,0-.19.83c0,.09.13.09.13,0a1.84,1.84,0,0,1,.18-.76c0-.08-.08-.15-.12-.07Z"/><path class="cls-15" d="M176.52,119.79a6.39,6.39,0,0,0,0,1.8c0,.08.14,0,.13,0a5.83,5.83,0,0,1,0-1.72c0-.09-.12-.12-.13,0Z"/><path class="cls-15" d="M178,120a3.81,3.81,0,0,1,.31,1.6c0,.08.13.08.13,0a4,4,0,0,0-.32-1.67c0-.08-.15,0-.12.07Z"/><path class="cls-15" d="M179.35,119.87a3.13,3.13,0,0,1,.2,1.63c0,.08.11.12.12,0a3.12,3.12,0,0,0-.21-1.73c0-.08-.15,0-.11.07Z"/><path class="cls-15" d="M180.55,119.8a5.62,5.62,0,0,1,.18,1.41.07.07,0,0,0,.14,0,6.56,6.56,0,0,0-.19-1.45c0-.08-.15,0-.13,0Z"/><path class="cls-15" d="M181.64,119.75a1.13,1.13,0,0,1,.16.84c0,.08.12.12.13,0a1.35,1.35,0,0,0-.17-.94c0-.07-.16,0-.12.07Z"/></svg>