<svg id="Layer_3" data-name="Layer 3" xmlns="http://www.w3.org/2000/svg" xmlns:xlink="http://www.w3.org/1999/xlink" viewBox="0 0 260 168"><defs><style>.cls-1{fill:#ea8313;}.cls-2{fill:#f7b03e;}.cls-3{fill:#893a04;}.cls-4{fill:#893d0a;}.cls-5{fill:#d8730f;}.cls-6{fill:#9e4407;}.cls-7{clip-path:url(#clip-path);}.cls-8{fill:#a05000;}.cls-9{fill:#db7712;}.cls-10{fill:#ce6c0b;}.cls-11{fill:#ff9f2c;}.cls-12,.cls-17{fill:none;stroke:#f99a10;stroke-linecap:round;stroke-linejoin:round;}.cls-12{stroke-width:0.27px;}.cls-13{fill:#f99a10;}.cls-14{fill:#f78411;}.cls-15{fill:#f4912f;}.cls-16{clip-path:url(#clip-path-2);}.cls-17{stroke-width:0.26px;}.cls-18{fill:#e51a1a;}.cls-19{fill:#561404;}.cls-20{fill:#fff;}.cls-21{fill:#ffc931;}.cls-22{fill:#d6a825;}.cls-23{clip-path:url(#clip-path-3);}.cls-24{fill:#f48d40;}.cls-25{fill:#f9cc3d;}.cls-26{fill:#fcd875;}.cls-27{fill:#fff1e1;}.cls-28{opacity:0.36;fill:url(#radial-gradient);}.cls-29{opacity:0.44;fill:url(#radial-gradient-2);}</style><clipPath id="clip-path"><path class="cls-1" d="M101.27,113.25c-1.84-.27-5,1.89-6.55.94a11.51,11.51,0,0,1-1.51-1.08,4.28,4.28,0,0,1-.54.33c-11.4-1-18,2.46-18,2.46-3.7-6.36-3.9-.41-3.9-.41-7.19-8.72-6.06-2.46-6.06-2.46-11.39-5.65-4.62,4.1-4.62,4.1-7.9-.1,3.8,8.83,3.8,8.83,2.87,10.47,16.82,10.94,16.82,10.94,4.15,7.21,9.28.33,9.28.33,6.23-1.13,13.82-4.7,13.82-4.7,5.9-3.86,6.11-10.72,4.68-16.89C105.71,116.22,104.1,113.68,101.27,113.25Z"/></clipPath><clipPath id="clip-path-2"><path class="cls-1" d="M100.9,110.59c-1.77-.27-4,.47-5.55-.44-.52-.31-1.47,4.68-1.93,4.3a5.74,5.74,0,0,1-.52.31c-11-1-17.35,2.38-17.35,2.38-3.56-6.14-3.76-.4-3.76-.4-6.94-8.42-5.85-2.37-5.85-2.37-11-5.45-4.46,4-4.46,4-7.63-.1,3.67,8.52,3.67,8.52,2.77,10.11,16.24,10.56,16.24,10.56,4,7,9,.32,9,.32a66,66,0,0,0,13.35-4.54c5.69-3.73,6.55-15.84,3.74-22.6A15,15,0,0,1,100.9,110.59Z"/></clipPath><clipPath id="clip-path-3"><path class="cls-2" d="M101.28,101.88a4.15,4.15,0,0,1,.9.94,2,2,0,0,0,2.56,1c1.7-.46,2.69-1.09,2.85-2.15,0,0-1.79-.9-6.19.14Z"/></clipPath><radialGradient id="radial-gradient" cx="161.23" cy="57.47" r="2.05" gradientUnits="userSpaceOnUse"><stop offset="0.58" stop-color="#c49a6c" stop-opacity="0"/><stop offset="0.62" stop-color="#c89a6c" stop-opacity="0.06"/><stop offset="0.7" stop-color="#d1996c" stop-opacity="0.22"/><stop offset="0.81" stop-color="#e1976c" stop-opacity="0.47"/><stop offset="0.95" stop-color="#f6956c" stop-opacity="0.81"/><stop offset="1" stop-color="#ff946c" stop-opacity="0.95"/></radialGradient><radialGradient id="radial-gradient-2" cx="160.33" cy="56.53" r="0.5" gradientUnits="userSpaceOnUse"><stop offset="0.06" stop-color="#fff" stop-opacity="0"/><stop offset="0.14" stop-color="#fff" stop-opacity="0.06"/><stop offset="0.27" stop-color="#fff" stop-opacity="0.21"/><stop offset="0.46" stop-color="#fff" stop-opacity="0.46"/><stop offset="0.59" stop-color="#fff" stop-opacity="0.65"/><stop offset="0.61" stop-color="#fff" stop-opacity="0.67"/><stop offset="0.71" stop-color="#fff" stop-opacity="0.79"/><stop offset="0.81" stop-color="#fff" stop-opacity="0.88"/><stop offset="0.91" stop-color="#fff" stop-opacity="0.93"/><stop offset="1" stop-color="#fff" stop-opacity="0.95"/></radialGradient></defs><path class="cls-3" d="M86.36,146s5.31-.6,7.36.51-7.56.4-7.56.4Z"/><path class="cls-4" d="M87.77,137.52l-2.85,8.42s-4.55.56-5.41,1.48c0,0-.51.67,1.73.46a34.75,34.75,0,0,1,7.06.16c2.25.27,4.79,1.07,5.89,1.06s-1.25-1.29-2.73-1.59l-1.36-.33s3.33.47,4.38.57-.71-1.7-6-1.84l-1.49,0s2.18-6,2.79-8.58S89.21,134.53,87.77,137.52Z"/><path class="cls-5" d="M84.78,136.71c0,.63.62,1.08,1.15,1.44l1.58,1.1a2.5,2.5,0,0,0,.66.36,1.75,1.75,0,0,0,1.43-.38,4.77,4.77,0,0,0,1.76-4.07,28.68,28.68,0,0,0-6.93.12.51.51,0,0,0-.25.1c-.12.13,0,.34,0,.5l.56,1"/><path class="cls-3" d="M83.59,146.62s5.28-.88,7.38.11-7.53.82-7.53.82Z"/><path class="cls-6" d="M84.55,138.1l-2.4,8.56s-4.51.81-5.32,1.77c0,0-.47.7,1.75.37a34.69,34.69,0,0,1,7.06-.22c2.26.15,4.84.81,5.93.74s-1.31-1.22-2.8-1.44l-1.38-.26s3.35.29,4.4.33-.8-1.66-6.11-1.51l-1.49.11s1.85-6.13,2.33-8.71S85.82,135,84.55,138.1Z"/><path class="cls-1" d="M101.27,113.25c-1.84-.27-5,1.89-6.55.94a11.51,11.51,0,0,1-1.51-1.08,4.28,4.28,0,0,1-.54.33c-11.4-1-18,2.46-18,2.46-3.7-6.36-3.9-.41-3.9-.41-7.19-8.72-6.06-2.46-6.06-2.46-11.39-5.65-4.62,4.1-4.62,4.1-7.9-.1,3.8,8.83,3.8,8.83,2.87,10.47,16.82,10.94,16.82,10.94,4.15,7.21,9.28.33,9.28.33,6.23-1.13,13.82-4.7,13.82-4.7,5.9-3.86,6.11-10.72,4.68-16.89C105.71,116.22,104.1,113.68,101.27,113.25Z"/><g class="cls-7"><path class="cls-8" d="M55.51,129.22a14,14,0,0,0,6.92-1.58.7.7,0,0,1,0-1.31,19.08,19.08,0,0,1-2.77-6.15,2.26,2.26,0,0,1-.06-1.18,1.57,1.57,0,0,1,1.5-1,4.59,4.59,0,0,1,1.84.46c-.44-.74-.86-1.49-1.25-2.25a3.85,3.85,0,0,1-.55-1.63,1.47,1.47,0,0,1,.78-1.42,2,2,0,0,1,1.71.32,12.09,12.09,0,0,1,2.7,2.08c-.09-.57-.45-1.06-.55-1.63s.23-1.3.8-1.24a1.26,1.26,0,0,1,.7.44l4.59,4.6a9.14,9.14,0,0,1-.13-2,2.07,2.07,0,0,1,.94-1.63,1.2,1.2,0,0,1,1.66.49,43.82,43.82,0,0,0-3.6-5.17,8,8,0,0,0-1.59-1.6c-1.57-1.09-3.63-1.05-5.53-1-2.41.09-4.93.22-7,1.45a9.13,9.13,0,0,0-4,5.86,17.74,17.74,0,0,0,0,7.22c.46,2.52,1.18,5.19.2,7.55a2.37,2.37,0,0,0,1.34.17l-1.2.43"/><path class="cls-9" d="M89.26,110.5c-.51.67-1.5.91-1.86,1.67a1.78,1.78,0,0,0,.93,2.16,5.14,5.14,0,0,0,2.53.4.81.81,0,0,0,.18,1.1,2,2,0,0,0,1.16.37,7.35,7.35,0,0,0,2.19-.18c.12,1,1.38,1.29,2.35,1.22a10,10,0,0,0,2.54-.5,1.31,1.31,0,0,0,1,.91,3.88,3.88,0,0,0,1.44,0l3.25-.47a1.29,1.29,0,0,0,1.79.52.86.86,0,0,0,.62.51c0-.39.56-.49.92-.33s.69.45,1.07.4c.55-.07.76-.73.83-1.27a14.83,14.83,0,0,0-.5-7,8.16,8.16,0,0,0-4.7-5,11.88,11.88,0,0,0-3.8-.53,40.9,40.9,0,0,0-5.86.2c-1.88.23-4,.81-4.86,2.47-.58,1.06-.56,2.36-1.14,3.42"/></g><ellipse class="cls-10" cx="80.58" cy="116.33" rx="1.73" ry="0.5"/><ellipse class="cls-10" cx="77.48" cy="117.25" rx="1.36" ry="0.39"/><path class="cls-11" d="M100.75,128.89a1.4,1.4,0,0,1-.6.78,4.73,4.73,0,0,1-.93.46,6.65,6.65,0,0,1-1.24.4,3.72,3.72,0,0,0,1.66,0,2.08,2.08,0,0,0,1.27-.94,1,1,0,0,0,0-1,.4.4,0,0,1-.09.2Z"/><path class="cls-11" d="M67.61,129.93a1.48,1.48,0,0,0,.61.79,5,5,0,0,0,.93.46,5.87,5.87,0,0,0,1.23.39,3.67,3.67,0,0,1-1.65,0,2.05,2.05,0,0,1-1.28-1,1,1,0,0,1,0-1,.25.25,0,0,0,.09.2Z"/><path class="cls-11" d="M71.29,133.16a1.39,1.39,0,0,0,.82.55,4.4,4.4,0,0,0,1,.13,6.28,6.28,0,0,0,1.3,0,3.72,3.72,0,0,1-1.58.51,2.07,2.07,0,0,1-1.51-.48,1,1,0,0,1-.31-1,.33.33,0,0,0,.15.16Z"/><path class="cls-11" d="M89.16,117.1a1.47,1.47,0,0,1-.81.58,5.06,5.06,0,0,1-1,.17,7.06,7.06,0,0,1-1.3,0,3.63,3.63,0,0,0,1.59.45,2.05,2.05,0,0,0,1.5-.53,1,1,0,0,0,.28-1,.38.38,0,0,1-.15.16Z"/><path class="cls-11" d="M92.89,117.1a1.49,1.49,0,0,1-.53.84,5,5,0,0,1-.89.54,7,7,0,0,1-1.19.51,3.8,3.8,0,0,0,1.64-.18,2.08,2.08,0,0,0,1.19-1.06,1,1,0,0,0-.12-1,.4.4,0,0,1-.07.21Z"/><path class="cls-11" d="M103.52,129.06a1.47,1.47,0,0,1-.45.89,4.58,4.58,0,0,1-.82.63,7,7,0,0,1-1.14.62,3.57,3.57,0,0,0,1.62-.34,2,2,0,0,0,1.07-1.17.93.93,0,0,0-.22-1,.33.33,0,0,1,0,.21Z"/><path class="cls-11" d="M106.21,128.1a1.41,1.41,0,0,1-.29,1,4.19,4.19,0,0,1-.71.75,5.28,5.28,0,0,1-1,.81,3.7,3.7,0,0,0,1.54-.61,2.05,2.05,0,0,0,.86-1.34,1,1,0,0,0-.39-1,.34.34,0,0,1,0,.22Z"/><path class="cls-11" d="M76.36,115.42s7-2.22,10.76-1.65Z"/><path class="cls-12" d="M100,120.9a2.23,2.23,0,0,1-2,1.37"/><path class="cls-13" d="M102.83,120.84a2.24,2.24,0,0,1-.73,1.62.15.15,0,0,0,0,.19.15.15,0,0,0,.2,0,2.48,2.48,0,0,0,.79-1.88.15.15,0,0,0-.17-.1.15.15,0,0,0-.09.17Z"/><path class="cls-13" d="M105.89,121.24l0,0,0,0,0,.09v0a.27.27,0,0,1,0,.09v0a.64.64,0,0,0,0,.07.17.17,0,0,0,0,.1.16.16,0,0,0,.08.06.14.14,0,0,0,.11,0,.16.16,0,0,0,.06-.08.43.43,0,0,0,0-.11.11.11,0,0,0,0-.08.38.38,0,0,0-.07-.21A.1.1,0,0,0,106,121a.12.12,0,0,0-.1,0s-.06,0-.06.08a.14.14,0,0,0,0,.11Z"/><path class="cls-13" d="M62,121a11.83,11.83,0,0,0,3,2.27c.15.09.28-.15.13-.24a11.46,11.46,0,0,1-2.91-2.22c-.12-.13-.31.06-.2.19Z"/><path class="cls-13" d="M63.51,120.85l.51.36a.12.12,0,0,0,.18,0,.14.14,0,0,0,0-.19l-.52-.37a.13.13,0,0,0-.18,0,.15.15,0,0,0,0,.19Z"/><path class="cls-13" d="M62.34,115a11,11,0,0,0,6.09,4.51.13.13,0,0,0,.07-.26,10.8,10.8,0,0,1-5.93-4.38c-.1-.15-.33,0-.23.13Z"/><path class="cls-13" d="M65.37,116.32a5.52,5.52,0,0,0,.77.48.14.14,0,0,0,.18,0,.13.13,0,0,0,0-.19,7.39,7.39,0,0,1-.76-.47.13.13,0,0,0-.19,0,.13.13,0,0,0,.05.18Z"/><path class="cls-13" d="M68.41,115.24l.47.4a.13.13,0,0,0,.1,0,.14.14,0,0,0,.1,0,.15.15,0,0,0,0-.19l-.48-.4a.18.18,0,0,0-.09,0,.12.12,0,0,0-.1,0,.13.13,0,0,0,0,.19Z"/><path class="cls-13" d="M73.15,115.12a5.72,5.72,0,0,0,.86,1.1c.12.12.31-.07.19-.19a5.94,5.94,0,0,1-.82-1,.13.13,0,0,0-.23.14Z"/><path class="cls-13" d="M65.92,124.46a3.45,3.45,0,0,0,.39,1.2c.08.15.32,0,.23-.14a2.87,2.87,0,0,1-.34-1.06.14.14,0,1,0-.28,0Z"/><path class="cls-13" d="M65.63,125.28l0,0a.18.18,0,0,0,.1,0,.15.15,0,0,0,.09,0,.13.13,0,0,0,0-.1.11.11,0,0,0,0-.09l0,0a.18.18,0,0,0-.1,0,.21.21,0,0,0-.1,0,.18.18,0,0,0,0,.1.25.25,0,0,0,0,.09Z"/><path class="cls-13" d="M86.29,115l1.13-.2a.14.14,0,0,0,.09-.17.14.14,0,0,0-.17-.1l-1.12.21a.13.13,0,0,0-.1.16.15.15,0,0,0,.17.1Z"/><path class="cls-13" d="M87.15,115.31l0,0a.18.18,0,0,0,0-.1.15.15,0,0,0,0-.09.1.1,0,0,0-.1,0,.1.1,0,0,0-.09,0l0,0a.13.13,0,0,0,0,.1.11.11,0,0,0,0,.09.09.09,0,0,0,.09,0,.13.13,0,0,0,.1,0Z"/><path class="cls-14" d="M93.19,105.72a28.09,28.09,0,0,1-2.67,5.75c-.09.15.15.29.24.14a28.9,28.9,0,0,0,2.69-5.81c.06-.17-.21-.24-.26-.08Z"/><path class="cls-14" d="M93.45,107.26l-.59,1.49a.14.14,0,0,0,.09.17.15.15,0,0,0,.17-.1l.59-1.48a.14.14,0,0,0-.09-.17.15.15,0,0,0-.17.09Z"/><path class="cls-14" d="M94.14,111.2a7.25,7.25,0,0,1-1,1.83.13.13,0,0,0,0,.18.15.15,0,0,0,.19,0,7.51,7.51,0,0,0,1-1.89c.06-.16-.2-.24-.26-.07Z"/><path class="cls-14" d="M101.19,111a13.63,13.63,0,0,1-.36,2,.13.13,0,0,0,.26.07,14.34,14.34,0,0,0,.37-2.06c0-.17-.25-.17-.27,0Z"/><path class="cls-15" d="M95.6,124.53c1.28,7.44-6.18,10.1-15.4,7.06s-4.55-6.34-4.55-6.34c-7.23-5.22-2.56-6.39-2.56-6.39-7.39-8.32-1.06-6.63-1.06-6.63-7.1-8.32-1.44-8.28,11.89-.4,11.86,7,11.6,11.45,11.6,11.45Z"/><path class="cls-1" d="M94.81,120.55c-.8.42-1.71,1-1.73,1.93a2.49,2.49,0,0,0,1.14,1.8,2,2,0,0,0-.94,2,2,2,0,0,0,1.51,1.58c-.57.2-.82.86-1,1.44a.89.89,0,0,0,0,.68.79.79,0,0,0,.84.22,3,3,0,0,0,2.07-1.57,4.7,4.7,0,0,0,.43-1.47,14.5,14.5,0,0,0,.2-2.79,6.33,6.33,0,0,0-.37-2.25,3.08,3.08,0,0,0-1.49-1.68l-.09.4"/><path class="cls-3" d="M86.8,146.18s5.14-.58,7.11.49-7.3.39-7.3.39Z"/><path class="cls-4" d="M88.17,138l-2.76,8.13s-4.39.55-5.21,1.43c0,0-.5.65,1.66.45a33.11,33.11,0,0,1,6.82.15c2.17.26,4.63,1,5.68,1s-1.2-1.24-2.62-1.53l-1.32-.32s3.21.46,4.22.55-.68-1.65-5.81-1.78l-1.45,0s2.11-5.81,2.7-8.28S89.56,135.12,88.17,138Z"/><path class="cls-5" d="M85.28,137.23c0,.61.6,1,1.11,1.39l1.53,1.06a2.22,2.22,0,0,0,.64.35,1.66,1.66,0,0,0,1.37-.37,4.62,4.62,0,0,0,1.71-3.93,27.79,27.79,0,0,0-6.7.12.4.4,0,0,0-.24.1c-.12.13,0,.33,0,.48l.54,1"/><path class="cls-3" d="M84.13,146.8s5.1-.85,7.13.11-7.27.78-7.27.78Z"/><path class="cls-6" d="M85.06,138.57l-2.32,8.27s-4.36.78-5.13,1.71c0,0-.46.67,1.69.35a33.65,33.65,0,0,1,6.81-.21c2.18.14,4.68.78,5.73.71s-1.26-1.17-2.7-1.39l-1.34-.25s3.23.29,4.25.32-.77-1.6-5.9-1.46l-1.44.11s1.79-5.91,2.25-8.41S86.29,135.61,85.06,138.57Z"/><path class="cls-1" d="M100.9,110.59c-1.77-.27-4,.47-5.55-.44-.52-.31-1.47,4.68-1.93,4.3a5.74,5.74,0,0,1-.52.31c-11-1-17.35,2.38-17.35,2.38-3.56-6.14-3.76-.4-3.76-.4-6.94-8.42-5.85-2.37-5.85-2.37-11-5.45-4.46,4-4.46,4-7.63-.1,3.67,8.52,3.67,8.52,2.77,10.11,16.24,10.56,16.24,10.56,4,7,9,.32,9,.32a66,66,0,0,0,13.35-4.54c5.69-3.73,6.55-15.84,3.74-22.6A15,15,0,0,1,100.9,110.59Z"/><g class="cls-16"><path class="cls-8" d="M57,130a13.71,13.71,0,0,0,6.68-1.52.68.68,0,0,1,0-1.27A18.51,18.51,0,0,1,61,121.27a2.21,2.21,0,0,1-.06-1.14,1.56,1.56,0,0,1,1.45-.94,4.46,4.46,0,0,1,1.78.45c-.43-.71-.84-1.44-1.22-2.18a3.84,3.84,0,0,1-.52-1.57,1.38,1.38,0,0,1,.75-1.37,1.92,1.92,0,0,1,1.65.31,11.58,11.58,0,0,1,2.61,2c-.09-.55-.43-1-.54-1.57s.23-1.26.78-1.2a1.18,1.18,0,0,1,.68.42l4.43,4.45a8,8,0,0,1-.13-1.89,2,2,0,0,1,.91-1.58,1.16,1.16,0,0,1,1.6.48,44,44,0,0,0-3.47-5,7.75,7.75,0,0,0-1.54-1.54c-1.51-1-3.5-1-5.34-1-2.32.1-4.76.22-6.76,1.41a8.85,8.85,0,0,0-3.85,5.65,17.1,17.1,0,0,0,0,7c.44,2.43,1.14,5,.19,7.29a2.31,2.31,0,0,0,1.3.16l-1.17.42"/><path class="cls-9" d="M89.25,112.2c-.2.78-1,1.36-1,2.17A1.71,1.71,0,0,0,89.84,116a4.89,4.89,0,0,0,2.4-.58.79.79,0,0,0,.57.92,1.92,1.92,0,0,0,1.18-.1,7.45,7.45,0,0,0,1.88-1c.47.82,1.7.64,2.55.22a9.68,9.68,0,0,0,2.08-1.39,1.24,1.24,0,0,0,1.25.44,3.77,3.77,0,0,0,1.27-.55l2.72-1.63a1.27,1.27,0,0,0,1.8-.19.81.81,0,0,0,.73.22c-.14-.35.32-.65.7-.64s.78.15,1.11,0,.4-.94.26-1.45a14.28,14.28,0,0,0-3-6.07,7.93,7.93,0,0,0-6-2.73,11.91,11.91,0,0,0-3.59.94,39.16,39.16,0,0,0-5.15,2.35c-1.59.89-3.22,2.18-3.42,4-.12,1.15.38,2.31.25,3.46"/></g><ellipse class="cls-10" cx="81.22" cy="117.56" rx="1.67" ry="0.48"/><ellipse class="cls-10" cx="78.24" cy="118.44" rx="1.32" ry="0.38"/><path class="cls-11" d="M100.7,129.68a1.4,1.4,0,0,1-.58.76,5,5,0,0,1-.9.44,6.34,6.34,0,0,1-1.19.38,3.6,3.6,0,0,0,1.6,0,2,2,0,0,0,1.23-.92.93.93,0,0,0,0-1,.27.27,0,0,1-.08.19Z"/><path class="cls-11" d="M68.7,130.69a1.47,1.47,0,0,0,.59.76,5.36,5.36,0,0,0,.9.44,6.34,6.34,0,0,0,1.19.38,3.6,3.6,0,0,1-1.6,0,2,2,0,0,1-1.23-.92.93.93,0,0,1,0-1,.34.34,0,0,0,.09.19Z"/><path class="cls-11" d="M72.25,133.81a1.5,1.5,0,0,0,.8.53,4.7,4.7,0,0,0,1,.12,5.8,5.8,0,0,0,1.25,0,3.54,3.54,0,0,1-1.51.49,2,2,0,0,1-1.47-.46.94.94,0,0,1-.3-1,.33.33,0,0,0,.15.16Z"/><path class="cls-11" d="M89.51,118.3a1.39,1.39,0,0,1-.78.55,4.11,4.11,0,0,1-1,.17,6.51,6.51,0,0,1-1.25,0,3.5,3.5,0,0,0,1.54.44,2,2,0,0,0,1.44-.52.94.94,0,0,0,.27-1,.32.32,0,0,1-.14.16Z"/><path class="cls-11" d="M93.11,118.3a1.39,1.39,0,0,1-.51.8,4.73,4.73,0,0,1-.86.53,6.12,6.12,0,0,1-1.15.49,3.72,3.72,0,0,0,1.59-.17,2,2,0,0,0,1.14-1,.91.91,0,0,0-.11-1,.37.37,0,0,1-.07.2Z"/><path class="cls-11" d="M103.37,129.85a1.32,1.32,0,0,1-.43.85,4.27,4.27,0,0,1-.79.61,6.51,6.51,0,0,1-1.1.6,3.47,3.47,0,0,0,1.56-.33,2,2,0,0,0,1-1.13.94.94,0,0,0-.21-1,.38.38,0,0,1,0,.21Z"/><path class="cls-11" d="M106,128.91a1.36,1.36,0,0,1-.28.92,4.24,4.24,0,0,1-.68.73,6,6,0,0,1-1,.78,3.47,3.47,0,0,0,1.48-.59,2,2,0,0,0,.83-1.29.94.94,0,0,0-.38-.93.37.37,0,0,1,0,.21Z"/><path class="cls-11" d="M77.16,116.68s6.79-2.15,10.38-1.6Z"/><path class="cls-17" d="M100,122a2.15,2.15,0,0,1-1.89,1.32"/><path class="cls-13" d="M102.71,121.91a2.16,2.16,0,0,1-.7,1.56.13.13,0,0,0,0,.18.12.12,0,0,0,.18,0,2.4,2.4,0,0,0,.77-1.81.13.13,0,0,0-.25.07Z"/><path class="cls-13" d="M105.66,122.29l0,0,0,0a.32.32,0,0,1,0,.09v0a.14.14,0,0,1,0,.09v0s0,0,0,.06a.16.16,0,0,0,0,.1s0,.06.08.06a.11.11,0,0,0,.1,0,.12.12,0,0,0,.06-.08.38.38,0,0,0,0-.1v-.08a.48.48,0,0,0-.07-.2.16.16,0,0,0-.08-.06.12.12,0,0,0-.1,0,.16.16,0,0,0-.06.08.12.12,0,0,0,0,.1Z"/><path class="cls-13" d="M63.25,122.09a11.35,11.35,0,0,0,2.87,2.18c.15.09.28-.14.14-.23a10.78,10.78,0,0,1-2.82-2.14c-.11-.13-.3.06-.19.19Z"/><path class="cls-13" d="M64.74,121.92l.5.35a.14.14,0,0,0,.18,0,.14.14,0,0,0,0-.18l-.5-.35a.12.12,0,0,0-.17,0,.13.13,0,0,0,0,.18Z"/><path class="cls-13" d="M63.61,116.28a10.73,10.73,0,0,0,5.88,4.36.13.13,0,0,0,.07-.26,10.39,10.39,0,0,1-5.72-4.23c-.1-.14-.32,0-.23.13Z"/><path class="cls-13" d="M66.54,117.54a4.35,4.35,0,0,0,.74.46.14.14,0,0,0,.18,0,.13.13,0,0,0,0-.18,7,7,0,0,1-.74-.46.13.13,0,0,0-.18.05.13.13,0,0,0,.05.17Z"/><path class="cls-13" d="M69.48,116.5l.45.39a.18.18,0,0,0,.1,0,.15.15,0,0,0,.09,0,.15.15,0,0,0,0-.19l-.46-.38a.12.12,0,0,0-.09,0,.11.11,0,0,0-.09,0,.12.12,0,0,0,0,.18Z"/><path class="cls-13" d="M74.05,116.38a5.69,5.69,0,0,0,.83,1.07c.12.12.3-.07.18-.19a5.45,5.45,0,0,1-.78-1c-.09-.14-.32,0-.23.13Z"/><path class="cls-13" d="M67.08,125.4a3.16,3.16,0,0,0,.37,1.16c.08.15.3,0,.22-.13a2.89,2.89,0,0,1-.33-1,.14.14,0,0,0-.13-.13.13.13,0,0,0-.13.13Z"/><path class="cls-13" d="M66.8,126.2l0,0a.11.11,0,0,0,.09,0,.13.13,0,0,0,.1,0,.1.1,0,0,0,0-.09.12.12,0,0,0,0-.09l0,0a.12.12,0,0,0-.18,0,.12.12,0,0,0,0,.09.13.13,0,0,0,0,.1Z"/><path class="cls-13" d="M86.74,116.3l1.09-.2a.13.13,0,0,0,.09-.16.14.14,0,0,0-.16-.09l-1.09.19a.13.13,0,0,0-.09.16.13.13,0,0,0,.16.1Z"/><path class="cls-13" d="M87.57,116.57l0,0a.13.13,0,0,0,0-.1.11.11,0,0,0,0-.09.13.13,0,0,0-.09,0,.25.25,0,0,0-.09,0l0,0a.15.15,0,0,0,0,.18.13.13,0,0,0,.1,0,.12.12,0,0,0,.09,0Z"/><path class="cls-18" d="M100.38,93.86a6.47,6.47,0,0,0-3.74-3.81c-3.16-1.48-2.67.9-2.29,1.28,0,0-5.32-.35-3.54,2.24,0,0-4.28,2-.42,3.15l3-.44Z"/><path class="cls-11" d="M88.94,114.07s1.64-3.43.46-12.17,8.33-13.14,14-5.06,5.37,13.56,5.37,13.56-.09,1.56-3.2,1.27c0,0-4.87,4-5.14.92,0,0-4.51,4.33-5.24,1.49,0,0-3.18,2.3-2.74.63C92.42,114.71,86.93,117.33,88.94,114.07Z"/><path class="cls-18" d="M101.77,95s-2.93-1.9-5.33.47.47,7.37,3.75,6.55c0,0-2.26.3-1.62,3.1s5.52,1.35,7.72-2.46a1,1,0,0,0,.07-.85A19.23,19.23,0,0,0,101.77,95Z"/><path class="cls-19" d="M98.16,96.86a1.17,1.17,0,0,1-1.18.4,1.26,1.26,0,0,0,1.17.16Z"/><path class="cls-19" d="M98.13,97.33a.83.83,0,0,1-.83.28.88.88,0,0,0,.82.11Z"/><ellipse class="cls-20" cx="99.92" cy="97.97" rx="1.94" ry="2.49" transform="translate(-29.05 43.67) rotate(-21.6)"/><path d="M101.07,96.33a.6.6,0,0,1-1.14.11.63.63,0,0,1,0-.43,2.37,2.37,0,0,0-.36.09,1.52,1.52,0,1,0,1.5.23Z"/><path class="cls-19" d="M100.9,96.08a2.3,2.3,0,0,0-1.82-.24A2.44,2.44,0,0,0,97.93,98,2.09,2.09,0,0,1,99,95.65,2,2,0,0,1,100.9,96.08Z"/><path class="cls-18" d="M104.29,103.74a4.36,4.36,0,0,0,.72,4.42c1.77,2.28,8.07.15,1.37-6.2C106.38,102,104.24,101.73,104.29,103.74Z"/><ellipse class="cls-21" cx="96.8" cy="93.42" rx="0.52" ry="0.16" transform="translate(-13.86 16.93) rotate(-9.33)"/><ellipse class="cls-21" cx="96" cy="93.21" rx="0.22" ry="0.1" transform="translate(-27.57 41.89) rotate(-21.6)"/><path class="cls-22" d="M107.49,99a10.53,10.53,0,0,0-1.89,2c-.82,1.19-3.34,1.53-3.72.3S107.49,99,107.49,99Z"/><path class="cls-2" d="M101.28,101.88a4.15,4.15,0,0,1,.9.94,2,2,0,0,0,2.56,1c1.7-.46,2.69-1.09,2.85-2.15,0,0-1.79-.9-6.19.14Z"/><g class="cls-23"><path class="cls-24" d="M100.87,101.71s.88.77,4.48.29,3.15-.71,3.08-.76-5.35-.45-5.35-.45Z"/></g><path class="cls-25" d="M101.28,101.88a1.63,1.63,0,0,0,.36-1.1c0-.72-.12-3.23,1.36-3.92s3.79,1,4.48,2.13a2.65,2.65,0,0,1-1,.31,9.24,9.24,0,0,0-2.51,1.43A6.24,6.24,0,0,1,101.28,101.88Z"/><ellipse class="cls-26" cx="103.7" cy="97.17" rx="0.4" ry="0.17" transform="translate(-7.82 9.08) rotate(-4.83)"/><path class="cls-14" d="M92.23,106.19a27.61,27.61,0,0,1-1.43,6c-.06.16.19.23.25.07a28.25,28.25,0,0,0,1.44-6c0-.16-.24-.16-.26,0Z"/><path class="cls-14" d="M92.77,107.57l-.27,1.52a.13.13,0,0,0,.09.16c.06,0,.15,0,.16-.09l.27-1.52a.12.12,0,0,0-.09-.16.13.13,0,0,0-.16.09Z"/><path class="cls-14" d="M94.18,111.16a7.26,7.26,0,0,1-.6,1.92c-.07.15.16.29.23.13a7.24,7.24,0,0,0,.62-2c0-.17-.23-.24-.25-.07Z"/><path class="cls-14" d="M100.8,109.6a13.07,13.07,0,0,1,0,2c0,.17.25.17.26,0a13.07,13.07,0,0,0,0-2c0-.17-.28-.17-.26,0Z"/><path class="cls-15" d="M95.73,125.47c1.24,7.18-6,9.76-14.87,6.82s-4.39-6.12-4.39-6.12c-7-5-2.48-6.18-2.48-6.18-7.13-8-1-6.4-1-6.4-6.85-8-1.39-8,11.48-.38,11.45,6.77,11.2,11.06,11.2,11.06Z"/><path class="cls-1" d="M95,121.62c-.78.42-1.66,1-1.68,1.87a2.42,2.42,0,0,0,1.11,1.74,1.86,1.86,0,0,0,.55,3.43c-.56.19-.8.82-1,1.38a.89.89,0,0,0,0,.66.75.75,0,0,0,.81.22,3,3,0,0,0,2-1.52,4.66,4.66,0,0,0,.42-1.42,14.27,14.27,0,0,0,.19-2.69,6.2,6.2,0,0,0-.36-2.18,3,3,0,0,0-1.44-1.62l-.09.39"/><circle class="cls-27" cx="161.23" cy="57.47" r="2.05"/><circle class="cls-28" cx="161.23" cy="57.47" r="2.05"/><circle class="cls-29" cx="160.33" cy="56.53" r="0.5"/></svg>