<svg id="Layer_1" data-name="Layer 1" xmlns="http://www.w3.org/2000/svg" xmlns:xlink="http://www.w3.org/1999/xlink" viewBox="0 0 260 168"><defs><style>.cls-1{fill:#ea8313;}.cls-2{fill:#fff;}.cls-3{fill:#f9cc3d;}.cls-4{fill:#893a04;}.cls-5{fill:#893d0a;}.cls-6{fill:#d8730f;}.cls-7{fill:#9e4407;}.cls-8{clip-path:url(#clip-path);}.cls-9{fill:#a05000;}.cls-10{fill:#db7712;}.cls-11{fill:#ce6c0b;}.cls-12{fill:#e51a1a;}.cls-13{fill:#ff9f2c;}.cls-14{fill:#561404;}.cls-15{clip-path:url(#clip-path-2);}.cls-16{clip-path:url(#clip-path-3);}.cls-17{fill:#f7b03e;}.cls-18{fill:#fcd875;}.cls-19{fill:#ffc931;}.cls-20{fill:none;stroke:#f99a10;stroke-linecap:round;stroke-linejoin:round;stroke-width:0.32px;}.cls-21{fill:#f99a10;}.cls-22{fill:#f78411;}.cls-23{fill:#f4912f;}</style><clipPath id="clip-path"><path class="cls-1" d="M160,33.82c-2.17-.33-5.87,2.24-7.76,1.11a12.74,12.74,0,0,1-1.8-1.28,5.26,5.26,0,0,1-.64.39C136.29,32.82,128.5,37,128.5,37c-4.39-7.55-4.63-.49-4.63-.49-8.52-10.34-7.18-2.92-7.18-2.92-13.52-6.69-5.48,4.87-5.48,4.87-9.37-.12,4.5,10.47,4.5,10.47,3.41,12.42,20,13,20,13,4.92,8.55,11,.39,11,.39,7.39-1.34,16.4-5.57,16.4-5.57,7-4.58,7.24-12.71,5.55-20C165.27,37.33,163.36,34.33,160,33.82Z"/></clipPath><clipPath id="clip-path-2"><ellipse class="cls-2" cx="173.83" cy="31.12" rx="3.06" ry="2.38" transform="translate(59.7 165.87) rotate(-59.89)"/></clipPath><clipPath id="clip-path-3"><path class="cls-3" d="M173,39.81a2.83,2.83,0,0,1-1.63-2.3,2.92,2.92,0,0,0-.22-2s1.1,0,1.4-.32c0,0,3-2.21,5-1.06,0,0,2.26,2.2.62,6.06a1.12,1.12,0,0,0-.43-.25S176.05,41.31,173,39.81Z"/></clipPath></defs><path class="cls-4" d="M142.31,72.63s6.31-.71,8.74.61-9,.48-9,.48Z"/><path class="cls-5" d="M144,62.6l-3.39,10s-5.4.67-6.41,1.75c0,0-.61.8,2,.55a41.21,41.21,0,0,1,8.38.19c2.66.32,5.68,1.27,7,1.26s-1.47-1.53-3.23-1.89l-1.62-.39s3.95.56,5.2.67-.85-2-7.15-2.18l-1.77,0s2.59-7.13,3.31-10.16S145.7,59.05,144,62.6Z"/><path class="cls-6" d="M140.44,61.64c.07.75.75,1.28,1.36,1.71l1.88,1.3a2.77,2.77,0,0,0,.79.43,2.07,2.07,0,0,0,1.69-.45,5.68,5.68,0,0,0,2.09-4.83,34.84,34.84,0,0,0-8.23.14.51.51,0,0,0-.29.13c-.14.15,0,.4.05.59l.67,1.21"/><path class="cls-4" d="M139,73.4s6.26-1.05,8.76.13-8.93,1-8.93,1Z"/><path class="cls-7" d="M140.17,63.29l-2.85,10.15s-5.35,1-6.3,2.1c0,0-.56.84,2.07.44a41.14,41.14,0,0,1,8.38-.26c2.67.17,5.74,1,7,.87s-1.55-1.44-3.32-1.7l-1.64-.31s4,.35,5.22.39-.95-2-7.25-1.79l-1.77.13S141.94,66,142.5,63,141.68,59.65,140.17,63.29Z"/><path class="cls-1" d="M160,33.82c-2.17-.33-5.87,2.24-7.76,1.11a12.74,12.74,0,0,1-1.8-1.28,5.26,5.26,0,0,1-.64.39C136.29,32.82,128.5,37,128.5,37c-4.39-7.55-4.63-.49-4.63-.49-8.52-10.34-7.18-2.92-7.18-2.92-13.52-6.69-5.48,4.87-5.48,4.87-9.37-.12,4.5,10.47,4.5,10.47,3.41,12.42,20,13,20,13,4.92,8.55,11,.39,11,.39,7.39-1.34,16.4-5.57,16.4-5.57,7-4.58,7.24-12.71,5.55-20C165.27,37.33,163.36,34.33,160,33.82Z"/><g class="cls-8"><path class="cls-9" d="M105.72,52.75a16.58,16.58,0,0,0,8.21-1.86.84.84,0,0,1,0-1.56A22.54,22.54,0,0,1,110.66,42a2.67,2.67,0,0,1-.07-1.4,1.89,1.89,0,0,1,1.78-1.16,5.45,5.45,0,0,1,2.19.55q-.8-1.31-1.5-2.67a4.69,4.69,0,0,1-.64-1.93,1.73,1.73,0,0,1,.92-1.69,2.38,2.38,0,0,1,2,.38,14.25,14.25,0,0,1,3.2,2.47c-.1-.67-.53-1.26-.65-1.93s.27-1.54,1-1.47a1.43,1.43,0,0,1,.83.52l5.45,5.46a10.66,10.66,0,0,1-.16-2.32,2.44,2.44,0,0,1,1.12-1.93,1.4,1.4,0,0,1,2,.58,51.67,51.67,0,0,0-4.27-6.13,9.45,9.45,0,0,0-1.89-1.9c-1.85-1.29-4.29-1.25-6.55-1.16-2.86.12-5.85.27-8.31,1.73A10.86,10.86,0,0,0,102.32,35a21.2,21.2,0,0,0,.06,8.58c.54,3,1.4,6.15.24,8.95a2.71,2.71,0,0,0,1.59.19l-1.43.52"/><path class="cls-10" d="M151,32.12c-.87.49-2.06.28-2.81.94a2.1,2.1,0,0,0,0,2.78,6.18,6.18,0,0,0,2.57,1.63,1,1,0,0,0-.32,1.29,2.31,2.31,0,0,0,1.09,1,9,9,0,0,0,2.46.83c-.32,1.12.9,2.05,2,2.44a11.9,11.9,0,0,0,3,.65,1.55,1.55,0,0,0,.67,1.48,4.65,4.65,0,0,0,1.58.64l3.76,1a1.55,1.55,0,0,0,1.71,1.43,1,1,0,0,0,.43.83c.18-.42.85-.27,1.16.07s.53.82,1,.95c.63.18,1.17-.44,1.51-1a17.5,17.5,0,0,0,2.75-7.86,9.66,9.66,0,0,0-2.75-7.67,14.44,14.44,0,0,0-3.89-2.37,49.9,49.9,0,0,0-6.47-2.54c-2.15-.63-4.69-1-6.46.4-1.12.88-1.71,2.31-2.84,3.18"/></g><ellipse class="cls-11" cx="135.46" cy="37.47" rx="2.05" ry="0.59"/><ellipse class="cls-11" cx="131.79" cy="38.56" rx="1.62" ry="0.47"/><path class="cls-12" d="M178.14,28.43s1.82-2.34.84-6.5-2.91-1.89-3-1.24c0,0-3.71-5.4-4.85-1.71,0,0-5.18-2.61-3.36,2l2.69,2.52Z"/><path class="cls-13" d="M150,32.79s4.55-1,12.08-8.83,19-2,15.51,9.62-9,15.5-9,15.5S167,50.18,164.9,47c0,0-7.55-1.67-4.81-4.25,0,0-7.59-1.06-5.41-3.92,0,0-4.64-1.31-2.7-2.16C152,36.63,145.27,33.33,150,32.79Z"/><path class="cls-12" d="M178.13,30.61s-.38-4.27-4.5-4.78-6.75,6.06-3.46,8.59c0,0-2-1.94-4.22.8s2.89,6.35,8.24,5.58a1.26,1.26,0,0,0,.87-.58A23.64,23.64,0,0,0,178.13,30.61Z"/><path class="cls-14" d="M173.56,28.58a1.47,1.47,0,0,1-1.29-.83A1.58,1.58,0,0,0,173,29Z"/><path class="cls-14" d="M173.09,28.9a1,1,0,0,1-.91-.58,1.12,1.12,0,0,0,.52.88Z"/><ellipse class="cls-2" cx="173.83" cy="31.12" rx="3.06" ry="2.38" transform="translate(59.7 165.87) rotate(-59.89)"/><g class="cls-15"><path d="M175.41,32.79a.72.72,0,0,1-1-1,.7.7,0,0,1,.4-.32,1.45,1.45,0,0,0-.36-.28,1.85,1.85,0,1,0,.68,2.53A1.89,1.89,0,0,0,175.41,32.79Z"/></g><path class="cls-14" d="M176.4,30.47s-.07-1.49-1-2-2.12.05-3,.61c0,0,1.43-1.78,3.14-.84C176.7,28.88,176.4,30.47,176.4,30.47Z"/><path class="cls-12" d="M171.59,39.72a5.35,5.35,0,0,0-3.71,4.07c-.85,3.43,6,7.89,7-3.41C174.89,40.38,173.49,38.14,171.59,39.72Z"/><path class="cls-3" d="M173,39.81a2.83,2.83,0,0,1-1.63-2.3,2.92,2.92,0,0,0-.22-2s1.1,0,1.4-.32c0,0,3-2.21,5-1.06,0,0,2.26,2.2.62,6.06a1.12,1.12,0,0,0-.43-.25S176.05,41.31,173,39.81Z"/><g class="cls-16"><path class="cls-17" d="M170.24,34.74a9.94,9.94,0,0,0,4.29,3.07,7,7,0,0,1,3.75,2.89s-3.48,1.6-3.4,1.64-5.23-4-5.23-4Z"/></g><ellipse class="cls-18" cx="177.52" cy="34.89" rx="0.21" ry="0.49" transform="translate(13.43 111.08) rotate(-36.03)"/><ellipse class="cls-19" cx="175.84" cy="24.65" rx="0.2" ry="0.64" transform="translate(39.09 137.9) rotate(-47.61)"/><ellipse class="cls-19" cx="175.44" cy="23.71" rx="0.13" ry="0.27" transform="translate(66.91 163.57) rotate(-59.89)"/><path class="cls-13" d="M159.39,52.36a1.69,1.69,0,0,1-.72.93,5.39,5.39,0,0,1-1.1.55,7.76,7.76,0,0,1-1.46.47,4.47,4.47,0,0,0,2,0,2.48,2.48,0,0,0,1.51-1.12,1.16,1.16,0,0,0,0-1.24.36.36,0,0,1-.11.24Z"/><path class="cls-13" d="M120.08,53.6a1.69,1.69,0,0,0,.72.93,5.39,5.39,0,0,0,1.1.55,7.76,7.76,0,0,0,1.46.47,4.47,4.47,0,0,1-2,0,2.48,2.48,0,0,1-1.51-1.12,1.16,1.16,0,0,1,0-1.24.36.36,0,0,0,.11.24Z"/><path class="cls-13" d="M124.44,57.43a1.71,1.71,0,0,0,1,.65,5,5,0,0,0,1.22.16,7.21,7.21,0,0,0,1.54,0,4.35,4.35,0,0,1-1.87.61,2.41,2.41,0,0,1-1.79-.57,1.15,1.15,0,0,1-.38-1.18.41.41,0,0,0,.18.19Z"/><path class="cls-13" d="M145.64,38.38a1.74,1.74,0,0,1-1,.69,6.12,6.12,0,0,1-1.21.2,7.93,7.93,0,0,1-1.54,0,4.36,4.36,0,0,0,1.89.53,2.41,2.41,0,0,0,1.77-.63,1.14,1.14,0,0,0,.33-1.19.35.35,0,0,1-.17.19Z"/><path class="cls-13" d="M150.06,38.38a1.69,1.69,0,0,1-.63,1,4.68,4.68,0,0,1-1.05.64,7.61,7.61,0,0,1-1.41.61,4.45,4.45,0,0,0,1.95-.21,2.42,2.42,0,0,0,1.4-1.26,1.13,1.13,0,0,0-.14-1.22.41.41,0,0,1-.08.24Z"/><path class="cls-13" d="M162.67,52.57a1.66,1.66,0,0,1-.53,1,5.14,5.14,0,0,1-1,.74,7.65,7.65,0,0,1-1.34.75,4.51,4.51,0,0,0,1.92-.41A2.41,2.41,0,0,0,163,53.31a1.12,1.12,0,0,0-.26-1.2.36.36,0,0,1-.06.25Z"/><path class="cls-13" d="M165.86,51.42a1.75,1.75,0,0,1-.34,1.13,5.5,5.5,0,0,1-.84.9,7,7,0,0,1-1.2,1,4.44,4.44,0,0,0,1.83-.73,2.42,2.42,0,0,0,1-1.58,1.12,1.12,0,0,0-.46-1.14.39.39,0,0,1,0,.26Z"/><path class="cls-13" d="M130.46,36.39s8.35-2.63,12.76-2Z"/><path class="cls-20" d="M157.93,45.12a2.65,2.65,0,0,1-2.32,1.62"/><path class="cls-21" d="M161.05,46.34a2.71,2.71,0,0,1-.86,1.92.16.16,0,0,0,.22.22,2.94,2.94,0,0,0,1-2.23.18.18,0,0,0-.2-.11.16.16,0,0,0-.11.2Z"/><path class="cls-21" d="M165.48,43.29a.13.13,0,0,1,0,.05v0l0,.11v0s0,.06,0,.08a.15.15,0,0,0,0,.13.18.18,0,0,0,.1.07.13.13,0,0,0,.12,0,.18.18,0,0,0,.08-.09.59.59,0,0,0,0-.13.17.17,0,0,0,0-.1.53.53,0,0,0-.08-.24.14.14,0,0,0-.09-.08.2.2,0,0,0-.13,0,.16.16,0,0,0-.07.09.19.19,0,0,0,0,.13Z"/><path class="cls-21" d="M113.38,43a13.84,13.84,0,0,0,3.53,2.68c.18.11.34-.17.16-.28a13.71,13.71,0,0,1-3.46-2.63c-.14-.16-.36.07-.23.23Z"/><path class="cls-21" d="M115.21,42.83l.61.43a.15.15,0,0,0,.22-.06A.17.17,0,0,0,116,43l-.6-.43a.16.16,0,0,0-.17.28Z"/><path class="cls-21" d="M113.82,35.91a13.16,13.16,0,0,0,7.23,5.34.16.16,0,0,0,.09-.31,12.78,12.78,0,0,1-7-5.2c-.11-.17-.39,0-.28.17Z"/><path class="cls-21" d="M117.42,37.46a6.54,6.54,0,0,0,.91.56.16.16,0,0,0,.22-.06.16.16,0,0,0-.06-.22,7.18,7.18,0,0,1-.91-.56.17.17,0,0,0-.22.06.18.18,0,0,0,.06.22Z"/><path class="cls-21" d="M121,36.18l.56.47a.16.16,0,0,0,.11.05.18.18,0,0,0,.12-.05c.05-.06.07-.17,0-.22l-.56-.48a.18.18,0,0,0-.12-.05A.14.14,0,0,0,121,36a.16.16,0,0,0,0,.23Z"/><path class="cls-21" d="M126.65,36a7.5,7.5,0,0,0,1,1.31c.15.14.38-.08.23-.23a7.27,7.27,0,0,1-1-1.24.16.16,0,0,0-.27.16Z"/><path class="cls-21" d="M118.08,47.11a3.93,3.93,0,0,0,.45,1.42.16.16,0,0,0,.28-.16,3.73,3.73,0,0,1-.41-1.26.16.16,0,0,0-.32,0Z"/><path class="cls-21" d="M117.74,48.09l0,0a.16.16,0,0,0,.11,0l.07,0s0,0,.05,0a.12.12,0,0,0,0-.11.16.16,0,0,0,0-.12l-.05,0a.16.16,0,0,0-.11,0l-.06,0a.05.05,0,0,0-.05,0,.16.16,0,0,0,0,.11.17.17,0,0,0,0,.12Z"/><path class="cls-21" d="M142.23,35.92l1.34-.24a.15.15,0,0,0,.11-.19.17.17,0,0,0-.19-.12l-1.34.24a.15.15,0,0,0-.11.2.15.15,0,0,0,.19.11Z"/><path class="cls-21" d="M143.26,36.26l0,0a.16.16,0,0,0,0-.11.14.14,0,0,0,0-.07s0,0,0,0a.12.12,0,0,0-.11,0,.16.16,0,0,0-.12,0l0,0a.13.13,0,0,0,0,.17.05.05,0,0,0,0,0,.16.16,0,0,0,.11.05.18.18,0,0,0,.12-.05Z"/><path class="cls-22" d="M158.25,28.49a33.71,33.71,0,0,1-6.15,4.32c-.19.1,0,.37.16.27a33.6,33.6,0,0,0,6.22-4.36c.16-.14-.07-.36-.23-.23Z"/><path class="cls-22" d="M157.6,30.23l-1.48,1.17a.16.16,0,0,0,0,.23.16.16,0,0,0,.22,0l1.49-1.17a.16.16,0,1,0-.23-.23Z"/><path class="cls-22" d="M156,34.68A9.08,9.08,0,0,1,153.86,36a.16.16,0,0,0-.06.22.17.17,0,0,0,.22.06,8.88,8.88,0,0,0,2.18-1.34.15.15,0,0,0,0-.22.16.16,0,0,0-.23,0Z"/><path class="cls-22" d="M163.35,38.63a16.84,16.84,0,0,1-1.56,1.82.16.16,0,0,0,.23.23,17.09,17.09,0,0,0,1.61-1.89.16.16,0,0,0-.28-.16Z"/><path class="cls-23" d="M153.28,47.2C154.8,56,146,59.18,135,55.57s-5.39-7.52-5.39-7.52c-8.58-6.2-3-7.59-3-7.59-8.77-9.86-1.25-7.86-1.25-7.86-8.43-9.86-1.72-9.81,14.09-.47,14.07,8.32,13.76,13.59,13.76,13.59Z"/><path class="cls-1" d="M152.34,42.47c-1,.51-2,1.21-2.06,2.29a3,3,0,0,0,1.36,2.14,2.28,2.28,0,0,0,.68,4.21c-.68.23-1,1-1.17,1.7a1,1,0,0,0,0,.81.89.89,0,0,0,1,.26A3.59,3.59,0,0,0,154.6,52a6.12,6.12,0,0,0,.51-1.74,18.31,18.31,0,0,0,.24-3.31,7.86,7.86,0,0,0-.45-2.68,3.59,3.59,0,0,0-1.77-2l-.1.47"/></svg>