<svg id="Layer_1" data-name="Layer 1" xmlns="http://www.w3.org/2000/svg" xmlns:xlink="http://www.w3.org/1999/xlink" viewBox="0 0 260 168"><defs><style>.cls-1{fill:#225dd6;}.cls-2{fill:#1153c9;}.cls-3{clip-path:url(#clip-path);}.cls-4{fill:#ace3fc;}.cls-5{fill:#369ced;}.cls-6{fill:#fff;}.cls-7{fill:#1d53b7;}</style><clipPath id="clip-path"><path class="cls-1" d="M212.5,54.07s-43-4.88-75.95-2-56,13-70.9,28.36c0,0-7-18.51-31.6-16.46,0,0,10.45,2.76,12.37,8.41S48,83,53.75,85.6c0,0-6.12,3.12-7.33,9.25s-10.21,9.74-15,10.58c0,0,23.68,5.52,33.29-12.74,0,0,15.3,18.91,59,18.91s53-10.34,53.2-12.18c0,0,3.37-1.6,3.53-3.29,0,0,32.52-9.81,37-35.17C217.43,61,218.75,55.11,212.5,54.07Z"/></clipPath></defs><path class="cls-2" d="M99.86,61.28s-1.6,0-.8-7.53-4.49-15.54-4.49-15.54S125.66,35.33,136.23,53c0,0-3,14.58-21.79,17.79S99.86,61.28,99.86,61.28Z"/><path class="cls-1" d="M212.5,54.07s-43-4.88-75.95-2-56,13-70.9,28.36c0,0-7-18.51-31.6-16.46,0,0,10.45,2.76,12.37,8.41S48,83,53.75,85.6c0,0-6.12,3.12-7.33,9.25s-10.21,9.74-15,10.58c0,0,23.68,5.52,33.29-12.74,0,0,15.3,18.91,59,18.91s53-10.34,53.2-12.18c0,0,3.37-1.6,3.53-3.29,0,0,32.52-9.81,37-35.17C217.43,61,218.75,55.11,212.5,54.07Z"/><g class="cls-3"><path class="cls-4" d="M208.18,83.07s8.33-8.65-16.19-5.6-26.92-.64-34.93.16-24.35,7.21-38.61,16.18S85.76,103.58,65.89,98l11.7,39.89L195.2,119.93Z"/><path class="cls-5" d="M204,47.5s-.16,6.41-14.1,6.25-35.25-2.24-52.4.16-30.28,4.05-47,10.66c0,0-10.22,4.64-16.23,9.93-6.73,5.93-11.41,7.49,5.89-9.69s83.28-25.48,83.28-25.48Z"/></g><circle class="cls-1" cx="157.58" cy="59.64" r="13.95"/><circle class="cls-6" cx="157.58" cy="59.64" r="10.21"/><circle cx="159.05" cy="64.48" r="6.63"/><circle class="cls-6" cx="162.06" cy="60.28" r="2.34"/><path class="cls-1" d="M168.52,68.73a29.19,29.19,0,0,0-21.15.81l7.85,5.68,14.34-2.72Z"/><ellipse class="cls-7" cx="210.3" cy="58.56" rx="2" ry="1.56" transform="translate(82.43 235.49) rotate(-69.71)"/><ellipse class="cls-5" cx="102.86" cy="62.32" rx="2.52" ry="1.2" transform="translate(-12.61 28.7) rotate(-14.98)"/><ellipse class="cls-5" cx="97.88" cy="64.79" rx="2.52" ry="1.2" transform="translate(-16.03 36.48) rotate(-19.54)"/><ellipse class="cls-5" cx="98.5" cy="62.71" rx="1.37" ry="0.63" transform="translate(-14.3 32.53) rotate(-17.51)"/><path class="cls-5" d="M136.07,61.32s.36,10.1,3.73,16C139.8,77.31,131.75,73.7,136.07,61.32Z"/><path class="cls-5" d="M131.72,61.63s-.15,9.72,2.8,15.55C134.52,77.18,127,73.32,131.72,61.63Z"/><path class="cls-5" d="M127.28,63.59s-.13,8.65,2.5,13.83C129.78,77.42,123.05,74,127.28,63.59Z"/><path class="cls-1" d="M178.19,96.59s-12.39,4.81-20.85.91C157.34,97.5,165.68,105.61,178.19,96.59Z"/><path class="cls-1" d="M109.58,73.22s22.31,8.18,30.3,28.3,5.75,23.64-2.79,21.31-12.73-1.6-19.17-3.87S88.54,112.13,109.58,73.22Z"/></svg>