<svg id="Layer_1" data-name="Layer 1" xmlns="http://www.w3.org/2000/svg" xmlns:xlink="http://www.w3.org/1999/xlink" viewBox="0 0 260 168"><defs><style>.cls-1{fill:#ea8313;}.cls-2{fill:#f7b03e;}.cls-3{fill:#893a04;}.cls-4{fill:#893d0a;}.cls-5{fill:#d8730f;}.cls-6{fill:#9e4407;}.cls-7{clip-path:url(#clip-path);}.cls-8{fill:#a05000;}.cls-9{fill:#db7712;}.cls-10{fill:#ce6c0b;}.cls-11{fill:#e51a1a;}.cls-12{fill:#ff9f2c;}.cls-13{fill:#561404;}.cls-14{fill:#fff;}.cls-15{fill:#ffc931;}.cls-16{fill:#d6a825;}.cls-17{clip-path:url(#clip-path-2);}.cls-18{fill:#f48d40;}.cls-19{fill:#f9cc3d;}.cls-20{fill:#fcd875;}.cls-21,.cls-29,.cls-34{fill:none;stroke-linecap:round;stroke-linejoin:round;}.cls-21{stroke:#f99a10;stroke-width:0.51px;}.cls-22{fill:#f99a10;}.cls-23{fill:#f78411;}.cls-24{fill:#f4912f;}.cls-25{fill:#2d2d2d;}.cls-26{fill:#535454;}.cls-27{fill:#0c0c0c;}.cls-28{fill:#231f20;}.cls-29,.cls-34{stroke:#3f3f3f;}.cls-29{stroke-width:0.39px;}.cls-30{fill:#bc4b4b;}.cls-31{fill:#3a3a3a;}.cls-32{fill:#050505;}.cls-33{fill:#141414;}.cls-34{stroke-width:0.59px;}.cls-35{fill:#1e1e1e;}.cls-36{fill:#fff1e1;}.cls-37{opacity:0.36;fill:url(#radial-gradient);}.cls-38{opacity:0.44;fill:url(#radial-gradient-2);}</style><clipPath id="clip-path"><path class="cls-1" d="M98.83,83.67c-3.48-.53-9.38,3.58-12.42,1.78a21.65,21.65,0,0,1-2.87-2,7.73,7.73,0,0,1-1,.62c-21.61-2-34.08,4.67-34.08,4.67-7-12.07-7.39-.77-7.39-.77C27.4,71.36,29.55,83.24,29.55,83.24,7.93,72.53,20.78,91,20.78,91c-15-.19,7.21,16.75,7.21,16.75,5.45,19.86,31.92,20.75,31.92,20.75,7.88,13.68,17.6.62,17.6.62,11.81-2.14,26.23-8.91,26.23-8.91,11.18-7.33,10.93-24.66,8.22-36.37C106.61,85,104.21,84.48,98.83,83.67Z"/></clipPath><clipPath id="clip-path-2"><path class="cls-2" d="M102.6,64.41A8,8,0,0,1,104,66.56c.41,1.07,1.07,3.22,4.53,3s5.6-1,6.33-3c0,0-3.1-2.43-12-2.13Z"/></clipPath><radialGradient id="radial-gradient" cx="151.36" cy="62.03" r="2.44" gradientUnits="userSpaceOnUse"><stop offset="0.58" stop-color="#c49a6c" stop-opacity="0"/><stop offset="0.62" stop-color="#c89a6c" stop-opacity="0.06"/><stop offset="0.7" stop-color="#d1996c" stop-opacity="0.22"/><stop offset="0.81" stop-color="#e1976c" stop-opacity="0.47"/><stop offset="0.95" stop-color="#f6956c" stop-opacity="0.81"/><stop offset="1" stop-color="#ff946c" stop-opacity="0.95"/></radialGradient><radialGradient id="radial-gradient-2" cx="150.3" cy="60.9" r="0.6" gradientUnits="userSpaceOnUse"><stop offset="0.06" stop-color="#fff" stop-opacity="0"/><stop offset="0.14" stop-color="#fff" stop-opacity="0.06"/><stop offset="0.27" stop-color="#fff" stop-opacity="0.21"/><stop offset="0.46" stop-color="#fff" stop-opacity="0.46"/><stop offset="0.59" stop-color="#fff" stop-opacity="0.65"/><stop offset="0.61" stop-color="#fff" stop-opacity="0.67"/><stop offset="0.71" stop-color="#fff" stop-opacity="0.79"/><stop offset="0.81" stop-color="#fff" stop-opacity="0.88"/><stop offset="0.91" stop-color="#fff" stop-opacity="0.93"/><stop offset="1" stop-color="#fff" stop-opacity="0.95"/></radialGradient></defs><path class="cls-3" d="M70.54,145.76s10.09-1.14,14,1-14.34.77-14.34.77Z"/><path class="cls-4" d="M73.23,129.7l-5.42,16s-8.64,1.07-10.25,2.81c0,0-1,1.28,3.27.88a66,66,0,0,1,13.4.3c4.26.51,9.09,2,11.16,2s-2.35-2.44-5.16-3L77.64,148s6.31.9,8.31,1.08-1.35-3.23-11.43-3.49l-2.84.06s4.14-11.42,5.3-16.27S76,124,73.23,129.7Z"/><path class="cls-5" d="M67.54,128.17c.11,1.2,1.19,2,2.18,2.73l3,2.09a4.4,4.4,0,0,0,1.26.68,3.29,3.29,0,0,0,2.7-.72A9.09,9.09,0,0,0,80,125.23c-4.39-.28-8.83-.55-13.16.23a.83.83,0,0,0-.47.19c-.23.25-.08.65.08.95l1.07,1.94"/><path class="cls-3" d="M65.29,147s10-1.68,14,.21S65,148.73,65,148.73Z"/><path class="cls-6" d="M67.11,130.8l-4.55,16.25s-8.57,1.54-10.09,3.36c0,0-.89,1.33,3.32.7a65.78,65.78,0,0,1,13.39-.42c4.29.28,9.19,1.54,11.26,1.4s-2.49-2.31-5.32-2.73l-2.62-.49s6.35.56,8.35.63-1.51-3.15-11.6-2.87l-2.83.21s3.52-11.62,4.42-16.53S69.53,125,67.11,130.8Z"/><path class="cls-1" d="M98.83,83.67c-3.48-.53-9.38,3.58-12.42,1.78a21.65,21.65,0,0,1-2.87-2,7.73,7.73,0,0,1-1,.62c-21.61-2-34.08,4.67-34.08,4.67-7-12.07-7.39-.77-7.39-.77C27.4,71.36,29.55,83.24,29.55,83.24,7.93,72.53,20.78,91,20.78,91c-15-.19,7.21,16.75,7.21,16.75,5.45,19.86,31.92,20.75,31.92,20.75,7.88,13.68,17.6.62,17.6.62,11.81-2.14,26.23-8.91,26.23-8.91,11.18-7.33,10.93-24.66,8.22-36.37C106.61,85,104.21,84.48,98.83,83.67Z"/><g class="cls-7"><path class="cls-8" d="M12,114a26.61,26.61,0,0,0,13.13-3,1.34,1.34,0,0,1,0-2.49,36.05,36.05,0,0,1-5.25-11.67,4.14,4.14,0,0,1-.11-2.23,3,3,0,0,1,2.85-1.86,9,9,0,0,1,3.49.88c-.85-1.4-1.64-2.82-2.39-4.27a7.66,7.66,0,0,1-1-3.09,2.77,2.77,0,0,1,1.48-2.7,3.83,3.83,0,0,1,3.24.61,22.94,22.94,0,0,1,5.13,3.95c-.16-1.07-.85-2-1.05-3.08S32,82.54,33,82.65a2.42,2.42,0,0,1,1.33.84l8.71,8.74a16.6,16.6,0,0,1-.26-3.71,3.94,3.94,0,0,1,1.79-3.1,2.27,2.27,0,0,1,3.15.94,83,83,0,0,0-6.83-9.81,15.21,15.21,0,0,0-3-3c-3-2.07-6.88-2-10.49-1.86-4.57.18-9.35.43-13.28,2.77s-6.53,6.62-7.58,11.1a33.74,33.74,0,0,0,.11,13.72c.86,4.77,2.24,9.84.37,14.32a4.47,4.47,0,0,0,2.55.31l-2.28.82"/><path class="cls-9" d="M76.05,78.45c-1,1.27-2.85,1.72-3.53,3.16s.31,3.32,1.76,4.1a9.85,9.85,0,0,0,4.8.75,1.57,1.57,0,0,0,.34,2.1,3.73,3.73,0,0,0,2.21.7,14.48,14.48,0,0,0,4.15-.34c.23,1.84,2.61,2.44,4.46,2.31a19,19,0,0,0,4.83-1A2.48,2.48,0,0,0,97,92,7.38,7.38,0,0,0,99.73,92l6.16-.91a2.47,2.47,0,0,0,3.41,1,1.58,1.58,0,0,0,1.16,1c0-.73,1.08-.93,1.75-.63s1.3.86,2,.77c1-.13,1.43-1.39,1.57-2.42a28.21,28.21,0,0,0-1-13.3c-1.52-4.22-4.69-8-8.92-9.51a23.27,23.27,0,0,0-7.21-1,77.72,77.72,0,0,0-11.11.39c-3.56.43-7.51,1.54-9.22,4.69-1.09,2-1.05,4.48-2.15,6.48"/></g><ellipse class="cls-10" cx="59.58" cy="89.51" rx="3.28" ry="0.95"/><ellipse class="cls-10" cx="53.71" cy="91.26" rx="2.59" ry="0.75"/><path class="cls-11" d="M104,48.79s-.2-4.73-5.72-8.79-5.5.71-4.92,1.59c0,0-10.11-2.74-7.68,2.93,0,0-9,2.2-2,5.92l5.89.29Z"/><path class="cls-12" d="M74.12,83.3s4.47-6,5.58-23.26S100.84,38,108.58,55.69s5.1,28.2,5.1,28.2-.78,3-6.65,1.21c0,0-10.94,5.79-10.27-.21,0,0-10.35,6.59-10.66.84,0,0-7,3.2-5.52.16C80.58,85.89,69,88.81,74.12,83.3Z"/><path class="cls-11" d="M106.22,51.45s-4.89-4.79-10.45-1.16-2,14.39,4.69,14.07c0,0-4.46-.29-4.32,5.35.14,5.44,10.11,4.73,15.82-1.75a1.94,1.94,0,0,0,.47-1.61A37.77,37.77,0,0,0,106.22,51.45Z"/><path class="cls-13" d="M98.54,53.71a2.32,2.32,0,0,1-2.43.33,2.49,2.49,0,0,0,2.18.75Z"/><path class="cls-13" d="M98.31,54.6a1.64,1.64,0,0,1-1.72.23,1.78,1.78,0,0,0,1.54.53Z"/><ellipse class="cls-14" cx="101.5" cy="56.53" rx="3.81" ry="4.89" transform="translate(-8.44 18.95) rotate(-10.25)"/><path d="M103.84,55a1.19,1.19,0,0,1-.87.71,1.18,1.18,0,0,1-1.36-.94,1.2,1.2,0,0,1,.16-.82,2.49,2.49,0,0,0-.72,0,3,3,0,1,0,3.44,2.39A3,3,0,0,0,103.84,55Z"/><path class="cls-13" d="M104.12,53.27s-1.72-1.55-3.42-1.17-2.6,2.21-3,3.75c0,0-.09-3.51,3-4.13C102.7,51.3,104.12,53.27,104.12,53.27Z"/><path class="cls-11" d="M107.68,69.33a8.59,8.59,0,0,0-.31,8.81c2.52,5.07,15.49,3.4,5-11.42C112.39,66.72,108.36,65.45,107.68,69.33Z"/><ellipse class="cls-15" cx="97.25" cy="46.57" rx="0.32" ry="1.03" transform="translate(47.27 142.11) rotate(-87.97)"/><ellipse class="cls-15" cx="95.78" cy="45.84" rx="0.43" ry="0.2" transform="translate(-6.63 17.77) rotate(-10.25)"/><path class="cls-16" d="M115.82,62.27a21.06,21.06,0,0,0-4.62,2.94c-2.15,1.85-6,1.06-6.13-1.47S115.82,62.27,115.82,62.27Z"/><path class="cls-2" d="M102.6,64.41A8,8,0,0,1,104,66.56c.41,1.07,1.07,3.22,4.53,3s5.6-1,6.33-3c0,0-3.1-2.43-12-2.13Z"/><g class="cls-17"><path class="cls-18" d="M101.89,63.93s1.38,1.81,8.52,2.29,6.33-.15,6.21-.28S106.49,63,106.49,63Z"/></g><path class="cls-19" d="M102.58,64.56a3.14,3.14,0,0,0,1.25-1.92c.34-1.37,1.4-6.18,4.56-6.74s6.69,3.83,7.43,6.29a5.41,5.41,0,0,1-2,.1c-1.47-.1-3.94.94-5.49,1.44S103.75,65.05,102.58,64.56Z"/><ellipse class="cls-20" cx="109.55" cy="56.82" rx="0.34" ry="0.78" transform="translate(34.56 154.83) rotate(-79.99)"/><path class="cls-12" d="M97.85,113.33a2.72,2.72,0,0,1-1.15,1.49,9,9,0,0,1-1.76.87,12,12,0,0,1-2.34.75,6.93,6.93,0,0,0,3.14,0,3.9,3.9,0,0,0,2.42-1.79,1.8,1.8,0,0,0,0-2,.63.63,0,0,1-.17.38Z"/><path class="cls-12" d="M35,115.31a2.7,2.7,0,0,0,1.14,1.49,8.31,8.31,0,0,0,1.77.87,12.07,12.07,0,0,0,2.34.76,7.08,7.08,0,0,1-3.14-.05,3.89,3.89,0,0,1-2.42-1.8,1.8,1.8,0,0,1,0-2,.6.6,0,0,0,.17.38Z"/><path class="cls-12" d="M42,121.44a2.7,2.7,0,0,0,1.57,1,8.4,8.4,0,0,0,1.95.25,11.79,11.79,0,0,0,2.45,0,7,7,0,0,1-3,1,3.88,3.88,0,0,1-2.87-.92,1.8,1.8,0,0,1-.59-1.88.6.6,0,0,0,.28.31Z"/><path class="cls-12" d="M75.86,91a2.76,2.76,0,0,1-1.54,1.09,8.94,8.94,0,0,1-1.94.32,11.79,11.79,0,0,1-2.45.05,7.1,7.1,0,0,0,3,.86,3.91,3.91,0,0,0,2.83-1,1.81,1.81,0,0,0,.52-1.9.54.54,0,0,1-.27.31Z"/><path class="cls-12" d="M82.93,91a2.74,2.74,0,0,1-1,1.59,8.7,8.7,0,0,1-1.68,1,11.54,11.54,0,0,1-2.26,1,7,7,0,0,0,3.12-.33,3.86,3.86,0,0,0,2.25-2,1.81,1.81,0,0,0-.23-2,.56.56,0,0,1-.13.39Z"/><path class="cls-12" d="M103.1,113.66a2.79,2.79,0,0,1-.84,1.69,9.08,9.08,0,0,1-1.57,1.18,11.87,11.87,0,0,1-2.15,1.19,7,7,0,0,0,3.07-.65,3.84,3.84,0,0,0,2-2.22,1.78,1.78,0,0,0-.42-1.92.57.57,0,0,1-.09.4Z"/><path class="cls-12" d="M108.21,111.83a2.8,2.8,0,0,1-.55,1.8,9.12,9.12,0,0,1-1.34,1.44,11.83,11.83,0,0,1-1.92,1.53,7,7,0,0,0,2.92-1.16,3.92,3.92,0,0,0,1.62-2.53,1.82,1.82,0,0,0-.74-1.83.58.58,0,0,1,0,.41Z"/><path class="cls-12" d="M51.58,87.79S64.93,83.57,72,84.65Z"/><path class="cls-21" d="M96.46,98.17a4.25,4.25,0,0,1-3.7,2.6"/><path class="cls-22" d="M101.79,98.06c.17,1.19-.67,2.22-1.37,3.07a.26.26,0,0,0,0,.36.25.25,0,0,0,.36,0c.85-1,1.71-2.16,1.51-3.56a.25.25,0,0,0-.32-.18.27.27,0,0,0-.18.31Z"/><path class="cls-22" d="M107.6,98.81a.41.41,0,0,1,.05.09l0-.06a.84.84,0,0,1,0,.17v-.07a.48.48,0,0,1,0,.17V99l0,.13a.25.25,0,0,0,.18.32.28.28,0,0,0,.2,0,.25.25,0,0,0,.11-.15.8.8,0,0,0,.05-.21V99a1.17,1.17,0,0,0-.13-.4.26.26,0,0,0-.16-.11.28.28,0,0,0-.2,0,.26.26,0,0,0-.11.16.21.21,0,0,0,0,.19Z"/><path class="cls-22" d="M24.26,98.41a22.11,22.11,0,0,0,5.64,4.29.26.26,0,0,0,.26-.44,21.94,21.94,0,0,1-5.54-4.21c-.21-.25-.58.11-.36.36Z"/><path class="cls-22" d="M27.19,98.08l1,.69a.26.26,0,0,0,.26-.44l-1-.7a.26.26,0,0,0-.26.45Z"/><path class="cls-22" d="M25,87a21,21,0,0,0,11.56,8.55.26.26,0,0,0,.13-.5,20.48,20.48,0,0,1-11.25-8.31c-.18-.28-.63,0-.44.26Z"/><path class="cls-22" d="M30.72,89.49a10.41,10.41,0,0,0,1.46.9.27.27,0,0,0,.35-.09.28.28,0,0,0-.09-.36A10.41,10.41,0,0,1,31,89a.25.25,0,0,0-.35.1.27.27,0,0,0,.09.35Z"/><path class="cls-22" d="M36.49,87.44l.9.76a.24.24,0,0,0,.36,0,.25.25,0,0,0,0-.36l-.9-.77a.27.27,0,0,0-.36,0,.27.27,0,0,0,0,.37Z"/><path class="cls-22" d="M45.48,87.21a11.68,11.68,0,0,0,1.63,2.08c.23.24.59-.13.36-.36a11,11,0,0,1-1.55-2,.26.26,0,0,0-.44.26Z"/><path class="cls-22" d="M31.77,104.92a6.35,6.35,0,0,0,.73,2.28c.16.29.6,0,.44-.26a5.7,5.7,0,0,1-.65-2,.26.26,0,0,0-.52,0Z"/><path class="cls-22" d="M31.22,106.49l.07.07a.26.26,0,0,0,.09,0,.12.12,0,0,0,.1,0,.1.1,0,0,0,.09,0,.26.26,0,0,0,.09,0l0,0a.31.31,0,0,0,0-.13v-.07a.24.24,0,0,0-.06-.11l-.07-.07a.21.21,0,0,0-.08-.06l-.1,0-.1,0a.18.18,0,0,0-.09.06l0,.05a.28.28,0,0,0,0,.13v.07a.24.24,0,0,0,.06.11Z"/><path class="cls-22" d="M70.41,87l2.14-.38a.25.25,0,0,0,.18-.32.27.27,0,0,0-.32-.18l-2.14.39a.26.26,0,0,0-.18.31.26.26,0,0,0,.32.18Z"/><path class="cls-22" d="M72.05,87.58l.07-.07a.35.35,0,0,0,0-.08.44.44,0,0,0,0-.1.3.3,0,0,0,0-.1.26.26,0,0,0,0-.09l-.06,0a.28.28,0,0,0-.13,0h-.07a.24.24,0,0,0-.11.06l-.07.07a.26.26,0,0,0-.05.09.16.16,0,0,0,0,.1.15.15,0,0,0,0,.09.26.26,0,0,0,.05.09l0,0a.31.31,0,0,0,.13,0h.07a.27.27,0,0,0,.12-.06Z"/><path class="cls-23" d="M83.5,69.38a53.51,53.51,0,0,1-5.06,10.91.26.26,0,0,0,.45.26,54.42,54.42,0,0,0,5.11-11c.1-.32-.39-.45-.5-.14Z"/><path class="cls-23" d="M84,72.3l-1.12,2.82a.25.25,0,1,0,.49.14l1.12-2.82A.25.25,0,1,0,84,72.3Z"/><path class="cls-23" d="M85.31,79.77a14.43,14.43,0,0,1-1.89,3.47.25.25,0,0,0,.09.35.26.26,0,0,0,.35-.09,14.42,14.42,0,0,0,2-3.6c.11-.31-.39-.44-.5-.13Z"/><path class="cls-23" d="M98.69,79.32a26.49,26.49,0,0,1-.7,3.76.26.26,0,0,0,.5.14,27,27,0,0,0,.71-3.9c0-.33-.48-.32-.51,0Z"/><path class="cls-24" d="M88.08,105.07c2.43,14.1-11.73,19.16-29.22,13.39s-8.63-12-8.63-12C36.52,96.52,45.36,94.3,45.36,94.3c-14-15.78-2-12.58-2-12.58C29.89,65.94,40.62,66,65.91,81c22.51,13.3,22,21.73,22,21.73Z"/><path class="cls-1" d="M86.58,97.5c-1.52.82-3.25,1.94-3.29,3.67,0,1.4,1.09,2.52,2.17,3.41a3.66,3.66,0,0,0,1.08,6.75c-1.09.37-1.56,1.62-1.87,2.72a1.67,1.67,0,0,0,0,1.3c.3.5,1,.53,1.59.41a5.71,5.71,0,0,0,3.93-3A9.47,9.47,0,0,0,91,110a28.53,28.53,0,0,0,.38-5.3,12.17,12.17,0,0,0-.71-4.28,5.75,5.75,0,0,0-2.82-3.17l-.18.76"/><path class="cls-25" d="M181.26,146.93s-5.55-.54-7-.44c0,0-.91-.05-1,.55-.2.86.35,1.31,1.19,1.48s8.39-.11,8.39-.11l.06-1.24Z"/><path class="cls-25" d="M187.68,147.55s1.64-.23,2.28.75a5,5,0,0,0-2.47.46S186.09,148.33,187.68,147.55Z"/><path class="cls-26" d="M189,130.48S181.2,147,181.2,147.71s.88,2.38,2.56,0c1.91-2.69,8.35-15.78,8.35-15.78S191,129.79,189,130.48Z"/><path class="cls-27" d="M178.44,122.79a72.48,72.48,0,0,0,8,11c4.19,4.48,6.6,2.19,5.84-3.64s-1.68-9.9-3.06-12.2-3.77-5.7-8-3.64C176,116.86,178.44,122.79,178.44,122.79Z"/><path class="cls-26" d="M186.12,149.21s-8,.11-11.61,1.1c0,0-2.77.84-3.14-.55s4.81-2.06,4.81-2.06,5.81-1.36,9.94-.47c0,0,1.67,0,1.59.6S188.09,149.46,186.12,149.21Z"/><path class="cls-25" d="M171.69,149.42s-1.6.47-1.78,1.62a5.09,5.09,0,0,1,2.44-.6S173.45,149.48,171.69,149.42Z"/><path class="cls-26" d="M181.2,149.24s-4.39,1.8-4.82,2.82-2.56.59-2.08-.61,1.21-2.56,5.24-3.31C179.54,148.14,181.4,147.51,181.2,149.24Z"/><path class="cls-25" d="M174.54,151.54s-1,1.3-.53,2.35a5,5,0,0,1,1.66-1.89S176,150.58,174.54,151.54Z"/><path class="cls-25" d="M174.33,146.87s-2-.21-2.33.53c0,0,1.76-.26,2.22.25C174.22,147.65,175.09,147.34,174.33,146.87Z"/><path class="cls-27" d="M166.26,58.85S169,42.34,181.77,52.1c13.77,10.53,12.6,36.68,14.64,39.05s22.07,21.06,8.15,36.68-42.12-2-41.78-24.11S170,78.55,166.26,58.85Z"/><circle class="cls-14" cx="173.64" cy="55.61" r="3.52" transform="matrix(0.98, -0.18, 0.18, 0.98, -7.2, 32.38)"/><path class="cls-28" d="M175.52,54.41a2.23,2.23,0,0,0-2.8-.84.9.9,0,0,1,.47.37.89.89,0,0,1-.27,1.23.9.9,0,0,1-1.24-.27,1.63,1.63,0,0,1-.09-.19,2.23,2.23,0,1,0,3.93-.3Z"/><path class="cls-27" d="M203.55,100.05l48.61,36.43s-5.24,3.69-13.79-3.32c0,0-.36,5.8-8.51-.21,0,0-1,6.18-21.8-6.62S203.55,100.05,203.55,100.05Z"/><path class="cls-29" d="M212.23,116.62s15.09,8.17,17.45,14.31"/><path class="cls-29" d="M221,116.62s15.1,8.17,17.45,14.31"/><path class="cls-30" d="M147,68.1s6.71-6,18.57-7.91l5.2,1.31-2,2.63A58.49,58.49,0,0,0,147,68.1Z"/><path class="cls-31" d="M147,68.1a11.51,11.51,0,0,0,3.77-.35c2.12-.54,10.94-3,15.3-2.7s4.49.23,4.81-1.9-.17-2.19-.63-2.62C170.22,60.53,150.48,64.89,147,68.1Z"/><path class="cls-26" d="M168.1,53.84s-5.47,3.23-11.06,2.95-11.22.41-11.85,2.88A64.15,64.15,0,0,1,168,61.59s4,1.19,2.23-1.89S168.21,56.36,168.1,53.84Z"/><ellipse class="cls-32" cx="166.57" cy="56.99" rx="0.31" ry="0.85" transform="translate(41.88 181.28) rotate(-63.8)"/><path class="cls-26" d="M197.86,133.11s-7.77,16.53-7.77,17.22.87,2.39,2.56,0c1.9-2.68,8.34-15.77,8.34-15.77S199.92,132.41,197.86,133.11Z"/><path class="cls-27" d="M187.33,125.42a72.48,72.48,0,0,0,8,11c4.18,4.48,6.59,2.19,5.83-3.65s-1.67-9.9-3-12.19-3.77-5.7-8-3.65C184.88,119.48,187.33,125.42,187.33,125.42Z"/><path class="cls-25" d="M190.15,149.55s-5.56-.54-7-.43c0,0-.91-.05-1.05.54-.2.86.35,1.31,1.19,1.48s8.38-.1,8.38-.1l.07-1.24Z"/><path class="cls-25" d="M196.56,150.18s1.65-.23,2.29.74a5.08,5.08,0,0,0-2.48.46S195,151,196.56,150.18Z"/><path class="cls-26" d="M195,151.84s-8,.1-11.61,1.1c0,0-2.77.83-3.14-.55s4.81-2.07,4.81-2.07,5.81-1.36,9.94-.47c0,0,1.67,0,1.59.6S197,152.09,195,151.84Z"/><path class="cls-25" d="M180.57,152.05s-1.59.47-1.77,1.62a5.09,5.09,0,0,1,2.44-.6S182.34,152.1,180.57,152.05Z"/><path class="cls-26" d="M190.09,151.87s-4.39,1.8-4.82,2.82-2.57.59-2.08-.62,1.21-2.56,5.23-3.3C188.42,150.77,190.29,150.14,190.09,151.87Z"/><path class="cls-25" d="M183.43,154.17s-1,1.3-.53,2.35a5,5,0,0,1,1.66-1.9S184.9,153.2,183.43,154.17Z"/><path class="cls-25" d="M183.22,149.5s-1.95-.22-2.34.53c0,0,1.77-.26,2.23.24C183.11,150.27,184,150,183.22,149.5Z"/><path class="cls-33" d="M178.38,88.18c-3.54,2.29-3.51,8-2.5,11.49,2.31,8.13,10.21,14.17,17.41,17.84a9.63,9.63,0,0,0,3.38,1.12,1.61,1.61,0,0,0,1.67-2.07,8.08,8.08,0,0,0-.58-1.43c2.35,2.71,4.9,5.56,8.43,6.45a1,1,0,0,0,.94-.21c.43-.4.23-.91,0-1.34l-1-2.07a15.23,15.23,0,0,0,6.82,5,5,5,0,0,0,2.35.34,1,1,0,0,0,.82-1.12,7,7,0,0,0-1.24-3.07,21.75,21.75,0,0,0,4,3.64,8.33,8.33,0,0,0,3.24,1.24,1.36,1.36,0,0,0,1.42-1.87,9.63,9.63,0,0,0-1.2-2.15,43.43,43.43,0,0,0,6.21,5,2.55,2.55,0,0,0,.95.39c1.55.28,2-1.15,1.57-2.13-1.41-3.44-4.17-7-6.25-10.15a116,116,0,0,0-8.84-11.72C207,90.91,192.39,79.12,178.38,88.18Z"/><path class="cls-34" d="M185.75,98s9.59,6.81,11.41,16.31"/><path class="cls-34" d="M191.82,96.6s11.81,10,13.89,20.47"/><path class="cls-34" d="M202.1,99.5s10.69,8.51,13,19.25"/><path class="cls-34" d="M211.81,103.62a36.68,36.68,0,0,1,10.68,15.68"/><path class="cls-35" d="M169.2,74l-1.06,4.67c-.09.38.49.54.58.16l1.06-4.67c.09-.38-.5-.54-.58-.16Z"/><path class="cls-35" d="M171,74.3l-.29,1.63a.31.31,0,0,0,.21.37.32.32,0,0,0,.38-.21l.29-1.63a.32.32,0,0,0-.22-.37.32.32,0,0,0-.37.21Z"/><path class="cls-35" d="M174,73.8c-.19,1.3-.35,2.6-.48,3.91a.3.3,0,0,0,.6,0c.13-1.25.28-2.5.46-3.74a.32.32,0,0,0-.21-.38.3.3,0,0,0-.37.21Z"/><path class="cls-35" d="M177.1,74l.14.92a.3.3,0,0,0,.37.21.3.3,0,0,0,.19-.14.37.37,0,0,0,0-.23l-.15-.92a.3.3,0,0,0-.13-.18.29.29,0,0,0-.24,0,.31.31,0,0,0-.18.14.35.35,0,0,0,0,.23Z"/><path class="cls-35" d="M179.71,72.27A29,29,0,0,1,181,80.74a.31.31,0,0,0,.61,0,29.73,29.73,0,0,0-1.29-8.63.3.3,0,0,0-.58.16Z"/><path class="cls-35" d="M183.27,72l1.27,3.61c.13.36.71.21.58-.16l-1.27-3.61c-.13-.36-.71-.21-.58.16Z"/><path class="cls-35" d="M187,71.07c.11.17.21.33.31.51l.12.25s0,.1.07.14,0,0,0,0v0l0,.07a.32.32,0,0,0,.14.18.27.27,0,0,0,.23,0,.29.29,0,0,0,.21-.37,5.28,5.28,0,0,0-.59-1.13.31.31,0,0,0-.18-.14.31.31,0,0,0-.23,0,.3.3,0,0,0-.11.41Z"/><path class="cls-35" d="M164.43,107.4a28.81,28.81,0,0,0,5.29,12.23c.23.3.75,0,.52-.31A28.42,28.42,0,0,1,165,107.24c-.07-.38-.65-.22-.58.16Z"/><path class="cls-35" d="M168.51,113.76a35.74,35.74,0,0,0,8.78,10.7c.3.24.73-.18.43-.43A35.2,35.2,0,0,1,169,113.46a.3.3,0,0,0-.52.3Z"/><path class="cls-35" d="M166.13,101.18a72.15,72.15,0,0,0,1.43,7.14.31.31,0,0,0,.59-.16,72.77,72.77,0,0,1-1.44-7.14c-.05-.38-.64-.22-.58.16Z"/><path class="cls-35" d="M172.21,113.07a34.65,34.65,0,0,0,6.65,5.61c.33.22.63-.31.31-.52a34.49,34.49,0,0,1-6.54-5.52c-.26-.28-.69.14-.42.43Z"/><path class="cls-35" d="M180.42,115.5l3.46,2a.3.3,0,0,0,.31-.52l-3.47-2a.3.3,0,0,0-.3.52Z"/><circle class="cls-36" cx="151.36" cy="62.03" r="2.44"/><circle class="cls-37" cx="151.36" cy="62.03" r="2.44"/><circle class="cls-38" cx="150.3" cy="60.9" r="0.6"/></svg>