<svg id="Layer_3" data-name="Layer 3" xmlns="http://www.w3.org/2000/svg" xmlns:xlink="http://www.w3.org/1999/xlink" viewBox="0 0 260 168"><defs><style>.cls-1{fill:#ea8313;}.cls-2{fill:#f7b03e;}.cls-3{fill:#893a04;}.cls-4{fill:#893d0a;}.cls-5{fill:#d8730f;}.cls-6{fill:#9e4407;}.cls-7{clip-path:url(#clip-path);}.cls-8{fill:#a05000;}.cls-9{fill:#db7712;}.cls-10{fill:#ce6c0b;}.cls-11{fill:#ff9f2c;}.cls-12,.cls-32,.cls-37{fill:none;stroke-linecap:round;stroke-linejoin:round;}.cls-12{stroke:#f99a10;stroke-width:0.51px;}.cls-13{fill:#f99a10;}.cls-14{fill:#e51a1a;}.cls-15{fill:#561404;}.cls-16{fill:#fff;}.cls-17{fill:#ffc931;}.cls-18{fill:#d6a825;}.cls-19{clip-path:url(#clip-path-2);}.cls-20{fill:#f48d40;}.cls-21{fill:#f9cc3d;}.cls-22{fill:#fcd875;}.cls-23{fill:#f78411;}.cls-24{fill:#f4912f;}.cls-25{fill:#fff1e1;}.cls-26{opacity:0.36;fill:url(#radial-gradient);}.cls-27{opacity:0.44;fill:url(#radial-gradient-2);}.cls-28{fill:#2d2d2d;}.cls-29{fill:#535454;}.cls-30{fill:#0c0c0c;}.cls-31{fill:#231f20;}.cls-32,.cls-37{stroke:#3f3f3f;}.cls-32{stroke-width:0.39px;}.cls-33{fill:#bc4b4b;}.cls-34{fill:#3a3a3a;}.cls-35{fill:#050505;}.cls-36{fill:#141414;}.cls-37{stroke-width:0.59px;}.cls-38{fill:#1e1e1e;}</style><clipPath id="clip-path"><path class="cls-1" d="M97.71,77c-3.48-.52-8.3,6-11.34,4.16-1-.6-1.93,3-2.83,2.22a7.73,7.73,0,0,1-1,.62c-21.61-2-34.08,4.67-34.08,4.67-7-12.07-7.39-.77-7.39-.77C27.4,71.36,29.55,83.24,29.55,83.24,7.93,72.53,20.78,91,20.78,91c-15-.19,7.21,16.75,7.21,16.75,5.45,19.86,31.92,20.75,31.92,20.75,7.88,13.68,17.6.62,17.6.62,11.81-2.14,26.23-8.91,26.23-8.91,11.18-7.33,11.62-34,6.34-47.92C104.73,73.42,103.09,77.84,97.71,77Z"/></clipPath><clipPath id="clip-path-2"><path class="cls-2" d="M94.31,56.81a8.26,8.26,0,0,1,2.08,1.49c.77.85,2.18,2.6,5.31,1.11s4.82-3,4.77-5.14c0,0-3.78-1.11-11.92,2.44Z"/></clipPath><radialGradient id="radial-gradient" cx="97.88" cy="87.12" r="2.44" gradientTransform="matrix(0.91, 0.41, -0.41, 0.91, 50.44, -67.13)" gradientUnits="userSpaceOnUse"><stop offset="0.58" stop-color="#c49a6c" stop-opacity="0"/><stop offset="0.62" stop-color="#c89a6c" stop-opacity="0.06"/><stop offset="0.7" stop-color="#d1996c" stop-opacity="0.22"/><stop offset="0.81" stop-color="#e1976c" stop-opacity="0.47"/><stop offset="0.95" stop-color="#f6956c" stop-opacity="0.81"/><stop offset="1" stop-color="#ff946c" stop-opacity="0.95"/></radialGradient><radialGradient id="radial-gradient-2" cx="96.81" cy="86" r="0.6" gradientTransform="matrix(0.91, 0.41, -0.41, 0.91, 50.44, -67.13)" gradientUnits="userSpaceOnUse"><stop offset="0.06" stop-color="#fff" stop-opacity="0"/><stop offset="0.14" stop-color="#fff" stop-opacity="0.06"/><stop offset="0.27" stop-color="#fff" stop-opacity="0.21"/><stop offset="0.46" stop-color="#fff" stop-opacity="0.46"/><stop offset="0.59" stop-color="#fff" stop-opacity="0.65"/><stop offset="0.61" stop-color="#fff" stop-opacity="0.67"/><stop offset="0.71" stop-color="#fff" stop-opacity="0.79"/><stop offset="0.81" stop-color="#fff" stop-opacity="0.88"/><stop offset="0.91" stop-color="#fff" stop-opacity="0.93"/><stop offset="1" stop-color="#fff" stop-opacity="0.95"/></radialGradient></defs><path class="cls-3" d="M70.54,145.76s10.09-1.14,14,1-14.34.77-14.34.77Z"/><path class="cls-4" d="M73.23,129.7l-5.42,16s-8.64,1.07-10.25,2.81c0,0-1,1.28,3.27.88a66,66,0,0,1,13.4.3c4.26.51,9.09,2,11.16,2s-2.35-2.44-5.16-3L77.64,148s6.31.9,8.31,1.08-1.35-3.23-11.43-3.49l-2.84.06s4.14-11.42,5.3-16.27S76,124,73.23,129.7Z"/><path class="cls-5" d="M67.54,128.17c.11,1.2,1.19,2,2.18,2.73l3,2.09a4.4,4.4,0,0,0,1.26.68,3.29,3.29,0,0,0,2.7-.72A9.09,9.09,0,0,0,80,125.23c-4.39-.28-8.83-.55-13.16.23a.83.83,0,0,0-.47.19c-.23.25-.08.65.08.95l1.07,1.94"/><path class="cls-3" d="M65.29,147s10-1.68,14,.21S65,148.73,65,148.73Z"/><path class="cls-6" d="M67.11,130.8l-4.55,16.25s-8.57,1.54-10.09,3.36c0,0-.89,1.33,3.32.7a65.78,65.78,0,0,1,13.39-.42c4.29.28,9.19,1.54,11.26,1.4s-2.49-2.31-5.32-2.73l-2.62-.49s6.35.56,8.35.63-1.51-3.15-11.6-2.87l-2.83.21s3.52-11.62,4.42-16.53S69.53,125,67.11,130.8Z"/><path class="cls-1" d="M97.71,77c-3.48-.52-8.3,6-11.34,4.16-1-.6-1.93,3-2.83,2.22a7.73,7.73,0,0,1-1,.62c-21.61-2-34.08,4.67-34.08,4.67-7-12.07-7.39-.77-7.39-.77C27.4,71.36,29.55,83.24,29.55,83.24,7.93,72.53,20.78,91,20.78,91c-15-.19,7.21,16.75,7.21,16.75,5.45,19.86,31.92,20.75,31.92,20.75,7.88,13.68,17.6.62,17.6.62,11.81-2.14,26.23-8.91,26.23-8.91,11.18-7.33,11.62-34,6.34-47.92C104.73,73.42,103.09,77.84,97.71,77Z"/><g class="cls-7"><path class="cls-8" d="M12,114a26.61,26.61,0,0,0,13.13-3,1.34,1.34,0,0,1,0-2.49,36.05,36.05,0,0,1-5.25-11.67,4.14,4.14,0,0,1-.11-2.23,3,3,0,0,1,2.85-1.86,9,9,0,0,1,3.49.88c-.85-1.4-1.64-2.82-2.39-4.27a7.66,7.66,0,0,1-1-3.09,2.77,2.77,0,0,1,1.48-2.7,3.83,3.83,0,0,1,3.24.61,22.94,22.94,0,0,1,5.13,3.95c-.16-1.07-.85-2-1.05-3.08S32,82.54,33,82.65a2.42,2.42,0,0,1,1.33.84l8.71,8.74a16.6,16.6,0,0,1-.26-3.71,3.94,3.94,0,0,1,1.79-3.1,2.27,2.27,0,0,1,3.15.94,83,83,0,0,0-6.83-9.81,15.21,15.21,0,0,0-3-3c-3-2.07-6.88-2-10.49-1.86-4.57.18-9.35.43-13.28,2.77s-6.53,6.62-7.58,11.1a33.74,33.74,0,0,0,.11,13.72c.86,4.77,2.24,9.84.37,14.32a4.47,4.47,0,0,0,2.55.31l-2.28.82"/><path class="cls-9" d="M76.37,79c-.32,1.56-1.81,2.79-1.79,4.39s1.74,2.84,3.38,2.91a9.8,9.8,0,0,0,4.64-1.43,1.56,1.56,0,0,0,1.23,1.74,3.75,3.75,0,0,0,2.29-.35,13.92,13.92,0,0,0,3.58-2.12c1,1.55,3.42,1,5,.13a19.17,19.17,0,0,0,3.91-3,2.5,2.5,0,0,0,2.5.72,7.21,7.21,0,0,0,2.43-1.25l5.14-3.51a2.48,2.48,0,0,0,3.51-.59,1.59,1.59,0,0,0,1.46.35c-.32-.67.56-1.32,1.3-1.34s1.54.2,2.16-.2c.87-.57.68-1.88.36-2.86a28.26,28.26,0,0,0-6.69-11.54c-3.22-3.13-7.72-5.14-12.18-4.64a23,23,0,0,0-6.92,2.26,77.46,77.46,0,0,0-9.82,5.22c-3,2-6.08,4.67-6.24,8.26-.1,2.28,1,4.48.91,6.76"/></g><ellipse class="cls-10" cx="59.58" cy="89.51" rx="3.28" ry="0.95"/><ellipse class="cls-10" cx="53.71" cy="91.26" rx="2.59" ry="0.75"/><path class="cls-11" d="M97.85,113.33a2.72,2.72,0,0,1-1.15,1.49,9,9,0,0,1-1.76.87,12,12,0,0,1-2.34.75,6.93,6.93,0,0,0,3.14,0,3.9,3.9,0,0,0,2.42-1.79,1.8,1.8,0,0,0,0-2,.63.63,0,0,1-.17.38Z"/><path class="cls-11" d="M35,115.31a2.7,2.7,0,0,0,1.14,1.49,8.31,8.31,0,0,0,1.77.87,12.07,12.07,0,0,0,2.34.76,7.08,7.08,0,0,1-3.14-.05,3.89,3.89,0,0,1-2.42-1.8,1.8,1.8,0,0,1,0-2,.6.6,0,0,0,.17.38Z"/><path class="cls-11" d="M42,121.44a2.7,2.7,0,0,0,1.57,1,8.4,8.4,0,0,0,1.95.25,11.79,11.79,0,0,0,2.45,0,7,7,0,0,1-3,1,3.88,3.88,0,0,1-2.87-.92,1.8,1.8,0,0,1-.59-1.88.6.6,0,0,0,.28.31Z"/><path class="cls-11" d="M75.86,91a2.76,2.76,0,0,1-1.54,1.09,8.94,8.94,0,0,1-1.94.32,11.79,11.79,0,0,1-2.45.05,7.1,7.1,0,0,0,3,.86,3.91,3.91,0,0,0,2.83-1,1.81,1.81,0,0,0,.52-1.9.54.54,0,0,1-.27.31Z"/><path class="cls-11" d="M82.93,91a2.74,2.74,0,0,1-1,1.59,8.7,8.7,0,0,1-1.68,1,11.54,11.54,0,0,1-2.26,1,7,7,0,0,0,3.12-.33,3.86,3.86,0,0,0,2.25-2,1.81,1.81,0,0,0-.23-2,.56.56,0,0,1-.13.39Z"/><path class="cls-11" d="M103.1,113.66a2.79,2.79,0,0,1-.84,1.69,9.08,9.08,0,0,1-1.57,1.18,11.87,11.87,0,0,1-2.15,1.19,7,7,0,0,0,3.07-.65,3.84,3.84,0,0,0,2-2.22,1.78,1.78,0,0,0-.42-1.92.57.57,0,0,1-.09.4Z"/><path class="cls-11" d="M108.21,111.83a2.8,2.8,0,0,1-.55,1.8,9.12,9.12,0,0,1-1.34,1.44,11.83,11.83,0,0,1-1.92,1.53,7,7,0,0,0,2.92-1.16,3.92,3.92,0,0,0,1.62-2.53,1.82,1.82,0,0,0-.74-1.83.58.58,0,0,1,0,.41Z"/><path class="cls-11" d="M51.58,87.79S64.93,83.57,72,84.65Z"/><path class="cls-12" d="M96.46,98.17a4.25,4.25,0,0,1-3.7,2.6"/><path class="cls-13" d="M101.79,98.06c.17,1.19-.67,2.22-1.37,3.07a.26.26,0,0,0,0,.36.25.25,0,0,0,.36,0c.85-1,1.71-2.16,1.51-3.56a.25.25,0,0,0-.32-.18.27.27,0,0,0-.18.31Z"/><path class="cls-13" d="M107.6,98.81a.41.41,0,0,1,.05.09l0-.06a.84.84,0,0,1,0,.17v-.07a.48.48,0,0,1,0,.17V99l0,.13a.25.25,0,0,0,.18.32.28.28,0,0,0,.2,0,.25.25,0,0,0,.11-.15.8.8,0,0,0,.05-.21V99a1.17,1.17,0,0,0-.13-.4.26.26,0,0,0-.16-.11.28.28,0,0,0-.2,0,.26.26,0,0,0-.11.16.21.21,0,0,0,0,.19Z"/><path class="cls-13" d="M24.26,98.41a22.11,22.11,0,0,0,5.64,4.29.26.26,0,0,0,.26-.44,21.94,21.94,0,0,1-5.54-4.21c-.21-.25-.58.11-.36.36Z"/><path class="cls-13" d="M27.19,98.08l1,.69a.26.26,0,0,0,.26-.44l-1-.7a.26.26,0,0,0-.26.45Z"/><path class="cls-13" d="M25,87a21,21,0,0,0,11.56,8.55.26.26,0,0,0,.13-.5,20.48,20.48,0,0,1-11.25-8.31c-.18-.28-.63,0-.44.26Z"/><path class="cls-13" d="M30.72,89.49a10.41,10.41,0,0,0,1.46.9.27.27,0,0,0,.35-.09.28.28,0,0,0-.09-.36A10.41,10.41,0,0,1,31,89a.25.25,0,0,0-.35.1.27.27,0,0,0,.09.35Z"/><path class="cls-13" d="M36.49,87.44l.9.76a.24.24,0,0,0,.36,0,.25.25,0,0,0,0-.36l-.9-.77a.27.27,0,0,0-.36,0,.27.27,0,0,0,0,.37Z"/><path class="cls-13" d="M45.48,87.21a11.68,11.68,0,0,0,1.63,2.08c.23.24.59-.13.36-.36a11,11,0,0,1-1.55-2,.26.26,0,0,0-.44.26Z"/><path class="cls-13" d="M31.77,104.92a6.35,6.35,0,0,0,.73,2.28c.16.29.6,0,.44-.26a5.7,5.7,0,0,1-.65-2,.26.26,0,0,0-.52,0Z"/><path class="cls-13" d="M31.22,106.49l.07.07a.26.26,0,0,0,.09,0,.12.12,0,0,0,.1,0,.1.1,0,0,0,.09,0,.26.26,0,0,0,.09,0l0,0a.31.31,0,0,0,0-.13v-.07a.24.24,0,0,0-.06-.11l-.07-.07a.21.21,0,0,0-.08-.06l-.1,0-.1,0a.18.18,0,0,0-.09.06l0,.05a.28.28,0,0,0,0,.13v.07a.24.24,0,0,0,.06.11Z"/><path class="cls-13" d="M70.41,87l2.14-.38a.25.25,0,0,0,.18-.32.27.27,0,0,0-.32-.18l-2.14.39a.26.26,0,0,0-.18.31.26.26,0,0,0,.32.18Z"/><path class="cls-13" d="M72.05,87.58l.07-.07a.35.35,0,0,0,0-.08.44.44,0,0,0,0-.1.3.3,0,0,0,0-.1.26.26,0,0,0,0-.09l-.06,0a.28.28,0,0,0-.13,0h-.07a.24.24,0,0,0-.11.06l-.07.07a.26.26,0,0,0-.05.09.16.16,0,0,0,0,.1.15.15,0,0,0,0,.09.26.26,0,0,0,.05.09l0,0a.31.31,0,0,0,.13,0h.07a.27.27,0,0,0,.12-.06Z"/><path class="cls-14" d="M89.83,41.79s-1.93-4.33-8.56-6.06-4.85,2.69-4,3.29c0,0-10.42,1.19-6.06,5.57,0,0-7.58,5.36.3,6.24l5.57-1.9Z"/><path class="cls-11" d="M74.82,84.88s2-7.2-3.39-23.68,11.5-28.33,25.23-14.69S111.8,70.84,111.8,70.84s.37,3-5.73,3.57c0,0-8,9.41-9.62,3.59,0,0-7.19,9.94-9.6,4.71,0,0-5.34,5.57-5.08,2.19C81.77,84.9,72.08,91.9,74.82,84.88Z"/><path class="cls-14" d="M92.9,43.44s-6.31-2.66-10.13,2.77,3.49,14.09,9.54,11.34c0,0-4.25,1.38-2,6.57,2.14,5,11.15.67,14.06-7.46a1.93,1.93,0,0,0-.16-1.67A37.67,37.67,0,0,0,92.9,43.44Z"/><path class="cls-15" d="M86.6,48.37a2.34,2.34,0,0,1-2.14,1.2,2.52,2.52,0,0,0,2.31-.11Z"/><path class="cls-15" d="M86.71,49.28a1.65,1.65,0,0,1-1.51.85,1.78,1.78,0,0,0,1.63-.08Z"/><ellipse class="cls-16" cx="90.39" cy="49.9" rx="3.81" ry="4.89" transform="translate(-12.72 55.29) rotate(-31.9)"/><path d="M92,47.64a1.13,1.13,0,0,1-.54,1,1.16,1.16,0,0,1-1.61-.37,1.19,1.19,0,0,1-.16-.82,3.86,3.86,0,0,0-.66.3,3,3,0,1,0,3-.09Z"/><path class="cls-15" d="M91.62,45.9s-2.17-.81-3.61.17-1.6,3-1.44,4.61c0,0-1.38-3.23,1.24-4.94C89.57,44.59,91.62,45.9,91.62,45.9Z"/><path class="cls-14" d="M100.86,59.51a8.58,8.58,0,0,0,3,8.31c4.21,3.78,15.65-2.56.45-12.47C104.27,55.35,100.06,55.66,100.86,59.51Z"/><ellipse class="cls-17" cx="82.76" cy="42.2" rx="1.03" ry="0.32" transform="translate(-9.37 30.24) rotate(-19.62)"/><ellipse class="cls-17" cx="81.13" cy="42.07" rx="0.43" ry="0.2" transform="translate(-9.98 49.22) rotate(-31.9)"/><path class="cls-18" d="M105.81,50a20.9,20.9,0,0,0-3.2,4.43c-1.32,2.51-5.22,3.21-6.24.9S105.81,50,105.81,50Z"/><path class="cls-2" d="M94.31,56.81a8.26,8.26,0,0,1,2.08,1.49c.77.85,2.18,2.6,5.31,1.11s4.82-3,4.77-5.14c0,0-3.78-1.11-11.92,2.44Z"/><g class="cls-19"><path class="cls-20" d="M93.48,56.63s2,1.17,8.76-1,5.84-2.48,5.68-2.56-10.5,1-10.5,1Z"/></g><path class="cls-21" d="M94.36,57a3.15,3.15,0,0,0,.45-2.25c-.19-1.39-1-6.26,1.75-7.94s7.63,1.09,9.22,3.1a5.19,5.19,0,0,1-1.81.83c-1.41.45-3.32,2.33-4.57,3.37S95.62,57,94.36,57Z"/><ellipse class="cls-22" cx="97.98" cy="47.19" rx="0.78" ry="0.34" transform="translate(-7.51 20.75) rotate(-11.65)"/><path class="cls-23" d="M78.4,68.45a53.68,53.68,0,0,1-.67,12c0,.32.44.46.5.13a54.81,54.81,0,0,0,.69-12.14c0-.33-.53-.33-.52,0Z"/><path class="cls-23" d="M79.94,71v3a.26.26,0,0,0,.51,0V71a.26.26,0,0,0-.51,0Z"/><path class="cls-23" d="M83.91,77.44a14,14,0,0,1-.47,3.92.26.26,0,0,0,.5.14,15.05,15.05,0,0,0,.49-4.06.26.26,0,0,0-.52,0Z"/><path class="cls-23" d="M96.18,72.09a25.37,25.37,0,0,1,.74,3.75.27.27,0,0,0,.26.26c.13,0,.28-.12.26-.26A26,26,0,0,0,96.67,72a.25.25,0,0,0-.49.14Z"/><path class="cls-24" d="M88.08,105.07c2.43,14.1-11.73,19.16-29.22,13.39s-8.63-12-8.63-12C36.52,96.52,45.36,94.3,45.36,94.3c-14-15.78-2-12.58-2-12.58C29.89,65.94,40.62,66,65.91,81c22.51,13.3,22,21.73,22,21.73Z"/><path class="cls-1" d="M86.58,97.5c-1.52.82-3.25,1.94-3.29,3.67,0,1.4,1.09,2.52,2.17,3.41a3.66,3.66,0,0,0,1.08,6.75c-1.09.37-1.56,1.62-1.87,2.72a1.67,1.67,0,0,0,0,1.3c.3.5,1,.53,1.59.41a5.71,5.71,0,0,0,3.93-3A9.47,9.47,0,0,0,91,110a28.53,28.53,0,0,0,.38-5.3,12.17,12.17,0,0,0-.71-4.28,5.75,5.75,0,0,0-2.82-3.17l-.18.76"/><circle class="cls-25" cx="104.42" cy="52.27" r="2.44"/><circle class="cls-26" cx="104.42" cy="52.27" r="2.44"/><circle class="cls-27" cx="103.9" cy="50.82" r="0.6"/><path class="cls-28" d="M181.26,146.93s-5.55-.54-7-.44c0,0-.91-.05-1,.55-.2.86.35,1.31,1.19,1.48s8.39-.11,8.39-.11l.06-1.24Z"/><path class="cls-28" d="M187.68,147.55s1.64-.23,2.28.75a5,5,0,0,0-2.47.46S186.09,148.33,187.68,147.55Z"/><path class="cls-29" d="M189,130.48S181.2,147,181.2,147.71s.88,2.38,2.56,0c1.91-2.69,8.35-15.78,8.35-15.78S191,129.79,189,130.48Z"/><path class="cls-30" d="M178.44,122.79a72.48,72.48,0,0,0,8,11c4.19,4.48,6.6,2.19,5.84-3.64s-1.68-9.9-3.06-12.2-3.77-5.7-8-3.64C176,116.86,178.44,122.79,178.44,122.79Z"/><path class="cls-29" d="M186.12,149.21s-8,.11-11.61,1.1c0,0-2.77.84-3.14-.55s4.81-2.06,4.81-2.06,5.81-1.36,9.94-.47c0,0,1.67,0,1.59.6S188.09,149.46,186.12,149.21Z"/><path class="cls-28" d="M171.69,149.42s-1.6.47-1.78,1.62a5.09,5.09,0,0,1,2.44-.6S173.45,149.48,171.69,149.42Z"/><path class="cls-29" d="M181.2,149.24s-4.39,1.8-4.82,2.82-2.56.59-2.08-.61,1.21-2.56,5.24-3.31C179.54,148.14,181.4,147.51,181.2,149.24Z"/><path class="cls-28" d="M174.54,151.54s-1,1.3-.53,2.35a5,5,0,0,1,1.66-1.89S176,150.58,174.54,151.54Z"/><path class="cls-28" d="M174.33,146.87s-2-.21-2.33.53c0,0,1.76-.26,2.22.25C174.22,147.65,175.09,147.34,174.33,146.87Z"/><path class="cls-30" d="M166.26,58.85S169,42.34,181.77,52.1c13.77,10.53,12.6,36.68,14.64,39.05s22.07,21.06,8.15,36.68-42.12-2-41.78-24.11S170,78.55,166.26,58.85Z"/><circle class="cls-16" cx="173.64" cy="55.61" r="3.52" transform="matrix(0.98, -0.18, 0.18, 0.98, -7.2, 32.38)"/><path class="cls-31" d="M175.52,54.41a2.23,2.23,0,0,0-2.8-.84.9.9,0,0,1,.47.37.89.89,0,0,1-.27,1.23.9.9,0,0,1-1.24-.27,1.63,1.63,0,0,1-.09-.19,2.23,2.23,0,1,0,3.93-.3Z"/><path class="cls-30" d="M203.55,100.05l48.61,36.43s-5.24,3.69-13.79-3.32c0,0-.36,5.8-8.51-.21,0,0-1,6.18-21.8-6.62S203.55,100.05,203.55,100.05Z"/><path class="cls-32" d="M212.23,116.62s15.09,8.17,17.45,14.31"/><path class="cls-32" d="M221,116.62s15.1,8.17,17.45,14.31"/><path class="cls-33" d="M147,68.1s6.71-6,18.57-7.91l5.2,1.31-2,2.63A58.49,58.49,0,0,0,147,68.1Z"/><path class="cls-34" d="M147,68.1a11.51,11.51,0,0,0,3.77-.35c2.12-.54,10.94-3,15.3-2.7s4.49.23,4.81-1.9-.17-2.19-.63-2.62C170.22,60.53,150.48,64.89,147,68.1Z"/><path class="cls-29" d="M168.1,53.84s-5.47,3.23-11.06,2.95-11.22.41-11.85,2.88A64.15,64.15,0,0,1,168,61.59s4,1.19,2.23-1.89S168.21,56.36,168.1,53.84Z"/><ellipse class="cls-35" cx="166.57" cy="56.99" rx="0.31" ry="0.85" transform="translate(41.88 181.28) rotate(-63.8)"/><path class="cls-29" d="M197.86,133.11s-7.77,16.53-7.77,17.22.87,2.39,2.56,0c1.9-2.68,8.34-15.77,8.34-15.77S199.92,132.41,197.86,133.11Z"/><path class="cls-30" d="M187.33,125.42a72.48,72.48,0,0,0,8,11c4.18,4.48,6.59,2.19,5.83-3.65s-1.67-9.9-3-12.19-3.77-5.7-8-3.65C184.88,119.48,187.33,125.42,187.33,125.42Z"/><path class="cls-28" d="M190.15,149.55s-5.56-.54-7-.43c0,0-.91-.05-1.05.54-.2.86.35,1.31,1.19,1.48s8.38-.1,8.38-.1l.07-1.24Z"/><path class="cls-28" d="M196.56,150.18s1.65-.23,2.29.74a5.08,5.08,0,0,0-2.48.46S195,151,196.56,150.18Z"/><path class="cls-29" d="M195,151.84s-8,.1-11.61,1.1c0,0-2.77.83-3.14-.55s4.81-2.07,4.81-2.07,5.81-1.36,9.94-.47c0,0,1.67,0,1.59.6S197,152.09,195,151.84Z"/><path class="cls-28" d="M180.57,152.05s-1.59.47-1.77,1.62a5.09,5.09,0,0,1,2.44-.6S182.34,152.1,180.57,152.05Z"/><path class="cls-29" d="M190.09,151.87s-4.39,1.8-4.82,2.82-2.57.59-2.08-.62,1.21-2.56,5.23-3.3C188.42,150.77,190.29,150.14,190.09,151.87Z"/><path class="cls-28" d="M183.43,154.17s-1,1.3-.53,2.35a5,5,0,0,1,1.66-1.9S184.9,153.2,183.43,154.17Z"/><path class="cls-28" d="M183.22,149.5s-1.95-.22-2.34.53c0,0,1.77-.26,2.23.24C183.11,150.27,184,150,183.22,149.5Z"/><path class="cls-36" d="M178.38,88.18c-3.54,2.29-3.51,8-2.5,11.49,2.31,8.13,10.21,14.17,17.41,17.84a9.63,9.63,0,0,0,3.38,1.12,1.61,1.61,0,0,0,1.67-2.07,8.08,8.08,0,0,0-.58-1.43c2.35,2.71,4.9,5.56,8.43,6.45a1,1,0,0,0,.94-.21c.43-.4.23-.91,0-1.34l-1-2.07a15.23,15.23,0,0,0,6.82,5,5,5,0,0,0,2.35.34,1,1,0,0,0,.82-1.12,7,7,0,0,0-1.24-3.07,21.75,21.75,0,0,0,4,3.64,8.33,8.33,0,0,0,3.24,1.24,1.36,1.36,0,0,0,1.42-1.87,9.63,9.63,0,0,0-1.2-2.15,43.43,43.43,0,0,0,6.21,5,2.55,2.55,0,0,0,.95.39c1.55.28,2-1.15,1.57-2.13-1.41-3.44-4.17-7-6.25-10.15a116,116,0,0,0-8.84-11.72C207,90.91,192.39,79.12,178.38,88.18Z"/><path class="cls-37" d="M185.75,98s9.59,6.81,11.41,16.31"/><path class="cls-37" d="M191.82,96.6s11.81,10,13.89,20.47"/><path class="cls-37" d="M202.1,99.5s10.69,8.51,13,19.25"/><path class="cls-37" d="M211.81,103.62a36.68,36.68,0,0,1,10.68,15.68"/><path class="cls-38" d="M169.2,74l-1.06,4.67c-.09.38.49.54.58.16l1.06-4.67c.09-.38-.5-.54-.58-.16Z"/><path class="cls-38" d="M171,74.3l-.29,1.63a.31.31,0,0,0,.21.37.32.32,0,0,0,.38-.21l.29-1.63a.32.32,0,0,0-.22-.37.32.32,0,0,0-.37.21Z"/><path class="cls-38" d="M174,73.8c-.19,1.3-.35,2.6-.48,3.91a.3.3,0,0,0,.6,0c.13-1.25.28-2.5.46-3.74a.32.32,0,0,0-.21-.38.3.3,0,0,0-.37.21Z"/><path class="cls-38" d="M177.1,74l.14.92a.3.3,0,0,0,.37.21.3.3,0,0,0,.19-.14.37.37,0,0,0,0-.23l-.15-.92a.3.3,0,0,0-.13-.18.29.29,0,0,0-.24,0,.31.31,0,0,0-.18.14.35.35,0,0,0,0,.23Z"/><path class="cls-38" d="M179.71,72.27A29,29,0,0,1,181,80.74a.31.31,0,0,0,.61,0,29.73,29.73,0,0,0-1.29-8.63.3.3,0,0,0-.58.16Z"/><path class="cls-38" d="M183.27,72l1.27,3.61c.13.36.71.21.58-.16l-1.27-3.61c-.13-.36-.71-.21-.58.16Z"/><path class="cls-38" d="M187,71.07c.11.17.21.33.31.51l.12.25s0,.1.07.14,0,0,0,0v0l0,.07a.32.32,0,0,0,.14.18.27.27,0,0,0,.23,0,.29.29,0,0,0,.21-.37,5.28,5.28,0,0,0-.59-1.13.31.31,0,0,0-.18-.14.31.31,0,0,0-.23,0,.3.3,0,0,0-.11.41Z"/><path class="cls-38" d="M164.43,107.4a28.81,28.81,0,0,0,5.29,12.23c.23.3.75,0,.52-.31A28.42,28.42,0,0,1,165,107.24c-.07-.38-.65-.22-.58.16Z"/><path class="cls-38" d="M168.51,113.76a35.74,35.74,0,0,0,8.78,10.7c.3.24.73-.18.43-.43A35.2,35.2,0,0,1,169,113.46a.3.3,0,0,0-.52.3Z"/><path class="cls-38" d="M166.13,101.18a72.15,72.15,0,0,0,1.43,7.14.31.31,0,0,0,.59-.16,72.77,72.77,0,0,1-1.44-7.14c-.05-.38-.64-.22-.58.16Z"/><path class="cls-38" d="M172.21,113.07a34.65,34.65,0,0,0,6.65,5.61c.33.22.63-.31.31-.52a34.49,34.49,0,0,1-6.54-5.52c-.26-.28-.69.14-.42.43Z"/><path class="cls-38" d="M180.42,115.5l3.46,2a.3.3,0,0,0,.31-.52l-3.47-2a.3.3,0,0,0-.3.52Z"/></svg>