<svg id="Layer_3" data-name="Layer 3" xmlns="http://www.w3.org/2000/svg" xmlns:xlink="http://www.w3.org/1999/xlink" viewBox="0 0 260 168"><defs><style>.cls-1{fill:#ea8313;}.cls-2{fill:#f7b03e;}.cls-3{fill:#f4912f;}.cls-4{fill:#9e4407;}.cls-5{fill:#d16d09;}.cls-6{clip-path:url(#clip-path);}.cls-7{fill:#d67513;}.cls-8{fill:#ff9f2c;}.cls-9{fill:#f99a10;}.cls-10{fill:#e51a1a;}.cls-11{fill:#561404;}.cls-12{fill:#fff;}.cls-13{fill:#ffc931;}.cls-14{fill:#d6a825;}.cls-15{clip-path:url(#clip-path-2);}.cls-16{fill:#f48d40;}.cls-17{fill:#f9cc3d;}.cls-18{fill:#fcd875;}.cls-19{fill:#f78411;}.cls-20{fill:#2d2d2d;}.cls-21{fill:#535454;}.cls-22{fill:#0c0c0c;}.cls-23{fill:#141414;}.cls-24{fill:none;stroke:#3f3f3f;stroke-linecap:round;stroke-linejoin:round;stroke-width:0.75px;}.cls-25{fill:#1e1e1e;}.cls-26{fill:#bc4b4b;}.cls-27{fill:#3a3a3a;}.cls-28{fill:#050505;}</style><clipPath id="clip-path"><path class="cls-1" d="M69.41,77.55S56.25,97.07,56.25,112s9.93,23.57,33,23.57c22.39,0,28.58-14.16,27-26s-11.85-32-11.85-32Z"/></clipPath><clipPath id="clip-path-2"><path class="cls-2" d="M98.37,56a10.57,10.57,0,0,1,2.26,2.39c.77,1.27,2.12,3.83,6.44,2.71s6.85-2.67,7.3-5.34c0,0-4.51-2.33-15.67.17Z"/></clipPath></defs><path class="cls-3" d="M109.13,83.22c6.72,5.32,13.48,11,17.5,18.59s4.69,17.53-.54,24.33c-4.27,5.54-11.4,7.9-18.11,9.89-2.63.78-5.67,1.5-7.94-.05-2-1.34-2.6-3.89-3-6.23A95.37,95.37,0,0,1,97.14,97c.77-4.29,1.93-8.73,4.87-12A5.74,5.74,0,0,1,105.39,83,2.78,2.78,0,0,1,108.5,85"/><path class="cls-3" d="M63.64,83.22c-6.73,5.32-13.49,11-17.51,18.59s-4.69,17.53.54,24.33c4.27,5.54,11.4,7.9,18.11,9.89,2.63.78,5.68,1.5,7.94-.05,2-1.34,2.6-3.89,3-6.23A95.12,95.12,0,0,0,75.62,97c-.76-4.29-1.93-8.73-4.86-12A5.8,5.8,0,0,0,67.37,83c-1.33-.17-2.14-1.86-2.4-.54Z"/><path class="cls-4" d="M77.41,139.29V154.2s-14.29,7.53-12.56,8.32,12.24-5,12.24-5,2.51,22.29,3.93.16c0,0,26,14,.23-3.3V138.42S78.27,134,77.41,139.29Z"/><path class="cls-4" d="M94.93,139.29V154.2s-14.28,7.53-12.56,8.32,12.25-5,12.25-5,2.51,22.29,3.92.16c0,0,26,14,.24-3.3V138.42S95.79,134,94.93,139.29Z"/><path class="cls-5" d="M66.88,130.34l6.05,8.74a8.71,8.71,0,0,0,1.47,1.78,7,7,0,0,0,5.32,1.26,7.76,7.76,0,0,0,3.76-1.22c2.11-1.49,2.8-4.25,3.33-6.77a1.08,1.08,0,0,0-.66-1.54,32.1,32.1,0,0,0-17-3.27,2.18,2.18,0,0,0-1.43.51c-.35.39-.25,1.17.27,1.25"/><path class="cls-5" d="M108.19,130.34l-6,8.74a9,9,0,0,1-1.46,1.78,7.06,7.06,0,0,1-5.33,1.26,7.76,7.76,0,0,1-3.76-1.22c-2.11-1.49-2.8-4.25-3.33-6.77a1.08,1.08,0,0,1,.66-1.54,32.1,32.1,0,0,1,17-3.27,2.16,2.16,0,0,1,1.43.51c.35.39.25,1.17-.26,1.25"/><path class="cls-1" d="M69.41,77.55S56.25,97.07,56.25,112s9.93,23.57,33,23.57c22.39,0,28.58-14.16,27-26s-11.85-32-11.85-32Z"/><g class="cls-6"><path class="cls-7" d="M62.79,84.64a3.9,3.9,0,0,0,.31,3,2.92,2.92,0,0,0,2.48.94c.92,0,1.82-.28,2.74-.32,2.44-.11,4.72,1.28,7.17,1.43a14.35,14.35,0,0,0,5.19-1,6,6,0,0,0,7.23.5,5.28,5.28,0,0,0,6.73-.37c2.32,1.92,5.89,1.1,8.43-.51a2.25,2.25,0,0,1,1.37-.52,2.71,2.71,0,0,1,1.08.52c2.54,1.6,6.15.44,8-1.95s2.14-5.62,1.75-8.59c-.32-2.43-1.24-5-3.38-6.23a13,13,0,0,0-4.42-1.08c-2.57-.41-5-1.32-7.56-1.92A65.34,65.34,0,0,0,87,67.25c-6.07-.24-12.19-.48-18.19.48A6.43,6.43,0,0,0,65.49,69a6.23,6.23,0,0,0-1,1.21,24.88,24.88,0,0,0-4.16,16.07"/><path class="cls-5" d="M53.76,121.73l7.59,6.11c1.44,1.16,3,2.38,4.84,2.58s4-1.11,3.92-3c1.71.12,3.16,1.22,4.65,2.06s3.41,1.43,4.87.53c.71-.44,1.29-1.21,2.12-1.23a3.8,3.8,0,0,1,1.86.85c2.35,1.37,5.3.18,7.73-1a2.31,2.31,0,0,0,3.09,1.68c1.17-.55,2-2.14,3.26-1.88a3.39,3.39,0,0,1,1,.5c2.29,1.29,5.16.31,7.56-.77a136.67,136.67,0,0,0,13-6.64,76,76,0,0,1-2.54,9.76c-1,3-2.38,6.19-5.21,7.58a12.1,12.1,0,0,1-3.62,1,62.86,62.86,0,0,1-9.59.78,90.42,90.42,0,0,1-15.09-1.76l-21.33-3.7c-3.35-.58-7-1.35-9.11-4s-1.92-6.61-1.58-10.09a.79.79,0,0,1,.88,1"/></g><path class="cls-8" d="M110,114.88a3.61,3.61,0,0,1-.7,2.34,12.22,12.22,0,0,1-1.74,1.86,15.42,15.42,0,0,1-2.49,2,9.13,9.13,0,0,0,3.78-1.51,5,5,0,0,0,2.1-3.28,2.32,2.32,0,0,0-1-2.36.81.81,0,0,1,0,.53Z"/><path class="cls-8" d="M102.86,114.88a3.55,3.55,0,0,1-.7,2.34,11.74,11.74,0,0,1-1.74,1.86,15.79,15.79,0,0,1-2.48,2,9.14,9.14,0,0,0,3.77-1.51,5,5,0,0,0,2.1-3.28,2.32,2.32,0,0,0-1-2.36.75.75,0,0,1,0,.53Z"/><path class="cls-8" d="M73.74,114.88a3.56,3.56,0,0,0,.71,2.34,11.74,11.74,0,0,0,1.74,1.86,15.35,15.35,0,0,0,2.48,2,9.18,9.18,0,0,1-3.78-1.51,5,5,0,0,1-2.1-3.28,2.35,2.35,0,0,1,1-2.36.81.81,0,0,0,0,.53Z"/><path class="cls-8" d="M66.2,114.88a3.55,3.55,0,0,0,.7,2.34,11.74,11.74,0,0,0,1.74,1.86,15.79,15.79,0,0,0,2.48,2,9.14,9.14,0,0,1-3.77-1.51,5,5,0,0,1-2.1-3.28,2.32,2.32,0,0,1,1-2.36.75.75,0,0,0,0,.53Z"/><path class="cls-9" d="M67.79,94.83A7.51,7.51,0,0,0,66.44,98a.34.34,0,0,0,.23.41.33.33,0,0,0,.41-.23,7,7,0,0,1,1.29-3,.34.34,0,0,0-.58-.34Z"/><path class="cls-9" d="M72.88,96.08a10.12,10.12,0,0,0-1,4.15.34.34,0,0,0,.67,0,9.3,9.3,0,0,1,.9-3.81c.18-.39-.39-.72-.58-.34Z"/><path class="cls-9" d="M79.68,94.79a31.64,31.64,0,0,0,0,9c.07.42.71.24.65-.18a30.22,30.22,0,0,1-.06-8.6c.06-.42-.58-.6-.64-.18Z"/><path class="cls-9" d="M86.8,95.57a18.76,18.76,0,0,1,1.53,8c0,.43.65.43.66,0a19.46,19.46,0,0,0-1.61-8.28c-.17-.4-.75-.06-.58.33Z"/><path class="cls-9" d="M93.75,95.18a14.92,14.92,0,0,1,1,8.11c-.07.42.58.6.64.18a15.7,15.7,0,0,0-1.06-8.62c-.17-.4-.75-.06-.58.33Z"/><path class="cls-9" d="M99.74,94.83a29,29,0,0,1,.93,7,.33.33,0,0,0,.66,0,29.8,29.8,0,0,0-1-7.22.33.33,0,0,0-.64.17Z"/><path class="cls-9" d="M105.2,94.59a5.83,5.83,0,0,1,.79,4.17c-.08.42.57.6.65.18a6.6,6.6,0,0,0-.87-4.69c-.22-.36-.8,0-.57.34Z"/><path class="cls-10" d="M96.34,35.7S95,29.75,87,25.93s-6.8,2.22-5.85,3.19c0,0-13.46-1.05-9,5.55,0,0-10.89,4.93-1.15,8l7.52-1Z"/><path class="cls-8" d="M62.19,83.6s5.39-8,5.76-30.28S93.81,23.61,104.85,46s8.28,36,8.28,36-.82,3.86-8.49,2c0,0-13.71,8.12-13.22.36,0,0-12.92,9.11-13.67,1.73,0,0-8.83,4.55-7.09.54C70.66,86.53,55.91,91,62.19,83.6Z"/><path class="cls-10" d="M99.82,38.53s-7.34-4.9-13.5,1,1,18.67,9.29,16.68c0,0-5.72.7-4.19,7.8,1.47,6.86,13.93,3.58,19.61-6a2.47,2.47,0,0,0,.2-2.15A48.61,48.61,0,0,0,99.82,38.53Z"/><path class="cls-11" d="M90.63,43.22a3,3,0,0,1-3,1,3.24,3.24,0,0,0,2.94.43Z"/><path class="cls-11" d="M90.55,44.4a2.09,2.09,0,0,1-2.11.7,2.25,2.25,0,0,0,2.07.31Z"/><ellipse class="cls-12" cx="95.05" cy="46.09" rx="4.91" ry="6.3" transform="translate(-10.19 36.99) rotate(-20.93)"/><path d="M98,42a1.5,1.5,0,0,1-2.87.23,1.46,1.46,0,0,1,0-1.07,4.31,4.31,0,0,0-.91.22,3.82,3.82,0,1,0,4.93,2.21A3.66,3.66,0,0,0,98,42Z"/><path class="cls-11" d="M97.59,41.34s-2.54-1.56-4.61-.67-2.76,3.42-3,5.47c0,0-.94-4.43,2.78-5.94C95.32,39.18,97.59,41.34,97.59,41.34Z"/><path class="cls-10" d="M105.94,60.82A11,11,0,0,0,107.64,72c4.41,5.82,20.43.61,3.64-15.65C111.28,56.39,105.87,55.74,105.94,60.82Z"/><ellipse class="cls-13" cx="87.29" cy="34.49" rx="1.33" ry="0.41" transform="translate(-4.2 13.53) rotate(-8.65)"/><ellipse class="cls-13" cx="85.26" cy="33.92" rx="0.56" ry="0.26" transform="translate(-6.49 32.69) rotate(-20.93)"/><path class="cls-14" d="M114.18,49a27.2,27.2,0,0,0-4.84,5.12c-2.1,3-8.5,3.78-9.42.65S114.18,49,114.18,49Z"/><path class="cls-2" d="M98.37,56a10.57,10.57,0,0,1,2.26,2.39c.77,1.27,2.12,3.83,6.44,2.71s6.85-2.67,7.3-5.34c0,0-4.51-2.33-15.67.17Z"/><g class="cls-15"><path class="cls-16" d="M97.36,55.59s2.18,2,11.33.87,8-1.7,7.81-1.84S103,53.32,103,53.32Z"/></g><path class="cls-17" d="M98.37,56a4.14,4.14,0,0,0,1-2.8c0-1.81-.21-8.16,3.56-9.86s9.57,2.68,11.26,5.51a6.73,6.73,0,0,1-2.45.76c-1.88.34-4.63,2.42-6.41,3.54S100,56.28,98.37,56Z"/><ellipse class="cls-18" cx="104.64" cy="44.17" rx="1.01" ry="0.44" transform="translate(-2.93 7.7) rotate(-4.16)"/><path class="cls-19" d="M73.42,65.1a69.93,69.93,0,0,1-5.84,14.35.33.33,0,0,0,.57.33,70.3,70.3,0,0,0,5.91-14.5.33.33,0,0,0-.64-.18Z"/><path class="cls-19" d="M74.23,68.83,73,72.53c-.14.4.5.57.64.17L74.87,69c.14-.4-.5-.57-.64-.17Z"/><path class="cls-19" d="M76.37,78.35a18.2,18.2,0,0,1-2.22,4.59c-.24.35.34.68.58.33A18.67,18.67,0,0,0,77,78.53c.14-.41-.5-.58-.64-.18Z"/><path class="cls-19" d="M93.56,77a33.42,33.42,0,0,1-.66,4.89c-.09.41.55.59.64.17A34.38,34.38,0,0,0,94.22,77c0-.42-.63-.42-.66,0Z"/><path d="M160.39,94.06s-6.77,31-10,38.84-9,10.32-4.06-18.36L151.1,89l4.89-6Z"/><path d="M189.78,93.23s8.51,30.58,12.19,38.21,9.52,9.79,3-18.56l-6.2-25.21L193.55,82Z"/><path d="M161,115.3s-8.83,24.29-7.51,29.83c1,4.34,6.43,3.91,11.46-4.67,0,0,1.12,21.38,12,5.24,0,0,12.37,16,11.84-5.92,0,0,23.46,22,3.1-27.44Z"/><path class="cls-20" d="M162,157.57s-7.07-.48-8.87-.3c0,0-1.15,0-1.31.73-.22,1.1.5,1.65,1.57,1.84S164,159.4,164,159.4l0-1.58Z"/><path class="cls-20" d="M170.13,158.14s2.08-.35,2.93.86a6.43,6.43,0,0,0-3.13.67S168.14,159.18,170.13,158.14Z"/><path class="cls-21" d="M164.37,135.39s-2.62,23-2.34,23.86,2,2.52,3.08-1c1.19-4,3.62-22.36,3.62-22.36S166.57,133.71,164.37,135.39Z"/><path class="cls-22" d="M155.75,124.69a92,92,0,0,0,6.51,15.95c3.81,6.79,7.47,4.69,8.29-2.73s.92-12.71-.09-16-2.92-8.17-8.72-6.9C154.52,116.63,155.75,124.69,155.75,124.69Z"/><path class="cls-21" d="M168.21,160.3s-10.15.42-14.69,1.81c0,0-3.48,1.16-4-.58s6-2.8,6-2.8,7.32-1.93,12.59-.95c0,0,2.12,0,2.05.71S170.73,160.55,168.21,160.3Z"/><path class="cls-20" d="M149.91,161.08s-2,.66-2.2,2.13a6.49,6.49,0,0,1,3.08-.86S152.15,161.09,149.91,161.08Z"/><path class="cls-21" d="M162,160.51s-5.51,2.45-6,3.76-3.23.83-2.66-.71,1.44-3.29,6.52-4.38C159.82,159.18,162.16,158.31,162,160.51Z"/><path class="cls-20" d="M153.6,163.67s-1.27,1.69-.58,3a6.44,6.44,0,0,1,2-2.46S155.44,162.39,153.6,163.67Z"/><path class="cls-20" d="M153.17,157.76s-2.48-.21-2.94.75c0,0,2.23-.39,2.83.23C153.06,158.74,154.15,158.32,153.17,157.76Z"/><path class="cls-20" d="M193.79,156.67s7-.88,8.83-.8c0,0,1.15-.1,1.35.66.29,1.08-.4,1.67-1.46,1.92s-10.64.16-10.64.16l-.13-1.57Z"/><path class="cls-20" d="M185.67,157.7s-2.09-.23-2.87,1a6.42,6.42,0,0,1,3.16.5S187.72,158.62,185.67,157.7Z"/><path class="cls-21" d="M190.13,134.66s3.92,22.84,3.69,23.69-1.88,2.63-3.13-.86c-1.42-3.93-4.88-22.12-4.88-22.12S187.84,133.11,190.13,134.66Z"/><path class="cls-22" d="M198.14,123.49a92.32,92.32,0,0,1-5.6,16.3c-3.42,7-7.19,5.1-8.44-2.27s-1.64-12.63-.81-15.93,2.46-8.32,8.32-7.39C198.91,115.37,198.14,123.49,198.14,123.49Z"/><path class="cls-21" d="M187.71,159.75s10.15-.16,14.77,1c0,0,3.54,1,4-.81s-6.18-2.45-6.18-2.45-7.41-1.52-12.62-.24c0,0-2.13.07-2,.82S185.21,160.14,187.71,159.75Z"/><path class="cls-20" d="M206,159.5s2,.54,2.31,2a6.45,6.45,0,0,0-3.12-.68S203.79,159.63,206,159.5Z"/><path class="cls-21" d="M194,159.61s5.63,2.13,6.22,3.41,3.27.65,2.61-.86-1.63-3.21-6.76-4C196,158.15,193.63,157.42,194,159.61Z"/><path class="cls-20" d="M202.48,162.29s1.37,1.61.76,3a6.37,6.37,0,0,0-2.18-2.34S200.57,161.11,202.48,162.29Z"/><path class="cls-20" d="M202.58,156.36s2.47-.35,3,.58c0,0-2.25-.26-2.82.39C202.74,157.33,201.63,157,202.58,156.36Z"/><path class="cls-22" d="M154.77,74.61s-1,15.65-4.13,23.87c-5.56,14.79,1.6,39.12,24,38.49v-.25a8.71,8.71,0,0,0,2,.19,8.59,8.59,0,0,0,2-.31v.25c22.38-.63,28.15-25.33,21.77-39.78-3.23-7.32-4.86-21.34-5.08-23.52C195.38,73.55,170.41,76,154.77,74.61Z"/><path class="cls-23" d="M140.64,95.32c6.41-21.72,15.15-19.54,15.15-19.54s11.33,2.09,5.75,16-31.95,61.6-20.46,19.17C141.08,111,128.51,136.38,140.64,95.32Z"/><path class="cls-24" d="M141.55,110.12s3.81-16.56,7.29-22.35"/><path class="cls-25" d="M155.43,113.26a42.7,42.7,0,0,0,5.15,12.31c.26.43.94,0,.67-.39a42.46,42.46,0,0,1-5.07-12.12.39.39,0,0,0-.75.2Z"/><path class="cls-25" d="M160.64,114.56a13.61,13.61,0,0,0,.89,2.21.39.39,0,0,0,.68-.39c-.09-.17-.17-.33-.24-.5a3.67,3.67,0,0,1-.2-.47,10.24,10.24,0,0,1-.37-1.06.39.39,0,0,0-.76.21Z"/><path class="cls-25" d="M166.85,104.7a62.66,62.66,0,0,0,3.33,14.42c.17.47.92.27.75-.21a61.4,61.4,0,0,1-3.3-14.21c-.06-.49-.84-.5-.78,0Z"/><path class="cls-25" d="M177.2,103.37a100.89,100.89,0,0,1,1,19.49c0,.5.76.5.78,0a102.23,102.23,0,0,0-1.05-19.7c-.07-.49-.82-.28-.75.21Z"/><path class="cls-25" d="M185,106.55a74.37,74.37,0,0,1-.39,12.3c0,.49.73.49.78,0a74.37,74.37,0,0,0,.39-12.3c0-.5-.81-.5-.78,0Z"/><path class="cls-25" d="M191.16,114.6l-.09.91a.4.4,0,0,0,.12.27.42.42,0,0,0,.27.12.4.4,0,0,0,.28-.12.46.46,0,0,0,.11-.27l.09-.91a.39.39,0,0,0-.11-.27.42.42,0,0,0-.28-.12.41.41,0,0,0-.39.39Z"/><path class="cls-25" d="M196,113.56c.31,1.19-.29,2.5-.68,3.61s-.9,2.32-1.41,3.46c-1,2.18-2.13,4.29-3.26,6.4-.24.44.44.84.67.39,1.26-2.33,2.51-4.67,3.57-7.1.5-1.13,1-2.27,1.35-3.43a6.09,6.09,0,0,0,.51-3.53.39.39,0,0,0-.75.2Z"/><path class="cls-22" d="M153.05,79.47a8.77,8.77,0,0,0,3.7,1.42c1.83.32,4.1.36,5.74-.66a.21.21,0,0,1,.31.08,5.55,5.55,0,0,0,2.44,2.4,6.43,6.43,0,0,0,2.74.48c1.72,0,3.41-.41,5.13-.45a11.59,11.59,0,0,1,4.56,1,15.49,15.49,0,0,0,4.53,1.41A7,7,0,0,0,187.43,83a.21.21,0,0,1,.25,0A7.46,7.46,0,0,0,191,84.7a6.69,6.69,0,0,0,3-.17,16,16,0,0,0,1.78-.57c-1-8.14,2.37-37.91-12.68-52.63-15.41-15.07-21.79,6.48-21.79,6.48C162.58,58.09,157.41,64.78,153.05,79.47Z"/><circle class="cls-12" cx="171.61" cy="34.69" r="4.72" transform="translate(53.97 164.36) rotate(-59.21)"/><path d="M173.62,34.25a3,3,0,0,0-3.6-1.57,1.24,1.24,0,0,1,.57.56,1.2,1.2,0,1,1-2.17,1,1.12,1.12,0,0,1-.08-.26,3,3,0,1,0,5.28.24Z"/><path class="cls-26" d="M135.58,50.61s9.66-7.22,25.75-8.47l6.82,2.36-3,3.29A78.58,78.58,0,0,0,135.58,50.61Z"/><path class="cls-27" d="M135.58,50.61a15.58,15.58,0,0,0,5.09,0c2.89-.48,15-2.78,20.78-1.87s6,.83,6.65-2,0-2.94-.54-3.57C167.56,43.14,140.64,46.72,135.58,50.61Z"/><path class="cls-21" d="M162.37,35.36s-5.9,6.16-13.23,7.82-14.37,4.6-14.28,8A85.78,85.78,0,0,1,165,45.44s5.62.08,2.2-3.26S163.42,38.58,162.37,35.36Z"/><ellipse class="cls-28" cx="163.12" cy="43.2" rx="1.14" ry="0.42" transform="translate(-4.52 23.9) rotate(-8.27)"/><path class="cls-25" d="M162.69,58.47l-2.17,6c-.18.5.61.71.78.22l2.18-6.05c.17-.49-.61-.7-.79-.21Z"/><path class="cls-25" d="M165,59.22l-.65,2.12a.41.41,0,0,0,.79.22l.65-2.12a.41.41,0,0,0-.79-.22Z"/><path class="cls-25" d="M169.08,59.05c-.46,1.66-.87,3.33-1.25,5-.11.51.67.73.78.22.38-1.68.79-3.35,1.25-5a.4.4,0,0,0-.78-.21Z"/><path class="cls-25" d="M173.24,59.67l0,1.25a.4.4,0,0,0,.4.4.41.41,0,0,0,.41-.4l0-1.25a.42.42,0,0,0-.41-.41.41.41,0,0,0-.4.41Z"/><path class="cls-25" d="M177,57.94a39.58,39.58,0,0,1,.29,11.5c-.06.52.75.51.81,0a39.64,39.64,0,0,0-.32-11.71c-.09-.52-.87-.3-.78.21Z"/><path class="cls-25" d="M181.8,58.13l1.11,5c.11.51.89.29.78-.22l-1.11-5c-.11-.51-.89-.3-.78.21Z"/><path class="cls-25" d="M187,57.53a3.78,3.78,0,0,1,.17.35.93.93,0,0,1,.05.1l0,.05,0-.05.08.2c.09.24.17.5.24.75a.4.4,0,1,0,.78-.21,6.9,6.9,0,0,0-.62-1.6.41.41,0,1,0-.7.41Z"/><path class="cls-23" d="M209.46,93.37c-7.63-21.32-16.23-18.65-16.23-18.65s-11.2,2.72-4.84,16.35,35.39,59.69,21.52,18C209.91,109.05,223.9,133.68,209.46,93.37Z"/><path class="cls-24" d="M209.39,108.2s-4.74-16.32-8.55-21.91"/></svg>