<svg id="Layer_2" data-name="Layer 2" xmlns="http://www.w3.org/2000/svg" xmlns:xlink="http://www.w3.org/1999/xlink" viewBox="0 0 260 168"><defs><style>.cls-1{fill:#ea8313;}.cls-2{fill:#f7b03e;}.cls-3{fill:#893a04;}.cls-4{fill:#893d0a;}.cls-5{fill:#d8730f;}.cls-6{fill:#9e4407;}.cls-7{clip-path:url(#clip-path);}.cls-8{fill:#a05000;}.cls-9{fill:#db7712;}.cls-10{fill:#ce6c0b;}.cls-11{fill:#ff9f2c;}.cls-12,.cls-28,.cls-35{fill:none;stroke-linecap:round;stroke-linejoin:round;}.cls-12{stroke:#f99a10;stroke-width:0.51px;}.cls-13{fill:#f99a10;}.cls-14{fill:#e51a1a;}.cls-15{fill:#561404;}.cls-16{fill:#fff;}.cls-17{fill:#ffc931;}.cls-18{fill:#d6a825;}.cls-19{clip-path:url(#clip-path-2);}.cls-20{fill:#f48d40;}.cls-21{fill:#f9cc3d;}.cls-22{fill:#fcd875;}.cls-23{fill:#f78411;}.cls-24{fill:#f4912f;}.cls-25{fill:#2d2d2d;}.cls-26{fill:#535454;}.cls-27{fill:#0c0c0c;}.cls-28,.cls-35{stroke:#3f3f3f;}.cls-28{stroke-width:0.39px;}.cls-29{fill:#1e1e1e;}.cls-30{fill:#231f20;}.cls-31{fill:#bc4b4b;}.cls-32{fill:#3a3a3a;}.cls-33{fill:#050505;}.cls-34{fill:#141414;}.cls-35{stroke-width:0.59px;}.cls-36{fill:#fff1e1;}.cls-37{opacity:0.36;fill:url(#radial-gradient);}.cls-38{opacity:0.44;fill:url(#radial-gradient-2);}</style><clipPath id="clip-path"><path class="cls-1" d="M97.71,77c-3.48-.52-8.3,6-11.34,4.16-1-.6-1.93,3-2.83,2.22a7.73,7.73,0,0,1-1,.62c-21.61-2-34.08,4.67-34.08,4.67-7-12.07-7.39-.77-7.39-.77C27.4,71.36,29.55,83.24,29.55,83.24,7.93,72.53,20.78,91,20.78,91c-15-.19,7.21,16.75,7.21,16.75,5.45,19.86,31.92,20.75,31.92,20.75,7.88,13.68,17.6.62,17.6.62,11.81-2.14,26.23-8.91,26.23-8.91,11.18-7.33,9.9-30.37,7.19-42.08C105.58,79.25,103.09,77.84,97.71,77Z"/></clipPath><clipPath id="clip-path-2"><path class="cls-2" d="M100.19,61.54a8.13,8.13,0,0,1,1.68,1.93c.56,1,1.54,3,4.92,2.28s5.39-1.87,5.82-3.94c0,0-3.43-1.93-12.17-.31Z"/></clipPath><radialGradient id="radial-gradient" cx="122.64" cy="62.61" r="2.44" gradientTransform="matrix(0.91, 0.41, -0.41, 0.91, 50.44, -67.13)" gradientUnits="userSpaceOnUse"><stop offset="0.58" stop-color="#c49a6c" stop-opacity="0"/><stop offset="0.62" stop-color="#c89a6c" stop-opacity="0.06"/><stop offset="0.7" stop-color="#d1996c" stop-opacity="0.22"/><stop offset="0.81" stop-color="#e1976c" stop-opacity="0.47"/><stop offset="0.95" stop-color="#f6956c" stop-opacity="0.81"/><stop offset="1" stop-color="#ff946c" stop-opacity="0.95"/></radialGradient><radialGradient id="radial-gradient-2" cx="121.58" cy="61.49" r="0.6" gradientTransform="matrix(0.91, 0.41, -0.41, 0.91, 50.44, -67.13)" gradientUnits="userSpaceOnUse"><stop offset="0.06" stop-color="#fff" stop-opacity="0"/><stop offset="0.14" stop-color="#fff" stop-opacity="0.06"/><stop offset="0.27" stop-color="#fff" stop-opacity="0.21"/><stop offset="0.46" stop-color="#fff" stop-opacity="0.46"/><stop offset="0.59" stop-color="#fff" stop-opacity="0.65"/><stop offset="0.61" stop-color="#fff" stop-opacity="0.67"/><stop offset="0.71" stop-color="#fff" stop-opacity="0.79"/><stop offset="0.81" stop-color="#fff" stop-opacity="0.88"/><stop offset="0.91" stop-color="#fff" stop-opacity="0.93"/><stop offset="1" stop-color="#fff" stop-opacity="0.95"/></radialGradient></defs><path class="cls-3" d="M70.54,145.76s10.09-1.14,14,1-14.34.77-14.34.77Z"/><path class="cls-4" d="M73.23,129.7l-5.42,16s-8.64,1.07-10.25,2.81c0,0-1,1.28,3.27.88a66,66,0,0,1,13.4.3c4.26.51,9.09,2,11.16,2s-2.35-2.44-5.16-3L77.64,148s6.31.9,8.31,1.08-1.35-3.23-11.43-3.49l-2.84.06s4.14-11.42,5.3-16.27S76,124,73.23,129.7Z"/><path class="cls-5" d="M67.54,128.17c.11,1.2,1.19,2,2.18,2.73l3,2.09a4.4,4.4,0,0,0,1.26.68,3.29,3.29,0,0,0,2.7-.72A9.09,9.09,0,0,0,80,125.23c-4.39-.28-8.83-.55-13.16.23a.83.83,0,0,0-.47.19c-.23.25-.08.65.08.95l1.07,1.94"/><path class="cls-3" d="M65.29,147s10-1.68,14,.21S65,148.73,65,148.73Z"/><path class="cls-6" d="M67.11,130.8l-4.55,16.25s-8.57,1.54-10.09,3.36c0,0-.89,1.33,3.32.7a65.78,65.78,0,0,1,13.39-.42c4.29.28,9.19,1.54,11.26,1.4s-2.49-2.31-5.32-2.73l-2.62-.49s6.35.56,8.35.63-1.51-3.15-11.6-2.87l-2.83.21s3.52-11.62,4.42-16.53S69.53,125,67.11,130.8Z"/><path class="cls-1" d="M97.71,77c-3.48-.52-8.3,6-11.34,4.16-1-.6-1.93,3-2.83,2.22a7.73,7.73,0,0,1-1,.62c-21.61-2-34.08,4.67-34.08,4.67-7-12.07-7.39-.77-7.39-.77C27.4,71.36,29.55,83.24,29.55,83.24,7.93,72.53,20.78,91,20.78,91c-15-.19,7.21,16.75,7.21,16.75,5.45,19.86,31.92,20.75,31.92,20.75,7.88,13.68,17.6.62,17.6.62,11.81-2.14,26.23-8.91,26.23-8.91,11.18-7.33,9.9-30.37,7.19-42.08C105.58,79.25,103.09,77.84,97.71,77Z"/><g class="cls-7"><path class="cls-8" d="M12,114a26.61,26.61,0,0,0,13.13-3,1.34,1.34,0,0,1,0-2.49,36.05,36.05,0,0,1-5.25-11.67,4.14,4.14,0,0,1-.11-2.23,3,3,0,0,1,2.85-1.86,9,9,0,0,1,3.49.88c-.85-1.4-1.64-2.82-2.39-4.27a7.66,7.66,0,0,1-1-3.09,2.77,2.77,0,0,1,1.48-2.7,3.83,3.83,0,0,1,3.24.61,22.94,22.94,0,0,1,5.13,3.95c-.16-1.07-.85-2-1.05-3.08S32,82.54,33,82.65a2.42,2.42,0,0,1,1.33.84l8.71,8.74a16.6,16.6,0,0,1-.26-3.71,3.94,3.94,0,0,1,1.79-3.1,2.27,2.27,0,0,1,3.15.94,83,83,0,0,0-6.83-9.81,15.21,15.21,0,0,0-3-3c-3-2.07-6.88-2-10.49-1.86-4.57.18-9.35.43-13.28,2.77s-6.53,6.62-7.58,11.1a33.74,33.74,0,0,0,.11,13.72c.86,4.77,2.24,9.84.37,14.32a4.47,4.47,0,0,0,2.55.31l-2.28.82"/><path class="cls-9" d="M76.09,79.32c-.61,1.48-2.3,2.41-2.58,4s1.18,3.12,2.78,3.49a9.79,9.79,0,0,0,4.83-.53A1.55,1.55,0,0,0,82,88.19a3.74,3.74,0,0,0,2.32.09,14.76,14.76,0,0,0,3.91-1.41c.71,1.71,3.16,1.66,4.91,1a18.71,18.71,0,0,0,4.41-2.19,2.48,2.48,0,0,0,2.32,1.17,7.14,7.14,0,0,0,2.61-.77l5.71-2.5a2.46,2.46,0,0,0,3.55.07,1.62,1.62,0,0,0,1.38.62c-.19-.71.79-1.18,1.52-1.07s1.48.49,2.16.21c1-.4,1-1.72.89-2.75a28.16,28.16,0,0,0-4.43-12.58c-2.58-3.68-6.62-6.49-11.1-6.83a23.34,23.34,0,0,0-7.22.93,78.63,78.63,0,0,0-10.62,3.3c-3.32,1.35-6.84,3.46-7.66,7-.53,2.22.16,4.6-.38,6.81"/></g><ellipse class="cls-10" cx="59.58" cy="89.51" rx="3.28" ry="0.95"/><ellipse class="cls-10" cx="53.71" cy="91.26" rx="2.59" ry="0.75"/><path class="cls-11" d="M97.85,113.33a2.72,2.72,0,0,1-1.15,1.49,9,9,0,0,1-1.76.87,12,12,0,0,1-2.34.75,6.93,6.93,0,0,0,3.14,0,3.9,3.9,0,0,0,2.42-1.79,1.8,1.8,0,0,0,0-2,.63.63,0,0,1-.17.38Z"/><path class="cls-11" d="M35,115.31a2.7,2.7,0,0,0,1.14,1.49,8.31,8.31,0,0,0,1.77.87,12.07,12.07,0,0,0,2.34.76,7.08,7.08,0,0,1-3.14-.05,3.89,3.89,0,0,1-2.42-1.8,1.8,1.8,0,0,1,0-2,.6.6,0,0,0,.17.38Z"/><path class="cls-11" d="M42,121.44a2.7,2.7,0,0,0,1.57,1,8.4,8.4,0,0,0,1.95.25,11.79,11.79,0,0,0,2.45,0,7,7,0,0,1-3,1,3.88,3.88,0,0,1-2.87-.92,1.8,1.8,0,0,1-.59-1.88.6.6,0,0,0,.28.31Z"/><path class="cls-11" d="M75.86,91a2.76,2.76,0,0,1-1.54,1.09,8.94,8.94,0,0,1-1.94.32,11.79,11.79,0,0,1-2.45.05,7.1,7.1,0,0,0,3,.86,3.91,3.91,0,0,0,2.83-1,1.81,1.81,0,0,0,.52-1.9.54.54,0,0,1-.27.31Z"/><path class="cls-11" d="M82.93,91a2.74,2.74,0,0,1-1,1.59,8.7,8.7,0,0,1-1.68,1,11.54,11.54,0,0,1-2.26,1,7,7,0,0,0,3.12-.33,3.86,3.86,0,0,0,2.25-2,1.81,1.81,0,0,0-.23-2,.56.56,0,0,1-.13.39Z"/><path class="cls-11" d="M103.1,113.66a2.79,2.79,0,0,1-.84,1.69,9.08,9.08,0,0,1-1.57,1.18,11.87,11.87,0,0,1-2.15,1.19,7,7,0,0,0,3.07-.65,3.84,3.84,0,0,0,2-2.22,1.78,1.78,0,0,0-.42-1.92.57.57,0,0,1-.09.4Z"/><path class="cls-11" d="M108.21,111.83a2.8,2.8,0,0,1-.55,1.8,9.12,9.12,0,0,1-1.34,1.44,11.83,11.83,0,0,1-1.92,1.53,7,7,0,0,0,2.92-1.16,3.92,3.92,0,0,0,1.62-2.53,1.82,1.82,0,0,0-.74-1.83.58.58,0,0,1,0,.41Z"/><path class="cls-11" d="M51.58,87.79S64.93,83.57,72,84.65Z"/><path class="cls-12" d="M96.46,98.17a4.25,4.25,0,0,1-3.7,2.6"/><path class="cls-13" d="M101.79,98.06c.17,1.19-.67,2.22-1.37,3.07a.26.26,0,0,0,0,.36.25.25,0,0,0,.36,0c.85-1,1.71-2.16,1.51-3.56a.25.25,0,0,0-.32-.18.27.27,0,0,0-.18.31Z"/><path class="cls-13" d="M107.6,98.81a.41.41,0,0,1,.05.09l0-.06a.84.84,0,0,1,0,.17v-.07a.48.48,0,0,1,0,.17V99l0,.13a.25.25,0,0,0,.18.32.28.28,0,0,0,.2,0,.25.25,0,0,0,.11-.15.8.8,0,0,0,.05-.21V99a1.17,1.17,0,0,0-.13-.4.26.26,0,0,0-.16-.11.28.28,0,0,0-.2,0,.26.26,0,0,0-.11.16.21.21,0,0,0,0,.19Z"/><path class="cls-13" d="M24.26,98.41a22.11,22.11,0,0,0,5.64,4.29.26.26,0,0,0,.26-.44,21.94,21.94,0,0,1-5.54-4.21c-.21-.25-.58.11-.36.36Z"/><path class="cls-13" d="M27.19,98.08l1,.69a.26.26,0,0,0,.26-.44l-1-.7a.26.26,0,0,0-.26.45Z"/><path class="cls-13" d="M25,87a21,21,0,0,0,11.56,8.55.26.26,0,0,0,.13-.5,20.48,20.48,0,0,1-11.25-8.31c-.18-.28-.63,0-.44.26Z"/><path class="cls-13" d="M30.72,89.49a10.41,10.41,0,0,0,1.46.9.27.27,0,0,0,.35-.09.28.28,0,0,0-.09-.36A10.41,10.41,0,0,1,31,89a.25.25,0,0,0-.35.1.27.27,0,0,0,.09.35Z"/><path class="cls-13" d="M36.49,87.44l.9.76a.24.24,0,0,0,.36,0,.25.25,0,0,0,0-.36l-.9-.77a.27.27,0,0,0-.36,0,.27.27,0,0,0,0,.37Z"/><path class="cls-13" d="M45.48,87.21a11.68,11.68,0,0,0,1.63,2.08c.23.24.59-.13.36-.36a11,11,0,0,1-1.55-2,.26.26,0,0,0-.44.26Z"/><path class="cls-13" d="M31.77,104.92a6.35,6.35,0,0,0,.73,2.28c.16.29.6,0,.44-.26a5.7,5.7,0,0,1-.65-2,.26.26,0,0,0-.52,0Z"/><path class="cls-13" d="M31.22,106.49l.07.07a.26.26,0,0,0,.09,0,.12.12,0,0,0,.1,0,.1.1,0,0,0,.09,0,.26.26,0,0,0,.09,0l0,0a.31.31,0,0,0,0-.13v-.07a.24.24,0,0,0-.06-.11l-.07-.07a.21.21,0,0,0-.08-.06l-.1,0-.1,0a.18.18,0,0,0-.09.06l0,.05a.28.28,0,0,0,0,.13v.07a.24.24,0,0,0,.06.11Z"/><path class="cls-13" d="M70.41,87l2.14-.38a.25.25,0,0,0,.18-.32.27.27,0,0,0-.32-.18l-2.14.39a.26.26,0,0,0-.18.31.26.26,0,0,0,.32.18Z"/><path class="cls-13" d="M72.05,87.58l.07-.07a.35.35,0,0,0,0-.08.44.44,0,0,0,0-.1.3.3,0,0,0,0-.1.26.26,0,0,0,0-.09l-.06,0a.28.28,0,0,0-.13,0h-.07a.24.24,0,0,0-.11.06l-.07.07a.26.26,0,0,0-.05.09.16.16,0,0,0,0,.1.15.15,0,0,0,0,.09.26.26,0,0,0,.05.09l0,0a.31.31,0,0,0,.13,0h.07a.27.27,0,0,0,.12-.06Z"/><path class="cls-14" d="M99.22,45.9s-.9-4.65-7-7.84-5.34,1.52-4.63,2.3c0,0-10.41-1.19-7.17,4,0,0-8.58,3.52-1.11,6.15L85.21,50Z"/><path class="cls-11" d="M74.85,84.48s3.53-6.57,2.05-23.84,17.61-25,27.91-8.6,9.24,27.12,9.24,27.12-.33,3-6.39,2.18c0,0-10,7.36-10.18,1.33,0,0-9.26,8.06-10.42,2.42,0,0-6.46,4.21-5.44,1C81.62,86.07,70.59,90.69,74.85,84.48Z"/><path class="cls-14" d="M101.84,48.2s-5.55-4-10.5.41.22,14.51,6.73,13.2c0,0-4.45.38-3.47,5.94.94,5.36,10.7,3.17,15.38-4.08A1.94,1.94,0,0,0,110.2,62,37.74,37.74,0,0,0,101.84,48.2Z"/><path class="cls-15" d="M94.58,51.58a2.31,2.31,0,0,1-2.35.68,2.52,2.52,0,0,0,2.27.42Z"/><path class="cls-15" d="M94.49,52.49a1.64,1.64,0,0,1-1.66.48,1.76,1.76,0,0,0,1.6.3Z"/><ellipse class="cls-16" cx="97.93" cy="53.92" rx="3.81" ry="4.89" transform="translate(-12.16 34.48) rotate(-18.82)"/><path d="M100,52.09a1.16,1.16,0,0,1-2.23.11,1.13,1.13,0,0,1,0-.83,2.88,2.88,0,0,0-.71.14,3,3,0,1,0,3.76,1.85A2.89,2.89,0,0,0,100,52.09Z"/><path class="cls-15" d="M100,50.31s-1.92-1.28-3.55-.65S94.23,52.24,94,53.82c0,0-.61-3.46,2.32-4.53C98.33,48.57,100,50.31,100,50.31Z"/><path class="cls-14" d="M106,65.66a8.56,8.56,0,0,0,1,8.75c3.25,4.64,15.82,1.06,3.26-12C110.22,62.37,106,61.72,106,65.66Z"/><ellipse class="cls-17" cx="92.24" cy="44.7" rx="1.03" ry="0.32" transform="translate(-4.5 10.81) rotate(-6.55)"/><ellipse class="cls-17" cx="90.68" cy="44.2" rx="0.43" ry="0.2" transform="translate(-9.41 31.62) rotate(-18.82)"/><path class="cls-18" d="M112.94,57.46a20.69,20.69,0,0,0-4.12,3.59c-1.85,2.15-5.81,2-6.28-.54S112.94,57.46,112.94,57.46Z"/><path class="cls-2" d="M100.19,61.54a8.13,8.13,0,0,1,1.68,1.93c.56,1,1.54,3,4.92,2.28s5.39-1.87,5.82-3.94c0,0-3.43-1.93-12.17-.31Z"/><g class="cls-19"><path class="cls-20" d="M99.42,61.18s1.63,1.58,8.76,1,6.25-1.09,6.11-1.2-10.45-1.39-10.45-1.39Z"/></g><path class="cls-21" d="M100.2,61.7a3.18,3.18,0,0,0,1-2.09c.12-1.4.46-6.31,3.5-7.34s7.19,2.79,8.28,5.11a5.52,5.52,0,0,1-2,.4c-1.48.12-3.76,1.51-5.22,2.24S101.42,62,100.2,61.7Z"/><ellipse class="cls-22" cx="105.94" cy="53" rx="0.34" ry="0.78" transform="translate(50.31 157.59) rotate(-88.57)"/><path class="cls-23" d="M82.06,69.28a54,54,0,0,1-3.39,11.6c-.13.31.37.44.49.14a54.47,54.47,0,0,0,3.4-11.61c0-.32-.44-.46-.5-.13Z"/><path class="cls-23" d="M83,72.09l-.68,3c-.08.32.42.46.49.13l.69-3c.07-.33-.42-.46-.5-.14Z"/><path class="cls-23" d="M85.4,79.27A14.41,14.41,0,0,1,84.05,83c-.16.29.29.55.44.26a14.27,14.27,0,0,0,1.4-3.84c.07-.32-.43-.46-.49-.14Z"/><path class="cls-23" d="M98.55,76.84a26.58,26.58,0,0,1-.13,3.89c0,.33.48.33.52,0a26.58,26.58,0,0,0,.12-3.89c0-.33-.53-.33-.51,0Z"/><path class="cls-24" d="M88.08,105.07c2.43,14.1-11.73,19.16-29.22,13.39s-8.63-12-8.63-12C36.52,96.52,45.36,94.3,45.36,94.3c-14-15.78-2-12.58-2-12.58C29.89,65.94,40.62,66,65.91,81c22.51,13.3,22,21.73,22,21.73Z"/><path class="cls-1" d="M86.58,97.5c-1.52.82-3.25,1.94-3.29,3.67,0,1.4,1.09,2.52,2.17,3.41a3.66,3.66,0,0,0,1.08,6.75c-1.09.37-1.56,1.62-1.87,2.72a1.67,1.67,0,0,0,0,1.3c.3.5,1,.53,1.59.41a5.71,5.71,0,0,0,3.93-3A9.47,9.47,0,0,0,91,110a28.53,28.53,0,0,0,.38-5.3,12.17,12.17,0,0,0-.71-4.28,5.75,5.75,0,0,0-2.82-3.17l-.18.76"/><path class="cls-25" d="M181.26,146.93s-5.55-.54-7-.44c0,0-.91-.05-1,.55-.2.86.35,1.31,1.19,1.48s8.39-.11,8.39-.11l.06-1.24Z"/><path class="cls-25" d="M187.68,147.55s1.64-.23,2.28.75a5,5,0,0,0-2.47.46S186.09,148.33,187.68,147.55Z"/><path class="cls-26" d="M189,130.48S181.2,147,181.2,147.71s.88,2.38,2.56,0c1.91-2.69,8.35-15.78,8.35-15.78S191,129.79,189,130.48Z"/><path class="cls-27" d="M178.44,122.79a72.48,72.48,0,0,0,8,11c4.19,4.48,6.6,2.19,5.84-3.64s-1.68-9.9-3.06-12.2-3.77-5.7-8-3.64C176,116.86,178.44,122.79,178.44,122.79Z"/><path class="cls-26" d="M186.12,149.21s-8,.11-11.61,1.1c0,0-2.77.84-3.14-.55s4.81-2.06,4.81-2.06,5.81-1.36,9.94-.47c0,0,1.67,0,1.59.6S188.09,149.46,186.12,149.21Z"/><path class="cls-25" d="M171.69,149.42s-1.6.47-1.78,1.62a5.09,5.09,0,0,1,2.44-.6S173.45,149.48,171.69,149.42Z"/><path class="cls-26" d="M181.2,149.24s-4.39,1.8-4.82,2.82-2.56.59-2.08-.61,1.21-2.56,5.24-3.31C179.54,148.14,181.4,147.51,181.2,149.24Z"/><path class="cls-25" d="M174.54,151.54s-1,1.3-.53,2.35a5,5,0,0,1,1.66-1.89S176,150.58,174.54,151.54Z"/><path class="cls-25" d="M174.33,146.87s-2-.21-2.33.53c0,0,1.76-.26,2.22.25C174.22,147.65,175.09,147.34,174.33,146.87Z"/><path class="cls-27" d="M196.41,91.15a8.55,8.55,0,0,1-.89-3.35,18.3,18.3,0,0,1-7.47,2.72,59.37,59.37,0,0,1-9.51.73,69.8,69.8,0,0,1-9.14-.48,44.31,44.31,0,0,1-5.34-1,86.77,86.77,0,0,0-1.28,13.92c-.34,22.07,27.85,39.73,41.78,24.11S198.44,93.53,196.41,91.15Z"/><path class="cls-27" d="M203.55,100.05l48.61,36.43s-5.24,3.69-13.79-3.32c0,0-.36,5.8-8.51-.21,0,0-1,6.18-21.8-6.62S203.55,100.05,203.55,100.05Z"/><path class="cls-28" d="M212.23,116.62s15.09,8.17,17.45,14.31"/><path class="cls-28" d="M221,116.62s15.1,8.17,17.45,14.31"/><path class="cls-26" d="M197.86,133.11s-7.77,16.53-7.77,17.22.87,2.39,2.56,0c1.9-2.68,8.34-15.77,8.34-15.77S199.92,132.41,197.86,133.11Z"/><path class="cls-27" d="M187.33,125.42a72.48,72.48,0,0,0,8,11c4.18,4.48,6.59,2.19,5.83-3.65s-1.67-9.9-3-12.19-3.77-5.7-8-3.65C184.88,119.48,187.33,125.42,187.33,125.42Z"/><path class="cls-25" d="M190.15,149.55s-5.56-.54-7-.43c0,0-.91-.05-1.05.54-.2.86.35,1.31,1.19,1.48s8.38-.1,8.38-.1l.07-1.24Z"/><path class="cls-25" d="M196.56,150.18s1.65-.23,2.29.74a5.08,5.08,0,0,0-2.48.46S195,151,196.56,150.18Z"/><path class="cls-26" d="M195,151.84s-8,.1-11.61,1.1c0,0-2.77.83-3.14-.55s4.81-2.07,4.81-2.07,5.81-1.36,9.94-.47c0,0,1.67,0,1.59.6S197,152.09,195,151.84Z"/><path class="cls-25" d="M180.57,152.05s-1.59.47-1.77,1.62a5.09,5.09,0,0,1,2.44-.6S182.34,152.1,180.57,152.05Z"/><path class="cls-26" d="M190.09,151.87s-4.39,1.8-4.82,2.82-2.57.59-2.08-.62,1.21-2.56,5.23-3.3C188.42,150.77,190.29,150.14,190.09,151.87Z"/><path class="cls-25" d="M183.43,154.17s-1,1.3-.53,2.35a5,5,0,0,1,1.66-1.9S184.9,153.2,183.43,154.17Z"/><path class="cls-25" d="M183.22,149.5s-1.95-.22-2.34.53c0,0,1.77-.26,2.23.24C183.11,150.27,184,150,183.22,149.5Z"/><path class="cls-29" d="M164.43,107.4a28.81,28.81,0,0,0,5.29,12.23c.23.3.75,0,.52-.31A28.42,28.42,0,0,1,165,107.24c-.07-.38-.65-.22-.58.16Z"/><path class="cls-29" d="M168.51,113.76a35.74,35.74,0,0,0,8.78,10.7c.3.24.73-.18.43-.43A35.2,35.2,0,0,1,169,113.46a.3.3,0,0,0-.52.3Z"/><path class="cls-29" d="M166.13,101.18a72.15,72.15,0,0,0,1.43,7.14.31.31,0,0,0,.59-.16,72.77,72.77,0,0,1-1.44-7.14c-.05-.38-.64-.22-.58.16Z"/><path class="cls-29" d="M172.21,113.07a34.65,34.65,0,0,0,6.65,5.61c.33.22.63-.31.31-.52a34.49,34.49,0,0,1-6.54-5.52c-.26-.28-.69.14-.42.43Z"/><path class="cls-29" d="M180.42,115.5l3.46,2a.3.3,0,0,0,.31-.52l-3.47-2a.3.3,0,0,0-.3.52Z"/><path class="cls-27" d="M166.29,81A46.91,46.91,0,0,0,173,85.3a66,66,0,0,0,6.52,3.12,50.62,50.62,0,0,0,9.8,3.21,17,17,0,0,0,4.55.35,10.76,10.76,0,0,0,1.68-.3c2.37-8.21,8.18-25.19,1.67-37.14-7.68-14.09-16.92-.14-16.92-.14C177,68.44,172.2,72.4,166.29,81Z"/><circle class="cls-16" cx="188.39" cy="54.45" r="3.52" transform="translate(84.57 220.81) rotate(-74.15)"/><path class="cls-30" d="M190.62,54.65a2.23,2.23,0,0,0-2.23-2.44.91.91,0,0,1,.28.53.89.89,0,0,1-1.77.26.74.74,0,0,1,0-.21,2.23,2.23,0,1,0,3.72,1.86Z"/><path class="cls-31" d="M159,55s8.55-2.72,20.18.32l4.22,3.32-2.89,1.59A58.5,58.5,0,0,0,159,55Z"/><path class="cls-32" d="M159,55a11.6,11.6,0,0,0,3.58,1.21c2.15.37,11.22,1.7,15.08,3.75s4,2,5.17.23.72-2.07.49-2.65C183.28,57.55,163.46,53.51,159,55Z"/><path class="cls-26" d="M184.06,50.58s-6.31.72-11.3-1.81-10.43-4.19-12-2.19a63.91,63.91,0,0,1,20,11s3.19,2.71,2.81-.82S183.13,52.92,184.06,50.58Z"/><ellipse class="cls-33" cx="181.38" cy="52.83" rx="0.31" ry="0.85" transform="translate(8.2 128.32) rotate(-39.79)"/><path class="cls-29" d="M176.85,69.43,174,73.26a.31.31,0,0,0,.53.31l2.86-3.83a.3.3,0,0,0-.52-.31Z"/><path class="cls-29" d="M178.31,70.47l-.92,1.36a.3.3,0,1,0,.52.31l.92-1.37a.3.3,0,0,0-.1-.41.32.32,0,0,0-.42.11Z"/><path class="cls-29" d="M181.27,71.24q-1,1.62-2,3.3a.3.3,0,0,0,.52.3q.94-1.66,2-3.3c.21-.33-.31-.63-.52-.3Z"/><path class="cls-29" d="M184.1,72.59l-.25.9a.31.31,0,0,0,.59.16l.24-.9a.3.3,0,0,0-.58-.16Z"/><path class="cls-29" d="M187.16,72.18a29.11,29.11,0,0,1-2.27,8.18c-.16.35.36.66.52.31a30.21,30.21,0,0,0,2.36-8.49c0-.38-.56-.38-.61,0Z"/><path class="cls-29" d="M190.53,73.37l-.3,3.81c0,.38.57.38.6,0l.31-3.81c0-.39-.58-.39-.61,0Z"/><path class="cls-29" d="M194.35,74.06s0,.1,0,.15v.08c0,.07,0-.06,0,0s0,.2,0,.29a3.9,3.9,0,0,1,0,.59.29.29,0,0,0,.3.3.31.31,0,0,0,.31-.3,5.49,5.49,0,0,0-.1-1.28.31.31,0,0,0-.37-.21.3.3,0,0,0-.21.37Z"/><path class="cls-27" d="M165.2,84.32a59.15,59.15,0,0,0-1.8,11.15c-.16,5.08,17.84,3.44,17.84,3.44l9.17-5.73,6-2-1.58-5.5-22.59-1.31Z"/><path class="cls-34" d="M178.38,88.18c-3.54,2.29-3.51,8-2.5,11.49,2.31,8.13,10.21,14.17,17.41,17.84a9.63,9.63,0,0,0,3.38,1.12,1.61,1.61,0,0,0,1.67-2.07,8.08,8.08,0,0,0-.58-1.43c2.35,2.71,4.9,5.56,8.43,6.45a1,1,0,0,0,.94-.21c.43-.4.23-.91,0-1.34l-1-2.07a15.23,15.23,0,0,0,6.82,5,5,5,0,0,0,2.35.34,1,1,0,0,0,.82-1.12,7,7,0,0,0-1.24-3.07,21.75,21.75,0,0,0,4,3.64,8.33,8.33,0,0,0,3.24,1.24,1.36,1.36,0,0,0,1.42-1.87,9.63,9.63,0,0,0-1.2-2.15,43.43,43.43,0,0,0,6.21,5,2.55,2.55,0,0,0,.95.39c1.55.28,2-1.15,1.57-2.13-1.41-3.44-4.17-7-6.25-10.15a116,116,0,0,0-8.84-11.72C207,90.91,192.39,79.12,178.38,88.18Z"/><path class="cls-35" d="M185.75,98s9.59,6.81,11.41,16.31"/><path class="cls-35" d="M191.82,96.6s11.81,10,13.89,20.47"/><path class="cls-35" d="M202.1,99.5s10.69,8.51,13,19.25"/><path class="cls-35" d="M211.81,103.62a36.68,36.68,0,0,1,10.68,15.68"/><path class="cls-27" d="M166.29,81a25.05,25.05,0,0,0-1.56,5.24c-.85,3.82,9.49,2.25,9.49,1.57s1.69-4.38,1.29-5.17a30.59,30.59,0,0,0-1.8-2.69S169.71,74.44,166.29,81Z"/><circle class="cls-36" cx="137.01" cy="39.96" r="2.44"/><circle class="cls-37" cx="137.01" cy="39.96" r="2.44"/><circle class="cls-38" cx="136.49" cy="38.5" r="0.6"/></svg>