<svg id="Layer_1" data-name="Layer 1" xmlns="http://www.w3.org/2000/svg" xmlns:xlink="http://www.w3.org/1999/xlink" viewBox="0 0 260 168"><defs><style>.cls-1{fill:#9b632c;}.cls-2{fill:#773055;}.cls-3{clip-path:url(#clip-path);}.cls-4{fill:#8e5521;}.cls-5{fill:#689911;}.cls-6{fill:#81af1c;}.cls-7{clip-path:url(#clip-path-2);}.cls-8{fill:#cddb6a;}.cls-9{fill:#aa3779;}.cls-10{clip-path:url(#clip-path-3);}.cls-11{clip-path:url(#clip-path-4);}.cls-12{clip-path:url(#clip-path-5);}.cls-13{clip-path:url(#clip-path-6);}.cls-14{clip-path:url(#clip-path-7);}.cls-15{clip-path:url(#clip-path-8);}.cls-16{clip-path:url(#clip-path-9);}.cls-17{clip-path:url(#clip-path-10);}.cls-18{clip-path:url(#clip-path-11);}.cls-19{clip-path:url(#clip-path-12);}</style><clipPath id="clip-path"><path class="cls-1" d="M262.15,47.93C258.47,45.46,253,26.57,253,26.57l-8.59,2.19s8,12.38,9,17.57,0,8.18-5.79,6.59-15.17-11-27.35-15.77-19.69-2.07-19.69-2.07L203,40.79l.83.35s15.77,0,24.76,10.58,33.73,21.56,33.73,21.56a44.87,44.87,0,0,1,1.49,17.26c-1,9.81-6.88,13.91-12.73,15.81s-13.18,3.8-14.49,5,14.19.58,17.7,1.75,8.05,2.2,6,4.54S271,119.81,271,119.81v-83l-3.08-.44S268.22,52,262.15,47.93Z"/></clipPath><clipPath id="clip-path-2"><path class="cls-2" d="M241.67,17.77a15.3,15.3,0,0,0,.13-1.67.21.21,0,0,1,.31-.1s-.11,1,1.56,1.48a2.67,2.67,0,0,1,1.89,2h0c.25,1.18-.64,1.81-1.85,2.12s-2.37.19-2.69-1.06A3.26,3.26,0,0,1,241.67,17.77Z"/></clipPath><clipPath id="clip-path-3"><path class="cls-2" d="M212,25.2c.37-.34.71-1.28.89-1.43a.22.22,0,0,1,.32.06s-.54.81.7,2a2.66,2.66,0,0,1,.74,2.66h0c-.33,1.15-1.41,1.3-2.63,1s-2.18-.92-1.89-2.18C210.47,25.74,211.58,25.53,212,25.2Z"/></clipPath><clipPath id="clip-path-4"><path class="cls-2" d="M229.13,18c-.65-.6-1.27-2.28-1.59-2.54a.39.39,0,0,0-.57.09s1,1.46-1.25,3.65a4.75,4.75,0,0,0-1.32,4.74h0c.58,2.06,2.51,2.32,4.68,1.82s3.9-1.65,3.38-3.89C231.77,18.91,229.79,18.54,229.13,18Z"/></clipPath><clipPath id="clip-path-5"><path class="cls-2" d="M223.43,1c-.66-.59-1.28-2.27-1.6-2.54a.39.39,0,0,0-.57.1s1,1.45-1.24,3.64A4.75,4.75,0,0,0,218.69,7h0c.59,2.07,2.51,2.33,4.69,1.83s3.89-1.65,3.37-3.89C226.06,2,224.09,1.64,223.43,1Z"/></clipPath><clipPath id="clip-path-6"><path class="cls-2" d="M252.34,2.75c-.65-1-.82-3.48-1.14-3.95a.54.54,0,0,0-.79-.09s.72,2.28-3,4.33a6.5,6.5,0,0,0-3.54,5.75h0c0,2.94,2.43,4,5.49,4.18s5.75-.7,5.91-3.85C255.44,5,253,3.78,252.34,2.75Z"/></clipPath><clipPath id="clip-path-7"><path class="cls-2" d="M256,31.4c-.64-1-.81-3.49-1.14-3.95a.53.53,0,0,0-.79-.09s.73,2.28-3,4.33a6.5,6.5,0,0,0-3.54,5.75h0c0,2.94,2.43,4,5.49,4.17s5.75-.69,5.92-3.84C259.07,33.67,256.61,32.43,256,31.4Z"/></clipPath><clipPath id="clip-path-8"><path class="cls-2" d="M223.3,34.29c-.45-.71-.57-2.42-.79-2.74a.36.36,0,0,0-.55-.06s.5,1.58-2.1,3a4.51,4.51,0,0,0-2.46,4h0c0,2,1.69,2.79,3.82,2.9s4-.49,4.12-2.68C225.46,35.88,223.75,35,223.3,34.29Z"/></clipPath><clipPath id="clip-path-9"><path class="cls-2" d="M201.07,22.92c.71-.46,1.53-2,1.87-2.16a.37.37,0,0,1,.53.18s-1.12,1.22.64,3.61a4.52,4.52,0,0,1,.56,4.66h0c-.86,1.86-2.71,1.83-4.68,1s-3.43-2.12-2.62-4.15C198.45,23.45,200.36,23.38,201.07,22.92Z"/></clipPath><clipPath id="clip-path-10"><path class="cls-2" d="M205.83,4c.66-.57,1.3-2.23,1.62-2.49a.39.39,0,0,1,.57.11S207,3,209.19,5.25A4.71,4.71,0,0,1,210.43,10h0c-.62,2-2.53,2.27-4.68,1.73s-3.83-1.7-3.28-3.91C203.2,4.92,205.17,4.58,205.83,4Z"/></clipPath><clipPath id="clip-path-11"><path class="cls-2" d="M238.61,35c.51-.45,1-1.75,1.23-1.95a.3.3,0,0,1,.44.07s-.75,1.12,1,2.81a3.63,3.63,0,0,1,1,3.64h0c-.45,1.59-1.93,1.79-3.61,1.4s-3-1.26-2.59-3C236.58,35.73,238.1,35.44,238.61,35Z"/></clipPath><clipPath id="clip-path-12"><path class="cls-2" d="M200,13.17c.37-.33.72-1.28.9-1.43a.22.22,0,0,1,.32.06s-.55.81.7,2a2.66,2.66,0,0,1,.74,2.66h0c-.33,1.16-1.41,1.3-2.62,1s-2.19-.92-1.9-2.18C198.48,13.71,199.58,13.5,200,13.17Z"/></clipPath></defs><path class="cls-1" d="M262.15,47.93C258.47,45.46,253,26.57,253,26.57l-8.59,2.19s8,12.38,9,17.57,0,8.18-5.79,6.59-15.17-11-27.35-15.77-19.69-2.07-19.69-2.07L203,40.79l.83.35s15.77,0,24.76,10.58,33.73,21.56,33.73,21.56a44.87,44.87,0,0,1,1.49,17.26c-1,9.81-6.88,13.91-12.73,15.81s-13.18,3.8-14.49,5,14.19.58,17.7,1.75,8.05,2.2,6,4.54S271,119.81,271,119.81v-83l-3.08-.44S268.22,52,262.15,47.93Z"/><g class="cls-3"><path class="cls-4" d="M230.39,44.25c5.54,4.6,10.71,10,17.47,12.5,2.15.79,5,1.06,6.34-.81a4.85,4.85,0,0,0,.74-2.3c.7-6.21-3.17-12.08-7.82-16.26a30.89,30.89,0,0,0-14.82-7.75,22.33,22.33,0,0,0-8.23,0c-1.83.36-6.48,1.29-7.06,3.45s4.25,4.33,5.75,5.39C225.37,40.31,227.93,42.21,230.39,44.25Z"/><path class="cls-4" d="M253.83,66.48c1.88.49,3.86.93,5.33,2.2a11.19,11.19,0,0,1,1.78,2.16c1.1,1.63,2.16,3.69,1.29,5.45a4,4,0,0,1-3.69,1.95,12,12,0,0,1-4.23-1.17l-8.41-3.52a18.09,18.09,0,0,1-4.94-2.7,25.52,25.52,0,0,1-5.24-6.75c-.83-1.57-.55-3.87,1.68-3.66,2.48.24,5.68,2.44,8,3.33C246.17,64.05,253.83,66.32,253.83,66.48Z"/><path class="cls-4" d="M198.54,37.4c2.41,0,5-1,7.14.14a66.36,66.36,0,0,1-12.83,2.05l3.63.55c-.62,1.07-2.22,1.08-3.08,2-.59.6-.79,1.57-1.52,2-2.47,1.41-3.52-3.25-2.18-4.73C192,36.79,195.51,37.46,198.54,37.4Z"/><path class="cls-4" d="M218,43.75a8.4,8.4,0,0,0-3.35-2.45c3.32.06,6.44,1.58,9.18,3.46s5.22,4.11,8,5.89a5.5,5.5,0,0,1,1.37,1.07c.3.37.49.82.76,1.21a3.53,3.53,0,0,0,2.31,1.48,9.78,9.78,0,0,1-4.37-1.69,24.22,24.22,0,0,1,1.29,3.67c-2.56-1-5.36-1.24-7.91-2.24-3.56-1.39-6.4-4.1-9.39-6.48q-1.75-1.41-3.62-2.68c-.72-.49-2.13-1.14-1.77-2.29C211,41.17,216.68,43.43,218,43.75Z"/><path class="cls-4" d="M256.3,42.65a.81.81,0,0,1,.31-.59,15.6,15.6,0,0,0,5.17,7.7,3.94,3.94,0,0,0,3.28,1.12,3,3,0,0,0,1.88-1.8,8.47,8.47,0,0,0,.5-2.65,148.5,148.5,0,0,0,.21-16.07,12.91,12.91,0,0,0-.43-3.34,4.46,4.46,0,0,0-2-2.64,6.11,6.11,0,0,0-2.5-.58c-1.4-.11-2.8-.16-4.2-.14a8.88,8.88,0,0,0-5.44,1.42c-1.38,1.09-1,2.35-.62,3.89Q254.1,35.9,256.3,42.65Z"/><path class="cls-4" d="M255.53,110.89a12.17,12.17,0,0,0,6.12-4.92c1.28-2.22,1.61-5,3.23-7a1.26,1.26,0,0,1,.7-.53c.78-.18,1.25.85,1.28,1.65a15.4,15.4,0,0,1-1,5.22A84.21,84.21,0,0,1,261,117a6,6,0,0,1-1.53,2.13,6.16,6.16,0,0,1-3.72.9,40.18,40.18,0,0,1-9.3-.52c-1.71-.36-3.7-1.1-4.14-3a2.38,2.38,0,0,1,1.47-3c1.64-.68,3.7-.7,5.44-1A30.66,30.66,0,0,0,255.53,110.89Z"/></g><path class="cls-5" d="M269.25,45.8a11.84,11.84,0,0,1-15.46-.41,38.17,38.17,0,0,1-17.37,1.5,6.42,6.42,0,0,1-3.15-1.11,6.29,6.29,0,0,0-1.5-1.19,3.79,3.79,0,0,0-2.36.2,16.36,16.36,0,0,1-9.69-.82c-1.36-.5-2.68-1.1-4-1.71l-6.17-2.85a31.89,31.89,0,0,1-5.9-3.24,15.5,15.5,0,0,0-3.37-2.28c-1-.4-2.14-.47-3.19-.79-2.65-.81-4.57-3.09-6-5.46a7,7,0,0,1-1.26-3.58A2.81,2.81,0,0,1,192,21.25,7.57,7.57,0,0,1,192.19,10a4.76,4.76,0,0,0,1.15-1,4.19,4.19,0,0,0,.47-1.41,12.71,12.71,0,0,1,14.42-9.27c2-5.22,7.43-8.5,12.94-9.45s11.15,0,16.66,1a5.86,5.86,0,0,0,2.32.1,7.17,7.17,0,0,0,2.07-1c4.54-2.64,10-3,15.26-3.23,5.75-.28,11.83-.5,16.92,2.2a7.36,7.36,0,0,0,2.37,1,7,7,0,0,0,2.31-.26,19.33,19.33,0,0,1,12.85,1.6A15.35,15.35,0,0,1,299.85.23c.37,1.65.42,3.36.84,5a30.12,30.12,0,0,0,2.08,5c3.75,8.08,5.23,18.1.38,25.57A5.06,5.06,0,0,1,301,37.9a2.25,2.25,0,0,1-2.66-.7c-1.43,4.5-6.18,5.29-10.25,5.49-.67,0-1.43-.24-2.06-.18-1,.09-.58,0-1.35.64a31.85,31.85,0,0,1-2.35,2.29,12.13,12.13,0,0,1-6.09,2.15A10.79,10.79,0,0,1,269.25,45.8Z"/><path class="cls-5" d="M247.24,39.71a3.3,3.3,0,0,1,1.59.38,1.11,1.11,0,0,1,.48,1.41,1.23,1.23,0,0,1-1.23.49c-.47-.05-.91-.24-1.37-.3A2.67,2.67,0,0,0,244,43.37a2.74,2.74,0,0,1,2.66,1.09,3.71,3.71,0,0,0-4.09,2.37,10.26,10.26,0,0,1-.89,2.35l0,0a9.85,9.85,0,0,1,2.47.5,3.73,3.73,0,0,0,4.2-2.19,2.76,2.76,0,0,1-.51,2.83,2.67,2.67,0,0,0,2.9-1.43c.19-.43.27-.9.48-1.32a1.23,1.23,0,0,1,1.07-.78,1.12,1.12,0,0,1,.94,1.16,3.25,3.25,0,0,1-.54,1.54,3.42,3.42,0,0,0,1.27-.54,4,4,0,0,0,1.59-3.08,6.1,6.1,0,0,0-.94-3.39,1.3,1.3,0,0,0-.22-.29,1.11,1.11,0,0,0-.13-.36,6.13,6.13,0,0,0-2.37-2.62,4,4,0,0,0-3.44-.3A3.46,3.46,0,0,0,247.24,39.71Z"/><path class="cls-5" d="M235.75,40a3.28,3.28,0,0,1,1.62.21,1.13,1.13,0,0,1,.63,1.36,1.25,1.25,0,0,1-1.18.61c-.47,0-.93-.14-1.39-.15a2.68,2.68,0,0,0-2.58,2,2.76,2.76,0,0,1,2.77.8,3.71,3.71,0,0,0-3.82,2.79,10.77,10.77,0,0,1-.65,2.43v0a10.09,10.09,0,0,1,2.51.24,3.74,3.74,0,0,0,3.95-2.62,2.77,2.77,0,0,1-.21,2.87,2.66,2.66,0,0,0,2.73-1.73c.15-.44.18-.92.34-1.36a1.25,1.25,0,0,1,1-.89,1.12,1.12,0,0,1,1.05,1.06,3.32,3.32,0,0,1-.37,1.59,3.25,3.25,0,0,0,1.2-.68,4,4,0,0,0,1.26-3.22A6.14,6.14,0,0,0,243.3,42a1.48,1.48,0,0,0-.24-.26,1.62,1.62,0,0,0-.17-.35A6.22,6.22,0,0,0,240.26,39a4,4,0,0,0-3.46.06A3.34,3.34,0,0,0,235.75,40Z"/><path class="cls-5" d="M226.1,38.09a3.29,3.29,0,0,1,1.47.73,1.13,1.13,0,0,1,.15,1.48,1.24,1.24,0,0,1-1.31.2c-.45-.15-.83-.43-1.27-.6a2.67,2.67,0,0,0-3.07,1,2.75,2.75,0,0,1,2.35,1.66A3.72,3.72,0,0,0,219.89,44a10.34,10.34,0,0,1-1.39,2.08l0,0a10,10,0,0,1,2.3,1,3.72,3.72,0,0,0,4.58-1.18,2.72,2.72,0,0,1-1.13,2.64,2.67,2.67,0,0,0,3.15-.75c.29-.37.47-.81.77-1.17a1.24,1.24,0,0,1,1.22-.52,1.13,1.13,0,0,1,.65,1.34,3.24,3.24,0,0,1-.87,1.39,3.35,3.35,0,0,0,1.36-.25A4,4,0,0,0,232.74,46a6.13,6.13,0,0,0-.16-3.52,1,1,0,0,0-.14-.32,1,1,0,0,0-.05-.39,6.09,6.09,0,0,0-1.71-3.08,4.05,4.05,0,0,0-3.29-1.07A3.51,3.51,0,0,0,226.1,38.09Z"/><path class="cls-5" d="M208.34,33.5a3.2,3.2,0,0,1,1.46.73,1.1,1.1,0,0,1,.15,1.48,1.23,1.23,0,0,1-1.31.2c-.44-.15-.83-.43-1.27-.6a2.68,2.68,0,0,0-3.07,1A2.77,2.77,0,0,1,206.65,38a3.73,3.73,0,0,0-4.52,1.4,10.39,10.39,0,0,1-1.4,2.08l0,0a9.91,9.91,0,0,1,2.3,1,3.73,3.73,0,0,0,4.58-1.18A2.76,2.76,0,0,1,206.46,44a2.65,2.65,0,0,0,3.14-.75c.29-.37.48-.81.77-1.17a1.25,1.25,0,0,1,1.22-.52,1.11,1.11,0,0,1,.65,1.34,3.32,3.32,0,0,1-.86,1.39,3.48,3.48,0,0,0,1.35-.25A4,4,0,0,0,215,41.38a6.13,6.13,0,0,0-.15-3.52,1.55,1.55,0,0,0-.14-.32,1.31,1.31,0,0,0-.05-.39,6.18,6.18,0,0,0-1.72-3.08A4.05,4.05,0,0,0,209.62,33,3.53,3.53,0,0,0,208.34,33.5Z"/><path class="cls-5" d="M202.1,30.23a3.29,3.29,0,0,1,1.46.72,1.12,1.12,0,0,1,.15,1.49,1.25,1.25,0,0,1-1.31.2c-.44-.16-.83-.44-1.27-.6a2.67,2.67,0,0,0-3.07,1,2.77,2.77,0,0,1,2.35,1.66,3.72,3.72,0,0,0-4.52,1.39,10.18,10.18,0,0,1-1.4,2.09h0a10.38,10.38,0,0,1,2.3,1,3.72,3.72,0,0,0,4.58-1.19,2.77,2.77,0,0,1-1.13,2.65,2.67,2.67,0,0,0,3.14-.75c.29-.37.47-.81.77-1.18a1.26,1.26,0,0,1,1.22-.52,1.13,1.13,0,0,1,.65,1.35,3.29,3.29,0,0,1-.86,1.38,3.29,3.29,0,0,0,1.35-.24,4,4,0,0,0,2.24-2.64,6.12,6.12,0,0,0-.15-3.52,1.64,1.64,0,0,0-.14-.33,1.2,1.2,0,0,0-.05-.38,6.14,6.14,0,0,0-1.72-3.08,4,4,0,0,0-3.29-1.07A3.36,3.36,0,0,0,202.1,30.23Z"/><path class="cls-5" d="M198.36,25.38a3.31,3.31,0,0,1,1,1.25,1.14,1.14,0,0,1-.47,1.43,1.24,1.24,0,0,1-1.27-.36c-.35-.31-.59-.73-.92-1.06a2.67,2.67,0,0,0-3.22-.31A2.73,2.73,0,0,1,195,28.8a3.71,3.71,0,0,0-4.69-.56,10.46,10.46,0,0,1-2.13,1.34h0a10.43,10.43,0,0,1,1.68,1.89,3.73,3.73,0,0,0,4.67.77,2.76,2.76,0,0,1-2.11,2,2.67,2.67,0,0,0,3.18.59c.41-.22.76-.55,1.18-.76a1.27,1.27,0,0,1,1.33,0,1.15,1.15,0,0,1,0,1.5,3.27,3.27,0,0,1-1.36.91,3.48,3.48,0,0,0,1.34.33,4,4,0,0,0,3.12-1.51A6.05,6.05,0,0,0,202.52,32a1.38,1.38,0,0,0,0-.35,1.66,1.66,0,0,0,.11-.38,6.1,6.1,0,0,0-.33-3.51,4,4,0,0,0-2.57-2.31A3.56,3.56,0,0,0,198.36,25.38Z"/><path class="cls-5" d="M192.71,19.05a3.26,3.26,0,0,1,1,1.26,1.13,1.13,0,0,1-.46,1.42,1.23,1.23,0,0,1-1.28-.35c-.34-.32-.59-.73-.92-1.06a2.67,2.67,0,0,0-3.22-.32,2.78,2.78,0,0,1,1.48,2.47,3.72,3.72,0,0,0-4.7-.56,10,10,0,0,1-2.12,1.34h0a10,10,0,0,1,1.68,1.88,3.72,3.72,0,0,0,4.67.77,2.74,2.74,0,0,1-2.11,2,2.66,2.66,0,0,0,3.18.59c.42-.22.76-.55,1.18-.76a1.25,1.25,0,0,1,1.33,0,1.12,1.12,0,0,1,.05,1.49,3.23,3.23,0,0,1-1.36.92,3.3,3.3,0,0,0,1.35.32,4,4,0,0,0,3.11-1.5,6.2,6.2,0,0,0,1.29-3.29,1.37,1.37,0,0,0,0-.35,1.14,1.14,0,0,0,.11-.37,6.17,6.17,0,0,0-.32-3.51,4,4,0,0,0-2.58-2.31A3.38,3.38,0,0,0,192.71,19.05Z"/><path class="cls-5" d="M193.61,10.67a3.31,3.31,0,0,1,1,1.25,1.14,1.14,0,0,1-.46,1.43,1.26,1.26,0,0,1-1.28-.36c-.35-.31-.59-.73-.92-1.06a2.67,2.67,0,0,0-3.22-.31,2.76,2.76,0,0,1,1.48,2.47,3.72,3.72,0,0,0-4.7-.56,10.39,10.39,0,0,1-2.12,1.34h0a10.43,10.43,0,0,1,1.68,1.89,3.73,3.73,0,0,0,4.67.77,2.76,2.76,0,0,1-2.11,2,2.67,2.67,0,0,0,3.18.59c.41-.22.76-.55,1.18-.76a1.25,1.25,0,0,1,1.33,0,1.12,1.12,0,0,1,0,1.49,3.27,3.27,0,0,1-1.36.91,3.48,3.48,0,0,0,1.34.33,4,4,0,0,0,3.12-1.51,6.05,6.05,0,0,0,1.28-3.28,1,1,0,0,0,0-.35,1.27,1.27,0,0,0,.11-.38,6.1,6.1,0,0,0-.33-3.51A4,4,0,0,0,195,10.73,3.56,3.56,0,0,0,193.61,10.67Z"/><path class="cls-5" d="M195.33,4a3.28,3.28,0,0,1,1.35.93,1.13,1.13,0,0,1-.07,1.49,1.25,1.25,0,0,1-1.32,0c-.42-.22-.76-.55-1.17-.78a2.68,2.68,0,0,0-3.19.57,2.74,2.74,0,0,1,2.09,2,3.71,3.71,0,0,0-4.67.73,10.25,10.25,0,0,1-1.68,1.86h0a9.92,9.92,0,0,1,2.13,1.37,3.73,3.73,0,0,0,4.7-.52,2.74,2.74,0,0,1-1.5,2.45,2.65,2.65,0,0,0,3.22-.29c.34-.32.59-.73.93-1a1.25,1.25,0,0,1,1.29-.34,1.13,1.13,0,0,1,.45,1.42,3.35,3.35,0,0,1-1.06,1.25,3.38,3.38,0,0,0,1.38-.05,4,4,0,0,0,2.59-2.29,6.09,6.09,0,0,0,.35-3.51,1.21,1.21,0,0,0-.09-.34,1.28,1.28,0,0,0,0-.39,6.17,6.17,0,0,0-1.26-3.29,4,4,0,0,0-3.11-1.53A3.45,3.45,0,0,0,195.33,4Z"/><path class="cls-5" d="M215.91,36a3.26,3.26,0,0,1,1.61.3,1.12,1.12,0,0,1,.55,1.39,1.25,1.25,0,0,1-1.21.54c-.47,0-.92-.19-1.39-.23a2.68,2.68,0,0,0-2.68,1.81,2.75,2.75,0,0,1,2.72,1,3.72,3.72,0,0,0-4,2.56,10,10,0,0,1-.78,2.39v0a10.57,10.57,0,0,1,2.49.38,3.72,3.72,0,0,0,4.09-2.38,2.78,2.78,0,0,1-.37,2.85A2.65,2.65,0,0,0,219.77,45c.18-.43.23-.91.42-1.34a1.25,1.25,0,0,1,1-.83,1.14,1.14,0,0,1,1,1.12,3.33,3.33,0,0,1-.47,1.57,3.51,3.51,0,0,0,1.24-.61,4,4,0,0,0,1.44-3.14,6,6,0,0,0-1.1-3.35,1.51,1.51,0,0,0-.22-.28,1.84,1.84,0,0,0-.15-.36,6.15,6.15,0,0,0-2.49-2.49,4,4,0,0,0-3.46-.14A3.4,3.4,0,0,0,215.91,36Z"/><ellipse class="cls-6" cx="205.89" cy="3.51" rx="4.49" ry="1.9"/><ellipse class="cls-6" cx="213.87" cy="12.1" rx="4.49" ry="1.9"/><path class="cls-2" d="M241.67,17.77a15.3,15.3,0,0,0,.13-1.67.21.21,0,0,1,.31-.1s-.11,1,1.56,1.48a2.67,2.67,0,0,1,1.89,2h0c.25,1.18-.64,1.81-1.85,2.12s-2.37.19-2.69-1.06A3.26,3.26,0,0,1,241.67,17.77Z"/><g class="cls-7"><path class="cls-8" d="M241.84,17.76a.38.38,0,0,1-.21,0c-.13,0-.21-.13-.29-.24a1.85,1.85,0,0,1-.24-.4,1.42,1.42,0,0,1,0-.71,1.51,1.51,0,0,1,.34-.87.85.85,0,0,1,.66-.27.88.88,0,0,1,.63.33,1.68,1.68,0,0,1,.18,1.3A1.39,1.39,0,0,1,241.84,17.76Z"/></g><ellipse class="cls-9" cx="244.23" cy="18.48" rx="0.33" ry="0.39" transform="translate(56.12 175.34) rotate(-44.15)"/><ellipse class="cls-9" cx="243.53" cy="18.13" rx="0.13" ry="0.16" transform="translate(56.17 174.75) rotate(-44.15)"/><path class="cls-9" d="M241.83,18.19a3.29,3.29,0,0,0,0,2.25A1.52,1.52,0,0,1,241.83,18.19Z"/><path class="cls-2" d="M212,25.2c.37-.34.71-1.28.89-1.43a.22.22,0,0,1,.32.06s-.54.81.7,2a2.66,2.66,0,0,1,.74,2.66h0c-.33,1.15-1.41,1.3-2.63,1s-2.18-.92-1.89-2.18C210.47,25.74,211.58,25.53,212,25.2Z"/><g class="cls-10"><path class="cls-8" d="M212.1,25.26a.39.39,0,0,1-.19-.08.53.53,0,0,1-.14-.35,1.47,1.47,0,0,1,0-.47,1.41,1.41,0,0,1,.3-.63,1.5,1.5,0,0,1,.7-.62.88.88,0,0,1,.71.07.82.82,0,0,1,.41.59,1.67,1.67,0,0,1-.44,1.23A1.41,1.41,0,0,1,212.1,25.26Z"/></g><ellipse class="cls-9" cx="213.89" cy="27.01" rx="0.33" ry="0.39" transform="translate(1.22 62.36) rotate(-16.63)"/><ellipse class="cls-9" cx="213.44" cy="26.38" rx="0.13" ry="0.16" transform="matrix(0.96, -0.29, 0.29, 0.96, 1.38, 62.2)"/><path class="cls-9" d="M211.9,25.65a3.32,3.32,0,0,0-1.06,2S210.29,26.33,211.9,25.65Z"/><path class="cls-2" d="M229.13,18c-.65-.6-1.27-2.28-1.59-2.54a.39.39,0,0,0-.57.09s1,1.46-1.25,3.65a4.75,4.75,0,0,0-1.32,4.74h0c.58,2.06,2.51,2.32,4.68,1.82s3.9-1.65,3.38-3.89C231.77,18.91,229.79,18.54,229.13,18Z"/><g class="cls-11"><path class="cls-8" d="M228.85,18.07a.85.85,0,0,0,.35-.15,1,1,0,0,0,.25-.62,3,3,0,0,0,0-.84,2.67,2.67,0,0,0-.54-1.14,2.76,2.76,0,0,0-1.25-1.1,1.57,1.57,0,0,0-1.27.13,1.54,1.54,0,0,0-.73,1,3,3,0,0,0,.79,2.2A2.51,2.51,0,0,0,228.85,18.07Z"/></g><ellipse class="cls-9" cx="225.66" cy="21.19" rx="0.7" ry="0.58" transform="matrix(0.29, -0.96, 0.96, 0.29, 140.76, 231.34)"/><ellipse class="cls-9" cx="226.47" cy="20.05" rx="0.29" ry="0.24" transform="matrix(0.29, -0.96, 0.96, 0.29, 142.43, 231.3)"/><path class="cls-9" d="M229.22,18.75s1.93,1.78,1.89,3.53C231.11,22.28,232.09,20,229.22,18.75Z"/><path class="cls-2" d="M223.43,1c-.66-.59-1.28-2.27-1.6-2.54a.39.39,0,0,0-.57.1s1,1.45-1.24,3.64A4.75,4.75,0,0,0,218.69,7h0c.59,2.07,2.51,2.33,4.69,1.83s3.89-1.65,3.37-3.89C226.06,2,224.09,1.64,223.43,1Z"/><g class="cls-12"><path class="cls-8" d="M223.15,1.16a.74.74,0,0,0,.34-.15.89.89,0,0,0,.25-.61,3,3,0,0,0,0-.84,2.69,2.69,0,0,0-.55-1.14A2.71,2.71,0,0,0,222-2.68a1.57,1.57,0,0,0-1.27.12A1.58,1.58,0,0,0,220-1.51a3,3,0,0,0,.8,2.2A2.47,2.47,0,0,0,223.15,1.16Z"/></g><ellipse class="cls-9" cx="219.95" cy="4.28" rx="0.7" ry="0.58" transform="matrix(0.29, -0.96, 0.96, 0.29, 152.89, 213.81)"/><ellipse class="cls-9" cx="220.76" cy="3.15" rx="0.29" ry="0.24" transform="matrix(0.29, -0.96, 0.96, 0.29, 154.55, 213.77)"/><path class="cls-9" d="M223.51,1.84s1.93,1.79,1.89,3.54C225.4,5.38,226.38,3.07,223.51,1.84Z"/><path class="cls-2" d="M252.34,2.75c-.65-1-.82-3.48-1.14-3.95a.54.54,0,0,0-.79-.09s.72,2.28-3,4.33a6.5,6.5,0,0,0-3.54,5.75h0c0,2.94,2.43,4,5.49,4.18s5.75-.7,5.91-3.85C255.44,5,253,3.78,252.34,2.75Z"/><g class="cls-13"><path class="cls-8" d="M251.92,2.8a1.09,1.09,0,0,0,.51-.06A1.33,1.33,0,0,0,253,2a3.9,3.9,0,0,0,.37-1.09,3.68,3.68,0,0,0-.28-1.7,3.77,3.77,0,0,0-1.24-1.93A2.13,2.13,0,0,0,250.13-3a2.17,2.17,0,0,0-1.36,1.1A4.18,4.18,0,0,0,249,1.29,3.4,3.4,0,0,0,251.92,2.8Z"/></g><ellipse class="cls-9" cx="246.53" cy="5.71" rx="0.96" ry="0.8" transform="translate(108.69 210.18) rotate(-57.34)"/><ellipse class="cls-9" cx="248.03" cy="4.52" rx="0.39" ry="0.33" transform="translate(110.38 210.9) rotate(-57.34)"/><path class="cls-9" d="M252.15,3.84S254,6.93,253.3,9.22C253.3,9.22,255.47,6.54,252.15,3.84Z"/><path class="cls-2" d="M256,31.4c-.64-1-.81-3.49-1.14-3.95a.53.53,0,0,0-.79-.09s.73,2.28-3,4.33a6.5,6.5,0,0,0-3.54,5.75h0c0,2.94,2.43,4,5.49,4.17s5.75-.69,5.92-3.84C259.07,33.67,256.61,32.43,256,31.4Z"/><g class="cls-14"><path class="cls-8" d="M255.54,31.45a1.07,1.07,0,0,0,.51-.07,1.27,1.27,0,0,0,.57-.71,4.35,4.35,0,0,0,.38-1.1,3.6,3.6,0,0,0-.29-1.7,3.86,3.86,0,0,0-1.23-1.93,2.14,2.14,0,0,0-1.72-.31,2.09,2.09,0,0,0-1.36,1.1,4.07,4.07,0,0,0,.22,3.2A3.39,3.39,0,0,0,255.54,31.45Z"/></g><ellipse class="cls-9" cx="250.16" cy="34.35" rx="0.96" ry="0.8" transform="translate(86.24 226.42) rotate(-57.34)"/><ellipse class="cls-9" cx="251.66" cy="33.16" rx="0.39" ry="0.33" transform="translate(87.93 227.13) rotate(-57.34)"/><path class="cls-9" d="M255.77,32.48s1.87,3.09,1.15,5.38C256.92,37.86,259.09,35.18,255.77,32.48Z"/><path class="cls-2" d="M223.3,34.29c-.45-.71-.57-2.42-.79-2.74a.36.36,0,0,0-.55-.06s.5,1.58-2.1,3a4.51,4.51,0,0,0-2.46,4h0c0,2,1.69,2.79,3.82,2.9s4-.49,4.12-2.68C225.46,35.88,223.75,35,223.3,34.29Z"/><g class="cls-15"><path class="cls-8" d="M223,34.33a.87.87,0,0,0,.36,0,.93.93,0,0,0,.39-.5A3.11,3.11,0,0,0,224,33a2.46,2.46,0,0,0-.2-1.19A2.62,2.62,0,0,0,223,30.5a1.48,1.48,0,0,0-1.19-.22,1.5,1.5,0,0,0-1,.77,2.9,2.9,0,0,0,.15,2.23A2.36,2.36,0,0,0,223,34.33Z"/></g><ellipse class="cls-9" cx="219.26" cy="36.35" rx="0.67" ry="0.55" transform="translate(70.34 201.33) rotate(-57.34)"/><ellipse class="cls-9" cx="220.31" cy="35.52" rx="0.27" ry="0.23" transform="translate(71.51 201.83) rotate(-57.34)"/><path class="cls-9" d="M223.17,35.05s1.3,2.15.8,3.74C224,38.79,225.48,36.93,223.17,35.05Z"/><path class="cls-2" d="M201.07,22.92c.71-.46,1.53-2,1.87-2.16a.37.37,0,0,1,.53.18s-1.12,1.22.64,3.61a4.52,4.52,0,0,1,.56,4.66h0c-.86,1.86-2.71,1.83-4.68,1s-3.43-2.12-2.62-4.15C198.45,23.45,200.36,23.38,201.07,22.92Z"/><g class="cls-16"><path class="cls-8" d="M201.32,23.08a.85.85,0,0,1-.3-.19.9.9,0,0,1-.15-.62,2.66,2.66,0,0,1,.08-.8,2.59,2.59,0,0,1,.68-1,2.66,2.66,0,0,1,1.34-.86,1.49,1.49,0,0,1,1.18.31,1.47,1.47,0,0,1,.53,1.09A2.83,2.83,0,0,1,203.61,23,2.39,2.39,0,0,1,201.32,23.08Z"/></g><ellipse class="cls-9" cx="203.87" cy="26.48" rx="0.55" ry="0.67" transform="translate(-1.71 27.99) rotate(-7.82)"/><ellipse class="cls-9" cx="203.27" cy="25.29" rx="0.23" ry="0.27" transform="translate(-1.55 27.9) rotate(-7.82)"/><path class="cls-9" d="M200.87,23.66s-2.08,1.41-2.29,3.06C198.58,26.72,198,24.4,200.87,23.66Z"/><path class="cls-2" d="M205.83,4c.66-.57,1.3-2.23,1.62-2.49a.39.39,0,0,1,.57.11S207,3,209.19,5.25A4.71,4.71,0,0,1,210.43,10h0c-.62,2-2.53,2.27-4.68,1.73s-3.83-1.7-3.28-3.91C203.2,4.92,205.17,4.58,205.83,4Z"/><g class="cls-17"><path class="cls-8" d="M206.11,4.13a.71.71,0,0,1-.34-.16.93.93,0,0,1-.24-.61,3,3,0,0,1,0-.84,2.66,2.66,0,0,1,.56-1.11A2.75,2.75,0,0,1,207.32.33a1.57,1.57,0,0,1,1.25.15,1.55,1.55,0,0,1,.71,1.05,3,3,0,0,1-.83,2.17A2.46,2.46,0,0,1,206.11,4.13Z"/></g><ellipse class="cls-9" cx="209.22" cy="7.27" rx="0.58" ry="0.7" transform="translate(5.82 56.81) rotate(-15.68)"/><ellipse class="cls-9" cx="208.44" cy="6.13" rx="0.24" ry="0.29" transform="translate(6.1 56.55) rotate(-15.68)"/><path class="cls-9" d="M205.73,4.8s-1.94,1.74-1.93,3.47C203.8,8.27,202.87,6,205.73,4.8Z"/><path class="cls-2" d="M238.61,35c.51-.45,1-1.75,1.23-1.95a.3.3,0,0,1,.44.07s-.75,1.12,1,2.81a3.63,3.63,0,0,1,1,3.64h0c-.45,1.59-1.93,1.79-3.61,1.4s-3-1.26-2.59-3C236.58,35.73,238.1,35.44,238.61,35Z"/><g class="cls-18"><path class="cls-8" d="M238.83,35.07a.64.64,0,0,1-.27-.11.72.72,0,0,1-.19-.48,1.69,1.69,0,0,1,.38-1.52,2.13,2.13,0,0,1,1-.84,1.18,1.18,0,0,1,1,.09,1.2,1.2,0,0,1,.57.81,2.31,2.31,0,0,1-.62,1.69A1.9,1.9,0,0,1,238.83,35.07Z"/></g><ellipse class="cls-9" cx="241.28" cy="37.47" rx="0.45" ry="0.54" transform="translate(-0.63 70.64) rotate(-16.63)"/><ellipse class="cls-9" cx="240.66" cy="36.6" rx="0.18" ry="0.22" transform="translate(-0.41 70.42) rotate(-16.63)"/><path class="cls-9" d="M238.54,35.6a4.54,4.54,0,0,0-1.45,2.72S236.34,36.54,238.54,35.6Z"/><path class="cls-2" d="M200,13.17c.37-.33.72-1.28.9-1.43a.22.22,0,0,1,.32.06s-.55.81.7,2a2.66,2.66,0,0,1,.74,2.66h0c-.33,1.16-1.41,1.3-2.62,1s-2.19-.92-1.9-2.18C198.48,13.71,199.58,13.5,200,13.17Z"/><g class="cls-19"><path class="cls-8" d="M200.11,13.24a.42.42,0,0,1-.19-.09.48.48,0,0,1-.14-.34,1.55,1.55,0,0,1,0-.48,1.55,1.55,0,0,1,.31-.63,1.5,1.5,0,0,1,.7-.62.88.88,0,0,1,.71.07.84.84,0,0,1,.41.59,1.68,1.68,0,0,1-.45,1.23A1.39,1.39,0,0,1,200.11,13.24Z"/></g><ellipse class="cls-9" cx="201.9" cy="14.98" rx="0.33" ry="0.39" transform="translate(4.16 58.42) rotate(-16.63)"/><ellipse class="cls-9" cx="201.45" cy="14.35" rx="0.13" ry="0.16" transform="translate(4.32 58.27) rotate(-16.63)"/><path class="cls-9" d="M199.9,13.62a3.27,3.27,0,0,0-1.05,2A1.51,1.51,0,0,1,199.9,13.62Z"/></svg>