<svg id="Layer_1" data-name="Layer 1" xmlns="http://www.w3.org/2000/svg" xmlns:xlink="http://www.w3.org/1999/xlink" viewBox="0 0 260 168"><defs><style>.cls-1{fill:#60300f;}.cls-2{fill:#ffdea4;}.cls-3{clip-path:url(#clip-path);}.cls-4{fill:#3f1d06;}.cls-5{clip-path:url(#clip-path-2);}.cls-6{fill:#e28f9b;}.cls-7{fill:#602406;}.cls-8{fill:#f2c783;}</style><clipPath id="clip-path"><path class="cls-1" d="M147,120.52c-.73.12-1.13,1.34-1.45,2a3.45,3.45,0,0,1-.24.47c-.24.32-.69.44-.88.79a1.36,1.36,0,0,0,.05,1.08,2.12,2.12,0,0,0,.3.67,3.06,3.06,0,0,0,.46.42,7.43,7.43,0,0,0,2.63,1.49,8.59,8.59,0,0,0,1.34.15,16.41,16.41,0,0,0,3.64-.09c.41-.07.9-.27.93-.68a.85.85,0,0,0-.25-.58c-.79-1-2.13-1.34-3-2.25a1.4,1.4,0,0,1-.45-1c0-.62.6-1.43-.33-1.62C149,121.25,147.74,120.4,147,120.52Z"/></clipPath><clipPath id="clip-path-2"><path class="cls-2" d="M150.12,119.74a11.47,11.47,0,0,1,2,1.37,13.94,13.94,0,0,0,5.05,1.88c.81.19,1.77.53,1.94,1.34a1.56,1.56,0,0,1-.18,1c-.6,1.15-2,1.6-3.26,1.84a14.28,14.28,0,0,1-4.12.3,7.35,7.35,0,0,1-3.83-1.42,3.61,3.61,0,0,1-1-1.13,5.3,5.3,0,0,1-.43-1.33,4.54,4.54,0,0,1-.13-2.25c.27-.95.9-1,1.67-1.27S149.17,119.33,150.12,119.74Z"/></clipPath></defs><path class="cls-1" d="M147,120.52c-.73.12-1.13,1.34-1.45,2a3.45,3.45,0,0,1-.24.47c-.24.32-.69.44-.88.79a1.36,1.36,0,0,0,.05,1.08,2.12,2.12,0,0,0,.3.67,3.06,3.06,0,0,0,.46.42,7.43,7.43,0,0,0,2.63,1.49,8.59,8.59,0,0,0,1.34.15,16.41,16.41,0,0,0,3.64-.09c.41-.07.9-.27.93-.68a.85.85,0,0,0-.25-.58c-.79-1-2.13-1.34-3-2.25a1.4,1.4,0,0,1-.45-1c0-.62.6-1.43-.33-1.62C149,121.25,147.74,120.4,147,120.52Z"/><g class="cls-3"><path class="cls-4" d="M149.91,127.79a5.39,5.39,0,0,1-2.77-1.61,1.09,1.09,0,0,0-.41-.33.26.26,0,0,0-.15,0,.25.25,0,0,0-.16.27.92.92,0,0,0,.14.32,1.39,1.39,0,0,1,.21,1,.54.54,0,0,0,0,.25.36.36,0,0,0,.19.21,2.75,2.75,0,0,0,.57.2,7,7,0,0,0,1.77.22,2,2,0,0,0,.6-.07.74.74,0,0,0,.45-.38,1.82,1.82,0,0,0-.69-.23"/></g><path class="cls-2" d="M150.12,119.74a11.47,11.47,0,0,1,2,1.37,13.94,13.94,0,0,0,5.05,1.88c.81.19,1.77.53,1.94,1.34a1.56,1.56,0,0,1-.18,1c-.6,1.15-2,1.6-3.26,1.84a14.28,14.28,0,0,1-4.12.3,7.35,7.35,0,0,1-3.83-1.42,3.61,3.61,0,0,1-1-1.13,5.3,5.3,0,0,1-.43-1.33,4.54,4.54,0,0,1-.13-2.25c.27-.95.9-1,1.67-1.27S149.17,119.33,150.12,119.74Z"/><g class="cls-5"><path class="cls-6" d="M151.18,120.43a1.7,1.7,0,0,0-1.26-.63,3.52,3.52,0,0,0-1.43.26,2.67,2.67,0,0,0-1.86,1.6,2.42,2.42,0,0,0,.25,1.64,5.8,5.8,0,0,0,2.63,2.73,6.91,6.91,0,0,0,3.76.64,10.58,10.58,0,0,0,3.67-1.13,2.19,2.19,0,0,0,1.12-1c.09-.2.13-.42.23-.61a1.28,1.28,0,0,1,1.75-.35,2.68,2.68,0,0,1,1.07,1.64,6.32,6.32,0,0,1,.24,2,3.09,3.09,0,0,1-.29,1.24,3.35,3.35,0,0,1-1.23,1.19,15.09,15.09,0,0,1-7.43,2,13.52,13.52,0,0,1-2.62-.09,18.53,18.53,0,0,1-5.67-2.23.54.54,0,0,1-.23-.19.57.57,0,0,1,0-.52,8.72,8.72,0,0,0,.56-2.37c.23-2.63-.84-5.19-1.18-7.81a1.84,1.84,0,0,1,.2-1.37,1.91,1.91,0,0,1,1.45-.53,15.92,15.92,0,0,1,5.24.5,2.1,2.1,0,0,1,1.25.73,2,2,0,0,1-.13,2"/><path class="cls-7" d="M147.76,120a2.56,2.56,0,0,0-1.33,1.26,2.71,2.71,0,0,0,.28,2.28,6.29,6.29,0,0,0,4,3,9.35,9.35,0,0,0,5-.19,6.65,6.65,0,0,0,2-.91,2.3,2.3,0,0,0,.75-.8c.1-.2.15-.41.24-.62a2.11,2.11,0,0,1,.48-.67.39.39,0,0,1,.25-.12.37.37,0,0,1,.24.15,3,3,0,0,1,.52,1.84,2.57,2.57,0,0,1-.27,1.48,2.76,2.76,0,0,1-1.27,1,21.82,21.82,0,0,1-10,2.1,7,7,0,0,1-3.36-.82,2.47,2.47,0,0,1-.73-.63,2.6,2.6,0,0,1-.35-.78,7.88,7.88,0,0,1-.09-3.74,7.27,7.27,0,0,1,.65-1.94,11,11,0,0,1,.85-1.29,5.79,5.79,0,0,1,1.19-1.28,2.84,2.84,0,0,1,2.5-.33c.11,0,.48.14.48.3s-.43.26-.56.3A9.39,9.39,0,0,0,147.76,120Z"/></g><path class="cls-8" d="M150.05,120.45a2.84,2.84,0,0,1,.81.42l2.23,1.47a.31.31,0,0,1,.11.09.29.29,0,0,1,0,.36.65.65,0,0,1-.34.17,2.07,2.07,0,0,1-1.18,0c-.33-.11-.64-.31-1-.41s-.81-.11-1.2-.23a1,1,0,0,1-.77-.83A1,1,0,0,1,150.05,120.45Z"/><path class="cls-8" d="M148.53,122.23a7.89,7.89,0,0,0,1.05.63.4.4,0,0,1,.23.23c.07.2-.12.39-.29.51a1.59,1.59,0,0,1-.76.37,1.46,1.46,0,0,1-.92-.33,1.83,1.83,0,0,1-.87-1.1c-.06-.33.23-1.54.69-1.5S148.26,122,148.53,122.23Z"/><path class="cls-8" d="M155.17,122.89a15,15,0,0,1,2.12.79c.27.11.59.31.54.6s-.44.38-.72.52-.64.63-1.07.74a1.56,1.56,0,0,1-.57,0,1.91,1.91,0,0,1-.58-.15.61.61,0,0,1-.37-.44c0-.19,0-.41-.05-.57s-.41-.17-.64-.14-.54,0-.6-.24.17-.38.37-.45C154.28,123.29,154.32,122.66,155.17,122.89Z"/><path class="cls-8" d="M152.45,123.51a.25.25,0,0,1,.19.14.24.24,0,0,1,0,.2c-.19.35-.66.41-1.06.44a1.46,1.46,0,0,1-.88-.13.36.36,0,0,1-.17-.2.38.38,0,0,1,.17-.36A1.89,1.89,0,0,1,152.45,123.51Z"/><path class="cls-8" d="M151.16,126a10,10,0,0,0,2,.29.94.94,0,0,0,.53-.07.6.6,0,0,0,.1-.86,1.43,1.43,0,0,0-.83-.46,4.41,4.41,0,0,0-1-.1c-.3,0-.6,0-.9,0a2.73,2.73,0,0,1-.93-.21,1.81,1.81,0,0,0-.5-.2c-.66-.1-.56.5-.19.76A5.94,5.94,0,0,0,151.16,126Z"/></svg>