<svg xmlns="http://www.w3.org/2000/svg" xmlns:xlink="http://www.w3.org/1999/xlink" width="652.69" height="443.06" viewBox="0 0 652.69 443.06">
  <defs>
    <style>
      .cls-1, .cls-18 {
        fill: none;
      }

      .cls-2 {
        fill: #93278f;
      }

      .cls-3 {
        clip-path: url(#clip-path);
      }

      .cls-4 {
        fill: #fc9a8d;
      }

      .cls-5 {
        fill: #d4555e;
      }

      .cls-6 {
        fill: #510706;
      }

      .cls-7 {
        clip-path: url(#clip-path-2);
      }

      .cls-8 {
        clip-path: url(#clip-path-3);
      }

      .cls-9 {
        clip-path: url(#clip-path-4);
      }

      .cls-10 {
        clip-path: url(#clip-path-5);
      }

      .cls-11 {
        clip-path: url(#clip-path-6);
      }

      .cls-12 {
        clip-path: url(#clip-path-7);
      }

      .cls-13 {
        clip-path: url(#clip-path-8);
      }

      .cls-14, .cls-17 {
        fill: #2f009a;
      }

      .cls-15 {
        fill: #fff;
      }

      .cls-16 {
        fill: #231f20;
      }

      .cls-17, .cls-18 {
        stroke: #a81307;
        stroke-linecap: round;
        stroke-linejoin: round;
      }

      .cls-17 {
        stroke-width: 0.85px;
      }

      .cls-18 {
        stroke-width: 1.71px;
      }

      .cls-19 {
        clip-path: url(#clip-path-9);
      }

      .cls-20 {
        fill: #fa4316;
      }
    </style>
    <clipPath id="clip-path">
      <path class="cls-1" d="M28.06,151.31c-2-4.12,1.18-9.61,6-9s3.38-8.33-7.65-9.61-37.76,6.71-21,34.85,128.86,27.59,150.36,21c13.59-3.12,125.39,54.08,128.67,20.67,0,0-11.11-42-37.66-45.68"/>
    </clipPath>
    <clipPath id="clip-path-2">
      <path class="cls-1" d="M41,248.9c-3.29-3.19-2.14-9.45,2.59-10.52s.36-9-10.45-6.45-33.27,19.08-8,39.91,130.6-17.6,148.6-31.09c11.74-7.53,136.3,8.5,128.08-24.06,0,0-24.65-35.76-50.88-30.26"/>
    </clipPath>
    <clipPath id="clip-path-3">
      <path class="cls-1" d="M104.24,366.61c-4.44-1.15-6.52-7.16-2.94-10.42s-4.12-8-12.27-.45-19.51,33,12.74,38.66S206.63,314.6,215.63,294c6.49-12.35,122.72-59.91,99.5-84.16,0,0-39.09-18.93-59.19-1.19"/>
    </clipPath>
    <clipPath id="clip-path-4">
      <path class="cls-1" d="M624.64,151.31c2-4.12-1.18-9.61-6-9s-3.38-8.33,7.65-9.61,37.76,6.71,21,34.85-128.86,27.59-150.36,21c-13.59-3.12-125.39,54.08-128.67,20.67,0,0,11.11-42,37.66-45.68"/>
    </clipPath>
    <clipPath id="clip-path-5">
      <path class="cls-1" d="M611.73,248.9c3.29-3.19,2.14-9.45-2.59-10.52s-.36-9,10.45-6.45,33.27,19.08,8,39.91S497,254.23,479,240.74c-11.74-7.53-136.3,8.5-128.08-24.06,0,0,24.65-35.76,50.88-30.26"/>
    </clipPath>
    <clipPath id="clip-path-6">
      <path class="cls-1" d="M548.46,366.61c4.44-1.15,6.52-7.16,2.94-10.42s4.12-8,12.27-.45,19.51,33-12.74,38.66S446.06,314.6,437.06,294c-6.49-12.35-122.72-59.91-99.5-84.16,0,0,39.09-18.93,59.19-1.19"/>
    </clipPath>
    <clipPath id="clip-path-7">
      <path class="cls-1" d="M242.83,415.11c-4.4,1.31-9.28-2.76-7.9-7.4s-7.66-4.72-10.74,6,.36,38.35,30.88,26.51,42-113.36,39-135.67C295.25,291,350.93,213,316,203.75c0,0-29.63,1.82-37.67,27.39"/>
    </clipPath>
    <clipPath id="clip-path-8">
      <path class="cls-1" d="M407.95,415.11c4.4,1.31,9.28-2.76,7.9-7.4s7.66-4.72,10.74,6-.36,38.35-30.88,26.51-42-113.36-39-135.67c-1.19-13.49-56.86-91.47-22-100.76,0,0,29.63,1.82,37.67,27.39"/>
    </clipPath>
    <clipPath id="clip-path-9">
      <path class="cls-1" d="M290.46,165s31.95,20.59,69.57,0C360,165,325.24,225.33,290.46,165Z"/>
    </clipPath>
  </defs>
  <title>17_octopus_longer_legs</title>
  <g id="character">
    <g>
      <g>
        <g>
          <path class="cls-2" d="M280,196.11s-6.7-28.92-33.25-32.61-59.63-9.19-82.34-9.82c-26.6-.74-112.6,22.11-135.5-3-2-4.12,1.18-9.61,6-9s3.38-8.33-7.65-9.61-37.76,6.71-21,34.85,124.88,28.9,146.39,22.29C166.19,186.07,276.72,229.53,280,196.11Z"/>
          <g class="cls-3">
            <path class="cls-4" d="M.9,154.18s22,27.5,89,28c45.22.34,68.5-18.67,180.17,26.33,0,0-70.53-1.86-74.38-4.1S1.31,228,.9,154.18Z"/>
          </g>
          <g>
            <g>
              <circle class="cls-5" cx="49.88" cy="187.23" r="6.24" transform="translate(-112.51 81.53) rotate(-42.02)"/>
              <circle class="cls-6" cx="51.45" cy="188.68" r="3.82" transform="translate(-113.08 82.95) rotate(-42.02)"/>
            </g>
            <g>
              <circle class="cls-5" cx="20.73" cy="178.84" r="4.75" transform="translate(-114.39 59.86) rotate(-42.02)"/>
              <circle class="cls-6" cx="21.92" cy="179.95" r="2.91" transform="translate(-114.83 60.95) rotate(-42.02)"/>
            </g>
            <g>
              <circle class="cls-5" cx="86.3" cy="191.38" r="6.24" transform="translate(-105.93 106.98) rotate(-42.02)"/>
              <circle class="cls-6" cx="87.86" cy="192.83" r="3.82" transform="translate(-106.49 108.4) rotate(-42.02)"/>
            </g>
            <g>
              <circle class="cls-5" cx="119.83" cy="191.73" r="6.24" transform="translate(-97.54 129.52) rotate(-42.02)"/>
              <circle class="cls-6" cx="121.4" cy="193.18" r="3.82" transform="translate(-98.11 130.94) rotate(-42.02)"/>
            </g>
            <g>
              <circle class="cls-5" cx="158.83" cy="189.4" r="6.24" transform="translate(-85.95 155.03) rotate(-42.02)"/>
              <circle class="cls-6" cx="160.4" cy="190.84" r="3.82" transform="translate(-86.52 156.45) rotate(-42.02)"/>
            </g>
            <g>
              <circle class="cls-5" cx="196.5" cy="198.73" r="6.24" transform="translate(-82.51 182.64) rotate(-42.02)"/>
              <circle class="cls-6" cx="198.06" cy="200.18" r="3.82" transform="translate(-83.08 184.06) rotate(-42.02)"/>
            </g>
          </g>
        </g>
        <g>
          <path class="cls-2" d="M293.21,205.88s-16.09-25-42.32-19.45-59.22,11.51-80.81,18.6c-25.29,8.3-98.49,58.88-128.53,43-3.29-3.19-2.14-9.45,2.59-10.52s.36-9-10.45-6.45S.41,250.14,25.66,271,153,255.93,171,242.44C182.71,234.91,301.43,238.43,293.21,205.88Z"/>
          <g class="cls-7">
            <path class="cls-4" d="M16.37,260.79s30,18.44,93.23-3.74c42.67-15,58.15-40.73,178.46-36.14,0,0-67,22.1-71.38,21.29S41.73,330.13,16.37,260.79Z"/>
          </g>
          <g>
            <g>
              <circle class="cls-5" cx="73.64" cy="275.33" r="6.24" transform="translate(-203.79 210.06) rotate(-61.79)"/>
              <circle class="cls-6" cx="75.61" cy="276.16" r="3.82" transform="translate(-203.49 212.23) rotate(-61.79)"/>
            </g>
            <g>
              <circle class="cls-5" cx="43.37" cy="277.29" r="4.75" transform="translate(-221.48 184.42) rotate(-61.79)"/>
              <circle class="cls-6" cx="44.87" cy="277.93" r="2.91" transform="translate(-221.25 186.07) rotate(-61.79)"/>
            </g>
            <g>
              <circle class="cls-5" cx="109.32" cy="266.92" r="6.24" transform="translate(-177.57 237.06) rotate(-61.79)"/>
              <circle class="cls-6" cx="111.28" cy="267.75" r="3.82" transform="translate(-177.27 239.23) rotate(-61.79)"/>
            </g>
            <g>
              <circle class="cls-5" cx="140.99" cy="255.91" r="6.24" transform="translate(-151.17 259.17) rotate(-61.79)"/>
              <circle class="cls-6" cx="142.96" cy="256.74" r="3.82" transform="translate(-150.87 261.34) rotate(-61.79)"/>
            </g>
            <g>
              <circle class="cls-5" cx="176.91" cy="240.53" r="6.24" transform="translate(-118.68 282.71) rotate(-61.79)"/>
              <circle class="cls-6" cx="178.87" cy="241.36" r="3.82" transform="translate(-118.38 284.88) rotate(-61.79)"/>
            </g>
            <g>
              <circle class="cls-5" cx="215.51" cy="236.58" r="6.24" transform="translate(-94.84 314.64) rotate(-61.79)"/>
              <circle class="cls-6" cx="217.48" cy="237.41" r="3.82" transform="translate(-94.54 316.81) rotate(-61.79)"/>
            </g>
          </g>
        </g>
        <g>
          <path class="cls-2" d="M302.35,204.65s-26.31-13.76-46.41,4-45.82,39.25-61.09,56.08c-17.89,19.7-56.57,99.83-90.54,100.85-4.44-1.15-6.52-7.16-2.94-10.42s-4.12-8-12.27-.45-19.51,33,12.74,38.66,103.28-75.92,112.28-96.54C220.59,284.45,325.57,228.9,302.35,204.65Z"/>
          <g class="cls-8">
            <path class="cls-4" d="M88.72,389.09s35.2,1.22,79.22-49.29c29.71-34.09,30.46-64.13,137.34-119.54,0,0-47.36,52.3-51.56,53.76S145,436.86,88.72,389.09Z"/>
          </g>
          <g>
            <g>
              <circle class="cls-5" cx="145.71" cy="373.45" r="6.24" transform="translate(-8.91 3.6) rotate(-1.37)"/>
              <circle class="cls-6" cx="147.83" cy="373.21" r="3.82" transform="translate(-8.91 3.65) rotate(-1.37)"/>
            </g>
            <g>
              <circle class="cls-5" cx="120.36" cy="390.11" r="4.75" transform="matrix(1, -0.02, 0.02, 1, -9.32, 3)"/>
              <circle class="cls-6" cx="121.97" cy="389.92" r="2.91" transform="translate(-9.31 3.04) rotate(-1.37)"/>
            </g>
            <g>
              <circle class="cls-5" cx="172.58" cy="348.53" r="6.24" transform="translate(-8.31 4.24) rotate(-1.37)"/>
              <circle class="cls-6" cx="174.7" cy="348.28" r="3.82" transform="translate(-8.3 4.29) rotate(-1.37)"/>
            </g>
            <g>
              <circle class="cls-5" cx="194.69" cy="323.31" r="6.24" transform="translate(-7.7 4.76) rotate(-1.37)"/>
              <circle class="cls-6" cx="196.81" cy="323.07" r="3.82" transform="translate(-7.69 4.81) rotate(-1.37)"/>
            </g>
            <g>
              <circle class="cls-5" cx="218.32" cy="292.2" r="6.24" transform="translate(-6.94 5.32) rotate(-1.37)"/>
              <circle class="cls-6" cx="220.44" cy="291.96" r="3.82" transform="translate(-6.94 5.37) rotate(-1.37)"/>
            </g>
            <g>
              <circle class="cls-5" cx="249.94" cy="269.7" r="6.24" transform="translate(-6.4 6.07) rotate(-1.37)"/>
              <circle class="cls-6" cx="252.06" cy="269.46" r="3.82" transform="translate(-6.39 6.12) rotate(-1.37)"/>
            </g>
          </g>
        </g>
        <g>
          <path class="cls-2" d="M372.7,196.11s6.7-28.92,33.25-32.61,59.63-9.19,82.34-9.82c26.6-.74,112.6,22.11,135.5-3,2-4.12-1.18-9.61-6-9s-3.38-8.33,7.65-9.61,37.76,6.71,21,34.85S521.61,195.8,500.1,189.19C486.51,186.07,376,229.53,372.7,196.11Z"/>
          <g class="cls-9">
            <path class="cls-4" d="M651.8,154.18s-22,27.5-89,28c-45.22.34-68.5-18.67-180.17,26.33,0,0,70.53-1.86,74.38-4.1S651.38,228,651.8,154.18Z"/>
          </g>
          <g>
            <g>
              <circle class="cls-5" cx="602.81" cy="187.23" r="6.24" transform="translate(60.18 509.7) rotate(-47.98)"/>
              <circle class="cls-6" cx="601.25" cy="188.68" r="3.82" transform="translate(58.59 509.02) rotate(-47.98)"/>
            </g>
            <g>
              <circle class="cls-5" cx="631.96" cy="178.84" r="4.75" transform="translate(76.05 528.59) rotate(-47.98)"/>
              <circle class="cls-6" cx="630.77" cy="179.95" r="2.91" transform="translate(74.83 528.07) rotate(-47.98)"/>
            </g>
            <g>
              <circle class="cls-5" cx="566.4" cy="191.38" r="6.24" transform="translate(45.06 484.02) rotate(-47.98)"/>
              <circle class="cls-6" cx="564.83" cy="192.83" r="3.82" transform="translate(43.47 483.34) rotate(-47.98)"/>
            </g>
            <g>
              <circle class="cls-5" cx="532.86" cy="191.73" r="6.24" transform="translate(33.72 459.23) rotate(-47.98)"/>
              <circle class="cls-6" cx="531.3" cy="193.18" r="3.82" transform="translate(32.12 458.54) rotate(-47.98)"/>
            </g>
            <g>
              <circle class="cls-5" cx="493.86" cy="189.4" r="6.24" transform="translate(22.56 429.48) rotate(-47.98)"/>
              <circle class="cls-6" cx="492.3" cy="190.84" r="3.82" transform="translate(20.96 428.8) rotate(-47.98)"/>
            </g>
            <g>
              <circle class="cls-5" cx="456.2" cy="198.73" r="6.24" transform="translate(3.17 404.59) rotate(-47.98)"/>
              <circle class="cls-6" cx="454.63" cy="200.18" r="3.82" transform="translate(1.58 403.9) rotate(-47.98)"/>
            </g>
          </g>
        </g>
        <g>
          <path class="cls-2" d="M359.49,205.88s16.09-25,42.32-19.45S461,197.94,482.62,205c25.29,8.3,98.49,58.88,128.53,43,3.29-3.19,2.14-9.45-2.59-10.52s-.36-9,10.45-6.45,33.27,19.08,8,39.91-127.3-15-145.31-28.52C470,234.91,351.27,238.43,359.49,205.88Z"/>
          <g class="cls-10">
            <path class="cls-4" d="M636.32,260.79s-30,18.44-93.23-3.74c-42.67-15-58.15-40.73-178.46-36.14,0,0,67,22.1,71.38,21.29S611,330.13,636.32,260.79Z"/>
          </g>
          <g>
            <g>
              <circle class="cls-5" cx="579.05" cy="275.33" r="6.24" transform="translate(-61.37 306.46) rotate(-28.21)"/>
              <circle class="cls-6" cx="577.09" cy="276.16" r="3.82" transform="translate(-61.99 305.64) rotate(-28.21)"/>
            </g>
            <g>
              <circle class="cls-5" cx="609.32" cy="277.29" r="4.75" transform="translate(-58.7 321.01) rotate(-28.21)"/>
              <circle class="cls-6" cx="607.82" cy="277.93" r="2.91" transform="translate(-59.18 320.38) rotate(-28.21)"/>
            </g>
            <g>
              <circle class="cls-5" cx="543.38" cy="266.92" r="6.24" transform="translate(-61.63 288.6) rotate(-28.21)"/>
              <circle class="cls-6" cx="541.41" cy="267.75" r="3.82" transform="translate(-62.26 287.77) rotate(-28.21)"/>
            </g>
            <g>
              <circle class="cls-5" cx="511.7" cy="255.91" r="6.24" transform="translate(-60.19 272.32) rotate(-28.21)"/>
              <circle class="cls-6" cx="509.73" cy="256.74" r="3.82" transform="translate(-60.82 271.49) rotate(-28.21)"/>
            </g>
            <g>
              <circle class="cls-5" cx="475.78" cy="240.53" r="6.24" transform="translate(-57.18 253.51) rotate(-28.21)"/>
              <circle class="cls-6" cx="473.82" cy="241.36" r="3.82" transform="translate(-57.81 252.68) rotate(-28.21)"/>
            </g>
            <g>
              <circle class="cls-5" cx="437.18" cy="236.58" r="6.24" transform="translate(-59.9 234.79) rotate(-28.21)"/>
              <circle class="cls-6" cx="435.22" cy="237.41" r="3.82" transform="translate(-60.53 233.96) rotate(-28.21)"/>
            </g>
          </g>
        </g>
        <g>
          <path class="cls-2" d="M350.35,204.65s26.31-13.76,46.41,4,45.82,39.25,61.09,56.08c17.89,19.7,56.57,99.83,90.54,100.85,4.44-1.15,6.52-7.16,2.94-10.42s4.12-8,12.27-.45,19.51,33-12.74,38.66S447.59,317.42,438.59,296.8C432.1,284.45,327.12,228.9,350.35,204.65Z"/>
          <g class="cls-11">
            <path class="cls-4" d="M564,389.09s-35.2,1.22-79.22-49.29C455,305.71,454.29,275.67,347.41,220.26c0,0,47.36,52.3,51.56,53.76S507.68,436.86,564,389.09Z"/>
          </g>
          <g>
            <g>
              <circle class="cls-5" cx="506.99" cy="373.45" r="6.24" transform="translate(121.49 871.34) rotate(-88.63)"/>
              <circle class="cls-6" cx="504.87" cy="373.21" r="3.82" transform="translate(119.66 868.98) rotate(-88.63)"/>
            </g>
            <g>
              <circle class="cls-5" cx="532.34" cy="390.11" r="4.75" transform="translate(129.58 912.94) rotate(-88.63)"/>
              <circle class="cls-6" cx="530.72" cy="389.92" r="2.91" transform="translate(128.19 911.14) rotate(-88.63)"/>
            </g>
            <g>
              <circle class="cls-5" cx="480.12" cy="348.53" r="6.24" transform="translate(120.18 820.15) rotate(-88.63)"/>
              <circle class="cls-6" cx="478" cy="348.28" r="3.82" transform="translate(118.35 817.79) rotate(-88.63)"/>
            </g>
            <g>
              <circle class="cls-5" cx="458" cy="323.31" r="6.24" transform="translate(123.8 773.43) rotate(-88.63)"/>
              <circle class="cls-6" cx="455.89" cy="323.07" r="3.82" transform="translate(121.98 771.07) rotate(-88.63)"/>
            </g>
            <g>
              <circle class="cls-5" cx="434.37" cy="292.2" r="6.24" transform="translate(131.84 719.44) rotate(-88.63)"/>
              <circle class="cls-6" cx="432.25" cy="291.96" r="3.82" transform="translate(130.01 717.08) rotate(-88.63)"/>
            </g>
            <g>
              <circle class="cls-5" cx="402.75" cy="269.7" r="6.24" transform="matrix(0.02, -1, 1, 0.02, 123.47, 665.87)"/>
              <circle class="cls-6" cx="400.63" cy="269.46" r="3.82" transform="translate(121.64 663.51) rotate(-88.63)"/>
            </g>
          </g>
        </g>
        <g>
          <path class="cls-2" d="M316,203.75s-29.63,1.82-37.67,27.39-13.63,35.21-18,57.51c-5.14,26.11,11.39,107.7-17.17,126.12-4.4,1.31-9.28-2.76-7.9-7.4s-7.66-4.72-10.74,6,.36,38.35,30.88,26.51,41-111.36,38-133.67C292.57,292.26,348.43,212.52,316,203.75Z"/>
          <g class="cls-12">
            <path class="cls-4" d="M244.73,448.51s33.33-24.39,37.33-89.67c2.77-45.14-1-102.67,55.13-150.72,0,0-24.11,76.72-27,80.14S317.61,460.33,244.73,448.51Z"/>
          </g>
          <g>
            <g>
              <circle class="cls-5" cx="281.73" cy="399.18" r="4.89" transform="translate(-170.31 213.78) rotate(-32.49)"/>
              <circle class="cls-6" cx="283.05" cy="398.16" r="3" transform="translate(-169.56 214.33) rotate(-32.49)"/>
            </g>
            <g>
              <circle class="cls-5" cx="288.85" cy="356.68" r="6.24" transform="translate(-146.37 210.95) rotate(-32.49)"/>
              <circle class="cls-6" cx="290.54" cy="355.38" r="3.82" transform="translate(-145.41 211.65) rotate(-32.49)"/>
            </g>
            <g>
              <circle class="cls-5" cx="295.66" cy="317.17" r="6.24" transform="translate(-124.08 208.43) rotate(-32.49)"/>
              <circle class="cls-6" cx="297.35" cy="315.86" r="3.82" transform="translate(-123.12 209.13) rotate(-32.49)"/>
            </g>
            <g>
              <circle class="cls-5" cx="298.8" cy="283.91" r="6.24" transform="translate(-105.73 204.9) rotate(-32.49)"/>
              <circle class="cls-6" cx="300.48" cy="282.61" r="3.82" transform="translate(-104.77 205.61) rotate(-32.49)"/>
            </g>
            <g>
              <circle class="cls-5" cx="313.48" cy="254.48" r="6.24" transform="translate(-87.63 208.18) rotate(-32.49)"/>
              <circle class="cls-6" cx="315.16" cy="253.18" r="3.82" transform="translate(-86.66 208.89) rotate(-32.49)"/>
            </g>
          </g>
        </g>
        <g>
          <path class="cls-2" d="M334.76,203.75s29.63,1.82,37.67,27.39,13.63,35.21,18,57.51c5.14,26.11-11.39,107.7,17.17,126.12,4.4,1.31,9.28-2.76,7.9-7.4s7.66-4.72,10.74,6-.36,38.35-30.88,26.51-41-111.36-38-133.67C358.21,292.26,302.35,212.52,334.76,203.75Z"/>
          <g class="cls-13">
            <path class="cls-4" d="M406,448.51s-33.33-24.39-37.33-89.67c-2.77-45.14,1-102.67-55.13-150.72,0,0,24.11,76.72,27,80.14S333.17,460.33,406,448.51Z"/>
          </g>
          <g>
            <g>
              <circle class="cls-5" cx="369.05" cy="399.18" r="4.89" transform="translate(-165.88 496.09) rotate(-57.51)"/>
              <circle class="cls-6" cx="367.72" cy="398.16" r="3" transform="matrix(0.54, -0.84, 0.84, 0.54, -165.63, 494.5)"/>
            </g>
            <g>
              <circle class="cls-5" cx="361.93" cy="356.68" r="6.24" transform="translate(-133.33 470.41) rotate(-57.51)"/>
              <circle class="cls-6" cx="360.24" cy="355.38" r="3.82" transform="translate(-133.01 468.38) rotate(-57.51)"/>
            </g>
            <g>
              <circle class="cls-5" cx="355.11" cy="317.17" r="6.24" transform="translate(-103.15 446.37) rotate(-57.51)"/>
              <circle class="cls-6" cx="353.42" cy="315.86" r="3.82" transform="translate(-102.83 444.34) rotate(-57.51)"/>
            </g>
            <g>
              <circle class="cls-5" cx="351.98" cy="283.91" r="6.24" transform="translate(-76.55 428.33) rotate(-57.51)"/>
              <circle class="cls-6" cx="350.29" cy="282.61" r="3.82" transform="translate(-76.23 426.3) rotate(-57.51)"/>
            </g>
            <g>
              <circle class="cls-5" cx="337.3" cy="254.48" r="6.24" transform="translate(-58.52 402.32) rotate(-57.51)"/>
              <circle class="cls-6" cx="335.61" cy="253.18" r="3.82" transform="translate(-58.2 400.3) rotate(-57.51)"/>
            </g>
          </g>
        </g>
      </g>
      <g>
        <path class="cls-2" d="M336.65.59A140.64,140.64,0,0,0,311,.59c-87.77,6.62-93.65,99.11-80.74,125.34a235.6,235.6,0,0,0,15.39,26.59,22.37,22.37,0,0,0,11,36.58c1.75,16.15,35.89,21.16,59.83,22,2.14.09,4.62.14,7.34.14s5.19,0,7.34-.14c23.71-.84,57.41-5.77,59.77-21.54a22.37,22.37,0,0,0,11.46-38.91c4.45-6.88,9.72-14.6,15-24.73C430.92,100.1,424.23,9.84,336.65.59Z"/>
        <g>
          <g>
            <circle class="cls-14" cx="294.33" cy="122.65" r="26.41"/>
            <circle class="cls-15" cx="294.33" cy="124.71" r="23.25"/>
            <circle class="cls-16" cx="294.33" cy="124.71" r="18.34"/>
            <circle class="cls-15" cx="302.14" cy="116.4" r="6.92"/>
          </g>
          <g>
            <circle class="cls-14" cx="357.9" cy="122.65" r="26.41"/>
            <circle class="cls-15" cx="357.9" cy="124.71" r="23.25"/>
            <circle class="cls-16" cx="357.9" cy="124.71" r="18.34"/>
            <circle class="cls-15" cx="365.7" cy="116.4" r="6.92"/>
          </g>
          <g>
            <path class="cls-17" d="M290.46,165s31.95,20.59,69.57,0C360,165,325.24,225.33,290.46,165Z"/>
            <path class="cls-18" d="M283.79,165.55a8.68,8.68,0,0,0,11-5.1"/>
            <path class="cls-18" d="M367.47,165.55a8.68,8.68,0,0,1-11-5.1"/>
            <g class="cls-19">
              <path class="cls-20" d="M312,192.49s-.56-8.43,5.38-8.43,6.82,3.37,6.82,3.37.88-3.85,7.38-3.85,5.54,12.36,5.54,12.36Z"/>
            </g>
          </g>
          <path class="cls-17" d="M278.42,79.42h28.4S292.62,68.06,278.42,79.42Z"/>
          <path class="cls-17" d="M344.68,79.42h28.4S358.88,68.06,344.68,79.42Z"/>
        </g>
      </g>
    </g>
  </g>
</svg>
