<svg id="Layer_1" data-name="Layer 1" xmlns="http://www.w3.org/2000/svg" viewBox="0 0 260 168"><defs><style>.cls-1{fill:#003d7f;}.cls-2{fill:#01305b;}.cls-3{fill:#11bcbc;}.cls-4{fill:#c6005a;}.cls-5{fill:#ff066c;}.cls-6{fill:#042984;}</style></defs><circle class="cls-1" cx="80.42" cy="46.7" r="15.81"/><circle class="cls-2" cx="80.42" cy="46.7" r="14.27"/><circle class="cls-3" cx="80.42" cy="46.7" r="13.64"/><polygon class="cls-4" points="80.28 38.31 78.67 40.69 79.87 46.64 80.28 46.67 80.69 46.64 81.89 40.69 80.28 38.31"/><polygon class="cls-4" points="90.63 46.67 87.68 45.06 80.31 46.26 80.28 46.67 80.31 47.08 87.68 48.28 90.63 46.67"/><circle class="cls-5" cx="80.42" cy="46.7" r="1.61"/><path class="cls-6" d="M79,36.74V34.59l-.16.16-.15.16-.26-.36.12-.1.11-.1c.06-.06.13-.12.19-.19A1.2,1.2,0,0,0,79,34h.47v2.75Z"/><path class="cls-6" d="M80.31,36.74v-.32c.13-.14.26-.29.4-.43s.27-.28.39-.42a3.26,3.26,0,0,0,.3-.41.79.79,0,0,0,.11-.41.3.3,0,0,0-.1-.24.35.35,0,0,0-.25-.09.38.38,0,0,0-.19,0,.72.72,0,0,0-.15.11.78.78,0,0,0-.1.15,1.3,1.3,0,0,0-.08.17l-.38-.28.1-.21a1.09,1.09,0,0,1,.17-.22.92.92,0,0,1,.29-.17,1.24,1.24,0,0,1,.47-.08,1,1,0,0,1,.34.06.72.72,0,0,1,.27.15.66.66,0,0,1,.17.23.83.83,0,0,1,.06.32,1.07,1.07,0,0,1-.12.48,2.6,2.6,0,0,1-.28.45,4.12,4.12,0,0,1-.35.37l-.3.28h1.07v.46Z"/><path class="cls-6" d="M81.32,58.47a.87.87,0,0,1-.07.37.71.71,0,0,1-.18.29.79.79,0,0,1-.29.18,1,1,0,0,1-.39.07,1.05,1.05,0,0,1-.4-.07.85.85,0,0,1-.31-.21,1,1,0,0,1-.2-.32,1.16,1.16,0,0,1-.07-.42,1.67,1.67,0,0,1,.08-.49,2.62,2.62,0,0,1,.22-.48A3.47,3.47,0,0,1,80,57a4.15,4.15,0,0,1,.34-.37H81a3.11,3.11,0,0,0-.49.53,3.44,3.44,0,0,0-.4.62l.11-.06.1,0,.09,0h.11a.81.81,0,0,1,.31.06.69.69,0,0,1,.24.18.89.89,0,0,1,.15.27A1,1,0,0,1,81.32,58.47Zm-.56,0a.45.45,0,0,0-.1-.3.33.33,0,0,0-.26-.11.29.29,0,0,0-.39.26v.09a.47.47,0,0,0,.11.33.35.35,0,0,0,.28.12.3.3,0,0,0,.26-.11A.43.43,0,0,0,80.76,58.49Z"/><path class="cls-6" d="M93,47.28a.62.62,0,0,1-.07.31.64.64,0,0,1-.18.25,1.15,1.15,0,0,1-.29.16,1.62,1.62,0,0,1-.4,0l-.3,0L91.53,48a1,1,0,0,1-.22-.14,1.33,1.33,0,0,1-.22-.2l.26-.36a.87.87,0,0,0,.66.35.45.45,0,0,0,.31-.1.34.34,0,0,0,.11-.27.47.47,0,0,0,0-.17.33.33,0,0,0-.1-.14.51.51,0,0,0-.21-.09,1.39,1.39,0,0,0-.32,0h-.18v-.46h.24a1.14,1.14,0,0,0,.28,0,.43.43,0,0,0,.17-.06.21.21,0,0,0,.08-.11.43.43,0,0,0,0-.17.28.28,0,0,0-.11-.23.41.41,0,0,0-.28-.09.55.55,0,0,0-.28.07.86.86,0,0,0-.28.22l-.22-.39a1.1,1.1,0,0,1,.91-.36.93.93,0,0,1,.34,0,.77.77,0,0,1,.27.14.72.72,0,0,1,.22.53.67.67,0,0,1-.11.39.88.88,0,0,1-.38.26.78.78,0,0,1,.42.23A.75.75,0,0,1,93,47.28Z"/><path class="cls-6" d="M70.05,48h-.52l0-1.16a.68.68,0,0,1-.49.18.72.72,0,0,1-.33-.07.64.64,0,0,1-.25-.18.81.81,0,0,1-.16-.27,1.06,1.06,0,0,1-.06-.37,1,1,0,0,1,.07-.39.77.77,0,0,1,.19-.3,1.08,1.08,0,0,1,.31-.19,1.31,1.31,0,0,1,.41-.06,1.06,1.06,0,0,1,.37.06.78.78,0,0,1,.26.17.75.75,0,0,1,.22.56Zm-.49-2a.31.31,0,0,0,0-.13.36.36,0,0,0-.07-.1l-.11-.07a.3.3,0,0,0-.13,0,.37.37,0,0,0-.29.12.53.53,0,0,0-.11.34.4.4,0,0,0,.1.3.32.32,0,0,0,.26.11.37.37,0,0,0,.27-.11.41.41,0,0,0,.11-.3Z"/></svg>